{"metadata": {"schema_version": "0.1", "title": "RWC-MDB-P-2001 No. 34: Hitoyo no yume / Hiromi Yoshii", "copyright": "RWC Music Database. Copyright (C) 2001 Real World Computing Partnership (contact: Masataka GOTO <m.goto@aist.go.jp>)", "source_filename": "RM-P034.SMF_SYNC.MID", "source_format": "midi"}, "resolution": 480, "tempos": [{"time": 0, "qpm": 93.00004185001883}], "key_signatures": [{"time": 0, "root": 7, "mode": "minor"}], "time_signatures": [{"time": 0, "numerator": 4, "denominator": 4}, {"time": 1920, "numerator": 5, "denominator": 8}, {"time": 24720, "numerator": 3, "denominator": 4}, {"time": 70800, "numerator": 5, "denominator": 8}, {"time": 99600, "numerator": 3, "denominator": 4}, {"time": 112560, "numerator": 5, "denominator": 8}, {"time": 150960, "numerator": 2, "denominator": 4}, {"time": 151920, "numerator": 5, "denominator": 8}, {"time": 153120, "numerator": 2, "denominator": 4}, {"time": 154080, "numerator": 4, "denominator": 4}], "tracks": [{"program": 0, "is_drum": false, "name": "STRINGS", "annotations": [{"time": 960, "annotation": {"number": 0, "value": 0}, "group": "control_change"}, {"time": 970, "annotation": {"number": 32, "value": 0}, "group": "control_change"}]}, {"program": 48, "is_drum": false, "name": "STRINGS", "notes": [{"time": 4320, "pitch": 79, "duration": 340, "velocity": 104}, {"time": 4680, "pitch": 82, "duration": 340, "velocity": 110}, {"time": 5040, "pitch": 81, "duration": 220, "velocity": 110}, {"time": 5280, "pitch": 77, "duration": 220, "velocity": 100}, {"time": 5520, "pitch": 79, "duration": 1150, "velocity": 100}, {"time": 6720, "pitch": 79, "duration": 340, "velocity": 104}, {"time": 7080, "pitch": 82, "duration": 340, "velocity": 110}, {"time": 7440, "pitch": 81, "duration": 220, "velocity": 110}, {"time": 7680, "pitch": 77, "duration": 220, "velocity": 100}, {"time": 7920, "pitch": 79, "duration": 340, "velocity": 100}, {"time": 8280, "pitch": 86, "duration": 800, "velocity": 110}, {"time": 9120, "pitch": 79, "duration": 340, "velocity": 104}, {"time": 9480, "pitch": 82, "duration": 340, "velocity": 110}, {"time": 9840, "pitch": 81, "duration": 220, "velocity": 110}, {"time": 10080, "pitch": 77, "duration": 220, "velocity": 100}, {"time": 10320, "pitch": 79, "duration": 1150, "velocity": 100}, {"time": 11520, "pitch": 79, "duration": 340, "velocity": 104}, {"time": 11880, "pitch": 82, "duration": 340, "velocity": 110}, {"time": 12240, "pitch": 81, "duration": 220, "velocity": 110}, {"time": 12480, "pitch": 77, "duration": 220, "velocity": 100}, {"time": 12720, "pitch": 79, "duration": 340, "velocity": 100}, {"time": 13080, "pitch": 86, "duration": 800, "velocity": 110}, {"time": 13920, "pitch": 79, "duration": 340, "velocity": 104}, {"time": 14280, "pitch": 82, "duration": 340, "velocity": 110}, {"time": 14640, "pitch": 81, "duration": 220, "velocity": 110}, {"time": 14880, "pitch": 77, "duration": 220, "velocity": 100}, {"time": 15120, "pitch": 79, "duration": 1150, "velocity": 100}, {"time": 16320, "pitch": 79, "duration": 340, "velocity": 104}, {"time": 16680, "pitch": 82, "duration": 340, "velocity": 110}, {"time": 17040, "pitch": 81, "duration": 220, "velocity": 110}, {"time": 17280, "pitch": 77, "duration": 220, "velocity": 100}, {"time": 17520, "pitch": 79, "duration": 340, "velocity": 100}, {"time": 17880, "pitch": 86, "duration": 800, "velocity": 110}, {"time": 18720, "pitch": 79, "duration": 340, "velocity": 104}, {"time": 19080, "pitch": 82, "duration": 340, "velocity": 110}, {"time": 19440, "pitch": 81, "duration": 220, "velocity": 110}, {"time": 19680, "pitch": 77, "duration": 220, "velocity": 100}, {"time": 19920, "pitch": 79, "duration": 1150, "velocity": 100}, {"time": 21120, "pitch": 79, "duration": 340, "velocity": 104}, {"time": 21480, "pitch": 82, "duration": 340, "velocity": 110}, {"time": 21840, "pitch": 81, "duration": 220, "velocity": 110}, {"time": 22080, "pitch": 77, "duration": 220, "velocity": 100}, {"time": 22320, "pitch": 79, "duration": 340, "velocity": 100}, {"time": 22680, "pitch": 86, "duration": 1990, "velocity": 110}, {"time": 47760, "pitch": 74, "duration": 2400, "velocity": 98}, {"time": 50640, "pitch": 74, "duration": 2360, "velocity": 98}, {"time": 53040, "pitch": 70, "duration": 220, "velocity": 88}, {"time": 53280, "pitch": 72, "duration": 220, "velocity": 98}, {"time": 53520, "pitch": 74, "duration": 2400, "velocity": 98}, {"time": 56400, "pitch": 74, "duration": 2360, "velocity": 98}, {"time": 58800, "pitch": 70, "duration": 220, "velocity": 88}, {"time": 59040, "pitch": 69, "duration": 220, "velocity": 98}, {"time": 59280, "pitch": 67, "duration": 680, "velocity": 98}, {"time": 60000, "pitch": 69, "duration": 680, "velocity": 98}, {"time": 60720, "pitch": 65, "duration": 1420, "velocity": 98}, {"time": 62160, "pitch": 60, "duration": 680, "velocity": 98}, {"time": 62880, "pitch": 63, "duration": 680, "velocity": 98}, {"time": 63600, "pitch": 62, "duration": 1420, "velocity": 98}, {"time": 65040, "pitch": 67, "duration": 680, "velocity": 98}, {"time": 65760, "pitch": 69, "duration": 680, "velocity": 98}, {"time": 66480, "pitch": 65, "duration": 1420, "velocity": 98}, {"time": 67920, "pitch": 67, "duration": 680, "velocity": 98}, {"time": 68640, "pitch": 69, "duration": 680, "velocity": 98}, {"time": 69360, "pitch": 70, "duration": 680, "velocity": 98}, {"time": 70080, "pitch": 72, "duration": 200, "velocity": 98}, {"time": 70800, "pitch": 79, "duration": 340, "velocity": 94}, {"time": 71160, "pitch": 82, "duration": 340, "velocity": 100}, {"time": 71520, "pitch": 81, "duration": 220, "velocity": 100}, {"time": 71760, "pitch": 77, "duration": 220, "velocity": 90}, {"time": 72000, "pitch": 79, "duration": 1150, "velocity": 90}, {"time": 73200, "pitch": 79, "duration": 340, "velocity": 94}, {"time": 73560, "pitch": 82, "duration": 340, "velocity": 100}, {"time": 73920, "pitch": 81, "duration": 220, "velocity": 100}, {"time": 74160, "pitch": 77, "duration": 220, "velocity": 90}, {"time": 74400, "pitch": 79, "duration": 340, "velocity": 90}, {"time": 74760, "pitch": 86, "duration": 800, "velocity": 100}, {"time": 75600, "pitch": 79, "duration": 340, "velocity": 94}, {"time": 75960, "pitch": 82, "duration": 340, "velocity": 100}, {"time": 76320, "pitch": 81, "duration": 220, "velocity": 100}, {"time": 76560, "pitch": 77, "duration": 220, "velocity": 90}, {"time": 76800, "pitch": 79, "duration": 1150, "velocity": 90}, {"time": 78000, "pitch": 79, "duration": 340, "velocity": 94}, {"time": 78360, "pitch": 82, "duration": 340, "velocity": 100}, {"time": 78720, "pitch": 81, "duration": 220, "velocity": 100}, {"time": 78960, "pitch": 77, "duration": 220, "velocity": 90}, {"time": 79200, "pitch": 79, "duration": 340, "velocity": 90}, {"time": 79560, "pitch": 86, "duration": 800, "velocity": 100}, {"time": 80400, "pitch": 79, "duration": 9610, "velocity": 90}, {"time": 103920, "pitch": 60, "duration": 680, "velocity": 98}, {"time": 104640, "pitch": 63, "duration": 680, "velocity": 98}, {"time": 105360, "pitch": 62, "duration": 1420, "velocity": 98}, {"time": 106800, "pitch": 67, "duration": 680, "velocity": 98}, {"time": 107520, "pitch": 69, "duration": 680, "velocity": 98}, {"time": 108240, "pitch": 65, "duration": 1420, "velocity": 98}, {"time": 109680, "pitch": 67, "duration": 680, "velocity": 98}, {"time": 110400, "pitch": 69, "duration": 680, "velocity": 98}, {"time": 111120, "pitch": 70, "duration": 680, "velocity": 98}, {"time": 111840, "pitch": 72, "duration": 200, "velocity": 98}, {"time": 112560, "pitch": 79, "duration": 340, "velocity": 94}, {"time": 112920, "pitch": 82, "duration": 340, "velocity": 100}, {"time": 113280, "pitch": 81, "duration": 220, "velocity": 100}, {"time": 113520, "pitch": 77, "duration": 220, "velocity": 90}, {"time": 113760, "pitch": 79, "duration": 1150, "velocity": 90}, {"time": 114960, "pitch": 79, "duration": 340, "velocity": 94}, {"time": 115320, "pitch": 82, "duration": 340, "velocity": 100}, {"time": 115680, "pitch": 81, "duration": 220, "velocity": 100}, {"time": 115920, "pitch": 77, "duration": 220, "velocity": 90}, {"time": 116160, "pitch": 79, "duration": 340, "velocity": 90}, {"time": 116520, "pitch": 86, "duration": 800, "velocity": 100}, {"time": 117360, "pitch": 79, "duration": 340, "velocity": 94}, {"time": 117720, "pitch": 82, "duration": 340, "velocity": 100}, {"time": 118080, "pitch": 81, "duration": 220, "velocity": 100}, {"time": 118320, "pitch": 77, "duration": 220, "velocity": 90}, {"time": 118560, "pitch": 79, "duration": 1150, "velocity": 90}, {"time": 119760, "pitch": 79, "duration": 340, "velocity": 94}, {"time": 120120, "pitch": 82, "duration": 340, "velocity": 100}, {"time": 120480, "pitch": 81, "duration": 220, "velocity": 100}, {"time": 120720, "pitch": 77, "duration": 220, "velocity": 90}, {"time": 120960, "pitch": 79, "duration": 340, "velocity": 90}, {"time": 121320, "pitch": 86, "duration": 800, "velocity": 100}, {"time": 122160, "pitch": 79, "duration": 340, "velocity": 94}, {"time": 122520, "pitch": 82, "duration": 340, "velocity": 100}, {"time": 122880, "pitch": 81, "duration": 220, "velocity": 100}, {"time": 123120, "pitch": 77, "duration": 220, "velocity": 90}, {"time": 123360, "pitch": 79, "duration": 1150, "velocity": 90}, {"time": 124560, "pitch": 79, "duration": 340, "velocity": 94}, {"time": 124920, "pitch": 82, "duration": 340, "velocity": 100}, {"time": 125280, "pitch": 81, "duration": 220, "velocity": 100}, {"time": 125520, "pitch": 77, "duration": 220, "velocity": 90}, {"time": 125760, "pitch": 79, "duration": 340, "velocity": 90}, {"time": 126120, "pitch": 86, "duration": 800, "velocity": 100}, {"time": 126960, "pitch": 79, "duration": 340, "velocity": 94}, {"time": 127320, "pitch": 82, "duration": 340, "velocity": 100}, {"time": 127680, "pitch": 81, "duration": 220, "velocity": 100}, {"time": 127920, "pitch": 77, "duration": 220, "velocity": 90}, {"time": 128160, "pitch": 79, "duration": 1150, "velocity": 90}, {"time": 129360, "pitch": 79, "duration": 340, "velocity": 94}, {"time": 129720, "pitch": 82, "duration": 340, "velocity": 100}, {"time": 130080, "pitch": 81, "duration": 220, "velocity": 100}, {"time": 130320, "pitch": 77, "duration": 220, "velocity": 90}, {"time": 130560, "pitch": 79, "duration": 340, "velocity": 90}, {"time": 130920, "pitch": 86, "duration": 800, "velocity": 100}, {"time": 131760, "pitch": 67, "duration": 340, "velocity": 94}, {"time": 131760, "pitch": 79, "duration": 340, "velocity": 94}, {"time": 132120, "pitch": 70, "duration": 340, "velocity": 100}, {"time": 132120, "pitch": 82, "duration": 340, "velocity": 100}, {"time": 132480, "pitch": 69, "duration": 220, "velocity": 100}, {"time": 132480, "pitch": 81, "duration": 220, "velocity": 100}, {"time": 132720, "pitch": 65, "duration": 220, "velocity": 90}, {"time": 132720, "pitch": 77, "duration": 220, "velocity": 90}, {"time": 132960, "pitch": 67, "duration": 1150, "velocity": 90}, {"time": 132960, "pitch": 79, "duration": 1150, "velocity": 90}, {"time": 134160, "pitch": 67, "duration": 340, "velocity": 94}, {"time": 134160, "pitch": 79, "duration": 340, "velocity": 94}, {"time": 134520, "pitch": 70, "duration": 340, "velocity": 100}, {"time": 134520, "pitch": 82, "duration": 340, "velocity": 100}, {"time": 134880, "pitch": 69, "duration": 220, "velocity": 100}, {"time": 134880, "pitch": 81, "duration": 220, "velocity": 100}, {"time": 135120, "pitch": 65, "duration": 220, "velocity": 90}, {"time": 135120, "pitch": 77, "duration": 220, "velocity": 90}, {"time": 135360, "pitch": 67, "duration": 340, "velocity": 90}, {"time": 135360, "pitch": 79, "duration": 340, "velocity": 90}, {"time": 135720, "pitch": 74, "duration": 800, "velocity": 100}, {"time": 135720, "pitch": 86, "duration": 800, "velocity": 100}, {"time": 136560, "pitch": 67, "duration": 340, "velocity": 94}, {"time": 136560, "pitch": 79, "duration": 340, "velocity": 94}, {"time": 136920, "pitch": 70, "duration": 340, "velocity": 100}, {"time": 136920, "pitch": 82, "duration": 340, "velocity": 100}, {"time": 137280, "pitch": 69, "duration": 220, "velocity": 100}, {"time": 137280, "pitch": 81, "duration": 220, "velocity": 100}, {"time": 137520, "pitch": 65, "duration": 220, "velocity": 90}, {"time": 137520, "pitch": 77, "duration": 220, "velocity": 90}, {"time": 137760, "pitch": 67, "duration": 1150, "velocity": 90}, {"time": 137760, "pitch": 79, "duration": 1150, "velocity": 90}, {"time": 138960, "pitch": 67, "duration": 340, "velocity": 94}, {"time": 138960, "pitch": 79, "duration": 340, "velocity": 94}, {"time": 139320, "pitch": 70, "duration": 340, "velocity": 100}, {"time": 139320, "pitch": 82, "duration": 340, "velocity": 100}, {"time": 139680, "pitch": 69, "duration": 220, "velocity": 100}, {"time": 139680, "pitch": 81, "duration": 220, "velocity": 100}, {"time": 139920, "pitch": 65, "duration": 220, "velocity": 90}, {"time": 139920, "pitch": 77, "duration": 220, "velocity": 90}, {"time": 140160, "pitch": 67, "duration": 340, "velocity": 90}, {"time": 140160, "pitch": 79, "duration": 340, "velocity": 90}, {"time": 140520, "pitch": 74, "duration": 800, "velocity": 100}, {"time": 140520, "pitch": 86, "duration": 800, "velocity": 100}, {"time": 141360, "pitch": 67, "duration": 340, "velocity": 104}, {"time": 141360, "pitch": 79, "duration": 340, "velocity": 104}, {"time": 141720, "pitch": 70, "duration": 340, "velocity": 110}, {"time": 141720, "pitch": 82, "duration": 340, "velocity": 110}, {"time": 142080, "pitch": 69, "duration": 220, "velocity": 110}, {"time": 142080, "pitch": 81, "duration": 220, "velocity": 110}, {"time": 142320, "pitch": 65, "duration": 220, "velocity": 100}, {"time": 142320, "pitch": 77, "duration": 220, "velocity": 100}, {"time": 142560, "pitch": 67, "duration": 1150, "velocity": 100}, {"time": 142560, "pitch": 79, "duration": 1150, "velocity": 100}, {"time": 143760, "pitch": 67, "duration": 340, "velocity": 104}, {"time": 143760, "pitch": 79, "duration": 340, "velocity": 104}, {"time": 144120, "pitch": 70, "duration": 340, "velocity": 110}, {"time": 144120, "pitch": 82, "duration": 340, "velocity": 110}, {"time": 144480, "pitch": 69, "duration": 220, "velocity": 110}, {"time": 144480, "pitch": 81, "duration": 220, "velocity": 110}, {"time": 144720, "pitch": 65, "duration": 220, "velocity": 100}, {"time": 144720, "pitch": 77, "duration": 220, "velocity": 100}, {"time": 144960, "pitch": 67, "duration": 340, "velocity": 100}, {"time": 144960, "pitch": 79, "duration": 340, "velocity": 100}, {"time": 145320, "pitch": 74, "duration": 800, "velocity": 110}, {"time": 145320, "pitch": 86, "duration": 800, "velocity": 110}, {"time": 146160, "pitch": 67, "duration": 340, "velocity": 104}, {"time": 146160, "pitch": 79, "duration": 340, "velocity": 104}, {"time": 146520, "pitch": 70, "duration": 340, "velocity": 110}, {"time": 146520, "pitch": 82, "duration": 340, "velocity": 110}, {"time": 146880, "pitch": 69, "duration": 220, "velocity": 110}, {"time": 146880, "pitch": 81, "duration": 220, "velocity": 110}, {"time": 147120, "pitch": 65, "duration": 220, "velocity": 100}, {"time": 147120, "pitch": 77, "duration": 220, "velocity": 100}, {"time": 147360, "pitch": 67, "duration": 1150, "velocity": 100}, {"time": 147360, "pitch": 79, "duration": 1150, "velocity": 100}, {"time": 148560, "pitch": 67, "duration": 340, "velocity": 104}, {"time": 148560, "pitch": 79, "duration": 340, "velocity": 104}, {"time": 148920, "pitch": 70, "duration": 340, "velocity": 110}, {"time": 148920, "pitch": 82, "duration": 340, "velocity": 110}, {"time": 149280, "pitch": 69, "duration": 220, "velocity": 110}, {"time": 149280, "pitch": 81, "duration": 220, "velocity": 110}, {"time": 149520, "pitch": 65, "duration": 220, "velocity": 100}, {"time": 149520, "pitch": 77, "duration": 220, "velocity": 100}, {"time": 149760, "pitch": 67, "duration": 340, "velocity": 100}, {"time": 149760, "pitch": 79, "duration": 340, "velocity": 100}, {"time": 150120, "pitch": 74, "duration": 800, "velocity": 110}, {"time": 150120, "pitch": 86, "duration": 800, "velocity": 110}, {"time": 150960, "pitch": 67, "duration": 340, "velocity": 104}, {"time": 150960, "pitch": 79, "duration": 340, "velocity": 104}, {"time": 151320, "pitch": 70, "duration": 340, "velocity": 110}, {"time": 151320, "pitch": 82, "duration": 340, "velocity": 110}, {"time": 151680, "pitch": 69, "duration": 150, "velocity": 110}, {"time": 151680, "pitch": 81, "duration": 150, "velocity": 110}, {"time": 151920, "pitch": 67, "duration": 340, "velocity": 104}, {"time": 151920, "pitch": 79, "duration": 340, "velocity": 104}, {"time": 152280, "pitch": 70, "duration": 340, "velocity": 110}, {"time": 152280, "pitch": 82, "duration": 340, "velocity": 110}, {"time": 152640, "pitch": 69, "duration": 220, "velocity": 110}, {"time": 152640, "pitch": 81, "duration": 220, "velocity": 110}, {"time": 152880, "pitch": 65, "duration": 220, "velocity": 100}, {"time": 152880, "pitch": 77, "duration": 220, "velocity": 100}, {"time": 153120, "pitch": 67, "duration": 240, "velocity": 104}, {"time": 153120, "pitch": 79, "duration": 240, "velocity": 104}], "annotations": [{"time": 990, "annotation": {"number": 7, "value": 100}, "group": "control_change"}, {"time": 1000, "annotation": {"number": 11, "value": 100}, "group": "control_change"}, {"time": 1010, "annotation": {"number": 10, "value": 64}, "group": "control_change"}, {"time": 1020, "annotation": {"number": 91, "value": 90}, "group": "control_change"}, {"time": 1030, "annotation": {"number": 93, "value": 0}, "group": "control_change"}, {"time": 1040, "annotation": {"number": 101, "value": 0}, "group": "control_change"}, {"time": 1050, "annotation": {"number": 100, "value": 0}, "group": "control_change"}, {"time": 1060, "annotation": {"number": 6, "value": 12}, "group": "control_change"}, {"time": 1070, "annotation": {"number": 101, "value": 127}, "group": "control_change"}, {"time": 1080, "annotation": {"number": 100, "value": 127}, "group": "control_change"}, {"time": 23520, "annotation": {"number": 11, "value": 100}, "group": "control_change"}, {"time": 23880, "annotation": {"number": 11, "value": 99}, "group": "control_change"}, {"time": 23970, "annotation": {"number": 11, "value": 98}, "group": "control_change"}, {"time": 24060, "annotation": {"number": 11, "value": 97}, "group": "control_change"}, {"time": 24150, "annotation": {"number": 11, "value": 95}, "group": "control_change"}, {"time": 24240, "annotation": {"number": 11, "value": 93}, "group": "control_change"}, {"time": 24330, "annotation": {"number": 11, "value": 89}, "group": "control_change"}, {"time": 24420, "annotation": {"number": 11, "value": 82}, "group": "control_change"}, {"time": 24510, "annotation": {"number": 11, "value": 73}, "group": "control_change"}, {"time": 24600, "annotation": {"number": 11, "value": 60}, "group": "control_change"}, {"time": 24690, "annotation": {"number": 11, "value": 39}, "group": "control_change"}, {"time": 24720, "annotation": {"number": 11, "value": 28}, "group": "control_change"}, {"time": 47760, "annotation": {"number": 11, "value": 90}, "group": "control_change"}, {"time": 65040, "annotation": {"number": 11, "value": 95}, "group": "control_change"}, {"time": 70800, "annotation": {"number": 11, "value": 100}, "group": "control_change"}]}, {"program": 0, "is_drum": false, "name": "BASS", "annotations": [{"time": 960, "annotation": {"number": 0, "value": 0}, "group": "control_change"}, {"time": 970, "annotation": {"number": 32, "value": 0}, "group": "control_change"}]}, {"program": 33, "is_drum": false, "name": "BASS", "notes": [{"time": 4080, "pitch": 34, "duration": 240, "velocity": 100}, {"time": 4320, "pitch": 39, "duration": 1200, "velocity": 110}, {"time": 5520, "pitch": 39, "duration": 200, "velocity": 110}, {"time": 5880, "pitch": 39, "duration": 200, "velocity": 110}, {"time": 6480, "pitch": 33, "duration": 240, "velocity": 100}, {"time": 6720, "pitch": 38, "duration": 1200, "velocity": 110}, {"time": 7920, "pitch": 38, "duration": 200, "velocity": 110}, {"time": 8280, "pitch": 38, "duration": 200, "velocity": 110}, {"time": 8880, "pitch": 34, "duration": 240, "velocity": 100}, {"time": 9120, "pitch": 39, "duration": 1200, "velocity": 110}, {"time": 10320, "pitch": 39, "duration": 200, "velocity": 110}, {"time": 10680, "pitch": 39, "duration": 200, "velocity": 110}, {"time": 11280, "pitch": 33, "duration": 240, "velocity": 100}, {"time": 11520, "pitch": 38, "duration": 1200, "velocity": 110}, {"time": 12720, "pitch": 38, "duration": 200, "velocity": 110}, {"time": 13080, "pitch": 38, "duration": 200, "velocity": 110}, {"time": 13920, "pitch": 39, "duration": 220, "velocity": 110}, {"time": 14160, "pitch": 39, "duration": 90, "velocity": 100}, {"time": 14280, "pitch": 34, "duration": 220, "velocity": 110}, {"time": 14520, "pitch": 34, "duration": 70, "velocity": 100}, {"time": 14640, "pitch": 33, "duration": 220, "velocity": 110}, {"time": 14880, "pitch": 34, "duration": 220, "velocity": 110}, {"time": 15120, "pitch": 39, "duration": 220, "velocity": 110}, {"time": 15360, "pitch": 39, "duration": 90, "velocity": 100}, {"time": 15480, "pitch": 34, "duration": 220, "velocity": 110}, {"time": 15720, "pitch": 34, "duration": 70, "velocity": 100}, {"time": 15840, "pitch": 33, "duration": 220, "velocity": 110}, {"time": 16080, "pitch": 33, "duration": 220, "velocity": 110}, {"time": 16320, "pitch": 31, "duration": 220, "velocity": 110}, {"time": 16560, "pitch": 31, "duration": 100, "velocity": 100}, {"time": 16680, "pitch": 38, "duration": 220, "velocity": 110}, {"time": 16920, "pitch": 38, "duration": 70, "velocity": 100}, {"time": 17040, "pitch": 31, "duration": 220, "velocity": 110}, {"time": 17280, "pitch": 38, "duration": 220, "velocity": 110}, {"time": 17520, "pitch": 31, "duration": 220, "velocity": 110}, {"time": 17760, "pitch": 31, "duration": 90, "velocity": 100}, {"time": 17880, "pitch": 33, "duration": 220, "velocity": 110}, {"time": 18120, "pitch": 33, "duration": 100, "velocity": 100}, {"time": 18240, "pitch": 36, "duration": 220, "velocity": 110}, {"time": 18480, "pitch": 36, "duration": 220, "velocity": 110}, {"time": 18720, "pitch": 39, "duration": 220, "velocity": 110}, {"time": 18960, "pitch": 39, "duration": 90, "velocity": 100}, {"time": 19080, "pitch": 34, "duration": 220, "velocity": 110}, {"time": 19320, "pitch": 34, "duration": 70, "velocity": 100}, {"time": 19440, "pitch": 33, "duration": 220, "velocity": 110}, {"time": 19680, "pitch": 34, "duration": 220, "velocity": 110}, {"time": 19920, "pitch": 39, "duration": 220, "velocity": 110}, {"time": 20160, "pitch": 39, "duration": 90, "velocity": 100}, {"time": 20280, "pitch": 34, "duration": 220, "velocity": 110}, {"time": 20520, "pitch": 34, "duration": 70, "velocity": 100}, {"time": 20640, "pitch": 33, "duration": 220, "velocity": 110}, {"time": 20880, "pitch": 39, "duration": 220, "velocity": 110}, {"time": 21120, "pitch": 31, "duration": 220, "velocity": 110}, {"time": 21360, "pitch": 31, "duration": 100, "velocity": 100}, {"time": 21480, "pitch": 38, "duration": 220, "velocity": 110}, {"time": 21720, "pitch": 38, "duration": 70, "velocity": 100}, {"time": 21840, "pitch": 31, "duration": 220, "velocity": 110}, {"time": 22080, "pitch": 38, "duration": 220, "velocity": 110}, {"time": 22320, "pitch": 31, "duration": 220, "velocity": 110}, {"time": 22680, "pitch": 38, "duration": 2020, "velocity": 110}, {"time": 47280, "pitch": 53, "duration": 150, "velocity": 90}, {"time": 47760, "pitch": 36, "duration": 340, "velocity": 105}, {"time": 48120, "pitch": 31, "duration": 340, "velocity": 95}, {"time": 48480, "pitch": 38, "duration": 220, "velocity": 105}, {"time": 48720, "pitch": 33, "duration": 220, "velocity": 101}, {"time": 48960, "pitch": 32, "duration": 220, "velocity": 105}, {"time": 49200, "pitch": 36, "duration": 340, "velocity": 105}, {"time": 49560, "pitch": 31, "duration": 220, "velocity": 95}, {"time": 49800, "pitch": 36, "duration": 350, "velocity": 105}, {"time": 50160, "pitch": 45, "duration": 130, "velocity": 101}, {"time": 50640, "pitch": 36, "duration": 340, "velocity": 105}, {"time": 51000, "pitch": 31, "duration": 340, "velocity": 95}, {"time": 51360, "pitch": 38, "duration": 220, "velocity": 105}, {"time": 51600, "pitch": 33, "duration": 220, "velocity": 101}, {"time": 51840, "pitch": 32, "duration": 220, "velocity": 105}, {"time": 52080, "pitch": 31, "duration": 340, "velocity": 105}, {"time": 52440, "pitch": 38, "duration": 340, "velocity": 95}, {"time": 52800, "pitch": 43, "duration": 220, "velocity": 105}, {"time": 53040, "pitch": 38, "duration": 220, "velocity": 105}, {"time": 53280, "pitch": 31, "duration": 220, "velocity": 101}, {"time": 53520, "pitch": 36, "duration": 340, "velocity": 105}, {"time": 53880, "pitch": 31, "duration": 340, "velocity": 95}, {"time": 54240, "pitch": 38, "duration": 220, "velocity": 105}, {"time": 54480, "pitch": 33, "duration": 220, "velocity": 101}, {"time": 54720, "pitch": 32, "duration": 220, "velocity": 105}, {"time": 54960, "pitch": 36, "duration": 340, "velocity": 105}, {"time": 55320, "pitch": 31, "duration": 220, "velocity": 95}, {"time": 55560, "pitch": 36, "duration": 350, "velocity": 105}, {"time": 55920, "pitch": 45, "duration": 130, "velocity": 101}, {"time": 56400, "pitch": 36, "duration": 340, "velocity": 105}, {"time": 56760, "pitch": 31, "duration": 340, "velocity": 95}, {"time": 57120, "pitch": 38, "duration": 220, "velocity": 105}, {"time": 57360, "pitch": 33, "duration": 220, "velocity": 101}, {"time": 57600, "pitch": 32, "duration": 220, "velocity": 105}, {"time": 57840, "pitch": 31, "duration": 340, "velocity": 105}, {"time": 58200, "pitch": 38, "duration": 340, "velocity": 95}, {"time": 58560, "pitch": 43, "duration": 220, "velocity": 105}, {"time": 58800, "pitch": 38, "duration": 220, "velocity": 105}, {"time": 59040, "pitch": 31, "duration": 220, "velocity": 101}, {"time": 59280, "pitch": 39, "duration": 680, "velocity": 111}, {"time": 60000, "pitch": 41, "duration": 220, "velocity": 101}, {"time": 60240, "pitch": 36, "duration": 220, "velocity": 111}, {"time": 60480, "pitch": 35, "duration": 220, "velocity": 101}, {"time": 60720, "pitch": 34, "duration": 680, "velocity": 111}, {"time": 61440, "pitch": 38, "duration": 220, "velocity": 101}, {"time": 61680, "pitch": 29, "duration": 220, "velocity": 104}, {"time": 61920, "pitch": 33, "duration": 220, "velocity": 101}, {"time": 62160, "pitch": 36, "duration": 680, "velocity": 111}, {"time": 62880, "pitch": 38, "duration": 220, "velocity": 111}, {"time": 63120, "pitch": 33, "duration": 220, "velocity": 101}, {"time": 63360, "pitch": 29, "duration": 220, "velocity": 98}, {"time": 63600, "pitch": 31, "duration": 220, "velocity": 98}, {"time": 63840, "pitch": 33, "duration": 220, "velocity": 108}, {"time": 64080, "pitch": 34, "duration": 220, "velocity": 98}, {"time": 64320, "pitch": 36, "duration": 220, "velocity": 108}, {"time": 64560, "pitch": 38, "duration": 220, "velocity": 108}, {"time": 64800, "pitch": 41, "duration": 220, "velocity": 102}, {"time": 65040, "pitch": 39, "duration": 220, "velocity": 112}, {"time": 65280, "pitch": 39, "duration": 10, "velocity": 102}, {"time": 65400, "pitch": 39, "duration": 340, "velocity": 102}, {"time": 65760, "pitch": 29, "duration": 120, "velocity": 112}, {"time": 66000, "pitch": 29, "duration": 150, "velocity": 102}, {"time": 66240, "pitch": 29, "duration": 150, "velocity": 112}, {"time": 66480, "pitch": 34, "duration": 340, "velocity": 112}, {"time": 66840, "pitch": 29, "duration": 340, "velocity": 102}, {"time": 67200, "pitch": 34, "duration": 220, "velocity": 102}, {"time": 67440, "pitch": 36, "duration": 220, "velocity": 112}, {"time": 67680, "pitch": 34, "duration": 220, "velocity": 102}, {"time": 67920, "pitch": 36, "duration": 340, "velocity": 109}, {"time": 68280, "pitch": 31, "duration": 220, "velocity": 95}, {"time": 68520, "pitch": 36, "duration": 350, "velocity": 109}, {"time": 68880, "pitch": 33, "duration": 220, "velocity": 101}, {"time": 69120, "pitch": 38, "duration": 220, "velocity": 115}, {"time": 69360, "pitch": 39, "duration": 200, "velocity": 115}, {"time": 69720, "pitch": 39, "duration": 340, "velocity": 105}, {"time": 70080, "pitch": 29, "duration": 200, "velocity": 115}, {"time": 70320, "pitch": 41, "duration": 150, "velocity": 115}, {"time": 70800, "pitch": 39, "duration": 220, "velocity": 110}, {"time": 71040, "pitch": 39, "duration": 90, "velocity": 100}, {"time": 71160, "pitch": 34, "duration": 220, "velocity": 110}, {"time": 71400, "pitch": 34, "duration": 70, "velocity": 100}, {"time": 71520, "pitch": 33, "duration": 220, "velocity": 110}, {"time": 71760, "pitch": 34, "duration": 220, "velocity": 110}, {"time": 72000, "pitch": 39, "duration": 220, "velocity": 110}, {"time": 72240, "pitch": 39, "duration": 90, "velocity": 100}, {"time": 72360, "pitch": 34, "duration": 220, "velocity": 110}, {"time": 72600, "pitch": 34, "duration": 70, "velocity": 100}, {"time": 72720, "pitch": 33, "duration": 220, "velocity": 110}, {"time": 72960, "pitch": 33, "duration": 220, "velocity": 110}, {"time": 73200, "pitch": 31, "duration": 220, "velocity": 110}, {"time": 73440, "pitch": 31, "duration": 100, "velocity": 100}, {"time": 73560, "pitch": 38, "duration": 220, "velocity": 110}, {"time": 73800, "pitch": 38, "duration": 70, "velocity": 100}, {"time": 73920, "pitch": 31, "duration": 220, "velocity": 110}, {"time": 74160, "pitch": 38, "duration": 220, "velocity": 110}, {"time": 74400, "pitch": 31, "duration": 220, "velocity": 110}, {"time": 74640, "pitch": 31, "duration": 90, "velocity": 100}, {"time": 74760, "pitch": 33, "duration": 220, "velocity": 110}, {"time": 75000, "pitch": 33, "duration": 100, "velocity": 100}, {"time": 75120, "pitch": 36, "duration": 220, "velocity": 110}, {"time": 75360, "pitch": 36, "duration": 220, "velocity": 110}, {"time": 75600, "pitch": 39, "duration": 220, "velocity": 110}, {"time": 75840, "pitch": 39, "duration": 90, "velocity": 100}, {"time": 75960, "pitch": 34, "duration": 220, "velocity": 110}, {"time": 76200, "pitch": 34, "duration": 70, "velocity": 100}, {"time": 76320, "pitch": 33, "duration": 220, "velocity": 110}, {"time": 76560, "pitch": 34, "duration": 220, "velocity": 110}, {"time": 76800, "pitch": 39, "duration": 220, "velocity": 110}, {"time": 77040, "pitch": 39, "duration": 90, "velocity": 100}, {"time": 77160, "pitch": 34, "duration": 220, "velocity": 110}, {"time": 77400, "pitch": 34, "duration": 70, "velocity": 100}, {"time": 77520, "pitch": 33, "duration": 220, "velocity": 110}, {"time": 77760, "pitch": 33, "duration": 220, "velocity": 110}, {"time": 78000, "pitch": 31, "duration": 220, "velocity": 110}, {"time": 78240, "pitch": 31, "duration": 100, "velocity": 100}, {"time": 78360, "pitch": 38, "duration": 220, "velocity": 110}, {"time": 78600, "pitch": 38, "duration": 70, "velocity": 100}, {"time": 78720, "pitch": 31, "duration": 220, "velocity": 110}, {"time": 78960, "pitch": 38, "duration": 220, "velocity": 110}, {"time": 79200, "pitch": 31, "duration": 220, "velocity": 110}, {"time": 79440, "pitch": 31, "duration": 90, "velocity": 100}, {"time": 79560, "pitch": 33, "duration": 220, "velocity": 110}, {"time": 79800, "pitch": 33, "duration": 100, "velocity": 100}, {"time": 79920, "pitch": 36, "duration": 220, "velocity": 110}, {"time": 80160, "pitch": 36, "duration": 220, "velocity": 110}, {"time": 80400, "pitch": 39, "duration": 220, "velocity": 110}, {"time": 80640, "pitch": 39, "duration": 90, "velocity": 100}, {"time": 80760, "pitch": 34, "duration": 220, "velocity": 110}, {"time": 81000, "pitch": 34, "duration": 70, "velocity": 100}, {"time": 81120, "pitch": 33, "duration": 220, "velocity": 110}, {"time": 81360, "pitch": 34, "duration": 220, "velocity": 110}, {"time": 81600, "pitch": 39, "duration": 220, "velocity": 110}, {"time": 81840, "pitch": 39, "duration": 90, "velocity": 100}, {"time": 81960, "pitch": 34, "duration": 220, "velocity": 110}, {"time": 82200, "pitch": 34, "duration": 70, "velocity": 100}, {"time": 82320, "pitch": 33, "duration": 220, "velocity": 110}, {"time": 82560, "pitch": 33, "duration": 220, "velocity": 110}, {"time": 82800, "pitch": 31, "duration": 220, "velocity": 110}, {"time": 83040, "pitch": 31, "duration": 100, "velocity": 100}, {"time": 83160, "pitch": 38, "duration": 220, "velocity": 110}, {"time": 83400, "pitch": 38, "duration": 70, "velocity": 100}, {"time": 83520, "pitch": 31, "duration": 220, "velocity": 110}, {"time": 83760, "pitch": 38, "duration": 220, "velocity": 110}, {"time": 84000, "pitch": 31, "duration": 220, "velocity": 110}, {"time": 84240, "pitch": 31, "duration": 90, "velocity": 100}, {"time": 84360, "pitch": 33, "duration": 220, "velocity": 110}, {"time": 84600, "pitch": 33, "duration": 100, "velocity": 100}, {"time": 84720, "pitch": 36, "duration": 220, "velocity": 110}, {"time": 84960, "pitch": 36, "duration": 220, "velocity": 110}, {"time": 85200, "pitch": 39, "duration": 220, "velocity": 110}, {"time": 85440, "pitch": 39, "duration": 90, "velocity": 100}, {"time": 85560, "pitch": 34, "duration": 220, "velocity": 110}, {"time": 85800, "pitch": 34, "duration": 70, "velocity": 100}, {"time": 85920, "pitch": 33, "duration": 220, "velocity": 110}, {"time": 86160, "pitch": 34, "duration": 220, "velocity": 110}, {"time": 86400, "pitch": 39, "duration": 220, "velocity": 110}, {"time": 86640, "pitch": 39, "duration": 90, "velocity": 100}, {"time": 86760, "pitch": 34, "duration": 220, "velocity": 110}, {"time": 87000, "pitch": 34, "duration": 70, "velocity": 100}, {"time": 87120, "pitch": 33, "duration": 220, "velocity": 110}, {"time": 87360, "pitch": 33, "duration": 220, "velocity": 110}, {"time": 87600, "pitch": 31, "duration": 220, "velocity": 110}, {"time": 87840, "pitch": 31, "duration": 100, "velocity": 100}, {"time": 87960, "pitch": 38, "duration": 220, "velocity": 110}, {"time": 88200, "pitch": 38, "duration": 70, "velocity": 100}, {"time": 88320, "pitch": 31, "duration": 220, "velocity": 110}, {"time": 88560, "pitch": 38, "duration": 220, "velocity": 110}, {"time": 88800, "pitch": 31, "duration": 220, "velocity": 110}, {"time": 89040, "pitch": 31, "duration": 90, "velocity": 100}, {"time": 89160, "pitch": 33, "duration": 220, "velocity": 110}, {"time": 89400, "pitch": 33, "duration": 100, "velocity": 100}, {"time": 89520, "pitch": 36, "duration": 220, "velocity": 110}, {"time": 89760, "pitch": 36, "duration": 220, "velocity": 110}, {"time": 90000, "pitch": 39, "duration": 220, "velocity": 112}, {"time": 90240, "pitch": 39, "duration": 10, "velocity": 102}, {"time": 90360, "pitch": 39, "duration": 340, "velocity": 110}, {"time": 90720, "pitch": 38, "duration": 240, "velocity": 113}, {"time": 90960, "pitch": 38, "duration": 10, "velocity": 100}, {"time": 91200, "pitch": 37, "duration": 220, "velocity": 112}, {"time": 91440, "pitch": 37, "duration": 10, "velocity": 102}, {"time": 91560, "pitch": 37, "duration": 340, "velocity": 110}, {"time": 91920, "pitch": 36, "duration": 220, "velocity": 113}, {"time": 92160, "pitch": 36, "duration": 10, "velocity": 100}, {"time": 92400, "pitch": 35, "duration": 220, "velocity": 112}, {"time": 92640, "pitch": 35, "duration": 10, "velocity": 102}, {"time": 92760, "pitch": 35, "duration": 340, "velocity": 110}, {"time": 93120, "pitch": 34, "duration": 240, "velocity": 113}, {"time": 93360, "pitch": 34, "duration": 10, "velocity": 100}, {"time": 93600, "pitch": 33, "duration": 220, "velocity": 112}, {"time": 93840, "pitch": 33, "duration": 10, "velocity": 102}, {"time": 93960, "pitch": 33, "duration": 340, "velocity": 110}, {"time": 94320, "pitch": 32, "duration": 220, "velocity": 113}, {"time": 94560, "pitch": 32, "duration": 10, "velocity": 100}, {"time": 94800, "pitch": 39, "duration": 220, "velocity": 112}, {"time": 95040, "pitch": 39, "duration": 10, "velocity": 102}, {"time": 95160, "pitch": 39, "duration": 340, "velocity": 110}, {"time": 95520, "pitch": 38, "duration": 240, "velocity": 113}, {"time": 95760, "pitch": 38, "duration": 10, "velocity": 100}, {"time": 96000, "pitch": 37, "duration": 220, "velocity": 112}, {"time": 96240, "pitch": 37, "duration": 10, "velocity": 102}, {"time": 96360, "pitch": 37, "duration": 340, "velocity": 110}, {"time": 96720, "pitch": 36, "duration": 220, "velocity": 113}, {"time": 96960, "pitch": 36, "duration": 10, "velocity": 100}, {"time": 97200, "pitch": 35, "duration": 220, "velocity": 112}, {"time": 97440, "pitch": 35, "duration": 10, "velocity": 102}, {"time": 97560, "pitch": 35, "duration": 340, "velocity": 110}, {"time": 97920, "pitch": 34, "duration": 240, "velocity": 113}, {"time": 98160, "pitch": 34, "duration": 10, "velocity": 100}, {"time": 98400, "pitch": 33, "duration": 220, "velocity": 112}, {"time": 98640, "pitch": 33, "duration": 10, "velocity": 102}, {"time": 98760, "pitch": 33, "duration": 340, "velocity": 110}, {"time": 99120, "pitch": 32, "duration": 220, "velocity": 113}, {"time": 99360, "pitch": 32, "duration": 10, "velocity": 100}, {"time": 99600, "pitch": 33, "duration": 220, "velocity": 110}, {"time": 99960, "pitch": 34, "duration": 220, "velocity": 105}, {"time": 100320, "pitch": 36, "duration": 220, "velocity": 110}, {"time": 100680, "pitch": 38, "duration": 220, "velocity": 105}, {"time": 101040, "pitch": 39, "duration": 220, "velocity": 110}, {"time": 101400, "pitch": 39, "duration": 220, "velocity": 105}, {"time": 101760, "pitch": 29, "duration": 180, "velocity": 110}, {"time": 102000, "pitch": 29, "duration": 180, "velocity": 110}, {"time": 103440, "pitch": 34, "duration": 450, "velocity": 100}, {"time": 103920, "pitch": 36, "duration": 340, "velocity": 105}, {"time": 104280, "pitch": 31, "duration": 220, "velocity": 95}, {"time": 104520, "pitch": 36, "duration": 340, "velocity": 105}, {"time": 104880, "pitch": 33, "duration": 220, "velocity": 101}, {"time": 105120, "pitch": 32, "duration": 220, "velocity": 105}, {"time": 105360, "pitch": 31, "duration": 340, "velocity": 105}, {"time": 105720, "pitch": 38, "duration": 340, "velocity": 95}, {"time": 106080, "pitch": 43, "duration": 220, "velocity": 105}, {"time": 106320, "pitch": 38, "duration": 220, "velocity": 105}, {"time": 106560, "pitch": 31, "duration": 220, "velocity": 101}, {"time": 106800, "pitch": 39, "duration": 220, "velocity": 112}, {"time": 107040, "pitch": 39, "duration": 10, "velocity": 102}, {"time": 107160, "pitch": 39, "duration": 340, "velocity": 102}, {"time": 107520, "pitch": 29, "duration": 120, "velocity": 112}, {"time": 107760, "pitch": 29, "duration": 150, "velocity": 102}, {"time": 108000, "pitch": 29, "duration": 150, "velocity": 112}, {"time": 108240, "pitch": 34, "duration": 340, "velocity": 112}, {"time": 108600, "pitch": 29, "duration": 340, "velocity": 102}, {"time": 108960, "pitch": 34, "duration": 220, "velocity": 102}, {"time": 109200, "pitch": 36, "duration": 220, "velocity": 112}, {"time": 109440, "pitch": 34, "duration": 220, "velocity": 102}, {"time": 109680, "pitch": 36, "duration": 340, "velocity": 109}, {"time": 110040, "pitch": 31, "duration": 220, "velocity": 95}, {"time": 110280, "pitch": 36, "duration": 350, "velocity": 109}, {"time": 110640, "pitch": 33, "duration": 220, "velocity": 101}, {"time": 110880, "pitch": 38, "duration": 220, "velocity": 115}, {"time": 111120, "pitch": 39, "duration": 200, "velocity": 115}, {"time": 111480, "pitch": 39, "duration": 340, "velocity": 105}, {"time": 111840, "pitch": 29, "duration": 220, "velocity": 115}, {"time": 112080, "pitch": 41, "duration": 150, "velocity": 115}, {"time": 112560, "pitch": 39, "duration": 220, "velocity": 110}, {"time": 112800, "pitch": 39, "duration": 90, "velocity": 100}, {"time": 112920, "pitch": 34, "duration": 220, "velocity": 110}, {"time": 113160, "pitch": 34, "duration": 70, "velocity": 100}, {"time": 113280, "pitch": 33, "duration": 220, "velocity": 110}, {"time": 113520, "pitch": 34, "duration": 220, "velocity": 110}, {"time": 113760, "pitch": 39, "duration": 220, "velocity": 110}, {"time": 114000, "pitch": 39, "duration": 90, "velocity": 100}, {"time": 114120, "pitch": 34, "duration": 220, "velocity": 110}, {"time": 114360, "pitch": 34, "duration": 70, "velocity": 100}, {"time": 114480, "pitch": 33, "duration": 220, "velocity": 110}, {"time": 114720, "pitch": 33, "duration": 220, "velocity": 110}, {"time": 114960, "pitch": 31, "duration": 220, "velocity": 110}, {"time": 115200, "pitch": 31, "duration": 100, "velocity": 100}, {"time": 115320, "pitch": 38, "duration": 220, "velocity": 110}, {"time": 115560, "pitch": 38, "duration": 70, "velocity": 100}, {"time": 115680, "pitch": 31, "duration": 220, "velocity": 110}, {"time": 115920, "pitch": 38, "duration": 220, "velocity": 110}, {"time": 116160, "pitch": 31, "duration": 220, "velocity": 110}, {"time": 116400, "pitch": 31, "duration": 90, "velocity": 100}, {"time": 116520, "pitch": 33, "duration": 220, "velocity": 110}, {"time": 116760, "pitch": 33, "duration": 100, "velocity": 100}, {"time": 116880, "pitch": 36, "duration": 220, "velocity": 110}, {"time": 117120, "pitch": 36, "duration": 220, "velocity": 110}, {"time": 117360, "pitch": 39, "duration": 220, "velocity": 110}, {"time": 117600, "pitch": 39, "duration": 90, "velocity": 100}, {"time": 117720, "pitch": 34, "duration": 220, "velocity": 110}, {"time": 117960, "pitch": 34, "duration": 70, "velocity": 100}, {"time": 118080, "pitch": 33, "duration": 220, "velocity": 110}, {"time": 118320, "pitch": 34, "duration": 220, "velocity": 110}, {"time": 118560, "pitch": 39, "duration": 220, "velocity": 110}, {"time": 118800, "pitch": 39, "duration": 90, "velocity": 100}, {"time": 118920, "pitch": 34, "duration": 220, "velocity": 110}, {"time": 119160, "pitch": 34, "duration": 70, "velocity": 100}, {"time": 119280, "pitch": 33, "duration": 220, "velocity": 110}, {"time": 119520, "pitch": 33, "duration": 220, "velocity": 110}, {"time": 119760, "pitch": 31, "duration": 220, "velocity": 110}, {"time": 120000, "pitch": 31, "duration": 100, "velocity": 100}, {"time": 120120, "pitch": 38, "duration": 220, "velocity": 110}, {"time": 120360, "pitch": 38, "duration": 70, "velocity": 100}, {"time": 120480, "pitch": 31, "duration": 220, "velocity": 110}, {"time": 120720, "pitch": 38, "duration": 220, "velocity": 110}, {"time": 120960, "pitch": 31, "duration": 220, "velocity": 110}, {"time": 121200, "pitch": 31, "duration": 90, "velocity": 100}, {"time": 121320, "pitch": 33, "duration": 220, "velocity": 110}, {"time": 121560, "pitch": 33, "duration": 100, "velocity": 100}, {"time": 121680, "pitch": 36, "duration": 220, "velocity": 110}, {"time": 121920, "pitch": 36, "duration": 220, "velocity": 110}, {"time": 122160, "pitch": 39, "duration": 220, "velocity": 110}, {"time": 122400, "pitch": 39, "duration": 90, "velocity": 100}, {"time": 122520, "pitch": 34, "duration": 220, "velocity": 110}, {"time": 122760, "pitch": 34, "duration": 70, "velocity": 100}, {"time": 122880, "pitch": 33, "duration": 220, "velocity": 110}, {"time": 123120, "pitch": 34, "duration": 220, "velocity": 110}, {"time": 123360, "pitch": 39, "duration": 220, "velocity": 110}, {"time": 123600, "pitch": 39, "duration": 90, "velocity": 100}, {"time": 123720, "pitch": 34, "duration": 220, "velocity": 110}, {"time": 123960, "pitch": 34, "duration": 70, "velocity": 100}, {"time": 124080, "pitch": 33, "duration": 220, "velocity": 110}, {"time": 124320, "pitch": 33, "duration": 220, "velocity": 110}, {"time": 124560, "pitch": 31, "duration": 220, "velocity": 110}, {"time": 124800, "pitch": 31, "duration": 100, "velocity": 100}, {"time": 124920, "pitch": 38, "duration": 220, "velocity": 110}, {"time": 125160, "pitch": 38, "duration": 70, "velocity": 100}, {"time": 125280, "pitch": 31, "duration": 220, "velocity": 110}, {"time": 125520, "pitch": 38, "duration": 220, "velocity": 110}, {"time": 125760, "pitch": 31, "duration": 220, "velocity": 110}, {"time": 126000, "pitch": 31, "duration": 90, "velocity": 100}, {"time": 126120, "pitch": 33, "duration": 220, "velocity": 110}, {"time": 126360, "pitch": 33, "duration": 100, "velocity": 100}, {"time": 126480, "pitch": 36, "duration": 220, "velocity": 110}, {"time": 126720, "pitch": 36, "duration": 220, "velocity": 110}, {"time": 126960, "pitch": 39, "duration": 220, "velocity": 110}, {"time": 127200, "pitch": 39, "duration": 90, "velocity": 100}, {"time": 127320, "pitch": 34, "duration": 220, "velocity": 110}, {"time": 127560, "pitch": 34, "duration": 70, "velocity": 100}, {"time": 127680, "pitch": 33, "duration": 220, "velocity": 110}, {"time": 127920, "pitch": 34, "duration": 220, "velocity": 110}, {"time": 128160, "pitch": 39, "duration": 220, "velocity": 110}, {"time": 128400, "pitch": 39, "duration": 90, "velocity": 100}, {"time": 128520, "pitch": 34, "duration": 220, "velocity": 110}, {"time": 128760, "pitch": 34, "duration": 70, "velocity": 100}, {"time": 128880, "pitch": 33, "duration": 220, "velocity": 110}, {"time": 129120, "pitch": 33, "duration": 220, "velocity": 110}, {"time": 129360, "pitch": 31, "duration": 220, "velocity": 110}, {"time": 129600, "pitch": 31, "duration": 100, "velocity": 100}, {"time": 129720, "pitch": 38, "duration": 220, "velocity": 110}, {"time": 129960, "pitch": 38, "duration": 70, "velocity": 100}, {"time": 130080, "pitch": 31, "duration": 220, "velocity": 110}, {"time": 130320, "pitch": 38, "duration": 220, "velocity": 110}, {"time": 130560, "pitch": 31, "duration": 220, "velocity": 110}, {"time": 130800, "pitch": 31, "duration": 90, "velocity": 100}, {"time": 130920, "pitch": 33, "duration": 220, "velocity": 110}, {"time": 131160, "pitch": 33, "duration": 100, "velocity": 100}, {"time": 131280, "pitch": 36, "duration": 220, "velocity": 110}, {"time": 131520, "pitch": 36, "duration": 220, "velocity": 110}, {"time": 131760, "pitch": 39, "duration": 220, "velocity": 110}, {"time": 132000, "pitch": 39, "duration": 90, "velocity": 100}, {"time": 132120, "pitch": 34, "duration": 220, "velocity": 110}, {"time": 132360, "pitch": 34, "duration": 70, "velocity": 100}, {"time": 132480, "pitch": 33, "duration": 220, "velocity": 110}, {"time": 132720, "pitch": 34, "duration": 220, "velocity": 110}, {"time": 132960, "pitch": 39, "duration": 220, "velocity": 110}, {"time": 133200, "pitch": 39, "duration": 90, "velocity": 100}, {"time": 133320, "pitch": 34, "duration": 220, "velocity": 110}, {"time": 133560, "pitch": 34, "duration": 70, "velocity": 100}, {"time": 133680, "pitch": 33, "duration": 220, "velocity": 110}, {"time": 133920, "pitch": 33, "duration": 220, "velocity": 110}, {"time": 134160, "pitch": 31, "duration": 220, "velocity": 110}, {"time": 134400, "pitch": 31, "duration": 100, "velocity": 100}, {"time": 134520, "pitch": 38, "duration": 220, "velocity": 110}, {"time": 134760, "pitch": 38, "duration": 70, "velocity": 100}, {"time": 134880, "pitch": 31, "duration": 220, "velocity": 110}, {"time": 135120, "pitch": 38, "duration": 220, "velocity": 110}, {"time": 135360, "pitch": 31, "duration": 220, "velocity": 110}, {"time": 135600, "pitch": 31, "duration": 90, "velocity": 100}, {"time": 135720, "pitch": 33, "duration": 220, "velocity": 110}, {"time": 135960, "pitch": 33, "duration": 100, "velocity": 100}, {"time": 136080, "pitch": 36, "duration": 220, "velocity": 110}, {"time": 136320, "pitch": 36, "duration": 220, "velocity": 110}, {"time": 136560, "pitch": 39, "duration": 220, "velocity": 110}, {"time": 136800, "pitch": 39, "duration": 90, "velocity": 100}, {"time": 136920, "pitch": 34, "duration": 220, "velocity": 110}, {"time": 137160, "pitch": 34, "duration": 70, "velocity": 100}, {"time": 137280, "pitch": 33, "duration": 220, "velocity": 110}, {"time": 137520, "pitch": 34, "duration": 220, "velocity": 110}, {"time": 137760, "pitch": 39, "duration": 220, "velocity": 110}, {"time": 138000, "pitch": 39, "duration": 90, "velocity": 100}, {"time": 138120, "pitch": 34, "duration": 220, "velocity": 110}, {"time": 138360, "pitch": 34, "duration": 70, "velocity": 100}, {"time": 138480, "pitch": 33, "duration": 220, "velocity": 110}, {"time": 138720, "pitch": 33, "duration": 220, "velocity": 110}, {"time": 138960, "pitch": 31, "duration": 220, "velocity": 110}, {"time": 139200, "pitch": 31, "duration": 100, "velocity": 100}, {"time": 139320, "pitch": 38, "duration": 220, "velocity": 110}, {"time": 139560, "pitch": 38, "duration": 70, "velocity": 100}, {"time": 139680, "pitch": 31, "duration": 220, "velocity": 110}, {"time": 139920, "pitch": 38, "duration": 220, "velocity": 110}, {"time": 140160, "pitch": 34, "duration": 220, "velocity": 110}, {"time": 140400, "pitch": 34, "duration": 90, "velocity": 100}, {"time": 140520, "pitch": 36, "duration": 220, "velocity": 110}, {"time": 140760, "pitch": 36, "duration": 100, "velocity": 100}, {"time": 140880, "pitch": 38, "duration": 220, "velocity": 110}, {"time": 141120, "pitch": 39, "duration": 220, "velocity": 110}, {"time": 141360, "pitch": 39, "duration": 1200, "velocity": 110}, {"time": 142560, "pitch": 39, "duration": 200, "velocity": 110}, {"time": 142920, "pitch": 39, "duration": 200, "velocity": 110}, {"time": 143520, "pitch": 33, "duration": 240, "velocity": 100}, {"time": 143760, "pitch": 38, "duration": 1200, "velocity": 110}, {"time": 144960, "pitch": 38, "duration": 200, "velocity": 110}, {"time": 145320, "pitch": 38, "duration": 200, "velocity": 110}, {"time": 145920, "pitch": 34, "duration": 240, "velocity": 100}, {"time": 146160, "pitch": 39, "duration": 1200, "velocity": 110}, {"time": 147360, "pitch": 39, "duration": 200, "velocity": 110}, {"time": 147720, "pitch": 39, "duration": 200, "velocity": 110}, {"time": 148320, "pitch": 33, "duration": 240, "velocity": 100}, {"time": 148560, "pitch": 38, "duration": 1200, "velocity": 110}, {"time": 149760, "pitch": 38, "duration": 200, "velocity": 110}, {"time": 150120, "pitch": 38, "duration": 200, "velocity": 110}, {"time": 150960, "pitch": 39, "duration": 220, "velocity": 110}, {"time": 151200, "pitch": 39, "duration": 90, "velocity": 100}, {"time": 151320, "pitch": 34, "duration": 220, "velocity": 110}, {"time": 151560, "pitch": 34, "duration": 70, "velocity": 100}, {"time": 151680, "pitch": 33, "duration": 220, "velocity": 110}, {"time": 151920, "pitch": 31, "duration": 220, "velocity": 110}, {"time": 152160, "pitch": 31, "duration": 100, "velocity": 100}, {"time": 152280, "pitch": 34, "duration": 220, "velocity": 110}, {"time": 152520, "pitch": 34, "duration": 70, "velocity": 100}, {"time": 152640, "pitch": 33, "duration": 220, "velocity": 110}, {"time": 152880, "pitch": 29, "duration": 220, "velocity": 110}, {"time": 153120, "pitch": 31, "duration": 450, "velocity": 110}], "annotations": [{"time": 990, "annotation": {"number": 7, "value": 120}, "group": "control_change"}, {"time": 1000, "annotation": {"number": 11, "value": 110}, "group": "control_change"}, {"time": 1010, "annotation": {"number": 10, "value": 64}, "group": "control_change"}, {"time": 1020, "annotation": {"number": 91, "value": 0}, "group": "control_change"}, {"time": 1030, "annotation": {"number": 93, "value": 0}, "group": "control_change"}, {"time": 1040, "annotation": {"number": 101, "value": 0}, "group": "control_change"}, {"time": 1050, "annotation": {"number": 100, "value": 0}, "group": "control_change"}, {"time": 1060, "annotation": {"number": 6, "value": 12}, "group": "control_change"}, {"time": 1070, "annotation": {"number": 101, "value": 127}, "group": "control_change"}, {"time": 1080, "annotation": {"number": 100, "value": 127}, "group": "control_change"}, {"time": 46320, "annotation": {"number": 11, "value": 100}, "group": "control_change"}, {"time": 65040, "annotation": {"number": 11, "value": 105}, "group": "control_change"}, {"time": 70800, "annotation": {"number": 11, "value": 110}, "group": "control_change"}]}, {"program": 0, "is_drum": false, "name": "PAD", "annotations": [{"time": 960, "annotation": {"number": 0, "value": 0}, "group": "control_change"}, {"time": 970, "annotation": {"number": 32, "value": 0}, "group": "control_change"}]}, {"program": 50, "is_drum": false, "name": "PAD", "notes": [{"time": 13920, "pitch": 51, "duration": 2390, "velocity": 80}, {"time": 13920, "pitch": 63, "duration": 2380, "velocity": 100}, {"time": 13920, "pitch": 67, "duration": 2380, "velocity": 100}, {"time": 13920, "pitch": 70, "duration": 2380, "velocity": 100}, {"time": 16320, "pitch": 55, "duration": 2380, "velocity": 80}, {"time": 16320, "pitch": 67, "duration": 2380, "velocity": 100}, {"time": 16320, "pitch": 70, "duration": 2380, "velocity": 100}, {"time": 16320, "pitch": 74, "duration": 2380, "velocity": 100}, {"time": 18720, "pitch": 51, "duration": 2380, "velocity": 80}, {"time": 18720, "pitch": 63, "duration": 2380, "velocity": 100}, {"time": 18720, "pitch": 67, "duration": 2380, "velocity": 100}, {"time": 18720, "pitch": 70, "duration": 2380, "velocity": 100}, {"time": 21120, "pitch": 55, "duration": 1170, "velocity": 80}, {"time": 21120, "pitch": 67, "duration": 1180, "velocity": 100}, {"time": 21120, "pitch": 70, "duration": 1180, "velocity": 100}, {"time": 21120, "pitch": 74, "duration": 1180, "velocity": 100}, {"time": 22320, "pitch": 55, "duration": 220, "velocity": 80}, {"time": 22320, "pitch": 67, "duration": 220, "velocity": 100}, {"time": 22320, "pitch": 70, "duration": 220, "velocity": 100}, {"time": 22320, "pitch": 74, "duration": 220, "velocity": 100}, {"time": 22680, "pitch": 50, "duration": 2030, "velocity": 90}, {"time": 22680, "pitch": 62, "duration": 2040, "velocity": 100}, {"time": 22680, "pitch": 66, "duration": 2040, "velocity": 100}, {"time": 22680, "pitch": 69, "duration": 2040, "velocity": 100}, {"time": 70800, "pitch": 51, "duration": 2380, "velocity": 80}, {"time": 70800, "pitch": 63, "duration": 2380, "velocity": 90}, {"time": 70800, "pitch": 67, "duration": 1200, "velocity": 100}, {"time": 70800, "pitch": 70, "duration": 1200, "velocity": 100}, {"time": 72000, "pitch": 67, "duration": 350, "velocity": 110}, {"time": 72000, "pitch": 70, "duration": 350, "velocity": 110}, {"time": 72360, "pitch": 69, "duration": 350, "velocity": 110}, {"time": 72360, "pitch": 72, "duration": 350, "velocity": 110}, {"time": 72720, "pitch": 70, "duration": 220, "velocity": 110}, {"time": 72720, "pitch": 74, "duration": 220, "velocity": 110}, {"time": 72960, "pitch": 72, "duration": 220, "velocity": 110}, {"time": 72960, "pitch": 75, "duration": 220, "velocity": 110}, {"time": 73200, "pitch": 50, "duration": 2380, "velocity": 80}, {"time": 73200, "pitch": 62, "duration": 2380, "velocity": 90}, {"time": 73200, "pitch": 67, "duration": 1200, "velocity": 100}, {"time": 73200, "pitch": 70, "duration": 1200, "velocity": 100}, {"time": 74400, "pitch": 67, "duration": 350, "velocity": 110}, {"time": 74400, "pitch": 70, "duration": 350, "velocity": 110}, {"time": 74760, "pitch": 69, "duration": 350, "velocity": 110}, {"time": 74760, "pitch": 72, "duration": 350, "velocity": 110}, {"time": 75120, "pitch": 70, "duration": 220, "velocity": 110}, {"time": 75120, "pitch": 74, "duration": 220, "velocity": 110}, {"time": 75360, "pitch": 72, "duration": 220, "velocity": 110}, {"time": 75360, "pitch": 75, "duration": 220, "velocity": 110}, {"time": 75600, "pitch": 51, "duration": 2380, "velocity": 80}, {"time": 75600, "pitch": 63, "duration": 2380, "velocity": 90}, {"time": 75600, "pitch": 67, "duration": 1200, "velocity": 100}, {"time": 75600, "pitch": 70, "duration": 1200, "velocity": 100}, {"time": 76800, "pitch": 67, "duration": 350, "velocity": 110}, {"time": 76800, "pitch": 70, "duration": 350, "velocity": 110}, {"time": 77160, "pitch": 69, "duration": 350, "velocity": 110}, {"time": 77160, "pitch": 72, "duration": 350, "velocity": 110}, {"time": 77520, "pitch": 70, "duration": 220, "velocity": 110}, {"time": 77520, "pitch": 74, "duration": 220, "velocity": 110}, {"time": 77760, "pitch": 72, "duration": 220, "velocity": 110}, {"time": 77760, "pitch": 75, "duration": 220, "velocity": 110}, {"time": 78000, "pitch": 50, "duration": 2380, "velocity": 80}, {"time": 78000, "pitch": 62, "duration": 2380, "velocity": 90}, {"time": 78000, "pitch": 67, "duration": 1200, "velocity": 100}, {"time": 78000, "pitch": 70, "duration": 1200, "velocity": 100}, {"time": 79200, "pitch": 67, "duration": 350, "velocity": 110}, {"time": 79200, "pitch": 70, "duration": 350, "velocity": 110}, {"time": 79560, "pitch": 69, "duration": 350, "velocity": 110}, {"time": 79560, "pitch": 72, "duration": 350, "velocity": 110}, {"time": 79920, "pitch": 70, "duration": 220, "velocity": 110}, {"time": 79920, "pitch": 74, "duration": 220, "velocity": 110}, {"time": 80160, "pitch": 72, "duration": 220, "velocity": 110}, {"time": 80160, "pitch": 75, "duration": 220, "velocity": 110}, {"time": 80400, "pitch": 51, "duration": 2380, "velocity": 80}, {"time": 80400, "pitch": 63, "duration": 2380, "velocity": 90}, {"time": 80400, "pitch": 67, "duration": 2380, "velocity": 100}, {"time": 80400, "pitch": 70, "duration": 2380, "velocity": 100}, {"time": 82800, "pitch": 50, "duration": 2380, "velocity": 80}, {"time": 82800, "pitch": 67, "duration": 2380, "velocity": 100}, {"time": 82800, "pitch": 70, "duration": 2380, "velocity": 100}, {"time": 82800, "pitch": 74, "duration": 2380, "velocity": 90}, {"time": 85200, "pitch": 51, "duration": 2380, "velocity": 80}, {"time": 85200, "pitch": 63, "duration": 2380, "velocity": 90}, {"time": 85200, "pitch": 67, "duration": 2380, "velocity": 100}, {"time": 85200, "pitch": 70, "duration": 2380, "velocity": 100}, {"time": 87600, "pitch": 50, "duration": 2380, "velocity": 80}, {"time": 87600, "pitch": 67, "duration": 2380, "velocity": 100}, {"time": 87600, "pitch": 70, "duration": 2380, "velocity": 100}, {"time": 87600, "pitch": 74, "duration": 2380, "velocity": 90}, {"time": 90000, "pitch": 63, "duration": 220, "velocity": 95}, {"time": 90000, "pitch": 67, "duration": 220, "velocity": 115}, {"time": 90000, "pitch": 74, "duration": 220, "velocity": 115}, {"time": 90360, "pitch": 63, "duration": 220, "velocity": 95}, {"time": 90360, "pitch": 67, "duration": 220, "velocity": 115}, {"time": 90360, "pitch": 74, "duration": 220, "velocity": 115}, {"time": 90720, "pitch": 62, "duration": 300, "velocity": 95}, {"time": 90720, "pitch": 65, "duration": 300, "velocity": 115}, {"time": 90720, "pitch": 72, "duration": 300, "velocity": 115}, {"time": 91200, "pitch": 61, "duration": 220, "velocity": 95}, {"time": 91200, "pitch": 65, "duration": 220, "velocity": 115}, {"time": 91200, "pitch": 72, "duration": 220, "velocity": 115}, {"time": 91560, "pitch": 61, "duration": 220, "velocity": 95}, {"time": 91560, "pitch": 65, "duration": 220, "velocity": 115}, {"time": 91560, "pitch": 72, "duration": 220, "velocity": 115}, {"time": 91920, "pitch": 60, "duration": 300, "velocity": 95}, {"time": 91920, "pitch": 63, "duration": 300, "velocity": 115}, {"time": 91920, "pitch": 70, "duration": 300, "velocity": 115}, {"time": 92400, "pitch": 59, "duration": 220, "velocity": 95}, {"time": 92400, "pitch": 63, "duration": 220, "velocity": 115}, {"time": 92400, "pitch": 70, "duration": 220, "velocity": 115}, {"time": 92760, "pitch": 59, "duration": 220, "velocity": 95}, {"time": 92760, "pitch": 63, "duration": 220, "velocity": 115}, {"time": 92760, "pitch": 70, "duration": 220, "velocity": 115}, {"time": 93120, "pitch": 58, "duration": 300, "velocity": 95}, {"time": 93120, "pitch": 61, "duration": 300, "velocity": 115}, {"time": 93120, "pitch": 68, "duration": 300, "velocity": 115}, {"time": 93600, "pitch": 57, "duration": 220, "velocity": 95}, {"time": 93600, "pitch": 61, "duration": 220, "velocity": 115}, {"time": 93600, "pitch": 68, "duration": 220, "velocity": 115}, {"time": 93960, "pitch": 57, "duration": 220, "velocity": 95}, {"time": 93960, "pitch": 61, "duration": 220, "velocity": 115}, {"time": 93960, "pitch": 68, "duration": 220, "velocity": 115}, {"time": 94320, "pitch": 56, "duration": 300, "velocity": 95}, {"time": 94320, "pitch": 59, "duration": 300, "velocity": 115}, {"time": 94320, "pitch": 66, "duration": 300, "velocity": 115}, {"time": 94800, "pitch": 63, "duration": 220, "velocity": 95}, {"time": 94800, "pitch": 67, "duration": 220, "velocity": 115}, {"time": 94800, "pitch": 74, "duration": 220, "velocity": 115}, {"time": 95160, "pitch": 63, "duration": 220, "velocity": 95}, {"time": 95160, "pitch": 67, "duration": 220, "velocity": 115}, {"time": 95160, "pitch": 74, "duration": 220, "velocity": 115}, {"time": 95520, "pitch": 62, "duration": 300, "velocity": 95}, {"time": 95520, "pitch": 65, "duration": 300, "velocity": 115}, {"time": 95520, "pitch": 72, "duration": 300, "velocity": 115}, {"time": 96000, "pitch": 61, "duration": 220, "velocity": 95}, {"time": 96000, "pitch": 65, "duration": 220, "velocity": 115}, {"time": 96000, "pitch": 72, "duration": 220, "velocity": 115}, {"time": 96360, "pitch": 61, "duration": 220, "velocity": 95}, {"time": 96360, "pitch": 65, "duration": 220, "velocity": 115}, {"time": 96360, "pitch": 72, "duration": 220, "velocity": 115}, {"time": 96720, "pitch": 60, "duration": 300, "velocity": 95}, {"time": 96720, "pitch": 63, "duration": 300, "velocity": 115}, {"time": 96720, "pitch": 70, "duration": 300, "velocity": 115}, {"time": 97200, "pitch": 59, "duration": 220, "velocity": 95}, {"time": 97200, "pitch": 63, "duration": 220, "velocity": 115}, {"time": 97200, "pitch": 70, "duration": 220, "velocity": 115}, {"time": 97560, "pitch": 59, "duration": 220, "velocity": 95}, {"time": 97560, "pitch": 63, "duration": 220, "velocity": 115}, {"time": 97560, "pitch": 70, "duration": 220, "velocity": 115}, {"time": 97920, "pitch": 58, "duration": 300, "velocity": 95}, {"time": 97920, "pitch": 61, "duration": 300, "velocity": 115}, {"time": 97920, "pitch": 68, "duration": 300, "velocity": 115}, {"time": 98400, "pitch": 57, "duration": 220, "velocity": 95}, {"time": 98400, "pitch": 61, "duration": 220, "velocity": 115}, {"time": 98400, "pitch": 68, "duration": 220, "velocity": 115}, {"time": 98760, "pitch": 57, "duration": 220, "velocity": 95}, {"time": 98760, "pitch": 61, "duration": 220, "velocity": 115}, {"time": 98760, "pitch": 68, "duration": 220, "velocity": 115}, {"time": 99120, "pitch": 56, "duration": 300, "velocity": 95}, {"time": 99120, "pitch": 59, "duration": 300, "velocity": 115}, {"time": 99120, "pitch": 66, "duration": 300, "velocity": 115}, {"time": 99600, "pitch": 57, "duration": 220, "velocity": 95}, {"time": 99600, "pitch": 61, "duration": 220, "velocity": 115}, {"time": 99600, "pitch": 68, "duration": 220, "velocity": 115}, {"time": 99960, "pitch": 58, "duration": 220, "velocity": 95}, {"time": 99960, "pitch": 62, "duration": 220, "velocity": 115}, {"time": 99960, "pitch": 69, "duration": 220, "velocity": 115}, {"time": 100320, "pitch": 60, "duration": 220, "velocity": 95}, {"time": 100320, "pitch": 63, "duration": 220, "velocity": 115}, {"time": 100320, "pitch": 70, "duration": 220, "velocity": 115}, {"time": 100680, "pitch": 62, "duration": 220, "velocity": 95}, {"time": 100680, "pitch": 65, "duration": 220, "velocity": 115}, {"time": 100680, "pitch": 72, "duration": 220, "velocity": 115}, {"time": 101040, "pitch": 63, "duration": 220, "velocity": 95}, {"time": 101040, "pitch": 67, "duration": 220, "velocity": 115}, {"time": 101040, "pitch": 74, "duration": 220, "velocity": 115}, {"time": 101400, "pitch": 63, "duration": 220, "velocity": 95}, {"time": 101400, "pitch": 67, "duration": 220, "velocity": 115}, {"time": 101400, "pitch": 74, "duration": 220, "velocity": 115}, {"time": 101760, "pitch": 65, "duration": 150, "velocity": 95}, {"time": 101760, "pitch": 69, "duration": 150, "velocity": 115}, {"time": 101760, "pitch": 75, "duration": 150, "velocity": 115}, {"time": 102000, "pitch": 65, "duration": 150, "velocity": 95}, {"time": 102000, "pitch": 69, "duration": 150, "velocity": 115}, {"time": 102000, "pitch": 75, "duration": 150, "velocity": 115}, {"time": 112560, "pitch": 51, "duration": 2380, "velocity": 80}, {"time": 112560, "pitch": 63, "duration": 2380, "velocity": 90}, {"time": 112560, "pitch": 67, "duration": 1200, "velocity": 100}, {"time": 112560, "pitch": 70, "duration": 1200, "velocity": 100}, {"time": 113760, "pitch": 67, "duration": 350, "velocity": 110}, {"time": 113760, "pitch": 70, "duration": 350, "velocity": 110}, {"time": 114120, "pitch": 69, "duration": 350, "velocity": 110}, {"time": 114120, "pitch": 72, "duration": 350, "velocity": 110}, {"time": 114480, "pitch": 70, "duration": 220, "velocity": 110}, {"time": 114480, "pitch": 74, "duration": 220, "velocity": 110}, {"time": 114720, "pitch": 72, "duration": 220, "velocity": 110}, {"time": 114720, "pitch": 75, "duration": 220, "velocity": 110}, {"time": 114960, "pitch": 50, "duration": 2380, "velocity": 80}, {"time": 114960, "pitch": 62, "duration": 2380, "velocity": 90}, {"time": 114960, "pitch": 67, "duration": 1200, "velocity": 100}, {"time": 114960, "pitch": 70, "duration": 1200, "velocity": 100}, {"time": 116160, "pitch": 67, "duration": 350, "velocity": 110}, {"time": 116160, "pitch": 70, "duration": 350, "velocity": 110}, {"time": 116520, "pitch": 69, "duration": 350, "velocity": 110}, {"time": 116520, "pitch": 72, "duration": 350, "velocity": 110}, {"time": 116880, "pitch": 70, "duration": 220, "velocity": 110}, {"time": 116880, "pitch": 74, "duration": 220, "velocity": 110}, {"time": 117120, "pitch": 72, "duration": 220, "velocity": 110}, {"time": 117120, "pitch": 75, "duration": 220, "velocity": 110}, {"time": 117360, "pitch": 51, "duration": 2380, "velocity": 80}, {"time": 117360, "pitch": 63, "duration": 2380, "velocity": 90}, {"time": 117360, "pitch": 67, "duration": 1200, "velocity": 100}, {"time": 117360, "pitch": 70, "duration": 1200, "velocity": 100}, {"time": 118560, "pitch": 67, "duration": 350, "velocity": 110}, {"time": 118560, "pitch": 70, "duration": 350, "velocity": 110}, {"time": 118920, "pitch": 69, "duration": 350, "velocity": 110}, {"time": 118920, "pitch": 72, "duration": 350, "velocity": 110}, {"time": 119280, "pitch": 70, "duration": 220, "velocity": 110}, {"time": 119280, "pitch": 74, "duration": 220, "velocity": 110}, {"time": 119520, "pitch": 72, "duration": 220, "velocity": 110}, {"time": 119520, "pitch": 75, "duration": 220, "velocity": 110}, {"time": 119760, "pitch": 50, "duration": 2380, "velocity": 80}, {"time": 119760, "pitch": 62, "duration": 2380, "velocity": 90}, {"time": 119760, "pitch": 67, "duration": 1200, "velocity": 100}, {"time": 119760, "pitch": 70, "duration": 1200, "velocity": 100}, {"time": 120960, "pitch": 67, "duration": 350, "velocity": 110}, {"time": 120960, "pitch": 70, "duration": 350, "velocity": 110}, {"time": 121320, "pitch": 69, "duration": 350, "velocity": 110}, {"time": 121320, "pitch": 72, "duration": 350, "velocity": 110}, {"time": 121680, "pitch": 70, "duration": 220, "velocity": 110}, {"time": 121680, "pitch": 74, "duration": 220, "velocity": 110}, {"time": 121920, "pitch": 72, "duration": 220, "velocity": 110}, {"time": 121920, "pitch": 75, "duration": 220, "velocity": 110}, {"time": 122160, "pitch": 51, "duration": 2380, "velocity": 80}, {"time": 122160, "pitch": 63, "duration": 2380, "velocity": 90}, {"time": 122160, "pitch": 67, "duration": 1200, "velocity": 100}, {"time": 122160, "pitch": 70, "duration": 1200, "velocity": 100}, {"time": 123360, "pitch": 67, "duration": 350, "velocity": 110}, {"time": 123360, "pitch": 70, "duration": 350, "velocity": 110}, {"time": 123720, "pitch": 69, "duration": 350, "velocity": 110}, {"time": 123720, "pitch": 72, "duration": 350, "velocity": 110}, {"time": 124080, "pitch": 70, "duration": 220, "velocity": 110}, {"time": 124080, "pitch": 74, "duration": 220, "velocity": 110}, {"time": 124320, "pitch": 72, "duration": 220, "velocity": 110}, {"time": 124320, "pitch": 75, "duration": 220, "velocity": 110}, {"time": 124560, "pitch": 50, "duration": 2380, "velocity": 80}, {"time": 124560, "pitch": 62, "duration": 2380, "velocity": 90}, {"time": 124560, "pitch": 67, "duration": 1200, "velocity": 100}, {"time": 124560, "pitch": 70, "duration": 1200, "velocity": 100}, {"time": 125760, "pitch": 67, "duration": 350, "velocity": 110}, {"time": 125760, "pitch": 70, "duration": 350, "velocity": 110}, {"time": 126120, "pitch": 69, "duration": 350, "velocity": 110}, {"time": 126120, "pitch": 72, "duration": 350, "velocity": 110}, {"time": 126480, "pitch": 70, "duration": 220, "velocity": 110}, {"time": 126480, "pitch": 74, "duration": 220, "velocity": 110}, {"time": 126720, "pitch": 72, "duration": 220, "velocity": 110}, {"time": 126720, "pitch": 75, "duration": 220, "velocity": 110}, {"time": 126960, "pitch": 51, "duration": 2380, "velocity": 80}, {"time": 126960, "pitch": 63, "duration": 2380, "velocity": 90}, {"time": 126960, "pitch": 67, "duration": 1200, "velocity": 100}, {"time": 126960, "pitch": 70, "duration": 1200, "velocity": 100}, {"time": 128160, "pitch": 67, "duration": 350, "velocity": 110}, {"time": 128160, "pitch": 70, "duration": 350, "velocity": 110}, {"time": 128520, "pitch": 69, "duration": 350, "velocity": 110}, {"time": 128520, "pitch": 72, "duration": 350, "velocity": 110}, {"time": 128880, "pitch": 70, "duration": 220, "velocity": 110}, {"time": 128880, "pitch": 74, "duration": 220, "velocity": 110}, {"time": 129120, "pitch": 72, "duration": 220, "velocity": 110}, {"time": 129120, "pitch": 75, "duration": 220, "velocity": 110}, {"time": 129360, "pitch": 50, "duration": 2380, "velocity": 80}, {"time": 129360, "pitch": 62, "duration": 2380, "velocity": 90}, {"time": 129360, "pitch": 67, "duration": 1200, "velocity": 100}, {"time": 129360, "pitch": 70, "duration": 1200, "velocity": 100}, {"time": 130560, "pitch": 67, "duration": 350, "velocity": 110}, {"time": 130560, "pitch": 70, "duration": 350, "velocity": 110}, {"time": 130920, "pitch": 69, "duration": 350, "velocity": 110}, {"time": 130920, "pitch": 72, "duration": 350, "velocity": 110}, {"time": 131280, "pitch": 70, "duration": 220, "velocity": 110}, {"time": 131280, "pitch": 74, "duration": 220, "velocity": 110}, {"time": 131520, "pitch": 72, "duration": 220, "velocity": 110}, {"time": 131520, "pitch": 75, "duration": 220, "velocity": 110}, {"time": 131760, "pitch": 51, "duration": 2380, "velocity": 80}, {"time": 131760, "pitch": 63, "duration": 2380, "velocity": 90}, {"time": 131760, "pitch": 67, "duration": 1200, "velocity": 100}, {"time": 131760, "pitch": 70, "duration": 1200, "velocity": 100}, {"time": 132960, "pitch": 67, "duration": 350, "velocity": 110}, {"time": 132960, "pitch": 70, "duration": 350, "velocity": 110}, {"time": 133320, "pitch": 69, "duration": 350, "velocity": 110}, {"time": 133320, "pitch": 72, "duration": 350, "velocity": 110}, {"time": 133680, "pitch": 70, "duration": 220, "velocity": 110}, {"time": 133680, "pitch": 74, "duration": 220, "velocity": 110}, {"time": 133920, "pitch": 72, "duration": 220, "velocity": 110}, {"time": 133920, "pitch": 75, "duration": 220, "velocity": 110}, {"time": 134160, "pitch": 50, "duration": 2380, "velocity": 80}, {"time": 134160, "pitch": 62, "duration": 2380, "velocity": 90}, {"time": 134160, "pitch": 67, "duration": 1200, "velocity": 100}, {"time": 134160, "pitch": 70, "duration": 1200, "velocity": 100}, {"time": 135360, "pitch": 67, "duration": 350, "velocity": 110}, {"time": 135360, "pitch": 70, "duration": 350, "velocity": 110}, {"time": 135720, "pitch": 69, "duration": 350, "velocity": 110}, {"time": 135720, "pitch": 72, "duration": 350, "velocity": 110}, {"time": 136080, "pitch": 70, "duration": 220, "velocity": 110}, {"time": 136080, "pitch": 74, "duration": 220, "velocity": 110}, {"time": 136320, "pitch": 72, "duration": 220, "velocity": 110}, {"time": 136320, "pitch": 75, "duration": 220, "velocity": 110}, {"time": 136560, "pitch": 51, "duration": 2380, "velocity": 80}, {"time": 136560, "pitch": 63, "duration": 2380, "velocity": 90}, {"time": 136560, "pitch": 67, "duration": 1200, "velocity": 100}, {"time": 136560, "pitch": 70, "duration": 1200, "velocity": 100}, {"time": 137760, "pitch": 67, "duration": 350, "velocity": 110}, {"time": 137760, "pitch": 70, "duration": 350, "velocity": 110}, {"time": 138120, "pitch": 69, "duration": 350, "velocity": 110}, {"time": 138120, "pitch": 72, "duration": 350, "velocity": 110}, {"time": 138480, "pitch": 70, "duration": 220, "velocity": 110}, {"time": 138480, "pitch": 74, "duration": 220, "velocity": 110}, {"time": 138720, "pitch": 72, "duration": 220, "velocity": 110}, {"time": 138720, "pitch": 75, "duration": 220, "velocity": 110}, {"time": 138960, "pitch": 50, "duration": 2380, "velocity": 80}, {"time": 138960, "pitch": 62, "duration": 2380, "velocity": 90}, {"time": 138960, "pitch": 67, "duration": 1200, "velocity": 100}, {"time": 138960, "pitch": 70, "duration": 1200, "velocity": 100}, {"time": 140160, "pitch": 67, "duration": 350, "velocity": 110}, {"time": 140160, "pitch": 70, "duration": 350, "velocity": 110}, {"time": 140520, "pitch": 69, "duration": 350, "velocity": 110}, {"time": 140520, "pitch": 72, "duration": 350, "velocity": 110}, {"time": 140880, "pitch": 70, "duration": 220, "velocity": 110}, {"time": 140880, "pitch": 74, "duration": 220, "velocity": 110}, {"time": 141120, "pitch": 72, "duration": 220, "velocity": 110}, {"time": 141120, "pitch": 75, "duration": 220, "velocity": 110}, {"time": 141360, "pitch": 51, "duration": 1180, "velocity": 80}, {"time": 141360, "pitch": 63, "duration": 1180, "velocity": 90}, {"time": 141360, "pitch": 67, "duration": 1180, "velocity": 100}, {"time": 141360, "pitch": 70, "duration": 1180, "velocity": 100}, {"time": 142560, "pitch": 51, "duration": 150, "velocity": 80}, {"time": 142560, "pitch": 63, "duration": 150, "velocity": 90}, {"time": 142560, "pitch": 67, "duration": 150, "velocity": 100}, {"time": 142560, "pitch": 70, "duration": 150, "velocity": 100}, {"time": 142920, "pitch": 51, "duration": 150, "velocity": 80}, {"time": 142920, "pitch": 63, "duration": 150, "velocity": 90}, {"time": 142920, "pitch": 67, "duration": 150, "velocity": 100}, {"time": 142920, "pitch": 70, "duration": 150, "velocity": 100}, {"time": 143760, "pitch": 50, "duration": 1180, "velocity": 80}, {"time": 143760, "pitch": 67, "duration": 1180, "velocity": 90}, {"time": 143760, "pitch": 70, "duration": 1180, "velocity": 101}, {"time": 143760, "pitch": 74, "duration": 1180, "velocity": 100}, {"time": 144960, "pitch": 50, "duration": 150, "velocity": 80}, {"time": 144960, "pitch": 67, "duration": 150, "velocity": 90}, {"time": 144960, "pitch": 70, "duration": 150, "velocity": 101}, {"time": 144960, "pitch": 74, "duration": 150, "velocity": 100}, {"time": 145320, "pitch": 50, "duration": 150, "velocity": 80}, {"time": 145320, "pitch": 67, "duration": 150, "velocity": 90}, {"time": 145320, "pitch": 70, "duration": 150, "velocity": 101}, {"time": 145320, "pitch": 74, "duration": 150, "velocity": 100}, {"time": 146160, "pitch": 51, "duration": 1180, "velocity": 80}, {"time": 146160, "pitch": 63, "duration": 1180, "velocity": 90}, {"time": 146160, "pitch": 67, "duration": 1180, "velocity": 100}, {"time": 146160, "pitch": 70, "duration": 1180, "velocity": 100}, {"time": 147360, "pitch": 51, "duration": 150, "velocity": 80}, {"time": 147360, "pitch": 63, "duration": 150, "velocity": 90}, {"time": 147360, "pitch": 67, "duration": 150, "velocity": 100}, {"time": 147360, "pitch": 70, "duration": 150, "velocity": 100}, {"time": 147720, "pitch": 51, "duration": 150, "velocity": 80}, {"time": 147720, "pitch": 63, "duration": 150, "velocity": 90}, {"time": 147720, "pitch": 67, "duration": 150, "velocity": 100}, {"time": 147720, "pitch": 70, "duration": 150, "velocity": 100}, {"time": 148560, "pitch": 50, "duration": 1180, "velocity": 80}, {"time": 148560, "pitch": 67, "duration": 1180, "velocity": 90}, {"time": 148560, "pitch": 70, "duration": 1180, "velocity": 101}, {"time": 148560, "pitch": 74, "duration": 1180, "velocity": 100}, {"time": 149760, "pitch": 50, "duration": 150, "velocity": 80}, {"time": 149760, "pitch": 67, "duration": 150, "velocity": 90}, {"time": 149760, "pitch": 70, "duration": 150, "velocity": 101}, {"time": 149760, "pitch": 74, "duration": 150, "velocity": 100}, {"time": 150120, "pitch": 50, "duration": 150, "velocity": 80}, {"time": 150120, "pitch": 67, "duration": 150, "velocity": 90}, {"time": 150120, "pitch": 70, "duration": 150, "velocity": 101}, {"time": 150120, "pitch": 74, "duration": 150, "velocity": 100}, {"time": 150960, "pitch": 51, "duration": 920, "velocity": 80}, {"time": 150960, "pitch": 63, "duration": 920, "velocity": 100}, {"time": 150960, "pitch": 67, "duration": 920, "velocity": 100}, {"time": 150960, "pitch": 70, "duration": 920, "velocity": 100}, {"time": 151920, "pitch": 50, "duration": 1180, "velocity": 89}, {"time": 151920, "pitch": 65, "duration": 1180, "velocity": 100}, {"time": 151920, "pitch": 69, "duration": 1180, "velocity": 100}, {"time": 151920, "pitch": 72, "duration": 1180, "velocity": 100}, {"time": 153120, "pitch": 55, "duration": 220, "velocity": 80}, {"time": 153120, "pitch": 67, "duration": 220, "velocity": 100}, {"time": 153120, "pitch": 70, "duration": 220, "velocity": 100}, {"time": 153120, "pitch": 74, "duration": 220, "velocity": 100}], "annotations": [{"time": 990, "annotation": {"number": 7, "value": 90}, "group": "control_change"}, {"time": 1000, "annotation": {"number": 11, "value": 100}, "group": "control_change"}, {"time": 1010, "annotation": {"number": 10, "value": 100}, "group": "control_change"}, {"time": 1020, "annotation": {"number": 91, "value": 90}, "group": "control_change"}, {"time": 1030, "annotation": {"number": 93, "value": 0}, "group": "control_change"}, {"time": 1040, "annotation": {"number": 101, "value": 0}, "group": "control_change"}, {"time": 1050, "annotation": {"number": 100, "value": 0}, "group": "control_change"}, {"time": 1060, "annotation": {"number": 6, "value": 12}, "group": "control_change"}, {"time": 1070, "annotation": {"number": 101, "value": 127}, "group": "control_change"}, {"time": 1080, "annotation": {"number": 100, "value": 127}, "group": "control_change"}, {"time": 23520, "annotation": {"number": 11, "value": 100}, "group": "control_change"}, {"time": 23610, "annotation": {"number": 11, "value": 95}, "group": "control_change"}, {"time": 23700, "annotation": {"number": 11, "value": 90}, "group": "control_change"}, {"time": 23790, "annotation": {"number": 11, "value": 84}, "group": "control_change"}, {"time": 23880, "annotation": {"number": 11, "value": 79}, "group": "control_change"}, {"time": 23970, "annotation": {"number": 11, "value": 73}, "group": "control_change"}, {"time": 24060, "annotation": {"number": 11, "value": 68}, "group": "control_change"}, {"time": 24150, "annotation": {"number": 11, "value": 63}, "group": "control_change"}, {"time": 24240, "annotation": {"number": 11, "value": 57}, "group": "control_change"}, {"time": 24330, "annotation": {"number": 11, "value": 52}, "group": "control_change"}, {"time": 24420, "annotation": {"number": 11, "value": 46}, "group": "control_change"}, {"time": 24510, "annotation": {"number": 11, "value": 41}, "group": "control_change"}, {"time": 24600, "annotation": {"number": 11, "value": 36}, "group": "control_change"}, {"time": 24690, "annotation": {"number": 11, "value": 30}, "group": "control_change"}, {"time": 24720, "annotation": {"number": 11, "value": 28}, "group": "control_change"}, {"time": 70800, "annotation": {"number": 11, "value": 100}, "group": "control_change"}, {"time": 112560, "annotation": {"number": 11, "value": 100}, "group": "control_change"}]}, {"program": 0, "is_drum": false, "name": "MELODY 1", "annotations": [{"time": 960, "annotation": {"number": 0, "value": 0}, "group": "control_change"}, {"time": 970, "annotation": {"number": 32, "value": 0}, "group": "control_change"}]}, {"program": 73, "is_drum": false, "name": "MELODY 1", "notes": [{"time": 25200, "pitch": 67, "duration": 220, "velocity": 100}, {"time": 25440, "pitch": 72, "duration": 220, "velocity": 100}, {"time": 25680, "pitch": 70, "duration": 220, "velocity": 100}, {"time": 25920, "pitch": 69, "duration": 220, "velocity": 100}, {"time": 26160, "pitch": 70, "duration": 340, "velocity": 100}, {"time": 26520, "pitch": 67, "duration": 340, "velocity": 100}, {"time": 26880, "pitch": 72, "duration": 220, "velocity": 100}, {"time": 27120, "pitch": 74, "duration": 220, "velocity": 100}, {"time": 28080, "pitch": 67, "duration": 220, "velocity": 100}, {"time": 28320, "pitch": 72, "duration": 220, "velocity": 100}, {"time": 28560, "pitch": 70, "duration": 220, "velocity": 100}, {"time": 28800, "pitch": 69, "duration": 220, "velocity": 100}, {"time": 29040, "pitch": 69, "duration": 680, "velocity": 100}, {"time": 29760, "pitch": 70, "duration": 680, "velocity": 100}, {"time": 30960, "pitch": 67, "duration": 220, "velocity": 100}, {"time": 31200, "pitch": 72, "duration": 220, "velocity": 100}, {"time": 31440, "pitch": 70, "duration": 220, "velocity": 100}, {"time": 31680, "pitch": 69, "duration": 220, "velocity": 100}, {"time": 31920, "pitch": 70, "duration": 340, "velocity": 100}, {"time": 32280, "pitch": 67, "duration": 340, "velocity": 100}, {"time": 32640, "pitch": 72, "duration": 220, "velocity": 100}, {"time": 32880, "pitch": 74, "duration": 220, "velocity": 100}, {"time": 33840, "pitch": 67, "duration": 220, "velocity": 100}, {"time": 34080, "pitch": 72, "duration": 220, "velocity": 100}, {"time": 34320, "pitch": 74, "duration": 220, "velocity": 100}, {"time": 34560, "pitch": 72, "duration": 220, "velocity": 100}, {"time": 34800, "pitch": 72, "duration": 450, "velocity": 100}, {"time": 35280, "pitch": 70, "duration": 220, "velocity": 100}, {"time": 35520, "pitch": 70, "duration": 680, "velocity": 100}, {"time": 36720, "pitch": 74, "duration": 220, "velocity": 100}, {"time": 36960, "pitch": 72, "duration": 220, "velocity": 100}, {"time": 37200, "pitch": 77, "duration": 220, "velocity": 100}, {"time": 37440, "pitch": 75, "duration": 220, "velocity": 100}, {"time": 37680, "pitch": 72, "duration": 450, "velocity": 100}, {"time": 38160, "pitch": 74, "duration": 920, "velocity": 100}, {"time": 39600, "pitch": 72, "duration": 220, "velocity": 100}, {"time": 39840, "pitch": 75, "duration": 220, "velocity": 100}, {"time": 40080, "pitch": 74, "duration": 220, "velocity": 100}, {"time": 40320, "pitch": 72, "duration": 220, "velocity": 100}, {"time": 40560, "pitch": 72, "duration": 450, "velocity": 100}, {"time": 41040, "pitch": 70, "duration": 920, "velocity": 100}, {"time": 42480, "pitch": 74, "duration": 220, "velocity": 100}, {"time": 42720, "pitch": 77, "duration": 220, "velocity": 100}, {"time": 42960, "pitch": 75, "duration": 220, "velocity": 100}, {"time": 43200, "pitch": 74, "duration": 220, "velocity": 100}, {"time": 43440, "pitch": 72, "duration": 450, "velocity": 100}, {"time": 43920, "pitch": 74, "duration": 220, "velocity": 100}, {"time": 44160, "pitch": 79, "duration": 450, "velocity": 100}, {"time": 44640, "pitch": 77, "duration": 220, "velocity": 100}, {"time": 44880, "pitch": 75, "duration": 220, "velocity": 100}, {"time": 45360, "pitch": 79, "duration": 220, "velocity": 100}, {"time": 45600, "pitch": 77, "duration": 220, "velocity": 100}, {"time": 45840, "pitch": 75, "duration": 220, "velocity": 100}, {"time": 46080, "pitch": 74, "duration": 220, "velocity": 100}, {"time": 46320, "pitch": 72, "duration": 220, "velocity": 100}, {"time": 46560, "pitch": 74, "duration": 220, "velocity": 100}, {"time": 46800, "pitch": 70, "duration": 220, "velocity": 100}, {"time": 47040, "pitch": 72, "duration": 220, "velocity": 100}, {"time": 47280, "pitch": 69, "duration": 220, "velocity": 100}, {"time": 48240, "pitch": 67, "duration": 220, "velocity": 100}, {"time": 48480, "pitch": 72, "duration": 220, "velocity": 100}, {"time": 48720, "pitch": 70, "duration": 220, "velocity": 100}, {"time": 48960, "pitch": 69, "duration": 220, "velocity": 100}, {"time": 49200, "pitch": 70, "duration": 340, "velocity": 100}, {"time": 49560, "pitch": 67, "duration": 340, "velocity": 100}, {"time": 49920, "pitch": 72, "duration": 220, "velocity": 100}, {"time": 50160, "pitch": 74, "duration": 220, "velocity": 100}, {"time": 51120, "pitch": 67, "duration": 220, "velocity": 100}, {"time": 51360, "pitch": 72, "duration": 220, "velocity": 100}, {"time": 51600, "pitch": 70, "duration": 220, "velocity": 100}, {"time": 51840, "pitch": 69, "duration": 220, "velocity": 100}, {"time": 52080, "pitch": 69, "duration": 680, "velocity": 100}, {"time": 52800, "pitch": 70, "duration": 680, "velocity": 100}, {"time": 54000, "pitch": 67, "duration": 220, "velocity": 100}, {"time": 54240, "pitch": 72, "duration": 220, "velocity": 100}, {"time": 54480, "pitch": 70, "duration": 220, "velocity": 100}, {"time": 54720, "pitch": 69, "duration": 220, "velocity": 100}, {"time": 54960, "pitch": 70, "duration": 340, "velocity": 100}, {"time": 55320, "pitch": 67, "duration": 340, "velocity": 100}, {"time": 55680, "pitch": 72, "duration": 220, "velocity": 100}, {"time": 55920, "pitch": 74, "duration": 220, "velocity": 100}, {"time": 56880, "pitch": 67, "duration": 220, "velocity": 100}, {"time": 57120, "pitch": 72, "duration": 220, "velocity": 100}, {"time": 57360, "pitch": 74, "duration": 220, "velocity": 100}, {"time": 57600, "pitch": 72, "duration": 220, "velocity": 100}, {"time": 57840, "pitch": 72, "duration": 450, "velocity": 100}, {"time": 58320, "pitch": 70, "duration": 220, "velocity": 100}, {"time": 58560, "pitch": 70, "duration": 680, "velocity": 100}, {"time": 59760, "pitch": 74, "duration": 220, "velocity": 100}, {"time": 60000, "pitch": 72, "duration": 220, "velocity": 100}, {"time": 60240, "pitch": 77, "duration": 220, "velocity": 100}, {"time": 60480, "pitch": 75, "duration": 220, "velocity": 100}, {"time": 60720, "pitch": 72, "duration": 450, "velocity": 100}, {"time": 61200, "pitch": 74, "duration": 920, "velocity": 100}, {"time": 62640, "pitch": 72, "duration": 220, "velocity": 100}, {"time": 62880, "pitch": 75, "duration": 220, "velocity": 100}, {"time": 63120, "pitch": 74, "duration": 220, "velocity": 100}, {"time": 63360, "pitch": 72, "duration": 220, "velocity": 100}, {"time": 63600, "pitch": 72, "duration": 450, "velocity": 100}, {"time": 64080, "pitch": 70, "duration": 920, "velocity": 100}, {"time": 65520, "pitch": 74, "duration": 220, "velocity": 100}, {"time": 65760, "pitch": 77, "duration": 220, "velocity": 100}, {"time": 66000, "pitch": 75, "duration": 220, "velocity": 100}, {"time": 66240, "pitch": 74, "duration": 220, "velocity": 100}, {"time": 66480, "pitch": 72, "duration": 450, "velocity": 100}, {"time": 66960, "pitch": 74, "duration": 220, "velocity": 100}, {"time": 67200, "pitch": 79, "duration": 450, "velocity": 100}, {"time": 67680, "pitch": 77, "duration": 220, "velocity": 100}, {"time": 67920, "pitch": 75, "duration": 340, "velocity": 100}, {"time": 68280, "pitch": 77, "duration": 220, "velocity": 100}, {"time": 68520, "pitch": 79, "duration": 100, "velocity": 100}, {"time": 68640, "pitch": 77, "duration": 220, "velocity": 100}, {"time": 68880, "pitch": 75, "duration": 220, "velocity": 100}, {"time": 69120, "pitch": 74, "duration": 220, "velocity": 100}, {"time": 69360, "pitch": 72, "duration": 220, "velocity": 100}, {"time": 69600, "pitch": 74, "duration": 220, "velocity": 100}, {"time": 69840, "pitch": 70, "duration": 220, "velocity": 100}, {"time": 70080, "pitch": 72, "duration": 220, "velocity": 100}, {"time": 70800, "pitch": 79, "duration": 340, "velocity": 104}, {"time": 71160, "pitch": 82, "duration": 340, "velocity": 110}, {"time": 71520, "pitch": 81, "duration": 220, "velocity": 110}, {"time": 71760, "pitch": 77, "duration": 220, "velocity": 100}, {"time": 72000, "pitch": 79, "duration": 1150, "velocity": 100}, {"time": 73200, "pitch": 79, "duration": 340, "velocity": 104}, {"time": 73560, "pitch": 82, "duration": 340, "velocity": 110}, {"time": 73920, "pitch": 81, "duration": 220, "velocity": 110}, {"time": 74160, "pitch": 77, "duration": 220, "velocity": 100}, {"time": 74400, "pitch": 79, "duration": 340, "velocity": 100}, {"time": 74760, "pitch": 86, "duration": 800, "velocity": 110}, {"time": 75600, "pitch": 79, "duration": 340, "velocity": 104}, {"time": 75960, "pitch": 82, "duration": 340, "velocity": 110}, {"time": 76320, "pitch": 81, "duration": 220, "velocity": 110}, {"time": 76560, "pitch": 77, "duration": 220, "velocity": 100}, {"time": 76800, "pitch": 79, "duration": 1150, "velocity": 100}, {"time": 78000, "pitch": 84, "duration": 340, "velocity": 104}, {"time": 78360, "pitch": 82, "duration": 340, "velocity": 110}, {"time": 78720, "pitch": 82, "duration": 220, "velocity": 110}, {"time": 78960, "pitch": 81, "duration": 220, "velocity": 100}, {"time": 79200, "pitch": 81, "duration": 340, "velocity": 100}, {"time": 79560, "pitch": 82, "duration": 2040, "velocity": 110}, {"time": 101520, "pitch": 74, "duration": 220, "velocity": 100}, {"time": 101760, "pitch": 77, "duration": 220, "velocity": 100}, {"time": 102000, "pitch": 75, "duration": 220, "velocity": 100}, {"time": 102240, "pitch": 74, "duration": 220, "velocity": 100}, {"time": 102480, "pitch": 72, "duration": 450, "velocity": 100}, {"time": 102960, "pitch": 74, "duration": 920, "velocity": 100}, {"time": 104400, "pitch": 72, "duration": 220, "velocity": 100}, {"time": 104640, "pitch": 75, "duration": 220, "velocity": 100}, {"time": 104880, "pitch": 74, "duration": 220, "velocity": 100}, {"time": 105120, "pitch": 72, "duration": 220, "velocity": 100}, {"time": 105360, "pitch": 72, "duration": 450, "velocity": 100}, {"time": 105840, "pitch": 70, "duration": 920, "velocity": 100}, {"time": 107280, "pitch": 74, "duration": 220, "velocity": 100}, {"time": 107520, "pitch": 77, "duration": 220, "velocity": 100}, {"time": 107760, "pitch": 75, "duration": 220, "velocity": 100}, {"time": 108000, "pitch": 74, "duration": 220, "velocity": 100}, {"time": 108240, "pitch": 72, "duration": 450, "velocity": 100}, {"time": 108720, "pitch": 74, "duration": 220, "velocity": 100}, {"time": 108960, "pitch": 79, "duration": 450, "velocity": 100}, {"time": 109440, "pitch": 77, "duration": 220, "velocity": 100}, {"time": 109680, "pitch": 75, "duration": 340, "velocity": 100}, {"time": 110040, "pitch": 77, "duration": 220, "velocity": 100}, {"time": 110280, "pitch": 79, "duration": 100, "velocity": 100}, {"time": 110400, "pitch": 77, "duration": 220, "velocity": 100}, {"time": 110640, "pitch": 75, "duration": 220, "velocity": 100}, {"time": 110880, "pitch": 74, "duration": 220, "velocity": 100}, {"time": 111120, "pitch": 72, "duration": 220, "velocity": 100}, {"time": 111360, "pitch": 74, "duration": 220, "velocity": 100}, {"time": 111600, "pitch": 70, "duration": 220, "velocity": 100}, {"time": 111840, "pitch": 72, "duration": 220, "velocity": 100}, {"time": 112560, "pitch": 79, "duration": 340, "velocity": 104}, {"time": 112920, "pitch": 82, "duration": 340, "velocity": 110}, {"time": 113280, "pitch": 81, "duration": 220, "velocity": 110}, {"time": 113520, "pitch": 77, "duration": 220, "velocity": 100}, {"time": 113760, "pitch": 79, "duration": 1150, "velocity": 100}, {"time": 114960, "pitch": 79, "duration": 340, "velocity": 104}, {"time": 115320, "pitch": 82, "duration": 340, "velocity": 110}, {"time": 115680, "pitch": 81, "duration": 220, "velocity": 110}, {"time": 115920, "pitch": 77, "duration": 220, "velocity": 100}, {"time": 116160, "pitch": 79, "duration": 340, "velocity": 100}, {"time": 116520, "pitch": 86, "duration": 800, "velocity": 110}, {"time": 117360, "pitch": 79, "duration": 340, "velocity": 104}, {"time": 117720, "pitch": 82, "duration": 340, "velocity": 110}, {"time": 118080, "pitch": 81, "duration": 220, "velocity": 110}, {"time": 118320, "pitch": 77, "duration": 220, "velocity": 100}, {"time": 118560, "pitch": 79, "duration": 1150, "velocity": 100}, {"time": 119760, "pitch": 84, "duration": 340, "velocity": 104}, {"time": 120120, "pitch": 82, "duration": 340, "velocity": 110}, {"time": 120480, "pitch": 82, "duration": 220, "velocity": 110}, {"time": 120720, "pitch": 81, "duration": 220, "velocity": 100}, {"time": 120960, "pitch": 81, "duration": 340, "velocity": 100}, {"time": 121320, "pitch": 82, "duration": 850, "velocity": 110}, {"time": 122160, "pitch": 79, "duration": 340, "velocity": 104}, {"time": 122520, "pitch": 82, "duration": 340, "velocity": 110}, {"time": 122880, "pitch": 81, "duration": 220, "velocity": 110}, {"time": 123120, "pitch": 77, "duration": 220, "velocity": 100}, {"time": 123360, "pitch": 79, "duration": 1150, "velocity": 100}, {"time": 124560, "pitch": 79, "duration": 340, "velocity": 104}, {"time": 124920, "pitch": 82, "duration": 340, "velocity": 110}, {"time": 125280, "pitch": 81, "duration": 220, "velocity": 110}, {"time": 125520, "pitch": 77, "duration": 220, "velocity": 100}, {"time": 125760, "pitch": 79, "duration": 340, "velocity": 100}, {"time": 126120, "pitch": 86, "duration": 800, "velocity": 110}, {"time": 126960, "pitch": 79, "duration": 340, "velocity": 104}, {"time": 127320, "pitch": 82, "duration": 340, "velocity": 110}, {"time": 127680, "pitch": 81, "duration": 220, "velocity": 110}, {"time": 127920, "pitch": 77, "duration": 220, "velocity": 100}, {"time": 128160, "pitch": 79, "duration": 1150, "velocity": 100}, {"time": 129360, "pitch": 84, "duration": 340, "velocity": 104}, {"time": 129720, "pitch": 82, "duration": 340, "velocity": 110}, {"time": 130080, "pitch": 82, "duration": 220, "velocity": 110}, {"time": 130320, "pitch": 81, "duration": 220, "velocity": 100}, {"time": 130560, "pitch": 81, "duration": 340, "velocity": 100}, {"time": 130920, "pitch": 82, "duration": 2960, "velocity": 110}, {"time": 134160, "pitch": 84, "duration": 340, "velocity": 104}, {"time": 134520, "pitch": 82, "duration": 340, "velocity": 110}, {"time": 134880, "pitch": 82, "duration": 220, "velocity": 110}, {"time": 135120, "pitch": 81, "duration": 220, "velocity": 100}, {"time": 135360, "pitch": 81, "duration": 340, "velocity": 100}, {"time": 135720, "pitch": 82, "duration": 2960, "velocity": 110}, {"time": 138960, "pitch": 84, "duration": 340, "velocity": 104}, {"time": 139320, "pitch": 82, "duration": 340, "velocity": 110}, {"time": 139680, "pitch": 82, "duration": 220, "velocity": 110}, {"time": 139920, "pitch": 81, "duration": 220, "velocity": 100}, {"time": 140160, "pitch": 81, "duration": 340, "velocity": 100}, {"time": 140520, "pitch": 82, "duration": 850, "velocity": 110}], "annotations": [{"time": 990, "annotation": {"number": 7, "value": 120}, "group": "control_change"}, {"time": 1000, "annotation": {"number": 11, "value": 100}, "group": "control_change"}, {"time": 1010, "annotation": {"number": 10, "value": 64}, "group": "control_change"}, {"time": 1020, "annotation": {"number": 91, "value": 50}, "group": "control_change"}, {"time": 1030, "annotation": {"number": 93, "value": 0}, "group": "control_change"}, {"time": 1040, "annotation": {"number": 101, "value": 0}, "group": "control_change"}, {"time": 1050, "annotation": {"number": 100, "value": 0}, "group": "control_change"}, {"time": 1060, "annotation": {"number": 6, "value": 12}, "group": "control_change"}, {"time": 1070, "annotation": {"number": 101, "value": 127}, "group": "control_change"}, {"time": 1080, "annotation": {"number": 100, "value": 127}, "group": "control_change"}]}, {"program": 0, "is_drum": false, "name": "CHORUS", "annotations": [{"time": 960, "annotation": {"number": 0, "value": 0}, "group": "control_change"}, {"time": 970, "annotation": {"number": 32, "value": 0}, "group": "control_change"}]}, {"program": 52, "is_drum": false, "name": "CHORUS", "notes": [{"time": 78000, "pitch": 63, "duration": 340, "velocity": 104}, {"time": 78000, "pitch": 69, "duration": 340, "velocity": 104}, {"time": 78360, "pitch": 62, "duration": 340, "velocity": 104}, {"time": 78360, "pitch": 67, "duration": 340, "velocity": 110}, {"time": 78720, "pitch": 62, "duration": 220, "velocity": 110}, {"time": 78720, "pitch": 67, "duration": 220, "velocity": 110}, {"time": 78960, "pitch": 60, "duration": 220, "velocity": 110}, {"time": 78960, "pitch": 65, "duration": 220, "velocity": 100}, {"time": 79200, "pitch": 60, "duration": 340, "velocity": 100}, {"time": 79200, "pitch": 65, "duration": 340, "velocity": 110}, {"time": 79560, "pitch": 62, "duration": 2040, "velocity": 110}, {"time": 79560, "pitch": 67, "duration": 2040, "velocity": 110}, {"time": 119760, "pitch": 63, "duration": 340, "velocity": 104}, {"time": 119760, "pitch": 69, "duration": 340, "velocity": 104}, {"time": 120120, "pitch": 62, "duration": 340, "velocity": 104}, {"time": 120120, "pitch": 67, "duration": 340, "velocity": 110}, {"time": 120480, "pitch": 62, "duration": 220, "velocity": 110}, {"time": 120480, "pitch": 67, "duration": 220, "velocity": 110}, {"time": 120720, "pitch": 60, "duration": 220, "velocity": 110}, {"time": 120720, "pitch": 65, "duration": 220, "velocity": 100}, {"time": 120960, "pitch": 60, "duration": 340, "velocity": 100}, {"time": 120960, "pitch": 65, "duration": 340, "velocity": 110}, {"time": 121320, "pitch": 62, "duration": 850, "velocity": 110}, {"time": 121320, "pitch": 67, "duration": 850, "velocity": 110}, {"time": 129360, "pitch": 63, "duration": 340, "velocity": 104}, {"time": 129360, "pitch": 69, "duration": 340, "velocity": 104}, {"time": 129720, "pitch": 62, "duration": 340, "velocity": 104}, {"time": 129720, "pitch": 67, "duration": 340, "velocity": 110}, {"time": 130080, "pitch": 62, "duration": 220, "velocity": 110}, {"time": 130080, "pitch": 67, "duration": 220, "velocity": 110}, {"time": 130320, "pitch": 60, "duration": 220, "velocity": 110}, {"time": 130320, "pitch": 65, "duration": 220, "velocity": 100}, {"time": 130560, "pitch": 60, "duration": 340, "velocity": 100}, {"time": 130560, "pitch": 65, "duration": 340, "velocity": 110}, {"time": 130920, "pitch": 62, "duration": 2030, "velocity": 110}, {"time": 130920, "pitch": 67, "duration": 2030, "velocity": 110}, {"time": 134160, "pitch": 63, "duration": 340, "velocity": 104}, {"time": 134160, "pitch": 69, "duration": 340, "velocity": 104}, {"time": 134520, "pitch": 62, "duration": 340, "velocity": 104}, {"time": 134520, "pitch": 67, "duration": 340, "velocity": 110}, {"time": 134880, "pitch": 62, "duration": 220, "velocity": 110}, {"time": 134880, "pitch": 67, "duration": 220, "velocity": 110}, {"time": 135120, "pitch": 60, "duration": 220, "velocity": 110}, {"time": 135120, "pitch": 65, "duration": 220, "velocity": 100}, {"time": 135360, "pitch": 60, "duration": 340, "velocity": 100}, {"time": 135360, "pitch": 65, "duration": 340, "velocity": 110}, {"time": 135720, "pitch": 62, "duration": 2030, "velocity": 110}, {"time": 135720, "pitch": 67, "duration": 2030, "velocity": 110}, {"time": 138960, "pitch": 63, "duration": 340, "velocity": 104}, {"time": 138960, "pitch": 69, "duration": 340, "velocity": 104}, {"time": 139320, "pitch": 62, "duration": 340, "velocity": 104}, {"time": 139320, "pitch": 67, "duration": 340, "velocity": 110}, {"time": 139680, "pitch": 62, "duration": 220, "velocity": 110}, {"time": 139680, "pitch": 67, "duration": 220, "velocity": 110}, {"time": 139920, "pitch": 60, "duration": 220, "velocity": 110}, {"time": 139920, "pitch": 65, "duration": 220, "velocity": 100}, {"time": 140160, "pitch": 60, "duration": 340, "velocity": 100}, {"time": 140160, "pitch": 65, "duration": 340, "velocity": 110}, {"time": 140520, "pitch": 62, "duration": 850, "velocity": 110}, {"time": 140520, "pitch": 67, "duration": 850, "velocity": 110}], "annotations": [{"time": 990, "annotation": {"number": 7, "value": 100}, "group": "control_change"}, {"time": 1000, "annotation": {"number": 11, "value": 100}, "group": "control_change"}, {"time": 1010, "annotation": {"number": 10, "value": 74}, "group": "control_change"}, {"time": 1020, "annotation": {"number": 91, "value": 70}, "group": "control_change"}, {"time": 1030, "annotation": {"number": 93, "value": 0}, "group": "control_change"}, {"time": 1040, "annotation": {"number": 101, "value": 0}, "group": "control_change"}, {"time": 1050, "annotation": {"number": 100, "value": 0}, "group": "control_change"}, {"time": 1060, "annotation": {"number": 6, "value": 12}, "group": "control_change"}, {"time": 1070, "annotation": {"number": 101, "value": 127}, "group": "control_change"}, {"time": 1080, "annotation": {"number": 100, "value": 127}, "group": "control_change"}]}, {"program": 0, "is_drum": false, "name": "PIANO H", "notes": [{"time": 24720, "pitch": 36, "duration": 300, "velocity": 100}, {"time": 24720, "pitch": 60, "duration": 340, "velocity": 100}, {"time": 24720, "pitch": 63, "duration": 340, "velocity": 90}, {"time": 24730, "pitch": 67, "duration": 340, "velocity": 100}, {"time": 24960, "pitch": 43, "duration": 100, "velocity": 90}, {"time": 25080, "pitch": 48, "duration": 340, "velocity": 110}, {"time": 25080, "pitch": 60, "duration": 340, "velocity": 120}, {"time": 25080, "pitch": 63, "duration": 340, "velocity": 110}, {"time": 25090, "pitch": 67, "duration": 340, "velocity": 120}, {"time": 25440, "pitch": 38, "duration": 220, "velocity": 90}, {"time": 25440, "pitch": 62, "duration": 100, "velocity": 85}, {"time": 25440, "pitch": 65, "duration": 100, "velocity": 75}, {"time": 25450, "pitch": 69, "duration": 100, "velocity": 85}, {"time": 25680, "pitch": 45, "duration": 220, "velocity": 90}, {"time": 25680, "pitch": 62, "duration": 100, "velocity": 110}, {"time": 25680, "pitch": 69, "duration": 100, "velocity": 100}, {"time": 25690, "pitch": 65, "duration": 100, "velocity": 110}, {"time": 25920, "pitch": 50, "duration": 220, "velocity": 100}, {"time": 25920, "pitch": 62, "duration": 100, "velocity": 100}, {"time": 25920, "pitch": 65, "duration": 100, "velocity": 90}, {"time": 25930, "pitch": 69, "duration": 100, "velocity": 100}, {"time": 26160, "pitch": 36, "duration": 300, "velocity": 100}, {"time": 26160, "pitch": 60, "duration": 340, "velocity": 100}, {"time": 26160, "pitch": 63, "duration": 340, "velocity": 90}, {"time": 26170, "pitch": 67, "duration": 340, "velocity": 100}, {"time": 26400, "pitch": 43, "duration": 100, "velocity": 90}, {"time": 26520, "pitch": 48, "duration": 340, "velocity": 110}, {"time": 26520, "pitch": 60, "duration": 340, "velocity": 120}, {"time": 26520, "pitch": 63, "duration": 340, "velocity": 110}, {"time": 26530, "pitch": 67, "duration": 340, "velocity": 120}, {"time": 26880, "pitch": 38, "duration": 360, "velocity": 90}, {"time": 26880, "pitch": 62, "duration": 100, "velocity": 85}, {"time": 26880, "pitch": 65, "duration": 100, "velocity": 75}, {"time": 26890, "pitch": 69, "duration": 100, "velocity": 85}, {"time": 27120, "pitch": 50, "duration": 120, "velocity": 100}, {"time": 27120, "pitch": 62, "duration": 100, "velocity": 90}, {"time": 27120, "pitch": 65, "duration": 100, "velocity": 90}, {"time": 27130, "pitch": 70, "duration": 100, "velocity": 100}, {"time": 27600, "pitch": 36, "duration": 300, "velocity": 100}, {"time": 27600, "pitch": 60, "duration": 340, "velocity": 100}, {"time": 27600, "pitch": 63, "duration": 340, "velocity": 90}, {"time": 27610, "pitch": 67, "duration": 340, "velocity": 100}, {"time": 27840, "pitch": 43, "duration": 100, "velocity": 90}, {"time": 27960, "pitch": 48, "duration": 340, "velocity": 110}, {"time": 27960, "pitch": 60, "duration": 340, "velocity": 120}, {"time": 27960, "pitch": 63, "duration": 340, "velocity": 110}, {"time": 27970, "pitch": 67, "duration": 340, "velocity": 120}, {"time": 28320, "pitch": 38, "duration": 220, "velocity": 90}, {"time": 28320, "pitch": 62, "duration": 100, "velocity": 85}, {"time": 28320, "pitch": 65, "duration": 100, "velocity": 75}, {"time": 28330, "pitch": 69, "duration": 100, "velocity": 85}, {"time": 28560, "pitch": 38, "duration": 350, "velocity": 90}, {"time": 28560, "pitch": 62, "duration": 100, "velocity": 110}, {"time": 28560, "pitch": 69, "duration": 100, "velocity": 100}, {"time": 28570, "pitch": 65, "duration": 100, "velocity": 110}, {"time": 28800, "pitch": 62, "duration": 100, "velocity": 100}, {"time": 28800, "pitch": 65, "duration": 100, "velocity": 90}, {"time": 28810, "pitch": 69, "duration": 100, "velocity": 100}, {"time": 29040, "pitch": 43, "duration": 300, "velocity": 100}, {"time": 29040, "pitch": 62, "duration": 340, "velocity": 100}, {"time": 29040, "pitch": 65, "duration": 340, "velocity": 90}, {"time": 29050, "pitch": 69, "duration": 340, "velocity": 100}, {"time": 29280, "pitch": 50, "duration": 100, "velocity": 90}, {"time": 29400, "pitch": 55, "duration": 340, "velocity": 110}, {"time": 29400, "pitch": 58, "duration": 340, "velocity": 120}, {"time": 29400, "pitch": 62, "duration": 340, "velocity": 110}, {"time": 29410, "pitch": 67, "duration": 340, "velocity": 120}, {"time": 29760, "pitch": 43, "duration": 380, "velocity": 100}, {"time": 29760, "pitch": 70, "duration": 100, "velocity": 100}, {"time": 29880, "pitch": 58, "duration": 100, "velocity": 90}, {"time": 30000, "pitch": 72, "duration": 100, "velocity": 110}, {"time": 30120, "pitch": 58, "duration": 100, "velocity": 90}, {"time": 30240, "pitch": 74, "duration": 100, "velocity": 120}, {"time": 30360, "pitch": 58, "duration": 100, "velocity": 90}, {"time": 30480, "pitch": 36, "duration": 300, "velocity": 100}, {"time": 30480, "pitch": 60, "duration": 340, "velocity": 100}, {"time": 30480, "pitch": 63, "duration": 340, "velocity": 90}, {"time": 30490, "pitch": 67, "duration": 340, "velocity": 100}, {"time": 30720, "pitch": 43, "duration": 100, "velocity": 90}, {"time": 30840, "pitch": 48, "duration": 340, "velocity": 110}, {"time": 30840, "pitch": 60, "duration": 340, "velocity": 120}, {"time": 30840, "pitch": 63, "duration": 340, "velocity": 110}, {"time": 30850, "pitch": 67, "duration": 340, "velocity": 120}, {"time": 31200, "pitch": 38, "duration": 220, "velocity": 90}, {"time": 31200, "pitch": 62, "duration": 100, "velocity": 85}, {"time": 31200, "pitch": 65, "duration": 100, "velocity": 75}, {"time": 31210, "pitch": 69, "duration": 100, "velocity": 85}, {"time": 31440, "pitch": 45, "duration": 220, "velocity": 90}, {"time": 31440, "pitch": 62, "duration": 100, "velocity": 110}, {"time": 31440, "pitch": 69, "duration": 100, "velocity": 100}, {"time": 31450, "pitch": 65, "duration": 100, "velocity": 110}, {"time": 31680, "pitch": 50, "duration": 220, "velocity": 100}, {"time": 31680, "pitch": 62, "duration": 100, "velocity": 100}, {"time": 31680, "pitch": 65, "duration": 100, "velocity": 90}, {"time": 31690, "pitch": 69, "duration": 100, "velocity": 100}, {"time": 31920, "pitch": 36, "duration": 300, "velocity": 100}, {"time": 31920, "pitch": 60, "duration": 340, "velocity": 100}, {"time": 31920, "pitch": 63, "duration": 340, "velocity": 90}, {"time": 31930, "pitch": 67, "duration": 340, "velocity": 100}, {"time": 32160, "pitch": 43, "duration": 100, "velocity": 90}, {"time": 32280, "pitch": 48, "duration": 340, "velocity": 110}, {"time": 32280, "pitch": 60, "duration": 340, "velocity": 120}, {"time": 32280, "pitch": 63, "duration": 340, "velocity": 110}, {"time": 32290, "pitch": 67, "duration": 340, "velocity": 120}, {"time": 32640, "pitch": 38, "duration": 360, "velocity": 90}, {"time": 32640, "pitch": 62, "duration": 100, "velocity": 85}, {"time": 32640, "pitch": 65, "duration": 100, "velocity": 75}, {"time": 32650, "pitch": 69, "duration": 100, "velocity": 85}, {"time": 32880, "pitch": 50, "duration": 120, "velocity": 90}, {"time": 32880, "pitch": 62, "duration": 100, "velocity": 90}, {"time": 32880, "pitch": 65, "duration": 100, "velocity": 90}, {"time": 32890, "pitch": 70, "duration": 100, "velocity": 100}, {"time": 33360, "pitch": 36, "duration": 300, "velocity": 100}, {"time": 33360, "pitch": 60, "duration": 340, "velocity": 100}, {"time": 33360, "pitch": 63, "duration": 340, "velocity": 90}, {"time": 33370, "pitch": 67, "duration": 340, "velocity": 100}, {"time": 33600, "pitch": 43, "duration": 100, "velocity": 90}, {"time": 33720, "pitch": 48, "duration": 340, "velocity": 110}, {"time": 33720, "pitch": 60, "duration": 340, "velocity": 120}, {"time": 33720, "pitch": 63, "duration": 340, "velocity": 110}, {"time": 33730, "pitch": 67, "duration": 340, "velocity": 120}, {"time": 34080, "pitch": 38, "duration": 220, "velocity": 90}, {"time": 34080, "pitch": 62, "duration": 100, "velocity": 85}, {"time": 34080, "pitch": 65, "duration": 100, "velocity": 75}, {"time": 34090, "pitch": 69, "duration": 100, "velocity": 85}, {"time": 34320, "pitch": 38, "duration": 450, "velocity": 90}, {"time": 34320, "pitch": 62, "duration": 100, "velocity": 110}, {"time": 34320, "pitch": 69, "duration": 100, "velocity": 100}, {"time": 34330, "pitch": 65, "duration": 100, "velocity": 110}, {"time": 34560, "pitch": 62, "duration": 100, "velocity": 100}, {"time": 34560, "pitch": 65, "duration": 100, "velocity": 90}, {"time": 34570, "pitch": 69, "duration": 100, "velocity": 100}, {"time": 34800, "pitch": 43, "duration": 300, "velocity": 100}, {"time": 34800, "pitch": 62, "duration": 340, "velocity": 100}, {"time": 34800, "pitch": 65, "duration": 340, "velocity": 90}, {"time": 34810, "pitch": 69, "duration": 340, "velocity": 100}, {"time": 35040, "pitch": 50, "duration": 100, "velocity": 90}, {"time": 35160, "pitch": 55, "duration": 340, "velocity": 110}, {"time": 35160, "pitch": 62, "duration": 340, "velocity": 120}, {"time": 35160, "pitch": 65, "duration": 340, "velocity": 110}, {"time": 35170, "pitch": 69, "duration": 340, "velocity": 120}, {"time": 35520, "pitch": 43, "duration": 220, "velocity": 100}, {"time": 35520, "pitch": 62, "duration": 340, "velocity": 100}, {"time": 35520, "pitch": 65, "duration": 340, "velocity": 90}, {"time": 35530, "pitch": 70, "duration": 380, "velocity": 110}, {"time": 35760, "pitch": 43, "duration": 450, "velocity": 100}, {"time": 35880, "pitch": 69, "duration": 140, "velocity": 110}, {"time": 36000, "pitch": 67, "duration": 140, "velocity": 100}, {"time": 36120, "pitch": 65, "duration": 100, "velocity": 100}, {"time": 36240, "pitch": 48, "duration": 260, "velocity": 100}, {"time": 36240, "pitch": 60, "duration": 340, "velocity": 110}, {"time": 36240, "pitch": 63, "duration": 340, "velocity": 90}, {"time": 36250, "pitch": 67, "duration": 340, "velocity": 110}, {"time": 36480, "pitch": 43, "duration": 140, "velocity": 90}, {"time": 36600, "pitch": 48, "duration": 370, "velocity": 110}, {"time": 36600, "pitch": 60, "duration": 340, "velocity": 110}, {"time": 36600, "pitch": 63, "duration": 340, "velocity": 100}, {"time": 36610, "pitch": 67, "duration": 340, "velocity": 110}, {"time": 36960, "pitch": 50, "duration": 220, "velocity": 90}, {"time": 36960, "pitch": 62, "duration": 100, "velocity": 95}, {"time": 36960, "pitch": 65, "duration": 100, "velocity": 85}, {"time": 36970, "pitch": 69, "duration": 100, "velocity": 95}, {"time": 37200, "pitch": 50, "duration": 220, "velocity": 100}, {"time": 37200, "pitch": 62, "duration": 200, "velocity": 110}, {"time": 37200, "pitch": 69, "duration": 200, "velocity": 100}, {"time": 37210, "pitch": 65, "duration": 200, "velocity": 110}, {"time": 37440, "pitch": 50, "duration": 260, "velocity": 90}, {"time": 37440, "pitch": 62, "duration": 200, "velocity": 100}, {"time": 37440, "pitch": 65, "duration": 200, "velocity": 90}, {"time": 37450, "pitch": 69, "duration": 200, "velocity": 100}, {"time": 37680, "pitch": 46, "duration": 260, "velocity": 100}, {"time": 37680, "pitch": 58, "duration": 340, "velocity": 110}, {"time": 37680, "pitch": 62, "duration": 340, "velocity": 90}, {"time": 37690, "pitch": 65, "duration": 340, "velocity": 110}, {"time": 37920, "pitch": 41, "duration": 100, "velocity": 90}, {"time": 38040, "pitch": 46, "duration": 340, "velocity": 110}, {"time": 38040, "pitch": 58, "duration": 340, "velocity": 110}, {"time": 38040, "pitch": 62, "duration": 340, "velocity": 100}, {"time": 38050, "pitch": 65, "duration": 340, "velocity": 110}, {"time": 38400, "pitch": 46, "duration": 380, "velocity": 110}, {"time": 38400, "pitch": 65, "duration": 130, "velocity": 100}, {"time": 38520, "pitch": 58, "duration": 130, "velocity": 90}, {"time": 38640, "pitch": 62, "duration": 130, "velocity": 110}, {"time": 38760, "pitch": 65, "duration": 130, "velocity": 115}, {"time": 38880, "pitch": 62, "duration": 130, "velocity": 107}, {"time": 39000, "pitch": 58, "duration": 110, "velocity": 100}, {"time": 39120, "pitch": 48, "duration": 260, "velocity": 100}, {"time": 39120, "pitch": 60, "duration": 340, "velocity": 110}, {"time": 39120, "pitch": 63, "duration": 340, "velocity": 100}, {"time": 39130, "pitch": 67, "duration": 340, "velocity": 110}, {"time": 39360, "pitch": 43, "duration": 130, "velocity": 90}, {"time": 39480, "pitch": 48, "duration": 370, "velocity": 110}, {"time": 39480, "pitch": 60, "duration": 340, "velocity": 110}, {"time": 39480, "pitch": 63, "duration": 340, "velocity": 100}, {"time": 39490, "pitch": 67, "duration": 340, "velocity": 110}, {"time": 39840, "pitch": 50, "duration": 220, "velocity": 100}, {"time": 39840, "pitch": 62, "duration": 200, "velocity": 95}, {"time": 39840, "pitch": 65, "duration": 200, "velocity": 85}, {"time": 39850, "pitch": 69, "duration": 200, "velocity": 95}, {"time": 40080, "pitch": 50, "duration": 220, "velocity": 100}, {"time": 40080, "pitch": 62, "duration": 100, "velocity": 110}, {"time": 40080, "pitch": 69, "duration": 100, "velocity": 100}, {"time": 40090, "pitch": 65, "duration": 100, "velocity": 110}, {"time": 40320, "pitch": 50, "duration": 260, "velocity": 90}, {"time": 40320, "pitch": 62, "duration": 100, "velocity": 100}, {"time": 40320, "pitch": 69, "duration": 100, "velocity": 90}, {"time": 40330, "pitch": 65, "duration": 100, "velocity": 100}, {"time": 40560, "pitch": 43, "duration": 340, "velocity": 100}, {"time": 40560, "pitch": 55, "duration": 340, "velocity": 100}, {"time": 40560, "pitch": 58, "duration": 340, "velocity": 90}, {"time": 40570, "pitch": 62, "duration": 340, "velocity": 100}, {"time": 40920, "pitch": 38, "duration": 340, "velocity": 90}, {"time": 40920, "pitch": 55, "duration": 340, "velocity": 110}, {"time": 40920, "pitch": 58, "duration": 340, "velocity": 100}, {"time": 40930, "pitch": 62, "duration": 340, "velocity": 110}, {"time": 41280, "pitch": 43, "duration": 220, "velocity": 110}, {"time": 41280, "pitch": 62, "duration": 340, "velocity": 113}, {"time": 41280, "pitch": 67, "duration": 340, "velocity": 100}, {"time": 41280, "pitch": 70, "duration": 340, "velocity": 100}, {"time": 41520, "pitch": 45, "duration": 220, "velocity": 100}, {"time": 41640, "pitch": 67, "duration": 340, "velocity": 105}, {"time": 41640, "pitch": 70, "duration": 340, "velocity": 107}, {"time": 41640, "pitch": 74, "duration": 340, "velocity": 120}, {"time": 41760, "pitch": 46, "duration": 220, "velocity": 110}, {"time": 42000, "pitch": 48, "duration": 260, "velocity": 100}, {"time": 42000, "pitch": 60, "duration": 340, "velocity": 110}, {"time": 42000, "pitch": 63, "duration": 340, "velocity": 100}, {"time": 42010, "pitch": 67, "duration": 340, "velocity": 110}, {"time": 42240, "pitch": 43, "duration": 130, "velocity": 90}, {"time": 42360, "pitch": 48, "duration": 370, "velocity": 110}, {"time": 42360, "pitch": 60, "duration": 340, "velocity": 110}, {"time": 42360, "pitch": 63, "duration": 340, "velocity": 100}, {"time": 42370, "pitch": 67, "duration": 340, "velocity": 110}, {"time": 42720, "pitch": 50, "duration": 220, "velocity": 110}, {"time": 42720, "pitch": 62, "duration": 200, "velocity": 95}, {"time": 42720, "pitch": 65, "duration": 200, "velocity": 85}, {"time": 42730, "pitch": 69, "duration": 200, "velocity": 95}, {"time": 42960, "pitch": 51, "duration": 220, "velocity": 100}, {"time": 42960, "pitch": 62, "duration": 100, "velocity": 110}, {"time": 42960, "pitch": 69, "duration": 100, "velocity": 100}, {"time": 42970, "pitch": 65, "duration": 100, "velocity": 110}, {"time": 43200, "pitch": 53, "duration": 260, "velocity": 90}, {"time": 43200, "pitch": 62, "duration": 100, "velocity": 100}, {"time": 43200, "pitch": 69, "duration": 100, "velocity": 90}, {"time": 43210, "pitch": 65, "duration": 100, "velocity": 100}, {"time": 43440, "pitch": 46, "duration": 260, "velocity": 100}, {"time": 43440, "pitch": 58, "duration": 340, "velocity": 100}, {"time": 43440, "pitch": 62, "duration": 340, "velocity": 90}, {"time": 43450, "pitch": 65, "duration": 340, "velocity": 100}, {"time": 43680, "pitch": 41, "duration": 100, "velocity": 90}, {"time": 43800, "pitch": 46, "duration": 340, "velocity": 110}, {"time": 43800, "pitch": 58, "duration": 340, "velocity": 120}, {"time": 43800, "pitch": 62, "duration": 340, "velocity": 110}, {"time": 43810, "pitch": 65, "duration": 340, "velocity": 120}, {"time": 44160, "pitch": 46, "duration": 220, "velocity": 100}, {"time": 44160, "pitch": 65, "duration": 130, "velocity": 100}, {"time": 44280, "pitch": 58, "duration": 130, "velocity": 90}, {"time": 44400, "pitch": 48, "duration": 220, "velocity": 100}, {"time": 44400, "pitch": 62, "duration": 130, "velocity": 110}, {"time": 44520, "pitch": 65, "duration": 130, "velocity": 115}, {"time": 44640, "pitch": 50, "duration": 220, "velocity": 90}, {"time": 44640, "pitch": 62, "duration": 130, "velocity": 107}, {"time": 44760, "pitch": 58, "duration": 130, "velocity": 100}, {"time": 44880, "pitch": 48, "duration": 260, "velocity": 100}, {"time": 44880, "pitch": 60, "duration": 340, "velocity": 100}, {"time": 44880, "pitch": 63, "duration": 340, "velocity": 90}, {"time": 44890, "pitch": 67, "duration": 340, "velocity": 100}, {"time": 45120, "pitch": 43, "duration": 100, "velocity": 90}, {"time": 45240, "pitch": 48, "duration": 340, "velocity": 110}, {"time": 45240, "pitch": 60, "duration": 340, "velocity": 120}, {"time": 45240, "pitch": 63, "duration": 340, "velocity": 110}, {"time": 45250, "pitch": 67, "duration": 340, "velocity": 120}, {"time": 45600, "pitch": 50, "duration": 220, "velocity": 100}, {"time": 45600, "pitch": 62, "duration": 100, "velocity": 88}, {"time": 45600, "pitch": 65, "duration": 100, "velocity": 78}, {"time": 45610, "pitch": 69, "duration": 100, "velocity": 88}, {"time": 45840, "pitch": 45, "duration": 220, "velocity": 100}, {"time": 45840, "pitch": 62, "duration": 100, "velocity": 110}, {"time": 45840, "pitch": 69, "duration": 100, "velocity": 100}, {"time": 45850, "pitch": 65, "duration": 100, "velocity": 110}, {"time": 46080, "pitch": 50, "duration": 220, "velocity": 90}, {"time": 46080, "pitch": 62, "duration": 100, "velocity": 100}, {"time": 46080, "pitch": 69, "duration": 100, "velocity": 90}, {"time": 46090, "pitch": 65, "duration": 100, "velocity": 100}, {"time": 46320, "pitch": 36, "duration": 220, "velocity": 108}, {"time": 46320, "pitch": 60, "duration": 250, "velocity": 100}, {"time": 46320, "pitch": 63, "duration": 250, "velocity": 90}, {"time": 46330, "pitch": 67, "duration": 250, "velocity": 100}, {"time": 46560, "pitch": 43, "duration": 220, "velocity": 90}, {"time": 46560, "pitch": 55, "duration": 130, "velocity": 110}, {"time": 46680, "pitch": 60, "duration": 130, "velocity": 110}, {"time": 46800, "pitch": 48, "duration": 220, "velocity": 110}, {"time": 46800, "pitch": 63, "duration": 130, "velocity": 120}, {"time": 46920, "pitch": 67, "duration": 130, "velocity": 100}, {"time": 47040, "pitch": 38, "duration": 200, "velocity": 107}, {"time": 47040, "pitch": 60, "duration": 220, "velocity": 100}, {"time": 47040, "pitch": 65, "duration": 220, "velocity": 110}, {"time": 47050, "pitch": 69, "duration": 220, "velocity": 115}, {"time": 47280, "pitch": 45, "duration": 120, "velocity": 90}, {"time": 47280, "pitch": 60, "duration": 120, "velocity": 100}, {"time": 47280, "pitch": 65, "duration": 120, "velocity": 110}, {"time": 47290, "pitch": 70, "duration": 120, "velocity": 125}, {"time": 47760, "pitch": 48, "duration": 350, "velocity": 100}, {"time": 47760, "pitch": 60, "duration": 340, "velocity": 100}, {"time": 47760, "pitch": 63, "duration": 340, "velocity": 90}, {"time": 47770, "pitch": 67, "duration": 340, "velocity": 100}, {"time": 48120, "pitch": 48, "duration": 340, "velocity": 110}, {"time": 48120, "pitch": 60, "duration": 340, "velocity": 120}, {"time": 48120, "pitch": 63, "duration": 340, "velocity": 110}, {"time": 48130, "pitch": 67, "duration": 340, "velocity": 120}, {"time": 48480, "pitch": 50, "duration": 220, "velocity": 100}, {"time": 48480, "pitch": 62, "duration": 100, "velocity": 85}, {"time": 48480, "pitch": 65, "duration": 100, "velocity": 75}, {"time": 48490, "pitch": 69, "duration": 100, "velocity": 85}, {"time": 48720, "pitch": 50, "duration": 240, "velocity": 90}, {"time": 48720, "pitch": 62, "duration": 100, "velocity": 110}, {"time": 48720, "pitch": 69, "duration": 100, "velocity": 100}, {"time": 48730, "pitch": 65, "duration": 100, "velocity": 110}, {"time": 48960, "pitch": 50, "duration": 240, "velocity": 100}, {"time": 48960, "pitch": 62, "duration": 100, "velocity": 100}, {"time": 48960, "pitch": 65, "duration": 100, "velocity": 90}, {"time": 48970, "pitch": 69, "duration": 100, "velocity": 100}, {"time": 49200, "pitch": 48, "duration": 330, "velocity": 100}, {"time": 49200, "pitch": 60, "duration": 340, "velocity": 100}, {"time": 49200, "pitch": 63, "duration": 340, "velocity": 90}, {"time": 49210, "pitch": 67, "duration": 340, "velocity": 100}, {"time": 49560, "pitch": 48, "duration": 340, "velocity": 110}, {"time": 49560, "pitch": 60, "duration": 340, "velocity": 120}, {"time": 49560, "pitch": 63, "duration": 340, "velocity": 110}, {"time": 49570, "pitch": 67, "duration": 340, "velocity": 120}, {"time": 49920, "pitch": 50, "duration": 220, "velocity": 100}, {"time": 49920, "pitch": 62, "duration": 100, "velocity": 85}, {"time": 49920, "pitch": 65, "duration": 100, "velocity": 75}, {"time": 49930, "pitch": 69, "duration": 100, "velocity": 85}, {"time": 50160, "pitch": 50, "duration": 120, "velocity": 100}, {"time": 50160, "pitch": 62, "duration": 100, "velocity": 90}, {"time": 50160, "pitch": 65, "duration": 100, "velocity": 90}, {"time": 50170, "pitch": 70, "duration": 100, "velocity": 100}, {"time": 50640, "pitch": 48, "duration": 350, "velocity": 100}, {"time": 50640, "pitch": 60, "duration": 340, "velocity": 100}, {"time": 50640, "pitch": 63, "duration": 340, "velocity": 90}, {"time": 50650, "pitch": 67, "duration": 340, "velocity": 100}, {"time": 51000, "pitch": 48, "duration": 340, "velocity": 110}, {"time": 51000, "pitch": 60, "duration": 340, "velocity": 120}, {"time": 51000, "pitch": 63, "duration": 340, "velocity": 110}, {"time": 51010, "pitch": 67, "duration": 340, "velocity": 120}, {"time": 51360, "pitch": 50, "duration": 220, "velocity": 100}, {"time": 51360, "pitch": 62, "duration": 100, "velocity": 85}, {"time": 51360, "pitch": 65, "duration": 100, "velocity": 75}, {"time": 51370, "pitch": 69, "duration": 100, "velocity": 85}, {"time": 51600, "pitch": 50, "duration": 240, "velocity": 90}, {"time": 51600, "pitch": 62, "duration": 100, "velocity": 110}, {"time": 51600, "pitch": 69, "duration": 100, "velocity": 100}, {"time": 51610, "pitch": 65, "duration": 100, "velocity": 110}, {"time": 51840, "pitch": 50, "duration": 240, "velocity": 100}, {"time": 51840, "pitch": 62, "duration": 100, "velocity": 100}, {"time": 51840, "pitch": 65, "duration": 100, "velocity": 90}, {"time": 51850, "pitch": 69, "duration": 100, "velocity": 100}, {"time": 52080, "pitch": 43, "duration": 390, "velocity": 100}, {"time": 52080, "pitch": 62, "duration": 340, "velocity": 100}, {"time": 52080, "pitch": 65, "duration": 340, "velocity": 90}, {"time": 52090, "pitch": 69, "duration": 340, "velocity": 100}, {"time": 52440, "pitch": 50, "duration": 340, "velocity": 110}, {"time": 52440, "pitch": 58, "duration": 340, "velocity": 120}, {"time": 52440, "pitch": 62, "duration": 340, "velocity": 110}, {"time": 52450, "pitch": 67, "duration": 340, "velocity": 120}, {"time": 52800, "pitch": 43, "duration": 450, "velocity": 100}, {"time": 52800, "pitch": 70, "duration": 100, "velocity": 100}, {"time": 52920, "pitch": 58, "duration": 100, "velocity": 90}, {"time": 53040, "pitch": 72, "duration": 100, "velocity": 110}, {"time": 53160, "pitch": 58, "duration": 100, "velocity": 90}, {"time": 53280, "pitch": 50, "duration": 220, "velocity": 100}, {"time": 53280, "pitch": 74, "duration": 100, "velocity": 120}, {"time": 53400, "pitch": 58, "duration": 100, "velocity": 90}, {"time": 53520, "pitch": 48, "duration": 350, "velocity": 100}, {"time": 53520, "pitch": 60, "duration": 340, "velocity": 100}, {"time": 53520, "pitch": 63, "duration": 340, "velocity": 90}, {"time": 53530, "pitch": 67, "duration": 340, "velocity": 100}, {"time": 53880, "pitch": 48, "duration": 340, "velocity": 110}, {"time": 53880, "pitch": 60, "duration": 340, "velocity": 120}, {"time": 53880, "pitch": 63, "duration": 340, "velocity": 110}, {"time": 53890, "pitch": 67, "duration": 340, "velocity": 120}, {"time": 54240, "pitch": 50, "duration": 220, "velocity": 100}, {"time": 54240, "pitch": 62, "duration": 100, "velocity": 85}, {"time": 54240, "pitch": 65, "duration": 100, "velocity": 75}, {"time": 54250, "pitch": 69, "duration": 100, "velocity": 85}, {"time": 54480, "pitch": 50, "duration": 240, "velocity": 90}, {"time": 54480, "pitch": 62, "duration": 100, "velocity": 110}, {"time": 54480, "pitch": 69, "duration": 100, "velocity": 100}, {"time": 54490, "pitch": 65, "duration": 100, "velocity": 110}, {"time": 54720, "pitch": 50, "duration": 240, "velocity": 100}, {"time": 54720, "pitch": 62, "duration": 100, "velocity": 100}, {"time": 54720, "pitch": 65, "duration": 100, "velocity": 90}, {"time": 54730, "pitch": 69, "duration": 100, "velocity": 100}, {"time": 54960, "pitch": 48, "duration": 350, "velocity": 100}, {"time": 54960, "pitch": 60, "duration": 340, "velocity": 100}, {"time": 54960, "pitch": 63, "duration": 340, "velocity": 90}, {"time": 54970, "pitch": 67, "duration": 340, "velocity": 100}, {"time": 55320, "pitch": 48, "duration": 340, "velocity": 110}, {"time": 55320, "pitch": 60, "duration": 340, "velocity": 120}, {"time": 55320, "pitch": 63, "duration": 340, "velocity": 110}, {"time": 55330, "pitch": 67, "duration": 340, "velocity": 120}, {"time": 55680, "pitch": 50, "duration": 220, "velocity": 100}, {"time": 55680, "pitch": 62, "duration": 100, "velocity": 85}, {"time": 55680, "pitch": 65, "duration": 100, "velocity": 75}, {"time": 55690, "pitch": 69, "duration": 100, "velocity": 85}, {"time": 55920, "pitch": 50, "duration": 120, "velocity": 100}, {"time": 55920, "pitch": 62, "duration": 100, "velocity": 90}, {"time": 55920, "pitch": 65, "duration": 100, "velocity": 90}, {"time": 55930, "pitch": 70, "duration": 100, "velocity": 100}, {"time": 56400, "pitch": 48, "duration": 350, "velocity": 100}, {"time": 56400, "pitch": 60, "duration": 340, "velocity": 100}, {"time": 56400, "pitch": 63, "duration": 340, "velocity": 90}, {"time": 56410, "pitch": 67, "duration": 340, "velocity": 100}, {"time": 56760, "pitch": 48, "duration": 340, "velocity": 110}, {"time": 56760, "pitch": 60, "duration": 340, "velocity": 120}, {"time": 56760, "pitch": 63, "duration": 340, "velocity": 110}, {"time": 56770, "pitch": 67, "duration": 340, "velocity": 120}, {"time": 57120, "pitch": 50, "duration": 220, "velocity": 100}, {"time": 57120, "pitch": 62, "duration": 100, "velocity": 85}, {"time": 57120, "pitch": 65, "duration": 100, "velocity": 75}, {"time": 57130, "pitch": 69, "duration": 100, "velocity": 85}, {"time": 57360, "pitch": 50, "duration": 240, "velocity": 90}, {"time": 57360, "pitch": 62, "duration": 100, "velocity": 110}, {"time": 57360, "pitch": 69, "duration": 100, "velocity": 100}, {"time": 57370, "pitch": 65, "duration": 100, "velocity": 110}, {"time": 57600, "pitch": 50, "duration": 240, "velocity": 100}, {"time": 57600, "pitch": 62, "duration": 100, "velocity": 100}, {"time": 57600, "pitch": 65, "duration": 100, "velocity": 90}, {"time": 57610, "pitch": 69, "duration": 100, "velocity": 100}, {"time": 57840, "pitch": 43, "duration": 340, "velocity": 100}, {"time": 57840, "pitch": 62, "duration": 340, "velocity": 100}, {"time": 57840, "pitch": 65, "duration": 340, "velocity": 90}, {"time": 57850, "pitch": 69, "duration": 340, "velocity": 100}, {"time": 58200, "pitch": 50, "duration": 340, "velocity": 110}, {"time": 58200, "pitch": 62, "duration": 340, "velocity": 120}, {"time": 58200, "pitch": 65, "duration": 340, "velocity": 110}, {"time": 58210, "pitch": 69, "duration": 340, "velocity": 120}, {"time": 58560, "pitch": 43, "duration": 220, "velocity": 100}, {"time": 58560, "pitch": 62, "duration": 340, "velocity": 100}, {"time": 58560, "pitch": 65, "duration": 340, "velocity": 90}, {"time": 58570, "pitch": 70, "duration": 380, "velocity": 110}, {"time": 58800, "pitch": 43, "duration": 220, "velocity": 90}, {"time": 58920, "pitch": 69, "duration": 140, "velocity": 110}, {"time": 59040, "pitch": 50, "duration": 220, "velocity": 100}, {"time": 59040, "pitch": 67, "duration": 140, "velocity": 100}, {"time": 59160, "pitch": 65, "duration": 100, "velocity": 100}, {"time": 59280, "pitch": 51, "duration": 680, "velocity": 100}, {"time": 59280, "pitch": 60, "duration": 340, "velocity": 110}, {"time": 59280, "pitch": 63, "duration": 340, "velocity": 90}, {"time": 59290, "pitch": 67, "duration": 340, "velocity": 110}, {"time": 59640, "pitch": 60, "duration": 340, "velocity": 110}, {"time": 59640, "pitch": 63, "duration": 340, "velocity": 100}, {"time": 59650, "pitch": 67, "duration": 340, "velocity": 110}, {"time": 60000, "pitch": 53, "duration": 680, "velocity": 90}, {"time": 60000, "pitch": 62, "duration": 100, "velocity": 95}, {"time": 60000, "pitch": 65, "duration": 100, "velocity": 85}, {"time": 60010, "pitch": 69, "duration": 100, "velocity": 95}, {"time": 60240, "pitch": 62, "duration": 200, "velocity": 110}, {"time": 60240, "pitch": 69, "duration": 200, "velocity": 100}, {"time": 60250, "pitch": 65, "duration": 200, "velocity": 110}, {"time": 60480, "pitch": 62, "duration": 200, "velocity": 100}, {"time": 60480, "pitch": 65, "duration": 200, "velocity": 90}, {"time": 60490, "pitch": 69, "duration": 200, "velocity": 100}, {"time": 60720, "pitch": 46, "duration": 680, "velocity": 100}, {"time": 60720, "pitch": 58, "duration": 340, "velocity": 110}, {"time": 60720, "pitch": 62, "duration": 340, "velocity": 90}, {"time": 60730, "pitch": 65, "duration": 340, "velocity": 110}, {"time": 61080, "pitch": 58, "duration": 340, "velocity": 110}, {"time": 61080, "pitch": 62, "duration": 340, "velocity": 100}, {"time": 61090, "pitch": 65, "duration": 340, "velocity": 110}, {"time": 61440, "pitch": 46, "duration": 680, "velocity": 90}, {"time": 61440, "pitch": 65, "duration": 130, "velocity": 100}, {"time": 61560, "pitch": 58, "duration": 130, "velocity": 90}, {"time": 61680, "pitch": 62, "duration": 130, "velocity": 110}, {"time": 61800, "pitch": 65, "duration": 130, "velocity": 115}, {"time": 61920, "pitch": 62, "duration": 130, "velocity": 107}, {"time": 62040, "pitch": 58, "duration": 110, "velocity": 100}, {"time": 62160, "pitch": 48, "duration": 680, "velocity": 100}, {"time": 62160, "pitch": 60, "duration": 340, "velocity": 110}, {"time": 62160, "pitch": 63, "duration": 340, "velocity": 100}, {"time": 62170, "pitch": 67, "duration": 340, "velocity": 110}, {"time": 62520, "pitch": 60, "duration": 340, "velocity": 110}, {"time": 62520, "pitch": 63, "duration": 340, "velocity": 100}, {"time": 62530, "pitch": 67, "duration": 340, "velocity": 110}, {"time": 62880, "pitch": 50, "duration": 680, "velocity": 90}, {"time": 62880, "pitch": 62, "duration": 200, "velocity": 95}, {"time": 62880, "pitch": 65, "duration": 200, "velocity": 85}, {"time": 62890, "pitch": 69, "duration": 200, "velocity": 95}, {"time": 63120, "pitch": 62, "duration": 100, "velocity": 110}, {"time": 63120, "pitch": 69, "duration": 100, "velocity": 100}, {"time": 63130, "pitch": 65, "duration": 100, "velocity": 110}, {"time": 63360, "pitch": 62, "duration": 100, "velocity": 100}, {"time": 63360, "pitch": 69, "duration": 100, "velocity": 90}, {"time": 63370, "pitch": 65, "duration": 100, "velocity": 100}, {"time": 63600, "pitch": 43, "duration": 680, "velocity": 100}, {"time": 63600, "pitch": 55, "duration": 340, "velocity": 100}, {"time": 63600, "pitch": 58, "duration": 340, "velocity": 90}, {"time": 63610, "pitch": 62, "duration": 340, "velocity": 100}, {"time": 63960, "pitch": 55, "duration": 340, "velocity": 110}, {"time": 63960, "pitch": 58, "duration": 340, "velocity": 100}, {"time": 63970, "pitch": 62, "duration": 340, "velocity": 110}, {"time": 64320, "pitch": 43, "duration": 680, "velocity": 90}, {"time": 64320, "pitch": 62, "duration": 340, "velocity": 113}, {"time": 64320, "pitch": 67, "duration": 340, "velocity": 100}, {"time": 64320, "pitch": 70, "duration": 340, "velocity": 100}, {"time": 64680, "pitch": 67, "duration": 340, "velocity": 105}, {"time": 64680, "pitch": 70, "duration": 340, "velocity": 107}, {"time": 64680, "pitch": 74, "duration": 340, "velocity": 120}, {"time": 65040, "pitch": 51, "duration": 240, "velocity": 100}, {"time": 65040, "pitch": 60, "duration": 340, "velocity": 110}, {"time": 65040, "pitch": 63, "duration": 340, "velocity": 100}, {"time": 65050, "pitch": 67, "duration": 340, "velocity": 110}, {"time": 65400, "pitch": 51, "duration": 240, "velocity": 100}, {"time": 65400, "pitch": 60, "duration": 340, "velocity": 110}, {"time": 65400, "pitch": 63, "duration": 340, "velocity": 100}, {"time": 65410, "pitch": 67, "duration": 340, "velocity": 110}, {"time": 65760, "pitch": 53, "duration": 150, "velocity": 90}, {"time": 65760, "pitch": 62, "duration": 200, "velocity": 95}, {"time": 65760, "pitch": 65, "duration": 200, "velocity": 85}, {"time": 65770, "pitch": 69, "duration": 200, "velocity": 95}, {"time": 66000, "pitch": 53, "duration": 150, "velocity": 90}, {"time": 66000, "pitch": 62, "duration": 100, "velocity": 110}, {"time": 66000, "pitch": 69, "duration": 100, "velocity": 100}, {"time": 66010, "pitch": 65, "duration": 100, "velocity": 110}, {"time": 66240, "pitch": 53, "duration": 220, "velocity": 90}, {"time": 66240, "pitch": 62, "duration": 100, "velocity": 100}, {"time": 66240, "pitch": 69, "duration": 100, "velocity": 90}, {"time": 66250, "pitch": 65, "duration": 100, "velocity": 100}, {"time": 66480, "pitch": 46, "duration": 240, "velocity": 100}, {"time": 66480, "pitch": 58, "duration": 340, "velocity": 100}, {"time": 66480, "pitch": 62, "duration": 340, "velocity": 90}, {"time": 66490, "pitch": 65, "duration": 340, "velocity": 100}, {"time": 66840, "pitch": 53, "duration": 240, "velocity": 100}, {"time": 66840, "pitch": 58, "duration": 340, "velocity": 120}, {"time": 66840, "pitch": 62, "duration": 340, "velocity": 110}, {"time": 66850, "pitch": 65, "duration": 340, "velocity": 120}, {"time": 67200, "pitch": 46, "duration": 150, "velocity": 110}, {"time": 67200, "pitch": 65, "duration": 130, "velocity": 100}, {"time": 67320, "pitch": 58, "duration": 130, "velocity": 90}, {"time": 67440, "pitch": 48, "duration": 150, "velocity": 100}, {"time": 67440, "pitch": 62, "duration": 130, "velocity": 110}, {"time": 67560, "pitch": 65, "duration": 130, "velocity": 115}, {"time": 67680, "pitch": 50, "duration": 260, "velocity": 90}, {"time": 67680, "pitch": 62, "duration": 130, "velocity": 107}, {"time": 67800, "pitch": 58, "duration": 130, "velocity": 100}, {"time": 67920, "pitch": 48, "duration": 340, "velocity": 100}, {"time": 67920, "pitch": 60, "duration": 340, "velocity": 100}, {"time": 67920, "pitch": 63, "duration": 340, "velocity": 90}, {"time": 67930, "pitch": 67, "duration": 340, "velocity": 100}, {"time": 68280, "pitch": 48, "duration": 340, "velocity": 110}, {"time": 68280, "pitch": 60, "duration": 340, "velocity": 120}, {"time": 68280, "pitch": 63, "duration": 340, "velocity": 110}, {"time": 68290, "pitch": 67, "duration": 340, "velocity": 120}, {"time": 68640, "pitch": 50, "duration": 150, "velocity": 110}, {"time": 68640, "pitch": 62, "duration": 100, "velocity": 88}, {"time": 68640, "pitch": 65, "duration": 100, "velocity": 78}, {"time": 68650, "pitch": 69, "duration": 100, "velocity": 88}, {"time": 68880, "pitch": 51, "duration": 150, "velocity": 100}, {"time": 68880, "pitch": 62, "duration": 100, "velocity": 110}, {"time": 68880, "pitch": 69, "duration": 100, "velocity": 100}, {"time": 68890, "pitch": 65, "duration": 100, "velocity": 110}, {"time": 69120, "pitch": 53, "duration": 240, "velocity": 90}, {"time": 69120, "pitch": 62, "duration": 100, "velocity": 100}, {"time": 69120, "pitch": 69, "duration": 100, "velocity": 90}, {"time": 69130, "pitch": 65, "duration": 100, "velocity": 100}, {"time": 69360, "pitch": 51, "duration": 340, "velocity": 108}, {"time": 69360, "pitch": 60, "duration": 250, "velocity": 100}, {"time": 69360, "pitch": 63, "duration": 250, "velocity": 90}, {"time": 69370, "pitch": 67, "duration": 250, "velocity": 100}, {"time": 69600, "pitch": 55, "duration": 130, "velocity": 110}, {"time": 69720, "pitch": 51, "duration": 340, "velocity": 90}, {"time": 69720, "pitch": 60, "duration": 130, "velocity": 110}, {"time": 69840, "pitch": 63, "duration": 130, "velocity": 120}, {"time": 69960, "pitch": 67, "duration": 130, "velocity": 100}, {"time": 70080, "pitch": 53, "duration": 220, "velocity": 107}, {"time": 70080, "pitch": 60, "duration": 220, "velocity": 100}, {"time": 70080, "pitch": 65, "duration": 220, "velocity": 110}, {"time": 70090, "pitch": 69, "duration": 220, "velocity": 115}, {"time": 70320, "pitch": 53, "duration": 120, "velocity": 90}, {"time": 70320, "pitch": 60, "duration": 120, "velocity": 100}, {"time": 70320, "pitch": 65, "duration": 120, "velocity": 110}, {"time": 70330, "pitch": 70, "duration": 120, "velocity": 125}, {"time": 103440, "pitch": 58, "duration": 450, "velocity": 100}, {"time": 103440, "pitch": 62, "duration": 450, "velocity": 110}, {"time": 103440, "pitch": 65, "duration": 450, "velocity": 105}, {"time": 103450, "pitch": 70, "duration": 450, "velocity": 120}, {"time": 103920, "pitch": 60, "duration": 700, "velocity": 100}, {"time": 103920, "pitch": 63, "duration": 340, "velocity": 90}, {"time": 103930, "pitch": 67, "duration": 340, "velocity": 100}, {"time": 104280, "pitch": 63, "duration": 340, "velocity": 110}, {"time": 104290, "pitch": 67, "duration": 340, "velocity": 120}, {"time": 104640, "pitch": 62, "duration": 340, "velocity": 100}, {"time": 104640, "pitch": 65, "duration": 100, "velocity": 90}, {"time": 104650, "pitch": 69, "duration": 100, "velocity": 100}, {"time": 104880, "pitch": 69, "duration": 100, "velocity": 100}, {"time": 104890, "pitch": 65, "duration": 100, "velocity": 110}, {"time": 105120, "pitch": 58, "duration": 100, "velocity": 100}, {"time": 105120, "pitch": 62, "duration": 100, "velocity": 90}, {"time": 105130, "pitch": 65, "duration": 100, "velocity": 100}, {"time": 105360, "pitch": 55, "duration": 700, "velocity": 100}, {"time": 105360, "pitch": 58, "duration": 340, "velocity": 90}, {"time": 105370, "pitch": 62, "duration": 340, "velocity": 100}, {"time": 105720, "pitch": 58, "duration": 340, "velocity": 110}, {"time": 105730, "pitch": 62, "duration": 340, "velocity": 120}, {"time": 106080, "pitch": 55, "duration": 390, "velocity": 100}, {"time": 106080, "pitch": 62, "duration": 130, "velocity": 100}, {"time": 106320, "pitch": 58, "duration": 130, "velocity": 110}, {"time": 106440, "pitch": 62, "duration": 130, "velocity": 115}, {"time": 106560, "pitch": 50, "duration": 220, "velocity": 100}, {"time": 106560, "pitch": 58, "duration": 130, "velocity": 107}, {"time": 106680, "pitch": 55, "duration": 130, "velocity": 100}, {"time": 106800, "pitch": 60, "duration": 340, "velocity": 100}, {"time": 106800, "pitch": 63, "duration": 700, "velocity": 90}, {"time": 106810, "pitch": 67, "duration": 340, "velocity": 100}, {"time": 107160, "pitch": 60, "duration": 340, "velocity": 120}, {"time": 107170, "pitch": 67, "duration": 340, "velocity": 120}, {"time": 107520, "pitch": 62, "duration": 100, "velocity": 100}, {"time": 107520, "pitch": 65, "duration": 350, "velocity": 90}, {"time": 107530, "pitch": 69, "duration": 100, "velocity": 100}, {"time": 107760, "pitch": 62, "duration": 100, "velocity": 110}, {"time": 107760, "pitch": 69, "duration": 100, "velocity": 100}, {"time": 108000, "pitch": 62, "duration": 100, "velocity": 100}, {"time": 108000, "pitch": 65, "duration": 100, "velocity": 90}, {"time": 108010, "pitch": 57, "duration": 100, "velocity": 100}, {"time": 108240, "pitch": 58, "duration": 700, "velocity": 100}, {"time": 108240, "pitch": 62, "duration": 340, "velocity": 90}, {"time": 108250, "pitch": 65, "duration": 340, "velocity": 100}, {"time": 108600, "pitch": 62, "duration": 340, "velocity": 110}, {"time": 108610, "pitch": 65, "duration": 340, "velocity": 120}, {"time": 108960, "pitch": 58, "duration": 250, "velocity": 110}, {"time": 108960, "pitch": 65, "duration": 130, "velocity": 100}, {"time": 109200, "pitch": 60, "duration": 150, "velocity": 100}, {"time": 109200, "pitch": 62, "duration": 130, "velocity": 110}, {"time": 109320, "pitch": 65, "duration": 130, "velocity": 115}, {"time": 109440, "pitch": 62, "duration": 260, "velocity": 107}, {"time": 109560, "pitch": 58, "duration": 130, "velocity": 100}, {"time": 109680, "pitch": 48, "duration": 680, "velocity": 100}, {"time": 109680, "pitch": 60, "duration": 340, "velocity": 100}, {"time": 109680, "pitch": 63, "duration": 340, "velocity": 90}, {"time": 109690, "pitch": 67, "duration": 340, "velocity": 100}, {"time": 110040, "pitch": 60, "duration": 340, "velocity": 120}, {"time": 110040, "pitch": 63, "duration": 340, "velocity": 110}, {"time": 110050, "pitch": 67, "duration": 340, "velocity": 120}, {"time": 110400, "pitch": 50, "duration": 150, "velocity": 110}, {"time": 110400, "pitch": 62, "duration": 100, "velocity": 100}, {"time": 110400, "pitch": 65, "duration": 100, "velocity": 90}, {"time": 110410, "pitch": 69, "duration": 100, "velocity": 100}, {"time": 110640, "pitch": 51, "duration": 150, "velocity": 100}, {"time": 110640, "pitch": 62, "duration": 100, "velocity": 110}, {"time": 110640, "pitch": 69, "duration": 100, "velocity": 100}, {"time": 110650, "pitch": 65, "duration": 100, "velocity": 110}, {"time": 110880, "pitch": 53, "duration": 260, "velocity": 90}, {"time": 110880, "pitch": 58, "duration": 100, "velocity": 100}, {"time": 110880, "pitch": 62, "duration": 100, "velocity": 90}, {"time": 110890, "pitch": 65, "duration": 100, "velocity": 100}, {"time": 111120, "pitch": 51, "duration": 220, "velocity": 108}, {"time": 111120, "pitch": 60, "duration": 250, "velocity": 100}, {"time": 111120, "pitch": 63, "duration": 250, "velocity": 90}, {"time": 111130, "pitch": 67, "duration": 250, "velocity": 100}, {"time": 111360, "pitch": 55, "duration": 130, "velocity": 110}, {"time": 111360, "pitch": 58, "duration": 220, "velocity": 90}, {"time": 111480, "pitch": 60, "duration": 130, "velocity": 110}, {"time": 111600, "pitch": 63, "duration": 220, "velocity": 120}, {"time": 111720, "pitch": 67, "duration": 130, "velocity": 100}, {"time": 111840, "pitch": 53, "duration": 260, "velocity": 107}, {"time": 111840, "pitch": 60, "duration": 220, "velocity": 100}, {"time": 111840, "pitch": 65, "duration": 220, "velocity": 110}, {"time": 111850, "pitch": 69, "duration": 220, "velocity": 105}, {"time": 112080, "pitch": 60, "duration": 120, "velocity": 100}, {"time": 112080, "pitch": 65, "duration": 120, "velocity": 110}, {"time": 112090, "pitch": 70, "duration": 120, "velocity": 105}], "annotations": [{"time": 960, "annotation": {"number": 0, "value": 8}, "group": "control_change"}, {"time": 970, "annotation": {"number": 32, "value": 0}, "group": "control_change"}, {"time": 990, "annotation": {"number": 7, "value": 100}, "group": "control_change"}, {"time": 1000, "annotation": {"number": 11, "value": 100}, "group": "control_change"}, {"time": 1010, "annotation": {"number": 10, "value": 74}, "group": "control_change"}, {"time": 1020, "annotation": {"number": 91, "value": 70}, "group": "control_change"}, {"time": 1030, "annotation": {"number": 93, "value": 0}, "group": "control_change"}, {"time": 1040, "annotation": {"number": 101, "value": 0}, "group": "control_change"}, {"time": 1050, "annotation": {"number": 100, "value": 0}, "group": "control_change"}, {"time": 1060, "annotation": {"number": 6, "value": 12}, "group": "control_change"}, {"time": 1070, "annotation": {"number": 101, "value": 127}, "group": "control_change"}, {"time": 1080, "annotation": {"number": 100, "value": 127}, "group": "control_change"}, {"time": 24720, "annotation": {"number": 64, "value": 127}, "group": "control_change"}, {"time": 25330, "annotation": {"number": 64, "value": 0}, "group": "control_change"}, {"time": 25680, "annotation": {"number": 64, "value": 127}, "group": "control_change"}, {"time": 26040, "annotation": {"number": 64, "value": 0}, "group": "control_change"}, {"time": 26160, "annotation": {"number": 64, "value": 127}, "group": "control_change"}, {"time": 26770, "annotation": {"number": 64, "value": 0}, "group": "control_change"}, {"time": 27600, "annotation": {"number": 64, "value": 127}, "group": "control_change"}, {"time": 28210, "annotation": {"number": 64, "value": 0}, "group": "control_change"}, {"time": 28560, "annotation": {"number": 64, "value": 127}, "group": "control_change"}, {"time": 29030, "annotation": {"number": 64, "value": 0}, "group": "control_change"}, {"time": 29040, "annotation": {"number": 64, "value": 127}, "group": "control_change"}, {"time": 30360, "annotation": {"number": 64, "value": 0}, "group": "control_change"}, {"time": 30840, "annotation": {"number": 64, "value": 127}, "group": "control_change"}, {"time": 31090, "annotation": {"number": 64, "value": 0}, "group": "control_change"}, {"time": 31440, "annotation": {"number": 64, "value": 127}, "group": "control_change"}, {"time": 31910, "annotation": {"number": 64, "value": 0}, "group": "control_change"}, {"time": 31920, "annotation": {"number": 64, "value": 127}, "group": "control_change"}, {"time": 32530, "annotation": {"number": 64, "value": 0}, "group": "control_change"}, {"time": 33360, "annotation": {"number": 64, "value": 127}, "group": "control_change"}, {"time": 33970, "annotation": {"number": 64, "value": 0}, "group": "control_change"}, {"time": 34320, "annotation": {"number": 64, "value": 127}, "group": "control_change"}, {"time": 34790, "annotation": {"number": 64, "value": 0}, "group": "control_change"}, {"time": 34800, "annotation": {"number": 64, "value": 127}, "group": "control_change"}, {"time": 36120, "annotation": {"number": 64, "value": 0}, "group": "control_change"}, {"time": 36240, "annotation": {"number": 64, "value": 127}, "group": "control_change"}, {"time": 36850, "annotation": {"number": 64, "value": 0}, "group": "control_change"}, {"time": 37200, "annotation": {"number": 64, "value": 127}, "group": "control_change"}, {"time": 37660, "annotation": {"number": 64, "value": 0}, "group": "control_change"}, {"time": 37680, "annotation": {"number": 64, "value": 127}, "group": "control_change"}, {"time": 39000, "annotation": {"number": 64, "value": 0}, "group": "control_change"}, {"time": 39480, "annotation": {"number": 64, "value": 127}, "group": "control_change"}, {"time": 39730, "annotation": {"number": 64, "value": 0}, "group": "control_change"}, {"time": 40080, "annotation": {"number": 64, "value": 127}, "group": "control_change"}, {"time": 40540, "annotation": {"number": 64, "value": 0}, "group": "control_change"}, {"time": 40560, "annotation": {"number": 64, "value": 127}, "group": "control_change"}, {"time": 41180, "annotation": {"number": 64, "value": 0}, "group": "control_change"}, {"time": 42360, "annotation": {"number": 64, "value": 127}, "group": "control_change"}, {"time": 42610, "annotation": {"number": 64, "value": 0}, "group": "control_change"}, {"time": 42960, "annotation": {"number": 64, "value": 127}, "group": "control_change"}, {"time": 43420, "annotation": {"number": 64, "value": 0}, "group": "control_change"}, {"time": 43440, "annotation": {"number": 64, "value": 127}, "group": "control_change"}, {"time": 44760, "annotation": {"number": 64, "value": 0}, "group": "control_change"}, {"time": 45240, "annotation": {"number": 64, "value": 127}, "group": "control_change"}, {"time": 45490, "annotation": {"number": 64, "value": 0}, "group": "control_change"}, {"time": 45840, "annotation": {"number": 64, "value": 127}, "group": "control_change"}, {"time": 46300, "annotation": {"number": 64, "value": 0}, "group": "control_change"}, {"time": 46320, "annotation": {"number": 64, "value": 127}, "group": "control_change"}, {"time": 46920, "annotation": {"number": 64, "value": 0}, "group": "control_change"}, {"time": 47410, "annotation": {"number": 64, "value": 0}, "group": "control_change"}, {"time": 47760, "annotation": {"number": 64, "value": 127}, "group": "control_change"}, {"time": 48370, "annotation": {"number": 64, "value": 0}, "group": "control_change"}, {"time": 48720, "annotation": {"number": 64, "value": 127}, "group": "control_change"}, {"time": 49080, "annotation": {"number": 64, "value": 0}, "group": "control_change"}, {"time": 49200, "annotation": {"number": 64, "value": 127}, "group": "control_change"}, {"time": 49810, "annotation": {"number": 64, "value": 0}, "group": "control_change"}, {"time": 50640, "annotation": {"number": 64, "value": 127}, "group": "control_change"}, {"time": 51250, "annotation": {"number": 64, "value": 0}, "group": "control_change"}, {"time": 51600, "annotation": {"number": 64, "value": 127}, "group": "control_change"}, {"time": 52070, "annotation": {"number": 64, "value": 0}, "group": "control_change"}, {"time": 52080, "annotation": {"number": 64, "value": 127}, "group": "control_change"}, {"time": 53400, "annotation": {"number": 64, "value": 0}, "group": "control_change"}, {"time": 53880, "annotation": {"number": 64, "value": 127}, "group": "control_change"}, {"time": 54130, "annotation": {"number": 64, "value": 0}, "group": "control_change"}, {"time": 54480, "annotation": {"number": 64, "value": 127}, "group": "control_change"}, {"time": 54950, "annotation": {"number": 64, "value": 0}, "group": "control_change"}, {"time": 54960, "annotation": {"number": 64, "value": 127}, "group": "control_change"}, {"time": 55570, "annotation": {"number": 64, "value": 0}, "group": "control_change"}, {"time": 56400, "annotation": {"number": 64, "value": 127}, "group": "control_change"}, {"time": 57010, "annotation": {"number": 64, "value": 0}, "group": "control_change"}, {"time": 57360, "annotation": {"number": 64, "value": 127}, "group": "control_change"}, {"time": 57830, "annotation": {"number": 64, "value": 0}, "group": "control_change"}, {"time": 57840, "annotation": {"number": 64, "value": 127}, "group": "control_change"}, {"time": 59160, "annotation": {"number": 64, "value": 0}, "group": "control_change"}, {"time": 59280, "annotation": {"number": 64, "value": 127}, "group": "control_change"}, {"time": 59890, "annotation": {"number": 64, "value": 0}, "group": "control_change"}, {"time": 60240, "annotation": {"number": 64, "value": 127}, "group": "control_change"}, {"time": 60700, "annotation": {"number": 64, "value": 0}, "group": "control_change"}, {"time": 60720, "annotation": {"number": 64, "value": 127}, "group": "control_change"}, {"time": 62040, "annotation": {"number": 64, "value": 0}, "group": "control_change"}, {"time": 62520, "annotation": {"number": 64, "value": 127}, "group": "control_change"}, {"time": 62770, "annotation": {"number": 64, "value": 0}, "group": "control_change"}, {"time": 63120, "annotation": {"number": 64, "value": 127}, "group": "control_change"}, {"time": 63580, "annotation": {"number": 64, "value": 0}, "group": "control_change"}, {"time": 63600, "annotation": {"number": 64, "value": 127}, "group": "control_change"}, {"time": 64220, "annotation": {"number": 64, "value": 0}, "group": "control_change"}, {"time": 65400, "annotation": {"number": 64, "value": 127}, "group": "control_change"}, {"time": 65650, "annotation": {"number": 64, "value": 0}, "group": "control_change"}, {"time": 66000, "annotation": {"number": 64, "value": 127}, "group": "control_change"}, {"time": 66460, "annotation": {"number": 64, "value": 0}, "group": "control_change"}, {"time": 66480, "annotation": {"number": 64, "value": 127}, "group": "control_change"}, {"time": 67800, "annotation": {"number": 64, "value": 0}, "group": "control_change"}, {"time": 68280, "annotation": {"number": 64, "value": 127}, "group": "control_change"}, {"time": 68530, "annotation": {"number": 64, "value": 0}, "group": "control_change"}, {"time": 68880, "annotation": {"number": 64, "value": 127}, "group": "control_change"}, {"time": 69340, "annotation": {"number": 64, "value": 0}, "group": "control_change"}, {"time": 69360, "annotation": {"number": 64, "value": 127}, "group": "control_change"}, {"time": 69960, "annotation": {"number": 64, "value": 0}, "group": "control_change"}, {"time": 70450, "annotation": {"number": 64, "value": 0}, "group": "control_change"}]}, {"program": 0, "is_drum": false, "name": "GT SOLO", "annotations": [{"time": 960, "annotation": {"number": 0, "value": 0}, "group": "control_change"}, {"time": 970, "annotation": {"number": 32, "value": 0}, "group": "control_change"}]}, {"program": 30, "is_drum": false, "name": "GT SOLO", "notes": [{"time": 4320, "pitch": 67, "duration": 340, "velocity": 104}, {"time": 4680, "pitch": 70, "duration": 340, "velocity": 110}, {"time": 5040, "pitch": 69, "duration": 220, "velocity": 110}, {"time": 5280, "pitch": 65, "duration": 220, "velocity": 100}, {"time": 5520, "pitch": 67, "duration": 1150, "velocity": 100}, {"time": 6720, "pitch": 67, "duration": 340, "velocity": 104}, {"time": 7080, "pitch": 70, "duration": 340, "velocity": 110}, {"time": 7440, "pitch": 69, "duration": 220, "velocity": 110}, {"time": 7680, "pitch": 65, "duration": 220, "velocity": 100}, {"time": 7920, "pitch": 67, "duration": 340, "velocity": 100}, {"time": 8280, "pitch": 74, "duration": 800, "velocity": 110}, {"time": 9120, "pitch": 67, "duration": 340, "velocity": 104}, {"time": 9480, "pitch": 70, "duration": 340, "velocity": 110}, {"time": 9840, "pitch": 69, "duration": 220, "velocity": 110}, {"time": 10080, "pitch": 65, "duration": 220, "velocity": 100}, {"time": 10320, "pitch": 67, "duration": 1150, "velocity": 100}, {"time": 11520, "pitch": 67, "duration": 340, "velocity": 104}, {"time": 11880, "pitch": 70, "duration": 340, "velocity": 110}, {"time": 12240, "pitch": 69, "duration": 220, "velocity": 110}, {"time": 12480, "pitch": 65, "duration": 220, "velocity": 100}, {"time": 12720, "pitch": 67, "duration": 340, "velocity": 100}, {"time": 13080, "pitch": 74, "duration": 800, "velocity": 110}, {"time": 13920, "pitch": 67, "duration": 340, "velocity": 104}, {"time": 14280, "pitch": 70, "duration": 340, "velocity": 110}, {"time": 14640, "pitch": 69, "duration": 220, "velocity": 110}, {"time": 14880, "pitch": 65, "duration": 220, "velocity": 100}, {"time": 15120, "pitch": 67, "duration": 1150, "velocity": 100}, {"time": 16320, "pitch": 67, "duration": 340, "velocity": 104}, {"time": 16680, "pitch": 70, "duration": 340, "velocity": 110}, {"time": 17040, "pitch": 69, "duration": 220, "velocity": 110}, {"time": 17280, "pitch": 65, "duration": 220, "velocity": 100}, {"time": 17520, "pitch": 67, "duration": 340, "velocity": 100}, {"time": 17880, "pitch": 74, "duration": 800, "velocity": 110}, {"time": 18720, "pitch": 67, "duration": 340, "velocity": 104}, {"time": 19080, "pitch": 70, "duration": 340, "velocity": 110}, {"time": 19440, "pitch": 69, "duration": 220, "velocity": 110}, {"time": 19680, "pitch": 65, "duration": 220, "velocity": 100}, {"time": 19920, "pitch": 67, "duration": 1150, "velocity": 100}, {"time": 21120, "pitch": 67, "duration": 340, "velocity": 104}, {"time": 21480, "pitch": 70, "duration": 340, "velocity": 110}, {"time": 21840, "pitch": 69, "duration": 220, "velocity": 110}, {"time": 22080, "pitch": 65, "duration": 220, "velocity": 100}, {"time": 22320, "pitch": 67, "duration": 340, "velocity": 100}, {"time": 22680, "pitch": 74, "duration": 1990, "velocity": 110}, {"time": 80400, "pitch": 69, "duration": 840, "velocity": 110}, {"time": 81240, "pitch": 69, "duration": 240, "velocity": 110}, {"time": 81480, "pitch": 69, "duration": 240, "velocity": 110}, {"time": 81720, "pitch": 69, "duration": 240, "velocity": 110}, {"time": 81960, "pitch": 69, "duration": 240, "velocity": 110}, {"time": 82200, "pitch": 69, "duration": 240, "velocity": 110}, {"time": 82440, "pitch": 69, "duration": 240, "velocity": 110}, {"time": 82680, "pitch": 69, "duration": 1060, "velocity": 110}, {"time": 83760, "pitch": 67, "duration": 120, "velocity": 110}, {"time": 83880, "pitch": 65, "duration": 100, "velocity": 100}, {"time": 84000, "pitch": 67, "duration": 340, "velocity": 110}, {"time": 84360, "pitch": 67, "duration": 590, "velocity": 100}, {"time": 84960, "pitch": 65, "duration": 120, "velocity": 100}, {"time": 85080, "pitch": 67, "duration": 120, "velocity": 100}, {"time": 85200, "pitch": 69, "duration": 940, "velocity": 110}, {"time": 86160, "pitch": 67, "duration": 120, "velocity": 110}, {"time": 86280, "pitch": 65, "duration": 100, "velocity": 100}, {"time": 86400, "pitch": 62, "duration": 1200, "velocity": 110}, {"time": 87600, "pitch": 57, "duration": 470, "velocity": 110}, {"time": 88080, "pitch": 57, "duration": 120, "velocity": 100}, {"time": 88200, "pitch": 55, "duration": 120, "velocity": 100}, {"time": 88320, "pitch": 57, "duration": 220, "velocity": 110}, {"time": 88560, "pitch": 65, "duration": 120, "velocity": 100}, {"time": 88680, "pitch": 58, "duration": 1260, "velocity": 100}, {"time": 90000, "pitch": 75, "duration": 240, "velocity": 120}, {"time": 90240, "pitch": 74, "duration": 360, "velocity": 120}, {"time": 90600, "pitch": 74, "duration": 120, "velocity": 120}, {"time": 90720, "pitch": 77, "duration": 240, "velocity": 120}, {"time": 90960, "pitch": 79, "duration": 150, "velocity": 120}, {"time": 91200, "pitch": 73, "duration": 240, "velocity": 120}, {"time": 91440, "pitch": 72, "duration": 240, "velocity": 120}, {"time": 91680, "pitch": 67, "duration": 160, "velocity": 120}, {"time": 91840, "pitch": 62, "duration": 80, "velocity": 120}, {"time": 91920, "pitch": 58, "duration": 180, "velocity": 120}, {"time": 92100, "pitch": 63, "duration": 180, "velocity": 120}, {"time": 92280, "pitch": 66, "duration": 180, "velocity": 120}, {"time": 92460, "pitch": 71, "duration": 300, "velocity": 120}, {"time": 92760, "pitch": 70, "duration": 180, "velocity": 120}, {"time": 92940, "pitch": 77, "duration": 240, "velocity": 120}, {"time": 93180, "pitch": 75, "duration": 240, "velocity": 120}, {"time": 93420, "pitch": 72, "duration": 180, "velocity": 120}, {"time": 93600, "pitch": 77, "duration": 360, "velocity": 120}, {"time": 93960, "pitch": 76, "duration": 240, "velocity": 120}, {"time": 94200, "pitch": 71, "duration": 120, "velocity": 120}, {"time": 94320, "pitch": 66, "duration": 420, "velocity": 120}, {"time": 94800, "pitch": 67, "duration": 240, "velocity": 120}, {"time": 95040, "pitch": 62, "duration": 240, "velocity": 120}, {"time": 95280, "pitch": 65, "duration": 180, "velocity": 120}, {"time": 95460, "pitch": 63, "duration": 60, "velocity": 120}, {"time": 95520, "pitch": 63, "duration": 240, "velocity": 120}, {"time": 95760, "pitch": 68, "duration": 240, "velocity": 120}, {"time": 96120, "pitch": 73, "duration": 80, "velocity": 120}, {"time": 96200, "pitch": 77, "duration": 80, "velocity": 120}, {"time": 96280, "pitch": 75, "duration": 440, "velocity": 120}, {"time": 96720, "pitch": 72, "duration": 120, "velocity": 120}, {"time": 96840, "pitch": 70, "duration": 300, "velocity": 120}, {"time": 97200, "pitch": 82, "duration": 160, "velocity": 120}, {"time": 97360, "pitch": 75, "duration": 80, "velocity": 120}, {"time": 97440, "pitch": 73, "duration": 160, "velocity": 120}, {"time": 97600, "pitch": 78, "duration": 80, "velocity": 120}, {"time": 97680, "pitch": 82, "duration": 160, "velocity": 120}, {"time": 97840, "pitch": 75, "duration": 80, "velocity": 120}, {"time": 97920, "pitch": 82, "duration": 270, "velocity": 120}, {"time": 98400, "pitch": 84, "duration": 360, "velocity": 120}, {"time": 98760, "pitch": 84, "duration": 360, "velocity": 120}, {"time": 99120, "pitch": 84, "duration": 470, "velocity": 120}, {"time": 131760, "pitch": 79, "duration": 1200, "velocity": 110}, {"time": 132960, "pitch": 79, "duration": 360, "velocity": 110}, {"time": 133320, "pitch": 79, "duration": 100, "velocity": 110}, {"time": 133440, "pitch": 81, "duration": 120, "velocity": 120}, {"time": 133560, "pitch": 77, "duration": 100, "velocity": 110}, {"time": 133680, "pitch": 79, "duration": 120, "velocity": 115}, {"time": 133800, "pitch": 77, "duration": 100, "velocity": 104}, {"time": 133920, "pitch": 74, "duration": 240, "velocity": 114}, {"time": 134160, "pitch": 74, "duration": 240, "velocity": 114}, {"time": 134400, "pitch": 74, "duration": 240, "velocity": 114}, {"time": 134640, "pitch": 74, "duration": 240, "velocity": 114}, {"time": 134880, "pitch": 74, "duration": 240, "velocity": 114}, {"time": 135120, "pitch": 74, "duration": 240, "velocity": 114}, {"time": 135360, "pitch": 74, "duration": 60, "velocity": 114}, {"time": 135420, "pitch": 73, "duration": 60, "velocity": 114}, {"time": 135480, "pitch": 72, "duration": 60, "velocity": 114}, {"time": 135540, "pitch": 70, "duration": 60, "velocity": 114}, {"time": 135600, "pitch": 73, "duration": 60, "velocity": 114}, {"time": 135660, "pitch": 72, "duration": 60, "velocity": 114}, {"time": 135720, "pitch": 70, "duration": 60, "velocity": 114}, {"time": 135780, "pitch": 67, "duration": 60, "velocity": 114}, {"time": 135840, "pitch": 70, "duration": 60, "velocity": 114}, {"time": 135900, "pitch": 72, "duration": 610, "velocity": 114}, {"time": 136680, "pitch": 65, "duration": 240, "velocity": 114}, {"time": 136920, "pitch": 75, "duration": 240, "velocity": 114}, {"time": 137160, "pitch": 67, "duration": 240, "velocity": 114}, {"time": 137400, "pitch": 77, "duration": 240, "velocity": 114}, {"time": 137640, "pitch": 69, "duration": 240, "velocity": 114}, {"time": 137880, "pitch": 79, "duration": 240, "velocity": 114}, {"time": 138120, "pitch": 70, "duration": 240, "velocity": 114}, {"time": 138360, "pitch": 81, "duration": 240, "velocity": 114}, {"time": 138600, "pitch": 72, "duration": 120, "velocity": 114}, {"time": 138720, "pitch": 79, "duration": 120, "velocity": 114}, {"time": 138840, "pitch": 81, "duration": 120, "velocity": 114}, {"time": 138960, "pitch": 84, "duration": 340, "velocity": 120}, {"time": 139320, "pitch": 82, "duration": 340, "velocity": 114}, {"time": 139680, "pitch": 82, "duration": 220, "velocity": 114}, {"time": 139920, "pitch": 81, "duration": 220, "velocity": 114}, {"time": 140160, "pitch": 86, "duration": 340, "velocity": 114}, {"time": 140520, "pitch": 86, "duration": 800, "velocity": 114}, {"time": 141360, "pitch": 67, "duration": 340, "velocity": 104}, {"time": 141720, "pitch": 70, "duration": 340, "velocity": 110}, {"time": 142080, "pitch": 69, "duration": 220, "velocity": 110}, {"time": 142320, "pitch": 65, "duration": 220, "velocity": 100}, {"time": 142560, "pitch": 67, "duration": 1150, "velocity": 100}, {"time": 143760, "pitch": 67, "duration": 340, "velocity": 104}, {"time": 144120, "pitch": 70, "duration": 340, "velocity": 110}, {"time": 144480, "pitch": 69, "duration": 220, "velocity": 110}, {"time": 144720, "pitch": 65, "duration": 220, "velocity": 100}, {"time": 144960, "pitch": 67, "duration": 340, "velocity": 100}, {"time": 145320, "pitch": 74, "duration": 800, "velocity": 110}, {"time": 146160, "pitch": 67, "duration": 340, "velocity": 104}, {"time": 146520, "pitch": 70, "duration": 340, "velocity": 110}, {"time": 146880, "pitch": 69, "duration": 220, "velocity": 110}, {"time": 147120, "pitch": 65, "duration": 220, "velocity": 100}, {"time": 147360, "pitch": 67, "duration": 1150, "velocity": 100}, {"time": 148560, "pitch": 67, "duration": 340, "velocity": 104}, {"time": 148920, "pitch": 70, "duration": 340, "velocity": 110}, {"time": 149280, "pitch": 69, "duration": 220, "velocity": 110}, {"time": 149520, "pitch": 65, "duration": 220, "velocity": 100}, {"time": 149760, "pitch": 67, "duration": 340, "velocity": 100}, {"time": 150120, "pitch": 74, "duration": 800, "velocity": 110}, {"time": 150960, "pitch": 67, "duration": 340, "velocity": 104}, {"time": 151320, "pitch": 70, "duration": 340, "velocity": 110}, {"time": 151680, "pitch": 69, "duration": 220, "velocity": 110}, {"time": 151920, "pitch": 67, "duration": 340, "velocity": 104}, {"time": 152280, "pitch": 70, "duration": 340, "velocity": 110}, {"time": 152640, "pitch": 69, "duration": 220, "velocity": 110}, {"time": 152880, "pitch": 65, "duration": 220, "velocity": 100}, {"time": 153120, "pitch": 67, "duration": 320, "velocity": 100}], "annotations": [{"time": 990, "annotation": {"number": 7, "value": 110}, "group": "control_change"}, {"time": 1000, "annotation": {"number": 11, "value": 100}, "group": "control_change"}, {"time": 1010, "annotation": {"number": 10, "value": 64}, "group": "control_change"}, {"time": 1020, "annotation": {"number": 91, "value": 70}, "group": "control_change"}, {"time": 1030, "annotation": {"number": 93, "value": 0}, "group": "control_change"}, {"time": 1040, "annotation": {"number": 101, "value": 0}, "group": "control_change"}, {"time": 1050, "annotation": {"number": 100, "value": 0}, "group": "control_change"}, {"time": 1060, "annotation": {"number": 6, "value": 12}, "group": "control_change"}, {"time": 1070, "annotation": {"number": 101, "value": 127}, "group": "control_change"}, {"time": 1080, "annotation": {"number": 100, "value": 127}, "group": "control_change"}, {"time": 5520, "annotation": {"number": 1, "value": 0}, "group": "control_change"}, {"time": 5880, "annotation": {"number": 1, "value": 10}, "group": "control_change"}, {"time": 5920, "annotation": {"number": 1, "value": 17}, "group": "control_change"}, {"time": 5960, "annotation": {"number": 1, "value": 22}, "group": "control_change"}, {"time": 6000, "annotation": {"number": 1, "value": 26}, "group": "control_change"}, {"time": 6040, "annotation": {"number": 1, "value": 29}, "group": "control_change"}, {"time": 6080, "annotation": {"number": 1, "value": 32}, "group": "control_change"}, {"time": 6120, "annotation": {"number": 1, "value": 34}, "group": "control_change"}, {"time": 6160, "annotation": {"number": 1, "value": 35}, "group": "control_change"}, {"time": 6200, "annotation": {"number": 1, "value": 36}, "group": "control_change"}, {"time": 6240, "annotation": {"number": 1, "value": 37}, "group": "control_change"}, {"time": 6280, "annotation": {"number": 1, "value": 38}, "group": "control_change"}, {"time": 6320, "annotation": {"number": 1, "value": 39}, "group": "control_change"}, {"time": 6440, "annotation": {"number": 1, "value": 40}, "group": "control_change"}, {"time": 6720, "annotation": {"number": 1, "value": 0}, "group": "control_change"}, {"time": 10320, "annotation": {"number": 1, "value": 0}, "group": "control_change"}, {"time": 10680, "annotation": {"number": 1, "value": 10}, "group": "control_change"}, {"time": 10720, "annotation": {"number": 1, "value": 17}, "group": "control_change"}, {"time": 10760, "annotation": {"number": 1, "value": 22}, "group": "control_change"}, {"time": 10800, "annotation": {"number": 1, "value": 26}, "group": "control_change"}, {"time": 10840, "annotation": {"number": 1, "value": 29}, "group": "control_change"}, {"time": 10880, "annotation": {"number": 1, "value": 32}, "group": "control_change"}, {"time": 10920, "annotation": {"number": 1, "value": 34}, "group": "control_change"}, {"time": 10960, "annotation": {"number": 1, "value": 35}, "group": "control_change"}, {"time": 11000, "annotation": {"number": 1, "value": 36}, "group": "control_change"}, {"time": 11040, "annotation": {"number": 1, "value": 37}, "group": "control_change"}, {"time": 11080, "annotation": {"number": 1, "value": 38}, "group": "control_change"}, {"time": 11120, "annotation": {"number": 1, "value": 39}, "group": "control_change"}, {"time": 11240, "annotation": {"number": 1, "value": 40}, "group": "control_change"}, {"time": 11520, "annotation": {"number": 1, "value": 0}, "group": "control_change"}, {"time": 15120, "annotation": {"number": 1, "value": 0}, "group": "control_change"}, {"time": 15480, "annotation": {"number": 1, "value": 10}, "group": "control_change"}, {"time": 15520, "annotation": {"number": 1, "value": 17}, "group": "control_change"}, {"time": 15560, "annotation": {"number": 1, "value": 22}, "group": "control_change"}, {"time": 15600, "annotation": {"number": 1, "value": 26}, "group": "control_change"}, {"time": 15640, "annotation": {"number": 1, "value": 29}, "group": "control_change"}, {"time": 15680, "annotation": {"number": 1, "value": 32}, "group": "control_change"}, {"time": 15720, "annotation": {"number": 1, "value": 34}, "group": "control_change"}, {"time": 15760, "annotation": {"number": 1, "value": 35}, "group": "control_change"}, {"time": 15800, "annotation": {"number": 1, "value": 36}, "group": "control_change"}, {"time": 15840, "annotation": {"number": 1, "value": 37}, "group": "control_change"}, {"time": 15880, "annotation": {"number": 1, "value": 38}, "group": "control_change"}, {"time": 15920, "annotation": {"number": 1, "value": 39}, "group": "control_change"}, {"time": 16040, "annotation": {"number": 1, "value": 40}, "group": "control_change"}, {"time": 16320, "annotation": {"number": 1, "value": 0}, "group": "control_change"}, {"time": 19920, "annotation": {"number": 1, "value": 0}, "group": "control_change"}, {"time": 20280, "annotation": {"number": 1, "value": 10}, "group": "control_change"}, {"time": 20320, "annotation": {"number": 1, "value": 17}, "group": "control_change"}, {"time": 20360, "annotation": {"number": 1, "value": 22}, "group": "control_change"}, {"time": 20400, "annotation": {"number": 1, "value": 26}, "group": "control_change"}, {"time": 20440, "annotation": {"number": 1, "value": 29}, "group": "control_change"}, {"time": 20480, "annotation": {"number": 1, "value": 32}, "group": "control_change"}, {"time": 20520, "annotation": {"number": 1, "value": 34}, "group": "control_change"}, {"time": 20560, "annotation": {"number": 1, "value": 35}, "group": "control_change"}, {"time": 20600, "annotation": {"number": 1, "value": 36}, "group": "control_change"}, {"time": 20640, "annotation": {"number": 1, "value": 37}, "group": "control_change"}, {"time": 20680, "annotation": {"number": 1, "value": 38}, "group": "control_change"}, {"time": 20720, "annotation": {"number": 1, "value": 39}, "group": "control_change"}, {"time": 20840, "annotation": {"number": 1, "value": 40}, "group": "control_change"}, {"time": 21120, "annotation": {"number": 1, "value": 0}, "group": "control_change"}, {"time": 23520, "annotation": {"number": 11, "value": 100}, "group": "control_change"}, {"time": 23520, "annotation": {"number": 1, "value": 0}, "group": "control_change"}, {"time": 23880, "annotation": {"number": 11, "value": 99}, "group": "control_change"}, {"time": 23880, "annotation": {"number": 1, "value": 10}, "group": "control_change"}, {"time": 23920, "annotation": {"number": 1, "value": 17}, "group": "control_change"}, {"time": 23960, "annotation": {"number": 1, "value": 22}, "group": "control_change"}, {"time": 23970, "annotation": {"number": 11, "value": 98}, "group": "control_change"}, {"time": 24000, "annotation": {"number": 1, "value": 26}, "group": "control_change"}, {"time": 24040, "annotation": {"number": 1, "value": 29}, "group": "control_change"}, {"time": 24060, "annotation": {"number": 11, "value": 97}, "group": "control_change"}, {"time": 24080, "annotation": {"number": 1, "value": 32}, "group": "control_change"}, {"time": 24120, "annotation": {"number": 1, "value": 34}, "group": "control_change"}, {"time": 24150, "annotation": {"number": 11, "value": 95}, "group": "control_change"}, {"time": 24160, "annotation": {"number": 1, "value": 35}, "group": "control_change"}, {"time": 24200, "annotation": {"number": 1, "value": 36}, "group": "control_change"}, {"time": 24240, "annotation": {"number": 11, "value": 93}, "group": "control_change"}, {"time": 24240, "annotation": {"number": 1, "value": 37}, "group": "control_change"}, {"time": 24280, "annotation": {"number": 1, "value": 38}, "group": "control_change"}, {"time": 24320, "annotation": {"number": 1, "value": 39}, "group": "control_change"}, {"time": 24330, "annotation": {"number": 11, "value": 89}, "group": "control_change"}, {"time": 24420, "annotation": {"number": 11, "value": 82}, "group": "control_change"}, {"time": 24440, "annotation": {"number": 1, "value": 40}, "group": "control_change"}, {"time": 24510, "annotation": {"number": 11, "value": 73}, "group": "control_change"}, {"time": 24600, "annotation": {"number": 11, "value": 60}, "group": "control_change"}, {"time": 24690, "annotation": {"number": 11, "value": 39}, "group": "control_change"}, {"time": 24720, "annotation": {"number": 11, "value": 28}, "group": "control_change"}, {"time": 24720, "annotation": {"number": 1, "value": 0}, "group": "control_change"}, {"time": 80400, "annotation": {"number": 11, "value": 110}, "group": "control_change"}, {"time": 82800, "annotation": {"number": 1, "value": 0}, "group": "control_change"}, {"time": 83000, "annotation": {"number": 1, "value": 8}, "group": "control_change"}, {"time": 83050, "annotation": {"number": 1, "value": 15}, "group": "control_change"}, {"time": 83100, "annotation": {"number": 1, "value": 20}, "group": "control_change"}, {"time": 83150, "annotation": {"number": 1, "value": 24}, "group": "control_change"}, {"time": 83200, "annotation": {"number": 1, "value": 26}, "group": "control_change"}, {"time": 83250, "annotation": {"number": 1, "value": 28}, "group": "control_change"}, {"time": 83300, "annotation": {"number": 1, "value": 29}, "group": "control_change"}, {"time": 83350, "annotation": {"number": 1, "value": 30}, "group": "control_change"}, {"time": 83400, "annotation": {"number": 1, "value": 31}, "group": "control_change"}, {"time": 83500, "annotation": {"number": 1, "value": 32}, "group": "control_change"}, {"time": 83760, "annotation": {"number": 1, "value": 0}, "group": "control_change"}, {"time": 84360, "annotation": {"number": 1, "value": 0}, "group": "control_change"}, {"time": 84370, "annotation": {"number": 1, "value": 5}, "group": "control_change"}, {"time": 84380, "annotation": {"number": 1, "value": 8}, "group": "control_change"}, {"time": 84390, "annotation": {"number": 1, "value": 10}, "group": "control_change"}, {"time": 84400, "annotation": {"number": 1, "value": 13}, "group": "control_change"}, {"time": 84410, "annotation": {"number": 1, "value": 16}, "group": "control_change"}, {"time": 84420, "annotation": {"number": 1, "value": 18}, "group": "control_change"}, {"time": 84430, "annotation": {"number": 1, "value": 20}, "group": "control_change"}, {"time": 84440, "annotation": {"number": 1, "value": 22}, "group": "control_change"}, {"time": 84450, "annotation": {"number": 1, "value": 23}, "group": "control_change"}, {"time": 84460, "annotation": {"number": 1, "value": 25}, "group": "control_change"}, {"time": 84470, "annotation": {"number": 1, "value": 26}, "group": "control_change"}, {"time": 84480, "annotation": {"number": 1, "value": 28}, "group": "control_change"}, {"time": 84490, "annotation": {"number": 1, "value": 29}, "group": "control_change"}, {"time": 84500, "annotation": {"number": 1, "value": 30}, "group": "control_change"}, {"time": 84520, "annotation": {"number": 1, "value": 32}, "group": "control_change"}, {"time": 84540, "annotation": {"number": 1, "value": 33}, "group": "control_change"}, {"time": 84550, "annotation": {"number": 1, "value": 34}, "group": "control_change"}, {"time": 84570, "annotation": {"number": 1, "value": 35}, "group": "control_change"}, {"time": 84590, "annotation": {"number": 1, "value": 36}, "group": "control_change"}, {"time": 84610, "annotation": {"number": 1, "value": 37}, "group": "control_change"}, {"time": 84640, "annotation": {"number": 1, "value": 38}, "group": "control_change"}, {"time": 84690, "annotation": {"number": 1, "value": 39}, "group": "control_change"}, {"time": 84750, "annotation": {"number": 1, "value": 40}, "group": "control_change"}, {"time": 84960, "annotation": {"number": 1, "value": 0}, "group": "control_change"}, {"time": 85200, "annotation": {"number": 1, "value": 0}, "group": "control_change"}, {"time": 85400, "annotation": {"number": 1, "value": 8}, "group": "control_change"}, {"time": 85450, "annotation": {"number": 1, "value": 15}, "group": "control_change"}, {"time": 85500, "annotation": {"number": 1, "value": 20}, "group": "control_change"}, {"time": 85550, "annotation": {"number": 1, "value": 24}, "group": "control_change"}, {"time": 85600, "annotation": {"number": 1, "value": 26}, "group": "control_change"}, {"time": 85650, "annotation": {"number": 1, "value": 28}, "group": "control_change"}, {"time": 85700, "annotation": {"number": 1, "value": 29}, "group": "control_change"}, {"time": 85750, "annotation": {"number": 1, "value": 30}, "group": "control_change"}, {"time": 85800, "annotation": {"number": 1, "value": 31}, "group": "control_change"}, {"time": 85900, "annotation": {"number": 1, "value": 32}, "group": "control_change"}, {"time": 86160, "annotation": {"number": 1, "value": 0}, "group": "control_change"}, {"time": 86400, "annotation": {"number": 1, "value": 0}, "group": "control_change"}, {"time": 86650, "annotation": {"number": 1, "value": 3}, "group": "control_change"}, {"time": 86700, "annotation": {"number": 1, "value": 10}, "group": "control_change"}, {"time": 86750, "annotation": {"number": 1, "value": 16}, "group": "control_change"}, {"time": 86800, "annotation": {"number": 1, "value": 20}, "group": "control_change"}, {"time": 86850, "annotation": {"number": 1, "value": 23}, "group": "control_change"}, {"time": 86900, "annotation": {"number": 1, "value": 25}, "group": "control_change"}, {"time": 86950, "annotation": {"number": 1, "value": 27}, "group": "control_change"}, {"time": 87000, "annotation": {"number": 1, "value": 28}, "group": "control_change"}, {"time": 87050, "annotation": {"number": 1, "value": 30}, "group": "control_change"}, {"time": 87150, "annotation": {"number": 1, "value": 31}, "group": "control_change"}, {"time": 87250, "annotation": {"number": 1, "value": 32}, "group": "control_change"}, {"time": 87600, "annotation": {"number": 1, "value": 0}, "group": "control_change"}, {"time": 88800, "annotation": {"number": 1, "value": 0}, "group": "control_change"}, {"time": 89130, "annotation": {"number": 1, "value": 4}, "group": "control_change"}, {"time": 89140, "annotation": {"number": 1, "value": 6}, "group": "control_change"}, {"time": 89150, "annotation": {"number": 1, "value": 8}, "group": "control_change"}, {"time": 89160, "annotation": {"number": 1, "value": 10}, "group": "control_change"}, {"time": 89170, "annotation": {"number": 1, "value": 12}, "group": "control_change"}, {"time": 89180, "annotation": {"number": 1, "value": 15}, "group": "control_change"}, {"time": 89190, "annotation": {"number": 1, "value": 16}, "group": "control_change"}, {"time": 89200, "annotation": {"number": 1, "value": 18}, "group": "control_change"}, {"time": 89210, "annotation": {"number": 1, "value": 19}, "group": "control_change"}, {"time": 89220, "annotation": {"number": 1, "value": 20}, "group": "control_change"}, {"time": 89230, "annotation": {"number": 1, "value": 22}, "group": "control_change"}, {"time": 89240, "annotation": {"number": 1, "value": 23}, "group": "control_change"}, {"time": 89250, "annotation": {"number": 1, "value": 24}, "group": "control_change"}, {"time": 89260, "annotation": {"number": 1, "value": 25}, "group": "control_change"}, {"time": 89270, "annotation": {"number": 1, "value": 26}, "group": "control_change"}, {"time": 89280, "annotation": {"number": 1, "value": 28}, "group": "control_change"}, {"time": 89300, "annotation": {"number": 1, "value": 29}, "group": "control_change"}, {"time": 89310, "annotation": {"number": 1, "value": 30}, "group": "control_change"}, {"time": 89330, "annotation": {"number": 1, "value": 31}, "group": "control_change"}, {"time": 89340, "annotation": {"number": 1, "value": 32}, "group": "control_change"}, {"time": 89350, "annotation": {"number": 1, "value": 33}, "group": "control_change"}, {"time": 89380, "annotation": {"number": 1, "value": 34}, "group": "control_change"}, {"time": 89390, "annotation": {"number": 1, "value": 35}, "group": "control_change"}, {"time": 89430, "annotation": {"number": 1, "value": 36}, "group": "control_change"}, {"time": 89450, "annotation": {"number": 1, "value": 37}, "group": "control_change"}, {"time": 89490, "annotation": {"number": 1, "value": 38}, "group": "control_change"}, {"time": 89550, "annotation": {"number": 1, "value": 39}, "group": "control_change"}, {"time": 89640, "annotation": {"number": 1, "value": 40}, "group": "control_change"}, {"time": 90000, "annotation": {"number": 1, "value": 0}, "group": "control_change"}, {"time": 94320, "annotation": {"number": 1, "value": 50}, "group": "control_change"}, {"time": 94800, "annotation": {"number": 1, "value": 0}, "group": "control_change"}, {"time": 96840, "annotation": {"number": 1, "value": 50}, "group": "control_change"}, {"time": 97200, "annotation": {"number": 1, "value": 0}, "group": "control_change"}, {"time": 99120, "annotation": {"number": 1, "value": 50}, "group": "control_change"}, {"time": 99600, "annotation": {"number": 1, "value": 0}, "group": "control_change"}, {"time": 141360, "annotation": {"number": 11, "value": 100}, "group": "control_change"}, {"time": 142560, "annotation": {"number": 1, "value": 0}, "group": "control_change"}, {"time": 142920, "annotation": {"number": 1, "value": 10}, "group": "control_change"}, {"time": 142960, "annotation": {"number": 1, "value": 17}, "group": "control_change"}, {"time": 143000, "annotation": {"number": 1, "value": 22}, "group": "control_change"}, {"time": 143040, "annotation": {"number": 1, "value": 26}, "group": "control_change"}, {"time": 143080, "annotation": {"number": 1, "value": 29}, "group": "control_change"}, {"time": 143120, "annotation": {"number": 1, "value": 32}, "group": "control_change"}, {"time": 143160, "annotation": {"number": 1, "value": 34}, "group": "control_change"}, {"time": 143200, "annotation": {"number": 1, "value": 35}, "group": "control_change"}, {"time": 143240, "annotation": {"number": 1, "value": 36}, "group": "control_change"}, {"time": 143280, "annotation": {"number": 1, "value": 37}, "group": "control_change"}, {"time": 143320, "annotation": {"number": 1, "value": 38}, "group": "control_change"}, {"time": 143360, "annotation": {"number": 1, "value": 39}, "group": "control_change"}, {"time": 143480, "annotation": {"number": 1, "value": 40}, "group": "control_change"}, {"time": 143760, "annotation": {"number": 1, "value": 0}, "group": "control_change"}, {"time": 147360, "annotation": {"number": 1, "value": 0}, "group": "control_change"}, {"time": 147720, "annotation": {"number": 1, "value": 10}, "group": "control_change"}, {"time": 147760, "annotation": {"number": 1, "value": 17}, "group": "control_change"}, {"time": 147800, "annotation": {"number": 1, "value": 22}, "group": "control_change"}, {"time": 147840, "annotation": {"number": 1, "value": 26}, "group": "control_change"}, {"time": 147880, "annotation": {"number": 1, "value": 29}, "group": "control_change"}, {"time": 147920, "annotation": {"number": 1, "value": 32}, "group": "control_change"}, {"time": 147960, "annotation": {"number": 1, "value": 34}, "group": "control_change"}, {"time": 148000, "annotation": {"number": 1, "value": 35}, "group": "control_change"}, {"time": 148040, "annotation": {"number": 1, "value": 36}, "group": "control_change"}, {"time": 148080, "annotation": {"number": 1, "value": 37}, "group": "control_change"}, {"time": 148120, "annotation": {"number": 1, "value": 38}, "group": "control_change"}, {"time": 148160, "annotation": {"number": 1, "value": 39}, "group": "control_change"}, {"time": 148280, "annotation": {"number": 1, "value": 40}, "group": "control_change"}, {"time": 148560, "annotation": {"number": 1, "value": 0}, "group": "control_change"}, {"time": 151920, "annotation": {"number": 1, "value": 0}, "group": "control_change"}]}, {"program": 0, "is_drum": false, "name": "GT RIFF 1", "annotations": [{"time": 960, "annotation": {"number": 0, "value": 0}, "group": "control_change"}, {"time": 970, "annotation": {"number": 32, "value": 0}, "group": "control_change"}]}, {"program": 30, "is_drum": false, "name": "GT RIFF 1", "notes": [{"time": 4320, "pitch": 39, "duration": 1200, "velocity": 110}, {"time": 4320, "pitch": 46, "duration": 1200, "velocity": 100}, {"time": 5520, "pitch": 39, "duration": 200, "velocity": 110}, {"time": 5520, "pitch": 46, "duration": 200, "velocity": 100}, {"time": 5880, "pitch": 39, "duration": 200, "velocity": 110}, {"time": 5880, "pitch": 46, "duration": 200, "velocity": 100}, {"time": 6720, "pitch": 38, "duration": 1200, "velocity": 110}, {"time": 6720, "pitch": 45, "duration": 1200, "velocity": 100}, {"time": 7920, "pitch": 38, "duration": 200, "velocity": 110}, {"time": 7920, "pitch": 45, "duration": 200, "velocity": 100}, {"time": 8280, "pitch": 38, "duration": 200, "velocity": 110}, {"time": 8280, "pitch": 45, "duration": 200, "velocity": 100}, {"time": 9120, "pitch": 39, "duration": 1200, "velocity": 110}, {"time": 9120, "pitch": 46, "duration": 1200, "velocity": 100}, {"time": 10320, "pitch": 39, "duration": 200, "velocity": 110}, {"time": 10320, "pitch": 46, "duration": 200, "velocity": 100}, {"time": 10680, "pitch": 39, "duration": 200, "velocity": 110}, {"time": 10680, "pitch": 46, "duration": 200, "velocity": 100}, {"time": 11520, "pitch": 38, "duration": 1200, "velocity": 110}, {"time": 11520, "pitch": 45, "duration": 1200, "velocity": 100}, {"time": 12720, "pitch": 38, "duration": 200, "velocity": 110}, {"time": 12720, "pitch": 45, "duration": 200, "velocity": 100}, {"time": 13080, "pitch": 38, "duration": 200, "velocity": 110}, {"time": 13080, "pitch": 45, "duration": 200, "velocity": 100}, {"time": 13920, "pitch": 39, "duration": 220, "velocity": 110}, {"time": 14160, "pitch": 39, "duration": 90, "velocity": 100}, {"time": 14280, "pitch": 46, "duration": 220, "velocity": 110}, {"time": 14520, "pitch": 46, "duration": 70, "velocity": 100}, {"time": 14640, "pitch": 45, "duration": 220, "velocity": 110}, {"time": 14880, "pitch": 46, "duration": 220, "velocity": 110}, {"time": 15120, "pitch": 39, "duration": 220, "velocity": 110}, {"time": 15360, "pitch": 39, "duration": 90, "velocity": 100}, {"time": 15480, "pitch": 46, "duration": 220, "velocity": 110}, {"time": 15720, "pitch": 46, "duration": 70, "velocity": 100}, {"time": 15840, "pitch": 45, "duration": 220, "velocity": 110}, {"time": 16080, "pitch": 39, "duration": 220, "velocity": 110}, {"time": 16320, "pitch": 43, "duration": 220, "velocity": 110}, {"time": 16560, "pitch": 43, "duration": 100, "velocity": 100}, {"time": 16680, "pitch": 46, "duration": 220, "velocity": 110}, {"time": 16920, "pitch": 46, "duration": 70, "velocity": 100}, {"time": 17040, "pitch": 45, "duration": 220, "velocity": 110}, {"time": 17280, "pitch": 46, "duration": 220, "velocity": 110}, {"time": 17520, "pitch": 48, "duration": 220, "velocity": 110}, {"time": 17760, "pitch": 48, "duration": 90, "velocity": 100}, {"time": 17880, "pitch": 46, "duration": 220, "velocity": 110}, {"time": 18120, "pitch": 46, "duration": 100, "velocity": 100}, {"time": 18240, "pitch": 45, "duration": 220, "velocity": 110}, {"time": 18480, "pitch": 41, "duration": 220, "velocity": 110}, {"time": 18720, "pitch": 39, "duration": 220, "velocity": 110}, {"time": 18960, "pitch": 39, "duration": 90, "velocity": 100}, {"time": 19080, "pitch": 46, "duration": 220, "velocity": 110}, {"time": 19320, "pitch": 46, "duration": 70, "velocity": 100}, {"time": 19440, "pitch": 45, "duration": 220, "velocity": 110}, {"time": 19680, "pitch": 46, "duration": 220, "velocity": 110}, {"time": 19920, "pitch": 39, "duration": 220, "velocity": 110}, {"time": 20160, "pitch": 39, "duration": 90, "velocity": 100}, {"time": 20280, "pitch": 46, "duration": 220, "velocity": 110}, {"time": 20520, "pitch": 46, "duration": 70, "velocity": 100}, {"time": 20640, "pitch": 45, "duration": 220, "velocity": 110}, {"time": 20880, "pitch": 39, "duration": 220, "velocity": 110}, {"time": 21120, "pitch": 43, "duration": 220, "velocity": 110}, {"time": 21360, "pitch": 43, "duration": 100, "velocity": 100}, {"time": 21480, "pitch": 46, "duration": 220, "velocity": 110}, {"time": 21720, "pitch": 46, "duration": 70, "velocity": 100}, {"time": 21840, "pitch": 45, "duration": 220, "velocity": 110}, {"time": 22080, "pitch": 46, "duration": 220, "velocity": 110}, {"time": 22320, "pitch": 43, "duration": 220, "velocity": 110}, {"time": 22680, "pitch": 38, "duration": 2020, "velocity": 110}, {"time": 70800, "pitch": 39, "duration": 220, "velocity": 110}, {"time": 71040, "pitch": 39, "duration": 90, "velocity": 100}, {"time": 71160, "pitch": 46, "duration": 220, "velocity": 110}, {"time": 71400, "pitch": 46, "duration": 70, "velocity": 100}, {"time": 71520, "pitch": 45, "duration": 220, "velocity": 110}, {"time": 71760, "pitch": 46, "duration": 220, "velocity": 110}, {"time": 72000, "pitch": 39, "duration": 220, "velocity": 110}, {"time": 72240, "pitch": 39, "duration": 90, "velocity": 100}, {"time": 72360, "pitch": 46, "duration": 220, "velocity": 110}, {"time": 72600, "pitch": 46, "duration": 70, "velocity": 100}, {"time": 72720, "pitch": 45, "duration": 220, "velocity": 110}, {"time": 72960, "pitch": 39, "duration": 220, "velocity": 110}, {"time": 73200, "pitch": 43, "duration": 220, "velocity": 110}, {"time": 73440, "pitch": 43, "duration": 100, "velocity": 100}, {"time": 73560, "pitch": 46, "duration": 220, "velocity": 110}, {"time": 73800, "pitch": 46, "duration": 70, "velocity": 100}, {"time": 73920, "pitch": 45, "duration": 220, "velocity": 110}, {"time": 74160, "pitch": 46, "duration": 220, "velocity": 110}, {"time": 74400, "pitch": 48, "duration": 220, "velocity": 110}, {"time": 74640, "pitch": 48, "duration": 90, "velocity": 100}, {"time": 74760, "pitch": 46, "duration": 220, "velocity": 110}, {"time": 75000, "pitch": 46, "duration": 100, "velocity": 100}, {"time": 75120, "pitch": 45, "duration": 220, "velocity": 110}, {"time": 75360, "pitch": 41, "duration": 220, "velocity": 110}, {"time": 75600, "pitch": 39, "duration": 220, "velocity": 110}, {"time": 75840, "pitch": 39, "duration": 90, "velocity": 100}, {"time": 75960, "pitch": 46, "duration": 220, "velocity": 110}, {"time": 76200, "pitch": 46, "duration": 70, "velocity": 100}, {"time": 76320, "pitch": 45, "duration": 220, "velocity": 110}, {"time": 76560, "pitch": 46, "duration": 220, "velocity": 110}, {"time": 76800, "pitch": 39, "duration": 220, "velocity": 110}, {"time": 77040, "pitch": 39, "duration": 90, "velocity": 100}, {"time": 77160, "pitch": 46, "duration": 220, "velocity": 110}, {"time": 77400, "pitch": 46, "duration": 70, "velocity": 100}, {"time": 77520, "pitch": 45, "duration": 220, "velocity": 110}, {"time": 77760, "pitch": 39, "duration": 220, "velocity": 110}, {"time": 78000, "pitch": 43, "duration": 220, "velocity": 110}, {"time": 78240, "pitch": 43, "duration": 100, "velocity": 100}, {"time": 78360, "pitch": 46, "duration": 220, "velocity": 110}, {"time": 78600, "pitch": 46, "duration": 70, "velocity": 100}, {"time": 78720, "pitch": 45, "duration": 220, "velocity": 110}, {"time": 78960, "pitch": 46, "duration": 220, "velocity": 110}, {"time": 79200, "pitch": 48, "duration": 220, "velocity": 110}, {"time": 79440, "pitch": 48, "duration": 90, "velocity": 100}, {"time": 79560, "pitch": 46, "duration": 220, "velocity": 110}, {"time": 79800, "pitch": 46, "duration": 100, "velocity": 100}, {"time": 79920, "pitch": 45, "duration": 220, "velocity": 110}, {"time": 80160, "pitch": 41, "duration": 220, "velocity": 110}, {"time": 80400, "pitch": 39, "duration": 220, "velocity": 110}, {"time": 80640, "pitch": 39, "duration": 90, "velocity": 100}, {"time": 80760, "pitch": 46, "duration": 220, "velocity": 110}, {"time": 81000, "pitch": 46, "duration": 70, "velocity": 100}, {"time": 81120, "pitch": 45, "duration": 220, "velocity": 110}, {"time": 81360, "pitch": 46, "duration": 220, "velocity": 110}, {"time": 81600, "pitch": 39, "duration": 220, "velocity": 110}, {"time": 81840, "pitch": 39, "duration": 90, "velocity": 100}, {"time": 81960, "pitch": 46, "duration": 220, "velocity": 110}, {"time": 82200, "pitch": 46, "duration": 70, "velocity": 100}, {"time": 82320, "pitch": 45, "duration": 220, "velocity": 110}, {"time": 82560, "pitch": 39, "duration": 220, "velocity": 110}, {"time": 82800, "pitch": 43, "duration": 220, "velocity": 110}, {"time": 83040, "pitch": 43, "duration": 100, "velocity": 100}, {"time": 83160, "pitch": 46, "duration": 220, "velocity": 110}, {"time": 83400, "pitch": 46, "duration": 70, "velocity": 100}, {"time": 83520, "pitch": 45, "duration": 220, "velocity": 110}, {"time": 83760, "pitch": 46, "duration": 220, "velocity": 110}, {"time": 84000, "pitch": 48, "duration": 220, "velocity": 110}, {"time": 84240, "pitch": 48, "duration": 90, "velocity": 100}, {"time": 84360, "pitch": 46, "duration": 220, "velocity": 110}, {"time": 84600, "pitch": 46, "duration": 100, "velocity": 100}, {"time": 84720, "pitch": 45, "duration": 220, "velocity": 110}, {"time": 84960, "pitch": 41, "duration": 220, "velocity": 110}, {"time": 85200, "pitch": 39, "duration": 220, "velocity": 110}, {"time": 85440, "pitch": 39, "duration": 90, "velocity": 100}, {"time": 85560, "pitch": 46, "duration": 220, "velocity": 110}, {"time": 85800, "pitch": 46, "duration": 70, "velocity": 100}, {"time": 85920, "pitch": 45, "duration": 220, "velocity": 110}, {"time": 86160, "pitch": 46, "duration": 220, "velocity": 110}, {"time": 86400, "pitch": 39, "duration": 220, "velocity": 110}, {"time": 86640, "pitch": 39, "duration": 90, "velocity": 100}, {"time": 86760, "pitch": 46, "duration": 220, "velocity": 110}, {"time": 87000, "pitch": 46, "duration": 70, "velocity": 100}, {"time": 87120, "pitch": 45, "duration": 220, "velocity": 110}, {"time": 87360, "pitch": 39, "duration": 220, "velocity": 110}, {"time": 87600, "pitch": 43, "duration": 220, "velocity": 110}, {"time": 87840, "pitch": 43, "duration": 100, "velocity": 100}, {"time": 87960, "pitch": 46, "duration": 220, "velocity": 110}, {"time": 88200, "pitch": 46, "duration": 70, "velocity": 100}, {"time": 88320, "pitch": 45, "duration": 220, "velocity": 110}, {"time": 88560, "pitch": 46, "duration": 220, "velocity": 110}, {"time": 88800, "pitch": 48, "duration": 220, "velocity": 110}, {"time": 89040, "pitch": 48, "duration": 90, "velocity": 100}, {"time": 89160, "pitch": 46, "duration": 220, "velocity": 110}, {"time": 89400, "pitch": 46, "duration": 100, "velocity": 100}, {"time": 89520, "pitch": 45, "duration": 220, "velocity": 110}, {"time": 89760, "pitch": 41, "duration": 220, "velocity": 110}, {"time": 90000, "pitch": 51, "duration": 220, "velocity": 110}, {"time": 90000, "pitch": 58, "duration": 220, "velocity": 100}, {"time": 90240, "pitch": 51, "duration": 40, "velocity": 110}, {"time": 90240, "pitch": 58, "duration": 40, "velocity": 100}, {"time": 90360, "pitch": 51, "duration": 340, "velocity": 110}, {"time": 90360, "pitch": 58, "duration": 340, "velocity": 100}, {"time": 90720, "pitch": 50, "duration": 300, "velocity": 110}, {"time": 90720, "pitch": 57, "duration": 300, "velocity": 100}, {"time": 91200, "pitch": 49, "duration": 220, "velocity": 110}, {"time": 91200, "pitch": 56, "duration": 220, "velocity": 100}, {"time": 91440, "pitch": 49, "duration": 40, "velocity": 110}, {"time": 91440, "pitch": 56, "duration": 40, "velocity": 100}, {"time": 91560, "pitch": 49, "duration": 340, "velocity": 110}, {"time": 91560, "pitch": 56, "duration": 340, "velocity": 100}, {"time": 91920, "pitch": 48, "duration": 300, "velocity": 110}, {"time": 91920, "pitch": 55, "duration": 300, "velocity": 100}, {"time": 92400, "pitch": 47, "duration": 220, "velocity": 110}, {"time": 92400, "pitch": 54, "duration": 220, "velocity": 100}, {"time": 92640, "pitch": 47, "duration": 40, "velocity": 110}, {"time": 92640, "pitch": 54, "duration": 40, "velocity": 100}, {"time": 92760, "pitch": 47, "duration": 340, "velocity": 110}, {"time": 92760, "pitch": 54, "duration": 340, "velocity": 100}, {"time": 93120, "pitch": 46, "duration": 300, "velocity": 110}, {"time": 93120, "pitch": 53, "duration": 300, "velocity": 100}, {"time": 93600, "pitch": 45, "duration": 220, "velocity": 110}, {"time": 93600, "pitch": 52, "duration": 220, "velocity": 100}, {"time": 93840, "pitch": 45, "duration": 40, "velocity": 110}, {"time": 93840, "pitch": 52, "duration": 40, "velocity": 100}, {"time": 93960, "pitch": 45, "duration": 340, "velocity": 110}, {"time": 93960, "pitch": 52, "duration": 340, "velocity": 100}, {"time": 94320, "pitch": 44, "duration": 300, "velocity": 110}, {"time": 94320, "pitch": 51, "duration": 300, "velocity": 100}, {"time": 94800, "pitch": 51, "duration": 220, "velocity": 110}, {"time": 94800, "pitch": 58, "duration": 220, "velocity": 100}, {"time": 95040, "pitch": 51, "duration": 40, "velocity": 110}, {"time": 95040, "pitch": 58, "duration": 40, "velocity": 100}, {"time": 95160, "pitch": 51, "duration": 340, "velocity": 110}, {"time": 95160, "pitch": 58, "duration": 340, "velocity": 100}, {"time": 95520, "pitch": 50, "duration": 300, "velocity": 110}, {"time": 95520, "pitch": 57, "duration": 300, "velocity": 100}, {"time": 96000, "pitch": 49, "duration": 220, "velocity": 110}, {"time": 96000, "pitch": 56, "duration": 220, "velocity": 100}, {"time": 96240, "pitch": 49, "duration": 40, "velocity": 110}, {"time": 96240, "pitch": 56, "duration": 40, "velocity": 100}, {"time": 96360, "pitch": 49, "duration": 340, "velocity": 110}, {"time": 96360, "pitch": 56, "duration": 340, "velocity": 100}, {"time": 96720, "pitch": 48, "duration": 300, "velocity": 110}, {"time": 96720, "pitch": 55, "duration": 300, "velocity": 100}, {"time": 97200, "pitch": 47, "duration": 220, "velocity": 110}, {"time": 97200, "pitch": 54, "duration": 220, "velocity": 100}, {"time": 97440, "pitch": 47, "duration": 40, "velocity": 110}, {"time": 97440, "pitch": 54, "duration": 40, "velocity": 100}, {"time": 97560, "pitch": 47, "duration": 340, "velocity": 110}, {"time": 97560, "pitch": 54, "duration": 340, "velocity": 100}, {"time": 97920, "pitch": 46, "duration": 300, "velocity": 110}, {"time": 97920, "pitch": 53, "duration": 300, "velocity": 100}, {"time": 98400, "pitch": 45, "duration": 220, "velocity": 110}, {"time": 98400, "pitch": 52, "duration": 220, "velocity": 100}, {"time": 98640, "pitch": 45, "duration": 40, "velocity": 110}, {"time": 98640, "pitch": 52, "duration": 40, "velocity": 100}, {"time": 98760, "pitch": 45, "duration": 340, "velocity": 110}, {"time": 98760, "pitch": 52, "duration": 340, "velocity": 100}, {"time": 99120, "pitch": 44, "duration": 300, "velocity": 110}, {"time": 99120, "pitch": 51, "duration": 300, "velocity": 100}, {"time": 99600, "pitch": 45, "duration": 220, "velocity": 100}, {"time": 99600, "pitch": 52, "duration": 220, "velocity": 90}, {"time": 99840, "pitch": 45, "duration": 40, "velocity": 100}, {"time": 99840, "pitch": 52, "duration": 40, "velocity": 90}, {"time": 99960, "pitch": 46, "duration": 220, "velocity": 100}, {"time": 99960, "pitch": 53, "duration": 220, "velocity": 90}, {"time": 100200, "pitch": 46, "duration": 40, "velocity": 100}, {"time": 100200, "pitch": 53, "duration": 40, "velocity": 90}, {"time": 100320, "pitch": 48, "duration": 220, "velocity": 100}, {"time": 100320, "pitch": 55, "duration": 220, "velocity": 90}, {"time": 100560, "pitch": 48, "duration": 40, "velocity": 100}, {"time": 100560, "pitch": 55, "duration": 40, "velocity": 90}, {"time": 100680, "pitch": 50, "duration": 220, "velocity": 100}, {"time": 100680, "pitch": 57, "duration": 220, "velocity": 90}, {"time": 100920, "pitch": 50, "duration": 40, "velocity": 100}, {"time": 100920, "pitch": 57, "duration": 40, "velocity": 90}, {"time": 101040, "pitch": 51, "duration": 220, "velocity": 100}, {"time": 101040, "pitch": 58, "duration": 220, "velocity": 90}, {"time": 101280, "pitch": 51, "duration": 40, "velocity": 100}, {"time": 101280, "pitch": 58, "duration": 40, "velocity": 90}, {"time": 101400, "pitch": 51, "duration": 220, "velocity": 100}, {"time": 101400, "pitch": 58, "duration": 220, "velocity": 90}, {"time": 101640, "pitch": 51, "duration": 40, "velocity": 100}, {"time": 101640, "pitch": 58, "duration": 40, "velocity": 90}, {"time": 101760, "pitch": 53, "duration": 150, "velocity": 100}, {"time": 101760, "pitch": 60, "duration": 150, "velocity": 90}, {"time": 102000, "pitch": 53, "duration": 220, "velocity": 100}, {"time": 102000, "pitch": 60, "duration": 220, "velocity": 90}, {"time": 112560, "pitch": 39, "duration": 220, "velocity": 110}, {"time": 112800, "pitch": 39, "duration": 90, "velocity": 100}, {"time": 112920, "pitch": 46, "duration": 220, "velocity": 110}, {"time": 113160, "pitch": 46, "duration": 70, "velocity": 100}, {"time": 113280, "pitch": 45, "duration": 220, "velocity": 110}, {"time": 113520, "pitch": 46, "duration": 220, "velocity": 110}, {"time": 113760, "pitch": 39, "duration": 220, "velocity": 110}, {"time": 114000, "pitch": 39, "duration": 90, "velocity": 100}, {"time": 114120, "pitch": 46, "duration": 220, "velocity": 110}, {"time": 114360, "pitch": 46, "duration": 70, "velocity": 100}, {"time": 114480, "pitch": 45, "duration": 220, "velocity": 110}, {"time": 114720, "pitch": 39, "duration": 220, "velocity": 110}, {"time": 114960, "pitch": 43, "duration": 220, "velocity": 110}, {"time": 115200, "pitch": 43, "duration": 100, "velocity": 100}, {"time": 115320, "pitch": 46, "duration": 220, "velocity": 110}, {"time": 115560, "pitch": 46, "duration": 70, "velocity": 100}, {"time": 115680, "pitch": 45, "duration": 220, "velocity": 110}, {"time": 115920, "pitch": 46, "duration": 220, "velocity": 110}, {"time": 116160, "pitch": 48, "duration": 220, "velocity": 110}, {"time": 116400, "pitch": 48, "duration": 90, "velocity": 100}, {"time": 116520, "pitch": 46, "duration": 220, "velocity": 110}, {"time": 116760, "pitch": 46, "duration": 100, "velocity": 100}, {"time": 116880, "pitch": 45, "duration": 220, "velocity": 110}, {"time": 117120, "pitch": 41, "duration": 220, "velocity": 110}, {"time": 117360, "pitch": 39, "duration": 220, "velocity": 110}, {"time": 117600, "pitch": 39, "duration": 90, "velocity": 100}, {"time": 117720, "pitch": 46, "duration": 220, "velocity": 110}, {"time": 117960, "pitch": 46, "duration": 70, "velocity": 100}, {"time": 118080, "pitch": 45, "duration": 220, "velocity": 110}, {"time": 118320, "pitch": 46, "duration": 220, "velocity": 110}, {"time": 118560, "pitch": 39, "duration": 220, "velocity": 110}, {"time": 118800, "pitch": 39, "duration": 90, "velocity": 100}, {"time": 118920, "pitch": 46, "duration": 220, "velocity": 110}, {"time": 119160, "pitch": 46, "duration": 70, "velocity": 100}, {"time": 119280, "pitch": 45, "duration": 220, "velocity": 110}, {"time": 119520, "pitch": 39, "duration": 220, "velocity": 110}, {"time": 119760, "pitch": 43, "duration": 220, "velocity": 110}, {"time": 120000, "pitch": 43, "duration": 100, "velocity": 100}, {"time": 120120, "pitch": 46, "duration": 220, "velocity": 110}, {"time": 120360, "pitch": 46, "duration": 70, "velocity": 100}, {"time": 120480, "pitch": 45, "duration": 220, "velocity": 110}, {"time": 120720, "pitch": 46, "duration": 220, "velocity": 110}, {"time": 120960, "pitch": 48, "duration": 220, "velocity": 110}, {"time": 121200, "pitch": 48, "duration": 90, "velocity": 100}, {"time": 121320, "pitch": 46, "duration": 220, "velocity": 110}, {"time": 121560, "pitch": 46, "duration": 100, "velocity": 100}, {"time": 121680, "pitch": 45, "duration": 220, "velocity": 110}, {"time": 121920, "pitch": 41, "duration": 220, "velocity": 110}, {"time": 122160, "pitch": 39, "duration": 220, "velocity": 110}, {"time": 122400, "pitch": 39, "duration": 90, "velocity": 100}, {"time": 122520, "pitch": 46, "duration": 220, "velocity": 110}, {"time": 122760, "pitch": 46, "duration": 70, "velocity": 100}, {"time": 122880, "pitch": 45, "duration": 220, "velocity": 110}, {"time": 123120, "pitch": 46, "duration": 220, "velocity": 110}, {"time": 123360, "pitch": 39, "duration": 220, "velocity": 110}, {"time": 123600, "pitch": 39, "duration": 90, "velocity": 100}, {"time": 123720, "pitch": 46, "duration": 220, "velocity": 110}, {"time": 123960, "pitch": 46, "duration": 70, "velocity": 100}, {"time": 124080, "pitch": 45, "duration": 220, "velocity": 110}, {"time": 124320, "pitch": 39, "duration": 220, "velocity": 110}, {"time": 124560, "pitch": 43, "duration": 220, "velocity": 110}, {"time": 124800, "pitch": 43, "duration": 100, "velocity": 100}, {"time": 124920, "pitch": 46, "duration": 220, "velocity": 110}, {"time": 125160, "pitch": 46, "duration": 70, "velocity": 100}, {"time": 125280, "pitch": 45, "duration": 220, "velocity": 110}, {"time": 125520, "pitch": 46, "duration": 220, "velocity": 110}, {"time": 125760, "pitch": 48, "duration": 220, "velocity": 110}, {"time": 126000, "pitch": 48, "duration": 90, "velocity": 100}, {"time": 126120, "pitch": 46, "duration": 220, "velocity": 110}, {"time": 126360, "pitch": 46, "duration": 100, "velocity": 100}, {"time": 126480, "pitch": 45, "duration": 220, "velocity": 110}, {"time": 126720, "pitch": 41, "duration": 220, "velocity": 110}, {"time": 126960, "pitch": 39, "duration": 220, "velocity": 110}, {"time": 127200, "pitch": 39, "duration": 90, "velocity": 100}, {"time": 127320, "pitch": 46, "duration": 220, "velocity": 110}, {"time": 127560, "pitch": 46, "duration": 70, "velocity": 100}, {"time": 127680, "pitch": 45, "duration": 220, "velocity": 110}, {"time": 127920, "pitch": 46, "duration": 220, "velocity": 110}, {"time": 128160, "pitch": 39, "duration": 220, "velocity": 110}, {"time": 128400, "pitch": 39, "duration": 90, "velocity": 100}, {"time": 128520, "pitch": 46, "duration": 220, "velocity": 110}, {"time": 128760, "pitch": 46, "duration": 70, "velocity": 100}, {"time": 128880, "pitch": 45, "duration": 220, "velocity": 110}, {"time": 129120, "pitch": 39, "duration": 220, "velocity": 110}, {"time": 129360, "pitch": 43, "duration": 220, "velocity": 110}, {"time": 129600, "pitch": 43, "duration": 100, "velocity": 100}, {"time": 129720, "pitch": 46, "duration": 220, "velocity": 110}, {"time": 129960, "pitch": 46, "duration": 70, "velocity": 100}, {"time": 130080, "pitch": 45, "duration": 220, "velocity": 110}, {"time": 130320, "pitch": 46, "duration": 220, "velocity": 110}, {"time": 130560, "pitch": 48, "duration": 220, "velocity": 110}, {"time": 130800, "pitch": 48, "duration": 90, "velocity": 100}, {"time": 130920, "pitch": 46, "duration": 220, "velocity": 110}, {"time": 131160, "pitch": 46, "duration": 100, "velocity": 100}, {"time": 131280, "pitch": 45, "duration": 220, "velocity": 110}, {"time": 131520, "pitch": 41, "duration": 220, "velocity": 110}, {"time": 131760, "pitch": 39, "duration": 220, "velocity": 110}, {"time": 132000, "pitch": 39, "duration": 90, "velocity": 100}, {"time": 132120, "pitch": 46, "duration": 220, "velocity": 110}, {"time": 132360, "pitch": 46, "duration": 70, "velocity": 100}, {"time": 132480, "pitch": 45, "duration": 220, "velocity": 110}, {"time": 132720, "pitch": 46, "duration": 220, "velocity": 110}, {"time": 132960, "pitch": 39, "duration": 220, "velocity": 110}, {"time": 133200, "pitch": 39, "duration": 90, "velocity": 100}, {"time": 133320, "pitch": 46, "duration": 220, "velocity": 110}, {"time": 133560, "pitch": 46, "duration": 70, "velocity": 100}, {"time": 133680, "pitch": 45, "duration": 220, "velocity": 110}, {"time": 133920, "pitch": 39, "duration": 220, "velocity": 110}, {"time": 134160, "pitch": 43, "duration": 220, "velocity": 110}, {"time": 134400, "pitch": 43, "duration": 100, "velocity": 100}, {"time": 134520, "pitch": 46, "duration": 220, "velocity": 110}, {"time": 134760, "pitch": 46, "duration": 70, "velocity": 100}, {"time": 134880, "pitch": 45, "duration": 220, "velocity": 110}, {"time": 135120, "pitch": 46, "duration": 220, "velocity": 110}, {"time": 135360, "pitch": 48, "duration": 220, "velocity": 110}, {"time": 135600, "pitch": 48, "duration": 90, "velocity": 100}, {"time": 135720, "pitch": 46, "duration": 220, "velocity": 110}, {"time": 135960, "pitch": 46, "duration": 100, "velocity": 100}, {"time": 136080, "pitch": 45, "duration": 220, "velocity": 110}, {"time": 136320, "pitch": 41, "duration": 220, "velocity": 110}, {"time": 136560, "pitch": 39, "duration": 220, "velocity": 110}, {"time": 136800, "pitch": 39, "duration": 90, "velocity": 100}, {"time": 136920, "pitch": 46, "duration": 220, "velocity": 110}, {"time": 137160, "pitch": 46, "duration": 70, "velocity": 100}, {"time": 137280, "pitch": 45, "duration": 220, "velocity": 110}, {"time": 137520, "pitch": 46, "duration": 220, "velocity": 110}, {"time": 137760, "pitch": 39, "duration": 220, "velocity": 110}, {"time": 138000, "pitch": 39, "duration": 90, "velocity": 100}, {"time": 138120, "pitch": 46, "duration": 220, "velocity": 110}, {"time": 138360, "pitch": 46, "duration": 70, "velocity": 100}, {"time": 138480, "pitch": 45, "duration": 220, "velocity": 110}, {"time": 138720, "pitch": 39, "duration": 220, "velocity": 110}, {"time": 138960, "pitch": 43, "duration": 220, "velocity": 110}, {"time": 139200, "pitch": 43, "duration": 100, "velocity": 100}, {"time": 139320, "pitch": 46, "duration": 220, "velocity": 110}, {"time": 139560, "pitch": 46, "duration": 70, "velocity": 100}, {"time": 139680, "pitch": 45, "duration": 220, "velocity": 110}, {"time": 139920, "pitch": 46, "duration": 220, "velocity": 110}, {"time": 140160, "pitch": 48, "duration": 220, "velocity": 110}, {"time": 140400, "pitch": 48, "duration": 90, "velocity": 100}, {"time": 140520, "pitch": 46, "duration": 220, "velocity": 110}, {"time": 140760, "pitch": 46, "duration": 100, "velocity": 100}, {"time": 140880, "pitch": 45, "duration": 220, "velocity": 110}, {"time": 141120, "pitch": 41, "duration": 220, "velocity": 110}, {"time": 141360, "pitch": 39, "duration": 1200, "velocity": 110}, {"time": 141360, "pitch": 46, "duration": 1200, "velocity": 100}, {"time": 142560, "pitch": 39, "duration": 200, "velocity": 110}, {"time": 142560, "pitch": 46, "duration": 200, "velocity": 100}, {"time": 142920, "pitch": 39, "duration": 200, "velocity": 110}, {"time": 142920, "pitch": 46, "duration": 200, "velocity": 100}, {"time": 143760, "pitch": 38, "duration": 1200, "velocity": 110}, {"time": 143760, "pitch": 45, "duration": 1200, "velocity": 100}, {"time": 144960, "pitch": 38, "duration": 200, "velocity": 110}, {"time": 144960, "pitch": 45, "duration": 200, "velocity": 100}, {"time": 145320, "pitch": 38, "duration": 200, "velocity": 110}, {"time": 145320, "pitch": 45, "duration": 200, "velocity": 100}, {"time": 146160, "pitch": 39, "duration": 1200, "velocity": 110}, {"time": 146160, "pitch": 46, "duration": 1200, "velocity": 100}, {"time": 147360, "pitch": 39, "duration": 200, "velocity": 110}, {"time": 147360, "pitch": 46, "duration": 200, "velocity": 100}, {"time": 147720, "pitch": 39, "duration": 200, "velocity": 110}, {"time": 147720, "pitch": 46, "duration": 200, "velocity": 100}, {"time": 148560, "pitch": 38, "duration": 1200, "velocity": 110}, {"time": 148560, "pitch": 45, "duration": 1200, "velocity": 100}, {"time": 149760, "pitch": 38, "duration": 200, "velocity": 110}, {"time": 149760, "pitch": 45, "duration": 200, "velocity": 100}, {"time": 150120, "pitch": 38, "duration": 200, "velocity": 110}, {"time": 150120, "pitch": 45, "duration": 200, "velocity": 100}, {"time": 150960, "pitch": 39, "duration": 220, "velocity": 110}, {"time": 151200, "pitch": 39, "duration": 90, "velocity": 100}, {"time": 151320, "pitch": 46, "duration": 220, "velocity": 110}, {"time": 151560, "pitch": 46, "duration": 70, "velocity": 100}, {"time": 151680, "pitch": 45, "duration": 220, "velocity": 110}, {"time": 151920, "pitch": 43, "duration": 220, "velocity": 110}, {"time": 152160, "pitch": 43, "duration": 100, "velocity": 100}, {"time": 152280, "pitch": 46, "duration": 220, "velocity": 110}, {"time": 152520, "pitch": 46, "duration": 70, "velocity": 100}, {"time": 152640, "pitch": 45, "duration": 220, "velocity": 110}, {"time": 152880, "pitch": 41, "duration": 220, "velocity": 110}, {"time": 153120, "pitch": 43, "duration": 240, "velocity": 110}], "annotations": [{"time": 990, "annotation": {"number": 7, "value": 90}, "group": "control_change"}, {"time": 1000, "annotation": {"number": 11, "value": 100}, "group": "control_change"}, {"time": 1010, "annotation": {"number": 10, "value": 20}, "group": "control_change"}, {"time": 1020, "annotation": {"number": 91, "value": 70}, "group": "control_change"}, {"time": 1030, "annotation": {"number": 93, "value": 0}, "group": "control_change"}, {"time": 1040, "annotation": {"number": 101, "value": 0}, "group": "control_change"}, {"time": 1050, "annotation": {"number": 100, "value": 0}, "group": "control_change"}, {"time": 1060, "annotation": {"number": 6, "value": 12}, "group": "control_change"}, {"time": 1070, "annotation": {"number": 101, "value": 127}, "group": "control_change"}, {"time": 1080, "annotation": {"number": 100, "value": 127}, "group": "control_change"}, {"time": 13290, "annotation": {"number": 0, "value": 0}, "group": "control_change"}, {"time": 13300, "annotation": {"number": 32, "value": 0}, "group": "control_change"}, {"time": 23520, "annotation": {"number": 11, "value": 100}, "group": "control_change"}, {"time": 23760, "annotation": {"number": 11, "value": 99}, "group": "control_change"}, {"time": 23920, "annotation": {"number": 11, "value": 98}, "group": "control_change"}, {"time": 24000, "annotation": {"number": 11, "value": 97}, "group": "control_change"}, {"time": 24080, "annotation": {"number": 11, "value": 96}, "group": "control_change"}, {"time": 24120, "annotation": {"number": 11, "value": 94}, "group": "control_change"}, {"time": 24160, "annotation": {"number": 11, "value": 93}, "group": "control_change"}, {"time": 24200, "annotation": {"number": 11, "value": 92}, "group": "control_change"}, {"time": 24240, "annotation": {"number": 11, "value": 90}, "group": "control_change"}, {"time": 24280, "annotation": {"number": 11, "value": 88}, "group": "control_change"}, {"time": 24320, "annotation": {"number": 11, "value": 86}, "group": "control_change"}, {"time": 24360, "annotation": {"number": 11, "value": 82}, "group": "control_change"}, {"time": 24400, "annotation": {"number": 11, "value": 79}, "group": "control_change"}, {"time": 24440, "annotation": {"number": 11, "value": 74}, "group": "control_change"}, {"time": 24480, "annotation": {"number": 11, "value": 69}, "group": "control_change"}, {"time": 24520, "annotation": {"number": 11, "value": 63}, "group": "control_change"}, {"time": 24560, "annotation": {"number": 11, "value": 55}, "group": "control_change"}, {"time": 24600, "annotation": {"number": 11, "value": 46}, "group": "control_change"}, {"time": 24640, "annotation": {"number": 11, "value": 35}, "group": "control_change"}, {"time": 24680, "annotation": {"number": 11, "value": 21}, "group": "control_change"}, {"time": 24720, "annotation": {"number": 11, "value": 3}, "group": "control_change"}, {"time": 70800, "annotation": {"number": 11, "value": 100}, "group": "control_change"}, {"time": 75600, "annotation": {"number": 11, "value": 100}, "group": "control_change"}, {"time": 80400, "annotation": {"number": 11, "value": 100}, "group": "control_change"}, {"time": 85200, "annotation": {"number": 11, "value": 100}, "group": "control_change"}, {"time": 112560, "annotation": {"number": 11, "value": 100}, "group": "control_change"}, {"time": 117360, "annotation": {"number": 11, "value": 100}, "group": "control_change"}, {"time": 122160, "annotation": {"number": 11, "value": 100}, "group": "control_change"}, {"time": 126960, "annotation": {"number": 11, "value": 100}, "group": "control_change"}, {"time": 131760, "annotation": {"number": 11, "value": 100}, "group": "control_change"}, {"time": 136560, "annotation": {"number": 11, "value": 100}, "group": "control_change"}, {"time": 150330, "annotation": {"number": 0, "value": 0}, "group": "control_change"}, {"time": 150340, "annotation": {"number": 32, "value": 0}, "group": "control_change"}]}, {"program": 31, "is_drum": false, "name": "GT RIFF 1", "notes": [{"time": 13320, "pitch": 50, "duration": 100, "velocity": 110}, {"time": 13440, "pitch": 55, "duration": 100, "velocity": 100}, {"time": 13560, "pitch": 60, "duration": 100, "velocity": 100}, {"time": 13680, "pitch": 65, "duration": 220, "velocity": 100}, {"time": 150360, "pitch": 50, "duration": 100, "velocity": 110}, {"time": 150480, "pitch": 55, "duration": 100, "velocity": 100}, {"time": 150600, "pitch": 60, "duration": 100, "velocity": 100}, {"time": 150720, "pitch": 65, "duration": 220, "velocity": 100}], "annotations": [{"time": 13890, "annotation": {"number": 0, "value": 0}, "group": "control_change"}, {"time": 13900, "annotation": {"number": 32, "value": 0}, "group": "control_change"}, {"time": 150930, "annotation": {"number": 0, "value": 0}, "group": "control_change"}, {"time": 150940, "annotation": {"number": 32, "value": 0}, "group": "control_change"}]}, {"program": 0, "is_drum": false, "name": "GT ARRP", "annotations": [{"time": 960, "annotation": {"number": 0, "value": 0}, "group": "control_change"}, {"time": 970, "annotation": {"number": 32, "value": 0}, "group": "control_change"}]}, {"program": 27, "is_drum": false, "name": "GT ARRP", "notes": [{"time": 47280, "pitch": 60, "duration": 120, "velocity": 100}, {"time": 47280, "pitch": 63, "duration": 120, "velocity": 100}, {"time": 47280, "pitch": 69, "duration": 120, "velocity": 100}, {"time": 47880, "pitch": 65, "duration": 200, "velocity": 50}, {"time": 48000, "pitch": 77, "duration": 200, "velocity": 60}, {"time": 48120, "pitch": 65, "duration": 200, "velocity": 60}, {"time": 48240, "pitch": 77, "duration": 200, "velocity": 70}, {"time": 48360, "pitch": 65, "duration": 200, "velocity": 70}, {"time": 48480, "pitch": 77, "duration": 200, "velocity": 80}, {"time": 48600, "pitch": 65, "duration": 200, "velocity": 80}, {"time": 48720, "pitch": 77, "duration": 200, "velocity": 90}, {"time": 48840, "pitch": 65, "duration": 200, "velocity": 90}, {"time": 48960, "pitch": 77, "duration": 200, "velocity": 100}, {"time": 49080, "pitch": 65, "duration": 200, "velocity": 100}, {"time": 49200, "pitch": 77, "duration": 200, "velocity": 90}, {"time": 49320, "pitch": 65, "duration": 200, "velocity": 100}, {"time": 49440, "pitch": 77, "duration": 200, "velocity": 90}, {"time": 49560, "pitch": 65, "duration": 200, "velocity": 100}, {"time": 49680, "pitch": 77, "duration": 200, "velocity": 100}, {"time": 49800, "pitch": 65, "duration": 200, "velocity": 110}, {"time": 49920, "pitch": 77, "duration": 200, "velocity": 100}, {"time": 50040, "pitch": 65, "duration": 200, "velocity": 110}, {"time": 50160, "pitch": 77, "duration": 200, "velocity": 110}, {"time": 50760, "pitch": 65, "duration": 200, "velocity": 50}, {"time": 50880, "pitch": 77, "duration": 200, "velocity": 60}, {"time": 51000, "pitch": 65, "duration": 200, "velocity": 60}, {"time": 51120, "pitch": 77, "duration": 200, "velocity": 70}, {"time": 51240, "pitch": 65, "duration": 200, "velocity": 70}, {"time": 51360, "pitch": 77, "duration": 200, "velocity": 80}, {"time": 51480, "pitch": 65, "duration": 200, "velocity": 80}, {"time": 51600, "pitch": 77, "duration": 200, "velocity": 90}, {"time": 51720, "pitch": 65, "duration": 200, "velocity": 90}, {"time": 51840, "pitch": 77, "duration": 200, "velocity": 100}, {"time": 51960, "pitch": 65, "duration": 120, "velocity": 100}, {"time": 52080, "pitch": 65, "duration": 340, "velocity": 110}, {"time": 52080, "pitch": 77, "duration": 340, "velocity": 100}, {"time": 52440, "pitch": 63, "duration": 120, "velocity": 100}, {"time": 52440, "pitch": 75, "duration": 120, "velocity": 90}, {"time": 52680, "pitch": 62, "duration": 200, "velocity": 100}, {"time": 52680, "pitch": 74, "duration": 200, "velocity": 90}, {"time": 53040, "pitch": 62, "duration": 450, "velocity": 110}, {"time": 53040, "pitch": 74, "duration": 450, "velocity": 100}, {"time": 53640, "pitch": 65, "duration": 200, "velocity": 50}, {"time": 53760, "pitch": 77, "duration": 200, "velocity": 60}, {"time": 53880, "pitch": 65, "duration": 200, "velocity": 60}, {"time": 54000, "pitch": 77, "duration": 200, "velocity": 70}, {"time": 54120, "pitch": 65, "duration": 200, "velocity": 70}, {"time": 54240, "pitch": 77, "duration": 200, "velocity": 80}, {"time": 54360, "pitch": 65, "duration": 200, "velocity": 80}, {"time": 54480, "pitch": 77, "duration": 200, "velocity": 90}, {"time": 54600, "pitch": 65, "duration": 200, "velocity": 90}, {"time": 54720, "pitch": 77, "duration": 200, "velocity": 100}, {"time": 54840, "pitch": 65, "duration": 200, "velocity": 100}, {"time": 54960, "pitch": 77, "duration": 200, "velocity": 90}, {"time": 55080, "pitch": 65, "duration": 200, "velocity": 100}, {"time": 55200, "pitch": 77, "duration": 200, "velocity": 90}, {"time": 55320, "pitch": 65, "duration": 200, "velocity": 100}, {"time": 55440, "pitch": 77, "duration": 200, "velocity": 100}, {"time": 55560, "pitch": 65, "duration": 200, "velocity": 110}, {"time": 55680, "pitch": 77, "duration": 200, "velocity": 100}, {"time": 55800, "pitch": 65, "duration": 200, "velocity": 110}, {"time": 55920, "pitch": 77, "duration": 200, "velocity": 110}, {"time": 56520, "pitch": 65, "duration": 200, "velocity": 70}, {"time": 56640, "pitch": 77, "duration": 200, "velocity": 80}, {"time": 56760, "pitch": 65, "duration": 200, "velocity": 80}, {"time": 56880, "pitch": 77, "duration": 200, "velocity": 90}, {"time": 57000, "pitch": 65, "duration": 120, "velocity": 90}, {"time": 57120, "pitch": 65, "duration": 100, "velocity": 110}, {"time": 57120, "pitch": 77, "duration": 100, "velocity": 100}, {"time": 57360, "pitch": 63, "duration": 120, "velocity": 100}, {"time": 57360, "pitch": 75, "duration": 120, "velocity": 90}, {"time": 57600, "pitch": 62, "duration": 200, "velocity": 100}, {"time": 57600, "pitch": 74, "duration": 200, "velocity": 90}, {"time": 57840, "pitch": 62, "duration": 200, "velocity": 100}, {"time": 57840, "pitch": 74, "duration": 200, "velocity": 90}, {"time": 58200, "pitch": 62, "duration": 720, "velocity": 110}, {"time": 58200, "pitch": 74, "duration": 720, "velocity": 100}, {"time": 60960, "pitch": 57, "duration": 360, "velocity": 110}, {"time": 61320, "pitch": 62, "duration": 240, "velocity": 100}, {"time": 61380, "pitch": 65, "duration": 240, "velocity": 106}, {"time": 61440, "pitch": 69, "duration": 240, "velocity": 110}, {"time": 61680, "pitch": 70, "duration": 220, "velocity": 110}, {"time": 61920, "pitch": 69, "duration": 100, "velocity": 110}, {"time": 62040, "pitch": 65, "duration": 100, "velocity": 100}, {"time": 62160, "pitch": 62, "duration": 1420, "velocity": 100}, {"time": 63720, "pitch": 62, "duration": 240, "velocity": 100}, {"time": 63780, "pitch": 67, "duration": 240, "velocity": 106}, {"time": 63840, "pitch": 70, "duration": 100, "velocity": 110}, {"time": 63960, "pitch": 72, "duration": 100, "velocity": 110}, {"time": 64080, "pitch": 72, "duration": 240, "velocity": 110}, {"time": 64320, "pitch": 74, "duration": 480, "velocity": 100}, {"time": 65160, "pitch": 67, "duration": 100, "velocity": 100}, {"time": 65280, "pitch": 79, "duration": 340, "velocity": 110}, {"time": 65640, "pitch": 65, "duration": 100, "velocity": 100}, {"time": 65760, "pitch": 77, "duration": 340, "velocity": 110}, {"time": 66120, "pitch": 63, "duration": 100, "velocity": 100}, {"time": 66240, "pitch": 75, "duration": 340, "velocity": 110}, {"time": 66600, "pitch": 62, "duration": 100, "velocity": 100}, {"time": 66720, "pitch": 74, "duration": 340, "velocity": 110}, {"time": 67080, "pitch": 60, "duration": 100, "velocity": 100}, {"time": 67200, "pitch": 60, "duration": 100, "velocity": 100}, {"time": 67200, "pitch": 72, "duration": 100, "velocity": 100}, {"time": 67440, "pitch": 58, "duration": 100, "velocity": 100}, {"time": 67440, "pitch": 70, "duration": 100, "velocity": 100}, {"time": 67680, "pitch": 60, "duration": 100, "velocity": 100}, {"time": 67680, "pitch": 72, "duration": 100, "velocity": 100}, {"time": 67920, "pitch": 60, "duration": 200, "velocity": 100}, {"time": 67920, "pitch": 72, "duration": 200, "velocity": 90}, {"time": 68280, "pitch": 60, "duration": 100, "velocity": 110}, {"time": 68280, "pitch": 72, "duration": 100, "velocity": 100}, {"time": 68520, "pitch": 58, "duration": 100, "velocity": 100}, {"time": 68520, "pitch": 70, "duration": 100, "velocity": 90}, {"time": 68640, "pitch": 60, "duration": 100, "velocity": 110}, {"time": 68640, "pitch": 72, "duration": 100, "velocity": 100}, {"time": 68880, "pitch": 58, "duration": 100, "velocity": 100}, {"time": 68880, "pitch": 70, "duration": 100, "velocity": 90}, {"time": 69120, "pitch": 57, "duration": 100, "velocity": 110}, {"time": 69120, "pitch": 69, "duration": 100, "velocity": 100}, {"time": 69360, "pitch": 58, "duration": 220, "velocity": 100}, {"time": 69360, "pitch": 70, "duration": 220, "velocity": 90}, {"time": 69720, "pitch": 60, "duration": 220, "velocity": 100}, {"time": 69720, "pitch": 72, "duration": 220, "velocity": 90}, {"time": 70080, "pitch": 62, "duration": 220, "velocity": 100}, {"time": 70080, "pitch": 74, "duration": 220, "velocity": 90}, {"time": 70320, "pitch": 62, "duration": 120, "velocity": 100}, {"time": 70320, "pitch": 74, "duration": 120, "velocity": 90}, {"time": 103440, "pitch": 58, "duration": 450, "velocity": 100}, {"time": 103440, "pitch": 62, "duration": 450, "velocity": 90}, {"time": 103450, "pitch": 65, "duration": 450, "velocity": 90}, {"time": 103450, "pitch": 69, "duration": 450, "velocity": 110}, {"time": 105480, "pitch": 62, "duration": 240, "velocity": 100}, {"time": 105540, "pitch": 67, "duration": 240, "velocity": 106}, {"time": 105600, "pitch": 70, "duration": 100, "velocity": 110}, {"time": 105720, "pitch": 72, "duration": 100, "velocity": 110}, {"time": 105840, "pitch": 72, "duration": 240, "velocity": 110}, {"time": 106080, "pitch": 74, "duration": 480, "velocity": 100}, {"time": 106920, "pitch": 67, "duration": 100, "velocity": 100}, {"time": 107040, "pitch": 79, "duration": 340, "velocity": 110}, {"time": 107400, "pitch": 65, "duration": 100, "velocity": 100}, {"time": 107520, "pitch": 77, "duration": 340, "velocity": 110}, {"time": 107880, "pitch": 63, "duration": 100, "velocity": 100}, {"time": 108000, "pitch": 75, "duration": 340, "velocity": 110}, {"time": 108360, "pitch": 62, "duration": 100, "velocity": 100}, {"time": 108480, "pitch": 74, "duration": 340, "velocity": 110}, {"time": 108840, "pitch": 60, "duration": 100, "velocity": 100}, {"time": 108960, "pitch": 60, "duration": 100, "velocity": 100}, {"time": 108960, "pitch": 72, "duration": 100, "velocity": 100}, {"time": 109200, "pitch": 58, "duration": 100, "velocity": 100}, {"time": 109200, "pitch": 70, "duration": 100, "velocity": 100}, {"time": 109440, "pitch": 60, "duration": 100, "velocity": 100}, {"time": 109440, "pitch": 72, "duration": 100, "velocity": 100}, {"time": 109680, "pitch": 60, "duration": 200, "velocity": 100}, {"time": 109680, "pitch": 72, "duration": 200, "velocity": 90}, {"time": 110040, "pitch": 60, "duration": 100, "velocity": 110}, {"time": 110040, "pitch": 72, "duration": 100, "velocity": 100}, {"time": 110280, "pitch": 58, "duration": 100, "velocity": 100}, {"time": 110280, "pitch": 70, "duration": 100, "velocity": 90}, {"time": 110400, "pitch": 60, "duration": 100, "velocity": 110}, {"time": 110400, "pitch": 72, "duration": 100, "velocity": 100}, {"time": 110640, "pitch": 58, "duration": 100, "velocity": 100}, {"time": 110640, "pitch": 70, "duration": 100, "velocity": 90}, {"time": 110880, "pitch": 57, "duration": 100, "velocity": 110}, {"time": 110880, "pitch": 69, "duration": 100, "velocity": 100}, {"time": 111120, "pitch": 58, "duration": 220, "velocity": 100}, {"time": 111120, "pitch": 70, "duration": 220, "velocity": 90}, {"time": 111480, "pitch": 60, "duration": 220, "velocity": 100}, {"time": 111480, "pitch": 72, "duration": 220, "velocity": 90}, {"time": 111840, "pitch": 62, "duration": 220, "velocity": 100}, {"time": 111840, "pitch": 74, "duration": 220, "velocity": 90}, {"time": 112080, "pitch": 62, "duration": 120, "velocity": 100}, {"time": 112080, "pitch": 74, "duration": 120, "velocity": 90}], "annotations": [{"time": 990, "annotation": {"number": 7, "value": 90}, "group": "control_change"}, {"time": 1000, "annotation": {"number": 11, "value": 100}, "group": "control_change"}, {"time": 1010, "annotation": {"number": 10, "value": 100}, "group": "control_change"}, {"time": 1020, "annotation": {"number": 91, "value": 70}, "group": "control_change"}, {"time": 1030, "annotation": {"number": 93, "value": 10}, "group": "control_change"}, {"time": 1040, "annotation": {"number": 101, "value": 0}, "group": "control_change"}, {"time": 1050, "annotation": {"number": 100, "value": 0}, "group": "control_change"}, {"time": 1060, "annotation": {"number": 6, "value": 12}, "group": "control_change"}, {"time": 1070, "annotation": {"number": 101, "value": 127}, "group": "control_change"}, {"time": 1080, "annotation": {"number": 100, "value": 127}, "group": "control_change"}]}, {"program": 0, "is_drum": true, "name": "DRUMS", "notes": [{"time": 3120, "pitch": 50, "duration": 10, "velocity": 106}, {"time": 3360, "pitch": 36, "duration": 10, "velocity": 92}, {"time": 3360, "pitch": 42, "duration": 10, "velocity": 92}, {"time": 3480, "pitch": 47, "duration": 10, "velocity": 92}, {"time": 3720, "pitch": 36, "duration": 10, "velocity": 92}, {"time": 3720, "pitch": 42, "duration": 10, "velocity": 92}, {"time": 3840, "pitch": 43, "duration": 10, "velocity": 92}, {"time": 3960, "pitch": 43, "duration": 10, "velocity": 92}, {"time": 4080, "pitch": 40, "duration": 10, "velocity": 106}, {"time": 4320, "pitch": 36, "duration": 10, "velocity": 106}, {"time": 4320, "pitch": 49, "duration": 10, "velocity": 78}, {"time": 4800, "pitch": 44, "duration": 10, "velocity": 78}, {"time": 5040, "pitch": 44, "duration": 10, "velocity": 78}, {"time": 5280, "pitch": 40, "duration": 10, "velocity": 78}, {"time": 5280, "pitch": 44, "duration": 10, "velocity": 78}, {"time": 5300, "pitch": 40, "duration": 10, "velocity": 106}, {"time": 5520, "pitch": 36, "duration": 10, "velocity": 106}, {"time": 5520, "pitch": 46, "duration": 10, "velocity": 92}, {"time": 5640, "pitch": 42, "duration": 10, "velocity": 78}, {"time": 5880, "pitch": 36, "duration": 10, "velocity": 92}, {"time": 5880, "pitch": 46, "duration": 10, "velocity": 92}, {"time": 6000, "pitch": 42, "duration": 10, "velocity": 78}, {"time": 6120, "pitch": 40, "duration": 10, "velocity": 92}, {"time": 6240, "pitch": 47, "duration": 10, "velocity": 92}, {"time": 6360, "pitch": 40, "duration": 10, "velocity": 106}, {"time": 6480, "pitch": 43, "duration": 10, "velocity": 92}, {"time": 6600, "pitch": 43, "duration": 10, "velocity": 78}, {"time": 6720, "pitch": 36, "duration": 10, "velocity": 106}, {"time": 6720, "pitch": 57, "duration": 10, "velocity": 78}, {"time": 7200, "pitch": 44, "duration": 10, "velocity": 78}, {"time": 7440, "pitch": 44, "duration": 10, "velocity": 78}, {"time": 7680, "pitch": 40, "duration": 10, "velocity": 78}, {"time": 7680, "pitch": 44, "duration": 10, "velocity": 78}, {"time": 7700, "pitch": 40, "duration": 10, "velocity": 106}, {"time": 7920, "pitch": 36, "duration": 10, "velocity": 106}, {"time": 7920, "pitch": 46, "duration": 10, "velocity": 92}, {"time": 8040, "pitch": 42, "duration": 10, "velocity": 78}, {"time": 8280, "pitch": 36, "duration": 10, "velocity": 92}, {"time": 8280, "pitch": 46, "duration": 10, "velocity": 92}, {"time": 8400, "pitch": 42, "duration": 10, "velocity": 78}, {"time": 8520, "pitch": 50, "duration": 10, "velocity": 78}, {"time": 8580, "pitch": 50, "duration": 10, "velocity": 106}, {"time": 8640, "pitch": 50, "duration": 10, "velocity": 106}, {"time": 8760, "pitch": 50, "duration": 10, "velocity": 92}, {"time": 8880, "pitch": 47, "duration": 10, "velocity": 92}, {"time": 9000, "pitch": 43, "duration": 10, "velocity": 92}, {"time": 9120, "pitch": 36, "duration": 10, "velocity": 106}, {"time": 9120, "pitch": 49, "duration": 10, "velocity": 78}, {"time": 9600, "pitch": 44, "duration": 10, "velocity": 78}, {"time": 9840, "pitch": 44, "duration": 10, "velocity": 78}, {"time": 10080, "pitch": 40, "duration": 10, "velocity": 78}, {"time": 10080, "pitch": 44, "duration": 10, "velocity": 78}, {"time": 10100, "pitch": 40, "duration": 10, "velocity": 106}, {"time": 10320, "pitch": 36, "duration": 10, "velocity": 106}, {"time": 10320, "pitch": 46, "duration": 10, "velocity": 92}, {"time": 10440, "pitch": 42, "duration": 10, "velocity": 78}, {"time": 10680, "pitch": 36, "duration": 10, "velocity": 92}, {"time": 10680, "pitch": 46, "duration": 10, "velocity": 92}, {"time": 10800, "pitch": 42, "duration": 10, "velocity": 78}, {"time": 10920, "pitch": 40, "duration": 10, "velocity": 92}, {"time": 11040, "pitch": 47, "duration": 10, "velocity": 92}, {"time": 11160, "pitch": 40, "duration": 10, "velocity": 106}, {"time": 11280, "pitch": 43, "duration": 10, "velocity": 92}, {"time": 11400, "pitch": 43, "duration": 10, "velocity": 78}, {"time": 11520, "pitch": 36, "duration": 10, "velocity": 106}, {"time": 11520, "pitch": 57, "duration": 10, "velocity": 78}, {"time": 11760, "pitch": 36, "duration": 10, "velocity": 92}, {"time": 11760, "pitch": 44, "duration": 10, "velocity": 78}, {"time": 11880, "pitch": 40, "duration": 10, "velocity": 106}, {"time": 12000, "pitch": 44, "duration": 10, "velocity": 78}, {"time": 12240, "pitch": 36, "duration": 10, "velocity": 92}, {"time": 12240, "pitch": 44, "duration": 10, "velocity": 78}, {"time": 12480, "pitch": 40, "duration": 10, "velocity": 106}, {"time": 12480, "pitch": 44, "duration": 10, "velocity": 78}, {"time": 12720, "pitch": 36, "duration": 10, "velocity": 106}, {"time": 12720, "pitch": 46, "duration": 10, "velocity": 92}, {"time": 12840, "pitch": 42, "duration": 10, "velocity": 78}, {"time": 13080, "pitch": 36, "duration": 10, "velocity": 92}, {"time": 13080, "pitch": 46, "duration": 10, "velocity": 92}, {"time": 13200, "pitch": 42, "duration": 10, "velocity": 78}, {"time": 13320, "pitch": 36, "duration": 10, "velocity": 92}, {"time": 13320, "pitch": 52, "duration": 10, "velocity": 92}, {"time": 13560, "pitch": 36, "duration": 10, "velocity": 92}, {"time": 13560, "pitch": 52, "duration": 10, "velocity": 92}, {"time": 13800, "pitch": 40, "duration": 10, "velocity": 106}, {"time": 13920, "pitch": 36, "duration": 10, "velocity": 106}, {"time": 13920, "pitch": 57, "duration": 10, "velocity": 78}, {"time": 14160, "pitch": 42, "duration": 10, "velocity": 78}, {"time": 14280, "pitch": 40, "duration": 10, "velocity": 106}, {"time": 14400, "pitch": 42, "duration": 10, "velocity": 92}, {"time": 14640, "pitch": 36, "duration": 10, "velocity": 92}, {"time": 14640, "pitch": 42, "duration": 10, "velocity": 78}, {"time": 14880, "pitch": 40, "duration": 10, "velocity": 106}, {"time": 14880, "pitch": 42, "duration": 10, "velocity": 92}, {"time": 15120, "pitch": 36, "duration": 10, "velocity": 106}, {"time": 15120, "pitch": 42, "duration": 10, "velocity": 78}, {"time": 15360, "pitch": 42, "duration": 10, "velocity": 92}, {"time": 15480, "pitch": 40, "duration": 10, "velocity": 106}, {"time": 15600, "pitch": 42, "duration": 10, "velocity": 78}, {"time": 15840, "pitch": 40, "duration": 10, "velocity": 106}, {"time": 15840, "pitch": 42, "duration": 10, "velocity": 92}, {"time": 16080, "pitch": 40, "duration": 10, "velocity": 106}, {"time": 16080, "pitch": 46, "duration": 10, "velocity": 92}, {"time": 16320, "pitch": 36, "duration": 10, "velocity": 106}, {"time": 16320, "pitch": 44, "duration": 10, "velocity": 22}, {"time": 16320, "pitch": 49, "duration": 10, "velocity": 78}, {"time": 16560, "pitch": 42, "duration": 10, "velocity": 78}, {"time": 16680, "pitch": 40, "duration": 10, "velocity": 106}, {"time": 16800, "pitch": 42, "duration": 10, "velocity": 92}, {"time": 17040, "pitch": 36, "duration": 10, "velocity": 92}, {"time": 17040, "pitch": 42, "duration": 10, "velocity": 78}, {"time": 17280, "pitch": 40, "duration": 10, "velocity": 106}, {"time": 17280, "pitch": 42, "duration": 10, "velocity": 92}, {"time": 17520, "pitch": 36, "duration": 10, "velocity": 106}, {"time": 17520, "pitch": 42, "duration": 10, "velocity": 78}, {"time": 17760, "pitch": 42, "duration": 10, "velocity": 92}, {"time": 17880, "pitch": 40, "duration": 10, "velocity": 106}, {"time": 18000, "pitch": 42, "duration": 10, "velocity": 78}, {"time": 18240, "pitch": 40, "duration": 10, "velocity": 106}, {"time": 18240, "pitch": 42, "duration": 10, "velocity": 92}, {"time": 18480, "pitch": 40, "duration": 10, "velocity": 106}, {"time": 18480, "pitch": 46, "duration": 10, "velocity": 92}, {"time": 18720, "pitch": 36, "duration": 10, "velocity": 106}, {"time": 18720, "pitch": 44, "duration": 10, "velocity": 22}, {"time": 18720, "pitch": 57, "duration": 10, "velocity": 78}, {"time": 18960, "pitch": 42, "duration": 10, "velocity": 78}, {"time": 19080, "pitch": 40, "duration": 10, "velocity": 106}, {"time": 19200, "pitch": 42, "duration": 10, "velocity": 92}, {"time": 19440, "pitch": 36, "duration": 10, "velocity": 92}, {"time": 19440, "pitch": 42, "duration": 10, "velocity": 78}, {"time": 19680, "pitch": 40, "duration": 10, "velocity": 106}, {"time": 19680, "pitch": 42, "duration": 10, "velocity": 92}, {"time": 19920, "pitch": 36, "duration": 10, "velocity": 106}, {"time": 19920, "pitch": 42, "duration": 10, "velocity": 78}, {"time": 20160, "pitch": 42, "duration": 10, "velocity": 92}, {"time": 20280, "pitch": 40, "duration": 10, "velocity": 106}, {"time": 20400, "pitch": 42, "duration": 10, "velocity": 78}, {"time": 20640, "pitch": 40, "duration": 10, "velocity": 106}, {"time": 20640, "pitch": 42, "duration": 10, "velocity": 92}, {"time": 20880, "pitch": 40, "duration": 10, "velocity": 106}, {"time": 20880, "pitch": 46, "duration": 10, "velocity": 92}, {"time": 21120, "pitch": 36, "duration": 10, "velocity": 106}, {"time": 21120, "pitch": 44, "duration": 10, "velocity": 22}, {"time": 21120, "pitch": 49, "duration": 10, "velocity": 78}, {"time": 21360, "pitch": 42, "duration": 10, "velocity": 78}, {"time": 21480, "pitch": 40, "duration": 10, "velocity": 106}, {"time": 21600, "pitch": 42, "duration": 10, "velocity": 92}, {"time": 21840, "pitch": 36, "duration": 10, "velocity": 92}, {"time": 21840, "pitch": 42, "duration": 10, "velocity": 78}, {"time": 22080, "pitch": 40, "duration": 10, "velocity": 78}, {"time": 22080, "pitch": 42, "duration": 10, "velocity": 92}, {"time": 22100, "pitch": 40, "duration": 10, "velocity": 106}, {"time": 22320, "pitch": 36, "duration": 10, "velocity": 106}, {"time": 22320, "pitch": 57, "duration": 10, "velocity": 78}, {"time": 22680, "pitch": 36, "duration": 10, "velocity": 106}, {"time": 22680, "pitch": 49, "duration": 10, "velocity": 78}, {"time": 23280, "pitch": 44, "duration": 10, "velocity": 64}, {"time": 23520, "pitch": 44, "duration": 10, "velocity": 64}, {"time": 23760, "pitch": 44, "duration": 10, "velocity": 64}, {"time": 24000, "pitch": 50, "duration": 10, "velocity": 64}, {"time": 24020, "pitch": 50, "duration": 10, "velocity": 78}, {"time": 24240, "pitch": 47, "duration": 10, "velocity": 50}, {"time": 24260, "pitch": 47, "duration": 10, "velocity": 64}, {"time": 24480, "pitch": 43, "duration": 10, "velocity": 36}, {"time": 24500, "pitch": 43, "duration": 10, "velocity": 50}, {"time": 24720, "pitch": 52, "duration": 10, "velocity": 50}, {"time": 47280, "pitch": 36, "duration": 10, "velocity": 92}, {"time": 47280, "pitch": 46, "duration": 10, "velocity": 78}, {"time": 47400, "pitch": 42, "duration": 10, "velocity": 78}, {"time": 47760, "pitch": 36, "duration": 10, "velocity": 92}, {"time": 47760, "pitch": 49, "duration": 10, "velocity": 64}, {"time": 48120, "pitch": 36, "duration": 10, "velocity": 64}, {"time": 48240, "pitch": 42, "duration": 10, "velocity": 92}, {"time": 48480, "pitch": 40, "duration": 10, "velocity": 106}, {"time": 48720, "pitch": 42, "duration": 10, "velocity": 92}, {"time": 48960, "pitch": 36, "duration": 10, "velocity": 64}, {"time": 49200, "pitch": 36, "duration": 10, "velocity": 92}, {"time": 49200, "pitch": 42, "duration": 10, "velocity": 92}, {"time": 49560, "pitch": 36, "duration": 10, "velocity": 64}, {"time": 49680, "pitch": 42, "duration": 10, "velocity": 92}, {"time": 49920, "pitch": 40, "duration": 10, "velocity": 106}, {"time": 50160, "pitch": 36, "duration": 10, "velocity": 92}, {"time": 50160, "pitch": 46, "duration": 10, "velocity": 78}, {"time": 50280, "pitch": 42, "duration": 10, "velocity": 78}, {"time": 50640, "pitch": 36, "duration": 10, "velocity": 92}, {"time": 50640, "pitch": 57, "duration": 10, "velocity": 64}, {"time": 51000, "pitch": 36, "duration": 10, "velocity": 64}, {"time": 51120, "pitch": 42, "duration": 10, "velocity": 92}, {"time": 51360, "pitch": 40, "duration": 10, "velocity": 106}, {"time": 51600, "pitch": 42, "duration": 10, "velocity": 92}, {"time": 51840, "pitch": 36, "duration": 10, "velocity": 64}, {"time": 52080, "pitch": 36, "duration": 10, "velocity": 92}, {"time": 52080, "pitch": 42, "duration": 10, "velocity": 92}, {"time": 52440, "pitch": 36, "duration": 10, "velocity": 64}, {"time": 52560, "pitch": 42, "duration": 10, "velocity": 92}, {"time": 52800, "pitch": 40, "duration": 10, "velocity": 106}, {"time": 53040, "pitch": 36, "duration": 10, "velocity": 92}, {"time": 53160, "pitch": 36, "duration": 10, "velocity": 64}, {"time": 53280, "pitch": 43, "duration": 10, "velocity": 92}, {"time": 53300, "pitch": 47, "duration": 10, "velocity": 92}, {"time": 53520, "pitch": 36, "duration": 10, "velocity": 92}, {"time": 53520, "pitch": 49, "duration": 10, "velocity": 64}, {"time": 53880, "pitch": 36, "duration": 10, "velocity": 64}, {"time": 54000, "pitch": 42, "duration": 10, "velocity": 92}, {"time": 54240, "pitch": 40, "duration": 10, "velocity": 106}, {"time": 54480, "pitch": 42, "duration": 10, "velocity": 92}, {"time": 54720, "pitch": 36, "duration": 10, "velocity": 64}, {"time": 54960, "pitch": 36, "duration": 10, "velocity": 92}, {"time": 54960, "pitch": 42, "duration": 10, "velocity": 92}, {"time": 55320, "pitch": 36, "duration": 10, "velocity": 64}, {"time": 55440, "pitch": 42, "duration": 10, "velocity": 92}, {"time": 55680, "pitch": 40, "duration": 10, "velocity": 106}, {"time": 55920, "pitch": 36, "duration": 10, "velocity": 92}, {"time": 55920, "pitch": 46, "duration": 10, "velocity": 78}, {"time": 56040, "pitch": 42, "duration": 10, "velocity": 78}, {"time": 56400, "pitch": 36, "duration": 10, "velocity": 92}, {"time": 56400, "pitch": 57, "duration": 10, "velocity": 64}, {"time": 56640, "pitch": 42, "duration": 10, "velocity": 92}, {"time": 56760, "pitch": 36, "duration": 10, "velocity": 64}, {"time": 56880, "pitch": 42, "duration": 10, "velocity": 92}, {"time": 57120, "pitch": 40, "duration": 10, "velocity": 106}, {"time": 57360, "pitch": 42, "duration": 10, "velocity": 92}, {"time": 57600, "pitch": 36, "duration": 10, "velocity": 64}, {"time": 57840, "pitch": 36, "duration": 10, "velocity": 92}, {"time": 57840, "pitch": 42, "duration": 10, "velocity": 92}, {"time": 58200, "pitch": 36, "duration": 10, "velocity": 64}, {"time": 58320, "pitch": 42, "duration": 10, "velocity": 92}, {"time": 58560, "pitch": 40, "duration": 10, "velocity": 106}, {"time": 58560, "pitch": 42, "duration": 10, "velocity": 92}, {"time": 58800, "pitch": 36, "duration": 10, "velocity": 92}, {"time": 58800, "pitch": 42, "duration": 10, "velocity": 78}, {"time": 58920, "pitch": 40, "duration": 10, "velocity": 106}, {"time": 59040, "pitch": 36, "duration": 10, "velocity": 92}, {"time": 59040, "pitch": 42, "duration": 10, "velocity": 92}, {"time": 59280, "pitch": 36, "duration": 10, "velocity": 92}, {"time": 59280, "pitch": 49, "duration": 10, "velocity": 64}, {"time": 60000, "pitch": 44, "duration": 10, "velocity": 92}, {"time": 60720, "pitch": 36, "duration": 10, "velocity": 92}, {"time": 60720, "pitch": 57, "duration": 10, "velocity": 64}, {"time": 61440, "pitch": 44, "duration": 10, "velocity": 92}, {"time": 62160, "pitch": 36, "duration": 10, "velocity": 92}, {"time": 62160, "pitch": 49, "duration": 10, "velocity": 64}, {"time": 62880, "pitch": 44, "duration": 10, "velocity": 92}, {"time": 63600, "pitch": 36, "duration": 10, "velocity": 92}, {"time": 63600, "pitch": 57, "duration": 10, "velocity": 64}, {"time": 64320, "pitch": 40, "duration": 10, "velocity": 106}, {"time": 64440, "pitch": 36, "duration": 10, "velocity": 92}, {"time": 64560, "pitch": 40, "duration": 10, "velocity": 106}, {"time": 64680, "pitch": 36, "duration": 10, "velocity": 92}, {"time": 64800, "pitch": 43, "duration": 10, "velocity": 92}, {"time": 64920, "pitch": 40, "duration": 10, "velocity": 106}, {"time": 65040, "pitch": 36, "duration": 10, "velocity": 92}, {"time": 65040, "pitch": 46, "duration": 10, "velocity": 92}, {"time": 65160, "pitch": 44, "duration": 10, "velocity": 50}, {"time": 65400, "pitch": 36, "duration": 10, "velocity": 78}, {"time": 65520, "pitch": 42, "duration": 10, "velocity": 92}, {"time": 65760, "pitch": 40, "duration": 10, "velocity": 106}, {"time": 66000, "pitch": 42, "duration": 10, "velocity": 92}, {"time": 66240, "pitch": 36, "duration": 10, "velocity": 78}, {"time": 66480, "pitch": 36, "duration": 10, "velocity": 92}, {"time": 66480, "pitch": 42, "duration": 10, "velocity": 92}, {"time": 66840, "pitch": 36, "duration": 10, "velocity": 78}, {"time": 66960, "pitch": 42, "duration": 10, "velocity": 92}, {"time": 67200, "pitch": 40, "duration": 10, "velocity": 106}, {"time": 67200, "pitch": 46, "duration": 10, "velocity": 92}, {"time": 67440, "pitch": 47, "duration": 10, "velocity": 92}, {"time": 67560, "pitch": 47, "duration": 10, "velocity": 92}, {"time": 67680, "pitch": 43, "duration": 10, "velocity": 92}, {"time": 67920, "pitch": 36, "duration": 10, "velocity": 106}, {"time": 67920, "pitch": 57, "duration": 10, "velocity": 78}, {"time": 68160, "pitch": 42, "duration": 10, "velocity": 64}, {"time": 68280, "pitch": 36, "duration": 10, "velocity": 78}, {"time": 68400, "pitch": 42, "duration": 10, "velocity": 92}, {"time": 68640, "pitch": 40, "duration": 10, "velocity": 106}, {"time": 68640, "pitch": 42, "duration": 10, "velocity": 64}, {"time": 68880, "pitch": 42, "duration": 10, "velocity": 92}, {"time": 69120, "pitch": 36, "duration": 10, "velocity": 78}, {"time": 69120, "pitch": 42, "duration": 10, "velocity": 64}, {"time": 69360, "pitch": 36, "duration": 10, "velocity": 106}, {"time": 69360, "pitch": 42, "duration": 10, "velocity": 92}, {"time": 69600, "pitch": 42, "duration": 10, "velocity": 64}, {"time": 69720, "pitch": 36, "duration": 10, "velocity": 92}, {"time": 69840, "pitch": 42, "duration": 10, "velocity": 92}, {"time": 70080, "pitch": 36, "duration": 10, "velocity": 78}, {"time": 70080, "pitch": 40, "duration": 10, "velocity": 106}, {"time": 70080, "pitch": 46, "duration": 10, "velocity": 92}, {"time": 70200, "pitch": 42, "duration": 10, "velocity": 50}, {"time": 70320, "pitch": 36, "duration": 10, "velocity": 78}, {"time": 70320, "pitch": 40, "duration": 10, "velocity": 106}, {"time": 70320, "pitch": 46, "duration": 10, "velocity": 92}, {"time": 70440, "pitch": 42, "duration": 10, "velocity": 50}, {"time": 70800, "pitch": 36, "duration": 10, "velocity": 106}, {"time": 70800, "pitch": 57, "duration": 10, "velocity": 78}, {"time": 71040, "pitch": 42, "duration": 10, "velocity": 78}, {"time": 71160, "pitch": 40, "duration": 10, "velocity": 106}, {"time": 71280, "pitch": 42, "duration": 10, "velocity": 92}, {"time": 71520, "pitch": 36, "duration": 10, "velocity": 92}, {"time": 71520, "pitch": 42, "duration": 10, "velocity": 78}, {"time": 71760, "pitch": 40, "duration": 10, "velocity": 106}, {"time": 71760, "pitch": 42, "duration": 10, "velocity": 92}, {"time": 72000, "pitch": 36, "duration": 10, "velocity": 106}, {"time": 72000, "pitch": 42, "duration": 10, "velocity": 78}, {"time": 72240, "pitch": 42, "duration": 10, "velocity": 92}, {"time": 72360, "pitch": 40, "duration": 10, "velocity": 106}, {"time": 72480, "pitch": 42, "duration": 10, "velocity": 78}, {"time": 72600, "pitch": 36, "duration": 10, "velocity": 78}, {"time": 72720, "pitch": 40, "duration": 10, "velocity": 106}, {"time": 72720, "pitch": 42, "duration": 10, "velocity": 92}, {"time": 72960, "pitch": 40, "duration": 10, "velocity": 106}, {"time": 72960, "pitch": 42, "duration": 10, "velocity": 92}, {"time": 73200, "pitch": 36, "duration": 10, "velocity": 106}, {"time": 73200, "pitch": 49, "duration": 10, "velocity": 78}, {"time": 73440, "pitch": 42, "duration": 10, "velocity": 78}, {"time": 73560, "pitch": 40, "duration": 10, "velocity": 106}, {"time": 73680, "pitch": 42, "duration": 10, "velocity": 92}, {"time": 73920, "pitch": 36, "duration": 10, "velocity": 92}, {"time": 73920, "pitch": 42, "duration": 10, "velocity": 78}, {"time": 74160, "pitch": 40, "duration": 10, "velocity": 106}, {"time": 74160, "pitch": 42, "duration": 10, "velocity": 92}, {"time": 74400, "pitch": 36, "duration": 10, "velocity": 106}, {"time": 74400, "pitch": 42, "duration": 10, "velocity": 78}, {"time": 74640, "pitch": 42, "duration": 10, "velocity": 92}, {"time": 74760, "pitch": 40, "duration": 10, "velocity": 106}, {"time": 74880, "pitch": 42, "duration": 10, "velocity": 78}, {"time": 75000, "pitch": 36, "duration": 10, "velocity": 78}, {"time": 75120, "pitch": 40, "duration": 10, "velocity": 106}, {"time": 75120, "pitch": 42, "duration": 10, "velocity": 92}, {"time": 75360, "pitch": 40, "duration": 10, "velocity": 106}, {"time": 75360, "pitch": 42, "duration": 10, "velocity": 92}, {"time": 75600, "pitch": 36, "duration": 10, "velocity": 106}, {"time": 75600, "pitch": 57, "duration": 10, "velocity": 78}, {"time": 75840, "pitch": 42, "duration": 10, "velocity": 78}, {"time": 75960, "pitch": 40, "duration": 10, "velocity": 106}, {"time": 76080, "pitch": 42, "duration": 10, "velocity": 92}, {"time": 76320, "pitch": 36, "duration": 10, "velocity": 92}, {"time": 76320, "pitch": 42, "duration": 10, "velocity": 78}, {"time": 76560, "pitch": 40, "duration": 10, "velocity": 106}, {"time": 76560, "pitch": 42, "duration": 10, "velocity": 92}, {"time": 76800, "pitch": 36, "duration": 10, "velocity": 106}, {"time": 76800, "pitch": 42, "duration": 10, "velocity": 78}, {"time": 77040, "pitch": 42, "duration": 10, "velocity": 92}, {"time": 77160, "pitch": 40, "duration": 10, "velocity": 106}, {"time": 77280, "pitch": 42, "duration": 10, "velocity": 78}, {"time": 77400, "pitch": 36, "duration": 10, "velocity": 78}, {"time": 77520, "pitch": 40, "duration": 10, "velocity": 106}, {"time": 77520, "pitch": 42, "duration": 10, "velocity": 92}, {"time": 77760, "pitch": 40, "duration": 10, "velocity": 106}, {"time": 77760, "pitch": 42, "duration": 10, "velocity": 92}, {"time": 78000, "pitch": 36, "duration": 10, "velocity": 106}, {"time": 78000, "pitch": 49, "duration": 10, "velocity": 78}, {"time": 78240, "pitch": 42, "duration": 10, "velocity": 78}, {"time": 78360, "pitch": 40, "duration": 10, "velocity": 106}, {"time": 78480, "pitch": 42, "duration": 10, "velocity": 92}, {"time": 78720, "pitch": 36, "duration": 10, "velocity": 92}, {"time": 78720, "pitch": 42, "duration": 10, "velocity": 78}, {"time": 78960, "pitch": 40, "duration": 10, "velocity": 106}, {"time": 78960, "pitch": 42, "duration": 10, "velocity": 92}, {"time": 79200, "pitch": 36, "duration": 10, "velocity": 106}, {"time": 79200, "pitch": 42, "duration": 10, "velocity": 78}, {"time": 79440, "pitch": 42, "duration": 10, "velocity": 92}, {"time": 79560, "pitch": 40, "duration": 10, "velocity": 106}, {"time": 79680, "pitch": 42, "duration": 10, "velocity": 78}, {"time": 79800, "pitch": 36, "duration": 10, "velocity": 78}, {"time": 79920, "pitch": 47, "duration": 10, "velocity": 92}, {"time": 79920, "pitch": 50, "duration": 10, "velocity": 92}, {"time": 80160, "pitch": 43, "duration": 10, "velocity": 92}, {"time": 80160, "pitch": 47, "duration": 10, "velocity": 92}, {"time": 80400, "pitch": 36, "duration": 10, "velocity": 106}, {"time": 80400, "pitch": 57, "duration": 10, "velocity": 78}, {"time": 80640, "pitch": 42, "duration": 10, "velocity": 78}, {"time": 80760, "pitch": 40, "duration": 10, "velocity": 106}, {"time": 80880, "pitch": 42, "duration": 10, "velocity": 92}, {"time": 81120, "pitch": 36, "duration": 10, "velocity": 92}, {"time": 81120, "pitch": 42, "duration": 10, "velocity": 78}, {"time": 81360, "pitch": 40, "duration": 10, "velocity": 106}, {"time": 81360, "pitch": 42, "duration": 10, "velocity": 92}, {"time": 81600, "pitch": 36, "duration": 10, "velocity": 106}, {"time": 81600, "pitch": 42, "duration": 10, "velocity": 78}, {"time": 81840, "pitch": 42, "duration": 10, "velocity": 92}, {"time": 81960, "pitch": 40, "duration": 10, "velocity": 106}, {"time": 82080, "pitch": 42, "duration": 10, "velocity": 78}, {"time": 82200, "pitch": 36, "duration": 10, "velocity": 78}, {"time": 82320, "pitch": 40, "duration": 10, "velocity": 106}, {"time": 82320, "pitch": 42, "duration": 10, "velocity": 92}, {"time": 82560, "pitch": 40, "duration": 10, "velocity": 106}, {"time": 82560, "pitch": 42, "duration": 10, "velocity": 92}, {"time": 82800, "pitch": 36, "duration": 10, "velocity": 106}, {"time": 82800, "pitch": 49, "duration": 10, "velocity": 78}, {"time": 83040, "pitch": 42, "duration": 10, "velocity": 78}, {"time": 83160, "pitch": 40, "duration": 10, "velocity": 106}, {"time": 83280, "pitch": 42, "duration": 10, "velocity": 92}, {"time": 83520, "pitch": 36, "duration": 10, "velocity": 92}, {"time": 83520, "pitch": 42, "duration": 10, "velocity": 78}, {"time": 83760, "pitch": 40, "duration": 10, "velocity": 106}, {"time": 83760, "pitch": 42, "duration": 10, "velocity": 92}, {"time": 84000, "pitch": 36, "duration": 10, "velocity": 106}, {"time": 84000, "pitch": 42, "duration": 10, "velocity": 78}, {"time": 84240, "pitch": 42, "duration": 10, "velocity": 92}, {"time": 84360, "pitch": 40, "duration": 10, "velocity": 106}, {"time": 84480, "pitch": 42, "duration": 10, "velocity": 78}, {"time": 84600, "pitch": 36, "duration": 10, "velocity": 78}, {"time": 84720, "pitch": 40, "duration": 10, "velocity": 106}, {"time": 84720, "pitch": 42, "duration": 10, "velocity": 92}, {"time": 84960, "pitch": 40, "duration": 10, "velocity": 106}, {"time": 84960, "pitch": 42, "duration": 10, "velocity": 92}, {"time": 85200, "pitch": 36, "duration": 10, "velocity": 106}, {"time": 85200, "pitch": 57, "duration": 10, "velocity": 78}, {"time": 85440, "pitch": 42, "duration": 10, "velocity": 78}, {"time": 85560, "pitch": 40, "duration": 10, "velocity": 106}, {"time": 85680, "pitch": 42, "duration": 10, "velocity": 92}, {"time": 85920, "pitch": 36, "duration": 10, "velocity": 92}, {"time": 85920, "pitch": 42, "duration": 10, "velocity": 78}, {"time": 86160, "pitch": 40, "duration": 10, "velocity": 106}, {"time": 86160, "pitch": 42, "duration": 10, "velocity": 92}, {"time": 86400, "pitch": 36, "duration": 10, "velocity": 106}, {"time": 86400, "pitch": 42, "duration": 10, "velocity": 78}, {"time": 86640, "pitch": 42, "duration": 10, "velocity": 92}, {"time": 86760, "pitch": 40, "duration": 10, "velocity": 106}, {"time": 86880, "pitch": 42, "duration": 10, "velocity": 78}, {"time": 87000, "pitch": 36, "duration": 10, "velocity": 78}, {"time": 87120, "pitch": 40, "duration": 10, "velocity": 106}, {"time": 87120, "pitch": 42, "duration": 10, "velocity": 92}, {"time": 87360, "pitch": 40, "duration": 10, "velocity": 106}, {"time": 87360, "pitch": 42, "duration": 10, "velocity": 92}, {"time": 87600, "pitch": 36, "duration": 10, "velocity": 106}, {"time": 87600, "pitch": 49, "duration": 10, "velocity": 78}, {"time": 87840, "pitch": 42, "duration": 10, "velocity": 78}, {"time": 87960, "pitch": 40, "duration": 10, "velocity": 106}, {"time": 88080, "pitch": 42, "duration": 10, "velocity": 92}, {"time": 88320, "pitch": 36, "duration": 10, "velocity": 92}, {"time": 88320, "pitch": 42, "duration": 10, "velocity": 78}, {"time": 88560, "pitch": 40, "duration": 10, "velocity": 106}, {"time": 88560, "pitch": 42, "duration": 10, "velocity": 92}, {"time": 88800, "pitch": 36, "duration": 10, "velocity": 106}, {"time": 88800, "pitch": 44, "duration": 10, "velocity": 92}, {"time": 88800, "pitch": 50, "duration": 10, "velocity": 106}, {"time": 88860, "pitch": 50, "duration": 10, "velocity": 64}, {"time": 88920, "pitch": 50, "duration": 10, "velocity": 92}, {"time": 89040, "pitch": 40, "duration": 10, "velocity": 106}, {"time": 89040, "pitch": 44, "duration": 10, "velocity": 78}, {"time": 89160, "pitch": 47, "duration": 10, "velocity": 106}, {"time": 89220, "pitch": 47, "duration": 10, "velocity": 64}, {"time": 89280, "pitch": 44, "duration": 10, "velocity": 78}, {"time": 89280, "pitch": 47, "duration": 10, "velocity": 92}, {"time": 89400, "pitch": 40, "duration": 10, "velocity": 106}, {"time": 89520, "pitch": 44, "duration": 10, "velocity": 78}, {"time": 89520, "pitch": 50, "duration": 10, "velocity": 106}, {"time": 89640, "pitch": 50, "duration": 10, "velocity": 92}, {"time": 89760, "pitch": 44, "duration": 10, "velocity": 78}, {"time": 89760, "pitch": 47, "duration": 10, "velocity": 92}, {"time": 89880, "pitch": 43, "duration": 10, "velocity": 92}, {"time": 90000, "pitch": 36, "duration": 10, "velocity": 106}, {"time": 90000, "pitch": 57, "duration": 10, "velocity": 78}, {"time": 90240, "pitch": 42, "duration": 10, "velocity": 78}, {"time": 90360, "pitch": 40, "duration": 10, "velocity": 106}, {"time": 90480, "pitch": 42, "duration": 10, "velocity": 92}, {"time": 90720, "pitch": 36, "duration": 10, "velocity": 92}, {"time": 90720, "pitch": 42, "duration": 10, "velocity": 78}, {"time": 90960, "pitch": 40, "duration": 10, "velocity": 106}, {"time": 90960, "pitch": 42, "duration": 10, "velocity": 92}, {"time": 91200, "pitch": 36, "duration": 10, "velocity": 106}, {"time": 91200, "pitch": 42, "duration": 10, "velocity": 78}, {"time": 91440, "pitch": 42, "duration": 10, "velocity": 92}, {"time": 91560, "pitch": 40, "duration": 10, "velocity": 106}, {"time": 91680, "pitch": 42, "duration": 10, "velocity": 78}, {"time": 91800, "pitch": 36, "duration": 10, "velocity": 78}, {"time": 91920, "pitch": 42, "duration": 10, "velocity": 78}, {"time": 92040, "pitch": 40, "duration": 10, "velocity": 106}, {"time": 92160, "pitch": 42, "duration": 10, "velocity": 92}, {"time": 92400, "pitch": 36, "duration": 10, "velocity": 106}, {"time": 92400, "pitch": 42, "duration": 10, "velocity": 92}, {"time": 92640, "pitch": 42, "duration": 10, "velocity": 78}, {"time": 92760, "pitch": 40, "duration": 10, "velocity": 106}, {"time": 92880, "pitch": 42, "duration": 10, "velocity": 92}, {"time": 93120, "pitch": 36, "duration": 10, "velocity": 92}, {"time": 93120, "pitch": 42, "duration": 10, "velocity": 78}, {"time": 93360, "pitch": 40, "duration": 10, "velocity": 106}, {"time": 93360, "pitch": 42, "duration": 10, "velocity": 92}, {"time": 93600, "pitch": 36, "duration": 10, "velocity": 106}, {"time": 93600, "pitch": 42, "duration": 10, "velocity": 78}, {"time": 93840, "pitch": 42, "duration": 10, "velocity": 92}, {"time": 93960, "pitch": 40, "duration": 10, "velocity": 106}, {"time": 94080, "pitch": 42, "duration": 10, "velocity": 78}, {"time": 94200, "pitch": 36, "duration": 10, "velocity": 78}, {"time": 94320, "pitch": 42, "duration": 10, "velocity": 92}, {"time": 94440, "pitch": 40, "duration": 10, "velocity": 106}, {"time": 94560, "pitch": 42, "duration": 10, "velocity": 92}, {"time": 94800, "pitch": 36, "duration": 10, "velocity": 106}, {"time": 94800, "pitch": 42, "duration": 10, "velocity": 92}, {"time": 95040, "pitch": 42, "duration": 10, "velocity": 78}, {"time": 95160, "pitch": 40, "duration": 10, "velocity": 106}, {"time": 95280, "pitch": 42, "duration": 10, "velocity": 92}, {"time": 95520, "pitch": 36, "duration": 10, "velocity": 92}, {"time": 95520, "pitch": 42, "duration": 10, "velocity": 78}, {"time": 95760, "pitch": 40, "duration": 10, "velocity": 106}, {"time": 95760, "pitch": 42, "duration": 10, "velocity": 92}, {"time": 96000, "pitch": 36, "duration": 10, "velocity": 106}, {"time": 96000, "pitch": 42, "duration": 10, "velocity": 78}, {"time": 96240, "pitch": 42, "duration": 10, "velocity": 92}, {"time": 96360, "pitch": 40, "duration": 10, "velocity": 106}, {"time": 96480, "pitch": 42, "duration": 10, "velocity": 78}, {"time": 96600, "pitch": 36, "duration": 10, "velocity": 78}, {"time": 96720, "pitch": 42, "duration": 10, "velocity": 92}, {"time": 96840, "pitch": 40, "duration": 10, "velocity": 106}, {"time": 96960, "pitch": 42, "duration": 10, "velocity": 92}, {"time": 97200, "pitch": 36, "duration": 10, "velocity": 106}, {"time": 97200, "pitch": 42, "duration": 10, "velocity": 92}, {"time": 97440, "pitch": 42, "duration": 10, "velocity": 78}, {"time": 97560, "pitch": 40, "duration": 10, "velocity": 106}, {"time": 97680, "pitch": 42, "duration": 10, "velocity": 92}, {"time": 97920, "pitch": 36, "duration": 10, "velocity": 92}, {"time": 97920, "pitch": 42, "duration": 10, "velocity": 78}, {"time": 98160, "pitch": 40, "duration": 10, "velocity": 106}, {"time": 98160, "pitch": 42, "duration": 10, "velocity": 92}, {"time": 98400, "pitch": 36, "duration": 10, "velocity": 106}, {"time": 98400, "pitch": 42, "duration": 10, "velocity": 78}, {"time": 98640, "pitch": 42, "duration": 10, "velocity": 92}, {"time": 98760, "pitch": 40, "duration": 10, "velocity": 106}, {"time": 98880, "pitch": 42, "duration": 10, "velocity": 78}, {"time": 99000, "pitch": 36, "duration": 10, "velocity": 78}, {"time": 99120, "pitch": 42, "duration": 10, "velocity": 92}, {"time": 99240, "pitch": 40, "duration": 10, "velocity": 106}, {"time": 99360, "pitch": 42, "duration": 10, "velocity": 92}, {"time": 99600, "pitch": 36, "duration": 10, "velocity": 92}, {"time": 99600, "pitch": 46, "duration": 10, "velocity": 92}, {"time": 99720, "pitch": 42, "duration": 10, "velocity": 78}, {"time": 99960, "pitch": 36, "duration": 10, "velocity": 92}, {"time": 99960, "pitch": 46, "duration": 10, "velocity": 92}, {"time": 100080, "pitch": 42, "duration": 10, "velocity": 78}, {"time": 100200, "pitch": 40, "duration": 10, "velocity": 106}, {"time": 100320, "pitch": 36, "duration": 10, "velocity": 92}, {"time": 100320, "pitch": 46, "duration": 10, "velocity": 92}, {"time": 100440, "pitch": 42, "duration": 10, "velocity": 78}, {"time": 100680, "pitch": 36, "duration": 10, "velocity": 92}, {"time": 100680, "pitch": 46, "duration": 10, "velocity": 92}, {"time": 100800, "pitch": 42, "duration": 10, "velocity": 78}, {"time": 100920, "pitch": 40, "duration": 10, "velocity": 106}, {"time": 101040, "pitch": 36, "duration": 10, "velocity": 92}, {"time": 101040, "pitch": 46, "duration": 10, "velocity": 92}, {"time": 101160, "pitch": 42, "duration": 10, "velocity": 78}, {"time": 101400, "pitch": 36, "duration": 10, "velocity": 92}, {"time": 101400, "pitch": 46, "duration": 10, "velocity": 92}, {"time": 101520, "pitch": 42, "duration": 10, "velocity": 78}, {"time": 101760, "pitch": 36, "duration": 10, "velocity": 92}, {"time": 101760, "pitch": 40, "duration": 10, "velocity": 106}, {"time": 101760, "pitch": 46, "duration": 10, "velocity": 92}, {"time": 101880, "pitch": 42, "duration": 10, "velocity": 78}, {"time": 102000, "pitch": 36, "duration": 10, "velocity": 92}, {"time": 102000, "pitch": 40, "duration": 10, "velocity": 106}, {"time": 102000, "pitch": 46, "duration": 10, "velocity": 92}, {"time": 102120, "pitch": 42, "duration": 10, "velocity": 78}, {"time": 102480, "pitch": 44, "duration": 10, "velocity": 78}, {"time": 102960, "pitch": 44, "duration": 10, "velocity": 78}, {"time": 103440, "pitch": 36, "duration": 10, "velocity": 92}, {"time": 103440, "pitch": 40, "duration": 10, "velocity": 92}, {"time": 103440, "pitch": 49, "duration": 10, "velocity": 78}, {"time": 103920, "pitch": 36, "duration": 10, "velocity": 92}, {"time": 103920, "pitch": 49, "duration": 10, "velocity": 78}, {"time": 104160, "pitch": 42, "duration": 10, "velocity": 78}, {"time": 104280, "pitch": 36, "duration": 10, "velocity": 92}, {"time": 104400, "pitch": 42, "duration": 10, "velocity": 92}, {"time": 104640, "pitch": 40, "duration": 10, "velocity": 106}, {"time": 104640, "pitch": 42, "duration": 10, "velocity": 78}, {"time": 104880, "pitch": 36, "duration": 10, "velocity": 92}, {"time": 104880, "pitch": 42, "duration": 10, "velocity": 92}, {"time": 105000, "pitch": 36, "duration": 10, "velocity": 78}, {"time": 105120, "pitch": 40, "duration": 10, "velocity": 106}, {"time": 105120, "pitch": 42, "duration": 10, "velocity": 78}, {"time": 105360, "pitch": 36, "duration": 10, "velocity": 92}, {"time": 105360, "pitch": 42, "duration": 10, "velocity": 92}, {"time": 105600, "pitch": 42, "duration": 10, "velocity": 78}, {"time": 105720, "pitch": 36, "duration": 10, "velocity": 92}, {"time": 105840, "pitch": 42, "duration": 10, "velocity": 92}, {"time": 106080, "pitch": 40, "duration": 10, "velocity": 106}, {"time": 106080, "pitch": 46, "duration": 10, "velocity": 92}, {"time": 106320, "pitch": 36, "duration": 10, "velocity": 92}, {"time": 106320, "pitch": 42, "duration": 10, "velocity": 78}, {"time": 106320, "pitch": 50, "duration": 10, "velocity": 92}, {"time": 106440, "pitch": 50, "duration": 10, "velocity": 92}, {"time": 106560, "pitch": 47, "duration": 10, "velocity": 92}, {"time": 106800, "pitch": 36, "duration": 10, "velocity": 92}, {"time": 106800, "pitch": 49, "duration": 10, "velocity": 78}, {"time": 107040, "pitch": 42, "duration": 10, "velocity": 78}, {"time": 107160, "pitch": 36, "duration": 10, "velocity": 92}, {"time": 107280, "pitch": 42, "duration": 10, "velocity": 92}, {"time": 107520, "pitch": 40, "duration": 10, "velocity": 106}, {"time": 107520, "pitch": 42, "duration": 10, "velocity": 78}, {"time": 107760, "pitch": 36, "duration": 10, "velocity": 92}, {"time": 107760, "pitch": 42, "duration": 10, "velocity": 92}, {"time": 107880, "pitch": 36, "duration": 10, "velocity": 78}, {"time": 108000, "pitch": 40, "duration": 10, "velocity": 106}, {"time": 108000, "pitch": 42, "duration": 10, "velocity": 78}, {"time": 108240, "pitch": 36, "duration": 10, "velocity": 92}, {"time": 108240, "pitch": 42, "duration": 10, "velocity": 92}, {"time": 108480, "pitch": 42, "duration": 10, "velocity": 78}, {"time": 108600, "pitch": 36, "duration": 10, "velocity": 92}, {"time": 108720, "pitch": 42, "duration": 10, "velocity": 92}, {"time": 108960, "pitch": 40, "duration": 10, "velocity": 106}, {"time": 108960, "pitch": 46, "duration": 10, "velocity": 92}, {"time": 109200, "pitch": 40, "duration": 10, "velocity": 106}, {"time": 109200, "pitch": 42, "duration": 10, "velocity": 78}, {"time": 109320, "pitch": 40, "duration": 10, "velocity": 106}, {"time": 109440, "pitch": 43, "duration": 10, "velocity": 92}, {"time": 109680, "pitch": 36, "duration": 10, "velocity": 106}, {"time": 109680, "pitch": 57, "duration": 10, "velocity": 78}, {"time": 109920, "pitch": 42, "duration": 10, "velocity": 64}, {"time": 110040, "pitch": 40, "duration": 10, "velocity": 106}, {"time": 110160, "pitch": 42, "duration": 10, "velocity": 92}, {"time": 110400, "pitch": 36, "duration": 10, "velocity": 106}, {"time": 110400, "pitch": 42, "duration": 10, "velocity": 64}, {"time": 110640, "pitch": 40, "duration": 10, "velocity": 106}, {"time": 110640, "pitch": 42, "duration": 10, "velocity": 92}, {"time": 110880, "pitch": 36, "duration": 10, "velocity": 92}, {"time": 110880, "pitch": 42, "duration": 10, "velocity": 64}, {"time": 111000, "pitch": 40, "duration": 10, "velocity": 78}, {"time": 111120, "pitch": 36, "duration": 10, "velocity": 106}, {"time": 111120, "pitch": 42, "duration": 10, "velocity": 92}, {"time": 111360, "pitch": 42, "duration": 10, "velocity": 64}, {"time": 111480, "pitch": 40, "duration": 10, "velocity": 106}, {"time": 111600, "pitch": 42, "duration": 10, "velocity": 92}, {"time": 111840, "pitch": 36, "duration": 10, "velocity": 106}, {"time": 111840, "pitch": 42, "duration": 10, "velocity": 78}, {"time": 112080, "pitch": 40, "duration": 10, "velocity": 106}, {"time": 112080, "pitch": 46, "duration": 10, "velocity": 92}, {"time": 112200, "pitch": 42, "duration": 10, "velocity": 50}, {"time": 112560, "pitch": 36, "duration": 10, "velocity": 106}, {"time": 112560, "pitch": 57, "duration": 10, "velocity": 78}, {"time": 112800, "pitch": 51, "duration": 10, "velocity": 92}, {"time": 112920, "pitch": 40, "duration": 10, "velocity": 106}, {"time": 113040, "pitch": 51, "duration": 10, "velocity": 92}, {"time": 113280, "pitch": 36, "duration": 10, "velocity": 92}, {"time": 113280, "pitch": 51, "duration": 10, "velocity": 92}, {"time": 113520, "pitch": 40, "duration": 10, "velocity": 106}, {"time": 113520, "pitch": 51, "duration": 10, "velocity": 92}, {"time": 113760, "pitch": 36, "duration": 10, "velocity": 106}, {"time": 113760, "pitch": 51, "duration": 10, "velocity": 92}, {"time": 114000, "pitch": 51, "duration": 10, "velocity": 92}, {"time": 114120, "pitch": 40, "duration": 10, "velocity": 106}, {"time": 114240, "pitch": 51, "duration": 10, "velocity": 92}, {"time": 114360, "pitch": 36, "duration": 10, "velocity": 78}, {"time": 114480, "pitch": 40, "duration": 10, "velocity": 106}, {"time": 114480, "pitch": 51, "duration": 10, "velocity": 92}, {"time": 114720, "pitch": 40, "duration": 10, "velocity": 106}, {"time": 114720, "pitch": 51, "duration": 10, "velocity": 92}, {"time": 114960, "pitch": 36, "duration": 10, "velocity": 106}, {"time": 114960, "pitch": 49, "duration": 10, "velocity": 78}, {"time": 115200, "pitch": 51, "duration": 10, "velocity": 92}, {"time": 115320, "pitch": 40, "duration": 10, "velocity": 106}, {"time": 115440, "pitch": 51, "duration": 10, "velocity": 92}, {"time": 115680, "pitch": 36, "duration": 10, "velocity": 92}, {"time": 115680, "pitch": 51, "duration": 10, "velocity": 92}, {"time": 115920, "pitch": 40, "duration": 10, "velocity": 106}, {"time": 115920, "pitch": 51, "duration": 10, "velocity": 92}, {"time": 116160, "pitch": 36, "duration": 10, "velocity": 106}, {"time": 116160, "pitch": 51, "duration": 10, "velocity": 92}, {"time": 116400, "pitch": 51, "duration": 10, "velocity": 92}, {"time": 116520, "pitch": 40, "duration": 10, "velocity": 106}, {"time": 116640, "pitch": 51, "duration": 10, "velocity": 92}, {"time": 116760, "pitch": 36, "duration": 10, "velocity": 78}, {"time": 116880, "pitch": 40, "duration": 10, "velocity": 106}, {"time": 116880, "pitch": 51, "duration": 10, "velocity": 92}, {"time": 117120, "pitch": 40, "duration": 10, "velocity": 106}, {"time": 117120, "pitch": 51, "duration": 10, "velocity": 92}, {"time": 117360, "pitch": 36, "duration": 10, "velocity": 106}, {"time": 117360, "pitch": 57, "duration": 10, "velocity": 78}, {"time": 117600, "pitch": 51, "duration": 10, "velocity": 92}, {"time": 117720, "pitch": 40, "duration": 10, "velocity": 106}, {"time": 117840, "pitch": 51, "duration": 10, "velocity": 92}, {"time": 118080, "pitch": 36, "duration": 10, "velocity": 92}, {"time": 118080, "pitch": 51, "duration": 10, "velocity": 92}, {"time": 118320, "pitch": 40, "duration": 10, "velocity": 106}, {"time": 118320, "pitch": 51, "duration": 10, "velocity": 92}, {"time": 118560, "pitch": 36, "duration": 10, "velocity": 106}, {"time": 118560, "pitch": 51, "duration": 10, "velocity": 92}, {"time": 118800, "pitch": 51, "duration": 10, "velocity": 92}, {"time": 118920, "pitch": 40, "duration": 10, "velocity": 106}, {"time": 119040, "pitch": 51, "duration": 10, "velocity": 92}, {"time": 119160, "pitch": 36, "duration": 10, "velocity": 78}, {"time": 119280, "pitch": 40, "duration": 10, "velocity": 106}, {"time": 119280, "pitch": 51, "duration": 10, "velocity": 92}, {"time": 119520, "pitch": 40, "duration": 10, "velocity": 106}, {"time": 119520, "pitch": 51, "duration": 10, "velocity": 92}, {"time": 119760, "pitch": 36, "duration": 10, "velocity": 106}, {"time": 119760, "pitch": 49, "duration": 10, "velocity": 78}, {"time": 120000, "pitch": 51, "duration": 10, "velocity": 92}, {"time": 120120, "pitch": 40, "duration": 10, "velocity": 106}, {"time": 120240, "pitch": 51, "duration": 10, "velocity": 92}, {"time": 120480, "pitch": 36, "duration": 10, "velocity": 92}, {"time": 120480, "pitch": 51, "duration": 10, "velocity": 92}, {"time": 120720, "pitch": 40, "duration": 10, "velocity": 106}, {"time": 120720, "pitch": 51, "duration": 10, "velocity": 92}, {"time": 120960, "pitch": 36, "duration": 10, "velocity": 106}, {"time": 120960, "pitch": 51, "duration": 10, "velocity": 92}, {"time": 121200, "pitch": 51, "duration": 10, "velocity": 92}, {"time": 121320, "pitch": 40, "duration": 10, "velocity": 106}, {"time": 121440, "pitch": 51, "duration": 10, "velocity": 92}, {"time": 121560, "pitch": 36, "duration": 10, "velocity": 78}, {"time": 121680, "pitch": 51, "duration": 10, "velocity": 92}, {"time": 121800, "pitch": 40, "duration": 10, "velocity": 106}, {"time": 121920, "pitch": 51, "duration": 10, "velocity": 92}, {"time": 122160, "pitch": 36, "duration": 10, "velocity": 106}, {"time": 122160, "pitch": 57, "duration": 10, "velocity": 78}, {"time": 122400, "pitch": 51, "duration": 10, "velocity": 92}, {"time": 122520, "pitch": 40, "duration": 10, "velocity": 106}, {"time": 122640, "pitch": 51, "duration": 10, "velocity": 92}, {"time": 122880, "pitch": 36, "duration": 10, "velocity": 92}, {"time": 122880, "pitch": 51, "duration": 10, "velocity": 92}, {"time": 123120, "pitch": 40, "duration": 10, "velocity": 106}, {"time": 123120, "pitch": 51, "duration": 10, "velocity": 92}, {"time": 123360, "pitch": 36, "duration": 10, "velocity": 106}, {"time": 123360, "pitch": 51, "duration": 10, "velocity": 92}, {"time": 123600, "pitch": 51, "duration": 10, "velocity": 92}, {"time": 123720, "pitch": 40, "duration": 10, "velocity": 106}, {"time": 123840, "pitch": 51, "duration": 10, "velocity": 92}, {"time": 123960, "pitch": 36, "duration": 10, "velocity": 78}, {"time": 124080, "pitch": 40, "duration": 10, "velocity": 106}, {"time": 124080, "pitch": 51, "duration": 10, "velocity": 92}, {"time": 124320, "pitch": 40, "duration": 10, "velocity": 106}, {"time": 124320, "pitch": 51, "duration": 10, "velocity": 92}, {"time": 124560, "pitch": 36, "duration": 10, "velocity": 106}, {"time": 124560, "pitch": 49, "duration": 10, "velocity": 78}, {"time": 124800, "pitch": 51, "duration": 10, "velocity": 92}, {"time": 124920, "pitch": 40, "duration": 10, "velocity": 106}, {"time": 125040, "pitch": 51, "duration": 10, "velocity": 92}, {"time": 125280, "pitch": 36, "duration": 10, "velocity": 92}, {"time": 125280, "pitch": 51, "duration": 10, "velocity": 92}, {"time": 125520, "pitch": 40, "duration": 10, "velocity": 106}, {"time": 125520, "pitch": 51, "duration": 10, "velocity": 92}, {"time": 125760, "pitch": 36, "duration": 10, "velocity": 106}, {"time": 125760, "pitch": 51, "duration": 10, "velocity": 92}, {"time": 126000, "pitch": 51, "duration": 10, "velocity": 92}, {"time": 126120, "pitch": 40, "duration": 10, "velocity": 106}, {"time": 126240, "pitch": 51, "duration": 10, "velocity": 92}, {"time": 126360, "pitch": 36, "duration": 10, "velocity": 78}, {"time": 126480, "pitch": 40, "duration": 10, "velocity": 106}, {"time": 126480, "pitch": 51, "duration": 10, "velocity": 92}, {"time": 126720, "pitch": 40, "duration": 10, "velocity": 106}, {"time": 126720, "pitch": 51, "duration": 10, "velocity": 92}, {"time": 126960, "pitch": 36, "duration": 10, "velocity": 106}, {"time": 126960, "pitch": 57, "duration": 10, "velocity": 78}, {"time": 127200, "pitch": 51, "duration": 10, "velocity": 92}, {"time": 127320, "pitch": 40, "duration": 10, "velocity": 106}, {"time": 127440, "pitch": 51, "duration": 10, "velocity": 92}, {"time": 127680, "pitch": 36, "duration": 10, "velocity": 92}, {"time": 127680, "pitch": 51, "duration": 10, "velocity": 92}, {"time": 127920, "pitch": 40, "duration": 10, "velocity": 106}, {"time": 127920, "pitch": 51, "duration": 10, "velocity": 92}, {"time": 128160, "pitch": 36, "duration": 10, "velocity": 106}, {"time": 128160, "pitch": 51, "duration": 10, "velocity": 92}, {"time": 128400, "pitch": 51, "duration": 10, "velocity": 92}, {"time": 128520, "pitch": 40, "duration": 10, "velocity": 106}, {"time": 128640, "pitch": 51, "duration": 10, "velocity": 92}, {"time": 128760, "pitch": 36, "duration": 10, "velocity": 78}, {"time": 128880, "pitch": 40, "duration": 10, "velocity": 106}, {"time": 128880, "pitch": 51, "duration": 10, "velocity": 92}, {"time": 129120, "pitch": 40, "duration": 10, "velocity": 106}, {"time": 129120, "pitch": 51, "duration": 10, "velocity": 92}, {"time": 129360, "pitch": 36, "duration": 10, "velocity": 106}, {"time": 129360, "pitch": 49, "duration": 10, "velocity": 78}, {"time": 129600, "pitch": 51, "duration": 10, "velocity": 92}, {"time": 129720, "pitch": 40, "duration": 10, "velocity": 106}, {"time": 129840, "pitch": 51, "duration": 10, "velocity": 92}, {"time": 130080, "pitch": 36, "duration": 10, "velocity": 92}, {"time": 130080, "pitch": 51, "duration": 10, "velocity": 92}, {"time": 130320, "pitch": 40, "duration": 10, "velocity": 106}, {"time": 130320, "pitch": 51, "duration": 10, "velocity": 92}, {"time": 130560, "pitch": 50, "duration": 10, "velocity": 92}, {"time": 130580, "pitch": 47, "duration": 10, "velocity": 78}, {"time": 130680, "pitch": 36, "duration": 10, "velocity": 106}, {"time": 130920, "pitch": 36, "duration": 10, "velocity": 106}, {"time": 131040, "pitch": 47, "duration": 10, "velocity": 92}, {"time": 131060, "pitch": 43, "duration": 10, "velocity": 78}, {"time": 131160, "pitch": 36, "duration": 10, "velocity": 106}, {"time": 131400, "pitch": 36, "duration": 10, "velocity": 106}, {"time": 131520, "pitch": 40, "duration": 10, "velocity": 106}, {"time": 131640, "pitch": 40, "duration": 10, "velocity": 106}, {"time": 131760, "pitch": 36, "duration": 10, "velocity": 106}, {"time": 131760, "pitch": 57, "duration": 10, "velocity": 78}, {"time": 132000, "pitch": 51, "duration": 10, "velocity": 92}, {"time": 132120, "pitch": 40, "duration": 10, "velocity": 106}, {"time": 132240, "pitch": 51, "duration": 10, "velocity": 92}, {"time": 132480, "pitch": 36, "duration": 10, "velocity": 92}, {"time": 132480, "pitch": 51, "duration": 10, "velocity": 92}, {"time": 132720, "pitch": 40, "duration": 10, "velocity": 106}, {"time": 132720, "pitch": 51, "duration": 10, "velocity": 92}, {"time": 132960, "pitch": 36, "duration": 10, "velocity": 106}, {"time": 132960, "pitch": 51, "duration": 10, "velocity": 92}, {"time": 133200, "pitch": 51, "duration": 10, "velocity": 92}, {"time": 133320, "pitch": 40, "duration": 10, "velocity": 106}, {"time": 133440, "pitch": 51, "duration": 10, "velocity": 92}, {"time": 133560, "pitch": 36, "duration": 10, "velocity": 78}, {"time": 133680, "pitch": 40, "duration": 10, "velocity": 106}, {"time": 133680, "pitch": 51, "duration": 10, "velocity": 92}, {"time": 133920, "pitch": 40, "duration": 10, "velocity": 106}, {"time": 133920, "pitch": 51, "duration": 10, "velocity": 92}, {"time": 134160, "pitch": 36, "duration": 10, "velocity": 106}, {"time": 134160, "pitch": 49, "duration": 10, "velocity": 78}, {"time": 134400, "pitch": 51, "duration": 10, "velocity": 92}, {"time": 134520, "pitch": 40, "duration": 10, "velocity": 106}, {"time": 134640, "pitch": 51, "duration": 10, "velocity": 92}, {"time": 134880, "pitch": 36, "duration": 10, "velocity": 92}, {"time": 134880, "pitch": 51, "duration": 10, "velocity": 92}, {"time": 135120, "pitch": 40, "duration": 10, "velocity": 106}, {"time": 135120, "pitch": 51, "duration": 10, "velocity": 92}, {"time": 135360, "pitch": 36, "duration": 10, "velocity": 106}, {"time": 135360, "pitch": 51, "duration": 10, "velocity": 92}, {"time": 135600, "pitch": 51, "duration": 10, "velocity": 92}, {"time": 135720, "pitch": 40, "duration": 10, "velocity": 106}, {"time": 135840, "pitch": 51, "duration": 10, "velocity": 92}, {"time": 135960, "pitch": 36, "duration": 10, "velocity": 78}, {"time": 136080, "pitch": 40, "duration": 10, "velocity": 106}, {"time": 136080, "pitch": 51, "duration": 10, "velocity": 92}, {"time": 136320, "pitch": 40, "duration": 10, "velocity": 106}, {"time": 136320, "pitch": 51, "duration": 10, "velocity": 92}, {"time": 136560, "pitch": 36, "duration": 10, "velocity": 106}, {"time": 136560, "pitch": 57, "duration": 10, "velocity": 78}, {"time": 136800, "pitch": 51, "duration": 10, "velocity": 92}, {"time": 136920, "pitch": 40, "duration": 10, "velocity": 106}, {"time": 137040, "pitch": 51, "duration": 10, "velocity": 92}, {"time": 137280, "pitch": 36, "duration": 10, "velocity": 92}, {"time": 137280, "pitch": 51, "duration": 10, "velocity": 92}, {"time": 137520, "pitch": 40, "duration": 10, "velocity": 106}, {"time": 137520, "pitch": 51, "duration": 10, "velocity": 92}, {"time": 137760, "pitch": 36, "duration": 10, "velocity": 106}, {"time": 137760, "pitch": 51, "duration": 10, "velocity": 92}, {"time": 138000, "pitch": 51, "duration": 10, "velocity": 92}, {"time": 138120, "pitch": 40, "duration": 10, "velocity": 106}, {"time": 138240, "pitch": 51, "duration": 10, "velocity": 92}, {"time": 138360, "pitch": 36, "duration": 10, "velocity": 78}, {"time": 138480, "pitch": 40, "duration": 10, "velocity": 106}, {"time": 138480, "pitch": 51, "duration": 10, "velocity": 92}, {"time": 138720, "pitch": 40, "duration": 10, "velocity": 106}, {"time": 138720, "pitch": 51, "duration": 10, "velocity": 92}, {"time": 138960, "pitch": 36, "duration": 10, "velocity": 106}, {"time": 138960, "pitch": 49, "duration": 10, "velocity": 78}, {"time": 139200, "pitch": 51, "duration": 10, "velocity": 92}, {"time": 139320, "pitch": 40, "duration": 10, "velocity": 106}, {"time": 139440, "pitch": 51, "duration": 10, "velocity": 92}, {"time": 139680, "pitch": 36, "duration": 10, "velocity": 92}, {"time": 139680, "pitch": 51, "duration": 10, "velocity": 92}, {"time": 139920, "pitch": 40, "duration": 10, "velocity": 106}, {"time": 139920, "pitch": 51, "duration": 10, "velocity": 92}, {"time": 140160, "pitch": 40, "duration": 10, "velocity": 106}, {"time": 140160, "pitch": 46, "duration": 10, "velocity": 92}, {"time": 140280, "pitch": 36, "duration": 10, "velocity": 106}, {"time": 140520, "pitch": 36, "duration": 10, "velocity": 106}, {"time": 140640, "pitch": 40, "duration": 10, "velocity": 106}, {"time": 140640, "pitch": 46, "duration": 10, "velocity": 92}, {"time": 140760, "pitch": 36, "duration": 10, "velocity": 106}, {"time": 141000, "pitch": 36, "duration": 10, "velocity": 106}, {"time": 141120, "pitch": 40, "duration": 10, "velocity": 78}, {"time": 141140, "pitch": 40, "duration": 10, "velocity": 106}, {"time": 141360, "pitch": 36, "duration": 10, "velocity": 106}, {"time": 141360, "pitch": 49, "duration": 10, "velocity": 78}, {"time": 141720, "pitch": 36, "duration": 10, "velocity": 106}, {"time": 141720, "pitch": 46, "duration": 10, "velocity": 92}, {"time": 141840, "pitch": 42, "duration": 10, "velocity": 78}, {"time": 141960, "pitch": 36, "duration": 10, "velocity": 106}, {"time": 141960, "pitch": 46, "duration": 10, "velocity": 92}, {"time": 142080, "pitch": 42, "duration": 10, "velocity": 78}, {"time": 142560, "pitch": 40, "duration": 10, "velocity": 106}, {"time": 142680, "pitch": 36, "duration": 10, "velocity": 106}, {"time": 142680, "pitch": 46, "duration": 10, "velocity": 92}, {"time": 142800, "pitch": 42, "duration": 10, "velocity": 78}, {"time": 142920, "pitch": 40, "duration": 10, "velocity": 106}, {"time": 143040, "pitch": 36, "duration": 10, "velocity": 106}, {"time": 143040, "pitch": 46, "duration": 10, "velocity": 92}, {"time": 143160, "pitch": 42, "duration": 10, "velocity": 78}, {"time": 143280, "pitch": 36, "duration": 10, "velocity": 92}, {"time": 143400, "pitch": 36, "duration": 10, "velocity": 92}, {"time": 143520, "pitch": 47, "duration": 10, "velocity": 92}, {"time": 143540, "pitch": 43, "duration": 10, "velocity": 92}, {"time": 143760, "pitch": 36, "duration": 10, "velocity": 106}, {"time": 143760, "pitch": 57, "duration": 10, "velocity": 78}, {"time": 144000, "pitch": 50, "duration": 10, "velocity": 106}, {"time": 144120, "pitch": 50, "duration": 10, "velocity": 92}, {"time": 144360, "pitch": 50, "duration": 10, "velocity": 92}, {"time": 144480, "pitch": 47, "duration": 10, "velocity": 92}, {"time": 144720, "pitch": 40, "duration": 10, "velocity": 78}, {"time": 144740, "pitch": 40, "duration": 10, "velocity": 106}, {"time": 144960, "pitch": 36, "duration": 10, "velocity": 106}, {"time": 144960, "pitch": 46, "duration": 10, "velocity": 92}, {"time": 145080, "pitch": 42, "duration": 10, "velocity": 78}, {"time": 145320, "pitch": 36, "duration": 10, "velocity": 92}, {"time": 145320, "pitch": 46, "duration": 10, "velocity": 92}, {"time": 145440, "pitch": 42, "duration": 10, "velocity": 78}, {"time": 145560, "pitch": 50, "duration": 10, "velocity": 78}, {"time": 145620, "pitch": 50, "duration": 10, "velocity": 106}, {"time": 145680, "pitch": 50, "duration": 10, "velocity": 106}, {"time": 145800, "pitch": 50, "duration": 10, "velocity": 92}, {"time": 145920, "pitch": 47, "duration": 10, "velocity": 92}, {"time": 146040, "pitch": 43, "duration": 10, "velocity": 92}, {"time": 146160, "pitch": 36, "duration": 10, "velocity": 106}, {"time": 146160, "pitch": 49, "duration": 10, "velocity": 78}, {"time": 146400, "pitch": 40, "duration": 10, "velocity": 106}, {"time": 146400, "pitch": 46, "duration": 10, "velocity": 92}, {"time": 146640, "pitch": 36, "duration": 10, "velocity": 106}, {"time": 146640, "pitch": 46, "duration": 10, "velocity": 78}, {"time": 146760, "pitch": 36, "duration": 10, "velocity": 92}, {"time": 146880, "pitch": 40, "duration": 10, "velocity": 106}, {"time": 146880, "pitch": 46, "duration": 10, "velocity": 92}, {"time": 147120, "pitch": 36, "duration": 10, "velocity": 106}, {"time": 147120, "pitch": 46, "duration": 10, "velocity": 78}, {"time": 147240, "pitch": 36, "duration": 10, "velocity": 92}, {"time": 147360, "pitch": 40, "duration": 10, "velocity": 106}, {"time": 147480, "pitch": 36, "duration": 10, "velocity": 106}, {"time": 147480, "pitch": 46, "duration": 10, "velocity": 92}, {"time": 147600, "pitch": 42, "duration": 10, "velocity": 78}, {"time": 147720, "pitch": 40, "duration": 10, "velocity": 106}, {"time": 147840, "pitch": 36, "duration": 10, "velocity": 106}, {"time": 147840, "pitch": 46, "duration": 10, "velocity": 92}, {"time": 147960, "pitch": 40, "duration": 10, "velocity": 106}, {"time": 147960, "pitch": 42, "duration": 10, "velocity": 78}, {"time": 148080, "pitch": 50, "duration": 10, "velocity": 106}, {"time": 148200, "pitch": 50, "duration": 10, "velocity": 92}, {"time": 148320, "pitch": 47, "duration": 10, "velocity": 92}, {"time": 148440, "pitch": 43, "duration": 10, "velocity": 92}, {"time": 148560, "pitch": 36, "duration": 10, "velocity": 106}, {"time": 148560, "pitch": 57, "duration": 10, "velocity": 78}, {"time": 148800, "pitch": 36, "duration": 10, "velocity": 92}, {"time": 148800, "pitch": 42, "duration": 10, "velocity": 92}, {"time": 148920, "pitch": 40, "duration": 10, "velocity": 106}, {"time": 149040, "pitch": 42, "duration": 10, "velocity": 78}, {"time": 149280, "pitch": 36, "duration": 10, "velocity": 92}, {"time": 149280, "pitch": 42, "duration": 10, "velocity": 92}, {"time": 149520, "pitch": 40, "duration": 10, "velocity": 106}, {"time": 149520, "pitch": 42, "duration": 10, "velocity": 78}, {"time": 149760, "pitch": 36, "duration": 10, "velocity": 106}, {"time": 149760, "pitch": 42, "duration": 10, "velocity": 92}, {"time": 150000, "pitch": 42, "duration": 10, "velocity": 78}, {"time": 150120, "pitch": 40, "duration": 10, "velocity": 106}, {"time": 150240, "pitch": 42, "duration": 10, "velocity": 92}, {"time": 150360, "pitch": 36, "duration": 10, "velocity": 92}, {"time": 150480, "pitch": 40, "duration": 10, "velocity": 78}, {"time": 150480, "pitch": 42, "duration": 10, "velocity": 78}, {"time": 150500, "pitch": 40, "duration": 10, "velocity": 106}, {"time": 150720, "pitch": 40, "duration": 10, "velocity": 106}, {"time": 150720, "pitch": 49, "duration": 10, "velocity": 78}, {"time": 150960, "pitch": 36, "duration": 10, "velocity": 106}, {"time": 150960, "pitch": 57, "duration": 10, "velocity": 78}, {"time": 151200, "pitch": 42, "duration": 10, "velocity": 78}, {"time": 151320, "pitch": 40, "duration": 10, "velocity": 106}, {"time": 151440, "pitch": 42, "duration": 10, "velocity": 92}, {"time": 151680, "pitch": 36, "duration": 10, "velocity": 92}, {"time": 151680, "pitch": 42, "duration": 10, "velocity": 78}, {"time": 151920, "pitch": 36, "duration": 10, "velocity": 106}, {"time": 151920, "pitch": 49, "duration": 10, "velocity": 78}, {"time": 152160, "pitch": 42, "duration": 10, "velocity": 78}, {"time": 152280, "pitch": 40, "duration": 10, "velocity": 106}, {"time": 152400, "pitch": 42, "duration": 10, "velocity": 92}, {"time": 152640, "pitch": 36, "duration": 10, "velocity": 92}, {"time": 152640, "pitch": 42, "duration": 10, "velocity": 78}, {"time": 152880, "pitch": 40, "duration": 10, "velocity": 106}, {"time": 152880, "pitch": 46, "duration": 10, "velocity": 92}, {"time": 153000, "pitch": 42, "duration": 10, "velocity": 92}, {"time": 153120, "pitch": 36, "duration": 10, "velocity": 106}, {"time": 153120, "pitch": 40, "duration": 10, "velocity": 106}, {"time": 153120, "pitch": 46, "duration": 10, "velocity": 92}, {"time": 153240, "pitch": 42, "duration": 10, "velocity": 92}], "annotations": [{"time": 960, "annotation": {"number": 0, "value": 0}, "group": "control_change"}, {"time": 970, "annotation": {"number": 32, "value": 0}, "group": "control_change"}, {"time": 990, "annotation": {"number": 7, "value": 120}, "group": "control_change"}, {"time": 1000, "annotation": {"number": 11, "value": 110}, "group": "control_change"}, {"time": 1010, "annotation": {"number": 91, "value": 50}, "group": "control_change"}, {"time": 1020, "annotation": {"number": 99, "value": 29}, "group": "control_change"}, {"time": 1030, "annotation": {"number": 98, "value": 38}, "group": "control_change"}, {"time": 1040, "annotation": {"number": 6, "value": 100}, "group": "control_change"}, {"time": 1050, "annotation": {"number": 99, "value": 24}, "group": "control_change"}, {"time": 1060, "annotation": {"number": 98, "value": 38}, "group": "control_change"}, {"time": 1070, "annotation": {"number": 6, "value": 64}, "group": "control_change"}, {"time": 1080, "annotation": {"number": 99, "value": 26}, "group": "control_change"}, {"time": 1090, "annotation": {"number": 98, "value": 38}, "group": "control_change"}, {"time": 1100, "annotation": {"number": 6, "value": 100}, "group": "control_change"}, {"time": 1110, "annotation": {"number": 99, "value": 28}, "group": "control_change"}, {"time": 1120, "annotation": {"number": 98, "value": 45}, "group": "control_change"}, {"time": 1130, "annotation": {"number": 6, "value": 64}, "group": "control_change"}, {"time": 1140, "annotation": {"number": 101, "value": 127}, "group": "control_change"}, {"time": 1150, "annotation": {"number": 100, "value": 127}, "group": "control_change"}, {"time": 46320, "annotation": {"number": 11, "value": 100}, "group": "control_change"}, {"time": 65040, "annotation": {"number": 11, "value": 105}, "group": "control_change"}, {"time": 70800, "annotation": {"number": 11, "value": 110}, "group": "control_change"}]}, {"program": 0, "is_drum": false, "name": "GT RIFF 2", "annotations": [{"time": 960, "annotation": {"number": 0, "value": 1}, "group": "control_change"}, {"time": 970, "annotation": {"number": 32, "value": 0}, "group": "control_change"}]}, {"program": 28, "is_drum": false, "name": "GT RIFF 2", "notes": [{"time": 90000, "pitch": 58, "duration": 100, "velocity": 90}, {"time": 90120, "pitch": 63, "duration": 100, "velocity": 100}, {"time": 90240, "pitch": 67, "duration": 120, "velocity": 110}, {"time": 90360, "pitch": 63, "duration": 100, "velocity": 100}, {"time": 90480, "pitch": 58, "duration": 100, "velocity": 100}, {"time": 90600, "pitch": 63, "duration": 100, "velocity": 100}, {"time": 90720, "pitch": 65, "duration": 120, "velocity": 110}, {"time": 90840, "pitch": 62, "duration": 100, "velocity": 100}, {"time": 90960, "pitch": 57, "duration": 220, "velocity": 100}, {"time": 91200, "pitch": 56, "duration": 100, "velocity": 90}, {"time": 91320, "pitch": 61, "duration": 100, "velocity": 100}, {"time": 91440, "pitch": 65, "duration": 120, "velocity": 110}, {"time": 91560, "pitch": 61, "duration": 100, "velocity": 100}, {"time": 91680, "pitch": 56, "duration": 100, "velocity": 100}, {"time": 91800, "pitch": 61, "duration": 100, "velocity": 100}, {"time": 91920, "pitch": 63, "duration": 120, "velocity": 110}, {"time": 92040, "pitch": 60, "duration": 100, "velocity": 100}, {"time": 92160, "pitch": 55, "duration": 220, "velocity": 100}, {"time": 92400, "pitch": 54, "duration": 100, "velocity": 90}, {"time": 92520, "pitch": 59, "duration": 100, "velocity": 100}, {"time": 92640, "pitch": 63, "duration": 120, "velocity": 110}, {"time": 92760, "pitch": 59, "duration": 100, "velocity": 100}, {"time": 92880, "pitch": 54, "duration": 100, "velocity": 100}, {"time": 93000, "pitch": 59, "duration": 100, "velocity": 100}, {"time": 93120, "pitch": 61, "duration": 120, "velocity": 110}, {"time": 93240, "pitch": 58, "duration": 100, "velocity": 100}, {"time": 93360, "pitch": 53, "duration": 220, "velocity": 100}, {"time": 93600, "pitch": 52, "duration": 100, "velocity": 90}, {"time": 93720, "pitch": 57, "duration": 100, "velocity": 100}, {"time": 93840, "pitch": 61, "duration": 120, "velocity": 110}, {"time": 93960, "pitch": 57, "duration": 100, "velocity": 100}, {"time": 94080, "pitch": 52, "duration": 100, "velocity": 100}, {"time": 94200, "pitch": 57, "duration": 100, "velocity": 100}, {"time": 94320, "pitch": 59, "duration": 120, "velocity": 110}, {"time": 94440, "pitch": 56, "duration": 100, "velocity": 100}, {"time": 94560, "pitch": 51, "duration": 220, "velocity": 100}, {"time": 94800, "pitch": 58, "duration": 100, "velocity": 90}, {"time": 94920, "pitch": 63, "duration": 100, "velocity": 100}, {"time": 95040, "pitch": 67, "duration": 120, "velocity": 110}, {"time": 95160, "pitch": 63, "duration": 100, "velocity": 100}, {"time": 95280, "pitch": 58, "duration": 100, "velocity": 100}, {"time": 95400, "pitch": 63, "duration": 100, "velocity": 100}, {"time": 95520, "pitch": 65, "duration": 120, "velocity": 110}, {"time": 95640, "pitch": 62, "duration": 100, "velocity": 100}, {"time": 95760, "pitch": 57, "duration": 220, "velocity": 100}, {"time": 96000, "pitch": 56, "duration": 100, "velocity": 90}, {"time": 96120, "pitch": 61, "duration": 100, "velocity": 100}, {"time": 96240, "pitch": 65, "duration": 120, "velocity": 110}, {"time": 96360, "pitch": 61, "duration": 100, "velocity": 100}, {"time": 96480, "pitch": 56, "duration": 100, "velocity": 100}, {"time": 96600, "pitch": 61, "duration": 100, "velocity": 100}, {"time": 96720, "pitch": 63, "duration": 120, "velocity": 110}, {"time": 96840, "pitch": 60, "duration": 100, "velocity": 100}, {"time": 96960, "pitch": 55, "duration": 220, "velocity": 100}, {"time": 97200, "pitch": 54, "duration": 100, "velocity": 90}, {"time": 97320, "pitch": 59, "duration": 100, "velocity": 100}, {"time": 97440, "pitch": 63, "duration": 120, "velocity": 110}, {"time": 97560, "pitch": 59, "duration": 100, "velocity": 100}, {"time": 97680, "pitch": 54, "duration": 100, "velocity": 100}, {"time": 97800, "pitch": 59, "duration": 100, "velocity": 100}, {"time": 97920, "pitch": 61, "duration": 120, "velocity": 110}, {"time": 98040, "pitch": 58, "duration": 100, "velocity": 100}, {"time": 98160, "pitch": 53, "duration": 220, "velocity": 100}, {"time": 98400, "pitch": 52, "duration": 100, "velocity": 90}, {"time": 98520, "pitch": 57, "duration": 100, "velocity": 100}, {"time": 98640, "pitch": 61, "duration": 120, "velocity": 110}, {"time": 98760, "pitch": 57, "duration": 100, "velocity": 100}, {"time": 98880, "pitch": 52, "duration": 100, "velocity": 100}, {"time": 99000, "pitch": 57, "duration": 100, "velocity": 100}, {"time": 99120, "pitch": 59, "duration": 120, "velocity": 110}, {"time": 99240, "pitch": 56, "duration": 100, "velocity": 100}, {"time": 99360, "pitch": 51, "duration": 220, "velocity": 100}], "annotations": [{"time": 990, "annotation": {"number": 7, "value": 90}, "group": "control_change"}, {"time": 1000, "annotation": {"number": 11, "value": 100}, "group": "control_change"}, {"time": 1010, "annotation": {"number": 10, "value": 100}, "group": "control_change"}, {"time": 1020, "annotation": {"number": 91, "value": 70}, "group": "control_change"}, {"time": 1030, "annotation": {"number": 93, "value": 0}, "group": "control_change"}, {"time": 1040, "annotation": {"number": 101, "value": 0}, "group": "control_change"}, {"time": 1050, "annotation": {"number": 100, "value": 0}, "group": "control_change"}, {"time": 1060, "annotation": {"number": 6, "value": 12}, "group": "control_change"}, {"time": 1070, "annotation": {"number": 101, "value": 127}, "group": "control_change"}, {"time": 1080, "annotation": {"number": 100, "value": 127}, "group": "control_change"}, {"time": 90210, "annotation": {"number": 0, "value": 0}, "group": "control_change"}, {"time": 90220, "annotation": {"number": 32, "value": 0}, "group": "control_change"}, {"time": 90690, "annotation": {"number": 0, "value": 0}, "group": "control_change"}, {"time": 90700, "annotation": {"number": 32, "value": 0}, "group": "control_change"}, {"time": 91410, "annotation": {"number": 0, "value": 0}, "group": "control_change"}, {"time": 91420, "annotation": {"number": 32, "value": 0}, "group": "control_change"}, {"time": 91890, "annotation": {"number": 0, "value": 0}, "group": "control_change"}, {"time": 91900, "annotation": {"number": 32, "value": 0}, "group": "control_change"}, {"time": 92610, "annotation": {"number": 0, "value": 0}, "group": "control_change"}, {"time": 92620, "annotation": {"number": 32, "value": 0}, "group": "control_change"}, {"time": 93090, "annotation": {"number": 0, "value": 0}, "group": "control_change"}, {"time": 93100, "annotation": {"number": 32, "value": 0}, "group": "control_change"}, {"time": 93810, "annotation": {"number": 0, "value": 0}, "group": "control_change"}, {"time": 93820, "annotation": {"number": 32, "value": 0}, "group": "control_change"}, {"time": 94290, "annotation": {"number": 0, "value": 0}, "group": "control_change"}, {"time": 94300, "annotation": {"number": 32, "value": 0}, "group": "control_change"}, {"time": 95010, "annotation": {"number": 0, "value": 0}, "group": "control_change"}, {"time": 95020, "annotation": {"number": 32, "value": 0}, "group": "control_change"}, {"time": 95490, "annotation": {"number": 0, "value": 0}, "group": "control_change"}, {"time": 95500, "annotation": {"number": 32, "value": 0}, "group": "control_change"}, {"time": 96210, "annotation": {"number": 0, "value": 0}, "group": "control_change"}, {"time": 96220, "annotation": {"number": 32, "value": 0}, "group": "control_change"}, {"time": 96690, "annotation": {"number": 0, "value": 0}, "group": "control_change"}, {"time": 96700, "annotation": {"number": 32, "value": 0}, "group": "control_change"}, {"time": 97410, "annotation": {"number": 0, "value": 0}, "group": "control_change"}, {"time": 97420, "annotation": {"number": 32, "value": 0}, "group": "control_change"}, {"time": 97890, "annotation": {"number": 0, "value": 0}, "group": "control_change"}, {"time": 97900, "annotation": {"number": 32, "value": 0}, "group": "control_change"}, {"time": 98610, "annotation": {"number": 0, "value": 0}, "group": "control_change"}, {"time": 98620, "annotation": {"number": 32, "value": 0}, "group": "control_change"}, {"time": 99090, "annotation": {"number": 0, "value": 0}, "group": "control_change"}, {"time": 99100, "annotation": {"number": 32, "value": 0}, "group": "control_change"}, {"time": 99570, "annotation": {"number": 0, "value": 0}, "group": "control_change"}, {"time": 99580, "annotation": {"number": 32, "value": 0}, "group": "control_change"}]}, {"program": 30, "is_drum": false, "name": "GT RIFF 2", "notes": [{"time": 99600, "pitch": 52, "duration": 220, "velocity": 90}, {"time": 99600, "pitch": 57, "duration": 220, "velocity": 100}, {"time": 99840, "pitch": 52, "duration": 40, "velocity": 90}, {"time": 99840, "pitch": 57, "duration": 40, "velocity": 100}, {"time": 99960, "pitch": 53, "duration": 220, "velocity": 90}, {"time": 99960, "pitch": 58, "duration": 220, "velocity": 100}, {"time": 100200, "pitch": 53, "duration": 40, "velocity": 90}, {"time": 100200, "pitch": 58, "duration": 40, "velocity": 100}, {"time": 100320, "pitch": 55, "duration": 220, "velocity": 90}, {"time": 100320, "pitch": 60, "duration": 220, "velocity": 100}, {"time": 100560, "pitch": 55, "duration": 40, "velocity": 90}, {"time": 100560, "pitch": 60, "duration": 40, "velocity": 100}, {"time": 100680, "pitch": 57, "duration": 220, "velocity": 90}, {"time": 100680, "pitch": 62, "duration": 220, "velocity": 100}, {"time": 100920, "pitch": 57, "duration": 40, "velocity": 90}, {"time": 100920, "pitch": 62, "duration": 40, "velocity": 100}, {"time": 101040, "pitch": 58, "duration": 220, "velocity": 90}, {"time": 101040, "pitch": 63, "duration": 220, "velocity": 100}, {"time": 101280, "pitch": 58, "duration": 40, "velocity": 90}, {"time": 101280, "pitch": 63, "duration": 40, "velocity": 100}, {"time": 101400, "pitch": 58, "duration": 220, "velocity": 90}, {"time": 101400, "pitch": 63, "duration": 220, "velocity": 100}, {"time": 101640, "pitch": 58, "duration": 40, "velocity": 90}, {"time": 101640, "pitch": 63, "duration": 40, "velocity": 100}, {"time": 101760, "pitch": 60, "duration": 150, "velocity": 90}, {"time": 101760, "pitch": 65, "duration": 150, "velocity": 100}, {"time": 102000, "pitch": 60, "duration": 220, "velocity": 90}, {"time": 102000, "pitch": 65, "duration": 220, "velocity": 100}], "annotations": [{"time": 90330, "annotation": {"number": 0, "value": 1}, "group": "control_change"}, {"time": 90340, "annotation": {"number": 32, "value": 0}, "group": "control_change"}, {"time": 90810, "annotation": {"number": 0, "value": 1}, "group": "control_change"}, {"time": 90820, "annotation": {"number": 32, "value": 0}, "group": "control_change"}, {"time": 91530, "annotation": {"number": 0, "value": 1}, "group": "control_change"}, {"time": 91540, "annotation": {"number": 32, "value": 0}, "group": "control_change"}, {"time": 92010, "annotation": {"number": 0, "value": 1}, "group": "control_change"}, {"time": 92020, "annotation": {"number": 32, "value": 0}, "group": "control_change"}, {"time": 92730, "annotation": {"number": 0, "value": 1}, "group": "control_change"}, {"time": 92740, "annotation": {"number": 32, "value": 0}, "group": "control_change"}, {"time": 93210, "annotation": {"number": 0, "value": 1}, "group": "control_change"}, {"time": 93220, "annotation": {"number": 32, "value": 0}, "group": "control_change"}, {"time": 93930, "annotation": {"number": 0, "value": 1}, "group": "control_change"}, {"time": 93940, "annotation": {"number": 32, "value": 0}, "group": "control_change"}, {"time": 94410, "annotation": {"number": 0, "value": 1}, "group": "control_change"}, {"time": 94420, "annotation": {"number": 32, "value": 0}, "group": "control_change"}, {"time": 95130, "annotation": {"number": 0, "value": 1}, "group": "control_change"}, {"time": 95140, "annotation": {"number": 32, "value": 0}, "group": "control_change"}, {"time": 95610, "annotation": {"number": 0, "value": 1}, "group": "control_change"}, {"time": 95620, "annotation": {"number": 32, "value": 0}, "group": "control_change"}, {"time": 96330, "annotation": {"number": 0, "value": 1}, "group": "control_change"}, {"time": 96340, "annotation": {"number": 32, "value": 0}, "group": "control_change"}, {"time": 96810, "annotation": {"number": 0, "value": 1}, "group": "control_change"}, {"time": 96820, "annotation": {"number": 32, "value": 0}, "group": "control_change"}, {"time": 97530, "annotation": {"number": 0, "value": 1}, "group": "control_change"}, {"time": 97540, "annotation": {"number": 32, "value": 0}, "group": "control_change"}, {"time": 98010, "annotation": {"number": 0, "value": 1}, "group": "control_change"}, {"time": 98020, "annotation": {"number": 32, "value": 0}, "group": "control_change"}, {"time": 98730, "annotation": {"number": 0, "value": 1}, "group": "control_change"}, {"time": 98740, "annotation": {"number": 32, "value": 0}, "group": "control_change"}, {"time": 99210, "annotation": {"number": 0, "value": 1}, "group": "control_change"}, {"time": 99220, "annotation": {"number": 32, "value": 0}, "group": "control_change"}]}]}