{"metadata": {"schema_version": "0.1", "title": "RWC-MDB-P-2001 No. 57: Stay with me / Masashi Hashimoto", "copyright": "RWC Music Database. Copyright (C) 2001 Real World Computing Partnership (contact: Masataka GOTO <m.goto@aist.go.jp>)", "source_filename": "RM-P057.SMF_SYNC.MID", "source_format": "midi"}, "resolution": 480, "tempos": [{"time": 0, "qpm": 31.413612565445025}, {"time": 480, "qpm": 61.224489795918366}, {"time": 13440, "qpm": 51.724137931034484}, {"time": 13920, "qpm": 69.76744186046511}, {"time": 14880, "qpm": 70.58823529411765}, {"time": 15360, "qpm": 69.76744186046511}, {"time": 15840, "qpm": 70.58823529411765}, {"time": 16320, "qpm": 69.76744186046511}, {"time": 18240, "qpm": 70.58823529411765}, {"time": 19200, "qpm": 69.76744186046511}, {"time": 20160, "qpm": 70.58823529411765}, {"time": 20640, "qpm": 69.76744186046511}, {"time": 22080, "qpm": 70.58823529411765}, {"time": 22560, "qpm": 69.76744186046511}, {"time": 24480, "qpm": 70.58823529411765}, {"time": 24960, "qpm": 69.76744186046511}, {"time": 25920, "qpm": 70.58823529411765}, {"time": 26880, "qpm": 69.76744186046511}, {"time": 28320, "qpm": 70.58823529411765}, {"time": 28800, "qpm": 69.76744186046511}, {"time": 31680, "qpm": 70.58823529411765}, {"time": 32160, "qpm": 69.76744186046511}, {"time": 33120, "qpm": 70.58823529411765}, {"time": 34080, "qpm": 69.76744186046511}, {"time": 36480, "qpm": 70.58823529411765}, {"time": 36960, "qpm": 69.76744186046511}, {"time": 37440, "qpm": 70.58823529411765}, {"time": 37920, "qpm": 69.76744186046511}, {"time": 38880, "qpm": 70.58823529411765}, {"time": 39360, "qpm": 69.76744186046511}, {"time": 41760, "qpm": 70.58823529411765}, {"time": 42240, "qpm": 69.76744186046511}, {"time": 43200, "qpm": 70.58823529411765}, {"time": 43680, "qpm": 69.76744186046511}, {"time": 45120, "qpm": 70.58823529411765}, {"time": 46080, "qpm": 69.76744186046511}, {"time": 47520, "qpm": 70.58823529411765}, {"time": 48000, "qpm": 69.76744186046511}, {"time": 49440, "qpm": 70.58823529411765}, {"time": 50880, "qpm": 69.76744186046511}, {"time": 51360, "qpm": 70.58823529411765}, {"time": 51840, "qpm": 69.76744186046511}, {"time": 55680, "qpm": 70.58823529411765}, {"time": 56160, "qpm": 69.76744186046511}, {"time": 58560, "qpm": 70.58823529411765}, {"time": 59520, "qpm": 69.76744186046511}, {"time": 62400, "qpm": 70.58823529411765}, {"time": 62880, "qpm": 69.76744186046511}, {"time": 64800, "qpm": 70.58823529411765}, {"time": 65760, "qpm": 69.76744186046511}, {"time": 66720, "qpm": 70.58823529411765}, {"time": 67200, "qpm": 69.76744186046511}, {"time": 68640, "qpm": 70.58823529411765}, {"time": 69120, "qpm": 69.76744186046511}, {"time": 69600, "qpm": 70.58823529411765}, {"time": 70560, "qpm": 69.76744186046511}, {"time": 73920, "qpm": 70.58823529411765}, {"time": 74880, "qpm": 69.76744186046511}, {"time": 75840, "qpm": 70.58823529411765}, {"time": 76800, "qpm": 69.76744186046511}, {"time": 80640, "qpm": 70.58823529411765}, {"time": 81120, "qpm": 69.76744186046511}, {"time": 81600, "qpm": 70.58823529411765}, {"time": 82080, "qpm": 69.76744186046511}, {"time": 83040, "qpm": 70.58823529411765}, {"time": 83520, "qpm": 69.76744186046511}, {"time": 87360, "qpm": 70.58823529411765}, {"time": 88320, "qpm": 69.76744186046511}, {"time": 91200, "qpm": 70.58823529411765}, {"time": 92640, "qpm": 69.76744186046511}, {"time": 93600, "qpm": 70.58823529411765}, {"time": 94080, "qpm": 69.76744186046511}, {"time": 94560, "qpm": 70.58823529411765}, {"time": 95040, "qpm": 69.76744186046511}, {"time": 96480, "qpm": 70.58823529411765}, {"time": 96960, "qpm": 69.76744186046511}, {"time": 100320, "qpm": 70.58823529411765}, {"time": 100800, "qpm": 69.76744186046511}, {"time": 101760, "qpm": 70.58823529411765}, {"time": 102720, "qpm": 69.76744186046511}, {"time": 105120, "qpm": 70.58823529411765}, {"time": 106560, "qpm": 69.76744186046511}, {"time": 108000, "qpm": 70.58823529411765}, {"time": 108480, "qpm": 69.76744186046511}, {"time": 109920, "qpm": 70.58823529411765}, {"time": 110400, "qpm": 69.76744186046511}, {"time": 114720, "qpm": 70.58823529411765}, {"time": 116160, "qpm": 69.76744186046511}, {"time": 118080, "qpm": 70.58823529411765}, {"time": 119040, "qpm": 69.76744186046511}, {"time": 119520, "qpm": 70.58823529411765}, {"time": 120000, "qpm": 69.76744186046511}, {"time": 122880, "qpm": 70.58823529411765}, {"time": 123840, "qpm": 69.76744186046511}, {"time": 126240, "qpm": 70.58823529411765}, {"time": 127680, "qpm": 69.76744186046511}, {"time": 132000, "qpm": 70.58823529411765}, {"time": 133440, "qpm": 69.76744186046511}, {"time": 135840, "qpm": 70.58823529411765}, {"time": 136320, "qpm": 69.76744186046511}, {"time": 136800, "qpm": 70.58823529411765}, {"time": 137280, "qpm": 69.76744186046511}], "key_signatures": [{"time": 0, "root": 3, "mode": "major"}], "time_signatures": [{"time": 0, "numerator": 1, "denominator": 4}, {"time": 480, "numerator": 4, "denominator": 4}], "tracks": [{"program": 0, "is_drum": false, "name": "E.PF", "annotations": [{"time": 179, "annotation": {"number": 0, "value": 0}, "group": "control_change"}, {"time": 188, "annotation": {"number": 32, "value": 2}, "group": "control_change"}]}, {"program": 5, "is_drum": false, "name": "E.PF", "notes": [{"time": 13923, "pitch": 39, "duration": 819, "velocity": 109}, {"time": 13923, "pitch": 51, "duration": 270, "velocity": 96}, {"time": 13923, "pitch": 58, "duration": 495, "velocity": 111}, {"time": 13923, "pitch": 63, "duration": 524, "velocity": 109}, {"time": 13923, "pitch": 67, "duration": 543, "velocity": 111}, {"time": 14401, "pitch": 51, "duration": 325, "velocity": 96}, {"time": 14521, "pitch": 58, "duration": 68, "velocity": 96}, {"time": 14640, "pitch": 63, "duration": 65, "velocity": 101}, {"time": 14760, "pitch": 67, "duration": 42, "velocity": 89}, {"time": 14879, "pitch": 39, "duration": 791, "velocity": 111}, {"time": 14879, "pitch": 51, "duration": 247, "velocity": 101}, {"time": 14879, "pitch": 58, "duration": 513, "velocity": 97}, {"time": 14879, "pitch": 62, "duration": 555, "velocity": 109}, {"time": 14879, "pitch": 65, "duration": 564, "velocity": 96}, {"time": 15358, "pitch": 51, "duration": 307, "velocity": 112}, {"time": 15479, "pitch": 58, "duration": 68, "velocity": 102}, {"time": 15600, "pitch": 62, "duration": 72, "velocity": 99}, {"time": 15721, "pitch": 65, "duration": 41, "velocity": 88}, {"time": 15842, "pitch": 39, "duration": 862, "velocity": 107}, {"time": 15842, "pitch": 51, "duration": 274, "velocity": 97}, {"time": 15842, "pitch": 56, "duration": 520, "velocity": 96}, {"time": 15842, "pitch": 60, "duration": 555, "velocity": 106}, {"time": 15842, "pitch": 63, "duration": 575, "velocity": 89}, {"time": 16320, "pitch": 51, "duration": 356, "velocity": 113}, {"time": 16440, "pitch": 56, "duration": 67, "velocity": 103}, {"time": 16559, "pitch": 60, "duration": 66, "velocity": 97}, {"time": 16679, "pitch": 63, "duration": 34, "velocity": 94}, {"time": 16799, "pitch": 39, "duration": 752, "velocity": 103}, {"time": 16799, "pitch": 51, "duration": 266, "velocity": 97}, {"time": 16799, "pitch": 62, "duration": 244, "velocity": 107}, {"time": 16799, "pitch": 65, "duration": 218, "velocity": 95}, {"time": 17041, "pitch": 58, "duration": 56, "velocity": 93}, {"time": 17162, "pitch": 67, "duration": 235, "velocity": 121}, {"time": 17283, "pitch": 51, "duration": 249, "velocity": 104}, {"time": 17402, "pitch": 58, "duration": 64, "velocity": 90}, {"time": 17522, "pitch": 65, "duration": 49, "velocity": 111}, {"time": 17761, "pitch": 39, "duration": 866, "velocity": 106}, {"time": 17761, "pitch": 51, "duration": 250, "velocity": 102}, {"time": 17761, "pitch": 58, "duration": 508, "velocity": 109}, {"time": 17761, "pitch": 63, "duration": 546, "velocity": 108}, {"time": 17761, "pitch": 67, "duration": 572, "velocity": 113}, {"time": 18239, "pitch": 51, "duration": 359, "velocity": 112}, {"time": 18359, "pitch": 58, "duration": 63, "velocity": 95}, {"time": 18479, "pitch": 63, "duration": 55, "velocity": 103}, {"time": 18598, "pitch": 67, "duration": 45, "velocity": 97}, {"time": 18718, "pitch": 39, "duration": 839, "velocity": 96}, {"time": 18718, "pitch": 51, "duration": 286, "velocity": 89}, {"time": 18718, "pitch": 58, "duration": 553, "velocity": 91}, {"time": 18718, "pitch": 62, "duration": 587, "velocity": 94}, {"time": 18718, "pitch": 65, "duration": 603, "velocity": 93}, {"time": 19202, "pitch": 51, "duration": 305, "velocity": 112}, {"time": 19321, "pitch": 58, "duration": 72, "velocity": 106}, {"time": 19441, "pitch": 62, "duration": 64, "velocity": 102}, {"time": 19561, "pitch": 65, "duration": 44, "velocity": 104}, {"time": 19680, "pitch": 39, "duration": 844, "velocity": 96}, {"time": 19680, "pitch": 51, "duration": 230, "velocity": 89}, {"time": 19680, "pitch": 56, "duration": 505, "velocity": 99}, {"time": 19680, "pitch": 60, "duration": 535, "velocity": 101}, {"time": 19680, "pitch": 63, "duration": 557, "velocity": 88}, {"time": 20159, "pitch": 51, "duration": 352, "velocity": 112}, {"time": 20280, "pitch": 56, "duration": 77, "velocity": 96}, {"time": 20401, "pitch": 60, "duration": 54, "velocity": 97}, {"time": 20522, "pitch": 63, "duration": 39, "velocity": 101}, {"time": 20643, "pitch": 39, "duration": 799, "velocity": 98}, {"time": 20643, "pitch": 51, "duration": 285, "velocity": 91}, {"time": 20643, "pitch": 62, "duration": 265, "velocity": 102}, {"time": 20643, "pitch": 65, "duration": 241, "velocity": 95}, {"time": 20882, "pitch": 58, "duration": 53, "velocity": 91}, {"time": 21001, "pitch": 67, "duration": 240, "velocity": 122}, {"time": 21121, "pitch": 51, "duration": 273, "velocity": 106}, {"time": 21241, "pitch": 58, "duration": 63, "velocity": 96}, {"time": 21360, "pitch": 65, "duration": 42, "velocity": 102}, {"time": 21599, "pitch": 39, "duration": 1470, "velocity": 96}, {"time": 21599, "pitch": 51, "duration": 304, "velocity": 99}, {"time": 21599, "pitch": 58, "duration": 462, "velocity": 111}, {"time": 21599, "pitch": 63, "duration": 536, "velocity": 112}, {"time": 21599, "pitch": 67, "duration": 630, "velocity": 115}, {"time": 22078, "pitch": 51, "duration": 730, "velocity": 76}, {"time": 22199, "pitch": 58, "duration": 82, "velocity": 81}, {"time": 22320, "pitch": 63, "duration": 69, "velocity": 91}, {"time": 22441, "pitch": 67, "duration": 36, "velocity": 88}, {"time": 22562, "pitch": 75, "duration": 36, "velocity": 108}, {"time": 23040, "pitch": 51, "duration": 46, "velocity": 109}, {"time": 23040, "pitch": 58, "duration": 45, "velocity": 95}, {"time": 23040, "pitch": 63, "duration": 35, "velocity": 106}, {"time": 23040, "pitch": 67, "duration": 46, "velocity": 112}, {"time": 23519, "pitch": 43, "duration": 842, "velocity": 98}, {"time": 23519, "pitch": 55, "duration": 303, "velocity": 106}, {"time": 23519, "pitch": 67, "duration": 473, "velocity": 102}, {"time": 23519, "pitch": 70, "duration": 531, "velocity": 107}, {"time": 23519, "pitch": 74, "duration": 581, "velocity": 87}, {"time": 23519, "pitch": 77, "duration": 606, "velocity": 89}, {"time": 24003, "pitch": 55, "duration": 329, "velocity": 98}, {"time": 24122, "pitch": 67, "duration": 66, "velocity": 102}, {"time": 24242, "pitch": 70, "duration": 80, "velocity": 111}, {"time": 24361, "pitch": 74, "duration": 69, "velocity": 89}, {"time": 24481, "pitch": 43, "duration": 215, "velocity": 106}, {"time": 24481, "pitch": 55, "duration": 216, "velocity": 115}, {"time": 24481, "pitch": 67, "duration": 219, "velocity": 111}, {"time": 24481, "pitch": 70, "duration": 258, "velocity": 104}, {"time": 24481, "pitch": 74, "duration": 241, "velocity": 79}, {"time": 24481, "pitch": 75, "duration": 49, "velocity": 40}, {"time": 24959, "pitch": 42, "duration": 176, "velocity": 96}, {"time": 24959, "pitch": 54, "duration": 178, "velocity": 108}, {"time": 24959, "pitch": 64, "duration": 166, "velocity": 99}, {"time": 24959, "pitch": 70, "duration": 153, "velocity": 107}, {"time": 24959, "pitch": 76, "duration": 176, "velocity": 93}, {"time": 25438, "pitch": 41, "duration": 766, "velocity": 91}, {"time": 25438, "pitch": 53, "duration": 744, "velocity": 88}, {"time": 25438, "pitch": 65, "duration": 224, "velocity": 90}, {"time": 25438, "pitch": 68, "duration": 394, "velocity": 93}, {"time": 25438, "pitch": 72, "duration": 386, "velocity": 96}, {"time": 25438, "pitch": 75, "duration": 445, "velocity": 88}, {"time": 25922, "pitch": 65, "duration": 49, "velocity": 89}, {"time": 26041, "pitch": 72, "duration": 141, "velocity": 107}, {"time": 26161, "pitch": 68, "duration": 49, "velocity": 111}, {"time": 26400, "pitch": 50, "duration": 563, "velocity": 109}, {"time": 26400, "pitch": 60, "duration": 186, "velocity": 104}, {"time": 26400, "pitch": 65, "duration": 197, "velocity": 104}, {"time": 26400, "pitch": 69, "duration": 205, "velocity": 98}, {"time": 26879, "pitch": 43, "duration": 233, "velocity": 94}, {"time": 26879, "pitch": 55, "duration": 200, "velocity": 97}, {"time": 26879, "pitch": 65, "duration": 224, "velocity": 94}, {"time": 26879, "pitch": 71, "duration": 222, "velocity": 88}, {"time": 26879, "pitch": 74, "duration": 233, "velocity": 94}, {"time": 27363, "pitch": 36, "duration": 1228, "velocity": 91}, {"time": 27363, "pitch": 48, "duration": 218, "velocity": 96}, {"time": 27363, "pitch": 60, "duration": 483, "velocity": 93}, {"time": 27363, "pitch": 63, "duration": 523, "velocity": 101}, {"time": 27363, "pitch": 67, "duration": 578, "velocity": 95}, {"time": 27841, "pitch": 48, "duration": 738, "velocity": 96}, {"time": 27961, "pitch": 60, "duration": 62, "velocity": 99}, {"time": 28080, "pitch": 63, "duration": 47, "velocity": 101}, {"time": 28200, "pitch": 67, "duration": 409, "velocity": 115}, {"time": 28439, "pitch": 63, "duration": 118, "velocity": 94}, {"time": 28559, "pitch": 60, "duration": 50, "velocity": 103}, {"time": 28798, "pitch": 34, "duration": 258, "velocity": 98}, {"time": 28798, "pitch": 46, "duration": 249, "velocity": 99}, {"time": 28798, "pitch": 58, "duration": 253, "velocity": 112}, {"time": 28798, "pitch": 62, "duration": 257, "velocity": 108}, {"time": 28798, "pitch": 67, "duration": 295, "velocity": 106}, {"time": 29282, "pitch": 32, "duration": 1900, "velocity": 102}, {"time": 29282, "pitch": 44, "duration": 242, "velocity": 94}, {"time": 29282, "pitch": 60, "duration": 482, "velocity": 101}, {"time": 29282, "pitch": 63, "duration": 516, "velocity": 107}, {"time": 29282, "pitch": 67, "duration": 587, "velocity": 103}, {"time": 29760, "pitch": 44, "duration": 319, "velocity": 87}, {"time": 29880, "pitch": 60, "duration": 60, "velocity": 87}, {"time": 29999, "pitch": 63, "duration": 58, "velocity": 93}, {"time": 30119, "pitch": 67, "duration": 42, "velocity": 101}, {"time": 30239, "pitch": 46, "duration": 275, "velocity": 89}, {"time": 30239, "pitch": 58, "duration": 503, "velocity": 96}, {"time": 30239, "pitch": 62, "duration": 561, "velocity": 97}, {"time": 30239, "pitch": 65, "duration": 643, "velocity": 90}, {"time": 30723, "pitch": 44, "duration": 365, "velocity": 108}, {"time": 30842, "pitch": 58, "duration": 70, "velocity": 95}, {"time": 30962, "pitch": 62, "duration": 61, "velocity": 99}, {"time": 31081, "pitch": 65, "duration": 54, "velocity": 88}, {"time": 31201, "pitch": 31, "duration": 208, "velocity": 101}, {"time": 31201, "pitch": 43, "duration": 220, "velocity": 101}, {"time": 31201, "pitch": 58, "duration": 219, "velocity": 107}, {"time": 31201, "pitch": 62, "duration": 258, "velocity": 109}, {"time": 31201, "pitch": 65, "duration": 263, "velocity": 90}, {"time": 31679, "pitch": 35, "duration": 200, "velocity": 96}, {"time": 31679, "pitch": 47, "duration": 229, "velocity": 103}, {"time": 31679, "pitch": 59, "duration": 239, "velocity": 95}, {"time": 31679, "pitch": 62, "duration": 240, "velocity": 95}, {"time": 31679, "pitch": 65, "duration": 246, "velocity": 102}, {"time": 32158, "pitch": 36, "duration": 273, "velocity": 93}, {"time": 32158, "pitch": 48, "duration": 244, "velocity": 99}, {"time": 32158, "pitch": 60, "duration": 282, "velocity": 102}, {"time": 32158, "pitch": 63, "duration": 267, "velocity": 106}, {"time": 32158, "pitch": 67, "duration": 321, "velocity": 101}, {"time": 32642, "pitch": 34, "duration": 280, "velocity": 95}, {"time": 32642, "pitch": 46, "duration": 274, "velocity": 96}, {"time": 32642, "pitch": 58, "duration": 278, "velocity": 103}, {"time": 32642, "pitch": 62, "duration": 272, "velocity": 101}, {"time": 32642, "pitch": 67, "duration": 345, "velocity": 103}, {"time": 33120, "pitch": 32, "duration": 776, "velocity": 93}, {"time": 33120, "pitch": 44, "duration": 229, "velocity": 91}, {"time": 33120, "pitch": 60, "duration": 468, "velocity": 102}, {"time": 33120, "pitch": 63, "duration": 513, "velocity": 104}, {"time": 33120, "pitch": 67, "duration": 552, "velocity": 102}, {"time": 33599, "pitch": 44, "duration": 322, "velocity": 88}, {"time": 33720, "pitch": 60, "duration": 71, "velocity": 91}, {"time": 33841, "pitch": 63, "duration": 57, "velocity": 90}, {"time": 33962, "pitch": 67, "duration": 41, "velocity": 83}, {"time": 34083, "pitch": 34, "duration": 713, "velocity": 95}, {"time": 34083, "pitch": 46, "duration": 265, "velocity": 99}, {"time": 34083, "pitch": 56, "duration": 278, "velocity": 95}, {"time": 34083, "pitch": 60, "duration": 295, "velocity": 97}, {"time": 34083, "pitch": 63, "duration": 313, "velocity": 91}, {"time": 34561, "pitch": 46, "duration": 229, "velocity": 115}, {"time": 34561, "pitch": 62, "duration": 249, "velocity": 108}, {"time": 34561, "pitch": 65, "duration": 256, "velocity": 109}, {"time": 34800, "pitch": 58, "duration": 61, "velocity": 91}, {"time": 35039, "pitch": 39, "duration": 841, "velocity": 101}, {"time": 35039, "pitch": 51, "duration": 335, "velocity": 104}, {"time": 35039, "pitch": 58, "duration": 213, "velocity": 106}, {"time": 35039, "pitch": 63, "duration": 514, "velocity": 106}, {"time": 35039, "pitch": 67, "duration": 521, "velocity": 112}, {"time": 35398, "pitch": 58, "duration": 145, "velocity": 103}, {"time": 35518, "pitch": 51, "duration": 253, "velocity": 101}, {"time": 35639, "pitch": 67, "duration": 160, "velocity": 112}, {"time": 35760, "pitch": 63, "duration": 35, "velocity": 95}, {"time": 36002, "pitch": 44, "duration": 254, "velocity": 113}, {"time": 36002, "pitch": 56, "duration": 245, "velocity": 106}, {"time": 36002, "pitch": 60, "duration": 269, "velocity": 108}, {"time": 36002, "pitch": 63, "duration": 286, "velocity": 112}, {"time": 36480, "pitch": 46, "duration": 474, "velocity": 111}, {"time": 36480, "pitch": 62, "duration": 269, "velocity": 111}, {"time": 36480, "pitch": 65, "duration": 270, "velocity": 108}, {"time": 36719, "pitch": 58, "duration": 70, "velocity": 98}, {"time": 36959, "pitch": 39, "duration": 1657, "velocity": 109}, {"time": 36959, "pitch": 51, "duration": 212, "velocity": 103}, {"time": 36959, "pitch": 58, "duration": 372, "velocity": 108}, {"time": 36959, "pitch": 63, "duration": 516, "velocity": 106}, {"time": 36959, "pitch": 67, "duration": 581, "velocity": 113}, {"time": 37443, "pitch": 51, "duration": 583, "velocity": 90}, {"time": 37562, "pitch": 58, "duration": 64, "velocity": 89}, {"time": 37682, "pitch": 63, "duration": 67, "velocity": 88}, {"time": 37801, "pitch": 67, "duration": 35, "velocity": 94}, {"time": 37921, "pitch": 75, "duration": 33, "velocity": 101}, {"time": 38160, "pitch": 60, "duration": 34, "velocity": 38}, {"time": 38399, "pitch": 51, "duration": 224, "velocity": 91}, {"time": 38519, "pitch": 63, "duration": 91, "velocity": 108}, {"time": 38519, "pitch": 67, "duration": 98, "velocity": 112}, {"time": 38878, "pitch": 43, "duration": 762, "velocity": 97}, {"time": 38878, "pitch": 55, "duration": 288, "velocity": 104}, {"time": 38878, "pitch": 67, "duration": 202, "velocity": 97}, {"time": 38878, "pitch": 70, "duration": 544, "velocity": 106}, {"time": 38878, "pitch": 74, "duration": 560, "velocity": 97}, {"time": 39362, "pitch": 55, "duration": 91, "velocity": 90}, {"time": 39481, "pitch": 77, "duration": 89, "velocity": 96}, {"time": 39840, "pitch": 43, "duration": 95, "velocity": 97}, {"time": 39840, "pitch": 55, "duration": 73, "velocity": 102}, {"time": 39840, "pitch": 67, "duration": 53, "velocity": 108}, {"time": 39840, "pitch": 70, "duration": 66, "velocity": 108}, {"time": 39840, "pitch": 74, "duration": 69, "velocity": 98}, {"time": 39840, "pitch": 77, "duration": 66, "velocity": 102}, {"time": 40319, "pitch": 42, "duration": 183, "velocity": 95}, {"time": 40319, "pitch": 54, "duration": 177, "velocity": 99}, {"time": 40319, "pitch": 64, "duration": 196, "velocity": 99}, {"time": 40319, "pitch": 70, "duration": 172, "velocity": 107}, {"time": 40319, "pitch": 76, "duration": 192, "velocity": 93}, {"time": 40803, "pitch": 41, "duration": 572, "velocity": 104}, {"time": 40803, "pitch": 53, "duration": 510, "velocity": 107}, {"time": 40803, "pitch": 65, "duration": 134, "velocity": 91}, {"time": 40803, "pitch": 68, "duration": 227, "velocity": 103}, {"time": 40803, "pitch": 72, "duration": 232, "velocity": 103}, {"time": 41161, "pitch": 72, "duration": 358, "velocity": 116}, {"time": 41401, "pitch": 68, "duration": 125, "velocity": 89}, {"time": 41520, "pitch": 65, "duration": 42, "velocity": 94}, {"time": 41759, "pitch": 38, "duration": 142, "velocity": 103}, {"time": 41759, "pitch": 50, "duration": 253, "velocity": 109}, {"time": 41759, "pitch": 60, "duration": 147, "velocity": 111}, {"time": 41759, "pitch": 65, "duration": 149, "velocity": 108}, {"time": 41759, "pitch": 69, "duration": 159, "velocity": 96}, {"time": 42238, "pitch": 43, "duration": 279, "velocity": 97}, {"time": 42238, "pitch": 55, "duration": 219, "velocity": 108}, {"time": 42238, "pitch": 65, "duration": 220, "velocity": 107}, {"time": 42238, "pitch": 71, "duration": 214, "velocity": 98}, {"time": 42238, "pitch": 74, "duration": 233, "velocity": 103}, {"time": 42722, "pitch": 36, "duration": 1222, "velocity": 88}, {"time": 42722, "pitch": 48, "duration": 209, "velocity": 94}, {"time": 42722, "pitch": 60, "duration": 451, "velocity": 98}, {"time": 42722, "pitch": 63, "duration": 500, "velocity": 102}, {"time": 42722, "pitch": 67, "duration": 610, "velocity": 91}, {"time": 43200, "pitch": 48, "duration": 708, "velocity": 111}, {"time": 43320, "pitch": 60, "duration": 63, "velocity": 91}, {"time": 43439, "pitch": 63, "duration": 51, "velocity": 95}, {"time": 43559, "pitch": 67, "duration": 420, "velocity": 113}, {"time": 43800, "pitch": 63, "duration": 127, "velocity": 86}, {"time": 43921, "pitch": 60, "duration": 54, "velocity": 90}, {"time": 44163, "pitch": 34, "duration": 247, "velocity": 95}, {"time": 44163, "pitch": 46, "duration": 227, "velocity": 97}, {"time": 44163, "pitch": 58, "duration": 247, "velocity": 103}, {"time": 44163, "pitch": 62, "duration": 246, "velocity": 102}, {"time": 44163, "pitch": 67, "duration": 302, "velocity": 98}, {"time": 44641, "pitch": 32, "duration": 1900, "velocity": 102}, {"time": 44641, "pitch": 44, "duration": 242, "velocity": 94}, {"time": 44641, "pitch": 60, "duration": 482, "velocity": 101}, {"time": 44641, "pitch": 63, "duration": 516, "velocity": 107}, {"time": 44641, "pitch": 67, "duration": 587, "velocity": 103}, {"time": 45119, "pitch": 44, "duration": 319, "velocity": 87}, {"time": 45239, "pitch": 60, "duration": 60, "velocity": 87}, {"time": 45359, "pitch": 63, "duration": 57, "velocity": 93}, {"time": 45478, "pitch": 67, "duration": 42, "velocity": 101}, {"time": 45598, "pitch": 46, "duration": 275, "velocity": 89}, {"time": 45598, "pitch": 58, "duration": 504, "velocity": 96}, {"time": 45598, "pitch": 62, "duration": 561, "velocity": 97}, {"time": 45598, "pitch": 65, "duration": 643, "velocity": 90}, {"time": 46082, "pitch": 44, "duration": 366, "velocity": 108}, {"time": 46201, "pitch": 58, "duration": 70, "velocity": 95}, {"time": 46321, "pitch": 62, "duration": 61, "velocity": 99}, {"time": 46441, "pitch": 65, "duration": 53, "velocity": 88}, {"time": 46560, "pitch": 31, "duration": 179, "velocity": 90}, {"time": 46560, "pitch": 43, "duration": 197, "velocity": 90}, {"time": 46560, "pitch": 58, "duration": 194, "velocity": 109}, {"time": 46560, "pitch": 62, "duration": 224, "velocity": 109}, {"time": 46560, "pitch": 65, "duration": 242, "velocity": 99}, {"time": 47039, "pitch": 35, "duration": 184, "velocity": 88}, {"time": 47039, "pitch": 47, "duration": 199, "velocity": 101}, {"time": 47039, "pitch": 59, "duration": 226, "velocity": 101}, {"time": 47039, "pitch": 62, "duration": 197, "velocity": 104}, {"time": 47039, "pitch": 65, "duration": 204, "velocity": 104}, {"time": 47523, "pitch": 36, "duration": 264, "velocity": 103}, {"time": 47523, "pitch": 48, "duration": 224, "velocity": 104}, {"time": 47523, "pitch": 58, "duration": 245, "velocity": 107}, {"time": 47523, "pitch": 63, "duration": 222, "velocity": 107}, {"time": 47523, "pitch": 67, "duration": 304, "velocity": 109}, {"time": 48001, "pitch": 34, "duration": 228, "velocity": 97}, {"time": 48001, "pitch": 46, "duration": 207, "velocity": 106}, {"time": 48001, "pitch": 58, "duration": 228, "velocity": 107}, {"time": 48001, "pitch": 62, "duration": 244, "velocity": 108}, {"time": 48001, "pitch": 67, "duration": 307, "velocity": 103}, {"time": 48479, "pitch": 32, "duration": 724, "velocity": 97}, {"time": 48479, "pitch": 44, "duration": 211, "velocity": 89}, {"time": 48479, "pitch": 60, "duration": 476, "velocity": 98}, {"time": 48479, "pitch": 63, "duration": 510, "velocity": 107}, {"time": 48479, "pitch": 67, "duration": 581, "velocity": 103}, {"time": 48958, "pitch": 44, "duration": 292, "velocity": 112}, {"time": 49079, "pitch": 60, "duration": 74, "velocity": 98}, {"time": 49200, "pitch": 63, "duration": 60, "velocity": 95}, {"time": 49321, "pitch": 67, "duration": 41, "velocity": 80}, {"time": 49442, "pitch": 34, "duration": 688, "velocity": 93}, {"time": 49442, "pitch": 46, "duration": 249, "velocity": 101}, {"time": 49442, "pitch": 56, "duration": 251, "velocity": 102}, {"time": 49442, "pitch": 60, "duration": 267, "velocity": 102}, {"time": 49442, "pitch": 63, "duration": 281, "velocity": 93}, {"time": 49920, "pitch": 46, "duration": 222, "velocity": 116}, {"time": 49920, "pitch": 62, "duration": 258, "velocity": 108}, {"time": 49920, "pitch": 65, "duration": 268, "velocity": 107}, {"time": 50159, "pitch": 58, "duration": 79, "velocity": 88}, {"time": 50399, "pitch": 39, "duration": 1752, "velocity": 98}, {"time": 50399, "pitch": 51, "duration": 321, "velocity": 97}, {"time": 50399, "pitch": 58, "duration": 112, "velocity": 98}, {"time": 50399, "pitch": 63, "duration": 440, "velocity": 108}, {"time": 50399, "pitch": 67, "duration": 500, "velocity": 109}, {"time": 50762, "pitch": 58, "duration": 118, "velocity": 94}, {"time": 50883, "pitch": 51, "duration": 44, "velocity": 91}, {"time": 51002, "pitch": 67, "duration": 288, "velocity": 115}, {"time": 51122, "pitch": 51, "duration": 332, "velocity": 91}, {"time": 51241, "pitch": 63, "duration": 210, "velocity": 82}, {"time": 51481, "pitch": 58, "duration": 191, "velocity": 89}, {"time": 51600, "pitch": 51, "duration": 536, "velocity": 107}, {"time": 51720, "pitch": 63, "duration": 56, "velocity": 91}, {"time": 51839, "pitch": 67, "duration": 248, "velocity": 113}, {"time": 51959, "pitch": 63, "duration": 157, "velocity": 91}, {"time": 52079, "pitch": 58, "duration": 55, "velocity": 109}, {"time": 52318, "pitch": 39, "duration": 698, "velocity": 103}, {"time": 52318, "pitch": 51, "duration": 716, "velocity": 109}, {"time": 52318, "pitch": 58, "duration": 53, "velocity": 69}, {"time": 52318, "pitch": 63, "duration": 251, "velocity": 111}, {"time": 52318, "pitch": 67, "duration": 260, "velocity": 118}, {"time": 52560, "pitch": 58, "duration": 35, "velocity": 76}, {"time": 52802, "pitch": 63, "duration": 275, "velocity": 113}, {"time": 52802, "pitch": 67, "duration": 286, "velocity": 115}, {"time": 53041, "pitch": 58, "duration": 30, "velocity": 80}, {"time": 53280, "pitch": 41, "duration": 730, "velocity": 103}, {"time": 53280, "pitch": 53, "duration": 757, "velocity": 101}, {"time": 53280, "pitch": 63, "duration": 35, "velocity": 57}, {"time": 53280, "pitch": 68, "duration": 255, "velocity": 106}, {"time": 53280, "pitch": 72, "duration": 272, "velocity": 107}, {"time": 53519, "pitch": 63, "duration": 60, "velocity": 95}, {"time": 53759, "pitch": 68, "duration": 268, "velocity": 106}, {"time": 53759, "pitch": 72, "duration": 267, "velocity": 98}, {"time": 54001, "pitch": 63, "duration": 51, "velocity": 90}, {"time": 54243, "pitch": 43, "duration": 529, "velocity": 97}, {"time": 54243, "pitch": 55, "duration": 497, "velocity": 99}, {"time": 54243, "pitch": 65, "duration": 51, "velocity": 50}, {"time": 54243, "pitch": 70, "duration": 266, "velocity": 106}, {"time": 54243, "pitch": 74, "duration": 272, "velocity": 103}, {"time": 54482, "pitch": 65, "duration": 49, "velocity": 83}, {"time": 54721, "pitch": 70, "duration": 261, "velocity": 103}, {"time": 54721, "pitch": 74, "duration": 267, "velocity": 90}, {"time": 54960, "pitch": 65, "duration": 48, "velocity": 91}, {"time": 55199, "pitch": 36, "duration": 265, "velocity": 96}, {"time": 55199, "pitch": 48, "duration": 244, "velocity": 97}, {"time": 55199, "pitch": 60, "duration": 39, "velocity": 45}, {"time": 55199, "pitch": 63, "duration": 255, "velocity": 103}, {"time": 55199, "pitch": 67, "duration": 275, "velocity": 103}, {"time": 55439, "pitch": 60, "duration": 48, "velocity": 97}, {"time": 55678, "pitch": 34, "duration": 259, "velocity": 90}, {"time": 55678, "pitch": 46, "duration": 250, "velocity": 98}, {"time": 55678, "pitch": 62, "duration": 249, "velocity": 102}, {"time": 55678, "pitch": 67, "duration": 303, "velocity": 98}, {"time": 55920, "pitch": 58, "duration": 52, "velocity": 95}, {"time": 56162, "pitch": 32, "duration": 1874, "velocity": 96}, {"time": 56162, "pitch": 44, "duration": 776, "velocity": 93}, {"time": 56162, "pitch": 63, "duration": 247, "velocity": 107}, {"time": 56162, "pitch": 67, "duration": 268, "velocity": 99}, {"time": 56401, "pitch": 60, "duration": 61, "velocity": 89}, {"time": 56640, "pitch": 63, "duration": 260, "velocity": 113}, {"time": 56640, "pitch": 67, "duration": 287, "velocity": 112}, {"time": 56879, "pitch": 60, "duration": 60, "velocity": 90}, {"time": 57119, "pitch": 46, "duration": 496, "velocity": 89}, {"time": 57119, "pitch": 62, "duration": 252, "velocity": 109}, {"time": 57119, "pitch": 65, "duration": 270, "velocity": 108}, {"time": 57361, "pitch": 58, "duration": 43, "velocity": 82}, {"time": 57603, "pitch": 44, "duration": 235, "velocity": 89}, {"time": 57603, "pitch": 62, "duration": 261, "velocity": 109}, {"time": 57603, "pitch": 65, "duration": 294, "velocity": 109}, {"time": 57842, "pitch": 58, "duration": 59, "velocity": 87}, {"time": 58081, "pitch": 43, "duration": 251, "velocity": 119}, {"time": 58081, "pitch": 62, "duration": 254, "velocity": 111}, {"time": 58081, "pitch": 65, "duration": 289, "velocity": 112}, {"time": 58320, "pitch": 58, "duration": 25, "velocity": 77}, {"time": 58559, "pitch": 35, "duration": 255, "velocity": 88}, {"time": 58559, "pitch": 47, "duration": 275, "velocity": 103}, {"time": 58559, "pitch": 62, "duration": 255, "velocity": 104}, {"time": 58559, "pitch": 65, "duration": 250, "velocity": 103}, {"time": 58799, "pitch": 59, "duration": 51, "velocity": 98}, {"time": 59038, "pitch": 36, "duration": 277, "velocity": 73}, {"time": 59038, "pitch": 48, "duration": 242, "velocity": 82}, {"time": 59038, "pitch": 63, "duration": 237, "velocity": 103}, {"time": 59038, "pitch": 67, "duration": 272, "velocity": 103}, {"time": 59280, "pitch": 60, "duration": 56, "velocity": 93}, {"time": 59522, "pitch": 34, "duration": 273, "velocity": 90}, {"time": 59522, "pitch": 46, "duration": 274, "velocity": 91}, {"time": 59522, "pitch": 62, "duration": 257, "velocity": 104}, {"time": 59522, "pitch": 67, "duration": 304, "velocity": 101}, {"time": 59761, "pitch": 58, "duration": 51, "velocity": 102}, {"time": 60000, "pitch": 32, "duration": 1685, "velocity": 88}, {"time": 60000, "pitch": 44, "duration": 1694, "velocity": 84}, {"time": 60000, "pitch": 63, "duration": 243, "velocity": 99}, {"time": 60000, "pitch": 67, "duration": 260, "velocity": 97}, {"time": 60239, "pitch": 60, "duration": 44, "velocity": 64}, {"time": 60479, "pitch": 63, "duration": 220, "velocity": 102}, {"time": 60479, "pitch": 67, "duration": 219, "velocity": 101}, {"time": 60721, "pitch": 60, "duration": 76, "velocity": 98}, {"time": 60963, "pitch": 72, "duration": 62, "velocity": 103}, {"time": 61202, "pitch": 60, "duration": 79, "velocity": 70}, {"time": 61441, "pitch": 63, "duration": 248, "velocity": 108}, {"time": 61441, "pitch": 67, "duration": 262, "velocity": 111}, {"time": 61680, "pitch": 60, "duration": 52, "velocity": 94}, {"time": 61919, "pitch": 34, "duration": 1493, "velocity": 116}, {"time": 61919, "pitch": 46, "duration": 290, "velocity": 116}, {"time": 61919, "pitch": 56, "duration": 100, "velocity": 89}, {"time": 61919, "pitch": 60, "duration": 729, "velocity": 109}, {"time": 61919, "pitch": 63, "duration": 755, "velocity": 109}, {"time": 62398, "pitch": 46, "duration": 997, "velocity": 111}, {"time": 62640, "pitch": 56, "duration": 220, "velocity": 106}, {"time": 63121, "pitch": 60, "duration": 290, "velocity": 118}, {"time": 63121, "pitch": 63, "duration": 354, "velocity": 115}, {"time": 63360, "pitch": 56, "duration": 99, "velocity": 113}, {"time": 63839, "pitch": 39, "duration": 804, "velocity": 96}, {"time": 63839, "pitch": 51, "duration": 247, "velocity": 106}, {"time": 63839, "pitch": 58, "duration": 70, "velocity": 99}, {"time": 63839, "pitch": 63, "duration": 587, "velocity": 113}, {"time": 63839, "pitch": 67, "duration": 672, "velocity": 116}, {"time": 64323, "pitch": 51, "duration": 282, "velocity": 113}, {"time": 64442, "pitch": 58, "duration": 75, "velocity": 97}, {"time": 64562, "pitch": 63, "duration": 71, "velocity": 96}, {"time": 64681, "pitch": 67, "duration": 52, "velocity": 94}, {"time": 64801, "pitch": 39, "duration": 798, "velocity": 103}, {"time": 64801, "pitch": 51, "duration": 257, "velocity": 111}, {"time": 64801, "pitch": 58, "duration": 534, "velocity": 94}, {"time": 64801, "pitch": 62, "duration": 588, "velocity": 95}, {"time": 64801, "pitch": 65, "duration": 621, "velocity": 89}, {"time": 65279, "pitch": 51, "duration": 282, "velocity": 123}, {"time": 65399, "pitch": 58, "duration": 72, "velocity": 103}, {"time": 65519, "pitch": 62, "duration": 70, "velocity": 93}, {"time": 65638, "pitch": 65, "duration": 47, "velocity": 90}, {"time": 65758, "pitch": 39, "duration": 885, "velocity": 103}, {"time": 65758, "pitch": 51, "duration": 253, "velocity": 115}, {"time": 65758, "pitch": 56, "duration": 519, "velocity": 88}, {"time": 65758, "pitch": 60, "duration": 570, "velocity": 94}, {"time": 65758, "pitch": 63, "duration": 639, "velocity": 90}, {"time": 66242, "pitch": 51, "duration": 389, "velocity": 119}, {"time": 66361, "pitch": 56, "duration": 93, "velocity": 93}, {"time": 66481, "pitch": 60, "duration": 86, "velocity": 82}, {"time": 66601, "pitch": 63, "duration": 46, "velocity": 88}, {"time": 66720, "pitch": 39, "duration": 780, "velocity": 99}, {"time": 66720, "pitch": 51, "duration": 308, "velocity": 109}, {"time": 66720, "pitch": 58, "duration": 44, "velocity": 86}, {"time": 66720, "pitch": 62, "duration": 263, "velocity": 101}, {"time": 66720, "pitch": 65, "duration": 246, "velocity": 93}, {"time": 66959, "pitch": 58, "duration": 69, "velocity": 91}, {"time": 67079, "pitch": 67, "duration": 253, "velocity": 125}, {"time": 67199, "pitch": 51, "duration": 286, "velocity": 103}, {"time": 67320, "pitch": 58, "duration": 75, "velocity": 89}, {"time": 67441, "pitch": 65, "duration": 48, "velocity": 112}, {"time": 67683, "pitch": 39, "duration": 815, "velocity": 94}, {"time": 67683, "pitch": 51, "duration": 200, "velocity": 88}, {"time": 67683, "pitch": 58, "duration": 500, "velocity": 97}, {"time": 67683, "pitch": 63, "duration": 531, "velocity": 102}, {"time": 67683, "pitch": 67, "duration": 595, "velocity": 101}, {"time": 68161, "pitch": 51, "duration": 317, "velocity": 119}, {"time": 68281, "pitch": 58, "duration": 67, "velocity": 104}, {"time": 68400, "pitch": 63, "duration": 72, "velocity": 102}, {"time": 68520, "pitch": 67, "duration": 52, "velocity": 93}, {"time": 68639, "pitch": 39, "duration": 841, "velocity": 93}, {"time": 68639, "pitch": 51, "duration": 244, "velocity": 80}, {"time": 68639, "pitch": 58, "duration": 534, "velocity": 76}, {"time": 68639, "pitch": 62, "duration": 594, "velocity": 79}, {"time": 68639, "pitch": 65, "duration": 645, "velocity": 74}, {"time": 69118, "pitch": 51, "duration": 331, "velocity": 118}, {"time": 69239, "pitch": 58, "duration": 71, "velocity": 99}, {"time": 69360, "pitch": 62, "duration": 65, "velocity": 108}, {"time": 69481, "pitch": 65, "duration": 55, "velocity": 102}, {"time": 69602, "pitch": 39, "duration": 897, "velocity": 95}, {"time": 69602, "pitch": 51, "duration": 264, "velocity": 99}, {"time": 69602, "pitch": 56, "duration": 497, "velocity": 96}, {"time": 69602, "pitch": 60, "duration": 572, "velocity": 97}, {"time": 69602, "pitch": 63, "duration": 637, "velocity": 91}, {"time": 70080, "pitch": 51, "duration": 405, "velocity": 116}, {"time": 70200, "pitch": 56, "duration": 73, "velocity": 96}, {"time": 70319, "pitch": 60, "duration": 67, "velocity": 94}, {"time": 70439, "pitch": 63, "duration": 49, "velocity": 86}, {"time": 70559, "pitch": 39, "duration": 752, "velocity": 95}, {"time": 70559, "pitch": 51, "duration": 271, "velocity": 87}, {"time": 70559, "pitch": 62, "duration": 258, "velocity": 95}, {"time": 70559, "pitch": 65, "duration": 246, "velocity": 91}, {"time": 70801, "pitch": 58, "duration": 64, "velocity": 96}, {"time": 70922, "pitch": 67, "duration": 259, "velocity": 122}, {"time": 71043, "pitch": 51, "duration": 267, "velocity": 108}, {"time": 71162, "pitch": 58, "duration": 80, "velocity": 93}, {"time": 71282, "pitch": 65, "duration": 37, "velocity": 107}, {"time": 71521, "pitch": 39, "duration": 1667, "velocity": 104}, {"time": 71521, "pitch": 51, "duration": 286, "velocity": 112}, {"time": 71521, "pitch": 58, "duration": 507, "velocity": 112}, {"time": 71521, "pitch": 63, "duration": 534, "velocity": 113}, {"time": 71521, "pitch": 67, "duration": 666, "velocity": 115}, {"time": 71999, "pitch": 51, "duration": 619, "velocity": 113}, {"time": 72119, "pitch": 58, "duration": 94, "velocity": 83}, {"time": 72239, "pitch": 63, "duration": 80, "velocity": 90}, {"time": 72358, "pitch": 67, "duration": 30, "velocity": 84}, {"time": 72478, "pitch": 75, "duration": 27, "velocity": 95}, {"time": 72720, "pitch": 58, "duration": 52, "velocity": 22}, {"time": 72962, "pitch": 51, "duration": 223, "velocity": 108}, {"time": 73081, "pitch": 58, "duration": 52, "velocity": 118}, {"time": 73081, "pitch": 63, "duration": 72, "velocity": 119}, {"time": 73081, "pitch": 67, "duration": 73, "velocity": 126}, {"time": 73440, "pitch": 43, "duration": 1006, "velocity": 91}, {"time": 73440, "pitch": 55, "duration": 284, "velocity": 102}, {"time": 73440, "pitch": 67, "duration": 204, "velocity": 113}, {"time": 73440, "pitch": 70, "duration": 305, "velocity": 113}, {"time": 73440, "pitch": 74, "duration": 326, "velocity": 103}, {"time": 73919, "pitch": 77, "duration": 74, "velocity": 121}, {"time": 74161, "pitch": 67, "duration": 87, "velocity": 51}, {"time": 74402, "pitch": 55, "duration": 74, "velocity": 115}, {"time": 74402, "pitch": 67, "duration": 61, "velocity": 109}, {"time": 74402, "pitch": 70, "duration": 73, "velocity": 109}, {"time": 74402, "pitch": 74, "duration": 76, "velocity": 107}, {"time": 74881, "pitch": 42, "duration": 157, "velocity": 99}, {"time": 74881, "pitch": 54, "duration": 173, "velocity": 106}, {"time": 74881, "pitch": 64, "duration": 153, "velocity": 105}, {"time": 74881, "pitch": 70, "duration": 144, "velocity": 111}, {"time": 74881, "pitch": 76, "duration": 167, "velocity": 103}, {"time": 75359, "pitch": 41, "duration": 847, "velocity": 98}, {"time": 75359, "pitch": 53, "duration": 246, "velocity": 101}, {"time": 75359, "pitch": 65, "duration": 235, "velocity": 102}, {"time": 75359, "pitch": 68, "duration": 424, "velocity": 108}, {"time": 75359, "pitch": 72, "duration": 383, "velocity": 103}, {"time": 75359, "pitch": 75, "duration": 450, "velocity": 93}, {"time": 75838, "pitch": 53, "duration": 324, "velocity": 86}, {"time": 75959, "pitch": 72, "duration": 198, "velocity": 99}, {"time": 75959, "pitch": 75, "duration": 54, "velocity": 84}, {"time": 76080, "pitch": 68, "duration": 129, "velocity": 104}, {"time": 76201, "pitch": 65, "duration": 40, "velocity": 72}, {"time": 76322, "pitch": 50, "duration": 607, "velocity": 111}, {"time": 76322, "pitch": 65, "duration": 250, "velocity": 96}, {"time": 76322, "pitch": 69, "duration": 256, "velocity": 90}, {"time": 76800, "pitch": 43, "duration": 486, "velocity": 96}, {"time": 76800, "pitch": 55, "duration": 472, "velocity": 111}, {"time": 76800, "pitch": 65, "duration": 240, "velocity": 98}, {"time": 76800, "pitch": 71, "duration": 232, "velocity": 96}, {"time": 76800, "pitch": 74, "duration": 245, "velocity": 94}, {"time": 77279, "pitch": 48, "duration": 1187, "velocity": 112}, {"time": 77279, "pitch": 60, "duration": 541, "velocity": 99}, {"time": 77279, "pitch": 63, "duration": 566, "velocity": 103}, {"time": 77279, "pitch": 67, "duration": 608, "velocity": 94}, {"time": 77762, "pitch": 36, "duration": 710, "velocity": 91}, {"time": 77882, "pitch": 60, "duration": 67, "velocity": 103}, {"time": 78002, "pitch": 63, "duration": 40, "velocity": 90}, {"time": 78121, "pitch": 67, "duration": 377, "velocity": 113}, {"time": 78361, "pitch": 63, "duration": 123, "velocity": 78}, {"time": 78480, "pitch": 60, "duration": 50, "velocity": 94}, {"time": 78719, "pitch": 34, "duration": 263, "velocity": 96}, {"time": 78719, "pitch": 46, "duration": 252, "velocity": 102}, {"time": 78719, "pitch": 58, "duration": 275, "velocity": 99}, {"time": 78719, "pitch": 62, "duration": 261, "velocity": 102}, {"time": 78719, "pitch": 67, "duration": 315, "velocity": 102}, {"time": 79198, "pitch": 32, "duration": 1905, "velocity": 102}, {"time": 79198, "pitch": 44, "duration": 245, "velocity": 94}, {"time": 79198, "pitch": 60, "duration": 488, "velocity": 101}, {"time": 79198, "pitch": 63, "duration": 522, "velocity": 107}, {"time": 79198, "pitch": 67, "duration": 592, "velocity": 103}, {"time": 79682, "pitch": 44, "duration": 319, "velocity": 87}, {"time": 79801, "pitch": 60, "duration": 60, "velocity": 87}, {"time": 79921, "pitch": 63, "duration": 58, "velocity": 93}, {"time": 80041, "pitch": 67, "duration": 41, "velocity": 101}, {"time": 80160, "pitch": 46, "duration": 272, "velocity": 89}, {"time": 80160, "pitch": 58, "duration": 499, "velocity": 96}, {"time": 80160, "pitch": 62, "duration": 557, "velocity": 97}, {"time": 80160, "pitch": 65, "duration": 640, "velocity": 90}, {"time": 80639, "pitch": 44, "duration": 370, "velocity": 108}, {"time": 80759, "pitch": 58, "duration": 71, "velocity": 95}, {"time": 80881, "pitch": 62, "duration": 61, "velocity": 99}, {"time": 81002, "pitch": 65, "duration": 54, "velocity": 88}, {"time": 81122, "pitch": 31, "duration": 190, "velocity": 95}, {"time": 81122, "pitch": 43, "duration": 208, "velocity": 95}, {"time": 81122, "pitch": 58, "duration": 205, "velocity": 109}, {"time": 81122, "pitch": 62, "duration": 244, "velocity": 112}, {"time": 81122, "pitch": 65, "duration": 249, "velocity": 109}, {"time": 81601, "pitch": 35, "duration": 202, "velocity": 98}, {"time": 81601, "pitch": 47, "duration": 222, "velocity": 99}, {"time": 81601, "pitch": 59, "duration": 238, "velocity": 105}, {"time": 81601, "pitch": 62, "duration": 215, "velocity": 111}, {"time": 81601, "pitch": 65, "duration": 223, "velocity": 112}, {"time": 82079, "pitch": 36, "duration": 264, "velocity": 99}, {"time": 82079, "pitch": 48, "duration": 214, "velocity": 108}, {"time": 82079, "pitch": 60, "duration": 256, "velocity": 106}, {"time": 82079, "pitch": 63, "duration": 222, "velocity": 104}, {"time": 82079, "pitch": 67, "duration": 301, "velocity": 103}, {"time": 82558, "pitch": 34, "duration": 248, "velocity": 102}, {"time": 82558, "pitch": 46, "duration": 208, "velocity": 111}, {"time": 82558, "pitch": 58, "duration": 231, "velocity": 107}, {"time": 82558, "pitch": 62, "duration": 237, "velocity": 108}, {"time": 82558, "pitch": 67, "duration": 318, "velocity": 101}, {"time": 83042, "pitch": 32, "duration": 694, "velocity": 104}, {"time": 83042, "pitch": 44, "duration": 243, "velocity": 109}, {"time": 83042, "pitch": 60, "duration": 490, "velocity": 94}, {"time": 83042, "pitch": 63, "duration": 522, "velocity": 108}, {"time": 83042, "pitch": 67, "duration": 624, "velocity": 107}, {"time": 83520, "pitch": 44, "duration": 279, "velocity": 108}, {"time": 83640, "pitch": 60, "duration": 62, "velocity": 91}, {"time": 83759, "pitch": 63, "duration": 52, "velocity": 90}, {"time": 83879, "pitch": 67, "duration": 24, "velocity": 73}, {"time": 83999, "pitch": 34, "duration": 702, "velocity": 107}, {"time": 83999, "pitch": 46, "duration": 259, "velocity": 111}, {"time": 83999, "pitch": 56, "duration": 271, "velocity": 103}, {"time": 83999, "pitch": 60, "duration": 284, "velocity": 102}, {"time": 83999, "pitch": 63, "duration": 296, "velocity": 93}, {"time": 84482, "pitch": 46, "duration": 240, "velocity": 113}, {"time": 84482, "pitch": 62, "duration": 260, "velocity": 111}, {"time": 84482, "pitch": 65, "duration": 269, "velocity": 109}, {"time": 84722, "pitch": 58, "duration": 65, "velocity": 94}, {"time": 84961, "pitch": 39, "duration": 822, "velocity": 103}, {"time": 84961, "pitch": 51, "duration": 331, "velocity": 109}, {"time": 84961, "pitch": 58, "duration": 130, "velocity": 111}, {"time": 84961, "pitch": 63, "duration": 523, "velocity": 115}, {"time": 84961, "pitch": 67, "duration": 521, "velocity": 116}, {"time": 85320, "pitch": 58, "duration": 132, "velocity": 91}, {"time": 85439, "pitch": 51, "duration": 67, "velocity": 106}, {"time": 85559, "pitch": 63, "duration": 156, "velocity": 121}, {"time": 85559, "pitch": 67, "duration": 170, "velocity": 123}, {"time": 85679, "pitch": 51, "duration": 84, "velocity": 95}, {"time": 85798, "pitch": 58, "duration": 33, "velocity": 45}, {"time": 85918, "pitch": 39, "duration": 950, "velocity": 107}, {"time": 85918, "pitch": 51, "duration": 240, "velocity": 113}, {"time": 85918, "pitch": 58, "duration": 511, "velocity": 112}, {"time": 85918, "pitch": 61, "duration": 558, "velocity": 103}, {"time": 85918, "pitch": 68, "duration": 359, "velocity": 90}, {"time": 86281, "pitch": 67, "duration": 210, "velocity": 91}, {"time": 86402, "pitch": 51, "duration": 270, "velocity": 116}, {"time": 86521, "pitch": 58, "duration": 90, "velocity": 113}, {"time": 86521, "pitch": 61, "duration": 150, "velocity": 114}, {"time": 86521, "pitch": 65, "duration": 249, "velocity": 95}, {"time": 86880, "pitch": 44, "duration": 1097, "velocity": 121}, {"time": 86880, "pitch": 55, "duration": 569, "velocity": 90}, {"time": 86880, "pitch": 60, "duration": 486, "velocity": 116}, {"time": 86880, "pitch": 63, "duration": 514, "velocity": 113}, {"time": 87359, "pitch": 32, "duration": 1267, "velocity": 69}, {"time": 87479, "pitch": 60, "duration": 70, "velocity": 95}, {"time": 87600, "pitch": 63, "duration": 57, "velocity": 91}, {"time": 87722, "pitch": 67, "duration": 40, "velocity": 88}, {"time": 87842, "pitch": 60, "duration": 56, "velocity": 111}, {"time": 87842, "pitch": 72, "duration": 49, "velocity": 112}, {"time": 88201, "pitch": 60, "duration": 144, "velocity": 91}, {"time": 88321, "pitch": 44, "duration": 101, "velocity": 96}, {"time": 88440, "pitch": 60, "duration": 189, "velocity": 111}, {"time": 88440, "pitch": 63, "duration": 177, "velocity": 116}, {"time": 88440, "pitch": 67, "duration": 197, "velocity": 116}, {"time": 88560, "pitch": 44, "duration": 96, "velocity": 90}, {"time": 88799, "pitch": 44, "duration": 240, "velocity": 111}, {"time": 88799, "pitch": 58, "duration": 243, "velocity": 96}, {"time": 88799, "pitch": 62, "duration": 525, "velocity": 108}, {"time": 88799, "pitch": 65, "duration": 622, "velocity": 106}, {"time": 88800, "pitch": 32, "duration": 1741, "velocity": 109}, {"time": 89280, "pitch": 44, "duration": 643, "velocity": 89}, {"time": 89399, "pitch": 58, "duration": 100, "velocity": 96}, {"time": 89520, "pitch": 62, "duration": 100, "velocity": 90}, {"time": 89641, "pitch": 65, "duration": 37, "velocity": 77}, {"time": 89762, "pitch": 70, "duration": 56, "velocity": 109}, {"time": 90120, "pitch": 58, "duration": 120, "velocity": 70}, {"time": 90240, "pitch": 44, "duration": 79, "velocity": 88}, {"time": 90360, "pitch": 58, "duration": 142, "velocity": 111}, {"time": 90360, "pitch": 62, "duration": 123, "velocity": 109}, {"time": 90360, "pitch": 65, "duration": 130, "velocity": 113}, {"time": 90479, "pitch": 44, "duration": 60, "velocity": 91}, {"time": 90718, "pitch": 43, "duration": 455, "velocity": 107}, {"time": 90718, "pitch": 55, "duration": 181, "velocity": 109}, {"time": 90718, "pitch": 59, "duration": 354, "velocity": 106}, {"time": 90718, "pitch": 62, "duration": 447, "velocity": 109}, {"time": 91084, "pitch": 55, "duration": 330, "velocity": 91}, {"time": 91322, "pitch": 43, "duration": 328, "velocity": 59}, {"time": 91322, "pitch": 59, "duration": 116, "velocity": 71}, {"time": 91441, "pitch": 62, "duration": 183, "velocity": 93}, {"time": 91680, "pitch": 47, "duration": 936, "velocity": 105}, {"time": 91681, "pitch": 59, "duration": 190, "velocity": 106}, {"time": 91681, "pitch": 62, "duration": 196, "velocity": 111}, {"time": 92159, "pitch": 71, "duration": 52, "velocity": 120}, {"time": 92638, "pitch": 48, "duration": 331, "velocity": 111}, {"time": 92638, "pitch": 60, "duration": 78, "velocity": 73}, {"time": 92638, "pitch": 63, "duration": 361, "velocity": 99}, {"time": 92638, "pitch": 67, "duration": 607, "velocity": 101}, {"time": 93001, "pitch": 60, "duration": 116, "velocity": 73}, {"time": 93122, "pitch": 48, "duration": 300, "velocity": 91}, {"time": 93241, "pitch": 60, "duration": 75, "velocity": 83}, {"time": 93361, "pitch": 63, "duration": 64, "velocity": 91}, {"time": 93480, "pitch": 67, "duration": 73, "velocity": 90}, {"time": 93600, "pitch": 48, "duration": 465, "velocity": 109}, {"time": 93600, "pitch": 60, "duration": 391, "velocity": 108}, {"time": 93600, "pitch": 63, "duration": 286, "velocity": 112}, {"time": 93600, "pitch": 67, "duration": 440, "velocity": 113}, {"time": 94078, "pitch": 46, "duration": 239, "velocity": 113}, {"time": 94078, "pitch": 58, "duration": 259, "velocity": 111}, {"time": 94080, "pitch": 62, "duration": 245, "velocity": 108}, {"time": 94080, "pitch": 67, "duration": 320, "velocity": 115}, {"time": 94562, "pitch": 32, "duration": 1751, "velocity": 106}, {"time": 94562, "pitch": 44, "duration": 265, "velocity": 103}, {"time": 94562, "pitch": 60, "duration": 174, "velocity": 103}, {"time": 94562, "pitch": 63, "duration": 313, "velocity": 106}, {"time": 94562, "pitch": 67, "duration": 734, "velocity": 108}, {"time": 94921, "pitch": 60, "duration": 117, "velocity": 93}, {"time": 95160, "pitch": 44, "duration": 102, "velocity": 88}, {"time": 95280, "pitch": 63, "duration": 67, "velocity": 77}, {"time": 95398, "pitch": 67, "duration": 42, "velocity": 74}, {"time": 95519, "pitch": 72, "duration": 55, "velocity": 115}, {"time": 95758, "pitch": 60, "duration": 245, "velocity": 90}, {"time": 95998, "pitch": 44, "duration": 83, "velocity": 77}, {"time": 96119, "pitch": 60, "duration": 266, "velocity": 112}, {"time": 96119, "pitch": 63, "duration": 182, "velocity": 116}, {"time": 96119, "pitch": 67, "duration": 209, "velocity": 119}, {"time": 96240, "pitch": 44, "duration": 100, "velocity": 99}, {"time": 96482, "pitch": 44, "duration": 273, "velocity": 107}, {"time": 96482, "pitch": 58, "duration": 202, "velocity": 98}, {"time": 96482, "pitch": 62, "duration": 368, "velocity": 96}, {"time": 96482, "pitch": 65, "duration": 572, "velocity": 106}, {"time": 96484, "pitch": 32, "duration": 1726, "velocity": 111}, {"time": 96840, "pitch": 58, "duration": 191, "velocity": 76}, {"time": 96960, "pitch": 44, "duration": 70, "velocity": 86}, {"time": 97080, "pitch": 58, "duration": 69, "velocity": 109}, {"time": 97080, "pitch": 63, "duration": 56, "velocity": 109}, {"time": 97080, "pitch": 65, "duration": 53, "velocity": 88}, {"time": 97436, "pitch": 62, "duration": 420, "velocity": 109}, {"time": 97438, "pitch": 44, "duration": 320, "velocity": 103}, {"time": 97438, "pitch": 65, "duration": 535, "velocity": 104}, {"time": 97439, "pitch": 58, "duration": 92, "velocity": 103}, {"time": 97803, "pitch": 58, "duration": 165, "velocity": 95}, {"time": 97923, "pitch": 44, "duration": 248, "velocity": 88}, {"time": 98042, "pitch": 62, "duration": 61, "velocity": 88}, {"time": 98162, "pitch": 58, "duration": 29, "velocity": 48}, {"time": 98162, "pitch": 65, "duration": 79, "velocity": 111}, {"time": 98399, "pitch": 43, "duration": 263, "velocity": 98}, {"time": 98401, "pitch": 31, "duration": 1501, "velocity": 103}, {"time": 98401, "pitch": 55, "duration": 187, "velocity": 99}, {"time": 98401, "pitch": 62, "duration": 357, "velocity": 85}, {"time": 98402, "pitch": 59, "duration": 425, "velocity": 103}, {"time": 98760, "pitch": 55, "duration": 111, "velocity": 90}, {"time": 98879, "pitch": 43, "duration": 65, "velocity": 91}, {"time": 98999, "pitch": 55, "duration": 111, "velocity": 112}, {"time": 98999, "pitch": 59, "duration": 16, "velocity": 72}, {"time": 98999, "pitch": 67, "duration": 104, "velocity": 111}, {"time": 99118, "pitch": 43, "duration": 84, "velocity": 78}, {"time": 99357, "pitch": 59, "duration": 46, "velocity": 110}, {"time": 99358, "pitch": 71, "duration": 56, "velocity": 99}, {"time": 99721, "pitch": 43, "duration": 206, "velocity": 96}, {"time": 99842, "pitch": 55, "duration": 70, "velocity": 94}, {"time": 99961, "pitch": 59, "duration": 44, "velocity": 106}, {"time": 100200, "pitch": 60, "duration": 348, "velocity": 79}, {"time": 100320, "pitch": 36, "duration": 748, "velocity": 97}, {"time": 100320, "pitch": 63, "duration": 536, "velocity": 98}, {"time": 100320, "pitch": 67, "duration": 623, "velocity": 97}, {"time": 100321, "pitch": 48, "duration": 277, "velocity": 109}, {"time": 100798, "pitch": 48, "duration": 286, "velocity": 97}, {"time": 100919, "pitch": 60, "duration": 90, "velocity": 95}, {"time": 101040, "pitch": 63, "duration": 152, "velocity": 89}, {"time": 101161, "pitch": 67, "duration": 63, "velocity": 88}, {"time": 101282, "pitch": 36, "duration": 262, "velocity": 107}, {"time": 101282, "pitch": 48, "duration": 225, "velocity": 111}, {"time": 101282, "pitch": 60, "duration": 296, "velocity": 98}, {"time": 101282, "pitch": 63, "duration": 232, "velocity": 102}, {"time": 101282, "pitch": 67, "duration": 333, "velocity": 108}, {"time": 101761, "pitch": 34, "duration": 272, "velocity": 95}, {"time": 101761, "pitch": 46, "duration": 257, "velocity": 97}, {"time": 101761, "pitch": 58, "duration": 290, "velocity": 102}, {"time": 101761, "pitch": 62, "duration": 276, "velocity": 103}, {"time": 101761, "pitch": 67, "duration": 320, "velocity": 106}, {"time": 102239, "pitch": 32, "duration": 1703, "velocity": 112}, {"time": 102239, "pitch": 44, "duration": 297, "velocity": 111}, {"time": 102239, "pitch": 60, "duration": 234, "velocity": 113}, {"time": 102239, "pitch": 63, "duration": 454, "velocity": 115}, {"time": 102239, "pitch": 67, "duration": 608, "velocity": 118}, {"time": 102718, "pitch": 44, "duration": 839, "velocity": 82}, {"time": 102839, "pitch": 60, "duration": 161, "velocity": 90}, {"time": 102960, "pitch": 63, "duration": 113, "velocity": 76}, {"time": 103081, "pitch": 67, "duration": 46, "velocity": 75}, {"time": 103202, "pitch": 72, "duration": 67, "velocity": 113}, {"time": 104158, "pitch": 34, "duration": 864, "velocity": 73}, {"time": 104158, "pitch": 46, "duration": 352, "velocity": 83}, {"time": 104158, "pitch": 56, "duration": 733, "velocity": 88}, {"time": 104158, "pitch": 60, "duration": 742, "velocity": 94}, {"time": 104159, "pitch": 63, "duration": 764, "velocity": 90}, {"time": 104882, "pitch": 46, "duration": 113, "velocity": 77}, {"time": 105121, "pitch": 46, "duration": 52, "velocity": 97}, {"time": 105122, "pitch": 34, "duration": 60, "velocity": 95}, {"time": 105359, "pitch": 46, "duration": 45, "velocity": 116}, {"time": 105362, "pitch": 34, "duration": 57, "velocity": 116}, {"time": 105599, "pitch": 34, "duration": 60, "velocity": 112}, {"time": 105599, "pitch": 46, "duration": 47, "velocity": 109}, {"time": 105837, "pitch": 46, "duration": 44, "velocity": 108}, {"time": 105838, "pitch": 34, "duration": 34, "velocity": 111}, {"time": 106078, "pitch": 39, "duration": 756, "velocity": 102}, {"time": 106078, "pitch": 51, "duration": 769, "velocity": 108}, {"time": 106078, "pitch": 63, "duration": 396, "velocity": 98}, {"time": 106078, "pitch": 67, "duration": 4, "velocity": 103}, {"time": 106320, "pitch": 58, "duration": 72, "velocity": 89}, {"time": 106560, "pitch": 58, "duration": 44, "velocity": 103}, {"time": 106560, "pitch": 67, "duration": 271, "velocity": 119}, {"time": 106562, "pitch": 63, "duration": 258, "velocity": 115}, {"time": 106801, "pitch": 58, "duration": 31, "velocity": 104}, {"time": 107040, "pitch": 41, "duration": 722, "velocity": 97}, {"time": 107040, "pitch": 53, "duration": 742, "velocity": 106}, {"time": 107040, "pitch": 63, "duration": 57, "velocity": 68}, {"time": 107040, "pitch": 68, "duration": 261, "velocity": 91}, {"time": 107040, "pitch": 72, "duration": 267, "velocity": 98}, {"time": 107279, "pitch": 63, "duration": 47, "velocity": 76}, {"time": 107518, "pitch": 68, "duration": 269, "velocity": 108}, {"time": 107518, "pitch": 72, "duration": 287, "velocity": 109}, {"time": 107760, "pitch": 63, "duration": 41, "velocity": 104}, {"time": 108002, "pitch": 43, "duration": 937, "velocity": 96}, {"time": 108002, "pitch": 55, "duration": 721, "velocity": 107}, {"time": 108002, "pitch": 65, "duration": 55, "velocity": 56}, {"time": 108002, "pitch": 70, "duration": 253, "velocity": 102}, {"time": 108002, "pitch": 74, "duration": 264, "velocity": 103}, {"time": 108242, "pitch": 65, "duration": 58, "velocity": 93}, {"time": 108481, "pitch": 65, "duration": 39, "velocity": 91}, {"time": 108481, "pitch": 70, "duration": 247, "velocity": 108}, {"time": 108481, "pitch": 74, "duration": 259, "velocity": 107}, {"time": 108720, "pitch": 65, "duration": 50, "velocity": 93}, {"time": 108959, "pitch": 48, "duration": 417, "velocity": 101}, {"time": 108959, "pitch": 60, "duration": 22, "velocity": 29}, {"time": 108959, "pitch": 63, "duration": 263, "velocity": 107}, {"time": 108959, "pitch": 67, "duration": 295, "velocity": 115}, {"time": 109198, "pitch": 60, "duration": 207, "velocity": 93}, {"time": 109438, "pitch": 46, "duration": 258, "velocity": 108}, {"time": 109438, "pitch": 62, "duration": 260, "velocity": 94}, {"time": 109438, "pitch": 67, "duration": 307, "velocity": 95}, {"time": 109680, "pitch": 58, "duration": 67, "velocity": 86}, {"time": 109922, "pitch": 44, "duration": 733, "velocity": 103}, {"time": 109922, "pitch": 63, "duration": 235, "velocity": 106}, {"time": 109922, "pitch": 67, "duration": 276, "velocity": 104}, {"time": 110161, "pitch": 60, "duration": 90, "velocity": 91}, {"time": 110400, "pitch": 63, "duration": 239, "velocity": 107}, {"time": 110400, "pitch": 67, "duration": 275, "velocity": 108}, {"time": 110639, "pitch": 60, "duration": 146, "velocity": 95}, {"time": 110878, "pitch": 46, "duration": 480, "velocity": 101}, {"time": 110878, "pitch": 62, "duration": 258, "velocity": 94}, {"time": 110878, "pitch": 65, "duration": 273, "velocity": 98}, {"time": 111120, "pitch": 58, "duration": 73, "velocity": 88}, {"time": 111362, "pitch": 44, "duration": 475, "velocity": 101}, {"time": 111362, "pitch": 60, "duration": 19, "velocity": 65}, {"time": 111362, "pitch": 62, "duration": 243, "velocity": 94}, {"time": 111362, "pitch": 65, "duration": 270, "velocity": 90}, {"time": 111602, "pitch": 58, "duration": 78, "velocity": 85}, {"time": 111841, "pitch": 43, "duration": 453, "velocity": 111}, {"time": 111841, "pitch": 62, "duration": 262, "velocity": 111}, {"time": 111841, "pitch": 65, "duration": 298, "velocity": 112}, {"time": 112080, "pitch": 58, "duration": 49, "velocity": 95}, {"time": 112319, "pitch": 47, "duration": 276, "velocity": 110}, {"time": 112319, "pitch": 62, "duration": 261, "velocity": 102}, {"time": 112319, "pitch": 65, "duration": 259, "velocity": 108}, {"time": 112558, "pitch": 59, "duration": 67, "velocity": 101}, {"time": 112798, "pitch": 36, "duration": 305, "velocity": 89}, {"time": 112798, "pitch": 48, "duration": 243, "velocity": 103}, {"time": 112798, "pitch": 63, "duration": 229, "velocity": 104}, {"time": 112800, "pitch": 67, "duration": 284, "velocity": 102}, {"time": 113040, "pitch": 60, "duration": 72, "velocity": 91}, {"time": 113282, "pitch": 34, "duration": 272, "velocity": 90}, {"time": 113282, "pitch": 46, "duration": 285, "velocity": 96}, {"time": 113282, "pitch": 62, "duration": 250, "velocity": 94}, {"time": 113282, "pitch": 67, "duration": 279, "velocity": 99}, {"time": 113521, "pitch": 58, "duration": 53, "velocity": 93}, {"time": 113760, "pitch": 32, "duration": 1764, "velocity": 95}, {"time": 113760, "pitch": 44, "duration": 257, "velocity": 91}, {"time": 113760, "pitch": 63, "duration": 241, "velocity": 96}, {"time": 113760, "pitch": 67, "duration": 271, "velocity": 96}, {"time": 113999, "pitch": 60, "duration": 94, "velocity": 80}, {"time": 114238, "pitch": 44, "duration": 502, "velocity": 90}, {"time": 114359, "pitch": 60, "duration": 73, "velocity": 84}, {"time": 114480, "pitch": 63, "duration": 79, "velocity": 84}, {"time": 114601, "pitch": 67, "duration": 27, "velocity": 69}, {"time": 114722, "pitch": 72, "duration": 35, "velocity": 111}, {"time": 114962, "pitch": 60, "duration": 530, "velocity": 72}, {"time": 115201, "pitch": 44, "duration": 368, "velocity": 108}, {"time": 115440, "pitch": 63, "duration": 148, "velocity": 83}, {"time": 115679, "pitch": 34, "duration": 1519, "velocity": 90}, {"time": 115679, "pitch": 46, "duration": 260, "velocity": 106}, {"time": 115679, "pitch": 56, "duration": 59, "velocity": 78}, {"time": 115679, "pitch": 60, "duration": 300, "velocity": 97}, {"time": 115679, "pitch": 63, "duration": 624, "velocity": 95}, {"time": 115918, "pitch": 56, "duration": 273, "velocity": 78}, {"time": 116158, "pitch": 46, "duration": 236, "velocity": 95}, {"time": 116400, "pitch": 60, "duration": 281, "velocity": 96}, {"time": 116400, "pitch": 63, "duration": 599, "velocity": 97}, {"time": 116642, "pitch": 56, "duration": 337, "velocity": 97}, {"time": 116881, "pitch": 46, "duration": 316, "velocity": 113}, {"time": 117120, "pitch": 60, "duration": 254, "velocity": 113}, {"time": 117120, "pitch": 63, "duration": 261, "velocity": 113}, {"time": 117359, "pitch": 56, "duration": 48, "velocity": 93}, {"time": 117598, "pitch": 39, "duration": 729, "velocity": 107}, {"time": 117598, "pitch": 51, "duration": 736, "velocity": 116}, {"time": 117598, "pitch": 58, "duration": 54, "velocity": 57}, {"time": 117598, "pitch": 63, "duration": 263, "velocity": 109}, {"time": 117598, "pitch": 67, "duration": 265, "velocity": 115}, {"time": 117840, "pitch": 58, "duration": 48, "velocity": 97}, {"time": 118082, "pitch": 63, "duration": 252, "velocity": 115}, {"time": 118082, "pitch": 67, "duration": 275, "velocity": 113}, {"time": 118322, "pitch": 58, "duration": 46, "velocity": 102}, {"time": 118561, "pitch": 41, "duration": 732, "velocity": 91}, {"time": 118561, "pitch": 53, "duration": 746, "velocity": 103}, {"time": 118561, "pitch": 68, "duration": 264, "velocity": 94}, {"time": 118561, "pitch": 72, "duration": 276, "velocity": 101}, {"time": 118800, "pitch": 63, "duration": 59, "velocity": 91}, {"time": 119039, "pitch": 68, "duration": 265, "velocity": 113}, {"time": 119039, "pitch": 72, "duration": 291, "velocity": 113}, {"time": 119278, "pitch": 63, "duration": 41, "velocity": 106}, {"time": 119518, "pitch": 43, "duration": 365, "velocity": 91}, {"time": 119518, "pitch": 55, "duration": 317, "velocity": 99}, {"time": 119518, "pitch": 70, "duration": 254, "velocity": 104}, {"time": 119518, "pitch": 74, "duration": 292, "velocity": 94}, {"time": 119760, "pitch": 65, "duration": 52, "velocity": 90}, {"time": 120002, "pitch": 70, "duration": 234, "velocity": 108}, {"time": 120002, "pitch": 74, "duration": 234, "velocity": 99}, {"time": 120241, "pitch": 65, "duration": 32, "velocity": 97}, {"time": 120480, "pitch": 36, "duration": 308, "velocity": 102}, {"time": 120480, "pitch": 48, "duration": 240, "velocity": 108}, {"time": 120480, "pitch": 60, "duration": 51, "velocity": 71}, {"time": 120480, "pitch": 63, "duration": 247, "velocity": 106}, {"time": 120480, "pitch": 67, "duration": 258, "velocity": 109}, {"time": 120719, "pitch": 60, "duration": 41, "velocity": 97}, {"time": 120958, "pitch": 34, "duration": 262, "velocity": 93}, {"time": 120958, "pitch": 46, "duration": 260, "velocity": 97}, {"time": 120958, "pitch": 62, "duration": 260, "velocity": 106}, {"time": 120958, "pitch": 67, "duration": 301, "velocity": 102}, {"time": 121200, "pitch": 58, "duration": 47, "velocity": 91}, {"time": 121442, "pitch": 32, "duration": 765, "velocity": 98}, {"time": 121442, "pitch": 44, "duration": 774, "velocity": 88}, {"time": 121442, "pitch": 63, "duration": 249, "velocity": 106}, {"time": 121442, "pitch": 67, "duration": 268, "velocity": 103}, {"time": 121682, "pitch": 60, "duration": 47, "velocity": 76}, {"time": 121921, "pitch": 63, "duration": 239, "velocity": 115}, {"time": 121921, "pitch": 67, "duration": 257, "velocity": 116}, {"time": 122160, "pitch": 60, "duration": 67, "velocity": 86}, {"time": 122399, "pitch": 32, "duration": 725, "velocity": 91}, {"time": 122399, "pitch": 44, "duration": 714, "velocity": 99}, {"time": 122399, "pitch": 62, "duration": 271, "velocity": 109}, {"time": 122399, "pitch": 65, "duration": 281, "velocity": 108}, {"time": 122638, "pitch": 58, "duration": 60, "velocity": 93}, {"time": 122878, "pitch": 62, "duration": 228, "velocity": 119}, {"time": 122878, "pitch": 65, "duration": 256, "velocity": 116}, {"time": 123120, "pitch": 58, "duration": 57, "velocity": 94}, {"time": 123362, "pitch": 31, "duration": 209, "velocity": 106}, {"time": 123362, "pitch": 43, "duration": 227, "velocity": 98}, {"time": 123362, "pitch": 62, "duration": 238, "velocity": 113}, {"time": 123362, "pitch": 65, "duration": 273, "velocity": 111}, {"time": 123601, "pitch": 58, "duration": 34, "velocity": 88}, {"time": 123840, "pitch": 35, "duration": 255, "velocity": 91}, {"time": 123840, "pitch": 47, "duration": 281, "velocity": 108}, {"time": 123840, "pitch": 62, "duration": 251, "velocity": 109}, {"time": 123840, "pitch": 65, "duration": 245, "velocity": 109}, {"time": 124079, "pitch": 59, "duration": 45, "velocity": 105}, {"time": 124318, "pitch": 36, "duration": 313, "velocity": 84}, {"time": 124318, "pitch": 48, "duration": 256, "velocity": 94}, {"time": 124318, "pitch": 63, "duration": 244, "velocity": 101}, {"time": 124318, "pitch": 67, "duration": 301, "velocity": 98}, {"time": 124560, "pitch": 60, "duration": 52, "velocity": 91}, {"time": 124802, "pitch": 34, "duration": 263, "velocity": 90}, {"time": 124802, "pitch": 46, "duration": 257, "velocity": 93}, {"time": 124802, "pitch": 62, "duration": 243, "velocity": 104}, {"time": 124802, "pitch": 67, "duration": 290, "velocity": 102}, {"time": 125042, "pitch": 58, "duration": 52, "velocity": 102}, {"time": 125281, "pitch": 32, "duration": 1638, "velocity": 93}, {"time": 125281, "pitch": 44, "duration": 1651, "velocity": 89}, {"time": 125281, "pitch": 63, "duration": 242, "velocity": 102}, {"time": 125281, "pitch": 67, "duration": 258, "velocity": 96}, {"time": 125520, "pitch": 60, "duration": 35, "velocity": 68}, {"time": 125759, "pitch": 63, "duration": 229, "velocity": 89}, {"time": 125759, "pitch": 67, "duration": 229, "velocity": 89}, {"time": 125998, "pitch": 60, "duration": 70, "velocity": 96}, {"time": 126238, "pitch": 72, "duration": 56, "velocity": 108}, {"time": 126480, "pitch": 60, "duration": 45, "velocity": 69}, {"time": 126722, "pitch": 63, "duration": 223, "velocity": 115}, {"time": 126722, "pitch": 67, "duration": 238, "velocity": 116}, {"time": 126961, "pitch": 60, "duration": 39, "velocity": 87}, {"time": 127200, "pitch": 34, "duration": 1469, "velocity": 111}, {"time": 127200, "pitch": 46, "duration": 248, "velocity": 115}, {"time": 127200, "pitch": 56, "duration": 63, "velocity": 59}, {"time": 127200, "pitch": 60, "duration": 583, "velocity": 107}, {"time": 127200, "pitch": 63, "duration": 762, "velocity": 104}, {"time": 127439, "pitch": 56, "duration": 266, "velocity": 74}, {"time": 127678, "pitch": 46, "duration": 977, "velocity": 97}, {"time": 127920, "pitch": 56, "duration": 163, "velocity": 108}, {"time": 128402, "pitch": 60, "duration": 271, "velocity": 121}, {"time": 128402, "pitch": 63, "duration": 286, "velocity": 119}, {"time": 128641, "pitch": 56, "duration": 53, "velocity": 112}, {"time": 129119, "pitch": 39, "duration": 775, "velocity": 107}, {"time": 129119, "pitch": 51, "duration": 231, "velocity": 113}, {"time": 129119, "pitch": 58, "duration": 520, "velocity": 118}, {"time": 129119, "pitch": 63, "duration": 537, "velocity": 116}, {"time": 129119, "pitch": 67, "duration": 582, "velocity": 119}, {"time": 129598, "pitch": 51, "duration": 275, "velocity": 121}, {"time": 129719, "pitch": 58, "duration": 56, "velocity": 90}, {"time": 129840, "pitch": 63, "duration": 56, "velocity": 102}, {"time": 129961, "pitch": 67, "duration": 47, "velocity": 101}, {"time": 130082, "pitch": 39, "duration": 771, "velocity": 103}, {"time": 130082, "pitch": 51, "duration": 293, "velocity": 111}, {"time": 130082, "pitch": 58, "duration": 509, "velocity": 98}, {"time": 130082, "pitch": 62, "duration": 562, "velocity": 102}, {"time": 130082, "pitch": 65, "duration": 619, "velocity": 107}, {"time": 130560, "pitch": 51, "duration": 255, "velocity": 121}, {"time": 130680, "pitch": 58, "duration": 60, "velocity": 97}, {"time": 130799, "pitch": 62, "duration": 61, "velocity": 95}, {"time": 130919, "pitch": 65, "duration": 52, "velocity": 97}, {"time": 131038, "pitch": 39, "duration": 824, "velocity": 98}, {"time": 131038, "pitch": 51, "duration": 264, "velocity": 108}, {"time": 131038, "pitch": 56, "duration": 525, "velocity": 104}, {"time": 131038, "pitch": 60, "duration": 559, "velocity": 106}, {"time": 131038, "pitch": 63, "duration": 632, "velocity": 104}, {"time": 131522, "pitch": 51, "duration": 299, "velocity": 121}, {"time": 131642, "pitch": 56, "duration": 72, "velocity": 102}, {"time": 131762, "pitch": 60, "duration": 58, "velocity": 103}, {"time": 131881, "pitch": 63, "duration": 37, "velocity": 91}, {"time": 132001, "pitch": 39, "duration": 767, "velocity": 97}, {"time": 132001, "pitch": 51, "duration": 279, "velocity": 102}, {"time": 132001, "pitch": 62, "duration": 254, "velocity": 108}, {"time": 132001, "pitch": 65, "duration": 239, "velocity": 96}, {"time": 132240, "pitch": 58, "duration": 57, "velocity": 95}, {"time": 132360, "pitch": 67, "duration": 244, "velocity": 121}, {"time": 132479, "pitch": 51, "duration": 259, "velocity": 106}, {"time": 132599, "pitch": 58, "duration": 69, "velocity": 94}, {"time": 132718, "pitch": 65, "duration": 55, "velocity": 109}, {"time": 132958, "pitch": 39, "duration": 801, "velocity": 96}, {"time": 132958, "pitch": 51, "duration": 218, "velocity": 98}, {"time": 132958, "pitch": 58, "duration": 520, "velocity": 102}, {"time": 132958, "pitch": 63, "duration": 545, "velocity": 104}, {"time": 132958, "pitch": 67, "duration": 633, "velocity": 111}, {"time": 133442, "pitch": 51, "duration": 282, "velocity": 123}, {"time": 133561, "pitch": 58, "duration": 65, "velocity": 98}, {"time": 133681, "pitch": 63, "duration": 60, "velocity": 93}, {"time": 133800, "pitch": 67, "duration": 52, "velocity": 99}, {"time": 133920, "pitch": 39, "duration": 871, "velocity": 99}, {"time": 133920, "pitch": 51, "duration": 254, "velocity": 102}, {"time": 133920, "pitch": 58, "duration": 524, "velocity": 94}, {"time": 133920, "pitch": 62, "duration": 564, "velocity": 104}, {"time": 133920, "pitch": 65, "duration": 607, "velocity": 95}, {"time": 134398, "pitch": 51, "duration": 361, "velocity": 112}, {"time": 134519, "pitch": 58, "duration": 64, "velocity": 94}, {"time": 134640, "pitch": 62, "duration": 62, "velocity": 107}, {"time": 134761, "pitch": 65, "duration": 49, "velocity": 95}, {"time": 134882, "pitch": 39, "duration": 907, "velocity": 112}, {"time": 134882, "pitch": 51, "duration": 271, "velocity": 108}, {"time": 134882, "pitch": 56, "duration": 510, "velocity": 102}, {"time": 134882, "pitch": 60, "duration": 538, "velocity": 108}, {"time": 134882, "pitch": 63, "duration": 651, "velocity": 101}, {"time": 135361, "pitch": 51, "duration": 391, "velocity": 116}, {"time": 135480, "pitch": 56, "duration": 83, "velocity": 94}, {"time": 135600, "pitch": 60, "duration": 65, "velocity": 97}, {"time": 135720, "pitch": 63, "duration": 46, "velocity": 89}, {"time": 135839, "pitch": 39, "duration": 788, "velocity": 106}, {"time": 135839, "pitch": 51, "duration": 296, "velocity": 103}, {"time": 135839, "pitch": 62, "duration": 260, "velocity": 108}, {"time": 135839, "pitch": 65, "duration": 240, "velocity": 99}, {"time": 136078, "pitch": 58, "duration": 63, "velocity": 95}, {"time": 136198, "pitch": 67, "duration": 268, "velocity": 119}, {"time": 136318, "pitch": 51, "duration": 294, "velocity": 107}, {"time": 136439, "pitch": 58, "duration": 86, "velocity": 82}, {"time": 136560, "pitch": 58, "duration": 29, "velocity": 55}, {"time": 136560, "pitch": 65, "duration": 52, "velocity": 111}, {"time": 136802, "pitch": 39, "duration": 826, "velocity": 98}, {"time": 136802, "pitch": 51, "duration": 247, "velocity": 104}, {"time": 136802, "pitch": 58, "duration": 484, "velocity": 106}, {"time": 136802, "pitch": 63, "duration": 508, "velocity": 108}, {"time": 136802, "pitch": 67, "duration": 569, "velocity": 112}, {"time": 137280, "pitch": 51, "duration": 333, "velocity": 101}, {"time": 137400, "pitch": 58, "duration": 66, "velocity": 102}, {"time": 137519, "pitch": 63, "duration": 61, "velocity": 98}, {"time": 137639, "pitch": 67, "duration": 52, "velocity": 94}, {"time": 137758, "pitch": 39, "duration": 871, "velocity": 97}, {"time": 137758, "pitch": 51, "duration": 271, "velocity": 94}, {"time": 137758, "pitch": 58, "duration": 541, "velocity": 93}, {"time": 137758, "pitch": 62, "duration": 587, "velocity": 106}, {"time": 137758, "pitch": 65, "duration": 637, "velocity": 94}, {"time": 138242, "pitch": 51, "duration": 331, "velocity": 115}, {"time": 138362, "pitch": 58, "duration": 68, "velocity": 99}, {"time": 138482, "pitch": 62, "duration": 63, "velocity": 108}, {"time": 138601, "pitch": 65, "duration": 54, "velocity": 102}, {"time": 138721, "pitch": 39, "duration": 884, "velocity": 109}, {"time": 138721, "pitch": 51, "duration": 258, "velocity": 102}, {"time": 138721, "pitch": 56, "duration": 508, "velocity": 99}, {"time": 138721, "pitch": 60, "duration": 549, "velocity": 109}, {"time": 138721, "pitch": 63, "duration": 639, "velocity": 94}, {"time": 139199, "pitch": 51, "duration": 371, "velocity": 115}, {"time": 139319, "pitch": 56, "duration": 68, "velocity": 103}, {"time": 139438, "pitch": 60, "duration": 58, "velocity": 94}, {"time": 139558, "pitch": 63, "duration": 39, "velocity": 91}, {"time": 139678, "pitch": 39, "duration": 789, "velocity": 99}, {"time": 139678, "pitch": 51, "duration": 294, "velocity": 97}, {"time": 139678, "pitch": 62, "duration": 250, "velocity": 104}, {"time": 139678, "pitch": 65, "duration": 236, "velocity": 97}, {"time": 139920, "pitch": 58, "duration": 64, "velocity": 95}, {"time": 140041, "pitch": 67, "duration": 243, "velocity": 119}, {"time": 140162, "pitch": 51, "duration": 279, "velocity": 97}, {"time": 140281, "pitch": 58, "duration": 73, "velocity": 91}, {"time": 140401, "pitch": 65, "duration": 46, "velocity": 109}, {"time": 140640, "pitch": 39, "duration": 888, "velocity": 95}, {"time": 140640, "pitch": 51, "duration": 301, "velocity": 97}, {"time": 140640, "pitch": 58, "duration": 533, "velocity": 104}, {"time": 140640, "pitch": 63, "duration": 566, "velocity": 106}, {"time": 140640, "pitch": 67, "duration": 596, "velocity": 104}], "annotations": [{"time": 207, "annotation": {"number": 7, "value": 77}, "group": "control_change"}, {"time": 216, "annotation": {"number": 11, "value": 120}, "group": "control_change"}, {"time": 226, "annotation": {"number": 10, "value": 64}, "group": "control_change"}, {"time": 235, "annotation": {"number": 91, "value": 50}, "group": "control_change"}, {"time": 244, "annotation": {"number": 93, "value": 0}, "group": "control_change"}, {"time": 254, "annotation": {"number": 101, "value": 0}, "group": "control_change"}, {"time": 263, "annotation": {"number": 100, "value": 0}, "group": "control_change"}, {"time": 273, "annotation": {"number": 6, "value": 12}, "group": "control_change"}, {"time": 282, "annotation": {"number": 101, "value": 127}, "group": "control_change"}, {"time": 291, "annotation": {"number": 100, "value": 127}, "group": "control_change"}, {"time": 13442, "annotation": {"number": 64, "value": 127}, "group": "control_change"}, {"time": 13932, "annotation": {"number": 64, "value": 127}, "group": "control_change"}, {"time": 13941, "annotation": {"number": 64, "value": 0}, "group": "control_change"}, {"time": 14073, "annotation": {"number": 64, "value": 0}, "group": "control_change"}, {"time": 14083, "annotation": {"number": 64, "value": 127}, "group": "control_change"}, {"time": 14889, "annotation": {"number": 64, "value": 127}, "group": "control_change"}, {"time": 14899, "annotation": {"number": 64, "value": 0}, "group": "control_change"}, {"time": 15045, "annotation": {"number": 64, "value": 0}, "group": "control_change"}, {"time": 15055, "annotation": {"number": 64, "value": 127}, "group": "control_change"}, {"time": 15835, "annotation": {"number": 64, "value": 127}, "group": "control_change"}, {"time": 15845, "annotation": {"number": 64, "value": 0}, "group": "control_change"}, {"time": 15997, "annotation": {"number": 64, "value": 0}, "group": "control_change"}, {"time": 16007, "annotation": {"number": 64, "value": 127}, "group": "control_change"}, {"time": 16789, "annotation": {"number": 64, "value": 127}, "group": "control_change"}, {"time": 16799, "annotation": {"number": 64, "value": 0}, "group": "control_change"}, {"time": 16920, "annotation": {"number": 64, "value": 0}, "group": "control_change"}, {"time": 16930, "annotation": {"number": 64, "value": 127}, "group": "control_change"}, {"time": 17738, "annotation": {"number": 64, "value": 127}, "group": "control_change"}, {"time": 17748, "annotation": {"number": 64, "value": 0}, "group": "control_change"}, {"time": 17883, "annotation": {"number": 64, "value": 0}, "group": "control_change"}, {"time": 17893, "annotation": {"number": 64, "value": 127}, "group": "control_change"}, {"time": 18717, "annotation": {"number": 64, "value": 127}, "group": "control_change"}, {"time": 18727, "annotation": {"number": 64, "value": 0}, "group": "control_change"}, {"time": 18886, "annotation": {"number": 64, "value": 0}, "group": "control_change"}, {"time": 18896, "annotation": {"number": 64, "value": 127}, "group": "control_change"}, {"time": 19678, "annotation": {"number": 64, "value": 127}, "group": "control_change"}, {"time": 19688, "annotation": {"number": 64, "value": 0}, "group": "control_change"}, {"time": 19827, "annotation": {"number": 64, "value": 0}, "group": "control_change"}, {"time": 19837, "annotation": {"number": 64, "value": 127}, "group": "control_change"}, {"time": 20616, "annotation": {"number": 64, "value": 127}, "group": "control_change"}, {"time": 20626, "annotation": {"number": 64, "value": 0}, "group": "control_change"}, {"time": 20750, "annotation": {"number": 64, "value": 0}, "group": "control_change"}, {"time": 20760, "annotation": {"number": 64, "value": 127}, "group": "control_change"}, {"time": 21562, "annotation": {"number": 64, "value": 127}, "group": "control_change"}, {"time": 21572, "annotation": {"number": 64, "value": 0}, "group": "control_change"}, {"time": 21702, "annotation": {"number": 64, "value": 0}, "group": "control_change"}, {"time": 21712, "annotation": {"number": 64, "value": 127}, "group": "control_change"}, {"time": 23516, "annotation": {"number": 64, "value": 127}, "group": "control_change"}, {"time": 23526, "annotation": {"number": 64, "value": 0}, "group": "control_change"}, {"time": 23664, "annotation": {"number": 64, "value": 0}, "group": "control_change"}, {"time": 23674, "annotation": {"number": 64, "value": 127}, "group": "control_change"}, {"time": 24459, "annotation": {"number": 64, "value": 127}, "group": "control_change"}, {"time": 24469, "annotation": {"number": 64, "value": 0}, "group": "control_change"}, {"time": 24560, "annotation": {"number": 64, "value": 0}, "group": "control_change"}, {"time": 24570, "annotation": {"number": 64, "value": 127}, "group": "control_change"}, {"time": 24951, "annotation": {"number": 64, "value": 127}, "group": "control_change"}, {"time": 24961, "annotation": {"number": 64, "value": 0}, "group": "control_change"}, {"time": 25073, "annotation": {"number": 64, "value": 0}, "group": "control_change"}, {"time": 25083, "annotation": {"number": 64, "value": 127}, "group": "control_change"}, {"time": 25419, "annotation": {"number": 64, "value": 127}, "group": "control_change"}, {"time": 25429, "annotation": {"number": 64, "value": 0}, "group": "control_change"}, {"time": 25532, "annotation": {"number": 64, "value": 0}, "group": "control_change"}, {"time": 25542, "annotation": {"number": 64, "value": 127}, "group": "control_change"}, {"time": 26368, "annotation": {"number": 64, "value": 127}, "group": "control_change"}, {"time": 26378, "annotation": {"number": 64, "value": 0}, "group": "control_change"}, {"time": 26477, "annotation": {"number": 64, "value": 0}, "group": "control_change"}, {"time": 26487, "annotation": {"number": 64, "value": 127}, "group": "control_change"}, {"time": 26836, "annotation": {"number": 64, "value": 127}, "group": "control_change"}, {"time": 26846, "annotation": {"number": 64, "value": 0}, "group": "control_change"}, {"time": 26950, "annotation": {"number": 64, "value": 0}, "group": "control_change"}, {"time": 26960, "annotation": {"number": 64, "value": 127}, "group": "control_change"}, {"time": 27336, "annotation": {"number": 64, "value": 127}, "group": "control_change"}, {"time": 27346, "annotation": {"number": 64, "value": 0}, "group": "control_change"}, {"time": 27462, "annotation": {"number": 64, "value": 0}, "group": "control_change"}, {"time": 27472, "annotation": {"number": 64, "value": 127}, "group": "control_change"}, {"time": 28764, "annotation": {"number": 64, "value": 127}, "group": "control_change"}, {"time": 28774, "annotation": {"number": 64, "value": 0}, "group": "control_change"}, {"time": 28909, "annotation": {"number": 64, "value": 0}, "group": "control_change"}, {"time": 28919, "annotation": {"number": 64, "value": 127}, "group": "control_change"}, {"time": 29263, "annotation": {"number": 64, "value": 127}, "group": "control_change"}, {"time": 29273, "annotation": {"number": 64, "value": 0}, "group": "control_change"}, {"time": 29409, "annotation": {"number": 64, "value": 0}, "group": "control_change"}, {"time": 29419, "annotation": {"number": 64, "value": 127}, "group": "control_change"}, {"time": 30141, "annotation": {"number": 64, "value": 127}, "group": "control_change"}, {"time": 30229, "annotation": {"number": 64, "value": 127}, "group": "control_change"}, {"time": 30239, "annotation": {"number": 64, "value": 0}, "group": "control_change"}, {"time": 30398, "annotation": {"number": 64, "value": 0}, "group": "control_change"}, {"time": 30408, "annotation": {"number": 64, "value": 127}, "group": "control_change"}, {"time": 30648, "annotation": {"number": 64, "value": 127}, "group": "control_change"}, {"time": 30658, "annotation": {"number": 64, "value": 0}, "group": "control_change"}, {"time": 30840, "annotation": {"number": 64, "value": 0}, "group": "control_change"}, {"time": 30850, "annotation": {"number": 64, "value": 127}, "group": "control_change"}, {"time": 31119, "annotation": {"number": 64, "value": 127}, "group": "control_change"}, {"time": 31159, "annotation": {"number": 64, "value": 0}, "group": "control_change"}, {"time": 31209, "annotation": {"number": 64, "value": 0}, "group": "control_change"}, {"time": 31219, "annotation": {"number": 64, "value": 127}, "group": "control_change"}, {"time": 31664, "annotation": {"number": 64, "value": 127}, "group": "control_change"}, {"time": 31674, "annotation": {"number": 64, "value": 0}, "group": "control_change"}, {"time": 31818, "annotation": {"number": 64, "value": 0}, "group": "control_change"}, {"time": 31828, "annotation": {"number": 64, "value": 127}, "group": "control_change"}, {"time": 32139, "annotation": {"number": 64, "value": 127}, "group": "control_change"}, {"time": 32149, "annotation": {"number": 64, "value": 0}, "group": "control_change"}, {"time": 32283, "annotation": {"number": 64, "value": 0}, "group": "control_change"}, {"time": 32293, "annotation": {"number": 64, "value": 127}, "group": "control_change"}, {"time": 32629, "annotation": {"number": 64, "value": 127}, "group": "control_change"}, {"time": 32639, "annotation": {"number": 64, "value": 0}, "group": "control_change"}, {"time": 32811, "annotation": {"number": 64, "value": 0}, "group": "control_change"}, {"time": 32821, "annotation": {"number": 64, "value": 127}, "group": "control_change"}, {"time": 33099, "annotation": {"number": 64, "value": 127}, "group": "control_change"}, {"time": 33109, "annotation": {"number": 64, "value": 0}, "group": "control_change"}, {"time": 33230, "annotation": {"number": 64, "value": 0}, "group": "control_change"}, {"time": 33240, "annotation": {"number": 64, "value": 127}, "group": "control_change"}, {"time": 34058, "annotation": {"number": 64, "value": 127}, "group": "control_change"}, {"time": 34068, "annotation": {"number": 64, "value": 0}, "group": "control_change"}, {"time": 34233, "annotation": {"number": 64, "value": 0}, "group": "control_change"}, {"time": 34243, "annotation": {"number": 64, "value": 127}, "group": "control_change"}, {"time": 34556, "annotation": {"number": 64, "value": 127}, "group": "control_change"}, {"time": 34566, "annotation": {"number": 64, "value": 0}, "group": "control_change"}, {"time": 34734, "annotation": {"number": 64, "value": 0}, "group": "control_change"}, {"time": 34744, "annotation": {"number": 64, "value": 127}, "group": "control_change"}, {"time": 35012, "annotation": {"number": 64, "value": 127}, "group": "control_change"}, {"time": 35022, "annotation": {"number": 64, "value": 0}, "group": "control_change"}, {"time": 35149, "annotation": {"number": 64, "value": 0}, "group": "control_change"}, {"time": 35159, "annotation": {"number": 64, "value": 127}, "group": "control_change"}, {"time": 35966, "annotation": {"number": 64, "value": 127}, "group": "control_change"}, {"time": 35977, "annotation": {"number": 64, "value": 0}, "group": "control_change"}, {"time": 36146, "annotation": {"number": 64, "value": 0}, "group": "control_change"}, {"time": 36156, "annotation": {"number": 64, "value": 127}, "group": "control_change"}, {"time": 36467, "annotation": {"number": 64, "value": 127}, "group": "control_change"}, {"time": 36477, "annotation": {"number": 64, "value": 0}, "group": "control_change"}, {"time": 36667, "annotation": {"number": 64, "value": 0}, "group": "control_change"}, {"time": 36676, "annotation": {"number": 64, "value": 127}, "group": "control_change"}, {"time": 36935, "annotation": {"number": 64, "value": 127}, "group": "control_change"}, {"time": 36945, "annotation": {"number": 64, "value": 0}, "group": "control_change"}, {"time": 37076, "annotation": {"number": 64, "value": 0}, "group": "control_change"}, {"time": 37086, "annotation": {"number": 64, "value": 127}, "group": "control_change"}, {"time": 38870, "annotation": {"number": 64, "value": 127}, "group": "control_change"}, {"time": 38880, "annotation": {"number": 64, "value": 0}, "group": "control_change"}, {"time": 39011, "annotation": {"number": 64, "value": 0}, "group": "control_change"}, {"time": 39021, "annotation": {"number": 64, "value": 127}, "group": "control_change"}, {"time": 40323, "annotation": {"number": 64, "value": 127}, "group": "control_change"}, {"time": 40333, "annotation": {"number": 64, "value": 0}, "group": "control_change"}, {"time": 40440, "annotation": {"number": 64, "value": 0}, "group": "control_change"}, {"time": 40450, "annotation": {"number": 64, "value": 127}, "group": "control_change"}, {"time": 40777, "annotation": {"number": 64, "value": 127}, "group": "control_change"}, {"time": 40787, "annotation": {"number": 64, "value": 0}, "group": "control_change"}, {"time": 40889, "annotation": {"number": 64, "value": 0}, "group": "control_change"}, {"time": 40899, "annotation": {"number": 64, "value": 127}, "group": "control_change"}, {"time": 41725, "annotation": {"number": 64, "value": 127}, "group": "control_change"}, {"time": 41735, "annotation": {"number": 64, "value": 0}, "group": "control_change"}, {"time": 41839, "annotation": {"number": 64, "value": 0}, "group": "control_change"}, {"time": 41849, "annotation": {"number": 64, "value": 127}, "group": "control_change"}, {"time": 42184, "annotation": {"number": 64, "value": 127}, "group": "control_change"}, {"time": 42194, "annotation": {"number": 64, "value": 0}, "group": "control_change"}, {"time": 42305, "annotation": {"number": 64, "value": 0}, "group": "control_change"}, {"time": 42315, "annotation": {"number": 64, "value": 127}, "group": "control_change"}, {"time": 42676, "annotation": {"number": 64, "value": 127}, "group": "control_change"}, {"time": 42686, "annotation": {"number": 64, "value": 0}, "group": "control_change"}, {"time": 42798, "annotation": {"number": 64, "value": 0}, "group": "control_change"}, {"time": 42808, "annotation": {"number": 64, "value": 127}, "group": "control_change"}, {"time": 44124, "annotation": {"number": 64, "value": 127}, "group": "control_change"}, {"time": 44134, "annotation": {"number": 64, "value": 0}, "group": "control_change"}, {"time": 44290, "annotation": {"number": 64, "value": 0}, "group": "control_change"}, {"time": 44300, "annotation": {"number": 64, "value": 127}, "group": "control_change"}, {"time": 44623, "annotation": {"number": 64, "value": 127}, "group": "control_change"}, {"time": 44633, "annotation": {"number": 64, "value": 0}, "group": "control_change"}, {"time": 44769, "annotation": {"number": 64, "value": 0}, "group": "control_change"}, {"time": 44778, "annotation": {"number": 64, "value": 127}, "group": "control_change"}, {"time": 45500, "annotation": {"number": 64, "value": 127}, "group": "control_change"}, {"time": 45588, "annotation": {"number": 64, "value": 127}, "group": "control_change"}, {"time": 45598, "annotation": {"number": 64, "value": 0}, "group": "control_change"}, {"time": 45757, "annotation": {"number": 64, "value": 0}, "group": "control_change"}, {"time": 45767, "annotation": {"number": 64, "value": 127}, "group": "control_change"}, {"time": 46007, "annotation": {"number": 64, "value": 127}, "group": "control_change"}, {"time": 46017, "annotation": {"number": 64, "value": 0}, "group": "control_change"}, {"time": 46199, "annotation": {"number": 64, "value": 0}, "group": "control_change"}, {"time": 46209, "annotation": {"number": 64, "value": 127}, "group": "control_change"}, {"time": 46478, "annotation": {"number": 64, "value": 127}, "group": "control_change"}, {"time": 46518, "annotation": {"number": 64, "value": 0}, "group": "control_change"}, {"time": 46669, "annotation": {"number": 64, "value": 0}, "group": "control_change"}, {"time": 46679, "annotation": {"number": 64, "value": 127}, "group": "control_change"}, {"time": 47012, "annotation": {"number": 64, "value": 127}, "group": "control_change"}, {"time": 47022, "annotation": {"number": 64, "value": 0}, "group": "control_change"}, {"time": 47144, "annotation": {"number": 64, "value": 0}, "group": "control_change"}, {"time": 47154, "annotation": {"number": 64, "value": 127}, "group": "control_change"}, {"time": 47493, "annotation": {"number": 64, "value": 127}, "group": "control_change"}, {"time": 47503, "annotation": {"number": 64, "value": 0}, "group": "control_change"}, {"time": 47606, "annotation": {"number": 64, "value": 0}, "group": "control_change"}, {"time": 47616, "annotation": {"number": 64, "value": 127}, "group": "control_change"}, {"time": 47996, "annotation": {"number": 64, "value": 127}, "group": "control_change"}, {"time": 48006, "annotation": {"number": 64, "value": 0}, "group": "control_change"}, {"time": 48131, "annotation": {"number": 64, "value": 0}, "group": "control_change"}, {"time": 48141, "annotation": {"number": 64, "value": 127}, "group": "control_change"}, {"time": 48471, "annotation": {"number": 64, "value": 127}, "group": "control_change"}, {"time": 48481, "annotation": {"number": 64, "value": 0}, "group": "control_change"}, {"time": 48611, "annotation": {"number": 64, "value": 0}, "group": "control_change"}, {"time": 48621, "annotation": {"number": 64, "value": 127}, "group": "control_change"}, {"time": 49429, "annotation": {"number": 64, "value": 127}, "group": "control_change"}, {"time": 49439, "annotation": {"number": 64, "value": 0}, "group": "control_change"}, {"time": 49597, "annotation": {"number": 64, "value": 0}, "group": "control_change"}, {"time": 49607, "annotation": {"number": 64, "value": 127}, "group": "control_change"}, {"time": 49913, "annotation": {"number": 64, "value": 127}, "group": "control_change"}, {"time": 49923, "annotation": {"number": 64, "value": 0}, "group": "control_change"}, {"time": 50070, "annotation": {"number": 64, "value": 0}, "group": "control_change"}, {"time": 50080, "annotation": {"number": 64, "value": 127}, "group": "control_change"}, {"time": 50374, "annotation": {"number": 64, "value": 127}, "group": "control_change"}, {"time": 50384, "annotation": {"number": 64, "value": 0}, "group": "control_change"}, {"time": 50493, "annotation": {"number": 64, "value": 0}, "group": "control_change"}, {"time": 50503, "annotation": {"number": 64, "value": 127}, "group": "control_change"}, {"time": 52310, "annotation": {"number": 64, "value": 127}, "group": "control_change"}, {"time": 52320, "annotation": {"number": 64, "value": 0}, "group": "control_change"}, {"time": 52461, "annotation": {"number": 64, "value": 0}, "group": "control_change"}, {"time": 52471, "annotation": {"number": 64, "value": 127}, "group": "control_change"}, {"time": 53257, "annotation": {"number": 64, "value": 127}, "group": "control_change"}, {"time": 53267, "annotation": {"number": 64, "value": 0}, "group": "control_change"}, {"time": 53399, "annotation": {"number": 64, "value": 0}, "group": "control_change"}, {"time": 53409, "annotation": {"number": 64, "value": 127}, "group": "control_change"}, {"time": 54224, "annotation": {"number": 64, "value": 127}, "group": "control_change"}, {"time": 54234, "annotation": {"number": 64, "value": 0}, "group": "control_change"}, {"time": 54382, "annotation": {"number": 64, "value": 0}, "group": "control_change"}, {"time": 54392, "annotation": {"number": 64, "value": 127}, "group": "control_change"}, {"time": 55186, "annotation": {"number": 64, "value": 127}, "group": "control_change"}, {"time": 55196, "annotation": {"number": 64, "value": 0}, "group": "control_change"}, {"time": 55355, "annotation": {"number": 64, "value": 0}, "group": "control_change"}, {"time": 55365, "annotation": {"number": 64, "value": 127}, "group": "control_change"}, {"time": 55677, "annotation": {"number": 64, "value": 127}, "group": "control_change"}, {"time": 55687, "annotation": {"number": 64, "value": 0}, "group": "control_change"}, {"time": 55862, "annotation": {"number": 64, "value": 0}, "group": "control_change"}, {"time": 55872, "annotation": {"number": 64, "value": 127}, "group": "control_change"}, {"time": 56155, "annotation": {"number": 64, "value": 127}, "group": "control_change"}, {"time": 56165, "annotation": {"number": 64, "value": 0}, "group": "control_change"}, {"time": 56326, "annotation": {"number": 64, "value": 0}, "group": "control_change"}, {"time": 56336, "annotation": {"number": 64, "value": 127}, "group": "control_change"}, {"time": 57130, "annotation": {"number": 64, "value": 127}, "group": "control_change"}, {"time": 57140, "annotation": {"number": 64, "value": 0}, "group": "control_change"}, {"time": 57312, "annotation": {"number": 64, "value": 0}, "group": "control_change"}, {"time": 57322, "annotation": {"number": 64, "value": 127}, "group": "control_change"}, {"time": 58060, "annotation": {"number": 64, "value": 127}, "group": "control_change"}, {"time": 58070, "annotation": {"number": 64, "value": 0}, "group": "control_change"}, {"time": 58247, "annotation": {"number": 64, "value": 0}, "group": "control_change"}, {"time": 58257, "annotation": {"number": 64, "value": 127}, "group": "control_change"}, {"time": 58564, "annotation": {"number": 64, "value": 127}, "group": "control_change"}, {"time": 58574, "annotation": {"number": 64, "value": 0}, "group": "control_change"}, {"time": 58723, "annotation": {"number": 64, "value": 0}, "group": "control_change"}, {"time": 58733, "annotation": {"number": 64, "value": 127}, "group": "control_change"}, {"time": 59042, "annotation": {"number": 64, "value": 127}, "group": "control_change"}, {"time": 59052, "annotation": {"number": 64, "value": 0}, "group": "control_change"}, {"time": 59199, "annotation": {"number": 64, "value": 0}, "group": "control_change"}, {"time": 59209, "annotation": {"number": 64, "value": 127}, "group": "control_change"}, {"time": 59523, "annotation": {"number": 64, "value": 127}, "group": "control_change"}, {"time": 59533, "annotation": {"number": 64, "value": 0}, "group": "control_change"}, {"time": 59700, "annotation": {"number": 64, "value": 0}, "group": "control_change"}, {"time": 59710, "annotation": {"number": 64, "value": 127}, "group": "control_change"}, {"time": 59993, "annotation": {"number": 64, "value": 127}, "group": "control_change"}, {"time": 60003, "annotation": {"number": 64, "value": 0}, "group": "control_change"}, {"time": 60140, "annotation": {"number": 64, "value": 0}, "group": "control_change"}, {"time": 60150, "annotation": {"number": 64, "value": 127}, "group": "control_change"}, {"time": 61908, "annotation": {"number": 64, "value": 127}, "group": "control_change"}, {"time": 61918, "annotation": {"number": 64, "value": 0}, "group": "control_change"}, {"time": 62085, "annotation": {"number": 64, "value": 0}, "group": "control_change"}, {"time": 62095, "annotation": {"number": 64, "value": 127}, "group": "control_change"}, {"time": 63794, "annotation": {"number": 64, "value": 127}, "group": "control_change"}, {"time": 63804, "annotation": {"number": 64, "value": 0}, "group": "control_change"}, {"time": 63912, "annotation": {"number": 64, "value": 0}, "group": "control_change"}, {"time": 63922, "annotation": {"number": 64, "value": 127}, "group": "control_change"}, {"time": 64797, "annotation": {"number": 64, "value": 127}, "group": "control_change"}, {"time": 64807, "annotation": {"number": 64, "value": 0}, "group": "control_change"}, {"time": 64971, "annotation": {"number": 64, "value": 0}, "group": "control_change"}, {"time": 64981, "annotation": {"number": 64, "value": 127}, "group": "control_change"}, {"time": 65746, "annotation": {"number": 64, "value": 127}, "group": "control_change"}, {"time": 65756, "annotation": {"number": 64, "value": 0}, "group": "control_change"}, {"time": 65921, "annotation": {"number": 64, "value": 0}, "group": "control_change"}, {"time": 65931, "annotation": {"number": 64, "value": 127}, "group": "control_change"}, {"time": 66720, "annotation": {"number": 64, "value": 127}, "group": "control_change"}, {"time": 66730, "annotation": {"number": 64, "value": 0}, "group": "control_change"}, {"time": 66865, "annotation": {"number": 64, "value": 0}, "group": "control_change"}, {"time": 66875, "annotation": {"number": 64, "value": 127}, "group": "control_change"}, {"time": 67675, "annotation": {"number": 64, "value": 127}, "group": "control_change"}, {"time": 67685, "annotation": {"number": 64, "value": 0}, "group": "control_change"}, {"time": 67815, "annotation": {"number": 64, "value": 0}, "group": "control_change"}, {"time": 67825, "annotation": {"number": 64, "value": 127}, "group": "control_change"}, {"time": 68634, "annotation": {"number": 64, "value": 127}, "group": "control_change"}, {"time": 68644, "annotation": {"number": 64, "value": 0}, "group": "control_change"}, {"time": 68775, "annotation": {"number": 64, "value": 0}, "group": "control_change"}, {"time": 68785, "annotation": {"number": 64, "value": 127}, "group": "control_change"}, {"time": 69599, "annotation": {"number": 64, "value": 127}, "group": "control_change"}, {"time": 69609, "annotation": {"number": 64, "value": 0}, "group": "control_change"}, {"time": 69755, "annotation": {"number": 64, "value": 0}, "group": "control_change"}, {"time": 69765, "annotation": {"number": 64, "value": 127}, "group": "control_change"}, {"time": 70563, "annotation": {"number": 64, "value": 127}, "group": "control_change"}, {"time": 70573, "annotation": {"number": 64, "value": 0}, "group": "control_change"}, {"time": 70700, "annotation": {"number": 64, "value": 0}, "group": "control_change"}, {"time": 70710, "annotation": {"number": 64, "value": 127}, "group": "control_change"}, {"time": 71491, "annotation": {"number": 64, "value": 127}, "group": "control_change"}, {"time": 71501, "annotation": {"number": 64, "value": 0}, "group": "control_change"}, {"time": 71645, "annotation": {"number": 64, "value": 0}, "group": "control_change"}, {"time": 71655, "annotation": {"number": 64, "value": 127}, "group": "control_change"}, {"time": 73440, "annotation": {"number": 64, "value": 127}, "group": "control_change"}, {"time": 73450, "annotation": {"number": 64, "value": 0}, "group": "control_change"}, {"time": 73573, "annotation": {"number": 64, "value": 0}, "group": "control_change"}, {"time": 73583, "annotation": {"number": 64, "value": 127}, "group": "control_change"}, {"time": 74844, "annotation": {"number": 64, "value": 127}, "group": "control_change"}, {"time": 74854, "annotation": {"number": 64, "value": 0}, "group": "control_change"}, {"time": 74963, "annotation": {"number": 64, "value": 0}, "group": "control_change"}, {"time": 74973, "annotation": {"number": 64, "value": 127}, "group": "control_change"}, {"time": 75340, "annotation": {"number": 64, "value": 127}, "group": "control_change"}, {"time": 75350, "annotation": {"number": 64, "value": 0}, "group": "control_change"}, {"time": 75463, "annotation": {"number": 64, "value": 0}, "group": "control_change"}, {"time": 75473, "annotation": {"number": 64, "value": 127}, "group": "control_change"}, {"time": 76323, "annotation": {"number": 64, "value": 127}, "group": "control_change"}, {"time": 76333, "annotation": {"number": 64, "value": 0}, "group": "control_change"}, {"time": 76469, "annotation": {"number": 64, "value": 0}, "group": "control_change"}, {"time": 76479, "annotation": {"number": 64, "value": 127}, "group": "control_change"}, {"time": 76782, "annotation": {"number": 64, "value": 127}, "group": "control_change"}, {"time": 76792, "annotation": {"number": 64, "value": 0}, "group": "control_change"}, {"time": 76934, "annotation": {"number": 64, "value": 0}, "group": "control_change"}, {"time": 76944, "annotation": {"number": 64, "value": 127}, "group": "control_change"}, {"time": 77276, "annotation": {"number": 64, "value": 127}, "group": "control_change"}, {"time": 77286, "annotation": {"number": 64, "value": 0}, "group": "control_change"}, {"time": 77431, "annotation": {"number": 64, "value": 0}, "group": "control_change"}, {"time": 77441, "annotation": {"number": 64, "value": 127}, "group": "control_change"}, {"time": 78699, "annotation": {"number": 64, "value": 127}, "group": "control_change"}, {"time": 78709, "annotation": {"number": 64, "value": 0}, "group": "control_change"}, {"time": 78892, "annotation": {"number": 64, "value": 0}, "group": "control_change"}, {"time": 78902, "annotation": {"number": 64, "value": 127}, "group": "control_change"}, {"time": 79175, "annotation": {"number": 64, "value": 127}, "group": "control_change"}, {"time": 79185, "annotation": {"number": 64, "value": 0}, "group": "control_change"}, {"time": 79327, "annotation": {"number": 64, "value": 0}, "group": "control_change"}, {"time": 79337, "annotation": {"number": 64, "value": 127}, "group": "control_change"}, {"time": 80062, "annotation": {"number": 64, "value": 127}, "group": "control_change"}, {"time": 80150, "annotation": {"number": 64, "value": 127}, "group": "control_change"}, {"time": 80160, "annotation": {"number": 64, "value": 0}, "group": "control_change"}, {"time": 80318, "annotation": {"number": 64, "value": 0}, "group": "control_change"}, {"time": 80328, "annotation": {"number": 64, "value": 127}, "group": "control_change"}, {"time": 80565, "annotation": {"number": 64, "value": 127}, "group": "control_change"}, {"time": 80575, "annotation": {"number": 64, "value": 0}, "group": "control_change"}, {"time": 80757, "annotation": {"number": 64, "value": 0}, "group": "control_change"}, {"time": 80768, "annotation": {"number": 64, "value": 127}, "group": "control_change"}, {"time": 81040, "annotation": {"number": 64, "value": 127}, "group": "control_change"}, {"time": 81080, "annotation": {"number": 64, "value": 0}, "group": "control_change"}, {"time": 81240, "annotation": {"number": 64, "value": 0}, "group": "control_change"}, {"time": 81250, "annotation": {"number": 64, "value": 127}, "group": "control_change"}, {"time": 81580, "annotation": {"number": 64, "value": 127}, "group": "control_change"}, {"time": 81590, "annotation": {"number": 64, "value": 0}, "group": "control_change"}, {"time": 81726, "annotation": {"number": 64, "value": 0}, "group": "control_change"}, {"time": 81736, "annotation": {"number": 64, "value": 127}, "group": "control_change"}, {"time": 82071, "annotation": {"number": 64, "value": 127}, "group": "control_change"}, {"time": 82081, "annotation": {"number": 64, "value": 0}, "group": "control_change"}, {"time": 82224, "annotation": {"number": 64, "value": 0}, "group": "control_change"}, {"time": 82234, "annotation": {"number": 64, "value": 127}, "group": "control_change"}, {"time": 82566, "annotation": {"number": 64, "value": 127}, "group": "control_change"}, {"time": 82576, "annotation": {"number": 64, "value": 0}, "group": "control_change"}, {"time": 82724, "annotation": {"number": 64, "value": 0}, "group": "control_change"}, {"time": 82734, "annotation": {"number": 64, "value": 127}, "group": "control_change"}, {"time": 83039, "annotation": {"number": 64, "value": 127}, "group": "control_change"}, {"time": 83049, "annotation": {"number": 64, "value": 0}, "group": "control_change"}, {"time": 83218, "annotation": {"number": 64, "value": 0}, "group": "control_change"}, {"time": 83228, "annotation": {"number": 64, "value": 127}, "group": "control_change"}, {"time": 83986, "annotation": {"number": 64, "value": 127}, "group": "control_change"}, {"time": 83996, "annotation": {"number": 64, "value": 0}, "group": "control_change"}, {"time": 84168, "annotation": {"number": 64, "value": 0}, "group": "control_change"}, {"time": 84178, "annotation": {"number": 64, "value": 127}, "group": "control_change"}, {"time": 84484, "annotation": {"number": 64, "value": 127}, "group": "control_change"}, {"time": 84494, "annotation": {"number": 64, "value": 0}, "group": "control_change"}, {"time": 84699, "annotation": {"number": 64, "value": 0}, "group": "control_change"}, {"time": 84709, "annotation": {"number": 64, "value": 127}, "group": "control_change"}, {"time": 84949, "annotation": {"number": 64, "value": 127}, "group": "control_change"}, {"time": 84959, "annotation": {"number": 64, "value": 0}, "group": "control_change"}, {"time": 85079, "annotation": {"number": 64, "value": 0}, "group": "control_change"}, {"time": 85089, "annotation": {"number": 64, "value": 127}, "group": "control_change"}, {"time": 85895, "annotation": {"number": 64, "value": 127}, "group": "control_change"}, {"time": 85905, "annotation": {"number": 64, "value": 0}, "group": "control_change"}, {"time": 86057, "annotation": {"number": 64, "value": 0}, "group": "control_change"}, {"time": 86067, "annotation": {"number": 64, "value": 127}, "group": "control_change"}, {"time": 86856, "annotation": {"number": 64, "value": 127}, "group": "control_change"}, {"time": 86866, "annotation": {"number": 64, "value": 0}, "group": "control_change"}, {"time": 86906, "annotation": {"number": 64, "value": 0}, "group": "control_change"}, {"time": 87094, "annotation": {"number": 64, "value": 0}, "group": "control_change"}, {"time": 87104, "annotation": {"number": 64, "value": 127}, "group": "control_change"}, {"time": 88805, "annotation": {"number": 64, "value": 127}, "group": "control_change"}, {"time": 88815, "annotation": {"number": 64, "value": 0}, "group": "control_change"}, {"time": 88957, "annotation": {"number": 64, "value": 0}, "group": "control_change"}, {"time": 88967, "annotation": {"number": 64, "value": 127}, "group": "control_change"}, {"time": 90705, "annotation": {"number": 64, "value": 127}, "group": "control_change"}, {"time": 90715, "annotation": {"number": 64, "value": 0}, "group": "control_change"}, {"time": 90811, "annotation": {"number": 64, "value": 0}, "group": "control_change"}, {"time": 90821, "annotation": {"number": 64, "value": 127}, "group": "control_change"}, {"time": 91701, "annotation": {"number": 64, "value": 127}, "group": "control_change"}, {"time": 91711, "annotation": {"number": 64, "value": 0}, "group": "control_change"}, {"time": 91803, "annotation": {"number": 64, "value": 0}, "group": "control_change"}, {"time": 91813, "annotation": {"number": 64, "value": 127}, "group": "control_change"}, {"time": 92636, "annotation": {"number": 64, "value": 127}, "group": "control_change"}, {"time": 92646, "annotation": {"number": 64, "value": 0}, "group": "control_change"}, {"time": 92786, "annotation": {"number": 64, "value": 0}, "group": "control_change"}, {"time": 92796, "annotation": {"number": 64, "value": 127}, "group": "control_change"}, {"time": 93618, "annotation": {"number": 64, "value": 127}, "group": "control_change"}, {"time": 93628, "annotation": {"number": 64, "value": 0}, "group": "control_change"}, {"time": 93744, "annotation": {"number": 64, "value": 0}, "group": "control_change"}, {"time": 93754, "annotation": {"number": 64, "value": 127}, "group": "control_change"}, {"time": 94116, "annotation": {"number": 64, "value": 127}, "group": "control_change"}, {"time": 94126, "annotation": {"number": 64, "value": 0}, "group": "control_change"}, {"time": 94249, "annotation": {"number": 64, "value": 0}, "group": "control_change"}, {"time": 94259, "annotation": {"number": 64, "value": 127}, "group": "control_change"}, {"time": 94577, "annotation": {"number": 64, "value": 127}, "group": "control_change"}, {"time": 94587, "annotation": {"number": 64, "value": 0}, "group": "control_change"}, {"time": 94687, "annotation": {"number": 64, "value": 0}, "group": "control_change"}, {"time": 94697, "annotation": {"number": 64, "value": 127}, "group": "control_change"}, {"time": 96493, "annotation": {"number": 64, "value": 127}, "group": "control_change"}, {"time": 96503, "annotation": {"number": 64, "value": 0}, "group": "control_change"}, {"time": 96638, "annotation": {"number": 64, "value": 0}, "group": "control_change"}, {"time": 96648, "annotation": {"number": 64, "value": 127}, "group": "control_change"}, {"time": 97461, "annotation": {"number": 64, "value": 127}, "group": "control_change"}, {"time": 97471, "annotation": {"number": 64, "value": 0}, "group": "control_change"}, {"time": 97567, "annotation": {"number": 64, "value": 0}, "group": "control_change"}, {"time": 97577, "annotation": {"number": 64, "value": 127}, "group": "control_change"}, {"time": 98415, "annotation": {"number": 64, "value": 127}, "group": "control_change"}, {"time": 98425, "annotation": {"number": 64, "value": 0}, "group": "control_change"}, {"time": 98531, "annotation": {"number": 64, "value": 0}, "group": "control_change"}, {"time": 98541, "annotation": {"number": 64, "value": 127}, "group": "control_change"}, {"time": 100352, "annotation": {"number": 64, "value": 127}, "group": "control_change"}, {"time": 100362, "annotation": {"number": 64, "value": 0}, "group": "control_change"}, {"time": 100491, "annotation": {"number": 64, "value": 0}, "group": "control_change"}, {"time": 100500, "annotation": {"number": 64, "value": 127}, "group": "control_change"}, {"time": 101297, "annotation": {"number": 64, "value": 127}, "group": "control_change"}, {"time": 101307, "annotation": {"number": 64, "value": 0}, "group": "control_change"}, {"time": 101411, "annotation": {"number": 64, "value": 0}, "group": "control_change"}, {"time": 101421, "annotation": {"number": 64, "value": 127}, "group": "control_change"}, {"time": 101773, "annotation": {"number": 64, "value": 127}, "group": "control_change"}, {"time": 101783, "annotation": {"number": 64, "value": 0}, "group": "control_change"}, {"time": 101954, "annotation": {"number": 64, "value": 0}, "group": "control_change"}, {"time": 101964, "annotation": {"number": 64, "value": 127}, "group": "control_change"}, {"time": 102265, "annotation": {"number": 64, "value": 127}, "group": "control_change"}, {"time": 102275, "annotation": {"number": 64, "value": 0}, "group": "control_change"}, {"time": 102371, "annotation": {"number": 64, "value": 0}, "group": "control_change"}, {"time": 102381, "annotation": {"number": 64, "value": 127}, "group": "control_change"}, {"time": 104210, "annotation": {"number": 64, "value": 127}, "group": "control_change"}, {"time": 104220, "annotation": {"number": 64, "value": 0}, "group": "control_change"}, {"time": 104356, "annotation": {"number": 64, "value": 0}, "group": "control_change"}, {"time": 104366, "annotation": {"number": 64, "value": 127}, "group": "control_change"}, {"time": 105972, "annotation": {"number": 64, "value": 127}, "group": "control_change"}, {"time": 106036, "annotation": {"number": 64, "value": 0}, "group": "control_change"}, {"time": 106066, "annotation": {"number": 64, "value": 0}, "group": "control_change"}, {"time": 106076, "annotation": {"number": 64, "value": 127}, "group": "control_change"}, {"time": 107050, "annotation": {"number": 64, "value": 127}, "group": "control_change"}, {"time": 107060, "annotation": {"number": 64, "value": 0}, "group": "control_change"}, {"time": 107223, "annotation": {"number": 64, "value": 0}, "group": "control_change"}, {"time": 107233, "annotation": {"number": 64, "value": 127}, "group": "control_change"}, {"time": 107995, "annotation": {"number": 64, "value": 127}, "group": "control_change"}, {"time": 108005, "annotation": {"number": 64, "value": 0}, "group": "control_change"}, {"time": 108187, "annotation": {"number": 64, "value": 0}, "group": "control_change"}, {"time": 108197, "annotation": {"number": 64, "value": 127}, "group": "control_change"}, {"time": 108969, "annotation": {"number": 64, "value": 127}, "group": "control_change"}, {"time": 108979, "annotation": {"number": 64, "value": 0}, "group": "control_change"}, {"time": 109173, "annotation": {"number": 64, "value": 0}, "group": "control_change"}, {"time": 109183, "annotation": {"number": 64, "value": 127}, "group": "control_change"}, {"time": 109471, "annotation": {"number": 64, "value": 127}, "group": "control_change"}, {"time": 109481, "annotation": {"number": 64, "value": 0}, "group": "control_change"}, {"time": 109653, "annotation": {"number": 64, "value": 0}, "group": "control_change"}, {"time": 109664, "annotation": {"number": 64, "value": 127}, "group": "control_change"}, {"time": 109929, "annotation": {"number": 64, "value": 127}, "group": "control_change"}, {"time": 109939, "annotation": {"number": 64, "value": 0}, "group": "control_change"}, {"time": 110111, "annotation": {"number": 64, "value": 0}, "group": "control_change"}, {"time": 110121, "annotation": {"number": 64, "value": 127}, "group": "control_change"}, {"time": 110898, "annotation": {"number": 64, "value": 127}, "group": "control_change"}, {"time": 110908, "annotation": {"number": 64, "value": 0}, "group": "control_change"}, {"time": 111075, "annotation": {"number": 64, "value": 0}, "group": "control_change"}, {"time": 111085, "annotation": {"number": 64, "value": 127}, "group": "control_change"}, {"time": 111819, "annotation": {"number": 64, "value": 127}, "group": "control_change"}, {"time": 111829, "annotation": {"number": 64, "value": 0}, "group": "control_change"}, {"time": 112037, "annotation": {"number": 64, "value": 0}, "group": "control_change"}, {"time": 112047, "annotation": {"number": 64, "value": 127}, "group": "control_change"}, {"time": 112317, "annotation": {"number": 64, "value": 127}, "group": "control_change"}, {"time": 112327, "annotation": {"number": 64, "value": 0}, "group": "control_change"}, {"time": 112513, "annotation": {"number": 64, "value": 0}, "group": "control_change"}, {"time": 112523, "annotation": {"number": 64, "value": 127}, "group": "control_change"}, {"time": 112810, "annotation": {"number": 64, "value": 127}, "group": "control_change"}, {"time": 112820, "annotation": {"number": 64, "value": 0}, "group": "control_change"}, {"time": 112980, "annotation": {"number": 64, "value": 0}, "group": "control_change"}, {"time": 112990, "annotation": {"number": 64, "value": 127}, "group": "control_change"}, {"time": 113297, "annotation": {"number": 64, "value": 127}, "group": "control_change"}, {"time": 113307, "annotation": {"number": 64, "value": 0}, "group": "control_change"}, {"time": 113485, "annotation": {"number": 64, "value": 0}, "group": "control_change"}, {"time": 113495, "annotation": {"number": 64, "value": 127}, "group": "control_change"}, {"time": 113763, "annotation": {"number": 64, "value": 127}, "group": "control_change"}, {"time": 113773, "annotation": {"number": 64, "value": 0}, "group": "control_change"}, {"time": 113940, "annotation": {"number": 64, "value": 0}, "group": "control_change"}, {"time": 113950, "annotation": {"number": 64, "value": 127}, "group": "control_change"}, {"time": 115678, "annotation": {"number": 64, "value": 127}, "group": "control_change"}, {"time": 115688, "annotation": {"number": 64, "value": 0}, "group": "control_change"}, {"time": 115838, "annotation": {"number": 64, "value": 0}, "group": "control_change"}, {"time": 115848, "annotation": {"number": 64, "value": 127}, "group": "control_change"}, {"time": 117562, "annotation": {"number": 64, "value": 127}, "group": "control_change"}, {"time": 117572, "annotation": {"number": 64, "value": 0}, "group": "control_change"}, {"time": 117598, "annotation": {"number": 64, "value": 0}, "group": "control_change"}, {"time": 117809, "annotation": {"number": 64, "value": 0}, "group": "control_change"}, {"time": 117819, "annotation": {"number": 64, "value": 127}, "group": "control_change"}, {"time": 118559, "annotation": {"number": 64, "value": 127}, "group": "control_change"}, {"time": 118569, "annotation": {"number": 64, "value": 0}, "group": "control_change"}, {"time": 118758, "annotation": {"number": 64, "value": 0}, "group": "control_change"}, {"time": 118768, "annotation": {"number": 64, "value": 127}, "group": "control_change"}, {"time": 119510, "annotation": {"number": 64, "value": 127}, "group": "control_change"}, {"time": 119520, "annotation": {"number": 64, "value": 0}, "group": "control_change"}, {"time": 119721, "annotation": {"number": 64, "value": 0}, "group": "control_change"}, {"time": 119731, "annotation": {"number": 64, "value": 127}, "group": "control_change"}, {"time": 120477, "annotation": {"number": 64, "value": 127}, "group": "control_change"}, {"time": 120487, "annotation": {"number": 64, "value": 0}, "group": "control_change"}, {"time": 120683, "annotation": {"number": 64, "value": 0}, "group": "control_change"}, {"time": 120693, "annotation": {"number": 64, "value": 127}, "group": "control_change"}, {"time": 120950, "annotation": {"number": 64, "value": 127}, "group": "control_change"}, {"time": 120960, "annotation": {"number": 64, "value": 0}, "group": "control_change"}, {"time": 121171, "annotation": {"number": 64, "value": 0}, "group": "control_change"}, {"time": 121181, "annotation": {"number": 64, "value": 127}, "group": "control_change"}, {"time": 121444, "annotation": {"number": 64, "value": 127}, "group": "control_change"}, {"time": 121454, "annotation": {"number": 64, "value": 0}, "group": "control_change"}, {"time": 121659, "annotation": {"number": 64, "value": 0}, "group": "control_change"}, {"time": 121669, "annotation": {"number": 64, "value": 127}, "group": "control_change"}, {"time": 122383, "annotation": {"number": 64, "value": 127}, "group": "control_change"}, {"time": 122393, "annotation": {"number": 64, "value": 0}, "group": "control_change"}, {"time": 122608, "annotation": {"number": 64, "value": 0}, "group": "control_change"}, {"time": 122618, "annotation": {"number": 64, "value": 127}, "group": "control_change"}, {"time": 123355, "annotation": {"number": 64, "value": 127}, "group": "control_change"}, {"time": 123365, "annotation": {"number": 64, "value": 0}, "group": "control_change"}, {"time": 123568, "annotation": {"number": 64, "value": 0}, "group": "control_change"}, {"time": 123578, "annotation": {"number": 64, "value": 127}, "group": "control_change"}, {"time": 123847, "annotation": {"number": 64, "value": 127}, "group": "control_change"}, {"time": 123857, "annotation": {"number": 64, "value": 0}, "group": "control_change"}, {"time": 124014, "annotation": {"number": 64, "value": 0}, "group": "control_change"}, {"time": 124024, "annotation": {"number": 64, "value": 127}, "group": "control_change"}, {"time": 124317, "annotation": {"number": 64, "value": 127}, "group": "control_change"}, {"time": 124328, "annotation": {"number": 64, "value": 0}, "group": "control_change"}, {"time": 124508, "annotation": {"number": 64, "value": 0}, "group": "control_change"}, {"time": 124518, "annotation": {"number": 64, "value": 127}, "group": "control_change"}, {"time": 124802, "annotation": {"number": 64, "value": 127}, "group": "control_change"}, {"time": 124812, "annotation": {"number": 64, "value": 0}, "group": "control_change"}, {"time": 125001, "annotation": {"number": 64, "value": 0}, "group": "control_change"}, {"time": 125011, "annotation": {"number": 64, "value": 127}, "group": "control_change"}, {"time": 125272, "annotation": {"number": 64, "value": 127}, "group": "control_change"}, {"time": 125282, "annotation": {"number": 64, "value": 0}, "group": "control_change"}, {"time": 125458, "annotation": {"number": 64, "value": 0}, "group": "control_change"}, {"time": 125468, "annotation": {"number": 64, "value": 127}, "group": "control_change"}, {"time": 127180, "annotation": {"number": 64, "value": 127}, "group": "control_change"}, {"time": 127190, "annotation": {"number": 64, "value": 0}, "group": "control_change"}, {"time": 127381, "annotation": {"number": 64, "value": 0}, "group": "control_change"}, {"time": 127391, "annotation": {"number": 64, "value": 127}, "group": "control_change"}, {"time": 129118, "annotation": {"number": 64, "value": 127}, "group": "control_change"}, {"time": 129128, "annotation": {"number": 64, "value": 0}, "group": "control_change"}, {"time": 129295, "annotation": {"number": 64, "value": 0}, "group": "control_change"}, {"time": 129305, "annotation": {"number": 64, "value": 127}, "group": "control_change"}, {"time": 130082, "annotation": {"number": 64, "value": 127}, "group": "control_change"}, {"time": 130092, "annotation": {"number": 64, "value": 0}, "group": "control_change"}, {"time": 130289, "annotation": {"number": 64, "value": 0}, "group": "control_change"}, {"time": 130299, "annotation": {"number": 64, "value": 127}, "group": "control_change"}, {"time": 131031, "annotation": {"number": 64, "value": 127}, "group": "control_change"}, {"time": 131041, "annotation": {"number": 64, "value": 0}, "group": "control_change"}, {"time": 131242, "annotation": {"number": 64, "value": 0}, "group": "control_change"}, {"time": 131252, "annotation": {"number": 64, "value": 127}, "group": "control_change"}, {"time": 131985, "annotation": {"number": 64, "value": 127}, "group": "control_change"}, {"time": 131995, "annotation": {"number": 64, "value": 0}, "group": "control_change"}, {"time": 132150, "annotation": {"number": 64, "value": 0}, "group": "control_change"}, {"time": 132160, "annotation": {"number": 64, "value": 127}, "group": "control_change"}, {"time": 132932, "annotation": {"number": 64, "value": 127}, "group": "control_change"}, {"time": 132942, "annotation": {"number": 64, "value": 0}, "group": "control_change"}, {"time": 133087, "annotation": {"number": 64, "value": 0}, "group": "control_change"}, {"time": 133097, "annotation": {"number": 64, "value": 127}, "group": "control_change"}, {"time": 133911, "annotation": {"number": 64, "value": 127}, "group": "control_change"}, {"time": 133921, "annotation": {"number": 64, "value": 0}, "group": "control_change"}, {"time": 134078, "annotation": {"number": 64, "value": 0}, "group": "control_change"}, {"time": 134087, "annotation": {"number": 64, "value": 127}, "group": "control_change"}, {"time": 134879, "annotation": {"number": 64, "value": 127}, "group": "control_change"}, {"time": 134889, "annotation": {"number": 64, "value": 0}, "group": "control_change"}, {"time": 135061, "annotation": {"number": 64, "value": 0}, "group": "control_change"}, {"time": 135071, "annotation": {"number": 64, "value": 127}, "group": "control_change"}, {"time": 135834, "annotation": {"number": 64, "value": 127}, "group": "control_change"}, {"time": 135844, "annotation": {"number": 64, "value": 0}, "group": "control_change"}, {"time": 135985, "annotation": {"number": 64, "value": 0}, "group": "control_change"}, {"time": 135995, "annotation": {"number": 64, "value": 127}, "group": "control_change"}, {"time": 136792, "annotation": {"number": 64, "value": 127}, "group": "control_change"}, {"time": 136802, "annotation": {"number": 64, "value": 0}, "group": "control_change"}, {"time": 136963, "annotation": {"number": 64, "value": 0}, "group": "control_change"}, {"time": 136973, "annotation": {"number": 64, "value": 127}, "group": "control_change"}, {"time": 137738, "annotation": {"number": 64, "value": 127}, "group": "control_change"}, {"time": 137747, "annotation": {"number": 64, "value": 0}, "group": "control_change"}, {"time": 137896, "annotation": {"number": 64, "value": 0}, "group": "control_change"}, {"time": 137906, "annotation": {"number": 64, "value": 127}, "group": "control_change"}, {"time": 138712, "annotation": {"number": 64, "value": 127}, "group": "control_change"}, {"time": 138722, "annotation": {"number": 64, "value": 0}, "group": "control_change"}, {"time": 138862, "annotation": {"number": 64, "value": 0}, "group": "control_change"}, {"time": 138872, "annotation": {"number": 64, "value": 127}, "group": "control_change"}, {"time": 139663, "annotation": {"number": 64, "value": 127}, "group": "control_change"}, {"time": 139673, "annotation": {"number": 64, "value": 0}, "group": "control_change"}, {"time": 139802, "annotation": {"number": 64, "value": 0}, "group": "control_change"}, {"time": 139812, "annotation": {"number": 64, "value": 127}, "group": "control_change"}, {"time": 140605, "annotation": {"number": 64, "value": 127}, "group": "control_change"}, {"time": 140615, "annotation": {"number": 64, "value": 0}, "group": "control_change"}, {"time": 140773, "annotation": {"number": 64, "value": 0}, "group": "control_change"}, {"time": 140783, "annotation": {"number": 64, "value": 127}, "group": "control_change"}]}, {"program": 0, "is_drum": false, "name": "Bass", "annotations": [{"time": 179, "annotation": {"number": 0, "value": 0}, "group": "control_change"}, {"time": 188, "annotation": {"number": 32, "value": 2}, "group": "control_change"}]}, {"program": 33, "is_drum": false, "name": "Bass", "notes": [{"time": 13923, "pitch": 39, "duration": 579, "velocity": 127}, {"time": 14640, "pitch": 39, "duration": 38, "velocity": 116}, {"time": 14760, "pitch": 39, "duration": 42, "velocity": 121}, {"time": 15119, "pitch": 39, "duration": 478, "velocity": 127}, {"time": 15600, "pitch": 34, "duration": 227, "velocity": 102}, {"time": 15842, "pitch": 39, "duration": 543, "velocity": 116}, {"time": 16559, "pitch": 39, "duration": 42, "velocity": 119}, {"time": 16679, "pitch": 39, "duration": 45, "velocity": 119}, {"time": 17041, "pitch": 39, "duration": 470, "velocity": 122}, {"time": 17522, "pitch": 34, "duration": 233, "velocity": 106}, {"time": 17761, "pitch": 39, "duration": 629, "velocity": 118}, {"time": 18479, "pitch": 39, "duration": 37, "velocity": 109}, {"time": 18598, "pitch": 39, "duration": 42, "velocity": 115}, {"time": 18960, "pitch": 39, "duration": 472, "velocity": 125}, {"time": 19441, "pitch": 34, "duration": 247, "velocity": 106}, {"time": 19680, "pitch": 39, "duration": 669, "velocity": 115}, {"time": 20401, "pitch": 39, "duration": 38, "velocity": 90}, {"time": 20522, "pitch": 39, "duration": 54, "velocity": 112}, {"time": 20882, "pitch": 39, "duration": 452, "velocity": 119}, {"time": 21360, "pitch": 34, "duration": 263, "velocity": 107}, {"time": 21599, "pitch": 39, "duration": 677, "velocity": 121}, {"time": 22320, "pitch": 34, "duration": 57, "velocity": 102}, {"time": 22441, "pitch": 39, "duration": 59, "velocity": 115}, {"time": 22801, "pitch": 39, "duration": 399, "velocity": 121}, {"time": 23279, "pitch": 39, "duration": 52, "velocity": 111}, {"time": 23399, "pitch": 41, "duration": 43, "velocity": 111}, {"time": 23519, "pitch": 43, "duration": 711, "velocity": 115}, {"time": 24242, "pitch": 38, "duration": 119, "velocity": 107}, {"time": 24361, "pitch": 43, "duration": 52, "velocity": 119}, {"time": 24720, "pitch": 43, "duration": 249, "velocity": 126}, {"time": 24959, "pitch": 42, "duration": 462, "velocity": 103}, {"time": 25438, "pitch": 41, "duration": 522, "velocity": 119}, {"time": 26161, "pitch": 41, "duration": 38, "velocity": 119}, {"time": 26281, "pitch": 41, "duration": 38, "velocity": 118}, {"time": 26400, "pitch": 38, "duration": 561, "velocity": 116}, {"time": 26879, "pitch": 43, "duration": 461, "velocity": 116}, {"time": 27363, "pitch": 36, "duration": 581, "velocity": 106}, {"time": 28080, "pitch": 31, "duration": 51, "velocity": 103}, {"time": 28200, "pitch": 36, "duration": 55, "velocity": 111}, {"time": 28559, "pitch": 38, "duration": 297, "velocity": 111}, {"time": 28678, "pitch": 39, "duration": 102, "velocity": 45}, {"time": 28798, "pitch": 34, "duration": 458, "velocity": 107}, {"time": 29282, "pitch": 32, "duration": 518, "velocity": 107}, {"time": 29999, "pitch": 32, "duration": 45, "velocity": 111}, {"time": 30119, "pitch": 32, "duration": 49, "velocity": 103}, {"time": 30239, "pitch": 34, "duration": 488, "velocity": 106}, {"time": 30723, "pitch": 32, "duration": 484, "velocity": 108}, {"time": 31201, "pitch": 31, "duration": 474, "velocity": 106}, {"time": 31679, "pitch": 35, "duration": 221, "velocity": 116}, {"time": 31919, "pitch": 35, "duration": 40, "velocity": 110}, {"time": 32038, "pitch": 35, "duration": 45, "velocity": 102}, {"time": 32158, "pitch": 36, "duration": 490, "velocity": 108}, {"time": 32642, "pitch": 34, "duration": 462, "velocity": 113}, {"time": 33120, "pitch": 32, "duration": 539, "velocity": 109}, {"time": 33841, "pitch": 32, "duration": 44, "velocity": 109}, {"time": 33962, "pitch": 32, "duration": 67, "velocity": 115}, {"time": 34322, "pitch": 34, "duration": 451, "velocity": 118}, {"time": 34800, "pitch": 29, "duration": 247, "velocity": 113}, {"time": 35039, "pitch": 39, "duration": 519, "velocity": 109}, {"time": 35760, "pitch": 39, "duration": 46, "velocity": 109}, {"time": 35881, "pitch": 39, "duration": 40, "velocity": 95}, {"time": 36002, "pitch": 44, "duration": 355, "velocity": 94}, {"time": 36361, "pitch": 43, "duration": 342, "velocity": 90}, {"time": 36719, "pitch": 41, "duration": 235, "velocity": 116}, {"time": 36959, "pitch": 39, "duration": 530, "velocity": 119}, {"time": 37682, "pitch": 34, "duration": 55, "velocity": 104}, {"time": 37801, "pitch": 39, "duration": 57, "velocity": 118}, {"time": 38160, "pitch": 39, "duration": 365, "velocity": 115}, {"time": 38639, "pitch": 39, "duration": 76, "velocity": 116}, {"time": 38758, "pitch": 41, "duration": 39, "velocity": 113}, {"time": 38878, "pitch": 43, "duration": 703, "velocity": 116}, {"time": 39601, "pitch": 38, "duration": 137, "velocity": 103}, {"time": 39721, "pitch": 43, "duration": 55, "velocity": 121}, {"time": 40079, "pitch": 43, "duration": 270, "velocity": 126}, {"time": 40319, "pitch": 42, "duration": 456, "velocity": 112}, {"time": 40803, "pitch": 41, "duration": 558, "velocity": 122}, {"time": 41520, "pitch": 41, "duration": 33, "velocity": 115}, {"time": 41640, "pitch": 41, "duration": 45, "velocity": 116}, {"time": 41759, "pitch": 38, "duration": 467, "velocity": 112}, {"time": 42238, "pitch": 43, "duration": 473, "velocity": 116}, {"time": 42722, "pitch": 36, "duration": 596, "velocity": 108}, {"time": 43439, "pitch": 31, "duration": 52, "velocity": 102}, {"time": 43559, "pitch": 36, "duration": 340, "velocity": 113}, {"time": 43921, "pitch": 38, "duration": 211, "velocity": 104}, {"time": 44042, "pitch": 39, "duration": 110, "velocity": 80}, {"time": 44163, "pitch": 34, "duration": 460, "velocity": 106}, {"time": 44641, "pitch": 32, "duration": 506, "velocity": 109}, {"time": 45359, "pitch": 32, "duration": 42, "velocity": 107}, {"time": 45478, "pitch": 32, "duration": 39, "velocity": 101}, {"time": 45598, "pitch": 34, "duration": 482, "velocity": 97}, {"time": 46082, "pitch": 32, "duration": 482, "velocity": 111}, {"time": 46560, "pitch": 31, "duration": 475, "velocity": 106}, {"time": 47039, "pitch": 35, "duration": 222, "velocity": 116}, {"time": 47281, "pitch": 35, "duration": 41, "velocity": 110}, {"time": 47402, "pitch": 35, "duration": 45, "velocity": 102}, {"time": 47523, "pitch": 36, "duration": 484, "velocity": 108}, {"time": 48001, "pitch": 34, "duration": 462, "velocity": 113}, {"time": 48479, "pitch": 32, "duration": 506, "velocity": 109}, {"time": 49200, "pitch": 32, "duration": 43, "velocity": 108}, {"time": 49321, "pitch": 32, "duration": 73, "velocity": 111}, {"time": 49681, "pitch": 34, "duration": 453, "velocity": 112}, {"time": 50159, "pitch": 29, "duration": 234, "velocity": 115}, {"time": 50399, "pitch": 39, "duration": 554, "velocity": 113}, {"time": 51122, "pitch": 34, "duration": 52, "velocity": 106}, {"time": 51241, "pitch": 39, "duration": 53, "velocity": 118}, {"time": 51600, "pitch": 39, "duration": 474, "velocity": 127}, {"time": 52079, "pitch": 34, "duration": 207, "velocity": 113}, {"time": 52318, "pitch": 39, "duration": 616, "velocity": 122}, {"time": 53041, "pitch": 34, "duration": 58, "velocity": 107}, {"time": 53161, "pitch": 39, "duration": 102, "velocity": 119}, {"time": 53519, "pitch": 41, "duration": 481, "velocity": 127}, {"time": 54001, "pitch": 36, "duration": 240, "velocity": 109}, {"time": 54243, "pitch": 43, "duration": 616, "velocity": 123}, {"time": 54960, "pitch": 38, "duration": 130, "velocity": 101}, {"time": 55080, "pitch": 43, "duration": 35, "velocity": 111}, {"time": 55199, "pitch": 36, "duration": 259, "velocity": 108}, {"time": 55439, "pitch": 38, "duration": 138, "velocity": 109}, {"time": 55558, "pitch": 39, "duration": 123, "velocity": 95}, {"time": 55678, "pitch": 34, "duration": 469, "velocity": 111}, {"time": 56162, "pitch": 32, "duration": 511, "velocity": 112}, {"time": 56879, "pitch": 32, "duration": 46, "velocity": 111}, {"time": 56999, "pitch": 32, "duration": 77, "velocity": 113}, {"time": 57119, "pitch": 34, "duration": 480, "velocity": 116}, {"time": 57603, "pitch": 32, "duration": 443, "velocity": 113}, {"time": 58081, "pitch": 31, "duration": 521, "velocity": 113}, {"time": 58559, "pitch": 35, "duration": 236, "velocity": 113}, {"time": 58799, "pitch": 31, "duration": 43, "velocity": 112}, {"time": 58918, "pitch": 31, "duration": 39, "velocity": 97}, {"time": 59038, "pitch": 36, "duration": 482, "velocity": 116}, {"time": 59522, "pitch": 34, "duration": 473, "velocity": 115}, {"time": 60000, "pitch": 32, "duration": 532, "velocity": 107}, {"time": 60721, "pitch": 32, "duration": 45, "velocity": 108}, {"time": 60842, "pitch": 32, "duration": 60, "velocity": 113}, {"time": 61202, "pitch": 32, "duration": 487, "velocity": 113}, {"time": 61680, "pitch": 27, "duration": 249, "velocity": 104}, {"time": 61919, "pitch": 34, "duration": 546, "velocity": 102}, {"time": 62640, "pitch": 34, "duration": 48, "velocity": 116}, {"time": 62761, "pitch": 34, "duration": 56, "velocity": 113}, {"time": 63121, "pitch": 34, "duration": 659, "velocity": 119}, {"time": 63839, "pitch": 39, "duration": 541, "velocity": 109}, {"time": 64562, "pitch": 39, "duration": 39, "velocity": 121}, {"time": 64681, "pitch": 39, "duration": 50, "velocity": 108}, {"time": 65040, "pitch": 39, "duration": 453, "velocity": 122}, {"time": 65519, "pitch": 34, "duration": 238, "velocity": 108}, {"time": 65758, "pitch": 39, "duration": 573, "velocity": 119}, {"time": 66481, "pitch": 39, "duration": 43, "velocity": 113}, {"time": 66601, "pitch": 39, "duration": 52, "velocity": 116}, {"time": 66959, "pitch": 39, "duration": 470, "velocity": 125}, {"time": 67441, "pitch": 34, "duration": 236, "velocity": 108}, {"time": 67683, "pitch": 39, "duration": 667, "velocity": 119}, {"time": 68400, "pitch": 39, "duration": 39, "velocity": 111}, {"time": 68520, "pitch": 39, "duration": 50, "velocity": 118}, {"time": 68879, "pitch": 39, "duration": 465, "velocity": 116}, {"time": 69360, "pitch": 34, "duration": 237, "velocity": 106}, {"time": 69602, "pitch": 39, "duration": 685, "velocity": 116}, {"time": 70319, "pitch": 39, "duration": 40, "velocity": 106}, {"time": 70439, "pitch": 39, "duration": 54, "velocity": 121}, {"time": 70801, "pitch": 39, "duration": 474, "velocity": 123}, {"time": 71282, "pitch": 34, "duration": 232, "velocity": 107}, {"time": 71521, "pitch": 39, "duration": 614, "velocity": 118}, {"time": 72239, "pitch": 34, "duration": 52, "velocity": 107}, {"time": 72358, "pitch": 39, "duration": 55, "velocity": 118}, {"time": 72720, "pitch": 39, "duration": 405, "velocity": 121}, {"time": 73201, "pitch": 39, "duration": 51, "velocity": 108}, {"time": 73321, "pitch": 41, "duration": 46, "velocity": 115}, {"time": 73440, "pitch": 43, "duration": 730, "velocity": 118}, {"time": 74161, "pitch": 38, "duration": 73, "velocity": 104}, {"time": 74282, "pitch": 43, "duration": 56, "velocity": 121}, {"time": 74642, "pitch": 43, "duration": 258, "velocity": 126}, {"time": 74881, "pitch": 42, "duration": 474, "velocity": 110}, {"time": 75359, "pitch": 41, "duration": 527, "velocity": 119}, {"time": 76080, "pitch": 41, "duration": 48, "velocity": 115}, {"time": 76201, "pitch": 41, "duration": 51, "velocity": 103}, {"time": 76322, "pitch": 38, "duration": 541, "velocity": 108}, {"time": 76800, "pitch": 43, "duration": 476, "velocity": 118}, {"time": 77279, "pitch": 36, "duration": 572, "velocity": 108}, {"time": 78002, "pitch": 31, "duration": 51, "velocity": 102}, {"time": 78121, "pitch": 36, "duration": 77, "velocity": 111}, {"time": 78480, "pitch": 38, "duration": 141, "velocity": 112}, {"time": 78600, "pitch": 39, "duration": 118, "velocity": 76}, {"time": 78719, "pitch": 34, "duration": 456, "velocity": 109}, {"time": 79198, "pitch": 32, "duration": 518, "velocity": 109}, {"time": 79921, "pitch": 32, "duration": 40, "velocity": 111}, {"time": 80041, "pitch": 32, "duration": 48, "velocity": 96}, {"time": 80160, "pitch": 34, "duration": 479, "velocity": 109}, {"time": 80639, "pitch": 32, "duration": 479, "velocity": 112}, {"time": 81122, "pitch": 31, "duration": 475, "velocity": 106}, {"time": 81601, "pitch": 35, "duration": 220, "velocity": 116}, {"time": 81840, "pitch": 35, "duration": 41, "velocity": 110}, {"time": 81960, "pitch": 35, "duration": 45, "velocity": 102}, {"time": 82079, "pitch": 36, "duration": 485, "velocity": 108}, {"time": 82558, "pitch": 34, "duration": 468, "velocity": 113}, {"time": 83042, "pitch": 32, "duration": 498, "velocity": 104}, {"time": 83759, "pitch": 32, "duration": 45, "velocity": 109}, {"time": 83879, "pitch": 32, "duration": 37, "velocity": 101}, {"time": 83999, "pitch": 34, "duration": 540, "velocity": 111}, {"time": 84722, "pitch": 34, "duration": 212, "velocity": 115}, {"time": 84961, "pitch": 39, "duration": 607, "velocity": 115}, {"time": 85679, "pitch": 34, "duration": 51, "velocity": 99}, {"time": 85798, "pitch": 39, "duration": 153, "velocity": 115}, {"time": 86160, "pitch": 37, "duration": 295, "velocity": 127}, {"time": 86641, "pitch": 37, "duration": 248, "velocity": 127}, {"time": 86880, "pitch": 32, "duration": 508, "velocity": 115}, {"time": 87600, "pitch": 32, "duration": 50, "velocity": 115}, {"time": 87722, "pitch": 32, "duration": 53, "velocity": 113}, {"time": 88082, "pitch": 32, "duration": 260, "velocity": 109}, {"time": 88440, "pitch": 32, "duration": 82, "velocity": 98}, {"time": 88560, "pitch": 44, "duration": 79, "velocity": 113}, {"time": 88680, "pitch": 32, "duration": 52, "velocity": 109}, {"time": 88799, "pitch": 32, "duration": 559, "velocity": 111}, {"time": 89520, "pitch": 32, "duration": 44, "velocity": 109}, {"time": 89641, "pitch": 32, "duration": 49, "velocity": 122}, {"time": 90001, "pitch": 32, "duration": 265, "velocity": 126}, {"time": 90360, "pitch": 32, "duration": 96, "velocity": 98}, {"time": 90479, "pitch": 44, "duration": 117, "velocity": 99}, {"time": 90599, "pitch": 32, "duration": 41, "velocity": 102}, {"time": 90718, "pitch": 31, "duration": 523, "velocity": 113}, {"time": 91442, "pitch": 31, "duration": 47, "velocity": 115}, {"time": 91561, "pitch": 31, "duration": 47, "velocity": 111}, {"time": 91920, "pitch": 31, "duration": 227, "velocity": 116}, {"time": 92279, "pitch": 31, "duration": 118, "velocity": 103}, {"time": 92398, "pitch": 43, "duration": 144, "velocity": 103}, {"time": 92518, "pitch": 31, "duration": 56, "velocity": 95}, {"time": 92638, "pitch": 36, "duration": 536, "velocity": 112}, {"time": 93361, "pitch": 36, "duration": 46, "velocity": 109}, {"time": 93480, "pitch": 36, "duration": 119, "velocity": 118}, {"time": 93720, "pitch": 36, "duration": 109, "velocity": 108}, {"time": 93839, "pitch": 38, "duration": 157, "velocity": 102}, {"time": 93959, "pitch": 39, "duration": 106, "velocity": 86}, {"time": 94078, "pitch": 34, "duration": 508, "velocity": 112}, {"time": 94562, "pitch": 32, "duration": 492, "velocity": 107}, {"time": 95280, "pitch": 32, "duration": 48, "velocity": 111}, {"time": 95400, "pitch": 32, "duration": 51, "velocity": 112}, {"time": 95758, "pitch": 32, "duration": 263, "velocity": 112}, {"time": 96119, "pitch": 32, "duration": 72, "velocity": 106}, {"time": 96240, "pitch": 44, "duration": 81, "velocity": 113}, {"time": 96361, "pitch": 32, "duration": 49, "velocity": 107}, {"time": 96482, "pitch": 32, "duration": 552, "velocity": 111}, {"time": 97199, "pitch": 32, "duration": 43, "velocity": 111}, {"time": 97319, "pitch": 32, "duration": 42, "velocity": 119}, {"time": 97680, "pitch": 32, "duration": 259, "velocity": 113}, {"time": 98042, "pitch": 32, "duration": 110, "velocity": 102}, {"time": 98162, "pitch": 44, "duration": 110, "velocity": 107}, {"time": 98281, "pitch": 32, "duration": 39, "velocity": 96}, {"time": 98401, "pitch": 31, "duration": 520, "velocity": 115}, {"time": 99118, "pitch": 31, "duration": 37, "velocity": 113}, {"time": 99238, "pitch": 31, "duration": 40, "velocity": 113}, {"time": 99600, "pitch": 31, "duration": 244, "velocity": 113}, {"time": 99961, "pitch": 31, "duration": 99, "velocity": 103}, {"time": 100081, "pitch": 43, "duration": 165, "velocity": 104}, {"time": 100200, "pitch": 31, "duration": 64, "velocity": 90}, {"time": 100320, "pitch": 36, "duration": 531, "velocity": 111}, {"time": 101040, "pitch": 36, "duration": 38, "velocity": 109}, {"time": 101161, "pitch": 36, "duration": 55, "velocity": 113}, {"time": 101522, "pitch": 38, "duration": 202, "velocity": 109}, {"time": 101641, "pitch": 39, "duration": 122, "velocity": 71}, {"time": 101761, "pitch": 34, "duration": 450, "velocity": 102}, {"time": 102239, "pitch": 32, "duration": 525, "velocity": 108}, {"time": 102960, "pitch": 32, "duration": 40, "velocity": 108}, {"time": 103081, "pitch": 32, "duration": 49, "velocity": 121}, {"time": 103441, "pitch": 32, "duration": 684, "velocity": 122}, {"time": 104158, "pitch": 34, "duration": 532, "velocity": 116}, {"time": 104882, "pitch": 34, "duration": 48, "velocity": 115}, {"time": 105001, "pitch": 34, "duration": 50, "velocity": 116}, {"time": 105360, "pitch": 34, "duration": 718, "velocity": 116}, {"time": 106078, "pitch": 39, "duration": 569, "velocity": 119}, {"time": 106801, "pitch": 34, "duration": 51, "velocity": 107}, {"time": 106920, "pitch": 39, "duration": 49, "velocity": 119}, {"time": 107279, "pitch": 41, "duration": 469, "velocity": 127}, {"time": 107760, "pitch": 36, "duration": 245, "velocity": 111}, {"time": 108002, "pitch": 43, "duration": 545, "velocity": 116}, {"time": 108720, "pitch": 38, "duration": 135, "velocity": 104}, {"time": 108840, "pitch": 43, "duration": 34, "velocity": 96}, {"time": 108959, "pitch": 36, "duration": 237, "velocity": 109}, {"time": 109198, "pitch": 38, "duration": 210, "velocity": 102}, {"time": 109318, "pitch": 39, "duration": 128, "velocity": 81}, {"time": 109438, "pitch": 34, "duration": 459, "velocity": 112}, {"time": 109922, "pitch": 32, "duration": 529, "velocity": 109}, {"time": 110639, "pitch": 32, "duration": 43, "velocity": 107}, {"time": 110759, "pitch": 32, "duration": 57, "velocity": 113}, {"time": 110878, "pitch": 34, "duration": 477, "velocity": 116}, {"time": 111362, "pitch": 32, "duration": 469, "velocity": 116}, {"time": 111841, "pitch": 31, "duration": 509, "velocity": 107}, {"time": 112319, "pitch": 35, "duration": 235, "velocity": 107}, {"time": 112558, "pitch": 31, "duration": 43, "velocity": 116}, {"time": 112678, "pitch": 31, "duration": 42, "velocity": 102}, {"time": 112798, "pitch": 36, "duration": 491, "velocity": 112}, {"time": 113282, "pitch": 34, "duration": 452, "velocity": 113}, {"time": 113760, "pitch": 32, "duration": 523, "velocity": 108}, {"time": 114480, "pitch": 32, "duration": 41, "velocity": 109}, {"time": 114601, "pitch": 32, "duration": 54, "velocity": 106}, {"time": 114962, "pitch": 32, "duration": 674, "velocity": 115}, {"time": 115679, "pitch": 34, "duration": 535, "velocity": 115}, {"time": 116400, "pitch": 34, "duration": 49, "velocity": 111}, {"time": 116521, "pitch": 34, "duration": 49, "velocity": 115}, {"time": 116881, "pitch": 34, "duration": 460, "velocity": 116}, {"time": 117359, "pitch": 29, "duration": 220, "velocity": 112}, {"time": 117598, "pitch": 39, "duration": 699, "velocity": 98}, {"time": 118441, "pitch": 39, "duration": 42, "velocity": 95}, {"time": 118561, "pitch": 41, "duration": 56, "velocity": 119}, {"time": 118800, "pitch": 41, "duration": 464, "velocity": 126}, {"time": 119278, "pitch": 36, "duration": 231, "velocity": 101}, {"time": 119518, "pitch": 43, "duration": 532, "velocity": 118}, {"time": 120241, "pitch": 43, "duration": 37, "velocity": 116}, {"time": 120360, "pitch": 43, "duration": 49, "velocity": 104}, {"time": 120480, "pitch": 36, "duration": 233, "velocity": 107}, {"time": 120719, "pitch": 38, "duration": 152, "velocity": 104}, {"time": 120839, "pitch": 39, "duration": 125, "velocity": 86}, {"time": 120958, "pitch": 34, "duration": 453, "velocity": 111}, {"time": 121442, "pitch": 32, "duration": 524, "velocity": 109}, {"time": 122160, "pitch": 32, "duration": 47, "velocity": 108}, {"time": 122280, "pitch": 32, "duration": 49, "velocity": 115}, {"time": 122638, "pitch": 32, "duration": 404, "velocity": 113}, {"time": 123120, "pitch": 32, "duration": 247, "velocity": 111}, {"time": 123362, "pitch": 31, "duration": 509, "velocity": 113}, {"time": 124079, "pitch": 31, "duration": 38, "velocity": 104}, {"time": 124199, "pitch": 31, "duration": 20, "velocity": 94}, {"time": 124318, "pitch": 36, "duration": 468, "velocity": 109}, {"time": 124802, "pitch": 34, "duration": 482, "velocity": 111}, {"time": 125281, "pitch": 32, "duration": 542, "velocity": 109}, {"time": 125998, "pitch": 32, "duration": 42, "velocity": 106}, {"time": 126118, "pitch": 32, "duration": 51, "velocity": 115}, {"time": 126480, "pitch": 32, "duration": 478, "velocity": 116}, {"time": 126961, "pitch": 27, "duration": 208, "velocity": 99}, {"time": 127200, "pitch": 34, "duration": 538, "velocity": 115}, {"time": 127920, "pitch": 34, "duration": 50, "velocity": 112}, {"time": 128041, "pitch": 34, "duration": 55, "velocity": 118}, {"time": 128402, "pitch": 34, "duration": 491, "velocity": 113}, {"time": 128880, "pitch": 29, "duration": 217, "velocity": 111}, {"time": 129119, "pitch": 39, "duration": 492, "velocity": 125}, {"time": 129840, "pitch": 39, "duration": 45, "velocity": 118}, {"time": 129961, "pitch": 39, "duration": 50, "velocity": 115}, {"time": 130321, "pitch": 39, "duration": 488, "velocity": 116}, {"time": 130799, "pitch": 34, "duration": 214, "velocity": 108}, {"time": 131038, "pitch": 39, "duration": 502, "velocity": 118}, {"time": 131762, "pitch": 39, "duration": 43, "velocity": 122}, {"time": 131881, "pitch": 39, "duration": 46, "velocity": 113}, {"time": 132240, "pitch": 39, "duration": 480, "velocity": 125}, {"time": 132718, "pitch": 34, "duration": 234, "velocity": 108}, {"time": 132958, "pitch": 39, "duration": 528, "velocity": 116}, {"time": 133681, "pitch": 39, "duration": 39, "velocity": 121}, {"time": 133800, "pitch": 39, "duration": 48, "velocity": 122}, {"time": 134159, "pitch": 39, "duration": 481, "velocity": 126}, {"time": 134640, "pitch": 34, "duration": 246, "velocity": 107}, {"time": 134882, "pitch": 39, "duration": 638, "velocity": 119}, {"time": 135600, "pitch": 39, "duration": 42, "velocity": 116}, {"time": 135720, "pitch": 39, "duration": 48, "velocity": 122}, {"time": 136078, "pitch": 39, "duration": 457, "velocity": 116}, {"time": 136560, "pitch": 34, "duration": 280, "velocity": 96}, {"time": 136802, "pitch": 39, "duration": 648, "velocity": 118}, {"time": 137519, "pitch": 39, "duration": 46, "velocity": 107}, {"time": 137639, "pitch": 39, "duration": 46, "velocity": 122}, {"time": 138000, "pitch": 39, "duration": 474, "velocity": 119}, {"time": 138482, "pitch": 34, "duration": 235, "velocity": 109}, {"time": 138721, "pitch": 39, "duration": 653, "velocity": 115}, {"time": 139438, "pitch": 39, "duration": 39, "velocity": 101}, {"time": 139558, "pitch": 39, "duration": 49, "velocity": 119}, {"time": 139920, "pitch": 39, "duration": 473, "velocity": 119}, {"time": 140401, "pitch": 34, "duration": 255, "velocity": 111}, {"time": 140640, "pitch": 39, "duration": 3822, "velocity": 123}], "annotations": [{"time": 207, "annotation": {"number": 7, "value": 100}, "group": "control_change"}, {"time": 216, "annotation": {"number": 11, "value": 120}, "group": "control_change"}, {"time": 226, "annotation": {"number": 10, "value": 64}, "group": "control_change"}, {"time": 235, "annotation": {"number": 91, "value": 50}, "group": "control_change"}, {"time": 244, "annotation": {"number": 93, "value": 0}, "group": "control_change"}, {"time": 254, "annotation": {"number": 101, "value": 0}, "group": "control_change"}, {"time": 263, "annotation": {"number": 100, "value": 0}, "group": "control_change"}, {"time": 273, "annotation": {"number": 6, "value": 12}, "group": "control_change"}, {"time": 282, "annotation": {"number": 101, "value": 127}, "group": "control_change"}, {"time": 291, "annotation": {"number": 100, "value": 127}, "group": "control_change"}]}, {"program": 0, "is_drum": false, "name": "STRINGS", "annotations": [{"time": 179, "annotation": {"number": 0, "value": 0}, "group": "control_change"}, {"time": 188, "annotation": {"number": 32, "value": 2}, "group": "control_change"}]}, {"program": 48, "is_drum": false, "name": "STRINGS", "notes": [{"time": 480, "pitch": 91, "duration": 999, "velocity": 52}, {"time": 1440, "pitch": 92, "duration": 979, "velocity": 52}, {"time": 2400, "pitch": 94, "duration": 956, "velocity": 57}, {"time": 3360, "pitch": 96, "duration": 1933, "velocity": 60}, {"time": 5279, "pitch": 94, "duration": 1421, "velocity": 51}, {"time": 6719, "pitch": 95, "duration": 488, "velocity": 60}, {"time": 7199, "pitch": 96, "duration": 2954, "velocity": 65}, {"time": 10079, "pitch": 94, "duration": 3773, "velocity": 60}, {"time": 13923, "pitch": 94, "duration": 6737, "velocity": 82}, {"time": 20643, "pitch": 92, "duration": 354, "velocity": 89}, {"time": 21001, "pitch": 91, "duration": 355, "velocity": 82}, {"time": 21360, "pitch": 89, "duration": 235, "velocity": 80}, {"time": 21599, "pitch": 87, "duration": 1918, "velocity": 76}, {"time": 23519, "pitch": 86, "duration": 958, "velocity": 66}, {"time": 24481, "pitch": 91, "duration": 495, "velocity": 79}, {"time": 24481, "pitch": 94, "duration": 471, "velocity": 101}, {"time": 24959, "pitch": 90, "duration": 471, "velocity": 82}, {"time": 24959, "pitch": 93, "duration": 480, "velocity": 98}, {"time": 25438, "pitch": 89, "duration": 1921, "velocity": 78}, {"time": 25438, "pitch": 92, "duration": 976, "velocity": 95}, {"time": 26400, "pitch": 86, "duration": 509, "velocity": 89}, {"time": 26879, "pitch": 92, "duration": 480, "velocity": 88}, {"time": 27363, "pitch": 84, "duration": 1214, "velocity": 78}, {"time": 27363, "pitch": 87, "duration": 1214, "velocity": 78}, {"time": 28559, "pitch": 86, "duration": 138, "velocity": 96}, {"time": 28678, "pitch": 87, "duration": 141, "velocity": 95}, {"time": 28798, "pitch": 82, "duration": 448, "velocity": 95}, {"time": 29282, "pitch": 80, "duration": 1940, "velocity": 75}, {"time": 31201, "pitch": 79, "duration": 1940, "velocity": 62}, {"time": 33120, "pitch": 80, "duration": 959, "velocity": 80}, {"time": 34083, "pitch": 82, "duration": 952, "velocity": 91}, {"time": 35039, "pitch": 87, "duration": 981, "velocity": 83}, {"time": 36002, "pitch": 92, "duration": 347, "velocity": 97}, {"time": 36361, "pitch": 91, "duration": 376, "velocity": 97}, {"time": 36719, "pitch": 89, "duration": 271, "velocity": 85}, {"time": 36959, "pitch": 87, "duration": 1910, "velocity": 80}, {"time": 38878, "pitch": 86, "duration": 953, "velocity": 75}, {"time": 39840, "pitch": 91, "duration": 496, "velocity": 79}, {"time": 39840, "pitch": 94, "duration": 472, "velocity": 101}, {"time": 40319, "pitch": 90, "duration": 475, "velocity": 82}, {"time": 40319, "pitch": 93, "duration": 485, "velocity": 98}, {"time": 40803, "pitch": 89, "duration": 1915, "velocity": 78}, {"time": 40803, "pitch": 92, "duration": 970, "velocity": 95}, {"time": 41759, "pitch": 86, "duration": 509, "velocity": 89}, {"time": 42238, "pitch": 92, "duration": 480, "velocity": 88}, {"time": 42722, "pitch": 84, "duration": 1218, "velocity": 78}, {"time": 42722, "pitch": 87, "duration": 1218, "velocity": 78}, {"time": 43921, "pitch": 86, "duration": 140, "velocity": 96}, {"time": 44042, "pitch": 87, "duration": 141, "velocity": 95}, {"time": 44163, "pitch": 82, "duration": 443, "velocity": 95}, {"time": 44641, "pitch": 80, "duration": 1940, "velocity": 75}, {"time": 46560, "pitch": 79, "duration": 1940, "velocity": 62}, {"time": 48479, "pitch": 80, "duration": 959, "velocity": 65}, {"time": 49442, "pitch": 82, "duration": 953, "velocity": 78}, {"time": 50399, "pitch": 87, "duration": 914, "velocity": 83}, {"time": 51317, "pitch": 82, "duration": 125, "velocity": 80}, {"time": 51366, "pitch": 84, "duration": 117, "velocity": 85}, {"time": 51407, "pitch": 86, "duration": 139, "velocity": 90}, {"time": 51471, "pitch": 87, "duration": 118, "velocity": 95}, {"time": 51513, "pitch": 89, "duration": 128, "velocity": 100}, {"time": 51565, "pitch": 84, "duration": 125, "velocity": 82}, {"time": 51614, "pitch": 86, "duration": 128, "velocity": 87}, {"time": 51666, "pitch": 87, "duration": 137, "velocity": 92}, {"time": 51728, "pitch": 89, "duration": 110, "velocity": 97}, {"time": 51763, "pitch": 91, "duration": 119, "velocity": 102}, {"time": 51806, "pitch": 86, "duration": 135, "velocity": 84}, {"time": 51865, "pitch": 87, "duration": 117, "velocity": 94}, {"time": 51906, "pitch": 89, "duration": 135, "velocity": 99}, {"time": 51965, "pitch": 91, "duration": 126, "velocity": 104}, {"time": 52016, "pitch": 92, "duration": 115, "velocity": 86}, {"time": 52056, "pitch": 87, "duration": 125, "velocity": 90}, {"time": 52105, "pitch": 86, "duration": 128, "velocity": 97}, {"time": 52152, "pitch": 89, "duration": 126, "velocity": 100}, {"time": 52190, "pitch": 91, "duration": 127, "velocity": 104}, {"time": 52248, "pitch": 92, "duration": 146, "velocity": 110}, {"time": 52318, "pitch": 94, "duration": 1475, "velocity": 110}, {"time": 53759, "pitch": 99, "duration": 268, "velocity": 102}, {"time": 54001, "pitch": 98, "duration": 267, "velocity": 90}, {"time": 54243, "pitch": 94, "duration": 1424, "velocity": 94}, {"time": 55678, "pitch": 99, "duration": 267, "velocity": 89}, {"time": 55920, "pitch": 98, "duration": 270, "velocity": 84}, {"time": 56162, "pitch": 96, "duration": 958, "velocity": 88}, {"time": 57119, "pitch": 98, "duration": 1939, "velocity": 77}, {"time": 59038, "pitch": 101, "duration": 486, "velocity": 84}, {"time": 59522, "pitch": 99, "duration": 486, "velocity": 88}, {"time": 60000, "pitch": 103, "duration": 1907, "velocity": 82}, {"time": 61919, "pitch": 101, "duration": 1947, "velocity": 80}, {"time": 63839, "pitch": 94, "duration": 6742, "velocity": 83}, {"time": 70559, "pitch": 92, "duration": 375, "velocity": 89}, {"time": 70922, "pitch": 91, "duration": 354, "velocity": 86}, {"time": 71282, "pitch": 89, "duration": 272, "velocity": 84}, {"time": 71521, "pitch": 87, "duration": 1917, "velocity": 76}, {"time": 73440, "pitch": 86, "duration": 958, "velocity": 66}, {"time": 74402, "pitch": 91, "duration": 496, "velocity": 79}, {"time": 74402, "pitch": 94, "duration": 472, "velocity": 101}, {"time": 74881, "pitch": 90, "duration": 470, "velocity": 82}, {"time": 74881, "pitch": 93, "duration": 479, "velocity": 98}, {"time": 75359, "pitch": 89, "duration": 1916, "velocity": 78}, {"time": 75359, "pitch": 92, "duration": 977, "velocity": 95}, {"time": 76322, "pitch": 86, "duration": 508, "velocity": 89}, {"time": 76800, "pitch": 92, "duration": 475, "velocity": 88}, {"time": 77279, "pitch": 84, "duration": 1220, "velocity": 78}, {"time": 77279, "pitch": 87, "duration": 1220, "velocity": 78}, {"time": 78480, "pitch": 86, "duration": 139, "velocity": 96}, {"time": 78600, "pitch": 87, "duration": 140, "velocity": 95}, {"time": 78719, "pitch": 82, "duration": 444, "velocity": 95}, {"time": 79198, "pitch": 80, "duration": 1945, "velocity": 75}, {"time": 81122, "pitch": 79, "duration": 1941, "velocity": 62}, {"time": 83042, "pitch": 80, "duration": 953, "velocity": 78}, {"time": 83999, "pitch": 82, "duration": 958, "velocity": 91}, {"time": 84961, "pitch": 87, "duration": 960, "velocity": 79}, {"time": 85918, "pitch": 85, "duration": 490, "velocity": 85}, {"time": 86402, "pitch": 87, "duration": 261, "velocity": 85}, {"time": 86641, "pitch": 85, "duration": 226, "velocity": 85}, {"time": 86880, "pitch": 84, "duration": 1475, "velocity": 85}, {"time": 88321, "pitch": 86, "duration": 243, "velocity": 85}, {"time": 88560, "pitch": 87, "duration": 276, "velocity": 85}, {"time": 88799, "pitch": 86, "duration": 1452, "velocity": 85}, {"time": 90240, "pitch": 87, "duration": 266, "velocity": 85}, {"time": 90479, "pitch": 89, "duration": 238, "velocity": 85}, {"time": 90718, "pitch": 86, "duration": 995, "velocity": 85}, {"time": 91681, "pitch": 87, "duration": 477, "velocity": 85}, {"time": 92159, "pitch": 89, "duration": 504, "velocity": 85}, {"time": 92638, "pitch": 91, "duration": 3372, "velocity": 85}, {"time": 95975, "pitch": 94, "duration": 52, "velocity": 73}, {"time": 95998, "pitch": 96, "duration": 494, "velocity": 85}, {"time": 96482, "pitch": 94, "duration": 1931, "velocity": 85}, {"time": 98401, "pitch": 95, "duration": 938, "velocity": 77}, {"time": 99358, "pitch": 96, "duration": 532, "velocity": 85}, {"time": 99842, "pitch": 98, "duration": 505, "velocity": 85}, {"time": 100320, "pitch": 96, "duration": 1450, "velocity": 83}, {"time": 101761, "pitch": 94, "duration": 539, "velocity": 85}, {"time": 102239, "pitch": 96, "duration": 1895, "velocity": 71}, {"time": 104158, "pitch": 94, "duration": 959, "velocity": 83}, {"time": 105095, "pitch": 82, "duration": 125, "velocity": 80}, {"time": 105146, "pitch": 84, "duration": 105, "velocity": 90}, {"time": 105178, "pitch": 86, "duration": 123, "velocity": 95}, {"time": 105228, "pitch": 87, "duration": 115, "velocity": 100}, {"time": 105269, "pitch": 89, "duration": 147, "velocity": 104}, {"time": 105342, "pitch": 84, "duration": 122, "velocity": 85}, {"time": 105390, "pitch": 86, "duration": 118, "velocity": 95}, {"time": 105434, "pitch": 87, "duration": 146, "velocity": 99}, {"time": 105507, "pitch": 89, "duration": 112, "velocity": 100}, {"time": 105545, "pitch": 91, "duration": 112, "velocity": 102}, {"time": 105583, "pitch": 86, "duration": 119, "velocity": 95}, {"time": 105628, "pitch": 87, "duration": 108, "velocity": 99}, {"time": 105662, "pitch": 89, "duration": 116, "velocity": 102}, {"time": 105704, "pitch": 91, "duration": 131, "velocity": 103}, {"time": 105762, "pitch": 92, "duration": 131, "velocity": 104}, {"time": 105831, "pitch": 86, "duration": 105, "velocity": 100}, {"time": 105868, "pitch": 87, "duration": 106, "velocity": 102}, {"time": 105901, "pitch": 89, "duration": 116, "velocity": 103}, {"time": 105964, "pitch": 91, "duration": 143, "velocity": 108}, {"time": 106023, "pitch": 92, "duration": 135, "velocity": 110}, {"time": 106078, "pitch": 94, "duration": 1475, "velocity": 110}, {"time": 107518, "pitch": 99, "duration": 269, "velocity": 105}, {"time": 107760, "pitch": 98, "duration": 268, "velocity": 95}, {"time": 108002, "pitch": 94, "duration": 1425, "velocity": 90}, {"time": 109438, "pitch": 99, "duration": 267, "velocity": 89}, {"time": 109680, "pitch": 98, "duration": 270, "velocity": 84}, {"time": 109922, "pitch": 96, "duration": 957, "velocity": 88}, {"time": 110878, "pitch": 98, "duration": 1940, "velocity": 83}, {"time": 112798, "pitch": 101, "duration": 486, "velocity": 84}, {"time": 113282, "pitch": 99, "duration": 486, "velocity": 88}, {"time": 113760, "pitch": 103, "duration": 1907, "velocity": 82}, {"time": 115679, "pitch": 101, "duration": 1947, "velocity": 80}, {"time": 117598, "pitch": 94, "duration": 1475, "velocity": 80}, {"time": 119039, "pitch": 99, "duration": 265, "velocity": 87}, {"time": 119278, "pitch": 98, "duration": 266, "velocity": 75}, {"time": 119518, "pitch": 94, "duration": 1430, "velocity": 75}, {"time": 120958, "pitch": 99, "duration": 268, "velocity": 89}, {"time": 121200, "pitch": 98, "duration": 270, "velocity": 84}, {"time": 121442, "pitch": 96, "duration": 958, "velocity": 88}, {"time": 122399, "pitch": 98, "duration": 1940, "velocity": 77}, {"time": 124318, "pitch": 101, "duration": 486, "velocity": 84}, {"time": 124802, "pitch": 99, "duration": 487, "velocity": 88}, {"time": 125281, "pitch": 103, "duration": 1907, "velocity": 82}, {"time": 127200, "pitch": 101, "duration": 1946, "velocity": 80}, {"time": 129119, "pitch": 94, "duration": 15308, "velocity": 86}], "annotations": [{"time": 207, "annotation": {"number": 7, "value": 60}, "group": "control_change"}, {"time": 216, "annotation": {"number": 11, "value": 120}, "group": "control_change"}, {"time": 226, "annotation": {"number": 10, "value": 64}, "group": "control_change"}, {"time": 235, "annotation": {"number": 91, "value": 50}, "group": "control_change"}, {"time": 244, "annotation": {"number": 93, "value": 0}, "group": "control_change"}, {"time": 254, "annotation": {"number": 101, "value": 0}, "group": "control_change"}, {"time": 263, "annotation": {"number": 100, "value": 0}, "group": "control_change"}, {"time": 273, "annotation": {"number": 6, "value": 12}, "group": "control_change"}, {"time": 282, "annotation": {"number": 101, "value": 127}, "group": "control_change"}, {"time": 291, "annotation": {"number": 100, "value": 127}, "group": "control_change"}, {"time": 139438, "annotation": {"number": 11, "value": 127}, "group": "control_change"}, {"time": 139688, "annotation": {"number": 11, "value": 126}, "group": "control_change"}, {"time": 139814, "annotation": {"number": 11, "value": 125}, "group": "control_change"}, {"time": 139940, "annotation": {"number": 11, "value": 124}, "group": "control_change"}, {"time": 140066, "annotation": {"number": 11, "value": 123}, "group": "control_change"}, {"time": 140192, "annotation": {"number": 11, "value": 122}, "group": "control_change"}, {"time": 140316, "annotation": {"number": 11, "value": 121}, "group": "control_change"}, {"time": 140441, "annotation": {"number": 11, "value": 120}, "group": "control_change"}, {"time": 140565, "annotation": {"number": 11, "value": 119}, "group": "control_change"}, {"time": 140690, "annotation": {"number": 11, "value": 118}, "group": "control_change"}, {"time": 140814, "annotation": {"number": 11, "value": 117}, "group": "control_change"}, {"time": 140939, "annotation": {"number": 11, "value": 116}, "group": "control_change"}, {"time": 141064, "annotation": {"number": 11, "value": 115}, "group": "control_change"}, {"time": 141189, "annotation": {"number": 11, "value": 114}, "group": "control_change"}, {"time": 141315, "annotation": {"number": 11, "value": 113}, "group": "control_change"}, {"time": 141441, "annotation": {"number": 11, "value": 112}, "group": "control_change"}, {"time": 141567, "annotation": {"number": 11, "value": 111}, "group": "control_change"}, {"time": 141692, "annotation": {"number": 11, "value": 110}, "group": "control_change"}, {"time": 141817, "annotation": {"number": 11, "value": 109}, "group": "control_change"}, {"time": 141941, "annotation": {"number": 11, "value": 108}, "group": "control_change"}, {"time": 142066, "annotation": {"number": 11, "value": 107}, "group": "control_change"}, {"time": 142190, "annotation": {"number": 11, "value": 106}, "group": "control_change"}, {"time": 142315, "annotation": {"number": 11, "value": 105}, "group": "control_change"}, {"time": 142320, "annotation": {"number": 11, "value": 104}, "group": "control_change"}, {"time": 142387, "annotation": {"number": 11, "value": 103}, "group": "control_change"}, {"time": 142420, "annotation": {"number": 11, "value": 102}, "group": "control_change"}, {"time": 142454, "annotation": {"number": 11, "value": 101}, "group": "control_change"}, {"time": 142486, "annotation": {"number": 11, "value": 100}, "group": "control_change"}, {"time": 142520, "annotation": {"number": 11, "value": 99}, "group": "control_change"}, {"time": 142553, "annotation": {"number": 11, "value": 98}, "group": "control_change"}, {"time": 142587, "annotation": {"number": 11, "value": 97}, "group": "control_change"}, {"time": 142620, "annotation": {"number": 11, "value": 96}, "group": "control_change"}, {"time": 142654, "annotation": {"number": 11, "value": 95}, "group": "control_change"}, {"time": 142687, "annotation": {"number": 11, "value": 94}, "group": "control_change"}, {"time": 142721, "annotation": {"number": 11, "value": 93}, "group": "control_change"}, {"time": 142754, "annotation": {"number": 11, "value": 92}, "group": "control_change"}, {"time": 142787, "annotation": {"number": 11, "value": 91}, "group": "control_change"}, {"time": 142820, "annotation": {"number": 11, "value": 90}, "group": "control_change"}, {"time": 142854, "annotation": {"number": 11, "value": 89}, "group": "control_change"}, {"time": 142887, "annotation": {"number": 11, "value": 88}, "group": "control_change"}, {"time": 142921, "annotation": {"number": 11, "value": 87}, "group": "control_change"}, {"time": 142954, "annotation": {"number": 11, "value": 86}, "group": "control_change"}, {"time": 142988, "annotation": {"number": 11, "value": 85}, "group": "control_change"}, {"time": 143021, "annotation": {"number": 11, "value": 84}, "group": "control_change"}, {"time": 143055, "annotation": {"number": 11, "value": 83}, "group": "control_change"}, {"time": 143087, "annotation": {"number": 11, "value": 82}, "group": "control_change"}, {"time": 143121, "annotation": {"number": 11, "value": 81}, "group": "control_change"}, {"time": 143154, "annotation": {"number": 11, "value": 80}, "group": "control_change"}, {"time": 143188, "annotation": {"number": 11, "value": 79}, "group": "control_change"}, {"time": 143221, "annotation": {"number": 11, "value": 78}, "group": "control_change"}, {"time": 143255, "annotation": {"number": 11, "value": 77}, "group": "control_change"}, {"time": 143288, "annotation": {"number": 11, "value": 76}, "group": "control_change"}, {"time": 143322, "annotation": {"number": 11, "value": 75}, "group": "control_change"}, {"time": 143355, "annotation": {"number": 11, "value": 74}, "group": "control_change"}, {"time": 143388, "annotation": {"number": 11, "value": 73}, "group": "control_change"}, {"time": 143421, "annotation": {"number": 11, "value": 72}, "group": "control_change"}, {"time": 143455, "annotation": {"number": 11, "value": 71}, "group": "control_change"}, {"time": 143488, "annotation": {"number": 11, "value": 70}, "group": "control_change"}, {"time": 143522, "annotation": {"number": 11, "value": 69}, "group": "control_change"}, {"time": 143555, "annotation": {"number": 11, "value": 68}, "group": "control_change"}, {"time": 143589, "annotation": {"number": 11, "value": 67}, "group": "control_change"}, {"time": 143622, "annotation": {"number": 11, "value": 66}, "group": "control_change"}, {"time": 143656, "annotation": {"number": 11, "value": 65}, "group": "control_change"}, {"time": 143688, "annotation": {"number": 11, "value": 64}, "group": "control_change"}, {"time": 143722, "annotation": {"number": 11, "value": 63}, "group": "control_change"}, {"time": 143725, "annotation": {"number": 11, "value": 62}, "group": "control_change"}, {"time": 143755, "annotation": {"number": 11, "value": 61}, "group": "control_change"}, {"time": 143770, "annotation": {"number": 11, "value": 60}, "group": "control_change"}, {"time": 143785, "annotation": {"number": 11, "value": 59}, "group": "control_change"}, {"time": 143800, "annotation": {"number": 11, "value": 58}, "group": "control_change"}, {"time": 143815, "annotation": {"number": 11, "value": 57}, "group": "control_change"}, {"time": 143830, "annotation": {"number": 11, "value": 56}, "group": "control_change"}, {"time": 143845, "annotation": {"number": 11, "value": 55}, "group": "control_change"}, {"time": 143860, "annotation": {"number": 11, "value": 54}, "group": "control_change"}, {"time": 143875, "annotation": {"number": 11, "value": 53}, "group": "control_change"}, {"time": 143890, "annotation": {"number": 11, "value": 52}, "group": "control_change"}, {"time": 143905, "annotation": {"number": 11, "value": 51}, "group": "control_change"}, {"time": 143920, "annotation": {"number": 11, "value": 50}, "group": "control_change"}, {"time": 143935, "annotation": {"number": 11, "value": 49}, "group": "control_change"}, {"time": 143950, "annotation": {"number": 11, "value": 48}, "group": "control_change"}, {"time": 143965, "annotation": {"number": 11, "value": 47}, "group": "control_change"}, {"time": 143980, "annotation": {"number": 11, "value": 46}, "group": "control_change"}, {"time": 143994, "annotation": {"number": 11, "value": 45}, "group": "control_change"}, {"time": 144009, "annotation": {"number": 11, "value": 44}, "group": "control_change"}, {"time": 144024, "annotation": {"number": 11, "value": 43}, "group": "control_change"}, {"time": 144039, "annotation": {"number": 11, "value": 42}, "group": "control_change"}, {"time": 144054, "annotation": {"number": 11, "value": 41}, "group": "control_change"}, {"time": 144069, "annotation": {"number": 11, "value": 40}, "group": "control_change"}, {"time": 144084, "annotation": {"number": 11, "value": 39}, "group": "control_change"}, {"time": 144099, "annotation": {"number": 11, "value": 38}, "group": "control_change"}, {"time": 144114, "annotation": {"number": 11, "value": 37}, "group": "control_change"}, {"time": 144129, "annotation": {"number": 11, "value": 36}, "group": "control_change"}, {"time": 144144, "annotation": {"number": 11, "value": 35}, "group": "control_change"}, {"time": 144159, "annotation": {"number": 11, "value": 34}, "group": "control_change"}, {"time": 144174, "annotation": {"number": 11, "value": 33}, "group": "control_change"}, {"time": 144189, "annotation": {"number": 11, "value": 32}, "group": "control_change"}, {"time": 144204, "annotation": {"number": 11, "value": 31}, "group": "control_change"}, {"time": 144234, "annotation": {"number": 11, "value": 30}, "group": "control_change"}, {"time": 144249, "annotation": {"number": 11, "value": 29}, "group": "control_change"}, {"time": 144264, "annotation": {"number": 11, "value": 54}, "group": "control_change"}, {"time": 144279, "annotation": {"number": 11, "value": 27}, "group": "control_change"}, {"time": 144293, "annotation": {"number": 11, "value": 26}, "group": "control_change"}, {"time": 144308, "annotation": {"number": 11, "value": 25}, "group": "control_change"}, {"time": 144323, "annotation": {"number": 11, "value": 24}, "group": "control_change"}, {"time": 144338, "annotation": {"number": 11, "value": 23}, "group": "control_change"}, {"time": 144353, "annotation": {"number": 11, "value": 22}, "group": "control_change"}, {"time": 144368, "annotation": {"number": 11, "value": 21}, "group": "control_change"}, {"time": 144383, "annotation": {"number": 11, "value": 20}, "group": "control_change"}, {"time": 144398, "annotation": {"number": 11, "value": 19}, "group": "control_change"}, {"time": 144413, "annotation": {"number": 11, "value": 18}, "group": "control_change"}, {"time": 144428, "annotation": {"number": 11, "value": 17}, "group": "control_change"}, {"time": 144443, "annotation": {"number": 11, "value": 16}, "group": "control_change"}, {"time": 144458, "annotation": {"number": 11, "value": 15}, "group": "control_change"}, {"time": 144473, "annotation": {"number": 11, "value": 14}, "group": "control_change"}, {"time": 144488, "annotation": {"number": 11, "value": 13}, "group": "control_change"}, {"time": 144503, "annotation": {"number": 11, "value": 12}, "group": "control_change"}, {"time": 144518, "annotation": {"number": 11, "value": 11}, "group": "control_change"}, {"time": 144533, "annotation": {"number": 11, "value": 10}, "group": "control_change"}, {"time": 144548, "annotation": {"number": 11, "value": 9}, "group": "control_change"}, {"time": 144563, "annotation": {"number": 11, "value": 8}, "group": "control_change"}, {"time": 144578, "annotation": {"number": 11, "value": 7}, "group": "control_change"}, {"time": 144592, "annotation": {"number": 11, "value": 6}, "group": "control_change"}, {"time": 144607, "annotation": {"number": 11, "value": 5}, "group": "control_change"}, {"time": 144622, "annotation": {"number": 11, "value": 4}, "group": "control_change"}, {"time": 144637, "annotation": {"number": 11, "value": 3}, "group": "control_change"}, {"time": 144652, "annotation": {"number": 11, "value": 2}, "group": "control_change"}, {"time": 144667, "annotation": {"number": 11, "value": 1}, "group": "control_change"}, {"time": 144682, "annotation": {"number": 11, "value": 0}, "group": "control_change"}]}, {"program": 0, "is_drum": false, "name": "Melody", "annotations": [{"time": 179, "annotation": {"number": 0, "value": 0}, "group": "control_change"}, {"time": 188, "annotation": {"number": 32, "value": 2}, "group": "control_change"}]}, {"program": 73, "is_drum": false, "name": "Melody", "notes": [{"time": 960, "pitch": 67, "duration": 220, "velocity": 100}, {"time": 1200, "pitch": 63, "duration": 220, "velocity": 95}, {"time": 1440, "pitch": 65, "duration": 700, "velocity": 100}, {"time": 2160, "pitch": 63, "duration": 220, "velocity": 95}, {"time": 2400, "pitch": 67, "duration": 460, "velocity": 100}, {"time": 2880, "pitch": 74, "duration": 220, "velocity": 100}, {"time": 3120, "pitch": 75, "duration": 1179, "velocity": 105}, {"time": 4799, "pitch": 75, "duration": 220, "velocity": 105}, {"time": 5039, "pitch": 77, "duration": 100, "velocity": 100}, {"time": 5159, "pitch": 74, "duration": 340, "velocity": 100}, {"time": 5519, "pitch": 72, "duration": 100, "velocity": 100}, {"time": 5639, "pitch": 70, "duration": 340, "velocity": 100}, {"time": 6119, "pitch": 67, "duration": 100, "velocity": 100}, {"time": 6239, "pitch": 70, "duration": 220, "velocity": 100}, {"time": 6479, "pitch": 67, "duration": 100, "velocity": 100}, {"time": 6599, "pitch": 70, "duration": 220, "velocity": 100}, {"time": 6839, "pitch": 72, "duration": 220, "velocity": 100}, {"time": 7079, "pitch": 67, "duration": 460, "velocity": 100}, {"time": 7919, "pitch": 63, "duration": 100, "velocity": 95}, {"time": 8039, "pitch": 63, "duration": 100, "velocity": 95}, {"time": 8159, "pitch": 65, "duration": 220, "velocity": 100}, {"time": 8399, "pitch": 63, "duration": 100, "velocity": 95}, {"time": 8519, "pitch": 65, "duration": 100, "velocity": 100}, {"time": 8639, "pitch": 63, "duration": 700, "velocity": 95}, {"time": 9839, "pitch": 63, "duration": 220, "velocity": 95}, {"time": 10079, "pitch": 70, "duration": 700, "velocity": 100}, {"time": 10799, "pitch": 68, "duration": 100, "velocity": 100}, {"time": 10919, "pitch": 67, "duration": 100, "velocity": 100}, {"time": 11039, "pitch": 63, "duration": 940, "velocity": 95}, {"time": 13439, "pitch": 58, "duration": 463, "velocity": 90}, {"time": 13923, "pitch": 65, "duration": 99, "velocity": 100}, {"time": 14042, "pitch": 65, "duration": 100, "velocity": 100}, {"time": 14162, "pitch": 63, "duration": 1297, "velocity": 95}, {"time": 21958, "pitch": 58, "duration": 100, "velocity": 90}, {"time": 22078, "pitch": 63, "duration": 222, "velocity": 95}, {"time": 22320, "pitch": 58, "duration": 101, "velocity": 90}, {"time": 22441, "pitch": 63, "duration": 220, "velocity": 95}, {"time": 22681, "pitch": 65, "duration": 100, "velocity": 100}, {"time": 22801, "pitch": 67, "duration": 458, "velocity": 100}, {"time": 23279, "pitch": 75, "duration": 220, "velocity": 105}, {"time": 23519, "pitch": 74, "duration": 342, "velocity": 100}, {"time": 23882, "pitch": 70, "duration": 459, "velocity": 100}, {"time": 24481, "pitch": 70, "duration": 458, "velocity": 100}, {"time": 24959, "pitch": 69, "duration": 459, "velocity": 100}, {"time": 25438, "pitch": 68, "duration": 343, "velocity": 100}, {"time": 25801, "pitch": 67, "duration": 340, "velocity": 100}, {"time": 26161, "pitch": 65, "duration": 219, "velocity": 100}, {"time": 26400, "pitch": 62, "duration": 219, "velocity": 100}, {"time": 26639, "pitch": 62, "duration": 100, "velocity": 100}, {"time": 26759, "pitch": 68, "duration": 341, "velocity": 100}, {"time": 27121, "pitch": 67, "duration": 100, "velocity": 100}, {"time": 27242, "pitch": 63, "duration": 1057, "velocity": 95}, {"time": 29161, "pitch": 60, "duration": 101, "velocity": 100}, {"time": 29282, "pitch": 63, "duration": 99, "velocity": 95}, {"time": 29401, "pitch": 60, "duration": 100, "velocity": 100}, {"time": 29521, "pitch": 63, "duration": 100, "velocity": 95}, {"time": 29641, "pitch": 60, "duration": 99, "velocity": 100}, {"time": 29760, "pitch": 63, "duration": 100, "velocity": 95}, {"time": 29880, "pitch": 63, "duration": 99, "velocity": 95}, {"time": 29999, "pitch": 67, "duration": 100, "velocity": 100}, {"time": 30119, "pitch": 65, "duration": 703, "velocity": 100}, {"time": 31081, "pitch": 62, "duration": 100, "velocity": 100}, {"time": 31201, "pitch": 65, "duration": 100, "velocity": 100}, {"time": 31321, "pitch": 62, "duration": 99, "velocity": 100}, {"time": 31440, "pitch": 65, "duration": 100, "velocity": 100}, {"time": 31560, "pitch": 62, "duration": 99, "velocity": 100}, {"time": 31679, "pitch": 65, "duration": 220, "velocity": 100}, {"time": 31919, "pitch": 67, "duration": 99, "velocity": 100}, {"time": 32038, "pitch": 63, "duration": 584, "velocity": 95}, {"time": 33120, "pitch": 63, "duration": 100, "velocity": 95}, {"time": 33240, "pitch": 60, "duration": 99, "velocity": 100}, {"time": 33359, "pitch": 63, "duration": 100, "velocity": 95}, {"time": 33479, "pitch": 60, "duration": 100, "velocity": 100}, {"time": 33599, "pitch": 63, "duration": 221, "velocity": 95}, {"time": 33841, "pitch": 67, "duration": 100, "velocity": 100}, {"time": 33962, "pitch": 65, "duration": 220, "velocity": 100}, {"time": 34322, "pitch": 63, "duration": 219, "velocity": 95}, {"time": 34561, "pitch": 62, "duration": 219, "velocity": 100}, {"time": 34800, "pitch": 65, "duration": 100, "velocity": 100}, {"time": 34920, "pitch": 63, "duration": 99, "velocity": 95}, {"time": 35039, "pitch": 65, "duration": 100, "velocity": 100}, {"time": 35159, "pitch": 63, "duration": 823, "velocity": 95}, {"time": 37322, "pitch": 58, "duration": 100, "velocity": 90}, {"time": 37443, "pitch": 63, "duration": 219, "velocity": 95}, {"time": 37682, "pitch": 58, "duration": 99, "velocity": 90}, {"time": 37801, "pitch": 63, "duration": 220, "velocity": 95}, {"time": 38041, "pitch": 65, "duration": 99, "velocity": 100}, {"time": 38160, "pitch": 67, "duration": 219, "velocity": 100}, {"time": 38639, "pitch": 75, "duration": 219, "velocity": 105}, {"time": 38878, "pitch": 74, "duration": 343, "velocity": 100}, {"time": 39241, "pitch": 70, "duration": 460, "velocity": 100}, {"time": 39840, "pitch": 70, "duration": 459, "velocity": 100}, {"time": 40319, "pitch": 69, "duration": 463, "velocity": 100}, {"time": 40803, "pitch": 68, "duration": 338, "velocity": 100}, {"time": 41161, "pitch": 67, "duration": 339, "velocity": 100}, {"time": 41520, "pitch": 65, "duration": 219, "velocity": 100}, {"time": 41759, "pitch": 62, "duration": 220, "velocity": 100}, {"time": 41999, "pitch": 62, "duration": 99, "velocity": 100}, {"time": 42118, "pitch": 68, "duration": 221, "velocity": 100}, {"time": 42359, "pitch": 68, "duration": 222, "velocity": 100}, {"time": 42601, "pitch": 67, "duration": 101, "velocity": 100}, {"time": 42722, "pitch": 63, "duration": 937, "velocity": 95}, {"time": 44521, "pitch": 60, "duration": 100, "velocity": 100}, {"time": 44641, "pitch": 63, "duration": 100, "velocity": 95}, {"time": 44761, "pitch": 60, "duration": 99, "velocity": 100}, {"time": 44880, "pitch": 63, "duration": 100, "velocity": 95}, {"time": 45000, "pitch": 60, "duration": 99, "velocity": 100}, {"time": 45119, "pitch": 63, "duration": 100, "velocity": 95}, {"time": 45239, "pitch": 63, "duration": 100, "velocity": 95}, {"time": 45359, "pitch": 67, "duration": 99, "velocity": 100}, {"time": 45478, "pitch": 65, "duration": 703, "velocity": 100}, {"time": 46560, "pitch": 65, "duration": 100, "velocity": 100}, {"time": 46680, "pitch": 62, "duration": 99, "velocity": 95}, {"time": 46799, "pitch": 65, "duration": 100, "velocity": 100}, {"time": 46919, "pitch": 62, "duration": 100, "velocity": 95}, {"time": 47039, "pitch": 65, "duration": 221, "velocity": 100}, {"time": 47281, "pitch": 67, "duration": 100, "velocity": 100}, {"time": 47402, "pitch": 63, "duration": 579, "velocity": 95}, {"time": 48479, "pitch": 63, "duration": 100, "velocity": 95}, {"time": 48599, "pitch": 60, "duration": 100, "velocity": 100}, {"time": 48719, "pitch": 63, "duration": 99, "velocity": 95}, {"time": 48838, "pitch": 60, "duration": 100, "velocity": 100}, {"time": 48958, "pitch": 63, "duration": 222, "velocity": 95}, {"time": 49200, "pitch": 67, "duration": 101, "velocity": 100}, {"time": 49321, "pitch": 65, "duration": 340, "velocity": 100}, {"time": 49681, "pitch": 63, "duration": 219, "velocity": 95}, {"time": 49920, "pitch": 62, "duration": 219, "velocity": 100}, {"time": 50159, "pitch": 65, "duration": 100, "velocity": 100}, {"time": 50279, "pitch": 63, "duration": 100, "velocity": 95}, {"time": 50399, "pitch": 65, "duration": 100, "velocity": 100}, {"time": 50520, "pitch": 63, "duration": 821, "velocity": 95}, {"time": 52802, "pitch": 67, "duration": 219, "velocity": 100}, {"time": 53041, "pitch": 63, "duration": 219, "velocity": 95}, {"time": 53280, "pitch": 65, "duration": 700, "velocity": 100}, {"time": 54001, "pitch": 63, "duration": 221, "velocity": 95}, {"time": 54243, "pitch": 67, "duration": 458, "velocity": 100}, {"time": 54721, "pitch": 74, "duration": 219, "velocity": 100}, {"time": 54960, "pitch": 75, "duration": 1182, "velocity": 105}, {"time": 56879, "pitch": 75, "duration": 220, "velocity": 105}, {"time": 57119, "pitch": 77, "duration": 221, "velocity": 100}, {"time": 57361, "pitch": 74, "duration": 100, "velocity": 100}, {"time": 57482, "pitch": 70, "duration": 340, "velocity": 100}, {"time": 57961, "pitch": 67, "duration": 100, "velocity": 100}, {"time": 58081, "pitch": 70, "duration": 100, "velocity": 100}, {"time": 58201, "pitch": 67, "duration": 99, "velocity": 100}, {"time": 58320, "pitch": 70, "duration": 100, "velocity": 100}, {"time": 58440, "pitch": 67, "duration": 99, "velocity": 100}, {"time": 58559, "pitch": 70, "duration": 220, "velocity": 100}, {"time": 58799, "pitch": 72, "duration": 99, "velocity": 100}, {"time": 58918, "pitch": 67, "duration": 463, "velocity": 100}, {"time": 59761, "pitch": 63, "duration": 100, "velocity": 95}, {"time": 59881, "pitch": 63, "duration": 99, "velocity": 95}, {"time": 60000, "pitch": 65, "duration": 100, "velocity": 100}, {"time": 60120, "pitch": 63, "duration": 99, "velocity": 95}, {"time": 60239, "pitch": 63, "duration": 100, "velocity": 95}, {"time": 60359, "pitch": 63, "duration": 583, "velocity": 95}, {"time": 61800, "pitch": 63, "duration": 99, "velocity": 95}, {"time": 61919, "pitch": 70, "duration": 701, "velocity": 100}, {"time": 62640, "pitch": 68, "duration": 101, "velocity": 100}, {"time": 62761, "pitch": 67, "duration": 101, "velocity": 100}, {"time": 62882, "pitch": 63, "duration": 219, "velocity": 95}, {"time": 63360, "pitch": 63, "duration": 219, "velocity": 95}, {"time": 63599, "pitch": 58, "duration": 100, "velocity": 90}, {"time": 63719, "pitch": 65, "duration": 220, "velocity": 100}, {"time": 63960, "pitch": 63, "duration": 821, "velocity": 95}, {"time": 71880, "pitch": 58, "duration": 99, "velocity": 90}, {"time": 71999, "pitch": 63, "duration": 220, "velocity": 95}, {"time": 72239, "pitch": 58, "duration": 99, "velocity": 90}, {"time": 72358, "pitch": 63, "duration": 221, "velocity": 95}, {"time": 72599, "pitch": 65, "duration": 101, "velocity": 100}, {"time": 72720, "pitch": 67, "duration": 222, "velocity": 100}, {"time": 73201, "pitch": 75, "duration": 219, "velocity": 105}, {"time": 73440, "pitch": 74, "duration": 339, "velocity": 100}, {"time": 73799, "pitch": 70, "duration": 462, "velocity": 100}, {"time": 74402, "pitch": 70, "duration": 459, "velocity": 100}, {"time": 74881, "pitch": 69, "duration": 458, "velocity": 100}, {"time": 75359, "pitch": 68, "duration": 339, "velocity": 100}, {"time": 75718, "pitch": 67, "duration": 342, "velocity": 100}, {"time": 76080, "pitch": 65, "duration": 101, "velocity": 100}, {"time": 76201, "pitch": 65, "duration": 101, "velocity": 100}, {"time": 76322, "pitch": 62, "duration": 219, "velocity": 100}, {"time": 76561, "pitch": 62, "duration": 100, "velocity": 100}, {"time": 76681, "pitch": 68, "duration": 338, "velocity": 100}, {"time": 77039, "pitch": 67, "duration": 100, "velocity": 100}, {"time": 77159, "pitch": 63, "duration": 1062, "velocity": 95}, {"time": 79078, "pitch": 60, "duration": 100, "velocity": 100}, {"time": 79198, "pitch": 63, "duration": 101, "velocity": 95}, {"time": 79319, "pitch": 60, "duration": 101, "velocity": 100}, {"time": 79440, "pitch": 63, "duration": 101, "velocity": 95}, {"time": 79561, "pitch": 60, "duration": 101, "velocity": 100}, {"time": 79682, "pitch": 63, "duration": 219, "velocity": 95}, {"time": 79921, "pitch": 67, "duration": 100, "velocity": 100}, {"time": 80041, "pitch": 65, "duration": 698, "velocity": 100}, {"time": 81002, "pitch": 62, "duration": 100, "velocity": 100}, {"time": 81122, "pitch": 65, "duration": 100, "velocity": 100}, {"time": 81242, "pitch": 62, "duration": 100, "velocity": 100}, {"time": 81362, "pitch": 65, "duration": 99, "velocity": 100}, {"time": 81481, "pitch": 62, "duration": 100, "velocity": 100}, {"time": 81601, "pitch": 65, "duration": 219, "velocity": 100}, {"time": 81840, "pitch": 67, "duration": 100, "velocity": 100}, {"time": 81960, "pitch": 63, "duration": 820, "velocity": 95}, {"time": 83042, "pitch": 63, "duration": 99, "velocity": 95}, {"time": 83161, "pitch": 60, "duration": 100, "velocity": 100}, {"time": 83281, "pitch": 63, "duration": 100, "velocity": 95}, {"time": 83400, "pitch": 60, "duration": 100, "velocity": 100}, {"time": 83520, "pitch": 63, "duration": 219, "velocity": 95}, {"time": 83759, "pitch": 67, "duration": 100, "velocity": 100}, {"time": 83879, "pitch": 65, "duration": 341, "velocity": 100}, {"time": 84241, "pitch": 63, "duration": 100, "velocity": 95}, {"time": 84362, "pitch": 63, "duration": 100, "velocity": 95}, {"time": 84482, "pitch": 62, "duration": 220, "velocity": 100}, {"time": 84722, "pitch": 65, "duration": 99, "velocity": 100}, {"time": 84841, "pitch": 63, "duration": 100, "velocity": 95}, {"time": 84961, "pitch": 65, "duration": 100, "velocity": 100}, {"time": 85080, "pitch": 63, "duration": 818, "velocity": 95}, {"time": 87359, "pitch": 79, "duration": 100, "velocity": 100}, {"time": 87479, "pitch": 77, "duration": 101, "velocity": 100}, {"time": 87600, "pitch": 75, "duration": 101, "velocity": 105}, {"time": 87722, "pitch": 77, "duration": 220, "velocity": 100}, {"time": 87962, "pitch": 79, "duration": 339, "velocity": 100}, {"time": 89520, "pitch": 70, "duration": 222, "velocity": 100}, {"time": 89762, "pitch": 80, "duration": 339, "velocity": 100}, {"time": 90120, "pitch": 79, "duration": 339, "velocity": 100}, {"time": 90479, "pitch": 77, "duration": 220, "velocity": 100}, {"time": 90718, "pitch": 74, "duration": 464, "velocity": 100}, {"time": 91442, "pitch": 71, "duration": 219, "velocity": 100}, {"time": 91681, "pitch": 80, "duration": 219, "velocity": 100}, {"time": 91920, "pitch": 79, "duration": 100, "velocity": 100}, {"time": 92040, "pitch": 77, "duration": 219, "velocity": 100}, {"time": 92279, "pitch": 75, "duration": 219, "velocity": 105}, {"time": 92518, "pitch": 77, "duration": 342, "velocity": 100}, {"time": 92880, "pitch": 79, "duration": 700, "velocity": 100}, {"time": 94802, "pitch": 79, "duration": 99, "velocity": 100}, {"time": 94921, "pitch": 77, "duration": 100, "velocity": 100}, {"time": 95041, "pitch": 75, "duration": 100, "velocity": 105}, {"time": 95160, "pitch": 75, "duration": 100, "velocity": 105}, {"time": 95280, "pitch": 77, "duration": 100, "velocity": 100}, {"time": 95400, "pitch": 79, "duration": 578, "velocity": 100}, {"time": 97080, "pitch": 70, "duration": 99, "velocity": 100}, {"time": 97199, "pitch": 70, "duration": 100, "velocity": 100}, {"time": 97319, "pitch": 80, "duration": 341, "velocity": 100}, {"time": 97680, "pitch": 79, "duration": 342, "velocity": 100}, {"time": 98042, "pitch": 77, "duration": 339, "velocity": 100}, {"time": 98401, "pitch": 74, "duration": 458, "velocity": 100}, {"time": 99118, "pitch": 71, "duration": 100, "velocity": 100}, {"time": 99238, "pitch": 71, "duration": 100, "velocity": 100}, {"time": 99358, "pitch": 80, "duration": 222, "velocity": 100}, {"time": 99600, "pitch": 79, "duration": 101, "velocity": 100}, {"time": 99721, "pitch": 77, "duration": 340, "velocity": 100}, {"time": 100081, "pitch": 75, "duration": 100, "velocity": 105}, {"time": 100200, "pitch": 77, "duration": 339, "velocity": 100}, {"time": 100559, "pitch": 79, "duration": 703, "velocity": 100}, {"time": 102960, "pitch": 75, "duration": 101, "velocity": 105}, {"time": 103081, "pitch": 75, "duration": 101, "velocity": 105}, {"time": 103202, "pitch": 75, "duration": 219, "velocity": 105}, {"time": 103441, "pitch": 72, "duration": 219, "velocity": 100}, {"time": 103680, "pitch": 72, "duration": 219, "velocity": 100}, {"time": 103919, "pitch": 67, "duration": 100, "velocity": 100}, {"time": 104039, "pitch": 70, "duration": 583, "velocity": 100}, {"time": 104882, "pitch": 63, "duration": 99, "velocity": 95}, {"time": 105001, "pitch": 63, "duration": 100, "velocity": 95}, {"time": 105121, "pitch": 63, "duration": 219, "velocity": 95}, {"time": 105360, "pitch": 58, "duration": 239, "velocity": 90}, {"time": 105599, "pitch": 63, "duration": 220, "velocity": 95}, {"time": 105838, "pitch": 65, "duration": 100, "velocity": 100}, {"time": 105958, "pitch": 63, "duration": 100, "velocity": 95}, {"time": 106078, "pitch": 65, "duration": 100, "velocity": 100}, {"time": 106199, "pitch": 63, "duration": 242, "velocity": 95}, {"time": 106562, "pitch": 67, "duration": 219, "velocity": 100}, {"time": 106801, "pitch": 63, "duration": 219, "velocity": 95}, {"time": 107040, "pitch": 65, "duration": 700, "velocity": 100}, {"time": 107760, "pitch": 63, "duration": 222, "velocity": 95}, {"time": 108002, "pitch": 67, "duration": 459, "velocity": 100}, {"time": 108481, "pitch": 74, "duration": 219, "velocity": 100}, {"time": 108720, "pitch": 75, "duration": 1182, "velocity": 105}, {"time": 110400, "pitch": 75, "duration": 219, "velocity": 105}, {"time": 110639, "pitch": 77, "duration": 220, "velocity": 100}, {"time": 110878, "pitch": 74, "duration": 222, "velocity": 100}, {"time": 111120, "pitch": 72, "duration": 101, "velocity": 100}, {"time": 111241, "pitch": 70, "duration": 341, "velocity": 100}, {"time": 111721, "pitch": 67, "duration": 100, "velocity": 100}, {"time": 111841, "pitch": 70, "duration": 219, "velocity": 100}, {"time": 112080, "pitch": 67, "duration": 100, "velocity": 100}, {"time": 112200, "pitch": 70, "duration": 339, "velocity": 100}, {"time": 112558, "pitch": 72, "duration": 100, "velocity": 100}, {"time": 112678, "pitch": 67, "duration": 463, "velocity": 100}, {"time": 113521, "pitch": 63, "duration": 100, "velocity": 95}, {"time": 113640, "pitch": 63, "duration": 100, "velocity": 95}, {"time": 113760, "pitch": 65, "duration": 219, "velocity": 100}, {"time": 113999, "pitch": 63, "duration": 100, "velocity": 95}, {"time": 114119, "pitch": 65, "duration": 100, "velocity": 100}, {"time": 114238, "pitch": 63, "duration": 724, "velocity": 95}, {"time": 115440, "pitch": 63, "duration": 219, "velocity": 95}, {"time": 115679, "pitch": 70, "duration": 700, "velocity": 100}, {"time": 116400, "pitch": 68, "duration": 101, "velocity": 100}, {"time": 116521, "pitch": 67, "duration": 101, "velocity": 100}, {"time": 116642, "pitch": 63, "duration": 219, "velocity": 95}, {"time": 117359, "pitch": 58, "duration": 220, "velocity": 90}, {"time": 117598, "pitch": 65, "duration": 101, "velocity": 100}, {"time": 117719, "pitch": 63, "duration": 242, "velocity": 95}, {"time": 118082, "pitch": 67, "duration": 220, "velocity": 100}, {"time": 118322, "pitch": 63, "duration": 219, "velocity": 95}, {"time": 118561, "pitch": 65, "duration": 698, "velocity": 100}, {"time": 119278, "pitch": 63, "duration": 220, "velocity": 95}, {"time": 119518, "pitch": 67, "duration": 464, "velocity": 100}, {"time": 120002, "pitch": 74, "duration": 219, "velocity": 100}, {"time": 120241, "pitch": 75, "duration": 1181, "velocity": 105}, {"time": 122160, "pitch": 75, "duration": 100, "velocity": 105}, {"time": 122280, "pitch": 75, "duration": 99, "velocity": 105}, {"time": 122399, "pitch": 77, "duration": 220, "velocity": 100}, {"time": 122638, "pitch": 74, "duration": 100, "velocity": 100}, {"time": 122758, "pitch": 70, "duration": 341, "velocity": 100}, {"time": 123241, "pitch": 67, "duration": 101, "velocity": 100}, {"time": 123362, "pitch": 70, "duration": 99, "velocity": 100}, {"time": 123481, "pitch": 67, "duration": 100, "velocity": 100}, {"time": 123601, "pitch": 70, "duration": 100, "velocity": 100}, {"time": 123720, "pitch": 67, "duration": 100, "velocity": 100}, {"time": 123840, "pitch": 70, "duration": 219, "velocity": 100}, {"time": 124079, "pitch": 72, "duration": 100, "velocity": 100}, {"time": 124199, "pitch": 67, "duration": 462, "velocity": 100}, {"time": 125042, "pitch": 63, "duration": 99, "velocity": 95}, {"time": 125161, "pitch": 63, "duration": 100, "velocity": 95}, {"time": 125281, "pitch": 65, "duration": 100, "velocity": 100}, {"time": 125400, "pitch": 63, "duration": 100, "velocity": 95}, {"time": 125520, "pitch": 63, "duration": 100, "velocity": 95}, {"time": 125640, "pitch": 63, "duration": 819, "velocity": 95}, {"time": 126961, "pitch": 63, "duration": 219, "velocity": 95}, {"time": 127200, "pitch": 70, "duration": 700, "velocity": 100}, {"time": 127920, "pitch": 68, "duration": 101, "velocity": 100}, {"time": 128041, "pitch": 67, "duration": 101, "velocity": 100}, {"time": 128162, "pitch": 63, "duration": 220, "velocity": 95}, {"time": 128641, "pitch": 63, "duration": 219, "velocity": 95}, {"time": 128880, "pitch": 58, "duration": 219, "velocity": 90}, {"time": 129119, "pitch": 65, "duration": 220, "velocity": 100}, {"time": 129358, "pitch": 63, "duration": 100, "velocity": 95}, {"time": 129478, "pitch": 65, "duration": 100, "velocity": 95}, {"time": 129598, "pitch": 63, "duration": 1440, "velocity": 95}, {"time": 132479, "pitch": 63, "duration": 100, "velocity": 95}, {"time": 132599, "pitch": 63, "duration": 100, "velocity": 95}, {"time": 132718, "pitch": 63, "duration": 100, "velocity": 95}, {"time": 132838, "pitch": 58, "duration": 100, "velocity": 90}, {"time": 132958, "pitch": 63, "duration": 221, "velocity": 95}, {"time": 133200, "pitch": 65, "duration": 100, "velocity": 100}, {"time": 133321, "pitch": 67, "duration": 340, "velocity": 100}, {"time": 136318, "pitch": 63, "duration": 100, "velocity": 95}, {"time": 136439, "pitch": 63, "duration": 100, "velocity": 95}, {"time": 136560, "pitch": 63, "duration": 100, "velocity": 95}, {"time": 136681, "pitch": 58, "duration": 100, "velocity": 90}, {"time": 136802, "pitch": 63, "duration": 219, "velocity": 95}, {"time": 137041, "pitch": 65, "duration": 100, "velocity": 100}, {"time": 137160, "pitch": 67, "duration": 339, "velocity": 100}, {"time": 140162, "pitch": 63, "duration": 99, "velocity": 95}, {"time": 140281, "pitch": 63, "duration": 100, "velocity": 95}, {"time": 140401, "pitch": 63, "duration": 100, "velocity": 95}, {"time": 140520, "pitch": 58, "duration": 100, "velocity": 90}, {"time": 140640, "pitch": 63, "duration": 219, "velocity": 95}, {"time": 140879, "pitch": 65, "duration": 100, "velocity": 100}, {"time": 140999, "pitch": 67, "duration": 341, "velocity": 100}], "annotations": [{"time": 207, "annotation": {"number": 7, "value": 80}, "group": "control_change"}, {"time": 216, "annotation": {"number": 11, "value": 120}, "group": "control_change"}, {"time": 226, "annotation": {"number": 10, "value": 64}, "group": "control_change"}, {"time": 235, "annotation": {"number": 91, "value": 50}, "group": "control_change"}, {"time": 244, "annotation": {"number": 93, "value": 0}, "group": "control_change"}, {"time": 254, "annotation": {"number": 101, "value": 0}, "group": "control_change"}, {"time": 263, "annotation": {"number": 100, "value": 0}, "group": "control_change"}, {"time": 273, "annotation": {"number": 6, "value": 12}, "group": "control_change"}, {"time": 282, "annotation": {"number": 101, "value": 127}, "group": "control_change"}, {"time": 291, "annotation": {"number": 100, "value": 127}, "group": "control_change"}]}, {"program": 0, "is_drum": false, "name": "INTRO SE", "annotations": [{"time": 179, "annotation": {"number": 0, "value": 8}, "group": "control_change"}, {"time": 188, "annotation": {"number": 32, "value": 2}, "group": "control_change"}]}, {"program": 125, "is_drum": false, "name": "INTRO SE", "notes": [{"time": 11969, "pitch": 66, "duration": 2063, "velocity": 115}, {"time": 11969, "pitch": 69, "duration": 2058, "velocity": 112}, {"time": 12514, "pitch": 55, "duration": 1527, "velocity": 78}, {"time": 12514, "pitch": 78, "duration": 1527, "velocity": 78}], "annotations": [{"time": 207, "annotation": {"number": 7, "value": 90}, "group": "control_change"}, {"time": 216, "annotation": {"number": 11, "value": 120}, "group": "control_change"}, {"time": 226, "annotation": {"number": 10, "value": 64}, "group": "control_change"}, {"time": 235, "annotation": {"number": 91, "value": 50}, "group": "control_change"}, {"time": 244, "annotation": {"number": 93, "value": 0}, "group": "control_change"}, {"time": 254, "annotation": {"number": 101, "value": 0}, "group": "control_change"}, {"time": 263, "annotation": {"number": 100, "value": 0}, "group": "control_change"}, {"time": 273, "annotation": {"number": 6, "value": 12}, "group": "control_change"}, {"time": 282, "annotation": {"number": 101, "value": 127}, "group": "control_change"}, {"time": 291, "annotation": {"number": 100, "value": 127}, "group": "control_change"}, {"time": 12514, "annotation": {"number": 11, "value": 120}, "group": "control_change"}, {"time": 12554, "annotation": {"number": 11, "value": 116}, "group": "control_change"}, {"time": 12594, "annotation": {"number": 11, "value": 111}, "group": "control_change"}, {"time": 12634, "annotation": {"number": 11, "value": 106}, "group": "control_change"}, {"time": 12674, "annotation": {"number": 11, "value": 102}, "group": "control_change"}, {"time": 12714, "annotation": {"number": 11, "value": 97}, "group": "control_change"}, {"time": 12754, "annotation": {"number": 11, "value": 92}, "group": "control_change"}, {"time": 12794, "annotation": {"number": 11, "value": 88}, "group": "control_change"}, {"time": 12834, "annotation": {"number": 11, "value": 83}, "group": "control_change"}, {"time": 12874, "annotation": {"number": 11, "value": 78}, "group": "control_change"}, {"time": 12914, "annotation": {"number": 11, "value": 73}, "group": "control_change"}, {"time": 12954, "annotation": {"number": 11, "value": 69}, "group": "control_change"}, {"time": 12994, "annotation": {"number": 11, "value": 64}, "group": "control_change"}, {"time": 13034, "annotation": {"number": 11, "value": 59}, "group": "control_change"}, {"time": 13074, "annotation": {"number": 11, "value": 55}, "group": "control_change"}, {"time": 13114, "annotation": {"number": 11, "value": 50}, "group": "control_change"}, {"time": 13154, "annotation": {"number": 11, "value": 45}, "group": "control_change"}, {"time": 13194, "annotation": {"number": 11, "value": 40}, "group": "control_change"}, {"time": 13234, "annotation": {"number": 11, "value": 36}, "group": "control_change"}, {"time": 13274, "annotation": {"number": 11, "value": 31}, "group": "control_change"}, {"time": 13314, "annotation": {"number": 11, "value": 26}, "group": "control_change"}, {"time": 13354, "annotation": {"number": 11, "value": 22}, "group": "control_change"}, {"time": 13394, "annotation": {"number": 11, "value": 17}, "group": "control_change"}, {"time": 13434, "annotation": {"number": 11, "value": 12}, "group": "control_change"}, {"time": 13474, "annotation": {"number": 11, "value": 7}, "group": "control_change"}, {"time": 13514, "annotation": {"number": 11, "value": 3}, "group": "control_change"}, {"time": 13555, "annotation": {"number": 11, "value": 0}, "group": "control_change"}]}, {"program": 0, "is_drum": false, "name": "Intro Pad", "annotations": [{"time": 179, "annotation": {"number": 0, "value": 0}, "group": "control_change"}, {"time": 188, "annotation": {"number": 32, "value": 2}, "group": "control_change"}]}, {"program": 89, "is_drum": false, "name": "Intro Pad", "notes": [{"time": 480, "pitch": 51, "duration": 956, "velocity": 96}, {"time": 480, "pitch": 63, "duration": 956, "velocity": 45}, {"time": 480, "pitch": 82, "duration": 956, "velocity": 47}, {"time": 480, "pitch": 87, "duration": 956, "velocity": 55}, {"time": 480, "pitch": 91, "duration": 956, "velocity": 55}, {"time": 1440, "pitch": 53, "duration": 956, "velocity": 108}, {"time": 1440, "pitch": 65, "duration": 956, "velocity": 61}, {"time": 1440, "pitch": 80, "duration": 956, "velocity": 65}, {"time": 1440, "pitch": 84, "duration": 956, "velocity": 62}, {"time": 1440, "pitch": 89, "duration": 1916, "velocity": 73}, {"time": 2400, "pitch": 55, "duration": 956, "velocity": 112}, {"time": 2400, "pitch": 67, "duration": 956, "velocity": 67}, {"time": 2400, "pitch": 82, "duration": 956, "velocity": 65}, {"time": 2400, "pitch": 86, "duration": 956, "velocity": 65}, {"time": 3360, "pitch": 60, "duration": 475, "velocity": 99}, {"time": 3360, "pitch": 72, "duration": 475, "velocity": 70}, {"time": 3360, "pitch": 84, "duration": 475, "velocity": 55}, {"time": 3360, "pitch": 87, "duration": 475, "velocity": 68}, {"time": 3360, "pitch": 91, "duration": 1915, "velocity": 58}, {"time": 3839, "pitch": 58, "duration": 476, "velocity": 110}, {"time": 3839, "pitch": 70, "duration": 476, "velocity": 69}, {"time": 3839, "pitch": 82, "duration": 476, "velocity": 77}, {"time": 3839, "pitch": 86, "duration": 476, "velocity": 67}, {"time": 4319, "pitch": 56, "duration": 1944, "velocity": 121}, {"time": 4319, "pitch": 68, "duration": 1944, "velocity": 75}, {"time": 4319, "pitch": 84, "duration": 984, "velocity": 66}, {"time": 4319, "pitch": 87, "duration": 984, "velocity": 62}, {"time": 5279, "pitch": 82, "duration": 1436, "velocity": 64}, {"time": 5279, "pitch": 86, "duration": 1916, "velocity": 77}, {"time": 5279, "pitch": 89, "duration": 1916, "velocity": 62}, {"time": 6239, "pitch": 55, "duration": 476, "velocity": 127}, {"time": 6239, "pitch": 67, "duration": 476, "velocity": 87}, {"time": 6719, "pitch": 59, "duration": 476, "velocity": 124}, {"time": 6719, "pitch": 71, "duration": 476, "velocity": 83}, {"time": 6719, "pitch": 83, "duration": 476, "velocity": 60}, {"time": 7199, "pitch": 60, "duration": 476, "velocity": 109}, {"time": 7199, "pitch": 72, "duration": 476, "velocity": 69}, {"time": 7199, "pitch": 84, "duration": 476, "velocity": 68}, {"time": 7199, "pitch": 87, "duration": 476, "velocity": 70}, {"time": 7199, "pitch": 91, "duration": 2904, "velocity": 55}, {"time": 7679, "pitch": 58, "duration": 476, "velocity": 121}, {"time": 7679, "pitch": 70, "duration": 476, "velocity": 84}, {"time": 7679, "pitch": 82, "duration": 476, "velocity": 88}, {"time": 7679, "pitch": 86, "duration": 476, "velocity": 90}, {"time": 8159, "pitch": 56, "duration": 1944, "velocity": 115}, {"time": 8159, "pitch": 68, "duration": 1944, "velocity": 75}, {"time": 8159, "pitch": 84, "duration": 7707, "velocity": 61}, {"time": 8159, "pitch": 87, "duration": 7707, "velocity": 74}, {"time": 10079, "pitch": 58, "duration": 5787, "velocity": 121}, {"time": 10079, "pitch": 70, "duration": 5787, "velocity": 77}, {"time": 10079, "pitch": 80, "duration": 5787, "velocity": 58}], "annotations": [{"time": 207, "annotation": {"number": 7, "value": 70}, "group": "control_change"}, {"time": 216, "annotation": {"number": 11, "value": 120}, "group": "control_change"}, {"time": 226, "annotation": {"number": 10, "value": 64}, "group": "control_change"}, {"time": 235, "annotation": {"number": 91, "value": 50}, "group": "control_change"}, {"time": 244, "annotation": {"number": 93, "value": 0}, "group": "control_change"}, {"time": 254, "annotation": {"number": 101, "value": 0}, "group": "control_change"}, {"time": 263, "annotation": {"number": 100, "value": 0}, "group": "control_change"}, {"time": 273, "annotation": {"number": 6, "value": 12}, "group": "control_change"}, {"time": 282, "annotation": {"number": 101, "value": 127}, "group": "control_change"}, {"time": 291, "annotation": {"number": 100, "value": 127}, "group": "control_change"}, {"time": 11007, "annotation": {"number": 11, "value": 127}, "group": "control_change"}, {"time": 11173, "annotation": {"number": 11, "value": 126}, "group": "control_change"}, {"time": 11256, "annotation": {"number": 11, "value": 125}, "group": "control_change"}, {"time": 11339, "annotation": {"number": 11, "value": 124}, "group": "control_change"}, {"time": 11422, "annotation": {"number": 11, "value": 123}, "group": "control_change"}, {"time": 11505, "annotation": {"number": 11, "value": 122}, "group": "control_change"}, {"time": 11588, "annotation": {"number": 11, "value": 121}, "group": "control_change"}, {"time": 11671, "annotation": {"number": 11, "value": 120}, "group": "control_change"}, {"time": 11754, "annotation": {"number": 11, "value": 119}, "group": "control_change"}, {"time": 11837, "annotation": {"number": 11, "value": 118}, "group": "control_change"}, {"time": 11920, "annotation": {"number": 11, "value": 117}, "group": "control_change"}, {"time": 12003, "annotation": {"number": 11, "value": 116}, "group": "control_change"}, {"time": 12086, "annotation": {"number": 11, "value": 115}, "group": "control_change"}, {"time": 12169, "annotation": {"number": 11, "value": 114}, "group": "control_change"}, {"time": 12252, "annotation": {"number": 11, "value": 113}, "group": "control_change"}, {"time": 12335, "annotation": {"number": 11, "value": 112}, "group": "control_change"}, {"time": 12418, "annotation": {"number": 11, "value": 111}, "group": "control_change"}, {"time": 12501, "annotation": {"number": 11, "value": 110}, "group": "control_change"}, {"time": 12584, "annotation": {"number": 11, "value": 109}, "group": "control_change"}, {"time": 12667, "annotation": {"number": 11, "value": 108}, "group": "control_change"}, {"time": 12750, "annotation": {"number": 11, "value": 107}, "group": "control_change"}, {"time": 12833, "annotation": {"number": 11, "value": 106}, "group": "control_change"}, {"time": 12916, "annotation": {"number": 11, "value": 105}, "group": "control_change"}, {"time": 12999, "annotation": {"number": 11, "value": 104}, "group": "control_change"}, {"time": 13082, "annotation": {"number": 11, "value": 103}, "group": "control_change"}, {"time": 13165, "annotation": {"number": 11, "value": 102}, "group": "control_change"}, {"time": 13248, "annotation": {"number": 11, "value": 101}, "group": "control_change"}, {"time": 13259, "annotation": {"number": 11, "value": 100}, "group": "control_change"}, {"time": 13302, "annotation": {"number": 11, "value": 99}, "group": "control_change"}, {"time": 13323, "annotation": {"number": 11, "value": 98}, "group": "control_change"}, {"time": 13345, "annotation": {"number": 11, "value": 97}, "group": "control_change"}, {"time": 13366, "annotation": {"number": 11, "value": 96}, "group": "control_change"}, {"time": 13388, "annotation": {"number": 11, "value": 95}, "group": "control_change"}, {"time": 13409, "annotation": {"number": 11, "value": 94}, "group": "control_change"}, {"time": 13431, "annotation": {"number": 11, "value": 93}, "group": "control_change"}, {"time": 13452, "annotation": {"number": 11, "value": 92}, "group": "control_change"}, {"time": 13474, "annotation": {"number": 11, "value": 91}, "group": "control_change"}, {"time": 13495, "annotation": {"number": 11, "value": 90}, "group": "control_change"}, {"time": 13517, "annotation": {"number": 11, "value": 89}, "group": "control_change"}, {"time": 13538, "annotation": {"number": 11, "value": 88}, "group": "control_change"}, {"time": 13561, "annotation": {"number": 11, "value": 87}, "group": "control_change"}, {"time": 13582, "annotation": {"number": 11, "value": 86}, "group": "control_change"}, {"time": 13604, "annotation": {"number": 11, "value": 85}, "group": "control_change"}, {"time": 13625, "annotation": {"number": 11, "value": 84}, "group": "control_change"}, {"time": 13647, "annotation": {"number": 11, "value": 83}, "group": "control_change"}, {"time": 13668, "annotation": {"number": 11, "value": 82}, "group": "control_change"}, {"time": 13691, "annotation": {"number": 11, "value": 81}, "group": "control_change"}, {"time": 13712, "annotation": {"number": 11, "value": 80}, "group": "control_change"}, {"time": 13734, "annotation": {"number": 11, "value": 79}, "group": "control_change"}, {"time": 13755, "annotation": {"number": 11, "value": 78}, "group": "control_change"}, {"time": 13777, "annotation": {"number": 11, "value": 77}, "group": "control_change"}, {"time": 13799, "annotation": {"number": 11, "value": 76}, "group": "control_change"}, {"time": 13821, "annotation": {"number": 11, "value": 75}, "group": "control_change"}, {"time": 13842, "annotation": {"number": 11, "value": 74}, "group": "control_change"}, {"time": 13864, "annotation": {"number": 11, "value": 73}, "group": "control_change"}, {"time": 13885, "annotation": {"number": 11, "value": 72}, "group": "control_change"}, {"time": 13907, "annotation": {"number": 11, "value": 71}, "group": "control_change"}, {"time": 13929, "annotation": {"number": 11, "value": 70}, "group": "control_change"}, {"time": 13950, "annotation": {"number": 11, "value": 69}, "group": "control_change"}, {"time": 13971, "annotation": {"number": 11, "value": 68}, "group": "control_change"}, {"time": 13993, "annotation": {"number": 11, "value": 67}, "group": "control_change"}, {"time": 14014, "annotation": {"number": 11, "value": 66}, "group": "control_change"}, {"time": 14036, "annotation": {"number": 11, "value": 65}, "group": "control_change"}, {"time": 14057, "annotation": {"number": 11, "value": 64}, "group": "control_change"}, {"time": 14079, "annotation": {"number": 11, "value": 63}, "group": "control_change"}, {"time": 14100, "annotation": {"number": 11, "value": 62}, "group": "control_change"}, {"time": 14122, "annotation": {"number": 11, "value": 61}, "group": "control_change"}, {"time": 14143, "annotation": {"number": 11, "value": 60}, "group": "control_change"}, {"time": 14165, "annotation": {"number": 11, "value": 59}, "group": "control_change"}, {"time": 14186, "annotation": {"number": 11, "value": 58}, "group": "control_change"}, {"time": 14190, "annotation": {"number": 11, "value": 57}, "group": "control_change"}, {"time": 14215, "annotation": {"number": 11, "value": 56}, "group": "control_change"}, {"time": 14227, "annotation": {"number": 11, "value": 55}, "group": "control_change"}, {"time": 14240, "annotation": {"number": 11, "value": 54}, "group": "control_change"}, {"time": 14251, "annotation": {"number": 11, "value": 53}, "group": "control_change"}, {"time": 14264, "annotation": {"number": 11, "value": 52}, "group": "control_change"}, {"time": 14276, "annotation": {"number": 11, "value": 51}, "group": "control_change"}, {"time": 14289, "annotation": {"number": 11, "value": 50}, "group": "control_change"}, {"time": 14301, "annotation": {"number": 11, "value": 49}, "group": "control_change"}, {"time": 14314, "annotation": {"number": 11, "value": 48}, "group": "control_change"}, {"time": 14326, "annotation": {"number": 11, "value": 47}, "group": "control_change"}, {"time": 14339, "annotation": {"number": 11, "value": 46}, "group": "control_change"}, {"time": 14351, "annotation": {"number": 11, "value": 45}, "group": "control_change"}, {"time": 14364, "annotation": {"number": 11, "value": 44}, "group": "control_change"}, {"time": 14376, "annotation": {"number": 11, "value": 43}, "group": "control_change"}, {"time": 14389, "annotation": {"number": 11, "value": 42}, "group": "control_change"}, {"time": 14401, "annotation": {"number": 11, "value": 41}, "group": "control_change"}, {"time": 14414, "annotation": {"number": 11, "value": 40}, "group": "control_change"}, {"time": 14426, "annotation": {"number": 11, "value": 39}, "group": "control_change"}, {"time": 14439, "annotation": {"number": 11, "value": 38}, "group": "control_change"}, {"time": 14451, "annotation": {"number": 11, "value": 37}, "group": "control_change"}, {"time": 14464, "annotation": {"number": 11, "value": 36}, "group": "control_change"}, {"time": 14476, "annotation": {"number": 11, "value": 35}, "group": "control_change"}, {"time": 14489, "annotation": {"number": 11, "value": 34}, "group": "control_change"}, {"time": 14501, "annotation": {"number": 11, "value": 33}, "group": "control_change"}, {"time": 14514, "annotation": {"number": 11, "value": 32}, "group": "control_change"}, {"time": 14526, "annotation": {"number": 11, "value": 31}, "group": "control_change"}, {"time": 14539, "annotation": {"number": 11, "value": 30}, "group": "control_change"}, {"time": 14550, "annotation": {"number": 11, "value": 29}, "group": "control_change"}, {"time": 14563, "annotation": {"number": 11, "value": 28}, "group": "control_change"}, {"time": 14575, "annotation": {"number": 11, "value": 27}, "group": "control_change"}, {"time": 14588, "annotation": {"number": 11, "value": 26}, "group": "control_change"}, {"time": 14600, "annotation": {"number": 11, "value": 25}, "group": "control_change"}, {"time": 14613, "annotation": {"number": 11, "value": 24}, "group": "control_change"}, {"time": 14625, "annotation": {"number": 11, "value": 23}, "group": "control_change"}, {"time": 14638, "annotation": {"number": 11, "value": 22}, "group": "control_change"}, {"time": 14650, "annotation": {"number": 11, "value": 21}, "group": "control_change"}, {"time": 14663, "annotation": {"number": 11, "value": 20}, "group": "control_change"}, {"time": 14675, "annotation": {"number": 11, "value": 19}, "group": "control_change"}, {"time": 14688, "annotation": {"number": 11, "value": 18}, "group": "control_change"}, {"time": 14692, "annotation": {"number": 11, "value": 17}, "group": "control_change"}, {"time": 14733, "annotation": {"number": 11, "value": 16}, "group": "control_change"}, {"time": 14753, "annotation": {"number": 11, "value": 15}, "group": "control_change"}, {"time": 14774, "annotation": {"number": 11, "value": 14}, "group": "control_change"}, {"time": 14794, "annotation": {"number": 11, "value": 13}, "group": "control_change"}, {"time": 14815, "annotation": {"number": 11, "value": 12}, "group": "control_change"}, {"time": 14835, "annotation": {"number": 11, "value": 11}, "group": "control_change"}, {"time": 14855, "annotation": {"number": 11, "value": 10}, "group": "control_change"}, {"time": 14875, "annotation": {"number": 11, "value": 9}, "group": "control_change"}, {"time": 14896, "annotation": {"number": 11, "value": 8}, "group": "control_change"}, {"time": 14916, "annotation": {"number": 11, "value": 7}, "group": "control_change"}, {"time": 14937, "annotation": {"number": 11, "value": 6}, "group": "control_change"}, {"time": 14957, "annotation": {"number": 11, "value": 5}, "group": "control_change"}, {"time": 14978, "annotation": {"number": 11, "value": 4}, "group": "control_change"}, {"time": 14998, "annotation": {"number": 11, "value": 3}, "group": "control_change"}, {"time": 14999, "annotation": {"number": 11, "value": 2}, "group": "control_change"}, {"time": 15164, "annotation": {"number": 11, "value": 1}, "group": "control_change"}, {"time": 15330, "annotation": {"number": 11, "value": 0}, "group": "control_change"}, {"time": 16177, "annotation": {"number": 11, "value": 0}, "group": "control_change"}, {"time": 19680, "annotation": {"number": 11, "value": 0}, "group": "control_change"}]}, {"program": 0, "is_drum": false, "name": "bell", "annotations": [{"time": 179, "annotation": {"number": 0, "value": 8}, "group": "control_change"}, {"time": 188, "annotation": {"number": 32, "value": 2}, "group": "control_change"}]}, {"program": 98, "is_drum": false, "name": "bell", "notes": [{"time": 13923, "pitch": 75, "duration": 574, "velocity": 112}, {"time": 14521, "pitch": 70, "duration": 141, "velocity": 93}, {"time": 14640, "pitch": 75, "duration": 120, "velocity": 90}, {"time": 14760, "pitch": 79, "duration": 109, "velocity": 96}, {"time": 14879, "pitch": 77, "duration": 624, "velocity": 107}, {"time": 15479, "pitch": 70, "duration": 134, "velocity": 93}, {"time": 15600, "pitch": 74, "duration": 129, "velocity": 87}, {"time": 15721, "pitch": 77, "duration": 126, "velocity": 70}, {"time": 15842, "pitch": 75, "duration": 613, "velocity": 106}, {"time": 16440, "pitch": 68, "duration": 137, "velocity": 93}, {"time": 16559, "pitch": 72, "duration": 134, "velocity": 77}, {"time": 16679, "pitch": 75, "duration": 76, "velocity": 69}, {"time": 16799, "pitch": 77, "duration": 330, "velocity": 98}, {"time": 17162, "pitch": 79, "duration": 333, "velocity": 96}, {"time": 17522, "pitch": 77, "duration": 243, "velocity": 94}, {"time": 17761, "pitch": 75, "duration": 602, "velocity": 103}, {"time": 18359, "pitch": 70, "duration": 132, "velocity": 93}, {"time": 18479, "pitch": 75, "duration": 111, "velocity": 74}, {"time": 18598, "pitch": 79, "duration": 100, "velocity": 96}, {"time": 18718, "pitch": 77, "duration": 623, "velocity": 94}, {"time": 19321, "pitch": 70, "duration": 132, "velocity": 98}, {"time": 19441, "pitch": 74, "duration": 124, "velocity": 84}, {"time": 19561, "pitch": 77, "duration": 111, "velocity": 88}, {"time": 19680, "pitch": 75, "duration": 613, "velocity": 94}, {"time": 20280, "pitch": 68, "duration": 141, "velocity": 90}, {"time": 20401, "pitch": 72, "duration": 142, "velocity": 75}, {"time": 20522, "pitch": 75, "duration": 76, "velocity": 57}, {"time": 20643, "pitch": 77, "duration": 335, "velocity": 102}, {"time": 21001, "pitch": 79, "duration": 347, "velocity": 91}, {"time": 21360, "pitch": 82, "duration": 268, "velocity": 93}, {"time": 21599, "pitch": 79, "duration": 1607, "velocity": 107}, {"time": 24481, "pitch": 82, "duration": 393, "velocity": 127}, {"time": 24959, "pitch": 81, "duration": 408, "velocity": 127}, {"time": 25438, "pitch": 80, "duration": 947, "velocity": 127}, {"time": 26400, "pitch": 74, "duration": 451, "velocity": 115}, {"time": 26879, "pitch": 80, "duration": 496, "velocity": 119}, {"time": 27363, "pitch": 72, "duration": 2320, "velocity": 111}, {"time": 30481, "pitch": 70, "duration": 262, "velocity": 123}, {"time": 30723, "pitch": 72, "duration": 248, "velocity": 111}, {"time": 30962, "pitch": 74, "duration": 224, "velocity": 108}, {"time": 31201, "pitch": 70, "duration": 1181, "velocity": 107}, {"time": 32400, "pitch": 72, "duration": 225, "velocity": 113}, {"time": 32642, "pitch": 74, "duration": 244, "velocity": 102}, {"time": 32881, "pitch": 75, "duration": 226, "velocity": 94}, {"time": 33120, "pitch": 72, "duration": 982, "velocity": 113}, {"time": 34083, "pitch": 70, "duration": 907, "velocity": 111}, {"time": 35039, "pitch": 75, "duration": 958, "velocity": 106}, {"time": 36002, "pitch": 80, "duration": 378, "velocity": 107}, {"time": 36361, "pitch": 79, "duration": 331, "velocity": 108}, {"time": 36719, "pitch": 77, "duration": 258, "velocity": 95}, {"time": 36959, "pitch": 75, "duration": 903, "velocity": 88}, {"time": 39840, "pitch": 82, "duration": 414, "velocity": 127}, {"time": 40319, "pitch": 81, "duration": 402, "velocity": 127}, {"time": 40803, "pitch": 80, "duration": 926, "velocity": 127}, {"time": 41759, "pitch": 74, "duration": 479, "velocity": 106}, {"time": 42238, "pitch": 80, "duration": 480, "velocity": 115}, {"time": 42722, "pitch": 72, "duration": 1451, "velocity": 97}, {"time": 45840, "pitch": 70, "duration": 241, "velocity": 118}, {"time": 46082, "pitch": 72, "duration": 243, "velocity": 111}, {"time": 46321, "pitch": 74, "duration": 222, "velocity": 106}, {"time": 46560, "pitch": 70, "duration": 1208, "velocity": 107}, {"time": 47762, "pitch": 72, "duration": 225, "velocity": 106}, {"time": 48001, "pitch": 74, "duration": 252, "velocity": 103}, {"time": 48240, "pitch": 75, "duration": 217, "velocity": 89}, {"time": 48479, "pitch": 72, "duration": 934, "velocity": 106}, {"time": 49442, "pitch": 70, "duration": 943, "velocity": 98}, {"time": 50399, "pitch": 75, "duration": 993, "velocity": 111}, {"time": 52318, "pitch": 75, "duration": 878, "velocity": 111}, {"time": 53280, "pitch": 77, "duration": 931, "velocity": 111}, {"time": 54243, "pitch": 79, "duration": 917, "velocity": 116}, {"time": 55199, "pitch": 84, "duration": 1482, "velocity": 109}, {"time": 60479, "pitch": 72, "duration": 440, "velocity": 116}, {"time": 60963, "pitch": 74, "duration": 415, "velocity": 116}, {"time": 61441, "pitch": 75, "duration": 460, "velocity": 116}, {"time": 61919, "pitch": 70, "duration": 1703, "velocity": 107}, {"time": 63839, "pitch": 75, "duration": 598, "velocity": 113}, {"time": 64442, "pitch": 70, "duration": 63, "velocity": 96}, {"time": 64562, "pitch": 75, "duration": 67, "velocity": 103}, {"time": 64681, "pitch": 79, "duration": 46, "velocity": 106}, {"time": 64801, "pitch": 77, "duration": 602, "velocity": 118}, {"time": 65399, "pitch": 70, "duration": 70, "velocity": 95}, {"time": 65519, "pitch": 74, "duration": 78, "velocity": 95}, {"time": 65638, "pitch": 77, "duration": 53, "velocity": 98}, {"time": 65758, "pitch": 75, "duration": 595, "velocity": 109}, {"time": 66361, "pitch": 68, "duration": 77, "velocity": 91}, {"time": 66481, "pitch": 72, "duration": 82, "velocity": 95}, {"time": 66601, "pitch": 75, "duration": 41, "velocity": 74}, {"time": 66720, "pitch": 77, "duration": 279, "velocity": 111}, {"time": 67079, "pitch": 79, "duration": 286, "velocity": 109}, {"time": 67441, "pitch": 77, "duration": 242, "velocity": 118}, {"time": 67683, "pitch": 75, "duration": 582, "velocity": 108}, {"time": 68281, "pitch": 70, "duration": 77, "velocity": 98}, {"time": 68400, "pitch": 75, "duration": 55, "velocity": 91}, {"time": 68520, "pitch": 79, "duration": 52, "velocity": 96}, {"time": 68639, "pitch": 77, "duration": 613, "velocity": 109}, {"time": 69239, "pitch": 70, "duration": 62, "velocity": 101}, {"time": 69360, "pitch": 74, "duration": 74, "velocity": 84}, {"time": 69481, "pitch": 77, "duration": 52, "velocity": 97}, {"time": 69602, "pitch": 75, "duration": 590, "velocity": 104}, {"time": 70200, "pitch": 68, "duration": 69, "velocity": 91}, {"time": 70319, "pitch": 72, "duration": 62, "velocity": 88}, {"time": 70439, "pitch": 75, "duration": 44, "velocity": 84}, {"time": 70559, "pitch": 77, "duration": 294, "velocity": 91}, {"time": 70922, "pitch": 79, "duration": 297, "velocity": 107}, {"time": 71282, "pitch": 82, "duration": 147, "velocity": 109}, {"time": 71521, "pitch": 79, "duration": 1951, "velocity": 109}, {"time": 74402, "pitch": 82, "duration": 418, "velocity": 127}, {"time": 74881, "pitch": 81, "duration": 356, "velocity": 114}, {"time": 75359, "pitch": 80, "duration": 946, "velocity": 125}, {"time": 76322, "pitch": 74, "duration": 486, "velocity": 106}, {"time": 76800, "pitch": 80, "duration": 450, "velocity": 112}, {"time": 77279, "pitch": 72, "duration": 1913, "velocity": 94}, {"time": 80399, "pitch": 70, "duration": 134, "velocity": 118}, {"time": 80639, "pitch": 72, "duration": 168, "velocity": 112}, {"time": 80881, "pitch": 74, "duration": 218, "velocity": 112}, {"time": 81122, "pitch": 70, "duration": 1005, "velocity": 107}, {"time": 82319, "pitch": 72, "duration": 192, "velocity": 113}, {"time": 82558, "pitch": 74, "duration": 251, "velocity": 104}, {"time": 82800, "pitch": 75, "duration": 219, "velocity": 99}, {"time": 83042, "pitch": 72, "duration": 932, "velocity": 107}, {"time": 83999, "pitch": 70, "duration": 925, "velocity": 108}, {"time": 84961, "pitch": 75, "duration": 935, "velocity": 102}, {"time": 85918, "pitch": 80, "duration": 447, "velocity": 107}, {"time": 86880, "pitch": 87, "duration": 479, "velocity": 96}, {"time": 88321, "pitch": 87, "duration": 415, "velocity": 96}, {"time": 88799, "pitch": 86, "duration": 406, "velocity": 96}, {"time": 90001, "pitch": 86, "duration": 278, "velocity": 94}, {"time": 90240, "pitch": 87, "duration": 237, "velocity": 84}, {"time": 90479, "pitch": 89, "duration": 232, "velocity": 82}, {"time": 90718, "pitch": 86, "duration": 471, "velocity": 88}, {"time": 91681, "pitch": 83, "duration": 439, "velocity": 96}, {"time": 92638, "pitch": 84, "duration": 497, "velocity": 96}, {"time": 93839, "pitch": 84, "duration": 288, "velocity": 92}, {"time": 94078, "pitch": 86, "duration": 273, "velocity": 82}, {"time": 94320, "pitch": 87, "duration": 235, "velocity": 100}, {"time": 94562, "pitch": 84, "duration": 469, "velocity": 100}, {"time": 95998, "pitch": 86, "duration": 293, "velocity": 108}, {"time": 96240, "pitch": 87, "duration": 181, "velocity": 100}, {"time": 96482, "pitch": 86, "duration": 447, "velocity": 101}, {"time": 97922, "pitch": 87, "duration": 273, "velocity": 109}, {"time": 98162, "pitch": 89, "duration": 189, "velocity": 100}, {"time": 98401, "pitch": 86, "duration": 464, "velocity": 103}, {"time": 99358, "pitch": 83, "duration": 509, "velocity": 111}, {"time": 100320, "pitch": 84, "duration": 498, "velocity": 106}, {"time": 101522, "pitch": 84, "duration": 279, "velocity": 99}, {"time": 101761, "pitch": 86, "duration": 260, "velocity": 104}, {"time": 102000, "pitch": 87, "duration": 218, "velocity": 107}, {"time": 102239, "pitch": 80, "duration": 1087, "velocity": 99}, {"time": 104158, "pitch": 82, "duration": 638, "velocity": 111}, {"time": 106078, "pitch": 75, "duration": 849, "velocity": 106}, {"time": 107040, "pitch": 77, "duration": 827, "velocity": 111}, {"time": 108002, "pitch": 79, "duration": 812, "velocity": 111}, {"time": 108959, "pitch": 84, "duration": 1478, "velocity": 111}, {"time": 114238, "pitch": 72, "duration": 475, "velocity": 111}, {"time": 114722, "pitch": 74, "duration": 472, "velocity": 106}, {"time": 115201, "pitch": 75, "duration": 470, "velocity": 97}, {"time": 115679, "pitch": 70, "duration": 1894, "velocity": 102}, {"time": 117598, "pitch": 75, "duration": 940, "velocity": 108}, {"time": 118561, "pitch": 77, "duration": 947, "velocity": 119}, {"time": 119518, "pitch": 79, "duration": 929, "velocity": 109}, {"time": 120480, "pitch": 84, "duration": 2334, "velocity": 111}, {"time": 125759, "pitch": 72, "duration": 447, "velocity": 113}, {"time": 126238, "pitch": 74, "duration": 491, "velocity": 113}, {"time": 126722, "pitch": 75, "duration": 474, "velocity": 108}, {"time": 127200, "pitch": 70, "duration": 1921, "velocity": 103}, {"time": 129119, "pitch": 75, "duration": 568, "velocity": 112}, {"time": 129719, "pitch": 70, "duration": 146, "velocity": 93}, {"time": 129840, "pitch": 75, "duration": 120, "velocity": 94}, {"time": 129961, "pitch": 79, "duration": 92, "velocity": 87}, {"time": 130082, "pitch": 77, "duration": 619, "velocity": 103}, {"time": 130680, "pitch": 70, "duration": 127, "velocity": 84}, {"time": 130799, "pitch": 74, "duration": 138, "velocity": 83}, {"time": 130919, "pitch": 77, "duration": 101, "velocity": 78}, {"time": 131038, "pitch": 75, "duration": 607, "velocity": 101}, {"time": 131642, "pitch": 68, "duration": 129, "velocity": 91}, {"time": 131762, "pitch": 72, "duration": 121, "velocity": 86}, {"time": 131881, "pitch": 75, "duration": 66, "velocity": 71}, {"time": 132001, "pitch": 77, "duration": 310, "velocity": 94}, {"time": 132360, "pitch": 79, "duration": 332, "velocity": 106}, {"time": 132718, "pitch": 77, "duration": 242, "velocity": 98}, {"time": 132958, "pitch": 75, "duration": 605, "velocity": 109}, {"time": 133561, "pitch": 70, "duration": 86, "velocity": 90}, {"time": 133681, "pitch": 75, "duration": 108, "velocity": 88}, {"time": 133800, "pitch": 79, "duration": 78, "velocity": 89}, {"time": 133920, "pitch": 77, "duration": 628, "velocity": 97}, {"time": 134519, "pitch": 70, "duration": 112, "velocity": 95}, {"time": 134640, "pitch": 74, "duration": 120, "velocity": 86}, {"time": 134761, "pitch": 77, "duration": 78, "velocity": 89}, {"time": 134882, "pitch": 75, "duration": 592, "velocity": 99}, {"time": 135480, "pitch": 68, "duration": 137, "velocity": 90}, {"time": 135600, "pitch": 72, "duration": 125, "velocity": 87}, {"time": 135720, "pitch": 75, "duration": 45, "velocity": 69}, {"time": 135839, "pitch": 77, "duration": 298, "velocity": 95}, {"time": 136198, "pitch": 79, "duration": 283, "velocity": 96}, {"time": 136560, "pitch": 82, "duration": 192, "velocity": 102}, {"time": 136802, "pitch": 79, "duration": 592, "velocity": 104}, {"time": 137400, "pitch": 70, "duration": 76, "velocity": 95}, {"time": 137519, "pitch": 75, "duration": 91, "velocity": 89}, {"time": 137639, "pitch": 79, "duration": 57, "velocity": 97}, {"time": 137758, "pitch": 77, "duration": 607, "velocity": 98}, {"time": 138362, "pitch": 70, "duration": 74, "velocity": 87}, {"time": 138482, "pitch": 74, "duration": 118, "velocity": 82}, {"time": 138601, "pitch": 77, "duration": 66, "velocity": 87}, {"time": 138721, "pitch": 75, "duration": 612, "velocity": 95}, {"time": 139319, "pitch": 68, "duration": 95, "velocity": 90}, {"time": 139438, "pitch": 72, "duration": 126, "velocity": 87}, {"time": 139558, "pitch": 75, "duration": 49, "velocity": 73}, {"time": 139678, "pitch": 77, "duration": 271, "velocity": 97}, {"time": 140041, "pitch": 79, "duration": 348, "velocity": 95}, {"time": 140401, "pitch": 82, "duration": 247, "velocity": 98}, {"time": 140640, "pitch": 79, "duration": 2968, "velocity": 106}], "annotations": [{"time": 207, "annotation": {"number": 7, "value": 70}, "group": "control_change"}, {"time": 216, "annotation": {"number": 11, "value": 120}, "group": "control_change"}, {"time": 226, "annotation": {"number": 10, "value": 20}, "group": "control_change"}, {"time": 235, "annotation": {"number": 91, "value": 80}, "group": "control_change"}, {"time": 244, "annotation": {"number": 93, "value": 40}, "group": "control_change"}, {"time": 254, "annotation": {"number": 101, "value": 0}, "group": "control_change"}, {"time": 263, "annotation": {"number": 100, "value": 0}, "group": "control_change"}, {"time": 273, "annotation": {"number": 6, "value": 12}, "group": "control_change"}, {"time": 282, "annotation": {"number": 101, "value": 127}, "group": "control_change"}, {"time": 291, "annotation": {"number": 100, "value": 127}, "group": "control_change"}]}, {"program": 0, "is_drum": false, "name": "PAD", "annotations": [{"time": 179, "annotation": {"number": 0, "value": 0}, "group": "control_change"}, {"time": 188, "annotation": {"number": 32, "value": 2}, "group": "control_change"}]}, {"program": 89, "is_drum": false, "name": "PAD", "notes": [{"time": 13923, "pitch": 75, "duration": 7642, "velocity": 65}, {"time": 13923, "pitch": 82, "duration": 1869, "velocity": 77}, {"time": 13923, "pitch": 87, "duration": 952, "velocity": 76}, {"time": 13923, "pitch": 91, "duration": 952, "velocity": 71}, {"time": 14879, "pitch": 86, "duration": 959, "velocity": 70}, {"time": 14879, "pitch": 89, "duration": 959, "velocity": 85}, {"time": 15842, "pitch": 80, "duration": 953, "velocity": 77}, {"time": 15842, "pitch": 84, "duration": 953, "velocity": 75}, {"time": 15842, "pitch": 87, "duration": 953, "velocity": 72}, {"time": 16799, "pitch": 82, "duration": 2825, "velocity": 74}, {"time": 16799, "pitch": 86, "duration": 359, "velocity": 87}, {"time": 16799, "pitch": 89, "duration": 359, "velocity": 59}, {"time": 17162, "pitch": 87, "duration": 356, "velocity": 82}, {"time": 17162, "pitch": 91, "duration": 356, "velocity": 80}, {"time": 17522, "pitch": 86, "duration": 235, "velocity": 66}, {"time": 17522, "pitch": 89, "duration": 235, "velocity": 72}, {"time": 17761, "pitch": 87, "duration": 953, "velocity": 73}, {"time": 17761, "pitch": 91, "duration": 953, "velocity": 55}, {"time": 18718, "pitch": 86, "duration": 958, "velocity": 57}, {"time": 18718, "pitch": 89, "duration": 958, "velocity": 62}, {"time": 19680, "pitch": 80, "duration": 959, "velocity": 72}, {"time": 19680, "pitch": 84, "duration": 959, "velocity": 74}, {"time": 19680, "pitch": 87, "duration": 959, "velocity": 69}, {"time": 20643, "pitch": 82, "duration": 2863, "velocity": 75}, {"time": 20643, "pitch": 86, "duration": 354, "velocity": 89}, {"time": 20643, "pitch": 89, "duration": 354, "velocity": 74}, {"time": 21001, "pitch": 87, "duration": 355, "velocity": 78}, {"time": 21001, "pitch": 91, "duration": 355, "velocity": 88}, {"time": 21360, "pitch": 86, "duration": 235, "velocity": 70}, {"time": 21360, "pitch": 89, "duration": 235, "velocity": 75}, {"time": 21599, "pitch": 75, "duration": 1869, "velocity": 63}, {"time": 21599, "pitch": 87, "duration": 1961, "velocity": 88}, {"time": 21599, "pitch": 91, "duration": 1971, "velocity": 75}, {"time": 51361, "pitch": 67, "duration": 453, "velocity": 89}, {"time": 51361, "pitch": 79, "duration": 474, "velocity": 69}, {"time": 51361, "pitch": 82, "duration": 474, "velocity": 72}, {"time": 51361, "pitch": 87, "duration": 474, "velocity": 49}, {"time": 51839, "pitch": 70, "duration": 454, "velocity": 89}, {"time": 51839, "pitch": 82, "duration": 475, "velocity": 71}, {"time": 51839, "pitch": 87, "duration": 475, "velocity": 76}, {"time": 51839, "pitch": 91, "duration": 475, "velocity": 50}, {"time": 52318, "pitch": 75, "duration": 958, "velocity": 64}, {"time": 52318, "pitch": 87, "duration": 958, "velocity": 60}, {"time": 52318, "pitch": 91, "duration": 958, "velocity": 79}, {"time": 53280, "pitch": 77, "duration": 959, "velocity": 75}, {"time": 53280, "pitch": 87, "duration": 959, "velocity": 77}, {"time": 53280, "pitch": 92, "duration": 959, "velocity": 78}, {"time": 53280, "pitch": 96, "duration": 959, "velocity": 38}, {"time": 54243, "pitch": 79, "duration": 952, "velocity": 80}, {"time": 54243, "pitch": 89, "duration": 952, "velocity": 62}, {"time": 54243, "pitch": 94, "duration": 952, "velocity": 64}, {"time": 54243, "pitch": 98, "duration": 952, "velocity": 46}, {"time": 55199, "pitch": 72, "duration": 475, "velocity": 83}, {"time": 55199, "pitch": 84, "duration": 475, "velocity": 51}, {"time": 55199, "pitch": 87, "duration": 475, "velocity": 73}, {"time": 55199, "pitch": 91, "duration": 1904, "velocity": 73}, {"time": 55678, "pitch": 70, "duration": 480, "velocity": 86}, {"time": 55678, "pitch": 82, "duration": 480, "velocity": 58}, {"time": 55678, "pitch": 86, "duration": 480, "velocity": 71}, {"time": 56162, "pitch": 68, "duration": 1919, "velocity": 74}, {"time": 56162, "pitch": 84, "duration": 953, "velocity": 44}, {"time": 56162, "pitch": 87, "duration": 953, "velocity": 69}, {"time": 57119, "pitch": 82, "duration": 958, "velocity": 73}, {"time": 57119, "pitch": 86, "duration": 1915, "velocity": 88}, {"time": 57119, "pitch": 89, "duration": 1915, "velocity": 28}, {"time": 58081, "pitch": 67, "duration": 474, "velocity": 68}, {"time": 58081, "pitch": 82, "duration": 474, "velocity": 88}, {"time": 58559, "pitch": 71, "duration": 475, "velocity": 77}, {"time": 58559, "pitch": 83, "duration": 475, "velocity": 76}, {"time": 59038, "pitch": 72, "duration": 480, "velocity": 81}, {"time": 59038, "pitch": 84, "duration": 480, "velocity": 71}, {"time": 59038, "pitch": 87, "duration": 480, "velocity": 85}, {"time": 59038, "pitch": 91, "duration": 2908, "velocity": 74}, {"time": 59522, "pitch": 70, "duration": 474, "velocity": 85}, {"time": 59522, "pitch": 82, "duration": 474, "velocity": 68}, {"time": 59522, "pitch": 86, "duration": 474, "velocity": 69}, {"time": 60000, "pitch": 68, "duration": 1915, "velocity": 72}, {"time": 60000, "pitch": 84, "duration": 1915, "velocity": 40}, {"time": 60000, "pitch": 87, "duration": 1915, "velocity": 65}, {"time": 61919, "pitch": 70, "duration": 1916, "velocity": 95}, {"time": 61919, "pitch": 80, "duration": 1916, "velocity": 82}, {"time": 61919, "pitch": 84, "duration": 1916, "velocity": 81}, {"time": 61919, "pitch": 87, "duration": 1916, "velocity": 75}, {"time": 63839, "pitch": 75, "duration": 7630, "velocity": 76}, {"time": 63839, "pitch": 82, "duration": 1868, "velocity": 24}, {"time": 63839, "pitch": 87, "duration": 958, "velocity": 75}, {"time": 63839, "pitch": 91, "duration": 958, "velocity": 69}, {"time": 64801, "pitch": 86, "duration": 953, "velocity": 82}, {"time": 64801, "pitch": 89, "duration": 953, "velocity": 69}, {"time": 65758, "pitch": 80, "duration": 958, "velocity": 86}, {"time": 65758, "pitch": 84, "duration": 958, "velocity": 71}, {"time": 65758, "pitch": 87, "duration": 958, "velocity": 75}, {"time": 66720, "pitch": 82, "duration": 2817, "velocity": 61}, {"time": 66720, "pitch": 86, "duration": 355, "velocity": 81}, {"time": 66720, "pitch": 89, "duration": 355, "velocity": 77}, {"time": 67079, "pitch": 87, "duration": 357, "velocity": 87}, {"time": 67079, "pitch": 91, "duration": 357, "velocity": 87}, {"time": 67441, "pitch": 86, "duration": 238, "velocity": 62}, {"time": 67441, "pitch": 89, "duration": 238, "velocity": 78}, {"time": 67683, "pitch": 87, "duration": 952, "velocity": 72}, {"time": 67683, "pitch": 91, "duration": 952, "velocity": 75}, {"time": 68639, "pitch": 86, "duration": 959, "velocity": 64}, {"time": 68639, "pitch": 89, "duration": 959, "velocity": 73}, {"time": 69602, "pitch": 80, "duration": 953, "velocity": 70}, {"time": 69602, "pitch": 84, "duration": 953, "velocity": 75}, {"time": 69602, "pitch": 87, "duration": 953, "velocity": 69}, {"time": 70559, "pitch": 82, "duration": 2831, "velocity": 61}, {"time": 70559, "pitch": 86, "duration": 358, "velocity": 82}, {"time": 70559, "pitch": 89, "duration": 358, "velocity": 73}, {"time": 70922, "pitch": 87, "duration": 356, "velocity": 82}, {"time": 70922, "pitch": 91, "duration": 356, "velocity": 78}, {"time": 71282, "pitch": 86, "duration": 235, "velocity": 84}, {"time": 71282, "pitch": 89, "duration": 235, "velocity": 81}, {"time": 71521, "pitch": 75, "duration": 1912, "velocity": 78}, {"time": 71521, "pitch": 87, "duration": 1901, "velocity": 94}, {"time": 71521, "pitch": 91, "duration": 1857, "velocity": 81}, {"time": 105599, "pitch": 70, "duration": 475, "velocity": 43}, {"time": 105599, "pitch": 80, "duration": 475, "velocity": 35}, {"time": 105599, "pitch": 84, "duration": 475, "velocity": 59}, {"time": 105599, "pitch": 87, "duration": 475, "velocity": 37}, {"time": 106078, "pitch": 75, "duration": 958, "velocity": 65}, {"time": 106078, "pitch": 82, "duration": 958, "velocity": 69}, {"time": 106078, "pitch": 87, "duration": 958, "velocity": 59}, {"time": 106078, "pitch": 91, "duration": 958, "velocity": 69}, {"time": 107040, "pitch": 77, "duration": 958, "velocity": 48}, {"time": 107040, "pitch": 87, "duration": 958, "velocity": 50}, {"time": 107040, "pitch": 92, "duration": 958, "velocity": 5}, {"time": 107160, "pitch": 96, "duration": 838, "velocity": 7}, {"time": 108002, "pitch": 79, "duration": 953, "velocity": 68}, {"time": 108002, "pitch": 89, "duration": 953, "velocity": 68}, {"time": 108002, "pitch": 94, "duration": 953, "velocity": 31}, {"time": 108002, "pitch": 98, "duration": 953, "velocity": 64}, {"time": 108959, "pitch": 72, "duration": 475, "velocity": 62}, {"time": 108959, "pitch": 84, "duration": 475, "velocity": 53}, {"time": 108959, "pitch": 87, "duration": 475, "velocity": 57}, {"time": 108959, "pitch": 91, "duration": 1857, "velocity": 54}, {"time": 109438, "pitch": 70, "duration": 480, "velocity": 65}, {"time": 109438, "pitch": 82, "duration": 480, "velocity": 45}, {"time": 109438, "pitch": 86, "duration": 480, "velocity": 55}, {"time": 109922, "pitch": 68, "duration": 1906, "velocity": 56}, {"time": 109922, "pitch": 84, "duration": 952, "velocity": 46}, {"time": 109922, "pitch": 87, "duration": 952, "velocity": 70}, {"time": 110878, "pitch": 82, "duration": 1437, "velocity": 29}, {"time": 110878, "pitch": 86, "duration": 1916, "velocity": 47}, {"time": 110878, "pitch": 89, "duration": 1916, "velocity": 47}, {"time": 111841, "pitch": 67, "duration": 474, "velocity": 90}, {"time": 112319, "pitch": 71, "duration": 475, "velocity": 81}, {"time": 112319, "pitch": 83, "duration": 475, "velocity": 80}, {"time": 112798, "pitch": 72, "duration": 480, "velocity": 73}, {"time": 112798, "pitch": 84, "duration": 480, "velocity": 72}, {"time": 112798, "pitch": 87, "duration": 480, "velocity": 66}, {"time": 112798, "pitch": 91, "duration": 2784, "velocity": 71}, {"time": 113282, "pitch": 70, "duration": 474, "velocity": 76}, {"time": 113282, "pitch": 82, "duration": 474, "velocity": 60}, {"time": 113282, "pitch": 86, "duration": 474, "velocity": 60}, {"time": 113760, "pitch": 68, "duration": 1915, "velocity": 70}, {"time": 113760, "pitch": 84, "duration": 1915, "velocity": 60}, {"time": 113760, "pitch": 87, "duration": 1915, "velocity": 69}, {"time": 115679, "pitch": 70, "duration": 1915, "velocity": 75}, {"time": 115679, "pitch": 80, "duration": 1915, "velocity": 55}, {"time": 115679, "pitch": 84, "duration": 1915, "velocity": 69}, {"time": 115679, "pitch": 87, "duration": 1915, "velocity": 60}, {"time": 117598, "pitch": 75, "duration": 959, "velocity": 67}, {"time": 117598, "pitch": 82, "duration": 959, "velocity": 66}, {"time": 117598, "pitch": 87, "duration": 959, "velocity": 59}, {"time": 117598, "pitch": 91, "duration": 959, "velocity": 67}, {"time": 118561, "pitch": 77, "duration": 953, "velocity": 60}, {"time": 118561, "pitch": 87, "duration": 953, "velocity": 63}, {"time": 118561, "pitch": 92, "duration": 953, "velocity": 77}, {"time": 118561, "pitch": 96, "duration": 953, "velocity": 60}, {"time": 119518, "pitch": 79, "duration": 958, "velocity": 73}, {"time": 119518, "pitch": 89, "duration": 958, "velocity": 75}, {"time": 119518, "pitch": 94, "duration": 958, "velocity": 65}, {"time": 119518, "pitch": 98, "duration": 958, "velocity": 65}, {"time": 120480, "pitch": 72, "duration": 474, "velocity": 75}, {"time": 120480, "pitch": 84, "duration": 474, "velocity": 60}, {"time": 120480, "pitch": 87, "duration": 474, "velocity": 62}, {"time": 120480, "pitch": 91, "duration": 1868, "velocity": 56}, {"time": 120958, "pitch": 70, "duration": 480, "velocity": 75}, {"time": 120958, "pitch": 82, "duration": 480, "velocity": 69}, {"time": 120958, "pitch": 86, "duration": 480, "velocity": 74}, {"time": 121442, "pitch": 68, "duration": 1886, "velocity": 73}, {"time": 121442, "pitch": 84, "duration": 953, "velocity": 68}, {"time": 121442, "pitch": 87, "duration": 953, "velocity": 82}, {"time": 122399, "pitch": 82, "duration": 1437, "velocity": 59}, {"time": 122399, "pitch": 86, "duration": 1915, "velocity": 62}, {"time": 122399, "pitch": 89, "duration": 1915, "velocity": 58}, {"time": 123362, "pitch": 67, "duration": 474, "velocity": 87}, {"time": 123840, "pitch": 71, "duration": 474, "velocity": 76}, {"time": 123840, "pitch": 83, "duration": 474, "velocity": 68}, {"time": 124318, "pitch": 72, "duration": 480, "velocity": 74}, {"time": 124318, "pitch": 84, "duration": 480, "velocity": 70}, {"time": 124318, "pitch": 87, "duration": 480, "velocity": 74}, {"time": 124318, "pitch": 91, "duration": 2878, "velocity": 48}, {"time": 124802, "pitch": 70, "duration": 475, "velocity": 71}, {"time": 124802, "pitch": 82, "duration": 475, "velocity": 72}, {"time": 124802, "pitch": 86, "duration": 475, "velocity": 51}, {"time": 125281, "pitch": 68, "duration": 1915, "velocity": 69}, {"time": 125281, "pitch": 84, "duration": 1915, "velocity": 52}, {"time": 125281, "pitch": 87, "duration": 1915, "velocity": 64}, {"time": 126238, "pitch": 96, "duration": 958, "velocity": 17}, {"time": 127200, "pitch": 70, "duration": 1915, "velocity": 90}, {"time": 127200, "pitch": 80, "duration": 1915, "velocity": 74}, {"time": 127200, "pitch": 84, "duration": 1915, "velocity": 57}, {"time": 127200, "pitch": 87, "duration": 1915, "velocity": 55}, {"time": 129119, "pitch": 75, "duration": 15823, "velocity": 76}, {"time": 129119, "pitch": 82, "duration": 1874, "velocity": 53}, {"time": 129119, "pitch": 87, "duration": 959, "velocity": 69}, {"time": 129119, "pitch": 91, "duration": 959, "velocity": 69}, {"time": 130082, "pitch": 86, "duration": 952, "velocity": 60}, {"time": 130082, "pitch": 89, "duration": 952, "velocity": 68}, {"time": 131038, "pitch": 80, "duration": 959, "velocity": 61}, {"time": 131038, "pitch": 84, "duration": 959, "velocity": 59}, {"time": 131038, "pitch": 87, "duration": 959, "velocity": 59}, {"time": 132001, "pitch": 82, "duration": 2838, "velocity": 73}, {"time": 132001, "pitch": 86, "duration": 355, "velocity": 74}, {"time": 132001, "pitch": 89, "duration": 355, "velocity": 62}, {"time": 132360, "pitch": 87, "duration": 354, "velocity": 74}, {"time": 132360, "pitch": 91, "duration": 354, "velocity": 88}, {"time": 132718, "pitch": 86, "duration": 236, "velocity": 61}, {"time": 132718, "pitch": 89, "duration": 236, "velocity": 67}, {"time": 132958, "pitch": 87, "duration": 904, "velocity": 55}, {"time": 132958, "pitch": 91, "duration": 895, "velocity": 79}, {"time": 133920, "pitch": 86, "duration": 903, "velocity": 47}, {"time": 133920, "pitch": 89, "duration": 891, "velocity": 58}, {"time": 134882, "pitch": 80, "duration": 953, "velocity": 69}, {"time": 134882, "pitch": 84, "duration": 953, "velocity": 60}, {"time": 134882, "pitch": 87, "duration": 953, "velocity": 49}, {"time": 135839, "pitch": 82, "duration": 2852, "velocity": 69}, {"time": 135839, "pitch": 86, "duration": 355, "velocity": 69}, {"time": 135839, "pitch": 89, "duration": 355, "velocity": 73}, {"time": 136198, "pitch": 87, "duration": 358, "velocity": 70}, {"time": 136198, "pitch": 91, "duration": 358, "velocity": 76}, {"time": 136560, "pitch": 86, "duration": 238, "velocity": 55}, {"time": 136560, "pitch": 89, "duration": 238, "velocity": 60}, {"time": 136802, "pitch": 87, "duration": 952, "velocity": 58}, {"time": 136802, "pitch": 91, "duration": 952, "velocity": 45}, {"time": 137758, "pitch": 86, "duration": 959, "velocity": 59}, {"time": 137758, "pitch": 89, "duration": 959, "velocity": 59}, {"time": 138721, "pitch": 80, "duration": 953, "velocity": 60}, {"time": 138721, "pitch": 84, "duration": 953, "velocity": 73}, {"time": 138721, "pitch": 87, "duration": 953, "velocity": 68}, {"time": 139678, "pitch": 82, "duration": 5221, "velocity": 65}, {"time": 139678, "pitch": 86, "duration": 359, "velocity": 65}, {"time": 139678, "pitch": 89, "duration": 359, "velocity": 74}, {"time": 140041, "pitch": 87, "duration": 356, "velocity": 72}, {"time": 140041, "pitch": 91, "duration": 356, "velocity": 69}, {"time": 140401, "pitch": 86, "duration": 235, "velocity": 57}, {"time": 140401, "pitch": 89, "duration": 235, "velocity": 70}, {"time": 140640, "pitch": 87, "duration": 4307, "velocity": 49}, {"time": 140640, "pitch": 91, "duration": 4307, "velocity": 42}], "annotations": [{"time": 207, "annotation": {"number": 7, "value": 60}, "group": "control_change"}, {"time": 216, "annotation": {"number": 11, "value": 120}, "group": "control_change"}, {"time": 226, "annotation": {"number": 10, "value": 64}, "group": "control_change"}, {"time": 235, "annotation": {"number": 91, "value": 50}, "group": "control_change"}, {"time": 244, "annotation": {"number": 93, "value": 0}, "group": "control_change"}, {"time": 254, "annotation": {"number": 101, "value": 0}, "group": "control_change"}, {"time": 263, "annotation": {"number": 100, "value": 0}, "group": "control_change"}, {"time": 273, "annotation": {"number": 6, "value": 12}, "group": "control_change"}, {"time": 282, "annotation": {"number": 101, "value": 127}, "group": "control_change"}, {"time": 291, "annotation": {"number": 100, "value": 127}, "group": "control_change"}, {"time": 142559, "annotation": {"number": 11, "value": 120}, "group": "control_change"}, {"time": 142599, "annotation": {"number": 11, "value": 119}, "group": "control_change"}, {"time": 142629, "annotation": {"number": 11, "value": 118}, "group": "control_change"}, {"time": 142659, "annotation": {"number": 11, "value": 117}, "group": "control_change"}, {"time": 142689, "annotation": {"number": 11, "value": 116}, "group": "control_change"}, {"time": 142719, "annotation": {"number": 11, "value": 115}, "group": "control_change"}, {"time": 142759, "annotation": {"number": 11, "value": 114}, "group": "control_change"}, {"time": 142788, "annotation": {"number": 11, "value": 113}, "group": "control_change"}, {"time": 142818, "annotation": {"number": 11, "value": 112}, "group": "control_change"}, {"time": 142848, "annotation": {"number": 11, "value": 111}, "group": "control_change"}, {"time": 142878, "annotation": {"number": 11, "value": 110}, "group": "control_change"}, {"time": 142918, "annotation": {"number": 11, "value": 109}, "group": "control_change"}, {"time": 142948, "annotation": {"number": 11, "value": 108}, "group": "control_change"}, {"time": 142978, "annotation": {"number": 11, "value": 107}, "group": "control_change"}, {"time": 143008, "annotation": {"number": 11, "value": 106}, "group": "control_change"}, {"time": 143038, "annotation": {"number": 11, "value": 105}, "group": "control_change"}, {"time": 143078, "annotation": {"number": 11, "value": 104}, "group": "control_change"}, {"time": 143107, "annotation": {"number": 11, "value": 103}, "group": "control_change"}, {"time": 143137, "annotation": {"number": 11, "value": 102}, "group": "control_change"}, {"time": 143167, "annotation": {"number": 11, "value": 101}, "group": "control_change"}, {"time": 143197, "annotation": {"number": 11, "value": 100}, "group": "control_change"}, {"time": 143237, "annotation": {"number": 11, "value": 99}, "group": "control_change"}, {"time": 143267, "annotation": {"number": 11, "value": 98}, "group": "control_change"}, {"time": 143297, "annotation": {"number": 11, "value": 97}, "group": "control_change"}, {"time": 143327, "annotation": {"number": 11, "value": 96}, "group": "control_change"}, {"time": 143357, "annotation": {"number": 11, "value": 95}, "group": "control_change"}, {"time": 143396, "annotation": {"number": 11, "value": 94}, "group": "control_change"}, {"time": 143426, "annotation": {"number": 11, "value": 93}, "group": "control_change"}, {"time": 143456, "annotation": {"number": 11, "value": 92}, "group": "control_change"}, {"time": 143486, "annotation": {"number": 11, "value": 91}, "group": "control_change"}, {"time": 143516, "annotation": {"number": 11, "value": 90}, "group": "control_change"}, {"time": 143556, "annotation": {"number": 11, "value": 89}, "group": "control_change"}, {"time": 143586, "annotation": {"number": 11, "value": 88}, "group": "control_change"}, {"time": 143616, "annotation": {"number": 11, "value": 87}, "group": "control_change"}, {"time": 143646, "annotation": {"number": 11, "value": 86}, "group": "control_change"}, {"time": 143676, "annotation": {"number": 11, "value": 85}, "group": "control_change"}, {"time": 143715, "annotation": {"number": 11, "value": 84}, "group": "control_change"}, {"time": 143745, "annotation": {"number": 11, "value": 83}, "group": "control_change"}, {"time": 143775, "annotation": {"number": 11, "value": 82}, "group": "control_change"}, {"time": 143805, "annotation": {"number": 11, "value": 81}, "group": "control_change"}, {"time": 143835, "annotation": {"number": 11, "value": 80}, "group": "control_change"}, {"time": 143875, "annotation": {"number": 11, "value": 79}, "group": "control_change"}, {"time": 143905, "annotation": {"number": 11, "value": 78}, "group": "control_change"}, {"time": 143935, "annotation": {"number": 11, "value": 77}, "group": "control_change"}, {"time": 143965, "annotation": {"number": 11, "value": 76}, "group": "control_change"}, {"time": 143994, "annotation": {"number": 11, "value": 75}, "group": "control_change"}, {"time": 144034, "annotation": {"number": 11, "value": 74}, "group": "control_change"}, {"time": 144064, "annotation": {"number": 11, "value": 73}, "group": "control_change"}, {"time": 144094, "annotation": {"number": 11, "value": 72}, "group": "control_change"}, {"time": 144124, "annotation": {"number": 11, "value": 71}, "group": "control_change"}, {"time": 144154, "annotation": {"number": 11, "value": 70}, "group": "control_change"}, {"time": 144194, "annotation": {"number": 11, "value": 69}, "group": "control_change"}, {"time": 144224, "annotation": {"number": 11, "value": 68}, "group": "control_change"}, {"time": 144254, "annotation": {"number": 11, "value": 67}, "group": "control_change"}, {"time": 144283, "annotation": {"number": 11, "value": 66}, "group": "control_change"}, {"time": 144313, "annotation": {"number": 11, "value": 65}, "group": "control_change"}, {"time": 144353, "annotation": {"number": 11, "value": 64}, "group": "control_change"}, {"time": 144383, "annotation": {"number": 11, "value": 63}, "group": "control_change"}, {"time": 144413, "annotation": {"number": 11, "value": 62}, "group": "control_change"}, {"time": 144443, "annotation": {"number": 11, "value": 61}, "group": "control_change"}, {"time": 144473, "annotation": {"number": 11, "value": 60}, "group": "control_change"}, {"time": 144513, "annotation": {"number": 11, "value": 59}, "group": "control_change"}, {"time": 144543, "annotation": {"number": 11, "value": 58}, "group": "control_change"}, {"time": 144573, "annotation": {"number": 11, "value": 57}, "group": "control_change"}, {"time": 144602, "annotation": {"number": 11, "value": 56}, "group": "control_change"}, {"time": 144632, "annotation": {"number": 11, "value": 55}, "group": "control_change"}, {"time": 144672, "annotation": {"number": 11, "value": 54}, "group": "control_change"}, {"time": 144702, "annotation": {"number": 11, "value": 53}, "group": "control_change"}, {"time": 144732, "annotation": {"number": 11, "value": 52}, "group": "control_change"}, {"time": 144762, "annotation": {"number": 11, "value": 51}, "group": "control_change"}, {"time": 144792, "annotation": {"number": 11, "value": 50}, "group": "control_change"}, {"time": 144832, "annotation": {"number": 11, "value": 49}, "group": "control_change"}, {"time": 144862, "annotation": {"number": 11, "value": 48}, "group": "control_change"}, {"time": 144891, "annotation": {"number": 11, "value": 47}, "group": "control_change"}, {"time": 144921, "annotation": {"number": 11, "value": 46}, "group": "control_change"}, {"time": 144951, "annotation": {"number": 11, "value": 45}, "group": "control_change"}, {"time": 144991, "annotation": {"number": 11, "value": 44}, "group": "control_change"}, {"time": 145021, "annotation": {"number": 11, "value": 43}, "group": "control_change"}, {"time": 145051, "annotation": {"number": 11, "value": 42}, "group": "control_change"}, {"time": 145081, "annotation": {"number": 11, "value": 41}, "group": "control_change"}, {"time": 145111, "annotation": {"number": 11, "value": 40}, "group": "control_change"}, {"time": 145151, "annotation": {"number": 11, "value": 39}, "group": "control_change"}, {"time": 145181, "annotation": {"number": 11, "value": 38}, "group": "control_change"}, {"time": 145210, "annotation": {"number": 11, "value": 37}, "group": "control_change"}, {"time": 145240, "annotation": {"number": 11, "value": 36}, "group": "control_change"}, {"time": 145270, "annotation": {"number": 11, "value": 35}, "group": "control_change"}, {"time": 145310, "annotation": {"number": 11, "value": 34}, "group": "control_change"}, {"time": 145340, "annotation": {"number": 11, "value": 33}, "group": "control_change"}, {"time": 145370, "annotation": {"number": 11, "value": 32}, "group": "control_change"}, {"time": 145400, "annotation": {"number": 11, "value": 31}, "group": "control_change"}, {"time": 145430, "annotation": {"number": 11, "value": 30}, "group": "control_change"}, {"time": 145470, "annotation": {"number": 11, "value": 29}, "group": "control_change"}, {"time": 145499, "annotation": {"number": 11, "value": 28}, "group": "control_change"}, {"time": 145529, "annotation": {"number": 11, "value": 27}, "group": "control_change"}, {"time": 145559, "annotation": {"number": 11, "value": 26}, "group": "control_change"}, {"time": 145589, "annotation": {"number": 11, "value": 25}, "group": "control_change"}, {"time": 145629, "annotation": {"number": 11, "value": 24}, "group": "control_change"}, {"time": 145659, "annotation": {"number": 11, "value": 23}, "group": "control_change"}, {"time": 145689, "annotation": {"number": 11, "value": 22}, "group": "control_change"}, {"time": 145719, "annotation": {"number": 11, "value": 21}, "group": "control_change"}, {"time": 145749, "annotation": {"number": 11, "value": 20}, "group": "control_change"}, {"time": 145788, "annotation": {"number": 11, "value": 19}, "group": "control_change"}, {"time": 145818, "annotation": {"number": 11, "value": 18}, "group": "control_change"}, {"time": 145848, "annotation": {"number": 11, "value": 17}, "group": "control_change"}, {"time": 145878, "annotation": {"number": 11, "value": 16}, "group": "control_change"}, {"time": 145908, "annotation": {"number": 11, "value": 15}, "group": "control_change"}, {"time": 145948, "annotation": {"number": 11, "value": 14}, "group": "control_change"}, {"time": 145978, "annotation": {"number": 11, "value": 13}, "group": "control_change"}, {"time": 146008, "annotation": {"number": 11, "value": 12}, "group": "control_change"}, {"time": 146038, "annotation": {"number": 11, "value": 11}, "group": "control_change"}, {"time": 146068, "annotation": {"number": 11, "value": 10}, "group": "control_change"}, {"time": 146107, "annotation": {"number": 11, "value": 9}, "group": "control_change"}, {"time": 146137, "annotation": {"number": 11, "value": 8}, "group": "control_change"}, {"time": 146167, "annotation": {"number": 11, "value": 7}, "group": "control_change"}, {"time": 146197, "annotation": {"number": 11, "value": 6}, "group": "control_change"}, {"time": 146227, "annotation": {"number": 11, "value": 5}, "group": "control_change"}, {"time": 146267, "annotation": {"number": 11, "value": 4}, "group": "control_change"}, {"time": 146297, "annotation": {"number": 11, "value": 3}, "group": "control_change"}, {"time": 146327, "annotation": {"number": 11, "value": 2}, "group": "control_change"}, {"time": 146357, "annotation": {"number": 11, "value": 1}, "group": "control_change"}, {"time": 146386, "annotation": {"number": 11, "value": 0}, "group": "control_change"}]}, {"program": 0, "is_drum": false, "name": "Wind Chime", "annotations": [{"time": 179, "annotation": {"number": 0, "value": 5}, "group": "control_change"}, {"time": 188, "annotation": {"number": 32, "value": 2}, "group": "control_change"}]}, {"program": 124, "is_drum": false, "name": "Wind Chime", "notes": [{"time": 291, "pitch": 67, "duration": 3616, "velocity": 86}, {"time": 12239, "pitch": 67, "duration": 3159, "velocity": 94}, {"time": 12719, "pitch": 64, "duration": 2693, "velocity": 52}, {"time": 13319, "pitch": 59, "duration": 2279, "velocity": 42}, {"time": 13923, "pitch": 56, "duration": 2675, "velocity": 110}, {"time": 14879, "pitch": 53, "duration": 2682, "velocity": 110}, {"time": 15961, "pitch": 50, "duration": 3160, "velocity": 94}, {"time": 140640, "pitch": 65, "duration": 5746, "velocity": 97}, {"time": 141481, "pitch": 60, "duration": 4905, "velocity": 87}, {"time": 142440, "pitch": 53, "duration": 3946, "velocity": 75}, {"time": 143038, "pitch": 48, "duration": 3348, "velocity": 76}], "annotations": [{"time": 207, "annotation": {"number": 7, "value": 40}, "group": "control_change"}, {"time": 216, "annotation": {"number": 11, "value": 120}, "group": "control_change"}, {"time": 226, "annotation": {"number": 10, "value": 64}, "group": "control_change"}, {"time": 235, "annotation": {"number": 91, "value": 50}, "group": "control_change"}, {"time": 244, "annotation": {"number": 93, "value": 0}, "group": "control_change"}, {"time": 254, "annotation": {"number": 101, "value": 0}, "group": "control_change"}, {"time": 263, "annotation": {"number": 100, "value": 0}, "group": "control_change"}, {"time": 273, "annotation": {"number": 6, "value": 12}, "group": "control_change"}, {"time": 282, "annotation": {"number": 101, "value": 127}, "group": "control_change"}, {"time": 291, "annotation": {"number": 100, "value": 127}, "group": "control_change"}, {"time": 142559, "annotation": {"number": 11, "value": 120}, "group": "control_change"}, {"time": 142599, "annotation": {"number": 11, "value": 119}, "group": "control_change"}, {"time": 142629, "annotation": {"number": 11, "value": 118}, "group": "control_change"}, {"time": 142659, "annotation": {"number": 11, "value": 117}, "group": "control_change"}, {"time": 142689, "annotation": {"number": 11, "value": 116}, "group": "control_change"}, {"time": 142719, "annotation": {"number": 11, "value": 115}, "group": "control_change"}, {"time": 142759, "annotation": {"number": 11, "value": 114}, "group": "control_change"}, {"time": 142788, "annotation": {"number": 11, "value": 113}, "group": "control_change"}, {"time": 142818, "annotation": {"number": 11, "value": 112}, "group": "control_change"}, {"time": 142848, "annotation": {"number": 11, "value": 111}, "group": "control_change"}, {"time": 142878, "annotation": {"number": 11, "value": 110}, "group": "control_change"}, {"time": 142918, "annotation": {"number": 11, "value": 109}, "group": "control_change"}, {"time": 142948, "annotation": {"number": 11, "value": 108}, "group": "control_change"}, {"time": 142978, "annotation": {"number": 11, "value": 107}, "group": "control_change"}, {"time": 143008, "annotation": {"number": 11, "value": 106}, "group": "control_change"}, {"time": 143038, "annotation": {"number": 11, "value": 105}, "group": "control_change"}, {"time": 143078, "annotation": {"number": 11, "value": 104}, "group": "control_change"}, {"time": 143107, "annotation": {"number": 11, "value": 103}, "group": "control_change"}, {"time": 143137, "annotation": {"number": 11, "value": 102}, "group": "control_change"}, {"time": 143167, "annotation": {"number": 11, "value": 101}, "group": "control_change"}, {"time": 143197, "annotation": {"number": 11, "value": 100}, "group": "control_change"}, {"time": 143237, "annotation": {"number": 11, "value": 99}, "group": "control_change"}, {"time": 143267, "annotation": {"number": 11, "value": 98}, "group": "control_change"}, {"time": 143297, "annotation": {"number": 11, "value": 97}, "group": "control_change"}, {"time": 143327, "annotation": {"number": 11, "value": 96}, "group": "control_change"}, {"time": 143357, "annotation": {"number": 11, "value": 95}, "group": "control_change"}, {"time": 143396, "annotation": {"number": 11, "value": 94}, "group": "control_change"}, {"time": 143426, "annotation": {"number": 11, "value": 93}, "group": "control_change"}, {"time": 143456, "annotation": {"number": 11, "value": 92}, "group": "control_change"}, {"time": 143486, "annotation": {"number": 11, "value": 91}, "group": "control_change"}, {"time": 143516, "annotation": {"number": 11, "value": 90}, "group": "control_change"}, {"time": 143556, "annotation": {"number": 11, "value": 89}, "group": "control_change"}, {"time": 143586, "annotation": {"number": 11, "value": 88}, "group": "control_change"}, {"time": 143616, "annotation": {"number": 11, "value": 87}, "group": "control_change"}, {"time": 143646, "annotation": {"number": 11, "value": 86}, "group": "control_change"}, {"time": 143676, "annotation": {"number": 11, "value": 85}, "group": "control_change"}, {"time": 143715, "annotation": {"number": 11, "value": 84}, "group": "control_change"}, {"time": 143745, "annotation": {"number": 11, "value": 83}, "group": "control_change"}, {"time": 143775, "annotation": {"number": 11, "value": 82}, "group": "control_change"}, {"time": 143805, "annotation": {"number": 11, "value": 81}, "group": "control_change"}, {"time": 143835, "annotation": {"number": 11, "value": 80}, "group": "control_change"}, {"time": 143875, "annotation": {"number": 11, "value": 79}, "group": "control_change"}, {"time": 143905, "annotation": {"number": 11, "value": 78}, "group": "control_change"}, {"time": 143935, "annotation": {"number": 11, "value": 77}, "group": "control_change"}, {"time": 143965, "annotation": {"number": 11, "value": 76}, "group": "control_change"}, {"time": 143994, "annotation": {"number": 11, "value": 75}, "group": "control_change"}, {"time": 144034, "annotation": {"number": 11, "value": 74}, "group": "control_change"}, {"time": 144064, "annotation": {"number": 11, "value": 73}, "group": "control_change"}, {"time": 144094, "annotation": {"number": 11, "value": 72}, "group": "control_change"}, {"time": 144124, "annotation": {"number": 11, "value": 71}, "group": "control_change"}, {"time": 144154, "annotation": {"number": 11, "value": 70}, "group": "control_change"}, {"time": 144194, "annotation": {"number": 11, "value": 69}, "group": "control_change"}, {"time": 144224, "annotation": {"number": 11, "value": 68}, "group": "control_change"}, {"time": 144254, "annotation": {"number": 11, "value": 67}, "group": "control_change"}, {"time": 144283, "annotation": {"number": 11, "value": 66}, "group": "control_change"}, {"time": 144313, "annotation": {"number": 11, "value": 65}, "group": "control_change"}, {"time": 144353, "annotation": {"number": 11, "value": 64}, "group": "control_change"}, {"time": 144383, "annotation": {"number": 11, "value": 63}, "group": "control_change"}, {"time": 144413, "annotation": {"number": 11, "value": 62}, "group": "control_change"}, {"time": 144443, "annotation": {"number": 11, "value": 61}, "group": "control_change"}, {"time": 144473, "annotation": {"number": 11, "value": 60}, "group": "control_change"}, {"time": 144513, "annotation": {"number": 11, "value": 59}, "group": "control_change"}, {"time": 144543, "annotation": {"number": 11, "value": 58}, "group": "control_change"}, {"time": 144573, "annotation": {"number": 11, "value": 57}, "group": "control_change"}, {"time": 144602, "annotation": {"number": 11, "value": 56}, "group": "control_change"}, {"time": 144632, "annotation": {"number": 11, "value": 55}, "group": "control_change"}, {"time": 144672, "annotation": {"number": 11, "value": 54}, "group": "control_change"}, {"time": 144702, "annotation": {"number": 11, "value": 53}, "group": "control_change"}, {"time": 144732, "annotation": {"number": 11, "value": 52}, "group": "control_change"}, {"time": 144762, "annotation": {"number": 11, "value": 51}, "group": "control_change"}, {"time": 144792, "annotation": {"number": 11, "value": 50}, "group": "control_change"}, {"time": 144832, "annotation": {"number": 11, "value": 49}, "group": "control_change"}, {"time": 144862, "annotation": {"number": 11, "value": 48}, "group": "control_change"}, {"time": 144891, "annotation": {"number": 11, "value": 47}, "group": "control_change"}, {"time": 144921, "annotation": {"number": 11, "value": 46}, "group": "control_change"}, {"time": 144951, "annotation": {"number": 11, "value": 45}, "group": "control_change"}, {"time": 144991, "annotation": {"number": 11, "value": 44}, "group": "control_change"}, {"time": 145021, "annotation": {"number": 11, "value": 43}, "group": "control_change"}, {"time": 145051, "annotation": {"number": 11, "value": 42}, "group": "control_change"}, {"time": 145081, "annotation": {"number": 11, "value": 41}, "group": "control_change"}, {"time": 145111, "annotation": {"number": 11, "value": 40}, "group": "control_change"}, {"time": 145151, "annotation": {"number": 11, "value": 39}, "group": "control_change"}, {"time": 145181, "annotation": {"number": 11, "value": 38}, "group": "control_change"}, {"time": 145210, "annotation": {"number": 11, "value": 37}, "group": "control_change"}, {"time": 145240, "annotation": {"number": 11, "value": 36}, "group": "control_change"}, {"time": 145270, "annotation": {"number": 11, "value": 35}, "group": "control_change"}, {"time": 145310, "annotation": {"number": 11, "value": 34}, "group": "control_change"}, {"time": 145340, "annotation": {"number": 11, "value": 33}, "group": "control_change"}, {"time": 145370, "annotation": {"number": 11, "value": 32}, "group": "control_change"}, {"time": 145400, "annotation": {"number": 11, "value": 31}, "group": "control_change"}, {"time": 145430, "annotation": {"number": 11, "value": 30}, "group": "control_change"}, {"time": 145470, "annotation": {"number": 11, "value": 29}, "group": "control_change"}, {"time": 145499, "annotation": {"number": 11, "value": 28}, "group": "control_change"}, {"time": 145529, "annotation": {"number": 11, "value": 27}, "group": "control_change"}, {"time": 145559, "annotation": {"number": 11, "value": 26}, "group": "control_change"}, {"time": 145589, "annotation": {"number": 11, "value": 25}, "group": "control_change"}, {"time": 145629, "annotation": {"number": 11, "value": 24}, "group": "control_change"}, {"time": 145659, "annotation": {"number": 11, "value": 23}, "group": "control_change"}, {"time": 145689, "annotation": {"number": 11, "value": 22}, "group": "control_change"}, {"time": 145719, "annotation": {"number": 11, "value": 21}, "group": "control_change"}, {"time": 145749, "annotation": {"number": 11, "value": 20}, "group": "control_change"}, {"time": 145788, "annotation": {"number": 11, "value": 19}, "group": "control_change"}, {"time": 145818, "annotation": {"number": 11, "value": 18}, "group": "control_change"}, {"time": 145848, "annotation": {"number": 11, "value": 17}, "group": "control_change"}, {"time": 145878, "annotation": {"number": 11, "value": 16}, "group": "control_change"}, {"time": 145908, "annotation": {"number": 11, "value": 15}, "group": "control_change"}, {"time": 145948, "annotation": {"number": 11, "value": 14}, "group": "control_change"}, {"time": 145978, "annotation": {"number": 11, "value": 13}, "group": "control_change"}, {"time": 146008, "annotation": {"number": 11, "value": 12}, "group": "control_change"}, {"time": 146038, "annotation": {"number": 11, "value": 11}, "group": "control_change"}, {"time": 146068, "annotation": {"number": 11, "value": 10}, "group": "control_change"}, {"time": 146107, "annotation": {"number": 11, "value": 9}, "group": "control_change"}, {"time": 146137, "annotation": {"number": 11, "value": 8}, "group": "control_change"}, {"time": 146167, "annotation": {"number": 11, "value": 7}, "group": "control_change"}, {"time": 146197, "annotation": {"number": 11, "value": 6}, "group": "control_change"}, {"time": 146227, "annotation": {"number": 11, "value": 5}, "group": "control_change"}, {"time": 146267, "annotation": {"number": 11, "value": 4}, "group": "control_change"}, {"time": 146297, "annotation": {"number": 11, "value": 3}, "group": "control_change"}, {"time": 146327, "annotation": {"number": 11, "value": 2}, "group": "control_change"}, {"time": 146357, "annotation": {"number": 11, "value": 1}, "group": "control_change"}, {"time": 146386, "annotation": {"number": 11, "value": 0}, "group": "control_change"}]}, {"program": 0, "is_drum": true, "name": "DRUMS", "annotations": [{"time": 179, "annotation": {"number": 0, "value": 0}, "group": "control_change"}, {"time": 188, "annotation": {"number": 32, "value": 2}, "group": "control_change"}]}, {"program": 25, "is_drum": true, "name": "DRUMS", "notes": [{"time": 13923, "pitch": 36, "duration": 10, "velocity": 111}, {"time": 13923, "pitch": 44, "duration": 10, "velocity": 115}, {"time": 13923, "pitch": 62, "duration": 10, "velocity": 102}, {"time": 14162, "pitch": 42, "duration": 10, "velocity": 87}, {"time": 14162, "pitch": 63, "duration": 10, "velocity": 92}, {"time": 14162, "pitch": 80, "duration": 10, "velocity": 99}, {"time": 14401, "pitch": 38, "duration": 10, "velocity": 122}, {"time": 14401, "pitch": 44, "duration": 10, "velocity": 115}, {"time": 14401, "pitch": 64, "duration": 10, "velocity": 110}, {"time": 14401, "pitch": 81, "duration": 10, "velocity": 99}, {"time": 14640, "pitch": 36, "duration": 10, "velocity": 111}, {"time": 14640, "pitch": 42, "duration": 10, "velocity": 63}, {"time": 14640, "pitch": 62, "duration": 10, "velocity": 42}, {"time": 14760, "pitch": 36, "duration": 10, "velocity": 111}, {"time": 14760, "pitch": 62, "duration": 10, "velocity": 71}, {"time": 14879, "pitch": 44, "duration": 10, "velocity": 115}, {"time": 14879, "pitch": 62, "duration": 10, "velocity": 82}, {"time": 14999, "pitch": 63, "duration": 10, "velocity": 85}, {"time": 15119, "pitch": 36, "duration": 10, "velocity": 111}, {"time": 15119, "pitch": 42, "duration": 10, "velocity": 43}, {"time": 15119, "pitch": 63, "duration": 10, "velocity": 112}, {"time": 15358, "pitch": 38, "duration": 10, "velocity": 122}, {"time": 15358, "pitch": 44, "duration": 10, "velocity": 115}, {"time": 15358, "pitch": 64, "duration": 10, "velocity": 112}, {"time": 15479, "pitch": 62, "duration": 10, "velocity": 42}, {"time": 15479, "pitch": 75, "duration": 10, "velocity": 105}, {"time": 15600, "pitch": 42, "duration": 10, "velocity": 73}, {"time": 15600, "pitch": 62, "duration": 10, "velocity": 70}, {"time": 15721, "pitch": 75, "duration": 10, "velocity": 99}, {"time": 15842, "pitch": 36, "duration": 10, "velocity": 111}, {"time": 15842, "pitch": 44, "duration": 10, "velocity": 115}, {"time": 15842, "pitch": 62, "duration": 10, "velocity": 102}, {"time": 16081, "pitch": 42, "duration": 10, "velocity": 60}, {"time": 16081, "pitch": 63, "duration": 10, "velocity": 92}, {"time": 16081, "pitch": 81, "duration": 10, "velocity": 96}, {"time": 16320, "pitch": 38, "duration": 10, "velocity": 118}, {"time": 16320, "pitch": 44, "duration": 10, "velocity": 115}, {"time": 16320, "pitch": 64, "duration": 10, "velocity": 110}, {"time": 16440, "pitch": 80, "duration": 10, "velocity": 68}, {"time": 16559, "pitch": 36, "duration": 10, "velocity": 111}, {"time": 16559, "pitch": 42, "duration": 10, "velocity": 58}, {"time": 16559, "pitch": 62, "duration": 10, "velocity": 42}, {"time": 16559, "pitch": 81, "duration": 10, "velocity": 93}, {"time": 16679, "pitch": 36, "duration": 10, "velocity": 111}, {"time": 16679, "pitch": 62, "duration": 10, "velocity": 71}, {"time": 16799, "pitch": 44, "duration": 10, "velocity": 115}, {"time": 16799, "pitch": 62, "duration": 10, "velocity": 82}, {"time": 16920, "pitch": 63, "duration": 10, "velocity": 85}, {"time": 17041, "pitch": 36, "duration": 10, "velocity": 111}, {"time": 17041, "pitch": 42, "duration": 10, "velocity": 75}, {"time": 17041, "pitch": 63, "duration": 10, "velocity": 112}, {"time": 17041, "pitch": 75, "duration": 10, "velocity": 96}, {"time": 17162, "pitch": 44, "duration": 10, "velocity": 111}, {"time": 17222, "pitch": 42, "duration": 10, "velocity": 72}, {"time": 17283, "pitch": 38, "duration": 10, "velocity": 107}, {"time": 17283, "pitch": 44, "duration": 10, "velocity": 115}, {"time": 17283, "pitch": 64, "duration": 10, "velocity": 112}, {"time": 17402, "pitch": 42, "duration": 10, "velocity": 114}, {"time": 17402, "pitch": 62, "duration": 10, "velocity": 42}, {"time": 17402, "pitch": 75, "duration": 10, "velocity": 103}, {"time": 17522, "pitch": 46, "duration": 10, "velocity": 91}, {"time": 17522, "pitch": 62, "duration": 10, "velocity": 70}, {"time": 17641, "pitch": 75, "duration": 10, "velocity": 105}, {"time": 17761, "pitch": 36, "duration": 10, "velocity": 111}, {"time": 17761, "pitch": 44, "duration": 10, "velocity": 115}, {"time": 17761, "pitch": 62, "duration": 10, "velocity": 102}, {"time": 18000, "pitch": 42, "duration": 10, "velocity": 87}, {"time": 18000, "pitch": 63, "duration": 10, "velocity": 92}, {"time": 18239, "pitch": 38, "duration": 10, "velocity": 122}, {"time": 18239, "pitch": 44, "duration": 10, "velocity": 115}, {"time": 18239, "pitch": 64, "duration": 10, "velocity": 110}, {"time": 18479, "pitch": 36, "duration": 10, "velocity": 111}, {"time": 18479, "pitch": 42, "duration": 10, "velocity": 63}, {"time": 18479, "pitch": 62, "duration": 10, "velocity": 42}, {"time": 18598, "pitch": 36, "duration": 10, "velocity": 111}, {"time": 18598, "pitch": 62, "duration": 10, "velocity": 71}, {"time": 18718, "pitch": 44, "duration": 10, "velocity": 115}, {"time": 18718, "pitch": 62, "duration": 10, "velocity": 82}, {"time": 18839, "pitch": 63, "duration": 10, "velocity": 85}, {"time": 18960, "pitch": 36, "duration": 10, "velocity": 111}, {"time": 18960, "pitch": 42, "duration": 10, "velocity": 43}, {"time": 18960, "pitch": 63, "duration": 10, "velocity": 112}, {"time": 19202, "pitch": 38, "duration": 10, "velocity": 122}, {"time": 19202, "pitch": 44, "duration": 10, "velocity": 115}, {"time": 19202, "pitch": 64, "duration": 10, "velocity": 112}, {"time": 19321, "pitch": 62, "duration": 10, "velocity": 42}, {"time": 19321, "pitch": 75, "duration": 10, "velocity": 101}, {"time": 19441, "pitch": 42, "duration": 10, "velocity": 73}, {"time": 19441, "pitch": 62, "duration": 10, "velocity": 70}, {"time": 19680, "pitch": 36, "duration": 10, "velocity": 111}, {"time": 19680, "pitch": 44, "duration": 10, "velocity": 115}, {"time": 19680, "pitch": 62, "duration": 10, "velocity": 102}, {"time": 19919, "pitch": 42, "duration": 10, "velocity": 60}, {"time": 19919, "pitch": 63, "duration": 10, "velocity": 92}, {"time": 20159, "pitch": 38, "duration": 10, "velocity": 118}, {"time": 20159, "pitch": 44, "duration": 10, "velocity": 115}, {"time": 20159, "pitch": 64, "duration": 10, "velocity": 110}, {"time": 20401, "pitch": 36, "duration": 10, "velocity": 111}, {"time": 20401, "pitch": 42, "duration": 10, "velocity": 58}, {"time": 20401, "pitch": 62, "duration": 10, "velocity": 42}, {"time": 20522, "pitch": 36, "duration": 10, "velocity": 111}, {"time": 20522, "pitch": 62, "duration": 10, "velocity": 71}, {"time": 20643, "pitch": 44, "duration": 10, "velocity": 115}, {"time": 20643, "pitch": 62, "duration": 10, "velocity": 82}, {"time": 20762, "pitch": 63, "duration": 10, "velocity": 85}, {"time": 20882, "pitch": 36, "duration": 10, "velocity": 111}, {"time": 20882, "pitch": 42, "duration": 10, "velocity": 75}, {"time": 20882, "pitch": 63, "duration": 10, "velocity": 112}, {"time": 20882, "pitch": 75, "duration": 10, "velocity": 95}, {"time": 21001, "pitch": 44, "duration": 10, "velocity": 111}, {"time": 21061, "pitch": 42, "duration": 10, "velocity": 72}, {"time": 21121, "pitch": 38, "duration": 10, "velocity": 107}, {"time": 21121, "pitch": 44, "duration": 10, "velocity": 115}, {"time": 21121, "pitch": 64, "duration": 10, "velocity": 112}, {"time": 21241, "pitch": 42, "duration": 10, "velocity": 114}, {"time": 21241, "pitch": 62, "duration": 10, "velocity": 42}, {"time": 21241, "pitch": 75, "duration": 10, "velocity": 103}, {"time": 21360, "pitch": 46, "duration": 10, "velocity": 91}, {"time": 21360, "pitch": 62, "duration": 10, "velocity": 70}, {"time": 21599, "pitch": 36, "duration": 10, "velocity": 111}, {"time": 21599, "pitch": 44, "duration": 10, "velocity": 115}, {"time": 21599, "pitch": 62, "duration": 10, "velocity": 102}, {"time": 21839, "pitch": 42, "duration": 10, "velocity": 87}, {"time": 21839, "pitch": 63, "duration": 10, "velocity": 92}, {"time": 22078, "pitch": 38, "duration": 10, "velocity": 122}, {"time": 22078, "pitch": 44, "duration": 10, "velocity": 115}, {"time": 22078, "pitch": 64, "duration": 10, "velocity": 110}, {"time": 22320, "pitch": 36, "duration": 10, "velocity": 111}, {"time": 22320, "pitch": 42, "duration": 10, "velocity": 63}, {"time": 22320, "pitch": 62, "duration": 10, "velocity": 42}, {"time": 22441, "pitch": 36, "duration": 10, "velocity": 111}, {"time": 22441, "pitch": 62, "duration": 10, "velocity": 71}, {"time": 22562, "pitch": 44, "duration": 10, "velocity": 115}, {"time": 22562, "pitch": 62, "duration": 10, "velocity": 82}, {"time": 22681, "pitch": 63, "duration": 10, "velocity": 85}, {"time": 22801, "pitch": 36, "duration": 10, "velocity": 111}, {"time": 22801, "pitch": 42, "duration": 10, "velocity": 43}, {"time": 22801, "pitch": 63, "duration": 10, "velocity": 112}, {"time": 23040, "pitch": 38, "duration": 10, "velocity": 122}, {"time": 23040, "pitch": 44, "duration": 10, "velocity": 115}, {"time": 23040, "pitch": 64, "duration": 10, "velocity": 112}, {"time": 23160, "pitch": 62, "duration": 10, "velocity": 42}, {"time": 23279, "pitch": 42, "duration": 10, "velocity": 73}, {"time": 23279, "pitch": 62, "duration": 10, "velocity": 70}, {"time": 23519, "pitch": 36, "duration": 10, "velocity": 111}, {"time": 23519, "pitch": 44, "duration": 10, "velocity": 115}, {"time": 23519, "pitch": 62, "duration": 10, "velocity": 102}, {"time": 23761, "pitch": 42, "duration": 10, "velocity": 60}, {"time": 23761, "pitch": 63, "duration": 10, "velocity": 92}, {"time": 24003, "pitch": 38, "duration": 10, "velocity": 118}, {"time": 24003, "pitch": 44, "duration": 10, "velocity": 115}, {"time": 24003, "pitch": 64, "duration": 10, "velocity": 110}, {"time": 24242, "pitch": 36, "duration": 10, "velocity": 111}, {"time": 24242, "pitch": 42, "duration": 10, "velocity": 58}, {"time": 24242, "pitch": 62, "duration": 10, "velocity": 42}, {"time": 24361, "pitch": 36, "duration": 10, "velocity": 111}, {"time": 24361, "pitch": 62, "duration": 10, "velocity": 71}, {"time": 24481, "pitch": 44, "duration": 10, "velocity": 115}, {"time": 24481, "pitch": 62, "duration": 10, "velocity": 82}, {"time": 24601, "pitch": 63, "duration": 10, "velocity": 85}, {"time": 24720, "pitch": 36, "duration": 10, "velocity": 111}, {"time": 24720, "pitch": 42, "duration": 10, "velocity": 75}, {"time": 24720, "pitch": 63, "duration": 10, "velocity": 112}, {"time": 24720, "pitch": 75, "duration": 10, "velocity": 112}, {"time": 24840, "pitch": 44, "duration": 10, "velocity": 111}, {"time": 24900, "pitch": 42, "duration": 10, "velocity": 72}, {"time": 24959, "pitch": 38, "duration": 10, "velocity": 107}, {"time": 24959, "pitch": 44, "duration": 10, "velocity": 115}, {"time": 24959, "pitch": 64, "duration": 10, "velocity": 112}, {"time": 25079, "pitch": 42, "duration": 10, "velocity": 114}, {"time": 25079, "pitch": 62, "duration": 10, "velocity": 42}, {"time": 25079, "pitch": 75, "duration": 10, "velocity": 101}, {"time": 25199, "pitch": 46, "duration": 10, "velocity": 91}, {"time": 25199, "pitch": 62, "duration": 10, "velocity": 70}, {"time": 25438, "pitch": 36, "duration": 10, "velocity": 111}, {"time": 25438, "pitch": 44, "duration": 10, "velocity": 115}, {"time": 25438, "pitch": 62, "duration": 10, "velocity": 102}, {"time": 25680, "pitch": 42, "duration": 10, "velocity": 87}, {"time": 25680, "pitch": 63, "duration": 10, "velocity": 92}, {"time": 25922, "pitch": 38, "duration": 10, "velocity": 122}, {"time": 25922, "pitch": 44, "duration": 10, "velocity": 115}, {"time": 25922, "pitch": 64, "duration": 10, "velocity": 110}, {"time": 26161, "pitch": 36, "duration": 10, "velocity": 111}, {"time": 26161, "pitch": 42, "duration": 10, "velocity": 63}, {"time": 26161, "pitch": 62, "duration": 10, "velocity": 42}, {"time": 26281, "pitch": 36, "duration": 10, "velocity": 111}, {"time": 26281, "pitch": 62, "duration": 10, "velocity": 71}, {"time": 26400, "pitch": 44, "duration": 10, "velocity": 115}, {"time": 26400, "pitch": 62, "duration": 10, "velocity": 82}, {"time": 26520, "pitch": 63, "duration": 10, "velocity": 85}, {"time": 26639, "pitch": 36, "duration": 10, "velocity": 111}, {"time": 26639, "pitch": 42, "duration": 10, "velocity": 43}, {"time": 26639, "pitch": 63, "duration": 10, "velocity": 112}, {"time": 26879, "pitch": 38, "duration": 10, "velocity": 122}, {"time": 26879, "pitch": 44, "duration": 10, "velocity": 115}, {"time": 26879, "pitch": 64, "duration": 10, "velocity": 112}, {"time": 27000, "pitch": 62, "duration": 10, "velocity": 42}, {"time": 27121, "pitch": 42, "duration": 10, "velocity": 73}, {"time": 27121, "pitch": 62, "duration": 10, "velocity": 70}, {"time": 27363, "pitch": 36, "duration": 10, "velocity": 111}, {"time": 27363, "pitch": 44, "duration": 10, "velocity": 115}, {"time": 27363, "pitch": 62, "duration": 10, "velocity": 102}, {"time": 27602, "pitch": 42, "duration": 10, "velocity": 60}, {"time": 27602, "pitch": 63, "duration": 10, "velocity": 92}, {"time": 27841, "pitch": 38, "duration": 10, "velocity": 118}, {"time": 27841, "pitch": 44, "duration": 10, "velocity": 115}, {"time": 27841, "pitch": 64, "duration": 10, "velocity": 110}, {"time": 27961, "pitch": 75, "duration": 10, "velocity": 93}, {"time": 28080, "pitch": 36, "duration": 10, "velocity": 111}, {"time": 28080, "pitch": 42, "duration": 10, "velocity": 58}, {"time": 28080, "pitch": 62, "duration": 10, "velocity": 42}, {"time": 28200, "pitch": 36, "duration": 10, "velocity": 111}, {"time": 28200, "pitch": 62, "duration": 10, "velocity": 71}, {"time": 28319, "pitch": 44, "duration": 10, "velocity": 115}, {"time": 28319, "pitch": 62, "duration": 10, "velocity": 82}, {"time": 28319, "pitch": 75, "duration": 10, "velocity": 98}, {"time": 28439, "pitch": 63, "duration": 10, "velocity": 85}, {"time": 28559, "pitch": 36, "duration": 10, "velocity": 111}, {"time": 28559, "pitch": 42, "duration": 10, "velocity": 75}, {"time": 28559, "pitch": 63, "duration": 10, "velocity": 112}, {"time": 28678, "pitch": 44, "duration": 10, "velocity": 111}, {"time": 28678, "pitch": 75, "duration": 10, "velocity": 98}, {"time": 28738, "pitch": 42, "duration": 10, "velocity": 72}, {"time": 28798, "pitch": 38, "duration": 10, "velocity": 107}, {"time": 28798, "pitch": 44, "duration": 10, "velocity": 115}, {"time": 28798, "pitch": 64, "duration": 10, "velocity": 112}, {"time": 28919, "pitch": 42, "duration": 10, "velocity": 114}, {"time": 28919, "pitch": 62, "duration": 10, "velocity": 42}, {"time": 29040, "pitch": 46, "duration": 10, "velocity": 91}, {"time": 29040, "pitch": 62, "duration": 10, "velocity": 70}, {"time": 29282, "pitch": 36, "duration": 10, "velocity": 111}, {"time": 29282, "pitch": 44, "duration": 10, "velocity": 115}, {"time": 29282, "pitch": 62, "duration": 10, "velocity": 102}, {"time": 29521, "pitch": 42, "duration": 10, "velocity": 87}, {"time": 29521, "pitch": 63, "duration": 10, "velocity": 92}, {"time": 29760, "pitch": 38, "duration": 10, "velocity": 122}, {"time": 29760, "pitch": 44, "duration": 10, "velocity": 115}, {"time": 29760, "pitch": 64, "duration": 10, "velocity": 110}, {"time": 29999, "pitch": 36, "duration": 10, "velocity": 111}, {"time": 29999, "pitch": 42, "duration": 10, "velocity": 63}, {"time": 29999, "pitch": 62, "duration": 10, "velocity": 42}, {"time": 30119, "pitch": 36, "duration": 10, "velocity": 111}, {"time": 30119, "pitch": 62, "duration": 10, "velocity": 71}, {"time": 30239, "pitch": 44, "duration": 10, "velocity": 115}, {"time": 30239, "pitch": 62, "duration": 10, "velocity": 82}, {"time": 30360, "pitch": 63, "duration": 10, "velocity": 85}, {"time": 30481, "pitch": 36, "duration": 10, "velocity": 111}, {"time": 30481, "pitch": 42, "duration": 10, "velocity": 43}, {"time": 30481, "pitch": 63, "duration": 10, "velocity": 112}, {"time": 30723, "pitch": 38, "duration": 10, "velocity": 122}, {"time": 30723, "pitch": 44, "duration": 10, "velocity": 115}, {"time": 30723, "pitch": 64, "duration": 10, "velocity": 112}, {"time": 30842, "pitch": 62, "duration": 10, "velocity": 42}, {"time": 30842, "pitch": 75, "duration": 10, "velocity": 105}, {"time": 30962, "pitch": 42, "duration": 10, "velocity": 73}, {"time": 30962, "pitch": 62, "duration": 10, "velocity": 70}, {"time": 31201, "pitch": 36, "duration": 10, "velocity": 111}, {"time": 31201, "pitch": 44, "duration": 10, "velocity": 115}, {"time": 31201, "pitch": 62, "duration": 10, "velocity": 102}, {"time": 31440, "pitch": 42, "duration": 10, "velocity": 60}, {"time": 31440, "pitch": 63, "duration": 10, "velocity": 92}, {"time": 31679, "pitch": 38, "duration": 10, "velocity": 118}, {"time": 31679, "pitch": 44, "duration": 10, "velocity": 115}, {"time": 31679, "pitch": 64, "duration": 10, "velocity": 110}, {"time": 31919, "pitch": 36, "duration": 10, "velocity": 111}, {"time": 31919, "pitch": 42, "duration": 10, "velocity": 58}, {"time": 31919, "pitch": 62, "duration": 10, "velocity": 42}, {"time": 32038, "pitch": 36, "duration": 10, "velocity": 111}, {"time": 32038, "pitch": 62, "duration": 10, "velocity": 71}, {"time": 32158, "pitch": 44, "duration": 10, "velocity": 115}, {"time": 32158, "pitch": 62, "duration": 10, "velocity": 82}, {"time": 32279, "pitch": 63, "duration": 10, "velocity": 85}, {"time": 32400, "pitch": 36, "duration": 10, "velocity": 111}, {"time": 32400, "pitch": 42, "duration": 10, "velocity": 75}, {"time": 32400, "pitch": 63, "duration": 10, "velocity": 112}, {"time": 32521, "pitch": 44, "duration": 10, "velocity": 111}, {"time": 32521, "pitch": 75, "duration": 10, "velocity": 99}, {"time": 32581, "pitch": 42, "duration": 10, "velocity": 72}, {"time": 32642, "pitch": 38, "duration": 10, "velocity": 107}, {"time": 32642, "pitch": 44, "duration": 10, "velocity": 115}, {"time": 32642, "pitch": 64, "duration": 10, "velocity": 112}, {"time": 32761, "pitch": 42, "duration": 10, "velocity": 114}, {"time": 32761, "pitch": 62, "duration": 10, "velocity": 42}, {"time": 32881, "pitch": 46, "duration": 10, "velocity": 91}, {"time": 32881, "pitch": 62, "duration": 10, "velocity": 70}, {"time": 32881, "pitch": 75, "duration": 10, "velocity": 103}, {"time": 33120, "pitch": 36, "duration": 10, "velocity": 111}, {"time": 33120, "pitch": 44, "duration": 10, "velocity": 115}, {"time": 33120, "pitch": 62, "duration": 10, "velocity": 102}, {"time": 33359, "pitch": 42, "duration": 10, "velocity": 87}, {"time": 33359, "pitch": 63, "duration": 10, "velocity": 92}, {"time": 33599, "pitch": 38, "duration": 10, "velocity": 122}, {"time": 33599, "pitch": 44, "duration": 10, "velocity": 115}, {"time": 33599, "pitch": 64, "duration": 10, "velocity": 110}, {"time": 33841, "pitch": 36, "duration": 10, "velocity": 111}, {"time": 33841, "pitch": 42, "duration": 10, "velocity": 63}, {"time": 33841, "pitch": 62, "duration": 10, "velocity": 42}, {"time": 33962, "pitch": 36, "duration": 10, "velocity": 111}, {"time": 33962, "pitch": 62, "duration": 10, "velocity": 71}, {"time": 34083, "pitch": 44, "duration": 10, "velocity": 115}, {"time": 34083, "pitch": 62, "duration": 10, "velocity": 82}, {"time": 34202, "pitch": 63, "duration": 10, "velocity": 85}, {"time": 34322, "pitch": 36, "duration": 10, "velocity": 111}, {"time": 34322, "pitch": 42, "duration": 10, "velocity": 43}, {"time": 34322, "pitch": 63, "duration": 10, "velocity": 112}, {"time": 34561, "pitch": 38, "duration": 10, "velocity": 122}, {"time": 34561, "pitch": 44, "duration": 10, "velocity": 115}, {"time": 34561, "pitch": 64, "duration": 10, "velocity": 112}, {"time": 34681, "pitch": 62, "duration": 10, "velocity": 42}, {"time": 34681, "pitch": 75, "duration": 10, "velocity": 105}, {"time": 34800, "pitch": 42, "duration": 10, "velocity": 73}, {"time": 34800, "pitch": 62, "duration": 10, "velocity": 70}, {"time": 35039, "pitch": 36, "duration": 10, "velocity": 111}, {"time": 35039, "pitch": 44, "duration": 10, "velocity": 115}, {"time": 35039, "pitch": 62, "duration": 10, "velocity": 102}, {"time": 35279, "pitch": 42, "duration": 10, "velocity": 60}, {"time": 35279, "pitch": 63, "duration": 10, "velocity": 92}, {"time": 35518, "pitch": 38, "duration": 10, "velocity": 118}, {"time": 35518, "pitch": 44, "duration": 10, "velocity": 115}, {"time": 35518, "pitch": 64, "duration": 10, "velocity": 110}, {"time": 35760, "pitch": 36, "duration": 10, "velocity": 111}, {"time": 35760, "pitch": 42, "duration": 10, "velocity": 58}, {"time": 35760, "pitch": 62, "duration": 10, "velocity": 42}, {"time": 35881, "pitch": 36, "duration": 10, "velocity": 111}, {"time": 35881, "pitch": 62, "duration": 10, "velocity": 71}, {"time": 36002, "pitch": 44, "duration": 10, "velocity": 115}, {"time": 36002, "pitch": 62, "duration": 10, "velocity": 82}, {"time": 36121, "pitch": 63, "duration": 10, "velocity": 85}, {"time": 36121, "pitch": 75, "duration": 10, "velocity": 98}, {"time": 36241, "pitch": 36, "duration": 10, "velocity": 111}, {"time": 36241, "pitch": 42, "duration": 10, "velocity": 75}, {"time": 36241, "pitch": 63, "duration": 10, "velocity": 112}, {"time": 36361, "pitch": 44, "duration": 10, "velocity": 111}, {"time": 36420, "pitch": 42, "duration": 10, "velocity": 72}, {"time": 36480, "pitch": 38, "duration": 10, "velocity": 107}, {"time": 36480, "pitch": 44, "duration": 10, "velocity": 115}, {"time": 36480, "pitch": 64, "duration": 10, "velocity": 112}, {"time": 36480, "pitch": 75, "duration": 10, "velocity": 100}, {"time": 36600, "pitch": 42, "duration": 10, "velocity": 114}, {"time": 36600, "pitch": 62, "duration": 10, "velocity": 42}, {"time": 36719, "pitch": 46, "duration": 10, "velocity": 91}, {"time": 36719, "pitch": 62, "duration": 10, "velocity": 70}, {"time": 36959, "pitch": 36, "duration": 10, "velocity": 111}, {"time": 36959, "pitch": 44, "duration": 10, "velocity": 115}, {"time": 36959, "pitch": 62, "duration": 10, "velocity": 102}, {"time": 37201, "pitch": 42, "duration": 10, "velocity": 87}, {"time": 37201, "pitch": 63, "duration": 10, "velocity": 92}, {"time": 37443, "pitch": 38, "duration": 10, "velocity": 122}, {"time": 37443, "pitch": 44, "duration": 10, "velocity": 115}, {"time": 37443, "pitch": 64, "duration": 10, "velocity": 110}, {"time": 37682, "pitch": 36, "duration": 10, "velocity": 111}, {"time": 37682, "pitch": 42, "duration": 10, "velocity": 63}, {"time": 37682, "pitch": 62, "duration": 10, "velocity": 42}, {"time": 37801, "pitch": 36, "duration": 10, "velocity": 111}, {"time": 37801, "pitch": 62, "duration": 10, "velocity": 71}, {"time": 37921, "pitch": 44, "duration": 10, "velocity": 115}, {"time": 37921, "pitch": 62, "duration": 10, "velocity": 82}, {"time": 38041, "pitch": 63, "duration": 10, "velocity": 85}, {"time": 38160, "pitch": 36, "duration": 10, "velocity": 111}, {"time": 38160, "pitch": 42, "duration": 10, "velocity": 43}, {"time": 38160, "pitch": 63, "duration": 10, "velocity": 112}, {"time": 38399, "pitch": 38, "duration": 10, "velocity": 122}, {"time": 38399, "pitch": 44, "duration": 10, "velocity": 115}, {"time": 38399, "pitch": 64, "duration": 10, "velocity": 112}, {"time": 38519, "pitch": 62, "duration": 10, "velocity": 42}, {"time": 38519, "pitch": 75, "duration": 10, "velocity": 98}, {"time": 38639, "pitch": 42, "duration": 10, "velocity": 73}, {"time": 38639, "pitch": 62, "duration": 10, "velocity": 70}, {"time": 38878, "pitch": 36, "duration": 10, "velocity": 111}, {"time": 38878, "pitch": 44, "duration": 10, "velocity": 115}, {"time": 38878, "pitch": 62, "duration": 10, "velocity": 102}, {"time": 39120, "pitch": 42, "duration": 10, "velocity": 60}, {"time": 39120, "pitch": 63, "duration": 10, "velocity": 92}, {"time": 39362, "pitch": 38, "duration": 10, "velocity": 118}, {"time": 39362, "pitch": 44, "duration": 10, "velocity": 115}, {"time": 39362, "pitch": 64, "duration": 10, "velocity": 110}, {"time": 39601, "pitch": 36, "duration": 10, "velocity": 111}, {"time": 39601, "pitch": 42, "duration": 10, "velocity": 58}, {"time": 39601, "pitch": 62, "duration": 10, "velocity": 42}, {"time": 39721, "pitch": 36, "duration": 10, "velocity": 111}, {"time": 39721, "pitch": 62, "duration": 10, "velocity": 71}, {"time": 39840, "pitch": 44, "duration": 10, "velocity": 115}, {"time": 39840, "pitch": 62, "duration": 10, "velocity": 82}, {"time": 39960, "pitch": 63, "duration": 10, "velocity": 85}, {"time": 40079, "pitch": 36, "duration": 10, "velocity": 111}, {"time": 40079, "pitch": 42, "duration": 10, "velocity": 75}, {"time": 40079, "pitch": 63, "duration": 10, "velocity": 112}, {"time": 40079, "pitch": 75, "duration": 10, "velocity": 99}, {"time": 40199, "pitch": 44, "duration": 10, "velocity": 111}, {"time": 40259, "pitch": 42, "duration": 10, "velocity": 72}, {"time": 40319, "pitch": 38, "duration": 10, "velocity": 107}, {"time": 40319, "pitch": 44, "duration": 10, "velocity": 115}, {"time": 40319, "pitch": 64, "duration": 10, "velocity": 112}, {"time": 40440, "pitch": 42, "duration": 10, "velocity": 114}, {"time": 40440, "pitch": 62, "duration": 10, "velocity": 42}, {"time": 40440, "pitch": 75, "duration": 10, "velocity": 108}, {"time": 40561, "pitch": 46, "duration": 10, "velocity": 91}, {"time": 40561, "pitch": 62, "duration": 10, "velocity": 70}, {"time": 40803, "pitch": 36, "duration": 10, "velocity": 111}, {"time": 40803, "pitch": 44, "duration": 10, "velocity": 115}, {"time": 40803, "pitch": 62, "duration": 10, "velocity": 102}, {"time": 41042, "pitch": 42, "duration": 10, "velocity": 87}, {"time": 41042, "pitch": 63, "duration": 10, "velocity": 92}, {"time": 41281, "pitch": 38, "duration": 10, "velocity": 122}, {"time": 41281, "pitch": 44, "duration": 10, "velocity": 115}, {"time": 41281, "pitch": 64, "duration": 10, "velocity": 110}, {"time": 41520, "pitch": 36, "duration": 10, "velocity": 111}, {"time": 41520, "pitch": 42, "duration": 10, "velocity": 63}, {"time": 41520, "pitch": 62, "duration": 10, "velocity": 42}, {"time": 41640, "pitch": 36, "duration": 10, "velocity": 111}, {"time": 41640, "pitch": 62, "duration": 10, "velocity": 71}, {"time": 41759, "pitch": 44, "duration": 10, "velocity": 115}, {"time": 41759, "pitch": 62, "duration": 10, "velocity": 82}, {"time": 41879, "pitch": 63, "duration": 10, "velocity": 85}, {"time": 41999, "pitch": 36, "duration": 10, "velocity": 111}, {"time": 41999, "pitch": 42, "duration": 10, "velocity": 43}, {"time": 41999, "pitch": 63, "duration": 10, "velocity": 112}, {"time": 42238, "pitch": 38, "duration": 10, "velocity": 122}, {"time": 42238, "pitch": 44, "duration": 10, "velocity": 115}, {"time": 42238, "pitch": 64, "duration": 10, "velocity": 112}, {"time": 42359, "pitch": 62, "duration": 10, "velocity": 42}, {"time": 42359, "pitch": 75, "duration": 10, "velocity": 96}, {"time": 42480, "pitch": 42, "duration": 10, "velocity": 73}, {"time": 42480, "pitch": 62, "duration": 10, "velocity": 70}, {"time": 42722, "pitch": 36, "duration": 10, "velocity": 111}, {"time": 42722, "pitch": 44, "duration": 10, "velocity": 115}, {"time": 42722, "pitch": 62, "duration": 10, "velocity": 102}, {"time": 42961, "pitch": 42, "duration": 10, "velocity": 60}, {"time": 42961, "pitch": 63, "duration": 10, "velocity": 92}, {"time": 43200, "pitch": 38, "duration": 10, "velocity": 118}, {"time": 43200, "pitch": 44, "duration": 10, "velocity": 115}, {"time": 43200, "pitch": 64, "duration": 10, "velocity": 110}, {"time": 43320, "pitch": 75, "duration": 10, "velocity": 105}, {"time": 43439, "pitch": 36, "duration": 10, "velocity": 111}, {"time": 43439, "pitch": 42, "duration": 10, "velocity": 58}, {"time": 43439, "pitch": 62, "duration": 10, "velocity": 42}, {"time": 43559, "pitch": 36, "duration": 10, "velocity": 111}, {"time": 43559, "pitch": 62, "duration": 10, "velocity": 71}, {"time": 43679, "pitch": 44, "duration": 10, "velocity": 115}, {"time": 43679, "pitch": 62, "duration": 10, "velocity": 82}, {"time": 43679, "pitch": 75, "duration": 10, "velocity": 101}, {"time": 43800, "pitch": 63, "duration": 10, "velocity": 85}, {"time": 43921, "pitch": 36, "duration": 10, "velocity": 111}, {"time": 43921, "pitch": 42, "duration": 10, "velocity": 75}, {"time": 43921, "pitch": 63, "duration": 10, "velocity": 112}, {"time": 44042, "pitch": 44, "duration": 10, "velocity": 111}, {"time": 44042, "pitch": 75, "duration": 10, "velocity": 103}, {"time": 44102, "pitch": 42, "duration": 10, "velocity": 72}, {"time": 44163, "pitch": 38, "duration": 9, "velocity": 107}, {"time": 44163, "pitch": 44, "duration": 9, "velocity": 115}, {"time": 44163, "pitch": 64, "duration": 9, "velocity": 112}, {"time": 44282, "pitch": 42, "duration": 10, "velocity": 114}, {"time": 44282, "pitch": 62, "duration": 10, "velocity": 42}, {"time": 44402, "pitch": 46, "duration": 10, "velocity": 91}, {"time": 44402, "pitch": 62, "duration": 10, "velocity": 70}, {"time": 44641, "pitch": 36, "duration": 10, "velocity": 111}, {"time": 44641, "pitch": 44, "duration": 10, "velocity": 115}, {"time": 44641, "pitch": 62, "duration": 10, "velocity": 102}, {"time": 44880, "pitch": 42, "duration": 10, "velocity": 87}, {"time": 44880, "pitch": 63, "duration": 10, "velocity": 92}, {"time": 45119, "pitch": 38, "duration": 10, "velocity": 122}, {"time": 45119, "pitch": 44, "duration": 10, "velocity": 115}, {"time": 45119, "pitch": 64, "duration": 10, "velocity": 110}, {"time": 45359, "pitch": 36, "duration": 10, "velocity": 111}, {"time": 45359, "pitch": 42, "duration": 10, "velocity": 63}, {"time": 45359, "pitch": 62, "duration": 10, "velocity": 42}, {"time": 45478, "pitch": 36, "duration": 10, "velocity": 111}, {"time": 45478, "pitch": 62, "duration": 10, "velocity": 71}, {"time": 45598, "pitch": 44, "duration": 10, "velocity": 115}, {"time": 45598, "pitch": 62, "duration": 10, "velocity": 82}, {"time": 45719, "pitch": 63, "duration": 10, "velocity": 85}, {"time": 45840, "pitch": 36, "duration": 10, "velocity": 111}, {"time": 45840, "pitch": 42, "duration": 10, "velocity": 43}, {"time": 45840, "pitch": 63, "duration": 10, "velocity": 112}, {"time": 46082, "pitch": 38, "duration": 10, "velocity": 122}, {"time": 46082, "pitch": 44, "duration": 10, "velocity": 115}, {"time": 46082, "pitch": 64, "duration": 10, "velocity": 112}, {"time": 46201, "pitch": 62, "duration": 10, "velocity": 42}, {"time": 46201, "pitch": 75, "duration": 10, "velocity": 105}, {"time": 46321, "pitch": 42, "duration": 10, "velocity": 73}, {"time": 46321, "pitch": 62, "duration": 10, "velocity": 70}, {"time": 46560, "pitch": 36, "duration": 10, "velocity": 111}, {"time": 46560, "pitch": 44, "duration": 10, "velocity": 115}, {"time": 46560, "pitch": 62, "duration": 10, "velocity": 102}, {"time": 46799, "pitch": 42, "duration": 10, "velocity": 60}, {"time": 46799, "pitch": 63, "duration": 10, "velocity": 92}, {"time": 47039, "pitch": 38, "duration": 10, "velocity": 118}, {"time": 47039, "pitch": 44, "duration": 10, "velocity": 115}, {"time": 47039, "pitch": 64, "duration": 10, "velocity": 110}, {"time": 47281, "pitch": 36, "duration": 10, "velocity": 111}, {"time": 47281, "pitch": 42, "duration": 10, "velocity": 58}, {"time": 47281, "pitch": 62, "duration": 10, "velocity": 42}, {"time": 47402, "pitch": 36, "duration": 10, "velocity": 111}, {"time": 47402, "pitch": 62, "duration": 10, "velocity": 71}, {"time": 47523, "pitch": 44, "duration": 9, "velocity": 115}, {"time": 47523, "pitch": 62, "duration": 9, "velocity": 82}, {"time": 47642, "pitch": 63, "duration": 10, "velocity": 85}, {"time": 47762, "pitch": 36, "duration": 10, "velocity": 111}, {"time": 47762, "pitch": 42, "duration": 10, "velocity": 75}, {"time": 47762, "pitch": 63, "duration": 10, "velocity": 112}, {"time": 47881, "pitch": 44, "duration": 10, "velocity": 111}, {"time": 47881, "pitch": 75, "duration": 10, "velocity": 98}, {"time": 47941, "pitch": 42, "duration": 10, "velocity": 72}, {"time": 48001, "pitch": 38, "duration": 10, "velocity": 107}, {"time": 48001, "pitch": 44, "duration": 10, "velocity": 115}, {"time": 48001, "pitch": 64, "duration": 10, "velocity": 112}, {"time": 48121, "pitch": 42, "duration": 9, "velocity": 114}, {"time": 48121, "pitch": 62, "duration": 9, "velocity": 42}, {"time": 48240, "pitch": 46, "duration": 10, "velocity": 91}, {"time": 48240, "pitch": 62, "duration": 10, "velocity": 70}, {"time": 48240, "pitch": 75, "duration": 10, "velocity": 103}, {"time": 48479, "pitch": 36, "duration": 10, "velocity": 111}, {"time": 48479, "pitch": 44, "duration": 10, "velocity": 115}, {"time": 48479, "pitch": 62, "duration": 10, "velocity": 102}, {"time": 48719, "pitch": 42, "duration": 10, "velocity": 87}, {"time": 48719, "pitch": 63, "duration": 10, "velocity": 92}, {"time": 48958, "pitch": 38, "duration": 10, "velocity": 122}, {"time": 48958, "pitch": 44, "duration": 10, "velocity": 115}, {"time": 48958, "pitch": 64, "duration": 10, "velocity": 110}, {"time": 49200, "pitch": 36, "duration": 10, "velocity": 111}, {"time": 49200, "pitch": 42, "duration": 10, "velocity": 63}, {"time": 49200, "pitch": 62, "duration": 10, "velocity": 42}, {"time": 49321, "pitch": 36, "duration": 10, "velocity": 111}, {"time": 49321, "pitch": 62, "duration": 10, "velocity": 71}, {"time": 49442, "pitch": 44, "duration": 10, "velocity": 115}, {"time": 49442, "pitch": 62, "duration": 10, "velocity": 82}, {"time": 49561, "pitch": 63, "duration": 10, "velocity": 85}, {"time": 49681, "pitch": 36, "duration": 10, "velocity": 111}, {"time": 49681, "pitch": 42, "duration": 10, "velocity": 43}, {"time": 49681, "pitch": 63, "duration": 10, "velocity": 112}, {"time": 49920, "pitch": 38, "duration": 10, "velocity": 122}, {"time": 49920, "pitch": 44, "duration": 10, "velocity": 115}, {"time": 49920, "pitch": 64, "duration": 10, "velocity": 112}, {"time": 50040, "pitch": 62, "duration": 10, "velocity": 42}, {"time": 50040, "pitch": 75, "duration": 10, "velocity": 103}, {"time": 50159, "pitch": 42, "duration": 10, "velocity": 73}, {"time": 50159, "pitch": 62, "duration": 10, "velocity": 70}, {"time": 50399, "pitch": 36, "duration": 10, "velocity": 111}, {"time": 50399, "pitch": 44, "duration": 10, "velocity": 115}, {"time": 50399, "pitch": 62, "duration": 10, "velocity": 102}, {"time": 50520, "pitch": 82, "duration": 10, "velocity": 75}, {"time": 50641, "pitch": 42, "duration": 10, "velocity": 60}, {"time": 50641, "pitch": 63, "duration": 10, "velocity": 92}, {"time": 50883, "pitch": 38, "duration": 9, "velocity": 118}, {"time": 50883, "pitch": 44, "duration": 9, "velocity": 115}, {"time": 50883, "pitch": 64, "duration": 9, "velocity": 110}, {"time": 51122, "pitch": 36, "duration": 10, "velocity": 111}, {"time": 51122, "pitch": 42, "duration": 10, "velocity": 58}, {"time": 51122, "pitch": 62, "duration": 10, "velocity": 42}, {"time": 51241, "pitch": 36, "duration": 10, "velocity": 111}, {"time": 51241, "pitch": 62, "duration": 10, "velocity": 71}, {"time": 51361, "pitch": 44, "duration": 10, "velocity": 115}, {"time": 51361, "pitch": 62, "duration": 10, "velocity": 82}, {"time": 51481, "pitch": 64, "duration": 9, "velocity": 85}, {"time": 51600, "pitch": 36, "duration": 10, "velocity": 111}, {"time": 51600, "pitch": 42, "duration": 10, "velocity": 75}, {"time": 51720, "pitch": 44, "duration": 10, "velocity": 111}, {"time": 51720, "pitch": 63, "duration": 10, "velocity": 42}, {"time": 51720, "pitch": 75, "duration": 10, "velocity": 105}, {"time": 51780, "pitch": 42, "duration": 9, "velocity": 72}, {"time": 51839, "pitch": 38, "duration": 10, "velocity": 107}, {"time": 51839, "pitch": 44, "duration": 10, "velocity": 115}, {"time": 51839, "pitch": 64, "duration": 10, "velocity": 112}, {"time": 51959, "pitch": 42, "duration": 10, "velocity": 114}, {"time": 51959, "pitch": 62, "duration": 10, "velocity": 42}, {"time": 52079, "pitch": 46, "duration": 10, "velocity": 91}, {"time": 52079, "pitch": 62, "duration": 10, "velocity": 70}, {"time": 52079, "pitch": 75, "duration": 10, "velocity": 101}, {"time": 52318, "pitch": 36, "duration": 10, "velocity": 111}, {"time": 52318, "pitch": 44, "duration": 10, "velocity": 115}, {"time": 52318, "pitch": 62, "duration": 10, "velocity": 102}, {"time": 52560, "pitch": 42, "duration": 10, "velocity": 87}, {"time": 52560, "pitch": 63, "duration": 10, "velocity": 92}, {"time": 52560, "pitch": 82, "duration": 10, "velocity": 95}, {"time": 52802, "pitch": 38, "duration": 10, "velocity": 122}, {"time": 52802, "pitch": 44, "duration": 10, "velocity": 115}, {"time": 52802, "pitch": 64, "duration": 10, "velocity": 110}, {"time": 53041, "pitch": 36, "duration": 10, "velocity": 111}, {"time": 53041, "pitch": 42, "duration": 10, "velocity": 63}, {"time": 53041, "pitch": 62, "duration": 10, "velocity": 42}, {"time": 53041, "pitch": 82, "duration": 10, "velocity": 91}, {"time": 53161, "pitch": 36, "duration": 9, "velocity": 111}, {"time": 53161, "pitch": 62, "duration": 9, "velocity": 71}, {"time": 53161, "pitch": 82, "duration": 9, "velocity": 91}, {"time": 53280, "pitch": 44, "duration": 10, "velocity": 115}, {"time": 53280, "pitch": 62, "duration": 10, "velocity": 82}, {"time": 53400, "pitch": 63, "duration": 10, "velocity": 85}, {"time": 53519, "pitch": 36, "duration": 10, "velocity": 111}, {"time": 53519, "pitch": 42, "duration": 10, "velocity": 43}, {"time": 53519, "pitch": 63, "duration": 10, "velocity": 112}, {"time": 53639, "pitch": 75, "duration": 10, "velocity": 103}, {"time": 53759, "pitch": 38, "duration": 10, "velocity": 122}, {"time": 53759, "pitch": 44, "duration": 10, "velocity": 115}, {"time": 53759, "pitch": 64, "duration": 10, "velocity": 112}, {"time": 53880, "pitch": 62, "duration": 10, "velocity": 42}, {"time": 54001, "pitch": 42, "duration": 10, "velocity": 73}, {"time": 54001, "pitch": 62, "duration": 10, "velocity": 70}, {"time": 54001, "pitch": 81, "duration": 10, "velocity": 87}, {"time": 54001, "pitch": 82, "duration": 10, "velocity": 93}, {"time": 54122, "pitch": 82, "duration": 10, "velocity": 93}, {"time": 54243, "pitch": 36, "duration": 9, "velocity": 111}, {"time": 54243, "pitch": 44, "duration": 9, "velocity": 115}, {"time": 54243, "pitch": 62, "duration": 9, "velocity": 102}, {"time": 54243, "pitch": 75, "duration": 9, "velocity": 71}, {"time": 54482, "pitch": 42, "duration": 10, "velocity": 60}, {"time": 54482, "pitch": 63, "duration": 10, "velocity": 92}, {"time": 54721, "pitch": 38, "duration": 10, "velocity": 118}, {"time": 54721, "pitch": 44, "duration": 10, "velocity": 115}, {"time": 54721, "pitch": 64, "duration": 10, "velocity": 110}, {"time": 54841, "pitch": 80, "duration": 9, "velocity": 84}, {"time": 54960, "pitch": 36, "duration": 10, "velocity": 111}, {"time": 54960, "pitch": 42, "duration": 10, "velocity": 58}, {"time": 54960, "pitch": 62, "duration": 10, "velocity": 42}, {"time": 54960, "pitch": 81, "duration": 10, "velocity": 92}, {"time": 54960, "pitch": 82, "duration": 10, "velocity": 80}, {"time": 55080, "pitch": 36, "duration": 10, "velocity": 111}, {"time": 55080, "pitch": 62, "duration": 10, "velocity": 71}, {"time": 55080, "pitch": 82, "duration": 10, "velocity": 90}, {"time": 55199, "pitch": 44, "duration": 10, "velocity": 115}, {"time": 55199, "pitch": 62, "duration": 10, "velocity": 82}, {"time": 55319, "pitch": 63, "duration": 10, "velocity": 85}, {"time": 55439, "pitch": 36, "duration": 9, "velocity": 111}, {"time": 55439, "pitch": 42, "duration": 9, "velocity": 75}, {"time": 55439, "pitch": 63, "duration": 9, "velocity": 112}, {"time": 55439, "pitch": 75, "duration": 9, "velocity": 105}, {"time": 55558, "pitch": 44, "duration": 10, "velocity": 111}, {"time": 55618, "pitch": 42, "duration": 10, "velocity": 72}, {"time": 55678, "pitch": 38, "duration": 10, "velocity": 107}, {"time": 55678, "pitch": 44, "duration": 10, "velocity": 115}, {"time": 55678, "pitch": 64, "duration": 10, "velocity": 112}, {"time": 55799, "pitch": 42, "duration": 10, "velocity": 114}, {"time": 55799, "pitch": 62, "duration": 10, "velocity": 42}, {"time": 55799, "pitch": 75, "duration": 10, "velocity": 105}, {"time": 55920, "pitch": 46, "duration": 10, "velocity": 91}, {"time": 55920, "pitch": 62, "duration": 10, "velocity": 70}, {"time": 55920, "pitch": 82, "duration": 10, "velocity": 88}, {"time": 56041, "pitch": 80, "duration": 10, "velocity": 80}, {"time": 56041, "pitch": 82, "duration": 10, "velocity": 96}, {"time": 56162, "pitch": 36, "duration": 10, "velocity": 111}, {"time": 56162, "pitch": 44, "duration": 10, "velocity": 115}, {"time": 56162, "pitch": 62, "duration": 10, "velocity": 102}, {"time": 56162, "pitch": 81, "duration": 10, "velocity": 55}, {"time": 56401, "pitch": 42, "duration": 10, "velocity": 87}, {"time": 56401, "pitch": 63, "duration": 10, "velocity": 92}, {"time": 56401, "pitch": 75, "duration": 10, "velocity": 99}, {"time": 56640, "pitch": 38, "duration": 10, "velocity": 122}, {"time": 56640, "pitch": 44, "duration": 10, "velocity": 115}, {"time": 56640, "pitch": 64, "duration": 10, "velocity": 110}, {"time": 56879, "pitch": 36, "duration": 10, "velocity": 111}, {"time": 56879, "pitch": 42, "duration": 10, "velocity": 63}, {"time": 56879, "pitch": 62, "duration": 10, "velocity": 42}, {"time": 56879, "pitch": 82, "duration": 10, "velocity": 81}, {"time": 56999, "pitch": 36, "duration": 10, "velocity": 111}, {"time": 56999, "pitch": 62, "duration": 10, "velocity": 71}, {"time": 56999, "pitch": 82, "duration": 10, "velocity": 95}, {"time": 57119, "pitch": 44, "duration": 10, "velocity": 115}, {"time": 57119, "pitch": 62, "duration": 10, "velocity": 82}, {"time": 57240, "pitch": 63, "duration": 10, "velocity": 85}, {"time": 57361, "pitch": 36, "duration": 10, "velocity": 111}, {"time": 57361, "pitch": 42, "duration": 10, "velocity": 43}, {"time": 57361, "pitch": 63, "duration": 10, "velocity": 112}, {"time": 57603, "pitch": 38, "duration": 9, "velocity": 122}, {"time": 57603, "pitch": 44, "duration": 9, "velocity": 115}, {"time": 57603, "pitch": 64, "duration": 9, "velocity": 112}, {"time": 57722, "pitch": 62, "duration": 10, "velocity": 42}, {"time": 57722, "pitch": 80, "duration": 10, "velocity": 99}, {"time": 57842, "pitch": 42, "duration": 10, "velocity": 73}, {"time": 57842, "pitch": 62, "duration": 10, "velocity": 70}, {"time": 57842, "pitch": 81, "duration": 10, "velocity": 99}, {"time": 57842, "pitch": 82, "duration": 10, "velocity": 84}, {"time": 57961, "pitch": 82, "duration": 10, "velocity": 95}, {"time": 58081, "pitch": 36, "duration": 10, "velocity": 111}, {"time": 58081, "pitch": 44, "duration": 10, "velocity": 115}, {"time": 58081, "pitch": 62, "duration": 10, "velocity": 102}, {"time": 58320, "pitch": 42, "duration": 10, "velocity": 60}, {"time": 58320, "pitch": 63, "duration": 10, "velocity": 92}, {"time": 58320, "pitch": 75, "duration": 10, "velocity": 105}, {"time": 58559, "pitch": 38, "duration": 10, "velocity": 118}, {"time": 58559, "pitch": 44, "duration": 10, "velocity": 115}, {"time": 58559, "pitch": 64, "duration": 10, "velocity": 110}, {"time": 58679, "pitch": 75, "duration": 10, "velocity": 99}, {"time": 58799, "pitch": 36, "duration": 9, "velocity": 111}, {"time": 58799, "pitch": 42, "duration": 9, "velocity": 58}, {"time": 58799, "pitch": 62, "duration": 9, "velocity": 42}, {"time": 58799, "pitch": 82, "duration": 9, "velocity": 81}, {"time": 58918, "pitch": 36, "duration": 10, "velocity": 111}, {"time": 58918, "pitch": 62, "duration": 10, "velocity": 71}, {"time": 58918, "pitch": 82, "duration": 10, "velocity": 85}, {"time": 59038, "pitch": 44, "duration": 10, "velocity": 115}, {"time": 59038, "pitch": 62, "duration": 10, "velocity": 82}, {"time": 59159, "pitch": 63, "duration": 10, "velocity": 85}, {"time": 59280, "pitch": 36, "duration": 10, "velocity": 111}, {"time": 59280, "pitch": 42, "duration": 10, "velocity": 75}, {"time": 59280, "pitch": 63, "duration": 10, "velocity": 112}, {"time": 59401, "pitch": 44, "duration": 10, "velocity": 111}, {"time": 59461, "pitch": 42, "duration": 10, "velocity": 72}, {"time": 59522, "pitch": 38, "duration": 10, "velocity": 107}, {"time": 59522, "pitch": 44, "duration": 10, "velocity": 115}, {"time": 59522, "pitch": 64, "duration": 10, "velocity": 112}, {"time": 59641, "pitch": 42, "duration": 10, "velocity": 114}, {"time": 59641, "pitch": 62, "duration": 10, "velocity": 42}, {"time": 59641, "pitch": 80, "duration": 10, "velocity": 83}, {"time": 59761, "pitch": 46, "duration": 10, "velocity": 91}, {"time": 59761, "pitch": 62, "duration": 10, "velocity": 70}, {"time": 59761, "pitch": 81, "duration": 10, "velocity": 99}, {"time": 59761, "pitch": 82, "duration": 10, "velocity": 87}, {"time": 59881, "pitch": 82, "duration": 9, "velocity": 93}, {"time": 60000, "pitch": 36, "duration": 10, "velocity": 111}, {"time": 60000, "pitch": 44, "duration": 10, "velocity": 115}, {"time": 60000, "pitch": 62, "duration": 10, "velocity": 102}, {"time": 60239, "pitch": 42, "duration": 10, "velocity": 87}, {"time": 60239, "pitch": 63, "duration": 10, "velocity": 92}, {"time": 60239, "pitch": 81, "duration": 10, "velocity": 92}, {"time": 60479, "pitch": 38, "duration": 10, "velocity": 122}, {"time": 60479, "pitch": 44, "duration": 10, "velocity": 115}, {"time": 60479, "pitch": 64, "duration": 10, "velocity": 110}, {"time": 60721, "pitch": 36, "duration": 10, "velocity": 111}, {"time": 60721, "pitch": 42, "duration": 10, "velocity": 63}, {"time": 60721, "pitch": 62, "duration": 10, "velocity": 42}, {"time": 60721, "pitch": 82, "duration": 10, "velocity": 84}, {"time": 60842, "pitch": 36, "duration": 10, "velocity": 111}, {"time": 60842, "pitch": 62, "duration": 10, "velocity": 71}, {"time": 60842, "pitch": 82, "duration": 10, "velocity": 91}, {"time": 60963, "pitch": 44, "duration": 9, "velocity": 115}, {"time": 60963, "pitch": 62, "duration": 9, "velocity": 82}, {"time": 61082, "pitch": 63, "duration": 10, "velocity": 85}, {"time": 61202, "pitch": 36, "duration": 10, "velocity": 111}, {"time": 61202, "pitch": 42, "duration": 10, "velocity": 43}, {"time": 61202, "pitch": 63, "duration": 10, "velocity": 112}, {"time": 61321, "pitch": 75, "duration": 10, "velocity": 96}, {"time": 61441, "pitch": 38, "duration": 10, "velocity": 122}, {"time": 61441, "pitch": 44, "duration": 10, "velocity": 115}, {"time": 61441, "pitch": 64, "duration": 10, "velocity": 112}, {"time": 61561, "pitch": 62, "duration": 9, "velocity": 42}, {"time": 61680, "pitch": 42, "duration": 10, "velocity": 73}, {"time": 61680, "pitch": 62, "duration": 10, "velocity": 70}, {"time": 61680, "pitch": 75, "duration": 10, "velocity": 101}, {"time": 61680, "pitch": 82, "duration": 10, "velocity": 88}, {"time": 61800, "pitch": 82, "duration": 10, "velocity": 85}, {"time": 61919, "pitch": 36, "duration": 10, "velocity": 111}, {"time": 61919, "pitch": 44, "duration": 10, "velocity": 115}, {"time": 61919, "pitch": 62, "duration": 10, "velocity": 102}, {"time": 62159, "pitch": 42, "duration": 9, "velocity": 60}, {"time": 62159, "pitch": 63, "duration": 9, "velocity": 92}, {"time": 62398, "pitch": 38, "duration": 10, "velocity": 118}, {"time": 62398, "pitch": 44, "duration": 10, "velocity": 115}, {"time": 62398, "pitch": 64, "duration": 10, "velocity": 110}, {"time": 62519, "pitch": 80, "duration": 10, "velocity": 80}, {"time": 62640, "pitch": 36, "duration": 10, "velocity": 111}, {"time": 62640, "pitch": 42, "duration": 10, "velocity": 58}, {"time": 62640, "pitch": 62, "duration": 10, "velocity": 42}, {"time": 62640, "pitch": 81, "duration": 10, "velocity": 90}, {"time": 62640, "pitch": 82, "duration": 10, "velocity": 55}, {"time": 62761, "pitch": 36, "duration": 10, "velocity": 111}, {"time": 62761, "pitch": 62, "duration": 10, "velocity": 71}, {"time": 62761, "pitch": 82, "duration": 10, "velocity": 87}, {"time": 62882, "pitch": 44, "duration": 10, "velocity": 115}, {"time": 62882, "pitch": 62, "duration": 10, "velocity": 82}, {"time": 63001, "pitch": 63, "duration": 10, "velocity": 85}, {"time": 63121, "pitch": 36, "duration": 10, "velocity": 111}, {"time": 63121, "pitch": 42, "duration": 10, "velocity": 75}, {"time": 63121, "pitch": 63, "duration": 10, "velocity": 112}, {"time": 63241, "pitch": 44, "duration": 9, "velocity": 111}, {"time": 63241, "pitch": 62, "duration": 9, "velocity": 88}, {"time": 63300, "pitch": 42, "duration": 10, "velocity": 72}, {"time": 63300, "pitch": 62, "duration": 10, "velocity": 82}, {"time": 63360, "pitch": 38, "duration": 10, "velocity": 107}, {"time": 63360, "pitch": 44, "duration": 10, "velocity": 115}, {"time": 63360, "pitch": 64, "duration": 10, "velocity": 103}, {"time": 63480, "pitch": 42, "duration": 10, "velocity": 114}, {"time": 63480, "pitch": 64, "duration": 10, "velocity": 105}, {"time": 63480, "pitch": 80, "duration": 10, "velocity": 94}, {"time": 63599, "pitch": 46, "duration": 10, "velocity": 91}, {"time": 63599, "pitch": 62, "duration": 10, "velocity": 82}, {"time": 63599, "pitch": 81, "duration": 10, "velocity": 85}, {"time": 63599, "pitch": 82, "duration": 10, "velocity": 91}, {"time": 63719, "pitch": 75, "duration": 10, "velocity": 105}, {"time": 63719, "pitch": 82, "duration": 10, "velocity": 90}, {"time": 63839, "pitch": 36, "duration": 10, "velocity": 111}, {"time": 63839, "pitch": 44, "duration": 10, "velocity": 115}, {"time": 63839, "pitch": 62, "duration": 10, "velocity": 102}, {"time": 64081, "pitch": 42, "duration": 10, "velocity": 87}, {"time": 64081, "pitch": 63, "duration": 10, "velocity": 92}, {"time": 64323, "pitch": 38, "duration": 9, "velocity": 122}, {"time": 64323, "pitch": 44, "duration": 9, "velocity": 115}, {"time": 64323, "pitch": 64, "duration": 9, "velocity": 110}, {"time": 64562, "pitch": 36, "duration": 10, "velocity": 111}, {"time": 64562, "pitch": 42, "duration": 10, "velocity": 63}, {"time": 64562, "pitch": 62, "duration": 10, "velocity": 42}, {"time": 64562, "pitch": 82, "duration": 10, "velocity": 68}, {"time": 64681, "pitch": 36, "duration": 10, "velocity": 111}, {"time": 64681, "pitch": 62, "duration": 10, "velocity": 71}, {"time": 64681, "pitch": 82, "duration": 10, "velocity": 87}, {"time": 64801, "pitch": 44, "duration": 10, "velocity": 115}, {"time": 64801, "pitch": 62, "duration": 10, "velocity": 82}, {"time": 64921, "pitch": 63, "duration": 9, "velocity": 85}, {"time": 65040, "pitch": 36, "duration": 10, "velocity": 111}, {"time": 65040, "pitch": 42, "duration": 10, "velocity": 43}, {"time": 65040, "pitch": 63, "duration": 10, "velocity": 112}, {"time": 65279, "pitch": 38, "duration": 10, "velocity": 122}, {"time": 65279, "pitch": 44, "duration": 10, "velocity": 115}, {"time": 65279, "pitch": 64, "duration": 10, "velocity": 112}, {"time": 65399, "pitch": 62, "duration": 10, "velocity": 42}, {"time": 65399, "pitch": 75, "duration": 10, "velocity": 106}, {"time": 65519, "pitch": 42, "duration": 9, "velocity": 73}, {"time": 65519, "pitch": 62, "duration": 9, "velocity": 70}, {"time": 65519, "pitch": 82, "duration": 9, "velocity": 64}, {"time": 65638, "pitch": 82, "duration": 10, "velocity": 91}, {"time": 65758, "pitch": 36, "duration": 10, "velocity": 111}, {"time": 65758, "pitch": 44, "duration": 10, "velocity": 115}, {"time": 65758, "pitch": 62, "duration": 10, "velocity": 102}, {"time": 65758, "pitch": 75, "duration": 10, "velocity": 99}, {"time": 66000, "pitch": 42, "duration": 10, "velocity": 60}, {"time": 66000, "pitch": 63, "duration": 10, "velocity": 92}, {"time": 66242, "pitch": 38, "duration": 10, "velocity": 118}, {"time": 66242, "pitch": 44, "duration": 10, "velocity": 115}, {"time": 66242, "pitch": 64, "duration": 10, "velocity": 110}, {"time": 66481, "pitch": 36, "duration": 10, "velocity": 111}, {"time": 66481, "pitch": 42, "duration": 10, "velocity": 58}, {"time": 66481, "pitch": 62, "duration": 10, "velocity": 42}, {"time": 66481, "pitch": 82, "duration": 10, "velocity": 90}, {"time": 66601, "pitch": 36, "duration": 9, "velocity": 111}, {"time": 66601, "pitch": 62, "duration": 9, "velocity": 71}, {"time": 66601, "pitch": 82, "duration": 9, "velocity": 79}, {"time": 66720, "pitch": 44, "duration": 10, "velocity": 115}, {"time": 66720, "pitch": 62, "duration": 10, "velocity": 82}, {"time": 66840, "pitch": 63, "duration": 10, "velocity": 85}, {"time": 66959, "pitch": 36, "duration": 10, "velocity": 111}, {"time": 66959, "pitch": 42, "duration": 10, "velocity": 75}, {"time": 66959, "pitch": 63, "duration": 10, "velocity": 112}, {"time": 66959, "pitch": 82, "duration": 10, "velocity": 88}, {"time": 67079, "pitch": 44, "duration": 10, "velocity": 111}, {"time": 67079, "pitch": 75, "duration": 10, "velocity": 105}, {"time": 67139, "pitch": 42, "duration": 10, "velocity": 72}, {"time": 67199, "pitch": 38, "duration": 10, "velocity": 107}, {"time": 67199, "pitch": 44, "duration": 10, "velocity": 115}, {"time": 67199, "pitch": 64, "duration": 10, "velocity": 112}, {"time": 67320, "pitch": 42, "duration": 10, "velocity": 114}, {"time": 67320, "pitch": 62, "duration": 10, "velocity": 42}, {"time": 67441, "pitch": 46, "duration": 10, "velocity": 91}, {"time": 67441, "pitch": 62, "duration": 10, "velocity": 70}, {"time": 67441, "pitch": 75, "duration": 10, "velocity": 98}, {"time": 67441, "pitch": 82, "duration": 10, "velocity": 87}, {"time": 67562, "pitch": 80, "duration": 10, "velocity": 62}, {"time": 67562, "pitch": 82, "duration": 10, "velocity": 96}, {"time": 67683, "pitch": 36, "duration": 9, "velocity": 111}, {"time": 67683, "pitch": 44, "duration": 9, "velocity": 115}, {"time": 67683, "pitch": 62, "duration": 9, "velocity": 102}, {"time": 67683, "pitch": 81, "duration": 9, "velocity": 72}, {"time": 67922, "pitch": 42, "duration": 10, "velocity": 87}, {"time": 67922, "pitch": 63, "duration": 10, "velocity": 92}, {"time": 68161, "pitch": 38, "duration": 10, "velocity": 122}, {"time": 68161, "pitch": 44, "duration": 10, "velocity": 115}, {"time": 68161, "pitch": 64, "duration": 10, "velocity": 110}, {"time": 68400, "pitch": 36, "duration": 10, "velocity": 111}, {"time": 68400, "pitch": 42, "duration": 10, "velocity": 63}, {"time": 68400, "pitch": 62, "duration": 10, "velocity": 42}, {"time": 68400, "pitch": 82, "duration": 10, "velocity": 87}, {"time": 68520, "pitch": 36, "duration": 10, "velocity": 111}, {"time": 68520, "pitch": 62, "duration": 10, "velocity": 71}, {"time": 68520, "pitch": 82, "duration": 10, "velocity": 91}, {"time": 68639, "pitch": 44, "duration": 10, "velocity": 115}, {"time": 68639, "pitch": 62, "duration": 10, "velocity": 82}, {"time": 68759, "pitch": 63, "duration": 10, "velocity": 85}, {"time": 68879, "pitch": 36, "duration": 9, "velocity": 111}, {"time": 68879, "pitch": 42, "duration": 9, "velocity": 43}, {"time": 68879, "pitch": 63, "duration": 9, "velocity": 112}, {"time": 69118, "pitch": 38, "duration": 10, "velocity": 122}, {"time": 69118, "pitch": 44, "duration": 10, "velocity": 115}, {"time": 69118, "pitch": 64, "duration": 10, "velocity": 112}, {"time": 69239, "pitch": 62, "duration": 10, "velocity": 42}, {"time": 69239, "pitch": 75, "duration": 10, "velocity": 106}, {"time": 69360, "pitch": 42, "duration": 10, "velocity": 73}, {"time": 69360, "pitch": 62, "duration": 10, "velocity": 70}, {"time": 69360, "pitch": 82, "duration": 10, "velocity": 81}, {"time": 69481, "pitch": 82, "duration": 10, "velocity": 90}, {"time": 69602, "pitch": 36, "duration": 10, "velocity": 111}, {"time": 69602, "pitch": 44, "duration": 10, "velocity": 115}, {"time": 69602, "pitch": 62, "duration": 10, "velocity": 102}, {"time": 69602, "pitch": 75, "duration": 10, "velocity": 105}, {"time": 69841, "pitch": 42, "duration": 10, "velocity": 60}, {"time": 69841, "pitch": 63, "duration": 10, "velocity": 92}, {"time": 70080, "pitch": 38, "duration": 10, "velocity": 118}, {"time": 70080, "pitch": 44, "duration": 10, "velocity": 115}, {"time": 70080, "pitch": 64, "duration": 10, "velocity": 110}, {"time": 70319, "pitch": 36, "duration": 10, "velocity": 111}, {"time": 70319, "pitch": 42, "duration": 10, "velocity": 58}, {"time": 70319, "pitch": 62, "duration": 10, "velocity": 42}, {"time": 70319, "pitch": 82, "duration": 10, "velocity": 88}, {"time": 70439, "pitch": 36, "duration": 10, "velocity": 111}, {"time": 70439, "pitch": 62, "duration": 10, "velocity": 71}, {"time": 70439, "pitch": 82, "duration": 10, "velocity": 91}, {"time": 70559, "pitch": 44, "duration": 10, "velocity": 115}, {"time": 70559, "pitch": 62, "duration": 10, "velocity": 82}, {"time": 70680, "pitch": 63, "duration": 10, "velocity": 85}, {"time": 70680, "pitch": 80, "duration": 10, "velocity": 83}, {"time": 70801, "pitch": 36, "duration": 10, "velocity": 111}, {"time": 70801, "pitch": 42, "duration": 10, "velocity": 75}, {"time": 70801, "pitch": 63, "duration": 10, "velocity": 112}, {"time": 70801, "pitch": 81, "duration": 10, "velocity": 91}, {"time": 70922, "pitch": 44, "duration": 10, "velocity": 111}, {"time": 70982, "pitch": 42, "duration": 10, "velocity": 72}, {"time": 71043, "pitch": 38, "duration": 9, "velocity": 107}, {"time": 71043, "pitch": 44, "duration": 9, "velocity": 115}, {"time": 71043, "pitch": 64, "duration": 9, "velocity": 112}, {"time": 71162, "pitch": 42, "duration": 10, "velocity": 114}, {"time": 71162, "pitch": 62, "duration": 10, "velocity": 42}, {"time": 71162, "pitch": 75, "duration": 10, "velocity": 105}, {"time": 71282, "pitch": 46, "duration": 10, "velocity": 91}, {"time": 71282, "pitch": 62, "duration": 10, "velocity": 70}, {"time": 71282, "pitch": 82, "duration": 10, "velocity": 88}, {"time": 71401, "pitch": 82, "duration": 10, "velocity": 79}, {"time": 71521, "pitch": 36, "duration": 10, "velocity": 111}, {"time": 71521, "pitch": 44, "duration": 10, "velocity": 115}, {"time": 71521, "pitch": 62, "duration": 10, "velocity": 102}, {"time": 71521, "pitch": 75, "duration": 10, "velocity": 103}, {"time": 71760, "pitch": 42, "duration": 10, "velocity": 87}, {"time": 71760, "pitch": 63, "duration": 10, "velocity": 92}, {"time": 71999, "pitch": 38, "duration": 10, "velocity": 122}, {"time": 71999, "pitch": 44, "duration": 10, "velocity": 115}, {"time": 71999, "pitch": 64, "duration": 10, "velocity": 110}, {"time": 72239, "pitch": 36, "duration": 9, "velocity": 111}, {"time": 72239, "pitch": 42, "duration": 9, "velocity": 63}, {"time": 72239, "pitch": 62, "duration": 9, "velocity": 42}, {"time": 72358, "pitch": 36, "duration": 10, "velocity": 111}, {"time": 72358, "pitch": 62, "duration": 10, "velocity": 71}, {"time": 72478, "pitch": 44, "duration": 10, "velocity": 115}, {"time": 72478, "pitch": 62, "duration": 10, "velocity": 82}, {"time": 72599, "pitch": 63, "duration": 10, "velocity": 85}, {"time": 72720, "pitch": 36, "duration": 10, "velocity": 111}, {"time": 72720, "pitch": 42, "duration": 10, "velocity": 43}, {"time": 72720, "pitch": 63, "duration": 10, "velocity": 112}, {"time": 72720, "pitch": 80, "duration": 10, "velocity": 76}, {"time": 72841, "pitch": 81, "duration": 10, "velocity": 88}, {"time": 72962, "pitch": 38, "duration": 10, "velocity": 122}, {"time": 72962, "pitch": 44, "duration": 10, "velocity": 115}, {"time": 72962, "pitch": 64, "duration": 10, "velocity": 112}, {"time": 73081, "pitch": 62, "duration": 10, "velocity": 42}, {"time": 73201, "pitch": 42, "duration": 10, "velocity": 73}, {"time": 73201, "pitch": 62, "duration": 10, "velocity": 70}, {"time": 73440, "pitch": 36, "duration": 10, "velocity": 111}, {"time": 73440, "pitch": 44, "duration": 10, "velocity": 115}, {"time": 73440, "pitch": 62, "duration": 10, "velocity": 102}, {"time": 73679, "pitch": 42, "duration": 10, "velocity": 60}, {"time": 73679, "pitch": 63, "duration": 10, "velocity": 92}, {"time": 73919, "pitch": 38, "duration": 10, "velocity": 118}, {"time": 73919, "pitch": 44, "duration": 10, "velocity": 115}, {"time": 73919, "pitch": 64, "duration": 10, "velocity": 110}, {"time": 74040, "pitch": 75, "duration": 10, "velocity": 108}, {"time": 74161, "pitch": 36, "duration": 10, "velocity": 111}, {"time": 74161, "pitch": 42, "duration": 10, "velocity": 58}, {"time": 74161, "pitch": 62, "duration": 10, "velocity": 42}, {"time": 74282, "pitch": 36, "duration": 10, "velocity": 111}, {"time": 74282, "pitch": 62, "duration": 10, "velocity": 71}, {"time": 74402, "pitch": 44, "duration": 10, "velocity": 115}, {"time": 74402, "pitch": 62, "duration": 10, "velocity": 82}, {"time": 74402, "pitch": 75, "duration": 10, "velocity": 98}, {"time": 74522, "pitch": 63, "duration": 10, "velocity": 85}, {"time": 74642, "pitch": 36, "duration": 10, "velocity": 111}, {"time": 74642, "pitch": 42, "duration": 10, "velocity": 75}, {"time": 74642, "pitch": 63, "duration": 10, "velocity": 112}, {"time": 74761, "pitch": 44, "duration": 10, "velocity": 111}, {"time": 74761, "pitch": 75, "duration": 10, "velocity": 110}, {"time": 74821, "pitch": 42, "duration": 10, "velocity": 72}, {"time": 74881, "pitch": 38, "duration": 10, "velocity": 107}, {"time": 74881, "pitch": 44, "duration": 10, "velocity": 115}, {"time": 74881, "pitch": 64, "duration": 10, "velocity": 112}, {"time": 75001, "pitch": 42, "duration": 9, "velocity": 114}, {"time": 75001, "pitch": 62, "duration": 9, "velocity": 42}, {"time": 75120, "pitch": 46, "duration": 10, "velocity": 91}, {"time": 75120, "pitch": 62, "duration": 10, "velocity": 70}, {"time": 75120, "pitch": 75, "duration": 10, "velocity": 103}, {"time": 75359, "pitch": 36, "duration": 10, "velocity": 111}, {"time": 75359, "pitch": 44, "duration": 10, "velocity": 115}, {"time": 75359, "pitch": 62, "duration": 10, "velocity": 102}, {"time": 75599, "pitch": 42, "duration": 9, "velocity": 87}, {"time": 75599, "pitch": 63, "duration": 9, "velocity": 92}, {"time": 75838, "pitch": 38, "duration": 10, "velocity": 122}, {"time": 75838, "pitch": 44, "duration": 10, "velocity": 115}, {"time": 75838, "pitch": 64, "duration": 10, "velocity": 110}, {"time": 76080, "pitch": 36, "duration": 10, "velocity": 111}, {"time": 76080, "pitch": 42, "duration": 10, "velocity": 63}, {"time": 76080, "pitch": 62, "duration": 10, "velocity": 42}, {"time": 76201, "pitch": 36, "duration": 10, "velocity": 111}, {"time": 76201, "pitch": 62, "duration": 10, "velocity": 71}, {"time": 76322, "pitch": 44, "duration": 10, "velocity": 115}, {"time": 76322, "pitch": 62, "duration": 10, "velocity": 82}, {"time": 76441, "pitch": 63, "duration": 10, "velocity": 85}, {"time": 76561, "pitch": 36, "duration": 10, "velocity": 111}, {"time": 76561, "pitch": 42, "duration": 10, "velocity": 43}, {"time": 76561, "pitch": 63, "duration": 10, "velocity": 112}, {"time": 76800, "pitch": 38, "duration": 10, "velocity": 122}, {"time": 76800, "pitch": 44, "duration": 10, "velocity": 115}, {"time": 76800, "pitch": 64, "duration": 10, "velocity": 112}, {"time": 76920, "pitch": 62, "duration": 10, "velocity": 42}, {"time": 77039, "pitch": 42, "duration": 10, "velocity": 73}, {"time": 77039, "pitch": 62, "duration": 10, "velocity": 70}, {"time": 77279, "pitch": 36, "duration": 10, "velocity": 111}, {"time": 77279, "pitch": 44, "duration": 10, "velocity": 115}, {"time": 77279, "pitch": 62, "duration": 10, "velocity": 102}, {"time": 77521, "pitch": 42, "duration": 10, "velocity": 60}, {"time": 77521, "pitch": 63, "duration": 10, "velocity": 92}, {"time": 77762, "pitch": 38, "duration": 10, "velocity": 118}, {"time": 77762, "pitch": 44, "duration": 10, "velocity": 115}, {"time": 77762, "pitch": 64, "duration": 10, "velocity": 110}, {"time": 77882, "pitch": 75, "duration": 10, "velocity": 98}, {"time": 78002, "pitch": 36, "duration": 10, "velocity": 111}, {"time": 78002, "pitch": 42, "duration": 10, "velocity": 58}, {"time": 78002, "pitch": 62, "duration": 10, "velocity": 42}, {"time": 78121, "pitch": 36, "duration": 10, "velocity": 111}, {"time": 78121, "pitch": 62, "duration": 10, "velocity": 71}, {"time": 78241, "pitch": 44, "duration": 10, "velocity": 115}, {"time": 78241, "pitch": 62, "duration": 10, "velocity": 82}, {"time": 78241, "pitch": 75, "duration": 10, "velocity": 101}, {"time": 78361, "pitch": 63, "duration": 9, "velocity": 85}, {"time": 78480, "pitch": 36, "duration": 10, "velocity": 111}, {"time": 78480, "pitch": 42, "duration": 10, "velocity": 75}, {"time": 78480, "pitch": 63, "duration": 10, "velocity": 112}, {"time": 78600, "pitch": 44, "duration": 10, "velocity": 111}, {"time": 78600, "pitch": 75, "duration": 10, "velocity": 99}, {"time": 78660, "pitch": 42, "duration": 9, "velocity": 72}, {"time": 78719, "pitch": 38, "duration": 10, "velocity": 107}, {"time": 78719, "pitch": 44, "duration": 10, "velocity": 115}, {"time": 78719, "pitch": 64, "duration": 10, "velocity": 112}, {"time": 78839, "pitch": 42, "duration": 10, "velocity": 114}, {"time": 78839, "pitch": 62, "duration": 10, "velocity": 42}, {"time": 78959, "pitch": 46, "duration": 9, "velocity": 91}, {"time": 78959, "pitch": 62, "duration": 9, "velocity": 70}, {"time": 79198, "pitch": 36, "duration": 10, "velocity": 111}, {"time": 79198, "pitch": 44, "duration": 10, "velocity": 115}, {"time": 79198, "pitch": 62, "duration": 10, "velocity": 102}, {"time": 79440, "pitch": 42, "duration": 10, "velocity": 87}, {"time": 79440, "pitch": 63, "duration": 10, "velocity": 92}, {"time": 79682, "pitch": 38, "duration": 10, "velocity": 122}, {"time": 79682, "pitch": 44, "duration": 10, "velocity": 115}, {"time": 79682, "pitch": 64, "duration": 10, "velocity": 110}, {"time": 79921, "pitch": 36, "duration": 10, "velocity": 111}, {"time": 79921, "pitch": 42, "duration": 10, "velocity": 63}, {"time": 79921, "pitch": 62, "duration": 10, "velocity": 42}, {"time": 80041, "pitch": 36, "duration": 9, "velocity": 111}, {"time": 80041, "pitch": 62, "duration": 9, "velocity": 71}, {"time": 80160, "pitch": 44, "duration": 10, "velocity": 115}, {"time": 80160, "pitch": 62, "duration": 10, "velocity": 82}, {"time": 80160, "pitch": 75, "duration": 10, "velocity": 103}, {"time": 80280, "pitch": 63, "duration": 10, "velocity": 85}, {"time": 80399, "pitch": 36, "duration": 10, "velocity": 111}, {"time": 80399, "pitch": 42, "duration": 10, "velocity": 43}, {"time": 80399, "pitch": 63, "duration": 10, "velocity": 112}, {"time": 80519, "pitch": 75, "duration": 10, "velocity": 101}, {"time": 80639, "pitch": 38, "duration": 10, "velocity": 122}, {"time": 80639, "pitch": 44, "duration": 10, "velocity": 115}, {"time": 80639, "pitch": 64, "duration": 10, "velocity": 112}, {"time": 80759, "pitch": 62, "duration": 11, "velocity": 42}, {"time": 80881, "pitch": 42, "duration": 10, "velocity": 73}, {"time": 80881, "pitch": 62, "duration": 10, "velocity": 70}, {"time": 81122, "pitch": 36, "duration": 10, "velocity": 111}, {"time": 81122, "pitch": 44, "duration": 10, "velocity": 115}, {"time": 81122, "pitch": 62, "duration": 10, "velocity": 102}, {"time": 81362, "pitch": 42, "duration": 10, "velocity": 60}, {"time": 81362, "pitch": 63, "duration": 10, "velocity": 92}, {"time": 81601, "pitch": 38, "duration": 10, "velocity": 118}, {"time": 81601, "pitch": 44, "duration": 10, "velocity": 115}, {"time": 81601, "pitch": 64, "duration": 10, "velocity": 110}, {"time": 81720, "pitch": 80, "duration": 10, "velocity": 85}, {"time": 81840, "pitch": 36, "duration": 10, "velocity": 111}, {"time": 81840, "pitch": 42, "duration": 10, "velocity": 58}, {"time": 81840, "pitch": 62, "duration": 10, "velocity": 42}, {"time": 81840, "pitch": 81, "duration": 10, "velocity": 87}, {"time": 81960, "pitch": 36, "duration": 10, "velocity": 111}, {"time": 81960, "pitch": 62, "duration": 10, "velocity": 71}, {"time": 82079, "pitch": 44, "duration": 10, "velocity": 115}, {"time": 82079, "pitch": 62, "duration": 10, "velocity": 82}, {"time": 82199, "pitch": 63, "duration": 10, "velocity": 85}, {"time": 82319, "pitch": 36, "duration": 9, "velocity": 111}, {"time": 82319, "pitch": 42, "duration": 9, "velocity": 75}, {"time": 82319, "pitch": 63, "duration": 9, "velocity": 112}, {"time": 82438, "pitch": 44, "duration": 10, "velocity": 111}, {"time": 82438, "pitch": 75, "duration": 10, "velocity": 95}, {"time": 82498, "pitch": 42, "duration": 10, "velocity": 72}, {"time": 82558, "pitch": 38, "duration": 10, "velocity": 107}, {"time": 82558, "pitch": 44, "duration": 10, "velocity": 115}, {"time": 82558, "pitch": 64, "duration": 10, "velocity": 112}, {"time": 82679, "pitch": 42, "duration": 10, "velocity": 114}, {"time": 82679, "pitch": 62, "duration": 10, "velocity": 42}, {"time": 82800, "pitch": 46, "duration": 10, "velocity": 91}, {"time": 82800, "pitch": 62, "duration": 10, "velocity": 70}, {"time": 82800, "pitch": 75, "duration": 10, "velocity": 95}, {"time": 83042, "pitch": 36, "duration": 10, "velocity": 111}, {"time": 83042, "pitch": 44, "duration": 10, "velocity": 115}, {"time": 83042, "pitch": 62, "duration": 10, "velocity": 102}, {"time": 83281, "pitch": 42, "duration": 10, "velocity": 87}, {"time": 83281, "pitch": 63, "duration": 10, "velocity": 92}, {"time": 83520, "pitch": 38, "duration": 10, "velocity": 122}, {"time": 83520, "pitch": 44, "duration": 10, "velocity": 115}, {"time": 83520, "pitch": 64, "duration": 10, "velocity": 110}, {"time": 83640, "pitch": 80, "duration": 10, "velocity": 82}, {"time": 83759, "pitch": 36, "duration": 10, "velocity": 111}, {"time": 83759, "pitch": 42, "duration": 10, "velocity": 63}, {"time": 83759, "pitch": 62, "duration": 10, "velocity": 42}, {"time": 83759, "pitch": 81, "duration": 10, "velocity": 84}, {"time": 83879, "pitch": 36, "duration": 10, "velocity": 111}, {"time": 83879, "pitch": 62, "duration": 10, "velocity": 71}, {"time": 83999, "pitch": 44, "duration": 10, "velocity": 115}, {"time": 83999, "pitch": 62, "duration": 10, "velocity": 82}, {"time": 84119, "pitch": 63, "duration": 11, "velocity": 85}, {"time": 84241, "pitch": 36, "duration": 10, "velocity": 111}, {"time": 84241, "pitch": 42, "duration": 10, "velocity": 43}, {"time": 84241, "pitch": 63, "duration": 10, "velocity": 112}, {"time": 84362, "pitch": 75, "duration": 10, "velocity": 101}, {"time": 84482, "pitch": 38, "duration": 10, "velocity": 122}, {"time": 84482, "pitch": 44, "duration": 10, "velocity": 115}, {"time": 84482, "pitch": 64, "duration": 10, "velocity": 112}, {"time": 84602, "pitch": 62, "duration": 10, "velocity": 42}, {"time": 84722, "pitch": 42, "duration": 10, "velocity": 73}, {"time": 84722, "pitch": 62, "duration": 10, "velocity": 70}, {"time": 84722, "pitch": 75, "duration": 10, "velocity": 105}, {"time": 84961, "pitch": 36, "duration": 10, "velocity": 111}, {"time": 84961, "pitch": 44, "duration": 10, "velocity": 115}, {"time": 84961, "pitch": 62, "duration": 10, "velocity": 102}, {"time": 85200, "pitch": 42, "duration": 10, "velocity": 60}, {"time": 85200, "pitch": 63, "duration": 10, "velocity": 92}, {"time": 85439, "pitch": 38, "duration": 10, "velocity": 118}, {"time": 85439, "pitch": 44, "duration": 10, "velocity": 115}, {"time": 85439, "pitch": 64, "duration": 10, "velocity": 110}, {"time": 85679, "pitch": 36, "duration": 9, "velocity": 111}, {"time": 85679, "pitch": 42, "duration": 9, "velocity": 58}, {"time": 85679, "pitch": 62, "duration": 9, "velocity": 42}, {"time": 85798, "pitch": 36, "duration": 10, "velocity": 111}, {"time": 85798, "pitch": 62, "duration": 10, "velocity": 71}, {"time": 85918, "pitch": 44, "duration": 10, "velocity": 115}, {"time": 85918, "pitch": 62, "duration": 10, "velocity": 82}, {"time": 86039, "pitch": 63, "duration": 10, "velocity": 85}, {"time": 86039, "pitch": 80, "duration": 10, "velocity": 83}, {"time": 86160, "pitch": 36, "duration": 10, "velocity": 111}, {"time": 86160, "pitch": 42, "duration": 10, "velocity": 75}, {"time": 86160, "pitch": 63, "duration": 10, "velocity": 112}, {"time": 86160, "pitch": 81, "duration": 10, "velocity": 96}, {"time": 86281, "pitch": 44, "duration": 10, "velocity": 111}, {"time": 86341, "pitch": 42, "duration": 10, "velocity": 72}, {"time": 86402, "pitch": 38, "duration": 10, "velocity": 107}, {"time": 86402, "pitch": 44, "duration": 10, "velocity": 115}, {"time": 86402, "pitch": 64, "duration": 10, "velocity": 112}, {"time": 86521, "pitch": 42, "duration": 10, "velocity": 114}, {"time": 86521, "pitch": 62, "duration": 10, "velocity": 42}, {"time": 86521, "pitch": 80, "duration": 10, "velocity": 82}, {"time": 86641, "pitch": 46, "duration": 10, "velocity": 91}, {"time": 86641, "pitch": 62, "duration": 10, "velocity": 70}, {"time": 86641, "pitch": 81, "duration": 10, "velocity": 77}, {"time": 86880, "pitch": 36, "duration": 10, "velocity": 111}, {"time": 86880, "pitch": 44, "duration": 10, "velocity": 115}, {"time": 86880, "pitch": 62, "duration": 10, "velocity": 102}, {"time": 87119, "pitch": 42, "duration": 10, "velocity": 87}, {"time": 87119, "pitch": 63, "duration": 10, "velocity": 92}, {"time": 87119, "pitch": 75, "duration": 10, "velocity": 105}, {"time": 87119, "pitch": 82, "duration": 10, "velocity": 90}, {"time": 87239, "pitch": 82, "duration": 10, "velocity": 95}, {"time": 87359, "pitch": 38, "duration": 10, "velocity": 122}, {"time": 87359, "pitch": 44, "duration": 10, "velocity": 115}, {"time": 87359, "pitch": 64, "duration": 10, "velocity": 110}, {"time": 87479, "pitch": 75, "duration": 11, "velocity": 106}, {"time": 87600, "pitch": 36, "duration": 11, "velocity": 111}, {"time": 87600, "pitch": 42, "duration": 11, "velocity": 63}, {"time": 87600, "pitch": 62, "duration": 11, "velocity": 42}, {"time": 87600, "pitch": 82, "duration": 11, "velocity": 70}, {"time": 87722, "pitch": 36, "duration": 10, "velocity": 111}, {"time": 87722, "pitch": 62, "duration": 10, "velocity": 71}, {"time": 87842, "pitch": 44, "duration": 10, "velocity": 115}, {"time": 87842, "pitch": 62, "duration": 10, "velocity": 82}, {"time": 87962, "pitch": 63, "duration": 10, "velocity": 85}, {"time": 88082, "pitch": 36, "duration": 10, "velocity": 111}, {"time": 88082, "pitch": 42, "duration": 10, "velocity": 43}, {"time": 88082, "pitch": 63, "duration": 10, "velocity": 112}, {"time": 88082, "pitch": 82, "duration": 10, "velocity": 90}, {"time": 88201, "pitch": 81, "duration": 10, "velocity": 99}, {"time": 88201, "pitch": 82, "duration": 10, "velocity": 85}, {"time": 88321, "pitch": 38, "duration": 10, "velocity": 122}, {"time": 88321, "pitch": 44, "duration": 10, "velocity": 115}, {"time": 88321, "pitch": 64, "duration": 10, "velocity": 112}, {"time": 88440, "pitch": 62, "duration": 10, "velocity": 42}, {"time": 88440, "pitch": 75, "duration": 10, "velocity": 101}, {"time": 88560, "pitch": 42, "duration": 10, "velocity": 73}, {"time": 88560, "pitch": 62, "duration": 10, "velocity": 70}, {"time": 88799, "pitch": 36, "duration": 10, "velocity": 111}, {"time": 88799, "pitch": 44, "duration": 10, "velocity": 115}, {"time": 88799, "pitch": 62, "duration": 10, "velocity": 102}, {"time": 89038, "pitch": 42, "duration": 10, "velocity": 60}, {"time": 89038, "pitch": 63, "duration": 10, "velocity": 92}, {"time": 89038, "pitch": 82, "duration": 10, "velocity": 87}, {"time": 89158, "pitch": 82, "duration": 10, "velocity": 101}, {"time": 89278, "pitch": 38, "duration": 10, "velocity": 118}, {"time": 89278, "pitch": 44, "duration": 10, "velocity": 115}, {"time": 89278, "pitch": 64, "duration": 10, "velocity": 110}, {"time": 89399, "pitch": 80, "duration": 10, "velocity": 85}, {"time": 89520, "pitch": 36, "duration": 10, "velocity": 111}, {"time": 89520, "pitch": 42, "duration": 10, "velocity": 58}, {"time": 89520, "pitch": 62, "duration": 10, "velocity": 42}, {"time": 89520, "pitch": 81, "duration": 10, "velocity": 91}, {"time": 89641, "pitch": 36, "duration": 10, "velocity": 111}, {"time": 89641, "pitch": 62, "duration": 10, "velocity": 71}, {"time": 89762, "pitch": 44, "duration": 10, "velocity": 115}, {"time": 89762, "pitch": 62, "duration": 10, "velocity": 82}, {"time": 89881, "pitch": 63, "duration": 10, "velocity": 85}, {"time": 90001, "pitch": 36, "duration": 10, "velocity": 111}, {"time": 90001, "pitch": 42, "duration": 10, "velocity": 75}, {"time": 90001, "pitch": 63, "duration": 10, "velocity": 112}, {"time": 90001, "pitch": 82, "duration": 10, "velocity": 48}, {"time": 90120, "pitch": 44, "duration": 10, "velocity": 111}, {"time": 90120, "pitch": 75, "duration": 10, "velocity": 108}, {"time": 90120, "pitch": 82, "duration": 10, "velocity": 74}, {"time": 90180, "pitch": 42, "duration": 10, "velocity": 72}, {"time": 90240, "pitch": 38, "duration": 10, "velocity": 107}, {"time": 90240, "pitch": 44, "duration": 10, "velocity": 115}, {"time": 90240, "pitch": 64, "duration": 10, "velocity": 112}, {"time": 90360, "pitch": 42, "duration": 10, "velocity": 114}, {"time": 90360, "pitch": 62, "duration": 10, "velocity": 42}, {"time": 90479, "pitch": 46, "duration": 10, "velocity": 91}, {"time": 90479, "pitch": 62, "duration": 10, "velocity": 70}, {"time": 90479, "pitch": 75, "duration": 10, "velocity": 95}, {"time": 90718, "pitch": 36, "duration": 11, "velocity": 111}, {"time": 90718, "pitch": 44, "duration": 11, "velocity": 115}, {"time": 90718, "pitch": 62, "duration": 11, "velocity": 102}, {"time": 90960, "pitch": 42, "duration": 11, "velocity": 87}, {"time": 90960, "pitch": 63, "duration": 11, "velocity": 92}, {"time": 90960, "pitch": 82, "duration": 11, "velocity": 85}, {"time": 91082, "pitch": 82, "duration": 10, "velocity": 95}, {"time": 91202, "pitch": 38, "duration": 10, "velocity": 122}, {"time": 91202, "pitch": 44, "duration": 10, "velocity": 115}, {"time": 91202, "pitch": 64, "duration": 10, "velocity": 110}, {"time": 91322, "pitch": 80, "duration": 10, "velocity": 88}, {"time": 91442, "pitch": 36, "duration": 10, "velocity": 111}, {"time": 91442, "pitch": 42, "duration": 10, "velocity": 63}, {"time": 91442, "pitch": 62, "duration": 10, "velocity": 42}, {"time": 91442, "pitch": 81, "duration": 10, "velocity": 92}, {"time": 91561, "pitch": 36, "duration": 10, "velocity": 111}, {"time": 91561, "pitch": 62, "duration": 10, "velocity": 71}, {"time": 91681, "pitch": 44, "duration": 10, "velocity": 115}, {"time": 91681, "pitch": 62, "duration": 10, "velocity": 82}, {"time": 91800, "pitch": 63, "duration": 10, "velocity": 85}, {"time": 91920, "pitch": 36, "duration": 10, "velocity": 111}, {"time": 91920, "pitch": 42, "duration": 10, "velocity": 43}, {"time": 91920, "pitch": 63, "duration": 10, "velocity": 112}, {"time": 92040, "pitch": 75, "duration": 10, "velocity": 108}, {"time": 92040, "pitch": 82, "duration": 10, "velocity": 90}, {"time": 92159, "pitch": 38, "duration": 10, "velocity": 122}, {"time": 92159, "pitch": 44, "duration": 10, "velocity": 115}, {"time": 92159, "pitch": 64, "duration": 10, "velocity": 112}, {"time": 92279, "pitch": 62, "duration": 10, "velocity": 42}, {"time": 92398, "pitch": 42, "duration": 10, "velocity": 73}, {"time": 92398, "pitch": 62, "duration": 10, "velocity": 70}, {"time": 92398, "pitch": 75, "duration": 10, "velocity": 103}, {"time": 92638, "pitch": 36, "duration": 10, "velocity": 111}, {"time": 92638, "pitch": 44, "duration": 10, "velocity": 115}, {"time": 92638, "pitch": 62, "duration": 10, "velocity": 102}, {"time": 92880, "pitch": 42, "duration": 10, "velocity": 60}, {"time": 92880, "pitch": 63, "duration": 10, "velocity": 92}, {"time": 92880, "pitch": 82, "duration": 10, "velocity": 88}, {"time": 93001, "pitch": 82, "duration": 10, "velocity": 83}, {"time": 93122, "pitch": 38, "duration": 10, "velocity": 118}, {"time": 93122, "pitch": 44, "duration": 10, "velocity": 115}, {"time": 93122, "pitch": 64, "duration": 10, "velocity": 110}, {"time": 93241, "pitch": 80, "duration": 10, "velocity": 86}, {"time": 93361, "pitch": 36, "duration": 10, "velocity": 111}, {"time": 93361, "pitch": 42, "duration": 10, "velocity": 58}, {"time": 93361, "pitch": 62, "duration": 10, "velocity": 42}, {"time": 93361, "pitch": 81, "duration": 10, "velocity": 85}, {"time": 93480, "pitch": 36, "duration": 10, "velocity": 111}, {"time": 93480, "pitch": 62, "duration": 10, "velocity": 71}, {"time": 93600, "pitch": 44, "duration": 10, "velocity": 115}, {"time": 93600, "pitch": 62, "duration": 10, "velocity": 82}, {"time": 93720, "pitch": 63, "duration": 10, "velocity": 85}, {"time": 93839, "pitch": 36, "duration": 10, "velocity": 111}, {"time": 93839, "pitch": 42, "duration": 10, "velocity": 75}, {"time": 93839, "pitch": 63, "duration": 10, "velocity": 112}, {"time": 93839, "pitch": 82, "duration": 10, "velocity": 70}, {"time": 93959, "pitch": 44, "duration": 10, "velocity": 111}, {"time": 93959, "pitch": 75, "duration": 10, "velocity": 103}, {"time": 93959, "pitch": 82, "duration": 10, "velocity": 95}, {"time": 94019, "pitch": 42, "duration": 10, "velocity": 72}, {"time": 94078, "pitch": 38, "duration": 11, "velocity": 107}, {"time": 94078, "pitch": 44, "duration": 11, "velocity": 115}, {"time": 94078, "pitch": 64, "duration": 11, "velocity": 112}, {"time": 94199, "pitch": 42, "duration": 11, "velocity": 114}, {"time": 94199, "pitch": 62, "duration": 11, "velocity": 42}, {"time": 94320, "pitch": 46, "duration": 11, "velocity": 91}, {"time": 94320, "pitch": 62, "duration": 11, "velocity": 70}, {"time": 94320, "pitch": 75, "duration": 11, "velocity": 95}, {"time": 94562, "pitch": 36, "duration": 10, "velocity": 111}, {"time": 94562, "pitch": 44, "duration": 10, "velocity": 115}, {"time": 94562, "pitch": 62, "duration": 10, "velocity": 102}, {"time": 94802, "pitch": 42, "duration": 10, "velocity": 87}, {"time": 94802, "pitch": 63, "duration": 10, "velocity": 92}, {"time": 94802, "pitch": 82, "duration": 10, "velocity": 68}, {"time": 94921, "pitch": 82, "duration": 10, "velocity": 87}, {"time": 95041, "pitch": 38, "duration": 10, "velocity": 122}, {"time": 95041, "pitch": 44, "duration": 10, "velocity": 115}, {"time": 95041, "pitch": 64, "duration": 10, "velocity": 110}, {"time": 95160, "pitch": 80, "duration": 10, "velocity": 71}, {"time": 95280, "pitch": 36, "duration": 10, "velocity": 111}, {"time": 95280, "pitch": 42, "duration": 10, "velocity": 63}, {"time": 95280, "pitch": 62, "duration": 10, "velocity": 42}, {"time": 95280, "pitch": 81, "duration": 10, "velocity": 71}, {"time": 95400, "pitch": 36, "duration": 10, "velocity": 111}, {"time": 95400, "pitch": 62, "duration": 10, "velocity": 71}, {"time": 95519, "pitch": 44, "duration": 10, "velocity": 115}, {"time": 95519, "pitch": 62, "duration": 10, "velocity": 82}, {"time": 95639, "pitch": 63, "duration": 10, "velocity": 85}, {"time": 95758, "pitch": 36, "duration": 10, "velocity": 111}, {"time": 95758, "pitch": 42, "duration": 10, "velocity": 43}, {"time": 95758, "pitch": 63, "duration": 10, "velocity": 112}, {"time": 95758, "pitch": 82, "duration": 10, "velocity": 69}, {"time": 95878, "pitch": 75, "duration": 10, "velocity": 98}, {"time": 95878, "pitch": 82, "duration": 10, "velocity": 84}, {"time": 95998, "pitch": 38, "duration": 10, "velocity": 122}, {"time": 95998, "pitch": 44, "duration": 10, "velocity": 115}, {"time": 95998, "pitch": 64, "duration": 10, "velocity": 112}, {"time": 96119, "pitch": 62, "duration": 10, "velocity": 42}, {"time": 96240, "pitch": 42, "duration": 10, "velocity": 73}, {"time": 96240, "pitch": 62, "duration": 10, "velocity": 70}, {"time": 96240, "pitch": 75, "duration": 10, "velocity": 108}, {"time": 96482, "pitch": 36, "duration": 10, "velocity": 111}, {"time": 96482, "pitch": 44, "duration": 10, "velocity": 115}, {"time": 96482, "pitch": 62, "duration": 10, "velocity": 102}, {"time": 96721, "pitch": 42, "duration": 10, "velocity": 60}, {"time": 96721, "pitch": 63, "duration": 10, "velocity": 92}, {"time": 96721, "pitch": 82, "duration": 10, "velocity": 88}, {"time": 96840, "pitch": 82, "duration": 10, "velocity": 90}, {"time": 96960, "pitch": 38, "duration": 10, "velocity": 118}, {"time": 96960, "pitch": 44, "duration": 10, "velocity": 115}, {"time": 96960, "pitch": 64, "duration": 10, "velocity": 110}, {"time": 97080, "pitch": 80, "duration": 10, "velocity": 86}, {"time": 97199, "pitch": 36, "duration": 10, "velocity": 111}, {"time": 97199, "pitch": 42, "duration": 10, "velocity": 58}, {"time": 97199, "pitch": 62, "duration": 10, "velocity": 42}, {"time": 97199, "pitch": 81, "duration": 10, "velocity": 93}, {"time": 97319, "pitch": 36, "duration": 10, "velocity": 111}, {"time": 97319, "pitch": 62, "duration": 10, "velocity": 71}, {"time": 97438, "pitch": 44, "duration": 11, "velocity": 115}, {"time": 97438, "pitch": 62, "duration": 11, "velocity": 82}, {"time": 97559, "pitch": 63, "duration": 11, "velocity": 85}, {"time": 97680, "pitch": 36, "duration": 11, "velocity": 111}, {"time": 97680, "pitch": 42, "duration": 11, "velocity": 75}, {"time": 97680, "pitch": 63, "duration": 11, "velocity": 112}, {"time": 97680, "pitch": 82, "duration": 11, "velocity": 91}, {"time": 97801, "pitch": 44, "duration": 11, "velocity": 111}, {"time": 97801, "pitch": 75, "duration": 11, "velocity": 103}, {"time": 97801, "pitch": 82, "duration": 11, "velocity": 80}, {"time": 97862, "pitch": 42, "duration": 10, "velocity": 72}, {"time": 97922, "pitch": 38, "duration": 10, "velocity": 107}, {"time": 97922, "pitch": 44, "duration": 10, "velocity": 115}, {"time": 97922, "pitch": 64, "duration": 10, "velocity": 112}, {"time": 98042, "pitch": 42, "duration": 10, "velocity": 114}, {"time": 98042, "pitch": 62, "duration": 10, "velocity": 42}, {"time": 98162, "pitch": 46, "duration": 10, "velocity": 91}, {"time": 98162, "pitch": 62, "duration": 10, "velocity": 70}, {"time": 98162, "pitch": 75, "duration": 10, "velocity": 95}, {"time": 98401, "pitch": 36, "duration": 10, "velocity": 111}, {"time": 98401, "pitch": 44, "duration": 10, "velocity": 115}, {"time": 98401, "pitch": 62, "duration": 10, "velocity": 102}, {"time": 98640, "pitch": 42, "duration": 10, "velocity": 87}, {"time": 98640, "pitch": 63, "duration": 10, "velocity": 92}, {"time": 98640, "pitch": 82, "duration": 10, "velocity": 84}, {"time": 98760, "pitch": 82, "duration": 10, "velocity": 93}, {"time": 98879, "pitch": 38, "duration": 10, "velocity": 122}, {"time": 98879, "pitch": 44, "duration": 10, "velocity": 115}, {"time": 98879, "pitch": 64, "duration": 10, "velocity": 110}, {"time": 98999, "pitch": 80, "duration": 10, "velocity": 71}, {"time": 99118, "pitch": 36, "duration": 10, "velocity": 111}, {"time": 99118, "pitch": 42, "duration": 10, "velocity": 63}, {"time": 99118, "pitch": 62, "duration": 10, "velocity": 42}, {"time": 99118, "pitch": 81, "duration": 10, "velocity": 94}, {"time": 99238, "pitch": 36, "duration": 10, "velocity": 111}, {"time": 99238, "pitch": 62, "duration": 10, "velocity": 71}, {"time": 99358, "pitch": 44, "duration": 10, "velocity": 115}, {"time": 99358, "pitch": 62, "duration": 10, "velocity": 82}, {"time": 99479, "pitch": 63, "duration": 10, "velocity": 85}, {"time": 99600, "pitch": 36, "duration": 10, "velocity": 111}, {"time": 99600, "pitch": 42, "duration": 10, "velocity": 43}, {"time": 99600, "pitch": 63, "duration": 10, "velocity": 112}, {"time": 99600, "pitch": 82, "duration": 10, "velocity": 85}, {"time": 99721, "pitch": 75, "duration": 10, "velocity": 106}, {"time": 99721, "pitch": 82, "duration": 10, "velocity": 96}, {"time": 99842, "pitch": 38, "duration": 10, "velocity": 122}, {"time": 99842, "pitch": 44, "duration": 10, "velocity": 115}, {"time": 99842, "pitch": 64, "duration": 10, "velocity": 112}, {"time": 99961, "pitch": 62, "duration": 10, "velocity": 42}, {"time": 100081, "pitch": 42, "duration": 10, "velocity": 73}, {"time": 100081, "pitch": 62, "duration": 10, "velocity": 70}, {"time": 100081, "pitch": 75, "duration": 10, "velocity": 95}, {"time": 100320, "pitch": 36, "duration": 10, "velocity": 111}, {"time": 100320, "pitch": 44, "duration": 10, "velocity": 115}, {"time": 100320, "pitch": 62, "duration": 10, "velocity": 102}, {"time": 100559, "pitch": 42, "duration": 10, "velocity": 60}, {"time": 100559, "pitch": 63, "duration": 10, "velocity": 92}, {"time": 100798, "pitch": 38, "duration": 11, "velocity": 118}, {"time": 100798, "pitch": 44, "duration": 11, "velocity": 115}, {"time": 100798, "pitch": 64, "duration": 11, "velocity": 110}, {"time": 100919, "pitch": 80, "duration": 11, "velocity": 80}, {"time": 101040, "pitch": 36, "duration": 11, "velocity": 111}, {"time": 101040, "pitch": 42, "duration": 11, "velocity": 58}, {"time": 101040, "pitch": 62, "duration": 11, "velocity": 42}, {"time": 101040, "pitch": 81, "duration": 11, "velocity": 99}, {"time": 101040, "pitch": 82, "duration": 11, "velocity": 101}, {"time": 101161, "pitch": 36, "duration": 11, "velocity": 111}, {"time": 101161, "pitch": 62, "duration": 11, "velocity": 71}, {"time": 101161, "pitch": 82, "duration": 11, "velocity": 96}, {"time": 101282, "pitch": 44, "duration": 10, "velocity": 115}, {"time": 101282, "pitch": 62, "duration": 10, "velocity": 82}, {"time": 101402, "pitch": 63, "duration": 10, "velocity": 85}, {"time": 101522, "pitch": 36, "duration": 10, "velocity": 111}, {"time": 101522, "pitch": 42, "duration": 10, "velocity": 75}, {"time": 101522, "pitch": 63, "duration": 10, "velocity": 112}, {"time": 101641, "pitch": 44, "duration": 10, "velocity": 111}, {"time": 101641, "pitch": 75, "duration": 10, "velocity": 105}, {"time": 101701, "pitch": 42, "duration": 10, "velocity": 72}, {"time": 101761, "pitch": 38, "duration": 10, "velocity": 107}, {"time": 101761, "pitch": 44, "duration": 10, "velocity": 115}, {"time": 101761, "pitch": 64, "duration": 10, "velocity": 112}, {"time": 101880, "pitch": 42, "duration": 10, "velocity": 114}, {"time": 101880, "pitch": 62, "duration": 10, "velocity": 42}, {"time": 102000, "pitch": 46, "duration": 10, "velocity": 91}, {"time": 102000, "pitch": 62, "duration": 10, "velocity": 70}, {"time": 102000, "pitch": 75, "duration": 10, "velocity": 98}, {"time": 102000, "pitch": 82, "duration": 10, "velocity": 95}, {"time": 102120, "pitch": 82, "duration": 10, "velocity": 98}, {"time": 102239, "pitch": 36, "duration": 10, "velocity": 111}, {"time": 102239, "pitch": 44, "duration": 10, "velocity": 115}, {"time": 102239, "pitch": 62, "duration": 10, "velocity": 102}, {"time": 102478, "pitch": 42, "duration": 10, "velocity": 87}, {"time": 102478, "pitch": 63, "duration": 10, "velocity": 92}, {"time": 102718, "pitch": 38, "duration": 10, "velocity": 122}, {"time": 102718, "pitch": 44, "duration": 10, "velocity": 115}, {"time": 102718, "pitch": 64, "duration": 10, "velocity": 110}, {"time": 102839, "pitch": 80, "duration": 10, "velocity": 80}, {"time": 102960, "pitch": 36, "duration": 10, "velocity": 111}, {"time": 102960, "pitch": 42, "duration": 10, "velocity": 63}, {"time": 102960, "pitch": 62, "duration": 10, "velocity": 42}, {"time": 102960, "pitch": 81, "duration": 10, "velocity": 91}, {"time": 102960, "pitch": 82, "duration": 10, "velocity": 87}, {"time": 103081, "pitch": 36, "duration": 10, "velocity": 111}, {"time": 103081, "pitch": 62, "duration": 10, "velocity": 71}, {"time": 103081, "pitch": 82, "duration": 10, "velocity": 95}, {"time": 103202, "pitch": 44, "duration": 10, "velocity": 115}, {"time": 103202, "pitch": 62, "duration": 10, "velocity": 82}, {"time": 103321, "pitch": 63, "duration": 10, "velocity": 85}, {"time": 103441, "pitch": 36, "duration": 10, "velocity": 111}, {"time": 103441, "pitch": 42, "duration": 10, "velocity": 43}, {"time": 103441, "pitch": 63, "duration": 10, "velocity": 112}, {"time": 103560, "pitch": 75, "duration": 10, "velocity": 106}, {"time": 103680, "pitch": 38, "duration": 10, "velocity": 122}, {"time": 103680, "pitch": 44, "duration": 10, "velocity": 115}, {"time": 103680, "pitch": 64, "duration": 10, "velocity": 112}, {"time": 103800, "pitch": 62, "duration": 10, "velocity": 42}, {"time": 103919, "pitch": 42, "duration": 10, "velocity": 73}, {"time": 103919, "pitch": 62, "duration": 10, "velocity": 70}, {"time": 103919, "pitch": 75, "duration": 10, "velocity": 110}, {"time": 104158, "pitch": 36, "duration": 11, "velocity": 111}, {"time": 104158, "pitch": 44, "duration": 11, "velocity": 115}, {"time": 104158, "pitch": 62, "duration": 11, "velocity": 102}, {"time": 104400, "pitch": 42, "duration": 11, "velocity": 60}, {"time": 104400, "pitch": 63, "duration": 11, "velocity": 92}, {"time": 104400, "pitch": 82, "duration": 11, "velocity": 61}, {"time": 104521, "pitch": 82, "duration": 11, "velocity": 88}, {"time": 104642, "pitch": 38, "duration": 10, "velocity": 118}, {"time": 104642, "pitch": 44, "duration": 10, "velocity": 115}, {"time": 104642, "pitch": 64, "duration": 10, "velocity": 110}, {"time": 104762, "pitch": 80, "duration": 10, "velocity": 80}, {"time": 104882, "pitch": 36, "duration": 10, "velocity": 111}, {"time": 104882, "pitch": 42, "duration": 10, "velocity": 58}, {"time": 104882, "pitch": 81, "duration": 10, "velocity": 94}, {"time": 105001, "pitch": 36, "duration": 10, "velocity": 111}, {"time": 105001, "pitch": 62, "duration": 10, "velocity": 71}, {"time": 105061, "pitch": 62, "duration": 10, "velocity": 55}, {"time": 105121, "pitch": 44, "duration": 10, "velocity": 115}, {"time": 105121, "pitch": 62, "duration": 10, "velocity": 82}, {"time": 105121, "pitch": 75, "duration": 10, "velocity": 105}, {"time": 105240, "pitch": 63, "duration": 10, "velocity": 85}, {"time": 105360, "pitch": 36, "duration": 10, "velocity": 111}, {"time": 105360, "pitch": 42, "duration": 10, "velocity": 75}, {"time": 105360, "pitch": 63, "duration": 10, "velocity": 112}, {"time": 105480, "pitch": 44, "duration": 10, "velocity": 111}, {"time": 105480, "pitch": 62, "duration": 10, "velocity": 55}, {"time": 105480, "pitch": 75, "duration": 10, "velocity": 96}, {"time": 105539, "pitch": 42, "duration": 10, "velocity": 72}, {"time": 105599, "pitch": 38, "duration": 10, "velocity": 107}, {"time": 105599, "pitch": 44, "duration": 10, "velocity": 115}, {"time": 105599, "pitch": 64, "duration": 10, "velocity": 112}, {"time": 105719, "pitch": 42, "duration": 10, "velocity": 114}, {"time": 105719, "pitch": 64, "duration": 10, "velocity": 42}, {"time": 105838, "pitch": 46, "duration": 10, "velocity": 91}, {"time": 105838, "pitch": 62, "duration": 10, "velocity": 105}, {"time": 105838, "pitch": 75, "duration": 10, "velocity": 103}, {"time": 105838, "pitch": 82, "duration": 10, "velocity": 93}, {"time": 105958, "pitch": 82, "duration": 10, "velocity": 90}, {"time": 106078, "pitch": 36, "duration": 10, "velocity": 111}, {"time": 106078, "pitch": 44, "duration": 10, "velocity": 115}, {"time": 106078, "pitch": 62, "duration": 10, "velocity": 102}, {"time": 106320, "pitch": 42, "duration": 10, "velocity": 87}, {"time": 106320, "pitch": 63, "duration": 10, "velocity": 92}, {"time": 106562, "pitch": 38, "duration": 10, "velocity": 122}, {"time": 106562, "pitch": 44, "duration": 10, "velocity": 115}, {"time": 106562, "pitch": 64, "duration": 10, "velocity": 110}, {"time": 106681, "pitch": 80, "duration": 10, "velocity": 66}, {"time": 106801, "pitch": 36, "duration": 10, "velocity": 111}, {"time": 106801, "pitch": 42, "duration": 10, "velocity": 63}, {"time": 106801, "pitch": 62, "duration": 10, "velocity": 42}, {"time": 106801, "pitch": 81, "duration": 10, "velocity": 91}, {"time": 106920, "pitch": 36, "duration": 10, "velocity": 111}, {"time": 106920, "pitch": 62, "duration": 10, "velocity": 71}, {"time": 107040, "pitch": 44, "duration": 10, "velocity": 115}, {"time": 107040, "pitch": 62, "duration": 10, "velocity": 82}, {"time": 107160, "pitch": 63, "duration": 10, "velocity": 85}, {"time": 107279, "pitch": 36, "duration": 10, "velocity": 111}, {"time": 107279, "pitch": 42, "duration": 10, "velocity": 43}, {"time": 107279, "pitch": 63, "duration": 10, "velocity": 112}, {"time": 107399, "pitch": 75, "duration": 10, "velocity": 103}, {"time": 107518, "pitch": 38, "duration": 11, "velocity": 122}, {"time": 107518, "pitch": 44, "duration": 11, "velocity": 115}, {"time": 107518, "pitch": 64, "duration": 11, "velocity": 112}, {"time": 107639, "pitch": 62, "duration": 11, "velocity": 42}, {"time": 107760, "pitch": 42, "duration": 11, "velocity": 73}, {"time": 107760, "pitch": 62, "duration": 11, "velocity": 70}, {"time": 107760, "pitch": 75, "duration": 11, "velocity": 101}, {"time": 107760, "pitch": 82, "duration": 11, "velocity": 95}, {"time": 107881, "pitch": 82, "duration": 11, "velocity": 93}, {"time": 108002, "pitch": 36, "duration": 10, "velocity": 111}, {"time": 108002, "pitch": 44, "duration": 10, "velocity": 115}, {"time": 108002, "pitch": 62, "duration": 10, "velocity": 102}, {"time": 108242, "pitch": 42, "duration": 10, "velocity": 60}, {"time": 108242, "pitch": 63, "duration": 10, "velocity": 92}, {"time": 108481, "pitch": 38, "duration": 10, "velocity": 118}, {"time": 108481, "pitch": 44, "duration": 10, "velocity": 115}, {"time": 108481, "pitch": 64, "duration": 10, "velocity": 110}, {"time": 108720, "pitch": 36, "duration": 10, "velocity": 111}, {"time": 108720, "pitch": 42, "duration": 10, "velocity": 58}, {"time": 108720, "pitch": 62, "duration": 10, "velocity": 42}, {"time": 108720, "pitch": 81, "duration": 10, "velocity": 83}, {"time": 108840, "pitch": 36, "duration": 10, "velocity": 111}, {"time": 108840, "pitch": 62, "duration": 10, "velocity": 71}, {"time": 108959, "pitch": 44, "duration": 10, "velocity": 115}, {"time": 108959, "pitch": 62, "duration": 10, "velocity": 82}, {"time": 109079, "pitch": 63, "duration": 10, "velocity": 85}, {"time": 109198, "pitch": 36, "duration": 10, "velocity": 111}, {"time": 109198, "pitch": 42, "duration": 10, "velocity": 75}, {"time": 109198, "pitch": 63, "duration": 10, "velocity": 112}, {"time": 109198, "pitch": 82, "duration": 10, "velocity": 87}, {"time": 109318, "pitch": 44, "duration": 10, "velocity": 111}, {"time": 109318, "pitch": 75, "duration": 10, "velocity": 106}, {"time": 109318, "pitch": 82, "duration": 10, "velocity": 91}, {"time": 109378, "pitch": 42, "duration": 10, "velocity": 72}, {"time": 109438, "pitch": 38, "duration": 10, "velocity": 107}, {"time": 109438, "pitch": 44, "duration": 10, "velocity": 115}, {"time": 109438, "pitch": 64, "duration": 10, "velocity": 112}, {"time": 109559, "pitch": 42, "duration": 10, "velocity": 114}, {"time": 109559, "pitch": 62, "duration": 10, "velocity": 42}, {"time": 109680, "pitch": 46, "duration": 10, "velocity": 91}, {"time": 109680, "pitch": 62, "duration": 10, "velocity": 70}, {"time": 109680, "pitch": 75, "duration": 10, "velocity": 105}, {"time": 109922, "pitch": 36, "duration": 10, "velocity": 111}, {"time": 109922, "pitch": 44, "duration": 10, "velocity": 115}, {"time": 109922, "pitch": 62, "duration": 10, "velocity": 102}, {"time": 110161, "pitch": 42, "duration": 10, "velocity": 87}, {"time": 110161, "pitch": 63, "duration": 10, "velocity": 92}, {"time": 110400, "pitch": 38, "duration": 10, "velocity": 122}, {"time": 110400, "pitch": 44, "duration": 10, "velocity": 115}, {"time": 110400, "pitch": 64, "duration": 10, "velocity": 110}, {"time": 110639, "pitch": 36, "duration": 10, "velocity": 111}, {"time": 110639, "pitch": 42, "duration": 10, "velocity": 63}, {"time": 110639, "pitch": 62, "duration": 10, "velocity": 42}, {"time": 110639, "pitch": 82, "duration": 10, "velocity": 87}, {"time": 110759, "pitch": 36, "duration": 10, "velocity": 111}, {"time": 110759, "pitch": 62, "duration": 10, "velocity": 71}, {"time": 110759, "pitch": 82, "duration": 10, "velocity": 93}, {"time": 110878, "pitch": 44, "duration": 11, "velocity": 115}, {"time": 110878, "pitch": 62, "duration": 11, "velocity": 82}, {"time": 110999, "pitch": 63, "duration": 11, "velocity": 85}, {"time": 111120, "pitch": 36, "duration": 11, "velocity": 111}, {"time": 111120, "pitch": 42, "duration": 11, "velocity": 43}, {"time": 111120, "pitch": 63, "duration": 11, "velocity": 112}, {"time": 111241, "pitch": 75, "duration": 11, "velocity": 103}, {"time": 111362, "pitch": 38, "duration": 10, "velocity": 122}, {"time": 111362, "pitch": 44, "duration": 10, "velocity": 115}, {"time": 111362, "pitch": 64, "duration": 10, "velocity": 112}, {"time": 111482, "pitch": 62, "duration": 10, "velocity": 42}, {"time": 111602, "pitch": 42, "duration": 10, "velocity": 73}, {"time": 111602, "pitch": 62, "duration": 10, "velocity": 70}, {"time": 111602, "pitch": 75, "duration": 10, "velocity": 99}, {"time": 111602, "pitch": 82, "duration": 10, "velocity": 77}, {"time": 111721, "pitch": 82, "duration": 10, "velocity": 90}, {"time": 111841, "pitch": 36, "duration": 10, "velocity": 111}, {"time": 111841, "pitch": 44, "duration": 10, "velocity": 115}, {"time": 111841, "pitch": 62, "duration": 10, "velocity": 102}, {"time": 112080, "pitch": 42, "duration": 10, "velocity": 60}, {"time": 112080, "pitch": 63, "duration": 10, "velocity": 92}, {"time": 112319, "pitch": 38, "duration": 10, "velocity": 118}, {"time": 112319, "pitch": 44, "duration": 10, "velocity": 115}, {"time": 112319, "pitch": 64, "duration": 10, "velocity": 110}, {"time": 112439, "pitch": 80, "duration": 10, "velocity": 84}, {"time": 112558, "pitch": 36, "duration": 10, "velocity": 111}, {"time": 112558, "pitch": 42, "duration": 10, "velocity": 58}, {"time": 112558, "pitch": 62, "duration": 10, "velocity": 42}, {"time": 112558, "pitch": 81, "duration": 10, "velocity": 99}, {"time": 112678, "pitch": 36, "duration": 10, "velocity": 111}, {"time": 112678, "pitch": 62, "duration": 10, "velocity": 71}, {"time": 112798, "pitch": 44, "duration": 10, "velocity": 115}, {"time": 112798, "pitch": 62, "duration": 10, "velocity": 82}, {"time": 112919, "pitch": 63, "duration": 10, "velocity": 85}, {"time": 113040, "pitch": 36, "duration": 10, "velocity": 111}, {"time": 113040, "pitch": 42, "duration": 10, "velocity": 75}, {"time": 113040, "pitch": 63, "duration": 10, "velocity": 112}, {"time": 113040, "pitch": 82, "duration": 10, "velocity": 91}, {"time": 113161, "pitch": 44, "duration": 10, "velocity": 111}, {"time": 113161, "pitch": 75, "duration": 10, "velocity": 98}, {"time": 113221, "pitch": 42, "duration": 10, "velocity": 72}, {"time": 113282, "pitch": 38, "duration": 10, "velocity": 107}, {"time": 113282, "pitch": 44, "duration": 10, "velocity": 115}, {"time": 113282, "pitch": 64, "duration": 10, "velocity": 112}, {"time": 113401, "pitch": 42, "duration": 10, "velocity": 114}, {"time": 113401, "pitch": 62, "duration": 10, "velocity": 42}, {"time": 113521, "pitch": 46, "duration": 10, "velocity": 91}, {"time": 113521, "pitch": 62, "duration": 10, "velocity": 70}, {"time": 113521, "pitch": 75, "duration": 10, "velocity": 95}, {"time": 113521, "pitch": 82, "duration": 10, "velocity": 90}, {"time": 113640, "pitch": 82, "duration": 10, "velocity": 91}, {"time": 113760, "pitch": 36, "duration": 10, "velocity": 111}, {"time": 113760, "pitch": 44, "duration": 10, "velocity": 115}, {"time": 113760, "pitch": 62, "duration": 10, "velocity": 102}, {"time": 113999, "pitch": 42, "duration": 10, "velocity": 87}, {"time": 113999, "pitch": 63, "duration": 10, "velocity": 92}, {"time": 114238, "pitch": 38, "duration": 11, "velocity": 122}, {"time": 114238, "pitch": 44, "duration": 11, "velocity": 115}, {"time": 114238, "pitch": 64, "duration": 11, "velocity": 110}, {"time": 114359, "pitch": 80, "duration": 11, "velocity": 79}, {"time": 114480, "pitch": 36, "duration": 11, "velocity": 111}, {"time": 114480, "pitch": 42, "duration": 11, "velocity": 63}, {"time": 114480, "pitch": 62, "duration": 11, "velocity": 42}, {"time": 114480, "pitch": 81, "duration": 11, "velocity": 99}, {"time": 114480, "pitch": 82, "duration": 11, "velocity": 45}, {"time": 114601, "pitch": 36, "duration": 11, "velocity": 111}, {"time": 114601, "pitch": 62, "duration": 11, "velocity": 71}, {"time": 114601, "pitch": 82, "duration": 11, "velocity": 93}, {"time": 114722, "pitch": 44, "duration": 10, "velocity": 115}, {"time": 114722, "pitch": 62, "duration": 10, "velocity": 82}, {"time": 114842, "pitch": 63, "duration": 10, "velocity": 85}, {"time": 114962, "pitch": 36, "duration": 10, "velocity": 111}, {"time": 114962, "pitch": 42, "duration": 10, "velocity": 43}, {"time": 114962, "pitch": 63, "duration": 10, "velocity": 112}, {"time": 115081, "pitch": 75, "duration": 10, "velocity": 95}, {"time": 115201, "pitch": 38, "duration": 10, "velocity": 122}, {"time": 115201, "pitch": 44, "duration": 10, "velocity": 115}, {"time": 115201, "pitch": 64, "duration": 10, "velocity": 112}, {"time": 115320, "pitch": 62, "duration": 10, "velocity": 42}, {"time": 115440, "pitch": 42, "duration": 10, "velocity": 73}, {"time": 115440, "pitch": 62, "duration": 10, "velocity": 70}, {"time": 115440, "pitch": 75, "duration": 10, "velocity": 99}, {"time": 115679, "pitch": 36, "duration": 10, "velocity": 111}, {"time": 115679, "pitch": 44, "duration": 10, "velocity": 115}, {"time": 115679, "pitch": 62, "duration": 10, "velocity": 102}, {"time": 115918, "pitch": 42, "duration": 10, "velocity": 60}, {"time": 115918, "pitch": 63, "duration": 10, "velocity": 92}, {"time": 115918, "pitch": 82, "duration": 10, "velocity": 91}, {"time": 116038, "pitch": 82, "duration": 10, "velocity": 91}, {"time": 116158, "pitch": 38, "duration": 10, "velocity": 118}, {"time": 116158, "pitch": 44, "duration": 10, "velocity": 115}, {"time": 116158, "pitch": 64, "duration": 10, "velocity": 110}, {"time": 116279, "pitch": 80, "duration": 10, "velocity": 72}, {"time": 116400, "pitch": 36, "duration": 10, "velocity": 111}, {"time": 116400, "pitch": 42, "duration": 10, "velocity": 58}, {"time": 116400, "pitch": 62, "duration": 10, "velocity": 42}, {"time": 116400, "pitch": 81, "duration": 10, "velocity": 99}, {"time": 116521, "pitch": 36, "duration": 10, "velocity": 111}, {"time": 116521, "pitch": 62, "duration": 10, "velocity": 71}, {"time": 116642, "pitch": 44, "duration": 10, "velocity": 115}, {"time": 116642, "pitch": 62, "duration": 10, "velocity": 82}, {"time": 116761, "pitch": 63, "duration": 10, "velocity": 85}, {"time": 116881, "pitch": 36, "duration": 10, "velocity": 111}, {"time": 116881, "pitch": 42, "duration": 10, "velocity": 75}, {"time": 116881, "pitch": 63, "duration": 10, "velocity": 112}, {"time": 117000, "pitch": 44, "duration": 10, "velocity": 111}, {"time": 117000, "pitch": 75, "duration": 10, "velocity": 98}, {"time": 117060, "pitch": 42, "duration": 10, "velocity": 72}, {"time": 117120, "pitch": 38, "duration": 10, "velocity": 107}, {"time": 117120, "pitch": 44, "duration": 10, "velocity": 115}, {"time": 117120, "pitch": 64, "duration": 10, "velocity": 112}, {"time": 117240, "pitch": 42, "duration": 10, "velocity": 114}, {"time": 117240, "pitch": 62, "duration": 10, "velocity": 42}, {"time": 117359, "pitch": 46, "duration": 10, "velocity": 91}, {"time": 117359, "pitch": 62, "duration": 10, "velocity": 70}, {"time": 117359, "pitch": 75, "duration": 10, "velocity": 103}, {"time": 117359, "pitch": 82, "duration": 10, "velocity": 93}, {"time": 117479, "pitch": 82, "duration": 10, "velocity": 98}, {"time": 117598, "pitch": 36, "duration": 11, "velocity": 111}, {"time": 117598, "pitch": 44, "duration": 11, "velocity": 115}, {"time": 117598, "pitch": 62, "duration": 11, "velocity": 102}, {"time": 117840, "pitch": 42, "duration": 11, "velocity": 87}, {"time": 117840, "pitch": 63, "duration": 11, "velocity": 92}, {"time": 118082, "pitch": 38, "duration": 10, "velocity": 122}, {"time": 118082, "pitch": 44, "duration": 10, "velocity": 115}, {"time": 118082, "pitch": 64, "duration": 10, "velocity": 110}, {"time": 118322, "pitch": 36, "duration": 10, "velocity": 111}, {"time": 118322, "pitch": 42, "duration": 10, "velocity": 63}, {"time": 118322, "pitch": 62, "duration": 10, "velocity": 42}, {"time": 118441, "pitch": 36, "duration": 10, "velocity": 111}, {"time": 118441, "pitch": 62, "duration": 10, "velocity": 71}, {"time": 118561, "pitch": 44, "duration": 10, "velocity": 115}, {"time": 118561, "pitch": 62, "duration": 10, "velocity": 82}, {"time": 118561, "pitch": 75, "duration": 10, "velocity": 105}, {"time": 118680, "pitch": 63, "duration": 10, "velocity": 85}, {"time": 118800, "pitch": 36, "duration": 10, "velocity": 111}, {"time": 118800, "pitch": 42, "duration": 10, "velocity": 43}, {"time": 118800, "pitch": 63, "duration": 10, "velocity": 112}, {"time": 119039, "pitch": 38, "duration": 10, "velocity": 122}, {"time": 119039, "pitch": 44, "duration": 10, "velocity": 115}, {"time": 119039, "pitch": 64, "duration": 10, "velocity": 112}, {"time": 119159, "pitch": 62, "duration": 10, "velocity": 42}, {"time": 119159, "pitch": 80, "duration": 10, "velocity": 96}, {"time": 119278, "pitch": 42, "duration": 10, "velocity": 73}, {"time": 119278, "pitch": 62, "duration": 10, "velocity": 70}, {"time": 119278, "pitch": 81, "duration": 10, "velocity": 99}, {"time": 119278, "pitch": 82, "duration": 10, "velocity": 93}, {"time": 119398, "pitch": 82, "duration": 10, "velocity": 96}, {"time": 119518, "pitch": 36, "duration": 10, "velocity": 111}, {"time": 119518, "pitch": 44, "duration": 10, "velocity": 115}, {"time": 119518, "pitch": 62, "duration": 10, "velocity": 102}, {"time": 119760, "pitch": 42, "duration": 10, "velocity": 60}, {"time": 119760, "pitch": 63, "duration": 10, "velocity": 92}, {"time": 119881, "pitch": 75, "duration": 10, "velocity": 103}, {"time": 120002, "pitch": 38, "duration": 10, "velocity": 118}, {"time": 120002, "pitch": 44, "duration": 10, "velocity": 115}, {"time": 120002, "pitch": 64, "duration": 10, "velocity": 110}, {"time": 120241, "pitch": 36, "duration": 10, "velocity": 111}, {"time": 120241, "pitch": 42, "duration": 10, "velocity": 58}, {"time": 120241, "pitch": 62, "duration": 10, "velocity": 42}, {"time": 120241, "pitch": 75, "duration": 10, "velocity": 103}, {"time": 120360, "pitch": 36, "duration": 10, "velocity": 111}, {"time": 120360, "pitch": 62, "duration": 10, "velocity": 71}, {"time": 120480, "pitch": 44, "duration": 10, "velocity": 115}, {"time": 120480, "pitch": 62, "duration": 10, "velocity": 82}, {"time": 120600, "pitch": 63, "duration": 10, "velocity": 85}, {"time": 120719, "pitch": 36, "duration": 10, "velocity": 111}, {"time": 120719, "pitch": 42, "duration": 10, "velocity": 75}, {"time": 120719, "pitch": 63, "duration": 10, "velocity": 112}, {"time": 120839, "pitch": 44, "duration": 10, "velocity": 111}, {"time": 120899, "pitch": 42, "duration": 10, "velocity": 72}, {"time": 120958, "pitch": 38, "duration": 11, "velocity": 107}, {"time": 120958, "pitch": 44, "duration": 11, "velocity": 115}, {"time": 120958, "pitch": 64, "duration": 11, "velocity": 112}, {"time": 121079, "pitch": 42, "duration": 11, "velocity": 114}, {"time": 121079, "pitch": 62, "duration": 11, "velocity": 42}, {"time": 121079, "pitch": 80, "duration": 11, "velocity": 80}, {"time": 121200, "pitch": 46, "duration": 11, "velocity": 91}, {"time": 121200, "pitch": 62, "duration": 11, "velocity": 70}, {"time": 121200, "pitch": 81, "duration": 11, "velocity": 99}, {"time": 121200, "pitch": 82, "duration": 11, "velocity": 90}, {"time": 121321, "pitch": 82, "duration": 11, "velocity": 95}, {"time": 121442, "pitch": 36, "duration": 10, "velocity": 111}, {"time": 121442, "pitch": 44, "duration": 10, "velocity": 115}, {"time": 121442, "pitch": 62, "duration": 10, "velocity": 102}, {"time": 121682, "pitch": 42, "duration": 10, "velocity": 87}, {"time": 121682, "pitch": 63, "duration": 10, "velocity": 92}, {"time": 121921, "pitch": 38, "duration": 10, "velocity": 122}, {"time": 121921, "pitch": 44, "duration": 10, "velocity": 115}, {"time": 121921, "pitch": 64, "duration": 10, "velocity": 110}, {"time": 122040, "pitch": 75, "duration": 10, "velocity": 96}, {"time": 122160, "pitch": 36, "duration": 10, "velocity": 111}, {"time": 122160, "pitch": 42, "duration": 10, "velocity": 63}, {"time": 122160, "pitch": 62, "duration": 10, "velocity": 42}, {"time": 122280, "pitch": 36, "duration": 10, "velocity": 111}, {"time": 122280, "pitch": 62, "duration": 10, "velocity": 71}, {"time": 122399, "pitch": 44, "duration": 10, "velocity": 115}, {"time": 122399, "pitch": 62, "duration": 10, "velocity": 82}, {"time": 122399, "pitch": 75, "duration": 10, "velocity": 95}, {"time": 122519, "pitch": 63, "duration": 10, "velocity": 85}, {"time": 122638, "pitch": 36, "duration": 10, "velocity": 111}, {"time": 122638, "pitch": 42, "duration": 10, "velocity": 43}, {"time": 122638, "pitch": 63, "duration": 10, "velocity": 112}, {"time": 122758, "pitch": 75, "duration": 10, "velocity": 108}, {"time": 122878, "pitch": 38, "duration": 10, "velocity": 122}, {"time": 122878, "pitch": 44, "duration": 10, "velocity": 115}, {"time": 122878, "pitch": 64, "duration": 10, "velocity": 112}, {"time": 122999, "pitch": 62, "duration": 10, "velocity": 42}, {"time": 123120, "pitch": 42, "duration": 10, "velocity": 73}, {"time": 123120, "pitch": 62, "duration": 10, "velocity": 70}, {"time": 123120, "pitch": 82, "duration": 10, "velocity": 93}, {"time": 123241, "pitch": 82, "duration": 10, "velocity": 90}, {"time": 123362, "pitch": 36, "duration": 10, "velocity": 111}, {"time": 123362, "pitch": 44, "duration": 10, "velocity": 115}, {"time": 123362, "pitch": 62, "duration": 10, "velocity": 102}, {"time": 123601, "pitch": 42, "duration": 10, "velocity": 60}, {"time": 123601, "pitch": 63, "duration": 10, "velocity": 92}, {"time": 123840, "pitch": 38, "duration": 10, "velocity": 118}, {"time": 123840, "pitch": 44, "duration": 10, "velocity": 115}, {"time": 123840, "pitch": 64, "duration": 10, "velocity": 110}, {"time": 123960, "pitch": 80, "duration": 10, "velocity": 84}, {"time": 124079, "pitch": 36, "duration": 10, "velocity": 111}, {"time": 124079, "pitch": 42, "duration": 10, "velocity": 58}, {"time": 124079, "pitch": 62, "duration": 10, "velocity": 42}, {"time": 124079, "pitch": 81, "duration": 10, "velocity": 95}, {"time": 124199, "pitch": 36, "duration": 10, "velocity": 111}, {"time": 124199, "pitch": 62, "duration": 10, "velocity": 71}, {"time": 124318, "pitch": 44, "duration": 11, "velocity": 115}, {"time": 124318, "pitch": 62, "duration": 11, "velocity": 82}, {"time": 124318, "pitch": 75, "duration": 11, "velocity": 106}, {"time": 124439, "pitch": 63, "duration": 11, "velocity": 85}, {"time": 124560, "pitch": 36, "duration": 11, "velocity": 111}, {"time": 124560, "pitch": 42, "duration": 11, "velocity": 75}, {"time": 124560, "pitch": 63, "duration": 11, "velocity": 112}, {"time": 124681, "pitch": 44, "duration": 11, "velocity": 111}, {"time": 124681, "pitch": 75, "duration": 11, "velocity": 106}, {"time": 124742, "pitch": 42, "duration": 10, "velocity": 72}, {"time": 124802, "pitch": 38, "duration": 10, "velocity": 107}, {"time": 124802, "pitch": 44, "duration": 10, "velocity": 115}, {"time": 124802, "pitch": 64, "duration": 10, "velocity": 112}, {"time": 124922, "pitch": 42, "duration": 10, "velocity": 114}, {"time": 124922, "pitch": 62, "duration": 10, "velocity": 42}, {"time": 125042, "pitch": 46, "duration": 10, "velocity": 91}, {"time": 125042, "pitch": 62, "duration": 10, "velocity": 70}, {"time": 125042, "pitch": 82, "duration": 10, "velocity": 74}, {"time": 125161, "pitch": 82, "duration": 10, "velocity": 93}, {"time": 125281, "pitch": 36, "duration": 10, "velocity": 111}, {"time": 125281, "pitch": 44, "duration": 10, "velocity": 115}, {"time": 125281, "pitch": 62, "duration": 10, "velocity": 102}, {"time": 125520, "pitch": 42, "duration": 10, "velocity": 87}, {"time": 125520, "pitch": 63, "duration": 10, "velocity": 92}, {"time": 125759, "pitch": 38, "duration": 10, "velocity": 122}, {"time": 125759, "pitch": 44, "duration": 10, "velocity": 115}, {"time": 125759, "pitch": 64, "duration": 10, "velocity": 110}, {"time": 125998, "pitch": 36, "duration": 10, "velocity": 111}, {"time": 125998, "pitch": 42, "duration": 10, "velocity": 63}, {"time": 125998, "pitch": 62, "duration": 10, "velocity": 42}, {"time": 125998, "pitch": 81, "duration": 10, "velocity": 92}, {"time": 126118, "pitch": 36, "duration": 10, "velocity": 111}, {"time": 126118, "pitch": 62, "duration": 10, "velocity": 71}, {"time": 126238, "pitch": 44, "duration": 10, "velocity": 115}, {"time": 126238, "pitch": 62, "duration": 10, "velocity": 82}, {"time": 126238, "pitch": 75, "duration": 10, "velocity": 99}, {"time": 126359, "pitch": 63, "duration": 10, "velocity": 85}, {"time": 126480, "pitch": 36, "duration": 10, "velocity": 111}, {"time": 126480, "pitch": 42, "duration": 10, "velocity": 43}, {"time": 126480, "pitch": 63, "duration": 10, "velocity": 112}, {"time": 126722, "pitch": 38, "duration": 10, "velocity": 122}, {"time": 126722, "pitch": 44, "duration": 10, "velocity": 115}, {"time": 126722, "pitch": 64, "duration": 10, "velocity": 112}, {"time": 126841, "pitch": 62, "duration": 10, "velocity": 42}, {"time": 126961, "pitch": 42, "duration": 10, "velocity": 73}, {"time": 126961, "pitch": 62, "duration": 10, "velocity": 70}, {"time": 126961, "pitch": 82, "duration": 10, "velocity": 90}, {"time": 127080, "pitch": 82, "duration": 10, "velocity": 95}, {"time": 127200, "pitch": 36, "duration": 10, "velocity": 111}, {"time": 127200, "pitch": 44, "duration": 10, "velocity": 115}, {"time": 127200, "pitch": 62, "duration": 10, "velocity": 102}, {"time": 127439, "pitch": 42, "duration": 10, "velocity": 60}, {"time": 127439, "pitch": 63, "duration": 10, "velocity": 92}, {"time": 127678, "pitch": 38, "duration": 11, "velocity": 118}, {"time": 127678, "pitch": 44, "duration": 11, "velocity": 115}, {"time": 127678, "pitch": 64, "duration": 11, "velocity": 110}, {"time": 127799, "pitch": 80, "duration": 11, "velocity": 81}, {"time": 127920, "pitch": 36, "duration": 11, "velocity": 111}, {"time": 127920, "pitch": 42, "duration": 11, "velocity": 58}, {"time": 127920, "pitch": 62, "duration": 11, "velocity": 42}, {"time": 127920, "pitch": 81, "duration": 11, "velocity": 79}, {"time": 128041, "pitch": 36, "duration": 11, "velocity": 111}, {"time": 128041, "pitch": 62, "duration": 11, "velocity": 71}, {"time": 128162, "pitch": 44, "duration": 10, "velocity": 115}, {"time": 128162, "pitch": 62, "duration": 10, "velocity": 82}, {"time": 128162, "pitch": 75, "duration": 10, "velocity": 106}, {"time": 128282, "pitch": 63, "duration": 10, "velocity": 85}, {"time": 128402, "pitch": 36, "duration": 10, "velocity": 111}, {"time": 128402, "pitch": 42, "duration": 10, "velocity": 75}, {"time": 128402, "pitch": 63, "duration": 10, "velocity": 112}, {"time": 128521, "pitch": 44, "duration": 10, "velocity": 111}, {"time": 128521, "pitch": 75, "duration": 10, "velocity": 106}, {"time": 128581, "pitch": 42, "duration": 10, "velocity": 72}, {"time": 128641, "pitch": 38, "duration": 10, "velocity": 107}, {"time": 128641, "pitch": 44, "duration": 10, "velocity": 115}, {"time": 128673, "pitch": 62, "duration": 10, "velocity": 1}, {"time": 128716, "pitch": 62, "duration": 10, "velocity": 22}, {"time": 128757, "pitch": 62, "duration": 10, "velocity": 1}, {"time": 128760, "pitch": 42, "duration": 10, "velocity": 114}, {"time": 128837, "pitch": 62, "duration": 10, "velocity": 6}, {"time": 128880, "pitch": 46, "duration": 10, "velocity": 91}, {"time": 128880, "pitch": 75, "duration": 10, "velocity": 103}, {"time": 128880, "pitch": 82, "duration": 10, "velocity": 91}, {"time": 128881, "pitch": 62, "duration": 10, "velocity": 46}, {"time": 128925, "pitch": 62, "duration": 10, "velocity": 21}, {"time": 128966, "pitch": 62, "duration": 10, "velocity": 53}, {"time": 129000, "pitch": 82, "duration": 10, "velocity": 101}, {"time": 129009, "pitch": 62, "duration": 10, "velocity": 40}, {"time": 129087, "pitch": 62, "duration": 10, "velocity": 37}, {"time": 129119, "pitch": 36, "duration": 10, "velocity": 111}, {"time": 129119, "pitch": 44, "duration": 10, "velocity": 115}, {"time": 129119, "pitch": 62, "duration": 10, "velocity": 102}, {"time": 129358, "pitch": 42, "duration": 10, "velocity": 87}, {"time": 129358, "pitch": 63, "duration": 10, "velocity": 92}, {"time": 129598, "pitch": 38, "duration": 10, "velocity": 122}, {"time": 129598, "pitch": 44, "duration": 10, "velocity": 115}, {"time": 129598, "pitch": 64, "duration": 10, "velocity": 110}, {"time": 129840, "pitch": 36, "duration": 10, "velocity": 111}, {"time": 129840, "pitch": 42, "duration": 10, "velocity": 63}, {"time": 129840, "pitch": 62, "duration": 10, "velocity": 42}, {"time": 129961, "pitch": 36, "duration": 10, "velocity": 111}, {"time": 129961, "pitch": 62, "duration": 10, "velocity": 71}, {"time": 130082, "pitch": 44, "duration": 10, "velocity": 115}, {"time": 130082, "pitch": 62, "duration": 10, "velocity": 82}, {"time": 130201, "pitch": 63, "duration": 10, "velocity": 85}, {"time": 130321, "pitch": 36, "duration": 10, "velocity": 111}, {"time": 130321, "pitch": 42, "duration": 10, "velocity": 43}, {"time": 130321, "pitch": 63, "duration": 10, "velocity": 112}, {"time": 130560, "pitch": 38, "duration": 10, "velocity": 122}, {"time": 130560, "pitch": 44, "duration": 10, "velocity": 115}, {"time": 130560, "pitch": 64, "duration": 10, "velocity": 112}, {"time": 130680, "pitch": 62, "duration": 10, "velocity": 42}, {"time": 130680, "pitch": 80, "duration": 10, "velocity": 85}, {"time": 130799, "pitch": 42, "duration": 10, "velocity": 73}, {"time": 130799, "pitch": 62, "duration": 10, "velocity": 70}, {"time": 130799, "pitch": 81, "duration": 10, "velocity": 94}, {"time": 131038, "pitch": 36, "duration": 11, "velocity": 111}, {"time": 131038, "pitch": 44, "duration": 11, "velocity": 115}, {"time": 131038, "pitch": 62, "duration": 11, "velocity": 102}, {"time": 131280, "pitch": 42, "duration": 11, "velocity": 60}, {"time": 131280, "pitch": 63, "duration": 11, "velocity": 92}, {"time": 131522, "pitch": 38, "duration": 10, "velocity": 118}, {"time": 131522, "pitch": 44, "duration": 10, "velocity": 115}, {"time": 131522, "pitch": 64, "duration": 10, "velocity": 110}, {"time": 131642, "pitch": 75, "duration": 10, "velocity": 105}, {"time": 131762, "pitch": 36, "duration": 10, "velocity": 111}, {"time": 131762, "pitch": 42, "duration": 10, "velocity": 58}, {"time": 131762, "pitch": 62, "duration": 10, "velocity": 42}, {"time": 131881, "pitch": 36, "duration": 10, "velocity": 111}, {"time": 131881, "pitch": 62, "duration": 10, "velocity": 71}, {"time": 132001, "pitch": 44, "duration": 10, "velocity": 115}, {"time": 132001, "pitch": 62, "duration": 10, "velocity": 82}, {"time": 132001, "pitch": 75, "duration": 10, "velocity": 98}, {"time": 132120, "pitch": 63, "duration": 10, "velocity": 85}, {"time": 132240, "pitch": 36, "duration": 10, "velocity": 111}, {"time": 132240, "pitch": 42, "duration": 10, "velocity": 75}, {"time": 132240, "pitch": 63, "duration": 10, "velocity": 112}, {"time": 132360, "pitch": 44, "duration": 10, "velocity": 111}, {"time": 132419, "pitch": 42, "duration": 10, "velocity": 72}, {"time": 132479, "pitch": 38, "duration": 10, "velocity": 107}, {"time": 132479, "pitch": 44, "duration": 10, "velocity": 115}, {"time": 132479, "pitch": 64, "duration": 10, "velocity": 112}, {"time": 132599, "pitch": 42, "duration": 10, "velocity": 114}, {"time": 132599, "pitch": 62, "duration": 10, "velocity": 42}, {"time": 132599, "pitch": 80, "duration": 10, "velocity": 76}, {"time": 132718, "pitch": 46, "duration": 10, "velocity": 91}, {"time": 132718, "pitch": 62, "duration": 10, "velocity": 70}, {"time": 132718, "pitch": 81, "duration": 10, "velocity": 47}, {"time": 132958, "pitch": 36, "duration": 10, "velocity": 111}, {"time": 132958, "pitch": 44, "duration": 10, "velocity": 115}, {"time": 132958, "pitch": 62, "duration": 10, "velocity": 102}, {"time": 133200, "pitch": 42, "duration": 10, "velocity": 87}, {"time": 133200, "pitch": 63, "duration": 10, "velocity": 92}, {"time": 133442, "pitch": 38, "duration": 10, "velocity": 122}, {"time": 133442, "pitch": 44, "duration": 10, "velocity": 115}, {"time": 133442, "pitch": 64, "duration": 10, "velocity": 110}, {"time": 133681, "pitch": 36, "duration": 10, "velocity": 111}, {"time": 133681, "pitch": 42, "duration": 10, "velocity": 63}, {"time": 133681, "pitch": 62, "duration": 10, "velocity": 42}, {"time": 133800, "pitch": 36, "duration": 10, "velocity": 111}, {"time": 133800, "pitch": 62, "duration": 10, "velocity": 71}, {"time": 133920, "pitch": 44, "duration": 10, "velocity": 115}, {"time": 133920, "pitch": 62, "duration": 10, "velocity": 82}, {"time": 134040, "pitch": 63, "duration": 10, "velocity": 85}, {"time": 134159, "pitch": 36, "duration": 10, "velocity": 111}, {"time": 134159, "pitch": 42, "duration": 10, "velocity": 43}, {"time": 134159, "pitch": 63, "duration": 10, "velocity": 112}, {"time": 134279, "pitch": 75, "duration": 10, "velocity": 106}, {"time": 134398, "pitch": 38, "duration": 11, "velocity": 122}, {"time": 134398, "pitch": 44, "duration": 11, "velocity": 115}, {"time": 134398, "pitch": 64, "duration": 11, "velocity": 112}, {"time": 134519, "pitch": 62, "duration": 11, "velocity": 42}, {"time": 134640, "pitch": 42, "duration": 11, "velocity": 73}, {"time": 134640, "pitch": 62, "duration": 11, "velocity": 70}, {"time": 134640, "pitch": 75, "duration": 11, "velocity": 105}, {"time": 134882, "pitch": 36, "duration": 10, "velocity": 111}, {"time": 134882, "pitch": 44, "duration": 10, "velocity": 115}, {"time": 134882, "pitch": 62, "duration": 10, "velocity": 102}, {"time": 135122, "pitch": 42, "duration": 10, "velocity": 60}, {"time": 135122, "pitch": 63, "duration": 10, "velocity": 92}, {"time": 135361, "pitch": 38, "duration": 10, "velocity": 118}, {"time": 135361, "pitch": 44, "duration": 10, "velocity": 115}, {"time": 135361, "pitch": 64, "duration": 10, "velocity": 110}, {"time": 135480, "pitch": 80, "duration": 10, "velocity": 84}, {"time": 135600, "pitch": 36, "duration": 10, "velocity": 111}, {"time": 135600, "pitch": 42, "duration": 10, "velocity": 58}, {"time": 135600, "pitch": 62, "duration": 10, "velocity": 42}, {"time": 135600, "pitch": 81, "duration": 10, "velocity": 90}, {"time": 135720, "pitch": 36, "duration": 10, "velocity": 111}, {"time": 135720, "pitch": 62, "duration": 10, "velocity": 71}, {"time": 135839, "pitch": 44, "duration": 10, "velocity": 115}, {"time": 135839, "pitch": 62, "duration": 10, "velocity": 82}, {"time": 135959, "pitch": 63, "duration": 10, "velocity": 85}, {"time": 136078, "pitch": 36, "duration": 10, "velocity": 111}, {"time": 136078, "pitch": 42, "duration": 10, "velocity": 75}, {"time": 136078, "pitch": 63, "duration": 10, "velocity": 112}, {"time": 136198, "pitch": 44, "duration": 10, "velocity": 111}, {"time": 136198, "pitch": 75, "duration": 10, "velocity": 103}, {"time": 136258, "pitch": 42, "duration": 10, "velocity": 72}, {"time": 136318, "pitch": 38, "duration": 10, "velocity": 107}, {"time": 136318, "pitch": 44, "duration": 10, "velocity": 115}, {"time": 136318, "pitch": 64, "duration": 10, "velocity": 112}, {"time": 136439, "pitch": 42, "duration": 10, "velocity": 114}, {"time": 136439, "pitch": 62, "duration": 10, "velocity": 42}, {"time": 136560, "pitch": 46, "duration": 10, "velocity": 91}, {"time": 136560, "pitch": 62, "duration": 10, "velocity": 70}, {"time": 136560, "pitch": 75, "duration": 10, "velocity": 108}, {"time": 136802, "pitch": 36, "duration": 10, "velocity": 111}, {"time": 136802, "pitch": 44, "duration": 10, "velocity": 115}, {"time": 136802, "pitch": 62, "duration": 10, "velocity": 102}, {"time": 137041, "pitch": 42, "duration": 10, "velocity": 87}, {"time": 137041, "pitch": 63, "duration": 10, "velocity": 92}, {"time": 137280, "pitch": 38, "duration": 10, "velocity": 122}, {"time": 137280, "pitch": 44, "duration": 10, "velocity": 115}, {"time": 137280, "pitch": 64, "duration": 10, "velocity": 110}, {"time": 137400, "pitch": 80, "duration": 10, "velocity": 85}, {"time": 137519, "pitch": 36, "duration": 10, "velocity": 111}, {"time": 137519, "pitch": 42, "duration": 10, "velocity": 63}, {"time": 137519, "pitch": 62, "duration": 10, "velocity": 42}, {"time": 137519, "pitch": 81, "duration": 10, "velocity": 96}, {"time": 137639, "pitch": 36, "duration": 10, "velocity": 111}, {"time": 137639, "pitch": 62, "duration": 10, "velocity": 71}, {"time": 137758, "pitch": 44, "duration": 11, "velocity": 115}, {"time": 137758, "pitch": 62, "duration": 11, "velocity": 82}, {"time": 137879, "pitch": 63, "duration": 11, "velocity": 85}, {"time": 138000, "pitch": 36, "duration": 11, "velocity": 111}, {"time": 138000, "pitch": 42, "duration": 11, "velocity": 43}, {"time": 138000, "pitch": 63, "duration": 11, "velocity": 112}, {"time": 138242, "pitch": 38, "duration": 10, "velocity": 122}, {"time": 138242, "pitch": 44, "duration": 10, "velocity": 115}, {"time": 138242, "pitch": 64, "duration": 10, "velocity": 112}, {"time": 138362, "pitch": 62, "duration": 10, "velocity": 42}, {"time": 138362, "pitch": 75, "duration": 10, "velocity": 101}, {"time": 138482, "pitch": 42, "duration": 10, "velocity": 73}, {"time": 138482, "pitch": 62, "duration": 10, "velocity": 70}, {"time": 138721, "pitch": 36, "duration": 10, "velocity": 111}, {"time": 138721, "pitch": 44, "duration": 10, "velocity": 115}, {"time": 138721, "pitch": 62, "duration": 10, "velocity": 102}, {"time": 138960, "pitch": 42, "duration": 10, "velocity": 60}, {"time": 138960, "pitch": 63, "duration": 10, "velocity": 92}, {"time": 139199, "pitch": 38, "duration": 10, "velocity": 118}, {"time": 139199, "pitch": 44, "duration": 10, "velocity": 115}, {"time": 139199, "pitch": 64, "duration": 10, "velocity": 110}, {"time": 139319, "pitch": 80, "duration": 10, "velocity": 87}, {"time": 139438, "pitch": 36, "duration": 10, "velocity": 111}, {"time": 139438, "pitch": 42, "duration": 10, "velocity": 58}, {"time": 139438, "pitch": 62, "duration": 10, "velocity": 42}, {"time": 139438, "pitch": 81, "duration": 10, "velocity": 92}, {"time": 139558, "pitch": 36, "duration": 10, "velocity": 111}, {"time": 139558, "pitch": 62, "duration": 10, "velocity": 71}, {"time": 139678, "pitch": 44, "duration": 10, "velocity": 115}, {"time": 139678, "pitch": 62, "duration": 10, "velocity": 82}, {"time": 139799, "pitch": 63, "duration": 10, "velocity": 85}, {"time": 139920, "pitch": 36, "duration": 10, "velocity": 111}, {"time": 139920, "pitch": 42, "duration": 10, "velocity": 75}, {"time": 139920, "pitch": 63, "duration": 10, "velocity": 112}, {"time": 140041, "pitch": 44, "duration": 10, "velocity": 111}, {"time": 140041, "pitch": 75, "duration": 10, "velocity": 103}, {"time": 140101, "pitch": 42, "duration": 10, "velocity": 72}, {"time": 140162, "pitch": 38, "duration": 10, "velocity": 107}, {"time": 140162, "pitch": 44, "duration": 10, "velocity": 115}, {"time": 140162, "pitch": 64, "duration": 10, "velocity": 112}, {"time": 140281, "pitch": 42, "duration": 10, "velocity": 114}, {"time": 140281, "pitch": 62, "duration": 10, "velocity": 42}, {"time": 140401, "pitch": 46, "duration": 10, "velocity": 91}, {"time": 140401, "pitch": 62, "duration": 10, "velocity": 70}, {"time": 140401, "pitch": 75, "duration": 10, "velocity": 101}, {"time": 140640, "pitch": 36, "duration": 10, "velocity": 111}, {"time": 140640, "pitch": 62, "duration": 10, "velocity": 102}, {"time": 140879, "pitch": 63, "duration": 10, "velocity": 92}, {"time": 141118, "pitch": 64, "duration": 11, "velocity": 110}, {"time": 141360, "pitch": 62, "duration": 11, "velocity": 42}, {"time": 141481, "pitch": 62, "duration": 11, "velocity": 71}, {"time": 141602, "pitch": 62, "duration": 10, "velocity": 82}, {"time": 141722, "pitch": 63, "duration": 10, "velocity": 85}, {"time": 141842, "pitch": 63, "duration": 10, "velocity": 112}, {"time": 142081, "pitch": 64, "duration": 10, "velocity": 112}, {"time": 142200, "pitch": 62, "duration": 10, "velocity": 42}, {"time": 142320, "pitch": 62, "duration": 10, "velocity": 70}, {"time": 142559, "pitch": 62, "duration": 10, "velocity": 102}, {"time": 142798, "pitch": 63, "duration": 10, "velocity": 92}, {"time": 143038, "pitch": 64, "duration": 10, "velocity": 110}, {"time": 143277, "pitch": 62, "duration": 10, "velocity": 42}, {"time": 143396, "pitch": 62, "duration": 10, "velocity": 71}, {"time": 143516, "pitch": 62, "duration": 10, "velocity": 82}, {"time": 143636, "pitch": 63, "duration": 10, "velocity": 85}, {"time": 143755, "pitch": 63, "duration": 10, "velocity": 112}, {"time": 143994, "pitch": 64, "duration": 10, "velocity": 112}, {"time": 144114, "pitch": 62, "duration": 10, "velocity": 42}, {"time": 144234, "pitch": 62, "duration": 10, "velocity": 70}], "annotations": [{"time": 207, "annotation": {"number": 7, "value": 95}, "group": "control_change"}, {"time": 216, "annotation": {"number": 11, "value": 120}, "group": "control_change"}, {"time": 226, "annotation": {"number": 10, "value": 64}, "group": "control_change"}, {"time": 235, "annotation": {"number": 91, "value": 50}, "group": "control_change"}, {"time": 244, "annotation": {"number": 93, "value": 0}, "group": "control_change"}, {"time": 254, "annotation": {"number": 101, "value": 0}, "group": "control_change"}, {"time": 263, "annotation": {"number": 100, "value": 0}, "group": "control_change"}, {"time": 273, "annotation": {"number": 6, "value": 12}, "group": "control_change"}, {"time": 282, "annotation": {"number": 101, "value": 127}, "group": "control_change"}, {"time": 291, "annotation": {"number": 100, "value": 127}, "group": "control_change"}]}, {"program": 0, "is_drum": false, "name": "DRUMS 2", "annotations": [{"time": 179, "annotation": {"number": 0, "value": 0}, "group": "control_change"}, {"time": 188, "annotation": {"number": 32, "value": 2}, "group": "control_change"}]}, {"program": 57, "is_drum": false, "name": "DRUMS 2", "notes": [{"time": 15358, "pitch": 75, "duration": 10, "velocity": 90}, {"time": 17283, "pitch": 75, "duration": 10, "velocity": 90}, {"time": 19202, "pitch": 75, "duration": 10, "velocity": 90}, {"time": 21121, "pitch": 75, "duration": 10, "velocity": 90}, {"time": 24959, "pitch": 75, "duration": 10, "velocity": 90}, {"time": 28798, "pitch": 75, "duration": 10, "velocity": 90}, {"time": 32642, "pitch": 75, "duration": 10, "velocity": 90}, {"time": 36480, "pitch": 75, "duration": 10, "velocity": 90}, {"time": 40319, "pitch": 75, "duration": 10, "velocity": 90}, {"time": 44163, "pitch": 75, "duration": 9, "velocity": 90}, {"time": 48001, "pitch": 75, "duration": 10, "velocity": 90}, {"time": 51839, "pitch": 75, "duration": 10, "velocity": 90}, {"time": 53759, "pitch": 75, "duration": 10, "velocity": 90}, {"time": 55678, "pitch": 75, "duration": 10, "velocity": 90}, {"time": 57603, "pitch": 75, "duration": 9, "velocity": 90}, {"time": 59522, "pitch": 75, "duration": 10, "velocity": 90}, {"time": 61441, "pitch": 75, "duration": 10, "velocity": 90}, {"time": 63360, "pitch": 75, "duration": 10, "velocity": 90}, {"time": 65279, "pitch": 75, "duration": 10, "velocity": 90}, {"time": 67199, "pitch": 75, "duration": 10, "velocity": 90}, {"time": 69118, "pitch": 75, "duration": 10, "velocity": 90}, {"time": 71043, "pitch": 75, "duration": 9, "velocity": 90}, {"time": 74881, "pitch": 75, "duration": 10, "velocity": 90}, {"time": 78719, "pitch": 75, "duration": 10, "velocity": 90}, {"time": 82558, "pitch": 75, "duration": 10, "velocity": 90}, {"time": 86402, "pitch": 75, "duration": 10, "velocity": 90}, {"time": 90240, "pitch": 75, "duration": 10, "velocity": 90}, {"time": 94078, "pitch": 75, "duration": 11, "velocity": 90}, {"time": 97922, "pitch": 75, "duration": 10, "velocity": 90}, {"time": 101761, "pitch": 75, "duration": 10, "velocity": 90}, {"time": 105599, "pitch": 75, "duration": 10, "velocity": 90}, {"time": 107518, "pitch": 75, "duration": 11, "velocity": 90}, {"time": 109438, "pitch": 75, "duration": 10, "velocity": 90}, {"time": 111362, "pitch": 75, "duration": 10, "velocity": 90}, {"time": 113282, "pitch": 75, "duration": 10, "velocity": 90}, {"time": 115201, "pitch": 75, "duration": 10, "velocity": 90}, {"time": 117120, "pitch": 75, "duration": 10, "velocity": 90}, {"time": 119039, "pitch": 75, "duration": 10, "velocity": 90}, {"time": 120958, "pitch": 75, "duration": 11, "velocity": 90}, {"time": 122878, "pitch": 75, "duration": 10, "velocity": 90}, {"time": 124802, "pitch": 75, "duration": 10, "velocity": 90}, {"time": 126722, "pitch": 75, "duration": 10, "velocity": 90}, {"time": 128641, "pitch": 75, "duration": 10, "velocity": 90}, {"time": 130560, "pitch": 75, "duration": 10, "velocity": 90}, {"time": 132479, "pitch": 75, "duration": 10, "velocity": 90}, {"time": 134398, "pitch": 75, "duration": 11, "velocity": 90}, {"time": 136318, "pitch": 75, "duration": 10, "velocity": 90}, {"time": 138242, "pitch": 75, "duration": 10, "velocity": 90}, {"time": 140162, "pitch": 75, "duration": 10, "velocity": 90}], "annotations": [{"time": 207, "annotation": {"number": 7, "value": 90}, "group": "control_change"}, {"time": 216, "annotation": {"number": 11, "value": 120}, "group": "control_change"}, {"time": 226, "annotation": {"number": 10, "value": 64}, "group": "control_change"}, {"time": 235, "annotation": {"number": 91, "value": 50}, "group": "control_change"}, {"time": 244, "annotation": {"number": 93, "value": 0}, "group": "control_change"}, {"time": 254, "annotation": {"number": 101, "value": 0}, "group": "control_change"}, {"time": 263, "annotation": {"number": 100, "value": 0}, "group": "control_change"}, {"time": 273, "annotation": {"number": 6, "value": 12}, "group": "control_change"}, {"time": 282, "annotation": {"number": 101, "value": 127}, "group": "control_change"}, {"time": 291, "annotation": {"number": 100, "value": 127}, "group": "control_change"}]}, {"program": 0, "is_drum": false, "name": "CHORUS", "annotations": [{"time": 179, "annotation": {"number": 0, "value": 0}, "group": "control_change"}, {"time": 188, "annotation": {"number": 32, "value": 2}, "group": "control_change"}]}, {"program": 54, "is_drum": false, "name": "CHORUS", "notes": [{"time": 960, "pitch": 58, "duration": 230, "velocity": 100}, {"time": 1200, "pitch": 55, "duration": 230, "velocity": 95}, {"time": 1440, "pitch": 56, "duration": 710, "velocity": 100}, {"time": 2160, "pitch": 55, "duration": 230, "velocity": 95}, {"time": 2400, "pitch": 58, "duration": 470, "velocity": 100}, {"time": 2880, "pitch": 58, "duration": 230, "velocity": 100}, {"time": 3120, "pitch": 60, "duration": 1189, "velocity": 100}, {"time": 23279, "pitch": 67, "duration": 230, "velocity": 100}, {"time": 23519, "pitch": 65, "duration": 352, "velocity": 100}, {"time": 23882, "pitch": 62, "duration": 469, "velocity": 100}, {"time": 38639, "pitch": 67, "duration": 229, "velocity": 100}, {"time": 38878, "pitch": 65, "duration": 353, "velocity": 100}, {"time": 39241, "pitch": 62, "duration": 470, "velocity": 100}, {"time": 52802, "pitch": 58, "duration": 229, "velocity": 100}, {"time": 53041, "pitch": 55, "duration": 229, "velocity": 95}, {"time": 53280, "pitch": 56, "duration": 710, "velocity": 100}, {"time": 54001, "pitch": 55, "duration": 231, "velocity": 95}, {"time": 54243, "pitch": 58, "duration": 468, "velocity": 100}, {"time": 54721, "pitch": 58, "duration": 229, "velocity": 100}, {"time": 54960, "pitch": 60, "duration": 1192, "velocity": 100}, {"time": 73201, "pitch": 67, "duration": 229, "velocity": 100}, {"time": 73440, "pitch": 65, "duration": 349, "velocity": 100}, {"time": 73799, "pitch": 62, "duration": 472, "velocity": 100}, {"time": 106562, "pitch": 58, "duration": 229, "velocity": 100}, {"time": 106801, "pitch": 55, "duration": 229, "velocity": 95}, {"time": 107040, "pitch": 56, "duration": 710, "velocity": 100}, {"time": 107760, "pitch": 55, "duration": 232, "velocity": 95}, {"time": 108002, "pitch": 58, "duration": 469, "velocity": 100}, {"time": 108481, "pitch": 58, "duration": 229, "velocity": 100}, {"time": 108720, "pitch": 60, "duration": 1192, "velocity": 100}, {"time": 118082, "pitch": 58, "duration": 230, "velocity": 100}, {"time": 118322, "pitch": 55, "duration": 229, "velocity": 95}, {"time": 118561, "pitch": 56, "duration": 708, "velocity": 100}, {"time": 119278, "pitch": 55, "duration": 230, "velocity": 95}, {"time": 119518, "pitch": 58, "duration": 474, "velocity": 100}, {"time": 120002, "pitch": 58, "duration": 229, "velocity": 100}, {"time": 120241, "pitch": 60, "duration": 1191, "velocity": 100}, {"time": 132479, "pitch": 67, "duration": 110, "velocity": 90}, {"time": 132599, "pitch": 67, "duration": 109, "velocity": 90}, {"time": 132718, "pitch": 67, "duration": 110, "velocity": 90}, {"time": 132838, "pitch": 63, "duration": 110, "velocity": 90}, {"time": 132958, "pitch": 67, "duration": 232, "velocity": 90}, {"time": 133200, "pitch": 67, "duration": 111, "velocity": 90}, {"time": 133321, "pitch": 67, "duration": 350, "velocity": 90}, {"time": 136318, "pitch": 67, "duration": 111, "velocity": 90}, {"time": 136439, "pitch": 67, "duration": 111, "velocity": 90}, {"time": 136560, "pitch": 67, "duration": 111, "velocity": 90}, {"time": 136681, "pitch": 63, "duration": 111, "velocity": 90}, {"time": 136802, "pitch": 67, "duration": 229, "velocity": 90}, {"time": 137041, "pitch": 67, "duration": 109, "velocity": 90}, {"time": 137160, "pitch": 67, "duration": 349, "velocity": 90}, {"time": 140162, "pitch": 67, "duration": 109, "velocity": 90}, {"time": 140281, "pitch": 67, "duration": 110, "velocity": 90}, {"time": 140401, "pitch": 67, "duration": 109, "velocity": 90}, {"time": 140520, "pitch": 63, "duration": 110, "velocity": 90}, {"time": 140640, "pitch": 67, "duration": 229, "velocity": 90}, {"time": 140879, "pitch": 67, "duration": 110, "velocity": 90}, {"time": 140999, "pitch": 67, "duration": 351, "velocity": 90}], "annotations": [{"time": 207, "annotation": {"number": 7, "value": 80}, "group": "control_change"}, {"time": 216, "annotation": {"number": 11, "value": 120}, "group": "control_change"}, {"time": 226, "annotation": {"number": 10, "value": 64}, "group": "control_change"}, {"time": 235, "annotation": {"number": 91, "value": 50}, "group": "control_change"}, {"time": 244, "annotation": {"number": 93, "value": 0}, "group": "control_change"}, {"time": 254, "annotation": {"number": 101, "value": 0}, "group": "control_change"}, {"time": 263, "annotation": {"number": 100, "value": 0}, "group": "control_change"}, {"time": 273, "annotation": {"number": 6, "value": 12}, "group": "control_change"}, {"time": 282, "annotation": {"number": 101, "value": 127}, "group": "control_change"}, {"time": 291, "annotation": {"number": 100, "value": 127}, "group": "control_change"}]}]}