{"metadata": {"schema_version": "0.1", "title": "RWC-MDB-P-2001 No. 17: Anata to aete / Hiromi Yoshii", "copyright": "RWC Music Database. Copyright (C) 2001 Real World Computing Partnership (contact: Masataka GOTO <m.goto@aist.go.jp>)", "source_filename": "RM-P017.SMF_SYNC.MID", "source_format": "midi"}, "resolution": 480, "tempos": [{"time": 0, "qpm": 55.55555555555556}, {"time": 480, "qpm": 96.7741935483871}, {"time": 2400, "qpm": 98.36065573770492}, {"time": 2880, "qpm": 96.7741935483871}, {"time": 5280, "qpm": 98.36065573770492}, {"time": 5760, "qpm": 96.7741935483871}, {"time": 8640, "qpm": 98.36065573770492}, {"time": 9120, "qpm": 96.7741935483871}, {"time": 12000, "qpm": 98.36065573770492}, {"time": 12480, "qpm": 96.7741935483871}, {"time": 15840, "qpm": 98.36065573770492}, {"time": 16320, "qpm": 96.7741935483871}, {"time": 18720, "qpm": 98.36065573770492}, {"time": 19200, "qpm": 96.7741935483871}, {"time": 22080, "qpm": 98.36065573770492}, {"time": 22560, "qpm": 96.7741935483871}, {"time": 25440, "qpm": 98.36065573770492}, {"time": 25920, "qpm": 96.7741935483871}, {"time": 28320, "qpm": 98.36065573770492}, {"time": 28800, "qpm": 96.7741935483871}, {"time": 31680, "qpm": 98.36065573770492}, {"time": 32160, "qpm": 96.7741935483871}, {"time": 35040, "qpm": 98.36065573770492}, {"time": 35520, "qpm": 96.7741935483871}, {"time": 37920, "qpm": 98.36065573770492}, {"time": 38400, "qpm": 95.23809523809524}, {"time": 38880, "qpm": 98.36065573770492}, {"time": 39360, "qpm": 96.7741935483871}, {"time": 41280, "qpm": 98.36065573770492}, {"time": 41760, "qpm": 96.7741935483871}, {"time": 45120, "qpm": 98.36065573770492}, {"time": 45600, "qpm": 96.7741935483871}, {"time": 48480, "qpm": 98.36065573770492}, {"time": 48960, "qpm": 96.7741935483871}, {"time": 51360, "qpm": 98.36065573770492}, {"time": 51840, "qpm": 96.7741935483871}, {"time": 54720, "qpm": 98.36065573770492}, {"time": 55200, "qpm": 96.7741935483871}, {"time": 57600, "qpm": 98.36065573770492}, {"time": 58080, "qpm": 96.7741935483871}, {"time": 60960, "qpm": 98.36065573770492}, {"time": 61440, "qpm": 96.7741935483871}, {"time": 64800, "qpm": 98.36065573770492}, {"time": 65280, "qpm": 96.7741935483871}, {"time": 67680, "qpm": 98.36065573770492}, {"time": 68160, "qpm": 96.7741935483871}, {"time": 71040, "qpm": 98.36065573770492}, {"time": 71520, "qpm": 96.7741935483871}, {"time": 74400, "qpm": 98.36065573770492}, {"time": 74880, "qpm": 96.7741935483871}, {"time": 77760, "qpm": 98.36065573770492}, {"time": 78240, "qpm": 96.7741935483871}, {"time": 81120, "qpm": 98.36065573770492}, {"time": 81600, "qpm": 96.7741935483871}, {"time": 84480, "qpm": 98.36065573770492}, {"time": 84960, "qpm": 96.7741935483871}, {"time": 87840, "qpm": 98.36065573770492}, {"time": 88320, "qpm": 96.7741935483871}, {"time": 90720, "qpm": 98.36065573770492}, {"time": 91200, "qpm": 96.7741935483871}, {"time": 94560, "qpm": 98.36065573770492}, {"time": 95040, "qpm": 96.7741935483871}, {"time": 97920, "qpm": 98.36065573770492}, {"time": 98400, "qpm": 96.7741935483871}, {"time": 100800, "qpm": 98.36065573770492}, {"time": 101280, "qpm": 96.7741935483871}, {"time": 104160, "qpm": 98.36065573770492}, {"time": 104640, "qpm": 96.7741935483871}, {"time": 107520, "qpm": 98.36065573770492}, {"time": 108000, "qpm": 96.7741935483871}, {"time": 110400, "qpm": 98.36065573770492}, {"time": 110880, "qpm": 96.7741935483871}, {"time": 113760, "qpm": 98.36065573770492}, {"time": 114240, "qpm": 96.7741935483871}, {"time": 117120, "qpm": 98.36065573770492}, {"time": 117600, "qpm": 96.7741935483871}, {"time": 120960, "qpm": 98.36065573770492}, {"time": 121440, "qpm": 96.7741935483871}, {"time": 123840, "qpm": 98.36065573770492}, {"time": 124320, "qpm": 96.7741935483871}, {"time": 127200, "qpm": 98.36065573770492}, {"time": 127680, "qpm": 96.7741935483871}, {"time": 130560, "qpm": 98.36065573770492}, {"time": 131040, "qpm": 96.7741935483871}, {"time": 133920, "qpm": 98.36065573770492}, {"time": 134400, "qpm": 96.7741935483871}, {"time": 136800, "qpm": 98.36065573770492}, {"time": 137280, "qpm": 96.7741935483871}, {"time": 140640, "qpm": 98.36065573770492}, {"time": 141120, "qpm": 96.7741935483871}, {"time": 143520, "qpm": 98.36065573770492}, {"time": 144000, "qpm": 96.7741935483871}, {"time": 146880, "qpm": 98.36065573770492}, {"time": 147360, "qpm": 96.7741935483871}, {"time": 150240, "qpm": 98.36065573770492}, {"time": 150720, "qpm": 96.7741935483871}, {"time": 153600, "qpm": 98.36065573770492}, {"time": 154080, "qpm": 96.7741935483871}, {"time": 156480, "qpm": 98.36065573770492}, {"time": 156960, "qpm": 96.7741935483871}, {"time": 159840, "qpm": 98.36065573770492}, {"time": 160320, "qpm": 96.7741935483871}, {"time": 163200, "qpm": 98.36065573770492}, {"time": 163680, "qpm": 96.7741935483871}, {"time": 166560, "qpm": 98.36065573770492}, {"time": 167040, "qpm": 96.7741935483871}, {"time": 169920, "qpm": 98.36065573770492}, {"time": 170400, "qpm": 96.7741935483871}, {"time": 173280, "qpm": 98.36065573770492}, {"time": 173760, "qpm": 96.7741935483871}, {"time": 176640, "qpm": 98.36065573770492}, {"time": 177120, "qpm": 93.75}, {"time": 177600, "qpm": 95.23809523809524}, {"time": 178080, "qpm": 60.0}, {"time": 179040, "qpm": 84.50704225352112}, {"time": 179520, "qpm": 83.33333333333333}, {"time": 180000, "qpm": 84.50704225352112}, {"time": 180480, "qpm": 60.0}], "key_signatures": [{"time": 0, "root": 0, "mode": "major"}], "time_signatures": [{"time": 0, "numerator": 1, "denominator": 4}, {"time": 480, "numerator": 4, "denominator": 4}], "tracks": [{"program": 0, "is_drum": false, "name": "OD GUITAR", "annotations": [{"time": 207, "annotation": {"number": 0, "value": 0}, "group": "control_change"}, {"time": 218, "annotation": {"number": 32, "value": 2}, "group": "control_change"}]}, {"program": 29, "is_drum": false, "name": "OD GUITAR", "notes": [{"time": 128639, "pitch": 79, "duration": 479, "velocity": 109}, {"time": 129118, "pitch": 81, "duration": 229, "velocity": 115}, {"time": 129357, "pitch": 83, "duration": 220, "velocity": 102}, {"time": 129597, "pitch": 84, "duration": 192, "velocity": 114}, {"time": 129840, "pitch": 84, "duration": 473, "velocity": 111}, {"time": 130323, "pitch": 86, "duration": 229, "velocity": 106}, {"time": 130562, "pitch": 84, "duration": 429, "velocity": 95}, {"time": 131041, "pitch": 80, "duration": 269, "velocity": 113}, {"time": 131281, "pitch": 82, "duration": 259, "velocity": 114}, {"time": 131520, "pitch": 84, "duration": 180, "velocity": 114}, {"time": 131759, "pitch": 84, "duration": 479, "velocity": 127}, {"time": 132238, "pitch": 86, "duration": 230, "velocity": 106}, {"time": 132478, "pitch": 84, "duration": 429, "velocity": 95}, {"time": 132957, "pitch": 79, "duration": 1893, "velocity": 125}, {"time": 134880, "pitch": 79, "duration": 150, "velocity": 125}, {"time": 159844, "pitch": 67, "duration": 379, "velocity": 125}, {"time": 160223, "pitch": 72, "duration": 339, "velocity": 106}, {"time": 160562, "pitch": 71, "duration": 239, "velocity": 122}, {"time": 160801, "pitch": 67, "duration": 719, "velocity": 127}, {"time": 161520, "pitch": 64, "duration": 139, "velocity": 102}, {"time": 161659, "pitch": 65, "duration": 100, "velocity": 106}, {"time": 161759, "pitch": 67, "duration": 1445, "velocity": 120}, {"time": 163443, "pitch": 64, "duration": 140, "velocity": 122}, {"time": 163583, "pitch": 65, "duration": 100, "velocity": 97}, {"time": 163683, "pitch": 64, "duration": 379, "velocity": 114}, {"time": 164062, "pitch": 65, "duration": 339, "velocity": 127}, {"time": 164401, "pitch": 64, "duration": 239, "velocity": 114}, {"time": 164640, "pitch": 60, "duration": 379, "velocity": 125}, {"time": 165019, "pitch": 57, "duration": 340, "velocity": 114}, {"time": 165359, "pitch": 60, "duration": 240, "velocity": 114}, {"time": 165598, "pitch": 67, "duration": 379, "velocity": 125}, {"time": 165977, "pitch": 65, "duration": 343, "velocity": 114}, {"time": 166320, "pitch": 64, "duration": 244, "velocity": 125}, {"time": 166564, "pitch": 62, "duration": 598, "velocity": 127}, {"time": 167282, "pitch": 64, "duration": 140, "velocity": 114}, {"time": 167422, "pitch": 65, "duration": 99, "velocity": 114}, {"time": 167521, "pitch": 67, "duration": 379, "velocity": 122}, {"time": 167900, "pitch": 72, "duration": 340, "velocity": 114}, {"time": 168240, "pitch": 71, "duration": 239, "velocity": 125}, {"time": 168479, "pitch": 67, "duration": 659, "velocity": 127}, {"time": 169197, "pitch": 67, "duration": 140, "velocity": 125}, {"time": 169337, "pitch": 69, "duration": 100, "velocity": 106}, {"time": 169437, "pitch": 71, "duration": 385, "velocity": 125}, {"time": 169822, "pitch": 72, "duration": 341, "velocity": 127}, {"time": 170163, "pitch": 69, "duration": 718, "velocity": 127}, {"time": 171121, "pitch": 69, "duration": 139, "velocity": 122}, {"time": 171260, "pitch": 72, "duration": 101, "velocity": 114}, {"time": 171360, "pitch": 77, "duration": 379, "velocity": 125}, {"time": 171739, "pitch": 76, "duration": 339, "velocity": 114}, {"time": 172078, "pitch": 72, "duration": 240, "velocity": 114}, {"time": 172318, "pitch": 72, "duration": 864, "velocity": 125}, {"time": 173283, "pitch": 77, "duration": 380, "velocity": 127}, {"time": 173663, "pitch": 76, "duration": 339, "velocity": 114}, {"time": 174002, "pitch": 72, "duration": 239, "velocity": 125}, {"time": 174241, "pitch": 67, "duration": 479, "velocity": 122}, {"time": 174720, "pitch": 74, "duration": 479, "velocity": 122}, {"time": 175199, "pitch": 72, "duration": 5761, "velocity": 122}], "annotations": [{"time": 241, "annotation": {"number": 7, "value": 85}, "group": "control_change"}, {"time": 252, "annotation": {"number": 11, "value": 127}, "group": "control_change"}, {"time": 264, "annotation": {"number": 10, "value": 64}, "group": "control_change"}, {"time": 275, "annotation": {"number": 91, "value": 107}, "group": "control_change"}, {"time": 287, "annotation": {"number": 93, "value": 14}, "group": "control_change"}, {"time": 310, "annotation": {"number": 101, "value": 0}, "group": "control_change"}, {"time": 321, "annotation": {"number": 100, "value": 0}, "group": "control_change"}, {"time": 333, "annotation": {"number": 6, "value": 12}, "group": "control_change"}, {"time": 425, "annotation": {"number": 101, "value": 127}, "group": "control_change"}, {"time": 436, "annotation": {"number": 100, "value": 127}, "group": "control_change"}]}, {"program": 0, "is_drum": false, "name": "BASS", "annotations": [{"time": 207, "annotation": {"number": 0, "value": 0}, "group": "control_change"}, {"time": 218, "annotation": {"number": 32, "value": 2}, "group": "control_change"}]}, {"program": 39, "is_drum": false, "name": "BASS", "notes": [{"time": 483, "pitch": 36, "duration": 290, "velocity": 115}, {"time": 863, "pitch": 36, "duration": 110, "velocity": 104}, {"time": 1202, "pitch": 36, "duration": 977, "velocity": 115}, {"time": 2399, "pitch": 33, "duration": 319, "velocity": 115}, {"time": 2779, "pitch": 33, "duration": 110, "velocity": 79}, {"time": 3117, "pitch": 33, "duration": 1035, "velocity": 115}, {"time": 4322, "pitch": 41, "duration": 309, "velocity": 115}, {"time": 4702, "pitch": 41, "duration": 100, "velocity": 96}, {"time": 5040, "pitch": 40, "duration": 170, "velocity": 104}, {"time": 5280, "pitch": 38, "duration": 319, "velocity": 115}, {"time": 5660, "pitch": 40, "duration": 329, "velocity": 115}, {"time": 5998, "pitch": 41, "duration": 200, "velocity": 112}, {"time": 6238, "pitch": 43, "duration": 299, "velocity": 104}, {"time": 6618, "pitch": 43, "duration": 150, "velocity": 104}, {"time": 6960, "pitch": 43, "duration": 172, "velocity": 115}, {"time": 7203, "pitch": 31, "duration": 309, "velocity": 115}, {"time": 7583, "pitch": 33, "duration": 260, "velocity": 104}, {"time": 7921, "pitch": 38, "duration": 170, "velocity": 115}, {"time": 8161, "pitch": 36, "duration": 289, "velocity": 115}, {"time": 8541, "pitch": 36, "duration": 110, "velocity": 104}, {"time": 8879, "pitch": 36, "duration": 978, "velocity": 115}, {"time": 10076, "pitch": 33, "duration": 325, "velocity": 115}, {"time": 10463, "pitch": 33, "duration": 111, "velocity": 79}, {"time": 10802, "pitch": 33, "duration": 1028, "velocity": 115}, {"time": 12000, "pitch": 41, "duration": 309, "velocity": 115}, {"time": 12380, "pitch": 41, "duration": 100, "velocity": 96}, {"time": 12718, "pitch": 40, "duration": 170, "velocity": 104}, {"time": 12957, "pitch": 38, "duration": 320, "velocity": 105}, {"time": 13338, "pitch": 40, "duration": 332, "velocity": 105}, {"time": 13680, "pitch": 41, "duration": 202, "velocity": 102}, {"time": 13923, "pitch": 43, "duration": 668, "velocity": 104}, {"time": 14641, "pitch": 31, "duration": 270, "velocity": 115}, {"time": 15360, "pitch": 55, "duration": 459, "velocity": 115}, {"time": 15838, "pitch": 36, "duration": 290, "velocity": 115}, {"time": 16219, "pitch": 36, "duration": 109, "velocity": 104}, {"time": 16557, "pitch": 36, "duration": 985, "velocity": 115}, {"time": 17762, "pitch": 33, "duration": 319, "velocity": 115}, {"time": 18142, "pitch": 33, "duration": 110, "velocity": 79}, {"time": 18480, "pitch": 33, "duration": 1028, "velocity": 115}, {"time": 19677, "pitch": 41, "duration": 310, "velocity": 115}, {"time": 20057, "pitch": 41, "duration": 100, "velocity": 96}, {"time": 20399, "pitch": 40, "duration": 173, "velocity": 104}, {"time": 20643, "pitch": 38, "duration": 319, "velocity": 115}, {"time": 21023, "pitch": 40, "duration": 329, "velocity": 115}, {"time": 21361, "pitch": 41, "duration": 200, "velocity": 112}, {"time": 21601, "pitch": 43, "duration": 299, "velocity": 104}, {"time": 21981, "pitch": 43, "duration": 149, "velocity": 104}, {"time": 22319, "pitch": 43, "duration": 169, "velocity": 115}, {"time": 22558, "pitch": 31, "duration": 310, "velocity": 115}, {"time": 22938, "pitch": 33, "duration": 262, "velocity": 104}, {"time": 23280, "pitch": 38, "duration": 173, "velocity": 115}, {"time": 23524, "pitch": 36, "duration": 269, "velocity": 112}, {"time": 23904, "pitch": 36, "duration": 120, "velocity": 87}, {"time": 24242, "pitch": 36, "duration": 738, "velocity": 117}, {"time": 24960, "pitch": 35, "duration": 180, "velocity": 104}, {"time": 25200, "pitch": 36, "duration": 160, "velocity": 104}, {"time": 25439, "pitch": 33, "duration": 310, "velocity": 115}, {"time": 25819, "pitch": 33, "duration": 140, "velocity": 96}, {"time": 26158, "pitch": 33, "duration": 716, "velocity": 117}, {"time": 26884, "pitch": 35, "duration": 189, "velocity": 96}, {"time": 27123, "pitch": 36, "duration": 170, "velocity": 96}, {"time": 27363, "pitch": 41, "duration": 299, "velocity": 115}, {"time": 27743, "pitch": 41, "duration": 209, "velocity": 87}, {"time": 28081, "pitch": 41, "duration": 180, "velocity": 104}, {"time": 28320, "pitch": 43, "duration": 300, "velocity": 115}, {"time": 28700, "pitch": 43, "duration": 230, "velocity": 87}, {"time": 29039, "pitch": 43, "duration": 179, "velocity": 104}, {"time": 29278, "pitch": 36, "duration": 270, "velocity": 115}, {"time": 29658, "pitch": 36, "duration": 191, "velocity": 96}, {"time": 30000, "pitch": 31, "duration": 203, "velocity": 115}, {"time": 30244, "pitch": 36, "duration": 678, "velocity": 104}, {"time": 31201, "pitch": 40, "duration": 170, "velocity": 115}, {"time": 31441, "pitch": 40, "duration": 209, "velocity": 115}, {"time": 31680, "pitch": 35, "duration": 210, "velocity": 79}, {"time": 31920, "pitch": 40, "duration": 389, "velocity": 115}, {"time": 32399, "pitch": 47, "duration": 209, "velocity": 104}, {"time": 32638, "pitch": 40, "duration": 140, "velocity": 87}, {"time": 32877, "pitch": 33, "duration": 443, "velocity": 115}, {"time": 33360, "pitch": 33, "duration": 193, "velocity": 104}, {"time": 33604, "pitch": 36, "duration": 179, "velocity": 104}, {"time": 33843, "pitch": 36, "duration": 170, "velocity": 96}, {"time": 34082, "pitch": 40, "duration": 170, "velocity": 104}, {"time": 34322, "pitch": 40, "duration": 169, "velocity": 104}, {"time": 34561, "pitch": 33, "duration": 200, "velocity": 96}, {"time": 34801, "pitch": 33, "duration": 199, "velocity": 96}, {"time": 35040, "pitch": 40, "duration": 200, "velocity": 115}, {"time": 35280, "pitch": 40, "duration": 199, "velocity": 96}, {"time": 35519, "pitch": 35, "duration": 230, "velocity": 104}, {"time": 35759, "pitch": 40, "duration": 409, "velocity": 115}, {"time": 36237, "pitch": 47, "duration": 210, "velocity": 104}, {"time": 36477, "pitch": 40, "duration": 142, "velocity": 87}, {"time": 36720, "pitch": 33, "duration": 433, "velocity": 115}, {"time": 37203, "pitch": 31, "duration": 219, "velocity": 96}, {"time": 37442, "pitch": 32, "duration": 80, "velocity": 115}, {"time": 37682, "pitch": 33, "duration": 189, "velocity": 96}, {"time": 37921, "pitch": 36, "duration": 170, "velocity": 104}, {"time": 38161, "pitch": 36, "duration": 159, "velocity": 96}, {"time": 38400, "pitch": 40, "duration": 170, "velocity": 104}, {"time": 38640, "pitch": 40, "duration": 179, "velocity": 104}, {"time": 38879, "pitch": 40, "duration": 180, "velocity": 104}, {"time": 39118, "pitch": 40, "duration": 180, "velocity": 104}, {"time": 39358, "pitch": 40, "duration": 150, "velocity": 96}, {"time": 39597, "pitch": 40, "duration": 382, "velocity": 115}, {"time": 40080, "pitch": 43, "duration": 223, "velocity": 104}, {"time": 40323, "pitch": 44, "duration": 210, "velocity": 115}, {"time": 40563, "pitch": 45, "duration": 229, "velocity": 115}, {"time": 40802, "pitch": 45, "duration": 210, "velocity": 104}, {"time": 41042, "pitch": 40, "duration": 189, "velocity": 115}, {"time": 41281, "pitch": 39, "duration": 210, "velocity": 115}, {"time": 41521, "pitch": 38, "duration": 219, "velocity": 104}, {"time": 41760, "pitch": 38, "duration": 369, "velocity": 112}, {"time": 42139, "pitch": 38, "duration": 180, "velocity": 115}, {"time": 42478, "pitch": 33, "duration": 200, "velocity": 104}, {"time": 42718, "pitch": 38, "duration": 580, "velocity": 117}, {"time": 43440, "pitch": 38, "duration": 403, "velocity": 115}, {"time": 43923, "pitch": 38, "duration": 219, "velocity": 104}, {"time": 44162, "pitch": 40, "duration": 180, "velocity": 102}, {"time": 44402, "pitch": 41, "duration": 179, "velocity": 112}, {"time": 44641, "pitch": 43, "duration": 130, "velocity": 104}, {"time": 44782, "pitch": 43, "duration": 70, "velocity": 110}, {"time": 45359, "pitch": 43, "duration": 449, "velocity": 119}, {"time": 45838, "pitch": 38, "duration": 60, "velocity": 120}, {"time": 46078, "pitch": 55, "duration": 419, "velocity": 125}, {"time": 46557, "pitch": 36, "duration": 263, "velocity": 111}, {"time": 46943, "pitch": 36, "duration": 91, "velocity": 104}, {"time": 47184, "pitch": 31, "duration": 80, "velocity": 104}, {"time": 47283, "pitch": 36, "duration": 379, "velocity": 115}, {"time": 47762, "pitch": 36, "duration": 209, "velocity": 115}, {"time": 48001, "pitch": 38, "duration": 200, "velocity": 104}, {"time": 48240, "pitch": 39, "duration": 180, "velocity": 112}, {"time": 48480, "pitch": 40, "duration": 289, "velocity": 112}, {"time": 48860, "pitch": 40, "duration": 140, "velocity": 104}, {"time": 49099, "pitch": 35, "duration": 40, "velocity": 96}, {"time": 49198, "pitch": 40, "duration": 389, "velocity": 104}, {"time": 49677, "pitch": 40, "duration": 200, "velocity": 104}, {"time": 49917, "pitch": 38, "duration": 192, "velocity": 112}, {"time": 50160, "pitch": 28, "duration": 192, "velocity": 104}, {"time": 50403, "pitch": 33, "duration": 289, "velocity": 112}, {"time": 50783, "pitch": 33, "duration": 150, "velocity": 106}, {"time": 51023, "pitch": 40, "duration": 80, "velocity": 104}, {"time": 51121, "pitch": 33, "duration": 390, "velocity": 88}, {"time": 51600, "pitch": 33, "duration": 190, "velocity": 104}, {"time": 51840, "pitch": 35, "duration": 179, "velocity": 115}, {"time": 52079, "pitch": 36, "duration": 160, "velocity": 101}, {"time": 52319, "pitch": 38, "duration": 289, "velocity": 112}, {"time": 52699, "pitch": 38, "duration": 249, "velocity": 104}, {"time": 53037, "pitch": 38, "duration": 130, "velocity": 104}, {"time": 53276, "pitch": 31, "duration": 213, "velocity": 113}, {"time": 53520, "pitch": 33, "duration": 182, "velocity": 96}, {"time": 53763, "pitch": 38, "duration": 170, "velocity": 104}, {"time": 54002, "pitch": 31, "duration": 210, "velocity": 96}, {"time": 54242, "pitch": 36, "duration": 259, "velocity": 111}, {"time": 54622, "pitch": 36, "duration": 90, "velocity": 104}, {"time": 54861, "pitch": 31, "duration": 80, "velocity": 104}, {"time": 54960, "pitch": 36, "duration": 379, "velocity": 115}, {"time": 55439, "pitch": 36, "duration": 210, "velocity": 115}, {"time": 55679, "pitch": 38, "duration": 199, "velocity": 104}, {"time": 55918, "pitch": 39, "duration": 180, "velocity": 112}, {"time": 56157, "pitch": 40, "duration": 290, "velocity": 112}, {"time": 56538, "pitch": 40, "duration": 140, "velocity": 104}, {"time": 56779, "pitch": 40, "duration": 41, "velocity": 96}, {"time": 56880, "pitch": 45, "duration": 393, "velocity": 104}, {"time": 57362, "pitch": 40, "duration": 200, "velocity": 104}, {"time": 57602, "pitch": 38, "duration": 189, "velocity": 112}, {"time": 57841, "pitch": 36, "duration": 190, "velocity": 104}, {"time": 58081, "pitch": 38, "duration": 289, "velocity": 112}, {"time": 58461, "pitch": 33, "duration": 149, "velocity": 106}, {"time": 58700, "pitch": 38, "duration": 80, "velocity": 104}, {"time": 58799, "pitch": 33, "duration": 389, "velocity": 88}, {"time": 59278, "pitch": 33, "duration": 189, "velocity": 104}, {"time": 59517, "pitch": 35, "duration": 180, "velocity": 115}, {"time": 59757, "pitch": 36, "duration": 159, "velocity": 101}, {"time": 59996, "pitch": 41, "duration": 294, "velocity": 112}, {"time": 60383, "pitch": 40, "duration": 251, "velocity": 104}, {"time": 60722, "pitch": 41, "duration": 130, "velocity": 104}, {"time": 60962, "pitch": 43, "duration": 289, "velocity": 112}, {"time": 61342, "pitch": 38, "duration": 249, "velocity": 104}, {"time": 61680, "pitch": 31, "duration": 130, "velocity": 104}, {"time": 61920, "pitch": 36, "duration": 289, "velocity": 115}, {"time": 62300, "pitch": 36, "duration": 109, "velocity": 104}, {"time": 62638, "pitch": 36, "duration": 982, "velocity": 115}, {"time": 63843, "pitch": 33, "duration": 319, "velocity": 115}, {"time": 64223, "pitch": 33, "duration": 110, "velocity": 79}, {"time": 64561, "pitch": 33, "duration": 1028, "velocity": 115}, {"time": 65758, "pitch": 41, "duration": 310, "velocity": 115}, {"time": 66138, "pitch": 41, "duration": 100, "velocity": 96}, {"time": 66481, "pitch": 40, "duration": 172, "velocity": 104}, {"time": 66724, "pitch": 38, "duration": 319, "velocity": 115}, {"time": 67104, "pitch": 40, "duration": 329, "velocity": 115}, {"time": 67442, "pitch": 41, "duration": 200, "velocity": 112}, {"time": 67682, "pitch": 43, "duration": 299, "velocity": 104}, {"time": 68062, "pitch": 43, "duration": 149, "velocity": 104}, {"time": 68400, "pitch": 41, "duration": 140, "velocity": 99}, {"time": 68540, "pitch": 40, "duration": 89, "velocity": 98}, {"time": 68639, "pitch": 38, "duration": 310, "velocity": 115}, {"time": 69019, "pitch": 35, "duration": 260, "velocity": 104}, {"time": 69358, "pitch": 31, "duration": 169, "velocity": 108}, {"time": 69597, "pitch": 36, "duration": 294, "velocity": 115}, {"time": 69983, "pitch": 36, "duration": 112, "velocity": 104}, {"time": 70323, "pitch": 36, "duration": 978, "velocity": 115}, {"time": 71520, "pitch": 33, "duration": 320, "velocity": 115}, {"time": 71901, "pitch": 33, "duration": 109, "velocity": 79}, {"time": 72239, "pitch": 33, "duration": 1032, "velocity": 115}, {"time": 73444, "pitch": 41, "duration": 309, "velocity": 115}, {"time": 73824, "pitch": 41, "duration": 100, "velocity": 96}, {"time": 74162, "pitch": 40, "duration": 170, "velocity": 104}, {"time": 74401, "pitch": 38, "duration": 320, "velocity": 115}, {"time": 74782, "pitch": 40, "duration": 329, "velocity": 115}, {"time": 75120, "pitch": 41, "duration": 199, "velocity": 112}, {"time": 75359, "pitch": 43, "duration": 299, "velocity": 104}, {"time": 75739, "pitch": 43, "duration": 150, "velocity": 104}, {"time": 76078, "pitch": 43, "duration": 169, "velocity": 115}, {"time": 76317, "pitch": 31, "duration": 314, "velocity": 115}, {"time": 76703, "pitch": 33, "duration": 261, "velocity": 104}, {"time": 77043, "pitch": 38, "duration": 170, "velocity": 115}, {"time": 77282, "pitch": 36, "duration": 270, "velocity": 112}, {"time": 77663, "pitch": 36, "duration": 119, "velocity": 87}, {"time": 78001, "pitch": 36, "duration": 738, "velocity": 117}, {"time": 78719, "pitch": 35, "duration": 180, "velocity": 104}, {"time": 78959, "pitch": 36, "duration": 159, "velocity": 104}, {"time": 79198, "pitch": 33, "duration": 309, "velocity": 115}, {"time": 79578, "pitch": 33, "duration": 140, "velocity": 96}, {"time": 79920, "pitch": 33, "duration": 712, "velocity": 117}, {"time": 80642, "pitch": 35, "duration": 190, "velocity": 96}, {"time": 80882, "pitch": 36, "duration": 169, "velocity": 96}, {"time": 81121, "pitch": 41, "duration": 300, "velocity": 115}, {"time": 81501, "pitch": 41, "duration": 210, "velocity": 87}, {"time": 81840, "pitch": 41, "duration": 179, "velocity": 104}, {"time": 82079, "pitch": 43, "duration": 299, "velocity": 115}, {"time": 82459, "pitch": 43, "duration": 230, "velocity": 87}, {"time": 82797, "pitch": 43, "duration": 180, "velocity": 104}, {"time": 83037, "pitch": 36, "duration": 274, "velocity": 115}, {"time": 83423, "pitch": 36, "duration": 191, "velocity": 96}, {"time": 83763, "pitch": 31, "duration": 199, "velocity": 115}, {"time": 84002, "pitch": 36, "duration": 679, "velocity": 104}, {"time": 84960, "pitch": 40, "duration": 170, "velocity": 115}, {"time": 85200, "pitch": 40, "duration": 209, "velocity": 115}, {"time": 85439, "pitch": 35, "duration": 209, "velocity": 79}, {"time": 85678, "pitch": 40, "duration": 389, "velocity": 115}, {"time": 86157, "pitch": 47, "duration": 210, "velocity": 104}, {"time": 86397, "pitch": 40, "duration": 142, "velocity": 87}, {"time": 86640, "pitch": 33, "duration": 443, "velocity": 115}, {"time": 87123, "pitch": 33, "duration": 189, "velocity": 104}, {"time": 87362, "pitch": 36, "duration": 180, "velocity": 104}, {"time": 87602, "pitch": 36, "duration": 169, "velocity": 96}, {"time": 87841, "pitch": 40, "duration": 170, "velocity": 104}, {"time": 88081, "pitch": 40, "duration": 169, "velocity": 104}, {"time": 88320, "pitch": 33, "duration": 200, "velocity": 96}, {"time": 88559, "pitch": 33, "duration": 200, "velocity": 96}, {"time": 88799, "pitch": 40, "duration": 199, "velocity": 115}, {"time": 89038, "pitch": 40, "duration": 200, "velocity": 96}, {"time": 89278, "pitch": 35, "duration": 229, "velocity": 104}, {"time": 89517, "pitch": 40, "duration": 412, "velocity": 115}, {"time": 90000, "pitch": 47, "duration": 213, "velocity": 104}, {"time": 90243, "pitch": 40, "duration": 140, "velocity": 87}, {"time": 90483, "pitch": 33, "duration": 429, "velocity": 115}, {"time": 90962, "pitch": 31, "duration": 219, "velocity": 96}, {"time": 91201, "pitch": 32, "duration": 80, "velocity": 115}, {"time": 91440, "pitch": 33, "duration": 190, "velocity": 96}, {"time": 91680, "pitch": 36, "duration": 169, "velocity": 104}, {"time": 91919, "pitch": 36, "duration": 160, "velocity": 96}, {"time": 92159, "pitch": 40, "duration": 169, "velocity": 104}, {"time": 92398, "pitch": 40, "duration": 180, "velocity": 104}, {"time": 92638, "pitch": 40, "duration": 179, "velocity": 104}, {"time": 92877, "pitch": 40, "duration": 180, "velocity": 104}, {"time": 93117, "pitch": 40, "duration": 152, "velocity": 96}, {"time": 93360, "pitch": 40, "duration": 383, "velocity": 115}, {"time": 93843, "pitch": 43, "duration": 219, "velocity": 104}, {"time": 94082, "pitch": 44, "duration": 210, "velocity": 115}, {"time": 94321, "pitch": 45, "duration": 230, "velocity": 115}, {"time": 94561, "pitch": 45, "duration": 209, "velocity": 104}, {"time": 94800, "pitch": 40, "duration": 190, "velocity": 115}, {"time": 95040, "pitch": 39, "duration": 209, "velocity": 115}, {"time": 95279, "pitch": 38, "duration": 220, "velocity": 104}, {"time": 95519, "pitch": 38, "duration": 369, "velocity": 112}, {"time": 95898, "pitch": 38, "duration": 179, "velocity": 115}, {"time": 96237, "pitch": 33, "duration": 200, "velocity": 104}, {"time": 96476, "pitch": 38, "duration": 587, "velocity": 117}, {"time": 97203, "pitch": 38, "duration": 399, "velocity": 115}, {"time": 97681, "pitch": 38, "duration": 220, "velocity": 104}, {"time": 97921, "pitch": 40, "duration": 179, "velocity": 102}, {"time": 98160, "pitch": 41, "duration": 180, "velocity": 112}, {"time": 98400, "pitch": 43, "duration": 129, "velocity": 104}, {"time": 98540, "pitch": 43, "duration": 70, "velocity": 110}, {"time": 99118, "pitch": 43, "duration": 449, "velocity": 119}, {"time": 99597, "pitch": 38, "duration": 60, "velocity": 120}, {"time": 99836, "pitch": 55, "duration": 426, "velocity": 125}, {"time": 100323, "pitch": 36, "duration": 259, "velocity": 111}, {"time": 100703, "pitch": 36, "duration": 90, "velocity": 104}, {"time": 100943, "pitch": 31, "duration": 79, "velocity": 104}, {"time": 101041, "pitch": 36, "duration": 379, "velocity": 115}, {"time": 101520, "pitch": 36, "duration": 210, "velocity": 115}, {"time": 101760, "pitch": 38, "duration": 199, "velocity": 104}, {"time": 101999, "pitch": 39, "duration": 180, "velocity": 112}, {"time": 102239, "pitch": 40, "duration": 289, "velocity": 112}, {"time": 102619, "pitch": 40, "duration": 139, "velocity": 104}, {"time": 102858, "pitch": 35, "duration": 40, "velocity": 96}, {"time": 102957, "pitch": 40, "duration": 391, "velocity": 104}, {"time": 103440, "pitch": 40, "duration": 202, "velocity": 104}, {"time": 103683, "pitch": 38, "duration": 189, "velocity": 112}, {"time": 103922, "pitch": 28, "duration": 190, "velocity": 104}, {"time": 104162, "pitch": 33, "duration": 289, "velocity": 112}, {"time": 104542, "pitch": 33, "duration": 150, "velocity": 106}, {"time": 104781, "pitch": 40, "duration": 80, "velocity": 104}, {"time": 104880, "pitch": 33, "duration": 389, "velocity": 88}, {"time": 105359, "pitch": 33, "duration": 190, "velocity": 104}, {"time": 105598, "pitch": 35, "duration": 180, "velocity": 115}, {"time": 105838, "pitch": 36, "duration": 160, "velocity": 101}, {"time": 106077, "pitch": 38, "duration": 290, "velocity": 112}, {"time": 106457, "pitch": 38, "duration": 252, "velocity": 104}, {"time": 106800, "pitch": 38, "duration": 131, "velocity": 104}, {"time": 107043, "pitch": 31, "duration": 209, "velocity": 113}, {"time": 107282, "pitch": 33, "duration": 180, "velocity": 96}, {"time": 107522, "pitch": 38, "duration": 169, "velocity": 104}, {"time": 107761, "pitch": 31, "duration": 210, "velocity": 96}, {"time": 108001, "pitch": 36, "duration": 259, "velocity": 111}, {"time": 108381, "pitch": 36, "duration": 89, "velocity": 104}, {"time": 108620, "pitch": 31, "duration": 80, "velocity": 104}, {"time": 108719, "pitch": 36, "duration": 379, "velocity": 115}, {"time": 109198, "pitch": 36, "duration": 209, "velocity": 115}, {"time": 109437, "pitch": 38, "duration": 203, "velocity": 104}, {"time": 109681, "pitch": 39, "duration": 182, "velocity": 112}, {"time": 109924, "pitch": 40, "duration": 289, "velocity": 112}, {"time": 110304, "pitch": 40, "duration": 140, "velocity": 104}, {"time": 110543, "pitch": 40, "duration": 40, "velocity": 96}, {"time": 110642, "pitch": 45, "duration": 389, "velocity": 104}, {"time": 111121, "pitch": 40, "duration": 200, "velocity": 104}, {"time": 111361, "pitch": 38, "duration": 189, "velocity": 112}, {"time": 111600, "pitch": 36, "duration": 190, "velocity": 104}, {"time": 111839, "pitch": 38, "duration": 290, "velocity": 112}, {"time": 112220, "pitch": 33, "duration": 149, "velocity": 106}, {"time": 112459, "pitch": 38, "duration": 80, "velocity": 104}, {"time": 112558, "pitch": 33, "duration": 391, "velocity": 88}, {"time": 113040, "pitch": 33, "duration": 193, "velocity": 104}, {"time": 113284, "pitch": 35, "duration": 179, "velocity": 115}, {"time": 113523, "pitch": 36, "duration": 160, "velocity": 101}, {"time": 113763, "pitch": 41, "duration": 289, "velocity": 112}, {"time": 114143, "pitch": 40, "duration": 249, "velocity": 104}, {"time": 114481, "pitch": 41, "duration": 130, "velocity": 104}, {"time": 114720, "pitch": 43, "duration": 290, "velocity": 112}, {"time": 115101, "pitch": 38, "duration": 249, "velocity": 104}, {"time": 115439, "pitch": 31, "duration": 129, "velocity": 104}, {"time": 115678, "pitch": 32, "duration": 150, "velocity": 116}, {"time": 115918, "pitch": 32, "duration": 249, "velocity": 111}, {"time": 116300, "pitch": 39, "duration": 112, "velocity": 114}, {"time": 116400, "pitch": 44, "duration": 112, "velocity": 118}, {"time": 116883, "pitch": 39, "duration": 190, "velocity": 97}, {"time": 117123, "pitch": 32, "duration": 179, "velocity": 114}, {"time": 117362, "pitch": 39, "duration": 160, "velocity": 106}, {"time": 117601, "pitch": 34, "duration": 150, "velocity": 116}, {"time": 117841, "pitch": 34, "duration": 249, "velocity": 111}, {"time": 118221, "pitch": 41, "duration": 110, "velocity": 114}, {"time": 118320, "pitch": 46, "duration": 110, "velocity": 118}, {"time": 118799, "pitch": 41, "duration": 189, "velocity": 97}, {"time": 119038, "pitch": 34, "duration": 180, "velocity": 114}, {"time": 119278, "pitch": 41, "duration": 159, "velocity": 106}, {"time": 119517, "pitch": 36, "duration": 294, "velocity": 109}, {"time": 119903, "pitch": 36, "duration": 151, "velocity": 116}, {"time": 120144, "pitch": 43, "duration": 80, "velocity": 114}, {"time": 120243, "pitch": 36, "duration": 389, "velocity": 83}, {"time": 120722, "pitch": 36, "duration": 189, "velocity": 114}, {"time": 120961, "pitch": 38, "duration": 180, "velocity": 125}, {"time": 121201, "pitch": 40, "duration": 159, "velocity": 106}, {"time": 121440, "pitch": 31, "duration": 290, "velocity": 114}, {"time": 121820, "pitch": 38, "duration": 340, "velocity": 114}, {"time": 122159, "pitch": 43, "duration": 229, "velocity": 114}, {"time": 122398, "pitch": 36, "duration": 210, "velocity": 118}, {"time": 122637, "pitch": 36, "duration": 180, "velocity": 106}, {"time": 122877, "pitch": 31, "duration": 172, "velocity": 114}, {"time": 123120, "pitch": 36, "duration": 213, "velocity": 106}, {"time": 123364, "pitch": 41, "duration": 119, "velocity": 114}, {"time": 123504, "pitch": 41, "duration": 90, "velocity": 106}, {"time": 123603, "pitch": 36, "duration": 70, "velocity": 88}, {"time": 123744, "pitch": 41, "duration": 149, "velocity": 112}, {"time": 124082, "pitch": 41, "duration": 698, "velocity": 119}, {"time": 124800, "pitch": 36, "duration": 160, "velocity": 97}, {"time": 125040, "pitch": 41, "duration": 179, "velocity": 95}, {"time": 125279, "pitch": 41, "duration": 120, "velocity": 114}, {"time": 125420, "pitch": 41, "duration": 80, "velocity": 106}, {"time": 125518, "pitch": 36, "duration": 120, "velocity": 83}, {"time": 125659, "pitch": 41, "duration": 100, "velocity": 116}, {"time": 125997, "pitch": 41, "duration": 422, "velocity": 114}, {"time": 126480, "pitch": 41, "duration": 223, "velocity": 106}, {"time": 126723, "pitch": 48, "duration": 220, "velocity": 106}, {"time": 126963, "pitch": 41, "duration": 199, "velocity": 97}, {"time": 127202, "pitch": 40, "duration": 220, "velocity": 114}, {"time": 127442, "pitch": 43, "duration": 219, "velocity": 106}, {"time": 127681, "pitch": 40, "duration": 210, "velocity": 97}, {"time": 127921, "pitch": 33, "duration": 848, "velocity": 108}, {"time": 128878, "pitch": 45, "duration": 220, "velocity": 99}, {"time": 129118, "pitch": 38, "duration": 621, "velocity": 106}, {"time": 129840, "pitch": 38, "duration": 782, "velocity": 108}, {"time": 130703, "pitch": 38, "duration": 70, "velocity": 70}, {"time": 130802, "pitch": 39, "duration": 99, "velocity": 102}, {"time": 130942, "pitch": 40, "duration": 100, "velocity": 93}, {"time": 131041, "pitch": 41, "duration": 609, "velocity": 113}, {"time": 131759, "pitch": 41, "duration": 599, "velocity": 113}, {"time": 132478, "pitch": 41, "duration": 219, "velocity": 102}, {"time": 132717, "pitch": 42, "duration": 190, "velocity": 90}, {"time": 132957, "pitch": 43, "duration": 676, "velocity": 114}, {"time": 133683, "pitch": 43, "duration": 399, "velocity": 106}, {"time": 134162, "pitch": 38, "duration": 169, "velocity": 114}, {"time": 134401, "pitch": 43, "duration": 210, "velocity": 114}, {"time": 134640, "pitch": 38, "duration": 120, "velocity": 89}, {"time": 134880, "pitch": 31, "duration": 269, "velocity": 125}, {"time": 135977, "pitch": 43, "duration": 333, "velocity": 96}, {"time": 136317, "pitch": 50, "duration": 466, "velocity": 125}, {"time": 144002, "pitch": 55, "duration": 459, "velocity": 115}, {"time": 144481, "pitch": 36, "duration": 259, "velocity": 111}, {"time": 144861, "pitch": 36, "duration": 90, "velocity": 104}, {"time": 145100, "pitch": 31, "duration": 80, "velocity": 104}, {"time": 145199, "pitch": 36, "duration": 379, "velocity": 115}, {"time": 145678, "pitch": 36, "duration": 210, "velocity": 115}, {"time": 145917, "pitch": 38, "duration": 200, "velocity": 104}, {"time": 146157, "pitch": 39, "duration": 179, "velocity": 112}, {"time": 146396, "pitch": 40, "duration": 294, "velocity": 112}, {"time": 146783, "pitch": 40, "duration": 141, "velocity": 104}, {"time": 147024, "pitch": 35, "duration": 40, "velocity": 96}, {"time": 147122, "pitch": 40, "duration": 389, "velocity": 104}, {"time": 147601, "pitch": 40, "duration": 200, "velocity": 104}, {"time": 147841, "pitch": 38, "duration": 189, "velocity": 112}, {"time": 148080, "pitch": 28, "duration": 190, "velocity": 104}, {"time": 148320, "pitch": 33, "duration": 289, "velocity": 112}, {"time": 148700, "pitch": 33, "duration": 149, "velocity": 106}, {"time": 148939, "pitch": 40, "duration": 80, "velocity": 104}, {"time": 149038, "pitch": 33, "duration": 389, "velocity": 88}, {"time": 149517, "pitch": 33, "duration": 189, "velocity": 104}, {"time": 149756, "pitch": 35, "duration": 183, "velocity": 115}, {"time": 150000, "pitch": 36, "duration": 162, "velocity": 101}, {"time": 150243, "pitch": 38, "duration": 289, "velocity": 112}, {"time": 150623, "pitch": 38, "duration": 249, "velocity": 104}, {"time": 150961, "pitch": 38, "duration": 130, "velocity": 104}, {"time": 151201, "pitch": 31, "duration": 209, "velocity": 113}, {"time": 151440, "pitch": 33, "duration": 180, "velocity": 96}, {"time": 151680, "pitch": 38, "duration": 169, "velocity": 104}, {"time": 151919, "pitch": 31, "duration": 209, "velocity": 96}, {"time": 152158, "pitch": 36, "duration": 260, "velocity": 111}, {"time": 152539, "pitch": 36, "duration": 89, "velocity": 104}, {"time": 152778, "pitch": 31, "duration": 80, "velocity": 104}, {"time": 152877, "pitch": 36, "duration": 381, "velocity": 115}, {"time": 153359, "pitch": 36, "duration": 213, "velocity": 115}, {"time": 153603, "pitch": 38, "duration": 199, "velocity": 104}, {"time": 153842, "pitch": 39, "duration": 180, "velocity": 112}, {"time": 154082, "pitch": 40, "duration": 289, "velocity": 112}, {"time": 154462, "pitch": 40, "duration": 139, "velocity": 104}, {"time": 154701, "pitch": 40, "duration": 40, "velocity": 96}, {"time": 154800, "pitch": 45, "duration": 389, "velocity": 104}, {"time": 155279, "pitch": 40, "duration": 199, "velocity": 104}, {"time": 155518, "pitch": 38, "duration": 190, "velocity": 112}, {"time": 155758, "pitch": 36, "duration": 189, "velocity": 104}, {"time": 155997, "pitch": 38, "duration": 294, "velocity": 112}, {"time": 156383, "pitch": 33, "duration": 152, "velocity": 106}, {"time": 156624, "pitch": 38, "duration": 80, "velocity": 104}, {"time": 156723, "pitch": 33, "duration": 389, "velocity": 88}, {"time": 157202, "pitch": 33, "duration": 190, "velocity": 104}, {"time": 157442, "pitch": 35, "duration": 179, "velocity": 115}, {"time": 157681, "pitch": 36, "duration": 160, "velocity": 101}, {"time": 157920, "pitch": 41, "duration": 290, "velocity": 112}, {"time": 158301, "pitch": 40, "duration": 249, "velocity": 104}, {"time": 158639, "pitch": 41, "duration": 129, "velocity": 104}, {"time": 158878, "pitch": 43, "duration": 290, "velocity": 112}, {"time": 159258, "pitch": 38, "duration": 252, "velocity": 104}, {"time": 159600, "pitch": 31, "duration": 132, "velocity": 104}, {"time": 159844, "pitch": 36, "duration": 259, "velocity": 111}, {"time": 160224, "pitch": 36, "duration": 90, "velocity": 104}, {"time": 160463, "pitch": 31, "duration": 80, "velocity": 104}, {"time": 160562, "pitch": 36, "duration": 379, "velocity": 115}, {"time": 161041, "pitch": 36, "duration": 209, "velocity": 115}, {"time": 161280, "pitch": 38, "duration": 200, "velocity": 104}, {"time": 161520, "pitch": 39, "duration": 179, "velocity": 112}, {"time": 161759, "pitch": 40, "duration": 290, "velocity": 112}, {"time": 162139, "pitch": 40, "duration": 140, "velocity": 104}, {"time": 162379, "pitch": 35, "duration": 40, "velocity": 96}, {"time": 162478, "pitch": 40, "duration": 391, "velocity": 104}, {"time": 162960, "pitch": 40, "duration": 203, "velocity": 104}, {"time": 163204, "pitch": 38, "duration": 189, "velocity": 112}, {"time": 163443, "pitch": 28, "duration": 190, "velocity": 104}, {"time": 163683, "pitch": 33, "duration": 289, "velocity": 112}, {"time": 164063, "pitch": 33, "duration": 149, "velocity": 106}, {"time": 164302, "pitch": 40, "duration": 80, "velocity": 104}, {"time": 164401, "pitch": 33, "duration": 389, "velocity": 88}, {"time": 164880, "pitch": 33, "duration": 189, "velocity": 104}, {"time": 165119, "pitch": 35, "duration": 180, "velocity": 115}, {"time": 165359, "pitch": 36, "duration": 159, "velocity": 101}, {"time": 165598, "pitch": 38, "duration": 289, "velocity": 112}, {"time": 165978, "pitch": 38, "duration": 252, "velocity": 104}, {"time": 166320, "pitch": 38, "duration": 132, "velocity": 104}, {"time": 166564, "pitch": 31, "duration": 209, "velocity": 113}, {"time": 166803, "pitch": 33, "duration": 180, "velocity": 96}, {"time": 167042, "pitch": 38, "duration": 170, "velocity": 104}, {"time": 167282, "pitch": 31, "duration": 209, "velocity": 96}, {"time": 167521, "pitch": 36, "duration": 260, "velocity": 111}, {"time": 167901, "pitch": 36, "duration": 90, "velocity": 104}, {"time": 168141, "pitch": 31, "duration": 80, "velocity": 104}, {"time": 168240, "pitch": 36, "duration": 379, "velocity": 115}, {"time": 168719, "pitch": 36, "duration": 209, "velocity": 115}, {"time": 168958, "pitch": 38, "duration": 200, "velocity": 104}, {"time": 169197, "pitch": 39, "duration": 180, "velocity": 112}, {"time": 169437, "pitch": 40, "duration": 294, "velocity": 112}, {"time": 169823, "pitch": 40, "duration": 141, "velocity": 104}, {"time": 170064, "pitch": 40, "duration": 40, "velocity": 96}, {"time": 170163, "pitch": 45, "duration": 389, "velocity": 104}, {"time": 170642, "pitch": 40, "duration": 199, "velocity": 104}, {"time": 170881, "pitch": 38, "duration": 190, "velocity": 112}, {"time": 171121, "pitch": 36, "duration": 189, "velocity": 104}, {"time": 171360, "pitch": 38, "duration": 289, "velocity": 112}, {"time": 171740, "pitch": 33, "duration": 150, "velocity": 106}, {"time": 171980, "pitch": 38, "duration": 79, "velocity": 104}, {"time": 172078, "pitch": 33, "duration": 390, "velocity": 88}, {"time": 172557, "pitch": 33, "duration": 190, "velocity": 104}, {"time": 172797, "pitch": 35, "duration": 182, "velocity": 115}, {"time": 173040, "pitch": 36, "duration": 162, "velocity": 101}, {"time": 173283, "pitch": 41, "duration": 290, "velocity": 112}, {"time": 173664, "pitch": 40, "duration": 249, "velocity": 104}, {"time": 174002, "pitch": 41, "duration": 129, "velocity": 104}, {"time": 174241, "pitch": 43, "duration": 289, "velocity": 112}, {"time": 174621, "pitch": 38, "duration": 250, "velocity": 104}, {"time": 174959, "pitch": 31, "duration": 130, "velocity": 104}, {"time": 175199, "pitch": 36, "duration": 259, "velocity": 111}, {"time": 175579, "pitch": 36, "duration": 90, "velocity": 104}, {"time": 175818, "pitch": 31, "duration": 80, "velocity": 104}, {"time": 175917, "pitch": 36, "duration": 382, "velocity": 115}, {"time": 176400, "pitch": 36, "duration": 213, "velocity": 115}, {"time": 176643, "pitch": 31, "duration": 200, "velocity": 104}, {"time": 176883, "pitch": 36, "duration": 229, "velocity": 112}, {"time": 177122, "pitch": 41, "duration": 261, "velocity": 111}, {"time": 177504, "pitch": 41, "duration": 90, "velocity": 104}, {"time": 177742, "pitch": 36, "duration": 79, "velocity": 104}, {"time": 177840, "pitch": 41, "duration": 227, "velocity": 115}, {"time": 178077, "pitch": 41, "duration": 966, "velocity": 111}, {"time": 179043, "pitch": 36, "duration": 3351, "velocity": 112}], "annotations": [{"time": 241, "annotation": {"number": 7, "value": 90}, "group": "control_change"}, {"time": 252, "annotation": {"number": 11, "value": 127}, "group": "control_change"}, {"time": 264, "annotation": {"number": 10, "value": 64}, "group": "control_change"}, {"time": 275, "annotation": {"number": 91, "value": 6}, "group": "control_change"}, {"time": 287, "annotation": {"number": 93, "value": 0}, "group": "control_change"}, {"time": 310, "annotation": {"number": 101, "value": 0}, "group": "control_change"}, {"time": 321, "annotation": {"number": 100, "value": 0}, "group": "control_change"}, {"time": 333, "annotation": {"number": 6, "value": 12}, "group": "control_change"}, {"time": 367, "annotation": {"number": 101, "value": 127}, "group": "control_change"}, {"time": 379, "annotation": {"number": 100, "value": 127}, "group": "control_change"}]}, {"program": 0, "is_drum": false, "name": "BRASS/HIGH", "annotations": [{"time": 207, "annotation": {"number": 0, "value": 0}, "group": "control_change"}, {"time": 218, "annotation": {"number": 32, "value": 2}, "group": "control_change"}]}, {"program": 61, "is_drum": false, "name": "BRASS/HIGH", "notes": [{"time": 40563, "pitch": 72, "duration": 110, "velocity": 127}, {"time": 40563, "pitch": 76, "duration": 100, "velocity": 127}, {"time": 40563, "pitch": 81, "duration": 100, "velocity": 127}, {"time": 41042, "pitch": 72, "duration": 109, "velocity": 110}, {"time": 41042, "pitch": 76, "duration": 99, "velocity": 127}, {"time": 41042, "pitch": 79, "duration": 109, "velocity": 110}, {"time": 41521, "pitch": 69, "duration": 89, "velocity": 127}, {"time": 41521, "pitch": 74, "duration": 89, "velocity": 127}, {"time": 41521, "pitch": 78, "duration": 99, "velocity": 127}, {"time": 44641, "pitch": 69, "duration": 110, "velocity": 122}, {"time": 44641, "pitch": 72, "duration": 110, "velocity": 122}, {"time": 44641, "pitch": 79, "duration": 110, "velocity": 125}, {"time": 44782, "pitch": 69, "duration": 60, "velocity": 112}, {"time": 44782, "pitch": 72, "duration": 60, "velocity": 120}, {"time": 44782, "pitch": 79, "duration": 60, "velocity": 125}, {"time": 47043, "pitch": 67, "duration": 339, "velocity": 122}, {"time": 47043, "pitch": 72, "duration": 280, "velocity": 127}, {"time": 47043, "pitch": 76, "duration": 230, "velocity": 127}, {"time": 47243, "pitch": 75, "duration": 20, "velocity": 114}, {"time": 47283, "pitch": 74, "duration": 50, "velocity": 105}, {"time": 47294, "pitch": 71, "duration": 69, "velocity": 102}, {"time": 47314, "pitch": 69, "duration": 49, "velocity": 98}, {"time": 47362, "pitch": 65, "duration": 50, "velocity": 87}, {"time": 47382, "pitch": 64, "duration": 50, "velocity": 83}, {"time": 47402, "pitch": 62, "duration": 40, "velocity": 78}, {"time": 47413, "pitch": 60, "duration": 30, "velocity": 76}, {"time": 47442, "pitch": 59, "duration": 10, "velocity": 69}, {"time": 49677, "pitch": 71, "duration": 80, "velocity": 125}, {"time": 49677, "pitch": 83, "duration": 80, "velocity": 125}, {"time": 56397, "pitch": 71, "duration": 80, "velocity": 127}, {"time": 56397, "pitch": 74, "duration": 70, "velocity": 127}, {"time": 56397, "pitch": 79, "duration": 80, "velocity": 127}, {"time": 56880, "pitch": 72, "duration": 482, "velocity": 127}, {"time": 56880, "pitch": 76, "duration": 443, "velocity": 127}, {"time": 56880, "pitch": 81, "duration": 438, "velocity": 127}, {"time": 57317, "pitch": 79, "duration": 29, "velocity": 122}, {"time": 57326, "pitch": 74, "duration": 90, "velocity": 106}, {"time": 57336, "pitch": 77, "duration": 30, "velocity": 127}, {"time": 57356, "pitch": 75, "duration": 20, "velocity": 95}, {"time": 57376, "pitch": 71, "duration": 80, "velocity": 91}, {"time": 57406, "pitch": 69, "duration": 70, "velocity": 84}, {"time": 57436, "pitch": 67, "duration": 60, "velocity": 77}, {"time": 57456, "pitch": 65, "duration": 40, "velocity": 72}, {"time": 57486, "pitch": 64, "duration": 30, "velocity": 66}, {"time": 57516, "pitch": 62, "duration": 10, "velocity": 59}, {"time": 94321, "pitch": 72, "duration": 110, "velocity": 127}, {"time": 94321, "pitch": 76, "duration": 100, "velocity": 127}, {"time": 94321, "pitch": 81, "duration": 100, "velocity": 127}, {"time": 94800, "pitch": 72, "duration": 110, "velocity": 110}, {"time": 94800, "pitch": 76, "duration": 100, "velocity": 127}, {"time": 94800, "pitch": 79, "duration": 110, "velocity": 110}, {"time": 95279, "pitch": 69, "duration": 90, "velocity": 127}, {"time": 95279, "pitch": 74, "duration": 90, "velocity": 127}, {"time": 95279, "pitch": 78, "duration": 100, "velocity": 127}, {"time": 98400, "pitch": 69, "duration": 109, "velocity": 122}, {"time": 98400, "pitch": 72, "duration": 109, "velocity": 122}, {"time": 98400, "pitch": 79, "duration": 109, "velocity": 125}, {"time": 98540, "pitch": 69, "duration": 60, "velocity": 112}, {"time": 98540, "pitch": 72, "duration": 60, "velocity": 120}, {"time": 98540, "pitch": 79, "duration": 60, "velocity": 125}, {"time": 100802, "pitch": 67, "duration": 339, "velocity": 122}, {"time": 100802, "pitch": 72, "duration": 279, "velocity": 127}, {"time": 100802, "pitch": 76, "duration": 229, "velocity": 127}, {"time": 101001, "pitch": 75, "duration": 20, "velocity": 114}, {"time": 101041, "pitch": 74, "duration": 50, "velocity": 105}, {"time": 101052, "pitch": 71, "duration": 70, "velocity": 102}, {"time": 101072, "pitch": 69, "duration": 50, "velocity": 98}, {"time": 101121, "pitch": 65, "duration": 50, "velocity": 87}, {"time": 101141, "pitch": 64, "duration": 50, "velocity": 83}, {"time": 101161, "pitch": 62, "duration": 40, "velocity": 78}, {"time": 101172, "pitch": 60, "duration": 30, "velocity": 76}, {"time": 101201, "pitch": 59, "duration": 10, "velocity": 69}, {"time": 103440, "pitch": 71, "duration": 81, "velocity": 125}, {"time": 103440, "pitch": 83, "duration": 81, "velocity": 125}, {"time": 110163, "pitch": 71, "duration": 80, "velocity": 127}, {"time": 110163, "pitch": 74, "duration": 70, "velocity": 127}, {"time": 110163, "pitch": 79, "duration": 80, "velocity": 127}, {"time": 110642, "pitch": 72, "duration": 479, "velocity": 127}, {"time": 110642, "pitch": 76, "duration": 439, "velocity": 127}, {"time": 110642, "pitch": 81, "duration": 434, "velocity": 127}, {"time": 111075, "pitch": 79, "duration": 30, "velocity": 122}, {"time": 111085, "pitch": 74, "duration": 90, "velocity": 106}, {"time": 111095, "pitch": 77, "duration": 30, "velocity": 127}, {"time": 111115, "pitch": 75, "duration": 20, "velocity": 95}, {"time": 111135, "pitch": 71, "duration": 80, "velocity": 91}, {"time": 111165, "pitch": 69, "duration": 70, "velocity": 84}, {"time": 111195, "pitch": 67, "duration": 60, "velocity": 77}, {"time": 111215, "pitch": 65, "duration": 40, "velocity": 72}, {"time": 111245, "pitch": 64, "duration": 30, "velocity": 66}, {"time": 111275, "pitch": 62, "duration": 10, "velocity": 59}, {"time": 116400, "pitch": 63, "duration": 723, "velocity": 127}, {"time": 116400, "pitch": 68, "duration": 723, "velocity": 127}, {"time": 116400, "pitch": 72, "duration": 723, "velocity": 127}, {"time": 117123, "pitch": 63, "duration": 59, "velocity": 127}, {"time": 117123, "pitch": 68, "duration": 59, "velocity": 127}, {"time": 117123, "pitch": 72, "duration": 59, "velocity": 127}, {"time": 119038, "pitch": 65, "duration": 40, "velocity": 91}, {"time": 119038, "pitch": 70, "duration": 40, "velocity": 109}, {"time": 119038, "pitch": 74, "duration": 60, "velocity": 103}, {"time": 120243, "pitch": 67, "duration": 708, "velocity": 122}, {"time": 120243, "pitch": 72, "duration": 708, "velocity": 127}, {"time": 120243, "pitch": 76, "duration": 708, "velocity": 127}, {"time": 120961, "pitch": 67, "duration": 60, "velocity": 109}, {"time": 120961, "pitch": 72, "duration": 30, "velocity": 120}, {"time": 120961, "pitch": 76, "duration": 70, "velocity": 125}, {"time": 127202, "pitch": 71, "duration": 80, "velocity": 125}, {"time": 127202, "pitch": 74, "duration": 60, "velocity": 120}, {"time": 127202, "pitch": 79, "duration": 90, "velocity": 118}, {"time": 127932, "pitch": 73, "duration": 379, "velocity": 127}, {"time": 127941, "pitch": 79, "duration": 399, "velocity": 127}, {"time": 127941, "pitch": 84, "duration": 349, "velocity": 127}, {"time": 128271, "pitch": 81, "duration": 50, "velocity": 111}, {"time": 128280, "pitch": 78, "duration": 70, "velocity": 109}, {"time": 128280, "pitch": 80, "duration": 40, "velocity": 109}, {"time": 128291, "pitch": 77, "duration": 70, "velocity": 106}, {"time": 128311, "pitch": 76, "duration": 70, "velocity": 101}, {"time": 128331, "pitch": 74, "duration": 70, "velocity": 96}, {"time": 128340, "pitch": 75, "duration": 40, "velocity": 94}, {"time": 128351, "pitch": 72, "duration": 60, "velocity": 92}, {"time": 128360, "pitch": 71, "duration": 69, "velocity": 89}, {"time": 128360, "pitch": 73, "duration": 40, "velocity": 89}, {"time": 128371, "pitch": 69, "duration": 79, "velocity": 87}, {"time": 128380, "pitch": 70, "duration": 49, "velocity": 85}, {"time": 128391, "pitch": 67, "duration": 69, "velocity": 82}, {"time": 128419, "pitch": 65, "duration": 50, "velocity": 75}, {"time": 128419, "pitch": 68, "duration": 20, "velocity": 75}, {"time": 128439, "pitch": 64, "duration": 50, "velocity": 70}, {"time": 128450, "pitch": 62, "duration": 40, "velocity": 67}, {"time": 128470, "pitch": 60, "duration": 20, "velocity": 63}, {"time": 132957, "pitch": 72, "duration": 716, "velocity": 127}, {"time": 132957, "pitch": 74, "duration": 716, "velocity": 127}, {"time": 132957, "pitch": 79, "duration": 716, "velocity": 127}, {"time": 133683, "pitch": 72, "duration": 658, "velocity": 127}, {"time": 133683, "pitch": 74, "duration": 658, "velocity": 127}, {"time": 133683, "pitch": 79, "duration": 658, "velocity": 127}, {"time": 134401, "pitch": 72, "duration": 449, "velocity": 127}, {"time": 134401, "pitch": 74, "duration": 449, "velocity": 127}, {"time": 134401, "pitch": 79, "duration": 439, "velocity": 127}, {"time": 134880, "pitch": 71, "duration": 60, "velocity": 127}, {"time": 134880, "pitch": 74, "duration": 50, "velocity": 127}, {"time": 134880, "pitch": 79, "duration": 70, "velocity": 127}, {"time": 144960, "pitch": 67, "duration": 339, "velocity": 122}, {"time": 144960, "pitch": 72, "duration": 279, "velocity": 127}, {"time": 144960, "pitch": 76, "duration": 229, "velocity": 127}, {"time": 145159, "pitch": 75, "duration": 20, "velocity": 114}, {"time": 145199, "pitch": 74, "duration": 50, "velocity": 105}, {"time": 145210, "pitch": 71, "duration": 70, "velocity": 102}, {"time": 145230, "pitch": 69, "duration": 50, "velocity": 98}, {"time": 145279, "pitch": 65, "duration": 50, "velocity": 87}, {"time": 145299, "pitch": 64, "duration": 50, "velocity": 83}, {"time": 145319, "pitch": 62, "duration": 40, "velocity": 78}, {"time": 145330, "pitch": 60, "duration": 30, "velocity": 76}, {"time": 145359, "pitch": 59, "duration": 10, "velocity": 69}, {"time": 147601, "pitch": 71, "duration": 80, "velocity": 125}, {"time": 147601, "pitch": 83, "duration": 80, "velocity": 125}, {"time": 154321, "pitch": 71, "duration": 80, "velocity": 127}, {"time": 154321, "pitch": 74, "duration": 70, "velocity": 127}, {"time": 154321, "pitch": 79, "duration": 80, "velocity": 127}, {"time": 154800, "pitch": 72, "duration": 479, "velocity": 127}, {"time": 154800, "pitch": 76, "duration": 439, "velocity": 127}, {"time": 154800, "pitch": 81, "duration": 434, "velocity": 127}, {"time": 155233, "pitch": 79, "duration": 30, "velocity": 122}, {"time": 155243, "pitch": 74, "duration": 90, "velocity": 106}, {"time": 155253, "pitch": 77, "duration": 30, "velocity": 127}, {"time": 155273, "pitch": 75, "duration": 20, "velocity": 95}, {"time": 155293, "pitch": 71, "duration": 80, "velocity": 91}, {"time": 155323, "pitch": 69, "duration": 70, "velocity": 84}, {"time": 155353, "pitch": 67, "duration": 60, "velocity": 77}, {"time": 155373, "pitch": 65, "duration": 40, "velocity": 72}, {"time": 155403, "pitch": 64, "duration": 30, "velocity": 66}, {"time": 155433, "pitch": 62, "duration": 9, "velocity": 59}, {"time": 160323, "pitch": 67, "duration": 339, "velocity": 122}, {"time": 160323, "pitch": 72, "duration": 279, "velocity": 127}, {"time": 160323, "pitch": 76, "duration": 229, "velocity": 127}, {"time": 160522, "pitch": 75, "duration": 20, "velocity": 114}, {"time": 160562, "pitch": 74, "duration": 50, "velocity": 105}, {"time": 160573, "pitch": 71, "duration": 70, "velocity": 102}, {"time": 160593, "pitch": 69, "duration": 50, "velocity": 98}, {"time": 160642, "pitch": 65, "duration": 50, "velocity": 87}, {"time": 160662, "pitch": 64, "duration": 50, "velocity": 83}, {"time": 160682, "pitch": 62, "duration": 40, "velocity": 78}, {"time": 160693, "pitch": 60, "duration": 30, "velocity": 76}, {"time": 160722, "pitch": 59, "duration": 10, "velocity": 69}, {"time": 162960, "pitch": 71, "duration": 81, "velocity": 125}, {"time": 162960, "pitch": 83, "duration": 81, "velocity": 125}, {"time": 169680, "pitch": 71, "duration": 81, "velocity": 127}, {"time": 169680, "pitch": 74, "duration": 71, "velocity": 127}, {"time": 169680, "pitch": 79, "duration": 81, "velocity": 127}, {"time": 170163, "pitch": 72, "duration": 479, "velocity": 127}, {"time": 170163, "pitch": 76, "duration": 439, "velocity": 127}, {"time": 170163, "pitch": 81, "duration": 434, "velocity": 127}, {"time": 170596, "pitch": 79, "duration": 30, "velocity": 122}, {"time": 170606, "pitch": 74, "duration": 90, "velocity": 106}, {"time": 170616, "pitch": 77, "duration": 30, "velocity": 127}, {"time": 170636, "pitch": 75, "duration": 20, "velocity": 95}, {"time": 170656, "pitch": 71, "duration": 80, "velocity": 91}, {"time": 170686, "pitch": 69, "duration": 70, "velocity": 84}, {"time": 170716, "pitch": 67, "duration": 59, "velocity": 77}, {"time": 170736, "pitch": 65, "duration": 39, "velocity": 72}, {"time": 170766, "pitch": 64, "duration": 29, "velocity": 66}, {"time": 170795, "pitch": 62, "duration": 10, "velocity": 59}], "annotations": [{"time": 241, "annotation": {"number": 7, "value": 65}, "group": "control_change"}, {"time": 252, "annotation": {"number": 11, "value": 127}, "group": "control_change"}, {"time": 264, "annotation": {"number": 10, "value": 84}, "group": "control_change"}, {"time": 275, "annotation": {"number": 91, "value": 82}, "group": "control_change"}, {"time": 287, "annotation": {"number": 93, "value": 61}, "group": "control_change"}, {"time": 310, "annotation": {"number": 101, "value": 0}, "group": "control_change"}, {"time": 321, "annotation": {"number": 100, "value": 0}, "group": "control_change"}, {"time": 333, "annotation": {"number": 6, "value": 12}, "group": "control_change"}, {"time": 367, "annotation": {"number": 101, "value": 127}, "group": "control_change"}, {"time": 379, "annotation": {"number": 100, "value": 127}, "group": "control_change"}, {"time": 116479, "annotation": {"number": 11, "value": 124}, "group": "control_change"}, {"time": 116507, "annotation": {"number": 11, "value": 114}, "group": "control_change"}, {"time": 116534, "annotation": {"number": 11, "value": 105}, "group": "control_change"}, {"time": 116562, "annotation": {"number": 11, "value": 96}, "group": "control_change"}, {"time": 116589, "annotation": {"number": 11, "value": 87}, "group": "control_change"}, {"time": 116616, "annotation": {"number": 11, "value": 78}, "group": "control_change"}, {"time": 116644, "annotation": {"number": 11, "value": 69}, "group": "control_change"}, {"time": 116670, "annotation": {"number": 11, "value": 60}, "group": "control_change"}, {"time": 116745, "annotation": {"number": 11, "value": 72}, "group": "control_change"}, {"time": 116770, "annotation": {"number": 11, "value": 75}, "group": "control_change"}, {"time": 116796, "annotation": {"number": 11, "value": 79}, "group": "control_change"}, {"time": 116822, "annotation": {"number": 11, "value": 83}, "group": "control_change"}, {"time": 116847, "annotation": {"number": 11, "value": 87}, "group": "control_change"}, {"time": 116873, "annotation": {"number": 11, "value": 91}, "group": "control_change"}, {"time": 116899, "annotation": {"number": 11, "value": 95}, "group": "control_change"}, {"time": 116925, "annotation": {"number": 11, "value": 99}, "group": "control_change"}, {"time": 116950, "annotation": {"number": 11, "value": 103}, "group": "control_change"}, {"time": 116976, "annotation": {"number": 11, "value": 107}, "group": "control_change"}, {"time": 117002, "annotation": {"number": 11, "value": 111}, "group": "control_change"}, {"time": 117027, "annotation": {"number": 11, "value": 114}, "group": "control_change"}, {"time": 117053, "annotation": {"number": 11, "value": 118}, "group": "control_change"}, {"time": 117079, "annotation": {"number": 11, "value": 122}, "group": "control_change"}, {"time": 117104, "annotation": {"number": 11, "value": 127}, "group": "control_change"}, {"time": 118398, "annotation": {"number": 11, "value": 124}, "group": "control_change"}, {"time": 118425, "annotation": {"number": 11, "value": 114}, "group": "control_change"}, {"time": 118451, "annotation": {"number": 11, "value": 105}, "group": "control_change"}, {"time": 118478, "annotation": {"number": 11, "value": 96}, "group": "control_change"}, {"time": 118505, "annotation": {"number": 11, "value": 87}, "group": "control_change"}, {"time": 118532, "annotation": {"number": 11, "value": 78}, "group": "control_change"}, {"time": 118559, "annotation": {"number": 11, "value": 69}, "group": "control_change"}, {"time": 118585, "annotation": {"number": 11, "value": 60}, "group": "control_change"}, {"time": 118661, "annotation": {"number": 11, "value": 72}, "group": "control_change"}, {"time": 118686, "annotation": {"number": 11, "value": 75}, "group": "control_change"}, {"time": 118712, "annotation": {"number": 11, "value": 79}, "group": "control_change"}, {"time": 118738, "annotation": {"number": 11, "value": 83}, "group": "control_change"}, {"time": 118763, "annotation": {"number": 11, "value": 87}, "group": "control_change"}, {"time": 118789, "annotation": {"number": 11, "value": 91}, "group": "control_change"}, {"time": 118815, "annotation": {"number": 11, "value": 95}, "group": "control_change"}, {"time": 118841, "annotation": {"number": 11, "value": 99}, "group": "control_change"}, {"time": 118866, "annotation": {"number": 11, "value": 103}, "group": "control_change"}, {"time": 118891, "annotation": {"number": 11, "value": 107}, "group": "control_change"}, {"time": 118917, "annotation": {"number": 11, "value": 111}, "group": "control_change"}, {"time": 118942, "annotation": {"number": 11, "value": 114}, "group": "control_change"}, {"time": 118968, "annotation": {"number": 11, "value": 118}, "group": "control_change"}, {"time": 118994, "annotation": {"number": 11, "value": 122}, "group": "control_change"}, {"time": 119019, "annotation": {"number": 11, "value": 127}, "group": "control_change"}, {"time": 120321, "annotation": {"number": 11, "value": 124}, "group": "control_change"}, {"time": 120348, "annotation": {"number": 11, "value": 114}, "group": "control_change"}, {"time": 120375, "annotation": {"number": 11, "value": 105}, "group": "control_change"}, {"time": 120402, "annotation": {"number": 11, "value": 96}, "group": "control_change"}, {"time": 120429, "annotation": {"number": 11, "value": 87}, "group": "control_change"}, {"time": 120456, "annotation": {"number": 11, "value": 78}, "group": "control_change"}, {"time": 120482, "annotation": {"number": 11, "value": 69}, "group": "control_change"}, {"time": 120508, "annotation": {"number": 11, "value": 60}, "group": "control_change"}, {"time": 120584, "annotation": {"number": 11, "value": 72}, "group": "control_change"}, {"time": 120609, "annotation": {"number": 11, "value": 75}, "group": "control_change"}, {"time": 120635, "annotation": {"number": 11, "value": 79}, "group": "control_change"}, {"time": 120661, "annotation": {"number": 11, "value": 83}, "group": "control_change"}, {"time": 120686, "annotation": {"number": 11, "value": 87}, "group": "control_change"}, {"time": 120712, "annotation": {"number": 11, "value": 91}, "group": "control_change"}, {"time": 120738, "annotation": {"number": 11, "value": 95}, "group": "control_change"}, {"time": 120764, "annotation": {"number": 11, "value": 99}, "group": "control_change"}, {"time": 120789, "annotation": {"number": 11, "value": 103}, "group": "control_change"}, {"time": 120815, "annotation": {"number": 11, "value": 107}, "group": "control_change"}, {"time": 120841, "annotation": {"number": 11, "value": 111}, "group": "control_change"}, {"time": 120866, "annotation": {"number": 11, "value": 114}, "group": "control_change"}, {"time": 120892, "annotation": {"number": 11, "value": 118}, "group": "control_change"}, {"time": 120917, "annotation": {"number": 11, "value": 122}, "group": "control_change"}, {"time": 120942, "annotation": {"number": 11, "value": 127}, "group": "control_change"}, {"time": 133051, "annotation": {"number": 11, "value": 124}, "group": "control_change"}, {"time": 133077, "annotation": {"number": 11, "value": 117}, "group": "control_change"}, {"time": 133104, "annotation": {"number": 11, "value": 110}, "group": "control_change"}, {"time": 133130, "annotation": {"number": 11, "value": 103}, "group": "control_change"}, {"time": 133157, "annotation": {"number": 11, "value": 96}, "group": "control_change"}, {"time": 133184, "annotation": {"number": 11, "value": 89}, "group": "control_change"}, {"time": 133210, "annotation": {"number": 11, "value": 82}, "group": "control_change"}, {"time": 133236, "annotation": {"number": 11, "value": 75}, "group": "control_change"}, {"time": 133263, "annotation": {"number": 11, "value": 68}, "group": "control_change"}, {"time": 133285, "annotation": {"number": 11, "value": 74}, "group": "control_change"}, {"time": 133313, "annotation": {"number": 11, "value": 79}, "group": "control_change"}, {"time": 133340, "annotation": {"number": 11, "value": 84}, "group": "control_change"}, {"time": 133367, "annotation": {"number": 11, "value": 89}, "group": "control_change"}, {"time": 133395, "annotation": {"number": 11, "value": 95}, "group": "control_change"}, {"time": 133422, "annotation": {"number": 11, "value": 100}, "group": "control_change"}, {"time": 133449, "annotation": {"number": 11, "value": 105}, "group": "control_change"}, {"time": 133476, "annotation": {"number": 11, "value": 111}, "group": "control_change"}, {"time": 133503, "annotation": {"number": 11, "value": 116}, "group": "control_change"}, {"time": 133530, "annotation": {"number": 11, "value": 121}, "group": "control_change"}, {"time": 133556, "annotation": {"number": 11, "value": 127}, "group": "control_change"}, {"time": 133781, "annotation": {"number": 11, "value": 124}, "group": "control_change"}, {"time": 133811, "annotation": {"number": 11, "value": 114}, "group": "control_change"}, {"time": 133841, "annotation": {"number": 11, "value": 104}, "group": "control_change"}, {"time": 133871, "annotation": {"number": 11, "value": 94}, "group": "control_change"}, {"time": 133901, "annotation": {"number": 11, "value": 84}, "group": "control_change"}, {"time": 133930, "annotation": {"number": 11, "value": 74}, "group": "control_change"}, {"time": 133994, "annotation": {"number": 11, "value": 82}, "group": "control_change"}, {"time": 134021, "annotation": {"number": 11, "value": 85}, "group": "control_change"}, {"time": 134048, "annotation": {"number": 11, "value": 88}, "group": "control_change"}, {"time": 134075, "annotation": {"number": 11, "value": 92}, "group": "control_change"}, {"time": 134102, "annotation": {"number": 11, "value": 95}, "group": "control_change"}, {"time": 134130, "annotation": {"number": 11, "value": 99}, "group": "control_change"}, {"time": 134157, "annotation": {"number": 11, "value": 102}, "group": "control_change"}, {"time": 134184, "annotation": {"number": 11, "value": 106}, "group": "control_change"}, {"time": 134210, "annotation": {"number": 11, "value": 109}, "group": "control_change"}, {"time": 134238, "annotation": {"number": 11, "value": 113}, "group": "control_change"}, {"time": 134265, "annotation": {"number": 11, "value": 116}, "group": "control_change"}, {"time": 134292, "annotation": {"number": 11, "value": 119}, "group": "control_change"}, {"time": 134319, "annotation": {"number": 11, "value": 123}, "group": "control_change"}, {"time": 134346, "annotation": {"number": 11, "value": 127}, "group": "control_change"}, {"time": 134500, "annotation": {"number": 11, "value": 124}, "group": "control_change"}, {"time": 134526, "annotation": {"number": 11, "value": 114}, "group": "control_change"}, {"time": 134552, "annotation": {"number": 11, "value": 105}, "group": "control_change"}, {"time": 134578, "annotation": {"number": 11, "value": 95}, "group": "control_change"}, {"time": 134604, "annotation": {"number": 11, "value": 86}, "group": "control_change"}, {"time": 134652, "annotation": {"number": 11, "value": 90}, "group": "control_change"}, {"time": 134677, "annotation": {"number": 11, "value": 94}, "group": "control_change"}, {"time": 134703, "annotation": {"number": 11, "value": 99}, "group": "control_change"}, {"time": 134728, "annotation": {"number": 11, "value": 103}, "group": "control_change"}, {"time": 134754, "annotation": {"number": 11, "value": 108}, "group": "control_change"}, {"time": 134779, "annotation": {"number": 11, "value": 113}, "group": "control_change"}, {"time": 134805, "annotation": {"number": 11, "value": 117}, "group": "control_change"}, {"time": 134830, "annotation": {"number": 11, "value": 122}, "group": "control_change"}, {"time": 134855, "annotation": {"number": 11, "value": 127}, "group": "control_change"}]}, {"program": 0, "is_drum": false, "name": "MELODY", "annotations": [{"time": 207, "annotation": {"number": 0, "value": 0}, "group": "control_change"}, {"time": 218, "annotation": {"number": 32, "value": 2}, "group": "control_change"}]}, {"program": 73, "is_drum": false, "name": "MELODY", "notes": [{"time": 15838, "pitch": 72, "duration": 220, "velocity": 104}, {"time": 16078, "pitch": 71, "duration": 100, "velocity": 84}, {"time": 16198, "pitch": 72, "duration": 339, "velocity": 96}, {"time": 16557, "pitch": 71, "duration": 100, "velocity": 79}, {"time": 16677, "pitch": 72, "duration": 342, "velocity": 85}, {"time": 17040, "pitch": 71, "duration": 223, "velocity": 79}, {"time": 17283, "pitch": 72, "duration": 219, "velocity": 87}, {"time": 17522, "pitch": 74, "duration": 100, "velocity": 79}, {"time": 17762, "pitch": 74, "duration": 219, "velocity": 104}, {"time": 18001, "pitch": 76, "duration": 100, "velocity": 79}, {"time": 18121, "pitch": 72, "duration": 1057, "velocity": 87}, {"time": 19677, "pitch": 72, "duration": 220, "velocity": 96}, {"time": 19917, "pitch": 71, "duration": 99, "velocity": 87}, {"time": 20036, "pitch": 72, "duration": 343, "velocity": 79}, {"time": 20399, "pitch": 71, "duration": 102, "velocity": 85}, {"time": 20521, "pitch": 72, "duration": 581, "velocity": 79}, {"time": 21122, "pitch": 69, "duration": 219, "velocity": 104}, {"time": 21361, "pitch": 69, "duration": 100, "velocity": 75}, {"time": 21601, "pitch": 69, "duration": 578, "velocity": 96}, {"time": 22199, "pitch": 71, "duration": 100, "velocity": 75}, {"time": 22319, "pitch": 69, "duration": 100, "velocity": 96}, {"time": 22439, "pitch": 67, "duration": 578, "velocity": 75}, {"time": 23280, "pitch": 67, "duration": 224, "velocity": 104}, {"time": 23524, "pitch": 72, "duration": 219, "velocity": 93}, {"time": 23763, "pitch": 71, "duration": 100, "velocity": 75}, {"time": 23883, "pitch": 72, "duration": 339, "velocity": 96}, {"time": 24242, "pitch": 71, "duration": 100, "velocity": 87}, {"time": 24362, "pitch": 72, "duration": 339, "velocity": 93}, {"time": 24721, "pitch": 71, "duration": 100, "velocity": 87}, {"time": 24841, "pitch": 72, "duration": 339, "velocity": 96}, {"time": 25200, "pitch": 74, "duration": 219, "velocity": 75}, {"time": 25439, "pitch": 74, "duration": 220, "velocity": 87}, {"time": 25679, "pitch": 76, "duration": 100, "velocity": 79}, {"time": 25798, "pitch": 72, "duration": 822, "velocity": 87}, {"time": 26640, "pitch": 76, "duration": 102, "velocity": 79}, {"time": 26884, "pitch": 77, "duration": 99, "velocity": 96}, {"time": 27123, "pitch": 79, "duration": 100, "velocity": 87}, {"time": 27363, "pitch": 79, "duration": 219, "velocity": 75}, {"time": 27602, "pitch": 72, "duration": 100, "velocity": 79}, {"time": 27722, "pitch": 72, "duration": 339, "velocity": 87}, {"time": 28081, "pitch": 72, "duration": 100, "velocity": 75}, {"time": 28320, "pitch": 79, "duration": 220, "velocity": 75}, {"time": 28560, "pitch": 72, "duration": 100, "velocity": 75}, {"time": 28680, "pitch": 72, "duration": 339, "velocity": 79}, {"time": 29039, "pitch": 71, "duration": 219, "velocity": 75}, {"time": 29278, "pitch": 74, "duration": 339, "velocity": 96}, {"time": 29637, "pitch": 72, "duration": 1066, "velocity": 87}, {"time": 31201, "pitch": 74, "duration": 220, "velocity": 87}, {"time": 31441, "pitch": 72, "duration": 219, "velocity": 93}, {"time": 31680, "pitch": 74, "duration": 220, "velocity": 87}, {"time": 31920, "pitch": 72, "duration": 99, "velocity": 96}, {"time": 32039, "pitch": 74, "duration": 699, "velocity": 79}, {"time": 32877, "pitch": 72, "duration": 100, "velocity": 104}, {"time": 32997, "pitch": 74, "duration": 100, "velocity": 75}, {"time": 33117, "pitch": 76, "duration": 223, "velocity": 93}, {"time": 33360, "pitch": 72, "duration": 102, "velocity": 79}, {"time": 33482, "pitch": 72, "duration": 341, "velocity": 96}, {"time": 33843, "pitch": 71, "duration": 100, "velocity": 75}, {"time": 33963, "pitch": 72, "duration": 339, "velocity": 96}, {"time": 34322, "pitch": 69, "duration": 579, "velocity": 75}, {"time": 35040, "pitch": 74, "duration": 220, "velocity": 85}, {"time": 35280, "pitch": 72, "duration": 99, "velocity": 79}, {"time": 35399, "pitch": 74, "duration": 220, "velocity": 87}, {"time": 35639, "pitch": 72, "duration": 100, "velocity": 79}, {"time": 35759, "pitch": 74, "duration": 458, "velocity": 87}, {"time": 36237, "pitch": 72, "duration": 220, "velocity": 93}, {"time": 36477, "pitch": 74, "duration": 223, "velocity": 79}, {"time": 36720, "pitch": 79, "duration": 343, "velocity": 104}, {"time": 37203, "pitch": 76, "duration": 459, "velocity": 96}, {"time": 37682, "pitch": 74, "duration": 459, "velocity": 96}, {"time": 38161, "pitch": 76, "duration": 219, "velocity": 96}, {"time": 38640, "pitch": 76, "duration": 99, "velocity": 103}, {"time": 38759, "pitch": 77, "duration": 100, "velocity": 75}, {"time": 38879, "pitch": 79, "duration": 100, "velocity": 87}, {"time": 38999, "pitch": 79, "duration": 99, "velocity": 96}, {"time": 39118, "pitch": 79, "duration": 100, "velocity": 87}, {"time": 39238, "pitch": 76, "duration": 100, "velocity": 79}, {"time": 39358, "pitch": 79, "duration": 219, "velocity": 104}, {"time": 39597, "pitch": 81, "duration": 100, "velocity": 93}, {"time": 39717, "pitch": 79, "duration": 221, "velocity": 79}, {"time": 40080, "pitch": 81, "duration": 223, "velocity": 79}, {"time": 40323, "pitch": 83, "duration": 220, "velocity": 104}, {"time": 40563, "pitch": 84, "duration": 219, "velocity": 87}, {"time": 41042, "pitch": 83, "duration": 219, "velocity": 115}, {"time": 41521, "pitch": 81, "duration": 1057, "velocity": 104}, {"time": 42718, "pitch": 81, "duration": 100, "velocity": 87}, {"time": 42838, "pitch": 81, "duration": 99, "velocity": 87}, {"time": 42957, "pitch": 81, "duration": 100, "velocity": 87}, {"time": 43077, "pitch": 79, "duration": 100, "velocity": 79}, {"time": 43197, "pitch": 81, "duration": 223, "velocity": 104}, {"time": 43440, "pitch": 79, "duration": 101, "velocity": 79}, {"time": 43562, "pitch": 81, "duration": 341, "velocity": 96}, {"time": 43923, "pitch": 79, "duration": 219, "velocity": 93}, {"time": 44162, "pitch": 81, "duration": 220, "velocity": 85}, {"time": 44402, "pitch": 79, "duration": 219, "velocity": 79}, {"time": 44641, "pitch": 81, "duration": 339, "velocity": 104}, {"time": 45000, "pitch": 83, "duration": 339, "velocity": 104}, {"time": 45359, "pitch": 84, "duration": 340, "velocity": 104}, {"time": 46078, "pitch": 76, "duration": 219, "velocity": 96}, {"time": 46317, "pitch": 74, "duration": 100, "velocity": 104}, {"time": 46557, "pitch": 76, "duration": 223, "velocity": 87}, {"time": 46800, "pitch": 77, "duration": 101, "velocity": 79}, {"time": 46922, "pitch": 79, "duration": 221, "velocity": 91}, {"time": 47163, "pitch": 81, "duration": 100, "velocity": 75}, {"time": 47283, "pitch": 79, "duration": 578, "velocity": 75}, {"time": 48240, "pitch": 76, "duration": 100, "velocity": 91}, {"time": 48480, "pitch": 76, "duration": 219, "velocity": 87}, {"time": 48719, "pitch": 77, "duration": 100, "velocity": 79}, {"time": 48839, "pitch": 79, "duration": 220, "velocity": 84}, {"time": 49078, "pitch": 81, "duration": 100, "velocity": 75}, {"time": 49198, "pitch": 79, "duration": 579, "velocity": 75}, {"time": 49917, "pitch": 76, "duration": 223, "velocity": 87}, {"time": 50160, "pitch": 77, "duration": 223, "velocity": 75}, {"time": 50403, "pitch": 76, "duration": 220, "velocity": 97}, {"time": 50643, "pitch": 74, "duration": 99, "velocity": 90}, {"time": 50762, "pitch": 72, "duration": 220, "velocity": 75}, {"time": 51002, "pitch": 74, "duration": 100, "velocity": 75}, {"time": 51121, "pitch": 72, "duration": 459, "velocity": 75}, {"time": 51840, "pitch": 69, "duration": 219, "velocity": 89}, {"time": 52079, "pitch": 72, "duration": 220, "velocity": 79}, {"time": 52319, "pitch": 77, "duration": 219, "velocity": 79}, {"time": 52558, "pitch": 77, "duration": 100, "velocity": 92}, {"time": 52678, "pitch": 76, "duration": 219, "velocity": 87}, {"time": 52917, "pitch": 74, "duration": 220, "velocity": 75}, {"time": 53157, "pitch": 72, "duration": 342, "velocity": 75}, {"time": 53520, "pitch": 72, "duration": 223, "velocity": 82}, {"time": 53763, "pitch": 74, "duration": 220, "velocity": 79}, {"time": 54242, "pitch": 76, "duration": 219, "velocity": 115}, {"time": 54481, "pitch": 77, "duration": 100, "velocity": 96}, {"time": 54601, "pitch": 79, "duration": 220, "velocity": 87}, {"time": 54841, "pitch": 81, "duration": 99, "velocity": 87}, {"time": 54960, "pitch": 79, "duration": 699, "velocity": 104}, {"time": 55679, "pitch": 76, "duration": 219, "velocity": 112}, {"time": 55918, "pitch": 77, "duration": 100, "velocity": 87}, {"time": 56157, "pitch": 79, "duration": 220, "velocity": 104}, {"time": 56397, "pitch": 79, "duration": 100, "velocity": 87}, {"time": 56517, "pitch": 83, "duration": 221, "velocity": 94}, {"time": 56758, "pitch": 83, "duration": 101, "velocity": 92}, {"time": 56880, "pitch": 84, "duration": 702, "velocity": 87}, {"time": 57602, "pitch": 76, "duration": 219, "velocity": 96}, {"time": 57841, "pitch": 77, "duration": 100, "velocity": 87}, {"time": 58081, "pitch": 76, "duration": 219, "velocity": 87}, {"time": 58320, "pitch": 74, "duration": 100, "velocity": 75}, {"time": 58440, "pitch": 72, "duration": 219, "velocity": 75}, {"time": 58679, "pitch": 74, "duration": 100, "velocity": 75}, {"time": 58799, "pitch": 72, "duration": 698, "velocity": 75}, {"time": 59517, "pitch": 69, "duration": 220, "velocity": 78}, {"time": 59757, "pitch": 72, "duration": 219, "velocity": 82}, {"time": 59996, "pitch": 77, "duration": 223, "velocity": 96}, {"time": 60240, "pitch": 77, "duration": 101, "velocity": 88}, {"time": 60361, "pitch": 76, "duration": 222, "velocity": 87}, {"time": 60603, "pitch": 74, "duration": 219, "velocity": 88}, {"time": 60842, "pitch": 72, "duration": 459, "velocity": 80}, {"time": 61321, "pitch": 74, "duration": 339, "velocity": 85}, {"time": 61680, "pitch": 72, "duration": 220, "velocity": 79}, {"time": 61920, "pitch": 72, "duration": 1659, "velocity": 79}, {"time": 69597, "pitch": 72, "duration": 223, "velocity": 104}, {"time": 69840, "pitch": 71, "duration": 102, "velocity": 84}, {"time": 69962, "pitch": 72, "duration": 341, "velocity": 96}, {"time": 70323, "pitch": 71, "duration": 100, "velocity": 79}, {"time": 70443, "pitch": 72, "duration": 339, "velocity": 85}, {"time": 70802, "pitch": 71, "duration": 220, "velocity": 79}, {"time": 71042, "pitch": 72, "duration": 219, "velocity": 87}, {"time": 71281, "pitch": 74, "duration": 100, "velocity": 79}, {"time": 71520, "pitch": 74, "duration": 220, "velocity": 104}, {"time": 71760, "pitch": 76, "duration": 100, "velocity": 79}, {"time": 71880, "pitch": 72, "duration": 1057, "velocity": 87}, {"time": 73444, "pitch": 72, "duration": 219, "velocity": 96}, {"time": 73683, "pitch": 71, "duration": 100, "velocity": 87}, {"time": 73803, "pitch": 72, "duration": 339, "velocity": 79}, {"time": 74162, "pitch": 71, "duration": 100, "velocity": 85}, {"time": 74282, "pitch": 72, "duration": 219, "velocity": 79}, {"time": 74641, "pitch": 69, "duration": 219, "velocity": 98}, {"time": 74880, "pitch": 69, "duration": 220, "velocity": 104}, {"time": 75120, "pitch": 69, "duration": 100, "velocity": 75}, {"time": 75359, "pitch": 69, "duration": 579, "velocity": 96}, {"time": 75958, "pitch": 71, "duration": 100, "velocity": 75}, {"time": 76078, "pitch": 69, "duration": 99, "velocity": 96}, {"time": 76197, "pitch": 67, "duration": 586, "velocity": 75}, {"time": 77043, "pitch": 67, "duration": 220, "velocity": 104}, {"time": 77282, "pitch": 72, "duration": 220, "velocity": 93}, {"time": 77522, "pitch": 71, "duration": 100, "velocity": 75}, {"time": 77642, "pitch": 72, "duration": 339, "velocity": 96}, {"time": 78001, "pitch": 71, "duration": 100, "velocity": 87}, {"time": 78121, "pitch": 72, "duration": 339, "velocity": 93}, {"time": 78480, "pitch": 71, "duration": 99, "velocity": 87}, {"time": 78599, "pitch": 72, "duration": 340, "velocity": 96}, {"time": 78959, "pitch": 74, "duration": 219, "velocity": 75}, {"time": 79198, "pitch": 74, "duration": 219, "velocity": 87}, {"time": 79437, "pitch": 76, "duration": 100, "velocity": 79}, {"time": 79557, "pitch": 72, "duration": 826, "velocity": 87}, {"time": 80403, "pitch": 76, "duration": 100, "velocity": 79}, {"time": 80642, "pitch": 77, "duration": 100, "velocity": 96}, {"time": 80882, "pitch": 79, "duration": 100, "velocity": 87}, {"time": 81121, "pitch": 79, "duration": 220, "velocity": 75}, {"time": 81361, "pitch": 72, "duration": 99, "velocity": 79}, {"time": 81480, "pitch": 72, "duration": 340, "velocity": 87}, {"time": 81840, "pitch": 79, "duration": 99, "velocity": 75}, {"time": 82079, "pitch": 79, "duration": 100, "velocity": 75}, {"time": 82199, "pitch": 72, "duration": 100, "velocity": 79}, {"time": 82318, "pitch": 72, "duration": 100, "velocity": 75}, {"time": 82438, "pitch": 72, "duration": 100, "velocity": 79}, {"time": 82558, "pitch": 72, "duration": 219, "velocity": 93}, {"time": 82797, "pitch": 71, "duration": 220, "velocity": 75}, {"time": 83037, "pitch": 74, "duration": 223, "velocity": 96}, {"time": 83280, "pitch": 72, "duration": 102, "velocity": 96}, {"time": 83402, "pitch": 72, "duration": 940, "velocity": 87}, {"time": 84960, "pitch": 74, "duration": 220, "velocity": 87}, {"time": 85200, "pitch": 72, "duration": 219, "velocity": 93}, {"time": 85439, "pitch": 74, "duration": 219, "velocity": 87}, {"time": 85678, "pitch": 72, "duration": 100, "velocity": 96}, {"time": 85798, "pitch": 74, "duration": 700, "velocity": 79}, {"time": 86640, "pitch": 72, "duration": 101, "velocity": 104}, {"time": 86762, "pitch": 74, "duration": 101, "velocity": 75}, {"time": 86883, "pitch": 76, "duration": 220, "velocity": 93}, {"time": 87123, "pitch": 72, "duration": 100, "velocity": 79}, {"time": 87242, "pitch": 72, "duration": 340, "velocity": 96}, {"time": 87602, "pitch": 71, "duration": 99, "velocity": 75}, {"time": 87721, "pitch": 72, "duration": 340, "velocity": 96}, {"time": 88081, "pitch": 69, "duration": 578, "velocity": 75}, {"time": 88799, "pitch": 74, "duration": 219, "velocity": 85}, {"time": 89038, "pitch": 72, "duration": 100, "velocity": 79}, {"time": 89158, "pitch": 74, "duration": 220, "velocity": 87}, {"time": 89397, "pitch": 72, "duration": 100, "velocity": 79}, {"time": 89517, "pitch": 74, "duration": 463, "velocity": 87}, {"time": 90000, "pitch": 72, "duration": 223, "velocity": 93}, {"time": 90243, "pitch": 74, "duration": 220, "velocity": 79}, {"time": 90483, "pitch": 79, "duration": 339, "velocity": 104}, {"time": 90962, "pitch": 76, "duration": 459, "velocity": 96}, {"time": 91440, "pitch": 74, "duration": 459, "velocity": 96}, {"time": 91919, "pitch": 76, "duration": 220, "velocity": 96}, {"time": 92398, "pitch": 76, "duration": 100, "velocity": 103}, {"time": 92518, "pitch": 77, "duration": 100, "velocity": 75}, {"time": 92638, "pitch": 79, "duration": 99, "velocity": 87}, {"time": 92757, "pitch": 79, "duration": 100, "velocity": 96}, {"time": 92877, "pitch": 79, "duration": 100, "velocity": 87}, {"time": 92997, "pitch": 76, "duration": 100, "velocity": 79}, {"time": 93117, "pitch": 79, "duration": 223, "velocity": 104}, {"time": 93360, "pitch": 81, "duration": 101, "velocity": 93}, {"time": 93482, "pitch": 79, "duration": 221, "velocity": 79}, {"time": 93843, "pitch": 81, "duration": 219, "velocity": 79}, {"time": 94082, "pitch": 83, "duration": 220, "velocity": 104}, {"time": 94321, "pitch": 84, "duration": 220, "velocity": 87}, {"time": 94800, "pitch": 83, "duration": 220, "velocity": 115}, {"time": 95279, "pitch": 81, "duration": 1058, "velocity": 104}, {"time": 96476, "pitch": 81, "duration": 102, "velocity": 87}, {"time": 96598, "pitch": 81, "duration": 101, "velocity": 87}, {"time": 96720, "pitch": 81, "duration": 101, "velocity": 87}, {"time": 96841, "pitch": 79, "duration": 102, "velocity": 79}, {"time": 96963, "pitch": 81, "duration": 220, "velocity": 104}, {"time": 97203, "pitch": 79, "duration": 99, "velocity": 79}, {"time": 97322, "pitch": 81, "duration": 339, "velocity": 96}, {"time": 97681, "pitch": 79, "duration": 220, "velocity": 93}, {"time": 97921, "pitch": 81, "duration": 219, "velocity": 85}, {"time": 98160, "pitch": 79, "duration": 220, "velocity": 79}, {"time": 98400, "pitch": 81, "duration": 339, "velocity": 104}, {"time": 98759, "pitch": 83, "duration": 339, "velocity": 104}, {"time": 99118, "pitch": 84, "duration": 339, "velocity": 104}, {"time": 99836, "pitch": 76, "duration": 223, "velocity": 96}, {"time": 100080, "pitch": 74, "duration": 101, "velocity": 104}, {"time": 100323, "pitch": 76, "duration": 219, "velocity": 87}, {"time": 100562, "pitch": 77, "duration": 100, "velocity": 79}, {"time": 100682, "pitch": 79, "duration": 220, "velocity": 91}, {"time": 100922, "pitch": 81, "duration": 99, "velocity": 75}, {"time": 101041, "pitch": 79, "duration": 579, "velocity": 75}, {"time": 101999, "pitch": 76, "duration": 100, "velocity": 91}, {"time": 102239, "pitch": 76, "duration": 219, "velocity": 87}, {"time": 102478, "pitch": 77, "duration": 100, "velocity": 79}, {"time": 102598, "pitch": 79, "duration": 219, "velocity": 84}, {"time": 102837, "pitch": 81, "duration": 100, "velocity": 75}, {"time": 102957, "pitch": 79, "duration": 584, "velocity": 75}, {"time": 103683, "pitch": 76, "duration": 219, "velocity": 87}, {"time": 103922, "pitch": 77, "duration": 220, "velocity": 75}, {"time": 104162, "pitch": 76, "duration": 219, "velocity": 97}, {"time": 104401, "pitch": 74, "duration": 100, "velocity": 90}, {"time": 104521, "pitch": 72, "duration": 219, "velocity": 75}, {"time": 104760, "pitch": 74, "duration": 100, "velocity": 75}, {"time": 104880, "pitch": 72, "duration": 459, "velocity": 75}, {"time": 105598, "pitch": 69, "duration": 220, "velocity": 89}, {"time": 105838, "pitch": 72, "duration": 219, "velocity": 79}, {"time": 106077, "pitch": 77, "duration": 220, "velocity": 79}, {"time": 106317, "pitch": 77, "duration": 100, "velocity": 92}, {"time": 106436, "pitch": 76, "duration": 222, "velocity": 87}, {"time": 106678, "pitch": 74, "duration": 223, "velocity": 75}, {"time": 106921, "pitch": 72, "duration": 341, "velocity": 75}, {"time": 107282, "pitch": 72, "duration": 220, "velocity": 82}, {"time": 107522, "pitch": 74, "duration": 219, "velocity": 79}, {"time": 108001, "pitch": 76, "duration": 219, "velocity": 115}, {"time": 108240, "pitch": 77, "duration": 100, "velocity": 96}, {"time": 108360, "pitch": 79, "duration": 219, "velocity": 87}, {"time": 108599, "pitch": 81, "duration": 100, "velocity": 87}, {"time": 108719, "pitch": 79, "duration": 698, "velocity": 104}, {"time": 109437, "pitch": 76, "duration": 223, "velocity": 112}, {"time": 109681, "pitch": 77, "duration": 101, "velocity": 87}, {"time": 109924, "pitch": 79, "duration": 219, "velocity": 104}, {"time": 110163, "pitch": 79, "duration": 100, "velocity": 87}, {"time": 110283, "pitch": 83, "duration": 220, "velocity": 94}, {"time": 110522, "pitch": 83, "duration": 100, "velocity": 92}, {"time": 110642, "pitch": 84, "duration": 699, "velocity": 87}, {"time": 111361, "pitch": 76, "duration": 219, "velocity": 96}, {"time": 111600, "pitch": 77, "duration": 100, "velocity": 87}, {"time": 111839, "pitch": 76, "duration": 220, "velocity": 87}, {"time": 112079, "pitch": 74, "duration": 100, "velocity": 75}, {"time": 112199, "pitch": 72, "duration": 219, "velocity": 75}, {"time": 112438, "pitch": 74, "duration": 100, "velocity": 75}, {"time": 112558, "pitch": 72, "duration": 706, "velocity": 75}, {"time": 113284, "pitch": 69, "duration": 219, "velocity": 78}, {"time": 113523, "pitch": 72, "duration": 220, "velocity": 82}, {"time": 113763, "pitch": 77, "duration": 219, "velocity": 96}, {"time": 114002, "pitch": 77, "duration": 100, "velocity": 88}, {"time": 114122, "pitch": 76, "duration": 219, "velocity": 87}, {"time": 114361, "pitch": 74, "duration": 220, "velocity": 88}, {"time": 114601, "pitch": 72, "duration": 459, "velocity": 80}, {"time": 115080, "pitch": 74, "duration": 339, "velocity": 85}, {"time": 115439, "pitch": 72, "duration": 219, "velocity": 79}, {"time": 115678, "pitch": 72, "duration": 459, "velocity": 79}, {"time": 116644, "pitch": 82, "duration": 339, "velocity": 117}, {"time": 117003, "pitch": 80, "duration": 339, "velocity": 117}, {"time": 117362, "pitch": 79, "duration": 220, "velocity": 85}, {"time": 117601, "pitch": 77, "duration": 819, "velocity": 104}, {"time": 118559, "pitch": 74, "duration": 339, "velocity": 117}, {"time": 118918, "pitch": 75, "duration": 340, "velocity": 117}, {"time": 119278, "pitch": 77, "duration": 219, "velocity": 104}, {"time": 119517, "pitch": 79, "duration": 223, "velocity": 96}, {"time": 119760, "pitch": 80, "duration": 102, "velocity": 115}, {"time": 119882, "pitch": 79, "duration": 1419, "velocity": 104}, {"time": 121680, "pitch": 81, "duration": 459, "velocity": 115}, {"time": 122159, "pitch": 79, "duration": 219, "velocity": 104}, {"time": 122398, "pitch": 77, "duration": 339, "velocity": 93}, {"time": 122757, "pitch": 76, "duration": 343, "velocity": 102}, {"time": 123120, "pitch": 74, "duration": 223, "velocity": 93}, {"time": 123364, "pitch": 72, "duration": 219, "velocity": 112}, {"time": 123603, "pitch": 74, "duration": 100, "velocity": 75}, {"time": 123723, "pitch": 72, "duration": 818, "velocity": 104}, {"time": 124800, "pitch": 69, "duration": 220, "velocity": 96}, {"time": 125040, "pitch": 72, "duration": 219, "velocity": 104}, {"time": 125279, "pitch": 75, "duration": 220, "velocity": 117}, {"time": 125518, "pitch": 75, "duration": 100, "velocity": 115}, {"time": 125638, "pitch": 74, "duration": 220, "velocity": 96}, {"time": 125878, "pitch": 75, "duration": 99, "velocity": 96}, {"time": 125997, "pitch": 72, "duration": 463, "velocity": 104}, {"time": 126723, "pitch": 74, "duration": 220, "velocity": 115}, {"time": 126963, "pitch": 72, "duration": 219, "velocity": 112}, {"time": 127202, "pitch": 79, "duration": 1896, "velocity": 104}, {"time": 136803, "pitch": 76, "duration": 220, "velocity": 87}, {"time": 137043, "pitch": 77, "duration": 99, "velocity": 79}, {"time": 137162, "pitch": 79, "duration": 220, "velocity": 91}, {"time": 137402, "pitch": 81, "duration": 100, "velocity": 75}, {"time": 137522, "pitch": 79, "duration": 698, "velocity": 75}, {"time": 138719, "pitch": 76, "duration": 219, "velocity": 87}, {"time": 138958, "pitch": 77, "duration": 100, "velocity": 79}, {"time": 139078, "pitch": 79, "duration": 219, "velocity": 84}, {"time": 139317, "pitch": 81, "duration": 100, "velocity": 75}, {"time": 139437, "pitch": 79, "duration": 584, "velocity": 75}, {"time": 140163, "pitch": 76, "duration": 220, "velocity": 87}, {"time": 140403, "pitch": 77, "duration": 219, "velocity": 75}, {"time": 140642, "pitch": 76, "duration": 219, "velocity": 97}, {"time": 140881, "pitch": 74, "duration": 100, "velocity": 90}, {"time": 141001, "pitch": 72, "duration": 220, "velocity": 75}, {"time": 141241, "pitch": 74, "duration": 99, "velocity": 75}, {"time": 141360, "pitch": 72, "duration": 459, "velocity": 75}, {"time": 142079, "pitch": 69, "duration": 219, "velocity": 89}, {"time": 142318, "pitch": 72, "duration": 220, "velocity": 79}, {"time": 142558, "pitch": 77, "duration": 99, "velocity": 79}, {"time": 142797, "pitch": 77, "duration": 100, "velocity": 92}, {"time": 142917, "pitch": 76, "duration": 221, "velocity": 87}, {"time": 143158, "pitch": 74, "duration": 223, "velocity": 75}, {"time": 143401, "pitch": 72, "duration": 222, "velocity": 75}, {"time": 144002, "pitch": 74, "duration": 219, "velocity": 88}, {"time": 144241, "pitch": 72, "duration": 220, "velocity": 75}, {"time": 144481, "pitch": 76, "duration": 219, "velocity": 87}, {"time": 144720, "pitch": 77, "duration": 100, "velocity": 79}, {"time": 144840, "pitch": 79, "duration": 219, "velocity": 91}, {"time": 145079, "pitch": 81, "duration": 100, "velocity": 75}, {"time": 145199, "pitch": 79, "duration": 579, "velocity": 75}, {"time": 146157, "pitch": 76, "duration": 100, "velocity": 91}, {"time": 146396, "pitch": 76, "duration": 223, "velocity": 87}, {"time": 146640, "pitch": 77, "duration": 101, "velocity": 79}, {"time": 146761, "pitch": 79, "duration": 222, "velocity": 84}, {"time": 147003, "pitch": 81, "duration": 99, "velocity": 75}, {"time": 147122, "pitch": 79, "duration": 579, "velocity": 75}, {"time": 147841, "pitch": 76, "duration": 219, "velocity": 87}, {"time": 148080, "pitch": 77, "duration": 220, "velocity": 75}, {"time": 148320, "pitch": 76, "duration": 219, "velocity": 97}, {"time": 148559, "pitch": 74, "duration": 100, "velocity": 90}, {"time": 148679, "pitch": 72, "duration": 219, "velocity": 75}, {"time": 148918, "pitch": 74, "duration": 100, "velocity": 75}, {"time": 149038, "pitch": 72, "duration": 459, "velocity": 75}, {"time": 149756, "pitch": 69, "duration": 223, "velocity": 89}, {"time": 150000, "pitch": 72, "duration": 223, "velocity": 79}, {"time": 150243, "pitch": 77, "duration": 219, "velocity": 79}, {"time": 150482, "pitch": 77, "duration": 100, "velocity": 92}, {"time": 150602, "pitch": 76, "duration": 220, "velocity": 87}, {"time": 150841, "pitch": 74, "duration": 220, "velocity": 75}, {"time": 151081, "pitch": 72, "duration": 339, "velocity": 75}, {"time": 151440, "pitch": 72, "duration": 220, "velocity": 82}, {"time": 151680, "pitch": 74, "duration": 219, "velocity": 79}, {"time": 152158, "pitch": 76, "duration": 220, "velocity": 115}, {"time": 152398, "pitch": 77, "duration": 100, "velocity": 96}, {"time": 152518, "pitch": 79, "duration": 219, "velocity": 87}, {"time": 152757, "pitch": 81, "duration": 100, "velocity": 87}, {"time": 152877, "pitch": 79, "duration": 706, "velocity": 104}, {"time": 153603, "pitch": 76, "duration": 219, "velocity": 112}, {"time": 153842, "pitch": 77, "duration": 100, "velocity": 87}, {"time": 154082, "pitch": 79, "duration": 219, "velocity": 104}, {"time": 154321, "pitch": 79, "duration": 100, "velocity": 87}, {"time": 154441, "pitch": 83, "duration": 219, "velocity": 94}, {"time": 154680, "pitch": 83, "duration": 100, "velocity": 92}, {"time": 154800, "pitch": 84, "duration": 698, "velocity": 87}, {"time": 155518, "pitch": 76, "duration": 220, "velocity": 96}, {"time": 155758, "pitch": 77, "duration": 219, "velocity": 87}, {"time": 155997, "pitch": 76, "duration": 223, "velocity": 87}, {"time": 156241, "pitch": 74, "duration": 101, "velocity": 75}, {"time": 156362, "pitch": 72, "duration": 222, "velocity": 75}, {"time": 156604, "pitch": 74, "duration": 99, "velocity": 75}, {"time": 156723, "pitch": 72, "duration": 459, "velocity": 75}, {"time": 157442, "pitch": 69, "duration": 219, "velocity": 78}, {"time": 157681, "pitch": 72, "duration": 220, "velocity": 82}, {"time": 157920, "pitch": 77, "duration": 220, "velocity": 96}, {"time": 158160, "pitch": 77, "duration": 100, "velocity": 88}, {"time": 158280, "pitch": 76, "duration": 219, "velocity": 87}, {"time": 158519, "pitch": 74, "duration": 220, "velocity": 88}, {"time": 158759, "pitch": 72, "duration": 458, "velocity": 80}, {"time": 159237, "pitch": 74, "duration": 343, "velocity": 85}, {"time": 159600, "pitch": 72, "duration": 224, "velocity": 79}, {"time": 159844, "pitch": 72, "duration": 1656, "velocity": 79}], "annotations": [{"time": 241, "annotation": {"number": 7, "value": 100}, "group": "control_change"}, {"time": 252, "annotation": {"number": 11, "value": 127}, "group": "control_change"}, {"time": 264, "annotation": {"number": 10, "value": 64}, "group": "control_change"}, {"time": 275, "annotation": {"number": 91, "value": 50}, "group": "control_change"}, {"time": 287, "annotation": {"number": 93, "value": 0}, "group": "control_change"}, {"time": 310, "annotation": {"number": 101, "value": 0}, "group": "control_change"}, {"time": 321, "annotation": {"number": 100, "value": 0}, "group": "control_change"}, {"time": 333, "annotation": {"number": 6, "value": 12}, "group": "control_change"}, {"time": 367, "annotation": {"number": 101, "value": 127}, "group": "control_change"}, {"time": 379, "annotation": {"number": 100, "value": 127}, "group": "control_change"}]}, {"program": 0, "is_drum": false, "name": "STRINGS1", "annotations": [{"time": 207, "annotation": {"number": 0, "value": 0}, "group": "control_change"}, {"time": 218, "annotation": {"number": 32, "value": 2}, "group": "control_change"}]}, {"program": 49, "is_drum": false, "name": "STRINGS1", "notes": [{"time": 8161, "pitch": 48, "duration": 1437, "velocity": 72}, {"time": 8161, "pitch": 60, "duration": 1357, "velocity": 83}, {"time": 8161, "pitch": 62, "duration": 938, "velocity": 110}, {"time": 8161, "pitch": 67, "duration": 2351, "velocity": 81}, {"time": 9119, "pitch": 64, "duration": 2831, "velocity": 114}, {"time": 9598, "pitch": 52, "duration": 478, "velocity": 114}, {"time": 9598, "pitch": 59, "duration": 399, "velocity": 106}, {"time": 10076, "pitch": 57, "duration": 1924, "velocity": 112}, {"time": 10076, "pitch": 60, "duration": 1874, "velocity": 106}, {"time": 10563, "pitch": 72, "duration": 469, "velocity": 114}, {"time": 11042, "pitch": 71, "duration": 479, "velocity": 106}, {"time": 11521, "pitch": 67, "duration": 479, "velocity": 103}, {"time": 12000, "pitch": 53, "duration": 718, "velocity": 100}, {"time": 12000, "pitch": 60, "duration": 2621, "velocity": 95}, {"time": 12000, "pitch": 64, "duration": 957, "velocity": 98}, {"time": 12000, "pitch": 67, "duration": 957, "velocity": 102}, {"time": 12718, "pitch": 52, "duration": 229, "velocity": 89}, {"time": 12957, "pitch": 50, "duration": 966, "velocity": 103}, {"time": 12957, "pitch": 65, "duration": 966, "velocity": 109}, {"time": 12957, "pitch": 69, "duration": 479, "velocity": 102}, {"time": 13436, "pitch": 72, "duration": 487, "velocity": 102}, {"time": 13923, "pitch": 53, "duration": 708, "velocity": 103}, {"time": 13923, "pitch": 69, "duration": 708, "velocity": 104}, {"time": 13923, "pitch": 79, "duration": 708, "velocity": 114}, {"time": 14641, "pitch": 55, "duration": 100, "velocity": 97}, {"time": 14641, "pitch": 62, "duration": 100, "velocity": 91}, {"time": 14641, "pitch": 67, "duration": 100, "velocity": 91}, {"time": 14641, "pitch": 79, "duration": 100, "velocity": 102}, {"time": 59517, "pitch": 84, "duration": 80, "velocity": 114}, {"time": 59597, "pitch": 83, "duration": 80, "velocity": 103}, {"time": 59677, "pitch": 84, "duration": 80, "velocity": 112}, {"time": 59757, "pitch": 86, "duration": 80, "velocity": 106}, {"time": 59837, "pitch": 88, "duration": 79, "velocity": 112}, {"time": 59916, "pitch": 89, "duration": 80, "velocity": 114}, {"time": 59996, "pitch": 91, "duration": 1445, "velocity": 95}, {"time": 61920, "pitch": 48, "duration": 1436, "velocity": 72}, {"time": 61920, "pitch": 60, "duration": 1356, "velocity": 83}, {"time": 61920, "pitch": 62, "duration": 937, "velocity": 110}, {"time": 61920, "pitch": 67, "duration": 2352, "velocity": 81}, {"time": 62877, "pitch": 64, "duration": 2831, "velocity": 114}, {"time": 63356, "pitch": 52, "duration": 487, "velocity": 114}, {"time": 63356, "pitch": 59, "duration": 406, "velocity": 106}, {"time": 63843, "pitch": 57, "duration": 1915, "velocity": 112}, {"time": 63843, "pitch": 60, "duration": 1865, "velocity": 106}, {"time": 64322, "pitch": 72, "duration": 469, "velocity": 114}, {"time": 64801, "pitch": 71, "duration": 478, "velocity": 106}, {"time": 65279, "pitch": 67, "duration": 479, "velocity": 103}, {"time": 65758, "pitch": 53, "duration": 723, "velocity": 100}, {"time": 65758, "pitch": 60, "duration": 2831, "velocity": 95}, {"time": 65758, "pitch": 64, "duration": 966, "velocity": 98}, {"time": 65758, "pitch": 67, "duration": 966, "velocity": 102}, {"time": 66481, "pitch": 52, "duration": 233, "velocity": 89}, {"time": 66724, "pitch": 50, "duration": 958, "velocity": 103}, {"time": 66724, "pitch": 65, "duration": 958, "velocity": 109}, {"time": 66724, "pitch": 69, "duration": 958, "velocity": 102}, {"time": 67682, "pitch": 53, "duration": 957, "velocity": 103}, {"time": 67682, "pitch": 69, "duration": 957, "velocity": 104}, {"time": 67682, "pitch": 72, "duration": 957, "velocity": 114}, {"time": 68639, "pitch": 55, "duration": 958, "velocity": 97}, {"time": 68639, "pitch": 62, "duration": 958, "velocity": 91}, {"time": 68639, "pitch": 67, "duration": 958, "velocity": 91}, {"time": 68639, "pitch": 71, "duration": 958, "velocity": 102}, {"time": 113284, "pitch": 84, "duration": 80, "velocity": 114}, {"time": 113364, "pitch": 83, "duration": 79, "velocity": 103}, {"time": 113443, "pitch": 84, "duration": 80, "velocity": 112}, {"time": 113523, "pitch": 86, "duration": 80, "velocity": 106}, {"time": 113603, "pitch": 88, "duration": 80, "velocity": 112}, {"time": 113683, "pitch": 89, "duration": 80, "velocity": 114}, {"time": 113763, "pitch": 91, "duration": 1436, "velocity": 95}, {"time": 115678, "pitch": 80, "duration": 60, "velocity": 116}, {"time": 115678, "pitch": 92, "duration": 60, "velocity": 127}, {"time": 115819, "pitch": 80, "duration": 70, "velocity": 114}, {"time": 115819, "pitch": 92, "duration": 70, "velocity": 125}, {"time": 115918, "pitch": 75, "duration": 109, "velocity": 116}, {"time": 115918, "pitch": 87, "duration": 109, "velocity": 127}, {"time": 116058, "pitch": 80, "duration": 90, "velocity": 116}, {"time": 116058, "pitch": 92, "duration": 90, "velocity": 127}, {"time": 116400, "pitch": 80, "duration": 1132, "velocity": 116}, {"time": 116400, "pitch": 92, "duration": 1132, "velocity": 127}, {"time": 117601, "pitch": 82, "duration": 80, "velocity": 111}, {"time": 117601, "pitch": 94, "duration": 80, "velocity": 122}, {"time": 117742, "pitch": 82, "duration": 120, "velocity": 103}, {"time": 117742, "pitch": 94, "duration": 120, "velocity": 114}, {"time": 117841, "pitch": 77, "duration": 100, "velocity": 103}, {"time": 117841, "pitch": 89, "duration": 100, "velocity": 114}, {"time": 117982, "pitch": 82, "duration": 99, "velocity": 116}, {"time": 117982, "pitch": 94, "duration": 99, "velocity": 127}, {"time": 118320, "pitch": 82, "duration": 1117, "velocity": 116}, {"time": 118320, "pitch": 94, "duration": 1117, "velocity": 127}, {"time": 119517, "pitch": 84, "duration": 71, "velocity": 95}, {"time": 119517, "pitch": 96, "duration": 71, "velocity": 106}, {"time": 119660, "pitch": 84, "duration": 101, "velocity": 95}, {"time": 119660, "pitch": 96, "duration": 101, "velocity": 106}, {"time": 119760, "pitch": 79, "duration": 81, "velocity": 101}, {"time": 119760, "pitch": 91, "duration": 81, "velocity": 112}, {"time": 119903, "pitch": 72, "duration": 81, "velocity": 78}, {"time": 119903, "pitch": 84, "duration": 81, "velocity": 89}, {"time": 120243, "pitch": 84, "duration": 130, "velocity": 114}, {"time": 120243, "pitch": 96, "duration": 130, "velocity": 125}, {"time": 120384, "pitch": 84, "duration": 90, "velocity": 78}, {"time": 120384, "pitch": 96, "duration": 90, "velocity": 89}, {"time": 120482, "pitch": 79, "duration": 60, "velocity": 101}, {"time": 120482, "pitch": 91, "duration": 60, "velocity": 112}, {"time": 120623, "pitch": 72, "duration": 80, "velocity": 92}, {"time": 120623, "pitch": 84, "duration": 80, "velocity": 103}, {"time": 121440, "pitch": 81, "duration": 509, "velocity": 103}, {"time": 121919, "pitch": 79, "duration": 479, "velocity": 114}, {"time": 122398, "pitch": 84, "duration": 479, "velocity": 106}, {"time": 122877, "pitch": 86, "duration": 487, "velocity": 102}, {"time": 123364, "pitch": 88, "duration": 1895, "velocity": 114}, {"time": 125279, "pitch": 87, "duration": 349, "velocity": 118}, {"time": 125659, "pitch": 86, "duration": 339, "velocity": 103}, {"time": 125997, "pitch": 84, "duration": 676, "velocity": 114}, {"time": 126723, "pitch": 86, "duration": 230, "velocity": 103}, {"time": 126963, "pitch": 84, "duration": 199, "velocity": 102}, {"time": 127202, "pitch": 91, "duration": 1846, "velocity": 106}, {"time": 130083, "pitch": 72, "duration": 2874, "velocity": 106}, {"time": 130083, "pitch": 84, "duration": 2874, "velocity": 121}, {"time": 132957, "pitch": 79, "duration": 1853, "velocity": 100}, {"time": 132957, "pitch": 91, "duration": 1853, "velocity": 114}, {"time": 134880, "pitch": 79, "duration": 100, "velocity": 127}, {"time": 134880, "pitch": 91, "duration": 100, "velocity": 127}, {"time": 144481, "pitch": 91, "duration": 7677, "velocity": 95}, {"time": 157442, "pitch": 84, "duration": 79, "velocity": 114}, {"time": 157521, "pitch": 83, "duration": 80, "velocity": 103}, {"time": 157601, "pitch": 84, "duration": 80, "velocity": 112}, {"time": 157681, "pitch": 86, "duration": 80, "velocity": 106}, {"time": 157761, "pitch": 88, "duration": 80, "velocity": 112}, {"time": 157841, "pitch": 89, "duration": 79, "velocity": 114}, {"time": 157920, "pitch": 91, "duration": 1924, "velocity": 95}, {"time": 159844, "pitch": 91, "duration": 7677, "velocity": 95}, {"time": 172797, "pitch": 84, "duration": 81, "velocity": 114}, {"time": 172878, "pitch": 83, "duration": 81, "velocity": 103}, {"time": 172959, "pitch": 84, "duration": 81, "velocity": 112}, {"time": 173040, "pitch": 86, "duration": 81, "velocity": 106}, {"time": 173121, "pitch": 88, "duration": 81, "velocity": 112}, {"time": 173202, "pitch": 89, "duration": 81, "velocity": 114}, {"time": 173283, "pitch": 91, "duration": 1916, "velocity": 106}, {"time": 175199, "pitch": 91, "duration": 1923, "velocity": 106}, {"time": 177122, "pitch": 91, "duration": 955, "velocity": 106}, {"time": 178077, "pitch": 89, "duration": 966, "velocity": 106}, {"time": 179043, "pitch": 88, "duration": 3351, "velocity": 106}], "annotations": [{"time": 241, "annotation": {"number": 7, "value": 45}, "group": "control_change"}, {"time": 252, "annotation": {"number": 11, "value": 127}, "group": "control_change"}, {"time": 264, "annotation": {"number": 10, "value": 109}, "group": "control_change"}, {"time": 275, "annotation": {"number": 91, "value": 120}, "group": "control_change"}, {"time": 287, "annotation": {"number": 93, "value": 56}, "group": "control_change"}, {"time": 310, "annotation": {"number": 101, "value": 0}, "group": "control_change"}, {"time": 321, "annotation": {"number": 100, "value": 0}, "group": "control_change"}, {"time": 333, "annotation": {"number": 6, "value": 12}, "group": "control_change"}, {"time": 390, "annotation": {"number": 101, "value": 127}, "group": "control_change"}, {"time": 402, "annotation": {"number": 100, "value": 127}, "group": "control_change"}, {"time": 8148, "annotation": {"number": 11, "value": 80}, "group": "control_change"}, {"time": 8177, "annotation": {"number": 11, "value": 80}, "group": "control_change"}, {"time": 8207, "annotation": {"number": 11, "value": 81}, "group": "control_change"}, {"time": 8237, "annotation": {"number": 11, "value": 82}, "group": "control_change"}, {"time": 8267, "annotation": {"number": 11, "value": 83}, "group": "control_change"}, {"time": 8296, "annotation": {"number": 11, "value": 84}, "group": "control_change"}, {"time": 8325, "annotation": {"number": 11, "value": 85}, "group": "control_change"}, {"time": 8355, "annotation": {"number": 11, "value": 86}, "group": "control_change"}, {"time": 8385, "annotation": {"number": 11, "value": 87}, "group": "control_change"}, {"time": 8414, "annotation": {"number": 11, "value": 88}, "group": "control_change"}, {"time": 8444, "annotation": {"number": 11, "value": 89}, "group": "control_change"}, {"time": 8474, "annotation": {"number": 11, "value": 90}, "group": "control_change"}, {"time": 8503, "annotation": {"number": 11, "value": 92}, "group": "control_change"}, {"time": 9793, "annotation": {"number": 11, "value": 94}, "group": "control_change"}, {"time": 9828, "annotation": {"number": 11, "value": 94}, "group": "control_change"}, {"time": 9863, "annotation": {"number": 11, "value": 95}, "group": "control_change"}, {"time": 9899, "annotation": {"number": 11, "value": 96}, "group": "control_change"}, {"time": 9934, "annotation": {"number": 11, "value": 97}, "group": "control_change"}, {"time": 9970, "annotation": {"number": 11, "value": 98}, "group": "control_change"}, {"time": 10005, "annotation": {"number": 11, "value": 99}, "group": "control_change"}, {"time": 10039, "annotation": {"number": 11, "value": 100}, "group": "control_change"}, {"time": 10075, "annotation": {"number": 11, "value": 101}, "group": "control_change"}, {"time": 10111, "annotation": {"number": 11, "value": 102}, "group": "control_change"}, {"time": 10147, "annotation": {"number": 11, "value": 103}, "group": "control_change"}, {"time": 10183, "annotation": {"number": 11, "value": 104}, "group": "control_change"}, {"time": 10218, "annotation": {"number": 11, "value": 106}, "group": "control_change"}, {"time": 13585, "annotation": {"number": 11, "value": 108}, "group": "control_change"}, {"time": 13611, "annotation": {"number": 11, "value": 109}, "group": "control_change"}, {"time": 13637, "annotation": {"number": 11, "value": 110}, "group": "control_change"}, {"time": 13662, "annotation": {"number": 11, "value": 112}, "group": "control_change"}, {"time": 13689, "annotation": {"number": 11, "value": 113}, "group": "control_change"}, {"time": 13714, "annotation": {"number": 11, "value": 115}, "group": "control_change"}, {"time": 13740, "annotation": {"number": 11, "value": 116}, "group": "control_change"}, {"time": 13766, "annotation": {"number": 11, "value": 118}, "group": "control_change"}, {"time": 13792, "annotation": {"number": 11, "value": 119}, "group": "control_change"}, {"time": 13818, "annotation": {"number": 11, "value": 121}, "group": "control_change"}, {"time": 13844, "annotation": {"number": 11, "value": 122}, "group": "control_change"}, {"time": 13869, "annotation": {"number": 11, "value": 124}, "group": "control_change"}, {"time": 13895, "annotation": {"number": 11, "value": 126}, "group": "control_change"}, {"time": 61920, "annotation": {"number": 11, "value": 80}, "group": "control_change"}, {"time": 61935, "annotation": {"number": 11, "value": 80}, "group": "control_change"}, {"time": 61965, "annotation": {"number": 11, "value": 81}, "group": "control_change"}, {"time": 61995, "annotation": {"number": 11, "value": 82}, "group": "control_change"}, {"time": 62025, "annotation": {"number": 11, "value": 83}, "group": "control_change"}, {"time": 62054, "annotation": {"number": 11, "value": 84}, "group": "control_change"}, {"time": 62084, "annotation": {"number": 11, "value": 85}, "group": "control_change"}, {"time": 62114, "annotation": {"number": 11, "value": 86}, "group": "control_change"}, {"time": 62144, "annotation": {"number": 11, "value": 87}, "group": "control_change"}, {"time": 62173, "annotation": {"number": 11, "value": 88}, "group": "control_change"}, {"time": 62203, "annotation": {"number": 11, "value": 89}, "group": "control_change"}, {"time": 62233, "annotation": {"number": 11, "value": 90}, "group": "control_change"}, {"time": 62262, "annotation": {"number": 11, "value": 92}, "group": "control_change"}, {"time": 63555, "annotation": {"number": 11, "value": 94}, "group": "control_change"}, {"time": 63590, "annotation": {"number": 11, "value": 94}, "group": "control_change"}, {"time": 63626, "annotation": {"number": 11, "value": 95}, "group": "control_change"}, {"time": 63662, "annotation": {"number": 11, "value": 96}, "group": "control_change"}, {"time": 63698, "annotation": {"number": 11, "value": 97}, "group": "control_change"}, {"time": 63734, "annotation": {"number": 11, "value": 98}, "group": "control_change"}, {"time": 63770, "annotation": {"number": 11, "value": 99}, "group": "control_change"}, {"time": 63805, "annotation": {"number": 11, "value": 100}, "group": "control_change"}, {"time": 63842, "annotation": {"number": 11, "value": 101}, "group": "control_change"}, {"time": 63877, "annotation": {"number": 11, "value": 102}, "group": "control_change"}, {"time": 63913, "annotation": {"number": 11, "value": 103}, "group": "control_change"}, {"time": 63948, "annotation": {"number": 11, "value": 104}, "group": "control_change"}, {"time": 63982, "annotation": {"number": 11, "value": 106}, "group": "control_change"}, {"time": 69148, "annotation": {"number": 11, "value": 102}, "group": "control_change"}, {"time": 69174, "annotation": {"number": 11, "value": 99}, "group": "control_change"}, {"time": 69199, "annotation": {"number": 11, "value": 97}, "group": "control_change"}, {"time": 69225, "annotation": {"number": 11, "value": 94}, "group": "control_change"}, {"time": 69251, "annotation": {"number": 11, "value": 92}, "group": "control_change"}, {"time": 69277, "annotation": {"number": 11, "value": 89}, "group": "control_change"}, {"time": 69303, "annotation": {"number": 11, "value": 87}, "group": "control_change"}, {"time": 69329, "annotation": {"number": 11, "value": 84}, "group": "control_change"}, {"time": 69355, "annotation": {"number": 11, "value": 82}, "group": "control_change"}, {"time": 69381, "annotation": {"number": 11, "value": 79}, "group": "control_change"}, {"time": 69407, "annotation": {"number": 11, "value": 77}, "group": "control_change"}, {"time": 69433, "annotation": {"number": 11, "value": 74}, "group": "control_change"}, {"time": 69458, "annotation": {"number": 11, "value": 72}, "group": "control_change"}, {"time": 69484, "annotation": {"number": 11, "value": 69}, "group": "control_change"}, {"time": 69510, "annotation": {"number": 11, "value": 67}, "group": "control_change"}, {"time": 69536, "annotation": {"number": 11, "value": 64}, "group": "control_change"}, {"time": 69562, "annotation": {"number": 11, "value": 62}, "group": "control_change"}, {"time": 69587, "annotation": {"number": 11, "value": 60}, "group": "control_change"}, {"time": 115678, "annotation": {"number": 11, "value": 127}, "group": "control_change"}, {"time": 130083, "annotation": {"number": 11, "value": 66}, "group": "control_change"}, {"time": 130116, "annotation": {"number": 11, "value": 67}, "group": "control_change"}, {"time": 130148, "annotation": {"number": 11, "value": 67}, "group": "control_change"}, {"time": 130181, "annotation": {"number": 11, "value": 68}, "group": "control_change"}, {"time": 130214, "annotation": {"number": 11, "value": 69}, "group": "control_change"}, {"time": 130247, "annotation": {"number": 11, "value": 70}, "group": "control_change"}, {"time": 130280, "annotation": {"number": 11, "value": 71}, "group": "control_change"}, {"time": 130313, "annotation": {"number": 11, "value": 72}, "group": "control_change"}, {"time": 130346, "annotation": {"number": 11, "value": 73}, "group": "control_change"}, {"time": 130378, "annotation": {"number": 11, "value": 74}, "group": "control_change"}, {"time": 130411, "annotation": {"number": 11, "value": 75}, "group": "control_change"}, {"time": 130444, "annotation": {"number": 11, "value": 76}, "group": "control_change"}, {"time": 130476, "annotation": {"number": 11, "value": 77}, "group": "control_change"}, {"time": 130509, "annotation": {"number": 11, "value": 78}, "group": "control_change"}, {"time": 130542, "annotation": {"number": 11, "value": 79}, "group": "control_change"}, {"time": 130575, "annotation": {"number": 11, "value": 80}, "group": "control_change"}, {"time": 130608, "annotation": {"number": 11, "value": 81}, "group": "control_change"}, {"time": 130640, "annotation": {"number": 11, "value": 82}, "group": "control_change"}, {"time": 130673, "annotation": {"number": 11, "value": 83}, "group": "control_change"}, {"time": 130706, "annotation": {"number": 11, "value": 84}, "group": "control_change"}, {"time": 130739, "annotation": {"number": 11, "value": 85}, "group": "control_change"}, {"time": 130772, "annotation": {"number": 11, "value": 86}, "group": "control_change"}, {"time": 130805, "annotation": {"number": 11, "value": 87}, "group": "control_change"}, {"time": 130838, "annotation": {"number": 11, "value": 88}, "group": "control_change"}, {"time": 130870, "annotation": {"number": 11, "value": 89}, "group": "control_change"}, {"time": 130902, "annotation": {"number": 11, "value": 90}, "group": "control_change"}, {"time": 130935, "annotation": {"number": 11, "value": 91}, "group": "control_change"}, {"time": 130968, "annotation": {"number": 11, "value": 92}, "group": "control_change"}, {"time": 131001, "annotation": {"number": 11, "value": 93}, "group": "control_change"}, {"time": 131034, "annotation": {"number": 11, "value": 94}, "group": "control_change"}, {"time": 131067, "annotation": {"number": 11, "value": 95}, "group": "control_change"}, {"time": 131099, "annotation": {"number": 11, "value": 96}, "group": "control_change"}, {"time": 131132, "annotation": {"number": 11, "value": 97}, "group": "control_change"}, {"time": 131165, "annotation": {"number": 11, "value": 98}, "group": "control_change"}, {"time": 131198, "annotation": {"number": 11, "value": 99}, "group": "control_change"}, {"time": 131231, "annotation": {"number": 11, "value": 100}, "group": "control_change"}, {"time": 131264, "annotation": {"number": 11, "value": 101}, "group": "control_change"}, {"time": 131297, "annotation": {"number": 11, "value": 102}, "group": "control_change"}, {"time": 131329, "annotation": {"number": 11, "value": 103}, "group": "control_change"}, {"time": 131361, "annotation": {"number": 11, "value": 104}, "group": "control_change"}, {"time": 131394, "annotation": {"number": 11, "value": 105}, "group": "control_change"}, {"time": 131427, "annotation": {"number": 11, "value": 106}, "group": "control_change"}, {"time": 131460, "annotation": {"number": 11, "value": 107}, "group": "control_change"}, {"time": 131493, "annotation": {"number": 11, "value": 108}, "group": "control_change"}, {"time": 131526, "annotation": {"number": 11, "value": 109}, "group": "control_change"}, {"time": 131559, "annotation": {"number": 11, "value": 110}, "group": "control_change"}, {"time": 131591, "annotation": {"number": 11, "value": 111}, "group": "control_change"}, {"time": 131624, "annotation": {"number": 11, "value": 112}, "group": "control_change"}, {"time": 131657, "annotation": {"number": 11, "value": 113}, "group": "control_change"}, {"time": 131690, "annotation": {"number": 11, "value": 114}, "group": "control_change"}, {"time": 131723, "annotation": {"number": 11, "value": 115}, "group": "control_change"}, {"time": 131755, "annotation": {"number": 11, "value": 116}, "group": "control_change"}, {"time": 131788, "annotation": {"number": 11, "value": 117}, "group": "control_change"}, {"time": 131820, "annotation": {"number": 11, "value": 118}, "group": "control_change"}, {"time": 131853, "annotation": {"number": 11, "value": 119}, "group": "control_change"}, {"time": 131886, "annotation": {"number": 11, "value": 120}, "group": "control_change"}, {"time": 131919, "annotation": {"number": 11, "value": 121}, "group": "control_change"}, {"time": 131952, "annotation": {"number": 11, "value": 122}, "group": "control_change"}, {"time": 131985, "annotation": {"number": 11, "value": 123}, "group": "control_change"}, {"time": 132018, "annotation": {"number": 11, "value": 124}, "group": "control_change"}, {"time": 132050, "annotation": {"number": 11, "value": 126}, "group": "control_change"}]}, {"program": 0, "is_drum": false, "name": "STRINGS2", "annotations": [{"time": 207, "annotation": {"number": 0, "value": 0}, "group": "control_change"}, {"time": 218, "annotation": {"number": 32, "value": 2}, "group": "control_change"}]}, {"program": 48, "is_drum": false, "name": "STRINGS2", "notes": [{"time": 8161, "pitch": 48, "duration": 1437, "velocity": 72}, {"time": 8161, "pitch": 60, "duration": 1357, "velocity": 83}, {"time": 8161, "pitch": 62, "duration": 938, "velocity": 110}, {"time": 8161, "pitch": 67, "duration": 2351, "velocity": 81}, {"time": 9119, "pitch": 64, "duration": 2831, "velocity": 114}, {"time": 9598, "pitch": 52, "duration": 478, "velocity": 114}, {"time": 9598, "pitch": 59, "duration": 399, "velocity": 106}, {"time": 10076, "pitch": 57, "duration": 1924, "velocity": 112}, {"time": 10076, "pitch": 60, "duration": 1874, "velocity": 106}, {"time": 10563, "pitch": 72, "duration": 469, "velocity": 114}, {"time": 11042, "pitch": 71, "duration": 479, "velocity": 106}, {"time": 11521, "pitch": 67, "duration": 479, "velocity": 103}, {"time": 12000, "pitch": 53, "duration": 718, "velocity": 100}, {"time": 12000, "pitch": 60, "duration": 2621, "velocity": 95}, {"time": 12000, "pitch": 64, "duration": 957, "velocity": 98}, {"time": 12000, "pitch": 67, "duration": 957, "velocity": 102}, {"time": 12718, "pitch": 52, "duration": 229, "velocity": 89}, {"time": 12957, "pitch": 50, "duration": 966, "velocity": 103}, {"time": 12957, "pitch": 65, "duration": 966, "velocity": 109}, {"time": 12957, "pitch": 69, "duration": 479, "velocity": 102}, {"time": 13436, "pitch": 72, "duration": 487, "velocity": 102}, {"time": 13923, "pitch": 53, "duration": 708, "velocity": 103}, {"time": 13923, "pitch": 69, "duration": 708, "velocity": 104}, {"time": 13923, "pitch": 79, "duration": 708, "velocity": 114}, {"time": 14641, "pitch": 55, "duration": 100, "velocity": 97}, {"time": 14641, "pitch": 62, "duration": 100, "velocity": 91}, {"time": 14641, "pitch": 67, "duration": 100, "velocity": 91}, {"time": 14641, "pitch": 79, "duration": 100, "velocity": 102}, {"time": 60240, "pitch": 48, "duration": 81, "velocity": 125}, {"time": 60483, "pitch": 53, "duration": 90, "velocity": 114}, {"time": 60722, "pitch": 48, "duration": 80, "velocity": 110}, {"time": 60962, "pitch": 55, "duration": 90, "velocity": 114}, {"time": 61201, "pitch": 50, "duration": 60, "velocity": 102}, {"time": 61441, "pitch": 55, "duration": 119, "velocity": 125}, {"time": 61920, "pitch": 48, "duration": 1436, "velocity": 72}, {"time": 61920, "pitch": 60, "duration": 1356, "velocity": 83}, {"time": 61920, "pitch": 62, "duration": 937, "velocity": 110}, {"time": 61920, "pitch": 67, "duration": 2352, "velocity": 81}, {"time": 62877, "pitch": 64, "duration": 2831, "velocity": 114}, {"time": 63356, "pitch": 52, "duration": 487, "velocity": 114}, {"time": 63356, "pitch": 59, "duration": 406, "velocity": 106}, {"time": 63843, "pitch": 57, "duration": 1915, "velocity": 112}, {"time": 63843, "pitch": 60, "duration": 1865, "velocity": 106}, {"time": 64322, "pitch": 72, "duration": 469, "velocity": 114}, {"time": 64801, "pitch": 71, "duration": 478, "velocity": 106}, {"time": 65279, "pitch": 67, "duration": 479, "velocity": 103}, {"time": 65758, "pitch": 53, "duration": 723, "velocity": 100}, {"time": 65758, "pitch": 60, "duration": 2831, "velocity": 95}, {"time": 65758, "pitch": 64, "duration": 966, "velocity": 98}, {"time": 65758, "pitch": 67, "duration": 966, "velocity": 102}, {"time": 66481, "pitch": 52, "duration": 233, "velocity": 89}, {"time": 66724, "pitch": 50, "duration": 958, "velocity": 103}, {"time": 66724, "pitch": 65, "duration": 958, "velocity": 109}, {"time": 66724, "pitch": 69, "duration": 958, "velocity": 102}, {"time": 67682, "pitch": 53, "duration": 957, "velocity": 103}, {"time": 67682, "pitch": 69, "duration": 957, "velocity": 104}, {"time": 67682, "pitch": 72, "duration": 957, "velocity": 114}, {"time": 68639, "pitch": 55, "duration": 958, "velocity": 97}, {"time": 68639, "pitch": 62, "duration": 958, "velocity": 91}, {"time": 68639, "pitch": 67, "duration": 958, "velocity": 91}, {"time": 68639, "pitch": 71, "duration": 958, "velocity": 102}, {"time": 114002, "pitch": 48, "duration": 80, "velocity": 125}, {"time": 114242, "pitch": 53, "duration": 89, "velocity": 114}, {"time": 114481, "pitch": 48, "duration": 80, "velocity": 110}, {"time": 114720, "pitch": 55, "duration": 90, "velocity": 114}, {"time": 114960, "pitch": 50, "duration": 60, "velocity": 102}, {"time": 115199, "pitch": 55, "duration": 120, "velocity": 125}, {"time": 116157, "pitch": 56, "duration": 487, "velocity": 112}, {"time": 116644, "pitch": 60, "duration": 479, "velocity": 114}, {"time": 117123, "pitch": 63, "duration": 478, "velocity": 107}, {"time": 117601, "pitch": 62, "duration": 1437, "velocity": 106}, {"time": 119038, "pitch": 58, "duration": 449, "velocity": 119}, {"time": 119517, "pitch": 60, "duration": 243, "velocity": 122}, {"time": 119760, "pitch": 62, "duration": 102, "velocity": 103}, {"time": 119902, "pitch": 60, "duration": 998, "velocity": 96}, {"time": 120961, "pitch": 62, "duration": 230, "velocity": 83}, {"time": 121201, "pitch": 60, "duration": 229, "velocity": 93}, {"time": 121440, "pitch": 69, "duration": 479, "velocity": 103}, {"time": 121919, "pitch": 67, "duration": 479, "velocity": 93}, {"time": 122398, "pitch": 60, "duration": 479, "velocity": 98}, {"time": 122877, "pitch": 62, "duration": 487, "velocity": 95}, {"time": 123364, "pitch": 64, "duration": 1187, "velocity": 97}, {"time": 124561, "pitch": 57, "duration": 239, "velocity": 71}, {"time": 124800, "pitch": 60, "duration": 230, "velocity": 97}, {"time": 125040, "pitch": 64, "duration": 229, "velocity": 106}, {"time": 125279, "pitch": 65, "duration": 379, "velocity": 106}, {"time": 125658, "pitch": 60, "duration": 329, "velocity": 102}, {"time": 125997, "pitch": 56, "duration": 1086, "velocity": 115}, {"time": 127202, "pitch": 55, "duration": 629, "velocity": 106}, {"time": 127921, "pitch": 57, "duration": 479, "velocity": 106}, {"time": 128400, "pitch": 64, "duration": 229, "velocity": 92}, {"time": 128639, "pitch": 65, "duration": 209, "velocity": 106}, {"time": 128878, "pitch": 67, "duration": 230, "velocity": 89}, {"time": 129118, "pitch": 65, "duration": 429, "velocity": 114}, {"time": 129597, "pitch": 64, "duration": 476, "velocity": 106}, {"time": 130083, "pitch": 62, "duration": 459, "velocity": 97}, {"time": 130562, "pitch": 60, "duration": 439, "velocity": 97}, {"time": 131041, "pitch": 65, "duration": 459, "velocity": 103}, {"time": 131520, "pitch": 63, "duration": 469, "velocity": 114}, {"time": 131999, "pitch": 62, "duration": 479, "velocity": 97}, {"time": 132478, "pitch": 60, "duration": 439, "velocity": 95}, {"time": 132957, "pitch": 55, "duration": 606, "velocity": 114}, {"time": 133683, "pitch": 55, "duration": 469, "velocity": 97}, {"time": 134162, "pitch": 57, "duration": 199, "velocity": 97}, {"time": 134401, "pitch": 60, "duration": 239, "velocity": 95}, {"time": 134640, "pitch": 57, "duration": 210, "velocity": 83}, {"time": 134880, "pitch": 55, "duration": 130, "velocity": 114}, {"time": 158160, "pitch": 48, "duration": 80, "velocity": 125}, {"time": 158399, "pitch": 53, "duration": 90, "velocity": 114}, {"time": 158639, "pitch": 48, "duration": 80, "velocity": 110}, {"time": 158878, "pitch": 55, "duration": 90, "velocity": 114}, {"time": 159118, "pitch": 50, "duration": 60, "velocity": 102}, {"time": 159357, "pitch": 55, "duration": 122, "velocity": 125}, {"time": 173523, "pitch": 48, "duration": 80, "velocity": 125}, {"time": 173762, "pitch": 53, "duration": 90, "velocity": 114}, {"time": 174002, "pitch": 48, "duration": 80, "velocity": 110}, {"time": 174241, "pitch": 55, "duration": 90, "velocity": 114}, {"time": 174481, "pitch": 50, "duration": 59, "velocity": 102}, {"time": 174720, "pitch": 55, "duration": 120, "velocity": 125}], "annotations": [{"time": 241, "annotation": {"number": 7, "value": 63}, "group": "control_change"}, {"time": 252, "annotation": {"number": 11, "value": 127}, "group": "control_change"}, {"time": 264, "annotation": {"number": 10, "value": 29}, "group": "control_change"}, {"time": 275, "annotation": {"number": 91, "value": 127}, "group": "control_change"}, {"time": 287, "annotation": {"number": 93, "value": 55}, "group": "control_change"}, {"time": 310, "annotation": {"number": 101, "value": 0}, "group": "control_change"}, {"time": 321, "annotation": {"number": 100, "value": 0}, "group": "control_change"}, {"time": 333, "annotation": {"number": 6, "value": 12}, "group": "control_change"}, {"time": 344, "annotation": {"number": 101, "value": 127}, "group": "control_change"}, {"time": 356, "annotation": {"number": 100, "value": 127}, "group": "control_change"}, {"time": 8161, "annotation": {"number": 11, "value": 80}, "group": "control_change"}, {"time": 8177, "annotation": {"number": 11, "value": 80}, "group": "control_change"}, {"time": 8207, "annotation": {"number": 11, "value": 81}, "group": "control_change"}, {"time": 8237, "annotation": {"number": 11, "value": 82}, "group": "control_change"}, {"time": 8267, "annotation": {"number": 11, "value": 83}, "group": "control_change"}, {"time": 8296, "annotation": {"number": 11, "value": 84}, "group": "control_change"}, {"time": 8325, "annotation": {"number": 11, "value": 85}, "group": "control_change"}, {"time": 8355, "annotation": {"number": 11, "value": 86}, "group": "control_change"}, {"time": 8385, "annotation": {"number": 11, "value": 87}, "group": "control_change"}, {"time": 8414, "annotation": {"number": 11, "value": 88}, "group": "control_change"}, {"time": 8444, "annotation": {"number": 11, "value": 89}, "group": "control_change"}, {"time": 8474, "annotation": {"number": 11, "value": 90}, "group": "control_change"}, {"time": 8503, "annotation": {"number": 11, "value": 92}, "group": "control_change"}, {"time": 9793, "annotation": {"number": 11, "value": 94}, "group": "control_change"}, {"time": 9828, "annotation": {"number": 11, "value": 94}, "group": "control_change"}, {"time": 9863, "annotation": {"number": 11, "value": 95}, "group": "control_change"}, {"time": 9899, "annotation": {"number": 11, "value": 96}, "group": "control_change"}, {"time": 9934, "annotation": {"number": 11, "value": 97}, "group": "control_change"}, {"time": 9970, "annotation": {"number": 11, "value": 98}, "group": "control_change"}, {"time": 10005, "annotation": {"number": 11, "value": 99}, "group": "control_change"}, {"time": 10039, "annotation": {"number": 11, "value": 100}, "group": "control_change"}, {"time": 10075, "annotation": {"number": 11, "value": 101}, "group": "control_change"}, {"time": 10111, "annotation": {"number": 11, "value": 102}, "group": "control_change"}, {"time": 10147, "annotation": {"number": 11, "value": 103}, "group": "control_change"}, {"time": 10183, "annotation": {"number": 11, "value": 104}, "group": "control_change"}, {"time": 10218, "annotation": {"number": 11, "value": 106}, "group": "control_change"}, {"time": 13585, "annotation": {"number": 11, "value": 108}, "group": "control_change"}, {"time": 13611, "annotation": {"number": 11, "value": 109}, "group": "control_change"}, {"time": 13637, "annotation": {"number": 11, "value": 110}, "group": "control_change"}, {"time": 13662, "annotation": {"number": 11, "value": 112}, "group": "control_change"}, {"time": 13689, "annotation": {"number": 11, "value": 113}, "group": "control_change"}, {"time": 13714, "annotation": {"number": 11, "value": 115}, "group": "control_change"}, {"time": 13740, "annotation": {"number": 11, "value": 116}, "group": "control_change"}, {"time": 13766, "annotation": {"number": 11, "value": 118}, "group": "control_change"}, {"time": 13792, "annotation": {"number": 11, "value": 119}, "group": "control_change"}, {"time": 13818, "annotation": {"number": 11, "value": 121}, "group": "control_change"}, {"time": 13844, "annotation": {"number": 11, "value": 122}, "group": "control_change"}, {"time": 13869, "annotation": {"number": 11, "value": 124}, "group": "control_change"}, {"time": 13895, "annotation": {"number": 11, "value": 126}, "group": "control_change"}, {"time": 61920, "annotation": {"number": 11, "value": 80}, "group": "control_change"}, {"time": 61935, "annotation": {"number": 11, "value": 80}, "group": "control_change"}, {"time": 61965, "annotation": {"number": 11, "value": 81}, "group": "control_change"}, {"time": 61995, "annotation": {"number": 11, "value": 82}, "group": "control_change"}, {"time": 62025, "annotation": {"number": 11, "value": 83}, "group": "control_change"}, {"time": 62054, "annotation": {"number": 11, "value": 84}, "group": "control_change"}, {"time": 62084, "annotation": {"number": 11, "value": 85}, "group": "control_change"}, {"time": 62114, "annotation": {"number": 11, "value": 86}, "group": "control_change"}, {"time": 62144, "annotation": {"number": 11, "value": 87}, "group": "control_change"}, {"time": 62173, "annotation": {"number": 11, "value": 88}, "group": "control_change"}, {"time": 62203, "annotation": {"number": 11, "value": 89}, "group": "control_change"}, {"time": 62233, "annotation": {"number": 11, "value": 90}, "group": "control_change"}, {"time": 62262, "annotation": {"number": 11, "value": 92}, "group": "control_change"}, {"time": 63555, "annotation": {"number": 11, "value": 94}, "group": "control_change"}, {"time": 63590, "annotation": {"number": 11, "value": 94}, "group": "control_change"}, {"time": 63626, "annotation": {"number": 11, "value": 95}, "group": "control_change"}, {"time": 63662, "annotation": {"number": 11, "value": 96}, "group": "control_change"}, {"time": 63698, "annotation": {"number": 11, "value": 97}, "group": "control_change"}, {"time": 63734, "annotation": {"number": 11, "value": 98}, "group": "control_change"}, {"time": 63770, "annotation": {"number": 11, "value": 99}, "group": "control_change"}, {"time": 63805, "annotation": {"number": 11, "value": 100}, "group": "control_change"}, {"time": 63842, "annotation": {"number": 11, "value": 101}, "group": "control_change"}, {"time": 63877, "annotation": {"number": 11, "value": 102}, "group": "control_change"}, {"time": 63913, "annotation": {"number": 11, "value": 103}, "group": "control_change"}, {"time": 63948, "annotation": {"number": 11, "value": 104}, "group": "control_change"}, {"time": 63982, "annotation": {"number": 11, "value": 106}, "group": "control_change"}, {"time": 69148, "annotation": {"number": 11, "value": 102}, "group": "control_change"}, {"time": 69174, "annotation": {"number": 11, "value": 99}, "group": "control_change"}, {"time": 69199, "annotation": {"number": 11, "value": 97}, "group": "control_change"}, {"time": 69225, "annotation": {"number": 11, "value": 94}, "group": "control_change"}, {"time": 69251, "annotation": {"number": 11, "value": 92}, "group": "control_change"}, {"time": 69277, "annotation": {"number": 11, "value": 89}, "group": "control_change"}, {"time": 69303, "annotation": {"number": 11, "value": 87}, "group": "control_change"}, {"time": 69329, "annotation": {"number": 11, "value": 84}, "group": "control_change"}, {"time": 69355, "annotation": {"number": 11, "value": 82}, "group": "control_change"}, {"time": 69381, "annotation": {"number": 11, "value": 79}, "group": "control_change"}, {"time": 69407, "annotation": {"number": 11, "value": 77}, "group": "control_change"}, {"time": 69433, "annotation": {"number": 11, "value": 74}, "group": "control_change"}, {"time": 69458, "annotation": {"number": 11, "value": 72}, "group": "control_change"}, {"time": 69484, "annotation": {"number": 11, "value": 69}, "group": "control_change"}, {"time": 69510, "annotation": {"number": 11, "value": 67}, "group": "control_change"}, {"time": 69536, "annotation": {"number": 11, "value": 64}, "group": "control_change"}, {"time": 69562, "annotation": {"number": 11, "value": 62}, "group": "control_change"}, {"time": 69587, "annotation": {"number": 11, "value": 60}, "group": "control_change"}, {"time": 115678, "annotation": {"number": 11, "value": 127}, "group": "control_change"}]}, {"program": 0, "is_drum": false, "name": "MUTE GT", "annotations": [{"time": 207, "annotation": {"number": 0, "value": 0}, "group": "control_change"}, {"time": 218, "annotation": {"number": 32, "value": 1}, "group": "control_change"}]}, {"program": 28, "is_drum": false, "name": "MUTE GT", "notes": [{"time": 15838, "pitch": 55, "duration": 140, "velocity": 103}, {"time": 15978, "pitch": 57, "duration": 240, "velocity": 97}, {"time": 16218, "pitch": 60, "duration": 20, "velocity": 97}, {"time": 16557, "pitch": 55, "duration": 139, "velocity": 103}, {"time": 16696, "pitch": 57, "duration": 242, "velocity": 97}, {"time": 16938, "pitch": 60, "duration": 20, "velocity": 97}, {"time": 17283, "pitch": 60, "duration": 120, "velocity": 103}, {"time": 17423, "pitch": 60, "duration": 19, "velocity": 97}, {"time": 17522, "pitch": 57, "duration": 120, "velocity": 103}, {"time": 17662, "pitch": 55, "duration": 20, "velocity": 97}, {"time": 17762, "pitch": 55, "duration": 139, "velocity": 103}, {"time": 17901, "pitch": 57, "duration": 240, "velocity": 97}, {"time": 18141, "pitch": 60, "duration": 20, "velocity": 97}, {"time": 18480, "pitch": 55, "duration": 140, "velocity": 103}, {"time": 18620, "pitch": 57, "duration": 239, "velocity": 97}, {"time": 18859, "pitch": 60, "duration": 20, "velocity": 97}, {"time": 19198, "pitch": 60, "duration": 120, "velocity": 103}, {"time": 19338, "pitch": 60, "duration": 20, "velocity": 97}, {"time": 19438, "pitch": 57, "duration": 120, "velocity": 103}, {"time": 19577, "pitch": 55, "duration": 20, "velocity": 97}, {"time": 19677, "pitch": 55, "duration": 140, "velocity": 103}, {"time": 19817, "pitch": 57, "duration": 239, "velocity": 97}, {"time": 20056, "pitch": 60, "duration": 20, "velocity": 97}, {"time": 20399, "pitch": 55, "duration": 142, "velocity": 103}, {"time": 20541, "pitch": 57, "duration": 241, "velocity": 97}, {"time": 20782, "pitch": 60, "duration": 20, "velocity": 97}, {"time": 21122, "pitch": 60, "duration": 119, "velocity": 103}, {"time": 21261, "pitch": 60, "duration": 20, "velocity": 97}, {"time": 21361, "pitch": 57, "duration": 120, "velocity": 103}, {"time": 21501, "pitch": 55, "duration": 20, "velocity": 97}, {"time": 21601, "pitch": 55, "duration": 139, "velocity": 103}, {"time": 21740, "pitch": 57, "duration": 240, "velocity": 97}, {"time": 21980, "pitch": 60, "duration": 20, "velocity": 97}, {"time": 22319, "pitch": 55, "duration": 140, "velocity": 103}, {"time": 22459, "pitch": 57, "duration": 239, "velocity": 97}, {"time": 22698, "pitch": 60, "duration": 20, "velocity": 97}, {"time": 23037, "pitch": 60, "duration": 122, "velocity": 103}, {"time": 23179, "pitch": 60, "duration": 20, "velocity": 97}, {"time": 23280, "pitch": 57, "duration": 122, "velocity": 103}, {"time": 23422, "pitch": 55, "duration": 21, "velocity": 97}, {"time": 23524, "pitch": 55, "duration": 139, "velocity": 103}, {"time": 23663, "pitch": 57, "duration": 240, "velocity": 97}, {"time": 23903, "pitch": 60, "duration": 20, "velocity": 97}, {"time": 24242, "pitch": 55, "duration": 140, "velocity": 103}, {"time": 24382, "pitch": 57, "duration": 239, "velocity": 97}, {"time": 24621, "pitch": 60, "duration": 20, "velocity": 97}, {"time": 24960, "pitch": 60, "duration": 120, "velocity": 103}, {"time": 25100, "pitch": 60, "duration": 20, "velocity": 97}, {"time": 25200, "pitch": 57, "duration": 120, "velocity": 103}, {"time": 25340, "pitch": 55, "duration": 20, "velocity": 97}, {"time": 25439, "pitch": 55, "duration": 140, "velocity": 103}, {"time": 25579, "pitch": 57, "duration": 239, "velocity": 97}, {"time": 25818, "pitch": 60, "duration": 20, "velocity": 97}, {"time": 26158, "pitch": 55, "duration": 139, "velocity": 103}, {"time": 26297, "pitch": 57, "duration": 242, "velocity": 97}, {"time": 26539, "pitch": 60, "duration": 20, "velocity": 97}, {"time": 26884, "pitch": 60, "duration": 119, "velocity": 103}, {"time": 27023, "pitch": 60, "duration": 20, "velocity": 97}, {"time": 27123, "pitch": 57, "duration": 120, "velocity": 103}, {"time": 27263, "pitch": 55, "duration": 20, "velocity": 97}, {"time": 27363, "pitch": 55, "duration": 139, "velocity": 103}, {"time": 27502, "pitch": 57, "duration": 240, "velocity": 97}, {"time": 27742, "pitch": 60, "duration": 20, "velocity": 97}, {"time": 28081, "pitch": 55, "duration": 140, "velocity": 103}, {"time": 28221, "pitch": 57, "duration": 239, "velocity": 97}, {"time": 28460, "pitch": 60, "duration": 20, "velocity": 97}, {"time": 28799, "pitch": 60, "duration": 120, "velocity": 103}, {"time": 28939, "pitch": 60, "duration": 20, "velocity": 97}, {"time": 29039, "pitch": 57, "duration": 119, "velocity": 103}, {"time": 29178, "pitch": 55, "duration": 20, "velocity": 97}, {"time": 29278, "pitch": 55, "duration": 140, "velocity": 103}, {"time": 29418, "pitch": 57, "duration": 239, "velocity": 97}, {"time": 29657, "pitch": 60, "duration": 20, "velocity": 97}, {"time": 30000, "pitch": 55, "duration": 142, "velocity": 103}, {"time": 30142, "pitch": 57, "duration": 241, "velocity": 97}, {"time": 30383, "pitch": 60, "duration": 20, "velocity": 97}, {"time": 30723, "pitch": 60, "duration": 119, "velocity": 103}, {"time": 30862, "pitch": 60, "duration": 20, "velocity": 97}, {"time": 30962, "pitch": 57, "duration": 120, "velocity": 103}, {"time": 31102, "pitch": 55, "duration": 20, "velocity": 97}, {"time": 69597, "pitch": 55, "duration": 142, "velocity": 103}, {"time": 69739, "pitch": 57, "duration": 243, "velocity": 97}, {"time": 69982, "pitch": 60, "duration": 21, "velocity": 97}, {"time": 70323, "pitch": 55, "duration": 140, "velocity": 103}, {"time": 70463, "pitch": 57, "duration": 239, "velocity": 97}, {"time": 70702, "pitch": 60, "duration": 20, "velocity": 97}, {"time": 71042, "pitch": 60, "duration": 119, "velocity": 103}, {"time": 71181, "pitch": 60, "duration": 20, "velocity": 97}, {"time": 71281, "pitch": 57, "duration": 120, "velocity": 103}, {"time": 71421, "pitch": 55, "duration": 20, "velocity": 97}, {"time": 71520, "pitch": 55, "duration": 140, "velocity": 103}, {"time": 71660, "pitch": 57, "duration": 240, "velocity": 97}, {"time": 71900, "pitch": 60, "duration": 19, "velocity": 97}, {"time": 72239, "pitch": 55, "duration": 139, "velocity": 103}, {"time": 72378, "pitch": 57, "duration": 240, "velocity": 97}, {"time": 72618, "pitch": 60, "duration": 20, "velocity": 97}, {"time": 72957, "pitch": 60, "duration": 122, "velocity": 103}, {"time": 73099, "pitch": 60, "duration": 20, "velocity": 97}, {"time": 73200, "pitch": 57, "duration": 122, "velocity": 103}, {"time": 73342, "pitch": 55, "duration": 21, "velocity": 97}, {"time": 73444, "pitch": 55, "duration": 139, "velocity": 103}, {"time": 73583, "pitch": 57, "duration": 240, "velocity": 97}, {"time": 73823, "pitch": 60, "duration": 20, "velocity": 97}, {"time": 74162, "pitch": 55, "duration": 140, "velocity": 103}, {"time": 74302, "pitch": 57, "duration": 239, "velocity": 97}, {"time": 74541, "pitch": 60, "duration": 20, "velocity": 97}, {"time": 74880, "pitch": 60, "duration": 120, "velocity": 103}, {"time": 75020, "pitch": 60, "duration": 20, "velocity": 97}, {"time": 75120, "pitch": 57, "duration": 119, "velocity": 103}, {"time": 75259, "pitch": 55, "duration": 20, "velocity": 97}, {"time": 75359, "pitch": 55, "duration": 140, "velocity": 103}, {"time": 75499, "pitch": 57, "duration": 239, "velocity": 97}, {"time": 75738, "pitch": 60, "duration": 20, "velocity": 97}, {"time": 76078, "pitch": 55, "duration": 139, "velocity": 103}, {"time": 76217, "pitch": 57, "duration": 242, "velocity": 97}, {"time": 76459, "pitch": 60, "duration": 20, "velocity": 97}, {"time": 76804, "pitch": 60, "duration": 119, "velocity": 103}, {"time": 76943, "pitch": 60, "duration": 20, "velocity": 97}, {"time": 77043, "pitch": 57, "duration": 120, "velocity": 103}, {"time": 77183, "pitch": 55, "duration": 20, "velocity": 97}, {"time": 77282, "pitch": 55, "duration": 140, "velocity": 103}, {"time": 77422, "pitch": 57, "duration": 240, "velocity": 97}, {"time": 77662, "pitch": 60, "duration": 20, "velocity": 97}, {"time": 78001, "pitch": 55, "duration": 139, "velocity": 103}, {"time": 78140, "pitch": 57, "duration": 240, "velocity": 97}, {"time": 78380, "pitch": 60, "duration": 20, "velocity": 97}, {"time": 78719, "pitch": 60, "duration": 120, "velocity": 103}, {"time": 78859, "pitch": 60, "duration": 20, "velocity": 97}, {"time": 78959, "pitch": 57, "duration": 119, "velocity": 103}, {"time": 79098, "pitch": 55, "duration": 20, "velocity": 97}, {"time": 79198, "pitch": 55, "duration": 140, "velocity": 103}, {"time": 79338, "pitch": 57, "duration": 239, "velocity": 97}, {"time": 79577, "pitch": 60, "duration": 20, "velocity": 97}, {"time": 79920, "pitch": 55, "duration": 142, "velocity": 103}, {"time": 80062, "pitch": 57, "duration": 241, "velocity": 97}, {"time": 80303, "pitch": 60, "duration": 20, "velocity": 97}, {"time": 80642, "pitch": 60, "duration": 120, "velocity": 103}, {"time": 80782, "pitch": 60, "duration": 20, "velocity": 97}, {"time": 80882, "pitch": 57, "duration": 120, "velocity": 103}, {"time": 81021, "pitch": 55, "duration": 20, "velocity": 97}, {"time": 81121, "pitch": 55, "duration": 140, "velocity": 103}, {"time": 81261, "pitch": 57, "duration": 239, "velocity": 97}, {"time": 81500, "pitch": 60, "duration": 20, "velocity": 97}, {"time": 81840, "pitch": 55, "duration": 139, "velocity": 103}, {"time": 81979, "pitch": 57, "duration": 240, "velocity": 97}, {"time": 82219, "pitch": 60, "duration": 20, "velocity": 97}, {"time": 82558, "pitch": 60, "duration": 120, "velocity": 103}, {"time": 82698, "pitch": 60, "duration": 20, "velocity": 97}, {"time": 82797, "pitch": 57, "duration": 120, "velocity": 103}, {"time": 82937, "pitch": 55, "duration": 20, "velocity": 97}, {"time": 83037, "pitch": 55, "duration": 142, "velocity": 103}, {"time": 83179, "pitch": 57, "duration": 243, "velocity": 97}, {"time": 83422, "pitch": 60, "duration": 20, "velocity": 97}, {"time": 83763, "pitch": 55, "duration": 140, "velocity": 103}, {"time": 83903, "pitch": 57, "duration": 239, "velocity": 97}, {"time": 84142, "pitch": 60, "duration": 20, "velocity": 97}, {"time": 84481, "pitch": 60, "duration": 120, "velocity": 103}, {"time": 84621, "pitch": 60, "duration": 20, "velocity": 97}, {"time": 84721, "pitch": 57, "duration": 119, "velocity": 103}, {"time": 84860, "pitch": 55, "duration": 20, "velocity": 97}], "annotations": [{"time": 241, "annotation": {"number": 7, "value": 68}, "group": "control_change"}, {"time": 252, "annotation": {"number": 11, "value": 127}, "group": "control_change"}, {"time": 264, "annotation": {"number": 10, "value": 125}, "group": "control_change"}, {"time": 275, "annotation": {"number": 91, "value": 51}, "group": "control_change"}, {"time": 287, "annotation": {"number": 93, "value": 0}, "group": "control_change"}, {"time": 310, "annotation": {"number": 101, "value": 0}, "group": "control_change"}, {"time": 321, "annotation": {"number": 100, "value": 0}, "group": "control_change"}, {"time": 333, "annotation": {"number": 6, "value": 12}, "group": "control_change"}, {"time": 402, "annotation": {"number": 101, "value": 127}, "group": "control_change"}, {"time": 413, "annotation": {"number": 100, "value": 127}, "group": "control_change"}]}, {"program": 0, "is_drum": false, "name": "PAD / GUITAR(R)", "annotations": [{"time": 207, "annotation": {"number": 0, "value": 0}, "group": "control_change"}, {"time": 218, "annotation": {"number": 32, "value": 2}, "group": "control_change"}]}, {"program": 89, "is_drum": false, "name": "PAD / GUITAR(R)", "notes": [{"time": 483, "pitch": 48, "duration": 1916, "velocity": 90}, {"time": 483, "pitch": 62, "duration": 958, "velocity": 90}, {"time": 483, "pitch": 64, "duration": 1916, "velocity": 90}, {"time": 483, "pitch": 67, "duration": 1916, "velocity": 90}, {"time": 1441, "pitch": 60, "duration": 958, "velocity": 90}, {"time": 2399, "pitch": 45, "duration": 1923, "velocity": 90}, {"time": 2399, "pitch": 59, "duration": 958, "velocity": 90}, {"time": 2399, "pitch": 60, "duration": 1923, "velocity": 90}, {"time": 2399, "pitch": 64, "duration": 1923, "velocity": 90}, {"time": 3357, "pitch": 57, "duration": 965, "velocity": 90}, {"time": 4322, "pitch": 41, "duration": 958, "velocity": 90}, {"time": 4322, "pitch": 57, "duration": 958, "velocity": 90}, {"time": 4322, "pitch": 60, "duration": 958, "velocity": 90}, {"time": 4322, "pitch": 65, "duration": 958, "velocity": 90}, {"time": 5280, "pitch": 50, "duration": 958, "velocity": 90}, {"time": 5280, "pitch": 57, "duration": 958, "velocity": 90}, {"time": 5280, "pitch": 60, "duration": 958, "velocity": 90}, {"time": 5280, "pitch": 65, "duration": 958, "velocity": 90}, {"time": 6238, "pitch": 43, "duration": 1923, "velocity": 90}, {"time": 6238, "pitch": 57, "duration": 965, "velocity": 90}, {"time": 6238, "pitch": 60, "duration": 965, "velocity": 90}, {"time": 6238, "pitch": 65, "duration": 965, "velocity": 90}, {"time": 7203, "pitch": 59, "duration": 958, "velocity": 90}, {"time": 7203, "pitch": 62, "duration": 958, "velocity": 90}, {"time": 7203, "pitch": 67, "duration": 958, "velocity": 90}, {"time": 8161, "pitch": 48, "duration": 1915, "velocity": 90}, {"time": 8161, "pitch": 62, "duration": 958, "velocity": 90}, {"time": 8161, "pitch": 64, "duration": 1915, "velocity": 90}, {"time": 8161, "pitch": 67, "duration": 1915, "velocity": 90}, {"time": 9119, "pitch": 60, "duration": 957, "velocity": 90}, {"time": 10076, "pitch": 45, "duration": 1924, "velocity": 90}, {"time": 10076, "pitch": 59, "duration": 966, "velocity": 90}, {"time": 10076, "pitch": 60, "duration": 1924, "velocity": 90}, {"time": 10076, "pitch": 64, "duration": 1924, "velocity": 90}, {"time": 11042, "pitch": 57, "duration": 958, "velocity": 90}, {"time": 12000, "pitch": 41, "duration": 957, "velocity": 90}, {"time": 12000, "pitch": 57, "duration": 957, "velocity": 90}, {"time": 12000, "pitch": 60, "duration": 957, "velocity": 90}, {"time": 12000, "pitch": 65, "duration": 957, "velocity": 90}, {"time": 12957, "pitch": 50, "duration": 966, "velocity": 90}, {"time": 12957, "pitch": 57, "duration": 966, "velocity": 90}, {"time": 12957, "pitch": 60, "duration": 966, "velocity": 90}, {"time": 12957, "pitch": 65, "duration": 966, "velocity": 90}, {"time": 13923, "pitch": 43, "duration": 708, "velocity": 90}, {"time": 13923, "pitch": 60, "duration": 708, "velocity": 90}, {"time": 13923, "pitch": 62, "duration": 708, "velocity": 90}, {"time": 13923, "pitch": 67, "duration": 708, "velocity": 90}, {"time": 14881, "pitch": 43, "duration": 99, "velocity": 90}, {"time": 14881, "pitch": 59, "duration": 99, "velocity": 90}, {"time": 14881, "pitch": 62, "duration": 99, "velocity": 90}, {"time": 14881, "pitch": 67, "duration": 99, "velocity": 90}, {"time": 15838, "pitch": 48, "duration": 1924, "velocity": 90}, {"time": 15838, "pitch": 62, "duration": 958, "velocity": 90}, {"time": 15838, "pitch": 64, "duration": 1924, "velocity": 90}, {"time": 15838, "pitch": 67, "duration": 1924, "velocity": 90}, {"time": 16796, "pitch": 60, "duration": 966, "velocity": 90}, {"time": 17762, "pitch": 45, "duration": 1915, "velocity": 90}, {"time": 17762, "pitch": 59, "duration": 957, "velocity": 90}, {"time": 17762, "pitch": 60, "duration": 1915, "velocity": 90}, {"time": 17762, "pitch": 64, "duration": 1915, "velocity": 90}, {"time": 18719, "pitch": 57, "duration": 958, "velocity": 90}, {"time": 19677, "pitch": 41, "duration": 966, "velocity": 90}, {"time": 19677, "pitch": 57, "duration": 966, "velocity": 90}, {"time": 19677, "pitch": 60, "duration": 966, "velocity": 90}, {"time": 19677, "pitch": 65, "duration": 966, "velocity": 90}, {"time": 20643, "pitch": 50, "duration": 958, "velocity": 90}, {"time": 20643, "pitch": 57, "duration": 958, "velocity": 90}, {"time": 20643, "pitch": 60, "duration": 958, "velocity": 90}, {"time": 20643, "pitch": 65, "duration": 958, "velocity": 90}, {"time": 21601, "pitch": 43, "duration": 1923, "velocity": 90}, {"time": 21601, "pitch": 57, "duration": 957, "velocity": 90}, {"time": 21601, "pitch": 60, "duration": 957, "velocity": 90}, {"time": 21601, "pitch": 65, "duration": 957, "velocity": 90}, {"time": 22558, "pitch": 59, "duration": 966, "velocity": 90}, {"time": 22558, "pitch": 62, "duration": 966, "velocity": 90}, {"time": 22558, "pitch": 67, "duration": 966, "velocity": 90}, {"time": 23524, "pitch": 48, "duration": 1915, "velocity": 90}, {"time": 23524, "pitch": 62, "duration": 958, "velocity": 90}, {"time": 23524, "pitch": 64, "duration": 1915, "velocity": 90}, {"time": 23524, "pitch": 67, "duration": 1915, "velocity": 90}, {"time": 24482, "pitch": 60, "duration": 957, "velocity": 90}, {"time": 25439, "pitch": 45, "duration": 1924, "velocity": 90}, {"time": 25439, "pitch": 59, "duration": 958, "velocity": 90}, {"time": 25439, "pitch": 60, "duration": 1924, "velocity": 90}, {"time": 25439, "pitch": 64, "duration": 1924, "velocity": 90}, {"time": 26397, "pitch": 57, "duration": 966, "velocity": 90}, {"time": 27363, "pitch": 41, "duration": 957, "velocity": 90}, {"time": 27363, "pitch": 57, "duration": 957, "velocity": 90}, {"time": 27363, "pitch": 60, "duration": 957, "velocity": 90}, {"time": 27363, "pitch": 65, "duration": 957, "velocity": 90}, {"time": 28320, "pitch": 43, "duration": 958, "velocity": 90}, {"time": 28320, "pitch": 59, "duration": 958, "velocity": 90}, {"time": 28320, "pitch": 62, "duration": 958, "velocity": 90}, {"time": 28320, "pitch": 67, "duration": 958, "velocity": 90}, {"time": 29278, "pitch": 48, "duration": 1924, "velocity": 90}, {"time": 29278, "pitch": 55, "duration": 1924, "velocity": 90}, {"time": 29278, "pitch": 60, "duration": 1924, "velocity": 90}, {"time": 29278, "pitch": 64, "duration": 1924, "velocity": 90}, {"time": 46557, "pitch": 48, "duration": 1923, "velocity": 90}, {"time": 46557, "pitch": 62, "duration": 965, "velocity": 90}, {"time": 46557, "pitch": 64, "duration": 1923, "velocity": 90}, {"time": 46557, "pitch": 67, "duration": 1923, "velocity": 90}, {"time": 47522, "pitch": 60, "duration": 958, "velocity": 90}, {"time": 48480, "pitch": 52, "duration": 1923, "velocity": 90}, {"time": 48480, "pitch": 59, "duration": 1923, "velocity": 90}, {"time": 48480, "pitch": 62, "duration": 958, "velocity": 90}, {"time": 48480, "pitch": 67, "duration": 1923, "velocity": 90}, {"time": 49438, "pitch": 64, "duration": 965, "velocity": 90}, {"time": 50403, "pitch": 45, "duration": 1916, "velocity": 90}, {"time": 50403, "pitch": 57, "duration": 1916, "velocity": 90}, {"time": 50403, "pitch": 60, "duration": 1916, "velocity": 90}, {"time": 50403, "pitch": 64, "duration": 1916, "velocity": 90}, {"time": 52319, "pitch": 50, "duration": 957, "velocity": 90}, {"time": 52319, "pitch": 57, "duration": 957, "velocity": 90}, {"time": 52319, "pitch": 60, "duration": 957, "velocity": 90}, {"time": 52319, "pitch": 65, "duration": 957, "velocity": 90}, {"time": 53276, "pitch": 55, "duration": 966, "velocity": 90}, {"time": 53276, "pitch": 60, "duration": 487, "velocity": 90}, {"time": 53276, "pitch": 65, "duration": 487, "velocity": 90}, {"time": 53276, "pitch": 69, "duration": 487, "velocity": 90}, {"time": 53763, "pitch": 59, "duration": 479, "velocity": 90}, {"time": 53763, "pitch": 62, "duration": 479, "velocity": 90}, {"time": 53763, "pitch": 67, "duration": 479, "velocity": 90}, {"time": 54242, "pitch": 48, "duration": 1915, "velocity": 90}, {"time": 54242, "pitch": 62, "duration": 958, "velocity": 90}, {"time": 54242, "pitch": 64, "duration": 1915, "velocity": 90}, {"time": 54242, "pitch": 67, "duration": 1915, "velocity": 90}, {"time": 55200, "pitch": 60, "duration": 957, "velocity": 90}, {"time": 56157, "pitch": 52, "duration": 723, "velocity": 90}, {"time": 56157, "pitch": 59, "duration": 723, "velocity": 90}, {"time": 56157, "pitch": 64, "duration": 723, "velocity": 90}, {"time": 56157, "pitch": 67, "duration": 723, "velocity": 90}, {"time": 56880, "pitch": 57, "duration": 1201, "velocity": 90}, {"time": 56880, "pitch": 60, "duration": 1201, "velocity": 90}, {"time": 56880, "pitch": 64, "duration": 1201, "velocity": 90}, {"time": 56880, "pitch": 69, "duration": 1201, "velocity": 90}, {"time": 58081, "pitch": 50, "duration": 1915, "velocity": 90}, {"time": 58081, "pitch": 57, "duration": 1915, "velocity": 90}, {"time": 58081, "pitch": 60, "duration": 1915, "velocity": 90}, {"time": 58081, "pitch": 65, "duration": 1915, "velocity": 90}, {"time": 59996, "pitch": 53, "duration": 966, "velocity": 90}, {"time": 59996, "pitch": 56, "duration": 1445, "velocity": 90}, {"time": 59996, "pitch": 60, "duration": 1445, "velocity": 90}, {"time": 59996, "pitch": 65, "duration": 1445, "velocity": 90}, {"time": 60962, "pitch": 55, "duration": 958, "velocity": 90}, {"time": 61441, "pitch": 59, "duration": 479, "velocity": 90}, {"time": 61441, "pitch": 62, "duration": 479, "velocity": 90}, {"time": 61441, "pitch": 67, "duration": 479, "velocity": 90}, {"time": 61920, "pitch": 48, "duration": 1923, "velocity": 90}, {"time": 61920, "pitch": 62, "duration": 957, "velocity": 90}, {"time": 61920, "pitch": 64, "duration": 1923, "velocity": 90}, {"time": 61920, "pitch": 67, "duration": 1923, "velocity": 90}, {"time": 62877, "pitch": 60, "duration": 966, "velocity": 90}, {"time": 63843, "pitch": 45, "duration": 1915, "velocity": 90}, {"time": 63843, "pitch": 59, "duration": 958, "velocity": 90}, {"time": 63843, "pitch": 60, "duration": 1915, "velocity": 90}, {"time": 63843, "pitch": 64, "duration": 1915, "velocity": 90}, {"time": 64801, "pitch": 57, "duration": 957, "velocity": 90}, {"time": 65758, "pitch": 41, "duration": 966, "velocity": 90}, {"time": 65758, "pitch": 57, "duration": 966, "velocity": 90}, {"time": 65758, "pitch": 60, "duration": 966, "velocity": 90}, {"time": 65758, "pitch": 65, "duration": 966, "velocity": 90}, {"time": 66724, "pitch": 50, "duration": 958, "velocity": 90}, {"time": 66724, "pitch": 57, "duration": 958, "velocity": 90}, {"time": 66724, "pitch": 60, "duration": 958, "velocity": 90}, {"time": 66724, "pitch": 65, "duration": 958, "velocity": 90}, {"time": 67682, "pitch": 43, "duration": 1915, "velocity": 90}, {"time": 67682, "pitch": 57, "duration": 957, "velocity": 90}, {"time": 67682, "pitch": 60, "duration": 957, "velocity": 90}, {"time": 67682, "pitch": 65, "duration": 957, "velocity": 90}, {"time": 68639, "pitch": 59, "duration": 958, "velocity": 90}, {"time": 68639, "pitch": 62, "duration": 958, "velocity": 90}, {"time": 68639, "pitch": 67, "duration": 958, "velocity": 90}, {"time": 69597, "pitch": 48, "duration": 1923, "velocity": 90}, {"time": 69597, "pitch": 62, "duration": 966, "velocity": 90}, {"time": 69597, "pitch": 64, "duration": 1923, "velocity": 90}, {"time": 69597, "pitch": 67, "duration": 1923, "velocity": 90}, {"time": 70563, "pitch": 60, "duration": 957, "velocity": 90}, {"time": 71520, "pitch": 45, "duration": 1924, "velocity": 90}, {"time": 71520, "pitch": 59, "duration": 958, "velocity": 90}, {"time": 71520, "pitch": 60, "duration": 1924, "velocity": 90}, {"time": 71520, "pitch": 64, "duration": 1924, "velocity": 90}, {"time": 72478, "pitch": 57, "duration": 966, "velocity": 90}, {"time": 73444, "pitch": 41, "duration": 957, "velocity": 90}, {"time": 73444, "pitch": 57, "duration": 957, "velocity": 90}, {"time": 73444, "pitch": 60, "duration": 957, "velocity": 90}, {"time": 73444, "pitch": 65, "duration": 957, "velocity": 90}, {"time": 74401, "pitch": 50, "duration": 958, "velocity": 90}, {"time": 74401, "pitch": 57, "duration": 958, "velocity": 90}, {"time": 74401, "pitch": 60, "duration": 958, "velocity": 90}, {"time": 74401, "pitch": 65, "duration": 958, "velocity": 90}, {"time": 75359, "pitch": 43, "duration": 1923, "velocity": 90}, {"time": 75359, "pitch": 57, "duration": 958, "velocity": 90}, {"time": 75359, "pitch": 60, "duration": 958, "velocity": 90}, {"time": 75359, "pitch": 65, "duration": 958, "velocity": 90}, {"time": 76317, "pitch": 59, "duration": 965, "velocity": 90}, {"time": 76317, "pitch": 62, "duration": 965, "velocity": 90}, {"time": 76317, "pitch": 67, "duration": 965, "velocity": 90}, {"time": 77282, "pitch": 48, "duration": 1916, "velocity": 90}, {"time": 77282, "pitch": 62, "duration": 958, "velocity": 90}, {"time": 77282, "pitch": 64, "duration": 1916, "velocity": 90}, {"time": 77282, "pitch": 67, "duration": 1916, "velocity": 90}, {"time": 78240, "pitch": 60, "duration": 958, "velocity": 90}, {"time": 79198, "pitch": 45, "duration": 1923, "velocity": 90}, {"time": 79198, "pitch": 59, "duration": 965, "velocity": 90}, {"time": 79198, "pitch": 60, "duration": 1923, "velocity": 90}, {"time": 79198, "pitch": 64, "duration": 1923, "velocity": 90}, {"time": 80163, "pitch": 57, "duration": 958, "velocity": 90}, {"time": 81121, "pitch": 41, "duration": 958, "velocity": 90}, {"time": 81121, "pitch": 57, "duration": 958, "velocity": 90}, {"time": 81121, "pitch": 60, "duration": 958, "velocity": 90}, {"time": 81121, "pitch": 65, "duration": 958, "velocity": 90}, {"time": 82079, "pitch": 43, "duration": 958, "velocity": 90}, {"time": 82079, "pitch": 59, "duration": 958, "velocity": 90}, {"time": 82079, "pitch": 62, "duration": 958, "velocity": 90}, {"time": 82079, "pitch": 67, "duration": 958, "velocity": 90}, {"time": 83037, "pitch": 48, "duration": 1924, "velocity": 90}, {"time": 83037, "pitch": 55, "duration": 1924, "velocity": 90}, {"time": 83037, "pitch": 60, "duration": 1924, "velocity": 90}, {"time": 83037, "pitch": 64, "duration": 1924, "velocity": 90}, {"time": 100323, "pitch": 48, "duration": 1916, "velocity": 90}, {"time": 100323, "pitch": 62, "duration": 958, "velocity": 90}, {"time": 100323, "pitch": 64, "duration": 1916, "velocity": 90}, {"time": 100323, "pitch": 67, "duration": 1916, "velocity": 90}, {"time": 101281, "pitch": 60, "duration": 958, "velocity": 90}, {"time": 102239, "pitch": 52, "duration": 1923, "velocity": 90}, {"time": 102239, "pitch": 59, "duration": 1923, "velocity": 90}, {"time": 102239, "pitch": 62, "duration": 957, "velocity": 90}, {"time": 102239, "pitch": 67, "duration": 1923, "velocity": 90}, {"time": 103196, "pitch": 64, "duration": 966, "velocity": 90}, {"time": 104162, "pitch": 45, "duration": 1915, "velocity": 90}, {"time": 104162, "pitch": 57, "duration": 1915, "velocity": 90}, {"time": 104162, "pitch": 60, "duration": 1915, "velocity": 90}, {"time": 104162, "pitch": 64, "duration": 1915, "velocity": 90}, {"time": 106077, "pitch": 50, "duration": 966, "velocity": 90}, {"time": 106077, "pitch": 57, "duration": 966, "velocity": 90}, {"time": 106077, "pitch": 60, "duration": 966, "velocity": 90}, {"time": 106077, "pitch": 65, "duration": 966, "velocity": 90}, {"time": 107043, "pitch": 55, "duration": 958, "velocity": 90}, {"time": 107043, "pitch": 60, "duration": 479, "velocity": 90}, {"time": 107043, "pitch": 65, "duration": 479, "velocity": 90}, {"time": 107043, "pitch": 69, "duration": 479, "velocity": 90}, {"time": 107522, "pitch": 59, "duration": 479, "velocity": 90}, {"time": 107522, "pitch": 62, "duration": 479, "velocity": 90}, {"time": 107522, "pitch": 67, "duration": 479, "velocity": 90}, {"time": 108001, "pitch": 48, "duration": 1923, "velocity": 90}, {"time": 108001, "pitch": 62, "duration": 957, "velocity": 90}, {"time": 108001, "pitch": 64, "duration": 1923, "velocity": 90}, {"time": 108001, "pitch": 67, "duration": 1923, "velocity": 90}, {"time": 108958, "pitch": 60, "duration": 966, "velocity": 90}, {"time": 109924, "pitch": 52, "duration": 718, "velocity": 90}, {"time": 109924, "pitch": 59, "duration": 718, "velocity": 90}, {"time": 109924, "pitch": 64, "duration": 718, "velocity": 90}, {"time": 109924, "pitch": 67, "duration": 718, "velocity": 90}, {"time": 110642, "pitch": 57, "duration": 1197, "velocity": 90}, {"time": 110642, "pitch": 60, "duration": 1197, "velocity": 90}, {"time": 110642, "pitch": 64, "duration": 1197, "velocity": 90}, {"time": 110642, "pitch": 69, "duration": 1197, "velocity": 90}, {"time": 111839, "pitch": 50, "duration": 1924, "velocity": 90}, {"time": 111839, "pitch": 57, "duration": 1924, "velocity": 90}, {"time": 111839, "pitch": 60, "duration": 1924, "velocity": 90}, {"time": 111839, "pitch": 65, "duration": 1924, "velocity": 90}, {"time": 113763, "pitch": 53, "duration": 957, "velocity": 90}, {"time": 113763, "pitch": 56, "duration": 1436, "velocity": 90}, {"time": 113763, "pitch": 60, "duration": 1436, "velocity": 90}, {"time": 113763, "pitch": 65, "duration": 1436, "velocity": 90}, {"time": 114720, "pitch": 55, "duration": 958, "velocity": 90}, {"time": 115199, "pitch": 59, "duration": 479, "velocity": 90}, {"time": 115199, "pitch": 62, "duration": 479, "velocity": 90}, {"time": 115199, "pitch": 67, "duration": 479, "velocity": 90}, {"time": 115678, "pitch": 44, "duration": 1923, "velocity": 90}, {"time": 115678, "pitch": 56, "duration": 1923, "velocity": 90}, {"time": 115678, "pitch": 60, "duration": 1923, "velocity": 90}, {"time": 115678, "pitch": 63, "duration": 1923, "velocity": 90}, {"time": 117601, "pitch": 46, "duration": 1916, "velocity": 90}, {"time": 117601, "pitch": 58, "duration": 1916, "velocity": 90}, {"time": 117601, "pitch": 62, "duration": 1916, "velocity": 90}, {"time": 117601, "pitch": 65, "duration": 1916, "velocity": 90}, {"time": 119517, "pitch": 48, "duration": 1923, "velocity": 90}, {"time": 119517, "pitch": 60, "duration": 1923, "velocity": 90}, {"time": 119517, "pitch": 64, "duration": 1923, "velocity": 90}, {"time": 119517, "pitch": 67, "duration": 1923, "velocity": 90}, {"time": 121440, "pitch": 43, "duration": 958, "velocity": 90}, {"time": 121440, "pitch": 58, "duration": 479, "velocity": 90}, {"time": 121440, "pitch": 62, "duration": 479, "velocity": 90}, {"time": 121440, "pitch": 69, "duration": 479, "velocity": 90}, {"time": 121919, "pitch": 58, "duration": 479, "velocity": 90}, {"time": 121919, "pitch": 62, "duration": 479, "velocity": 90}, {"time": 121919, "pitch": 67, "duration": 479, "velocity": 90}, {"time": 122398, "pitch": 48, "duration": 379, "velocity": 90}, {"time": 122398, "pitch": 58, "duration": 379, "velocity": 90}, {"time": 122398, "pitch": 62, "duration": 379, "velocity": 90}, {"time": 122398, "pitch": 65, "duration": 379, "velocity": 90}, {"time": 122777, "pitch": 48, "duration": 587, "velocity": 90}, {"time": 122777, "pitch": 58, "duration": 587, "velocity": 90}, {"time": 122777, "pitch": 62, "duration": 587, "velocity": 90}, {"time": 122777, "pitch": 64, "duration": 587, "velocity": 90}, {"time": 123364, "pitch": 41, "duration": 718, "velocity": 90}, {"time": 123364, "pitch": 57, "duration": 718, "velocity": 90}, {"time": 123364, "pitch": 60, "duration": 718, "velocity": 90}, {"time": 123364, "pitch": 64, "duration": 718, "velocity": 90}, {"time": 124082, "pitch": 41, "duration": 1197, "velocity": 90}, {"time": 124082, "pitch": 53, "duration": 1197, "velocity": 90}, {"time": 124082, "pitch": 57, "duration": 1197, "velocity": 90}, {"time": 124082, "pitch": 60, "duration": 1197, "velocity": 90}, {"time": 125279, "pitch": 41, "duration": 379, "velocity": 90}, {"time": 125279, "pitch": 53, "duration": 379, "velocity": 90}, {"time": 125279, "pitch": 56, "duration": 379, "velocity": 90}, {"time": 125279, "pitch": 63, "duration": 379, "velocity": 90}, {"time": 125658, "pitch": 41, "duration": 339, "velocity": 90}, {"time": 125658, "pitch": 53, "duration": 339, "velocity": 90}, {"time": 125658, "pitch": 56, "duration": 339, "velocity": 90}, {"time": 125658, "pitch": 62, "duration": 339, "velocity": 90}, {"time": 125997, "pitch": 41, "duration": 1205, "velocity": 90}, {"time": 125997, "pitch": 53, "duration": 1205, "velocity": 90}, {"time": 125997, "pitch": 56, "duration": 1205, "velocity": 90}, {"time": 125997, "pitch": 60, "duration": 1205, "velocity": 90}, {"time": 127202, "pitch": 40, "duration": 719, "velocity": 90}, {"time": 127202, "pitch": 59, "duration": 719, "velocity": 90}, {"time": 127202, "pitch": 62, "duration": 719, "velocity": 90}, {"time": 127202, "pitch": 67, "duration": 719, "velocity": 90}, {"time": 127921, "pitch": 45, "duration": 1177, "velocity": 90}, {"time": 127921, "pitch": 61, "duration": 1177, "velocity": 90}, {"time": 127921, "pitch": 67, "duration": 1177, "velocity": 90}, {"time": 127921, "pitch": 72, "duration": 1177, "velocity": 90}, {"time": 129118, "pitch": 50, "duration": 1923, "velocity": 90}, {"time": 129118, "pitch": 60, "duration": 1923, "velocity": 90}, {"time": 129118, "pitch": 65, "duration": 1923, "velocity": 90}, {"time": 129118, "pitch": 69, "duration": 1923, "velocity": 90}, {"time": 131041, "pitch": 53, "duration": 1916, "velocity": 90}, {"time": 131041, "pitch": 60, "duration": 1916, "velocity": 90}, {"time": 131041, "pitch": 65, "duration": 1916, "velocity": 90}, {"time": 131041, "pitch": 68, "duration": 1916, "velocity": 90}, {"time": 132957, "pitch": 55, "duration": 656, "velocity": 90}, {"time": 132957, "pitch": 60, "duration": 666, "velocity": 90}, {"time": 132957, "pitch": 62, "duration": 656, "velocity": 90}, {"time": 132957, "pitch": 67, "duration": 626, "velocity": 90}, {"time": 133683, "pitch": 55, "duration": 608, "velocity": 90}, {"time": 133683, "pitch": 60, "duration": 638, "velocity": 90}, {"time": 133683, "pitch": 62, "duration": 618, "velocity": 90}, {"time": 133683, "pitch": 67, "duration": 608, "velocity": 90}, {"time": 134401, "pitch": 55, "duration": 479, "velocity": 90}, {"time": 134401, "pitch": 60, "duration": 479, "velocity": 90}, {"time": 134401, "pitch": 62, "duration": 479, "velocity": 90}, {"time": 134401, "pitch": 67, "duration": 479, "velocity": 90}, {"time": 134880, "pitch": 55, "duration": 120, "velocity": 90}, {"time": 134880, "pitch": 59, "duration": 110, "velocity": 90}, {"time": 134880, "pitch": 62, "duration": 120, "velocity": 90}, {"time": 134880, "pitch": 67, "duration": 120, "velocity": 90}, {"time": 135838, "pitch": 55, "duration": 965, "velocity": 90}, {"time": 135838, "pitch": 59, "duration": 965, "velocity": 90}, {"time": 135838, "pitch": 62, "duration": 965, "velocity": 90}, {"time": 135838, "pitch": 67, "duration": 965, "velocity": 90}, {"time": 136803, "pitch": 48, "duration": 1916, "velocity": 90}, {"time": 136803, "pitch": 62, "duration": 958, "velocity": 90}, {"time": 136803, "pitch": 64, "duration": 1916, "velocity": 90}, {"time": 136803, "pitch": 67, "duration": 1916, "velocity": 90}, {"time": 137761, "pitch": 60, "duration": 958, "velocity": 90}, {"time": 138719, "pitch": 52, "duration": 1923, "velocity": 90}, {"time": 138719, "pitch": 59, "duration": 1923, "velocity": 90}, {"time": 138719, "pitch": 62, "duration": 957, "velocity": 90}, {"time": 138719, "pitch": 67, "duration": 1923, "velocity": 90}, {"time": 139676, "pitch": 64, "duration": 966, "velocity": 90}, {"time": 140642, "pitch": 45, "duration": 1916, "velocity": 90}, {"time": 140642, "pitch": 57, "duration": 1916, "velocity": 90}, {"time": 140642, "pitch": 60, "duration": 1916, "velocity": 90}, {"time": 140642, "pitch": 64, "duration": 1916, "velocity": 90}, {"time": 142558, "pitch": 50, "duration": 965, "velocity": 90}, {"time": 142558, "pitch": 57, "duration": 965, "velocity": 90}, {"time": 142558, "pitch": 60, "duration": 965, "velocity": 90}, {"time": 142558, "pitch": 65, "duration": 965, "velocity": 90}, {"time": 143523, "pitch": 55, "duration": 958, "velocity": 90}, {"time": 143523, "pitch": 60, "duration": 479, "velocity": 90}, {"time": 143523, "pitch": 65, "duration": 479, "velocity": 90}, {"time": 143523, "pitch": 69, "duration": 479, "velocity": 90}, {"time": 144002, "pitch": 59, "duration": 479, "velocity": 90}, {"time": 144002, "pitch": 62, "duration": 479, "velocity": 90}, {"time": 144002, "pitch": 67, "duration": 479, "velocity": 90}, {"time": 144481, "pitch": 48, "duration": 1915, "velocity": 90}, {"time": 144481, "pitch": 62, "duration": 958, "velocity": 90}, {"time": 144481, "pitch": 64, "duration": 1915, "velocity": 90}, {"time": 144481, "pitch": 67, "duration": 1915, "velocity": 90}, {"time": 145439, "pitch": 60, "duration": 957, "velocity": 90}, {"time": 146396, "pitch": 52, "duration": 1924, "velocity": 90}, {"time": 146396, "pitch": 59, "duration": 1924, "velocity": 90}, {"time": 146396, "pitch": 62, "duration": 966, "velocity": 90}, {"time": 146396, "pitch": 67, "duration": 1924, "velocity": 90}, {"time": 147362, "pitch": 64, "duration": 958, "velocity": 90}, {"time": 148320, "pitch": 45, "duration": 1923, "velocity": 90}, {"time": 148320, "pitch": 57, "duration": 1923, "velocity": 90}, {"time": 148320, "pitch": 60, "duration": 1923, "velocity": 90}, {"time": 148320, "pitch": 64, "duration": 1923, "velocity": 90}, {"time": 150243, "pitch": 50, "duration": 958, "velocity": 90}, {"time": 150243, "pitch": 57, "duration": 958, "velocity": 90}, {"time": 150243, "pitch": 60, "duration": 958, "velocity": 90}, {"time": 150243, "pitch": 65, "duration": 958, "velocity": 90}, {"time": 151201, "pitch": 55, "duration": 957, "velocity": 90}, {"time": 151201, "pitch": 60, "duration": 479, "velocity": 90}, {"time": 151201, "pitch": 65, "duration": 479, "velocity": 90}, {"time": 151201, "pitch": 69, "duration": 479, "velocity": 90}, {"time": 151680, "pitch": 59, "duration": 478, "velocity": 90}, {"time": 151680, "pitch": 62, "duration": 478, "velocity": 90}, {"time": 151680, "pitch": 67, "duration": 478, "velocity": 90}, {"time": 152158, "pitch": 48, "duration": 1924, "velocity": 90}, {"time": 152158, "pitch": 62, "duration": 958, "velocity": 90}, {"time": 152158, "pitch": 64, "duration": 1924, "velocity": 90}, {"time": 152158, "pitch": 67, "duration": 1924, "velocity": 90}, {"time": 153116, "pitch": 60, "duration": 966, "velocity": 90}, {"time": 154082, "pitch": 52, "duration": 718, "velocity": 90}, {"time": 154082, "pitch": 59, "duration": 718, "velocity": 90}, {"time": 154082, "pitch": 64, "duration": 718, "velocity": 90}, {"time": 154082, "pitch": 67, "duration": 718, "velocity": 90}, {"time": 154800, "pitch": 57, "duration": 1197, "velocity": 90}, {"time": 154800, "pitch": 60, "duration": 1197, "velocity": 90}, {"time": 154800, "pitch": 64, "duration": 1197, "velocity": 90}, {"time": 154800, "pitch": 69, "duration": 1197, "velocity": 90}, {"time": 155997, "pitch": 50, "duration": 1923, "velocity": 90}, {"time": 155997, "pitch": 57, "duration": 1923, "velocity": 90}, {"time": 155997, "pitch": 60, "duration": 1923, "velocity": 90}, {"time": 155997, "pitch": 65, "duration": 1923, "velocity": 90}, {"time": 157920, "pitch": 53, "duration": 958, "velocity": 90}, {"time": 157920, "pitch": 56, "duration": 1437, "velocity": 90}, {"time": 157920, "pitch": 60, "duration": 1437, "velocity": 90}, {"time": 157920, "pitch": 65, "duration": 1437, "velocity": 90}, {"time": 158878, "pitch": 55, "duration": 966, "velocity": 90}, {"time": 159357, "pitch": 59, "duration": 487, "velocity": 90}, {"time": 159357, "pitch": 62, "duration": 487, "velocity": 90}, {"time": 159357, "pitch": 67, "duration": 487, "velocity": 90}, {"time": 159844, "pitch": 48, "duration": 1915, "velocity": 90}, {"time": 159844, "pitch": 62, "duration": 957, "velocity": 90}, {"time": 159844, "pitch": 64, "duration": 1915, "velocity": 90}, {"time": 159844, "pitch": 67, "duration": 1915, "velocity": 90}, {"time": 160801, "pitch": 60, "duration": 958, "velocity": 90}, {"time": 161759, "pitch": 52, "duration": 1924, "velocity": 90}, {"time": 161759, "pitch": 59, "duration": 1924, "velocity": 90}, {"time": 161759, "pitch": 62, "duration": 958, "velocity": 90}, {"time": 161759, "pitch": 67, "duration": 1924, "velocity": 90}, {"time": 162717, "pitch": 64, "duration": 966, "velocity": 90}, {"time": 163683, "pitch": 45, "duration": 1915, "velocity": 90}, {"time": 163683, "pitch": 57, "duration": 1915, "velocity": 90}, {"time": 163683, "pitch": 60, "duration": 1915, "velocity": 90}, {"time": 163683, "pitch": 64, "duration": 1915, "velocity": 90}, {"time": 165598, "pitch": 50, "duration": 966, "velocity": 90}, {"time": 165598, "pitch": 57, "duration": 966, "velocity": 90}, {"time": 165598, "pitch": 60, "duration": 966, "velocity": 90}, {"time": 165598, "pitch": 65, "duration": 966, "velocity": 90}, {"time": 166564, "pitch": 55, "duration": 957, "velocity": 90}, {"time": 166564, "pitch": 60, "duration": 478, "velocity": 90}, {"time": 166564, "pitch": 65, "duration": 478, "velocity": 90}, {"time": 166564, "pitch": 69, "duration": 478, "velocity": 90}, {"time": 167042, "pitch": 59, "duration": 479, "velocity": 90}, {"time": 167042, "pitch": 62, "duration": 479, "velocity": 90}, {"time": 167042, "pitch": 67, "duration": 479, "velocity": 90}, {"time": 167521, "pitch": 48, "duration": 1916, "velocity": 90}, {"time": 167521, "pitch": 62, "duration": 958, "velocity": 90}, {"time": 167521, "pitch": 64, "duration": 1916, "velocity": 90}, {"time": 167521, "pitch": 67, "duration": 1916, "velocity": 90}, {"time": 168479, "pitch": 60, "duration": 958, "velocity": 90}, {"time": 169437, "pitch": 52, "duration": 726, "velocity": 90}, {"time": 169437, "pitch": 59, "duration": 726, "velocity": 90}, {"time": 169437, "pitch": 64, "duration": 726, "velocity": 90}, {"time": 169437, "pitch": 67, "duration": 726, "velocity": 90}, {"time": 170163, "pitch": 57, "duration": 1197, "velocity": 90}, {"time": 170163, "pitch": 60, "duration": 1197, "velocity": 90}, {"time": 170163, "pitch": 64, "duration": 1197, "velocity": 90}, {"time": 170163, "pitch": 69, "duration": 1197, "velocity": 90}, {"time": 171360, "pitch": 50, "duration": 1923, "velocity": 90}, {"time": 171360, "pitch": 57, "duration": 1923, "velocity": 90}, {"time": 171360, "pitch": 60, "duration": 1923, "velocity": 90}, {"time": 171360, "pitch": 65, "duration": 1923, "velocity": 90}, {"time": 173283, "pitch": 53, "duration": 958, "velocity": 90}, {"time": 173283, "pitch": 56, "duration": 1437, "velocity": 90}, {"time": 173283, "pitch": 60, "duration": 1437, "velocity": 90}, {"time": 173283, "pitch": 65, "duration": 1437, "velocity": 90}, {"time": 174241, "pitch": 55, "duration": 958, "velocity": 90}, {"time": 174720, "pitch": 59, "duration": 479, "velocity": 90}, {"time": 174720, "pitch": 62, "duration": 479, "velocity": 90}, {"time": 174720, "pitch": 67, "duration": 479, "velocity": 90}], "annotations": [{"time": 241, "annotation": {"number": 7, "value": 40}, "group": "control_change"}, {"time": 252, "annotation": {"number": 11, "value": 127}, "group": "control_change"}, {"time": 264, "annotation": {"number": 10, "value": 58}, "group": "control_change"}, {"time": 275, "annotation": {"number": 91, "value": 42}, "group": "control_change"}, {"time": 287, "annotation": {"number": 93, "value": 19}, "group": "control_change"}, {"time": 310, "annotation": {"number": 101, "value": 0}, "group": "control_change"}, {"time": 321, "annotation": {"number": 100, "value": 0}, "group": "control_change"}, {"time": 333, "annotation": {"number": 6, "value": 12}, "group": "control_change"}, {"time": 425, "annotation": {"number": 101, "value": 127}, "group": "control_change"}, {"time": 436, "annotation": {"number": 100, "value": 127}, "group": "control_change"}, {"time": 31201, "annotation": {"number": 0, "value": 8}, "group": "control_change"}, {"time": 31211, "annotation": {"number": 32, "value": 2}, "group": "control_change"}, {"time": 46497, "annotation": {"number": 7, "value": 40}, "group": "control_change"}, {"time": 46507, "annotation": {"number": 11, "value": 127}, "group": "control_change"}, {"time": 46517, "annotation": {"number": 10, "value": 58}, "group": "control_change"}, {"time": 46527, "annotation": {"number": 91, "value": 42}, "group": "control_change"}, {"time": 46537, "annotation": {"number": 93, "value": 19}, "group": "control_change"}, {"time": 84960, "annotation": {"number": 0, "value": 8}, "group": "control_change"}, {"time": 84970, "annotation": {"number": 32, "value": 2}, "group": "control_change"}, {"time": 100262, "annotation": {"number": 7, "value": 40}, "group": "control_change"}, {"time": 100272, "annotation": {"number": 11, "value": 127}, "group": "control_change"}, {"time": 100282, "annotation": {"number": 10, "value": 58}, "group": "control_change"}, {"time": 100293, "annotation": {"number": 91, "value": 42}, "group": "control_change"}, {"time": 100303, "annotation": {"number": 93, "value": 19}, "group": "control_change"}]}, {"program": 27, "is_drum": false, "name": "PAD / GUITAR(R)", "notes": [{"time": 31441, "pitch": 57, "duration": 229, "velocity": 98}, {"time": 31680, "pitch": 59, "duration": 220, "velocity": 106}, {"time": 31920, "pitch": 67, "duration": 957, "velocity": 107}, {"time": 33360, "pitch": 60, "duration": 203, "velocity": 95}, {"time": 33604, "pitch": 62, "duration": 239, "velocity": 97}, {"time": 33843, "pitch": 67, "duration": 469, "velocity": 105}, {"time": 34322, "pitch": 64, "duration": 708, "velocity": 100}, {"time": 35280, "pitch": 57, "duration": 229, "velocity": 98}, {"time": 35519, "pitch": 59, "duration": 220, "velocity": 106}, {"time": 35759, "pitch": 67, "duration": 961, "velocity": 107}, {"time": 37203, "pitch": 57, "duration": 219, "velocity": 99}, {"time": 37442, "pitch": 60, "duration": 180, "velocity": 97}, {"time": 37682, "pitch": 64, "duration": 479, "velocity": 106}, {"time": 38161, "pitch": 60, "duration": 239, "velocity": 97}, {"time": 38400, "pitch": 57, "duration": 479, "velocity": 100}, {"time": 39118, "pitch": 57, "duration": 230, "velocity": 98}, {"time": 39358, "pitch": 59, "duration": 219, "velocity": 106}, {"time": 39597, "pitch": 67, "duration": 966, "velocity": 107}, {"time": 41042, "pitch": 57, "duration": 229, "velocity": 98}, {"time": 41281, "pitch": 62, "duration": 220, "velocity": 106}, {"time": 41521, "pitch": 66, "duration": 957, "velocity": 107}, {"time": 42957, "pitch": 57, "duration": 220, "velocity": 99}, {"time": 43197, "pitch": 60, "duration": 182, "velocity": 97}, {"time": 43440, "pitch": 65, "duration": 483, "velocity": 106}, {"time": 43923, "pitch": 60, "duration": 239, "velocity": 97}, {"time": 44162, "pitch": 57, "duration": 479, "velocity": 100}, {"time": 85200, "pitch": 57, "duration": 229, "velocity": 98}, {"time": 85439, "pitch": 59, "duration": 219, "velocity": 106}, {"time": 85678, "pitch": 67, "duration": 962, "velocity": 107}, {"time": 87123, "pitch": 60, "duration": 199, "velocity": 95}, {"time": 87362, "pitch": 62, "duration": 240, "velocity": 97}, {"time": 87602, "pitch": 67, "duration": 469, "velocity": 105}, {"time": 88081, "pitch": 64, "duration": 708, "velocity": 100}, {"time": 89038, "pitch": 57, "duration": 230, "velocity": 98}, {"time": 89278, "pitch": 59, "duration": 219, "velocity": 106}, {"time": 89517, "pitch": 67, "duration": 966, "velocity": 107}, {"time": 90962, "pitch": 57, "duration": 219, "velocity": 99}, {"time": 91201, "pitch": 60, "duration": 180, "velocity": 97}, {"time": 91440, "pitch": 64, "duration": 479, "velocity": 106}, {"time": 91919, "pitch": 60, "duration": 240, "velocity": 97}, {"time": 92159, "pitch": 57, "duration": 479, "velocity": 100}, {"time": 92877, "pitch": 57, "duration": 230, "velocity": 98}, {"time": 93117, "pitch": 59, "duration": 223, "velocity": 106}, {"time": 93360, "pitch": 67, "duration": 961, "velocity": 107}, {"time": 94800, "pitch": 57, "duration": 230, "velocity": 98}, {"time": 95040, "pitch": 62, "duration": 219, "velocity": 106}, {"time": 95279, "pitch": 66, "duration": 958, "velocity": 107}, {"time": 96720, "pitch": 57, "duration": 223, "velocity": 99}, {"time": 96963, "pitch": 60, "duration": 180, "velocity": 97}, {"time": 97203, "pitch": 65, "duration": 478, "velocity": 106}, {"time": 97681, "pitch": 60, "duration": 240, "velocity": 97}, {"time": 97921, "pitch": 57, "duration": 479, "velocity": 100}], "annotations": [{"time": 31231, "annotation": {"number": 7, "value": 70}, "group": "control_change"}, {"time": 31241, "annotation": {"number": 11, "value": 127}, "group": "control_change"}, {"time": 31251, "annotation": {"number": 10, "value": 41}, "group": "control_change"}, {"time": 31261, "annotation": {"number": 91, "value": 110}, "group": "control_change"}, {"time": 31271, "annotation": {"number": 93, "value": 0}, "group": "control_change"}, {"time": 46467, "annotation": {"number": 0, "value": 0}, "group": "control_change"}, {"time": 46477, "annotation": {"number": 32, "value": 2}, "group": "control_change"}, {"time": 84990, "annotation": {"number": 7, "value": 70}, "group": "control_change"}, {"time": 85000, "annotation": {"number": 11, "value": 127}, "group": "control_change"}, {"time": 85010, "annotation": {"number": 10, "value": 41}, "group": "control_change"}, {"time": 85020, "annotation": {"number": 91, "value": 110}, "group": "control_change"}, {"time": 85030, "annotation": {"number": 93, "value": 0}, "group": "control_change"}, {"time": 100232, "annotation": {"number": 0, "value": 0}, "group": "control_change"}, {"time": 100242, "annotation": {"number": 32, "value": 2}, "group": "control_change"}]}, {"program": 0, "is_drum": false, "name": "BRASS(LOW)", "annotations": [{"time": 207, "annotation": {"number": 0, "value": 0}, "group": "control_change"}, {"time": 218, "annotation": {"number": 32, "value": 2}, "group": "control_change"}]}, {"program": 57, "is_drum": false, "name": "BRASS(LOW)", "notes": [{"time": 40563, "pitch": 60, "duration": 169, "velocity": 127}, {"time": 41042, "pitch": 62, "duration": 169, "velocity": 127}, {"time": 41521, "pitch": 64, "duration": 219, "velocity": 127}, {"time": 44641, "pitch": 65, "duration": 120, "velocity": 127}, {"time": 44641, "pitch": 69, "duration": 110, "velocity": 127}, {"time": 44641, "pitch": 72, "duration": 120, "velocity": 127}, {"time": 44782, "pitch": 65, "duration": 60, "velocity": 100}, {"time": 44782, "pitch": 69, "duration": 40, "velocity": 120}, {"time": 44782, "pitch": 72, "duration": 70, "velocity": 114}, {"time": 45359, "pitch": 65, "duration": 699, "velocity": 122}, {"time": 45359, "pitch": 69, "duration": 699, "velocity": 127}, {"time": 45359, "pitch": 72, "duration": 699, "velocity": 127}, {"time": 48480, "pitch": 59, "duration": 140, "velocity": 125}, {"time": 48620, "pitch": 58, "duration": 69, "velocity": 125}, {"time": 48719, "pitch": 59, "duration": 89, "velocity": 112}, {"time": 48859, "pitch": 55, "duration": 229, "velocity": 114}, {"time": 49098, "pitch": 52, "duration": 70, "velocity": 95}, {"time": 49198, "pitch": 59, "duration": 464, "velocity": 114}, {"time": 49677, "pitch": 47, "duration": 80, "velocity": 125}, {"time": 58081, "pitch": 64, "duration": 479, "velocity": 114}, {"time": 58560, "pitch": 60, "duration": 459, "velocity": 112}, {"time": 59038, "pitch": 57, "duration": 439, "velocity": 106}, {"time": 59517, "pitch": 53, "duration": 220, "velocity": 122}, {"time": 59757, "pitch": 57, "duration": 139, "velocity": 106}, {"time": 59996, "pitch": 56, "duration": 647, "velocity": 114}, {"time": 60722, "pitch": 60, "duration": 210, "velocity": 106}, {"time": 60962, "pitch": 65, "duration": 229, "velocity": 114}, {"time": 61201, "pitch": 60, "duration": 210, "velocity": 83}, {"time": 61441, "pitch": 62, "duration": 219, "velocity": 106}, {"time": 61680, "pitch": 60, "duration": 90, "velocity": 95}, {"time": 61920, "pitch": 62, "duration": 708, "velocity": 122}, {"time": 62638, "pitch": 64, "duration": 1624, "velocity": 127}, {"time": 64322, "pitch": 67, "duration": 469, "velocity": 127}, {"time": 64801, "pitch": 64, "duration": 468, "velocity": 127}, {"time": 65279, "pitch": 71, "duration": 409, "velocity": 125}, {"time": 65758, "pitch": 71, "duration": 712, "velocity": 127}, {"time": 66481, "pitch": 72, "duration": 712, "velocity": 127}, {"time": 67203, "pitch": 67, "duration": 429, "velocity": 125}, {"time": 67682, "pitch": 67, "duration": 1436, "velocity": 114}, {"time": 94321, "pitch": 60, "duration": 170, "velocity": 127}, {"time": 94800, "pitch": 62, "duration": 170, "velocity": 127}, {"time": 95279, "pitch": 64, "duration": 220, "velocity": 127}, {"time": 98400, "pitch": 65, "duration": 119, "velocity": 127}, {"time": 98400, "pitch": 69, "duration": 109, "velocity": 127}, {"time": 98400, "pitch": 72, "duration": 119, "velocity": 127}, {"time": 98540, "pitch": 65, "duration": 60, "velocity": 100}, {"time": 98540, "pitch": 69, "duration": 40, "velocity": 120}, {"time": 98540, "pitch": 72, "duration": 70, "velocity": 114}, {"time": 99118, "pitch": 65, "duration": 698, "velocity": 122}, {"time": 99118, "pitch": 69, "duration": 698, "velocity": 127}, {"time": 99118, "pitch": 72, "duration": 698, "velocity": 127}, {"time": 102239, "pitch": 59, "duration": 139, "velocity": 125}, {"time": 102378, "pitch": 58, "duration": 70, "velocity": 125}, {"time": 102478, "pitch": 59, "duration": 89, "velocity": 112}, {"time": 102618, "pitch": 55, "duration": 229, "velocity": 114}, {"time": 102857, "pitch": 52, "duration": 70, "velocity": 95}, {"time": 102957, "pitch": 59, "duration": 467, "velocity": 114}, {"time": 103440, "pitch": 47, "duration": 81, "velocity": 125}, {"time": 111839, "pitch": 64, "duration": 479, "velocity": 114}, {"time": 112318, "pitch": 60, "duration": 459, "velocity": 112}, {"time": 112797, "pitch": 57, "duration": 446, "velocity": 106}, {"time": 113284, "pitch": 53, "duration": 219, "velocity": 122}, {"time": 113523, "pitch": 57, "duration": 140, "velocity": 106}, {"time": 113763, "pitch": 56, "duration": 638, "velocity": 114}, {"time": 114481, "pitch": 60, "duration": 209, "velocity": 106}, {"time": 114720, "pitch": 65, "duration": 230, "velocity": 114}, {"time": 114960, "pitch": 60, "duration": 209, "velocity": 83}, {"time": 115199, "pitch": 62, "duration": 220, "velocity": 106}, {"time": 115439, "pitch": 60, "duration": 90, "velocity": 95}, {"time": 120004, "pitch": 55, "duration": 449, "velocity": 125}, {"time": 120403, "pitch": 65, "duration": 40, "velocity": 70}, {"time": 120443, "pitch": 66, "duration": 39, "velocity": 70}, {"time": 120482, "pitch": 67, "duration": 958, "velocity": 114}, {"time": 146396, "pitch": 59, "duration": 142, "velocity": 125}, {"time": 146538, "pitch": 58, "duration": 71, "velocity": 125}, {"time": 146640, "pitch": 59, "duration": 90, "velocity": 112}, {"time": 146782, "pitch": 55, "duration": 231, "velocity": 114}, {"time": 147023, "pitch": 52, "duration": 69, "velocity": 95}, {"time": 147122, "pitch": 59, "duration": 464, "velocity": 114}, {"time": 147601, "pitch": 47, "duration": 80, "velocity": 125}, {"time": 155997, "pitch": 64, "duration": 487, "velocity": 114}, {"time": 156484, "pitch": 60, "duration": 459, "velocity": 112}, {"time": 156963, "pitch": 57, "duration": 439, "velocity": 106}, {"time": 157442, "pitch": 53, "duration": 219, "velocity": 122}, {"time": 157681, "pitch": 57, "duration": 140, "velocity": 106}, {"time": 157920, "pitch": 56, "duration": 639, "velocity": 114}, {"time": 158639, "pitch": 60, "duration": 209, "velocity": 106}, {"time": 158878, "pitch": 65, "duration": 230, "velocity": 114}, {"time": 159118, "pitch": 60, "duration": 209, "velocity": 83}, {"time": 159357, "pitch": 62, "duration": 223, "velocity": 106}, {"time": 159600, "pitch": 60, "duration": 92, "velocity": 95}, {"time": 161759, "pitch": 59, "duration": 140, "velocity": 125}, {"time": 161899, "pitch": 58, "duration": 70, "velocity": 125}, {"time": 161999, "pitch": 59, "duration": 88, "velocity": 112}, {"time": 162138, "pitch": 55, "duration": 230, "velocity": 114}, {"time": 162378, "pitch": 52, "duration": 70, "velocity": 95}, {"time": 162478, "pitch": 59, "duration": 467, "velocity": 114}, {"time": 162960, "pitch": 47, "duration": 81, "velocity": 125}, {"time": 171360, "pitch": 64, "duration": 479, "velocity": 114}, {"time": 171839, "pitch": 60, "duration": 459, "velocity": 112}, {"time": 172318, "pitch": 57, "duration": 439, "velocity": 106}, {"time": 172797, "pitch": 53, "duration": 223, "velocity": 122}, {"time": 173040, "pitch": 57, "duration": 142, "velocity": 106}, {"time": 173283, "pitch": 56, "duration": 639, "velocity": 114}, {"time": 174002, "pitch": 60, "duration": 209, "velocity": 106}, {"time": 174241, "pitch": 65, "duration": 230, "velocity": 114}, {"time": 174481, "pitch": 60, "duration": 209, "velocity": 83}, {"time": 174720, "pitch": 62, "duration": 220, "velocity": 106}, {"time": 174959, "pitch": 60, "duration": 90, "velocity": 95}], "annotations": [{"time": 241, "annotation": {"number": 7, "value": 57}, "group": "control_change"}, {"time": 252, "annotation": {"number": 11, "value": 127}, "group": "control_change"}, {"time": 264, "annotation": {"number": 10, "value": 84}, "group": "control_change"}, {"time": 275, "annotation": {"number": 91, "value": 66}, "group": "control_change"}, {"time": 287, "annotation": {"number": 93, "value": 62}, "group": "control_change"}, {"time": 298, "annotation": {"number": 94, "value": 0}, "group": "control_change"}, {"time": 310, "annotation": {"number": 101, "value": 0}, "group": "control_change"}, {"time": 321, "annotation": {"number": 100, "value": 0}, "group": "control_change"}, {"time": 333, "annotation": {"number": 6, "value": 12}, "group": "control_change"}, {"time": 367, "annotation": {"number": 101, "value": 127}, "group": "control_change"}, {"time": 379, "annotation": {"number": 100, "value": 127}, "group": "control_change"}]}, {"program": 0, "is_drum": true, "name": "DRUMS", "notes": [{"time": 483, "pitch": 35, "duration": 10, "velocity": 121}, {"time": 483, "pitch": 42, "duration": 10, "velocity": 125}, {"time": 723, "pitch": 35, "duration": 10, "velocity": 119}, {"time": 723, "pitch": 42, "duration": 10, "velocity": 50}, {"time": 723, "pitch": 69, "duration": 10, "velocity": 46}, {"time": 863, "pitch": 69, "duration": 10, "velocity": 29}, {"time": 962, "pitch": 38, "duration": 10, "velocity": 121}, {"time": 962, "pitch": 42, "duration": 10, "velocity": 122}, {"time": 1103, "pitch": 69, "duration": 10, "velocity": 54}, {"time": 1202, "pitch": 35, "duration": 10, "velocity": 77}, {"time": 1202, "pitch": 42, "duration": 10, "velocity": 71}, {"time": 1202, "pitch": 69, "duration": 10, "velocity": 29}, {"time": 1342, "pitch": 38, "duration": 10, "velocity": 64}, {"time": 1441, "pitch": 35, "duration": 10, "velocity": 65}, {"time": 1441, "pitch": 42, "duration": 10, "velocity": 114}, {"time": 1441, "pitch": 69, "duration": 10, "velocity": 54}, {"time": 1582, "pitch": 38, "duration": 10, "velocity": 97}, {"time": 1680, "pitch": 35, "duration": 10, "velocity": 100}, {"time": 1680, "pitch": 46, "duration": 10, "velocity": 103}, {"time": 1680, "pitch": 69, "duration": 10, "velocity": 29}, {"time": 1821, "pitch": 69, "duration": 10, "velocity": 17}, {"time": 1920, "pitch": 38, "duration": 10, "velocity": 121}, {"time": 1920, "pitch": 42, "duration": 10, "velocity": 114}, {"time": 1920, "pitch": 69, "duration": 10, "velocity": 43}, {"time": 2159, "pitch": 35, "duration": 10, "velocity": 77}, {"time": 2159, "pitch": 42, "duration": 10, "velocity": 71}, {"time": 2159, "pitch": 69, "duration": 10, "velocity": 26}, {"time": 2300, "pitch": 38, "duration": 10, "velocity": 76}, {"time": 2399, "pitch": 35, "duration": 10, "velocity": 121}, {"time": 2399, "pitch": 42, "duration": 10, "velocity": 89}, {"time": 2638, "pitch": 35, "duration": 10, "velocity": 119}, {"time": 2638, "pitch": 42, "duration": 10, "velocity": 83}, {"time": 2638, "pitch": 69, "duration": 10, "velocity": 46}, {"time": 2779, "pitch": 69, "duration": 10, "velocity": 29}, {"time": 2878, "pitch": 38, "duration": 10, "velocity": 121}, {"time": 2878, "pitch": 42, "duration": 10, "velocity": 112}, {"time": 3018, "pitch": 69, "duration": 10, "velocity": 54}, {"time": 3117, "pitch": 35, "duration": 10, "velocity": 77}, {"time": 3117, "pitch": 42, "duration": 10, "velocity": 54}, {"time": 3117, "pitch": 69, "duration": 10, "velocity": 29}, {"time": 3258, "pitch": 38, "duration": 10, "velocity": 64}, {"time": 3357, "pitch": 35, "duration": 10, "velocity": 65}, {"time": 3357, "pitch": 42, "duration": 10, "velocity": 114}, {"time": 3357, "pitch": 69, "duration": 10, "velocity": 54}, {"time": 3499, "pitch": 38, "duration": 11, "velocity": 97}, {"time": 3600, "pitch": 35, "duration": 10, "velocity": 100}, {"time": 3600, "pitch": 46, "duration": 10, "velocity": 106}, {"time": 3600, "pitch": 69, "duration": 10, "velocity": 29}, {"time": 3743, "pitch": 69, "duration": 10, "velocity": 17}, {"time": 3843, "pitch": 38, "duration": 10, "velocity": 121}, {"time": 3843, "pitch": 42, "duration": 10, "velocity": 83}, {"time": 3843, "pitch": 69, "duration": 10, "velocity": 43}, {"time": 4083, "pitch": 35, "duration": 10, "velocity": 77}, {"time": 4083, "pitch": 42, "duration": 10, "velocity": 83}, {"time": 4083, "pitch": 69, "duration": 10, "velocity": 26}, {"time": 4223, "pitch": 38, "duration": 10, "velocity": 76}, {"time": 4322, "pitch": 35, "duration": 10, "velocity": 121}, {"time": 4322, "pitch": 42, "duration": 10, "velocity": 125}, {"time": 4562, "pitch": 35, "duration": 9, "velocity": 119}, {"time": 4562, "pitch": 42, "duration": 9, "velocity": 50}, {"time": 4562, "pitch": 69, "duration": 9, "velocity": 46}, {"time": 4702, "pitch": 69, "duration": 10, "velocity": 29}, {"time": 4801, "pitch": 38, "duration": 10, "velocity": 121}, {"time": 4801, "pitch": 42, "duration": 10, "velocity": 122}, {"time": 4942, "pitch": 69, "duration": 10, "velocity": 54}, {"time": 5040, "pitch": 35, "duration": 10, "velocity": 77}, {"time": 5040, "pitch": 42, "duration": 10, "velocity": 71}, {"time": 5040, "pitch": 69, "duration": 10, "velocity": 29}, {"time": 5181, "pitch": 38, "duration": 10, "velocity": 64}, {"time": 5280, "pitch": 35, "duration": 10, "velocity": 65}, {"time": 5280, "pitch": 42, "duration": 10, "velocity": 114}, {"time": 5280, "pitch": 69, "duration": 10, "velocity": 54}, {"time": 5421, "pitch": 38, "duration": 9, "velocity": 97}, {"time": 5519, "pitch": 35, "duration": 10, "velocity": 100}, {"time": 5519, "pitch": 46, "duration": 10, "velocity": 103}, {"time": 5519, "pitch": 69, "duration": 10, "velocity": 29}, {"time": 5660, "pitch": 69, "duration": 10, "velocity": 17}, {"time": 5759, "pitch": 38, "duration": 10, "velocity": 121}, {"time": 5759, "pitch": 42, "duration": 10, "velocity": 114}, {"time": 5759, "pitch": 69, "duration": 10, "velocity": 43}, {"time": 5998, "pitch": 35, "duration": 10, "velocity": 77}, {"time": 5998, "pitch": 42, "duration": 10, "velocity": 71}, {"time": 5998, "pitch": 69, "duration": 10, "velocity": 26}, {"time": 6139, "pitch": 38, "duration": 10, "velocity": 76}, {"time": 6238, "pitch": 35, "duration": 10, "velocity": 121}, {"time": 6238, "pitch": 42, "duration": 10, "velocity": 89}, {"time": 6477, "pitch": 35, "duration": 10, "velocity": 119}, {"time": 6477, "pitch": 42, "duration": 10, "velocity": 83}, {"time": 6477, "pitch": 69, "duration": 10, "velocity": 46}, {"time": 6618, "pitch": 69, "duration": 10, "velocity": 29}, {"time": 6716, "pitch": 38, "duration": 11, "velocity": 121}, {"time": 6716, "pitch": 42, "duration": 11, "velocity": 112}, {"time": 6859, "pitch": 69, "duration": 11, "velocity": 54}, {"time": 6960, "pitch": 35, "duration": 10, "velocity": 77}, {"time": 6960, "pitch": 42, "duration": 10, "velocity": 54}, {"time": 6960, "pitch": 69, "duration": 10, "velocity": 29}, {"time": 7103, "pitch": 38, "duration": 10, "velocity": 64}, {"time": 7203, "pitch": 35, "duration": 10, "velocity": 65}, {"time": 7203, "pitch": 42, "duration": 10, "velocity": 114}, {"time": 7203, "pitch": 69, "duration": 10, "velocity": 54}, {"time": 7344, "pitch": 38, "duration": 10, "velocity": 97}, {"time": 7443, "pitch": 35, "duration": 10, "velocity": 100}, {"time": 7443, "pitch": 46, "duration": 10, "velocity": 106}, {"time": 7443, "pitch": 69, "duration": 10, "velocity": 29}, {"time": 7583, "pitch": 69, "duration": 10, "velocity": 17}, {"time": 7682, "pitch": 38, "duration": 10, "velocity": 121}, {"time": 7682, "pitch": 42, "duration": 10, "velocity": 83}, {"time": 7682, "pitch": 69, "duration": 10, "velocity": 43}, {"time": 7921, "pitch": 35, "duration": 10, "velocity": 77}, {"time": 7921, "pitch": 42, "duration": 10, "velocity": 83}, {"time": 7921, "pitch": 69, "duration": 10, "velocity": 26}, {"time": 8062, "pitch": 38, "duration": 10, "velocity": 76}, {"time": 8161, "pitch": 35, "duration": 10, "velocity": 121}, {"time": 8161, "pitch": 42, "duration": 10, "velocity": 125}, {"time": 8400, "pitch": 35, "duration": 10, "velocity": 119}, {"time": 8400, "pitch": 42, "duration": 10, "velocity": 50}, {"time": 8400, "pitch": 69, "duration": 10, "velocity": 46}, {"time": 8541, "pitch": 69, "duration": 10, "velocity": 29}, {"time": 8640, "pitch": 38, "duration": 10, "velocity": 121}, {"time": 8640, "pitch": 42, "duration": 10, "velocity": 122}, {"time": 8780, "pitch": 69, "duration": 10, "velocity": 54}, {"time": 8879, "pitch": 35, "duration": 10, "velocity": 77}, {"time": 8879, "pitch": 42, "duration": 10, "velocity": 71}, {"time": 8879, "pitch": 69, "duration": 10, "velocity": 29}, {"time": 9020, "pitch": 38, "duration": 10, "velocity": 64}, {"time": 9119, "pitch": 35, "duration": 10, "velocity": 65}, {"time": 9119, "pitch": 42, "duration": 10, "velocity": 114}, {"time": 9119, "pitch": 69, "duration": 10, "velocity": 54}, {"time": 9259, "pitch": 38, "duration": 10, "velocity": 97}, {"time": 9358, "pitch": 35, "duration": 10, "velocity": 100}, {"time": 9358, "pitch": 46, "duration": 10, "velocity": 103}, {"time": 9358, "pitch": 69, "duration": 10, "velocity": 29}, {"time": 9499, "pitch": 69, "duration": 10, "velocity": 17}, {"time": 9598, "pitch": 38, "duration": 9, "velocity": 121}, {"time": 9598, "pitch": 42, "duration": 9, "velocity": 114}, {"time": 9598, "pitch": 69, "duration": 9, "velocity": 43}, {"time": 9837, "pitch": 35, "duration": 10, "velocity": 77}, {"time": 9837, "pitch": 42, "duration": 10, "velocity": 71}, {"time": 9837, "pitch": 69, "duration": 10, "velocity": 26}, {"time": 9978, "pitch": 38, "duration": 10, "velocity": 76}, {"time": 10076, "pitch": 35, "duration": 10, "velocity": 121}, {"time": 10076, "pitch": 42, "duration": 10, "velocity": 89}, {"time": 10320, "pitch": 35, "duration": 10, "velocity": 119}, {"time": 10320, "pitch": 42, "duration": 10, "velocity": 83}, {"time": 10320, "pitch": 69, "duration": 10, "velocity": 46}, {"time": 10463, "pitch": 69, "duration": 10, "velocity": 29}, {"time": 10563, "pitch": 38, "duration": 10, "velocity": 121}, {"time": 10563, "pitch": 42, "duration": 10, "velocity": 112}, {"time": 10704, "pitch": 69, "duration": 10, "velocity": 54}, {"time": 10802, "pitch": 35, "duration": 10, "velocity": 77}, {"time": 10802, "pitch": 42, "duration": 10, "velocity": 54}, {"time": 10802, "pitch": 69, "duration": 10, "velocity": 29}, {"time": 10943, "pitch": 38, "duration": 10, "velocity": 64}, {"time": 11042, "pitch": 35, "duration": 10, "velocity": 65}, {"time": 11042, "pitch": 42, "duration": 10, "velocity": 114}, {"time": 11042, "pitch": 69, "duration": 10, "velocity": 54}, {"time": 11183, "pitch": 38, "duration": 10, "velocity": 97}, {"time": 11281, "pitch": 35, "duration": 10, "velocity": 100}, {"time": 11281, "pitch": 46, "duration": 10, "velocity": 106}, {"time": 11281, "pitch": 69, "duration": 10, "velocity": 29}, {"time": 11422, "pitch": 69, "duration": 10, "velocity": 17}, {"time": 11521, "pitch": 38, "duration": 10, "velocity": 121}, {"time": 11521, "pitch": 42, "duration": 10, "velocity": 83}, {"time": 11521, "pitch": 69, "duration": 10, "velocity": 43}, {"time": 11760, "pitch": 35, "duration": 10, "velocity": 77}, {"time": 11760, "pitch": 42, "duration": 10, "velocity": 83}, {"time": 11760, "pitch": 69, "duration": 10, "velocity": 26}, {"time": 11901, "pitch": 38, "duration": 10, "velocity": 76}, {"time": 12000, "pitch": 35, "duration": 10, "velocity": 121}, {"time": 12000, "pitch": 42, "duration": 10, "velocity": 125}, {"time": 12239, "pitch": 35, "duration": 10, "velocity": 119}, {"time": 12239, "pitch": 42, "duration": 10, "velocity": 50}, {"time": 12239, "pitch": 69, "duration": 10, "velocity": 46}, {"time": 12380, "pitch": 69, "duration": 10, "velocity": 29}, {"time": 12479, "pitch": 38, "duration": 10, "velocity": 121}, {"time": 12479, "pitch": 42, "duration": 10, "velocity": 122}, {"time": 12619, "pitch": 69, "duration": 10, "velocity": 54}, {"time": 12718, "pitch": 35, "duration": 10, "velocity": 77}, {"time": 12718, "pitch": 42, "duration": 10, "velocity": 71}, {"time": 12718, "pitch": 69, "duration": 10, "velocity": 29}, {"time": 12859, "pitch": 38, "duration": 10, "velocity": 64}, {"time": 12957, "pitch": 35, "duration": 10, "velocity": 65}, {"time": 12957, "pitch": 42, "duration": 10, "velocity": 114}, {"time": 12957, "pitch": 69, "duration": 10, "velocity": 54}, {"time": 13098, "pitch": 38, "duration": 10, "velocity": 97}, {"time": 13197, "pitch": 35, "duration": 10, "velocity": 100}, {"time": 13197, "pitch": 46, "duration": 10, "velocity": 103}, {"time": 13197, "pitch": 69, "duration": 10, "velocity": 29}, {"time": 13338, "pitch": 69, "duration": 10, "velocity": 17}, {"time": 13436, "pitch": 38, "duration": 10, "velocity": 121}, {"time": 13436, "pitch": 42, "duration": 10, "velocity": 114}, {"time": 13436, "pitch": 69, "duration": 10, "velocity": 43}, {"time": 13680, "pitch": 35, "duration": 10, "velocity": 77}, {"time": 13680, "pitch": 42, "duration": 10, "velocity": 71}, {"time": 13680, "pitch": 69, "duration": 10, "velocity": 26}, {"time": 13823, "pitch": 38, "duration": 10, "velocity": 76}, {"time": 13923, "pitch": 35, "duration": 10, "velocity": 121}, {"time": 13923, "pitch": 36, "duration": 10, "velocity": 64}, {"time": 13923, "pitch": 38, "duration": 10, "velocity": 76}, {"time": 13923, "pitch": 42, "duration": 10, "velocity": 89}, {"time": 13923, "pitch": 46, "duration": 10, "velocity": 10}, {"time": 13923, "pitch": 57, "duration": 10, "velocity": 83}, {"time": 14162, "pitch": 35, "duration": 10, "velocity": 119}, {"time": 14162, "pitch": 42, "duration": 10, "velocity": 83}, {"time": 14162, "pitch": 69, "duration": 10, "velocity": 46}, {"time": 14303, "pitch": 69, "duration": 10, "velocity": 29}, {"time": 14402, "pitch": 42, "duration": 10, "velocity": 112}, {"time": 14542, "pitch": 69, "duration": 10, "velocity": 54}, {"time": 14601, "pitch": 38, "duration": 10, "velocity": 84}, {"time": 14641, "pitch": 35, "duration": 10, "velocity": 121}, {"time": 14641, "pitch": 36, "duration": 10, "velocity": 64}, {"time": 14641, "pitch": 38, "duration": 10, "velocity": 87}, {"time": 14641, "pitch": 46, "duration": 10, "velocity": 81}, {"time": 14781, "pitch": 42, "duration": 10, "velocity": 50}, {"time": 15120, "pitch": 35, "duration": 10, "velocity": 119}, {"time": 15360, "pitch": 38, "duration": 10, "velocity": 93}, {"time": 15499, "pitch": 38, "duration": 10, "velocity": 74}, {"time": 15599, "pitch": 35, "duration": 10, "velocity": 77}, {"time": 15599, "pitch": 38, "duration": 10, "velocity": 106}, {"time": 15739, "pitch": 38, "duration": 10, "velocity": 91}, {"time": 15838, "pitch": 35, "duration": 10, "velocity": 121}, {"time": 15838, "pitch": 42, "duration": 10, "velocity": 125}, {"time": 16078, "pitch": 35, "duration": 10, "velocity": 119}, {"time": 16078, "pitch": 42, "duration": 10, "velocity": 50}, {"time": 16078, "pitch": 69, "duration": 10, "velocity": 46}, {"time": 16219, "pitch": 69, "duration": 10, "velocity": 29}, {"time": 16317, "pitch": 38, "duration": 10, "velocity": 121}, {"time": 16317, "pitch": 42, "duration": 10, "velocity": 122}, {"time": 16458, "pitch": 69, "duration": 10, "velocity": 54}, {"time": 16557, "pitch": 35, "duration": 10, "velocity": 77}, {"time": 16557, "pitch": 42, "duration": 10, "velocity": 71}, {"time": 16557, "pitch": 69, "duration": 10, "velocity": 29}, {"time": 16697, "pitch": 38, "duration": 10, "velocity": 64}, {"time": 16796, "pitch": 35, "duration": 10, "velocity": 65}, {"time": 16796, "pitch": 42, "duration": 10, "velocity": 114}, {"time": 16796, "pitch": 69, "duration": 10, "velocity": 54}, {"time": 16939, "pitch": 38, "duration": 10, "velocity": 97}, {"time": 17040, "pitch": 35, "duration": 10, "velocity": 100}, {"time": 17040, "pitch": 46, "duration": 10, "velocity": 103}, {"time": 17040, "pitch": 69, "duration": 10, "velocity": 29}, {"time": 17183, "pitch": 69, "duration": 10, "velocity": 17}, {"time": 17283, "pitch": 38, "duration": 10, "velocity": 121}, {"time": 17283, "pitch": 42, "duration": 10, "velocity": 114}, {"time": 17283, "pitch": 69, "duration": 10, "velocity": 43}, {"time": 17522, "pitch": 35, "duration": 10, "velocity": 77}, {"time": 17522, "pitch": 42, "duration": 10, "velocity": 71}, {"time": 17522, "pitch": 69, "duration": 10, "velocity": 26}, {"time": 17663, "pitch": 38, "duration": 10, "velocity": 76}, {"time": 17762, "pitch": 35, "duration": 10, "velocity": 121}, {"time": 17762, "pitch": 42, "duration": 10, "velocity": 89}, {"time": 18001, "pitch": 35, "duration": 10, "velocity": 119}, {"time": 18001, "pitch": 42, "duration": 10, "velocity": 83}, {"time": 18001, "pitch": 69, "duration": 10, "velocity": 46}, {"time": 18142, "pitch": 69, "duration": 10, "velocity": 29}, {"time": 18241, "pitch": 38, "duration": 10, "velocity": 121}, {"time": 18241, "pitch": 42, "duration": 10, "velocity": 112}, {"time": 18381, "pitch": 69, "duration": 10, "velocity": 54}, {"time": 18480, "pitch": 35, "duration": 10, "velocity": 77}, {"time": 18480, "pitch": 42, "duration": 10, "velocity": 54}, {"time": 18480, "pitch": 69, "duration": 10, "velocity": 29}, {"time": 18621, "pitch": 38, "duration": 10, "velocity": 64}, {"time": 18719, "pitch": 35, "duration": 10, "velocity": 65}, {"time": 18719, "pitch": 42, "duration": 10, "velocity": 114}, {"time": 18719, "pitch": 69, "duration": 10, "velocity": 54}, {"time": 18860, "pitch": 38, "duration": 10, "velocity": 97}, {"time": 18959, "pitch": 35, "duration": 10, "velocity": 100}, {"time": 18959, "pitch": 46, "duration": 10, "velocity": 106}, {"time": 18959, "pitch": 69, "duration": 10, "velocity": 29}, {"time": 19100, "pitch": 69, "duration": 10, "velocity": 17}, {"time": 19198, "pitch": 38, "duration": 10, "velocity": 121}, {"time": 19198, "pitch": 42, "duration": 10, "velocity": 83}, {"time": 19198, "pitch": 69, "duration": 10, "velocity": 43}, {"time": 19438, "pitch": 35, "duration": 10, "velocity": 77}, {"time": 19438, "pitch": 42, "duration": 10, "velocity": 83}, {"time": 19438, "pitch": 69, "duration": 10, "velocity": 26}, {"time": 19578, "pitch": 38, "duration": 10, "velocity": 76}, {"time": 19677, "pitch": 35, "duration": 10, "velocity": 121}, {"time": 19677, "pitch": 42, "duration": 10, "velocity": 125}, {"time": 19917, "pitch": 35, "duration": 10, "velocity": 119}, {"time": 19917, "pitch": 42, "duration": 10, "velocity": 50}, {"time": 19917, "pitch": 69, "duration": 10, "velocity": 46}, {"time": 20057, "pitch": 69, "duration": 10, "velocity": 29}, {"time": 20156, "pitch": 38, "duration": 10, "velocity": 121}, {"time": 20156, "pitch": 42, "duration": 10, "velocity": 122}, {"time": 20299, "pitch": 69, "duration": 10, "velocity": 54}, {"time": 20399, "pitch": 35, "duration": 11, "velocity": 77}, {"time": 20399, "pitch": 42, "duration": 11, "velocity": 71}, {"time": 20399, "pitch": 69, "duration": 11, "velocity": 29}, {"time": 20542, "pitch": 38, "duration": 11, "velocity": 64}, {"time": 20643, "pitch": 35, "duration": 10, "velocity": 65}, {"time": 20643, "pitch": 42, "duration": 10, "velocity": 114}, {"time": 20643, "pitch": 69, "duration": 10, "velocity": 54}, {"time": 20783, "pitch": 38, "duration": 10, "velocity": 97}, {"time": 20882, "pitch": 35, "duration": 10, "velocity": 100}, {"time": 20882, "pitch": 46, "duration": 10, "velocity": 103}, {"time": 20882, "pitch": 69, "duration": 10, "velocity": 29}, {"time": 21023, "pitch": 69, "duration": 10, "velocity": 17}, {"time": 21122, "pitch": 38, "duration": 10, "velocity": 121}, {"time": 21122, "pitch": 42, "duration": 10, "velocity": 114}, {"time": 21122, "pitch": 69, "duration": 10, "velocity": 43}, {"time": 21361, "pitch": 35, "duration": 10, "velocity": 77}, {"time": 21361, "pitch": 42, "duration": 10, "velocity": 71}, {"time": 21361, "pitch": 69, "duration": 10, "velocity": 26}, {"time": 21502, "pitch": 38, "duration": 10, "velocity": 76}, {"time": 21601, "pitch": 35, "duration": 10, "velocity": 121}, {"time": 21601, "pitch": 42, "duration": 10, "velocity": 89}, {"time": 21840, "pitch": 35, "duration": 10, "velocity": 119}, {"time": 21840, "pitch": 42, "duration": 10, "velocity": 83}, {"time": 21840, "pitch": 69, "duration": 10, "velocity": 46}, {"time": 21981, "pitch": 69, "duration": 10, "velocity": 29}, {"time": 22079, "pitch": 38, "duration": 10, "velocity": 121}, {"time": 22079, "pitch": 42, "duration": 10, "velocity": 112}, {"time": 22220, "pitch": 69, "duration": 10, "velocity": 54}, {"time": 22319, "pitch": 35, "duration": 10, "velocity": 77}, {"time": 22319, "pitch": 42, "duration": 10, "velocity": 54}, {"time": 22319, "pitch": 69, "duration": 10, "velocity": 29}, {"time": 22460, "pitch": 38, "duration": 10, "velocity": 64}, {"time": 22558, "pitch": 35, "duration": 10, "velocity": 65}, {"time": 22558, "pitch": 42, "duration": 10, "velocity": 114}, {"time": 22558, "pitch": 69, "duration": 10, "velocity": 54}, {"time": 22699, "pitch": 38, "duration": 10, "velocity": 97}, {"time": 22798, "pitch": 35, "duration": 10, "velocity": 100}, {"time": 22798, "pitch": 46, "duration": 10, "velocity": 106}, {"time": 22798, "pitch": 69, "duration": 10, "velocity": 29}, {"time": 22938, "pitch": 69, "duration": 10, "velocity": 17}, {"time": 23037, "pitch": 38, "duration": 10, "velocity": 121}, {"time": 23037, "pitch": 42, "duration": 10, "velocity": 83}, {"time": 23037, "pitch": 69, "duration": 10, "velocity": 43}, {"time": 23280, "pitch": 35, "duration": 11, "velocity": 77}, {"time": 23280, "pitch": 42, "duration": 11, "velocity": 83}, {"time": 23280, "pitch": 69, "duration": 11, "velocity": 26}, {"time": 23423, "pitch": 38, "duration": 11, "velocity": 76}, {"time": 23524, "pitch": 35, "duration": 10, "velocity": 121}, {"time": 23524, "pitch": 42, "duration": 10, "velocity": 125}, {"time": 23763, "pitch": 35, "duration": 10, "velocity": 119}, {"time": 23763, "pitch": 42, "duration": 10, "velocity": 50}, {"time": 23763, "pitch": 69, "duration": 10, "velocity": 46}, {"time": 23904, "pitch": 69, "duration": 10, "velocity": 29}, {"time": 24003, "pitch": 38, "duration": 10, "velocity": 121}, {"time": 24003, "pitch": 42, "duration": 10, "velocity": 122}, {"time": 24143, "pitch": 69, "duration": 10, "velocity": 54}, {"time": 24242, "pitch": 35, "duration": 10, "velocity": 77}, {"time": 24242, "pitch": 42, "duration": 10, "velocity": 71}, {"time": 24242, "pitch": 69, "duration": 10, "velocity": 29}, {"time": 24383, "pitch": 38, "duration": 10, "velocity": 64}, {"time": 24482, "pitch": 35, "duration": 10, "velocity": 65}, {"time": 24482, "pitch": 42, "duration": 10, "velocity": 114}, {"time": 24482, "pitch": 69, "duration": 10, "velocity": 54}, {"time": 24622, "pitch": 38, "duration": 10, "velocity": 97}, {"time": 24721, "pitch": 35, "duration": 10, "velocity": 100}, {"time": 24721, "pitch": 46, "duration": 10, "velocity": 103}, {"time": 24721, "pitch": 69, "duration": 10, "velocity": 29}, {"time": 24862, "pitch": 69, "duration": 10, "velocity": 17}, {"time": 24960, "pitch": 38, "duration": 10, "velocity": 121}, {"time": 24960, "pitch": 42, "duration": 10, "velocity": 114}, {"time": 24960, "pitch": 69, "duration": 10, "velocity": 43}, {"time": 25200, "pitch": 35, "duration": 10, "velocity": 77}, {"time": 25200, "pitch": 42, "duration": 10, "velocity": 71}, {"time": 25200, "pitch": 69, "duration": 10, "velocity": 26}, {"time": 25341, "pitch": 38, "duration": 10, "velocity": 76}, {"time": 25439, "pitch": 35, "duration": 10, "velocity": 121}, {"time": 25439, "pitch": 42, "duration": 10, "velocity": 89}, {"time": 25679, "pitch": 35, "duration": 10, "velocity": 119}, {"time": 25679, "pitch": 42, "duration": 10, "velocity": 83}, {"time": 25679, "pitch": 69, "duration": 10, "velocity": 46}, {"time": 25819, "pitch": 69, "duration": 10, "velocity": 29}, {"time": 25918, "pitch": 38, "duration": 10, "velocity": 121}, {"time": 25918, "pitch": 42, "duration": 10, "velocity": 112}, {"time": 26059, "pitch": 69, "duration": 10, "velocity": 54}, {"time": 26158, "pitch": 35, "duration": 10, "velocity": 77}, {"time": 26158, "pitch": 42, "duration": 10, "velocity": 54}, {"time": 26158, "pitch": 69, "duration": 10, "velocity": 29}, {"time": 26298, "pitch": 38, "duration": 10, "velocity": 64}, {"time": 26397, "pitch": 35, "duration": 10, "velocity": 65}, {"time": 26397, "pitch": 42, "duration": 10, "velocity": 114}, {"time": 26397, "pitch": 69, "duration": 10, "velocity": 54}, {"time": 26540, "pitch": 38, "duration": 10, "velocity": 97}, {"time": 26640, "pitch": 35, "duration": 11, "velocity": 100}, {"time": 26640, "pitch": 46, "duration": 11, "velocity": 106}, {"time": 26640, "pitch": 69, "duration": 11, "velocity": 29}, {"time": 26783, "pitch": 69, "duration": 11, "velocity": 17}, {"time": 26884, "pitch": 38, "duration": 10, "velocity": 121}, {"time": 26884, "pitch": 42, "duration": 10, "velocity": 83}, {"time": 26884, "pitch": 69, "duration": 10, "velocity": 43}, {"time": 27123, "pitch": 35, "duration": 10, "velocity": 77}, {"time": 27123, "pitch": 42, "duration": 10, "velocity": 83}, {"time": 27123, "pitch": 69, "duration": 10, "velocity": 26}, {"time": 27264, "pitch": 38, "duration": 10, "velocity": 76}, {"time": 27363, "pitch": 35, "duration": 10, "velocity": 121}, {"time": 27363, "pitch": 42, "duration": 10, "velocity": 125}, {"time": 27602, "pitch": 35, "duration": 10, "velocity": 119}, {"time": 27602, "pitch": 42, "duration": 10, "velocity": 50}, {"time": 27602, "pitch": 69, "duration": 10, "velocity": 46}, {"time": 27743, "pitch": 69, "duration": 10, "velocity": 29}, {"time": 27841, "pitch": 38, "duration": 10, "velocity": 121}, {"time": 27841, "pitch": 42, "duration": 10, "velocity": 122}, {"time": 27982, "pitch": 69, "duration": 10, "velocity": 54}, {"time": 28081, "pitch": 35, "duration": 10, "velocity": 77}, {"time": 28081, "pitch": 42, "duration": 10, "velocity": 71}, {"time": 28081, "pitch": 69, "duration": 10, "velocity": 29}, {"time": 28222, "pitch": 38, "duration": 10, "velocity": 64}, {"time": 28320, "pitch": 35, "duration": 10, "velocity": 65}, {"time": 28320, "pitch": 42, "duration": 10, "velocity": 114}, {"time": 28320, "pitch": 69, "duration": 10, "velocity": 54}, {"time": 28461, "pitch": 38, "duration": 10, "velocity": 97}, {"time": 28560, "pitch": 35, "duration": 10, "velocity": 100}, {"time": 28560, "pitch": 46, "duration": 10, "velocity": 103}, {"time": 28560, "pitch": 69, "duration": 10, "velocity": 29}, {"time": 28700, "pitch": 69, "duration": 10, "velocity": 17}, {"time": 28799, "pitch": 38, "duration": 10, "velocity": 121}, {"time": 28799, "pitch": 42, "duration": 10, "velocity": 114}, {"time": 28799, "pitch": 69, "duration": 10, "velocity": 43}, {"time": 29039, "pitch": 35, "duration": 10, "velocity": 77}, {"time": 29039, "pitch": 42, "duration": 10, "velocity": 71}, {"time": 29039, "pitch": 69, "duration": 10, "velocity": 26}, {"time": 29179, "pitch": 38, "duration": 10, "velocity": 76}, {"time": 29278, "pitch": 35, "duration": 10, "velocity": 121}, {"time": 29278, "pitch": 42, "duration": 10, "velocity": 89}, {"time": 29518, "pitch": 35, "duration": 10, "velocity": 119}, {"time": 29518, "pitch": 42, "duration": 10, "velocity": 83}, {"time": 29518, "pitch": 69, "duration": 10, "velocity": 46}, {"time": 29658, "pitch": 69, "duration": 10, "velocity": 29}, {"time": 29757, "pitch": 38, "duration": 10, "velocity": 121}, {"time": 29757, "pitch": 42, "duration": 10, "velocity": 112}, {"time": 29900, "pitch": 69, "duration": 10, "velocity": 54}, {"time": 30000, "pitch": 35, "duration": 10, "velocity": 77}, {"time": 30000, "pitch": 42, "duration": 10, "velocity": 54}, {"time": 30000, "pitch": 69, "duration": 10, "velocity": 29}, {"time": 30143, "pitch": 38, "duration": 10, "velocity": 64}, {"time": 30244, "pitch": 35, "duration": 10, "velocity": 65}, {"time": 30244, "pitch": 42, "duration": 10, "velocity": 114}, {"time": 30244, "pitch": 69, "duration": 10, "velocity": 54}, {"time": 30384, "pitch": 38, "duration": 10, "velocity": 97}, {"time": 30483, "pitch": 35, "duration": 10, "velocity": 100}, {"time": 30483, "pitch": 46, "duration": 10, "velocity": 106}, {"time": 30483, "pitch": 69, "duration": 10, "velocity": 29}, {"time": 30624, "pitch": 69, "duration": 10, "velocity": 17}, {"time": 30723, "pitch": 38, "duration": 9, "velocity": 121}, {"time": 30723, "pitch": 42, "duration": 9, "velocity": 83}, {"time": 30723, "pitch": 69, "duration": 9, "velocity": 43}, {"time": 30962, "pitch": 35, "duration": 10, "velocity": 77}, {"time": 30962, "pitch": 42, "duration": 10, "velocity": 83}, {"time": 30962, "pitch": 69, "duration": 10, "velocity": 26}, {"time": 31103, "pitch": 38, "duration": 10, "velocity": 76}, {"time": 31201, "pitch": 35, "duration": 10, "velocity": 121}, {"time": 31201, "pitch": 42, "duration": 10, "velocity": 125}, {"time": 31201, "pitch": 80, "duration": 10, "velocity": 65}, {"time": 31441, "pitch": 35, "duration": 10, "velocity": 119}, {"time": 31441, "pitch": 42, "duration": 10, "velocity": 50}, {"time": 31441, "pitch": 69, "duration": 10, "velocity": 46}, {"time": 31441, "pitch": 81, "duration": 10, "velocity": 97}, {"time": 31582, "pitch": 69, "duration": 9, "velocity": 29}, {"time": 31680, "pitch": 38, "duration": 10, "velocity": 121}, {"time": 31680, "pitch": 42, "duration": 10, "velocity": 122}, {"time": 31680, "pitch": 80, "duration": 10, "velocity": 71}, {"time": 31821, "pitch": 69, "duration": 10, "velocity": 54}, {"time": 31920, "pitch": 35, "duration": 10, "velocity": 77}, {"time": 31920, "pitch": 42, "duration": 10, "velocity": 71}, {"time": 31920, "pitch": 69, "duration": 10, "velocity": 29}, {"time": 31920, "pitch": 81, "duration": 10, "velocity": 83}, {"time": 32060, "pitch": 38, "duration": 10, "velocity": 64}, {"time": 32159, "pitch": 35, "duration": 10, "velocity": 65}, {"time": 32159, "pitch": 42, "duration": 10, "velocity": 114}, {"time": 32159, "pitch": 69, "duration": 10, "velocity": 54}, {"time": 32159, "pitch": 80, "duration": 10, "velocity": 83}, {"time": 32300, "pitch": 38, "duration": 10, "velocity": 97}, {"time": 32399, "pitch": 35, "duration": 10, "velocity": 100}, {"time": 32399, "pitch": 42, "duration": 10, "velocity": 103}, {"time": 32399, "pitch": 69, "duration": 10, "velocity": 29}, {"time": 32539, "pitch": 69, "duration": 10, "velocity": 17}, {"time": 32638, "pitch": 40, "duration": 10, "velocity": 121}, {"time": 32638, "pitch": 42, "duration": 10, "velocity": 114}, {"time": 32638, "pitch": 69, "duration": 10, "velocity": 43}, {"time": 32877, "pitch": 35, "duration": 10, "velocity": 77}, {"time": 32877, "pitch": 42, "duration": 10, "velocity": 71}, {"time": 32877, "pitch": 69, "duration": 10, "velocity": 26}, {"time": 33018, "pitch": 38, "duration": 10, "velocity": 76}, {"time": 33117, "pitch": 35, "duration": 10, "velocity": 121}, {"time": 33117, "pitch": 42, "duration": 10, "velocity": 89}, {"time": 33360, "pitch": 35, "duration": 10, "velocity": 119}, {"time": 33360, "pitch": 42, "duration": 10, "velocity": 83}, {"time": 33360, "pitch": 69, "duration": 10, "velocity": 46}, {"time": 33503, "pitch": 69, "duration": 10, "velocity": 29}, {"time": 33604, "pitch": 38, "duration": 10, "velocity": 121}, {"time": 33604, "pitch": 42, "duration": 10, "velocity": 112}, {"time": 33744, "pitch": 69, "duration": 10, "velocity": 54}, {"time": 33843, "pitch": 35, "duration": 10, "velocity": 77}, {"time": 33843, "pitch": 42, "duration": 10, "velocity": 54}, {"time": 33843, "pitch": 69, "duration": 10, "velocity": 29}, {"time": 33984, "pitch": 38, "duration": 10, "velocity": 64}, {"time": 34082, "pitch": 35, "duration": 10, "velocity": 65}, {"time": 34082, "pitch": 42, "duration": 10, "velocity": 114}, {"time": 34082, "pitch": 69, "duration": 10, "velocity": 54}, {"time": 34223, "pitch": 38, "duration": 10, "velocity": 97}, {"time": 34322, "pitch": 35, "duration": 10, "velocity": 100}, {"time": 34322, "pitch": 42, "duration": 10, "velocity": 106}, {"time": 34322, "pitch": 69, "duration": 10, "velocity": 29}, {"time": 34463, "pitch": 69, "duration": 10, "velocity": 17}, {"time": 34561, "pitch": 40, "duration": 10, "velocity": 124}, {"time": 34561, "pitch": 42, "duration": 10, "velocity": 83}, {"time": 34561, "pitch": 54, "duration": 10, "velocity": 127}, {"time": 34561, "pitch": 69, "duration": 10, "velocity": 43}, {"time": 34561, "pitch": 72, "duration": 10, "velocity": 20}, {"time": 34801, "pitch": 35, "duration": 10, "velocity": 77}, {"time": 34801, "pitch": 42, "duration": 10, "velocity": 106}, {"time": 34801, "pitch": 69, "duration": 10, "velocity": 26}, {"time": 34940, "pitch": 46, "duration": 10, "velocity": 81}, {"time": 34941, "pitch": 38, "duration": 10, "velocity": 76}, {"time": 35040, "pitch": 35, "duration": 10, "velocity": 121}, {"time": 35040, "pitch": 42, "duration": 10, "velocity": 125}, {"time": 35040, "pitch": 80, "duration": 10, "velocity": 65}, {"time": 35280, "pitch": 35, "duration": 10, "velocity": 119}, {"time": 35280, "pitch": 42, "duration": 10, "velocity": 50}, {"time": 35280, "pitch": 69, "duration": 10, "velocity": 46}, {"time": 35280, "pitch": 81, "duration": 10, "velocity": 97}, {"time": 35420, "pitch": 69, "duration": 10, "velocity": 29}, {"time": 35519, "pitch": 38, "duration": 10, "velocity": 121}, {"time": 35519, "pitch": 42, "duration": 10, "velocity": 122}, {"time": 35519, "pitch": 80, "duration": 10, "velocity": 71}, {"time": 35660, "pitch": 69, "duration": 10, "velocity": 54}, {"time": 35759, "pitch": 35, "duration": 9, "velocity": 77}, {"time": 35759, "pitch": 42, "duration": 9, "velocity": 71}, {"time": 35759, "pitch": 69, "duration": 9, "velocity": 29}, {"time": 35759, "pitch": 81, "duration": 9, "velocity": 83}, {"time": 35899, "pitch": 38, "duration": 10, "velocity": 64}, {"time": 35998, "pitch": 35, "duration": 10, "velocity": 65}, {"time": 35998, "pitch": 42, "duration": 10, "velocity": 114}, {"time": 35998, "pitch": 69, "duration": 10, "velocity": 54}, {"time": 35998, "pitch": 80, "duration": 10, "velocity": 83}, {"time": 36139, "pitch": 38, "duration": 10, "velocity": 97}, {"time": 36237, "pitch": 35, "duration": 10, "velocity": 100}, {"time": 36237, "pitch": 42, "duration": 10, "velocity": 103}, {"time": 36237, "pitch": 69, "duration": 10, "velocity": 29}, {"time": 36378, "pitch": 69, "duration": 10, "velocity": 17}, {"time": 36477, "pitch": 40, "duration": 10, "velocity": 121}, {"time": 36477, "pitch": 42, "duration": 10, "velocity": 114}, {"time": 36477, "pitch": 69, "duration": 10, "velocity": 43}, {"time": 36720, "pitch": 35, "duration": 10, "velocity": 77}, {"time": 36720, "pitch": 42, "duration": 10, "velocity": 71}, {"time": 36720, "pitch": 69, "duration": 10, "velocity": 26}, {"time": 36863, "pitch": 38, "duration": 10, "velocity": 76}, {"time": 36963, "pitch": 35, "duration": 10, "velocity": 121}, {"time": 36963, "pitch": 42, "duration": 10, "velocity": 89}, {"time": 37203, "pitch": 35, "duration": 10, "velocity": 119}, {"time": 37203, "pitch": 42, "duration": 10, "velocity": 83}, {"time": 37203, "pitch": 69, "duration": 10, "velocity": 46}, {"time": 37344, "pitch": 69, "duration": 10, "velocity": 29}, {"time": 37442, "pitch": 38, "duration": 10, "velocity": 121}, {"time": 37442, "pitch": 42, "duration": 10, "velocity": 112}, {"time": 37583, "pitch": 69, "duration": 10, "velocity": 54}, {"time": 37682, "pitch": 35, "duration": 10, "velocity": 77}, {"time": 37682, "pitch": 42, "duration": 10, "velocity": 54}, {"time": 37682, "pitch": 69, "duration": 10, "velocity": 29}, {"time": 37822, "pitch": 38, "duration": 10, "velocity": 64}, {"time": 37921, "pitch": 35, "duration": 10, "velocity": 65}, {"time": 37921, "pitch": 42, "duration": 10, "velocity": 114}, {"time": 37921, "pitch": 69, "duration": 10, "velocity": 54}, {"time": 38062, "pitch": 38, "duration": 10, "velocity": 97}, {"time": 38161, "pitch": 35, "duration": 10, "velocity": 100}, {"time": 38161, "pitch": 42, "duration": 10, "velocity": 106}, {"time": 38161, "pitch": 69, "duration": 10, "velocity": 29}, {"time": 38301, "pitch": 69, "duration": 10, "velocity": 17}, {"time": 38400, "pitch": 40, "duration": 10, "velocity": 124}, {"time": 38400, "pitch": 42, "duration": 10, "velocity": 83}, {"time": 38400, "pitch": 54, "duration": 10, "velocity": 127}, {"time": 38400, "pitch": 69, "duration": 10, "velocity": 43}, {"time": 38400, "pitch": 72, "duration": 10, "velocity": 20}, {"time": 38640, "pitch": 35, "duration": 10, "velocity": 77}, {"time": 38640, "pitch": 42, "duration": 10, "velocity": 106}, {"time": 38640, "pitch": 69, "duration": 10, "velocity": 26}, {"time": 38779, "pitch": 46, "duration": 10, "velocity": 81}, {"time": 38780, "pitch": 38, "duration": 10, "velocity": 76}, {"time": 38879, "pitch": 35, "duration": 10, "velocity": 121}, {"time": 38879, "pitch": 42, "duration": 10, "velocity": 125}, {"time": 38879, "pitch": 80, "duration": 10, "velocity": 65}, {"time": 39118, "pitch": 35, "duration": 10, "velocity": 119}, {"time": 39118, "pitch": 42, "duration": 10, "velocity": 50}, {"time": 39118, "pitch": 69, "duration": 10, "velocity": 46}, {"time": 39118, "pitch": 81, "duration": 10, "velocity": 97}, {"time": 39259, "pitch": 69, "duration": 10, "velocity": 29}, {"time": 39358, "pitch": 38, "duration": 10, "velocity": 121}, {"time": 39358, "pitch": 42, "duration": 10, "velocity": 122}, {"time": 39358, "pitch": 80, "duration": 10, "velocity": 71}, {"time": 39499, "pitch": 69, "duration": 10, "velocity": 54}, {"time": 39597, "pitch": 35, "duration": 10, "velocity": 77}, {"time": 39597, "pitch": 42, "duration": 10, "velocity": 71}, {"time": 39597, "pitch": 69, "duration": 10, "velocity": 29}, {"time": 39597, "pitch": 81, "duration": 10, "velocity": 83}, {"time": 39738, "pitch": 38, "duration": 10, "velocity": 64}, {"time": 39837, "pitch": 35, "duration": 10, "velocity": 65}, {"time": 39837, "pitch": 42, "duration": 10, "velocity": 114}, {"time": 39837, "pitch": 69, "duration": 10, "velocity": 54}, {"time": 39837, "pitch": 80, "duration": 10, "velocity": 83}, {"time": 39980, "pitch": 38, "duration": 10, "velocity": 97}, {"time": 40080, "pitch": 35, "duration": 10, "velocity": 100}, {"time": 40080, "pitch": 42, "duration": 10, "velocity": 103}, {"time": 40080, "pitch": 69, "duration": 10, "velocity": 29}, {"time": 40223, "pitch": 69, "duration": 10, "velocity": 17}, {"time": 40323, "pitch": 40, "duration": 10, "velocity": 121}, {"time": 40323, "pitch": 42, "duration": 10, "velocity": 114}, {"time": 40323, "pitch": 69, "duration": 10, "velocity": 43}, {"time": 40463, "pitch": 38, "duration": 10, "velocity": 86}, {"time": 40563, "pitch": 35, "duration": 10, "velocity": 113}, {"time": 40563, "pitch": 42, "duration": 10, "velocity": 71}, {"time": 40563, "pitch": 57, "duration": 10, "velocity": 66}, {"time": 40563, "pitch": 69, "duration": 10, "velocity": 26}, {"time": 40703, "pitch": 38, "duration": 10, "velocity": 76}, {"time": 40802, "pitch": 35, "duration": 10, "velocity": 121}, {"time": 40802, "pitch": 42, "duration": 10, "velocity": 89}, {"time": 41042, "pitch": 35, "duration": 10, "velocity": 119}, {"time": 41042, "pitch": 42, "duration": 10, "velocity": 83}, {"time": 41042, "pitch": 49, "duration": 10, "velocity": 68}, {"time": 41042, "pitch": 69, "duration": 10, "velocity": 46}, {"time": 41182, "pitch": 69, "duration": 10, "velocity": 29}, {"time": 41281, "pitch": 38, "duration": 10, "velocity": 121}, {"time": 41281, "pitch": 42, "duration": 10, "velocity": 112}, {"time": 41422, "pitch": 69, "duration": 10, "velocity": 54}, {"time": 41521, "pitch": 35, "duration": 10, "velocity": 114}, {"time": 41521, "pitch": 42, "duration": 10, "velocity": 54}, {"time": 41521, "pitch": 57, "duration": 10, "velocity": 76}, {"time": 41521, "pitch": 69, "duration": 10, "velocity": 29}, {"time": 41661, "pitch": 38, "duration": 10, "velocity": 64}, {"time": 41760, "pitch": 35, "duration": 10, "velocity": 85}, {"time": 41760, "pitch": 42, "duration": 10, "velocity": 114}, {"time": 41760, "pitch": 69, "duration": 10, "velocity": 54}, {"time": 41901, "pitch": 38, "duration": 10, "velocity": 97}, {"time": 41999, "pitch": 42, "duration": 10, "velocity": 106}, {"time": 41999, "pitch": 69, "duration": 10, "velocity": 29}, {"time": 42139, "pitch": 35, "duration": 10, "velocity": 100}, {"time": 42140, "pitch": 69, "duration": 10, "velocity": 17}, {"time": 42239, "pitch": 40, "duration": 10, "velocity": 124}, {"time": 42239, "pitch": 42, "duration": 10, "velocity": 83}, {"time": 42239, "pitch": 54, "duration": 10, "velocity": 127}, {"time": 42239, "pitch": 69, "duration": 10, "velocity": 43}, {"time": 42239, "pitch": 72, "duration": 10, "velocity": 20}, {"time": 42478, "pitch": 35, "duration": 10, "velocity": 77}, {"time": 42478, "pitch": 42, "duration": 10, "velocity": 106}, {"time": 42478, "pitch": 69, "duration": 10, "velocity": 26}, {"time": 42618, "pitch": 46, "duration": 10, "velocity": 81}, {"time": 42619, "pitch": 38, "duration": 10, "velocity": 76}, {"time": 42718, "pitch": 35, "duration": 10, "velocity": 121}, {"time": 42718, "pitch": 42, "duration": 10, "velocity": 125}, {"time": 42718, "pitch": 80, "duration": 10, "velocity": 65}, {"time": 42957, "pitch": 35, "duration": 10, "velocity": 119}, {"time": 42957, "pitch": 42, "duration": 10, "velocity": 50}, {"time": 42957, "pitch": 69, "duration": 10, "velocity": 46}, {"time": 42957, "pitch": 81, "duration": 10, "velocity": 97}, {"time": 43098, "pitch": 69, "duration": 10, "velocity": 29}, {"time": 43197, "pitch": 38, "duration": 10, "velocity": 121}, {"time": 43197, "pitch": 42, "duration": 10, "velocity": 122}, {"time": 43197, "pitch": 80, "duration": 10, "velocity": 71}, {"time": 43340, "pitch": 69, "duration": 10, "velocity": 54}, {"time": 43440, "pitch": 35, "duration": 10, "velocity": 77}, {"time": 43440, "pitch": 42, "duration": 10, "velocity": 71}, {"time": 43440, "pitch": 69, "duration": 10, "velocity": 29}, {"time": 43440, "pitch": 81, "duration": 10, "velocity": 83}, {"time": 43583, "pitch": 38, "duration": 10, "velocity": 64}, {"time": 43683, "pitch": 35, "duration": 10, "velocity": 65}, {"time": 43683, "pitch": 42, "duration": 10, "velocity": 114}, {"time": 43683, "pitch": 69, "duration": 10, "velocity": 54}, {"time": 43683, "pitch": 80, "duration": 10, "velocity": 83}, {"time": 43824, "pitch": 38, "duration": 10, "velocity": 97}, {"time": 43923, "pitch": 35, "duration": 10, "velocity": 100}, {"time": 43923, "pitch": 42, "duration": 10, "velocity": 103}, {"time": 43923, "pitch": 69, "duration": 10, "velocity": 29}, {"time": 44063, "pitch": 69, "duration": 10, "velocity": 17}, {"time": 44162, "pitch": 40, "duration": 10, "velocity": 121}, {"time": 44162, "pitch": 42, "duration": 10, "velocity": 114}, {"time": 44162, "pitch": 69, "duration": 10, "velocity": 43}, {"time": 44402, "pitch": 35, "duration": 10, "velocity": 77}, {"time": 44402, "pitch": 42, "duration": 10, "velocity": 71}, {"time": 44402, "pitch": 69, "duration": 10, "velocity": 26}, {"time": 44541, "pitch": 35, "duration": 10, "velocity": 121}, {"time": 44542, "pitch": 38, "duration": 10, "velocity": 76}, {"time": 44641, "pitch": 35, "duration": 10, "velocity": 121}, {"time": 44641, "pitch": 38, "duration": 10, "velocity": 121}, {"time": 44641, "pitch": 42, "duration": 10, "velocity": 89}, {"time": 44781, "pitch": 38, "duration": 10, "velocity": 121}, {"time": 44881, "pitch": 42, "duration": 9, "velocity": 83}, {"time": 44881, "pitch": 69, "duration": 9, "velocity": 46}, {"time": 45021, "pitch": 69, "duration": 10, "velocity": 29}, {"time": 45120, "pitch": 42, "duration": 10, "velocity": 112}, {"time": 45261, "pitch": 69, "duration": 10, "velocity": 54}, {"time": 45359, "pitch": 35, "duration": 10, "velocity": 77}, {"time": 45359, "pitch": 42, "duration": 10, "velocity": 54}, {"time": 45359, "pitch": 69, "duration": 10, "velocity": 29}, {"time": 45500, "pitch": 38, "duration": 10, "velocity": 64}, {"time": 45599, "pitch": 35, "duration": 10, "velocity": 65}, {"time": 45599, "pitch": 42, "duration": 10, "velocity": 114}, {"time": 45599, "pitch": 69, "duration": 10, "velocity": 54}, {"time": 45740, "pitch": 38, "duration": 9, "velocity": 97}, {"time": 45838, "pitch": 35, "duration": 10, "velocity": 100}, {"time": 45838, "pitch": 42, "duration": 10, "velocity": 106}, {"time": 45838, "pitch": 69, "duration": 10, "velocity": 29}, {"time": 45979, "pitch": 69, "duration": 10, "velocity": 17}, {"time": 46078, "pitch": 40, "duration": 10, "velocity": 103}, {"time": 46078, "pitch": 42, "duration": 10, "velocity": 83}, {"time": 46078, "pitch": 54, "duration": 10, "velocity": 127}, {"time": 46078, "pitch": 69, "duration": 10, "velocity": 43}, {"time": 46218, "pitch": 45, "duration": 10, "velocity": 87}, {"time": 46317, "pitch": 35, "duration": 10, "velocity": 77}, {"time": 46317, "pitch": 41, "duration": 10, "velocity": 91}, {"time": 46317, "pitch": 42, "duration": 10, "velocity": 106}, {"time": 46317, "pitch": 69, "duration": 10, "velocity": 26}, {"time": 46457, "pitch": 46, "duration": 10, "velocity": 81}, {"time": 46458, "pitch": 38, "duration": 10, "velocity": 76}, {"time": 46557, "pitch": 35, "duration": 10, "velocity": 121}, {"time": 46557, "pitch": 36, "duration": 10, "velocity": 64}, {"time": 46557, "pitch": 42, "duration": 10, "velocity": 125}, {"time": 46557, "pitch": 46, "duration": 10, "velocity": 10}, {"time": 46557, "pitch": 49, "duration": 10, "velocity": 66}, {"time": 46557, "pitch": 54, "duration": 10, "velocity": 58}, {"time": 46700, "pitch": 54, "duration": 10, "velocity": 47}, {"time": 46800, "pitch": 35, "duration": 10, "velocity": 119}, {"time": 46800, "pitch": 42, "duration": 10, "velocity": 50}, {"time": 46800, "pitch": 54, "duration": 10, "velocity": 54}, {"time": 46800, "pitch": 69, "duration": 10, "velocity": 46}, {"time": 46943, "pitch": 36, "duration": 10, "velocity": 51}, {"time": 46943, "pitch": 46, "duration": 10, "velocity": 1}, {"time": 46943, "pitch": 54, "duration": 10, "velocity": 71}, {"time": 46943, "pitch": 69, "duration": 10, "velocity": 29}, {"time": 47043, "pitch": 40, "duration": 10, "velocity": 121}, {"time": 47043, "pitch": 42, "duration": 10, "velocity": 122}, {"time": 47043, "pitch": 54, "duration": 10, "velocity": 125}, {"time": 47184, "pitch": 54, "duration": 10, "velocity": 61}, {"time": 47184, "pitch": 69, "duration": 10, "velocity": 54}, {"time": 47283, "pitch": 35, "duration": 10, "velocity": 77}, {"time": 47283, "pitch": 42, "duration": 10, "velocity": 71}, {"time": 47283, "pitch": 54, "duration": 10, "velocity": 81}, {"time": 47283, "pitch": 69, "duration": 10, "velocity": 29}, {"time": 47423, "pitch": 38, "duration": 10, "velocity": 64}, {"time": 47423, "pitch": 54, "duration": 10, "velocity": 54}, {"time": 47522, "pitch": 35, "duration": 10, "velocity": 65}, {"time": 47522, "pitch": 36, "duration": 10, "velocity": 64}, {"time": 47522, "pitch": 42, "duration": 10, "velocity": 114}, {"time": 47522, "pitch": 46, "duration": 10, "velocity": 10}, {"time": 47522, "pitch": 54, "duration": 10, "velocity": 102}, {"time": 47522, "pitch": 69, "duration": 10, "velocity": 54}, {"time": 47663, "pitch": 38, "duration": 10, "velocity": 97}, {"time": 47663, "pitch": 54, "duration": 10, "velocity": 44}, {"time": 47762, "pitch": 35, "duration": 10, "velocity": 100}, {"time": 47762, "pitch": 46, "duration": 10, "velocity": 103}, {"time": 47762, "pitch": 54, "duration": 10, "velocity": 54}, {"time": 47762, "pitch": 69, "duration": 10, "velocity": 29}, {"time": 47902, "pitch": 54, "duration": 10, "velocity": 66}, {"time": 47902, "pitch": 69, "duration": 10, "velocity": 17}, {"time": 48001, "pitch": 40, "duration": 10, "velocity": 121}, {"time": 48001, "pitch": 42, "duration": 10, "velocity": 114}, {"time": 48001, "pitch": 54, "duration": 10, "velocity": 103}, {"time": 48001, "pitch": 69, "duration": 10, "velocity": 43}, {"time": 48142, "pitch": 54, "duration": 10, "velocity": 58}, {"time": 48240, "pitch": 35, "duration": 10, "velocity": 77}, {"time": 48240, "pitch": 36, "duration": 10, "velocity": 62}, {"time": 48240, "pitch": 42, "duration": 10, "velocity": 71}, {"time": 48240, "pitch": 46, "duration": 10, "velocity": 8}, {"time": 48240, "pitch": 54, "duration": 10, "velocity": 58}, {"time": 48240, "pitch": 69, "duration": 10, "velocity": 26}, {"time": 48381, "pitch": 38, "duration": 10, "velocity": 76}, {"time": 48381, "pitch": 54, "duration": 10, "velocity": 89}, {"time": 48480, "pitch": 35, "duration": 10, "velocity": 121}, {"time": 48480, "pitch": 36, "duration": 10, "velocity": 64}, {"time": 48480, "pitch": 42, "duration": 10, "velocity": 89}, {"time": 48480, "pitch": 46, "duration": 10, "velocity": 10}, {"time": 48480, "pitch": 54, "duration": 10, "velocity": 58}, {"time": 48621, "pitch": 54, "duration": 10, "velocity": 47}, {"time": 48719, "pitch": 35, "duration": 10, "velocity": 119}, {"time": 48719, "pitch": 42, "duration": 10, "velocity": 83}, {"time": 48719, "pitch": 54, "duration": 10, "velocity": 54}, {"time": 48719, "pitch": 69, "duration": 10, "velocity": 46}, {"time": 48860, "pitch": 36, "duration": 10, "velocity": 51}, {"time": 48860, "pitch": 46, "duration": 10, "velocity": 1}, {"time": 48860, "pitch": 54, "duration": 10, "velocity": 71}, {"time": 48860, "pitch": 69, "duration": 10, "velocity": 29}, {"time": 48959, "pitch": 40, "duration": 10, "velocity": 121}, {"time": 48959, "pitch": 42, "duration": 10, "velocity": 112}, {"time": 48959, "pitch": 54, "duration": 10, "velocity": 125}, {"time": 49099, "pitch": 54, "duration": 10, "velocity": 61}, {"time": 49099, "pitch": 69, "duration": 10, "velocity": 54}, {"time": 49198, "pitch": 35, "duration": 10, "velocity": 77}, {"time": 49198, "pitch": 42, "duration": 10, "velocity": 54}, {"time": 49198, "pitch": 54, "duration": 10, "velocity": 81}, {"time": 49198, "pitch": 69, "duration": 10, "velocity": 29}, {"time": 49339, "pitch": 38, "duration": 10, "velocity": 64}, {"time": 49339, "pitch": 54, "duration": 10, "velocity": 54}, {"time": 49438, "pitch": 35, "duration": 10, "velocity": 65}, {"time": 49438, "pitch": 36, "duration": 10, "velocity": 64}, {"time": 49438, "pitch": 42, "duration": 10, "velocity": 114}, {"time": 49438, "pitch": 46, "duration": 10, "velocity": 10}, {"time": 49438, "pitch": 54, "duration": 10, "velocity": 102}, {"time": 49438, "pitch": 69, "duration": 10, "velocity": 54}, {"time": 49578, "pitch": 38, "duration": 10, "velocity": 97}, {"time": 49578, "pitch": 54, "duration": 10, "velocity": 44}, {"time": 49677, "pitch": 35, "duration": 10, "velocity": 100}, {"time": 49677, "pitch": 46, "duration": 10, "velocity": 106}, {"time": 49677, "pitch": 54, "duration": 10, "velocity": 54}, {"time": 49677, "pitch": 69, "duration": 10, "velocity": 29}, {"time": 49818, "pitch": 54, "duration": 10, "velocity": 66}, {"time": 49818, "pitch": 69, "duration": 10, "velocity": 17}, {"time": 49917, "pitch": 40, "duration": 10, "velocity": 121}, {"time": 49917, "pitch": 42, "duration": 10, "velocity": 83}, {"time": 49917, "pitch": 54, "duration": 10, "velocity": 103}, {"time": 49917, "pitch": 69, "duration": 10, "velocity": 43}, {"time": 50059, "pitch": 54, "duration": 11, "velocity": 58}, {"time": 50160, "pitch": 35, "duration": 10, "velocity": 77}, {"time": 50160, "pitch": 36, "duration": 10, "velocity": 62}, {"time": 50160, "pitch": 42, "duration": 10, "velocity": 83}, {"time": 50160, "pitch": 46, "duration": 10, "velocity": 8}, {"time": 50160, "pitch": 54, "duration": 10, "velocity": 58}, {"time": 50160, "pitch": 69, "duration": 10, "velocity": 26}, {"time": 50303, "pitch": 38, "duration": 10, "velocity": 76}, {"time": 50303, "pitch": 54, "duration": 10, "velocity": 89}, {"time": 50403, "pitch": 35, "duration": 10, "velocity": 121}, {"time": 50403, "pitch": 36, "duration": 10, "velocity": 64}, {"time": 50403, "pitch": 42, "duration": 10, "velocity": 125}, {"time": 50403, "pitch": 46, "duration": 10, "velocity": 10}, {"time": 50403, "pitch": 54, "duration": 10, "velocity": 58}, {"time": 50544, "pitch": 54, "duration": 10, "velocity": 47}, {"time": 50643, "pitch": 35, "duration": 10, "velocity": 119}, {"time": 50643, "pitch": 42, "duration": 10, "velocity": 50}, {"time": 50643, "pitch": 54, "duration": 10, "velocity": 54}, {"time": 50643, "pitch": 69, "duration": 10, "velocity": 46}, {"time": 50783, "pitch": 36, "duration": 10, "velocity": 51}, {"time": 50783, "pitch": 46, "duration": 10, "velocity": 1}, {"time": 50783, "pitch": 54, "duration": 10, "velocity": 71}, {"time": 50783, "pitch": 69, "duration": 10, "velocity": 29}, {"time": 50882, "pitch": 40, "duration": 10, "velocity": 121}, {"time": 50882, "pitch": 42, "duration": 10, "velocity": 122}, {"time": 50882, "pitch": 54, "duration": 10, "velocity": 125}, {"time": 51023, "pitch": 54, "duration": 10, "velocity": 61}, {"time": 51023, "pitch": 69, "duration": 10, "velocity": 54}, {"time": 51121, "pitch": 35, "duration": 10, "velocity": 77}, {"time": 51121, "pitch": 42, "duration": 10, "velocity": 71}, {"time": 51121, "pitch": 54, "duration": 10, "velocity": 81}, {"time": 51121, "pitch": 69, "duration": 10, "velocity": 29}, {"time": 51262, "pitch": 38, "duration": 10, "velocity": 64}, {"time": 51262, "pitch": 54, "duration": 10, "velocity": 54}, {"time": 51361, "pitch": 35, "duration": 10, "velocity": 65}, {"time": 51361, "pitch": 36, "duration": 10, "velocity": 64}, {"time": 51361, "pitch": 42, "duration": 10, "velocity": 114}, {"time": 51361, "pitch": 46, "duration": 10, "velocity": 10}, {"time": 51361, "pitch": 54, "duration": 10, "velocity": 102}, {"time": 51361, "pitch": 69, "duration": 10, "velocity": 54}, {"time": 51502, "pitch": 38, "duration": 10, "velocity": 97}, {"time": 51502, "pitch": 54, "duration": 10, "velocity": 44}, {"time": 51600, "pitch": 35, "duration": 10, "velocity": 100}, {"time": 51600, "pitch": 46, "duration": 10, "velocity": 103}, {"time": 51600, "pitch": 54, "duration": 10, "velocity": 54}, {"time": 51600, "pitch": 69, "duration": 10, "velocity": 29}, {"time": 51741, "pitch": 54, "duration": 10, "velocity": 66}, {"time": 51741, "pitch": 69, "duration": 10, "velocity": 17}, {"time": 51840, "pitch": 40, "duration": 10, "velocity": 121}, {"time": 51840, "pitch": 42, "duration": 10, "velocity": 114}, {"time": 51840, "pitch": 54, "duration": 10, "velocity": 103}, {"time": 51840, "pitch": 69, "duration": 10, "velocity": 43}, {"time": 51980, "pitch": 54, "duration": 10, "velocity": 58}, {"time": 52079, "pitch": 35, "duration": 10, "velocity": 77}, {"time": 52079, "pitch": 36, "duration": 10, "velocity": 62}, {"time": 52079, "pitch": 42, "duration": 10, "velocity": 71}, {"time": 52079, "pitch": 46, "duration": 10, "velocity": 8}, {"time": 52079, "pitch": 54, "duration": 10, "velocity": 58}, {"time": 52079, "pitch": 69, "duration": 10, "velocity": 26}, {"time": 52220, "pitch": 38, "duration": 10, "velocity": 76}, {"time": 52220, "pitch": 54, "duration": 10, "velocity": 89}, {"time": 52319, "pitch": 35, "duration": 10, "velocity": 121}, {"time": 52319, "pitch": 36, "duration": 10, "velocity": 64}, {"time": 52319, "pitch": 42, "duration": 10, "velocity": 89}, {"time": 52319, "pitch": 46, "duration": 10, "velocity": 10}, {"time": 52319, "pitch": 54, "duration": 10, "velocity": 58}, {"time": 52459, "pitch": 54, "duration": 10, "velocity": 47}, {"time": 52558, "pitch": 35, "duration": 10, "velocity": 119}, {"time": 52558, "pitch": 42, "duration": 10, "velocity": 83}, {"time": 52558, "pitch": 54, "duration": 10, "velocity": 54}, {"time": 52558, "pitch": 69, "duration": 10, "velocity": 46}, {"time": 52699, "pitch": 36, "duration": 10, "velocity": 51}, {"time": 52699, "pitch": 46, "duration": 10, "velocity": 1}, {"time": 52699, "pitch": 54, "duration": 10, "velocity": 71}, {"time": 52699, "pitch": 69, "duration": 10, "velocity": 29}, {"time": 52798, "pitch": 40, "duration": 10, "velocity": 121}, {"time": 52798, "pitch": 42, "duration": 10, "velocity": 112}, {"time": 52798, "pitch": 54, "duration": 10, "velocity": 125}, {"time": 52938, "pitch": 54, "duration": 10, "velocity": 61}, {"time": 52938, "pitch": 69, "duration": 10, "velocity": 54}, {"time": 53037, "pitch": 35, "duration": 10, "velocity": 77}, {"time": 53037, "pitch": 42, "duration": 10, "velocity": 54}, {"time": 53037, "pitch": 54, "duration": 10, "velocity": 81}, {"time": 53037, "pitch": 69, "duration": 10, "velocity": 29}, {"time": 53178, "pitch": 38, "duration": 10, "velocity": 64}, {"time": 53178, "pitch": 54, "duration": 10, "velocity": 54}, {"time": 53276, "pitch": 35, "duration": 11, "velocity": 65}, {"time": 53276, "pitch": 36, "duration": 11, "velocity": 64}, {"time": 53276, "pitch": 42, "duration": 11, "velocity": 114}, {"time": 53276, "pitch": 46, "duration": 11, "velocity": 10}, {"time": 53276, "pitch": 54, "duration": 11, "velocity": 102}, {"time": 53276, "pitch": 69, "duration": 11, "velocity": 54}, {"time": 53419, "pitch": 38, "duration": 10, "velocity": 97}, {"time": 53419, "pitch": 54, "duration": 10, "velocity": 44}, {"time": 53520, "pitch": 35, "duration": 10, "velocity": 100}, {"time": 53520, "pitch": 46, "duration": 10, "velocity": 106}, {"time": 53520, "pitch": 54, "duration": 10, "velocity": 54}, {"time": 53520, "pitch": 69, "duration": 10, "velocity": 29}, {"time": 53663, "pitch": 54, "duration": 10, "velocity": 66}, {"time": 53663, "pitch": 69, "duration": 10, "velocity": 17}, {"time": 53763, "pitch": 40, "duration": 10, "velocity": 121}, {"time": 53763, "pitch": 42, "duration": 10, "velocity": 83}, {"time": 53763, "pitch": 54, "duration": 10, "velocity": 103}, {"time": 53763, "pitch": 69, "duration": 10, "velocity": 43}, {"time": 53904, "pitch": 54, "duration": 10, "velocity": 58}, {"time": 54002, "pitch": 35, "duration": 10, "velocity": 77}, {"time": 54002, "pitch": 36, "duration": 10, "velocity": 62}, {"time": 54002, "pitch": 42, "duration": 10, "velocity": 83}, {"time": 54002, "pitch": 46, "duration": 10, "velocity": 8}, {"time": 54002, "pitch": 54, "duration": 10, "velocity": 58}, {"time": 54002, "pitch": 69, "duration": 10, "velocity": 26}, {"time": 54143, "pitch": 38, "duration": 10, "velocity": 76}, {"time": 54143, "pitch": 54, "duration": 10, "velocity": 89}, {"time": 54242, "pitch": 35, "duration": 10, "velocity": 121}, {"time": 54242, "pitch": 36, "duration": 10, "velocity": 64}, {"time": 54242, "pitch": 42, "duration": 10, "velocity": 125}, {"time": 54242, "pitch": 46, "duration": 10, "velocity": 10}, {"time": 54242, "pitch": 54, "duration": 10, "velocity": 58}, {"time": 54242, "pitch": 57, "duration": 10, "velocity": 60}, {"time": 54383, "pitch": 54, "duration": 10, "velocity": 47}, {"time": 54481, "pitch": 35, "duration": 10, "velocity": 119}, {"time": 54481, "pitch": 42, "duration": 10, "velocity": 50}, {"time": 54481, "pitch": 54, "duration": 10, "velocity": 54}, {"time": 54481, "pitch": 69, "duration": 10, "velocity": 46}, {"time": 54622, "pitch": 36, "duration": 10, "velocity": 51}, {"time": 54622, "pitch": 46, "duration": 10, "velocity": 1}, {"time": 54622, "pitch": 54, "duration": 10, "velocity": 71}, {"time": 54622, "pitch": 69, "duration": 10, "velocity": 29}, {"time": 54721, "pitch": 40, "duration": 10, "velocity": 121}, {"time": 54721, "pitch": 42, "duration": 10, "velocity": 122}, {"time": 54721, "pitch": 54, "duration": 10, "velocity": 125}, {"time": 54861, "pitch": 54, "duration": 10, "velocity": 61}, {"time": 54861, "pitch": 69, "duration": 10, "velocity": 54}, {"time": 54960, "pitch": 35, "duration": 10, "velocity": 77}, {"time": 54960, "pitch": 42, "duration": 10, "velocity": 71}, {"time": 54960, "pitch": 54, "duration": 10, "velocity": 81}, {"time": 54960, "pitch": 69, "duration": 10, "velocity": 29}, {"time": 55101, "pitch": 38, "duration": 10, "velocity": 64}, {"time": 55101, "pitch": 54, "duration": 10, "velocity": 54}, {"time": 55200, "pitch": 35, "duration": 10, "velocity": 65}, {"time": 55200, "pitch": 36, "duration": 10, "velocity": 64}, {"time": 55200, "pitch": 42, "duration": 10, "velocity": 114}, {"time": 55200, "pitch": 46, "duration": 10, "velocity": 10}, {"time": 55200, "pitch": 54, "duration": 10, "velocity": 102}, {"time": 55200, "pitch": 69, "duration": 10, "velocity": 54}, {"time": 55340, "pitch": 38, "duration": 10, "velocity": 97}, {"time": 55340, "pitch": 54, "duration": 10, "velocity": 44}, {"time": 55439, "pitch": 35, "duration": 10, "velocity": 100}, {"time": 55439, "pitch": 46, "duration": 10, "velocity": 103}, {"time": 55439, "pitch": 54, "duration": 10, "velocity": 54}, {"time": 55439, "pitch": 69, "duration": 10, "velocity": 29}, {"time": 55580, "pitch": 54, "duration": 10, "velocity": 66}, {"time": 55580, "pitch": 69, "duration": 10, "velocity": 17}, {"time": 55679, "pitch": 40, "duration": 10, "velocity": 121}, {"time": 55679, "pitch": 42, "duration": 10, "velocity": 114}, {"time": 55679, "pitch": 54, "duration": 10, "velocity": 103}, {"time": 55679, "pitch": 69, "duration": 10, "velocity": 43}, {"time": 55819, "pitch": 54, "duration": 10, "velocity": 58}, {"time": 55918, "pitch": 35, "duration": 10, "velocity": 77}, {"time": 55918, "pitch": 36, "duration": 10, "velocity": 62}, {"time": 55918, "pitch": 42, "duration": 10, "velocity": 71}, {"time": 55918, "pitch": 46, "duration": 10, "velocity": 8}, {"time": 55918, "pitch": 54, "duration": 10, "velocity": 58}, {"time": 55918, "pitch": 69, "duration": 10, "velocity": 26}, {"time": 56059, "pitch": 38, "duration": 10, "velocity": 76}, {"time": 56059, "pitch": 54, "duration": 10, "velocity": 89}, {"time": 56157, "pitch": 35, "duration": 10, "velocity": 121}, {"time": 56157, "pitch": 36, "duration": 10, "velocity": 64}, {"time": 56157, "pitch": 42, "duration": 10, "velocity": 89}, {"time": 56157, "pitch": 46, "duration": 10, "velocity": 10}, {"time": 56157, "pitch": 54, "duration": 10, "velocity": 58}, {"time": 56298, "pitch": 54, "duration": 10, "velocity": 47}, {"time": 56397, "pitch": 35, "duration": 10, "velocity": 119}, {"time": 56397, "pitch": 42, "duration": 10, "velocity": 83}, {"time": 56397, "pitch": 54, "duration": 10, "velocity": 54}, {"time": 56397, "pitch": 69, "duration": 10, "velocity": 46}, {"time": 56538, "pitch": 36, "duration": 10, "velocity": 51}, {"time": 56538, "pitch": 46, "duration": 10, "velocity": 1}, {"time": 56538, "pitch": 54, "duration": 10, "velocity": 71}, {"time": 56538, "pitch": 69, "duration": 10, "velocity": 29}, {"time": 56636, "pitch": 40, "duration": 10, "velocity": 121}, {"time": 56636, "pitch": 42, "duration": 10, "velocity": 112}, {"time": 56636, "pitch": 54, "duration": 10, "velocity": 125}, {"time": 56779, "pitch": 54, "duration": 10, "velocity": 61}, {"time": 56779, "pitch": 69, "duration": 10, "velocity": 54}, {"time": 56880, "pitch": 35, "duration": 10, "velocity": 77}, {"time": 56880, "pitch": 42, "duration": 10, "velocity": 54}, {"time": 56880, "pitch": 54, "duration": 10, "velocity": 81}, {"time": 56880, "pitch": 57, "duration": 10, "velocity": 75}, {"time": 56880, "pitch": 69, "duration": 10, "velocity": 29}, {"time": 57023, "pitch": 38, "duration": 10, "velocity": 64}, {"time": 57023, "pitch": 54, "duration": 10, "velocity": 54}, {"time": 57123, "pitch": 35, "duration": 10, "velocity": 65}, {"time": 57123, "pitch": 36, "duration": 10, "velocity": 64}, {"time": 57123, "pitch": 42, "duration": 10, "velocity": 114}, {"time": 57123, "pitch": 46, "duration": 10, "velocity": 10}, {"time": 57123, "pitch": 54, "duration": 10, "velocity": 102}, {"time": 57123, "pitch": 69, "duration": 10, "velocity": 54}, {"time": 57264, "pitch": 38, "duration": 10, "velocity": 97}, {"time": 57264, "pitch": 54, "duration": 10, "velocity": 44}, {"time": 57362, "pitch": 35, "duration": 10, "velocity": 100}, {"time": 57362, "pitch": 46, "duration": 10, "velocity": 106}, {"time": 57362, "pitch": 54, "duration": 10, "velocity": 54}, {"time": 57362, "pitch": 69, "duration": 10, "velocity": 29}, {"time": 57503, "pitch": 54, "duration": 10, "velocity": 66}, {"time": 57503, "pitch": 69, "duration": 10, "velocity": 17}, {"time": 57602, "pitch": 40, "duration": 10, "velocity": 121}, {"time": 57602, "pitch": 42, "duration": 10, "velocity": 83}, {"time": 57602, "pitch": 54, "duration": 10, "velocity": 103}, {"time": 57602, "pitch": 69, "duration": 10, "velocity": 43}, {"time": 57743, "pitch": 54, "duration": 9, "velocity": 58}, {"time": 57841, "pitch": 35, "duration": 10, "velocity": 77}, {"time": 57841, "pitch": 36, "duration": 10, "velocity": 62}, {"time": 57841, "pitch": 42, "duration": 10, "velocity": 83}, {"time": 57841, "pitch": 46, "duration": 10, "velocity": 8}, {"time": 57841, "pitch": 54, "duration": 10, "velocity": 58}, {"time": 57841, "pitch": 69, "duration": 10, "velocity": 26}, {"time": 57982, "pitch": 38, "duration": 10, "velocity": 76}, {"time": 57982, "pitch": 54, "duration": 10, "velocity": 89}, {"time": 58081, "pitch": 35, "duration": 10, "velocity": 121}, {"time": 58081, "pitch": 36, "duration": 10, "velocity": 64}, {"time": 58081, "pitch": 42, "duration": 10, "velocity": 125}, {"time": 58081, "pitch": 46, "duration": 10, "velocity": 10}, {"time": 58081, "pitch": 54, "duration": 10, "velocity": 58}, {"time": 58221, "pitch": 54, "duration": 10, "velocity": 47}, {"time": 58320, "pitch": 35, "duration": 10, "velocity": 119}, {"time": 58320, "pitch": 42, "duration": 10, "velocity": 50}, {"time": 58320, "pitch": 54, "duration": 10, "velocity": 54}, {"time": 58320, "pitch": 69, "duration": 10, "velocity": 46}, {"time": 58461, "pitch": 36, "duration": 10, "velocity": 51}, {"time": 58461, "pitch": 46, "duration": 10, "velocity": 1}, {"time": 58461, "pitch": 54, "duration": 10, "velocity": 71}, {"time": 58461, "pitch": 69, "duration": 10, "velocity": 29}, {"time": 58560, "pitch": 40, "duration": 10, "velocity": 121}, {"time": 58560, "pitch": 42, "duration": 10, "velocity": 122}, {"time": 58560, "pitch": 54, "duration": 10, "velocity": 125}, {"time": 58700, "pitch": 54, "duration": 10, "velocity": 61}, {"time": 58700, "pitch": 69, "duration": 10, "velocity": 54}, {"time": 58799, "pitch": 35, "duration": 10, "velocity": 77}, {"time": 58799, "pitch": 42, "duration": 10, "velocity": 71}, {"time": 58799, "pitch": 54, "duration": 10, "velocity": 81}, {"time": 58799, "pitch": 69, "duration": 10, "velocity": 29}, {"time": 58940, "pitch": 38, "duration": 10, "velocity": 64}, {"time": 58940, "pitch": 54, "duration": 10, "velocity": 54}, {"time": 59038, "pitch": 35, "duration": 10, "velocity": 65}, {"time": 59038, "pitch": 36, "duration": 10, "velocity": 64}, {"time": 59038, "pitch": 42, "duration": 10, "velocity": 114}, {"time": 59038, "pitch": 46, "duration": 10, "velocity": 10}, {"time": 59038, "pitch": 54, "duration": 10, "velocity": 102}, {"time": 59038, "pitch": 69, "duration": 10, "velocity": 54}, {"time": 59179, "pitch": 38, "duration": 10, "velocity": 97}, {"time": 59179, "pitch": 54, "duration": 10, "velocity": 44}, {"time": 59278, "pitch": 35, "duration": 10, "velocity": 100}, {"time": 59278, "pitch": 46, "duration": 10, "velocity": 103}, {"time": 59278, "pitch": 54, "duration": 10, "velocity": 54}, {"time": 59278, "pitch": 69, "duration": 10, "velocity": 29}, {"time": 59419, "pitch": 54, "duration": 10, "velocity": 66}, {"time": 59419, "pitch": 69, "duration": 10, "velocity": 17}, {"time": 59517, "pitch": 40, "duration": 10, "velocity": 121}, {"time": 59517, "pitch": 42, "duration": 10, "velocity": 114}, {"time": 59517, "pitch": 54, "duration": 10, "velocity": 103}, {"time": 59517, "pitch": 69, "duration": 10, "velocity": 43}, {"time": 59658, "pitch": 54, "duration": 10, "velocity": 58}, {"time": 59757, "pitch": 35, "duration": 10, "velocity": 77}, {"time": 59757, "pitch": 36, "duration": 10, "velocity": 62}, {"time": 59757, "pitch": 42, "duration": 10, "velocity": 71}, {"time": 59757, "pitch": 46, "duration": 10, "velocity": 8}, {"time": 59757, "pitch": 54, "duration": 10, "velocity": 58}, {"time": 59757, "pitch": 69, "duration": 10, "velocity": 26}, {"time": 59897, "pitch": 38, "duration": 10, "velocity": 76}, {"time": 59897, "pitch": 54, "duration": 10, "velocity": 89}, {"time": 59996, "pitch": 35, "duration": 10, "velocity": 121}, {"time": 59996, "pitch": 36, "duration": 10, "velocity": 64}, {"time": 59996, "pitch": 42, "duration": 10, "velocity": 89}, {"time": 59996, "pitch": 46, "duration": 10, "velocity": 10}, {"time": 59996, "pitch": 54, "duration": 10, "velocity": 58}, {"time": 60139, "pitch": 54, "duration": 10, "velocity": 47}, {"time": 60240, "pitch": 35, "duration": 10, "velocity": 119}, {"time": 60240, "pitch": 42, "duration": 10, "velocity": 83}, {"time": 60240, "pitch": 54, "duration": 10, "velocity": 54}, {"time": 60240, "pitch": 69, "duration": 10, "velocity": 46}, {"time": 60383, "pitch": 36, "duration": 10, "velocity": 51}, {"time": 60383, "pitch": 46, "duration": 10, "velocity": 1}, {"time": 60383, "pitch": 54, "duration": 10, "velocity": 71}, {"time": 60383, "pitch": 69, "duration": 10, "velocity": 29}, {"time": 60483, "pitch": 40, "duration": 10, "velocity": 121}, {"time": 60483, "pitch": 42, "duration": 10, "velocity": 112}, {"time": 60483, "pitch": 54, "duration": 10, "velocity": 125}, {"time": 60624, "pitch": 54, "duration": 10, "velocity": 61}, {"time": 60624, "pitch": 69, "duration": 10, "velocity": 54}, {"time": 60722, "pitch": 35, "duration": 10, "velocity": 77}, {"time": 60722, "pitch": 42, "duration": 10, "velocity": 54}, {"time": 60722, "pitch": 54, "duration": 10, "velocity": 81}, {"time": 60722, "pitch": 69, "duration": 10, "velocity": 29}, {"time": 60863, "pitch": 38, "duration": 10, "velocity": 64}, {"time": 60863, "pitch": 54, "duration": 10, "velocity": 54}, {"time": 60962, "pitch": 35, "duration": 10, "velocity": 65}, {"time": 60962, "pitch": 36, "duration": 10, "velocity": 64}, {"time": 60962, "pitch": 42, "duration": 10, "velocity": 114}, {"time": 60962, "pitch": 46, "duration": 10, "velocity": 10}, {"time": 60962, "pitch": 54, "duration": 10, "velocity": 102}, {"time": 60962, "pitch": 69, "duration": 10, "velocity": 54}, {"time": 61102, "pitch": 38, "duration": 10, "velocity": 97}, {"time": 61102, "pitch": 54, "duration": 10, "velocity": 44}, {"time": 61201, "pitch": 35, "duration": 10, "velocity": 100}, {"time": 61201, "pitch": 46, "duration": 10, "velocity": 106}, {"time": 61201, "pitch": 54, "duration": 10, "velocity": 54}, {"time": 61201, "pitch": 69, "duration": 10, "velocity": 29}, {"time": 61342, "pitch": 54, "duration": 10, "velocity": 66}, {"time": 61342, "pitch": 69, "duration": 10, "velocity": 17}, {"time": 61441, "pitch": 40, "duration": 10, "velocity": 121}, {"time": 61441, "pitch": 42, "duration": 10, "velocity": 83}, {"time": 61441, "pitch": 54, "duration": 10, "velocity": 103}, {"time": 61441, "pitch": 69, "duration": 10, "velocity": 43}, {"time": 61581, "pitch": 54, "duration": 10, "velocity": 58}, {"time": 61680, "pitch": 35, "duration": 10, "velocity": 77}, {"time": 61680, "pitch": 36, "duration": 10, "velocity": 62}, {"time": 61680, "pitch": 42, "duration": 10, "velocity": 83}, {"time": 61680, "pitch": 46, "duration": 10, "velocity": 8}, {"time": 61680, "pitch": 54, "duration": 10, "velocity": 58}, {"time": 61680, "pitch": 69, "duration": 10, "velocity": 26}, {"time": 61821, "pitch": 38, "duration": 10, "velocity": 76}, {"time": 61821, "pitch": 54, "duration": 10, "velocity": 89}, {"time": 61920, "pitch": 35, "duration": 10, "velocity": 121}, {"time": 61920, "pitch": 42, "duration": 10, "velocity": 125}, {"time": 62159, "pitch": 35, "duration": 10, "velocity": 119}, {"time": 62159, "pitch": 42, "duration": 10, "velocity": 50}, {"time": 62159, "pitch": 69, "duration": 10, "velocity": 46}, {"time": 62300, "pitch": 69, "duration": 10, "velocity": 29}, {"time": 62398, "pitch": 38, "duration": 10, "velocity": 121}, {"time": 62398, "pitch": 42, "duration": 10, "velocity": 122}, {"time": 62539, "pitch": 69, "duration": 10, "velocity": 54}, {"time": 62638, "pitch": 35, "duration": 10, "velocity": 77}, {"time": 62638, "pitch": 42, "duration": 10, "velocity": 71}, {"time": 62638, "pitch": 69, "duration": 10, "velocity": 29}, {"time": 62779, "pitch": 38, "duration": 10, "velocity": 64}, {"time": 62877, "pitch": 35, "duration": 10, "velocity": 65}, {"time": 62877, "pitch": 42, "duration": 10, "velocity": 114}, {"time": 62877, "pitch": 69, "duration": 10, "velocity": 54}, {"time": 63018, "pitch": 38, "duration": 10, "velocity": 97}, {"time": 63117, "pitch": 35, "duration": 10, "velocity": 100}, {"time": 63117, "pitch": 46, "duration": 10, "velocity": 103}, {"time": 63117, "pitch": 69, "duration": 10, "velocity": 29}, {"time": 63257, "pitch": 69, "duration": 10, "velocity": 17}, {"time": 63356, "pitch": 38, "duration": 10, "velocity": 121}, {"time": 63356, "pitch": 42, "duration": 10, "velocity": 114}, {"time": 63356, "pitch": 69, "duration": 10, "velocity": 43}, {"time": 63599, "pitch": 35, "duration": 11, "velocity": 77}, {"time": 63599, "pitch": 42, "duration": 11, "velocity": 71}, {"time": 63599, "pitch": 69, "duration": 11, "velocity": 26}, {"time": 63742, "pitch": 38, "duration": 11, "velocity": 76}, {"time": 63843, "pitch": 35, "duration": 10, "velocity": 121}, {"time": 63843, "pitch": 42, "duration": 10, "velocity": 89}, {"time": 64082, "pitch": 35, "duration": 10, "velocity": 119}, {"time": 64082, "pitch": 42, "duration": 10, "velocity": 83}, {"time": 64082, "pitch": 69, "duration": 10, "velocity": 46}, {"time": 64223, "pitch": 69, "duration": 10, "velocity": 29}, {"time": 64322, "pitch": 38, "duration": 10, "velocity": 121}, {"time": 64322, "pitch": 42, "duration": 10, "velocity": 112}, {"time": 64462, "pitch": 69, "duration": 10, "velocity": 54}, {"time": 64561, "pitch": 35, "duration": 10, "velocity": 77}, {"time": 64561, "pitch": 42, "duration": 10, "velocity": 54}, {"time": 64561, "pitch": 69, "duration": 10, "velocity": 29}, {"time": 64702, "pitch": 38, "duration": 10, "velocity": 64}, {"time": 64801, "pitch": 35, "duration": 10, "velocity": 65}, {"time": 64801, "pitch": 42, "duration": 10, "velocity": 114}, {"time": 64801, "pitch": 69, "duration": 10, "velocity": 54}, {"time": 64941, "pitch": 38, "duration": 10, "velocity": 97}, {"time": 65040, "pitch": 35, "duration": 10, "velocity": 100}, {"time": 65040, "pitch": 46, "duration": 10, "velocity": 106}, {"time": 65040, "pitch": 69, "duration": 10, "velocity": 29}, {"time": 65181, "pitch": 69, "duration": 10, "velocity": 17}, {"time": 65279, "pitch": 38, "duration": 10, "velocity": 121}, {"time": 65279, "pitch": 42, "duration": 10, "velocity": 83}, {"time": 65279, "pitch": 69, "duration": 10, "velocity": 43}, {"time": 65519, "pitch": 35, "duration": 10, "velocity": 77}, {"time": 65519, "pitch": 42, "duration": 10, "velocity": 83}, {"time": 65519, "pitch": 69, "duration": 10, "velocity": 26}, {"time": 65660, "pitch": 38, "duration": 10, "velocity": 76}, {"time": 65758, "pitch": 35, "duration": 10, "velocity": 121}, {"time": 65758, "pitch": 42, "duration": 10, "velocity": 125}, {"time": 65998, "pitch": 35, "duration": 10, "velocity": 119}, {"time": 65998, "pitch": 42, "duration": 10, "velocity": 50}, {"time": 65998, "pitch": 69, "duration": 10, "velocity": 46}, {"time": 66138, "pitch": 69, "duration": 10, "velocity": 29}, {"time": 66237, "pitch": 38, "duration": 10, "velocity": 121}, {"time": 66237, "pitch": 42, "duration": 10, "velocity": 122}, {"time": 66380, "pitch": 69, "duration": 10, "velocity": 54}, {"time": 66481, "pitch": 35, "duration": 10, "velocity": 77}, {"time": 66481, "pitch": 42, "duration": 10, "velocity": 71}, {"time": 66481, "pitch": 69, "duration": 10, "velocity": 29}, {"time": 66624, "pitch": 38, "duration": 10, "velocity": 64}, {"time": 66724, "pitch": 35, "duration": 10, "velocity": 65}, {"time": 66724, "pitch": 42, "duration": 10, "velocity": 114}, {"time": 66724, "pitch": 69, "duration": 10, "velocity": 54}, {"time": 66865, "pitch": 38, "duration": 9, "velocity": 97}, {"time": 66963, "pitch": 35, "duration": 10, "velocity": 100}, {"time": 66963, "pitch": 46, "duration": 10, "velocity": 103}, {"time": 66963, "pitch": 69, "duration": 10, "velocity": 29}, {"time": 67104, "pitch": 69, "duration": 10, "velocity": 17}, {"time": 67203, "pitch": 38, "duration": 10, "velocity": 121}, {"time": 67203, "pitch": 42, "duration": 10, "velocity": 114}, {"time": 67203, "pitch": 69, "duration": 10, "velocity": 43}, {"time": 67442, "pitch": 35, "duration": 10, "velocity": 77}, {"time": 67442, "pitch": 42, "duration": 10, "velocity": 71}, {"time": 67442, "pitch": 69, "duration": 10, "velocity": 26}, {"time": 67583, "pitch": 38, "duration": 10, "velocity": 76}, {"time": 67682, "pitch": 35, "duration": 10, "velocity": 121}, {"time": 67682, "pitch": 42, "duration": 10, "velocity": 89}, {"time": 67921, "pitch": 35, "duration": 10, "velocity": 119}, {"time": 67921, "pitch": 42, "duration": 10, "velocity": 83}, {"time": 67921, "pitch": 69, "duration": 10, "velocity": 46}, {"time": 68062, "pitch": 69, "duration": 10, "velocity": 29}, {"time": 68160, "pitch": 38, "duration": 10, "velocity": 121}, {"time": 68160, "pitch": 42, "duration": 10, "velocity": 112}, {"time": 68301, "pitch": 69, "duration": 10, "velocity": 54}, {"time": 68400, "pitch": 35, "duration": 10, "velocity": 77}, {"time": 68400, "pitch": 42, "duration": 10, "velocity": 54}, {"time": 68400, "pitch": 69, "duration": 10, "velocity": 29}, {"time": 68541, "pitch": 38, "duration": 10, "velocity": 64}, {"time": 68639, "pitch": 35, "duration": 10, "velocity": 65}, {"time": 68639, "pitch": 42, "duration": 10, "velocity": 114}, {"time": 68639, "pitch": 69, "duration": 10, "velocity": 54}, {"time": 68780, "pitch": 38, "duration": 10, "velocity": 97}, {"time": 68879, "pitch": 35, "duration": 10, "velocity": 100}, {"time": 68879, "pitch": 46, "duration": 10, "velocity": 106}, {"time": 68879, "pitch": 69, "duration": 10, "velocity": 29}, {"time": 69019, "pitch": 69, "duration": 10, "velocity": 17}, {"time": 69118, "pitch": 38, "duration": 10, "velocity": 121}, {"time": 69118, "pitch": 42, "duration": 10, "velocity": 83}, {"time": 69118, "pitch": 69, "duration": 10, "velocity": 43}, {"time": 69358, "pitch": 35, "duration": 10, "velocity": 77}, {"time": 69358, "pitch": 42, "duration": 10, "velocity": 83}, {"time": 69358, "pitch": 69, "duration": 10, "velocity": 26}, {"time": 69498, "pitch": 38, "duration": 10, "velocity": 76}, {"time": 69597, "pitch": 35, "duration": 10, "velocity": 121}, {"time": 69597, "pitch": 42, "duration": 10, "velocity": 125}, {"time": 69840, "pitch": 35, "duration": 11, "velocity": 119}, {"time": 69840, "pitch": 42, "duration": 11, "velocity": 50}, {"time": 69840, "pitch": 69, "duration": 11, "velocity": 46}, {"time": 69983, "pitch": 69, "duration": 11, "velocity": 29}, {"time": 70084, "pitch": 38, "duration": 10, "velocity": 121}, {"time": 70084, "pitch": 42, "duration": 10, "velocity": 122}, {"time": 70224, "pitch": 69, "duration": 10, "velocity": 54}, {"time": 70323, "pitch": 35, "duration": 10, "velocity": 77}, {"time": 70323, "pitch": 42, "duration": 10, "velocity": 71}, {"time": 70323, "pitch": 69, "duration": 10, "velocity": 29}, {"time": 70464, "pitch": 38, "duration": 10, "velocity": 64}, {"time": 70563, "pitch": 35, "duration": 10, "velocity": 65}, {"time": 70563, "pitch": 42, "duration": 10, "velocity": 114}, {"time": 70563, "pitch": 69, "duration": 10, "velocity": 54}, {"time": 70703, "pitch": 38, "duration": 10, "velocity": 97}, {"time": 70802, "pitch": 35, "duration": 10, "velocity": 100}, {"time": 70802, "pitch": 46, "duration": 10, "velocity": 103}, {"time": 70802, "pitch": 69, "duration": 10, "velocity": 29}, {"time": 70943, "pitch": 69, "duration": 10, "velocity": 17}, {"time": 71042, "pitch": 38, "duration": 9, "velocity": 121}, {"time": 71042, "pitch": 42, "duration": 9, "velocity": 114}, {"time": 71042, "pitch": 69, "duration": 9, "velocity": 43}, {"time": 71281, "pitch": 35, "duration": 10, "velocity": 77}, {"time": 71281, "pitch": 42, "duration": 10, "velocity": 71}, {"time": 71281, "pitch": 69, "duration": 10, "velocity": 26}, {"time": 71422, "pitch": 38, "duration": 10, "velocity": 76}, {"time": 71520, "pitch": 35, "duration": 10, "velocity": 121}, {"time": 71520, "pitch": 42, "duration": 10, "velocity": 89}, {"time": 71760, "pitch": 35, "duration": 10, "velocity": 119}, {"time": 71760, "pitch": 42, "duration": 10, "velocity": 83}, {"time": 71760, "pitch": 69, "duration": 10, "velocity": 46}, {"time": 71901, "pitch": 69, "duration": 9, "velocity": 29}, {"time": 71999, "pitch": 38, "duration": 10, "velocity": 121}, {"time": 71999, "pitch": 42, "duration": 10, "velocity": 112}, {"time": 72140, "pitch": 69, "duration": 10, "velocity": 54}, {"time": 72239, "pitch": 35, "duration": 10, "velocity": 77}, {"time": 72239, "pitch": 42, "duration": 10, "velocity": 54}, {"time": 72239, "pitch": 69, "duration": 10, "velocity": 29}, {"time": 72379, "pitch": 38, "duration": 10, "velocity": 64}, {"time": 72478, "pitch": 35, "duration": 10, "velocity": 65}, {"time": 72478, "pitch": 42, "duration": 10, "velocity": 114}, {"time": 72478, "pitch": 69, "duration": 10, "velocity": 54}, {"time": 72619, "pitch": 38, "duration": 10, "velocity": 97}, {"time": 72718, "pitch": 35, "duration": 10, "velocity": 100}, {"time": 72718, "pitch": 46, "duration": 10, "velocity": 106}, {"time": 72718, "pitch": 69, "duration": 10, "velocity": 29}, {"time": 72858, "pitch": 69, "duration": 10, "velocity": 17}, {"time": 72957, "pitch": 38, "duration": 10, "velocity": 121}, {"time": 72957, "pitch": 42, "duration": 10, "velocity": 83}, {"time": 72957, "pitch": 69, "duration": 10, "velocity": 43}, {"time": 73200, "pitch": 35, "duration": 11, "velocity": 77}, {"time": 73200, "pitch": 42, "duration": 11, "velocity": 83}, {"time": 73200, "pitch": 69, "duration": 11, "velocity": 26}, {"time": 73343, "pitch": 38, "duration": 10, "velocity": 76}, {"time": 73444, "pitch": 35, "duration": 10, "velocity": 121}, {"time": 73444, "pitch": 42, "duration": 10, "velocity": 125}, {"time": 73683, "pitch": 35, "duration": 10, "velocity": 119}, {"time": 73683, "pitch": 42, "duration": 10, "velocity": 50}, {"time": 73683, "pitch": 69, "duration": 10, "velocity": 46}, {"time": 73824, "pitch": 69, "duration": 10, "velocity": 29}, {"time": 73923, "pitch": 38, "duration": 10, "velocity": 121}, {"time": 73923, "pitch": 42, "duration": 10, "velocity": 122}, {"time": 74063, "pitch": 69, "duration": 10, "velocity": 54}, {"time": 74162, "pitch": 35, "duration": 10, "velocity": 77}, {"time": 74162, "pitch": 42, "duration": 10, "velocity": 71}, {"time": 74162, "pitch": 69, "duration": 10, "velocity": 29}, {"time": 74303, "pitch": 38, "duration": 10, "velocity": 64}, {"time": 74401, "pitch": 35, "duration": 10, "velocity": 65}, {"time": 74401, "pitch": 42, "duration": 10, "velocity": 114}, {"time": 74401, "pitch": 69, "duration": 10, "velocity": 54}, {"time": 74542, "pitch": 38, "duration": 10, "velocity": 97}, {"time": 74641, "pitch": 35, "duration": 10, "velocity": 100}, {"time": 74641, "pitch": 46, "duration": 10, "velocity": 103}, {"time": 74641, "pitch": 69, "duration": 10, "velocity": 29}, {"time": 74782, "pitch": 69, "duration": 10, "velocity": 17}, {"time": 74880, "pitch": 38, "duration": 10, "velocity": 121}, {"time": 74880, "pitch": 42, "duration": 10, "velocity": 114}, {"time": 74880, "pitch": 69, "duration": 10, "velocity": 43}, {"time": 75120, "pitch": 35, "duration": 10, "velocity": 77}, {"time": 75120, "pitch": 42, "duration": 10, "velocity": 71}, {"time": 75120, "pitch": 69, "duration": 10, "velocity": 26}, {"time": 75260, "pitch": 38, "duration": 10, "velocity": 76}, {"time": 75359, "pitch": 35, "duration": 10, "velocity": 121}, {"time": 75359, "pitch": 42, "duration": 10, "velocity": 89}, {"time": 75599, "pitch": 35, "duration": 10, "velocity": 119}, {"time": 75599, "pitch": 42, "duration": 10, "velocity": 83}, {"time": 75599, "pitch": 69, "duration": 10, "velocity": 46}, {"time": 75739, "pitch": 69, "duration": 10, "velocity": 29}, {"time": 75838, "pitch": 38, "duration": 10, "velocity": 121}, {"time": 75838, "pitch": 42, "duration": 10, "velocity": 112}, {"time": 75979, "pitch": 69, "duration": 10, "velocity": 54}, {"time": 76078, "pitch": 35, "duration": 9, "velocity": 77}, {"time": 76078, "pitch": 42, "duration": 9, "velocity": 54}, {"time": 76078, "pitch": 69, "duration": 9, "velocity": 29}, {"time": 76218, "pitch": 38, "duration": 10, "velocity": 64}, {"time": 76317, "pitch": 35, "duration": 10, "velocity": 65}, {"time": 76317, "pitch": 42, "duration": 10, "velocity": 114}, {"time": 76317, "pitch": 69, "duration": 10, "velocity": 54}, {"time": 76460, "pitch": 38, "duration": 10, "velocity": 97}, {"time": 76560, "pitch": 35, "duration": 10, "velocity": 100}, {"time": 76560, "pitch": 46, "duration": 10, "velocity": 106}, {"time": 76560, "pitch": 69, "duration": 10, "velocity": 29}, {"time": 76703, "pitch": 69, "duration": 10, "velocity": 17}, {"time": 76804, "pitch": 38, "duration": 10, "velocity": 121}, {"time": 76804, "pitch": 42, "duration": 10, "velocity": 83}, {"time": 76804, "pitch": 69, "duration": 10, "velocity": 43}, {"time": 77043, "pitch": 35, "duration": 10, "velocity": 77}, {"time": 77043, "pitch": 42, "duration": 10, "velocity": 83}, {"time": 77043, "pitch": 69, "duration": 10, "velocity": 26}, {"time": 77184, "pitch": 38, "duration": 10, "velocity": 76}, {"time": 77282, "pitch": 35, "duration": 10, "velocity": 121}, {"time": 77282, "pitch": 42, "duration": 10, "velocity": 125}, {"time": 77522, "pitch": 35, "duration": 10, "velocity": 119}, {"time": 77522, "pitch": 42, "duration": 10, "velocity": 50}, {"time": 77522, "pitch": 69, "duration": 10, "velocity": 46}, {"time": 77663, "pitch": 69, "duration": 10, "velocity": 29}, {"time": 77761, "pitch": 38, "duration": 10, "velocity": 121}, {"time": 77761, "pitch": 42, "duration": 10, "velocity": 122}, {"time": 77902, "pitch": 69, "duration": 10, "velocity": 54}, {"time": 78001, "pitch": 35, "duration": 10, "velocity": 77}, {"time": 78001, "pitch": 42, "duration": 10, "velocity": 71}, {"time": 78001, "pitch": 69, "duration": 10, "velocity": 29}, {"time": 78141, "pitch": 38, "duration": 10, "velocity": 64}, {"time": 78240, "pitch": 35, "duration": 10, "velocity": 65}, {"time": 78240, "pitch": 42, "duration": 10, "velocity": 114}, {"time": 78240, "pitch": 69, "duration": 10, "velocity": 54}, {"time": 78381, "pitch": 38, "duration": 10, "velocity": 97}, {"time": 78480, "pitch": 35, "duration": 10, "velocity": 100}, {"time": 78480, "pitch": 46, "duration": 10, "velocity": 103}, {"time": 78480, "pitch": 69, "duration": 10, "velocity": 29}, {"time": 78620, "pitch": 69, "duration": 10, "velocity": 17}, {"time": 78719, "pitch": 38, "duration": 10, "velocity": 121}, {"time": 78719, "pitch": 42, "duration": 10, "velocity": 114}, {"time": 78719, "pitch": 69, "duration": 10, "velocity": 43}, {"time": 78959, "pitch": 35, "duration": 10, "velocity": 77}, {"time": 78959, "pitch": 42, "duration": 10, "velocity": 71}, {"time": 78959, "pitch": 69, "duration": 10, "velocity": 26}, {"time": 79099, "pitch": 38, "duration": 10, "velocity": 76}, {"time": 79198, "pitch": 35, "duration": 10, "velocity": 121}, {"time": 79198, "pitch": 42, "duration": 10, "velocity": 89}, {"time": 79437, "pitch": 35, "duration": 10, "velocity": 119}, {"time": 79437, "pitch": 42, "duration": 10, "velocity": 83}, {"time": 79437, "pitch": 69, "duration": 10, "velocity": 46}, {"time": 79578, "pitch": 69, "duration": 10, "velocity": 29}, {"time": 79677, "pitch": 38, "duration": 10, "velocity": 121}, {"time": 79677, "pitch": 42, "duration": 10, "velocity": 112}, {"time": 79820, "pitch": 69, "duration": 10, "velocity": 54}, {"time": 79920, "pitch": 35, "duration": 10, "velocity": 77}, {"time": 79920, "pitch": 42, "duration": 10, "velocity": 54}, {"time": 79920, "pitch": 69, "duration": 10, "velocity": 29}, {"time": 80063, "pitch": 38, "duration": 10, "velocity": 64}, {"time": 80163, "pitch": 35, "duration": 10, "velocity": 65}, {"time": 80163, "pitch": 42, "duration": 10, "velocity": 114}, {"time": 80163, "pitch": 69, "duration": 10, "velocity": 54}, {"time": 80304, "pitch": 38, "duration": 10, "velocity": 97}, {"time": 80403, "pitch": 35, "duration": 10, "velocity": 100}, {"time": 80403, "pitch": 46, "duration": 10, "velocity": 106}, {"time": 80403, "pitch": 69, "duration": 10, "velocity": 29}, {"time": 80544, "pitch": 69, "duration": 10, "velocity": 17}, {"time": 80642, "pitch": 38, "duration": 10, "velocity": 121}, {"time": 80642, "pitch": 42, "duration": 10, "velocity": 83}, {"time": 80642, "pitch": 69, "duration": 10, "velocity": 43}, {"time": 80882, "pitch": 35, "duration": 10, "velocity": 77}, {"time": 80882, "pitch": 42, "duration": 10, "velocity": 83}, {"time": 80882, "pitch": 69, "duration": 10, "velocity": 26}, {"time": 81022, "pitch": 38, "duration": 10, "velocity": 76}, {"time": 81121, "pitch": 35, "duration": 10, "velocity": 121}, {"time": 81121, "pitch": 42, "duration": 10, "velocity": 125}, {"time": 81361, "pitch": 35, "duration": 10, "velocity": 119}, {"time": 81361, "pitch": 42, "duration": 10, "velocity": 50}, {"time": 81361, "pitch": 69, "duration": 10, "velocity": 46}, {"time": 81501, "pitch": 69, "duration": 10, "velocity": 29}, {"time": 81600, "pitch": 38, "duration": 10, "velocity": 121}, {"time": 81600, "pitch": 42, "duration": 10, "velocity": 122}, {"time": 81741, "pitch": 69, "duration": 10, "velocity": 54}, {"time": 81840, "pitch": 35, "duration": 10, "velocity": 77}, {"time": 81840, "pitch": 42, "duration": 10, "velocity": 71}, {"time": 81840, "pitch": 69, "duration": 10, "velocity": 29}, {"time": 81980, "pitch": 38, "duration": 10, "velocity": 64}, {"time": 82079, "pitch": 35, "duration": 10, "velocity": 65}, {"time": 82079, "pitch": 42, "duration": 10, "velocity": 114}, {"time": 82079, "pitch": 69, "duration": 10, "velocity": 54}, {"time": 82220, "pitch": 38, "duration": 10, "velocity": 97}, {"time": 82318, "pitch": 35, "duration": 10, "velocity": 100}, {"time": 82318, "pitch": 46, "duration": 10, "velocity": 103}, {"time": 82318, "pitch": 69, "duration": 10, "velocity": 29}, {"time": 82459, "pitch": 69, "duration": 10, "velocity": 17}, {"time": 82558, "pitch": 38, "duration": 10, "velocity": 121}, {"time": 82558, "pitch": 42, "duration": 10, "velocity": 114}, {"time": 82558, "pitch": 69, "duration": 10, "velocity": 43}, {"time": 82797, "pitch": 35, "duration": 10, "velocity": 77}, {"time": 82797, "pitch": 42, "duration": 10, "velocity": 71}, {"time": 82797, "pitch": 69, "duration": 10, "velocity": 26}, {"time": 82938, "pitch": 38, "duration": 10, "velocity": 76}, {"time": 83037, "pitch": 35, "duration": 10, "velocity": 121}, {"time": 83037, "pitch": 42, "duration": 10, "velocity": 89}, {"time": 83280, "pitch": 35, "duration": 10, "velocity": 119}, {"time": 83280, "pitch": 42, "duration": 10, "velocity": 83}, {"time": 83280, "pitch": 69, "duration": 10, "velocity": 46}, {"time": 83423, "pitch": 69, "duration": 10, "velocity": 29}, {"time": 83523, "pitch": 38, "duration": 10, "velocity": 121}, {"time": 83523, "pitch": 42, "duration": 10, "velocity": 112}, {"time": 83664, "pitch": 69, "duration": 10, "velocity": 54}, {"time": 83763, "pitch": 35, "duration": 10, "velocity": 77}, {"time": 83763, "pitch": 42, "duration": 10, "velocity": 54}, {"time": 83763, "pitch": 69, "duration": 10, "velocity": 29}, {"time": 83904, "pitch": 38, "duration": 10, "velocity": 64}, {"time": 84002, "pitch": 35, "duration": 10, "velocity": 65}, {"time": 84002, "pitch": 42, "duration": 10, "velocity": 114}, {"time": 84002, "pitch": 69, "duration": 10, "velocity": 54}, {"time": 84143, "pitch": 38, "duration": 10, "velocity": 97}, {"time": 84242, "pitch": 35, "duration": 10, "velocity": 100}, {"time": 84242, "pitch": 46, "duration": 10, "velocity": 106}, {"time": 84242, "pitch": 69, "duration": 10, "velocity": 29}, {"time": 84382, "pitch": 69, "duration": 10, "velocity": 17}, {"time": 84481, "pitch": 38, "duration": 10, "velocity": 121}, {"time": 84481, "pitch": 42, "duration": 10, "velocity": 83}, {"time": 84481, "pitch": 69, "duration": 10, "velocity": 43}, {"time": 84721, "pitch": 35, "duration": 10, "velocity": 77}, {"time": 84721, "pitch": 42, "duration": 10, "velocity": 83}, {"time": 84721, "pitch": 69, "duration": 10, "velocity": 26}, {"time": 84861, "pitch": 38, "duration": 10, "velocity": 76}, {"time": 84960, "pitch": 35, "duration": 10, "velocity": 121}, {"time": 84960, "pitch": 42, "duration": 10, "velocity": 125}, {"time": 84960, "pitch": 80, "duration": 10, "velocity": 65}, {"time": 85200, "pitch": 35, "duration": 9, "velocity": 119}, {"time": 85200, "pitch": 42, "duration": 9, "velocity": 50}, {"time": 85200, "pitch": 69, "duration": 9, "velocity": 46}, {"time": 85200, "pitch": 81, "duration": 9, "velocity": 97}, {"time": 85340, "pitch": 69, "duration": 10, "velocity": 29}, {"time": 85439, "pitch": 38, "duration": 10, "velocity": 121}, {"time": 85439, "pitch": 42, "duration": 10, "velocity": 122}, {"time": 85439, "pitch": 80, "duration": 10, "velocity": 71}, {"time": 85580, "pitch": 69, "duration": 10, "velocity": 54}, {"time": 85678, "pitch": 35, "duration": 10, "velocity": 77}, {"time": 85678, "pitch": 42, "duration": 10, "velocity": 71}, {"time": 85678, "pitch": 69, "duration": 10, "velocity": 29}, {"time": 85678, "pitch": 81, "duration": 10, "velocity": 83}, {"time": 85819, "pitch": 38, "duration": 10, "velocity": 64}, {"time": 85918, "pitch": 35, "duration": 10, "velocity": 65}, {"time": 85918, "pitch": 42, "duration": 10, "velocity": 114}, {"time": 85918, "pitch": 69, "duration": 10, "velocity": 54}, {"time": 85918, "pitch": 80, "duration": 10, "velocity": 83}, {"time": 86058, "pitch": 38, "duration": 10, "velocity": 97}, {"time": 86157, "pitch": 35, "duration": 10, "velocity": 100}, {"time": 86157, "pitch": 42, "duration": 10, "velocity": 103}, {"time": 86157, "pitch": 69, "duration": 10, "velocity": 29}, {"time": 86298, "pitch": 69, "duration": 10, "velocity": 17}, {"time": 86397, "pitch": 40, "duration": 10, "velocity": 121}, {"time": 86397, "pitch": 42, "duration": 10, "velocity": 114}, {"time": 86397, "pitch": 69, "duration": 10, "velocity": 43}, {"time": 86640, "pitch": 35, "duration": 10, "velocity": 77}, {"time": 86640, "pitch": 42, "duration": 10, "velocity": 71}, {"time": 86640, "pitch": 69, "duration": 10, "velocity": 26}, {"time": 86783, "pitch": 38, "duration": 10, "velocity": 76}, {"time": 86883, "pitch": 35, "duration": 10, "velocity": 121}, {"time": 86883, "pitch": 42, "duration": 10, "velocity": 89}, {"time": 87123, "pitch": 35, "duration": 10, "velocity": 119}, {"time": 87123, "pitch": 42, "duration": 10, "velocity": 83}, {"time": 87123, "pitch": 69, "duration": 10, "velocity": 46}, {"time": 87263, "pitch": 69, "duration": 10, "velocity": 29}, {"time": 87362, "pitch": 38, "duration": 10, "velocity": 121}, {"time": 87362, "pitch": 42, "duration": 10, "velocity": 112}, {"time": 87503, "pitch": 69, "duration": 10, "velocity": 54}, {"time": 87602, "pitch": 35, "duration": 10, "velocity": 77}, {"time": 87602, "pitch": 42, "duration": 10, "velocity": 54}, {"time": 87602, "pitch": 69, "duration": 10, "velocity": 29}, {"time": 87742, "pitch": 38, "duration": 10, "velocity": 64}, {"time": 87841, "pitch": 35, "duration": 10, "velocity": 65}, {"time": 87841, "pitch": 42, "duration": 10, "velocity": 114}, {"time": 87841, "pitch": 69, "duration": 10, "velocity": 54}, {"time": 87982, "pitch": 38, "duration": 10, "velocity": 97}, {"time": 88081, "pitch": 35, "duration": 10, "velocity": 100}, {"time": 88081, "pitch": 42, "duration": 10, "velocity": 106}, {"time": 88081, "pitch": 69, "duration": 10, "velocity": 29}, {"time": 88221, "pitch": 69, "duration": 10, "velocity": 17}, {"time": 88320, "pitch": 40, "duration": 10, "velocity": 124}, {"time": 88320, "pitch": 42, "duration": 10, "velocity": 83}, {"time": 88320, "pitch": 54, "duration": 10, "velocity": 127}, {"time": 88320, "pitch": 69, "duration": 10, "velocity": 43}, {"time": 88320, "pitch": 72, "duration": 10, "velocity": 20}, {"time": 88559, "pitch": 35, "duration": 10, "velocity": 77}, {"time": 88559, "pitch": 42, "duration": 10, "velocity": 106}, {"time": 88559, "pitch": 69, "duration": 10, "velocity": 26}, {"time": 88699, "pitch": 46, "duration": 10, "velocity": 81}, {"time": 88700, "pitch": 38, "duration": 10, "velocity": 76}, {"time": 88799, "pitch": 35, "duration": 10, "velocity": 121}, {"time": 88799, "pitch": 42, "duration": 10, "velocity": 125}, {"time": 88799, "pitch": 80, "duration": 10, "velocity": 65}, {"time": 89038, "pitch": 35, "duration": 10, "velocity": 119}, {"time": 89038, "pitch": 42, "duration": 10, "velocity": 50}, {"time": 89038, "pitch": 69, "duration": 10, "velocity": 46}, {"time": 89038, "pitch": 81, "duration": 10, "velocity": 97}, {"time": 89179, "pitch": 69, "duration": 10, "velocity": 29}, {"time": 89278, "pitch": 38, "duration": 10, "velocity": 121}, {"time": 89278, "pitch": 42, "duration": 10, "velocity": 122}, {"time": 89278, "pitch": 80, "duration": 10, "velocity": 71}, {"time": 89418, "pitch": 69, "duration": 10, "velocity": 54}, {"time": 89517, "pitch": 35, "duration": 10, "velocity": 77}, {"time": 89517, "pitch": 42, "duration": 10, "velocity": 71}, {"time": 89517, "pitch": 69, "duration": 10, "velocity": 29}, {"time": 89517, "pitch": 81, "duration": 10, "velocity": 83}, {"time": 89658, "pitch": 38, "duration": 10, "velocity": 64}, {"time": 89757, "pitch": 35, "duration": 10, "velocity": 65}, {"time": 89757, "pitch": 42, "duration": 10, "velocity": 114}, {"time": 89757, "pitch": 69, "duration": 10, "velocity": 54}, {"time": 89757, "pitch": 80, "duration": 10, "velocity": 83}, {"time": 89900, "pitch": 38, "duration": 10, "velocity": 97}, {"time": 90000, "pitch": 35, "duration": 10, "velocity": 100}, {"time": 90000, "pitch": 42, "duration": 10, "velocity": 103}, {"time": 90000, "pitch": 69, "duration": 10, "velocity": 29}, {"time": 90143, "pitch": 69, "duration": 10, "velocity": 17}, {"time": 90243, "pitch": 40, "duration": 10, "velocity": 121}, {"time": 90243, "pitch": 42, "duration": 10, "velocity": 114}, {"time": 90243, "pitch": 69, "duration": 10, "velocity": 43}, {"time": 90483, "pitch": 35, "duration": 10, "velocity": 77}, {"time": 90483, "pitch": 42, "duration": 10, "velocity": 71}, {"time": 90483, "pitch": 69, "duration": 10, "velocity": 26}, {"time": 90623, "pitch": 38, "duration": 10, "velocity": 76}, {"time": 90722, "pitch": 35, "duration": 10, "velocity": 121}, {"time": 90722, "pitch": 42, "duration": 10, "velocity": 89}, {"time": 90962, "pitch": 35, "duration": 10, "velocity": 119}, {"time": 90962, "pitch": 42, "duration": 10, "velocity": 83}, {"time": 90962, "pitch": 69, "duration": 10, "velocity": 46}, {"time": 91102, "pitch": 69, "duration": 10, "velocity": 29}, {"time": 91201, "pitch": 38, "duration": 10, "velocity": 121}, {"time": 91201, "pitch": 42, "duration": 10, "velocity": 112}, {"time": 91342, "pitch": 69, "duration": 10, "velocity": 54}, {"time": 91440, "pitch": 35, "duration": 10, "velocity": 77}, {"time": 91440, "pitch": 42, "duration": 10, "velocity": 54}, {"time": 91440, "pitch": 69, "duration": 10, "velocity": 29}, {"time": 91581, "pitch": 38, "duration": 10, "velocity": 64}, {"time": 91680, "pitch": 35, "duration": 10, "velocity": 65}, {"time": 91680, "pitch": 42, "duration": 10, "velocity": 114}, {"time": 91680, "pitch": 69, "duration": 10, "velocity": 54}, {"time": 91821, "pitch": 38, "duration": 10, "velocity": 97}, {"time": 91919, "pitch": 35, "duration": 10, "velocity": 100}, {"time": 91919, "pitch": 42, "duration": 10, "velocity": 106}, {"time": 91919, "pitch": 69, "duration": 10, "velocity": 29}, {"time": 92060, "pitch": 69, "duration": 10, "velocity": 17}, {"time": 92159, "pitch": 40, "duration": 10, "velocity": 124}, {"time": 92159, "pitch": 42, "duration": 10, "velocity": 83}, {"time": 92159, "pitch": 54, "duration": 10, "velocity": 127}, {"time": 92159, "pitch": 69, "duration": 10, "velocity": 43}, {"time": 92159, "pitch": 72, "duration": 10, "velocity": 20}, {"time": 92398, "pitch": 35, "duration": 10, "velocity": 77}, {"time": 92398, "pitch": 42, "duration": 10, "velocity": 106}, {"time": 92398, "pitch": 69, "duration": 10, "velocity": 26}, {"time": 92538, "pitch": 46, "duration": 10, "velocity": 81}, {"time": 92539, "pitch": 38, "duration": 10, "velocity": 76}, {"time": 92638, "pitch": 35, "duration": 10, "velocity": 121}, {"time": 92638, "pitch": 42, "duration": 10, "velocity": 125}, {"time": 92638, "pitch": 80, "duration": 10, "velocity": 65}, {"time": 92877, "pitch": 35, "duration": 10, "velocity": 119}, {"time": 92877, "pitch": 42, "duration": 10, "velocity": 50}, {"time": 92877, "pitch": 69, "duration": 10, "velocity": 46}, {"time": 92877, "pitch": 81, "duration": 10, "velocity": 97}, {"time": 93018, "pitch": 69, "duration": 10, "velocity": 29}, {"time": 93117, "pitch": 38, "duration": 10, "velocity": 121}, {"time": 93117, "pitch": 42, "duration": 10, "velocity": 122}, {"time": 93117, "pitch": 80, "duration": 10, "velocity": 71}, {"time": 93259, "pitch": 69, "duration": 11, "velocity": 54}, {"time": 93360, "pitch": 35, "duration": 10, "velocity": 77}, {"time": 93360, "pitch": 42, "duration": 10, "velocity": 71}, {"time": 93360, "pitch": 69, "duration": 10, "velocity": 29}, {"time": 93360, "pitch": 81, "duration": 10, "velocity": 83}, {"time": 93503, "pitch": 38, "duration": 10, "velocity": 64}, {"time": 93603, "pitch": 35, "duration": 10, "velocity": 65}, {"time": 93603, "pitch": 42, "duration": 10, "velocity": 114}, {"time": 93603, "pitch": 69, "duration": 10, "velocity": 54}, {"time": 93603, "pitch": 80, "duration": 10, "velocity": 83}, {"time": 93744, "pitch": 38, "duration": 10, "velocity": 97}, {"time": 93843, "pitch": 35, "duration": 10, "velocity": 100}, {"time": 93843, "pitch": 42, "duration": 10, "velocity": 103}, {"time": 93843, "pitch": 69, "duration": 10, "velocity": 29}, {"time": 93983, "pitch": 69, "duration": 10, "velocity": 17}, {"time": 94082, "pitch": 40, "duration": 10, "velocity": 121}, {"time": 94082, "pitch": 42, "duration": 10, "velocity": 114}, {"time": 94082, "pitch": 69, "duration": 10, "velocity": 43}, {"time": 94222, "pitch": 38, "duration": 10, "velocity": 86}, {"time": 94321, "pitch": 35, "duration": 10, "velocity": 113}, {"time": 94321, "pitch": 42, "duration": 10, "velocity": 71}, {"time": 94321, "pitch": 57, "duration": 10, "velocity": 66}, {"time": 94321, "pitch": 69, "duration": 10, "velocity": 26}, {"time": 94462, "pitch": 38, "duration": 10, "velocity": 76}, {"time": 94561, "pitch": 35, "duration": 10, "velocity": 121}, {"time": 94561, "pitch": 42, "duration": 10, "velocity": 89}, {"time": 94800, "pitch": 35, "duration": 10, "velocity": 119}, {"time": 94800, "pitch": 42, "duration": 10, "velocity": 83}, {"time": 94800, "pitch": 49, "duration": 10, "velocity": 68}, {"time": 94800, "pitch": 69, "duration": 10, "velocity": 46}, {"time": 94941, "pitch": 69, "duration": 10, "velocity": 29}, {"time": 95040, "pitch": 38, "duration": 10, "velocity": 121}, {"time": 95040, "pitch": 42, "duration": 10, "velocity": 112}, {"time": 95180, "pitch": 69, "duration": 10, "velocity": 54}, {"time": 95279, "pitch": 35, "duration": 10, "velocity": 114}, {"time": 95279, "pitch": 42, "duration": 10, "velocity": 54}, {"time": 95279, "pitch": 57, "duration": 10, "velocity": 76}, {"time": 95279, "pitch": 69, "duration": 10, "velocity": 29}, {"time": 95420, "pitch": 38, "duration": 10, "velocity": 64}, {"time": 95519, "pitch": 35, "duration": 10, "velocity": 85}, {"time": 95519, "pitch": 42, "duration": 10, "velocity": 114}, {"time": 95519, "pitch": 69, "duration": 10, "velocity": 54}, {"time": 95659, "pitch": 38, "duration": 10, "velocity": 97}, {"time": 95758, "pitch": 42, "duration": 10, "velocity": 106}, {"time": 95758, "pitch": 69, "duration": 10, "velocity": 29}, {"time": 95898, "pitch": 35, "duration": 10, "velocity": 100}, {"time": 95899, "pitch": 69, "duration": 10, "velocity": 17}, {"time": 95998, "pitch": 40, "duration": 10, "velocity": 124}, {"time": 95998, "pitch": 42, "duration": 10, "velocity": 83}, {"time": 95998, "pitch": 54, "duration": 10, "velocity": 127}, {"time": 95998, "pitch": 69, "duration": 10, "velocity": 43}, {"time": 95998, "pitch": 72, "duration": 10, "velocity": 20}, {"time": 96237, "pitch": 35, "duration": 10, "velocity": 77}, {"time": 96237, "pitch": 42, "duration": 10, "velocity": 106}, {"time": 96237, "pitch": 69, "duration": 10, "velocity": 26}, {"time": 96377, "pitch": 46, "duration": 10, "velocity": 81}, {"time": 96378, "pitch": 38, "duration": 10, "velocity": 76}, {"time": 96476, "pitch": 35, "duration": 11, "velocity": 121}, {"time": 96476, "pitch": 42, "duration": 11, "velocity": 125}, {"time": 96476, "pitch": 80, "duration": 11, "velocity": 65}, {"time": 96720, "pitch": 35, "duration": 10, "velocity": 119}, {"time": 96720, "pitch": 42, "duration": 10, "velocity": 50}, {"time": 96720, "pitch": 69, "duration": 10, "velocity": 46}, {"time": 96720, "pitch": 81, "duration": 10, "velocity": 97}, {"time": 96863, "pitch": 69, "duration": 10, "velocity": 29}, {"time": 96963, "pitch": 38, "duration": 10, "velocity": 121}, {"time": 96963, "pitch": 42, "duration": 10, "velocity": 122}, {"time": 96963, "pitch": 80, "duration": 10, "velocity": 71}, {"time": 97104, "pitch": 69, "duration": 10, "velocity": 54}, {"time": 97203, "pitch": 35, "duration": 9, "velocity": 77}, {"time": 97203, "pitch": 42, "duration": 9, "velocity": 71}, {"time": 97203, "pitch": 69, "duration": 9, "velocity": 29}, {"time": 97203, "pitch": 81, "duration": 9, "velocity": 83}, {"time": 97343, "pitch": 38, "duration": 10, "velocity": 64}, {"time": 97442, "pitch": 35, "duration": 10, "velocity": 65}, {"time": 97442, "pitch": 42, "duration": 10, "velocity": 114}, {"time": 97442, "pitch": 69, "duration": 10, "velocity": 54}, {"time": 97442, "pitch": 80, "duration": 10, "velocity": 83}, {"time": 97583, "pitch": 38, "duration": 10, "velocity": 97}, {"time": 97681, "pitch": 35, "duration": 10, "velocity": 100}, {"time": 97681, "pitch": 42, "duration": 10, "velocity": 103}, {"time": 97681, "pitch": 69, "duration": 10, "velocity": 29}, {"time": 97822, "pitch": 69, "duration": 10, "velocity": 17}, {"time": 97921, "pitch": 40, "duration": 10, "velocity": 121}, {"time": 97921, "pitch": 42, "duration": 10, "velocity": 114}, {"time": 97921, "pitch": 69, "duration": 10, "velocity": 43}, {"time": 98160, "pitch": 35, "duration": 10, "velocity": 77}, {"time": 98160, "pitch": 42, "duration": 10, "velocity": 71}, {"time": 98160, "pitch": 69, "duration": 10, "velocity": 26}, {"time": 98300, "pitch": 35, "duration": 10, "velocity": 121}, {"time": 98301, "pitch": 38, "duration": 10, "velocity": 76}, {"time": 98400, "pitch": 35, "duration": 10, "velocity": 121}, {"time": 98400, "pitch": 38, "duration": 10, "velocity": 121}, {"time": 98400, "pitch": 42, "duration": 10, "velocity": 89}, {"time": 98539, "pitch": 38, "duration": 10, "velocity": 121}, {"time": 98639, "pitch": 42, "duration": 10, "velocity": 83}, {"time": 98639, "pitch": 69, "duration": 10, "velocity": 46}, {"time": 98780, "pitch": 69, "duration": 10, "velocity": 29}, {"time": 98879, "pitch": 42, "duration": 10, "velocity": 112}, {"time": 99019, "pitch": 69, "duration": 10, "velocity": 54}, {"time": 99118, "pitch": 35, "duration": 10, "velocity": 77}, {"time": 99118, "pitch": 42, "duration": 10, "velocity": 54}, {"time": 99118, "pitch": 69, "duration": 10, "velocity": 29}, {"time": 99259, "pitch": 38, "duration": 10, "velocity": 64}, {"time": 99357, "pitch": 35, "duration": 10, "velocity": 65}, {"time": 99357, "pitch": 42, "duration": 10, "velocity": 114}, {"time": 99357, "pitch": 69, "duration": 10, "velocity": 54}, {"time": 99498, "pitch": 38, "duration": 10, "velocity": 97}, {"time": 99597, "pitch": 35, "duration": 10, "velocity": 100}, {"time": 99597, "pitch": 42, "duration": 10, "velocity": 106}, {"time": 99597, "pitch": 69, "duration": 10, "velocity": 29}, {"time": 99738, "pitch": 69, "duration": 10, "velocity": 17}, {"time": 99836, "pitch": 40, "duration": 10, "velocity": 103}, {"time": 99836, "pitch": 42, "duration": 10, "velocity": 83}, {"time": 99836, "pitch": 54, "duration": 10, "velocity": 127}, {"time": 99836, "pitch": 69, "duration": 10, "velocity": 43}, {"time": 99979, "pitch": 45, "duration": 10, "velocity": 87}, {"time": 100080, "pitch": 35, "duration": 10, "velocity": 77}, {"time": 100080, "pitch": 41, "duration": 10, "velocity": 91}, {"time": 100080, "pitch": 42, "duration": 10, "velocity": 106}, {"time": 100080, "pitch": 69, "duration": 10, "velocity": 26}, {"time": 100222, "pitch": 46, "duration": 10, "velocity": 81}, {"time": 100223, "pitch": 38, "duration": 10, "velocity": 76}, {"time": 100323, "pitch": 35, "duration": 10, "velocity": 121}, {"time": 100323, "pitch": 36, "duration": 10, "velocity": 64}, {"time": 100323, "pitch": 42, "duration": 10, "velocity": 125}, {"time": 100323, "pitch": 46, "duration": 10, "velocity": 10}, {"time": 100323, "pitch": 49, "duration": 10, "velocity": 66}, {"time": 100323, "pitch": 54, "duration": 10, "velocity": 58}, {"time": 100464, "pitch": 54, "duration": 10, "velocity": 47}, {"time": 100562, "pitch": 35, "duration": 10, "velocity": 119}, {"time": 100562, "pitch": 42, "duration": 10, "velocity": 50}, {"time": 100562, "pitch": 54, "duration": 10, "velocity": 54}, {"time": 100562, "pitch": 69, "duration": 10, "velocity": 46}, {"time": 100703, "pitch": 36, "duration": 10, "velocity": 51}, {"time": 100703, "pitch": 46, "duration": 10, "velocity": 1}, {"time": 100703, "pitch": 54, "duration": 10, "velocity": 71}, {"time": 100703, "pitch": 69, "duration": 10, "velocity": 29}, {"time": 100802, "pitch": 40, "duration": 10, "velocity": 121}, {"time": 100802, "pitch": 42, "duration": 10, "velocity": 122}, {"time": 100802, "pitch": 54, "duration": 10, "velocity": 125}, {"time": 100943, "pitch": 54, "duration": 10, "velocity": 61}, {"time": 100943, "pitch": 69, "duration": 10, "velocity": 54}, {"time": 101041, "pitch": 35, "duration": 10, "velocity": 77}, {"time": 101041, "pitch": 42, "duration": 10, "velocity": 71}, {"time": 101041, "pitch": 54, "duration": 10, "velocity": 81}, {"time": 101041, "pitch": 69, "duration": 10, "velocity": 29}, {"time": 101182, "pitch": 38, "duration": 10, "velocity": 64}, {"time": 101182, "pitch": 54, "duration": 10, "velocity": 54}, {"time": 101281, "pitch": 35, "duration": 10, "velocity": 65}, {"time": 101281, "pitch": 36, "duration": 10, "velocity": 64}, {"time": 101281, "pitch": 42, "duration": 10, "velocity": 114}, {"time": 101281, "pitch": 46, "duration": 10, "velocity": 10}, {"time": 101281, "pitch": 54, "duration": 10, "velocity": 102}, {"time": 101281, "pitch": 69, "duration": 10, "velocity": 54}, {"time": 101421, "pitch": 38, "duration": 10, "velocity": 97}, {"time": 101421, "pitch": 54, "duration": 10, "velocity": 44}, {"time": 101520, "pitch": 35, "duration": 10, "velocity": 100}, {"time": 101520, "pitch": 46, "duration": 10, "velocity": 103}, {"time": 101520, "pitch": 54, "duration": 10, "velocity": 54}, {"time": 101520, "pitch": 69, "duration": 10, "velocity": 29}, {"time": 101661, "pitch": 54, "duration": 10, "velocity": 66}, {"time": 101661, "pitch": 69, "duration": 10, "velocity": 17}, {"time": 101760, "pitch": 40, "duration": 10, "velocity": 121}, {"time": 101760, "pitch": 42, "duration": 10, "velocity": 114}, {"time": 101760, "pitch": 54, "duration": 10, "velocity": 103}, {"time": 101760, "pitch": 69, "duration": 10, "velocity": 43}, {"time": 101900, "pitch": 54, "duration": 10, "velocity": 58}, {"time": 101999, "pitch": 35, "duration": 10, "velocity": 77}, {"time": 101999, "pitch": 36, "duration": 10, "velocity": 62}, {"time": 101999, "pitch": 42, "duration": 10, "velocity": 71}, {"time": 101999, "pitch": 46, "duration": 10, "velocity": 8}, {"time": 101999, "pitch": 54, "duration": 10, "velocity": 58}, {"time": 101999, "pitch": 69, "duration": 10, "velocity": 26}, {"time": 102140, "pitch": 38, "duration": 10, "velocity": 76}, {"time": 102140, "pitch": 54, "duration": 10, "velocity": 89}, {"time": 102239, "pitch": 35, "duration": 10, "velocity": 121}, {"time": 102239, "pitch": 36, "duration": 10, "velocity": 64}, {"time": 102239, "pitch": 42, "duration": 10, "velocity": 89}, {"time": 102239, "pitch": 46, "duration": 10, "velocity": 10}, {"time": 102239, "pitch": 54, "duration": 10, "velocity": 58}, {"time": 102379, "pitch": 54, "duration": 10, "velocity": 47}, {"time": 102478, "pitch": 35, "duration": 10, "velocity": 119}, {"time": 102478, "pitch": 42, "duration": 10, "velocity": 83}, {"time": 102478, "pitch": 54, "duration": 10, "velocity": 54}, {"time": 102478, "pitch": 69, "duration": 10, "velocity": 46}, {"time": 102619, "pitch": 36, "duration": 10, "velocity": 51}, {"time": 102619, "pitch": 46, "duration": 10, "velocity": 1}, {"time": 102619, "pitch": 54, "duration": 10, "velocity": 71}, {"time": 102619, "pitch": 69, "duration": 10, "velocity": 29}, {"time": 102717, "pitch": 40, "duration": 10, "velocity": 121}, {"time": 102717, "pitch": 42, "duration": 10, "velocity": 112}, {"time": 102717, "pitch": 54, "duration": 10, "velocity": 125}, {"time": 102858, "pitch": 54, "duration": 10, "velocity": 61}, {"time": 102858, "pitch": 69, "duration": 10, "velocity": 54}, {"time": 102957, "pitch": 35, "duration": 10, "velocity": 77}, {"time": 102957, "pitch": 42, "duration": 10, "velocity": 54}, {"time": 102957, "pitch": 54, "duration": 10, "velocity": 81}, {"time": 102957, "pitch": 69, "duration": 10, "velocity": 29}, {"time": 103098, "pitch": 38, "duration": 9, "velocity": 64}, {"time": 103098, "pitch": 54, "duration": 9, "velocity": 54}, {"time": 103196, "pitch": 35, "duration": 10, "velocity": 65}, {"time": 103196, "pitch": 36, "duration": 10, "velocity": 64}, {"time": 103196, "pitch": 42, "duration": 10, "velocity": 114}, {"time": 103196, "pitch": 46, "duration": 10, "velocity": 10}, {"time": 103196, "pitch": 54, "duration": 10, "velocity": 102}, {"time": 103196, "pitch": 69, "duration": 10, "velocity": 54}, {"time": 103339, "pitch": 38, "duration": 10, "velocity": 97}, {"time": 103339, "pitch": 54, "duration": 10, "velocity": 44}, {"time": 103440, "pitch": 35, "duration": 10, "velocity": 100}, {"time": 103440, "pitch": 46, "duration": 10, "velocity": 106}, {"time": 103440, "pitch": 54, "duration": 10, "velocity": 54}, {"time": 103440, "pitch": 69, "duration": 10, "velocity": 29}, {"time": 103583, "pitch": 54, "duration": 10, "velocity": 66}, {"time": 103583, "pitch": 69, "duration": 10, "velocity": 17}, {"time": 103683, "pitch": 40, "duration": 10, "velocity": 121}, {"time": 103683, "pitch": 42, "duration": 10, "velocity": 83}, {"time": 103683, "pitch": 54, "duration": 10, "velocity": 103}, {"time": 103683, "pitch": 69, "duration": 10, "velocity": 43}, {"time": 103824, "pitch": 54, "duration": 10, "velocity": 58}, {"time": 103922, "pitch": 35, "duration": 10, "velocity": 77}, {"time": 103922, "pitch": 36, "duration": 10, "velocity": 62}, {"time": 103922, "pitch": 42, "duration": 10, "velocity": 83}, {"time": 103922, "pitch": 46, "duration": 10, "velocity": 8}, {"time": 103922, "pitch": 54, "duration": 10, "velocity": 58}, {"time": 103922, "pitch": 69, "duration": 10, "velocity": 26}, {"time": 104063, "pitch": 38, "duration": 10, "velocity": 76}, {"time": 104063, "pitch": 54, "duration": 10, "velocity": 89}, {"time": 104162, "pitch": 35, "duration": 10, "velocity": 121}, {"time": 104162, "pitch": 36, "duration": 10, "velocity": 64}, {"time": 104162, "pitch": 42, "duration": 10, "velocity": 125}, {"time": 104162, "pitch": 46, "duration": 10, "velocity": 10}, {"time": 104162, "pitch": 54, "duration": 10, "velocity": 58}, {"time": 104302, "pitch": 54, "duration": 10, "velocity": 47}, {"time": 104401, "pitch": 35, "duration": 10, "velocity": 119}, {"time": 104401, "pitch": 42, "duration": 10, "velocity": 50}, {"time": 104401, "pitch": 54, "duration": 10, "velocity": 54}, {"time": 104401, "pitch": 69, "duration": 10, "velocity": 46}, {"time": 104542, "pitch": 36, "duration": 10, "velocity": 51}, {"time": 104542, "pitch": 46, "duration": 10, "velocity": 1}, {"time": 104542, "pitch": 54, "duration": 10, "velocity": 71}, {"time": 104542, "pitch": 69, "duration": 10, "velocity": 29}, {"time": 104641, "pitch": 40, "duration": 10, "velocity": 121}, {"time": 104641, "pitch": 42, "duration": 10, "velocity": 122}, {"time": 104641, "pitch": 54, "duration": 10, "velocity": 125}, {"time": 104781, "pitch": 54, "duration": 10, "velocity": 61}, {"time": 104781, "pitch": 69, "duration": 10, "velocity": 54}, {"time": 104880, "pitch": 35, "duration": 10, "velocity": 77}, {"time": 104880, "pitch": 42, "duration": 10, "velocity": 71}, {"time": 104880, "pitch": 54, "duration": 10, "velocity": 81}, {"time": 104880, "pitch": 69, "duration": 10, "velocity": 29}, {"time": 105021, "pitch": 38, "duration": 10, "velocity": 64}, {"time": 105021, "pitch": 54, "duration": 10, "velocity": 54}, {"time": 105120, "pitch": 35, "duration": 10, "velocity": 65}, {"time": 105120, "pitch": 36, "duration": 10, "velocity": 64}, {"time": 105120, "pitch": 42, "duration": 10, "velocity": 114}, {"time": 105120, "pitch": 46, "duration": 10, "velocity": 10}, {"time": 105120, "pitch": 54, "duration": 10, "velocity": 102}, {"time": 105120, "pitch": 69, "duration": 10, "velocity": 54}, {"time": 105260, "pitch": 38, "duration": 10, "velocity": 97}, {"time": 105260, "pitch": 54, "duration": 10, "velocity": 44}, {"time": 105359, "pitch": 35, "duration": 10, "velocity": 100}, {"time": 105359, "pitch": 46, "duration": 10, "velocity": 103}, {"time": 105359, "pitch": 54, "duration": 10, "velocity": 54}, {"time": 105359, "pitch": 69, "duration": 10, "velocity": 29}, {"time": 105500, "pitch": 54, "duration": 10, "velocity": 66}, {"time": 105500, "pitch": 69, "duration": 10, "velocity": 17}, {"time": 105598, "pitch": 40, "duration": 10, "velocity": 121}, {"time": 105598, "pitch": 42, "duration": 10, "velocity": 114}, {"time": 105598, "pitch": 54, "duration": 10, "velocity": 103}, {"time": 105598, "pitch": 69, "duration": 10, "velocity": 43}, {"time": 105739, "pitch": 54, "duration": 10, "velocity": 58}, {"time": 105838, "pitch": 35, "duration": 10, "velocity": 77}, {"time": 105838, "pitch": 36, "duration": 10, "velocity": 62}, {"time": 105838, "pitch": 42, "duration": 10, "velocity": 71}, {"time": 105838, "pitch": 46, "duration": 10, "velocity": 8}, {"time": 105838, "pitch": 54, "duration": 10, "velocity": 58}, {"time": 105838, "pitch": 69, "duration": 10, "velocity": 26}, {"time": 105979, "pitch": 38, "duration": 10, "velocity": 76}, {"time": 105979, "pitch": 54, "duration": 10, "velocity": 89}, {"time": 106077, "pitch": 35, "duration": 10, "velocity": 121}, {"time": 106077, "pitch": 36, "duration": 10, "velocity": 64}, {"time": 106077, "pitch": 42, "duration": 10, "velocity": 89}, {"time": 106077, "pitch": 46, "duration": 10, "velocity": 10}, {"time": 106077, "pitch": 54, "duration": 10, "velocity": 58}, {"time": 106218, "pitch": 54, "duration": 10, "velocity": 47}, {"time": 106317, "pitch": 35, "duration": 10, "velocity": 119}, {"time": 106317, "pitch": 42, "duration": 10, "velocity": 83}, {"time": 106317, "pitch": 54, "duration": 10, "velocity": 54}, {"time": 106317, "pitch": 69, "duration": 10, "velocity": 46}, {"time": 106457, "pitch": 36, "duration": 10, "velocity": 51}, {"time": 106457, "pitch": 46, "duration": 10, "velocity": 1}, {"time": 106457, "pitch": 54, "duration": 10, "velocity": 71}, {"time": 106457, "pitch": 69, "duration": 10, "velocity": 29}, {"time": 106556, "pitch": 40, "duration": 10, "velocity": 121}, {"time": 106556, "pitch": 42, "duration": 10, "velocity": 112}, {"time": 106556, "pitch": 54, "duration": 10, "velocity": 125}, {"time": 106699, "pitch": 54, "duration": 10, "velocity": 61}, {"time": 106699, "pitch": 69, "duration": 10, "velocity": 54}, {"time": 106800, "pitch": 35, "duration": 10, "velocity": 77}, {"time": 106800, "pitch": 42, "duration": 10, "velocity": 54}, {"time": 106800, "pitch": 54, "duration": 10, "velocity": 81}, {"time": 106800, "pitch": 69, "duration": 10, "velocity": 29}, {"time": 106942, "pitch": 38, "duration": 11, "velocity": 64}, {"time": 106942, "pitch": 54, "duration": 11, "velocity": 54}, {"time": 107043, "pitch": 35, "duration": 10, "velocity": 65}, {"time": 107043, "pitch": 36, "duration": 10, "velocity": 64}, {"time": 107043, "pitch": 42, "duration": 10, "velocity": 114}, {"time": 107043, "pitch": 46, "duration": 10, "velocity": 10}, {"time": 107043, "pitch": 54, "duration": 10, "velocity": 102}, {"time": 107043, "pitch": 69, "duration": 10, "velocity": 54}, {"time": 107184, "pitch": 38, "duration": 9, "velocity": 97}, {"time": 107184, "pitch": 54, "duration": 9, "velocity": 44}, {"time": 107282, "pitch": 35, "duration": 10, "velocity": 100}, {"time": 107282, "pitch": 46, "duration": 10, "velocity": 106}, {"time": 107282, "pitch": 54, "duration": 10, "velocity": 54}, {"time": 107282, "pitch": 69, "duration": 10, "velocity": 29}, {"time": 107423, "pitch": 54, "duration": 10, "velocity": 66}, {"time": 107423, "pitch": 69, "duration": 10, "velocity": 17}, {"time": 107522, "pitch": 40, "duration": 10, "velocity": 121}, {"time": 107522, "pitch": 42, "duration": 10, "velocity": 83}, {"time": 107522, "pitch": 54, "duration": 10, "velocity": 103}, {"time": 107522, "pitch": 69, "duration": 10, "velocity": 43}, {"time": 107662, "pitch": 54, "duration": 10, "velocity": 58}, {"time": 107761, "pitch": 35, "duration": 10, "velocity": 77}, {"time": 107761, "pitch": 36, "duration": 10, "velocity": 62}, {"time": 107761, "pitch": 42, "duration": 10, "velocity": 83}, {"time": 107761, "pitch": 46, "duration": 10, "velocity": 8}, {"time": 107761, "pitch": 54, "duration": 10, "velocity": 58}, {"time": 107761, "pitch": 69, "duration": 10, "velocity": 26}, {"time": 107902, "pitch": 38, "duration": 10, "velocity": 76}, {"time": 107902, "pitch": 54, "duration": 10, "velocity": 89}, {"time": 108001, "pitch": 35, "duration": 10, "velocity": 121}, {"time": 108001, "pitch": 36, "duration": 10, "velocity": 64}, {"time": 108001, "pitch": 42, "duration": 10, "velocity": 125}, {"time": 108001, "pitch": 46, "duration": 10, "velocity": 10}, {"time": 108001, "pitch": 54, "duration": 10, "velocity": 58}, {"time": 108001, "pitch": 57, "duration": 10, "velocity": 60}, {"time": 108141, "pitch": 54, "duration": 10, "velocity": 47}, {"time": 108240, "pitch": 35, "duration": 10, "velocity": 119}, {"time": 108240, "pitch": 42, "duration": 10, "velocity": 50}, {"time": 108240, "pitch": 54, "duration": 10, "velocity": 54}, {"time": 108240, "pitch": 69, "duration": 10, "velocity": 46}, {"time": 108381, "pitch": 36, "duration": 10, "velocity": 51}, {"time": 108381, "pitch": 46, "duration": 10, "velocity": 1}, {"time": 108381, "pitch": 54, "duration": 10, "velocity": 71}, {"time": 108381, "pitch": 69, "duration": 10, "velocity": 29}, {"time": 108479, "pitch": 40, "duration": 10, "velocity": 121}, {"time": 108479, "pitch": 42, "duration": 10, "velocity": 122}, {"time": 108479, "pitch": 54, "duration": 10, "velocity": 125}, {"time": 108620, "pitch": 54, "duration": 10, "velocity": 61}, {"time": 108620, "pitch": 69, "duration": 10, "velocity": 54}, {"time": 108719, "pitch": 35, "duration": 10, "velocity": 77}, {"time": 108719, "pitch": 42, "duration": 10, "velocity": 71}, {"time": 108719, "pitch": 54, "duration": 10, "velocity": 81}, {"time": 108719, "pitch": 69, "duration": 10, "velocity": 29}, {"time": 108860, "pitch": 38, "duration": 10, "velocity": 64}, {"time": 108860, "pitch": 54, "duration": 10, "velocity": 54}, {"time": 108958, "pitch": 35, "duration": 10, "velocity": 65}, {"time": 108958, "pitch": 36, "duration": 10, "velocity": 64}, {"time": 108958, "pitch": 42, "duration": 10, "velocity": 114}, {"time": 108958, "pitch": 46, "duration": 10, "velocity": 10}, {"time": 108958, "pitch": 54, "duration": 10, "velocity": 102}, {"time": 108958, "pitch": 69, "duration": 10, "velocity": 54}, {"time": 109099, "pitch": 38, "duration": 10, "velocity": 97}, {"time": 109099, "pitch": 54, "duration": 10, "velocity": 44}, {"time": 109198, "pitch": 35, "duration": 10, "velocity": 100}, {"time": 109198, "pitch": 46, "duration": 10, "velocity": 103}, {"time": 109198, "pitch": 54, "duration": 10, "velocity": 54}, {"time": 109198, "pitch": 69, "duration": 10, "velocity": 29}, {"time": 109338, "pitch": 54, "duration": 10, "velocity": 66}, {"time": 109338, "pitch": 69, "duration": 10, "velocity": 17}, {"time": 109437, "pitch": 40, "duration": 10, "velocity": 121}, {"time": 109437, "pitch": 42, "duration": 10, "velocity": 114}, {"time": 109437, "pitch": 54, "duration": 10, "velocity": 103}, {"time": 109437, "pitch": 69, "duration": 10, "velocity": 43}, {"time": 109580, "pitch": 54, "duration": 10, "velocity": 58}, {"time": 109681, "pitch": 35, "duration": 10, "velocity": 77}, {"time": 109681, "pitch": 36, "duration": 10, "velocity": 62}, {"time": 109681, "pitch": 42, "duration": 10, "velocity": 71}, {"time": 109681, "pitch": 46, "duration": 10, "velocity": 8}, {"time": 109681, "pitch": 54, "duration": 10, "velocity": 58}, {"time": 109681, "pitch": 69, "duration": 10, "velocity": 26}, {"time": 109824, "pitch": 38, "duration": 10, "velocity": 76}, {"time": 109824, "pitch": 54, "duration": 10, "velocity": 89}, {"time": 109924, "pitch": 35, "duration": 10, "velocity": 121}, {"time": 109924, "pitch": 36, "duration": 10, "velocity": 64}, {"time": 109924, "pitch": 42, "duration": 10, "velocity": 89}, {"time": 109924, "pitch": 46, "duration": 10, "velocity": 10}, {"time": 109924, "pitch": 54, "duration": 10, "velocity": 58}, {"time": 110065, "pitch": 54, "duration": 10, "velocity": 47}, {"time": 110163, "pitch": 35, "duration": 10, "velocity": 119}, {"time": 110163, "pitch": 42, "duration": 10, "velocity": 83}, {"time": 110163, "pitch": 54, "duration": 10, "velocity": 54}, {"time": 110163, "pitch": 69, "duration": 10, "velocity": 46}, {"time": 110304, "pitch": 36, "duration": 10, "velocity": 51}, {"time": 110304, "pitch": 46, "duration": 10, "velocity": 1}, {"time": 110304, "pitch": 54, "duration": 10, "velocity": 71}, {"time": 110304, "pitch": 69, "duration": 10, "velocity": 29}, {"time": 110403, "pitch": 40, "duration": 10, "velocity": 121}, {"time": 110403, "pitch": 42, "duration": 10, "velocity": 112}, {"time": 110403, "pitch": 54, "duration": 10, "velocity": 125}, {"time": 110543, "pitch": 54, "duration": 10, "velocity": 61}, {"time": 110543, "pitch": 69, "duration": 10, "velocity": 54}, {"time": 110642, "pitch": 35, "duration": 10, "velocity": 77}, {"time": 110642, "pitch": 42, "duration": 10, "velocity": 54}, {"time": 110642, "pitch": 54, "duration": 10, "velocity": 81}, {"time": 110642, "pitch": 57, "duration": 10, "velocity": 75}, {"time": 110642, "pitch": 69, "duration": 10, "velocity": 29}, {"time": 110783, "pitch": 38, "duration": 10, "velocity": 64}, {"time": 110783, "pitch": 54, "duration": 10, "velocity": 54}, {"time": 110882, "pitch": 35, "duration": 10, "velocity": 65}, {"time": 110882, "pitch": 36, "duration": 10, "velocity": 64}, {"time": 110882, "pitch": 42, "duration": 10, "velocity": 114}, {"time": 110882, "pitch": 46, "duration": 10, "velocity": 10}, {"time": 110882, "pitch": 54, "duration": 10, "velocity": 102}, {"time": 110882, "pitch": 69, "duration": 10, "velocity": 54}, {"time": 111022, "pitch": 38, "duration": 10, "velocity": 97}, {"time": 111022, "pitch": 54, "duration": 10, "velocity": 44}, {"time": 111121, "pitch": 35, "duration": 10, "velocity": 100}, {"time": 111121, "pitch": 46, "duration": 10, "velocity": 106}, {"time": 111121, "pitch": 54, "duration": 10, "velocity": 54}, {"time": 111121, "pitch": 69, "duration": 10, "velocity": 29}, {"time": 111262, "pitch": 54, "duration": 10, "velocity": 66}, {"time": 111262, "pitch": 69, "duration": 10, "velocity": 17}, {"time": 111361, "pitch": 40, "duration": 9, "velocity": 121}, {"time": 111361, "pitch": 42, "duration": 9, "velocity": 83}, {"time": 111361, "pitch": 54, "duration": 9, "velocity": 103}, {"time": 111361, "pitch": 69, "duration": 9, "velocity": 43}, {"time": 111501, "pitch": 54, "duration": 10, "velocity": 58}, {"time": 111600, "pitch": 35, "duration": 10, "velocity": 77}, {"time": 111600, "pitch": 36, "duration": 10, "velocity": 62}, {"time": 111600, "pitch": 42, "duration": 10, "velocity": 83}, {"time": 111600, "pitch": 46, "duration": 10, "velocity": 8}, {"time": 111600, "pitch": 54, "duration": 10, "velocity": 58}, {"time": 111600, "pitch": 69, "duration": 10, "velocity": 26}, {"time": 111741, "pitch": 38, "duration": 10, "velocity": 76}, {"time": 111741, "pitch": 54, "duration": 10, "velocity": 89}, {"time": 111839, "pitch": 35, "duration": 10, "velocity": 121}, {"time": 111839, "pitch": 36, "duration": 10, "velocity": 64}, {"time": 111839, "pitch": 42, "duration": 10, "velocity": 125}, {"time": 111839, "pitch": 46, "duration": 10, "velocity": 10}, {"time": 111839, "pitch": 54, "duration": 10, "velocity": 58}, {"time": 111980, "pitch": 54, "duration": 10, "velocity": 47}, {"time": 112079, "pitch": 35, "duration": 10, "velocity": 119}, {"time": 112079, "pitch": 42, "duration": 10, "velocity": 50}, {"time": 112079, "pitch": 54, "duration": 10, "velocity": 54}, {"time": 112079, "pitch": 69, "duration": 10, "velocity": 46}, {"time": 112220, "pitch": 36, "duration": 9, "velocity": 51}, {"time": 112220, "pitch": 46, "duration": 9, "velocity": 1}, {"time": 112220, "pitch": 54, "duration": 9, "velocity": 71}, {"time": 112220, "pitch": 69, "duration": 9, "velocity": 29}, {"time": 112318, "pitch": 40, "duration": 10, "velocity": 121}, {"time": 112318, "pitch": 42, "duration": 10, "velocity": 122}, {"time": 112318, "pitch": 54, "duration": 10, "velocity": 125}, {"time": 112459, "pitch": 54, "duration": 10, "velocity": 61}, {"time": 112459, "pitch": 69, "duration": 10, "velocity": 54}, {"time": 112558, "pitch": 35, "duration": 10, "velocity": 77}, {"time": 112558, "pitch": 42, "duration": 10, "velocity": 71}, {"time": 112558, "pitch": 54, "duration": 10, "velocity": 81}, {"time": 112558, "pitch": 69, "duration": 10, "velocity": 29}, {"time": 112698, "pitch": 38, "duration": 10, "velocity": 64}, {"time": 112698, "pitch": 54, "duration": 10, "velocity": 54}, {"time": 112797, "pitch": 35, "duration": 10, "velocity": 65}, {"time": 112797, "pitch": 36, "duration": 10, "velocity": 64}, {"time": 112797, "pitch": 42, "duration": 10, "velocity": 114}, {"time": 112797, "pitch": 46, "duration": 10, "velocity": 10}, {"time": 112797, "pitch": 54, "duration": 10, "velocity": 102}, {"time": 112797, "pitch": 69, "duration": 10, "velocity": 54}, {"time": 112940, "pitch": 38, "duration": 10, "velocity": 97}, {"time": 112940, "pitch": 54, "duration": 10, "velocity": 44}, {"time": 113040, "pitch": 35, "duration": 11, "velocity": 100}, {"time": 113040, "pitch": 46, "duration": 11, "velocity": 103}, {"time": 113040, "pitch": 54, "duration": 11, "velocity": 54}, {"time": 113040, "pitch": 69, "duration": 11, "velocity": 29}, {"time": 113183, "pitch": 54, "duration": 11, "velocity": 66}, {"time": 113183, "pitch": 69, "duration": 11, "velocity": 17}, {"time": 113284, "pitch": 40, "duration": 10, "velocity": 121}, {"time": 113284, "pitch": 42, "duration": 10, "velocity": 114}, {"time": 113284, "pitch": 54, "duration": 10, "velocity": 103}, {"time": 113284, "pitch": 69, "duration": 10, "velocity": 43}, {"time": 113424, "pitch": 54, "duration": 10, "velocity": 58}, {"time": 113523, "pitch": 35, "duration": 10, "velocity": 77}, {"time": 113523, "pitch": 36, "duration": 10, "velocity": 62}, {"time": 113523, "pitch": 42, "duration": 10, "velocity": 71}, {"time": 113523, "pitch": 46, "duration": 10, "velocity": 8}, {"time": 113523, "pitch": 54, "duration": 10, "velocity": 58}, {"time": 113523, "pitch": 69, "duration": 10, "velocity": 26}, {"time": 113664, "pitch": 38, "duration": 10, "velocity": 76}, {"time": 113664, "pitch": 54, "duration": 10, "velocity": 89}, {"time": 113763, "pitch": 35, "duration": 10, "velocity": 121}, {"time": 113763, "pitch": 36, "duration": 10, "velocity": 64}, {"time": 113763, "pitch": 42, "duration": 10, "velocity": 89}, {"time": 113763, "pitch": 46, "duration": 10, "velocity": 10}, {"time": 113763, "pitch": 54, "duration": 10, "velocity": 58}, {"time": 113903, "pitch": 54, "duration": 10, "velocity": 47}, {"time": 114002, "pitch": 35, "duration": 10, "velocity": 119}, {"time": 114002, "pitch": 42, "duration": 10, "velocity": 83}, {"time": 114002, "pitch": 54, "duration": 10, "velocity": 54}, {"time": 114002, "pitch": 69, "duration": 10, "velocity": 46}, {"time": 114143, "pitch": 36, "duration": 10, "velocity": 51}, {"time": 114143, "pitch": 46, "duration": 10, "velocity": 1}, {"time": 114143, "pitch": 54, "duration": 10, "velocity": 71}, {"time": 114143, "pitch": 69, "duration": 10, "velocity": 29}, {"time": 114242, "pitch": 40, "duration": 10, "velocity": 121}, {"time": 114242, "pitch": 42, "duration": 10, "velocity": 112}, {"time": 114242, "pitch": 54, "duration": 10, "velocity": 125}, {"time": 114382, "pitch": 54, "duration": 10, "velocity": 61}, {"time": 114382, "pitch": 69, "duration": 10, "velocity": 54}, {"time": 114481, "pitch": 35, "duration": 10, "velocity": 77}, {"time": 114481, "pitch": 42, "duration": 10, "velocity": 54}, {"time": 114481, "pitch": 54, "duration": 10, "velocity": 81}, {"time": 114481, "pitch": 69, "duration": 10, "velocity": 29}, {"time": 114622, "pitch": 38, "duration": 10, "velocity": 64}, {"time": 114622, "pitch": 54, "duration": 10, "velocity": 54}, {"time": 114720, "pitch": 35, "duration": 10, "velocity": 65}, {"time": 114720, "pitch": 36, "duration": 10, "velocity": 64}, {"time": 114720, "pitch": 42, "duration": 10, "velocity": 114}, {"time": 114720, "pitch": 46, "duration": 10, "velocity": 10}, {"time": 114720, "pitch": 54, "duration": 10, "velocity": 102}, {"time": 114720, "pitch": 69, "duration": 10, "velocity": 54}, {"time": 114861, "pitch": 38, "duration": 10, "velocity": 97}, {"time": 114861, "pitch": 54, "duration": 10, "velocity": 44}, {"time": 114960, "pitch": 35, "duration": 10, "velocity": 100}, {"time": 114960, "pitch": 46, "duration": 10, "velocity": 106}, {"time": 114960, "pitch": 54, "duration": 10, "velocity": 54}, {"time": 114960, "pitch": 69, "duration": 10, "velocity": 29}, {"time": 115101, "pitch": 54, "duration": 10, "velocity": 66}, {"time": 115101, "pitch": 69, "duration": 10, "velocity": 17}, {"time": 115199, "pitch": 40, "duration": 10, "velocity": 121}, {"time": 115199, "pitch": 42, "duration": 10, "velocity": 83}, {"time": 115199, "pitch": 54, "duration": 10, "velocity": 103}, {"time": 115199, "pitch": 69, "duration": 10, "velocity": 43}, {"time": 115340, "pitch": 54, "duration": 10, "velocity": 58}, {"time": 115439, "pitch": 35, "duration": 10, "velocity": 77}, {"time": 115439, "pitch": 36, "duration": 10, "velocity": 62}, {"time": 115439, "pitch": 42, "duration": 10, "velocity": 83}, {"time": 115439, "pitch": 46, "duration": 10, "velocity": 8}, {"time": 115439, "pitch": 54, "duration": 10, "velocity": 58}, {"time": 115439, "pitch": 69, "duration": 10, "velocity": 26}, {"time": 115579, "pitch": 38, "duration": 10, "velocity": 76}, {"time": 115579, "pitch": 54, "duration": 10, "velocity": 89}, {"time": 115678, "pitch": 35, "duration": 10, "velocity": 121}, {"time": 115678, "pitch": 36, "duration": 10, "velocity": 64}, {"time": 115678, "pitch": 42, "duration": 10, "velocity": 125}, {"time": 115678, "pitch": 46, "duration": 10, "velocity": 10}, {"time": 115678, "pitch": 57, "duration": 10, "velocity": 64}, {"time": 115918, "pitch": 35, "duration": 10, "velocity": 119}, {"time": 115918, "pitch": 42, "duration": 10, "velocity": 50}, {"time": 115918, "pitch": 69, "duration": 10, "velocity": 46}, {"time": 116058, "pitch": 69, "duration": 10, "velocity": 29}, {"time": 116157, "pitch": 36, "duration": 10, "velocity": 51}, {"time": 116157, "pitch": 40, "duration": 10, "velocity": 121}, {"time": 116157, "pitch": 42, "duration": 10, "velocity": 122}, {"time": 116157, "pitch": 46, "duration": 10, "velocity": 1}, {"time": 116300, "pitch": 69, "duration": 10, "velocity": 54}, {"time": 116400, "pitch": 35, "duration": 11, "velocity": 77}, {"time": 116400, "pitch": 42, "duration": 11, "velocity": 71}, {"time": 116400, "pitch": 69, "duration": 11, "velocity": 29}, {"time": 116543, "pitch": 38, "duration": 11, "velocity": 64}, {"time": 116644, "pitch": 35, "duration": 10, "velocity": 65}, {"time": 116644, "pitch": 36, "duration": 10, "velocity": 64}, {"time": 116644, "pitch": 42, "duration": 10, "velocity": 114}, {"time": 116644, "pitch": 46, "duration": 10, "velocity": 10}, {"time": 116644, "pitch": 69, "duration": 10, "velocity": 54}, {"time": 116784, "pitch": 38, "duration": 10, "velocity": 97}, {"time": 116883, "pitch": 35, "duration": 10, "velocity": 100}, {"time": 116883, "pitch": 46, "duration": 10, "velocity": 103}, {"time": 116883, "pitch": 69, "duration": 10, "velocity": 29}, {"time": 117024, "pitch": 69, "duration": 10, "velocity": 17}, {"time": 117123, "pitch": 36, "duration": 10, "velocity": 62}, {"time": 117123, "pitch": 40, "duration": 10, "velocity": 121}, {"time": 117123, "pitch": 42, "duration": 10, "velocity": 114}, {"time": 117123, "pitch": 46, "duration": 10, "velocity": 8}, {"time": 117123, "pitch": 69, "duration": 10, "velocity": 43}, {"time": 117362, "pitch": 35, "duration": 10, "velocity": 77}, {"time": 117362, "pitch": 42, "duration": 10, "velocity": 71}, {"time": 117362, "pitch": 69, "duration": 10, "velocity": 26}, {"time": 117503, "pitch": 38, "duration": 10, "velocity": 76}, {"time": 117601, "pitch": 35, "duration": 10, "velocity": 121}, {"time": 117601, "pitch": 36, "duration": 10, "velocity": 64}, {"time": 117601, "pitch": 42, "duration": 10, "velocity": 89}, {"time": 117601, "pitch": 46, "duration": 10, "velocity": 10}, {"time": 117601, "pitch": 49, "duration": 10, "velocity": 64}, {"time": 117841, "pitch": 35, "duration": 10, "velocity": 119}, {"time": 117841, "pitch": 42, "duration": 10, "velocity": 83}, {"time": 117841, "pitch": 69, "duration": 10, "velocity": 46}, {"time": 117982, "pitch": 69, "duration": 10, "velocity": 29}, {"time": 118080, "pitch": 36, "duration": 10, "velocity": 51}, {"time": 118080, "pitch": 40, "duration": 10, "velocity": 121}, {"time": 118080, "pitch": 42, "duration": 10, "velocity": 112}, {"time": 118080, "pitch": 46, "duration": 10, "velocity": 1}, {"time": 118221, "pitch": 69, "duration": 10, "velocity": 54}, {"time": 118320, "pitch": 35, "duration": 10, "velocity": 77}, {"time": 118320, "pitch": 42, "duration": 10, "velocity": 54}, {"time": 118320, "pitch": 69, "duration": 10, "velocity": 29}, {"time": 118460, "pitch": 38, "duration": 10, "velocity": 64}, {"time": 118559, "pitch": 35, "duration": 10, "velocity": 65}, {"time": 118559, "pitch": 36, "duration": 10, "velocity": 64}, {"time": 118559, "pitch": 42, "duration": 10, "velocity": 114}, {"time": 118559, "pitch": 46, "duration": 10, "velocity": 10}, {"time": 118559, "pitch": 69, "duration": 10, "velocity": 54}, {"time": 118700, "pitch": 38, "duration": 10, "velocity": 97}, {"time": 118799, "pitch": 35, "duration": 10, "velocity": 100}, {"time": 118799, "pitch": 46, "duration": 10, "velocity": 106}, {"time": 118799, "pitch": 69, "duration": 10, "velocity": 29}, {"time": 118939, "pitch": 69, "duration": 10, "velocity": 17}, {"time": 119038, "pitch": 36, "duration": 10, "velocity": 62}, {"time": 119038, "pitch": 40, "duration": 10, "velocity": 121}, {"time": 119038, "pitch": 42, "duration": 10, "velocity": 83}, {"time": 119038, "pitch": 46, "duration": 10, "velocity": 8}, {"time": 119038, "pitch": 69, "duration": 10, "velocity": 43}, {"time": 119278, "pitch": 35, "duration": 10, "velocity": 77}, {"time": 119278, "pitch": 42, "duration": 10, "velocity": 83}, {"time": 119278, "pitch": 69, "duration": 10, "velocity": 26}, {"time": 119418, "pitch": 38, "duration": 10, "velocity": 76}, {"time": 119517, "pitch": 35, "duration": 10, "velocity": 121}, {"time": 119517, "pitch": 36, "duration": 10, "velocity": 64}, {"time": 119517, "pitch": 42, "duration": 10, "velocity": 125}, {"time": 119517, "pitch": 46, "duration": 10, "velocity": 10}, {"time": 119517, "pitch": 57, "duration": 10, "velocity": 64}, {"time": 119760, "pitch": 35, "duration": 10, "velocity": 119}, {"time": 119760, "pitch": 42, "duration": 10, "velocity": 50}, {"time": 119760, "pitch": 69, "duration": 10, "velocity": 46}, {"time": 119903, "pitch": 69, "duration": 10, "velocity": 29}, {"time": 120004, "pitch": 36, "duration": 10, "velocity": 51}, {"time": 120004, "pitch": 40, "duration": 10, "velocity": 121}, {"time": 120004, "pitch": 42, "duration": 10, "velocity": 122}, {"time": 120004, "pitch": 46, "duration": 10, "velocity": 1}, {"time": 120144, "pitch": 69, "duration": 10, "velocity": 54}, {"time": 120243, "pitch": 35, "duration": 10, "velocity": 77}, {"time": 120243, "pitch": 42, "duration": 10, "velocity": 71}, {"time": 120243, "pitch": 69, "duration": 10, "velocity": 29}, {"time": 120384, "pitch": 38, "duration": 10, "velocity": 64}, {"time": 120482, "pitch": 35, "duration": 10, "velocity": 65}, {"time": 120482, "pitch": 36, "duration": 10, "velocity": 64}, {"time": 120482, "pitch": 42, "duration": 10, "velocity": 114}, {"time": 120482, "pitch": 46, "duration": 10, "velocity": 10}, {"time": 120482, "pitch": 69, "duration": 10, "velocity": 54}, {"time": 120623, "pitch": 38, "duration": 10, "velocity": 97}, {"time": 120722, "pitch": 35, "duration": 10, "velocity": 100}, {"time": 120722, "pitch": 46, "duration": 10, "velocity": 103}, {"time": 120722, "pitch": 69, "duration": 10, "velocity": 29}, {"time": 120863, "pitch": 69, "duration": 10, "velocity": 17}, {"time": 120961, "pitch": 36, "duration": 10, "velocity": 62}, {"time": 120961, "pitch": 40, "duration": 10, "velocity": 121}, {"time": 120961, "pitch": 42, "duration": 10, "velocity": 114}, {"time": 120961, "pitch": 46, "duration": 10, "velocity": 8}, {"time": 120961, "pitch": 69, "duration": 10, "velocity": 43}, {"time": 121201, "pitch": 35, "duration": 10, "velocity": 77}, {"time": 121201, "pitch": 42, "duration": 10, "velocity": 71}, {"time": 121201, "pitch": 69, "duration": 10, "velocity": 26}, {"time": 121341, "pitch": 38, "duration": 10, "velocity": 76}, {"time": 121440, "pitch": 35, "duration": 10, "velocity": 121}, {"time": 121440, "pitch": 36, "duration": 10, "velocity": 64}, {"time": 121440, "pitch": 42, "duration": 10, "velocity": 89}, {"time": 121440, "pitch": 46, "duration": 10, "velocity": 10}, {"time": 121680, "pitch": 35, "duration": 10, "velocity": 119}, {"time": 121680, "pitch": 42, "duration": 10, "velocity": 83}, {"time": 121680, "pitch": 69, "duration": 10, "velocity": 46}, {"time": 121820, "pitch": 69, "duration": 10, "velocity": 29}, {"time": 121919, "pitch": 36, "duration": 10, "velocity": 51}, {"time": 121919, "pitch": 40, "duration": 10, "velocity": 121}, {"time": 121919, "pitch": 42, "duration": 10, "velocity": 112}, {"time": 121919, "pitch": 46, "duration": 10, "velocity": 1}, {"time": 122060, "pitch": 69, "duration": 10, "velocity": 54}, {"time": 122159, "pitch": 35, "duration": 10, "velocity": 77}, {"time": 122159, "pitch": 42, "duration": 10, "velocity": 54}, {"time": 122159, "pitch": 69, "duration": 10, "velocity": 29}, {"time": 122299, "pitch": 38, "duration": 10, "velocity": 64}, {"time": 122398, "pitch": 35, "duration": 10, "velocity": 65}, {"time": 122398, "pitch": 36, "duration": 10, "velocity": 64}, {"time": 122398, "pitch": 42, "duration": 10, "velocity": 114}, {"time": 122398, "pitch": 46, "duration": 10, "velocity": 10}, {"time": 122398, "pitch": 69, "duration": 10, "velocity": 54}, {"time": 122539, "pitch": 38, "duration": 10, "velocity": 97}, {"time": 122637, "pitch": 35, "duration": 10, "velocity": 100}, {"time": 122637, "pitch": 46, "duration": 10, "velocity": 106}, {"time": 122637, "pitch": 69, "duration": 10, "velocity": 29}, {"time": 122778, "pitch": 69, "duration": 10, "velocity": 17}, {"time": 122877, "pitch": 36, "duration": 10, "velocity": 62}, {"time": 122877, "pitch": 40, "duration": 10, "velocity": 121}, {"time": 122877, "pitch": 42, "duration": 10, "velocity": 83}, {"time": 122877, "pitch": 46, "duration": 10, "velocity": 8}, {"time": 122877, "pitch": 69, "duration": 10, "velocity": 43}, {"time": 123120, "pitch": 35, "duration": 10, "velocity": 77}, {"time": 123120, "pitch": 42, "duration": 10, "velocity": 83}, {"time": 123120, "pitch": 69, "duration": 10, "velocity": 26}, {"time": 123263, "pitch": 38, "duration": 10, "velocity": 76}, {"time": 123364, "pitch": 35, "duration": 10, "velocity": 121}, {"time": 123364, "pitch": 36, "duration": 10, "velocity": 64}, {"time": 123364, "pitch": 42, "duration": 10, "velocity": 125}, {"time": 123364, "pitch": 46, "duration": 10, "velocity": 10}, {"time": 123364, "pitch": 57, "duration": 10, "velocity": 64}, {"time": 123603, "pitch": 35, "duration": 10, "velocity": 119}, {"time": 123603, "pitch": 42, "duration": 10, "velocity": 50}, {"time": 123603, "pitch": 69, "duration": 10, "velocity": 46}, {"time": 123744, "pitch": 69, "duration": 10, "velocity": 29}, {"time": 123842, "pitch": 36, "duration": 10, "velocity": 51}, {"time": 123842, "pitch": 40, "duration": 10, "velocity": 121}, {"time": 123842, "pitch": 42, "duration": 10, "velocity": 122}, {"time": 123842, "pitch": 46, "duration": 10, "velocity": 1}, {"time": 123983, "pitch": 69, "duration": 10, "velocity": 54}, {"time": 124082, "pitch": 35, "duration": 10, "velocity": 77}, {"time": 124082, "pitch": 42, "duration": 10, "velocity": 71}, {"time": 124082, "pitch": 69, "duration": 10, "velocity": 29}, {"time": 124223, "pitch": 38, "duration": 10, "velocity": 64}, {"time": 124321, "pitch": 35, "duration": 10, "velocity": 65}, {"time": 124321, "pitch": 36, "duration": 10, "velocity": 64}, {"time": 124321, "pitch": 42, "duration": 10, "velocity": 114}, {"time": 124321, "pitch": 46, "duration": 10, "velocity": 10}, {"time": 124321, "pitch": 69, "duration": 10, "velocity": 54}, {"time": 124462, "pitch": 38, "duration": 10, "velocity": 97}, {"time": 124561, "pitch": 35, "duration": 10, "velocity": 100}, {"time": 124561, "pitch": 46, "duration": 10, "velocity": 103}, {"time": 124561, "pitch": 69, "duration": 10, "velocity": 29}, {"time": 124701, "pitch": 69, "duration": 10, "velocity": 17}, {"time": 124800, "pitch": 36, "duration": 10, "velocity": 62}, {"time": 124800, "pitch": 40, "duration": 10, "velocity": 121}, {"time": 124800, "pitch": 42, "duration": 10, "velocity": 114}, {"time": 124800, "pitch": 46, "duration": 10, "velocity": 8}, {"time": 124800, "pitch": 69, "duration": 10, "velocity": 43}, {"time": 125040, "pitch": 35, "duration": 10, "velocity": 77}, {"time": 125040, "pitch": 42, "duration": 10, "velocity": 71}, {"time": 125040, "pitch": 69, "duration": 10, "velocity": 26}, {"time": 125180, "pitch": 38, "duration": 10, "velocity": 76}, {"time": 125279, "pitch": 35, "duration": 10, "velocity": 121}, {"time": 125279, "pitch": 36, "duration": 10, "velocity": 64}, {"time": 125279, "pitch": 42, "duration": 10, "velocity": 89}, {"time": 125279, "pitch": 46, "duration": 10, "velocity": 10}, {"time": 125518, "pitch": 35, "duration": 10, "velocity": 119}, {"time": 125518, "pitch": 42, "duration": 10, "velocity": 83}, {"time": 125518, "pitch": 69, "duration": 10, "velocity": 46}, {"time": 125659, "pitch": 69, "duration": 10, "velocity": 29}, {"time": 125758, "pitch": 36, "duration": 10, "velocity": 51}, {"time": 125758, "pitch": 40, "duration": 10, "velocity": 121}, {"time": 125758, "pitch": 42, "duration": 10, "velocity": 112}, {"time": 125758, "pitch": 46, "duration": 10, "velocity": 1}, {"time": 125899, "pitch": 69, "duration": 10, "velocity": 54}, {"time": 125997, "pitch": 35, "duration": 10, "velocity": 77}, {"time": 125997, "pitch": 42, "duration": 10, "velocity": 54}, {"time": 125997, "pitch": 69, "duration": 10, "velocity": 29}, {"time": 126138, "pitch": 38, "duration": 10, "velocity": 64}, {"time": 126237, "pitch": 35, "duration": 10, "velocity": 65}, {"time": 126237, "pitch": 36, "duration": 10, "velocity": 64}, {"time": 126237, "pitch": 42, "duration": 10, "velocity": 114}, {"time": 126237, "pitch": 46, "duration": 10, "velocity": 10}, {"time": 126237, "pitch": 69, "duration": 10, "velocity": 54}, {"time": 126380, "pitch": 38, "duration": 10, "velocity": 97}, {"time": 126480, "pitch": 35, "duration": 10, "velocity": 100}, {"time": 126480, "pitch": 46, "duration": 10, "velocity": 106}, {"time": 126480, "pitch": 69, "duration": 10, "velocity": 29}, {"time": 126623, "pitch": 69, "duration": 10, "velocity": 17}, {"time": 126723, "pitch": 36, "duration": 10, "velocity": 62}, {"time": 126723, "pitch": 40, "duration": 10, "velocity": 121}, {"time": 126723, "pitch": 42, "duration": 10, "velocity": 83}, {"time": 126723, "pitch": 46, "duration": 10, "velocity": 8}, {"time": 126723, "pitch": 69, "duration": 10, "velocity": 43}, {"time": 126963, "pitch": 35, "duration": 10, "velocity": 77}, {"time": 126963, "pitch": 42, "duration": 10, "velocity": 83}, {"time": 126963, "pitch": 69, "duration": 10, "velocity": 26}, {"time": 127104, "pitch": 38, "duration": 10, "velocity": 76}, {"time": 127202, "pitch": 35, "duration": 10, "velocity": 121}, {"time": 127202, "pitch": 36, "duration": 10, "velocity": 64}, {"time": 127202, "pitch": 42, "duration": 10, "velocity": 125}, {"time": 127202, "pitch": 46, "duration": 10, "velocity": 10}, {"time": 127202, "pitch": 57, "duration": 10, "velocity": 89}, {"time": 127442, "pitch": 35, "duration": 10, "velocity": 119}, {"time": 127442, "pitch": 42, "duration": 10, "velocity": 50}, {"time": 127442, "pitch": 69, "duration": 10, "velocity": 46}, {"time": 127582, "pitch": 69, "duration": 10, "velocity": 29}, {"time": 127681, "pitch": 36, "duration": 10, "velocity": 51}, {"time": 127681, "pitch": 40, "duration": 10, "velocity": 121}, {"time": 127681, "pitch": 42, "duration": 10, "velocity": 122}, {"time": 127681, "pitch": 46, "duration": 10, "velocity": 1}, {"time": 127822, "pitch": 69, "duration": 10, "velocity": 54}, {"time": 127881, "pitch": 38, "duration": 10, "velocity": 84}, {"time": 127921, "pitch": 35, "duration": 10, "velocity": 119}, {"time": 127921, "pitch": 42, "duration": 10, "velocity": 71}, {"time": 127921, "pitch": 49, "duration": 10, "velocity": 67}, {"time": 127921, "pitch": 69, "duration": 10, "velocity": 29}, {"time": 128160, "pitch": 35, "duration": 10, "velocity": 65}, {"time": 128160, "pitch": 36, "duration": 10, "velocity": 64}, {"time": 128160, "pitch": 42, "duration": 10, "velocity": 114}, {"time": 128160, "pitch": 46, "duration": 10, "velocity": 10}, {"time": 128160, "pitch": 69, "duration": 10, "velocity": 54}, {"time": 128400, "pitch": 35, "duration": 10, "velocity": 100}, {"time": 128400, "pitch": 46, "duration": 10, "velocity": 103}, {"time": 128400, "pitch": 69, "duration": 10, "velocity": 29}, {"time": 128540, "pitch": 69, "duration": 10, "velocity": 17}, {"time": 128639, "pitch": 36, "duration": 10, "velocity": 62}, {"time": 128639, "pitch": 40, "duration": 10, "velocity": 121}, {"time": 128639, "pitch": 42, "duration": 10, "velocity": 114}, {"time": 128639, "pitch": 46, "duration": 10, "velocity": 8}, {"time": 128639, "pitch": 69, "duration": 10, "velocity": 43}, {"time": 128779, "pitch": 38, "duration": 10, "velocity": 97}, {"time": 128878, "pitch": 35, "duration": 10, "velocity": 77}, {"time": 128878, "pitch": 42, "duration": 10, "velocity": 71}, {"time": 128878, "pitch": 69, "duration": 10, "velocity": 26}, {"time": 129019, "pitch": 38, "duration": 10, "velocity": 76}, {"time": 129118, "pitch": 35, "duration": 10, "velocity": 121}, {"time": 129118, "pitch": 36, "duration": 10, "velocity": 64}, {"time": 129118, "pitch": 42, "duration": 10, "velocity": 89}, {"time": 129118, "pitch": 46, "duration": 10, "velocity": 10}, {"time": 129118, "pitch": 57, "duration": 10, "velocity": 66}, {"time": 129357, "pitch": 35, "duration": 10, "velocity": 119}, {"time": 129357, "pitch": 42, "duration": 10, "velocity": 83}, {"time": 129357, "pitch": 69, "duration": 10, "velocity": 46}, {"time": 129498, "pitch": 69, "duration": 10, "velocity": 29}, {"time": 129597, "pitch": 36, "duration": 10, "velocity": 51}, {"time": 129597, "pitch": 40, "duration": 10, "velocity": 121}, {"time": 129597, "pitch": 42, "duration": 10, "velocity": 112}, {"time": 129597, "pitch": 46, "duration": 10, "velocity": 1}, {"time": 129740, "pitch": 69, "duration": 10, "velocity": 54}, {"time": 129840, "pitch": 35, "duration": 10, "velocity": 77}, {"time": 129840, "pitch": 42, "duration": 10, "velocity": 54}, {"time": 129840, "pitch": 69, "duration": 10, "velocity": 29}, {"time": 129983, "pitch": 38, "duration": 10, "velocity": 64}, {"time": 130083, "pitch": 35, "duration": 10, "velocity": 65}, {"time": 130083, "pitch": 36, "duration": 10, "velocity": 64}, {"time": 130083, "pitch": 42, "duration": 10, "velocity": 114}, {"time": 130083, "pitch": 46, "duration": 10, "velocity": 10}, {"time": 130083, "pitch": 69, "duration": 10, "velocity": 54}, {"time": 130224, "pitch": 38, "duration": 10, "velocity": 97}, {"time": 130323, "pitch": 35, "duration": 10, "velocity": 100}, {"time": 130323, "pitch": 46, "duration": 10, "velocity": 106}, {"time": 130323, "pitch": 69, "duration": 10, "velocity": 29}, {"time": 130463, "pitch": 69, "duration": 10, "velocity": 17}, {"time": 130562, "pitch": 36, "duration": 10, "velocity": 62}, {"time": 130562, "pitch": 40, "duration": 10, "velocity": 121}, {"time": 130562, "pitch": 42, "duration": 10, "velocity": 83}, {"time": 130562, "pitch": 46, "duration": 10, "velocity": 8}, {"time": 130562, "pitch": 69, "duration": 10, "velocity": 43}, {"time": 130802, "pitch": 35, "duration": 10, "velocity": 77}, {"time": 130802, "pitch": 42, "duration": 10, "velocity": 83}, {"time": 130802, "pitch": 69, "duration": 10, "velocity": 26}, {"time": 130942, "pitch": 38, "duration": 10, "velocity": 76}, {"time": 131041, "pitch": 35, "duration": 10, "velocity": 121}, {"time": 131041, "pitch": 36, "duration": 10, "velocity": 64}, {"time": 131041, "pitch": 42, "duration": 10, "velocity": 125}, {"time": 131041, "pitch": 46, "duration": 10, "velocity": 10}, {"time": 131281, "pitch": 35, "duration": 10, "velocity": 119}, {"time": 131281, "pitch": 42, "duration": 10, "velocity": 50}, {"time": 131281, "pitch": 69, "duration": 10, "velocity": 46}, {"time": 131421, "pitch": 69, "duration": 10, "velocity": 29}, {"time": 131520, "pitch": 36, "duration": 10, "velocity": 51}, {"time": 131520, "pitch": 40, "duration": 10, "velocity": 121}, {"time": 131520, "pitch": 42, "duration": 10, "velocity": 122}, {"time": 131520, "pitch": 46, "duration": 10, "velocity": 1}, {"time": 131661, "pitch": 69, "duration": 10, "velocity": 54}, {"time": 131759, "pitch": 35, "duration": 10, "velocity": 77}, {"time": 131759, "pitch": 42, "duration": 10, "velocity": 71}, {"time": 131759, "pitch": 69, "duration": 10, "velocity": 29}, {"time": 131900, "pitch": 38, "duration": 10, "velocity": 64}, {"time": 131999, "pitch": 35, "duration": 10, "velocity": 65}, {"time": 131999, "pitch": 36, "duration": 10, "velocity": 64}, {"time": 131999, "pitch": 42, "duration": 10, "velocity": 114}, {"time": 131999, "pitch": 46, "duration": 10, "velocity": 10}, {"time": 131999, "pitch": 69, "duration": 10, "velocity": 54}, {"time": 132140, "pitch": 38, "duration": 10, "velocity": 97}, {"time": 132238, "pitch": 35, "duration": 10, "velocity": 100}, {"time": 132238, "pitch": 46, "duration": 10, "velocity": 103}, {"time": 132238, "pitch": 69, "duration": 10, "velocity": 29}, {"time": 132379, "pitch": 69, "duration": 10, "velocity": 17}, {"time": 132478, "pitch": 36, "duration": 10, "velocity": 62}, {"time": 132478, "pitch": 40, "duration": 10, "velocity": 121}, {"time": 132478, "pitch": 42, "duration": 10, "velocity": 114}, {"time": 132478, "pitch": 46, "duration": 10, "velocity": 8}, {"time": 132478, "pitch": 69, "duration": 10, "velocity": 43}, {"time": 132717, "pitch": 35, "duration": 10, "velocity": 77}, {"time": 132717, "pitch": 42, "duration": 10, "velocity": 71}, {"time": 132717, "pitch": 69, "duration": 10, "velocity": 26}, {"time": 132917, "pitch": 38, "duration": 10, "velocity": 76}, {"time": 132957, "pitch": 35, "duration": 10, "velocity": 121}, {"time": 132957, "pitch": 36, "duration": 10, "velocity": 64}, {"time": 132957, "pitch": 42, "duration": 10, "velocity": 89}, {"time": 132957, "pitch": 46, "duration": 10, "velocity": 10}, {"time": 132957, "pitch": 57, "duration": 10, "velocity": 83}, {"time": 133200, "pitch": 35, "duration": 10, "velocity": 119}, {"time": 133200, "pitch": 42, "duration": 10, "velocity": 83}, {"time": 133200, "pitch": 69, "duration": 10, "velocity": 46}, {"time": 133343, "pitch": 69, "duration": 10, "velocity": 29}, {"time": 133443, "pitch": 36, "duration": 10, "velocity": 51}, {"time": 133443, "pitch": 40, "duration": 10, "velocity": 121}, {"time": 133443, "pitch": 42, "duration": 10, "velocity": 112}, {"time": 133443, "pitch": 46, "duration": 10, "velocity": 1}, {"time": 133584, "pitch": 69, "duration": 10, "velocity": 54}, {"time": 133643, "pitch": 38, "duration": 10, "velocity": 84}, {"time": 133683, "pitch": 35, "duration": 10, "velocity": 119}, {"time": 133683, "pitch": 42, "duration": 10, "velocity": 54}, {"time": 133683, "pitch": 49, "duration": 10, "velocity": 67}, {"time": 133683, "pitch": 69, "duration": 10, "velocity": 29}, {"time": 133823, "pitch": 38, "duration": 10, "velocity": 64}, {"time": 133922, "pitch": 35, "duration": 10, "velocity": 65}, {"time": 133922, "pitch": 36, "duration": 10, "velocity": 64}, {"time": 133922, "pitch": 42, "duration": 10, "velocity": 114}, {"time": 133922, "pitch": 46, "duration": 10, "velocity": 10}, {"time": 133922, "pitch": 69, "duration": 10, "velocity": 54}, {"time": 134063, "pitch": 38, "duration": 10, "velocity": 97}, {"time": 134162, "pitch": 35, "duration": 10, "velocity": 100}, {"time": 134162, "pitch": 46, "duration": 10, "velocity": 106}, {"time": 134162, "pitch": 69, "duration": 10, "velocity": 29}, {"time": 134302, "pitch": 69, "duration": 10, "velocity": 17}, {"time": 134401, "pitch": 36, "duration": 10, "velocity": 62}, {"time": 134401, "pitch": 40, "duration": 10, "velocity": 121}, {"time": 134401, "pitch": 42, "duration": 10, "velocity": 83}, {"time": 134401, "pitch": 46, "duration": 10, "velocity": 8}, {"time": 134401, "pitch": 69, "duration": 10, "velocity": 43}, {"time": 134640, "pitch": 35, "duration": 10, "velocity": 77}, {"time": 134640, "pitch": 42, "duration": 10, "velocity": 83}, {"time": 134640, "pitch": 69, "duration": 10, "velocity": 26}, {"time": 134800, "pitch": 38, "duration": 10, "velocity": 69}, {"time": 134840, "pitch": 38, "duration": 10, "velocity": 87}, {"time": 134880, "pitch": 35, "duration": 10, "velocity": 121}, {"time": 134880, "pitch": 36, "duration": 10, "velocity": 64}, {"time": 134880, "pitch": 38, "duration": 10, "velocity": 121}, {"time": 134880, "pitch": 42, "duration": 10, "velocity": 125}, {"time": 134880, "pitch": 46, "duration": 10, "velocity": 10}, {"time": 135119, "pitch": 42, "duration": 10, "velocity": 50}, {"time": 135119, "pitch": 69, "duration": 10, "velocity": 46}, {"time": 135260, "pitch": 69, "duration": 10, "velocity": 29}, {"time": 135359, "pitch": 36, "duration": 10, "velocity": 51}, {"time": 135359, "pitch": 42, "duration": 10, "velocity": 122}, {"time": 135359, "pitch": 46, "duration": 10, "velocity": 1}, {"time": 135499, "pitch": 69, "duration": 10, "velocity": 54}, {"time": 135598, "pitch": 42, "duration": 10, "velocity": 71}, {"time": 135598, "pitch": 69, "duration": 10, "velocity": 29}, {"time": 135838, "pitch": 35, "duration": 10, "velocity": 65}, {"time": 135838, "pitch": 36, "duration": 10, "velocity": 64}, {"time": 135838, "pitch": 42, "duration": 10, "velocity": 114}, {"time": 135838, "pitch": 46, "duration": 10, "velocity": 10}, {"time": 135838, "pitch": 69, "duration": 10, "velocity": 54}, {"time": 135978, "pitch": 38, "duration": 10, "velocity": 97}, {"time": 136077, "pitch": 35, "duration": 10, "velocity": 100}, {"time": 136077, "pitch": 46, "duration": 10, "velocity": 103}, {"time": 136077, "pitch": 69, "duration": 10, "velocity": 29}, {"time": 136218, "pitch": 69, "duration": 10, "velocity": 17}, {"time": 136317, "pitch": 36, "duration": 10, "velocity": 62}, {"time": 136317, "pitch": 40, "duration": 10, "velocity": 121}, {"time": 136317, "pitch": 42, "duration": 10, "velocity": 114}, {"time": 136317, "pitch": 46, "duration": 10, "velocity": 8}, {"time": 136317, "pitch": 69, "duration": 10, "velocity": 43}, {"time": 136458, "pitch": 38, "duration": 11, "velocity": 74}, {"time": 136560, "pitch": 35, "duration": 10, "velocity": 77}, {"time": 136560, "pitch": 38, "duration": 10, "velocity": 106}, {"time": 136560, "pitch": 42, "duration": 10, "velocity": 71}, {"time": 136560, "pitch": 69, "duration": 10, "velocity": 26}, {"time": 136702, "pitch": 38, "duration": 10, "velocity": 91}, {"time": 136803, "pitch": 42, "duration": 10, "velocity": 125}, {"time": 136803, "pitch": 49, "duration": 10, "velocity": 66}, {"time": 137043, "pitch": 42, "duration": 10, "velocity": 50}, {"time": 137043, "pitch": 69, "duration": 10, "velocity": 46}, {"time": 137183, "pitch": 69, "duration": 10, "velocity": 29}, {"time": 137282, "pitch": 42, "duration": 10, "velocity": 122}, {"time": 137423, "pitch": 69, "duration": 10, "velocity": 54}, {"time": 137522, "pitch": 42, "duration": 9, "velocity": 71}, {"time": 137522, "pitch": 69, "duration": 9, "velocity": 29}, {"time": 137761, "pitch": 42, "duration": 10, "velocity": 114}, {"time": 137761, "pitch": 69, "duration": 10, "velocity": 54}, {"time": 138000, "pitch": 46, "duration": 10, "velocity": 103}, {"time": 138000, "pitch": 69, "duration": 10, "velocity": 29}, {"time": 138141, "pitch": 69, "duration": 10, "velocity": 17}, {"time": 138240, "pitch": 42, "duration": 10, "velocity": 114}, {"time": 138240, "pitch": 69, "duration": 10, "velocity": 43}, {"time": 138479, "pitch": 42, "duration": 10, "velocity": 71}, {"time": 138479, "pitch": 69, "duration": 10, "velocity": 26}, {"time": 138719, "pitch": 42, "duration": 10, "velocity": 89}, {"time": 138958, "pitch": 42, "duration": 10, "velocity": 83}, {"time": 138958, "pitch": 69, "duration": 10, "velocity": 46}, {"time": 139099, "pitch": 69, "duration": 10, "velocity": 29}, {"time": 139198, "pitch": 42, "duration": 10, "velocity": 112}, {"time": 139338, "pitch": 69, "duration": 10, "velocity": 54}, {"time": 139437, "pitch": 42, "duration": 10, "velocity": 54}, {"time": 139437, "pitch": 69, "duration": 10, "velocity": 29}, {"time": 139676, "pitch": 42, "duration": 11, "velocity": 114}, {"time": 139676, "pitch": 69, "duration": 11, "velocity": 54}, {"time": 139920, "pitch": 46, "duration": 10, "velocity": 106}, {"time": 139920, "pitch": 69, "duration": 10, "velocity": 29}, {"time": 140063, "pitch": 69, "duration": 10, "velocity": 17}, {"time": 140163, "pitch": 42, "duration": 10, "velocity": 83}, {"time": 140163, "pitch": 69, "duration": 10, "velocity": 43}, {"time": 140403, "pitch": 42, "duration": 10, "velocity": 83}, {"time": 140403, "pitch": 69, "duration": 10, "velocity": 26}, {"time": 140642, "pitch": 42, "duration": 10, "velocity": 125}, {"time": 140881, "pitch": 42, "duration": 10, "velocity": 50}, {"time": 140881, "pitch": 69, "duration": 10, "velocity": 46}, {"time": 141022, "pitch": 69, "duration": 10, "velocity": 29}, {"time": 141121, "pitch": 42, "duration": 10, "velocity": 122}, {"time": 141262, "pitch": 69, "duration": 10, "velocity": 54}, {"time": 141360, "pitch": 42, "duration": 10, "velocity": 71}, {"time": 141360, "pitch": 69, "duration": 10, "velocity": 29}, {"time": 141600, "pitch": 42, "duration": 10, "velocity": 114}, {"time": 141600, "pitch": 69, "duration": 10, "velocity": 54}, {"time": 141839, "pitch": 46, "duration": 10, "velocity": 103}, {"time": 141839, "pitch": 69, "duration": 10, "velocity": 29}, {"time": 141980, "pitch": 69, "duration": 10, "velocity": 17}, {"time": 142079, "pitch": 42, "duration": 10, "velocity": 114}, {"time": 142079, "pitch": 69, "duration": 10, "velocity": 43}, {"time": 142318, "pitch": 42, "duration": 10, "velocity": 71}, {"time": 142318, "pitch": 69, "duration": 10, "velocity": 26}, {"time": 142558, "pitch": 42, "duration": 9, "velocity": 89}, {"time": 142797, "pitch": 42, "duration": 10, "velocity": 83}, {"time": 142797, "pitch": 69, "duration": 10, "velocity": 46}, {"time": 142938, "pitch": 69, "duration": 10, "velocity": 29}, {"time": 143036, "pitch": 42, "duration": 10, "velocity": 112}, {"time": 143179, "pitch": 69, "duration": 10, "velocity": 54}, {"time": 143280, "pitch": 42, "duration": 10, "velocity": 54}, {"time": 143280, "pitch": 69, "duration": 10, "velocity": 29}, {"time": 143523, "pitch": 42, "duration": 10, "velocity": 114}, {"time": 143523, "pitch": 69, "duration": 10, "velocity": 54}, {"time": 143762, "pitch": 46, "duration": 10, "velocity": 106}, {"time": 143762, "pitch": 69, "duration": 10, "velocity": 29}, {"time": 143903, "pitch": 69, "duration": 10, "velocity": 17}, {"time": 144002, "pitch": 40, "duration": 10, "velocity": 89}, {"time": 144002, "pitch": 42, "duration": 10, "velocity": 83}, {"time": 144002, "pitch": 69, "duration": 10, "velocity": 43}, {"time": 144142, "pitch": 40, "duration": 10, "velocity": 69}, {"time": 144241, "pitch": 40, "duration": 10, "velocity": 92}, {"time": 144241, "pitch": 42, "duration": 10, "velocity": 83}, {"time": 144241, "pitch": 69, "duration": 10, "velocity": 26}, {"time": 144481, "pitch": 35, "duration": 10, "velocity": 121}, {"time": 144481, "pitch": 36, "duration": 10, "velocity": 64}, {"time": 144481, "pitch": 42, "duration": 10, "velocity": 125}, {"time": 144481, "pitch": 46, "duration": 10, "velocity": 10}, {"time": 144481, "pitch": 49, "duration": 10, "velocity": 66}, {"time": 144481, "pitch": 54, "duration": 10, "velocity": 58}, {"time": 144621, "pitch": 54, "duration": 10, "velocity": 47}, {"time": 144720, "pitch": 35, "duration": 10, "velocity": 119}, {"time": 144720, "pitch": 42, "duration": 10, "velocity": 50}, {"time": 144720, "pitch": 54, "duration": 10, "velocity": 54}, {"time": 144720, "pitch": 69, "duration": 10, "velocity": 46}, {"time": 144861, "pitch": 36, "duration": 10, "velocity": 51}, {"time": 144861, "pitch": 46, "duration": 10, "velocity": 1}, {"time": 144861, "pitch": 54, "duration": 10, "velocity": 71}, {"time": 144861, "pitch": 69, "duration": 10, "velocity": 29}, {"time": 144960, "pitch": 40, "duration": 10, "velocity": 121}, {"time": 144960, "pitch": 42, "duration": 10, "velocity": 122}, {"time": 144960, "pitch": 54, "duration": 10, "velocity": 125}, {"time": 145100, "pitch": 54, "duration": 10, "velocity": 61}, {"time": 145100, "pitch": 69, "duration": 10, "velocity": 54}, {"time": 145199, "pitch": 35, "duration": 10, "velocity": 77}, {"time": 145199, "pitch": 42, "duration": 10, "velocity": 71}, {"time": 145199, "pitch": 54, "duration": 10, "velocity": 81}, {"time": 145199, "pitch": 69, "duration": 10, "velocity": 29}, {"time": 145340, "pitch": 38, "duration": 10, "velocity": 64}, {"time": 145340, "pitch": 54, "duration": 10, "velocity": 54}, {"time": 145439, "pitch": 35, "duration": 10, "velocity": 65}, {"time": 145439, "pitch": 36, "duration": 10, "velocity": 64}, {"time": 145439, "pitch": 42, "duration": 10, "velocity": 114}, {"time": 145439, "pitch": 46, "duration": 10, "velocity": 10}, {"time": 145439, "pitch": 54, "duration": 10, "velocity": 102}, {"time": 145439, "pitch": 69, "duration": 10, "velocity": 54}, {"time": 145579, "pitch": 38, "duration": 10, "velocity": 97}, {"time": 145579, "pitch": 54, "duration": 10, "velocity": 44}, {"time": 145678, "pitch": 35, "duration": 10, "velocity": 100}, {"time": 145678, "pitch": 46, "duration": 10, "velocity": 103}, {"time": 145678, "pitch": 54, "duration": 10, "velocity": 54}, {"time": 145678, "pitch": 69, "duration": 10, "velocity": 29}, {"time": 145819, "pitch": 54, "duration": 10, "velocity": 66}, {"time": 145819, "pitch": 69, "duration": 10, "velocity": 17}, {"time": 145917, "pitch": 40, "duration": 10, "velocity": 121}, {"time": 145917, "pitch": 42, "duration": 10, "velocity": 114}, {"time": 145917, "pitch": 54, "duration": 10, "velocity": 103}, {"time": 145917, "pitch": 69, "duration": 10, "velocity": 43}, {"time": 146058, "pitch": 54, "duration": 10, "velocity": 58}, {"time": 146157, "pitch": 35, "duration": 10, "velocity": 77}, {"time": 146157, "pitch": 36, "duration": 10, "velocity": 62}, {"time": 146157, "pitch": 42, "duration": 10, "velocity": 71}, {"time": 146157, "pitch": 46, "duration": 10, "velocity": 8}, {"time": 146157, "pitch": 54, "duration": 10, "velocity": 58}, {"time": 146157, "pitch": 69, "duration": 10, "velocity": 26}, {"time": 146298, "pitch": 38, "duration": 10, "velocity": 76}, {"time": 146298, "pitch": 54, "duration": 10, "velocity": 89}, {"time": 146396, "pitch": 35, "duration": 10, "velocity": 121}, {"time": 146396, "pitch": 36, "duration": 10, "velocity": 64}, {"time": 146396, "pitch": 42, "duration": 10, "velocity": 89}, {"time": 146396, "pitch": 46, "duration": 10, "velocity": 10}, {"time": 146396, "pitch": 54, "duration": 10, "velocity": 58}, {"time": 146539, "pitch": 54, "duration": 10, "velocity": 47}, {"time": 146640, "pitch": 35, "duration": 10, "velocity": 119}, {"time": 146640, "pitch": 42, "duration": 10, "velocity": 83}, {"time": 146640, "pitch": 54, "duration": 10, "velocity": 54}, {"time": 146640, "pitch": 69, "duration": 10, "velocity": 46}, {"time": 146783, "pitch": 36, "duration": 10, "velocity": 51}, {"time": 146783, "pitch": 46, "duration": 10, "velocity": 1}, {"time": 146783, "pitch": 54, "duration": 10, "velocity": 71}, {"time": 146783, "pitch": 69, "duration": 10, "velocity": 29}, {"time": 146883, "pitch": 40, "duration": 10, "velocity": 121}, {"time": 146883, "pitch": 42, "duration": 10, "velocity": 112}, {"time": 146883, "pitch": 54, "duration": 10, "velocity": 125}, {"time": 147024, "pitch": 54, "duration": 10, "velocity": 61}, {"time": 147024, "pitch": 69, "duration": 10, "velocity": 54}, {"time": 147122, "pitch": 35, "duration": 10, "velocity": 77}, {"time": 147122, "pitch": 42, "duration": 10, "velocity": 54}, {"time": 147122, "pitch": 54, "duration": 10, "velocity": 81}, {"time": 147122, "pitch": 69, "duration": 10, "velocity": 29}, {"time": 147263, "pitch": 38, "duration": 10, "velocity": 64}, {"time": 147263, "pitch": 54, "duration": 10, "velocity": 54}, {"time": 147362, "pitch": 35, "duration": 10, "velocity": 65}, {"time": 147362, "pitch": 36, "duration": 10, "velocity": 64}, {"time": 147362, "pitch": 42, "duration": 10, "velocity": 114}, {"time": 147362, "pitch": 46, "duration": 10, "velocity": 10}, {"time": 147362, "pitch": 54, "duration": 10, "velocity": 102}, {"time": 147362, "pitch": 69, "duration": 10, "velocity": 54}, {"time": 147502, "pitch": 38, "duration": 10, "velocity": 97}, {"time": 147502, "pitch": 54, "duration": 10, "velocity": 44}, {"time": 147601, "pitch": 35, "duration": 10, "velocity": 100}, {"time": 147601, "pitch": 46, "duration": 10, "velocity": 106}, {"time": 147601, "pitch": 54, "duration": 10, "velocity": 54}, {"time": 147601, "pitch": 69, "duration": 10, "velocity": 29}, {"time": 147742, "pitch": 54, "duration": 10, "velocity": 66}, {"time": 147742, "pitch": 69, "duration": 10, "velocity": 17}, {"time": 147841, "pitch": 40, "duration": 10, "velocity": 121}, {"time": 147841, "pitch": 42, "duration": 10, "velocity": 83}, {"time": 147841, "pitch": 54, "duration": 10, "velocity": 103}, {"time": 147841, "pitch": 69, "duration": 10, "velocity": 43}, {"time": 147981, "pitch": 54, "duration": 10, "velocity": 58}, {"time": 148080, "pitch": 35, "duration": 10, "velocity": 77}, {"time": 148080, "pitch": 36, "duration": 10, "velocity": 62}, {"time": 148080, "pitch": 42, "duration": 10, "velocity": 83}, {"time": 148080, "pitch": 46, "duration": 10, "velocity": 8}, {"time": 148080, "pitch": 54, "duration": 10, "velocity": 58}, {"time": 148080, "pitch": 69, "duration": 10, "velocity": 26}, {"time": 148221, "pitch": 38, "duration": 10, "velocity": 76}, {"time": 148221, "pitch": 54, "duration": 10, "velocity": 89}, {"time": 148320, "pitch": 35, "duration": 10, "velocity": 121}, {"time": 148320, "pitch": 36, "duration": 10, "velocity": 64}, {"time": 148320, "pitch": 42, "duration": 10, "velocity": 125}, {"time": 148320, "pitch": 46, "duration": 10, "velocity": 10}, {"time": 148320, "pitch": 54, "duration": 10, "velocity": 58}, {"time": 148460, "pitch": 54, "duration": 10, "velocity": 47}, {"time": 148559, "pitch": 35, "duration": 10, "velocity": 119}, {"time": 148559, "pitch": 42, "duration": 10, "velocity": 50}, {"time": 148559, "pitch": 54, "duration": 10, "velocity": 54}, {"time": 148559, "pitch": 69, "duration": 10, "velocity": 46}, {"time": 148700, "pitch": 36, "duration": 10, "velocity": 51}, {"time": 148700, "pitch": 46, "duration": 10, "velocity": 1}, {"time": 148700, "pitch": 54, "duration": 10, "velocity": 71}, {"time": 148700, "pitch": 69, "duration": 10, "velocity": 29}, {"time": 148798, "pitch": 40, "duration": 10, "velocity": 121}, {"time": 148798, "pitch": 42, "duration": 10, "velocity": 122}, {"time": 148798, "pitch": 54, "duration": 10, "velocity": 125}, {"time": 148939, "pitch": 54, "duration": 10, "velocity": 61}, {"time": 148939, "pitch": 69, "duration": 10, "velocity": 54}, {"time": 149038, "pitch": 35, "duration": 10, "velocity": 77}, {"time": 149038, "pitch": 42, "duration": 10, "velocity": 71}, {"time": 149038, "pitch": 54, "duration": 10, "velocity": 81}, {"time": 149038, "pitch": 69, "duration": 10, "velocity": 29}, {"time": 149179, "pitch": 38, "duration": 10, "velocity": 64}, {"time": 149179, "pitch": 54, "duration": 10, "velocity": 54}, {"time": 149277, "pitch": 35, "duration": 10, "velocity": 65}, {"time": 149277, "pitch": 36, "duration": 10, "velocity": 64}, {"time": 149277, "pitch": 42, "duration": 10, "velocity": 114}, {"time": 149277, "pitch": 46, "duration": 10, "velocity": 10}, {"time": 149277, "pitch": 54, "duration": 10, "velocity": 102}, {"time": 149277, "pitch": 69, "duration": 10, "velocity": 54}, {"time": 149418, "pitch": 38, "duration": 10, "velocity": 97}, {"time": 149418, "pitch": 54, "duration": 10, "velocity": 44}, {"time": 149517, "pitch": 35, "duration": 10, "velocity": 100}, {"time": 149517, "pitch": 46, "duration": 10, "velocity": 103}, {"time": 149517, "pitch": 54, "duration": 10, "velocity": 54}, {"time": 149517, "pitch": 69, "duration": 10, "velocity": 29}, {"time": 149657, "pitch": 54, "duration": 10, "velocity": 66}, {"time": 149657, "pitch": 69, "duration": 10, "velocity": 17}, {"time": 149756, "pitch": 40, "duration": 10, "velocity": 121}, {"time": 149756, "pitch": 42, "duration": 10, "velocity": 114}, {"time": 149756, "pitch": 54, "duration": 10, "velocity": 103}, {"time": 149756, "pitch": 69, "duration": 10, "velocity": 43}, {"time": 149899, "pitch": 54, "duration": 10, "velocity": 58}, {"time": 150000, "pitch": 35, "duration": 10, "velocity": 77}, {"time": 150000, "pitch": 36, "duration": 10, "velocity": 62}, {"time": 150000, "pitch": 42, "duration": 10, "velocity": 71}, {"time": 150000, "pitch": 46, "duration": 10, "velocity": 8}, {"time": 150000, "pitch": 54, "duration": 10, "velocity": 58}, {"time": 150000, "pitch": 69, "duration": 10, "velocity": 26}, {"time": 150143, "pitch": 38, "duration": 10, "velocity": 76}, {"time": 150143, "pitch": 54, "duration": 10, "velocity": 89}, {"time": 150243, "pitch": 35, "duration": 10, "velocity": 121}, {"time": 150243, "pitch": 36, "duration": 10, "velocity": 64}, {"time": 150243, "pitch": 42, "duration": 10, "velocity": 89}, {"time": 150243, "pitch": 46, "duration": 10, "velocity": 10}, {"time": 150243, "pitch": 54, "duration": 10, "velocity": 58}, {"time": 150384, "pitch": 54, "duration": 10, "velocity": 47}, {"time": 150482, "pitch": 35, "duration": 10, "velocity": 119}, {"time": 150482, "pitch": 42, "duration": 10, "velocity": 83}, {"time": 150482, "pitch": 54, "duration": 10, "velocity": 54}, {"time": 150482, "pitch": 69, "duration": 10, "velocity": 46}, {"time": 150623, "pitch": 36, "duration": 10, "velocity": 51}, {"time": 150623, "pitch": 46, "duration": 10, "velocity": 1}, {"time": 150623, "pitch": 54, "duration": 10, "velocity": 71}, {"time": 150623, "pitch": 69, "duration": 10, "velocity": 29}, {"time": 150722, "pitch": 40, "duration": 10, "velocity": 121}, {"time": 150722, "pitch": 42, "duration": 10, "velocity": 112}, {"time": 150722, "pitch": 54, "duration": 10, "velocity": 125}, {"time": 150862, "pitch": 54, "duration": 10, "velocity": 61}, {"time": 150862, "pitch": 69, "duration": 10, "velocity": 54}, {"time": 150961, "pitch": 35, "duration": 10, "velocity": 77}, {"time": 150961, "pitch": 42, "duration": 10, "velocity": 54}, {"time": 150961, "pitch": 54, "duration": 10, "velocity": 81}, {"time": 150961, "pitch": 69, "duration": 10, "velocity": 29}, {"time": 151102, "pitch": 38, "duration": 10, "velocity": 64}, {"time": 151102, "pitch": 54, "duration": 10, "velocity": 54}, {"time": 151201, "pitch": 35, "duration": 10, "velocity": 65}, {"time": 151201, "pitch": 36, "duration": 10, "velocity": 64}, {"time": 151201, "pitch": 42, "duration": 10, "velocity": 114}, {"time": 151201, "pitch": 46, "duration": 10, "velocity": 10}, {"time": 151201, "pitch": 54, "duration": 10, "velocity": 102}, {"time": 151201, "pitch": 69, "duration": 10, "velocity": 54}, {"time": 151341, "pitch": 38, "duration": 10, "velocity": 97}, {"time": 151341, "pitch": 54, "duration": 10, "velocity": 44}, {"time": 151440, "pitch": 35, "duration": 10, "velocity": 100}, {"time": 151440, "pitch": 46, "duration": 10, "velocity": 106}, {"time": 151440, "pitch": 54, "duration": 10, "velocity": 54}, {"time": 151440, "pitch": 69, "duration": 10, "velocity": 29}, {"time": 151581, "pitch": 54, "duration": 10, "velocity": 66}, {"time": 151581, "pitch": 69, "duration": 10, "velocity": 17}, {"time": 151680, "pitch": 40, "duration": 9, "velocity": 121}, {"time": 151680, "pitch": 42, "duration": 9, "velocity": 83}, {"time": 151680, "pitch": 54, "duration": 9, "velocity": 103}, {"time": 151680, "pitch": 69, "duration": 9, "velocity": 43}, {"time": 151820, "pitch": 54, "duration": 10, "velocity": 58}, {"time": 151919, "pitch": 35, "duration": 10, "velocity": 77}, {"time": 151919, "pitch": 36, "duration": 10, "velocity": 62}, {"time": 151919, "pitch": 42, "duration": 10, "velocity": 83}, {"time": 151919, "pitch": 46, "duration": 10, "velocity": 8}, {"time": 151919, "pitch": 54, "duration": 10, "velocity": 58}, {"time": 151919, "pitch": 69, "duration": 10, "velocity": 26}, {"time": 152060, "pitch": 38, "duration": 10, "velocity": 76}, {"time": 152060, "pitch": 54, "duration": 10, "velocity": 89}, {"time": 152158, "pitch": 35, "duration": 10, "velocity": 121}, {"time": 152158, "pitch": 36, "duration": 10, "velocity": 64}, {"time": 152158, "pitch": 42, "duration": 10, "velocity": 125}, {"time": 152158, "pitch": 46, "duration": 10, "velocity": 10}, {"time": 152158, "pitch": 54, "duration": 10, "velocity": 58}, {"time": 152158, "pitch": 57, "duration": 10, "velocity": 60}, {"time": 152299, "pitch": 54, "duration": 10, "velocity": 47}, {"time": 152398, "pitch": 35, "duration": 10, "velocity": 119}, {"time": 152398, "pitch": 42, "duration": 10, "velocity": 50}, {"time": 152398, "pitch": 54, "duration": 10, "velocity": 54}, {"time": 152398, "pitch": 69, "duration": 10, "velocity": 46}, {"time": 152539, "pitch": 36, "duration": 9, "velocity": 51}, {"time": 152539, "pitch": 46, "duration": 9, "velocity": 1}, {"time": 152539, "pitch": 54, "duration": 9, "velocity": 71}, {"time": 152539, "pitch": 69, "duration": 9, "velocity": 29}, {"time": 152637, "pitch": 40, "duration": 10, "velocity": 121}, {"time": 152637, "pitch": 42, "duration": 10, "velocity": 122}, {"time": 152637, "pitch": 54, "duration": 10, "velocity": 125}, {"time": 152778, "pitch": 54, "duration": 10, "velocity": 61}, {"time": 152778, "pitch": 69, "duration": 10, "velocity": 54}, {"time": 152877, "pitch": 35, "duration": 10, "velocity": 77}, {"time": 152877, "pitch": 42, "duration": 10, "velocity": 71}, {"time": 152877, "pitch": 54, "duration": 10, "velocity": 81}, {"time": 152877, "pitch": 69, "duration": 10, "velocity": 29}, {"time": 153017, "pitch": 38, "duration": 10, "velocity": 64}, {"time": 153017, "pitch": 54, "duration": 10, "velocity": 54}, {"time": 153116, "pitch": 35, "duration": 10, "velocity": 65}, {"time": 153116, "pitch": 36, "duration": 10, "velocity": 64}, {"time": 153116, "pitch": 42, "duration": 10, "velocity": 114}, {"time": 153116, "pitch": 46, "duration": 10, "velocity": 10}, {"time": 153116, "pitch": 54, "duration": 10, "velocity": 102}, {"time": 153116, "pitch": 69, "duration": 10, "velocity": 54}, {"time": 153259, "pitch": 38, "duration": 10, "velocity": 97}, {"time": 153259, "pitch": 54, "duration": 10, "velocity": 44}, {"time": 153359, "pitch": 35, "duration": 11, "velocity": 100}, {"time": 153359, "pitch": 46, "duration": 11, "velocity": 103}, {"time": 153359, "pitch": 54, "duration": 11, "velocity": 54}, {"time": 153359, "pitch": 69, "duration": 11, "velocity": 29}, {"time": 153502, "pitch": 54, "duration": 11, "velocity": 66}, {"time": 153502, "pitch": 69, "duration": 11, "velocity": 17}, {"time": 153603, "pitch": 40, "duration": 10, "velocity": 121}, {"time": 153603, "pitch": 42, "duration": 10, "velocity": 114}, {"time": 153603, "pitch": 54, "duration": 10, "velocity": 103}, {"time": 153603, "pitch": 69, "duration": 10, "velocity": 43}, {"time": 153743, "pitch": 54, "duration": 10, "velocity": 58}, {"time": 153842, "pitch": 35, "duration": 10, "velocity": 77}, {"time": 153842, "pitch": 36, "duration": 10, "velocity": 62}, {"time": 153842, "pitch": 42, "duration": 10, "velocity": 71}, {"time": 153842, "pitch": 46, "duration": 10, "velocity": 8}, {"time": 153842, "pitch": 54, "duration": 10, "velocity": 58}, {"time": 153842, "pitch": 69, "duration": 10, "velocity": 26}, {"time": 153983, "pitch": 38, "duration": 10, "velocity": 76}, {"time": 153983, "pitch": 54, "duration": 10, "velocity": 89}, {"time": 154082, "pitch": 35, "duration": 10, "velocity": 121}, {"time": 154082, "pitch": 36, "duration": 10, "velocity": 64}, {"time": 154082, "pitch": 42, "duration": 10, "velocity": 89}, {"time": 154082, "pitch": 46, "duration": 10, "velocity": 10}, {"time": 154082, "pitch": 54, "duration": 10, "velocity": 58}, {"time": 154222, "pitch": 54, "duration": 10, "velocity": 47}, {"time": 154321, "pitch": 35, "duration": 10, "velocity": 119}, {"time": 154321, "pitch": 42, "duration": 10, "velocity": 83}, {"time": 154321, "pitch": 54, "duration": 10, "velocity": 54}, {"time": 154321, "pitch": 69, "duration": 10, "velocity": 46}, {"time": 154462, "pitch": 36, "duration": 10, "velocity": 51}, {"time": 154462, "pitch": 46, "duration": 10, "velocity": 1}, {"time": 154462, "pitch": 54, "duration": 10, "velocity": 71}, {"time": 154462, "pitch": 69, "duration": 10, "velocity": 29}, {"time": 154561, "pitch": 40, "duration": 10, "velocity": 121}, {"time": 154561, "pitch": 42, "duration": 10, "velocity": 112}, {"time": 154561, "pitch": 54, "duration": 10, "velocity": 125}, {"time": 154701, "pitch": 54, "duration": 10, "velocity": 61}, {"time": 154701, "pitch": 69, "duration": 10, "velocity": 54}, {"time": 154800, "pitch": 35, "duration": 10, "velocity": 77}, {"time": 154800, "pitch": 42, "duration": 10, "velocity": 54}, {"time": 154800, "pitch": 54, "duration": 10, "velocity": 81}, {"time": 154800, "pitch": 57, "duration": 10, "velocity": 75}, {"time": 154800, "pitch": 69, "duration": 10, "velocity": 29}, {"time": 154941, "pitch": 38, "duration": 10, "velocity": 64}, {"time": 154941, "pitch": 54, "duration": 10, "velocity": 54}, {"time": 155039, "pitch": 35, "duration": 10, "velocity": 65}, {"time": 155039, "pitch": 36, "duration": 10, "velocity": 64}, {"time": 155039, "pitch": 42, "duration": 10, "velocity": 114}, {"time": 155039, "pitch": 46, "duration": 10, "velocity": 10}, {"time": 155039, "pitch": 54, "duration": 10, "velocity": 102}, {"time": 155039, "pitch": 69, "duration": 10, "velocity": 54}, {"time": 155180, "pitch": 38, "duration": 10, "velocity": 97}, {"time": 155180, "pitch": 54, "duration": 10, "velocity": 44}, {"time": 155279, "pitch": 35, "duration": 10, "velocity": 100}, {"time": 155279, "pitch": 46, "duration": 10, "velocity": 106}, {"time": 155279, "pitch": 54, "duration": 10, "velocity": 54}, {"time": 155279, "pitch": 69, "duration": 10, "velocity": 29}, {"time": 155420, "pitch": 54, "duration": 10, "velocity": 66}, {"time": 155420, "pitch": 69, "duration": 10, "velocity": 17}, {"time": 155518, "pitch": 40, "duration": 10, "velocity": 121}, {"time": 155518, "pitch": 42, "duration": 10, "velocity": 83}, {"time": 155518, "pitch": 54, "duration": 10, "velocity": 103}, {"time": 155518, "pitch": 69, "duration": 10, "velocity": 43}, {"time": 155659, "pitch": 54, "duration": 10, "velocity": 58}, {"time": 155758, "pitch": 35, "duration": 10, "velocity": 77}, {"time": 155758, "pitch": 36, "duration": 10, "velocity": 62}, {"time": 155758, "pitch": 42, "duration": 10, "velocity": 83}, {"time": 155758, "pitch": 46, "duration": 10, "velocity": 8}, {"time": 155758, "pitch": 54, "duration": 10, "velocity": 58}, {"time": 155758, "pitch": 69, "duration": 10, "velocity": 26}, {"time": 155898, "pitch": 38, "duration": 10, "velocity": 76}, {"time": 155898, "pitch": 54, "duration": 10, "velocity": 89}, {"time": 155997, "pitch": 35, "duration": 10, "velocity": 121}, {"time": 155997, "pitch": 36, "duration": 10, "velocity": 64}, {"time": 155997, "pitch": 42, "duration": 10, "velocity": 125}, {"time": 155997, "pitch": 46, "duration": 10, "velocity": 10}, {"time": 155997, "pitch": 54, "duration": 10, "velocity": 58}, {"time": 156140, "pitch": 54, "duration": 10, "velocity": 47}, {"time": 156241, "pitch": 35, "duration": 10, "velocity": 119}, {"time": 156241, "pitch": 42, "duration": 10, "velocity": 50}, {"time": 156241, "pitch": 54, "duration": 10, "velocity": 54}, {"time": 156241, "pitch": 69, "duration": 10, "velocity": 46}, {"time": 156383, "pitch": 36, "duration": 11, "velocity": 51}, {"time": 156383, "pitch": 46, "duration": 11, "velocity": 1}, {"time": 156383, "pitch": 54, "duration": 11, "velocity": 71}, {"time": 156383, "pitch": 69, "duration": 11, "velocity": 29}, {"time": 156484, "pitch": 40, "duration": 10, "velocity": 121}, {"time": 156484, "pitch": 42, "duration": 10, "velocity": 122}, {"time": 156484, "pitch": 54, "duration": 10, "velocity": 125}, {"time": 156624, "pitch": 54, "duration": 10, "velocity": 61}, {"time": 156624, "pitch": 69, "duration": 10, "velocity": 54}, {"time": 156723, "pitch": 35, "duration": 10, "velocity": 77}, {"time": 156723, "pitch": 42, "duration": 10, "velocity": 71}, {"time": 156723, "pitch": 54, "duration": 10, "velocity": 81}, {"time": 156723, "pitch": 69, "duration": 10, "velocity": 29}, {"time": 156864, "pitch": 38, "duration": 10, "velocity": 64}, {"time": 156864, "pitch": 54, "duration": 10, "velocity": 54}, {"time": 156963, "pitch": 35, "duration": 10, "velocity": 65}, {"time": 156963, "pitch": 36, "duration": 10, "velocity": 64}, {"time": 156963, "pitch": 42, "duration": 10, "velocity": 114}, {"time": 156963, "pitch": 46, "duration": 10, "velocity": 10}, {"time": 156963, "pitch": 54, "duration": 10, "velocity": 102}, {"time": 156963, "pitch": 69, "duration": 10, "velocity": 54}, {"time": 157103, "pitch": 38, "duration": 10, "velocity": 97}, {"time": 157103, "pitch": 54, "duration": 10, "velocity": 44}, {"time": 157202, "pitch": 35, "duration": 10, "velocity": 100}, {"time": 157202, "pitch": 46, "duration": 10, "velocity": 103}, {"time": 157202, "pitch": 54, "duration": 10, "velocity": 54}, {"time": 157202, "pitch": 69, "duration": 10, "velocity": 29}, {"time": 157343, "pitch": 54, "duration": 10, "velocity": 66}, {"time": 157343, "pitch": 69, "duration": 10, "velocity": 17}, {"time": 157442, "pitch": 40, "duration": 10, "velocity": 121}, {"time": 157442, "pitch": 42, "duration": 10, "velocity": 114}, {"time": 157442, "pitch": 54, "duration": 10, "velocity": 103}, {"time": 157442, "pitch": 69, "duration": 10, "velocity": 43}, {"time": 157582, "pitch": 54, "duration": 10, "velocity": 58}, {"time": 157681, "pitch": 35, "duration": 10, "velocity": 77}, {"time": 157681, "pitch": 36, "duration": 10, "velocity": 62}, {"time": 157681, "pitch": 42, "duration": 10, "velocity": 71}, {"time": 157681, "pitch": 46, "duration": 10, "velocity": 8}, {"time": 157681, "pitch": 54, "duration": 10, "velocity": 58}, {"time": 157681, "pitch": 69, "duration": 10, "velocity": 26}, {"time": 157822, "pitch": 38, "duration": 10, "velocity": 76}, {"time": 157822, "pitch": 54, "duration": 10, "velocity": 89}, {"time": 157920, "pitch": 35, "duration": 10, "velocity": 121}, {"time": 157920, "pitch": 36, "duration": 10, "velocity": 64}, {"time": 157920, "pitch": 42, "duration": 10, "velocity": 89}, {"time": 157920, "pitch": 46, "duration": 10, "velocity": 10}, {"time": 157920, "pitch": 54, "duration": 10, "velocity": 58}, {"time": 158061, "pitch": 54, "duration": 10, "velocity": 47}, {"time": 158160, "pitch": 35, "duration": 10, "velocity": 119}, {"time": 158160, "pitch": 42, "duration": 10, "velocity": 83}, {"time": 158160, "pitch": 54, "duration": 10, "velocity": 54}, {"time": 158160, "pitch": 69, "duration": 10, "velocity": 46}, {"time": 158301, "pitch": 36, "duration": 10, "velocity": 51}, {"time": 158301, "pitch": 46, "duration": 10, "velocity": 1}, {"time": 158301, "pitch": 54, "duration": 10, "velocity": 71}, {"time": 158301, "pitch": 69, "duration": 10, "velocity": 29}, {"time": 158399, "pitch": 40, "duration": 10, "velocity": 121}, {"time": 158399, "pitch": 42, "duration": 10, "velocity": 112}, {"time": 158399, "pitch": 54, "duration": 10, "velocity": 125}, {"time": 158540, "pitch": 54, "duration": 10, "velocity": 61}, {"time": 158540, "pitch": 69, "duration": 10, "velocity": 54}, {"time": 158639, "pitch": 35, "duration": 10, "velocity": 77}, {"time": 158639, "pitch": 42, "duration": 10, "velocity": 54}, {"time": 158639, "pitch": 54, "duration": 10, "velocity": 81}, {"time": 158639, "pitch": 69, "duration": 10, "velocity": 29}, {"time": 158779, "pitch": 38, "duration": 10, "velocity": 64}, {"time": 158779, "pitch": 54, "duration": 10, "velocity": 54}, {"time": 158878, "pitch": 35, "duration": 10, "velocity": 65}, {"time": 158878, "pitch": 36, "duration": 10, "velocity": 64}, {"time": 158878, "pitch": 42, "duration": 10, "velocity": 114}, {"time": 158878, "pitch": 46, "duration": 10, "velocity": 10}, {"time": 158878, "pitch": 54, "duration": 10, "velocity": 102}, {"time": 158878, "pitch": 69, "duration": 10, "velocity": 54}, {"time": 159019, "pitch": 38, "duration": 10, "velocity": 97}, {"time": 159019, "pitch": 54, "duration": 10, "velocity": 44}, {"time": 159118, "pitch": 35, "duration": 10, "velocity": 100}, {"time": 159118, "pitch": 46, "duration": 10, "velocity": 106}, {"time": 159118, "pitch": 54, "duration": 10, "velocity": 54}, {"time": 159118, "pitch": 69, "duration": 10, "velocity": 29}, {"time": 159258, "pitch": 54, "duration": 10, "velocity": 66}, {"time": 159258, "pitch": 69, "duration": 10, "velocity": 17}, {"time": 159357, "pitch": 40, "duration": 10, "velocity": 121}, {"time": 159357, "pitch": 42, "duration": 10, "velocity": 83}, {"time": 159357, "pitch": 54, "duration": 10, "velocity": 103}, {"time": 159357, "pitch": 69, "duration": 10, "velocity": 43}, {"time": 159500, "pitch": 54, "duration": 10, "velocity": 58}, {"time": 159600, "pitch": 35, "duration": 11, "velocity": 77}, {"time": 159600, "pitch": 36, "duration": 11, "velocity": 62}, {"time": 159600, "pitch": 42, "duration": 11, "velocity": 83}, {"time": 159600, "pitch": 46, "duration": 11, "velocity": 8}, {"time": 159600, "pitch": 54, "duration": 11, "velocity": 58}, {"time": 159600, "pitch": 69, "duration": 11, "velocity": 26}, {"time": 159743, "pitch": 38, "duration": 11, "velocity": 76}, {"time": 159743, "pitch": 54, "duration": 11, "velocity": 89}, {"time": 159844, "pitch": 35, "duration": 10, "velocity": 121}, {"time": 159844, "pitch": 36, "duration": 10, "velocity": 64}, {"time": 159844, "pitch": 42, "duration": 10, "velocity": 125}, {"time": 159844, "pitch": 46, "duration": 10, "velocity": 10}, {"time": 159844, "pitch": 49, "duration": 10, "velocity": 66}, {"time": 159844, "pitch": 54, "duration": 10, "velocity": 58}, {"time": 159984, "pitch": 54, "duration": 10, "velocity": 47}, {"time": 160083, "pitch": 35, "duration": 10, "velocity": 119}, {"time": 160083, "pitch": 42, "duration": 10, "velocity": 50}, {"time": 160083, "pitch": 54, "duration": 10, "velocity": 54}, {"time": 160083, "pitch": 69, "duration": 10, "velocity": 46}, {"time": 160224, "pitch": 36, "duration": 10, "velocity": 51}, {"time": 160224, "pitch": 46, "duration": 10, "velocity": 1}, {"time": 160224, "pitch": 54, "duration": 10, "velocity": 71}, {"time": 160224, "pitch": 69, "duration": 10, "velocity": 29}, {"time": 160323, "pitch": 40, "duration": 10, "velocity": 121}, {"time": 160323, "pitch": 42, "duration": 10, "velocity": 122}, {"time": 160323, "pitch": 54, "duration": 10, "velocity": 125}, {"time": 160463, "pitch": 54, "duration": 10, "velocity": 61}, {"time": 160463, "pitch": 69, "duration": 10, "velocity": 54}, {"time": 160562, "pitch": 35, "duration": 10, "velocity": 77}, {"time": 160562, "pitch": 42, "duration": 10, "velocity": 71}, {"time": 160562, "pitch": 54, "duration": 10, "velocity": 81}, {"time": 160562, "pitch": 69, "duration": 10, "velocity": 29}, {"time": 160703, "pitch": 38, "duration": 10, "velocity": 64}, {"time": 160703, "pitch": 54, "duration": 10, "velocity": 54}, {"time": 160801, "pitch": 35, "duration": 10, "velocity": 65}, {"time": 160801, "pitch": 36, "duration": 10, "velocity": 64}, {"time": 160801, "pitch": 42, "duration": 10, "velocity": 114}, {"time": 160801, "pitch": 46, "duration": 10, "velocity": 10}, {"time": 160801, "pitch": 54, "duration": 10, "velocity": 102}, {"time": 160801, "pitch": 69, "duration": 10, "velocity": 54}, {"time": 160942, "pitch": 38, "duration": 10, "velocity": 97}, {"time": 160942, "pitch": 54, "duration": 10, "velocity": 44}, {"time": 161041, "pitch": 35, "duration": 10, "velocity": 100}, {"time": 161041, "pitch": 46, "duration": 10, "velocity": 103}, {"time": 161041, "pitch": 54, "duration": 10, "velocity": 54}, {"time": 161041, "pitch": 69, "duration": 10, "velocity": 29}, {"time": 161182, "pitch": 54, "duration": 10, "velocity": 66}, {"time": 161182, "pitch": 69, "duration": 10, "velocity": 17}, {"time": 161280, "pitch": 40, "duration": 10, "velocity": 121}, {"time": 161280, "pitch": 42, "duration": 10, "velocity": 114}, {"time": 161280, "pitch": 54, "duration": 10, "velocity": 103}, {"time": 161280, "pitch": 69, "duration": 10, "velocity": 43}, {"time": 161421, "pitch": 54, "duration": 10, "velocity": 58}, {"time": 161520, "pitch": 35, "duration": 10, "velocity": 77}, {"time": 161520, "pitch": 36, "duration": 10, "velocity": 62}, {"time": 161520, "pitch": 42, "duration": 10, "velocity": 71}, {"time": 161520, "pitch": 46, "duration": 10, "velocity": 8}, {"time": 161520, "pitch": 54, "duration": 10, "velocity": 58}, {"time": 161520, "pitch": 69, "duration": 10, "velocity": 26}, {"time": 161660, "pitch": 38, "duration": 10, "velocity": 76}, {"time": 161660, "pitch": 54, "duration": 10, "velocity": 89}, {"time": 161759, "pitch": 35, "duration": 10, "velocity": 121}, {"time": 161759, "pitch": 36, "duration": 10, "velocity": 64}, {"time": 161759, "pitch": 42, "duration": 10, "velocity": 89}, {"time": 161759, "pitch": 46, "duration": 10, "velocity": 10}, {"time": 161759, "pitch": 54, "duration": 10, "velocity": 58}, {"time": 161900, "pitch": 54, "duration": 10, "velocity": 47}, {"time": 161999, "pitch": 35, "duration": 10, "velocity": 119}, {"time": 161999, "pitch": 42, "duration": 10, "velocity": 83}, {"time": 161999, "pitch": 54, "duration": 10, "velocity": 54}, {"time": 161999, "pitch": 69, "duration": 10, "velocity": 46}, {"time": 162139, "pitch": 36, "duration": 10, "velocity": 51}, {"time": 162139, "pitch": 46, "duration": 10, "velocity": 1}, {"time": 162139, "pitch": 54, "duration": 10, "velocity": 71}, {"time": 162139, "pitch": 69, "duration": 10, "velocity": 29}, {"time": 162238, "pitch": 40, "duration": 10, "velocity": 121}, {"time": 162238, "pitch": 42, "duration": 10, "velocity": 112}, {"time": 162238, "pitch": 54, "duration": 10, "velocity": 125}, {"time": 162379, "pitch": 54, "duration": 10, "velocity": 61}, {"time": 162379, "pitch": 69, "duration": 10, "velocity": 54}, {"time": 162478, "pitch": 35, "duration": 10, "velocity": 77}, {"time": 162478, "pitch": 42, "duration": 10, "velocity": 54}, {"time": 162478, "pitch": 54, "duration": 10, "velocity": 81}, {"time": 162478, "pitch": 69, "duration": 10, "velocity": 29}, {"time": 162618, "pitch": 38, "duration": 10, "velocity": 64}, {"time": 162618, "pitch": 54, "duration": 10, "velocity": 54}, {"time": 162717, "pitch": 35, "duration": 10, "velocity": 65}, {"time": 162717, "pitch": 36, "duration": 10, "velocity": 64}, {"time": 162717, "pitch": 42, "duration": 10, "velocity": 114}, {"time": 162717, "pitch": 46, "duration": 10, "velocity": 10}, {"time": 162717, "pitch": 54, "duration": 10, "velocity": 102}, {"time": 162717, "pitch": 69, "duration": 10, "velocity": 54}, {"time": 162860, "pitch": 38, "duration": 10, "velocity": 97}, {"time": 162860, "pitch": 54, "duration": 10, "velocity": 44}, {"time": 162960, "pitch": 35, "duration": 10, "velocity": 100}, {"time": 162960, "pitch": 46, "duration": 10, "velocity": 106}, {"time": 162960, "pitch": 54, "duration": 10, "velocity": 54}, {"time": 162960, "pitch": 69, "duration": 10, "velocity": 29}, {"time": 163103, "pitch": 54, "duration": 10, "velocity": 66}, {"time": 163103, "pitch": 69, "duration": 10, "velocity": 17}, {"time": 163204, "pitch": 40, "duration": 10, "velocity": 121}, {"time": 163204, "pitch": 42, "duration": 10, "velocity": 83}, {"time": 163204, "pitch": 54, "duration": 10, "velocity": 103}, {"time": 163204, "pitch": 69, "duration": 10, "velocity": 43}, {"time": 163344, "pitch": 54, "duration": 10, "velocity": 58}, {"time": 163443, "pitch": 35, "duration": 10, "velocity": 77}, {"time": 163443, "pitch": 36, "duration": 10, "velocity": 62}, {"time": 163443, "pitch": 42, "duration": 10, "velocity": 83}, {"time": 163443, "pitch": 46, "duration": 10, "velocity": 8}, {"time": 163443, "pitch": 54, "duration": 10, "velocity": 58}, {"time": 163443, "pitch": 69, "duration": 10, "velocity": 26}, {"time": 163584, "pitch": 38, "duration": 10, "velocity": 76}, {"time": 163584, "pitch": 54, "duration": 10, "velocity": 89}, {"time": 163683, "pitch": 35, "duration": 10, "velocity": 121}, {"time": 163683, "pitch": 36, "duration": 10, "velocity": 64}, {"time": 163683, "pitch": 42, "duration": 10, "velocity": 125}, {"time": 163683, "pitch": 46, "duration": 10, "velocity": 10}, {"time": 163683, "pitch": 54, "duration": 10, "velocity": 58}, {"time": 163823, "pitch": 54, "duration": 10, "velocity": 47}, {"time": 163922, "pitch": 35, "duration": 10, "velocity": 119}, {"time": 163922, "pitch": 42, "duration": 10, "velocity": 50}, {"time": 163922, "pitch": 54, "duration": 10, "velocity": 54}, {"time": 163922, "pitch": 69, "duration": 10, "velocity": 46}, {"time": 164063, "pitch": 36, "duration": 10, "velocity": 51}, {"time": 164063, "pitch": 46, "duration": 10, "velocity": 1}, {"time": 164063, "pitch": 54, "duration": 10, "velocity": 71}, {"time": 164063, "pitch": 69, "duration": 10, "velocity": 29}, {"time": 164161, "pitch": 40, "duration": 10, "velocity": 121}, {"time": 164161, "pitch": 42, "duration": 10, "velocity": 122}, {"time": 164161, "pitch": 54, "duration": 10, "velocity": 125}, {"time": 164302, "pitch": 54, "duration": 10, "velocity": 61}, {"time": 164302, "pitch": 69, "duration": 10, "velocity": 54}, {"time": 164401, "pitch": 35, "duration": 10, "velocity": 77}, {"time": 164401, "pitch": 42, "duration": 10, "velocity": 71}, {"time": 164401, "pitch": 54, "duration": 10, "velocity": 81}, {"time": 164401, "pitch": 69, "duration": 10, "velocity": 29}, {"time": 164542, "pitch": 38, "duration": 9, "velocity": 64}, {"time": 164542, "pitch": 54, "duration": 9, "velocity": 54}, {"time": 164640, "pitch": 35, "duration": 10, "velocity": 65}, {"time": 164640, "pitch": 36, "duration": 10, "velocity": 64}, {"time": 164640, "pitch": 42, "duration": 10, "velocity": 114}, {"time": 164640, "pitch": 46, "duration": 10, "velocity": 10}, {"time": 164640, "pitch": 54, "duration": 10, "velocity": 102}, {"time": 164640, "pitch": 69, "duration": 10, "velocity": 54}, {"time": 164781, "pitch": 38, "duration": 10, "velocity": 97}, {"time": 164781, "pitch": 54, "duration": 10, "velocity": 44}, {"time": 164880, "pitch": 35, "duration": 10, "velocity": 100}, {"time": 164880, "pitch": 46, "duration": 10, "velocity": 103}, {"time": 164880, "pitch": 54, "duration": 10, "velocity": 54}, {"time": 164880, "pitch": 69, "duration": 10, "velocity": 29}, {"time": 165020, "pitch": 54, "duration": 10, "velocity": 66}, {"time": 165020, "pitch": 69, "duration": 10, "velocity": 17}, {"time": 165119, "pitch": 40, "duration": 10, "velocity": 121}, {"time": 165119, "pitch": 42, "duration": 10, "velocity": 114}, {"time": 165119, "pitch": 54, "duration": 10, "velocity": 103}, {"time": 165119, "pitch": 69, "duration": 10, "velocity": 43}, {"time": 165260, "pitch": 54, "duration": 10, "velocity": 58}, {"time": 165359, "pitch": 35, "duration": 10, "velocity": 77}, {"time": 165359, "pitch": 36, "duration": 10, "velocity": 62}, {"time": 165359, "pitch": 42, "duration": 10, "velocity": 71}, {"time": 165359, "pitch": 46, "duration": 10, "velocity": 8}, {"time": 165359, "pitch": 54, "duration": 10, "velocity": 58}, {"time": 165359, "pitch": 69, "duration": 10, "velocity": 26}, {"time": 165499, "pitch": 38, "duration": 10, "velocity": 76}, {"time": 165499, "pitch": 54, "duration": 10, "velocity": 89}, {"time": 165598, "pitch": 35, "duration": 10, "velocity": 121}, {"time": 165598, "pitch": 36, "duration": 10, "velocity": 64}, {"time": 165598, "pitch": 42, "duration": 10, "velocity": 89}, {"time": 165598, "pitch": 46, "duration": 10, "velocity": 10}, {"time": 165598, "pitch": 54, "duration": 10, "velocity": 58}, {"time": 165739, "pitch": 54, "duration": 10, "velocity": 47}, {"time": 165837, "pitch": 35, "duration": 10, "velocity": 119}, {"time": 165837, "pitch": 42, "duration": 10, "velocity": 83}, {"time": 165837, "pitch": 54, "duration": 10, "velocity": 54}, {"time": 165837, "pitch": 69, "duration": 10, "velocity": 46}, {"time": 165978, "pitch": 36, "duration": 10, "velocity": 51}, {"time": 165978, "pitch": 46, "duration": 10, "velocity": 1}, {"time": 165978, "pitch": 54, "duration": 10, "velocity": 71}, {"time": 165978, "pitch": 69, "duration": 10, "velocity": 29}, {"time": 166077, "pitch": 40, "duration": 10, "velocity": 121}, {"time": 166077, "pitch": 42, "duration": 10, "velocity": 112}, {"time": 166077, "pitch": 54, "duration": 10, "velocity": 125}, {"time": 166220, "pitch": 54, "duration": 10, "velocity": 61}, {"time": 166220, "pitch": 69, "duration": 10, "velocity": 54}, {"time": 166320, "pitch": 35, "duration": 10, "velocity": 77}, {"time": 166320, "pitch": 42, "duration": 10, "velocity": 54}, {"time": 166320, "pitch": 54, "duration": 10, "velocity": 81}, {"time": 166320, "pitch": 69, "duration": 10, "velocity": 29}, {"time": 166463, "pitch": 38, "duration": 10, "velocity": 64}, {"time": 166463, "pitch": 54, "duration": 10, "velocity": 54}, {"time": 166564, "pitch": 35, "duration": 10, "velocity": 65}, {"time": 166564, "pitch": 36, "duration": 10, "velocity": 64}, {"time": 166564, "pitch": 42, "duration": 10, "velocity": 114}, {"time": 166564, "pitch": 46, "duration": 10, "velocity": 10}, {"time": 166564, "pitch": 54, "duration": 10, "velocity": 102}, {"time": 166564, "pitch": 69, "duration": 10, "velocity": 54}, {"time": 166704, "pitch": 38, "duration": 10, "velocity": 97}, {"time": 166704, "pitch": 54, "duration": 10, "velocity": 44}, {"time": 166803, "pitch": 35, "duration": 10, "velocity": 100}, {"time": 166803, "pitch": 46, "duration": 10, "velocity": 106}, {"time": 166803, "pitch": 54, "duration": 10, "velocity": 54}, {"time": 166803, "pitch": 69, "duration": 10, "velocity": 29}, {"time": 166944, "pitch": 54, "duration": 10, "velocity": 66}, {"time": 166944, "pitch": 69, "duration": 10, "velocity": 17}, {"time": 167042, "pitch": 40, "duration": 10, "velocity": 121}, {"time": 167042, "pitch": 42, "duration": 10, "velocity": 83}, {"time": 167042, "pitch": 54, "duration": 10, "velocity": 103}, {"time": 167042, "pitch": 69, "duration": 10, "velocity": 43}, {"time": 167183, "pitch": 54, "duration": 10, "velocity": 58}, {"time": 167282, "pitch": 35, "duration": 10, "velocity": 77}, {"time": 167282, "pitch": 36, "duration": 10, "velocity": 62}, {"time": 167282, "pitch": 42, "duration": 10, "velocity": 83}, {"time": 167282, "pitch": 46, "duration": 10, "velocity": 8}, {"time": 167282, "pitch": 54, "duration": 10, "velocity": 58}, {"time": 167282, "pitch": 69, "duration": 10, "velocity": 26}, {"time": 167423, "pitch": 38, "duration": 10, "velocity": 76}, {"time": 167423, "pitch": 54, "duration": 10, "velocity": 89}, {"time": 167521, "pitch": 35, "duration": 10, "velocity": 121}, {"time": 167521, "pitch": 36, "duration": 10, "velocity": 64}, {"time": 167521, "pitch": 42, "duration": 10, "velocity": 125}, {"time": 167521, "pitch": 46, "duration": 10, "velocity": 10}, {"time": 167521, "pitch": 54, "duration": 10, "velocity": 58}, {"time": 167521, "pitch": 57, "duration": 10, "velocity": 60}, {"time": 167662, "pitch": 54, "duration": 10, "velocity": 47}, {"time": 167761, "pitch": 35, "duration": 10, "velocity": 119}, {"time": 167761, "pitch": 42, "duration": 10, "velocity": 50}, {"time": 167761, "pitch": 54, "duration": 10, "velocity": 54}, {"time": 167761, "pitch": 69, "duration": 10, "velocity": 46}, {"time": 167901, "pitch": 36, "duration": 10, "velocity": 51}, {"time": 167901, "pitch": 46, "duration": 10, "velocity": 1}, {"time": 167901, "pitch": 54, "duration": 10, "velocity": 71}, {"time": 167901, "pitch": 69, "duration": 10, "velocity": 29}, {"time": 168000, "pitch": 40, "duration": 10, "velocity": 121}, {"time": 168000, "pitch": 42, "duration": 10, "velocity": 122}, {"time": 168000, "pitch": 54, "duration": 10, "velocity": 125}, {"time": 168141, "pitch": 54, "duration": 10, "velocity": 61}, {"time": 168141, "pitch": 69, "duration": 10, "velocity": 54}, {"time": 168240, "pitch": 35, "duration": 10, "velocity": 77}, {"time": 168240, "pitch": 42, "duration": 10, "velocity": 71}, {"time": 168240, "pitch": 54, "duration": 10, "velocity": 81}, {"time": 168240, "pitch": 69, "duration": 10, "velocity": 29}, {"time": 168380, "pitch": 38, "duration": 10, "velocity": 64}, {"time": 168380, "pitch": 54, "duration": 10, "velocity": 54}, {"time": 168479, "pitch": 35, "duration": 10, "velocity": 65}, {"time": 168479, "pitch": 36, "duration": 10, "velocity": 64}, {"time": 168479, "pitch": 42, "duration": 10, "velocity": 114}, {"time": 168479, "pitch": 46, "duration": 10, "velocity": 10}, {"time": 168479, "pitch": 54, "duration": 10, "velocity": 102}, {"time": 168479, "pitch": 69, "duration": 10, "velocity": 54}, {"time": 168620, "pitch": 38, "duration": 10, "velocity": 97}, {"time": 168620, "pitch": 54, "duration": 10, "velocity": 44}, {"time": 168719, "pitch": 35, "duration": 10, "velocity": 100}, {"time": 168719, "pitch": 46, "duration": 10, "velocity": 103}, {"time": 168719, "pitch": 54, "duration": 10, "velocity": 54}, {"time": 168719, "pitch": 69, "duration": 10, "velocity": 29}, {"time": 168859, "pitch": 54, "duration": 10, "velocity": 66}, {"time": 168859, "pitch": 69, "duration": 10, "velocity": 17}, {"time": 168958, "pitch": 40, "duration": 10, "velocity": 121}, {"time": 168958, "pitch": 42, "duration": 10, "velocity": 114}, {"time": 168958, "pitch": 54, "duration": 10, "velocity": 103}, {"time": 168958, "pitch": 69, "duration": 10, "velocity": 43}, {"time": 169099, "pitch": 54, "duration": 10, "velocity": 58}, {"time": 169197, "pitch": 35, "duration": 10, "velocity": 77}, {"time": 169197, "pitch": 36, "duration": 10, "velocity": 62}, {"time": 169197, "pitch": 42, "duration": 10, "velocity": 71}, {"time": 169197, "pitch": 46, "duration": 10, "velocity": 8}, {"time": 169197, "pitch": 54, "duration": 10, "velocity": 58}, {"time": 169197, "pitch": 69, "duration": 10, "velocity": 26}, {"time": 169338, "pitch": 38, "duration": 10, "velocity": 76}, {"time": 169338, "pitch": 54, "duration": 10, "velocity": 89}, {"time": 169437, "pitch": 35, "duration": 10, "velocity": 121}, {"time": 169437, "pitch": 36, "duration": 10, "velocity": 64}, {"time": 169437, "pitch": 42, "duration": 10, "velocity": 89}, {"time": 169437, "pitch": 46, "duration": 10, "velocity": 10}, {"time": 169437, "pitch": 54, "duration": 10, "velocity": 58}, {"time": 169580, "pitch": 54, "duration": 10, "velocity": 47}, {"time": 169680, "pitch": 35, "duration": 10, "velocity": 119}, {"time": 169680, "pitch": 42, "duration": 10, "velocity": 83}, {"time": 169680, "pitch": 54, "duration": 10, "velocity": 54}, {"time": 169680, "pitch": 69, "duration": 10, "velocity": 46}, {"time": 169823, "pitch": 36, "duration": 10, "velocity": 51}, {"time": 169823, "pitch": 46, "duration": 10, "velocity": 1}, {"time": 169823, "pitch": 54, "duration": 10, "velocity": 71}, {"time": 169823, "pitch": 69, "duration": 10, "velocity": 29}, {"time": 169923, "pitch": 40, "duration": 10, "velocity": 121}, {"time": 169923, "pitch": 42, "duration": 10, "velocity": 112}, {"time": 169923, "pitch": 54, "duration": 10, "velocity": 125}, {"time": 170064, "pitch": 54, "duration": 10, "velocity": 61}, {"time": 170064, "pitch": 69, "duration": 10, "velocity": 54}, {"time": 170163, "pitch": 35, "duration": 10, "velocity": 77}, {"time": 170163, "pitch": 42, "duration": 10, "velocity": 54}, {"time": 170163, "pitch": 54, "duration": 10, "velocity": 81}, {"time": 170163, "pitch": 57, "duration": 10, "velocity": 75}, {"time": 170163, "pitch": 69, "duration": 10, "velocity": 29}, {"time": 170304, "pitch": 38, "duration": 10, "velocity": 64}, {"time": 170304, "pitch": 54, "duration": 10, "velocity": 54}, {"time": 170402, "pitch": 35, "duration": 10, "velocity": 65}, {"time": 170402, "pitch": 36, "duration": 10, "velocity": 64}, {"time": 170402, "pitch": 42, "duration": 10, "velocity": 114}, {"time": 170402, "pitch": 46, "duration": 10, "velocity": 10}, {"time": 170402, "pitch": 54, "duration": 10, "velocity": 102}, {"time": 170402, "pitch": 69, "duration": 10, "velocity": 54}, {"time": 170543, "pitch": 38, "duration": 10, "velocity": 97}, {"time": 170543, "pitch": 54, "duration": 10, "velocity": 44}, {"time": 170642, "pitch": 35, "duration": 10, "velocity": 100}, {"time": 170642, "pitch": 46, "duration": 10, "velocity": 106}, {"time": 170642, "pitch": 54, "duration": 10, "velocity": 54}, {"time": 170642, "pitch": 69, "duration": 10, "velocity": 29}, {"time": 170782, "pitch": 54, "duration": 10, "velocity": 66}, {"time": 170782, "pitch": 69, "duration": 10, "velocity": 17}, {"time": 170881, "pitch": 40, "duration": 10, "velocity": 121}, {"time": 170881, "pitch": 42, "duration": 10, "velocity": 83}, {"time": 170881, "pitch": 54, "duration": 10, "velocity": 103}, {"time": 170881, "pitch": 69, "duration": 10, "velocity": 43}, {"time": 171022, "pitch": 54, "duration": 10, "velocity": 58}, {"time": 171121, "pitch": 35, "duration": 10, "velocity": 77}, {"time": 171121, "pitch": 36, "duration": 10, "velocity": 62}, {"time": 171121, "pitch": 42, "duration": 10, "velocity": 83}, {"time": 171121, "pitch": 46, "duration": 10, "velocity": 8}, {"time": 171121, "pitch": 54, "duration": 10, "velocity": 58}, {"time": 171121, "pitch": 69, "duration": 10, "velocity": 26}, {"time": 171261, "pitch": 38, "duration": 10, "velocity": 76}, {"time": 171261, "pitch": 54, "duration": 10, "velocity": 89}, {"time": 171360, "pitch": 35, "duration": 10, "velocity": 121}, {"time": 171360, "pitch": 36, "duration": 10, "velocity": 64}, {"time": 171360, "pitch": 42, "duration": 10, "velocity": 125}, {"time": 171360, "pitch": 46, "duration": 10, "velocity": 10}, {"time": 171360, "pitch": 54, "duration": 10, "velocity": 58}, {"time": 171501, "pitch": 54, "duration": 10, "velocity": 47}, {"time": 171600, "pitch": 35, "duration": 10, "velocity": 119}, {"time": 171600, "pitch": 42, "duration": 10, "velocity": 50}, {"time": 171600, "pitch": 54, "duration": 10, "velocity": 54}, {"time": 171600, "pitch": 69, "duration": 10, "velocity": 46}, {"time": 171740, "pitch": 36, "duration": 10, "velocity": 51}, {"time": 171740, "pitch": 46, "duration": 10, "velocity": 1}, {"time": 171740, "pitch": 54, "duration": 10, "velocity": 71}, {"time": 171740, "pitch": 69, "duration": 10, "velocity": 29}, {"time": 171839, "pitch": 40, "duration": 10, "velocity": 121}, {"time": 171839, "pitch": 42, "duration": 10, "velocity": 122}, {"time": 171839, "pitch": 54, "duration": 10, "velocity": 125}, {"time": 171980, "pitch": 54, "duration": 10, "velocity": 61}, {"time": 171980, "pitch": 69, "duration": 10, "velocity": 54}, {"time": 172078, "pitch": 35, "duration": 10, "velocity": 77}, {"time": 172078, "pitch": 42, "duration": 10, "velocity": 71}, {"time": 172078, "pitch": 54, "duration": 10, "velocity": 81}, {"time": 172078, "pitch": 69, "duration": 10, "velocity": 29}, {"time": 172219, "pitch": 38, "duration": 10, "velocity": 64}, {"time": 172219, "pitch": 54, "duration": 10, "velocity": 54}, {"time": 172318, "pitch": 35, "duration": 10, "velocity": 65}, {"time": 172318, "pitch": 36, "duration": 10, "velocity": 64}, {"time": 172318, "pitch": 42, "duration": 10, "velocity": 114}, {"time": 172318, "pitch": 46, "duration": 10, "velocity": 10}, {"time": 172318, "pitch": 54, "duration": 10, "velocity": 102}, {"time": 172318, "pitch": 69, "duration": 10, "velocity": 54}, {"time": 172459, "pitch": 38, "duration": 10, "velocity": 97}, {"time": 172459, "pitch": 54, "duration": 10, "velocity": 44}, {"time": 172557, "pitch": 35, "duration": 10, "velocity": 100}, {"time": 172557, "pitch": 46, "duration": 10, "velocity": 103}, {"time": 172557, "pitch": 54, "duration": 10, "velocity": 54}, {"time": 172557, "pitch": 69, "duration": 10, "velocity": 29}, {"time": 172698, "pitch": 54, "duration": 10, "velocity": 66}, {"time": 172698, "pitch": 69, "duration": 10, "velocity": 17}, {"time": 172797, "pitch": 40, "duration": 10, "velocity": 121}, {"time": 172797, "pitch": 42, "duration": 10, "velocity": 114}, {"time": 172797, "pitch": 54, "duration": 10, "velocity": 103}, {"time": 172797, "pitch": 69, "duration": 10, "velocity": 43}, {"time": 172940, "pitch": 54, "duration": 10, "velocity": 58}, {"time": 173040, "pitch": 35, "duration": 10, "velocity": 77}, {"time": 173040, "pitch": 36, "duration": 10, "velocity": 62}, {"time": 173040, "pitch": 42, "duration": 10, "velocity": 71}, {"time": 173040, "pitch": 46, "duration": 10, "velocity": 8}, {"time": 173040, "pitch": 54, "duration": 10, "velocity": 58}, {"time": 173040, "pitch": 69, "duration": 10, "velocity": 26}, {"time": 173183, "pitch": 38, "duration": 10, "velocity": 76}, {"time": 173183, "pitch": 54, "duration": 10, "velocity": 89}, {"time": 173283, "pitch": 35, "duration": 10, "velocity": 121}, {"time": 173283, "pitch": 36, "duration": 10, "velocity": 64}, {"time": 173283, "pitch": 42, "duration": 10, "velocity": 89}, {"time": 173283, "pitch": 46, "duration": 10, "velocity": 10}, {"time": 173283, "pitch": 54, "duration": 10, "velocity": 58}, {"time": 173424, "pitch": 54, "duration": 10, "velocity": 47}, {"time": 173523, "pitch": 35, "duration": 10, "velocity": 119}, {"time": 173523, "pitch": 42, "duration": 10, "velocity": 83}, {"time": 173523, "pitch": 54, "duration": 10, "velocity": 54}, {"time": 173523, "pitch": 69, "duration": 10, "velocity": 46}, {"time": 173664, "pitch": 36, "duration": 9, "velocity": 51}, {"time": 173664, "pitch": 46, "duration": 9, "velocity": 1}, {"time": 173664, "pitch": 54, "duration": 9, "velocity": 71}, {"time": 173664, "pitch": 69, "duration": 9, "velocity": 29}, {"time": 173762, "pitch": 40, "duration": 10, "velocity": 121}, {"time": 173762, "pitch": 42, "duration": 10, "velocity": 112}, {"time": 173762, "pitch": 54, "duration": 10, "velocity": 125}, {"time": 173903, "pitch": 54, "duration": 10, "velocity": 61}, {"time": 173903, "pitch": 69, "duration": 10, "velocity": 54}, {"time": 174002, "pitch": 35, "duration": 10, "velocity": 77}, {"time": 174002, "pitch": 42, "duration": 10, "velocity": 54}, {"time": 174002, "pitch": 54, "duration": 10, "velocity": 81}, {"time": 174002, "pitch": 69, "duration": 10, "velocity": 29}, {"time": 174142, "pitch": 38, "duration": 10, "velocity": 64}, {"time": 174142, "pitch": 54, "duration": 10, "velocity": 54}, {"time": 174241, "pitch": 35, "duration": 10, "velocity": 65}, {"time": 174241, "pitch": 36, "duration": 10, "velocity": 64}, {"time": 174241, "pitch": 42, "duration": 10, "velocity": 114}, {"time": 174241, "pitch": 46, "duration": 10, "velocity": 10}, {"time": 174241, "pitch": 54, "duration": 10, "velocity": 102}, {"time": 174241, "pitch": 69, "duration": 10, "velocity": 54}, {"time": 174382, "pitch": 38, "duration": 10, "velocity": 97}, {"time": 174382, "pitch": 54, "duration": 10, "velocity": 44}, {"time": 174481, "pitch": 35, "duration": 10, "velocity": 100}, {"time": 174481, "pitch": 46, "duration": 10, "velocity": 106}, {"time": 174481, "pitch": 54, "duration": 10, "velocity": 54}, {"time": 174481, "pitch": 69, "duration": 10, "velocity": 29}, {"time": 174621, "pitch": 54, "duration": 10, "velocity": 66}, {"time": 174621, "pitch": 69, "duration": 10, "velocity": 17}, {"time": 174720, "pitch": 40, "duration": 10, "velocity": 121}, {"time": 174720, "pitch": 42, "duration": 10, "velocity": 83}, {"time": 174720, "pitch": 54, "duration": 10, "velocity": 103}, {"time": 174720, "pitch": 69, "duration": 10, "velocity": 43}, {"time": 174861, "pitch": 54, "duration": 10, "velocity": 58}, {"time": 174959, "pitch": 35, "duration": 10, "velocity": 77}, {"time": 174959, "pitch": 36, "duration": 10, "velocity": 62}, {"time": 174959, "pitch": 42, "duration": 10, "velocity": 83}, {"time": 174959, "pitch": 46, "duration": 10, "velocity": 8}, {"time": 174959, "pitch": 54, "duration": 10, "velocity": 58}, {"time": 174959, "pitch": 69, "duration": 10, "velocity": 26}, {"time": 175100, "pitch": 38, "duration": 10, "velocity": 76}, {"time": 175100, "pitch": 54, "duration": 10, "velocity": 89}, {"time": 175199, "pitch": 35, "duration": 10, "velocity": 121}, {"time": 175199, "pitch": 36, "duration": 10, "velocity": 64}, {"time": 175199, "pitch": 42, "duration": 10, "velocity": 125}, {"time": 175199, "pitch": 46, "duration": 10, "velocity": 10}, {"time": 175199, "pitch": 54, "duration": 10, "velocity": 58}, {"time": 175340, "pitch": 54, "duration": 10, "velocity": 47}, {"time": 175438, "pitch": 35, "duration": 10, "velocity": 119}, {"time": 175438, "pitch": 42, "duration": 10, "velocity": 50}, {"time": 175438, "pitch": 54, "duration": 10, "velocity": 54}, {"time": 175438, "pitch": 69, "duration": 10, "velocity": 46}, {"time": 175579, "pitch": 36, "duration": 10, "velocity": 51}, {"time": 175579, "pitch": 46, "duration": 10, "velocity": 1}, {"time": 175579, "pitch": 54, "duration": 10, "velocity": 71}, {"time": 175579, "pitch": 69, "duration": 10, "velocity": 29}, {"time": 175678, "pitch": 40, "duration": 10, "velocity": 121}, {"time": 175678, "pitch": 42, "duration": 10, "velocity": 122}, {"time": 175678, "pitch": 54, "duration": 10, "velocity": 125}, {"time": 175818, "pitch": 54, "duration": 10, "velocity": 61}, {"time": 175818, "pitch": 69, "duration": 10, "velocity": 54}, {"time": 175917, "pitch": 35, "duration": 10, "velocity": 77}, {"time": 175917, "pitch": 42, "duration": 10, "velocity": 71}, {"time": 175917, "pitch": 54, "duration": 10, "velocity": 81}, {"time": 175917, "pitch": 69, "duration": 10, "velocity": 29}, {"time": 176058, "pitch": 38, "duration": 10, "velocity": 64}, {"time": 176058, "pitch": 54, "duration": 10, "velocity": 54}, {"time": 176157, "pitch": 35, "duration": 10, "velocity": 65}, {"time": 176157, "pitch": 36, "duration": 10, "velocity": 64}, {"time": 176157, "pitch": 42, "duration": 10, "velocity": 114}, {"time": 176157, "pitch": 46, "duration": 10, "velocity": 10}, {"time": 176157, "pitch": 54, "duration": 10, "velocity": 102}, {"time": 176157, "pitch": 69, "duration": 10, "velocity": 54}, {"time": 176300, "pitch": 38, "duration": 10, "velocity": 97}, {"time": 176300, "pitch": 54, "duration": 10, "velocity": 44}, {"time": 176400, "pitch": 35, "duration": 10, "velocity": 100}, {"time": 176400, "pitch": 46, "duration": 10, "velocity": 103}, {"time": 176400, "pitch": 54, "duration": 10, "velocity": 54}, {"time": 176400, "pitch": 69, "duration": 10, "velocity": 29}, {"time": 176543, "pitch": 54, "duration": 10, "velocity": 66}, {"time": 176543, "pitch": 69, "duration": 10, "velocity": 17}, {"time": 176643, "pitch": 40, "duration": 10, "velocity": 121}, {"time": 176643, "pitch": 42, "duration": 10, "velocity": 114}, {"time": 176643, "pitch": 54, "duration": 10, "velocity": 103}, {"time": 176643, "pitch": 69, "duration": 10, "velocity": 43}, {"time": 176784, "pitch": 54, "duration": 10, "velocity": 58}, {"time": 176883, "pitch": 35, "duration": 10, "velocity": 77}, {"time": 176883, "pitch": 36, "duration": 10, "velocity": 62}, {"time": 176883, "pitch": 42, "duration": 10, "velocity": 71}, {"time": 176883, "pitch": 46, "duration": 10, "velocity": 8}, {"time": 176883, "pitch": 54, "duration": 10, "velocity": 58}, {"time": 176883, "pitch": 69, "duration": 10, "velocity": 26}, {"time": 177023, "pitch": 38, "duration": 10, "velocity": 76}, {"time": 177023, "pitch": 54, "duration": 10, "velocity": 89}, {"time": 177122, "pitch": 35, "duration": 10, "velocity": 121}, {"time": 177122, "pitch": 36, "duration": 10, "velocity": 64}, {"time": 177122, "pitch": 42, "duration": 10, "velocity": 89}, {"time": 177122, "pitch": 46, "duration": 10, "velocity": 10}, {"time": 177122, "pitch": 54, "duration": 10, "velocity": 58}, {"time": 177264, "pitch": 54, "duration": 10, "velocity": 47}, {"time": 177363, "pitch": 35, "duration": 10, "velocity": 119}, {"time": 177363, "pitch": 42, "duration": 10, "velocity": 83}, {"time": 177363, "pitch": 54, "duration": 10, "velocity": 54}, {"time": 177363, "pitch": 69, "duration": 10, "velocity": 46}, {"time": 177504, "pitch": 36, "duration": 10, "velocity": 51}, {"time": 177504, "pitch": 46, "duration": 10, "velocity": 1}, {"time": 177504, "pitch": 54, "duration": 10, "velocity": 71}, {"time": 177504, "pitch": 69, "duration": 10, "velocity": 29}, {"time": 177603, "pitch": 40, "duration": 10, "velocity": 121}, {"time": 177603, "pitch": 42, "duration": 10, "velocity": 112}, {"time": 177603, "pitch": 54, "duration": 10, "velocity": 125}, {"time": 177742, "pitch": 54, "duration": 10, "velocity": 61}, {"time": 177742, "pitch": 69, "duration": 10, "velocity": 54}, {"time": 177840, "pitch": 35, "duration": 10, "velocity": 77}, {"time": 177840, "pitch": 42, "duration": 10, "velocity": 54}, {"time": 177840, "pitch": 54, "duration": 10, "velocity": 81}, {"time": 177840, "pitch": 69, "duration": 10, "velocity": 29}, {"time": 177979, "pitch": 38, "duration": 10, "velocity": 64}, {"time": 177979, "pitch": 54, "duration": 10, "velocity": 54}, {"time": 178077, "pitch": 35, "duration": 10, "velocity": 65}, {"time": 178077, "pitch": 49, "duration": 10, "velocity": 75}], "annotations": [{"time": 207, "annotation": {"number": 0, "value": 0}, "group": "control_change"}, {"time": 218, "annotation": {"number": 32, "value": 2}, "group": "control_change"}, {"time": 241, "annotation": {"number": 7, "value": 116}, "group": "control_change"}, {"time": 252, "annotation": {"number": 11, "value": 127}, "group": "control_change"}, {"time": 264, "annotation": {"number": 91, "value": 53}, "group": "control_change"}, {"time": 470, "annotation": {"number": 101, "value": 127}, "group": "control_change"}, {"time": 483, "annotation": {"number": 100, "value": 127}, "group": "control_change"}]}, {"program": 0, "is_drum": false, "name": "STRINGS3  /KIRA", "annotations": [{"time": 207, "annotation": {"number": 0, "value": 0}, "group": "control_change"}, {"time": 218, "annotation": {"number": 32, "value": 2}, "group": "control_change"}]}, {"program": 100, "is_drum": false, "name": "STRINGS3  /KIRA", "notes": [{"time": 47762, "pitch": 84, "duration": 99, "velocity": 98}, {"time": 48001, "pitch": 79, "duration": 120, "velocity": 83}, {"time": 48240, "pitch": 84, "duration": 100, "velocity": 83}, {"time": 48480, "pitch": 83, "duration": 100, "velocity": 77}, {"time": 52319, "pitch": 77, "duration": 99, "velocity": 83}, {"time": 52798, "pitch": 81, "duration": 129, "velocity": 97}, {"time": 53276, "pitch": 84, "duration": 132, "velocity": 100}, {"time": 53763, "pitch": 86, "duration": 160, "velocity": 97}, {"time": 54242, "pitch": 88, "duration": 110, "velocity": 89}, {"time": 55439, "pitch": 84, "duration": 90, "velocity": 95}, {"time": 55679, "pitch": 79, "duration": 119, "velocity": 71}, {"time": 55918, "pitch": 84, "duration": 100, "velocity": 95}, {"time": 56157, "pitch": 83, "duration": 90, "velocity": 97}, {"time": 56538, "pitch": 88, "duration": 99, "velocity": 95}, {"time": 56880, "pitch": 81, "duration": 152, "velocity": 97}, {"time": 101520, "pitch": 84, "duration": 100, "velocity": 98}, {"time": 101760, "pitch": 79, "duration": 119, "velocity": 83}, {"time": 101999, "pitch": 84, "duration": 100, "velocity": 83}, {"time": 102239, "pitch": 83, "duration": 99, "velocity": 77}, {"time": 106077, "pitch": 77, "duration": 100, "velocity": 83}, {"time": 106556, "pitch": 81, "duration": 132, "velocity": 97}, {"time": 107043, "pitch": 84, "duration": 130, "velocity": 100}, {"time": 107522, "pitch": 86, "duration": 159, "velocity": 97}, {"time": 108001, "pitch": 88, "duration": 109, "velocity": 89}, {"time": 109198, "pitch": 84, "duration": 90, "velocity": 95}, {"time": 109437, "pitch": 79, "duration": 122, "velocity": 71}, {"time": 109681, "pitch": 84, "duration": 101, "velocity": 95}, {"time": 109924, "pitch": 83, "duration": 90, "velocity": 97}, {"time": 110304, "pitch": 88, "duration": 100, "velocity": 95}, {"time": 110642, "pitch": 81, "duration": 150, "velocity": 97}, {"time": 145678, "pitch": 84, "duration": 100, "velocity": 98}, {"time": 145917, "pitch": 79, "duration": 120, "velocity": 83}, {"time": 146157, "pitch": 84, "duration": 100, "velocity": 83}, {"time": 146396, "pitch": 83, "duration": 102, "velocity": 77}, {"time": 150243, "pitch": 77, "duration": 100, "velocity": 83}, {"time": 150722, "pitch": 81, "duration": 129, "velocity": 97}, {"time": 151201, "pitch": 84, "duration": 129, "velocity": 100}, {"time": 151680, "pitch": 86, "duration": 159, "velocity": 97}, {"time": 152158, "pitch": 88, "duration": 110, "velocity": 89}, {"time": 153359, "pitch": 84, "duration": 92, "velocity": 95}, {"time": 153603, "pitch": 79, "duration": 119, "velocity": 71}, {"time": 153842, "pitch": 84, "duration": 100, "velocity": 95}, {"time": 154082, "pitch": 83, "duration": 89, "velocity": 97}, {"time": 154462, "pitch": 88, "duration": 100, "velocity": 95}, {"time": 154800, "pitch": 81, "duration": 150, "velocity": 97}, {"time": 161041, "pitch": 84, "duration": 100, "velocity": 98}, {"time": 161280, "pitch": 79, "duration": 120, "velocity": 83}, {"time": 161520, "pitch": 84, "duration": 100, "velocity": 83}, {"time": 161759, "pitch": 83, "duration": 100, "velocity": 77}, {"time": 165598, "pitch": 77, "duration": 100, "velocity": 83}, {"time": 166077, "pitch": 81, "duration": 132, "velocity": 97}, {"time": 166564, "pitch": 84, "duration": 129, "velocity": 100}, {"time": 167042, "pitch": 86, "duration": 160, "velocity": 97}, {"time": 167521, "pitch": 88, "duration": 110, "velocity": 89}, {"time": 168719, "pitch": 84, "duration": 89, "velocity": 95}, {"time": 168958, "pitch": 79, "duration": 120, "velocity": 71}, {"time": 169197, "pitch": 84, "duration": 100, "velocity": 95}, {"time": 169437, "pitch": 83, "duration": 91, "velocity": 97}, {"time": 169823, "pitch": 88, "duration": 101, "velocity": 95}, {"time": 170163, "pitch": 81, "duration": 150, "velocity": 97}], "annotations": [{"time": 241, "annotation": {"number": 7, "value": 65}, "group": "control_change"}, {"time": 252, "annotation": {"number": 11, "value": 127}, "group": "control_change"}, {"time": 264, "annotation": {"number": 10, "value": 64}, "group": "control_change"}, {"time": 275, "annotation": {"number": 91, "value": 115}, "group": "control_change"}, {"time": 287, "annotation": {"number": 93, "value": 35}, "group": "control_change"}, {"time": 310, "annotation": {"number": 101, "value": 0}, "group": "control_change"}, {"time": 321, "annotation": {"number": 100, "value": 0}, "group": "control_change"}, {"time": 333, "annotation": {"number": 6, "value": 12}, "group": "control_change"}, {"time": 390, "annotation": {"number": 101, "value": 127}, "group": "control_change"}, {"time": 402, "annotation": {"number": 100, "value": 127}, "group": "control_change"}, {"time": 115588, "annotation": {"number": 0, "value": 0}, "group": "control_change"}, {"time": 115598, "annotation": {"number": 32, "value": 2}, "group": "control_change"}, {"time": 144511, "annotation": {"number": 7, "value": 65}, "group": "control_change"}, {"time": 144521, "annotation": {"number": 11, "value": 127}, "group": "control_change"}, {"time": 144531, "annotation": {"number": 10, "value": 64}, "group": "control_change"}, {"time": 144541, "annotation": {"number": 91, "value": 115}, "group": "control_change"}, {"time": 144551, "annotation": {"number": 93, "value": 35}, "group": "control_change"}]}, {"program": 49, "is_drum": false, "name": "STRINGS3  /KIRA", "notes": [{"time": 115678, "pitch": 68, "duration": 1904, "velocity": 85}, {"time": 115678, "pitch": 72, "duration": 1864, "velocity": 85}, {"time": 117601, "pitch": 65, "duration": 1886, "velocity": 85}, {"time": 117601, "pitch": 74, "duration": 1866, "velocity": 85}, {"time": 119517, "pitch": 67, "duration": 1923, "velocity": 85}, {"time": 119517, "pitch": 76, "duration": 1923, "velocity": 85}, {"time": 121440, "pitch": 57, "duration": 479, "velocity": 97}, {"time": 121440, "pitch": 62, "duration": 958, "velocity": 97}, {"time": 121919, "pitch": 55, "duration": 479, "velocity": 97}, {"time": 122398, "pitch": 53, "duration": 379, "velocity": 86}, {"time": 122398, "pitch": 67, "duration": 479, "velocity": 92}, {"time": 122777, "pitch": 52, "duration": 343, "velocity": 86}, {"time": 122877, "pitch": 65, "duration": 487, "velocity": 92}, {"time": 123120, "pitch": 50, "duration": 244, "velocity": 86}, {"time": 123364, "pitch": 53, "duration": 1915, "velocity": 77}, {"time": 123364, "pitch": 69, "duration": 1915, "velocity": 97}, {"time": 125279, "pitch": 53, "duration": 1923, "velocity": 89}, {"time": 125279, "pitch": 68, "duration": 1923, "velocity": 93}, {"time": 127202, "pitch": 62, "duration": 689, "velocity": 80}, {"time": 127202, "pitch": 67, "duration": 689, "velocity": 89}, {"time": 127921, "pitch": 61, "duration": 1187, "velocity": 85}, {"time": 127921, "pitch": 72, "duration": 1187, "velocity": 85}, {"time": 129118, "pitch": 50, "duration": 1684, "velocity": 83}, {"time": 129118, "pitch": 72, "duration": 1923, "velocity": 79}, {"time": 130802, "pitch": 57, "duration": 239, "velocity": 89}, {"time": 131041, "pitch": 53, "duration": 1916, "velocity": 97}, {"time": 131041, "pitch": 72, "duration": 1916, "velocity": 95}, {"time": 132957, "pitch": 67, "duration": 1923, "velocity": 86}, {"time": 132957, "pitch": 79, "duration": 1923, "velocity": 97}, {"time": 134880, "pitch": 67, "duration": 90, "velocity": 97}, {"time": 134880, "pitch": 79, "duration": 80, "velocity": 100}], "annotations": [{"time": 115618, "annotation": {"number": 7, "value": 45}, "group": "control_change"}, {"time": 115628, "annotation": {"number": 11, "value": 127}, "group": "control_change"}, {"time": 115638, "annotation": {"number": 10, "value": 109}, "group": "control_change"}, {"time": 115648, "annotation": {"number": 91, "value": 120}, "group": "control_change"}, {"time": 115658, "annotation": {"number": 93, "value": 56}, "group": "control_change"}, {"time": 144481, "annotation": {"number": 0, "value": 0}, "group": "control_change"}, {"time": 144491, "annotation": {"number": 32, "value": 2}, "group": "control_change"}]}, {"program": 0, "is_drum": false, "name": "STRINGS4", "annotations": [{"time": 207, "annotation": {"number": 0, "value": 0}, "group": "control_change"}, {"time": 218, "annotation": {"number": 32, "value": 2}, "group": "control_change"}]}, {"program": 48, "is_drum": false, "name": "STRINGS4", "notes": [{"time": 115678, "pitch": 68, "duration": 1904, "velocity": 85}, {"time": 115678, "pitch": 72, "duration": 1864, "velocity": 85}, {"time": 117601, "pitch": 65, "duration": 1886, "velocity": 85}, {"time": 117601, "pitch": 74, "duration": 1866, "velocity": 85}, {"time": 119517, "pitch": 67, "duration": 1923, "velocity": 85}, {"time": 119517, "pitch": 76, "duration": 1923, "velocity": 85}, {"time": 121440, "pitch": 57, "duration": 479, "velocity": 97}, {"time": 121440, "pitch": 62, "duration": 958, "velocity": 97}, {"time": 121919, "pitch": 55, "duration": 479, "velocity": 97}, {"time": 122398, "pitch": 53, "duration": 379, "velocity": 86}, {"time": 122398, "pitch": 67, "duration": 479, "velocity": 92}, {"time": 122777, "pitch": 52, "duration": 343, "velocity": 86}, {"time": 122877, "pitch": 65, "duration": 487, "velocity": 92}, {"time": 123120, "pitch": 50, "duration": 244, "velocity": 86}, {"time": 123364, "pitch": 53, "duration": 1915, "velocity": 77}, {"time": 123364, "pitch": 69, "duration": 1915, "velocity": 97}, {"time": 125279, "pitch": 53, "duration": 1923, "velocity": 89}, {"time": 125279, "pitch": 68, "duration": 1923, "velocity": 93}, {"time": 127202, "pitch": 62, "duration": 689, "velocity": 80}, {"time": 127202, "pitch": 67, "duration": 689, "velocity": 89}, {"time": 127921, "pitch": 61, "duration": 1187, "velocity": 85}, {"time": 127921, "pitch": 72, "duration": 1187, "velocity": 85}, {"time": 129118, "pitch": 50, "duration": 1684, "velocity": 83}, {"time": 129118, "pitch": 72, "duration": 1923, "velocity": 79}, {"time": 130802, "pitch": 57, "duration": 239, "velocity": 89}, {"time": 131041, "pitch": 53, "duration": 1916, "velocity": 97}, {"time": 131041, "pitch": 72, "duration": 1916, "velocity": 95}, {"time": 132957, "pitch": 67, "duration": 1923, "velocity": 86}, {"time": 132957, "pitch": 79, "duration": 1923, "velocity": 97}, {"time": 134880, "pitch": 67, "duration": 90, "velocity": 97}, {"time": 134880, "pitch": 79, "duration": 80, "velocity": 100}, {"time": 144481, "pitch": 48, "duration": 1436, "velocity": 72}, {"time": 144481, "pitch": 60, "duration": 1357, "velocity": 83}, {"time": 144481, "pitch": 62, "duration": 938, "velocity": 110}, {"time": 144481, "pitch": 67, "duration": 2382, "velocity": 81}, {"time": 145439, "pitch": 64, "duration": 1444, "velocity": 114}, {"time": 145917, "pitch": 55, "duration": 479, "velocity": 95}, {"time": 146396, "pitch": 52, "duration": 1924, "velocity": 112}, {"time": 146883, "pitch": 67, "duration": 945, "velocity": 114}, {"time": 146883, "pitch": 72, "duration": 469, "velocity": 114}, {"time": 147362, "pitch": 71, "duration": 479, "velocity": 106}, {"time": 147841, "pitch": 64, "duration": 479, "velocity": 103}, {"time": 147841, "pitch": 67, "duration": 479, "velocity": 103}, {"time": 148320, "pitch": 57, "duration": 718, "velocity": 100}, {"time": 148320, "pitch": 60, "duration": 2867, "velocity": 95}, {"time": 148320, "pitch": 64, "duration": 957, "velocity": 98}, {"time": 148320, "pitch": 67, "duration": 957, "velocity": 102}, {"time": 149038, "pitch": 52, "duration": 229, "velocity": 89}, {"time": 149277, "pitch": 45, "duration": 479, "velocity": 103}, {"time": 149277, "pitch": 64, "duration": 966, "velocity": 109}, {"time": 149277, "pitch": 69, "duration": 966, "velocity": 102}, {"time": 149756, "pitch": 55, "duration": 487, "velocity": 103}, {"time": 150243, "pitch": 53, "duration": 958, "velocity": 103}, {"time": 150243, "pitch": 69, "duration": 1437, "velocity": 104}, {"time": 150243, "pitch": 72, "duration": 1437, "velocity": 114}, {"time": 151201, "pitch": 55, "duration": 479, "velocity": 97}, {"time": 151680, "pitch": 55, "duration": 478, "velocity": 97}, {"time": 151680, "pitch": 62, "duration": 478, "velocity": 91}, {"time": 151680, "pitch": 67, "duration": 478, "velocity": 91}, {"time": 151680, "pitch": 71, "duration": 478, "velocity": 102}, {"time": 152158, "pitch": 48, "duration": 1445, "velocity": 72}, {"time": 152158, "pitch": 60, "duration": 1904, "velocity": 83}, {"time": 152158, "pitch": 62, "duration": 938, "velocity": 110}, {"time": 152158, "pitch": 67, "duration": 1907, "velocity": 81}, {"time": 153116, "pitch": 64, "duration": 951, "velocity": 114}, {"time": 153603, "pitch": 55, "duration": 479, "velocity": 95}, {"time": 154082, "pitch": 52, "duration": 708, "velocity": 112}, {"time": 154082, "pitch": 59, "duration": 708, "velocity": 114}, {"time": 154082, "pitch": 67, "duration": 708, "velocity": 114}, {"time": 154082, "pitch": 71, "duration": 708, "velocity": 114}, {"time": 154800, "pitch": 45, "duration": 1187, "velocity": 102}, {"time": 154800, "pitch": 60, "duration": 721, "velocity": 106}, {"time": 154800, "pitch": 72, "duration": 711, "velocity": 114}, {"time": 155518, "pitch": 64, "duration": 3, "velocity": 103}, {"time": 155518, "pitch": 79, "duration": 479, "velocity": 103}, {"time": 155997, "pitch": 50, "duration": 726, "velocity": 100}, {"time": 155997, "pitch": 60, "duration": 3343, "velocity": 95}, {"time": 155997, "pitch": 64, "duration": 966, "velocity": 98}, {"time": 155997, "pitch": 77, "duration": 966, "velocity": 102}, {"time": 156723, "pitch": 45, "duration": 230, "velocity": 89}, {"time": 156963, "pitch": 50, "duration": 479, "velocity": 103}, {"time": 156963, "pitch": 64, "duration": 957, "velocity": 109}, {"time": 156963, "pitch": 69, "duration": 957, "velocity": 102}, {"time": 157442, "pitch": 52, "duration": 478, "velocity": 103}, {"time": 157920, "pitch": 53, "duration": 958, "velocity": 103}, {"time": 157920, "pitch": 68, "duration": 1437, "velocity": 104}, {"time": 157920, "pitch": 72, "duration": 1437, "velocity": 114}, {"time": 158878, "pitch": 55, "duration": 479, "velocity": 97}, {"time": 159357, "pitch": 55, "duration": 487, "velocity": 97}, {"time": 159357, "pitch": 62, "duration": 487, "velocity": 91}, {"time": 159357, "pitch": 67, "duration": 487, "velocity": 91}, {"time": 159357, "pitch": 71, "duration": 487, "velocity": 102}, {"time": 159844, "pitch": 48, "duration": 1436, "velocity": 72}, {"time": 159844, "pitch": 60, "duration": 1357, "velocity": 83}, {"time": 159844, "pitch": 62, "duration": 938, "velocity": 110}, {"time": 159844, "pitch": 67, "duration": 2374, "velocity": 81}, {"time": 160801, "pitch": 64, "duration": 1437, "velocity": 114}, {"time": 161280, "pitch": 55, "duration": 479, "velocity": 95}, {"time": 161759, "pitch": 52, "duration": 1924, "velocity": 112}, {"time": 162238, "pitch": 67, "duration": 953, "velocity": 114}, {"time": 162238, "pitch": 72, "duration": 469, "velocity": 114}, {"time": 162717, "pitch": 71, "duration": 487, "velocity": 106}, {"time": 163204, "pitch": 64, "duration": 479, "velocity": 103}, {"time": 163204, "pitch": 67, "duration": 479, "velocity": 103}, {"time": 163683, "pitch": 57, "duration": 718, "velocity": 100}, {"time": 163683, "pitch": 60, "duration": 2866, "velocity": 95}, {"time": 163683, "pitch": 64, "duration": 957, "velocity": 98}, {"time": 163683, "pitch": 67, "duration": 957, "velocity": 102}, {"time": 164401, "pitch": 52, "duration": 229, "velocity": 89}, {"time": 164640, "pitch": 45, "duration": 479, "velocity": 103}, {"time": 164640, "pitch": 64, "duration": 958, "velocity": 109}, {"time": 164640, "pitch": 69, "duration": 958, "velocity": 102}, {"time": 165119, "pitch": 55, "duration": 479, "velocity": 103}, {"time": 165598, "pitch": 53, "duration": 966, "velocity": 103}, {"time": 165598, "pitch": 69, "duration": 1444, "velocity": 104}, {"time": 165598, "pitch": 72, "duration": 1444, "velocity": 114}, {"time": 166564, "pitch": 55, "duration": 478, "velocity": 97}, {"time": 167042, "pitch": 55, "duration": 479, "velocity": 97}, {"time": 167042, "pitch": 62, "duration": 479, "velocity": 91}, {"time": 167042, "pitch": 67, "duration": 479, "velocity": 91}, {"time": 167042, "pitch": 71, "duration": 479, "velocity": 102}, {"time": 167521, "pitch": 48, "duration": 1437, "velocity": 72}, {"time": 167521, "pitch": 60, "duration": 1896, "velocity": 83}, {"time": 167521, "pitch": 62, "duration": 938, "velocity": 110}, {"time": 167521, "pitch": 67, "duration": 1899, "velocity": 81}, {"time": 168479, "pitch": 64, "duration": 943, "velocity": 114}, {"time": 168958, "pitch": 55, "duration": 479, "velocity": 95}, {"time": 169437, "pitch": 52, "duration": 716, "velocity": 112}, {"time": 169437, "pitch": 59, "duration": 716, "velocity": 114}, {"time": 169437, "pitch": 67, "duration": 716, "velocity": 114}, {"time": 169437, "pitch": 71, "duration": 716, "velocity": 114}, {"time": 170163, "pitch": 45, "duration": 1187, "velocity": 102}, {"time": 170163, "pitch": 60, "duration": 721, "velocity": 106}, {"time": 170163, "pitch": 72, "duration": 711, "velocity": 114}, {"time": 170881, "pitch": 64, "duration": 3, "velocity": 103}, {"time": 170881, "pitch": 79, "duration": 479, "velocity": 103}, {"time": 171360, "pitch": 50, "duration": 718, "velocity": 100}, {"time": 171360, "pitch": 60, "duration": 3343, "velocity": 95}, {"time": 171360, "pitch": 64, "duration": 958, "velocity": 98}, {"time": 171360, "pitch": 77, "duration": 958, "velocity": 102}, {"time": 172078, "pitch": 45, "duration": 230, "velocity": 89}, {"time": 172318, "pitch": 50, "duration": 479, "velocity": 103}, {"time": 172318, "pitch": 64, "duration": 965, "velocity": 109}, {"time": 172318, "pitch": 69, "duration": 965, "velocity": 102}, {"time": 172797, "pitch": 52, "duration": 486, "velocity": 103}, {"time": 173283, "pitch": 53, "duration": 958, "velocity": 103}, {"time": 173283, "pitch": 68, "duration": 1437, "velocity": 104}, {"time": 173283, "pitch": 72, "duration": 1437, "velocity": 114}, {"time": 174241, "pitch": 55, "duration": 479, "velocity": 97}, {"time": 174720, "pitch": 55, "duration": 479, "velocity": 97}, {"time": 174720, "pitch": 62, "duration": 479, "velocity": 91}, {"time": 174720, "pitch": 67, "duration": 479, "velocity": 91}, {"time": 174720, "pitch": 71, "duration": 479, "velocity": 102}, {"time": 175199, "pitch": 48, "duration": 1444, "velocity": 72}, {"time": 175199, "pitch": 60, "duration": 1363, "velocity": 83}, {"time": 175199, "pitch": 62, "duration": 938, "velocity": 110}, {"time": 175199, "pitch": 67, "duration": 2384, "velocity": 81}, {"time": 176157, "pitch": 64, "duration": 965, "velocity": 114}, {"time": 176643, "pitch": 55, "duration": 479, "velocity": 95}, {"time": 177122, "pitch": 53, "duration": 1921, "velocity": 103}, {"time": 177122, "pitch": 68, "duration": 1921, "velocity": 104}, {"time": 177122, "pitch": 72, "duration": 1921, "velocity": 114}, {"time": 179043, "pitch": 48, "duration": 3351, "velocity": 103}, {"time": 179043, "pitch": 67, "duration": 3351, "velocity": 104}, {"time": 179043, "pitch": 72, "duration": 3351, "velocity": 114}], "annotations": [{"time": 241, "annotation": {"number": 7, "value": 59}, "group": "control_change"}, {"time": 252, "annotation": {"number": 11, "value": 127}, "group": "control_change"}, {"time": 264, "annotation": {"number": 10, "value": 29}, "group": "control_change"}, {"time": 275, "annotation": {"number": 91, "value": 127}, "group": "control_change"}, {"time": 287, "annotation": {"number": 93, "value": 55}, "group": "control_change"}, {"time": 310, "annotation": {"number": 101, "value": 0}, "group": "control_change"}, {"time": 321, "annotation": {"number": 100, "value": 0}, "group": "control_change"}, {"time": 333, "annotation": {"number": 6, "value": 12}, "group": "control_change"}, {"time": 344, "annotation": {"number": 101, "value": 127}, "group": "control_change"}, {"time": 356, "annotation": {"number": 100, "value": 127}, "group": "control_change"}, {"time": 144481, "annotation": {"number": 11, "value": 80}, "group": "control_change"}, {"time": 144497, "annotation": {"number": 11, "value": 80}, "group": "control_change"}, {"time": 144527, "annotation": {"number": 11, "value": 81}, "group": "control_change"}, {"time": 144557, "annotation": {"number": 11, "value": 82}, "group": "control_change"}, {"time": 144587, "annotation": {"number": 11, "value": 83}, "group": "control_change"}, {"time": 144615, "annotation": {"number": 11, "value": 84}, "group": "control_change"}, {"time": 144645, "annotation": {"number": 11, "value": 85}, "group": "control_change"}, {"time": 144675, "annotation": {"number": 11, "value": 86}, "group": "control_change"}, {"time": 144705, "annotation": {"number": 11, "value": 87}, "group": "control_change"}, {"time": 144734, "annotation": {"number": 11, "value": 88}, "group": "control_change"}, {"time": 144764, "annotation": {"number": 11, "value": 89}, "group": "control_change"}, {"time": 144794, "annotation": {"number": 11, "value": 90}, "group": "control_change"}, {"time": 144823, "annotation": {"number": 11, "value": 92}, "group": "control_change"}, {"time": 146113, "annotation": {"number": 11, "value": 94}, "group": "control_change"}, {"time": 146148, "annotation": {"number": 11, "value": 94}, "group": "control_change"}, {"time": 146183, "annotation": {"number": 11, "value": 95}, "group": "control_change"}, {"time": 146219, "annotation": {"number": 11, "value": 96}, "group": "control_change"}, {"time": 146254, "annotation": {"number": 11, "value": 97}, "group": "control_change"}, {"time": 146290, "annotation": {"number": 11, "value": 98}, "group": "control_change"}, {"time": 146324, "annotation": {"number": 11, "value": 99}, "group": "control_change"}, {"time": 146359, "annotation": {"number": 11, "value": 100}, "group": "control_change"}, {"time": 146395, "annotation": {"number": 11, "value": 101}, "group": "control_change"}, {"time": 146431, "annotation": {"number": 11, "value": 102}, "group": "control_change"}, {"time": 146467, "annotation": {"number": 11, "value": 103}, "group": "control_change"}, {"time": 146503, "annotation": {"number": 11, "value": 104}, "group": "control_change"}, {"time": 146538, "annotation": {"number": 11, "value": 106}, "group": "control_change"}, {"time": 151709, "annotation": {"number": 11, "value": 102}, "group": "control_change"}, {"time": 151735, "annotation": {"number": 11, "value": 99}, "group": "control_change"}, {"time": 151760, "annotation": {"number": 11, "value": 97}, "group": "control_change"}, {"time": 151786, "annotation": {"number": 11, "value": 94}, "group": "control_change"}, {"time": 151812, "annotation": {"number": 11, "value": 92}, "group": "control_change"}, {"time": 151838, "annotation": {"number": 11, "value": 89}, "group": "control_change"}, {"time": 151864, "annotation": {"number": 11, "value": 87}, "group": "control_change"}, {"time": 151890, "annotation": {"number": 11, "value": 84}, "group": "control_change"}, {"time": 151916, "annotation": {"number": 11, "value": 82}, "group": "control_change"}, {"time": 151942, "annotation": {"number": 11, "value": 79}, "group": "control_change"}, {"time": 151968, "annotation": {"number": 11, "value": 77}, "group": "control_change"}, {"time": 151994, "annotation": {"number": 11, "value": 74}, "group": "control_change"}, {"time": 152020, "annotation": {"number": 11, "value": 72}, "group": "control_change"}, {"time": 152046, "annotation": {"number": 11, "value": 69}, "group": "control_change"}, {"time": 152072, "annotation": {"number": 11, "value": 67}, "group": "control_change"}, {"time": 152098, "annotation": {"number": 11, "value": 64}, "group": "control_change"}, {"time": 152123, "annotation": {"number": 11, "value": 62}, "group": "control_change"}, {"time": 152148, "annotation": {"number": 11, "value": 60}, "group": "control_change"}, {"time": 152158, "annotation": {"number": 11, "value": 80}, "group": "control_change"}, {"time": 152174, "annotation": {"number": 11, "value": 80}, "group": "control_change"}, {"time": 152204, "annotation": {"number": 11, "value": 81}, "group": "control_change"}, {"time": 152234, "annotation": {"number": 11, "value": 82}, "group": "control_change"}, {"time": 152264, "annotation": {"number": 11, "value": 83}, "group": "control_change"}, {"time": 152293, "annotation": {"number": 11, "value": 84}, "group": "control_change"}, {"time": 152323, "annotation": {"number": 11, "value": 85}, "group": "control_change"}, {"time": 152353, "annotation": {"number": 11, "value": 86}, "group": "control_change"}, {"time": 152383, "annotation": {"number": 11, "value": 87}, "group": "control_change"}, {"time": 152412, "annotation": {"number": 11, "value": 88}, "group": "control_change"}, {"time": 152442, "annotation": {"number": 11, "value": 89}, "group": "control_change"}, {"time": 152472, "annotation": {"number": 11, "value": 90}, "group": "control_change"}, {"time": 152501, "annotation": {"number": 11, "value": 92}, "group": "control_change"}, {"time": 153798, "annotation": {"number": 11, "value": 94}, "group": "control_change"}, {"time": 153833, "annotation": {"number": 11, "value": 94}, "group": "control_change"}, {"time": 153868, "annotation": {"number": 11, "value": 95}, "group": "control_change"}, {"time": 153904, "annotation": {"number": 11, "value": 96}, "group": "control_change"}, {"time": 153939, "annotation": {"number": 11, "value": 97}, "group": "control_change"}, {"time": 153975, "annotation": {"number": 11, "value": 98}, "group": "control_change"}, {"time": 154010, "annotation": {"number": 11, "value": 99}, "group": "control_change"}, {"time": 154045, "annotation": {"number": 11, "value": 100}, "group": "control_change"}, {"time": 154081, "annotation": {"number": 11, "value": 101}, "group": "control_change"}, {"time": 154116, "annotation": {"number": 11, "value": 102}, "group": "control_change"}, {"time": 154151, "annotation": {"number": 11, "value": 103}, "group": "control_change"}, {"time": 154186, "annotation": {"number": 11, "value": 104}, "group": "control_change"}, {"time": 154221, "annotation": {"number": 11, "value": 106}, "group": "control_change"}, {"time": 159387, "annotation": {"number": 11, "value": 102}, "group": "control_change"}, {"time": 159414, "annotation": {"number": 11, "value": 99}, "group": "control_change"}, {"time": 159439, "annotation": {"number": 11, "value": 97}, "group": "control_change"}, {"time": 159466, "annotation": {"number": 11, "value": 94}, "group": "control_change"}, {"time": 159492, "annotation": {"number": 11, "value": 92}, "group": "control_change"}, {"time": 159518, "annotation": {"number": 11, "value": 89}, "group": "control_change"}, {"time": 159545, "annotation": {"number": 11, "value": 87}, "group": "control_change"}, {"time": 159571, "annotation": {"number": 11, "value": 84}, "group": "control_change"}, {"time": 159597, "annotation": {"number": 11, "value": 82}, "group": "control_change"}, {"time": 159624, "annotation": {"number": 11, "value": 79}, "group": "control_change"}, {"time": 159650, "annotation": {"number": 11, "value": 77}, "group": "control_change"}, {"time": 159676, "annotation": {"number": 11, "value": 74}, "group": "control_change"}, {"time": 159703, "annotation": {"number": 11, "value": 72}, "group": "control_change"}, {"time": 159729, "annotation": {"number": 11, "value": 69}, "group": "control_change"}, {"time": 159756, "annotation": {"number": 11, "value": 67}, "group": "control_change"}, {"time": 159782, "annotation": {"number": 11, "value": 64}, "group": "control_change"}, {"time": 159808, "annotation": {"number": 11, "value": 62}, "group": "control_change"}, {"time": 159834, "annotation": {"number": 11, "value": 60}, "group": "control_change"}, {"time": 159844, "annotation": {"number": 11, "value": 80}, "group": "control_change"}, {"time": 159860, "annotation": {"number": 11, "value": 80}, "group": "control_change"}, {"time": 159890, "annotation": {"number": 11, "value": 81}, "group": "control_change"}, {"time": 159920, "annotation": {"number": 11, "value": 82}, "group": "control_change"}, {"time": 159949, "annotation": {"number": 11, "value": 83}, "group": "control_change"}, {"time": 159978, "annotation": {"number": 11, "value": 84}, "group": "control_change"}, {"time": 160008, "annotation": {"number": 11, "value": 85}, "group": "control_change"}, {"time": 160038, "annotation": {"number": 11, "value": 86}, "group": "control_change"}, {"time": 160068, "annotation": {"number": 11, "value": 87}, "group": "control_change"}, {"time": 160097, "annotation": {"number": 11, "value": 88}, "group": "control_change"}, {"time": 160127, "annotation": {"number": 11, "value": 89}, "group": "control_change"}, {"time": 160157, "annotation": {"number": 11, "value": 90}, "group": "control_change"}, {"time": 160186, "annotation": {"number": 11, "value": 92}, "group": "control_change"}, {"time": 161476, "annotation": {"number": 11, "value": 94}, "group": "control_change"}, {"time": 161511, "annotation": {"number": 11, "value": 94}, "group": "control_change"}, {"time": 161546, "annotation": {"number": 11, "value": 95}, "group": "control_change"}, {"time": 161582, "annotation": {"number": 11, "value": 96}, "group": "control_change"}, {"time": 161617, "annotation": {"number": 11, "value": 97}, "group": "control_change"}, {"time": 161653, "annotation": {"number": 11, "value": 98}, "group": "control_change"}, {"time": 161687, "annotation": {"number": 11, "value": 99}, "group": "control_change"}, {"time": 161722, "annotation": {"number": 11, "value": 100}, "group": "control_change"}, {"time": 161758, "annotation": {"number": 11, "value": 101}, "group": "control_change"}, {"time": 161793, "annotation": {"number": 11, "value": 102}, "group": "control_change"}, {"time": 161829, "annotation": {"number": 11, "value": 103}, "group": "control_change"}, {"time": 161864, "annotation": {"number": 11, "value": 104}, "group": "control_change"}, {"time": 161899, "annotation": {"number": 11, "value": 106}, "group": "control_change"}, {"time": 167072, "annotation": {"number": 11, "value": 102}, "group": "control_change"}, {"time": 167098, "annotation": {"number": 11, "value": 99}, "group": "control_change"}, {"time": 167123, "annotation": {"number": 11, "value": 97}, "group": "control_change"}, {"time": 167149, "annotation": {"number": 11, "value": 94}, "group": "control_change"}, {"time": 167175, "annotation": {"number": 11, "value": 92}, "group": "control_change"}, {"time": 167201, "annotation": {"number": 11, "value": 89}, "group": "control_change"}, {"time": 167227, "annotation": {"number": 11, "value": 87}, "group": "control_change"}, {"time": 167253, "annotation": {"number": 11, "value": 84}, "group": "control_change"}, {"time": 167279, "annotation": {"number": 11, "value": 82}, "group": "control_change"}, {"time": 167305, "annotation": {"number": 11, "value": 79}, "group": "control_change"}, {"time": 167331, "annotation": {"number": 11, "value": 77}, "group": "control_change"}, {"time": 167357, "annotation": {"number": 11, "value": 74}, "group": "control_change"}, {"time": 167383, "annotation": {"number": 11, "value": 72}, "group": "control_change"}, {"time": 167409, "annotation": {"number": 11, "value": 69}, "group": "control_change"}, {"time": 167435, "annotation": {"number": 11, "value": 67}, "group": "control_change"}, {"time": 167460, "annotation": {"number": 11, "value": 64}, "group": "control_change"}, {"time": 167486, "annotation": {"number": 11, "value": 62}, "group": "control_change"}, {"time": 167511, "annotation": {"number": 11, "value": 60}, "group": "control_change"}, {"time": 167521, "annotation": {"number": 11, "value": 80}, "group": "control_change"}, {"time": 167537, "annotation": {"number": 11, "value": 80}, "group": "control_change"}, {"time": 167567, "annotation": {"number": 11, "value": 81}, "group": "control_change"}, {"time": 167597, "annotation": {"number": 11, "value": 82}, "group": "control_change"}, {"time": 167627, "annotation": {"number": 11, "value": 83}, "group": "control_change"}, {"time": 167656, "annotation": {"number": 11, "value": 84}, "group": "control_change"}, {"time": 167686, "annotation": {"number": 11, "value": 85}, "group": "control_change"}, {"time": 167716, "annotation": {"number": 11, "value": 86}, "group": "control_change"}, {"time": 167746, "annotation": {"number": 11, "value": 87}, "group": "control_change"}, {"time": 167775, "annotation": {"number": 11, "value": 88}, "group": "control_change"}, {"time": 167805, "annotation": {"number": 11, "value": 89}, "group": "control_change"}, {"time": 167835, "annotation": {"number": 11, "value": 90}, "group": "control_change"}, {"time": 167864, "annotation": {"number": 11, "value": 92}, "group": "control_change"}, {"time": 169154, "annotation": {"number": 11, "value": 94}, "group": "control_change"}, {"time": 169188, "annotation": {"number": 11, "value": 94}, "group": "control_change"}, {"time": 169223, "annotation": {"number": 11, "value": 95}, "group": "control_change"}, {"time": 169259, "annotation": {"number": 11, "value": 96}, "group": "control_change"}, {"time": 169294, "annotation": {"number": 11, "value": 97}, "group": "control_change"}, {"time": 169330, "annotation": {"number": 11, "value": 98}, "group": "control_change"}, {"time": 169365, "annotation": {"number": 11, "value": 99}, "group": "control_change"}, {"time": 169400, "annotation": {"number": 11, "value": 100}, "group": "control_change"}, {"time": 169436, "annotation": {"number": 11, "value": 101}, "group": "control_change"}, {"time": 169471, "annotation": {"number": 11, "value": 102}, "group": "control_change"}, {"time": 169508, "annotation": {"number": 11, "value": 103}, "group": "control_change"}, {"time": 169543, "annotation": {"number": 11, "value": 104}, "group": "control_change"}, {"time": 169579, "annotation": {"number": 11, "value": 106}, "group": "control_change"}, {"time": 174750, "annotation": {"number": 11, "value": 102}, "group": "control_change"}, {"time": 174776, "annotation": {"number": 11, "value": 99}, "group": "control_change"}, {"time": 174801, "annotation": {"number": 11, "value": 97}, "group": "control_change"}, {"time": 174827, "annotation": {"number": 11, "value": 94}, "group": "control_change"}, {"time": 174853, "annotation": {"number": 11, "value": 92}, "group": "control_change"}, {"time": 174879, "annotation": {"number": 11, "value": 89}, "group": "control_change"}, {"time": 174905, "annotation": {"number": 11, "value": 87}, "group": "control_change"}, {"time": 174931, "annotation": {"number": 11, "value": 84}, "group": "control_change"}, {"time": 174956, "annotation": {"number": 11, "value": 82}, "group": "control_change"}, {"time": 174982, "annotation": {"number": 11, "value": 79}, "group": "control_change"}, {"time": 175008, "annotation": {"number": 11, "value": 77}, "group": "control_change"}, {"time": 175034, "annotation": {"number": 11, "value": 74}, "group": "control_change"}, {"time": 175060, "annotation": {"number": 11, "value": 72}, "group": "control_change"}, {"time": 175086, "annotation": {"number": 11, "value": 69}, "group": "control_change"}, {"time": 175112, "annotation": {"number": 11, "value": 67}, "group": "control_change"}, {"time": 175138, "annotation": {"number": 11, "value": 64}, "group": "control_change"}, {"time": 175164, "annotation": {"number": 11, "value": 62}, "group": "control_change"}, {"time": 175189, "annotation": {"number": 11, "value": 60}, "group": "control_change"}, {"time": 175199, "annotation": {"number": 11, "value": 80}, "group": "control_change"}, {"time": 175215, "annotation": {"number": 11, "value": 80}, "group": "control_change"}, {"time": 175245, "annotation": {"number": 11, "value": 81}, "group": "control_change"}, {"time": 175275, "annotation": {"number": 11, "value": 82}, "group": "control_change"}, {"time": 175305, "annotation": {"number": 11, "value": 83}, "group": "control_change"}, {"time": 175334, "annotation": {"number": 11, "value": 84}, "group": "control_change"}, {"time": 175364, "annotation": {"number": 11, "value": 85}, "group": "control_change"}, {"time": 175393, "annotation": {"number": 11, "value": 86}, "group": "control_change"}, {"time": 175423, "annotation": {"number": 11, "value": 87}, "group": "control_change"}, {"time": 175452, "annotation": {"number": 11, "value": 88}, "group": "control_change"}, {"time": 175482, "annotation": {"number": 11, "value": 89}, "group": "control_change"}, {"time": 175512, "annotation": {"number": 11, "value": 90}, "group": "control_change"}, {"time": 175541, "annotation": {"number": 11, "value": 92}, "group": "control_change"}, {"time": 176839, "annotation": {"number": 11, "value": 94}, "group": "control_change"}, {"time": 176874, "annotation": {"number": 11, "value": 94}, "group": "control_change"}, {"time": 176909, "annotation": {"number": 11, "value": 95}, "group": "control_change"}, {"time": 176945, "annotation": {"number": 11, "value": 96}, "group": "control_change"}, {"time": 176980, "annotation": {"number": 11, "value": 97}, "group": "control_change"}, {"time": 177015, "annotation": {"number": 11, "value": 98}, "group": "control_change"}, {"time": 177050, "annotation": {"number": 11, "value": 99}, "group": "control_change"}, {"time": 177085, "annotation": {"number": 11, "value": 100}, "group": "control_change"}, {"time": 177121, "annotation": {"number": 11, "value": 101}, "group": "control_change"}]}, {"program": 0, "is_drum": false, "name": "E.GUITAR(R)", "annotations": [{"time": 207, "annotation": {"number": 0, "value": 0}, "group": "control_change"}, {"time": 218, "annotation": {"number": 32, "value": 2}, "group": "control_change"}]}, {"program": 27, "is_drum": false, "name": "E.GUITAR(R)", "notes": [{"time": 46557, "pitch": 60, "duration": 142, "velocity": 100}, {"time": 46557, "pitch": 67, "duration": 142, "velocity": 105}, {"time": 46567, "pitch": 72, "duration": 132, "velocity": 110}, {"time": 46567, "pitch": 76, "duration": 132, "velocity": 116}, {"time": 46699, "pitch": 76, "duration": 60, "velocity": 100}, {"time": 46709, "pitch": 60, "duration": 40, "velocity": 85}, {"time": 46709, "pitch": 67, "duration": 60, "velocity": 90}, {"time": 46790, "pitch": 60, "duration": 71, "velocity": 95}, {"time": 46790, "pitch": 67, "duration": 71, "velocity": 100}, {"time": 46800, "pitch": 72, "duration": 61, "velocity": 105}, {"time": 46800, "pitch": 76, "duration": 61, "velocity": 110}, {"time": 46942, "pitch": 60, "duration": 51, "velocity": 117}, {"time": 46942, "pitch": 67, "duration": 51, "velocity": 117}, {"time": 46942, "pitch": 72, "duration": 61, "velocity": 109}, {"time": 46942, "pitch": 76, "duration": 61, "velocity": 122}, {"time": 47043, "pitch": 60, "duration": 50, "velocity": 117}, {"time": 47043, "pitch": 67, "duration": 50, "velocity": 117}, {"time": 47043, "pitch": 72, "duration": 60, "velocity": 109}, {"time": 47043, "pitch": 76, "duration": 60, "velocity": 122}, {"time": 47183, "pitch": 67, "duration": 40, "velocity": 85}, {"time": 47183, "pitch": 72, "duration": 40, "velocity": 106}, {"time": 47183, "pitch": 76, "duration": 40, "velocity": 98}, {"time": 47283, "pitch": 60, "duration": 129, "velocity": 112}, {"time": 47283, "pitch": 67, "duration": 129, "velocity": 104}, {"time": 47283, "pitch": 72, "duration": 119, "velocity": 95}, {"time": 47283, "pitch": 76, "duration": 119, "velocity": 91}, {"time": 47422, "pitch": 60, "duration": 10, "velocity": 120}, {"time": 47422, "pitch": 67, "duration": 10, "velocity": 115}, {"time": 47422, "pitch": 72, "duration": 20, "velocity": 110}, {"time": 47422, "pitch": 76, "duration": 20, "velocity": 105}, {"time": 47522, "pitch": 60, "duration": 120, "velocity": 90}, {"time": 47532, "pitch": 67, "duration": 110, "velocity": 95}, {"time": 47542, "pitch": 72, "duration": 100, "velocity": 100}, {"time": 47552, "pitch": 76, "duration": 90, "velocity": 105}, {"time": 47762, "pitch": 60, "duration": 79, "velocity": 97}, {"time": 47762, "pitch": 67, "duration": 79, "velocity": 105}, {"time": 47762, "pitch": 72, "duration": 79, "velocity": 107}, {"time": 47762, "pitch": 76, "duration": 79, "velocity": 112}, {"time": 47901, "pitch": 60, "duration": 10, "velocity": 100}, {"time": 47901, "pitch": 67, "duration": 10, "velocity": 95}, {"time": 47901, "pitch": 72, "duration": 20, "velocity": 90}, {"time": 47901, "pitch": 76, "duration": 20, "velocity": 85}, {"time": 48001, "pitch": 60, "duration": 40, "velocity": 86}, {"time": 48001, "pitch": 67, "duration": 40, "velocity": 92}, {"time": 48011, "pitch": 72, "duration": 30, "velocity": 111}, {"time": 48011, "pitch": 76, "duration": 30, "velocity": 116}, {"time": 48141, "pitch": 72, "duration": 69, "velocity": 98}, {"time": 48141, "pitch": 76, "duration": 69, "velocity": 103}, {"time": 48151, "pitch": 60, "duration": 59, "velocity": 95}, {"time": 48151, "pitch": 67, "duration": 59, "velocity": 89}, {"time": 48240, "pitch": 60, "duration": 120, "velocity": 102}, {"time": 48240, "pitch": 67, "duration": 120, "velocity": 98}, {"time": 48250, "pitch": 72, "duration": 110, "velocity": 91}, {"time": 48250, "pitch": 76, "duration": 110, "velocity": 87}, {"time": 48380, "pitch": 60, "duration": 50, "velocity": 112}, {"time": 48380, "pitch": 67, "duration": 50, "velocity": 108}, {"time": 48380, "pitch": 72, "duration": 60, "velocity": 102}, {"time": 48380, "pitch": 76, "duration": 60, "velocity": 96}, {"time": 48480, "pitch": 64, "duration": 140, "velocity": 100}, {"time": 48480, "pitch": 67, "duration": 140, "velocity": 105}, {"time": 48490, "pitch": 71, "duration": 130, "velocity": 110}, {"time": 48490, "pitch": 76, "duration": 130, "velocity": 116}, {"time": 48620, "pitch": 76, "duration": 59, "velocity": 100}, {"time": 48630, "pitch": 64, "duration": 39, "velocity": 85}, {"time": 48630, "pitch": 67, "duration": 59, "velocity": 90}, {"time": 48709, "pitch": 64, "duration": 70, "velocity": 95}, {"time": 48709, "pitch": 67, "duration": 70, "velocity": 100}, {"time": 48719, "pitch": 71, "duration": 60, "velocity": 105}, {"time": 48719, "pitch": 76, "duration": 60, "velocity": 110}, {"time": 48859, "pitch": 64, "duration": 200, "velocity": 117}, {"time": 48859, "pitch": 67, "duration": 209, "velocity": 117}, {"time": 48859, "pitch": 71, "duration": 209, "velocity": 109}, {"time": 48859, "pitch": 76, "duration": 219, "velocity": 122}, {"time": 49098, "pitch": 67, "duration": 40, "velocity": 85}, {"time": 49098, "pitch": 71, "duration": 40, "velocity": 106}, {"time": 49098, "pitch": 76, "duration": 40, "velocity": 98}, {"time": 49198, "pitch": 64, "duration": 130, "velocity": 112}, {"time": 49198, "pitch": 67, "duration": 130, "velocity": 104}, {"time": 49198, "pitch": 71, "duration": 120, "velocity": 95}, {"time": 49198, "pitch": 76, "duration": 120, "velocity": 91}, {"time": 49338, "pitch": 64, "duration": 10, "velocity": 120}, {"time": 49338, "pitch": 67, "duration": 10, "velocity": 115}, {"time": 49338, "pitch": 71, "duration": 20, "velocity": 110}, {"time": 49338, "pitch": 76, "duration": 20, "velocity": 105}, {"time": 49438, "pitch": 64, "duration": 119, "velocity": 90}, {"time": 49448, "pitch": 67, "duration": 109, "velocity": 95}, {"time": 49458, "pitch": 71, "duration": 99, "velocity": 100}, {"time": 49468, "pitch": 76, "duration": 89, "velocity": 105}, {"time": 49677, "pitch": 64, "duration": 80, "velocity": 97}, {"time": 49677, "pitch": 67, "duration": 80, "velocity": 105}, {"time": 49677, "pitch": 71, "duration": 80, "velocity": 107}, {"time": 49677, "pitch": 76, "duration": 80, "velocity": 112}, {"time": 49817, "pitch": 64, "duration": 10, "velocity": 100}, {"time": 49817, "pitch": 67, "duration": 10, "velocity": 95}, {"time": 49817, "pitch": 71, "duration": 20, "velocity": 90}, {"time": 49817, "pitch": 76, "duration": 20, "velocity": 85}, {"time": 49917, "pitch": 64, "duration": 40, "velocity": 86}, {"time": 49917, "pitch": 67, "duration": 40, "velocity": 92}, {"time": 49927, "pitch": 71, "duration": 30, "velocity": 111}, {"time": 49927, "pitch": 76, "duration": 30, "velocity": 116}, {"time": 50058, "pitch": 71, "duration": 71, "velocity": 98}, {"time": 50058, "pitch": 76, "duration": 71, "velocity": 103}, {"time": 50069, "pitch": 64, "duration": 60, "velocity": 95}, {"time": 50069, "pitch": 67, "duration": 60, "velocity": 89}, {"time": 50160, "pitch": 64, "duration": 122, "velocity": 102}, {"time": 50160, "pitch": 67, "duration": 122, "velocity": 98}, {"time": 50170, "pitch": 71, "duration": 112, "velocity": 91}, {"time": 50170, "pitch": 76, "duration": 112, "velocity": 87}, {"time": 50302, "pitch": 64, "duration": 50, "velocity": 112}, {"time": 50302, "pitch": 67, "duration": 50, "velocity": 108}, {"time": 50302, "pitch": 71, "duration": 61, "velocity": 102}, {"time": 50302, "pitch": 76, "duration": 61, "velocity": 96}, {"time": 50403, "pitch": 64, "duration": 140, "velocity": 100}, {"time": 50403, "pitch": 69, "duration": 140, "velocity": 105}, {"time": 50413, "pitch": 72, "duration": 130, "velocity": 110}, {"time": 50413, "pitch": 76, "duration": 130, "velocity": 116}, {"time": 50543, "pitch": 76, "duration": 60, "velocity": 100}, {"time": 50553, "pitch": 64, "duration": 40, "velocity": 85}, {"time": 50553, "pitch": 69, "duration": 60, "velocity": 90}, {"time": 50633, "pitch": 64, "duration": 69, "velocity": 95}, {"time": 50633, "pitch": 69, "duration": 69, "velocity": 100}, {"time": 50643, "pitch": 72, "duration": 59, "velocity": 105}, {"time": 50643, "pitch": 76, "duration": 59, "velocity": 110}, {"time": 50782, "pitch": 64, "duration": 200, "velocity": 117}, {"time": 50782, "pitch": 69, "duration": 210, "velocity": 117}, {"time": 50782, "pitch": 72, "duration": 210, "velocity": 109}, {"time": 50782, "pitch": 76, "duration": 220, "velocity": 122}, {"time": 51022, "pitch": 69, "duration": 40, "velocity": 85}, {"time": 51022, "pitch": 72, "duration": 40, "velocity": 106}, {"time": 51022, "pitch": 76, "duration": 40, "velocity": 98}, {"time": 51121, "pitch": 64, "duration": 130, "velocity": 112}, {"time": 51121, "pitch": 69, "duration": 130, "velocity": 104}, {"time": 51121, "pitch": 72, "duration": 120, "velocity": 95}, {"time": 51121, "pitch": 76, "duration": 120, "velocity": 91}, {"time": 51261, "pitch": 64, "duration": 10, "velocity": 120}, {"time": 51261, "pitch": 69, "duration": 10, "velocity": 115}, {"time": 51261, "pitch": 72, "duration": 20, "velocity": 110}, {"time": 51261, "pitch": 76, "duration": 20, "velocity": 105}, {"time": 51361, "pitch": 64, "duration": 120, "velocity": 90}, {"time": 51371, "pitch": 69, "duration": 110, "velocity": 95}, {"time": 51381, "pitch": 72, "duration": 100, "velocity": 100}, {"time": 51391, "pitch": 76, "duration": 90, "velocity": 105}, {"time": 51600, "pitch": 64, "duration": 80, "velocity": 97}, {"time": 51600, "pitch": 69, "duration": 80, "velocity": 105}, {"time": 51600, "pitch": 72, "duration": 80, "velocity": 107}, {"time": 51600, "pitch": 76, "duration": 80, "velocity": 112}, {"time": 51740, "pitch": 64, "duration": 10, "velocity": 100}, {"time": 51740, "pitch": 69, "duration": 10, "velocity": 95}, {"time": 51740, "pitch": 72, "duration": 20, "velocity": 90}, {"time": 51740, "pitch": 76, "duration": 20, "velocity": 85}, {"time": 51840, "pitch": 64, "duration": 40, "velocity": 86}, {"time": 51840, "pitch": 69, "duration": 40, "velocity": 92}, {"time": 51850, "pitch": 72, "duration": 30, "velocity": 111}, {"time": 51850, "pitch": 76, "duration": 30, "velocity": 116}, {"time": 51979, "pitch": 72, "duration": 70, "velocity": 98}, {"time": 51979, "pitch": 76, "duration": 70, "velocity": 103}, {"time": 51989, "pitch": 64, "duration": 60, "velocity": 95}, {"time": 51989, "pitch": 69, "duration": 60, "velocity": 89}, {"time": 52079, "pitch": 64, "duration": 120, "velocity": 102}, {"time": 52079, "pitch": 69, "duration": 120, "velocity": 98}, {"time": 52089, "pitch": 72, "duration": 110, "velocity": 91}, {"time": 52089, "pitch": 76, "duration": 110, "velocity": 87}, {"time": 52219, "pitch": 64, "duration": 50, "velocity": 112}, {"time": 52219, "pitch": 69, "duration": 50, "velocity": 108}, {"time": 52219, "pitch": 72, "duration": 60, "velocity": 102}, {"time": 52219, "pitch": 76, "duration": 60, "velocity": 96}, {"time": 52319, "pitch": 65, "duration": 139, "velocity": 100}, {"time": 52319, "pitch": 69, "duration": 139, "velocity": 105}, {"time": 52329, "pitch": 72, "duration": 129, "velocity": 110}, {"time": 52329, "pitch": 77, "duration": 129, "velocity": 116}, {"time": 52458, "pitch": 77, "duration": 60, "velocity": 100}, {"time": 52468, "pitch": 65, "duration": 40, "velocity": 85}, {"time": 52468, "pitch": 69, "duration": 60, "velocity": 90}, {"time": 52548, "pitch": 65, "duration": 70, "velocity": 95}, {"time": 52548, "pitch": 69, "duration": 70, "velocity": 100}, {"time": 52558, "pitch": 72, "duration": 60, "velocity": 105}, {"time": 52558, "pitch": 77, "duration": 60, "velocity": 110}, {"time": 52698, "pitch": 65, "duration": 199, "velocity": 117}, {"time": 52698, "pitch": 69, "duration": 209, "velocity": 117}, {"time": 52698, "pitch": 72, "duration": 209, "velocity": 109}, {"time": 52698, "pitch": 77, "duration": 219, "velocity": 122}, {"time": 52937, "pitch": 69, "duration": 40, "velocity": 85}, {"time": 52937, "pitch": 72, "duration": 40, "velocity": 106}, {"time": 52937, "pitch": 77, "duration": 40, "velocity": 98}, {"time": 53037, "pitch": 65, "duration": 130, "velocity": 112}, {"time": 53037, "pitch": 69, "duration": 130, "velocity": 104}, {"time": 53037, "pitch": 72, "duration": 120, "velocity": 95}, {"time": 53037, "pitch": 77, "duration": 120, "velocity": 91}, {"time": 53177, "pitch": 65, "duration": 10, "velocity": 120}, {"time": 53177, "pitch": 69, "duration": 10, "velocity": 115}, {"time": 53177, "pitch": 72, "duration": 20, "velocity": 110}, {"time": 53177, "pitch": 77, "duration": 20, "velocity": 105}, {"time": 53276, "pitch": 62, "duration": 122, "velocity": 90}, {"time": 53287, "pitch": 69, "duration": 111, "velocity": 95}, {"time": 53297, "pitch": 72, "duration": 101, "velocity": 100}, {"time": 53307, "pitch": 77, "duration": 91, "velocity": 105}, {"time": 53520, "pitch": 62, "duration": 81, "velocity": 97}, {"time": 53520, "pitch": 69, "duration": 81, "velocity": 105}, {"time": 53520, "pitch": 72, "duration": 81, "velocity": 107}, {"time": 53520, "pitch": 77, "duration": 81, "velocity": 112}, {"time": 53662, "pitch": 62, "duration": 10, "velocity": 100}, {"time": 53662, "pitch": 69, "duration": 10, "velocity": 95}, {"time": 53662, "pitch": 72, "duration": 20, "velocity": 90}, {"time": 53662, "pitch": 77, "duration": 20, "velocity": 85}, {"time": 53763, "pitch": 67, "duration": 40, "velocity": 86}, {"time": 53763, "pitch": 71, "duration": 40, "velocity": 92}, {"time": 53773, "pitch": 74, "duration": 30, "velocity": 111}, {"time": 53773, "pitch": 79, "duration": 30, "velocity": 116}, {"time": 53903, "pitch": 74, "duration": 70, "velocity": 98}, {"time": 53903, "pitch": 79, "duration": 70, "velocity": 103}, {"time": 53913, "pitch": 67, "duration": 60, "velocity": 95}, {"time": 53913, "pitch": 71, "duration": 60, "velocity": 89}, {"time": 54002, "pitch": 67, "duration": 120, "velocity": 102}, {"time": 54002, "pitch": 71, "duration": 120, "velocity": 98}, {"time": 54012, "pitch": 74, "duration": 110, "velocity": 91}, {"time": 54012, "pitch": 79, "duration": 110, "velocity": 87}, {"time": 54142, "pitch": 67, "duration": 50, "velocity": 112}, {"time": 54142, "pitch": 71, "duration": 50, "velocity": 108}, {"time": 54142, "pitch": 74, "duration": 60, "velocity": 102}, {"time": 54142, "pitch": 79, "duration": 60, "velocity": 96}, {"time": 54242, "pitch": 60, "duration": 140, "velocity": 100}, {"time": 54242, "pitch": 67, "duration": 140, "velocity": 105}, {"time": 54252, "pitch": 72, "duration": 130, "velocity": 110}, {"time": 54252, "pitch": 76, "duration": 130, "velocity": 116}, {"time": 54382, "pitch": 76, "duration": 59, "velocity": 100}, {"time": 54392, "pitch": 60, "duration": 39, "velocity": 85}, {"time": 54392, "pitch": 67, "duration": 59, "velocity": 90}, {"time": 54471, "pitch": 60, "duration": 70, "velocity": 95}, {"time": 54471, "pitch": 67, "duration": 70, "velocity": 100}, {"time": 54481, "pitch": 72, "duration": 60, "velocity": 105}, {"time": 54481, "pitch": 76, "duration": 60, "velocity": 110}, {"time": 54621, "pitch": 60, "duration": 200, "velocity": 117}, {"time": 54621, "pitch": 67, "duration": 210, "velocity": 117}, {"time": 54621, "pitch": 72, "duration": 210, "velocity": 109}, {"time": 54621, "pitch": 76, "duration": 220, "velocity": 122}, {"time": 54860, "pitch": 67, "duration": 40, "velocity": 85}, {"time": 54860, "pitch": 72, "duration": 40, "velocity": 106}, {"time": 54860, "pitch": 76, "duration": 40, "velocity": 98}, {"time": 54960, "pitch": 60, "duration": 130, "velocity": 112}, {"time": 54960, "pitch": 67, "duration": 130, "velocity": 104}, {"time": 54960, "pitch": 72, "duration": 120, "velocity": 95}, {"time": 54960, "pitch": 76, "duration": 120, "velocity": 91}, {"time": 55100, "pitch": 60, "duration": 10, "velocity": 120}, {"time": 55100, "pitch": 67, "duration": 10, "velocity": 115}, {"time": 55100, "pitch": 72, "duration": 20, "velocity": 110}, {"time": 55100, "pitch": 76, "duration": 20, "velocity": 105}, {"time": 55200, "pitch": 60, "duration": 119, "velocity": 90}, {"time": 55210, "pitch": 67, "duration": 109, "velocity": 95}, {"time": 55220, "pitch": 72, "duration": 99, "velocity": 100}, {"time": 55230, "pitch": 76, "duration": 89, "velocity": 105}, {"time": 55439, "pitch": 60, "duration": 80, "velocity": 97}, {"time": 55439, "pitch": 67, "duration": 80, "velocity": 105}, {"time": 55439, "pitch": 72, "duration": 80, "velocity": 107}, {"time": 55439, "pitch": 76, "duration": 80, "velocity": 112}, {"time": 55579, "pitch": 60, "duration": 10, "velocity": 100}, {"time": 55579, "pitch": 67, "duration": 10, "velocity": 95}, {"time": 55579, "pitch": 72, "duration": 20, "velocity": 90}, {"time": 55579, "pitch": 76, "duration": 20, "velocity": 85}, {"time": 55679, "pitch": 60, "duration": 39, "velocity": 86}, {"time": 55679, "pitch": 67, "duration": 39, "velocity": 92}, {"time": 55689, "pitch": 72, "duration": 29, "velocity": 111}, {"time": 55689, "pitch": 76, "duration": 29, "velocity": 116}, {"time": 55818, "pitch": 72, "duration": 70, "velocity": 98}, {"time": 55818, "pitch": 76, "duration": 70, "velocity": 103}, {"time": 55828, "pitch": 60, "duration": 60, "velocity": 95}, {"time": 55828, "pitch": 67, "duration": 60, "velocity": 89}, {"time": 55918, "pitch": 60, "duration": 120, "velocity": 102}, {"time": 55918, "pitch": 67, "duration": 120, "velocity": 98}, {"time": 55928, "pitch": 72, "duration": 110, "velocity": 91}, {"time": 55928, "pitch": 76, "duration": 110, "velocity": 87}, {"time": 56058, "pitch": 60, "duration": 50, "velocity": 112}, {"time": 56058, "pitch": 67, "duration": 50, "velocity": 108}, {"time": 56058, "pitch": 72, "duration": 60, "velocity": 102}, {"time": 56058, "pitch": 76, "duration": 60, "velocity": 96}, {"time": 56157, "pitch": 64, "duration": 140, "velocity": 100}, {"time": 56157, "pitch": 67, "duration": 140, "velocity": 105}, {"time": 56167, "pitch": 71, "duration": 130, "velocity": 110}, {"time": 56167, "pitch": 76, "duration": 130, "velocity": 116}, {"time": 56297, "pitch": 76, "duration": 60, "velocity": 100}, {"time": 56307, "pitch": 64, "duration": 40, "velocity": 85}, {"time": 56307, "pitch": 67, "duration": 60, "velocity": 90}, {"time": 56387, "pitch": 64, "duration": 70, "velocity": 95}, {"time": 56387, "pitch": 67, "duration": 70, "velocity": 100}, {"time": 56397, "pitch": 71, "duration": 60, "velocity": 105}, {"time": 56397, "pitch": 76, "duration": 60, "velocity": 110}, {"time": 56537, "pitch": 64, "duration": 201, "velocity": 117}, {"time": 56537, "pitch": 67, "duration": 211, "velocity": 117}, {"time": 56537, "pitch": 71, "duration": 211, "velocity": 109}, {"time": 56537, "pitch": 76, "duration": 221, "velocity": 122}, {"time": 56778, "pitch": 67, "duration": 41, "velocity": 85}, {"time": 56778, "pitch": 71, "duration": 41, "velocity": 106}, {"time": 56778, "pitch": 76, "duration": 41, "velocity": 98}, {"time": 56880, "pitch": 64, "duration": 131, "velocity": 117}, {"time": 56880, "pitch": 69, "duration": 213, "velocity": 117}, {"time": 56880, "pitch": 72, "duration": 213, "velocity": 109}, {"time": 56880, "pitch": 76, "duration": 223, "velocity": 122}, {"time": 57123, "pitch": 64, "duration": 229, "velocity": 90}, {"time": 57133, "pitch": 69, "duration": 219, "velocity": 95}, {"time": 57143, "pitch": 72, "duration": 209, "velocity": 100}, {"time": 57153, "pitch": 76, "duration": 199, "velocity": 105}, {"time": 57362, "pitch": 64, "duration": 80, "velocity": 97}, {"time": 57362, "pitch": 69, "duration": 80, "velocity": 105}, {"time": 57362, "pitch": 72, "duration": 80, "velocity": 107}, {"time": 57362, "pitch": 76, "duration": 80, "velocity": 112}, {"time": 57602, "pitch": 64, "duration": 40, "velocity": 86}, {"time": 57602, "pitch": 69, "duration": 40, "velocity": 92}, {"time": 57612, "pitch": 72, "duration": 30, "velocity": 111}, {"time": 57612, "pitch": 76, "duration": 30, "velocity": 116}, {"time": 57742, "pitch": 72, "duration": 69, "velocity": 98}, {"time": 57742, "pitch": 76, "duration": 69, "velocity": 103}, {"time": 57751, "pitch": 64, "duration": 60, "velocity": 95}, {"time": 57751, "pitch": 69, "duration": 60, "velocity": 89}, {"time": 57841, "pitch": 64, "duration": 120, "velocity": 102}, {"time": 57841, "pitch": 69, "duration": 120, "velocity": 98}, {"time": 57851, "pitch": 72, "duration": 110, "velocity": 91}, {"time": 57851, "pitch": 76, "duration": 110, "velocity": 87}, {"time": 57981, "pitch": 64, "duration": 50, "velocity": 112}, {"time": 57981, "pitch": 69, "duration": 50, "velocity": 108}, {"time": 57981, "pitch": 72, "duration": 60, "velocity": 102}, {"time": 57981, "pitch": 76, "duration": 60, "velocity": 96}, {"time": 58081, "pitch": 62, "duration": 139, "velocity": 100}, {"time": 58081, "pitch": 69, "duration": 139, "velocity": 105}, {"time": 58091, "pitch": 72, "duration": 129, "velocity": 110}, {"time": 58091, "pitch": 77, "duration": 129, "velocity": 116}, {"time": 58220, "pitch": 77, "duration": 60, "velocity": 100}, {"time": 58230, "pitch": 62, "duration": 40, "velocity": 85}, {"time": 58230, "pitch": 69, "duration": 60, "velocity": 90}, {"time": 58310, "pitch": 62, "duration": 70, "velocity": 95}, {"time": 58310, "pitch": 69, "duration": 70, "velocity": 100}, {"time": 58320, "pitch": 72, "duration": 60, "velocity": 105}, {"time": 58320, "pitch": 77, "duration": 60, "velocity": 110}, {"time": 58460, "pitch": 62, "duration": 199, "velocity": 117}, {"time": 58460, "pitch": 69, "duration": 209, "velocity": 117}, {"time": 58460, "pitch": 72, "duration": 209, "velocity": 109}, {"time": 58460, "pitch": 77, "duration": 219, "velocity": 122}, {"time": 58699, "pitch": 69, "duration": 40, "velocity": 85}, {"time": 58699, "pitch": 72, "duration": 40, "velocity": 106}, {"time": 58699, "pitch": 77, "duration": 40, "velocity": 98}, {"time": 58799, "pitch": 62, "duration": 130, "velocity": 112}, {"time": 58799, "pitch": 69, "duration": 130, "velocity": 104}, {"time": 58799, "pitch": 72, "duration": 120, "velocity": 95}, {"time": 58799, "pitch": 77, "duration": 120, "velocity": 91}, {"time": 58939, "pitch": 62, "duration": 10, "velocity": 120}, {"time": 58939, "pitch": 69, "duration": 10, "velocity": 115}, {"time": 58939, "pitch": 72, "duration": 20, "velocity": 110}, {"time": 58939, "pitch": 77, "duration": 20, "velocity": 105}, {"time": 59038, "pitch": 62, "duration": 120, "velocity": 90}, {"time": 59048, "pitch": 69, "duration": 110, "velocity": 95}, {"time": 59058, "pitch": 72, "duration": 100, "velocity": 100}, {"time": 59068, "pitch": 77, "duration": 90, "velocity": 105}, {"time": 59278, "pitch": 62, "duration": 80, "velocity": 97}, {"time": 59278, "pitch": 69, "duration": 80, "velocity": 105}, {"time": 59278, "pitch": 72, "duration": 80, "velocity": 107}, {"time": 59278, "pitch": 77, "duration": 80, "velocity": 112}, {"time": 59418, "pitch": 62, "duration": 10, "velocity": 100}, {"time": 59418, "pitch": 69, "duration": 10, "velocity": 95}, {"time": 59418, "pitch": 72, "duration": 20, "velocity": 90}, {"time": 59418, "pitch": 77, "duration": 20, "velocity": 85}, {"time": 59517, "pitch": 62, "duration": 40, "velocity": 86}, {"time": 59517, "pitch": 69, "duration": 40, "velocity": 92}, {"time": 59527, "pitch": 72, "duration": 30, "velocity": 111}, {"time": 59527, "pitch": 77, "duration": 30, "velocity": 116}, {"time": 59657, "pitch": 72, "duration": 70, "velocity": 98}, {"time": 59657, "pitch": 77, "duration": 70, "velocity": 103}, {"time": 59667, "pitch": 62, "duration": 60, "velocity": 95}, {"time": 59667, "pitch": 69, "duration": 60, "velocity": 89}, {"time": 59757, "pitch": 62, "duration": 120, "velocity": 102}, {"time": 59757, "pitch": 69, "duration": 120, "velocity": 98}, {"time": 59767, "pitch": 72, "duration": 110, "velocity": 91}, {"time": 59767, "pitch": 77, "duration": 110, "velocity": 87}, {"time": 59896, "pitch": 62, "duration": 50, "velocity": 112}, {"time": 59896, "pitch": 69, "duration": 50, "velocity": 108}, {"time": 59896, "pitch": 72, "duration": 60, "velocity": 102}, {"time": 59896, "pitch": 77, "duration": 60, "velocity": 96}, {"time": 59996, "pitch": 65, "duration": 142, "velocity": 100}, {"time": 59996, "pitch": 68, "duration": 142, "velocity": 105}, {"time": 60006, "pitch": 72, "duration": 132, "velocity": 110}, {"time": 60006, "pitch": 77, "duration": 132, "velocity": 116}, {"time": 60138, "pitch": 77, "duration": 61, "velocity": 100}, {"time": 60148, "pitch": 65, "duration": 41, "velocity": 85}, {"time": 60148, "pitch": 68, "duration": 61, "velocity": 90}, {"time": 60229, "pitch": 65, "duration": 71, "velocity": 95}, {"time": 60229, "pitch": 68, "duration": 71, "velocity": 100}, {"time": 60240, "pitch": 72, "duration": 60, "velocity": 105}, {"time": 60240, "pitch": 77, "duration": 60, "velocity": 110}, {"time": 60382, "pitch": 65, "duration": 201, "velocity": 117}, {"time": 60382, "pitch": 68, "duration": 211, "velocity": 117}, {"time": 60382, "pitch": 72, "duration": 211, "velocity": 109}, {"time": 60382, "pitch": 77, "duration": 221, "velocity": 122}, {"time": 60623, "pitch": 68, "duration": 39, "velocity": 85}, {"time": 60623, "pitch": 72, "duration": 39, "velocity": 106}, {"time": 60623, "pitch": 77, "duration": 39, "velocity": 98}, {"time": 60722, "pitch": 65, "duration": 130, "velocity": 112}, {"time": 60722, "pitch": 68, "duration": 130, "velocity": 104}, {"time": 60722, "pitch": 72, "duration": 120, "velocity": 95}, {"time": 60722, "pitch": 77, "duration": 120, "velocity": 91}, {"time": 60862, "pitch": 65, "duration": 10, "velocity": 120}, {"time": 60862, "pitch": 68, "duration": 10, "velocity": 115}, {"time": 60862, "pitch": 72, "duration": 20, "velocity": 110}, {"time": 60862, "pitch": 77, "duration": 20, "velocity": 105}, {"time": 60962, "pitch": 65, "duration": 119, "velocity": 90}, {"time": 60972, "pitch": 68, "duration": 109, "velocity": 95}, {"time": 60982, "pitch": 72, "duration": 99, "velocity": 100}, {"time": 60992, "pitch": 77, "duration": 89, "velocity": 105}, {"time": 61201, "pitch": 65, "duration": 80, "velocity": 97}, {"time": 61201, "pitch": 68, "duration": 80, "velocity": 105}, {"time": 61201, "pitch": 72, "duration": 80, "velocity": 107}, {"time": 61201, "pitch": 77, "duration": 80, "velocity": 112}, {"time": 61341, "pitch": 65, "duration": 10, "velocity": 100}, {"time": 61341, "pitch": 68, "duration": 10, "velocity": 95}, {"time": 61341, "pitch": 72, "duration": 20, "velocity": 90}, {"time": 61341, "pitch": 77, "duration": 20, "velocity": 85}, {"time": 61441, "pitch": 67, "duration": 40, "velocity": 86}, {"time": 61441, "pitch": 71, "duration": 40, "velocity": 92}, {"time": 61451, "pitch": 74, "duration": 30, "velocity": 111}, {"time": 61451, "pitch": 79, "duration": 30, "velocity": 116}, {"time": 61580, "pitch": 74, "duration": 70, "velocity": 98}, {"time": 61580, "pitch": 79, "duration": 70, "velocity": 103}, {"time": 61590, "pitch": 67, "duration": 60, "velocity": 95}, {"time": 61590, "pitch": 71, "duration": 60, "velocity": 89}, {"time": 61680, "pitch": 67, "duration": 120, "velocity": 102}, {"time": 61680, "pitch": 71, "duration": 120, "velocity": 98}, {"time": 61690, "pitch": 74, "duration": 110, "velocity": 91}, {"time": 61690, "pitch": 79, "duration": 110, "velocity": 87}, {"time": 61820, "pitch": 67, "duration": 50, "velocity": 112}, {"time": 61820, "pitch": 71, "duration": 50, "velocity": 108}, {"time": 61820, "pitch": 74, "duration": 60, "velocity": 102}, {"time": 61820, "pitch": 79, "duration": 60, "velocity": 96}, {"time": 100323, "pitch": 60, "duration": 140, "velocity": 100}, {"time": 100323, "pitch": 67, "duration": 140, "velocity": 105}, {"time": 100333, "pitch": 72, "duration": 130, "velocity": 110}, {"time": 100333, "pitch": 76, "duration": 130, "velocity": 116}, {"time": 100463, "pitch": 76, "duration": 60, "velocity": 100}, {"time": 100473, "pitch": 60, "duration": 40, "velocity": 85}, {"time": 100473, "pitch": 67, "duration": 60, "velocity": 90}, {"time": 100552, "pitch": 60, "duration": 70, "velocity": 95}, {"time": 100552, "pitch": 67, "duration": 70, "velocity": 100}, {"time": 100562, "pitch": 72, "duration": 60, "velocity": 105}, {"time": 100562, "pitch": 76, "duration": 60, "velocity": 110}, {"time": 100702, "pitch": 60, "duration": 50, "velocity": 117}, {"time": 100702, "pitch": 67, "duration": 50, "velocity": 117}, {"time": 100702, "pitch": 72, "duration": 60, "velocity": 109}, {"time": 100702, "pitch": 76, "duration": 60, "velocity": 122}, {"time": 100802, "pitch": 60, "duration": 50, "velocity": 117}, {"time": 100802, "pitch": 67, "duration": 50, "velocity": 117}, {"time": 100802, "pitch": 72, "duration": 60, "velocity": 109}, {"time": 100802, "pitch": 76, "duration": 60, "velocity": 122}, {"time": 100942, "pitch": 67, "duration": 39, "velocity": 85}, {"time": 100942, "pitch": 72, "duration": 39, "velocity": 106}, {"time": 100942, "pitch": 76, "duration": 39, "velocity": 98}, {"time": 101041, "pitch": 60, "duration": 130, "velocity": 112}, {"time": 101041, "pitch": 67, "duration": 130, "velocity": 104}, {"time": 101041, "pitch": 72, "duration": 120, "velocity": 95}, {"time": 101041, "pitch": 76, "duration": 120, "velocity": 91}, {"time": 101181, "pitch": 60, "duration": 10, "velocity": 120}, {"time": 101181, "pitch": 67, "duration": 10, "velocity": 115}, {"time": 101181, "pitch": 72, "duration": 20, "velocity": 110}, {"time": 101181, "pitch": 76, "duration": 20, "velocity": 105}, {"time": 101281, "pitch": 60, "duration": 119, "velocity": 90}, {"time": 101291, "pitch": 67, "duration": 109, "velocity": 95}, {"time": 101301, "pitch": 72, "duration": 99, "velocity": 100}, {"time": 101311, "pitch": 76, "duration": 89, "velocity": 105}, {"time": 101520, "pitch": 60, "duration": 80, "velocity": 97}, {"time": 101520, "pitch": 67, "duration": 80, "velocity": 105}, {"time": 101520, "pitch": 72, "duration": 80, "velocity": 107}, {"time": 101520, "pitch": 76, "duration": 80, "velocity": 112}, {"time": 101660, "pitch": 60, "duration": 10, "velocity": 100}, {"time": 101660, "pitch": 67, "duration": 10, "velocity": 95}, {"time": 101660, "pitch": 72, "duration": 20, "velocity": 90}, {"time": 101660, "pitch": 76, "duration": 20, "velocity": 85}, {"time": 101760, "pitch": 60, "duration": 40, "velocity": 86}, {"time": 101760, "pitch": 67, "duration": 40, "velocity": 92}, {"time": 101770, "pitch": 72, "duration": 30, "velocity": 111}, {"time": 101770, "pitch": 76, "duration": 30, "velocity": 116}, {"time": 101899, "pitch": 72, "duration": 70, "velocity": 98}, {"time": 101899, "pitch": 76, "duration": 70, "velocity": 103}, {"time": 101909, "pitch": 60, "duration": 60, "velocity": 95}, {"time": 101909, "pitch": 67, "duration": 60, "velocity": 89}, {"time": 101999, "pitch": 60, "duration": 120, "velocity": 102}, {"time": 101999, "pitch": 67, "duration": 120, "velocity": 98}, {"time": 102009, "pitch": 72, "duration": 110, "velocity": 91}, {"time": 102009, "pitch": 76, "duration": 110, "velocity": 87}, {"time": 102139, "pitch": 60, "duration": 50, "velocity": 112}, {"time": 102139, "pitch": 67, "duration": 50, "velocity": 108}, {"time": 102139, "pitch": 72, "duration": 60, "velocity": 102}, {"time": 102139, "pitch": 76, "duration": 60, "velocity": 96}, {"time": 102239, "pitch": 64, "duration": 139, "velocity": 100}, {"time": 102239, "pitch": 67, "duration": 139, "velocity": 105}, {"time": 102249, "pitch": 71, "duration": 129, "velocity": 110}, {"time": 102249, "pitch": 76, "duration": 129, "velocity": 116}, {"time": 102378, "pitch": 76, "duration": 60, "velocity": 100}, {"time": 102388, "pitch": 64, "duration": 40, "velocity": 85}, {"time": 102388, "pitch": 67, "duration": 60, "velocity": 90}, {"time": 102468, "pitch": 64, "duration": 70, "velocity": 95}, {"time": 102468, "pitch": 67, "duration": 70, "velocity": 100}, {"time": 102478, "pitch": 71, "duration": 60, "velocity": 105}, {"time": 102478, "pitch": 76, "duration": 60, "velocity": 110}, {"time": 102618, "pitch": 64, "duration": 199, "velocity": 117}, {"time": 102618, "pitch": 67, "duration": 209, "velocity": 117}, {"time": 102618, "pitch": 71, "duration": 209, "velocity": 109}, {"time": 102618, "pitch": 76, "duration": 219, "velocity": 122}, {"time": 102857, "pitch": 67, "duration": 40, "velocity": 85}, {"time": 102857, "pitch": 71, "duration": 40, "velocity": 106}, {"time": 102857, "pitch": 76, "duration": 40, "velocity": 98}, {"time": 102957, "pitch": 64, "duration": 130, "velocity": 112}, {"time": 102957, "pitch": 67, "duration": 130, "velocity": 104}, {"time": 102957, "pitch": 71, "duration": 120, "velocity": 95}, {"time": 102957, "pitch": 76, "duration": 120, "velocity": 91}, {"time": 103097, "pitch": 64, "duration": 9, "velocity": 120}, {"time": 103097, "pitch": 67, "duration": 9, "velocity": 115}, {"time": 103097, "pitch": 71, "duration": 19, "velocity": 110}, {"time": 103097, "pitch": 76, "duration": 19, "velocity": 105}, {"time": 103196, "pitch": 64, "duration": 122, "velocity": 90}, {"time": 103206, "pitch": 67, "duration": 112, "velocity": 95}, {"time": 103217, "pitch": 71, "duration": 101, "velocity": 100}, {"time": 103227, "pitch": 76, "duration": 91, "velocity": 105}, {"time": 103440, "pitch": 64, "duration": 81, "velocity": 97}, {"time": 103440, "pitch": 67, "duration": 81, "velocity": 105}, {"time": 103440, "pitch": 71, "duration": 81, "velocity": 107}, {"time": 103440, "pitch": 76, "duration": 81, "velocity": 112}, {"time": 103582, "pitch": 64, "duration": 10, "velocity": 100}, {"time": 103582, "pitch": 67, "duration": 10, "velocity": 95}, {"time": 103582, "pitch": 71, "duration": 20, "velocity": 90}, {"time": 103582, "pitch": 76, "duration": 20, "velocity": 85}, {"time": 103683, "pitch": 64, "duration": 40, "velocity": 86}, {"time": 103683, "pitch": 67, "duration": 40, "velocity": 92}, {"time": 103693, "pitch": 71, "duration": 30, "velocity": 111}, {"time": 103693, "pitch": 76, "duration": 30, "velocity": 116}, {"time": 103823, "pitch": 71, "duration": 69, "velocity": 98}, {"time": 103823, "pitch": 76, "duration": 69, "velocity": 103}, {"time": 103833, "pitch": 64, "duration": 59, "velocity": 95}, {"time": 103833, "pitch": 67, "duration": 59, "velocity": 89}, {"time": 103922, "pitch": 64, "duration": 120, "velocity": 102}, {"time": 103922, "pitch": 67, "duration": 120, "velocity": 98}, {"time": 103932, "pitch": 71, "duration": 110, "velocity": 91}, {"time": 103932, "pitch": 76, "duration": 110, "velocity": 87}, {"time": 104062, "pitch": 64, "duration": 50, "velocity": 112}, {"time": 104062, "pitch": 67, "duration": 50, "velocity": 108}, {"time": 104062, "pitch": 71, "duration": 60, "velocity": 102}, {"time": 104062, "pitch": 76, "duration": 60, "velocity": 96}, {"time": 104162, "pitch": 64, "duration": 139, "velocity": 100}, {"time": 104162, "pitch": 69, "duration": 139, "velocity": 105}, {"time": 104172, "pitch": 72, "duration": 129, "velocity": 110}, {"time": 104172, "pitch": 76, "duration": 129, "velocity": 116}, {"time": 104301, "pitch": 76, "duration": 60, "velocity": 100}, {"time": 104311, "pitch": 64, "duration": 40, "velocity": 85}, {"time": 104311, "pitch": 69, "duration": 60, "velocity": 90}, {"time": 104391, "pitch": 64, "duration": 70, "velocity": 95}, {"time": 104391, "pitch": 69, "duration": 70, "velocity": 100}, {"time": 104401, "pitch": 72, "duration": 60, "velocity": 105}, {"time": 104401, "pitch": 76, "duration": 60, "velocity": 110}, {"time": 104541, "pitch": 64, "duration": 199, "velocity": 117}, {"time": 104541, "pitch": 69, "duration": 209, "velocity": 117}, {"time": 104541, "pitch": 72, "duration": 209, "velocity": 109}, {"time": 104541, "pitch": 76, "duration": 219, "velocity": 122}, {"time": 104780, "pitch": 69, "duration": 40, "velocity": 85}, {"time": 104780, "pitch": 72, "duration": 40, "velocity": 106}, {"time": 104780, "pitch": 76, "duration": 40, "velocity": 98}, {"time": 104880, "pitch": 64, "duration": 130, "velocity": 112}, {"time": 104880, "pitch": 69, "duration": 130, "velocity": 104}, {"time": 104880, "pitch": 72, "duration": 120, "velocity": 95}, {"time": 104880, "pitch": 76, "duration": 120, "velocity": 91}, {"time": 105020, "pitch": 64, "duration": 10, "velocity": 120}, {"time": 105020, "pitch": 69, "duration": 10, "velocity": 115}, {"time": 105020, "pitch": 72, "duration": 20, "velocity": 110}, {"time": 105020, "pitch": 76, "duration": 20, "velocity": 105}, {"time": 105120, "pitch": 64, "duration": 119, "velocity": 90}, {"time": 105130, "pitch": 69, "duration": 109, "velocity": 95}, {"time": 105140, "pitch": 72, "duration": 99, "velocity": 100}, {"time": 105149, "pitch": 76, "duration": 90, "velocity": 105}, {"time": 105359, "pitch": 64, "duration": 80, "velocity": 97}, {"time": 105359, "pitch": 69, "duration": 80, "velocity": 105}, {"time": 105359, "pitch": 72, "duration": 80, "velocity": 107}, {"time": 105359, "pitch": 76, "duration": 80, "velocity": 112}, {"time": 105499, "pitch": 64, "duration": 10, "velocity": 100}, {"time": 105499, "pitch": 69, "duration": 10, "velocity": 95}, {"time": 105499, "pitch": 72, "duration": 20, "velocity": 90}, {"time": 105499, "pitch": 76, "duration": 20, "velocity": 85}, {"time": 105598, "pitch": 64, "duration": 40, "velocity": 86}, {"time": 105598, "pitch": 69, "duration": 40, "velocity": 92}, {"time": 105608, "pitch": 72, "duration": 30, "velocity": 111}, {"time": 105608, "pitch": 76, "duration": 30, "velocity": 116}, {"time": 105738, "pitch": 72, "duration": 70, "velocity": 98}, {"time": 105738, "pitch": 76, "duration": 70, "velocity": 103}, {"time": 105748, "pitch": 64, "duration": 60, "velocity": 95}, {"time": 105748, "pitch": 69, "duration": 60, "velocity": 89}, {"time": 105838, "pitch": 64, "duration": 120, "velocity": 102}, {"time": 105838, "pitch": 69, "duration": 120, "velocity": 98}, {"time": 105848, "pitch": 72, "duration": 110, "velocity": 91}, {"time": 105848, "pitch": 76, "duration": 110, "velocity": 87}, {"time": 105978, "pitch": 64, "duration": 49, "velocity": 112}, {"time": 105978, "pitch": 69, "duration": 49, "velocity": 108}, {"time": 105978, "pitch": 72, "duration": 59, "velocity": 102}, {"time": 105978, "pitch": 76, "duration": 59, "velocity": 96}, {"time": 106077, "pitch": 65, "duration": 140, "velocity": 100}, {"time": 106077, "pitch": 69, "duration": 140, "velocity": 105}, {"time": 106087, "pitch": 72, "duration": 130, "velocity": 110}, {"time": 106087, "pitch": 77, "duration": 130, "velocity": 116}, {"time": 106217, "pitch": 77, "duration": 60, "velocity": 100}, {"time": 106227, "pitch": 65, "duration": 40, "velocity": 85}, {"time": 106227, "pitch": 69, "duration": 60, "velocity": 90}, {"time": 106307, "pitch": 65, "duration": 70, "velocity": 95}, {"time": 106307, "pitch": 69, "duration": 70, "velocity": 100}, {"time": 106317, "pitch": 72, "duration": 60, "velocity": 105}, {"time": 106317, "pitch": 77, "duration": 60, "velocity": 110}, {"time": 106456, "pitch": 65, "duration": 202, "velocity": 117}, {"time": 106456, "pitch": 69, "duration": 212, "velocity": 117}, {"time": 106456, "pitch": 72, "duration": 212, "velocity": 109}, {"time": 106456, "pitch": 77, "duration": 222, "velocity": 122}, {"time": 106698, "pitch": 69, "duration": 41, "velocity": 85}, {"time": 106698, "pitch": 72, "duration": 41, "velocity": 106}, {"time": 106698, "pitch": 77, "duration": 41, "velocity": 98}, {"time": 106800, "pitch": 65, "duration": 131, "velocity": 112}, {"time": 106800, "pitch": 69, "duration": 131, "velocity": 104}, {"time": 106800, "pitch": 72, "duration": 121, "velocity": 95}, {"time": 106800, "pitch": 77, "duration": 121, "velocity": 91}, {"time": 106941, "pitch": 65, "duration": 11, "velocity": 120}, {"time": 106941, "pitch": 69, "duration": 11, "velocity": 115}, {"time": 106941, "pitch": 72, "duration": 21, "velocity": 110}, {"time": 106941, "pitch": 77, "duration": 21, "velocity": 105}, {"time": 107043, "pitch": 62, "duration": 120, "velocity": 90}, {"time": 107053, "pitch": 69, "duration": 110, "velocity": 95}, {"time": 107063, "pitch": 72, "duration": 100, "velocity": 100}, {"time": 107073, "pitch": 77, "duration": 90, "velocity": 105}, {"time": 107282, "pitch": 62, "duration": 80, "velocity": 97}, {"time": 107282, "pitch": 69, "duration": 80, "velocity": 105}, {"time": 107282, "pitch": 72, "duration": 80, "velocity": 107}, {"time": 107282, "pitch": 77, "duration": 80, "velocity": 112}, {"time": 107422, "pitch": 62, "duration": 10, "velocity": 100}, {"time": 107422, "pitch": 69, "duration": 10, "velocity": 95}, {"time": 107422, "pitch": 72, "duration": 20, "velocity": 90}, {"time": 107422, "pitch": 77, "duration": 20, "velocity": 85}, {"time": 107522, "pitch": 67, "duration": 40, "velocity": 86}, {"time": 107522, "pitch": 71, "duration": 40, "velocity": 92}, {"time": 107532, "pitch": 74, "duration": 30, "velocity": 111}, {"time": 107532, "pitch": 79, "duration": 30, "velocity": 116}, {"time": 107661, "pitch": 74, "duration": 70, "velocity": 98}, {"time": 107661, "pitch": 79, "duration": 70, "velocity": 103}, {"time": 107671, "pitch": 67, "duration": 60, "velocity": 95}, {"time": 107671, "pitch": 71, "duration": 60, "velocity": 89}, {"time": 107761, "pitch": 67, "duration": 120, "velocity": 102}, {"time": 107761, "pitch": 71, "duration": 120, "velocity": 98}, {"time": 107771, "pitch": 74, "duration": 110, "velocity": 91}, {"time": 107771, "pitch": 79, "duration": 110, "velocity": 87}, {"time": 107901, "pitch": 67, "duration": 50, "velocity": 112}, {"time": 107901, "pitch": 71, "duration": 50, "velocity": 108}, {"time": 107901, "pitch": 74, "duration": 60, "velocity": 102}, {"time": 107901, "pitch": 79, "duration": 60, "velocity": 96}, {"time": 108001, "pitch": 60, "duration": 139, "velocity": 100}, {"time": 108001, "pitch": 67, "duration": 139, "velocity": 105}, {"time": 108011, "pitch": 72, "duration": 129, "velocity": 110}, {"time": 108011, "pitch": 76, "duration": 129, "velocity": 116}, {"time": 108140, "pitch": 76, "duration": 60, "velocity": 100}, {"time": 108150, "pitch": 60, "duration": 40, "velocity": 85}, {"time": 108150, "pitch": 67, "duration": 60, "velocity": 90}, {"time": 108230, "pitch": 60, "duration": 70, "velocity": 95}, {"time": 108230, "pitch": 67, "duration": 70, "velocity": 100}, {"time": 108240, "pitch": 72, "duration": 60, "velocity": 105}, {"time": 108240, "pitch": 76, "duration": 60, "velocity": 110}, {"time": 108380, "pitch": 60, "duration": 199, "velocity": 117}, {"time": 108380, "pitch": 67, "duration": 209, "velocity": 117}, {"time": 108380, "pitch": 72, "duration": 209, "velocity": 109}, {"time": 108380, "pitch": 76, "duration": 219, "velocity": 122}, {"time": 108619, "pitch": 67, "duration": 40, "velocity": 85}, {"time": 108619, "pitch": 72, "duration": 40, "velocity": 106}, {"time": 108619, "pitch": 76, "duration": 40, "velocity": 98}, {"time": 108719, "pitch": 60, "duration": 130, "velocity": 112}, {"time": 108719, "pitch": 67, "duration": 130, "velocity": 104}, {"time": 108719, "pitch": 72, "duration": 120, "velocity": 95}, {"time": 108719, "pitch": 76, "duration": 120, "velocity": 91}, {"time": 108859, "pitch": 60, "duration": 10, "velocity": 120}, {"time": 108859, "pitch": 67, "duration": 10, "velocity": 115}, {"time": 108859, "pitch": 72, "duration": 20, "velocity": 110}, {"time": 108859, "pitch": 76, "duration": 20, "velocity": 105}, {"time": 108958, "pitch": 60, "duration": 120, "velocity": 90}, {"time": 108968, "pitch": 67, "duration": 110, "velocity": 95}, {"time": 108978, "pitch": 72, "duration": 100, "velocity": 100}, {"time": 108988, "pitch": 76, "duration": 90, "velocity": 105}, {"time": 109198, "pitch": 60, "duration": 80, "velocity": 97}, {"time": 109198, "pitch": 67, "duration": 80, "velocity": 105}, {"time": 109198, "pitch": 72, "duration": 80, "velocity": 107}, {"time": 109198, "pitch": 76, "duration": 80, "velocity": 112}, {"time": 109337, "pitch": 60, "duration": 10, "velocity": 100}, {"time": 109337, "pitch": 67, "duration": 10, "velocity": 95}, {"time": 109337, "pitch": 72, "duration": 20, "velocity": 90}, {"time": 109337, "pitch": 76, "duration": 20, "velocity": 85}, {"time": 109437, "pitch": 60, "duration": 41, "velocity": 86}, {"time": 109437, "pitch": 67, "duration": 41, "velocity": 92}, {"time": 109447, "pitch": 72, "duration": 31, "velocity": 111}, {"time": 109447, "pitch": 76, "duration": 31, "velocity": 116}, {"time": 109579, "pitch": 72, "duration": 71, "velocity": 98}, {"time": 109579, "pitch": 76, "duration": 71, "velocity": 103}, {"time": 109589, "pitch": 60, "duration": 61, "velocity": 95}, {"time": 109589, "pitch": 67, "duration": 61, "velocity": 89}, {"time": 109681, "pitch": 60, "duration": 121, "velocity": 102}, {"time": 109681, "pitch": 67, "duration": 121, "velocity": 98}, {"time": 109691, "pitch": 72, "duration": 111, "velocity": 91}, {"time": 109691, "pitch": 76, "duration": 111, "velocity": 87}, {"time": 109823, "pitch": 60, "duration": 50, "velocity": 112}, {"time": 109823, "pitch": 67, "duration": 50, "velocity": 108}, {"time": 109823, "pitch": 72, "duration": 60, "velocity": 102}, {"time": 109823, "pitch": 76, "duration": 60, "velocity": 96}, {"time": 109924, "pitch": 64, "duration": 140, "velocity": 100}, {"time": 109924, "pitch": 67, "duration": 140, "velocity": 105}, {"time": 109934, "pitch": 71, "duration": 130, "velocity": 110}, {"time": 109934, "pitch": 76, "duration": 130, "velocity": 116}, {"time": 110064, "pitch": 76, "duration": 59, "velocity": 100}, {"time": 110074, "pitch": 64, "duration": 39, "velocity": 85}, {"time": 110074, "pitch": 67, "duration": 59, "velocity": 90}, {"time": 110153, "pitch": 64, "duration": 70, "velocity": 95}, {"time": 110153, "pitch": 67, "duration": 70, "velocity": 100}, {"time": 110163, "pitch": 71, "duration": 60, "velocity": 105}, {"time": 110163, "pitch": 76, "duration": 60, "velocity": 110}, {"time": 110303, "pitch": 64, "duration": 200, "velocity": 117}, {"time": 110303, "pitch": 67, "duration": 209, "velocity": 117}, {"time": 110303, "pitch": 71, "duration": 209, "velocity": 109}, {"time": 110303, "pitch": 76, "duration": 219, "velocity": 122}, {"time": 110542, "pitch": 67, "duration": 40, "velocity": 85}, {"time": 110542, "pitch": 71, "duration": 40, "velocity": 106}, {"time": 110542, "pitch": 76, "duration": 40, "velocity": 98}, {"time": 110642, "pitch": 64, "duration": 130, "velocity": 117}, {"time": 110642, "pitch": 69, "duration": 210, "velocity": 117}, {"time": 110642, "pitch": 72, "duration": 210, "velocity": 109}, {"time": 110642, "pitch": 76, "duration": 220, "velocity": 122}, {"time": 110882, "pitch": 64, "duration": 229, "velocity": 90}, {"time": 110892, "pitch": 69, "duration": 219, "velocity": 95}, {"time": 110902, "pitch": 72, "duration": 209, "velocity": 100}, {"time": 110912, "pitch": 76, "duration": 199, "velocity": 105}, {"time": 111121, "pitch": 64, "duration": 80, "velocity": 97}, {"time": 111121, "pitch": 69, "duration": 80, "velocity": 105}, {"time": 111121, "pitch": 72, "duration": 80, "velocity": 107}, {"time": 111121, "pitch": 76, "duration": 80, "velocity": 112}, {"time": 111361, "pitch": 64, "duration": 39, "velocity": 86}, {"time": 111361, "pitch": 69, "duration": 39, "velocity": 92}, {"time": 111370, "pitch": 72, "duration": 30, "velocity": 111}, {"time": 111370, "pitch": 76, "duration": 30, "velocity": 116}, {"time": 111500, "pitch": 72, "duration": 70, "velocity": 98}, {"time": 111500, "pitch": 76, "duration": 70, "velocity": 103}, {"time": 111510, "pitch": 64, "duration": 60, "velocity": 95}, {"time": 111510, "pitch": 69, "duration": 60, "velocity": 89}, {"time": 111600, "pitch": 64, "duration": 120, "velocity": 102}, {"time": 111600, "pitch": 69, "duration": 120, "velocity": 98}, {"time": 111610, "pitch": 72, "duration": 110, "velocity": 91}, {"time": 111610, "pitch": 76, "duration": 110, "velocity": 87}, {"time": 111740, "pitch": 64, "duration": 50, "velocity": 112}, {"time": 111740, "pitch": 69, "duration": 50, "velocity": 108}, {"time": 111740, "pitch": 72, "duration": 59, "velocity": 102}, {"time": 111740, "pitch": 76, "duration": 59, "velocity": 96}, {"time": 111839, "pitch": 62, "duration": 140, "velocity": 100}, {"time": 111839, "pitch": 69, "duration": 140, "velocity": 105}, {"time": 111849, "pitch": 72, "duration": 130, "velocity": 110}, {"time": 111849, "pitch": 77, "duration": 130, "velocity": 116}, {"time": 111979, "pitch": 77, "duration": 60, "velocity": 100}, {"time": 111989, "pitch": 62, "duration": 40, "velocity": 85}, {"time": 111989, "pitch": 69, "duration": 60, "velocity": 90}, {"time": 112069, "pitch": 62, "duration": 70, "velocity": 95}, {"time": 112069, "pitch": 69, "duration": 70, "velocity": 100}, {"time": 112079, "pitch": 72, "duration": 60, "velocity": 105}, {"time": 112079, "pitch": 77, "duration": 60, "velocity": 110}, {"time": 112219, "pitch": 62, "duration": 199, "velocity": 117}, {"time": 112219, "pitch": 69, "duration": 209, "velocity": 117}, {"time": 112219, "pitch": 72, "duration": 209, "velocity": 109}, {"time": 112219, "pitch": 77, "duration": 219, "velocity": 122}, {"time": 112458, "pitch": 69, "duration": 40, "velocity": 85}, {"time": 112458, "pitch": 72, "duration": 40, "velocity": 106}, {"time": 112458, "pitch": 77, "duration": 40, "velocity": 98}, {"time": 112558, "pitch": 62, "duration": 129, "velocity": 112}, {"time": 112558, "pitch": 69, "duration": 129, "velocity": 104}, {"time": 112558, "pitch": 72, "duration": 119, "velocity": 95}, {"time": 112558, "pitch": 77, "duration": 119, "velocity": 91}, {"time": 112697, "pitch": 62, "duration": 10, "velocity": 120}, {"time": 112697, "pitch": 69, "duration": 10, "velocity": 115}, {"time": 112697, "pitch": 72, "duration": 20, "velocity": 110}, {"time": 112697, "pitch": 77, "duration": 20, "velocity": 105}, {"time": 112797, "pitch": 62, "duration": 122, "velocity": 90}, {"time": 112807, "pitch": 69, "duration": 112, "velocity": 95}, {"time": 112817, "pitch": 72, "duration": 102, "velocity": 100}, {"time": 112828, "pitch": 77, "duration": 91, "velocity": 105}, {"time": 113040, "pitch": 62, "duration": 82, "velocity": 97}, {"time": 113040, "pitch": 69, "duration": 82, "velocity": 105}, {"time": 113040, "pitch": 72, "duration": 82, "velocity": 107}, {"time": 113040, "pitch": 77, "duration": 82, "velocity": 112}, {"time": 113182, "pitch": 62, "duration": 11, "velocity": 100}, {"time": 113182, "pitch": 69, "duration": 11, "velocity": 95}, {"time": 113182, "pitch": 72, "duration": 21, "velocity": 90}, {"time": 113182, "pitch": 77, "duration": 21, "velocity": 85}, {"time": 113284, "pitch": 62, "duration": 40, "velocity": 86}, {"time": 113284, "pitch": 69, "duration": 40, "velocity": 92}, {"time": 113294, "pitch": 72, "duration": 30, "velocity": 111}, {"time": 113294, "pitch": 77, "duration": 30, "velocity": 116}, {"time": 113423, "pitch": 72, "duration": 70, "velocity": 98}, {"time": 113423, "pitch": 77, "duration": 70, "velocity": 103}, {"time": 113433, "pitch": 62, "duration": 60, "velocity": 95}, {"time": 113433, "pitch": 69, "duration": 60, "velocity": 89}, {"time": 113523, "pitch": 62, "duration": 120, "velocity": 102}, {"time": 113523, "pitch": 69, "duration": 120, "velocity": 98}, {"time": 113533, "pitch": 72, "duration": 110, "velocity": 91}, {"time": 113533, "pitch": 77, "duration": 110, "velocity": 87}, {"time": 113663, "pitch": 62, "duration": 50, "velocity": 112}, {"time": 113663, "pitch": 69, "duration": 50, "velocity": 108}, {"time": 113663, "pitch": 72, "duration": 60, "velocity": 102}, {"time": 113663, "pitch": 77, "duration": 60, "velocity": 96}, {"time": 113763, "pitch": 65, "duration": 139, "velocity": 100}, {"time": 113763, "pitch": 68, "duration": 139, "velocity": 105}, {"time": 113773, "pitch": 72, "duration": 129, "velocity": 110}, {"time": 113773, "pitch": 77, "duration": 129, "velocity": 116}, {"time": 113902, "pitch": 77, "duration": 60, "velocity": 100}, {"time": 113912, "pitch": 65, "duration": 40, "velocity": 85}, {"time": 113912, "pitch": 68, "duration": 60, "velocity": 90}, {"time": 113992, "pitch": 65, "duration": 70, "velocity": 95}, {"time": 113992, "pitch": 68, "duration": 70, "velocity": 100}, {"time": 114002, "pitch": 72, "duration": 60, "velocity": 105}, {"time": 114002, "pitch": 77, "duration": 60, "velocity": 110}, {"time": 114142, "pitch": 65, "duration": 199, "velocity": 117}, {"time": 114142, "pitch": 68, "duration": 209, "velocity": 117}, {"time": 114142, "pitch": 72, "duration": 209, "velocity": 109}, {"time": 114142, "pitch": 77, "duration": 219, "velocity": 122}, {"time": 114381, "pitch": 68, "duration": 40, "velocity": 85}, {"time": 114381, "pitch": 72, "duration": 40, "velocity": 106}, {"time": 114381, "pitch": 77, "duration": 40, "velocity": 98}, {"time": 114481, "pitch": 65, "duration": 130, "velocity": 112}, {"time": 114481, "pitch": 68, "duration": 130, "velocity": 104}, {"time": 114481, "pitch": 72, "duration": 120, "velocity": 95}, {"time": 114481, "pitch": 77, "duration": 120, "velocity": 91}, {"time": 114621, "pitch": 65, "duration": 10, "velocity": 120}, {"time": 114621, "pitch": 68, "duration": 10, "velocity": 115}, {"time": 114621, "pitch": 72, "duration": 20, "velocity": 110}, {"time": 114621, "pitch": 77, "duration": 20, "velocity": 105}, {"time": 114720, "pitch": 65, "duration": 120, "velocity": 90}, {"time": 114730, "pitch": 68, "duration": 110, "velocity": 95}, {"time": 114740, "pitch": 72, "duration": 100, "velocity": 100}, {"time": 114750, "pitch": 77, "duration": 90, "velocity": 105}, {"time": 114960, "pitch": 65, "duration": 80, "velocity": 97}, {"time": 114960, "pitch": 68, "duration": 80, "velocity": 105}, {"time": 114960, "pitch": 72, "duration": 80, "velocity": 107}, {"time": 114960, "pitch": 77, "duration": 80, "velocity": 112}, {"time": 115100, "pitch": 65, "duration": 10, "velocity": 100}, {"time": 115100, "pitch": 68, "duration": 10, "velocity": 95}, {"time": 115100, "pitch": 72, "duration": 19, "velocity": 90}, {"time": 115100, "pitch": 77, "duration": 19, "velocity": 85}, {"time": 115199, "pitch": 67, "duration": 40, "velocity": 86}, {"time": 115199, "pitch": 71, "duration": 40, "velocity": 92}, {"time": 115209, "pitch": 74, "duration": 30, "velocity": 111}, {"time": 115209, "pitch": 79, "duration": 30, "velocity": 116}, {"time": 115339, "pitch": 74, "duration": 70, "velocity": 98}, {"time": 115339, "pitch": 79, "duration": 70, "velocity": 103}, {"time": 115349, "pitch": 67, "duration": 60, "velocity": 95}, {"time": 115349, "pitch": 71, "duration": 60, "velocity": 89}, {"time": 115439, "pitch": 67, "duration": 119, "velocity": 102}, {"time": 115439, "pitch": 71, "duration": 119, "velocity": 98}, {"time": 115449, "pitch": 74, "duration": 109, "velocity": 91}, {"time": 115449, "pitch": 79, "duration": 109, "velocity": 87}, {"time": 115578, "pitch": 67, "duration": 50, "velocity": 112}, {"time": 115578, "pitch": 71, "duration": 50, "velocity": 108}, {"time": 115578, "pitch": 74, "duration": 60, "velocity": 102}, {"time": 115578, "pitch": 79, "duration": 60, "velocity": 96}, {"time": 144481, "pitch": 60, "duration": 139, "velocity": 100}, {"time": 144481, "pitch": 67, "duration": 139, "velocity": 105}, {"time": 144491, "pitch": 72, "duration": 129, "velocity": 110}, {"time": 144491, "pitch": 76, "duration": 129, "velocity": 116}, {"time": 144620, "pitch": 76, "duration": 60, "velocity": 100}, {"time": 144630, "pitch": 60, "duration": 40, "velocity": 85}, {"time": 144630, "pitch": 67, "duration": 60, "velocity": 90}, {"time": 144710, "pitch": 60, "duration": 70, "velocity": 95}, {"time": 144710, "pitch": 67, "duration": 70, "velocity": 100}, {"time": 144720, "pitch": 72, "duration": 60, "velocity": 105}, {"time": 144720, "pitch": 76, "duration": 60, "velocity": 110}, {"time": 144860, "pitch": 60, "duration": 50, "velocity": 117}, {"time": 144860, "pitch": 67, "duration": 50, "velocity": 117}, {"time": 144860, "pitch": 72, "duration": 60, "velocity": 109}, {"time": 144860, "pitch": 76, "duration": 60, "velocity": 122}, {"time": 144960, "pitch": 60, "duration": 50, "velocity": 117}, {"time": 144960, "pitch": 67, "duration": 50, "velocity": 117}, {"time": 144960, "pitch": 72, "duration": 60, "velocity": 109}, {"time": 144960, "pitch": 76, "duration": 60, "velocity": 122}, {"time": 145099, "pitch": 67, "duration": 40, "velocity": 85}, {"time": 145099, "pitch": 72, "duration": 40, "velocity": 106}, {"time": 145099, "pitch": 76, "duration": 40, "velocity": 98}, {"time": 145199, "pitch": 60, "duration": 130, "velocity": 112}, {"time": 145199, "pitch": 67, "duration": 130, "velocity": 104}, {"time": 145199, "pitch": 72, "duration": 120, "velocity": 95}, {"time": 145199, "pitch": 76, "duration": 120, "velocity": 91}, {"time": 145339, "pitch": 60, "duration": 10, "velocity": 120}, {"time": 145339, "pitch": 67, "duration": 10, "velocity": 115}, {"time": 145339, "pitch": 72, "duration": 20, "velocity": 110}, {"time": 145339, "pitch": 76, "duration": 20, "velocity": 105}, {"time": 145439, "pitch": 60, "duration": 119, "velocity": 90}, {"time": 145449, "pitch": 67, "duration": 109, "velocity": 95}, {"time": 145459, "pitch": 72, "duration": 99, "velocity": 100}, {"time": 145468, "pitch": 76, "duration": 90, "velocity": 105}, {"time": 145678, "pitch": 60, "duration": 80, "velocity": 97}, {"time": 145678, "pitch": 67, "duration": 80, "velocity": 105}, {"time": 145678, "pitch": 72, "duration": 80, "velocity": 107}, {"time": 145678, "pitch": 76, "duration": 80, "velocity": 112}, {"time": 145818, "pitch": 60, "duration": 10, "velocity": 100}, {"time": 145818, "pitch": 67, "duration": 10, "velocity": 95}, {"time": 145818, "pitch": 72, "duration": 20, "velocity": 90}, {"time": 145818, "pitch": 76, "duration": 20, "velocity": 85}, {"time": 145917, "pitch": 60, "duration": 40, "velocity": 86}, {"time": 145917, "pitch": 67, "duration": 40, "velocity": 92}, {"time": 145927, "pitch": 72, "duration": 30, "velocity": 111}, {"time": 145927, "pitch": 76, "duration": 30, "velocity": 116}, {"time": 146057, "pitch": 72, "duration": 70, "velocity": 98}, {"time": 146057, "pitch": 76, "duration": 70, "velocity": 103}, {"time": 146067, "pitch": 60, "duration": 60, "velocity": 95}, {"time": 146067, "pitch": 67, "duration": 60, "velocity": 89}, {"time": 146157, "pitch": 60, "duration": 120, "velocity": 102}, {"time": 146157, "pitch": 67, "duration": 120, "velocity": 98}, {"time": 146167, "pitch": 72, "duration": 110, "velocity": 91}, {"time": 146167, "pitch": 76, "duration": 110, "velocity": 87}, {"time": 146297, "pitch": 60, "duration": 49, "velocity": 112}, {"time": 146297, "pitch": 67, "duration": 49, "velocity": 108}, {"time": 146297, "pitch": 72, "duration": 59, "velocity": 102}, {"time": 146297, "pitch": 76, "duration": 59, "velocity": 96}, {"time": 146396, "pitch": 64, "duration": 142, "velocity": 100}, {"time": 146396, "pitch": 67, "duration": 142, "velocity": 105}, {"time": 146406, "pitch": 71, "duration": 132, "velocity": 110}, {"time": 146406, "pitch": 76, "duration": 132, "velocity": 116}, {"time": 146538, "pitch": 76, "duration": 61, "velocity": 100}, {"time": 146548, "pitch": 64, "duration": 41, "velocity": 85}, {"time": 146548, "pitch": 67, "duration": 61, "velocity": 90}, {"time": 146629, "pitch": 64, "duration": 71, "velocity": 95}, {"time": 146629, "pitch": 67, "duration": 71, "velocity": 100}, {"time": 146640, "pitch": 71, "duration": 60, "velocity": 105}, {"time": 146640, "pitch": 76, "duration": 60, "velocity": 110}, {"time": 146782, "pitch": 64, "duration": 201, "velocity": 117}, {"time": 146782, "pitch": 67, "duration": 211, "velocity": 117}, {"time": 146782, "pitch": 71, "duration": 211, "velocity": 109}, {"time": 146782, "pitch": 76, "duration": 221, "velocity": 122}, {"time": 147023, "pitch": 67, "duration": 40, "velocity": 85}, {"time": 147023, "pitch": 71, "duration": 40, "velocity": 106}, {"time": 147023, "pitch": 76, "duration": 40, "velocity": 98}, {"time": 147122, "pitch": 64, "duration": 130, "velocity": 112}, {"time": 147122, "pitch": 67, "duration": 130, "velocity": 104}, {"time": 147122, "pitch": 71, "duration": 120, "velocity": 95}, {"time": 147122, "pitch": 76, "duration": 120, "velocity": 91}, {"time": 147262, "pitch": 64, "duration": 10, "velocity": 120}, {"time": 147262, "pitch": 67, "duration": 10, "velocity": 115}, {"time": 147262, "pitch": 71, "duration": 20, "velocity": 110}, {"time": 147262, "pitch": 76, "duration": 20, "velocity": 105}, {"time": 147362, "pitch": 64, "duration": 120, "velocity": 90}, {"time": 147372, "pitch": 67, "duration": 110, "velocity": 95}, {"time": 147382, "pitch": 71, "duration": 100, "velocity": 100}, {"time": 147392, "pitch": 76, "duration": 90, "velocity": 105}, {"time": 147601, "pitch": 64, "duration": 80, "velocity": 97}, {"time": 147601, "pitch": 67, "duration": 80, "velocity": 105}, {"time": 147601, "pitch": 71, "duration": 80, "velocity": 107}, {"time": 147601, "pitch": 76, "duration": 80, "velocity": 112}, {"time": 147741, "pitch": 64, "duration": 10, "velocity": 100}, {"time": 147741, "pitch": 67, "duration": 10, "velocity": 95}, {"time": 147741, "pitch": 71, "duration": 20, "velocity": 90}, {"time": 147741, "pitch": 76, "duration": 20, "velocity": 85}, {"time": 147841, "pitch": 64, "duration": 40, "velocity": 86}, {"time": 147841, "pitch": 67, "duration": 40, "velocity": 92}, {"time": 147851, "pitch": 71, "duration": 30, "velocity": 111}, {"time": 147851, "pitch": 76, "duration": 30, "velocity": 116}, {"time": 147980, "pitch": 71, "duration": 70, "velocity": 98}, {"time": 147980, "pitch": 76, "duration": 70, "velocity": 103}, {"time": 147990, "pitch": 64, "duration": 60, "velocity": 95}, {"time": 147990, "pitch": 67, "duration": 60, "velocity": 89}, {"time": 148080, "pitch": 64, "duration": 120, "velocity": 102}, {"time": 148080, "pitch": 67, "duration": 120, "velocity": 98}, {"time": 148090, "pitch": 71, "duration": 110, "velocity": 91}, {"time": 148090, "pitch": 76, "duration": 110, "velocity": 87}, {"time": 148220, "pitch": 64, "duration": 50, "velocity": 112}, {"time": 148220, "pitch": 67, "duration": 50, "velocity": 108}, {"time": 148220, "pitch": 71, "duration": 60, "velocity": 102}, {"time": 148220, "pitch": 76, "duration": 60, "velocity": 96}, {"time": 148320, "pitch": 64, "duration": 139, "velocity": 100}, {"time": 148320, "pitch": 69, "duration": 139, "velocity": 105}, {"time": 148330, "pitch": 72, "duration": 129, "velocity": 110}, {"time": 148330, "pitch": 76, "duration": 129, "velocity": 116}, {"time": 148459, "pitch": 76, "duration": 60, "velocity": 100}, {"time": 148469, "pitch": 64, "duration": 40, "velocity": 85}, {"time": 148469, "pitch": 69, "duration": 60, "velocity": 90}, {"time": 148549, "pitch": 64, "duration": 70, "velocity": 95}, {"time": 148549, "pitch": 69, "duration": 70, "velocity": 100}, {"time": 148559, "pitch": 72, "duration": 60, "velocity": 105}, {"time": 148559, "pitch": 76, "duration": 60, "velocity": 110}, {"time": 148699, "pitch": 64, "duration": 199, "velocity": 117}, {"time": 148699, "pitch": 69, "duration": 209, "velocity": 117}, {"time": 148699, "pitch": 72, "duration": 209, "velocity": 109}, {"time": 148699, "pitch": 76, "duration": 219, "velocity": 122}, {"time": 148938, "pitch": 69, "duration": 40, "velocity": 85}, {"time": 148938, "pitch": 72, "duration": 40, "velocity": 106}, {"time": 148938, "pitch": 76, "duration": 40, "velocity": 98}, {"time": 149038, "pitch": 64, "duration": 130, "velocity": 112}, {"time": 149038, "pitch": 69, "duration": 130, "velocity": 104}, {"time": 149038, "pitch": 72, "duration": 120, "velocity": 95}, {"time": 149038, "pitch": 76, "duration": 120, "velocity": 91}, {"time": 149178, "pitch": 64, "duration": 10, "velocity": 120}, {"time": 149178, "pitch": 69, "duration": 10, "velocity": 115}, {"time": 149178, "pitch": 72, "duration": 20, "velocity": 110}, {"time": 149178, "pitch": 76, "duration": 20, "velocity": 105}, {"time": 149277, "pitch": 64, "duration": 120, "velocity": 90}, {"time": 149287, "pitch": 69, "duration": 110, "velocity": 95}, {"time": 149297, "pitch": 72, "duration": 100, "velocity": 100}, {"time": 149307, "pitch": 76, "duration": 90, "velocity": 105}, {"time": 149517, "pitch": 64, "duration": 80, "velocity": 97}, {"time": 149517, "pitch": 69, "duration": 80, "velocity": 105}, {"time": 149517, "pitch": 72, "duration": 80, "velocity": 107}, {"time": 149517, "pitch": 76, "duration": 80, "velocity": 112}, {"time": 149656, "pitch": 64, "duration": 10, "velocity": 100}, {"time": 149656, "pitch": 69, "duration": 10, "velocity": 95}, {"time": 149656, "pitch": 72, "duration": 20, "velocity": 90}, {"time": 149656, "pitch": 76, "duration": 20, "velocity": 85}, {"time": 149756, "pitch": 64, "duration": 41, "velocity": 86}, {"time": 149756, "pitch": 69, "duration": 41, "velocity": 92}, {"time": 149766, "pitch": 72, "duration": 31, "velocity": 111}, {"time": 149766, "pitch": 76, "duration": 31, "velocity": 116}, {"time": 149898, "pitch": 72, "duration": 71, "velocity": 98}, {"time": 149898, "pitch": 76, "duration": 71, "velocity": 103}, {"time": 149908, "pitch": 64, "duration": 61, "velocity": 95}, {"time": 149908, "pitch": 69, "duration": 61, "velocity": 89}, {"time": 150000, "pitch": 64, "duration": 121, "velocity": 102}, {"time": 150000, "pitch": 69, "duration": 121, "velocity": 98}, {"time": 150010, "pitch": 72, "duration": 111, "velocity": 91}, {"time": 150010, "pitch": 76, "duration": 111, "velocity": 87}, {"time": 150142, "pitch": 64, "duration": 50, "velocity": 112}, {"time": 150142, "pitch": 69, "duration": 50, "velocity": 108}, {"time": 150142, "pitch": 72, "duration": 60, "velocity": 102}, {"time": 150142, "pitch": 76, "duration": 60, "velocity": 96}, {"time": 150243, "pitch": 65, "duration": 140, "velocity": 100}, {"time": 150243, "pitch": 69, "duration": 140, "velocity": 105}, {"time": 150253, "pitch": 72, "duration": 130, "velocity": 110}, {"time": 150253, "pitch": 77, "duration": 130, "velocity": 116}, {"time": 150383, "pitch": 77, "duration": 59, "velocity": 100}, {"time": 150393, "pitch": 65, "duration": 39, "velocity": 85}, {"time": 150393, "pitch": 69, "duration": 59, "velocity": 90}, {"time": 150472, "pitch": 65, "duration": 70, "velocity": 95}, {"time": 150472, "pitch": 69, "duration": 70, "velocity": 100}, {"time": 150482, "pitch": 72, "duration": 60, "velocity": 105}, {"time": 150482, "pitch": 77, "duration": 60, "velocity": 110}, {"time": 150622, "pitch": 65, "duration": 200, "velocity": 117}, {"time": 150622, "pitch": 69, "duration": 209, "velocity": 117}, {"time": 150622, "pitch": 72, "duration": 209, "velocity": 109}, {"time": 150622, "pitch": 77, "duration": 219, "velocity": 122}, {"time": 150861, "pitch": 69, "duration": 40, "velocity": 85}, {"time": 150861, "pitch": 72, "duration": 40, "velocity": 106}, {"time": 150861, "pitch": 77, "duration": 40, "velocity": 98}, {"time": 150961, "pitch": 65, "duration": 130, "velocity": 112}, {"time": 150961, "pitch": 69, "duration": 130, "velocity": 104}, {"time": 150961, "pitch": 72, "duration": 120, "velocity": 95}, {"time": 150961, "pitch": 77, "duration": 120, "velocity": 91}, {"time": 151101, "pitch": 65, "duration": 10, "velocity": 120}, {"time": 151101, "pitch": 69, "duration": 10, "velocity": 115}, {"time": 151101, "pitch": 72, "duration": 20, "velocity": 110}, {"time": 151101, "pitch": 77, "duration": 20, "velocity": 105}, {"time": 151201, "pitch": 62, "duration": 119, "velocity": 90}, {"time": 151211, "pitch": 69, "duration": 109, "velocity": 95}, {"time": 151221, "pitch": 72, "duration": 99, "velocity": 100}, {"time": 151231, "pitch": 77, "duration": 89, "velocity": 105}, {"time": 151440, "pitch": 62, "duration": 80, "velocity": 97}, {"time": 151440, "pitch": 69, "duration": 80, "velocity": 105}, {"time": 151440, "pitch": 72, "duration": 80, "velocity": 107}, {"time": 151440, "pitch": 77, "duration": 80, "velocity": 112}, {"time": 151580, "pitch": 62, "duration": 10, "velocity": 100}, {"time": 151580, "pitch": 69, "duration": 10, "velocity": 95}, {"time": 151580, "pitch": 72, "duration": 20, "velocity": 90}, {"time": 151580, "pitch": 77, "duration": 20, "velocity": 85}, {"time": 151680, "pitch": 67, "duration": 39, "velocity": 86}, {"time": 151680, "pitch": 71, "duration": 39, "velocity": 92}, {"time": 151689, "pitch": 74, "duration": 30, "velocity": 111}, {"time": 151689, "pitch": 79, "duration": 30, "velocity": 116}, {"time": 151819, "pitch": 74, "duration": 70, "velocity": 98}, {"time": 151819, "pitch": 79, "duration": 70, "velocity": 103}, {"time": 151829, "pitch": 67, "duration": 60, "velocity": 95}, {"time": 151829, "pitch": 71, "duration": 60, "velocity": 89}, {"time": 151919, "pitch": 67, "duration": 120, "velocity": 102}, {"time": 151919, "pitch": 71, "duration": 120, "velocity": 98}, {"time": 151929, "pitch": 74, "duration": 110, "velocity": 91}, {"time": 151929, "pitch": 79, "duration": 110, "velocity": 87}, {"time": 152059, "pitch": 67, "duration": 50, "velocity": 112}, {"time": 152059, "pitch": 71, "duration": 50, "velocity": 108}, {"time": 152059, "pitch": 74, "duration": 59, "velocity": 102}, {"time": 152059, "pitch": 79, "duration": 59, "velocity": 96}, {"time": 152158, "pitch": 60, "duration": 140, "velocity": 100}, {"time": 152158, "pitch": 67, "duration": 140, "velocity": 105}, {"time": 152168, "pitch": 72, "duration": 130, "velocity": 110}, {"time": 152168, "pitch": 76, "duration": 130, "velocity": 116}, {"time": 152298, "pitch": 76, "duration": 60, "velocity": 100}, {"time": 152308, "pitch": 60, "duration": 40, "velocity": 85}, {"time": 152308, "pitch": 67, "duration": 60, "velocity": 90}, {"time": 152388, "pitch": 60, "duration": 70, "velocity": 95}, {"time": 152388, "pitch": 67, "duration": 70, "velocity": 100}, {"time": 152398, "pitch": 72, "duration": 60, "velocity": 105}, {"time": 152398, "pitch": 76, "duration": 60, "velocity": 110}, {"time": 152538, "pitch": 60, "duration": 199, "velocity": 117}, {"time": 152538, "pitch": 67, "duration": 209, "velocity": 117}, {"time": 152538, "pitch": 72, "duration": 209, "velocity": 109}, {"time": 152538, "pitch": 76, "duration": 219, "velocity": 122}, {"time": 152777, "pitch": 67, "duration": 40, "velocity": 85}, {"time": 152777, "pitch": 72, "duration": 40, "velocity": 106}, {"time": 152777, "pitch": 76, "duration": 40, "velocity": 98}, {"time": 152877, "pitch": 60, "duration": 129, "velocity": 112}, {"time": 152877, "pitch": 67, "duration": 129, "velocity": 104}, {"time": 152877, "pitch": 72, "duration": 119, "velocity": 95}, {"time": 152877, "pitch": 76, "duration": 119, "velocity": 91}, {"time": 153016, "pitch": 60, "duration": 10, "velocity": 120}, {"time": 153016, "pitch": 67, "duration": 10, "velocity": 115}, {"time": 153016, "pitch": 72, "duration": 20, "velocity": 110}, {"time": 153016, "pitch": 76, "duration": 20, "velocity": 105}, {"time": 153116, "pitch": 60, "duration": 122, "velocity": 90}, {"time": 153126, "pitch": 67, "duration": 112, "velocity": 95}, {"time": 153136, "pitch": 72, "duration": 102, "velocity": 100}, {"time": 153147, "pitch": 76, "duration": 91, "velocity": 105}, {"time": 153359, "pitch": 60, "duration": 82, "velocity": 97}, {"time": 153359, "pitch": 67, "duration": 82, "velocity": 105}, {"time": 153359, "pitch": 72, "duration": 82, "velocity": 107}, {"time": 153359, "pitch": 76, "duration": 82, "velocity": 112}, {"time": 153501, "pitch": 60, "duration": 11, "velocity": 100}, {"time": 153501, "pitch": 67, "duration": 11, "velocity": 95}, {"time": 153501, "pitch": 72, "duration": 21, "velocity": 90}, {"time": 153501, "pitch": 76, "duration": 21, "velocity": 85}, {"time": 153603, "pitch": 60, "duration": 40, "velocity": 86}, {"time": 153603, "pitch": 67, "duration": 40, "velocity": 92}, {"time": 153613, "pitch": 72, "duration": 30, "velocity": 111}, {"time": 153613, "pitch": 76, "duration": 30, "velocity": 116}, {"time": 153742, "pitch": 72, "duration": 70, "velocity": 98}, {"time": 153742, "pitch": 76, "duration": 70, "velocity": 103}, {"time": 153752, "pitch": 60, "duration": 60, "velocity": 95}, {"time": 153752, "pitch": 67, "duration": 60, "velocity": 89}, {"time": 153842, "pitch": 60, "duration": 120, "velocity": 102}, {"time": 153842, "pitch": 67, "duration": 120, "velocity": 98}, {"time": 153852, "pitch": 72, "duration": 110, "velocity": 91}, {"time": 153852, "pitch": 76, "duration": 110, "velocity": 87}, {"time": 153982, "pitch": 60, "duration": 50, "velocity": 112}, {"time": 153982, "pitch": 67, "duration": 50, "velocity": 108}, {"time": 153982, "pitch": 72, "duration": 60, "velocity": 102}, {"time": 153982, "pitch": 76, "duration": 60, "velocity": 96}, {"time": 154082, "pitch": 64, "duration": 139, "velocity": 100}, {"time": 154082, "pitch": 67, "duration": 139, "velocity": 105}, {"time": 154092, "pitch": 71, "duration": 129, "velocity": 110}, {"time": 154092, "pitch": 76, "duration": 129, "velocity": 116}, {"time": 154221, "pitch": 76, "duration": 60, "velocity": 100}, {"time": 154231, "pitch": 64, "duration": 40, "velocity": 85}, {"time": 154231, "pitch": 67, "duration": 60, "velocity": 90}, {"time": 154311, "pitch": 64, "duration": 70, "velocity": 95}, {"time": 154311, "pitch": 67, "duration": 70, "velocity": 100}, {"time": 154321, "pitch": 71, "duration": 60, "velocity": 105}, {"time": 154321, "pitch": 76, "duration": 60, "velocity": 110}, {"time": 154461, "pitch": 64, "duration": 199, "velocity": 117}, {"time": 154461, "pitch": 67, "duration": 209, "velocity": 117}, {"time": 154461, "pitch": 71, "duration": 209, "velocity": 109}, {"time": 154461, "pitch": 76, "duration": 219, "velocity": 122}, {"time": 154700, "pitch": 67, "duration": 40, "velocity": 85}, {"time": 154700, "pitch": 71, "duration": 40, "velocity": 106}, {"time": 154700, "pitch": 76, "duration": 40, "velocity": 98}, {"time": 154800, "pitch": 64, "duration": 130, "velocity": 117}, {"time": 154800, "pitch": 69, "duration": 209, "velocity": 117}, {"time": 154800, "pitch": 72, "duration": 209, "velocity": 109}, {"time": 154800, "pitch": 76, "duration": 219, "velocity": 122}, {"time": 155039, "pitch": 64, "duration": 230, "velocity": 90}, {"time": 155049, "pitch": 69, "duration": 220, "velocity": 95}, {"time": 155059, "pitch": 72, "duration": 210, "velocity": 100}, {"time": 155069, "pitch": 76, "duration": 200, "velocity": 105}, {"time": 155279, "pitch": 64, "duration": 80, "velocity": 97}, {"time": 155279, "pitch": 69, "duration": 80, "velocity": 105}, {"time": 155279, "pitch": 72, "duration": 80, "velocity": 107}, {"time": 155279, "pitch": 76, "duration": 80, "velocity": 112}, {"time": 155518, "pitch": 64, "duration": 40, "velocity": 86}, {"time": 155518, "pitch": 69, "duration": 40, "velocity": 92}, {"time": 155528, "pitch": 72, "duration": 30, "velocity": 111}, {"time": 155528, "pitch": 76, "duration": 30, "velocity": 116}, {"time": 155658, "pitch": 72, "duration": 70, "velocity": 98}, {"time": 155658, "pitch": 76, "duration": 70, "velocity": 103}, {"time": 155668, "pitch": 64, "duration": 60, "velocity": 95}, {"time": 155668, "pitch": 69, "duration": 60, "velocity": 89}, {"time": 155758, "pitch": 64, "duration": 119, "velocity": 102}, {"time": 155758, "pitch": 69, "duration": 119, "velocity": 98}, {"time": 155768, "pitch": 72, "duration": 109, "velocity": 91}, {"time": 155768, "pitch": 76, "duration": 109, "velocity": 87}, {"time": 155897, "pitch": 64, "duration": 50, "velocity": 112}, {"time": 155897, "pitch": 69, "duration": 50, "velocity": 108}, {"time": 155897, "pitch": 72, "duration": 60, "velocity": 102}, {"time": 155897, "pitch": 76, "duration": 60, "velocity": 96}, {"time": 155997, "pitch": 62, "duration": 142, "velocity": 100}, {"time": 155997, "pitch": 69, "duration": 142, "velocity": 105}, {"time": 156007, "pitch": 72, "duration": 132, "velocity": 110}, {"time": 156007, "pitch": 77, "duration": 132, "velocity": 116}, {"time": 156139, "pitch": 77, "duration": 61, "velocity": 100}, {"time": 156149, "pitch": 62, "duration": 41, "velocity": 85}, {"time": 156149, "pitch": 69, "duration": 61, "velocity": 90}, {"time": 156230, "pitch": 62, "duration": 71, "velocity": 95}, {"time": 156230, "pitch": 69, "duration": 71, "velocity": 100}, {"time": 156241, "pitch": 72, "duration": 60, "velocity": 105}, {"time": 156241, "pitch": 77, "duration": 60, "velocity": 110}, {"time": 156382, "pitch": 62, "duration": 202, "velocity": 117}, {"time": 156382, "pitch": 69, "duration": 212, "velocity": 117}, {"time": 156382, "pitch": 72, "duration": 212, "velocity": 109}, {"time": 156382, "pitch": 77, "duration": 222, "velocity": 122}, {"time": 156623, "pitch": 69, "duration": 40, "velocity": 85}, {"time": 156623, "pitch": 72, "duration": 40, "velocity": 106}, {"time": 156623, "pitch": 77, "duration": 40, "velocity": 98}, {"time": 156723, "pitch": 62, "duration": 130, "velocity": 112}, {"time": 156723, "pitch": 69, "duration": 130, "velocity": 104}, {"time": 156723, "pitch": 72, "duration": 120, "velocity": 95}, {"time": 156723, "pitch": 77, "duration": 120, "velocity": 91}, {"time": 156863, "pitch": 62, "duration": 10, "velocity": 120}, {"time": 156863, "pitch": 69, "duration": 10, "velocity": 115}, {"time": 156863, "pitch": 72, "duration": 20, "velocity": 110}, {"time": 156863, "pitch": 77, "duration": 20, "velocity": 105}, {"time": 156963, "pitch": 62, "duration": 119, "velocity": 90}, {"time": 156973, "pitch": 69, "duration": 109, "velocity": 95}, {"time": 156983, "pitch": 72, "duration": 99, "velocity": 100}, {"time": 156993, "pitch": 77, "duration": 89, "velocity": 105}, {"time": 157202, "pitch": 62, "duration": 80, "velocity": 97}, {"time": 157202, "pitch": 69, "duration": 80, "velocity": 105}, {"time": 157202, "pitch": 72, "duration": 80, "velocity": 107}, {"time": 157202, "pitch": 77, "duration": 80, "velocity": 112}, {"time": 157342, "pitch": 62, "duration": 10, "velocity": 100}, {"time": 157342, "pitch": 69, "duration": 10, "velocity": 95}, {"time": 157342, "pitch": 72, "duration": 20, "velocity": 90}, {"time": 157342, "pitch": 77, "duration": 20, "velocity": 85}, {"time": 157442, "pitch": 62, "duration": 39, "velocity": 86}, {"time": 157442, "pitch": 69, "duration": 39, "velocity": 92}, {"time": 157452, "pitch": 72, "duration": 29, "velocity": 111}, {"time": 157452, "pitch": 77, "duration": 29, "velocity": 116}, {"time": 157581, "pitch": 72, "duration": 70, "velocity": 98}, {"time": 157581, "pitch": 77, "duration": 70, "velocity": 103}, {"time": 157591, "pitch": 62, "duration": 60, "velocity": 95}, {"time": 157591, "pitch": 69, "duration": 60, "velocity": 89}, {"time": 157681, "pitch": 62, "duration": 120, "velocity": 102}, {"time": 157681, "pitch": 69, "duration": 120, "velocity": 98}, {"time": 157691, "pitch": 72, "duration": 110, "velocity": 91}, {"time": 157691, "pitch": 77, "duration": 110, "velocity": 87}, {"time": 157821, "pitch": 62, "duration": 50, "velocity": 112}, {"time": 157821, "pitch": 69, "duration": 50, "velocity": 108}, {"time": 157821, "pitch": 72, "duration": 60, "velocity": 102}, {"time": 157821, "pitch": 77, "duration": 60, "velocity": 96}, {"time": 157920, "pitch": 65, "duration": 140, "velocity": 100}, {"time": 157920, "pitch": 68, "duration": 140, "velocity": 105}, {"time": 157930, "pitch": 72, "duration": 130, "velocity": 110}, {"time": 157930, "pitch": 77, "duration": 130, "velocity": 116}, {"time": 158060, "pitch": 77, "duration": 60, "velocity": 100}, {"time": 158070, "pitch": 65, "duration": 40, "velocity": 85}, {"time": 158070, "pitch": 68, "duration": 60, "velocity": 90}, {"time": 158150, "pitch": 65, "duration": 70, "velocity": 95}, {"time": 158150, "pitch": 68, "duration": 70, "velocity": 100}, {"time": 158160, "pitch": 72, "duration": 60, "velocity": 105}, {"time": 158160, "pitch": 77, "duration": 60, "velocity": 110}, {"time": 158300, "pitch": 65, "duration": 199, "velocity": 117}, {"time": 158300, "pitch": 68, "duration": 209, "velocity": 117}, {"time": 158300, "pitch": 72, "duration": 209, "velocity": 109}, {"time": 158300, "pitch": 77, "duration": 219, "velocity": 122}, {"time": 158539, "pitch": 68, "duration": 40, "velocity": 85}, {"time": 158539, "pitch": 72, "duration": 40, "velocity": 106}, {"time": 158539, "pitch": 77, "duration": 40, "velocity": 98}, {"time": 158639, "pitch": 65, "duration": 129, "velocity": 112}, {"time": 158639, "pitch": 68, "duration": 129, "velocity": 104}, {"time": 158639, "pitch": 72, "duration": 120, "velocity": 95}, {"time": 158639, "pitch": 77, "duration": 120, "velocity": 91}, {"time": 158778, "pitch": 65, "duration": 10, "velocity": 120}, {"time": 158778, "pitch": 68, "duration": 10, "velocity": 115}, {"time": 158778, "pitch": 72, "duration": 20, "velocity": 110}, {"time": 158778, "pitch": 77, "duration": 20, "velocity": 105}, {"time": 158878, "pitch": 65, "duration": 120, "velocity": 90}, {"time": 158888, "pitch": 68, "duration": 110, "velocity": 95}, {"time": 158898, "pitch": 72, "duration": 100, "velocity": 100}, {"time": 158908, "pitch": 77, "duration": 90, "velocity": 105}, {"time": 159118, "pitch": 65, "duration": 79, "velocity": 97}, {"time": 159118, "pitch": 68, "duration": 79, "velocity": 105}, {"time": 159118, "pitch": 72, "duration": 79, "velocity": 107}, {"time": 159118, "pitch": 77, "duration": 79, "velocity": 112}, {"time": 159257, "pitch": 65, "duration": 10, "velocity": 100}, {"time": 159257, "pitch": 68, "duration": 10, "velocity": 95}, {"time": 159257, "pitch": 72, "duration": 20, "velocity": 90}, {"time": 159257, "pitch": 77, "duration": 20, "velocity": 85}, {"time": 159357, "pitch": 67, "duration": 41, "velocity": 86}, {"time": 159357, "pitch": 71, "duration": 41, "velocity": 92}, {"time": 159367, "pitch": 74, "duration": 31, "velocity": 111}, {"time": 159367, "pitch": 79, "duration": 31, "velocity": 116}, {"time": 159499, "pitch": 74, "duration": 71, "velocity": 98}, {"time": 159499, "pitch": 79, "duration": 71, "velocity": 103}, {"time": 159509, "pitch": 67, "duration": 61, "velocity": 95}, {"time": 159509, "pitch": 71, "duration": 61, "velocity": 89}, {"time": 159600, "pitch": 67, "duration": 122, "velocity": 102}, {"time": 159600, "pitch": 71, "duration": 122, "velocity": 98}, {"time": 159611, "pitch": 74, "duration": 111, "velocity": 91}, {"time": 159611, "pitch": 79, "duration": 111, "velocity": 87}, {"time": 159742, "pitch": 67, "duration": 51, "velocity": 112}, {"time": 159742, "pitch": 71, "duration": 51, "velocity": 108}, {"time": 159742, "pitch": 74, "duration": 61, "velocity": 102}, {"time": 159742, "pitch": 79, "duration": 61, "velocity": 96}, {"time": 159844, "pitch": 60, "duration": 139, "velocity": 100}, {"time": 159844, "pitch": 67, "duration": 139, "velocity": 105}, {"time": 159854, "pitch": 72, "duration": 129, "velocity": 110}, {"time": 159854, "pitch": 76, "duration": 129, "velocity": 116}, {"time": 159983, "pitch": 76, "duration": 60, "velocity": 100}, {"time": 159993, "pitch": 60, "duration": 40, "velocity": 85}, {"time": 159993, "pitch": 67, "duration": 60, "velocity": 90}, {"time": 160073, "pitch": 60, "duration": 70, "velocity": 95}, {"time": 160073, "pitch": 67, "duration": 70, "velocity": 100}, {"time": 160083, "pitch": 72, "duration": 60, "velocity": 105}, {"time": 160083, "pitch": 76, "duration": 60, "velocity": 110}, {"time": 160223, "pitch": 60, "duration": 50, "velocity": 117}, {"time": 160223, "pitch": 67, "duration": 50, "velocity": 117}, {"time": 160223, "pitch": 72, "duration": 60, "velocity": 109}, {"time": 160223, "pitch": 76, "duration": 60, "velocity": 122}, {"time": 160323, "pitch": 60, "duration": 49, "velocity": 117}, {"time": 160323, "pitch": 67, "duration": 49, "velocity": 117}, {"time": 160323, "pitch": 72, "duration": 59, "velocity": 109}, {"time": 160323, "pitch": 76, "duration": 59, "velocity": 122}, {"time": 160462, "pitch": 67, "duration": 40, "velocity": 85}, {"time": 160462, "pitch": 72, "duration": 40, "velocity": 106}, {"time": 160462, "pitch": 76, "duration": 40, "velocity": 98}, {"time": 160562, "pitch": 60, "duration": 130, "velocity": 112}, {"time": 160562, "pitch": 67, "duration": 130, "velocity": 104}, {"time": 160562, "pitch": 72, "duration": 120, "velocity": 95}, {"time": 160562, "pitch": 76, "duration": 120, "velocity": 91}, {"time": 160702, "pitch": 60, "duration": 10, "velocity": 120}, {"time": 160702, "pitch": 67, "duration": 10, "velocity": 115}, {"time": 160702, "pitch": 72, "duration": 20, "velocity": 110}, {"time": 160702, "pitch": 76, "duration": 20, "velocity": 105}, {"time": 160801, "pitch": 60, "duration": 120, "velocity": 90}, {"time": 160811, "pitch": 67, "duration": 110, "velocity": 95}, {"time": 160821, "pitch": 72, "duration": 100, "velocity": 100}, {"time": 160831, "pitch": 76, "duration": 90, "velocity": 105}, {"time": 161041, "pitch": 60, "duration": 80, "velocity": 97}, {"time": 161041, "pitch": 67, "duration": 80, "velocity": 105}, {"time": 161041, "pitch": 72, "duration": 80, "velocity": 107}, {"time": 161041, "pitch": 76, "duration": 80, "velocity": 112}, {"time": 161181, "pitch": 60, "duration": 10, "velocity": 100}, {"time": 161181, "pitch": 67, "duration": 10, "velocity": 95}, {"time": 161181, "pitch": 72, "duration": 20, "velocity": 90}, {"time": 161181, "pitch": 76, "duration": 20, "velocity": 85}, {"time": 161280, "pitch": 60, "duration": 40, "velocity": 86}, {"time": 161280, "pitch": 67, "duration": 40, "velocity": 92}, {"time": 161290, "pitch": 72, "duration": 30, "velocity": 111}, {"time": 161290, "pitch": 76, "duration": 30, "velocity": 116}, {"time": 161420, "pitch": 72, "duration": 70, "velocity": 98}, {"time": 161420, "pitch": 76, "duration": 70, "velocity": 103}, {"time": 161430, "pitch": 60, "duration": 60, "velocity": 95}, {"time": 161430, "pitch": 67, "duration": 60, "velocity": 89}, {"time": 161520, "pitch": 60, "duration": 120, "velocity": 102}, {"time": 161520, "pitch": 67, "duration": 120, "velocity": 98}, {"time": 161530, "pitch": 72, "duration": 110, "velocity": 91}, {"time": 161530, "pitch": 76, "duration": 110, "velocity": 87}, {"time": 161659, "pitch": 60, "duration": 50, "velocity": 112}, {"time": 161659, "pitch": 67, "duration": 50, "velocity": 108}, {"time": 161659, "pitch": 72, "duration": 60, "velocity": 102}, {"time": 161659, "pitch": 76, "duration": 60, "velocity": 96}, {"time": 161759, "pitch": 64, "duration": 140, "velocity": 100}, {"time": 161759, "pitch": 67, "duration": 140, "velocity": 105}, {"time": 161769, "pitch": 71, "duration": 130, "velocity": 110}, {"time": 161769, "pitch": 76, "duration": 130, "velocity": 116}, {"time": 161899, "pitch": 76, "duration": 60, "velocity": 100}, {"time": 161909, "pitch": 64, "duration": 40, "velocity": 85}, {"time": 161909, "pitch": 67, "duration": 60, "velocity": 90}, {"time": 161989, "pitch": 64, "duration": 70, "velocity": 95}, {"time": 161989, "pitch": 67, "duration": 70, "velocity": 100}, {"time": 161999, "pitch": 71, "duration": 60, "velocity": 105}, {"time": 161999, "pitch": 76, "duration": 60, "velocity": 110}, {"time": 162138, "pitch": 64, "duration": 200, "velocity": 117}, {"time": 162138, "pitch": 67, "duration": 210, "velocity": 117}, {"time": 162138, "pitch": 71, "duration": 210, "velocity": 109}, {"time": 162138, "pitch": 76, "duration": 220, "velocity": 122}, {"time": 162378, "pitch": 67, "duration": 40, "velocity": 85}, {"time": 162378, "pitch": 71, "duration": 40, "velocity": 106}, {"time": 162378, "pitch": 76, "duration": 40, "velocity": 98}, {"time": 162478, "pitch": 64, "duration": 129, "velocity": 112}, {"time": 162478, "pitch": 67, "duration": 129, "velocity": 104}, {"time": 162478, "pitch": 71, "duration": 119, "velocity": 95}, {"time": 162478, "pitch": 76, "duration": 119, "velocity": 91}, {"time": 162617, "pitch": 64, "duration": 10, "velocity": 120}, {"time": 162617, "pitch": 67, "duration": 10, "velocity": 115}, {"time": 162617, "pitch": 71, "duration": 20, "velocity": 110}, {"time": 162617, "pitch": 76, "duration": 20, "velocity": 105}, {"time": 162717, "pitch": 64, "duration": 122, "velocity": 90}, {"time": 162727, "pitch": 67, "duration": 112, "velocity": 95}, {"time": 162737, "pitch": 71, "duration": 102, "velocity": 100}, {"time": 162747, "pitch": 76, "duration": 92, "velocity": 105}, {"time": 162960, "pitch": 64, "duration": 81, "velocity": 97}, {"time": 162960, "pitch": 67, "duration": 81, "velocity": 105}, {"time": 162960, "pitch": 71, "duration": 81, "velocity": 107}, {"time": 162960, "pitch": 76, "duration": 81, "velocity": 112}, {"time": 163102, "pitch": 64, "duration": 10, "velocity": 100}, {"time": 163102, "pitch": 67, "duration": 10, "velocity": 95}, {"time": 163102, "pitch": 71, "duration": 21, "velocity": 90}, {"time": 163102, "pitch": 76, "duration": 21, "velocity": 85}, {"time": 163204, "pitch": 64, "duration": 40, "velocity": 86}, {"time": 163204, "pitch": 67, "duration": 40, "velocity": 92}, {"time": 163214, "pitch": 71, "duration": 30, "velocity": 111}, {"time": 163214, "pitch": 76, "duration": 30, "velocity": 116}, {"time": 163343, "pitch": 71, "duration": 70, "velocity": 98}, {"time": 163343, "pitch": 76, "duration": 70, "velocity": 103}, {"time": 163353, "pitch": 64, "duration": 60, "velocity": 95}, {"time": 163353, "pitch": 67, "duration": 60, "velocity": 89}, {"time": 163443, "pitch": 64, "duration": 120, "velocity": 102}, {"time": 163443, "pitch": 67, "duration": 120, "velocity": 98}, {"time": 163453, "pitch": 71, "duration": 110, "velocity": 91}, {"time": 163453, "pitch": 76, "duration": 110, "velocity": 87}, {"time": 163583, "pitch": 64, "duration": 50, "velocity": 112}, {"time": 163583, "pitch": 67, "duration": 50, "velocity": 108}, {"time": 163583, "pitch": 71, "duration": 60, "velocity": 102}, {"time": 163583, "pitch": 76, "duration": 60, "velocity": 96}, {"time": 163683, "pitch": 64, "duration": 139, "velocity": 100}, {"time": 163683, "pitch": 69, "duration": 139, "velocity": 105}, {"time": 163693, "pitch": 72, "duration": 129, "velocity": 110}, {"time": 163693, "pitch": 76, "duration": 129, "velocity": 116}, {"time": 163822, "pitch": 76, "duration": 60, "velocity": 100}, {"time": 163832, "pitch": 64, "duration": 40, "velocity": 85}, {"time": 163832, "pitch": 69, "duration": 60, "velocity": 90}, {"time": 163912, "pitch": 64, "duration": 70, "velocity": 95}, {"time": 163912, "pitch": 69, "duration": 70, "velocity": 100}, {"time": 163922, "pitch": 72, "duration": 60, "velocity": 105}, {"time": 163922, "pitch": 76, "duration": 60, "velocity": 110}, {"time": 164062, "pitch": 64, "duration": 199, "velocity": 117}, {"time": 164062, "pitch": 69, "duration": 209, "velocity": 117}, {"time": 164062, "pitch": 72, "duration": 209, "velocity": 109}, {"time": 164062, "pitch": 76, "duration": 219, "velocity": 122}, {"time": 164301, "pitch": 69, "duration": 40, "velocity": 85}, {"time": 164301, "pitch": 72, "duration": 40, "velocity": 106}, {"time": 164301, "pitch": 76, "duration": 40, "velocity": 98}, {"time": 164401, "pitch": 64, "duration": 130, "velocity": 112}, {"time": 164401, "pitch": 69, "duration": 130, "velocity": 104}, {"time": 164401, "pitch": 72, "duration": 120, "velocity": 95}, {"time": 164401, "pitch": 76, "duration": 120, "velocity": 91}, {"time": 164541, "pitch": 64, "duration": 10, "velocity": 120}, {"time": 164541, "pitch": 69, "duration": 10, "velocity": 115}, {"time": 164541, "pitch": 72, "duration": 19, "velocity": 110}, {"time": 164541, "pitch": 76, "duration": 19, "velocity": 105}, {"time": 164640, "pitch": 64, "duration": 120, "velocity": 90}, {"time": 164650, "pitch": 69, "duration": 110, "velocity": 95}, {"time": 164660, "pitch": 72, "duration": 100, "velocity": 100}, {"time": 164670, "pitch": 76, "duration": 90, "velocity": 105}, {"time": 164880, "pitch": 64, "duration": 80, "velocity": 97}, {"time": 164880, "pitch": 69, "duration": 80, "velocity": 105}, {"time": 164880, "pitch": 72, "duration": 80, "velocity": 107}, {"time": 164880, "pitch": 76, "duration": 80, "velocity": 112}, {"time": 165019, "pitch": 64, "duration": 10, "velocity": 100}, {"time": 165019, "pitch": 69, "duration": 10, "velocity": 95}, {"time": 165019, "pitch": 72, "duration": 20, "velocity": 90}, {"time": 165019, "pitch": 76, "duration": 20, "velocity": 85}, {"time": 165119, "pitch": 64, "duration": 40, "velocity": 86}, {"time": 165119, "pitch": 69, "duration": 40, "velocity": 92}, {"time": 165129, "pitch": 72, "duration": 30, "velocity": 111}, {"time": 165129, "pitch": 76, "duration": 30, "velocity": 116}, {"time": 165259, "pitch": 72, "duration": 70, "velocity": 98}, {"time": 165259, "pitch": 76, "duration": 70, "velocity": 103}, {"time": 165269, "pitch": 64, "duration": 60, "velocity": 95}, {"time": 165269, "pitch": 69, "duration": 60, "velocity": 89}, {"time": 165359, "pitch": 64, "duration": 119, "velocity": 102}, {"time": 165359, "pitch": 69, "duration": 119, "velocity": 98}, {"time": 165369, "pitch": 72, "duration": 109, "velocity": 91}, {"time": 165369, "pitch": 76, "duration": 109, "velocity": 87}, {"time": 165498, "pitch": 64, "duration": 50, "velocity": 112}, {"time": 165498, "pitch": 69, "duration": 50, "velocity": 108}, {"time": 165498, "pitch": 72, "duration": 60, "velocity": 102}, {"time": 165498, "pitch": 76, "duration": 60, "velocity": 96}, {"time": 165598, "pitch": 65, "duration": 140, "velocity": 100}, {"time": 165598, "pitch": 69, "duration": 140, "velocity": 105}, {"time": 165608, "pitch": 72, "duration": 130, "velocity": 110}, {"time": 165608, "pitch": 77, "duration": 130, "velocity": 116}, {"time": 165738, "pitch": 77, "duration": 60, "velocity": 100}, {"time": 165748, "pitch": 65, "duration": 40, "velocity": 85}, {"time": 165748, "pitch": 69, "duration": 60, "velocity": 90}, {"time": 165828, "pitch": 65, "duration": 69, "velocity": 95}, {"time": 165828, "pitch": 69, "duration": 69, "velocity": 100}, {"time": 165837, "pitch": 72, "duration": 60, "velocity": 105}, {"time": 165837, "pitch": 77, "duration": 60, "velocity": 110}, {"time": 165977, "pitch": 65, "duration": 201, "velocity": 117}, {"time": 165977, "pitch": 69, "duration": 211, "velocity": 117}, {"time": 165977, "pitch": 72, "duration": 211, "velocity": 109}, {"time": 165977, "pitch": 77, "duration": 222, "velocity": 122}, {"time": 166219, "pitch": 69, "duration": 40, "velocity": 85}, {"time": 166219, "pitch": 72, "duration": 40, "velocity": 106}, {"time": 166219, "pitch": 77, "duration": 40, "velocity": 98}, {"time": 166320, "pitch": 65, "duration": 132, "velocity": 112}, {"time": 166320, "pitch": 69, "duration": 132, "velocity": 104}, {"time": 166320, "pitch": 72, "duration": 122, "velocity": 95}, {"time": 166320, "pitch": 77, "duration": 122, "velocity": 91}, {"time": 166462, "pitch": 65, "duration": 10, "velocity": 120}, {"time": 166462, "pitch": 69, "duration": 10, "velocity": 115}, {"time": 166462, "pitch": 72, "duration": 20, "velocity": 110}, {"time": 166462, "pitch": 77, "duration": 20, "velocity": 105}, {"time": 166564, "pitch": 62, "duration": 119, "velocity": 90}, {"time": 166574, "pitch": 69, "duration": 109, "velocity": 95}, {"time": 166584, "pitch": 72, "duration": 99, "velocity": 100}, {"time": 166593, "pitch": 77, "duration": 90, "velocity": 105}, {"time": 166803, "pitch": 62, "duration": 80, "velocity": 97}, {"time": 166803, "pitch": 69, "duration": 80, "velocity": 105}, {"time": 166803, "pitch": 72, "duration": 80, "velocity": 107}, {"time": 166803, "pitch": 77, "duration": 80, "velocity": 112}, {"time": 166943, "pitch": 62, "duration": 10, "velocity": 100}, {"time": 166943, "pitch": 69, "duration": 10, "velocity": 95}, {"time": 166943, "pitch": 72, "duration": 20, "velocity": 90}, {"time": 166943, "pitch": 77, "duration": 20, "velocity": 85}, {"time": 167042, "pitch": 67, "duration": 40, "velocity": 86}, {"time": 167042, "pitch": 71, "duration": 40, "velocity": 92}, {"time": 167052, "pitch": 74, "duration": 30, "velocity": 111}, {"time": 167052, "pitch": 79, "duration": 30, "velocity": 116}, {"time": 167182, "pitch": 74, "duration": 70, "velocity": 98}, {"time": 167182, "pitch": 79, "duration": 70, "velocity": 103}, {"time": 167192, "pitch": 67, "duration": 60, "velocity": 95}, {"time": 167192, "pitch": 71, "duration": 60, "velocity": 89}, {"time": 167282, "pitch": 67, "duration": 120, "velocity": 102}, {"time": 167282, "pitch": 71, "duration": 120, "velocity": 98}, {"time": 167292, "pitch": 74, "duration": 110, "velocity": 91}, {"time": 167292, "pitch": 79, "duration": 110, "velocity": 87}, {"time": 167422, "pitch": 67, "duration": 49, "velocity": 112}, {"time": 167422, "pitch": 71, "duration": 49, "velocity": 108}, {"time": 167422, "pitch": 74, "duration": 59, "velocity": 102}, {"time": 167422, "pitch": 79, "duration": 59, "velocity": 96}, {"time": 167521, "pitch": 60, "duration": 140, "velocity": 100}, {"time": 167521, "pitch": 67, "duration": 140, "velocity": 105}, {"time": 167531, "pitch": 72, "duration": 130, "velocity": 110}, {"time": 167531, "pitch": 76, "duration": 130, "velocity": 116}, {"time": 167661, "pitch": 76, "duration": 60, "velocity": 100}, {"time": 167671, "pitch": 60, "duration": 40, "velocity": 85}, {"time": 167671, "pitch": 67, "duration": 60, "velocity": 90}, {"time": 167751, "pitch": 60, "duration": 70, "velocity": 95}, {"time": 167751, "pitch": 67, "duration": 70, "velocity": 100}, {"time": 167761, "pitch": 72, "duration": 60, "velocity": 105}, {"time": 167761, "pitch": 76, "duration": 60, "velocity": 110}, {"time": 167900, "pitch": 60, "duration": 200, "velocity": 117}, {"time": 167900, "pitch": 67, "duration": 210, "velocity": 117}, {"time": 167900, "pitch": 72, "duration": 210, "velocity": 109}, {"time": 167900, "pitch": 76, "duration": 220, "velocity": 122}, {"time": 168140, "pitch": 67, "duration": 40, "velocity": 85}, {"time": 168140, "pitch": 72, "duration": 40, "velocity": 106}, {"time": 168140, "pitch": 76, "duration": 40, "velocity": 98}, {"time": 168240, "pitch": 60, "duration": 129, "velocity": 112}, {"time": 168240, "pitch": 67, "duration": 129, "velocity": 104}, {"time": 168240, "pitch": 72, "duration": 119, "velocity": 95}, {"time": 168240, "pitch": 76, "duration": 119, "velocity": 91}, {"time": 168379, "pitch": 60, "duration": 10, "velocity": 120}, {"time": 168379, "pitch": 67, "duration": 10, "velocity": 115}, {"time": 168379, "pitch": 72, "duration": 20, "velocity": 110}, {"time": 168379, "pitch": 76, "duration": 20, "velocity": 105}, {"time": 168479, "pitch": 60, "duration": 120, "velocity": 90}, {"time": 168489, "pitch": 67, "duration": 110, "velocity": 95}, {"time": 168499, "pitch": 72, "duration": 100, "velocity": 100}, {"time": 168509, "pitch": 76, "duration": 90, "velocity": 105}, {"time": 168719, "pitch": 60, "duration": 79, "velocity": 97}, {"time": 168719, "pitch": 67, "duration": 79, "velocity": 105}, {"time": 168719, "pitch": 72, "duration": 79, "velocity": 107}, {"time": 168719, "pitch": 76, "duration": 79, "velocity": 112}, {"time": 168858, "pitch": 60, "duration": 10, "velocity": 100}, {"time": 168858, "pitch": 67, "duration": 10, "velocity": 95}, {"time": 168858, "pitch": 72, "duration": 20, "velocity": 90}, {"time": 168858, "pitch": 76, "duration": 20, "velocity": 85}, {"time": 168958, "pitch": 60, "duration": 40, "velocity": 86}, {"time": 168958, "pitch": 67, "duration": 40, "velocity": 92}, {"time": 168968, "pitch": 72, "duration": 30, "velocity": 111}, {"time": 168968, "pitch": 76, "duration": 30, "velocity": 116}, {"time": 169098, "pitch": 72, "duration": 69, "velocity": 98}, {"time": 169098, "pitch": 76, "duration": 69, "velocity": 103}, {"time": 169108, "pitch": 60, "duration": 59, "velocity": 95}, {"time": 169108, "pitch": 67, "duration": 59, "velocity": 89}, {"time": 169197, "pitch": 60, "duration": 120, "velocity": 102}, {"time": 169197, "pitch": 67, "duration": 120, "velocity": 98}, {"time": 169207, "pitch": 72, "duration": 110, "velocity": 91}, {"time": 169207, "pitch": 76, "duration": 110, "velocity": 87}, {"time": 169337, "pitch": 60, "duration": 50, "velocity": 112}, {"time": 169337, "pitch": 67, "duration": 50, "velocity": 108}, {"time": 169337, "pitch": 72, "duration": 60, "velocity": 102}, {"time": 169337, "pitch": 76, "duration": 60, "velocity": 96}, {"time": 169437, "pitch": 64, "duration": 142, "velocity": 100}, {"time": 169437, "pitch": 67, "duration": 142, "velocity": 105}, {"time": 169447, "pitch": 71, "duration": 132, "velocity": 110}, {"time": 169447, "pitch": 76, "duration": 132, "velocity": 116}, {"time": 169579, "pitch": 76, "duration": 61, "velocity": 100}, {"time": 169589, "pitch": 64, "duration": 40, "velocity": 85}, {"time": 169589, "pitch": 67, "duration": 61, "velocity": 90}, {"time": 169670, "pitch": 64, "duration": 71, "velocity": 95}, {"time": 169670, "pitch": 67, "duration": 71, "velocity": 100}, {"time": 169680, "pitch": 71, "duration": 61, "velocity": 105}, {"time": 169680, "pitch": 76, "duration": 61, "velocity": 110}, {"time": 169822, "pitch": 64, "duration": 201, "velocity": 117}, {"time": 169822, "pitch": 67, "duration": 211, "velocity": 117}, {"time": 169822, "pitch": 71, "duration": 211, "velocity": 109}, {"time": 169822, "pitch": 76, "duration": 221, "velocity": 122}, {"time": 170063, "pitch": 67, "duration": 40, "velocity": 85}, {"time": 170063, "pitch": 71, "duration": 40, "velocity": 106}, {"time": 170063, "pitch": 76, "duration": 40, "velocity": 98}, {"time": 170163, "pitch": 64, "duration": 130, "velocity": 117}, {"time": 170163, "pitch": 69, "duration": 209, "velocity": 117}, {"time": 170163, "pitch": 72, "duration": 209, "velocity": 109}, {"time": 170163, "pitch": 76, "duration": 219, "velocity": 122}, {"time": 170402, "pitch": 64, "duration": 230, "velocity": 90}, {"time": 170412, "pitch": 69, "duration": 220, "velocity": 95}, {"time": 170422, "pitch": 72, "duration": 210, "velocity": 100}, {"time": 170432, "pitch": 76, "duration": 200, "velocity": 105}, {"time": 170642, "pitch": 64, "duration": 80, "velocity": 97}, {"time": 170642, "pitch": 69, "duration": 80, "velocity": 105}, {"time": 170642, "pitch": 72, "duration": 80, "velocity": 107}, {"time": 170642, "pitch": 76, "duration": 80, "velocity": 112}, {"time": 170881, "pitch": 64, "duration": 40, "velocity": 86}, {"time": 170881, "pitch": 69, "duration": 40, "velocity": 92}, {"time": 170891, "pitch": 72, "duration": 30, "velocity": 111}, {"time": 170891, "pitch": 76, "duration": 30, "velocity": 116}, {"time": 171021, "pitch": 72, "duration": 70, "velocity": 98}, {"time": 171021, "pitch": 76, "duration": 70, "velocity": 103}, {"time": 171031, "pitch": 64, "duration": 60, "velocity": 95}, {"time": 171031, "pitch": 69, "duration": 60, "velocity": 89}, {"time": 171121, "pitch": 64, "duration": 119, "velocity": 102}, {"time": 171121, "pitch": 69, "duration": 119, "velocity": 98}, {"time": 171131, "pitch": 72, "duration": 109, "velocity": 91}, {"time": 171131, "pitch": 76, "duration": 109, "velocity": 87}, {"time": 171260, "pitch": 64, "duration": 50, "velocity": 112}, {"time": 171260, "pitch": 69, "duration": 50, "velocity": 108}, {"time": 171260, "pitch": 72, "duration": 60, "velocity": 102}, {"time": 171260, "pitch": 76, "duration": 60, "velocity": 96}, {"time": 171360, "pitch": 62, "duration": 140, "velocity": 100}, {"time": 171360, "pitch": 69, "duration": 140, "velocity": 105}, {"time": 171370, "pitch": 72, "duration": 130, "velocity": 110}, {"time": 171370, "pitch": 77, "duration": 130, "velocity": 116}, {"time": 171500, "pitch": 77, "duration": 60, "velocity": 100}, {"time": 171510, "pitch": 62, "duration": 40, "velocity": 85}, {"time": 171510, "pitch": 69, "duration": 60, "velocity": 90}, {"time": 171590, "pitch": 62, "duration": 69, "velocity": 95}, {"time": 171590, "pitch": 69, "duration": 69, "velocity": 100}, {"time": 171600, "pitch": 72, "duration": 59, "velocity": 105}, {"time": 171600, "pitch": 77, "duration": 59, "velocity": 110}, {"time": 171739, "pitch": 62, "duration": 200, "velocity": 117}, {"time": 171739, "pitch": 69, "duration": 210, "velocity": 117}, {"time": 171739, "pitch": 72, "duration": 210, "velocity": 109}, {"time": 171739, "pitch": 77, "duration": 220, "velocity": 122}, {"time": 171979, "pitch": 69, "duration": 40, "velocity": 85}, {"time": 171979, "pitch": 72, "duration": 40, "velocity": 106}, {"time": 171979, "pitch": 77, "duration": 40, "velocity": 98}, {"time": 172078, "pitch": 62, "duration": 130, "velocity": 112}, {"time": 172078, "pitch": 69, "duration": 130, "velocity": 104}, {"time": 172078, "pitch": 72, "duration": 120, "velocity": 95}, {"time": 172078, "pitch": 77, "duration": 120, "velocity": 91}, {"time": 172218, "pitch": 62, "duration": 10, "velocity": 120}, {"time": 172218, "pitch": 69, "duration": 10, "velocity": 115}, {"time": 172218, "pitch": 72, "duration": 20, "velocity": 110}, {"time": 172218, "pitch": 77, "duration": 20, "velocity": 105}, {"time": 172318, "pitch": 62, "duration": 120, "velocity": 90}, {"time": 172328, "pitch": 69, "duration": 110, "velocity": 95}, {"time": 172338, "pitch": 72, "duration": 100, "velocity": 100}, {"time": 172348, "pitch": 77, "duration": 90, "velocity": 105}, {"time": 172557, "pitch": 62, "duration": 80, "velocity": 97}, {"time": 172557, "pitch": 69, "duration": 80, "velocity": 105}, {"time": 172557, "pitch": 72, "duration": 80, "velocity": 107}, {"time": 172557, "pitch": 77, "duration": 80, "velocity": 112}, {"time": 172697, "pitch": 62, "duration": 10, "velocity": 100}, {"time": 172697, "pitch": 69, "duration": 10, "velocity": 95}, {"time": 172697, "pitch": 72, "duration": 20, "velocity": 90}, {"time": 172697, "pitch": 77, "duration": 20, "velocity": 85}, {"time": 172797, "pitch": 62, "duration": 40, "velocity": 86}, {"time": 172797, "pitch": 69, "duration": 40, "velocity": 92}, {"time": 172807, "pitch": 72, "duration": 30, "velocity": 111}, {"time": 172807, "pitch": 77, "duration": 30, "velocity": 116}, {"time": 172939, "pitch": 72, "duration": 71, "velocity": 98}, {"time": 172939, "pitch": 77, "duration": 71, "velocity": 103}, {"time": 172949, "pitch": 62, "duration": 61, "velocity": 95}, {"time": 172949, "pitch": 69, "duration": 61, "velocity": 89}, {"time": 173040, "pitch": 62, "duration": 122, "velocity": 102}, {"time": 173040, "pitch": 69, "duration": 122, "velocity": 98}, {"time": 173050, "pitch": 72, "duration": 112, "velocity": 91}, {"time": 173050, "pitch": 77, "duration": 112, "velocity": 87}, {"time": 173182, "pitch": 62, "duration": 51, "velocity": 112}, {"time": 173182, "pitch": 69, "duration": 51, "velocity": 108}, {"time": 173182, "pitch": 72, "duration": 61, "velocity": 102}, {"time": 173182, "pitch": 77, "duration": 61, "velocity": 96}, {"time": 173283, "pitch": 65, "duration": 140, "velocity": 100}, {"time": 173283, "pitch": 68, "duration": 140, "velocity": 105}, {"time": 173293, "pitch": 72, "duration": 130, "velocity": 110}, {"time": 173293, "pitch": 77, "duration": 130, "velocity": 116}, {"time": 173423, "pitch": 77, "duration": 60, "velocity": 100}, {"time": 173433, "pitch": 65, "duration": 40, "velocity": 85}, {"time": 173433, "pitch": 68, "duration": 60, "velocity": 90}, {"time": 173513, "pitch": 65, "duration": 70, "velocity": 95}, {"time": 173513, "pitch": 68, "duration": 70, "velocity": 100}, {"time": 173523, "pitch": 72, "duration": 60, "velocity": 105}, {"time": 173523, "pitch": 77, "duration": 60, "velocity": 110}, {"time": 173663, "pitch": 65, "duration": 199, "velocity": 117}, {"time": 173663, "pitch": 68, "duration": 209, "velocity": 117}, {"time": 173663, "pitch": 72, "duration": 209, "velocity": 109}, {"time": 173663, "pitch": 77, "duration": 219, "velocity": 122}, {"time": 173902, "pitch": 68, "duration": 40, "velocity": 85}, {"time": 173902, "pitch": 72, "duration": 40, "velocity": 106}, {"time": 173902, "pitch": 77, "duration": 40, "velocity": 98}, {"time": 174002, "pitch": 65, "duration": 129, "velocity": 112}, {"time": 174002, "pitch": 68, "duration": 129, "velocity": 104}, {"time": 174002, "pitch": 72, "duration": 119, "velocity": 95}, {"time": 174002, "pitch": 77, "duration": 119, "velocity": 91}, {"time": 174141, "pitch": 65, "duration": 10, "velocity": 120}, {"time": 174141, "pitch": 68, "duration": 10, "velocity": 115}, {"time": 174141, "pitch": 72, "duration": 20, "velocity": 110}, {"time": 174141, "pitch": 77, "duration": 20, "velocity": 105}, {"time": 174241, "pitch": 65, "duration": 120, "velocity": 90}, {"time": 174251, "pitch": 68, "duration": 110, "velocity": 95}, {"time": 174261, "pitch": 72, "duration": 100, "velocity": 100}, {"time": 174271, "pitch": 77, "duration": 90, "velocity": 105}, {"time": 174481, "pitch": 65, "duration": 79, "velocity": 97}, {"time": 174481, "pitch": 68, "duration": 79, "velocity": 105}, {"time": 174481, "pitch": 72, "duration": 79, "velocity": 107}, {"time": 174481, "pitch": 77, "duration": 79, "velocity": 112}, {"time": 174620, "pitch": 65, "duration": 10, "velocity": 100}, {"time": 174620, "pitch": 68, "duration": 10, "velocity": 95}, {"time": 174620, "pitch": 72, "duration": 20, "velocity": 90}, {"time": 174620, "pitch": 77, "duration": 20, "velocity": 85}, {"time": 174720, "pitch": 67, "duration": 40, "velocity": 86}, {"time": 174720, "pitch": 71, "duration": 40, "velocity": 92}, {"time": 174730, "pitch": 74, "duration": 30, "velocity": 111}, {"time": 174730, "pitch": 79, "duration": 30, "velocity": 116}, {"time": 174860, "pitch": 74, "duration": 70, "velocity": 98}, {"time": 174860, "pitch": 79, "duration": 70, "velocity": 103}, {"time": 174870, "pitch": 67, "duration": 60, "velocity": 95}, {"time": 174870, "pitch": 71, "duration": 60, "velocity": 89}, {"time": 174959, "pitch": 67, "duration": 120, "velocity": 102}, {"time": 174959, "pitch": 71, "duration": 120, "velocity": 98}, {"time": 174969, "pitch": 74, "duration": 110, "velocity": 91}, {"time": 174969, "pitch": 79, "duration": 110, "velocity": 87}, {"time": 175099, "pitch": 67, "duration": 50, "velocity": 112}, {"time": 175099, "pitch": 71, "duration": 50, "velocity": 108}, {"time": 175099, "pitch": 74, "duration": 60, "velocity": 102}, {"time": 175099, "pitch": 79, "duration": 60, "velocity": 96}, {"time": 175199, "pitch": 60, "duration": 140, "velocity": 100}, {"time": 175199, "pitch": 67, "duration": 140, "velocity": 105}, {"time": 175209, "pitch": 72, "duration": 130, "velocity": 110}, {"time": 175209, "pitch": 76, "duration": 130, "velocity": 116}, {"time": 175339, "pitch": 76, "duration": 59, "velocity": 100}, {"time": 175349, "pitch": 60, "duration": 39, "velocity": 85}, {"time": 175349, "pitch": 67, "duration": 59, "velocity": 90}, {"time": 175428, "pitch": 60, "duration": 70, "velocity": 95}, {"time": 175428, "pitch": 67, "duration": 70, "velocity": 100}, {"time": 175438, "pitch": 72, "duration": 60, "velocity": 105}, {"time": 175438, "pitch": 76, "duration": 60, "velocity": 110}, {"time": 175578, "pitch": 60, "duration": 200, "velocity": 117}, {"time": 175578, "pitch": 67, "duration": 210, "velocity": 117}, {"time": 175578, "pitch": 72, "duration": 210, "velocity": 109}, {"time": 175578, "pitch": 76, "duration": 220, "velocity": 122}, {"time": 175817, "pitch": 67, "duration": 40, "velocity": 85}, {"time": 175817, "pitch": 72, "duration": 40, "velocity": 106}, {"time": 175817, "pitch": 76, "duration": 40, "velocity": 98}, {"time": 175917, "pitch": 60, "duration": 130, "velocity": 112}, {"time": 175917, "pitch": 67, "duration": 130, "velocity": 104}, {"time": 175917, "pitch": 72, "duration": 120, "velocity": 95}, {"time": 175917, "pitch": 76, "duration": 120, "velocity": 91}, {"time": 176057, "pitch": 60, "duration": 10, "velocity": 120}, {"time": 176057, "pitch": 67, "duration": 10, "velocity": 115}, {"time": 176057, "pitch": 72, "duration": 20, "velocity": 110}, {"time": 176057, "pitch": 76, "duration": 20, "velocity": 105}, {"time": 176157, "pitch": 60, "duration": 121, "velocity": 90}, {"time": 176167, "pitch": 67, "duration": 111, "velocity": 95}, {"time": 176177, "pitch": 72, "duration": 101, "velocity": 100}, {"time": 176187, "pitch": 76, "duration": 91, "velocity": 105}, {"time": 176400, "pitch": 60, "duration": 81, "velocity": 97}, {"time": 176400, "pitch": 67, "duration": 81, "velocity": 105}, {"time": 176400, "pitch": 72, "duration": 81, "velocity": 107}, {"time": 176400, "pitch": 76, "duration": 81, "velocity": 112}, {"time": 176542, "pitch": 60, "duration": 10, "velocity": 100}, {"time": 176542, "pitch": 67, "duration": 10, "velocity": 95}, {"time": 176542, "pitch": 72, "duration": 20, "velocity": 90}, {"time": 176542, "pitch": 76, "duration": 20, "velocity": 85}, {"time": 176643, "pitch": 60, "duration": 40, "velocity": 86}, {"time": 176643, "pitch": 67, "duration": 40, "velocity": 92}, {"time": 176653, "pitch": 72, "duration": 30, "velocity": 111}, {"time": 176653, "pitch": 76, "duration": 30, "velocity": 116}, {"time": 176783, "pitch": 72, "duration": 70, "velocity": 98}, {"time": 176783, "pitch": 76, "duration": 70, "velocity": 103}, {"time": 176793, "pitch": 60, "duration": 60, "velocity": 95}, {"time": 176793, "pitch": 67, "duration": 60, "velocity": 89}, {"time": 176883, "pitch": 60, "duration": 119, "velocity": 102}, {"time": 176883, "pitch": 67, "duration": 119, "velocity": 98}, {"time": 176893, "pitch": 72, "duration": 109, "velocity": 91}, {"time": 176893, "pitch": 76, "duration": 109, "velocity": 87}, {"time": 177022, "pitch": 60, "duration": 50, "velocity": 112}, {"time": 177022, "pitch": 67, "duration": 50, "velocity": 108}, {"time": 177022, "pitch": 72, "duration": 60, "velocity": 102}, {"time": 177022, "pitch": 76, "duration": 60, "velocity": 96}, {"time": 177122, "pitch": 60, "duration": 141, "velocity": 100}, {"time": 177122, "pitch": 68, "duration": 141, "velocity": 105}, {"time": 177132, "pitch": 72, "duration": 131, "velocity": 110}, {"time": 177132, "pitch": 77, "duration": 131, "velocity": 116}, {"time": 177263, "pitch": 77, "duration": 60, "velocity": 100}, {"time": 177273, "pitch": 60, "duration": 40, "velocity": 85}, {"time": 177273, "pitch": 68, "duration": 60, "velocity": 90}, {"time": 177353, "pitch": 60, "duration": 70, "velocity": 95}, {"time": 177353, "pitch": 68, "duration": 70, "velocity": 100}, {"time": 177363, "pitch": 72, "duration": 60, "velocity": 105}, {"time": 177363, "pitch": 77, "duration": 60, "velocity": 110}, {"time": 177503, "pitch": 60, "duration": 199, "velocity": 117}, {"time": 177503, "pitch": 68, "duration": 209, "velocity": 117}, {"time": 177503, "pitch": 72, "duration": 209, "velocity": 109}, {"time": 177503, "pitch": 77, "duration": 219, "velocity": 122}, {"time": 177741, "pitch": 68, "duration": 40, "velocity": 85}, {"time": 177741, "pitch": 72, "duration": 40, "velocity": 106}, {"time": 177741, "pitch": 77, "duration": 40, "velocity": 98}, {"time": 177840, "pitch": 60, "duration": 128, "velocity": 112}, {"time": 177840, "pitch": 68, "duration": 128, "velocity": 104}, {"time": 177840, "pitch": 72, "duration": 119, "velocity": 95}, {"time": 177840, "pitch": 77, "duration": 119, "velocity": 91}, {"time": 177978, "pitch": 60, "duration": 10, "velocity": 120}, {"time": 177978, "pitch": 68, "duration": 10, "velocity": 115}, {"time": 177978, "pitch": 72, "duration": 20, "velocity": 110}, {"time": 177978, "pitch": 77, "duration": 20, "velocity": 105}, {"time": 178077, "pitch": 60, "duration": 120, "velocity": 90}, {"time": 178087, "pitch": 68, "duration": 110, "velocity": 95}, {"time": 178097, "pitch": 72, "duration": 100, "velocity": 100}, {"time": 178107, "pitch": 77, "duration": 90, "velocity": 105}, {"time": 178317, "pitch": 60, "duration": 80, "velocity": 97}, {"time": 178317, "pitch": 68, "duration": 80, "velocity": 105}, {"time": 178317, "pitch": 72, "duration": 80, "velocity": 107}, {"time": 178317, "pitch": 77, "duration": 80, "velocity": 112}, {"time": 178457, "pitch": 60, "duration": 10, "velocity": 100}, {"time": 178457, "pitch": 68, "duration": 10, "velocity": 95}, {"time": 178457, "pitch": 72, "duration": 20, "velocity": 90}, {"time": 178457, "pitch": 77, "duration": 20, "velocity": 85}, {"time": 178557, "pitch": 60, "duration": 40, "velocity": 86}, {"time": 178557, "pitch": 68, "duration": 40, "velocity": 92}, {"time": 178567, "pitch": 72, "duration": 30, "velocity": 111}, {"time": 178567, "pitch": 77, "duration": 30, "velocity": 116}, {"time": 178699, "pitch": 72, "duration": 71, "velocity": 98}, {"time": 178699, "pitch": 77, "duration": 71, "velocity": 103}, {"time": 178709, "pitch": 60, "duration": 61, "velocity": 95}, {"time": 178709, "pitch": 68, "duration": 61, "velocity": 89}, {"time": 178800, "pitch": 60, "duration": 122, "velocity": 102}, {"time": 178800, "pitch": 68, "duration": 122, "velocity": 98}, {"time": 178810, "pitch": 72, "duration": 112, "velocity": 91}, {"time": 178810, "pitch": 77, "duration": 112, "velocity": 87}, {"time": 178942, "pitch": 60, "duration": 51, "velocity": 112}, {"time": 178942, "pitch": 68, "duration": 51, "velocity": 108}, {"time": 178942, "pitch": 72, "duration": 61, "velocity": 102}, {"time": 178942, "pitch": 77, "duration": 61, "velocity": 96}, {"time": 179043, "pitch": 60, "duration": 3351, "velocity": 100}, {"time": 179043, "pitch": 67, "duration": 3351, "velocity": 105}, {"time": 179053, "pitch": 72, "duration": 3351, "velocity": 110}, {"time": 179053, "pitch": 76, "duration": 3351, "velocity": 116}], "annotations": [{"time": 241, "annotation": {"number": 7, "value": 45}, "group": "control_change"}, {"time": 252, "annotation": {"number": 11, "value": 127}, "group": "control_change"}, {"time": 264, "annotation": {"number": 10, "value": 4}, "group": "control_change"}, {"time": 275, "annotation": {"number": 91, "value": 49}, "group": "control_change"}, {"time": 287, "annotation": {"number": 93, "value": 10}, "group": "control_change"}, {"time": 310, "annotation": {"number": 101, "value": 0}, "group": "control_change"}, {"time": 321, "annotation": {"number": 100, "value": 0}, "group": "control_change"}, {"time": 333, "annotation": {"number": 6, "value": 12}, "group": "control_change"}, {"time": 447, "annotation": {"number": 101, "value": 127}, "group": "control_change"}, {"time": 459, "annotation": {"number": 100, "value": 127}, "group": "control_change"}]}, {"program": 0, "is_drum": false, "name": "F.GUITAR", "annotations": [{"time": 207, "annotation": {"number": 0, "value": 32}, "group": "control_change"}, {"time": 218, "annotation": {"number": 32, "value": 2}, "group": "control_change"}]}, {"program": 25, "is_drum": false, "name": "F.GUITAR", "notes": [{"time": 483, "pitch": 48, "duration": 140, "velocity": 100}, {"time": 483, "pitch": 55, "duration": 140, "velocity": 105}, {"time": 493, "pitch": 60, "duration": 130, "velocity": 110}, {"time": 493, "pitch": 64, "duration": 130, "velocity": 116}, {"time": 623, "pitch": 64, "duration": 60, "velocity": 100}, {"time": 633, "pitch": 48, "duration": 40, "velocity": 85}, {"time": 633, "pitch": 55, "duration": 60, "velocity": 90}, {"time": 713, "pitch": 48, "duration": 70, "velocity": 95}, {"time": 713, "pitch": 55, "duration": 70, "velocity": 100}, {"time": 723, "pitch": 60, "duration": 60, "velocity": 105}, {"time": 723, "pitch": 64, "duration": 60, "velocity": 110}, {"time": 862, "pitch": 48, "duration": 200, "velocity": 117}, {"time": 862, "pitch": 55, "duration": 210, "velocity": 117}, {"time": 862, "pitch": 60, "duration": 210, "velocity": 109}, {"time": 862, "pitch": 64, "duration": 220, "velocity": 122}, {"time": 1102, "pitch": 55, "duration": 40, "velocity": 85}, {"time": 1102, "pitch": 60, "duration": 40, "velocity": 106}, {"time": 1102, "pitch": 64, "duration": 40, "velocity": 98}, {"time": 1202, "pitch": 48, "duration": 129, "velocity": 112}, {"time": 1202, "pitch": 55, "duration": 129, "velocity": 104}, {"time": 1202, "pitch": 60, "duration": 119, "velocity": 95}, {"time": 1202, "pitch": 64, "duration": 119, "velocity": 91}, {"time": 1341, "pitch": 48, "duration": 10, "velocity": 120}, {"time": 1341, "pitch": 55, "duration": 10, "velocity": 115}, {"time": 1341, "pitch": 60, "duration": 20, "velocity": 110}, {"time": 1341, "pitch": 64, "duration": 20, "velocity": 105}, {"time": 1441, "pitch": 48, "duration": 229, "velocity": 90}, {"time": 1451, "pitch": 55, "duration": 219, "velocity": 95}, {"time": 1461, "pitch": 60, "duration": 209, "velocity": 100}, {"time": 1471, "pitch": 64, "duration": 199, "velocity": 105}, {"time": 1680, "pitch": 48, "duration": 80, "velocity": 97}, {"time": 1680, "pitch": 55, "duration": 80, "velocity": 105}, {"time": 1680, "pitch": 60, "duration": 80, "velocity": 107}, {"time": 1680, "pitch": 64, "duration": 80, "velocity": 112}, {"time": 1920, "pitch": 48, "duration": 40, "velocity": 86}, {"time": 1920, "pitch": 55, "duration": 40, "velocity": 92}, {"time": 1930, "pitch": 60, "duration": 30, "velocity": 111}, {"time": 1930, "pitch": 64, "duration": 30, "velocity": 116}, {"time": 2060, "pitch": 60, "duration": 69, "velocity": 98}, {"time": 2060, "pitch": 64, "duration": 69, "velocity": 103}, {"time": 2070, "pitch": 48, "duration": 59, "velocity": 95}, {"time": 2070, "pitch": 55, "duration": 59, "velocity": 89}, {"time": 2159, "pitch": 48, "duration": 120, "velocity": 102}, {"time": 2159, "pitch": 55, "duration": 120, "velocity": 98}, {"time": 2169, "pitch": 60, "duration": 110, "velocity": 91}, {"time": 2169, "pitch": 64, "duration": 110, "velocity": 87}, {"time": 2299, "pitch": 48, "duration": 50, "velocity": 112}, {"time": 2299, "pitch": 55, "duration": 50, "velocity": 108}, {"time": 2299, "pitch": 60, "duration": 60, "velocity": 102}, {"time": 2299, "pitch": 64, "duration": 60, "velocity": 96}, {"time": 2399, "pitch": 52, "duration": 139, "velocity": 100}, {"time": 2399, "pitch": 57, "duration": 139, "velocity": 105}, {"time": 2409, "pitch": 60, "duration": 129, "velocity": 110}, {"time": 2409, "pitch": 64, "duration": 129, "velocity": 116}, {"time": 2538, "pitch": 64, "duration": 60, "velocity": 100}, {"time": 2548, "pitch": 52, "duration": 40, "velocity": 85}, {"time": 2548, "pitch": 57, "duration": 60, "velocity": 90}, {"time": 2628, "pitch": 52, "duration": 70, "velocity": 95}, {"time": 2628, "pitch": 57, "duration": 70, "velocity": 100}, {"time": 2638, "pitch": 60, "duration": 60, "velocity": 105}, {"time": 2638, "pitch": 64, "duration": 60, "velocity": 110}, {"time": 2778, "pitch": 52, "duration": 199, "velocity": 117}, {"time": 2778, "pitch": 57, "duration": 209, "velocity": 117}, {"time": 2778, "pitch": 60, "duration": 209, "velocity": 109}, {"time": 2778, "pitch": 64, "duration": 219, "velocity": 122}, {"time": 3017, "pitch": 57, "duration": 40, "velocity": 85}, {"time": 3017, "pitch": 60, "duration": 40, "velocity": 106}, {"time": 3017, "pitch": 64, "duration": 40, "velocity": 98}, {"time": 3117, "pitch": 52, "duration": 130, "velocity": 112}, {"time": 3117, "pitch": 57, "duration": 130, "velocity": 104}, {"time": 3117, "pitch": 60, "duration": 120, "velocity": 95}, {"time": 3117, "pitch": 64, "duration": 120, "velocity": 91}, {"time": 3257, "pitch": 52, "duration": 10, "velocity": 120}, {"time": 3257, "pitch": 57, "duration": 10, "velocity": 115}, {"time": 3257, "pitch": 60, "duration": 20, "velocity": 110}, {"time": 3257, "pitch": 64, "duration": 20, "velocity": 105}, {"time": 3357, "pitch": 52, "duration": 233, "velocity": 90}, {"time": 3367, "pitch": 57, "duration": 223, "velocity": 95}, {"time": 3377, "pitch": 60, "duration": 213, "velocity": 100}, {"time": 3387, "pitch": 64, "duration": 203, "velocity": 105}, {"time": 3600, "pitch": 52, "duration": 81, "velocity": 97}, {"time": 3600, "pitch": 57, "duration": 81, "velocity": 105}, {"time": 3600, "pitch": 60, "duration": 81, "velocity": 107}, {"time": 3600, "pitch": 64, "duration": 81, "velocity": 112}, {"time": 3843, "pitch": 52, "duration": 40, "velocity": 86}, {"time": 3843, "pitch": 57, "duration": 40, "velocity": 92}, {"time": 3853, "pitch": 60, "duration": 30, "velocity": 111}, {"time": 3853, "pitch": 64, "duration": 30, "velocity": 116}, {"time": 3983, "pitch": 60, "duration": 70, "velocity": 98}, {"time": 3983, "pitch": 64, "duration": 70, "velocity": 103}, {"time": 3993, "pitch": 52, "duration": 60, "velocity": 95}, {"time": 3993, "pitch": 57, "duration": 60, "velocity": 89}, {"time": 4083, "pitch": 52, "duration": 119, "velocity": 102}, {"time": 4083, "pitch": 57, "duration": 119, "velocity": 98}, {"time": 4093, "pitch": 60, "duration": 109, "velocity": 91}, {"time": 4093, "pitch": 64, "duration": 109, "velocity": 87}, {"time": 4222, "pitch": 52, "duration": 50, "velocity": 112}, {"time": 4222, "pitch": 57, "duration": 50, "velocity": 108}, {"time": 4222, "pitch": 60, "duration": 60, "velocity": 102}, {"time": 4222, "pitch": 64, "duration": 60, "velocity": 96}, {"time": 4322, "pitch": 53, "duration": 140, "velocity": 100}, {"time": 4322, "pitch": 57, "duration": 140, "velocity": 105}, {"time": 4332, "pitch": 60, "duration": 130, "velocity": 110}, {"time": 4332, "pitch": 65, "duration": 130, "velocity": 116}, {"time": 4462, "pitch": 65, "duration": 60, "velocity": 100}, {"time": 4472, "pitch": 53, "duration": 40, "velocity": 85}, {"time": 4472, "pitch": 57, "duration": 60, "velocity": 90}, {"time": 4552, "pitch": 53, "duration": 69, "velocity": 95}, {"time": 4552, "pitch": 57, "duration": 69, "velocity": 100}, {"time": 4562, "pitch": 60, "duration": 59, "velocity": 105}, {"time": 4562, "pitch": 65, "duration": 59, "velocity": 110}, {"time": 4701, "pitch": 53, "duration": 200, "velocity": 117}, {"time": 4701, "pitch": 57, "duration": 210, "velocity": 117}, {"time": 4701, "pitch": 60, "duration": 210, "velocity": 109}, {"time": 4701, "pitch": 65, "duration": 220, "velocity": 122}, {"time": 4941, "pitch": 57, "duration": 40, "velocity": 85}, {"time": 4941, "pitch": 60, "duration": 40, "velocity": 106}, {"time": 4941, "pitch": 65, "duration": 40, "velocity": 98}, {"time": 5040, "pitch": 53, "duration": 130, "velocity": 112}, {"time": 5040, "pitch": 57, "duration": 130, "velocity": 104}, {"time": 5040, "pitch": 60, "duration": 120, "velocity": 95}, {"time": 5040, "pitch": 65, "duration": 120, "velocity": 91}, {"time": 5180, "pitch": 53, "duration": 10, "velocity": 120}, {"time": 5180, "pitch": 57, "duration": 10, "velocity": 115}, {"time": 5180, "pitch": 60, "duration": 20, "velocity": 110}, {"time": 5180, "pitch": 65, "duration": 20, "velocity": 105}, {"time": 5280, "pitch": 53, "duration": 229, "velocity": 90}, {"time": 5290, "pitch": 57, "duration": 219, "velocity": 95}, {"time": 5300, "pitch": 60, "duration": 209, "velocity": 100}, {"time": 5310, "pitch": 65, "duration": 199, "velocity": 105}, {"time": 5519, "pitch": 53, "duration": 80, "velocity": 97}, {"time": 5519, "pitch": 57, "duration": 80, "velocity": 105}, {"time": 5519, "pitch": 60, "duration": 80, "velocity": 107}, {"time": 5519, "pitch": 65, "duration": 80, "velocity": 112}, {"time": 5759, "pitch": 53, "duration": 40, "velocity": 86}, {"time": 5759, "pitch": 57, "duration": 40, "velocity": 92}, {"time": 5769, "pitch": 60, "duration": 30, "velocity": 111}, {"time": 5769, "pitch": 65, "duration": 30, "velocity": 116}, {"time": 5898, "pitch": 60, "duration": 70, "velocity": 98}, {"time": 5898, "pitch": 65, "duration": 70, "velocity": 103}, {"time": 5908, "pitch": 53, "duration": 60, "velocity": 95}, {"time": 5908, "pitch": 57, "duration": 60, "velocity": 89}, {"time": 5998, "pitch": 53, "duration": 120, "velocity": 102}, {"time": 5998, "pitch": 57, "duration": 120, "velocity": 98}, {"time": 6008, "pitch": 60, "duration": 110, "velocity": 91}, {"time": 6008, "pitch": 65, "duration": 110, "velocity": 87}, {"time": 6138, "pitch": 53, "duration": 50, "velocity": 112}, {"time": 6138, "pitch": 57, "duration": 50, "velocity": 108}, {"time": 6138, "pitch": 60, "duration": 60, "velocity": 102}, {"time": 6138, "pitch": 65, "duration": 60, "velocity": 96}, {"time": 6238, "pitch": 50, "duration": 139, "velocity": 100}, {"time": 6238, "pitch": 57, "duration": 139, "velocity": 105}, {"time": 6248, "pitch": 60, "duration": 129, "velocity": 110}, {"time": 6248, "pitch": 65, "duration": 129, "velocity": 116}, {"time": 6377, "pitch": 65, "duration": 60, "velocity": 100}, {"time": 6387, "pitch": 50, "duration": 40, "velocity": 85}, {"time": 6387, "pitch": 57, "duration": 60, "velocity": 90}, {"time": 6467, "pitch": 50, "duration": 70, "velocity": 95}, {"time": 6467, "pitch": 57, "duration": 70, "velocity": 100}, {"time": 6477, "pitch": 60, "duration": 60, "velocity": 105}, {"time": 6477, "pitch": 65, "duration": 60, "velocity": 110}, {"time": 6617, "pitch": 50, "duration": 201, "velocity": 117}, {"time": 6617, "pitch": 57, "duration": 211, "velocity": 117}, {"time": 6617, "pitch": 60, "duration": 211, "velocity": 109}, {"time": 6617, "pitch": 65, "duration": 221, "velocity": 122}, {"time": 6858, "pitch": 57, "duration": 41, "velocity": 85}, {"time": 6858, "pitch": 60, "duration": 41, "velocity": 106}, {"time": 6858, "pitch": 65, "duration": 41, "velocity": 98}, {"time": 6960, "pitch": 50, "duration": 132, "velocity": 112}, {"time": 6960, "pitch": 57, "duration": 132, "velocity": 104}, {"time": 6960, "pitch": 60, "duration": 121, "velocity": 95}, {"time": 6960, "pitch": 65, "duration": 121, "velocity": 91}, {"time": 7102, "pitch": 50, "duration": 10, "velocity": 120}, {"time": 7102, "pitch": 57, "duration": 10, "velocity": 115}, {"time": 7102, "pitch": 60, "duration": 20, "velocity": 110}, {"time": 7102, "pitch": 65, "duration": 20, "velocity": 105}, {"time": 7203, "pitch": 50, "duration": 230, "velocity": 90}, {"time": 7213, "pitch": 55, "duration": 220, "velocity": 95}, {"time": 7223, "pitch": 59, "duration": 210, "velocity": 100}, {"time": 7233, "pitch": 62, "duration": 200, "velocity": 105}, {"time": 7443, "pitch": 50, "duration": 79, "velocity": 97}, {"time": 7443, "pitch": 55, "duration": 79, "velocity": 105}, {"time": 7443, "pitch": 59, "duration": 79, "velocity": 107}, {"time": 7443, "pitch": 62, "duration": 79, "velocity": 112}, {"time": 7682, "pitch": 50, "duration": 40, "velocity": 86}, {"time": 7682, "pitch": 55, "duration": 40, "velocity": 92}, {"time": 7692, "pitch": 59, "duration": 30, "velocity": 111}, {"time": 7692, "pitch": 62, "duration": 30, "velocity": 116}, {"time": 7822, "pitch": 59, "duration": 69, "velocity": 98}, {"time": 7822, "pitch": 62, "duration": 69, "velocity": 103}, {"time": 7832, "pitch": 50, "duration": 59, "velocity": 95}, {"time": 7832, "pitch": 55, "duration": 59, "velocity": 89}, {"time": 7921, "pitch": 50, "duration": 120, "velocity": 102}, {"time": 7921, "pitch": 55, "duration": 120, "velocity": 98}, {"time": 7931, "pitch": 59, "duration": 110, "velocity": 91}, {"time": 7931, "pitch": 62, "duration": 110, "velocity": 87}, {"time": 8061, "pitch": 50, "duration": 50, "velocity": 112}, {"time": 8061, "pitch": 55, "duration": 50, "velocity": 108}, {"time": 8061, "pitch": 59, "duration": 60, "velocity": 102}, {"time": 8061, "pitch": 62, "duration": 60, "velocity": 96}, {"time": 8161, "pitch": 48, "duration": 140, "velocity": 100}, {"time": 8161, "pitch": 55, "duration": 140, "velocity": 105}, {"time": 8171, "pitch": 60, "duration": 130, "velocity": 110}, {"time": 8171, "pitch": 64, "duration": 130, "velocity": 116}, {"time": 8301, "pitch": 64, "duration": 59, "velocity": 100}, {"time": 8311, "pitch": 48, "duration": 39, "velocity": 85}, {"time": 8311, "pitch": 55, "duration": 59, "velocity": 90}, {"time": 8390, "pitch": 48, "duration": 70, "velocity": 95}, {"time": 8390, "pitch": 55, "duration": 70, "velocity": 100}, {"time": 8400, "pitch": 60, "duration": 60, "velocity": 105}, {"time": 8400, "pitch": 64, "duration": 60, "velocity": 110}, {"time": 8540, "pitch": 48, "duration": 200, "velocity": 117}, {"time": 8540, "pitch": 55, "duration": 209, "velocity": 117}, {"time": 8540, "pitch": 60, "duration": 209, "velocity": 109}, {"time": 8540, "pitch": 64, "duration": 219, "velocity": 122}, {"time": 8779, "pitch": 55, "duration": 40, "velocity": 85}, {"time": 8779, "pitch": 60, "duration": 40, "velocity": 106}, {"time": 8779, "pitch": 64, "duration": 40, "velocity": 98}, {"time": 8879, "pitch": 48, "duration": 130, "velocity": 112}, {"time": 8879, "pitch": 55, "duration": 130, "velocity": 104}, {"time": 8879, "pitch": 60, "duration": 120, "velocity": 95}, {"time": 8879, "pitch": 64, "duration": 120, "velocity": 91}, {"time": 9019, "pitch": 48, "duration": 10, "velocity": 120}, {"time": 9019, "pitch": 55, "duration": 10, "velocity": 115}, {"time": 9019, "pitch": 60, "duration": 20, "velocity": 110}, {"time": 9019, "pitch": 64, "duration": 20, "velocity": 105}, {"time": 9119, "pitch": 48, "duration": 229, "velocity": 90}, {"time": 9129, "pitch": 55, "duration": 219, "velocity": 95}, {"time": 9139, "pitch": 60, "duration": 209, "velocity": 100}, {"time": 9149, "pitch": 64, "duration": 199, "velocity": 105}, {"time": 9358, "pitch": 48, "duration": 80, "velocity": 97}, {"time": 9358, "pitch": 55, "duration": 80, "velocity": 105}, {"time": 9358, "pitch": 60, "duration": 80, "velocity": 107}, {"time": 9358, "pitch": 64, "duration": 80, "velocity": 112}, {"time": 9598, "pitch": 48, "duration": 39, "velocity": 86}, {"time": 9598, "pitch": 55, "duration": 39, "velocity": 92}, {"time": 9607, "pitch": 60, "duration": 30, "velocity": 111}, {"time": 9607, "pitch": 64, "duration": 30, "velocity": 116}, {"time": 9737, "pitch": 60, "duration": 70, "velocity": 98}, {"time": 9737, "pitch": 64, "duration": 70, "velocity": 103}, {"time": 9747, "pitch": 48, "duration": 60, "velocity": 95}, {"time": 9747, "pitch": 55, "duration": 60, "velocity": 89}, {"time": 9837, "pitch": 48, "duration": 120, "velocity": 102}, {"time": 9837, "pitch": 55, "duration": 120, "velocity": 98}, {"time": 9847, "pitch": 60, "duration": 110, "velocity": 91}, {"time": 9847, "pitch": 64, "duration": 110, "velocity": 87}, {"time": 9977, "pitch": 48, "duration": 50, "velocity": 112}, {"time": 9977, "pitch": 55, "duration": 50, "velocity": 108}, {"time": 9977, "pitch": 60, "duration": 59, "velocity": 102}, {"time": 9977, "pitch": 64, "duration": 59, "velocity": 96}, {"time": 10076, "pitch": 52, "duration": 142, "velocity": 100}, {"time": 10076, "pitch": 57, "duration": 142, "velocity": 105}, {"time": 10086, "pitch": 60, "duration": 132, "velocity": 110}, {"time": 10086, "pitch": 64, "duration": 132, "velocity": 116}, {"time": 10218, "pitch": 64, "duration": 61, "velocity": 100}, {"time": 10228, "pitch": 52, "duration": 41, "velocity": 85}, {"time": 10228, "pitch": 57, "duration": 61, "velocity": 90}, {"time": 10310, "pitch": 52, "duration": 71, "velocity": 95}, {"time": 10310, "pitch": 57, "duration": 71, "velocity": 100}, {"time": 10320, "pitch": 60, "duration": 61, "velocity": 105}, {"time": 10320, "pitch": 64, "duration": 61, "velocity": 110}, {"time": 10462, "pitch": 52, "duration": 201, "velocity": 117}, {"time": 10462, "pitch": 57, "duration": 211, "velocity": 117}, {"time": 10462, "pitch": 60, "duration": 211, "velocity": 109}, {"time": 10462, "pitch": 64, "duration": 221, "velocity": 122}, {"time": 10703, "pitch": 57, "duration": 40, "velocity": 85}, {"time": 10703, "pitch": 60, "duration": 40, "velocity": 106}, {"time": 10703, "pitch": 64, "duration": 40, "velocity": 98}, {"time": 10802, "pitch": 52, "duration": 130, "velocity": 112}, {"time": 10802, "pitch": 57, "duration": 130, "velocity": 104}, {"time": 10802, "pitch": 60, "duration": 120, "velocity": 95}, {"time": 10802, "pitch": 64, "duration": 120, "velocity": 91}, {"time": 10942, "pitch": 52, "duration": 10, "velocity": 120}, {"time": 10942, "pitch": 57, "duration": 10, "velocity": 115}, {"time": 10942, "pitch": 60, "duration": 20, "velocity": 110}, {"time": 10942, "pitch": 64, "duration": 20, "velocity": 105}, {"time": 11042, "pitch": 52, "duration": 229, "velocity": 90}, {"time": 11052, "pitch": 57, "duration": 219, "velocity": 95}, {"time": 11062, "pitch": 60, "duration": 209, "velocity": 100}, {"time": 11072, "pitch": 64, "duration": 199, "velocity": 105}, {"time": 11281, "pitch": 52, "duration": 80, "velocity": 97}, {"time": 11281, "pitch": 57, "duration": 80, "velocity": 105}, {"time": 11281, "pitch": 60, "duration": 80, "velocity": 107}, {"time": 11281, "pitch": 64, "duration": 80, "velocity": 112}, {"time": 11521, "pitch": 52, "duration": 40, "velocity": 86}, {"time": 11521, "pitch": 57, "duration": 40, "velocity": 92}, {"time": 11531, "pitch": 60, "duration": 30, "velocity": 111}, {"time": 11531, "pitch": 64, "duration": 30, "velocity": 116}, {"time": 11660, "pitch": 60, "duration": 70, "velocity": 98}, {"time": 11660, "pitch": 64, "duration": 70, "velocity": 103}, {"time": 11670, "pitch": 52, "duration": 60, "velocity": 95}, {"time": 11670, "pitch": 57, "duration": 60, "velocity": 89}, {"time": 11760, "pitch": 52, "duration": 120, "velocity": 102}, {"time": 11760, "pitch": 57, "duration": 120, "velocity": 98}, {"time": 11770, "pitch": 60, "duration": 110, "velocity": 91}, {"time": 11770, "pitch": 64, "duration": 110, "velocity": 87}, {"time": 11900, "pitch": 52, "duration": 50, "velocity": 112}, {"time": 11900, "pitch": 57, "duration": 50, "velocity": 108}, {"time": 11900, "pitch": 60, "duration": 60, "velocity": 102}, {"time": 11900, "pitch": 64, "duration": 60, "velocity": 96}, {"time": 12000, "pitch": 53, "duration": 139, "velocity": 100}, {"time": 12000, "pitch": 57, "duration": 139, "velocity": 105}, {"time": 12010, "pitch": 60, "duration": 129, "velocity": 110}, {"time": 12010, "pitch": 65, "duration": 129, "velocity": 116}, {"time": 12139, "pitch": 65, "duration": 60, "velocity": 100}, {"time": 12149, "pitch": 53, "duration": 40, "velocity": 85}, {"time": 12149, "pitch": 57, "duration": 60, "velocity": 90}, {"time": 12229, "pitch": 53, "duration": 70, "velocity": 95}, {"time": 12229, "pitch": 57, "duration": 70, "velocity": 100}, {"time": 12239, "pitch": 60, "duration": 60, "velocity": 105}, {"time": 12239, "pitch": 65, "duration": 60, "velocity": 110}, {"time": 12379, "pitch": 53, "duration": 199, "velocity": 117}, {"time": 12379, "pitch": 57, "duration": 209, "velocity": 117}, {"time": 12379, "pitch": 60, "duration": 209, "velocity": 109}, {"time": 12379, "pitch": 65, "duration": 219, "velocity": 122}, {"time": 12618, "pitch": 57, "duration": 40, "velocity": 85}, {"time": 12618, "pitch": 60, "duration": 40, "velocity": 106}, {"time": 12618, "pitch": 65, "duration": 40, "velocity": 98}, {"time": 12718, "pitch": 53, "duration": 130, "velocity": 112}, {"time": 12718, "pitch": 57, "duration": 130, "velocity": 104}, {"time": 12718, "pitch": 60, "duration": 120, "velocity": 95}, {"time": 12718, "pitch": 65, "duration": 120, "velocity": 91}, {"time": 12858, "pitch": 53, "duration": 10, "velocity": 120}, {"time": 12858, "pitch": 57, "duration": 10, "velocity": 115}, {"time": 12858, "pitch": 60, "duration": 20, "velocity": 110}, {"time": 12858, "pitch": 65, "duration": 20, "velocity": 105}, {"time": 12957, "pitch": 53, "duration": 230, "velocity": 90}, {"time": 12967, "pitch": 57, "duration": 220, "velocity": 95}, {"time": 12977, "pitch": 60, "duration": 210, "velocity": 100}, {"time": 12987, "pitch": 65, "duration": 200, "velocity": 105}, {"time": 13197, "pitch": 53, "duration": 80, "velocity": 97}, {"time": 13197, "pitch": 57, "duration": 80, "velocity": 105}, {"time": 13197, "pitch": 60, "duration": 80, "velocity": 107}, {"time": 13197, "pitch": 65, "duration": 80, "velocity": 112}, {"time": 13436, "pitch": 53, "duration": 41, "velocity": 86}, {"time": 13436, "pitch": 57, "duration": 41, "velocity": 92}, {"time": 13446, "pitch": 60, "duration": 31, "velocity": 111}, {"time": 13446, "pitch": 65, "duration": 31, "velocity": 116}, {"time": 13578, "pitch": 60, "duration": 71, "velocity": 98}, {"time": 13578, "pitch": 65, "duration": 71, "velocity": 103}, {"time": 13588, "pitch": 53, "duration": 61, "velocity": 95}, {"time": 13588, "pitch": 57, "duration": 61, "velocity": 89}, {"time": 13680, "pitch": 53, "duration": 121, "velocity": 102}, {"time": 13680, "pitch": 57, "duration": 121, "velocity": 98}, {"time": 13690, "pitch": 60, "duration": 111, "velocity": 91}, {"time": 13690, "pitch": 65, "duration": 111, "velocity": 87}, {"time": 13822, "pitch": 53, "duration": 50, "velocity": 112}, {"time": 13822, "pitch": 57, "duration": 50, "velocity": 108}, {"time": 13822, "pitch": 60, "duration": 60, "velocity": 102}, {"time": 13822, "pitch": 65, "duration": 60, "velocity": 96}, {"time": 13923, "pitch": 55, "duration": 140, "velocity": 100}, {"time": 13923, "pitch": 60, "duration": 140, "velocity": 105}, {"time": 13933, "pitch": 62, "duration": 130, "velocity": 110}, {"time": 13933, "pitch": 67, "duration": 130, "velocity": 116}, {"time": 14063, "pitch": 67, "duration": 59, "velocity": 100}, {"time": 14073, "pitch": 55, "duration": 39, "velocity": 85}, {"time": 14073, "pitch": 60, "duration": 59, "velocity": 90}, {"time": 14152, "pitch": 55, "duration": 70, "velocity": 95}, {"time": 14152, "pitch": 60, "duration": 70, "velocity": 100}, {"time": 14162, "pitch": 62, "duration": 60, "velocity": 105}, {"time": 14162, "pitch": 67, "duration": 60, "velocity": 110}, {"time": 14302, "pitch": 55, "duration": 200, "velocity": 117}, {"time": 14302, "pitch": 60, "duration": 210, "velocity": 117}, {"time": 14302, "pitch": 62, "duration": 210, "velocity": 109}, {"time": 14302, "pitch": 67, "duration": 220, "velocity": 122}, {"time": 14541, "pitch": 60, "duration": 40, "velocity": 85}, {"time": 14541, "pitch": 62, "duration": 40, "velocity": 106}, {"time": 14541, "pitch": 67, "duration": 40, "velocity": 98}, {"time": 14641, "pitch": 55, "duration": 130, "velocity": 112}, {"time": 14641, "pitch": 59, "duration": 130, "velocity": 104}, {"time": 14641, "pitch": 62, "duration": 120, "velocity": 95}, {"time": 14641, "pitch": 67, "duration": 120, "velocity": 91}, {"time": 15350, "pitch": 50, "duration": 459, "velocity": 105}, {"time": 15360, "pitch": 55, "duration": 459, "velocity": 99}, {"time": 15370, "pitch": 59, "duration": 458, "velocity": 95}, {"time": 15380, "pitch": 62, "duration": 448, "velocity": 104}, {"time": 15390, "pitch": 67, "duration": 448, "velocity": 110}, {"time": 15838, "pitch": 48, "duration": 140, "velocity": 100}, {"time": 15838, "pitch": 55, "duration": 140, "velocity": 105}, {"time": 15848, "pitch": 60, "duration": 130, "velocity": 110}, {"time": 15848, "pitch": 64, "duration": 130, "velocity": 116}, {"time": 15978, "pitch": 64, "duration": 60, "velocity": 100}, {"time": 15988, "pitch": 48, "duration": 40, "velocity": 85}, {"time": 15988, "pitch": 55, "duration": 60, "velocity": 90}, {"time": 16068, "pitch": 48, "duration": 70, "velocity": 95}, {"time": 16068, "pitch": 55, "duration": 70, "velocity": 100}, {"time": 16078, "pitch": 60, "duration": 60, "velocity": 105}, {"time": 16078, "pitch": 64, "duration": 60, "velocity": 110}, {"time": 16218, "pitch": 48, "duration": 199, "velocity": 117}, {"time": 16218, "pitch": 55, "duration": 209, "velocity": 117}, {"time": 16218, "pitch": 60, "duration": 209, "velocity": 109}, {"time": 16218, "pitch": 64, "duration": 219, "velocity": 122}, {"time": 16457, "pitch": 55, "duration": 40, "velocity": 85}, {"time": 16457, "pitch": 60, "duration": 40, "velocity": 106}, {"time": 16457, "pitch": 64, "duration": 40, "velocity": 98}, {"time": 16557, "pitch": 48, "duration": 129, "velocity": 112}, {"time": 16557, "pitch": 55, "duration": 129, "velocity": 104}, {"time": 16557, "pitch": 60, "duration": 120, "velocity": 95}, {"time": 16557, "pitch": 64, "duration": 120, "velocity": 91}, {"time": 16696, "pitch": 48, "duration": 10, "velocity": 120}, {"time": 16696, "pitch": 55, "duration": 10, "velocity": 115}, {"time": 16696, "pitch": 60, "duration": 20, "velocity": 110}, {"time": 16696, "pitch": 64, "duration": 20, "velocity": 105}, {"time": 16796, "pitch": 48, "duration": 233, "velocity": 90}, {"time": 16806, "pitch": 55, "duration": 223, "velocity": 95}, {"time": 16816, "pitch": 60, "duration": 213, "velocity": 100}, {"time": 16827, "pitch": 64, "duration": 202, "velocity": 105}, {"time": 17040, "pitch": 48, "duration": 81, "velocity": 97}, {"time": 17040, "pitch": 55, "duration": 81, "velocity": 105}, {"time": 17040, "pitch": 60, "duration": 81, "velocity": 107}, {"time": 17040, "pitch": 64, "duration": 81, "velocity": 112}, {"time": 17283, "pitch": 48, "duration": 40, "velocity": 86}, {"time": 17283, "pitch": 55, "duration": 40, "velocity": 92}, {"time": 17293, "pitch": 60, "duration": 30, "velocity": 111}, {"time": 17293, "pitch": 64, "duration": 30, "velocity": 116}, {"time": 17423, "pitch": 60, "duration": 69, "velocity": 98}, {"time": 17423, "pitch": 64, "duration": 69, "velocity": 103}, {"time": 17433, "pitch": 48, "duration": 59, "velocity": 95}, {"time": 17433, "pitch": 55, "duration": 59, "velocity": 89}, {"time": 17522, "pitch": 48, "duration": 120, "velocity": 102}, {"time": 17522, "pitch": 55, "duration": 120, "velocity": 98}, {"time": 17532, "pitch": 60, "duration": 110, "velocity": 91}, {"time": 17532, "pitch": 64, "duration": 110, "velocity": 87}, {"time": 17662, "pitch": 48, "duration": 50, "velocity": 112}, {"time": 17662, "pitch": 55, "duration": 50, "velocity": 108}, {"time": 17662, "pitch": 60, "duration": 60, "velocity": 102}, {"time": 17662, "pitch": 64, "duration": 60, "velocity": 96}, {"time": 17762, "pitch": 52, "duration": 139, "velocity": 100}, {"time": 17762, "pitch": 57, "duration": 139, "velocity": 105}, {"time": 17772, "pitch": 60, "duration": 129, "velocity": 110}, {"time": 17772, "pitch": 64, "duration": 129, "velocity": 116}, {"time": 17901, "pitch": 64, "duration": 60, "velocity": 100}, {"time": 17911, "pitch": 52, "duration": 40, "velocity": 85}, {"time": 17911, "pitch": 57, "duration": 60, "velocity": 90}, {"time": 17991, "pitch": 52, "duration": 70, "velocity": 95}, {"time": 17991, "pitch": 57, "duration": 70, "velocity": 100}, {"time": 18001, "pitch": 60, "duration": 60, "velocity": 105}, {"time": 18001, "pitch": 64, "duration": 60, "velocity": 110}, {"time": 18141, "pitch": 52, "duration": 199, "velocity": 117}, {"time": 18141, "pitch": 57, "duration": 209, "velocity": 117}, {"time": 18141, "pitch": 60, "duration": 209, "velocity": 109}, {"time": 18141, "pitch": 64, "duration": 219, "velocity": 122}, {"time": 18380, "pitch": 57, "duration": 40, "velocity": 85}, {"time": 18380, "pitch": 60, "duration": 40, "velocity": 106}, {"time": 18380, "pitch": 64, "duration": 40, "velocity": 98}, {"time": 18480, "pitch": 52, "duration": 130, "velocity": 112}, {"time": 18480, "pitch": 57, "duration": 130, "velocity": 104}, {"time": 18480, "pitch": 60, "duration": 120, "velocity": 95}, {"time": 18480, "pitch": 64, "duration": 120, "velocity": 91}, {"time": 18620, "pitch": 52, "duration": 10, "velocity": 120}, {"time": 18620, "pitch": 57, "duration": 10, "velocity": 115}, {"time": 18620, "pitch": 60, "duration": 20, "velocity": 110}, {"time": 18620, "pitch": 64, "duration": 20, "velocity": 105}, {"time": 18719, "pitch": 52, "duration": 230, "velocity": 90}, {"time": 18729, "pitch": 57, "duration": 220, "velocity": 95}, {"time": 18739, "pitch": 60, "duration": 210, "velocity": 100}, {"time": 18749, "pitch": 64, "duration": 200, "velocity": 105}, {"time": 18959, "pitch": 52, "duration": 80, "velocity": 97}, {"time": 18959, "pitch": 57, "duration": 80, "velocity": 105}, {"time": 18959, "pitch": 60, "duration": 80, "velocity": 107}, {"time": 18959, "pitch": 64, "duration": 80, "velocity": 112}, {"time": 19198, "pitch": 52, "duration": 40, "velocity": 86}, {"time": 19198, "pitch": 57, "duration": 40, "velocity": 92}, {"time": 19208, "pitch": 60, "duration": 30, "velocity": 111}, {"time": 19208, "pitch": 64, "duration": 30, "velocity": 116}, {"time": 19338, "pitch": 60, "duration": 70, "velocity": 98}, {"time": 19338, "pitch": 64, "duration": 70, "velocity": 103}, {"time": 19348, "pitch": 52, "duration": 60, "velocity": 95}, {"time": 19348, "pitch": 57, "duration": 60, "velocity": 89}, {"time": 19438, "pitch": 52, "duration": 120, "velocity": 102}, {"time": 19438, "pitch": 57, "duration": 120, "velocity": 98}, {"time": 19448, "pitch": 60, "duration": 110, "velocity": 91}, {"time": 19448, "pitch": 64, "duration": 110, "velocity": 87}, {"time": 19577, "pitch": 52, "duration": 50, "velocity": 112}, {"time": 19577, "pitch": 57, "duration": 50, "velocity": 108}, {"time": 19577, "pitch": 60, "duration": 60, "velocity": 102}, {"time": 19577, "pitch": 64, "duration": 60, "velocity": 96}, {"time": 19677, "pitch": 53, "duration": 140, "velocity": 100}, {"time": 19677, "pitch": 57, "duration": 140, "velocity": 105}, {"time": 19687, "pitch": 60, "duration": 130, "velocity": 110}, {"time": 19687, "pitch": 65, "duration": 130, "velocity": 116}, {"time": 19817, "pitch": 65, "duration": 60, "velocity": 100}, {"time": 19827, "pitch": 53, "duration": 40, "velocity": 85}, {"time": 19827, "pitch": 57, "duration": 60, "velocity": 90}, {"time": 19907, "pitch": 53, "duration": 70, "velocity": 95}, {"time": 19907, "pitch": 57, "duration": 70, "velocity": 100}, {"time": 19917, "pitch": 60, "duration": 60, "velocity": 105}, {"time": 19917, "pitch": 65, "duration": 60, "velocity": 110}, {"time": 20056, "pitch": 53, "duration": 201, "velocity": 117}, {"time": 20056, "pitch": 57, "duration": 212, "velocity": 117}, {"time": 20056, "pitch": 60, "duration": 212, "velocity": 109}, {"time": 20056, "pitch": 65, "duration": 222, "velocity": 122}, {"time": 20298, "pitch": 57, "duration": 41, "velocity": 85}, {"time": 20298, "pitch": 60, "duration": 41, "velocity": 106}, {"time": 20298, "pitch": 65, "duration": 41, "velocity": 98}, {"time": 20399, "pitch": 53, "duration": 132, "velocity": 112}, {"time": 20399, "pitch": 57, "duration": 132, "velocity": 104}, {"time": 20399, "pitch": 60, "duration": 122, "velocity": 95}, {"time": 20399, "pitch": 65, "duration": 122, "velocity": 91}, {"time": 20541, "pitch": 53, "duration": 11, "velocity": 120}, {"time": 20541, "pitch": 57, "duration": 11, "velocity": 115}, {"time": 20541, "pitch": 60, "duration": 21, "velocity": 110}, {"time": 20541, "pitch": 65, "duration": 21, "velocity": 105}, {"time": 20643, "pitch": 53, "duration": 229, "velocity": 90}, {"time": 20653, "pitch": 57, "duration": 219, "velocity": 95}, {"time": 20663, "pitch": 60, "duration": 209, "velocity": 100}, {"time": 20673, "pitch": 65, "duration": 199, "velocity": 105}, {"time": 20882, "pitch": 53, "duration": 80, "velocity": 97}, {"time": 20882, "pitch": 57, "duration": 80, "velocity": 105}, {"time": 20882, "pitch": 60, "duration": 80, "velocity": 107}, {"time": 20882, "pitch": 65, "duration": 80, "velocity": 112}, {"time": 21122, "pitch": 53, "duration": 40, "velocity": 86}, {"time": 21122, "pitch": 57, "duration": 40, "velocity": 92}, {"time": 21132, "pitch": 60, "duration": 30, "velocity": 111}, {"time": 21132, "pitch": 65, "duration": 30, "velocity": 116}, {"time": 21261, "pitch": 60, "duration": 70, "velocity": 98}, {"time": 21261, "pitch": 65, "duration": 70, "velocity": 103}, {"time": 21271, "pitch": 53, "duration": 60, "velocity": 95}, {"time": 21271, "pitch": 57, "duration": 60, "velocity": 89}, {"time": 21361, "pitch": 53, "duration": 120, "velocity": 102}, {"time": 21361, "pitch": 57, "duration": 120, "velocity": 98}, {"time": 21371, "pitch": 60, "duration": 110, "velocity": 91}, {"time": 21371, "pitch": 65, "duration": 110, "velocity": 87}, {"time": 21501, "pitch": 53, "duration": 50, "velocity": 112}, {"time": 21501, "pitch": 57, "duration": 50, "velocity": 108}, {"time": 21501, "pitch": 60, "duration": 60, "velocity": 102}, {"time": 21501, "pitch": 65, "duration": 60, "velocity": 96}, {"time": 21601, "pitch": 50, "duration": 139, "velocity": 100}, {"time": 21601, "pitch": 57, "duration": 139, "velocity": 105}, {"time": 21611, "pitch": 60, "duration": 129, "velocity": 110}, {"time": 21611, "pitch": 65, "duration": 129, "velocity": 116}, {"time": 21740, "pitch": 65, "duration": 60, "velocity": 100}, {"time": 21750, "pitch": 50, "duration": 40, "velocity": 85}, {"time": 21750, "pitch": 57, "duration": 60, "velocity": 90}, {"time": 21830, "pitch": 50, "duration": 70, "velocity": 95}, {"time": 21830, "pitch": 57, "duration": 70, "velocity": 100}, {"time": 21840, "pitch": 60, "duration": 60, "velocity": 105}, {"time": 21840, "pitch": 65, "duration": 60, "velocity": 110}, {"time": 21980, "pitch": 50, "duration": 199, "velocity": 117}, {"time": 21980, "pitch": 57, "duration": 209, "velocity": 117}, {"time": 21980, "pitch": 60, "duration": 209, "velocity": 109}, {"time": 21980, "pitch": 65, "duration": 219, "velocity": 122}, {"time": 22219, "pitch": 57, "duration": 40, "velocity": 85}, {"time": 22219, "pitch": 60, "duration": 40, "velocity": 106}, {"time": 22219, "pitch": 65, "duration": 40, "velocity": 98}, {"time": 22319, "pitch": 50, "duration": 130, "velocity": 112}, {"time": 22319, "pitch": 57, "duration": 130, "velocity": 104}, {"time": 22319, "pitch": 60, "duration": 120, "velocity": 95}, {"time": 22319, "pitch": 65, "duration": 120, "velocity": 91}, {"time": 22459, "pitch": 50, "duration": 10, "velocity": 120}, {"time": 22459, "pitch": 57, "duration": 10, "velocity": 115}, {"time": 22459, "pitch": 60, "duration": 19, "velocity": 110}, {"time": 22459, "pitch": 65, "duration": 19, "velocity": 105}, {"time": 22558, "pitch": 50, "duration": 230, "velocity": 90}, {"time": 22568, "pitch": 55, "duration": 220, "velocity": 95}, {"time": 22578, "pitch": 59, "duration": 210, "velocity": 100}, {"time": 22588, "pitch": 62, "duration": 200, "velocity": 105}, {"time": 22798, "pitch": 50, "duration": 80, "velocity": 97}, {"time": 22798, "pitch": 55, "duration": 80, "velocity": 105}, {"time": 22798, "pitch": 59, "duration": 80, "velocity": 107}, {"time": 22798, "pitch": 62, "duration": 80, "velocity": 112}, {"time": 23037, "pitch": 50, "duration": 41, "velocity": 86}, {"time": 23037, "pitch": 55, "duration": 41, "velocity": 92}, {"time": 23047, "pitch": 59, "duration": 31, "velocity": 111}, {"time": 23047, "pitch": 62, "duration": 31, "velocity": 116}, {"time": 23179, "pitch": 59, "duration": 71, "velocity": 98}, {"time": 23179, "pitch": 62, "duration": 71, "velocity": 103}, {"time": 23189, "pitch": 50, "duration": 61, "velocity": 95}, {"time": 23189, "pitch": 55, "duration": 61, "velocity": 89}, {"time": 23280, "pitch": 50, "duration": 122, "velocity": 102}, {"time": 23280, "pitch": 55, "duration": 122, "velocity": 98}, {"time": 23291, "pitch": 59, "duration": 111, "velocity": 91}, {"time": 23291, "pitch": 62, "duration": 111, "velocity": 87}, {"time": 23422, "pitch": 50, "duration": 51, "velocity": 112}, {"time": 23422, "pitch": 55, "duration": 51, "velocity": 108}, {"time": 23422, "pitch": 59, "duration": 61, "velocity": 102}, {"time": 23422, "pitch": 62, "duration": 61, "velocity": 96}, {"time": 23524, "pitch": 48, "duration": 139, "velocity": 100}, {"time": 23524, "pitch": 55, "duration": 139, "velocity": 105}, {"time": 23534, "pitch": 60, "duration": 129, "velocity": 110}, {"time": 23534, "pitch": 64, "duration": 129, "velocity": 116}, {"time": 23663, "pitch": 64, "duration": 60, "velocity": 100}, {"time": 23673, "pitch": 48, "duration": 40, "velocity": 85}, {"time": 23673, "pitch": 55, "duration": 60, "velocity": 90}, {"time": 23753, "pitch": 48, "duration": 70, "velocity": 95}, {"time": 23753, "pitch": 55, "duration": 70, "velocity": 100}, {"time": 23763, "pitch": 60, "duration": 60, "velocity": 105}, {"time": 23763, "pitch": 64, "duration": 60, "velocity": 110}, {"time": 23903, "pitch": 48, "duration": 199, "velocity": 117}, {"time": 23903, "pitch": 55, "duration": 209, "velocity": 117}, {"time": 23903, "pitch": 60, "duration": 209, "velocity": 109}, {"time": 23903, "pitch": 64, "duration": 219, "velocity": 122}, {"time": 24142, "pitch": 55, "duration": 40, "velocity": 85}, {"time": 24142, "pitch": 60, "duration": 40, "velocity": 106}, {"time": 24142, "pitch": 64, "duration": 40, "velocity": 98}, {"time": 24242, "pitch": 48, "duration": 130, "velocity": 112}, {"time": 24242, "pitch": 55, "duration": 130, "velocity": 104}, {"time": 24242, "pitch": 60, "duration": 120, "velocity": 95}, {"time": 24242, "pitch": 64, "duration": 120, "velocity": 91}, {"time": 24382, "pitch": 48, "duration": 10, "velocity": 120}, {"time": 24382, "pitch": 55, "duration": 10, "velocity": 115}, {"time": 24382, "pitch": 60, "duration": 20, "velocity": 110}, {"time": 24382, "pitch": 64, "duration": 20, "velocity": 105}, {"time": 24482, "pitch": 48, "duration": 229, "velocity": 90}, {"time": 24492, "pitch": 55, "duration": 219, "velocity": 95}, {"time": 24502, "pitch": 60, "duration": 209, "velocity": 100}, {"time": 24511, "pitch": 64, "duration": 200, "velocity": 105}, {"time": 24721, "pitch": 48, "duration": 80, "velocity": 97}, {"time": 24721, "pitch": 55, "duration": 80, "velocity": 105}, {"time": 24721, "pitch": 60, "duration": 80, "velocity": 107}, {"time": 24721, "pitch": 64, "duration": 80, "velocity": 112}, {"time": 24960, "pitch": 48, "duration": 40, "velocity": 86}, {"time": 24960, "pitch": 55, "duration": 40, "velocity": 92}, {"time": 24970, "pitch": 60, "duration": 30, "velocity": 111}, {"time": 24970, "pitch": 64, "duration": 30, "velocity": 116}, {"time": 25100, "pitch": 60, "duration": 70, "velocity": 98}, {"time": 25100, "pitch": 64, "duration": 70, "velocity": 103}, {"time": 25110, "pitch": 48, "duration": 60, "velocity": 95}, {"time": 25110, "pitch": 55, "duration": 60, "velocity": 89}, {"time": 25200, "pitch": 48, "duration": 120, "velocity": 102}, {"time": 25200, "pitch": 55, "duration": 120, "velocity": 98}, {"time": 25210, "pitch": 60, "duration": 110, "velocity": 91}, {"time": 25210, "pitch": 64, "duration": 110, "velocity": 87}, {"time": 25340, "pitch": 48, "duration": 49, "velocity": 112}, {"time": 25340, "pitch": 55, "duration": 49, "velocity": 108}, {"time": 25340, "pitch": 60, "duration": 59, "velocity": 102}, {"time": 25340, "pitch": 64, "duration": 59, "velocity": 96}, {"time": 25439, "pitch": 52, "duration": 140, "velocity": 100}, {"time": 25439, "pitch": 57, "duration": 140, "velocity": 105}, {"time": 25449, "pitch": 60, "duration": 130, "velocity": 110}, {"time": 25449, "pitch": 64, "duration": 130, "velocity": 116}, {"time": 25579, "pitch": 64, "duration": 60, "velocity": 100}, {"time": 25589, "pitch": 52, "duration": 40, "velocity": 85}, {"time": 25589, "pitch": 57, "duration": 60, "velocity": 90}, {"time": 25669, "pitch": 52, "duration": 70, "velocity": 95}, {"time": 25669, "pitch": 57, "duration": 70, "velocity": 100}, {"time": 25679, "pitch": 60, "duration": 60, "velocity": 105}, {"time": 25679, "pitch": 64, "duration": 60, "velocity": 110}, {"time": 25818, "pitch": 52, "duration": 200, "velocity": 117}, {"time": 25818, "pitch": 57, "duration": 210, "velocity": 117}, {"time": 25818, "pitch": 60, "duration": 210, "velocity": 109}, {"time": 25818, "pitch": 64, "duration": 220, "velocity": 122}, {"time": 26058, "pitch": 57, "duration": 40, "velocity": 85}, {"time": 26058, "pitch": 60, "duration": 40, "velocity": 106}, {"time": 26058, "pitch": 64, "duration": 40, "velocity": 98}, {"time": 26158, "pitch": 52, "duration": 129, "velocity": 112}, {"time": 26158, "pitch": 57, "duration": 129, "velocity": 104}, {"time": 26158, "pitch": 60, "duration": 119, "velocity": 95}, {"time": 26158, "pitch": 64, "duration": 119, "velocity": 91}, {"time": 26297, "pitch": 52, "duration": 10, "velocity": 120}, {"time": 26297, "pitch": 57, "duration": 10, "velocity": 115}, {"time": 26297, "pitch": 60, "duration": 20, "velocity": 110}, {"time": 26297, "pitch": 64, "duration": 20, "velocity": 105}, {"time": 26397, "pitch": 52, "duration": 233, "velocity": 90}, {"time": 26407, "pitch": 57, "duration": 223, "velocity": 95}, {"time": 26417, "pitch": 60, "duration": 213, "velocity": 100}, {"time": 26427, "pitch": 64, "duration": 203, "velocity": 105}, {"time": 26640, "pitch": 52, "duration": 82, "velocity": 97}, {"time": 26640, "pitch": 57, "duration": 82, "velocity": 105}, {"time": 26640, "pitch": 60, "duration": 82, "velocity": 107}, {"time": 26640, "pitch": 64, "duration": 82, "velocity": 112}, {"time": 26884, "pitch": 52, "duration": 40, "velocity": 86}, {"time": 26884, "pitch": 57, "duration": 40, "velocity": 92}, {"time": 26894, "pitch": 60, "duration": 30, "velocity": 111}, {"time": 26894, "pitch": 64, "duration": 30, "velocity": 116}, {"time": 27023, "pitch": 60, "duration": 70, "velocity": 98}, {"time": 27023, "pitch": 64, "duration": 70, "velocity": 103}, {"time": 27033, "pitch": 52, "duration": 60, "velocity": 95}, {"time": 27033, "pitch": 57, "duration": 60, "velocity": 89}, {"time": 27123, "pitch": 52, "duration": 120, "velocity": 102}, {"time": 27123, "pitch": 57, "duration": 120, "velocity": 98}, {"time": 27133, "pitch": 60, "duration": 110, "velocity": 91}, {"time": 27133, "pitch": 64, "duration": 110, "velocity": 87}, {"time": 27263, "pitch": 52, "duration": 50, "velocity": 112}, {"time": 27263, "pitch": 57, "duration": 50, "velocity": 108}, {"time": 27263, "pitch": 60, "duration": 60, "velocity": 102}, {"time": 27263, "pitch": 64, "duration": 60, "velocity": 96}, {"time": 27363, "pitch": 50, "duration": 139, "velocity": 100}, {"time": 27363, "pitch": 57, "duration": 139, "velocity": 105}, {"time": 27373, "pitch": 60, "duration": 129, "velocity": 110}, {"time": 27373, "pitch": 65, "duration": 129, "velocity": 116}, {"time": 27502, "pitch": 65, "duration": 60, "velocity": 100}, {"time": 27512, "pitch": 50, "duration": 40, "velocity": 85}, {"time": 27512, "pitch": 57, "duration": 60, "velocity": 90}, {"time": 27592, "pitch": 50, "duration": 70, "velocity": 95}, {"time": 27592, "pitch": 57, "duration": 70, "velocity": 100}, {"time": 27602, "pitch": 60, "duration": 60, "velocity": 105}, {"time": 27602, "pitch": 65, "duration": 60, "velocity": 110}, {"time": 27742, "pitch": 50, "duration": 199, "velocity": 117}, {"time": 27742, "pitch": 57, "duration": 209, "velocity": 117}, {"time": 27742, "pitch": 60, "duration": 209, "velocity": 109}, {"time": 27742, "pitch": 65, "duration": 219, "velocity": 122}, {"time": 27981, "pitch": 57, "duration": 40, "velocity": 85}, {"time": 27981, "pitch": 60, "duration": 40, "velocity": 106}, {"time": 27981, "pitch": 65, "duration": 40, "velocity": 98}, {"time": 28081, "pitch": 50, "duration": 130, "velocity": 112}, {"time": 28081, "pitch": 57, "duration": 130, "velocity": 104}, {"time": 28081, "pitch": 60, "duration": 120, "velocity": 95}, {"time": 28081, "pitch": 65, "duration": 120, "velocity": 91}, {"time": 28221, "pitch": 50, "duration": 10, "velocity": 120}, {"time": 28221, "pitch": 57, "duration": 10, "velocity": 115}, {"time": 28221, "pitch": 60, "duration": 20, "velocity": 110}, {"time": 28221, "pitch": 65, "duration": 20, "velocity": 105}, {"time": 28320, "pitch": 50, "duration": 230, "velocity": 90}, {"time": 28330, "pitch": 55, "duration": 220, "velocity": 95}, {"time": 28340, "pitch": 59, "duration": 210, "velocity": 100}, {"time": 28350, "pitch": 62, "duration": 200, "velocity": 105}, {"time": 28560, "pitch": 50, "duration": 80, "velocity": 97}, {"time": 28560, "pitch": 55, "duration": 80, "velocity": 105}, {"time": 28560, "pitch": 59, "duration": 80, "velocity": 107}, {"time": 28560, "pitch": 62, "duration": 80, "velocity": 112}, {"time": 28799, "pitch": 50, "duration": 40, "velocity": 86}, {"time": 28799, "pitch": 55, "duration": 40, "velocity": 92}, {"time": 28809, "pitch": 59, "duration": 30, "velocity": 111}, {"time": 28809, "pitch": 62, "duration": 30, "velocity": 116}, {"time": 28939, "pitch": 59, "duration": 70, "velocity": 98}, {"time": 28939, "pitch": 62, "duration": 70, "velocity": 103}, {"time": 28949, "pitch": 50, "duration": 60, "velocity": 95}, {"time": 28949, "pitch": 55, "duration": 60, "velocity": 89}, {"time": 29039, "pitch": 50, "duration": 119, "velocity": 102}, {"time": 29039, "pitch": 55, "duration": 119, "velocity": 98}, {"time": 29049, "pitch": 59, "duration": 109, "velocity": 91}, {"time": 29049, "pitch": 62, "duration": 109, "velocity": 87}, {"time": 29178, "pitch": 50, "duration": 50, "velocity": 112}, {"time": 29178, "pitch": 55, "duration": 50, "velocity": 108}, {"time": 29178, "pitch": 59, "duration": 60, "velocity": 102}, {"time": 29178, "pitch": 62, "duration": 60, "velocity": 96}, {"time": 29278, "pitch": 48, "duration": 140, "velocity": 100}, {"time": 29278, "pitch": 55, "duration": 140, "velocity": 105}, {"time": 29288, "pitch": 60, "duration": 130, "velocity": 110}, {"time": 29288, "pitch": 64, "duration": 130, "velocity": 116}, {"time": 29418, "pitch": 64, "duration": 60, "velocity": 100}, {"time": 29428, "pitch": 48, "duration": 40, "velocity": 85}, {"time": 29428, "pitch": 55, "duration": 60, "velocity": 90}, {"time": 29508, "pitch": 48, "duration": 69, "velocity": 95}, {"time": 29508, "pitch": 55, "duration": 69, "velocity": 100}, {"time": 29518, "pitch": 60, "duration": 59, "velocity": 105}, {"time": 29518, "pitch": 64, "duration": 59, "velocity": 110}, {"time": 29657, "pitch": 48, "duration": 201, "velocity": 117}, {"time": 29657, "pitch": 55, "duration": 212, "velocity": 117}, {"time": 29657, "pitch": 60, "duration": 212, "velocity": 109}, {"time": 29657, "pitch": 64, "duration": 222, "velocity": 122}, {"time": 29899, "pitch": 55, "duration": 40, "velocity": 85}, {"time": 29899, "pitch": 60, "duration": 40, "velocity": 106}, {"time": 29899, "pitch": 64, "duration": 40, "velocity": 98}, {"time": 30000, "pitch": 48, "duration": 132, "velocity": 112}, {"time": 30000, "pitch": 55, "duration": 132, "velocity": 104}, {"time": 30000, "pitch": 60, "duration": 122, "velocity": 95}, {"time": 30000, "pitch": 64, "duration": 122, "velocity": 91}, {"time": 30142, "pitch": 48, "duration": 10, "velocity": 120}, {"time": 30142, "pitch": 55, "duration": 10, "velocity": 115}, {"time": 30142, "pitch": 60, "duration": 21, "velocity": 110}, {"time": 30142, "pitch": 64, "duration": 21, "velocity": 105}, {"time": 30244, "pitch": 48, "duration": 229, "velocity": 90}, {"time": 30254, "pitch": 55, "duration": 219, "velocity": 95}, {"time": 30264, "pitch": 60, "duration": 209, "velocity": 100}, {"time": 30274, "pitch": 64, "duration": 199, "velocity": 105}, {"time": 30483, "pitch": 48, "duration": 80, "velocity": 97}, {"time": 30483, "pitch": 55, "duration": 80, "velocity": 105}, {"time": 30483, "pitch": 60, "duration": 80, "velocity": 107}, {"time": 30483, "pitch": 64, "duration": 80, "velocity": 112}, {"time": 30723, "pitch": 48, "duration": 39, "velocity": 86}, {"time": 30723, "pitch": 55, "duration": 39, "velocity": 92}, {"time": 30732, "pitch": 60, "duration": 30, "velocity": 111}, {"time": 30732, "pitch": 64, "duration": 30, "velocity": 116}, {"time": 30862, "pitch": 60, "duration": 70, "velocity": 98}, {"time": 30862, "pitch": 64, "duration": 70, "velocity": 103}, {"time": 30872, "pitch": 48, "duration": 60, "velocity": 95}, {"time": 30872, "pitch": 55, "duration": 60, "velocity": 89}, {"time": 30962, "pitch": 48, "duration": 120, "velocity": 102}, {"time": 30962, "pitch": 55, "duration": 120, "velocity": 98}, {"time": 30972, "pitch": 60, "duration": 110, "velocity": 91}, {"time": 30972, "pitch": 64, "duration": 110, "velocity": 87}, {"time": 31102, "pitch": 48, "duration": 50, "velocity": 112}, {"time": 31102, "pitch": 55, "duration": 50, "velocity": 108}, {"time": 31102, "pitch": 60, "duration": 59, "velocity": 102}, {"time": 31102, "pitch": 64, "duration": 59, "velocity": 96}, {"time": 31201, "pitch": 59, "duration": 100, "velocity": 112}, {"time": 31201, "pitch": 62, "duration": 100, "velocity": 127}, {"time": 31201, "pitch": 67, "duration": 110, "velocity": 110}, {"time": 31342, "pitch": 62, "duration": 50, "velocity": 94}, {"time": 31342, "pitch": 67, "duration": 60, "velocity": 89}, {"time": 31441, "pitch": 59, "duration": 100, "velocity": 86}, {"time": 31441, "pitch": 62, "duration": 100, "velocity": 86}, {"time": 31441, "pitch": 67, "duration": 120, "velocity": 90}, {"time": 31582, "pitch": 59, "duration": 119, "velocity": 108}, {"time": 31582, "pitch": 62, "duration": 99, "velocity": 114}, {"time": 31582, "pitch": 67, "duration": 119, "velocity": 102}, {"time": 32159, "pitch": 52, "duration": 40, "velocity": 86}, {"time": 32159, "pitch": 55, "duration": 40, "velocity": 92}, {"time": 32169, "pitch": 59, "duration": 30, "velocity": 111}, {"time": 32169, "pitch": 64, "duration": 30, "velocity": 116}, {"time": 32299, "pitch": 59, "duration": 70, "velocity": 98}, {"time": 32299, "pitch": 64, "duration": 70, "velocity": 103}, {"time": 32309, "pitch": 52, "duration": 60, "velocity": 95}, {"time": 32309, "pitch": 55, "duration": 60, "velocity": 89}, {"time": 32399, "pitch": 52, "duration": 119, "velocity": 102}, {"time": 32399, "pitch": 55, "duration": 119, "velocity": 98}, {"time": 32409, "pitch": 59, "duration": 109, "velocity": 91}, {"time": 32409, "pitch": 64, "duration": 109, "velocity": 87}, {"time": 32538, "pitch": 52, "duration": 50, "velocity": 112}, {"time": 32538, "pitch": 55, "duration": 50, "velocity": 108}, {"time": 32538, "pitch": 59, "duration": 60, "velocity": 102}, {"time": 32538, "pitch": 64, "duration": 60, "velocity": 96}, {"time": 32638, "pitch": 52, "duration": 40, "velocity": 86}, {"time": 32638, "pitch": 55, "duration": 40, "velocity": 92}, {"time": 32648, "pitch": 59, "duration": 30, "velocity": 111}, {"time": 32648, "pitch": 64, "duration": 30, "velocity": 116}, {"time": 32877, "pitch": 57, "duration": 392, "velocity": 112}, {"time": 32877, "pitch": 60, "duration": 372, "velocity": 117}, {"time": 32877, "pitch": 64, "duration": 382, "velocity": 110}, {"time": 33360, "pitch": 57, "duration": 193, "velocity": 85}, {"time": 33360, "pitch": 60, "duration": 71, "velocity": 98}, {"time": 33360, "pitch": 64, "duration": 92, "velocity": 114}, {"time": 33503, "pitch": 60, "duration": 71, "velocity": 89}, {"time": 33503, "pitch": 64, "duration": 71, "velocity": 97}, {"time": 33604, "pitch": 55, "duration": 89, "velocity": 97}, {"time": 33604, "pitch": 59, "duration": 89, "velocity": 100}, {"time": 33604, "pitch": 62, "duration": 109, "velocity": 102}, {"time": 33744, "pitch": 57, "duration": 80, "velocity": 100}, {"time": 33744, "pitch": 60, "duration": 60, "velocity": 98}, {"time": 33744, "pitch": 64, "duration": 70, "velocity": 119}, {"time": 34082, "pitch": 52, "duration": 110, "velocity": 86}, {"time": 34082, "pitch": 57, "duration": 110, "velocity": 92}, {"time": 34092, "pitch": 60, "duration": 100, "velocity": 111}, {"time": 34092, "pitch": 64, "duration": 100, "velocity": 116}, {"time": 34222, "pitch": 60, "duration": 70, "velocity": 98}, {"time": 34222, "pitch": 64, "duration": 70, "velocity": 103}, {"time": 34232, "pitch": 52, "duration": 60, "velocity": 95}, {"time": 34232, "pitch": 57, "duration": 60, "velocity": 89}, {"time": 34322, "pitch": 52, "duration": 120, "velocity": 102}, {"time": 34322, "pitch": 57, "duration": 120, "velocity": 98}, {"time": 34332, "pitch": 60, "duration": 110, "velocity": 91}, {"time": 34332, "pitch": 64, "duration": 110, "velocity": 87}, {"time": 34462, "pitch": 52, "duration": 49, "velocity": 112}, {"time": 34462, "pitch": 57, "duration": 49, "velocity": 108}, {"time": 34462, "pitch": 60, "duration": 59, "velocity": 102}, {"time": 34462, "pitch": 64, "duration": 59, "velocity": 96}, {"time": 34561, "pitch": 52, "duration": 110, "velocity": 86}, {"time": 34561, "pitch": 57, "duration": 110, "velocity": 92}, {"time": 34571, "pitch": 60, "duration": 100, "velocity": 111}, {"time": 34571, "pitch": 64, "duration": 100, "velocity": 116}, {"time": 34701, "pitch": 60, "duration": 70, "velocity": 98}, {"time": 34701, "pitch": 64, "duration": 70, "velocity": 103}, {"time": 34711, "pitch": 52, "duration": 60, "velocity": 95}, {"time": 34711, "pitch": 57, "duration": 60, "velocity": 89}, {"time": 34801, "pitch": 52, "duration": 119, "velocity": 102}, {"time": 34801, "pitch": 57, "duration": 119, "velocity": 98}, {"time": 34811, "pitch": 60, "duration": 109, "velocity": 91}, {"time": 34811, "pitch": 64, "duration": 109, "velocity": 87}, {"time": 34940, "pitch": 52, "duration": 50, "velocity": 112}, {"time": 34940, "pitch": 57, "duration": 50, "velocity": 108}, {"time": 34940, "pitch": 60, "duration": 60, "velocity": 102}, {"time": 34940, "pitch": 64, "duration": 60, "velocity": 96}, {"time": 35040, "pitch": 59, "duration": 100, "velocity": 112}, {"time": 35040, "pitch": 62, "duration": 100, "velocity": 127}, {"time": 35040, "pitch": 67, "duration": 110, "velocity": 110}, {"time": 35181, "pitch": 62, "duration": 50, "velocity": 94}, {"time": 35181, "pitch": 67, "duration": 60, "velocity": 89}, {"time": 35280, "pitch": 59, "duration": 99, "velocity": 86}, {"time": 35280, "pitch": 62, "duration": 99, "velocity": 86}, {"time": 35280, "pitch": 67, "duration": 119, "velocity": 90}, {"time": 35420, "pitch": 59, "duration": 120, "velocity": 108}, {"time": 35420, "pitch": 62, "duration": 100, "velocity": 114}, {"time": 35420, "pitch": 67, "duration": 120, "velocity": 102}, {"time": 35998, "pitch": 52, "duration": 40, "velocity": 86}, {"time": 35998, "pitch": 55, "duration": 40, "velocity": 92}, {"time": 36008, "pitch": 59, "duration": 30, "velocity": 111}, {"time": 36008, "pitch": 64, "duration": 30, "velocity": 116}, {"time": 36138, "pitch": 59, "duration": 69, "velocity": 98}, {"time": 36138, "pitch": 64, "duration": 69, "velocity": 103}, {"time": 36148, "pitch": 52, "duration": 59, "velocity": 95}, {"time": 36148, "pitch": 55, "duration": 59, "velocity": 89}, {"time": 36237, "pitch": 52, "duration": 120, "velocity": 102}, {"time": 36237, "pitch": 55, "duration": 120, "velocity": 98}, {"time": 36247, "pitch": 59, "duration": 110, "velocity": 91}, {"time": 36247, "pitch": 64, "duration": 110, "velocity": 87}, {"time": 36377, "pitch": 52, "duration": 50, "velocity": 112}, {"time": 36377, "pitch": 55, "duration": 50, "velocity": 108}, {"time": 36377, "pitch": 59, "duration": 60, "velocity": 102}, {"time": 36377, "pitch": 64, "duration": 60, "velocity": 96}, {"time": 36477, "pitch": 52, "duration": 40, "velocity": 86}, {"time": 36477, "pitch": 55, "duration": 40, "velocity": 92}, {"time": 36487, "pitch": 59, "duration": 30, "velocity": 111}, {"time": 36487, "pitch": 64, "duration": 30, "velocity": 116}, {"time": 36720, "pitch": 57, "duration": 393, "velocity": 112}, {"time": 36720, "pitch": 60, "duration": 373, "velocity": 117}, {"time": 36720, "pitch": 64, "duration": 383, "velocity": 110}, {"time": 36720, "pitch": 69, "duration": 383, "velocity": 110}, {"time": 37203, "pitch": 55, "duration": 189, "velocity": 85}, {"time": 37203, "pitch": 59, "duration": 70, "velocity": 98}, {"time": 37203, "pitch": 62, "duration": 90, "velocity": 114}, {"time": 37344, "pitch": 59, "duration": 69, "velocity": 89}, {"time": 37344, "pitch": 62, "duration": 69, "velocity": 97}, {"time": 37442, "pitch": 55, "duration": 90, "velocity": 97}, {"time": 37442, "pitch": 59, "duration": 90, "velocity": 100}, {"time": 37442, "pitch": 62, "duration": 110, "velocity": 102}, {"time": 37583, "pitch": 57, "duration": 80, "velocity": 100}, {"time": 37583, "pitch": 60, "duration": 60, "velocity": 98}, {"time": 37583, "pitch": 64, "duration": 70, "velocity": 119}, {"time": 37921, "pitch": 52, "duration": 110, "velocity": 86}, {"time": 37921, "pitch": 57, "duration": 110, "velocity": 92}, {"time": 37931, "pitch": 60, "duration": 100, "velocity": 111}, {"time": 37931, "pitch": 64, "duration": 100, "velocity": 116}, {"time": 38061, "pitch": 60, "duration": 70, "velocity": 98}, {"time": 38061, "pitch": 64, "duration": 70, "velocity": 103}, {"time": 38071, "pitch": 52, "duration": 60, "velocity": 95}, {"time": 38071, "pitch": 57, "duration": 60, "velocity": 89}, {"time": 38161, "pitch": 52, "duration": 119, "velocity": 102}, {"time": 38161, "pitch": 57, "duration": 119, "velocity": 98}, {"time": 38171, "pitch": 60, "duration": 109, "velocity": 91}, {"time": 38171, "pitch": 64, "duration": 109, "velocity": 87}, {"time": 38300, "pitch": 52, "duration": 50, "velocity": 112}, {"time": 38300, "pitch": 57, "duration": 50, "velocity": 108}, {"time": 38300, "pitch": 60, "duration": 60, "velocity": 102}, {"time": 38300, "pitch": 64, "duration": 60, "velocity": 96}, {"time": 38400, "pitch": 52, "duration": 110, "velocity": 86}, {"time": 38400, "pitch": 57, "duration": 110, "velocity": 92}, {"time": 38410, "pitch": 60, "duration": 100, "velocity": 111}, {"time": 38410, "pitch": 64, "duration": 100, "velocity": 116}, {"time": 38540, "pitch": 60, "duration": 70, "velocity": 98}, {"time": 38540, "pitch": 64, "duration": 70, "velocity": 103}, {"time": 38550, "pitch": 52, "duration": 60, "velocity": 95}, {"time": 38550, "pitch": 57, "duration": 60, "velocity": 89}, {"time": 38640, "pitch": 52, "duration": 119, "velocity": 102}, {"time": 38640, "pitch": 57, "duration": 119, "velocity": 98}, {"time": 38650, "pitch": 60, "duration": 109, "velocity": 91}, {"time": 38650, "pitch": 64, "duration": 109, "velocity": 87}, {"time": 38779, "pitch": 52, "duration": 50, "velocity": 112}, {"time": 38779, "pitch": 57, "duration": 50, "velocity": 108}, {"time": 38779, "pitch": 60, "duration": 60, "velocity": 102}, {"time": 38779, "pitch": 64, "duration": 60, "velocity": 96}, {"time": 38879, "pitch": 52, "duration": 140, "velocity": 100}, {"time": 38879, "pitch": 55, "duration": 140, "velocity": 105}, {"time": 38889, "pitch": 59, "duration": 130, "velocity": 110}, {"time": 38889, "pitch": 64, "duration": 130, "velocity": 116}, {"time": 39019, "pitch": 64, "duration": 60, "velocity": 100}, {"time": 39029, "pitch": 52, "duration": 40, "velocity": 85}, {"time": 39029, "pitch": 55, "duration": 60, "velocity": 90}, {"time": 39108, "pitch": 52, "duration": 70, "velocity": 95}, {"time": 39108, "pitch": 55, "duration": 70, "velocity": 100}, {"time": 39118, "pitch": 59, "duration": 60, "velocity": 105}, {"time": 39118, "pitch": 64, "duration": 60, "velocity": 110}, {"time": 39258, "pitch": 52, "duration": 200, "velocity": 117}, {"time": 39258, "pitch": 55, "duration": 210, "velocity": 117}, {"time": 39258, "pitch": 59, "duration": 210, "velocity": 109}, {"time": 39258, "pitch": 64, "duration": 220, "velocity": 122}, {"time": 39498, "pitch": 55, "duration": 39, "velocity": 85}, {"time": 39498, "pitch": 59, "duration": 39, "velocity": 106}, {"time": 39498, "pitch": 64, "duration": 39, "velocity": 98}, {"time": 39597, "pitch": 52, "duration": 130, "velocity": 112}, {"time": 39597, "pitch": 55, "duration": 130, "velocity": 104}, {"time": 39597, "pitch": 59, "duration": 120, "velocity": 95}, {"time": 39597, "pitch": 64, "duration": 120, "velocity": 91}, {"time": 39737, "pitch": 52, "duration": 10, "velocity": 120}, {"time": 39737, "pitch": 55, "duration": 10, "velocity": 115}, {"time": 39737, "pitch": 59, "duration": 20, "velocity": 110}, {"time": 39737, "pitch": 64, "duration": 20, "velocity": 105}, {"time": 39837, "pitch": 52, "duration": 233, "velocity": 90}, {"time": 39847, "pitch": 55, "duration": 223, "velocity": 95}, {"time": 39857, "pitch": 59, "duration": 213, "velocity": 100}, {"time": 39867, "pitch": 64, "duration": 203, "velocity": 105}, {"time": 40080, "pitch": 52, "duration": 81, "velocity": 97}, {"time": 40080, "pitch": 55, "duration": 81, "velocity": 105}, {"time": 40080, "pitch": 59, "duration": 81, "velocity": 107}, {"time": 40080, "pitch": 64, "duration": 81, "velocity": 112}, {"time": 40222, "pitch": 52, "duration": 10, "velocity": 120}, {"time": 40222, "pitch": 55, "duration": 10, "velocity": 115}, {"time": 40222, "pitch": 59, "duration": 20, "velocity": 110}, {"time": 40222, "pitch": 64, "duration": 20, "velocity": 105}, {"time": 40323, "pitch": 52, "duration": 40, "velocity": 86}, {"time": 40323, "pitch": 55, "duration": 40, "velocity": 92}, {"time": 40333, "pitch": 59, "duration": 30, "velocity": 111}, {"time": 40333, "pitch": 64, "duration": 30, "velocity": 116}, {"time": 40463, "pitch": 59, "duration": 70, "velocity": 98}, {"time": 40463, "pitch": 64, "duration": 70, "velocity": 103}, {"time": 40473, "pitch": 52, "duration": 60, "velocity": 95}, {"time": 40473, "pitch": 55, "duration": 60, "velocity": 89}, {"time": 40563, "pitch": 52, "duration": 120, "velocity": 102}, {"time": 40563, "pitch": 57, "duration": 120, "velocity": 108}, {"time": 40573, "pitch": 60, "duration": 110, "velocity": 113}, {"time": 40573, "pitch": 64, "duration": 110, "velocity": 118}, {"time": 41042, "pitch": 52, "duration": 119, "velocity": 102}, {"time": 41042, "pitch": 55, "duration": 119, "velocity": 108}, {"time": 41052, "pitch": 60, "duration": 109, "velocity": 113}, {"time": 41052, "pitch": 64, "duration": 109, "velocity": 118}, {"time": 41521, "pitch": 50, "duration": 478, "velocity": 102}, {"time": 41521, "pitch": 57, "duration": 478, "velocity": 108}, {"time": 41531, "pitch": 60, "duration": 468, "velocity": 113}, {"time": 41531, "pitch": 66, "duration": 468, "velocity": 118}, {"time": 41999, "pitch": 50, "duration": 120, "velocity": 102}, {"time": 41999, "pitch": 54, "duration": 120, "velocity": 98}, {"time": 42009, "pitch": 60, "duration": 110, "velocity": 91}, {"time": 42009, "pitch": 64, "duration": 110, "velocity": 87}, {"time": 42139, "pitch": 50, "duration": 50, "velocity": 112}, {"time": 42139, "pitch": 54, "duration": 50, "velocity": 108}, {"time": 42139, "pitch": 60, "duration": 60, "velocity": 102}, {"time": 42139, "pitch": 64, "duration": 60, "velocity": 96}, {"time": 42239, "pitch": 50, "duration": 110, "velocity": 86}, {"time": 42239, "pitch": 54, "duration": 110, "velocity": 92}, {"time": 42249, "pitch": 60, "duration": 100, "velocity": 111}, {"time": 42249, "pitch": 64, "duration": 100, "velocity": 116}, {"time": 42379, "pitch": 60, "duration": 69, "velocity": 98}, {"time": 42379, "pitch": 64, "duration": 69, "velocity": 103}, {"time": 42389, "pitch": 50, "duration": 59, "velocity": 95}, {"time": 42389, "pitch": 54, "duration": 59, "velocity": 89}, {"time": 42478, "pitch": 50, "duration": 120, "velocity": 102}, {"time": 42478, "pitch": 54, "duration": 120, "velocity": 98}, {"time": 42488, "pitch": 60, "duration": 110, "velocity": 91}, {"time": 42488, "pitch": 64, "duration": 110, "velocity": 87}, {"time": 42618, "pitch": 50, "duration": 50, "velocity": 112}, {"time": 42618, "pitch": 54, "duration": 50, "velocity": 108}, {"time": 42618, "pitch": 60, "duration": 60, "velocity": 102}, {"time": 42618, "pitch": 64, "duration": 60, "velocity": 96}, {"time": 42718, "pitch": 50, "duration": 229, "velocity": 102}, {"time": 42718, "pitch": 57, "duration": 229, "velocity": 98}, {"time": 42728, "pitch": 60, "duration": 219, "velocity": 91}, {"time": 42728, "pitch": 65, "duration": 219, "velocity": 87}, {"time": 42957, "pitch": 50, "duration": 120, "velocity": 102}, {"time": 42957, "pitch": 57, "duration": 120, "velocity": 98}, {"time": 42967, "pitch": 60, "duration": 110, "velocity": 91}, {"time": 42967, "pitch": 65, "duration": 110, "velocity": 87}, {"time": 43097, "pitch": 50, "duration": 50, "velocity": 112}, {"time": 43097, "pitch": 57, "duration": 50, "velocity": 108}, {"time": 43097, "pitch": 60, "duration": 60, "velocity": 102}, {"time": 43097, "pitch": 65, "duration": 60, "velocity": 96}, {"time": 43197, "pitch": 50, "duration": 111, "velocity": 86}, {"time": 43197, "pitch": 57, "duration": 111, "velocity": 92}, {"time": 43207, "pitch": 60, "duration": 101, "velocity": 111}, {"time": 43207, "pitch": 65, "duration": 101, "velocity": 116}, {"time": 43339, "pitch": 60, "duration": 71, "velocity": 98}, {"time": 43339, "pitch": 65, "duration": 71, "velocity": 103}, {"time": 43349, "pitch": 50, "duration": 61, "velocity": 95}, {"time": 43349, "pitch": 57, "duration": 61, "velocity": 89}, {"time": 43440, "pitch": 50, "duration": 122, "velocity": 102}, {"time": 43440, "pitch": 57, "duration": 122, "velocity": 98}, {"time": 43450, "pitch": 60, "duration": 112, "velocity": 91}, {"time": 43450, "pitch": 65, "duration": 112, "velocity": 87}, {"time": 43582, "pitch": 50, "duration": 51, "velocity": 112}, {"time": 43582, "pitch": 57, "duration": 51, "velocity": 108}, {"time": 43582, "pitch": 60, "duration": 61, "velocity": 102}, {"time": 43582, "pitch": 65, "duration": 61, "velocity": 96}, {"time": 43683, "pitch": 50, "duration": 230, "velocity": 102}, {"time": 43683, "pitch": 57, "duration": 230, "velocity": 98}, {"time": 43693, "pitch": 60, "duration": 220, "velocity": 91}, {"time": 43693, "pitch": 65, "duration": 220, "velocity": 87}, {"time": 43923, "pitch": 50, "duration": 119, "velocity": 102}, {"time": 43923, "pitch": 57, "duration": 119, "velocity": 98}, {"time": 43933, "pitch": 60, "duration": 109, "velocity": 91}, {"time": 43933, "pitch": 65, "duration": 109, "velocity": 87}, {"time": 44062, "pitch": 50, "duration": 50, "velocity": 112}, {"time": 44062, "pitch": 57, "duration": 50, "velocity": 108}, {"time": 44062, "pitch": 60, "duration": 60, "velocity": 102}, {"time": 44062, "pitch": 65, "duration": 60, "velocity": 96}, {"time": 44162, "pitch": 50, "duration": 110, "velocity": 86}, {"time": 44162, "pitch": 57, "duration": 110, "velocity": 92}, {"time": 44172, "pitch": 60, "duration": 100, "velocity": 111}, {"time": 44172, "pitch": 65, "duration": 100, "velocity": 116}, {"time": 44302, "pitch": 60, "duration": 70, "velocity": 98}, {"time": 44302, "pitch": 65, "duration": 70, "velocity": 103}, {"time": 44312, "pitch": 50, "duration": 60, "velocity": 95}, {"time": 44312, "pitch": 57, "duration": 60, "velocity": 89}, {"time": 44402, "pitch": 50, "duration": 119, "velocity": 102}, {"time": 44402, "pitch": 57, "duration": 119, "velocity": 98}, {"time": 44412, "pitch": 60, "duration": 109, "velocity": 91}, {"time": 44412, "pitch": 65, "duration": 109, "velocity": 87}, {"time": 44541, "pitch": 50, "duration": 50, "velocity": 112}, {"time": 44541, "pitch": 57, "duration": 50, "velocity": 108}, {"time": 44541, "pitch": 60, "duration": 60, "velocity": 102}, {"time": 44541, "pitch": 65, "duration": 60, "velocity": 96}, {"time": 44641, "pitch": 55, "duration": 110, "velocity": 86}, {"time": 44641, "pitch": 57, "duration": 110, "velocity": 92}, {"time": 44651, "pitch": 60, "duration": 100, "velocity": 111}, {"time": 44651, "pitch": 67, "duration": 100, "velocity": 116}, {"time": 44781, "pitch": 60, "duration": 70, "velocity": 113}, {"time": 44781, "pitch": 67, "duration": 70, "velocity": 118}, {"time": 44791, "pitch": 55, "duration": 60, "velocity": 110}, {"time": 44791, "pitch": 57, "duration": 60, "velocity": 104}, {"time": 45359, "pitch": 55, "duration": 589, "velocity": 86}, {"time": 45359, "pitch": 57, "duration": 589, "velocity": 92}, {"time": 45369, "pitch": 60, "duration": 579, "velocity": 111}, {"time": 45369, "pitch": 67, "duration": 579, "velocity": 116}, {"time": 46078, "pitch": 55, "duration": 469, "velocity": 86}, {"time": 46078, "pitch": 59, "duration": 469, "velocity": 92}, {"time": 46088, "pitch": 62, "duration": 459, "velocity": 111}, {"time": 46088, "pitch": 67, "duration": 459, "velocity": 116}, {"time": 46557, "pitch": 48, "duration": 142, "velocity": 100}, {"time": 46557, "pitch": 55, "duration": 142, "velocity": 105}, {"time": 46567, "pitch": 60, "duration": 132, "velocity": 110}, {"time": 46567, "pitch": 64, "duration": 132, "velocity": 116}, {"time": 46699, "pitch": 64, "duration": 60, "velocity": 100}, {"time": 46709, "pitch": 48, "duration": 40, "velocity": 85}, {"time": 46709, "pitch": 55, "duration": 60, "velocity": 90}, {"time": 46790, "pitch": 48, "duration": 71, "velocity": 95}, {"time": 46790, "pitch": 55, "duration": 71, "velocity": 100}, {"time": 46800, "pitch": 60, "duration": 61, "velocity": 105}, {"time": 46800, "pitch": 64, "duration": 61, "velocity": 110}, {"time": 46942, "pitch": 48, "duration": 201, "velocity": 117}, {"time": 46942, "pitch": 55, "duration": 211, "velocity": 117}, {"time": 46942, "pitch": 60, "duration": 211, "velocity": 109}, {"time": 46942, "pitch": 64, "duration": 221, "velocity": 122}, {"time": 47183, "pitch": 55, "duration": 40, "velocity": 85}, {"time": 47183, "pitch": 60, "duration": 40, "velocity": 106}, {"time": 47183, "pitch": 64, "duration": 40, "velocity": 98}, {"time": 47283, "pitch": 48, "duration": 129, "velocity": 112}, {"time": 47283, "pitch": 55, "duration": 129, "velocity": 104}, {"time": 47283, "pitch": 60, "duration": 119, "velocity": 95}, {"time": 47283, "pitch": 64, "duration": 119, "velocity": 91}, {"time": 47422, "pitch": 48, "duration": 10, "velocity": 120}, {"time": 47422, "pitch": 55, "duration": 10, "velocity": 115}, {"time": 47422, "pitch": 60, "duration": 20, "velocity": 110}, {"time": 47422, "pitch": 64, "duration": 20, "velocity": 105}, {"time": 47522, "pitch": 48, "duration": 230, "velocity": 90}, {"time": 47532, "pitch": 55, "duration": 220, "velocity": 95}, {"time": 47542, "pitch": 60, "duration": 210, "velocity": 100}, {"time": 47552, "pitch": 64, "duration": 200, "velocity": 105}, {"time": 47762, "pitch": 48, "duration": 79, "velocity": 97}, {"time": 47762, "pitch": 55, "duration": 79, "velocity": 105}, {"time": 47762, "pitch": 60, "duration": 79, "velocity": 107}, {"time": 47762, "pitch": 64, "duration": 79, "velocity": 112}, {"time": 47901, "pitch": 48, "duration": 10, "velocity": 120}, {"time": 47901, "pitch": 55, "duration": 10, "velocity": 115}, {"time": 47901, "pitch": 60, "duration": 20, "velocity": 110}, {"time": 47901, "pitch": 64, "duration": 20, "velocity": 105}, {"time": 48001, "pitch": 48, "duration": 40, "velocity": 86}, {"time": 48001, "pitch": 55, "duration": 40, "velocity": 92}, {"time": 48011, "pitch": 60, "duration": 30, "velocity": 111}, {"time": 48011, "pitch": 64, "duration": 30, "velocity": 116}, {"time": 48141, "pitch": 60, "duration": 69, "velocity": 98}, {"time": 48141, "pitch": 64, "duration": 69, "velocity": 103}, {"time": 48151, "pitch": 48, "duration": 59, "velocity": 95}, {"time": 48151, "pitch": 55, "duration": 59, "velocity": 89}, {"time": 48240, "pitch": 48, "duration": 120, "velocity": 102}, {"time": 48240, "pitch": 55, "duration": 120, "velocity": 98}, {"time": 48250, "pitch": 60, "duration": 110, "velocity": 91}, {"time": 48250, "pitch": 64, "duration": 110, "velocity": 87}, {"time": 48380, "pitch": 48, "duration": 50, "velocity": 112}, {"time": 48380, "pitch": 55, "duration": 50, "velocity": 108}, {"time": 48380, "pitch": 60, "duration": 60, "velocity": 102}, {"time": 48380, "pitch": 64, "duration": 60, "velocity": 96}, {"time": 48480, "pitch": 52, "duration": 140, "velocity": 100}, {"time": 48480, "pitch": 55, "duration": 140, "velocity": 105}, {"time": 48490, "pitch": 59, "duration": 130, "velocity": 110}, {"time": 48490, "pitch": 64, "duration": 130, "velocity": 116}, {"time": 48620, "pitch": 64, "duration": 59, "velocity": 100}, {"time": 48630, "pitch": 52, "duration": 39, "velocity": 85}, {"time": 48630, "pitch": 55, "duration": 59, "velocity": 90}, {"time": 48709, "pitch": 52, "duration": 70, "velocity": 95}, {"time": 48709, "pitch": 55, "duration": 70, "velocity": 100}, {"time": 48719, "pitch": 59, "duration": 60, "velocity": 105}, {"time": 48719, "pitch": 64, "duration": 60, "velocity": 110}, {"time": 48859, "pitch": 52, "duration": 200, "velocity": 117}, {"time": 48859, "pitch": 55, "duration": 209, "velocity": 117}, {"time": 48859, "pitch": 59, "duration": 209, "velocity": 109}, {"time": 48859, "pitch": 64, "duration": 219, "velocity": 122}, {"time": 49098, "pitch": 55, "duration": 40, "velocity": 85}, {"time": 49098, "pitch": 59, "duration": 40, "velocity": 106}, {"time": 49098, "pitch": 64, "duration": 40, "velocity": 98}, {"time": 49198, "pitch": 52, "duration": 130, "velocity": 112}, {"time": 49198, "pitch": 55, "duration": 130, "velocity": 104}, {"time": 49198, "pitch": 59, "duration": 120, "velocity": 95}, {"time": 49198, "pitch": 64, "duration": 120, "velocity": 91}, {"time": 49338, "pitch": 52, "duration": 10, "velocity": 120}, {"time": 49338, "pitch": 55, "duration": 10, "velocity": 115}, {"time": 49338, "pitch": 59, "duration": 20, "velocity": 110}, {"time": 49338, "pitch": 64, "duration": 20, "velocity": 105}, {"time": 49438, "pitch": 52, "duration": 229, "velocity": 90}, {"time": 49448, "pitch": 55, "duration": 219, "velocity": 95}, {"time": 49458, "pitch": 59, "duration": 209, "velocity": 100}, {"time": 49468, "pitch": 64, "duration": 199, "velocity": 105}, {"time": 49677, "pitch": 52, "duration": 80, "velocity": 97}, {"time": 49677, "pitch": 55, "duration": 80, "velocity": 105}, {"time": 49677, "pitch": 59, "duration": 80, "velocity": 107}, {"time": 49677, "pitch": 64, "duration": 80, "velocity": 112}, {"time": 49817, "pitch": 52, "duration": 10, "velocity": 120}, {"time": 49817, "pitch": 55, "duration": 10, "velocity": 115}, {"time": 49817, "pitch": 59, "duration": 20, "velocity": 110}, {"time": 49817, "pitch": 64, "duration": 20, "velocity": 105}, {"time": 49917, "pitch": 52, "duration": 40, "velocity": 86}, {"time": 49917, "pitch": 55, "duration": 40, "velocity": 92}, {"time": 49927, "pitch": 59, "duration": 30, "velocity": 111}, {"time": 49927, "pitch": 64, "duration": 30, "velocity": 116}, {"time": 50058, "pitch": 59, "duration": 71, "velocity": 98}, {"time": 50058, "pitch": 64, "duration": 71, "velocity": 103}, {"time": 50069, "pitch": 52, "duration": 60, "velocity": 95}, {"time": 50069, "pitch": 55, "duration": 60, "velocity": 89}, {"time": 50160, "pitch": 52, "duration": 122, "velocity": 102}, {"time": 50160, "pitch": 55, "duration": 122, "velocity": 98}, {"time": 50170, "pitch": 59, "duration": 112, "velocity": 91}, {"time": 50170, "pitch": 64, "duration": 112, "velocity": 87}, {"time": 50302, "pitch": 52, "duration": 50, "velocity": 112}, {"time": 50302, "pitch": 55, "duration": 50, "velocity": 108}, {"time": 50302, "pitch": 59, "duration": 61, "velocity": 102}, {"time": 50302, "pitch": 64, "duration": 61, "velocity": 96}, {"time": 50403, "pitch": 52, "duration": 140, "velocity": 100}, {"time": 50403, "pitch": 57, "duration": 140, "velocity": 105}, {"time": 50413, "pitch": 60, "duration": 130, "velocity": 110}, {"time": 50413, "pitch": 64, "duration": 130, "velocity": 116}, {"time": 50543, "pitch": 64, "duration": 60, "velocity": 100}, {"time": 50553, "pitch": 52, "duration": 40, "velocity": 85}, {"time": 50553, "pitch": 57, "duration": 60, "velocity": 90}, {"time": 50633, "pitch": 52, "duration": 69, "velocity": 95}, {"time": 50633, "pitch": 57, "duration": 69, "velocity": 100}, {"time": 50643, "pitch": 60, "duration": 59, "velocity": 105}, {"time": 50643, "pitch": 64, "duration": 59, "velocity": 110}, {"time": 50782, "pitch": 52, "duration": 200, "velocity": 117}, {"time": 50782, "pitch": 57, "duration": 210, "velocity": 117}, {"time": 50782, "pitch": 60, "duration": 210, "velocity": 109}, {"time": 50782, "pitch": 64, "duration": 220, "velocity": 122}, {"time": 51022, "pitch": 57, "duration": 40, "velocity": 85}, {"time": 51022, "pitch": 60, "duration": 40, "velocity": 106}, {"time": 51022, "pitch": 64, "duration": 40, "velocity": 98}, {"time": 51121, "pitch": 52, "duration": 130, "velocity": 112}, {"time": 51121, "pitch": 57, "duration": 130, "velocity": 104}, {"time": 51121, "pitch": 60, "duration": 120, "velocity": 95}, {"time": 51121, "pitch": 64, "duration": 120, "velocity": 91}, {"time": 51261, "pitch": 52, "duration": 10, "velocity": 120}, {"time": 51261, "pitch": 57, "duration": 10, "velocity": 115}, {"time": 51261, "pitch": 60, "duration": 20, "velocity": 110}, {"time": 51261, "pitch": 64, "duration": 20, "velocity": 105}, {"time": 51361, "pitch": 52, "duration": 229, "velocity": 90}, {"time": 51371, "pitch": 57, "duration": 219, "velocity": 95}, {"time": 51381, "pitch": 60, "duration": 209, "velocity": 100}, {"time": 51391, "pitch": 64, "duration": 199, "velocity": 105}, {"time": 51600, "pitch": 52, "duration": 80, "velocity": 97}, {"time": 51600, "pitch": 57, "duration": 80, "velocity": 105}, {"time": 51600, "pitch": 60, "duration": 80, "velocity": 107}, {"time": 51600, "pitch": 64, "duration": 80, "velocity": 112}, {"time": 51740, "pitch": 52, "duration": 10, "velocity": 120}, {"time": 51740, "pitch": 57, "duration": 10, "velocity": 115}, {"time": 51740, "pitch": 60, "duration": 20, "velocity": 110}, {"time": 51740, "pitch": 64, "duration": 20, "velocity": 105}, {"time": 51840, "pitch": 52, "duration": 40, "velocity": 86}, {"time": 51840, "pitch": 57, "duration": 40, "velocity": 92}, {"time": 51850, "pitch": 60, "duration": 30, "velocity": 111}, {"time": 51850, "pitch": 64, "duration": 30, "velocity": 116}, {"time": 51979, "pitch": 60, "duration": 70, "velocity": 98}, {"time": 51979, "pitch": 64, "duration": 70, "velocity": 103}, {"time": 51989, "pitch": 52, "duration": 60, "velocity": 95}, {"time": 51989, "pitch": 57, "duration": 60, "velocity": 89}, {"time": 52079, "pitch": 52, "duration": 120, "velocity": 102}, {"time": 52079, "pitch": 57, "duration": 120, "velocity": 98}, {"time": 52089, "pitch": 60, "duration": 110, "velocity": 91}, {"time": 52089, "pitch": 64, "duration": 110, "velocity": 87}, {"time": 52219, "pitch": 52, "duration": 50, "velocity": 112}, {"time": 52219, "pitch": 57, "duration": 50, "velocity": 108}, {"time": 52219, "pitch": 60, "duration": 60, "velocity": 102}, {"time": 52219, "pitch": 64, "duration": 60, "velocity": 96}, {"time": 52319, "pitch": 53, "duration": 139, "velocity": 100}, {"time": 52319, "pitch": 57, "duration": 139, "velocity": 105}, {"time": 52329, "pitch": 60, "duration": 129, "velocity": 110}, {"time": 52329, "pitch": 65, "duration": 129, "velocity": 116}, {"time": 52458, "pitch": 65, "duration": 60, "velocity": 100}, {"time": 52468, "pitch": 53, "duration": 40, "velocity": 85}, {"time": 52468, "pitch": 57, "duration": 60, "velocity": 90}, {"time": 52548, "pitch": 53, "duration": 70, "velocity": 95}, {"time": 52548, "pitch": 57, "duration": 70, "velocity": 100}, {"time": 52558, "pitch": 60, "duration": 60, "velocity": 105}, {"time": 52558, "pitch": 65, "duration": 60, "velocity": 110}, {"time": 52698, "pitch": 53, "duration": 199, "velocity": 117}, {"time": 52698, "pitch": 57, "duration": 209, "velocity": 117}, {"time": 52698, "pitch": 60, "duration": 209, "velocity": 109}, {"time": 52698, "pitch": 65, "duration": 219, "velocity": 122}, {"time": 52937, "pitch": 57, "duration": 40, "velocity": 85}, {"time": 52937, "pitch": 60, "duration": 40, "velocity": 106}, {"time": 52937, "pitch": 65, "duration": 40, "velocity": 98}, {"time": 53037, "pitch": 53, "duration": 130, "velocity": 112}, {"time": 53037, "pitch": 57, "duration": 130, "velocity": 104}, {"time": 53037, "pitch": 60, "duration": 120, "velocity": 95}, {"time": 53037, "pitch": 65, "duration": 120, "velocity": 91}, {"time": 53177, "pitch": 53, "duration": 10, "velocity": 120}, {"time": 53177, "pitch": 57, "duration": 10, "velocity": 115}, {"time": 53177, "pitch": 60, "duration": 20, "velocity": 110}, {"time": 53177, "pitch": 65, "duration": 20, "velocity": 105}, {"time": 53276, "pitch": 50, "duration": 234, "velocity": 90}, {"time": 53287, "pitch": 57, "duration": 223, "velocity": 95}, {"time": 53297, "pitch": 60, "duration": 213, "velocity": 100}, {"time": 53307, "pitch": 65, "duration": 203, "velocity": 105}, {"time": 53520, "pitch": 50, "duration": 81, "velocity": 97}, {"time": 53520, "pitch": 57, "duration": 81, "velocity": 105}, {"time": 53520, "pitch": 60, "duration": 81, "velocity": 107}, {"time": 53520, "pitch": 65, "duration": 81, "velocity": 112}, {"time": 53662, "pitch": 50, "duration": 10, "velocity": 120}, {"time": 53662, "pitch": 57, "duration": 10, "velocity": 115}, {"time": 53662, "pitch": 60, "duration": 20, "velocity": 110}, {"time": 53662, "pitch": 65, "duration": 20, "velocity": 105}, {"time": 53763, "pitch": 55, "duration": 40, "velocity": 86}, {"time": 53763, "pitch": 59, "duration": 40, "velocity": 92}, {"time": 53773, "pitch": 62, "duration": 30, "velocity": 111}, {"time": 53773, "pitch": 67, "duration": 30, "velocity": 116}, {"time": 53903, "pitch": 62, "duration": 70, "velocity": 98}, {"time": 53903, "pitch": 67, "duration": 70, "velocity": 103}, {"time": 53913, "pitch": 55, "duration": 60, "velocity": 95}, {"time": 53913, "pitch": 59, "duration": 60, "velocity": 89}, {"time": 54002, "pitch": 55, "duration": 120, "velocity": 102}, {"time": 54002, "pitch": 59, "duration": 120, "velocity": 98}, {"time": 54012, "pitch": 62, "duration": 110, "velocity": 91}, {"time": 54012, "pitch": 67, "duration": 110, "velocity": 87}, {"time": 54142, "pitch": 55, "duration": 50, "velocity": 112}, {"time": 54142, "pitch": 59, "duration": 50, "velocity": 108}, {"time": 54142, "pitch": 62, "duration": 60, "velocity": 102}, {"time": 54142, "pitch": 67, "duration": 60, "velocity": 96}, {"time": 54242, "pitch": 48, "duration": 140, "velocity": 100}, {"time": 54242, "pitch": 55, "duration": 140, "velocity": 105}, {"time": 54252, "pitch": 60, "duration": 130, "velocity": 110}, {"time": 54252, "pitch": 64, "duration": 130, "velocity": 116}, {"time": 54382, "pitch": 64, "duration": 59, "velocity": 100}, {"time": 54392, "pitch": 48, "duration": 39, "velocity": 85}, {"time": 54392, "pitch": 55, "duration": 59, "velocity": 90}, {"time": 54471, "pitch": 48, "duration": 70, "velocity": 95}, {"time": 54471, "pitch": 55, "duration": 70, "velocity": 100}, {"time": 54481, "pitch": 60, "duration": 60, "velocity": 105}, {"time": 54481, "pitch": 64, "duration": 60, "velocity": 110}, {"time": 54621, "pitch": 48, "duration": 200, "velocity": 117}, {"time": 54621, "pitch": 55, "duration": 210, "velocity": 117}, {"time": 54621, "pitch": 60, "duration": 210, "velocity": 109}, {"time": 54621, "pitch": 64, "duration": 220, "velocity": 122}, {"time": 54860, "pitch": 55, "duration": 40, "velocity": 85}, {"time": 54860, "pitch": 60, "duration": 40, "velocity": 106}, {"time": 54860, "pitch": 64, "duration": 40, "velocity": 98}, {"time": 54960, "pitch": 48, "duration": 130, "velocity": 112}, {"time": 54960, "pitch": 55, "duration": 130, "velocity": 104}, {"time": 54960, "pitch": 60, "duration": 120, "velocity": 95}, {"time": 54960, "pitch": 64, "duration": 120, "velocity": 91}, {"time": 55100, "pitch": 48, "duration": 10, "velocity": 120}, {"time": 55100, "pitch": 55, "duration": 10, "velocity": 115}, {"time": 55100, "pitch": 60, "duration": 20, "velocity": 110}, {"time": 55100, "pitch": 64, "duration": 20, "velocity": 105}, {"time": 55200, "pitch": 48, "duration": 229, "velocity": 90}, {"time": 55210, "pitch": 55, "duration": 219, "velocity": 95}, {"time": 55220, "pitch": 60, "duration": 209, "velocity": 100}, {"time": 55230, "pitch": 64, "duration": 199, "velocity": 105}, {"time": 55439, "pitch": 48, "duration": 80, "velocity": 97}, {"time": 55439, "pitch": 55, "duration": 80, "velocity": 105}, {"time": 55439, "pitch": 60, "duration": 80, "velocity": 107}, {"time": 55439, "pitch": 64, "duration": 80, "velocity": 112}, {"time": 55579, "pitch": 48, "duration": 10, "velocity": 120}, {"time": 55579, "pitch": 55, "duration": 10, "velocity": 115}, {"time": 55579, "pitch": 60, "duration": 20, "velocity": 110}, {"time": 55579, "pitch": 64, "duration": 20, "velocity": 105}, {"time": 55679, "pitch": 48, "duration": 39, "velocity": 86}, {"time": 55679, "pitch": 55, "duration": 39, "velocity": 92}, {"time": 55689, "pitch": 60, "duration": 29, "velocity": 111}, {"time": 55689, "pitch": 64, "duration": 29, "velocity": 116}, {"time": 55818, "pitch": 60, "duration": 70, "velocity": 98}, {"time": 55818, "pitch": 64, "duration": 70, "velocity": 103}, {"time": 55828, "pitch": 48, "duration": 60, "velocity": 95}, {"time": 55828, "pitch": 55, "duration": 60, "velocity": 89}, {"time": 55918, "pitch": 48, "duration": 120, "velocity": 102}, {"time": 55918, "pitch": 55, "duration": 120, "velocity": 98}, {"time": 55928, "pitch": 60, "duration": 110, "velocity": 91}, {"time": 55928, "pitch": 64, "duration": 110, "velocity": 87}, {"time": 56058, "pitch": 48, "duration": 50, "velocity": 112}, {"time": 56058, "pitch": 55, "duration": 50, "velocity": 108}, {"time": 56058, "pitch": 60, "duration": 60, "velocity": 102}, {"time": 56058, "pitch": 64, "duration": 60, "velocity": 96}, {"time": 56157, "pitch": 52, "duration": 140, "velocity": 100}, {"time": 56157, "pitch": 55, "duration": 140, "velocity": 105}, {"time": 56167, "pitch": 59, "duration": 130, "velocity": 110}, {"time": 56167, "pitch": 64, "duration": 130, "velocity": 116}, {"time": 56297, "pitch": 64, "duration": 60, "velocity": 100}, {"time": 56307, "pitch": 52, "duration": 40, "velocity": 85}, {"time": 56307, "pitch": 55, "duration": 60, "velocity": 90}, {"time": 56387, "pitch": 52, "duration": 70, "velocity": 95}, {"time": 56387, "pitch": 55, "duration": 70, "velocity": 100}, {"time": 56397, "pitch": 59, "duration": 60, "velocity": 105}, {"time": 56397, "pitch": 64, "duration": 60, "velocity": 110}, {"time": 56537, "pitch": 52, "duration": 201, "velocity": 117}, {"time": 56537, "pitch": 55, "duration": 211, "velocity": 117}, {"time": 56537, "pitch": 59, "duration": 211, "velocity": 109}, {"time": 56537, "pitch": 64, "duration": 221, "velocity": 122}, {"time": 56778, "pitch": 55, "duration": 41, "velocity": 85}, {"time": 56778, "pitch": 59, "duration": 41, "velocity": 106}, {"time": 56778, "pitch": 64, "duration": 41, "velocity": 98}, {"time": 56880, "pitch": 52, "duration": 131, "velocity": 117}, {"time": 56880, "pitch": 57, "duration": 213, "velocity": 117}, {"time": 56880, "pitch": 60, "duration": 213, "velocity": 109}, {"time": 56880, "pitch": 64, "duration": 223, "velocity": 122}, {"time": 57123, "pitch": 52, "duration": 229, "velocity": 90}, {"time": 57133, "pitch": 57, "duration": 219, "velocity": 95}, {"time": 57143, "pitch": 60, "duration": 209, "velocity": 100}, {"time": 57153, "pitch": 64, "duration": 199, "velocity": 105}, {"time": 57362, "pitch": 52, "duration": 80, "velocity": 97}, {"time": 57362, "pitch": 57, "duration": 80, "velocity": 105}, {"time": 57362, "pitch": 60, "duration": 80, "velocity": 107}, {"time": 57362, "pitch": 64, "duration": 80, "velocity": 112}, {"time": 57602, "pitch": 52, "duration": 40, "velocity": 86}, {"time": 57602, "pitch": 57, "duration": 40, "velocity": 92}, {"time": 57612, "pitch": 60, "duration": 30, "velocity": 111}, {"time": 57612, "pitch": 64, "duration": 30, "velocity": 116}, {"time": 57742, "pitch": 60, "duration": 69, "velocity": 98}, {"time": 57742, "pitch": 64, "duration": 69, "velocity": 103}, {"time": 57751, "pitch": 52, "duration": 60, "velocity": 95}, {"time": 57751, "pitch": 57, "duration": 60, "velocity": 89}, {"time": 57841, "pitch": 52, "duration": 120, "velocity": 102}, {"time": 57841, "pitch": 57, "duration": 120, "velocity": 98}, {"time": 57851, "pitch": 60, "duration": 110, "velocity": 91}, {"time": 57851, "pitch": 64, "duration": 110, "velocity": 87}, {"time": 57981, "pitch": 52, "duration": 50, "velocity": 112}, {"time": 57981, "pitch": 57, "duration": 50, "velocity": 108}, {"time": 57981, "pitch": 60, "duration": 60, "velocity": 102}, {"time": 57981, "pitch": 64, "duration": 60, "velocity": 96}, {"time": 58081, "pitch": 50, "duration": 139, "velocity": 100}, {"time": 58081, "pitch": 57, "duration": 139, "velocity": 105}, {"time": 58091, "pitch": 60, "duration": 129, "velocity": 110}, {"time": 58091, "pitch": 65, "duration": 129, "velocity": 116}, {"time": 58220, "pitch": 65, "duration": 60, "velocity": 100}, {"time": 58230, "pitch": 50, "duration": 40, "velocity": 85}, {"time": 58230, "pitch": 57, "duration": 60, "velocity": 90}, {"time": 58310, "pitch": 50, "duration": 70, "velocity": 95}, {"time": 58310, "pitch": 57, "duration": 70, "velocity": 100}, {"time": 58320, "pitch": 60, "duration": 60, "velocity": 105}, {"time": 58320, "pitch": 65, "duration": 60, "velocity": 110}, {"time": 58460, "pitch": 50, "duration": 199, "velocity": 117}, {"time": 58460, "pitch": 57, "duration": 209, "velocity": 117}, {"time": 58460, "pitch": 60, "duration": 209, "velocity": 109}, {"time": 58460, "pitch": 65, "duration": 219, "velocity": 122}, {"time": 58699, "pitch": 57, "duration": 40, "velocity": 85}, {"time": 58699, "pitch": 60, "duration": 40, "velocity": 106}, {"time": 58699, "pitch": 65, "duration": 40, "velocity": 98}, {"time": 58799, "pitch": 50, "duration": 130, "velocity": 112}, {"time": 58799, "pitch": 57, "duration": 130, "velocity": 104}, {"time": 58799, "pitch": 60, "duration": 120, "velocity": 95}, {"time": 58799, "pitch": 65, "duration": 120, "velocity": 91}, {"time": 58939, "pitch": 50, "duration": 10, "velocity": 120}, {"time": 58939, "pitch": 57, "duration": 10, "velocity": 115}, {"time": 58939, "pitch": 60, "duration": 20, "velocity": 110}, {"time": 58939, "pitch": 65, "duration": 20, "velocity": 105}, {"time": 59038, "pitch": 50, "duration": 230, "velocity": 90}, {"time": 59048, "pitch": 57, "duration": 220, "velocity": 95}, {"time": 59058, "pitch": 60, "duration": 210, "velocity": 100}, {"time": 59068, "pitch": 65, "duration": 200, "velocity": 105}, {"time": 59278, "pitch": 50, "duration": 80, "velocity": 97}, {"time": 59278, "pitch": 57, "duration": 80, "velocity": 105}, {"time": 59278, "pitch": 60, "duration": 80, "velocity": 107}, {"time": 59278, "pitch": 65, "duration": 80, "velocity": 112}, {"time": 59418, "pitch": 50, "duration": 10, "velocity": 120}, {"time": 59418, "pitch": 57, "duration": 10, "velocity": 115}, {"time": 59418, "pitch": 60, "duration": 20, "velocity": 110}, {"time": 59418, "pitch": 65, "duration": 20, "velocity": 105}, {"time": 59517, "pitch": 50, "duration": 40, "velocity": 86}, {"time": 59517, "pitch": 57, "duration": 40, "velocity": 92}, {"time": 59527, "pitch": 60, "duration": 30, "velocity": 111}, {"time": 59527, "pitch": 65, "duration": 30, "velocity": 116}, {"time": 59657, "pitch": 60, "duration": 70, "velocity": 98}, {"time": 59657, "pitch": 65, "duration": 70, "velocity": 103}, {"time": 59667, "pitch": 50, "duration": 60, "velocity": 95}, {"time": 59667, "pitch": 57, "duration": 60, "velocity": 89}, {"time": 59757, "pitch": 50, "duration": 120, "velocity": 102}, {"time": 59757, "pitch": 57, "duration": 120, "velocity": 98}, {"time": 59767, "pitch": 60, "duration": 110, "velocity": 91}, {"time": 59767, "pitch": 65, "duration": 110, "velocity": 87}, {"time": 59896, "pitch": 50, "duration": 50, "velocity": 112}, {"time": 59896, "pitch": 57, "duration": 50, "velocity": 108}, {"time": 59896, "pitch": 60, "duration": 60, "velocity": 102}, {"time": 59896, "pitch": 65, "duration": 60, "velocity": 96}, {"time": 59996, "pitch": 53, "duration": 142, "velocity": 100}, {"time": 59996, "pitch": 56, "duration": 142, "velocity": 105}, {"time": 60006, "pitch": 60, "duration": 132, "velocity": 110}, {"time": 60006, "pitch": 65, "duration": 132, "velocity": 116}, {"time": 60138, "pitch": 65, "duration": 61, "velocity": 100}, {"time": 60148, "pitch": 53, "duration": 41, "velocity": 85}, {"time": 60148, "pitch": 56, "duration": 61, "velocity": 90}, {"time": 60229, "pitch": 53, "duration": 71, "velocity": 95}, {"time": 60229, "pitch": 56, "duration": 71, "velocity": 100}, {"time": 60240, "pitch": 60, "duration": 60, "velocity": 105}, {"time": 60240, "pitch": 65, "duration": 60, "velocity": 110}, {"time": 60382, "pitch": 53, "duration": 201, "velocity": 117}, {"time": 60382, "pitch": 56, "duration": 211, "velocity": 117}, {"time": 60382, "pitch": 60, "duration": 211, "velocity": 109}, {"time": 60382, "pitch": 65, "duration": 221, "velocity": 122}, {"time": 60623, "pitch": 56, "duration": 39, "velocity": 85}, {"time": 60623, "pitch": 60, "duration": 39, "velocity": 106}, {"time": 60623, "pitch": 65, "duration": 39, "velocity": 98}, {"time": 60722, "pitch": 53, "duration": 130, "velocity": 112}, {"time": 60722, "pitch": 56, "duration": 130, "velocity": 104}, {"time": 60722, "pitch": 60, "duration": 120, "velocity": 95}, {"time": 60722, "pitch": 65, "duration": 120, "velocity": 91}, {"time": 60862, "pitch": 53, "duration": 10, "velocity": 120}, {"time": 60862, "pitch": 56, "duration": 10, "velocity": 115}, {"time": 60862, "pitch": 60, "duration": 20, "velocity": 110}, {"time": 60862, "pitch": 65, "duration": 20, "velocity": 105}, {"time": 60962, "pitch": 53, "duration": 229, "velocity": 90}, {"time": 60972, "pitch": 56, "duration": 219, "velocity": 95}, {"time": 60982, "pitch": 60, "duration": 209, "velocity": 100}, {"time": 60992, "pitch": 65, "duration": 199, "velocity": 105}, {"time": 61201, "pitch": 53, "duration": 80, "velocity": 97}, {"time": 61201, "pitch": 56, "duration": 80, "velocity": 105}, {"time": 61201, "pitch": 60, "duration": 80, "velocity": 107}, {"time": 61201, "pitch": 65, "duration": 80, "velocity": 112}, {"time": 61341, "pitch": 53, "duration": 10, "velocity": 120}, {"time": 61341, "pitch": 56, "duration": 10, "velocity": 115}, {"time": 61341, "pitch": 60, "duration": 20, "velocity": 110}, {"time": 61341, "pitch": 65, "duration": 20, "velocity": 105}, {"time": 61441, "pitch": 55, "duration": 40, "velocity": 86}, {"time": 61441, "pitch": 59, "duration": 40, "velocity": 92}, {"time": 61451, "pitch": 62, "duration": 30, "velocity": 111}, {"time": 61451, "pitch": 67, "duration": 30, "velocity": 116}, {"time": 61580, "pitch": 62, "duration": 70, "velocity": 98}, {"time": 61580, "pitch": 67, "duration": 70, "velocity": 103}, {"time": 61590, "pitch": 55, "duration": 60, "velocity": 95}, {"time": 61590, "pitch": 59, "duration": 60, "velocity": 89}, {"time": 61680, "pitch": 55, "duration": 120, "velocity": 102}, {"time": 61680, "pitch": 59, "duration": 120, "velocity": 98}, {"time": 61690, "pitch": 62, "duration": 110, "velocity": 91}, {"time": 61690, "pitch": 67, "duration": 110, "velocity": 87}, {"time": 61820, "pitch": 55, "duration": 50, "velocity": 112}, {"time": 61820, "pitch": 59, "duration": 50, "velocity": 108}, {"time": 61820, "pitch": 62, "duration": 60, "velocity": 102}, {"time": 61820, "pitch": 67, "duration": 60, "velocity": 96}, {"time": 61920, "pitch": 48, "duration": 139, "velocity": 100}, {"time": 61920, "pitch": 55, "duration": 139, "velocity": 105}, {"time": 61930, "pitch": 60, "duration": 129, "velocity": 110}, {"time": 61930, "pitch": 64, "duration": 129, "velocity": 116}, {"time": 62059, "pitch": 64, "duration": 60, "velocity": 100}, {"time": 62069, "pitch": 48, "duration": 40, "velocity": 85}, {"time": 62069, "pitch": 55, "duration": 60, "velocity": 90}, {"time": 62149, "pitch": 48, "duration": 70, "velocity": 95}, {"time": 62149, "pitch": 55, "duration": 70, "velocity": 100}, {"time": 62159, "pitch": 60, "duration": 60, "velocity": 105}, {"time": 62159, "pitch": 64, "duration": 60, "velocity": 110}, {"time": 62299, "pitch": 48, "duration": 199, "velocity": 117}, {"time": 62299, "pitch": 55, "duration": 209, "velocity": 117}, {"time": 62299, "pitch": 60, "duration": 209, "velocity": 109}, {"time": 62299, "pitch": 64, "duration": 219, "velocity": 122}, {"time": 62538, "pitch": 55, "duration": 40, "velocity": 85}, {"time": 62538, "pitch": 60, "duration": 40, "velocity": 106}, {"time": 62538, "pitch": 64, "duration": 40, "velocity": 98}, {"time": 62638, "pitch": 48, "duration": 130, "velocity": 112}, {"time": 62638, "pitch": 55, "duration": 130, "velocity": 104}, {"time": 62638, "pitch": 60, "duration": 120, "velocity": 95}, {"time": 62638, "pitch": 64, "duration": 120, "velocity": 91}, {"time": 62778, "pitch": 48, "duration": 10, "velocity": 120}, {"time": 62778, "pitch": 55, "duration": 10, "velocity": 115}, {"time": 62778, "pitch": 60, "duration": 19, "velocity": 110}, {"time": 62778, "pitch": 64, "duration": 19, "velocity": 105}, {"time": 62877, "pitch": 48, "duration": 230, "velocity": 90}, {"time": 62887, "pitch": 55, "duration": 220, "velocity": 95}, {"time": 62897, "pitch": 60, "duration": 210, "velocity": 100}, {"time": 62907, "pitch": 64, "duration": 200, "velocity": 105}, {"time": 63117, "pitch": 48, "duration": 80, "velocity": 97}, {"time": 63117, "pitch": 55, "duration": 80, "velocity": 105}, {"time": 63117, "pitch": 60, "duration": 80, "velocity": 107}, {"time": 63117, "pitch": 64, "duration": 80, "velocity": 112}, {"time": 63356, "pitch": 48, "duration": 41, "velocity": 86}, {"time": 63356, "pitch": 55, "duration": 41, "velocity": 92}, {"time": 63366, "pitch": 60, "duration": 31, "velocity": 111}, {"time": 63366, "pitch": 64, "duration": 31, "velocity": 116}, {"time": 63498, "pitch": 60, "duration": 71, "velocity": 98}, {"time": 63498, "pitch": 64, "duration": 71, "velocity": 103}, {"time": 63508, "pitch": 48, "duration": 61, "velocity": 95}, {"time": 63508, "pitch": 55, "duration": 61, "velocity": 89}, {"time": 63599, "pitch": 48, "duration": 122, "velocity": 102}, {"time": 63599, "pitch": 55, "duration": 122, "velocity": 98}, {"time": 63610, "pitch": 60, "duration": 111, "velocity": 91}, {"time": 63610, "pitch": 64, "duration": 111, "velocity": 87}, {"time": 63741, "pitch": 48, "duration": 51, "velocity": 112}, {"time": 63741, "pitch": 55, "duration": 51, "velocity": 108}, {"time": 63741, "pitch": 60, "duration": 61, "velocity": 102}, {"time": 63741, "pitch": 64, "duration": 61, "velocity": 96}, {"time": 63843, "pitch": 52, "duration": 139, "velocity": 100}, {"time": 63843, "pitch": 57, "duration": 139, "velocity": 105}, {"time": 63853, "pitch": 60, "duration": 129, "velocity": 110}, {"time": 63853, "pitch": 64, "duration": 129, "velocity": 116}, {"time": 63982, "pitch": 64, "duration": 60, "velocity": 100}, {"time": 63992, "pitch": 52, "duration": 40, "velocity": 85}, {"time": 63992, "pitch": 57, "duration": 60, "velocity": 90}, {"time": 64072, "pitch": 52, "duration": 70, "velocity": 95}, {"time": 64072, "pitch": 57, "duration": 70, "velocity": 100}, {"time": 64082, "pitch": 60, "duration": 60, "velocity": 105}, {"time": 64082, "pitch": 64, "duration": 60, "velocity": 110}, {"time": 64222, "pitch": 52, "duration": 199, "velocity": 117}, {"time": 64222, "pitch": 57, "duration": 209, "velocity": 117}, {"time": 64222, "pitch": 60, "duration": 209, "velocity": 109}, {"time": 64222, "pitch": 64, "duration": 219, "velocity": 122}, {"time": 64461, "pitch": 57, "duration": 40, "velocity": 85}, {"time": 64461, "pitch": 60, "duration": 40, "velocity": 106}, {"time": 64461, "pitch": 64, "duration": 40, "velocity": 98}, {"time": 64561, "pitch": 52, "duration": 130, "velocity": 112}, {"time": 64561, "pitch": 57, "duration": 130, "velocity": 104}, {"time": 64561, "pitch": 60, "duration": 120, "velocity": 95}, {"time": 64561, "pitch": 64, "duration": 120, "velocity": 91}, {"time": 64701, "pitch": 52, "duration": 10, "velocity": 120}, {"time": 64701, "pitch": 57, "duration": 10, "velocity": 115}, {"time": 64701, "pitch": 60, "duration": 20, "velocity": 110}, {"time": 64701, "pitch": 64, "duration": 20, "velocity": 105}, {"time": 64801, "pitch": 52, "duration": 229, "velocity": 90}, {"time": 64811, "pitch": 57, "duration": 219, "velocity": 95}, {"time": 64821, "pitch": 60, "duration": 209, "velocity": 100}, {"time": 64830, "pitch": 64, "duration": 200, "velocity": 105}, {"time": 65040, "pitch": 52, "duration": 80, "velocity": 97}, {"time": 65040, "pitch": 57, "duration": 80, "velocity": 105}, {"time": 65040, "pitch": 60, "duration": 80, "velocity": 107}, {"time": 65040, "pitch": 64, "duration": 80, "velocity": 112}, {"time": 65279, "pitch": 52, "duration": 40, "velocity": 86}, {"time": 65279, "pitch": 57, "duration": 40, "velocity": 92}, {"time": 65289, "pitch": 60, "duration": 30, "velocity": 111}, {"time": 65289, "pitch": 64, "duration": 30, "velocity": 116}, {"time": 65419, "pitch": 60, "duration": 70, "velocity": 98}, {"time": 65419, "pitch": 64, "duration": 70, "velocity": 103}, {"time": 65429, "pitch": 52, "duration": 60, "velocity": 95}, {"time": 65429, "pitch": 57, "duration": 60, "velocity": 89}, {"time": 65519, "pitch": 52, "duration": 120, "velocity": 102}, {"time": 65519, "pitch": 57, "duration": 120, "velocity": 98}, {"time": 65529, "pitch": 60, "duration": 110, "velocity": 91}, {"time": 65529, "pitch": 64, "duration": 110, "velocity": 87}, {"time": 65659, "pitch": 52, "duration": 49, "velocity": 112}, {"time": 65659, "pitch": 57, "duration": 49, "velocity": 108}, {"time": 65659, "pitch": 60, "duration": 59, "velocity": 102}, {"time": 65659, "pitch": 64, "duration": 59, "velocity": 96}, {"time": 65758, "pitch": 53, "duration": 140, "velocity": 100}, {"time": 65758, "pitch": 57, "duration": 140, "velocity": 105}, {"time": 65768, "pitch": 60, "duration": 130, "velocity": 110}, {"time": 65768, "pitch": 65, "duration": 130, "velocity": 116}, {"time": 65898, "pitch": 65, "duration": 60, "velocity": 100}, {"time": 65908, "pitch": 53, "duration": 40, "velocity": 85}, {"time": 65908, "pitch": 57, "duration": 60, "velocity": 90}, {"time": 65988, "pitch": 53, "duration": 70, "velocity": 95}, {"time": 65988, "pitch": 57, "duration": 70, "velocity": 100}, {"time": 65998, "pitch": 60, "duration": 60, "velocity": 105}, {"time": 65998, "pitch": 65, "duration": 60, "velocity": 110}, {"time": 66137, "pitch": 53, "duration": 202, "velocity": 117}, {"time": 66137, "pitch": 57, "duration": 212, "velocity": 117}, {"time": 66137, "pitch": 60, "duration": 212, "velocity": 109}, {"time": 66137, "pitch": 65, "duration": 222, "velocity": 122}, {"time": 66379, "pitch": 57, "duration": 41, "velocity": 85}, {"time": 66379, "pitch": 60, "duration": 41, "velocity": 106}, {"time": 66379, "pitch": 65, "duration": 41, "velocity": 98}, {"time": 66481, "pitch": 53, "duration": 131, "velocity": 112}, {"time": 66481, "pitch": 57, "duration": 131, "velocity": 104}, {"time": 66481, "pitch": 60, "duration": 121, "velocity": 95}, {"time": 66481, "pitch": 65, "duration": 121, "velocity": 91}, {"time": 66622, "pitch": 53, "duration": 11, "velocity": 120}, {"time": 66622, "pitch": 57, "duration": 11, "velocity": 115}, {"time": 66622, "pitch": 60, "duration": 21, "velocity": 110}, {"time": 66622, "pitch": 65, "duration": 21, "velocity": 105}, {"time": 66724, "pitch": 53, "duration": 229, "velocity": 90}, {"time": 66734, "pitch": 57, "duration": 219, "velocity": 95}, {"time": 66744, "pitch": 60, "duration": 209, "velocity": 100}, {"time": 66754, "pitch": 65, "duration": 199, "velocity": 105}, {"time": 66963, "pitch": 53, "duration": 80, "velocity": 97}, {"time": 66963, "pitch": 57, "duration": 80, "velocity": 105}, {"time": 66963, "pitch": 60, "duration": 80, "velocity": 107}, {"time": 66963, "pitch": 65, "duration": 80, "velocity": 112}, {"time": 67203, "pitch": 53, "duration": 40, "velocity": 86}, {"time": 67203, "pitch": 57, "duration": 40, "velocity": 92}, {"time": 67213, "pitch": 60, "duration": 30, "velocity": 111}, {"time": 67213, "pitch": 65, "duration": 30, "velocity": 116}, {"time": 67342, "pitch": 60, "duration": 70, "velocity": 98}, {"time": 67342, "pitch": 65, "duration": 70, "velocity": 103}, {"time": 67352, "pitch": 53, "duration": 60, "velocity": 95}, {"time": 67352, "pitch": 57, "duration": 60, "velocity": 89}, {"time": 67442, "pitch": 53, "duration": 120, "velocity": 102}, {"time": 67442, "pitch": 57, "duration": 120, "velocity": 98}, {"time": 67452, "pitch": 60, "duration": 110, "velocity": 91}, {"time": 67452, "pitch": 65, "duration": 110, "velocity": 87}, {"time": 67582, "pitch": 53, "duration": 50, "velocity": 112}, {"time": 67582, "pitch": 57, "duration": 50, "velocity": 108}, {"time": 67582, "pitch": 60, "duration": 60, "velocity": 102}, {"time": 67582, "pitch": 65, "duration": 60, "velocity": 96}, {"time": 67682, "pitch": 50, "duration": 139, "velocity": 100}, {"time": 67682, "pitch": 57, "duration": 139, "velocity": 105}, {"time": 67692, "pitch": 60, "duration": 129, "velocity": 110}, {"time": 67692, "pitch": 65, "duration": 129, "velocity": 116}, {"time": 67821, "pitch": 65, "duration": 60, "velocity": 100}, {"time": 67831, "pitch": 50, "duration": 40, "velocity": 85}, {"time": 67831, "pitch": 57, "duration": 60, "velocity": 90}, {"time": 67911, "pitch": 50, "duration": 70, "velocity": 95}, {"time": 67911, "pitch": 57, "duration": 70, "velocity": 100}, {"time": 67921, "pitch": 60, "duration": 60, "velocity": 105}, {"time": 67921, "pitch": 65, "duration": 60, "velocity": 110}, {"time": 68061, "pitch": 50, "duration": 199, "velocity": 117}, {"time": 68061, "pitch": 57, "duration": 209, "velocity": 117}, {"time": 68061, "pitch": 60, "duration": 209, "velocity": 109}, {"time": 68061, "pitch": 65, "duration": 219, "velocity": 122}, {"time": 68300, "pitch": 57, "duration": 40, "velocity": 85}, {"time": 68300, "pitch": 60, "duration": 40, "velocity": 106}, {"time": 68300, "pitch": 65, "duration": 40, "velocity": 98}, {"time": 68400, "pitch": 50, "duration": 130, "velocity": 112}, {"time": 68400, "pitch": 57, "duration": 130, "velocity": 104}, {"time": 68400, "pitch": 60, "duration": 120, "velocity": 95}, {"time": 68400, "pitch": 65, "duration": 120, "velocity": 91}, {"time": 68540, "pitch": 50, "duration": 10, "velocity": 120}, {"time": 68540, "pitch": 57, "duration": 10, "velocity": 115}, {"time": 68540, "pitch": 60, "duration": 20, "velocity": 110}, {"time": 68540, "pitch": 65, "duration": 20, "velocity": 105}, {"time": 68639, "pitch": 50, "duration": 230, "velocity": 90}, {"time": 68649, "pitch": 55, "duration": 220, "velocity": 95}, {"time": 68659, "pitch": 59, "duration": 210, "velocity": 100}, {"time": 68669, "pitch": 62, "duration": 200, "velocity": 105}, {"time": 68879, "pitch": 50, "duration": 80, "velocity": 97}, {"time": 68879, "pitch": 55, "duration": 80, "velocity": 105}, {"time": 68879, "pitch": 59, "duration": 80, "velocity": 107}, {"time": 68879, "pitch": 62, "duration": 80, "velocity": 112}, {"time": 69118, "pitch": 50, "duration": 40, "velocity": 86}, {"time": 69118, "pitch": 55, "duration": 40, "velocity": 92}, {"time": 69128, "pitch": 59, "duration": 30, "velocity": 111}, {"time": 69128, "pitch": 62, "duration": 30, "velocity": 116}, {"time": 69258, "pitch": 59, "duration": 70, "velocity": 98}, {"time": 69258, "pitch": 62, "duration": 70, "velocity": 103}, {"time": 69268, "pitch": 50, "duration": 60, "velocity": 95}, {"time": 69268, "pitch": 55, "duration": 60, "velocity": 89}, {"time": 69358, "pitch": 50, "duration": 119, "velocity": 102}, {"time": 69358, "pitch": 55, "duration": 119, "velocity": 98}, {"time": 69368, "pitch": 59, "duration": 109, "velocity": 91}, {"time": 69368, "pitch": 62, "duration": 109, "velocity": 87}, {"time": 69497, "pitch": 50, "duration": 50, "velocity": 112}, {"time": 69497, "pitch": 55, "duration": 50, "velocity": 108}, {"time": 69497, "pitch": 59, "duration": 60, "velocity": 102}, {"time": 69497, "pitch": 62, "duration": 60, "velocity": 96}, {"time": 69597, "pitch": 48, "duration": 142, "velocity": 100}, {"time": 69597, "pitch": 55, "duration": 142, "velocity": 105}, {"time": 69607, "pitch": 60, "duration": 132, "velocity": 110}, {"time": 69607, "pitch": 64, "duration": 132, "velocity": 116}, {"time": 69739, "pitch": 64, "duration": 61, "velocity": 100}, {"time": 69749, "pitch": 48, "duration": 41, "velocity": 85}, {"time": 69749, "pitch": 55, "duration": 61, "velocity": 90}, {"time": 69830, "pitch": 48, "duration": 71, "velocity": 95}, {"time": 69830, "pitch": 55, "duration": 71, "velocity": 100}, {"time": 69840, "pitch": 60, "duration": 61, "velocity": 105}, {"time": 69840, "pitch": 64, "duration": 61, "velocity": 110}, {"time": 69982, "pitch": 48, "duration": 202, "velocity": 117}, {"time": 69982, "pitch": 55, "duration": 211, "velocity": 117}, {"time": 69982, "pitch": 60, "duration": 211, "velocity": 109}, {"time": 69982, "pitch": 64, "duration": 221, "velocity": 122}, {"time": 70223, "pitch": 55, "duration": 40, "velocity": 85}, {"time": 70223, "pitch": 60, "duration": 40, "velocity": 106}, {"time": 70223, "pitch": 64, "duration": 40, "velocity": 98}, {"time": 70323, "pitch": 48, "duration": 130, "velocity": 112}, {"time": 70323, "pitch": 55, "duration": 130, "velocity": 104}, {"time": 70323, "pitch": 60, "duration": 120, "velocity": 95}, {"time": 70323, "pitch": 64, "duration": 120, "velocity": 91}, {"time": 70463, "pitch": 48, "duration": 10, "velocity": 120}, {"time": 70463, "pitch": 55, "duration": 10, "velocity": 115}, {"time": 70463, "pitch": 60, "duration": 20, "velocity": 110}, {"time": 70463, "pitch": 64, "duration": 20, "velocity": 105}, {"time": 70563, "pitch": 48, "duration": 229, "velocity": 90}, {"time": 70573, "pitch": 55, "duration": 219, "velocity": 95}, {"time": 70583, "pitch": 60, "duration": 209, "velocity": 100}, {"time": 70593, "pitch": 64, "duration": 199, "velocity": 105}, {"time": 70802, "pitch": 48, "duration": 80, "velocity": 97}, {"time": 70802, "pitch": 55, "duration": 80, "velocity": 105}, {"time": 70802, "pitch": 60, "duration": 80, "velocity": 107}, {"time": 70802, "pitch": 64, "duration": 80, "velocity": 112}, {"time": 71042, "pitch": 48, "duration": 39, "velocity": 86}, {"time": 71042, "pitch": 55, "duration": 39, "velocity": 92}, {"time": 71051, "pitch": 60, "duration": 30, "velocity": 111}, {"time": 71051, "pitch": 64, "duration": 30, "velocity": 116}, {"time": 71181, "pitch": 60, "duration": 70, "velocity": 98}, {"time": 71181, "pitch": 64, "duration": 70, "velocity": 103}, {"time": 71191, "pitch": 48, "duration": 60, "velocity": 95}, {"time": 71191, "pitch": 55, "duration": 60, "velocity": 89}, {"time": 71281, "pitch": 48, "duration": 120, "velocity": 102}, {"time": 71281, "pitch": 55, "duration": 120, "velocity": 98}, {"time": 71291, "pitch": 60, "duration": 110, "velocity": 91}, {"time": 71291, "pitch": 64, "duration": 110, "velocity": 87}, {"time": 71421, "pitch": 48, "duration": 50, "velocity": 112}, {"time": 71421, "pitch": 55, "duration": 50, "velocity": 108}, {"time": 71421, "pitch": 60, "duration": 59, "velocity": 102}, {"time": 71421, "pitch": 64, "duration": 59, "velocity": 96}, {"time": 71520, "pitch": 52, "duration": 140, "velocity": 100}, {"time": 71520, "pitch": 57, "duration": 140, "velocity": 105}, {"time": 71530, "pitch": 60, "duration": 130, "velocity": 110}, {"time": 71530, "pitch": 64, "duration": 130, "velocity": 116}, {"time": 71660, "pitch": 64, "duration": 60, "velocity": 100}, {"time": 71670, "pitch": 52, "duration": 40, "velocity": 85}, {"time": 71670, "pitch": 57, "duration": 60, "velocity": 90}, {"time": 71750, "pitch": 52, "duration": 70, "velocity": 95}, {"time": 71750, "pitch": 57, "duration": 70, "velocity": 100}, {"time": 71760, "pitch": 60, "duration": 60, "velocity": 105}, {"time": 71760, "pitch": 64, "duration": 60, "velocity": 110}, {"time": 71900, "pitch": 52, "duration": 199, "velocity": 117}, {"time": 71900, "pitch": 57, "duration": 209, "velocity": 117}, {"time": 71900, "pitch": 60, "duration": 209, "velocity": 109}, {"time": 71900, "pitch": 64, "duration": 219, "velocity": 122}, {"time": 72139, "pitch": 57, "duration": 40, "velocity": 85}, {"time": 72139, "pitch": 60, "duration": 40, "velocity": 106}, {"time": 72139, "pitch": 64, "duration": 40, "velocity": 98}, {"time": 72239, "pitch": 52, "duration": 129, "velocity": 112}, {"time": 72239, "pitch": 57, "duration": 129, "velocity": 104}, {"time": 72239, "pitch": 60, "duration": 119, "velocity": 95}, {"time": 72239, "pitch": 64, "duration": 119, "velocity": 91}, {"time": 72378, "pitch": 52, "duration": 10, "velocity": 120}, {"time": 72378, "pitch": 57, "duration": 10, "velocity": 115}, {"time": 72378, "pitch": 60, "duration": 20, "velocity": 110}, {"time": 72378, "pitch": 64, "duration": 20, "velocity": 105}, {"time": 72478, "pitch": 52, "duration": 230, "velocity": 90}, {"time": 72488, "pitch": 57, "duration": 220, "velocity": 95}, {"time": 72498, "pitch": 60, "duration": 210, "velocity": 100}, {"time": 72508, "pitch": 64, "duration": 200, "velocity": 105}, {"time": 72718, "pitch": 52, "duration": 79, "velocity": 97}, {"time": 72718, "pitch": 57, "duration": 79, "velocity": 105}, {"time": 72718, "pitch": 60, "duration": 79, "velocity": 107}, {"time": 72718, "pitch": 64, "duration": 79, "velocity": 112}, {"time": 72957, "pitch": 52, "duration": 41, "velocity": 86}, {"time": 72957, "pitch": 57, "duration": 41, "velocity": 92}, {"time": 72967, "pitch": 60, "duration": 31, "velocity": 111}, {"time": 72967, "pitch": 64, "duration": 31, "velocity": 116}, {"time": 73099, "pitch": 60, "duration": 71, "velocity": 98}, {"time": 73099, "pitch": 64, "duration": 71, "velocity": 103}, {"time": 73109, "pitch": 52, "duration": 61, "velocity": 95}, {"time": 73109, "pitch": 57, "duration": 61, "velocity": 89}, {"time": 73200, "pitch": 52, "duration": 122, "velocity": 102}, {"time": 73200, "pitch": 57, "duration": 122, "velocity": 98}, {"time": 73211, "pitch": 60, "duration": 111, "velocity": 91}, {"time": 73211, "pitch": 64, "duration": 111, "velocity": 87}, {"time": 73342, "pitch": 52, "duration": 51, "velocity": 112}, {"time": 73342, "pitch": 57, "duration": 51, "velocity": 108}, {"time": 73342, "pitch": 60, "duration": 61, "velocity": 102}, {"time": 73342, "pitch": 64, "duration": 61, "velocity": 96}, {"time": 73444, "pitch": 53, "duration": 139, "velocity": 100}, {"time": 73444, "pitch": 57, "duration": 139, "velocity": 105}, {"time": 73454, "pitch": 60, "duration": 129, "velocity": 110}, {"time": 73454, "pitch": 65, "duration": 129, "velocity": 116}, {"time": 73583, "pitch": 65, "duration": 60, "velocity": 100}, {"time": 73593, "pitch": 53, "duration": 40, "velocity": 85}, {"time": 73593, "pitch": 57, "duration": 60, "velocity": 90}, {"time": 73673, "pitch": 53, "duration": 70, "velocity": 95}, {"time": 73673, "pitch": 57, "duration": 70, "velocity": 100}, {"time": 73683, "pitch": 60, "duration": 60, "velocity": 105}, {"time": 73683, "pitch": 65, "duration": 60, "velocity": 110}, {"time": 73823, "pitch": 53, "duration": 199, "velocity": 117}, {"time": 73823, "pitch": 57, "duration": 209, "velocity": 117}, {"time": 73823, "pitch": 60, "duration": 209, "velocity": 109}, {"time": 73823, "pitch": 65, "duration": 219, "velocity": 122}, {"time": 74062, "pitch": 57, "duration": 40, "velocity": 85}, {"time": 74062, "pitch": 60, "duration": 40, "velocity": 106}, {"time": 74062, "pitch": 65, "duration": 40, "velocity": 98}, {"time": 74162, "pitch": 53, "duration": 130, "velocity": 112}, {"time": 74162, "pitch": 57, "duration": 130, "velocity": 104}, {"time": 74162, "pitch": 60, "duration": 120, "velocity": 95}, {"time": 74162, "pitch": 65, "duration": 120, "velocity": 91}, {"time": 74302, "pitch": 53, "duration": 10, "velocity": 120}, {"time": 74302, "pitch": 57, "duration": 10, "velocity": 115}, {"time": 74302, "pitch": 60, "duration": 20, "velocity": 110}, {"time": 74302, "pitch": 65, "duration": 20, "velocity": 105}, {"time": 74401, "pitch": 53, "duration": 230, "velocity": 90}, {"time": 74411, "pitch": 57, "duration": 220, "velocity": 95}, {"time": 74421, "pitch": 60, "duration": 210, "velocity": 100}, {"time": 74431, "pitch": 65, "duration": 200, "velocity": 105}, {"time": 74641, "pitch": 53, "duration": 80, "velocity": 97}, {"time": 74641, "pitch": 57, "duration": 80, "velocity": 105}, {"time": 74641, "pitch": 60, "duration": 80, "velocity": 107}, {"time": 74641, "pitch": 65, "duration": 80, "velocity": 112}, {"time": 74880, "pitch": 53, "duration": 40, "velocity": 86}, {"time": 74880, "pitch": 57, "duration": 40, "velocity": 92}, {"time": 74890, "pitch": 60, "duration": 30, "velocity": 111}, {"time": 74890, "pitch": 65, "duration": 30, "velocity": 116}, {"time": 75020, "pitch": 60, "duration": 70, "velocity": 98}, {"time": 75020, "pitch": 65, "duration": 70, "velocity": 103}, {"time": 75030, "pitch": 53, "duration": 60, "velocity": 95}, {"time": 75030, "pitch": 57, "duration": 60, "velocity": 89}, {"time": 75120, "pitch": 53, "duration": 119, "velocity": 102}, {"time": 75120, "pitch": 57, "duration": 119, "velocity": 98}, {"time": 75130, "pitch": 60, "duration": 109, "velocity": 91}, {"time": 75130, "pitch": 65, "duration": 109, "velocity": 87}, {"time": 75259, "pitch": 53, "duration": 50, "velocity": 112}, {"time": 75259, "pitch": 57, "duration": 50, "velocity": 108}, {"time": 75259, "pitch": 60, "duration": 60, "velocity": 102}, {"time": 75259, "pitch": 65, "duration": 60, "velocity": 96}, {"time": 75359, "pitch": 50, "duration": 140, "velocity": 100}, {"time": 75359, "pitch": 57, "duration": 140, "velocity": 105}, {"time": 75369, "pitch": 60, "duration": 130, "velocity": 110}, {"time": 75369, "pitch": 65, "duration": 130, "velocity": 116}, {"time": 75499, "pitch": 65, "duration": 60, "velocity": 100}, {"time": 75509, "pitch": 50, "duration": 40, "velocity": 85}, {"time": 75509, "pitch": 57, "duration": 60, "velocity": 90}, {"time": 75589, "pitch": 50, "duration": 69, "velocity": 95}, {"time": 75589, "pitch": 57, "duration": 69, "velocity": 100}, {"time": 75599, "pitch": 60, "duration": 59, "velocity": 105}, {"time": 75599, "pitch": 65, "duration": 59, "velocity": 110}, {"time": 75738, "pitch": 50, "duration": 200, "velocity": 117}, {"time": 75738, "pitch": 57, "duration": 210, "velocity": 117}, {"time": 75738, "pitch": 60, "duration": 210, "velocity": 109}, {"time": 75738, "pitch": 65, "duration": 220, "velocity": 122}, {"time": 75978, "pitch": 57, "duration": 40, "velocity": 85}, {"time": 75978, "pitch": 60, "duration": 40, "velocity": 106}, {"time": 75978, "pitch": 65, "duration": 40, "velocity": 98}, {"time": 76078, "pitch": 50, "duration": 129, "velocity": 112}, {"time": 76078, "pitch": 57, "duration": 129, "velocity": 104}, {"time": 76078, "pitch": 60, "duration": 119, "velocity": 95}, {"time": 76078, "pitch": 65, "duration": 119, "velocity": 91}, {"time": 76217, "pitch": 50, "duration": 10, "velocity": 120}, {"time": 76217, "pitch": 57, "duration": 10, "velocity": 115}, {"time": 76217, "pitch": 60, "duration": 20, "velocity": 110}, {"time": 76217, "pitch": 65, "duration": 20, "velocity": 105}, {"time": 76317, "pitch": 50, "duration": 233, "velocity": 90}, {"time": 76327, "pitch": 55, "duration": 223, "velocity": 95}, {"time": 76337, "pitch": 59, "duration": 213, "velocity": 100}, {"time": 76347, "pitch": 62, "duration": 203, "velocity": 105}, {"time": 76560, "pitch": 50, "duration": 81, "velocity": 97}, {"time": 76560, "pitch": 55, "duration": 81, "velocity": 105}, {"time": 76560, "pitch": 59, "duration": 81, "velocity": 107}, {"time": 76560, "pitch": 62, "duration": 81, "velocity": 112}, {"time": 76804, "pitch": 50, "duration": 39, "velocity": 86}, {"time": 76804, "pitch": 55, "duration": 39, "velocity": 92}, {"time": 76814, "pitch": 59, "duration": 29, "velocity": 111}, {"time": 76814, "pitch": 62, "duration": 29, "velocity": 116}, {"time": 76943, "pitch": 59, "duration": 70, "velocity": 98}, {"time": 76943, "pitch": 62, "duration": 70, "velocity": 103}, {"time": 76953, "pitch": 50, "duration": 60, "velocity": 95}, {"time": 76953, "pitch": 55, "duration": 60, "velocity": 89}, {"time": 77043, "pitch": 50, "duration": 120, "velocity": 102}, {"time": 77043, "pitch": 55, "duration": 120, "velocity": 98}, {"time": 77053, "pitch": 59, "duration": 110, "velocity": 91}, {"time": 77053, "pitch": 62, "duration": 110, "velocity": 87}, {"time": 77183, "pitch": 50, "duration": 50, "velocity": 112}, {"time": 77183, "pitch": 55, "duration": 50, "velocity": 108}, {"time": 77183, "pitch": 59, "duration": 60, "velocity": 102}, {"time": 77183, "pitch": 62, "duration": 60, "velocity": 96}, {"time": 77282, "pitch": 48, "duration": 140, "velocity": 100}, {"time": 77282, "pitch": 55, "duration": 140, "velocity": 105}, {"time": 77292, "pitch": 60, "duration": 130, "velocity": 110}, {"time": 77292, "pitch": 64, "duration": 130, "velocity": 116}, {"time": 77422, "pitch": 64, "duration": 60, "velocity": 100}, {"time": 77432, "pitch": 48, "duration": 40, "velocity": 85}, {"time": 77432, "pitch": 55, "duration": 60, "velocity": 90}, {"time": 77512, "pitch": 48, "duration": 70, "velocity": 95}, {"time": 77512, "pitch": 55, "duration": 70, "velocity": 100}, {"time": 77522, "pitch": 60, "duration": 60, "velocity": 105}, {"time": 77522, "pitch": 64, "duration": 60, "velocity": 110}, {"time": 77662, "pitch": 48, "duration": 199, "velocity": 117}, {"time": 77662, "pitch": 55, "duration": 209, "velocity": 117}, {"time": 77662, "pitch": 60, "duration": 209, "velocity": 109}, {"time": 77662, "pitch": 64, "duration": 219, "velocity": 122}, {"time": 77901, "pitch": 55, "duration": 40, "velocity": 85}, {"time": 77901, "pitch": 60, "duration": 40, "velocity": 106}, {"time": 77901, "pitch": 64, "duration": 40, "velocity": 98}, {"time": 78001, "pitch": 48, "duration": 129, "velocity": 112}, {"time": 78001, "pitch": 55, "duration": 129, "velocity": 104}, {"time": 78001, "pitch": 60, "duration": 120, "velocity": 95}, {"time": 78001, "pitch": 64, "duration": 120, "velocity": 91}, {"time": 78140, "pitch": 48, "duration": 10, "velocity": 120}, {"time": 78140, "pitch": 55, "duration": 10, "velocity": 115}, {"time": 78140, "pitch": 60, "duration": 20, "velocity": 110}, {"time": 78140, "pitch": 64, "duration": 20, "velocity": 105}, {"time": 78240, "pitch": 48, "duration": 230, "velocity": 90}, {"time": 78250, "pitch": 55, "duration": 220, "velocity": 95}, {"time": 78260, "pitch": 60, "duration": 210, "velocity": 100}, {"time": 78270, "pitch": 64, "duration": 200, "velocity": 105}, {"time": 78480, "pitch": 48, "duration": 79, "velocity": 97}, {"time": 78480, "pitch": 55, "duration": 79, "velocity": 105}, {"time": 78480, "pitch": 60, "duration": 79, "velocity": 107}, {"time": 78480, "pitch": 64, "duration": 79, "velocity": 112}, {"time": 78719, "pitch": 48, "duration": 40, "velocity": 86}, {"time": 78719, "pitch": 55, "duration": 40, "velocity": 92}, {"time": 78729, "pitch": 60, "duration": 30, "velocity": 111}, {"time": 78729, "pitch": 64, "duration": 30, "velocity": 116}, {"time": 78859, "pitch": 60, "duration": 70, "velocity": 98}, {"time": 78859, "pitch": 64, "duration": 70, "velocity": 103}, {"time": 78869, "pitch": 48, "duration": 60, "velocity": 95}, {"time": 78869, "pitch": 55, "duration": 60, "velocity": 89}, {"time": 78959, "pitch": 48, "duration": 119, "velocity": 102}, {"time": 78959, "pitch": 55, "duration": 119, "velocity": 98}, {"time": 78969, "pitch": 60, "duration": 109, "velocity": 91}, {"time": 78969, "pitch": 64, "duration": 109, "velocity": 87}, {"time": 79098, "pitch": 48, "duration": 50, "velocity": 112}, {"time": 79098, "pitch": 55, "duration": 50, "velocity": 108}, {"time": 79098, "pitch": 60, "duration": 60, "velocity": 102}, {"time": 79098, "pitch": 64, "duration": 60, "velocity": 96}, {"time": 79198, "pitch": 52, "duration": 140, "velocity": 100}, {"time": 79198, "pitch": 57, "duration": 140, "velocity": 105}, {"time": 79208, "pitch": 60, "duration": 130, "velocity": 110}, {"time": 79208, "pitch": 64, "duration": 130, "velocity": 116}, {"time": 79338, "pitch": 64, "duration": 60, "velocity": 100}, {"time": 79348, "pitch": 52, "duration": 40, "velocity": 85}, {"time": 79348, "pitch": 57, "duration": 60, "velocity": 90}, {"time": 79427, "pitch": 52, "duration": 70, "velocity": 95}, {"time": 79427, "pitch": 57, "duration": 70, "velocity": 100}, {"time": 79437, "pitch": 60, "duration": 60, "velocity": 105}, {"time": 79437, "pitch": 64, "duration": 60, "velocity": 110}, {"time": 79577, "pitch": 52, "duration": 201, "velocity": 117}, {"time": 79577, "pitch": 57, "duration": 211, "velocity": 117}, {"time": 79577, "pitch": 60, "duration": 211, "velocity": 109}, {"time": 79577, "pitch": 64, "duration": 222, "velocity": 122}, {"time": 79819, "pitch": 57, "duration": 40, "velocity": 85}, {"time": 79819, "pitch": 60, "duration": 40, "velocity": 106}, {"time": 79819, "pitch": 64, "duration": 40, "velocity": 98}, {"time": 79920, "pitch": 52, "duration": 132, "velocity": 112}, {"time": 79920, "pitch": 57, "duration": 132, "velocity": 104}, {"time": 79920, "pitch": 60, "duration": 122, "velocity": 95}, {"time": 79920, "pitch": 64, "duration": 122, "velocity": 91}, {"time": 80062, "pitch": 52, "duration": 10, "velocity": 120}, {"time": 80062, "pitch": 57, "duration": 10, "velocity": 115}, {"time": 80062, "pitch": 60, "duration": 20, "velocity": 110}, {"time": 80062, "pitch": 64, "duration": 20, "velocity": 105}, {"time": 80163, "pitch": 52, "duration": 230, "velocity": 90}, {"time": 80173, "pitch": 57, "duration": 220, "velocity": 95}, {"time": 80183, "pitch": 60, "duration": 210, "velocity": 100}, {"time": 80193, "pitch": 64, "duration": 200, "velocity": 105}, {"time": 80403, "pitch": 52, "duration": 80, "velocity": 97}, {"time": 80403, "pitch": 57, "duration": 80, "velocity": 105}, {"time": 80403, "pitch": 60, "duration": 80, "velocity": 107}, {"time": 80403, "pitch": 64, "duration": 80, "velocity": 112}, {"time": 80642, "pitch": 52, "duration": 40, "velocity": 86}, {"time": 80642, "pitch": 57, "duration": 40, "velocity": 92}, {"time": 80652, "pitch": 60, "duration": 30, "velocity": 111}, {"time": 80652, "pitch": 64, "duration": 30, "velocity": 116}, {"time": 80782, "pitch": 60, "duration": 70, "velocity": 98}, {"time": 80782, "pitch": 64, "duration": 70, "velocity": 103}, {"time": 80792, "pitch": 52, "duration": 60, "velocity": 95}, {"time": 80792, "pitch": 57, "duration": 60, "velocity": 89}, {"time": 80882, "pitch": 52, "duration": 120, "velocity": 102}, {"time": 80882, "pitch": 57, "duration": 120, "velocity": 98}, {"time": 80892, "pitch": 60, "duration": 110, "velocity": 91}, {"time": 80892, "pitch": 64, "duration": 110, "velocity": 87}, {"time": 81021, "pitch": 52, "duration": 50, "velocity": 112}, {"time": 81021, "pitch": 57, "duration": 50, "velocity": 108}, {"time": 81021, "pitch": 60, "duration": 60, "velocity": 102}, {"time": 81021, "pitch": 64, "duration": 60, "velocity": 96}, {"time": 81121, "pitch": 50, "duration": 140, "velocity": 100}, {"time": 81121, "pitch": 57, "duration": 140, "velocity": 105}, {"time": 81131, "pitch": 60, "duration": 130, "velocity": 110}, {"time": 81131, "pitch": 65, "duration": 130, "velocity": 116}, {"time": 81261, "pitch": 65, "duration": 60, "velocity": 100}, {"time": 81271, "pitch": 50, "duration": 40, "velocity": 85}, {"time": 81271, "pitch": 57, "duration": 60, "velocity": 90}, {"time": 81351, "pitch": 50, "duration": 70, "velocity": 95}, {"time": 81351, "pitch": 57, "duration": 70, "velocity": 100}, {"time": 81361, "pitch": 60, "duration": 60, "velocity": 105}, {"time": 81361, "pitch": 65, "duration": 60, "velocity": 110}, {"time": 81500, "pitch": 50, "duration": 200, "velocity": 117}, {"time": 81500, "pitch": 57, "duration": 210, "velocity": 117}, {"time": 81500, "pitch": 60, "duration": 210, "velocity": 109}, {"time": 81500, "pitch": 65, "duration": 220, "velocity": 122}, {"time": 81740, "pitch": 57, "duration": 40, "velocity": 85}, {"time": 81740, "pitch": 60, "duration": 40, "velocity": 106}, {"time": 81740, "pitch": 65, "duration": 40, "velocity": 98}, {"time": 81840, "pitch": 50, "duration": 129, "velocity": 112}, {"time": 81840, "pitch": 57, "duration": 129, "velocity": 104}, {"time": 81840, "pitch": 60, "duration": 119, "velocity": 95}, {"time": 81840, "pitch": 65, "duration": 119, "velocity": 91}, {"time": 81979, "pitch": 50, "duration": 10, "velocity": 120}, {"time": 81979, "pitch": 57, "duration": 10, "velocity": 115}, {"time": 81979, "pitch": 60, "duration": 20, "velocity": 110}, {"time": 81979, "pitch": 65, "duration": 20, "velocity": 105}, {"time": 82079, "pitch": 50, "duration": 229, "velocity": 90}, {"time": 82089, "pitch": 55, "duration": 219, "velocity": 95}, {"time": 82099, "pitch": 59, "duration": 209, "velocity": 100}, {"time": 82109, "pitch": 62, "duration": 199, "velocity": 105}, {"time": 82318, "pitch": 50, "duration": 80, "velocity": 97}, {"time": 82318, "pitch": 55, "duration": 80, "velocity": 105}, {"time": 82318, "pitch": 59, "duration": 80, "velocity": 107}, {"time": 82318, "pitch": 62, "duration": 80, "velocity": 112}, {"time": 82558, "pitch": 50, "duration": 40, "velocity": 86}, {"time": 82558, "pitch": 55, "duration": 40, "velocity": 92}, {"time": 82568, "pitch": 59, "duration": 30, "velocity": 111}, {"time": 82568, "pitch": 62, "duration": 30, "velocity": 116}, {"time": 82698, "pitch": 59, "duration": 69, "velocity": 98}, {"time": 82698, "pitch": 62, "duration": 69, "velocity": 103}, {"time": 82708, "pitch": 50, "duration": 59, "velocity": 95}, {"time": 82708, "pitch": 55, "duration": 59, "velocity": 89}, {"time": 82797, "pitch": 50, "duration": 120, "velocity": 102}, {"time": 82797, "pitch": 55, "duration": 120, "velocity": 98}, {"time": 82807, "pitch": 59, "duration": 110, "velocity": 91}, {"time": 82807, "pitch": 62, "duration": 110, "velocity": 87}, {"time": 82937, "pitch": 50, "duration": 50, "velocity": 112}, {"time": 82937, "pitch": 55, "duration": 50, "velocity": 108}, {"time": 82937, "pitch": 59, "duration": 60, "velocity": 102}, {"time": 82937, "pitch": 62, "duration": 60, "velocity": 96}, {"time": 83037, "pitch": 48, "duration": 142, "velocity": 100}, {"time": 83037, "pitch": 55, "duration": 142, "velocity": 105}, {"time": 83047, "pitch": 60, "duration": 132, "velocity": 110}, {"time": 83047, "pitch": 64, "duration": 132, "velocity": 116}, {"time": 83179, "pitch": 64, "duration": 61, "velocity": 100}, {"time": 83189, "pitch": 48, "duration": 40, "velocity": 85}, {"time": 83189, "pitch": 55, "duration": 61, "velocity": 90}, {"time": 83270, "pitch": 48, "duration": 71, "velocity": 95}, {"time": 83270, "pitch": 55, "duration": 71, "velocity": 100}, {"time": 83280, "pitch": 60, "duration": 61, "velocity": 105}, {"time": 83280, "pitch": 64, "duration": 61, "velocity": 110}, {"time": 83422, "pitch": 48, "duration": 201, "velocity": 117}, {"time": 83422, "pitch": 55, "duration": 211, "velocity": 117}, {"time": 83422, "pitch": 60, "duration": 211, "velocity": 109}, {"time": 83422, "pitch": 64, "duration": 221, "velocity": 122}, {"time": 83663, "pitch": 55, "duration": 40, "velocity": 85}, {"time": 83663, "pitch": 60, "duration": 40, "velocity": 106}, {"time": 83663, "pitch": 64, "duration": 40, "velocity": 98}, {"time": 83763, "pitch": 48, "duration": 130, "velocity": 112}, {"time": 83763, "pitch": 55, "duration": 130, "velocity": 104}, {"time": 83763, "pitch": 60, "duration": 120, "velocity": 95}, {"time": 83763, "pitch": 64, "duration": 120, "velocity": 91}, {"time": 83903, "pitch": 48, "duration": 10, "velocity": 120}, {"time": 83903, "pitch": 55, "duration": 10, "velocity": 115}, {"time": 83903, "pitch": 60, "duration": 19, "velocity": 110}, {"time": 83903, "pitch": 64, "duration": 19, "velocity": 105}, {"time": 84002, "pitch": 48, "duration": 230, "velocity": 90}, {"time": 84012, "pitch": 55, "duration": 220, "velocity": 95}, {"time": 84022, "pitch": 60, "duration": 210, "velocity": 100}, {"time": 84032, "pitch": 64, "duration": 200, "velocity": 105}, {"time": 84242, "pitch": 48, "duration": 80, "velocity": 97}, {"time": 84242, "pitch": 55, "duration": 80, "velocity": 105}, {"time": 84242, "pitch": 60, "duration": 80, "velocity": 107}, {"time": 84242, "pitch": 64, "duration": 80, "velocity": 112}, {"time": 84481, "pitch": 48, "duration": 40, "velocity": 86}, {"time": 84481, "pitch": 55, "duration": 40, "velocity": 92}, {"time": 84491, "pitch": 60, "duration": 30, "velocity": 111}, {"time": 84491, "pitch": 64, "duration": 30, "velocity": 116}, {"time": 84621, "pitch": 60, "duration": 70, "velocity": 98}, {"time": 84621, "pitch": 64, "duration": 70, "velocity": 103}, {"time": 84631, "pitch": 48, "duration": 60, "velocity": 95}, {"time": 84631, "pitch": 55, "duration": 60, "velocity": 89}, {"time": 84721, "pitch": 48, "duration": 119, "velocity": 102}, {"time": 84721, "pitch": 55, "duration": 119, "velocity": 98}, {"time": 84731, "pitch": 60, "duration": 109, "velocity": 91}, {"time": 84731, "pitch": 64, "duration": 109, "velocity": 87}, {"time": 84860, "pitch": 48, "duration": 50, "velocity": 112}, {"time": 84860, "pitch": 55, "duration": 50, "velocity": 108}, {"time": 84860, "pitch": 60, "duration": 60, "velocity": 102}, {"time": 84860, "pitch": 64, "duration": 60, "velocity": 96}, {"time": 84960, "pitch": 59, "duration": 100, "velocity": 112}, {"time": 84960, "pitch": 62, "duration": 100, "velocity": 127}, {"time": 84960, "pitch": 67, "duration": 110, "velocity": 110}, {"time": 85101, "pitch": 62, "duration": 50, "velocity": 94}, {"time": 85101, "pitch": 67, "duration": 60, "velocity": 89}, {"time": 85200, "pitch": 59, "duration": 99, "velocity": 86}, {"time": 85200, "pitch": 62, "duration": 99, "velocity": 86}, {"time": 85200, "pitch": 67, "duration": 119, "velocity": 90}, {"time": 85340, "pitch": 59, "duration": 120, "velocity": 108}, {"time": 85340, "pitch": 62, "duration": 100, "velocity": 114}, {"time": 85340, "pitch": 67, "duration": 120, "velocity": 102}, {"time": 85918, "pitch": 52, "duration": 40, "velocity": 86}, {"time": 85918, "pitch": 55, "duration": 40, "velocity": 92}, {"time": 85928, "pitch": 59, "duration": 30, "velocity": 111}, {"time": 85928, "pitch": 64, "duration": 30, "velocity": 116}, {"time": 86057, "pitch": 59, "duration": 70, "velocity": 98}, {"time": 86057, "pitch": 64, "duration": 70, "velocity": 103}, {"time": 86067, "pitch": 52, "duration": 60, "velocity": 95}, {"time": 86067, "pitch": 55, "duration": 60, "velocity": 89}, {"time": 86157, "pitch": 52, "duration": 120, "velocity": 102}, {"time": 86157, "pitch": 55, "duration": 120, "velocity": 98}, {"time": 86167, "pitch": 59, "duration": 110, "velocity": 91}, {"time": 86167, "pitch": 64, "duration": 110, "velocity": 87}, {"time": 86297, "pitch": 52, "duration": 50, "velocity": 112}, {"time": 86297, "pitch": 55, "duration": 50, "velocity": 108}, {"time": 86297, "pitch": 59, "duration": 60, "velocity": 102}, {"time": 86297, "pitch": 64, "duration": 60, "velocity": 96}, {"time": 86397, "pitch": 52, "duration": 40, "velocity": 86}, {"time": 86397, "pitch": 55, "duration": 40, "velocity": 92}, {"time": 86407, "pitch": 59, "duration": 30, "velocity": 111}, {"time": 86407, "pitch": 64, "duration": 30, "velocity": 116}, {"time": 86640, "pitch": 57, "duration": 393, "velocity": 112}, {"time": 86640, "pitch": 60, "duration": 373, "velocity": 117}, {"time": 86640, "pitch": 64, "duration": 383, "velocity": 110}, {"time": 87123, "pitch": 57, "duration": 189, "velocity": 85}, {"time": 87123, "pitch": 60, "duration": 70, "velocity": 98}, {"time": 87123, "pitch": 64, "duration": 90, "velocity": 114}, {"time": 87263, "pitch": 60, "duration": 70, "velocity": 89}, {"time": 87263, "pitch": 64, "duration": 70, "velocity": 97}, {"time": 87362, "pitch": 55, "duration": 90, "velocity": 97}, {"time": 87362, "pitch": 59, "duration": 90, "velocity": 100}, {"time": 87362, "pitch": 62, "duration": 110, "velocity": 102}, {"time": 87503, "pitch": 57, "duration": 80, "velocity": 100}, {"time": 87503, "pitch": 60, "duration": 60, "velocity": 98}, {"time": 87503, "pitch": 64, "duration": 70, "velocity": 119}, {"time": 87841, "pitch": 52, "duration": 110, "velocity": 86}, {"time": 87841, "pitch": 57, "duration": 110, "velocity": 92}, {"time": 87851, "pitch": 60, "duration": 100, "velocity": 111}, {"time": 87851, "pitch": 64, "duration": 100, "velocity": 116}, {"time": 87981, "pitch": 60, "duration": 70, "velocity": 98}, {"time": 87981, "pitch": 64, "duration": 70, "velocity": 103}, {"time": 87991, "pitch": 52, "duration": 60, "velocity": 95}, {"time": 87991, "pitch": 57, "duration": 60, "velocity": 89}, {"time": 88081, "pitch": 52, "duration": 119, "velocity": 102}, {"time": 88081, "pitch": 57, "duration": 119, "velocity": 98}, {"time": 88091, "pitch": 60, "duration": 109, "velocity": 91}, {"time": 88091, "pitch": 64, "duration": 109, "velocity": 87}, {"time": 88220, "pitch": 52, "duration": 50, "velocity": 112}, {"time": 88220, "pitch": 57, "duration": 50, "velocity": 108}, {"time": 88220, "pitch": 60, "duration": 60, "velocity": 102}, {"time": 88220, "pitch": 64, "duration": 60, "velocity": 96}, {"time": 88320, "pitch": 52, "duration": 110, "velocity": 86}, {"time": 88320, "pitch": 57, "duration": 110, "velocity": 92}, {"time": 88330, "pitch": 60, "duration": 100, "velocity": 111}, {"time": 88330, "pitch": 64, "duration": 100, "velocity": 116}, {"time": 88460, "pitch": 60, "duration": 69, "velocity": 98}, {"time": 88460, "pitch": 64, "duration": 69, "velocity": 103}, {"time": 88470, "pitch": 52, "duration": 59, "velocity": 95}, {"time": 88470, "pitch": 57, "duration": 59, "velocity": 89}, {"time": 88559, "pitch": 52, "duration": 120, "velocity": 102}, {"time": 88559, "pitch": 57, "duration": 120, "velocity": 98}, {"time": 88569, "pitch": 60, "duration": 110, "velocity": 91}, {"time": 88569, "pitch": 64, "duration": 110, "velocity": 87}, {"time": 88699, "pitch": 52, "duration": 50, "velocity": 112}, {"time": 88699, "pitch": 57, "duration": 50, "velocity": 108}, {"time": 88699, "pitch": 60, "duration": 60, "velocity": 102}, {"time": 88699, "pitch": 64, "duration": 60, "velocity": 96}, {"time": 88799, "pitch": 59, "duration": 100, "velocity": 112}, {"time": 88799, "pitch": 62, "duration": 100, "velocity": 127}, {"time": 88799, "pitch": 67, "duration": 110, "velocity": 110}, {"time": 88940, "pitch": 62, "duration": 49, "velocity": 94}, {"time": 88940, "pitch": 67, "duration": 59, "velocity": 89}, {"time": 89038, "pitch": 59, "duration": 100, "velocity": 86}, {"time": 89038, "pitch": 62, "duration": 100, "velocity": 86}, {"time": 89038, "pitch": 67, "duration": 120, "velocity": 90}, {"time": 89179, "pitch": 59, "duration": 120, "velocity": 108}, {"time": 89179, "pitch": 62, "duration": 100, "velocity": 114}, {"time": 89179, "pitch": 67, "duration": 120, "velocity": 102}, {"time": 89757, "pitch": 52, "duration": 40, "velocity": 86}, {"time": 89757, "pitch": 55, "duration": 40, "velocity": 92}, {"time": 89767, "pitch": 59, "duration": 30, "velocity": 111}, {"time": 89767, "pitch": 64, "duration": 30, "velocity": 116}, {"time": 89899, "pitch": 59, "duration": 71, "velocity": 98}, {"time": 89899, "pitch": 64, "duration": 71, "velocity": 103}, {"time": 89909, "pitch": 52, "duration": 61, "velocity": 95}, {"time": 89909, "pitch": 55, "duration": 61, "velocity": 89}, {"time": 90000, "pitch": 52, "duration": 122, "velocity": 102}, {"time": 90000, "pitch": 55, "duration": 122, "velocity": 98}, {"time": 90010, "pitch": 59, "duration": 112, "velocity": 91}, {"time": 90010, "pitch": 64, "duration": 112, "velocity": 87}, {"time": 90142, "pitch": 52, "duration": 51, "velocity": 112}, {"time": 90142, "pitch": 55, "duration": 51, "velocity": 108}, {"time": 90142, "pitch": 59, "duration": 61, "velocity": 102}, {"time": 90142, "pitch": 64, "duration": 61, "velocity": 96}, {"time": 90243, "pitch": 52, "duration": 40, "velocity": 86}, {"time": 90243, "pitch": 55, "duration": 40, "velocity": 92}, {"time": 90253, "pitch": 59, "duration": 30, "velocity": 111}, {"time": 90253, "pitch": 64, "duration": 30, "velocity": 116}, {"time": 90483, "pitch": 57, "duration": 389, "velocity": 112}, {"time": 90483, "pitch": 60, "duration": 369, "velocity": 117}, {"time": 90483, "pitch": 64, "duration": 379, "velocity": 110}, {"time": 90483, "pitch": 69, "duration": 379, "velocity": 110}, {"time": 90962, "pitch": 55, "duration": 189, "velocity": 85}, {"time": 90962, "pitch": 59, "duration": 69, "velocity": 98}, {"time": 90962, "pitch": 62, "duration": 89, "velocity": 114}, {"time": 91102, "pitch": 59, "duration": 70, "velocity": 89}, {"time": 91102, "pitch": 62, "duration": 70, "velocity": 97}, {"time": 91201, "pitch": 55, "duration": 90, "velocity": 97}, {"time": 91201, "pitch": 59, "duration": 90, "velocity": 100}, {"time": 91201, "pitch": 62, "duration": 110, "velocity": 102}, {"time": 91342, "pitch": 57, "duration": 79, "velocity": 100}, {"time": 91342, "pitch": 60, "duration": 60, "velocity": 98}, {"time": 91342, "pitch": 64, "duration": 70, "velocity": 119}, {"time": 91680, "pitch": 52, "duration": 110, "velocity": 86}, {"time": 91680, "pitch": 57, "duration": 110, "velocity": 92}, {"time": 91690, "pitch": 60, "duration": 100, "velocity": 111}, {"time": 91690, "pitch": 64, "duration": 100, "velocity": 116}, {"time": 91820, "pitch": 60, "duration": 69, "velocity": 98}, {"time": 91820, "pitch": 64, "duration": 69, "velocity": 103}, {"time": 91830, "pitch": 52, "duration": 59, "velocity": 95}, {"time": 91830, "pitch": 57, "duration": 59, "velocity": 89}, {"time": 91919, "pitch": 52, "duration": 120, "velocity": 102}, {"time": 91919, "pitch": 57, "duration": 120, "velocity": 98}, {"time": 91929, "pitch": 60, "duration": 110, "velocity": 91}, {"time": 91929, "pitch": 64, "duration": 110, "velocity": 87}, {"time": 92059, "pitch": 52, "duration": 50, "velocity": 112}, {"time": 92059, "pitch": 57, "duration": 50, "velocity": 108}, {"time": 92059, "pitch": 60, "duration": 60, "velocity": 102}, {"time": 92059, "pitch": 64, "duration": 60, "velocity": 96}, {"time": 92159, "pitch": 52, "duration": 110, "velocity": 86}, {"time": 92159, "pitch": 57, "duration": 110, "velocity": 92}, {"time": 92169, "pitch": 60, "duration": 100, "velocity": 111}, {"time": 92169, "pitch": 64, "duration": 100, "velocity": 116}, {"time": 92298, "pitch": 60, "duration": 70, "velocity": 98}, {"time": 92298, "pitch": 64, "duration": 70, "velocity": 103}, {"time": 92308, "pitch": 52, "duration": 60, "velocity": 95}, {"time": 92308, "pitch": 57, "duration": 60, "velocity": 89}, {"time": 92398, "pitch": 52, "duration": 120, "velocity": 102}, {"time": 92398, "pitch": 57, "duration": 120, "velocity": 98}, {"time": 92408, "pitch": 60, "duration": 110, "velocity": 91}, {"time": 92408, "pitch": 64, "duration": 110, "velocity": 87}, {"time": 92538, "pitch": 52, "duration": 50, "velocity": 112}, {"time": 92538, "pitch": 57, "duration": 50, "velocity": 108}, {"time": 92538, "pitch": 60, "duration": 60, "velocity": 102}, {"time": 92538, "pitch": 64, "duration": 60, "velocity": 96}, {"time": 92638, "pitch": 52, "duration": 139, "velocity": 100}, {"time": 92638, "pitch": 55, "duration": 139, "velocity": 105}, {"time": 92648, "pitch": 59, "duration": 129, "velocity": 110}, {"time": 92648, "pitch": 64, "duration": 129, "velocity": 116}, {"time": 92777, "pitch": 64, "duration": 60, "velocity": 100}, {"time": 92787, "pitch": 52, "duration": 40, "velocity": 85}, {"time": 92787, "pitch": 55, "duration": 60, "velocity": 90}, {"time": 92867, "pitch": 52, "duration": 70, "velocity": 95}, {"time": 92867, "pitch": 55, "duration": 70, "velocity": 100}, {"time": 92877, "pitch": 59, "duration": 60, "velocity": 105}, {"time": 92877, "pitch": 64, "duration": 60, "velocity": 110}, {"time": 93017, "pitch": 52, "duration": 201, "velocity": 117}, {"time": 93017, "pitch": 55, "duration": 211, "velocity": 117}, {"time": 93017, "pitch": 59, "duration": 211, "velocity": 109}, {"time": 93017, "pitch": 64, "duration": 221, "velocity": 122}, {"time": 93258, "pitch": 55, "duration": 41, "velocity": 85}, {"time": 93258, "pitch": 59, "duration": 41, "velocity": 106}, {"time": 93258, "pitch": 64, "duration": 41, "velocity": 98}, {"time": 93360, "pitch": 52, "duration": 132, "velocity": 112}, {"time": 93360, "pitch": 55, "duration": 132, "velocity": 104}, {"time": 93360, "pitch": 59, "duration": 122, "velocity": 95}, {"time": 93360, "pitch": 64, "duration": 122, "velocity": 91}, {"time": 93502, "pitch": 52, "duration": 10, "velocity": 120}, {"time": 93502, "pitch": 55, "duration": 10, "velocity": 115}, {"time": 93502, "pitch": 59, "duration": 20, "velocity": 110}, {"time": 93502, "pitch": 64, "duration": 20, "velocity": 105}, {"time": 93603, "pitch": 52, "duration": 230, "velocity": 90}, {"time": 93613, "pitch": 55, "duration": 220, "velocity": 95}, {"time": 93623, "pitch": 59, "duration": 210, "velocity": 100}, {"time": 93633, "pitch": 64, "duration": 200, "velocity": 105}, {"time": 93843, "pitch": 52, "duration": 79, "velocity": 97}, {"time": 93843, "pitch": 55, "duration": 79, "velocity": 105}, {"time": 93843, "pitch": 59, "duration": 79, "velocity": 107}, {"time": 93843, "pitch": 64, "duration": 79, "velocity": 112}, {"time": 93982, "pitch": 52, "duration": 10, "velocity": 120}, {"time": 93982, "pitch": 55, "duration": 10, "velocity": 115}, {"time": 93982, "pitch": 59, "duration": 20, "velocity": 110}, {"time": 93982, "pitch": 64, "duration": 20, "velocity": 105}, {"time": 94082, "pitch": 52, "duration": 40, "velocity": 86}, {"time": 94082, "pitch": 55, "duration": 40, "velocity": 92}, {"time": 94092, "pitch": 59, "duration": 30, "velocity": 111}, {"time": 94092, "pitch": 64, "duration": 30, "velocity": 116}, {"time": 94222, "pitch": 59, "duration": 70, "velocity": 98}, {"time": 94222, "pitch": 64, "duration": 70, "velocity": 103}, {"time": 94232, "pitch": 52, "duration": 60, "velocity": 95}, {"time": 94232, "pitch": 55, "duration": 60, "velocity": 89}, {"time": 94321, "pitch": 52, "duration": 120, "velocity": 102}, {"time": 94321, "pitch": 57, "duration": 120, "velocity": 108}, {"time": 94331, "pitch": 60, "duration": 110, "velocity": 113}, {"time": 94331, "pitch": 64, "duration": 110, "velocity": 118}, {"time": 94800, "pitch": 52, "duration": 120, "velocity": 102}, {"time": 94800, "pitch": 55, "duration": 120, "velocity": 108}, {"time": 94810, "pitch": 60, "duration": 110, "velocity": 113}, {"time": 94810, "pitch": 64, "duration": 110, "velocity": 118}, {"time": 95279, "pitch": 50, "duration": 479, "velocity": 102}, {"time": 95279, "pitch": 57, "duration": 479, "velocity": 108}, {"time": 95289, "pitch": 60, "duration": 469, "velocity": 113}, {"time": 95289, "pitch": 66, "duration": 469, "velocity": 118}, {"time": 95758, "pitch": 50, "duration": 120, "velocity": 102}, {"time": 95758, "pitch": 54, "duration": 120, "velocity": 98}, {"time": 95768, "pitch": 60, "duration": 110, "velocity": 91}, {"time": 95768, "pitch": 64, "duration": 110, "velocity": 87}, {"time": 95898, "pitch": 50, "duration": 50, "velocity": 112}, {"time": 95898, "pitch": 54, "duration": 50, "velocity": 108}, {"time": 95898, "pitch": 60, "duration": 60, "velocity": 102}, {"time": 95898, "pitch": 64, "duration": 60, "velocity": 96}, {"time": 95998, "pitch": 50, "duration": 109, "velocity": 86}, {"time": 95998, "pitch": 54, "duration": 109, "velocity": 92}, {"time": 96008, "pitch": 60, "duration": 99, "velocity": 111}, {"time": 96008, "pitch": 64, "duration": 99, "velocity": 116}, {"time": 96137, "pitch": 60, "duration": 70, "velocity": 98}, {"time": 96137, "pitch": 64, "duration": 70, "velocity": 103}, {"time": 96147, "pitch": 50, "duration": 60, "velocity": 95}, {"time": 96147, "pitch": 54, "duration": 60, "velocity": 89}, {"time": 96237, "pitch": 50, "duration": 120, "velocity": 102}, {"time": 96237, "pitch": 54, "duration": 120, "velocity": 98}, {"time": 96247, "pitch": 60, "duration": 110, "velocity": 91}, {"time": 96247, "pitch": 64, "duration": 110, "velocity": 87}, {"time": 96377, "pitch": 50, "duration": 50, "velocity": 112}, {"time": 96377, "pitch": 54, "duration": 50, "velocity": 108}, {"time": 96377, "pitch": 60, "duration": 60, "velocity": 102}, {"time": 96377, "pitch": 64, "duration": 60, "velocity": 96}, {"time": 96476, "pitch": 50, "duration": 234, "velocity": 102}, {"time": 96476, "pitch": 57, "duration": 234, "velocity": 98}, {"time": 96487, "pitch": 60, "duration": 223, "velocity": 91}, {"time": 96487, "pitch": 65, "duration": 223, "velocity": 87}, {"time": 96720, "pitch": 50, "duration": 121, "velocity": 102}, {"time": 96720, "pitch": 57, "duration": 121, "velocity": 98}, {"time": 96730, "pitch": 60, "duration": 111, "velocity": 91}, {"time": 96730, "pitch": 65, "duration": 111, "velocity": 87}, {"time": 96862, "pitch": 50, "duration": 50, "velocity": 112}, {"time": 96862, "pitch": 57, "duration": 50, "velocity": 108}, {"time": 96862, "pitch": 60, "duration": 61, "velocity": 102}, {"time": 96862, "pitch": 65, "duration": 61, "velocity": 96}, {"time": 96963, "pitch": 50, "duration": 110, "velocity": 86}, {"time": 96963, "pitch": 57, "duration": 110, "velocity": 92}, {"time": 96973, "pitch": 60, "duration": 100, "velocity": 111}, {"time": 96973, "pitch": 65, "duration": 100, "velocity": 116}, {"time": 97103, "pitch": 60, "duration": 70, "velocity": 98}, {"time": 97103, "pitch": 65, "duration": 70, "velocity": 103}, {"time": 97113, "pitch": 50, "duration": 60, "velocity": 95}, {"time": 97113, "pitch": 57, "duration": 60, "velocity": 89}, {"time": 97203, "pitch": 50, "duration": 119, "velocity": 102}, {"time": 97203, "pitch": 57, "duration": 119, "velocity": 98}, {"time": 97212, "pitch": 60, "duration": 110, "velocity": 91}, {"time": 97212, "pitch": 65, "duration": 110, "velocity": 87}, {"time": 97342, "pitch": 50, "duration": 50, "velocity": 112}, {"time": 97342, "pitch": 57, "duration": 50, "velocity": 108}, {"time": 97342, "pitch": 60, "duration": 60, "velocity": 102}, {"time": 97342, "pitch": 65, "duration": 60, "velocity": 96}, {"time": 97442, "pitch": 50, "duration": 229, "velocity": 102}, {"time": 97442, "pitch": 57, "duration": 229, "velocity": 98}, {"time": 97452, "pitch": 60, "duration": 219, "velocity": 91}, {"time": 97452, "pitch": 65, "duration": 219, "velocity": 87}, {"time": 97681, "pitch": 50, "duration": 120, "velocity": 102}, {"time": 97681, "pitch": 57, "duration": 120, "velocity": 98}, {"time": 97691, "pitch": 60, "duration": 110, "velocity": 91}, {"time": 97691, "pitch": 65, "duration": 110, "velocity": 87}, {"time": 97821, "pitch": 50, "duration": 50, "velocity": 112}, {"time": 97821, "pitch": 57, "duration": 50, "velocity": 108}, {"time": 97821, "pitch": 60, "duration": 60, "velocity": 102}, {"time": 97821, "pitch": 65, "duration": 60, "velocity": 96}, {"time": 97921, "pitch": 50, "duration": 110, "velocity": 86}, {"time": 97921, "pitch": 57, "duration": 110, "velocity": 92}, {"time": 97931, "pitch": 60, "duration": 100, "velocity": 111}, {"time": 97931, "pitch": 65, "duration": 100, "velocity": 116}, {"time": 98061, "pitch": 60, "duration": 69, "velocity": 98}, {"time": 98061, "pitch": 65, "duration": 69, "velocity": 103}, {"time": 98070, "pitch": 50, "duration": 60, "velocity": 95}, {"time": 98070, "pitch": 57, "duration": 60, "velocity": 89}, {"time": 98160, "pitch": 50, "duration": 120, "velocity": 102}, {"time": 98160, "pitch": 57, "duration": 120, "velocity": 98}, {"time": 98170, "pitch": 60, "duration": 110, "velocity": 91}, {"time": 98170, "pitch": 65, "duration": 110, "velocity": 87}, {"time": 98300, "pitch": 50, "duration": 50, "velocity": 112}, {"time": 98300, "pitch": 57, "duration": 50, "velocity": 108}, {"time": 98300, "pitch": 60, "duration": 60, "velocity": 102}, {"time": 98300, "pitch": 65, "duration": 60, "velocity": 96}, {"time": 98400, "pitch": 55, "duration": 109, "velocity": 86}, {"time": 98400, "pitch": 57, "duration": 109, "velocity": 92}, {"time": 98410, "pitch": 60, "duration": 99, "velocity": 111}, {"time": 98410, "pitch": 67, "duration": 99, "velocity": 116}, {"time": 98539, "pitch": 60, "duration": 70, "velocity": 113}, {"time": 98539, "pitch": 67, "duration": 70, "velocity": 118}, {"time": 98549, "pitch": 55, "duration": 60, "velocity": 110}, {"time": 98549, "pitch": 57, "duration": 60, "velocity": 104}, {"time": 99118, "pitch": 55, "duration": 589, "velocity": 86}, {"time": 99118, "pitch": 57, "duration": 589, "velocity": 92}, {"time": 99128, "pitch": 60, "duration": 579, "velocity": 111}, {"time": 99128, "pitch": 67, "duration": 579, "velocity": 116}, {"time": 99836, "pitch": 55, "duration": 477, "velocity": 86}, {"time": 99836, "pitch": 59, "duration": 477, "velocity": 92}, {"time": 99846, "pitch": 62, "duration": 467, "velocity": 111}, {"time": 99846, "pitch": 67, "duration": 467, "velocity": 116}, {"time": 100323, "pitch": 48, "duration": 140, "velocity": 100}, {"time": 100323, "pitch": 55, "duration": 140, "velocity": 105}, {"time": 100333, "pitch": 60, "duration": 130, "velocity": 110}, {"time": 100333, "pitch": 64, "duration": 130, "velocity": 116}, {"time": 100463, "pitch": 64, "duration": 60, "velocity": 100}, {"time": 100473, "pitch": 48, "duration": 40, "velocity": 85}, {"time": 100473, "pitch": 55, "duration": 60, "velocity": 90}, {"time": 100552, "pitch": 48, "duration": 70, "velocity": 95}, {"time": 100552, "pitch": 55, "duration": 70, "velocity": 100}, {"time": 100562, "pitch": 60, "duration": 60, "velocity": 105}, {"time": 100562, "pitch": 64, "duration": 60, "velocity": 110}, {"time": 100702, "pitch": 48, "duration": 200, "velocity": 117}, {"time": 100702, "pitch": 55, "duration": 210, "velocity": 117}, {"time": 100702, "pitch": 60, "duration": 210, "velocity": 109}, {"time": 100702, "pitch": 64, "duration": 220, "velocity": 122}, {"time": 100942, "pitch": 55, "duration": 39, "velocity": 85}, {"time": 100942, "pitch": 60, "duration": 39, "velocity": 106}, {"time": 100942, "pitch": 64, "duration": 39, "velocity": 98}, {"time": 101041, "pitch": 48, "duration": 130, "velocity": 112}, {"time": 101041, "pitch": 55, "duration": 130, "velocity": 104}, {"time": 101041, "pitch": 60, "duration": 120, "velocity": 95}, {"time": 101041, "pitch": 64, "duration": 120, "velocity": 91}, {"time": 101181, "pitch": 48, "duration": 10, "velocity": 120}, {"time": 101181, "pitch": 55, "duration": 10, "velocity": 115}, {"time": 101181, "pitch": 60, "duration": 20, "velocity": 110}, {"time": 101181, "pitch": 64, "duration": 20, "velocity": 105}, {"time": 101281, "pitch": 48, "duration": 229, "velocity": 90}, {"time": 101291, "pitch": 55, "duration": 219, "velocity": 95}, {"time": 101301, "pitch": 60, "duration": 209, "velocity": 100}, {"time": 101311, "pitch": 64, "duration": 199, "velocity": 105}, {"time": 101520, "pitch": 48, "duration": 80, "velocity": 97}, {"time": 101520, "pitch": 55, "duration": 80, "velocity": 105}, {"time": 101520, "pitch": 60, "duration": 80, "velocity": 107}, {"time": 101520, "pitch": 64, "duration": 80, "velocity": 112}, {"time": 101660, "pitch": 48, "duration": 10, "velocity": 120}, {"time": 101660, "pitch": 55, "duration": 10, "velocity": 115}, {"time": 101660, "pitch": 60, "duration": 20, "velocity": 110}, {"time": 101660, "pitch": 64, "duration": 20, "velocity": 105}, {"time": 101760, "pitch": 48, "duration": 40, "velocity": 86}, {"time": 101760, "pitch": 55, "duration": 40, "velocity": 92}, {"time": 101770, "pitch": 60, "duration": 30, "velocity": 111}, {"time": 101770, "pitch": 64, "duration": 30, "velocity": 116}, {"time": 101899, "pitch": 60, "duration": 70, "velocity": 98}, {"time": 101899, "pitch": 64, "duration": 70, "velocity": 103}, {"time": 101909, "pitch": 48, "duration": 60, "velocity": 95}, {"time": 101909, "pitch": 55, "duration": 60, "velocity": 89}, {"time": 101999, "pitch": 48, "duration": 120, "velocity": 102}, {"time": 101999, "pitch": 55, "duration": 120, "velocity": 98}, {"time": 102009, "pitch": 60, "duration": 110, "velocity": 91}, {"time": 102009, "pitch": 64, "duration": 110, "velocity": 87}, {"time": 102139, "pitch": 48, "duration": 50, "velocity": 112}, {"time": 102139, "pitch": 55, "duration": 50, "velocity": 108}, {"time": 102139, "pitch": 60, "duration": 60, "velocity": 102}, {"time": 102139, "pitch": 64, "duration": 60, "velocity": 96}, {"time": 102239, "pitch": 52, "duration": 139, "velocity": 100}, {"time": 102239, "pitch": 55, "duration": 139, "velocity": 105}, {"time": 102249, "pitch": 59, "duration": 129, "velocity": 110}, {"time": 102249, "pitch": 64, "duration": 129, "velocity": 116}, {"time": 102378, "pitch": 64, "duration": 60, "velocity": 100}, {"time": 102388, "pitch": 52, "duration": 40, "velocity": 85}, {"time": 102388, "pitch": 55, "duration": 60, "velocity": 90}, {"time": 102468, "pitch": 52, "duration": 70, "velocity": 95}, {"time": 102468, "pitch": 55, "duration": 70, "velocity": 100}, {"time": 102478, "pitch": 59, "duration": 60, "velocity": 105}, {"time": 102478, "pitch": 64, "duration": 60, "velocity": 110}, {"time": 102618, "pitch": 52, "duration": 199, "velocity": 117}, {"time": 102618, "pitch": 55, "duration": 209, "velocity": 117}, {"time": 102618, "pitch": 59, "duration": 209, "velocity": 109}, {"time": 102618, "pitch": 64, "duration": 219, "velocity": 122}, {"time": 102857, "pitch": 55, "duration": 40, "velocity": 85}, {"time": 102857, "pitch": 59, "duration": 40, "velocity": 106}, {"time": 102857, "pitch": 64, "duration": 40, "velocity": 98}, {"time": 102957, "pitch": 52, "duration": 130, "velocity": 112}, {"time": 102957, "pitch": 55, "duration": 130, "velocity": 104}, {"time": 102957, "pitch": 59, "duration": 120, "velocity": 95}, {"time": 102957, "pitch": 64, "duration": 120, "velocity": 91}, {"time": 103097, "pitch": 52, "duration": 9, "velocity": 120}, {"time": 103097, "pitch": 55, "duration": 9, "velocity": 115}, {"time": 103097, "pitch": 59, "duration": 19, "velocity": 110}, {"time": 103097, "pitch": 64, "duration": 19, "velocity": 105}, {"time": 103196, "pitch": 52, "duration": 233, "velocity": 90}, {"time": 103206, "pitch": 55, "duration": 223, "velocity": 95}, {"time": 103217, "pitch": 59, "duration": 212, "velocity": 100}, {"time": 103227, "pitch": 64, "duration": 202, "velocity": 105}, {"time": 103440, "pitch": 52, "duration": 81, "velocity": 97}, {"time": 103440, "pitch": 55, "duration": 81, "velocity": 105}, {"time": 103440, "pitch": 59, "duration": 81, "velocity": 107}, {"time": 103440, "pitch": 64, "duration": 81, "velocity": 112}, {"time": 103582, "pitch": 52, "duration": 10, "velocity": 120}, {"time": 103582, "pitch": 55, "duration": 10, "velocity": 115}, {"time": 103582, "pitch": 59, "duration": 20, "velocity": 110}, {"time": 103582, "pitch": 64, "duration": 20, "velocity": 105}, {"time": 103683, "pitch": 52, "duration": 40, "velocity": 86}, {"time": 103683, "pitch": 55, "duration": 40, "velocity": 92}, {"time": 103693, "pitch": 59, "duration": 30, "velocity": 111}, {"time": 103693, "pitch": 64, "duration": 30, "velocity": 116}, {"time": 103823, "pitch": 59, "duration": 69, "velocity": 98}, {"time": 103823, "pitch": 64, "duration": 69, "velocity": 103}, {"time": 103833, "pitch": 52, "duration": 59, "velocity": 95}, {"time": 103833, "pitch": 55, "duration": 59, "velocity": 89}, {"time": 103922, "pitch": 52, "duration": 120, "velocity": 102}, {"time": 103922, "pitch": 55, "duration": 120, "velocity": 98}, {"time": 103932, "pitch": 59, "duration": 110, "velocity": 91}, {"time": 103932, "pitch": 64, "duration": 110, "velocity": 87}, {"time": 104062, "pitch": 52, "duration": 50, "velocity": 112}, {"time": 104062, "pitch": 55, "duration": 50, "velocity": 108}, {"time": 104062, "pitch": 59, "duration": 60, "velocity": 102}, {"time": 104062, "pitch": 64, "duration": 60, "velocity": 96}, {"time": 104162, "pitch": 52, "duration": 139, "velocity": 100}, {"time": 104162, "pitch": 57, "duration": 139, "velocity": 105}, {"time": 104172, "pitch": 60, "duration": 129, "velocity": 110}, {"time": 104172, "pitch": 64, "duration": 129, "velocity": 116}, {"time": 104301, "pitch": 64, "duration": 60, "velocity": 100}, {"time": 104311, "pitch": 52, "duration": 40, "velocity": 85}, {"time": 104311, "pitch": 57, "duration": 60, "velocity": 90}, {"time": 104391, "pitch": 52, "duration": 70, "velocity": 95}, {"time": 104391, "pitch": 57, "duration": 70, "velocity": 100}, {"time": 104401, "pitch": 60, "duration": 60, "velocity": 105}, {"time": 104401, "pitch": 64, "duration": 60, "velocity": 110}, {"time": 104541, "pitch": 52, "duration": 199, "velocity": 117}, {"time": 104541, "pitch": 57, "duration": 209, "velocity": 117}, {"time": 104541, "pitch": 60, "duration": 209, "velocity": 109}, {"time": 104541, "pitch": 64, "duration": 219, "velocity": 122}, {"time": 104780, "pitch": 57, "duration": 40, "velocity": 85}, {"time": 104780, "pitch": 60, "duration": 40, "velocity": 106}, {"time": 104780, "pitch": 64, "duration": 40, "velocity": 98}, {"time": 104880, "pitch": 52, "duration": 130, "velocity": 112}, {"time": 104880, "pitch": 57, "duration": 130, "velocity": 104}, {"time": 104880, "pitch": 60, "duration": 120, "velocity": 95}, {"time": 104880, "pitch": 64, "duration": 120, "velocity": 91}, {"time": 105020, "pitch": 52, "duration": 10, "velocity": 120}, {"time": 105020, "pitch": 57, "duration": 10, "velocity": 115}, {"time": 105020, "pitch": 60, "duration": 20, "velocity": 110}, {"time": 105020, "pitch": 64, "duration": 20, "velocity": 105}, {"time": 105120, "pitch": 52, "duration": 229, "velocity": 90}, {"time": 105130, "pitch": 57, "duration": 219, "velocity": 95}, {"time": 105140, "pitch": 60, "duration": 209, "velocity": 100}, {"time": 105149, "pitch": 64, "duration": 200, "velocity": 105}, {"time": 105359, "pitch": 52, "duration": 80, "velocity": 97}, {"time": 105359, "pitch": 57, "duration": 80, "velocity": 105}, {"time": 105359, "pitch": 60, "duration": 80, "velocity": 107}, {"time": 105359, "pitch": 64, "duration": 80, "velocity": 112}, {"time": 105499, "pitch": 52, "duration": 10, "velocity": 120}, {"time": 105499, "pitch": 57, "duration": 10, "velocity": 115}, {"time": 105499, "pitch": 60, "duration": 20, "velocity": 110}, {"time": 105499, "pitch": 64, "duration": 20, "velocity": 105}, {"time": 105598, "pitch": 52, "duration": 40, "velocity": 86}, {"time": 105598, "pitch": 57, "duration": 40, "velocity": 92}, {"time": 105608, "pitch": 60, "duration": 30, "velocity": 111}, {"time": 105608, "pitch": 64, "duration": 30, "velocity": 116}, {"time": 105738, "pitch": 60, "duration": 70, "velocity": 98}, {"time": 105738, "pitch": 64, "duration": 70, "velocity": 103}, {"time": 105748, "pitch": 52, "duration": 60, "velocity": 95}, {"time": 105748, "pitch": 57, "duration": 60, "velocity": 89}, {"time": 105838, "pitch": 52, "duration": 120, "velocity": 102}, {"time": 105838, "pitch": 57, "duration": 120, "velocity": 98}, {"time": 105848, "pitch": 60, "duration": 110, "velocity": 91}, {"time": 105848, "pitch": 64, "duration": 110, "velocity": 87}, {"time": 105978, "pitch": 52, "duration": 49, "velocity": 112}, {"time": 105978, "pitch": 57, "duration": 49, "velocity": 108}, {"time": 105978, "pitch": 60, "duration": 59, "velocity": 102}, {"time": 105978, "pitch": 64, "duration": 59, "velocity": 96}, {"time": 106077, "pitch": 53, "duration": 140, "velocity": 100}, {"time": 106077, "pitch": 57, "duration": 140, "velocity": 105}, {"time": 106087, "pitch": 60, "duration": 130, "velocity": 110}, {"time": 106087, "pitch": 65, "duration": 130, "velocity": 116}, {"time": 106217, "pitch": 65, "duration": 60, "velocity": 100}, {"time": 106227, "pitch": 53, "duration": 40, "velocity": 85}, {"time": 106227, "pitch": 57, "duration": 60, "velocity": 90}, {"time": 106307, "pitch": 53, "duration": 70, "velocity": 95}, {"time": 106307, "pitch": 57, "duration": 70, "velocity": 100}, {"time": 106317, "pitch": 60, "duration": 60, "velocity": 105}, {"time": 106317, "pitch": 65, "duration": 60, "velocity": 110}, {"time": 106456, "pitch": 53, "duration": 202, "velocity": 117}, {"time": 106456, "pitch": 57, "duration": 212, "velocity": 117}, {"time": 106456, "pitch": 60, "duration": 212, "velocity": 109}, {"time": 106456, "pitch": 65, "duration": 222, "velocity": 122}, {"time": 106698, "pitch": 57, "duration": 41, "velocity": 85}, {"time": 106698, "pitch": 60, "duration": 41, "velocity": 106}, {"time": 106698, "pitch": 65, "duration": 41, "velocity": 98}, {"time": 106800, "pitch": 53, "duration": 131, "velocity": 112}, {"time": 106800, "pitch": 57, "duration": 131, "velocity": 104}, {"time": 106800, "pitch": 60, "duration": 121, "velocity": 95}, {"time": 106800, "pitch": 65, "duration": 121, "velocity": 91}, {"time": 106941, "pitch": 53, "duration": 11, "velocity": 120}, {"time": 106941, "pitch": 57, "duration": 11, "velocity": 115}, {"time": 106941, "pitch": 60, "duration": 21, "velocity": 110}, {"time": 106941, "pitch": 65, "duration": 21, "velocity": 105}, {"time": 107043, "pitch": 50, "duration": 229, "velocity": 90}, {"time": 107053, "pitch": 57, "duration": 219, "velocity": 95}, {"time": 107063, "pitch": 60, "duration": 209, "velocity": 100}, {"time": 107073, "pitch": 65, "duration": 199, "velocity": 105}, {"time": 107282, "pitch": 50, "duration": 80, "velocity": 97}, {"time": 107282, "pitch": 57, "duration": 80, "velocity": 105}, {"time": 107282, "pitch": 60, "duration": 80, "velocity": 107}, {"time": 107282, "pitch": 65, "duration": 80, "velocity": 112}, {"time": 107422, "pitch": 50, "duration": 10, "velocity": 120}, {"time": 107422, "pitch": 57, "duration": 10, "velocity": 115}, {"time": 107422, "pitch": 60, "duration": 20, "velocity": 110}, {"time": 107422, "pitch": 65, "duration": 20, "velocity": 105}, {"time": 107522, "pitch": 55, "duration": 40, "velocity": 86}, {"time": 107522, "pitch": 59, "duration": 40, "velocity": 92}, {"time": 107532, "pitch": 62, "duration": 30, "velocity": 111}, {"time": 107532, "pitch": 67, "duration": 30, "velocity": 116}, {"time": 107661, "pitch": 62, "duration": 70, "velocity": 98}, {"time": 107661, "pitch": 67, "duration": 70, "velocity": 103}, {"time": 107671, "pitch": 55, "duration": 60, "velocity": 95}, {"time": 107671, "pitch": 59, "duration": 60, "velocity": 89}, {"time": 107761, "pitch": 55, "duration": 120, "velocity": 102}, {"time": 107761, "pitch": 59, "duration": 120, "velocity": 98}, {"time": 107771, "pitch": 62, "duration": 110, "velocity": 91}, {"time": 107771, "pitch": 67, "duration": 110, "velocity": 87}, {"time": 107901, "pitch": 55, "duration": 50, "velocity": 112}, {"time": 107901, "pitch": 59, "duration": 50, "velocity": 108}, {"time": 107901, "pitch": 62, "duration": 60, "velocity": 102}, {"time": 107901, "pitch": 67, "duration": 60, "velocity": 96}, {"time": 108001, "pitch": 48, "duration": 139, "velocity": 100}, {"time": 108001, "pitch": 55, "duration": 139, "velocity": 105}, {"time": 108011, "pitch": 60, "duration": 129, "velocity": 110}, {"time": 108011, "pitch": 64, "duration": 129, "velocity": 116}, {"time": 108140, "pitch": 64, "duration": 60, "velocity": 100}, {"time": 108150, "pitch": 48, "duration": 40, "velocity": 85}, {"time": 108150, "pitch": 55, "duration": 60, "velocity": 90}, {"time": 108230, "pitch": 48, "duration": 70, "velocity": 95}, {"time": 108230, "pitch": 55, "duration": 70, "velocity": 100}, {"time": 108240, "pitch": 60, "duration": 60, "velocity": 105}, {"time": 108240, "pitch": 64, "duration": 60, "velocity": 110}, {"time": 108380, "pitch": 48, "duration": 199, "velocity": 117}, {"time": 108380, "pitch": 55, "duration": 209, "velocity": 117}, {"time": 108380, "pitch": 60, "duration": 209, "velocity": 109}, {"time": 108380, "pitch": 64, "duration": 219, "velocity": 122}, {"time": 108619, "pitch": 55, "duration": 40, "velocity": 85}, {"time": 108619, "pitch": 60, "duration": 40, "velocity": 106}, {"time": 108619, "pitch": 64, "duration": 40, "velocity": 98}, {"time": 108719, "pitch": 48, "duration": 130, "velocity": 112}, {"time": 108719, "pitch": 55, "duration": 130, "velocity": 104}, {"time": 108719, "pitch": 60, "duration": 120, "velocity": 95}, {"time": 108719, "pitch": 64, "duration": 120, "velocity": 91}, {"time": 108859, "pitch": 48, "duration": 10, "velocity": 120}, {"time": 108859, "pitch": 55, "duration": 10, "velocity": 115}, {"time": 108859, "pitch": 60, "duration": 20, "velocity": 110}, {"time": 108859, "pitch": 64, "duration": 20, "velocity": 105}, {"time": 108958, "pitch": 48, "duration": 230, "velocity": 90}, {"time": 108968, "pitch": 55, "duration": 220, "velocity": 95}, {"time": 108978, "pitch": 60, "duration": 210, "velocity": 100}, {"time": 108988, "pitch": 64, "duration": 200, "velocity": 105}, {"time": 109198, "pitch": 48, "duration": 80, "velocity": 97}, {"time": 109198, "pitch": 55, "duration": 80, "velocity": 105}, {"time": 109198, "pitch": 60, "duration": 80, "velocity": 107}, {"time": 109198, "pitch": 64, "duration": 80, "velocity": 112}, {"time": 109337, "pitch": 48, "duration": 10, "velocity": 120}, {"time": 109337, "pitch": 55, "duration": 10, "velocity": 115}, {"time": 109337, "pitch": 60, "duration": 20, "velocity": 110}, {"time": 109337, "pitch": 64, "duration": 20, "velocity": 105}, {"time": 109437, "pitch": 48, "duration": 41, "velocity": 86}, {"time": 109437, "pitch": 55, "duration": 41, "velocity": 92}, {"time": 109447, "pitch": 60, "duration": 31, "velocity": 111}, {"time": 109447, "pitch": 64, "duration": 31, "velocity": 116}, {"time": 109579, "pitch": 60, "duration": 71, "velocity": 98}, {"time": 109579, "pitch": 64, "duration": 71, "velocity": 103}, {"time": 109589, "pitch": 48, "duration": 61, "velocity": 95}, {"time": 109589, "pitch": 55, "duration": 61, "velocity": 89}, {"time": 109681, "pitch": 48, "duration": 121, "velocity": 102}, {"time": 109681, "pitch": 55, "duration": 121, "velocity": 98}, {"time": 109691, "pitch": 60, "duration": 111, "velocity": 91}, {"time": 109691, "pitch": 64, "duration": 111, "velocity": 87}, {"time": 109823, "pitch": 48, "duration": 50, "velocity": 112}, {"time": 109823, "pitch": 55, "duration": 50, "velocity": 108}, {"time": 109823, "pitch": 60, "duration": 60, "velocity": 102}, {"time": 109823, "pitch": 64, "duration": 60, "velocity": 96}, {"time": 109924, "pitch": 52, "duration": 140, "velocity": 100}, {"time": 109924, "pitch": 55, "duration": 140, "velocity": 105}, {"time": 109934, "pitch": 59, "duration": 130, "velocity": 110}, {"time": 109934, "pitch": 64, "duration": 130, "velocity": 116}, {"time": 110064, "pitch": 64, "duration": 59, "velocity": 100}, {"time": 110074, "pitch": 52, "duration": 39, "velocity": 85}, {"time": 110074, "pitch": 55, "duration": 59, "velocity": 90}, {"time": 110153, "pitch": 52, "duration": 70, "velocity": 95}, {"time": 110153, "pitch": 55, "duration": 70, "velocity": 100}, {"time": 110163, "pitch": 59, "duration": 60, "velocity": 105}, {"time": 110163, "pitch": 64, "duration": 60, "velocity": 110}, {"time": 110303, "pitch": 52, "duration": 200, "velocity": 117}, {"time": 110303, "pitch": 55, "duration": 209, "velocity": 117}, {"time": 110303, "pitch": 59, "duration": 209, "velocity": 109}, {"time": 110303, "pitch": 64, "duration": 219, "velocity": 122}, {"time": 110542, "pitch": 55, "duration": 40, "velocity": 85}, {"time": 110542, "pitch": 59, "duration": 40, "velocity": 106}, {"time": 110542, "pitch": 64, "duration": 40, "velocity": 98}, {"time": 110642, "pitch": 52, "duration": 130, "velocity": 117}, {"time": 110642, "pitch": 57, "duration": 210, "velocity": 117}, {"time": 110642, "pitch": 60, "duration": 210, "velocity": 109}, {"time": 110642, "pitch": 64, "duration": 220, "velocity": 122}, {"time": 110882, "pitch": 52, "duration": 229, "velocity": 90}, {"time": 110892, "pitch": 57, "duration": 219, "velocity": 95}, {"time": 110902, "pitch": 60, "duration": 209, "velocity": 100}, {"time": 110912, "pitch": 64, "duration": 199, "velocity": 105}, {"time": 111121, "pitch": 52, "duration": 80, "velocity": 97}, {"time": 111121, "pitch": 57, "duration": 80, "velocity": 105}, {"time": 111121, "pitch": 60, "duration": 80, "velocity": 107}, {"time": 111121, "pitch": 64, "duration": 80, "velocity": 112}, {"time": 111361, "pitch": 52, "duration": 39, "velocity": 86}, {"time": 111361, "pitch": 57, "duration": 39, "velocity": 92}, {"time": 111370, "pitch": 60, "duration": 30, "velocity": 111}, {"time": 111370, "pitch": 64, "duration": 30, "velocity": 116}, {"time": 111500, "pitch": 60, "duration": 70, "velocity": 98}, {"time": 111500, "pitch": 64, "duration": 70, "velocity": 103}, {"time": 111510, "pitch": 52, "duration": 60, "velocity": 95}, {"time": 111510, "pitch": 57, "duration": 60, "velocity": 89}, {"time": 111600, "pitch": 52, "duration": 120, "velocity": 102}, {"time": 111600, "pitch": 57, "duration": 120, "velocity": 98}, {"time": 111610, "pitch": 60, "duration": 110, "velocity": 91}, {"time": 111610, "pitch": 64, "duration": 110, "velocity": 87}, {"time": 111740, "pitch": 52, "duration": 50, "velocity": 112}, {"time": 111740, "pitch": 57, "duration": 50, "velocity": 108}, {"time": 111740, "pitch": 60, "duration": 59, "velocity": 102}, {"time": 111740, "pitch": 64, "duration": 59, "velocity": 96}, {"time": 111839, "pitch": 50, "duration": 140, "velocity": 100}, {"time": 111839, "pitch": 57, "duration": 140, "velocity": 105}, {"time": 111849, "pitch": 60, "duration": 130, "velocity": 110}, {"time": 111849, "pitch": 65, "duration": 130, "velocity": 116}, {"time": 111979, "pitch": 65, "duration": 60, "velocity": 100}, {"time": 111989, "pitch": 50, "duration": 40, "velocity": 85}, {"time": 111989, "pitch": 57, "duration": 60, "velocity": 90}, {"time": 112069, "pitch": 50, "duration": 70, "velocity": 95}, {"time": 112069, "pitch": 57, "duration": 70, "velocity": 100}, {"time": 112079, "pitch": 60, "duration": 60, "velocity": 105}, {"time": 112079, "pitch": 65, "duration": 60, "velocity": 110}, {"time": 112219, "pitch": 50, "duration": 199, "velocity": 117}, {"time": 112219, "pitch": 57, "duration": 209, "velocity": 117}, {"time": 112219, "pitch": 60, "duration": 209, "velocity": 109}, {"time": 112219, "pitch": 65, "duration": 219, "velocity": 122}, {"time": 112458, "pitch": 57, "duration": 40, "velocity": 85}, {"time": 112458, "pitch": 60, "duration": 40, "velocity": 106}, {"time": 112458, "pitch": 65, "duration": 40, "velocity": 98}, {"time": 112558, "pitch": 50, "duration": 129, "velocity": 112}, {"time": 112558, "pitch": 57, "duration": 129, "velocity": 104}, {"time": 112558, "pitch": 60, "duration": 119, "velocity": 95}, {"time": 112558, "pitch": 65, "duration": 119, "velocity": 91}, {"time": 112697, "pitch": 50, "duration": 10, "velocity": 120}, {"time": 112697, "pitch": 57, "duration": 10, "velocity": 115}, {"time": 112697, "pitch": 60, "duration": 20, "velocity": 110}, {"time": 112697, "pitch": 65, "duration": 20, "velocity": 105}, {"time": 112797, "pitch": 50, "duration": 233, "velocity": 90}, {"time": 112807, "pitch": 57, "duration": 223, "velocity": 95}, {"time": 112817, "pitch": 60, "duration": 213, "velocity": 100}, {"time": 112828, "pitch": 65, "duration": 202, "velocity": 105}, {"time": 113040, "pitch": 50, "duration": 82, "velocity": 97}, {"time": 113040, "pitch": 57, "duration": 82, "velocity": 105}, {"time": 113040, "pitch": 60, "duration": 82, "velocity": 107}, {"time": 113040, "pitch": 65, "duration": 82, "velocity": 112}, {"time": 113182, "pitch": 50, "duration": 11, "velocity": 120}, {"time": 113182, "pitch": 57, "duration": 11, "velocity": 115}, {"time": 113182, "pitch": 60, "duration": 21, "velocity": 110}, {"time": 113182, "pitch": 65, "duration": 21, "velocity": 105}, {"time": 113284, "pitch": 50, "duration": 40, "velocity": 86}, {"time": 113284, "pitch": 57, "duration": 40, "velocity": 92}, {"time": 113294, "pitch": 60, "duration": 30, "velocity": 111}, {"time": 113294, "pitch": 65, "duration": 30, "velocity": 116}, {"time": 113423, "pitch": 60, "duration": 70, "velocity": 98}, {"time": 113423, "pitch": 65, "duration": 70, "velocity": 103}, {"time": 113433, "pitch": 50, "duration": 60, "velocity": 95}, {"time": 113433, "pitch": 57, "duration": 60, "velocity": 89}, {"time": 113523, "pitch": 50, "duration": 120, "velocity": 102}, {"time": 113523, "pitch": 57, "duration": 120, "velocity": 98}, {"time": 113533, "pitch": 60, "duration": 110, "velocity": 91}, {"time": 113533, "pitch": 65, "duration": 110, "velocity": 87}, {"time": 113663, "pitch": 50, "duration": 50, "velocity": 112}, {"time": 113663, "pitch": 57, "duration": 50, "velocity": 108}, {"time": 113663, "pitch": 60, "duration": 60, "velocity": 102}, {"time": 113663, "pitch": 65, "duration": 60, "velocity": 96}, {"time": 113763, "pitch": 53, "duration": 139, "velocity": 100}, {"time": 113763, "pitch": 56, "duration": 139, "velocity": 105}, {"time": 113773, "pitch": 60, "duration": 129, "velocity": 110}, {"time": 113773, "pitch": 65, "duration": 129, "velocity": 116}, {"time": 113902, "pitch": 65, "duration": 60, "velocity": 100}, {"time": 113912, "pitch": 53, "duration": 40, "velocity": 85}, {"time": 113912, "pitch": 56, "duration": 60, "velocity": 90}, {"time": 113992, "pitch": 53, "duration": 70, "velocity": 95}, {"time": 113992, "pitch": 56, "duration": 70, "velocity": 100}, {"time": 114002, "pitch": 60, "duration": 60, "velocity": 105}, {"time": 114002, "pitch": 65, "duration": 60, "velocity": 110}, {"time": 114142, "pitch": 53, "duration": 199, "velocity": 117}, {"time": 114142, "pitch": 56, "duration": 209, "velocity": 117}, {"time": 114142, "pitch": 60, "duration": 209, "velocity": 109}, {"time": 114142, "pitch": 65, "duration": 219, "velocity": 122}, {"time": 114381, "pitch": 56, "duration": 40, "velocity": 85}, {"time": 114381, "pitch": 60, "duration": 40, "velocity": 106}, {"time": 114381, "pitch": 65, "duration": 40, "velocity": 98}, {"time": 114481, "pitch": 53, "duration": 130, "velocity": 112}, {"time": 114481, "pitch": 56, "duration": 130, "velocity": 104}, {"time": 114481, "pitch": 60, "duration": 120, "velocity": 95}, {"time": 114481, "pitch": 65, "duration": 120, "velocity": 91}, {"time": 114621, "pitch": 53, "duration": 10, "velocity": 120}, {"time": 114621, "pitch": 56, "duration": 10, "velocity": 115}, {"time": 114621, "pitch": 60, "duration": 20, "velocity": 110}, {"time": 114621, "pitch": 65, "duration": 20, "velocity": 105}, {"time": 114720, "pitch": 53, "duration": 230, "velocity": 90}, {"time": 114730, "pitch": 56, "duration": 220, "velocity": 95}, {"time": 114740, "pitch": 60, "duration": 210, "velocity": 100}, {"time": 114750, "pitch": 65, "duration": 200, "velocity": 105}, {"time": 114960, "pitch": 53, "duration": 80, "velocity": 97}, {"time": 114960, "pitch": 56, "duration": 80, "velocity": 105}, {"time": 114960, "pitch": 60, "duration": 80, "velocity": 107}, {"time": 114960, "pitch": 65, "duration": 80, "velocity": 112}, {"time": 115100, "pitch": 53, "duration": 10, "velocity": 120}, {"time": 115100, "pitch": 56, "duration": 10, "velocity": 115}, {"time": 115100, "pitch": 60, "duration": 19, "velocity": 110}, {"time": 115100, "pitch": 65, "duration": 19, "velocity": 105}, {"time": 115199, "pitch": 55, "duration": 40, "velocity": 86}, {"time": 115199, "pitch": 59, "duration": 40, "velocity": 92}, {"time": 115209, "pitch": 62, "duration": 30, "velocity": 111}, {"time": 115209, "pitch": 67, "duration": 30, "velocity": 116}, {"time": 115339, "pitch": 62, "duration": 70, "velocity": 98}, {"time": 115339, "pitch": 67, "duration": 70, "velocity": 103}, {"time": 115349, "pitch": 55, "duration": 60, "velocity": 95}, {"time": 115349, "pitch": 59, "duration": 60, "velocity": 89}, {"time": 115439, "pitch": 55, "duration": 119, "velocity": 102}, {"time": 115439, "pitch": 59, "duration": 119, "velocity": 98}, {"time": 115449, "pitch": 62, "duration": 109, "velocity": 91}, {"time": 115449, "pitch": 67, "duration": 109, "velocity": 87}, {"time": 115578, "pitch": 55, "duration": 50, "velocity": 112}, {"time": 115578, "pitch": 59, "duration": 50, "velocity": 108}, {"time": 115578, "pitch": 62, "duration": 60, "velocity": 102}, {"time": 115578, "pitch": 67, "duration": 60, "velocity": 96}, {"time": 115678, "pitch": 51, "duration": 140, "velocity": 100}, {"time": 115678, "pitch": 56, "duration": 140, "velocity": 105}, {"time": 115688, "pitch": 60, "duration": 130, "velocity": 110}, {"time": 115688, "pitch": 63, "duration": 130, "velocity": 116}, {"time": 115818, "pitch": 63, "duration": 60, "velocity": 100}, {"time": 115828, "pitch": 51, "duration": 40, "velocity": 85}, {"time": 115828, "pitch": 56, "duration": 60, "velocity": 90}, {"time": 115908, "pitch": 51, "duration": 69, "velocity": 95}, {"time": 115908, "pitch": 56, "duration": 69, "velocity": 100}, {"time": 115918, "pitch": 60, "duration": 59, "velocity": 105}, {"time": 115918, "pitch": 63, "duration": 59, "velocity": 110}, {"time": 116057, "pitch": 51, "duration": 201, "velocity": 117}, {"time": 116057, "pitch": 56, "duration": 212, "velocity": 117}, {"time": 116057, "pitch": 60, "duration": 212, "velocity": 109}, {"time": 116057, "pitch": 63, "duration": 222, "velocity": 122}, {"time": 116299, "pitch": 56, "duration": 41, "velocity": 85}, {"time": 116299, "pitch": 60, "duration": 41, "velocity": 106}, {"time": 116299, "pitch": 63, "duration": 41, "velocity": 98}, {"time": 116400, "pitch": 51, "duration": 132, "velocity": 112}, {"time": 116400, "pitch": 56, "duration": 132, "velocity": 104}, {"time": 116400, "pitch": 60, "duration": 122, "velocity": 95}, {"time": 116400, "pitch": 63, "duration": 122, "velocity": 91}, {"time": 116542, "pitch": 51, "duration": 10, "velocity": 120}, {"time": 116542, "pitch": 56, "duration": 10, "velocity": 115}, {"time": 116542, "pitch": 60, "duration": 21, "velocity": 110}, {"time": 116542, "pitch": 63, "duration": 21, "velocity": 105}, {"time": 116644, "pitch": 51, "duration": 229, "velocity": 90}, {"time": 116654, "pitch": 56, "duration": 219, "velocity": 95}, {"time": 116664, "pitch": 60, "duration": 209, "velocity": 100}, {"time": 116674, "pitch": 63, "duration": 199, "velocity": 105}, {"time": 116883, "pitch": 51, "duration": 80, "velocity": 97}, {"time": 116883, "pitch": 56, "duration": 80, "velocity": 105}, {"time": 116883, "pitch": 60, "duration": 80, "velocity": 107}, {"time": 116883, "pitch": 63, "duration": 80, "velocity": 112}, {"time": 117023, "pitch": 51, "duration": 10, "velocity": 120}, {"time": 117023, "pitch": 56, "duration": 10, "velocity": 115}, {"time": 117023, "pitch": 60, "duration": 20, "velocity": 110}, {"time": 117023, "pitch": 63, "duration": 20, "velocity": 105}, {"time": 117123, "pitch": 51, "duration": 39, "velocity": 86}, {"time": 117123, "pitch": 56, "duration": 39, "velocity": 92}, {"time": 117133, "pitch": 60, "duration": 29, "velocity": 111}, {"time": 117133, "pitch": 63, "duration": 29, "velocity": 116}, {"time": 117262, "pitch": 60, "duration": 70, "velocity": 98}, {"time": 117262, "pitch": 63, "duration": 70, "velocity": 103}, {"time": 117272, "pitch": 51, "duration": 60, "velocity": 95}, {"time": 117272, "pitch": 56, "duration": 60, "velocity": 89}, {"time": 117362, "pitch": 51, "duration": 120, "velocity": 102}, {"time": 117362, "pitch": 56, "duration": 120, "velocity": 98}, {"time": 117372, "pitch": 60, "duration": 110, "velocity": 91}, {"time": 117372, "pitch": 63, "duration": 110, "velocity": 87}, {"time": 117502, "pitch": 52, "duration": 50, "velocity": 112}, {"time": 117502, "pitch": 56, "duration": 50, "velocity": 108}, {"time": 117502, "pitch": 60, "duration": 60, "velocity": 102}, {"time": 117502, "pitch": 63, "duration": 60, "velocity": 96}, {"time": 117601, "pitch": 53, "duration": 140, "velocity": 100}, {"time": 117601, "pitch": 58, "duration": 140, "velocity": 105}, {"time": 117611, "pitch": 62, "duration": 130, "velocity": 110}, {"time": 117611, "pitch": 65, "duration": 130, "velocity": 116}, {"time": 117741, "pitch": 65, "duration": 60, "velocity": 100}, {"time": 117751, "pitch": 53, "duration": 40, "velocity": 85}, {"time": 117751, "pitch": 58, "duration": 60, "velocity": 90}, {"time": 117831, "pitch": 53, "duration": 70, "velocity": 95}, {"time": 117831, "pitch": 58, "duration": 70, "velocity": 100}, {"time": 117841, "pitch": 62, "duration": 60, "velocity": 105}, {"time": 117841, "pitch": 65, "duration": 60, "velocity": 110}, {"time": 117981, "pitch": 53, "duration": 199, "velocity": 117}, {"time": 117981, "pitch": 58, "duration": 209, "velocity": 117}, {"time": 117981, "pitch": 62, "duration": 209, "velocity": 109}, {"time": 117981, "pitch": 65, "duration": 219, "velocity": 122}, {"time": 118220, "pitch": 58, "duration": 40, "velocity": 85}, {"time": 118220, "pitch": 62, "duration": 40, "velocity": 106}, {"time": 118220, "pitch": 65, "duration": 40, "velocity": 98}, {"time": 118320, "pitch": 53, "duration": 129, "velocity": 112}, {"time": 118320, "pitch": 58, "duration": 129, "velocity": 104}, {"time": 118320, "pitch": 62, "duration": 120, "velocity": 95}, {"time": 118320, "pitch": 65, "duration": 120, "velocity": 91}, {"time": 118459, "pitch": 53, "duration": 10, "velocity": 120}, {"time": 118459, "pitch": 58, "duration": 10, "velocity": 115}, {"time": 118459, "pitch": 62, "duration": 20, "velocity": 110}, {"time": 118459, "pitch": 65, "duration": 20, "velocity": 105}, {"time": 118559, "pitch": 53, "duration": 230, "velocity": 90}, {"time": 118569, "pitch": 58, "duration": 220, "velocity": 95}, {"time": 118579, "pitch": 62, "duration": 210, "velocity": 100}, {"time": 118589, "pitch": 65, "duration": 200, "velocity": 105}, {"time": 118799, "pitch": 53, "duration": 79, "velocity": 97}, {"time": 118799, "pitch": 58, "duration": 79, "velocity": 105}, {"time": 118799, "pitch": 62, "duration": 79, "velocity": 107}, {"time": 118799, "pitch": 65, "duration": 79, "velocity": 112}, {"time": 118938, "pitch": 53, "duration": 10, "velocity": 120}, {"time": 118938, "pitch": 58, "duration": 10, "velocity": 115}, {"time": 118938, "pitch": 62, "duration": 20, "velocity": 110}, {"time": 118938, "pitch": 65, "duration": 20, "velocity": 105}, {"time": 119038, "pitch": 53, "duration": 40, "velocity": 86}, {"time": 119038, "pitch": 58, "duration": 40, "velocity": 92}, {"time": 119048, "pitch": 62, "duration": 30, "velocity": 111}, {"time": 119048, "pitch": 65, "duration": 30, "velocity": 116}, {"time": 119178, "pitch": 62, "duration": 70, "velocity": 98}, {"time": 119178, "pitch": 65, "duration": 70, "velocity": 103}, {"time": 119188, "pitch": 53, "duration": 60, "velocity": 95}, {"time": 119188, "pitch": 58, "duration": 60, "velocity": 89}, {"time": 119278, "pitch": 53, "duration": 119, "velocity": 102}, {"time": 119278, "pitch": 58, "duration": 119, "velocity": 98}, {"time": 119288, "pitch": 62, "duration": 109, "velocity": 91}, {"time": 119288, "pitch": 65, "duration": 109, "velocity": 87}, {"time": 119417, "pitch": 53, "duration": 50, "velocity": 112}, {"time": 119417, "pitch": 58, "duration": 50, "velocity": 108}, {"time": 119417, "pitch": 62, "duration": 60, "velocity": 102}, {"time": 119417, "pitch": 65, "duration": 60, "velocity": 96}, {"time": 119517, "pitch": 48, "duration": 142, "velocity": 100}, {"time": 119517, "pitch": 55, "duration": 142, "velocity": 105}, {"time": 119527, "pitch": 60, "duration": 132, "velocity": 110}, {"time": 119527, "pitch": 64, "duration": 132, "velocity": 116}, {"time": 119659, "pitch": 64, "duration": 61, "velocity": 100}, {"time": 119669, "pitch": 48, "duration": 41, "velocity": 85}, {"time": 119669, "pitch": 55, "duration": 61, "velocity": 90}, {"time": 119750, "pitch": 48, "duration": 71, "velocity": 95}, {"time": 119750, "pitch": 55, "duration": 71, "velocity": 100}, {"time": 119760, "pitch": 60, "duration": 61, "velocity": 105}, {"time": 119760, "pitch": 64, "duration": 61, "velocity": 110}, {"time": 119902, "pitch": 48, "duration": 201, "velocity": 117}, {"time": 119902, "pitch": 55, "duration": 211, "velocity": 117}, {"time": 119902, "pitch": 60, "duration": 211, "velocity": 109}, {"time": 119902, "pitch": 64, "duration": 221, "velocity": 122}, {"time": 120143, "pitch": 55, "duration": 40, "velocity": 85}, {"time": 120143, "pitch": 60, "duration": 40, "velocity": 106}, {"time": 120143, "pitch": 64, "duration": 40, "velocity": 98}, {"time": 120243, "pitch": 48, "duration": 130, "velocity": 112}, {"time": 120243, "pitch": 55, "duration": 130, "velocity": 104}, {"time": 120243, "pitch": 60, "duration": 120, "velocity": 95}, {"time": 120243, "pitch": 64, "duration": 120, "velocity": 91}, {"time": 120383, "pitch": 48, "duration": 10, "velocity": 120}, {"time": 120383, "pitch": 55, "duration": 10, "velocity": 115}, {"time": 120383, "pitch": 60, "duration": 20, "velocity": 110}, {"time": 120383, "pitch": 64, "duration": 20, "velocity": 105}, {"time": 120482, "pitch": 48, "duration": 230, "velocity": 90}, {"time": 120492, "pitch": 55, "duration": 220, "velocity": 95}, {"time": 120502, "pitch": 60, "duration": 210, "velocity": 100}, {"time": 120512, "pitch": 64, "duration": 200, "velocity": 105}, {"time": 120722, "pitch": 48, "duration": 80, "velocity": 97}, {"time": 120722, "pitch": 55, "duration": 80, "velocity": 105}, {"time": 120722, "pitch": 60, "duration": 80, "velocity": 107}, {"time": 120722, "pitch": 64, "duration": 80, "velocity": 112}, {"time": 120862, "pitch": 48, "duration": 10, "velocity": 120}, {"time": 120862, "pitch": 55, "duration": 10, "velocity": 115}, {"time": 120862, "pitch": 60, "duration": 20, "velocity": 110}, {"time": 120862, "pitch": 64, "duration": 20, "velocity": 105}, {"time": 120961, "pitch": 48, "duration": 40, "velocity": 86}, {"time": 120961, "pitch": 55, "duration": 40, "velocity": 92}, {"time": 120971, "pitch": 60, "duration": 30, "velocity": 111}, {"time": 120971, "pitch": 64, "duration": 30, "velocity": 116}, {"time": 121101, "pitch": 60, "duration": 70, "velocity": 98}, {"time": 121101, "pitch": 64, "duration": 70, "velocity": 103}, {"time": 121111, "pitch": 48, "duration": 60, "velocity": 95}, {"time": 121111, "pitch": 55, "duration": 60, "velocity": 89}, {"time": 121201, "pitch": 48, "duration": 120, "velocity": 102}, {"time": 121201, "pitch": 55, "duration": 120, "velocity": 98}, {"time": 121211, "pitch": 60, "duration": 110, "velocity": 91}, {"time": 121211, "pitch": 64, "duration": 110, "velocity": 87}, {"time": 121340, "pitch": 48, "duration": 50, "velocity": 112}, {"time": 121340, "pitch": 55, "duration": 50, "velocity": 108}, {"time": 121340, "pitch": 60, "duration": 60, "velocity": 102}, {"time": 121340, "pitch": 64, "duration": 60, "velocity": 96}, {"time": 121440, "pitch": 55, "duration": 140, "velocity": 100}, {"time": 121440, "pitch": 58, "duration": 140, "velocity": 105}, {"time": 121450, "pitch": 62, "duration": 130, "velocity": 110}, {"time": 121450, "pitch": 65, "duration": 130, "velocity": 116}, {"time": 121580, "pitch": 65, "duration": 60, "velocity": 100}, {"time": 121590, "pitch": 55, "duration": 40, "velocity": 85}, {"time": 121590, "pitch": 58, "duration": 60, "velocity": 90}, {"time": 121670, "pitch": 55, "duration": 70, "velocity": 95}, {"time": 121670, "pitch": 58, "duration": 70, "velocity": 100}, {"time": 121680, "pitch": 62, "duration": 60, "velocity": 105}, {"time": 121680, "pitch": 65, "duration": 60, "velocity": 110}, {"time": 121819, "pitch": 55, "duration": 200, "velocity": 117}, {"time": 121819, "pitch": 58, "duration": 210, "velocity": 117}, {"time": 121819, "pitch": 62, "duration": 210, "velocity": 109}, {"time": 121819, "pitch": 65, "duration": 220, "velocity": 122}, {"time": 122059, "pitch": 58, "duration": 40, "velocity": 85}, {"time": 122059, "pitch": 62, "duration": 40, "velocity": 106}, {"time": 122059, "pitch": 65, "duration": 40, "velocity": 98}, {"time": 122159, "pitch": 55, "duration": 129, "velocity": 112}, {"time": 122159, "pitch": 58, "duration": 129, "velocity": 104}, {"time": 122159, "pitch": 62, "duration": 119, "velocity": 95}, {"time": 122159, "pitch": 65, "duration": 119, "velocity": 91}, {"time": 122298, "pitch": 55, "duration": 10, "velocity": 120}, {"time": 122298, "pitch": 58, "duration": 10, "velocity": 115}, {"time": 122298, "pitch": 62, "duration": 20, "velocity": 110}, {"time": 122298, "pitch": 65, "duration": 20, "velocity": 105}, {"time": 122398, "pitch": 48, "duration": 229, "velocity": 90}, {"time": 122408, "pitch": 58, "duration": 219, "velocity": 95}, {"time": 122418, "pitch": 62, "duration": 209, "velocity": 100}, {"time": 122428, "pitch": 65, "duration": 199, "velocity": 105}, {"time": 122637, "pitch": 48, "duration": 80, "velocity": 97}, {"time": 122637, "pitch": 58, "duration": 80, "velocity": 105}, {"time": 122637, "pitch": 62, "duration": 80, "velocity": 107}, {"time": 122637, "pitch": 65, "duration": 80, "velocity": 112}, {"time": 122777, "pitch": 48, "duration": 10, "velocity": 120}, {"time": 122777, "pitch": 58, "duration": 10, "velocity": 115}, {"time": 122777, "pitch": 62, "duration": 20, "velocity": 110}, {"time": 122777, "pitch": 65, "duration": 20, "velocity": 105}, {"time": 122877, "pitch": 55, "duration": 40, "velocity": 86}, {"time": 122877, "pitch": 58, "duration": 40, "velocity": 92}, {"time": 122887, "pitch": 62, "duration": 30, "velocity": 111}, {"time": 122887, "pitch": 67, "duration": 30, "velocity": 116}, {"time": 123019, "pitch": 62, "duration": 71, "velocity": 98}, {"time": 123019, "pitch": 67, "duration": 71, "velocity": 103}, {"time": 123029, "pitch": 55, "duration": 61, "velocity": 95}, {"time": 123029, "pitch": 58, "duration": 61, "velocity": 89}, {"time": 123120, "pitch": 55, "duration": 122, "velocity": 102}, {"time": 123120, "pitch": 58, "duration": 122, "velocity": 98}, {"time": 123130, "pitch": 62, "duration": 112, "velocity": 91}, {"time": 123130, "pitch": 67, "duration": 112, "velocity": 87}, {"time": 123262, "pitch": 55, "duration": 51, "velocity": 112}, {"time": 123262, "pitch": 58, "duration": 51, "velocity": 108}, {"time": 123262, "pitch": 62, "duration": 61, "velocity": 102}, {"time": 123262, "pitch": 67, "duration": 61, "velocity": 96}, {"time": 123364, "pitch": 53, "duration": 139, "velocity": 100}, {"time": 123364, "pitch": 57, "duration": 139, "velocity": 105}, {"time": 123374, "pitch": 60, "duration": 129, "velocity": 110}, {"time": 123374, "pitch": 64, "duration": 129, "velocity": 116}, {"time": 123503, "pitch": 64, "duration": 60, "velocity": 100}, {"time": 123513, "pitch": 53, "duration": 40, "velocity": 85}, {"time": 123513, "pitch": 57, "duration": 60, "velocity": 90}, {"time": 123593, "pitch": 53, "duration": 70, "velocity": 95}, {"time": 123593, "pitch": 57, "duration": 70, "velocity": 100}, {"time": 123603, "pitch": 60, "duration": 60, "velocity": 105}, {"time": 123603, "pitch": 64, "duration": 60, "velocity": 110}, {"time": 123743, "pitch": 53, "duration": 199, "velocity": 117}, {"time": 123743, "pitch": 57, "duration": 209, "velocity": 117}, {"time": 123743, "pitch": 60, "duration": 209, "velocity": 109}, {"time": 123743, "pitch": 64, "duration": 219, "velocity": 122}, {"time": 123982, "pitch": 57, "duration": 40, "velocity": 85}, {"time": 123982, "pitch": 60, "duration": 40, "velocity": 106}, {"time": 123982, "pitch": 64, "duration": 40, "velocity": 98}, {"time": 124082, "pitch": 53, "duration": 130, "velocity": 112}, {"time": 124082, "pitch": 57, "duration": 130, "velocity": 104}, {"time": 124082, "pitch": 60, "duration": 120, "velocity": 95}, {"time": 124082, "pitch": 64, "duration": 120, "velocity": 91}, {"time": 124222, "pitch": 53, "duration": 10, "velocity": 120}, {"time": 124222, "pitch": 57, "duration": 10, "velocity": 115}, {"time": 124222, "pitch": 60, "duration": 19, "velocity": 110}, {"time": 124222, "pitch": 64, "duration": 19, "velocity": 105}, {"time": 124321, "pitch": 53, "duration": 230, "velocity": 90}, {"time": 124331, "pitch": 57, "duration": 220, "velocity": 95}, {"time": 124341, "pitch": 60, "duration": 210, "velocity": 100}, {"time": 124351, "pitch": 64, "duration": 200, "velocity": 105}, {"time": 124561, "pitch": 53, "duration": 80, "velocity": 97}, {"time": 124561, "pitch": 57, "duration": 80, "velocity": 105}, {"time": 124561, "pitch": 60, "duration": 80, "velocity": 107}, {"time": 124561, "pitch": 64, "duration": 80, "velocity": 112}, {"time": 124700, "pitch": 53, "duration": 10, "velocity": 120}, {"time": 124700, "pitch": 57, "duration": 10, "velocity": 115}, {"time": 124700, "pitch": 60, "duration": 20, "velocity": 110}, {"time": 124700, "pitch": 64, "duration": 20, "velocity": 105}, {"time": 124800, "pitch": 53, "duration": 40, "velocity": 86}, {"time": 124800, "pitch": 57, "duration": 40, "velocity": 92}, {"time": 124810, "pitch": 60, "duration": 30, "velocity": 111}, {"time": 124810, "pitch": 64, "duration": 30, "velocity": 116}, {"time": 124940, "pitch": 60, "duration": 70, "velocity": 98}, {"time": 124940, "pitch": 64, "duration": 70, "velocity": 103}, {"time": 124950, "pitch": 53, "duration": 60, "velocity": 95}, {"time": 124950, "pitch": 57, "duration": 60, "velocity": 89}, {"time": 125040, "pitch": 53, "duration": 119, "velocity": 102}, {"time": 125040, "pitch": 57, "duration": 119, "velocity": 98}, {"time": 125050, "pitch": 60, "duration": 109, "velocity": 91}, {"time": 125050, "pitch": 64, "duration": 109, "velocity": 87}, {"time": 125179, "pitch": 53, "duration": 50, "velocity": 112}, {"time": 125179, "pitch": 57, "duration": 50, "velocity": 108}, {"time": 125179, "pitch": 60, "duration": 60, "velocity": 102}, {"time": 125179, "pitch": 64, "duration": 60, "velocity": 96}, {"time": 125279, "pitch": 53, "duration": 140, "velocity": 100}, {"time": 125279, "pitch": 56, "duration": 140, "velocity": 105}, {"time": 125289, "pitch": 60, "duration": 130, "velocity": 110}, {"time": 125289, "pitch": 63, "duration": 130, "velocity": 116}, {"time": 125419, "pitch": 63, "duration": 60, "velocity": 100}, {"time": 125429, "pitch": 53, "duration": 40, "velocity": 85}, {"time": 125429, "pitch": 56, "duration": 60, "velocity": 90}, {"time": 125509, "pitch": 53, "duration": 69, "velocity": 95}, {"time": 125509, "pitch": 56, "duration": 69, "velocity": 100}, {"time": 125518, "pitch": 60, "duration": 60, "velocity": 105}, {"time": 125518, "pitch": 63, "duration": 60, "velocity": 110}, {"time": 125658, "pitch": 53, "duration": 200, "velocity": 117}, {"time": 125658, "pitch": 56, "duration": 210, "velocity": 117}, {"time": 125658, "pitch": 60, "duration": 210, "velocity": 109}, {"time": 125658, "pitch": 63, "duration": 220, "velocity": 122}, {"time": 125898, "pitch": 56, "duration": 40, "velocity": 85}, {"time": 125898, "pitch": 60, "duration": 40, "velocity": 106}, {"time": 125898, "pitch": 63, "duration": 40, "velocity": 98}, {"time": 125997, "pitch": 53, "duration": 130, "velocity": 117}, {"time": 125997, "pitch": 56, "duration": 210, "velocity": 117}, {"time": 125997, "pitch": 60, "duration": 210, "velocity": 109}, {"time": 125997, "pitch": 63, "duration": 220, "velocity": 122}, {"time": 126237, "pitch": 53, "duration": 233, "velocity": 90}, {"time": 126247, "pitch": 56, "duration": 223, "velocity": 95}, {"time": 126257, "pitch": 60, "duration": 213, "velocity": 100}, {"time": 126267, "pitch": 63, "duration": 203, "velocity": 105}, {"time": 126480, "pitch": 53, "duration": 81, "velocity": 97}, {"time": 126480, "pitch": 56, "duration": 81, "velocity": 105}, {"time": 126480, "pitch": 60, "duration": 81, "velocity": 107}, {"time": 126480, "pitch": 63, "duration": 81, "velocity": 112}, {"time": 126723, "pitch": 53, "duration": 40, "velocity": 86}, {"time": 126723, "pitch": 56, "duration": 40, "velocity": 92}, {"time": 126733, "pitch": 60, "duration": 30, "velocity": 111}, {"time": 126733, "pitch": 63, "duration": 30, "velocity": 116}, {"time": 126863, "pitch": 60, "duration": 70, "velocity": 98}, {"time": 126863, "pitch": 63, "duration": 70, "velocity": 103}, {"time": 126873, "pitch": 53, "duration": 60, "velocity": 95}, {"time": 126873, "pitch": 56, "duration": 60, "velocity": 89}, {"time": 126963, "pitch": 53, "duration": 120, "velocity": 102}, {"time": 126963, "pitch": 56, "duration": 120, "velocity": 98}, {"time": 126973, "pitch": 60, "duration": 110, "velocity": 91}, {"time": 126973, "pitch": 63, "duration": 110, "velocity": 87}, {"time": 127103, "pitch": 53, "duration": 49, "velocity": 112}, {"time": 127103, "pitch": 56, "duration": 49, "velocity": 108}, {"time": 127103, "pitch": 60, "duration": 59, "velocity": 102}, {"time": 127103, "pitch": 63, "duration": 59, "velocity": 96}, {"time": 127202, "pitch": 52, "duration": 140, "velocity": 100}, {"time": 127202, "pitch": 55, "duration": 140, "velocity": 105}, {"time": 127212, "pitch": 59, "duration": 130, "velocity": 110}, {"time": 127212, "pitch": 62, "duration": 130, "velocity": 116}, {"time": 127342, "pitch": 62, "duration": 60, "velocity": 100}, {"time": 127352, "pitch": 52, "duration": 40, "velocity": 85}, {"time": 127352, "pitch": 55, "duration": 60, "velocity": 90}, {"time": 127432, "pitch": 52, "duration": 70, "velocity": 95}, {"time": 127432, "pitch": 55, "duration": 70, "velocity": 100}, {"time": 127442, "pitch": 59, "duration": 60, "velocity": 105}, {"time": 127442, "pitch": 62, "duration": 60, "velocity": 110}, {"time": 127581, "pitch": 52, "duration": 200, "velocity": 117}, {"time": 127581, "pitch": 55, "duration": 210, "velocity": 117}, {"time": 127581, "pitch": 59, "duration": 210, "velocity": 109}, {"time": 127581, "pitch": 62, "duration": 220, "velocity": 122}, {"time": 127821, "pitch": 55, "duration": 40, "velocity": 85}, {"time": 127821, "pitch": 59, "duration": 40, "velocity": 106}, {"time": 127821, "pitch": 62, "duration": 40, "velocity": 98}, {"time": 127921, "pitch": 57, "duration": 129, "velocity": 112}, {"time": 127921, "pitch": 61, "duration": 129, "velocity": 104}, {"time": 127921, "pitch": 67, "duration": 119, "velocity": 95}, {"time": 127921, "pitch": 72, "duration": 119, "velocity": 91}, {"time": 128060, "pitch": 57, "duration": 10, "velocity": 120}, {"time": 128060, "pitch": 61, "duration": 10, "velocity": 115}, {"time": 128060, "pitch": 67, "duration": 20, "velocity": 110}, {"time": 128060, "pitch": 72, "duration": 20, "velocity": 105}, {"time": 128160, "pitch": 57, "duration": 230, "velocity": 90}, {"time": 128170, "pitch": 61, "duration": 220, "velocity": 95}, {"time": 128180, "pitch": 67, "duration": 210, "velocity": 100}, {"time": 128190, "pitch": 72, "duration": 200, "velocity": 105}, {"time": 128400, "pitch": 57, "duration": 79, "velocity": 97}, {"time": 128400, "pitch": 61, "duration": 79, "velocity": 105}, {"time": 128400, "pitch": 67, "duration": 79, "velocity": 107}, {"time": 128400, "pitch": 72, "duration": 79, "velocity": 112}, {"time": 128539, "pitch": 57, "duration": 10, "velocity": 120}, {"time": 128539, "pitch": 61, "duration": 10, "velocity": 115}, {"time": 128539, "pitch": 67, "duration": 20, "velocity": 110}, {"time": 128539, "pitch": 72, "duration": 20, "velocity": 105}, {"time": 128639, "pitch": 57, "duration": 40, "velocity": 86}, {"time": 128639, "pitch": 61, "duration": 40, "velocity": 92}, {"time": 128649, "pitch": 67, "duration": 30, "velocity": 111}, {"time": 128649, "pitch": 72, "duration": 30, "velocity": 116}, {"time": 128779, "pitch": 67, "duration": 69, "velocity": 98}, {"time": 128779, "pitch": 72, "duration": 69, "velocity": 103}, {"time": 128789, "pitch": 57, "duration": 59, "velocity": 95}, {"time": 128789, "pitch": 61, "duration": 59, "velocity": 89}, {"time": 128878, "pitch": 57, "duration": 120, "velocity": 102}, {"time": 128878, "pitch": 61, "duration": 120, "velocity": 98}, {"time": 128888, "pitch": 67, "duration": 110, "velocity": 91}, {"time": 128888, "pitch": 72, "duration": 110, "velocity": 87}, {"time": 129018, "pitch": 57, "duration": 50, "velocity": 112}, {"time": 129018, "pitch": 61, "duration": 50, "velocity": 108}, {"time": 129018, "pitch": 67, "duration": 60, "velocity": 102}, {"time": 129018, "pitch": 72, "duration": 60, "velocity": 96}, {"time": 129118, "pitch": 50, "duration": 140, "velocity": 100}, {"time": 129118, "pitch": 57, "duration": 140, "velocity": 105}, {"time": 129128, "pitch": 60, "duration": 130, "velocity": 110}, {"time": 129128, "pitch": 65, "duration": 130, "velocity": 116}, {"time": 129258, "pitch": 65, "duration": 59, "velocity": 100}, {"time": 129268, "pitch": 50, "duration": 39, "velocity": 85}, {"time": 129268, "pitch": 57, "duration": 59, "velocity": 90}, {"time": 129347, "pitch": 50, "duration": 70, "velocity": 95}, {"time": 129347, "pitch": 57, "duration": 70, "velocity": 100}, {"time": 129357, "pitch": 60, "duration": 60, "velocity": 105}, {"time": 129357, "pitch": 65, "duration": 60, "velocity": 110}, {"time": 129497, "pitch": 50, "duration": 201, "velocity": 117}, {"time": 129497, "pitch": 57, "duration": 211, "velocity": 117}, {"time": 129497, "pitch": 60, "duration": 211, "velocity": 109}, {"time": 129497, "pitch": 65, "duration": 221, "velocity": 122}, {"time": 129739, "pitch": 57, "duration": 40, "velocity": 85}, {"time": 129739, "pitch": 60, "duration": 40, "velocity": 106}, {"time": 129739, "pitch": 65, "duration": 40, "velocity": 98}, {"time": 129840, "pitch": 50, "duration": 132, "velocity": 112}, {"time": 129840, "pitch": 57, "duration": 132, "velocity": 104}, {"time": 129840, "pitch": 60, "duration": 122, "velocity": 95}, {"time": 129840, "pitch": 65, "duration": 122, "velocity": 91}, {"time": 129982, "pitch": 50, "duration": 10, "velocity": 120}, {"time": 129982, "pitch": 57, "duration": 10, "velocity": 115}, {"time": 129982, "pitch": 60, "duration": 20, "velocity": 110}, {"time": 129982, "pitch": 65, "duration": 20, "velocity": 105}, {"time": 130083, "pitch": 50, "duration": 230, "velocity": 90}, {"time": 130093, "pitch": 57, "duration": 220, "velocity": 95}, {"time": 130103, "pitch": 60, "duration": 210, "velocity": 100}, {"time": 130113, "pitch": 65, "duration": 200, "velocity": 105}, {"time": 130323, "pitch": 50, "duration": 80, "velocity": 97}, {"time": 130323, "pitch": 57, "duration": 80, "velocity": 105}, {"time": 130323, "pitch": 60, "duration": 80, "velocity": 107}, {"time": 130323, "pitch": 65, "duration": 80, "velocity": 112}, {"time": 130462, "pitch": 50, "duration": 10, "velocity": 120}, {"time": 130462, "pitch": 57, "duration": 10, "velocity": 115}, {"time": 130462, "pitch": 60, "duration": 20, "velocity": 110}, {"time": 130462, "pitch": 65, "duration": 20, "velocity": 105}, {"time": 130562, "pitch": 50, "duration": 40, "velocity": 86}, {"time": 130562, "pitch": 57, "duration": 40, "velocity": 92}, {"time": 130572, "pitch": 60, "duration": 30, "velocity": 111}, {"time": 130572, "pitch": 65, "duration": 30, "velocity": 116}, {"time": 130702, "pitch": 60, "duration": 70, "velocity": 98}, {"time": 130702, "pitch": 65, "duration": 70, "velocity": 103}, {"time": 130712, "pitch": 50, "duration": 60, "velocity": 95}, {"time": 130712, "pitch": 57, "duration": 60, "velocity": 89}, {"time": 130802, "pitch": 50, "duration": 119, "velocity": 102}, {"time": 130802, "pitch": 57, "duration": 119, "velocity": 98}, {"time": 130812, "pitch": 60, "duration": 109, "velocity": 91}, {"time": 130812, "pitch": 65, "duration": 109, "velocity": 87}, {"time": 130941, "pitch": 50, "duration": 50, "velocity": 112}, {"time": 130941, "pitch": 57, "duration": 50, "velocity": 108}, {"time": 130941, "pitch": 60, "duration": 60, "velocity": 102}, {"time": 130941, "pitch": 65, "duration": 60, "velocity": 96}, {"time": 131041, "pitch": 53, "duration": 140, "velocity": 100}, {"time": 131041, "pitch": 56, "duration": 140, "velocity": 105}, {"time": 131051, "pitch": 60, "duration": 130, "velocity": 110}, {"time": 131051, "pitch": 65, "duration": 130, "velocity": 116}, {"time": 131181, "pitch": 65, "duration": 60, "velocity": 100}, {"time": 131191, "pitch": 53, "duration": 40, "velocity": 85}, {"time": 131191, "pitch": 56, "duration": 60, "velocity": 90}, {"time": 131271, "pitch": 53, "duration": 69, "velocity": 95}, {"time": 131271, "pitch": 56, "duration": 69, "velocity": 100}, {"time": 131281, "pitch": 60, "duration": 59, "velocity": 105}, {"time": 131281, "pitch": 65, "duration": 59, "velocity": 110}, {"time": 131420, "pitch": 53, "duration": 200, "velocity": 117}, {"time": 131420, "pitch": 56, "duration": 210, "velocity": 117}, {"time": 131420, "pitch": 60, "duration": 210, "velocity": 109}, {"time": 131420, "pitch": 65, "duration": 220, "velocity": 122}, {"time": 131660, "pitch": 56, "duration": 40, "velocity": 85}, {"time": 131660, "pitch": 60, "duration": 40, "velocity": 106}, {"time": 131660, "pitch": 65, "duration": 40, "velocity": 98}, {"time": 131759, "pitch": 53, "duration": 130, "velocity": 112}, {"time": 131759, "pitch": 56, "duration": 130, "velocity": 104}, {"time": 131759, "pitch": 60, "duration": 120, "velocity": 95}, {"time": 131759, "pitch": 65, "duration": 120, "velocity": 91}, {"time": 131899, "pitch": 53, "duration": 10, "velocity": 120}, {"time": 131899, "pitch": 56, "duration": 10, "velocity": 115}, {"time": 131899, "pitch": 60, "duration": 20, "velocity": 110}, {"time": 131899, "pitch": 65, "duration": 20, "velocity": 105}, {"time": 131999, "pitch": 53, "duration": 229, "velocity": 90}, {"time": 132009, "pitch": 56, "duration": 219, "velocity": 95}, {"time": 132019, "pitch": 60, "duration": 209, "velocity": 100}, {"time": 132029, "pitch": 65, "duration": 199, "velocity": 105}, {"time": 132238, "pitch": 53, "duration": 80, "velocity": 97}, {"time": 132238, "pitch": 56, "duration": 80, "velocity": 105}, {"time": 132238, "pitch": 60, "duration": 80, "velocity": 107}, {"time": 132238, "pitch": 65, "duration": 80, "velocity": 112}, {"time": 132378, "pitch": 53, "duration": 10, "velocity": 120}, {"time": 132378, "pitch": 56, "duration": 10, "velocity": 115}, {"time": 132378, "pitch": 60, "duration": 20, "velocity": 110}, {"time": 132378, "pitch": 65, "duration": 20, "velocity": 105}, {"time": 132478, "pitch": 53, "duration": 40, "velocity": 86}, {"time": 132478, "pitch": 56, "duration": 40, "velocity": 92}, {"time": 132488, "pitch": 60, "duration": 30, "velocity": 111}, {"time": 132488, "pitch": 65, "duration": 30, "velocity": 116}, {"time": 132617, "pitch": 60, "duration": 70, "velocity": 98}, {"time": 132617, "pitch": 65, "duration": 70, "velocity": 103}, {"time": 132627, "pitch": 53, "duration": 60, "velocity": 95}, {"time": 132627, "pitch": 56, "duration": 60, "velocity": 89}, {"time": 132717, "pitch": 53, "duration": 120, "velocity": 102}, {"time": 132717, "pitch": 56, "duration": 120, "velocity": 98}, {"time": 132727, "pitch": 60, "duration": 110, "velocity": 91}, {"time": 132727, "pitch": 65, "duration": 110, "velocity": 87}, {"time": 132857, "pitch": 53, "duration": 50, "velocity": 112}, {"time": 132857, "pitch": 56, "duration": 50, "velocity": 108}, {"time": 132857, "pitch": 60, "duration": 60, "velocity": 102}, {"time": 132857, "pitch": 65, "duration": 60, "velocity": 96}, {"time": 132957, "pitch": 50, "duration": 142, "velocity": 100}, {"time": 132957, "pitch": 55, "duration": 142, "velocity": 105}, {"time": 132967, "pitch": 60, "duration": 132, "velocity": 110}, {"time": 132967, "pitch": 62, "duration": 132, "velocity": 116}, {"time": 133099, "pitch": 62, "duration": 60, "velocity": 100}, {"time": 133109, "pitch": 50, "duration": 40, "velocity": 85}, {"time": 133109, "pitch": 55, "duration": 61, "velocity": 90}, {"time": 133190, "pitch": 50, "duration": 71, "velocity": 95}, {"time": 133190, "pitch": 55, "duration": 71, "velocity": 100}, {"time": 133200, "pitch": 60, "duration": 61, "velocity": 105}, {"time": 133200, "pitch": 62, "duration": 61, "velocity": 110}, {"time": 133342, "pitch": 50, "duration": 201, "velocity": 117}, {"time": 133342, "pitch": 55, "duration": 211, "velocity": 117}, {"time": 133342, "pitch": 60, "duration": 211, "velocity": 109}, {"time": 133342, "pitch": 62, "duration": 221, "velocity": 122}, {"time": 133583, "pitch": 55, "duration": 40, "velocity": 85}, {"time": 133583, "pitch": 60, "duration": 40, "velocity": 106}, {"time": 133583, "pitch": 62, "duration": 40, "velocity": 98}, {"time": 133683, "pitch": 50, "duration": 129, "velocity": 112}, {"time": 133683, "pitch": 55, "duration": 129, "velocity": 104}, {"time": 133683, "pitch": 60, "duration": 119, "velocity": 95}, {"time": 133683, "pitch": 62, "duration": 119, "velocity": 91}, {"time": 133822, "pitch": 50, "duration": 10, "velocity": 120}, {"time": 133822, "pitch": 55, "duration": 10, "velocity": 115}, {"time": 133822, "pitch": 60, "duration": 20, "velocity": 110}, {"time": 133822, "pitch": 62, "duration": 20, "velocity": 105}, {"time": 133922, "pitch": 50, "duration": 230, "velocity": 90}, {"time": 133932, "pitch": 55, "duration": 220, "velocity": 95}, {"time": 133942, "pitch": 60, "duration": 210, "velocity": 100}, {"time": 133952, "pitch": 62, "duration": 200, "velocity": 105}, {"time": 134162, "pitch": 50, "duration": 79, "velocity": 97}, {"time": 134162, "pitch": 55, "duration": 79, "velocity": 105}, {"time": 134162, "pitch": 60, "duration": 79, "velocity": 107}, {"time": 134162, "pitch": 62, "duration": 79, "velocity": 112}, {"time": 134301, "pitch": 50, "duration": 10, "velocity": 120}, {"time": 134301, "pitch": 55, "duration": 10, "velocity": 115}, {"time": 134301, "pitch": 60, "duration": 20, "velocity": 110}, {"time": 134301, "pitch": 62, "duration": 20, "velocity": 105}, {"time": 134401, "pitch": 50, "duration": 40, "velocity": 86}, {"time": 134401, "pitch": 55, "duration": 40, "velocity": 92}, {"time": 134411, "pitch": 60, "duration": 30, "velocity": 111}, {"time": 134411, "pitch": 62, "duration": 30, "velocity": 116}, {"time": 134541, "pitch": 60, "duration": 70, "velocity": 98}, {"time": 134541, "pitch": 62, "duration": 70, "velocity": 103}, {"time": 134551, "pitch": 50, "duration": 60, "velocity": 95}, {"time": 134551, "pitch": 55, "duration": 60, "velocity": 89}, {"time": 134640, "pitch": 50, "duration": 120, "velocity": 102}, {"time": 134640, "pitch": 55, "duration": 120, "velocity": 98}, {"time": 134650, "pitch": 60, "duration": 110, "velocity": 91}, {"time": 134650, "pitch": 62, "duration": 110, "velocity": 87}, {"time": 134780, "pitch": 50, "duration": 50, "velocity": 112}, {"time": 134780, "pitch": 55, "duration": 50, "velocity": 108}, {"time": 134780, "pitch": 60, "duration": 60, "velocity": 102}, {"time": 134780, "pitch": 62, "duration": 60, "velocity": 96}, {"time": 134880, "pitch": 50, "duration": 140, "velocity": 100}, {"time": 134880, "pitch": 55, "duration": 140, "velocity": 105}, {"time": 134890, "pitch": 59, "duration": 130, "velocity": 110}, {"time": 134890, "pitch": 62, "duration": 130, "velocity": 116}, {"time": 134890, "pitch": 67, "duration": 60, "velocity": 100}, {"time": 136803, "pitch": 48, "duration": 140, "velocity": 100}, {"time": 136803, "pitch": 55, "duration": 140, "velocity": 105}, {"time": 136813, "pitch": 60, "duration": 130, "velocity": 110}, {"time": 136813, "pitch": 64, "duration": 130, "velocity": 116}, {"time": 136943, "pitch": 64, "duration": 60, "velocity": 100}, {"time": 136953, "pitch": 48, "duration": 40, "velocity": 85}, {"time": 136953, "pitch": 55, "duration": 60, "velocity": 90}, {"time": 137033, "pitch": 48, "duration": 69, "velocity": 95}, {"time": 137033, "pitch": 55, "duration": 69, "velocity": 100}, {"time": 137043, "pitch": 60, "duration": 59, "velocity": 105}, {"time": 137043, "pitch": 64, "duration": 59, "velocity": 110}, {"time": 137182, "pitch": 48, "duration": 200, "velocity": 117}, {"time": 137182, "pitch": 55, "duration": 210, "velocity": 117}, {"time": 137182, "pitch": 60, "duration": 210, "velocity": 109}, {"time": 137182, "pitch": 64, "duration": 220, "velocity": 122}, {"time": 137422, "pitch": 55, "duration": 40, "velocity": 85}, {"time": 137422, "pitch": 60, "duration": 40, "velocity": 106}, {"time": 137422, "pitch": 64, "duration": 40, "velocity": 98}, {"time": 137522, "pitch": 48, "duration": 129, "velocity": 112}, {"time": 137522, "pitch": 55, "duration": 129, "velocity": 104}, {"time": 137522, "pitch": 60, "duration": 119, "velocity": 95}, {"time": 137522, "pitch": 64, "duration": 119, "velocity": 91}, {"time": 137661, "pitch": 48, "duration": 10, "velocity": 120}, {"time": 137661, "pitch": 55, "duration": 10, "velocity": 115}, {"time": 137661, "pitch": 60, "duration": 20, "velocity": 110}, {"time": 137661, "pitch": 64, "duration": 20, "velocity": 105}, {"time": 137761, "pitch": 48, "duration": 229, "velocity": 90}, {"time": 137771, "pitch": 55, "duration": 219, "velocity": 95}, {"time": 137781, "pitch": 60, "duration": 209, "velocity": 100}, {"time": 137791, "pitch": 64, "duration": 199, "velocity": 105}, {"time": 138000, "pitch": 48, "duration": 80, "velocity": 97}, {"time": 138000, "pitch": 55, "duration": 80, "velocity": 105}, {"time": 138000, "pitch": 60, "duration": 80, "velocity": 107}, {"time": 138000, "pitch": 64, "duration": 80, "velocity": 112}, {"time": 138140, "pitch": 48, "duration": 10, "velocity": 120}, {"time": 138140, "pitch": 55, "duration": 10, "velocity": 115}, {"time": 138140, "pitch": 60, "duration": 20, "velocity": 110}, {"time": 138140, "pitch": 64, "duration": 20, "velocity": 105}, {"time": 138240, "pitch": 48, "duration": 40, "velocity": 86}, {"time": 138240, "pitch": 55, "duration": 40, "velocity": 92}, {"time": 138250, "pitch": 60, "duration": 30, "velocity": 111}, {"time": 138250, "pitch": 64, "duration": 30, "velocity": 116}, {"time": 138380, "pitch": 60, "duration": 69, "velocity": 98}, {"time": 138380, "pitch": 64, "duration": 69, "velocity": 103}, {"time": 138389, "pitch": 48, "duration": 60, "velocity": 95}, {"time": 138389, "pitch": 55, "duration": 60, "velocity": 89}, {"time": 138479, "pitch": 48, "duration": 120, "velocity": 102}, {"time": 138479, "pitch": 55, "duration": 120, "velocity": 98}, {"time": 138489, "pitch": 60, "duration": 110, "velocity": 91}, {"time": 138489, "pitch": 64, "duration": 110, "velocity": 87}, {"time": 138619, "pitch": 48, "duration": 50, "velocity": 112}, {"time": 138619, "pitch": 55, "duration": 50, "velocity": 108}, {"time": 138619, "pitch": 60, "duration": 60, "velocity": 102}, {"time": 138619, "pitch": 64, "duration": 60, "velocity": 96}, {"time": 138719, "pitch": 52, "duration": 139, "velocity": 100}, {"time": 138719, "pitch": 55, "duration": 139, "velocity": 105}, {"time": 138729, "pitch": 59, "duration": 129, "velocity": 110}, {"time": 138729, "pitch": 64, "duration": 129, "velocity": 116}, {"time": 138858, "pitch": 64, "duration": 60, "velocity": 100}, {"time": 138868, "pitch": 52, "duration": 40, "velocity": 85}, {"time": 138868, "pitch": 55, "duration": 60, "velocity": 90}, {"time": 138948, "pitch": 52, "duration": 70, "velocity": 95}, {"time": 138948, "pitch": 55, "duration": 70, "velocity": 100}, {"time": 138958, "pitch": 59, "duration": 60, "velocity": 105}, {"time": 138958, "pitch": 64, "duration": 60, "velocity": 110}, {"time": 139098, "pitch": 52, "duration": 199, "velocity": 117}, {"time": 139098, "pitch": 55, "duration": 209, "velocity": 117}, {"time": 139098, "pitch": 59, "duration": 209, "velocity": 109}, {"time": 139098, "pitch": 64, "duration": 219, "velocity": 122}, {"time": 139337, "pitch": 55, "duration": 40, "velocity": 85}, {"time": 139337, "pitch": 59, "duration": 40, "velocity": 106}, {"time": 139337, "pitch": 64, "duration": 40, "velocity": 98}, {"time": 139437, "pitch": 52, "duration": 130, "velocity": 112}, {"time": 139437, "pitch": 55, "duration": 130, "velocity": 104}, {"time": 139437, "pitch": 59, "duration": 120, "velocity": 95}, {"time": 139437, "pitch": 64, "duration": 120, "velocity": 91}, {"time": 139577, "pitch": 52, "duration": 10, "velocity": 120}, {"time": 139577, "pitch": 55, "duration": 10, "velocity": 115}, {"time": 139577, "pitch": 59, "duration": 20, "velocity": 110}, {"time": 139577, "pitch": 64, "duration": 20, "velocity": 105}, {"time": 139676, "pitch": 52, "duration": 234, "velocity": 90}, {"time": 139687, "pitch": 55, "duration": 223, "velocity": 95}, {"time": 139697, "pitch": 59, "duration": 213, "velocity": 100}, {"time": 139707, "pitch": 64, "duration": 203, "velocity": 105}, {"time": 139920, "pitch": 52, "duration": 81, "velocity": 97}, {"time": 139920, "pitch": 55, "duration": 81, "velocity": 105}, {"time": 139920, "pitch": 59, "duration": 81, "velocity": 107}, {"time": 139920, "pitch": 64, "duration": 81, "velocity": 112}, {"time": 140062, "pitch": 52, "duration": 10, "velocity": 120}, {"time": 140062, "pitch": 55, "duration": 10, "velocity": 115}, {"time": 140062, "pitch": 59, "duration": 20, "velocity": 110}, {"time": 140062, "pitch": 64, "duration": 20, "velocity": 105}, {"time": 140163, "pitch": 52, "duration": 40, "velocity": 86}, {"time": 140163, "pitch": 55, "duration": 40, "velocity": 92}, {"time": 140173, "pitch": 59, "duration": 30, "velocity": 111}, {"time": 140173, "pitch": 64, "duration": 30, "velocity": 116}, {"time": 140303, "pitch": 59, "duration": 70, "velocity": 98}, {"time": 140303, "pitch": 64, "duration": 70, "velocity": 103}, {"time": 140313, "pitch": 52, "duration": 60, "velocity": 95}, {"time": 140313, "pitch": 55, "duration": 60, "velocity": 89}, {"time": 140403, "pitch": 52, "duration": 119, "velocity": 102}, {"time": 140403, "pitch": 55, "duration": 119, "velocity": 98}, {"time": 140413, "pitch": 59, "duration": 109, "velocity": 91}, {"time": 140413, "pitch": 64, "duration": 109, "velocity": 87}, {"time": 140542, "pitch": 52, "duration": 50, "velocity": 112}, {"time": 140542, "pitch": 55, "duration": 50, "velocity": 108}, {"time": 140542, "pitch": 59, "duration": 60, "velocity": 102}, {"time": 140542, "pitch": 64, "duration": 60, "velocity": 96}, {"time": 140642, "pitch": 52, "duration": 140, "velocity": 100}, {"time": 140642, "pitch": 57, "duration": 140, "velocity": 105}, {"time": 140652, "pitch": 60, "duration": 130, "velocity": 110}, {"time": 140652, "pitch": 64, "duration": 130, "velocity": 116}, {"time": 140782, "pitch": 64, "duration": 60, "velocity": 100}, {"time": 140792, "pitch": 52, "duration": 40, "velocity": 85}, {"time": 140792, "pitch": 57, "duration": 60, "velocity": 90}, {"time": 140871, "pitch": 52, "duration": 70, "velocity": 95}, {"time": 140871, "pitch": 57, "duration": 70, "velocity": 100}, {"time": 140881, "pitch": 60, "duration": 60, "velocity": 105}, {"time": 140881, "pitch": 64, "duration": 60, "velocity": 110}, {"time": 141021, "pitch": 52, "duration": 200, "velocity": 117}, {"time": 141021, "pitch": 57, "duration": 210, "velocity": 117}, {"time": 141021, "pitch": 60, "duration": 210, "velocity": 109}, {"time": 141021, "pitch": 64, "duration": 220, "velocity": 122}, {"time": 141261, "pitch": 57, "duration": 39, "velocity": 85}, {"time": 141261, "pitch": 60, "duration": 39, "velocity": 106}, {"time": 141261, "pitch": 64, "duration": 39, "velocity": 98}, {"time": 141360, "pitch": 52, "duration": 130, "velocity": 112}, {"time": 141360, "pitch": 57, "duration": 130, "velocity": 104}, {"time": 141360, "pitch": 60, "duration": 120, "velocity": 95}, {"time": 141360, "pitch": 64, "duration": 120, "velocity": 91}, {"time": 141500, "pitch": 52, "duration": 10, "velocity": 120}, {"time": 141500, "pitch": 57, "duration": 10, "velocity": 115}, {"time": 141500, "pitch": 60, "duration": 20, "velocity": 110}, {"time": 141500, "pitch": 64, "duration": 20, "velocity": 105}, {"time": 141600, "pitch": 52, "duration": 229, "velocity": 90}, {"time": 141610, "pitch": 57, "duration": 219, "velocity": 95}, {"time": 141620, "pitch": 60, "duration": 209, "velocity": 100}, {"time": 141630, "pitch": 64, "duration": 199, "velocity": 105}, {"time": 141839, "pitch": 52, "duration": 80, "velocity": 97}, {"time": 141839, "pitch": 57, "duration": 80, "velocity": 105}, {"time": 141839, "pitch": 60, "duration": 80, "velocity": 107}, {"time": 141839, "pitch": 64, "duration": 80, "velocity": 112}, {"time": 141979, "pitch": 52, "duration": 10, "velocity": 120}, {"time": 141979, "pitch": 57, "duration": 10, "velocity": 115}, {"time": 141979, "pitch": 60, "duration": 20, "velocity": 110}, {"time": 141979, "pitch": 64, "duration": 20, "velocity": 105}, {"time": 142079, "pitch": 52, "duration": 40, "velocity": 86}, {"time": 142079, "pitch": 57, "duration": 40, "velocity": 92}, {"time": 142089, "pitch": 60, "duration": 30, "velocity": 111}, {"time": 142089, "pitch": 64, "duration": 30, "velocity": 116}, {"time": 142218, "pitch": 60, "duration": 70, "velocity": 98}, {"time": 142218, "pitch": 64, "duration": 70, "velocity": 103}, {"time": 142228, "pitch": 52, "duration": 60, "velocity": 95}, {"time": 142228, "pitch": 57, "duration": 60, "velocity": 89}, {"time": 142318, "pitch": 52, "duration": 120, "velocity": 102}, {"time": 142318, "pitch": 57, "duration": 120, "velocity": 98}, {"time": 142328, "pitch": 60, "duration": 110, "velocity": 91}, {"time": 142328, "pitch": 64, "duration": 110, "velocity": 87}, {"time": 142458, "pitch": 52, "duration": 50, "velocity": 112}, {"time": 142458, "pitch": 57, "duration": 50, "velocity": 108}, {"time": 142458, "pitch": 60, "duration": 60, "velocity": 102}, {"time": 142458, "pitch": 64, "duration": 60, "velocity": 96}, {"time": 142558, "pitch": 53, "duration": 139, "velocity": 100}, {"time": 142558, "pitch": 57, "duration": 139, "velocity": 105}, {"time": 142567, "pitch": 60, "duration": 130, "velocity": 110}, {"time": 142567, "pitch": 65, "duration": 130, "velocity": 116}, {"time": 142697, "pitch": 65, "duration": 60, "velocity": 100}, {"time": 142707, "pitch": 53, "duration": 40, "velocity": 85}, {"time": 142707, "pitch": 57, "duration": 60, "velocity": 90}, {"time": 142787, "pitch": 53, "duration": 70, "velocity": 95}, {"time": 142787, "pitch": 57, "duration": 70, "velocity": 100}, {"time": 142797, "pitch": 60, "duration": 60, "velocity": 105}, {"time": 142797, "pitch": 65, "duration": 60, "velocity": 110}, {"time": 142937, "pitch": 53, "duration": 201, "velocity": 117}, {"time": 142937, "pitch": 57, "duration": 211, "velocity": 117}, {"time": 142937, "pitch": 60, "duration": 211, "velocity": 109}, {"time": 142937, "pitch": 65, "duration": 221, "velocity": 122}, {"time": 143178, "pitch": 57, "duration": 41, "velocity": 85}, {"time": 143178, "pitch": 60, "duration": 41, "velocity": 106}, {"time": 143178, "pitch": 65, "duration": 41, "velocity": 98}, {"time": 143280, "pitch": 53, "duration": 132, "velocity": 112}, {"time": 143280, "pitch": 57, "duration": 132, "velocity": 104}, {"time": 143280, "pitch": 60, "duration": 121, "velocity": 95}, {"time": 143280, "pitch": 65, "duration": 121, "velocity": 91}, {"time": 143422, "pitch": 53, "duration": 10, "velocity": 120}, {"time": 143422, "pitch": 57, "duration": 10, "velocity": 115}, {"time": 143422, "pitch": 60, "duration": 20, "velocity": 110}, {"time": 143422, "pitch": 65, "duration": 20, "velocity": 105}, {"time": 143523, "pitch": 50, "duration": 229, "velocity": 90}, {"time": 143533, "pitch": 57, "duration": 219, "velocity": 95}, {"time": 143543, "pitch": 60, "duration": 209, "velocity": 100}, {"time": 143553, "pitch": 65, "duration": 199, "velocity": 105}, {"time": 143762, "pitch": 50, "duration": 80, "velocity": 97}, {"time": 143762, "pitch": 57, "duration": 80, "velocity": 105}, {"time": 143762, "pitch": 60, "duration": 80, "velocity": 107}, {"time": 143762, "pitch": 65, "duration": 80, "velocity": 112}, {"time": 143902, "pitch": 50, "duration": 10, "velocity": 120}, {"time": 143902, "pitch": 57, "duration": 10, "velocity": 115}, {"time": 143902, "pitch": 60, "duration": 20, "velocity": 110}, {"time": 143902, "pitch": 65, "duration": 20, "velocity": 105}, {"time": 144002, "pitch": 55, "duration": 40, "velocity": 86}, {"time": 144002, "pitch": 59, "duration": 40, "velocity": 92}, {"time": 144012, "pitch": 62, "duration": 30, "velocity": 111}, {"time": 144012, "pitch": 67, "duration": 30, "velocity": 116}, {"time": 144142, "pitch": 62, "duration": 69, "velocity": 98}, {"time": 144142, "pitch": 67, "duration": 69, "velocity": 103}, {"time": 144152, "pitch": 55, "duration": 59, "velocity": 95}, {"time": 144152, "pitch": 59, "duration": 59, "velocity": 89}, {"time": 144241, "pitch": 55, "duration": 120, "velocity": 102}, {"time": 144241, "pitch": 59, "duration": 120, "velocity": 98}, {"time": 144251, "pitch": 62, "duration": 110, "velocity": 91}, {"time": 144251, "pitch": 67, "duration": 110, "velocity": 87}, {"time": 144381, "pitch": 55, "duration": 50, "velocity": 112}, {"time": 144381, "pitch": 59, "duration": 50, "velocity": 108}, {"time": 144381, "pitch": 62, "duration": 60, "velocity": 102}, {"time": 144381, "pitch": 67, "duration": 60, "velocity": 96}, {"time": 144481, "pitch": 48, "duration": 139, "velocity": 100}, {"time": 144481, "pitch": 55, "duration": 139, "velocity": 105}, {"time": 144491, "pitch": 60, "duration": 129, "velocity": 110}, {"time": 144491, "pitch": 64, "duration": 129, "velocity": 116}, {"time": 144620, "pitch": 64, "duration": 60, "velocity": 100}, {"time": 144630, "pitch": 48, "duration": 40, "velocity": 85}, {"time": 144630, "pitch": 55, "duration": 60, "velocity": 90}, {"time": 144710, "pitch": 48, "duration": 70, "velocity": 95}, {"time": 144710, "pitch": 55, "duration": 70, "velocity": 100}, {"time": 144720, "pitch": 60, "duration": 60, "velocity": 105}, {"time": 144720, "pitch": 64, "duration": 60, "velocity": 110}, {"time": 144860, "pitch": 48, "duration": 199, "velocity": 117}, {"time": 144860, "pitch": 55, "duration": 209, "velocity": 117}, {"time": 144860, "pitch": 60, "duration": 209, "velocity": 109}, {"time": 144860, "pitch": 64, "duration": 219, "velocity": 122}, {"time": 145099, "pitch": 55, "duration": 40, "velocity": 85}, {"time": 145099, "pitch": 60, "duration": 40, "velocity": 106}, {"time": 145099, "pitch": 64, "duration": 40, "velocity": 98}, {"time": 145199, "pitch": 48, "duration": 130, "velocity": 112}, {"time": 145199, "pitch": 55, "duration": 130, "velocity": 104}, {"time": 145199, "pitch": 60, "duration": 120, "velocity": 95}, {"time": 145199, "pitch": 64, "duration": 120, "velocity": 91}, {"time": 145339, "pitch": 48, "duration": 10, "velocity": 120}, {"time": 145339, "pitch": 55, "duration": 10, "velocity": 115}, {"time": 145339, "pitch": 60, "duration": 20, "velocity": 110}, {"time": 145339, "pitch": 64, "duration": 20, "velocity": 105}, {"time": 145439, "pitch": 48, "duration": 229, "velocity": 90}, {"time": 145449, "pitch": 55, "duration": 219, "velocity": 95}, {"time": 145459, "pitch": 60, "duration": 209, "velocity": 100}, {"time": 145468, "pitch": 64, "duration": 200, "velocity": 105}, {"time": 145678, "pitch": 48, "duration": 80, "velocity": 97}, {"time": 145678, "pitch": 55, "duration": 80, "velocity": 105}, {"time": 145678, "pitch": 60, "duration": 80, "velocity": 107}, {"time": 145678, "pitch": 64, "duration": 80, "velocity": 112}, {"time": 145818, "pitch": 48, "duration": 10, "velocity": 120}, {"time": 145818, "pitch": 55, "duration": 10, "velocity": 115}, {"time": 145818, "pitch": 60, "duration": 20, "velocity": 110}, {"time": 145818, "pitch": 64, "duration": 20, "velocity": 105}, {"time": 145917, "pitch": 48, "duration": 40, "velocity": 86}, {"time": 145917, "pitch": 55, "duration": 40, "velocity": 92}, {"time": 145927, "pitch": 60, "duration": 30, "velocity": 111}, {"time": 145927, "pitch": 64, "duration": 30, "velocity": 116}, {"time": 146057, "pitch": 60, "duration": 70, "velocity": 98}, {"time": 146057, "pitch": 64, "duration": 70, "velocity": 103}, {"time": 146067, "pitch": 48, "duration": 60, "velocity": 95}, {"time": 146067, "pitch": 55, "duration": 60, "velocity": 89}, {"time": 146157, "pitch": 48, "duration": 120, "velocity": 102}, {"time": 146157, "pitch": 55, "duration": 120, "velocity": 98}, {"time": 146167, "pitch": 60, "duration": 110, "velocity": 91}, {"time": 146167, "pitch": 64, "duration": 110, "velocity": 87}, {"time": 146297, "pitch": 48, "duration": 49, "velocity": 112}, {"time": 146297, "pitch": 55, "duration": 49, "velocity": 108}, {"time": 146297, "pitch": 60, "duration": 59, "velocity": 102}, {"time": 146297, "pitch": 64, "duration": 59, "velocity": 96}, {"time": 146396, "pitch": 52, "duration": 142, "velocity": 100}, {"time": 146396, "pitch": 55, "duration": 142, "velocity": 105}, {"time": 146406, "pitch": 59, "duration": 132, "velocity": 110}, {"time": 146406, "pitch": 64, "duration": 132, "velocity": 116}, {"time": 146538, "pitch": 64, "duration": 61, "velocity": 100}, {"time": 146548, "pitch": 52, "duration": 41, "velocity": 85}, {"time": 146548, "pitch": 55, "duration": 61, "velocity": 90}, {"time": 146629, "pitch": 52, "duration": 71, "velocity": 95}, {"time": 146629, "pitch": 55, "duration": 71, "velocity": 100}, {"time": 146640, "pitch": 59, "duration": 60, "velocity": 105}, {"time": 146640, "pitch": 64, "duration": 60, "velocity": 110}, {"time": 146782, "pitch": 52, "duration": 201, "velocity": 117}, {"time": 146782, "pitch": 55, "duration": 211, "velocity": 117}, {"time": 146782, "pitch": 59, "duration": 211, "velocity": 109}, {"time": 146782, "pitch": 64, "duration": 221, "velocity": 122}, {"time": 147023, "pitch": 55, "duration": 40, "velocity": 85}, {"time": 147023, "pitch": 59, "duration": 40, "velocity": 106}, {"time": 147023, "pitch": 64, "duration": 40, "velocity": 98}, {"time": 147122, "pitch": 52, "duration": 130, "velocity": 112}, {"time": 147122, "pitch": 55, "duration": 130, "velocity": 104}, {"time": 147122, "pitch": 59, "duration": 120, "velocity": 95}, {"time": 147122, "pitch": 64, "duration": 120, "velocity": 91}, {"time": 147262, "pitch": 52, "duration": 10, "velocity": 120}, {"time": 147262, "pitch": 55, "duration": 10, "velocity": 115}, {"time": 147262, "pitch": 59, "duration": 20, "velocity": 110}, {"time": 147262, "pitch": 64, "duration": 20, "velocity": 105}, {"time": 147362, "pitch": 52, "duration": 229, "velocity": 90}, {"time": 147372, "pitch": 55, "duration": 219, "velocity": 95}, {"time": 147382, "pitch": 59, "duration": 209, "velocity": 100}, {"time": 147392, "pitch": 64, "duration": 199, "velocity": 105}, {"time": 147601, "pitch": 52, "duration": 80, "velocity": 97}, {"time": 147601, "pitch": 55, "duration": 80, "velocity": 105}, {"time": 147601, "pitch": 59, "duration": 80, "velocity": 107}, {"time": 147601, "pitch": 64, "duration": 80, "velocity": 112}, {"time": 147741, "pitch": 52, "duration": 10, "velocity": 120}, {"time": 147741, "pitch": 55, "duration": 10, "velocity": 115}, {"time": 147741, "pitch": 59, "duration": 20, "velocity": 110}, {"time": 147741, "pitch": 64, "duration": 20, "velocity": 105}, {"time": 147841, "pitch": 52, "duration": 40, "velocity": 86}, {"time": 147841, "pitch": 55, "duration": 40, "velocity": 92}, {"time": 147851, "pitch": 59, "duration": 30, "velocity": 111}, {"time": 147851, "pitch": 64, "duration": 30, "velocity": 116}, {"time": 147980, "pitch": 59, "duration": 70, "velocity": 98}, {"time": 147980, "pitch": 64, "duration": 70, "velocity": 103}, {"time": 147990, "pitch": 52, "duration": 60, "velocity": 95}, {"time": 147990, "pitch": 55, "duration": 60, "velocity": 89}, {"time": 148080, "pitch": 52, "duration": 120, "velocity": 102}, {"time": 148080, "pitch": 55, "duration": 120, "velocity": 98}, {"time": 148090, "pitch": 59, "duration": 110, "velocity": 91}, {"time": 148090, "pitch": 64, "duration": 110, "velocity": 87}, {"time": 148220, "pitch": 52, "duration": 50, "velocity": 112}, {"time": 148220, "pitch": 55, "duration": 50, "velocity": 108}, {"time": 148220, "pitch": 59, "duration": 60, "velocity": 102}, {"time": 148220, "pitch": 64, "duration": 60, "velocity": 96}, {"time": 148320, "pitch": 52, "duration": 139, "velocity": 100}, {"time": 148320, "pitch": 57, "duration": 139, "velocity": 105}, {"time": 148330, "pitch": 60, "duration": 129, "velocity": 110}, {"time": 148330, "pitch": 64, "duration": 129, "velocity": 116}, {"time": 148459, "pitch": 64, "duration": 60, "velocity": 100}, {"time": 148469, "pitch": 52, "duration": 40, "velocity": 85}, {"time": 148469, "pitch": 57, "duration": 60, "velocity": 90}, {"time": 148549, "pitch": 52, "duration": 70, "velocity": 95}, {"time": 148549, "pitch": 57, "duration": 70, "velocity": 100}, {"time": 148559, "pitch": 60, "duration": 60, "velocity": 105}, {"time": 148559, "pitch": 64, "duration": 60, "velocity": 110}, {"time": 148699, "pitch": 52, "duration": 199, "velocity": 117}, {"time": 148699, "pitch": 57, "duration": 209, "velocity": 117}, {"time": 148699, "pitch": 60, "duration": 209, "velocity": 109}, {"time": 148699, "pitch": 64, "duration": 219, "velocity": 122}, {"time": 148938, "pitch": 57, "duration": 40, "velocity": 85}, {"time": 148938, "pitch": 60, "duration": 40, "velocity": 106}, {"time": 148938, "pitch": 64, "duration": 40, "velocity": 98}, {"time": 149038, "pitch": 52, "duration": 130, "velocity": 112}, {"time": 149038, "pitch": 57, "duration": 130, "velocity": 104}, {"time": 149038, "pitch": 60, "duration": 120, "velocity": 95}, {"time": 149038, "pitch": 64, "duration": 120, "velocity": 91}, {"time": 149178, "pitch": 52, "duration": 10, "velocity": 120}, {"time": 149178, "pitch": 57, "duration": 10, "velocity": 115}, {"time": 149178, "pitch": 60, "duration": 20, "velocity": 110}, {"time": 149178, "pitch": 64, "duration": 20, "velocity": 105}, {"time": 149277, "pitch": 52, "duration": 230, "velocity": 90}, {"time": 149287, "pitch": 57, "duration": 220, "velocity": 95}, {"time": 149297, "pitch": 60, "duration": 210, "velocity": 100}, {"time": 149307, "pitch": 64, "duration": 200, "velocity": 105}, {"time": 149517, "pitch": 52, "duration": 80, "velocity": 97}, {"time": 149517, "pitch": 57, "duration": 80, "velocity": 105}, {"time": 149517, "pitch": 60, "duration": 80, "velocity": 107}, {"time": 149517, "pitch": 64, "duration": 80, "velocity": 112}, {"time": 149656, "pitch": 52, "duration": 10, "velocity": 120}, {"time": 149656, "pitch": 57, "duration": 10, "velocity": 115}, {"time": 149656, "pitch": 60, "duration": 20, "velocity": 110}, {"time": 149656, "pitch": 64, "duration": 20, "velocity": 105}, {"time": 149756, "pitch": 52, "duration": 41, "velocity": 86}, {"time": 149756, "pitch": 57, "duration": 41, "velocity": 92}, {"time": 149766, "pitch": 60, "duration": 31, "velocity": 111}, {"time": 149766, "pitch": 64, "duration": 31, "velocity": 116}, {"time": 149898, "pitch": 60, "duration": 71, "velocity": 98}, {"time": 149898, "pitch": 64, "duration": 71, "velocity": 103}, {"time": 149908, "pitch": 52, "duration": 61, "velocity": 95}, {"time": 149908, "pitch": 57, "duration": 61, "velocity": 89}, {"time": 150000, "pitch": 52, "duration": 121, "velocity": 102}, {"time": 150000, "pitch": 57, "duration": 121, "velocity": 98}, {"time": 150010, "pitch": 60, "duration": 111, "velocity": 91}, {"time": 150010, "pitch": 64, "duration": 111, "velocity": 87}, {"time": 150142, "pitch": 52, "duration": 50, "velocity": 112}, {"time": 150142, "pitch": 57, "duration": 50, "velocity": 108}, {"time": 150142, "pitch": 60, "duration": 60, "velocity": 102}, {"time": 150142, "pitch": 64, "duration": 60, "velocity": 96}, {"time": 150243, "pitch": 53, "duration": 140, "velocity": 100}, {"time": 150243, "pitch": 57, "duration": 140, "velocity": 105}, {"time": 150253, "pitch": 60, "duration": 130, "velocity": 110}, {"time": 150253, "pitch": 65, "duration": 130, "velocity": 116}, {"time": 150383, "pitch": 65, "duration": 59, "velocity": 100}, {"time": 150393, "pitch": 53, "duration": 39, "velocity": 85}, {"time": 150393, "pitch": 57, "duration": 59, "velocity": 90}, {"time": 150472, "pitch": 53, "duration": 70, "velocity": 95}, {"time": 150472, "pitch": 57, "duration": 70, "velocity": 100}, {"time": 150482, "pitch": 60, "duration": 60, "velocity": 105}, {"time": 150482, "pitch": 65, "duration": 60, "velocity": 110}, {"time": 150622, "pitch": 53, "duration": 200, "velocity": 117}, {"time": 150622, "pitch": 57, "duration": 209, "velocity": 117}, {"time": 150622, "pitch": 60, "duration": 209, "velocity": 109}, {"time": 150622, "pitch": 65, "duration": 219, "velocity": 122}, {"time": 150861, "pitch": 57, "duration": 40, "velocity": 85}, {"time": 150861, "pitch": 60, "duration": 40, "velocity": 106}, {"time": 150861, "pitch": 65, "duration": 40, "velocity": 98}, {"time": 150961, "pitch": 53, "duration": 130, "velocity": 112}, {"time": 150961, "pitch": 57, "duration": 130, "velocity": 104}, {"time": 150961, "pitch": 60, "duration": 120, "velocity": 95}, {"time": 150961, "pitch": 65, "duration": 120, "velocity": 91}, {"time": 151101, "pitch": 53, "duration": 10, "velocity": 120}, {"time": 151101, "pitch": 57, "duration": 10, "velocity": 115}, {"time": 151101, "pitch": 60, "duration": 20, "velocity": 110}, {"time": 151101, "pitch": 65, "duration": 20, "velocity": 105}, {"time": 151201, "pitch": 50, "duration": 229, "velocity": 90}, {"time": 151211, "pitch": 57, "duration": 219, "velocity": 95}, {"time": 151221, "pitch": 60, "duration": 209, "velocity": 100}, {"time": 151231, "pitch": 65, "duration": 199, "velocity": 105}, {"time": 151440, "pitch": 50, "duration": 80, "velocity": 97}, {"time": 151440, "pitch": 57, "duration": 80, "velocity": 105}, {"time": 151440, "pitch": 60, "duration": 80, "velocity": 107}, {"time": 151440, "pitch": 65, "duration": 80, "velocity": 112}, {"time": 151580, "pitch": 50, "duration": 10, "velocity": 120}, {"time": 151580, "pitch": 57, "duration": 10, "velocity": 115}, {"time": 151580, "pitch": 60, "duration": 20, "velocity": 110}, {"time": 151580, "pitch": 65, "duration": 20, "velocity": 105}, {"time": 151680, "pitch": 55, "duration": 39, "velocity": 86}, {"time": 151680, "pitch": 59, "duration": 39, "velocity": 92}, {"time": 151689, "pitch": 62, "duration": 30, "velocity": 111}, {"time": 151689, "pitch": 67, "duration": 30, "velocity": 116}, {"time": 151819, "pitch": 62, "duration": 70, "velocity": 98}, {"time": 151819, "pitch": 67, "duration": 70, "velocity": 103}, {"time": 151829, "pitch": 55, "duration": 60, "velocity": 95}, {"time": 151829, "pitch": 59, "duration": 60, "velocity": 89}, {"time": 151919, "pitch": 55, "duration": 120, "velocity": 102}, {"time": 151919, "pitch": 59, "duration": 120, "velocity": 98}, {"time": 151929, "pitch": 62, "duration": 110, "velocity": 91}, {"time": 151929, "pitch": 67, "duration": 110, "velocity": 87}, {"time": 152059, "pitch": 55, "duration": 50, "velocity": 112}, {"time": 152059, "pitch": 59, "duration": 50, "velocity": 108}, {"time": 152059, "pitch": 62, "duration": 59, "velocity": 102}, {"time": 152059, "pitch": 67, "duration": 59, "velocity": 96}, {"time": 152158, "pitch": 48, "duration": 140, "velocity": 100}, {"time": 152158, "pitch": 55, "duration": 140, "velocity": 105}, {"time": 152168, "pitch": 60, "duration": 130, "velocity": 110}, {"time": 152168, "pitch": 64, "duration": 130, "velocity": 116}, {"time": 152298, "pitch": 64, "duration": 60, "velocity": 100}, {"time": 152308, "pitch": 48, "duration": 40, "velocity": 85}, {"time": 152308, "pitch": 55, "duration": 60, "velocity": 90}, {"time": 152388, "pitch": 48, "duration": 70, "velocity": 95}, {"time": 152388, "pitch": 55, "duration": 70, "velocity": 100}, {"time": 152398, "pitch": 60, "duration": 60, "velocity": 105}, {"time": 152398, "pitch": 64, "duration": 60, "velocity": 110}, {"time": 152538, "pitch": 48, "duration": 199, "velocity": 117}, {"time": 152538, "pitch": 55, "duration": 209, "velocity": 117}, {"time": 152538, "pitch": 60, "duration": 209, "velocity": 109}, {"time": 152538, "pitch": 64, "duration": 219, "velocity": 122}, {"time": 152777, "pitch": 55, "duration": 40, "velocity": 85}, {"time": 152777, "pitch": 60, "duration": 40, "velocity": 106}, {"time": 152777, "pitch": 64, "duration": 40, "velocity": 98}, {"time": 152877, "pitch": 48, "duration": 129, "velocity": 112}, {"time": 152877, "pitch": 55, "duration": 129, "velocity": 104}, {"time": 152877, "pitch": 60, "duration": 119, "velocity": 95}, {"time": 152877, "pitch": 64, "duration": 119, "velocity": 91}, {"time": 153016, "pitch": 48, "duration": 10, "velocity": 120}, {"time": 153016, "pitch": 55, "duration": 10, "velocity": 115}, {"time": 153016, "pitch": 60, "duration": 20, "velocity": 110}, {"time": 153016, "pitch": 64, "duration": 20, "velocity": 105}, {"time": 153116, "pitch": 48, "duration": 233, "velocity": 90}, {"time": 153126, "pitch": 55, "duration": 223, "velocity": 95}, {"time": 153136, "pitch": 60, "duration": 213, "velocity": 100}, {"time": 153147, "pitch": 64, "duration": 202, "velocity": 105}, {"time": 153359, "pitch": 48, "duration": 82, "velocity": 97}, {"time": 153359, "pitch": 55, "duration": 82, "velocity": 105}, {"time": 153359, "pitch": 60, "duration": 82, "velocity": 107}, {"time": 153359, "pitch": 64, "duration": 82, "velocity": 112}, {"time": 153501, "pitch": 48, "duration": 11, "velocity": 120}, {"time": 153501, "pitch": 55, "duration": 11, "velocity": 115}, {"time": 153501, "pitch": 60, "duration": 21, "velocity": 110}, {"time": 153501, "pitch": 64, "duration": 21, "velocity": 105}, {"time": 153603, "pitch": 48, "duration": 40, "velocity": 86}, {"time": 153603, "pitch": 55, "duration": 40, "velocity": 92}, {"time": 153613, "pitch": 60, "duration": 30, "velocity": 111}, {"time": 153613, "pitch": 64, "duration": 30, "velocity": 116}, {"time": 153742, "pitch": 60, "duration": 70, "velocity": 98}, {"time": 153742, "pitch": 64, "duration": 70, "velocity": 103}, {"time": 153752, "pitch": 48, "duration": 60, "velocity": 95}, {"time": 153752, "pitch": 55, "duration": 60, "velocity": 89}, {"time": 153842, "pitch": 48, "duration": 120, "velocity": 102}, {"time": 153842, "pitch": 55, "duration": 120, "velocity": 98}, {"time": 153852, "pitch": 60, "duration": 110, "velocity": 91}, {"time": 153852, "pitch": 64, "duration": 110, "velocity": 87}, {"time": 153982, "pitch": 48, "duration": 50, "velocity": 112}, {"time": 153982, "pitch": 55, "duration": 50, "velocity": 108}, {"time": 153982, "pitch": 60, "duration": 60, "velocity": 102}, {"time": 153982, "pitch": 64, "duration": 60, "velocity": 96}, {"time": 154082, "pitch": 52, "duration": 139, "velocity": 100}, {"time": 154082, "pitch": 55, "duration": 139, "velocity": 105}, {"time": 154092, "pitch": 59, "duration": 129, "velocity": 110}, {"time": 154092, "pitch": 64, "duration": 129, "velocity": 116}, {"time": 154221, "pitch": 64, "duration": 60, "velocity": 100}, {"time": 154231, "pitch": 52, "duration": 40, "velocity": 85}, {"time": 154231, "pitch": 55, "duration": 60, "velocity": 90}, {"time": 154311, "pitch": 52, "duration": 70, "velocity": 95}, {"time": 154311, "pitch": 55, "duration": 70, "velocity": 100}, {"time": 154321, "pitch": 59, "duration": 60, "velocity": 105}, {"time": 154321, "pitch": 64, "duration": 60, "velocity": 110}, {"time": 154461, "pitch": 52, "duration": 199, "velocity": 117}, {"time": 154461, "pitch": 55, "duration": 209, "velocity": 117}, {"time": 154461, "pitch": 59, "duration": 209, "velocity": 109}, {"time": 154461, "pitch": 64, "duration": 219, "velocity": 122}, {"time": 154700, "pitch": 55, "duration": 40, "velocity": 85}, {"time": 154700, "pitch": 59, "duration": 40, "velocity": 106}, {"time": 154700, "pitch": 64, "duration": 40, "velocity": 98}, {"time": 154800, "pitch": 52, "duration": 130, "velocity": 117}, {"time": 154800, "pitch": 57, "duration": 209, "velocity": 117}, {"time": 154800, "pitch": 60, "duration": 209, "velocity": 109}, {"time": 154800, "pitch": 64, "duration": 219, "velocity": 122}, {"time": 155039, "pitch": 52, "duration": 230, "velocity": 90}, {"time": 155049, "pitch": 57, "duration": 220, "velocity": 95}, {"time": 155059, "pitch": 60, "duration": 210, "velocity": 100}, {"time": 155069, "pitch": 64, "duration": 200, "velocity": 105}, {"time": 155279, "pitch": 52, "duration": 80, "velocity": 97}, {"time": 155279, "pitch": 57, "duration": 80, "velocity": 105}, {"time": 155279, "pitch": 60, "duration": 80, "velocity": 107}, {"time": 155279, "pitch": 64, "duration": 80, "velocity": 112}, {"time": 155518, "pitch": 52, "duration": 40, "velocity": 86}, {"time": 155518, "pitch": 57, "duration": 40, "velocity": 92}, {"time": 155528, "pitch": 60, "duration": 30, "velocity": 111}, {"time": 155528, "pitch": 64, "duration": 30, "velocity": 116}, {"time": 155658, "pitch": 60, "duration": 70, "velocity": 98}, {"time": 155658, "pitch": 64, "duration": 70, "velocity": 103}, {"time": 155668, "pitch": 52, "duration": 60, "velocity": 95}, {"time": 155668, "pitch": 57, "duration": 60, "velocity": 89}, {"time": 155758, "pitch": 52, "duration": 119, "velocity": 102}, {"time": 155758, "pitch": 57, "duration": 119, "velocity": 98}, {"time": 155768, "pitch": 60, "duration": 109, "velocity": 91}, {"time": 155768, "pitch": 64, "duration": 109, "velocity": 87}, {"time": 155897, "pitch": 52, "duration": 50, "velocity": 112}, {"time": 155897, "pitch": 57, "duration": 50, "velocity": 108}, {"time": 155897, "pitch": 60, "duration": 60, "velocity": 102}, {"time": 155897, "pitch": 64, "duration": 60, "velocity": 96}, {"time": 155997, "pitch": 50, "duration": 142, "velocity": 100}, {"time": 155997, "pitch": 57, "duration": 142, "velocity": 105}, {"time": 156007, "pitch": 60, "duration": 132, "velocity": 110}, {"time": 156007, "pitch": 65, "duration": 132, "velocity": 116}, {"time": 156139, "pitch": 65, "duration": 61, "velocity": 100}, {"time": 156149, "pitch": 50, "duration": 41, "velocity": 85}, {"time": 156149, "pitch": 57, "duration": 61, "velocity": 90}, {"time": 156230, "pitch": 50, "duration": 71, "velocity": 95}, {"time": 156230, "pitch": 57, "duration": 71, "velocity": 100}, {"time": 156241, "pitch": 60, "duration": 60, "velocity": 105}, {"time": 156241, "pitch": 65, "duration": 60, "velocity": 110}, {"time": 156382, "pitch": 50, "duration": 202, "velocity": 117}, {"time": 156382, "pitch": 57, "duration": 212, "velocity": 117}, {"time": 156382, "pitch": 60, "duration": 212, "velocity": 109}, {"time": 156382, "pitch": 65, "duration": 222, "velocity": 122}, {"time": 156623, "pitch": 57, "duration": 40, "velocity": 85}, {"time": 156623, "pitch": 60, "duration": 40, "velocity": 106}, {"time": 156623, "pitch": 65, "duration": 40, "velocity": 98}, {"time": 156723, "pitch": 50, "duration": 130, "velocity": 112}, {"time": 156723, "pitch": 57, "duration": 130, "velocity": 104}, {"time": 156723, "pitch": 60, "duration": 120, "velocity": 95}, {"time": 156723, "pitch": 65, "duration": 120, "velocity": 91}, {"time": 156863, "pitch": 50, "duration": 10, "velocity": 120}, {"time": 156863, "pitch": 57, "duration": 10, "velocity": 115}, {"time": 156863, "pitch": 60, "duration": 20, "velocity": 110}, {"time": 156863, "pitch": 65, "duration": 20, "velocity": 105}, {"time": 156963, "pitch": 50, "duration": 229, "velocity": 90}, {"time": 156973, "pitch": 57, "duration": 219, "velocity": 95}, {"time": 156983, "pitch": 60, "duration": 209, "velocity": 100}, {"time": 156993, "pitch": 65, "duration": 199, "velocity": 105}, {"time": 157202, "pitch": 50, "duration": 80, "velocity": 97}, {"time": 157202, "pitch": 57, "duration": 80, "velocity": 105}, {"time": 157202, "pitch": 60, "duration": 80, "velocity": 107}, {"time": 157202, "pitch": 65, "duration": 80, "velocity": 112}, {"time": 157342, "pitch": 50, "duration": 10, "velocity": 120}, {"time": 157342, "pitch": 57, "duration": 10, "velocity": 115}, {"time": 157342, "pitch": 60, "duration": 20, "velocity": 110}, {"time": 157342, "pitch": 65, "duration": 20, "velocity": 105}, {"time": 157442, "pitch": 50, "duration": 39, "velocity": 86}, {"time": 157442, "pitch": 57, "duration": 39, "velocity": 92}, {"time": 157452, "pitch": 60, "duration": 29, "velocity": 111}, {"time": 157452, "pitch": 65, "duration": 29, "velocity": 116}, {"time": 157581, "pitch": 60, "duration": 70, "velocity": 98}, {"time": 157581, "pitch": 65, "duration": 70, "velocity": 103}, {"time": 157591, "pitch": 50, "duration": 60, "velocity": 95}, {"time": 157591, "pitch": 57, "duration": 60, "velocity": 89}, {"time": 157681, "pitch": 50, "duration": 120, "velocity": 102}, {"time": 157681, "pitch": 57, "duration": 120, "velocity": 98}, {"time": 157691, "pitch": 60, "duration": 110, "velocity": 91}, {"time": 157691, "pitch": 65, "duration": 110, "velocity": 87}, {"time": 157821, "pitch": 50, "duration": 50, "velocity": 112}, {"time": 157821, "pitch": 57, "duration": 50, "velocity": 108}, {"time": 157821, "pitch": 60, "duration": 60, "velocity": 102}, {"time": 157821, "pitch": 65, "duration": 60, "velocity": 96}, {"time": 157920, "pitch": 53, "duration": 140, "velocity": 100}, {"time": 157920, "pitch": 56, "duration": 140, "velocity": 105}, {"time": 157930, "pitch": 60, "duration": 130, "velocity": 110}, {"time": 157930, "pitch": 65, "duration": 130, "velocity": 116}, {"time": 158060, "pitch": 65, "duration": 60, "velocity": 100}, {"time": 158070, "pitch": 53, "duration": 40, "velocity": 85}, {"time": 158070, "pitch": 56, "duration": 60, "velocity": 90}, {"time": 158150, "pitch": 53, "duration": 70, "velocity": 95}, {"time": 158150, "pitch": 56, "duration": 70, "velocity": 100}, {"time": 158160, "pitch": 60, "duration": 60, "velocity": 105}, {"time": 158160, "pitch": 65, "duration": 60, "velocity": 110}, {"time": 158300, "pitch": 53, "duration": 199, "velocity": 117}, {"time": 158300, "pitch": 56, "duration": 209, "velocity": 117}, {"time": 158300, "pitch": 60, "duration": 209, "velocity": 109}, {"time": 158300, "pitch": 65, "duration": 219, "velocity": 122}, {"time": 158539, "pitch": 56, "duration": 40, "velocity": 85}, {"time": 158539, "pitch": 60, "duration": 40, "velocity": 106}, {"time": 158539, "pitch": 65, "duration": 40, "velocity": 98}, {"time": 158639, "pitch": 53, "duration": 129, "velocity": 112}, {"time": 158639, "pitch": 56, "duration": 129, "velocity": 104}, {"time": 158639, "pitch": 60, "duration": 120, "velocity": 95}, {"time": 158639, "pitch": 65, "duration": 120, "velocity": 91}, {"time": 158778, "pitch": 53, "duration": 10, "velocity": 120}, {"time": 158778, "pitch": 56, "duration": 10, "velocity": 115}, {"time": 158778, "pitch": 60, "duration": 20, "velocity": 110}, {"time": 158778, "pitch": 65, "duration": 20, "velocity": 105}, {"time": 158878, "pitch": 53, "duration": 230, "velocity": 90}, {"time": 158888, "pitch": 56, "duration": 220, "velocity": 95}, {"time": 158898, "pitch": 60, "duration": 210, "velocity": 100}, {"time": 158908, "pitch": 65, "duration": 200, "velocity": 105}, {"time": 159118, "pitch": 53, "duration": 79, "velocity": 97}, {"time": 159118, "pitch": 56, "duration": 79, "velocity": 105}, {"time": 159118, "pitch": 60, "duration": 79, "velocity": 107}, {"time": 159118, "pitch": 65, "duration": 79, "velocity": 112}, {"time": 159257, "pitch": 53, "duration": 10, "velocity": 120}, {"time": 159257, "pitch": 56, "duration": 10, "velocity": 115}, {"time": 159257, "pitch": 60, "duration": 20, "velocity": 110}, {"time": 159257, "pitch": 65, "duration": 20, "velocity": 105}, {"time": 159357, "pitch": 55, "duration": 41, "velocity": 86}, {"time": 159357, "pitch": 59, "duration": 41, "velocity": 92}, {"time": 159367, "pitch": 62, "duration": 31, "velocity": 111}, {"time": 159367, "pitch": 67, "duration": 31, "velocity": 116}, {"time": 159499, "pitch": 62, "duration": 71, "velocity": 98}, {"time": 159499, "pitch": 67, "duration": 71, "velocity": 103}, {"time": 159509, "pitch": 55, "duration": 61, "velocity": 95}, {"time": 159509, "pitch": 59, "duration": 61, "velocity": 89}, {"time": 159600, "pitch": 55, "duration": 122, "velocity": 102}, {"time": 159600, "pitch": 59, "duration": 122, "velocity": 98}, {"time": 159611, "pitch": 62, "duration": 111, "velocity": 91}, {"time": 159611, "pitch": 67, "duration": 111, "velocity": 87}, {"time": 159742, "pitch": 55, "duration": 51, "velocity": 112}, {"time": 159742, "pitch": 59, "duration": 51, "velocity": 108}, {"time": 159742, "pitch": 62, "duration": 61, "velocity": 102}, {"time": 159742, "pitch": 67, "duration": 61, "velocity": 96}, {"time": 159844, "pitch": 48, "duration": 139, "velocity": 100}, {"time": 159844, "pitch": 55, "duration": 139, "velocity": 105}, {"time": 159854, "pitch": 60, "duration": 129, "velocity": 110}, {"time": 159854, "pitch": 64, "duration": 129, "velocity": 116}, {"time": 159983, "pitch": 64, "duration": 60, "velocity": 100}, {"time": 159993, "pitch": 48, "duration": 40, "velocity": 85}, {"time": 159993, "pitch": 55, "duration": 60, "velocity": 90}, {"time": 160073, "pitch": 48, "duration": 70, "velocity": 95}, {"time": 160073, "pitch": 55, "duration": 70, "velocity": 100}, {"time": 160083, "pitch": 60, "duration": 60, "velocity": 105}, {"time": 160083, "pitch": 64, "duration": 60, "velocity": 110}, {"time": 160223, "pitch": 48, "duration": 199, "velocity": 117}, {"time": 160223, "pitch": 55, "duration": 209, "velocity": 117}, {"time": 160223, "pitch": 60, "duration": 209, "velocity": 109}, {"time": 160223, "pitch": 64, "duration": 219, "velocity": 122}, {"time": 160462, "pitch": 55, "duration": 40, "velocity": 85}, {"time": 160462, "pitch": 60, "duration": 40, "velocity": 106}, {"time": 160462, "pitch": 64, "duration": 40, "velocity": 98}, {"time": 160562, "pitch": 48, "duration": 130, "velocity": 112}, {"time": 160562, "pitch": 55, "duration": 130, "velocity": 104}, {"time": 160562, "pitch": 60, "duration": 120, "velocity": 95}, {"time": 160562, "pitch": 64, "duration": 120, "velocity": 91}, {"time": 160702, "pitch": 48, "duration": 10, "velocity": 120}, {"time": 160702, "pitch": 55, "duration": 10, "velocity": 115}, {"time": 160702, "pitch": 60, "duration": 20, "velocity": 110}, {"time": 160702, "pitch": 64, "duration": 20, "velocity": 105}, {"time": 160801, "pitch": 48, "duration": 230, "velocity": 90}, {"time": 160811, "pitch": 55, "duration": 220, "velocity": 95}, {"time": 160821, "pitch": 60, "duration": 210, "velocity": 100}, {"time": 160831, "pitch": 64, "duration": 200, "velocity": 105}, {"time": 161041, "pitch": 48, "duration": 80, "velocity": 97}, {"time": 161041, "pitch": 55, "duration": 80, "velocity": 105}, {"time": 161041, "pitch": 60, "duration": 80, "velocity": 107}, {"time": 161041, "pitch": 64, "duration": 80, "velocity": 112}, {"time": 161181, "pitch": 48, "duration": 10, "velocity": 120}, {"time": 161181, "pitch": 55, "duration": 10, "velocity": 115}, {"time": 161181, "pitch": 60, "duration": 20, "velocity": 110}, {"time": 161181, "pitch": 64, "duration": 20, "velocity": 105}, {"time": 161280, "pitch": 48, "duration": 40, "velocity": 86}, {"time": 161280, "pitch": 55, "duration": 40, "velocity": 92}, {"time": 161290, "pitch": 60, "duration": 30, "velocity": 111}, {"time": 161290, "pitch": 64, "duration": 30, "velocity": 116}, {"time": 161420, "pitch": 60, "duration": 70, "velocity": 98}, {"time": 161420, "pitch": 64, "duration": 70, "velocity": 103}, {"time": 161430, "pitch": 48, "duration": 60, "velocity": 95}, {"time": 161430, "pitch": 55, "duration": 60, "velocity": 89}, {"time": 161520, "pitch": 48, "duration": 120, "velocity": 102}, {"time": 161520, "pitch": 55, "duration": 120, "velocity": 98}, {"time": 161530, "pitch": 60, "duration": 110, "velocity": 91}, {"time": 161530, "pitch": 64, "duration": 110, "velocity": 87}, {"time": 161659, "pitch": 48, "duration": 50, "velocity": 112}, {"time": 161659, "pitch": 55, "duration": 50, "velocity": 108}, {"time": 161659, "pitch": 60, "duration": 60, "velocity": 102}, {"time": 161659, "pitch": 64, "duration": 60, "velocity": 96}, {"time": 161759, "pitch": 52, "duration": 140, "velocity": 100}, {"time": 161759, "pitch": 55, "duration": 140, "velocity": 105}, {"time": 161769, "pitch": 59, "duration": 130, "velocity": 110}, {"time": 161769, "pitch": 64, "duration": 130, "velocity": 116}, {"time": 161899, "pitch": 64, "duration": 60, "velocity": 100}, {"time": 161909, "pitch": 52, "duration": 40, "velocity": 85}, {"time": 161909, "pitch": 55, "duration": 60, "velocity": 90}, {"time": 161989, "pitch": 52, "duration": 70, "velocity": 95}, {"time": 161989, "pitch": 55, "duration": 70, "velocity": 100}, {"time": 161999, "pitch": 59, "duration": 60, "velocity": 105}, {"time": 161999, "pitch": 64, "duration": 60, "velocity": 110}, {"time": 162138, "pitch": 52, "duration": 200, "velocity": 117}, {"time": 162138, "pitch": 55, "duration": 210, "velocity": 117}, {"time": 162138, "pitch": 59, "duration": 210, "velocity": 109}, {"time": 162138, "pitch": 64, "duration": 220, "velocity": 122}, {"time": 162378, "pitch": 55, "duration": 40, "velocity": 85}, {"time": 162378, "pitch": 59, "duration": 40, "velocity": 106}, {"time": 162378, "pitch": 64, "duration": 40, "velocity": 98}, {"time": 162478, "pitch": 52, "duration": 129, "velocity": 112}, {"time": 162478, "pitch": 55, "duration": 129, "velocity": 104}, {"time": 162478, "pitch": 59, "duration": 119, "velocity": 95}, {"time": 162478, "pitch": 64, "duration": 119, "velocity": 91}, {"time": 162617, "pitch": 52, "duration": 10, "velocity": 120}, {"time": 162617, "pitch": 55, "duration": 10, "velocity": 115}, {"time": 162617, "pitch": 59, "duration": 20, "velocity": 110}, {"time": 162617, "pitch": 64, "duration": 20, "velocity": 105}, {"time": 162717, "pitch": 52, "duration": 233, "velocity": 90}, {"time": 162727, "pitch": 55, "duration": 223, "velocity": 95}, {"time": 162737, "pitch": 59, "duration": 213, "velocity": 100}, {"time": 162747, "pitch": 64, "duration": 203, "velocity": 105}, {"time": 162960, "pitch": 52, "duration": 81, "velocity": 97}, {"time": 162960, "pitch": 55, "duration": 81, "velocity": 105}, {"time": 162960, "pitch": 59, "duration": 81, "velocity": 107}, {"time": 162960, "pitch": 64, "duration": 81, "velocity": 112}, {"time": 163102, "pitch": 52, "duration": 10, "velocity": 120}, {"time": 163102, "pitch": 55, "duration": 10, "velocity": 115}, {"time": 163102, "pitch": 59, "duration": 21, "velocity": 110}, {"time": 163102, "pitch": 64, "duration": 21, "velocity": 105}, {"time": 163204, "pitch": 52, "duration": 40, "velocity": 86}, {"time": 163204, "pitch": 55, "duration": 40, "velocity": 92}, {"time": 163214, "pitch": 59, "duration": 30, "velocity": 111}, {"time": 163214, "pitch": 64, "duration": 30, "velocity": 116}, {"time": 163343, "pitch": 59, "duration": 70, "velocity": 98}, {"time": 163343, "pitch": 64, "duration": 70, "velocity": 103}, {"time": 163353, "pitch": 52, "duration": 60, "velocity": 95}, {"time": 163353, "pitch": 55, "duration": 60, "velocity": 89}, {"time": 163443, "pitch": 52, "duration": 120, "velocity": 102}, {"time": 163443, "pitch": 55, "duration": 120, "velocity": 98}, {"time": 163453, "pitch": 59, "duration": 110, "velocity": 91}, {"time": 163453, "pitch": 64, "duration": 110, "velocity": 87}, {"time": 163583, "pitch": 52, "duration": 50, "velocity": 112}, {"time": 163583, "pitch": 55, "duration": 50, "velocity": 108}, {"time": 163583, "pitch": 59, "duration": 60, "velocity": 102}, {"time": 163583, "pitch": 64, "duration": 60, "velocity": 96}, {"time": 163683, "pitch": 52, "duration": 139, "velocity": 100}, {"time": 163683, "pitch": 57, "duration": 139, "velocity": 105}, {"time": 163693, "pitch": 60, "duration": 129, "velocity": 110}, {"time": 163693, "pitch": 64, "duration": 129, "velocity": 116}, {"time": 163822, "pitch": 64, "duration": 60, "velocity": 100}, {"time": 163832, "pitch": 52, "duration": 40, "velocity": 85}, {"time": 163832, "pitch": 57, "duration": 60, "velocity": 90}, {"time": 163912, "pitch": 52, "duration": 70, "velocity": 95}, {"time": 163912, "pitch": 57, "duration": 70, "velocity": 100}, {"time": 163922, "pitch": 60, "duration": 60, "velocity": 105}, {"time": 163922, "pitch": 64, "duration": 60, "velocity": 110}, {"time": 164062, "pitch": 52, "duration": 199, "velocity": 117}, {"time": 164062, "pitch": 57, "duration": 209, "velocity": 117}, {"time": 164062, "pitch": 60, "duration": 209, "velocity": 109}, {"time": 164062, "pitch": 64, "duration": 219, "velocity": 122}, {"time": 164301, "pitch": 57, "duration": 40, "velocity": 85}, {"time": 164301, "pitch": 60, "duration": 40, "velocity": 106}, {"time": 164301, "pitch": 64, "duration": 40, "velocity": 98}, {"time": 164401, "pitch": 52, "duration": 130, "velocity": 112}, {"time": 164401, "pitch": 57, "duration": 130, "velocity": 104}, {"time": 164401, "pitch": 60, "duration": 120, "velocity": 95}, {"time": 164401, "pitch": 64, "duration": 120, "velocity": 91}, {"time": 164541, "pitch": 52, "duration": 10, "velocity": 120}, {"time": 164541, "pitch": 57, "duration": 10, "velocity": 115}, {"time": 164541, "pitch": 60, "duration": 19, "velocity": 110}, {"time": 164541, "pitch": 64, "duration": 19, "velocity": 105}, {"time": 164640, "pitch": 52, "duration": 230, "velocity": 90}, {"time": 164650, "pitch": 57, "duration": 220, "velocity": 95}, {"time": 164660, "pitch": 60, "duration": 210, "velocity": 100}, {"time": 164670, "pitch": 64, "duration": 200, "velocity": 105}, {"time": 164880, "pitch": 52, "duration": 80, "velocity": 97}, {"time": 164880, "pitch": 57, "duration": 80, "velocity": 105}, {"time": 164880, "pitch": 60, "duration": 80, "velocity": 107}, {"time": 164880, "pitch": 64, "duration": 80, "velocity": 112}, {"time": 165019, "pitch": 52, "duration": 10, "velocity": 120}, {"time": 165019, "pitch": 57, "duration": 10, "velocity": 115}, {"time": 165019, "pitch": 60, "duration": 20, "velocity": 110}, {"time": 165019, "pitch": 64, "duration": 20, "velocity": 105}, {"time": 165119, "pitch": 52, "duration": 40, "velocity": 86}, {"time": 165119, "pitch": 57, "duration": 40, "velocity": 92}, {"time": 165129, "pitch": 60, "duration": 30, "velocity": 111}, {"time": 165129, "pitch": 64, "duration": 30, "velocity": 116}, {"time": 165259, "pitch": 60, "duration": 70, "velocity": 98}, {"time": 165259, "pitch": 64, "duration": 70, "velocity": 103}, {"time": 165269, "pitch": 52, "duration": 60, "velocity": 95}, {"time": 165269, "pitch": 57, "duration": 60, "velocity": 89}, {"time": 165359, "pitch": 52, "duration": 119, "velocity": 102}, {"time": 165359, "pitch": 57, "duration": 119, "velocity": 98}, {"time": 165369, "pitch": 60, "duration": 109, "velocity": 91}, {"time": 165369, "pitch": 64, "duration": 109, "velocity": 87}, {"time": 165498, "pitch": 52, "duration": 50, "velocity": 112}, {"time": 165498, "pitch": 57, "duration": 50, "velocity": 108}, {"time": 165498, "pitch": 60, "duration": 60, "velocity": 102}, {"time": 165498, "pitch": 64, "duration": 60, "velocity": 96}, {"time": 165598, "pitch": 53, "duration": 140, "velocity": 100}, {"time": 165598, "pitch": 57, "duration": 140, "velocity": 105}, {"time": 165608, "pitch": 60, "duration": 130, "velocity": 110}, {"time": 165608, "pitch": 65, "duration": 130, "velocity": 116}, {"time": 165738, "pitch": 65, "duration": 60, "velocity": 100}, {"time": 165748, "pitch": 53, "duration": 40, "velocity": 85}, {"time": 165748, "pitch": 57, "duration": 60, "velocity": 90}, {"time": 165828, "pitch": 53, "duration": 69, "velocity": 95}, {"time": 165828, "pitch": 57, "duration": 69, "velocity": 100}, {"time": 165837, "pitch": 60, "duration": 60, "velocity": 105}, {"time": 165837, "pitch": 65, "duration": 60, "velocity": 110}, {"time": 165977, "pitch": 53, "duration": 201, "velocity": 117}, {"time": 165977, "pitch": 57, "duration": 211, "velocity": 117}, {"time": 165977, "pitch": 60, "duration": 211, "velocity": 109}, {"time": 165977, "pitch": 65, "duration": 222, "velocity": 122}, {"time": 166219, "pitch": 57, "duration": 40, "velocity": 85}, {"time": 166219, "pitch": 60, "duration": 40, "velocity": 106}, {"time": 166219, "pitch": 65, "duration": 40, "velocity": 98}, {"time": 166320, "pitch": 53, "duration": 132, "velocity": 112}, {"time": 166320, "pitch": 57, "duration": 132, "velocity": 104}, {"time": 166320, "pitch": 60, "duration": 122, "velocity": 95}, {"time": 166320, "pitch": 65, "duration": 122, "velocity": 91}, {"time": 166462, "pitch": 53, "duration": 10, "velocity": 120}, {"time": 166462, "pitch": 57, "duration": 10, "velocity": 115}, {"time": 166462, "pitch": 60, "duration": 20, "velocity": 110}, {"time": 166462, "pitch": 65, "duration": 20, "velocity": 105}, {"time": 166564, "pitch": 50, "duration": 229, "velocity": 90}, {"time": 166574, "pitch": 57, "duration": 219, "velocity": 95}, {"time": 166584, "pitch": 60, "duration": 209, "velocity": 100}, {"time": 166593, "pitch": 65, "duration": 200, "velocity": 105}, {"time": 166803, "pitch": 50, "duration": 80, "velocity": 97}, {"time": 166803, "pitch": 57, "duration": 80, "velocity": 105}, {"time": 166803, "pitch": 60, "duration": 80, "velocity": 107}, {"time": 166803, "pitch": 65, "duration": 80, "velocity": 112}, {"time": 166943, "pitch": 50, "duration": 10, "velocity": 120}, {"time": 166943, "pitch": 57, "duration": 10, "velocity": 115}, {"time": 166943, "pitch": 60, "duration": 20, "velocity": 110}, {"time": 166943, "pitch": 65, "duration": 20, "velocity": 105}, {"time": 167042, "pitch": 55, "duration": 40, "velocity": 86}, {"time": 167042, "pitch": 59, "duration": 40, "velocity": 92}, {"time": 167052, "pitch": 62, "duration": 30, "velocity": 111}, {"time": 167052, "pitch": 67, "duration": 30, "velocity": 116}, {"time": 167182, "pitch": 62, "duration": 70, "velocity": 98}, {"time": 167182, "pitch": 67, "duration": 70, "velocity": 103}, {"time": 167192, "pitch": 55, "duration": 60, "velocity": 95}, {"time": 167192, "pitch": 59, "duration": 60, "velocity": 89}, {"time": 167282, "pitch": 55, "duration": 120, "velocity": 102}, {"time": 167282, "pitch": 59, "duration": 120, "velocity": 98}, {"time": 167292, "pitch": 62, "duration": 110, "velocity": 91}, {"time": 167292, "pitch": 67, "duration": 110, "velocity": 87}, {"time": 167422, "pitch": 55, "duration": 49, "velocity": 112}, {"time": 167422, "pitch": 59, "duration": 49, "velocity": 108}, {"time": 167422, "pitch": 62, "duration": 59, "velocity": 102}, {"time": 167422, "pitch": 67, "duration": 59, "velocity": 96}, {"time": 167521, "pitch": 48, "duration": 140, "velocity": 100}, {"time": 167521, "pitch": 55, "duration": 140, "velocity": 105}, {"time": 167531, "pitch": 60, "duration": 130, "velocity": 110}, {"time": 167531, "pitch": 64, "duration": 130, "velocity": 116}, {"time": 167661, "pitch": 64, "duration": 60, "velocity": 100}, {"time": 167671, "pitch": 48, "duration": 40, "velocity": 85}, {"time": 167671, "pitch": 55, "duration": 60, "velocity": 90}, {"time": 167751, "pitch": 48, "duration": 70, "velocity": 95}, {"time": 167751, "pitch": 55, "duration": 70, "velocity": 100}, {"time": 167761, "pitch": 60, "duration": 60, "velocity": 105}, {"time": 167761, "pitch": 64, "duration": 60, "velocity": 110}, {"time": 167900, "pitch": 48, "duration": 200, "velocity": 117}, {"time": 167900, "pitch": 55, "duration": 210, "velocity": 117}, {"time": 167900, "pitch": 60, "duration": 210, "velocity": 109}, {"time": 167900, "pitch": 64, "duration": 220, "velocity": 122}, {"time": 168140, "pitch": 55, "duration": 40, "velocity": 85}, {"time": 168140, "pitch": 60, "duration": 40, "velocity": 106}, {"time": 168140, "pitch": 64, "duration": 40, "velocity": 98}, {"time": 168240, "pitch": 48, "duration": 129, "velocity": 112}, {"time": 168240, "pitch": 55, "duration": 129, "velocity": 104}, {"time": 168240, "pitch": 60, "duration": 119, "velocity": 95}, {"time": 168240, "pitch": 64, "duration": 119, "velocity": 91}, {"time": 168379, "pitch": 48, "duration": 10, "velocity": 120}, {"time": 168379, "pitch": 55, "duration": 10, "velocity": 115}, {"time": 168379, "pitch": 60, "duration": 20, "velocity": 110}, {"time": 168379, "pitch": 64, "duration": 20, "velocity": 105}, {"time": 168479, "pitch": 48, "duration": 230, "velocity": 90}, {"time": 168489, "pitch": 55, "duration": 220, "velocity": 95}, {"time": 168499, "pitch": 60, "duration": 210, "velocity": 100}, {"time": 168509, "pitch": 64, "duration": 200, "velocity": 105}, {"time": 168719, "pitch": 48, "duration": 79, "velocity": 97}, {"time": 168719, "pitch": 55, "duration": 79, "velocity": 105}, {"time": 168719, "pitch": 60, "duration": 79, "velocity": 107}, {"time": 168719, "pitch": 64, "duration": 79, "velocity": 112}, {"time": 168858, "pitch": 48, "duration": 10, "velocity": 120}, {"time": 168858, "pitch": 55, "duration": 10, "velocity": 115}, {"time": 168858, "pitch": 60, "duration": 20, "velocity": 110}, {"time": 168858, "pitch": 64, "duration": 20, "velocity": 105}, {"time": 168958, "pitch": 48, "duration": 40, "velocity": 86}, {"time": 168958, "pitch": 55, "duration": 40, "velocity": 92}, {"time": 168968, "pitch": 60, "duration": 30, "velocity": 111}, {"time": 168968, "pitch": 64, "duration": 30, "velocity": 116}, {"time": 169098, "pitch": 60, "duration": 69, "velocity": 98}, {"time": 169098, "pitch": 64, "duration": 69, "velocity": 103}, {"time": 169108, "pitch": 48, "duration": 59, "velocity": 95}, {"time": 169108, "pitch": 55, "duration": 59, "velocity": 89}, {"time": 169197, "pitch": 48, "duration": 120, "velocity": 102}, {"time": 169197, "pitch": 55, "duration": 120, "velocity": 98}, {"time": 169207, "pitch": 60, "duration": 110, "velocity": 91}, {"time": 169207, "pitch": 64, "duration": 110, "velocity": 87}, {"time": 169337, "pitch": 48, "duration": 50, "velocity": 112}, {"time": 169337, "pitch": 55, "duration": 50, "velocity": 108}, {"time": 169337, "pitch": 60, "duration": 60, "velocity": 102}, {"time": 169337, "pitch": 64, "duration": 60, "velocity": 96}, {"time": 169437, "pitch": 52, "duration": 142, "velocity": 100}, {"time": 169437, "pitch": 55, "duration": 142, "velocity": 105}, {"time": 169447, "pitch": 59, "duration": 132, "velocity": 110}, {"time": 169447, "pitch": 64, "duration": 132, "velocity": 116}, {"time": 169579, "pitch": 64, "duration": 61, "velocity": 100}, {"time": 169589, "pitch": 52, "duration": 40, "velocity": 85}, {"time": 169589, "pitch": 55, "duration": 61, "velocity": 90}, {"time": 169670, "pitch": 52, "duration": 71, "velocity": 95}, {"time": 169670, "pitch": 55, "duration": 71, "velocity": 100}, {"time": 169680, "pitch": 59, "duration": 61, "velocity": 105}, {"time": 169680, "pitch": 64, "duration": 61, "velocity": 110}, {"time": 169822, "pitch": 52, "duration": 201, "velocity": 117}, {"time": 169822, "pitch": 55, "duration": 211, "velocity": 117}, {"time": 169822, "pitch": 59, "duration": 211, "velocity": 109}, {"time": 169822, "pitch": 64, "duration": 221, "velocity": 122}, {"time": 170063, "pitch": 55, "duration": 40, "velocity": 85}, {"time": 170063, "pitch": 59, "duration": 40, "velocity": 106}, {"time": 170063, "pitch": 64, "duration": 40, "velocity": 98}, {"time": 170163, "pitch": 52, "duration": 130, "velocity": 117}, {"time": 170163, "pitch": 57, "duration": 209, "velocity": 117}, {"time": 170163, "pitch": 60, "duration": 209, "velocity": 109}, {"time": 170163, "pitch": 64, "duration": 219, "velocity": 122}, {"time": 170402, "pitch": 52, "duration": 230, "velocity": 90}, {"time": 170412, "pitch": 57, "duration": 220, "velocity": 95}, {"time": 170422, "pitch": 60, "duration": 210, "velocity": 100}, {"time": 170432, "pitch": 64, "duration": 200, "velocity": 105}, {"time": 170642, "pitch": 52, "duration": 80, "velocity": 97}, {"time": 170642, "pitch": 57, "duration": 80, "velocity": 105}, {"time": 170642, "pitch": 60, "duration": 80, "velocity": 107}, {"time": 170642, "pitch": 64, "duration": 80, "velocity": 112}, {"time": 170881, "pitch": 52, "duration": 40, "velocity": 86}, {"time": 170881, "pitch": 57, "duration": 40, "velocity": 92}, {"time": 170891, "pitch": 60, "duration": 30, "velocity": 111}, {"time": 170891, "pitch": 64, "duration": 30, "velocity": 116}, {"time": 171021, "pitch": 60, "duration": 70, "velocity": 98}, {"time": 171021, "pitch": 64, "duration": 70, "velocity": 103}, {"time": 171031, "pitch": 52, "duration": 60, "velocity": 95}, {"time": 171031, "pitch": 57, "duration": 60, "velocity": 89}, {"time": 171121, "pitch": 52, "duration": 119, "velocity": 102}, {"time": 171121, "pitch": 57, "duration": 119, "velocity": 98}, {"time": 171131, "pitch": 60, "duration": 109, "velocity": 91}, {"time": 171131, "pitch": 64, "duration": 109, "velocity": 87}, {"time": 171260, "pitch": 52, "duration": 50, "velocity": 112}, {"time": 171260, "pitch": 57, "duration": 50, "velocity": 108}, {"time": 171260, "pitch": 60, "duration": 60, "velocity": 102}, {"time": 171260, "pitch": 64, "duration": 60, "velocity": 96}, {"time": 171360, "pitch": 50, "duration": 140, "velocity": 100}, {"time": 171360, "pitch": 57, "duration": 140, "velocity": 105}, {"time": 171370, "pitch": 60, "duration": 130, "velocity": 110}, {"time": 171370, "pitch": 65, "duration": 130, "velocity": 116}, {"time": 171500, "pitch": 65, "duration": 60, "velocity": 100}, {"time": 171510, "pitch": 50, "duration": 40, "velocity": 85}, {"time": 171510, "pitch": 57, "duration": 60, "velocity": 90}, {"time": 171590, "pitch": 50, "duration": 69, "velocity": 95}, {"time": 171590, "pitch": 57, "duration": 69, "velocity": 100}, {"time": 171600, "pitch": 60, "duration": 59, "velocity": 105}, {"time": 171600, "pitch": 65, "duration": 59, "velocity": 110}, {"time": 171739, "pitch": 50, "duration": 200, "velocity": 117}, {"time": 171739, "pitch": 57, "duration": 210, "velocity": 117}, {"time": 171739, "pitch": 60, "duration": 210, "velocity": 109}, {"time": 171739, "pitch": 65, "duration": 220, "velocity": 122}, {"time": 171979, "pitch": 57, "duration": 40, "velocity": 85}, {"time": 171979, "pitch": 60, "duration": 40, "velocity": 106}, {"time": 171979, "pitch": 65, "duration": 40, "velocity": 98}, {"time": 172078, "pitch": 50, "duration": 130, "velocity": 112}, {"time": 172078, "pitch": 57, "duration": 130, "velocity": 104}, {"time": 172078, "pitch": 60, "duration": 120, "velocity": 95}, {"time": 172078, "pitch": 65, "duration": 120, "velocity": 91}, {"time": 172218, "pitch": 50, "duration": 10, "velocity": 120}, {"time": 172218, "pitch": 57, "duration": 10, "velocity": 115}, {"time": 172218, "pitch": 60, "duration": 20, "velocity": 110}, {"time": 172218, "pitch": 65, "duration": 20, "velocity": 105}, {"time": 172318, "pitch": 50, "duration": 229, "velocity": 90}, {"time": 172328, "pitch": 57, "duration": 219, "velocity": 95}, {"time": 172338, "pitch": 60, "duration": 209, "velocity": 100}, {"time": 172348, "pitch": 65, "duration": 199, "velocity": 105}, {"time": 172557, "pitch": 50, "duration": 80, "velocity": 97}, {"time": 172557, "pitch": 57, "duration": 80, "velocity": 105}, {"time": 172557, "pitch": 60, "duration": 80, "velocity": 107}, {"time": 172557, "pitch": 65, "duration": 80, "velocity": 112}, {"time": 172697, "pitch": 50, "duration": 10, "velocity": 120}, {"time": 172697, "pitch": 57, "duration": 10, "velocity": 115}, {"time": 172697, "pitch": 60, "duration": 20, "velocity": 110}, {"time": 172697, "pitch": 65, "duration": 20, "velocity": 105}, {"time": 172797, "pitch": 50, "duration": 40, "velocity": 86}, {"time": 172797, "pitch": 57, "duration": 40, "velocity": 92}, {"time": 172807, "pitch": 60, "duration": 30, "velocity": 111}, {"time": 172807, "pitch": 65, "duration": 30, "velocity": 116}, {"time": 172939, "pitch": 60, "duration": 71, "velocity": 98}, {"time": 172939, "pitch": 65, "duration": 71, "velocity": 103}, {"time": 172949, "pitch": 50, "duration": 61, "velocity": 95}, {"time": 172949, "pitch": 57, "duration": 61, "velocity": 89}, {"time": 173040, "pitch": 50, "duration": 122, "velocity": 102}, {"time": 173040, "pitch": 57, "duration": 122, "velocity": 98}, {"time": 173050, "pitch": 60, "duration": 112, "velocity": 91}, {"time": 173050, "pitch": 65, "duration": 112, "velocity": 87}, {"time": 173182, "pitch": 50, "duration": 51, "velocity": 112}, {"time": 173182, "pitch": 57, "duration": 51, "velocity": 108}, {"time": 173182, "pitch": 60, "duration": 61, "velocity": 102}, {"time": 173182, "pitch": 65, "duration": 61, "velocity": 96}, {"time": 173283, "pitch": 53, "duration": 140, "velocity": 100}, {"time": 173283, "pitch": 56, "duration": 140, "velocity": 105}, {"time": 173293, "pitch": 60, "duration": 130, "velocity": 110}, {"time": 173293, "pitch": 65, "duration": 130, "velocity": 116}, {"time": 173423, "pitch": 65, "duration": 60, "velocity": 100}, {"time": 173433, "pitch": 53, "duration": 40, "velocity": 85}, {"time": 173433, "pitch": 56, "duration": 60, "velocity": 90}, {"time": 173513, "pitch": 53, "duration": 70, "velocity": 95}, {"time": 173513, "pitch": 56, "duration": 70, "velocity": 100}, {"time": 173523, "pitch": 60, "duration": 60, "velocity": 105}, {"time": 173523, "pitch": 65, "duration": 60, "velocity": 110}, {"time": 173663, "pitch": 53, "duration": 199, "velocity": 117}, {"time": 173663, "pitch": 56, "duration": 209, "velocity": 117}, {"time": 173663, "pitch": 60, "duration": 209, "velocity": 109}, {"time": 173663, "pitch": 65, "duration": 219, "velocity": 122}, {"time": 173902, "pitch": 56, "duration": 40, "velocity": 85}, {"time": 173902, "pitch": 60, "duration": 40, "velocity": 106}, {"time": 173902, "pitch": 65, "duration": 40, "velocity": 98}, {"time": 174002, "pitch": 53, "duration": 129, "velocity": 112}, {"time": 174002, "pitch": 56, "duration": 129, "velocity": 104}, {"time": 174002, "pitch": 60, "duration": 119, "velocity": 95}, {"time": 174002, "pitch": 65, "duration": 119, "velocity": 91}, {"time": 174141, "pitch": 53, "duration": 10, "velocity": 120}, {"time": 174141, "pitch": 56, "duration": 10, "velocity": 115}, {"time": 174141, "pitch": 60, "duration": 20, "velocity": 110}, {"time": 174141, "pitch": 65, "duration": 20, "velocity": 105}, {"time": 174241, "pitch": 53, "duration": 230, "velocity": 90}, {"time": 174251, "pitch": 56, "duration": 220, "velocity": 95}, {"time": 174261, "pitch": 60, "duration": 210, "velocity": 100}, {"time": 174271, "pitch": 65, "duration": 200, "velocity": 105}, {"time": 174481, "pitch": 53, "duration": 79, "velocity": 97}, {"time": 174481, "pitch": 56, "duration": 79, "velocity": 105}, {"time": 174481, "pitch": 60, "duration": 79, "velocity": 107}, {"time": 174481, "pitch": 65, "duration": 79, "velocity": 112}, {"time": 174620, "pitch": 53, "duration": 10, "velocity": 120}, {"time": 174620, "pitch": 56, "duration": 10, "velocity": 115}, {"time": 174620, "pitch": 60, "duration": 20, "velocity": 110}, {"time": 174620, "pitch": 65, "duration": 20, "velocity": 105}, {"time": 174720, "pitch": 55, "duration": 40, "velocity": 86}, {"time": 174720, "pitch": 59, "duration": 40, "velocity": 92}, {"time": 174730, "pitch": 62, "duration": 30, "velocity": 111}, {"time": 174730, "pitch": 67, "duration": 30, "velocity": 116}, {"time": 174860, "pitch": 62, "duration": 70, "velocity": 98}, {"time": 174860, "pitch": 67, "duration": 70, "velocity": 103}, {"time": 174870, "pitch": 55, "duration": 60, "velocity": 95}, {"time": 174870, "pitch": 59, "duration": 60, "velocity": 89}, {"time": 174959, "pitch": 55, "duration": 120, "velocity": 102}, {"time": 174959, "pitch": 59, "duration": 120, "velocity": 98}, {"time": 174969, "pitch": 62, "duration": 110, "velocity": 91}, {"time": 174969, "pitch": 67, "duration": 110, "velocity": 87}, {"time": 175099, "pitch": 55, "duration": 50, "velocity": 112}, {"time": 175099, "pitch": 59, "duration": 50, "velocity": 108}, {"time": 175099, "pitch": 62, "duration": 60, "velocity": 102}, {"time": 175099, "pitch": 67, "duration": 60, "velocity": 96}, {"time": 175199, "pitch": 48, "duration": 140, "velocity": 100}, {"time": 175199, "pitch": 55, "duration": 140, "velocity": 105}, {"time": 175209, "pitch": 60, "duration": 130, "velocity": 110}, {"time": 175209, "pitch": 64, "duration": 130, "velocity": 116}, {"time": 175339, "pitch": 64, "duration": 59, "velocity": 100}, {"time": 175349, "pitch": 48, "duration": 39, "velocity": 85}, {"time": 175349, "pitch": 55, "duration": 59, "velocity": 90}, {"time": 175428, "pitch": 48, "duration": 70, "velocity": 95}, {"time": 175428, "pitch": 55, "duration": 70, "velocity": 100}, {"time": 175438, "pitch": 60, "duration": 60, "velocity": 105}, {"time": 175438, "pitch": 64, "duration": 60, "velocity": 110}, {"time": 175578, "pitch": 48, "duration": 200, "velocity": 117}, {"time": 175578, "pitch": 55, "duration": 210, "velocity": 117}, {"time": 175578, "pitch": 60, "duration": 210, "velocity": 109}, {"time": 175578, "pitch": 64, "duration": 220, "velocity": 122}, {"time": 175817, "pitch": 55, "duration": 40, "velocity": 85}, {"time": 175817, "pitch": 60, "duration": 40, "velocity": 106}, {"time": 175817, "pitch": 64, "duration": 40, "velocity": 98}, {"time": 175917, "pitch": 48, "duration": 130, "velocity": 112}, {"time": 175917, "pitch": 55, "duration": 130, "velocity": 104}, {"time": 175917, "pitch": 60, "duration": 120, "velocity": 95}, {"time": 175917, "pitch": 64, "duration": 120, "velocity": 91}, {"time": 176057, "pitch": 48, "duration": 10, "velocity": 120}, {"time": 176057, "pitch": 55, "duration": 10, "velocity": 115}, {"time": 176057, "pitch": 60, "duration": 20, "velocity": 110}, {"time": 176057, "pitch": 64, "duration": 20, "velocity": 105}, {"time": 176157, "pitch": 48, "duration": 233, "velocity": 90}, {"time": 176167, "pitch": 55, "duration": 223, "velocity": 95}, {"time": 176177, "pitch": 60, "duration": 213, "velocity": 100}, {"time": 176187, "pitch": 64, "duration": 203, "velocity": 105}, {"time": 176400, "pitch": 48, "duration": 81, "velocity": 97}, {"time": 176400, "pitch": 55, "duration": 81, "velocity": 105}, {"time": 176400, "pitch": 60, "duration": 81, "velocity": 107}, {"time": 176400, "pitch": 64, "duration": 81, "velocity": 112}, {"time": 176542, "pitch": 48, "duration": 10, "velocity": 120}, {"time": 176542, "pitch": 55, "duration": 10, "velocity": 115}, {"time": 176542, "pitch": 60, "duration": 20, "velocity": 110}, {"time": 176542, "pitch": 64, "duration": 20, "velocity": 105}, {"time": 176643, "pitch": 48, "duration": 40, "velocity": 86}, {"time": 176643, "pitch": 55, "duration": 40, "velocity": 92}, {"time": 176653, "pitch": 60, "duration": 30, "velocity": 111}, {"time": 176653, "pitch": 64, "duration": 30, "velocity": 116}, {"time": 176783, "pitch": 60, "duration": 70, "velocity": 98}, {"time": 176783, "pitch": 64, "duration": 70, "velocity": 103}, {"time": 176793, "pitch": 48, "duration": 60, "velocity": 95}, {"time": 176793, "pitch": 55, "duration": 60, "velocity": 89}, {"time": 176883, "pitch": 48, "duration": 119, "velocity": 102}, {"time": 176883, "pitch": 55, "duration": 119, "velocity": 98}, {"time": 176893, "pitch": 60, "duration": 109, "velocity": 91}, {"time": 176893, "pitch": 64, "duration": 109, "velocity": 87}, {"time": 177022, "pitch": 48, "duration": 50, "velocity": 112}, {"time": 177022, "pitch": 55, "duration": 50, "velocity": 108}, {"time": 177022, "pitch": 60, "duration": 60, "velocity": 102}, {"time": 177022, "pitch": 64, "duration": 60, "velocity": 96}, {"time": 177122, "pitch": 53, "duration": 141, "velocity": 100}, {"time": 177122, "pitch": 56, "duration": 141, "velocity": 105}, {"time": 177132, "pitch": 60, "duration": 131, "velocity": 110}, {"time": 177132, "pitch": 65, "duration": 131, "velocity": 116}, {"time": 177263, "pitch": 65, "duration": 60, "velocity": 100}, {"time": 177273, "pitch": 53, "duration": 40, "velocity": 85}, {"time": 177273, "pitch": 56, "duration": 60, "velocity": 90}, {"time": 177353, "pitch": 53, "duration": 70, "velocity": 95}, {"time": 177353, "pitch": 56, "duration": 70, "velocity": 100}, {"time": 177363, "pitch": 60, "duration": 60, "velocity": 105}, {"time": 177363, "pitch": 65, "duration": 60, "velocity": 110}, {"time": 177503, "pitch": 53, "duration": 199, "velocity": 117}, {"time": 177503, "pitch": 56, "duration": 209, "velocity": 117}, {"time": 177503, "pitch": 60, "duration": 209, "velocity": 109}, {"time": 177503, "pitch": 65, "duration": 219, "velocity": 122}, {"time": 177741, "pitch": 56, "duration": 40, "velocity": 85}, {"time": 177741, "pitch": 60, "duration": 40, "velocity": 106}, {"time": 177741, "pitch": 65, "duration": 40, "velocity": 98}, {"time": 177840, "pitch": 53, "duration": 128, "velocity": 112}, {"time": 177840, "pitch": 56, "duration": 128, "velocity": 104}, {"time": 177840, "pitch": 60, "duration": 119, "velocity": 95}, {"time": 177840, "pitch": 65, "duration": 119, "velocity": 91}, {"time": 177978, "pitch": 53, "duration": 10, "velocity": 120}, {"time": 177978, "pitch": 56, "duration": 10, "velocity": 115}, {"time": 177978, "pitch": 60, "duration": 20, "velocity": 110}, {"time": 177978, "pitch": 65, "duration": 20, "velocity": 105}, {"time": 178077, "pitch": 53, "duration": 895, "velocity": 100}, {"time": 178087, "pitch": 56, "duration": 885, "velocity": 105}, {"time": 178097, "pitch": 60, "duration": 875, "velocity": 110}, {"time": 178107, "pitch": 65, "duration": 865, "velocity": 115}, {"time": 179003, "pitch": 48, "duration": 947, "velocity": 100}, {"time": 179023, "pitch": 55, "duration": 937, "velocity": 105}, {"time": 179043, "pitch": 60, "duration": 927, "velocity": 110}, {"time": 179053, "pitch": 64, "duration": 907, "velocity": 100}, {"time": 179093, "pitch": 67, "duration": 887, "velocity": 116}], "annotations": [{"time": 241, "annotation": {"number": 7, "value": 50}, "group": "control_change"}, {"time": 252, "annotation": {"number": 11, "value": 127}, "group": "control_change"}, {"time": 264, "annotation": {"number": 10, "value": 127}, "group": "control_change"}, {"time": 275, "annotation": {"number": 91, "value": 49}, "group": "control_change"}, {"time": 287, "annotation": {"number": 93, "value": 18}, "group": "control_change"}, {"time": 310, "annotation": {"number": 101, "value": 0}, "group": "control_change"}, {"time": 321, "annotation": {"number": 100, "value": 0}, "group": "control_change"}, {"time": 333, "annotation": {"number": 6, "value": 12}, "group": "control_change"}, {"time": 447, "annotation": {"number": 101, "value": 127}, "group": "control_change"}, {"time": 459, "annotation": {"number": 100, "value": 127}, "group": "control_change"}]}, {"program": 0, "is_drum": false, "name": "E.PIANO", "annotations": [{"time": 207, "annotation": {"number": 0, "value": 16}, "group": "control_change"}, {"time": 218, "annotation": {"number": 32, "value": 2}, "group": "control_change"}]}, {"program": 5, "is_drum": false, "name": "E.PIANO", "notes": [{"time": 483, "pitch": 48, "duration": 1916, "velocity": 77}, {"time": 483, "pitch": 64, "duration": 1916, "velocity": 83}, {"time": 483, "pitch": 67, "duration": 1916, "velocity": 82}, {"time": 483, "pitch": 72, "duration": 709, "velocity": 97}, {"time": 1202, "pitch": 74, "duration": 478, "velocity": 102}, {"time": 1680, "pitch": 72, "duration": 230, "velocity": 96}, {"time": 1920, "pitch": 79, "duration": 479, "velocity": 105}, {"time": 2159, "pitch": 72, "duration": 230, "velocity": 98}, {"time": 2399, "pitch": 57, "duration": 1923, "velocity": 77}, {"time": 2399, "pitch": 64, "duration": 1923, "velocity": 83}, {"time": 2399, "pitch": 69, "duration": 1923, "velocity": 87}, {"time": 2399, "pitch": 71, "duration": 708, "velocity": 91}, {"time": 3117, "pitch": 72, "duration": 483, "velocity": 96}, {"time": 3600, "pitch": 74, "duration": 233, "velocity": 92}, {"time": 3843, "pitch": 79, "duration": 479, "velocity": 102}, {"time": 4083, "pitch": 72, "duration": 229, "velocity": 100}, {"time": 4322, "pitch": 53, "duration": 958, "velocity": 92}, {"time": 4322, "pitch": 65, "duration": 359, "velocity": 83}, {"time": 4322, "pitch": 69, "duration": 958, "velocity": 90}, {"time": 4322, "pitch": 72, "duration": 958, "velocity": 100}, {"time": 4701, "pitch": 65, "duration": 399, "velocity": 105}, {"time": 5040, "pitch": 64, "duration": 170, "velocity": 94}, {"time": 5280, "pitch": 50, "duration": 958, "velocity": 86}, {"time": 5280, "pitch": 62, "duration": 958, "velocity": 89}, {"time": 5280, "pitch": 65, "duration": 958, "velocity": 92}, {"time": 5280, "pitch": 69, "duration": 958, "velocity": 100}, {"time": 5280, "pitch": 72, "duration": 958, "velocity": 92}, {"time": 6238, "pitch": 55, "duration": 965, "velocity": 86}, {"time": 6238, "pitch": 62, "duration": 965, "velocity": 86}, {"time": 6238, "pitch": 65, "duration": 965, "velocity": 89}, {"time": 6238, "pitch": 69, "duration": 965, "velocity": 89}, {"time": 6238, "pitch": 72, "duration": 965, "velocity": 94}, {"time": 7203, "pitch": 55, "duration": 958, "velocity": 80}, {"time": 7203, "pitch": 62, "duration": 958, "velocity": 85}, {"time": 7203, "pitch": 65, "duration": 958, "velocity": 87}, {"time": 7203, "pitch": 67, "duration": 958, "velocity": 92}, {"time": 7203, "pitch": 71, "duration": 958, "velocity": 98}, {"time": 8161, "pitch": 48, "duration": 1915, "velocity": 77}, {"time": 8161, "pitch": 64, "duration": 1915, "velocity": 83}, {"time": 8161, "pitch": 67, "duration": 1915, "velocity": 82}, {"time": 8161, "pitch": 72, "duration": 708, "velocity": 97}, {"time": 8879, "pitch": 74, "duration": 479, "velocity": 102}, {"time": 9358, "pitch": 72, "duration": 230, "velocity": 96}, {"time": 9598, "pitch": 79, "duration": 478, "velocity": 105}, {"time": 9837, "pitch": 72, "duration": 229, "velocity": 98}, {"time": 10076, "pitch": 57, "duration": 1924, "velocity": 77}, {"time": 10076, "pitch": 64, "duration": 1924, "velocity": 83}, {"time": 10076, "pitch": 69, "duration": 1924, "velocity": 87}, {"time": 10076, "pitch": 71, "duration": 716, "velocity": 91}, {"time": 10802, "pitch": 72, "duration": 479, "velocity": 96}, {"time": 11281, "pitch": 74, "duration": 230, "velocity": 92}, {"time": 11521, "pitch": 79, "duration": 479, "velocity": 102}, {"time": 11760, "pitch": 72, "duration": 230, "velocity": 100}, {"time": 12000, "pitch": 53, "duration": 957, "velocity": 92}, {"time": 12000, "pitch": 65, "duration": 359, "velocity": 83}, {"time": 12000, "pitch": 69, "duration": 957, "velocity": 90}, {"time": 12000, "pitch": 72, "duration": 957, "velocity": 100}, {"time": 12379, "pitch": 65, "duration": 399, "velocity": 105}, {"time": 12718, "pitch": 64, "duration": 170, "velocity": 94}, {"time": 12957, "pitch": 50, "duration": 966, "velocity": 86}, {"time": 12957, "pitch": 62, "duration": 966, "velocity": 89}, {"time": 12957, "pitch": 65, "duration": 966, "velocity": 92}, {"time": 12957, "pitch": 69, "duration": 966, "velocity": 100}, {"time": 12957, "pitch": 72, "duration": 966, "velocity": 92}, {"time": 13923, "pitch": 43, "duration": 648, "velocity": 97}, {"time": 13923, "pitch": 55, "duration": 618, "velocity": 87}, {"time": 13923, "pitch": 62, "duration": 638, "velocity": 117}, {"time": 13923, "pitch": 67, "duration": 658, "velocity": 102}, {"time": 13923, "pitch": 72, "duration": 648, "velocity": 107}, {"time": 14641, "pitch": 43, "duration": 120, "velocity": 115}, {"time": 14641, "pitch": 55, "duration": 120, "velocity": 97}, {"time": 14641, "pitch": 62, "duration": 100, "velocity": 107}, {"time": 14641, "pitch": 67, "duration": 110, "velocity": 90}, {"time": 14641, "pitch": 71, "duration": 120, "velocity": 112}, {"time": 15360, "pitch": 43, "duration": 478, "velocity": 94}, {"time": 15360, "pitch": 59, "duration": 478, "velocity": 85}, {"time": 15360, "pitch": 62, "duration": 478, "velocity": 103}, {"time": 15360, "pitch": 67, "duration": 478, "velocity": 102}, {"time": 15838, "pitch": 48, "duration": 1924, "velocity": 77}, {"time": 15838, "pitch": 64, "duration": 1924, "velocity": 83}, {"time": 15838, "pitch": 67, "duration": 1924, "velocity": 82}, {"time": 15838, "pitch": 72, "duration": 709, "velocity": 97}, {"time": 16557, "pitch": 74, "duration": 483, "velocity": 102}, {"time": 17040, "pitch": 72, "duration": 233, "velocity": 96}, {"time": 17283, "pitch": 79, "duration": 479, "velocity": 105}, {"time": 17522, "pitch": 72, "duration": 230, "velocity": 98}, {"time": 17762, "pitch": 57, "duration": 1915, "velocity": 77}, {"time": 17762, "pitch": 64, "duration": 1915, "velocity": 83}, {"time": 17762, "pitch": 69, "duration": 1915, "velocity": 87}, {"time": 17762, "pitch": 71, "duration": 708, "velocity": 91}, {"time": 18480, "pitch": 72, "duration": 479, "velocity": 96}, {"time": 18959, "pitch": 74, "duration": 229, "velocity": 92}, {"time": 19198, "pitch": 79, "duration": 479, "velocity": 102}, {"time": 19438, "pitch": 72, "duration": 229, "velocity": 100}, {"time": 19677, "pitch": 53, "duration": 966, "velocity": 92}, {"time": 19677, "pitch": 65, "duration": 359, "velocity": 83}, {"time": 19677, "pitch": 69, "duration": 966, "velocity": 90}, {"time": 19677, "pitch": 72, "duration": 966, "velocity": 100}, {"time": 20056, "pitch": 65, "duration": 404, "velocity": 105}, {"time": 20399, "pitch": 64, "duration": 173, "velocity": 94}, {"time": 20643, "pitch": 50, "duration": 958, "velocity": 86}, {"time": 20643, "pitch": 62, "duration": 958, "velocity": 89}, {"time": 20643, "pitch": 65, "duration": 958, "velocity": 92}, {"time": 20643, "pitch": 69, "duration": 958, "velocity": 100}, {"time": 20643, "pitch": 72, "duration": 958, "velocity": 92}, {"time": 21601, "pitch": 55, "duration": 957, "velocity": 86}, {"time": 21601, "pitch": 62, "duration": 957, "velocity": 86}, {"time": 21601, "pitch": 65, "duration": 957, "velocity": 89}, {"time": 21601, "pitch": 69, "duration": 957, "velocity": 89}, {"time": 21601, "pitch": 72, "duration": 957, "velocity": 94}, {"time": 22558, "pitch": 55, "duration": 966, "velocity": 80}, {"time": 22558, "pitch": 62, "duration": 966, "velocity": 85}, {"time": 22558, "pitch": 65, "duration": 966, "velocity": 87}, {"time": 22558, "pitch": 67, "duration": 966, "velocity": 92}, {"time": 22558, "pitch": 71, "duration": 966, "velocity": 98}, {"time": 23524, "pitch": 48, "duration": 1915, "velocity": 77}, {"time": 23524, "pitch": 64, "duration": 1915, "velocity": 83}, {"time": 23524, "pitch": 67, "duration": 1915, "velocity": 82}, {"time": 23524, "pitch": 72, "duration": 708, "velocity": 97}, {"time": 24242, "pitch": 74, "duration": 479, "velocity": 102}, {"time": 24721, "pitch": 72, "duration": 229, "velocity": 96}, {"time": 24960, "pitch": 79, "duration": 479, "velocity": 105}, {"time": 25200, "pitch": 72, "duration": 229, "velocity": 98}, {"time": 25439, "pitch": 57, "duration": 1924, "velocity": 77}, {"time": 25439, "pitch": 64, "duration": 1924, "velocity": 83}, {"time": 25439, "pitch": 69, "duration": 1924, "velocity": 87}, {"time": 25439, "pitch": 71, "duration": 709, "velocity": 91}, {"time": 26158, "pitch": 72, "duration": 482, "velocity": 96}, {"time": 26640, "pitch": 74, "duration": 234, "velocity": 92}, {"time": 26884, "pitch": 79, "duration": 479, "velocity": 102}, {"time": 27123, "pitch": 72, "duration": 230, "velocity": 100}, {"time": 27363, "pitch": 53, "duration": 957, "velocity": 86}, {"time": 27363, "pitch": 62, "duration": 957, "velocity": 86}, {"time": 27363, "pitch": 65, "duration": 957, "velocity": 89}, {"time": 27363, "pitch": 69, "duration": 957, "velocity": 89}, {"time": 27363, "pitch": 72, "duration": 957, "velocity": 94}, {"time": 28320, "pitch": 55, "duration": 958, "velocity": 80}, {"time": 28320, "pitch": 62, "duration": 958, "velocity": 85}, {"time": 28320, "pitch": 65, "duration": 958, "velocity": 87}, {"time": 28320, "pitch": 67, "duration": 958, "velocity": 92}, {"time": 28320, "pitch": 71, "duration": 958, "velocity": 98}, {"time": 29278, "pitch": 48, "duration": 966, "velocity": 86}, {"time": 29278, "pitch": 62, "duration": 966, "velocity": 86}, {"time": 29278, "pitch": 64, "duration": 966, "velocity": 89}, {"time": 29278, "pitch": 67, "duration": 966, "velocity": 89}, {"time": 29278, "pitch": 74, "duration": 966, "velocity": 94}, {"time": 30244, "pitch": 48, "duration": 957, "velocity": 80}, {"time": 30244, "pitch": 60, "duration": 957, "velocity": 98}, {"time": 30244, "pitch": 64, "duration": 957, "velocity": 87}, {"time": 30244, "pitch": 67, "duration": 957, "velocity": 85}, {"time": 30244, "pitch": 72, "duration": 957, "velocity": 92}, {"time": 31201, "pitch": 40, "duration": 1138, "velocity": 104}, {"time": 31201, "pitch": 59, "duration": 1128, "velocity": 85}, {"time": 31201, "pitch": 62, "duration": 1138, "velocity": 90}, {"time": 31201, "pitch": 67, "duration": 1118, "velocity": 97}, {"time": 32399, "pitch": 40, "duration": 189, "velocity": 79}, {"time": 32399, "pitch": 59, "duration": 209, "velocity": 92}, {"time": 32399, "pitch": 62, "duration": 179, "velocity": 99}, {"time": 32399, "pitch": 67, "duration": 179, "velocity": 107}, {"time": 32877, "pitch": 45, "duration": 856, "velocity": 104}, {"time": 32877, "pitch": 57, "duration": 886, "velocity": 99}, {"time": 32877, "pitch": 60, "duration": 876, "velocity": 108}, {"time": 32877, "pitch": 64, "duration": 866, "velocity": 102}, {"time": 33843, "pitch": 45, "duration": 1117, "velocity": 79}, {"time": 33843, "pitch": 57, "duration": 1097, "velocity": 88}, {"time": 33843, "pitch": 60, "duration": 1087, "velocity": 102}, {"time": 33843, "pitch": 64, "duration": 1097, "velocity": 108}, {"time": 35040, "pitch": 40, "duration": 1098, "velocity": 81}, {"time": 35040, "pitch": 59, "duration": 1098, "velocity": 100}, {"time": 35040, "pitch": 62, "duration": 1088, "velocity": 107}, {"time": 35040, "pitch": 67, "duration": 1078, "velocity": 102}, {"time": 36237, "pitch": 40, "duration": 160, "velocity": 81}, {"time": 36237, "pitch": 59, "duration": 180, "velocity": 85}, {"time": 36237, "pitch": 62, "duration": 170, "velocity": 90}, {"time": 36237, "pitch": 67, "duration": 180, "velocity": 97}, {"time": 36720, "pitch": 45, "duration": 403, "velocity": 87}, {"time": 36720, "pitch": 57, "duration": 423, "velocity": 102}, {"time": 36720, "pitch": 60, "duration": 363, "velocity": 97}, {"time": 36720, "pitch": 64, "duration": 393, "velocity": 88}, {"time": 37203, "pitch": 43, "duration": 399, "velocity": 85}, {"time": 37203, "pitch": 57, "duration": 359, "velocity": 97}, {"time": 37203, "pitch": 59, "duration": 349, "velocity": 97}, {"time": 37203, "pitch": 62, "duration": 359, "velocity": 99}, {"time": 37682, "pitch": 45, "duration": 1167, "velocity": 93}, {"time": 37682, "pitch": 57, "duration": 938, "velocity": 82}, {"time": 37682, "pitch": 60, "duration": 928, "velocity": 99}, {"time": 37682, "pitch": 64, "duration": 928, "velocity": 102}, {"time": 38640, "pitch": 57, "duration": 159, "velocity": 62}, {"time": 38640, "pitch": 60, "duration": 169, "velocity": 93}, {"time": 38640, "pitch": 64, "duration": 99, "velocity": 92}, {"time": 38780, "pitch": 65, "duration": 70, "velocity": 85}, {"time": 38879, "pitch": 40, "duration": 678, "velocity": 90}, {"time": 38879, "pitch": 59, "duration": 668, "velocity": 104}, {"time": 38879, "pitch": 62, "duration": 678, "velocity": 110}, {"time": 38879, "pitch": 67, "duration": 658, "velocity": 102}, {"time": 39597, "pitch": 40, "duration": 866, "velocity": 81}, {"time": 39597, "pitch": 59, "duration": 866, "velocity": 93}, {"time": 39597, "pitch": 62, "duration": 876, "velocity": 99}, {"time": 39597, "pitch": 67, "duration": 846, "velocity": 108}, {"time": 40563, "pitch": 45, "duration": 509, "velocity": 102}, {"time": 40563, "pitch": 60, "duration": 429, "velocity": 99}, {"time": 40563, "pitch": 64, "duration": 429, "velocity": 97}, {"time": 40563, "pitch": 69, "duration": 429, "velocity": 117}, {"time": 41042, "pitch": 55, "duration": 239, "velocity": 112}, {"time": 41042, "pitch": 60, "duration": 239, "velocity": 99}, {"time": 41042, "pitch": 64, "duration": 239, "velocity": 107}, {"time": 41042, "pitch": 67, "duration": 239, "velocity": 96}, {"time": 41521, "pitch": 50, "duration": 199, "velocity": 86}, {"time": 41521, "pitch": 60, "duration": 199, "velocity": 89}, {"time": 41521, "pitch": 64, "duration": 199, "velocity": 98}, {"time": 41521, "pitch": 66, "duration": 199, "velocity": 94}, {"time": 41521, "pitch": 69, "duration": 199, "velocity": 90}, {"time": 41760, "pitch": 50, "duration": 379, "velocity": 87}, {"time": 41760, "pitch": 60, "duration": 379, "velocity": 84}, {"time": 41760, "pitch": 64, "duration": 379, "velocity": 88}, {"time": 41760, "pitch": 66, "duration": 379, "velocity": 88}, {"time": 41760, "pitch": 69, "duration": 379, "velocity": 76}, {"time": 42139, "pitch": 42, "duration": 339, "velocity": 97}, {"time": 42139, "pitch": 60, "duration": 339, "velocity": 94}, {"time": 42139, "pitch": 64, "duration": 339, "velocity": 98}, {"time": 42139, "pitch": 66, "duration": 339, "velocity": 101}, {"time": 42139, "pitch": 69, "duration": 339, "velocity": 86}, {"time": 42478, "pitch": 42, "duration": 120, "velocity": 84}, {"time": 42478, "pitch": 60, "duration": 130, "velocity": 82}, {"time": 42478, "pitch": 64, "duration": 120, "velocity": 79}, {"time": 42478, "pitch": 66, "duration": 150, "velocity": 92}, {"time": 42478, "pitch": 69, "duration": 140, "velocity": 88}, {"time": 42718, "pitch": 38, "duration": 681, "velocity": 88}, {"time": 42718, "pitch": 60, "duration": 651, "velocity": 97}, {"time": 42718, "pitch": 65, "duration": 651, "velocity": 102}, {"time": 42718, "pitch": 69, "duration": 661, "velocity": 112}, {"time": 43440, "pitch": 38, "duration": 473, "velocity": 87}, {"time": 43440, "pitch": 60, "duration": 463, "velocity": 81}, {"time": 43440, "pitch": 65, "duration": 473, "velocity": 97}, {"time": 43440, "pitch": 69, "duration": 453, "velocity": 102}, {"time": 43923, "pitch": 60, "duration": 389, "velocity": 100}, {"time": 43923, "pitch": 62, "duration": 389, "velocity": 107}, {"time": 43923, "pitch": 65, "duration": 399, "velocity": 108}, {"time": 43923, "pitch": 69, "duration": 379, "velocity": 104}, {"time": 44402, "pitch": 38, "duration": 51, "velocity": 67}, {"time": 44402, "pitch": 60, "duration": 139, "velocity": 84}, {"time": 44402, "pitch": 62, "duration": 129, "velocity": 79}, {"time": 44402, "pitch": 65, "duration": 149, "velocity": 90}, {"time": 44402, "pitch": 69, "duration": 139, "velocity": 84}, {"time": 44641, "pitch": 43, "duration": 120, "velocity": 87}, {"time": 44641, "pitch": 55, "duration": 120, "velocity": 87}, {"time": 44641, "pitch": 60, "duration": 120, "velocity": 100}, {"time": 44641, "pitch": 65, "duration": 120, "velocity": 93}, {"time": 44641, "pitch": 69, "duration": 120, "velocity": 108}, {"time": 44782, "pitch": 43, "duration": 80, "velocity": 82}, {"time": 44782, "pitch": 55, "duration": 80, "velocity": 82}, {"time": 44782, "pitch": 60, "duration": 70, "velocity": 97}, {"time": 44782, "pitch": 65, "duration": 70, "velocity": 93}, {"time": 44782, "pitch": 69, "duration": 90, "velocity": 92}, {"time": 45359, "pitch": 43, "duration": 709, "velocity": 80}, {"time": 45359, "pitch": 55, "duration": 709, "velocity": 96}, {"time": 45359, "pitch": 60, "duration": 709, "velocity": 100}, {"time": 45359, "pitch": 65, "duration": 709, "velocity": 110}, {"time": 45359, "pitch": 69, "duration": 709, "velocity": 102}, {"time": 46078, "pitch": 43, "duration": 469, "velocity": 80}, {"time": 46078, "pitch": 55, "duration": 469, "velocity": 96}, {"time": 46078, "pitch": 59, "duration": 469, "velocity": 100}, {"time": 46078, "pitch": 65, "duration": 469, "velocity": 110}, {"time": 46078, "pitch": 67, "duration": 469, "velocity": 102}, {"time": 46557, "pitch": 48, "duration": 1923, "velocity": 83}, {"time": 46557, "pitch": 62, "duration": 965, "velocity": 91}, {"time": 46557, "pitch": 64, "duration": 965, "velocity": 103}, {"time": 46557, "pitch": 67, "duration": 965, "velocity": 91}, {"time": 47522, "pitch": 60, "duration": 958, "velocity": 92}, {"time": 47522, "pitch": 64, "duration": 958, "velocity": 106}, {"time": 47522, "pitch": 67, "duration": 958, "velocity": 85}, {"time": 48480, "pitch": 52, "duration": 1923, "velocity": 100}, {"time": 48480, "pitch": 59, "duration": 958, "velocity": 85}, {"time": 48480, "pitch": 62, "duration": 958, "velocity": 102}, {"time": 48480, "pitch": 67, "duration": 958, "velocity": 89}, {"time": 49438, "pitch": 67, "duration": 965, "velocity": 89}, {"time": 49438, "pitch": 71, "duration": 965, "velocity": 94}, {"time": 49438, "pitch": 74, "duration": 965, "velocity": 95}, {"time": 50403, "pitch": 57, "duration": 1437, "velocity": 79}, {"time": 50403, "pitch": 64, "duration": 1437, "velocity": 97}, {"time": 50403, "pitch": 69, "duration": 1437, "velocity": 92}, {"time": 50403, "pitch": 72, "duration": 1437, "velocity": 98}, {"time": 51840, "pitch": 57, "duration": 479, "velocity": 83}, {"time": 51840, "pitch": 64, "duration": 479, "velocity": 86}, {"time": 51840, "pitch": 69, "duration": 479, "velocity": 88}, {"time": 51840, "pitch": 72, "duration": 479, "velocity": 95}, {"time": 52319, "pitch": 53, "duration": 957, "velocity": 89}, {"time": 52319, "pitch": 65, "duration": 957, "velocity": 91}, {"time": 52319, "pitch": 69, "duration": 957, "velocity": 97}, {"time": 52319, "pitch": 72, "duration": 957, "velocity": 100}, {"time": 53276, "pitch": 55, "duration": 487, "velocity": 89}, {"time": 53276, "pitch": 65, "duration": 487, "velocity": 84}, {"time": 53276, "pitch": 69, "duration": 487, "velocity": 90}, {"time": 53276, "pitch": 72, "duration": 487, "velocity": 97}, {"time": 53763, "pitch": 55, "duration": 479, "velocity": 97}, {"time": 53763, "pitch": 67, "duration": 479, "velocity": 93}, {"time": 53763, "pitch": 71, "duration": 479, "velocity": 97}, {"time": 53763, "pitch": 74, "duration": 479, "velocity": 101}, {"time": 54242, "pitch": 48, "duration": 958, "velocity": 64}, {"time": 54242, "pitch": 74, "duration": 958, "velocity": 78}, {"time": 54242, "pitch": 76, "duration": 958, "velocity": 89}, {"time": 54242, "pitch": 79, "duration": 958, "velocity": 94}, {"time": 55200, "pitch": 48, "duration": 957, "velocity": 77}, {"time": 55200, "pitch": 64, "duration": 957, "velocity": 99}, {"time": 55200, "pitch": 67, "duration": 957, "velocity": 93}, {"time": 55200, "pitch": 72, "duration": 957, "velocity": 98}, {"time": 56157, "pitch": 52, "duration": 330, "velocity": 98}, {"time": 56157, "pitch": 62, "duration": 330, "velocity": 92}, {"time": 56157, "pitch": 67, "duration": 350, "velocity": 89}, {"time": 56157, "pitch": 71, "duration": 340, "velocity": 98}, {"time": 56538, "pitch": 52, "duration": 120, "velocity": 97}, {"time": 56538, "pitch": 62, "duration": 99, "velocity": 86}, {"time": 56538, "pitch": 67, "duration": 109, "velocity": 92}, {"time": 56538, "pitch": 71, "duration": 109, "velocity": 89}, {"time": 56880, "pitch": 57, "duration": 1181, "velocity": 95}, {"time": 56880, "pitch": 64, "duration": 1181, "velocity": 103}, {"time": 56880, "pitch": 69, "duration": 1181, "velocity": 109}, {"time": 56880, "pitch": 72, "duration": 1181, "velocity": 117}, {"time": 58081, "pitch": 50, "duration": 1915, "velocity": 83}, {"time": 58081, "pitch": 65, "duration": 1915, "velocity": 92}, {"time": 58081, "pitch": 69, "duration": 1915, "velocity": 94}, {"time": 58081, "pitch": 72, "duration": 1666, "velocity": 97}, {"time": 59038, "pitch": 84, "duration": 958, "velocity": 111}, {"time": 59419, "pitch": 81, "duration": 558, "velocity": 103}, {"time": 59757, "pitch": 72, "duration": 169, "velocity": 103}, {"time": 59996, "pitch": 53, "duration": 966, "velocity": 78}, {"time": 59996, "pitch": 65, "duration": 966, "velocity": 84}, {"time": 59996, "pitch": 68, "duration": 966, "velocity": 92}, {"time": 59996, "pitch": 72, "duration": 966, "velocity": 101}, {"time": 60962, "pitch": 55, "duration": 479, "velocity": 83}, {"time": 60962, "pitch": 65, "duration": 479, "velocity": 85}, {"time": 60962, "pitch": 68, "duration": 479, "velocity": 97}, {"time": 60962, "pitch": 72, "duration": 479, "velocity": 102}, {"time": 61441, "pitch": 55, "duration": 479, "velocity": 78}, {"time": 61441, "pitch": 67, "duration": 479, "velocity": 91}, {"time": 61441, "pitch": 71, "duration": 479, "velocity": 94}, {"time": 61441, "pitch": 74, "duration": 479, "velocity": 102}, {"time": 61920, "pitch": 48, "duration": 1923, "velocity": 77}, {"time": 61920, "pitch": 64, "duration": 1923, "velocity": 83}, {"time": 61920, "pitch": 67, "duration": 1923, "velocity": 82}, {"time": 61920, "pitch": 72, "duration": 708, "velocity": 97}, {"time": 62638, "pitch": 74, "duration": 479, "velocity": 102}, {"time": 63117, "pitch": 72, "duration": 229, "velocity": 96}, {"time": 63356, "pitch": 79, "duration": 487, "velocity": 105}, {"time": 63599, "pitch": 72, "duration": 234, "velocity": 98}, {"time": 63843, "pitch": 57, "duration": 1915, "velocity": 77}, {"time": 63843, "pitch": 64, "duration": 1915, "velocity": 83}, {"time": 63843, "pitch": 69, "duration": 1915, "velocity": 87}, {"time": 63843, "pitch": 71, "duration": 708, "velocity": 91}, {"time": 64561, "pitch": 72, "duration": 479, "velocity": 96}, {"time": 65040, "pitch": 74, "duration": 229, "velocity": 92}, {"time": 65279, "pitch": 79, "duration": 479, "velocity": 102}, {"time": 65519, "pitch": 72, "duration": 229, "velocity": 100}, {"time": 65758, "pitch": 53, "duration": 966, "velocity": 92}, {"time": 65758, "pitch": 65, "duration": 359, "velocity": 83}, {"time": 65758, "pitch": 69, "duration": 966, "velocity": 90}, {"time": 65758, "pitch": 72, "duration": 966, "velocity": 100}, {"time": 66137, "pitch": 65, "duration": 404, "velocity": 105}, {"time": 66481, "pitch": 64, "duration": 172, "velocity": 94}, {"time": 66724, "pitch": 50, "duration": 958, "velocity": 86}, {"time": 66724, "pitch": 62, "duration": 958, "velocity": 89}, {"time": 66724, "pitch": 65, "duration": 958, "velocity": 92}, {"time": 66724, "pitch": 69, "duration": 958, "velocity": 100}, {"time": 66724, "pitch": 72, "duration": 958, "velocity": 92}, {"time": 67682, "pitch": 55, "duration": 957, "velocity": 86}, {"time": 67682, "pitch": 62, "duration": 957, "velocity": 86}, {"time": 67682, "pitch": 65, "duration": 957, "velocity": 89}, {"time": 67682, "pitch": 69, "duration": 957, "velocity": 89}, {"time": 67682, "pitch": 72, "duration": 957, "velocity": 94}, {"time": 68639, "pitch": 55, "duration": 958, "velocity": 80}, {"time": 68639, "pitch": 62, "duration": 958, "velocity": 85}, {"time": 68639, "pitch": 65, "duration": 958, "velocity": 87}, {"time": 68639, "pitch": 71, "duration": 958, "velocity": 98}, {"time": 68879, "pitch": 79, "duration": 110, "velocity": 112}, {"time": 69019, "pitch": 74, "duration": 120, "velocity": 125}, {"time": 69259, "pitch": 67, "duration": 120, "velocity": 103}, {"time": 69597, "pitch": 48, "duration": 1923, "velocity": 77}, {"time": 69597, "pitch": 64, "duration": 1923, "velocity": 83}, {"time": 69597, "pitch": 67, "duration": 1923, "velocity": 82}, {"time": 69597, "pitch": 72, "duration": 716, "velocity": 97}, {"time": 70323, "pitch": 74, "duration": 479, "velocity": 102}, {"time": 70802, "pitch": 72, "duration": 230, "velocity": 96}, {"time": 71042, "pitch": 79, "duration": 478, "velocity": 105}, {"time": 71281, "pitch": 72, "duration": 229, "velocity": 98}, {"time": 71520, "pitch": 57, "duration": 1924, "velocity": 77}, {"time": 71520, "pitch": 64, "duration": 1924, "velocity": 83}, {"time": 71520, "pitch": 69, "duration": 1924, "velocity": 87}, {"time": 71520, "pitch": 71, "duration": 709, "velocity": 91}, {"time": 72239, "pitch": 72, "duration": 479, "velocity": 96}, {"time": 72718, "pitch": 74, "duration": 229, "velocity": 92}, {"time": 72957, "pitch": 79, "duration": 487, "velocity": 102}, {"time": 73200, "pitch": 72, "duration": 234, "velocity": 100}, {"time": 73444, "pitch": 53, "duration": 957, "velocity": 92}, {"time": 73444, "pitch": 65, "duration": 359, "velocity": 83}, {"time": 73444, "pitch": 69, "duration": 957, "velocity": 90}, {"time": 73444, "pitch": 72, "duration": 957, "velocity": 100}, {"time": 73823, "pitch": 65, "duration": 399, "velocity": 105}, {"time": 74162, "pitch": 64, "duration": 170, "velocity": 94}, {"time": 74401, "pitch": 50, "duration": 958, "velocity": 86}, {"time": 74401, "pitch": 62, "duration": 958, "velocity": 89}, {"time": 74401, "pitch": 65, "duration": 958, "velocity": 92}, {"time": 74401, "pitch": 69, "duration": 958, "velocity": 100}, {"time": 74401, "pitch": 72, "duration": 958, "velocity": 92}, {"time": 75359, "pitch": 55, "duration": 958, "velocity": 86}, {"time": 75359, "pitch": 62, "duration": 958, "velocity": 86}, {"time": 75359, "pitch": 65, "duration": 958, "velocity": 89}, {"time": 75359, "pitch": 69, "duration": 958, "velocity": 89}, {"time": 75359, "pitch": 72, "duration": 958, "velocity": 94}, {"time": 76317, "pitch": 55, "duration": 965, "velocity": 80}, {"time": 76317, "pitch": 62, "duration": 965, "velocity": 85}, {"time": 76317, "pitch": 65, "duration": 965, "velocity": 87}, {"time": 76317, "pitch": 67, "duration": 965, "velocity": 92}, {"time": 76317, "pitch": 71, "duration": 965, "velocity": 98}, {"time": 77282, "pitch": 48, "duration": 1916, "velocity": 77}, {"time": 77282, "pitch": 64, "duration": 1916, "velocity": 83}, {"time": 77282, "pitch": 67, "duration": 1916, "velocity": 82}, {"time": 77282, "pitch": 72, "duration": 709, "velocity": 97}, {"time": 78001, "pitch": 74, "duration": 479, "velocity": 102}, {"time": 78480, "pitch": 72, "duration": 229, "velocity": 96}, {"time": 78719, "pitch": 79, "duration": 479, "velocity": 105}, {"time": 78959, "pitch": 72, "duration": 229, "velocity": 98}, {"time": 79198, "pitch": 57, "duration": 1923, "velocity": 77}, {"time": 79198, "pitch": 64, "duration": 1923, "velocity": 83}, {"time": 79198, "pitch": 69, "duration": 1923, "velocity": 87}, {"time": 79198, "pitch": 71, "duration": 712, "velocity": 91}, {"time": 79920, "pitch": 72, "duration": 483, "velocity": 96}, {"time": 80403, "pitch": 74, "duration": 229, "velocity": 92}, {"time": 80642, "pitch": 79, "duration": 479, "velocity": 102}, {"time": 80882, "pitch": 72, "duration": 229, "velocity": 100}, {"time": 81121, "pitch": 53, "duration": 958, "velocity": 86}, {"time": 81121, "pitch": 62, "duration": 958, "velocity": 86}, {"time": 81121, "pitch": 65, "duration": 958, "velocity": 89}, {"time": 81121, "pitch": 69, "duration": 958, "velocity": 89}, {"time": 81121, "pitch": 72, "duration": 958, "velocity": 94}, {"time": 82079, "pitch": 55, "duration": 958, "velocity": 80}, {"time": 82079, "pitch": 62, "duration": 958, "velocity": 85}, {"time": 82079, "pitch": 65, "duration": 958, "velocity": 87}, {"time": 82079, "pitch": 67, "duration": 958, "velocity": 92}, {"time": 82079, "pitch": 71, "duration": 958, "velocity": 98}, {"time": 83037, "pitch": 48, "duration": 965, "velocity": 86}, {"time": 83037, "pitch": 62, "duration": 965, "velocity": 86}, {"time": 83037, "pitch": 64, "duration": 965, "velocity": 89}, {"time": 83037, "pitch": 67, "duration": 965, "velocity": 89}, {"time": 83037, "pitch": 74, "duration": 965, "velocity": 94}, {"time": 84002, "pitch": 48, "duration": 958, "velocity": 80}, {"time": 84002, "pitch": 60, "duration": 958, "velocity": 98}, {"time": 84002, "pitch": 64, "duration": 958, "velocity": 87}, {"time": 84002, "pitch": 67, "duration": 958, "velocity": 85}, {"time": 84002, "pitch": 72, "duration": 958, "velocity": 92}, {"time": 84960, "pitch": 40, "duration": 1137, "velocity": 104}, {"time": 84960, "pitch": 59, "duration": 1127, "velocity": 85}, {"time": 84960, "pitch": 62, "duration": 1137, "velocity": 90}, {"time": 84960, "pitch": 67, "duration": 1117, "velocity": 97}, {"time": 86157, "pitch": 40, "duration": 190, "velocity": 79}, {"time": 86157, "pitch": 59, "duration": 210, "velocity": 92}, {"time": 86157, "pitch": 62, "duration": 180, "velocity": 99}, {"time": 86157, "pitch": 67, "duration": 180, "velocity": 107}, {"time": 86640, "pitch": 45, "duration": 852, "velocity": 104}, {"time": 86640, "pitch": 57, "duration": 882, "velocity": 99}, {"time": 86640, "pitch": 60, "duration": 872, "velocity": 108}, {"time": 86640, "pitch": 64, "duration": 862, "velocity": 102}, {"time": 87602, "pitch": 45, "duration": 1117, "velocity": 79}, {"time": 87602, "pitch": 57, "duration": 1097, "velocity": 88}, {"time": 87602, "pitch": 60, "duration": 1087, "velocity": 102}, {"time": 87602, "pitch": 64, "duration": 1097, "velocity": 108}, {"time": 88799, "pitch": 40, "duration": 1100, "velocity": 81}, {"time": 88799, "pitch": 59, "duration": 1100, "velocity": 100}, {"time": 88799, "pitch": 62, "duration": 1089, "velocity": 107}, {"time": 88799, "pitch": 67, "duration": 1079, "velocity": 102}, {"time": 90000, "pitch": 40, "duration": 162, "velocity": 81}, {"time": 90000, "pitch": 59, "duration": 182, "velocity": 85}, {"time": 90000, "pitch": 62, "duration": 172, "velocity": 90}, {"time": 90000, "pitch": 67, "duration": 182, "velocity": 97}, {"time": 90483, "pitch": 45, "duration": 399, "velocity": 87}, {"time": 90483, "pitch": 57, "duration": 419, "velocity": 102}, {"time": 90483, "pitch": 60, "duration": 359, "velocity": 97}, {"time": 90483, "pitch": 64, "duration": 389, "velocity": 88}, {"time": 90962, "pitch": 43, "duration": 399, "velocity": 85}, {"time": 90962, "pitch": 57, "duration": 359, "velocity": 97}, {"time": 90962, "pitch": 59, "duration": 349, "velocity": 97}, {"time": 90962, "pitch": 62, "duration": 359, "velocity": 99}, {"time": 91440, "pitch": 45, "duration": 1168, "velocity": 93}, {"time": 91440, "pitch": 57, "duration": 938, "velocity": 82}, {"time": 91440, "pitch": 60, "duration": 928, "velocity": 99}, {"time": 91440, "pitch": 64, "duration": 928, "velocity": 102}, {"time": 92398, "pitch": 57, "duration": 160, "velocity": 62}, {"time": 92398, "pitch": 60, "duration": 170, "velocity": 93}, {"time": 92398, "pitch": 64, "duration": 100, "velocity": 92}, {"time": 92539, "pitch": 65, "duration": 70, "velocity": 85}, {"time": 92638, "pitch": 40, "duration": 681, "velocity": 90}, {"time": 92638, "pitch": 59, "duration": 671, "velocity": 104}, {"time": 92638, "pitch": 62, "duration": 681, "velocity": 110}, {"time": 92638, "pitch": 67, "duration": 661, "velocity": 102}, {"time": 93360, "pitch": 40, "duration": 862, "velocity": 81}, {"time": 93360, "pitch": 59, "duration": 862, "velocity": 93}, {"time": 93360, "pitch": 62, "duration": 872, "velocity": 99}, {"time": 93360, "pitch": 67, "duration": 842, "velocity": 108}, {"time": 94321, "pitch": 45, "duration": 509, "velocity": 102}, {"time": 94321, "pitch": 60, "duration": 429, "velocity": 99}, {"time": 94321, "pitch": 64, "duration": 429, "velocity": 97}, {"time": 94321, "pitch": 69, "duration": 429, "velocity": 117}, {"time": 94800, "pitch": 55, "duration": 240, "velocity": 112}, {"time": 94800, "pitch": 60, "duration": 240, "velocity": 99}, {"time": 94800, "pitch": 64, "duration": 240, "velocity": 107}, {"time": 94800, "pitch": 67, "duration": 240, "velocity": 96}, {"time": 95279, "pitch": 50, "duration": 200, "velocity": 86}, {"time": 95279, "pitch": 60, "duration": 200, "velocity": 89}, {"time": 95279, "pitch": 64, "duration": 200, "velocity": 98}, {"time": 95279, "pitch": 66, "duration": 200, "velocity": 94}, {"time": 95279, "pitch": 69, "duration": 200, "velocity": 90}, {"time": 95519, "pitch": 50, "duration": 379, "velocity": 87}, {"time": 95519, "pitch": 60, "duration": 379, "velocity": 84}, {"time": 95519, "pitch": 64, "duration": 379, "velocity": 88}, {"time": 95519, "pitch": 66, "duration": 379, "velocity": 88}, {"time": 95519, "pitch": 69, "duration": 379, "velocity": 76}, {"time": 95898, "pitch": 42, "duration": 339, "velocity": 97}, {"time": 95898, "pitch": 60, "duration": 339, "velocity": 94}, {"time": 95898, "pitch": 64, "duration": 339, "velocity": 98}, {"time": 95898, "pitch": 66, "duration": 339, "velocity": 101}, {"time": 95898, "pitch": 69, "duration": 339, "velocity": 86}, {"time": 96237, "pitch": 42, "duration": 120, "velocity": 84}, {"time": 96237, "pitch": 60, "duration": 130, "velocity": 82}, {"time": 96237, "pitch": 64, "duration": 120, "velocity": 79}, {"time": 96237, "pitch": 66, "duration": 150, "velocity": 92}, {"time": 96237, "pitch": 69, "duration": 140, "velocity": 88}, {"time": 96476, "pitch": 38, "duration": 687, "velocity": 88}, {"time": 96476, "pitch": 60, "duration": 657, "velocity": 97}, {"time": 96476, "pitch": 65, "duration": 657, "velocity": 102}, {"time": 96476, "pitch": 69, "duration": 667, "velocity": 112}, {"time": 97203, "pitch": 38, "duration": 468, "velocity": 87}, {"time": 97203, "pitch": 60, "duration": 458, "velocity": 81}, {"time": 97203, "pitch": 65, "duration": 468, "velocity": 97}, {"time": 97203, "pitch": 69, "duration": 448, "velocity": 102}, {"time": 97681, "pitch": 60, "duration": 389, "velocity": 100}, {"time": 97681, "pitch": 62, "duration": 389, "velocity": 107}, {"time": 97681, "pitch": 65, "duration": 399, "velocity": 108}, {"time": 97681, "pitch": 69, "duration": 380, "velocity": 104}, {"time": 98160, "pitch": 38, "duration": 51, "velocity": 67}, {"time": 98160, "pitch": 60, "duration": 140, "velocity": 84}, {"time": 98160, "pitch": 62, "duration": 130, "velocity": 79}, {"time": 98160, "pitch": 65, "duration": 150, "velocity": 90}, {"time": 98160, "pitch": 69, "duration": 140, "velocity": 84}, {"time": 98400, "pitch": 43, "duration": 119, "velocity": 87}, {"time": 98400, "pitch": 55, "duration": 119, "velocity": 87}, {"time": 98400, "pitch": 60, "duration": 119, "velocity": 100}, {"time": 98400, "pitch": 65, "duration": 119, "velocity": 93}, {"time": 98400, "pitch": 69, "duration": 119, "velocity": 108}, {"time": 98540, "pitch": 43, "duration": 80, "velocity": 82}, {"time": 98540, "pitch": 55, "duration": 80, "velocity": 82}, {"time": 98540, "pitch": 60, "duration": 70, "velocity": 97}, {"time": 98540, "pitch": 65, "duration": 70, "velocity": 93}, {"time": 98540, "pitch": 69, "duration": 90, "velocity": 92}, {"time": 99118, "pitch": 43, "duration": 708, "velocity": 80}, {"time": 99118, "pitch": 55, "duration": 708, "velocity": 96}, {"time": 99118, "pitch": 60, "duration": 708, "velocity": 100}, {"time": 99118, "pitch": 65, "duration": 708, "velocity": 110}, {"time": 99118, "pitch": 69, "duration": 708, "velocity": 102}, {"time": 99836, "pitch": 43, "duration": 477, "velocity": 80}, {"time": 99836, "pitch": 55, "duration": 477, "velocity": 96}, {"time": 99836, "pitch": 59, "duration": 477, "velocity": 100}, {"time": 99836, "pitch": 65, "duration": 477, "velocity": 110}, {"time": 99836, "pitch": 67, "duration": 477, "velocity": 102}, {"time": 100323, "pitch": 48, "duration": 1916, "velocity": 83}, {"time": 100323, "pitch": 62, "duration": 958, "velocity": 91}, {"time": 100323, "pitch": 64, "duration": 958, "velocity": 103}, {"time": 100323, "pitch": 67, "duration": 958, "velocity": 91}, {"time": 101281, "pitch": 60, "duration": 958, "velocity": 92}, {"time": 101281, "pitch": 64, "duration": 958, "velocity": 106}, {"time": 101281, "pitch": 67, "duration": 958, "velocity": 85}, {"time": 102239, "pitch": 52, "duration": 1923, "velocity": 100}, {"time": 102239, "pitch": 59, "duration": 957, "velocity": 85}, {"time": 102239, "pitch": 62, "duration": 957, "velocity": 102}, {"time": 102239, "pitch": 67, "duration": 957, "velocity": 89}, {"time": 103196, "pitch": 67, "duration": 966, "velocity": 89}, {"time": 103196, "pitch": 71, "duration": 966, "velocity": 94}, {"time": 103196, "pitch": 74, "duration": 966, "velocity": 95}, {"time": 104162, "pitch": 57, "duration": 1436, "velocity": 79}, {"time": 104162, "pitch": 64, "duration": 1436, "velocity": 97}, {"time": 104162, "pitch": 69, "duration": 1436, "velocity": 92}, {"time": 104162, "pitch": 72, "duration": 1436, "velocity": 98}, {"time": 105598, "pitch": 57, "duration": 479, "velocity": 83}, {"time": 105598, "pitch": 64, "duration": 479, "velocity": 86}, {"time": 105598, "pitch": 69, "duration": 479, "velocity": 88}, {"time": 105598, "pitch": 72, "duration": 479, "velocity": 95}, {"time": 106077, "pitch": 53, "duration": 966, "velocity": 89}, {"time": 106077, "pitch": 65, "duration": 966, "velocity": 91}, {"time": 106077, "pitch": 69, "duration": 966, "velocity": 97}, {"time": 106077, "pitch": 72, "duration": 966, "velocity": 100}, {"time": 107043, "pitch": 55, "duration": 479, "velocity": 89}, {"time": 107043, "pitch": 65, "duration": 479, "velocity": 84}, {"time": 107043, "pitch": 69, "duration": 479, "velocity": 90}, {"time": 107043, "pitch": 72, "duration": 479, "velocity": 97}, {"time": 107522, "pitch": 55, "duration": 479, "velocity": 97}, {"time": 107522, "pitch": 67, "duration": 479, "velocity": 93}, {"time": 107522, "pitch": 71, "duration": 479, "velocity": 97}, {"time": 107522, "pitch": 74, "duration": 479, "velocity": 101}, {"time": 108001, "pitch": 48, "duration": 957, "velocity": 64}, {"time": 108001, "pitch": 74, "duration": 957, "velocity": 78}, {"time": 108001, "pitch": 76, "duration": 957, "velocity": 89}, {"time": 108001, "pitch": 79, "duration": 957, "velocity": 94}, {"time": 108958, "pitch": 48, "duration": 966, "velocity": 77}, {"time": 108958, "pitch": 64, "duration": 966, "velocity": 99}, {"time": 108958, "pitch": 67, "duration": 966, "velocity": 93}, {"time": 108958, "pitch": 72, "duration": 966, "velocity": 98}, {"time": 109924, "pitch": 52, "duration": 329, "velocity": 98}, {"time": 109924, "pitch": 62, "duration": 329, "velocity": 92}, {"time": 109924, "pitch": 67, "duration": 349, "velocity": 89}, {"time": 109924, "pitch": 71, "duration": 339, "velocity": 98}, {"time": 110304, "pitch": 52, "duration": 120, "velocity": 97}, {"time": 110304, "pitch": 62, "duration": 100, "velocity": 86}, {"time": 110304, "pitch": 67, "duration": 110, "velocity": 92}, {"time": 110304, "pitch": 71, "duration": 110, "velocity": 89}, {"time": 110642, "pitch": 57, "duration": 1177, "velocity": 95}, {"time": 110642, "pitch": 64, "duration": 1177, "velocity": 103}, {"time": 110642, "pitch": 69, "duration": 1177, "velocity": 109}, {"time": 110642, "pitch": 72, "duration": 1177, "velocity": 117}, {"time": 111839, "pitch": 50, "duration": 1924, "velocity": 83}, {"time": 111839, "pitch": 65, "duration": 1924, "velocity": 92}, {"time": 111839, "pitch": 69, "duration": 1924, "velocity": 94}, {"time": 111839, "pitch": 72, "duration": 1674, "velocity": 97}, {"time": 112797, "pitch": 84, "duration": 966, "velocity": 111}, {"time": 113183, "pitch": 81, "duration": 561, "velocity": 103}, {"time": 113523, "pitch": 72, "duration": 170, "velocity": 103}, {"time": 113763, "pitch": 53, "duration": 957, "velocity": 78}, {"time": 113763, "pitch": 65, "duration": 957, "velocity": 84}, {"time": 113763, "pitch": 68, "duration": 957, "velocity": 92}, {"time": 113763, "pitch": 72, "duration": 957, "velocity": 101}, {"time": 114720, "pitch": 55, "duration": 479, "velocity": 83}, {"time": 114720, "pitch": 65, "duration": 479, "velocity": 85}, {"time": 114720, "pitch": 68, "duration": 479, "velocity": 97}, {"time": 114720, "pitch": 72, "duration": 479, "velocity": 102}, {"time": 115199, "pitch": 55, "duration": 479, "velocity": 78}, {"time": 115199, "pitch": 67, "duration": 479, "velocity": 91}, {"time": 115199, "pitch": 71, "duration": 479, "velocity": 94}, {"time": 115199, "pitch": 74, "duration": 479, "velocity": 102}, {"time": 115678, "pitch": 44, "duration": 1923, "velocity": 105}, {"time": 115678, "pitch": 56, "duration": 1923, "velocity": 94}, {"time": 115678, "pitch": 60, "duration": 1923, "velocity": 94}, {"time": 115678, "pitch": 63, "duration": 1923, "velocity": 100}, {"time": 117601, "pitch": 46, "duration": 1916, "velocity": 98}, {"time": 117601, "pitch": 58, "duration": 1916, "velocity": 102}, {"time": 117601, "pitch": 62, "duration": 1916, "velocity": 87}, {"time": 117601, "pitch": 65, "duration": 1916, "velocity": 100}, {"time": 119517, "pitch": 48, "duration": 1923, "velocity": 82}, {"time": 119517, "pitch": 60, "duration": 1923, "velocity": 98}, {"time": 119517, "pitch": 64, "duration": 1923, "velocity": 105}, {"time": 119517, "pitch": 67, "duration": 1923, "velocity": 105}, {"time": 121440, "pitch": 43, "duration": 479, "velocity": 92}, {"time": 121440, "pitch": 58, "duration": 369, "velocity": 107}, {"time": 121440, "pitch": 62, "duration": 339, "velocity": 86}, {"time": 121440, "pitch": 69, "duration": 429, "velocity": 102}, {"time": 121919, "pitch": 58, "duration": 289, "velocity": 92}, {"time": 121919, "pitch": 62, "duration": 50, "velocity": 69}, {"time": 121919, "pitch": 67, "duration": 289, "velocity": 90}, {"time": 122398, "pitch": 48, "duration": 379, "velocity": 94}, {"time": 122398, "pitch": 58, "duration": 379, "velocity": 105}, {"time": 122398, "pitch": 62, "duration": 379, "velocity": 93}, {"time": 122398, "pitch": 65, "duration": 379, "velocity": 92}, {"time": 122777, "pitch": 58, "duration": 587, "velocity": 112}, {"time": 122777, "pitch": 62, "duration": 546, "velocity": 104}, {"time": 122777, "pitch": 64, "duration": 587, "velocity": 100}, {"time": 123364, "pitch": 41, "duration": 718, "velocity": 87}, {"time": 123364, "pitch": 57, "duration": 718, "velocity": 93}, {"time": 123364, "pitch": 60, "duration": 718, "velocity": 93}, {"time": 123364, "pitch": 64, "duration": 718, "velocity": 104}, {"time": 124082, "pitch": 41, "duration": 1197, "velocity": 96}, {"time": 124082, "pitch": 53, "duration": 1197, "velocity": 76}, {"time": 124082, "pitch": 57, "duration": 1197, "velocity": 92}, {"time": 124082, "pitch": 60, "duration": 1197, "velocity": 96}, {"time": 125279, "pitch": 41, "duration": 319, "velocity": 96}, {"time": 125279, "pitch": 53, "duration": 319, "velocity": 74}, {"time": 125279, "pitch": 56, "duration": 339, "velocity": 102}, {"time": 125279, "pitch": 63, "duration": 329, "velocity": 105}, {"time": 125659, "pitch": 41, "duration": 319, "velocity": 93}, {"time": 125659, "pitch": 53, "duration": 299, "velocity": 75}, {"time": 125659, "pitch": 56, "duration": 309, "velocity": 102}, {"time": 125659, "pitch": 62, "duration": 319, "velocity": 99}, {"time": 125997, "pitch": 41, "duration": 1135, "velocity": 104}, {"time": 125997, "pitch": 53, "duration": 1126, "velocity": 82}, {"time": 125997, "pitch": 56, "duration": 1116, "velocity": 102}, {"time": 125997, "pitch": 60, "duration": 1116, "velocity": 107}, {"time": 127202, "pitch": 40, "duration": 649, "velocity": 79}, {"time": 127202, "pitch": 59, "duration": 539, "velocity": 92}, {"time": 127202, "pitch": 62, "duration": 539, "velocity": 110}, {"time": 127202, "pitch": 67, "duration": 579, "velocity": 97}, {"time": 127921, "pitch": 45, "duration": 1177, "velocity": 102}, {"time": 127921, "pitch": 61, "duration": 1177, "velocity": 110}, {"time": 127921, "pitch": 67, "duration": 1177, "velocity": 73}, {"time": 127921, "pitch": 72, "duration": 1177, "velocity": 87}, {"time": 129118, "pitch": 38, "duration": 590, "velocity": 73}, {"time": 129118, "pitch": 60, "duration": 621, "velocity": 96}, {"time": 129118, "pitch": 65, "duration": 120, "velocity": 102}, {"time": 129118, "pitch": 69, "duration": 169, "velocity": 100}, {"time": 129357, "pitch": 67, "duration": 170, "velocity": 76}, {"time": 129357, "pitch": 71, "duration": 190, "velocity": 85}, {"time": 129597, "pitch": 69, "duration": 121, "velocity": 85}, {"time": 129597, "pitch": 72, "duration": 142, "velocity": 108}, {"time": 129840, "pitch": 38, "duration": 1151, "velocity": 100}, {"time": 129840, "pitch": 60, "duration": 1178, "velocity": 73}, {"time": 129840, "pitch": 69, "duration": 454, "velocity": 102}, {"time": 129840, "pitch": 72, "duration": 477, "velocity": 108}, {"time": 130323, "pitch": 71, "duration": 169, "velocity": 93}, {"time": 130323, "pitch": 74, "duration": 179, "velocity": 84}, {"time": 130562, "pitch": 69, "duration": 469, "velocity": 87}, {"time": 130562, "pitch": 72, "duration": 469, "velocity": 87}, {"time": 131041, "pitch": 41, "duration": 619, "velocity": 82}, {"time": 131041, "pitch": 65, "duration": 240, "velocity": 104}, {"time": 131041, "pitch": 68, "duration": 240, "velocity": 117}, {"time": 131281, "pitch": 67, "duration": 239, "velocity": 100}, {"time": 131281, "pitch": 70, "duration": 239, "velocity": 93}, {"time": 131520, "pitch": 68, "duration": 200, "velocity": 96}, {"time": 131520, "pitch": 72, "duration": 170, "velocity": 79}, {"time": 131759, "pitch": 41, "duration": 689, "velocity": 96}, {"time": 131759, "pitch": 65, "duration": 709, "velocity": 100}, {"time": 131759, "pitch": 68, "duration": 719, "velocity": 117}, {"time": 131759, "pitch": 72, "duration": 689, "velocity": 104}, {"time": 132478, "pitch": 41, "duration": 399, "velocity": 100}, {"time": 132478, "pitch": 65, "duration": 179, "velocity": 85}, {"time": 132478, "pitch": 68, "duration": 179, "velocity": 90}, {"time": 132478, "pitch": 74, "duration": 179, "velocity": 92}, {"time": 132717, "pitch": 65, "duration": 80, "velocity": 82}, {"time": 132717, "pitch": 68, "duration": 100, "velocity": 93}, {"time": 132717, "pitch": 72, "duration": 110, "velocity": 82}, {"time": 132957, "pitch": 43, "duration": 656, "velocity": 97}, {"time": 132957, "pitch": 67, "duration": 666, "velocity": 102}, {"time": 132957, "pitch": 72, "duration": 656, "velocity": 107}, {"time": 132957, "pitch": 74, "duration": 646, "velocity": 117}, {"time": 132957, "pitch": 79, "duration": 626, "velocity": 87}, {"time": 133683, "pitch": 43, "duration": 608, "velocity": 87}, {"time": 133683, "pitch": 67, "duration": 638, "velocity": 85}, {"time": 133683, "pitch": 72, "duration": 618, "velocity": 108}, {"time": 133683, "pitch": 74, "duration": 618, "velocity": 107}, {"time": 133683, "pitch": 79, "duration": 608, "velocity": 107}, {"time": 134401, "pitch": 43, "duration": 429, "velocity": 117}, {"time": 134401, "pitch": 67, "duration": 419, "velocity": 82}, {"time": 134401, "pitch": 72, "duration": 389, "velocity": 104}, {"time": 134401, "pitch": 74, "duration": 429, "velocity": 97}, {"time": 134401, "pitch": 79, "duration": 469, "velocity": 110}, {"time": 134880, "pitch": 43, "duration": 120, "velocity": 115}, {"time": 134880, "pitch": 67, "duration": 110, "velocity": 90}, {"time": 134880, "pitch": 71, "duration": 120, "velocity": 112}, {"time": 134880, "pitch": 74, "duration": 100, "velocity": 107}, {"time": 134880, "pitch": 79, "duration": 120, "velocity": 97}, {"time": 135838, "pitch": 43, "duration": 722, "velocity": 79}, {"time": 135838, "pitch": 59, "duration": 793, "velocity": 85}, {"time": 135838, "pitch": 62, "duration": 773, "velocity": 110}, {"time": 135838, "pitch": 67, "duration": 783, "velocity": 97}, {"time": 144481, "pitch": 48, "duration": 1915, "velocity": 83}, {"time": 144481, "pitch": 62, "duration": 958, "velocity": 91}, {"time": 144481, "pitch": 64, "duration": 958, "velocity": 103}, {"time": 144481, "pitch": 67, "duration": 958, "velocity": 91}, {"time": 145439, "pitch": 60, "duration": 957, "velocity": 92}, {"time": 145439, "pitch": 64, "duration": 957, "velocity": 106}, {"time": 145439, "pitch": 67, "duration": 957, "velocity": 85}, {"time": 146396, "pitch": 52, "duration": 1924, "velocity": 100}, {"time": 146396, "pitch": 59, "duration": 966, "velocity": 85}, {"time": 146396, "pitch": 62, "duration": 966, "velocity": 102}, {"time": 146396, "pitch": 67, "duration": 966, "velocity": 89}, {"time": 147362, "pitch": 67, "duration": 958, "velocity": 89}, {"time": 147362, "pitch": 71, "duration": 958, "velocity": 94}, {"time": 147362, "pitch": 74, "duration": 958, "velocity": 95}, {"time": 148320, "pitch": 57, "duration": 1436, "velocity": 79}, {"time": 148320, "pitch": 64, "duration": 1436, "velocity": 97}, {"time": 148320, "pitch": 69, "duration": 1436, "velocity": 92}, {"time": 148320, "pitch": 72, "duration": 1436, "velocity": 98}, {"time": 149756, "pitch": 57, "duration": 487, "velocity": 83}, {"time": 149756, "pitch": 64, "duration": 487, "velocity": 86}, {"time": 149756, "pitch": 69, "duration": 487, "velocity": 88}, {"time": 149756, "pitch": 72, "duration": 487, "velocity": 95}, {"time": 150243, "pitch": 53, "duration": 958, "velocity": 89}, {"time": 150243, "pitch": 65, "duration": 958, "velocity": 91}, {"time": 150243, "pitch": 69, "duration": 958, "velocity": 97}, {"time": 150243, "pitch": 72, "duration": 958, "velocity": 100}, {"time": 151201, "pitch": 55, "duration": 479, "velocity": 89}, {"time": 151201, "pitch": 65, "duration": 479, "velocity": 84}, {"time": 151201, "pitch": 69, "duration": 479, "velocity": 90}, {"time": 151201, "pitch": 72, "duration": 479, "velocity": 97}, {"time": 151680, "pitch": 55, "duration": 478, "velocity": 97}, {"time": 151680, "pitch": 67, "duration": 478, "velocity": 93}, {"time": 151680, "pitch": 71, "duration": 478, "velocity": 97}, {"time": 151680, "pitch": 74, "duration": 478, "velocity": 101}, {"time": 152158, "pitch": 48, "duration": 958, "velocity": 64}, {"time": 152158, "pitch": 74, "duration": 958, "velocity": 78}, {"time": 152158, "pitch": 76, "duration": 958, "velocity": 89}, {"time": 152158, "pitch": 79, "duration": 958, "velocity": 94}, {"time": 153116, "pitch": 48, "duration": 966, "velocity": 77}, {"time": 153116, "pitch": 64, "duration": 966, "velocity": 99}, {"time": 153116, "pitch": 67, "duration": 966, "velocity": 93}, {"time": 153116, "pitch": 72, "duration": 966, "velocity": 98}, {"time": 154082, "pitch": 52, "duration": 329, "velocity": 98}, {"time": 154082, "pitch": 62, "duration": 329, "velocity": 92}, {"time": 154082, "pitch": 67, "duration": 349, "velocity": 89}, {"time": 154082, "pitch": 71, "duration": 339, "velocity": 98}, {"time": 154462, "pitch": 52, "duration": 119, "velocity": 97}, {"time": 154462, "pitch": 62, "duration": 100, "velocity": 86}, {"time": 154462, "pitch": 67, "duration": 110, "velocity": 92}, {"time": 154462, "pitch": 71, "duration": 110, "velocity": 89}, {"time": 154800, "pitch": 57, "duration": 1177, "velocity": 95}, {"time": 154800, "pitch": 64, "duration": 1177, "velocity": 103}, {"time": 154800, "pitch": 69, "duration": 1177, "velocity": 109}, {"time": 154800, "pitch": 72, "duration": 1177, "velocity": 117}, {"time": 155997, "pitch": 50, "duration": 1923, "velocity": 83}, {"time": 155997, "pitch": 65, "duration": 1923, "velocity": 92}, {"time": 155997, "pitch": 69, "duration": 1923, "velocity": 94}, {"time": 155997, "pitch": 72, "duration": 1674, "velocity": 97}, {"time": 156963, "pitch": 84, "duration": 957, "velocity": 111}, {"time": 157343, "pitch": 81, "duration": 559, "velocity": 103}, {"time": 157681, "pitch": 72, "duration": 170, "velocity": 103}, {"time": 157920, "pitch": 53, "duration": 958, "velocity": 78}, {"time": 157920, "pitch": 65, "duration": 958, "velocity": 84}, {"time": 157920, "pitch": 68, "duration": 958, "velocity": 92}, {"time": 157920, "pitch": 72, "duration": 958, "velocity": 101}, {"time": 158878, "pitch": 55, "duration": 479, "velocity": 83}, {"time": 158878, "pitch": 65, "duration": 479, "velocity": 85}, {"time": 158878, "pitch": 68, "duration": 479, "velocity": 97}, {"time": 158878, "pitch": 72, "duration": 479, "velocity": 102}, {"time": 159357, "pitch": 55, "duration": 487, "velocity": 78}, {"time": 159357, "pitch": 67, "duration": 487, "velocity": 91}, {"time": 159357, "pitch": 71, "duration": 487, "velocity": 94}, {"time": 159357, "pitch": 74, "duration": 487, "velocity": 102}, {"time": 159844, "pitch": 48, "duration": 1915, "velocity": 83}, {"time": 159844, "pitch": 62, "duration": 957, "velocity": 91}, {"time": 159844, "pitch": 64, "duration": 957, "velocity": 103}, {"time": 159844, "pitch": 67, "duration": 957, "velocity": 91}, {"time": 160801, "pitch": 60, "duration": 958, "velocity": 92}, {"time": 160801, "pitch": 64, "duration": 958, "velocity": 106}, {"time": 160801, "pitch": 67, "duration": 958, "velocity": 85}, {"time": 161759, "pitch": 52, "duration": 1924, "velocity": 100}, {"time": 161759, "pitch": 59, "duration": 958, "velocity": 85}, {"time": 161759, "pitch": 62, "duration": 958, "velocity": 102}, {"time": 161759, "pitch": 67, "duration": 958, "velocity": 89}, {"time": 162717, "pitch": 67, "duration": 966, "velocity": 89}, {"time": 162717, "pitch": 71, "duration": 966, "velocity": 94}, {"time": 162717, "pitch": 74, "duration": 966, "velocity": 95}, {"time": 163683, "pitch": 57, "duration": 1436, "velocity": 79}, {"time": 163683, "pitch": 64, "duration": 1436, "velocity": 97}, {"time": 163683, "pitch": 69, "duration": 1436, "velocity": 92}, {"time": 163683, "pitch": 72, "duration": 1436, "velocity": 98}, {"time": 165119, "pitch": 57, "duration": 479, "velocity": 83}, {"time": 165119, "pitch": 64, "duration": 479, "velocity": 86}, {"time": 165119, "pitch": 69, "duration": 479, "velocity": 88}, {"time": 165119, "pitch": 72, "duration": 479, "velocity": 95}, {"time": 165598, "pitch": 53, "duration": 966, "velocity": 89}, {"time": 165598, "pitch": 65, "duration": 966, "velocity": 91}, {"time": 165598, "pitch": 69, "duration": 966, "velocity": 97}, {"time": 165598, "pitch": 72, "duration": 966, "velocity": 100}, {"time": 166564, "pitch": 55, "duration": 478, "velocity": 89}, {"time": 166564, "pitch": 65, "duration": 478, "velocity": 84}, {"time": 166564, "pitch": 69, "duration": 478, "velocity": 90}, {"time": 166564, "pitch": 72, "duration": 478, "velocity": 97}, {"time": 167042, "pitch": 55, "duration": 479, "velocity": 97}, {"time": 167042, "pitch": 67, "duration": 479, "velocity": 93}, {"time": 167042, "pitch": 71, "duration": 479, "velocity": 97}, {"time": 167042, "pitch": 74, "duration": 479, "velocity": 101}, {"time": 167521, "pitch": 48, "duration": 958, "velocity": 64}, {"time": 167521, "pitch": 74, "duration": 958, "velocity": 78}, {"time": 167521, "pitch": 76, "duration": 958, "velocity": 89}, {"time": 167521, "pitch": 79, "duration": 958, "velocity": 94}, {"time": 168479, "pitch": 48, "duration": 958, "velocity": 77}, {"time": 168479, "pitch": 64, "duration": 958, "velocity": 99}, {"time": 168479, "pitch": 67, "duration": 958, "velocity": 93}, {"time": 168479, "pitch": 72, "duration": 958, "velocity": 98}, {"time": 169437, "pitch": 52, "duration": 334, "velocity": 98}, {"time": 169437, "pitch": 62, "duration": 334, "velocity": 92}, {"time": 169437, "pitch": 67, "duration": 355, "velocity": 89}, {"time": 169437, "pitch": 71, "duration": 345, "velocity": 98}, {"time": 169823, "pitch": 52, "duration": 121, "velocity": 97}, {"time": 169823, "pitch": 62, "duration": 101, "velocity": 86}, {"time": 169823, "pitch": 67, "duration": 111, "velocity": 92}, {"time": 169823, "pitch": 71, "duration": 111, "velocity": 89}, {"time": 170163, "pitch": 57, "duration": 1177, "velocity": 95}, {"time": 170163, "pitch": 64, "duration": 1177, "velocity": 103}, {"time": 170163, "pitch": 69, "duration": 1177, "velocity": 109}, {"time": 170163, "pitch": 72, "duration": 1177, "velocity": 117}, {"time": 171360, "pitch": 50, "duration": 1923, "velocity": 83}, {"time": 171360, "pitch": 65, "duration": 1923, "velocity": 92}, {"time": 171360, "pitch": 69, "duration": 1923, "velocity": 94}, {"time": 171360, "pitch": 72, "duration": 1670, "velocity": 97}, {"time": 172318, "pitch": 84, "duration": 965, "velocity": 111}, {"time": 172698, "pitch": 81, "duration": 566, "velocity": 103}, {"time": 173040, "pitch": 72, "duration": 172, "velocity": 103}, {"time": 173283, "pitch": 53, "duration": 958, "velocity": 78}, {"time": 173283, "pitch": 65, "duration": 958, "velocity": 84}, {"time": 173283, "pitch": 68, "duration": 958, "velocity": 92}, {"time": 173283, "pitch": 72, "duration": 958, "velocity": 101}, {"time": 174241, "pitch": 55, "duration": 479, "velocity": 83}, {"time": 174241, "pitch": 65, "duration": 479, "velocity": 85}, {"time": 174241, "pitch": 68, "duration": 479, "velocity": 97}, {"time": 174241, "pitch": 72, "duration": 479, "velocity": 102}, {"time": 174720, "pitch": 55, "duration": 479, "velocity": 78}, {"time": 174720, "pitch": 67, "duration": 479, "velocity": 91}, {"time": 174720, "pitch": 71, "duration": 479, "velocity": 94}, {"time": 174720, "pitch": 74, "duration": 479, "velocity": 102}, {"time": 175199, "pitch": 48, "duration": 1923, "velocity": 83}, {"time": 175199, "pitch": 62, "duration": 958, "velocity": 91}, {"time": 175199, "pitch": 64, "duration": 958, "velocity": 103}, {"time": 175199, "pitch": 67, "duration": 958, "velocity": 91}, {"time": 176157, "pitch": 60, "duration": 965, "velocity": 92}, {"time": 176157, "pitch": 64, "duration": 965, "velocity": 106}, {"time": 176157, "pitch": 67, "duration": 965, "velocity": 85}, {"time": 177122, "pitch": 53, "duration": 955, "velocity": 78}, {"time": 177122, "pitch": 65, "duration": 955, "velocity": 84}, {"time": 177122, "pitch": 68, "duration": 955, "velocity": 92}, {"time": 177122, "pitch": 72, "duration": 955, "velocity": 101}, {"time": 178077, "pitch": 53, "duration": 966, "velocity": 78}, {"time": 178077, "pitch": 65, "duration": 966, "velocity": 84}, {"time": 178077, "pitch": 68, "duration": 966, "velocity": 92}, {"time": 178077, "pitch": 72, "duration": 966, "velocity": 101}, {"time": 179043, "pitch": 48, "duration": 3351, "velocity": 83}, {"time": 179043, "pitch": 60, "duration": 3351, "velocity": 91}, {"time": 179043, "pitch": 64, "duration": 3351, "velocity": 103}, {"time": 179043, "pitch": 67, "duration": 3351, "velocity": 91}], "annotations": [{"time": 241, "annotation": {"number": 7, "value": 80}, "group": "control_change"}, {"time": 252, "annotation": {"number": 11, "value": 127}, "group": "control_change"}, {"time": 264, "annotation": {"number": 10, "value": 58}, "group": "control_change"}, {"time": 275, "annotation": {"number": 91, "value": 60}, "group": "control_change"}, {"time": 287, "annotation": {"number": 93, "value": 37}, "group": "control_change"}, {"time": 310, "annotation": {"number": 101, "value": 0}, "group": "control_change"}, {"time": 321, "annotation": {"number": 100, "value": 0}, "group": "control_change"}, {"time": 333, "annotation": {"number": 6, "value": 12}, "group": "control_change"}, {"time": 344, "annotation": {"number": 101, "value": 127}, "group": "control_change"}, {"time": 356, "annotation": {"number": 100, "value": 127}, "group": "control_change"}]}]}