{"metadata": {"schema_version": "0.1", "title": "RWC-MDB-P-2001 No. 32: what could I do for you / Masaki Kuehara", "copyright": "RWC Music Database. Copyright (C) 2001 Real World Computing Partnership (contact: Masataka GOTO <m.goto@aist.go.jp>)", "source_filename": "RM-P032.SMF_SYNC.MID", "source_format": "midi"}, "resolution": 480, "tempos": [{"time": 0, "qpm": 58.8235294117647}, {"time": 480, "qpm": 125.0}], "key_signatures": [{"time": 0, "root": 4, "mode": "major"}], "time_signatures": [{"time": 0, "numerator": 1, "denominator": 4}, {"time": 480, "numerator": 4, "denominator": 4}], "tracks": [{"program": 0, "is_drum": false, "name": "E.GUITAR 1", "annotations": [{"time": 230, "annotation": {"number": 0, "value": 0}, "group": "control_change"}, {"time": 250, "annotation": {"number": 32, "value": 0}, "group": "control_change"}]}, {"program": 30, "is_drum": false, "name": "E.GUITAR 1", "notes": [{"time": 173040, "pitch": 67, "duration": 20, "velocity": 110}, {"time": 173160, "pitch": 67, "duration": 20, "velocity": 105}, {"time": 173280, "pitch": 76, "duration": 480, "velocity": 110}, {"time": 173760, "pitch": 76, "duration": 240, "velocity": 105}, {"time": 174000, "pitch": 76, "duration": 480, "velocity": 110}, {"time": 174480, "pitch": 76, "duration": 240, "velocity": 105}, {"time": 174720, "pitch": 76, "duration": 480, "velocity": 110}, {"time": 175200, "pitch": 76, "duration": 240, "velocity": 105}, {"time": 175440, "pitch": 76, "duration": 480, "velocity": 110}, {"time": 175920, "pitch": 76, "duration": 240, "velocity": 105}, {"time": 176160, "pitch": 76, "duration": 240, "velocity": 110}, {"time": 176400, "pitch": 76, "duration": 240, "velocity": 105}, {"time": 176640, "pitch": 79, "duration": 240, "velocity": 107}, {"time": 176880, "pitch": 81, "duration": 480, "velocity": 110}, {"time": 177360, "pitch": 79, "duration": 240, "velocity": 100}, {"time": 177600, "pitch": 78, "duration": 120, "velocity": 110}, {"time": 177720, "pitch": 76, "duration": 240, "velocity": 105}, {"time": 177840, "pitch": 59, "duration": 240, "velocity": 110}, {"time": 177960, "pitch": 76, "duration": 120, "velocity": 105}, {"time": 178080, "pitch": 74, "duration": 120, "velocity": 110}, {"time": 178200, "pitch": 76, "duration": 240, "velocity": 105}, {"time": 178440, "pitch": 76, "duration": 120, "velocity": 95}, {"time": 178560, "pitch": 74, "duration": 120, "velocity": 110}, {"time": 178680, "pitch": 74, "duration": 10, "velocity": 85}, {"time": 178800, "pitch": 73, "duration": 120, "velocity": 105}, {"time": 178920, "pitch": 73, "duration": 10, "velocity": 85}, {"time": 179040, "pitch": 71, "duration": 240, "velocity": 110}, {"time": 179280, "pitch": 70, "duration": 120, "velocity": 105}, {"time": 179400, "pitch": 71, "duration": 120, "velocity": 100}, {"time": 179520, "pitch": 69, "duration": 180, "velocity": 105}, {"time": 179700, "pitch": 67, "duration": 180, "velocity": 100}, {"time": 179880, "pitch": 67, "duration": 360, "velocity": 105}, {"time": 180240, "pitch": 64, "duration": 360, "velocity": 100}, {"time": 180240, "pitch": 69, "duration": 360, "velocity": 110}, {"time": 180250, "pitch": 73, "duration": 360, "velocity": 80}, {"time": 180600, "pitch": 62, "duration": 360, "velocity": 95}, {"time": 180610, "pitch": 67, "duration": 350, "velocity": 105}, {"time": 180610, "pitch": 71, "duration": 350, "velocity": 75}, {"time": 180960, "pitch": 62, "duration": 160, "velocity": 95}, {"time": 180960, "pitch": 67, "duration": 160, "velocity": 105}, {"time": 180970, "pitch": 71, "duration": 160, "velocity": 85}, {"time": 181120, "pitch": 62, "duration": 320, "velocity": 100}, {"time": 181120, "pitch": 67, "duration": 320, "velocity": 110}, {"time": 181130, "pitch": 71, "duration": 320, "velocity": 90}, {"time": 181440, "pitch": 64, "duration": 240, "velocity": 95}, {"time": 181440, "pitch": 69, "duration": 240, "velocity": 105}, {"time": 181450, "pitch": 73, "duration": 240, "velocity": 85}, {"time": 181680, "pitch": 64, "duration": 480, "velocity": 100}, {"time": 181680, "pitch": 69, "duration": 480, "velocity": 110}, {"time": 181690, "pitch": 73, "duration": 480, "velocity": 90}, {"time": 182160, "pitch": 62, "duration": 240, "velocity": 90}, {"time": 182160, "pitch": 67, "duration": 240, "velocity": 100}, {"time": 182170, "pitch": 71, "duration": 240, "velocity": 80}, {"time": 182400, "pitch": 69, "duration": 120, "velocity": 105}, {"time": 182410, "pitch": 73, "duration": 120, "velocity": 85}, {"time": 182520, "pitch": 71, "duration": 120, "velocity": 80}, {"time": 182530, "pitch": 67, "duration": 120, "velocity": 100}, {"time": 182640, "pitch": 69, "duration": 480, "velocity": 110}, {"time": 182650, "pitch": 73, "duration": 470, "velocity": 100}, {"time": 183120, "pitch": 67, "duration": 240, "velocity": 100}, {"time": 183130, "pitch": 71, "duration": 240, "velocity": 90}, {"time": 183360, "pitch": 69, "duration": 720, "velocity": 110}, {"time": 183370, "pitch": 73, "duration": 720, "velocity": 100}, {"time": 184080, "pitch": 67, "duration": 240, "velocity": 100}, {"time": 184090, "pitch": 71, "duration": 230, "velocity": 90}, {"time": 184320, "pitch": 71, "duration": 240, "velocity": 110}, {"time": 184560, "pitch": 74, "duration": 240, "velocity": 90}, {"time": 184570, "pitch": 79, "duration": 230, "velocity": 105}, {"time": 184800, "pitch": 74, "duration": 240, "velocity": 90}, {"time": 184810, "pitch": 79, "duration": 240, "velocity": 105}, {"time": 185050, "pitch": 79, "duration": 240, "velocity": 110}, {"time": 185280, "pitch": 74, "duration": 240, "velocity": 95}, {"time": 185290, "pitch": 79, "duration": 240, "velocity": 105}, {"time": 185520, "pitch": 74, "duration": 240, "velocity": 100}, {"time": 185530, "pitch": 79, "duration": 240, "velocity": 110}, {"time": 185770, "pitch": 79, "duration": 240, "velocity": 110}, {"time": 186000, "pitch": 74, "duration": 240, "velocity": 95}, {"time": 186010, "pitch": 79, "duration": 240, "velocity": 105}, {"time": 186240, "pitch": 83, "duration": 240, "velocity": 110}, {"time": 186480, "pitch": 83, "duration": 1680, "velocity": 110}], "annotations": [{"time": 292, "annotation": {"number": 7, "value": 110}, "group": "control_change"}, {"time": 313, "annotation": {"number": 11, "value": 120}, "group": "control_change"}, {"time": 334, "annotation": {"number": 10, "value": 63}, "group": "control_change"}, {"time": 355, "annotation": {"number": 91, "value": 50}, "group": "control_change"}, {"time": 376, "annotation": {"number": 93, "value": 20}, "group": "control_change"}, {"time": 397, "annotation": {"number": 101, "value": 0}, "group": "control_change"}, {"time": 417, "annotation": {"number": 100, "value": 0}, "group": "control_change"}, {"time": 438, "annotation": {"number": 6, "value": 12}, "group": "control_change"}, {"time": 459, "annotation": {"number": 101, "value": 127}, "group": "control_change"}, {"time": 480, "annotation": {"number": 100, "value": 127}, "group": "control_change"}, {"time": 186720, "annotation": {"number": 1, "value": 13}, "group": "control_change"}, {"time": 186760, "annotation": {"number": 1, "value": 26}, "group": "control_change"}, {"time": 186800, "annotation": {"number": 1, "value": 40}, "group": "control_change"}, {"time": 186840, "annotation": {"number": 1, "value": 53}, "group": "control_change"}, {"time": 186880, "annotation": {"number": 1, "value": 64}, "group": "control_change"}, {"time": 187540, "annotation": {"number": 1, "value": 0}, "group": "control_change"}]}, {"program": 0, "is_drum": false, "name": "BASS", "annotations": [{"time": 230, "annotation": {"number": 0, "value": 0}, "group": "control_change"}, {"time": 250, "annotation": {"number": 32, "value": 0}, "group": "control_change"}]}, {"program": 33, "is_drum": false, "name": "BASS", "notes": [{"time": 8160, "pitch": 28, "duration": 160, "velocity": 110}, {"time": 8400, "pitch": 28, "duration": 240, "velocity": 100}, {"time": 8640, "pitch": 40, "duration": 240, "velocity": 105}, {"time": 8880, "pitch": 28, "duration": 160, "velocity": 100}, {"time": 9120, "pitch": 28, "duration": 240, "velocity": 110}, {"time": 9360, "pitch": 40, "duration": 240, "velocity": 100}, {"time": 9600, "pitch": 28, "duration": 160, "velocity": 105}, {"time": 9840, "pitch": 28, "duration": 240, "velocity": 100}, {"time": 10080, "pitch": 40, "duration": 240, "velocity": 110}, {"time": 10320, "pitch": 28, "duration": 160, "velocity": 105}, {"time": 10560, "pitch": 28, "duration": 240, "velocity": 100}, {"time": 10800, "pitch": 40, "duration": 480, "velocity": 110}, {"time": 11280, "pitch": 40, "duration": 240, "velocity": 100}, {"time": 11520, "pitch": 38, "duration": 240, "velocity": 105}, {"time": 11760, "pitch": 35, "duration": 240, "velocity": 100}, {"time": 12000, "pitch": 28, "duration": 160, "velocity": 110}, {"time": 12240, "pitch": 28, "duration": 240, "velocity": 100}, {"time": 12480, "pitch": 40, "duration": 240, "velocity": 105}, {"time": 12720, "pitch": 28, "duration": 160, "velocity": 100}, {"time": 12960, "pitch": 28, "duration": 240, "velocity": 110}, {"time": 13200, "pitch": 40, "duration": 240, "velocity": 100}, {"time": 13440, "pitch": 28, "duration": 160, "velocity": 105}, {"time": 13680, "pitch": 28, "duration": 240, "velocity": 100}, {"time": 13920, "pitch": 40, "duration": 240, "velocity": 110}, {"time": 14160, "pitch": 28, "duration": 160, "velocity": 105}, {"time": 14400, "pitch": 28, "duration": 240, "velocity": 100}, {"time": 14640, "pitch": 40, "duration": 480, "velocity": 110}, {"time": 15120, "pitch": 40, "duration": 240, "velocity": 100}, {"time": 15360, "pitch": 38, "duration": 240, "velocity": 105}, {"time": 15600, "pitch": 35, "duration": 240, "velocity": 100}, {"time": 15840, "pitch": 28, "duration": 160, "velocity": 110}, {"time": 16080, "pitch": 28, "duration": 240, "velocity": 100}, {"time": 16320, "pitch": 40, "duration": 240, "velocity": 105}, {"time": 16560, "pitch": 28, "duration": 160, "velocity": 100}, {"time": 16800, "pitch": 28, "duration": 240, "velocity": 110}, {"time": 17040, "pitch": 40, "duration": 240, "velocity": 100}, {"time": 17280, "pitch": 28, "duration": 160, "velocity": 105}, {"time": 17520, "pitch": 28, "duration": 240, "velocity": 100}, {"time": 17760, "pitch": 40, "duration": 240, "velocity": 110}, {"time": 18000, "pitch": 28, "duration": 160, "velocity": 105}, {"time": 18240, "pitch": 28, "duration": 240, "velocity": 100}, {"time": 18480, "pitch": 40, "duration": 480, "velocity": 110}, {"time": 18960, "pitch": 40, "duration": 240, "velocity": 100}, {"time": 19200, "pitch": 38, "duration": 240, "velocity": 105}, {"time": 19440, "pitch": 35, "duration": 240, "velocity": 100}, {"time": 19680, "pitch": 28, "duration": 160, "velocity": 110}, {"time": 19920, "pitch": 28, "duration": 240, "velocity": 100}, {"time": 20160, "pitch": 40, "duration": 240, "velocity": 105}, {"time": 20400, "pitch": 28, "duration": 160, "velocity": 100}, {"time": 20640, "pitch": 28, "duration": 240, "velocity": 110}, {"time": 20880, "pitch": 40, "duration": 240, "velocity": 100}, {"time": 21120, "pitch": 28, "duration": 160, "velocity": 105}, {"time": 21360, "pitch": 28, "duration": 240, "velocity": 100}, {"time": 21600, "pitch": 40, "duration": 240, "velocity": 110}, {"time": 21840, "pitch": 28, "duration": 160, "velocity": 105}, {"time": 22080, "pitch": 28, "duration": 240, "velocity": 100}, {"time": 22320, "pitch": 40, "duration": 480, "velocity": 110}, {"time": 22800, "pitch": 40, "duration": 240, "velocity": 100}, {"time": 23040, "pitch": 38, "duration": 240, "velocity": 105}, {"time": 23280, "pitch": 35, "duration": 240, "velocity": 100}, {"time": 23520, "pitch": 28, "duration": 160, "velocity": 110}, {"time": 23760, "pitch": 28, "duration": 240, "velocity": 100}, {"time": 24000, "pitch": 40, "duration": 240, "velocity": 105}, {"time": 24240, "pitch": 28, "duration": 160, "velocity": 100}, {"time": 24480, "pitch": 28, "duration": 240, "velocity": 110}, {"time": 24720, "pitch": 40, "duration": 240, "velocity": 100}, {"time": 24960, "pitch": 28, "duration": 160, "velocity": 105}, {"time": 25200, "pitch": 28, "duration": 240, "velocity": 100}, {"time": 25440, "pitch": 40, "duration": 240, "velocity": 110}, {"time": 25680, "pitch": 28, "duration": 160, "velocity": 105}, {"time": 25920, "pitch": 28, "duration": 240, "velocity": 100}, {"time": 26160, "pitch": 40, "duration": 480, "velocity": 110}, {"time": 26640, "pitch": 40, "duration": 240, "velocity": 100}, {"time": 26880, "pitch": 38, "duration": 240, "velocity": 105}, {"time": 27120, "pitch": 35, "duration": 240, "velocity": 100}, {"time": 27360, "pitch": 28, "duration": 160, "velocity": 110}, {"time": 27600, "pitch": 28, "duration": 240, "velocity": 100}, {"time": 27840, "pitch": 40, "duration": 240, "velocity": 105}, {"time": 28080, "pitch": 28, "duration": 160, "velocity": 100}, {"time": 28320, "pitch": 28, "duration": 240, "velocity": 110}, {"time": 28560, "pitch": 40, "duration": 240, "velocity": 100}, {"time": 28800, "pitch": 28, "duration": 160, "velocity": 105}, {"time": 29040, "pitch": 28, "duration": 240, "velocity": 100}, {"time": 29280, "pitch": 40, "duration": 240, "velocity": 110}, {"time": 29520, "pitch": 28, "duration": 160, "velocity": 105}, {"time": 29760, "pitch": 28, "duration": 240, "velocity": 100}, {"time": 30000, "pitch": 40, "duration": 480, "velocity": 110}, {"time": 30480, "pitch": 40, "duration": 240, "velocity": 100}, {"time": 30720, "pitch": 38, "duration": 240, "velocity": 105}, {"time": 30960, "pitch": 35, "duration": 240, "velocity": 100}, {"time": 31200, "pitch": 28, "duration": 160, "velocity": 110}, {"time": 31440, "pitch": 28, "duration": 240, "velocity": 100}, {"time": 31680, "pitch": 40, "duration": 240, "velocity": 105}, {"time": 31920, "pitch": 28, "duration": 160, "velocity": 100}, {"time": 32160, "pitch": 28, "duration": 240, "velocity": 110}, {"time": 32400, "pitch": 40, "duration": 240, "velocity": 100}, {"time": 32640, "pitch": 28, "duration": 160, "velocity": 105}, {"time": 32880, "pitch": 28, "duration": 240, "velocity": 100}, {"time": 33120, "pitch": 40, "duration": 240, "velocity": 110}, {"time": 33360, "pitch": 28, "duration": 160, "velocity": 105}, {"time": 33600, "pitch": 28, "duration": 240, "velocity": 100}, {"time": 33840, "pitch": 40, "duration": 480, "velocity": 110}, {"time": 34320, "pitch": 40, "duration": 240, "velocity": 100}, {"time": 34560, "pitch": 38, "duration": 240, "velocity": 105}, {"time": 34800, "pitch": 35, "duration": 240, "velocity": 100}, {"time": 35040, "pitch": 28, "duration": 160, "velocity": 110}, {"time": 35280, "pitch": 28, "duration": 240, "velocity": 100}, {"time": 35520, "pitch": 40, "duration": 240, "velocity": 105}, {"time": 35760, "pitch": 28, "duration": 160, "velocity": 100}, {"time": 36000, "pitch": 28, "duration": 240, "velocity": 110}, {"time": 36240, "pitch": 40, "duration": 240, "velocity": 100}, {"time": 36480, "pitch": 28, "duration": 160, "velocity": 105}, {"time": 36720, "pitch": 28, "duration": 240, "velocity": 100}, {"time": 36960, "pitch": 40, "duration": 240, "velocity": 110}, {"time": 37200, "pitch": 28, "duration": 160, "velocity": 105}, {"time": 37440, "pitch": 28, "duration": 240, "velocity": 100}, {"time": 37680, "pitch": 40, "duration": 480, "velocity": 110}, {"time": 38160, "pitch": 40, "duration": 240, "velocity": 100}, {"time": 38400, "pitch": 38, "duration": 240, "velocity": 105}, {"time": 38640, "pitch": 35, "duration": 240, "velocity": 100}, {"time": 38880, "pitch": 31, "duration": 240, "velocity": 110}, {"time": 39120, "pitch": 31, "duration": 240, "velocity": 100}, {"time": 39360, "pitch": 31, "duration": 240, "velocity": 105}, {"time": 39600, "pitch": 31, "duration": 240, "velocity": 100}, {"time": 39840, "pitch": 31, "duration": 240, "velocity": 110}, {"time": 40080, "pitch": 31, "duration": 240, "velocity": 100}, {"time": 40320, "pitch": 31, "duration": 240, "velocity": 105}, {"time": 40560, "pitch": 31, "duration": 240, "velocity": 100}, {"time": 40800, "pitch": 33, "duration": 240, "velocity": 110}, {"time": 41040, "pitch": 33, "duration": 240, "velocity": 100}, {"time": 41280, "pitch": 33, "duration": 240, "velocity": 105}, {"time": 41520, "pitch": 33, "duration": 240, "velocity": 100}, {"time": 41760, "pitch": 33, "duration": 240, "velocity": 110}, {"time": 42000, "pitch": 33, "duration": 240, "velocity": 100}, {"time": 42240, "pitch": 33, "duration": 240, "velocity": 105}, {"time": 42480, "pitch": 33, "duration": 240, "velocity": 100}, {"time": 42720, "pitch": 40, "duration": 210, "velocity": 110}, {"time": 43200, "pitch": 52, "duration": 240, "velocity": 105}, {"time": 43680, "pitch": 40, "duration": 200, "velocity": 110}, {"time": 43920, "pitch": 52, "duration": 240, "velocity": 105}, {"time": 44400, "pitch": 40, "duration": 220, "velocity": 110}, {"time": 44880, "pitch": 40, "duration": 240, "velocity": 105}, {"time": 45120, "pitch": 52, "duration": 240, "velocity": 110}, {"time": 45360, "pitch": 40, "duration": 160, "velocity": 100}, {"time": 45600, "pitch": 52, "duration": 480, "velocity": 110}, {"time": 46080, "pitch": 50, "duration": 240, "velocity": 105}, {"time": 46320, "pitch": 47, "duration": 240, "velocity": 100}, {"time": 46560, "pitch": 31, "duration": 240, "velocity": 110}, {"time": 46800, "pitch": 31, "duration": 240, "velocity": 100}, {"time": 47040, "pitch": 31, "duration": 240, "velocity": 105}, {"time": 47280, "pitch": 31, "duration": 240, "velocity": 100}, {"time": 47520, "pitch": 31, "duration": 240, "velocity": 110}, {"time": 47760, "pitch": 31, "duration": 240, "velocity": 100}, {"time": 48000, "pitch": 31, "duration": 240, "velocity": 105}, {"time": 48240, "pitch": 31, "duration": 240, "velocity": 100}, {"time": 48480, "pitch": 33, "duration": 240, "velocity": 110}, {"time": 48720, "pitch": 33, "duration": 240, "velocity": 100}, {"time": 48960, "pitch": 33, "duration": 240, "velocity": 105}, {"time": 49200, "pitch": 33, "duration": 240, "velocity": 100}, {"time": 49440, "pitch": 33, "duration": 240, "velocity": 110}, {"time": 49680, "pitch": 33, "duration": 240, "velocity": 100}, {"time": 49920, "pitch": 33, "duration": 240, "velocity": 105}, {"time": 50160, "pitch": 33, "duration": 240, "velocity": 100}, {"time": 50400, "pitch": 35, "duration": 240, "velocity": 110}, {"time": 50640, "pitch": 35, "duration": 240, "velocity": 100}, {"time": 50880, "pitch": 35, "duration": 240, "velocity": 105}, {"time": 51120, "pitch": 35, "duration": 240, "velocity": 100}, {"time": 51360, "pitch": 35, "duration": 240, "velocity": 110}, {"time": 51600, "pitch": 35, "duration": 240, "velocity": 100}, {"time": 51840, "pitch": 35, "duration": 240, "velocity": 105}, {"time": 52080, "pitch": 35, "duration": 240, "velocity": 100}, {"time": 52320, "pitch": 35, "duration": 240, "velocity": 110}, {"time": 54000, "pitch": 28, "duration": 480, "velocity": 110}, {"time": 54480, "pitch": 28, "duration": 240, "velocity": 100}, {"time": 54720, "pitch": 28, "duration": 240, "velocity": 105}, {"time": 54960, "pitch": 28, "duration": 240, "velocity": 100}, {"time": 55200, "pitch": 28, "duration": 240, "velocity": 110}, {"time": 55440, "pitch": 28, "duration": 240, "velocity": 100}, {"time": 55680, "pitch": 28, "duration": 240, "velocity": 105}, {"time": 55920, "pitch": 28, "duration": 460, "velocity": 110}, {"time": 56400, "pitch": 28, "duration": 240, "velocity": 100}, {"time": 56640, "pitch": 28, "duration": 240, "velocity": 105}, {"time": 56880, "pitch": 28, "duration": 240, "velocity": 100}, {"time": 57120, "pitch": 28, "duration": 240, "velocity": 110}, {"time": 57360, "pitch": 28, "duration": 240, "velocity": 100}, {"time": 57600, "pitch": 28, "duration": 240, "velocity": 105}, {"time": 57840, "pitch": 28, "duration": 240, "velocity": 100}, {"time": 58080, "pitch": 38, "duration": 240, "velocity": 110}, {"time": 58320, "pitch": 38, "duration": 240, "velocity": 100}, {"time": 58560, "pitch": 38, "duration": 240, "velocity": 105}, {"time": 58800, "pitch": 38, "duration": 240, "velocity": 100}, {"time": 59040, "pitch": 38, "duration": 240, "velocity": 110}, {"time": 59280, "pitch": 38, "duration": 240, "velocity": 100}, {"time": 59520, "pitch": 38, "duration": 240, "velocity": 105}, {"time": 59760, "pitch": 37, "duration": 480, "velocity": 110}, {"time": 60240, "pitch": 37, "duration": 240, "velocity": 100}, {"time": 60480, "pitch": 37, "duration": 240, "velocity": 105}, {"time": 60720, "pitch": 37, "duration": 240, "velocity": 100}, {"time": 60960, "pitch": 37, "duration": 240, "velocity": 110}, {"time": 61200, "pitch": 37, "duration": 240, "velocity": 100}, {"time": 61440, "pitch": 37, "duration": 240, "velocity": 105}, {"time": 61680, "pitch": 37, "duration": 240, "velocity": 100}, {"time": 61920, "pitch": 32, "duration": 240, "velocity": 110}, {"time": 62160, "pitch": 32, "duration": 240, "velocity": 100}, {"time": 62400, "pitch": 32, "duration": 240, "velocity": 105}, {"time": 62640, "pitch": 32, "duration": 240, "velocity": 100}, {"time": 62880, "pitch": 32, "duration": 240, "velocity": 110}, {"time": 63120, "pitch": 35, "duration": 240, "velocity": 100}, {"time": 63360, "pitch": 36, "duration": 240, "velocity": 105}, {"time": 63600, "pitch": 37, "duration": 480, "velocity": 110}, {"time": 64080, "pitch": 37, "duration": 240, "velocity": 100}, {"time": 64320, "pitch": 37, "duration": 240, "velocity": 105}, {"time": 64560, "pitch": 37, "duration": 240, "velocity": 100}, {"time": 64800, "pitch": 35, "duration": 240, "velocity": 110}, {"time": 65040, "pitch": 35, "duration": 240, "velocity": 100}, {"time": 65280, "pitch": 35, "duration": 240, "velocity": 105}, {"time": 65520, "pitch": 35, "duration": 240, "velocity": 100}, {"time": 65760, "pitch": 30, "duration": 240, "velocity": 110}, {"time": 66000, "pitch": 30, "duration": 240, "velocity": 100}, {"time": 66240, "pitch": 30, "duration": 240, "velocity": 105}, {"time": 66480, "pitch": 30, "duration": 240, "velocity": 100}, {"time": 66720, "pitch": 30, "duration": 240, "velocity": 110}, {"time": 66960, "pitch": 32, "duration": 240, "velocity": 100}, {"time": 67200, "pitch": 33, "duration": 240, "velocity": 105}, {"time": 67440, "pitch": 35, "duration": 480, "velocity": 110}, {"time": 67920, "pitch": 35, "duration": 240, "velocity": 100}, {"time": 68160, "pitch": 35, "duration": 240, "velocity": 105}, {"time": 68400, "pitch": 35, "duration": 240, "velocity": 100}, {"time": 68640, "pitch": 35, "duration": 240, "velocity": 110}, {"time": 68880, "pitch": 35, "duration": 240, "velocity": 100}, {"time": 69120, "pitch": 35, "duration": 240, "velocity": 105}, {"time": 69360, "pitch": 28, "duration": 480, "velocity": 110}, {"time": 69840, "pitch": 28, "duration": 240, "velocity": 100}, {"time": 70080, "pitch": 28, "duration": 240, "velocity": 105}, {"time": 70320, "pitch": 28, "duration": 240, "velocity": 100}, {"time": 70560, "pitch": 28, "duration": 240, "velocity": 110}, {"time": 70800, "pitch": 28, "duration": 240, "velocity": 100}, {"time": 71040, "pitch": 28, "duration": 240, "velocity": 105}, {"time": 71280, "pitch": 28, "duration": 480, "velocity": 110}, {"time": 71760, "pitch": 28, "duration": 240, "velocity": 100}, {"time": 72000, "pitch": 28, "duration": 240, "velocity": 105}, {"time": 72240, "pitch": 28, "duration": 240, "velocity": 100}, {"time": 72480, "pitch": 28, "duration": 240, "velocity": 110}, {"time": 72720, "pitch": 28, "duration": 240, "velocity": 100}, {"time": 72960, "pitch": 28, "duration": 240, "velocity": 105}, {"time": 73200, "pitch": 28, "duration": 240, "velocity": 100}, {"time": 73440, "pitch": 38, "duration": 240, "velocity": 110}, {"time": 73680, "pitch": 38, "duration": 240, "velocity": 100}, {"time": 73920, "pitch": 38, "duration": 240, "velocity": 105}, {"time": 74160, "pitch": 38, "duration": 240, "velocity": 100}, {"time": 74400, "pitch": 38, "duration": 240, "velocity": 110}, {"time": 74640, "pitch": 38, "duration": 240, "velocity": 100}, {"time": 74880, "pitch": 38, "duration": 240, "velocity": 105}, {"time": 75120, "pitch": 37, "duration": 480, "velocity": 110}, {"time": 75600, "pitch": 37, "duration": 240, "velocity": 100}, {"time": 75840, "pitch": 37, "duration": 240, "velocity": 105}, {"time": 76080, "pitch": 37, "duration": 240, "velocity": 100}, {"time": 76320, "pitch": 37, "duration": 240, "velocity": 110}, {"time": 76560, "pitch": 37, "duration": 240, "velocity": 100}, {"time": 76800, "pitch": 37, "duration": 240, "velocity": 105}, {"time": 77040, "pitch": 37, "duration": 240, "velocity": 100}, {"time": 77280, "pitch": 32, "duration": 240, "velocity": 110}, {"time": 77520, "pitch": 32, "duration": 240, "velocity": 100}, {"time": 77760, "pitch": 32, "duration": 240, "velocity": 105}, {"time": 78000, "pitch": 32, "duration": 240, "velocity": 100}, {"time": 78240, "pitch": 32, "duration": 240, "velocity": 110}, {"time": 78480, "pitch": 35, "duration": 240, "velocity": 100}, {"time": 78720, "pitch": 36, "duration": 240, "velocity": 105}, {"time": 78960, "pitch": 37, "duration": 480, "velocity": 110}, {"time": 79440, "pitch": 37, "duration": 240, "velocity": 100}, {"time": 79680, "pitch": 37, "duration": 240, "velocity": 105}, {"time": 79920, "pitch": 37, "duration": 240, "velocity": 100}, {"time": 80160, "pitch": 35, "duration": 240, "velocity": 110}, {"time": 80400, "pitch": 35, "duration": 240, "velocity": 100}, {"time": 80640, "pitch": 35, "duration": 240, "velocity": 105}, {"time": 80880, "pitch": 35, "duration": 240, "velocity": 100}, {"time": 81120, "pitch": 30, "duration": 240, "velocity": 110}, {"time": 81360, "pitch": 30, "duration": 240, "velocity": 100}, {"time": 81600, "pitch": 30, "duration": 240, "velocity": 105}, {"time": 81840, "pitch": 30, "duration": 240, "velocity": 100}, {"time": 82080, "pitch": 35, "duration": 240, "velocity": 110}, {"time": 82320, "pitch": 35, "duration": 240, "velocity": 100}, {"time": 82560, "pitch": 35, "duration": 240, "velocity": 105}, {"time": 82800, "pitch": 28, "duration": 480, "velocity": 110}, {"time": 83280, "pitch": 28, "duration": 240, "velocity": 100}, {"time": 83520, "pitch": 28, "duration": 240, "velocity": 105}, {"time": 83760, "pitch": 28, "duration": 240, "velocity": 100}, {"time": 84000, "pitch": 28, "duration": 240, "velocity": 110}, {"time": 84240, "pitch": 28, "duration": 240, "velocity": 100}, {"time": 84480, "pitch": 28, "duration": 240, "velocity": 105}, {"time": 84720, "pitch": 28, "duration": 240, "velocity": 100}, {"time": 84960, "pitch": 28, "duration": 240, "velocity": 110}, {"time": 85200, "pitch": 28, "duration": 240, "velocity": 100}, {"time": 85440, "pitch": 28, "duration": 240, "velocity": 105}, {"time": 85680, "pitch": 28, "duration": 240, "velocity": 100}, {"time": 85920, "pitch": 28, "duration": 240, "velocity": 110}, {"time": 86160, "pitch": 40, "duration": 120, "velocity": 105}, {"time": 86280, "pitch": 40, "duration": 120, "velocity": 95}, {"time": 86400, "pitch": 28, "duration": 240, "velocity": 105}, {"time": 86640, "pitch": 40, "duration": 120, "velocity": 95}, {"time": 86760, "pitch": 40, "duration": 120, "velocity": 90}, {"time": 86880, "pitch": 28, "duration": 160, "velocity": 110}, {"time": 87120, "pitch": 28, "duration": 240, "velocity": 100}, {"time": 87360, "pitch": 40, "duration": 240, "velocity": 105}, {"time": 87600, "pitch": 28, "duration": 160, "velocity": 100}, {"time": 87840, "pitch": 28, "duration": 240, "velocity": 110}, {"time": 88080, "pitch": 40, "duration": 240, "velocity": 100}, {"time": 88320, "pitch": 28, "duration": 160, "velocity": 105}, {"time": 88560, "pitch": 28, "duration": 240, "velocity": 100}, {"time": 88800, "pitch": 40, "duration": 240, "velocity": 110}, {"time": 89040, "pitch": 28, "duration": 160, "velocity": 105}, {"time": 89280, "pitch": 28, "duration": 240, "velocity": 100}, {"time": 89520, "pitch": 40, "duration": 480, "velocity": 110}, {"time": 90000, "pitch": 40, "duration": 240, "velocity": 100}, {"time": 90240, "pitch": 38, "duration": 240, "velocity": 105}, {"time": 90480, "pitch": 35, "duration": 240, "velocity": 100}, {"time": 90720, "pitch": 28, "duration": 160, "velocity": 110}, {"time": 90960, "pitch": 28, "duration": 240, "velocity": 100}, {"time": 91200, "pitch": 40, "duration": 240, "velocity": 105}, {"time": 91440, "pitch": 28, "duration": 160, "velocity": 100}, {"time": 91680, "pitch": 28, "duration": 240, "velocity": 110}, {"time": 91920, "pitch": 40, "duration": 240, "velocity": 100}, {"time": 92160, "pitch": 28, "duration": 160, "velocity": 105}, {"time": 92400, "pitch": 28, "duration": 240, "velocity": 100}, {"time": 92640, "pitch": 40, "duration": 240, "velocity": 110}, {"time": 92880, "pitch": 28, "duration": 160, "velocity": 105}, {"time": 93120, "pitch": 28, "duration": 240, "velocity": 100}, {"time": 93360, "pitch": 40, "duration": 480, "velocity": 110}, {"time": 93840, "pitch": 40, "duration": 240, "velocity": 100}, {"time": 94080, "pitch": 38, "duration": 240, "velocity": 105}, {"time": 94320, "pitch": 35, "duration": 240, "velocity": 100}, {"time": 94560, "pitch": 28, "duration": 160, "velocity": 110}, {"time": 94800, "pitch": 28, "duration": 240, "velocity": 100}, {"time": 95040, "pitch": 40, "duration": 240, "velocity": 105}, {"time": 95280, "pitch": 28, "duration": 160, "velocity": 100}, {"time": 95520, "pitch": 28, "duration": 240, "velocity": 110}, {"time": 95760, "pitch": 40, "duration": 240, "velocity": 100}, {"time": 96000, "pitch": 28, "duration": 160, "velocity": 105}, {"time": 96240, "pitch": 28, "duration": 240, "velocity": 100}, {"time": 96480, "pitch": 40, "duration": 240, "velocity": 110}, {"time": 96720, "pitch": 28, "duration": 160, "velocity": 105}, {"time": 96960, "pitch": 28, "duration": 240, "velocity": 100}, {"time": 97200, "pitch": 40, "duration": 480, "velocity": 110}, {"time": 97680, "pitch": 40, "duration": 240, "velocity": 100}, {"time": 97920, "pitch": 38, "duration": 240, "velocity": 105}, {"time": 98160, "pitch": 35, "duration": 240, "velocity": 100}, {"time": 98400, "pitch": 28, "duration": 160, "velocity": 110}, {"time": 98640, "pitch": 28, "duration": 240, "velocity": 100}, {"time": 98880, "pitch": 40, "duration": 240, "velocity": 105}, {"time": 99120, "pitch": 28, "duration": 160, "velocity": 100}, {"time": 99360, "pitch": 28, "duration": 240, "velocity": 110}, {"time": 99600, "pitch": 40, "duration": 240, "velocity": 100}, {"time": 99840, "pitch": 28, "duration": 160, "velocity": 105}, {"time": 100080, "pitch": 28, "duration": 240, "velocity": 100}, {"time": 100320, "pitch": 40, "duration": 240, "velocity": 110}, {"time": 100560, "pitch": 28, "duration": 160, "velocity": 105}, {"time": 100800, "pitch": 28, "duration": 240, "velocity": 100}, {"time": 101040, "pitch": 40, "duration": 480, "velocity": 110}, {"time": 101520, "pitch": 40, "duration": 240, "velocity": 100}, {"time": 101760, "pitch": 38, "duration": 240, "velocity": 105}, {"time": 102000, "pitch": 35, "duration": 240, "velocity": 100}, {"time": 102240, "pitch": 28, "duration": 160, "velocity": 110}, {"time": 102480, "pitch": 28, "duration": 240, "velocity": 100}, {"time": 102720, "pitch": 40, "duration": 240, "velocity": 105}, {"time": 102960, "pitch": 28, "duration": 160, "velocity": 100}, {"time": 103200, "pitch": 28, "duration": 240, "velocity": 110}, {"time": 103440, "pitch": 40, "duration": 240, "velocity": 100}, {"time": 103680, "pitch": 28, "duration": 160, "velocity": 105}, {"time": 103920, "pitch": 28, "duration": 240, "velocity": 100}, {"time": 104160, "pitch": 40, "duration": 240, "velocity": 110}, {"time": 104400, "pitch": 28, "duration": 160, "velocity": 105}, {"time": 104640, "pitch": 28, "duration": 240, "velocity": 100}, {"time": 104880, "pitch": 40, "duration": 480, "velocity": 110}, {"time": 105360, "pitch": 40, "duration": 240, "velocity": 100}, {"time": 105600, "pitch": 38, "duration": 240, "velocity": 105}, {"time": 105840, "pitch": 35, "duration": 240, "velocity": 100}, {"time": 106080, "pitch": 28, "duration": 160, "velocity": 110}, {"time": 106320, "pitch": 28, "duration": 240, "velocity": 100}, {"time": 106560, "pitch": 40, "duration": 240, "velocity": 105}, {"time": 106800, "pitch": 28, "duration": 160, "velocity": 100}, {"time": 107040, "pitch": 28, "duration": 240, "velocity": 110}, {"time": 107280, "pitch": 40, "duration": 240, "velocity": 100}, {"time": 107520, "pitch": 28, "duration": 160, "velocity": 105}, {"time": 107760, "pitch": 28, "duration": 240, "velocity": 100}, {"time": 108000, "pitch": 40, "duration": 240, "velocity": 110}, {"time": 108240, "pitch": 28, "duration": 160, "velocity": 105}, {"time": 108480, "pitch": 28, "duration": 240, "velocity": 100}, {"time": 108720, "pitch": 40, "duration": 480, "velocity": 110}, {"time": 109200, "pitch": 40, "duration": 240, "velocity": 100}, {"time": 109440, "pitch": 38, "duration": 240, "velocity": 105}, {"time": 109680, "pitch": 35, "duration": 240, "velocity": 100}, {"time": 109920, "pitch": 31, "duration": 240, "velocity": 110}, {"time": 110160, "pitch": 31, "duration": 240, "velocity": 100}, {"time": 110400, "pitch": 31, "duration": 240, "velocity": 105}, {"time": 110640, "pitch": 31, "duration": 240, "velocity": 100}, {"time": 110880, "pitch": 31, "duration": 240, "velocity": 110}, {"time": 111120, "pitch": 31, "duration": 240, "velocity": 100}, {"time": 111360, "pitch": 31, "duration": 240, "velocity": 105}, {"time": 111600, "pitch": 31, "duration": 240, "velocity": 100}, {"time": 111840, "pitch": 33, "duration": 240, "velocity": 110}, {"time": 112080, "pitch": 33, "duration": 240, "velocity": 100}, {"time": 112320, "pitch": 33, "duration": 240, "velocity": 105}, {"time": 112560, "pitch": 33, "duration": 240, "velocity": 100}, {"time": 112800, "pitch": 33, "duration": 240, "velocity": 110}, {"time": 113040, "pitch": 33, "duration": 240, "velocity": 100}, {"time": 113280, "pitch": 33, "duration": 240, "velocity": 105}, {"time": 113520, "pitch": 33, "duration": 240, "velocity": 100}, {"time": 113760, "pitch": 40, "duration": 210, "velocity": 110}, {"time": 114240, "pitch": 52, "duration": 240, "velocity": 105}, {"time": 114720, "pitch": 40, "duration": 200, "velocity": 110}, {"time": 114960, "pitch": 52, "duration": 240, "velocity": 105}, {"time": 115440, "pitch": 40, "duration": 220, "velocity": 110}, {"time": 115920, "pitch": 40, "duration": 240, "velocity": 105}, {"time": 116160, "pitch": 52, "duration": 240, "velocity": 110}, {"time": 116400, "pitch": 40, "duration": 160, "velocity": 100}, {"time": 116640, "pitch": 52, "duration": 480, "velocity": 110}, {"time": 117120, "pitch": 50, "duration": 240, "velocity": 105}, {"time": 117360, "pitch": 47, "duration": 240, "velocity": 100}, {"time": 117600, "pitch": 31, "duration": 240, "velocity": 110}, {"time": 117840, "pitch": 31, "duration": 240, "velocity": 100}, {"time": 118080, "pitch": 31, "duration": 240, "velocity": 105}, {"time": 118320, "pitch": 31, "duration": 240, "velocity": 100}, {"time": 118560, "pitch": 31, "duration": 240, "velocity": 110}, {"time": 118800, "pitch": 31, "duration": 240, "velocity": 100}, {"time": 119040, "pitch": 31, "duration": 240, "velocity": 105}, {"time": 119280, "pitch": 31, "duration": 240, "velocity": 100}, {"time": 119520, "pitch": 33, "duration": 240, "velocity": 110}, {"time": 119760, "pitch": 33, "duration": 240, "velocity": 100}, {"time": 120000, "pitch": 33, "duration": 240, "velocity": 105}, {"time": 120240, "pitch": 33, "duration": 240, "velocity": 100}, {"time": 120480, "pitch": 33, "duration": 240, "velocity": 110}, {"time": 120720, "pitch": 33, "duration": 240, "velocity": 100}, {"time": 120960, "pitch": 33, "duration": 240, "velocity": 105}, {"time": 121200, "pitch": 33, "duration": 240, "velocity": 100}, {"time": 121440, "pitch": 35, "duration": 240, "velocity": 110}, {"time": 121680, "pitch": 35, "duration": 240, "velocity": 100}, {"time": 121920, "pitch": 35, "duration": 240, "velocity": 105}, {"time": 122160, "pitch": 35, "duration": 240, "velocity": 100}, {"time": 122400, "pitch": 35, "duration": 240, "velocity": 110}, {"time": 122640, "pitch": 35, "duration": 240, "velocity": 100}, {"time": 122880, "pitch": 35, "duration": 240, "velocity": 105}, {"time": 123120, "pitch": 35, "duration": 240, "velocity": 100}, {"time": 123360, "pitch": 35, "duration": 240, "velocity": 110}, {"time": 125040, "pitch": 28, "duration": 480, "velocity": 110}, {"time": 125520, "pitch": 28, "duration": 240, "velocity": 100}, {"time": 125760, "pitch": 28, "duration": 240, "velocity": 105}, {"time": 126000, "pitch": 28, "duration": 240, "velocity": 100}, {"time": 126240, "pitch": 28, "duration": 240, "velocity": 110}, {"time": 126480, "pitch": 28, "duration": 240, "velocity": 100}, {"time": 126720, "pitch": 28, "duration": 240, "velocity": 105}, {"time": 126960, "pitch": 28, "duration": 460, "velocity": 110}, {"time": 127440, "pitch": 28, "duration": 240, "velocity": 100}, {"time": 127680, "pitch": 28, "duration": 240, "velocity": 105}, {"time": 127920, "pitch": 28, "duration": 240, "velocity": 100}, {"time": 128160, "pitch": 28, "duration": 240, "velocity": 110}, {"time": 128400, "pitch": 28, "duration": 240, "velocity": 100}, {"time": 128640, "pitch": 28, "duration": 240, "velocity": 105}, {"time": 128880, "pitch": 28, "duration": 240, "velocity": 100}, {"time": 129120, "pitch": 38, "duration": 240, "velocity": 110}, {"time": 129360, "pitch": 38, "duration": 240, "velocity": 100}, {"time": 129600, "pitch": 38, "duration": 240, "velocity": 105}, {"time": 129840, "pitch": 38, "duration": 240, "velocity": 100}, {"time": 130080, "pitch": 38, "duration": 240, "velocity": 110}, {"time": 130320, "pitch": 38, "duration": 240, "velocity": 100}, {"time": 130560, "pitch": 38, "duration": 240, "velocity": 105}, {"time": 130800, "pitch": 37, "duration": 480, "velocity": 110}, {"time": 131280, "pitch": 37, "duration": 240, "velocity": 100}, {"time": 131520, "pitch": 37, "duration": 240, "velocity": 105}, {"time": 131760, "pitch": 37, "duration": 240, "velocity": 100}, {"time": 132000, "pitch": 37, "duration": 240, "velocity": 110}, {"time": 132240, "pitch": 37, "duration": 240, "velocity": 100}, {"time": 132480, "pitch": 37, "duration": 240, "velocity": 105}, {"time": 132720, "pitch": 37, "duration": 240, "velocity": 100}, {"time": 132960, "pitch": 32, "duration": 240, "velocity": 110}, {"time": 133200, "pitch": 32, "duration": 240, "velocity": 100}, {"time": 133440, "pitch": 32, "duration": 240, "velocity": 105}, {"time": 133680, "pitch": 32, "duration": 240, "velocity": 100}, {"time": 133920, "pitch": 32, "duration": 240, "velocity": 110}, {"time": 134160, "pitch": 35, "duration": 240, "velocity": 100}, {"time": 134400, "pitch": 36, "duration": 240, "velocity": 105}, {"time": 134640, "pitch": 37, "duration": 480, "velocity": 110}, {"time": 135120, "pitch": 37, "duration": 240, "velocity": 100}, {"time": 135360, "pitch": 37, "duration": 240, "velocity": 105}, {"time": 135600, "pitch": 37, "duration": 240, "velocity": 100}, {"time": 135840, "pitch": 35, "duration": 240, "velocity": 110}, {"time": 136080, "pitch": 35, "duration": 240, "velocity": 100}, {"time": 136320, "pitch": 35, "duration": 240, "velocity": 105}, {"time": 136560, "pitch": 35, "duration": 240, "velocity": 100}, {"time": 136800, "pitch": 30, "duration": 240, "velocity": 110}, {"time": 137040, "pitch": 30, "duration": 240, "velocity": 100}, {"time": 137280, "pitch": 30, "duration": 240, "velocity": 105}, {"time": 137520, "pitch": 30, "duration": 240, "velocity": 100}, {"time": 137760, "pitch": 30, "duration": 240, "velocity": 110}, {"time": 138000, "pitch": 32, "duration": 240, "velocity": 100}, {"time": 138240, "pitch": 33, "duration": 240, "velocity": 105}, {"time": 138480, "pitch": 35, "duration": 480, "velocity": 110}, {"time": 138960, "pitch": 35, "duration": 240, "velocity": 100}, {"time": 139200, "pitch": 35, "duration": 240, "velocity": 105}, {"time": 139440, "pitch": 35, "duration": 240, "velocity": 100}, {"time": 139680, "pitch": 35, "duration": 240, "velocity": 110}, {"time": 139920, "pitch": 35, "duration": 240, "velocity": 100}, {"time": 140160, "pitch": 35, "duration": 240, "velocity": 105}, {"time": 140400, "pitch": 28, "duration": 480, "velocity": 110}, {"time": 140880, "pitch": 28, "duration": 240, "velocity": 100}, {"time": 141120, "pitch": 28, "duration": 240, "velocity": 105}, {"time": 141360, "pitch": 28, "duration": 240, "velocity": 100}, {"time": 141600, "pitch": 28, "duration": 240, "velocity": 110}, {"time": 141840, "pitch": 28, "duration": 240, "velocity": 100}, {"time": 142080, "pitch": 28, "duration": 240, "velocity": 105}, {"time": 142320, "pitch": 28, "duration": 240, "velocity": 100}, {"time": 142560, "pitch": 28, "duration": 240, "velocity": 110}, {"time": 142800, "pitch": 28, "duration": 240, "velocity": 100}, {"time": 143040, "pitch": 28, "duration": 240, "velocity": 105}, {"time": 143280, "pitch": 28, "duration": 240, "velocity": 100}, {"time": 143520, "pitch": 28, "duration": 240, "velocity": 110}, {"time": 143760, "pitch": 28, "duration": 240, "velocity": 100}, {"time": 144000, "pitch": 28, "duration": 240, "velocity": 105}, {"time": 144240, "pitch": 28, "duration": 240, "velocity": 100}, {"time": 144480, "pitch": 38, "duration": 240, "velocity": 110}, {"time": 144720, "pitch": 38, "duration": 240, "velocity": 100}, {"time": 144960, "pitch": 38, "duration": 240, "velocity": 105}, {"time": 145200, "pitch": 38, "duration": 240, "velocity": 100}, {"time": 145440, "pitch": 38, "duration": 240, "velocity": 110}, {"time": 145680, "pitch": 38, "duration": 240, "velocity": 100}, {"time": 145920, "pitch": 38, "duration": 240, "velocity": 105}, {"time": 146160, "pitch": 37, "duration": 480, "velocity": 110}, {"time": 146640, "pitch": 37, "duration": 240, "velocity": 100}, {"time": 146880, "pitch": 37, "duration": 240, "velocity": 105}, {"time": 147120, "pitch": 37, "duration": 240, "velocity": 100}, {"time": 147360, "pitch": 37, "duration": 240, "velocity": 110}, {"time": 147600, "pitch": 37, "duration": 240, "velocity": 100}, {"time": 147840, "pitch": 37, "duration": 240, "velocity": 105}, {"time": 148080, "pitch": 37, "duration": 240, "velocity": 100}, {"time": 148320, "pitch": 32, "duration": 240, "velocity": 110}, {"time": 148560, "pitch": 32, "duration": 240, "velocity": 100}, {"time": 148800, "pitch": 32, "duration": 240, "velocity": 105}, {"time": 149040, "pitch": 32, "duration": 240, "velocity": 100}, {"time": 149280, "pitch": 32, "duration": 240, "velocity": 110}, {"time": 149520, "pitch": 35, "duration": 240, "velocity": 100}, {"time": 149760, "pitch": 36, "duration": 240, "velocity": 105}, {"time": 150000, "pitch": 37, "duration": 480, "velocity": 110}, {"time": 150480, "pitch": 37, "duration": 240, "velocity": 100}, {"time": 150720, "pitch": 37, "duration": 240, "velocity": 105}, {"time": 150960, "pitch": 37, "duration": 240, "velocity": 100}, {"time": 151200, "pitch": 35, "duration": 240, "velocity": 110}, {"time": 151440, "pitch": 35, "duration": 240, "velocity": 100}, {"time": 151680, "pitch": 35, "duration": 240, "velocity": 105}, {"time": 151920, "pitch": 35, "duration": 240, "velocity": 100}, {"time": 152160, "pitch": 30, "duration": 240, "velocity": 110}, {"time": 152400, "pitch": 30, "duration": 240, "velocity": 100}, {"time": 152640, "pitch": 30, "duration": 240, "velocity": 105}, {"time": 152880, "pitch": 30, "duration": 240, "velocity": 100}, {"time": 153120, "pitch": 35, "duration": 240, "velocity": 110}, {"time": 153360, "pitch": 35, "duration": 240, "velocity": 100}, {"time": 153600, "pitch": 35, "duration": 240, "velocity": 105}, {"time": 153840, "pitch": 28, "duration": 480, "velocity": 110}, {"time": 154320, "pitch": 28, "duration": 240, "velocity": 100}, {"time": 154560, "pitch": 28, "duration": 240, "velocity": 105}, {"time": 154800, "pitch": 28, "duration": 240, "velocity": 100}, {"time": 155040, "pitch": 28, "duration": 240, "velocity": 110}, {"time": 155280, "pitch": 28, "duration": 240, "velocity": 100}, {"time": 155520, "pitch": 28, "duration": 240, "velocity": 105}, {"time": 155760, "pitch": 28, "duration": 240, "velocity": 100}, {"time": 156000, "pitch": 28, "duration": 240, "velocity": 110}, {"time": 156240, "pitch": 28, "duration": 240, "velocity": 100}, {"time": 156480, "pitch": 28, "duration": 240, "velocity": 105}, {"time": 156720, "pitch": 28, "duration": 240, "velocity": 100}, {"time": 156960, "pitch": 28, "duration": 240, "velocity": 110}, {"time": 157200, "pitch": 40, "duration": 120, "velocity": 105}, {"time": 157320, "pitch": 40, "duration": 120, "velocity": 95}, {"time": 157440, "pitch": 28, "duration": 240, "velocity": 105}, {"time": 157680, "pitch": 40, "duration": 120, "velocity": 95}, {"time": 157800, "pitch": 40, "duration": 120, "velocity": 90}, {"time": 157920, "pitch": 28, "duration": 240, "velocity": 110}, {"time": 158640, "pitch": 28, "duration": 50, "velocity": 100}, {"time": 158760, "pitch": 28, "duration": 70, "velocity": 95}, {"time": 158880, "pitch": 40, "duration": 480, "velocity": 110}, {"time": 159600, "pitch": 28, "duration": 190, "velocity": 100}, {"time": 160080, "pitch": 28, "duration": 230, "velocity": 105}, {"time": 160320, "pitch": 40, "duration": 240, "velocity": 110}, {"time": 160800, "pitch": 38, "duration": 480, "velocity": 110}, {"time": 161280, "pitch": 37, "duration": 240, "velocity": 105}, {"time": 161520, "pitch": 38, "duration": 160, "velocity": 100}, {"time": 161760, "pitch": 28, "duration": 240, "velocity": 110}, {"time": 162480, "pitch": 28, "duration": 50, "velocity": 100}, {"time": 162600, "pitch": 28, "duration": 70, "velocity": 95}, {"time": 162720, "pitch": 40, "duration": 480, "velocity": 110}, {"time": 163440, "pitch": 28, "duration": 190, "velocity": 100}, {"time": 163920, "pitch": 28, "duration": 240, "velocity": 105}, {"time": 164160, "pitch": 40, "duration": 240, "velocity": 110}, {"time": 164640, "pitch": 38, "duration": 480, "velocity": 110}, {"time": 165120, "pitch": 37, "duration": 240, "velocity": 105}, {"time": 165360, "pitch": 38, "duration": 160, "velocity": 100}, {"time": 165600, "pitch": 28, "duration": 240, "velocity": 110}, {"time": 166320, "pitch": 28, "duration": 50, "velocity": 100}, {"time": 166440, "pitch": 28, "duration": 70, "velocity": 95}, {"time": 166560, "pitch": 40, "duration": 480, "velocity": 110}, {"time": 167280, "pitch": 28, "duration": 190, "velocity": 100}, {"time": 167760, "pitch": 28, "duration": 230, "velocity": 105}, {"time": 168000, "pitch": 40, "duration": 240, "velocity": 110}, {"time": 168480, "pitch": 38, "duration": 480, "velocity": 110}, {"time": 168960, "pitch": 37, "duration": 240, "velocity": 105}, {"time": 169200, "pitch": 38, "duration": 160, "velocity": 100}, {"time": 169440, "pitch": 28, "duration": 240, "velocity": 110}, {"time": 170160, "pitch": 28, "duration": 50, "velocity": 100}, {"time": 170280, "pitch": 28, "duration": 70, "velocity": 95}, {"time": 170400, "pitch": 40, "duration": 480, "velocity": 110}, {"time": 171120, "pitch": 28, "duration": 190, "velocity": 100}, {"time": 171600, "pitch": 28, "duration": 230, "velocity": 105}, {"time": 171840, "pitch": 40, "duration": 240, "velocity": 110}, {"time": 172320, "pitch": 38, "duration": 480, "velocity": 110}, {"time": 172800, "pitch": 37, "duration": 240, "velocity": 105}, {"time": 173040, "pitch": 38, "duration": 160, "velocity": 100}, {"time": 173280, "pitch": 31, "duration": 240, "velocity": 110}, {"time": 173520, "pitch": 31, "duration": 240, "velocity": 100}, {"time": 173760, "pitch": 31, "duration": 240, "velocity": 105}, {"time": 174000, "pitch": 31, "duration": 240, "velocity": 100}, {"time": 174240, "pitch": 31, "duration": 240, "velocity": 110}, {"time": 174480, "pitch": 31, "duration": 240, "velocity": 100}, {"time": 174720, "pitch": 31, "duration": 240, "velocity": 105}, {"time": 174960, "pitch": 31, "duration": 240, "velocity": 100}, {"time": 175200, "pitch": 33, "duration": 240, "velocity": 110}, {"time": 175440, "pitch": 33, "duration": 240, "velocity": 100}, {"time": 175680, "pitch": 33, "duration": 240, "velocity": 105}, {"time": 175920, "pitch": 33, "duration": 240, "velocity": 100}, {"time": 176160, "pitch": 33, "duration": 240, "velocity": 110}, {"time": 176400, "pitch": 33, "duration": 240, "velocity": 100}, {"time": 176640, "pitch": 33, "duration": 240, "velocity": 105}, {"time": 176880, "pitch": 33, "duration": 240, "velocity": 100}, {"time": 177120, "pitch": 40, "duration": 210, "velocity": 110}, {"time": 177600, "pitch": 52, "duration": 240, "velocity": 105}, {"time": 178080, "pitch": 40, "duration": 200, "velocity": 110}, {"time": 178320, "pitch": 52, "duration": 240, "velocity": 105}, {"time": 178800, "pitch": 40, "duration": 220, "velocity": 110}, {"time": 179280, "pitch": 40, "duration": 240, "velocity": 105}, {"time": 179520, "pitch": 52, "duration": 240, "velocity": 110}, {"time": 179760, "pitch": 40, "duration": 160, "velocity": 100}, {"time": 180000, "pitch": 52, "duration": 480, "velocity": 110}, {"time": 180480, "pitch": 50, "duration": 240, "velocity": 105}, {"time": 180720, "pitch": 47, "duration": 240, "velocity": 100}, {"time": 180960, "pitch": 31, "duration": 240, "velocity": 110}, {"time": 181200, "pitch": 31, "duration": 240, "velocity": 100}, {"time": 181440, "pitch": 31, "duration": 240, "velocity": 105}, {"time": 181680, "pitch": 31, "duration": 240, "velocity": 100}, {"time": 181920, "pitch": 31, "duration": 240, "velocity": 110}, {"time": 182160, "pitch": 31, "duration": 240, "velocity": 100}, {"time": 182400, "pitch": 31, "duration": 240, "velocity": 105}, {"time": 182640, "pitch": 31, "duration": 240, "velocity": 100}, {"time": 182880, "pitch": 33, "duration": 240, "velocity": 110}, {"time": 183120, "pitch": 33, "duration": 240, "velocity": 100}, {"time": 183360, "pitch": 33, "duration": 240, "velocity": 105}, {"time": 183600, "pitch": 33, "duration": 240, "velocity": 100}, {"time": 183840, "pitch": 33, "duration": 240, "velocity": 110}, {"time": 184080, "pitch": 33, "duration": 240, "velocity": 100}, {"time": 184320, "pitch": 33, "duration": 240, "velocity": 105}, {"time": 184560, "pitch": 33, "duration": 240, "velocity": 100}, {"time": 184800, "pitch": 35, "duration": 240, "velocity": 110}, {"time": 185040, "pitch": 35, "duration": 240, "velocity": 100}, {"time": 185280, "pitch": 35, "duration": 240, "velocity": 105}, {"time": 185520, "pitch": 35, "duration": 240, "velocity": 100}, {"time": 185760, "pitch": 35, "duration": 240, "velocity": 110}, {"time": 186000, "pitch": 35, "duration": 240, "velocity": 100}, {"time": 186240, "pitch": 35, "duration": 240, "velocity": 105}, {"time": 186480, "pitch": 35, "duration": 240, "velocity": 100}, {"time": 186720, "pitch": 35, "duration": 240, "velocity": 110}, {"time": 188400, "pitch": 28, "duration": 480, "velocity": 110}, {"time": 188880, "pitch": 28, "duration": 240, "velocity": 100}, {"time": 189120, "pitch": 28, "duration": 240, "velocity": 105}, {"time": 189360, "pitch": 28, "duration": 240, "velocity": 100}, {"time": 189600, "pitch": 28, "duration": 240, "velocity": 110}, {"time": 189840, "pitch": 28, "duration": 240, "velocity": 100}, {"time": 190080, "pitch": 28, "duration": 240, "velocity": 105}, {"time": 190320, "pitch": 28, "duration": 240, "velocity": 100}, {"time": 190560, "pitch": 28, "duration": 240, "velocity": 110}, {"time": 190800, "pitch": 28, "duration": 240, "velocity": 100}, {"time": 191040, "pitch": 28, "duration": 240, "velocity": 105}, {"time": 191280, "pitch": 28, "duration": 240, "velocity": 100}, {"time": 191520, "pitch": 28, "duration": 240, "velocity": 110}, {"time": 191760, "pitch": 28, "duration": 240, "velocity": 100}, {"time": 192000, "pitch": 28, "duration": 240, "velocity": 105}, {"time": 192240, "pitch": 28, "duration": 240, "velocity": 100}, {"time": 192480, "pitch": 38, "duration": 240, "velocity": 110}, {"time": 192720, "pitch": 38, "duration": 240, "velocity": 100}, {"time": 192960, "pitch": 38, "duration": 240, "velocity": 105}, {"time": 193200, "pitch": 38, "duration": 240, "velocity": 100}, {"time": 193440, "pitch": 38, "duration": 240, "velocity": 110}, {"time": 193680, "pitch": 38, "duration": 240, "velocity": 100}, {"time": 193920, "pitch": 38, "duration": 240, "velocity": 105}, {"time": 194160, "pitch": 37, "duration": 480, "velocity": 110}, {"time": 194640, "pitch": 37, "duration": 240, "velocity": 100}, {"time": 194880, "pitch": 37, "duration": 240, "velocity": 105}, {"time": 195120, "pitch": 37, "duration": 240, "velocity": 100}, {"time": 195360, "pitch": 37, "duration": 240, "velocity": 110}, {"time": 195600, "pitch": 37, "duration": 240, "velocity": 100}, {"time": 195840, "pitch": 37, "duration": 240, "velocity": 105}, {"time": 196080, "pitch": 37, "duration": 240, "velocity": 100}, {"time": 196320, "pitch": 32, "duration": 240, "velocity": 110}, {"time": 196560, "pitch": 32, "duration": 240, "velocity": 100}, {"time": 196800, "pitch": 32, "duration": 240, "velocity": 105}, {"time": 197040, "pitch": 32, "duration": 240, "velocity": 100}, {"time": 197280, "pitch": 32, "duration": 240, "velocity": 110}, {"time": 197520, "pitch": 35, "duration": 240, "velocity": 100}, {"time": 197760, "pitch": 36, "duration": 240, "velocity": 105}, {"time": 198000, "pitch": 37, "duration": 480, "velocity": 110}, {"time": 198480, "pitch": 37, "duration": 240, "velocity": 100}, {"time": 198720, "pitch": 37, "duration": 240, "velocity": 105}, {"time": 198960, "pitch": 37, "duration": 240, "velocity": 100}, {"time": 199200, "pitch": 35, "duration": 240, "velocity": 110}, {"time": 199440, "pitch": 35, "duration": 240, "velocity": 100}, {"time": 199680, "pitch": 35, "duration": 240, "velocity": 105}, {"time": 199920, "pitch": 35, "duration": 240, "velocity": 100}, {"time": 200160, "pitch": 30, "duration": 240, "velocity": 110}, {"time": 200400, "pitch": 30, "duration": 240, "velocity": 100}, {"time": 200640, "pitch": 30, "duration": 240, "velocity": 105}, {"time": 200880, "pitch": 30, "duration": 240, "velocity": 100}, {"time": 201120, "pitch": 30, "duration": 240, "velocity": 110}, {"time": 201360, "pitch": 32, "duration": 240, "velocity": 100}, {"time": 201600, "pitch": 33, "duration": 240, "velocity": 105}, {"time": 201840, "pitch": 35, "duration": 480, "velocity": 110}, {"time": 202320, "pitch": 35, "duration": 240, "velocity": 100}, {"time": 202560, "pitch": 35, "duration": 240, "velocity": 105}, {"time": 202800, "pitch": 35, "duration": 240, "velocity": 100}, {"time": 203040, "pitch": 35, "duration": 240, "velocity": 110}, {"time": 203280, "pitch": 35, "duration": 240, "velocity": 100}, {"time": 203520, "pitch": 35, "duration": 240, "velocity": 105}, {"time": 203760, "pitch": 28, "duration": 480, "velocity": 110}, {"time": 204240, "pitch": 28, "duration": 240, "velocity": 100}, {"time": 204480, "pitch": 28, "duration": 240, "velocity": 105}, {"time": 204720, "pitch": 28, "duration": 240, "velocity": 100}, {"time": 204960, "pitch": 28, "duration": 240, "velocity": 110}, {"time": 205200, "pitch": 28, "duration": 240, "velocity": 100}, {"time": 205440, "pitch": 28, "duration": 240, "velocity": 105}, {"time": 205680, "pitch": 28, "duration": 240, "velocity": 100}, {"time": 205920, "pitch": 28, "duration": 240, "velocity": 110}, {"time": 206160, "pitch": 28, "duration": 240, "velocity": 100}, {"time": 206400, "pitch": 28, "duration": 240, "velocity": 105}, {"time": 206640, "pitch": 28, "duration": 240, "velocity": 100}, {"time": 206880, "pitch": 28, "duration": 240, "velocity": 110}, {"time": 207120, "pitch": 28, "duration": 240, "velocity": 100}, {"time": 207360, "pitch": 28, "duration": 240, "velocity": 105}, {"time": 207600, "pitch": 28, "duration": 240, "velocity": 100}, {"time": 207840, "pitch": 38, "duration": 240, "velocity": 110}, {"time": 208080, "pitch": 38, "duration": 240, "velocity": 100}, {"time": 208320, "pitch": 38, "duration": 240, "velocity": 105}, {"time": 208560, "pitch": 38, "duration": 240, "velocity": 100}, {"time": 208800, "pitch": 38, "duration": 240, "velocity": 110}, {"time": 209040, "pitch": 38, "duration": 240, "velocity": 100}, {"time": 209280, "pitch": 38, "duration": 240, "velocity": 105}, {"time": 209520, "pitch": 37, "duration": 480, "velocity": 110}, {"time": 210000, "pitch": 37, "duration": 240, "velocity": 100}, {"time": 210240, "pitch": 37, "duration": 240, "velocity": 105}, {"time": 210480, "pitch": 37, "duration": 240, "velocity": 100}, {"time": 210720, "pitch": 37, "duration": 240, "velocity": 110}, {"time": 210960, "pitch": 37, "duration": 240, "velocity": 100}, {"time": 211200, "pitch": 37, "duration": 240, "velocity": 105}, {"time": 211440, "pitch": 37, "duration": 240, "velocity": 100}, {"time": 211680, "pitch": 32, "duration": 240, "velocity": 110}, {"time": 211920, "pitch": 32, "duration": 240, "velocity": 100}, {"time": 212160, "pitch": 32, "duration": 240, "velocity": 105}, {"time": 212400, "pitch": 32, "duration": 240, "velocity": 100}, {"time": 212640, "pitch": 32, "duration": 240, "velocity": 110}, {"time": 212880, "pitch": 35, "duration": 240, "velocity": 100}, {"time": 213120, "pitch": 36, "duration": 240, "velocity": 105}, {"time": 213360, "pitch": 37, "duration": 480, "velocity": 110}, {"time": 213840, "pitch": 37, "duration": 240, "velocity": 100}, {"time": 214080, "pitch": 37, "duration": 240, "velocity": 105}, {"time": 214320, "pitch": 37, "duration": 240, "velocity": 100}, {"time": 214560, "pitch": 35, "duration": 240, "velocity": 110}, {"time": 214800, "pitch": 35, "duration": 240, "velocity": 100}, {"time": 215040, "pitch": 35, "duration": 240, "velocity": 105}, {"time": 215280, "pitch": 35, "duration": 240, "velocity": 100}, {"time": 215520, "pitch": 30, "duration": 240, "velocity": 110}, {"time": 215760, "pitch": 30, "duration": 240, "velocity": 100}, {"time": 216000, "pitch": 30, "duration": 240, "velocity": 105}, {"time": 216240, "pitch": 30, "duration": 240, "velocity": 100}, {"time": 216480, "pitch": 35, "duration": 240, "velocity": 110}, {"time": 216720, "pitch": 35, "duration": 240, "velocity": 100}, {"time": 216960, "pitch": 35, "duration": 240, "velocity": 105}, {"time": 217200, "pitch": 28, "duration": 480, "velocity": 110}, {"time": 217680, "pitch": 28, "duration": 240, "velocity": 100}, {"time": 217920, "pitch": 28, "duration": 240, "velocity": 105}, {"time": 218160, "pitch": 28, "duration": 240, "velocity": 100}, {"time": 218400, "pitch": 28, "duration": 240, "velocity": 110}, {"time": 218640, "pitch": 28, "duration": 240, "velocity": 100}, {"time": 218880, "pitch": 28, "duration": 240, "velocity": 105}, {"time": 219120, "pitch": 28, "duration": 240, "velocity": 100}, {"time": 219360, "pitch": 28, "duration": 240, "velocity": 110}, {"time": 219600, "pitch": 28, "duration": 240, "velocity": 100}, {"time": 219840, "pitch": 28, "duration": 240, "velocity": 105}, {"time": 220080, "pitch": 28, "duration": 240, "velocity": 100}, {"time": 220320, "pitch": 28, "duration": 240, "velocity": 110}, {"time": 220560, "pitch": 40, "duration": 120, "velocity": 105}, {"time": 220680, "pitch": 40, "duration": 120, "velocity": 95}, {"time": 220800, "pitch": 28, "duration": 240, "velocity": 105}, {"time": 221040, "pitch": 40, "duration": 120, "velocity": 95}, {"time": 221160, "pitch": 40, "duration": 120, "velocity": 90}, {"time": 221280, "pitch": 28, "duration": 160, "velocity": 110}, {"time": 221520, "pitch": 28, "duration": 240, "velocity": 100}, {"time": 221760, "pitch": 40, "duration": 240, "velocity": 105}, {"time": 222000, "pitch": 28, "duration": 160, "velocity": 100}, {"time": 222240, "pitch": 28, "duration": 240, "velocity": 110}, {"time": 222480, "pitch": 40, "duration": 240, "velocity": 100}, {"time": 222720, "pitch": 28, "duration": 160, "velocity": 105}, {"time": 222960, "pitch": 28, "duration": 240, "velocity": 100}, {"time": 223200, "pitch": 40, "duration": 240, "velocity": 110}, {"time": 223440, "pitch": 28, "duration": 160, "velocity": 105}, {"time": 223680, "pitch": 28, "duration": 240, "velocity": 100}, {"time": 223920, "pitch": 40, "duration": 480, "velocity": 110}, {"time": 224400, "pitch": 40, "duration": 240, "velocity": 100}, {"time": 224640, "pitch": 38, "duration": 240, "velocity": 105}, {"time": 224880, "pitch": 35, "duration": 240, "velocity": 100}, {"time": 225120, "pitch": 28, "duration": 160, "velocity": 110}, {"time": 225360, "pitch": 28, "duration": 240, "velocity": 100}, {"time": 225600, "pitch": 40, "duration": 240, "velocity": 105}, {"time": 225840, "pitch": 28, "duration": 160, "velocity": 100}, {"time": 226080, "pitch": 28, "duration": 240, "velocity": 110}, {"time": 226320, "pitch": 40, "duration": 240, "velocity": 100}, {"time": 226560, "pitch": 28, "duration": 160, "velocity": 105}, {"time": 226800, "pitch": 28, "duration": 240, "velocity": 100}, {"time": 227040, "pitch": 40, "duration": 240, "velocity": 110}, {"time": 227280, "pitch": 28, "duration": 160, "velocity": 105}, {"time": 227520, "pitch": 28, "duration": 240, "velocity": 100}, {"time": 227760, "pitch": 40, "duration": 480, "velocity": 110}, {"time": 228240, "pitch": 40, "duration": 240, "velocity": 100}, {"time": 228480, "pitch": 38, "duration": 240, "velocity": 105}, {"time": 228720, "pitch": 35, "duration": 240, "velocity": 100}, {"time": 228960, "pitch": 28, "duration": 160, "velocity": 110}, {"time": 229200, "pitch": 28, "duration": 240, "velocity": 100}, {"time": 229440, "pitch": 40, "duration": 240, "velocity": 105}, {"time": 229680, "pitch": 28, "duration": 160, "velocity": 100}, {"time": 229920, "pitch": 28, "duration": 240, "velocity": 110}, {"time": 230160, "pitch": 40, "duration": 240, "velocity": 100}, {"time": 230400, "pitch": 28, "duration": 160, "velocity": 105}, {"time": 230640, "pitch": 28, "duration": 240, "velocity": 100}, {"time": 230880, "pitch": 40, "duration": 240, "velocity": 110}, {"time": 231120, "pitch": 28, "duration": 160, "velocity": 105}, {"time": 231360, "pitch": 28, "duration": 240, "velocity": 100}, {"time": 231600, "pitch": 40, "duration": 480, "velocity": 110}, {"time": 232080, "pitch": 40, "duration": 240, "velocity": 100}, {"time": 232320, "pitch": 38, "duration": 240, "velocity": 105}, {"time": 232560, "pitch": 35, "duration": 240, "velocity": 100}, {"time": 232800, "pitch": 28, "duration": 160, "velocity": 110}, {"time": 233040, "pitch": 28, "duration": 240, "velocity": 100}, {"time": 233280, "pitch": 40, "duration": 240, "velocity": 105}, {"time": 233520, "pitch": 28, "duration": 160, "velocity": 100}, {"time": 233760, "pitch": 28, "duration": 240, "velocity": 110}, {"time": 234000, "pitch": 40, "duration": 240, "velocity": 100}, {"time": 234240, "pitch": 28, "duration": 160, "velocity": 105}, {"time": 234480, "pitch": 28, "duration": 240, "velocity": 100}, {"time": 234720, "pitch": 40, "duration": 240, "velocity": 110}, {"time": 234960, "pitch": 28, "duration": 160, "velocity": 105}, {"time": 235200, "pitch": 28, "duration": 240, "velocity": 100}, {"time": 235440, "pitch": 40, "duration": 480, "velocity": 110}, {"time": 235920, "pitch": 40, "duration": 240, "velocity": 100}, {"time": 236160, "pitch": 38, "duration": 240, "velocity": 105}, {"time": 236400, "pitch": 35, "duration": 240, "velocity": 100}, {"time": 236640, "pitch": 28, "duration": 160, "velocity": 110}, {"time": 236880, "pitch": 28, "duration": 240, "velocity": 100}, {"time": 237120, "pitch": 40, "duration": 240, "velocity": 105}, {"time": 237360, "pitch": 28, "duration": 160, "velocity": 100}, {"time": 237600, "pitch": 28, "duration": 240, "velocity": 110}, {"time": 237840, "pitch": 40, "duration": 240, "velocity": 100}, {"time": 238080, "pitch": 28, "duration": 160, "velocity": 105}, {"time": 238320, "pitch": 28, "duration": 240, "velocity": 100}, {"time": 238560, "pitch": 40, "duration": 240, "velocity": 110}, {"time": 238800, "pitch": 28, "duration": 160, "velocity": 105}, {"time": 239040, "pitch": 28, "duration": 240, "velocity": 100}, {"time": 239280, "pitch": 40, "duration": 480, "velocity": 110}, {"time": 239760, "pitch": 40, "duration": 240, "velocity": 100}, {"time": 240000, "pitch": 38, "duration": 240, "velocity": 105}, {"time": 240240, "pitch": 35, "duration": 240, "velocity": 100}, {"time": 240480, "pitch": 28, "duration": 160, "velocity": 110}, {"time": 240720, "pitch": 28, "duration": 240, "velocity": 100}, {"time": 240960, "pitch": 40, "duration": 240, "velocity": 105}, {"time": 241200, "pitch": 28, "duration": 160, "velocity": 100}, {"time": 241440, "pitch": 28, "duration": 240, "velocity": 110}, {"time": 241680, "pitch": 40, "duration": 240, "velocity": 100}, {"time": 241920, "pitch": 28, "duration": 160, "velocity": 105}, {"time": 242160, "pitch": 28, "duration": 240, "velocity": 100}, {"time": 242400, "pitch": 40, "duration": 240, "velocity": 110}, {"time": 242640, "pitch": 28, "duration": 160, "velocity": 105}, {"time": 242880, "pitch": 28, "duration": 240, "velocity": 100}, {"time": 243120, "pitch": 40, "duration": 480, "velocity": 110}, {"time": 243600, "pitch": 40, "duration": 240, "velocity": 100}, {"time": 243840, "pitch": 38, "duration": 240, "velocity": 105}, {"time": 244080, "pitch": 35, "duration": 240, "velocity": 100}, {"time": 244320, "pitch": 28, "duration": 160, "velocity": 110}, {"time": 244560, "pitch": 28, "duration": 240, "velocity": 100}, {"time": 244800, "pitch": 40, "duration": 240, "velocity": 105}, {"time": 245040, "pitch": 28, "duration": 160, "velocity": 100}, {"time": 245280, "pitch": 28, "duration": 240, "velocity": 110}, {"time": 245520, "pitch": 40, "duration": 240, "velocity": 100}, {"time": 245760, "pitch": 28, "duration": 160, "velocity": 105}, {"time": 246000, "pitch": 28, "duration": 240, "velocity": 100}, {"time": 246240, "pitch": 40, "duration": 240, "velocity": 110}, {"time": 246480, "pitch": 28, "duration": 160, "velocity": 105}, {"time": 246720, "pitch": 28, "duration": 240, "velocity": 100}, {"time": 246960, "pitch": 40, "duration": 480, "velocity": 110}, {"time": 247440, "pitch": 40, "duration": 240, "velocity": 100}, {"time": 247680, "pitch": 38, "duration": 240, "velocity": 105}, {"time": 247920, "pitch": 35, "duration": 240, "velocity": 100}, {"time": 248160, "pitch": 28, "duration": 160, "velocity": 110}, {"time": 248400, "pitch": 28, "duration": 240, "velocity": 100}, {"time": 248640, "pitch": 40, "duration": 240, "velocity": 105}, {"time": 248880, "pitch": 28, "duration": 160, "velocity": 100}, {"time": 249120, "pitch": 28, "duration": 240, "velocity": 110}, {"time": 249360, "pitch": 40, "duration": 240, "velocity": 100}, {"time": 249600, "pitch": 28, "duration": 160, "velocity": 105}, {"time": 249840, "pitch": 28, "duration": 240, "velocity": 100}, {"time": 250080, "pitch": 40, "duration": 240, "velocity": 110}, {"time": 250320, "pitch": 28, "duration": 160, "velocity": 105}, {"time": 250560, "pitch": 28, "duration": 240, "velocity": 100}, {"time": 250800, "pitch": 40, "duration": 480, "velocity": 110}, {"time": 251280, "pitch": 40, "duration": 240, "velocity": 100}, {"time": 251520, "pitch": 38, "duration": 240, "velocity": 105}, {"time": 251760, "pitch": 35, "duration": 240, "velocity": 100}], "annotations": [{"time": 292, "annotation": {"number": 7, "value": 120}, "group": "control_change"}, {"time": 313, "annotation": {"number": 11, "value": 110}, "group": "control_change"}, {"time": 334, "annotation": {"number": 10, "value": 66}, "group": "control_change"}, {"time": 355, "annotation": {"number": 91, "value": 0}, "group": "control_change"}, {"time": 376, "annotation": {"number": 93, "value": 0}, "group": "control_change"}, {"time": 397, "annotation": {"number": 101, "value": 0}, "group": "control_change"}, {"time": 417, "annotation": {"number": 100, "value": 0}, "group": "control_change"}, {"time": 438, "annotation": {"number": 6, "value": 12}, "group": "control_change"}, {"time": 459, "annotation": {"number": 101, "value": 127}, "group": "control_change"}, {"time": 480, "annotation": {"number": 100, "value": 127}, "group": "control_change"}, {"time": 236880, "annotation": {"number": 11, "value": 109}, "group": "control_change"}, {"time": 237120, "annotation": {"number": 11, "value": 107}, "group": "control_change"}, {"time": 237360, "annotation": {"number": 11, "value": 105}, "group": "control_change"}, {"time": 237600, "annotation": {"number": 11, "value": 104}, "group": "control_change"}, {"time": 237840, "annotation": {"number": 11, "value": 102}, "group": "control_change"}, {"time": 238080, "annotation": {"number": 11, "value": 100}, "group": "control_change"}, {"time": 238320, "annotation": {"number": 11, "value": 98}, "group": "control_change"}, {"time": 238560, "annotation": {"number": 11, "value": 97}, "group": "control_change"}, {"time": 238800, "annotation": {"number": 11, "value": 95}, "group": "control_change"}, {"time": 239040, "annotation": {"number": 11, "value": 93}, "group": "control_change"}, {"time": 239280, "annotation": {"number": 11, "value": 92}, "group": "control_change"}, {"time": 239520, "annotation": {"number": 11, "value": 90}, "group": "control_change"}, {"time": 239760, "annotation": {"number": 11, "value": 88}, "group": "control_change"}, {"time": 240000, "annotation": {"number": 11, "value": 86}, "group": "control_change"}, {"time": 240240, "annotation": {"number": 11, "value": 85}, "group": "control_change"}, {"time": 240480, "annotation": {"number": 11, "value": 83}, "group": "control_change"}, {"time": 240720, "annotation": {"number": 11, "value": 81}, "group": "control_change"}, {"time": 240960, "annotation": {"number": 11, "value": 80}, "group": "control_change"}, {"time": 241200, "annotation": {"number": 11, "value": 78}, "group": "control_change"}, {"time": 241440, "annotation": {"number": 11, "value": 76}, "group": "control_change"}, {"time": 241680, "annotation": {"number": 11, "value": 74}, "group": "control_change"}, {"time": 241920, "annotation": {"number": 11, "value": 73}, "group": "control_change"}, {"time": 242160, "annotation": {"number": 11, "value": 71}, "group": "control_change"}, {"time": 242400, "annotation": {"number": 11, "value": 69}, "group": "control_change"}, {"time": 242640, "annotation": {"number": 11, "value": 68}, "group": "control_change"}, {"time": 242880, "annotation": {"number": 11, "value": 66}, "group": "control_change"}, {"time": 243120, "annotation": {"number": 11, "value": 64}, "group": "control_change"}, {"time": 243360, "annotation": {"number": 11, "value": 62}, "group": "control_change"}, {"time": 243600, "annotation": {"number": 11, "value": 61}, "group": "control_change"}, {"time": 243840, "annotation": {"number": 11, "value": 59}, "group": "control_change"}, {"time": 244080, "annotation": {"number": 11, "value": 57}, "group": "control_change"}, {"time": 244320, "annotation": {"number": 11, "value": 55}, "group": "control_change"}, {"time": 244560, "annotation": {"number": 11, "value": 54}, "group": "control_change"}, {"time": 244800, "annotation": {"number": 11, "value": 52}, "group": "control_change"}, {"time": 245040, "annotation": {"number": 11, "value": 50}, "group": "control_change"}, {"time": 245280, "annotation": {"number": 11, "value": 49}, "group": "control_change"}, {"time": 245520, "annotation": {"number": 11, "value": 47}, "group": "control_change"}, {"time": 245760, "annotation": {"number": 11, "value": 45}, "group": "control_change"}, {"time": 246000, "annotation": {"number": 11, "value": 43}, "group": "control_change"}, {"time": 246240, "annotation": {"number": 11, "value": 42}, "group": "control_change"}, {"time": 246480, "annotation": {"number": 11, "value": 40}, "group": "control_change"}, {"time": 246720, "annotation": {"number": 11, "value": 38}, "group": "control_change"}, {"time": 246960, "annotation": {"number": 11, "value": 37}, "group": "control_change"}, {"time": 247200, "annotation": {"number": 11, "value": 35}, "group": "control_change"}, {"time": 247440, "annotation": {"number": 11, "value": 33}, "group": "control_change"}, {"time": 247680, "annotation": {"number": 11, "value": 31}, "group": "control_change"}, {"time": 247920, "annotation": {"number": 11, "value": 30}, "group": "control_change"}, {"time": 248160, "annotation": {"number": 11, "value": 28}, "group": "control_change"}, {"time": 248400, "annotation": {"number": 11, "value": 26}, "group": "control_change"}, {"time": 248640, "annotation": {"number": 11, "value": 25}, "group": "control_change"}, {"time": 248880, "annotation": {"number": 11, "value": 23}, "group": "control_change"}, {"time": 249120, "annotation": {"number": 11, "value": 21}, "group": "control_change"}, {"time": 249360, "annotation": {"number": 11, "value": 19}, "group": "control_change"}, {"time": 249600, "annotation": {"number": 11, "value": 18}, "group": "control_change"}, {"time": 249840, "annotation": {"number": 11, "value": 16}, "group": "control_change"}, {"time": 250080, "annotation": {"number": 11, "value": 14}, "group": "control_change"}, {"time": 250320, "annotation": {"number": 11, "value": 12}, "group": "control_change"}, {"time": 250560, "annotation": {"number": 11, "value": 11}, "group": "control_change"}, {"time": 250800, "annotation": {"number": 11, "value": 9}, "group": "control_change"}, {"time": 251040, "annotation": {"number": 11, "value": 7}, "group": "control_change"}, {"time": 251280, "annotation": {"number": 11, "value": 6}, "group": "control_change"}, {"time": 251520, "annotation": {"number": 11, "value": 4}, "group": "control_change"}, {"time": 251760, "annotation": {"number": 11, "value": 2}, "group": "control_change"}]}, {"program": 0, "is_drum": false, "name": "E.GUITAR 2", "annotations": [{"time": 230, "annotation": {"number": 0, "value": 0}, "group": "control_change"}, {"time": 250, "annotation": {"number": 32, "value": 0}, "group": "control_change"}]}, {"program": 30, "is_drum": false, "name": "E.GUITAR 2", "notes": [{"time": 480, "pitch": 52, "duration": 240, "velocity": 100}, {"time": 720, "pitch": 52, "duration": 480, "velocity": 90}, {"time": 960, "pitch": 64, "duration": 240, "velocity": 110}, {"time": 970, "pitch": 68, "duration": 240, "velocity": 50}, {"time": 1200, "pitch": 52, "duration": 240, "velocity": 90}, {"time": 1440, "pitch": 52, "duration": 480, "velocity": 100}, {"time": 1680, "pitch": 64, "duration": 240, "velocity": 110}, {"time": 1690, "pitch": 68, "duration": 240, "velocity": 50}, {"time": 1920, "pitch": 52, "duration": 240, "velocity": 100}, {"time": 2160, "pitch": 52, "duration": 480, "velocity": 90}, {"time": 2400, "pitch": 64, "duration": 240, "velocity": 110}, {"time": 2410, "pitch": 68, "duration": 240, "velocity": 50}, {"time": 2640, "pitch": 52, "duration": 240, "velocity": 90}, {"time": 2880, "pitch": 52, "duration": 720, "velocity": 100}, {"time": 3120, "pitch": 64, "duration": 480, "velocity": 110}, {"time": 3130, "pitch": 68, "duration": 480, "velocity": 50}, {"time": 3600, "pitch": 64, "duration": 240, "velocity": 110}, {"time": 3610, "pitch": 68, "duration": 240, "velocity": 50}, {"time": 3840, "pitch": 62, "duration": 240, "velocity": 107}, {"time": 4080, "pitch": 59, "duration": 240, "velocity": 105}, {"time": 4320, "pitch": 52, "duration": 240, "velocity": 100}, {"time": 4560, "pitch": 52, "duration": 480, "velocity": 90}, {"time": 4800, "pitch": 64, "duration": 240, "velocity": 110}, {"time": 4810, "pitch": 68, "duration": 240, "velocity": 50}, {"time": 5040, "pitch": 52, "duration": 240, "velocity": 90}, {"time": 5280, "pitch": 52, "duration": 480, "velocity": 100}, {"time": 5520, "pitch": 64, "duration": 240, "velocity": 110}, {"time": 5530, "pitch": 68, "duration": 240, "velocity": 50}, {"time": 5760, "pitch": 52, "duration": 240, "velocity": 100}, {"time": 6000, "pitch": 52, "duration": 480, "velocity": 90}, {"time": 6240, "pitch": 64, "duration": 240, "velocity": 110}, {"time": 6250, "pitch": 68, "duration": 240, "velocity": 50}, {"time": 6480, "pitch": 52, "duration": 240, "velocity": 90}, {"time": 6720, "pitch": 52, "duration": 720, "velocity": 100}, {"time": 6960, "pitch": 64, "duration": 480, "velocity": 110}, {"time": 6970, "pitch": 68, "duration": 480, "velocity": 50}, {"time": 7440, "pitch": 64, "duration": 240, "velocity": 110}, {"time": 7450, "pitch": 68, "duration": 240, "velocity": 50}, {"time": 7680, "pitch": 62, "duration": 240, "velocity": 107}, {"time": 7920, "pitch": 59, "duration": 240, "velocity": 105}, {"time": 8160, "pitch": 52, "duration": 240, "velocity": 100}, {"time": 8400, "pitch": 52, "duration": 480, "velocity": 90}, {"time": 8640, "pitch": 64, "duration": 240, "velocity": 110}, {"time": 8650, "pitch": 68, "duration": 240, "velocity": 50}, {"time": 8880, "pitch": 52, "duration": 240, "velocity": 90}, {"time": 9120, "pitch": 52, "duration": 480, "velocity": 100}, {"time": 9360, "pitch": 64, "duration": 240, "velocity": 110}, {"time": 9370, "pitch": 68, "duration": 240, "velocity": 50}, {"time": 9600, "pitch": 52, "duration": 240, "velocity": 100}, {"time": 9840, "pitch": 52, "duration": 480, "velocity": 90}, {"time": 10080, "pitch": 64, "duration": 240, "velocity": 110}, {"time": 10090, "pitch": 68, "duration": 240, "velocity": 50}, {"time": 10320, "pitch": 52, "duration": 240, "velocity": 90}, {"time": 10560, "pitch": 52, "duration": 720, "velocity": 100}, {"time": 10800, "pitch": 64, "duration": 480, "velocity": 110}, {"time": 10810, "pitch": 68, "duration": 480, "velocity": 50}, {"time": 11280, "pitch": 64, "duration": 240, "velocity": 110}, {"time": 11290, "pitch": 68, "duration": 240, "velocity": 50}, {"time": 11520, "pitch": 62, "duration": 240, "velocity": 107}, {"time": 11760, "pitch": 59, "duration": 240, "velocity": 105}, {"time": 12000, "pitch": 52, "duration": 240, "velocity": 100}, {"time": 12240, "pitch": 52, "duration": 480, "velocity": 90}, {"time": 12480, "pitch": 64, "duration": 240, "velocity": 110}, {"time": 12490, "pitch": 68, "duration": 240, "velocity": 50}, {"time": 12720, "pitch": 52, "duration": 240, "velocity": 90}, {"time": 12960, "pitch": 52, "duration": 480, "velocity": 100}, {"time": 13200, "pitch": 64, "duration": 240, "velocity": 110}, {"time": 13210, "pitch": 68, "duration": 240, "velocity": 50}, {"time": 13440, "pitch": 52, "duration": 240, "velocity": 100}, {"time": 13680, "pitch": 52, "duration": 480, "velocity": 90}, {"time": 13920, "pitch": 64, "duration": 240, "velocity": 110}, {"time": 13930, "pitch": 68, "duration": 240, "velocity": 50}, {"time": 14160, "pitch": 52, "duration": 240, "velocity": 90}, {"time": 14400, "pitch": 52, "duration": 720, "velocity": 100}, {"time": 14640, "pitch": 64, "duration": 480, "velocity": 110}, {"time": 14650, "pitch": 68, "duration": 480, "velocity": 50}, {"time": 15120, "pitch": 64, "duration": 240, "velocity": 110}, {"time": 15130, "pitch": 68, "duration": 240, "velocity": 50}, {"time": 15360, "pitch": 62, "duration": 240, "velocity": 107}, {"time": 15600, "pitch": 59, "duration": 240, "velocity": 105}, {"time": 15840, "pitch": 52, "duration": 240, "velocity": 100}, {"time": 16080, "pitch": 52, "duration": 480, "velocity": 90}, {"time": 16320, "pitch": 64, "duration": 240, "velocity": 110}, {"time": 16330, "pitch": 68, "duration": 240, "velocity": 50}, {"time": 16560, "pitch": 52, "duration": 240, "velocity": 90}, {"time": 16800, "pitch": 52, "duration": 480, "velocity": 100}, {"time": 17040, "pitch": 64, "duration": 240, "velocity": 110}, {"time": 17050, "pitch": 68, "duration": 240, "velocity": 50}, {"time": 17280, "pitch": 52, "duration": 240, "velocity": 100}, {"time": 17520, "pitch": 52, "duration": 480, "velocity": 90}, {"time": 17760, "pitch": 64, "duration": 240, "velocity": 110}, {"time": 17770, "pitch": 68, "duration": 240, "velocity": 50}, {"time": 18000, "pitch": 52, "duration": 240, "velocity": 90}, {"time": 18240, "pitch": 52, "duration": 720, "velocity": 100}, {"time": 18480, "pitch": 64, "duration": 480, "velocity": 110}, {"time": 18490, "pitch": 68, "duration": 480, "velocity": 50}, {"time": 18960, "pitch": 64, "duration": 240, "velocity": 110}, {"time": 18970, "pitch": 68, "duration": 240, "velocity": 50}, {"time": 19200, "pitch": 62, "duration": 240, "velocity": 107}, {"time": 19440, "pitch": 59, "duration": 240, "velocity": 105}, {"time": 19680, "pitch": 52, "duration": 240, "velocity": 100}, {"time": 19920, "pitch": 52, "duration": 480, "velocity": 90}, {"time": 20160, "pitch": 64, "duration": 240, "velocity": 110}, {"time": 20170, "pitch": 68, "duration": 240, "velocity": 50}, {"time": 20400, "pitch": 52, "duration": 240, "velocity": 90}, {"time": 20640, "pitch": 52, "duration": 480, "velocity": 100}, {"time": 20880, "pitch": 64, "duration": 240, "velocity": 110}, {"time": 20890, "pitch": 68, "duration": 240, "velocity": 50}, {"time": 21120, "pitch": 52, "duration": 240, "velocity": 100}, {"time": 21360, "pitch": 52, "duration": 480, "velocity": 90}, {"time": 21600, "pitch": 64, "duration": 240, "velocity": 110}, {"time": 21610, "pitch": 68, "duration": 240, "velocity": 50}, {"time": 21840, "pitch": 52, "duration": 240, "velocity": 90}, {"time": 22080, "pitch": 52, "duration": 720, "velocity": 100}, {"time": 22320, "pitch": 64, "duration": 480, "velocity": 110}, {"time": 22330, "pitch": 68, "duration": 480, "velocity": 50}, {"time": 22800, "pitch": 64, "duration": 240, "velocity": 110}, {"time": 22810, "pitch": 68, "duration": 240, "velocity": 50}, {"time": 23040, "pitch": 62, "duration": 240, "velocity": 107}, {"time": 23280, "pitch": 59, "duration": 240, "velocity": 105}, {"time": 23520, "pitch": 52, "duration": 240, "velocity": 110}, {"time": 23530, "pitch": 59, "duration": 240, "velocity": 100}, {"time": 23760, "pitch": 52, "duration": 240, "velocity": 105}, {"time": 23770, "pitch": 59, "duration": 240, "velocity": 95}, {"time": 24000, "pitch": 52, "duration": 40, "velocity": 100}, {"time": 24010, "pitch": 59, "duration": 40, "velocity": 90}, {"time": 24240, "pitch": 52, "duration": 240, "velocity": 110}, {"time": 24250, "pitch": 61, "duration": 240, "velocity": 100}, {"time": 24480, "pitch": 52, "duration": 40, "velocity": 100}, {"time": 24490, "pitch": 59, "duration": 40, "velocity": 90}, {"time": 24720, "pitch": 52, "duration": 240, "velocity": 110}, {"time": 24730, "pitch": 59, "duration": 240, "velocity": 100}, {"time": 24960, "pitch": 52, "duration": 40, "velocity": 100}, {"time": 24970, "pitch": 59, "duration": 40, "velocity": 90}, {"time": 25200, "pitch": 52, "duration": 240, "velocity": 110}, {"time": 25210, "pitch": 62, "duration": 230, "velocity": 100}, {"time": 25440, "pitch": 52, "duration": 40, "velocity": 100}, {"time": 25450, "pitch": 59, "duration": 40, "velocity": 90}, {"time": 25680, "pitch": 52, "duration": 240, "velocity": 110}, {"time": 25690, "pitch": 61, "duration": 230, "velocity": 100}, {"time": 25920, "pitch": 52, "duration": 40, "velocity": 100}, {"time": 25930, "pitch": 59, "duration": 40, "velocity": 90}, {"time": 26160, "pitch": 52, "duration": 240, "velocity": 110}, {"time": 26170, "pitch": 59, "duration": 240, "velocity": 100}, {"time": 26400, "pitch": 52, "duration": 40, "velocity": 100}, {"time": 26410, "pitch": 59, "duration": 40, "velocity": 90}, {"time": 26640, "pitch": 52, "duration": 240, "velocity": 110}, {"time": 26650, "pitch": 59, "duration": 240, "velocity": 100}, {"time": 26880, "pitch": 52, "duration": 40, "velocity": 100}, {"time": 26890, "pitch": 59, "duration": 40, "velocity": 90}, {"time": 27120, "pitch": 52, "duration": 240, "velocity": 105}, {"time": 27130, "pitch": 59, "duration": 230, "velocity": 95}, {"time": 27360, "pitch": 52, "duration": 240, "velocity": 110}, {"time": 27370, "pitch": 59, "duration": 240, "velocity": 100}, {"time": 27600, "pitch": 52, "duration": 240, "velocity": 105}, {"time": 27610, "pitch": 59, "duration": 240, "velocity": 95}, {"time": 27840, "pitch": 52, "duration": 40, "velocity": 100}, {"time": 27850, "pitch": 59, "duration": 40, "velocity": 90}, {"time": 28080, "pitch": 52, "duration": 240, "velocity": 110}, {"time": 28090, "pitch": 61, "duration": 240, "velocity": 100}, {"time": 28320, "pitch": 52, "duration": 40, "velocity": 100}, {"time": 28330, "pitch": 59, "duration": 40, "velocity": 90}, {"time": 28560, "pitch": 52, "duration": 240, "velocity": 110}, {"time": 28570, "pitch": 59, "duration": 240, "velocity": 100}, {"time": 28800, "pitch": 52, "duration": 40, "velocity": 100}, {"time": 28810, "pitch": 59, "duration": 40, "velocity": 90}, {"time": 29040, "pitch": 52, "duration": 240, "velocity": 110}, {"time": 29050, "pitch": 62, "duration": 230, "velocity": 100}, {"time": 29280, "pitch": 52, "duration": 40, "velocity": 100}, {"time": 29290, "pitch": 59, "duration": 40, "velocity": 90}, {"time": 29520, "pitch": 52, "duration": 240, "velocity": 110}, {"time": 29530, "pitch": 61, "duration": 230, "velocity": 100}, {"time": 29760, "pitch": 52, "duration": 40, "velocity": 100}, {"time": 29770, "pitch": 59, "duration": 40, "velocity": 90}, {"time": 30000, "pitch": 52, "duration": 240, "velocity": 110}, {"time": 30010, "pitch": 59, "duration": 240, "velocity": 100}, {"time": 30240, "pitch": 52, "duration": 40, "velocity": 100}, {"time": 30250, "pitch": 59, "duration": 40, "velocity": 90}, {"time": 30480, "pitch": 52, "duration": 240, "velocity": 110}, {"time": 30490, "pitch": 59, "duration": 240, "velocity": 100}, {"time": 30720, "pitch": 52, "duration": 40, "velocity": 100}, {"time": 30730, "pitch": 59, "duration": 40, "velocity": 90}, {"time": 30960, "pitch": 52, "duration": 240, "velocity": 105}, {"time": 30970, "pitch": 59, "duration": 230, "velocity": 95}, {"time": 31200, "pitch": 52, "duration": 240, "velocity": 110}, {"time": 31210, "pitch": 59, "duration": 240, "velocity": 100}, {"time": 31440, "pitch": 52, "duration": 240, "velocity": 105}, {"time": 31450, "pitch": 59, "duration": 240, "velocity": 95}, {"time": 31680, "pitch": 52, "duration": 40, "velocity": 100}, {"time": 31690, "pitch": 59, "duration": 40, "velocity": 90}, {"time": 31920, "pitch": 52, "duration": 240, "velocity": 110}, {"time": 31930, "pitch": 61, "duration": 240, "velocity": 100}, {"time": 32160, "pitch": 52, "duration": 40, "velocity": 100}, {"time": 32170, "pitch": 59, "duration": 40, "velocity": 90}, {"time": 32400, "pitch": 52, "duration": 240, "velocity": 110}, {"time": 32410, "pitch": 59, "duration": 240, "velocity": 100}, {"time": 32640, "pitch": 52, "duration": 40, "velocity": 100}, {"time": 32650, "pitch": 59, "duration": 40, "velocity": 90}, {"time": 32880, "pitch": 52, "duration": 240, "velocity": 110}, {"time": 32890, "pitch": 62, "duration": 230, "velocity": 100}, {"time": 33120, "pitch": 52, "duration": 40, "velocity": 100}, {"time": 33130, "pitch": 59, "duration": 40, "velocity": 90}, {"time": 33360, "pitch": 52, "duration": 240, "velocity": 110}, {"time": 33370, "pitch": 61, "duration": 230, "velocity": 100}, {"time": 33600, "pitch": 52, "duration": 40, "velocity": 100}, {"time": 33610, "pitch": 59, "duration": 40, "velocity": 90}, {"time": 33840, "pitch": 52, "duration": 240, "velocity": 110}, {"time": 33850, "pitch": 59, "duration": 240, "velocity": 100}, {"time": 34080, "pitch": 52, "duration": 40, "velocity": 100}, {"time": 34090, "pitch": 59, "duration": 40, "velocity": 90}, {"time": 34320, "pitch": 52, "duration": 240, "velocity": 110}, {"time": 34330, "pitch": 59, "duration": 240, "velocity": 100}, {"time": 34560, "pitch": 52, "duration": 40, "velocity": 100}, {"time": 34570, "pitch": 59, "duration": 40, "velocity": 90}, {"time": 34800, "pitch": 52, "duration": 240, "velocity": 105}, {"time": 34810, "pitch": 59, "duration": 230, "velocity": 95}, {"time": 35040, "pitch": 52, "duration": 240, "velocity": 110}, {"time": 35050, "pitch": 59, "duration": 240, "velocity": 100}, {"time": 35280, "pitch": 52, "duration": 240, "velocity": 105}, {"time": 35290, "pitch": 59, "duration": 240, "velocity": 95}, {"time": 35520, "pitch": 52, "duration": 40, "velocity": 100}, {"time": 35530, "pitch": 59, "duration": 40, "velocity": 90}, {"time": 35760, "pitch": 52, "duration": 240, "velocity": 110}, {"time": 35770, "pitch": 61, "duration": 240, "velocity": 100}, {"time": 36000, "pitch": 52, "duration": 40, "velocity": 100}, {"time": 36010, "pitch": 59, "duration": 40, "velocity": 90}, {"time": 36240, "pitch": 52, "duration": 240, "velocity": 110}, {"time": 36250, "pitch": 59, "duration": 240, "velocity": 100}, {"time": 36480, "pitch": 52, "duration": 40, "velocity": 100}, {"time": 36490, "pitch": 59, "duration": 40, "velocity": 90}, {"time": 36720, "pitch": 52, "duration": 240, "velocity": 110}, {"time": 36730, "pitch": 62, "duration": 230, "velocity": 100}, {"time": 36960, "pitch": 52, "duration": 40, "velocity": 100}, {"time": 36970, "pitch": 59, "duration": 40, "velocity": 90}, {"time": 37200, "pitch": 52, "duration": 240, "velocity": 110}, {"time": 37210, "pitch": 61, "duration": 230, "velocity": 100}, {"time": 37440, "pitch": 52, "duration": 40, "velocity": 100}, {"time": 37450, "pitch": 59, "duration": 40, "velocity": 90}, {"time": 37680, "pitch": 52, "duration": 240, "velocity": 110}, {"time": 37690, "pitch": 59, "duration": 240, "velocity": 100}, {"time": 37920, "pitch": 52, "duration": 40, "velocity": 100}, {"time": 37930, "pitch": 59, "duration": 40, "velocity": 90}, {"time": 38160, "pitch": 52, "duration": 240, "velocity": 110}, {"time": 38170, "pitch": 59, "duration": 240, "velocity": 100}, {"time": 38400, "pitch": 52, "duration": 240, "velocity": 105}, {"time": 38410, "pitch": 59, "duration": 240, "velocity": 95}, {"time": 38640, "pitch": 52, "duration": 240, "velocity": 107}, {"time": 38650, "pitch": 59, "duration": 230, "velocity": 97}, {"time": 38880, "pitch": 43, "duration": 240, "velocity": 110}, {"time": 38890, "pitch": 50, "duration": 240, "velocity": 100}, {"time": 39120, "pitch": 43, "duration": 240, "velocity": 100}, {"time": 39130, "pitch": 50, "duration": 240, "velocity": 90}, {"time": 39360, "pitch": 43, "duration": 240, "velocity": 110}, {"time": 39370, "pitch": 50, "duration": 240, "velocity": 100}, {"time": 39600, "pitch": 43, "duration": 240, "velocity": 100}, {"time": 39610, "pitch": 50, "duration": 240, "velocity": 90}, {"time": 39840, "pitch": 43, "duration": 240, "velocity": 110}, {"time": 39850, "pitch": 50, "duration": 240, "velocity": 100}, {"time": 40080, "pitch": 43, "duration": 240, "velocity": 100}, {"time": 40090, "pitch": 50, "duration": 240, "velocity": 90}, {"time": 40320, "pitch": 43, "duration": 240, "velocity": 110}, {"time": 40330, "pitch": 50, "duration": 240, "velocity": 100}, {"time": 40560, "pitch": 43, "duration": 240, "velocity": 100}, {"time": 40570, "pitch": 50, "duration": 230, "velocity": 90}, {"time": 40800, "pitch": 45, "duration": 240, "velocity": 110}, {"time": 40810, "pitch": 52, "duration": 240, "velocity": 100}, {"time": 41040, "pitch": 45, "duration": 240, "velocity": 100}, {"time": 41050, "pitch": 52, "duration": 240, "velocity": 90}, {"time": 41280, "pitch": 45, "duration": 240, "velocity": 110}, {"time": 41290, "pitch": 52, "duration": 240, "velocity": 100}, {"time": 41520, "pitch": 45, "duration": 240, "velocity": 100}, {"time": 41530, "pitch": 52, "duration": 240, "velocity": 90}, {"time": 41760, "pitch": 45, "duration": 240, "velocity": 110}, {"time": 41770, "pitch": 52, "duration": 240, "velocity": 100}, {"time": 42000, "pitch": 45, "duration": 240, "velocity": 100}, {"time": 42010, "pitch": 52, "duration": 240, "velocity": 90}, {"time": 42240, "pitch": 45, "duration": 240, "velocity": 110}, {"time": 42250, "pitch": 52, "duration": 240, "velocity": 100}, {"time": 42480, "pitch": 45, "duration": 240, "velocity": 100}, {"time": 42490, "pitch": 52, "duration": 230, "velocity": 90}, {"time": 42720, "pitch": 52, "duration": 240, "velocity": 110}, {"time": 42730, "pitch": 59, "duration": 240, "velocity": 100}, {"time": 42960, "pitch": 52, "duration": 480, "velocity": 100}, {"time": 42970, "pitch": 59, "duration": 230, "velocity": 90}, {"time": 43200, "pitch": 59, "duration": 240, "velocity": 110}, {"time": 43200, "pitch": 64, "duration": 240, "velocity": 100}, {"time": 43210, "pitch": 68, "duration": 240, "velocity": 80}, {"time": 43440, "pitch": 52, "duration": 60, "velocity": 90}, {"time": 43450, "pitch": 59, "duration": 60, "velocity": 80}, {"time": 43680, "pitch": 52, "duration": 480, "velocity": 100}, {"time": 43690, "pitch": 59, "duration": 230, "velocity": 90}, {"time": 43920, "pitch": 59, "duration": 240, "velocity": 110}, {"time": 43920, "pitch": 64, "duration": 240, "velocity": 100}, {"time": 43930, "pitch": 68, "duration": 240, "velocity": 80}, {"time": 44160, "pitch": 52, "duration": 60, "velocity": 95}, {"time": 44170, "pitch": 59, "duration": 60, "velocity": 85}, {"time": 44400, "pitch": 52, "duration": 60, "velocity": 100}, {"time": 44410, "pitch": 59, "duration": 60, "velocity": 90}, {"time": 44640, "pitch": 52, "duration": 240, "velocity": 70}, {"time": 44650, "pitch": 59, "duration": 240, "velocity": 110}, {"time": 44880, "pitch": 52, "duration": 240, "velocity": 100}, {"time": 44890, "pitch": 59, "duration": 230, "velocity": 60}, {"time": 45120, "pitch": 52, "duration": 240, "velocity": 100}, {"time": 45120, "pitch": 59, "duration": 240, "velocity": 110}, {"time": 45130, "pitch": 64, "duration": 240, "velocity": 90}, {"time": 45130, "pitch": 68, "duration": 240, "velocity": 80}, {"time": 45360, "pitch": 52, "duration": 240, "velocity": 100}, {"time": 45370, "pitch": 59, "duration": 230, "velocity": 90}, {"time": 45600, "pitch": 59, "duration": 240, "velocity": 110}, {"time": 45600, "pitch": 64, "duration": 240, "velocity": 100}, {"time": 45610, "pitch": 68, "duration": 240, "velocity": 70}, {"time": 45840, "pitch": 59, "duration": 240, "velocity": 105}, {"time": 45840, "pitch": 64, "duration": 240, "velocity": 95}, {"time": 45850, "pitch": 68, "duration": 230, "velocity": 65}, {"time": 46080, "pitch": 62, "duration": 240, "velocity": 110}, {"time": 46320, "pitch": 59, "duration": 240, "velocity": 105}, {"time": 46560, "pitch": 43, "duration": 240, "velocity": 110}, {"time": 46570, "pitch": 50, "duration": 240, "velocity": 100}, {"time": 46800, "pitch": 43, "duration": 240, "velocity": 100}, {"time": 46810, "pitch": 50, "duration": 240, "velocity": 90}, {"time": 47040, "pitch": 43, "duration": 240, "velocity": 110}, {"time": 47050, "pitch": 50, "duration": 240, "velocity": 100}, {"time": 47280, "pitch": 43, "duration": 240, "velocity": 100}, {"time": 47290, "pitch": 50, "duration": 240, "velocity": 90}, {"time": 47520, "pitch": 43, "duration": 240, "velocity": 110}, {"time": 47530, "pitch": 50, "duration": 240, "velocity": 100}, {"time": 47760, "pitch": 43, "duration": 240, "velocity": 100}, {"time": 47770, "pitch": 50, "duration": 240, "velocity": 90}, {"time": 48000, "pitch": 43, "duration": 240, "velocity": 110}, {"time": 48010, "pitch": 50, "duration": 240, "velocity": 100}, {"time": 48240, "pitch": 43, "duration": 240, "velocity": 100}, {"time": 48250, "pitch": 50, "duration": 230, "velocity": 90}, {"time": 48480, "pitch": 45, "duration": 240, "velocity": 110}, {"time": 48490, "pitch": 52, "duration": 240, "velocity": 100}, {"time": 48720, "pitch": 45, "duration": 240, "velocity": 100}, {"time": 48730, "pitch": 52, "duration": 240, "velocity": 90}, {"time": 48960, "pitch": 45, "duration": 240, "velocity": 110}, {"time": 48970, "pitch": 52, "duration": 240, "velocity": 100}, {"time": 49200, "pitch": 45, "duration": 240, "velocity": 100}, {"time": 49210, "pitch": 52, "duration": 240, "velocity": 90}, {"time": 49440, "pitch": 45, "duration": 240, "velocity": 110}, {"time": 49450, "pitch": 52, "duration": 240, "velocity": 100}, {"time": 49680, "pitch": 45, "duration": 240, "velocity": 100}, {"time": 49690, "pitch": 52, "duration": 240, "velocity": 90}, {"time": 49920, "pitch": 45, "duration": 240, "velocity": 110}, {"time": 49930, "pitch": 52, "duration": 240, "velocity": 100}, {"time": 50160, "pitch": 45, "duration": 240, "velocity": 100}, {"time": 50170, "pitch": 52, "duration": 230, "velocity": 90}, {"time": 50400, "pitch": 47, "duration": 240, "velocity": 110}, {"time": 50400, "pitch": 54, "duration": 240, "velocity": 100}, {"time": 50410, "pitch": 59, "duration": 240, "velocity": 90}, {"time": 50410, "pitch": 66, "duration": 240, "velocity": 95}, {"time": 50640, "pitch": 47, "duration": 240, "velocity": 105}, {"time": 50640, "pitch": 54, "duration": 240, "velocity": 95}, {"time": 50650, "pitch": 59, "duration": 240, "velocity": 85}, {"time": 50650, "pitch": 66, "duration": 240, "velocity": 90}, {"time": 50880, "pitch": 47, "duration": 240, "velocity": 110}, {"time": 50880, "pitch": 54, "duration": 240, "velocity": 100}, {"time": 50890, "pitch": 59, "duration": 240, "velocity": 90}, {"time": 50890, "pitch": 66, "duration": 240, "velocity": 95}, {"time": 51120, "pitch": 47, "duration": 240, "velocity": 105}, {"time": 51120, "pitch": 54, "duration": 240, "velocity": 95}, {"time": 51130, "pitch": 59, "duration": 240, "velocity": 85}, {"time": 51130, "pitch": 64, "duration": 240, "velocity": 90}, {"time": 51360, "pitch": 47, "duration": 240, "velocity": 110}, {"time": 51360, "pitch": 54, "duration": 240, "velocity": 100}, {"time": 51370, "pitch": 59, "duration": 240, "velocity": 90}, {"time": 51370, "pitch": 66, "duration": 240, "velocity": 95}, {"time": 51600, "pitch": 47, "duration": 240, "velocity": 105}, {"time": 51600, "pitch": 54, "duration": 240, "velocity": 95}, {"time": 51610, "pitch": 59, "duration": 240, "velocity": 85}, {"time": 51610, "pitch": 64, "duration": 240, "velocity": 95}, {"time": 51840, "pitch": 47, "duration": 40, "velocity": 100}, {"time": 51840, "pitch": 54, "duration": 40, "velocity": 90}, {"time": 51850, "pitch": 59, "duration": 40, "velocity": 80}, {"time": 52080, "pitch": 47, "duration": 240, "velocity": 105}, {"time": 52080, "pitch": 54, "duration": 240, "velocity": 95}, {"time": 52090, "pitch": 59, "duration": 230, "velocity": 85}, {"time": 52090, "pitch": 66, "duration": 230, "velocity": 90}, {"time": 52320, "pitch": 47, "duration": 240, "velocity": 110}, {"time": 52320, "pitch": 54, "duration": 240, "velocity": 100}, {"time": 52330, "pitch": 59, "duration": 230, "velocity": 90}, {"time": 52330, "pitch": 66, "duration": 230, "velocity": 95}, {"time": 54000, "pitch": 52, "duration": 480, "velocity": 110}, {"time": 54000, "pitch": 59, "duration": 480, "velocity": 100}, {"time": 54010, "pitch": 64, "duration": 470, "velocity": 95}, {"time": 54010, "pitch": 68, "duration": 470, "velocity": 100}, {"time": 54480, "pitch": 52, "duration": 240, "velocity": 100}, {"time": 54480, "pitch": 59, "duration": 240, "velocity": 90}, {"time": 54490, "pitch": 64, "duration": 240, "velocity": 85}, {"time": 54490, "pitch": 68, "duration": 240, "velocity": 90}, {"time": 54720, "pitch": 52, "duration": 240, "velocity": 110}, {"time": 54720, "pitch": 59, "duration": 240, "velocity": 100}, {"time": 54730, "pitch": 64, "duration": 240, "velocity": 95}, {"time": 54960, "pitch": 52, "duration": 240, "velocity": 100}, {"time": 54960, "pitch": 59, "duration": 240, "velocity": 90}, {"time": 54970, "pitch": 64, "duration": 240, "velocity": 85}, {"time": 54970, "pitch": 68, "duration": 240, "velocity": 90}, {"time": 55200, "pitch": 52, "duration": 240, "velocity": 110}, {"time": 55200, "pitch": 59, "duration": 240, "velocity": 100}, {"time": 55210, "pitch": 64, "duration": 240, "velocity": 95}, {"time": 55210, "pitch": 68, "duration": 240, "velocity": 100}, {"time": 55440, "pitch": 52, "duration": 240, "velocity": 100}, {"time": 55440, "pitch": 59, "duration": 240, "velocity": 90}, {"time": 55450, "pitch": 64, "duration": 240, "velocity": 85}, {"time": 55680, "pitch": 52, "duration": 240, "velocity": 110}, {"time": 55680, "pitch": 59, "duration": 240, "velocity": 100}, {"time": 55690, "pitch": 64, "duration": 240, "velocity": 95}, {"time": 55690, "pitch": 68, "duration": 240, "velocity": 100}, {"time": 55920, "pitch": 52, "duration": 240, "velocity": 100}, {"time": 55920, "pitch": 59, "duration": 230, "velocity": 90}, {"time": 55930, "pitch": 64, "duration": 230, "velocity": 85}, {"time": 56160, "pitch": 52, "duration": 240, "velocity": 110}, {"time": 56160, "pitch": 59, "duration": 240, "velocity": 100}, {"time": 56170, "pitch": 64, "duration": 240, "velocity": 95}, {"time": 56170, "pitch": 66, "duration": 240, "velocity": 100}, {"time": 56400, "pitch": 52, "duration": 240, "velocity": 100}, {"time": 56400, "pitch": 59, "duration": 240, "velocity": 90}, {"time": 56410, "pitch": 64, "duration": 240, "velocity": 85}, {"time": 56410, "pitch": 68, "duration": 240, "velocity": 100}, {"time": 56640, "pitch": 52, "duration": 240, "velocity": 110}, {"time": 56640, "pitch": 59, "duration": 240, "velocity": 100}, {"time": 56650, "pitch": 62, "duration": 240, "velocity": 95}, {"time": 56650, "pitch": 66, "duration": 240, "velocity": 100}, {"time": 56880, "pitch": 52, "duration": 240, "velocity": 100}, {"time": 56880, "pitch": 59, "duration": 240, "velocity": 90}, {"time": 56890, "pitch": 62, "duration": 240, "velocity": 85}, {"time": 56890, "pitch": 66, "duration": 240, "velocity": 90}, {"time": 57120, "pitch": 52, "duration": 240, "velocity": 110}, {"time": 57120, "pitch": 59, "duration": 240, "velocity": 100}, {"time": 57130, "pitch": 62, "duration": 240, "velocity": 95}, {"time": 57130, "pitch": 66, "duration": 240, "velocity": 100}, {"time": 57360, "pitch": 52, "duration": 240, "velocity": 100}, {"time": 57360, "pitch": 59, "duration": 240, "velocity": 90}, {"time": 57370, "pitch": 62, "duration": 240, "velocity": 85}, {"time": 57370, "pitch": 66, "duration": 240, "velocity": 90}, {"time": 57600, "pitch": 52, "duration": 480, "velocity": 110}, {"time": 57600, "pitch": 57, "duration": 480, "velocity": 100}, {"time": 57610, "pitch": 62, "duration": 470, "velocity": 95}, {"time": 57610, "pitch": 66, "duration": 470, "velocity": 100}, {"time": 58080, "pitch": 50, "duration": 240, "velocity": 110}, {"time": 58080, "pitch": 57, "duration": 240, "velocity": 100}, {"time": 58090, "pitch": 62, "duration": 240, "velocity": 95}, {"time": 58090, "pitch": 66, "duration": 240, "velocity": 100}, {"time": 58320, "pitch": 50, "duration": 240, "velocity": 100}, {"time": 58320, "pitch": 57, "duration": 240, "velocity": 90}, {"time": 58330, "pitch": 62, "duration": 240, "velocity": 85}, {"time": 58330, "pitch": 66, "duration": 240, "velocity": 100}, {"time": 58560, "pitch": 50, "duration": 240, "velocity": 110}, {"time": 58560, "pitch": 57, "duration": 240, "velocity": 100}, {"time": 58570, "pitch": 62, "duration": 240, "velocity": 95}, {"time": 58570, "pitch": 66, "duration": 240, "velocity": 100}, {"time": 58800, "pitch": 50, "duration": 240, "velocity": 100}, {"time": 58800, "pitch": 57, "duration": 240, "velocity": 90}, {"time": 58810, "pitch": 62, "duration": 240, "velocity": 85}, {"time": 58810, "pitch": 66, "duration": 240, "velocity": 100}, {"time": 59040, "pitch": 50, "duration": 240, "velocity": 110}, {"time": 59040, "pitch": 57, "duration": 240, "velocity": 100}, {"time": 59050, "pitch": 62, "duration": 240, "velocity": 95}, {"time": 59050, "pitch": 66, "duration": 240, "velocity": 100}, {"time": 59280, "pitch": 50, "duration": 240, "velocity": 100}, {"time": 59280, "pitch": 57, "duration": 240, "velocity": 90}, {"time": 59290, "pitch": 62, "duration": 240, "velocity": 85}, {"time": 59290, "pitch": 66, "duration": 240, "velocity": 100}, {"time": 59520, "pitch": 50, "duration": 240, "velocity": 105}, {"time": 59520, "pitch": 57, "duration": 240, "velocity": 95}, {"time": 59530, "pitch": 62, "duration": 240, "velocity": 90}, {"time": 59530, "pitch": 66, "duration": 240, "velocity": 95}, {"time": 59760, "pitch": 49, "duration": 480, "velocity": 110}, {"time": 59760, "pitch": 56, "duration": 480, "velocity": 100}, {"time": 59770, "pitch": 61, "duration": 470, "velocity": 95}, {"time": 59770, "pitch": 64, "duration": 470, "velocity": 110}, {"time": 60240, "pitch": 49, "duration": 240, "velocity": 100}, {"time": 60240, "pitch": 56, "duration": 240, "velocity": 90}, {"time": 60250, "pitch": 61, "duration": 240, "velocity": 85}, {"time": 60250, "pitch": 64, "duration": 240, "velocity": 100}, {"time": 60480, "pitch": 49, "duration": 240, "velocity": 110}, {"time": 60480, "pitch": 56, "duration": 240, "velocity": 100}, {"time": 60490, "pitch": 61, "duration": 240, "velocity": 95}, {"time": 60490, "pitch": 64, "duration": 240, "velocity": 110}, {"time": 60720, "pitch": 49, "duration": 1200, "velocity": 100}, {"time": 60720, "pitch": 56, "duration": 1200, "velocity": 90}, {"time": 60730, "pitch": 61, "duration": 240, "velocity": 85}, {"time": 60730, "pitch": 64, "duration": 240, "velocity": 100}, {"time": 60960, "pitch": 63, "duration": 240, "velocity": 110}, {"time": 61200, "pitch": 64, "duration": 240, "velocity": 105}, {"time": 61440, "pitch": 61, "duration": 480, "velocity": 110}, {"time": 61920, "pitch": 44, "duration": 240, "velocity": 110}, {"time": 61920, "pitch": 51, "duration": 240, "velocity": 100}, {"time": 61930, "pitch": 56, "duration": 240, "velocity": 90}, {"time": 62160, "pitch": 44, "duration": 240, "velocity": 100}, {"time": 62160, "pitch": 51, "duration": 240, "velocity": 90}, {"time": 62170, "pitch": 56, "duration": 240, "velocity": 80}, {"time": 62400, "pitch": 44, "duration": 1200, "velocity": 110}, {"time": 62400, "pitch": 51, "duration": 1200, "velocity": 100}, {"time": 62410, "pitch": 56, "duration": 1190, "velocity": 90}, {"time": 62640, "pitch": 59, "duration": 480, "velocity": 85}, {"time": 62640, "pitch": 63, "duration": 480, "velocity": 95}, {"time": 62650, "pitch": 68, "duration": 480, "velocity": 105}, {"time": 63120, "pitch": 63, "duration": 240, "velocity": 110}, {"time": 63360, "pitch": 64, "duration": 240, "velocity": 105}, {"time": 63600, "pitch": 49, "duration": 240, "velocity": 90}, {"time": 63600, "pitch": 56, "duration": 240, "velocity": 95}, {"time": 63610, "pitch": 61, "duration": 230, "velocity": 110}, {"time": 63840, "pitch": 49, "duration": 60, "velocity": 90}, {"time": 63850, "pitch": 56, "duration": 60, "velocity": 80}, {"time": 64080, "pitch": 59, "duration": 240, "velocity": 105}, {"time": 64080, "pitch": 64, "duration": 240, "velocity": 85}, {"time": 64090, "pitch": 68, "duration": 240, "velocity": 95}, {"time": 64320, "pitch": 59, "duration": 240, "velocity": 110}, {"time": 64320, "pitch": 64, "duration": 240, "velocity": 90}, {"time": 64330, "pitch": 68, "duration": 240, "velocity": 100}, {"time": 64560, "pitch": 56, "duration": 240, "velocity": 100}, {"time": 64800, "pitch": 59, "duration": 240, "velocity": 110}, {"time": 64800, "pitch": 64, "duration": 240, "velocity": 100}, {"time": 64810, "pitch": 68, "duration": 240, "velocity": 90}, {"time": 65040, "pitch": 59, "duration": 240, "velocity": 105}, {"time": 65040, "pitch": 64, "duration": 240, "velocity": 95}, {"time": 65050, "pitch": 68, "duration": 240, "velocity": 85}, {"time": 65280, "pitch": 56, "duration": 240, "velocity": 110}, {"time": 65520, "pitch": 49, "duration": 240, "velocity": 90}, {"time": 65760, "pitch": 54, "duration": 240, "velocity": 110}, {"time": 65760, "pitch": 61, "duration": 240, "velocity": 100}, {"time": 65770, "pitch": 66, "duration": 240, "velocity": 70}, {"time": 66000, "pitch": 54, "duration": 240, "velocity": 100}, {"time": 66000, "pitch": 61, "duration": 240, "velocity": 90}, {"time": 66010, "pitch": 66, "duration": 240, "velocity": 60}, {"time": 66240, "pitch": 54, "duration": 240, "velocity": 105}, {"time": 66240, "pitch": 61, "duration": 240, "velocity": 95}, {"time": 66250, "pitch": 66, "duration": 240, "velocity": 65}, {"time": 66480, "pitch": 54, "duration": 480, "velocity": 100}, {"time": 66480, "pitch": 61, "duration": 480, "velocity": 90}, {"time": 66490, "pitch": 66, "duration": 950, "velocity": 110}, {"time": 66960, "pitch": 54, "duration": 240, "velocity": 100}, {"time": 66970, "pitch": 61, "duration": 240, "velocity": 90}, {"time": 67200, "pitch": 54, "duration": 240, "velocity": 90}, {"time": 67210, "pitch": 61, "duration": 230, "velocity": 80}, {"time": 67440, "pitch": 47, "duration": 480, "velocity": 110}, {"time": 67440, "pitch": 54, "duration": 480, "velocity": 100}, {"time": 67450, "pitch": 59, "duration": 470, "velocity": 90}, {"time": 67920, "pitch": 47, "duration": 240, "velocity": 100}, {"time": 67920, "pitch": 54, "duration": 240, "velocity": 90}, {"time": 67930, "pitch": 59, "duration": 240, "velocity": 80}, {"time": 68160, "pitch": 47, "duration": 240, "velocity": 110}, {"time": 68160, "pitch": 54, "duration": 240, "velocity": 100}, {"time": 68170, "pitch": 59, "duration": 240, "velocity": 90}, {"time": 68170, "pitch": 63, "duration": 240, "velocity": 95}, {"time": 68400, "pitch": 47, "duration": 240, "velocity": 105}, {"time": 68400, "pitch": 54, "duration": 240, "velocity": 95}, {"time": 68410, "pitch": 59, "duration": 240, "velocity": 85}, {"time": 68410, "pitch": 63, "duration": 240, "velocity": 90}, {"time": 68640, "pitch": 47, "duration": 240, "velocity": 110}, {"time": 68640, "pitch": 54, "duration": 240, "velocity": 100}, {"time": 68650, "pitch": 59, "duration": 240, "velocity": 90}, {"time": 68650, "pitch": 63, "duration": 240, "velocity": 95}, {"time": 68880, "pitch": 47, "duration": 240, "velocity": 105}, {"time": 68880, "pitch": 54, "duration": 240, "velocity": 95}, {"time": 68890, "pitch": 59, "duration": 240, "velocity": 85}, {"time": 68890, "pitch": 63, "duration": 240, "velocity": 90}, {"time": 69120, "pitch": 47, "duration": 240, "velocity": 110}, {"time": 69120, "pitch": 54, "duration": 240, "velocity": 100}, {"time": 69130, "pitch": 59, "duration": 230, "velocity": 90}, {"time": 69130, "pitch": 63, "duration": 240, "velocity": 95}, {"time": 69360, "pitch": 52, "duration": 480, "velocity": 110}, {"time": 69360, "pitch": 59, "duration": 480, "velocity": 100}, {"time": 69370, "pitch": 64, "duration": 470, "velocity": 95}, {"time": 69370, "pitch": 68, "duration": 470, "velocity": 100}, {"time": 69840, "pitch": 52, "duration": 240, "velocity": 100}, {"time": 69840, "pitch": 59, "duration": 240, "velocity": 90}, {"time": 69850, "pitch": 64, "duration": 240, "velocity": 85}, {"time": 69850, "pitch": 68, "duration": 240, "velocity": 90}, {"time": 70080, "pitch": 52, "duration": 240, "velocity": 110}, {"time": 70080, "pitch": 59, "duration": 240, "velocity": 100}, {"time": 70090, "pitch": 64, "duration": 240, "velocity": 95}, {"time": 70090, "pitch": 68, "duration": 240, "velocity": 100}, {"time": 70320, "pitch": 52, "duration": 240, "velocity": 100}, {"time": 70320, "pitch": 59, "duration": 240, "velocity": 90}, {"time": 70330, "pitch": 64, "duration": 240, "velocity": 85}, {"time": 70330, "pitch": 68, "duration": 240, "velocity": 90}, {"time": 70560, "pitch": 52, "duration": 240, "velocity": 110}, {"time": 70560, "pitch": 59, "duration": 240, "velocity": 100}, {"time": 70570, "pitch": 64, "duration": 240, "velocity": 95}, {"time": 70570, "pitch": 68, "duration": 240, "velocity": 100}, {"time": 70800, "pitch": 52, "duration": 240, "velocity": 100}, {"time": 70800, "pitch": 59, "duration": 240, "velocity": 90}, {"time": 70810, "pitch": 64, "duration": 240, "velocity": 85}, {"time": 70810, "pitch": 68, "duration": 240, "velocity": 90}, {"time": 71040, "pitch": 52, "duration": 240, "velocity": 110}, {"time": 71040, "pitch": 59, "duration": 240, "velocity": 100}, {"time": 71050, "pitch": 64, "duration": 240, "velocity": 95}, {"time": 71050, "pitch": 68, "duration": 240, "velocity": 100}, {"time": 71280, "pitch": 52, "duration": 240, "velocity": 100}, {"time": 71280, "pitch": 57, "duration": 230, "velocity": 90}, {"time": 71290, "pitch": 62, "duration": 230, "velocity": 85}, {"time": 71520, "pitch": 52, "duration": 240, "velocity": 110}, {"time": 71520, "pitch": 59, "duration": 240, "velocity": 100}, {"time": 71530, "pitch": 62, "duration": 240, "velocity": 95}, {"time": 71530, "pitch": 66, "duration": 240, "velocity": 100}, {"time": 71760, "pitch": 52, "duration": 240, "velocity": 100}, {"time": 71760, "pitch": 59, "duration": 240, "velocity": 90}, {"time": 71770, "pitch": 62, "duration": 240, "velocity": 85}, {"time": 71770, "pitch": 66, "duration": 240, "velocity": 90}, {"time": 72000, "pitch": 52, "duration": 240, "velocity": 110}, {"time": 72000, "pitch": 59, "duration": 240, "velocity": 100}, {"time": 72010, "pitch": 62, "duration": 240, "velocity": 95}, {"time": 72010, "pitch": 66, "duration": 240, "velocity": 100}, {"time": 72240, "pitch": 52, "duration": 240, "velocity": 100}, {"time": 72240, "pitch": 59, "duration": 240, "velocity": 90}, {"time": 72250, "pitch": 62, "duration": 240, "velocity": 85}, {"time": 72250, "pitch": 66, "duration": 240, "velocity": 90}, {"time": 72480, "pitch": 52, "duration": 240, "velocity": 110}, {"time": 72480, "pitch": 59, "duration": 240, "velocity": 100}, {"time": 72490, "pitch": 62, "duration": 240, "velocity": 95}, {"time": 72490, "pitch": 66, "duration": 240, "velocity": 100}, {"time": 72720, "pitch": 52, "duration": 240, "velocity": 100}, {"time": 72720, "pitch": 59, "duration": 240, "velocity": 90}, {"time": 72730, "pitch": 62, "duration": 240, "velocity": 85}, {"time": 72730, "pitch": 66, "duration": 240, "velocity": 90}, {"time": 72960, "pitch": 52, "duration": 480, "velocity": 110}, {"time": 72960, "pitch": 57, "duration": 240, "velocity": 100}, {"time": 72970, "pitch": 62, "duration": 350, "velocity": 95}, {"time": 72970, "pitch": 66, "duration": 470, "velocity": 100}, {"time": 73200, "pitch": 57, "duration": 240, "velocity": 100}, {"time": 73320, "pitch": 62, "duration": 120, "velocity": 95}, {"time": 73440, "pitch": 50, "duration": 240, "velocity": 110}, {"time": 73440, "pitch": 57, "duration": 240, "velocity": 100}, {"time": 73450, "pitch": 62, "duration": 240, "velocity": 95}, {"time": 73450, "pitch": 66, "duration": 240, "velocity": 100}, {"time": 73680, "pitch": 50, "duration": 240, "velocity": 100}, {"time": 73680, "pitch": 57, "duration": 240, "velocity": 90}, {"time": 73690, "pitch": 62, "duration": 240, "velocity": 85}, {"time": 73690, "pitch": 66, "duration": 240, "velocity": 100}, {"time": 73920, "pitch": 50, "duration": 240, "velocity": 110}, {"time": 73920, "pitch": 57, "duration": 240, "velocity": 100}, {"time": 73930, "pitch": 62, "duration": 240, "velocity": 95}, {"time": 73930, "pitch": 66, "duration": 240, "velocity": 100}, {"time": 74160, "pitch": 50, "duration": 240, "velocity": 100}, {"time": 74160, "pitch": 57, "duration": 240, "velocity": 90}, {"time": 74170, "pitch": 62, "duration": 240, "velocity": 85}, {"time": 74170, "pitch": 66, "duration": 240, "velocity": 100}, {"time": 74400, "pitch": 50, "duration": 240, "velocity": 110}, {"time": 74400, "pitch": 57, "duration": 240, "velocity": 100}, {"time": 74410, "pitch": 62, "duration": 240, "velocity": 95}, {"time": 74410, "pitch": 66, "duration": 240, "velocity": 100}, {"time": 74640, "pitch": 50, "duration": 240, "velocity": 100}, {"time": 74640, "pitch": 57, "duration": 240, "velocity": 90}, {"time": 74650, "pitch": 62, "duration": 240, "velocity": 85}, {"time": 74650, "pitch": 66, "duration": 240, "velocity": 100}, {"time": 74880, "pitch": 50, "duration": 240, "velocity": 105}, {"time": 74880, "pitch": 57, "duration": 240, "velocity": 95}, {"time": 74890, "pitch": 62, "duration": 240, "velocity": 90}, {"time": 74890, "pitch": 66, "duration": 240, "velocity": 95}, {"time": 75120, "pitch": 49, "duration": 480, "velocity": 110}, {"time": 75120, "pitch": 56, "duration": 480, "velocity": 100}, {"time": 75130, "pitch": 61, "duration": 470, "velocity": 95}, {"time": 75130, "pitch": 64, "duration": 470, "velocity": 110}, {"time": 75600, "pitch": 49, "duration": 240, "velocity": 100}, {"time": 75600, "pitch": 56, "duration": 240, "velocity": 90}, {"time": 75610, "pitch": 61, "duration": 240, "velocity": 85}, {"time": 75610, "pitch": 64, "duration": 240, "velocity": 100}, {"time": 75840, "pitch": 49, "duration": 240, "velocity": 110}, {"time": 75840, "pitch": 56, "duration": 240, "velocity": 100}, {"time": 75850, "pitch": 61, "duration": 240, "velocity": 95}, {"time": 75850, "pitch": 64, "duration": 240, "velocity": 110}, {"time": 76080, "pitch": 49, "duration": 240, "velocity": 100}, {"time": 76080, "pitch": 56, "duration": 240, "velocity": 90}, {"time": 76090, "pitch": 63, "duration": 480, "velocity": 110}, {"time": 76320, "pitch": 49, "duration": 240, "velocity": 100}, {"time": 76330, "pitch": 56, "duration": 230, "velocity": 90}, {"time": 76560, "pitch": 49, "duration": 240, "velocity": 90}, {"time": 76560, "pitch": 56, "duration": 240, "velocity": 80}, {"time": 76570, "pitch": 64, "duration": 240, "velocity": 105}, {"time": 76800, "pitch": 49, "duration": 240, "velocity": 100}, {"time": 76800, "pitch": 56, "duration": 240, "velocity": 90}, {"time": 76810, "pitch": 61, "duration": 470, "velocity": 110}, {"time": 77040, "pitch": 49, "duration": 240, "velocity": 90}, {"time": 77050, "pitch": 56, "duration": 230, "velocity": 80}, {"time": 77280, "pitch": 44, "duration": 240, "velocity": 110}, {"time": 77280, "pitch": 51, "duration": 240, "velocity": 100}, {"time": 77290, "pitch": 56, "duration": 240, "velocity": 90}, {"time": 77520, "pitch": 44, "duration": 240, "velocity": 100}, {"time": 77520, "pitch": 51, "duration": 240, "velocity": 90}, {"time": 77530, "pitch": 56, "duration": 240, "velocity": 80}, {"time": 77760, "pitch": 44, "duration": 1200, "velocity": 110}, {"time": 77760, "pitch": 51, "duration": 1200, "velocity": 100}, {"time": 77770, "pitch": 56, "duration": 1190, "velocity": 90}, {"time": 78000, "pitch": 59, "duration": 480, "velocity": 85}, {"time": 78000, "pitch": 63, "duration": 480, "velocity": 95}, {"time": 78010, "pitch": 68, "duration": 480, "velocity": 105}, {"time": 78480, "pitch": 63, "duration": 240, "velocity": 110}, {"time": 78720, "pitch": 64, "duration": 240, "velocity": 105}, {"time": 78960, "pitch": 49, "duration": 240, "velocity": 90}, {"time": 78960, "pitch": 56, "duration": 240, "velocity": 95}, {"time": 78970, "pitch": 61, "duration": 230, "velocity": 110}, {"time": 79200, "pitch": 49, "duration": 60, "velocity": 90}, {"time": 79210, "pitch": 56, "duration": 60, "velocity": 80}, {"time": 79440, "pitch": 59, "duration": 240, "velocity": 105}, {"time": 79440, "pitch": 64, "duration": 240, "velocity": 85}, {"time": 79450, "pitch": 68, "duration": 240, "velocity": 95}, {"time": 79680, "pitch": 59, "duration": 240, "velocity": 110}, {"time": 79680, "pitch": 64, "duration": 240, "velocity": 90}, {"time": 79690, "pitch": 68, "duration": 240, "velocity": 100}, {"time": 79920, "pitch": 56, "duration": 240, "velocity": 100}, {"time": 80160, "pitch": 59, "duration": 240, "velocity": 110}, {"time": 80160, "pitch": 64, "duration": 240, "velocity": 100}, {"time": 80170, "pitch": 68, "duration": 240, "velocity": 90}, {"time": 80400, "pitch": 59, "duration": 240, "velocity": 105}, {"time": 80400, "pitch": 64, "duration": 240, "velocity": 95}, {"time": 80410, "pitch": 68, "duration": 240, "velocity": 85}, {"time": 80640, "pitch": 56, "duration": 240, "velocity": 110}, {"time": 80880, "pitch": 49, "duration": 240, "velocity": 90}, {"time": 81120, "pitch": 54, "duration": 240, "velocity": 110}, {"time": 81120, "pitch": 61, "duration": 240, "velocity": 100}, {"time": 81130, "pitch": 66, "duration": 240, "velocity": 70}, {"time": 81360, "pitch": 54, "duration": 240, "velocity": 100}, {"time": 81360, "pitch": 61, "duration": 240, "velocity": 90}, {"time": 81370, "pitch": 66, "duration": 240, "velocity": 60}, {"time": 81600, "pitch": 54, "duration": 240, "velocity": 110}, {"time": 81600, "pitch": 61, "duration": 240, "velocity": 100}, {"time": 81610, "pitch": 66, "duration": 240, "velocity": 70}, {"time": 81840, "pitch": 54, "duration": 240, "velocity": 100}, {"time": 81840, "pitch": 61, "duration": 240, "velocity": 90}, {"time": 81850, "pitch": 66, "duration": 240, "velocity": 60}, {"time": 82080, "pitch": 47, "duration": 240, "velocity": 110}, {"time": 82080, "pitch": 54, "duration": 240, "velocity": 100}, {"time": 82090, "pitch": 59, "duration": 240, "velocity": 90}, {"time": 82320, "pitch": 47, "duration": 240, "velocity": 100}, {"time": 82320, "pitch": 54, "duration": 240, "velocity": 90}, {"time": 82330, "pitch": 59, "duration": 240, "velocity": 80}, {"time": 82560, "pitch": 47, "duration": 240, "velocity": 105}, {"time": 82560, "pitch": 54, "duration": 240, "velocity": 95}, {"time": 82570, "pitch": 59, "duration": 230, "velocity": 85}, {"time": 82800, "pitch": 52, "duration": 1920, "velocity": 110}, {"time": 82800, "pitch": 59, "duration": 1920, "velocity": 100}, {"time": 82810, "pitch": 64, "duration": 1910, "velocity": 90}, {"time": 82810, "pitch": 68, "duration": 1910, "velocity": 100}, {"time": 84720, "pitch": 52, "duration": 1200, "velocity": 110}, {"time": 84720, "pitch": 59, "duration": 480, "velocity": 100}, {"time": 84730, "pitch": 64, "duration": 470, "velocity": 90}, {"time": 84730, "pitch": 69, "duration": 1190, "velocity": 100}, {"time": 85200, "pitch": 59, "duration": 240, "velocity": 80}, {"time": 85210, "pitch": 62, "duration": 240, "velocity": 105}, {"time": 85440, "pitch": 59, "duration": 240, "velocity": 80}, {"time": 85450, "pitch": 64, "duration": 240, "velocity": 110}, {"time": 85680, "pitch": 59, "duration": 240, "velocity": 100}, {"time": 85920, "pitch": 52, "duration": 240, "velocity": 110}, {"time": 85920, "pitch": 57, "duration": 240, "velocity": 80}, {"time": 85930, "pitch": 64, "duration": 240, "velocity": 90}, {"time": 85930, "pitch": 69, "duration": 240, "velocity": 100}, {"time": 86160, "pitch": 52, "duration": 480, "velocity": 110}, {"time": 86160, "pitch": 59, "duration": 480, "velocity": 100}, {"time": 86170, "pitch": 64, "duration": 480, "velocity": 90}, {"time": 86170, "pitch": 68, "duration": 480, "velocity": 100}, {"time": 86640, "pitch": 52, "duration": 60, "velocity": 100}, {"time": 86640, "pitch": 59, "duration": 60, "velocity": 90}, {"time": 86650, "pitch": 64, "duration": 60, "velocity": 80}, {"time": 86650, "pitch": 68, "duration": 60, "velocity": 90}, {"time": 86880, "pitch": 52, "duration": 240, "velocity": 100}, {"time": 87120, "pitch": 52, "duration": 480, "velocity": 90}, {"time": 87360, "pitch": 64, "duration": 240, "velocity": 110}, {"time": 87370, "pitch": 68, "duration": 240, "velocity": 50}, {"time": 87600, "pitch": 52, "duration": 240, "velocity": 90}, {"time": 87840, "pitch": 52, "duration": 480, "velocity": 100}, {"time": 88080, "pitch": 64, "duration": 240, "velocity": 110}, {"time": 88090, "pitch": 68, "duration": 240, "velocity": 50}, {"time": 88320, "pitch": 52, "duration": 240, "velocity": 100}, {"time": 88560, "pitch": 52, "duration": 480, "velocity": 90}, {"time": 88800, "pitch": 64, "duration": 240, "velocity": 110}, {"time": 88810, "pitch": 68, "duration": 240, "velocity": 50}, {"time": 89040, "pitch": 52, "duration": 240, "velocity": 90}, {"time": 89280, "pitch": 52, "duration": 720, "velocity": 100}, {"time": 89520, "pitch": 64, "duration": 480, "velocity": 110}, {"time": 89530, "pitch": 68, "duration": 480, "velocity": 50}, {"time": 90000, "pitch": 64, "duration": 240, "velocity": 110}, {"time": 90010, "pitch": 68, "duration": 240, "velocity": 50}, {"time": 90240, "pitch": 62, "duration": 240, "velocity": 107}, {"time": 90480, "pitch": 59, "duration": 240, "velocity": 105}, {"time": 90720, "pitch": 52, "duration": 240, "velocity": 100}, {"time": 90960, "pitch": 52, "duration": 480, "velocity": 90}, {"time": 91200, "pitch": 64, "duration": 240, "velocity": 110}, {"time": 91210, "pitch": 68, "duration": 240, "velocity": 50}, {"time": 91440, "pitch": 52, "duration": 240, "velocity": 90}, {"time": 91680, "pitch": 52, "duration": 480, "velocity": 100}, {"time": 91920, "pitch": 64, "duration": 240, "velocity": 110}, {"time": 91930, "pitch": 68, "duration": 240, "velocity": 50}, {"time": 92160, "pitch": 52, "duration": 240, "velocity": 100}, {"time": 92400, "pitch": 52, "duration": 480, "velocity": 90}, {"time": 92640, "pitch": 64, "duration": 240, "velocity": 110}, {"time": 92650, "pitch": 68, "duration": 240, "velocity": 50}, {"time": 92880, "pitch": 52, "duration": 240, "velocity": 90}, {"time": 93120, "pitch": 52, "duration": 720, "velocity": 100}, {"time": 93360, "pitch": 64, "duration": 480, "velocity": 110}, {"time": 93370, "pitch": 68, "duration": 480, "velocity": 50}, {"time": 93840, "pitch": 64, "duration": 240, "velocity": 110}, {"time": 93850, "pitch": 68, "duration": 240, "velocity": 50}, {"time": 94080, "pitch": 62, "duration": 240, "velocity": 107}, {"time": 94320, "pitch": 59, "duration": 240, "velocity": 105}, {"time": 94560, "pitch": 52, "duration": 240, "velocity": 110}, {"time": 94570, "pitch": 59, "duration": 240, "velocity": 100}, {"time": 94800, "pitch": 52, "duration": 240, "velocity": 105}, {"time": 94810, "pitch": 59, "duration": 240, "velocity": 95}, {"time": 95040, "pitch": 52, "duration": 40, "velocity": 100}, {"time": 95050, "pitch": 59, "duration": 40, "velocity": 90}, {"time": 95280, "pitch": 52, "duration": 240, "velocity": 110}, {"time": 95290, "pitch": 61, "duration": 240, "velocity": 100}, {"time": 95520, "pitch": 52, "duration": 40, "velocity": 100}, {"time": 95530, "pitch": 59, "duration": 40, "velocity": 90}, {"time": 95760, "pitch": 52, "duration": 240, "velocity": 110}, {"time": 95770, "pitch": 59, "duration": 240, "velocity": 100}, {"time": 96000, "pitch": 52, "duration": 40, "velocity": 100}, {"time": 96010, "pitch": 59, "duration": 40, "velocity": 90}, {"time": 96240, "pitch": 52, "duration": 240, "velocity": 110}, {"time": 96250, "pitch": 62, "duration": 230, "velocity": 100}, {"time": 96480, "pitch": 52, "duration": 40, "velocity": 100}, {"time": 96490, "pitch": 59, "duration": 40, "velocity": 90}, {"time": 96720, "pitch": 52, "duration": 240, "velocity": 110}, {"time": 96730, "pitch": 61, "duration": 230, "velocity": 100}, {"time": 96960, "pitch": 52, "duration": 40, "velocity": 100}, {"time": 96970, "pitch": 59, "duration": 40, "velocity": 90}, {"time": 97200, "pitch": 52, "duration": 240, "velocity": 110}, {"time": 97210, "pitch": 59, "duration": 240, "velocity": 100}, {"time": 97440, "pitch": 52, "duration": 40, "velocity": 100}, {"time": 97450, "pitch": 59, "duration": 40, "velocity": 90}, {"time": 97680, "pitch": 52, "duration": 240, "velocity": 110}, {"time": 97690, "pitch": 59, "duration": 240, "velocity": 100}, {"time": 97920, "pitch": 52, "duration": 40, "velocity": 100}, {"time": 97930, "pitch": 59, "duration": 40, "velocity": 90}, {"time": 98160, "pitch": 52, "duration": 240, "velocity": 105}, {"time": 98170, "pitch": 59, "duration": 230, "velocity": 95}, {"time": 98400, "pitch": 52, "duration": 240, "velocity": 110}, {"time": 98410, "pitch": 59, "duration": 240, "velocity": 100}, {"time": 98640, "pitch": 52, "duration": 240, "velocity": 105}, {"time": 98650, "pitch": 59, "duration": 240, "velocity": 95}, {"time": 98880, "pitch": 52, "duration": 40, "velocity": 100}, {"time": 98890, "pitch": 59, "duration": 40, "velocity": 90}, {"time": 99120, "pitch": 52, "duration": 240, "velocity": 110}, {"time": 99130, "pitch": 61, "duration": 240, "velocity": 100}, {"time": 99360, "pitch": 52, "duration": 40, "velocity": 100}, {"time": 99370, "pitch": 59, "duration": 40, "velocity": 90}, {"time": 99600, "pitch": 52, "duration": 240, "velocity": 110}, {"time": 99610, "pitch": 59, "duration": 240, "velocity": 100}, {"time": 99840, "pitch": 52, "duration": 40, "velocity": 100}, {"time": 99850, "pitch": 59, "duration": 40, "velocity": 90}, {"time": 100080, "pitch": 52, "duration": 240, "velocity": 110}, {"time": 100090, "pitch": 62, "duration": 230, "velocity": 100}, {"time": 100320, "pitch": 52, "duration": 40, "velocity": 100}, {"time": 100330, "pitch": 59, "duration": 40, "velocity": 90}, {"time": 100560, "pitch": 52, "duration": 240, "velocity": 110}, {"time": 100570, "pitch": 61, "duration": 230, "velocity": 100}, {"time": 100800, "pitch": 52, "duration": 40, "velocity": 100}, {"time": 100810, "pitch": 59, "duration": 40, "velocity": 90}, {"time": 101040, "pitch": 52, "duration": 240, "velocity": 110}, {"time": 101050, "pitch": 59, "duration": 240, "velocity": 100}, {"time": 101280, "pitch": 52, "duration": 40, "velocity": 100}, {"time": 101290, "pitch": 59, "duration": 40, "velocity": 90}, {"time": 101520, "pitch": 52, "duration": 240, "velocity": 110}, {"time": 101530, "pitch": 59, "duration": 240, "velocity": 100}, {"time": 101760, "pitch": 52, "duration": 40, "velocity": 100}, {"time": 101770, "pitch": 59, "duration": 40, "velocity": 90}, {"time": 102000, "pitch": 52, "duration": 240, "velocity": 105}, {"time": 102010, "pitch": 59, "duration": 230, "velocity": 95}, {"time": 102240, "pitch": 52, "duration": 240, "velocity": 110}, {"time": 102250, "pitch": 59, "duration": 240, "velocity": 100}, {"time": 102480, "pitch": 52, "duration": 240, "velocity": 105}, {"time": 102490, "pitch": 59, "duration": 240, "velocity": 95}, {"time": 102720, "pitch": 52, "duration": 40, "velocity": 100}, {"time": 102730, "pitch": 59, "duration": 40, "velocity": 90}, {"time": 102960, "pitch": 52, "duration": 240, "velocity": 110}, {"time": 102970, "pitch": 61, "duration": 240, "velocity": 100}, {"time": 103200, "pitch": 52, "duration": 40, "velocity": 100}, {"time": 103210, "pitch": 59, "duration": 40, "velocity": 90}, {"time": 103440, "pitch": 52, "duration": 240, "velocity": 110}, {"time": 103450, "pitch": 59, "duration": 240, "velocity": 100}, {"time": 103680, "pitch": 52, "duration": 40, "velocity": 100}, {"time": 103690, "pitch": 59, "duration": 40, "velocity": 90}, {"time": 103920, "pitch": 52, "duration": 240, "velocity": 110}, {"time": 103930, "pitch": 62, "duration": 230, "velocity": 100}, {"time": 104160, "pitch": 52, "duration": 40, "velocity": 100}, {"time": 104170, "pitch": 59, "duration": 40, "velocity": 90}, {"time": 104400, "pitch": 52, "duration": 240, "velocity": 110}, {"time": 104410, "pitch": 61, "duration": 230, "velocity": 100}, {"time": 104640, "pitch": 52, "duration": 40, "velocity": 100}, {"time": 104650, "pitch": 59, "duration": 40, "velocity": 90}, {"time": 104880, "pitch": 52, "duration": 240, "velocity": 110}, {"time": 104890, "pitch": 59, "duration": 240, "velocity": 100}, {"time": 105120, "pitch": 52, "duration": 40, "velocity": 100}, {"time": 105130, "pitch": 59, "duration": 40, "velocity": 90}, {"time": 105360, "pitch": 52, "duration": 240, "velocity": 110}, {"time": 105370, "pitch": 59, "duration": 240, "velocity": 100}, {"time": 105600, "pitch": 52, "duration": 40, "velocity": 100}, {"time": 105610, "pitch": 59, "duration": 40, "velocity": 90}, {"time": 105840, "pitch": 52, "duration": 240, "velocity": 105}, {"time": 105850, "pitch": 59, "duration": 230, "velocity": 95}, {"time": 106080, "pitch": 52, "duration": 240, "velocity": 110}, {"time": 106090, "pitch": 59, "duration": 240, "velocity": 100}, {"time": 106320, "pitch": 52, "duration": 240, "velocity": 105}, {"time": 106330, "pitch": 59, "duration": 240, "velocity": 95}, {"time": 106560, "pitch": 52, "duration": 40, "velocity": 100}, {"time": 106570, "pitch": 59, "duration": 40, "velocity": 90}, {"time": 106800, "pitch": 52, "duration": 240, "velocity": 110}, {"time": 106810, "pitch": 61, "duration": 240, "velocity": 100}, {"time": 107040, "pitch": 52, "duration": 40, "velocity": 100}, {"time": 107050, "pitch": 59, "duration": 40, "velocity": 90}, {"time": 107280, "pitch": 52, "duration": 240, "velocity": 110}, {"time": 107290, "pitch": 59, "duration": 240, "velocity": 100}, {"time": 107520, "pitch": 52, "duration": 40, "velocity": 100}, {"time": 107530, "pitch": 59, "duration": 40, "velocity": 90}, {"time": 107760, "pitch": 52, "duration": 240, "velocity": 110}, {"time": 107770, "pitch": 62, "duration": 230, "velocity": 100}, {"time": 108000, "pitch": 52, "duration": 40, "velocity": 100}, {"time": 108010, "pitch": 59, "duration": 40, "velocity": 90}, {"time": 108240, "pitch": 52, "duration": 240, "velocity": 110}, {"time": 108250, "pitch": 61, "duration": 230, "velocity": 100}, {"time": 108480, "pitch": 52, "duration": 40, "velocity": 100}, {"time": 108490, "pitch": 59, "duration": 40, "velocity": 90}, {"time": 108720, "pitch": 52, "duration": 240, "velocity": 110}, {"time": 108730, "pitch": 59, "duration": 240, "velocity": 100}, {"time": 108960, "pitch": 52, "duration": 40, "velocity": 100}, {"time": 108970, "pitch": 59, "duration": 40, "velocity": 90}, {"time": 109200, "pitch": 52, "duration": 240, "velocity": 110}, {"time": 109210, "pitch": 59, "duration": 240, "velocity": 100}, {"time": 109440, "pitch": 52, "duration": 240, "velocity": 105}, {"time": 109450, "pitch": 59, "duration": 240, "velocity": 95}, {"time": 109680, "pitch": 52, "duration": 240, "velocity": 107}, {"time": 109690, "pitch": 59, "duration": 230, "velocity": 97}, {"time": 109920, "pitch": 43, "duration": 240, "velocity": 110}, {"time": 109930, "pitch": 50, "duration": 240, "velocity": 100}, {"time": 110160, "pitch": 43, "duration": 240, "velocity": 100}, {"time": 110170, "pitch": 50, "duration": 240, "velocity": 90}, {"time": 110400, "pitch": 43, "duration": 240, "velocity": 110}, {"time": 110410, "pitch": 50, "duration": 240, "velocity": 100}, {"time": 110640, "pitch": 43, "duration": 240, "velocity": 100}, {"time": 110650, "pitch": 50, "duration": 240, "velocity": 90}, {"time": 110880, "pitch": 43, "duration": 240, "velocity": 110}, {"time": 110890, "pitch": 50, "duration": 240, "velocity": 100}, {"time": 111120, "pitch": 43, "duration": 240, "velocity": 100}, {"time": 111130, "pitch": 50, "duration": 240, "velocity": 90}, {"time": 111360, "pitch": 43, "duration": 240, "velocity": 110}, {"time": 111370, "pitch": 50, "duration": 240, "velocity": 100}, {"time": 111600, "pitch": 43, "duration": 240, "velocity": 100}, {"time": 111610, "pitch": 50, "duration": 230, "velocity": 90}, {"time": 111840, "pitch": 45, "duration": 240, "velocity": 110}, {"time": 111850, "pitch": 52, "duration": 240, "velocity": 100}, {"time": 112080, "pitch": 45, "duration": 240, "velocity": 100}, {"time": 112090, "pitch": 52, "duration": 240, "velocity": 90}, {"time": 112320, "pitch": 45, "duration": 240, "velocity": 110}, {"time": 112330, "pitch": 52, "duration": 240, "velocity": 100}, {"time": 112560, "pitch": 45, "duration": 240, "velocity": 100}, {"time": 112570, "pitch": 52, "duration": 240, "velocity": 90}, {"time": 112800, "pitch": 45, "duration": 240, "velocity": 110}, {"time": 112810, "pitch": 52, "duration": 240, "velocity": 100}, {"time": 113040, "pitch": 45, "duration": 240, "velocity": 100}, {"time": 113050, "pitch": 52, "duration": 240, "velocity": 90}, {"time": 113280, "pitch": 45, "duration": 240, "velocity": 110}, {"time": 113290, "pitch": 52, "duration": 240, "velocity": 100}, {"time": 113520, "pitch": 45, "duration": 240, "velocity": 100}, {"time": 113530, "pitch": 52, "duration": 230, "velocity": 90}, {"time": 113760, "pitch": 52, "duration": 240, "velocity": 110}, {"time": 113770, "pitch": 59, "duration": 240, "velocity": 100}, {"time": 114000, "pitch": 52, "duration": 480, "velocity": 100}, {"time": 114010, "pitch": 59, "duration": 230, "velocity": 90}, {"time": 114240, "pitch": 59, "duration": 240, "velocity": 110}, {"time": 114240, "pitch": 64, "duration": 240, "velocity": 100}, {"time": 114250, "pitch": 68, "duration": 240, "velocity": 80}, {"time": 114480, "pitch": 52, "duration": 60, "velocity": 90}, {"time": 114490, "pitch": 59, "duration": 60, "velocity": 80}, {"time": 114720, "pitch": 52, "duration": 480, "velocity": 100}, {"time": 114730, "pitch": 59, "duration": 230, "velocity": 90}, {"time": 114960, "pitch": 59, "duration": 240, "velocity": 110}, {"time": 114960, "pitch": 64, "duration": 240, "velocity": 100}, {"time": 114970, "pitch": 68, "duration": 240, "velocity": 80}, {"time": 115200, "pitch": 52, "duration": 60, "velocity": 95}, {"time": 115210, "pitch": 59, "duration": 60, "velocity": 85}, {"time": 115440, "pitch": 52, "duration": 60, "velocity": 100}, {"time": 115450, "pitch": 59, "duration": 60, "velocity": 90}, {"time": 115680, "pitch": 52, "duration": 240, "velocity": 70}, {"time": 115690, "pitch": 59, "duration": 240, "velocity": 110}, {"time": 115920, "pitch": 52, "duration": 240, "velocity": 100}, {"time": 115930, "pitch": 59, "duration": 230, "velocity": 60}, {"time": 116160, "pitch": 52, "duration": 240, "velocity": 100}, {"time": 116160, "pitch": 59, "duration": 240, "velocity": 110}, {"time": 116170, "pitch": 64, "duration": 240, "velocity": 90}, {"time": 116170, "pitch": 68, "duration": 240, "velocity": 80}, {"time": 116400, "pitch": 52, "duration": 240, "velocity": 100}, {"time": 116410, "pitch": 59, "duration": 230, "velocity": 90}, {"time": 116640, "pitch": 59, "duration": 240, "velocity": 110}, {"time": 116640, "pitch": 64, "duration": 240, "velocity": 100}, {"time": 116650, "pitch": 68, "duration": 240, "velocity": 70}, {"time": 116880, "pitch": 59, "duration": 240, "velocity": 105}, {"time": 116880, "pitch": 64, "duration": 240, "velocity": 95}, {"time": 116890, "pitch": 68, "duration": 230, "velocity": 65}, {"time": 117120, "pitch": 62, "duration": 240, "velocity": 110}, {"time": 117360, "pitch": 59, "duration": 240, "velocity": 105}, {"time": 117600, "pitch": 43, "duration": 240, "velocity": 110}, {"time": 117610, "pitch": 50, "duration": 240, "velocity": 100}, {"time": 117840, "pitch": 43, "duration": 240, "velocity": 100}, {"time": 117850, "pitch": 50, "duration": 240, "velocity": 90}, {"time": 118080, "pitch": 43, "duration": 240, "velocity": 110}, {"time": 118090, "pitch": 50, "duration": 240, "velocity": 100}, {"time": 118320, "pitch": 43, "duration": 240, "velocity": 100}, {"time": 118330, "pitch": 50, "duration": 240, "velocity": 90}, {"time": 118560, "pitch": 43, "duration": 240, "velocity": 110}, {"time": 118570, "pitch": 50, "duration": 240, "velocity": 100}, {"time": 118800, "pitch": 43, "duration": 240, "velocity": 100}, {"time": 118810, "pitch": 50, "duration": 240, "velocity": 90}, {"time": 119040, "pitch": 43, "duration": 240, "velocity": 110}, {"time": 119050, "pitch": 50, "duration": 240, "velocity": 100}, {"time": 119280, "pitch": 43, "duration": 240, "velocity": 100}, {"time": 119290, "pitch": 50, "duration": 230, "velocity": 90}, {"time": 119520, "pitch": 45, "duration": 240, "velocity": 110}, {"time": 119530, "pitch": 52, "duration": 240, "velocity": 100}, {"time": 119760, "pitch": 45, "duration": 240, "velocity": 100}, {"time": 119770, "pitch": 52, "duration": 240, "velocity": 90}, {"time": 120000, "pitch": 45, "duration": 240, "velocity": 110}, {"time": 120010, "pitch": 52, "duration": 240, "velocity": 100}, {"time": 120240, "pitch": 45, "duration": 240, "velocity": 100}, {"time": 120250, "pitch": 52, "duration": 240, "velocity": 90}, {"time": 120480, "pitch": 45, "duration": 240, "velocity": 110}, {"time": 120490, "pitch": 52, "duration": 240, "velocity": 100}, {"time": 120720, "pitch": 45, "duration": 240, "velocity": 100}, {"time": 120730, "pitch": 52, "duration": 240, "velocity": 90}, {"time": 120960, "pitch": 45, "duration": 240, "velocity": 110}, {"time": 120970, "pitch": 52, "duration": 240, "velocity": 100}, {"time": 121200, "pitch": 45, "duration": 240, "velocity": 100}, {"time": 121210, "pitch": 52, "duration": 230, "velocity": 90}, {"time": 121440, "pitch": 47, "duration": 240, "velocity": 110}, {"time": 121440, "pitch": 54, "duration": 240, "velocity": 100}, {"time": 121450, "pitch": 59, "duration": 240, "velocity": 90}, {"time": 121450, "pitch": 66, "duration": 240, "velocity": 95}, {"time": 121680, "pitch": 47, "duration": 240, "velocity": 105}, {"time": 121680, "pitch": 54, "duration": 240, "velocity": 95}, {"time": 121690, "pitch": 59, "duration": 240, "velocity": 85}, {"time": 121690, "pitch": 66, "duration": 240, "velocity": 90}, {"time": 121920, "pitch": 47, "duration": 240, "velocity": 110}, {"time": 121920, "pitch": 54, "duration": 240, "velocity": 100}, {"time": 121930, "pitch": 59, "duration": 240, "velocity": 90}, {"time": 121930, "pitch": 66, "duration": 240, "velocity": 95}, {"time": 122160, "pitch": 47, "duration": 240, "velocity": 105}, {"time": 122160, "pitch": 54, "duration": 240, "velocity": 95}, {"time": 122170, "pitch": 59, "duration": 240, "velocity": 85}, {"time": 122170, "pitch": 64, "duration": 240, "velocity": 90}, {"time": 122400, "pitch": 47, "duration": 240, "velocity": 110}, {"time": 122400, "pitch": 54, "duration": 240, "velocity": 100}, {"time": 122410, "pitch": 59, "duration": 240, "velocity": 90}, {"time": 122410, "pitch": 66, "duration": 240, "velocity": 95}, {"time": 122640, "pitch": 47, "duration": 240, "velocity": 105}, {"time": 122640, "pitch": 54, "duration": 240, "velocity": 95}, {"time": 122650, "pitch": 59, "duration": 240, "velocity": 85}, {"time": 122650, "pitch": 64, "duration": 240, "velocity": 95}, {"time": 122880, "pitch": 47, "duration": 40, "velocity": 100}, {"time": 122880, "pitch": 54, "duration": 40, "velocity": 90}, {"time": 122890, "pitch": 59, "duration": 40, "velocity": 80}, {"time": 123120, "pitch": 47, "duration": 240, "velocity": 105}, {"time": 123120, "pitch": 54, "duration": 240, "velocity": 95}, {"time": 123130, "pitch": 59, "duration": 230, "velocity": 85}, {"time": 123130, "pitch": 66, "duration": 230, "velocity": 90}, {"time": 123360, "pitch": 47, "duration": 240, "velocity": 110}, {"time": 123360, "pitch": 54, "duration": 240, "velocity": 100}, {"time": 123370, "pitch": 59, "duration": 230, "velocity": 90}, {"time": 123370, "pitch": 66, "duration": 230, "velocity": 95}, {"time": 125040, "pitch": 52, "duration": 480, "velocity": 110}, {"time": 125040, "pitch": 59, "duration": 480, "velocity": 100}, {"time": 125050, "pitch": 64, "duration": 470, "velocity": 95}, {"time": 125050, "pitch": 68, "duration": 470, "velocity": 100}, {"time": 125520, "pitch": 52, "duration": 240, "velocity": 100}, {"time": 125520, "pitch": 59, "duration": 240, "velocity": 90}, {"time": 125530, "pitch": 64, "duration": 240, "velocity": 85}, {"time": 125530, "pitch": 68, "duration": 240, "velocity": 90}, {"time": 125760, "pitch": 52, "duration": 240, "velocity": 110}, {"time": 125760, "pitch": 59, "duration": 240, "velocity": 100}, {"time": 125770, "pitch": 64, "duration": 240, "velocity": 95}, {"time": 126000, "pitch": 52, "duration": 240, "velocity": 100}, {"time": 126000, "pitch": 59, "duration": 240, "velocity": 90}, {"time": 126010, "pitch": 64, "duration": 240, "velocity": 85}, {"time": 126010, "pitch": 68, "duration": 240, "velocity": 90}, {"time": 126240, "pitch": 52, "duration": 240, "velocity": 110}, {"time": 126240, "pitch": 59, "duration": 240, "velocity": 100}, {"time": 126250, "pitch": 64, "duration": 240, "velocity": 95}, {"time": 126250, "pitch": 68, "duration": 240, "velocity": 100}, {"time": 126480, "pitch": 52, "duration": 240, "velocity": 100}, {"time": 126480, "pitch": 59, "duration": 240, "velocity": 90}, {"time": 126490, "pitch": 64, "duration": 240, "velocity": 85}, {"time": 126720, "pitch": 52, "duration": 240, "velocity": 110}, {"time": 126720, "pitch": 59, "duration": 240, "velocity": 100}, {"time": 126730, "pitch": 64, "duration": 240, "velocity": 95}, {"time": 126730, "pitch": 68, "duration": 240, "velocity": 100}, {"time": 126960, "pitch": 52, "duration": 240, "velocity": 100}, {"time": 126960, "pitch": 59, "duration": 230, "velocity": 90}, {"time": 126970, "pitch": 64, "duration": 230, "velocity": 85}, {"time": 127200, "pitch": 52, "duration": 240, "velocity": 110}, {"time": 127200, "pitch": 59, "duration": 240, "velocity": 100}, {"time": 127210, "pitch": 64, "duration": 240, "velocity": 95}, {"time": 127210, "pitch": 66, "duration": 240, "velocity": 100}, {"time": 127440, "pitch": 52, "duration": 240, "velocity": 100}, {"time": 127440, "pitch": 59, "duration": 240, "velocity": 90}, {"time": 127450, "pitch": 64, "duration": 240, "velocity": 85}, {"time": 127450, "pitch": 68, "duration": 240, "velocity": 100}, {"time": 127680, "pitch": 52, "duration": 240, "velocity": 110}, {"time": 127680, "pitch": 59, "duration": 240, "velocity": 100}, {"time": 127690, "pitch": 62, "duration": 240, "velocity": 95}, {"time": 127690, "pitch": 66, "duration": 240, "velocity": 100}, {"time": 127920, "pitch": 52, "duration": 240, "velocity": 100}, {"time": 127920, "pitch": 59, "duration": 240, "velocity": 90}, {"time": 127930, "pitch": 62, "duration": 240, "velocity": 85}, {"time": 127930, "pitch": 66, "duration": 240, "velocity": 90}, {"time": 128160, "pitch": 52, "duration": 240, "velocity": 110}, {"time": 128160, "pitch": 59, "duration": 240, "velocity": 100}, {"time": 128170, "pitch": 62, "duration": 240, "velocity": 95}, {"time": 128170, "pitch": 66, "duration": 240, "velocity": 100}, {"time": 128400, "pitch": 52, "duration": 240, "velocity": 100}, {"time": 128400, "pitch": 59, "duration": 240, "velocity": 90}, {"time": 128410, "pitch": 62, "duration": 240, "velocity": 85}, {"time": 128410, "pitch": 66, "duration": 240, "velocity": 90}, {"time": 128640, "pitch": 52, "duration": 480, "velocity": 110}, {"time": 128640, "pitch": 57, "duration": 480, "velocity": 100}, {"time": 128650, "pitch": 62, "duration": 470, "velocity": 95}, {"time": 128650, "pitch": 66, "duration": 470, "velocity": 100}, {"time": 129120, "pitch": 50, "duration": 240, "velocity": 110}, {"time": 129120, "pitch": 57, "duration": 240, "velocity": 100}, {"time": 129130, "pitch": 62, "duration": 240, "velocity": 95}, {"time": 129130, "pitch": 66, "duration": 240, "velocity": 100}, {"time": 129360, "pitch": 50, "duration": 240, "velocity": 100}, {"time": 129360, "pitch": 57, "duration": 240, "velocity": 90}, {"time": 129370, "pitch": 62, "duration": 240, "velocity": 85}, {"time": 129370, "pitch": 66, "duration": 240, "velocity": 100}, {"time": 129600, "pitch": 50, "duration": 240, "velocity": 110}, {"time": 129600, "pitch": 57, "duration": 240, "velocity": 100}, {"time": 129610, "pitch": 62, "duration": 240, "velocity": 95}, {"time": 129610, "pitch": 66, "duration": 240, "velocity": 100}, {"time": 129840, "pitch": 50, "duration": 240, "velocity": 100}, {"time": 129840, "pitch": 57, "duration": 240, "velocity": 90}, {"time": 129850, "pitch": 62, "duration": 240, "velocity": 85}, {"time": 129850, "pitch": 66, "duration": 240, "velocity": 100}, {"time": 130080, "pitch": 50, "duration": 240, "velocity": 110}, {"time": 130080, "pitch": 57, "duration": 240, "velocity": 100}, {"time": 130090, "pitch": 62, "duration": 240, "velocity": 95}, {"time": 130090, "pitch": 66, "duration": 240, "velocity": 100}, {"time": 130320, "pitch": 50, "duration": 240, "velocity": 100}, {"time": 130320, "pitch": 57, "duration": 240, "velocity": 90}, {"time": 130330, "pitch": 62, "duration": 240, "velocity": 85}, {"time": 130330, "pitch": 66, "duration": 240, "velocity": 100}, {"time": 130560, "pitch": 50, "duration": 240, "velocity": 105}, {"time": 130560, "pitch": 57, "duration": 240, "velocity": 95}, {"time": 130570, "pitch": 62, "duration": 240, "velocity": 90}, {"time": 130570, "pitch": 66, "duration": 240, "velocity": 95}, {"time": 130800, "pitch": 49, "duration": 480, "velocity": 110}, {"time": 130800, "pitch": 56, "duration": 480, "velocity": 100}, {"time": 130810, "pitch": 61, "duration": 470, "velocity": 95}, {"time": 130810, "pitch": 64, "duration": 470, "velocity": 110}, {"time": 131280, "pitch": 49, "duration": 240, "velocity": 100}, {"time": 131280, "pitch": 56, "duration": 240, "velocity": 90}, {"time": 131290, "pitch": 61, "duration": 240, "velocity": 85}, {"time": 131290, "pitch": 64, "duration": 240, "velocity": 100}, {"time": 131520, "pitch": 49, "duration": 240, "velocity": 110}, {"time": 131520, "pitch": 56, "duration": 240, "velocity": 100}, {"time": 131530, "pitch": 61, "duration": 240, "velocity": 95}, {"time": 131530, "pitch": 64, "duration": 240, "velocity": 110}, {"time": 131760, "pitch": 49, "duration": 1200, "velocity": 100}, {"time": 131760, "pitch": 56, "duration": 1200, "velocity": 90}, {"time": 131770, "pitch": 61, "duration": 240, "velocity": 85}, {"time": 131770, "pitch": 64, "duration": 240, "velocity": 100}, {"time": 132000, "pitch": 63, "duration": 240, "velocity": 110}, {"time": 132240, "pitch": 64, "duration": 240, "velocity": 105}, {"time": 132480, "pitch": 61, "duration": 480, "velocity": 110}, {"time": 132960, "pitch": 44, "duration": 240, "velocity": 110}, {"time": 132960, "pitch": 51, "duration": 240, "velocity": 100}, {"time": 132970, "pitch": 56, "duration": 240, "velocity": 90}, {"time": 133200, "pitch": 44, "duration": 240, "velocity": 100}, {"time": 133200, "pitch": 51, "duration": 240, "velocity": 90}, {"time": 133210, "pitch": 56, "duration": 240, "velocity": 80}, {"time": 133440, "pitch": 44, "duration": 1200, "velocity": 110}, {"time": 133440, "pitch": 51, "duration": 1200, "velocity": 100}, {"time": 133450, "pitch": 56, "duration": 1190, "velocity": 90}, {"time": 133680, "pitch": 59, "duration": 480, "velocity": 85}, {"time": 133680, "pitch": 63, "duration": 480, "velocity": 95}, {"time": 133690, "pitch": 68, "duration": 480, "velocity": 105}, {"time": 134160, "pitch": 63, "duration": 240, "velocity": 110}, {"time": 134400, "pitch": 64, "duration": 240, "velocity": 105}, {"time": 134640, "pitch": 49, "duration": 240, "velocity": 90}, {"time": 134640, "pitch": 56, "duration": 240, "velocity": 95}, {"time": 134650, "pitch": 61, "duration": 230, "velocity": 110}, {"time": 134880, "pitch": 49, "duration": 60, "velocity": 90}, {"time": 134890, "pitch": 56, "duration": 60, "velocity": 80}, {"time": 135120, "pitch": 59, "duration": 240, "velocity": 105}, {"time": 135120, "pitch": 64, "duration": 240, "velocity": 85}, {"time": 135130, "pitch": 68, "duration": 240, "velocity": 95}, {"time": 135360, "pitch": 59, "duration": 240, "velocity": 110}, {"time": 135360, "pitch": 64, "duration": 240, "velocity": 90}, {"time": 135370, "pitch": 68, "duration": 240, "velocity": 100}, {"time": 135600, "pitch": 56, "duration": 240, "velocity": 100}, {"time": 135840, "pitch": 59, "duration": 240, "velocity": 110}, {"time": 135840, "pitch": 64, "duration": 240, "velocity": 100}, {"time": 135850, "pitch": 68, "duration": 240, "velocity": 90}, {"time": 136080, "pitch": 59, "duration": 240, "velocity": 105}, {"time": 136080, "pitch": 64, "duration": 240, "velocity": 95}, {"time": 136090, "pitch": 68, "duration": 240, "velocity": 85}, {"time": 136320, "pitch": 56, "duration": 240, "velocity": 110}, {"time": 136560, "pitch": 49, "duration": 240, "velocity": 90}, {"time": 136800, "pitch": 54, "duration": 240, "velocity": 110}, {"time": 136800, "pitch": 61, "duration": 240, "velocity": 100}, {"time": 136810, "pitch": 66, "duration": 240, "velocity": 70}, {"time": 137040, "pitch": 54, "duration": 240, "velocity": 100}, {"time": 137040, "pitch": 61, "duration": 240, "velocity": 90}, {"time": 137050, "pitch": 66, "duration": 240, "velocity": 60}, {"time": 137280, "pitch": 54, "duration": 240, "velocity": 105}, {"time": 137280, "pitch": 61, "duration": 240, "velocity": 95}, {"time": 137290, "pitch": 66, "duration": 240, "velocity": 65}, {"time": 137520, "pitch": 54, "duration": 480, "velocity": 100}, {"time": 137520, "pitch": 61, "duration": 480, "velocity": 90}, {"time": 137530, "pitch": 66, "duration": 950, "velocity": 110}, {"time": 138000, "pitch": 54, "duration": 240, "velocity": 100}, {"time": 138010, "pitch": 61, "duration": 240, "velocity": 90}, {"time": 138240, "pitch": 54, "duration": 240, "velocity": 90}, {"time": 138250, "pitch": 61, "duration": 230, "velocity": 80}, {"time": 138480, "pitch": 47, "duration": 480, "velocity": 110}, {"time": 138480, "pitch": 54, "duration": 480, "velocity": 100}, {"time": 138490, "pitch": 59, "duration": 470, "velocity": 90}, {"time": 138960, "pitch": 47, "duration": 240, "velocity": 100}, {"time": 138960, "pitch": 54, "duration": 240, "velocity": 90}, {"time": 138970, "pitch": 59, "duration": 240, "velocity": 80}, {"time": 139200, "pitch": 47, "duration": 240, "velocity": 110}, {"time": 139200, "pitch": 54, "duration": 240, "velocity": 100}, {"time": 139210, "pitch": 59, "duration": 240, "velocity": 90}, {"time": 139210, "pitch": 63, "duration": 240, "velocity": 95}, {"time": 139440, "pitch": 47, "duration": 240, "velocity": 105}, {"time": 139440, "pitch": 54, "duration": 240, "velocity": 95}, {"time": 139450, "pitch": 59, "duration": 240, "velocity": 85}, {"time": 139450, "pitch": 63, "duration": 240, "velocity": 90}, {"time": 139680, "pitch": 47, "duration": 240, "velocity": 110}, {"time": 139680, "pitch": 54, "duration": 240, "velocity": 100}, {"time": 139690, "pitch": 59, "duration": 240, "velocity": 90}, {"time": 139690, "pitch": 63, "duration": 240, "velocity": 95}, {"time": 139920, "pitch": 47, "duration": 240, "velocity": 105}, {"time": 139920, "pitch": 54, "duration": 240, "velocity": 95}, {"time": 139930, "pitch": 59, "duration": 240, "velocity": 85}, {"time": 139930, "pitch": 63, "duration": 240, "velocity": 90}, {"time": 140160, "pitch": 47, "duration": 240, "velocity": 110}, {"time": 140160, "pitch": 54, "duration": 240, "velocity": 100}, {"time": 140170, "pitch": 59, "duration": 230, "velocity": 90}, {"time": 140170, "pitch": 63, "duration": 240, "velocity": 95}, {"time": 140400, "pitch": 52, "duration": 480, "velocity": 110}, {"time": 140400, "pitch": 59, "duration": 480, "velocity": 100}, {"time": 140410, "pitch": 64, "duration": 470, "velocity": 95}, {"time": 140410, "pitch": 68, "duration": 470, "velocity": 100}, {"time": 140880, "pitch": 52, "duration": 240, "velocity": 100}, {"time": 140880, "pitch": 59, "duration": 240, "velocity": 90}, {"time": 140890, "pitch": 64, "duration": 240, "velocity": 85}, {"time": 140890, "pitch": 68, "duration": 240, "velocity": 90}, {"time": 141120, "pitch": 52, "duration": 240, "velocity": 110}, {"time": 141120, "pitch": 59, "duration": 240, "velocity": 100}, {"time": 141130, "pitch": 64, "duration": 240, "velocity": 95}, {"time": 141130, "pitch": 68, "duration": 240, "velocity": 100}, {"time": 141360, "pitch": 52, "duration": 240, "velocity": 100}, {"time": 141360, "pitch": 59, "duration": 240, "velocity": 90}, {"time": 141370, "pitch": 64, "duration": 240, "velocity": 85}, {"time": 141370, "pitch": 68, "duration": 240, "velocity": 90}, {"time": 141600, "pitch": 52, "duration": 240, "velocity": 110}, {"time": 141600, "pitch": 59, "duration": 240, "velocity": 100}, {"time": 141610, "pitch": 64, "duration": 240, "velocity": 95}, {"time": 141610, "pitch": 68, "duration": 240, "velocity": 100}, {"time": 141840, "pitch": 52, "duration": 240, "velocity": 100}, {"time": 141840, "pitch": 59, "duration": 240, "velocity": 90}, {"time": 141850, "pitch": 64, "duration": 240, "velocity": 85}, {"time": 141850, "pitch": 68, "duration": 240, "velocity": 90}, {"time": 142080, "pitch": 52, "duration": 240, "velocity": 110}, {"time": 142080, "pitch": 59, "duration": 240, "velocity": 100}, {"time": 142090, "pitch": 64, "duration": 240, "velocity": 95}, {"time": 142090, "pitch": 68, "duration": 240, "velocity": 100}, {"time": 142320, "pitch": 52, "duration": 240, "velocity": 100}, {"time": 142320, "pitch": 57, "duration": 230, "velocity": 90}, {"time": 142330, "pitch": 62, "duration": 230, "velocity": 85}, {"time": 142560, "pitch": 52, "duration": 240, "velocity": 110}, {"time": 142560, "pitch": 59, "duration": 240, "velocity": 100}, {"time": 142570, "pitch": 62, "duration": 240, "velocity": 95}, {"time": 142570, "pitch": 66, "duration": 240, "velocity": 100}, {"time": 142800, "pitch": 52, "duration": 240, "velocity": 100}, {"time": 142800, "pitch": 59, "duration": 240, "velocity": 90}, {"time": 142810, "pitch": 62, "duration": 240, "velocity": 85}, {"time": 142810, "pitch": 66, "duration": 240, "velocity": 90}, {"time": 143040, "pitch": 52, "duration": 240, "velocity": 110}, {"time": 143040, "pitch": 59, "duration": 240, "velocity": 100}, {"time": 143050, "pitch": 62, "duration": 240, "velocity": 95}, {"time": 143050, "pitch": 66, "duration": 240, "velocity": 100}, {"time": 143280, "pitch": 52, "duration": 240, "velocity": 100}, {"time": 143280, "pitch": 59, "duration": 240, "velocity": 90}, {"time": 143290, "pitch": 62, "duration": 240, "velocity": 85}, {"time": 143290, "pitch": 66, "duration": 240, "velocity": 90}, {"time": 143520, "pitch": 52, "duration": 240, "velocity": 110}, {"time": 143520, "pitch": 59, "duration": 240, "velocity": 100}, {"time": 143530, "pitch": 62, "duration": 240, "velocity": 95}, {"time": 143530, "pitch": 66, "duration": 240, "velocity": 100}, {"time": 143760, "pitch": 52, "duration": 240, "velocity": 100}, {"time": 143760, "pitch": 59, "duration": 240, "velocity": 90}, {"time": 143770, "pitch": 62, "duration": 240, "velocity": 85}, {"time": 143770, "pitch": 66, "duration": 240, "velocity": 90}, {"time": 144000, "pitch": 52, "duration": 480, "velocity": 110}, {"time": 144000, "pitch": 57, "duration": 240, "velocity": 100}, {"time": 144010, "pitch": 62, "duration": 350, "velocity": 95}, {"time": 144010, "pitch": 66, "duration": 470, "velocity": 100}, {"time": 144240, "pitch": 57, "duration": 240, "velocity": 100}, {"time": 144360, "pitch": 62, "duration": 120, "velocity": 95}, {"time": 144480, "pitch": 50, "duration": 240, "velocity": 110}, {"time": 144480, "pitch": 57, "duration": 240, "velocity": 100}, {"time": 144490, "pitch": 62, "duration": 240, "velocity": 95}, {"time": 144490, "pitch": 66, "duration": 240, "velocity": 100}, {"time": 144720, "pitch": 50, "duration": 240, "velocity": 100}, {"time": 144720, "pitch": 57, "duration": 240, "velocity": 90}, {"time": 144730, "pitch": 62, "duration": 240, "velocity": 85}, {"time": 144730, "pitch": 66, "duration": 240, "velocity": 100}, {"time": 144960, "pitch": 50, "duration": 240, "velocity": 110}, {"time": 144960, "pitch": 57, "duration": 240, "velocity": 100}, {"time": 144970, "pitch": 62, "duration": 240, "velocity": 95}, {"time": 144970, "pitch": 66, "duration": 240, "velocity": 100}, {"time": 145200, "pitch": 50, "duration": 240, "velocity": 100}, {"time": 145200, "pitch": 57, "duration": 240, "velocity": 90}, {"time": 145210, "pitch": 62, "duration": 240, "velocity": 85}, {"time": 145210, "pitch": 66, "duration": 240, "velocity": 100}, {"time": 145440, "pitch": 50, "duration": 240, "velocity": 110}, {"time": 145440, "pitch": 57, "duration": 240, "velocity": 100}, {"time": 145450, "pitch": 62, "duration": 240, "velocity": 95}, {"time": 145450, "pitch": 66, "duration": 240, "velocity": 100}, {"time": 145680, "pitch": 50, "duration": 240, "velocity": 100}, {"time": 145680, "pitch": 57, "duration": 240, "velocity": 90}, {"time": 145690, "pitch": 62, "duration": 240, "velocity": 85}, {"time": 145690, "pitch": 66, "duration": 240, "velocity": 100}, {"time": 145920, "pitch": 50, "duration": 240, "velocity": 105}, {"time": 145920, "pitch": 57, "duration": 240, "velocity": 95}, {"time": 145930, "pitch": 62, "duration": 240, "velocity": 90}, {"time": 145930, "pitch": 66, "duration": 240, "velocity": 95}, {"time": 146160, "pitch": 49, "duration": 480, "velocity": 110}, {"time": 146160, "pitch": 56, "duration": 480, "velocity": 100}, {"time": 146170, "pitch": 61, "duration": 470, "velocity": 95}, {"time": 146170, "pitch": 64, "duration": 470, "velocity": 110}, {"time": 146640, "pitch": 49, "duration": 240, "velocity": 100}, {"time": 146640, "pitch": 56, "duration": 240, "velocity": 90}, {"time": 146650, "pitch": 61, "duration": 240, "velocity": 85}, {"time": 146650, "pitch": 64, "duration": 240, "velocity": 100}, {"time": 146880, "pitch": 49, "duration": 240, "velocity": 110}, {"time": 146880, "pitch": 56, "duration": 240, "velocity": 100}, {"time": 146890, "pitch": 61, "duration": 240, "velocity": 95}, {"time": 146890, "pitch": 64, "duration": 240, "velocity": 110}, {"time": 147120, "pitch": 49, "duration": 240, "velocity": 100}, {"time": 147120, "pitch": 56, "duration": 240, "velocity": 90}, {"time": 147130, "pitch": 63, "duration": 480, "velocity": 110}, {"time": 147360, "pitch": 49, "duration": 240, "velocity": 100}, {"time": 147370, "pitch": 56, "duration": 230, "velocity": 90}, {"time": 147600, "pitch": 49, "duration": 240, "velocity": 90}, {"time": 147600, "pitch": 56, "duration": 240, "velocity": 80}, {"time": 147610, "pitch": 64, "duration": 240, "velocity": 105}, {"time": 147840, "pitch": 49, "duration": 240, "velocity": 100}, {"time": 147840, "pitch": 56, "duration": 240, "velocity": 90}, {"time": 147850, "pitch": 61, "duration": 470, "velocity": 110}, {"time": 148080, "pitch": 49, "duration": 240, "velocity": 90}, {"time": 148090, "pitch": 56, "duration": 230, "velocity": 80}, {"time": 148320, "pitch": 44, "duration": 240, "velocity": 110}, {"time": 148320, "pitch": 51, "duration": 240, "velocity": 100}, {"time": 148330, "pitch": 56, "duration": 240, "velocity": 90}, {"time": 148560, "pitch": 44, "duration": 240, "velocity": 100}, {"time": 148560, "pitch": 51, "duration": 240, "velocity": 90}, {"time": 148570, "pitch": 56, "duration": 240, "velocity": 80}, {"time": 148800, "pitch": 44, "duration": 1200, "velocity": 110}, {"time": 148800, "pitch": 51, "duration": 1200, "velocity": 100}, {"time": 148810, "pitch": 56, "duration": 1190, "velocity": 90}, {"time": 149040, "pitch": 59, "duration": 480, "velocity": 85}, {"time": 149040, "pitch": 63, "duration": 480, "velocity": 95}, {"time": 149050, "pitch": 68, "duration": 480, "velocity": 105}, {"time": 149520, "pitch": 63, "duration": 240, "velocity": 110}, {"time": 149760, "pitch": 64, "duration": 240, "velocity": 105}, {"time": 150000, "pitch": 49, "duration": 240, "velocity": 90}, {"time": 150000, "pitch": 56, "duration": 240, "velocity": 95}, {"time": 150010, "pitch": 61, "duration": 230, "velocity": 110}, {"time": 150240, "pitch": 49, "duration": 60, "velocity": 90}, {"time": 150250, "pitch": 56, "duration": 60, "velocity": 80}, {"time": 150480, "pitch": 59, "duration": 240, "velocity": 105}, {"time": 150480, "pitch": 64, "duration": 240, "velocity": 85}, {"time": 150490, "pitch": 68, "duration": 240, "velocity": 95}, {"time": 150720, "pitch": 59, "duration": 240, "velocity": 110}, {"time": 150720, "pitch": 64, "duration": 240, "velocity": 90}, {"time": 150730, "pitch": 68, "duration": 240, "velocity": 100}, {"time": 150960, "pitch": 56, "duration": 240, "velocity": 100}, {"time": 151200, "pitch": 59, "duration": 240, "velocity": 110}, {"time": 151200, "pitch": 64, "duration": 240, "velocity": 100}, {"time": 151210, "pitch": 68, "duration": 240, "velocity": 90}, {"time": 151440, "pitch": 59, "duration": 240, "velocity": 105}, {"time": 151440, "pitch": 64, "duration": 240, "velocity": 95}, {"time": 151450, "pitch": 68, "duration": 240, "velocity": 85}, {"time": 151680, "pitch": 56, "duration": 240, "velocity": 110}, {"time": 151920, "pitch": 49, "duration": 240, "velocity": 90}, {"time": 152160, "pitch": 54, "duration": 240, "velocity": 110}, {"time": 152160, "pitch": 61, "duration": 240, "velocity": 100}, {"time": 152170, "pitch": 66, "duration": 240, "velocity": 70}, {"time": 152400, "pitch": 54, "duration": 240, "velocity": 100}, {"time": 152400, "pitch": 61, "duration": 240, "velocity": 90}, {"time": 152410, "pitch": 66, "duration": 240, "velocity": 60}, {"time": 152640, "pitch": 54, "duration": 240, "velocity": 110}, {"time": 152640, "pitch": 61, "duration": 240, "velocity": 100}, {"time": 152650, "pitch": 66, "duration": 240, "velocity": 70}, {"time": 152880, "pitch": 54, "duration": 240, "velocity": 100}, {"time": 152880, "pitch": 61, "duration": 240, "velocity": 90}, {"time": 152890, "pitch": 66, "duration": 240, "velocity": 60}, {"time": 153120, "pitch": 47, "duration": 240, "velocity": 110}, {"time": 153120, "pitch": 54, "duration": 240, "velocity": 100}, {"time": 153130, "pitch": 59, "duration": 240, "velocity": 90}, {"time": 153360, "pitch": 47, "duration": 240, "velocity": 100}, {"time": 153360, "pitch": 54, "duration": 240, "velocity": 90}, {"time": 153370, "pitch": 59, "duration": 240, "velocity": 80}, {"time": 153600, "pitch": 47, "duration": 240, "velocity": 105}, {"time": 153600, "pitch": 54, "duration": 240, "velocity": 95}, {"time": 153610, "pitch": 59, "duration": 230, "velocity": 85}, {"time": 153840, "pitch": 52, "duration": 1920, "velocity": 110}, {"time": 153840, "pitch": 59, "duration": 1920, "velocity": 100}, {"time": 153850, "pitch": 64, "duration": 1910, "velocity": 90}, {"time": 153850, "pitch": 68, "duration": 1910, "velocity": 100}, {"time": 155760, "pitch": 52, "duration": 1200, "velocity": 110}, {"time": 155760, "pitch": 59, "duration": 480, "velocity": 100}, {"time": 155770, "pitch": 64, "duration": 470, "velocity": 90}, {"time": 155770, "pitch": 69, "duration": 1190, "velocity": 100}, {"time": 156240, "pitch": 59, "duration": 240, "velocity": 80}, {"time": 156250, "pitch": 62, "duration": 240, "velocity": 105}, {"time": 156480, "pitch": 59, "duration": 240, "velocity": 80}, {"time": 156490, "pitch": 64, "duration": 240, "velocity": 110}, {"time": 156720, "pitch": 59, "duration": 240, "velocity": 100}, {"time": 156960, "pitch": 52, "duration": 240, "velocity": 110}, {"time": 156960, "pitch": 57, "duration": 240, "velocity": 80}, {"time": 156970, "pitch": 64, "duration": 240, "velocity": 90}, {"time": 156970, "pitch": 69, "duration": 240, "velocity": 100}, {"time": 157200, "pitch": 52, "duration": 480, "velocity": 110}, {"time": 157200, "pitch": 59, "duration": 480, "velocity": 100}, {"time": 157210, "pitch": 64, "duration": 480, "velocity": 90}, {"time": 157210, "pitch": 68, "duration": 480, "velocity": 100}, {"time": 157680, "pitch": 52, "duration": 60, "velocity": 100}, {"time": 157680, "pitch": 59, "duration": 60, "velocity": 90}, {"time": 157690, "pitch": 64, "duration": 60, "velocity": 80}, {"time": 157690, "pitch": 68, "duration": 60, "velocity": 90}, {"time": 165600, "pitch": 59, "duration": 200, "velocity": 110}, {"time": 165610, "pitch": 68, "duration": 200, "velocity": 100}, {"time": 165960, "pitch": 59, "duration": 200, "velocity": 110}, {"time": 165970, "pitch": 68, "duration": 200, "velocity": 100}, {"time": 166320, "pitch": 59, "duration": 240, "velocity": 105}, {"time": 166330, "pitch": 68, "duration": 240, "velocity": 95}, {"time": 169200, "pitch": 42, "duration": 240, "velocity": 70}, {"time": 169440, "pitch": 55, "duration": 3120, "velocity": 110}, {"time": 169450, "pitch": 64, "duration": 3110, "velocity": 100}, {"time": 172560, "pitch": 57, "duration": 240, "velocity": 95}, {"time": 172800, "pitch": 69, "duration": 480, "velocity": 100}, {"time": 173280, "pitch": 43, "duration": 240, "velocity": 110}, {"time": 173290, "pitch": 50, "duration": 240, "velocity": 100}, {"time": 173520, "pitch": 43, "duration": 240, "velocity": 100}, {"time": 173530, "pitch": 50, "duration": 240, "velocity": 90}, {"time": 173760, "pitch": 43, "duration": 240, "velocity": 110}, {"time": 173770, "pitch": 50, "duration": 240, "velocity": 100}, {"time": 174000, "pitch": 43, "duration": 240, "velocity": 100}, {"time": 174010, "pitch": 50, "duration": 240, "velocity": 90}, {"time": 174240, "pitch": 43, "duration": 240, "velocity": 110}, {"time": 174250, "pitch": 50, "duration": 240, "velocity": 100}, {"time": 174480, "pitch": 43, "duration": 240, "velocity": 100}, {"time": 174490, "pitch": 50, "duration": 240, "velocity": 90}, {"time": 174720, "pitch": 43, "duration": 240, "velocity": 110}, {"time": 174730, "pitch": 50, "duration": 240, "velocity": 100}, {"time": 174960, "pitch": 43, "duration": 240, "velocity": 100}, {"time": 174970, "pitch": 50, "duration": 230, "velocity": 90}, {"time": 175200, "pitch": 45, "duration": 240, "velocity": 110}, {"time": 175210, "pitch": 52, "duration": 240, "velocity": 100}, {"time": 175440, "pitch": 45, "duration": 240, "velocity": 100}, {"time": 175450, "pitch": 52, "duration": 240, "velocity": 90}, {"time": 175680, "pitch": 45, "duration": 240, "velocity": 110}, {"time": 175690, "pitch": 52, "duration": 240, "velocity": 100}, {"time": 175920, "pitch": 45, "duration": 240, "velocity": 100}, {"time": 175930, "pitch": 52, "duration": 240, "velocity": 90}, {"time": 176160, "pitch": 45, "duration": 240, "velocity": 110}, {"time": 176170, "pitch": 52, "duration": 240, "velocity": 100}, {"time": 176400, "pitch": 45, "duration": 240, "velocity": 100}, {"time": 176410, "pitch": 52, "duration": 240, "velocity": 90}, {"time": 176640, "pitch": 45, "duration": 240, "velocity": 110}, {"time": 176650, "pitch": 52, "duration": 240, "velocity": 100}, {"time": 176880, "pitch": 45, "duration": 240, "velocity": 100}, {"time": 176890, "pitch": 52, "duration": 230, "velocity": 90}, {"time": 177120, "pitch": 52, "duration": 240, "velocity": 110}, {"time": 177130, "pitch": 59, "duration": 240, "velocity": 100}, {"time": 177360, "pitch": 52, "duration": 480, "velocity": 100}, {"time": 177370, "pitch": 59, "duration": 230, "velocity": 90}, {"time": 177600, "pitch": 59, "duration": 240, "velocity": 110}, {"time": 177600, "pitch": 64, "duration": 240, "velocity": 100}, {"time": 177610, "pitch": 68, "duration": 240, "velocity": 80}, {"time": 177840, "pitch": 52, "duration": 60, "velocity": 90}, {"time": 177850, "pitch": 59, "duration": 60, "velocity": 80}, {"time": 178080, "pitch": 52, "duration": 480, "velocity": 100}, {"time": 178090, "pitch": 59, "duration": 230, "velocity": 90}, {"time": 178320, "pitch": 59, "duration": 240, "velocity": 110}, {"time": 178320, "pitch": 64, "duration": 240, "velocity": 100}, {"time": 178330, "pitch": 68, "duration": 240, "velocity": 80}, {"time": 178560, "pitch": 52, "duration": 60, "velocity": 95}, {"time": 178570, "pitch": 59, "duration": 60, "velocity": 85}, {"time": 178800, "pitch": 52, "duration": 60, "velocity": 100}, {"time": 178810, "pitch": 59, "duration": 60, "velocity": 90}, {"time": 179040, "pitch": 52, "duration": 240, "velocity": 70}, {"time": 179050, "pitch": 59, "duration": 240, "velocity": 110}, {"time": 179280, "pitch": 52, "duration": 240, "velocity": 100}, {"time": 179290, "pitch": 59, "duration": 230, "velocity": 60}, {"time": 179520, "pitch": 52, "duration": 240, "velocity": 100}, {"time": 179520, "pitch": 59, "duration": 240, "velocity": 110}, {"time": 179530, "pitch": 64, "duration": 240, "velocity": 90}, {"time": 179530, "pitch": 68, "duration": 240, "velocity": 80}, {"time": 179760, "pitch": 52, "duration": 240, "velocity": 100}, {"time": 179770, "pitch": 59, "duration": 230, "velocity": 90}, {"time": 180000, "pitch": 59, "duration": 240, "velocity": 110}, {"time": 180000, "pitch": 64, "duration": 240, "velocity": 100}, {"time": 180010, "pitch": 68, "duration": 240, "velocity": 70}, {"time": 180240, "pitch": 59, "duration": 240, "velocity": 105}, {"time": 180240, "pitch": 64, "duration": 240, "velocity": 95}, {"time": 180250, "pitch": 68, "duration": 230, "velocity": 65}, {"time": 180480, "pitch": 62, "duration": 240, "velocity": 110}, {"time": 180720, "pitch": 59, "duration": 240, "velocity": 105}, {"time": 180960, "pitch": 43, "duration": 240, "velocity": 110}, {"time": 180970, "pitch": 50, "duration": 240, "velocity": 100}, {"time": 181200, "pitch": 43, "duration": 240, "velocity": 100}, {"time": 181210, "pitch": 50, "duration": 240, "velocity": 90}, {"time": 181440, "pitch": 43, "duration": 240, "velocity": 110}, {"time": 181450, "pitch": 50, "duration": 240, "velocity": 100}, {"time": 181680, "pitch": 43, "duration": 240, "velocity": 100}, {"time": 181690, "pitch": 50, "duration": 240, "velocity": 90}, {"time": 181920, "pitch": 43, "duration": 240, "velocity": 110}, {"time": 181930, "pitch": 50, "duration": 240, "velocity": 100}, {"time": 182160, "pitch": 43, "duration": 240, "velocity": 100}, {"time": 182170, "pitch": 50, "duration": 240, "velocity": 90}, {"time": 182400, "pitch": 43, "duration": 240, "velocity": 110}, {"time": 182410, "pitch": 50, "duration": 240, "velocity": 100}, {"time": 182640, "pitch": 43, "duration": 240, "velocity": 100}, {"time": 182650, "pitch": 50, "duration": 230, "velocity": 90}, {"time": 182880, "pitch": 45, "duration": 240, "velocity": 110}, {"time": 182890, "pitch": 52, "duration": 240, "velocity": 100}, {"time": 183120, "pitch": 45, "duration": 240, "velocity": 100}, {"time": 183130, "pitch": 52, "duration": 240, "velocity": 90}, {"time": 183360, "pitch": 45, "duration": 240, "velocity": 110}, {"time": 183370, "pitch": 52, "duration": 240, "velocity": 100}, {"time": 183600, "pitch": 45, "duration": 240, "velocity": 100}, {"time": 183610, "pitch": 52, "duration": 240, "velocity": 90}, {"time": 183840, "pitch": 45, "duration": 240, "velocity": 110}, {"time": 183850, "pitch": 52, "duration": 240, "velocity": 100}, {"time": 184080, "pitch": 45, "duration": 240, "velocity": 100}, {"time": 184090, "pitch": 52, "duration": 240, "velocity": 90}, {"time": 184320, "pitch": 45, "duration": 240, "velocity": 110}, {"time": 184330, "pitch": 52, "duration": 240, "velocity": 100}, {"time": 184560, "pitch": 45, "duration": 240, "velocity": 100}, {"time": 184570, "pitch": 52, "duration": 230, "velocity": 90}, {"time": 184800, "pitch": 47, "duration": 240, "velocity": 110}, {"time": 184800, "pitch": 54, "duration": 240, "velocity": 100}, {"time": 184810, "pitch": 59, "duration": 240, "velocity": 90}, {"time": 184810, "pitch": 63, "duration": 240, "velocity": 100}, {"time": 184810, "pitch": 66, "duration": 240, "velocity": 90}, {"time": 185040, "pitch": 47, "duration": 240, "velocity": 105}, {"time": 185040, "pitch": 54, "duration": 240, "velocity": 95}, {"time": 185050, "pitch": 59, "duration": 240, "velocity": 85}, {"time": 185050, "pitch": 63, "duration": 240, "velocity": 95}, {"time": 185050, "pitch": 66, "duration": 240, "velocity": 85}, {"time": 185280, "pitch": 47, "duration": 240, "velocity": 110}, {"time": 185280, "pitch": 54, "duration": 240, "velocity": 100}, {"time": 185290, "pitch": 59, "duration": 240, "velocity": 90}, {"time": 185290, "pitch": 63, "duration": 240, "velocity": 100}, {"time": 185290, "pitch": 66, "duration": 240, "velocity": 90}, {"time": 185520, "pitch": 47, "duration": 60, "velocity": 95}, {"time": 185520, "pitch": 54, "duration": 60, "velocity": 85}, {"time": 185530, "pitch": 59, "duration": 60, "velocity": 75}, {"time": 185760, "pitch": 47, "duration": 240, "velocity": 100}, {"time": 185760, "pitch": 54, "duration": 240, "velocity": 90}, {"time": 185770, "pitch": 59, "duration": 240, "velocity": 80}, {"time": 185770, "pitch": 66, "duration": 240, "velocity": 70}, {"time": 186000, "pitch": 47, "duration": 240, "velocity": 110}, {"time": 186000, "pitch": 54, "duration": 240, "velocity": 100}, {"time": 186010, "pitch": 59, "duration": 240, "velocity": 90}, {"time": 186010, "pitch": 66, "duration": 240, "velocity": 100}, {"time": 186240, "pitch": 47, "duration": 240, "velocity": 100}, {"time": 186240, "pitch": 54, "duration": 240, "velocity": 90}, {"time": 186250, "pitch": 59, "duration": 240, "velocity": 80}, {"time": 186250, "pitch": 67, "duration": 240, "velocity": 90}, {"time": 186480, "pitch": 47, "duration": 240, "velocity": 105}, {"time": 186480, "pitch": 54, "duration": 240, "velocity": 95}, {"time": 186490, "pitch": 59, "duration": 230, "velocity": 85}, {"time": 186490, "pitch": 66, "duration": 230, "velocity": 95}, {"time": 186720, "pitch": 47, "duration": 240, "velocity": 110}, {"time": 186720, "pitch": 54, "duration": 240, "velocity": 100}, {"time": 186730, "pitch": 59, "duration": 240, "velocity": 90}, {"time": 186730, "pitch": 66, "duration": 240, "velocity": 100}, {"time": 188400, "pitch": 52, "duration": 480, "velocity": 110}, {"time": 188400, "pitch": 59, "duration": 480, "velocity": 100}, {"time": 188410, "pitch": 64, "duration": 470, "velocity": 95}, {"time": 188410, "pitch": 68, "duration": 470, "velocity": 100}, {"time": 188880, "pitch": 52, "duration": 240, "velocity": 100}, {"time": 188880, "pitch": 59, "duration": 240, "velocity": 90}, {"time": 188890, "pitch": 64, "duration": 240, "velocity": 85}, {"time": 188890, "pitch": 68, "duration": 240, "velocity": 90}, {"time": 189120, "pitch": 52, "duration": 240, "velocity": 110}, {"time": 189120, "pitch": 59, "duration": 240, "velocity": 100}, {"time": 189130, "pitch": 64, "duration": 240, "velocity": 95}, {"time": 189360, "pitch": 52, "duration": 240, "velocity": 100}, {"time": 189360, "pitch": 59, "duration": 240, "velocity": 90}, {"time": 189370, "pitch": 64, "duration": 240, "velocity": 85}, {"time": 189370, "pitch": 68, "duration": 240, "velocity": 90}, {"time": 189600, "pitch": 52, "duration": 240, "velocity": 110}, {"time": 189600, "pitch": 59, "duration": 240, "velocity": 100}, {"time": 189610, "pitch": 64, "duration": 240, "velocity": 95}, {"time": 189610, "pitch": 68, "duration": 240, "velocity": 100}, {"time": 189840, "pitch": 52, "duration": 240, "velocity": 100}, {"time": 189840, "pitch": 59, "duration": 240, "velocity": 90}, {"time": 189850, "pitch": 64, "duration": 240, "velocity": 85}, {"time": 190080, "pitch": 52, "duration": 240, "velocity": 110}, {"time": 190080, "pitch": 59, "duration": 240, "velocity": 100}, {"time": 190090, "pitch": 64, "duration": 240, "velocity": 95}, {"time": 190090, "pitch": 68, "duration": 240, "velocity": 100}, {"time": 190320, "pitch": 52, "duration": 240, "velocity": 100}, {"time": 190320, "pitch": 59, "duration": 230, "velocity": 90}, {"time": 190330, "pitch": 64, "duration": 230, "velocity": 85}, {"time": 190560, "pitch": 52, "duration": 240, "velocity": 110}, {"time": 190560, "pitch": 59, "duration": 240, "velocity": 100}, {"time": 190570, "pitch": 64, "duration": 240, "velocity": 95}, {"time": 190570, "pitch": 66, "duration": 240, "velocity": 100}, {"time": 190800, "pitch": 52, "duration": 240, "velocity": 100}, {"time": 190800, "pitch": 59, "duration": 240, "velocity": 90}, {"time": 190810, "pitch": 64, "duration": 240, "velocity": 85}, {"time": 190810, "pitch": 68, "duration": 240, "velocity": 100}, {"time": 191040, "pitch": 52, "duration": 240, "velocity": 110}, {"time": 191040, "pitch": 59, "duration": 240, "velocity": 100}, {"time": 191050, "pitch": 62, "duration": 240, "velocity": 95}, {"time": 191050, "pitch": 66, "duration": 240, "velocity": 100}, {"time": 191280, "pitch": 52, "duration": 240, "velocity": 100}, {"time": 191280, "pitch": 59, "duration": 240, "velocity": 90}, {"time": 191290, "pitch": 62, "duration": 240, "velocity": 85}, {"time": 191290, "pitch": 66, "duration": 240, "velocity": 90}, {"time": 191520, "pitch": 52, "duration": 240, "velocity": 110}, {"time": 191520, "pitch": 59, "duration": 240, "velocity": 100}, {"time": 191530, "pitch": 62, "duration": 240, "velocity": 95}, {"time": 191530, "pitch": 66, "duration": 240, "velocity": 100}, {"time": 191760, "pitch": 52, "duration": 240, "velocity": 100}, {"time": 191760, "pitch": 59, "duration": 240, "velocity": 90}, {"time": 191770, "pitch": 62, "duration": 240, "velocity": 85}, {"time": 191770, "pitch": 66, "duration": 240, "velocity": 90}, {"time": 192000, "pitch": 52, "duration": 480, "velocity": 110}, {"time": 192000, "pitch": 57, "duration": 480, "velocity": 100}, {"time": 192010, "pitch": 62, "duration": 470, "velocity": 95}, {"time": 192010, "pitch": 66, "duration": 470, "velocity": 100}, {"time": 192480, "pitch": 50, "duration": 240, "velocity": 110}, {"time": 192480, "pitch": 57, "duration": 240, "velocity": 100}, {"time": 192490, "pitch": 62, "duration": 240, "velocity": 95}, {"time": 192490, "pitch": 66, "duration": 240, "velocity": 100}, {"time": 192720, "pitch": 50, "duration": 240, "velocity": 100}, {"time": 192720, "pitch": 57, "duration": 240, "velocity": 90}, {"time": 192730, "pitch": 62, "duration": 240, "velocity": 85}, {"time": 192730, "pitch": 66, "duration": 240, "velocity": 100}, {"time": 192960, "pitch": 50, "duration": 240, "velocity": 110}, {"time": 192960, "pitch": 57, "duration": 240, "velocity": 100}, {"time": 192970, "pitch": 62, "duration": 240, "velocity": 95}, {"time": 192970, "pitch": 66, "duration": 240, "velocity": 100}, {"time": 193200, "pitch": 50, "duration": 240, "velocity": 100}, {"time": 193200, "pitch": 57, "duration": 240, "velocity": 90}, {"time": 193210, "pitch": 62, "duration": 240, "velocity": 85}, {"time": 193210, "pitch": 66, "duration": 240, "velocity": 100}, {"time": 193440, "pitch": 50, "duration": 240, "velocity": 110}, {"time": 193440, "pitch": 57, "duration": 240, "velocity": 100}, {"time": 193450, "pitch": 62, "duration": 240, "velocity": 95}, {"time": 193450, "pitch": 66, "duration": 240, "velocity": 100}, {"time": 193680, "pitch": 50, "duration": 240, "velocity": 100}, {"time": 193680, "pitch": 57, "duration": 240, "velocity": 90}, {"time": 193690, "pitch": 62, "duration": 240, "velocity": 85}, {"time": 193690, "pitch": 66, "duration": 240, "velocity": 100}, {"time": 193920, "pitch": 50, "duration": 240, "velocity": 105}, {"time": 193920, "pitch": 57, "duration": 240, "velocity": 95}, {"time": 193930, "pitch": 62, "duration": 240, "velocity": 90}, {"time": 193930, "pitch": 66, "duration": 240, "velocity": 95}, {"time": 194160, "pitch": 49, "duration": 480, "velocity": 110}, {"time": 194160, "pitch": 56, "duration": 480, "velocity": 100}, {"time": 194170, "pitch": 61, "duration": 470, "velocity": 95}, {"time": 194170, "pitch": 64, "duration": 470, "velocity": 110}, {"time": 194640, "pitch": 49, "duration": 240, "velocity": 100}, {"time": 194640, "pitch": 56, "duration": 240, "velocity": 90}, {"time": 194650, "pitch": 61, "duration": 240, "velocity": 85}, {"time": 194650, "pitch": 64, "duration": 240, "velocity": 100}, {"time": 194880, "pitch": 49, "duration": 240, "velocity": 110}, {"time": 194880, "pitch": 56, "duration": 240, "velocity": 100}, {"time": 194890, "pitch": 61, "duration": 240, "velocity": 95}, {"time": 194890, "pitch": 64, "duration": 240, "velocity": 110}, {"time": 195120, "pitch": 49, "duration": 1200, "velocity": 100}, {"time": 195120, "pitch": 56, "duration": 1200, "velocity": 90}, {"time": 195130, "pitch": 61, "duration": 240, "velocity": 85}, {"time": 195130, "pitch": 64, "duration": 240, "velocity": 100}, {"time": 195360, "pitch": 63, "duration": 240, "velocity": 110}, {"time": 195600, "pitch": 64, "duration": 240, "velocity": 105}, {"time": 195840, "pitch": 61, "duration": 480, "velocity": 110}, {"time": 196320, "pitch": 44, "duration": 240, "velocity": 110}, {"time": 196320, "pitch": 51, "duration": 240, "velocity": 100}, {"time": 196330, "pitch": 56, "duration": 240, "velocity": 90}, {"time": 196560, "pitch": 44, "duration": 240, "velocity": 100}, {"time": 196560, "pitch": 51, "duration": 240, "velocity": 90}, {"time": 196570, "pitch": 56, "duration": 240, "velocity": 80}, {"time": 196800, "pitch": 44, "duration": 1200, "velocity": 110}, {"time": 196800, "pitch": 51, "duration": 1200, "velocity": 100}, {"time": 196810, "pitch": 56, "duration": 1190, "velocity": 90}, {"time": 197040, "pitch": 59, "duration": 480, "velocity": 85}, {"time": 197040, "pitch": 63, "duration": 480, "velocity": 95}, {"time": 197050, "pitch": 68, "duration": 480, "velocity": 105}, {"time": 197520, "pitch": 63, "duration": 240, "velocity": 110}, {"time": 197760, "pitch": 64, "duration": 240, "velocity": 105}, {"time": 198000, "pitch": 49, "duration": 240, "velocity": 90}, {"time": 198000, "pitch": 56, "duration": 240, "velocity": 95}, {"time": 198010, "pitch": 61, "duration": 230, "velocity": 110}, {"time": 198240, "pitch": 49, "duration": 60, "velocity": 90}, {"time": 198250, "pitch": 56, "duration": 60, "velocity": 80}, {"time": 198480, "pitch": 59, "duration": 240, "velocity": 105}, {"time": 198480, "pitch": 64, "duration": 240, "velocity": 85}, {"time": 198490, "pitch": 68, "duration": 240, "velocity": 95}, {"time": 198720, "pitch": 59, "duration": 240, "velocity": 110}, {"time": 198720, "pitch": 64, "duration": 240, "velocity": 90}, {"time": 198730, "pitch": 68, "duration": 240, "velocity": 100}, {"time": 198960, "pitch": 56, "duration": 240, "velocity": 100}, {"time": 199200, "pitch": 59, "duration": 240, "velocity": 110}, {"time": 199200, "pitch": 64, "duration": 240, "velocity": 100}, {"time": 199210, "pitch": 68, "duration": 240, "velocity": 90}, {"time": 199440, "pitch": 59, "duration": 240, "velocity": 105}, {"time": 199440, "pitch": 64, "duration": 240, "velocity": 95}, {"time": 199450, "pitch": 68, "duration": 240, "velocity": 85}, {"time": 199680, "pitch": 56, "duration": 240, "velocity": 110}, {"time": 199920, "pitch": 49, "duration": 240, "velocity": 90}, {"time": 200160, "pitch": 54, "duration": 240, "velocity": 110}, {"time": 200160, "pitch": 61, "duration": 240, "velocity": 100}, {"time": 200170, "pitch": 66, "duration": 240, "velocity": 70}, {"time": 200400, "pitch": 54, "duration": 240, "velocity": 100}, {"time": 200400, "pitch": 61, "duration": 240, "velocity": 90}, {"time": 200410, "pitch": 66, "duration": 240, "velocity": 60}, {"time": 200640, "pitch": 54, "duration": 240, "velocity": 105}, {"time": 200640, "pitch": 61, "duration": 240, "velocity": 95}, {"time": 200650, "pitch": 66, "duration": 240, "velocity": 65}, {"time": 200880, "pitch": 54, "duration": 480, "velocity": 100}, {"time": 200880, "pitch": 61, "duration": 480, "velocity": 90}, {"time": 200890, "pitch": 66, "duration": 950, "velocity": 110}, {"time": 201360, "pitch": 54, "duration": 240, "velocity": 100}, {"time": 201370, "pitch": 61, "duration": 240, "velocity": 90}, {"time": 201600, "pitch": 54, "duration": 240, "velocity": 90}, {"time": 201610, "pitch": 61, "duration": 230, "velocity": 80}, {"time": 201840, "pitch": 47, "duration": 480, "velocity": 110}, {"time": 201840, "pitch": 54, "duration": 480, "velocity": 100}, {"time": 201850, "pitch": 59, "duration": 470, "velocity": 90}, {"time": 202320, "pitch": 47, "duration": 240, "velocity": 100}, {"time": 202320, "pitch": 54, "duration": 240, "velocity": 90}, {"time": 202330, "pitch": 59, "duration": 240, "velocity": 80}, {"time": 202560, "pitch": 47, "duration": 240, "velocity": 110}, {"time": 202560, "pitch": 54, "duration": 240, "velocity": 100}, {"time": 202570, "pitch": 59, "duration": 240, "velocity": 90}, {"time": 202570, "pitch": 63, "duration": 240, "velocity": 95}, {"time": 202800, "pitch": 47, "duration": 240, "velocity": 105}, {"time": 202800, "pitch": 54, "duration": 240, "velocity": 95}, {"time": 202810, "pitch": 59, "duration": 240, "velocity": 85}, {"time": 202810, "pitch": 63, "duration": 240, "velocity": 90}, {"time": 203040, "pitch": 47, "duration": 240, "velocity": 110}, {"time": 203040, "pitch": 54, "duration": 240, "velocity": 100}, {"time": 203050, "pitch": 59, "duration": 240, "velocity": 90}, {"time": 203050, "pitch": 63, "duration": 240, "velocity": 95}, {"time": 203280, "pitch": 47, "duration": 240, "velocity": 105}, {"time": 203280, "pitch": 54, "duration": 240, "velocity": 95}, {"time": 203290, "pitch": 59, "duration": 240, "velocity": 85}, {"time": 203290, "pitch": 63, "duration": 240, "velocity": 90}, {"time": 203520, "pitch": 47, "duration": 240, "velocity": 110}, {"time": 203520, "pitch": 54, "duration": 240, "velocity": 100}, {"time": 203530, "pitch": 59, "duration": 230, "velocity": 90}, {"time": 203530, "pitch": 63, "duration": 240, "velocity": 95}, {"time": 203760, "pitch": 52, "duration": 480, "velocity": 110}, {"time": 203760, "pitch": 59, "duration": 480, "velocity": 100}, {"time": 203770, "pitch": 64, "duration": 470, "velocity": 95}, {"time": 203770, "pitch": 68, "duration": 470, "velocity": 100}, {"time": 204240, "pitch": 52, "duration": 240, "velocity": 100}, {"time": 204240, "pitch": 59, "duration": 240, "velocity": 90}, {"time": 204250, "pitch": 64, "duration": 240, "velocity": 85}, {"time": 204250, "pitch": 68, "duration": 240, "velocity": 90}, {"time": 204480, "pitch": 52, "duration": 240, "velocity": 110}, {"time": 204480, "pitch": 59, "duration": 240, "velocity": 100}, {"time": 204490, "pitch": 64, "duration": 240, "velocity": 95}, {"time": 204490, "pitch": 68, "duration": 240, "velocity": 100}, {"time": 204720, "pitch": 52, "duration": 240, "velocity": 100}, {"time": 204720, "pitch": 59, "duration": 240, "velocity": 90}, {"time": 204730, "pitch": 64, "duration": 240, "velocity": 85}, {"time": 204730, "pitch": 68, "duration": 240, "velocity": 90}, {"time": 204960, "pitch": 52, "duration": 240, "velocity": 110}, {"time": 204960, "pitch": 59, "duration": 240, "velocity": 100}, {"time": 204970, "pitch": 64, "duration": 240, "velocity": 95}, {"time": 204970, "pitch": 68, "duration": 240, "velocity": 100}, {"time": 205200, "pitch": 52, "duration": 240, "velocity": 100}, {"time": 205200, "pitch": 59, "duration": 240, "velocity": 90}, {"time": 205210, "pitch": 64, "duration": 240, "velocity": 85}, {"time": 205210, "pitch": 68, "duration": 240, "velocity": 90}, {"time": 205440, "pitch": 52, "duration": 240, "velocity": 110}, {"time": 205440, "pitch": 59, "duration": 240, "velocity": 100}, {"time": 205450, "pitch": 64, "duration": 240, "velocity": 95}, {"time": 205450, "pitch": 68, "duration": 240, "velocity": 100}, {"time": 205680, "pitch": 52, "duration": 240, "velocity": 100}, {"time": 205680, "pitch": 57, "duration": 230, "velocity": 90}, {"time": 205690, "pitch": 62, "duration": 230, "velocity": 85}, {"time": 205920, "pitch": 52, "duration": 240, "velocity": 110}, {"time": 205920, "pitch": 59, "duration": 240, "velocity": 100}, {"time": 205930, "pitch": 62, "duration": 240, "velocity": 95}, {"time": 205930, "pitch": 66, "duration": 240, "velocity": 100}, {"time": 206160, "pitch": 52, "duration": 240, "velocity": 100}, {"time": 206160, "pitch": 59, "duration": 240, "velocity": 90}, {"time": 206170, "pitch": 62, "duration": 240, "velocity": 85}, {"time": 206170, "pitch": 66, "duration": 240, "velocity": 90}, {"time": 206400, "pitch": 52, "duration": 240, "velocity": 110}, {"time": 206400, "pitch": 59, "duration": 240, "velocity": 100}, {"time": 206410, "pitch": 62, "duration": 240, "velocity": 95}, {"time": 206410, "pitch": 66, "duration": 240, "velocity": 100}, {"time": 206640, "pitch": 52, "duration": 240, "velocity": 100}, {"time": 206640, "pitch": 59, "duration": 240, "velocity": 90}, {"time": 206650, "pitch": 62, "duration": 240, "velocity": 85}, {"time": 206650, "pitch": 66, "duration": 240, "velocity": 90}, {"time": 206880, "pitch": 52, "duration": 240, "velocity": 110}, {"time": 206880, "pitch": 59, "duration": 240, "velocity": 100}, {"time": 206890, "pitch": 62, "duration": 240, "velocity": 95}, {"time": 206890, "pitch": 66, "duration": 240, "velocity": 100}, {"time": 207120, "pitch": 52, "duration": 240, "velocity": 100}, {"time": 207120, "pitch": 59, "duration": 240, "velocity": 90}, {"time": 207130, "pitch": 62, "duration": 240, "velocity": 85}, {"time": 207130, "pitch": 66, "duration": 240, "velocity": 90}, {"time": 207360, "pitch": 52, "duration": 480, "velocity": 110}, {"time": 207360, "pitch": 57, "duration": 240, "velocity": 100}, {"time": 207370, "pitch": 62, "duration": 350, "velocity": 95}, {"time": 207370, "pitch": 66, "duration": 470, "velocity": 100}, {"time": 207600, "pitch": 57, "duration": 240, "velocity": 100}, {"time": 207720, "pitch": 62, "duration": 120, "velocity": 95}, {"time": 207840, "pitch": 50, "duration": 240, "velocity": 110}, {"time": 207840, "pitch": 57, "duration": 240, "velocity": 100}, {"time": 207850, "pitch": 62, "duration": 240, "velocity": 95}, {"time": 207850, "pitch": 66, "duration": 240, "velocity": 100}, {"time": 208080, "pitch": 50, "duration": 240, "velocity": 100}, {"time": 208080, "pitch": 57, "duration": 240, "velocity": 90}, {"time": 208090, "pitch": 62, "duration": 240, "velocity": 85}, {"time": 208090, "pitch": 66, "duration": 240, "velocity": 100}, {"time": 208320, "pitch": 50, "duration": 240, "velocity": 110}, {"time": 208320, "pitch": 57, "duration": 240, "velocity": 100}, {"time": 208330, "pitch": 62, "duration": 240, "velocity": 95}, {"time": 208330, "pitch": 66, "duration": 240, "velocity": 100}, {"time": 208560, "pitch": 50, "duration": 240, "velocity": 100}, {"time": 208560, "pitch": 57, "duration": 240, "velocity": 90}, {"time": 208570, "pitch": 62, "duration": 240, "velocity": 85}, {"time": 208570, "pitch": 66, "duration": 240, "velocity": 100}, {"time": 208800, "pitch": 50, "duration": 240, "velocity": 110}, {"time": 208800, "pitch": 57, "duration": 240, "velocity": 100}, {"time": 208810, "pitch": 62, "duration": 240, "velocity": 95}, {"time": 208810, "pitch": 66, "duration": 240, "velocity": 100}, {"time": 209040, "pitch": 50, "duration": 240, "velocity": 100}, {"time": 209040, "pitch": 57, "duration": 240, "velocity": 90}, {"time": 209050, "pitch": 62, "duration": 240, "velocity": 85}, {"time": 209050, "pitch": 66, "duration": 240, "velocity": 100}, {"time": 209280, "pitch": 50, "duration": 240, "velocity": 105}, {"time": 209280, "pitch": 57, "duration": 240, "velocity": 95}, {"time": 209290, "pitch": 62, "duration": 240, "velocity": 90}, {"time": 209290, "pitch": 66, "duration": 240, "velocity": 95}, {"time": 209520, "pitch": 49, "duration": 480, "velocity": 110}, {"time": 209520, "pitch": 56, "duration": 480, "velocity": 100}, {"time": 209530, "pitch": 61, "duration": 470, "velocity": 95}, {"time": 209530, "pitch": 64, "duration": 470, "velocity": 110}, {"time": 210000, "pitch": 49, "duration": 240, "velocity": 100}, {"time": 210000, "pitch": 56, "duration": 240, "velocity": 90}, {"time": 210010, "pitch": 61, "duration": 240, "velocity": 85}, {"time": 210010, "pitch": 64, "duration": 240, "velocity": 100}, {"time": 210240, "pitch": 49, "duration": 240, "velocity": 110}, {"time": 210240, "pitch": 56, "duration": 240, "velocity": 100}, {"time": 210250, "pitch": 61, "duration": 240, "velocity": 95}, {"time": 210250, "pitch": 64, "duration": 240, "velocity": 110}, {"time": 210480, "pitch": 49, "duration": 240, "velocity": 100}, {"time": 210480, "pitch": 56, "duration": 240, "velocity": 90}, {"time": 210490, "pitch": 63, "duration": 480, "velocity": 110}, {"time": 210720, "pitch": 49, "duration": 240, "velocity": 100}, {"time": 210730, "pitch": 56, "duration": 230, "velocity": 90}, {"time": 210960, "pitch": 49, "duration": 240, "velocity": 90}, {"time": 210960, "pitch": 56, "duration": 240, "velocity": 80}, {"time": 210970, "pitch": 64, "duration": 240, "velocity": 105}, {"time": 211200, "pitch": 49, "duration": 240, "velocity": 100}, {"time": 211200, "pitch": 56, "duration": 240, "velocity": 90}, {"time": 211210, "pitch": 61, "duration": 470, "velocity": 110}, {"time": 211440, "pitch": 49, "duration": 240, "velocity": 90}, {"time": 211450, "pitch": 56, "duration": 230, "velocity": 80}, {"time": 211680, "pitch": 44, "duration": 240, "velocity": 110}, {"time": 211680, "pitch": 51, "duration": 240, "velocity": 100}, {"time": 211690, "pitch": 56, "duration": 240, "velocity": 90}, {"time": 211920, "pitch": 44, "duration": 240, "velocity": 100}, {"time": 211920, "pitch": 51, "duration": 240, "velocity": 90}, {"time": 211930, "pitch": 56, "duration": 240, "velocity": 80}, {"time": 212160, "pitch": 44, "duration": 1200, "velocity": 110}, {"time": 212160, "pitch": 51, "duration": 1200, "velocity": 100}, {"time": 212170, "pitch": 56, "duration": 1190, "velocity": 90}, {"time": 212400, "pitch": 59, "duration": 480, "velocity": 85}, {"time": 212400, "pitch": 63, "duration": 480, "velocity": 95}, {"time": 212410, "pitch": 68, "duration": 480, "velocity": 105}, {"time": 212880, "pitch": 63, "duration": 240, "velocity": 110}, {"time": 213120, "pitch": 64, "duration": 240, "velocity": 105}, {"time": 213360, "pitch": 49, "duration": 240, "velocity": 90}, {"time": 213360, "pitch": 56, "duration": 240, "velocity": 95}, {"time": 213370, "pitch": 61, "duration": 230, "velocity": 110}, {"time": 213600, "pitch": 49, "duration": 60, "velocity": 90}, {"time": 213610, "pitch": 56, "duration": 60, "velocity": 80}, {"time": 213840, "pitch": 59, "duration": 240, "velocity": 105}, {"time": 213840, "pitch": 64, "duration": 240, "velocity": 85}, {"time": 213850, "pitch": 68, "duration": 240, "velocity": 95}, {"time": 214080, "pitch": 59, "duration": 240, "velocity": 110}, {"time": 214080, "pitch": 64, "duration": 240, "velocity": 90}, {"time": 214090, "pitch": 68, "duration": 240, "velocity": 100}, {"time": 214320, "pitch": 56, "duration": 240, "velocity": 100}, {"time": 214560, "pitch": 59, "duration": 240, "velocity": 110}, {"time": 214560, "pitch": 64, "duration": 240, "velocity": 100}, {"time": 214570, "pitch": 68, "duration": 240, "velocity": 90}, {"time": 214800, "pitch": 59, "duration": 240, "velocity": 105}, {"time": 214800, "pitch": 64, "duration": 240, "velocity": 95}, {"time": 214810, "pitch": 68, "duration": 240, "velocity": 85}, {"time": 215040, "pitch": 56, "duration": 240, "velocity": 110}, {"time": 215280, "pitch": 49, "duration": 240, "velocity": 90}, {"time": 215520, "pitch": 54, "duration": 240, "velocity": 110}, {"time": 215520, "pitch": 61, "duration": 240, "velocity": 100}, {"time": 215530, "pitch": 66, "duration": 240, "velocity": 70}, {"time": 215760, "pitch": 54, "duration": 240, "velocity": 100}, {"time": 215760, "pitch": 61, "duration": 240, "velocity": 90}, {"time": 215770, "pitch": 66, "duration": 240, "velocity": 60}, {"time": 216000, "pitch": 54, "duration": 240, "velocity": 110}, {"time": 216000, "pitch": 61, "duration": 240, "velocity": 100}, {"time": 216010, "pitch": 66, "duration": 240, "velocity": 70}, {"time": 216240, "pitch": 54, "duration": 240, "velocity": 100}, {"time": 216240, "pitch": 61, "duration": 240, "velocity": 90}, {"time": 216250, "pitch": 66, "duration": 240, "velocity": 60}, {"time": 216480, "pitch": 47, "duration": 240, "velocity": 110}, {"time": 216480, "pitch": 54, "duration": 240, "velocity": 100}, {"time": 216490, "pitch": 59, "duration": 240, "velocity": 90}, {"time": 216720, "pitch": 47, "duration": 240, "velocity": 100}, {"time": 216720, "pitch": 54, "duration": 240, "velocity": 90}, {"time": 216730, "pitch": 59, "duration": 240, "velocity": 80}, {"time": 216960, "pitch": 47, "duration": 240, "velocity": 105}, {"time": 216960, "pitch": 54, "duration": 240, "velocity": 95}, {"time": 216970, "pitch": 59, "duration": 230, "velocity": 85}, {"time": 217200, "pitch": 52, "duration": 1920, "velocity": 110}, {"time": 217200, "pitch": 59, "duration": 1920, "velocity": 100}, {"time": 217210, "pitch": 64, "duration": 1910, "velocity": 90}, {"time": 217210, "pitch": 68, "duration": 1910, "velocity": 100}, {"time": 219120, "pitch": 52, "duration": 1200, "velocity": 110}, {"time": 219120, "pitch": 59, "duration": 480, "velocity": 100}, {"time": 219130, "pitch": 64, "duration": 470, "velocity": 90}, {"time": 219130, "pitch": 69, "duration": 1190, "velocity": 100}, {"time": 219600, "pitch": 59, "duration": 240, "velocity": 80}, {"time": 219610, "pitch": 62, "duration": 240, "velocity": 105}, {"time": 219840, "pitch": 59, "duration": 240, "velocity": 80}, {"time": 219850, "pitch": 64, "duration": 240, "velocity": 110}, {"time": 220080, "pitch": 59, "duration": 240, "velocity": 100}, {"time": 220320, "pitch": 52, "duration": 240, "velocity": 110}, {"time": 220320, "pitch": 57, "duration": 240, "velocity": 80}, {"time": 220330, "pitch": 64, "duration": 240, "velocity": 90}, {"time": 220330, "pitch": 69, "duration": 240, "velocity": 100}, {"time": 220560, "pitch": 52, "duration": 480, "velocity": 110}, {"time": 220560, "pitch": 59, "duration": 480, "velocity": 100}, {"time": 220570, "pitch": 64, "duration": 480, "velocity": 90}, {"time": 220570, "pitch": 68, "duration": 480, "velocity": 100}, {"time": 221040, "pitch": 52, "duration": 60, "velocity": 100}, {"time": 221040, "pitch": 59, "duration": 60, "velocity": 90}, {"time": 221050, "pitch": 64, "duration": 60, "velocity": 80}, {"time": 221050, "pitch": 68, "duration": 60, "velocity": 90}, {"time": 221280, "pitch": 52, "duration": 240, "velocity": 100}, {"time": 221520, "pitch": 52, "duration": 480, "velocity": 90}, {"time": 221760, "pitch": 64, "duration": 240, "velocity": 110}, {"time": 221770, "pitch": 68, "duration": 240, "velocity": 50}, {"time": 222000, "pitch": 52, "duration": 240, "velocity": 90}, {"time": 222240, "pitch": 52, "duration": 480, "velocity": 100}, {"time": 222480, "pitch": 64, "duration": 240, "velocity": 110}, {"time": 222490, "pitch": 68, "duration": 240, "velocity": 50}, {"time": 222720, "pitch": 52, "duration": 240, "velocity": 100}, {"time": 222960, "pitch": 52, "duration": 480, "velocity": 90}, {"time": 223200, "pitch": 64, "duration": 240, "velocity": 110}, {"time": 223210, "pitch": 68, "duration": 240, "velocity": 50}, {"time": 223440, "pitch": 52, "duration": 240, "velocity": 90}, {"time": 223680, "pitch": 52, "duration": 720, "velocity": 100}, {"time": 223920, "pitch": 64, "duration": 480, "velocity": 110}, {"time": 223930, "pitch": 68, "duration": 480, "velocity": 50}, {"time": 224400, "pitch": 64, "duration": 240, "velocity": 110}, {"time": 224410, "pitch": 68, "duration": 240, "velocity": 50}, {"time": 224640, "pitch": 62, "duration": 240, "velocity": 107}, {"time": 224880, "pitch": 59, "duration": 240, "velocity": 105}, {"time": 225120, "pitch": 52, "duration": 240, "velocity": 100}, {"time": 225360, "pitch": 52, "duration": 480, "velocity": 90}, {"time": 225600, "pitch": 64, "duration": 240, "velocity": 110}, {"time": 225610, "pitch": 68, "duration": 240, "velocity": 50}, {"time": 225840, "pitch": 52, "duration": 240, "velocity": 90}, {"time": 226080, "pitch": 52, "duration": 480, "velocity": 100}, {"time": 226320, "pitch": 64, "duration": 240, "velocity": 110}, {"time": 226330, "pitch": 68, "duration": 240, "velocity": 50}, {"time": 226560, "pitch": 52, "duration": 240, "velocity": 100}, {"time": 226800, "pitch": 52, "duration": 480, "velocity": 90}, {"time": 227040, "pitch": 64, "duration": 240, "velocity": 110}, {"time": 227050, "pitch": 68, "duration": 240, "velocity": 50}, {"time": 227280, "pitch": 52, "duration": 240, "velocity": 90}, {"time": 227520, "pitch": 52, "duration": 720, "velocity": 100}, {"time": 227760, "pitch": 64, "duration": 480, "velocity": 110}, {"time": 227770, "pitch": 68, "duration": 480, "velocity": 50}, {"time": 228240, "pitch": 64, "duration": 240, "velocity": 110}, {"time": 228250, "pitch": 68, "duration": 240, "velocity": 50}, {"time": 228480, "pitch": 62, "duration": 240, "velocity": 107}, {"time": 228720, "pitch": 59, "duration": 240, "velocity": 105}, {"time": 228960, "pitch": 52, "duration": 240, "velocity": 100}, {"time": 229200, "pitch": 52, "duration": 480, "velocity": 90}, {"time": 229440, "pitch": 64, "duration": 240, "velocity": 110}, {"time": 229450, "pitch": 68, "duration": 240, "velocity": 50}, {"time": 229680, "pitch": 52, "duration": 240, "velocity": 90}, {"time": 229920, "pitch": 52, "duration": 480, "velocity": 100}, {"time": 230160, "pitch": 64, "duration": 240, "velocity": 110}, {"time": 230170, "pitch": 68, "duration": 240, "velocity": 50}, {"time": 230400, "pitch": 52, "duration": 240, "velocity": 100}, {"time": 230640, "pitch": 52, "duration": 480, "velocity": 90}, {"time": 230880, "pitch": 64, "duration": 240, "velocity": 110}, {"time": 230890, "pitch": 68, "duration": 240, "velocity": 50}, {"time": 231120, "pitch": 52, "duration": 240, "velocity": 90}, {"time": 231360, "pitch": 52, "duration": 720, "velocity": 100}, {"time": 231600, "pitch": 64, "duration": 480, "velocity": 110}, {"time": 231610, "pitch": 68, "duration": 480, "velocity": 50}, {"time": 232080, "pitch": 64, "duration": 240, "velocity": 110}, {"time": 232090, "pitch": 68, "duration": 240, "velocity": 50}, {"time": 232320, "pitch": 62, "duration": 240, "velocity": 107}, {"time": 232560, "pitch": 59, "duration": 240, "velocity": 105}, {"time": 232800, "pitch": 52, "duration": 240, "velocity": 100}, {"time": 233040, "pitch": 52, "duration": 480, "velocity": 90}, {"time": 233280, "pitch": 64, "duration": 240, "velocity": 110}, {"time": 233290, "pitch": 68, "duration": 240, "velocity": 50}, {"time": 233520, "pitch": 52, "duration": 240, "velocity": 90}, {"time": 233760, "pitch": 52, "duration": 480, "velocity": 100}, {"time": 234000, "pitch": 64, "duration": 240, "velocity": 110}, {"time": 234010, "pitch": 68, "duration": 240, "velocity": 50}, {"time": 234240, "pitch": 52, "duration": 240, "velocity": 100}, {"time": 234480, "pitch": 52, "duration": 480, "velocity": 90}, {"time": 234720, "pitch": 64, "duration": 240, "velocity": 110}, {"time": 234730, "pitch": 68, "duration": 240, "velocity": 50}, {"time": 234960, "pitch": 52, "duration": 240, "velocity": 90}, {"time": 235200, "pitch": 52, "duration": 720, "velocity": 100}, {"time": 235440, "pitch": 64, "duration": 480, "velocity": 110}, {"time": 235450, "pitch": 68, "duration": 480, "velocity": 50}, {"time": 235920, "pitch": 64, "duration": 240, "velocity": 110}, {"time": 235930, "pitch": 68, "duration": 240, "velocity": 50}, {"time": 236160, "pitch": 62, "duration": 240, "velocity": 107}, {"time": 236400, "pitch": 59, "duration": 240, "velocity": 105}, {"time": 236640, "pitch": 52, "duration": 240, "velocity": 100}, {"time": 236880, "pitch": 52, "duration": 480, "velocity": 90}, {"time": 237120, "pitch": 64, "duration": 240, "velocity": 110}, {"time": 237130, "pitch": 68, "duration": 240, "velocity": 50}, {"time": 237360, "pitch": 52, "duration": 240, "velocity": 90}, {"time": 237600, "pitch": 52, "duration": 480, "velocity": 100}, {"time": 237840, "pitch": 64, "duration": 240, "velocity": 110}, {"time": 237850, "pitch": 68, "duration": 240, "velocity": 50}, {"time": 238080, "pitch": 52, "duration": 240, "velocity": 100}, {"time": 238320, "pitch": 52, "duration": 480, "velocity": 90}, {"time": 238560, "pitch": 64, "duration": 240, "velocity": 110}, {"time": 238570, "pitch": 68, "duration": 240, "velocity": 50}, {"time": 238800, "pitch": 52, "duration": 240, "velocity": 90}, {"time": 239040, "pitch": 52, "duration": 720, "velocity": 100}, {"time": 239280, "pitch": 64, "duration": 480, "velocity": 110}, {"time": 239290, "pitch": 68, "duration": 480, "velocity": 50}, {"time": 239760, "pitch": 64, "duration": 240, "velocity": 110}, {"time": 239770, "pitch": 68, "duration": 240, "velocity": 50}, {"time": 240000, "pitch": 62, "duration": 240, "velocity": 107}, {"time": 240240, "pitch": 59, "duration": 240, "velocity": 105}, {"time": 240480, "pitch": 52, "duration": 240, "velocity": 100}, {"time": 240720, "pitch": 52, "duration": 480, "velocity": 90}, {"time": 240960, "pitch": 64, "duration": 240, "velocity": 110}, {"time": 240970, "pitch": 68, "duration": 240, "velocity": 50}, {"time": 241200, "pitch": 52, "duration": 240, "velocity": 90}, {"time": 241440, "pitch": 52, "duration": 480, "velocity": 100}, {"time": 241680, "pitch": 64, "duration": 240, "velocity": 110}, {"time": 241690, "pitch": 68, "duration": 240, "velocity": 50}, {"time": 241920, "pitch": 52, "duration": 240, "velocity": 100}, {"time": 242160, "pitch": 52, "duration": 480, "velocity": 90}, {"time": 242400, "pitch": 64, "duration": 240, "velocity": 110}, {"time": 242410, "pitch": 68, "duration": 240, "velocity": 50}, {"time": 242640, "pitch": 52, "duration": 240, "velocity": 90}, {"time": 242880, "pitch": 52, "duration": 720, "velocity": 100}, {"time": 243120, "pitch": 64, "duration": 480, "velocity": 110}, {"time": 243130, "pitch": 68, "duration": 480, "velocity": 50}, {"time": 243600, "pitch": 64, "duration": 240, "velocity": 110}, {"time": 243610, "pitch": 68, "duration": 240, "velocity": 50}, {"time": 243840, "pitch": 62, "duration": 240, "velocity": 107}, {"time": 244080, "pitch": 59, "duration": 240, "velocity": 105}, {"time": 244320, "pitch": 52, "duration": 240, "velocity": 100}, {"time": 244560, "pitch": 52, "duration": 480, "velocity": 90}, {"time": 244800, "pitch": 64, "duration": 240, "velocity": 110}, {"time": 244810, "pitch": 68, "duration": 240, "velocity": 50}, {"time": 245040, "pitch": 52, "duration": 240, "velocity": 90}, {"time": 245280, "pitch": 52, "duration": 480, "velocity": 100}, {"time": 245520, "pitch": 64, "duration": 240, "velocity": 110}, {"time": 245530, "pitch": 68, "duration": 240, "velocity": 50}, {"time": 245760, "pitch": 52, "duration": 240, "velocity": 100}, {"time": 246000, "pitch": 52, "duration": 480, "velocity": 90}, {"time": 246240, "pitch": 64, "duration": 240, "velocity": 110}, {"time": 246250, "pitch": 68, "duration": 240, "velocity": 50}, {"time": 246480, "pitch": 52, "duration": 240, "velocity": 90}, {"time": 246720, "pitch": 52, "duration": 720, "velocity": 100}, {"time": 246960, "pitch": 64, "duration": 480, "velocity": 110}, {"time": 246970, "pitch": 68, "duration": 480, "velocity": 50}, {"time": 247440, "pitch": 64, "duration": 240, "velocity": 110}, {"time": 247450, "pitch": 68, "duration": 240, "velocity": 50}, {"time": 247680, "pitch": 62, "duration": 240, "velocity": 107}, {"time": 247920, "pitch": 59, "duration": 240, "velocity": 105}, {"time": 248160, "pitch": 52, "duration": 240, "velocity": 100}, {"time": 248400, "pitch": 52, "duration": 480, "velocity": 90}, {"time": 248640, "pitch": 64, "duration": 240, "velocity": 110}, {"time": 248650, "pitch": 68, "duration": 240, "velocity": 50}, {"time": 248880, "pitch": 52, "duration": 240, "velocity": 90}, {"time": 249120, "pitch": 52, "duration": 480, "velocity": 100}, {"time": 249360, "pitch": 64, "duration": 240, "velocity": 110}, {"time": 249370, "pitch": 68, "duration": 240, "velocity": 50}, {"time": 249600, "pitch": 52, "duration": 240, "velocity": 100}, {"time": 249840, "pitch": 52, "duration": 480, "velocity": 90}, {"time": 250080, "pitch": 64, "duration": 240, "velocity": 110}, {"time": 250090, "pitch": 68, "duration": 240, "velocity": 50}, {"time": 250320, "pitch": 52, "duration": 240, "velocity": 90}, {"time": 250560, "pitch": 52, "duration": 720, "velocity": 100}, {"time": 250800, "pitch": 64, "duration": 480, "velocity": 110}, {"time": 250810, "pitch": 68, "duration": 480, "velocity": 50}, {"time": 251280, "pitch": 64, "duration": 240, "velocity": 110}, {"time": 251290, "pitch": 68, "duration": 240, "velocity": 50}, {"time": 251520, "pitch": 62, "duration": 240, "velocity": 107}, {"time": 251760, "pitch": 59, "duration": 240, "velocity": 105}], "annotations": [{"time": 292, "annotation": {"number": 7, "value": 80}, "group": "control_change"}, {"time": 313, "annotation": {"number": 11, "value": 100}, "group": "control_change"}, {"time": 334, "annotation": {"number": 10, "value": 10}, "group": "control_change"}, {"time": 355, "annotation": {"number": 91, "value": 40}, "group": "control_change"}, {"time": 376, "annotation": {"number": 93, "value": 10}, "group": "control_change"}, {"time": 397, "annotation": {"number": 101, "value": 0}, "group": "control_change"}, {"time": 417, "annotation": {"number": 100, "value": 0}, "group": "control_change"}, {"time": 438, "annotation": {"number": 6, "value": 12}, "group": "control_change"}, {"time": 459, "annotation": {"number": 101, "value": 127}, "group": "control_change"}, {"time": 480, "annotation": {"number": 100, "value": 127}, "group": "control_change"}, {"time": 161490, "annotation": {"number": 0, "value": 6}, "group": "control_change"}, {"time": 161500, "annotation": {"number": 32, "value": 0}, "group": "control_change"}, {"time": 165330, "annotation": {"number": 0, "value": 6}, "group": "control_change"}, {"time": 165340, "annotation": {"number": 32, "value": 0}, "group": "control_change"}, {"time": 169170, "annotation": {"number": 0, "value": 6}, "group": "control_change"}, {"time": 169180, "annotation": {"number": 32, "value": 0}, "group": "control_change"}, {"time": 236800, "annotation": {"number": 11, "value": 99}, "group": "control_change"}, {"time": 236960, "annotation": {"number": 11, "value": 98}, "group": "control_change"}, {"time": 237120, "annotation": {"number": 11, "value": 97}, "group": "control_change"}, {"time": 237280, "annotation": {"number": 11, "value": 96}, "group": "control_change"}, {"time": 237440, "annotation": {"number": 11, "value": 95}, "group": "control_change"}, {"time": 237560, "annotation": {"number": 11, "value": 94}, "group": "control_change"}, {"time": 237720, "annotation": {"number": 11, "value": 93}, "group": "control_change"}, {"time": 237880, "annotation": {"number": 11, "value": 92}, "group": "control_change"}, {"time": 238040, "annotation": {"number": 11, "value": 91}, "group": "control_change"}, {"time": 238200, "annotation": {"number": 11, "value": 90}, "group": "control_change"}, {"time": 238360, "annotation": {"number": 11, "value": 89}, "group": "control_change"}, {"time": 238480, "annotation": {"number": 11, "value": 88}, "group": "control_change"}, {"time": 238640, "annotation": {"number": 11, "value": 87}, "group": "control_change"}, {"time": 238800, "annotation": {"number": 11, "value": 86}, "group": "control_change"}, {"time": 238960, "annotation": {"number": 11, "value": 85}, "group": "control_change"}, {"time": 239120, "annotation": {"number": 11, "value": 84}, "group": "control_change"}, {"time": 239280, "annotation": {"number": 11, "value": 83}, "group": "control_change"}, {"time": 239400, "annotation": {"number": 11, "value": 82}, "group": "control_change"}, {"time": 239560, "annotation": {"number": 11, "value": 81}, "group": "control_change"}, {"time": 239720, "annotation": {"number": 11, "value": 80}, "group": "control_change"}, {"time": 239880, "annotation": {"number": 11, "value": 79}, "group": "control_change"}, {"time": 240040, "annotation": {"number": 11, "value": 78}, "group": "control_change"}, {"time": 240200, "annotation": {"number": 11, "value": 77}, "group": "control_change"}, {"time": 240320, "annotation": {"number": 11, "value": 76}, "group": "control_change"}, {"time": 240480, "annotation": {"number": 11, "value": 75}, "group": "control_change"}, {"time": 240640, "annotation": {"number": 11, "value": 74}, "group": "control_change"}, {"time": 240800, "annotation": {"number": 11, "value": 73}, "group": "control_change"}, {"time": 240960, "annotation": {"number": 11, "value": 72}, "group": "control_change"}, {"time": 241080, "annotation": {"number": 11, "value": 71}, "group": "control_change"}, {"time": 241240, "annotation": {"number": 11, "value": 70}, "group": "control_change"}, {"time": 241400, "annotation": {"number": 11, "value": 69}, "group": "control_change"}, {"time": 241560, "annotation": {"number": 11, "value": 68}, "group": "control_change"}, {"time": 241720, "annotation": {"number": 11, "value": 67}, "group": "control_change"}, {"time": 241880, "annotation": {"number": 11, "value": 66}, "group": "control_change"}, {"time": 242000, "annotation": {"number": 11, "value": 65}, "group": "control_change"}, {"time": 242160, "annotation": {"number": 11, "value": 64}, "group": "control_change"}, {"time": 242320, "annotation": {"number": 11, "value": 63}, "group": "control_change"}, {"time": 242480, "annotation": {"number": 11, "value": 62}, "group": "control_change"}, {"time": 242640, "annotation": {"number": 11, "value": 61}, "group": "control_change"}, {"time": 242800, "annotation": {"number": 11, "value": 60}, "group": "control_change"}, {"time": 242920, "annotation": {"number": 11, "value": 59}, "group": "control_change"}, {"time": 243080, "annotation": {"number": 11, "value": 58}, "group": "control_change"}, {"time": 243240, "annotation": {"number": 11, "value": 57}, "group": "control_change"}, {"time": 243400, "annotation": {"number": 11, "value": 56}, "group": "control_change"}, {"time": 243560, "annotation": {"number": 11, "value": 55}, "group": "control_change"}, {"time": 243720, "annotation": {"number": 11, "value": 54}, "group": "control_change"}, {"time": 243840, "annotation": {"number": 11, "value": 53}, "group": "control_change"}, {"time": 244000, "annotation": {"number": 11, "value": 52}, "group": "control_change"}, {"time": 244160, "annotation": {"number": 11, "value": 51}, "group": "control_change"}, {"time": 244320, "annotation": {"number": 11, "value": 50}, "group": "control_change"}, {"time": 244480, "annotation": {"number": 11, "value": 49}, "group": "control_change"}, {"time": 244640, "annotation": {"number": 11, "value": 48}, "group": "control_change"}, {"time": 244760, "annotation": {"number": 11, "value": 47}, "group": "control_change"}, {"time": 244920, "annotation": {"number": 11, "value": 46}, "group": "control_change"}, {"time": 245080, "annotation": {"number": 11, "value": 45}, "group": "control_change"}, {"time": 245240, "annotation": {"number": 11, "value": 44}, "group": "control_change"}, {"time": 245400, "annotation": {"number": 11, "value": 43}, "group": "control_change"}, {"time": 245520, "annotation": {"number": 11, "value": 42}, "group": "control_change"}, {"time": 245680, "annotation": {"number": 11, "value": 41}, "group": "control_change"}, {"time": 245840, "annotation": {"number": 11, "value": 40}, "group": "control_change"}, {"time": 246000, "annotation": {"number": 11, "value": 39}, "group": "control_change"}, {"time": 246160, "annotation": {"number": 11, "value": 38}, "group": "control_change"}, {"time": 246320, "annotation": {"number": 11, "value": 37}, "group": "control_change"}, {"time": 246440, "annotation": {"number": 11, "value": 36}, "group": "control_change"}, {"time": 246600, "annotation": {"number": 11, "value": 35}, "group": "control_change"}, {"time": 246760, "annotation": {"number": 11, "value": 34}, "group": "control_change"}, {"time": 246920, "annotation": {"number": 11, "value": 33}, "group": "control_change"}, {"time": 247080, "annotation": {"number": 11, "value": 32}, "group": "control_change"}, {"time": 247240, "annotation": {"number": 11, "value": 31}, "group": "control_change"}, {"time": 247360, "annotation": {"number": 11, "value": 30}, "group": "control_change"}, {"time": 247520, "annotation": {"number": 11, "value": 29}, "group": "control_change"}, {"time": 247680, "annotation": {"number": 11, "value": 28}, "group": "control_change"}, {"time": 247840, "annotation": {"number": 11, "value": 27}, "group": "control_change"}, {"time": 248000, "annotation": {"number": 11, "value": 26}, "group": "control_change"}, {"time": 248160, "annotation": {"number": 11, "value": 25}, "group": "control_change"}, {"time": 248280, "annotation": {"number": 11, "value": 24}, "group": "control_change"}, {"time": 248440, "annotation": {"number": 11, "value": 23}, "group": "control_change"}, {"time": 248600, "annotation": {"number": 11, "value": 22}, "group": "control_change"}, {"time": 248760, "annotation": {"number": 11, "value": 21}, "group": "control_change"}, {"time": 248920, "annotation": {"number": 11, "value": 20}, "group": "control_change"}, {"time": 249080, "annotation": {"number": 11, "value": 19}, "group": "control_change"}, {"time": 249200, "annotation": {"number": 11, "value": 18}, "group": "control_change"}, {"time": 249360, "annotation": {"number": 11, "value": 17}, "group": "control_change"}, {"time": 249520, "annotation": {"number": 11, "value": 16}, "group": "control_change"}, {"time": 249680, "annotation": {"number": 11, "value": 15}, "group": "control_change"}, {"time": 249840, "annotation": {"number": 11, "value": 14}, "group": "control_change"}, {"time": 249960, "annotation": {"number": 11, "value": 13}, "group": "control_change"}, {"time": 250120, "annotation": {"number": 11, "value": 12}, "group": "control_change"}, {"time": 250280, "annotation": {"number": 11, "value": 11}, "group": "control_change"}, {"time": 250440, "annotation": {"number": 11, "value": 10}, "group": "control_change"}, {"time": 250600, "annotation": {"number": 11, "value": 9}, "group": "control_change"}, {"time": 250760, "annotation": {"number": 11, "value": 8}, "group": "control_change"}, {"time": 250880, "annotation": {"number": 11, "value": 7}, "group": "control_change"}, {"time": 251040, "annotation": {"number": 11, "value": 6}, "group": "control_change"}, {"time": 251200, "annotation": {"number": 11, "value": 5}, "group": "control_change"}, {"time": 251360, "annotation": {"number": 11, "value": 4}, "group": "control_change"}, {"time": 251520, "annotation": {"number": 11, "value": 3}, "group": "control_change"}, {"time": 251680, "annotation": {"number": 11, "value": 2}, "group": "control_change"}, {"time": 251800, "annotation": {"number": 11, "value": 1}, "group": "control_change"}, {"time": 251960, "annotation": {"number": 11, "value": 0}, "group": "control_change"}]}, {"program": 120, "is_drum": false, "name": "E.GUITAR 2", "notes": [{"time": 157920, "pitch": 59, "duration": 3600, "velocity": 110}, {"time": 157930, "pitch": 68, "duration": 3590, "velocity": 100}, {"time": 161520, "pitch": 66, "duration": 20, "velocity": 70}, {"time": 161640, "pitch": 66, "duration": 20, "velocity": 80}, {"time": 161760, "pitch": 55, "duration": 3600, "velocity": 110}, {"time": 161770, "pitch": 64, "duration": 3590, "velocity": 100}, {"time": 165360, "pitch": 66, "duration": 20, "velocity": 70}, {"time": 165480, "pitch": 66, "duration": 20, "velocity": 80}, {"time": 166560, "pitch": 59, "duration": 2640, "velocity": 110}, {"time": 166570, "pitch": 68, "duration": 2630, "velocity": 100}], "annotations": [{"time": 161730, "annotation": {"number": 0, "value": 0}, "group": "control_change"}, {"time": 161740, "annotation": {"number": 32, "value": 0}, "group": "control_change"}, {"time": 165570, "annotation": {"number": 0, "value": 0}, "group": "control_change"}, {"time": 165580, "annotation": {"number": 32, "value": 0}, "group": "control_change"}, {"time": 169410, "annotation": {"number": 0, "value": 0}, "group": "control_change"}, {"time": 169420, "annotation": {"number": 32, "value": 0}, "group": "control_change"}]}, {"program": 0, "is_drum": false, "name": "MELODY", "annotations": [{"time": 230, "annotation": {"number": 0, "value": 0}, "group": "control_change"}, {"time": 250, "annotation": {"number": 32, "value": 0}, "group": "control_change"}]}, {"program": 73, "is_drum": false, "name": "MELODY", "notes": [{"time": 23760, "pitch": 71, "duration": 220, "velocity": 95}, {"time": 24000, "pitch": 71, "duration": 220, "velocity": 100}, {"time": 24240, "pitch": 71, "duration": 220, "velocity": 95}, {"time": 24480, "pitch": 71, "duration": 220, "velocity": 100}, {"time": 24720, "pitch": 71, "duration": 220, "velocity": 95}, {"time": 24960, "pitch": 69, "duration": 220, "velocity": 100}, {"time": 25200, "pitch": 68, "duration": 220, "velocity": 95}, {"time": 25440, "pitch": 69, "duration": 220, "velocity": 100}, {"time": 25680, "pitch": 68, "duration": 220, "velocity": 95}, {"time": 25920, "pitch": 69, "duration": 220, "velocity": 90}, {"time": 26160, "pitch": 71, "duration": 460, "velocity": 100}, {"time": 26640, "pitch": 68, "duration": 700, "velocity": 95}, {"time": 27600, "pitch": 66, "duration": 100, "velocity": 95}, {"time": 27840, "pitch": 67, "duration": 220, "velocity": 100}, {"time": 28080, "pitch": 67, "duration": 220, "velocity": 95}, {"time": 28320, "pitch": 67, "duration": 220, "velocity": 100}, {"time": 28560, "pitch": 67, "duration": 220, "velocity": 95}, {"time": 28800, "pitch": 67, "duration": 220, "velocity": 100}, {"time": 29040, "pitch": 64, "duration": 220, "velocity": 95}, {"time": 29280, "pitch": 67, "duration": 200, "velocity": 100}, {"time": 29760, "pitch": 64, "duration": 100, "velocity": 95}, {"time": 30000, "pitch": 67, "duration": 200, "velocity": 100}, {"time": 30480, "pitch": 64, "duration": 460, "velocity": 95}, {"time": 31440, "pitch": 71, "duration": 220, "velocity": 95}, {"time": 31680, "pitch": 71, "duration": 220, "velocity": 100}, {"time": 31920, "pitch": 71, "duration": 220, "velocity": 95}, {"time": 32160, "pitch": 71, "duration": 220, "velocity": 100}, {"time": 32400, "pitch": 71, "duration": 220, "velocity": 95}, {"time": 32640, "pitch": 69, "duration": 220, "velocity": 100}, {"time": 32880, "pitch": 68, "duration": 220, "velocity": 95}, {"time": 33120, "pitch": 69, "duration": 220, "velocity": 100}, {"time": 33360, "pitch": 68, "duration": 220, "velocity": 95}, {"time": 33600, "pitch": 69, "duration": 220, "velocity": 90}, {"time": 33840, "pitch": 71, "duration": 460, "velocity": 100}, {"time": 34320, "pitch": 68, "duration": 700, "velocity": 95}, {"time": 35280, "pitch": 66, "duration": 100, "velocity": 95}, {"time": 35520, "pitch": 67, "duration": 220, "velocity": 100}, {"time": 35760, "pitch": 67, "duration": 220, "velocity": 95}, {"time": 36000, "pitch": 67, "duration": 220, "velocity": 100}, {"time": 36240, "pitch": 67, "duration": 220, "velocity": 95}, {"time": 36480, "pitch": 67, "duration": 220, "velocity": 100}, {"time": 36720, "pitch": 64, "duration": 220, "velocity": 95}, {"time": 36960, "pitch": 68, "duration": 220, "velocity": 100}, {"time": 37200, "pitch": 68, "duration": 220, "velocity": 95}, {"time": 37440, "pitch": 64, "duration": 220, "velocity": 90}, {"time": 37680, "pitch": 67, "duration": 460, "velocity": 100}, {"time": 38160, "pitch": 64, "duration": 460, "velocity": 95}, {"time": 38880, "pitch": 74, "duration": 1660, "velocity": 100}, {"time": 40560, "pitch": 73, "duration": 220, "velocity": 95}, {"time": 40800, "pitch": 73, "duration": 720, "velocity": 100}, {"time": 41760, "pitch": 74, "duration": 100, "velocity": 100}, {"time": 42000, "pitch": 74, "duration": 220, "velocity": 95}, {"time": 42240, "pitch": 74, "duration": 220, "velocity": 90}, {"time": 42480, "pitch": 76, "duration": 460, "velocity": 100}, {"time": 42960, "pitch": 74, "duration": 220, "velocity": 95}, {"time": 43200, "pitch": 76, "duration": 460, "velocity": 100}, {"time": 46560, "pitch": 74, "duration": 1660, "velocity": 100}, {"time": 48240, "pitch": 73, "duration": 220, "velocity": 95}, {"time": 48480, "pitch": 73, "duration": 720, "velocity": 100}, {"time": 49680, "pitch": 76, "duration": 220, "velocity": 100}, {"time": 49920, "pitch": 76, "duration": 220, "velocity": 95}, {"time": 50160, "pitch": 78, "duration": 460, "velocity": 100}, {"time": 50640, "pitch": 76, "duration": 220, "velocity": 95}, {"time": 50880, "pitch": 78, "duration": 220, "velocity": 100}, {"time": 51120, "pitch": 76, "duration": 220, "velocity": 95}, {"time": 51360, "pitch": 78, "duration": 220, "velocity": 100}, {"time": 51600, "pitch": 76, "duration": 220, "velocity": 95}, {"time": 51840, "pitch": 78, "duration": 220, "velocity": 100}, {"time": 52080, "pitch": 76, "duration": 220, "velocity": 95}, {"time": 52320, "pitch": 78, "duration": 460, "velocity": 100}, {"time": 53520, "pitch": 76, "duration": 220, "velocity": 100}, {"time": 53760, "pitch": 76, "duration": 220, "velocity": 95}, {"time": 54000, "pitch": 80, "duration": 460, "velocity": 100}, {"time": 54480, "pitch": 78, "duration": 220, "velocity": 95}, {"time": 54720, "pitch": 80, "duration": 220, "velocity": 100}, {"time": 54960, "pitch": 78, "duration": 220, "velocity": 95}, {"time": 55200, "pitch": 80, "duration": 220, "velocity": 100}, {"time": 55440, "pitch": 78, "duration": 220, "velocity": 95}, {"time": 55680, "pitch": 76, "duration": 220, "velocity": 90}, {"time": 55920, "pitch": 80, "duration": 460, "velocity": 100}, {"time": 56400, "pitch": 78, "duration": 220, "velocity": 95}, {"time": 56640, "pitch": 80, "duration": 220, "velocity": 100}, {"time": 56880, "pitch": 78, "duration": 220, "velocity": 95}, {"time": 57120, "pitch": 76, "duration": 450, "velocity": 100}, {"time": 58080, "pitch": 74, "duration": 220, "velocity": 100}, {"time": 58320, "pitch": 74, "duration": 220, "velocity": 95}, {"time": 58560, "pitch": 74, "duration": 220, "velocity": 100}, {"time": 58800, "pitch": 74, "duration": 220, "velocity": 95}, {"time": 59040, "pitch": 74, "duration": 220, "velocity": 100}, {"time": 59280, "pitch": 76, "duration": 460, "velocity": 95}, {"time": 59760, "pitch": 79, "duration": 460, "velocity": 100}, {"time": 60240, "pitch": 78, "duration": 220, "velocity": 95}, {"time": 60480, "pitch": 76, "duration": 670, "velocity": 100}, {"time": 61920, "pitch": 68, "duration": 220, "velocity": 100}, {"time": 62160, "pitch": 68, "duration": 220, "velocity": 95}, {"time": 62400, "pitch": 68, "duration": 220, "velocity": 100}, {"time": 62640, "pitch": 68, "duration": 220, "velocity": 95}, {"time": 62880, "pitch": 68, "duration": 220, "velocity": 100}, {"time": 63120, "pitch": 71, "duration": 220, "velocity": 95}, {"time": 63360, "pitch": 76, "duration": 220, "velocity": 100}, {"time": 63600, "pitch": 73, "duration": 710, "velocity": 95}, {"time": 65520, "pitch": 76, "duration": 220, "velocity": 90}, {"time": 65760, "pitch": 78, "duration": 220, "velocity": 100}, {"time": 66000, "pitch": 76, "duration": 220, "velocity": 95}, {"time": 66240, "pitch": 78, "duration": 220, "velocity": 100}, {"time": 66480, "pitch": 76, "duration": 220, "velocity": 95}, {"time": 66720, "pitch": 78, "duration": 220, "velocity": 100}, {"time": 66960, "pitch": 76, "duration": 220, "velocity": 95}, {"time": 67200, "pitch": 78, "duration": 220, "velocity": 90}, {"time": 67440, "pitch": 80, "duration": 490, "velocity": 100}, {"time": 67920, "pitch": 78, "duration": 780, "velocity": 95}, {"time": 68880, "pitch": 76, "duration": 220, "velocity": 100}, {"time": 69120, "pitch": 76, "duration": 220, "velocity": 95}, {"time": 69360, "pitch": 80, "duration": 460, "velocity": 100}, {"time": 69840, "pitch": 78, "duration": 220, "velocity": 95}, {"time": 70080, "pitch": 80, "duration": 220, "velocity": 100}, {"time": 70320, "pitch": 78, "duration": 220, "velocity": 95}, {"time": 70560, "pitch": 80, "duration": 220, "velocity": 100}, {"time": 70800, "pitch": 78, "duration": 220, "velocity": 95}, {"time": 71040, "pitch": 76, "duration": 220, "velocity": 90}, {"time": 71280, "pitch": 80, "duration": 460, "velocity": 100}, {"time": 71760, "pitch": 78, "duration": 220, "velocity": 95}, {"time": 72000, "pitch": 80, "duration": 220, "velocity": 100}, {"time": 72240, "pitch": 78, "duration": 220, "velocity": 95}, {"time": 72480, "pitch": 76, "duration": 460, "velocity": 100}, {"time": 73440, "pitch": 74, "duration": 220, "velocity": 100}, {"time": 73680, "pitch": 74, "duration": 220, "velocity": 95}, {"time": 73920, "pitch": 74, "duration": 220, "velocity": 100}, {"time": 74160, "pitch": 74, "duration": 220, "velocity": 95}, {"time": 74400, "pitch": 74, "duration": 220, "velocity": 100}, {"time": 74640, "pitch": 76, "duration": 460, "velocity": 95}, {"time": 75120, "pitch": 79, "duration": 460, "velocity": 100}, {"time": 75600, "pitch": 78, "duration": 230, "velocity": 95}, {"time": 75840, "pitch": 76, "duration": 480, "velocity": 100}, {"time": 77280, "pitch": 68, "duration": 220, "velocity": 100}, {"time": 77520, "pitch": 68, "duration": 220, "velocity": 95}, {"time": 77760, "pitch": 68, "duration": 220, "velocity": 100}, {"time": 78000, "pitch": 68, "duration": 220, "velocity": 95}, {"time": 78240, "pitch": 68, "duration": 220, "velocity": 100}, {"time": 78480, "pitch": 71, "duration": 220, "velocity": 95}, {"time": 78720, "pitch": 76, "duration": 220, "velocity": 100}, {"time": 78960, "pitch": 73, "duration": 700, "velocity": 95}, {"time": 81120, "pitch": 78, "duration": 220, "velocity": 100}, {"time": 81600, "pitch": 78, "duration": 220, "velocity": 100}, {"time": 81840, "pitch": 76, "duration": 220, "velocity": 95}, {"time": 82080, "pitch": 78, "duration": 220, "velocity": 100}, {"time": 82320, "pitch": 80, "duration": 460, "velocity": 95}, {"time": 82800, "pitch": 80, "duration": 220, "velocity": 90}, {"time": 83040, "pitch": 76, "duration": 1900, "velocity": 100}, {"time": 94800, "pitch": 71, "duration": 220, "velocity": 95}, {"time": 95040, "pitch": 71, "duration": 220, "velocity": 100}, {"time": 95280, "pitch": 71, "duration": 220, "velocity": 95}, {"time": 95520, "pitch": 71, "duration": 220, "velocity": 100}, {"time": 95760, "pitch": 71, "duration": 220, "velocity": 95}, {"time": 96000, "pitch": 69, "duration": 220, "velocity": 100}, {"time": 96240, "pitch": 68, "duration": 220, "velocity": 95}, {"time": 96480, "pitch": 69, "duration": 220, "velocity": 100}, {"time": 96720, "pitch": 68, "duration": 220, "velocity": 95}, {"time": 96960, "pitch": 69, "duration": 220, "velocity": 90}, {"time": 97200, "pitch": 71, "duration": 460, "velocity": 100}, {"time": 97680, "pitch": 68, "duration": 700, "velocity": 95}, {"time": 98640, "pitch": 66, "duration": 100, "velocity": 95}, {"time": 98880, "pitch": 67, "duration": 220, "velocity": 100}, {"time": 99120, "pitch": 67, "duration": 220, "velocity": 95}, {"time": 99360, "pitch": 67, "duration": 220, "velocity": 100}, {"time": 99600, "pitch": 67, "duration": 220, "velocity": 95}, {"time": 99840, "pitch": 67, "duration": 220, "velocity": 100}, {"time": 100080, "pitch": 64, "duration": 220, "velocity": 95}, {"time": 100320, "pitch": 67, "duration": 200, "velocity": 100}, {"time": 100800, "pitch": 64, "duration": 100, "velocity": 95}, {"time": 101040, "pitch": 67, "duration": 200, "velocity": 100}, {"time": 101520, "pitch": 64, "duration": 460, "velocity": 95}, {"time": 102480, "pitch": 71, "duration": 220, "velocity": 95}, {"time": 102720, "pitch": 71, "duration": 220, "velocity": 100}, {"time": 102960, "pitch": 71, "duration": 220, "velocity": 95}, {"time": 103200, "pitch": 71, "duration": 220, "velocity": 100}, {"time": 103440, "pitch": 71, "duration": 220, "velocity": 95}, {"time": 103680, "pitch": 69, "duration": 220, "velocity": 100}, {"time": 103920, "pitch": 68, "duration": 220, "velocity": 95}, {"time": 104160, "pitch": 69, "duration": 220, "velocity": 100}, {"time": 104400, "pitch": 68, "duration": 220, "velocity": 95}, {"time": 104640, "pitch": 69, "duration": 220, "velocity": 90}, {"time": 104880, "pitch": 71, "duration": 460, "velocity": 100}, {"time": 105360, "pitch": 68, "duration": 700, "velocity": 95}, {"time": 106320, "pitch": 67, "duration": 220, "velocity": 95}, {"time": 106800, "pitch": 67, "duration": 220, "velocity": 95}, {"time": 107040, "pitch": 67, "duration": 220, "velocity": 100}, {"time": 107280, "pitch": 67, "duration": 220, "velocity": 95}, {"time": 107520, "pitch": 67, "duration": 220, "velocity": 100}, {"time": 107760, "pitch": 64, "duration": 220, "velocity": 95}, {"time": 108000, "pitch": 67, "duration": 220, "velocity": 100}, {"time": 108240, "pitch": 67, "duration": 220, "velocity": 95}, {"time": 108480, "pitch": 64, "duration": 220, "velocity": 90}, {"time": 108720, "pitch": 67, "duration": 460, "velocity": 100}, {"time": 109200, "pitch": 64, "duration": 460, "velocity": 95}, {"time": 109920, "pitch": 74, "duration": 1660, "velocity": 100}, {"time": 111600, "pitch": 73, "duration": 220, "velocity": 95}, {"time": 111840, "pitch": 73, "duration": 720, "velocity": 100}, {"time": 112800, "pitch": 74, "duration": 100, "velocity": 100}, {"time": 113040, "pitch": 74, "duration": 220, "velocity": 95}, {"time": 113280, "pitch": 74, "duration": 220, "velocity": 90}, {"time": 113520, "pitch": 76, "duration": 460, "velocity": 100}, {"time": 114000, "pitch": 74, "duration": 220, "velocity": 95}, {"time": 114240, "pitch": 76, "duration": 460, "velocity": 100}, {"time": 117600, "pitch": 74, "duration": 1660, "velocity": 100}, {"time": 119280, "pitch": 73, "duration": 220, "velocity": 95}, {"time": 119520, "pitch": 73, "duration": 720, "velocity": 100}, {"time": 120720, "pitch": 76, "duration": 220, "velocity": 100}, {"time": 120960, "pitch": 76, "duration": 220, "velocity": 95}, {"time": 121200, "pitch": 78, "duration": 460, "velocity": 100}, {"time": 121680, "pitch": 76, "duration": 220, "velocity": 95}, {"time": 121920, "pitch": 78, "duration": 220, "velocity": 100}, {"time": 122160, "pitch": 76, "duration": 220, "velocity": 95}, {"time": 122400, "pitch": 78, "duration": 220, "velocity": 100}, {"time": 122640, "pitch": 76, "duration": 220, "velocity": 95}, {"time": 122880, "pitch": 78, "duration": 220, "velocity": 100}, {"time": 123120, "pitch": 76, "duration": 220, "velocity": 95}, {"time": 123360, "pitch": 78, "duration": 460, "velocity": 100}, {"time": 124560, "pitch": 76, "duration": 220, "velocity": 100}, {"time": 124800, "pitch": 76, "duration": 220, "velocity": 95}, {"time": 125040, "pitch": 80, "duration": 460, "velocity": 100}, {"time": 125520, "pitch": 78, "duration": 220, "velocity": 95}, {"time": 125760, "pitch": 80, "duration": 220, "velocity": 100}, {"time": 126000, "pitch": 78, "duration": 220, "velocity": 95}, {"time": 126240, "pitch": 80, "duration": 220, "velocity": 100}, {"time": 126480, "pitch": 78, "duration": 220, "velocity": 95}, {"time": 126720, "pitch": 76, "duration": 220, "velocity": 90}, {"time": 126960, "pitch": 80, "duration": 460, "velocity": 100}, {"time": 127440, "pitch": 78, "duration": 220, "velocity": 95}, {"time": 127680, "pitch": 80, "duration": 220, "velocity": 100}, {"time": 127920, "pitch": 78, "duration": 220, "velocity": 95}, {"time": 128160, "pitch": 76, "duration": 450, "velocity": 100}, {"time": 129120, "pitch": 74, "duration": 220, "velocity": 100}, {"time": 129360, "pitch": 74, "duration": 220, "velocity": 95}, {"time": 129600, "pitch": 74, "duration": 220, "velocity": 100}, {"time": 129840, "pitch": 74, "duration": 220, "velocity": 95}, {"time": 130080, "pitch": 74, "duration": 220, "velocity": 100}, {"time": 130320, "pitch": 76, "duration": 460, "velocity": 95}, {"time": 130800, "pitch": 79, "duration": 460, "velocity": 100}, {"time": 131280, "pitch": 78, "duration": 220, "velocity": 95}, {"time": 131520, "pitch": 76, "duration": 670, "velocity": 100}, {"time": 132960, "pitch": 68, "duration": 220, "velocity": 100}, {"time": 133200, "pitch": 68, "duration": 220, "velocity": 95}, {"time": 133440, "pitch": 68, "duration": 220, "velocity": 100}, {"time": 133680, "pitch": 68, "duration": 220, "velocity": 95}, {"time": 133920, "pitch": 68, "duration": 220, "velocity": 100}, {"time": 134160, "pitch": 71, "duration": 220, "velocity": 95}, {"time": 134400, "pitch": 76, "duration": 220, "velocity": 100}, {"time": 134640, "pitch": 73, "duration": 710, "velocity": 95}, {"time": 136560, "pitch": 76, "duration": 220, "velocity": 90}, {"time": 136800, "pitch": 78, "duration": 220, "velocity": 100}, {"time": 137040, "pitch": 76, "duration": 220, "velocity": 95}, {"time": 137280, "pitch": 78, "duration": 220, "velocity": 100}, {"time": 137520, "pitch": 76, "duration": 220, "velocity": 95}, {"time": 137760, "pitch": 78, "duration": 220, "velocity": 100}, {"time": 138000, "pitch": 76, "duration": 220, "velocity": 95}, {"time": 138240, "pitch": 78, "duration": 220, "velocity": 90}, {"time": 138480, "pitch": 80, "duration": 490, "velocity": 100}, {"time": 138960, "pitch": 78, "duration": 780, "velocity": 95}, {"time": 139920, "pitch": 76, "duration": 220, "velocity": 100}, {"time": 140160, "pitch": 76, "duration": 220, "velocity": 95}, {"time": 140400, "pitch": 80, "duration": 460, "velocity": 100}, {"time": 140880, "pitch": 78, "duration": 220, "velocity": 95}, {"time": 141120, "pitch": 80, "duration": 220, "velocity": 100}, {"time": 141360, "pitch": 78, "duration": 220, "velocity": 95}, {"time": 141600, "pitch": 80, "duration": 220, "velocity": 100}, {"time": 141840, "pitch": 78, "duration": 220, "velocity": 95}, {"time": 142080, "pitch": 76, "duration": 220, "velocity": 90}, {"time": 142320, "pitch": 80, "duration": 460, "velocity": 100}, {"time": 142800, "pitch": 78, "duration": 220, "velocity": 95}, {"time": 143040, "pitch": 80, "duration": 220, "velocity": 100}, {"time": 143280, "pitch": 78, "duration": 220, "velocity": 95}, {"time": 143520, "pitch": 76, "duration": 460, "velocity": 100}, {"time": 144480, "pitch": 74, "duration": 220, "velocity": 100}, {"time": 144720, "pitch": 74, "duration": 220, "velocity": 95}, {"time": 144960, "pitch": 74, "duration": 220, "velocity": 100}, {"time": 145200, "pitch": 74, "duration": 220, "velocity": 95}, {"time": 145440, "pitch": 74, "duration": 220, "velocity": 100}, {"time": 145680, "pitch": 76, "duration": 460, "velocity": 95}, {"time": 146160, "pitch": 79, "duration": 460, "velocity": 100}, {"time": 146640, "pitch": 78, "duration": 230, "velocity": 95}, {"time": 146880, "pitch": 76, "duration": 480, "velocity": 100}, {"time": 148320, "pitch": 68, "duration": 220, "velocity": 100}, {"time": 148560, "pitch": 68, "duration": 220, "velocity": 95}, {"time": 148800, "pitch": 68, "duration": 220, "velocity": 100}, {"time": 149040, "pitch": 68, "duration": 220, "velocity": 95}, {"time": 149280, "pitch": 68, "duration": 220, "velocity": 100}, {"time": 149520, "pitch": 71, "duration": 220, "velocity": 95}, {"time": 149760, "pitch": 76, "duration": 220, "velocity": 100}, {"time": 150000, "pitch": 73, "duration": 700, "velocity": 95}, {"time": 152160, "pitch": 78, "duration": 220, "velocity": 100}, {"time": 152640, "pitch": 78, "duration": 220, "velocity": 100}, {"time": 152880, "pitch": 76, "duration": 220, "velocity": 95}, {"time": 153120, "pitch": 78, "duration": 220, "velocity": 100}, {"time": 153360, "pitch": 80, "duration": 460, "velocity": 95}, {"time": 153840, "pitch": 80, "duration": 220, "velocity": 90}, {"time": 154080, "pitch": 76, "duration": 1440, "velocity": 100}, {"time": 155760, "pitch": 83, "duration": 220, "velocity": 100}, {"time": 156240, "pitch": 80, "duration": 240, "velocity": 95}, {"time": 156720, "pitch": 76, "duration": 700, "velocity": 100}, {"time": 187920, "pitch": 76, "duration": 220, "velocity": 100}, {"time": 188160, "pitch": 76, "duration": 220, "velocity": 95}, {"time": 188400, "pitch": 80, "duration": 460, "velocity": 100}, {"time": 188880, "pitch": 78, "duration": 220, "velocity": 95}, {"time": 189120, "pitch": 80, "duration": 220, "velocity": 100}, {"time": 189360, "pitch": 78, "duration": 220, "velocity": 95}, {"time": 189600, "pitch": 80, "duration": 220, "velocity": 100}, {"time": 189840, "pitch": 78, "duration": 220, "velocity": 95}, {"time": 190080, "pitch": 76, "duration": 220, "velocity": 90}, {"time": 190320, "pitch": 80, "duration": 460, "velocity": 100}, {"time": 190800, "pitch": 78, "duration": 220, "velocity": 95}, {"time": 191040, "pitch": 80, "duration": 220, "velocity": 100}, {"time": 191280, "pitch": 78, "duration": 220, "velocity": 95}, {"time": 191520, "pitch": 76, "duration": 450, "velocity": 100}, {"time": 192480, "pitch": 74, "duration": 220, "velocity": 100}, {"time": 192720, "pitch": 74, "duration": 220, "velocity": 95}, {"time": 192960, "pitch": 74, "duration": 220, "velocity": 100}, {"time": 193200, "pitch": 74, "duration": 220, "velocity": 95}, {"time": 193440, "pitch": 74, "duration": 220, "velocity": 100}, {"time": 193680, "pitch": 76, "duration": 460, "velocity": 95}, {"time": 194160, "pitch": 79, "duration": 460, "velocity": 100}, {"time": 194640, "pitch": 78, "duration": 220, "velocity": 95}, {"time": 194880, "pitch": 76, "duration": 670, "velocity": 100}, {"time": 196320, "pitch": 68, "duration": 220, "velocity": 100}, {"time": 196560, "pitch": 68, "duration": 220, "velocity": 95}, {"time": 196800, "pitch": 68, "duration": 220, "velocity": 100}, {"time": 197040, "pitch": 68, "duration": 220, "velocity": 95}, {"time": 197280, "pitch": 68, "duration": 220, "velocity": 100}, {"time": 197520, "pitch": 71, "duration": 220, "velocity": 95}, {"time": 197760, "pitch": 76, "duration": 220, "velocity": 100}, {"time": 198000, "pitch": 73, "duration": 710, "velocity": 95}, {"time": 199920, "pitch": 76, "duration": 220, "velocity": 90}, {"time": 200160, "pitch": 78, "duration": 220, "velocity": 100}, {"time": 200400, "pitch": 76, "duration": 220, "velocity": 95}, {"time": 200640, "pitch": 78, "duration": 220, "velocity": 100}, {"time": 200880, "pitch": 76, "duration": 220, "velocity": 95}, {"time": 201120, "pitch": 78, "duration": 220, "velocity": 100}, {"time": 201360, "pitch": 76, "duration": 220, "velocity": 95}, {"time": 201600, "pitch": 78, "duration": 220, "velocity": 90}, {"time": 201840, "pitch": 80, "duration": 490, "velocity": 100}, {"time": 202320, "pitch": 78, "duration": 780, "velocity": 95}, {"time": 203280, "pitch": 76, "duration": 220, "velocity": 100}, {"time": 203520, "pitch": 76, "duration": 220, "velocity": 95}, {"time": 203760, "pitch": 80, "duration": 460, "velocity": 100}, {"time": 204240, "pitch": 78, "duration": 220, "velocity": 95}, {"time": 204480, "pitch": 80, "duration": 220, "velocity": 100}, {"time": 204720, "pitch": 78, "duration": 220, "velocity": 95}, {"time": 204960, "pitch": 80, "duration": 220, "velocity": 100}, {"time": 205200, "pitch": 78, "duration": 220, "velocity": 95}, {"time": 205440, "pitch": 76, "duration": 220, "velocity": 90}, {"time": 205680, "pitch": 80, "duration": 460, "velocity": 100}, {"time": 206160, "pitch": 78, "duration": 220, "velocity": 95}, {"time": 206400, "pitch": 80, "duration": 220, "velocity": 100}, {"time": 206640, "pitch": 78, "duration": 220, "velocity": 95}, {"time": 206880, "pitch": 76, "duration": 460, "velocity": 100}, {"time": 207840, "pitch": 74, "duration": 220, "velocity": 100}, {"time": 208080, "pitch": 74, "duration": 220, "velocity": 95}, {"time": 208320, "pitch": 74, "duration": 220, "velocity": 100}, {"time": 208560, "pitch": 74, "duration": 220, "velocity": 95}, {"time": 208800, "pitch": 74, "duration": 220, "velocity": 100}, {"time": 209040, "pitch": 76, "duration": 460, "velocity": 95}, {"time": 209520, "pitch": 79, "duration": 460, "velocity": 100}, {"time": 210000, "pitch": 78, "duration": 230, "velocity": 95}, {"time": 210240, "pitch": 76, "duration": 480, "velocity": 100}, {"time": 211680, "pitch": 68, "duration": 220, "velocity": 100}, {"time": 211920, "pitch": 68, "duration": 220, "velocity": 95}, {"time": 212160, "pitch": 68, "duration": 220, "velocity": 100}, {"time": 212400, "pitch": 68, "duration": 220, "velocity": 95}, {"time": 212640, "pitch": 68, "duration": 220, "velocity": 100}, {"time": 212880, "pitch": 71, "duration": 220, "velocity": 95}, {"time": 213120, "pitch": 73, "duration": 220, "velocity": 100}, {"time": 213360, "pitch": 76, "duration": 460, "velocity": 95}, {"time": 213840, "pitch": 73, "duration": 700, "velocity": 90}, {"time": 215520, "pitch": 78, "duration": 220, "velocity": 100}, {"time": 216000, "pitch": 78, "duration": 220, "velocity": 100}, {"time": 216240, "pitch": 76, "duration": 220, "velocity": 95}, {"time": 216480, "pitch": 78, "duration": 220, "velocity": 100}, {"time": 216720, "pitch": 80, "duration": 460, "velocity": 95}, {"time": 217200, "pitch": 80, "duration": 220, "velocity": 90}, {"time": 217440, "pitch": 76, "duration": 1900, "velocity": 100}, {"time": 219600, "pitch": 83, "duration": 460, "velocity": 100}, {"time": 220080, "pitch": 81, "duration": 220, "velocity": 95}, {"time": 220320, "pitch": 80, "duration": 220, "velocity": 100}, {"time": 220560, "pitch": 76, "duration": 460, "velocity": 95}, {"time": 222960, "pitch": 76, "duration": 700, "velocity": 100}, {"time": 224400, "pitch": 79, "duration": 460, "velocity": 100}, {"time": 224880, "pitch": 78, "duration": 220, "velocity": 95}, {"time": 225120, "pitch": 76, "duration": 460, "velocity": 100}, {"time": 227280, "pitch": 74, "duration": 460, "velocity": 100}, {"time": 227760, "pitch": 74, "duration": 220, "velocity": 95}, {"time": 228000, "pitch": 74, "duration": 460, "velocity": 100}, {"time": 228480, "pitch": 74, "duration": 220, "velocity": 95}, {"time": 228720, "pitch": 76, "duration": 460, "velocity": 100}, {"time": 229200, "pitch": 64, "duration": 220, "velocity": 95}, {"time": 230640, "pitch": 83, "duration": 220, "velocity": 100}, {"time": 231120, "pitch": 80, "duration": 220, "velocity": 95}, {"time": 231600, "pitch": 76, "duration": 460, "velocity": 100}, {"time": 232080, "pitch": 64, "duration": 100, "velocity": 90}, {"time": 239280, "pitch": 76, "duration": 460, "velocity": 100}, {"time": 239760, "pitch": 76, "duration": 460, "velocity": 95}, {"time": 240240, "pitch": 76, "duration": 460, "velocity": 100}, {"time": 240720, "pitch": 80, "duration": 460, "velocity": 95}, {"time": 241200, "pitch": 76, "duration": 700, "velocity": 100}, {"time": 243600, "pitch": 74, "duration": 460, "velocity": 100}, {"time": 244080, "pitch": 76, "duration": 460, "velocity": 95}, {"time": 244560, "pitch": 79, "duration": 700, "velocity": 100}, {"time": 246000, "pitch": 81, "duration": 490, "velocity": 100}, {"time": 246960, "pitch": 83, "duration": 460, "velocity": 100}, {"time": 247440, "pitch": 82, "duration": 100, "velocity": 100}, {"time": 247560, "pitch": 81, "duration": 100, "velocity": 95}, {"time": 247680, "pitch": 79, "duration": 220, "velocity": 100}, {"time": 247920, "pitch": 76, "duration": 460, "velocity": 95}, {"time": 248400, "pitch": 74, "duration": 220, "velocity": 90}], "annotations": [{"time": 292, "annotation": {"number": 7, "value": 80}, "group": "control_change"}, {"time": 313, "annotation": {"number": 11, "value": 100}, "group": "control_change"}, {"time": 334, "annotation": {"number": 10, "value": 64}, "group": "control_change"}, {"time": 355, "annotation": {"number": 91, "value": 40}, "group": "control_change"}, {"time": 376, "annotation": {"number": 93, "value": 0}, "group": "control_change"}, {"time": 397, "annotation": {"number": 101, "value": 0}, "group": "control_change"}, {"time": 417, "annotation": {"number": 100, "value": 0}, "group": "control_change"}, {"time": 438, "annotation": {"number": 6, "value": 12}, "group": "control_change"}, {"time": 459, "annotation": {"number": 101, "value": 127}, "group": "control_change"}, {"time": 480, "annotation": {"number": 100, "value": 127}, "group": "control_change"}, {"time": 83520, "annotation": {"number": 11, "value": 99}, "group": "control_change"}, {"time": 83760, "annotation": {"number": 11, "value": 98}, "group": "control_change"}, {"time": 83920, "annotation": {"number": 11, "value": 97}, "group": "control_change"}, {"time": 84000, "annotation": {"number": 11, "value": 96}, "group": "control_change"}, {"time": 84080, "annotation": {"number": 11, "value": 95}, "group": "control_change"}, {"time": 84120, "annotation": {"number": 11, "value": 94}, "group": "control_change"}, {"time": 84200, "annotation": {"number": 11, "value": 93}, "group": "control_change"}, {"time": 84240, "annotation": {"number": 11, "value": 92}, "group": "control_change"}, {"time": 84280, "annotation": {"number": 11, "value": 91}, "group": "control_change"}, {"time": 84320, "annotation": {"number": 11, "value": 89}, "group": "control_change"}, {"time": 84360, "annotation": {"number": 11, "value": 88}, "group": "control_change"}, {"time": 84400, "annotation": {"number": 11, "value": 86}, "group": "control_change"}, {"time": 84440, "annotation": {"number": 11, "value": 85}, "group": "control_change"}, {"time": 84480, "annotation": {"number": 11, "value": 83}, "group": "control_change"}, {"time": 84520, "annotation": {"number": 11, "value": 81}, "group": "control_change"}, {"time": 84560, "annotation": {"number": 11, "value": 78}, "group": "control_change"}, {"time": 84600, "annotation": {"number": 11, "value": 75}, "group": "control_change"}, {"time": 84640, "annotation": {"number": 11, "value": 72}, "group": "control_change"}, {"time": 84680, "annotation": {"number": 11, "value": 68}, "group": "control_change"}, {"time": 84720, "annotation": {"number": 11, "value": 65}, "group": "control_change"}, {"time": 84760, "annotation": {"number": 11, "value": 60}, "group": "control_change"}, {"time": 84800, "annotation": {"number": 11, "value": 55}, "group": "control_change"}, {"time": 84840, "annotation": {"number": 11, "value": 49}, "group": "control_change"}, {"time": 84880, "annotation": {"number": 11, "value": 43}, "group": "control_change"}, {"time": 84920, "annotation": {"number": 11, "value": 36}, "group": "control_change"}, {"time": 86870, "annotation": {"number": 11, "value": 100}, "group": "control_change"}, {"time": 217920, "annotation": {"number": 11, "value": 99}, "group": "control_change"}, {"time": 218160, "annotation": {"number": 11, "value": 98}, "group": "control_change"}, {"time": 218320, "annotation": {"number": 11, "value": 97}, "group": "control_change"}, {"time": 218400, "annotation": {"number": 11, "value": 96}, "group": "control_change"}, {"time": 218480, "annotation": {"number": 11, "value": 95}, "group": "control_change"}, {"time": 218520, "annotation": {"number": 11, "value": 94}, "group": "control_change"}, {"time": 218600, "annotation": {"number": 11, "value": 93}, "group": "control_change"}, {"time": 218640, "annotation": {"number": 11, "value": 92}, "group": "control_change"}, {"time": 218680, "annotation": {"number": 11, "value": 91}, "group": "control_change"}, {"time": 218720, "annotation": {"number": 11, "value": 89}, "group": "control_change"}, {"time": 218760, "annotation": {"number": 11, "value": 88}, "group": "control_change"}, {"time": 218800, "annotation": {"number": 11, "value": 86}, "group": "control_change"}, {"time": 218840, "annotation": {"number": 11, "value": 85}, "group": "control_change"}, {"time": 218880, "annotation": {"number": 11, "value": 83}, "group": "control_change"}, {"time": 218920, "annotation": {"number": 11, "value": 81}, "group": "control_change"}, {"time": 218960, "annotation": {"number": 11, "value": 78}, "group": "control_change"}, {"time": 219000, "annotation": {"number": 11, "value": 75}, "group": "control_change"}, {"time": 219040, "annotation": {"number": 11, "value": 72}, "group": "control_change"}, {"time": 219080, "annotation": {"number": 11, "value": 68}, "group": "control_change"}, {"time": 219120, "annotation": {"number": 11, "value": 65}, "group": "control_change"}, {"time": 219160, "annotation": {"number": 11, "value": 60}, "group": "control_change"}, {"time": 219200, "annotation": {"number": 11, "value": 55}, "group": "control_change"}, {"time": 219240, "annotation": {"number": 11, "value": 49}, "group": "control_change"}, {"time": 219280, "annotation": {"number": 11, "value": 43}, "group": "control_change"}, {"time": 219320, "annotation": {"number": 11, "value": 36}, "group": "control_change"}, {"time": 219590, "annotation": {"number": 11, "value": 100}, "group": "control_change"}, {"time": 238560, "annotation": {"number": 11, "value": 88}, "group": "control_change"}, {"time": 238800, "annotation": {"number": 11, "value": 87}, "group": "control_change"}, {"time": 239040, "annotation": {"number": 11, "value": 85}, "group": "control_change"}, {"time": 239280, "annotation": {"number": 11, "value": 84}, "group": "control_change"}, {"time": 239520, "annotation": {"number": 11, "value": 82}, "group": "control_change"}, {"time": 239760, "annotation": {"number": 11, "value": 81}, "group": "control_change"}, {"time": 240000, "annotation": {"number": 11, "value": 79}, "group": "control_change"}, {"time": 240240, "annotation": {"number": 11, "value": 78}, "group": "control_change"}, {"time": 240480, "annotation": {"number": 11, "value": 76}, "group": "control_change"}, {"time": 240720, "annotation": {"number": 11, "value": 75}, "group": "control_change"}, {"time": 240960, "annotation": {"number": 11, "value": 73}, "group": "control_change"}, {"time": 241200, "annotation": {"number": 11, "value": 72}, "group": "control_change"}, {"time": 241440, "annotation": {"number": 11, "value": 70}, "group": "control_change"}, {"time": 241680, "annotation": {"number": 11, "value": 69}, "group": "control_change"}, {"time": 241920, "annotation": {"number": 11, "value": 67}, "group": "control_change"}, {"time": 242160, "annotation": {"number": 11, "value": 66}, "group": "control_change"}, {"time": 242400, "annotation": {"number": 11, "value": 64}, "group": "control_change"}, {"time": 242640, "annotation": {"number": 11, "value": 63}, "group": "control_change"}, {"time": 242880, "annotation": {"number": 11, "value": 61}, "group": "control_change"}, {"time": 243120, "annotation": {"number": 11, "value": 60}, "group": "control_change"}, {"time": 243360, "annotation": {"number": 11, "value": 58}, "group": "control_change"}, {"time": 243600, "annotation": {"number": 11, "value": 57}, "group": "control_change"}, {"time": 243840, "annotation": {"number": 11, "value": 55}, "group": "control_change"}, {"time": 244080, "annotation": {"number": 11, "value": 53}, "group": "control_change"}, {"time": 244320, "annotation": {"number": 11, "value": 52}, "group": "control_change"}, {"time": 244560, "annotation": {"number": 11, "value": 50}, "group": "control_change"}, {"time": 244800, "annotation": {"number": 11, "value": 49}, "group": "control_change"}, {"time": 245040, "annotation": {"number": 11, "value": 47}, "group": "control_change"}, {"time": 245280, "annotation": {"number": 11, "value": 46}, "group": "control_change"}, {"time": 245520, "annotation": {"number": 11, "value": 44}, "group": "control_change"}, {"time": 245760, "annotation": {"number": 11, "value": 43}, "group": "control_change"}, {"time": 246000, "annotation": {"number": 11, "value": 41}, "group": "control_change"}, {"time": 246240, "annotation": {"number": 11, "value": 40}, "group": "control_change"}, {"time": 246480, "annotation": {"number": 11, "value": 38}, "group": "control_change"}, {"time": 246720, "annotation": {"number": 11, "value": 37}, "group": "control_change"}, {"time": 246960, "annotation": {"number": 11, "value": 35}, "group": "control_change"}, {"time": 247200, "annotation": {"number": 11, "value": 34}, "group": "control_change"}, {"time": 247440, "annotation": {"number": 11, "value": 32}, "group": "control_change"}, {"time": 247680, "annotation": {"number": 11, "value": 31}, "group": "control_change"}, {"time": 247920, "annotation": {"number": 11, "value": 29}, "group": "control_change"}, {"time": 248160, "annotation": {"number": 11, "value": 28}, "group": "control_change"}, {"time": 248400, "annotation": {"number": 11, "value": 26}, "group": "control_change"}, {"time": 248640, "annotation": {"number": 11, "value": 25}, "group": "control_change"}, {"time": 248880, "annotation": {"number": 11, "value": 23}, "group": "control_change"}, {"time": 249120, "annotation": {"number": 11, "value": 22}, "group": "control_change"}, {"time": 249360, "annotation": {"number": 11, "value": 20}, "group": "control_change"}, {"time": 249600, "annotation": {"number": 11, "value": 19}, "group": "control_change"}, {"time": 249840, "annotation": {"number": 11, "value": 17}, "group": "control_change"}, {"time": 250080, "annotation": {"number": 11, "value": 16}, "group": "control_change"}, {"time": 250320, "annotation": {"number": 11, "value": 14}, "group": "control_change"}, {"time": 250560, "annotation": {"number": 11, "value": 13}, "group": "control_change"}, {"time": 250800, "annotation": {"number": 11, "value": 11}, "group": "control_change"}, {"time": 251040, "annotation": {"number": 11, "value": 10}, "group": "control_change"}, {"time": 251280, "annotation": {"number": 11, "value": 8}, "group": "control_change"}, {"time": 251520, "annotation": {"number": 11, "value": 6}, "group": "control_change"}, {"time": 251760, "annotation": {"number": 11, "value": 5}, "group": "control_change"}]}, {"program": 0, "is_drum": false, "name": "CHORUS", "annotations": [{"time": 230, "annotation": {"number": 0, "value": 8}, "group": "control_change"}, {"time": 250, "annotation": {"number": 32, "value": 0}, "group": "control_change"}]}, {"program": 54, "is_drum": false, "name": "CHORUS", "notes": [{"time": 38880, "pitch": 67, "duration": 1660, "velocity": 100}, {"time": 40560, "pitch": 64, "duration": 220, "velocity": 95}, {"time": 40800, "pitch": 64, "duration": 720, "velocity": 100}, {"time": 46560, "pitch": 67, "duration": 1660, "velocity": 100}, {"time": 48240, "pitch": 64, "duration": 220, "velocity": 95}, {"time": 48480, "pitch": 64, "duration": 720, "velocity": 100}, {"time": 55920, "pitch": 71, "duration": 460, "velocity": 100}, {"time": 56400, "pitch": 69, "duration": 220, "velocity": 95}, {"time": 56640, "pitch": 71, "duration": 220, "velocity": 100}, {"time": 56880, "pitch": 69, "duration": 220, "velocity": 95}, {"time": 57120, "pitch": 68, "duration": 450, "velocity": 100}, {"time": 71280, "pitch": 71, "duration": 460, "velocity": 100}, {"time": 71760, "pitch": 69, "duration": 220, "velocity": 95}, {"time": 72000, "pitch": 71, "duration": 220, "velocity": 100}, {"time": 72240, "pitch": 69, "duration": 220, "velocity": 95}, {"time": 72480, "pitch": 68, "duration": 450, "velocity": 100}, {"time": 81120, "pitch": 69, "duration": 220, "velocity": 100}, {"time": 81600, "pitch": 69, "duration": 220, "velocity": 100}, {"time": 81840, "pitch": 68, "duration": 220, "velocity": 95}, {"time": 82080, "pitch": 69, "duration": 220, "velocity": 100}, {"time": 82320, "pitch": 71, "duration": 460, "velocity": 95}, {"time": 82800, "pitch": 71, "duration": 220, "velocity": 90}, {"time": 83040, "pitch": 68, "duration": 1900, "velocity": 100}, {"time": 109920, "pitch": 67, "duration": 1660, "velocity": 100}, {"time": 111600, "pitch": 64, "duration": 220, "velocity": 95}, {"time": 111840, "pitch": 64, "duration": 720, "velocity": 100}, {"time": 117600, "pitch": 67, "duration": 1660, "velocity": 100}, {"time": 119280, "pitch": 64, "duration": 220, "velocity": 95}, {"time": 119520, "pitch": 64, "duration": 720, "velocity": 100}, {"time": 126960, "pitch": 71, "duration": 460, "velocity": 100}, {"time": 127440, "pitch": 69, "duration": 220, "velocity": 95}, {"time": 127680, "pitch": 71, "duration": 220, "velocity": 100}, {"time": 127920, "pitch": 69, "duration": 220, "velocity": 95}, {"time": 128160, "pitch": 68, "duration": 450, "velocity": 100}, {"time": 142320, "pitch": 71, "duration": 460, "velocity": 100}, {"time": 142800, "pitch": 69, "duration": 220, "velocity": 95}, {"time": 143040, "pitch": 71, "duration": 220, "velocity": 100}, {"time": 143280, "pitch": 69, "duration": 220, "velocity": 95}, {"time": 143520, "pitch": 68, "duration": 450, "velocity": 100}, {"time": 152160, "pitch": 69, "duration": 220, "velocity": 100}, {"time": 152640, "pitch": 69, "duration": 220, "velocity": 100}, {"time": 152880, "pitch": 68, "duration": 220, "velocity": 95}, {"time": 153120, "pitch": 69, "duration": 220, "velocity": 100}, {"time": 153360, "pitch": 71, "duration": 460, "velocity": 95}, {"time": 153840, "pitch": 71, "duration": 220, "velocity": 90}, {"time": 154080, "pitch": 68, "duration": 1900, "velocity": 100}, {"time": 190320, "pitch": 71, "duration": 460, "velocity": 100}, {"time": 190800, "pitch": 69, "duration": 220, "velocity": 95}, {"time": 191040, "pitch": 71, "duration": 220, "velocity": 100}, {"time": 191280, "pitch": 69, "duration": 220, "velocity": 95}, {"time": 191520, "pitch": 68, "duration": 450, "velocity": 100}, {"time": 205680, "pitch": 71, "duration": 460, "velocity": 100}, {"time": 206160, "pitch": 69, "duration": 220, "velocity": 95}, {"time": 206400, "pitch": 71, "duration": 220, "velocity": 100}, {"time": 206640, "pitch": 69, "duration": 220, "velocity": 95}, {"time": 206880, "pitch": 68, "duration": 450, "velocity": 100}, {"time": 215520, "pitch": 69, "duration": 220, "velocity": 100}, {"time": 216000, "pitch": 69, "duration": 220, "velocity": 100}, {"time": 216240, "pitch": 68, "duration": 220, "velocity": 95}, {"time": 216480, "pitch": 69, "duration": 220, "velocity": 100}, {"time": 216720, "pitch": 71, "duration": 460, "velocity": 95}, {"time": 217200, "pitch": 71, "duration": 220, "velocity": 90}, {"time": 217440, "pitch": 68, "duration": 1900, "velocity": 100}], "annotations": [{"time": 292, "annotation": {"number": 7, "value": 120}, "group": "control_change"}, {"time": 313, "annotation": {"number": 11, "value": 100}, "group": "control_change"}, {"time": 334, "annotation": {"number": 10, "value": 60}, "group": "control_change"}, {"time": 355, "annotation": {"number": 91, "value": 40}, "group": "control_change"}, {"time": 376, "annotation": {"number": 93, "value": 0}, "group": "control_change"}, {"time": 397, "annotation": {"number": 101, "value": 0}, "group": "control_change"}, {"time": 417, "annotation": {"number": 100, "value": 0}, "group": "control_change"}, {"time": 438, "annotation": {"number": 6, "value": 12}, "group": "control_change"}, {"time": 459, "annotation": {"number": 101, "value": 127}, "group": "control_change"}, {"time": 480, "annotation": {"number": 100, "value": 127}, "group": "control_change"}, {"time": 83520, "annotation": {"number": 11, "value": 99}, "group": "control_change"}, {"time": 83760, "annotation": {"number": 11, "value": 98}, "group": "control_change"}, {"time": 83920, "annotation": {"number": 11, "value": 97}, "group": "control_change"}, {"time": 84000, "annotation": {"number": 11, "value": 96}, "group": "control_change"}, {"time": 84080, "annotation": {"number": 11, "value": 95}, "group": "control_change"}, {"time": 84120, "annotation": {"number": 11, "value": 94}, "group": "control_change"}, {"time": 84200, "annotation": {"number": 11, "value": 93}, "group": "control_change"}, {"time": 84240, "annotation": {"number": 11, "value": 92}, "group": "control_change"}, {"time": 84280, "annotation": {"number": 11, "value": 91}, "group": "control_change"}, {"time": 84320, "annotation": {"number": 11, "value": 89}, "group": "control_change"}, {"time": 84360, "annotation": {"number": 11, "value": 88}, "group": "control_change"}, {"time": 84400, "annotation": {"number": 11, "value": 86}, "group": "control_change"}, {"time": 84440, "annotation": {"number": 11, "value": 85}, "group": "control_change"}, {"time": 84480, "annotation": {"number": 11, "value": 83}, "group": "control_change"}, {"time": 84520, "annotation": {"number": 11, "value": 81}, "group": "control_change"}, {"time": 84560, "annotation": {"number": 11, "value": 78}, "group": "control_change"}, {"time": 84600, "annotation": {"number": 11, "value": 75}, "group": "control_change"}, {"time": 84640, "annotation": {"number": 11, "value": 72}, "group": "control_change"}, {"time": 84680, "annotation": {"number": 11, "value": 68}, "group": "control_change"}, {"time": 84720, "annotation": {"number": 11, "value": 65}, "group": "control_change"}, {"time": 84760, "annotation": {"number": 11, "value": 60}, "group": "control_change"}, {"time": 84800, "annotation": {"number": 11, "value": 55}, "group": "control_change"}, {"time": 84840, "annotation": {"number": 11, "value": 49}, "group": "control_change"}, {"time": 84880, "annotation": {"number": 11, "value": 43}, "group": "control_change"}, {"time": 84920, "annotation": {"number": 11, "value": 36}, "group": "control_change"}, {"time": 86870, "annotation": {"number": 11, "value": 100}, "group": "control_change"}, {"time": 154560, "annotation": {"number": 11, "value": 99}, "group": "control_change"}, {"time": 154800, "annotation": {"number": 11, "value": 98}, "group": "control_change"}, {"time": 154960, "annotation": {"number": 11, "value": 97}, "group": "control_change"}, {"time": 155040, "annotation": {"number": 11, "value": 96}, "group": "control_change"}, {"time": 155120, "annotation": {"number": 11, "value": 95}, "group": "control_change"}, {"time": 155160, "annotation": {"number": 11, "value": 94}, "group": "control_change"}, {"time": 155240, "annotation": {"number": 11, "value": 93}, "group": "control_change"}, {"time": 155280, "annotation": {"number": 11, "value": 92}, "group": "control_change"}, {"time": 155320, "annotation": {"number": 11, "value": 91}, "group": "control_change"}, {"time": 155360, "annotation": {"number": 11, "value": 89}, "group": "control_change"}, {"time": 155400, "annotation": {"number": 11, "value": 88}, "group": "control_change"}, {"time": 155440, "annotation": {"number": 11, "value": 86}, "group": "control_change"}, {"time": 155480, "annotation": {"number": 11, "value": 85}, "group": "control_change"}, {"time": 155520, "annotation": {"number": 11, "value": 83}, "group": "control_change"}, {"time": 155560, "annotation": {"number": 11, "value": 81}, "group": "control_change"}, {"time": 155600, "annotation": {"number": 11, "value": 78}, "group": "control_change"}, {"time": 155640, "annotation": {"number": 11, "value": 75}, "group": "control_change"}, {"time": 155680, "annotation": {"number": 11, "value": 72}, "group": "control_change"}, {"time": 155720, "annotation": {"number": 11, "value": 68}, "group": "control_change"}, {"time": 155760, "annotation": {"number": 11, "value": 65}, "group": "control_change"}, {"time": 155800, "annotation": {"number": 11, "value": 60}, "group": "control_change"}, {"time": 155840, "annotation": {"number": 11, "value": 55}, "group": "control_change"}, {"time": 155880, "annotation": {"number": 11, "value": 49}, "group": "control_change"}, {"time": 155920, "annotation": {"number": 11, "value": 43}, "group": "control_change"}, {"time": 155960, "annotation": {"number": 11, "value": 36}, "group": "control_change"}, {"time": 157910, "annotation": {"number": 11, "value": 100}, "group": "control_change"}, {"time": 217920, "annotation": {"number": 11, "value": 99}, "group": "control_change"}, {"time": 218160, "annotation": {"number": 11, "value": 98}, "group": "control_change"}, {"time": 218320, "annotation": {"number": 11, "value": 97}, "group": "control_change"}, {"time": 218400, "annotation": {"number": 11, "value": 96}, "group": "control_change"}, {"time": 218480, "annotation": {"number": 11, "value": 95}, "group": "control_change"}, {"time": 218520, "annotation": {"number": 11, "value": 94}, "group": "control_change"}, {"time": 218600, "annotation": {"number": 11, "value": 93}, "group": "control_change"}, {"time": 218640, "annotation": {"number": 11, "value": 92}, "group": "control_change"}, {"time": 218680, "annotation": {"number": 11, "value": 91}, "group": "control_change"}, {"time": 218720, "annotation": {"number": 11, "value": 89}, "group": "control_change"}, {"time": 218760, "annotation": {"number": 11, "value": 88}, "group": "control_change"}, {"time": 218800, "annotation": {"number": 11, "value": 86}, "group": "control_change"}, {"time": 218840, "annotation": {"number": 11, "value": 85}, "group": "control_change"}, {"time": 218880, "annotation": {"number": 11, "value": 83}, "group": "control_change"}, {"time": 218920, "annotation": {"number": 11, "value": 81}, "group": "control_change"}, {"time": 218960, "annotation": {"number": 11, "value": 78}, "group": "control_change"}, {"time": 219000, "annotation": {"number": 11, "value": 75}, "group": "control_change"}, {"time": 219040, "annotation": {"number": 11, "value": 72}, "group": "control_change"}, {"time": 219080, "annotation": {"number": 11, "value": 68}, "group": "control_change"}, {"time": 219120, "annotation": {"number": 11, "value": 65}, "group": "control_change"}, {"time": 219160, "annotation": {"number": 11, "value": 60}, "group": "control_change"}, {"time": 219200, "annotation": {"number": 11, "value": 55}, "group": "control_change"}, {"time": 219240, "annotation": {"number": 11, "value": 49}, "group": "control_change"}, {"time": 219280, "annotation": {"number": 11, "value": 43}, "group": "control_change"}, {"time": 219320, "annotation": {"number": 11, "value": 36}, "group": "control_change"}, {"time": 221270, "annotation": {"number": 11, "value": 100}, "group": "control_change"}]}, {"program": 0, "is_drum": false, "name": "E.GUITAR 3", "annotations": [{"time": 230, "annotation": {"number": 0, "value": 1}, "group": "control_change"}, {"time": 250, "annotation": {"number": 32, "value": 0}, "group": "control_change"}]}, {"program": 30, "is_drum": false, "name": "E.GUITAR 3", "notes": [{"time": 480, "pitch": 52, "duration": 240, "velocity": 100}, {"time": 720, "pitch": 52, "duration": 480, "velocity": 90}, {"time": 960, "pitch": 64, "duration": 240, "velocity": 110}, {"time": 970, "pitch": 68, "duration": 240, "velocity": 60}, {"time": 1200, "pitch": 52, "duration": 240, "velocity": 90}, {"time": 1440, "pitch": 52, "duration": 480, "velocity": 100}, {"time": 1680, "pitch": 64, "duration": 240, "velocity": 110}, {"time": 1690, "pitch": 68, "duration": 240, "velocity": 60}, {"time": 1920, "pitch": 52, "duration": 240, "velocity": 100}, {"time": 2160, "pitch": 52, "duration": 480, "velocity": 90}, {"time": 2400, "pitch": 64, "duration": 240, "velocity": 110}, {"time": 2410, "pitch": 68, "duration": 240, "velocity": 60}, {"time": 2640, "pitch": 52, "duration": 240, "velocity": 90}, {"time": 2880, "pitch": 52, "duration": 720, "velocity": 100}, {"time": 3120, "pitch": 64, "duration": 480, "velocity": 110}, {"time": 3130, "pitch": 68, "duration": 480, "velocity": 60}, {"time": 3600, "pitch": 64, "duration": 240, "velocity": 110}, {"time": 3840, "pitch": 62, "duration": 240, "velocity": 107}, {"time": 4080, "pitch": 59, "duration": 240, "velocity": 105}, {"time": 4320, "pitch": 52, "duration": 240, "velocity": 100}, {"time": 4560, "pitch": 52, "duration": 480, "velocity": 90}, {"time": 4800, "pitch": 64, "duration": 240, "velocity": 110}, {"time": 4810, "pitch": 68, "duration": 240, "velocity": 60}, {"time": 5040, "pitch": 52, "duration": 240, "velocity": 90}, {"time": 5280, "pitch": 52, "duration": 480, "velocity": 100}, {"time": 5520, "pitch": 64, "duration": 240, "velocity": 110}, {"time": 5530, "pitch": 68, "duration": 240, "velocity": 60}, {"time": 5760, "pitch": 52, "duration": 240, "velocity": 100}, {"time": 6000, "pitch": 52, "duration": 480, "velocity": 90}, {"time": 6240, "pitch": 64, "duration": 240, "velocity": 110}, {"time": 6250, "pitch": 68, "duration": 240, "velocity": 60}, {"time": 6480, "pitch": 52, "duration": 240, "velocity": 90}, {"time": 6720, "pitch": 52, "duration": 720, "velocity": 100}, {"time": 6960, "pitch": 64, "duration": 480, "velocity": 110}, {"time": 6970, "pitch": 68, "duration": 480, "velocity": 60}, {"time": 7440, "pitch": 64, "duration": 240, "velocity": 110}, {"time": 7680, "pitch": 62, "duration": 240, "velocity": 107}, {"time": 7920, "pitch": 59, "duration": 240, "velocity": 105}, {"time": 8160, "pitch": 52, "duration": 240, "velocity": 100}, {"time": 8400, "pitch": 52, "duration": 480, "velocity": 90}, {"time": 8640, "pitch": 64, "duration": 240, "velocity": 110}, {"time": 8650, "pitch": 68, "duration": 240, "velocity": 60}, {"time": 8650, "pitch": 76, "duration": 240, "velocity": 90}, {"time": 8880, "pitch": 52, "duration": 240, "velocity": 90}, {"time": 9120, "pitch": 52, "duration": 480, "velocity": 100}, {"time": 9360, "pitch": 64, "duration": 240, "velocity": 110}, {"time": 9370, "pitch": 69, "duration": 240, "velocity": 80}, {"time": 9370, "pitch": 76, "duration": 240, "velocity": 100}, {"time": 9600, "pitch": 52, "duration": 240, "velocity": 100}, {"time": 9840, "pitch": 52, "duration": 480, "velocity": 90}, {"time": 10080, "pitch": 64, "duration": 240, "velocity": 110}, {"time": 10090, "pitch": 69, "duration": 240, "velocity": 80}, {"time": 10090, "pitch": 76, "duration": 240, "velocity": 105}, {"time": 10320, "pitch": 52, "duration": 240, "velocity": 90}, {"time": 10560, "pitch": 52, "duration": 720, "velocity": 100}, {"time": 10800, "pitch": 64, "duration": 480, "velocity": 110}, {"time": 10810, "pitch": 69, "duration": 480, "velocity": 80}, {"time": 10810, "pitch": 76, "duration": 470, "velocity": 105}, {"time": 11280, "pitch": 64, "duration": 240, "velocity": 90}, {"time": 11290, "pitch": 76, "duration": 240, "velocity": 110}, {"time": 11520, "pitch": 62, "duration": 240, "velocity": 87}, {"time": 11530, "pitch": 74, "duration": 240, "velocity": 107}, {"time": 11760, "pitch": 59, "duration": 240, "velocity": 85}, {"time": 11770, "pitch": 71, "duration": 230, "velocity": 105}, {"time": 12000, "pitch": 52, "duration": 240, "velocity": 100}, {"time": 12240, "pitch": 52, "duration": 480, "velocity": 90}, {"time": 12480, "pitch": 64, "duration": 240, "velocity": 100}, {"time": 12490, "pitch": 68, "duration": 240, "velocity": 60}, {"time": 12490, "pitch": 76, "duration": 240, "velocity": 110}, {"time": 12720, "pitch": 52, "duration": 240, "velocity": 90}, {"time": 12960, "pitch": 52, "duration": 480, "velocity": 100}, {"time": 13200, "pitch": 64, "duration": 240, "velocity": 100}, {"time": 13210, "pitch": 69, "duration": 240, "velocity": 80}, {"time": 13210, "pitch": 76, "duration": 240, "velocity": 110}, {"time": 13440, "pitch": 52, "duration": 240, "velocity": 100}, {"time": 13680, "pitch": 52, "duration": 480, "velocity": 90}, {"time": 13920, "pitch": 64, "duration": 240, "velocity": 100}, {"time": 13930, "pitch": 69, "duration": 240, "velocity": 80}, {"time": 13930, "pitch": 76, "duration": 240, "velocity": 110}, {"time": 14160, "pitch": 52, "duration": 240, "velocity": 90}, {"time": 14400, "pitch": 52, "duration": 720, "velocity": 100}, {"time": 14640, "pitch": 64, "duration": 480, "velocity": 100}, {"time": 14650, "pitch": 69, "duration": 480, "velocity": 80}, {"time": 14650, "pitch": 76, "duration": 470, "velocity": 110}, {"time": 15120, "pitch": 64, "duration": 240, "velocity": 90}, {"time": 15130, "pitch": 76, "duration": 240, "velocity": 110}, {"time": 15360, "pitch": 62, "duration": 240, "velocity": 87}, {"time": 15370, "pitch": 74, "duration": 240, "velocity": 107}, {"time": 15600, "pitch": 59, "duration": 240, "velocity": 85}, {"time": 15610, "pitch": 71, "duration": 230, "velocity": 105}, {"time": 15840, "pitch": 52, "duration": 240, "velocity": 100}, {"time": 16080, "pitch": 52, "duration": 480, "velocity": 90}, {"time": 16320, "pitch": 64, "duration": 240, "velocity": 100}, {"time": 16330, "pitch": 68, "duration": 240, "velocity": 60}, {"time": 16330, "pitch": 76, "duration": 240, "velocity": 110}, {"time": 16560, "pitch": 52, "duration": 240, "velocity": 90}, {"time": 16800, "pitch": 52, "duration": 480, "velocity": 100}, {"time": 17040, "pitch": 64, "duration": 240, "velocity": 100}, {"time": 17050, "pitch": 68, "duration": 240, "velocity": 80}, {"time": 17050, "pitch": 76, "duration": 240, "velocity": 110}, {"time": 17280, "pitch": 52, "duration": 240, "velocity": 100}, {"time": 17520, "pitch": 52, "duration": 480, "velocity": 90}, {"time": 17760, "pitch": 64, "duration": 240, "velocity": 100}, {"time": 17770, "pitch": 69, "duration": 240, "velocity": 80}, {"time": 17770, "pitch": 76, "duration": 240, "velocity": 110}, {"time": 18000, "pitch": 52, "duration": 240, "velocity": 90}, {"time": 18240, "pitch": 52, "duration": 720, "velocity": 100}, {"time": 18480, "pitch": 64, "duration": 480, "velocity": 100}, {"time": 18490, "pitch": 68, "duration": 480, "velocity": 80}, {"time": 18490, "pitch": 76, "duration": 470, "velocity": 110}, {"time": 18960, "pitch": 64, "duration": 240, "velocity": 90}, {"time": 18970, "pitch": 76, "duration": 240, "velocity": 110}, {"time": 19200, "pitch": 62, "duration": 240, "velocity": 87}, {"time": 19210, "pitch": 74, "duration": 240, "velocity": 107}, {"time": 19440, "pitch": 59, "duration": 240, "velocity": 85}, {"time": 19450, "pitch": 71, "duration": 230, "velocity": 105}, {"time": 19680, "pitch": 52, "duration": 240, "velocity": 100}, {"time": 19920, "pitch": 52, "duration": 480, "velocity": 90}, {"time": 20160, "pitch": 64, "duration": 240, "velocity": 100}, {"time": 20170, "pitch": 68, "duration": 240, "velocity": 60}, {"time": 20170, "pitch": 76, "duration": 240, "velocity": 110}, {"time": 20400, "pitch": 52, "duration": 240, "velocity": 90}, {"time": 20640, "pitch": 52, "duration": 480, "velocity": 100}, {"time": 20880, "pitch": 64, "duration": 240, "velocity": 100}, {"time": 20890, "pitch": 69, "duration": 240, "velocity": 80}, {"time": 20890, "pitch": 76, "duration": 240, "velocity": 110}, {"time": 21120, "pitch": 52, "duration": 240, "velocity": 100}, {"time": 21360, "pitch": 52, "duration": 480, "velocity": 90}, {"time": 21600, "pitch": 64, "duration": 240, "velocity": 100}, {"time": 21610, "pitch": 68, "duration": 240, "velocity": 80}, {"time": 21610, "pitch": 76, "duration": 240, "velocity": 110}, {"time": 21840, "pitch": 52, "duration": 240, "velocity": 90}, {"time": 22080, "pitch": 52, "duration": 720, "velocity": 100}, {"time": 22320, "pitch": 64, "duration": 480, "velocity": 100}, {"time": 22330, "pitch": 69, "duration": 480, "velocity": 80}, {"time": 22330, "pitch": 76, "duration": 470, "velocity": 110}, {"time": 22800, "pitch": 64, "duration": 240, "velocity": 90}, {"time": 22810, "pitch": 76, "duration": 240, "velocity": 110}, {"time": 23040, "pitch": 62, "duration": 240, "velocity": 87}, {"time": 23050, "pitch": 74, "duration": 240, "velocity": 107}, {"time": 23280, "pitch": 59, "duration": 240, "velocity": 85}, {"time": 23290, "pitch": 71, "duration": 230, "velocity": 105}, {"time": 38880, "pitch": 43, "duration": 240, "velocity": 110}, {"time": 38890, "pitch": 50, "duration": 240, "velocity": 100}, {"time": 39120, "pitch": 43, "duration": 240, "velocity": 100}, {"time": 39130, "pitch": 50, "duration": 240, "velocity": 90}, {"time": 39360, "pitch": 43, "duration": 240, "velocity": 110}, {"time": 39370, "pitch": 50, "duration": 240, "velocity": 100}, {"time": 39600, "pitch": 43, "duration": 240, "velocity": 100}, {"time": 39610, "pitch": 50, "duration": 240, "velocity": 90}, {"time": 39840, "pitch": 43, "duration": 240, "velocity": 110}, {"time": 39850, "pitch": 50, "duration": 240, "velocity": 100}, {"time": 40080, "pitch": 43, "duration": 240, "velocity": 100}, {"time": 40090, "pitch": 50, "duration": 240, "velocity": 90}, {"time": 40320, "pitch": 43, "duration": 240, "velocity": 110}, {"time": 40330, "pitch": 50, "duration": 240, "velocity": 100}, {"time": 40560, "pitch": 43, "duration": 240, "velocity": 100}, {"time": 40570, "pitch": 50, "duration": 230, "velocity": 90}, {"time": 40800, "pitch": 45, "duration": 240, "velocity": 110}, {"time": 40810, "pitch": 52, "duration": 240, "velocity": 100}, {"time": 41040, "pitch": 45, "duration": 240, "velocity": 100}, {"time": 41050, "pitch": 52, "duration": 240, "velocity": 90}, {"time": 41280, "pitch": 45, "duration": 240, "velocity": 110}, {"time": 41290, "pitch": 52, "duration": 240, "velocity": 100}, {"time": 41520, "pitch": 45, "duration": 240, "velocity": 100}, {"time": 41530, "pitch": 52, "duration": 240, "velocity": 90}, {"time": 41760, "pitch": 45, "duration": 240, "velocity": 110}, {"time": 41770, "pitch": 52, "duration": 240, "velocity": 100}, {"time": 42000, "pitch": 45, "duration": 240, "velocity": 100}, {"time": 42010, "pitch": 52, "duration": 240, "velocity": 90}, {"time": 42240, "pitch": 45, "duration": 240, "velocity": 110}, {"time": 42250, "pitch": 52, "duration": 240, "velocity": 100}, {"time": 42480, "pitch": 45, "duration": 240, "velocity": 100}, {"time": 42490, "pitch": 52, "duration": 230, "velocity": 90}, {"time": 42720, "pitch": 52, "duration": 240, "velocity": 110}, {"time": 42720, "pitch": 59, "duration": 240, "velocity": 90}, {"time": 42730, "pitch": 64, "duration": 240, "velocity": 80}, {"time": 42960, "pitch": 52, "duration": 40, "velocity": 90}, {"time": 42970, "pitch": 59, "duration": 40, "velocity": 100}, {"time": 43200, "pitch": 64, "duration": 240, "velocity": 110}, {"time": 43200, "pitch": 68, "duration": 240, "velocity": 70}, {"time": 43210, "pitch": 76, "duration": 240, "velocity": 90}, {"time": 43440, "pitch": 64, "duration": 40, "velocity": 90}, {"time": 43450, "pitch": 68, "duration": 40, "velocity": 100}, {"time": 43680, "pitch": 64, "duration": 240, "velocity": 110}, {"time": 43680, "pitch": 68, "duration": 240, "velocity": 70}, {"time": 43690, "pitch": 76, "duration": 240, "velocity": 90}, {"time": 43920, "pitch": 64, "duration": 240, "velocity": 110}, {"time": 43920, "pitch": 68, "duration": 240, "velocity": 70}, {"time": 43930, "pitch": 76, "duration": 240, "velocity": 90}, {"time": 44160, "pitch": 64, "duration": 40, "velocity": 90}, {"time": 44170, "pitch": 68, "duration": 40, "velocity": 100}, {"time": 44400, "pitch": 64, "duration": 240, "velocity": 110}, {"time": 44400, "pitch": 68, "duration": 240, "velocity": 70}, {"time": 44410, "pitch": 76, "duration": 230, "velocity": 90}, {"time": 44640, "pitch": 64, "duration": 40, "velocity": 90}, {"time": 44650, "pitch": 68, "duration": 40, "velocity": 100}, {"time": 44880, "pitch": 64, "duration": 240, "velocity": 105}, {"time": 44880, "pitch": 68, "duration": 240, "velocity": 65}, {"time": 44890, "pitch": 76, "duration": 240, "velocity": 85}, {"time": 45120, "pitch": 64, "duration": 240, "velocity": 110}, {"time": 45120, "pitch": 68, "duration": 240, "velocity": 70}, {"time": 45130, "pitch": 76, "duration": 240, "velocity": 90}, {"time": 45360, "pitch": 64, "duration": 240, "velocity": 105}, {"time": 45360, "pitch": 68, "duration": 240, "velocity": 65}, {"time": 45370, "pitch": 76, "duration": 240, "velocity": 85}, {"time": 45600, "pitch": 64, "duration": 240, "velocity": 110}, {"time": 45600, "pitch": 68, "duration": 240, "velocity": 70}, {"time": 45610, "pitch": 76, "duration": 240, "velocity": 90}, {"time": 45840, "pitch": 64, "duration": 240, "velocity": 105}, {"time": 45840, "pitch": 68, "duration": 240, "velocity": 65}, {"time": 45850, "pitch": 76, "duration": 240, "velocity": 85}, {"time": 46080, "pitch": 62, "duration": 240, "velocity": 110}, {"time": 46080, "pitch": 66, "duration": 240, "velocity": 70}, {"time": 46090, "pitch": 74, "duration": 240, "velocity": 90}, {"time": 46320, "pitch": 64, "duration": 240, "velocity": 105}, {"time": 46320, "pitch": 68, "duration": 240, "velocity": 65}, {"time": 46330, "pitch": 76, "duration": 230, "velocity": 85}, {"time": 46560, "pitch": 43, "duration": 240, "velocity": 110}, {"time": 46570, "pitch": 50, "duration": 240, "velocity": 100}, {"time": 46800, "pitch": 43, "duration": 240, "velocity": 100}, {"time": 46810, "pitch": 50, "duration": 240, "velocity": 90}, {"time": 47040, "pitch": 43, "duration": 240, "velocity": 110}, {"time": 47050, "pitch": 50, "duration": 240, "velocity": 100}, {"time": 47280, "pitch": 43, "duration": 240, "velocity": 100}, {"time": 47290, "pitch": 50, "duration": 240, "velocity": 90}, {"time": 47520, "pitch": 43, "duration": 240, "velocity": 110}, {"time": 47530, "pitch": 50, "duration": 240, "velocity": 100}, {"time": 47760, "pitch": 43, "duration": 240, "velocity": 100}, {"time": 47770, "pitch": 50, "duration": 240, "velocity": 90}, {"time": 48000, "pitch": 43, "duration": 240, "velocity": 110}, {"time": 48010, "pitch": 50, "duration": 240, "velocity": 100}, {"time": 48240, "pitch": 43, "duration": 240, "velocity": 100}, {"time": 48250, "pitch": 50, "duration": 230, "velocity": 90}, {"time": 48480, "pitch": 45, "duration": 240, "velocity": 110}, {"time": 48490, "pitch": 52, "duration": 240, "velocity": 100}, {"time": 48720, "pitch": 45, "duration": 240, "velocity": 100}, {"time": 48730, "pitch": 52, "duration": 240, "velocity": 90}, {"time": 48960, "pitch": 45, "duration": 240, "velocity": 110}, {"time": 48970, "pitch": 52, "duration": 240, "velocity": 100}, {"time": 49200, "pitch": 45, "duration": 240, "velocity": 100}, {"time": 49210, "pitch": 52, "duration": 240, "velocity": 90}, {"time": 49440, "pitch": 45, "duration": 240, "velocity": 110}, {"time": 49450, "pitch": 52, "duration": 240, "velocity": 100}, {"time": 49680, "pitch": 45, "duration": 240, "velocity": 100}, {"time": 49690, "pitch": 52, "duration": 240, "velocity": 90}, {"time": 49920, "pitch": 45, "duration": 240, "velocity": 110}, {"time": 49930, "pitch": 52, "duration": 240, "velocity": 100}, {"time": 50160, "pitch": 45, "duration": 240, "velocity": 100}, {"time": 50170, "pitch": 52, "duration": 230, "velocity": 90}, {"time": 50400, "pitch": 47, "duration": 240, "velocity": 110}, {"time": 50400, "pitch": 54, "duration": 240, "velocity": 100}, {"time": 50410, "pitch": 59, "duration": 240, "velocity": 90}, {"time": 50410, "pitch": 66, "duration": 240, "velocity": 95}, {"time": 50640, "pitch": 47, "duration": 240, "velocity": 105}, {"time": 50640, "pitch": 54, "duration": 240, "velocity": 95}, {"time": 50650, "pitch": 59, "duration": 240, "velocity": 85}, {"time": 50650, "pitch": 66, "duration": 240, "velocity": 90}, {"time": 50880, "pitch": 47, "duration": 240, "velocity": 110}, {"time": 50880, "pitch": 54, "duration": 240, "velocity": 100}, {"time": 50890, "pitch": 59, "duration": 240, "velocity": 90}, {"time": 50890, "pitch": 66, "duration": 240, "velocity": 95}, {"time": 51120, "pitch": 47, "duration": 240, "velocity": 105}, {"time": 51120, "pitch": 54, "duration": 240, "velocity": 95}, {"time": 51130, "pitch": 59, "duration": 240, "velocity": 85}, {"time": 51130, "pitch": 64, "duration": 240, "velocity": 90}, {"time": 51360, "pitch": 47, "duration": 240, "velocity": 110}, {"time": 51360, "pitch": 54, "duration": 240, "velocity": 100}, {"time": 51370, "pitch": 59, "duration": 240, "velocity": 90}, {"time": 51370, "pitch": 66, "duration": 240, "velocity": 95}, {"time": 51600, "pitch": 47, "duration": 240, "velocity": 105}, {"time": 51600, "pitch": 54, "duration": 240, "velocity": 95}, {"time": 51610, "pitch": 59, "duration": 240, "velocity": 85}, {"time": 51610, "pitch": 64, "duration": 240, "velocity": 95}, {"time": 51840, "pitch": 47, "duration": 40, "velocity": 100}, {"time": 51840, "pitch": 54, "duration": 40, "velocity": 90}, {"time": 51850, "pitch": 59, "duration": 40, "velocity": 80}, {"time": 52080, "pitch": 47, "duration": 240, "velocity": 105}, {"time": 52080, "pitch": 54, "duration": 240, "velocity": 95}, {"time": 52090, "pitch": 59, "duration": 230, "velocity": 85}, {"time": 52090, "pitch": 66, "duration": 230, "velocity": 90}, {"time": 52320, "pitch": 47, "duration": 240, "velocity": 110}, {"time": 52320, "pitch": 54, "duration": 240, "velocity": 100}, {"time": 52330, "pitch": 59, "duration": 230, "velocity": 90}, {"time": 52330, "pitch": 66, "duration": 230, "velocity": 95}, {"time": 54000, "pitch": 52, "duration": 480, "velocity": 110}, {"time": 54000, "pitch": 59, "duration": 480, "velocity": 100}, {"time": 54010, "pitch": 64, "duration": 470, "velocity": 95}, {"time": 54010, "pitch": 68, "duration": 470, "velocity": 100}, {"time": 54480, "pitch": 52, "duration": 240, "velocity": 100}, {"time": 54480, "pitch": 59, "duration": 240, "velocity": 90}, {"time": 54490, "pitch": 64, "duration": 240, "velocity": 85}, {"time": 54490, "pitch": 68, "duration": 240, "velocity": 90}, {"time": 54720, "pitch": 52, "duration": 240, "velocity": 110}, {"time": 54720, "pitch": 59, "duration": 240, "velocity": 100}, {"time": 54730, "pitch": 64, "duration": 240, "velocity": 95}, {"time": 54730, "pitch": 68, "duration": 240, "velocity": 100}, {"time": 54960, "pitch": 52, "duration": 240, "velocity": 100}, {"time": 54960, "pitch": 59, "duration": 240, "velocity": 90}, {"time": 54970, "pitch": 64, "duration": 240, "velocity": 85}, {"time": 54970, "pitch": 68, "duration": 240, "velocity": 90}, {"time": 55200, "pitch": 52, "duration": 240, "velocity": 110}, {"time": 55200, "pitch": 59, "duration": 240, "velocity": 100}, {"time": 55210, "pitch": 64, "duration": 240, "velocity": 95}, {"time": 55210, "pitch": 68, "duration": 240, "velocity": 100}, {"time": 55440, "pitch": 52, "duration": 240, "velocity": 100}, {"time": 55440, "pitch": 59, "duration": 240, "velocity": 90}, {"time": 55450, "pitch": 64, "duration": 240, "velocity": 85}, {"time": 55450, "pitch": 69, "duration": 240, "velocity": 90}, {"time": 55680, "pitch": 52, "duration": 240, "velocity": 110}, {"time": 55680, "pitch": 59, "duration": 240, "velocity": 100}, {"time": 55690, "pitch": 64, "duration": 240, "velocity": 95}, {"time": 55690, "pitch": 69, "duration": 240, "velocity": 100}, {"time": 55920, "pitch": 52, "duration": 240, "velocity": 100}, {"time": 55920, "pitch": 59, "duration": 240, "velocity": 90}, {"time": 55930, "pitch": 64, "duration": 230, "velocity": 85}, {"time": 55930, "pitch": 68, "duration": 230, "velocity": 90}, {"time": 56160, "pitch": 52, "duration": 240, "velocity": 110}, {"time": 56160, "pitch": 59, "duration": 240, "velocity": 100}, {"time": 56170, "pitch": 64, "duration": 240, "velocity": 95}, {"time": 56170, "pitch": 69, "duration": 240, "velocity": 100}, {"time": 56400, "pitch": 52, "duration": 240, "velocity": 100}, {"time": 56400, "pitch": 59, "duration": 240, "velocity": 90}, {"time": 56410, "pitch": 64, "duration": 230, "velocity": 85}, {"time": 56410, "pitch": 69, "duration": 230, "velocity": 90}, {"time": 56640, "pitch": 52, "duration": 240, "velocity": 110}, {"time": 56640, "pitch": 59, "duration": 240, "velocity": 100}, {"time": 56650, "pitch": 64, "duration": 240, "velocity": 95}, {"time": 56650, "pitch": 69, "duration": 240, "velocity": 100}, {"time": 56880, "pitch": 52, "duration": 240, "velocity": 100}, {"time": 56880, "pitch": 59, "duration": 240, "velocity": 90}, {"time": 56890, "pitch": 64, "duration": 230, "velocity": 85}, {"time": 56890, "pitch": 69, "duration": 230, "velocity": 90}, {"time": 57120, "pitch": 52, "duration": 240, "velocity": 110}, {"time": 57120, "pitch": 59, "duration": 240, "velocity": 100}, {"time": 57130, "pitch": 64, "duration": 240, "velocity": 95}, {"time": 57130, "pitch": 69, "duration": 240, "velocity": 100}, {"time": 57360, "pitch": 52, "duration": 240, "velocity": 100}, {"time": 57360, "pitch": 59, "duration": 240, "velocity": 90}, {"time": 57370, "pitch": 64, "duration": 230, "velocity": 85}, {"time": 57370, "pitch": 69, "duration": 230, "velocity": 90}, {"time": 57600, "pitch": 52, "duration": 240, "velocity": 90}, {"time": 57600, "pitch": 59, "duration": 240, "velocity": 80}, {"time": 57610, "pitch": 64, "duration": 470, "velocity": 110}, {"time": 58080, "pitch": 50, "duration": 240, "velocity": 90}, {"time": 58080, "pitch": 57, "duration": 240, "velocity": 100}, {"time": 58090, "pitch": 62, "duration": 240, "velocity": 110}, {"time": 58320, "pitch": 50, "duration": 240, "velocity": 80}, {"time": 58320, "pitch": 57, "duration": 240, "velocity": 90}, {"time": 58330, "pitch": 62, "duration": 240, "velocity": 100}, {"time": 58560, "pitch": 50, "duration": 240, "velocity": 90}, {"time": 58560, "pitch": 57, "duration": 240, "velocity": 100}, {"time": 58570, "pitch": 62, "duration": 240, "velocity": 110}, {"time": 58800, "pitch": 50, "duration": 240, "velocity": 80}, {"time": 58800, "pitch": 57, "duration": 240, "velocity": 90}, {"time": 58810, "pitch": 62, "duration": 240, "velocity": 100}, {"time": 59040, "pitch": 50, "duration": 240, "velocity": 90}, {"time": 59040, "pitch": 57, "duration": 240, "velocity": 100}, {"time": 59050, "pitch": 62, "duration": 240, "velocity": 110}, {"time": 59280, "pitch": 50, "duration": 240, "velocity": 80}, {"time": 59280, "pitch": 57, "duration": 240, "velocity": 90}, {"time": 59290, "pitch": 62, "duration": 240, "velocity": 100}, {"time": 59520, "pitch": 50, "duration": 240, "velocity": 85}, {"time": 59520, "pitch": 57, "duration": 240, "velocity": 95}, {"time": 59530, "pitch": 62, "duration": 240, "velocity": 105}, {"time": 59760, "pitch": 49, "duration": 480, "velocity": 90}, {"time": 59760, "pitch": 56, "duration": 480, "velocity": 100}, {"time": 59770, "pitch": 61, "duration": 470, "velocity": 110}, {"time": 60240, "pitch": 49, "duration": 240, "velocity": 80}, {"time": 60240, "pitch": 56, "duration": 240, "velocity": 90}, {"time": 60250, "pitch": 61, "duration": 240, "velocity": 100}, {"time": 60480, "pitch": 49, "duration": 240, "velocity": 90}, {"time": 60480, "pitch": 56, "duration": 240, "velocity": 100}, {"time": 60490, "pitch": 61, "duration": 240, "velocity": 110}, {"time": 60720, "pitch": 49, "duration": 240, "velocity": 80}, {"time": 60720, "pitch": 56, "duration": 240, "velocity": 90}, {"time": 60730, "pitch": 61, "duration": 240, "velocity": 100}, {"time": 60960, "pitch": 49, "duration": 240, "velocity": 90}, {"time": 60960, "pitch": 56, "duration": 240, "velocity": 100}, {"time": 60970, "pitch": 61, "duration": 240, "velocity": 110}, {"time": 60970, "pitch": 64, "duration": 240, "velocity": 100}, {"time": 61200, "pitch": 49, "duration": 240, "velocity": 80}, {"time": 61200, "pitch": 56, "duration": 240, "velocity": 90}, {"time": 61210, "pitch": 61, "duration": 240, "velocity": 100}, {"time": 61210, "pitch": 63, "duration": 240, "velocity": 90}, {"time": 61440, "pitch": 49, "duration": 240, "velocity": 90}, {"time": 61440, "pitch": 56, "duration": 240, "velocity": 100}, {"time": 61450, "pitch": 61, "duration": 240, "velocity": 110}, {"time": 61680, "pitch": 49, "duration": 240, "velocity": 80}, {"time": 61680, "pitch": 56, "duration": 240, "velocity": 90}, {"time": 61690, "pitch": 61, "duration": 230, "velocity": 100}, {"time": 61920, "pitch": 44, "duration": 240, "velocity": 110}, {"time": 61930, "pitch": 51, "duration": 240, "velocity": 100}, {"time": 62160, "pitch": 44, "duration": 240, "velocity": 100}, {"time": 62170, "pitch": 51, "duration": 240, "velocity": 90}, {"time": 62400, "pitch": 44, "duration": 240, "velocity": 110}, {"time": 62410, "pitch": 51, "duration": 240, "velocity": 100}, {"time": 62640, "pitch": 44, "duration": 240, "velocity": 100}, {"time": 62650, "pitch": 51, "duration": 240, "velocity": 90}, {"time": 62880, "pitch": 44, "duration": 240, "velocity": 105}, {"time": 63120, "pitch": 47, "duration": 480, "velocity": 110}, {"time": 63600, "pitch": 49, "duration": 1200, "velocity": 110}, {"time": 64080, "pitch": 56, "duration": 240, "velocity": 95}, {"time": 64080, "pitch": 61, "duration": 240, "velocity": 65}, {"time": 64090, "pitch": 68, "duration": 240, "velocity": 105}, {"time": 64320, "pitch": 56, "duration": 240, "velocity": 100}, {"time": 64320, "pitch": 61, "duration": 240, "velocity": 70}, {"time": 64330, "pitch": 71, "duration": 240, "velocity": 110}, {"time": 64560, "pitch": 56, "duration": 240, "velocity": 95}, {"time": 64560, "pitch": 61, "duration": 240, "velocity": 65}, {"time": 64570, "pitch": 68, "duration": 240, "velocity": 105}, {"time": 64800, "pitch": 54, "duration": 240, "velocity": 100}, {"time": 64800, "pitch": 61, "duration": 240, "velocity": 70}, {"time": 64810, "pitch": 66, "duration": 240, "velocity": 110}, {"time": 65040, "pitch": 54, "duration": 240, "velocity": 95}, {"time": 65040, "pitch": 61, "duration": 240, "velocity": 65}, {"time": 65050, "pitch": 68, "duration": 240, "velocity": 105}, {"time": 65280, "pitch": 54, "duration": 240, "velocity": 90}, {"time": 65280, "pitch": 61, "duration": 240, "velocity": 60}, {"time": 65290, "pitch": 63, "duration": 240, "velocity": 100}, {"time": 65520, "pitch": 54, "duration": 30, "velocity": 80}, {"time": 65520, "pitch": 61, "duration": 30, "velocity": 90}, {"time": 65530, "pitch": 66, "duration": 30, "velocity": 100}, {"time": 65640, "pitch": 61, "duration": 30, "velocity": 95}, {"time": 65640, "pitch": 66, "duration": 30, "velocity": 105}, {"time": 65650, "pitch": 54, "duration": 30, "velocity": 85}, {"time": 65760, "pitch": 42, "duration": 240, "velocity": 110}, {"time": 65770, "pitch": 49, "duration": 240, "velocity": 100}, {"time": 66000, "pitch": 42, "duration": 240, "velocity": 100}, {"time": 66010, "pitch": 49, "duration": 240, "velocity": 90}, {"time": 66240, "pitch": 42, "duration": 240, "velocity": 110}, {"time": 66250, "pitch": 49, "duration": 240, "velocity": 100}, {"time": 66480, "pitch": 42, "duration": 240, "velocity": 100}, {"time": 66490, "pitch": 49, "duration": 240, "velocity": 90}, {"time": 66720, "pitch": 42, "duration": 240, "velocity": 105}, {"time": 66960, "pitch": 45, "duration": 480, "velocity": 110}, {"time": 67440, "pitch": 47, "duration": 480, "velocity": 110}, {"time": 67450, "pitch": 54, "duration": 470, "velocity": 100}, {"time": 67920, "pitch": 47, "duration": 240, "velocity": 100}, {"time": 67930, "pitch": 54, "duration": 240, "velocity": 100}, {"time": 68160, "pitch": 47, "duration": 240, "velocity": 105}, {"time": 68170, "pitch": 54, "duration": 230, "velocity": 95}, {"time": 68400, "pitch": 47, "duration": 240, "velocity": 95}, {"time": 68400, "pitch": 54, "duration": 240, "velocity": 100}, {"time": 68410, "pitch": 59, "duration": 240, "velocity": 105}, {"time": 68410, "pitch": 66, "duration": 240, "velocity": 110}, {"time": 68640, "pitch": 47, "duration": 240, "velocity": 95}, {"time": 68650, "pitch": 54, "duration": 230, "velocity": 85}, {"time": 68880, "pitch": 47, "duration": 240, "velocity": 95}, {"time": 68880, "pitch": 54, "duration": 240, "velocity": 100}, {"time": 68890, "pitch": 59, "duration": 470, "velocity": 105}, {"time": 68890, "pitch": 66, "duration": 480, "velocity": 110}, {"time": 69120, "pitch": 47, "duration": 240, "velocity": 95}, {"time": 69130, "pitch": 54, "duration": 230, "velocity": 85}, {"time": 69360, "pitch": 52, "duration": 480, "velocity": 110}, {"time": 69360, "pitch": 59, "duration": 480, "velocity": 100}, {"time": 69370, "pitch": 64, "duration": 470, "velocity": 95}, {"time": 69370, "pitch": 68, "duration": 470, "velocity": 100}, {"time": 69840, "pitch": 52, "duration": 240, "velocity": 100}, {"time": 69840, "pitch": 59, "duration": 240, "velocity": 90}, {"time": 69850, "pitch": 64, "duration": 240, "velocity": 85}, {"time": 69850, "pitch": 68, "duration": 240, "velocity": 90}, {"time": 70080, "pitch": 52, "duration": 240, "velocity": 110}, {"time": 70080, "pitch": 59, "duration": 240, "velocity": 100}, {"time": 70090, "pitch": 64, "duration": 240, "velocity": 95}, {"time": 70090, "pitch": 68, "duration": 240, "velocity": 100}, {"time": 70320, "pitch": 52, "duration": 240, "velocity": 100}, {"time": 70320, "pitch": 59, "duration": 240, "velocity": 90}, {"time": 70330, "pitch": 64, "duration": 240, "velocity": 85}, {"time": 70330, "pitch": 68, "duration": 240, "velocity": 90}, {"time": 70560, "pitch": 52, "duration": 240, "velocity": 110}, {"time": 70560, "pitch": 59, "duration": 240, "velocity": 100}, {"time": 70570, "pitch": 64, "duration": 240, "velocity": 95}, {"time": 70570, "pitch": 68, "duration": 240, "velocity": 100}, {"time": 70800, "pitch": 52, "duration": 240, "velocity": 100}, {"time": 70800, "pitch": 59, "duration": 240, "velocity": 90}, {"time": 70810, "pitch": 64, "duration": 240, "velocity": 85}, {"time": 70810, "pitch": 68, "duration": 240, "velocity": 90}, {"time": 71040, "pitch": 52, "duration": 240, "velocity": 110}, {"time": 71040, "pitch": 59, "duration": 240, "velocity": 100}, {"time": 71050, "pitch": 64, "duration": 240, "velocity": 95}, {"time": 71050, "pitch": 68, "duration": 240, "velocity": 100}, {"time": 71280, "pitch": 52, "duration": 240, "velocity": 100}, {"time": 71280, "pitch": 59, "duration": 240, "velocity": 90}, {"time": 71290, "pitch": 64, "duration": 230, "velocity": 85}, {"time": 71290, "pitch": 69, "duration": 230, "velocity": 90}, {"time": 71520, "pitch": 52, "duration": 240, "velocity": 110}, {"time": 71520, "pitch": 59, "duration": 240, "velocity": 100}, {"time": 71530, "pitch": 64, "duration": 240, "velocity": 95}, {"time": 71530, "pitch": 69, "duration": 240, "velocity": 100}, {"time": 71760, "pitch": 52, "duration": 240, "velocity": 100}, {"time": 71760, "pitch": 59, "duration": 240, "velocity": 90}, {"time": 71770, "pitch": 64, "duration": 230, "velocity": 85}, {"time": 71770, "pitch": 69, "duration": 230, "velocity": 90}, {"time": 72000, "pitch": 52, "duration": 240, "velocity": 110}, {"time": 72000, "pitch": 59, "duration": 240, "velocity": 100}, {"time": 72010, "pitch": 64, "duration": 240, "velocity": 95}, {"time": 72010, "pitch": 69, "duration": 240, "velocity": 100}, {"time": 72240, "pitch": 52, "duration": 240, "velocity": 100}, {"time": 72240, "pitch": 59, "duration": 240, "velocity": 90}, {"time": 72250, "pitch": 64, "duration": 230, "velocity": 85}, {"time": 72250, "pitch": 69, "duration": 230, "velocity": 90}, {"time": 72480, "pitch": 52, "duration": 240, "velocity": 110}, {"time": 72480, "pitch": 59, "duration": 240, "velocity": 100}, {"time": 72490, "pitch": 64, "duration": 240, "velocity": 95}, {"time": 72490, "pitch": 69, "duration": 240, "velocity": 100}, {"time": 72720, "pitch": 52, "duration": 240, "velocity": 100}, {"time": 72720, "pitch": 59, "duration": 240, "velocity": 90}, {"time": 72730, "pitch": 64, "duration": 230, "velocity": 85}, {"time": 72730, "pitch": 69, "duration": 230, "velocity": 90}, {"time": 72960, "pitch": 52, "duration": 240, "velocity": 90}, {"time": 72960, "pitch": 59, "duration": 240, "velocity": 80}, {"time": 72970, "pitch": 64, "duration": 470, "velocity": 110}, {"time": 73440, "pitch": 50, "duration": 240, "velocity": 90}, {"time": 73440, "pitch": 57, "duration": 240, "velocity": 100}, {"time": 73450, "pitch": 62, "duration": 240, "velocity": 110}, {"time": 73680, "pitch": 50, "duration": 240, "velocity": 80}, {"time": 73680, "pitch": 57, "duration": 240, "velocity": 90}, {"time": 73690, "pitch": 62, "duration": 240, "velocity": 100}, {"time": 73920, "pitch": 50, "duration": 240, "velocity": 90}, {"time": 73920, "pitch": 57, "duration": 240, "velocity": 100}, {"time": 73930, "pitch": 62, "duration": 240, "velocity": 110}, {"time": 74160, "pitch": 50, "duration": 240, "velocity": 80}, {"time": 74160, "pitch": 57, "duration": 240, "velocity": 90}, {"time": 74170, "pitch": 62, "duration": 240, "velocity": 100}, {"time": 74400, "pitch": 50, "duration": 240, "velocity": 90}, {"time": 74400, "pitch": 57, "duration": 240, "velocity": 100}, {"time": 74410, "pitch": 62, "duration": 240, "velocity": 110}, {"time": 74640, "pitch": 50, "duration": 240, "velocity": 80}, {"time": 74640, "pitch": 57, "duration": 240, "velocity": 90}, {"time": 74650, "pitch": 62, "duration": 240, "velocity": 100}, {"time": 74880, "pitch": 50, "duration": 240, "velocity": 85}, {"time": 74880, "pitch": 57, "duration": 240, "velocity": 95}, {"time": 74890, "pitch": 62, "duration": 240, "velocity": 105}, {"time": 75120, "pitch": 49, "duration": 480, "velocity": 90}, {"time": 75120, "pitch": 56, "duration": 480, "velocity": 100}, {"time": 75130, "pitch": 61, "duration": 470, "velocity": 110}, {"time": 75600, "pitch": 49, "duration": 240, "velocity": 80}, {"time": 75600, "pitch": 56, "duration": 240, "velocity": 90}, {"time": 75610, "pitch": 61, "duration": 240, "velocity": 100}, {"time": 75840, "pitch": 49, "duration": 240, "velocity": 90}, {"time": 75840, "pitch": 56, "duration": 240, "velocity": 100}, {"time": 75850, "pitch": 61, "duration": 240, "velocity": 110}, {"time": 76080, "pitch": 49, "duration": 240, "velocity": 80}, {"time": 76080, "pitch": 56, "duration": 240, "velocity": 90}, {"time": 76090, "pitch": 61, "duration": 240, "velocity": 100}, {"time": 76320, "pitch": 49, "duration": 240, "velocity": 90}, {"time": 76320, "pitch": 56, "duration": 240, "velocity": 100}, {"time": 76330, "pitch": 61, "duration": 240, "velocity": 110}, {"time": 76330, "pitch": 64, "duration": 240, "velocity": 100}, {"time": 76560, "pitch": 49, "duration": 240, "velocity": 80}, {"time": 76560, "pitch": 56, "duration": 240, "velocity": 90}, {"time": 76570, "pitch": 61, "duration": 240, "velocity": 100}, {"time": 76570, "pitch": 63, "duration": 240, "velocity": 90}, {"time": 76800, "pitch": 49, "duration": 240, "velocity": 90}, {"time": 76800, "pitch": 56, "duration": 240, "velocity": 100}, {"time": 76810, "pitch": 61, "duration": 240, "velocity": 110}, {"time": 77040, "pitch": 49, "duration": 240, "velocity": 80}, {"time": 77040, "pitch": 56, "duration": 240, "velocity": 90}, {"time": 77050, "pitch": 61, "duration": 230, "velocity": 100}, {"time": 77280, "pitch": 44, "duration": 240, "velocity": 110}, {"time": 77290, "pitch": 51, "duration": 240, "velocity": 100}, {"time": 77520, "pitch": 44, "duration": 240, "velocity": 100}, {"time": 77530, "pitch": 51, "duration": 240, "velocity": 90}, {"time": 77760, "pitch": 44, "duration": 240, "velocity": 110}, {"time": 77770, "pitch": 51, "duration": 240, "velocity": 100}, {"time": 78000, "pitch": 44, "duration": 240, "velocity": 100}, {"time": 78010, "pitch": 51, "duration": 240, "velocity": 90}, {"time": 78240, "pitch": 44, "duration": 240, "velocity": 105}, {"time": 78480, "pitch": 47, "duration": 480, "velocity": 110}, {"time": 78960, "pitch": 49, "duration": 1200, "velocity": 110}, {"time": 79440, "pitch": 56, "duration": 240, "velocity": 95}, {"time": 79440, "pitch": 61, "duration": 240, "velocity": 65}, {"time": 79450, "pitch": 68, "duration": 240, "velocity": 105}, {"time": 79680, "pitch": 56, "duration": 240, "velocity": 100}, {"time": 79680, "pitch": 61, "duration": 240, "velocity": 70}, {"time": 79690, "pitch": 71, "duration": 240, "velocity": 110}, {"time": 79920, "pitch": 56, "duration": 240, "velocity": 95}, {"time": 79920, "pitch": 61, "duration": 240, "velocity": 65}, {"time": 79930, "pitch": 68, "duration": 240, "velocity": 105}, {"time": 80160, "pitch": 54, "duration": 240, "velocity": 100}, {"time": 80160, "pitch": 61, "duration": 240, "velocity": 70}, {"time": 80170, "pitch": 66, "duration": 240, "velocity": 110}, {"time": 80400, "pitch": 54, "duration": 240, "velocity": 95}, {"time": 80400, "pitch": 61, "duration": 240, "velocity": 65}, {"time": 80410, "pitch": 68, "duration": 240, "velocity": 105}, {"time": 80640, "pitch": 54, "duration": 240, "velocity": 90}, {"time": 80640, "pitch": 61, "duration": 240, "velocity": 60}, {"time": 80650, "pitch": 63, "duration": 240, "velocity": 100}, {"time": 80880, "pitch": 54, "duration": 30, "velocity": 80}, {"time": 80880, "pitch": 61, "duration": 30, "velocity": 90}, {"time": 80890, "pitch": 66, "duration": 30, "velocity": 100}, {"time": 81000, "pitch": 61, "duration": 30, "velocity": 95}, {"time": 81000, "pitch": 66, "duration": 30, "velocity": 105}, {"time": 81010, "pitch": 54, "duration": 30, "velocity": 85}, {"time": 81120, "pitch": 42, "duration": 240, "velocity": 110}, {"time": 81120, "pitch": 49, "duration": 240, "velocity": 100}, {"time": 81130, "pitch": 54, "duration": 240, "velocity": 90}, {"time": 81360, "pitch": 42, "duration": 240, "velocity": 100}, {"time": 81360, "pitch": 49, "duration": 240, "velocity": 90}, {"time": 81370, "pitch": 54, "duration": 240, "velocity": 80}, {"time": 81600, "pitch": 42, "duration": 240, "velocity": 110}, {"time": 81600, "pitch": 49, "duration": 240, "velocity": 100}, {"time": 81610, "pitch": 54, "duration": 240, "velocity": 90}, {"time": 81840, "pitch": 42, "duration": 240, "velocity": 100}, {"time": 81840, "pitch": 49, "duration": 240, "velocity": 90}, {"time": 81850, "pitch": 54, "duration": 230, "velocity": 80}, {"time": 82080, "pitch": 47, "duration": 240, "velocity": 110}, {"time": 82080, "pitch": 54, "duration": 240, "velocity": 100}, {"time": 82090, "pitch": 59, "duration": 240, "velocity": 90}, {"time": 82090, "pitch": 68, "duration": 240, "velocity": 100}, {"time": 82320, "pitch": 47, "duration": 240, "velocity": 110}, {"time": 82320, "pitch": 54, "duration": 240, "velocity": 100}, {"time": 82330, "pitch": 59, "duration": 240, "velocity": 90}, {"time": 82330, "pitch": 68, "duration": 240, "velocity": 100}, {"time": 82560, "pitch": 47, "duration": 60, "velocity": 90}, {"time": 82560, "pitch": 54, "duration": 60, "velocity": 80}, {"time": 82570, "pitch": 59, "duration": 60, "velocity": 70}, {"time": 82800, "pitch": 52, "duration": 3120, "velocity": 110}, {"time": 82800, "pitch": 59, "duration": 3120, "velocity": 105}, {"time": 82800, "pitch": 64, "duration": 480, "velocity": 100}, {"time": 82810, "pitch": 68, "duration": 470, "velocity": 95}, {"time": 82810, "pitch": 76, "duration": 470, "velocity": 100}, {"time": 83280, "pitch": 64, "duration": 240, "velocity": 85}, {"time": 83280, "pitch": 68, "duration": 240, "velocity": 95}, {"time": 83290, "pitch": 76, "duration": 240, "velocity": 105}, {"time": 83520, "pitch": 64, "duration": 240, "velocity": 90}, {"time": 83520, "pitch": 68, "duration": 240, "velocity": 100}, {"time": 83530, "pitch": 76, "duration": 240, "velocity": 110}, {"time": 83760, "pitch": 64, "duration": 240, "velocity": 80}, {"time": 83760, "pitch": 68, "duration": 240, "velocity": 90}, {"time": 83770, "pitch": 76, "duration": 240, "velocity": 100}, {"time": 84000, "pitch": 68, "duration": 240, "velocity": 110}, {"time": 84010, "pitch": 76, "duration": 240, "velocity": 100}, {"time": 84240, "pitch": 64, "duration": 240, "velocity": 105}, {"time": 84250, "pitch": 76, "duration": 240, "velocity": 95}, {"time": 84480, "pitch": 62, "duration": 240, "velocity": 110}, {"time": 84490, "pitch": 76, "duration": 240, "velocity": 100}, {"time": 84720, "pitch": 64, "duration": 240, "velocity": 105}, {"time": 84730, "pitch": 76, "duration": 230, "velocity": 95}, {"time": 84960, "pitch": 62, "duration": 240, "velocity": 85}, {"time": 84960, "pitch": 69, "duration": 240, "velocity": 110}, {"time": 84970, "pitch": 76, "duration": 240, "velocity": 105}, {"time": 85200, "pitch": 64, "duration": 240, "velocity": 90}, {"time": 85200, "pitch": 69, "duration": 240, "velocity": 105}, {"time": 85210, "pitch": 76, "duration": 240, "velocity": 100}, {"time": 85440, "pitch": 62, "duration": 240, "velocity": 85}, {"time": 85440, "pitch": 69, "duration": 240, "velocity": 110}, {"time": 85450, "pitch": 76, "duration": 240, "velocity": 105}, {"time": 85680, "pitch": 64, "duration": 240, "velocity": 90}, {"time": 85680, "pitch": 69, "duration": 240, "velocity": 105}, {"time": 85690, "pitch": 76, "duration": 240, "velocity": 100}, {"time": 85920, "pitch": 64, "duration": 140, "velocity": 95}, {"time": 85920, "pitch": 68, "duration": 140, "velocity": 110}, {"time": 85930, "pitch": 76, "duration": 140, "velocity": 105}, {"time": 86160, "pitch": 64, "duration": 240, "velocity": 90}, {"time": 86160, "pitch": 68, "duration": 240, "velocity": 105}, {"time": 86170, "pitch": 76, "duration": 240, "velocity": 100}, {"time": 86400, "pitch": 64, "duration": 140, "velocity": 95}, {"time": 86400, "pitch": 68, "duration": 140, "velocity": 110}, {"time": 86410, "pitch": 76, "duration": 140, "velocity": 105}, {"time": 86640, "pitch": 64, "duration": 240, "velocity": 90}, {"time": 86640, "pitch": 68, "duration": 240, "velocity": 105}, {"time": 86650, "pitch": 76, "duration": 230, "velocity": 100}, {"time": 86880, "pitch": 52, "duration": 240, "velocity": 100}, {"time": 87120, "pitch": 52, "duration": 480, "velocity": 90}, {"time": 87360, "pitch": 64, "duration": 240, "velocity": 100}, {"time": 87370, "pitch": 68, "duration": 240, "velocity": 60}, {"time": 87370, "pitch": 76, "duration": 240, "velocity": 110}, {"time": 87600, "pitch": 52, "duration": 240, "velocity": 90}, {"time": 87840, "pitch": 52, "duration": 480, "velocity": 100}, {"time": 88080, "pitch": 64, "duration": 240, "velocity": 100}, {"time": 88090, "pitch": 68, "duration": 240, "velocity": 80}, {"time": 88090, "pitch": 76, "duration": 240, "velocity": 110}, {"time": 88320, "pitch": 52, "duration": 240, "velocity": 100}, {"time": 88560, "pitch": 52, "duration": 480, "velocity": 90}, {"time": 88800, "pitch": 64, "duration": 240, "velocity": 100}, {"time": 88810, "pitch": 69, "duration": 240, "velocity": 80}, {"time": 88810, "pitch": 76, "duration": 240, "velocity": 110}, {"time": 89040, "pitch": 52, "duration": 240, "velocity": 90}, {"time": 89280, "pitch": 52, "duration": 720, "velocity": 100}, {"time": 89520, "pitch": 64, "duration": 480, "velocity": 100}, {"time": 89530, "pitch": 69, "duration": 480, "velocity": 80}, {"time": 89530, "pitch": 76, "duration": 470, "velocity": 110}, {"time": 90000, "pitch": 64, "duration": 240, "velocity": 90}, {"time": 90010, "pitch": 76, "duration": 240, "velocity": 110}, {"time": 90240, "pitch": 62, "duration": 240, "velocity": 87}, {"time": 90250, "pitch": 74, "duration": 240, "velocity": 107}, {"time": 90480, "pitch": 59, "duration": 240, "velocity": 85}, {"time": 90490, "pitch": 71, "duration": 230, "velocity": 105}, {"time": 90720, "pitch": 52, "duration": 240, "velocity": 100}, {"time": 90960, "pitch": 52, "duration": 480, "velocity": 90}, {"time": 91200, "pitch": 64, "duration": 240, "velocity": 100}, {"time": 91210, "pitch": 68, "duration": 240, "velocity": 60}, {"time": 91210, "pitch": 76, "duration": 240, "velocity": 110}, {"time": 91440, "pitch": 52, "duration": 240, "velocity": 90}, {"time": 91680, "pitch": 52, "duration": 480, "velocity": 100}, {"time": 91920, "pitch": 64, "duration": 240, "velocity": 100}, {"time": 91930, "pitch": 69, "duration": 240, "velocity": 80}, {"time": 91930, "pitch": 76, "duration": 240, "velocity": 110}, {"time": 92160, "pitch": 52, "duration": 240, "velocity": 100}, {"time": 92400, "pitch": 52, "duration": 480, "velocity": 90}, {"time": 92640, "pitch": 64, "duration": 240, "velocity": 100}, {"time": 92650, "pitch": 68, "duration": 240, "velocity": 80}, {"time": 92650, "pitch": 76, "duration": 240, "velocity": 110}, {"time": 92880, "pitch": 52, "duration": 240, "velocity": 90}, {"time": 93120, "pitch": 52, "duration": 720, "velocity": 100}, {"time": 93360, "pitch": 64, "duration": 480, "velocity": 100}, {"time": 93370, "pitch": 68, "duration": 480, "velocity": 80}, {"time": 93370, "pitch": 76, "duration": 470, "velocity": 110}, {"time": 93840, "pitch": 64, "duration": 240, "velocity": 90}, {"time": 93850, "pitch": 76, "duration": 240, "velocity": 110}, {"time": 94080, "pitch": 62, "duration": 240, "velocity": 87}, {"time": 94090, "pitch": 74, "duration": 240, "velocity": 107}, {"time": 94320, "pitch": 59, "duration": 240, "velocity": 85}, {"time": 94330, "pitch": 71, "duration": 230, "velocity": 105}, {"time": 109920, "pitch": 43, "duration": 240, "velocity": 110}, {"time": 109930, "pitch": 50, "duration": 240, "velocity": 100}, {"time": 110160, "pitch": 43, "duration": 240, "velocity": 100}, {"time": 110170, "pitch": 50, "duration": 240, "velocity": 90}, {"time": 110400, "pitch": 43, "duration": 240, "velocity": 110}, {"time": 110410, "pitch": 50, "duration": 240, "velocity": 100}, {"time": 110640, "pitch": 43, "duration": 240, "velocity": 100}, {"time": 110650, "pitch": 50, "duration": 240, "velocity": 90}, {"time": 110880, "pitch": 43, "duration": 240, "velocity": 110}, {"time": 110890, "pitch": 50, "duration": 240, "velocity": 100}, {"time": 111120, "pitch": 43, "duration": 240, "velocity": 100}, {"time": 111130, "pitch": 50, "duration": 240, "velocity": 90}, {"time": 111360, "pitch": 43, "duration": 240, "velocity": 110}, {"time": 111370, "pitch": 50, "duration": 240, "velocity": 100}, {"time": 111600, "pitch": 43, "duration": 240, "velocity": 100}, {"time": 111610, "pitch": 50, "duration": 230, "velocity": 90}, {"time": 111840, "pitch": 45, "duration": 240, "velocity": 110}, {"time": 111850, "pitch": 52, "duration": 240, "velocity": 100}, {"time": 112080, "pitch": 45, "duration": 240, "velocity": 100}, {"time": 112090, "pitch": 52, "duration": 240, "velocity": 90}, {"time": 112320, "pitch": 45, "duration": 240, "velocity": 110}, {"time": 112330, "pitch": 52, "duration": 240, "velocity": 100}, {"time": 112560, "pitch": 45, "duration": 240, "velocity": 100}, {"time": 112570, "pitch": 52, "duration": 240, "velocity": 90}, {"time": 112800, "pitch": 45, "duration": 240, "velocity": 110}, {"time": 112810, "pitch": 52, "duration": 240, "velocity": 100}, {"time": 113040, "pitch": 45, "duration": 240, "velocity": 100}, {"time": 113050, "pitch": 52, "duration": 240, "velocity": 90}, {"time": 113280, "pitch": 45, "duration": 240, "velocity": 110}, {"time": 113290, "pitch": 52, "duration": 240, "velocity": 100}, {"time": 113520, "pitch": 45, "duration": 240, "velocity": 100}, {"time": 113530, "pitch": 52, "duration": 230, "velocity": 90}, {"time": 113760, "pitch": 52, "duration": 240, "velocity": 110}, {"time": 113760, "pitch": 59, "duration": 240, "velocity": 90}, {"time": 113770, "pitch": 64, "duration": 240, "velocity": 80}, {"time": 114000, "pitch": 52, "duration": 40, "velocity": 90}, {"time": 114010, "pitch": 59, "duration": 40, "velocity": 100}, {"time": 114240, "pitch": 64, "duration": 240, "velocity": 110}, {"time": 114240, "pitch": 68, "duration": 240, "velocity": 70}, {"time": 114250, "pitch": 76, "duration": 240, "velocity": 90}, {"time": 114480, "pitch": 64, "duration": 40, "velocity": 90}, {"time": 114490, "pitch": 68, "duration": 40, "velocity": 100}, {"time": 114720, "pitch": 64, "duration": 240, "velocity": 110}, {"time": 114720, "pitch": 68, "duration": 240, "velocity": 70}, {"time": 114730, "pitch": 76, "duration": 240, "velocity": 90}, {"time": 114960, "pitch": 64, "duration": 240, "velocity": 110}, {"time": 114960, "pitch": 68, "duration": 240, "velocity": 70}, {"time": 114970, "pitch": 76, "duration": 240, "velocity": 90}, {"time": 115200, "pitch": 64, "duration": 40, "velocity": 90}, {"time": 115210, "pitch": 68, "duration": 40, "velocity": 100}, {"time": 115440, "pitch": 64, "duration": 240, "velocity": 110}, {"time": 115440, "pitch": 68, "duration": 240, "velocity": 70}, {"time": 115450, "pitch": 76, "duration": 230, "velocity": 90}, {"time": 115680, "pitch": 64, "duration": 40, "velocity": 90}, {"time": 115690, "pitch": 68, "duration": 40, "velocity": 100}, {"time": 115920, "pitch": 64, "duration": 240, "velocity": 105}, {"time": 115920, "pitch": 68, "duration": 240, "velocity": 65}, {"time": 115930, "pitch": 76, "duration": 240, "velocity": 85}, {"time": 116160, "pitch": 64, "duration": 240, "velocity": 110}, {"time": 116160, "pitch": 68, "duration": 240, "velocity": 70}, {"time": 116170, "pitch": 76, "duration": 240, "velocity": 90}, {"time": 116400, "pitch": 64, "duration": 240, "velocity": 105}, {"time": 116400, "pitch": 68, "duration": 240, "velocity": 65}, {"time": 116410, "pitch": 76, "duration": 240, "velocity": 85}, {"time": 116640, "pitch": 64, "duration": 240, "velocity": 110}, {"time": 116640, "pitch": 68, "duration": 240, "velocity": 70}, {"time": 116650, "pitch": 76, "duration": 240, "velocity": 90}, {"time": 116880, "pitch": 64, "duration": 240, "velocity": 105}, {"time": 116880, "pitch": 68, "duration": 240, "velocity": 65}, {"time": 116890, "pitch": 76, "duration": 240, "velocity": 85}, {"time": 117120, "pitch": 62, "duration": 240, "velocity": 110}, {"time": 117120, "pitch": 66, "duration": 240, "velocity": 70}, {"time": 117130, "pitch": 74, "duration": 240, "velocity": 90}, {"time": 117360, "pitch": 64, "duration": 240, "velocity": 105}, {"time": 117360, "pitch": 68, "duration": 240, "velocity": 65}, {"time": 117370, "pitch": 76, "duration": 230, "velocity": 85}, {"time": 117600, "pitch": 43, "duration": 240, "velocity": 110}, {"time": 117610, "pitch": 50, "duration": 240, "velocity": 100}, {"time": 117840, "pitch": 43, "duration": 240, "velocity": 100}, {"time": 117850, "pitch": 50, "duration": 240, "velocity": 90}, {"time": 118080, "pitch": 43, "duration": 240, "velocity": 110}, {"time": 118090, "pitch": 50, "duration": 240, "velocity": 100}, {"time": 118320, "pitch": 43, "duration": 240, "velocity": 100}, {"time": 118330, "pitch": 50, "duration": 240, "velocity": 90}, {"time": 118560, "pitch": 43, "duration": 240, "velocity": 110}, {"time": 118570, "pitch": 50, "duration": 240, "velocity": 100}, {"time": 118800, "pitch": 43, "duration": 240, "velocity": 100}, {"time": 118810, "pitch": 50, "duration": 240, "velocity": 90}, {"time": 119040, "pitch": 43, "duration": 240, "velocity": 110}, {"time": 119050, "pitch": 50, "duration": 240, "velocity": 100}, {"time": 119280, "pitch": 43, "duration": 240, "velocity": 100}, {"time": 119290, "pitch": 50, "duration": 230, "velocity": 90}, {"time": 119520, "pitch": 45, "duration": 240, "velocity": 110}, {"time": 119530, "pitch": 52, "duration": 240, "velocity": 100}, {"time": 119760, "pitch": 45, "duration": 240, "velocity": 100}, {"time": 119770, "pitch": 52, "duration": 240, "velocity": 90}, {"time": 120000, "pitch": 45, "duration": 240, "velocity": 110}, {"time": 120010, "pitch": 52, "duration": 240, "velocity": 100}, {"time": 120240, "pitch": 45, "duration": 240, "velocity": 100}, {"time": 120250, "pitch": 52, "duration": 240, "velocity": 90}, {"time": 120480, "pitch": 45, "duration": 240, "velocity": 110}, {"time": 120490, "pitch": 52, "duration": 240, "velocity": 100}, {"time": 120720, "pitch": 45, "duration": 240, "velocity": 100}, {"time": 120730, "pitch": 52, "duration": 240, "velocity": 90}, {"time": 120960, "pitch": 45, "duration": 240, "velocity": 110}, {"time": 120970, "pitch": 52, "duration": 240, "velocity": 100}, {"time": 121200, "pitch": 45, "duration": 240, "velocity": 100}, {"time": 121210, "pitch": 52, "duration": 230, "velocity": 90}, {"time": 121440, "pitch": 47, "duration": 240, "velocity": 110}, {"time": 121440, "pitch": 54, "duration": 240, "velocity": 100}, {"time": 121450, "pitch": 59, "duration": 240, "velocity": 90}, {"time": 121450, "pitch": 66, "duration": 240, "velocity": 95}, {"time": 121680, "pitch": 47, "duration": 240, "velocity": 105}, {"time": 121680, "pitch": 54, "duration": 240, "velocity": 95}, {"time": 121690, "pitch": 59, "duration": 240, "velocity": 85}, {"time": 121690, "pitch": 66, "duration": 240, "velocity": 90}, {"time": 121920, "pitch": 47, "duration": 240, "velocity": 110}, {"time": 121920, "pitch": 54, "duration": 240, "velocity": 100}, {"time": 121930, "pitch": 59, "duration": 240, "velocity": 90}, {"time": 121930, "pitch": 66, "duration": 240, "velocity": 95}, {"time": 122160, "pitch": 47, "duration": 240, "velocity": 105}, {"time": 122160, "pitch": 54, "duration": 240, "velocity": 95}, {"time": 122170, "pitch": 59, "duration": 240, "velocity": 85}, {"time": 122170, "pitch": 64, "duration": 240, "velocity": 90}, {"time": 122400, "pitch": 47, "duration": 240, "velocity": 110}, {"time": 122400, "pitch": 54, "duration": 240, "velocity": 100}, {"time": 122410, "pitch": 59, "duration": 240, "velocity": 90}, {"time": 122410, "pitch": 66, "duration": 240, "velocity": 95}, {"time": 122640, "pitch": 47, "duration": 240, "velocity": 105}, {"time": 122640, "pitch": 54, "duration": 240, "velocity": 95}, {"time": 122650, "pitch": 59, "duration": 240, "velocity": 85}, {"time": 122650, "pitch": 64, "duration": 240, "velocity": 95}, {"time": 122880, "pitch": 47, "duration": 40, "velocity": 100}, {"time": 122880, "pitch": 54, "duration": 40, "velocity": 90}, {"time": 122890, "pitch": 59, "duration": 40, "velocity": 80}, {"time": 123120, "pitch": 47, "duration": 240, "velocity": 105}, {"time": 123120, "pitch": 54, "duration": 240, "velocity": 95}, {"time": 123130, "pitch": 59, "duration": 230, "velocity": 85}, {"time": 123130, "pitch": 66, "duration": 230, "velocity": 90}, {"time": 123360, "pitch": 47, "duration": 240, "velocity": 110}, {"time": 123360, "pitch": 54, "duration": 240, "velocity": 100}, {"time": 123370, "pitch": 59, "duration": 230, "velocity": 90}, {"time": 123370, "pitch": 66, "duration": 230, "velocity": 95}, {"time": 125040, "pitch": 52, "duration": 480, "velocity": 110}, {"time": 125040, "pitch": 59, "duration": 480, "velocity": 100}, {"time": 125050, "pitch": 64, "duration": 470, "velocity": 95}, {"time": 125050, "pitch": 68, "duration": 470, "velocity": 100}, {"time": 125520, "pitch": 52, "duration": 240, "velocity": 100}, {"time": 125520, "pitch": 59, "duration": 240, "velocity": 90}, {"time": 125530, "pitch": 64, "duration": 240, "velocity": 85}, {"time": 125530, "pitch": 68, "duration": 240, "velocity": 90}, {"time": 125760, "pitch": 52, "duration": 240, "velocity": 110}, {"time": 125760, "pitch": 59, "duration": 240, "velocity": 100}, {"time": 125770, "pitch": 64, "duration": 240, "velocity": 95}, {"time": 125770, "pitch": 68, "duration": 240, "velocity": 100}, {"time": 126000, "pitch": 52, "duration": 240, "velocity": 100}, {"time": 126000, "pitch": 59, "duration": 240, "velocity": 90}, {"time": 126010, "pitch": 64, "duration": 240, "velocity": 85}, {"time": 126010, "pitch": 68, "duration": 240, "velocity": 90}, {"time": 126240, "pitch": 52, "duration": 240, "velocity": 110}, {"time": 126240, "pitch": 59, "duration": 240, "velocity": 100}, {"time": 126250, "pitch": 64, "duration": 240, "velocity": 95}, {"time": 126250, "pitch": 68, "duration": 240, "velocity": 100}, {"time": 126480, "pitch": 52, "duration": 240, "velocity": 100}, {"time": 126480, "pitch": 59, "duration": 240, "velocity": 90}, {"time": 126490, "pitch": 64, "duration": 240, "velocity": 85}, {"time": 126490, "pitch": 69, "duration": 240, "velocity": 90}, {"time": 126720, "pitch": 52, "duration": 240, "velocity": 110}, {"time": 126720, "pitch": 59, "duration": 240, "velocity": 100}, {"time": 126730, "pitch": 64, "duration": 240, "velocity": 95}, {"time": 126730, "pitch": 69, "duration": 240, "velocity": 100}, {"time": 126960, "pitch": 52, "duration": 240, "velocity": 100}, {"time": 126960, "pitch": 59, "duration": 240, "velocity": 90}, {"time": 126970, "pitch": 64, "duration": 230, "velocity": 85}, {"time": 126970, "pitch": 68, "duration": 230, "velocity": 90}, {"time": 127200, "pitch": 52, "duration": 240, "velocity": 110}, {"time": 127200, "pitch": 59, "duration": 240, "velocity": 100}, {"time": 127210, "pitch": 64, "duration": 240, "velocity": 95}, {"time": 127210, "pitch": 69, "duration": 240, "velocity": 100}, {"time": 127440, "pitch": 52, "duration": 240, "velocity": 100}, {"time": 127440, "pitch": 59, "duration": 240, "velocity": 90}, {"time": 127450, "pitch": 64, "duration": 230, "velocity": 85}, {"time": 127450, "pitch": 69, "duration": 230, "velocity": 90}, {"time": 127680, "pitch": 52, "duration": 240, "velocity": 110}, {"time": 127680, "pitch": 59, "duration": 240, "velocity": 100}, {"time": 127690, "pitch": 64, "duration": 240, "velocity": 95}, {"time": 127690, "pitch": 69, "duration": 240, "velocity": 100}, {"time": 127920, "pitch": 52, "duration": 240, "velocity": 100}, {"time": 127920, "pitch": 59, "duration": 240, "velocity": 90}, {"time": 127930, "pitch": 64, "duration": 230, "velocity": 85}, {"time": 127930, "pitch": 69, "duration": 230, "velocity": 90}, {"time": 128160, "pitch": 52, "duration": 240, "velocity": 110}, {"time": 128160, "pitch": 59, "duration": 240, "velocity": 100}, {"time": 128170, "pitch": 64, "duration": 240, "velocity": 95}, {"time": 128170, "pitch": 69, "duration": 240, "velocity": 100}, {"time": 128400, "pitch": 52, "duration": 240, "velocity": 100}, {"time": 128400, "pitch": 59, "duration": 240, "velocity": 90}, {"time": 128410, "pitch": 64, "duration": 230, "velocity": 85}, {"time": 128410, "pitch": 69, "duration": 230, "velocity": 90}, {"time": 128640, "pitch": 52, "duration": 240, "velocity": 90}, {"time": 128640, "pitch": 59, "duration": 240, "velocity": 80}, {"time": 128650, "pitch": 64, "duration": 470, "velocity": 110}, {"time": 129120, "pitch": 50, "duration": 240, "velocity": 90}, {"time": 129120, "pitch": 57, "duration": 240, "velocity": 100}, {"time": 129130, "pitch": 62, "duration": 240, "velocity": 110}, {"time": 129360, "pitch": 50, "duration": 240, "velocity": 80}, {"time": 129360, "pitch": 57, "duration": 240, "velocity": 90}, {"time": 129370, "pitch": 62, "duration": 240, "velocity": 100}, {"time": 129600, "pitch": 50, "duration": 240, "velocity": 90}, {"time": 129600, "pitch": 57, "duration": 240, "velocity": 100}, {"time": 129610, "pitch": 62, "duration": 240, "velocity": 110}, {"time": 129840, "pitch": 50, "duration": 240, "velocity": 80}, {"time": 129840, "pitch": 57, "duration": 240, "velocity": 90}, {"time": 129850, "pitch": 62, "duration": 240, "velocity": 100}, {"time": 130080, "pitch": 50, "duration": 240, "velocity": 90}, {"time": 130080, "pitch": 57, "duration": 240, "velocity": 100}, {"time": 130090, "pitch": 62, "duration": 240, "velocity": 110}, {"time": 130320, "pitch": 50, "duration": 240, "velocity": 80}, {"time": 130320, "pitch": 57, "duration": 240, "velocity": 90}, {"time": 130330, "pitch": 62, "duration": 240, "velocity": 100}, {"time": 130560, "pitch": 50, "duration": 240, "velocity": 85}, {"time": 130560, "pitch": 57, "duration": 240, "velocity": 95}, {"time": 130570, "pitch": 62, "duration": 240, "velocity": 105}, {"time": 130800, "pitch": 49, "duration": 480, "velocity": 90}, {"time": 130800, "pitch": 56, "duration": 480, "velocity": 100}, {"time": 130810, "pitch": 61, "duration": 470, "velocity": 110}, {"time": 131280, "pitch": 49, "duration": 240, "velocity": 80}, {"time": 131280, "pitch": 56, "duration": 240, "velocity": 90}, {"time": 131290, "pitch": 61, "duration": 240, "velocity": 100}, {"time": 131520, "pitch": 49, "duration": 240, "velocity": 90}, {"time": 131520, "pitch": 56, "duration": 240, "velocity": 100}, {"time": 131530, "pitch": 61, "duration": 240, "velocity": 110}, {"time": 131760, "pitch": 49, "duration": 240, "velocity": 80}, {"time": 131760, "pitch": 56, "duration": 240, "velocity": 90}, {"time": 131770, "pitch": 61, "duration": 240, "velocity": 100}, {"time": 132000, "pitch": 49, "duration": 240, "velocity": 90}, {"time": 132000, "pitch": 56, "duration": 240, "velocity": 100}, {"time": 132010, "pitch": 61, "duration": 240, "velocity": 110}, {"time": 132010, "pitch": 64, "duration": 240, "velocity": 100}, {"time": 132240, "pitch": 49, "duration": 240, "velocity": 80}, {"time": 132240, "pitch": 56, "duration": 240, "velocity": 90}, {"time": 132250, "pitch": 61, "duration": 240, "velocity": 100}, {"time": 132250, "pitch": 63, "duration": 240, "velocity": 90}, {"time": 132480, "pitch": 49, "duration": 240, "velocity": 90}, {"time": 132480, "pitch": 56, "duration": 240, "velocity": 100}, {"time": 132490, "pitch": 61, "duration": 240, "velocity": 110}, {"time": 132720, "pitch": 49, "duration": 240, "velocity": 80}, {"time": 132720, "pitch": 56, "duration": 240, "velocity": 90}, {"time": 132730, "pitch": 61, "duration": 230, "velocity": 100}, {"time": 132960, "pitch": 44, "duration": 240, "velocity": 110}, {"time": 132970, "pitch": 51, "duration": 240, "velocity": 100}, {"time": 133200, "pitch": 44, "duration": 240, "velocity": 100}, {"time": 133210, "pitch": 51, "duration": 240, "velocity": 90}, {"time": 133440, "pitch": 44, "duration": 240, "velocity": 110}, {"time": 133450, "pitch": 51, "duration": 240, "velocity": 100}, {"time": 133680, "pitch": 44, "duration": 240, "velocity": 100}, {"time": 133690, "pitch": 51, "duration": 240, "velocity": 90}, {"time": 133920, "pitch": 44, "duration": 240, "velocity": 105}, {"time": 134160, "pitch": 47, "duration": 480, "velocity": 110}, {"time": 134640, "pitch": 49, "duration": 1200, "velocity": 110}, {"time": 135120, "pitch": 56, "duration": 240, "velocity": 95}, {"time": 135120, "pitch": 61, "duration": 240, "velocity": 65}, {"time": 135130, "pitch": 68, "duration": 240, "velocity": 105}, {"time": 135360, "pitch": 56, "duration": 240, "velocity": 100}, {"time": 135360, "pitch": 61, "duration": 240, "velocity": 70}, {"time": 135370, "pitch": 71, "duration": 240, "velocity": 110}, {"time": 135600, "pitch": 56, "duration": 240, "velocity": 95}, {"time": 135600, "pitch": 61, "duration": 240, "velocity": 65}, {"time": 135610, "pitch": 68, "duration": 240, "velocity": 105}, {"time": 135840, "pitch": 54, "duration": 240, "velocity": 100}, {"time": 135840, "pitch": 61, "duration": 240, "velocity": 70}, {"time": 135850, "pitch": 66, "duration": 240, "velocity": 110}, {"time": 136080, "pitch": 54, "duration": 240, "velocity": 95}, {"time": 136080, "pitch": 61, "duration": 240, "velocity": 65}, {"time": 136090, "pitch": 68, "duration": 240, "velocity": 105}, {"time": 136320, "pitch": 54, "duration": 240, "velocity": 90}, {"time": 136320, "pitch": 61, "duration": 240, "velocity": 60}, {"time": 136330, "pitch": 63, "duration": 240, "velocity": 100}, {"time": 136560, "pitch": 54, "duration": 30, "velocity": 80}, {"time": 136560, "pitch": 61, "duration": 30, "velocity": 90}, {"time": 136570, "pitch": 66, "duration": 30, "velocity": 100}, {"time": 136680, "pitch": 61, "duration": 30, "velocity": 95}, {"time": 136680, "pitch": 66, "duration": 30, "velocity": 105}, {"time": 136690, "pitch": 54, "duration": 30, "velocity": 85}, {"time": 136800, "pitch": 42, "duration": 240, "velocity": 110}, {"time": 136810, "pitch": 49, "duration": 240, "velocity": 100}, {"time": 137040, "pitch": 42, "duration": 240, "velocity": 100}, {"time": 137050, "pitch": 49, "duration": 240, "velocity": 90}, {"time": 137280, "pitch": 42, "duration": 240, "velocity": 110}, {"time": 137290, "pitch": 49, "duration": 240, "velocity": 100}, {"time": 137520, "pitch": 42, "duration": 240, "velocity": 100}, {"time": 137530, "pitch": 49, "duration": 240, "velocity": 90}, {"time": 137760, "pitch": 42, "duration": 240, "velocity": 105}, {"time": 138000, "pitch": 45, "duration": 480, "velocity": 110}, {"time": 138480, "pitch": 47, "duration": 480, "velocity": 110}, {"time": 138490, "pitch": 54, "duration": 470, "velocity": 100}, {"time": 138960, "pitch": 47, "duration": 240, "velocity": 100}, {"time": 138970, "pitch": 54, "duration": 240, "velocity": 100}, {"time": 139200, "pitch": 47, "duration": 240, "velocity": 105}, {"time": 139210, "pitch": 54, "duration": 230, "velocity": 95}, {"time": 139440, "pitch": 47, "duration": 240, "velocity": 95}, {"time": 139440, "pitch": 54, "duration": 240, "velocity": 100}, {"time": 139450, "pitch": 59, "duration": 240, "velocity": 105}, {"time": 139450, "pitch": 66, "duration": 240, "velocity": 110}, {"time": 139680, "pitch": 47, "duration": 240, "velocity": 95}, {"time": 139690, "pitch": 54, "duration": 230, "velocity": 85}, {"time": 139920, "pitch": 47, "duration": 240, "velocity": 95}, {"time": 139920, "pitch": 54, "duration": 240, "velocity": 100}, {"time": 139930, "pitch": 59, "duration": 470, "velocity": 105}, {"time": 139930, "pitch": 66, "duration": 480, "velocity": 110}, {"time": 140160, "pitch": 47, "duration": 240, "velocity": 95}, {"time": 140170, "pitch": 54, "duration": 230, "velocity": 85}, {"time": 140400, "pitch": 52, "duration": 480, "velocity": 110}, {"time": 140400, "pitch": 59, "duration": 480, "velocity": 100}, {"time": 140410, "pitch": 64, "duration": 470, "velocity": 95}, {"time": 140410, "pitch": 68, "duration": 470, "velocity": 100}, {"time": 140880, "pitch": 52, "duration": 240, "velocity": 100}, {"time": 140880, "pitch": 59, "duration": 240, "velocity": 90}, {"time": 140890, "pitch": 64, "duration": 240, "velocity": 85}, {"time": 140890, "pitch": 68, "duration": 240, "velocity": 90}, {"time": 141120, "pitch": 52, "duration": 240, "velocity": 110}, {"time": 141120, "pitch": 59, "duration": 240, "velocity": 100}, {"time": 141130, "pitch": 64, "duration": 240, "velocity": 95}, {"time": 141130, "pitch": 68, "duration": 240, "velocity": 100}, {"time": 141360, "pitch": 52, "duration": 240, "velocity": 100}, {"time": 141360, "pitch": 59, "duration": 240, "velocity": 90}, {"time": 141370, "pitch": 64, "duration": 240, "velocity": 85}, {"time": 141370, "pitch": 68, "duration": 240, "velocity": 90}, {"time": 141600, "pitch": 52, "duration": 240, "velocity": 110}, {"time": 141600, "pitch": 59, "duration": 240, "velocity": 100}, {"time": 141610, "pitch": 64, "duration": 240, "velocity": 95}, {"time": 141610, "pitch": 68, "duration": 240, "velocity": 100}, {"time": 141840, "pitch": 52, "duration": 240, "velocity": 100}, {"time": 141840, "pitch": 59, "duration": 240, "velocity": 90}, {"time": 141850, "pitch": 64, "duration": 240, "velocity": 85}, {"time": 141850, "pitch": 68, "duration": 240, "velocity": 90}, {"time": 142080, "pitch": 52, "duration": 240, "velocity": 110}, {"time": 142080, "pitch": 59, "duration": 240, "velocity": 100}, {"time": 142090, "pitch": 64, "duration": 240, "velocity": 95}, {"time": 142090, "pitch": 68, "duration": 240, "velocity": 100}, {"time": 142320, "pitch": 52, "duration": 240, "velocity": 100}, {"time": 142320, "pitch": 59, "duration": 240, "velocity": 90}, {"time": 142330, "pitch": 64, "duration": 230, "velocity": 85}, {"time": 142330, "pitch": 69, "duration": 230, "velocity": 90}, {"time": 142560, "pitch": 52, "duration": 240, "velocity": 110}, {"time": 142560, "pitch": 59, "duration": 240, "velocity": 100}, {"time": 142570, "pitch": 64, "duration": 240, "velocity": 95}, {"time": 142570, "pitch": 69, "duration": 240, "velocity": 100}, {"time": 142800, "pitch": 52, "duration": 240, "velocity": 100}, {"time": 142800, "pitch": 59, "duration": 240, "velocity": 90}, {"time": 142810, "pitch": 64, "duration": 230, "velocity": 85}, {"time": 142810, "pitch": 69, "duration": 230, "velocity": 90}, {"time": 143040, "pitch": 52, "duration": 240, "velocity": 110}, {"time": 143040, "pitch": 59, "duration": 240, "velocity": 100}, {"time": 143050, "pitch": 64, "duration": 240, "velocity": 95}, {"time": 143050, "pitch": 69, "duration": 240, "velocity": 100}, {"time": 143280, "pitch": 52, "duration": 240, "velocity": 100}, {"time": 143280, "pitch": 59, "duration": 240, "velocity": 90}, {"time": 143290, "pitch": 64, "duration": 230, "velocity": 85}, {"time": 143290, "pitch": 69, "duration": 230, "velocity": 90}, {"time": 143520, "pitch": 52, "duration": 240, "velocity": 110}, {"time": 143520, "pitch": 59, "duration": 240, "velocity": 100}, {"time": 143530, "pitch": 64, "duration": 240, "velocity": 95}, {"time": 143530, "pitch": 69, "duration": 240, "velocity": 100}, {"time": 143760, "pitch": 52, "duration": 240, "velocity": 100}, {"time": 143760, "pitch": 59, "duration": 240, "velocity": 90}, {"time": 143770, "pitch": 64, "duration": 230, "velocity": 85}, {"time": 143770, "pitch": 69, "duration": 230, "velocity": 90}, {"time": 144000, "pitch": 52, "duration": 240, "velocity": 90}, {"time": 144000, "pitch": 59, "duration": 240, "velocity": 80}, {"time": 144010, "pitch": 64, "duration": 470, "velocity": 110}, {"time": 144480, "pitch": 50, "duration": 240, "velocity": 90}, {"time": 144480, "pitch": 57, "duration": 240, "velocity": 100}, {"time": 144490, "pitch": 62, "duration": 240, "velocity": 110}, {"time": 144720, "pitch": 50, "duration": 240, "velocity": 80}, {"time": 144720, "pitch": 57, "duration": 240, "velocity": 90}, {"time": 144730, "pitch": 62, "duration": 240, "velocity": 100}, {"time": 144960, "pitch": 50, "duration": 240, "velocity": 90}, {"time": 144960, "pitch": 57, "duration": 240, "velocity": 100}, {"time": 144970, "pitch": 62, "duration": 240, "velocity": 110}, {"time": 145200, "pitch": 50, "duration": 240, "velocity": 80}, {"time": 145200, "pitch": 57, "duration": 240, "velocity": 90}, {"time": 145210, "pitch": 62, "duration": 240, "velocity": 100}, {"time": 145440, "pitch": 50, "duration": 240, "velocity": 90}, {"time": 145440, "pitch": 57, "duration": 240, "velocity": 100}, {"time": 145450, "pitch": 62, "duration": 240, "velocity": 110}, {"time": 145680, "pitch": 50, "duration": 240, "velocity": 80}, {"time": 145680, "pitch": 57, "duration": 240, "velocity": 90}, {"time": 145690, "pitch": 62, "duration": 240, "velocity": 100}, {"time": 145920, "pitch": 50, "duration": 240, "velocity": 85}, {"time": 145920, "pitch": 57, "duration": 240, "velocity": 95}, {"time": 145930, "pitch": 62, "duration": 240, "velocity": 105}, {"time": 146160, "pitch": 49, "duration": 480, "velocity": 90}, {"time": 146160, "pitch": 56, "duration": 480, "velocity": 100}, {"time": 146170, "pitch": 61, "duration": 470, "velocity": 110}, {"time": 146640, "pitch": 49, "duration": 240, "velocity": 80}, {"time": 146640, "pitch": 56, "duration": 240, "velocity": 90}, {"time": 146650, "pitch": 61, "duration": 240, "velocity": 100}, {"time": 146880, "pitch": 49, "duration": 240, "velocity": 90}, {"time": 146880, "pitch": 56, "duration": 240, "velocity": 100}, {"time": 146890, "pitch": 61, "duration": 240, "velocity": 110}, {"time": 147120, "pitch": 49, "duration": 240, "velocity": 80}, {"time": 147120, "pitch": 56, "duration": 240, "velocity": 90}, {"time": 147130, "pitch": 61, "duration": 240, "velocity": 100}, {"time": 147360, "pitch": 49, "duration": 240, "velocity": 90}, {"time": 147360, "pitch": 56, "duration": 240, "velocity": 100}, {"time": 147370, "pitch": 61, "duration": 240, "velocity": 110}, {"time": 147370, "pitch": 64, "duration": 240, "velocity": 100}, {"time": 147600, "pitch": 49, "duration": 240, "velocity": 80}, {"time": 147600, "pitch": 56, "duration": 240, "velocity": 90}, {"time": 147610, "pitch": 61, "duration": 240, "velocity": 100}, {"time": 147610, "pitch": 63, "duration": 240, "velocity": 90}, {"time": 147840, "pitch": 49, "duration": 240, "velocity": 90}, {"time": 147840, "pitch": 56, "duration": 240, "velocity": 100}, {"time": 147850, "pitch": 61, "duration": 240, "velocity": 110}, {"time": 148080, "pitch": 49, "duration": 240, "velocity": 80}, {"time": 148080, "pitch": 56, "duration": 240, "velocity": 90}, {"time": 148090, "pitch": 61, "duration": 230, "velocity": 100}, {"time": 148320, "pitch": 44, "duration": 240, "velocity": 110}, {"time": 148330, "pitch": 51, "duration": 240, "velocity": 100}, {"time": 148560, "pitch": 44, "duration": 240, "velocity": 100}, {"time": 148570, "pitch": 51, "duration": 240, "velocity": 90}, {"time": 148800, "pitch": 44, "duration": 240, "velocity": 110}, {"time": 148810, "pitch": 51, "duration": 240, "velocity": 100}, {"time": 149040, "pitch": 44, "duration": 240, "velocity": 100}, {"time": 149050, "pitch": 51, "duration": 240, "velocity": 90}, {"time": 149280, "pitch": 44, "duration": 240, "velocity": 105}, {"time": 149520, "pitch": 47, "duration": 480, "velocity": 110}, {"time": 150000, "pitch": 49, "duration": 1200, "velocity": 110}, {"time": 150480, "pitch": 56, "duration": 240, "velocity": 95}, {"time": 150480, "pitch": 61, "duration": 240, "velocity": 65}, {"time": 150490, "pitch": 68, "duration": 240, "velocity": 105}, {"time": 150720, "pitch": 56, "duration": 240, "velocity": 100}, {"time": 150720, "pitch": 61, "duration": 240, "velocity": 70}, {"time": 150730, "pitch": 71, "duration": 240, "velocity": 110}, {"time": 150960, "pitch": 56, "duration": 240, "velocity": 95}, {"time": 150960, "pitch": 61, "duration": 240, "velocity": 65}, {"time": 150970, "pitch": 68, "duration": 240, "velocity": 105}, {"time": 151200, "pitch": 54, "duration": 240, "velocity": 100}, {"time": 151200, "pitch": 61, "duration": 240, "velocity": 70}, {"time": 151210, "pitch": 66, "duration": 240, "velocity": 110}, {"time": 151440, "pitch": 54, "duration": 240, "velocity": 95}, {"time": 151440, "pitch": 61, "duration": 240, "velocity": 65}, {"time": 151450, "pitch": 68, "duration": 240, "velocity": 105}, {"time": 151680, "pitch": 54, "duration": 240, "velocity": 90}, {"time": 151680, "pitch": 61, "duration": 240, "velocity": 60}, {"time": 151690, "pitch": 63, "duration": 240, "velocity": 100}, {"time": 151920, "pitch": 54, "duration": 30, "velocity": 80}, {"time": 151920, "pitch": 61, "duration": 30, "velocity": 90}, {"time": 151930, "pitch": 66, "duration": 30, "velocity": 100}, {"time": 152040, "pitch": 61, "duration": 30, "velocity": 95}, {"time": 152040, "pitch": 66, "duration": 30, "velocity": 105}, {"time": 152050, "pitch": 54, "duration": 30, "velocity": 85}, {"time": 152160, "pitch": 42, "duration": 240, "velocity": 110}, {"time": 152160, "pitch": 49, "duration": 240, "velocity": 100}, {"time": 152170, "pitch": 54, "duration": 240, "velocity": 90}, {"time": 152400, "pitch": 42, "duration": 240, "velocity": 100}, {"time": 152400, "pitch": 49, "duration": 240, "velocity": 90}, {"time": 152410, "pitch": 54, "duration": 240, "velocity": 80}, {"time": 152640, "pitch": 42, "duration": 240, "velocity": 110}, {"time": 152640, "pitch": 49, "duration": 240, "velocity": 100}, {"time": 152650, "pitch": 54, "duration": 240, "velocity": 90}, {"time": 152880, "pitch": 42, "duration": 240, "velocity": 100}, {"time": 152880, "pitch": 49, "duration": 240, "velocity": 90}, {"time": 152890, "pitch": 54, "duration": 230, "velocity": 80}, {"time": 153120, "pitch": 47, "duration": 240, "velocity": 110}, {"time": 153120, "pitch": 54, "duration": 240, "velocity": 100}, {"time": 153130, "pitch": 59, "duration": 240, "velocity": 90}, {"time": 153130, "pitch": 68, "duration": 240, "velocity": 100}, {"time": 153360, "pitch": 47, "duration": 240, "velocity": 110}, {"time": 153360, "pitch": 54, "duration": 240, "velocity": 100}, {"time": 153370, "pitch": 59, "duration": 240, "velocity": 90}, {"time": 153370, "pitch": 68, "duration": 240, "velocity": 100}, {"time": 153600, "pitch": 47, "duration": 60, "velocity": 90}, {"time": 153600, "pitch": 54, "duration": 60, "velocity": 80}, {"time": 153610, "pitch": 59, "duration": 60, "velocity": 70}, {"time": 153840, "pitch": 52, "duration": 3120, "velocity": 110}, {"time": 153840, "pitch": 59, "duration": 3120, "velocity": 105}, {"time": 153840, "pitch": 64, "duration": 480, "velocity": 100}, {"time": 153850, "pitch": 68, "duration": 470, "velocity": 95}, {"time": 153850, "pitch": 76, "duration": 470, "velocity": 100}, {"time": 154320, "pitch": 64, "duration": 240, "velocity": 85}, {"time": 154320, "pitch": 68, "duration": 240, "velocity": 95}, {"time": 154330, "pitch": 76, "duration": 240, "velocity": 105}, {"time": 154560, "pitch": 64, "duration": 240, "velocity": 90}, {"time": 154560, "pitch": 68, "duration": 240, "velocity": 100}, {"time": 154570, "pitch": 76, "duration": 240, "velocity": 110}, {"time": 154800, "pitch": 64, "duration": 240, "velocity": 80}, {"time": 154800, "pitch": 68, "duration": 240, "velocity": 90}, {"time": 154810, "pitch": 76, "duration": 240, "velocity": 100}, {"time": 155040, "pitch": 68, "duration": 240, "velocity": 110}, {"time": 155050, "pitch": 76, "duration": 240, "velocity": 100}, {"time": 155280, "pitch": 64, "duration": 240, "velocity": 105}, {"time": 155290, "pitch": 76, "duration": 240, "velocity": 95}, {"time": 155520, "pitch": 62, "duration": 240, "velocity": 110}, {"time": 155530, "pitch": 76, "duration": 240, "velocity": 100}, {"time": 155760, "pitch": 64, "duration": 240, "velocity": 105}, {"time": 155770, "pitch": 76, "duration": 230, "velocity": 95}, {"time": 156000, "pitch": 62, "duration": 240, "velocity": 85}, {"time": 156000, "pitch": 69, "duration": 240, "velocity": 110}, {"time": 156010, "pitch": 76, "duration": 240, "velocity": 105}, {"time": 156240, "pitch": 64, "duration": 240, "velocity": 90}, {"time": 156240, "pitch": 69, "duration": 240, "velocity": 105}, {"time": 156250, "pitch": 76, "duration": 240, "velocity": 100}, {"time": 156480, "pitch": 62, "duration": 240, "velocity": 85}, {"time": 156480, "pitch": 69, "duration": 240, "velocity": 110}, {"time": 156490, "pitch": 76, "duration": 240, "velocity": 105}, {"time": 156720, "pitch": 64, "duration": 240, "velocity": 90}, {"time": 156720, "pitch": 69, "duration": 240, "velocity": 105}, {"time": 156730, "pitch": 76, "duration": 240, "velocity": 100}, {"time": 156960, "pitch": 64, "duration": 140, "velocity": 95}, {"time": 156960, "pitch": 68, "duration": 140, "velocity": 110}, {"time": 156970, "pitch": 76, "duration": 140, "velocity": 105}, {"time": 157200, "pitch": 64, "duration": 240, "velocity": 90}, {"time": 157200, "pitch": 68, "duration": 240, "velocity": 105}, {"time": 157210, "pitch": 76, "duration": 240, "velocity": 100}, {"time": 157440, "pitch": 64, "duration": 140, "velocity": 95}, {"time": 157440, "pitch": 68, "duration": 140, "velocity": 110}, {"time": 157450, "pitch": 76, "duration": 140, "velocity": 105}, {"time": 157680, "pitch": 64, "duration": 240, "velocity": 90}, {"time": 157680, "pitch": 68, "duration": 240, "velocity": 105}, {"time": 157690, "pitch": 76, "duration": 230, "velocity": 100}, {"time": 165600, "pitch": 59, "duration": 200, "velocity": 110}, {"time": 165610, "pitch": 68, "duration": 200, "velocity": 100}, {"time": 165960, "pitch": 59, "duration": 200, "velocity": 110}, {"time": 165970, "pitch": 68, "duration": 200, "velocity": 100}, {"time": 166320, "pitch": 59, "duration": 240, "velocity": 105}, {"time": 166330, "pitch": 68, "duration": 240, "velocity": 95}, {"time": 169200, "pitch": 44, "duration": 240, "velocity": 70}, {"time": 169440, "pitch": 55, "duration": 3120, "velocity": 110}, {"time": 169450, "pitch": 64, "duration": 3110, "velocity": 100}, {"time": 172560, "pitch": 57, "duration": 240, "velocity": 95}, {"time": 172800, "pitch": 69, "duration": 480, "velocity": 100}, {"time": 173280, "pitch": 43, "duration": 240, "velocity": 110}, {"time": 173290, "pitch": 50, "duration": 240, "velocity": 100}, {"time": 173520, "pitch": 43, "duration": 240, "velocity": 100}, {"time": 173530, "pitch": 50, "duration": 240, "velocity": 90}, {"time": 173760, "pitch": 43, "duration": 240, "velocity": 110}, {"time": 173770, "pitch": 50, "duration": 240, "velocity": 100}, {"time": 174000, "pitch": 43, "duration": 240, "velocity": 100}, {"time": 174010, "pitch": 50, "duration": 240, "velocity": 90}, {"time": 174240, "pitch": 43, "duration": 240, "velocity": 110}, {"time": 174250, "pitch": 50, "duration": 240, "velocity": 100}, {"time": 174480, "pitch": 43, "duration": 240, "velocity": 100}, {"time": 174490, "pitch": 50, "duration": 240, "velocity": 90}, {"time": 174720, "pitch": 43, "duration": 240, "velocity": 110}, {"time": 174730, "pitch": 50, "duration": 240, "velocity": 100}, {"time": 174960, "pitch": 43, "duration": 240, "velocity": 100}, {"time": 174970, "pitch": 50, "duration": 230, "velocity": 90}, {"time": 175200, "pitch": 45, "duration": 240, "velocity": 110}, {"time": 175210, "pitch": 52, "duration": 240, "velocity": 100}, {"time": 175440, "pitch": 45, "duration": 240, "velocity": 100}, {"time": 175450, "pitch": 52, "duration": 240, "velocity": 90}, {"time": 175680, "pitch": 45, "duration": 240, "velocity": 110}, {"time": 175690, "pitch": 52, "duration": 240, "velocity": 100}, {"time": 175920, "pitch": 45, "duration": 240, "velocity": 100}, {"time": 175930, "pitch": 52, "duration": 240, "velocity": 90}, {"time": 176160, "pitch": 45, "duration": 240, "velocity": 110}, {"time": 176170, "pitch": 52, "duration": 240, "velocity": 100}, {"time": 176400, "pitch": 45, "duration": 240, "velocity": 100}, {"time": 176410, "pitch": 52, "duration": 240, "velocity": 90}, {"time": 176640, "pitch": 45, "duration": 240, "velocity": 110}, {"time": 176650, "pitch": 52, "duration": 240, "velocity": 100}, {"time": 176880, "pitch": 45, "duration": 240, "velocity": 100}, {"time": 176890, "pitch": 52, "duration": 230, "velocity": 90}, {"time": 177120, "pitch": 52, "duration": 240, "velocity": 110}, {"time": 177120, "pitch": 59, "duration": 240, "velocity": 90}, {"time": 177130, "pitch": 64, "duration": 240, "velocity": 80}, {"time": 177360, "pitch": 52, "duration": 40, "velocity": 90}, {"time": 177370, "pitch": 59, "duration": 40, "velocity": 100}, {"time": 177600, "pitch": 64, "duration": 240, "velocity": 110}, {"time": 177600, "pitch": 68, "duration": 240, "velocity": 70}, {"time": 177610, "pitch": 76, "duration": 240, "velocity": 90}, {"time": 177840, "pitch": 64, "duration": 40, "velocity": 90}, {"time": 177850, "pitch": 68, "duration": 40, "velocity": 100}, {"time": 178080, "pitch": 62, "duration": 240, "velocity": 110}, {"time": 178080, "pitch": 68, "duration": 240, "velocity": 70}, {"time": 178090, "pitch": 74, "duration": 240, "velocity": 90}, {"time": 178320, "pitch": 64, "duration": 240, "velocity": 110}, {"time": 178320, "pitch": 68, "duration": 240, "velocity": 70}, {"time": 178330, "pitch": 76, "duration": 240, "velocity": 90}, {"time": 178560, "pitch": 64, "duration": 40, "velocity": 90}, {"time": 178570, "pitch": 68, "duration": 40, "velocity": 100}, {"time": 178800, "pitch": 64, "duration": 240, "velocity": 110}, {"time": 178800, "pitch": 68, "duration": 240, "velocity": 70}, {"time": 178810, "pitch": 76, "duration": 230, "velocity": 90}, {"time": 179040, "pitch": 64, "duration": 40, "velocity": 90}, {"time": 179050, "pitch": 68, "duration": 40, "velocity": 100}, {"time": 179280, "pitch": 64, "duration": 240, "velocity": 105}, {"time": 179280, "pitch": 68, "duration": 240, "velocity": 65}, {"time": 179290, "pitch": 76, "duration": 240, "velocity": 85}, {"time": 179520, "pitch": 64, "duration": 240, "velocity": 110}, {"time": 179520, "pitch": 68, "duration": 240, "velocity": 70}, {"time": 179530, "pitch": 76, "duration": 240, "velocity": 90}, {"time": 179760, "pitch": 64, "duration": 240, "velocity": 105}, {"time": 179760, "pitch": 68, "duration": 240, "velocity": 65}, {"time": 179770, "pitch": 76, "duration": 240, "velocity": 85}, {"time": 180000, "pitch": 64, "duration": 240, "velocity": 110}, {"time": 180000, "pitch": 68, "duration": 240, "velocity": 70}, {"time": 180010, "pitch": 76, "duration": 240, "velocity": 90}, {"time": 180240, "pitch": 64, "duration": 240, "velocity": 105}, {"time": 180240, "pitch": 68, "duration": 240, "velocity": 65}, {"time": 180250, "pitch": 76, "duration": 240, "velocity": 85}, {"time": 180480, "pitch": 62, "duration": 240, "velocity": 110}, {"time": 180480, "pitch": 66, "duration": 240, "velocity": 70}, {"time": 180490, "pitch": 74, "duration": 240, "velocity": 90}, {"time": 180720, "pitch": 64, "duration": 240, "velocity": 105}, {"time": 180720, "pitch": 68, "duration": 240, "velocity": 65}, {"time": 180730, "pitch": 76, "duration": 230, "velocity": 85}, {"time": 180960, "pitch": 43, "duration": 240, "velocity": 110}, {"time": 180970, "pitch": 50, "duration": 240, "velocity": 100}, {"time": 181200, "pitch": 43, "duration": 240, "velocity": 100}, {"time": 181210, "pitch": 50, "duration": 240, "velocity": 90}, {"time": 181440, "pitch": 43, "duration": 240, "velocity": 110}, {"time": 181450, "pitch": 50, "duration": 240, "velocity": 100}, {"time": 181680, "pitch": 43, "duration": 240, "velocity": 100}, {"time": 181690, "pitch": 50, "duration": 240, "velocity": 90}, {"time": 181920, "pitch": 43, "duration": 240, "velocity": 110}, {"time": 181930, "pitch": 50, "duration": 240, "velocity": 100}, {"time": 182160, "pitch": 43, "duration": 240, "velocity": 100}, {"time": 182170, "pitch": 50, "duration": 240, "velocity": 90}, {"time": 182400, "pitch": 43, "duration": 240, "velocity": 110}, {"time": 182410, "pitch": 50, "duration": 240, "velocity": 100}, {"time": 182640, "pitch": 43, "duration": 240, "velocity": 100}, {"time": 182650, "pitch": 50, "duration": 230, "velocity": 90}, {"time": 182880, "pitch": 45, "duration": 240, "velocity": 110}, {"time": 182890, "pitch": 52, "duration": 240, "velocity": 100}, {"time": 183120, "pitch": 45, "duration": 240, "velocity": 100}, {"time": 183130, "pitch": 52, "duration": 240, "velocity": 90}, {"time": 183360, "pitch": 45, "duration": 240, "velocity": 110}, {"time": 183370, "pitch": 52, "duration": 240, "velocity": 100}, {"time": 183600, "pitch": 45, "duration": 240, "velocity": 100}, {"time": 183610, "pitch": 52, "duration": 240, "velocity": 90}, {"time": 183840, "pitch": 45, "duration": 240, "velocity": 110}, {"time": 183850, "pitch": 52, "duration": 240, "velocity": 100}, {"time": 184080, "pitch": 45, "duration": 240, "velocity": 100}, {"time": 184090, "pitch": 52, "duration": 240, "velocity": 90}, {"time": 184320, "pitch": 45, "duration": 240, "velocity": 110}, {"time": 184330, "pitch": 52, "duration": 240, "velocity": 100}, {"time": 184560, "pitch": 45, "duration": 240, "velocity": 100}, {"time": 184570, "pitch": 52, "duration": 230, "velocity": 90}, {"time": 184800, "pitch": 47, "duration": 240, "velocity": 110}, {"time": 184800, "pitch": 54, "duration": 240, "velocity": 100}, {"time": 184810, "pitch": 59, "duration": 240, "velocity": 90}, {"time": 184810, "pitch": 63, "duration": 240, "velocity": 100}, {"time": 185040, "pitch": 47, "duration": 240, "velocity": 105}, {"time": 185040, "pitch": 54, "duration": 240, "velocity": 95}, {"time": 185050, "pitch": 59, "duration": 240, "velocity": 85}, {"time": 185050, "pitch": 63, "duration": 240, "velocity": 95}, {"time": 185280, "pitch": 47, "duration": 240, "velocity": 110}, {"time": 185280, "pitch": 54, "duration": 240, "velocity": 100}, {"time": 185290, "pitch": 59, "duration": 240, "velocity": 90}, {"time": 185290, "pitch": 63, "duration": 240, "velocity": 100}, {"time": 185520, "pitch": 47, "duration": 60, "velocity": 95}, {"time": 185520, "pitch": 54, "duration": 60, "velocity": 85}, {"time": 185530, "pitch": 59, "duration": 60, "velocity": 75}, {"time": 185760, "pitch": 47, "duration": 60, "velocity": 100}, {"time": 185760, "pitch": 54, "duration": 60, "velocity": 90}, {"time": 185770, "pitch": 59, "duration": 60, "velocity": 80}, {"time": 186000, "pitch": 47, "duration": 240, "velocity": 110}, {"time": 186000, "pitch": 54, "duration": 240, "velocity": 100}, {"time": 186010, "pitch": 59, "duration": 240, "velocity": 90}, {"time": 186010, "pitch": 63, "duration": 240, "velocity": 100}, {"time": 186240, "pitch": 47, "duration": 60, "velocity": 100}, {"time": 186240, "pitch": 54, "duration": 60, "velocity": 90}, {"time": 186250, "pitch": 59, "duration": 60, "velocity": 80}, {"time": 186480, "pitch": 47, "duration": 240, "velocity": 105}, {"time": 186480, "pitch": 54, "duration": 240, "velocity": 95}, {"time": 186490, "pitch": 59, "duration": 230, "velocity": 85}, {"time": 186490, "pitch": 63, "duration": 230, "velocity": 95}, {"time": 186720, "pitch": 47, "duration": 240, "velocity": 110}, {"time": 186720, "pitch": 54, "duration": 240, "velocity": 100}, {"time": 186730, "pitch": 59, "duration": 240, "velocity": 90}, {"time": 186730, "pitch": 63, "duration": 240, "velocity": 100}, {"time": 188400, "pitch": 52, "duration": 480, "velocity": 110}, {"time": 188400, "pitch": 59, "duration": 480, "velocity": 100}, {"time": 188410, "pitch": 64, "duration": 470, "velocity": 95}, {"time": 188410, "pitch": 68, "duration": 470, "velocity": 100}, {"time": 188880, "pitch": 52, "duration": 240, "velocity": 100}, {"time": 188880, "pitch": 59, "duration": 240, "velocity": 90}, {"time": 188890, "pitch": 64, "duration": 240, "velocity": 85}, {"time": 188890, "pitch": 68, "duration": 240, "velocity": 90}, {"time": 189120, "pitch": 52, "duration": 240, "velocity": 110}, {"time": 189120, "pitch": 59, "duration": 240, "velocity": 100}, {"time": 189130, "pitch": 64, "duration": 240, "velocity": 95}, {"time": 189130, "pitch": 68, "duration": 240, "velocity": 100}, {"time": 189360, "pitch": 52, "duration": 240, "velocity": 100}, {"time": 189360, "pitch": 59, "duration": 240, "velocity": 90}, {"time": 189370, "pitch": 64, "duration": 240, "velocity": 85}, {"time": 189370, "pitch": 68, "duration": 240, "velocity": 90}, {"time": 189600, "pitch": 52, "duration": 240, "velocity": 110}, {"time": 189600, "pitch": 59, "duration": 240, "velocity": 100}, {"time": 189610, "pitch": 64, "duration": 240, "velocity": 95}, {"time": 189610, "pitch": 68, "duration": 240, "velocity": 100}, {"time": 189840, "pitch": 52, "duration": 240, "velocity": 100}, {"time": 189840, "pitch": 59, "duration": 240, "velocity": 90}, {"time": 189850, "pitch": 64, "duration": 240, "velocity": 85}, {"time": 189850, "pitch": 69, "duration": 240, "velocity": 90}, {"time": 190080, "pitch": 52, "duration": 240, "velocity": 110}, {"time": 190080, "pitch": 59, "duration": 240, "velocity": 100}, {"time": 190090, "pitch": 64, "duration": 240, "velocity": 95}, {"time": 190090, "pitch": 69, "duration": 240, "velocity": 100}, {"time": 190320, "pitch": 52, "duration": 240, "velocity": 100}, {"time": 190320, "pitch": 59, "duration": 240, "velocity": 90}, {"time": 190330, "pitch": 64, "duration": 230, "velocity": 85}, {"time": 190330, "pitch": 68, "duration": 230, "velocity": 90}, {"time": 190560, "pitch": 52, "duration": 240, "velocity": 110}, {"time": 190560, "pitch": 59, "duration": 240, "velocity": 100}, {"time": 190570, "pitch": 64, "duration": 240, "velocity": 95}, {"time": 190570, "pitch": 69, "duration": 240, "velocity": 100}, {"time": 190800, "pitch": 52, "duration": 240, "velocity": 100}, {"time": 190800, "pitch": 59, "duration": 240, "velocity": 90}, {"time": 190810, "pitch": 64, "duration": 230, "velocity": 85}, {"time": 190810, "pitch": 69, "duration": 230, "velocity": 90}, {"time": 191040, "pitch": 52, "duration": 240, "velocity": 110}, {"time": 191040, "pitch": 59, "duration": 240, "velocity": 100}, {"time": 191050, "pitch": 64, "duration": 240, "velocity": 95}, {"time": 191050, "pitch": 69, "duration": 240, "velocity": 100}, {"time": 191280, "pitch": 52, "duration": 240, "velocity": 100}, {"time": 191280, "pitch": 59, "duration": 240, "velocity": 90}, {"time": 191290, "pitch": 64, "duration": 230, "velocity": 85}, {"time": 191290, "pitch": 69, "duration": 230, "velocity": 90}, {"time": 191520, "pitch": 52, "duration": 240, "velocity": 110}, {"time": 191520, "pitch": 59, "duration": 240, "velocity": 100}, {"time": 191530, "pitch": 64, "duration": 240, "velocity": 95}, {"time": 191530, "pitch": 69, "duration": 240, "velocity": 100}, {"time": 191760, "pitch": 52, "duration": 240, "velocity": 100}, {"time": 191760, "pitch": 59, "duration": 240, "velocity": 90}, {"time": 191770, "pitch": 64, "duration": 230, "velocity": 85}, {"time": 191770, "pitch": 69, "duration": 230, "velocity": 90}, {"time": 192000, "pitch": 52, "duration": 240, "velocity": 90}, {"time": 192000, "pitch": 59, "duration": 240, "velocity": 80}, {"time": 192010, "pitch": 64, "duration": 470, "velocity": 110}, {"time": 192480, "pitch": 50, "duration": 240, "velocity": 90}, {"time": 192480, "pitch": 57, "duration": 240, "velocity": 100}, {"time": 192490, "pitch": 62, "duration": 240, "velocity": 110}, {"time": 192720, "pitch": 50, "duration": 240, "velocity": 80}, {"time": 192720, "pitch": 57, "duration": 240, "velocity": 90}, {"time": 192730, "pitch": 62, "duration": 240, "velocity": 100}, {"time": 192960, "pitch": 50, "duration": 240, "velocity": 90}, {"time": 192960, "pitch": 57, "duration": 240, "velocity": 100}, {"time": 192970, "pitch": 62, "duration": 240, "velocity": 110}, {"time": 193200, "pitch": 50, "duration": 240, "velocity": 80}, {"time": 193200, "pitch": 57, "duration": 240, "velocity": 90}, {"time": 193210, "pitch": 62, "duration": 240, "velocity": 100}, {"time": 193440, "pitch": 50, "duration": 240, "velocity": 90}, {"time": 193440, "pitch": 57, "duration": 240, "velocity": 100}, {"time": 193450, "pitch": 62, "duration": 240, "velocity": 110}, {"time": 193680, "pitch": 50, "duration": 240, "velocity": 80}, {"time": 193680, "pitch": 57, "duration": 240, "velocity": 90}, {"time": 193690, "pitch": 62, "duration": 240, "velocity": 100}, {"time": 193920, "pitch": 50, "duration": 240, "velocity": 85}, {"time": 193920, "pitch": 57, "duration": 240, "velocity": 95}, {"time": 193930, "pitch": 62, "duration": 240, "velocity": 105}, {"time": 194160, "pitch": 49, "duration": 480, "velocity": 90}, {"time": 194160, "pitch": 56, "duration": 480, "velocity": 100}, {"time": 194170, "pitch": 61, "duration": 470, "velocity": 110}, {"time": 194640, "pitch": 49, "duration": 240, "velocity": 80}, {"time": 194640, "pitch": 56, "duration": 240, "velocity": 90}, {"time": 194650, "pitch": 61, "duration": 240, "velocity": 100}, {"time": 194880, "pitch": 49, "duration": 240, "velocity": 90}, {"time": 194880, "pitch": 56, "duration": 240, "velocity": 100}, {"time": 194890, "pitch": 61, "duration": 240, "velocity": 110}, {"time": 195120, "pitch": 49, "duration": 240, "velocity": 80}, {"time": 195120, "pitch": 56, "duration": 240, "velocity": 90}, {"time": 195130, "pitch": 61, "duration": 240, "velocity": 100}, {"time": 195360, "pitch": 49, "duration": 240, "velocity": 90}, {"time": 195360, "pitch": 56, "duration": 240, "velocity": 100}, {"time": 195370, "pitch": 61, "duration": 240, "velocity": 110}, {"time": 195370, "pitch": 64, "duration": 240, "velocity": 100}, {"time": 195600, "pitch": 49, "duration": 240, "velocity": 80}, {"time": 195600, "pitch": 56, "duration": 240, "velocity": 90}, {"time": 195610, "pitch": 61, "duration": 240, "velocity": 100}, {"time": 195610, "pitch": 63, "duration": 240, "velocity": 90}, {"time": 195840, "pitch": 49, "duration": 240, "velocity": 90}, {"time": 195840, "pitch": 56, "duration": 240, "velocity": 100}, {"time": 195850, "pitch": 61, "duration": 240, "velocity": 110}, {"time": 196080, "pitch": 49, "duration": 240, "velocity": 80}, {"time": 196080, "pitch": 56, "duration": 240, "velocity": 90}, {"time": 196090, "pitch": 61, "duration": 230, "velocity": 100}, {"time": 196320, "pitch": 44, "duration": 240, "velocity": 110}, {"time": 196330, "pitch": 51, "duration": 240, "velocity": 100}, {"time": 196560, "pitch": 44, "duration": 240, "velocity": 100}, {"time": 196570, "pitch": 51, "duration": 240, "velocity": 90}, {"time": 196800, "pitch": 44, "duration": 240, "velocity": 110}, {"time": 196810, "pitch": 51, "duration": 240, "velocity": 100}, {"time": 197040, "pitch": 44, "duration": 240, "velocity": 100}, {"time": 197050, "pitch": 51, "duration": 240, "velocity": 90}, {"time": 197280, "pitch": 44, "duration": 240, "velocity": 105}, {"time": 197520, "pitch": 47, "duration": 480, "velocity": 110}, {"time": 198000, "pitch": 49, "duration": 1200, "velocity": 110}, {"time": 198480, "pitch": 56, "duration": 240, "velocity": 95}, {"time": 198480, "pitch": 61, "duration": 240, "velocity": 65}, {"time": 198490, "pitch": 68, "duration": 240, "velocity": 105}, {"time": 198720, "pitch": 56, "duration": 240, "velocity": 100}, {"time": 198720, "pitch": 61, "duration": 240, "velocity": 70}, {"time": 198730, "pitch": 71, "duration": 240, "velocity": 110}, {"time": 198960, "pitch": 56, "duration": 240, "velocity": 95}, {"time": 198960, "pitch": 61, "duration": 240, "velocity": 65}, {"time": 198970, "pitch": 68, "duration": 240, "velocity": 105}, {"time": 199200, "pitch": 54, "duration": 240, "velocity": 100}, {"time": 199200, "pitch": 61, "duration": 240, "velocity": 70}, {"time": 199210, "pitch": 66, "duration": 240, "velocity": 110}, {"time": 199440, "pitch": 54, "duration": 240, "velocity": 95}, {"time": 199440, "pitch": 61, "duration": 240, "velocity": 65}, {"time": 199450, "pitch": 68, "duration": 240, "velocity": 105}, {"time": 199680, "pitch": 54, "duration": 240, "velocity": 90}, {"time": 199680, "pitch": 61, "duration": 240, "velocity": 60}, {"time": 199690, "pitch": 63, "duration": 240, "velocity": 100}, {"time": 199920, "pitch": 54, "duration": 30, "velocity": 80}, {"time": 199920, "pitch": 61, "duration": 30, "velocity": 90}, {"time": 199930, "pitch": 66, "duration": 30, "velocity": 100}, {"time": 200040, "pitch": 61, "duration": 30, "velocity": 95}, {"time": 200040, "pitch": 66, "duration": 30, "velocity": 105}, {"time": 200050, "pitch": 54, "duration": 30, "velocity": 85}, {"time": 200160, "pitch": 42, "duration": 240, "velocity": 110}, {"time": 200170, "pitch": 49, "duration": 240, "velocity": 100}, {"time": 200400, "pitch": 42, "duration": 240, "velocity": 100}, {"time": 200410, "pitch": 49, "duration": 240, "velocity": 90}, {"time": 200640, "pitch": 42, "duration": 240, "velocity": 110}, {"time": 200650, "pitch": 49, "duration": 240, "velocity": 100}, {"time": 200880, "pitch": 42, "duration": 240, "velocity": 100}, {"time": 200890, "pitch": 49, "duration": 240, "velocity": 90}, {"time": 201120, "pitch": 42, "duration": 240, "velocity": 105}, {"time": 201360, "pitch": 45, "duration": 480, "velocity": 110}, {"time": 201840, "pitch": 47, "duration": 480, "velocity": 110}, {"time": 201850, "pitch": 54, "duration": 470, "velocity": 100}, {"time": 202320, "pitch": 47, "duration": 240, "velocity": 100}, {"time": 202330, "pitch": 54, "duration": 240, "velocity": 100}, {"time": 202560, "pitch": 47, "duration": 240, "velocity": 105}, {"time": 202570, "pitch": 54, "duration": 230, "velocity": 95}, {"time": 202800, "pitch": 47, "duration": 240, "velocity": 95}, {"time": 202800, "pitch": 54, "duration": 240, "velocity": 100}, {"time": 202810, "pitch": 59, "duration": 240, "velocity": 105}, {"time": 202810, "pitch": 66, "duration": 240, "velocity": 110}, {"time": 203040, "pitch": 47, "duration": 240, "velocity": 95}, {"time": 203050, "pitch": 54, "duration": 230, "velocity": 85}, {"time": 203280, "pitch": 47, "duration": 240, "velocity": 95}, {"time": 203280, "pitch": 54, "duration": 240, "velocity": 100}, {"time": 203290, "pitch": 59, "duration": 470, "velocity": 105}, {"time": 203290, "pitch": 66, "duration": 480, "velocity": 110}, {"time": 203520, "pitch": 47, "duration": 240, "velocity": 95}, {"time": 203530, "pitch": 54, "duration": 230, "velocity": 85}, {"time": 203760, "pitch": 52, "duration": 480, "velocity": 110}, {"time": 203760, "pitch": 59, "duration": 480, "velocity": 100}, {"time": 203770, "pitch": 64, "duration": 470, "velocity": 95}, {"time": 203770, "pitch": 68, "duration": 470, "velocity": 100}, {"time": 204240, "pitch": 52, "duration": 240, "velocity": 100}, {"time": 204240, "pitch": 59, "duration": 240, "velocity": 90}, {"time": 204250, "pitch": 64, "duration": 240, "velocity": 85}, {"time": 204250, "pitch": 68, "duration": 240, "velocity": 90}, {"time": 204480, "pitch": 52, "duration": 240, "velocity": 110}, {"time": 204480, "pitch": 59, "duration": 240, "velocity": 100}, {"time": 204490, "pitch": 64, "duration": 240, "velocity": 95}, {"time": 204490, "pitch": 68, "duration": 240, "velocity": 100}, {"time": 204720, "pitch": 52, "duration": 240, "velocity": 100}, {"time": 204720, "pitch": 59, "duration": 240, "velocity": 90}, {"time": 204730, "pitch": 64, "duration": 240, "velocity": 85}, {"time": 204730, "pitch": 68, "duration": 240, "velocity": 90}, {"time": 204960, "pitch": 52, "duration": 240, "velocity": 110}, {"time": 204960, "pitch": 59, "duration": 240, "velocity": 100}, {"time": 204970, "pitch": 64, "duration": 240, "velocity": 95}, {"time": 204970, "pitch": 68, "duration": 240, "velocity": 100}, {"time": 205200, "pitch": 52, "duration": 240, "velocity": 100}, {"time": 205200, "pitch": 59, "duration": 240, "velocity": 90}, {"time": 205210, "pitch": 64, "duration": 240, "velocity": 85}, {"time": 205210, "pitch": 68, "duration": 240, "velocity": 90}, {"time": 205440, "pitch": 52, "duration": 240, "velocity": 110}, {"time": 205440, "pitch": 59, "duration": 240, "velocity": 100}, {"time": 205450, "pitch": 64, "duration": 240, "velocity": 95}, {"time": 205450, "pitch": 68, "duration": 240, "velocity": 100}, {"time": 205680, "pitch": 52, "duration": 240, "velocity": 100}, {"time": 205680, "pitch": 59, "duration": 240, "velocity": 90}, {"time": 205690, "pitch": 64, "duration": 230, "velocity": 85}, {"time": 205690, "pitch": 69, "duration": 230, "velocity": 90}, {"time": 205920, "pitch": 52, "duration": 240, "velocity": 110}, {"time": 205920, "pitch": 59, "duration": 240, "velocity": 100}, {"time": 205930, "pitch": 64, "duration": 240, "velocity": 95}, {"time": 205930, "pitch": 69, "duration": 240, "velocity": 100}, {"time": 206160, "pitch": 52, "duration": 240, "velocity": 100}, {"time": 206160, "pitch": 59, "duration": 240, "velocity": 90}, {"time": 206170, "pitch": 64, "duration": 230, "velocity": 85}, {"time": 206170, "pitch": 69, "duration": 230, "velocity": 90}, {"time": 206400, "pitch": 52, "duration": 240, "velocity": 110}, {"time": 206400, "pitch": 59, "duration": 240, "velocity": 100}, {"time": 206410, "pitch": 64, "duration": 240, "velocity": 95}, {"time": 206410, "pitch": 69, "duration": 240, "velocity": 100}, {"time": 206640, "pitch": 52, "duration": 240, "velocity": 100}, {"time": 206640, "pitch": 59, "duration": 240, "velocity": 90}, {"time": 206650, "pitch": 64, "duration": 230, "velocity": 85}, {"time": 206650, "pitch": 69, "duration": 230, "velocity": 90}, {"time": 206880, "pitch": 52, "duration": 240, "velocity": 110}, {"time": 206880, "pitch": 59, "duration": 240, "velocity": 100}, {"time": 206890, "pitch": 64, "duration": 240, "velocity": 95}, {"time": 206890, "pitch": 69, "duration": 240, "velocity": 100}, {"time": 207120, "pitch": 52, "duration": 240, "velocity": 100}, {"time": 207120, "pitch": 59, "duration": 240, "velocity": 90}, {"time": 207130, "pitch": 64, "duration": 230, "velocity": 85}, {"time": 207130, "pitch": 69, "duration": 230, "velocity": 90}, {"time": 207360, "pitch": 52, "duration": 240, "velocity": 90}, {"time": 207360, "pitch": 59, "duration": 240, "velocity": 80}, {"time": 207370, "pitch": 64, "duration": 470, "velocity": 110}, {"time": 207840, "pitch": 50, "duration": 240, "velocity": 90}, {"time": 207840, "pitch": 57, "duration": 240, "velocity": 100}, {"time": 207850, "pitch": 62, "duration": 240, "velocity": 110}, {"time": 208080, "pitch": 50, "duration": 240, "velocity": 80}, {"time": 208080, "pitch": 57, "duration": 240, "velocity": 90}, {"time": 208090, "pitch": 62, "duration": 240, "velocity": 100}, {"time": 208320, "pitch": 50, "duration": 240, "velocity": 90}, {"time": 208320, "pitch": 57, "duration": 240, "velocity": 100}, {"time": 208330, "pitch": 62, "duration": 240, "velocity": 110}, {"time": 208560, "pitch": 50, "duration": 240, "velocity": 80}, {"time": 208560, "pitch": 57, "duration": 240, "velocity": 90}, {"time": 208570, "pitch": 62, "duration": 240, "velocity": 100}, {"time": 208800, "pitch": 50, "duration": 240, "velocity": 90}, {"time": 208800, "pitch": 57, "duration": 240, "velocity": 100}, {"time": 208810, "pitch": 62, "duration": 240, "velocity": 110}, {"time": 209040, "pitch": 50, "duration": 240, "velocity": 80}, {"time": 209040, "pitch": 57, "duration": 240, "velocity": 90}, {"time": 209050, "pitch": 62, "duration": 240, "velocity": 100}, {"time": 209280, "pitch": 50, "duration": 240, "velocity": 85}, {"time": 209280, "pitch": 57, "duration": 240, "velocity": 95}, {"time": 209290, "pitch": 62, "duration": 240, "velocity": 105}, {"time": 209520, "pitch": 49, "duration": 480, "velocity": 90}, {"time": 209520, "pitch": 56, "duration": 480, "velocity": 100}, {"time": 209530, "pitch": 61, "duration": 470, "velocity": 110}, {"time": 210000, "pitch": 49, "duration": 240, "velocity": 80}, {"time": 210000, "pitch": 56, "duration": 240, "velocity": 90}, {"time": 210010, "pitch": 61, "duration": 240, "velocity": 100}, {"time": 210240, "pitch": 49, "duration": 240, "velocity": 90}, {"time": 210240, "pitch": 56, "duration": 240, "velocity": 100}, {"time": 210250, "pitch": 61, "duration": 240, "velocity": 110}, {"time": 210480, "pitch": 49, "duration": 240, "velocity": 80}, {"time": 210480, "pitch": 56, "duration": 240, "velocity": 90}, {"time": 210490, "pitch": 61, "duration": 240, "velocity": 100}, {"time": 210720, "pitch": 49, "duration": 240, "velocity": 90}, {"time": 210720, "pitch": 56, "duration": 240, "velocity": 100}, {"time": 210730, "pitch": 61, "duration": 240, "velocity": 110}, {"time": 210730, "pitch": 64, "duration": 240, "velocity": 100}, {"time": 210960, "pitch": 49, "duration": 240, "velocity": 80}, {"time": 210960, "pitch": 56, "duration": 240, "velocity": 90}, {"time": 210970, "pitch": 61, "duration": 240, "velocity": 100}, {"time": 210970, "pitch": 63, "duration": 240, "velocity": 90}, {"time": 211200, "pitch": 49, "duration": 240, "velocity": 90}, {"time": 211200, "pitch": 56, "duration": 240, "velocity": 100}, {"time": 211210, "pitch": 61, "duration": 240, "velocity": 110}, {"time": 211440, "pitch": 49, "duration": 240, "velocity": 80}, {"time": 211440, "pitch": 56, "duration": 240, "velocity": 90}, {"time": 211450, "pitch": 61, "duration": 230, "velocity": 100}, {"time": 211680, "pitch": 44, "duration": 240, "velocity": 110}, {"time": 211690, "pitch": 51, "duration": 240, "velocity": 100}, {"time": 211920, "pitch": 44, "duration": 240, "velocity": 100}, {"time": 211930, "pitch": 51, "duration": 240, "velocity": 90}, {"time": 212160, "pitch": 44, "duration": 240, "velocity": 110}, {"time": 212170, "pitch": 51, "duration": 240, "velocity": 100}, {"time": 212400, "pitch": 44, "duration": 240, "velocity": 100}, {"time": 212410, "pitch": 51, "duration": 240, "velocity": 90}, {"time": 212640, "pitch": 44, "duration": 240, "velocity": 105}, {"time": 212880, "pitch": 47, "duration": 480, "velocity": 110}, {"time": 213360, "pitch": 49, "duration": 1200, "velocity": 110}, {"time": 213840, "pitch": 56, "duration": 240, "velocity": 95}, {"time": 213840, "pitch": 61, "duration": 240, "velocity": 65}, {"time": 213850, "pitch": 68, "duration": 240, "velocity": 105}, {"time": 214080, "pitch": 56, "duration": 240, "velocity": 100}, {"time": 214080, "pitch": 61, "duration": 240, "velocity": 70}, {"time": 214090, "pitch": 71, "duration": 240, "velocity": 110}, {"time": 214320, "pitch": 56, "duration": 240, "velocity": 95}, {"time": 214320, "pitch": 61, "duration": 240, "velocity": 65}, {"time": 214330, "pitch": 68, "duration": 240, "velocity": 105}, {"time": 214560, "pitch": 54, "duration": 240, "velocity": 100}, {"time": 214560, "pitch": 61, "duration": 240, "velocity": 70}, {"time": 214570, "pitch": 66, "duration": 240, "velocity": 110}, {"time": 214800, "pitch": 54, "duration": 240, "velocity": 95}, {"time": 214800, "pitch": 61, "duration": 240, "velocity": 65}, {"time": 214810, "pitch": 68, "duration": 240, "velocity": 105}, {"time": 215040, "pitch": 54, "duration": 240, "velocity": 90}, {"time": 215040, "pitch": 61, "duration": 240, "velocity": 60}, {"time": 215050, "pitch": 63, "duration": 240, "velocity": 100}, {"time": 215280, "pitch": 54, "duration": 30, "velocity": 80}, {"time": 215280, "pitch": 61, "duration": 30, "velocity": 90}, {"time": 215290, "pitch": 66, "duration": 30, "velocity": 100}, {"time": 215400, "pitch": 61, "duration": 30, "velocity": 95}, {"time": 215400, "pitch": 66, "duration": 30, "velocity": 105}, {"time": 215410, "pitch": 54, "duration": 30, "velocity": 85}, {"time": 215520, "pitch": 42, "duration": 240, "velocity": 110}, {"time": 215520, "pitch": 49, "duration": 240, "velocity": 100}, {"time": 215530, "pitch": 54, "duration": 240, "velocity": 90}, {"time": 215760, "pitch": 42, "duration": 240, "velocity": 100}, {"time": 215760, "pitch": 49, "duration": 240, "velocity": 90}, {"time": 215770, "pitch": 54, "duration": 240, "velocity": 80}, {"time": 216000, "pitch": 42, "duration": 240, "velocity": 110}, {"time": 216000, "pitch": 49, "duration": 240, "velocity": 100}, {"time": 216010, "pitch": 54, "duration": 240, "velocity": 90}, {"time": 216240, "pitch": 42, "duration": 240, "velocity": 100}, {"time": 216240, "pitch": 49, "duration": 240, "velocity": 90}, {"time": 216250, "pitch": 54, "duration": 230, "velocity": 80}, {"time": 216480, "pitch": 47, "duration": 240, "velocity": 110}, {"time": 216480, "pitch": 54, "duration": 240, "velocity": 100}, {"time": 216490, "pitch": 59, "duration": 240, "velocity": 90}, {"time": 216490, "pitch": 68, "duration": 240, "velocity": 100}, {"time": 216720, "pitch": 47, "duration": 240, "velocity": 110}, {"time": 216720, "pitch": 54, "duration": 240, "velocity": 100}, {"time": 216730, "pitch": 59, "duration": 240, "velocity": 90}, {"time": 216730, "pitch": 68, "duration": 240, "velocity": 100}, {"time": 216960, "pitch": 47, "duration": 60, "velocity": 90}, {"time": 216960, "pitch": 54, "duration": 60, "velocity": 80}, {"time": 216970, "pitch": 59, "duration": 60, "velocity": 70}, {"time": 217200, "pitch": 52, "duration": 3120, "velocity": 110}, {"time": 217200, "pitch": 59, "duration": 3120, "velocity": 105}, {"time": 217200, "pitch": 64, "duration": 480, "velocity": 100}, {"time": 217210, "pitch": 68, "duration": 470, "velocity": 95}, {"time": 217210, "pitch": 76, "duration": 470, "velocity": 100}, {"time": 217680, "pitch": 64, "duration": 240, "velocity": 85}, {"time": 217680, "pitch": 68, "duration": 240, "velocity": 95}, {"time": 217690, "pitch": 76, "duration": 240, "velocity": 105}, {"time": 217920, "pitch": 64, "duration": 240, "velocity": 90}, {"time": 217920, "pitch": 68, "duration": 240, "velocity": 100}, {"time": 217930, "pitch": 76, "duration": 240, "velocity": 110}, {"time": 218160, "pitch": 64, "duration": 240, "velocity": 80}, {"time": 218160, "pitch": 68, "duration": 240, "velocity": 90}, {"time": 218170, "pitch": 76, "duration": 240, "velocity": 100}, {"time": 218400, "pitch": 68, "duration": 240, "velocity": 110}, {"time": 218410, "pitch": 76, "duration": 240, "velocity": 100}, {"time": 218640, "pitch": 64, "duration": 240, "velocity": 105}, {"time": 218650, "pitch": 76, "duration": 240, "velocity": 95}, {"time": 218880, "pitch": 62, "duration": 240, "velocity": 110}, {"time": 218890, "pitch": 76, "duration": 240, "velocity": 100}, {"time": 219120, "pitch": 64, "duration": 240, "velocity": 105}, {"time": 219130, "pitch": 76, "duration": 230, "velocity": 95}, {"time": 219360, "pitch": 62, "duration": 240, "velocity": 85}, {"time": 219360, "pitch": 69, "duration": 240, "velocity": 110}, {"time": 219370, "pitch": 76, "duration": 240, "velocity": 105}, {"time": 219600, "pitch": 64, "duration": 240, "velocity": 90}, {"time": 219600, "pitch": 69, "duration": 240, "velocity": 105}, {"time": 219610, "pitch": 76, "duration": 240, "velocity": 100}, {"time": 219840, "pitch": 62, "duration": 240, "velocity": 85}, {"time": 219840, "pitch": 69, "duration": 240, "velocity": 110}, {"time": 219850, "pitch": 76, "duration": 240, "velocity": 105}, {"time": 220080, "pitch": 64, "duration": 240, "velocity": 90}, {"time": 220080, "pitch": 69, "duration": 240, "velocity": 105}, {"time": 220090, "pitch": 76, "duration": 240, "velocity": 100}, {"time": 220320, "pitch": 64, "duration": 140, "velocity": 95}, {"time": 220320, "pitch": 68, "duration": 140, "velocity": 110}, {"time": 220330, "pitch": 76, "duration": 140, "velocity": 105}, {"time": 220560, "pitch": 64, "duration": 240, "velocity": 90}, {"time": 220560, "pitch": 68, "duration": 240, "velocity": 105}, {"time": 220570, "pitch": 76, "duration": 240, "velocity": 100}, {"time": 220800, "pitch": 64, "duration": 140, "velocity": 95}, {"time": 220800, "pitch": 68, "duration": 140, "velocity": 110}, {"time": 220810, "pitch": 76, "duration": 140, "velocity": 105}, {"time": 221040, "pitch": 64, "duration": 240, "velocity": 90}, {"time": 221040, "pitch": 68, "duration": 240, "velocity": 105}, {"time": 221050, "pitch": 76, "duration": 230, "velocity": 100}, {"time": 221280, "pitch": 52, "duration": 240, "velocity": 100}, {"time": 221520, "pitch": 52, "duration": 480, "velocity": 90}, {"time": 221760, "pitch": 64, "duration": 240, "velocity": 100}, {"time": 221770, "pitch": 68, "duration": 240, "velocity": 60}, {"time": 221770, "pitch": 76, "duration": 240, "velocity": 110}, {"time": 222000, "pitch": 52, "duration": 240, "velocity": 90}, {"time": 222240, "pitch": 52, "duration": 480, "velocity": 100}, {"time": 222480, "pitch": 64, "duration": 240, "velocity": 100}, {"time": 222490, "pitch": 69, "duration": 240, "velocity": 80}, {"time": 222490, "pitch": 76, "duration": 240, "velocity": 110}, {"time": 222720, "pitch": 52, "duration": 240, "velocity": 100}, {"time": 222960, "pitch": 52, "duration": 480, "velocity": 90}, {"time": 223200, "pitch": 64, "duration": 240, "velocity": 100}, {"time": 223210, "pitch": 69, "duration": 240, "velocity": 80}, {"time": 223210, "pitch": 76, "duration": 240, "velocity": 110}, {"time": 223440, "pitch": 52, "duration": 240, "velocity": 90}, {"time": 223680, "pitch": 52, "duration": 720, "velocity": 100}, {"time": 223920, "pitch": 64, "duration": 480, "velocity": 100}, {"time": 223930, "pitch": 69, "duration": 480, "velocity": 80}, {"time": 223930, "pitch": 76, "duration": 470, "velocity": 110}, {"time": 224400, "pitch": 64, "duration": 240, "velocity": 90}, {"time": 224410, "pitch": 76, "duration": 240, "velocity": 110}, {"time": 224640, "pitch": 62, "duration": 240, "velocity": 87}, {"time": 224650, "pitch": 74, "duration": 240, "velocity": 107}, {"time": 224880, "pitch": 59, "duration": 240, "velocity": 85}, {"time": 224890, "pitch": 71, "duration": 230, "velocity": 105}, {"time": 225120, "pitch": 52, "duration": 240, "velocity": 100}, {"time": 225360, "pitch": 52, "duration": 480, "velocity": 90}, {"time": 225600, "pitch": 64, "duration": 240, "velocity": 100}, {"time": 225610, "pitch": 68, "duration": 240, "velocity": 60}, {"time": 225610, "pitch": 76, "duration": 240, "velocity": 110}, {"time": 225840, "pitch": 52, "duration": 240, "velocity": 90}, {"time": 226080, "pitch": 52, "duration": 480, "velocity": 100}, {"time": 226320, "pitch": 64, "duration": 240, "velocity": 100}, {"time": 226330, "pitch": 69, "duration": 240, "velocity": 80}, {"time": 226330, "pitch": 76, "duration": 240, "velocity": 110}, {"time": 226560, "pitch": 52, "duration": 240, "velocity": 100}, {"time": 226800, "pitch": 52, "duration": 480, "velocity": 90}, {"time": 227040, "pitch": 64, "duration": 240, "velocity": 100}, {"time": 227050, "pitch": 69, "duration": 240, "velocity": 80}, {"time": 227050, "pitch": 76, "duration": 240, "velocity": 110}, {"time": 227280, "pitch": 52, "duration": 240, "velocity": 90}, {"time": 227520, "pitch": 52, "duration": 720, "velocity": 100}, {"time": 227760, "pitch": 64, "duration": 480, "velocity": 100}, {"time": 227770, "pitch": 69, "duration": 480, "velocity": 80}, {"time": 227770, "pitch": 76, "duration": 470, "velocity": 110}, {"time": 228240, "pitch": 64, "duration": 240, "velocity": 90}, {"time": 228250, "pitch": 76, "duration": 240, "velocity": 110}, {"time": 228480, "pitch": 62, "duration": 240, "velocity": 87}, {"time": 228490, "pitch": 74, "duration": 240, "velocity": 107}, {"time": 228720, "pitch": 59, "duration": 240, "velocity": 85}, {"time": 228730, "pitch": 71, "duration": 230, "velocity": 105}, {"time": 228960, "pitch": 52, "duration": 240, "velocity": 100}, {"time": 229200, "pitch": 52, "duration": 480, "velocity": 90}, {"time": 229440, "pitch": 64, "duration": 240, "velocity": 100}, {"time": 229450, "pitch": 68, "duration": 240, "velocity": 60}, {"time": 229450, "pitch": 76, "duration": 240, "velocity": 110}, {"time": 229680, "pitch": 52, "duration": 240, "velocity": 90}, {"time": 229920, "pitch": 52, "duration": 480, "velocity": 100}, {"time": 230160, "pitch": 64, "duration": 240, "velocity": 100}, {"time": 230170, "pitch": 69, "duration": 240, "velocity": 80}, {"time": 230170, "pitch": 76, "duration": 240, "velocity": 110}, {"time": 230400, "pitch": 52, "duration": 240, "velocity": 100}, {"time": 230640, "pitch": 52, "duration": 480, "velocity": 90}, {"time": 230880, "pitch": 64, "duration": 240, "velocity": 100}, {"time": 230890, "pitch": 69, "duration": 240, "velocity": 80}, {"time": 230890, "pitch": 76, "duration": 240, "velocity": 110}, {"time": 231120, "pitch": 52, "duration": 240, "velocity": 90}, {"time": 231360, "pitch": 52, "duration": 720, "velocity": 100}, {"time": 231600, "pitch": 64, "duration": 480, "velocity": 100}, {"time": 231610, "pitch": 68, "duration": 480, "velocity": 80}, {"time": 231610, "pitch": 76, "duration": 470, "velocity": 110}, {"time": 232080, "pitch": 64, "duration": 240, "velocity": 90}, {"time": 232090, "pitch": 76, "duration": 240, "velocity": 110}, {"time": 232320, "pitch": 62, "duration": 240, "velocity": 87}, {"time": 232330, "pitch": 74, "duration": 240, "velocity": 107}, {"time": 232560, "pitch": 59, "duration": 240, "velocity": 85}, {"time": 232570, "pitch": 71, "duration": 230, "velocity": 105}, {"time": 232800, "pitch": 52, "duration": 240, "velocity": 100}, {"time": 233040, "pitch": 52, "duration": 480, "velocity": 90}, {"time": 233280, "pitch": 64, "duration": 240, "velocity": 100}, {"time": 233290, "pitch": 68, "duration": 240, "velocity": 60}, {"time": 233290, "pitch": 76, "duration": 240, "velocity": 110}, {"time": 233520, "pitch": 52, "duration": 240, "velocity": 90}, {"time": 233760, "pitch": 52, "duration": 480, "velocity": 100}, {"time": 234000, "pitch": 64, "duration": 240, "velocity": 100}, {"time": 234010, "pitch": 69, "duration": 240, "velocity": 80}, {"time": 234010, "pitch": 76, "duration": 240, "velocity": 110}, {"time": 234240, "pitch": 52, "duration": 240, "velocity": 100}, {"time": 234480, "pitch": 52, "duration": 480, "velocity": 90}, {"time": 234720, "pitch": 64, "duration": 240, "velocity": 100}, {"time": 234730, "pitch": 69, "duration": 240, "velocity": 80}, {"time": 234730, "pitch": 76, "duration": 240, "velocity": 110}, {"time": 234960, "pitch": 52, "duration": 240, "velocity": 90}, {"time": 235200, "pitch": 52, "duration": 720, "velocity": 100}, {"time": 235440, "pitch": 64, "duration": 480, "velocity": 100}, {"time": 235450, "pitch": 68, "duration": 480, "velocity": 80}, {"time": 235450, "pitch": 76, "duration": 470, "velocity": 110}, {"time": 235920, "pitch": 64, "duration": 240, "velocity": 90}, {"time": 235930, "pitch": 76, "duration": 240, "velocity": 110}, {"time": 236160, "pitch": 62, "duration": 240, "velocity": 87}, {"time": 236170, "pitch": 74, "duration": 240, "velocity": 107}, {"time": 236400, "pitch": 59, "duration": 240, "velocity": 85}, {"time": 236410, "pitch": 71, "duration": 230, "velocity": 105}, {"time": 236640, "pitch": 52, "duration": 240, "velocity": 100}, {"time": 236880, "pitch": 52, "duration": 480, "velocity": 90}, {"time": 237120, "pitch": 64, "duration": 240, "velocity": 100}, {"time": 237130, "pitch": 68, "duration": 240, "velocity": 60}, {"time": 237130, "pitch": 76, "duration": 240, "velocity": 110}, {"time": 237360, "pitch": 52, "duration": 240, "velocity": 90}, {"time": 237600, "pitch": 52, "duration": 480, "velocity": 100}, {"time": 237840, "pitch": 64, "duration": 240, "velocity": 100}, {"time": 237850, "pitch": 69, "duration": 240, "velocity": 80}, {"time": 237850, "pitch": 76, "duration": 240, "velocity": 110}, {"time": 238080, "pitch": 52, "duration": 240, "velocity": 100}, {"time": 238320, "pitch": 52, "duration": 480, "velocity": 90}, {"time": 238560, "pitch": 64, "duration": 240, "velocity": 100}, {"time": 238570, "pitch": 69, "duration": 240, "velocity": 80}, {"time": 238570, "pitch": 76, "duration": 240, "velocity": 110}, {"time": 238800, "pitch": 52, "duration": 240, "velocity": 90}, {"time": 239040, "pitch": 52, "duration": 720, "velocity": 100}, {"time": 239280, "pitch": 64, "duration": 480, "velocity": 100}, {"time": 239290, "pitch": 69, "duration": 480, "velocity": 80}, {"time": 239290, "pitch": 76, "duration": 470, "velocity": 110}, {"time": 239760, "pitch": 64, "duration": 240, "velocity": 90}, {"time": 239770, "pitch": 76, "duration": 240, "velocity": 110}, {"time": 240000, "pitch": 62, "duration": 240, "velocity": 87}, {"time": 240010, "pitch": 74, "duration": 240, "velocity": 107}, {"time": 240240, "pitch": 59, "duration": 240, "velocity": 85}, {"time": 240250, "pitch": 71, "duration": 230, "velocity": 105}, {"time": 240480, "pitch": 52, "duration": 240, "velocity": 100}, {"time": 240720, "pitch": 52, "duration": 480, "velocity": 90}, {"time": 240960, "pitch": 64, "duration": 240, "velocity": 100}, {"time": 240970, "pitch": 68, "duration": 240, "velocity": 60}, {"time": 240970, "pitch": 76, "duration": 240, "velocity": 110}, {"time": 241200, "pitch": 52, "duration": 240, "velocity": 90}, {"time": 241440, "pitch": 52, "duration": 480, "velocity": 100}, {"time": 241680, "pitch": 64, "duration": 240, "velocity": 100}, {"time": 241690, "pitch": 69, "duration": 240, "velocity": 80}, {"time": 241690, "pitch": 76, "duration": 240, "velocity": 110}, {"time": 241920, "pitch": 52, "duration": 240, "velocity": 100}, {"time": 242160, "pitch": 52, "duration": 480, "velocity": 90}, {"time": 242400, "pitch": 64, "duration": 240, "velocity": 100}, {"time": 242410, "pitch": 69, "duration": 240, "velocity": 80}, {"time": 242410, "pitch": 76, "duration": 240, "velocity": 110}, {"time": 242640, "pitch": 52, "duration": 240, "velocity": 90}, {"time": 242880, "pitch": 52, "duration": 720, "velocity": 100}, {"time": 243120, "pitch": 64, "duration": 480, "velocity": 100}, {"time": 243130, "pitch": 69, "duration": 480, "velocity": 80}, {"time": 243130, "pitch": 76, "duration": 470, "velocity": 110}, {"time": 243600, "pitch": 64, "duration": 240, "velocity": 90}, {"time": 243610, "pitch": 76, "duration": 240, "velocity": 110}, {"time": 243840, "pitch": 62, "duration": 240, "velocity": 87}, {"time": 243850, "pitch": 74, "duration": 240, "velocity": 107}, {"time": 244080, "pitch": 59, "duration": 240, "velocity": 85}, {"time": 244090, "pitch": 71, "duration": 230, "velocity": 105}, {"time": 244320, "pitch": 52, "duration": 240, "velocity": 100}, {"time": 244560, "pitch": 52, "duration": 480, "velocity": 90}, {"time": 244800, "pitch": 64, "duration": 240, "velocity": 100}, {"time": 244810, "pitch": 68, "duration": 240, "velocity": 60}, {"time": 244810, "pitch": 76, "duration": 240, "velocity": 110}, {"time": 245040, "pitch": 52, "duration": 240, "velocity": 90}, {"time": 245280, "pitch": 52, "duration": 480, "velocity": 100}, {"time": 245520, "pitch": 64, "duration": 240, "velocity": 100}, {"time": 245530, "pitch": 69, "duration": 240, "velocity": 80}, {"time": 245530, "pitch": 76, "duration": 240, "velocity": 110}, {"time": 245760, "pitch": 52, "duration": 240, "velocity": 100}, {"time": 246000, "pitch": 52, "duration": 480, "velocity": 90}, {"time": 246240, "pitch": 64, "duration": 240, "velocity": 100}, {"time": 246250, "pitch": 69, "duration": 240, "velocity": 80}, {"time": 246250, "pitch": 76, "duration": 240, "velocity": 110}, {"time": 246480, "pitch": 52, "duration": 240, "velocity": 90}, {"time": 246720, "pitch": 52, "duration": 720, "velocity": 100}, {"time": 246960, "pitch": 64, "duration": 480, "velocity": 100}, {"time": 246970, "pitch": 69, "duration": 480, "velocity": 80}, {"time": 246970, "pitch": 76, "duration": 470, "velocity": 110}, {"time": 247440, "pitch": 64, "duration": 240, "velocity": 90}, {"time": 247450, "pitch": 76, "duration": 240, "velocity": 110}, {"time": 247680, "pitch": 62, "duration": 240, "velocity": 87}, {"time": 247690, "pitch": 74, "duration": 240, "velocity": 107}, {"time": 247920, "pitch": 59, "duration": 240, "velocity": 85}, {"time": 247930, "pitch": 71, "duration": 230, "velocity": 105}, {"time": 248160, "pitch": 52, "duration": 240, "velocity": 100}, {"time": 248400, "pitch": 52, "duration": 480, "velocity": 90}, {"time": 248640, "pitch": 64, "duration": 240, "velocity": 100}, {"time": 248650, "pitch": 68, "duration": 240, "velocity": 60}, {"time": 248650, "pitch": 76, "duration": 240, "velocity": 110}, {"time": 248880, "pitch": 52, "duration": 240, "velocity": 90}, {"time": 249120, "pitch": 52, "duration": 480, "velocity": 100}, {"time": 249360, "pitch": 64, "duration": 240, "velocity": 100}, {"time": 249370, "pitch": 69, "duration": 240, "velocity": 80}, {"time": 249370, "pitch": 76, "duration": 240, "velocity": 110}, {"time": 249600, "pitch": 52, "duration": 240, "velocity": 100}, {"time": 249840, "pitch": 52, "duration": 480, "velocity": 90}, {"time": 250080, "pitch": 64, "duration": 240, "velocity": 100}, {"time": 250090, "pitch": 69, "duration": 240, "velocity": 80}, {"time": 250090, "pitch": 76, "duration": 240, "velocity": 110}, {"time": 250320, "pitch": 52, "duration": 240, "velocity": 90}, {"time": 250560, "pitch": 52, "duration": 720, "velocity": 100}, {"time": 250800, "pitch": 64, "duration": 480, "velocity": 100}, {"time": 250810, "pitch": 69, "duration": 480, "velocity": 80}, {"time": 250810, "pitch": 76, "duration": 470, "velocity": 110}, {"time": 251280, "pitch": 64, "duration": 240, "velocity": 90}, {"time": 251290, "pitch": 76, "duration": 240, "velocity": 110}, {"time": 251520, "pitch": 62, "duration": 240, "velocity": 87}, {"time": 251530, "pitch": 74, "duration": 240, "velocity": 107}, {"time": 251760, "pitch": 59, "duration": 240, "velocity": 85}, {"time": 251770, "pitch": 71, "duration": 230, "velocity": 105}], "annotations": [{"time": 292, "annotation": {"number": 7, "value": 90}, "group": "control_change"}, {"time": 313, "annotation": {"number": 11, "value": 100}, "group": "control_change"}, {"time": 334, "annotation": {"number": 10, "value": 117}, "group": "control_change"}, {"time": 355, "annotation": {"number": 91, "value": 40}, "group": "control_change"}, {"time": 376, "annotation": {"number": 93, "value": 10}, "group": "control_change"}, {"time": 397, "annotation": {"number": 101, "value": 0}, "group": "control_change"}, {"time": 417, "annotation": {"number": 100, "value": 0}, "group": "control_change"}, {"time": 438, "annotation": {"number": 6, "value": 12}, "group": "control_change"}, {"time": 459, "annotation": {"number": 101, "value": 127}, "group": "control_change"}, {"time": 480, "annotation": {"number": 100, "value": 127}, "group": "control_change"}, {"time": 161490, "annotation": {"number": 0, "value": 6}, "group": "control_change"}, {"time": 161500, "annotation": {"number": 32, "value": 0}, "group": "control_change"}, {"time": 165330, "annotation": {"number": 0, "value": 6}, "group": "control_change"}, {"time": 165340, "annotation": {"number": 32, "value": 0}, "group": "control_change"}, {"time": 169170, "annotation": {"number": 0, "value": 6}, "group": "control_change"}, {"time": 169180, "annotation": {"number": 32, "value": 0}, "group": "control_change"}, {"time": 236800, "annotation": {"number": 11, "value": 99}, "group": "control_change"}, {"time": 236960, "annotation": {"number": 11, "value": 98}, "group": "control_change"}, {"time": 237120, "annotation": {"number": 11, "value": 97}, "group": "control_change"}, {"time": 237280, "annotation": {"number": 11, "value": 96}, "group": "control_change"}, {"time": 237440, "annotation": {"number": 11, "value": 95}, "group": "control_change"}, {"time": 237560, "annotation": {"number": 11, "value": 94}, "group": "control_change"}, {"time": 237720, "annotation": {"number": 11, "value": 93}, "group": "control_change"}, {"time": 237880, "annotation": {"number": 11, "value": 92}, "group": "control_change"}, {"time": 238040, "annotation": {"number": 11, "value": 91}, "group": "control_change"}, {"time": 238200, "annotation": {"number": 11, "value": 90}, "group": "control_change"}, {"time": 238360, "annotation": {"number": 11, "value": 89}, "group": "control_change"}, {"time": 238480, "annotation": {"number": 11, "value": 88}, "group": "control_change"}, {"time": 238640, "annotation": {"number": 11, "value": 87}, "group": "control_change"}, {"time": 238800, "annotation": {"number": 11, "value": 86}, "group": "control_change"}, {"time": 238960, "annotation": {"number": 11, "value": 85}, "group": "control_change"}, {"time": 239120, "annotation": {"number": 11, "value": 84}, "group": "control_change"}, {"time": 239280, "annotation": {"number": 11, "value": 83}, "group": "control_change"}, {"time": 239400, "annotation": {"number": 11, "value": 82}, "group": "control_change"}, {"time": 239560, "annotation": {"number": 11, "value": 81}, "group": "control_change"}, {"time": 239720, "annotation": {"number": 11, "value": 80}, "group": "control_change"}, {"time": 239880, "annotation": {"number": 11, "value": 79}, "group": "control_change"}, {"time": 240040, "annotation": {"number": 11, "value": 78}, "group": "control_change"}, {"time": 240200, "annotation": {"number": 11, "value": 77}, "group": "control_change"}, {"time": 240320, "annotation": {"number": 11, "value": 76}, "group": "control_change"}, {"time": 240480, "annotation": {"number": 11, "value": 75}, "group": "control_change"}, {"time": 240640, "annotation": {"number": 11, "value": 74}, "group": "control_change"}, {"time": 240800, "annotation": {"number": 11, "value": 73}, "group": "control_change"}, {"time": 240960, "annotation": {"number": 11, "value": 72}, "group": "control_change"}, {"time": 241080, "annotation": {"number": 11, "value": 71}, "group": "control_change"}, {"time": 241240, "annotation": {"number": 11, "value": 70}, "group": "control_change"}, {"time": 241400, "annotation": {"number": 11, "value": 69}, "group": "control_change"}, {"time": 241560, "annotation": {"number": 11, "value": 68}, "group": "control_change"}, {"time": 241720, "annotation": {"number": 11, "value": 67}, "group": "control_change"}, {"time": 241880, "annotation": {"number": 11, "value": 66}, "group": "control_change"}, {"time": 242000, "annotation": {"number": 11, "value": 65}, "group": "control_change"}, {"time": 242160, "annotation": {"number": 11, "value": 64}, "group": "control_change"}, {"time": 242320, "annotation": {"number": 11, "value": 63}, "group": "control_change"}, {"time": 242480, "annotation": {"number": 11, "value": 62}, "group": "control_change"}, {"time": 242640, "annotation": {"number": 11, "value": 61}, "group": "control_change"}, {"time": 242800, "annotation": {"number": 11, "value": 60}, "group": "control_change"}, {"time": 242920, "annotation": {"number": 11, "value": 59}, "group": "control_change"}, {"time": 243080, "annotation": {"number": 11, "value": 58}, "group": "control_change"}, {"time": 243240, "annotation": {"number": 11, "value": 57}, "group": "control_change"}, {"time": 243400, "annotation": {"number": 11, "value": 56}, "group": "control_change"}, {"time": 243560, "annotation": {"number": 11, "value": 55}, "group": "control_change"}, {"time": 243720, "annotation": {"number": 11, "value": 54}, "group": "control_change"}, {"time": 243840, "annotation": {"number": 11, "value": 53}, "group": "control_change"}, {"time": 244000, "annotation": {"number": 11, "value": 52}, "group": "control_change"}, {"time": 244160, "annotation": {"number": 11, "value": 51}, "group": "control_change"}, {"time": 244320, "annotation": {"number": 11, "value": 50}, "group": "control_change"}, {"time": 244480, "annotation": {"number": 11, "value": 49}, "group": "control_change"}, {"time": 244640, "annotation": {"number": 11, "value": 48}, "group": "control_change"}, {"time": 244760, "annotation": {"number": 11, "value": 47}, "group": "control_change"}, {"time": 244920, "annotation": {"number": 11, "value": 46}, "group": "control_change"}, {"time": 245080, "annotation": {"number": 11, "value": 45}, "group": "control_change"}, {"time": 245240, "annotation": {"number": 11, "value": 44}, "group": "control_change"}, {"time": 245400, "annotation": {"number": 11, "value": 43}, "group": "control_change"}, {"time": 245520, "annotation": {"number": 11, "value": 42}, "group": "control_change"}, {"time": 245680, "annotation": {"number": 11, "value": 41}, "group": "control_change"}, {"time": 245840, "annotation": {"number": 11, "value": 40}, "group": "control_change"}, {"time": 246000, "annotation": {"number": 11, "value": 39}, "group": "control_change"}, {"time": 246160, "annotation": {"number": 11, "value": 38}, "group": "control_change"}, {"time": 246320, "annotation": {"number": 11, "value": 37}, "group": "control_change"}, {"time": 246440, "annotation": {"number": 11, "value": 36}, "group": "control_change"}, {"time": 246600, "annotation": {"number": 11, "value": 35}, "group": "control_change"}, {"time": 246760, "annotation": {"number": 11, "value": 34}, "group": "control_change"}, {"time": 246920, "annotation": {"number": 11, "value": 33}, "group": "control_change"}, {"time": 247080, "annotation": {"number": 11, "value": 32}, "group": "control_change"}, {"time": 247240, "annotation": {"number": 11, "value": 31}, "group": "control_change"}, {"time": 247360, "annotation": {"number": 11, "value": 30}, "group": "control_change"}, {"time": 247520, "annotation": {"number": 11, "value": 29}, "group": "control_change"}, {"time": 247680, "annotation": {"number": 11, "value": 28}, "group": "control_change"}, {"time": 247840, "annotation": {"number": 11, "value": 27}, "group": "control_change"}, {"time": 248000, "annotation": {"number": 11, "value": 26}, "group": "control_change"}, {"time": 248160, "annotation": {"number": 11, "value": 25}, "group": "control_change"}, {"time": 248280, "annotation": {"number": 11, "value": 24}, "group": "control_change"}, {"time": 248440, "annotation": {"number": 11, "value": 23}, "group": "control_change"}, {"time": 248600, "annotation": {"number": 11, "value": 22}, "group": "control_change"}, {"time": 248760, "annotation": {"number": 11, "value": 21}, "group": "control_change"}, {"time": 248920, "annotation": {"number": 11, "value": 20}, "group": "control_change"}, {"time": 249080, "annotation": {"number": 11, "value": 19}, "group": "control_change"}, {"time": 249200, "annotation": {"number": 11, "value": 18}, "group": "control_change"}, {"time": 249360, "annotation": {"number": 11, "value": 17}, "group": "control_change"}, {"time": 249520, "annotation": {"number": 11, "value": 16}, "group": "control_change"}, {"time": 249680, "annotation": {"number": 11, "value": 15}, "group": "control_change"}, {"time": 249840, "annotation": {"number": 11, "value": 14}, "group": "control_change"}, {"time": 249960, "annotation": {"number": 11, "value": 13}, "group": "control_change"}, {"time": 250120, "annotation": {"number": 11, "value": 12}, "group": "control_change"}, {"time": 250280, "annotation": {"number": 11, "value": 11}, "group": "control_change"}, {"time": 250440, "annotation": {"number": 11, "value": 10}, "group": "control_change"}, {"time": 250600, "annotation": {"number": 11, "value": 9}, "group": "control_change"}, {"time": 250760, "annotation": {"number": 11, "value": 8}, "group": "control_change"}, {"time": 250880, "annotation": {"number": 11, "value": 7}, "group": "control_change"}, {"time": 251040, "annotation": {"number": 11, "value": 6}, "group": "control_change"}, {"time": 251200, "annotation": {"number": 11, "value": 5}, "group": "control_change"}, {"time": 251360, "annotation": {"number": 11, "value": 4}, "group": "control_change"}, {"time": 251520, "annotation": {"number": 11, "value": 3}, "group": "control_change"}, {"time": 251680, "annotation": {"number": 11, "value": 2}, "group": "control_change"}, {"time": 251800, "annotation": {"number": 11, "value": 1}, "group": "control_change"}, {"time": 251960, "annotation": {"number": 11, "value": 0}, "group": "control_change"}]}, {"program": 120, "is_drum": false, "name": "E.GUITAR 3", "notes": [{"time": 157920, "pitch": 59, "duration": 3600, "velocity": 110}, {"time": 157930, "pitch": 68, "duration": 3590, "velocity": 100}, {"time": 161520, "pitch": 68, "duration": 230, "velocity": 70}, {"time": 161760, "pitch": 55, "duration": 3600, "velocity": 110}, {"time": 161770, "pitch": 64, "duration": 3590, "velocity": 100}, {"time": 165360, "pitch": 64, "duration": 230, "velocity": 60}, {"time": 166560, "pitch": 59, "duration": 2640, "velocity": 110}, {"time": 166570, "pitch": 68, "duration": 2630, "velocity": 100}], "annotations": [{"time": 161730, "annotation": {"number": 0, "value": 1}, "group": "control_change"}, {"time": 161740, "annotation": {"number": 32, "value": 0}, "group": "control_change"}, {"time": 165570, "annotation": {"number": 0, "value": 1}, "group": "control_change"}, {"time": 165580, "annotation": {"number": 32, "value": 0}, "group": "control_change"}, {"time": 169410, "annotation": {"number": 0, "value": 1}, "group": "control_change"}, {"time": 169420, "annotation": {"number": 32, "value": 0}, "group": "control_change"}]}, {"program": 0, "is_drum": false, "name": "E.GUITAR 1(SUB)", "annotations": [{"time": 230, "annotation": {"number": 0, "value": 0}, "group": "control_change"}, {"time": 250, "annotation": {"number": 32, "value": 0}, "group": "control_change"}]}, {"program": 30, "is_drum": false, "name": "E.GUITAR 1(SUB)", "notes": [{"time": 185040, "pitch": 71, "duration": 240, "velocity": 105}, {"time": 185760, "pitch": 71, "duration": 240, "velocity": 105}], "annotations": [{"time": 292, "annotation": {"number": 7, "value": 110}, "group": "control_change"}, {"time": 313, "annotation": {"number": 11, "value": 120}, "group": "control_change"}, {"time": 334, "annotation": {"number": 10, "value": 63}, "group": "control_change"}, {"time": 355, "annotation": {"number": 91, "value": 50}, "group": "control_change"}, {"time": 376, "annotation": {"number": 93, "value": 20}, "group": "control_change"}, {"time": 397, "annotation": {"number": 101, "value": 0}, "group": "control_change"}, {"time": 417, "annotation": {"number": 100, "value": 0}, "group": "control_change"}, {"time": 438, "annotation": {"number": 6, "value": 12}, "group": "control_change"}, {"time": 459, "annotation": {"number": 101, "value": 127}, "group": "control_change"}, {"time": 480, "annotation": {"number": 100, "value": 127}, "group": "control_change"}]}, {"program": 0, "is_drum": false, "name": "E.GUITAR 1(DELAY1", "annotations": [{"time": 230, "annotation": {"number": 0, "value": 0}, "group": "control_change"}, {"time": 250, "annotation": {"number": 32, "value": 0}, "group": "control_change"}]}, {"program": 30, "is_drum": false, "name": "E.GUITAR 1(DELAY1", "notes": [{"time": 173280, "pitch": 67, "duration": 20, "velocity": 110}, {"time": 173400, "pitch": 67, "duration": 20, "velocity": 105}, {"time": 173520, "pitch": 76, "duration": 480, "velocity": 110}, {"time": 174000, "pitch": 76, "duration": 240, "velocity": 105}, {"time": 174240, "pitch": 76, "duration": 480, "velocity": 110}, {"time": 174720, "pitch": 76, "duration": 240, "velocity": 105}, {"time": 174960, "pitch": 76, "duration": 480, "velocity": 110}, {"time": 175440, "pitch": 76, "duration": 240, "velocity": 105}, {"time": 175680, "pitch": 76, "duration": 480, "velocity": 110}, {"time": 176160, "pitch": 76, "duration": 240, "velocity": 105}, {"time": 176400, "pitch": 76, "duration": 240, "velocity": 110}, {"time": 176640, "pitch": 76, "duration": 240, "velocity": 105}, {"time": 176880, "pitch": 79, "duration": 240, "velocity": 107}, {"time": 177120, "pitch": 81, "duration": 480, "velocity": 110}, {"time": 177600, "pitch": 79, "duration": 240, "velocity": 100}, {"time": 177840, "pitch": 78, "duration": 120, "velocity": 110}, {"time": 177960, "pitch": 76, "duration": 240, "velocity": 105}, {"time": 178080, "pitch": 59, "duration": 240, "velocity": 110}, {"time": 178200, "pitch": 76, "duration": 120, "velocity": 105}, {"time": 178320, "pitch": 74, "duration": 120, "velocity": 110}, {"time": 178440, "pitch": 76, "duration": 240, "velocity": 105}, {"time": 178680, "pitch": 76, "duration": 120, "velocity": 95}, {"time": 178800, "pitch": 74, "duration": 120, "velocity": 110}, {"time": 178920, "pitch": 74, "duration": 10, "velocity": 85}, {"time": 179040, "pitch": 73, "duration": 120, "velocity": 105}, {"time": 179160, "pitch": 73, "duration": 10, "velocity": 85}, {"time": 179280, "pitch": 71, "duration": 240, "velocity": 110}, {"time": 179520, "pitch": 70, "duration": 120, "velocity": 105}, {"time": 179640, "pitch": 71, "duration": 120, "velocity": 100}, {"time": 179760, "pitch": 69, "duration": 180, "velocity": 105}, {"time": 179940, "pitch": 67, "duration": 180, "velocity": 100}, {"time": 180120, "pitch": 67, "duration": 360, "velocity": 105}, {"time": 180480, "pitch": 64, "duration": 360, "velocity": 100}, {"time": 180480, "pitch": 69, "duration": 360, "velocity": 110}, {"time": 180490, "pitch": 73, "duration": 360, "velocity": 80}, {"time": 180840, "pitch": 62, "duration": 360, "velocity": 95}, {"time": 180850, "pitch": 67, "duration": 350, "velocity": 105}, {"time": 180850, "pitch": 71, "duration": 350, "velocity": 75}, {"time": 181200, "pitch": 62, "duration": 160, "velocity": 95}, {"time": 181200, "pitch": 67, "duration": 160, "velocity": 105}, {"time": 181210, "pitch": 71, "duration": 160, "velocity": 85}, {"time": 181360, "pitch": 62, "duration": 320, "velocity": 100}, {"time": 181360, "pitch": 67, "duration": 320, "velocity": 110}, {"time": 181370, "pitch": 71, "duration": 320, "velocity": 90}, {"time": 181680, "pitch": 64, "duration": 240, "velocity": 95}, {"time": 181680, "pitch": 69, "duration": 240, "velocity": 105}, {"time": 181690, "pitch": 73, "duration": 240, "velocity": 85}, {"time": 181920, "pitch": 64, "duration": 480, "velocity": 100}, {"time": 181920, "pitch": 69, "duration": 480, "velocity": 110}, {"time": 181930, "pitch": 73, "duration": 480, "velocity": 90}, {"time": 182400, "pitch": 62, "duration": 240, "velocity": 90}, {"time": 182400, "pitch": 67, "duration": 240, "velocity": 100}, {"time": 182410, "pitch": 71, "duration": 240, "velocity": 80}, {"time": 182640, "pitch": 69, "duration": 120, "velocity": 105}, {"time": 182650, "pitch": 73, "duration": 120, "velocity": 85}, {"time": 182760, "pitch": 71, "duration": 120, "velocity": 80}, {"time": 182770, "pitch": 67, "duration": 120, "velocity": 100}, {"time": 182880, "pitch": 69, "duration": 480, "velocity": 110}, {"time": 182890, "pitch": 73, "duration": 470, "velocity": 100}, {"time": 183360, "pitch": 67, "duration": 240, "velocity": 100}, {"time": 183370, "pitch": 71, "duration": 240, "velocity": 90}, {"time": 183600, "pitch": 69, "duration": 720, "velocity": 110}, {"time": 183610, "pitch": 73, "duration": 720, "velocity": 100}, {"time": 184320, "pitch": 67, "duration": 240, "velocity": 100}, {"time": 184330, "pitch": 71, "duration": 230, "velocity": 90}, {"time": 184560, "pitch": 71, "duration": 240, "velocity": 110}, {"time": 184800, "pitch": 74, "duration": 240, "velocity": 90}, {"time": 184810, "pitch": 79, "duration": 230, "velocity": 105}, {"time": 185040, "pitch": 74, "duration": 240, "velocity": 90}, {"time": 185050, "pitch": 79, "duration": 240, "velocity": 105}, {"time": 185290, "pitch": 79, "duration": 240, "velocity": 110}, {"time": 185520, "pitch": 74, "duration": 240, "velocity": 95}, {"time": 185530, "pitch": 79, "duration": 240, "velocity": 105}, {"time": 185760, "pitch": 74, "duration": 240, "velocity": 100}, {"time": 185770, "pitch": 79, "duration": 240, "velocity": 110}, {"time": 186010, "pitch": 79, "duration": 240, "velocity": 110}, {"time": 186240, "pitch": 74, "duration": 240, "velocity": 95}, {"time": 186250, "pitch": 79, "duration": 240, "velocity": 105}, {"time": 186480, "pitch": 83, "duration": 240, "velocity": 110}, {"time": 186720, "pitch": 83, "duration": 1680, "velocity": 110}], "annotations": [{"time": 292, "annotation": {"number": 7, "value": 60}, "group": "control_change"}, {"time": 313, "annotation": {"number": 11, "value": 120}, "group": "control_change"}, {"time": 334, "annotation": {"number": 10, "value": 63}, "group": "control_change"}, {"time": 355, "annotation": {"number": 91, "value": 50}, "group": "control_change"}, {"time": 376, "annotation": {"number": 93, "value": 20}, "group": "control_change"}, {"time": 397, "annotation": {"number": 101, "value": 0}, "group": "control_change"}, {"time": 417, "annotation": {"number": 100, "value": 0}, "group": "control_change"}, {"time": 438, "annotation": {"number": 6, "value": 12}, "group": "control_change"}, {"time": 459, "annotation": {"number": 101, "value": 127}, "group": "control_change"}, {"time": 480, "annotation": {"number": 100, "value": 127}, "group": "control_change"}, {"time": 186960, "annotation": {"number": 1, "value": 13}, "group": "control_change"}, {"time": 187000, "annotation": {"number": 1, "value": 26}, "group": "control_change"}, {"time": 187040, "annotation": {"number": 1, "value": 40}, "group": "control_change"}, {"time": 187080, "annotation": {"number": 1, "value": 53}, "group": "control_change"}, {"time": 187120, "annotation": {"number": 1, "value": 64}, "group": "control_change"}, {"time": 187780, "annotation": {"number": 1, "value": 0}, "group": "control_change"}]}, {"program": 0, "is_drum": false, "name": "E.GUITAR 1(DELAY2", "annotations": [{"time": 230, "annotation": {"number": 0, "value": 0}, "group": "control_change"}, {"time": 250, "annotation": {"number": 32, "value": 0}, "group": "control_change"}]}, {"program": 30, "is_drum": false, "name": "E.GUITAR 1(DELAY2", "notes": [{"time": 185280, "pitch": 71, "duration": 240, "velocity": 105}, {"time": 186000, "pitch": 71, "duration": 240, "velocity": 105}], "annotations": [{"time": 292, "annotation": {"number": 7, "value": 60}, "group": "control_change"}, {"time": 313, "annotation": {"number": 11, "value": 120}, "group": "control_change"}, {"time": 334, "annotation": {"number": 10, "value": 63}, "group": "control_change"}, {"time": 355, "annotation": {"number": 91, "value": 50}, "group": "control_change"}, {"time": 376, "annotation": {"number": 93, "value": 20}, "group": "control_change"}, {"time": 397, "annotation": {"number": 101, "value": 0}, "group": "control_change"}, {"time": 417, "annotation": {"number": 100, "value": 0}, "group": "control_change"}, {"time": 438, "annotation": {"number": 6, "value": 12}, "group": "control_change"}, {"time": 459, "annotation": {"number": 101, "value": 127}, "group": "control_change"}, {"time": 480, "annotation": {"number": 100, "value": 127}, "group": "control_change"}]}, {"program": 0, "is_drum": true, "name": "DRUMS 1", "annotations": [{"time": 230, "annotation": {"number": 0, "value": 0}, "group": "control_change"}, {"time": 250, "annotation": {"number": 32, "value": 0}, "group": "control_change"}]}, {"program": 32, "is_drum": true, "name": "DRUMS 1", "notes": [{"time": 6960, "pitch": 35, "duration": 10, "velocity": 101}, {"time": 6960, "pitch": 42, "duration": 20, "velocity": 86}, {"time": 7080, "pitch": 35, "duration": 10, "velocity": 112}, {"time": 7080, "pitch": 42, "duration": 20, "velocity": 59}, {"time": 7160, "pitch": 40, "duration": 10, "velocity": 43}, {"time": 7200, "pitch": 40, "duration": 10, "velocity": 104}, {"time": 7200, "pitch": 44, "duration": 20, "velocity": 96}, {"time": 7440, "pitch": 40, "duration": 10, "velocity": 103}, {"time": 7440, "pitch": 44, "duration": 20, "velocity": 96}, {"time": 7680, "pitch": 40, "duration": 10, "velocity": 102}, {"time": 7680, "pitch": 44, "duration": 20, "velocity": 113}, {"time": 7800, "pitch": 40, "duration": 10, "velocity": 102}, {"time": 7920, "pitch": 35, "duration": 10, "velocity": 112}, {"time": 7920, "pitch": 46, "duration": 20, "velocity": 116}, {"time": 8160, "pitch": 35, "duration": 10, "velocity": 114}, {"time": 8160, "pitch": 42, "duration": 20, "velocity": 86}, {"time": 8160, "pitch": 52, "duration": 30, "velocity": 121}, {"time": 8400, "pitch": 42, "duration": 10, "velocity": 86}, {"time": 8640, "pitch": 40, "duration": 10, "velocity": 109}, {"time": 8640, "pitch": 42, "duration": 20, "velocity": 103}, {"time": 8880, "pitch": 35, "duration": 10, "velocity": 112}, {"time": 8880, "pitch": 42, "duration": 20, "velocity": 86}, {"time": 9000, "pitch": 40, "duration": 10, "velocity": 45}, {"time": 9120, "pitch": 35, "duration": 10, "velocity": 110}, {"time": 9120, "pitch": 42, "duration": 20, "velocity": 86}, {"time": 9240, "pitch": 40, "duration": 10, "velocity": 65}, {"time": 9360, "pitch": 42, "duration": 10, "velocity": 86}, {"time": 9600, "pitch": 40, "duration": 10, "velocity": 109}, {"time": 9600, "pitch": 42, "duration": 20, "velocity": 103}, {"time": 9840, "pitch": 35, "duration": 10, "velocity": 110}, {"time": 9840, "pitch": 42, "duration": 20, "velocity": 98}, {"time": 9960, "pitch": 40, "duration": 10, "velocity": 47}, {"time": 10080, "pitch": 42, "duration": 10, "velocity": 86}, {"time": 10320, "pitch": 35, "duration": 10, "velocity": 107}, {"time": 10320, "pitch": 42, "duration": 20, "velocity": 78}, {"time": 10560, "pitch": 40, "duration": 10, "velocity": 109}, {"time": 10560, "pitch": 42, "duration": 20, "velocity": 92}, {"time": 10800, "pitch": 35, "duration": 10, "velocity": 103}, {"time": 10800, "pitch": 42, "duration": 20, "velocity": 86}, {"time": 10920, "pitch": 40, "duration": 10, "velocity": 45}, {"time": 11040, "pitch": 35, "duration": 10, "velocity": 114}, {"time": 11040, "pitch": 42, "duration": 20, "velocity": 95}, {"time": 11160, "pitch": 40, "duration": 10, "velocity": 65}, {"time": 11280, "pitch": 42, "duration": 10, "velocity": 82}, {"time": 11520, "pitch": 40, "duration": 10, "velocity": 109}, {"time": 11520, "pitch": 42, "duration": 20, "velocity": 100}, {"time": 11760, "pitch": 35, "duration": 10, "velocity": 114}, {"time": 11760, "pitch": 46, "duration": 20, "velocity": 100}, {"time": 11880, "pitch": 40, "duration": 10, "velocity": 47}, {"time": 12000, "pitch": 35, "duration": 10, "velocity": 114}, {"time": 12000, "pitch": 42, "duration": 20, "velocity": 86}, {"time": 12240, "pitch": 42, "duration": 10, "velocity": 86}, {"time": 12480, "pitch": 40, "duration": 10, "velocity": 109}, {"time": 12480, "pitch": 42, "duration": 20, "velocity": 103}, {"time": 12720, "pitch": 35, "duration": 10, "velocity": 112}, {"time": 12720, "pitch": 42, "duration": 20, "velocity": 86}, {"time": 12840, "pitch": 40, "duration": 10, "velocity": 45}, {"time": 12960, "pitch": 35, "duration": 10, "velocity": 110}, {"time": 12960, "pitch": 42, "duration": 20, "velocity": 86}, {"time": 13080, "pitch": 40, "duration": 10, "velocity": 65}, {"time": 13200, "pitch": 42, "duration": 10, "velocity": 86}, {"time": 13440, "pitch": 40, "duration": 10, "velocity": 109}, {"time": 13440, "pitch": 42, "duration": 20, "velocity": 103}, {"time": 13680, "pitch": 35, "duration": 10, "velocity": 110}, {"time": 13680, "pitch": 42, "duration": 20, "velocity": 98}, {"time": 13800, "pitch": 40, "duration": 10, "velocity": 47}, {"time": 13920, "pitch": 42, "duration": 10, "velocity": 86}, {"time": 14160, "pitch": 35, "duration": 10, "velocity": 107}, {"time": 14160, "pitch": 42, "duration": 20, "velocity": 78}, {"time": 14400, "pitch": 40, "duration": 10, "velocity": 109}, {"time": 14400, "pitch": 42, "duration": 20, "velocity": 92}, {"time": 14640, "pitch": 35, "duration": 10, "velocity": 103}, {"time": 14640, "pitch": 42, "duration": 20, "velocity": 86}, {"time": 14760, "pitch": 40, "duration": 10, "velocity": 45}, {"time": 14880, "pitch": 35, "duration": 10, "velocity": 114}, {"time": 14880, "pitch": 42, "duration": 20, "velocity": 95}, {"time": 15000, "pitch": 40, "duration": 10, "velocity": 65}, {"time": 15120, "pitch": 42, "duration": 10, "velocity": 82}, {"time": 15360, "pitch": 40, "duration": 10, "velocity": 109}, {"time": 15360, "pitch": 42, "duration": 20, "velocity": 100}, {"time": 15600, "pitch": 35, "duration": 10, "velocity": 114}, {"time": 15600, "pitch": 46, "duration": 20, "velocity": 100}, {"time": 15720, "pitch": 40, "duration": 10, "velocity": 47}, {"time": 15840, "pitch": 35, "duration": 10, "velocity": 114}, {"time": 15840, "pitch": 42, "duration": 20, "velocity": 86}, {"time": 15840, "pitch": 52, "duration": 30, "velocity": 121}, {"time": 16080, "pitch": 42, "duration": 10, "velocity": 86}, {"time": 16320, "pitch": 40, "duration": 10, "velocity": 109}, {"time": 16320, "pitch": 42, "duration": 20, "velocity": 103}, {"time": 16560, "pitch": 35, "duration": 10, "velocity": 112}, {"time": 16560, "pitch": 42, "duration": 20, "velocity": 86}, {"time": 16680, "pitch": 40, "duration": 10, "velocity": 45}, {"time": 16800, "pitch": 35, "duration": 10, "velocity": 110}, {"time": 16800, "pitch": 42, "duration": 20, "velocity": 86}, {"time": 16920, "pitch": 40, "duration": 10, "velocity": 65}, {"time": 17040, "pitch": 42, "duration": 10, "velocity": 86}, {"time": 17280, "pitch": 40, "duration": 10, "velocity": 109}, {"time": 17280, "pitch": 42, "duration": 20, "velocity": 103}, {"time": 17520, "pitch": 35, "duration": 10, "velocity": 110}, {"time": 17520, "pitch": 42, "duration": 20, "velocity": 98}, {"time": 17640, "pitch": 40, "duration": 10, "velocity": 47}, {"time": 17760, "pitch": 42, "duration": 10, "velocity": 86}, {"time": 18000, "pitch": 35, "duration": 10, "velocity": 107}, {"time": 18000, "pitch": 42, "duration": 20, "velocity": 78}, {"time": 18240, "pitch": 40, "duration": 10, "velocity": 109}, {"time": 18240, "pitch": 42, "duration": 20, "velocity": 92}, {"time": 18480, "pitch": 35, "duration": 10, "velocity": 103}, {"time": 18480, "pitch": 42, "duration": 20, "velocity": 86}, {"time": 18600, "pitch": 40, "duration": 10, "velocity": 45}, {"time": 18720, "pitch": 35, "duration": 10, "velocity": 114}, {"time": 18720, "pitch": 42, "duration": 20, "velocity": 95}, {"time": 18840, "pitch": 40, "duration": 10, "velocity": 65}, {"time": 18960, "pitch": 42, "duration": 10, "velocity": 82}, {"time": 19200, "pitch": 40, "duration": 10, "velocity": 109}, {"time": 19200, "pitch": 42, "duration": 20, "velocity": 100}, {"time": 19440, "pitch": 35, "duration": 10, "velocity": 114}, {"time": 19440, "pitch": 46, "duration": 20, "velocity": 100}, {"time": 19560, "pitch": 40, "duration": 10, "velocity": 47}, {"time": 19680, "pitch": 35, "duration": 10, "velocity": 114}, {"time": 19680, "pitch": 42, "duration": 20, "velocity": 86}, {"time": 19920, "pitch": 42, "duration": 10, "velocity": 86}, {"time": 20160, "pitch": 40, "duration": 10, "velocity": 109}, {"time": 20160, "pitch": 42, "duration": 20, "velocity": 103}, {"time": 20400, "pitch": 35, "duration": 10, "velocity": 112}, {"time": 20400, "pitch": 42, "duration": 20, "velocity": 86}, {"time": 20520, "pitch": 40, "duration": 10, "velocity": 45}, {"time": 20640, "pitch": 35, "duration": 10, "velocity": 110}, {"time": 20640, "pitch": 42, "duration": 20, "velocity": 86}, {"time": 20760, "pitch": 40, "duration": 10, "velocity": 65}, {"time": 20880, "pitch": 42, "duration": 10, "velocity": 86}, {"time": 21120, "pitch": 40, "duration": 10, "velocity": 109}, {"time": 21120, "pitch": 42, "duration": 20, "velocity": 103}, {"time": 21360, "pitch": 35, "duration": 10, "velocity": 110}, {"time": 21360, "pitch": 42, "duration": 20, "velocity": 98}, {"time": 21480, "pitch": 40, "duration": 10, "velocity": 47}, {"time": 21600, "pitch": 42, "duration": 10, "velocity": 86}, {"time": 21840, "pitch": 35, "duration": 10, "velocity": 107}, {"time": 21840, "pitch": 42, "duration": 20, "velocity": 78}, {"time": 22080, "pitch": 40, "duration": 10, "velocity": 109}, {"time": 22080, "pitch": 42, "duration": 20, "velocity": 92}, {"time": 22320, "pitch": 35, "duration": 10, "velocity": 103}, {"time": 22320, "pitch": 42, "duration": 20, "velocity": 86}, {"time": 22440, "pitch": 40, "duration": 10, "velocity": 45}, {"time": 22560, "pitch": 35, "duration": 10, "velocity": 114}, {"time": 22560, "pitch": 42, "duration": 20, "velocity": 95}, {"time": 22680, "pitch": 40, "duration": 10, "velocity": 109}, {"time": 22800, "pitch": 35, "duration": 10, "velocity": 114}, {"time": 22800, "pitch": 46, "duration": 20, "velocity": 92}, {"time": 23040, "pitch": 40, "duration": 10, "velocity": 108}, {"time": 23040, "pitch": 42, "duration": 20, "velocity": 100}, {"time": 23160, "pitch": 35, "duration": 10, "velocity": 114}, {"time": 23160, "pitch": 46, "duration": 20, "velocity": 100}, {"time": 23280, "pitch": 42, "duration": 10, "velocity": 100}, {"time": 23400, "pitch": 40, "duration": 10, "velocity": 88}, {"time": 23520, "pitch": 35, "duration": 10, "velocity": 114}, {"time": 23520, "pitch": 42, "duration": 20, "velocity": 86}, {"time": 23760, "pitch": 42, "duration": 10, "velocity": 86}, {"time": 24000, "pitch": 40, "duration": 10, "velocity": 109}, {"time": 24000, "pitch": 42, "duration": 20, "velocity": 103}, {"time": 24240, "pitch": 35, "duration": 10, "velocity": 112}, {"time": 24240, "pitch": 42, "duration": 20, "velocity": 86}, {"time": 24360, "pitch": 40, "duration": 10, "velocity": 40}, {"time": 24480, "pitch": 42, "duration": 10, "velocity": 86}, {"time": 24600, "pitch": 40, "duration": 10, "velocity": 55}, {"time": 24720, "pitch": 35, "duration": 10, "velocity": 110}, {"time": 24720, "pitch": 42, "duration": 20, "velocity": 86}, {"time": 24960, "pitch": 40, "duration": 10, "velocity": 109}, {"time": 24960, "pitch": 42, "duration": 20, "velocity": 103}, {"time": 25200, "pitch": 35, "duration": 10, "velocity": 110}, {"time": 25200, "pitch": 42, "duration": 20, "velocity": 98}, {"time": 25320, "pitch": 40, "duration": 10, "velocity": 55}, {"time": 25440, "pitch": 35, "duration": 10, "velocity": 107}, {"time": 25440, "pitch": 42, "duration": 20, "velocity": 86}, {"time": 25680, "pitch": 42, "duration": 10, "velocity": 78}, {"time": 25920, "pitch": 40, "duration": 10, "velocity": 109}, {"time": 25920, "pitch": 42, "duration": 20, "velocity": 92}, {"time": 26160, "pitch": 35, "duration": 10, "velocity": 103}, {"time": 26160, "pitch": 42, "duration": 20, "velocity": 86}, {"time": 26280, "pitch": 40, "duration": 10, "velocity": 40}, {"time": 26400, "pitch": 42, "duration": 10, "velocity": 95}, {"time": 26520, "pitch": 40, "duration": 10, "velocity": 55}, {"time": 26640, "pitch": 35, "duration": 10, "velocity": 114}, {"time": 26640, "pitch": 42, "duration": 20, "velocity": 82}, {"time": 26880, "pitch": 40, "duration": 10, "velocity": 109}, {"time": 26880, "pitch": 42, "duration": 20, "velocity": 100}, {"time": 27120, "pitch": 35, "duration": 10, "velocity": 114}, {"time": 27120, "pitch": 46, "duration": 20, "velocity": 100}, {"time": 27240, "pitch": 40, "duration": 10, "velocity": 55}, {"time": 27360, "pitch": 35, "duration": 10, "velocity": 114}, {"time": 27360, "pitch": 42, "duration": 20, "velocity": 86}, {"time": 27600, "pitch": 42, "duration": 10, "velocity": 86}, {"time": 27840, "pitch": 40, "duration": 10, "velocity": 109}, {"time": 27840, "pitch": 42, "duration": 20, "velocity": 103}, {"time": 28080, "pitch": 35, "duration": 10, "velocity": 112}, {"time": 28080, "pitch": 42, "duration": 20, "velocity": 86}, {"time": 28200, "pitch": 40, "duration": 10, "velocity": 40}, {"time": 28320, "pitch": 42, "duration": 10, "velocity": 86}, {"time": 28440, "pitch": 40, "duration": 10, "velocity": 55}, {"time": 28560, "pitch": 35, "duration": 10, "velocity": 110}, {"time": 28560, "pitch": 42, "duration": 20, "velocity": 86}, {"time": 28800, "pitch": 40, "duration": 10, "velocity": 109}, {"time": 28800, "pitch": 42, "duration": 20, "velocity": 103}, {"time": 29040, "pitch": 35, "duration": 10, "velocity": 110}, {"time": 29040, "pitch": 42, "duration": 20, "velocity": 98}, {"time": 29160, "pitch": 40, "duration": 10, "velocity": 55}, {"time": 29280, "pitch": 35, "duration": 10, "velocity": 107}, {"time": 29280, "pitch": 42, "duration": 20, "velocity": 86}, {"time": 29520, "pitch": 42, "duration": 10, "velocity": 78}, {"time": 29760, "pitch": 40, "duration": 10, "velocity": 109}, {"time": 29760, "pitch": 42, "duration": 20, "velocity": 92}, {"time": 30000, "pitch": 35, "duration": 10, "velocity": 103}, {"time": 30000, "pitch": 42, "duration": 20, "velocity": 86}, {"time": 30120, "pitch": 40, "duration": 10, "velocity": 40}, {"time": 30240, "pitch": 42, "duration": 10, "velocity": 95}, {"time": 30360, "pitch": 40, "duration": 10, "velocity": 55}, {"time": 30480, "pitch": 35, "duration": 10, "velocity": 114}, {"time": 30480, "pitch": 42, "duration": 20, "velocity": 82}, {"time": 30720, "pitch": 40, "duration": 10, "velocity": 109}, {"time": 30720, "pitch": 42, "duration": 20, "velocity": 100}, {"time": 30960, "pitch": 35, "duration": 10, "velocity": 114}, {"time": 30960, "pitch": 46, "duration": 20, "velocity": 100}, {"time": 31080, "pitch": 40, "duration": 10, "velocity": 55}, {"time": 31200, "pitch": 35, "duration": 10, "velocity": 114}, {"time": 31200, "pitch": 42, "duration": 20, "velocity": 86}, {"time": 31440, "pitch": 42, "duration": 10, "velocity": 86}, {"time": 31680, "pitch": 40, "duration": 10, "velocity": 109}, {"time": 31680, "pitch": 42, "duration": 20, "velocity": 103}, {"time": 31920, "pitch": 35, "duration": 10, "velocity": 112}, {"time": 31920, "pitch": 42, "duration": 20, "velocity": 86}, {"time": 32040, "pitch": 40, "duration": 10, "velocity": 40}, {"time": 32160, "pitch": 42, "duration": 10, "velocity": 86}, {"time": 32280, "pitch": 40, "duration": 10, "velocity": 55}, {"time": 32400, "pitch": 35, "duration": 10, "velocity": 110}, {"time": 32400, "pitch": 42, "duration": 20, "velocity": 86}, {"time": 32640, "pitch": 40, "duration": 10, "velocity": 109}, {"time": 32640, "pitch": 42, "duration": 20, "velocity": 103}, {"time": 32880, "pitch": 35, "duration": 10, "velocity": 110}, {"time": 32880, "pitch": 42, "duration": 20, "velocity": 98}, {"time": 33000, "pitch": 40, "duration": 10, "velocity": 55}, {"time": 33120, "pitch": 35, "duration": 10, "velocity": 107}, {"time": 33120, "pitch": 42, "duration": 20, "velocity": 86}, {"time": 33360, "pitch": 42, "duration": 10, "velocity": 78}, {"time": 33600, "pitch": 40, "duration": 10, "velocity": 109}, {"time": 33600, "pitch": 42, "duration": 20, "velocity": 92}, {"time": 33840, "pitch": 35, "duration": 10, "velocity": 103}, {"time": 33840, "pitch": 42, "duration": 20, "velocity": 86}, {"time": 33960, "pitch": 40, "duration": 10, "velocity": 40}, {"time": 34080, "pitch": 42, "duration": 10, "velocity": 95}, {"time": 34200, "pitch": 40, "duration": 10, "velocity": 55}, {"time": 34320, "pitch": 35, "duration": 10, "velocity": 114}, {"time": 34320, "pitch": 42, "duration": 20, "velocity": 82}, {"time": 34560, "pitch": 40, "duration": 10, "velocity": 109}, {"time": 34560, "pitch": 42, "duration": 20, "velocity": 100}, {"time": 34800, "pitch": 35, "duration": 10, "velocity": 114}, {"time": 34800, "pitch": 46, "duration": 20, "velocity": 100}, {"time": 34920, "pitch": 40, "duration": 10, "velocity": 55}, {"time": 35040, "pitch": 35, "duration": 10, "velocity": 114}, {"time": 35040, "pitch": 42, "duration": 20, "velocity": 86}, {"time": 35280, "pitch": 42, "duration": 10, "velocity": 86}, {"time": 35520, "pitch": 40, "duration": 10, "velocity": 109}, {"time": 35520, "pitch": 42, "duration": 20, "velocity": 103}, {"time": 35760, "pitch": 35, "duration": 10, "velocity": 112}, {"time": 35760, "pitch": 42, "duration": 20, "velocity": 86}, {"time": 35880, "pitch": 40, "duration": 10, "velocity": 40}, {"time": 36000, "pitch": 35, "duration": 10, "velocity": 110}, {"time": 36000, "pitch": 42, "duration": 20, "velocity": 86}, {"time": 36120, "pitch": 40, "duration": 10, "velocity": 55}, {"time": 36240, "pitch": 42, "duration": 10, "velocity": 86}, {"time": 36480, "pitch": 40, "duration": 10, "velocity": 109}, {"time": 36480, "pitch": 42, "duration": 20, "velocity": 103}, {"time": 36720, "pitch": 35, "duration": 10, "velocity": 110}, {"time": 36720, "pitch": 42, "duration": 20, "velocity": 98}, {"time": 36840, "pitch": 40, "duration": 10, "velocity": 55}, {"time": 36960, "pitch": 42, "duration": 10, "velocity": 86}, {"time": 37200, "pitch": 35, "duration": 10, "velocity": 107}, {"time": 37200, "pitch": 42, "duration": 20, "velocity": 78}, {"time": 37440, "pitch": 40, "duration": 10, "velocity": 109}, {"time": 37440, "pitch": 42, "duration": 20, "velocity": 92}, {"time": 37680, "pitch": 35, "duration": 10, "velocity": 103}, {"time": 37680, "pitch": 42, "duration": 20, "velocity": 86}, {"time": 37800, "pitch": 40, "duration": 10, "velocity": 45}, {"time": 37920, "pitch": 35, "duration": 10, "velocity": 114}, {"time": 37920, "pitch": 42, "duration": 20, "velocity": 95}, {"time": 38040, "pitch": 40, "duration": 10, "velocity": 89}, {"time": 38160, "pitch": 46, "duration": 10, "velocity": 108}, {"time": 38400, "pitch": 40, "duration": 10, "velocity": 100}, {"time": 38400, "pitch": 44, "duration": 20, "velocity": 86}, {"time": 38520, "pitch": 40, "duration": 10, "velocity": 105}, {"time": 38640, "pitch": 35, "duration": 20, "velocity": 114}, {"time": 38640, "pitch": 40, "duration": 10, "velocity": 107}, {"time": 38640, "pitch": 46, "duration": 30, "velocity": 100}, {"time": 38760, "pitch": 40, "duration": 10, "velocity": 109}, {"time": 38880, "pitch": 35, "duration": 10, "velocity": 114}, {"time": 38880, "pitch": 42, "duration": 20, "velocity": 86}, {"time": 38880, "pitch": 57, "duration": 30, "velocity": 110}, {"time": 39120, "pitch": 42, "duration": 10, "velocity": 86}, {"time": 39360, "pitch": 40, "duration": 10, "velocity": 109}, {"time": 39360, "pitch": 42, "duration": 20, "velocity": 103}, {"time": 39600, "pitch": 42, "duration": 10, "velocity": 86}, {"time": 39720, "pitch": 40, "duration": 10, "velocity": 45}, {"time": 39840, "pitch": 35, "duration": 10, "velocity": 112}, {"time": 39840, "pitch": 42, "duration": 20, "velocity": 86}, {"time": 39960, "pitch": 40, "duration": 10, "velocity": 69}, {"time": 40080, "pitch": 35, "duration": 10, "velocity": 110}, {"time": 40080, "pitch": 42, "duration": 20, "velocity": 86}, {"time": 40320, "pitch": 40, "duration": 10, "velocity": 109}, {"time": 40320, "pitch": 42, "duration": 20, "velocity": 103}, {"time": 40560, "pitch": 35, "duration": 10, "velocity": 110}, {"time": 40560, "pitch": 42, "duration": 20, "velocity": 98}, {"time": 40800, "pitch": 35, "duration": 10, "velocity": 114}, {"time": 40800, "pitch": 42, "duration": 20, "velocity": 86}, {"time": 41040, "pitch": 42, "duration": 10, "velocity": 86}, {"time": 41280, "pitch": 40, "duration": 10, "velocity": 109}, {"time": 41280, "pitch": 42, "duration": 20, "velocity": 103}, {"time": 41520, "pitch": 42, "duration": 10, "velocity": 86}, {"time": 41640, "pitch": 40, "duration": 10, "velocity": 47}, {"time": 41760, "pitch": 35, "duration": 10, "velocity": 112}, {"time": 41760, "pitch": 42, "duration": 20, "velocity": 86}, {"time": 41880, "pitch": 40, "duration": 10, "velocity": 81}, {"time": 42000, "pitch": 35, "duration": 10, "velocity": 110}, {"time": 42000, "pitch": 42, "duration": 20, "velocity": 86}, {"time": 42240, "pitch": 40, "duration": 10, "velocity": 109}, {"time": 42240, "pitch": 42, "duration": 20, "velocity": 103}, {"time": 42480, "pitch": 35, "duration": 10, "velocity": 110}, {"time": 42480, "pitch": 46, "duration": 20, "velocity": 108}, {"time": 42720, "pitch": 35, "duration": 10, "velocity": 114}, {"time": 42720, "pitch": 42, "duration": 20, "velocity": 86}, {"time": 42720, "pitch": 52, "duration": 30, "velocity": 121}, {"time": 42960, "pitch": 42, "duration": 10, "velocity": 86}, {"time": 43200, "pitch": 40, "duration": 10, "velocity": 109}, {"time": 43200, "pitch": 42, "duration": 20, "velocity": 103}, {"time": 43440, "pitch": 42, "duration": 10, "velocity": 86}, {"time": 43560, "pitch": 40, "duration": 10, "velocity": 47}, {"time": 43680, "pitch": 35, "duration": 10, "velocity": 112}, {"time": 43680, "pitch": 42, "duration": 20, "velocity": 86}, {"time": 43800, "pitch": 40, "duration": 10, "velocity": 81}, {"time": 43920, "pitch": 35, "duration": 10, "velocity": 110}, {"time": 43920, "pitch": 42, "duration": 20, "velocity": 86}, {"time": 44160, "pitch": 40, "duration": 10, "velocity": 109}, {"time": 44160, "pitch": 42, "duration": 20, "velocity": 103}, {"time": 44400, "pitch": 35, "duration": 10, "velocity": 110}, {"time": 44400, "pitch": 46, "duration": 20, "velocity": 108}, {"time": 44530, "pitch": 40, "duration": 10, "velocity": 88}, {"time": 44640, "pitch": 42, "duration": 10, "velocity": 86}, {"time": 44880, "pitch": 35, "duration": 10, "velocity": 107}, {"time": 44880, "pitch": 46, "duration": 20, "velocity": 88}, {"time": 45120, "pitch": 40, "duration": 10, "velocity": 109}, {"time": 45120, "pitch": 42, "duration": 20, "velocity": 92}, {"time": 45360, "pitch": 35, "duration": 10, "velocity": 103}, {"time": 45360, "pitch": 46, "duration": 20, "velocity": 96}, {"time": 45480, "pitch": 40, "duration": 10, "velocity": 59}, {"time": 45600, "pitch": 35, "duration": 10, "velocity": 114}, {"time": 45600, "pitch": 42, "duration": 20, "velocity": 95}, {"time": 45720, "pitch": 40, "duration": 10, "velocity": 82}, {"time": 45840, "pitch": 35, "duration": 10, "velocity": 114}, {"time": 45840, "pitch": 46, "duration": 20, "velocity": 92}, {"time": 46080, "pitch": 40, "duration": 10, "velocity": 107}, {"time": 46080, "pitch": 42, "duration": 20, "velocity": 100}, {"time": 46200, "pitch": 40, "duration": 10, "velocity": 111}, {"time": 46320, "pitch": 43, "duration": 20, "velocity": 100}, {"time": 46320, "pitch": 44, "duration": 10, "velocity": 100}, {"time": 46560, "pitch": 35, "duration": 10, "velocity": 114}, {"time": 46560, "pitch": 42, "duration": 20, "velocity": 86}, {"time": 46560, "pitch": 57, "duration": 30, "velocity": 110}, {"time": 46800, "pitch": 42, "duration": 10, "velocity": 86}, {"time": 47040, "pitch": 40, "duration": 10, "velocity": 109}, {"time": 47040, "pitch": 42, "duration": 20, "velocity": 103}, {"time": 47280, "pitch": 42, "duration": 10, "velocity": 86}, {"time": 47400, "pitch": 40, "duration": 10, "velocity": 45}, {"time": 47520, "pitch": 35, "duration": 10, "velocity": 112}, {"time": 47520, "pitch": 42, "duration": 20, "velocity": 86}, {"time": 47640, "pitch": 40, "duration": 10, "velocity": 69}, {"time": 47760, "pitch": 35, "duration": 10, "velocity": 110}, {"time": 47760, "pitch": 42, "duration": 20, "velocity": 86}, {"time": 48000, "pitch": 40, "duration": 10, "velocity": 109}, {"time": 48000, "pitch": 42, "duration": 20, "velocity": 103}, {"time": 48240, "pitch": 35, "duration": 10, "velocity": 110}, {"time": 48240, "pitch": 42, "duration": 20, "velocity": 98}, {"time": 48480, "pitch": 35, "duration": 10, "velocity": 114}, {"time": 48480, "pitch": 42, "duration": 20, "velocity": 86}, {"time": 48720, "pitch": 42, "duration": 10, "velocity": 86}, {"time": 48960, "pitch": 40, "duration": 10, "velocity": 109}, {"time": 48960, "pitch": 42, "duration": 20, "velocity": 103}, {"time": 49200, "pitch": 42, "duration": 10, "velocity": 86}, {"time": 49320, "pitch": 40, "duration": 10, "velocity": 45}, {"time": 49440, "pitch": 35, "duration": 10, "velocity": 112}, {"time": 49440, "pitch": 42, "duration": 20, "velocity": 86}, {"time": 49560, "pitch": 40, "duration": 10, "velocity": 96}, {"time": 49680, "pitch": 35, "duration": 10, "velocity": 110}, {"time": 49680, "pitch": 42, "duration": 20, "velocity": 86}, {"time": 49920, "pitch": 40, "duration": 10, "velocity": 109}, {"time": 49920, "pitch": 42, "duration": 20, "velocity": 103}, {"time": 50160, "pitch": 35, "duration": 10, "velocity": 110}, {"time": 50160, "pitch": 46, "duration": 20, "velocity": 112}, {"time": 50400, "pitch": 35, "duration": 10, "velocity": 114}, {"time": 50400, "pitch": 42, "duration": 20, "velocity": 86}, {"time": 50400, "pitch": 57, "duration": 30, "velocity": 110}, {"time": 50640, "pitch": 42, "duration": 10, "velocity": 86}, {"time": 50880, "pitch": 40, "duration": 10, "velocity": 109}, {"time": 50880, "pitch": 42, "duration": 20, "velocity": 103}, {"time": 51120, "pitch": 42, "duration": 10, "velocity": 86}, {"time": 51240, "pitch": 40, "duration": 10, "velocity": 45}, {"time": 51360, "pitch": 35, "duration": 10, "velocity": 112}, {"time": 51360, "pitch": 42, "duration": 20, "velocity": 86}, {"time": 51480, "pitch": 40, "duration": 10, "velocity": 96}, {"time": 51600, "pitch": 35, "duration": 10, "velocity": 110}, {"time": 51600, "pitch": 42, "duration": 20, "velocity": 86}, {"time": 51840, "pitch": 40, "duration": 10, "velocity": 109}, {"time": 51840, "pitch": 42, "duration": 20, "velocity": 103}, {"time": 52080, "pitch": 35, "duration": 10, "velocity": 110}, {"time": 52080, "pitch": 42, "duration": 20, "velocity": 98}, {"time": 52320, "pitch": 40, "duration": 10, "velocity": 109}, {"time": 52320, "pitch": 46, "duration": 20, "velocity": 104}, {"time": 52560, "pitch": 35, "duration": 10, "velocity": 107}, {"time": 52560, "pitch": 42, "duration": 20, "velocity": 102}, {"time": 52680, "pitch": 35, "duration": 10, "velocity": 107}, {"time": 52800, "pitch": 40, "duration": 10, "velocity": 109}, {"time": 52800, "pitch": 46, "duration": 20, "velocity": 104}, {"time": 53040, "pitch": 35, "duration": 10, "velocity": 103}, {"time": 53040, "pitch": 42, "duration": 20, "velocity": 96}, {"time": 53160, "pitch": 35, "duration": 10, "velocity": 103}, {"time": 53280, "pitch": 40, "duration": 10, "velocity": 103}, {"time": 53280, "pitch": 46, "duration": 20, "velocity": 105}, {"time": 53400, "pitch": 40, "duration": 10, "velocity": 109}, {"time": 53520, "pitch": 35, "duration": 10, "velocity": 111}, {"time": 53520, "pitch": 46, "duration": 20, "velocity": 110}, {"time": 53760, "pitch": 40, "duration": 10, "velocity": 109}, {"time": 53760, "pitch": 42, "duration": 20, "velocity": 100}, {"time": 54000, "pitch": 35, "duration": 10, "velocity": 114}, {"time": 54000, "pitch": 44, "duration": 20, "velocity": 100}, {"time": 54000, "pitch": 57, "duration": 30, "velocity": 110}, {"time": 54240, "pitch": 42, "duration": 10, "velocity": 86}, {"time": 54480, "pitch": 35, "duration": 10, "velocity": 114}, {"time": 54480, "pitch": 42, "duration": 20, "velocity": 86}, {"time": 54720, "pitch": 40, "duration": 10, "velocity": 109}, {"time": 54720, "pitch": 42, "duration": 20, "velocity": 103}, {"time": 54960, "pitch": 42, "duration": 10, "velocity": 86}, {"time": 55080, "pitch": 40, "duration": 10, "velocity": 40}, {"time": 55200, "pitch": 35, "duration": 10, "velocity": 112}, {"time": 55200, "pitch": 42, "duration": 20, "velocity": 86}, {"time": 55320, "pitch": 40, "duration": 10, "velocity": 55}, {"time": 55440, "pitch": 35, "duration": 10, "velocity": 110}, {"time": 55440, "pitch": 42, "duration": 20, "velocity": 86}, {"time": 55680, "pitch": 40, "duration": 10, "velocity": 109}, {"time": 55680, "pitch": 42, "duration": 20, "velocity": 103}, {"time": 55920, "pitch": 35, "duration": 10, "velocity": 110}, {"time": 55920, "pitch": 42, "duration": 20, "velocity": 98}, {"time": 56040, "pitch": 40, "duration": 10, "velocity": 55}, {"time": 56160, "pitch": 42, "duration": 10, "velocity": 86}, {"time": 56400, "pitch": 35, "duration": 10, "velocity": 107}, {"time": 56400, "pitch": 42, "duration": 20, "velocity": 78}, {"time": 56640, "pitch": 40, "duration": 10, "velocity": 109}, {"time": 56640, "pitch": 42, "duration": 20, "velocity": 92}, {"time": 56880, "pitch": 35, "duration": 10, "velocity": 103}, {"time": 56880, "pitch": 42, "duration": 20, "velocity": 86}, {"time": 57000, "pitch": 40, "duration": 10, "velocity": 40}, {"time": 57120, "pitch": 35, "duration": 10, "velocity": 114}, {"time": 57120, "pitch": 42, "duration": 20, "velocity": 95}, {"time": 57240, "pitch": 40, "duration": 10, "velocity": 55}, {"time": 57360, "pitch": 42, "duration": 10, "velocity": 82}, {"time": 57600, "pitch": 40, "duration": 10, "velocity": 109}, {"time": 57600, "pitch": 42, "duration": 20, "velocity": 100}, {"time": 57840, "pitch": 42, "duration": 10, "velocity": 90}, {"time": 57960, "pitch": 40, "duration": 10, "velocity": 55}, {"time": 58080, "pitch": 35, "duration": 10, "velocity": 114}, {"time": 58080, "pitch": 42, "duration": 20, "velocity": 86}, {"time": 58080, "pitch": 57, "duration": 30, "velocity": 110}, {"time": 58320, "pitch": 42, "duration": 10, "velocity": 86}, {"time": 58560, "pitch": 40, "duration": 10, "velocity": 109}, {"time": 58560, "pitch": 42, "duration": 20, "velocity": 103}, {"time": 58800, "pitch": 42, "duration": 10, "velocity": 86}, {"time": 58920, "pitch": 40, "duration": 10, "velocity": 40}, {"time": 59040, "pitch": 35, "duration": 10, "velocity": 112}, {"time": 59040, "pitch": 42, "duration": 20, "velocity": 86}, {"time": 59160, "pitch": 40, "duration": 10, "velocity": 55}, {"time": 59280, "pitch": 35, "duration": 10, "velocity": 110}, {"time": 59280, "pitch": 42, "duration": 20, "velocity": 86}, {"time": 59520, "pitch": 40, "duration": 10, "velocity": 109}, {"time": 59520, "pitch": 42, "duration": 20, "velocity": 103}, {"time": 59760, "pitch": 35, "duration": 10, "velocity": 110}, {"time": 59760, "pitch": 46, "duration": 20, "velocity": 108}, {"time": 59880, "pitch": 40, "duration": 10, "velocity": 55}, {"time": 60000, "pitch": 42, "duration": 10, "velocity": 86}, {"time": 60240, "pitch": 35, "duration": 10, "velocity": 107}, {"time": 60240, "pitch": 42, "duration": 20, "velocity": 78}, {"time": 60480, "pitch": 40, "duration": 10, "velocity": 109}, {"time": 60480, "pitch": 42, "duration": 20, "velocity": 92}, {"time": 60720, "pitch": 35, "duration": 10, "velocity": 103}, {"time": 60720, "pitch": 42, "duration": 20, "velocity": 86}, {"time": 60840, "pitch": 40, "duration": 10, "velocity": 40}, {"time": 60960, "pitch": 35, "duration": 10, "velocity": 114}, {"time": 60960, "pitch": 42, "duration": 20, "velocity": 95}, {"time": 61080, "pitch": 40, "duration": 10, "velocity": 55}, {"time": 61200, "pitch": 42, "duration": 10, "velocity": 82}, {"time": 61440, "pitch": 40, "duration": 10, "velocity": 109}, {"time": 61440, "pitch": 42, "duration": 20, "velocity": 100}, {"time": 61680, "pitch": 42, "duration": 10, "velocity": 90}, {"time": 61800, "pitch": 40, "duration": 10, "velocity": 55}, {"time": 61920, "pitch": 35, "duration": 10, "velocity": 114}, {"time": 61920, "pitch": 42, "duration": 20, "velocity": 86}, {"time": 61920, "pitch": 57, "duration": 30, "velocity": 110}, {"time": 62160, "pitch": 42, "duration": 10, "velocity": 86}, {"time": 62400, "pitch": 40, "duration": 10, "velocity": 109}, {"time": 62400, "pitch": 42, "duration": 20, "velocity": 103}, {"time": 62640, "pitch": 42, "duration": 10, "velocity": 86}, {"time": 62760, "pitch": 40, "duration": 10, "velocity": 40}, {"time": 62880, "pitch": 35, "duration": 10, "velocity": 112}, {"time": 62880, "pitch": 42, "duration": 20, "velocity": 86}, {"time": 63000, "pitch": 40, "duration": 10, "velocity": 55}, {"time": 63120, "pitch": 35, "duration": 10, "velocity": 110}, {"time": 63120, "pitch": 42, "duration": 20, "velocity": 86}, {"time": 63360, "pitch": 40, "duration": 10, "velocity": 109}, {"time": 63360, "pitch": 42, "duration": 20, "velocity": 103}, {"time": 63600, "pitch": 35, "duration": 10, "velocity": 110}, {"time": 63600, "pitch": 46, "duration": 20, "velocity": 108}, {"time": 63720, "pitch": 40, "duration": 10, "velocity": 55}, {"time": 63840, "pitch": 42, "duration": 10, "velocity": 86}, {"time": 64080, "pitch": 35, "duration": 10, "velocity": 107}, {"time": 64080, "pitch": 42, "duration": 20, "velocity": 78}, {"time": 64320, "pitch": 40, "duration": 10, "velocity": 109}, {"time": 64320, "pitch": 42, "duration": 20, "velocity": 92}, {"time": 64560, "pitch": 35, "duration": 10, "velocity": 103}, {"time": 64560, "pitch": 42, "duration": 20, "velocity": 86}, {"time": 64680, "pitch": 40, "duration": 10, "velocity": 40}, {"time": 64800, "pitch": 35, "duration": 10, "velocity": 114}, {"time": 64800, "pitch": 42, "duration": 20, "velocity": 95}, {"time": 64920, "pitch": 40, "duration": 10, "velocity": 55}, {"time": 65040, "pitch": 42, "duration": 10, "velocity": 82}, {"time": 65280, "pitch": 40, "duration": 10, "velocity": 109}, {"time": 65280, "pitch": 42, "duration": 20, "velocity": 100}, {"time": 65520, "pitch": 42, "duration": 10, "velocity": 90}, {"time": 65640, "pitch": 40, "duration": 10, "velocity": 55}, {"time": 65760, "pitch": 35, "duration": 10, "velocity": 114}, {"time": 65760, "pitch": 42, "duration": 20, "velocity": 86}, {"time": 66000, "pitch": 42, "duration": 10, "velocity": 86}, {"time": 66240, "pitch": 40, "duration": 10, "velocity": 109}, {"time": 66240, "pitch": 42, "duration": 20, "velocity": 103}, {"time": 66480, "pitch": 42, "duration": 10, "velocity": 86}, {"time": 66600, "pitch": 40, "duration": 10, "velocity": 40}, {"time": 66720, "pitch": 35, "duration": 10, "velocity": 112}, {"time": 66720, "pitch": 42, "duration": 20, "velocity": 86}, {"time": 66840, "pitch": 40, "duration": 10, "velocity": 55}, {"time": 66960, "pitch": 35, "duration": 10, "velocity": 110}, {"time": 66960, "pitch": 42, "duration": 20, "velocity": 86}, {"time": 67200, "pitch": 40, "duration": 10, "velocity": 109}, {"time": 67200, "pitch": 42, "duration": 20, "velocity": 103}, {"time": 67440, "pitch": 35, "duration": 10, "velocity": 110}, {"time": 67440, "pitch": 46, "duration": 20, "velocity": 108}, {"time": 67560, "pitch": 40, "duration": 10, "velocity": 55}, {"time": 67680, "pitch": 42, "duration": 10, "velocity": 86}, {"time": 67920, "pitch": 35, "duration": 10, "velocity": 107}, {"time": 67920, "pitch": 42, "duration": 20, "velocity": 78}, {"time": 68160, "pitch": 40, "duration": 10, "velocity": 109}, {"time": 68160, "pitch": 42, "duration": 20, "velocity": 92}, {"time": 68400, "pitch": 35, "duration": 10, "velocity": 103}, {"time": 68400, "pitch": 42, "duration": 20, "velocity": 86}, {"time": 68520, "pitch": 40, "duration": 10, "velocity": 40}, {"time": 68640, "pitch": 35, "duration": 10, "velocity": 114}, {"time": 68640, "pitch": 42, "duration": 20, "velocity": 95}, {"time": 68880, "pitch": 40, "duration": 10, "velocity": 108}, {"time": 68880, "pitch": 42, "duration": 20, "velocity": 82}, {"time": 69120, "pitch": 40, "duration": 10, "velocity": 110}, {"time": 69120, "pitch": 42, "duration": 20, "velocity": 100}, {"time": 69360, "pitch": 35, "duration": 10, "velocity": 114}, {"time": 69360, "pitch": 42, "duration": 20, "velocity": 90}, {"time": 69360, "pitch": 52, "duration": 30, "velocity": 121}, {"time": 69600, "pitch": 42, "duration": 10, "velocity": 86}, {"time": 69840, "pitch": 35, "duration": 10, "velocity": 114}, {"time": 69840, "pitch": 42, "duration": 20, "velocity": 86}, {"time": 70080, "pitch": 40, "duration": 10, "velocity": 109}, {"time": 70080, "pitch": 42, "duration": 20, "velocity": 103}, {"time": 70320, "pitch": 42, "duration": 10, "velocity": 86}, {"time": 70440, "pitch": 40, "duration": 10, "velocity": 40}, {"time": 70560, "pitch": 35, "duration": 10, "velocity": 112}, {"time": 70560, "pitch": 42, "duration": 20, "velocity": 86}, {"time": 70680, "pitch": 40, "duration": 10, "velocity": 55}, {"time": 70800, "pitch": 35, "duration": 10, "velocity": 110}, {"time": 70800, "pitch": 42, "duration": 20, "velocity": 86}, {"time": 71040, "pitch": 40, "duration": 10, "velocity": 109}, {"time": 71040, "pitch": 42, "duration": 20, "velocity": 103}, {"time": 71280, "pitch": 35, "duration": 10, "velocity": 110}, {"time": 71280, "pitch": 42, "duration": 20, "velocity": 98}, {"time": 71400, "pitch": 40, "duration": 10, "velocity": 55}, {"time": 71520, "pitch": 42, "duration": 10, "velocity": 86}, {"time": 71760, "pitch": 35, "duration": 10, "velocity": 107}, {"time": 71760, "pitch": 42, "duration": 20, "velocity": 78}, {"time": 72000, "pitch": 40, "duration": 10, "velocity": 109}, {"time": 72000, "pitch": 42, "duration": 20, "velocity": 92}, {"time": 72240, "pitch": 35, "duration": 10, "velocity": 103}, {"time": 72240, "pitch": 42, "duration": 20, "velocity": 86}, {"time": 72360, "pitch": 40, "duration": 10, "velocity": 40}, {"time": 72480, "pitch": 35, "duration": 10, "velocity": 114}, {"time": 72480, "pitch": 42, "duration": 20, "velocity": 95}, {"time": 72600, "pitch": 40, "duration": 10, "velocity": 55}, {"time": 72720, "pitch": 42, "duration": 10, "velocity": 82}, {"time": 72960, "pitch": 40, "duration": 10, "velocity": 109}, {"time": 72960, "pitch": 42, "duration": 20, "velocity": 100}, {"time": 73200, "pitch": 42, "duration": 10, "velocity": 90}, {"time": 73320, "pitch": 40, "duration": 10, "velocity": 55}, {"time": 73440, "pitch": 35, "duration": 10, "velocity": 114}, {"time": 73440, "pitch": 42, "duration": 20, "velocity": 86}, {"time": 73440, "pitch": 57, "duration": 30, "velocity": 110}, {"time": 73680, "pitch": 42, "duration": 10, "velocity": 86}, {"time": 73920, "pitch": 40, "duration": 10, "velocity": 109}, {"time": 73920, "pitch": 42, "duration": 20, "velocity": 103}, {"time": 74160, "pitch": 42, "duration": 10, "velocity": 86}, {"time": 74280, "pitch": 40, "duration": 10, "velocity": 40}, {"time": 74400, "pitch": 35, "duration": 10, "velocity": 112}, {"time": 74400, "pitch": 42, "duration": 20, "velocity": 86}, {"time": 74520, "pitch": 40, "duration": 10, "velocity": 55}, {"time": 74640, "pitch": 35, "duration": 10, "velocity": 110}, {"time": 74640, "pitch": 42, "duration": 20, "velocity": 86}, {"time": 74880, "pitch": 40, "duration": 10, "velocity": 109}, {"time": 74880, "pitch": 42, "duration": 20, "velocity": 103}, {"time": 75120, "pitch": 35, "duration": 10, "velocity": 110}, {"time": 75120, "pitch": 46, "duration": 20, "velocity": 108}, {"time": 75240, "pitch": 40, "duration": 10, "velocity": 55}, {"time": 75360, "pitch": 42, "duration": 10, "velocity": 86}, {"time": 75600, "pitch": 35, "duration": 10, "velocity": 107}, {"time": 75600, "pitch": 42, "duration": 20, "velocity": 78}, {"time": 75840, "pitch": 40, "duration": 10, "velocity": 109}, {"time": 75840, "pitch": 42, "duration": 20, "velocity": 92}, {"time": 76080, "pitch": 35, "duration": 10, "velocity": 103}, {"time": 76080, "pitch": 42, "duration": 20, "velocity": 86}, {"time": 76200, "pitch": 40, "duration": 10, "velocity": 40}, {"time": 76320, "pitch": 35, "duration": 10, "velocity": 114}, {"time": 76320, "pitch": 42, "duration": 20, "velocity": 95}, {"time": 76440, "pitch": 40, "duration": 10, "velocity": 55}, {"time": 76560, "pitch": 42, "duration": 10, "velocity": 82}, {"time": 76800, "pitch": 40, "duration": 10, "velocity": 109}, {"time": 76800, "pitch": 42, "duration": 20, "velocity": 100}, {"time": 77040, "pitch": 42, "duration": 10, "velocity": 90}, {"time": 77160, "pitch": 40, "duration": 10, "velocity": 55}, {"time": 77280, "pitch": 35, "duration": 10, "velocity": 114}, {"time": 77280, "pitch": 42, "duration": 20, "velocity": 86}, {"time": 77280, "pitch": 49, "duration": 30, "velocity": 121}, {"time": 77520, "pitch": 42, "duration": 10, "velocity": 86}, {"time": 77760, "pitch": 40, "duration": 10, "velocity": 109}, {"time": 77760, "pitch": 42, "duration": 20, "velocity": 103}, {"time": 78000, "pitch": 42, "duration": 10, "velocity": 86}, {"time": 78120, "pitch": 40, "duration": 10, "velocity": 40}, {"time": 78240, "pitch": 35, "duration": 10, "velocity": 112}, {"time": 78240, "pitch": 42, "duration": 20, "velocity": 86}, {"time": 78360, "pitch": 40, "duration": 10, "velocity": 55}, {"time": 78480, "pitch": 35, "duration": 10, "velocity": 110}, {"time": 78480, "pitch": 42, "duration": 20, "velocity": 86}, {"time": 78720, "pitch": 40, "duration": 10, "velocity": 109}, {"time": 78720, "pitch": 42, "duration": 20, "velocity": 103}, {"time": 78960, "pitch": 35, "duration": 10, "velocity": 110}, {"time": 78960, "pitch": 46, "duration": 20, "velocity": 108}, {"time": 79080, "pitch": 40, "duration": 10, "velocity": 55}, {"time": 79200, "pitch": 42, "duration": 10, "velocity": 86}, {"time": 79440, "pitch": 35, "duration": 10, "velocity": 107}, {"time": 79440, "pitch": 42, "duration": 20, "velocity": 78}, {"time": 79680, "pitch": 40, "duration": 10, "velocity": 109}, {"time": 79680, "pitch": 42, "duration": 20, "velocity": 92}, {"time": 79920, "pitch": 35, "duration": 10, "velocity": 103}, {"time": 79920, "pitch": 42, "duration": 20, "velocity": 86}, {"time": 80040, "pitch": 40, "duration": 10, "velocity": 40}, {"time": 80160, "pitch": 35, "duration": 10, "velocity": 114}, {"time": 80160, "pitch": 42, "duration": 20, "velocity": 95}, {"time": 80280, "pitch": 40, "duration": 10, "velocity": 55}, {"time": 80400, "pitch": 35, "duration": 10, "velocity": 114}, {"time": 80400, "pitch": 42, "duration": 20, "velocity": 82}, {"time": 80640, "pitch": 40, "duration": 10, "velocity": 109}, {"time": 80640, "pitch": 42, "duration": 20, "velocity": 100}, {"time": 80880, "pitch": 42, "duration": 10, "velocity": 90}, {"time": 81000, "pitch": 40, "duration": 10, "velocity": 55}, {"time": 81120, "pitch": 35, "duration": 10, "velocity": 114}, {"time": 81120, "pitch": 42, "duration": 20, "velocity": 86}, {"time": 81360, "pitch": 42, "duration": 10, "velocity": 86}, {"time": 81600, "pitch": 40, "duration": 10, "velocity": 109}, {"time": 81600, "pitch": 42, "duration": 20, "velocity": 103}, {"time": 81840, "pitch": 42, "duration": 10, "velocity": 86}, {"time": 81960, "pitch": 40, "duration": 10, "velocity": 40}, {"time": 82080, "pitch": 35, "duration": 10, "velocity": 112}, {"time": 82080, "pitch": 42, "duration": 20, "velocity": 86}, {"time": 82200, "pitch": 40, "duration": 10, "velocity": 55}, {"time": 82320, "pitch": 35, "duration": 10, "velocity": 110}, {"time": 82320, "pitch": 46, "duration": 20, "velocity": 96}, {"time": 82560, "pitch": 40, "duration": 10, "velocity": 109}, {"time": 82560, "pitch": 42, "duration": 20, "velocity": 103}, {"time": 82800, "pitch": 35, "duration": 10, "velocity": 110}, {"time": 82800, "pitch": 43, "duration": 20, "velocity": 98}, {"time": 82800, "pitch": 57, "duration": 30, "velocity": 110}, {"time": 82920, "pitch": 40, "duration": 10, "velocity": 55}, {"time": 83040, "pitch": 42, "duration": 10, "velocity": 86}, {"time": 83280, "pitch": 35, "duration": 10, "velocity": 107}, {"time": 83280, "pitch": 42, "duration": 20, "velocity": 78}, {"time": 83520, "pitch": 40, "duration": 10, "velocity": 109}, {"time": 83520, "pitch": 42, "duration": 20, "velocity": 92}, {"time": 83760, "pitch": 35, "duration": 10, "velocity": 103}, {"time": 83760, "pitch": 42, "duration": 20, "velocity": 86}, {"time": 83880, "pitch": 40, "duration": 10, "velocity": 40}, {"time": 84000, "pitch": 35, "duration": 10, "velocity": 114}, {"time": 84000, "pitch": 42, "duration": 20, "velocity": 95}, {"time": 84120, "pitch": 40, "duration": 10, "velocity": 55}, {"time": 84240, "pitch": 42, "duration": 10, "velocity": 82}, {"time": 84480, "pitch": 40, "duration": 10, "velocity": 109}, {"time": 84480, "pitch": 42, "duration": 20, "velocity": 100}, {"time": 84720, "pitch": 42, "duration": 10, "velocity": 90}, {"time": 84840, "pitch": 40, "duration": 10, "velocity": 55}, {"time": 84960, "pitch": 35, "duration": 10, "velocity": 114}, {"time": 84960, "pitch": 42, "duration": 20, "velocity": 86}, {"time": 85200, "pitch": 42, "duration": 10, "velocity": 86}, {"time": 85440, "pitch": 40, "duration": 10, "velocity": 109}, {"time": 85440, "pitch": 42, "duration": 20, "velocity": 103}, {"time": 85680, "pitch": 42, "duration": 10, "velocity": 86}, {"time": 85920, "pitch": 35, "duration": 10, "velocity": 112}, {"time": 85920, "pitch": 46, "duration": 20, "velocity": 96}, {"time": 86160, "pitch": 40, "duration": 10, "velocity": 109}, {"time": 86160, "pitch": 42, "duration": 20, "velocity": 86}, {"time": 86280, "pitch": 40, "duration": 10, "velocity": 109}, {"time": 86400, "pitch": 35, "duration": 10, "velocity": 114}, {"time": 86400, "pitch": 46, "duration": 20, "velocity": 113}, {"time": 86640, "pitch": 40, "duration": 10, "velocity": 109}, {"time": 86640, "pitch": 42, "duration": 20, "velocity": 98}, {"time": 86760, "pitch": 40, "duration": 10, "velocity": 109}, {"time": 86880, "pitch": 35, "duration": 10, "velocity": 114}, {"time": 86880, "pitch": 42, "duration": 20, "velocity": 86}, {"time": 86880, "pitch": 52, "duration": 30, "velocity": 121}, {"time": 87120, "pitch": 42, "duration": 10, "velocity": 86}, {"time": 87360, "pitch": 40, "duration": 10, "velocity": 109}, {"time": 87360, "pitch": 42, "duration": 20, "velocity": 103}, {"time": 87600, "pitch": 35, "duration": 10, "velocity": 112}, {"time": 87600, "pitch": 42, "duration": 20, "velocity": 86}, {"time": 87720, "pitch": 40, "duration": 10, "velocity": 45}, {"time": 87840, "pitch": 35, "duration": 10, "velocity": 110}, {"time": 87840, "pitch": 42, "duration": 20, "velocity": 86}, {"time": 87960, "pitch": 40, "duration": 10, "velocity": 65}, {"time": 88080, "pitch": 42, "duration": 10, "velocity": 86}, {"time": 88320, "pitch": 40, "duration": 10, "velocity": 109}, {"time": 88320, "pitch": 42, "duration": 20, "velocity": 103}, {"time": 88560, "pitch": 35, "duration": 10, "velocity": 110}, {"time": 88560, "pitch": 42, "duration": 20, "velocity": 98}, {"time": 88680, "pitch": 40, "duration": 10, "velocity": 47}, {"time": 88800, "pitch": 42, "duration": 10, "velocity": 86}, {"time": 89040, "pitch": 35, "duration": 10, "velocity": 107}, {"time": 89040, "pitch": 42, "duration": 20, "velocity": 78}, {"time": 89280, "pitch": 40, "duration": 10, "velocity": 109}, {"time": 89280, "pitch": 42, "duration": 20, "velocity": 92}, {"time": 89520, "pitch": 35, "duration": 10, "velocity": 103}, {"time": 89520, "pitch": 42, "duration": 20, "velocity": 86}, {"time": 89640, "pitch": 40, "duration": 10, "velocity": 45}, {"time": 89760, "pitch": 35, "duration": 10, "velocity": 114}, {"time": 89760, "pitch": 42, "duration": 20, "velocity": 95}, {"time": 89880, "pitch": 40, "duration": 10, "velocity": 65}, {"time": 90000, "pitch": 42, "duration": 10, "velocity": 82}, {"time": 90240, "pitch": 40, "duration": 10, "velocity": 109}, {"time": 90240, "pitch": 42, "duration": 20, "velocity": 100}, {"time": 90480, "pitch": 35, "duration": 10, "velocity": 114}, {"time": 90480, "pitch": 46, "duration": 20, "velocity": 100}, {"time": 90600, "pitch": 40, "duration": 10, "velocity": 47}, {"time": 90720, "pitch": 35, "duration": 10, "velocity": 114}, {"time": 90720, "pitch": 42, "duration": 20, "velocity": 86}, {"time": 90960, "pitch": 42, "duration": 10, "velocity": 86}, {"time": 91200, "pitch": 40, "duration": 10, "velocity": 109}, {"time": 91200, "pitch": 42, "duration": 20, "velocity": 103}, {"time": 91440, "pitch": 35, "duration": 10, "velocity": 112}, {"time": 91440, "pitch": 42, "duration": 20, "velocity": 86}, {"time": 91560, "pitch": 40, "duration": 10, "velocity": 45}, {"time": 91680, "pitch": 35, "duration": 10, "velocity": 110}, {"time": 91680, "pitch": 42, "duration": 20, "velocity": 86}, {"time": 91800, "pitch": 40, "duration": 10, "velocity": 65}, {"time": 91920, "pitch": 42, "duration": 10, "velocity": 86}, {"time": 92160, "pitch": 40, "duration": 10, "velocity": 109}, {"time": 92160, "pitch": 42, "duration": 20, "velocity": 103}, {"time": 92400, "pitch": 35, "duration": 10, "velocity": 110}, {"time": 92400, "pitch": 42, "duration": 20, "velocity": 98}, {"time": 92520, "pitch": 40, "duration": 10, "velocity": 47}, {"time": 92640, "pitch": 42, "duration": 10, "velocity": 86}, {"time": 92880, "pitch": 35, "duration": 10, "velocity": 107}, {"time": 92880, "pitch": 42, "duration": 20, "velocity": 78}, {"time": 93120, "pitch": 40, "duration": 10, "velocity": 109}, {"time": 93120, "pitch": 42, "duration": 20, "velocity": 92}, {"time": 93360, "pitch": 35, "duration": 10, "velocity": 103}, {"time": 93360, "pitch": 42, "duration": 20, "velocity": 86}, {"time": 93480, "pitch": 40, "duration": 10, "velocity": 45}, {"time": 93600, "pitch": 35, "duration": 10, "velocity": 114}, {"time": 93600, "pitch": 42, "duration": 20, "velocity": 95}, {"time": 93720, "pitch": 40, "duration": 10, "velocity": 101}, {"time": 93840, "pitch": 44, "duration": 10, "velocity": 92}, {"time": 93840, "pitch": 47, "duration": 20, "velocity": 101}, {"time": 93960, "pitch": 43, "duration": 10, "velocity": 93}, {"time": 94080, "pitch": 40, "duration": 10, "velocity": 108}, {"time": 94080, "pitch": 42, "duration": 20, "velocity": 100}, {"time": 94200, "pitch": 35, "duration": 10, "velocity": 114}, {"time": 94200, "pitch": 46, "duration": 20, "velocity": 100}, {"time": 94320, "pitch": 42, "duration": 10, "velocity": 100}, {"time": 94440, "pitch": 40, "duration": 10, "velocity": 88}, {"time": 94560, "pitch": 35, "duration": 10, "velocity": 114}, {"time": 94560, "pitch": 42, "duration": 20, "velocity": 86}, {"time": 94800, "pitch": 42, "duration": 10, "velocity": 86}, {"time": 95040, "pitch": 40, "duration": 10, "velocity": 109}, {"time": 95040, "pitch": 42, "duration": 20, "velocity": 103}, {"time": 95280, "pitch": 35, "duration": 10, "velocity": 112}, {"time": 95280, "pitch": 42, "duration": 20, "velocity": 86}, {"time": 95400, "pitch": 40, "duration": 10, "velocity": 40}, {"time": 95520, "pitch": 42, "duration": 10, "velocity": 86}, {"time": 95640, "pitch": 40, "duration": 10, "velocity": 55}, {"time": 95760, "pitch": 35, "duration": 10, "velocity": 110}, {"time": 95760, "pitch": 42, "duration": 20, "velocity": 86}, {"time": 96000, "pitch": 40, "duration": 10, "velocity": 109}, {"time": 96000, "pitch": 42, "duration": 20, "velocity": 103}, {"time": 96240, "pitch": 35, "duration": 10, "velocity": 110}, {"time": 96240, "pitch": 42, "duration": 20, "velocity": 98}, {"time": 96360, "pitch": 40, "duration": 10, "velocity": 55}, {"time": 96480, "pitch": 35, "duration": 10, "velocity": 107}, {"time": 96480, "pitch": 42, "duration": 20, "velocity": 86}, {"time": 96720, "pitch": 42, "duration": 10, "velocity": 78}, {"time": 96960, "pitch": 40, "duration": 10, "velocity": 109}, {"time": 96960, "pitch": 42, "duration": 20, "velocity": 92}, {"time": 97200, "pitch": 35, "duration": 10, "velocity": 103}, {"time": 97200, "pitch": 42, "duration": 20, "velocity": 86}, {"time": 97320, "pitch": 40, "duration": 10, "velocity": 40}, {"time": 97440, "pitch": 42, "duration": 10, "velocity": 95}, {"time": 97560, "pitch": 40, "duration": 10, "velocity": 55}, {"time": 97680, "pitch": 35, "duration": 10, "velocity": 114}, {"time": 97680, "pitch": 42, "duration": 20, "velocity": 82}, {"time": 97920, "pitch": 40, "duration": 10, "velocity": 109}, {"time": 97920, "pitch": 42, "duration": 20, "velocity": 100}, {"time": 98160, "pitch": 35, "duration": 10, "velocity": 114}, {"time": 98160, "pitch": 46, "duration": 20, "velocity": 100}, {"time": 98280, "pitch": 40, "duration": 10, "velocity": 55}, {"time": 98400, "pitch": 35, "duration": 10, "velocity": 114}, {"time": 98400, "pitch": 42, "duration": 20, "velocity": 86}, {"time": 98640, "pitch": 42, "duration": 10, "velocity": 86}, {"time": 98880, "pitch": 40, "duration": 10, "velocity": 109}, {"time": 98880, "pitch": 42, "duration": 20, "velocity": 103}, {"time": 99120, "pitch": 35, "duration": 10, "velocity": 112}, {"time": 99120, "pitch": 42, "duration": 20, "velocity": 86}, {"time": 99240, "pitch": 40, "duration": 10, "velocity": 40}, {"time": 99360, "pitch": 42, "duration": 10, "velocity": 86}, {"time": 99480, "pitch": 40, "duration": 10, "velocity": 55}, {"time": 99600, "pitch": 35, "duration": 10, "velocity": 110}, {"time": 99600, "pitch": 42, "duration": 20, "velocity": 86}, {"time": 99840, "pitch": 40, "duration": 10, "velocity": 109}, {"time": 99840, "pitch": 42, "duration": 20, "velocity": 103}, {"time": 100080, "pitch": 35, "duration": 10, "velocity": 110}, {"time": 100080, "pitch": 42, "duration": 20, "velocity": 98}, {"time": 100200, "pitch": 40, "duration": 10, "velocity": 55}, {"time": 100320, "pitch": 35, "duration": 10, "velocity": 107}, {"time": 100320, "pitch": 42, "duration": 20, "velocity": 86}, {"time": 100560, "pitch": 42, "duration": 10, "velocity": 78}, {"time": 100800, "pitch": 40, "duration": 10, "velocity": 109}, {"time": 100800, "pitch": 42, "duration": 20, "velocity": 92}, {"time": 101040, "pitch": 35, "duration": 10, "velocity": 103}, {"time": 101040, "pitch": 42, "duration": 20, "velocity": 86}, {"time": 101160, "pitch": 40, "duration": 10, "velocity": 40}, {"time": 101280, "pitch": 42, "duration": 10, "velocity": 95}, {"time": 101400, "pitch": 40, "duration": 10, "velocity": 55}, {"time": 101520, "pitch": 35, "duration": 10, "velocity": 114}, {"time": 101520, "pitch": 42, "duration": 20, "velocity": 82}, {"time": 101760, "pitch": 40, "duration": 10, "velocity": 109}, {"time": 101760, "pitch": 42, "duration": 20, "velocity": 100}, {"time": 102000, "pitch": 35, "duration": 10, "velocity": 114}, {"time": 102000, "pitch": 46, "duration": 20, "velocity": 100}, {"time": 102120, "pitch": 40, "duration": 10, "velocity": 55}, {"time": 102240, "pitch": 35, "duration": 10, "velocity": 114}, {"time": 102240, "pitch": 42, "duration": 20, "velocity": 86}, {"time": 102480, "pitch": 42, "duration": 10, "velocity": 86}, {"time": 102720, "pitch": 40, "duration": 10, "velocity": 109}, {"time": 102720, "pitch": 42, "duration": 20, "velocity": 103}, {"time": 102960, "pitch": 35, "duration": 10, "velocity": 112}, {"time": 102960, "pitch": 42, "duration": 20, "velocity": 86}, {"time": 103080, "pitch": 40, "duration": 10, "velocity": 40}, {"time": 103200, "pitch": 42, "duration": 10, "velocity": 86}, {"time": 103320, "pitch": 40, "duration": 10, "velocity": 55}, {"time": 103440, "pitch": 35, "duration": 10, "velocity": 110}, {"time": 103440, "pitch": 42, "duration": 20, "velocity": 86}, {"time": 103680, "pitch": 40, "duration": 10, "velocity": 109}, {"time": 103680, "pitch": 42, "duration": 20, "velocity": 103}, {"time": 103920, "pitch": 35, "duration": 10, "velocity": 110}, {"time": 103920, "pitch": 42, "duration": 20, "velocity": 98}, {"time": 104040, "pitch": 40, "duration": 10, "velocity": 55}, {"time": 104160, "pitch": 35, "duration": 10, "velocity": 107}, {"time": 104160, "pitch": 42, "duration": 20, "velocity": 86}, {"time": 104400, "pitch": 42, "duration": 10, "velocity": 78}, {"time": 104640, "pitch": 40, "duration": 10, "velocity": 109}, {"time": 104640, "pitch": 42, "duration": 20, "velocity": 92}, {"time": 104880, "pitch": 35, "duration": 10, "velocity": 103}, {"time": 104880, "pitch": 42, "duration": 20, "velocity": 86}, {"time": 105000, "pitch": 40, "duration": 10, "velocity": 40}, {"time": 105120, "pitch": 42, "duration": 10, "velocity": 95}, {"time": 105240, "pitch": 40, "duration": 10, "velocity": 55}, {"time": 105360, "pitch": 35, "duration": 10, "velocity": 114}, {"time": 105360, "pitch": 42, "duration": 20, "velocity": 82}, {"time": 105600, "pitch": 40, "duration": 10, "velocity": 109}, {"time": 105600, "pitch": 42, "duration": 20, "velocity": 100}, {"time": 105840, "pitch": 35, "duration": 10, "velocity": 114}, {"time": 105840, "pitch": 46, "duration": 20, "velocity": 100}, {"time": 105960, "pitch": 40, "duration": 10, "velocity": 55}, {"time": 106080, "pitch": 35, "duration": 10, "velocity": 114}, {"time": 106080, "pitch": 42, "duration": 20, "velocity": 86}, {"time": 106320, "pitch": 42, "duration": 10, "velocity": 86}, {"time": 106560, "pitch": 40, "duration": 10, "velocity": 109}, {"time": 106560, "pitch": 42, "duration": 20, "velocity": 103}, {"time": 106800, "pitch": 35, "duration": 10, "velocity": 112}, {"time": 106800, "pitch": 42, "duration": 20, "velocity": 86}, {"time": 106920, "pitch": 40, "duration": 10, "velocity": 40}, {"time": 107040, "pitch": 35, "duration": 10, "velocity": 110}, {"time": 107040, "pitch": 42, "duration": 20, "velocity": 86}, {"time": 107160, "pitch": 40, "duration": 10, "velocity": 55}, {"time": 107280, "pitch": 42, "duration": 10, "velocity": 86}, {"time": 107520, "pitch": 40, "duration": 10, "velocity": 109}, {"time": 107520, "pitch": 42, "duration": 20, "velocity": 103}, {"time": 107760, "pitch": 35, "duration": 10, "velocity": 110}, {"time": 107760, "pitch": 42, "duration": 20, "velocity": 98}, {"time": 107880, "pitch": 40, "duration": 10, "velocity": 55}, {"time": 108000, "pitch": 42, "duration": 10, "velocity": 86}, {"time": 108240, "pitch": 35, "duration": 10, "velocity": 107}, {"time": 108240, "pitch": 42, "duration": 20, "velocity": 78}, {"time": 108480, "pitch": 40, "duration": 10, "velocity": 109}, {"time": 108480, "pitch": 42, "duration": 20, "velocity": 92}, {"time": 108720, "pitch": 35, "duration": 10, "velocity": 103}, {"time": 108720, "pitch": 42, "duration": 20, "velocity": 86}, {"time": 108840, "pitch": 40, "duration": 10, "velocity": 45}, {"time": 108960, "pitch": 40, "duration": 10, "velocity": 108}, {"time": 108960, "pitch": 42, "duration": 20, "velocity": 95}, {"time": 109080, "pitch": 50, "duration": 10, "velocity": 87}, {"time": 109200, "pitch": 44, "duration": 10, "velocity": 108}, {"time": 109200, "pitch": 47, "duration": 20, "velocity": 87}, {"time": 109440, "pitch": 40, "duration": 10, "velocity": 105}, {"time": 109440, "pitch": 44, "duration": 20, "velocity": 86}, {"time": 109560, "pitch": 35, "duration": 10, "velocity": 114}, {"time": 109560, "pitch": 46, "duration": 20, "velocity": 100}, {"time": 109680, "pitch": 40, "duration": 10, "velocity": 107}, {"time": 109800, "pitch": 40, "duration": 10, "velocity": 109}, {"time": 109920, "pitch": 35, "duration": 10, "velocity": 114}, {"time": 109920, "pitch": 42, "duration": 20, "velocity": 86}, {"time": 109920, "pitch": 57, "duration": 30, "velocity": 110}, {"time": 110160, "pitch": 42, "duration": 10, "velocity": 86}, {"time": 110400, "pitch": 40, "duration": 10, "velocity": 109}, {"time": 110400, "pitch": 42, "duration": 20, "velocity": 103}, {"time": 110640, "pitch": 42, "duration": 10, "velocity": 86}, {"time": 110760, "pitch": 40, "duration": 10, "velocity": 45}, {"time": 110880, "pitch": 35, "duration": 10, "velocity": 112}, {"time": 110880, "pitch": 42, "duration": 20, "velocity": 86}, {"time": 111000, "pitch": 40, "duration": 10, "velocity": 69}, {"time": 111120, "pitch": 35, "duration": 10, "velocity": 110}, {"time": 111120, "pitch": 42, "duration": 20, "velocity": 86}, {"time": 111360, "pitch": 40, "duration": 10, "velocity": 109}, {"time": 111360, "pitch": 42, "duration": 20, "velocity": 103}, {"time": 111600, "pitch": 35, "duration": 10, "velocity": 110}, {"time": 111600, "pitch": 42, "duration": 20, "velocity": 98}, {"time": 111840, "pitch": 35, "duration": 10, "velocity": 114}, {"time": 111840, "pitch": 42, "duration": 20, "velocity": 86}, {"time": 112080, "pitch": 42, "duration": 10, "velocity": 86}, {"time": 112320, "pitch": 40, "duration": 10, "velocity": 109}, {"time": 112320, "pitch": 42, "duration": 20, "velocity": 103}, {"time": 112560, "pitch": 42, "duration": 10, "velocity": 86}, {"time": 112680, "pitch": 40, "duration": 10, "velocity": 47}, {"time": 112800, "pitch": 35, "duration": 10, "velocity": 112}, {"time": 112800, "pitch": 42, "duration": 20, "velocity": 86}, {"time": 112920, "pitch": 40, "duration": 10, "velocity": 81}, {"time": 113040, "pitch": 35, "duration": 10, "velocity": 110}, {"time": 113040, "pitch": 42, "duration": 20, "velocity": 86}, {"time": 113280, "pitch": 40, "duration": 10, "velocity": 109}, {"time": 113280, "pitch": 42, "duration": 20, "velocity": 103}, {"time": 113520, "pitch": 35, "duration": 10, "velocity": 110}, {"time": 113520, "pitch": 46, "duration": 20, "velocity": 108}, {"time": 113760, "pitch": 35, "duration": 10, "velocity": 114}, {"time": 113760, "pitch": 42, "duration": 20, "velocity": 86}, {"time": 113760, "pitch": 52, "duration": 30, "velocity": 121}, {"time": 114000, "pitch": 42, "duration": 10, "velocity": 86}, {"time": 114240, "pitch": 40, "duration": 10, "velocity": 109}, {"time": 114240, "pitch": 42, "duration": 20, "velocity": 103}, {"time": 114480, "pitch": 42, "duration": 10, "velocity": 86}, {"time": 114600, "pitch": 40, "duration": 10, "velocity": 47}, {"time": 114720, "pitch": 35, "duration": 10, "velocity": 112}, {"time": 114720, "pitch": 42, "duration": 20, "velocity": 86}, {"time": 114840, "pitch": 40, "duration": 10, "velocity": 81}, {"time": 114960, "pitch": 35, "duration": 10, "velocity": 110}, {"time": 114960, "pitch": 42, "duration": 20, "velocity": 86}, {"time": 115200, "pitch": 40, "duration": 10, "velocity": 109}, {"time": 115200, "pitch": 42, "duration": 20, "velocity": 103}, {"time": 115440, "pitch": 35, "duration": 10, "velocity": 110}, {"time": 115440, "pitch": 46, "duration": 20, "velocity": 108}, {"time": 115570, "pitch": 40, "duration": 10, "velocity": 88}, {"time": 115680, "pitch": 35, "duration": 10, "velocity": 107}, {"time": 115680, "pitch": 42, "duration": 20, "velocity": 86}, {"time": 115920, "pitch": 35, "duration": 10, "velocity": 107}, {"time": 115920, "pitch": 46, "duration": 20, "velocity": 104}, {"time": 116160, "pitch": 40, "duration": 10, "velocity": 109}, {"time": 116160, "pitch": 42, "duration": 20, "velocity": 92}, {"time": 116400, "pitch": 35, "duration": 10, "velocity": 103}, {"time": 116400, "pitch": 46, "duration": 20, "velocity": 106}, {"time": 116520, "pitch": 40, "duration": 10, "velocity": 59}, {"time": 116640, "pitch": 35, "duration": 10, "velocity": 114}, {"time": 116640, "pitch": 42, "duration": 20, "velocity": 95}, {"time": 116760, "pitch": 40, "duration": 10, "velocity": 82}, {"time": 116880, "pitch": 35, "duration": 10, "velocity": 114}, {"time": 116880, "pitch": 46, "duration": 20, "velocity": 102}, {"time": 117120, "pitch": 40, "duration": 10, "velocity": 107}, {"time": 117120, "pitch": 42, "duration": 20, "velocity": 100}, {"time": 117240, "pitch": 40, "duration": 10, "velocity": 109}, {"time": 117360, "pitch": 43, "duration": 20, "velocity": 100}, {"time": 117360, "pitch": 44, "duration": 10, "velocity": 100}, {"time": 117600, "pitch": 35, "duration": 10, "velocity": 114}, {"time": 117600, "pitch": 42, "duration": 20, "velocity": 86}, {"time": 117600, "pitch": 57, "duration": 30, "velocity": 110}, {"time": 117840, "pitch": 42, "duration": 10, "velocity": 86}, {"time": 118080, "pitch": 40, "duration": 10, "velocity": 109}, {"time": 118080, "pitch": 42, "duration": 20, "velocity": 103}, {"time": 118320, "pitch": 42, "duration": 10, "velocity": 86}, {"time": 118440, "pitch": 40, "duration": 10, "velocity": 45}, {"time": 118560, "pitch": 35, "duration": 10, "velocity": 112}, {"time": 118560, "pitch": 42, "duration": 20, "velocity": 86}, {"time": 118680, "pitch": 40, "duration": 10, "velocity": 69}, {"time": 118800, "pitch": 35, "duration": 10, "velocity": 110}, {"time": 118800, "pitch": 42, "duration": 20, "velocity": 86}, {"time": 119040, "pitch": 40, "duration": 10, "velocity": 109}, {"time": 119040, "pitch": 42, "duration": 20, "velocity": 103}, {"time": 119280, "pitch": 35, "duration": 10, "velocity": 110}, {"time": 119280, "pitch": 42, "duration": 20, "velocity": 98}, {"time": 119520, "pitch": 35, "duration": 10, "velocity": 114}, {"time": 119520, "pitch": 42, "duration": 20, "velocity": 86}, {"time": 119760, "pitch": 42, "duration": 10, "velocity": 86}, {"time": 120000, "pitch": 40, "duration": 10, "velocity": 109}, {"time": 120000, "pitch": 42, "duration": 20, "velocity": 103}, {"time": 120240, "pitch": 42, "duration": 10, "velocity": 86}, {"time": 120360, "pitch": 40, "duration": 10, "velocity": 45}, {"time": 120480, "pitch": 35, "duration": 10, "velocity": 112}, {"time": 120480, "pitch": 42, "duration": 20, "velocity": 86}, {"time": 120600, "pitch": 40, "duration": 10, "velocity": 96}, {"time": 120720, "pitch": 35, "duration": 10, "velocity": 110}, {"time": 120720, "pitch": 42, "duration": 20, "velocity": 86}, {"time": 120960, "pitch": 40, "duration": 10, "velocity": 109}, {"time": 120960, "pitch": 42, "duration": 20, "velocity": 103}, {"time": 121200, "pitch": 35, "duration": 10, "velocity": 110}, {"time": 121200, "pitch": 46, "duration": 20, "velocity": 112}, {"time": 121440, "pitch": 35, "duration": 10, "velocity": 114}, {"time": 121440, "pitch": 42, "duration": 20, "velocity": 86}, {"time": 121440, "pitch": 57, "duration": 30, "velocity": 110}, {"time": 121680, "pitch": 42, "duration": 10, "velocity": 86}, {"time": 121920, "pitch": 40, "duration": 10, "velocity": 109}, {"time": 121920, "pitch": 42, "duration": 20, "velocity": 103}, {"time": 122160, "pitch": 42, "duration": 10, "velocity": 86}, {"time": 122280, "pitch": 40, "duration": 10, "velocity": 45}, {"time": 122400, "pitch": 35, "duration": 10, "velocity": 112}, {"time": 122400, "pitch": 42, "duration": 20, "velocity": 86}, {"time": 122520, "pitch": 40, "duration": 10, "velocity": 96}, {"time": 122640, "pitch": 35, "duration": 10, "velocity": 110}, {"time": 122640, "pitch": 42, "duration": 20, "velocity": 86}, {"time": 122880, "pitch": 40, "duration": 10, "velocity": 109}, {"time": 122880, "pitch": 42, "duration": 20, "velocity": 103}, {"time": 123120, "pitch": 35, "duration": 10, "velocity": 110}, {"time": 123120, "pitch": 42, "duration": 20, "velocity": 98}, {"time": 123360, "pitch": 40, "duration": 10, "velocity": 109}, {"time": 123360, "pitch": 46, "duration": 20, "velocity": 114}, {"time": 123600, "pitch": 35, "duration": 10, "velocity": 107}, {"time": 123600, "pitch": 42, "duration": 20, "velocity": 102}, {"time": 123720, "pitch": 47, "duration": 10, "velocity": 93}, {"time": 123840, "pitch": 40, "duration": 10, "velocity": 109}, {"time": 123840, "pitch": 46, "duration": 20, "velocity": 114}, {"time": 124080, "pitch": 35, "duration": 10, "velocity": 103}, {"time": 124080, "pitch": 42, "duration": 20, "velocity": 96}, {"time": 124200, "pitch": 43, "duration": 10, "velocity": 103}, {"time": 124320, "pitch": 40, "duration": 10, "velocity": 103}, {"time": 124320, "pitch": 42, "duration": 20, "velocity": 95}, {"time": 124440, "pitch": 40, "duration": 10, "velocity": 109}, {"time": 124560, "pitch": 35, "duration": 10, "velocity": 111}, {"time": 124560, "pitch": 46, "duration": 20, "velocity": 110}, {"time": 124800, "pitch": 40, "duration": 10, "velocity": 109}, {"time": 124800, "pitch": 42, "duration": 20, "velocity": 100}, {"time": 125040, "pitch": 35, "duration": 10, "velocity": 114}, {"time": 125040, "pitch": 44, "duration": 20, "velocity": 100}, {"time": 125040, "pitch": 57, "duration": 30, "velocity": 110}, {"time": 125280, "pitch": 42, "duration": 10, "velocity": 86}, {"time": 125520, "pitch": 35, "duration": 10, "velocity": 114}, {"time": 125520, "pitch": 42, "duration": 20, "velocity": 86}, {"time": 125760, "pitch": 40, "duration": 10, "velocity": 109}, {"time": 125760, "pitch": 42, "duration": 20, "velocity": 103}, {"time": 126000, "pitch": 42, "duration": 10, "velocity": 86}, {"time": 126120, "pitch": 40, "duration": 10, "velocity": 40}, {"time": 126240, "pitch": 35, "duration": 10, "velocity": 112}, {"time": 126240, "pitch": 42, "duration": 20, "velocity": 86}, {"time": 126360, "pitch": 40, "duration": 10, "velocity": 55}, {"time": 126480, "pitch": 35, "duration": 10, "velocity": 110}, {"time": 126480, "pitch": 42, "duration": 20, "velocity": 86}, {"time": 126720, "pitch": 40, "duration": 10, "velocity": 109}, {"time": 126720, "pitch": 42, "duration": 20, "velocity": 103}, {"time": 126960, "pitch": 35, "duration": 10, "velocity": 110}, {"time": 126960, "pitch": 42, "duration": 20, "velocity": 98}, {"time": 127080, "pitch": 40, "duration": 10, "velocity": 55}, {"time": 127200, "pitch": 42, "duration": 10, "velocity": 86}, {"time": 127440, "pitch": 35, "duration": 10, "velocity": 107}, {"time": 127440, "pitch": 42, "duration": 20, "velocity": 78}, {"time": 127680, "pitch": 40, "duration": 10, "velocity": 109}, {"time": 127680, "pitch": 42, "duration": 20, "velocity": 92}, {"time": 127920, "pitch": 35, "duration": 10, "velocity": 103}, {"time": 127920, "pitch": 42, "duration": 20, "velocity": 86}, {"time": 128040, "pitch": 40, "duration": 10, "velocity": 40}, {"time": 128160, "pitch": 35, "duration": 10, "velocity": 114}, {"time": 128160, "pitch": 42, "duration": 20, "velocity": 95}, {"time": 128280, "pitch": 40, "duration": 10, "velocity": 55}, {"time": 128400, "pitch": 42, "duration": 10, "velocity": 82}, {"time": 128640, "pitch": 40, "duration": 10, "velocity": 109}, {"time": 128640, "pitch": 42, "duration": 20, "velocity": 100}, {"time": 128880, "pitch": 42, "duration": 10, "velocity": 90}, {"time": 129000, "pitch": 40, "duration": 10, "velocity": 55}, {"time": 129120, "pitch": 35, "duration": 10, "velocity": 114}, {"time": 129120, "pitch": 42, "duration": 20, "velocity": 86}, {"time": 129120, "pitch": 57, "duration": 30, "velocity": 110}, {"time": 129360, "pitch": 42, "duration": 10, "velocity": 86}, {"time": 129600, "pitch": 40, "duration": 10, "velocity": 109}, {"time": 129600, "pitch": 42, "duration": 20, "velocity": 103}, {"time": 129840, "pitch": 42, "duration": 10, "velocity": 86}, {"time": 129960, "pitch": 40, "duration": 10, "velocity": 40}, {"time": 130080, "pitch": 35, "duration": 10, "velocity": 112}, {"time": 130080, "pitch": 42, "duration": 20, "velocity": 86}, {"time": 130200, "pitch": 40, "duration": 10, "velocity": 55}, {"time": 130320, "pitch": 35, "duration": 10, "velocity": 110}, {"time": 130320, "pitch": 42, "duration": 20, "velocity": 86}, {"time": 130560, "pitch": 40, "duration": 10, "velocity": 109}, {"time": 130560, "pitch": 42, "duration": 20, "velocity": 103}, {"time": 130800, "pitch": 35, "duration": 10, "velocity": 110}, {"time": 130800, "pitch": 46, "duration": 20, "velocity": 108}, {"time": 130920, "pitch": 40, "duration": 10, "velocity": 55}, {"time": 131040, "pitch": 42, "duration": 10, "velocity": 86}, {"time": 131280, "pitch": 35, "duration": 10, "velocity": 107}, {"time": 131280, "pitch": 42, "duration": 20, "velocity": 78}, {"time": 131520, "pitch": 40, "duration": 10, "velocity": 109}, {"time": 131520, "pitch": 42, "duration": 20, "velocity": 92}, {"time": 131760, "pitch": 35, "duration": 10, "velocity": 103}, {"time": 131760, "pitch": 42, "duration": 20, "velocity": 86}, {"time": 131880, "pitch": 40, "duration": 10, "velocity": 40}, {"time": 132000, "pitch": 35, "duration": 10, "velocity": 114}, {"time": 132000, "pitch": 42, "duration": 20, "velocity": 95}, {"time": 132120, "pitch": 40, "duration": 10, "velocity": 55}, {"time": 132240, "pitch": 42, "duration": 10, "velocity": 82}, {"time": 132480, "pitch": 40, "duration": 10, "velocity": 109}, {"time": 132480, "pitch": 42, "duration": 20, "velocity": 100}, {"time": 132720, "pitch": 42, "duration": 10, "velocity": 90}, {"time": 132840, "pitch": 40, "duration": 10, "velocity": 55}, {"time": 132960, "pitch": 35, "duration": 10, "velocity": 114}, {"time": 132960, "pitch": 42, "duration": 20, "velocity": 86}, {"time": 132960, "pitch": 57, "duration": 30, "velocity": 110}, {"time": 133200, "pitch": 42, "duration": 10, "velocity": 86}, {"time": 133440, "pitch": 40, "duration": 10, "velocity": 109}, {"time": 133440, "pitch": 42, "duration": 20, "velocity": 103}, {"time": 133680, "pitch": 42, "duration": 10, "velocity": 86}, {"time": 133800, "pitch": 40, "duration": 10, "velocity": 40}, {"time": 133920, "pitch": 35, "duration": 10, "velocity": 112}, {"time": 133920, "pitch": 42, "duration": 20, "velocity": 86}, {"time": 134040, "pitch": 40, "duration": 10, "velocity": 55}, {"time": 134160, "pitch": 35, "duration": 10, "velocity": 110}, {"time": 134160, "pitch": 42, "duration": 20, "velocity": 86}, {"time": 134400, "pitch": 40, "duration": 10, "velocity": 109}, {"time": 134400, "pitch": 42, "duration": 20, "velocity": 103}, {"time": 134640, "pitch": 35, "duration": 10, "velocity": 110}, {"time": 134640, "pitch": 46, "duration": 20, "velocity": 108}, {"time": 134760, "pitch": 40, "duration": 10, "velocity": 55}, {"time": 134880, "pitch": 42, "duration": 10, "velocity": 86}, {"time": 135120, "pitch": 35, "duration": 10, "velocity": 107}, {"time": 135120, "pitch": 42, "duration": 20, "velocity": 78}, {"time": 135360, "pitch": 40, "duration": 10, "velocity": 109}, {"time": 135360, "pitch": 42, "duration": 20, "velocity": 92}, {"time": 135600, "pitch": 35, "duration": 10, "velocity": 103}, {"time": 135600, "pitch": 42, "duration": 20, "velocity": 86}, {"time": 135720, "pitch": 40, "duration": 10, "velocity": 40}, {"time": 135840, "pitch": 35, "duration": 10, "velocity": 114}, {"time": 135840, "pitch": 42, "duration": 20, "velocity": 95}, {"time": 135960, "pitch": 40, "duration": 10, "velocity": 55}, {"time": 136080, "pitch": 42, "duration": 10, "velocity": 82}, {"time": 136320, "pitch": 40, "duration": 10, "velocity": 109}, {"time": 136320, "pitch": 42, "duration": 20, "velocity": 100}, {"time": 136560, "pitch": 42, "duration": 10, "velocity": 90}, {"time": 136680, "pitch": 40, "duration": 10, "velocity": 55}, {"time": 136800, "pitch": 35, "duration": 10, "velocity": 114}, {"time": 136800, "pitch": 42, "duration": 20, "velocity": 86}, {"time": 137040, "pitch": 42, "duration": 10, "velocity": 86}, {"time": 137280, "pitch": 40, "duration": 10, "velocity": 109}, {"time": 137280, "pitch": 42, "duration": 20, "velocity": 103}, {"time": 137520, "pitch": 42, "duration": 10, "velocity": 86}, {"time": 137640, "pitch": 40, "duration": 10, "velocity": 40}, {"time": 137760, "pitch": 35, "duration": 10, "velocity": 112}, {"time": 137760, "pitch": 42, "duration": 20, "velocity": 86}, {"time": 137880, "pitch": 40, "duration": 10, "velocity": 55}, {"time": 138000, "pitch": 35, "duration": 10, "velocity": 110}, {"time": 138000, "pitch": 42, "duration": 20, "velocity": 86}, {"time": 138240, "pitch": 40, "duration": 10, "velocity": 109}, {"time": 138240, "pitch": 42, "duration": 20, "velocity": 103}, {"time": 138480, "pitch": 35, "duration": 10, "velocity": 110}, {"time": 138480, "pitch": 46, "duration": 20, "velocity": 108}, {"time": 138600, "pitch": 40, "duration": 10, "velocity": 55}, {"time": 138720, "pitch": 42, "duration": 10, "velocity": 86}, {"time": 138960, "pitch": 35, "duration": 10, "velocity": 107}, {"time": 138960, "pitch": 42, "duration": 20, "velocity": 78}, {"time": 139200, "pitch": 40, "duration": 10, "velocity": 109}, {"time": 139200, "pitch": 42, "duration": 20, "velocity": 92}, {"time": 139440, "pitch": 35, "duration": 10, "velocity": 103}, {"time": 139440, "pitch": 42, "duration": 20, "velocity": 86}, {"time": 139560, "pitch": 35, "duration": 10, "velocity": 114}, {"time": 139680, "pitch": 40, "duration": 10, "velocity": 95}, {"time": 139680, "pitch": 44, "duration": 20, "velocity": 105}, {"time": 139800, "pitch": 40, "duration": 10, "velocity": 103}, {"time": 139920, "pitch": 44, "duration": 10, "velocity": 92}, {"time": 139920, "pitch": 47, "duration": 20, "velocity": 99}, {"time": 140040, "pitch": 43, "duration": 10, "velocity": 99}, {"time": 140160, "pitch": 40, "duration": 10, "velocity": 114}, {"time": 140160, "pitch": 46, "duration": 20, "velocity": 110}, {"time": 140400, "pitch": 35, "duration": 10, "velocity": 114}, {"time": 140400, "pitch": 42, "duration": 20, "velocity": 90}, {"time": 140400, "pitch": 52, "duration": 30, "velocity": 121}, {"time": 140640, "pitch": 42, "duration": 10, "velocity": 86}, {"time": 140880, "pitch": 35, "duration": 10, "velocity": 114}, {"time": 140880, "pitch": 42, "duration": 20, "velocity": 86}, {"time": 141120, "pitch": 40, "duration": 10, "velocity": 109}, {"time": 141120, "pitch": 42, "duration": 20, "velocity": 103}, {"time": 141360, "pitch": 42, "duration": 10, "velocity": 86}, {"time": 141480, "pitch": 40, "duration": 10, "velocity": 40}, {"time": 141600, "pitch": 35, "duration": 10, "velocity": 112}, {"time": 141600, "pitch": 42, "duration": 20, "velocity": 86}, {"time": 141720, "pitch": 40, "duration": 10, "velocity": 55}, {"time": 141840, "pitch": 35, "duration": 10, "velocity": 110}, {"time": 141840, "pitch": 42, "duration": 20, "velocity": 86}, {"time": 142080, "pitch": 40, "duration": 10, "velocity": 109}, {"time": 142080, "pitch": 42, "duration": 20, "velocity": 103}, {"time": 142320, "pitch": 35, "duration": 10, "velocity": 110}, {"time": 142320, "pitch": 42, "duration": 20, "velocity": 98}, {"time": 142440, "pitch": 40, "duration": 10, "velocity": 55}, {"time": 142560, "pitch": 42, "duration": 10, "velocity": 86}, {"time": 142800, "pitch": 35, "duration": 10, "velocity": 107}, {"time": 142800, "pitch": 42, "duration": 20, "velocity": 78}, {"time": 143040, "pitch": 40, "duration": 10, "velocity": 109}, {"time": 143040, "pitch": 42, "duration": 20, "velocity": 92}, {"time": 143280, "pitch": 35, "duration": 10, "velocity": 103}, {"time": 143280, "pitch": 42, "duration": 20, "velocity": 86}, {"time": 143400, "pitch": 40, "duration": 10, "velocity": 40}, {"time": 143520, "pitch": 35, "duration": 10, "velocity": 114}, {"time": 143520, "pitch": 42, "duration": 20, "velocity": 95}, {"time": 143640, "pitch": 40, "duration": 10, "velocity": 55}, {"time": 143760, "pitch": 42, "duration": 10, "velocity": 82}, {"time": 144000, "pitch": 40, "duration": 10, "velocity": 109}, {"time": 144000, "pitch": 42, "duration": 20, "velocity": 100}, {"time": 144240, "pitch": 42, "duration": 10, "velocity": 90}, {"time": 144360, "pitch": 40, "duration": 10, "velocity": 55}, {"time": 144480, "pitch": 35, "duration": 10, "velocity": 114}, {"time": 144480, "pitch": 42, "duration": 20, "velocity": 86}, {"time": 144480, "pitch": 57, "duration": 30, "velocity": 110}, {"time": 144720, "pitch": 42, "duration": 10, "velocity": 86}, {"time": 144960, "pitch": 40, "duration": 10, "velocity": 109}, {"time": 144960, "pitch": 42, "duration": 20, "velocity": 103}, {"time": 145200, "pitch": 42, "duration": 10, "velocity": 86}, {"time": 145320, "pitch": 40, "duration": 10, "velocity": 40}, {"time": 145440, "pitch": 35, "duration": 10, "velocity": 112}, {"time": 145440, "pitch": 42, "duration": 20, "velocity": 86}, {"time": 145560, "pitch": 40, "duration": 10, "velocity": 55}, {"time": 145680, "pitch": 35, "duration": 10, "velocity": 110}, {"time": 145680, "pitch": 42, "duration": 20, "velocity": 86}, {"time": 145920, "pitch": 40, "duration": 10, "velocity": 109}, {"time": 145920, "pitch": 42, "duration": 20, "velocity": 103}, {"time": 146160, "pitch": 35, "duration": 10, "velocity": 110}, {"time": 146160, "pitch": 46, "duration": 20, "velocity": 108}, {"time": 146280, "pitch": 40, "duration": 10, "velocity": 55}, {"time": 146400, "pitch": 42, "duration": 10, "velocity": 86}, {"time": 146640, "pitch": 35, "duration": 10, "velocity": 107}, {"time": 146640, "pitch": 42, "duration": 20, "velocity": 78}, {"time": 146880, "pitch": 40, "duration": 10, "velocity": 109}, {"time": 146880, "pitch": 42, "duration": 20, "velocity": 92}, {"time": 147120, "pitch": 35, "duration": 10, "velocity": 103}, {"time": 147120, "pitch": 42, "duration": 20, "velocity": 86}, {"time": 147240, "pitch": 40, "duration": 10, "velocity": 40}, {"time": 147360, "pitch": 35, "duration": 10, "velocity": 114}, {"time": 147360, "pitch": 42, "duration": 20, "velocity": 95}, {"time": 147480, "pitch": 40, "duration": 10, "velocity": 55}, {"time": 147600, "pitch": 42, "duration": 10, "velocity": 82}, {"time": 147840, "pitch": 40, "duration": 10, "velocity": 109}, {"time": 147840, "pitch": 42, "duration": 20, "velocity": 100}, {"time": 148080, "pitch": 42, "duration": 10, "velocity": 90}, {"time": 148200, "pitch": 40, "duration": 10, "velocity": 55}, {"time": 148320, "pitch": 35, "duration": 10, "velocity": 114}, {"time": 148320, "pitch": 42, "duration": 20, "velocity": 86}, {"time": 148320, "pitch": 49, "duration": 30, "velocity": 121}, {"time": 148560, "pitch": 42, "duration": 10, "velocity": 86}, {"time": 148800, "pitch": 40, "duration": 10, "velocity": 109}, {"time": 148800, "pitch": 42, "duration": 20, "velocity": 103}, {"time": 149040, "pitch": 42, "duration": 10, "velocity": 86}, {"time": 149160, "pitch": 40, "duration": 10, "velocity": 40}, {"time": 149280, "pitch": 35, "duration": 10, "velocity": 112}, {"time": 149280, "pitch": 42, "duration": 20, "velocity": 86}, {"time": 149400, "pitch": 40, "duration": 10, "velocity": 55}, {"time": 149520, "pitch": 35, "duration": 10, "velocity": 110}, {"time": 149520, "pitch": 42, "duration": 20, "velocity": 86}, {"time": 149760, "pitch": 40, "duration": 10, "velocity": 109}, {"time": 149760, "pitch": 42, "duration": 20, "velocity": 103}, {"time": 150000, "pitch": 35, "duration": 10, "velocity": 110}, {"time": 150000, "pitch": 46, "duration": 20, "velocity": 108}, {"time": 150120, "pitch": 40, "duration": 10, "velocity": 55}, {"time": 150240, "pitch": 42, "duration": 10, "velocity": 86}, {"time": 150480, "pitch": 35, "duration": 10, "velocity": 107}, {"time": 150480, "pitch": 42, "duration": 20, "velocity": 78}, {"time": 150720, "pitch": 40, "duration": 10, "velocity": 109}, {"time": 150720, "pitch": 42, "duration": 20, "velocity": 92}, {"time": 150960, "pitch": 35, "duration": 10, "velocity": 103}, {"time": 150960, "pitch": 42, "duration": 20, "velocity": 86}, {"time": 151080, "pitch": 40, "duration": 10, "velocity": 40}, {"time": 151200, "pitch": 35, "duration": 10, "velocity": 114}, {"time": 151200, "pitch": 42, "duration": 20, "velocity": 95}, {"time": 151320, "pitch": 40, "duration": 10, "velocity": 55}, {"time": 151440, "pitch": 35, "duration": 10, "velocity": 114}, {"time": 151440, "pitch": 42, "duration": 20, "velocity": 82}, {"time": 151680, "pitch": 40, "duration": 10, "velocity": 109}, {"time": 151680, "pitch": 42, "duration": 20, "velocity": 100}, {"time": 151920, "pitch": 42, "duration": 10, "velocity": 90}, {"time": 152040, "pitch": 40, "duration": 10, "velocity": 55}, {"time": 152160, "pitch": 35, "duration": 10, "velocity": 114}, {"time": 152160, "pitch": 42, "duration": 20, "velocity": 86}, {"time": 152400, "pitch": 42, "duration": 10, "velocity": 86}, {"time": 152640, "pitch": 40, "duration": 10, "velocity": 109}, {"time": 152640, "pitch": 42, "duration": 20, "velocity": 103}, {"time": 152880, "pitch": 42, "duration": 10, "velocity": 86}, {"time": 153000, "pitch": 40, "duration": 10, "velocity": 40}, {"time": 153120, "pitch": 35, "duration": 10, "velocity": 112}, {"time": 153120, "pitch": 42, "duration": 20, "velocity": 86}, {"time": 153240, "pitch": 40, "duration": 10, "velocity": 55}, {"time": 153360, "pitch": 35, "duration": 10, "velocity": 110}, {"time": 153360, "pitch": 46, "duration": 20, "velocity": 96}, {"time": 153600, "pitch": 40, "duration": 10, "velocity": 109}, {"time": 153600, "pitch": 42, "duration": 20, "velocity": 103}, {"time": 153840, "pitch": 35, "duration": 10, "velocity": 110}, {"time": 153840, "pitch": 42, "duration": 20, "velocity": 98}, {"time": 153840, "pitch": 57, "duration": 30, "velocity": 110}, {"time": 153960, "pitch": 40, "duration": 10, "velocity": 55}, {"time": 154080, "pitch": 42, "duration": 10, "velocity": 86}, {"time": 154320, "pitch": 35, "duration": 10, "velocity": 107}, {"time": 154320, "pitch": 42, "duration": 20, "velocity": 78}, {"time": 154560, "pitch": 40, "duration": 10, "velocity": 109}, {"time": 154560, "pitch": 42, "duration": 20, "velocity": 92}, {"time": 154800, "pitch": 35, "duration": 10, "velocity": 103}, {"time": 154800, "pitch": 42, "duration": 20, "velocity": 86}, {"time": 154920, "pitch": 40, "duration": 10, "velocity": 40}, {"time": 155040, "pitch": 35, "duration": 10, "velocity": 114}, {"time": 155040, "pitch": 42, "duration": 20, "velocity": 95}, {"time": 155160, "pitch": 40, "duration": 10, "velocity": 55}, {"time": 155280, "pitch": 42, "duration": 10, "velocity": 82}, {"time": 155520, "pitch": 40, "duration": 10, "velocity": 109}, {"time": 155520, "pitch": 42, "duration": 20, "velocity": 100}, {"time": 155760, "pitch": 42, "duration": 10, "velocity": 90}, {"time": 155880, "pitch": 40, "duration": 10, "velocity": 55}, {"time": 156000, "pitch": 35, "duration": 10, "velocity": 114}, {"time": 156000, "pitch": 42, "duration": 20, "velocity": 86}, {"time": 156240, "pitch": 42, "duration": 10, "velocity": 86}, {"time": 156480, "pitch": 40, "duration": 10, "velocity": 109}, {"time": 156480, "pitch": 42, "duration": 20, "velocity": 103}, {"time": 156720, "pitch": 42, "duration": 10, "velocity": 86}, {"time": 156960, "pitch": 35, "duration": 10, "velocity": 112}, {"time": 156960, "pitch": 46, "duration": 20, "velocity": 96}, {"time": 157200, "pitch": 40, "duration": 10, "velocity": 109}, {"time": 157200, "pitch": 42, "duration": 20, "velocity": 86}, {"time": 157320, "pitch": 40, "duration": 10, "velocity": 109}, {"time": 157440, "pitch": 35, "duration": 10, "velocity": 114}, {"time": 157440, "pitch": 46, "duration": 20, "velocity": 113}, {"time": 157680, "pitch": 40, "duration": 10, "velocity": 109}, {"time": 157680, "pitch": 42, "duration": 20, "velocity": 98}, {"time": 157800, "pitch": 40, "duration": 10, "velocity": 109}, {"time": 157920, "pitch": 35, "duration": 10, "velocity": 114}, {"time": 157920, "pitch": 42, "duration": 20, "velocity": 86}, {"time": 158160, "pitch": 46, "duration": 10, "velocity": 96}, {"time": 158400, "pitch": 42, "duration": 10, "velocity": 113}, {"time": 158520, "pitch": 42, "duration": 10, "velocity": 66}, {"time": 158640, "pitch": 35, "duration": 10, "velocity": 97}, {"time": 158640, "pitch": 46, "duration": 20, "velocity": 96}, {"time": 158760, "pitch": 35, "duration": 10, "velocity": 114}, {"time": 158880, "pitch": 40, "duration": 10, "velocity": 103}, {"time": 158880, "pitch": 42, "duration": 20, "velocity": 86}, {"time": 159120, "pitch": 46, "duration": 10, "velocity": 86}, {"time": 159360, "pitch": 42, "duration": 10, "velocity": 113}, {"time": 159600, "pitch": 35, "duration": 10, "velocity": 114}, {"time": 159600, "pitch": 46, "duration": 20, "velocity": 96}, {"time": 159840, "pitch": 42, "duration": 10, "velocity": 86}, {"time": 160080, "pitch": 35, "duration": 10, "velocity": 114}, {"time": 160080, "pitch": 46, "duration": 20, "velocity": 96}, {"time": 160320, "pitch": 40, "duration": 10, "velocity": 103}, {"time": 160440, "pitch": 42, "duration": 10, "velocity": 66}, {"time": 160560, "pitch": 35, "duration": 10, "velocity": 114}, {"time": 160560, "pitch": 46, "duration": 20, "velocity": 96}, {"time": 160800, "pitch": 35, "duration": 10, "velocity": 114}, {"time": 160800, "pitch": 42, "duration": 20, "velocity": 86}, {"time": 161040, "pitch": 46, "duration": 10, "velocity": 86}, {"time": 161280, "pitch": 42, "duration": 10, "velocity": 113}, {"time": 161280, "pitch": 47, "duration": 20, "velocity": 98}, {"time": 161520, "pitch": 46, "duration": 10, "velocity": 96}, {"time": 161520, "pitch": 50, "duration": 20, "velocity": 104}, {"time": 161760, "pitch": 35, "duration": 10, "velocity": 114}, {"time": 161760, "pitch": 42, "duration": 20, "velocity": 86}, {"time": 162000, "pitch": 46, "duration": 10, "velocity": 96}, {"time": 162240, "pitch": 42, "duration": 10, "velocity": 113}, {"time": 162360, "pitch": 42, "duration": 10, "velocity": 66}, {"time": 162480, "pitch": 35, "duration": 10, "velocity": 97}, {"time": 162480, "pitch": 46, "duration": 20, "velocity": 96}, {"time": 162600, "pitch": 35, "duration": 10, "velocity": 114}, {"time": 162720, "pitch": 40, "duration": 10, "velocity": 103}, {"time": 162720, "pitch": 42, "duration": 20, "velocity": 86}, {"time": 162960, "pitch": 46, "duration": 10, "velocity": 86}, {"time": 163200, "pitch": 42, "duration": 10, "velocity": 113}, {"time": 163440, "pitch": 35, "duration": 10, "velocity": 114}, {"time": 163440, "pitch": 46, "duration": 20, "velocity": 96}, {"time": 163680, "pitch": 42, "duration": 10, "velocity": 86}, {"time": 163920, "pitch": 35, "duration": 10, "velocity": 114}, {"time": 163920, "pitch": 46, "duration": 20, "velocity": 96}, {"time": 164160, "pitch": 40, "duration": 10, "velocity": 103}, {"time": 164280, "pitch": 42, "duration": 10, "velocity": 66}, {"time": 164400, "pitch": 35, "duration": 10, "velocity": 114}, {"time": 164400, "pitch": 46, "duration": 20, "velocity": 96}, {"time": 164640, "pitch": 35, "duration": 10, "velocity": 114}, {"time": 164640, "pitch": 42, "duration": 20, "velocity": 86}, {"time": 164880, "pitch": 46, "duration": 10, "velocity": 86}, {"time": 165120, "pitch": 40, "duration": 10, "velocity": 103}, {"time": 165120, "pitch": 42, "duration": 20, "velocity": 113}, {"time": 165230, "pitch": 50, "duration": 10, "velocity": 89}, {"time": 165360, "pitch": 46, "duration": 10, "velocity": 96}, {"time": 165360, "pitch": 47, "duration": 20, "velocity": 89}, {"time": 165600, "pitch": 35, "duration": 10, "velocity": 114}, {"time": 165600, "pitch": 42, "duration": 20, "velocity": 86}, {"time": 165840, "pitch": 46, "duration": 10, "velocity": 96}, {"time": 166080, "pitch": 42, "duration": 10, "velocity": 113}, {"time": 166200, "pitch": 42, "duration": 10, "velocity": 66}, {"time": 166320, "pitch": 35, "duration": 10, "velocity": 97}, {"time": 166320, "pitch": 46, "duration": 20, "velocity": 96}, {"time": 166440, "pitch": 35, "duration": 10, "velocity": 114}, {"time": 166560, "pitch": 40, "duration": 10, "velocity": 103}, {"time": 166560, "pitch": 42, "duration": 20, "velocity": 86}, {"time": 166800, "pitch": 46, "duration": 10, "velocity": 86}, {"time": 167040, "pitch": 42, "duration": 10, "velocity": 113}, {"time": 167280, "pitch": 35, "duration": 10, "velocity": 114}, {"time": 167280, "pitch": 46, "duration": 20, "velocity": 96}, {"time": 167520, "pitch": 42, "duration": 10, "velocity": 86}, {"time": 167760, "pitch": 35, "duration": 10, "velocity": 114}, {"time": 167760, "pitch": 46, "duration": 20, "velocity": 96}, {"time": 168000, "pitch": 40, "duration": 10, "velocity": 103}, {"time": 168120, "pitch": 42, "duration": 10, "velocity": 66}, {"time": 168240, "pitch": 35, "duration": 10, "velocity": 114}, {"time": 168240, "pitch": 46, "duration": 20, "velocity": 96}, {"time": 168480, "pitch": 35, "duration": 10, "velocity": 114}, {"time": 168480, "pitch": 42, "duration": 20, "velocity": 86}, {"time": 168720, "pitch": 46, "duration": 10, "velocity": 86}, {"time": 168960, "pitch": 42, "duration": 10, "velocity": 113}, {"time": 168960, "pitch": 47, "duration": 20, "velocity": 98}, {"time": 169200, "pitch": 46, "duration": 10, "velocity": 96}, {"time": 169200, "pitch": 50, "duration": 20, "velocity": 104}, {"time": 169440, "pitch": 35, "duration": 10, "velocity": 114}, {"time": 169440, "pitch": 42, "duration": 20, "velocity": 86}, {"time": 169680, "pitch": 46, "duration": 10, "velocity": 96}, {"time": 169920, "pitch": 42, "duration": 10, "velocity": 113}, {"time": 170040, "pitch": 42, "duration": 10, "velocity": 66}, {"time": 170160, "pitch": 35, "duration": 10, "velocity": 97}, {"time": 170160, "pitch": 46, "duration": 20, "velocity": 96}, {"time": 170280, "pitch": 35, "duration": 10, "velocity": 114}, {"time": 170400, "pitch": 40, "duration": 10, "velocity": 103}, {"time": 170400, "pitch": 42, "duration": 20, "velocity": 86}, {"time": 170640, "pitch": 46, "duration": 10, "velocity": 86}, {"time": 170880, "pitch": 42, "duration": 10, "velocity": 113}, {"time": 171120, "pitch": 35, "duration": 10, "velocity": 114}, {"time": 171120, "pitch": 46, "duration": 20, "velocity": 96}, {"time": 171360, "pitch": 42, "duration": 10, "velocity": 86}, {"time": 171600, "pitch": 35, "duration": 10, "velocity": 114}, {"time": 171600, "pitch": 46, "duration": 20, "velocity": 96}, {"time": 171840, "pitch": 40, "duration": 10, "velocity": 103}, {"time": 171960, "pitch": 42, "duration": 10, "velocity": 66}, {"time": 172080, "pitch": 35, "duration": 10, "velocity": 114}, {"time": 172080, "pitch": 46, "duration": 20, "velocity": 96}, {"time": 172320, "pitch": 35, "duration": 20, "velocity": 114}, {"time": 172320, "pitch": 40, "duration": 10, "velocity": 101}, {"time": 172320, "pitch": 44, "duration": 30, "velocity": 96}, {"time": 172440, "pitch": 40, "duration": 10, "velocity": 102}, {"time": 172560, "pitch": 40, "duration": 10, "velocity": 104}, {"time": 172560, "pitch": 44, "duration": 20, "velocity": 86}, {"time": 172680, "pitch": 40, "duration": 10, "velocity": 105}, {"time": 172800, "pitch": 40, "duration": 10, "velocity": 106}, {"time": 172800, "pitch": 44, "duration": 20, "velocity": 123}, {"time": 172920, "pitch": 40, "duration": 10, "velocity": 107}, {"time": 173040, "pitch": 40, "duration": 10, "velocity": 109}, {"time": 173040, "pitch": 44, "duration": 20, "velocity": 96}, {"time": 173160, "pitch": 40, "duration": 10, "velocity": 110}, {"time": 173280, "pitch": 35, "duration": 10, "velocity": 114}, {"time": 173280, "pitch": 42, "duration": 20, "velocity": 86}, {"time": 173280, "pitch": 57, "duration": 30, "velocity": 110}, {"time": 173520, "pitch": 42, "duration": 10, "velocity": 86}, {"time": 173760, "pitch": 40, "duration": 10, "velocity": 109}, {"time": 173760, "pitch": 42, "duration": 20, "velocity": 103}, {"time": 174000, "pitch": 42, "duration": 10, "velocity": 86}, {"time": 174120, "pitch": 40, "duration": 10, "velocity": 45}, {"time": 174240, "pitch": 35, "duration": 10, "velocity": 112}, {"time": 174240, "pitch": 42, "duration": 20, "velocity": 86}, {"time": 174360, "pitch": 40, "duration": 10, "velocity": 69}, {"time": 174480, "pitch": 35, "duration": 10, "velocity": 110}, {"time": 174480, "pitch": 42, "duration": 20, "velocity": 86}, {"time": 174720, "pitch": 40, "duration": 10, "velocity": 109}, {"time": 174720, "pitch": 42, "duration": 20, "velocity": 103}, {"time": 174960, "pitch": 35, "duration": 10, "velocity": 110}, {"time": 174960, "pitch": 42, "duration": 20, "velocity": 98}, {"time": 175200, "pitch": 35, "duration": 10, "velocity": 114}, {"time": 175200, "pitch": 42, "duration": 20, "velocity": 86}, {"time": 175440, "pitch": 42, "duration": 10, "velocity": 86}, {"time": 175680, "pitch": 40, "duration": 10, "velocity": 109}, {"time": 175680, "pitch": 42, "duration": 20, "velocity": 103}, {"time": 175920, "pitch": 42, "duration": 10, "velocity": 86}, {"time": 176040, "pitch": 40, "duration": 10, "velocity": 47}, {"time": 176160, "pitch": 35, "duration": 10, "velocity": 112}, {"time": 176160, "pitch": 42, "duration": 20, "velocity": 86}, {"time": 176280, "pitch": 40, "duration": 10, "velocity": 81}, {"time": 176400, "pitch": 35, "duration": 10, "velocity": 110}, {"time": 176400, "pitch": 42, "duration": 20, "velocity": 86}, {"time": 176640, "pitch": 40, "duration": 10, "velocity": 109}, {"time": 176640, "pitch": 42, "duration": 20, "velocity": 103}, {"time": 176880, "pitch": 35, "duration": 10, "velocity": 110}, {"time": 176880, "pitch": 46, "duration": 20, "velocity": 108}, {"time": 177120, "pitch": 35, "duration": 10, "velocity": 114}, {"time": 177120, "pitch": 42, "duration": 20, "velocity": 86}, {"time": 177120, "pitch": 52, "duration": 30, "velocity": 121}, {"time": 177360, "pitch": 42, "duration": 10, "velocity": 86}, {"time": 177600, "pitch": 40, "duration": 10, "velocity": 109}, {"time": 177600, "pitch": 42, "duration": 20, "velocity": 103}, {"time": 177840, "pitch": 42, "duration": 10, "velocity": 86}, {"time": 177960, "pitch": 40, "duration": 10, "velocity": 47}, {"time": 178080, "pitch": 35, "duration": 10, "velocity": 112}, {"time": 178080, "pitch": 42, "duration": 20, "velocity": 86}, {"time": 178200, "pitch": 40, "duration": 10, "velocity": 81}, {"time": 178320, "pitch": 35, "duration": 10, "velocity": 110}, {"time": 178320, "pitch": 42, "duration": 20, "velocity": 86}, {"time": 178560, "pitch": 40, "duration": 10, "velocity": 109}, {"time": 178560, "pitch": 42, "duration": 20, "velocity": 103}, {"time": 178800, "pitch": 35, "duration": 10, "velocity": 110}, {"time": 178800, "pitch": 46, "duration": 20, "velocity": 108}, {"time": 178930, "pitch": 40, "duration": 10, "velocity": 88}, {"time": 179040, "pitch": 35, "duration": 10, "velocity": 107}, {"time": 179040, "pitch": 42, "duration": 20, "velocity": 86}, {"time": 179280, "pitch": 35, "duration": 10, "velocity": 107}, {"time": 179280, "pitch": 46, "duration": 20, "velocity": 104}, {"time": 179520, "pitch": 40, "duration": 10, "velocity": 109}, {"time": 179520, "pitch": 42, "duration": 20, "velocity": 92}, {"time": 179760, "pitch": 35, "duration": 10, "velocity": 103}, {"time": 179760, "pitch": 46, "duration": 20, "velocity": 106}, {"time": 179880, "pitch": 40, "duration": 10, "velocity": 59}, {"time": 180000, "pitch": 35, "duration": 10, "velocity": 114}, {"time": 180000, "pitch": 42, "duration": 20, "velocity": 95}, {"time": 180120, "pitch": 40, "duration": 10, "velocity": 82}, {"time": 180240, "pitch": 35, "duration": 10, "velocity": 114}, {"time": 180240, "pitch": 46, "duration": 20, "velocity": 102}, {"time": 180480, "pitch": 40, "duration": 10, "velocity": 107}, {"time": 180480, "pitch": 42, "duration": 20, "velocity": 100}, {"time": 180600, "pitch": 40, "duration": 10, "velocity": 111}, {"time": 180720, "pitch": 43, "duration": 20, "velocity": 100}, {"time": 180720, "pitch": 44, "duration": 10, "velocity": 100}, {"time": 180960, "pitch": 35, "duration": 10, "velocity": 114}, {"time": 180960, "pitch": 42, "duration": 20, "velocity": 86}, {"time": 180960, "pitch": 57, "duration": 30, "velocity": 110}, {"time": 181200, "pitch": 42, "duration": 10, "velocity": 86}, {"time": 181440, "pitch": 40, "duration": 10, "velocity": 109}, {"time": 181440, "pitch": 42, "duration": 20, "velocity": 103}, {"time": 181680, "pitch": 42, "duration": 10, "velocity": 86}, {"time": 181800, "pitch": 40, "duration": 10, "velocity": 45}, {"time": 181920, "pitch": 35, "duration": 10, "velocity": 112}, {"time": 181920, "pitch": 42, "duration": 20, "velocity": 86}, {"time": 182040, "pitch": 40, "duration": 10, "velocity": 69}, {"time": 182160, "pitch": 35, "duration": 10, "velocity": 110}, {"time": 182160, "pitch": 42, "duration": 20, "velocity": 86}, {"time": 182400, "pitch": 40, "duration": 10, "velocity": 109}, {"time": 182400, "pitch": 42, "duration": 20, "velocity": 103}, {"time": 182640, "pitch": 35, "duration": 10, "velocity": 110}, {"time": 182640, "pitch": 42, "duration": 20, "velocity": 98}, {"time": 182880, "pitch": 35, "duration": 10, "velocity": 114}, {"time": 182880, "pitch": 42, "duration": 20, "velocity": 86}, {"time": 183120, "pitch": 42, "duration": 10, "velocity": 86}, {"time": 183360, "pitch": 40, "duration": 10, "velocity": 109}, {"time": 183360, "pitch": 42, "duration": 20, "velocity": 103}, {"time": 183600, "pitch": 42, "duration": 10, "velocity": 86}, {"time": 183720, "pitch": 40, "duration": 10, "velocity": 45}, {"time": 183840, "pitch": 35, "duration": 10, "velocity": 112}, {"time": 183840, "pitch": 42, "duration": 20, "velocity": 86}, {"time": 183960, "pitch": 40, "duration": 10, "velocity": 96}, {"time": 184080, "pitch": 35, "duration": 10, "velocity": 110}, {"time": 184080, "pitch": 42, "duration": 20, "velocity": 86}, {"time": 184320, "pitch": 40, "duration": 10, "velocity": 109}, {"time": 184320, "pitch": 42, "duration": 20, "velocity": 103}, {"time": 184560, "pitch": 35, "duration": 10, "velocity": 110}, {"time": 184560, "pitch": 46, "duration": 20, "velocity": 112}, {"time": 184800, "pitch": 35, "duration": 10, "velocity": 114}, {"time": 184800, "pitch": 42, "duration": 20, "velocity": 86}, {"time": 184800, "pitch": 57, "duration": 30, "velocity": 110}, {"time": 185040, "pitch": 42, "duration": 10, "velocity": 86}, {"time": 185280, "pitch": 40, "duration": 10, "velocity": 109}, {"time": 185280, "pitch": 42, "duration": 20, "velocity": 103}, {"time": 185520, "pitch": 42, "duration": 10, "velocity": 86}, {"time": 185640, "pitch": 40, "duration": 10, "velocity": 45}, {"time": 185760, "pitch": 35, "duration": 10, "velocity": 112}, {"time": 185760, "pitch": 42, "duration": 20, "velocity": 86}, {"time": 185880, "pitch": 40, "duration": 10, "velocity": 96}, {"time": 186000, "pitch": 35, "duration": 10, "velocity": 110}, {"time": 186000, "pitch": 42, "duration": 20, "velocity": 86}, {"time": 186240, "pitch": 40, "duration": 10, "velocity": 109}, {"time": 186240, "pitch": 42, "duration": 20, "velocity": 103}, {"time": 186480, "pitch": 35, "duration": 10, "velocity": 110}, {"time": 186480, "pitch": 42, "duration": 20, "velocity": 98}, {"time": 186720, "pitch": 40, "duration": 10, "velocity": 108}, {"time": 186720, "pitch": 46, "duration": 20, "velocity": 114}, {"time": 186800, "pitch": 50, "duration": 10, "velocity": 89}, {"time": 186880, "pitch": 47, "duration": 10, "velocity": 94}, {"time": 186960, "pitch": 44, "duration": 10, "velocity": 88}, {"time": 186960, "pitch": 50, "duration": 20, "velocity": 98}, {"time": 187030, "pitch": 47, "duration": 10, "velocity": 102}, {"time": 187120, "pitch": 35, "duration": 10, "velocity": 103}, {"time": 187200, "pitch": 40, "duration": 10, "velocity": 108}, {"time": 187200, "pitch": 44, "duration": 20, "velocity": 115}, {"time": 187320, "pitch": 35, "duration": 10, "velocity": 103}, {"time": 187440, "pitch": 40, "duration": 10, "velocity": 108}, {"time": 187440, "pitch": 44, "duration": 20, "velocity": 115}, {"time": 187560, "pitch": 35, "duration": 10, "velocity": 103}, {"time": 187680, "pitch": 40, "duration": 10, "velocity": 109}, {"time": 187680, "pitch": 42, "duration": 20, "velocity": 95}, {"time": 187920, "pitch": 35, "duration": 10, "velocity": 107}, {"time": 187920, "pitch": 46, "duration": 20, "velocity": 127}, {"time": 188160, "pitch": 35, "duration": 10, "velocity": 107}, {"time": 188160, "pitch": 42, "duration": 20, "velocity": 100}, {"time": 188400, "pitch": 35, "duration": 10, "velocity": 114}, {"time": 188400, "pitch": 44, "duration": 20, "velocity": 100}, {"time": 188400, "pitch": 57, "duration": 30, "velocity": 110}, {"time": 188640, "pitch": 42, "duration": 10, "velocity": 86}, {"time": 188880, "pitch": 35, "duration": 10, "velocity": 114}, {"time": 188880, "pitch": 42, "duration": 20, "velocity": 86}, {"time": 189120, "pitch": 40, "duration": 10, "velocity": 109}, {"time": 189120, "pitch": 42, "duration": 20, "velocity": 103}, {"time": 189360, "pitch": 42, "duration": 10, "velocity": 86}, {"time": 189480, "pitch": 40, "duration": 10, "velocity": 40}, {"time": 189600, "pitch": 35, "duration": 10, "velocity": 112}, {"time": 189600, "pitch": 42, "duration": 20, "velocity": 86}, {"time": 189720, "pitch": 40, "duration": 10, "velocity": 55}, {"time": 189840, "pitch": 35, "duration": 10, "velocity": 110}, {"time": 189840, "pitch": 42, "duration": 20, "velocity": 86}, {"time": 190080, "pitch": 40, "duration": 10, "velocity": 109}, {"time": 190080, "pitch": 42, "duration": 20, "velocity": 103}, {"time": 190320, "pitch": 35, "duration": 10, "velocity": 110}, {"time": 190320, "pitch": 42, "duration": 20, "velocity": 98}, {"time": 190440, "pitch": 40, "duration": 10, "velocity": 55}, {"time": 190560, "pitch": 42, "duration": 10, "velocity": 86}, {"time": 190800, "pitch": 35, "duration": 10, "velocity": 107}, {"time": 190800, "pitch": 42, "duration": 20, "velocity": 78}, {"time": 191040, "pitch": 40, "duration": 10, "velocity": 109}, {"time": 191040, "pitch": 42, "duration": 20, "velocity": 92}, {"time": 191280, "pitch": 35, "duration": 10, "velocity": 103}, {"time": 191280, "pitch": 42, "duration": 20, "velocity": 86}, {"time": 191400, "pitch": 40, "duration": 10, "velocity": 40}, {"time": 191520, "pitch": 35, "duration": 10, "velocity": 114}, {"time": 191520, "pitch": 42, "duration": 20, "velocity": 95}, {"time": 191640, "pitch": 40, "duration": 10, "velocity": 55}, {"time": 191760, "pitch": 42, "duration": 10, "velocity": 82}, {"time": 192000, "pitch": 40, "duration": 10, "velocity": 109}, {"time": 192000, "pitch": 42, "duration": 20, "velocity": 100}, {"time": 192240, "pitch": 42, "duration": 10, "velocity": 90}, {"time": 192360, "pitch": 40, "duration": 10, "velocity": 55}, {"time": 192480, "pitch": 35, "duration": 10, "velocity": 114}, {"time": 192480, "pitch": 42, "duration": 20, "velocity": 86}, {"time": 192480, "pitch": 57, "duration": 30, "velocity": 110}, {"time": 192720, "pitch": 42, "duration": 10, "velocity": 86}, {"time": 192960, "pitch": 40, "duration": 10, "velocity": 109}, {"time": 192960, "pitch": 42, "duration": 20, "velocity": 103}, {"time": 193200, "pitch": 42, "duration": 10, "velocity": 86}, {"time": 193320, "pitch": 40, "duration": 10, "velocity": 40}, {"time": 193440, "pitch": 35, "duration": 10, "velocity": 112}, {"time": 193440, "pitch": 42, "duration": 20, "velocity": 86}, {"time": 193560, "pitch": 40, "duration": 10, "velocity": 55}, {"time": 193680, "pitch": 35, "duration": 10, "velocity": 110}, {"time": 193680, "pitch": 42, "duration": 20, "velocity": 86}, {"time": 193920, "pitch": 40, "duration": 10, "velocity": 109}, {"time": 193920, "pitch": 42, "duration": 20, "velocity": 103}, {"time": 194160, "pitch": 35, "duration": 10, "velocity": 110}, {"time": 194160, "pitch": 46, "duration": 20, "velocity": 108}, {"time": 194280, "pitch": 40, "duration": 10, "velocity": 55}, {"time": 194400, "pitch": 42, "duration": 10, "velocity": 86}, {"time": 194640, "pitch": 35, "duration": 10, "velocity": 107}, {"time": 194640, "pitch": 42, "duration": 20, "velocity": 78}, {"time": 194880, "pitch": 40, "duration": 10, "velocity": 109}, {"time": 194880, "pitch": 42, "duration": 20, "velocity": 92}, {"time": 195120, "pitch": 35, "duration": 10, "velocity": 103}, {"time": 195120, "pitch": 42, "duration": 20, "velocity": 86}, {"time": 195240, "pitch": 40, "duration": 10, "velocity": 40}, {"time": 195360, "pitch": 35, "duration": 10, "velocity": 114}, {"time": 195360, "pitch": 42, "duration": 20, "velocity": 95}, {"time": 195480, "pitch": 40, "duration": 10, "velocity": 55}, {"time": 195600, "pitch": 42, "duration": 10, "velocity": 82}, {"time": 195840, "pitch": 40, "duration": 10, "velocity": 109}, {"time": 195840, "pitch": 42, "duration": 20, "velocity": 100}, {"time": 196080, "pitch": 42, "duration": 10, "velocity": 90}, {"time": 196200, "pitch": 40, "duration": 10, "velocity": 55}, {"time": 196320, "pitch": 35, "duration": 10, "velocity": 114}, {"time": 196320, "pitch": 42, "duration": 20, "velocity": 86}, {"time": 196320, "pitch": 57, "duration": 30, "velocity": 110}, {"time": 196560, "pitch": 42, "duration": 10, "velocity": 86}, {"time": 196800, "pitch": 40, "duration": 10, "velocity": 109}, {"time": 196800, "pitch": 42, "duration": 20, "velocity": 103}, {"time": 197040, "pitch": 42, "duration": 10, "velocity": 86}, {"time": 197160, "pitch": 40, "duration": 10, "velocity": 40}, {"time": 197280, "pitch": 35, "duration": 10, "velocity": 112}, {"time": 197280, "pitch": 42, "duration": 20, "velocity": 86}, {"time": 197400, "pitch": 40, "duration": 10, "velocity": 55}, {"time": 197520, "pitch": 35, "duration": 10, "velocity": 110}, {"time": 197520, "pitch": 42, "duration": 20, "velocity": 86}, {"time": 197760, "pitch": 40, "duration": 10, "velocity": 109}, {"time": 197760, "pitch": 42, "duration": 20, "velocity": 103}, {"time": 198000, "pitch": 35, "duration": 10, "velocity": 110}, {"time": 198000, "pitch": 46, "duration": 20, "velocity": 108}, {"time": 198120, "pitch": 40, "duration": 10, "velocity": 55}, {"time": 198240, "pitch": 42, "duration": 10, "velocity": 86}, {"time": 198480, "pitch": 35, "duration": 10, "velocity": 107}, {"time": 198480, "pitch": 42, "duration": 20, "velocity": 78}, {"time": 198720, "pitch": 40, "duration": 10, "velocity": 109}, {"time": 198720, "pitch": 42, "duration": 20, "velocity": 92}, {"time": 198960, "pitch": 35, "duration": 10, "velocity": 103}, {"time": 198960, "pitch": 42, "duration": 20, "velocity": 86}, {"time": 199080, "pitch": 40, "duration": 10, "velocity": 40}, {"time": 199200, "pitch": 35, "duration": 10, "velocity": 114}, {"time": 199200, "pitch": 42, "duration": 20, "velocity": 95}, {"time": 199320, "pitch": 40, "duration": 10, "velocity": 55}, {"time": 199440, "pitch": 42, "duration": 10, "velocity": 82}, {"time": 199680, "pitch": 40, "duration": 10, "velocity": 109}, {"time": 199680, "pitch": 42, "duration": 20, "velocity": 100}, {"time": 199920, "pitch": 42, "duration": 10, "velocity": 90}, {"time": 200040, "pitch": 40, "duration": 10, "velocity": 55}, {"time": 200160, "pitch": 35, "duration": 10, "velocity": 114}, {"time": 200160, "pitch": 42, "duration": 20, "velocity": 86}, {"time": 200400, "pitch": 42, "duration": 10, "velocity": 86}, {"time": 200640, "pitch": 40, "duration": 10, "velocity": 109}, {"time": 200640, "pitch": 42, "duration": 20, "velocity": 103}, {"time": 200880, "pitch": 42, "duration": 10, "velocity": 86}, {"time": 201000, "pitch": 40, "duration": 10, "velocity": 40}, {"time": 201120, "pitch": 35, "duration": 10, "velocity": 112}, {"time": 201120, "pitch": 42, "duration": 20, "velocity": 86}, {"time": 201240, "pitch": 40, "duration": 10, "velocity": 55}, {"time": 201360, "pitch": 35, "duration": 10, "velocity": 110}, {"time": 201360, "pitch": 42, "duration": 20, "velocity": 86}, {"time": 201600, "pitch": 40, "duration": 10, "velocity": 109}, {"time": 201600, "pitch": 42, "duration": 20, "velocity": 103}, {"time": 201840, "pitch": 35, "duration": 10, "velocity": 110}, {"time": 201840, "pitch": 46, "duration": 20, "velocity": 108}, {"time": 201960, "pitch": 40, "duration": 10, "velocity": 55}, {"time": 202080, "pitch": 42, "duration": 10, "velocity": 86}, {"time": 202320, "pitch": 35, "duration": 10, "velocity": 107}, {"time": 202320, "pitch": 42, "duration": 20, "velocity": 78}, {"time": 202560, "pitch": 40, "duration": 10, "velocity": 109}, {"time": 202560, "pitch": 42, "duration": 20, "velocity": 92}, {"time": 202800, "pitch": 35, "duration": 10, "velocity": 103}, {"time": 202800, "pitch": 42, "duration": 20, "velocity": 86}, {"time": 202920, "pitch": 40, "duration": 10, "velocity": 40}, {"time": 203040, "pitch": 35, "duration": 10, "velocity": 114}, {"time": 203040, "pitch": 42, "duration": 20, "velocity": 95}, {"time": 203280, "pitch": 40, "duration": 10, "velocity": 105}, {"time": 203280, "pitch": 42, "duration": 20, "velocity": 82}, {"time": 203520, "pitch": 40, "duration": 10, "velocity": 109}, {"time": 203520, "pitch": 42, "duration": 20, "velocity": 100}, {"time": 203640, "pitch": 47, "duration": 10, "velocity": 93}, {"time": 203760, "pitch": 35, "duration": 10, "velocity": 114}, {"time": 203760, "pitch": 42, "duration": 20, "velocity": 90}, {"time": 203760, "pitch": 52, "duration": 30, "velocity": 121}, {"time": 204000, "pitch": 42, "duration": 10, "velocity": 86}, {"time": 204240, "pitch": 35, "duration": 10, "velocity": 114}, {"time": 204240, "pitch": 42, "duration": 20, "velocity": 86}, {"time": 204480, "pitch": 40, "duration": 10, "velocity": 109}, {"time": 204480, "pitch": 42, "duration": 20, "velocity": 103}, {"time": 204720, "pitch": 42, "duration": 10, "velocity": 86}, {"time": 204840, "pitch": 40, "duration": 10, "velocity": 40}, {"time": 204960, "pitch": 35, "duration": 10, "velocity": 112}, {"time": 204960, "pitch": 42, "duration": 20, "velocity": 86}, {"time": 205080, "pitch": 40, "duration": 10, "velocity": 55}, {"time": 205200, "pitch": 35, "duration": 10, "velocity": 110}, {"time": 205200, "pitch": 42, "duration": 20, "velocity": 86}, {"time": 205440, "pitch": 40, "duration": 10, "velocity": 109}, {"time": 205440, "pitch": 42, "duration": 20, "velocity": 103}, {"time": 205680, "pitch": 35, "duration": 10, "velocity": 110}, {"time": 205680, "pitch": 42, "duration": 20, "velocity": 98}, {"time": 205800, "pitch": 40, "duration": 10, "velocity": 55}, {"time": 205920, "pitch": 42, "duration": 10, "velocity": 86}, {"time": 206160, "pitch": 35, "duration": 10, "velocity": 107}, {"time": 206160, "pitch": 42, "duration": 20, "velocity": 78}, {"time": 206400, "pitch": 40, "duration": 10, "velocity": 109}, {"time": 206400, "pitch": 42, "duration": 20, "velocity": 92}, {"time": 206640, "pitch": 35, "duration": 10, "velocity": 103}, {"time": 206640, "pitch": 42, "duration": 20, "velocity": 86}, {"time": 206760, "pitch": 40, "duration": 10, "velocity": 40}, {"time": 206880, "pitch": 35, "duration": 10, "velocity": 114}, {"time": 206880, "pitch": 42, "duration": 20, "velocity": 95}, {"time": 207000, "pitch": 40, "duration": 10, "velocity": 55}, {"time": 207120, "pitch": 42, "duration": 10, "velocity": 82}, {"time": 207360, "pitch": 40, "duration": 10, "velocity": 109}, {"time": 207360, "pitch": 42, "duration": 20, "velocity": 100}, {"time": 207600, "pitch": 42, "duration": 10, "velocity": 90}, {"time": 207720, "pitch": 40, "duration": 10, "velocity": 55}, {"time": 207840, "pitch": 35, "duration": 10, "velocity": 114}, {"time": 207840, "pitch": 42, "duration": 20, "velocity": 86}, {"time": 207840, "pitch": 57, "duration": 30, "velocity": 110}, {"time": 208080, "pitch": 42, "duration": 10, "velocity": 86}, {"time": 208320, "pitch": 40, "duration": 10, "velocity": 109}, {"time": 208320, "pitch": 42, "duration": 20, "velocity": 103}, {"time": 208560, "pitch": 42, "duration": 10, "velocity": 86}, {"time": 208680, "pitch": 40, "duration": 10, "velocity": 40}, {"time": 208800, "pitch": 35, "duration": 10, "velocity": 112}, {"time": 208800, "pitch": 42, "duration": 20, "velocity": 86}, {"time": 208920, "pitch": 40, "duration": 10, "velocity": 55}, {"time": 209040, "pitch": 35, "duration": 10, "velocity": 110}, {"time": 209040, "pitch": 42, "duration": 20, "velocity": 86}, {"time": 209280, "pitch": 40, "duration": 10, "velocity": 109}, {"time": 209280, "pitch": 42, "duration": 20, "velocity": 103}, {"time": 209520, "pitch": 35, "duration": 10, "velocity": 110}, {"time": 209520, "pitch": 46, "duration": 20, "velocity": 108}, {"time": 209640, "pitch": 40, "duration": 10, "velocity": 55}, {"time": 209760, "pitch": 42, "duration": 10, "velocity": 86}, {"time": 210000, "pitch": 35, "duration": 10, "velocity": 107}, {"time": 210000, "pitch": 42, "duration": 20, "velocity": 78}, {"time": 210240, "pitch": 40, "duration": 10, "velocity": 109}, {"time": 210240, "pitch": 42, "duration": 20, "velocity": 92}, {"time": 210480, "pitch": 35, "duration": 10, "velocity": 103}, {"time": 210480, "pitch": 42, "duration": 20, "velocity": 86}, {"time": 210600, "pitch": 40, "duration": 10, "velocity": 40}, {"time": 210720, "pitch": 35, "duration": 10, "velocity": 114}, {"time": 210720, "pitch": 42, "duration": 20, "velocity": 95}, {"time": 210840, "pitch": 40, "duration": 10, "velocity": 55}, {"time": 210960, "pitch": 42, "duration": 10, "velocity": 82}, {"time": 211200, "pitch": 40, "duration": 10, "velocity": 109}, {"time": 211200, "pitch": 42, "duration": 20, "velocity": 100}, {"time": 211440, "pitch": 42, "duration": 10, "velocity": 90}, {"time": 211560, "pitch": 40, "duration": 10, "velocity": 55}, {"time": 211680, "pitch": 35, "duration": 10, "velocity": 114}, {"time": 211680, "pitch": 42, "duration": 20, "velocity": 86}, {"time": 211680, "pitch": 49, "duration": 30, "velocity": 121}, {"time": 211920, "pitch": 42, "duration": 10, "velocity": 86}, {"time": 212160, "pitch": 40, "duration": 10, "velocity": 109}, {"time": 212160, "pitch": 42, "duration": 20, "velocity": 103}, {"time": 212400, "pitch": 42, "duration": 10, "velocity": 86}, {"time": 212520, "pitch": 40, "duration": 10, "velocity": 40}, {"time": 212640, "pitch": 35, "duration": 10, "velocity": 112}, {"time": 212640, "pitch": 42, "duration": 20, "velocity": 86}, {"time": 212760, "pitch": 40, "duration": 10, "velocity": 55}, {"time": 212880, "pitch": 35, "duration": 10, "velocity": 110}, {"time": 212880, "pitch": 42, "duration": 20, "velocity": 86}, {"time": 213120, "pitch": 40, "duration": 10, "velocity": 109}, {"time": 213120, "pitch": 42, "duration": 20, "velocity": 103}, {"time": 213360, "pitch": 35, "duration": 10, "velocity": 110}, {"time": 213360, "pitch": 46, "duration": 20, "velocity": 108}, {"time": 213480, "pitch": 40, "duration": 10, "velocity": 55}, {"time": 213600, "pitch": 42, "duration": 10, "velocity": 86}, {"time": 213840, "pitch": 35, "duration": 10, "velocity": 107}, {"time": 213840, "pitch": 42, "duration": 20, "velocity": 78}, {"time": 214080, "pitch": 40, "duration": 10, "velocity": 109}, {"time": 214080, "pitch": 42, "duration": 20, "velocity": 92}, {"time": 214320, "pitch": 35, "duration": 10, "velocity": 103}, {"time": 214320, "pitch": 42, "duration": 20, "velocity": 86}, {"time": 214440, "pitch": 40, "duration": 10, "velocity": 40}, {"time": 214560, "pitch": 35, "duration": 10, "velocity": 114}, {"time": 214560, "pitch": 42, "duration": 20, "velocity": 95}, {"time": 214680, "pitch": 40, "duration": 10, "velocity": 55}, {"time": 214800, "pitch": 35, "duration": 10, "velocity": 114}, {"time": 214800, "pitch": 42, "duration": 20, "velocity": 82}, {"time": 215040, "pitch": 40, "duration": 10, "velocity": 109}, {"time": 215040, "pitch": 42, "duration": 20, "velocity": 100}, {"time": 215280, "pitch": 42, "duration": 10, "velocity": 90}, {"time": 215400, "pitch": 40, "duration": 10, "velocity": 55}, {"time": 215520, "pitch": 35, "duration": 10, "velocity": 114}, {"time": 215520, "pitch": 42, "duration": 20, "velocity": 86}, {"time": 215760, "pitch": 42, "duration": 10, "velocity": 86}, {"time": 216000, "pitch": 40, "duration": 10, "velocity": 109}, {"time": 216000, "pitch": 42, "duration": 20, "velocity": 103}, {"time": 216240, "pitch": 42, "duration": 10, "velocity": 86}, {"time": 216360, "pitch": 40, "duration": 10, "velocity": 40}, {"time": 216480, "pitch": 35, "duration": 10, "velocity": 112}, {"time": 216480, "pitch": 42, "duration": 20, "velocity": 86}, {"time": 216600, "pitch": 40, "duration": 10, "velocity": 55}, {"time": 216720, "pitch": 35, "duration": 10, "velocity": 110}, {"time": 216720, "pitch": 46, "duration": 20, "velocity": 96}, {"time": 216960, "pitch": 40, "duration": 10, "velocity": 109}, {"time": 216960, "pitch": 42, "duration": 20, "velocity": 103}, {"time": 217200, "pitch": 35, "duration": 10, "velocity": 110}, {"time": 217200, "pitch": 44, "duration": 20, "velocity": 108}, {"time": 217200, "pitch": 57, "duration": 30, "velocity": 110}, {"time": 217320, "pitch": 40, "duration": 10, "velocity": 55}, {"time": 217440, "pitch": 42, "duration": 10, "velocity": 86}, {"time": 217680, "pitch": 35, "duration": 10, "velocity": 107}, {"time": 217680, "pitch": 42, "duration": 20, "velocity": 78}, {"time": 217920, "pitch": 40, "duration": 10, "velocity": 109}, {"time": 217920, "pitch": 42, "duration": 20, "velocity": 92}, {"time": 218160, "pitch": 35, "duration": 10, "velocity": 103}, {"time": 218160, "pitch": 42, "duration": 20, "velocity": 86}, {"time": 218280, "pitch": 40, "duration": 10, "velocity": 40}, {"time": 218400, "pitch": 35, "duration": 10, "velocity": 114}, {"time": 218400, "pitch": 42, "duration": 20, "velocity": 95}, {"time": 218520, "pitch": 40, "duration": 10, "velocity": 55}, {"time": 218640, "pitch": 42, "duration": 10, "velocity": 82}, {"time": 218880, "pitch": 40, "duration": 10, "velocity": 109}, {"time": 218880, "pitch": 42, "duration": 20, "velocity": 100}, {"time": 219120, "pitch": 42, "duration": 10, "velocity": 90}, {"time": 219240, "pitch": 40, "duration": 10, "velocity": 55}, {"time": 219360, "pitch": 35, "duration": 10, "velocity": 114}, {"time": 219360, "pitch": 42, "duration": 20, "velocity": 86}, {"time": 219600, "pitch": 42, "duration": 10, "velocity": 86}, {"time": 219840, "pitch": 40, "duration": 10, "velocity": 109}, {"time": 219840, "pitch": 42, "duration": 20, "velocity": 103}, {"time": 220080, "pitch": 42, "duration": 10, "velocity": 86}, {"time": 220320, "pitch": 35, "duration": 20, "velocity": 112}, {"time": 220320, "pitch": 40, "duration": 10, "velocity": 107}, {"time": 220320, "pitch": 46, "duration": 30, "velocity": 96}, {"time": 220440, "pitch": 40, "duration": 10, "velocity": 107}, {"time": 220560, "pitch": 40, "duration": 10, "velocity": 108}, {"time": 220560, "pitch": 42, "duration": 20, "velocity": 86}, {"time": 220680, "pitch": 40, "duration": 10, "velocity": 108}, {"time": 220800, "pitch": 35, "duration": 20, "velocity": 114}, {"time": 220800, "pitch": 40, "duration": 10, "velocity": 109}, {"time": 220800, "pitch": 46, "duration": 30, "velocity": 113}, {"time": 220920, "pitch": 40, "duration": 10, "velocity": 109}, {"time": 221040, "pitch": 40, "duration": 10, "velocity": 109}, {"time": 221040, "pitch": 42, "duration": 20, "velocity": 98}, {"time": 221160, "pitch": 40, "duration": 10, "velocity": 109}, {"time": 221280, "pitch": 35, "duration": 10, "velocity": 114}, {"time": 221280, "pitch": 42, "duration": 20, "velocity": 86}, {"time": 221280, "pitch": 52, "duration": 30, "velocity": 121}, {"time": 221520, "pitch": 42, "duration": 10, "velocity": 86}, {"time": 221760, "pitch": 40, "duration": 10, "velocity": 109}, {"time": 221760, "pitch": 42, "duration": 20, "velocity": 103}, {"time": 222000, "pitch": 35, "duration": 10, "velocity": 112}, {"time": 222000, "pitch": 42, "duration": 20, "velocity": 86}, {"time": 222120, "pitch": 40, "duration": 10, "velocity": 45}, {"time": 222240, "pitch": 35, "duration": 10, "velocity": 110}, {"time": 222240, "pitch": 42, "duration": 20, "velocity": 86}, {"time": 222360, "pitch": 40, "duration": 10, "velocity": 65}, {"time": 222480, "pitch": 42, "duration": 10, "velocity": 86}, {"time": 222720, "pitch": 40, "duration": 10, "velocity": 109}, {"time": 222720, "pitch": 42, "duration": 20, "velocity": 103}, {"time": 222960, "pitch": 35, "duration": 10, "velocity": 110}, {"time": 222960, "pitch": 42, "duration": 20, "velocity": 98}, {"time": 223080, "pitch": 40, "duration": 10, "velocity": 47}, {"time": 223200, "pitch": 42, "duration": 10, "velocity": 86}, {"time": 223440, "pitch": 35, "duration": 10, "velocity": 107}, {"time": 223440, "pitch": 42, "duration": 20, "velocity": 78}, {"time": 223680, "pitch": 40, "duration": 10, "velocity": 109}, {"time": 223680, "pitch": 42, "duration": 20, "velocity": 92}, {"time": 223920, "pitch": 35, "duration": 10, "velocity": 103}, {"time": 223920, "pitch": 42, "duration": 20, "velocity": 86}, {"time": 224040, "pitch": 40, "duration": 10, "velocity": 45}, {"time": 224160, "pitch": 35, "duration": 10, "velocity": 114}, {"time": 224160, "pitch": 42, "duration": 20, "velocity": 95}, {"time": 224280, "pitch": 40, "duration": 10, "velocity": 65}, {"time": 224400, "pitch": 42, "duration": 10, "velocity": 82}, {"time": 224640, "pitch": 40, "duration": 10, "velocity": 109}, {"time": 224640, "pitch": 42, "duration": 20, "velocity": 100}, {"time": 224880, "pitch": 35, "duration": 10, "velocity": 114}, {"time": 224880, "pitch": 46, "duration": 20, "velocity": 100}, {"time": 225000, "pitch": 40, "duration": 10, "velocity": 47}, {"time": 225120, "pitch": 35, "duration": 10, "velocity": 114}, {"time": 225120, "pitch": 42, "duration": 20, "velocity": 86}, {"time": 225360, "pitch": 42, "duration": 10, "velocity": 86}, {"time": 225600, "pitch": 40, "duration": 10, "velocity": 109}, {"time": 225600, "pitch": 42, "duration": 20, "velocity": 103}, {"time": 225840, "pitch": 35, "duration": 10, "velocity": 112}, {"time": 225840, "pitch": 42, "duration": 20, "velocity": 86}, {"time": 225960, "pitch": 40, "duration": 10, "velocity": 45}, {"time": 226080, "pitch": 35, "duration": 10, "velocity": 110}, {"time": 226080, "pitch": 42, "duration": 20, "velocity": 86}, {"time": 226200, "pitch": 40, "duration": 10, "velocity": 65}, {"time": 226320, "pitch": 42, "duration": 10, "velocity": 86}, {"time": 226560, "pitch": 40, "duration": 10, "velocity": 109}, {"time": 226560, "pitch": 42, "duration": 20, "velocity": 103}, {"time": 226800, "pitch": 35, "duration": 10, "velocity": 110}, {"time": 226800, "pitch": 42, "duration": 20, "velocity": 98}, {"time": 226920, "pitch": 40, "duration": 10, "velocity": 47}, {"time": 227040, "pitch": 42, "duration": 10, "velocity": 86}, {"time": 227280, "pitch": 35, "duration": 10, "velocity": 107}, {"time": 227280, "pitch": 42, "duration": 20, "velocity": 78}, {"time": 227520, "pitch": 40, "duration": 10, "velocity": 109}, {"time": 227520, "pitch": 42, "duration": 20, "velocity": 92}, {"time": 227760, "pitch": 35, "duration": 10, "velocity": 103}, {"time": 227760, "pitch": 42, "duration": 20, "velocity": 86}, {"time": 227880, "pitch": 40, "duration": 10, "velocity": 45}, {"time": 228000, "pitch": 35, "duration": 10, "velocity": 114}, {"time": 228000, "pitch": 42, "duration": 20, "velocity": 95}, {"time": 228120, "pitch": 40, "duration": 10, "velocity": 65}, {"time": 228240, "pitch": 42, "duration": 10, "velocity": 82}, {"time": 228480, "pitch": 40, "duration": 10, "velocity": 109}, {"time": 228480, "pitch": 42, "duration": 20, "velocity": 100}, {"time": 228720, "pitch": 35, "duration": 10, "velocity": 114}, {"time": 228720, "pitch": 46, "duration": 20, "velocity": 100}, {"time": 228840, "pitch": 40, "duration": 10, "velocity": 47}, {"time": 228960, "pitch": 35, "duration": 10, "velocity": 114}, {"time": 228960, "pitch": 42, "duration": 20, "velocity": 86}, {"time": 228960, "pitch": 52, "duration": 30, "velocity": 121}, {"time": 229200, "pitch": 42, "duration": 10, "velocity": 86}, {"time": 229440, "pitch": 40, "duration": 10, "velocity": 109}, {"time": 229440, "pitch": 42, "duration": 20, "velocity": 103}, {"time": 229680, "pitch": 35, "duration": 10, "velocity": 112}, {"time": 229680, "pitch": 42, "duration": 20, "velocity": 86}, {"time": 229800, "pitch": 40, "duration": 10, "velocity": 45}, {"time": 229920, "pitch": 35, "duration": 10, "velocity": 110}, {"time": 229920, "pitch": 42, "duration": 20, "velocity": 86}, {"time": 230040, "pitch": 40, "duration": 10, "velocity": 65}, {"time": 230160, "pitch": 42, "duration": 10, "velocity": 86}, {"time": 230400, "pitch": 40, "duration": 10, "velocity": 109}, {"time": 230400, "pitch": 42, "duration": 20, "velocity": 103}, {"time": 230640, "pitch": 35, "duration": 10, "velocity": 110}, {"time": 230640, "pitch": 42, "duration": 20, "velocity": 98}, {"time": 230760, "pitch": 40, "duration": 10, "velocity": 47}, {"time": 230880, "pitch": 42, "duration": 10, "velocity": 86}, {"time": 231120, "pitch": 35, "duration": 10, "velocity": 107}, {"time": 231120, "pitch": 42, "duration": 20, "velocity": 78}, {"time": 231360, "pitch": 40, "duration": 10, "velocity": 109}, {"time": 231360, "pitch": 42, "duration": 20, "velocity": 92}, {"time": 231600, "pitch": 35, "duration": 10, "velocity": 103}, {"time": 231600, "pitch": 42, "duration": 20, "velocity": 86}, {"time": 231720, "pitch": 40, "duration": 10, "velocity": 45}, {"time": 231840, "pitch": 35, "duration": 10, "velocity": 114}, {"time": 231840, "pitch": 42, "duration": 20, "velocity": 95}, {"time": 231960, "pitch": 40, "duration": 10, "velocity": 65}, {"time": 232080, "pitch": 42, "duration": 10, "velocity": 82}, {"time": 232320, "pitch": 40, "duration": 10, "velocity": 109}, {"time": 232320, "pitch": 42, "duration": 20, "velocity": 100}, {"time": 232560, "pitch": 35, "duration": 10, "velocity": 114}, {"time": 232560, "pitch": 46, "duration": 20, "velocity": 100}, {"time": 232680, "pitch": 40, "duration": 10, "velocity": 47}, {"time": 232800, "pitch": 35, "duration": 10, "velocity": 114}, {"time": 232800, "pitch": 42, "duration": 20, "velocity": 86}, {"time": 233040, "pitch": 42, "duration": 10, "velocity": 86}, {"time": 233280, "pitch": 40, "duration": 10, "velocity": 109}, {"time": 233280, "pitch": 42, "duration": 20, "velocity": 103}, {"time": 233520, "pitch": 35, "duration": 10, "velocity": 112}, {"time": 233520, "pitch": 42, "duration": 20, "velocity": 86}, {"time": 233640, "pitch": 40, "duration": 10, "velocity": 45}, {"time": 233760, "pitch": 35, "duration": 10, "velocity": 110}, {"time": 233760, "pitch": 42, "duration": 20, "velocity": 86}, {"time": 233880, "pitch": 40, "duration": 10, "velocity": 65}, {"time": 234000, "pitch": 42, "duration": 10, "velocity": 86}, {"time": 234240, "pitch": 40, "duration": 10, "velocity": 109}, {"time": 234240, "pitch": 42, "duration": 20, "velocity": 103}, {"time": 234480, "pitch": 35, "duration": 10, "velocity": 110}, {"time": 234480, "pitch": 42, "duration": 20, "velocity": 98}, {"time": 234600, "pitch": 40, "duration": 10, "velocity": 47}, {"time": 234720, "pitch": 42, "duration": 10, "velocity": 86}, {"time": 234960, "pitch": 35, "duration": 10, "velocity": 107}, {"time": 234960, "pitch": 42, "duration": 20, "velocity": 78}, {"time": 235200, "pitch": 40, "duration": 10, "velocity": 109}, {"time": 235200, "pitch": 42, "duration": 20, "velocity": 92}, {"time": 235440, "pitch": 35, "duration": 10, "velocity": 103}, {"time": 235440, "pitch": 42, "duration": 20, "velocity": 86}, {"time": 235560, "pitch": 40, "duration": 10, "velocity": 45}, {"time": 235680, "pitch": 35, "duration": 10, "velocity": 114}, {"time": 235680, "pitch": 42, "duration": 20, "velocity": 95}, {"time": 235800, "pitch": 40, "duration": 10, "velocity": 114}, {"time": 235920, "pitch": 35, "duration": 10, "velocity": 114}, {"time": 235920, "pitch": 46, "duration": 20, "velocity": 92}, {"time": 236160, "pitch": 40, "duration": 10, "velocity": 108}, {"time": 236160, "pitch": 42, "duration": 20, "velocity": 100}, {"time": 236280, "pitch": 35, "duration": 10, "velocity": 114}, {"time": 236280, "pitch": 46, "duration": 20, "velocity": 100}, {"time": 236400, "pitch": 42, "duration": 10, "velocity": 100}, {"time": 236520, "pitch": 40, "duration": 10, "velocity": 88}, {"time": 236640, "pitch": 35, "duration": 10, "velocity": 114}, {"time": 236640, "pitch": 42, "duration": 20, "velocity": 86}, {"time": 236640, "pitch": 52, "duration": 30, "velocity": 121}, {"time": 236880, "pitch": 42, "duration": 10, "velocity": 86}, {"time": 237120, "pitch": 40, "duration": 10, "velocity": 109}, {"time": 237120, "pitch": 42, "duration": 20, "velocity": 103}, {"time": 237360, "pitch": 35, "duration": 10, "velocity": 112}, {"time": 237360, "pitch": 42, "duration": 20, "velocity": 86}, {"time": 237480, "pitch": 40, "duration": 10, "velocity": 45}, {"time": 237600, "pitch": 35, "duration": 10, "velocity": 110}, {"time": 237600, "pitch": 42, "duration": 20, "velocity": 86}, {"time": 237720, "pitch": 40, "duration": 10, "velocity": 65}, {"time": 237840, "pitch": 42, "duration": 10, "velocity": 86}, {"time": 238080, "pitch": 40, "duration": 10, "velocity": 109}, {"time": 238080, "pitch": 42, "duration": 20, "velocity": 103}, {"time": 238320, "pitch": 35, "duration": 10, "velocity": 110}, {"time": 238320, "pitch": 42, "duration": 20, "velocity": 98}, {"time": 238440, "pitch": 40, "duration": 10, "velocity": 47}, {"time": 238560, "pitch": 42, "duration": 10, "velocity": 86}, {"time": 238800, "pitch": 35, "duration": 10, "velocity": 107}, {"time": 238800, "pitch": 42, "duration": 20, "velocity": 78}, {"time": 239040, "pitch": 40, "duration": 10, "velocity": 109}, {"time": 239040, "pitch": 42, "duration": 20, "velocity": 92}, {"time": 239280, "pitch": 35, "duration": 10, "velocity": 103}, {"time": 239280, "pitch": 42, "duration": 20, "velocity": 86}, {"time": 239400, "pitch": 40, "duration": 10, "velocity": 45}, {"time": 239520, "pitch": 35, "duration": 10, "velocity": 114}, {"time": 239520, "pitch": 42, "duration": 20, "velocity": 95}, {"time": 239640, "pitch": 40, "duration": 10, "velocity": 65}, {"time": 239760, "pitch": 42, "duration": 10, "velocity": 82}, {"time": 240000, "pitch": 40, "duration": 10, "velocity": 109}, {"time": 240000, "pitch": 42, "duration": 20, "velocity": 100}, {"time": 240240, "pitch": 35, "duration": 10, "velocity": 114}, {"time": 240240, "pitch": 46, "duration": 20, "velocity": 100}, {"time": 240360, "pitch": 40, "duration": 10, "velocity": 47}, {"time": 240480, "pitch": 35, "duration": 10, "velocity": 114}, {"time": 240480, "pitch": 42, "duration": 20, "velocity": 86}, {"time": 240720, "pitch": 42, "duration": 10, "velocity": 86}, {"time": 240960, "pitch": 40, "duration": 10, "velocity": 109}, {"time": 240960, "pitch": 42, "duration": 20, "velocity": 103}, {"time": 241200, "pitch": 35, "duration": 10, "velocity": 112}, {"time": 241200, "pitch": 42, "duration": 20, "velocity": 86}, {"time": 241320, "pitch": 40, "duration": 10, "velocity": 45}, {"time": 241440, "pitch": 35, "duration": 10, "velocity": 110}, {"time": 241440, "pitch": 42, "duration": 20, "velocity": 86}, {"time": 241560, "pitch": 40, "duration": 10, "velocity": 65}, {"time": 241680, "pitch": 42, "duration": 10, "velocity": 86}, {"time": 241920, "pitch": 40, "duration": 10, "velocity": 109}, {"time": 241920, "pitch": 42, "duration": 20, "velocity": 103}, {"time": 242160, "pitch": 35, "duration": 10, "velocity": 110}, {"time": 242160, "pitch": 42, "duration": 20, "velocity": 98}, {"time": 242280, "pitch": 40, "duration": 10, "velocity": 47}, {"time": 242400, "pitch": 42, "duration": 10, "velocity": 86}, {"time": 242640, "pitch": 35, "duration": 10, "velocity": 107}, {"time": 242640, "pitch": 42, "duration": 20, "velocity": 78}, {"time": 242880, "pitch": 40, "duration": 10, "velocity": 109}, {"time": 242880, "pitch": 42, "duration": 20, "velocity": 92}, {"time": 243120, "pitch": 35, "duration": 10, "velocity": 103}, {"time": 243120, "pitch": 42, "duration": 20, "velocity": 86}, {"time": 243240, "pitch": 40, "duration": 10, "velocity": 45}, {"time": 243360, "pitch": 35, "duration": 10, "velocity": 114}, {"time": 243360, "pitch": 42, "duration": 20, "velocity": 95}, {"time": 243480, "pitch": 40, "duration": 10, "velocity": 65}, {"time": 243600, "pitch": 42, "duration": 10, "velocity": 82}, {"time": 243840, "pitch": 40, "duration": 10, "velocity": 109}, {"time": 243840, "pitch": 42, "duration": 20, "velocity": 100}, {"time": 244080, "pitch": 35, "duration": 10, "velocity": 114}, {"time": 244080, "pitch": 46, "duration": 20, "velocity": 100}, {"time": 244200, "pitch": 40, "duration": 10, "velocity": 47}, {"time": 244320, "pitch": 35, "duration": 10, "velocity": 114}, {"time": 244320, "pitch": 42, "duration": 20, "velocity": 86}, {"time": 244320, "pitch": 52, "duration": 30, "velocity": 121}, {"time": 244560, "pitch": 42, "duration": 10, "velocity": 86}, {"time": 244800, "pitch": 40, "duration": 10, "velocity": 109}, {"time": 244800, "pitch": 42, "duration": 20, "velocity": 103}, {"time": 245040, "pitch": 35, "duration": 10, "velocity": 112}, {"time": 245040, "pitch": 42, "duration": 20, "velocity": 86}, {"time": 245160, "pitch": 40, "duration": 10, "velocity": 45}, {"time": 245280, "pitch": 35, "duration": 10, "velocity": 110}, {"time": 245280, "pitch": 42, "duration": 20, "velocity": 86}, {"time": 245400, "pitch": 40, "duration": 10, "velocity": 65}, {"time": 245520, "pitch": 42, "duration": 10, "velocity": 86}, {"time": 245760, "pitch": 40, "duration": 10, "velocity": 109}, {"time": 245760, "pitch": 42, "duration": 20, "velocity": 103}, {"time": 246000, "pitch": 35, "duration": 10, "velocity": 110}, {"time": 246000, "pitch": 42, "duration": 20, "velocity": 98}, {"time": 246120, "pitch": 40, "duration": 10, "velocity": 47}, {"time": 246240, "pitch": 42, "duration": 10, "velocity": 86}, {"time": 246480, "pitch": 35, "duration": 10, "velocity": 107}, {"time": 246480, "pitch": 42, "duration": 20, "velocity": 78}, {"time": 246720, "pitch": 40, "duration": 10, "velocity": 109}, {"time": 246720, "pitch": 42, "duration": 20, "velocity": 92}, {"time": 246960, "pitch": 35, "duration": 10, "velocity": 103}, {"time": 246960, "pitch": 42, "duration": 20, "velocity": 86}, {"time": 247080, "pitch": 40, "duration": 10, "velocity": 45}, {"time": 247200, "pitch": 35, "duration": 10, "velocity": 114}, {"time": 247200, "pitch": 42, "duration": 20, "velocity": 95}, {"time": 247320, "pitch": 40, "duration": 10, "velocity": 65}, {"time": 247440, "pitch": 42, "duration": 10, "velocity": 82}, {"time": 247680, "pitch": 40, "duration": 10, "velocity": 109}, {"time": 247680, "pitch": 42, "duration": 20, "velocity": 100}, {"time": 247920, "pitch": 35, "duration": 10, "velocity": 114}, {"time": 247920, "pitch": 46, "duration": 20, "velocity": 100}, {"time": 248040, "pitch": 40, "duration": 10, "velocity": 47}, {"time": 248160, "pitch": 35, "duration": 10, "velocity": 114}, {"time": 248160, "pitch": 42, "duration": 20, "velocity": 86}, {"time": 248400, "pitch": 42, "duration": 10, "velocity": 86}, {"time": 248640, "pitch": 40, "duration": 10, "velocity": 109}, {"time": 248640, "pitch": 42, "duration": 20, "velocity": 103}, {"time": 248880, "pitch": 35, "duration": 10, "velocity": 112}, {"time": 248880, "pitch": 42, "duration": 20, "velocity": 86}, {"time": 249000, "pitch": 40, "duration": 10, "velocity": 45}, {"time": 249120, "pitch": 35, "duration": 10, "velocity": 110}, {"time": 249120, "pitch": 42, "duration": 20, "velocity": 86}, {"time": 249240, "pitch": 40, "duration": 10, "velocity": 65}, {"time": 249360, "pitch": 42, "duration": 10, "velocity": 86}, {"time": 249600, "pitch": 40, "duration": 10, "velocity": 109}, {"time": 249600, "pitch": 42, "duration": 20, "velocity": 103}, {"time": 249840, "pitch": 35, "duration": 10, "velocity": 110}, {"time": 249840, "pitch": 42, "duration": 20, "velocity": 98}, {"time": 249960, "pitch": 40, "duration": 10, "velocity": 47}, {"time": 250080, "pitch": 42, "duration": 10, "velocity": 86}, {"time": 250320, "pitch": 35, "duration": 10, "velocity": 107}, {"time": 250320, "pitch": 42, "duration": 20, "velocity": 78}, {"time": 250560, "pitch": 40, "duration": 10, "velocity": 109}, {"time": 250560, "pitch": 42, "duration": 20, "velocity": 92}, {"time": 250800, "pitch": 35, "duration": 10, "velocity": 103}, {"time": 250800, "pitch": 42, "duration": 20, "velocity": 86}, {"time": 250920, "pitch": 40, "duration": 10, "velocity": 45}, {"time": 251040, "pitch": 35, "duration": 10, "velocity": 114}, {"time": 251040, "pitch": 42, "duration": 20, "velocity": 95}, {"time": 251160, "pitch": 40, "duration": 10, "velocity": 114}, {"time": 251280, "pitch": 35, "duration": 10, "velocity": 114}, {"time": 251280, "pitch": 46, "duration": 20, "velocity": 92}, {"time": 251520, "pitch": 40, "duration": 10, "velocity": 108}, {"time": 251520, "pitch": 42, "duration": 20, "velocity": 100}, {"time": 251640, "pitch": 35, "duration": 10, "velocity": 114}, {"time": 251640, "pitch": 46, "duration": 20, "velocity": 100}, {"time": 251760, "pitch": 42, "duration": 10, "velocity": 100}], "annotations": [{"time": 292, "annotation": {"number": 7, "value": 120}, "group": "control_change"}, {"time": 313, "annotation": {"number": 11, "value": 110}, "group": "control_change"}, {"time": 334, "annotation": {"number": 91, "value": 25}, "group": "control_change"}, {"time": 355, "annotation": {"number": 101, "value": 127}, "group": "control_change"}, {"time": 376, "annotation": {"number": 100, "value": 127}, "group": "control_change"}, {"time": 236880, "annotation": {"number": 11, "value": 109}, "group": "control_change"}, {"time": 237120, "annotation": {"number": 11, "value": 107}, "group": "control_change"}, {"time": 237360, "annotation": {"number": 11, "value": 105}, "group": "control_change"}, {"time": 237600, "annotation": {"number": 11, "value": 104}, "group": "control_change"}, {"time": 237840, "annotation": {"number": 11, "value": 102}, "group": "control_change"}, {"time": 238080, "annotation": {"number": 11, "value": 100}, "group": "control_change"}, {"time": 238320, "annotation": {"number": 11, "value": 98}, "group": "control_change"}, {"time": 238560, "annotation": {"number": 11, "value": 97}, "group": "control_change"}, {"time": 238800, "annotation": {"number": 11, "value": 95}, "group": "control_change"}, {"time": 239040, "annotation": {"number": 11, "value": 93}, "group": "control_change"}, {"time": 239280, "annotation": {"number": 11, "value": 92}, "group": "control_change"}, {"time": 239520, "annotation": {"number": 11, "value": 90}, "group": "control_change"}, {"time": 239760, "annotation": {"number": 11, "value": 88}, "group": "control_change"}, {"time": 240000, "annotation": {"number": 11, "value": 86}, "group": "control_change"}, {"time": 240240, "annotation": {"number": 11, "value": 85}, "group": "control_change"}, {"time": 240480, "annotation": {"number": 11, "value": 83}, "group": "control_change"}, {"time": 240720, "annotation": {"number": 11, "value": 81}, "group": "control_change"}, {"time": 240960, "annotation": {"number": 11, "value": 80}, "group": "control_change"}, {"time": 241200, "annotation": {"number": 11, "value": 78}, "group": "control_change"}, {"time": 241440, "annotation": {"number": 11, "value": 76}, "group": "control_change"}, {"time": 241680, "annotation": {"number": 11, "value": 74}, "group": "control_change"}, {"time": 241920, "annotation": {"number": 11, "value": 73}, "group": "control_change"}, {"time": 242160, "annotation": {"number": 11, "value": 71}, "group": "control_change"}, {"time": 242400, "annotation": {"number": 11, "value": 69}, "group": "control_change"}, {"time": 242640, "annotation": {"number": 11, "value": 68}, "group": "control_change"}, {"time": 242880, "annotation": {"number": 11, "value": 66}, "group": "control_change"}, {"time": 243120, "annotation": {"number": 11, "value": 64}, "group": "control_change"}, {"time": 243360, "annotation": {"number": 11, "value": 62}, "group": "control_change"}, {"time": 243600, "annotation": {"number": 11, "value": 61}, "group": "control_change"}, {"time": 243840, "annotation": {"number": 11, "value": 59}, "group": "control_change"}, {"time": 244080, "annotation": {"number": 11, "value": 57}, "group": "control_change"}, {"time": 244320, "annotation": {"number": 11, "value": 55}, "group": "control_change"}, {"time": 244560, "annotation": {"number": 11, "value": 54}, "group": "control_change"}, {"time": 244800, "annotation": {"number": 11, "value": 52}, "group": "control_change"}, {"time": 245040, "annotation": {"number": 11, "value": 50}, "group": "control_change"}, {"time": 245280, "annotation": {"number": 11, "value": 49}, "group": "control_change"}, {"time": 245520, "annotation": {"number": 11, "value": 47}, "group": "control_change"}, {"time": 245760, "annotation": {"number": 11, "value": 45}, "group": "control_change"}, {"time": 246000, "annotation": {"number": 11, "value": 43}, "group": "control_change"}, {"time": 246240, "annotation": {"number": 11, "value": 42}, "group": "control_change"}, {"time": 246480, "annotation": {"number": 11, "value": 40}, "group": "control_change"}, {"time": 246720, "annotation": {"number": 11, "value": 38}, "group": "control_change"}, {"time": 246960, "annotation": {"number": 11, "value": 37}, "group": "control_change"}, {"time": 247200, "annotation": {"number": 11, "value": 35}, "group": "control_change"}, {"time": 247440, "annotation": {"number": 11, "value": 33}, "group": "control_change"}, {"time": 247680, "annotation": {"number": 11, "value": 31}, "group": "control_change"}, {"time": 247920, "annotation": {"number": 11, "value": 30}, "group": "control_change"}, {"time": 248160, "annotation": {"number": 11, "value": 28}, "group": "control_change"}, {"time": 248400, "annotation": {"number": 11, "value": 26}, "group": "control_change"}, {"time": 248640, "annotation": {"number": 11, "value": 25}, "group": "control_change"}, {"time": 248880, "annotation": {"number": 11, "value": 23}, "group": "control_change"}, {"time": 249120, "annotation": {"number": 11, "value": 21}, "group": "control_change"}, {"time": 249360, "annotation": {"number": 11, "value": 19}, "group": "control_change"}, {"time": 249600, "annotation": {"number": 11, "value": 18}, "group": "control_change"}, {"time": 249840, "annotation": {"number": 11, "value": 16}, "group": "control_change"}, {"time": 250080, "annotation": {"number": 11, "value": 14}, "group": "control_change"}, {"time": 250320, "annotation": {"number": 11, "value": 12}, "group": "control_change"}, {"time": 250560, "annotation": {"number": 11, "value": 11}, "group": "control_change"}, {"time": 250800, "annotation": {"number": 11, "value": 9}, "group": "control_change"}, {"time": 251040, "annotation": {"number": 11, "value": 7}, "group": "control_change"}, {"time": 251280, "annotation": {"number": 11, "value": 6}, "group": "control_change"}, {"time": 251520, "annotation": {"number": 11, "value": 4}, "group": "control_change"}, {"time": 251760, "annotation": {"number": 11, "value": 2}, "group": "control_change"}]}, {"program": 0, "is_drum": false, "name": "DRUMS 2", "notes": [{"time": 480, "pitch": 32, "duration": 20, "velocity": 60}, {"time": 480, "pitch": 36, "duration": 10, "velocity": 90}, {"time": 720, "pitch": 42, "duration": 10, "velocity": 90}, {"time": 960, "pitch": 40, "duration": 10, "velocity": 110}, {"time": 1200, "pitch": 42, "duration": 10, "velocity": 100}, {"time": 1380, "pitch": 32, "duration": 10, "velocity": 10}, {"time": 1400, "pitch": 32, "duration": 10, "velocity": 30}, {"time": 1420, "pitch": 32, "duration": 10, "velocity": 60}, {"time": 1440, "pitch": 36, "duration": 10, "velocity": 90}, {"time": 1560, "pitch": 40, "duration": 10, "velocity": 110}, {"time": 1680, "pitch": 42, "duration": 10, "velocity": 90}, {"time": 1800, "pitch": 42, "duration": 10, "velocity": 80}, {"time": 1920, "pitch": 40, "duration": 10, "velocity": 110}, {"time": 2150, "pitch": 32, "duration": 10, "velocity": 40}, {"time": 2160, "pitch": 42, "duration": 10, "velocity": 100}, {"time": 2400, "pitch": 32, "duration": 20, "velocity": 60}, {"time": 2400, "pitch": 36, "duration": 10, "velocity": 90}, {"time": 2640, "pitch": 42, "duration": 10, "velocity": 90}, {"time": 2880, "pitch": 40, "duration": 10, "velocity": 110}, {"time": 3120, "pitch": 42, "duration": 10, "velocity": 100}, {"time": 3300, "pitch": 32, "duration": 10, "velocity": 10}, {"time": 3320, "pitch": 32, "duration": 10, "velocity": 30}, {"time": 3340, "pitch": 32, "duration": 10, "velocity": 60}, {"time": 3360, "pitch": 36, "duration": 10, "velocity": 90}, {"time": 3480, "pitch": 40, "duration": 10, "velocity": 110}, {"time": 3600, "pitch": 42, "duration": 10, "velocity": 90}, {"time": 3720, "pitch": 42, "duration": 10, "velocity": 80}, {"time": 3840, "pitch": 40, "duration": 10, "velocity": 110}, {"time": 4070, "pitch": 32, "duration": 10, "velocity": 40}, {"time": 4080, "pitch": 42, "duration": 10, "velocity": 100}, {"time": 4320, "pitch": 32, "duration": 20, "velocity": 60}, {"time": 4320, "pitch": 36, "duration": 10, "velocity": 90}, {"time": 4560, "pitch": 42, "duration": 10, "velocity": 90}, {"time": 4800, "pitch": 40, "duration": 10, "velocity": 110}, {"time": 5040, "pitch": 42, "duration": 10, "velocity": 100}, {"time": 5220, "pitch": 32, "duration": 10, "velocity": 10}, {"time": 5240, "pitch": 32, "duration": 10, "velocity": 30}, {"time": 5260, "pitch": 32, "duration": 10, "velocity": 60}, {"time": 5280, "pitch": 36, "duration": 10, "velocity": 90}, {"time": 5400, "pitch": 40, "duration": 10, "velocity": 110}, {"time": 5520, "pitch": 42, "duration": 10, "velocity": 90}, {"time": 5640, "pitch": 42, "duration": 10, "velocity": 80}, {"time": 5760, "pitch": 40, "duration": 10, "velocity": 110}, {"time": 5990, "pitch": 32, "duration": 10, "velocity": 40}, {"time": 6000, "pitch": 42, "duration": 10, "velocity": 100}, {"time": 6240, "pitch": 32, "duration": 20, "velocity": 60}, {"time": 6240, "pitch": 36, "duration": 10, "velocity": 90}, {"time": 6480, "pitch": 42, "duration": 10, "velocity": 90}, {"time": 6720, "pitch": 40, "duration": 10, "velocity": 110}, {"time": 6960, "pitch": 42, "duration": 10, "velocity": 100}, {"time": 7140, "pitch": 32, "duration": 10, "velocity": 10}, {"time": 7160, "pitch": 32, "duration": 10, "velocity": 30}, {"time": 7180, "pitch": 32, "duration": 10, "velocity": 60}, {"time": 7200, "pitch": 36, "duration": 10, "velocity": 90}, {"time": 7320, "pitch": 40, "duration": 10, "velocity": 110}, {"time": 7440, "pitch": 42, "duration": 10, "velocity": 90}, {"time": 7560, "pitch": 42, "duration": 10, "velocity": 80}, {"time": 7680, "pitch": 40, "duration": 10, "velocity": 110}, {"time": 7800, "pitch": 40, "duration": 10, "velocity": 105}, {"time": 7910, "pitch": 32, "duration": 10, "velocity": 40}, {"time": 7920, "pitch": 42, "duration": 10, "velocity": 100}, {"time": 8160, "pitch": 32, "duration": 20, "velocity": 60}, {"time": 8160, "pitch": 36, "duration": 10, "velocity": 90}, {"time": 8400, "pitch": 42, "duration": 10, "velocity": 90}, {"time": 8640, "pitch": 40, "duration": 10, "velocity": 110}, {"time": 8880, "pitch": 42, "duration": 10, "velocity": 100}, {"time": 9060, "pitch": 32, "duration": 10, "velocity": 10}, {"time": 9080, "pitch": 32, "duration": 10, "velocity": 30}, {"time": 9100, "pitch": 32, "duration": 10, "velocity": 60}, {"time": 9120, "pitch": 36, "duration": 10, "velocity": 90}, {"time": 9250, "pitch": 40, "duration": 10, "velocity": 110}, {"time": 9360, "pitch": 42, "duration": 10, "velocity": 90}, {"time": 9480, "pitch": 42, "duration": 10, "velocity": 80}, {"time": 9600, "pitch": 40, "duration": 10, "velocity": 110}, {"time": 9830, "pitch": 32, "duration": 10, "velocity": 40}, {"time": 9840, "pitch": 42, "duration": 10, "velocity": 100}, {"time": 10080, "pitch": 32, "duration": 20, "velocity": 60}, {"time": 10080, "pitch": 36, "duration": 10, "velocity": 90}, {"time": 10320, "pitch": 42, "duration": 10, "velocity": 90}, {"time": 10560, "pitch": 40, "duration": 10, "velocity": 110}, {"time": 10800, "pitch": 42, "duration": 10, "velocity": 100}, {"time": 10980, "pitch": 32, "duration": 10, "velocity": 10}, {"time": 11000, "pitch": 32, "duration": 10, "velocity": 30}, {"time": 11020, "pitch": 32, "duration": 10, "velocity": 60}, {"time": 11040, "pitch": 36, "duration": 10, "velocity": 90}, {"time": 11170, "pitch": 40, "duration": 10, "velocity": 110}, {"time": 11280, "pitch": 42, "duration": 10, "velocity": 90}, {"time": 11400, "pitch": 42, "duration": 10, "velocity": 80}, {"time": 11520, "pitch": 40, "duration": 10, "velocity": 110}, {"time": 11750, "pitch": 32, "duration": 10, "velocity": 40}, {"time": 11760, "pitch": 42, "duration": 10, "velocity": 100}, {"time": 12000, "pitch": 32, "duration": 20, "velocity": 60}, {"time": 12000, "pitch": 36, "duration": 10, "velocity": 90}, {"time": 12240, "pitch": 42, "duration": 10, "velocity": 90}, {"time": 12480, "pitch": 40, "duration": 10, "velocity": 110}, {"time": 12720, "pitch": 42, "duration": 10, "velocity": 100}, {"time": 12900, "pitch": 32, "duration": 10, "velocity": 10}, {"time": 12920, "pitch": 32, "duration": 10, "velocity": 30}, {"time": 12940, "pitch": 32, "duration": 10, "velocity": 60}, {"time": 12960, "pitch": 36, "duration": 10, "velocity": 90}, {"time": 13090, "pitch": 40, "duration": 10, "velocity": 110}, {"time": 13200, "pitch": 42, "duration": 10, "velocity": 90}, {"time": 13320, "pitch": 42, "duration": 10, "velocity": 80}, {"time": 13440, "pitch": 40, "duration": 10, "velocity": 110}, {"time": 13670, "pitch": 32, "duration": 10, "velocity": 40}, {"time": 13680, "pitch": 42, "duration": 10, "velocity": 100}, {"time": 13920, "pitch": 32, "duration": 20, "velocity": 60}, {"time": 13920, "pitch": 36, "duration": 10, "velocity": 90}, {"time": 14160, "pitch": 42, "duration": 10, "velocity": 90}, {"time": 14400, "pitch": 40, "duration": 10, "velocity": 110}, {"time": 14640, "pitch": 42, "duration": 10, "velocity": 100}, {"time": 14820, "pitch": 32, "duration": 10, "velocity": 10}, {"time": 14840, "pitch": 32, "duration": 10, "velocity": 30}, {"time": 14860, "pitch": 32, "duration": 10, "velocity": 60}, {"time": 14880, "pitch": 36, "duration": 10, "velocity": 90}, {"time": 15010, "pitch": 40, "duration": 10, "velocity": 110}, {"time": 15120, "pitch": 42, "duration": 10, "velocity": 90}, {"time": 15240, "pitch": 42, "duration": 10, "velocity": 80}, {"time": 15360, "pitch": 40, "duration": 10, "velocity": 110}, {"time": 15590, "pitch": 32, "duration": 10, "velocity": 40}, {"time": 15600, "pitch": 42, "duration": 10, "velocity": 100}, {"time": 15840, "pitch": 32, "duration": 20, "velocity": 60}, {"time": 15840, "pitch": 36, "duration": 10, "velocity": 90}, {"time": 16080, "pitch": 42, "duration": 10, "velocity": 90}, {"time": 16320, "pitch": 40, "duration": 10, "velocity": 110}, {"time": 16560, "pitch": 42, "duration": 10, "velocity": 100}, {"time": 16740, "pitch": 32, "duration": 10, "velocity": 10}, {"time": 16760, "pitch": 32, "duration": 10, "velocity": 30}, {"time": 16780, "pitch": 32, "duration": 10, "velocity": 60}, {"time": 16800, "pitch": 36, "duration": 10, "velocity": 90}, {"time": 16930, "pitch": 40, "duration": 10, "velocity": 110}, {"time": 17040, "pitch": 42, "duration": 10, "velocity": 90}, {"time": 17160, "pitch": 42, "duration": 10, "velocity": 80}, {"time": 17280, "pitch": 40, "duration": 10, "velocity": 110}, {"time": 17510, "pitch": 32, "duration": 10, "velocity": 40}, {"time": 17520, "pitch": 42, "duration": 10, "velocity": 100}, {"time": 17760, "pitch": 32, "duration": 20, "velocity": 60}, {"time": 17760, "pitch": 36, "duration": 10, "velocity": 90}, {"time": 18000, "pitch": 42, "duration": 10, "velocity": 90}, {"time": 18240, "pitch": 40, "duration": 10, "velocity": 110}, {"time": 18480, "pitch": 42, "duration": 10, "velocity": 100}, {"time": 18660, "pitch": 32, "duration": 10, "velocity": 10}, {"time": 18680, "pitch": 32, "duration": 10, "velocity": 30}, {"time": 18700, "pitch": 32, "duration": 10, "velocity": 60}, {"time": 18720, "pitch": 36, "duration": 10, "velocity": 90}, {"time": 18850, "pitch": 40, "duration": 10, "velocity": 110}, {"time": 18960, "pitch": 42, "duration": 10, "velocity": 90}, {"time": 19080, "pitch": 42, "duration": 10, "velocity": 80}, {"time": 19200, "pitch": 40, "duration": 10, "velocity": 110}, {"time": 19430, "pitch": 32, "duration": 10, "velocity": 40}, {"time": 19440, "pitch": 42, "duration": 10, "velocity": 100}, {"time": 19680, "pitch": 32, "duration": 20, "velocity": 60}, {"time": 19680, "pitch": 36, "duration": 10, "velocity": 90}, {"time": 19920, "pitch": 42, "duration": 10, "velocity": 90}, {"time": 20160, "pitch": 40, "duration": 10, "velocity": 110}, {"time": 20400, "pitch": 42, "duration": 10, "velocity": 100}, {"time": 20580, "pitch": 32, "duration": 10, "velocity": 10}, {"time": 20600, "pitch": 32, "duration": 10, "velocity": 30}, {"time": 20620, "pitch": 32, "duration": 10, "velocity": 60}, {"time": 20640, "pitch": 36, "duration": 10, "velocity": 90}, {"time": 20770, "pitch": 40, "duration": 10, "velocity": 110}, {"time": 20880, "pitch": 42, "duration": 10, "velocity": 90}, {"time": 21000, "pitch": 42, "duration": 10, "velocity": 80}, {"time": 21120, "pitch": 40, "duration": 10, "velocity": 110}, {"time": 21350, "pitch": 32, "duration": 10, "velocity": 40}, {"time": 21360, "pitch": 42, "duration": 10, "velocity": 100}, {"time": 21600, "pitch": 32, "duration": 20, "velocity": 60}, {"time": 21600, "pitch": 36, "duration": 10, "velocity": 90}, {"time": 21840, "pitch": 42, "duration": 10, "velocity": 90}, {"time": 22080, "pitch": 40, "duration": 10, "velocity": 110}, {"time": 22320, "pitch": 42, "duration": 10, "velocity": 100}, {"time": 22500, "pitch": 32, "duration": 10, "velocity": 10}, {"time": 22520, "pitch": 32, "duration": 10, "velocity": 30}, {"time": 22540, "pitch": 32, "duration": 10, "velocity": 60}, {"time": 22560, "pitch": 36, "duration": 10, "velocity": 90}, {"time": 22690, "pitch": 40, "duration": 10, "velocity": 110}, {"time": 22800, "pitch": 42, "duration": 10, "velocity": 90}, {"time": 22920, "pitch": 42, "duration": 10, "velocity": 80}, {"time": 23040, "pitch": 40, "duration": 10, "velocity": 110}, {"time": 23270, "pitch": 32, "duration": 10, "velocity": 40}, {"time": 23280, "pitch": 42, "duration": 10, "velocity": 100}, {"time": 86880, "pitch": 32, "duration": 20, "velocity": 60}, {"time": 86880, "pitch": 36, "duration": 10, "velocity": 90}, {"time": 87120, "pitch": 42, "duration": 10, "velocity": 90}, {"time": 87360, "pitch": 40, "duration": 10, "velocity": 110}, {"time": 87600, "pitch": 42, "duration": 10, "velocity": 100}, {"time": 87780, "pitch": 32, "duration": 10, "velocity": 10}, {"time": 87800, "pitch": 32, "duration": 10, "velocity": 30}, {"time": 87820, "pitch": 32, "duration": 10, "velocity": 60}, {"time": 87840, "pitch": 36, "duration": 10, "velocity": 90}, {"time": 87970, "pitch": 40, "duration": 10, "velocity": 110}, {"time": 88080, "pitch": 42, "duration": 10, "velocity": 90}, {"time": 88200, "pitch": 42, "duration": 10, "velocity": 80}, {"time": 88320, "pitch": 40, "duration": 10, "velocity": 110}, {"time": 88550, "pitch": 32, "duration": 10, "velocity": 40}, {"time": 88560, "pitch": 42, "duration": 10, "velocity": 100}, {"time": 88800, "pitch": 32, "duration": 20, "velocity": 60}, {"time": 88800, "pitch": 36, "duration": 10, "velocity": 90}, {"time": 89040, "pitch": 42, "duration": 10, "velocity": 90}, {"time": 89280, "pitch": 40, "duration": 10, "velocity": 110}, {"time": 89520, "pitch": 42, "duration": 10, "velocity": 100}, {"time": 89700, "pitch": 32, "duration": 10, "velocity": 10}, {"time": 89720, "pitch": 32, "duration": 10, "velocity": 30}, {"time": 89740, "pitch": 32, "duration": 10, "velocity": 60}, {"time": 89760, "pitch": 36, "duration": 10, "velocity": 90}, {"time": 89890, "pitch": 40, "duration": 10, "velocity": 110}, {"time": 90000, "pitch": 42, "duration": 10, "velocity": 90}, {"time": 90120, "pitch": 42, "duration": 10, "velocity": 80}, {"time": 90240, "pitch": 40, "duration": 10, "velocity": 110}, {"time": 90470, "pitch": 32, "duration": 10, "velocity": 40}, {"time": 90480, "pitch": 42, "duration": 10, "velocity": 100}, {"time": 90720, "pitch": 32, "duration": 20, "velocity": 60}, {"time": 90720, "pitch": 36, "duration": 10, "velocity": 90}, {"time": 90960, "pitch": 42, "duration": 10, "velocity": 90}, {"time": 91200, "pitch": 40, "duration": 10, "velocity": 110}, {"time": 91440, "pitch": 42, "duration": 10, "velocity": 100}, {"time": 91620, "pitch": 32, "duration": 10, "velocity": 10}, {"time": 91640, "pitch": 32, "duration": 10, "velocity": 30}, {"time": 91660, "pitch": 32, "duration": 10, "velocity": 60}, {"time": 91680, "pitch": 36, "duration": 10, "velocity": 90}, {"time": 91810, "pitch": 40, "duration": 10, "velocity": 110}, {"time": 91920, "pitch": 42, "duration": 10, "velocity": 90}, {"time": 92040, "pitch": 42, "duration": 10, "velocity": 80}, {"time": 92160, "pitch": 40, "duration": 10, "velocity": 110}, {"time": 92390, "pitch": 32, "duration": 10, "velocity": 40}, {"time": 92400, "pitch": 42, "duration": 10, "velocity": 100}, {"time": 92640, "pitch": 32, "duration": 20, "velocity": 60}, {"time": 92640, "pitch": 36, "duration": 10, "velocity": 90}, {"time": 92880, "pitch": 42, "duration": 10, "velocity": 90}, {"time": 93120, "pitch": 40, "duration": 10, "velocity": 110}, {"time": 93360, "pitch": 42, "duration": 10, "velocity": 100}, {"time": 93540, "pitch": 32, "duration": 10, "velocity": 10}, {"time": 93560, "pitch": 32, "duration": 10, "velocity": 30}, {"time": 93580, "pitch": 32, "duration": 10, "velocity": 60}, {"time": 93600, "pitch": 36, "duration": 10, "velocity": 90}, {"time": 93730, "pitch": 40, "duration": 10, "velocity": 110}, {"time": 93840, "pitch": 42, "duration": 10, "velocity": 90}, {"time": 93960, "pitch": 42, "duration": 10, "velocity": 80}, {"time": 94080, "pitch": 40, "duration": 10, "velocity": 110}, {"time": 94310, "pitch": 32, "duration": 10, "velocity": 40}, {"time": 94320, "pitch": 42, "duration": 10, "velocity": 100}, {"time": 221280, "pitch": 32, "duration": 20, "velocity": 60}, {"time": 221280, "pitch": 36, "duration": 10, "velocity": 90}, {"time": 221520, "pitch": 42, "duration": 10, "velocity": 90}, {"time": 221760, "pitch": 40, "duration": 10, "velocity": 110}, {"time": 222000, "pitch": 42, "duration": 10, "velocity": 100}, {"time": 222180, "pitch": 32, "duration": 10, "velocity": 10}, {"time": 222200, "pitch": 32, "duration": 10, "velocity": 30}, {"time": 222220, "pitch": 32, "duration": 10, "velocity": 60}, {"time": 222240, "pitch": 36, "duration": 10, "velocity": 90}, {"time": 222370, "pitch": 40, "duration": 10, "velocity": 110}, {"time": 222480, "pitch": 42, "duration": 10, "velocity": 90}, {"time": 222600, "pitch": 42, "duration": 10, "velocity": 80}, {"time": 222720, "pitch": 40, "duration": 10, "velocity": 110}, {"time": 222950, "pitch": 32, "duration": 10, "velocity": 40}, {"time": 222960, "pitch": 42, "duration": 10, "velocity": 100}, {"time": 223200, "pitch": 32, "duration": 20, "velocity": 60}, {"time": 223200, "pitch": 36, "duration": 10, "velocity": 90}, {"time": 223440, "pitch": 42, "duration": 10, "velocity": 90}, {"time": 223680, "pitch": 40, "duration": 10, "velocity": 110}, {"time": 223920, "pitch": 42, "duration": 10, "velocity": 100}, {"time": 224100, "pitch": 32, "duration": 10, "velocity": 10}, {"time": 224120, "pitch": 32, "duration": 10, "velocity": 30}, {"time": 224140, "pitch": 32, "duration": 10, "velocity": 60}, {"time": 224160, "pitch": 36, "duration": 10, "velocity": 90}, {"time": 224290, "pitch": 40, "duration": 10, "velocity": 110}, {"time": 224400, "pitch": 42, "duration": 10, "velocity": 90}, {"time": 224520, "pitch": 42, "duration": 10, "velocity": 80}, {"time": 224640, "pitch": 40, "duration": 10, "velocity": 110}, {"time": 224870, "pitch": 32, "duration": 10, "velocity": 40}, {"time": 224880, "pitch": 42, "duration": 10, "velocity": 100}, {"time": 225120, "pitch": 32, "duration": 20, "velocity": 60}, {"time": 225120, "pitch": 36, "duration": 10, "velocity": 90}, {"time": 225360, "pitch": 42, "duration": 10, "velocity": 90}, {"time": 225600, "pitch": 40, "duration": 10, "velocity": 110}, {"time": 225840, "pitch": 42, "duration": 10, "velocity": 100}, {"time": 226020, "pitch": 32, "duration": 10, "velocity": 10}, {"time": 226040, "pitch": 32, "duration": 10, "velocity": 30}, {"time": 226060, "pitch": 32, "duration": 10, "velocity": 60}, {"time": 226080, "pitch": 36, "duration": 10, "velocity": 90}, {"time": 226210, "pitch": 40, "duration": 10, "velocity": 110}, {"time": 226320, "pitch": 42, "duration": 10, "velocity": 90}, {"time": 226440, "pitch": 42, "duration": 10, "velocity": 80}, {"time": 226560, "pitch": 40, "duration": 10, "velocity": 110}, {"time": 226790, "pitch": 32, "duration": 10, "velocity": 40}, {"time": 226800, "pitch": 42, "duration": 10, "velocity": 100}, {"time": 227040, "pitch": 32, "duration": 20, "velocity": 60}, {"time": 227040, "pitch": 36, "duration": 10, "velocity": 90}, {"time": 227280, "pitch": 42, "duration": 10, "velocity": 90}, {"time": 227520, "pitch": 40, "duration": 10, "velocity": 110}, {"time": 227760, "pitch": 42, "duration": 10, "velocity": 100}, {"time": 227940, "pitch": 32, "duration": 10, "velocity": 10}, {"time": 227960, "pitch": 32, "duration": 10, "velocity": 30}, {"time": 227980, "pitch": 32, "duration": 10, "velocity": 60}, {"time": 228000, "pitch": 36, "duration": 10, "velocity": 90}, {"time": 228130, "pitch": 40, "duration": 10, "velocity": 110}, {"time": 228240, "pitch": 42, "duration": 10, "velocity": 90}, {"time": 228360, "pitch": 42, "duration": 10, "velocity": 80}, {"time": 228480, "pitch": 40, "duration": 10, "velocity": 110}, {"time": 228710, "pitch": 32, "duration": 10, "velocity": 40}, {"time": 228720, "pitch": 42, "duration": 10, "velocity": 100}, {"time": 228960, "pitch": 32, "duration": 20, "velocity": 60}, {"time": 228960, "pitch": 36, "duration": 10, "velocity": 90}, {"time": 229200, "pitch": 42, "duration": 10, "velocity": 90}, {"time": 229440, "pitch": 40, "duration": 10, "velocity": 110}, {"time": 229680, "pitch": 42, "duration": 10, "velocity": 100}, {"time": 229860, "pitch": 32, "duration": 10, "velocity": 10}, {"time": 229880, "pitch": 32, "duration": 10, "velocity": 30}, {"time": 229900, "pitch": 32, "duration": 10, "velocity": 60}, {"time": 229920, "pitch": 36, "duration": 10, "velocity": 90}, {"time": 230050, "pitch": 40, "duration": 10, "velocity": 110}, {"time": 230160, "pitch": 42, "duration": 10, "velocity": 90}, {"time": 230280, "pitch": 42, "duration": 10, "velocity": 80}, {"time": 230400, "pitch": 40, "duration": 10, "velocity": 110}, {"time": 230630, "pitch": 32, "duration": 10, "velocity": 40}, {"time": 230640, "pitch": 42, "duration": 10, "velocity": 100}, {"time": 230880, "pitch": 32, "duration": 20, "velocity": 60}, {"time": 230880, "pitch": 36, "duration": 10, "velocity": 90}, {"time": 231120, "pitch": 42, "duration": 10, "velocity": 90}, {"time": 231360, "pitch": 40, "duration": 10, "velocity": 110}, {"time": 231600, "pitch": 42, "duration": 10, "velocity": 100}, {"time": 231780, "pitch": 32, "duration": 10, "velocity": 10}, {"time": 231800, "pitch": 32, "duration": 10, "velocity": 30}, {"time": 231820, "pitch": 32, "duration": 10, "velocity": 60}, {"time": 231840, "pitch": 36, "duration": 10, "velocity": 90}, {"time": 231970, "pitch": 40, "duration": 10, "velocity": 110}, {"time": 232080, "pitch": 42, "duration": 10, "velocity": 90}, {"time": 232200, "pitch": 42, "duration": 10, "velocity": 80}, {"time": 232320, "pitch": 40, "duration": 10, "velocity": 110}, {"time": 232550, "pitch": 32, "duration": 10, "velocity": 40}, {"time": 232560, "pitch": 42, "duration": 10, "velocity": 100}, {"time": 232800, "pitch": 32, "duration": 20, "velocity": 60}, {"time": 232800, "pitch": 36, "duration": 10, "velocity": 90}, {"time": 233040, "pitch": 42, "duration": 10, "velocity": 90}, {"time": 233280, "pitch": 40, "duration": 10, "velocity": 110}, {"time": 233520, "pitch": 42, "duration": 10, "velocity": 100}, {"time": 233700, "pitch": 32, "duration": 10, "velocity": 10}, {"time": 233720, "pitch": 32, "duration": 10, "velocity": 30}, {"time": 233740, "pitch": 32, "duration": 10, "velocity": 60}, {"time": 233760, "pitch": 36, "duration": 10, "velocity": 90}, {"time": 233890, "pitch": 40, "duration": 10, "velocity": 110}, {"time": 234000, "pitch": 42, "duration": 10, "velocity": 90}, {"time": 234120, "pitch": 42, "duration": 10, "velocity": 80}, {"time": 234240, "pitch": 40, "duration": 10, "velocity": 110}, {"time": 234470, "pitch": 32, "duration": 10, "velocity": 40}, {"time": 234480, "pitch": 42, "duration": 10, "velocity": 100}, {"time": 234720, "pitch": 32, "duration": 20, "velocity": 60}, {"time": 234720, "pitch": 36, "duration": 10, "velocity": 90}, {"time": 234960, "pitch": 42, "duration": 10, "velocity": 90}, {"time": 235200, "pitch": 40, "duration": 10, "velocity": 110}, {"time": 235440, "pitch": 42, "duration": 10, "velocity": 100}, {"time": 235620, "pitch": 32, "duration": 10, "velocity": 10}, {"time": 235640, "pitch": 32, "duration": 10, "velocity": 30}, {"time": 235660, "pitch": 32, "duration": 10, "velocity": 60}, {"time": 235680, "pitch": 36, "duration": 10, "velocity": 90}, {"time": 235810, "pitch": 40, "duration": 10, "velocity": 110}, {"time": 235920, "pitch": 42, "duration": 10, "velocity": 90}, {"time": 236040, "pitch": 42, "duration": 10, "velocity": 80}, {"time": 236160, "pitch": 40, "duration": 10, "velocity": 110}, {"time": 236390, "pitch": 32, "duration": 10, "velocity": 40}, {"time": 236400, "pitch": 42, "duration": 10, "velocity": 100}, {"time": 236640, "pitch": 32, "duration": 20, "velocity": 60}, {"time": 236640, "pitch": 36, "duration": 10, "velocity": 90}, {"time": 236880, "pitch": 42, "duration": 10, "velocity": 90}, {"time": 237120, "pitch": 40, "duration": 10, "velocity": 110}, {"time": 237360, "pitch": 42, "duration": 10, "velocity": 100}, {"time": 237540, "pitch": 32, "duration": 10, "velocity": 10}, {"time": 237560, "pitch": 32, "duration": 10, "velocity": 30}, {"time": 237580, "pitch": 32, "duration": 10, "velocity": 60}, {"time": 237600, "pitch": 36, "duration": 10, "velocity": 90}, {"time": 237730, "pitch": 40, "duration": 10, "velocity": 110}, {"time": 237840, "pitch": 42, "duration": 10, "velocity": 90}, {"time": 237960, "pitch": 42, "duration": 10, "velocity": 80}, {"time": 238080, "pitch": 40, "duration": 10, "velocity": 110}, {"time": 238310, "pitch": 32, "duration": 10, "velocity": 40}, {"time": 238320, "pitch": 42, "duration": 10, "velocity": 100}, {"time": 238560, "pitch": 32, "duration": 20, "velocity": 60}, {"time": 238560, "pitch": 36, "duration": 10, "velocity": 90}, {"time": 238800, "pitch": 42, "duration": 10, "velocity": 90}, {"time": 239040, "pitch": 40, "duration": 10, "velocity": 110}, {"time": 239280, "pitch": 42, "duration": 10, "velocity": 100}, {"time": 239460, "pitch": 32, "duration": 10, "velocity": 10}, {"time": 239480, "pitch": 32, "duration": 10, "velocity": 30}, {"time": 239500, "pitch": 32, "duration": 10, "velocity": 60}, {"time": 239520, "pitch": 36, "duration": 10, "velocity": 90}, {"time": 239650, "pitch": 40, "duration": 10, "velocity": 110}, {"time": 239760, "pitch": 42, "duration": 10, "velocity": 90}, {"time": 239880, "pitch": 42, "duration": 10, "velocity": 80}, {"time": 240000, "pitch": 40, "duration": 10, "velocity": 110}, {"time": 240230, "pitch": 32, "duration": 10, "velocity": 40}, {"time": 240240, "pitch": 42, "duration": 10, "velocity": 100}, {"time": 240480, "pitch": 32, "duration": 20, "velocity": 60}, {"time": 240480, "pitch": 36, "duration": 10, "velocity": 90}, {"time": 240720, "pitch": 42, "duration": 10, "velocity": 90}, {"time": 240960, "pitch": 40, "duration": 10, "velocity": 110}, {"time": 241200, "pitch": 42, "duration": 10, "velocity": 100}, {"time": 241380, "pitch": 32, "duration": 10, "velocity": 10}, {"time": 241400, "pitch": 32, "duration": 10, "velocity": 30}, {"time": 241420, "pitch": 32, "duration": 10, "velocity": 60}, {"time": 241440, "pitch": 36, "duration": 10, "velocity": 90}, {"time": 241570, "pitch": 40, "duration": 10, "velocity": 110}, {"time": 241680, "pitch": 42, "duration": 10, "velocity": 90}, {"time": 241800, "pitch": 42, "duration": 10, "velocity": 80}, {"time": 241920, "pitch": 40, "duration": 10, "velocity": 110}, {"time": 242150, "pitch": 32, "duration": 10, "velocity": 40}, {"time": 242160, "pitch": 42, "duration": 10, "velocity": 100}, {"time": 242400, "pitch": 32, "duration": 20, "velocity": 60}, {"time": 242400, "pitch": 36, "duration": 10, "velocity": 90}, {"time": 242640, "pitch": 42, "duration": 10, "velocity": 90}, {"time": 242880, "pitch": 40, "duration": 10, "velocity": 110}, {"time": 243120, "pitch": 42, "duration": 10, "velocity": 100}, {"time": 243300, "pitch": 32, "duration": 10, "velocity": 10}, {"time": 243320, "pitch": 32, "duration": 10, "velocity": 30}, {"time": 243340, "pitch": 32, "duration": 10, "velocity": 60}, {"time": 243360, "pitch": 36, "duration": 10, "velocity": 90}, {"time": 243490, "pitch": 40, "duration": 10, "velocity": 110}, {"time": 243600, "pitch": 42, "duration": 10, "velocity": 90}, {"time": 243720, "pitch": 42, "duration": 10, "velocity": 80}, {"time": 243840, "pitch": 40, "duration": 10, "velocity": 110}, {"time": 244070, "pitch": 32, "duration": 10, "velocity": 40}, {"time": 244080, "pitch": 42, "duration": 10, "velocity": 100}, {"time": 244320, "pitch": 32, "duration": 20, "velocity": 60}, {"time": 244320, "pitch": 36, "duration": 10, "velocity": 90}, {"time": 244560, "pitch": 42, "duration": 10, "velocity": 90}, {"time": 244800, "pitch": 40, "duration": 10, "velocity": 110}, {"time": 245040, "pitch": 42, "duration": 10, "velocity": 100}, {"time": 245220, "pitch": 32, "duration": 10, "velocity": 10}, {"time": 245240, "pitch": 32, "duration": 10, "velocity": 30}, {"time": 245260, "pitch": 32, "duration": 10, "velocity": 60}, {"time": 245280, "pitch": 36, "duration": 10, "velocity": 90}, {"time": 245410, "pitch": 40, "duration": 10, "velocity": 110}, {"time": 245520, "pitch": 42, "duration": 10, "velocity": 90}, {"time": 245640, "pitch": 42, "duration": 10, "velocity": 80}, {"time": 245760, "pitch": 40, "duration": 10, "velocity": 110}, {"time": 245990, "pitch": 32, "duration": 10, "velocity": 40}, {"time": 246000, "pitch": 42, "duration": 10, "velocity": 100}, {"time": 246240, "pitch": 32, "duration": 20, "velocity": 60}, {"time": 246240, "pitch": 36, "duration": 10, "velocity": 90}, {"time": 246480, "pitch": 42, "duration": 10, "velocity": 90}, {"time": 246720, "pitch": 40, "duration": 10, "velocity": 110}, {"time": 246960, "pitch": 42, "duration": 10, "velocity": 100}, {"time": 247140, "pitch": 32, "duration": 10, "velocity": 10}, {"time": 247160, "pitch": 32, "duration": 10, "velocity": 30}, {"time": 247180, "pitch": 32, "duration": 10, "velocity": 60}, {"time": 247200, "pitch": 36, "duration": 10, "velocity": 90}, {"time": 247330, "pitch": 40, "duration": 10, "velocity": 110}, {"time": 247440, "pitch": 42, "duration": 10, "velocity": 90}, {"time": 247560, "pitch": 42, "duration": 10, "velocity": 80}, {"time": 247680, "pitch": 40, "duration": 10, "velocity": 110}, {"time": 247910, "pitch": 32, "duration": 10, "velocity": 40}, {"time": 247920, "pitch": 42, "duration": 10, "velocity": 100}, {"time": 248160, "pitch": 32, "duration": 20, "velocity": 60}, {"time": 248160, "pitch": 36, "duration": 10, "velocity": 90}, {"time": 248400, "pitch": 42, "duration": 10, "velocity": 90}, {"time": 248640, "pitch": 40, "duration": 10, "velocity": 110}, {"time": 248880, "pitch": 42, "duration": 10, "velocity": 100}, {"time": 249060, "pitch": 32, "duration": 10, "velocity": 10}, {"time": 249080, "pitch": 32, "duration": 10, "velocity": 30}, {"time": 249100, "pitch": 32, "duration": 10, "velocity": 60}, {"time": 249120, "pitch": 36, "duration": 10, "velocity": 90}, {"time": 249250, "pitch": 40, "duration": 10, "velocity": 110}, {"time": 249360, "pitch": 42, "duration": 10, "velocity": 90}, {"time": 249480, "pitch": 42, "duration": 10, "velocity": 80}, {"time": 249600, "pitch": 40, "duration": 10, "velocity": 110}, {"time": 249830, "pitch": 32, "duration": 10, "velocity": 40}, {"time": 249840, "pitch": 42, "duration": 10, "velocity": 100}, {"time": 250080, "pitch": 32, "duration": 20, "velocity": 60}, {"time": 250080, "pitch": 36, "duration": 10, "velocity": 90}, {"time": 250320, "pitch": 42, "duration": 10, "velocity": 90}, {"time": 250560, "pitch": 40, "duration": 10, "velocity": 110}, {"time": 250800, "pitch": 42, "duration": 10, "velocity": 100}, {"time": 250980, "pitch": 32, "duration": 10, "velocity": 10}, {"time": 251000, "pitch": 32, "duration": 10, "velocity": 30}, {"time": 251020, "pitch": 32, "duration": 10, "velocity": 60}, {"time": 251040, "pitch": 36, "duration": 10, "velocity": 90}, {"time": 251170, "pitch": 40, "duration": 10, "velocity": 110}, {"time": 251280, "pitch": 42, "duration": 10, "velocity": 90}, {"time": 251400, "pitch": 42, "duration": 10, "velocity": 80}, {"time": 251520, "pitch": 40, "duration": 10, "velocity": 110}, {"time": 251750, "pitch": 32, "duration": 10, "velocity": 40}, {"time": 251760, "pitch": 42, "duration": 10, "velocity": 100}], "annotations": [{"time": 230, "annotation": {"number": 0, "value": 0}, "group": "control_change"}, {"time": 250, "annotation": {"number": 32, "value": 0}, "group": "control_change"}, {"time": 292, "annotation": {"number": 7, "value": 120}, "group": "control_change"}, {"time": 313, "annotation": {"number": 11, "value": 110}, "group": "control_change"}, {"time": 334, "annotation": {"number": 91, "value": 20}, "group": "control_change"}, {"time": 355, "annotation": {"number": 101, "value": 127}, "group": "control_change"}, {"time": 376, "annotation": {"number": 100, "value": 127}, "group": "control_change"}, {"time": 236880, "annotation": {"number": 11, "value": 109}, "group": "control_change"}, {"time": 237120, "annotation": {"number": 11, "value": 107}, "group": "control_change"}, {"time": 237360, "annotation": {"number": 11, "value": 105}, "group": "control_change"}, {"time": 237600, "annotation": {"number": 11, "value": 104}, "group": "control_change"}, {"time": 237840, "annotation": {"number": 11, "value": 102}, "group": "control_change"}, {"time": 238080, "annotation": {"number": 11, "value": 100}, "group": "control_change"}, {"time": 238320, "annotation": {"number": 11, "value": 98}, "group": "control_change"}, {"time": 238560, "annotation": {"number": 11, "value": 97}, "group": "control_change"}, {"time": 238800, "annotation": {"number": 11, "value": 95}, "group": "control_change"}, {"time": 239040, "annotation": {"number": 11, "value": 93}, "group": "control_change"}, {"time": 239280, "annotation": {"number": 11, "value": 92}, "group": "control_change"}, {"time": 239520, "annotation": {"number": 11, "value": 90}, "group": "control_change"}, {"time": 239760, "annotation": {"number": 11, "value": 88}, "group": "control_change"}, {"time": 240000, "annotation": {"number": 11, "value": 86}, "group": "control_change"}, {"time": 240240, "annotation": {"number": 11, "value": 85}, "group": "control_change"}, {"time": 240480, "annotation": {"number": 11, "value": 83}, "group": "control_change"}, {"time": 240720, "annotation": {"number": 11, "value": 81}, "group": "control_change"}, {"time": 240960, "annotation": {"number": 11, "value": 80}, "group": "control_change"}, {"time": 241200, "annotation": {"number": 11, "value": 78}, "group": "control_change"}, {"time": 241440, "annotation": {"number": 11, "value": 76}, "group": "control_change"}, {"time": 241680, "annotation": {"number": 11, "value": 74}, "group": "control_change"}, {"time": 241920, "annotation": {"number": 11, "value": 73}, "group": "control_change"}, {"time": 242160, "annotation": {"number": 11, "value": 71}, "group": "control_change"}, {"time": 242400, "annotation": {"number": 11, "value": 69}, "group": "control_change"}, {"time": 242640, "annotation": {"number": 11, "value": 68}, "group": "control_change"}, {"time": 242880, "annotation": {"number": 11, "value": 66}, "group": "control_change"}, {"time": 243120, "annotation": {"number": 11, "value": 64}, "group": "control_change"}, {"time": 243360, "annotation": {"number": 11, "value": 62}, "group": "control_change"}, {"time": 243600, "annotation": {"number": 11, "value": 61}, "group": "control_change"}, {"time": 243840, "annotation": {"number": 11, "value": 59}, "group": "control_change"}, {"time": 244080, "annotation": {"number": 11, "value": 57}, "group": "control_change"}, {"time": 244320, "annotation": {"number": 11, "value": 55}, "group": "control_change"}, {"time": 244560, "annotation": {"number": 11, "value": 54}, "group": "control_change"}, {"time": 244800, "annotation": {"number": 11, "value": 52}, "group": "control_change"}, {"time": 245040, "annotation": {"number": 11, "value": 50}, "group": "control_change"}, {"time": 245280, "annotation": {"number": 11, "value": 49}, "group": "control_change"}, {"time": 245520, "annotation": {"number": 11, "value": 47}, "group": "control_change"}, {"time": 245760, "annotation": {"number": 11, "value": 45}, "group": "control_change"}, {"time": 246000, "annotation": {"number": 11, "value": 43}, "group": "control_change"}, {"time": 246240, "annotation": {"number": 11, "value": 42}, "group": "control_change"}, {"time": 246480, "annotation": {"number": 11, "value": 40}, "group": "control_change"}, {"time": 246720, "annotation": {"number": 11, "value": 38}, "group": "control_change"}, {"time": 246960, "annotation": {"number": 11, "value": 37}, "group": "control_change"}, {"time": 247200, "annotation": {"number": 11, "value": 35}, "group": "control_change"}, {"time": 247440, "annotation": {"number": 11, "value": 33}, "group": "control_change"}, {"time": 247680, "annotation": {"number": 11, "value": 31}, "group": "control_change"}, {"time": 247920, "annotation": {"number": 11, "value": 30}, "group": "control_change"}, {"time": 248160, "annotation": {"number": 11, "value": 28}, "group": "control_change"}, {"time": 248400, "annotation": {"number": 11, "value": 26}, "group": "control_change"}, {"time": 248640, "annotation": {"number": 11, "value": 25}, "group": "control_change"}, {"time": 248880, "annotation": {"number": 11, "value": 23}, "group": "control_change"}, {"time": 249120, "annotation": {"number": 11, "value": 21}, "group": "control_change"}, {"time": 249360, "annotation": {"number": 11, "value": 19}, "group": "control_change"}, {"time": 249600, "annotation": {"number": 11, "value": 18}, "group": "control_change"}, {"time": 249840, "annotation": {"number": 11, "value": 16}, "group": "control_change"}, {"time": 250080, "annotation": {"number": 11, "value": 14}, "group": "control_change"}, {"time": 250320, "annotation": {"number": 11, "value": 12}, "group": "control_change"}, {"time": 250560, "annotation": {"number": 11, "value": 11}, "group": "control_change"}, {"time": 250800, "annotation": {"number": 11, "value": 9}, "group": "control_change"}, {"time": 251040, "annotation": {"number": 11, "value": 7}, "group": "control_change"}, {"time": 251280, "annotation": {"number": 11, "value": 6}, "group": "control_change"}, {"time": 251520, "annotation": {"number": 11, "value": 4}, "group": "control_change"}, {"time": 251760, "annotation": {"number": 11, "value": 2}, "group": "control_change"}]}]}