{"metadata": {"schema_version": "0.1", "title": "bwv334.mxl", "creators": ["J.S. Bach"]}, "resolution": 24, "tempos": [{"time": 0, "qpm": 120.0}], "key_signatures": [{"time": 0, "root": 10, "mode": "major", "fifths": -2}, {"time": 0, "root": 7, "mode": "minor", "fifths": -2}], "time_signatures": [{"time": 0, "numerator": 4, "denominator": 4}], "beats": [{"time": 0.0, "is_downbeat": true}, {"time": 24.0, "is_downbeat": true}, {"time": 48.0, "is_downbeat": false}, {"time": 72.0, "is_downbeat": false}, {"time": 96.0, "is_downbeat": false}, {"time": 120.0, "is_downbeat": true}, {"time": 144.0, "is_downbeat": false}, {"time": 168.0, "is_downbeat": false}, {"time": 192.0, "is_downbeat": false}, {"time": 216.0, "is_downbeat": true}, {"time": 240.0, "is_downbeat": false}, {"time": 264.0, "is_downbeat": false}, {"time": 288.0, "is_downbeat": false}, {"time": 312.0, "is_downbeat": true}, {"time": 336.0, "is_downbeat": false}, {"time": 360.0, "is_downbeat": false}, {"time": 384.0, "is_downbeat": true}, {"time": 408.0, "is_downbeat": true}, {"time": 432.0, "is_downbeat": false}, {"time": 456.0, "is_downbeat": false}, {"time": 480.0, "is_downbeat": false}, {"time": 504.0, "is_downbeat": true}, {"time": 528.0, "is_downbeat": false}, {"time": 552.0, "is_downbeat": false}, {"time": 576.0, "is_downbeat": false}, {"time": 600.0, "is_downbeat": true}, {"time": 624.0, "is_downbeat": false}, {"time": 648.0, "is_downbeat": false}, {"time": 672.0, "is_downbeat": false}, {"time": 696.0, "is_downbeat": true}, {"time": 720.0, "is_downbeat": false}, {"time": 744.0, "is_downbeat": false}, {"time": 768.0, "is_downbeat": true}, {"time": 792.0, "is_downbeat": true}, {"time": 816.0, "is_downbeat": false}, {"time": 840.0, "is_downbeat": false}, {"time": 864.0, "is_downbeat": false}, {"time": 888.0, "is_downbeat": true}, {"time": 912.0, "is_downbeat": false}, {"time": 936.0, "is_downbeat": false}, {"time": 960.0, "is_downbeat": false}, {"time": 984.0, "is_downbeat": true}, {"time": 1008.0, "is_downbeat": false}, {"time": 1032.0, "is_downbeat": false}, {"time": 1056.0, "is_downbeat": false}], "tracks": [{"program": 73, "is_drum": false, "name": "Soprano", "notes": [{"time": 0, "pitch": 67, "duration": 24, "velocity": 64}, {"time": 24, "pitch": 67, "duration": 24, "velocity": 64}, {"time": 48, "pitch": 66, "duration": 24, "velocity": 64}, {"time": 72, "pitch": 67, "duration": 24, "velocity": 64}, {"time": 96, "pitch": 69, "duration": 24, "velocity": 64}, {"time": 120, "pitch": 70, "duration": 24, "velocity": 64}, {"time": 144, "pitch": 69, "duration": 24, "velocity": 64}, {"time": 168, "pitch": 67, "duration": 24, "velocity": 64}, {"time": 192, "pitch": 67, "duration": 24, "velocity": 64}, {"time": 216, "pitch": 69, "duration": 24, "velocity": 64}, {"time": 240, "pitch": 69, "duration": 24, "velocity": 64}, {"time": 264, "pitch": 74, "duration": 24, "velocity": 64}, {"time": 288, "pitch": 72, "duration": 24, "velocity": 64}, {"time": 312, "pitch": 70, "duration": 48, "velocity": 64}, {"time": 360, "pitch": 69, "duration": 24, "velocity": 64}, {"time": 384, "pitch": 74, "duration": 24, "velocity": 64}, {"time": 408, "pitch": 72, "duration": 24, "velocity": 64}, {"time": 432, "pitch": 70, "duration": 24, "velocity": 64}, {"time": 456, "pitch": 69, "duration": 12, "velocity": 64}, {"time": 468, "pitch": 70, "duration": 12, "velocity": 64}, {"time": 480, "pitch": 72, "duration": 24, "velocity": 64}, {"time": 492, "pitch": 69, "duration": 12, "velocity": 64}, {"time": 504, "pitch": 70, "duration": 24, "velocity": 64}, {"time": 528, "pitch": 69, "duration": 24, "velocity": 64}, {"time": 552, "pitch": 67, "duration": 24, "velocity": 64}, {"time": 576, "pitch": 70, "duration": 24, "velocity": 64}, {"time": 600, "pitch": 69, "duration": 24, "velocity": 64}, {"time": 624, "pitch": 67, "duration": 24, "velocity": 64}, {"time": 648, "pitch": 65, "duration": 12, "velocity": 64}, {"time": 696, "pitch": 65, "duration": 24, "velocity": 64}, {"time": 744, "pitch": 69, "duration": 24, "velocity": 64}, {"time": 768, "pitch": 69, "duration": 24, "velocity": 64}, {"time": 792, "pitch": 70, "duration": 24, "velocity": 64}, {"time": 816, "pitch": 72, "duration": 24, "velocity": 64}, {"time": 840, "pitch": 74, "duration": 36, "velocity": 64}, {"time": 876, "pitch": 72, "duration": 12, "velocity": 64}, {"time": 912, "pitch": 72, "duration": 12, "velocity": 64}, {"time": 984, "pitch": 67, "duration": 72, "velocity": 64}]}, {"program": 68, "is_drum": false, "name": "Alto", "notes": [{"time": 0, "pitch": 62, "duration": 24, "velocity": 64}, {"time": 24, "pitch": 63, "duration": 24, "velocity": 64}, {"time": 48, "pitch": 62, "duration": 12, "velocity": 64}, {"time": 60, "pitch": 60, "duration": 12, "velocity": 64}, {"time": 72, "pitch": 58, "duration": 24, "velocity": 64}, {"time": 96, "pitch": 63, "duration": 24, "velocity": 64}, {"time": 120, "pitch": 62, "duration": 24, "velocity": 64}, {"time": 144, "pitch": 62, "duration": 24, "velocity": 64}, {"time": 168, "pitch": 62, "duration": 24, "velocity": 64}, {"time": 192, "pitch": 62, "duration": 24, "velocity": 64}, {"time": 216, "pitch": 63, "duration": 24, "velocity": 64}, {"time": 240, "pitch": 62, "duration": 24, "velocity": 64}, {"time": 264, "pitch": 62, "duration": 24, "velocity": 64}, {"time": 288, "pitch": 67, "duration": 12, "velocity": 64}, {"time": 300, "pitch": 66, "duration": 12, "velocity": 64}, {"time": 312, "pitch": 67, "duration": 48, "velocity": 64}, {"time": 360, "pitch": 66, "duration": 24, "velocity": 64}, {"time": 384, "pitch": 67, "duration": 24, "velocity": 64}, {"time": 408, "pitch": 67, "duration": 12, "velocity": 64}, {"time": 420, "pitch": 65, "duration": 12, "velocity": 64}, {"time": 432, "pitch": 67, "duration": 12, "velocity": 64}, {"time": 480, "pitch": 60, "duration": 12, "velocity": 64}, {"time": 504, "pitch": 66, "duration": 12, "velocity": 64}, {"time": 516, "pitch": 67, "duration": 24, "velocity": 64}, {"time": 540, "pitch": 66, "duration": 12, "velocity": 64}, {"time": 552, "pitch": 62, "duration": 24, "velocity": 64}, {"time": 576, "pitch": 67, "duration": 12, "velocity": 64}, {"time": 588, "pitch": 65, "duration": 12, "velocity": 64}, {"time": 600, "pitch": 64, "duration": 12, "velocity": 64}, {"time": 624, "pitch": 64, "duration": 24, "velocity": 64}, {"time": 648, "pitch": 62, "duration": 12, "velocity": 64}, {"time": 660, "pitch": 64, "duration": 12, "velocity": 64}, {"time": 660, "pitch": 64, "duration": 12, "velocity": 64}, {"time": 672, "pitch": 62, "duration": 12, "velocity": 64}, {"time": 672, "pitch": 65, "duration": 12, "velocity": 64}, {"time": 684, "pitch": 64, "duration": 12, "velocity": 64}, {"time": 696, "pitch": 62, "duration": 12, "velocity": 64}, {"time": 708, "pitch": 65, "duration": 24, "velocity": 64}, {"time": 720, "pitch": 62, "duration": 12, "velocity": 64}, {"time": 720, "pitch": 67, "duration": 24, "velocity": 64}, {"time": 732, "pitch": 64, "duration": 12, "velocity": 64}, {"time": 744, "pitch": 65, "duration": 24, "velocity": 64}, {"time": 768, "pitch": 65, "duration": 24, "velocity": 64}, {"time": 792, "pitch": 65, "duration": 12, "velocity": 64}, {"time": 804, "pitch": 67, "duration": 12, "velocity": 64}, {"time": 816, "pitch": 69, "duration": 24, "velocity": 64}, {"time": 840, "pitch": 69, "duration": 24, "velocity": 64}, {"time": 864, "pitch": 66, "duration": 24, "velocity": 64}, {"time": 888, "pitch": 70, "duration": 24, "velocity": 64}, {"time": 912, "pitch": 60, "duration": 12, "velocity": 64}, {"time": 924, "pitch": 62, "duration": 12, "velocity": 64}, {"time": 924, "pitch": 70, "duration": 12, "velocity": 64}, {"time": 936, "pitch": 69, "duration": 48, "velocity": 64}, {"time": 960, "pitch": 62, "duration": 12, "velocity": 64}, {"time": 972, "pitch": 60, "duration": 12, "velocity": 64}, {"time": 984, "pitch": 59, "duration": 72, "velocity": 64}]}, {"program": 70, "is_drum": false, "name": "Tenor", "notes": [{"time": 0, "pitch": 58, "duration": 24, "velocity": 64}, {"time": 24, "pitch": 57, "duration": 24, "velocity": 64}, {"time": 48, "pitch": 57, "duration": 24, "velocity": 64}, {"time": 72, "pitch": 55, "duration": 24, "velocity": 64}, {"time": 96, "pitch": 60, "duration": 24, "velocity": 64}, {"time": 120, "pitch": 54, "duration": 12, "velocity": 64}, {"time": 132, "pitch": 55, "duration": 24, "velocity": 64}, {"time": 156, "pitch": 54, "duration": 12, "velocity": 64}, {"time": 168, "pitch": 58, "duration": 24, "velocity": 64}, {"time": 192, "pitch": 58, "duration": 24, "velocity": 64}, {"time": 216, "pitch": 60, "duration": 24, "velocity": 64}, {"time": 240, "pitch": 60, "duration": 24, "velocity": 64}, {"time": 264, "pitch": 59, "duration": 24, "velocity": 64}, {"time": 288, "pitch": 60, "duration": 24, "velocity": 64}, {"time": 312, "pitch": 62, "duration": 24, "velocity": 64}, {"time": 336, "pitch": 64, "duration": 12, "velocity": 64}, {"time": 360, "pitch": 62, "duration": 24, "velocity": 64}, {"time": 384, "pitch": 58, "duration": 36, "velocity": 64}, {"time": 384, "pitch": 62, "duration": 24, "velocity": 64}, {"time": 408, "pitch": 63, "duration": 12, "velocity": 64}, {"time": 420, "pitch": 65, "duration": 12, "velocity": 64}, {"time": 432, "pitch": 65, "duration": 12, "velocity": 64}, {"time": 444, "pitch": 63, "duration": 12, "velocity": 64}, {"time": 456, "pitch": 60, "duration": 12, "velocity": 64}, {"time": 456, "pitch": 63, "duration": 12, "velocity": 64}, {"time": 468, "pitch": 62, "duration": 12, "velocity": 64}, {"time": 468, "pitch": 62, "duration": 12, "velocity": 64}, {"time": 480, "pitch": 55, "duration": 12, "velocity": 64}, {"time": 492, "pitch": 60, "duration": 12, "velocity": 64}, {"time": 504, "pitch": 62, "duration": 12, "velocity": 64}, {"time": 516, "pitch": 63, "duration": 12, "velocity": 64}, {"time": 528, "pitch": 57, "duration": 12, "velocity": 64}, {"time": 540, "pitch": 62, "duration": 12, "velocity": 64}, {"time": 552, "pitch": 58, "duration": 24, "velocity": 64}, {"time": 576, "pitch": 62, "duration": 24, "velocity": 64}, {"time": 600, "pitch": 61, "duration": 12, "velocity": 64}, {"time": 612, "pitch": 62, "duration": 12, "velocity": 64}, {"time": 612, "pitch": 62, "duration": 12, "velocity": 64}, {"time": 624, "pitch": 62, "duration": 12, "velocity": 64}, {"time": 636, "pitch": 61, "duration": 12, "velocity": 64}, {"time": 648, "pitch": 57, "duration": 36, "velocity": 64}, {"time": 684, "pitch": 61, "duration": 12, "velocity": 64}, {"time": 696, "pitch": 57, "duration": 12, "velocity": 64}, {"time": 708, "pitch": 60, "duration": 12, "velocity": 64}, {"time": 732, "pitch": 60, "duration": 12, "velocity": 64}, {"time": 744, "pitch": 60, "duration": 24, "velocity": 64}, {"time": 768, "pitch": 60, "duration": 24, "velocity": 64}, {"time": 792, "pitch": 62, "duration": 24, "velocity": 64}, {"time": 816, "pitch": 63, "duration": 24, "velocity": 64}, {"time": 840, "pitch": 65, "duration": 24, "velocity": 64}, {"time": 864, "pitch": 62, "duration": 48, "velocity": 64}, {"time": 888, "pitch": 67, "duration": 24, "velocity": 64}, {"time": 912, "pitch": 55, "duration": 48, "velocity": 64}, {"time": 936, "pitch": 63, "duration": 24, "velocity": 64}, {"time": 960, "pitch": 54, "duration": 24, "velocity": 64}, {"time": 984, "pitch": 50, "duration": 72, "velocity": 64}]}, {"program": 71, "is_drum": false, "name": "Bass", "notes": [{"time": 0, "pitch": 55, "duration": 24, "velocity": 64}, {"time": 24, "pitch": 48, "duration": 24, "velocity": 64}, {"time": 48, "pitch": 50, "duration": 24, "velocity": 64}, {"time": 72, "pitch": 51, "duration": 24, "velocity": 64}, {"time": 96, "pitch": 50, "duration": 12, "velocity": 64}, {"time": 108, "pitch": 48, "duration": 12, "velocity": 64}, {"time": 120, "pitch": 50, "duration": 24, "velocity": 64}, {"time": 144, "pitch": 50, "duration": 24, "velocity": 64}, {"time": 168, "pitch": 43, "duration": 24, "velocity": 64}, {"time": 192, "pitch": 55, "duration": 24, "velocity": 64}, {"time": 216, "pitch": 55, "duration": 24, "velocity": 64}, {"time": 240, "pitch": 54, "duration": 24, "velocity": 64}, {"time": 264, "pitch": 53, "duration": 24, "velocity": 64}, {"time": 288, "pitch": 51, "duration": 24, "velocity": 64}, {"time": 312, "pitch": 50, "duration": 24, "velocity": 64}, {"time": 336, "pitch": 49, "duration": 24, "velocity": 64}, {"time": 348, "pitch": 55, "duration": 12, "velocity": 64}, {"time": 360, "pitch": 50, "duration": 24, "velocity": 64}, {"time": 420, "pitch": 57, "duration": 12, "velocity": 64}, {"time": 432, "pitch": 55, "duration": 36, "velocity": 64}, {"time": 444, "pitch": 58, "duration": 12, "velocity": 64}, {"time": 468, "pitch": 53, "duration": 12, "velocity": 64}, {"time": 480, "pitch": 51, "duration": 24, "velocity": 64}, {"time": 504, "pitch": 50, "duration": 12, "velocity": 64}, {"time": 516, "pitch": 48, "duration": 12, "velocity": 64}, {"time": 528, "pitch": 50, "duration": 24, "velocity": 64}, {"time": 552, "pitch": 43, "duration": 24, "velocity": 64}, {"time": 576, "pitch": 55, "duration": 36, "velocity": 64}, {"time": 612, "pitch": 53, "duration": 12, "velocity": 64}, {"time": 624, "pitch": 52, "duration": 24, "velocity": 64}, {"time": 648, "pitch": 50, "duration": 60, "velocity": 64}, {"time": 684, "pitch": 55, "duration": 12, "velocity": 64}, {"time": 708, "pitch": 45, "duration": 12, "velocity": 64}, {"time": 720, "pitch": 46, "duration": 12, "velocity": 64}, {"time": 732, "pitch": 48, "duration": 12, "velocity": 64}, {"time": 744, "pitch": 41, "duration": 24, "velocity": 64}, {"time": 768, "pitch": 53, "duration": 12, "velocity": 64}, {"time": 780, "pitch": 51, "duration": 12, "velocity": 64}, {"time": 792, "pitch": 50, "duration": 12, "velocity": 64}, {"time": 804, "pitch": 51, "duration": 12, "velocity": 64}, {"time": 816, "pitch": 50, "duration": 12, "velocity": 64}, {"time": 828, "pitch": 48, "duration": 12, "velocity": 64}, {"time": 840, "pitch": 46, "duration": 12, "velocity": 64}, {"time": 852, "pitch": 48, "duration": 12, "velocity": 64}, {"time": 864, "pitch": 46, "duration": 12, "velocity": 64}, {"time": 876, "pitch": 45, "duration": 12, "velocity": 64}, {"time": 888, "pitch": 43, "duration": 12, "velocity": 64}, {"time": 900, "pitch": 46, "duration": 12, "velocity": 64}, {"time": 912, "pitch": 51, "duration": 12, "velocity": 64}, {"time": 924, "pitch": 50, "duration": 12, "velocity": 64}, {"time": 936, "pitch": 48, "duration": 12, "velocity": 64}, {"time": 948, "pitch": 45, "duration": 12, "velocity": 64}, {"time": 960, "pitch": 50, "duration": 24, "velocity": 64}, {"time": 984, "pitch": 43, "duration": 72, "velocity": 64}]}]}