{"metadata": {"schema_version": "0.1", "title": "bwv365.mxl", "creators": ["J.S. Bach"]}, "resolution": 24, "tempos": [{"time": 0, "qpm": 120.0}], "key_signatures": [{"time": 0, "root": 0, "mode": "major", "fifths": 0}, {"time": 0, "fifths": 0}], "time_signatures": [{"time": 0, "numerator": 4, "denominator": 4}], "beats": [{"time": 0.0, "is_downbeat": true}, {"time": 24.0, "is_downbeat": false}, {"time": 48.0, "is_downbeat": false}, {"time": 72.0, "is_downbeat": false}, {"time": 96.0, "is_downbeat": true}, {"time": 120.0, "is_downbeat": false}, {"time": 144.0, "is_downbeat": false}, {"time": 168.0, "is_downbeat": false}, {"time": 192.0, "is_downbeat": true}, {"time": 216.0, "is_downbeat": false}, {"time": 240.0, "is_downbeat": false}, {"time": 264.0, "is_downbeat": false}, {"time": 288.0, "is_downbeat": true}, {"time": 312.0, "is_downbeat": false}, {"time": 336.0, "is_downbeat": false}, {"time": 360.0, "is_downbeat": false}, {"time": 384.0, "is_downbeat": true}, {"time": 408.0, "is_downbeat": false}, {"time": 432.0, "is_downbeat": false}, {"time": 456.0, "is_downbeat": false}, {"time": 480.0, "is_downbeat": true}, {"time": 504.0, "is_downbeat": false}, {"time": 528.0, "is_downbeat": false}, {"time": 552.0, "is_downbeat": false}, {"time": 576.0, "is_downbeat": true}, {"time": 600.0, "is_downbeat": false}, {"time": 624.0, "is_downbeat": false}, {"time": 648.0, "is_downbeat": false}, {"time": 672.0, "is_downbeat": true}, {"time": 696.0, "is_downbeat": false}, {"time": 720.0, "is_downbeat": false}, {"time": 744.0, "is_downbeat": false}, {"time": 768.0, "is_downbeat": true}, {"time": 792.0, "is_downbeat": false}, {"time": 816.0, "is_downbeat": false}, {"time": 840.0, "is_downbeat": false}], "tracks": [{"program": 73, "is_drum": false, "name": "Soprano", "notes": [{"time": 0, "pitch": 67, "duration": 24, "velocity": 64}, {"time": 24, "pitch": 64, "duration": 24, "velocity": 64}, {"time": 48, "pitch": 69, "duration": 24, "velocity": 64}, {"time": 72, "pitch": 71, "duration": 24, "velocity": 64}, {"time": 96, "pitch": 72, "duration": 24, "velocity": 64}, {"time": 120, "pitch": 69, "duration": 48, "velocity": 64}, {"time": 120, "pitch": 72, "duration": 24, "velocity": 64}, {"time": 144, "pitch": 71, "duration": 48, "velocity": 64}, {"time": 192, "pitch": 69, "duration": 12, "velocity": 64}, {"time": 204, "pitch": 71, "duration": 12, "velocity": 64}, {"time": 216, "pitch": 72, "duration": 24, "velocity": 64}, {"time": 288, "pitch": 65, "duration": 24, "velocity": 64}, {"time": 312, "pitch": 64, "duration": 24, "velocity": 64}, {"time": 336, "pitch": 62, "duration": 48, "velocity": 64}, {"time": 384, "pitch": 60, "duration": 96, "velocity": 64}, {"time": 480, "pitch": 64, "duration": 24, "velocity": 64}, {"time": 504, "pitch": 66, "duration": 24, "velocity": 64}, {"time": 552, "pitch": 69, "duration": 24, "velocity": 64}, {"time": 576, "pitch": 71, "duration": 24, "velocity": 64}, {"time": 600, "pitch": 71, "duration": 24, "velocity": 64}, {"time": 624, "pitch": 69, "duration": 48, "velocity": 64}, {"time": 672, "pitch": 71, "duration": 24, "velocity": 64}, {"time": 696, "pitch": 72, "duration": 24, "velocity": 64}, {"time": 720, "pitch": 74, "duration": 24, "velocity": 64}, {"time": 744, "pitch": 76, "duration": 24, "velocity": 64}, {"time": 768, "pitch": 74, "duration": 36, "velocity": 64}, {"time": 804, "pitch": 67, "duration": 6, "velocity": 64}, {"time": 804, "pitch": 72, "duration": 12, "velocity": 64}, {"time": 816, "pitch": 72, "duration": 48, "velocity": 64}]}, {"program": 68, "is_drum": false, "name": "Alto", "notes": [{"time": 0, "pitch": 64, "duration": 24, "velocity": 64}, {"time": 24, "pitch": 60, "duration": 12, "velocity": 64}, {"time": 36, "pitch": 62, "duration": 12, "velocity": 64}, {"time": 48, "pitch": 64, "duration": 24, "velocity": 64}, {"time": 72, "pitch": 64, "duration": 24, "velocity": 64}, {"time": 96, "pitch": 64, "duration": 24, "velocity": 64}, {"time": 168, "pitch": 68, "duration": 24, "velocity": 64}, {"time": 192, "pitch": 69, "duration": 24, "velocity": 64}, {"time": 216, "pitch": 67, "duration": 12, "velocity": 64}, {"time": 240, "pitch": 67, "duration": 24, "velocity": 64}, {"time": 264, "pitch": 64, "duration": 24, "velocity": 64}, {"time": 288, "pitch": 60, "duration": 12, "velocity": 64}, {"time": 300, "pitch": 62, "duration": 24, "velocity": 64}, {"time": 324, "pitch": 60, "duration": 12, "velocity": 64}, {"time": 336, "pitch": 60, "duration": 24, "velocity": 64}, {"time": 360, "pitch": 59, "duration": 24, "velocity": 64}, {"time": 384, "pitch": 55, "duration": 96, "velocity": 64}, {"time": 480, "pitch": 60, "duration": 24, "velocity": 64}, {"time": 504, "pitch": 62, "duration": 36, "velocity": 64}, {"time": 528, "pitch": 68, "duration": 24, "velocity": 64}, {"time": 540, "pitch": 62, "duration": 12, "velocity": 64}, {"time": 540, "pitch": 65, "duration": 12, "velocity": 64}, {"time": 552, "pitch": 64, "duration": 12, "velocity": 64}, {"time": 564, "pitch": 60, "duration": 12, "velocity": 64}, {"time": 576, "pitch": 65, "duration": 12, "velocity": 64}, {"time": 588, "pitch": 62, "duration": 12, "velocity": 64}, {"time": 612, "pitch": 64, "duration": 6, "velocity": 64}, {"time": 618, "pitch": 62, "duration": 6, "velocity": 64}, {"time": 624, "pitch": 60, "duration": 48, "velocity": 64}, {"time": 672, "pitch": 67, "duration": 24, "velocity": 64}, {"time": 696, "pitch": 67, "duration": 24, "velocity": 64}, {"time": 720, "pitch": 67, "duration": 24, "velocity": 64}, {"time": 744, "pitch": 67, "duration": 24, "velocity": 64}, {"time": 768, "pitch": 69, "duration": 12, "velocity": 64}, {"time": 780, "pitch": 65, "duration": 12, "velocity": 64}, {"time": 792, "pitch": 62, "duration": 12, "velocity": 64}, {"time": 810, "pitch": 65, "duration": 6, "velocity": 64}, {"time": 816, "pitch": 64, "duration": 48, "velocity": 64}]}, {"program": 70, "is_drum": false, "name": "Tenor", "notes": [{"time": 0, "pitch": 60, "duration": 24, "velocity": 64}, {"time": 24, "pitch": 55, "duration": 24, "velocity": 64}, {"time": 48, "pitch": 60, "duration": 24, "velocity": 64}, {"time": 72, "pitch": 59, "duration": 24, "velocity": 64}, {"time": 96, "pitch": 57, "duration": 24, "velocity": 64}, {"time": 120, "pitch": 64, "duration": 24, "velocity": 64}, {"time": 144, "pitch": 64, "duration": 48, "velocity": 64}, {"time": 192, "pitch": 60, "duration": 36, "velocity": 64}, {"time": 228, "pitch": 64, "duration": 12, "velocity": 64}, {"time": 240, "pitch": 62, "duration": 36, "velocity": 64}, {"time": 252, "pitch": 59, "duration": 12, "velocity": 64}, {"time": 264, "pitch": 55, "duration": 12, "velocity": 64}, {"time": 276, "pitch": 55, "duration": 12, "velocity": 64}, {"time": 288, "pitch": 57, "duration": 12, "velocity": 64}, {"time": 300, "pitch": 55, "duration": 12, "velocity": 64}, {"time": 312, "pitch": 55, "duration": 24, "velocity": 64}, {"time": 336, "pitch": 57, "duration": 24, "velocity": 64}, {"time": 360, "pitch": 55, "duration": 12, "velocity": 64}, {"time": 372, "pitch": 53, "duration": 12, "velocity": 64}, {"time": 384, "pitch": 52, "duration": 96, "velocity": 64}, {"time": 480, "pitch": 55, "duration": 24, "velocity": 64}, {"time": 504, "pitch": 57, "duration": 24, "velocity": 64}, {"time": 528, "pitch": 59, "duration": 12, "velocity": 64}, {"time": 552, "pitch": 60, "duration": 12, "velocity": 64}, {"time": 564, "pitch": 57, "duration": 12, "velocity": 64}, {"time": 576, "pitch": 57, "duration": 36, "velocity": 64}, {"time": 600, "pitch": 59, "duration": 12, "velocity": 64}, {"time": 612, "pitch": 56, "duration": 12, "velocity": 64}, {"time": 624, "pitch": 57, "duration": 48, "velocity": 64}, {"time": 672, "pitch": 62, "duration": 24, "velocity": 64}, {"time": 696, "pitch": 64, "duration": 24, "velocity": 64}, {"time": 720, "pitch": 62, "duration": 24, "velocity": 64}, {"time": 744, "pitch": 60, "duration": 24, "velocity": 64}, {"time": 768, "pitch": 60, "duration": 24, "velocity": 64}, {"time": 792, "pitch": 59, "duration": 24, "velocity": 64}, {"time": 816, "pitch": 55, "duration": 48, "velocity": 64}]}, {"program": 71, "is_drum": false, "name": "Bass", "notes": [{"time": 0, "pitch": 48, "duration": 24, "velocity": 64}, {"time": 24, "pitch": 48, "duration": 12, "velocity": 64}, {"time": 36, "pitch": 47, "duration": 12, "velocity": 64}, {"time": 48, "pitch": 45, "duration": 24, "velocity": 64}, {"time": 72, "pitch": 44, "duration": 24, "velocity": 64}, {"time": 96, "pitch": 45, "duration": 12, "velocity": 64}, {"time": 108, "pitch": 47, "duration": 12, "velocity": 64}, {"time": 120, "pitch": 48, "duration": 12, "velocity": 64}, {"time": 132, "pitch": 50, "duration": 12, "velocity": 64}, {"time": 144, "pitch": 52, "duration": 48, "velocity": 64}, {"time": 192, "pitch": 53, "duration": 24, "velocity": 64}, {"time": 216, "pitch": 52, "duration": 24, "velocity": 64}, {"time": 228, "pitch": 55, "duration": 24, "velocity": 64}, {"time": 240, "pitch": 47, "duration": 12, "velocity": 64}, {"time": 252, "pitch": 43, "duration": 12, "velocity": 64}, {"time": 264, "pitch": 48, "duration": 24, "velocity": 64}, {"time": 276, "pitch": 52, "duration": 12, "velocity": 64}, {"time": 288, "pitch": 45, "duration": 12, "velocity": 64}, {"time": 300, "pitch": 47, "duration": 12, "velocity": 64}, {"time": 312, "pitch": 48, "duration": 24, "velocity": 64}, {"time": 336, "pitch": 41, "duration": 24, "velocity": 64}, {"time": 360, "pitch": 43, "duration": 24, "velocity": 64}, {"time": 384, "pitch": 36, "duration": 96, "velocity": 64}, {"time": 480, "pitch": 48, "duration": 12, "velocity": 64}, {"time": 492, "pitch": 36, "duration": 12, "velocity": 64}, {"time": 504, "pitch": 48, "duration": 24, "velocity": 64}, {"time": 528, "pitch": 47, "duration": 24, "velocity": 64}, {"time": 552, "pitch": 48, "duration": 12, "velocity": 64}, {"time": 564, "pitch": 53, "duration": 12, "velocity": 64}, {"time": 576, "pitch": 50, "duration": 12, "velocity": 64}, {"time": 588, "pitch": 47, "duration": 12, "velocity": 64}, {"time": 600, "pitch": 52, "duration": 24, "velocity": 64}, {"time": 624, "pitch": 45, "duration": 48, "velocity": 64}, {"time": 672, "pitch": 55, "duration": 12, "velocity": 64}, {"time": 684, "pitch": 53, "duration": 12, "velocity": 64}, {"time": 696, "pitch": 52, "duration": 12, "velocity": 64}, {"time": 708, "pitch": 50, "duration": 12, "velocity": 64}, {"time": 720, "pitch": 48, "duration": 12, "velocity": 64}, {"time": 732, "pitch": 47, "duration": 12, "velocity": 64}, {"time": 744, "pitch": 48, "duration": 12, "velocity": 64}, {"time": 756, "pitch": 52, "duration": 12, "velocity": 64}, {"time": 768, "pitch": 53, "duration": 12, "velocity": 64}, {"time": 780, "pitch": 50, "duration": 12, "velocity": 64}, {"time": 792, "pitch": 55, "duration": 24, "velocity": 64}, {"time": 816, "pitch": 48, "duration": 48, "velocity": 64}]}]}