{"metadata": {"schema_version": "0.1", "title": "RWC-MDB-P-2001 No. 19: COOL Motion / Hisayoshi Kazato", "copyright": "RWC Music Database. Copyright (C) 2001 Real World Computing Partnership (contact: Masataka GOTO <m.goto@aist.go.jp>)", "source_filename": "RM-P019.SMF_SYNC.MID", "source_format": "midi"}, "resolution": 480, "tempos": [{"time": 0, "qpm": 58.8235294117647}, {"time": 480, "qpm": 130.43478260869566}, {"time": 2400, "qpm": 127.65957446808511}, {"time": 2880, "qpm": 130.43478260869566}, {"time": 5280, "qpm": 127.65957446808511}, {"time": 5760, "qpm": 130.43478260869566}, {"time": 8160, "qpm": 127.65957446808511}, {"time": 8640, "qpm": 130.43478260869566}, {"time": 11520, "qpm": 127.65957446808511}, {"time": 12000, "qpm": 130.43478260869566}, {"time": 14880, "qpm": 127.65957446808511}, {"time": 15360, "qpm": 130.43478260869566}, {"time": 17760, "qpm": 127.65957446808511}, {"time": 18240, "qpm": 130.43478260869566}, {"time": 20640, "qpm": 127.65957446808511}, {"time": 21120, "qpm": 130.43478260869566}, {"time": 23520, "qpm": 127.65957446808511}, {"time": 24000, "qpm": 130.43478260869566}, {"time": 26880, "qpm": 127.65957446808511}, {"time": 27360, "qpm": 130.43478260869566}, {"time": 30240, "qpm": 127.65957446808511}, {"time": 30720, "qpm": 130.43478260869566}, {"time": 33120, "qpm": 127.65957446808511}, {"time": 33600, "qpm": 130.43478260869566}, {"time": 36480, "qpm": 127.65957446808511}, {"time": 36960, "qpm": 130.43478260869566}, {"time": 39360, "qpm": 127.65957446808511}, {"time": 39840, "qpm": 130.43478260869566}, {"time": 42720, "qpm": 127.65957446808511}, {"time": 43200, "qpm": 130.43478260869566}, {"time": 45600, "qpm": 127.65957446808511}, {"time": 46080, "qpm": 130.43478260869566}, {"time": 48960, "qpm": 127.65957446808511}, {"time": 49440, "qpm": 130.43478260869566}, {"time": 52320, "qpm": 127.65957446808511}, {"time": 52800, "qpm": 130.43478260869566}, {"time": 55200, "qpm": 127.65957446808511}, {"time": 55680, "qpm": 130.43478260869566}, {"time": 58080, "qpm": 127.65957446808511}, {"time": 58560, "qpm": 130.43478260869566}, {"time": 61440, "qpm": 127.65957446808511}, {"time": 61920, "qpm": 130.43478260869566}, {"time": 64320, "qpm": 127.65957446808511}, {"time": 64800, "qpm": 130.43478260869566}, {"time": 67680, "qpm": 127.65957446808511}, {"time": 68160, "qpm": 130.43478260869566}, {"time": 70560, "qpm": 127.65957446808511}, {"time": 71040, "qpm": 130.43478260869566}, {"time": 73920, "qpm": 127.65957446808511}, {"time": 74400, "qpm": 130.43478260869566}, {"time": 77280, "qpm": 127.65957446808511}, {"time": 77760, "qpm": 130.43478260869566}, {"time": 79200, "qpm": 127.65957446808511}, {"time": 79680, "qpm": 130.43478260869566}, {"time": 83040, "qpm": 127.65957446808511}, {"time": 83520, "qpm": 130.43478260869566}, {"time": 86400, "qpm": 127.65957446808511}, {"time": 86880, "qpm": 130.43478260869566}, {"time": 89280, "qpm": 127.65957446808511}, {"time": 89760, "qpm": 130.43478260869566}, {"time": 92640, "qpm": 127.65957446808511}, {"time": 93120, "qpm": 130.43478260869566}, {"time": 96000, "qpm": 127.65957446808511}, {"time": 96480, "qpm": 130.43478260869566}, {"time": 98880, "qpm": 127.65957446808511}, {"time": 99360, "qpm": 130.43478260869566}, {"time": 102240, "qpm": 127.65957446808511}, {"time": 102720, "qpm": 130.43478260869566}, {"time": 104640, "qpm": 127.65957446808511}, {"time": 105120, "qpm": 130.43478260869566}, {"time": 108000, "qpm": 127.65957446808511}, {"time": 108480, "qpm": 130.43478260869566}, {"time": 111840, "qpm": 127.65957446808511}, {"time": 112320, "qpm": 130.43478260869566}, {"time": 114720, "qpm": 127.65957446808511}, {"time": 115200, "qpm": 130.43478260869566}, {"time": 117600, "qpm": 127.65957446808511}, {"time": 118080, "qpm": 130.43478260869566}, {"time": 120480, "qpm": 127.65957446808511}, {"time": 120960, "qpm": 130.43478260869566}, {"time": 123840, "qpm": 127.65957446808511}, {"time": 124320, "qpm": 130.43478260869566}, {"time": 127200, "qpm": 127.65957446808511}, {"time": 127680, "qpm": 130.43478260869566}, {"time": 130080, "qpm": 127.65957446808511}, {"time": 130560, "qpm": 130.43478260869566}, {"time": 132960, "qpm": 127.65957446808511}, {"time": 133440, "qpm": 130.43478260869566}, {"time": 136800, "qpm": 127.65957446808511}, {"time": 137280, "qpm": 130.43478260869566}, {"time": 139200, "qpm": 127.65957446808511}, {"time": 139680, "qpm": 130.43478260869566}, {"time": 142560, "qpm": 127.65957446808511}, {"time": 143040, "qpm": 130.43478260869566}, {"time": 145920, "qpm": 127.65957446808511}, {"time": 146400, "qpm": 130.43478260869566}, {"time": 148800, "qpm": 127.65957446808511}, {"time": 149280, "qpm": 130.43478260869566}, {"time": 152160, "qpm": 127.65957446808511}, {"time": 152640, "qpm": 130.43478260869566}, {"time": 154560, "qpm": 127.65957446808511}, {"time": 155040, "qpm": 130.43478260869566}, {"time": 157920, "qpm": 127.65957446808511}, {"time": 158400, "qpm": 130.43478260869566}, {"time": 160800, "qpm": 127.65957446808511}, {"time": 161280, "qpm": 133.33333333333334}, {"time": 161760, "qpm": 127.65957446808511}, {"time": 162240, "qpm": 130.43478260869566}, {"time": 164160, "qpm": 127.65957446808511}, {"time": 164640, "qpm": 130.43478260869566}, {"time": 167520, "qpm": 127.65957446808511}, {"time": 168000, "qpm": 130.43478260869566}, {"time": 170880, "qpm": 127.65957446808511}, {"time": 171360, "qpm": 130.43478260869566}, {"time": 173760, "qpm": 127.65957446808511}, {"time": 174240, "qpm": 130.43478260869566}, {"time": 177120, "qpm": 127.65957446808511}, {"time": 177600, "qpm": 130.43478260869566}, {"time": 180000, "qpm": 127.65957446808511}, {"time": 180480, "qpm": 130.43478260869566}, {"time": 182880, "qpm": 127.65957446808511}, {"time": 183360, "qpm": 130.43478260869566}, {"time": 186720, "qpm": 127.65957446808511}, {"time": 187200, "qpm": 130.43478260869566}, {"time": 189120, "qpm": 127.65957446808511}, {"time": 189600, "qpm": 130.43478260869566}, {"time": 192480, "qpm": 127.65957446808511}, {"time": 192960, "qpm": 130.43478260869566}, {"time": 195360, "qpm": 127.65957446808511}, {"time": 195840, "qpm": 130.43478260869566}, {"time": 198720, "qpm": 127.65957446808511}, {"time": 199200, "qpm": 130.43478260869566}, {"time": 202080, "qpm": 127.65957446808511}, {"time": 202560, "qpm": 130.43478260869566}, {"time": 204960, "qpm": 127.65957446808511}, {"time": 205440, "qpm": 130.43478260869566}, {"time": 207840, "qpm": 127.65957446808511}, {"time": 208320, "qpm": 130.43478260869566}, {"time": 211680, "qpm": 127.65957446808511}, {"time": 212160, "qpm": 130.43478260869566}, {"time": 214560, "qpm": 127.65957446808511}, {"time": 215040, "qpm": 130.43478260869566}, {"time": 217440, "qpm": 127.65957446808511}, {"time": 217920, "qpm": 130.43478260869566}, {"time": 220320, "qpm": 127.65957446808511}, {"time": 220800, "qpm": 130.43478260869566}, {"time": 223680, "qpm": 127.65957446808511}, {"time": 224160, "qpm": 130.43478260869566}, {"time": 227040, "qpm": 127.65957446808511}, {"time": 227520, "qpm": 130.43478260869566}, {"time": 229920, "qpm": 127.65957446808511}, {"time": 230400, "qpm": 130.43478260869566}, {"time": 233280, "qpm": 127.65957446808511}, {"time": 233760, "qpm": 130.43478260869566}, {"time": 236160, "qpm": 127.65957446808511}, {"time": 236640, "qpm": 130.43478260869566}, {"time": 239040, "qpm": 127.65957446808511}, {"time": 239520, "qpm": 130.43478260869566}, {"time": 242400, "qpm": 127.65957446808511}, {"time": 242880, "qpm": 130.43478260869566}, {"time": 245280, "qpm": 127.65957446808511}, {"time": 245760, "qpm": 130.43478260869566}, {"time": 248640, "qpm": 127.65957446808511}, {"time": 249120, "qpm": 130.43478260869566}, {"time": 251520, "qpm": 127.65957446808511}, {"time": 252000, "qpm": 130.43478260869566}, {"time": 254880, "qpm": 127.65957446808511}, {"time": 255360, "qpm": 130.43478260869566}, {"time": 257760, "qpm": 127.65957446808511}, {"time": 258240, "qpm": 130.43478260869566}, {"time": 261120, "qpm": 127.65957446808511}, {"time": 261600, "qpm": 130.43478260869566}, {"time": 264000, "qpm": 127.65957446808511}, {"time": 264480, "qpm": 130.43478260869566}, {"time": 267360, "qpm": 127.65957446808511}, {"time": 267840, "qpm": 130.43478260869566}, {"time": 270720, "qpm": 127.65957446808511}, {"time": 271200, "qpm": 130.43478260869566}, {"time": 273600, "qpm": 127.65957446808511}, {"time": 274080, "qpm": 130.43478260869566}, {"time": 276480, "qpm": 127.65957446808511}, {"time": 276960, "qpm": 130.43478260869566}, {"time": 279840, "qpm": 127.65957446808511}, {"time": 280320, "qpm": 130.43478260869566}, {"time": 282720, "qpm": 127.65957446808511}, {"time": 283200, "qpm": 130.43478260869566}, {"time": 285600, "qpm": 127.65957446808511}, {"time": 286080, "qpm": 130.43478260869566}, {"time": 289440, "qpm": 127.65957446808511}, {"time": 289920, "qpm": 130.43478260869566}], "key_signatures": [{"time": 0, "root": 11, "mode": "minor"}], "time_signatures": [{"time": 0, "numerator": 1, "denominator": 4}, {"time": 480, "numerator": 4, "denominator": 4}], "tracks": [{"program": 0, "is_drum": false, "name": "Piano", "notes": [{"time": 15845, "pitch": 55, "duration": 226, "velocity": 80}, {"time": 15845, "pitch": 62, "duration": 265, "velocity": 100}, {"time": 15845, "pitch": 67, "duration": 255, "velocity": 100}, {"time": 15845, "pitch": 71, "duration": 265, "velocity": 110}, {"time": 16198, "pitch": 55, "duration": 148, "velocity": 80}, {"time": 16198, "pitch": 62, "duration": 148, "velocity": 100}, {"time": 16198, "pitch": 67, "duration": 178, "velocity": 100}, {"time": 16198, "pitch": 71, "duration": 168, "velocity": 110}, {"time": 16557, "pitch": 55, "duration": 211, "velocity": 80}, {"time": 16557, "pitch": 62, "duration": 221, "velocity": 100}, {"time": 16557, "pitch": 67, "duration": 251, "velocity": 100}, {"time": 16557, "pitch": 71, "duration": 241, "velocity": 110}, {"time": 16918, "pitch": 57, "duration": 211, "velocity": 80}, {"time": 16918, "pitch": 64, "duration": 221, "velocity": 100}, {"time": 16918, "pitch": 69, "duration": 241, "velocity": 100}, {"time": 16918, "pitch": 73, "duration": 241, "velocity": 110}, {"time": 17279, "pitch": 57, "duration": 101, "velocity": 80}, {"time": 17279, "pitch": 64, "duration": 111, "velocity": 100}, {"time": 17279, "pitch": 69, "duration": 131, "velocity": 100}, {"time": 17279, "pitch": 73, "duration": 121, "velocity": 110}, {"time": 17520, "pitch": 57, "duration": 100, "velocity": 80}, {"time": 17520, "pitch": 64, "duration": 80, "velocity": 100}, {"time": 17520, "pitch": 69, "duration": 90, "velocity": 100}, {"time": 17520, "pitch": 73, "duration": 70, "velocity": 110}, {"time": 17761, "pitch": 54, "duration": 200, "velocity": 80}, {"time": 17761, "pitch": 61, "duration": 221, "velocity": 100}, {"time": 17761, "pitch": 64, "duration": 231, "velocity": 100}, {"time": 17761, "pitch": 69, "duration": 221, "velocity": 110}, {"time": 18122, "pitch": 54, "duration": 171, "velocity": 80}, {"time": 18122, "pitch": 61, "duration": 191, "velocity": 100}, {"time": 18122, "pitch": 64, "duration": 191, "velocity": 100}, {"time": 18122, "pitch": 69, "duration": 201, "velocity": 110}, {"time": 18483, "pitch": 54, "duration": 231, "velocity": 80}, {"time": 18483, "pitch": 61, "duration": 241, "velocity": 100}, {"time": 18483, "pitch": 64, "duration": 231, "velocity": 100}, {"time": 18483, "pitch": 69, "duration": 241, "velocity": 110}, {"time": 18842, "pitch": 47, "duration": 216, "velocity": 80}, {"time": 18842, "pitch": 61, "duration": 206, "velocity": 100}, {"time": 18842, "pitch": 66, "duration": 226, "velocity": 100}, {"time": 18842, "pitch": 69, "duration": 226, "velocity": 110}, {"time": 19195, "pitch": 47, "duration": 121, "velocity": 80}, {"time": 19195, "pitch": 61, "duration": 100, "velocity": 100}, {"time": 19195, "pitch": 66, "duration": 110, "velocity": 100}, {"time": 19195, "pitch": 69, "duration": 110, "velocity": 110}, {"time": 19436, "pitch": 47, "duration": 110, "velocity": 80}, {"time": 19436, "pitch": 61, "duration": 100, "velocity": 100}, {"time": 19436, "pitch": 66, "duration": 110, "velocity": 100}, {"time": 19436, "pitch": 69, "duration": 110, "velocity": 110}, {"time": 19677, "pitch": 52, "duration": 210, "velocity": 80}, {"time": 19677, "pitch": 62, "duration": 230, "velocity": 100}, {"time": 19677, "pitch": 67, "duration": 251, "velocity": 100}, {"time": 19677, "pitch": 71, "duration": 240, "velocity": 110}, {"time": 20038, "pitch": 52, "duration": 221, "velocity": 80}, {"time": 20038, "pitch": 62, "duration": 191, "velocity": 100}, {"time": 20038, "pitch": 67, "duration": 211, "velocity": 100}, {"time": 20038, "pitch": 71, "duration": 211, "velocity": 110}, {"time": 20399, "pitch": 52, "duration": 211, "velocity": 80}, {"time": 20399, "pitch": 62, "duration": 211, "velocity": 100}, {"time": 20399, "pitch": 67, "duration": 221, "velocity": 100}, {"time": 20399, "pitch": 71, "duration": 241, "velocity": 110}, {"time": 20760, "pitch": 54, "duration": 201, "velocity": 80}, {"time": 20760, "pitch": 64, "duration": 211, "velocity": 100}, {"time": 20760, "pitch": 69, "duration": 221, "velocity": 100}, {"time": 20760, "pitch": 73, "duration": 211, "velocity": 110}, {"time": 21121, "pitch": 54, "duration": 131, "velocity": 80}, {"time": 21121, "pitch": 64, "duration": 91, "velocity": 100}, {"time": 21121, "pitch": 69, "duration": 111, "velocity": 100}, {"time": 21121, "pitch": 73, "duration": 121, "velocity": 110}, {"time": 21362, "pitch": 54, "duration": 121, "velocity": 80}, {"time": 21362, "pitch": 64, "duration": 81, "velocity": 100}, {"time": 21362, "pitch": 69, "duration": 101, "velocity": 100}, {"time": 21362, "pitch": 73, "duration": 91, "velocity": 110}, {"time": 21603, "pitch": 55, "duration": 191, "velocity": 80}, {"time": 21603, "pitch": 66, "duration": 191, "velocity": 100}, {"time": 21603, "pitch": 71, "duration": 221, "velocity": 100}, {"time": 21603, "pitch": 74, "duration": 221, "velocity": 110}, {"time": 21964, "pitch": 55, "duration": 199, "velocity": 80}, {"time": 21964, "pitch": 66, "duration": 179, "velocity": 100}, {"time": 21964, "pitch": 71, "duration": 209, "velocity": 100}, {"time": 21964, "pitch": 74, "duration": 199, "velocity": 110}, {"time": 22320, "pitch": 55, "duration": 236, "velocity": 80}, {"time": 22320, "pitch": 66, "duration": 246, "velocity": 100}, {"time": 22320, "pitch": 71, "duration": 256, "velocity": 100}, {"time": 22320, "pitch": 74, "duration": 266, "velocity": 110}, {"time": 22676, "pitch": 57, "duration": 231, "velocity": 80}, {"time": 22676, "pitch": 69, "duration": 221, "velocity": 100}, {"time": 22676, "pitch": 73, "duration": 241, "velocity": 100}, {"time": 22676, "pitch": 76, "duration": 241, "velocity": 110}, {"time": 23037, "pitch": 57, "duration": 111, "velocity": 80}, {"time": 23037, "pitch": 69, "duration": 111, "velocity": 100}, {"time": 23037, "pitch": 73, "duration": 141, "velocity": 100}, {"time": 23037, "pitch": 76, "duration": 131, "velocity": 110}, {"time": 23278, "pitch": 57, "duration": 111, "velocity": 80}, {"time": 23278, "pitch": 69, "duration": 90, "velocity": 100}, {"time": 23278, "pitch": 73, "duration": 121, "velocity": 100}, {"time": 23278, "pitch": 76, "duration": 111, "velocity": 110}, {"time": 23519, "pitch": 55, "duration": 231, "velocity": 80}, {"time": 23519, "pitch": 62, "duration": 271, "velocity": 100}, {"time": 23519, "pitch": 67, "duration": 261, "velocity": 100}, {"time": 23519, "pitch": 71, "duration": 271, "velocity": 110}, {"time": 23880, "pitch": 55, "duration": 151, "velocity": 80}, {"time": 23880, "pitch": 62, "duration": 151, "velocity": 100}, {"time": 23880, "pitch": 67, "duration": 181, "velocity": 100}, {"time": 23880, "pitch": 71, "duration": 171, "velocity": 110}, {"time": 24241, "pitch": 55, "duration": 211, "velocity": 80}, {"time": 24241, "pitch": 62, "duration": 221, "velocity": 100}, {"time": 24241, "pitch": 67, "duration": 251, "velocity": 100}, {"time": 24241, "pitch": 71, "duration": 241, "velocity": 110}, {"time": 24603, "pitch": 57, "duration": 210, "velocity": 80}, {"time": 24603, "pitch": 64, "duration": 220, "velocity": 100}, {"time": 24603, "pitch": 69, "duration": 240, "velocity": 100}, {"time": 24603, "pitch": 73, "duration": 240, "velocity": 110}, {"time": 24964, "pitch": 57, "duration": 98, "velocity": 80}, {"time": 24964, "pitch": 64, "duration": 108, "velocity": 100}, {"time": 24964, "pitch": 69, "duration": 127, "velocity": 100}, {"time": 24964, "pitch": 73, "duration": 117, "velocity": 110}, {"time": 25199, "pitch": 57, "duration": 98, "velocity": 80}, {"time": 25199, "pitch": 64, "duration": 79, "velocity": 100}, {"time": 25199, "pitch": 69, "duration": 89, "velocity": 100}, {"time": 25199, "pitch": 73, "duration": 69, "velocity": 110}, {"time": 25435, "pitch": 54, "duration": 201, "velocity": 80}, {"time": 25435, "pitch": 61, "duration": 221, "velocity": 100}, {"time": 25435, "pitch": 64, "duration": 231, "velocity": 100}, {"time": 25435, "pitch": 69, "duration": 221, "velocity": 110}, {"time": 25796, "pitch": 54, "duration": 171, "velocity": 80}, {"time": 25796, "pitch": 61, "duration": 191, "velocity": 100}, {"time": 25796, "pitch": 64, "duration": 191, "velocity": 100}, {"time": 25796, "pitch": 69, "duration": 201, "velocity": 110}, {"time": 26157, "pitch": 54, "duration": 231, "velocity": 80}, {"time": 26157, "pitch": 61, "duration": 241, "velocity": 100}, {"time": 26157, "pitch": 64, "duration": 231, "velocity": 100}, {"time": 26157, "pitch": 69, "duration": 241, "velocity": 110}, {"time": 26518, "pitch": 47, "duration": 221, "velocity": 80}, {"time": 26518, "pitch": 61, "duration": 211, "velocity": 100}, {"time": 26518, "pitch": 66, "duration": 231, "velocity": 100}, {"time": 26518, "pitch": 69, "duration": 231, "velocity": 110}, {"time": 26880, "pitch": 47, "duration": 120, "velocity": 80}, {"time": 26880, "pitch": 61, "duration": 100, "velocity": 100}, {"time": 26880, "pitch": 66, "duration": 110, "velocity": 100}, {"time": 26880, "pitch": 69, "duration": 110, "velocity": 110}, {"time": 27120, "pitch": 47, "duration": 111, "velocity": 80}, {"time": 27120, "pitch": 61, "duration": 101, "velocity": 100}, {"time": 27120, "pitch": 66, "duration": 111, "velocity": 100}, {"time": 27120, "pitch": 69, "duration": 111, "velocity": 110}, {"time": 27361, "pitch": 55, "duration": 211, "velocity": 80}, {"time": 27361, "pitch": 66, "duration": 231, "velocity": 100}, {"time": 27361, "pitch": 71, "duration": 251, "velocity": 100}, {"time": 27361, "pitch": 74, "duration": 241, "velocity": 110}, {"time": 27722, "pitch": 55, "duration": 221, "velocity": 80}, {"time": 27722, "pitch": 66, "duration": 191, "velocity": 100}, {"time": 27722, "pitch": 71, "duration": 211, "velocity": 100}, {"time": 27722, "pitch": 74, "duration": 211, "velocity": 110}, {"time": 28084, "pitch": 55, "duration": 210, "velocity": 80}, {"time": 28084, "pitch": 66, "duration": 210, "velocity": 100}, {"time": 28084, "pitch": 71, "duration": 220, "velocity": 100}, {"time": 28084, "pitch": 74, "duration": 240, "velocity": 110}, {"time": 28442, "pitch": 54, "duration": 196, "velocity": 80}, {"time": 28442, "pitch": 64, "duration": 206, "velocity": 100}, {"time": 28442, "pitch": 69, "duration": 216, "velocity": 100}, {"time": 28442, "pitch": 73, "duration": 206, "velocity": 110}, {"time": 28796, "pitch": 54, "duration": 130, "velocity": 80}, {"time": 28796, "pitch": 64, "duration": 90, "velocity": 100}, {"time": 28796, "pitch": 69, "duration": 110, "velocity": 100}, {"time": 28796, "pitch": 73, "duration": 120, "velocity": 110}, {"time": 29036, "pitch": 54, "duration": 121, "velocity": 80}, {"time": 29036, "pitch": 64, "duration": 81, "velocity": 100}, {"time": 29036, "pitch": 69, "duration": 101, "velocity": 100}, {"time": 29036, "pitch": 73, "duration": 91, "velocity": 110}, {"time": 29277, "pitch": 52, "duration": 191, "velocity": 80}, {"time": 29277, "pitch": 64, "duration": 191, "velocity": 100}, {"time": 29277, "pitch": 68, "duration": 221, "velocity": 100}, {"time": 29277, "pitch": 71, "duration": 221, "velocity": 110}, {"time": 29638, "pitch": 52, "duration": 201, "velocity": 80}, {"time": 29638, "pitch": 64, "duration": 181, "velocity": 100}, {"time": 29638, "pitch": 68, "duration": 211, "velocity": 100}, {"time": 29638, "pitch": 71, "duration": 201, "velocity": 110}, {"time": 29999, "pitch": 52, "duration": 241, "velocity": 80}, {"time": 29999, "pitch": 64, "duration": 251, "velocity": 100}, {"time": 29999, "pitch": 68, "duration": 261, "velocity": 100}, {"time": 29999, "pitch": 71, "duration": 271, "velocity": 110}, {"time": 30361, "pitch": 52, "duration": 200, "velocity": 80}, {"time": 30361, "pitch": 64, "duration": 210, "velocity": 100}, {"time": 30361, "pitch": 68, "duration": 220, "velocity": 100}, {"time": 30361, "pitch": 71, "duration": 210, "velocity": 110}, {"time": 30722, "pitch": 52, "duration": 130, "velocity": 80}, {"time": 30722, "pitch": 64, "duration": 90, "velocity": 100}, {"time": 30722, "pitch": 68, "duration": 110, "velocity": 100}, {"time": 30722, "pitch": 71, "duration": 120, "velocity": 110}, {"time": 30963, "pitch": 52, "duration": 120, "velocity": 80}, {"time": 30963, "pitch": 64, "duration": 80, "velocity": 100}, {"time": 30963, "pitch": 68, "duration": 100, "velocity": 100}, {"time": 30963, "pitch": 71, "duration": 90, "velocity": 110}, {"time": 31203, "pitch": 52, "duration": 191, "velocity": 80}, {"time": 31203, "pitch": 64, "duration": 191, "velocity": 100}, {"time": 31203, "pitch": 68, "duration": 221, "velocity": 100}, {"time": 31203, "pitch": 71, "duration": 221, "velocity": 110}, {"time": 31565, "pitch": 52, "duration": 198, "velocity": 80}, {"time": 31565, "pitch": 64, "duration": 179, "velocity": 100}, {"time": 31565, "pitch": 68, "duration": 208, "velocity": 100}, {"time": 31565, "pitch": 71, "duration": 198, "velocity": 110}, {"time": 31921, "pitch": 52, "duration": 235, "velocity": 80}, {"time": 31921, "pitch": 64, "duration": 245, "velocity": 100}, {"time": 31921, "pitch": 68, "duration": 255, "velocity": 100}, {"time": 31921, "pitch": 71, "duration": 265, "velocity": 110}, {"time": 32277, "pitch": 52, "duration": 200, "velocity": 80}, {"time": 32277, "pitch": 64, "duration": 210, "velocity": 100}, {"time": 32277, "pitch": 68, "duration": 220, "velocity": 100}, {"time": 32277, "pitch": 71, "duration": 210, "velocity": 110}, {"time": 32638, "pitch": 52, "duration": 130, "velocity": 80}, {"time": 32638, "pitch": 64, "duration": 90, "velocity": 100}, {"time": 32638, "pitch": 68, "duration": 110, "velocity": 100}, {"time": 32638, "pitch": 71, "duration": 120, "velocity": 110}, {"time": 32879, "pitch": 52, "duration": 120, "velocity": 80}, {"time": 32879, "pitch": 64, "duration": 80, "velocity": 100}, {"time": 32879, "pitch": 68, "duration": 100, "velocity": 100}, {"time": 32879, "pitch": 71, "duration": 90, "velocity": 110}, {"time": 33119, "pitch": 53, "duration": 231, "velocity": 80}, {"time": 33119, "pitch": 64, "duration": 291, "velocity": 100}, {"time": 33119, "pitch": 69, "duration": 251, "velocity": 100}, {"time": 33119, "pitch": 72, "duration": 241, "velocity": 110}, {"time": 33481, "pitch": 53, "duration": 220, "velocity": 80}, {"time": 33481, "pitch": 64, "duration": 260, "velocity": 100}, {"time": 33481, "pitch": 69, "duration": 230, "velocity": 100}, {"time": 33481, "pitch": 72, "duration": 210, "velocity": 110}, {"time": 33842, "pitch": 53, "duration": 271, "velocity": 80}, {"time": 33842, "pitch": 64, "duration": 291, "velocity": 100}, {"time": 33842, "pitch": 69, "duration": 251, "velocity": 100}, {"time": 33842, "pitch": 72, "duration": 241, "velocity": 110}, {"time": 34203, "pitch": 53, "duration": 181, "velocity": 80}, {"time": 34203, "pitch": 64, "duration": 241, "velocity": 100}, {"time": 34203, "pitch": 69, "duration": 211, "velocity": 100}, {"time": 34203, "pitch": 72, "duration": 170, "velocity": 110}, {"time": 34564, "pitch": 53, "duration": 108, "velocity": 80}, {"time": 34564, "pitch": 64, "duration": 137, "velocity": 100}, {"time": 34564, "pitch": 69, "duration": 108, "velocity": 100}, {"time": 34564, "pitch": 72, "duration": 98, "velocity": 110}, {"time": 34800, "pitch": 53, "duration": 88, "velocity": 80}, {"time": 34800, "pitch": 64, "duration": 127, "velocity": 100}, {"time": 34800, "pitch": 69, "duration": 98, "velocity": 100}, {"time": 34800, "pitch": 72, "duration": 78, "velocity": 110}, {"time": 35035, "pitch": 53, "duration": 191, "velocity": 80}, {"time": 35035, "pitch": 64, "duration": 201, "velocity": 100}, {"time": 35035, "pitch": 69, "duration": 231, "velocity": 100}, {"time": 35035, "pitch": 72, "duration": 231, "velocity": 110}, {"time": 35396, "pitch": 53, "duration": 181, "velocity": 80}, {"time": 35396, "pitch": 64, "duration": 211, "velocity": 100}, {"time": 35396, "pitch": 69, "duration": 221, "velocity": 100}, {"time": 35396, "pitch": 72, "duration": 201, "velocity": 110}, {"time": 35758, "pitch": 53, "duration": 220, "velocity": 80}, {"time": 35758, "pitch": 64, "duration": 250, "velocity": 100}, {"time": 35758, "pitch": 69, "duration": 250, "velocity": 100}, {"time": 35758, "pitch": 72, "duration": 240, "velocity": 110}, {"time": 36119, "pitch": 53, "duration": 180, "velocity": 80}, {"time": 36119, "pitch": 64, "duration": 231, "velocity": 100}, {"time": 36119, "pitch": 69, "duration": 241, "velocity": 100}, {"time": 36119, "pitch": 72, "duration": 231, "velocity": 110}, {"time": 36480, "pitch": 53, "duration": 90, "velocity": 80}, {"time": 36480, "pitch": 64, "duration": 110, "velocity": 100}, {"time": 36480, "pitch": 69, "duration": 110, "velocity": 100}, {"time": 36480, "pitch": 72, "duration": 100, "velocity": 110}, {"time": 36721, "pitch": 53, "duration": 100, "velocity": 80}, {"time": 36721, "pitch": 64, "duration": 80, "velocity": 110}, {"time": 36721, "pitch": 69, "duration": 80, "velocity": 110}, {"time": 36721, "pitch": 72, "duration": 70, "velocity": 110}, {"time": 36962, "pitch": 53, "duration": 210, "velocity": 80}, {"time": 36962, "pitch": 67, "duration": 240, "velocity": 100}, {"time": 36962, "pitch": 71, "duration": 240, "velocity": 100}, {"time": 36962, "pitch": 74, "duration": 230, "velocity": 110}, {"time": 37323, "pitch": 53, "duration": 180, "velocity": 80}, {"time": 37323, "pitch": 67, "duration": 190, "velocity": 100}, {"time": 37323, "pitch": 71, "duration": 200, "velocity": 100}, {"time": 37323, "pitch": 74, "duration": 190, "velocity": 110}, {"time": 37684, "pitch": 53, "duration": 241, "velocity": 80}, {"time": 37684, "pitch": 67, "duration": 241, "velocity": 100}, {"time": 37684, "pitch": 71, "duration": 250, "velocity": 100}, {"time": 37684, "pitch": 74, "duration": 241, "velocity": 110}, {"time": 38042, "pitch": 53, "duration": 197, "velocity": 80}, {"time": 38042, "pitch": 67, "duration": 197, "velocity": 100}, {"time": 38042, "pitch": 71, "duration": 217, "velocity": 100}, {"time": 38042, "pitch": 74, "duration": 207, "velocity": 110}, {"time": 38396, "pitch": 53, "duration": 110, "velocity": 80}, {"time": 38396, "pitch": 67, "duration": 80, "velocity": 100}, {"time": 38396, "pitch": 71, "duration": 100, "velocity": 100}, {"time": 38396, "pitch": 74, "duration": 90, "velocity": 110}, {"time": 38637, "pitch": 53, "duration": 90, "velocity": 80}, {"time": 38637, "pitch": 67, "duration": 70, "velocity": 100}, {"time": 38637, "pitch": 71, "duration": 90, "velocity": 100}, {"time": 38637, "pitch": 74, "duration": 90, "velocity": 110}, {"time": 38877, "pitch": 53, "duration": 191, "velocity": 80}, {"time": 38877, "pitch": 67, "duration": 221, "velocity": 100}, {"time": 38877, "pitch": 71, "duration": 231, "velocity": 100}, {"time": 38877, "pitch": 74, "duration": 221, "velocity": 110}, {"time": 39239, "pitch": 53, "duration": 160, "velocity": 80}, {"time": 39239, "pitch": 67, "duration": 180, "velocity": 100}, {"time": 39239, "pitch": 71, "duration": 180, "velocity": 100}, {"time": 39239, "pitch": 74, "duration": 180, "velocity": 110}, {"time": 39600, "pitch": 53, "duration": 211, "velocity": 80}, {"time": 39600, "pitch": 67, "duration": 251, "velocity": 100}, {"time": 39600, "pitch": 71, "duration": 251, "velocity": 100}, {"time": 39600, "pitch": 74, "duration": 251, "velocity": 110}, {"time": 39961, "pitch": 53, "duration": 211, "velocity": 80}, {"time": 39961, "pitch": 67, "duration": 221, "velocity": 100}, {"time": 39961, "pitch": 71, "duration": 231, "velocity": 100}, {"time": 39961, "pitch": 74, "duration": 221, "velocity": 110}, {"time": 40322, "pitch": 53, "duration": 111, "velocity": 80}, {"time": 40322, "pitch": 67, "duration": 111, "velocity": 100}, {"time": 40322, "pitch": 71, "duration": 111, "velocity": 100}, {"time": 40322, "pitch": 74, "duration": 111, "velocity": 110}, {"time": 40563, "pitch": 53, "duration": 100, "velocity": 80}, {"time": 40563, "pitch": 67, "duration": 60, "velocity": 100}, {"time": 40563, "pitch": 71, "duration": 90, "velocity": 100}, {"time": 40563, "pitch": 74, "duration": 60, "velocity": 110}, {"time": 40804, "pitch": 53, "duration": 196, "velocity": 80}, {"time": 40804, "pitch": 68, "duration": 235, "velocity": 100}, {"time": 40804, "pitch": 72, "duration": 245, "velocity": 100}, {"time": 40804, "pitch": 75, "duration": 206, "velocity": 110}, {"time": 41157, "pitch": 53, "duration": 168, "velocity": 80}, {"time": 41157, "pitch": 68, "duration": 168, "velocity": 100}, {"time": 41157, "pitch": 72, "duration": 188, "velocity": 100}, {"time": 41157, "pitch": 75, "duration": 188, "velocity": 110}, {"time": 41516, "pitch": 53, "duration": 210, "velocity": 80}, {"time": 41516, "pitch": 68, "duration": 200, "velocity": 100}, {"time": 41516, "pitch": 72, "duration": 210, "velocity": 100}, {"time": 41516, "pitch": 75, "duration": 221, "velocity": 110}, {"time": 41877, "pitch": 53, "duration": 191, "velocity": 80}, {"time": 41877, "pitch": 68, "duration": 181, "velocity": 100}, {"time": 41877, "pitch": 72, "duration": 201, "velocity": 100}, {"time": 41877, "pitch": 75, "duration": 191, "velocity": 110}, {"time": 42238, "pitch": 53, "duration": 100, "velocity": 80}, {"time": 42238, "pitch": 68, "duration": 80, "velocity": 100}, {"time": 42238, "pitch": 72, "duration": 100, "velocity": 100}, {"time": 42238, "pitch": 75, "duration": 111, "velocity": 110}, {"time": 42479, "pitch": 53, "duration": 80, "velocity": 80}, {"time": 42479, "pitch": 68, "duration": 80, "velocity": 100}, {"time": 42479, "pitch": 72, "duration": 80, "velocity": 100}, {"time": 42479, "pitch": 75, "duration": 80, "velocity": 110}, {"time": 42720, "pitch": 53, "duration": 190, "velocity": 80}, {"time": 42720, "pitch": 68, "duration": 190, "velocity": 100}, {"time": 42720, "pitch": 72, "duration": 200, "velocity": 100}, {"time": 42720, "pitch": 75, "duration": 200, "velocity": 110}, {"time": 43081, "pitch": 53, "duration": 181, "velocity": 80}, {"time": 43081, "pitch": 68, "duration": 191, "velocity": 100}, {"time": 43081, "pitch": 72, "duration": 201, "velocity": 100}, {"time": 43081, "pitch": 75, "duration": 191, "velocity": 110}, {"time": 43442, "pitch": 53, "duration": 191, "velocity": 80}, {"time": 43442, "pitch": 68, "duration": 201, "velocity": 100}, {"time": 43442, "pitch": 72, "duration": 211, "velocity": 100}, {"time": 43442, "pitch": 75, "duration": 201, "velocity": 110}, {"time": 43803, "pitch": 53, "duration": 211, "velocity": 80}, {"time": 43803, "pitch": 68, "duration": 211, "velocity": 100}, {"time": 43803, "pitch": 72, "duration": 211, "velocity": 100}, {"time": 43803, "pitch": 75, "duration": 221, "velocity": 110}, {"time": 44164, "pitch": 53, "duration": 108, "velocity": 80}, {"time": 44164, "pitch": 68, "duration": 99, "velocity": 100}, {"time": 44164, "pitch": 72, "duration": 99, "velocity": 100}, {"time": 44164, "pitch": 75, "duration": 108, "velocity": 110}, {"time": 44400, "pitch": 53, "duration": 98, "velocity": 80}, {"time": 44400, "pitch": 68, "duration": 79, "velocity": 100}, {"time": 44400, "pitch": 72, "duration": 88, "velocity": 100}, {"time": 44400, "pitch": 75, "duration": 88, "velocity": 110}, {"time": 44636, "pitch": 53, "duration": 220, "velocity": 80}, {"time": 44636, "pitch": 70, "duration": 250, "velocity": 100}, {"time": 44636, "pitch": 74, "duration": 261, "velocity": 100}, {"time": 44636, "pitch": 77, "duration": 261, "velocity": 110}, {"time": 44997, "pitch": 53, "duration": 170, "velocity": 80}, {"time": 44997, "pitch": 70, "duration": 180, "velocity": 100}, {"time": 44997, "pitch": 74, "duration": 190, "velocity": 100}, {"time": 44997, "pitch": 77, "duration": 190, "velocity": 110}, {"time": 45358, "pitch": 53, "duration": 211, "velocity": 80}, {"time": 45358, "pitch": 70, "duration": 221, "velocity": 100}, {"time": 45358, "pitch": 74, "duration": 221, "velocity": 100}, {"time": 45358, "pitch": 77, "duration": 221, "velocity": 110}, {"time": 45719, "pitch": 53, "duration": 201, "velocity": 80}, {"time": 45719, "pitch": 70, "duration": 211, "velocity": 100}, {"time": 45719, "pitch": 74, "duration": 211, "velocity": 100}, {"time": 45719, "pitch": 77, "duration": 201, "velocity": 110}, {"time": 46080, "pitch": 53, "duration": 111, "velocity": 80}, {"time": 46080, "pitch": 70, "duration": 91, "velocity": 100}, {"time": 46080, "pitch": 74, "duration": 101, "velocity": 100}, {"time": 46080, "pitch": 77, "duration": 101, "velocity": 110}, {"time": 46321, "pitch": 53, "duration": 80, "velocity": 80}, {"time": 46321, "pitch": 70, "duration": 90, "velocity": 100}, {"time": 46321, "pitch": 74, "duration": 101, "velocity": 100}, {"time": 46321, "pitch": 77, "duration": 90, "velocity": 110}, {"time": 46562, "pitch": 53, "duration": 221, "velocity": 80}, {"time": 46562, "pitch": 70, "duration": 211, "velocity": 100}, {"time": 46562, "pitch": 74, "duration": 221, "velocity": 100}, {"time": 46562, "pitch": 77, "duration": 221, "velocity": 110}, {"time": 46923, "pitch": 53, "duration": 171, "velocity": 80}, {"time": 46923, "pitch": 70, "duration": 201, "velocity": 100}, {"time": 46923, "pitch": 74, "duration": 211, "velocity": 100}, {"time": 46923, "pitch": 77, "duration": 201, "velocity": 110}, {"time": 47284, "pitch": 53, "duration": 231, "velocity": 80}, {"time": 47284, "pitch": 70, "duration": 221, "velocity": 100}, {"time": 47284, "pitch": 74, "duration": 221, "velocity": 100}, {"time": 47284, "pitch": 77, "duration": 221, "velocity": 110}, {"time": 63836, "pitch": 52, "duration": 211, "velocity": 80}, {"time": 63836, "pitch": 62, "duration": 221, "velocity": 100}, {"time": 63836, "pitch": 67, "duration": 241, "velocity": 100}, {"time": 63836, "pitch": 71, "duration": 231, "velocity": 110}, {"time": 64198, "pitch": 52, "duration": 230, "velocity": 80}, {"time": 64198, "pitch": 62, "duration": 250, "velocity": 100}, {"time": 64198, "pitch": 67, "duration": 260, "velocity": 100}, {"time": 64198, "pitch": 71, "duration": 230, "velocity": 110}, {"time": 64559, "pitch": 52, "duration": 271, "velocity": 80}, {"time": 64559, "pitch": 62, "duration": 291, "velocity": 100}, {"time": 64559, "pitch": 66, "duration": 271, "velocity": 100}, {"time": 64559, "pitch": 69, "duration": 291, "velocity": 110}, {"time": 64920, "pitch": 52, "duration": 241, "velocity": 80}, {"time": 64920, "pitch": 62, "duration": 251, "velocity": 100}, {"time": 64920, "pitch": 67, "duration": 261, "velocity": 100}, {"time": 64920, "pitch": 71, "duration": 251, "velocity": 110}, {"time": 65281, "pitch": 52, "duration": 111, "velocity": 80}, {"time": 65281, "pitch": 62, "duration": 80, "velocity": 100}, {"time": 65281, "pitch": 67, "duration": 111, "velocity": 100}, {"time": 65281, "pitch": 71, "duration": 101, "velocity": 110}, {"time": 65522, "pitch": 52, "duration": 80, "velocity": 80}, {"time": 65522, "pitch": 62, "duration": 80, "velocity": 100}, {"time": 65522, "pitch": 66, "duration": 80, "velocity": 100}, {"time": 65522, "pitch": 69, "duration": 80, "velocity": 110}, {"time": 65763, "pitch": 52, "duration": 150, "velocity": 80}, {"time": 65763, "pitch": 62, "duration": 210, "velocity": 100}, {"time": 65763, "pitch": 67, "duration": 231, "velocity": 100}, {"time": 65763, "pitch": 71, "duration": 221, "velocity": 110}, {"time": 66124, "pitch": 52, "duration": 228, "velocity": 80}, {"time": 66124, "pitch": 62, "duration": 209, "velocity": 100}, {"time": 66124, "pitch": 67, "duration": 218, "velocity": 100}, {"time": 66124, "pitch": 71, "duration": 199, "velocity": 110}, {"time": 66480, "pitch": 52, "duration": 78, "velocity": 80}, {"time": 66480, "pitch": 62, "duration": 78, "velocity": 100}, {"time": 66480, "pitch": 66, "duration": 88, "velocity": 100}, {"time": 66480, "pitch": 69, "duration": 98, "velocity": 110}, {"time": 66716, "pitch": 52, "duration": 100, "velocity": 80}, {"time": 66716, "pitch": 62, "duration": 90, "velocity": 100}, {"time": 66716, "pitch": 67, "duration": 100, "velocity": 100}, {"time": 66716, "pitch": 71, "duration": 110, "velocity": 110}, {"time": 66956, "pitch": 52, "duration": 81, "velocity": 80}, {"time": 66956, "pitch": 62, "duration": 81, "velocity": 100}, {"time": 66956, "pitch": 66, "duration": 91, "velocity": 100}, {"time": 66956, "pitch": 69, "duration": 101, "velocity": 110}, {"time": 67197, "pitch": 52, "duration": 90, "velocity": 80}, {"time": 67197, "pitch": 62, "duration": 90, "velocity": 100}, {"time": 67197, "pitch": 64, "duration": 100, "velocity": 100}, {"time": 67197, "pitch": 67, "duration": 131, "velocity": 110}, {"time": 67438, "pitch": 52, "duration": 100, "velocity": 80}, {"time": 67438, "pitch": 62, "duration": 110, "velocity": 100}, {"time": 67438, "pitch": 66, "duration": 110, "velocity": 100}, {"time": 67438, "pitch": 69, "duration": 140, "velocity": 110}, {"time": 67679, "pitch": 48, "duration": 210, "velocity": 80}, {"time": 67679, "pitch": 64, "duration": 220, "velocity": 100}, {"time": 67679, "pitch": 67, "duration": 240, "velocity": 100}, {"time": 67679, "pitch": 71, "duration": 230, "velocity": 110}, {"time": 68040, "pitch": 48, "duration": 231, "velocity": 80}, {"time": 68040, "pitch": 64, "duration": 251, "velocity": 100}, {"time": 68040, "pitch": 67, "duration": 261, "velocity": 100}, {"time": 68040, "pitch": 71, "duration": 231, "velocity": 110}, {"time": 68401, "pitch": 48, "duration": 271, "velocity": 80}, {"time": 68401, "pitch": 64, "duration": 291, "velocity": 100}, {"time": 68401, "pitch": 66, "duration": 271, "velocity": 100}, {"time": 68401, "pitch": 69, "duration": 291, "velocity": 110}, {"time": 68762, "pitch": 48, "duration": 241, "velocity": 80}, {"time": 68762, "pitch": 64, "duration": 251, "velocity": 100}, {"time": 68762, "pitch": 67, "duration": 261, "velocity": 100}, {"time": 68762, "pitch": 71, "duration": 251, "velocity": 110}, {"time": 69123, "pitch": 48, "duration": 111, "velocity": 80}, {"time": 69123, "pitch": 64, "duration": 81, "velocity": 100}, {"time": 69123, "pitch": 67, "duration": 111, "velocity": 100}, {"time": 69123, "pitch": 71, "duration": 101, "velocity": 110}, {"time": 69364, "pitch": 48, "duration": 80, "velocity": 80}, {"time": 69364, "pitch": 64, "duration": 80, "velocity": 100}, {"time": 69364, "pitch": 66, "duration": 80, "velocity": 100}, {"time": 69364, "pitch": 69, "duration": 80, "velocity": 110}, {"time": 69605, "pitch": 48, "duration": 147, "velocity": 80}, {"time": 69605, "pitch": 64, "duration": 206, "velocity": 100}, {"time": 69605, "pitch": 67, "duration": 226, "velocity": 100}, {"time": 69605, "pitch": 71, "duration": 216, "velocity": 110}, {"time": 69958, "pitch": 48, "duration": 229, "velocity": 80}, {"time": 69958, "pitch": 64, "duration": 208, "velocity": 100}, {"time": 69958, "pitch": 67, "duration": 219, "velocity": 100}, {"time": 69958, "pitch": 71, "duration": 198, "velocity": 110}, {"time": 70317, "pitch": 48, "duration": 80, "velocity": 80}, {"time": 70317, "pitch": 64, "duration": 80, "velocity": 100}, {"time": 70317, "pitch": 66, "duration": 90, "velocity": 100}, {"time": 70317, "pitch": 69, "duration": 100, "velocity": 110}, {"time": 70558, "pitch": 48, "duration": 100, "velocity": 80}, {"time": 70558, "pitch": 64, "duration": 90, "velocity": 100}, {"time": 70558, "pitch": 67, "duration": 100, "velocity": 100}, {"time": 70558, "pitch": 71, "duration": 110, "velocity": 110}, {"time": 70799, "pitch": 48, "duration": 80, "velocity": 80}, {"time": 70799, "pitch": 64, "duration": 80, "velocity": 100}, {"time": 70799, "pitch": 66, "duration": 90, "velocity": 100}, {"time": 70799, "pitch": 69, "duration": 100, "velocity": 110}, {"time": 71039, "pitch": 48, "duration": 91, "velocity": 80}, {"time": 71039, "pitch": 60, "duration": 91, "velocity": 100}, {"time": 71039, "pitch": 64, "duration": 101, "velocity": 100}, {"time": 71039, "pitch": 67, "duration": 131, "velocity": 110}, {"time": 71280, "pitch": 48, "duration": 100, "velocity": 80}, {"time": 71280, "pitch": 64, "duration": 110, "velocity": 100}, {"time": 71280, "pitch": 66, "duration": 110, "velocity": 100}, {"time": 71280, "pitch": 69, "duration": 141, "velocity": 110}, {"time": 71521, "pitch": 45, "duration": 211, "velocity": 80}, {"time": 71521, "pitch": 64, "duration": 221, "velocity": 100}, {"time": 71521, "pitch": 67, "duration": 241, "velocity": 100}, {"time": 71521, "pitch": 71, "duration": 231, "velocity": 110}, {"time": 71882, "pitch": 45, "duration": 231, "velocity": 80}, {"time": 71882, "pitch": 64, "duration": 251, "velocity": 100}, {"time": 71882, "pitch": 67, "duration": 261, "velocity": 100}, {"time": 71882, "pitch": 71, "duration": 231, "velocity": 110}, {"time": 72243, "pitch": 45, "duration": 270, "velocity": 80}, {"time": 72243, "pitch": 64, "duration": 290, "velocity": 100}, {"time": 72243, "pitch": 66, "duration": 270, "velocity": 100}, {"time": 72243, "pitch": 69, "duration": 290, "velocity": 110}, {"time": 72602, "pitch": 45, "duration": 236, "velocity": 80}, {"time": 72602, "pitch": 64, "duration": 245, "velocity": 100}, {"time": 72602, "pitch": 67, "duration": 255, "velocity": 100}, {"time": 72602, "pitch": 71, "duration": 245, "velocity": 110}, {"time": 72955, "pitch": 45, "duration": 111, "velocity": 80}, {"time": 72955, "pitch": 64, "duration": 81, "velocity": 100}, {"time": 72955, "pitch": 67, "duration": 111, "velocity": 100}, {"time": 72955, "pitch": 71, "duration": 101, "velocity": 110}, {"time": 73196, "pitch": 45, "duration": 80, "velocity": 80}, {"time": 73196, "pitch": 64, "duration": 80, "velocity": 100}, {"time": 73196, "pitch": 66, "duration": 80, "velocity": 100}, {"time": 73196, "pitch": 69, "duration": 80, "velocity": 110}, {"time": 73437, "pitch": 45, "duration": 150, "velocity": 80}, {"time": 73437, "pitch": 64, "duration": 211, "velocity": 100}, {"time": 73437, "pitch": 67, "duration": 231, "velocity": 100}, {"time": 73437, "pitch": 71, "duration": 221, "velocity": 110}, {"time": 73798, "pitch": 45, "duration": 231, "velocity": 80}, {"time": 73798, "pitch": 64, "duration": 211, "velocity": 100}, {"time": 73798, "pitch": 67, "duration": 221, "velocity": 100}, {"time": 73798, "pitch": 71, "duration": 201, "velocity": 110}, {"time": 74159, "pitch": 45, "duration": 80, "velocity": 80}, {"time": 74159, "pitch": 64, "duration": 80, "velocity": 100}, {"time": 74159, "pitch": 66, "duration": 91, "velocity": 100}, {"time": 74159, "pitch": 69, "duration": 101, "velocity": 110}, {"time": 74400, "pitch": 45, "duration": 100, "velocity": 80}, {"time": 74400, "pitch": 64, "duration": 90, "velocity": 100}, {"time": 74400, "pitch": 67, "duration": 100, "velocity": 100}, {"time": 74400, "pitch": 71, "duration": 110, "velocity": 110}, {"time": 74641, "pitch": 45, "duration": 80, "velocity": 80}, {"time": 74641, "pitch": 64, "duration": 80, "velocity": 100}, {"time": 74641, "pitch": 66, "duration": 90, "velocity": 100}, {"time": 74641, "pitch": 69, "duration": 100, "velocity": 110}, {"time": 74882, "pitch": 45, "duration": 90, "velocity": 80}, {"time": 74882, "pitch": 60, "duration": 90, "velocity": 100}, {"time": 74882, "pitch": 64, "duration": 100, "velocity": 100}, {"time": 74882, "pitch": 67, "duration": 130, "velocity": 110}, {"time": 75122, "pitch": 45, "duration": 101, "velocity": 80}, {"time": 75122, "pitch": 64, "duration": 111, "velocity": 100}, {"time": 75122, "pitch": 66, "duration": 111, "velocity": 100}, {"time": 75122, "pitch": 69, "duration": 141, "velocity": 110}, {"time": 75363, "pitch": 50, "duration": 211, "velocity": 80}, {"time": 75363, "pitch": 62, "duration": 221, "velocity": 100}, {"time": 75363, "pitch": 66, "duration": 241, "velocity": 100}, {"time": 75363, "pitch": 71, "duration": 231, "velocity": 110}, {"time": 75724, "pitch": 50, "duration": 229, "velocity": 80}, {"time": 75724, "pitch": 62, "duration": 248, "velocity": 100}, {"time": 75724, "pitch": 66, "duration": 258, "velocity": 100}, {"time": 75724, "pitch": 71, "duration": 229, "velocity": 110}, {"time": 76080, "pitch": 50, "duration": 266, "velocity": 80}, {"time": 76080, "pitch": 62, "duration": 286, "velocity": 100}, {"time": 76080, "pitch": 66, "duration": 266, "velocity": 100}, {"time": 76080, "pitch": 69, "duration": 286, "velocity": 110}, {"time": 76436, "pitch": 50, "duration": 241, "velocity": 80}, {"time": 76436, "pitch": 62, "duration": 251, "velocity": 100}, {"time": 76436, "pitch": 66, "duration": 261, "velocity": 100}, {"time": 76436, "pitch": 71, "duration": 251, "velocity": 110}, {"time": 76797, "pitch": 50, "duration": 111, "velocity": 80}, {"time": 76797, "pitch": 62, "duration": 81, "velocity": 100}, {"time": 76797, "pitch": 66, "duration": 111, "velocity": 100}, {"time": 76797, "pitch": 71, "duration": 101, "velocity": 110}, {"time": 77038, "pitch": 50, "duration": 81, "velocity": 80}, {"time": 77038, "pitch": 62, "duration": 81, "velocity": 100}, {"time": 77038, "pitch": 66, "duration": 81, "velocity": 100}, {"time": 77038, "pitch": 69, "duration": 81, "velocity": 110}, {"time": 77279, "pitch": 47, "duration": 151, "velocity": 80}, {"time": 77279, "pitch": 63, "duration": 211, "velocity": 100}, {"time": 77279, "pitch": 66, "duration": 231, "velocity": 100}, {"time": 77279, "pitch": 71, "duration": 221, "velocity": 110}, {"time": 77640, "pitch": 47, "duration": 231, "velocity": 80}, {"time": 77640, "pitch": 63, "duration": 211, "velocity": 100}, {"time": 77640, "pitch": 66, "duration": 221, "velocity": 100}, {"time": 77640, "pitch": 71, "duration": 201, "velocity": 110}, {"time": 78001, "pitch": 47, "duration": 81, "velocity": 80}, {"time": 78001, "pitch": 63, "duration": 81, "velocity": 100}, {"time": 78001, "pitch": 66, "duration": 91, "velocity": 100}, {"time": 78001, "pitch": 69, "duration": 101, "velocity": 110}, {"time": 78242, "pitch": 47, "duration": 101, "velocity": 80}, {"time": 78242, "pitch": 63, "duration": 91, "velocity": 100}, {"time": 78242, "pitch": 66, "duration": 101, "velocity": 100}, {"time": 78242, "pitch": 71, "duration": 111, "velocity": 110}, {"time": 78483, "pitch": 47, "duration": 80, "velocity": 80}, {"time": 78483, "pitch": 63, "duration": 80, "velocity": 100}, {"time": 78483, "pitch": 66, "duration": 90, "velocity": 100}, {"time": 78483, "pitch": 69, "duration": 100, "velocity": 110}, {"time": 78724, "pitch": 47, "duration": 88, "velocity": 80}, {"time": 78724, "pitch": 59, "duration": 88, "velocity": 100}, {"time": 78724, "pitch": 63, "duration": 98, "velocity": 100}, {"time": 78724, "pitch": 67, "duration": 127, "velocity": 110}, {"time": 78959, "pitch": 47, "duration": 99, "velocity": 80}, {"time": 78959, "pitch": 63, "duration": 108, "velocity": 100}, {"time": 78959, "pitch": 66, "duration": 108, "velocity": 100}, {"time": 78959, "pitch": 69, "duration": 138, "velocity": 110}, {"time": 79195, "pitch": 48, "duration": 1826, "velocity": 85}, {"time": 79195, "pitch": 59, "duration": 1816, "velocity": 90}, {"time": 79195, "pitch": 64, "duration": 1846, "velocity": 95}, {"time": 79195, "pitch": 67, "duration": 1836, "velocity": 100}, {"time": 81121, "pitch": 47, "duration": 1806, "velocity": 85}, {"time": 81121, "pitch": 57, "duration": 1726, "velocity": 90}, {"time": 81121, "pitch": 62, "duration": 1736, "velocity": 95}, {"time": 81121, "pitch": 66, "duration": 1746, "velocity": 100}, {"time": 83037, "pitch": 45, "duration": 2732, "velocity": 85}, {"time": 83037, "pitch": 55, "duration": 2752, "velocity": 90}, {"time": 83037, "pitch": 61, "duration": 2762, "velocity": 95}, {"time": 83037, "pitch": 64, "duration": 2752, "velocity": 100}, {"time": 85916, "pitch": 45, "duration": 412, "velocity": 85}, {"time": 85916, "pitch": 55, "duration": 321, "velocity": 90}, {"time": 85916, "pitch": 61, "duration": 372, "velocity": 95}, {"time": 85916, "pitch": 64, "duration": 372, "velocity": 100}, {"time": 86398, "pitch": 47, "duration": 411, "velocity": 85}, {"time": 86398, "pitch": 57, "duration": 361, "velocity": 90}, {"time": 86398, "pitch": 62, "duration": 391, "velocity": 95}, {"time": 86398, "pitch": 66, "duration": 401, "velocity": 100}, {"time": 86879, "pitch": 48, "duration": 1355, "velocity": 85}, {"time": 86879, "pitch": 59, "duration": 1355, "velocity": 90}, {"time": 86879, "pitch": 64, "duration": 1365, "velocity": 95}, {"time": 86879, "pitch": 67, "duration": 1365, "velocity": 100}, {"time": 88324, "pitch": 48, "duration": 422, "velocity": 85}, {"time": 88324, "pitch": 59, "duration": 363, "velocity": 90}, {"time": 88324, "pitch": 64, "duration": 393, "velocity": 95}, {"time": 88324, "pitch": 67, "duration": 373, "velocity": 100}, {"time": 88795, "pitch": 47, "duration": 943, "velocity": 85}, {"time": 88795, "pitch": 57, "duration": 893, "velocity": 90}, {"time": 88795, "pitch": 62, "duration": 903, "velocity": 95}, {"time": 88795, "pitch": 66, "duration": 913, "velocity": 100}, {"time": 89759, "pitch": 40, "duration": 943, "velocity": 85}, {"time": 89759, "pitch": 59, "duration": 892, "velocity": 90}, {"time": 89759, "pitch": 62, "duration": 903, "velocity": 95}, {"time": 89759, "pitch": 67, "duration": 913, "velocity": 100}, {"time": 90722, "pitch": 45, "duration": 1896, "velocity": 85}, {"time": 90722, "pitch": 61, "duration": 1845, "velocity": 90}, {"time": 90722, "pitch": 64, "duration": 1855, "velocity": 95}, {"time": 90722, "pitch": 67, "duration": 1865, "velocity": 100}, {"time": 92638, "pitch": 47, "duration": 230, "velocity": 85}, {"time": 92638, "pitch": 64, "duration": 230, "velocity": 90}, {"time": 92638, "pitch": 66, "duration": 230, "velocity": 95}, {"time": 92638, "pitch": 71, "duration": 230, "velocity": 100}, {"time": 92999, "pitch": 47, "duration": 231, "velocity": 85}, {"time": 92999, "pitch": 64, "duration": 231, "velocity": 90}, {"time": 92999, "pitch": 66, "duration": 231, "velocity": 95}, {"time": 92999, "pitch": 71, "duration": 231, "velocity": 100}, {"time": 93360, "pitch": 47, "duration": 110, "velocity": 85}, {"time": 93360, "pitch": 64, "duration": 110, "velocity": 90}, {"time": 93360, "pitch": 66, "duration": 110, "velocity": 95}, {"time": 93360, "pitch": 71, "duration": 110, "velocity": 100}, {"time": 93601, "pitch": 47, "duration": 110, "velocity": 85}, {"time": 93601, "pitch": 63, "duration": 110, "velocity": 90}, {"time": 93601, "pitch": 66, "duration": 110, "velocity": 95}, {"time": 93601, "pitch": 71, "duration": 110, "velocity": 100}, {"time": 94564, "pitch": 55, "duration": 226, "velocity": 80}, {"time": 94564, "pitch": 62, "duration": 265, "velocity": 100}, {"time": 94564, "pitch": 67, "duration": 255, "velocity": 100}, {"time": 94564, "pitch": 71, "duration": 265, "velocity": 110}, {"time": 94917, "pitch": 55, "duration": 148, "velocity": 80}, {"time": 94917, "pitch": 62, "duration": 148, "velocity": 100}, {"time": 94917, "pitch": 67, "duration": 178, "velocity": 100}, {"time": 94917, "pitch": 71, "duration": 168, "velocity": 110}, {"time": 95276, "pitch": 55, "duration": 211, "velocity": 80}, {"time": 95276, "pitch": 62, "duration": 221, "velocity": 100}, {"time": 95276, "pitch": 67, "duration": 251, "velocity": 100}, {"time": 95276, "pitch": 71, "duration": 241, "velocity": 110}, {"time": 95637, "pitch": 57, "duration": 211, "velocity": 80}, {"time": 95637, "pitch": 64, "duration": 221, "velocity": 100}, {"time": 95637, "pitch": 69, "duration": 241, "velocity": 100}, {"time": 95637, "pitch": 73, "duration": 241, "velocity": 110}, {"time": 95998, "pitch": 57, "duration": 101, "velocity": 80}, {"time": 95998, "pitch": 64, "duration": 111, "velocity": 100}, {"time": 95998, "pitch": 69, "duration": 131, "velocity": 100}, {"time": 95998, "pitch": 73, "duration": 121, "velocity": 110}, {"time": 96239, "pitch": 57, "duration": 100, "velocity": 80}, {"time": 96239, "pitch": 64, "duration": 80, "velocity": 100}, {"time": 96239, "pitch": 69, "duration": 90, "velocity": 100}, {"time": 96239, "pitch": 73, "duration": 70, "velocity": 110}, {"time": 96480, "pitch": 54, "duration": 201, "velocity": 80}, {"time": 96480, "pitch": 61, "duration": 221, "velocity": 100}, {"time": 96480, "pitch": 64, "duration": 231, "velocity": 100}, {"time": 96480, "pitch": 69, "duration": 221, "velocity": 110}, {"time": 96841, "pitch": 54, "duration": 171, "velocity": 80}, {"time": 96841, "pitch": 61, "duration": 191, "velocity": 100}, {"time": 96841, "pitch": 64, "duration": 191, "velocity": 100}, {"time": 96841, "pitch": 69, "duration": 201, "velocity": 110}, {"time": 97202, "pitch": 54, "duration": 231, "velocity": 80}, {"time": 97202, "pitch": 61, "duration": 241, "velocity": 100}, {"time": 97202, "pitch": 64, "duration": 231, "velocity": 100}, {"time": 97202, "pitch": 69, "duration": 241, "velocity": 110}, {"time": 97563, "pitch": 47, "duration": 221, "velocity": 80}, {"time": 97563, "pitch": 61, "duration": 211, "velocity": 100}, {"time": 97563, "pitch": 66, "duration": 231, "velocity": 100}, {"time": 97563, "pitch": 69, "duration": 231, "velocity": 110}, {"time": 97925, "pitch": 47, "duration": 117, "velocity": 80}, {"time": 97925, "pitch": 61, "duration": 98, "velocity": 100}, {"time": 97925, "pitch": 66, "duration": 108, "velocity": 100}, {"time": 97925, "pitch": 69, "duration": 108, "velocity": 110}, {"time": 98160, "pitch": 47, "duration": 108, "velocity": 80}, {"time": 98160, "pitch": 61, "duration": 98, "velocity": 100}, {"time": 98160, "pitch": 66, "duration": 108, "velocity": 100}, {"time": 98160, "pitch": 69, "duration": 108, "velocity": 110}, {"time": 98396, "pitch": 52, "duration": 210, "velocity": 80}, {"time": 98396, "pitch": 62, "duration": 231, "velocity": 100}, {"time": 98396, "pitch": 67, "duration": 251, "velocity": 100}, {"time": 98396, "pitch": 71, "duration": 241, "velocity": 110}, {"time": 98757, "pitch": 52, "duration": 221, "velocity": 80}, {"time": 98757, "pitch": 62, "duration": 191, "velocity": 100}, {"time": 98757, "pitch": 67, "duration": 211, "velocity": 100}, {"time": 98757, "pitch": 71, "duration": 211, "velocity": 110}, {"time": 99118, "pitch": 52, "duration": 211, "velocity": 80}, {"time": 99118, "pitch": 62, "duration": 211, "velocity": 100}, {"time": 99118, "pitch": 67, "duration": 221, "velocity": 100}, {"time": 99118, "pitch": 71, "duration": 241, "velocity": 110}, {"time": 99479, "pitch": 54, "duration": 201, "velocity": 80}, {"time": 99479, "pitch": 64, "duration": 211, "velocity": 100}, {"time": 99479, "pitch": 69, "duration": 221, "velocity": 100}, {"time": 99479, "pitch": 73, "duration": 211, "velocity": 110}, {"time": 99841, "pitch": 54, "duration": 130, "velocity": 80}, {"time": 99841, "pitch": 64, "duration": 90, "velocity": 100}, {"time": 99841, "pitch": 69, "duration": 110, "velocity": 100}, {"time": 99841, "pitch": 73, "duration": 120, "velocity": 110}, {"time": 100081, "pitch": 54, "duration": 121, "velocity": 80}, {"time": 100081, "pitch": 64, "duration": 81, "velocity": 100}, {"time": 100081, "pitch": 69, "duration": 101, "velocity": 100}, {"time": 100081, "pitch": 73, "duration": 91, "velocity": 110}, {"time": 100322, "pitch": 55, "duration": 191, "velocity": 80}, {"time": 100322, "pitch": 66, "duration": 191, "velocity": 100}, {"time": 100322, "pitch": 71, "duration": 221, "velocity": 100}, {"time": 100322, "pitch": 74, "duration": 221, "velocity": 110}, {"time": 100683, "pitch": 55, "duration": 199, "velocity": 80}, {"time": 100683, "pitch": 66, "duration": 180, "velocity": 100}, {"time": 100683, "pitch": 71, "duration": 209, "velocity": 100}, {"time": 100683, "pitch": 74, "duration": 199, "velocity": 110}, {"time": 101039, "pitch": 55, "duration": 236, "velocity": 80}, {"time": 101039, "pitch": 66, "duration": 246, "velocity": 100}, {"time": 101039, "pitch": 71, "duration": 256, "velocity": 100}, {"time": 101039, "pitch": 74, "duration": 266, "velocity": 110}, {"time": 101395, "pitch": 57, "duration": 231, "velocity": 80}, {"time": 101395, "pitch": 69, "duration": 221, "velocity": 100}, {"time": 101395, "pitch": 73, "duration": 241, "velocity": 100}, {"time": 101395, "pitch": 76, "duration": 241, "velocity": 110}, {"time": 101756, "pitch": 57, "duration": 111, "velocity": 80}, {"time": 101756, "pitch": 69, "duration": 111, "velocity": 100}, {"time": 101756, "pitch": 73, "duration": 141, "velocity": 100}, {"time": 101756, "pitch": 76, "duration": 131, "velocity": 110}, {"time": 101997, "pitch": 57, "duration": 111, "velocity": 80}, {"time": 101997, "pitch": 69, "duration": 91, "velocity": 100}, {"time": 101997, "pitch": 73, "duration": 121, "velocity": 100}, {"time": 101997, "pitch": 76, "duration": 111, "velocity": 110}, {"time": 102238, "pitch": 55, "duration": 231, "velocity": 80}, {"time": 102238, "pitch": 62, "duration": 271, "velocity": 100}, {"time": 102238, "pitch": 67, "duration": 261, "velocity": 100}, {"time": 102238, "pitch": 71, "duration": 271, "velocity": 110}, {"time": 102599, "pitch": 55, "duration": 151, "velocity": 80}, {"time": 102599, "pitch": 62, "duration": 151, "velocity": 100}, {"time": 102599, "pitch": 67, "duration": 181, "velocity": 100}, {"time": 102599, "pitch": 71, "duration": 171, "velocity": 110}, {"time": 102960, "pitch": 55, "duration": 211, "velocity": 80}, {"time": 102960, "pitch": 62, "duration": 221, "velocity": 100}, {"time": 102960, "pitch": 67, "duration": 251, "velocity": 100}, {"time": 102960, "pitch": 71, "duration": 241, "velocity": 110}, {"time": 103322, "pitch": 57, "duration": 210, "velocity": 80}, {"time": 103322, "pitch": 64, "duration": 220, "velocity": 100}, {"time": 103322, "pitch": 69, "duration": 240, "velocity": 100}, {"time": 103322, "pitch": 73, "duration": 240, "velocity": 110}, {"time": 103683, "pitch": 57, "duration": 100, "velocity": 80}, {"time": 103683, "pitch": 64, "duration": 110, "velocity": 100}, {"time": 103683, "pitch": 69, "duration": 130, "velocity": 100}, {"time": 103683, "pitch": 73, "duration": 120, "velocity": 110}, {"time": 103924, "pitch": 57, "duration": 100, "velocity": 80}, {"time": 103924, "pitch": 64, "duration": 80, "velocity": 100}, {"time": 103924, "pitch": 69, "duration": 90, "velocity": 100}, {"time": 103924, "pitch": 73, "duration": 70, "velocity": 110}, {"time": 104164, "pitch": 54, "duration": 197, "velocity": 80}, {"time": 104164, "pitch": 61, "duration": 216, "velocity": 100}, {"time": 104164, "pitch": 64, "duration": 226, "velocity": 100}, {"time": 104164, "pitch": 69, "duration": 216, "velocity": 110}, {"time": 104518, "pitch": 54, "duration": 168, "velocity": 80}, {"time": 104518, "pitch": 61, "duration": 188, "velocity": 100}, {"time": 104518, "pitch": 64, "duration": 188, "velocity": 100}, {"time": 104518, "pitch": 69, "duration": 198, "velocity": 110}, {"time": 104876, "pitch": 54, "duration": 231, "velocity": 80}, {"time": 104876, "pitch": 61, "duration": 241, "velocity": 100}, {"time": 104876, "pitch": 64, "duration": 231, "velocity": 100}, {"time": 104876, "pitch": 69, "duration": 241, "velocity": 110}, {"time": 105237, "pitch": 47, "duration": 221, "velocity": 80}, {"time": 105237, "pitch": 61, "duration": 211, "velocity": 100}, {"time": 105237, "pitch": 66, "duration": 231, "velocity": 100}, {"time": 105237, "pitch": 69, "duration": 231, "velocity": 110}, {"time": 105599, "pitch": 47, "duration": 120, "velocity": 80}, {"time": 105599, "pitch": 61, "duration": 100, "velocity": 100}, {"time": 105599, "pitch": 66, "duration": 110, "velocity": 100}, {"time": 105599, "pitch": 69, "duration": 110, "velocity": 110}, {"time": 105839, "pitch": 47, "duration": 111, "velocity": 80}, {"time": 105839, "pitch": 61, "duration": 101, "velocity": 100}, {"time": 105839, "pitch": 66, "duration": 111, "velocity": 100}, {"time": 105839, "pitch": 69, "duration": 111, "velocity": 110}, {"time": 106080, "pitch": 55, "duration": 211, "velocity": 80}, {"time": 106080, "pitch": 66, "duration": 231, "velocity": 100}, {"time": 106080, "pitch": 71, "duration": 251, "velocity": 100}, {"time": 106080, "pitch": 74, "duration": 241, "velocity": 110}, {"time": 106441, "pitch": 55, "duration": 221, "velocity": 80}, {"time": 106441, "pitch": 66, "duration": 191, "velocity": 100}, {"time": 106441, "pitch": 71, "duration": 211, "velocity": 100}, {"time": 106441, "pitch": 74, "duration": 211, "velocity": 110}, {"time": 106803, "pitch": 55, "duration": 210, "velocity": 80}, {"time": 106803, "pitch": 66, "duration": 210, "velocity": 100}, {"time": 106803, "pitch": 71, "duration": 220, "velocity": 100}, {"time": 106803, "pitch": 74, "duration": 240, "velocity": 110}, {"time": 107164, "pitch": 54, "duration": 200, "velocity": 80}, {"time": 107164, "pitch": 64, "duration": 211, "velocity": 100}, {"time": 107164, "pitch": 69, "duration": 221, "velocity": 100}, {"time": 107164, "pitch": 73, "duration": 211, "velocity": 110}, {"time": 107525, "pitch": 54, "duration": 128, "velocity": 80}, {"time": 107525, "pitch": 64, "duration": 88, "velocity": 100}, {"time": 107525, "pitch": 69, "duration": 108, "velocity": 100}, {"time": 107525, "pitch": 73, "duration": 118, "velocity": 110}, {"time": 107761, "pitch": 54, "duration": 117, "velocity": 80}, {"time": 107761, "pitch": 64, "duration": 78, "velocity": 100}, {"time": 107761, "pitch": 69, "duration": 98, "velocity": 100}, {"time": 107761, "pitch": 73, "duration": 88, "velocity": 110}, {"time": 107996, "pitch": 52, "duration": 191, "velocity": 80}, {"time": 107996, "pitch": 64, "duration": 191, "velocity": 100}, {"time": 107996, "pitch": 68, "duration": 221, "velocity": 100}, {"time": 107996, "pitch": 71, "duration": 221, "velocity": 110}, {"time": 108357, "pitch": 52, "duration": 201, "velocity": 80}, {"time": 108357, "pitch": 64, "duration": 181, "velocity": 100}, {"time": 108357, "pitch": 68, "duration": 211, "velocity": 100}, {"time": 108357, "pitch": 71, "duration": 201, "velocity": 110}, {"time": 108719, "pitch": 52, "duration": 240, "velocity": 80}, {"time": 108719, "pitch": 64, "duration": 250, "velocity": 100}, {"time": 108719, "pitch": 68, "duration": 260, "velocity": 100}, {"time": 108719, "pitch": 71, "duration": 270, "velocity": 110}, {"time": 109080, "pitch": 52, "duration": 200, "velocity": 80}, {"time": 109080, "pitch": 64, "duration": 210, "velocity": 100}, {"time": 109080, "pitch": 68, "duration": 220, "velocity": 100}, {"time": 109080, "pitch": 71, "duration": 210, "velocity": 110}, {"time": 109441, "pitch": 52, "duration": 130, "velocity": 80}, {"time": 109441, "pitch": 64, "duration": 90, "velocity": 100}, {"time": 109441, "pitch": 68, "duration": 110, "velocity": 100}, {"time": 109441, "pitch": 71, "duration": 120, "velocity": 110}, {"time": 109682, "pitch": 52, "duration": 120, "velocity": 80}, {"time": 109682, "pitch": 64, "duration": 80, "velocity": 100}, {"time": 109682, "pitch": 68, "duration": 100, "velocity": 100}, {"time": 109682, "pitch": 71, "duration": 90, "velocity": 110}, {"time": 109923, "pitch": 52, "duration": 190, "velocity": 80}, {"time": 109923, "pitch": 64, "duration": 190, "velocity": 100}, {"time": 109923, "pitch": 68, "duration": 220, "velocity": 100}, {"time": 109923, "pitch": 71, "duration": 220, "velocity": 110}, {"time": 110284, "pitch": 52, "duration": 199, "velocity": 80}, {"time": 110284, "pitch": 64, "duration": 179, "velocity": 100}, {"time": 110284, "pitch": 68, "duration": 208, "velocity": 100}, {"time": 110284, "pitch": 71, "duration": 199, "velocity": 110}, {"time": 110640, "pitch": 52, "duration": 235, "velocity": 80}, {"time": 110640, "pitch": 64, "duration": 245, "velocity": 100}, {"time": 110640, "pitch": 68, "duration": 255, "velocity": 100}, {"time": 110640, "pitch": 71, "duration": 265, "velocity": 110}, {"time": 110996, "pitch": 52, "duration": 200, "velocity": 80}, {"time": 110996, "pitch": 64, "duration": 210, "velocity": 100}, {"time": 110996, "pitch": 68, "duration": 220, "velocity": 100}, {"time": 110996, "pitch": 71, "duration": 210, "velocity": 110}, {"time": 111357, "pitch": 52, "duration": 130, "velocity": 80}, {"time": 111357, "pitch": 64, "duration": 90, "velocity": 100}, {"time": 111357, "pitch": 68, "duration": 110, "velocity": 100}, {"time": 111357, "pitch": 71, "duration": 120, "velocity": 110}, {"time": 111598, "pitch": 52, "duration": 120, "velocity": 80}, {"time": 111598, "pitch": 64, "duration": 80, "velocity": 100}, {"time": 111598, "pitch": 68, "duration": 100, "velocity": 100}, {"time": 111598, "pitch": 71, "duration": 90, "velocity": 110}, {"time": 111838, "pitch": 53, "duration": 231, "velocity": 80}, {"time": 111838, "pitch": 64, "duration": 291, "velocity": 100}, {"time": 111838, "pitch": 69, "duration": 251, "velocity": 100}, {"time": 111838, "pitch": 72, "duration": 241, "velocity": 110}, {"time": 112200, "pitch": 53, "duration": 220, "velocity": 80}, {"time": 112200, "pitch": 64, "duration": 260, "velocity": 100}, {"time": 112200, "pitch": 69, "duration": 230, "velocity": 100}, {"time": 112200, "pitch": 72, "duration": 210, "velocity": 110}, {"time": 112561, "pitch": 53, "duration": 271, "velocity": 80}, {"time": 112561, "pitch": 64, "duration": 291, "velocity": 100}, {"time": 112561, "pitch": 69, "duration": 251, "velocity": 100}, {"time": 112561, "pitch": 72, "duration": 241, "velocity": 110}, {"time": 112922, "pitch": 53, "duration": 181, "velocity": 80}, {"time": 112922, "pitch": 64, "duration": 241, "velocity": 100}, {"time": 112922, "pitch": 69, "duration": 211, "velocity": 100}, {"time": 112922, "pitch": 72, "duration": 171, "velocity": 110}, {"time": 113283, "pitch": 53, "duration": 111, "velocity": 80}, {"time": 113283, "pitch": 64, "duration": 141, "velocity": 100}, {"time": 113283, "pitch": 69, "duration": 111, "velocity": 100}, {"time": 113283, "pitch": 72, "duration": 101, "velocity": 110}, {"time": 113524, "pitch": 53, "duration": 90, "velocity": 80}, {"time": 113524, "pitch": 64, "duration": 130, "velocity": 100}, {"time": 113524, "pitch": 69, "duration": 100, "velocity": 100}, {"time": 113524, "pitch": 72, "duration": 80, "velocity": 110}, {"time": 113765, "pitch": 53, "duration": 186, "velocity": 80}, {"time": 113765, "pitch": 64, "duration": 196, "velocity": 100}, {"time": 113765, "pitch": 69, "duration": 226, "velocity": 100}, {"time": 113765, "pitch": 72, "duration": 226, "velocity": 110}, {"time": 114118, "pitch": 53, "duration": 178, "velocity": 80}, {"time": 114118, "pitch": 64, "duration": 208, "velocity": 100}, {"time": 114118, "pitch": 69, "duration": 218, "velocity": 100}, {"time": 114118, "pitch": 72, "duration": 198, "velocity": 110}, {"time": 114477, "pitch": 53, "duration": 220, "velocity": 80}, {"time": 114477, "pitch": 64, "duration": 251, "velocity": 100}, {"time": 114477, "pitch": 69, "duration": 251, "velocity": 100}, {"time": 114477, "pitch": 72, "duration": 240, "velocity": 110}, {"time": 114838, "pitch": 53, "duration": 180, "velocity": 80}, {"time": 114838, "pitch": 64, "duration": 231, "velocity": 100}, {"time": 114838, "pitch": 69, "duration": 241, "velocity": 100}, {"time": 114838, "pitch": 72, "duration": 231, "velocity": 110}, {"time": 115199, "pitch": 53, "duration": 90, "velocity": 80}, {"time": 115199, "pitch": 64, "duration": 110, "velocity": 100}, {"time": 115199, "pitch": 69, "duration": 110, "velocity": 100}, {"time": 115199, "pitch": 72, "duration": 100, "velocity": 110}, {"time": 115440, "pitch": 53, "duration": 100, "velocity": 80}, {"time": 115440, "pitch": 64, "duration": 80, "velocity": 110}, {"time": 115440, "pitch": 69, "duration": 80, "velocity": 110}, {"time": 115440, "pitch": 72, "duration": 70, "velocity": 110}, {"time": 115681, "pitch": 53, "duration": 210, "velocity": 80}, {"time": 115681, "pitch": 67, "duration": 240, "velocity": 100}, {"time": 115681, "pitch": 71, "duration": 240, "velocity": 100}, {"time": 115681, "pitch": 74, "duration": 230, "velocity": 110}, {"time": 116042, "pitch": 53, "duration": 180, "velocity": 80}, {"time": 116042, "pitch": 67, "duration": 190, "velocity": 100}, {"time": 116042, "pitch": 71, "duration": 201, "velocity": 100}, {"time": 116042, "pitch": 74, "duration": 190, "velocity": 110}, {"time": 116403, "pitch": 53, "duration": 241, "velocity": 80}, {"time": 116403, "pitch": 67, "duration": 241, "velocity": 100}, {"time": 116403, "pitch": 71, "duration": 251, "velocity": 100}, {"time": 116403, "pitch": 74, "duration": 241, "velocity": 110}, {"time": 116762, "pitch": 53, "duration": 196, "velocity": 80}, {"time": 116762, "pitch": 67, "duration": 196, "velocity": 100}, {"time": 116762, "pitch": 71, "duration": 216, "velocity": 100}, {"time": 116762, "pitch": 74, "duration": 206, "velocity": 110}, {"time": 117115, "pitch": 53, "duration": 110, "velocity": 80}, {"time": 117115, "pitch": 67, "duration": 80, "velocity": 100}, {"time": 117115, "pitch": 71, "duration": 100, "velocity": 100}, {"time": 117115, "pitch": 74, "duration": 90, "velocity": 110}, {"time": 117356, "pitch": 53, "duration": 90, "velocity": 80}, {"time": 117356, "pitch": 67, "duration": 70, "velocity": 100}, {"time": 117356, "pitch": 71, "duration": 90, "velocity": 100}, {"time": 117356, "pitch": 74, "duration": 90, "velocity": 110}, {"time": 117597, "pitch": 53, "duration": 190, "velocity": 80}, {"time": 117597, "pitch": 67, "duration": 220, "velocity": 100}, {"time": 117597, "pitch": 71, "duration": 230, "velocity": 100}, {"time": 117597, "pitch": 74, "duration": 220, "velocity": 110}, {"time": 117958, "pitch": 53, "duration": 160, "velocity": 80}, {"time": 117958, "pitch": 67, "duration": 180, "velocity": 100}, {"time": 117958, "pitch": 71, "duration": 180, "velocity": 100}, {"time": 117958, "pitch": 74, "duration": 180, "velocity": 110}, {"time": 118319, "pitch": 53, "duration": 211, "velocity": 80}, {"time": 118319, "pitch": 67, "duration": 251, "velocity": 100}, {"time": 118319, "pitch": 71, "duration": 251, "velocity": 100}, {"time": 118319, "pitch": 74, "duration": 251, "velocity": 110}, {"time": 118680, "pitch": 53, "duration": 211, "velocity": 80}, {"time": 118680, "pitch": 67, "duration": 221, "velocity": 100}, {"time": 118680, "pitch": 71, "duration": 231, "velocity": 100}, {"time": 118680, "pitch": 74, "duration": 221, "velocity": 110}, {"time": 119041, "pitch": 53, "duration": 111, "velocity": 80}, {"time": 119041, "pitch": 67, "duration": 111, "velocity": 100}, {"time": 119041, "pitch": 71, "duration": 111, "velocity": 100}, {"time": 119041, "pitch": 74, "duration": 111, "velocity": 110}, {"time": 119282, "pitch": 53, "duration": 100, "velocity": 80}, {"time": 119282, "pitch": 67, "duration": 60, "velocity": 100}, {"time": 119282, "pitch": 71, "duration": 90, "velocity": 100}, {"time": 119282, "pitch": 74, "duration": 60, "velocity": 110}, {"time": 119523, "pitch": 53, "duration": 201, "velocity": 80}, {"time": 119523, "pitch": 68, "duration": 241, "velocity": 100}, {"time": 119523, "pitch": 72, "duration": 251, "velocity": 100}, {"time": 119523, "pitch": 75, "duration": 211, "velocity": 110}, {"time": 119884, "pitch": 53, "duration": 169, "velocity": 80}, {"time": 119884, "pitch": 68, "duration": 169, "velocity": 100}, {"time": 119884, "pitch": 72, "duration": 189, "velocity": 100}, {"time": 119884, "pitch": 75, "duration": 189, "velocity": 110}, {"time": 120240, "pitch": 53, "duration": 206, "velocity": 80}, {"time": 120240, "pitch": 68, "duration": 196, "velocity": 100}, {"time": 120240, "pitch": 72, "duration": 206, "velocity": 100}, {"time": 120240, "pitch": 75, "duration": 216, "velocity": 110}, {"time": 120596, "pitch": 53, "duration": 191, "velocity": 80}, {"time": 120596, "pitch": 68, "duration": 181, "velocity": 100}, {"time": 120596, "pitch": 72, "duration": 201, "velocity": 100}, {"time": 120596, "pitch": 75, "duration": 191, "velocity": 110}, {"time": 120957, "pitch": 53, "duration": 101, "velocity": 80}, {"time": 120957, "pitch": 68, "duration": 80, "velocity": 100}, {"time": 120957, "pitch": 72, "duration": 101, "velocity": 100}, {"time": 120957, "pitch": 75, "duration": 111, "velocity": 110}, {"time": 121198, "pitch": 53, "duration": 80, "velocity": 80}, {"time": 121198, "pitch": 68, "duration": 80, "velocity": 100}, {"time": 121198, "pitch": 72, "duration": 80, "velocity": 100}, {"time": 121198, "pitch": 75, "duration": 80, "velocity": 110}, {"time": 121439, "pitch": 53, "duration": 190, "velocity": 80}, {"time": 121439, "pitch": 68, "duration": 190, "velocity": 100}, {"time": 121439, "pitch": 72, "duration": 200, "velocity": 100}, {"time": 121439, "pitch": 75, "duration": 200, "velocity": 110}, {"time": 121800, "pitch": 53, "duration": 181, "velocity": 80}, {"time": 121800, "pitch": 68, "duration": 191, "velocity": 100}, {"time": 121800, "pitch": 72, "duration": 201, "velocity": 100}, {"time": 121800, "pitch": 75, "duration": 191, "velocity": 110}, {"time": 122161, "pitch": 53, "duration": 191, "velocity": 80}, {"time": 122161, "pitch": 68, "duration": 201, "velocity": 100}, {"time": 122161, "pitch": 72, "duration": 211, "velocity": 100}, {"time": 122161, "pitch": 75, "duration": 201, "velocity": 110}, {"time": 122522, "pitch": 53, "duration": 211, "velocity": 80}, {"time": 122522, "pitch": 68, "duration": 211, "velocity": 100}, {"time": 122522, "pitch": 72, "duration": 211, "velocity": 100}, {"time": 122522, "pitch": 75, "duration": 221, "velocity": 110}, {"time": 122884, "pitch": 53, "duration": 110, "velocity": 80}, {"time": 122884, "pitch": 68, "duration": 100, "velocity": 100}, {"time": 122884, "pitch": 72, "duration": 100, "velocity": 100}, {"time": 122884, "pitch": 75, "duration": 110, "velocity": 110}, {"time": 123124, "pitch": 53, "duration": 101, "velocity": 80}, {"time": 123124, "pitch": 68, "duration": 81, "velocity": 100}, {"time": 123124, "pitch": 72, "duration": 91, "velocity": 100}, {"time": 123124, "pitch": 75, "duration": 91, "velocity": 110}, {"time": 123365, "pitch": 53, "duration": 216, "velocity": 80}, {"time": 123365, "pitch": 70, "duration": 246, "velocity": 100}, {"time": 123365, "pitch": 74, "duration": 255, "velocity": 100}, {"time": 123365, "pitch": 77, "duration": 255, "velocity": 110}, {"time": 123719, "pitch": 53, "duration": 167, "velocity": 80}, {"time": 123719, "pitch": 70, "duration": 178, "velocity": 100}, {"time": 123719, "pitch": 74, "duration": 188, "velocity": 100}, {"time": 123719, "pitch": 77, "duration": 188, "velocity": 110}, {"time": 124077, "pitch": 53, "duration": 211, "velocity": 80}, {"time": 124077, "pitch": 70, "duration": 221, "velocity": 100}, {"time": 124077, "pitch": 74, "duration": 221, "velocity": 100}, {"time": 124077, "pitch": 77, "duration": 221, "velocity": 110}, {"time": 124438, "pitch": 53, "duration": 201, "velocity": 80}, {"time": 124438, "pitch": 70, "duration": 211, "velocity": 100}, {"time": 124438, "pitch": 74, "duration": 211, "velocity": 100}, {"time": 124438, "pitch": 77, "duration": 201, "velocity": 110}, {"time": 124799, "pitch": 53, "duration": 111, "velocity": 80}, {"time": 124799, "pitch": 70, "duration": 91, "velocity": 100}, {"time": 124799, "pitch": 74, "duration": 101, "velocity": 100}, {"time": 124799, "pitch": 77, "duration": 101, "velocity": 110}, {"time": 125040, "pitch": 53, "duration": 81, "velocity": 80}, {"time": 125040, "pitch": 70, "duration": 91, "velocity": 100}, {"time": 125040, "pitch": 74, "duration": 101, "velocity": 100}, {"time": 125040, "pitch": 77, "duration": 91, "velocity": 110}, {"time": 125281, "pitch": 53, "duration": 221, "velocity": 80}, {"time": 125281, "pitch": 70, "duration": 211, "velocity": 100}, {"time": 125281, "pitch": 74, "duration": 221, "velocity": 100}, {"time": 125281, "pitch": 77, "duration": 221, "velocity": 110}, {"time": 125642, "pitch": 53, "duration": 171, "velocity": 80}, {"time": 125642, "pitch": 70, "duration": 201, "velocity": 100}, {"time": 125642, "pitch": 74, "duration": 211, "velocity": 100}, {"time": 125642, "pitch": 77, "duration": 201, "velocity": 110}, {"time": 126003, "pitch": 53, "duration": 231, "velocity": 80}, {"time": 126003, "pitch": 70, "duration": 221, "velocity": 100}, {"time": 126003, "pitch": 74, "duration": 221, "velocity": 100}, {"time": 126003, "pitch": 77, "duration": 221, "velocity": 110}, {"time": 142556, "pitch": 48, "duration": 1826, "velocity": 85}, {"time": 142556, "pitch": 59, "duration": 1815, "velocity": 90}, {"time": 142556, "pitch": 64, "duration": 1846, "velocity": 95}, {"time": 142556, "pitch": 67, "duration": 1836, "velocity": 100}, {"time": 144482, "pitch": 47, "duration": 1805, "velocity": 85}, {"time": 144482, "pitch": 57, "duration": 1725, "velocity": 90}, {"time": 144482, "pitch": 62, "duration": 1735, "velocity": 95}, {"time": 144482, "pitch": 66, "duration": 1745, "velocity": 100}, {"time": 146398, "pitch": 45, "duration": 2728, "velocity": 85}, {"time": 146398, "pitch": 55, "duration": 2748, "velocity": 90}, {"time": 146398, "pitch": 61, "duration": 2758, "velocity": 95}, {"time": 146398, "pitch": 64, "duration": 2748, "velocity": 100}, {"time": 149277, "pitch": 45, "duration": 411, "velocity": 85}, {"time": 149277, "pitch": 55, "duration": 321, "velocity": 90}, {"time": 149277, "pitch": 61, "duration": 371, "velocity": 95}, {"time": 149277, "pitch": 64, "duration": 371, "velocity": 100}, {"time": 149758, "pitch": 47, "duration": 412, "velocity": 85}, {"time": 149758, "pitch": 57, "duration": 362, "velocity": 90}, {"time": 149758, "pitch": 62, "duration": 392, "velocity": 95}, {"time": 149758, "pitch": 66, "duration": 402, "velocity": 100}, {"time": 150240, "pitch": 48, "duration": 1354, "velocity": 85}, {"time": 150240, "pitch": 59, "duration": 1354, "velocity": 90}, {"time": 150240, "pitch": 64, "duration": 1364, "velocity": 95}, {"time": 150240, "pitch": 67, "duration": 1364, "velocity": 100}, {"time": 151685, "pitch": 48, "duration": 422, "velocity": 85}, {"time": 151685, "pitch": 59, "duration": 363, "velocity": 90}, {"time": 151685, "pitch": 64, "duration": 392, "velocity": 95}, {"time": 151685, "pitch": 67, "duration": 373, "velocity": 100}, {"time": 152156, "pitch": 47, "duration": 943, "velocity": 85}, {"time": 152156, "pitch": 57, "duration": 893, "velocity": 90}, {"time": 152156, "pitch": 62, "duration": 903, "velocity": 95}, {"time": 152156, "pitch": 66, "duration": 913, "velocity": 100}, {"time": 153119, "pitch": 40, "duration": 943, "velocity": 85}, {"time": 153119, "pitch": 59, "duration": 893, "velocity": 90}, {"time": 153119, "pitch": 62, "duration": 903, "velocity": 95}, {"time": 153119, "pitch": 67, "duration": 913, "velocity": 100}, {"time": 154082, "pitch": 45, "duration": 1896, "velocity": 85}, {"time": 154082, "pitch": 61, "duration": 1846, "velocity": 90}, {"time": 154082, "pitch": 64, "duration": 1856, "velocity": 95}, {"time": 154082, "pitch": 67, "duration": 1866, "velocity": 100}, {"time": 155998, "pitch": 47, "duration": 231, "velocity": 85}, {"time": 155998, "pitch": 64, "duration": 231, "velocity": 90}, {"time": 155998, "pitch": 66, "duration": 231, "velocity": 95}, {"time": 155998, "pitch": 71, "duration": 231, "velocity": 100}, {"time": 156359, "pitch": 47, "duration": 231, "velocity": 85}, {"time": 156359, "pitch": 64, "duration": 231, "velocity": 90}, {"time": 156359, "pitch": 66, "duration": 231, "velocity": 95}, {"time": 156359, "pitch": 71, "duration": 231, "velocity": 100}, {"time": 156721, "pitch": 47, "duration": 110, "velocity": 85}, {"time": 156721, "pitch": 64, "duration": 110, "velocity": 90}, {"time": 156721, "pitch": 66, "duration": 110, "velocity": 95}, {"time": 156721, "pitch": 71, "duration": 110, "velocity": 100}, {"time": 156961, "pitch": 47, "duration": 111, "velocity": 85}, {"time": 156961, "pitch": 63, "duration": 111, "velocity": 90}, {"time": 156961, "pitch": 66, "duration": 111, "velocity": 95}, {"time": 156961, "pitch": 71, "duration": 111, "velocity": 100}, {"time": 157924, "pitch": 55, "duration": 226, "velocity": 80}, {"time": 157924, "pitch": 62, "duration": 266, "velocity": 100}, {"time": 157924, "pitch": 67, "duration": 256, "velocity": 100}, {"time": 157924, "pitch": 71, "duration": 266, "velocity": 110}, {"time": 158278, "pitch": 55, "duration": 148, "velocity": 80}, {"time": 158278, "pitch": 62, "duration": 148, "velocity": 100}, {"time": 158278, "pitch": 67, "duration": 178, "velocity": 100}, {"time": 158278, "pitch": 71, "duration": 168, "velocity": 110}, {"time": 158636, "pitch": 55, "duration": 211, "velocity": 80}, {"time": 158636, "pitch": 62, "duration": 221, "velocity": 100}, {"time": 158636, "pitch": 67, "duration": 251, "velocity": 100}, {"time": 158636, "pitch": 71, "duration": 241, "velocity": 110}, {"time": 158998, "pitch": 57, "duration": 210, "velocity": 80}, {"time": 158998, "pitch": 64, "duration": 220, "velocity": 100}, {"time": 158998, "pitch": 69, "duration": 240, "velocity": 100}, {"time": 158998, "pitch": 73, "duration": 240, "velocity": 110}, {"time": 159359, "pitch": 57, "duration": 100, "velocity": 80}, {"time": 159359, "pitch": 64, "duration": 110, "velocity": 100}, {"time": 159359, "pitch": 69, "duration": 130, "velocity": 100}, {"time": 159359, "pitch": 73, "duration": 120, "velocity": 110}, {"time": 159600, "pitch": 57, "duration": 100, "velocity": 80}, {"time": 159600, "pitch": 64, "duration": 80, "velocity": 100}, {"time": 159600, "pitch": 69, "duration": 90, "velocity": 100}, {"time": 159600, "pitch": 73, "duration": 70, "velocity": 110}, {"time": 159840, "pitch": 54, "duration": 201, "velocity": 80}, {"time": 159840, "pitch": 61, "duration": 221, "velocity": 100}, {"time": 159840, "pitch": 64, "duration": 231, "velocity": 100}, {"time": 159840, "pitch": 69, "duration": 221, "velocity": 110}, {"time": 160202, "pitch": 54, "duration": 170, "velocity": 80}, {"time": 160202, "pitch": 61, "duration": 190, "velocity": 100}, {"time": 160202, "pitch": 64, "duration": 190, "velocity": 100}, {"time": 160202, "pitch": 69, "duration": 200, "velocity": 110}, {"time": 160563, "pitch": 54, "duration": 231, "velocity": 80}, {"time": 160563, "pitch": 61, "duration": 241, "velocity": 100}, {"time": 160563, "pitch": 64, "duration": 231, "velocity": 100}, {"time": 160563, "pitch": 69, "duration": 241, "velocity": 110}, {"time": 160924, "pitch": 47, "duration": 221, "velocity": 80}, {"time": 160924, "pitch": 61, "duration": 211, "velocity": 100}, {"time": 160924, "pitch": 66, "duration": 231, "velocity": 100}, {"time": 160924, "pitch": 69, "duration": 231, "velocity": 110}, {"time": 161285, "pitch": 47, "duration": 118, "velocity": 80}, {"time": 161285, "pitch": 61, "duration": 98, "velocity": 100}, {"time": 161285, "pitch": 66, "duration": 108, "velocity": 100}, {"time": 161285, "pitch": 69, "duration": 108, "velocity": 110}, {"time": 161521, "pitch": 47, "duration": 108, "velocity": 80}, {"time": 161521, "pitch": 61, "duration": 98, "velocity": 100}, {"time": 161521, "pitch": 66, "duration": 108, "velocity": 100}, {"time": 161521, "pitch": 69, "duration": 108, "velocity": 110}, {"time": 161756, "pitch": 52, "duration": 211, "velocity": 80}, {"time": 161756, "pitch": 62, "duration": 231, "velocity": 100}, {"time": 161756, "pitch": 67, "duration": 251, "velocity": 100}, {"time": 161756, "pitch": 71, "duration": 241, "velocity": 110}, {"time": 162117, "pitch": 52, "duration": 221, "velocity": 80}, {"time": 162117, "pitch": 62, "duration": 191, "velocity": 100}, {"time": 162117, "pitch": 67, "duration": 211, "velocity": 100}, {"time": 162117, "pitch": 71, "duration": 211, "velocity": 110}, {"time": 162479, "pitch": 52, "duration": 210, "velocity": 80}, {"time": 162479, "pitch": 62, "duration": 210, "velocity": 100}, {"time": 162479, "pitch": 67, "duration": 220, "velocity": 100}, {"time": 162479, "pitch": 71, "duration": 240, "velocity": 110}, {"time": 162840, "pitch": 54, "duration": 201, "velocity": 80}, {"time": 162840, "pitch": 64, "duration": 211, "velocity": 100}, {"time": 162840, "pitch": 69, "duration": 221, "velocity": 100}, {"time": 162840, "pitch": 73, "duration": 211, "velocity": 110}, {"time": 163201, "pitch": 54, "duration": 130, "velocity": 80}, {"time": 163201, "pitch": 64, "duration": 90, "velocity": 100}, {"time": 163201, "pitch": 69, "duration": 110, "velocity": 100}, {"time": 163201, "pitch": 73, "duration": 120, "velocity": 110}, {"time": 163442, "pitch": 54, "duration": 120, "velocity": 80}, {"time": 163442, "pitch": 64, "duration": 80, "velocity": 100}, {"time": 163442, "pitch": 69, "duration": 100, "velocity": 100}, {"time": 163442, "pitch": 73, "duration": 90, "velocity": 110}, {"time": 163683, "pitch": 55, "duration": 190, "velocity": 80}, {"time": 163683, "pitch": 66, "duration": 190, "velocity": 100}, {"time": 163683, "pitch": 71, "duration": 220, "velocity": 100}, {"time": 163683, "pitch": 74, "duration": 220, "velocity": 110}, {"time": 164044, "pitch": 55, "duration": 199, "velocity": 80}, {"time": 164044, "pitch": 66, "duration": 179, "velocity": 100}, {"time": 164044, "pitch": 71, "duration": 209, "velocity": 100}, {"time": 164044, "pitch": 74, "duration": 199, "velocity": 110}, {"time": 164400, "pitch": 55, "duration": 235, "velocity": 80}, {"time": 164400, "pitch": 66, "duration": 245, "velocity": 100}, {"time": 164400, "pitch": 71, "duration": 255, "velocity": 100}, {"time": 164400, "pitch": 74, "duration": 265, "velocity": 110}, {"time": 164756, "pitch": 57, "duration": 231, "velocity": 80}, {"time": 164756, "pitch": 69, "duration": 221, "velocity": 100}, {"time": 164756, "pitch": 73, "duration": 241, "velocity": 100}, {"time": 164756, "pitch": 76, "duration": 241, "velocity": 110}, {"time": 165117, "pitch": 57, "duration": 110, "velocity": 80}, {"time": 165117, "pitch": 69, "duration": 110, "velocity": 100}, {"time": 165117, "pitch": 73, "duration": 140, "velocity": 100}, {"time": 165117, "pitch": 76, "duration": 130, "velocity": 110}, {"time": 165358, "pitch": 57, "duration": 110, "velocity": 80}, {"time": 165358, "pitch": 69, "duration": 90, "velocity": 100}, {"time": 165358, "pitch": 73, "duration": 120, "velocity": 100}, {"time": 165358, "pitch": 76, "duration": 110, "velocity": 110}, {"time": 165599, "pitch": 55, "duration": 230, "velocity": 80}, {"time": 165599, "pitch": 62, "duration": 270, "velocity": 100}, {"time": 165599, "pitch": 67, "duration": 260, "velocity": 100}, {"time": 165599, "pitch": 71, "duration": 270, "velocity": 110}, {"time": 165960, "pitch": 55, "duration": 150, "velocity": 80}, {"time": 165960, "pitch": 62, "duration": 150, "velocity": 100}, {"time": 165960, "pitch": 67, "duration": 180, "velocity": 100}, {"time": 165960, "pitch": 71, "duration": 170, "velocity": 110}, {"time": 166321, "pitch": 55, "duration": 211, "velocity": 80}, {"time": 166321, "pitch": 62, "duration": 221, "velocity": 100}, {"time": 166321, "pitch": 67, "duration": 251, "velocity": 100}, {"time": 166321, "pitch": 71, "duration": 241, "velocity": 110}, {"time": 166682, "pitch": 57, "duration": 211, "velocity": 80}, {"time": 166682, "pitch": 64, "duration": 221, "velocity": 100}, {"time": 166682, "pitch": 69, "duration": 241, "velocity": 100}, {"time": 166682, "pitch": 73, "duration": 241, "velocity": 110}, {"time": 167043, "pitch": 57, "duration": 101, "velocity": 80}, {"time": 167043, "pitch": 64, "duration": 111, "velocity": 100}, {"time": 167043, "pitch": 69, "duration": 131, "velocity": 100}, {"time": 167043, "pitch": 73, "duration": 121, "velocity": 110}, {"time": 167284, "pitch": 57, "duration": 100, "velocity": 80}, {"time": 167284, "pitch": 64, "duration": 80, "velocity": 100}, {"time": 167284, "pitch": 69, "duration": 90, "velocity": 100}, {"time": 167284, "pitch": 73, "duration": 70, "velocity": 110}, {"time": 167525, "pitch": 54, "duration": 196, "velocity": 80}, {"time": 167525, "pitch": 61, "duration": 216, "velocity": 100}, {"time": 167525, "pitch": 64, "duration": 226, "velocity": 100}, {"time": 167525, "pitch": 69, "duration": 216, "velocity": 110}, {"time": 167878, "pitch": 54, "duration": 168, "velocity": 80}, {"time": 167878, "pitch": 61, "duration": 188, "velocity": 100}, {"time": 167878, "pitch": 64, "duration": 188, "velocity": 100}, {"time": 167878, "pitch": 69, "duration": 198, "velocity": 110}, {"time": 168237, "pitch": 54, "duration": 231, "velocity": 80}, {"time": 168237, "pitch": 61, "duration": 241, "velocity": 100}, {"time": 168237, "pitch": 64, "duration": 231, "velocity": 100}, {"time": 168237, "pitch": 69, "duration": 241, "velocity": 110}, {"time": 168598, "pitch": 47, "duration": 221, "velocity": 80}, {"time": 168598, "pitch": 61, "duration": 211, "velocity": 100}, {"time": 168598, "pitch": 66, "duration": 231, "velocity": 100}, {"time": 168598, "pitch": 69, "duration": 231, "velocity": 110}, {"time": 168959, "pitch": 47, "duration": 121, "velocity": 80}, {"time": 168959, "pitch": 61, "duration": 101, "velocity": 100}, {"time": 168959, "pitch": 66, "duration": 111, "velocity": 100}, {"time": 168959, "pitch": 69, "duration": 111, "velocity": 110}, {"time": 169200, "pitch": 47, "duration": 110, "velocity": 80}, {"time": 169200, "pitch": 61, "duration": 100, "velocity": 100}, {"time": 169200, "pitch": 66, "duration": 110, "velocity": 100}, {"time": 169200, "pitch": 69, "duration": 110, "velocity": 110}, {"time": 169441, "pitch": 55, "duration": 210, "velocity": 80}, {"time": 169441, "pitch": 66, "duration": 231, "velocity": 100}, {"time": 169441, "pitch": 71, "duration": 251, "velocity": 100}, {"time": 169441, "pitch": 74, "duration": 241, "velocity": 110}, {"time": 169802, "pitch": 55, "duration": 221, "velocity": 80}, {"time": 169802, "pitch": 66, "duration": 191, "velocity": 100}, {"time": 169802, "pitch": 71, "duration": 211, "velocity": 100}, {"time": 169802, "pitch": 74, "duration": 211, "velocity": 110}, {"time": 170163, "pitch": 55, "duration": 211, "velocity": 80}, {"time": 170163, "pitch": 66, "duration": 211, "velocity": 100}, {"time": 170163, "pitch": 71, "duration": 221, "velocity": 100}, {"time": 170163, "pitch": 74, "duration": 241, "velocity": 110}, {"time": 170522, "pitch": 54, "duration": 196, "velocity": 80}, {"time": 170522, "pitch": 64, "duration": 206, "velocity": 100}, {"time": 170522, "pitch": 69, "duration": 216, "velocity": 100}, {"time": 170522, "pitch": 73, "duration": 206, "velocity": 110}, {"time": 170875, "pitch": 54, "duration": 131, "velocity": 80}, {"time": 170875, "pitch": 64, "duration": 90, "velocity": 100}, {"time": 170875, "pitch": 69, "duration": 110, "velocity": 100}, {"time": 170875, "pitch": 73, "duration": 121, "velocity": 110}, {"time": 171116, "pitch": 54, "duration": 120, "velocity": 80}, {"time": 171116, "pitch": 64, "duration": 80, "velocity": 100}, {"time": 171116, "pitch": 69, "duration": 100, "velocity": 100}, {"time": 171116, "pitch": 73, "duration": 90, "velocity": 110}, {"time": 171357, "pitch": 52, "duration": 190, "velocity": 80}, {"time": 171357, "pitch": 64, "duration": 190, "velocity": 100}, {"time": 171357, "pitch": 68, "duration": 220, "velocity": 100}, {"time": 171357, "pitch": 71, "duration": 220, "velocity": 110}, {"time": 171718, "pitch": 52, "duration": 201, "velocity": 80}, {"time": 171718, "pitch": 64, "duration": 180, "velocity": 100}, {"time": 171718, "pitch": 68, "duration": 211, "velocity": 100}, {"time": 171718, "pitch": 71, "duration": 201, "velocity": 110}, {"time": 172079, "pitch": 52, "duration": 241, "velocity": 80}, {"time": 172079, "pitch": 64, "duration": 251, "velocity": 100}, {"time": 172079, "pitch": 68, "duration": 261, "velocity": 100}, {"time": 172079, "pitch": 71, "duration": 271, "velocity": 110}, {"time": 172440, "pitch": 52, "duration": 201, "velocity": 80}, {"time": 172440, "pitch": 64, "duration": 211, "velocity": 100}, {"time": 172440, "pitch": 68, "duration": 221, "velocity": 100}, {"time": 172440, "pitch": 71, "duration": 211, "velocity": 110}, {"time": 172801, "pitch": 52, "duration": 131, "velocity": 80}, {"time": 172801, "pitch": 64, "duration": 91, "velocity": 100}, {"time": 172801, "pitch": 68, "duration": 111, "velocity": 100}, {"time": 172801, "pitch": 71, "duration": 121, "velocity": 110}, {"time": 173042, "pitch": 52, "duration": 121, "velocity": 80}, {"time": 173042, "pitch": 64, "duration": 81, "velocity": 100}, {"time": 173042, "pitch": 68, "duration": 101, "velocity": 100}, {"time": 173042, "pitch": 71, "duration": 91, "velocity": 110}, {"time": 173283, "pitch": 55, "duration": 231, "velocity": 80}, {"time": 173283, "pitch": 62, "duration": 271, "velocity": 100}, {"time": 173283, "pitch": 67, "duration": 261, "velocity": 100}, {"time": 173283, "pitch": 71, "duration": 271, "velocity": 110}, {"time": 173644, "pitch": 55, "duration": 150, "velocity": 80}, {"time": 173644, "pitch": 62, "duration": 150, "velocity": 100}, {"time": 173644, "pitch": 67, "duration": 179, "velocity": 100}, {"time": 173644, "pitch": 71, "duration": 170, "velocity": 110}, {"time": 174000, "pitch": 55, "duration": 206, "velocity": 80}, {"time": 174000, "pitch": 62, "duration": 216, "velocity": 100}, {"time": 174000, "pitch": 67, "duration": 246, "velocity": 100}, {"time": 174000, "pitch": 71, "duration": 236, "velocity": 110}, {"time": 174356, "pitch": 57, "duration": 211, "velocity": 80}, {"time": 174356, "pitch": 64, "duration": 221, "velocity": 100}, {"time": 174356, "pitch": 69, "duration": 241, "velocity": 100}, {"time": 174356, "pitch": 73, "duration": 241, "velocity": 110}, {"time": 174717, "pitch": 57, "duration": 101, "velocity": 80}, {"time": 174717, "pitch": 64, "duration": 111, "velocity": 100}, {"time": 174717, "pitch": 69, "duration": 131, "velocity": 100}, {"time": 174717, "pitch": 73, "duration": 121, "velocity": 110}, {"time": 174958, "pitch": 57, "duration": 100, "velocity": 80}, {"time": 174958, "pitch": 64, "duration": 80, "velocity": 100}, {"time": 174958, "pitch": 69, "duration": 90, "velocity": 100}, {"time": 174958, "pitch": 73, "duration": 70, "velocity": 110}, {"time": 175199, "pitch": 54, "duration": 201, "velocity": 80}, {"time": 175199, "pitch": 61, "duration": 221, "velocity": 100}, {"time": 175199, "pitch": 64, "duration": 231, "velocity": 100}, {"time": 175199, "pitch": 69, "duration": 221, "velocity": 110}, {"time": 175560, "pitch": 54, "duration": 171, "velocity": 80}, {"time": 175560, "pitch": 61, "duration": 191, "velocity": 100}, {"time": 175560, "pitch": 64, "duration": 191, "velocity": 100}, {"time": 175560, "pitch": 69, "duration": 201, "velocity": 110}, {"time": 175921, "pitch": 54, "duration": 231, "velocity": 80}, {"time": 175921, "pitch": 61, "duration": 241, "velocity": 100}, {"time": 175921, "pitch": 64, "duration": 231, "velocity": 100}, {"time": 175921, "pitch": 69, "duration": 241, "velocity": 110}, {"time": 176283, "pitch": 47, "duration": 220, "velocity": 80}, {"time": 176283, "pitch": 61, "duration": 210, "velocity": 100}, {"time": 176283, "pitch": 66, "duration": 230, "velocity": 100}, {"time": 176283, "pitch": 69, "duration": 230, "velocity": 110}, {"time": 176644, "pitch": 47, "duration": 117, "velocity": 80}, {"time": 176644, "pitch": 61, "duration": 98, "velocity": 100}, {"time": 176644, "pitch": 66, "duration": 108, "velocity": 100}, {"time": 176644, "pitch": 69, "duration": 108, "velocity": 110}, {"time": 176879, "pitch": 47, "duration": 108, "velocity": 80}, {"time": 176879, "pitch": 61, "duration": 98, "velocity": 100}, {"time": 176879, "pitch": 66, "duration": 108, "velocity": 100}, {"time": 176879, "pitch": 69, "duration": 108, "velocity": 110}, {"time": 177115, "pitch": 52, "duration": 211, "velocity": 80}, {"time": 177115, "pitch": 62, "duration": 231, "velocity": 100}, {"time": 177115, "pitch": 67, "duration": 251, "velocity": 100}, {"time": 177115, "pitch": 71, "duration": 241, "velocity": 110}, {"time": 177476, "pitch": 52, "duration": 221, "velocity": 80}, {"time": 177476, "pitch": 62, "duration": 191, "velocity": 100}, {"time": 177476, "pitch": 67, "duration": 211, "velocity": 100}, {"time": 177476, "pitch": 71, "duration": 211, "velocity": 110}, {"time": 177837, "pitch": 52, "duration": 211, "velocity": 80}, {"time": 177837, "pitch": 62, "duration": 211, "velocity": 100}, {"time": 177837, "pitch": 67, "duration": 221, "velocity": 100}, {"time": 177837, "pitch": 71, "duration": 241, "velocity": 110}, {"time": 178198, "pitch": 54, "duration": 201, "velocity": 80}, {"time": 178198, "pitch": 64, "duration": 211, "velocity": 100}, {"time": 178198, "pitch": 69, "duration": 221, "velocity": 100}, {"time": 178198, "pitch": 73, "duration": 211, "velocity": 110}, {"time": 178560, "pitch": 54, "duration": 130, "velocity": 80}, {"time": 178560, "pitch": 64, "duration": 90, "velocity": 100}, {"time": 178560, "pitch": 69, "duration": 110, "velocity": 100}, {"time": 178560, "pitch": 73, "duration": 120, "velocity": 110}, {"time": 178800, "pitch": 54, "duration": 121, "velocity": 80}, {"time": 178800, "pitch": 64, "duration": 81, "velocity": 100}, {"time": 178800, "pitch": 69, "duration": 101, "velocity": 100}, {"time": 178800, "pitch": 73, "duration": 91, "velocity": 110}, {"time": 179041, "pitch": 55, "duration": 191, "velocity": 80}, {"time": 179041, "pitch": 66, "duration": 191, "velocity": 100}, {"time": 179041, "pitch": 71, "duration": 221, "velocity": 100}, {"time": 179041, "pitch": 74, "duration": 221, "velocity": 110}, {"time": 179402, "pitch": 55, "duration": 201, "velocity": 80}, {"time": 179402, "pitch": 66, "duration": 181, "velocity": 100}, {"time": 179402, "pitch": 71, "duration": 211, "velocity": 100}, {"time": 179402, "pitch": 74, "duration": 201, "velocity": 110}, {"time": 179764, "pitch": 55, "duration": 240, "velocity": 80}, {"time": 179764, "pitch": 66, "duration": 250, "velocity": 100}, {"time": 179764, "pitch": 71, "duration": 260, "velocity": 100}, {"time": 179764, "pitch": 74, "duration": 270, "velocity": 110}, {"time": 180122, "pitch": 57, "duration": 226, "velocity": 80}, {"time": 180122, "pitch": 69, "duration": 216, "velocity": 100}, {"time": 180122, "pitch": 73, "duration": 236, "velocity": 100}, {"time": 180122, "pitch": 76, "duration": 236, "velocity": 110}, {"time": 180476, "pitch": 57, "duration": 110, "velocity": 80}, {"time": 180476, "pitch": 69, "duration": 110, "velocity": 100}, {"time": 180476, "pitch": 73, "duration": 140, "velocity": 100}, {"time": 180476, "pitch": 76, "duration": 130, "velocity": 110}, {"time": 180716, "pitch": 57, "duration": 111, "velocity": 80}, {"time": 180716, "pitch": 69, "duration": 91, "velocity": 100}, {"time": 180716, "pitch": 73, "duration": 121, "velocity": 100}, {"time": 180716, "pitch": 76, "duration": 111, "velocity": 110}, {"time": 180957, "pitch": 55, "duration": 231, "velocity": 80}, {"time": 180957, "pitch": 62, "duration": 271, "velocity": 100}, {"time": 180957, "pitch": 67, "duration": 261, "velocity": 100}, {"time": 180957, "pitch": 71, "duration": 271, "velocity": 110}, {"time": 181318, "pitch": 55, "duration": 151, "velocity": 80}, {"time": 181318, "pitch": 62, "duration": 151, "velocity": 100}, {"time": 181318, "pitch": 67, "duration": 181, "velocity": 100}, {"time": 181318, "pitch": 71, "duration": 171, "velocity": 110}, {"time": 181679, "pitch": 55, "duration": 211, "velocity": 80}, {"time": 181679, "pitch": 62, "duration": 221, "velocity": 100}, {"time": 181679, "pitch": 67, "duration": 251, "velocity": 100}, {"time": 181679, "pitch": 71, "duration": 241, "velocity": 110}, {"time": 182041, "pitch": 57, "duration": 210, "velocity": 80}, {"time": 182041, "pitch": 64, "duration": 220, "velocity": 100}, {"time": 182041, "pitch": 69, "duration": 240, "velocity": 100}, {"time": 182041, "pitch": 73, "duration": 240, "velocity": 110}, {"time": 182402, "pitch": 57, "duration": 100, "velocity": 80}, {"time": 182402, "pitch": 64, "duration": 110, "velocity": 100}, {"time": 182402, "pitch": 69, "duration": 130, "velocity": 100}, {"time": 182402, "pitch": 73, "duration": 120, "velocity": 110}, {"time": 182643, "pitch": 57, "duration": 100, "velocity": 80}, {"time": 182643, "pitch": 64, "duration": 80, "velocity": 100}, {"time": 182643, "pitch": 69, "duration": 90, "velocity": 100}, {"time": 182643, "pitch": 73, "duration": 70, "velocity": 110}, {"time": 182883, "pitch": 54, "duration": 201, "velocity": 80}, {"time": 182883, "pitch": 61, "duration": 221, "velocity": 100}, {"time": 182883, "pitch": 64, "duration": 231, "velocity": 100}, {"time": 182883, "pitch": 69, "duration": 221, "velocity": 110}, {"time": 183245, "pitch": 54, "duration": 169, "velocity": 80}, {"time": 183245, "pitch": 61, "duration": 189, "velocity": 100}, {"time": 183245, "pitch": 64, "duration": 189, "velocity": 100}, {"time": 183245, "pitch": 69, "duration": 198, "velocity": 110}, {"time": 183601, "pitch": 54, "duration": 225, "velocity": 80}, {"time": 183601, "pitch": 61, "duration": 235, "velocity": 100}, {"time": 183601, "pitch": 64, "duration": 225, "velocity": 100}, {"time": 183601, "pitch": 69, "duration": 235, "velocity": 110}, {"time": 183957, "pitch": 47, "duration": 220, "velocity": 80}, {"time": 183957, "pitch": 61, "duration": 210, "velocity": 100}, {"time": 183957, "pitch": 66, "duration": 230, "velocity": 100}, {"time": 183957, "pitch": 69, "duration": 230, "velocity": 110}, {"time": 184318, "pitch": 47, "duration": 120, "velocity": 80}, {"time": 184318, "pitch": 61, "duration": 100, "velocity": 100}, {"time": 184318, "pitch": 66, "duration": 110, "velocity": 100}, {"time": 184318, "pitch": 69, "duration": 110, "velocity": 110}, {"time": 184559, "pitch": 47, "duration": 110, "velocity": 80}, {"time": 184559, "pitch": 61, "duration": 100, "velocity": 100}, {"time": 184559, "pitch": 66, "duration": 110, "velocity": 100}, {"time": 184559, "pitch": 69, "duration": 110, "velocity": 110}, {"time": 184799, "pitch": 55, "duration": 211, "velocity": 80}, {"time": 184799, "pitch": 66, "duration": 231, "velocity": 100}, {"time": 184799, "pitch": 71, "duration": 251, "velocity": 100}, {"time": 184799, "pitch": 74, "duration": 241, "velocity": 110}, {"time": 185161, "pitch": 55, "duration": 220, "velocity": 80}, {"time": 185161, "pitch": 66, "duration": 190, "velocity": 100}, {"time": 185161, "pitch": 71, "duration": 210, "velocity": 100}, {"time": 185161, "pitch": 74, "duration": 210, "velocity": 110}, {"time": 185522, "pitch": 55, "duration": 210, "velocity": 80}, {"time": 185522, "pitch": 66, "duration": 210, "velocity": 100}, {"time": 185522, "pitch": 71, "duration": 220, "velocity": 100}, {"time": 185522, "pitch": 74, "duration": 241, "velocity": 110}, {"time": 185883, "pitch": 54, "duration": 201, "velocity": 80}, {"time": 185883, "pitch": 64, "duration": 211, "velocity": 100}, {"time": 185883, "pitch": 69, "duration": 221, "velocity": 100}, {"time": 185883, "pitch": 73, "duration": 211, "velocity": 110}, {"time": 186244, "pitch": 54, "duration": 128, "velocity": 80}, {"time": 186244, "pitch": 64, "duration": 88, "velocity": 100}, {"time": 186244, "pitch": 69, "duration": 108, "velocity": 100}, {"time": 186244, "pitch": 73, "duration": 118, "velocity": 110}, {"time": 186480, "pitch": 54, "duration": 118, "velocity": 80}, {"time": 186480, "pitch": 64, "duration": 78, "velocity": 100}, {"time": 186480, "pitch": 69, "duration": 98, "velocity": 100}, {"time": 186480, "pitch": 73, "duration": 88, "velocity": 110}, {"time": 186715, "pitch": 52, "duration": 191, "velocity": 80}, {"time": 186715, "pitch": 64, "duration": 191, "velocity": 100}, {"time": 186715, "pitch": 68, "duration": 221, "velocity": 100}, {"time": 186715, "pitch": 71, "duration": 221, "velocity": 110}, {"time": 187076, "pitch": 52, "duration": 201, "velocity": 80}, {"time": 187076, "pitch": 64, "duration": 181, "velocity": 100}, {"time": 187076, "pitch": 68, "duration": 211, "velocity": 100}, {"time": 187076, "pitch": 71, "duration": 201, "velocity": 110}, {"time": 187438, "pitch": 52, "duration": 240, "velocity": 80}, {"time": 187438, "pitch": 64, "duration": 250, "velocity": 100}, {"time": 187438, "pitch": 68, "duration": 260, "velocity": 100}, {"time": 187438, "pitch": 71, "duration": 271, "velocity": 110}, {"time": 187799, "pitch": 52, "duration": 200, "velocity": 80}, {"time": 187799, "pitch": 64, "duration": 211, "velocity": 100}, {"time": 187799, "pitch": 68, "duration": 221, "velocity": 100}, {"time": 187799, "pitch": 71, "duration": 211, "velocity": 110}, {"time": 188160, "pitch": 52, "duration": 130, "velocity": 80}, {"time": 188160, "pitch": 64, "duration": 90, "velocity": 100}, {"time": 188160, "pitch": 68, "duration": 110, "velocity": 100}, {"time": 188160, "pitch": 71, "duration": 120, "velocity": 110}, {"time": 188401, "pitch": 52, "duration": 120, "velocity": 80}, {"time": 188401, "pitch": 64, "duration": 80, "velocity": 100}, {"time": 188401, "pitch": 68, "duration": 100, "velocity": 100}, {"time": 188401, "pitch": 71, "duration": 90, "velocity": 110}, {"time": 188642, "pitch": 52, "duration": 190, "velocity": 80}, {"time": 188642, "pitch": 64, "duration": 190, "velocity": 100}, {"time": 188642, "pitch": 68, "duration": 220, "velocity": 100}, {"time": 188642, "pitch": 71, "duration": 220, "velocity": 110}, {"time": 189003, "pitch": 52, "duration": 200, "velocity": 80}, {"time": 189003, "pitch": 64, "duration": 180, "velocity": 100}, {"time": 189003, "pitch": 68, "duration": 210, "velocity": 100}, {"time": 189003, "pitch": 71, "duration": 200, "velocity": 110}, {"time": 189364, "pitch": 52, "duration": 241, "velocity": 80}, {"time": 189364, "pitch": 64, "duration": 250, "velocity": 100}, {"time": 189364, "pitch": 68, "duration": 260, "velocity": 100}, {"time": 189364, "pitch": 71, "duration": 270, "velocity": 110}, {"time": 189722, "pitch": 52, "duration": 197, "velocity": 80}, {"time": 189722, "pitch": 64, "duration": 207, "velocity": 100}, {"time": 189722, "pitch": 68, "duration": 217, "velocity": 100}, {"time": 189722, "pitch": 71, "duration": 207, "velocity": 110}, {"time": 190076, "pitch": 52, "duration": 130, "velocity": 80}, {"time": 190076, "pitch": 64, "duration": 90, "velocity": 100}, {"time": 190076, "pitch": 68, "duration": 110, "velocity": 100}, {"time": 190076, "pitch": 71, "duration": 120, "velocity": 110}, {"time": 190317, "pitch": 52, "duration": 120, "velocity": 80}, {"time": 190317, "pitch": 64, "duration": 80, "velocity": 100}, {"time": 190317, "pitch": 68, "duration": 100, "velocity": 100}, {"time": 190317, "pitch": 71, "duration": 90, "velocity": 110}, {"time": 190557, "pitch": 47, "duration": 382, "velocity": 80}, {"time": 190557, "pitch": 57, "duration": 301, "velocity": 100}, {"time": 190557, "pitch": 62, "duration": 301, "velocity": 100}, {"time": 190557, "pitch": 66, "duration": 281, "velocity": 110}, {"time": 190919, "pitch": 57, "duration": 150, "velocity": 100}, {"time": 190919, "pitch": 62, "duration": 170, "velocity": 100}, {"time": 190919, "pitch": 66, "duration": 170, "velocity": 110}, {"time": 191039, "pitch": 47, "duration": 452, "velocity": 80}, {"time": 191280, "pitch": 57, "duration": 311, "velocity": 100}, {"time": 191280, "pitch": 62, "duration": 361, "velocity": 100}, {"time": 191280, "pitch": 66, "duration": 341, "velocity": 110}, {"time": 191521, "pitch": 47, "duration": 431, "velocity": 80}, {"time": 191761, "pitch": 57, "duration": 251, "velocity": 100}, {"time": 191761, "pitch": 62, "duration": 271, "velocity": 100}, {"time": 191761, "pitch": 66, "duration": 251, "velocity": 110}, {"time": 192002, "pitch": 47, "duration": 412, "velocity": 80}, {"time": 192123, "pitch": 57, "duration": 291, "velocity": 100}, {"time": 192123, "pitch": 62, "duration": 311, "velocity": 100}, {"time": 192123, "pitch": 66, "duration": 291, "velocity": 110}, {"time": 192484, "pitch": 47, "duration": 393, "velocity": 80}, {"time": 192484, "pitch": 57, "duration": 265, "velocity": 100}, {"time": 192484, "pitch": 62, "duration": 304, "velocity": 100}, {"time": 192484, "pitch": 66, "duration": 265, "velocity": 110}, {"time": 192837, "pitch": 57, "duration": 138, "velocity": 100}, {"time": 192837, "pitch": 62, "duration": 168, "velocity": 100}, {"time": 192837, "pitch": 66, "duration": 148, "velocity": 110}, {"time": 192955, "pitch": 47, "duration": 411, "velocity": 80}, {"time": 193196, "pitch": 57, "duration": 291, "velocity": 100}, {"time": 193196, "pitch": 62, "duration": 321, "velocity": 100}, {"time": 193196, "pitch": 66, "duration": 301, "velocity": 110}, {"time": 193437, "pitch": 47, "duration": 351, "velocity": 80}, {"time": 193677, "pitch": 57, "duration": 261, "velocity": 100}, {"time": 193677, "pitch": 62, "duration": 281, "velocity": 100}, {"time": 193677, "pitch": 66, "duration": 261, "velocity": 110}, {"time": 193918, "pitch": 47, "duration": 151, "velocity": 80}, {"time": 194039, "pitch": 57, "duration": 210, "velocity": 100}, {"time": 194039, "pitch": 62, "duration": 280, "velocity": 100}, {"time": 194039, "pitch": 66, "duration": 270, "velocity": 110}, {"time": 194159, "pitch": 47, "duration": 211, "velocity": 80}, {"time": 194400, "pitch": 44, "duration": 361, "velocity": 80}, {"time": 194400, "pitch": 59, "duration": 261, "velocity": 100}, {"time": 194400, "pitch": 62, "duration": 271, "velocity": 100}, {"time": 194400, "pitch": 66, "duration": 231, "velocity": 110}, {"time": 194761, "pitch": 59, "duration": 170, "velocity": 100}, {"time": 194761, "pitch": 62, "duration": 181, "velocity": 100}, {"time": 194761, "pitch": 66, "duration": 170, "velocity": 110}, {"time": 194881, "pitch": 44, "duration": 372, "velocity": 80}, {"time": 195122, "pitch": 59, "duration": 351, "velocity": 100}, {"time": 195122, "pitch": 62, "duration": 351, "velocity": 100}, {"time": 195122, "pitch": 66, "duration": 331, "velocity": 110}, {"time": 195363, "pitch": 44, "duration": 451, "velocity": 80}, {"time": 195604, "pitch": 59, "duration": 280, "velocity": 100}, {"time": 195604, "pitch": 62, "duration": 280, "velocity": 100}, {"time": 195604, "pitch": 66, "duration": 260, "velocity": 110}, {"time": 195844, "pitch": 44, "duration": 374, "velocity": 80}, {"time": 195962, "pitch": 59, "duration": 265, "velocity": 100}, {"time": 195962, "pitch": 62, "duration": 265, "velocity": 100}, {"time": 195962, "pitch": 66, "duration": 256, "velocity": 110}, {"time": 196316, "pitch": 44, "duration": 391, "velocity": 80}, {"time": 196316, "pitch": 59, "duration": 291, "velocity": 100}, {"time": 196316, "pitch": 62, "duration": 301, "velocity": 100}, {"time": 196316, "pitch": 66, "duration": 271, "velocity": 110}, {"time": 196677, "pitch": 59, "duration": 160, "velocity": 100}, {"time": 196677, "pitch": 62, "duration": 160, "velocity": 100}, {"time": 196677, "pitch": 66, "duration": 160, "velocity": 110}, {"time": 196797, "pitch": 44, "duration": 402, "velocity": 80}, {"time": 197038, "pitch": 59, "duration": 321, "velocity": 100}, {"time": 197038, "pitch": 62, "duration": 321, "velocity": 100}, {"time": 197038, "pitch": 66, "duration": 301, "velocity": 110}, {"time": 197279, "pitch": 44, "duration": 351, "velocity": 80}, {"time": 197520, "pitch": 59, "duration": 260, "velocity": 100}, {"time": 197520, "pitch": 62, "duration": 260, "velocity": 100}, {"time": 197520, "pitch": 66, "duration": 250, "velocity": 110}, {"time": 197760, "pitch": 44, "duration": 161, "velocity": 80}, {"time": 197881, "pitch": 59, "duration": 200, "velocity": 100}, {"time": 197881, "pitch": 62, "duration": 200, "velocity": 100}, {"time": 197881, "pitch": 66, "duration": 200, "velocity": 110}, {"time": 198001, "pitch": 44, "duration": 251, "velocity": 80}, {"time": 198242, "pitch": 43, "duration": 351, "velocity": 80}, {"time": 198242, "pitch": 59, "duration": 281, "velocity": 100}, {"time": 198242, "pitch": 62, "duration": 281, "velocity": 100}, {"time": 198242, "pitch": 66, "duration": 261, "velocity": 110}, {"time": 198603, "pitch": 59, "duration": 171, "velocity": 100}, {"time": 198603, "pitch": 62, "duration": 171, "velocity": 100}, {"time": 198603, "pitch": 66, "duration": 171, "velocity": 110}, {"time": 198724, "pitch": 43, "duration": 260, "velocity": 80}, {"time": 198964, "pitch": 59, "duration": 339, "velocity": 100}, {"time": 198964, "pitch": 62, "duration": 339, "velocity": 100}, {"time": 198964, "pitch": 66, "duration": 339, "velocity": 110}, {"time": 199205, "pitch": 43, "duration": 373, "velocity": 80}, {"time": 199441, "pitch": 59, "duration": 275, "velocity": 100}, {"time": 199441, "pitch": 62, "duration": 275, "velocity": 100}, {"time": 199441, "pitch": 66, "duration": 255, "velocity": 110}, {"time": 199676, "pitch": 43, "duration": 432, "velocity": 80}, {"time": 199797, "pitch": 59, "duration": 301, "velocity": 100}, {"time": 199797, "pitch": 62, "duration": 301, "velocity": 100}, {"time": 199797, "pitch": 66, "duration": 291, "velocity": 110}, {"time": 200158, "pitch": 43, "duration": 401, "velocity": 80}, {"time": 200158, "pitch": 59, "duration": 301, "velocity": 100}, {"time": 200158, "pitch": 62, "duration": 291, "velocity": 100}, {"time": 200158, "pitch": 66, "duration": 281, "velocity": 110}, {"time": 200519, "pitch": 59, "duration": 201, "velocity": 100}, {"time": 200519, "pitch": 62, "duration": 191, "velocity": 100}, {"time": 200519, "pitch": 66, "duration": 191, "velocity": 110}, {"time": 200639, "pitch": 43, "duration": 392, "velocity": 80}, {"time": 200880, "pitch": 59, "duration": 321, "velocity": 100}, {"time": 200880, "pitch": 62, "duration": 311, "velocity": 100}, {"time": 200880, "pitch": 66, "duration": 301, "velocity": 110}, {"time": 201121, "pitch": 43, "duration": 321, "velocity": 80}, {"time": 201362, "pitch": 59, "duration": 261, "velocity": 100}, {"time": 201362, "pitch": 62, "duration": 251, "velocity": 100}, {"time": 201362, "pitch": 66, "duration": 241, "velocity": 110}, {"time": 201603, "pitch": 43, "duration": 130, "velocity": 80}, {"time": 201723, "pitch": 59, "duration": 251, "velocity": 100}, {"time": 201723, "pitch": 62, "duration": 241, "velocity": 100}, {"time": 201723, "pitch": 66, "duration": 221, "velocity": 110}, {"time": 201843, "pitch": 43, "duration": 201, "velocity": 80}, {"time": 202084, "pitch": 40, "duration": 393, "velocity": 80}, {"time": 202084, "pitch": 55, "duration": 255, "velocity": 100}, {"time": 202084, "pitch": 59, "duration": 275, "velocity": 100}, {"time": 202084, "pitch": 62, "duration": 285, "velocity": 100}, {"time": 202084, "pitch": 66, "duration": 265, "velocity": 110}, {"time": 202438, "pitch": 55, "duration": 168, "velocity": 100}, {"time": 202438, "pitch": 59, "duration": 178, "velocity": 100}, {"time": 202438, "pitch": 62, "duration": 168, "velocity": 100}, {"time": 202438, "pitch": 66, "duration": 168, "velocity": 110}, {"time": 202555, "pitch": 40, "duration": 311, "velocity": 80}, {"time": 202796, "pitch": 55, "duration": 281, "velocity": 100}, {"time": 202796, "pitch": 59, "duration": 311, "velocity": 100}, {"time": 202796, "pitch": 62, "duration": 301, "velocity": 100}, {"time": 202796, "pitch": 66, "duration": 301, "velocity": 110}, {"time": 203037, "pitch": 40, "duration": 311, "velocity": 80}, {"time": 203278, "pitch": 55, "duration": 251, "velocity": 100}, {"time": 203278, "pitch": 59, "duration": 281, "velocity": 100}, {"time": 203278, "pitch": 62, "duration": 271, "velocity": 100}, {"time": 203278, "pitch": 66, "duration": 251, "velocity": 110}, {"time": 203519, "pitch": 40, "duration": 140, "velocity": 80}, {"time": 203639, "pitch": 55, "duration": 221, "velocity": 100}, {"time": 203639, "pitch": 59, "duration": 251, "velocity": 100}, {"time": 203639, "pitch": 62, "duration": 241, "velocity": 100}, {"time": 203639, "pitch": 66, "duration": 211, "velocity": 110}, {"time": 203759, "pitch": 40, "duration": 261, "velocity": 80}, {"time": 204000, "pitch": 42, "duration": 422, "velocity": 80}, {"time": 204000, "pitch": 54, "duration": 261, "velocity": 100}, {"time": 204000, "pitch": 57, "duration": 291, "velocity": 100}, {"time": 204000, "pitch": 61, "duration": 281, "velocity": 100}, {"time": 204000, "pitch": 64, "duration": 261, "velocity": 110}, {"time": 204361, "pitch": 54, "duration": 161, "velocity": 100}, {"time": 204361, "pitch": 57, "duration": 181, "velocity": 100}, {"time": 204361, "pitch": 61, "duration": 191, "velocity": 100}, {"time": 204361, "pitch": 64, "duration": 181, "velocity": 110}, {"time": 204482, "pitch": 42, "duration": 361, "velocity": 80}, {"time": 204723, "pitch": 54, "duration": 260, "velocity": 100}, {"time": 204723, "pitch": 57, "duration": 290, "velocity": 100}, {"time": 204723, "pitch": 61, "duration": 290, "velocity": 100}, {"time": 204723, "pitch": 64, "duration": 280, "velocity": 110}, {"time": 204963, "pitch": 42, "duration": 311, "velocity": 80}, {"time": 205204, "pitch": 54, "duration": 241, "velocity": 100}, {"time": 205204, "pitch": 57, "duration": 260, "velocity": 100}, {"time": 205204, "pitch": 61, "duration": 260, "velocity": 100}, {"time": 205204, "pitch": 64, "duration": 241, "velocity": 110}, {"time": 205445, "pitch": 42, "duration": 147, "velocity": 80}, {"time": 205563, "pitch": 54, "duration": 235, "velocity": 100}, {"time": 205563, "pitch": 57, "duration": 245, "velocity": 100}, {"time": 205563, "pitch": 61, "duration": 265, "velocity": 100}, {"time": 205563, "pitch": 64, "duration": 255, "velocity": 110}, {"time": 205680, "pitch": 42, "duration": 226, "velocity": 80}, {"time": 205916, "pitch": 47, "duration": 381, "velocity": 80}, {"time": 205916, "pitch": 57, "duration": 301, "velocity": 100}, {"time": 205916, "pitch": 62, "duration": 301, "velocity": 100}, {"time": 205916, "pitch": 66, "duration": 281, "velocity": 110}, {"time": 206277, "pitch": 57, "duration": 151, "velocity": 100}, {"time": 206277, "pitch": 62, "duration": 171, "velocity": 100}, {"time": 206277, "pitch": 66, "duration": 171, "velocity": 110}, {"time": 206398, "pitch": 47, "duration": 451, "velocity": 80}, {"time": 206638, "pitch": 57, "duration": 311, "velocity": 100}, {"time": 206638, "pitch": 62, "duration": 362, "velocity": 100}, {"time": 206638, "pitch": 66, "duration": 342, "velocity": 110}, {"time": 206879, "pitch": 47, "duration": 432, "velocity": 80}, {"time": 207120, "pitch": 57, "duration": 251, "velocity": 100}, {"time": 207120, "pitch": 62, "duration": 271, "velocity": 100}, {"time": 207120, "pitch": 66, "duration": 251, "velocity": 110}, {"time": 207361, "pitch": 47, "duration": 411, "velocity": 80}, {"time": 207481, "pitch": 57, "duration": 291, "velocity": 100}, {"time": 207481, "pitch": 62, "duration": 311, "velocity": 100}, {"time": 207481, "pitch": 66, "duration": 291, "velocity": 110}, {"time": 207842, "pitch": 47, "duration": 402, "velocity": 80}, {"time": 207842, "pitch": 57, "duration": 271, "velocity": 100}, {"time": 207842, "pitch": 62, "duration": 311, "velocity": 100}, {"time": 207842, "pitch": 66, "duration": 271, "velocity": 110}, {"time": 208204, "pitch": 57, "duration": 140, "velocity": 100}, {"time": 208204, "pitch": 62, "duration": 169, "velocity": 100}, {"time": 208204, "pitch": 66, "duration": 149, "velocity": 110}, {"time": 208324, "pitch": 47, "duration": 402, "velocity": 80}, {"time": 208560, "pitch": 57, "duration": 285, "velocity": 100}, {"time": 208560, "pitch": 62, "duration": 315, "velocity": 100}, {"time": 208560, "pitch": 66, "duration": 295, "velocity": 110}, {"time": 208795, "pitch": 47, "duration": 351, "velocity": 80}, {"time": 209036, "pitch": 57, "duration": 261, "velocity": 100}, {"time": 209036, "pitch": 62, "duration": 281, "velocity": 100}, {"time": 209036, "pitch": 66, "duration": 261, "velocity": 110}, {"time": 209277, "pitch": 47, "duration": 150, "velocity": 80}, {"time": 209397, "pitch": 57, "duration": 211, "velocity": 100}, {"time": 209397, "pitch": 62, "duration": 281, "velocity": 100}, {"time": 209397, "pitch": 66, "duration": 271, "velocity": 110}, {"time": 209517, "pitch": 47, "duration": 211, "velocity": 80}, {"time": 209758, "pitch": 44, "duration": 361, "velocity": 80}, {"time": 209758, "pitch": 59, "duration": 261, "velocity": 100}, {"time": 209758, "pitch": 62, "duration": 271, "velocity": 100}, {"time": 209758, "pitch": 66, "duration": 231, "velocity": 110}, {"time": 210119, "pitch": 59, "duration": 171, "velocity": 100}, {"time": 210119, "pitch": 62, "duration": 181, "velocity": 100}, {"time": 210119, "pitch": 66, "duration": 171, "velocity": 110}, {"time": 210240, "pitch": 44, "duration": 371, "velocity": 80}, {"time": 210481, "pitch": 59, "duration": 351, "velocity": 100}, {"time": 210481, "pitch": 62, "duration": 351, "velocity": 100}, {"time": 210481, "pitch": 66, "duration": 331, "velocity": 110}, {"time": 210721, "pitch": 44, "duration": 452, "velocity": 80}, {"time": 210962, "pitch": 59, "duration": 281, "velocity": 100}, {"time": 210962, "pitch": 62, "duration": 281, "velocity": 100}, {"time": 210962, "pitch": 66, "duration": 261, "velocity": 110}, {"time": 211203, "pitch": 44, "duration": 381, "velocity": 80}, {"time": 211323, "pitch": 59, "duration": 271, "velocity": 100}, {"time": 211323, "pitch": 62, "duration": 271, "velocity": 100}, {"time": 211323, "pitch": 66, "duration": 261, "velocity": 110}, {"time": 211685, "pitch": 44, "duration": 382, "velocity": 80}, {"time": 211685, "pitch": 59, "duration": 284, "velocity": 100}, {"time": 211685, "pitch": 62, "duration": 294, "velocity": 100}, {"time": 211685, "pitch": 66, "duration": 265, "velocity": 110}, {"time": 212038, "pitch": 59, "duration": 158, "velocity": 100}, {"time": 212038, "pitch": 62, "duration": 158, "velocity": 100}, {"time": 212038, "pitch": 66, "duration": 158, "velocity": 110}, {"time": 212156, "pitch": 44, "duration": 401, "velocity": 80}, {"time": 212397, "pitch": 59, "duration": 321, "velocity": 100}, {"time": 212397, "pitch": 62, "duration": 321, "velocity": 100}, {"time": 212397, "pitch": 66, "duration": 301, "velocity": 110}, {"time": 212637, "pitch": 44, "duration": 352, "velocity": 80}, {"time": 212878, "pitch": 59, "duration": 261, "velocity": 100}, {"time": 212878, "pitch": 62, "duration": 261, "velocity": 100}, {"time": 212878, "pitch": 66, "duration": 251, "velocity": 110}, {"time": 213119, "pitch": 44, "duration": 160, "velocity": 80}, {"time": 213239, "pitch": 59, "duration": 201, "velocity": 100}, {"time": 213239, "pitch": 62, "duration": 201, "velocity": 100}, {"time": 213239, "pitch": 66, "duration": 201, "velocity": 110}, {"time": 213360, "pitch": 44, "duration": 251, "velocity": 80}, {"time": 213601, "pitch": 43, "duration": 351, "velocity": 80}, {"time": 213601, "pitch": 59, "duration": 280, "velocity": 100}, {"time": 213601, "pitch": 62, "duration": 280, "velocity": 100}, {"time": 213601, "pitch": 66, "duration": 260, "velocity": 110}, {"time": 213962, "pitch": 59, "duration": 170, "velocity": 100}, {"time": 213962, "pitch": 62, "duration": 170, "velocity": 100}, {"time": 213962, "pitch": 66, "duration": 170, "velocity": 110}, {"time": 214082, "pitch": 43, "duration": 261, "velocity": 80}, {"time": 214323, "pitch": 59, "duration": 339, "velocity": 100}, {"time": 214323, "pitch": 62, "duration": 339, "velocity": 100}, {"time": 214323, "pitch": 66, "duration": 339, "velocity": 110}, {"time": 214564, "pitch": 43, "duration": 373, "velocity": 80}, {"time": 214799, "pitch": 59, "duration": 276, "velocity": 100}, {"time": 214799, "pitch": 62, "duration": 276, "velocity": 100}, {"time": 214799, "pitch": 66, "duration": 256, "velocity": 110}, {"time": 215035, "pitch": 43, "duration": 431, "velocity": 80}, {"time": 215155, "pitch": 59, "duration": 301, "velocity": 100}, {"time": 215155, "pitch": 62, "duration": 301, "velocity": 100}, {"time": 215155, "pitch": 66, "duration": 291, "velocity": 110}, {"time": 215516, "pitch": 43, "duration": 402, "velocity": 80}, {"time": 215516, "pitch": 59, "duration": 301, "velocity": 100}, {"time": 215516, "pitch": 62, "duration": 291, "velocity": 100}, {"time": 215516, "pitch": 66, "duration": 281, "velocity": 110}, {"time": 215878, "pitch": 59, "duration": 200, "velocity": 100}, {"time": 215878, "pitch": 62, "duration": 190, "velocity": 100}, {"time": 215878, "pitch": 66, "duration": 190, "velocity": 110}, {"time": 215998, "pitch": 43, "duration": 391, "velocity": 80}, {"time": 216239, "pitch": 59, "duration": 321, "velocity": 100}, {"time": 216239, "pitch": 62, "duration": 311, "velocity": 100}, {"time": 216239, "pitch": 66, "duration": 301, "velocity": 110}, {"time": 216480, "pitch": 43, "duration": 321, "velocity": 80}, {"time": 216720, "pitch": 59, "duration": 261, "velocity": 100}, {"time": 216720, "pitch": 62, "duration": 251, "velocity": 100}, {"time": 216720, "pitch": 66, "duration": 241, "velocity": 110}, {"time": 216961, "pitch": 43, "duration": 131, "velocity": 80}, {"time": 217082, "pitch": 59, "duration": 250, "velocity": 100}, {"time": 217082, "pitch": 62, "duration": 240, "velocity": 100}, {"time": 217082, "pitch": 66, "duration": 220, "velocity": 110}, {"time": 217202, "pitch": 43, "duration": 201, "velocity": 80}, {"time": 217443, "pitch": 40, "duration": 401, "velocity": 80}, {"time": 217443, "pitch": 55, "duration": 261, "velocity": 100}, {"time": 217443, "pitch": 59, "duration": 281, "velocity": 100}, {"time": 217443, "pitch": 62, "duration": 291, "velocity": 100}, {"time": 217443, "pitch": 66, "duration": 271, "velocity": 110}, {"time": 217804, "pitch": 55, "duration": 169, "velocity": 100}, {"time": 217804, "pitch": 59, "duration": 179, "velocity": 100}, {"time": 217804, "pitch": 62, "duration": 169, "velocity": 100}, {"time": 217804, "pitch": 66, "duration": 169, "velocity": 110}, {"time": 217924, "pitch": 40, "duration": 305, "velocity": 80}, {"time": 218160, "pitch": 55, "duration": 276, "velocity": 100}, {"time": 218160, "pitch": 59, "duration": 306, "velocity": 100}, {"time": 218160, "pitch": 62, "duration": 296, "velocity": 100}, {"time": 218160, "pitch": 66, "duration": 296, "velocity": 110}, {"time": 218396, "pitch": 40, "duration": 311, "velocity": 80}, {"time": 218636, "pitch": 55, "duration": 251, "velocity": 100}, {"time": 218636, "pitch": 59, "duration": 281, "velocity": 100}, {"time": 218636, "pitch": 62, "duration": 271, "velocity": 100}, {"time": 218636, "pitch": 66, "duration": 251, "velocity": 110}, {"time": 218877, "pitch": 40, "duration": 141, "velocity": 80}, {"time": 218997, "pitch": 55, "duration": 221, "velocity": 100}, {"time": 218997, "pitch": 59, "duration": 251, "velocity": 100}, {"time": 218997, "pitch": 62, "duration": 241, "velocity": 100}, {"time": 218997, "pitch": 66, "duration": 211, "velocity": 110}, {"time": 219118, "pitch": 40, "duration": 261, "velocity": 80}, {"time": 219359, "pitch": 42, "duration": 421, "velocity": 80}, {"time": 219359, "pitch": 54, "duration": 261, "velocity": 100}, {"time": 219359, "pitch": 57, "duration": 291, "velocity": 100}, {"time": 219359, "pitch": 61, "duration": 281, "velocity": 100}, {"time": 219359, "pitch": 64, "duration": 261, "velocity": 110}, {"time": 219720, "pitch": 54, "duration": 160, "velocity": 100}, {"time": 219720, "pitch": 57, "duration": 180, "velocity": 100}, {"time": 219720, "pitch": 61, "duration": 191, "velocity": 100}, {"time": 219720, "pitch": 64, "duration": 180, "velocity": 110}, {"time": 219840, "pitch": 42, "duration": 361, "velocity": 80}, {"time": 220081, "pitch": 54, "duration": 261, "velocity": 100}, {"time": 220081, "pitch": 57, "duration": 291, "velocity": 100}, {"time": 220081, "pitch": 61, "duration": 291, "velocity": 100}, {"time": 220081, "pitch": 64, "duration": 281, "velocity": 110}, {"time": 220322, "pitch": 42, "duration": 311, "velocity": 80}, {"time": 220563, "pitch": 54, "duration": 240, "velocity": 100}, {"time": 220563, "pitch": 57, "duration": 261, "velocity": 100}, {"time": 220563, "pitch": 61, "duration": 261, "velocity": 100}, {"time": 220563, "pitch": 64, "duration": 240, "velocity": 110}, {"time": 220803, "pitch": 42, "duration": 151, "velocity": 80}, {"time": 220924, "pitch": 54, "duration": 241, "velocity": 100}, {"time": 220924, "pitch": 57, "duration": 251, "velocity": 100}, {"time": 220924, "pitch": 61, "duration": 271, "velocity": 100}, {"time": 220924, "pitch": 64, "duration": 261, "velocity": 110}, {"time": 221044, "pitch": 42, "duration": 231, "velocity": 80}, {"time": 236644, "pitch": 55, "duration": 230, "velocity": 80}, {"time": 236644, "pitch": 62, "duration": 270, "velocity": 100}, {"time": 236644, "pitch": 67, "duration": 260, "velocity": 100}, {"time": 236644, "pitch": 71, "duration": 270, "velocity": 110}, {"time": 237005, "pitch": 55, "duration": 150, "velocity": 80}, {"time": 237005, "pitch": 62, "duration": 150, "velocity": 100}, {"time": 237005, "pitch": 67, "duration": 179, "velocity": 100}, {"time": 237005, "pitch": 71, "duration": 169, "velocity": 110}, {"time": 237361, "pitch": 55, "duration": 206, "velocity": 80}, {"time": 237361, "pitch": 62, "duration": 216, "velocity": 100}, {"time": 237361, "pitch": 67, "duration": 245, "velocity": 100}, {"time": 237361, "pitch": 71, "duration": 235, "velocity": 110}, {"time": 237717, "pitch": 57, "duration": 210, "velocity": 80}, {"time": 237717, "pitch": 64, "duration": 220, "velocity": 100}, {"time": 237717, "pitch": 69, "duration": 240, "velocity": 100}, {"time": 237717, "pitch": 73, "duration": 240, "velocity": 110}, {"time": 238078, "pitch": 57, "duration": 100, "velocity": 80}, {"time": 238078, "pitch": 64, "duration": 110, "velocity": 100}, {"time": 238078, "pitch": 69, "duration": 130, "velocity": 100}, {"time": 238078, "pitch": 73, "duration": 120, "velocity": 110}, {"time": 238319, "pitch": 57, "duration": 100, "velocity": 80}, {"time": 238319, "pitch": 64, "duration": 80, "velocity": 100}, {"time": 238319, "pitch": 69, "duration": 90, "velocity": 100}, {"time": 238319, "pitch": 73, "duration": 70, "velocity": 110}, {"time": 238559, "pitch": 54, "duration": 201, "velocity": 80}, {"time": 238559, "pitch": 61, "duration": 221, "velocity": 100}, {"time": 238559, "pitch": 64, "duration": 231, "velocity": 100}, {"time": 238559, "pitch": 69, "duration": 221, "velocity": 110}, {"time": 238921, "pitch": 54, "duration": 170, "velocity": 80}, {"time": 238921, "pitch": 61, "duration": 190, "velocity": 100}, {"time": 238921, "pitch": 64, "duration": 190, "velocity": 100}, {"time": 238921, "pitch": 69, "duration": 200, "velocity": 110}, {"time": 239282, "pitch": 54, "duration": 231, "velocity": 80}, {"time": 239282, "pitch": 61, "duration": 241, "velocity": 100}, {"time": 239282, "pitch": 64, "duration": 231, "velocity": 100}, {"time": 239282, "pitch": 69, "duration": 241, "velocity": 110}, {"time": 239643, "pitch": 47, "duration": 221, "velocity": 80}, {"time": 239643, "pitch": 61, "duration": 211, "velocity": 100}, {"time": 239643, "pitch": 66, "duration": 231, "velocity": 100}, {"time": 239643, "pitch": 69, "duration": 231, "velocity": 110}, {"time": 240004, "pitch": 47, "duration": 118, "velocity": 80}, {"time": 240004, "pitch": 61, "duration": 98, "velocity": 100}, {"time": 240004, "pitch": 66, "duration": 108, "velocity": 100}, {"time": 240004, "pitch": 69, "duration": 108, "velocity": 110}, {"time": 240240, "pitch": 47, "duration": 108, "velocity": 80}, {"time": 240240, "pitch": 61, "duration": 98, "velocity": 100}, {"time": 240240, "pitch": 66, "duration": 108, "velocity": 100}, {"time": 240240, "pitch": 69, "duration": 108, "velocity": 110}, {"time": 240475, "pitch": 52, "duration": 211, "velocity": 80}, {"time": 240475, "pitch": 62, "duration": 231, "velocity": 100}, {"time": 240475, "pitch": 67, "duration": 251, "velocity": 100}, {"time": 240475, "pitch": 71, "duration": 241, "velocity": 110}, {"time": 240837, "pitch": 52, "duration": 220, "velocity": 80}, {"time": 240837, "pitch": 62, "duration": 190, "velocity": 100}, {"time": 240837, "pitch": 67, "duration": 210, "velocity": 100}, {"time": 240837, "pitch": 71, "duration": 210, "velocity": 110}, {"time": 241198, "pitch": 52, "duration": 210, "velocity": 80}, {"time": 241198, "pitch": 62, "duration": 210, "velocity": 100}, {"time": 241198, "pitch": 67, "duration": 220, "velocity": 100}, {"time": 241198, "pitch": 71, "duration": 241, "velocity": 110}, {"time": 241559, "pitch": 54, "duration": 201, "velocity": 80}, {"time": 241559, "pitch": 64, "duration": 211, "velocity": 100}, {"time": 241559, "pitch": 69, "duration": 221, "velocity": 100}, {"time": 241559, "pitch": 73, "duration": 211, "velocity": 110}, {"time": 241920, "pitch": 54, "duration": 131, "velocity": 80}, {"time": 241920, "pitch": 64, "duration": 90, "velocity": 100}, {"time": 241920, "pitch": 69, "duration": 111, "velocity": 100}, {"time": 241920, "pitch": 73, "duration": 121, "velocity": 110}, {"time": 242161, "pitch": 54, "duration": 120, "velocity": 80}, {"time": 242161, "pitch": 64, "duration": 80, "velocity": 100}, {"time": 242161, "pitch": 69, "duration": 100, "velocity": 100}, {"time": 242161, "pitch": 73, "duration": 90, "velocity": 110}, {"time": 242402, "pitch": 55, "duration": 190, "velocity": 80}, {"time": 242402, "pitch": 66, "duration": 190, "velocity": 100}, {"time": 242402, "pitch": 71, "duration": 220, "velocity": 100}, {"time": 242402, "pitch": 74, "duration": 220, "velocity": 110}, {"time": 242763, "pitch": 55, "duration": 201, "velocity": 80}, {"time": 242763, "pitch": 66, "duration": 181, "velocity": 100}, {"time": 242763, "pitch": 71, "duration": 211, "velocity": 100}, {"time": 242763, "pitch": 74, "duration": 201, "velocity": 110}, {"time": 243124, "pitch": 55, "duration": 241, "velocity": 80}, {"time": 243124, "pitch": 66, "duration": 251, "velocity": 100}, {"time": 243124, "pitch": 71, "duration": 260, "velocity": 100}, {"time": 243124, "pitch": 74, "duration": 270, "velocity": 110}, {"time": 243483, "pitch": 57, "duration": 225, "velocity": 80}, {"time": 243483, "pitch": 69, "duration": 216, "velocity": 100}, {"time": 243483, "pitch": 73, "duration": 235, "velocity": 100}, {"time": 243483, "pitch": 76, "duration": 235, "velocity": 110}, {"time": 243836, "pitch": 57, "duration": 110, "velocity": 80}, {"time": 243836, "pitch": 69, "duration": 110, "velocity": 100}, {"time": 243836, "pitch": 73, "duration": 141, "velocity": 100}, {"time": 243836, "pitch": 76, "duration": 130, "velocity": 110}, {"time": 244077, "pitch": 57, "duration": 110, "velocity": 80}, {"time": 244077, "pitch": 69, "duration": 90, "velocity": 100}, {"time": 244077, "pitch": 73, "duration": 120, "velocity": 100}, {"time": 244077, "pitch": 76, "duration": 110, "velocity": 110}, {"time": 244318, "pitch": 55, "duration": 230, "velocity": 80}, {"time": 244318, "pitch": 62, "duration": 271, "velocity": 100}, {"time": 244318, "pitch": 67, "duration": 260, "velocity": 100}, {"time": 244318, "pitch": 71, "duration": 271, "velocity": 110}, {"time": 244679, "pitch": 55, "duration": 150, "velocity": 80}, {"time": 244679, "pitch": 62, "duration": 150, "velocity": 100}, {"time": 244679, "pitch": 67, "duration": 180, "velocity": 100}, {"time": 244679, "pitch": 71, "duration": 170, "velocity": 110}, {"time": 245040, "pitch": 55, "duration": 211, "velocity": 80}, {"time": 245040, "pitch": 62, "duration": 221, "velocity": 100}, {"time": 245040, "pitch": 67, "duration": 251, "velocity": 100}, {"time": 245040, "pitch": 71, "duration": 241, "velocity": 110}, {"time": 245401, "pitch": 57, "duration": 211, "velocity": 80}, {"time": 245401, "pitch": 64, "duration": 221, "velocity": 100}, {"time": 245401, "pitch": 69, "duration": 241, "velocity": 100}, {"time": 245401, "pitch": 73, "duration": 241, "velocity": 110}, {"time": 245762, "pitch": 57, "duration": 101, "velocity": 80}, {"time": 245762, "pitch": 64, "duration": 111, "velocity": 100}, {"time": 245762, "pitch": 69, "duration": 131, "velocity": 100}, {"time": 245762, "pitch": 73, "duration": 121, "velocity": 110}, {"time": 246003, "pitch": 57, "duration": 101, "velocity": 80}, {"time": 246003, "pitch": 64, "duration": 80, "velocity": 100}, {"time": 246003, "pitch": 69, "duration": 90, "velocity": 100}, {"time": 246003, "pitch": 73, "duration": 70, "velocity": 110}, {"time": 246244, "pitch": 54, "duration": 196, "velocity": 80}, {"time": 246244, "pitch": 61, "duration": 216, "velocity": 100}, {"time": 246244, "pitch": 64, "duration": 226, "velocity": 100}, {"time": 246244, "pitch": 69, "duration": 216, "velocity": 110}, {"time": 246597, "pitch": 54, "duration": 168, "velocity": 80}, {"time": 246597, "pitch": 61, "duration": 188, "velocity": 100}, {"time": 246597, "pitch": 64, "duration": 188, "velocity": 100}, {"time": 246597, "pitch": 69, "duration": 198, "velocity": 110}, {"time": 246956, "pitch": 54, "duration": 231, "velocity": 80}, {"time": 246956, "pitch": 61, "duration": 241, "velocity": 100}, {"time": 246956, "pitch": 64, "duration": 231, "velocity": 100}, {"time": 246956, "pitch": 69, "duration": 241, "velocity": 110}, {"time": 247317, "pitch": 47, "duration": 221, "velocity": 80}, {"time": 247317, "pitch": 61, "duration": 211, "velocity": 100}, {"time": 247317, "pitch": 66, "duration": 231, "velocity": 100}, {"time": 247317, "pitch": 69, "duration": 231, "velocity": 110}, {"time": 247678, "pitch": 47, "duration": 121, "velocity": 80}, {"time": 247678, "pitch": 61, "duration": 101, "velocity": 100}, {"time": 247678, "pitch": 66, "duration": 111, "velocity": 100}, {"time": 247678, "pitch": 69, "duration": 111, "velocity": 110}, {"time": 247919, "pitch": 47, "duration": 110, "velocity": 80}, {"time": 247919, "pitch": 61, "duration": 100, "velocity": 100}, {"time": 247919, "pitch": 66, "duration": 110, "velocity": 100}, {"time": 247919, "pitch": 69, "duration": 110, "velocity": 110}, {"time": 248160, "pitch": 55, "duration": 211, "velocity": 80}, {"time": 248160, "pitch": 66, "duration": 231, "velocity": 100}, {"time": 248160, "pitch": 71, "duration": 251, "velocity": 100}, {"time": 248160, "pitch": 74, "duration": 241, "velocity": 110}, {"time": 248521, "pitch": 55, "duration": 221, "velocity": 80}, {"time": 248521, "pitch": 66, "duration": 191, "velocity": 100}, {"time": 248521, "pitch": 71, "duration": 211, "velocity": 100}, {"time": 248521, "pitch": 74, "duration": 211, "velocity": 110}, {"time": 248882, "pitch": 55, "duration": 211, "velocity": 80}, {"time": 248882, "pitch": 66, "duration": 211, "velocity": 100}, {"time": 248882, "pitch": 71, "duration": 221, "velocity": 100}, {"time": 248882, "pitch": 74, "duration": 241, "velocity": 110}, {"time": 249243, "pitch": 54, "duration": 201, "velocity": 80}, {"time": 249243, "pitch": 64, "duration": 211, "velocity": 100}, {"time": 249243, "pitch": 69, "duration": 221, "velocity": 100}, {"time": 249243, "pitch": 73, "duration": 211, "velocity": 110}, {"time": 249605, "pitch": 54, "duration": 127, "velocity": 80}, {"time": 249605, "pitch": 64, "duration": 88, "velocity": 100}, {"time": 249605, "pitch": 69, "duration": 108, "velocity": 100}, {"time": 249605, "pitch": 73, "duration": 117, "velocity": 110}, {"time": 249840, "pitch": 54, "duration": 118, "velocity": 80}, {"time": 249840, "pitch": 64, "duration": 79, "velocity": 100}, {"time": 249840, "pitch": 69, "duration": 98, "velocity": 100}, {"time": 249840, "pitch": 73, "duration": 89, "velocity": 110}, {"time": 250076, "pitch": 52, "duration": 190, "velocity": 80}, {"time": 250076, "pitch": 64, "duration": 190, "velocity": 100}, {"time": 250076, "pitch": 68, "duration": 221, "velocity": 100}, {"time": 250076, "pitch": 71, "duration": 221, "velocity": 110}, {"time": 250437, "pitch": 52, "duration": 201, "velocity": 80}, {"time": 250437, "pitch": 64, "duration": 181, "velocity": 100}, {"time": 250437, "pitch": 68, "duration": 211, "velocity": 100}, {"time": 250437, "pitch": 71, "duration": 201, "velocity": 110}, {"time": 250798, "pitch": 52, "duration": 241, "velocity": 80}, {"time": 250798, "pitch": 64, "duration": 251, "velocity": 100}, {"time": 250798, "pitch": 68, "duration": 261, "velocity": 100}, {"time": 250798, "pitch": 71, "duration": 271, "velocity": 110}, {"time": 251159, "pitch": 52, "duration": 201, "velocity": 80}, {"time": 251159, "pitch": 64, "duration": 211, "velocity": 100}, {"time": 251159, "pitch": 68, "duration": 221, "velocity": 100}, {"time": 251159, "pitch": 71, "duration": 211, "velocity": 110}, {"time": 251521, "pitch": 52, "duration": 130, "velocity": 80}, {"time": 251521, "pitch": 64, "duration": 90, "velocity": 100}, {"time": 251521, "pitch": 68, "duration": 110, "velocity": 100}, {"time": 251521, "pitch": 71, "duration": 120, "velocity": 110}, {"time": 251761, "pitch": 52, "duration": 121, "velocity": 80}, {"time": 251761, "pitch": 64, "duration": 81, "velocity": 100}, {"time": 251761, "pitch": 68, "duration": 101, "velocity": 100}, {"time": 251761, "pitch": 71, "duration": 91, "velocity": 110}, {"time": 252002, "pitch": 55, "duration": 231, "velocity": 80}, {"time": 252002, "pitch": 62, "duration": 271, "velocity": 100}, {"time": 252002, "pitch": 67, "duration": 261, "velocity": 100}, {"time": 252002, "pitch": 71, "duration": 271, "velocity": 110}, {"time": 252363, "pitch": 55, "duration": 150, "velocity": 80}, {"time": 252363, "pitch": 62, "duration": 150, "velocity": 100}, {"time": 252363, "pitch": 67, "duration": 180, "velocity": 100}, {"time": 252363, "pitch": 71, "duration": 170, "velocity": 110}, {"time": 252719, "pitch": 55, "duration": 207, "velocity": 80}, {"time": 252719, "pitch": 62, "duration": 216, "velocity": 100}, {"time": 252719, "pitch": 67, "duration": 246, "velocity": 100}, {"time": 252719, "pitch": 71, "duration": 236, "velocity": 110}, {"time": 253075, "pitch": 57, "duration": 211, "velocity": 80}, {"time": 253075, "pitch": 64, "duration": 221, "velocity": 100}, {"time": 253075, "pitch": 69, "duration": 241, "velocity": 100}, {"time": 253075, "pitch": 73, "duration": 241, "velocity": 110}, {"time": 253436, "pitch": 57, "duration": 101, "velocity": 80}, {"time": 253436, "pitch": 64, "duration": 111, "velocity": 100}, {"time": 253436, "pitch": 69, "duration": 131, "velocity": 100}, {"time": 253436, "pitch": 73, "duration": 121, "velocity": 110}, {"time": 253677, "pitch": 57, "duration": 101, "velocity": 80}, {"time": 253677, "pitch": 64, "duration": 80, "velocity": 100}, {"time": 253677, "pitch": 69, "duration": 91, "velocity": 100}, {"time": 253677, "pitch": 73, "duration": 70, "velocity": 110}, {"time": 253918, "pitch": 54, "duration": 201, "velocity": 80}, {"time": 253918, "pitch": 61, "duration": 221, "velocity": 100}, {"time": 253918, "pitch": 64, "duration": 231, "velocity": 100}, {"time": 253918, "pitch": 69, "duration": 221, "velocity": 110}, {"time": 254279, "pitch": 54, "duration": 171, "velocity": 80}, {"time": 254279, "pitch": 61, "duration": 191, "velocity": 100}, {"time": 254279, "pitch": 64, "duration": 191, "velocity": 100}, {"time": 254279, "pitch": 69, "duration": 201, "velocity": 110}, {"time": 254640, "pitch": 54, "duration": 231, "velocity": 80}, {"time": 254640, "pitch": 61, "duration": 241, "velocity": 100}, {"time": 254640, "pitch": 64, "duration": 231, "velocity": 100}, {"time": 254640, "pitch": 69, "duration": 241, "velocity": 110}, {"time": 255002, "pitch": 47, "duration": 220, "velocity": 80}, {"time": 255002, "pitch": 61, "duration": 210, "velocity": 100}, {"time": 255002, "pitch": 66, "duration": 230, "velocity": 100}, {"time": 255002, "pitch": 69, "duration": 230, "velocity": 110}, {"time": 255363, "pitch": 47, "duration": 120, "velocity": 80}, {"time": 255363, "pitch": 61, "duration": 100, "velocity": 100}, {"time": 255363, "pitch": 66, "duration": 110, "velocity": 100}, {"time": 255363, "pitch": 69, "duration": 110, "velocity": 110}, {"time": 255604, "pitch": 47, "duration": 110, "velocity": 80}, {"time": 255604, "pitch": 61, "duration": 100, "velocity": 100}, {"time": 255604, "pitch": 66, "duration": 110, "velocity": 100}, {"time": 255604, "pitch": 69, "duration": 110, "velocity": 110}, {"time": 255844, "pitch": 52, "duration": 206, "velocity": 80}, {"time": 255844, "pitch": 62, "duration": 226, "velocity": 100}, {"time": 255844, "pitch": 67, "duration": 246, "velocity": 100}, {"time": 255844, "pitch": 71, "duration": 236, "velocity": 110}, {"time": 256198, "pitch": 52, "duration": 218, "velocity": 80}, {"time": 256198, "pitch": 62, "duration": 188, "velocity": 100}, {"time": 256198, "pitch": 67, "duration": 208, "velocity": 100}, {"time": 256198, "pitch": 71, "duration": 208, "velocity": 110}, {"time": 256556, "pitch": 52, "duration": 211, "velocity": 80}, {"time": 256556, "pitch": 62, "duration": 211, "velocity": 100}, {"time": 256556, "pitch": 67, "duration": 221, "velocity": 100}, {"time": 256556, "pitch": 71, "duration": 241, "velocity": 110}, {"time": 256917, "pitch": 54, "duration": 201, "velocity": 80}, {"time": 256917, "pitch": 64, "duration": 211, "velocity": 100}, {"time": 256917, "pitch": 69, "duration": 221, "velocity": 100}, {"time": 256917, "pitch": 73, "duration": 211, "velocity": 110}, {"time": 257279, "pitch": 54, "duration": 130, "velocity": 80}, {"time": 257279, "pitch": 64, "duration": 90, "velocity": 100}, {"time": 257279, "pitch": 69, "duration": 110, "velocity": 100}, {"time": 257279, "pitch": 73, "duration": 120, "velocity": 110}, {"time": 257519, "pitch": 54, "duration": 121, "velocity": 80}, {"time": 257519, "pitch": 64, "duration": 81, "velocity": 100}, {"time": 257519, "pitch": 69, "duration": 101, "velocity": 100}, {"time": 257519, "pitch": 73, "duration": 91, "velocity": 110}, {"time": 257760, "pitch": 55, "duration": 191, "velocity": 80}, {"time": 257760, "pitch": 66, "duration": 191, "velocity": 100}, {"time": 257760, "pitch": 71, "duration": 221, "velocity": 100}, {"time": 257760, "pitch": 74, "duration": 221, "velocity": 110}, {"time": 258121, "pitch": 55, "duration": 201, "velocity": 80}, {"time": 258121, "pitch": 66, "duration": 181, "velocity": 100}, {"time": 258121, "pitch": 71, "duration": 211, "velocity": 100}, {"time": 258121, "pitch": 74, "duration": 201, "velocity": 110}, {"time": 258483, "pitch": 55, "duration": 240, "velocity": 80}, {"time": 258483, "pitch": 66, "duration": 250, "velocity": 100}, {"time": 258483, "pitch": 71, "duration": 261, "velocity": 100}, {"time": 258483, "pitch": 74, "duration": 271, "velocity": 110}, {"time": 258844, "pitch": 57, "duration": 231, "velocity": 80}, {"time": 258844, "pitch": 69, "duration": 221, "velocity": 100}, {"time": 258844, "pitch": 73, "duration": 241, "velocity": 100}, {"time": 258844, "pitch": 76, "duration": 241, "velocity": 110}, {"time": 259205, "pitch": 57, "duration": 108, "velocity": 80}, {"time": 259205, "pitch": 69, "duration": 108, "velocity": 100}, {"time": 259205, "pitch": 73, "duration": 137, "velocity": 100}, {"time": 259205, "pitch": 76, "duration": 128, "velocity": 110}, {"time": 259441, "pitch": 57, "duration": 108, "velocity": 80}, {"time": 259441, "pitch": 69, "duration": 88, "velocity": 100}, {"time": 259441, "pitch": 73, "duration": 117, "velocity": 100}, {"time": 259441, "pitch": 76, "duration": 108, "velocity": 110}, {"time": 259676, "pitch": 55, "duration": 231, "velocity": 80}, {"time": 259676, "pitch": 62, "duration": 271, "velocity": 100}, {"time": 259676, "pitch": 67, "duration": 261, "velocity": 100}, {"time": 259676, "pitch": 71, "duration": 271, "velocity": 110}, {"time": 260037, "pitch": 55, "duration": 151, "velocity": 80}, {"time": 260037, "pitch": 62, "duration": 151, "velocity": 100}, {"time": 260037, "pitch": 67, "duration": 181, "velocity": 100}, {"time": 260037, "pitch": 71, "duration": 171, "velocity": 110}, {"time": 260399, "pitch": 55, "duration": 210, "velocity": 80}, {"time": 260399, "pitch": 62, "duration": 220, "velocity": 100}, {"time": 260399, "pitch": 67, "duration": 250, "velocity": 100}, {"time": 260399, "pitch": 71, "duration": 240, "velocity": 110}, {"time": 260760, "pitch": 57, "duration": 210, "velocity": 80}, {"time": 260760, "pitch": 64, "duration": 220, "velocity": 100}, {"time": 260760, "pitch": 69, "duration": 241, "velocity": 100}, {"time": 260760, "pitch": 73, "duration": 241, "velocity": 110}, {"time": 261121, "pitch": 57, "duration": 100, "velocity": 80}, {"time": 261121, "pitch": 64, "duration": 110, "velocity": 100}, {"time": 261121, "pitch": 69, "duration": 130, "velocity": 100}, {"time": 261121, "pitch": 73, "duration": 120, "velocity": 110}, {"time": 261362, "pitch": 57, "duration": 100, "velocity": 80}, {"time": 261362, "pitch": 64, "duration": 80, "velocity": 100}, {"time": 261362, "pitch": 69, "duration": 90, "velocity": 100}, {"time": 261362, "pitch": 73, "duration": 70, "velocity": 110}, {"time": 261603, "pitch": 54, "duration": 200, "velocity": 80}, {"time": 261603, "pitch": 61, "duration": 220, "velocity": 100}, {"time": 261603, "pitch": 64, "duration": 230, "velocity": 100}, {"time": 261603, "pitch": 69, "duration": 220, "velocity": 110}, {"time": 261964, "pitch": 54, "duration": 169, "velocity": 80}, {"time": 261964, "pitch": 61, "duration": 189, "velocity": 100}, {"time": 261964, "pitch": 64, "duration": 189, "velocity": 100}, {"time": 261964, "pitch": 69, "duration": 199, "velocity": 110}, {"time": 262320, "pitch": 54, "duration": 226, "velocity": 80}, {"time": 262320, "pitch": 61, "duration": 235, "velocity": 100}, {"time": 262320, "pitch": 64, "duration": 226, "velocity": 100}, {"time": 262320, "pitch": 69, "duration": 235, "velocity": 110}, {"time": 262676, "pitch": 47, "duration": 220, "velocity": 80}, {"time": 262676, "pitch": 61, "duration": 210, "velocity": 100}, {"time": 262676, "pitch": 66, "duration": 230, "velocity": 100}, {"time": 262676, "pitch": 69, "duration": 230, "velocity": 110}, {"time": 263037, "pitch": 47, "duration": 120, "velocity": 80}, {"time": 263037, "pitch": 61, "duration": 100, "velocity": 100}, {"time": 263037, "pitch": 66, "duration": 110, "velocity": 100}, {"time": 263037, "pitch": 69, "duration": 110, "velocity": 110}, {"time": 263278, "pitch": 47, "duration": 110, "velocity": 80}, {"time": 263278, "pitch": 61, "duration": 100, "velocity": 100}, {"time": 263278, "pitch": 66, "duration": 110, "velocity": 100}, {"time": 263278, "pitch": 69, "duration": 110, "velocity": 110}, {"time": 263518, "pitch": 55, "duration": 211, "velocity": 80}, {"time": 263518, "pitch": 66, "duration": 231, "velocity": 100}, {"time": 263518, "pitch": 71, "duration": 251, "velocity": 100}, {"time": 263518, "pitch": 74, "duration": 241, "velocity": 110}, {"time": 263880, "pitch": 55, "duration": 220, "velocity": 80}, {"time": 263880, "pitch": 66, "duration": 190, "velocity": 100}, {"time": 263880, "pitch": 71, "duration": 210, "velocity": 100}, {"time": 263880, "pitch": 74, "duration": 210, "velocity": 110}, {"time": 264241, "pitch": 55, "duration": 210, "velocity": 80}, {"time": 264241, "pitch": 66, "duration": 210, "velocity": 100}, {"time": 264241, "pitch": 71, "duration": 221, "velocity": 100}, {"time": 264241, "pitch": 74, "duration": 241, "velocity": 110}, {"time": 264602, "pitch": 54, "duration": 201, "velocity": 80}, {"time": 264602, "pitch": 64, "duration": 211, "velocity": 100}, {"time": 264602, "pitch": 69, "duration": 221, "velocity": 100}, {"time": 264602, "pitch": 73, "duration": 211, "velocity": 110}, {"time": 264963, "pitch": 54, "duration": 131, "velocity": 80}, {"time": 264963, "pitch": 64, "duration": 90, "velocity": 100}, {"time": 264963, "pitch": 69, "duration": 111, "velocity": 100}, {"time": 264963, "pitch": 73, "duration": 121, "velocity": 110}, {"time": 265204, "pitch": 54, "duration": 120, "velocity": 80}, {"time": 265204, "pitch": 64, "duration": 80, "velocity": 100}, {"time": 265204, "pitch": 69, "duration": 100, "velocity": 100}, {"time": 265204, "pitch": 73, "duration": 90, "velocity": 110}, {"time": 265445, "pitch": 52, "duration": 186, "velocity": 80}, {"time": 265445, "pitch": 64, "duration": 186, "velocity": 100}, {"time": 265445, "pitch": 68, "duration": 216, "velocity": 100}, {"time": 265445, "pitch": 71, "duration": 216, "velocity": 110}, {"time": 265798, "pitch": 52, "duration": 198, "velocity": 80}, {"time": 265798, "pitch": 64, "duration": 178, "velocity": 100}, {"time": 265798, "pitch": 68, "duration": 208, "velocity": 100}, {"time": 265798, "pitch": 71, "duration": 198, "velocity": 110}, {"time": 266157, "pitch": 52, "duration": 240, "velocity": 80}, {"time": 266157, "pitch": 64, "duration": 251, "velocity": 100}, {"time": 266157, "pitch": 68, "duration": 261, "velocity": 100}, {"time": 266157, "pitch": 71, "duration": 271, "velocity": 110}, {"time": 266518, "pitch": 52, "duration": 201, "velocity": 80}, {"time": 266518, "pitch": 64, "duration": 211, "velocity": 100}, {"time": 266518, "pitch": 68, "duration": 221, "velocity": 100}, {"time": 266518, "pitch": 71, "duration": 211, "velocity": 110}, {"time": 266879, "pitch": 52, "duration": 131, "velocity": 80}, {"time": 266879, "pitch": 64, "duration": 90, "velocity": 100}, {"time": 266879, "pitch": 68, "duration": 110, "velocity": 100}, {"time": 266879, "pitch": 71, "duration": 120, "velocity": 110}, {"time": 267120, "pitch": 52, "duration": 120, "velocity": 80}, {"time": 267120, "pitch": 64, "duration": 80, "velocity": 100}, {"time": 267120, "pitch": 68, "duration": 100, "velocity": 100}, {"time": 267120, "pitch": 71, "duration": 90, "velocity": 110}, {"time": 267361, "pitch": 55, "duration": 230, "velocity": 80}, {"time": 267361, "pitch": 62, "duration": 271, "velocity": 100}, {"time": 267361, "pitch": 67, "duration": 261, "velocity": 100}, {"time": 267361, "pitch": 71, "duration": 271, "velocity": 110}, {"time": 267722, "pitch": 55, "duration": 150, "velocity": 80}, {"time": 267722, "pitch": 62, "duration": 150, "velocity": 100}, {"time": 267722, "pitch": 67, "duration": 180, "velocity": 100}, {"time": 267722, "pitch": 71, "duration": 170, "velocity": 110}, {"time": 268083, "pitch": 55, "duration": 211, "velocity": 80}, {"time": 268083, "pitch": 62, "duration": 221, "velocity": 100}, {"time": 268083, "pitch": 67, "duration": 251, "velocity": 100}, {"time": 268083, "pitch": 71, "duration": 241, "velocity": 110}, {"time": 268442, "pitch": 57, "duration": 206, "velocity": 80}, {"time": 268442, "pitch": 64, "duration": 216, "velocity": 100}, {"time": 268442, "pitch": 69, "duration": 235, "velocity": 100}, {"time": 268442, "pitch": 73, "duration": 235, "velocity": 110}, {"time": 268795, "pitch": 57, "duration": 100, "velocity": 80}, {"time": 268795, "pitch": 64, "duration": 110, "velocity": 100}, {"time": 268795, "pitch": 69, "duration": 130, "velocity": 100}, {"time": 268795, "pitch": 73, "duration": 120, "velocity": 110}, {"time": 269036, "pitch": 57, "duration": 100, "velocity": 80}, {"time": 269036, "pitch": 64, "duration": 80, "velocity": 100}, {"time": 269036, "pitch": 69, "duration": 90, "velocity": 100}, {"time": 269036, "pitch": 73, "duration": 70, "velocity": 110}, {"time": 269277, "pitch": 54, "duration": 200, "velocity": 80}, {"time": 269277, "pitch": 61, "duration": 220, "velocity": 100}, {"time": 269277, "pitch": 64, "duration": 230, "velocity": 100}, {"time": 269277, "pitch": 69, "duration": 220, "velocity": 110}, {"time": 269638, "pitch": 54, "duration": 170, "velocity": 80}, {"time": 269638, "pitch": 61, "duration": 190, "velocity": 100}, {"time": 269638, "pitch": 64, "duration": 190, "velocity": 100}, {"time": 269638, "pitch": 69, "duration": 200, "velocity": 110}, {"time": 269999, "pitch": 54, "duration": 231, "velocity": 80}, {"time": 269999, "pitch": 61, "duration": 241, "velocity": 100}, {"time": 269999, "pitch": 64, "duration": 231, "velocity": 100}, {"time": 269999, "pitch": 69, "duration": 241, "velocity": 110}, {"time": 270360, "pitch": 47, "duration": 221, "velocity": 80}, {"time": 270360, "pitch": 61, "duration": 211, "velocity": 100}, {"time": 270360, "pitch": 66, "duration": 231, "velocity": 100}, {"time": 270360, "pitch": 69, "duration": 231, "velocity": 110}, {"time": 270721, "pitch": 47, "duration": 121, "velocity": 80}, {"time": 270721, "pitch": 61, "duration": 101, "velocity": 100}, {"time": 270721, "pitch": 66, "duration": 111, "velocity": 100}, {"time": 270721, "pitch": 69, "duration": 111, "velocity": 110}, {"time": 270962, "pitch": 47, "duration": 110, "velocity": 80}, {"time": 270962, "pitch": 61, "duration": 100, "velocity": 100}, {"time": 270962, "pitch": 66, "duration": 110, "velocity": 100}, {"time": 270962, "pitch": 69, "duration": 110, "velocity": 110}, {"time": 271203, "pitch": 52, "duration": 211, "velocity": 80}, {"time": 271203, "pitch": 62, "duration": 231, "velocity": 100}, {"time": 271203, "pitch": 67, "duration": 251, "velocity": 100}, {"time": 271203, "pitch": 71, "duration": 241, "velocity": 110}, {"time": 271564, "pitch": 52, "duration": 219, "velocity": 80}, {"time": 271564, "pitch": 62, "duration": 189, "velocity": 100}, {"time": 271564, "pitch": 67, "duration": 209, "velocity": 100}, {"time": 271564, "pitch": 71, "duration": 209, "velocity": 110}, {"time": 271920, "pitch": 52, "duration": 206, "velocity": 80}, {"time": 271920, "pitch": 62, "duration": 206, "velocity": 100}, {"time": 271920, "pitch": 67, "duration": 216, "velocity": 100}, {"time": 271920, "pitch": 71, "duration": 236, "velocity": 110}, {"time": 272276, "pitch": 54, "duration": 201, "velocity": 80}, {"time": 272276, "pitch": 64, "duration": 211, "velocity": 100}, {"time": 272276, "pitch": 69, "duration": 221, "velocity": 100}, {"time": 272276, "pitch": 73, "duration": 211, "velocity": 110}, {"time": 272637, "pitch": 54, "duration": 131, "velocity": 80}, {"time": 272637, "pitch": 64, "duration": 91, "velocity": 100}, {"time": 272637, "pitch": 69, "duration": 111, "velocity": 100}, {"time": 272637, "pitch": 73, "duration": 121, "velocity": 110}, {"time": 272878, "pitch": 54, "duration": 120, "velocity": 80}, {"time": 272878, "pitch": 64, "duration": 80, "velocity": 100}, {"time": 272878, "pitch": 69, "duration": 100, "velocity": 100}, {"time": 272878, "pitch": 73, "duration": 90, "velocity": 110}, {"time": 273119, "pitch": 55, "duration": 190, "velocity": 80}, {"time": 273119, "pitch": 66, "duration": 190, "velocity": 100}, {"time": 273119, "pitch": 71, "duration": 221, "velocity": 100}, {"time": 273119, "pitch": 74, "duration": 221, "velocity": 110}, {"time": 273480, "pitch": 55, "duration": 201, "velocity": 80}, {"time": 273480, "pitch": 66, "duration": 181, "velocity": 100}, {"time": 273480, "pitch": 71, "duration": 211, "velocity": 100}, {"time": 273480, "pitch": 74, "duration": 201, "velocity": 110}, {"time": 273841, "pitch": 55, "duration": 241, "velocity": 80}, {"time": 273841, "pitch": 66, "duration": 251, "velocity": 100}, {"time": 273841, "pitch": 71, "duration": 261, "velocity": 100}, {"time": 273841, "pitch": 74, "duration": 271, "velocity": 110}, {"time": 274202, "pitch": 57, "duration": 231, "velocity": 80}, {"time": 274202, "pitch": 69, "duration": 221, "velocity": 100}, {"time": 274202, "pitch": 73, "duration": 241, "velocity": 100}, {"time": 274202, "pitch": 76, "duration": 241, "velocity": 110}, {"time": 274564, "pitch": 57, "duration": 110, "velocity": 80}, {"time": 274564, "pitch": 69, "duration": 110, "velocity": 100}, {"time": 274564, "pitch": 73, "duration": 140, "velocity": 100}, {"time": 274564, "pitch": 76, "duration": 130, "velocity": 110}, {"time": 274804, "pitch": 57, "duration": 111, "velocity": 80}, {"time": 274804, "pitch": 69, "duration": 91, "velocity": 100}, {"time": 274804, "pitch": 73, "duration": 121, "velocity": 100}, {"time": 274804, "pitch": 76, "duration": 111, "velocity": 110}, {"time": 275045, "pitch": 55, "duration": 226, "velocity": 80}, {"time": 275045, "pitch": 62, "duration": 265, "velocity": 100}, {"time": 275045, "pitch": 67, "duration": 255, "velocity": 100}, {"time": 275045, "pitch": 71, "duration": 265, "velocity": 110}, {"time": 275399, "pitch": 55, "duration": 147, "velocity": 80}, {"time": 275399, "pitch": 62, "duration": 147, "velocity": 100}, {"time": 275399, "pitch": 67, "duration": 178, "velocity": 100}, {"time": 275399, "pitch": 71, "duration": 167, "velocity": 110}, {"time": 275757, "pitch": 55, "duration": 211, "velocity": 80}, {"time": 275757, "pitch": 62, "duration": 221, "velocity": 100}, {"time": 275757, "pitch": 67, "duration": 251, "velocity": 100}, {"time": 275757, "pitch": 71, "duration": 241, "velocity": 110}, {"time": 276118, "pitch": 57, "duration": 211, "velocity": 80}, {"time": 276118, "pitch": 64, "duration": 221, "velocity": 100}, {"time": 276118, "pitch": 69, "duration": 241, "velocity": 100}, {"time": 276118, "pitch": 73, "duration": 241, "velocity": 110}, {"time": 276479, "pitch": 57, "duration": 101, "velocity": 80}, {"time": 276479, "pitch": 64, "duration": 111, "velocity": 100}, {"time": 276479, "pitch": 69, "duration": 131, "velocity": 100}, {"time": 276479, "pitch": 73, "duration": 121, "velocity": 110}, {"time": 276720, "pitch": 57, "duration": 101, "velocity": 80}, {"time": 276720, "pitch": 64, "duration": 81, "velocity": 100}, {"time": 276720, "pitch": 69, "duration": 91, "velocity": 100}, {"time": 276720, "pitch": 73, "duration": 71, "velocity": 110}, {"time": 276961, "pitch": 54, "duration": 201, "velocity": 80}, {"time": 276961, "pitch": 61, "duration": 221, "velocity": 100}, {"time": 276961, "pitch": 64, "duration": 231, "velocity": 100}, {"time": 276961, "pitch": 69, "duration": 221, "velocity": 110}, {"time": 277322, "pitch": 54, "duration": 171, "velocity": 80}, {"time": 277322, "pitch": 61, "duration": 191, "velocity": 100}, {"time": 277322, "pitch": 64, "duration": 191, "velocity": 100}, {"time": 277322, "pitch": 69, "duration": 201, "velocity": 110}, {"time": 277683, "pitch": 54, "duration": 231, "velocity": 80}, {"time": 277683, "pitch": 61, "duration": 241, "velocity": 100}, {"time": 277683, "pitch": 64, "duration": 231, "velocity": 100}, {"time": 277683, "pitch": 69, "duration": 241, "velocity": 110}, {"time": 278042, "pitch": 47, "duration": 216, "velocity": 80}, {"time": 278042, "pitch": 61, "duration": 206, "velocity": 100}, {"time": 278042, "pitch": 66, "duration": 226, "velocity": 100}, {"time": 278042, "pitch": 69, "duration": 226, "velocity": 110}, {"time": 278395, "pitch": 47, "duration": 121, "velocity": 80}, {"time": 278395, "pitch": 61, "duration": 101, "velocity": 100}, {"time": 278395, "pitch": 66, "duration": 111, "velocity": 100}, {"time": 278395, "pitch": 69, "duration": 111, "velocity": 110}, {"time": 278636, "pitch": 47, "duration": 111, "velocity": 80}, {"time": 278636, "pitch": 61, "duration": 101, "velocity": 100}, {"time": 278636, "pitch": 66, "duration": 111, "velocity": 100}, {"time": 278636, "pitch": 69, "duration": 111, "velocity": 110}, {"time": 278877, "pitch": 55, "duration": 211, "velocity": 80}, {"time": 278877, "pitch": 66, "duration": 231, "velocity": 100}, {"time": 278877, "pitch": 71, "duration": 251, "velocity": 100}, {"time": 278877, "pitch": 74, "duration": 241, "velocity": 110}, {"time": 279238, "pitch": 55, "duration": 221, "velocity": 80}, {"time": 279238, "pitch": 66, "duration": 191, "velocity": 100}, {"time": 279238, "pitch": 71, "duration": 211, "velocity": 100}, {"time": 279238, "pitch": 74, "duration": 211, "velocity": 110}, {"time": 279599, "pitch": 55, "duration": 211, "velocity": 80}, {"time": 279599, "pitch": 66, "duration": 211, "velocity": 100}, {"time": 279599, "pitch": 71, "duration": 221, "velocity": 100}, {"time": 279599, "pitch": 74, "duration": 241, "velocity": 110}, {"time": 279961, "pitch": 54, "duration": 200, "velocity": 80}, {"time": 279961, "pitch": 64, "duration": 210, "velocity": 100}, {"time": 279961, "pitch": 69, "duration": 220, "velocity": 100}, {"time": 279961, "pitch": 73, "duration": 210, "velocity": 110}, {"time": 280322, "pitch": 54, "duration": 130, "velocity": 80}, {"time": 280322, "pitch": 64, "duration": 90, "velocity": 100}, {"time": 280322, "pitch": 69, "duration": 110, "velocity": 100}, {"time": 280322, "pitch": 73, "duration": 120, "velocity": 110}, {"time": 280563, "pitch": 54, "duration": 120, "velocity": 80}, {"time": 280563, "pitch": 64, "duration": 80, "velocity": 100}, {"time": 280563, "pitch": 69, "duration": 100, "velocity": 100}, {"time": 280563, "pitch": 73, "duration": 90, "velocity": 110}, {"time": 280803, "pitch": 52, "duration": 191, "velocity": 80}, {"time": 280803, "pitch": 64, "duration": 191, "velocity": 100}, {"time": 280803, "pitch": 68, "duration": 221, "velocity": 100}, {"time": 280803, "pitch": 71, "duration": 221, "velocity": 110}, {"time": 281164, "pitch": 52, "duration": 199, "velocity": 80}, {"time": 281164, "pitch": 64, "duration": 180, "velocity": 100}, {"time": 281164, "pitch": 68, "duration": 209, "velocity": 100}, {"time": 281164, "pitch": 71, "duration": 199, "velocity": 110}, {"time": 281520, "pitch": 52, "duration": 236, "velocity": 80}, {"time": 281520, "pitch": 64, "duration": 246, "velocity": 100}, {"time": 281520, "pitch": 68, "duration": 256, "velocity": 100}, {"time": 281520, "pitch": 71, "duration": 266, "velocity": 110}, {"time": 281876, "pitch": 52, "duration": 201, "velocity": 80}, {"time": 281876, "pitch": 64, "duration": 211, "velocity": 100}, {"time": 281876, "pitch": 68, "duration": 221, "velocity": 100}, {"time": 281876, "pitch": 71, "duration": 211, "velocity": 110}, {"time": 282238, "pitch": 52, "duration": 130, "velocity": 80}, {"time": 282238, "pitch": 64, "duration": 90, "velocity": 100}, {"time": 282238, "pitch": 68, "duration": 110, "velocity": 100}, {"time": 282238, "pitch": 71, "duration": 120, "velocity": 110}, {"time": 282478, "pitch": 52, "duration": 121, "velocity": 80}, {"time": 282478, "pitch": 64, "duration": 81, "velocity": 100}, {"time": 282478, "pitch": 68, "duration": 101, "velocity": 100}, {"time": 282478, "pitch": 71, "duration": 91, "velocity": 110}, {"time": 282719, "pitch": 55, "duration": 231, "velocity": 80}, {"time": 282719, "pitch": 62, "duration": 271, "velocity": 100}, {"time": 282719, "pitch": 67, "duration": 261, "velocity": 100}, {"time": 282719, "pitch": 71, "duration": 271, "velocity": 110}, {"time": 283080, "pitch": 55, "duration": 151, "velocity": 80}, {"time": 283080, "pitch": 62, "duration": 151, "velocity": 100}, {"time": 283080, "pitch": 67, "duration": 181, "velocity": 100}, {"time": 283080, "pitch": 71, "duration": 171, "velocity": 110}, {"time": 283442, "pitch": 55, "duration": 210, "velocity": 80}, {"time": 283442, "pitch": 62, "duration": 220, "velocity": 100}, {"time": 283442, "pitch": 67, "duration": 250, "velocity": 100}, {"time": 283442, "pitch": 71, "duration": 240, "velocity": 110}, {"time": 283803, "pitch": 57, "duration": 210, "velocity": 80}, {"time": 283803, "pitch": 64, "duration": 221, "velocity": 100}, {"time": 283803, "pitch": 69, "duration": 241, "velocity": 100}, {"time": 283803, "pitch": 73, "duration": 241, "velocity": 110}, {"time": 284164, "pitch": 57, "duration": 98, "velocity": 80}, {"time": 284164, "pitch": 64, "duration": 108, "velocity": 100}, {"time": 284164, "pitch": 69, "duration": 128, "velocity": 100}, {"time": 284164, "pitch": 73, "duration": 118, "velocity": 110}, {"time": 284400, "pitch": 57, "duration": 98, "velocity": 80}, {"time": 284400, "pitch": 64, "duration": 78, "velocity": 100}, {"time": 284400, "pitch": 69, "duration": 88, "velocity": 100}, {"time": 284400, "pitch": 73, "duration": 68, "velocity": 110}, {"time": 284635, "pitch": 54, "duration": 201, "velocity": 80}, {"time": 284635, "pitch": 61, "duration": 221, "velocity": 100}, {"time": 284635, "pitch": 64, "duration": 231, "velocity": 100}, {"time": 284635, "pitch": 69, "duration": 221, "velocity": 110}, {"time": 284996, "pitch": 54, "duration": 171, "velocity": 80}, {"time": 284996, "pitch": 61, "duration": 191, "velocity": 100}, {"time": 284996, "pitch": 64, "duration": 191, "velocity": 100}, {"time": 284996, "pitch": 69, "duration": 201, "velocity": 110}, {"time": 285357, "pitch": 54, "duration": 231, "velocity": 80}, {"time": 285357, "pitch": 61, "duration": 241, "velocity": 100}, {"time": 285357, "pitch": 64, "duration": 231, "velocity": 100}, {"time": 285357, "pitch": 69, "duration": 241, "velocity": 110}, {"time": 285719, "pitch": 47, "duration": 220, "velocity": 80}, {"time": 285719, "pitch": 61, "duration": 210, "velocity": 100}, {"time": 285719, "pitch": 66, "duration": 230, "velocity": 100}, {"time": 285719, "pitch": 69, "duration": 230, "velocity": 110}, {"time": 286080, "pitch": 47, "duration": 120, "velocity": 80}, {"time": 286080, "pitch": 61, "duration": 100, "velocity": 100}, {"time": 286080, "pitch": 66, "duration": 110, "velocity": 100}, {"time": 286080, "pitch": 69, "duration": 110, "velocity": 110}, {"time": 286321, "pitch": 47, "duration": 110, "velocity": 80}, {"time": 286321, "pitch": 61, "duration": 100, "velocity": 100}, {"time": 286321, "pitch": 66, "duration": 110, "velocity": 100}, {"time": 286321, "pitch": 69, "duration": 110, "velocity": 110}, {"time": 286561, "pitch": 52, "duration": 211, "velocity": 80}, {"time": 286561, "pitch": 62, "duration": 231, "velocity": 100}, {"time": 286561, "pitch": 67, "duration": 251, "velocity": 100}, {"time": 286561, "pitch": 71, "duration": 241, "velocity": 110}, {"time": 286923, "pitch": 52, "duration": 220, "velocity": 80}, {"time": 286923, "pitch": 62, "duration": 190, "velocity": 100}, {"time": 286923, "pitch": 67, "duration": 210, "velocity": 100}, {"time": 286923, "pitch": 71, "duration": 210, "velocity": 110}, {"time": 287284, "pitch": 52, "duration": 211, "velocity": 80}, {"time": 287284, "pitch": 62, "duration": 211, "velocity": 100}, {"time": 287284, "pitch": 67, "duration": 221, "velocity": 100}, {"time": 287284, "pitch": 71, "duration": 241, "velocity": 110}, {"time": 287642, "pitch": 54, "duration": 197, "velocity": 80}, {"time": 287642, "pitch": 64, "duration": 207, "velocity": 100}, {"time": 287642, "pitch": 69, "duration": 216, "velocity": 100}, {"time": 287642, "pitch": 73, "duration": 207, "velocity": 110}, {"time": 287996, "pitch": 54, "duration": 130, "velocity": 80}, {"time": 287996, "pitch": 64, "duration": 90, "velocity": 100}, {"time": 287996, "pitch": 69, "duration": 110, "velocity": 100}, {"time": 287996, "pitch": 73, "duration": 120, "velocity": 110}, {"time": 288237, "pitch": 54, "duration": 120, "velocity": 80}, {"time": 288237, "pitch": 64, "duration": 80, "velocity": 100}, {"time": 288237, "pitch": 69, "duration": 100, "velocity": 100}, {"time": 288237, "pitch": 73, "duration": 90, "velocity": 110}, {"time": 288477, "pitch": 55, "duration": 191, "velocity": 80}, {"time": 288477, "pitch": 66, "duration": 191, "velocity": 100}, {"time": 288477, "pitch": 71, "duration": 221, "velocity": 100}, {"time": 288477, "pitch": 74, "duration": 221, "velocity": 110}, {"time": 288839, "pitch": 55, "duration": 200, "velocity": 80}, {"time": 288839, "pitch": 66, "duration": 180, "velocity": 100}, {"time": 288839, "pitch": 71, "duration": 210, "velocity": 100}, {"time": 288839, "pitch": 74, "duration": 200, "velocity": 110}, {"time": 289200, "pitch": 55, "duration": 241, "velocity": 80}, {"time": 289200, "pitch": 66, "duration": 251, "velocity": 100}, {"time": 289200, "pitch": 71, "duration": 261, "velocity": 100}, {"time": 289200, "pitch": 74, "duration": 271, "velocity": 110}, {"time": 289561, "pitch": 57, "duration": 231, "velocity": 80}, {"time": 289561, "pitch": 69, "duration": 221, "velocity": 100}, {"time": 289561, "pitch": 73, "duration": 241, "velocity": 100}, {"time": 289561, "pitch": 76, "duration": 241, "velocity": 110}, {"time": 289922, "pitch": 57, "duration": 110, "velocity": 80}, {"time": 289922, "pitch": 69, "duration": 110, "velocity": 100}, {"time": 289922, "pitch": 73, "duration": 141, "velocity": 100}, {"time": 289922, "pitch": 76, "duration": 131, "velocity": 110}, {"time": 290163, "pitch": 57, "duration": 110, "velocity": 80}, {"time": 290163, "pitch": 69, "duration": 90, "velocity": 100}, {"time": 290163, "pitch": 73, "duration": 120, "velocity": 100}, {"time": 290163, "pitch": 76, "duration": 110, "velocity": 110}, {"time": 290404, "pitch": 55, "duration": 225, "velocity": 80}, {"time": 290404, "pitch": 62, "duration": 265, "velocity": 100}, {"time": 290404, "pitch": 67, "duration": 255, "velocity": 100}, {"time": 290404, "pitch": 71, "duration": 265, "velocity": 110}, {"time": 290757, "pitch": 55, "duration": 148, "velocity": 80}, {"time": 290757, "pitch": 62, "duration": 148, "velocity": 100}, {"time": 290757, "pitch": 67, "duration": 178, "velocity": 100}, {"time": 290757, "pitch": 71, "duration": 168, "velocity": 110}, {"time": 291116, "pitch": 55, "duration": 210, "velocity": 80}, {"time": 291116, "pitch": 62, "duration": 220, "velocity": 100}, {"time": 291116, "pitch": 67, "duration": 250, "velocity": 100}, {"time": 291116, "pitch": 71, "duration": 240, "velocity": 110}, {"time": 291477, "pitch": 57, "duration": 211, "velocity": 80}, {"time": 291477, "pitch": 64, "duration": 221, "velocity": 100}, {"time": 291477, "pitch": 69, "duration": 241, "velocity": 100}, {"time": 291477, "pitch": 73, "duration": 241, "velocity": 110}, {"time": 291838, "pitch": 57, "duration": 100, "velocity": 80}, {"time": 291838, "pitch": 64, "duration": 110, "velocity": 100}, {"time": 291838, "pitch": 69, "duration": 130, "velocity": 100}, {"time": 291838, "pitch": 73, "duration": 120, "velocity": 110}, {"time": 292079, "pitch": 57, "duration": 100, "velocity": 80}, {"time": 292079, "pitch": 64, "duration": 80, "velocity": 100}, {"time": 292079, "pitch": 69, "duration": 90, "velocity": 100}, {"time": 292079, "pitch": 73, "duration": 70, "velocity": 110}, {"time": 292320, "pitch": 54, "duration": 200, "velocity": 80}, {"time": 292320, "pitch": 61, "duration": 220, "velocity": 100}, {"time": 292320, "pitch": 64, "duration": 230, "velocity": 100}, {"time": 292320, "pitch": 69, "duration": 220, "velocity": 110}, {"time": 292681, "pitch": 54, "duration": 170, "velocity": 80}, {"time": 292681, "pitch": 61, "duration": 190, "velocity": 100}, {"time": 292681, "pitch": 64, "duration": 190, "velocity": 100}, {"time": 292681, "pitch": 69, "duration": 200, "velocity": 110}, {"time": 293042, "pitch": 54, "duration": 231, "velocity": 80}, {"time": 293042, "pitch": 61, "duration": 241, "velocity": 100}, {"time": 293042, "pitch": 64, "duration": 231, "velocity": 100}, {"time": 293042, "pitch": 69, "duration": 241, "velocity": 110}, {"time": 293403, "pitch": 47, "duration": 221, "velocity": 80}, {"time": 293403, "pitch": 61, "duration": 211, "velocity": 100}, {"time": 293403, "pitch": 66, "duration": 231, "velocity": 100}, {"time": 293403, "pitch": 69, "duration": 231, "velocity": 110}, {"time": 293764, "pitch": 47, "duration": 121, "velocity": 80}, {"time": 293764, "pitch": 61, "duration": 101, "velocity": 100}, {"time": 293764, "pitch": 66, "duration": 111, "velocity": 100}, {"time": 293764, "pitch": 69, "duration": 111, "velocity": 110}, {"time": 294005, "pitch": 47, "duration": 111, "velocity": 80}, {"time": 294005, "pitch": 61, "duration": 100, "velocity": 100}, {"time": 294005, "pitch": 66, "duration": 111, "velocity": 100}, {"time": 294005, "pitch": 69, "duration": 111, "velocity": 110}, {"time": 294246, "pitch": 55, "duration": 211, "velocity": 80}, {"time": 294246, "pitch": 66, "duration": 231, "velocity": 100}, {"time": 294246, "pitch": 71, "duration": 251, "velocity": 100}, {"time": 294246, "pitch": 74, "duration": 241, "velocity": 110}, {"time": 294607, "pitch": 55, "duration": 221, "velocity": 80}, {"time": 294607, "pitch": 66, "duration": 191, "velocity": 100}, {"time": 294607, "pitch": 71, "duration": 211, "velocity": 100}, {"time": 294607, "pitch": 74, "duration": 211, "velocity": 110}, {"time": 294968, "pitch": 55, "duration": 211, "velocity": 80}, {"time": 294968, "pitch": 66, "duration": 211, "velocity": 100}, {"time": 294968, "pitch": 71, "duration": 221, "velocity": 100}, {"time": 294968, "pitch": 74, "duration": 241, "velocity": 110}, {"time": 295330, "pitch": 54, "duration": 200, "velocity": 80}, {"time": 295330, "pitch": 64, "duration": 210, "velocity": 100}, {"time": 295330, "pitch": 69, "duration": 220, "velocity": 100}, {"time": 295330, "pitch": 73, "duration": 210, "velocity": 110}, {"time": 295691, "pitch": 54, "duration": 130, "velocity": 80}, {"time": 295691, "pitch": 64, "duration": 90, "velocity": 100}, {"time": 295691, "pitch": 69, "duration": 110, "velocity": 100}, {"time": 295691, "pitch": 73, "duration": 120, "velocity": 110}, {"time": 295932, "pitch": 54, "duration": 120, "velocity": 80}, {"time": 295932, "pitch": 64, "duration": 80, "velocity": 100}, {"time": 295932, "pitch": 69, "duration": 100, "velocity": 100}, {"time": 295932, "pitch": 73, "duration": 90, "velocity": 110}, {"time": 296172, "pitch": 52, "duration": 191, "velocity": 80}, {"time": 296172, "pitch": 64, "duration": 191, "velocity": 100}, {"time": 296172, "pitch": 68, "duration": 221, "velocity": 100}, {"time": 296172, "pitch": 71, "duration": 221, "velocity": 110}, {"time": 296533, "pitch": 52, "duration": 201, "velocity": 80}, {"time": 296533, "pitch": 64, "duration": 181, "velocity": 100}, {"time": 296533, "pitch": 68, "duration": 211, "velocity": 100}, {"time": 296533, "pitch": 71, "duration": 201, "velocity": 110}, {"time": 296895, "pitch": 52, "duration": 240, "velocity": 80}, {"time": 296895, "pitch": 64, "duration": 250, "velocity": 100}, {"time": 296895, "pitch": 68, "duration": 261, "velocity": 100}, {"time": 296895, "pitch": 71, "duration": 271, "velocity": 110}, {"time": 297256, "pitch": 52, "duration": 201, "velocity": 80}, {"time": 297256, "pitch": 64, "duration": 211, "velocity": 100}, {"time": 297256, "pitch": 68, "duration": 221, "velocity": 100}, {"time": 297256, "pitch": 71, "duration": 211, "velocity": 110}, {"time": 297617, "pitch": 52, "duration": 130, "velocity": 80}, {"time": 297617, "pitch": 64, "duration": 90, "velocity": 100}, {"time": 297617, "pitch": 68, "duration": 110, "velocity": 100}, {"time": 297617, "pitch": 71, "duration": 120, "velocity": 110}, {"time": 297858, "pitch": 52, "duration": 120, "velocity": 80}, {"time": 297858, "pitch": 64, "duration": 80, "velocity": 100}, {"time": 297858, "pitch": 68, "duration": 100, "velocity": 100}, {"time": 297858, "pitch": 71, "duration": 90, "velocity": 110}, {"time": 15123, "pitch": 52, "duration": 702, "velocity": 105}, {"time": 15845, "pitch": 31, "duration": 108, "velocity": 110}, {"time": 15963, "pitch": 38, "duration": 108, "velocity": 100}, {"time": 16080, "pitch": 43, "duration": 226, "velocity": 105}, {"time": 16436, "pitch": 43, "duration": 231, "velocity": 110}, {"time": 16677, "pitch": 38, "duration": 111, "velocity": 100}, {"time": 16798, "pitch": 33, "duration": 110, "velocity": 110}, {"time": 16918, "pitch": 40, "duration": 110, "velocity": 100}, {"time": 17038, "pitch": 45, "duration": 231, "velocity": 105}, {"time": 17400, "pitch": 45, "duration": 110, "velocity": 110}, {"time": 17520, "pitch": 40, "duration": 110, "velocity": 105}, {"time": 17640, "pitch": 33, "duration": 111, "velocity": 100}, {"time": 17761, "pitch": 30, "duration": 110, "velocity": 110}, {"time": 17881, "pitch": 37, "duration": 111, "velocity": 100}, {"time": 18002, "pitch": 42, "duration": 230, "velocity": 105}, {"time": 18363, "pitch": 30, "duration": 110, "velocity": 110}, {"time": 18483, "pitch": 33, "duration": 111, "velocity": 100}, {"time": 18604, "pitch": 34, "duration": 110, "velocity": 105}, {"time": 18724, "pitch": 35, "duration": 108, "velocity": 110}, {"time": 18842, "pitch": 42, "duration": 108, "velocity": 100}, {"time": 18960, "pitch": 47, "duration": 225, "velocity": 105}, {"time": 19316, "pitch": 47, "duration": 110, "velocity": 110}, {"time": 19436, "pitch": 42, "duration": 110, "velocity": 105}, {"time": 19556, "pitch": 35, "duration": 111, "velocity": 100}, {"time": 19677, "pitch": 40, "duration": 110, "velocity": 110}, {"time": 19797, "pitch": 35, "duration": 110, "velocity": 100}, {"time": 19917, "pitch": 40, "duration": 231, "velocity": 105}, {"time": 20279, "pitch": 40, "duration": 110, "velocity": 110}, {"time": 20399, "pitch": 35, "duration": 110, "velocity": 100}, {"time": 20519, "pitch": 28, "duration": 111, "velocity": 105}, {"time": 20640, "pitch": 30, "duration": 110, "velocity": 110}, {"time": 20760, "pitch": 37, "duration": 111, "velocity": 100}, {"time": 20881, "pitch": 42, "duration": 230, "velocity": 105}, {"time": 21242, "pitch": 37, "duration": 110, "velocity": 110}, {"time": 21362, "pitch": 42, "duration": 111, "velocity": 105}, {"time": 21483, "pitch": 37, "duration": 110, "velocity": 100}, {"time": 21603, "pitch": 43, "duration": 110, "velocity": 110}, {"time": 21723, "pitch": 38, "duration": 111, "velocity": 100}, {"time": 21844, "pitch": 43, "duration": 231, "velocity": 105}, {"time": 22202, "pitch": 43, "duration": 108, "velocity": 110}, {"time": 22320, "pitch": 38, "duration": 108, "velocity": 100}, {"time": 22438, "pitch": 43, "duration": 108, "velocity": 105}, {"time": 22676, "pitch": 45, "duration": 111, "velocity": 110}, {"time": 22797, "pitch": 40, "duration": 110, "velocity": 100}, {"time": 22917, "pitch": 43, "duration": 110, "velocity": 105}, {"time": 23037, "pitch": 45, "duration": 111, "velocity": 110}, {"time": 23158, "pitch": 40, "duration": 110, "velocity": 105}, {"time": 23278, "pitch": 33, "duration": 111, "velocity": 110}, {"time": 23399, "pitch": 32, "duration": 110, "velocity": 100}, {"time": 23519, "pitch": 31, "duration": 110, "velocity": 110}, {"time": 23639, "pitch": 38, "duration": 111, "velocity": 100}, {"time": 23760, "pitch": 43, "duration": 230, "velocity": 105}, {"time": 24121, "pitch": 43, "duration": 231, "velocity": 110}, {"time": 24362, "pitch": 38, "duration": 110, "velocity": 100}, {"time": 24482, "pitch": 33, "duration": 110, "velocity": 110}, {"time": 24603, "pitch": 40, "duration": 110, "velocity": 100}, {"time": 24723, "pitch": 45, "duration": 231, "velocity": 105}, {"time": 25081, "pitch": 45, "duration": 108, "velocity": 110}, {"time": 25199, "pitch": 40, "duration": 108, "velocity": 105}, {"time": 25317, "pitch": 33, "duration": 108, "velocity": 100}, {"time": 25435, "pitch": 30, "duration": 110, "velocity": 110}, {"time": 25555, "pitch": 37, "duration": 111, "velocity": 100}, {"time": 25676, "pitch": 42, "duration": 230, "velocity": 105}, {"time": 26037, "pitch": 30, "duration": 110, "velocity": 110}, {"time": 26157, "pitch": 33, "duration": 111, "velocity": 100}, {"time": 26278, "pitch": 34, "duration": 110, "velocity": 105}, {"time": 26398, "pitch": 35, "duration": 110, "velocity": 110}, {"time": 26518, "pitch": 42, "duration": 111, "velocity": 100}, {"time": 26639, "pitch": 47, "duration": 231, "velocity": 105}, {"time": 27000, "pitch": 47, "duration": 110, "velocity": 110}, {"time": 27120, "pitch": 42, "duration": 111, "velocity": 105}, {"time": 27241, "pitch": 38, "duration": 110, "velocity": 100}, {"time": 27361, "pitch": 43, "duration": 111, "velocity": 110}, {"time": 27482, "pitch": 38, "duration": 110, "velocity": 100}, {"time": 27602, "pitch": 43, "duration": 231, "velocity": 105}, {"time": 27963, "pitch": 43, "duration": 111, "velocity": 110}, {"time": 28084, "pitch": 38, "duration": 110, "velocity": 100}, {"time": 28204, "pitch": 31, "duration": 110, "velocity": 105}, {"time": 28324, "pitch": 30, "duration": 108, "velocity": 110}, {"time": 28442, "pitch": 37, "duration": 108, "velocity": 100}, {"time": 28560, "pitch": 42, "duration": 226, "velocity": 105}, {"time": 28916, "pitch": 37, "duration": 110, "velocity": 110}, {"time": 29036, "pitch": 42, "duration": 111, "velocity": 105}, {"time": 29157, "pitch": 37, "duration": 110, "velocity": 100}, {"time": 29277, "pitch": 40, "duration": 110, "velocity": 110}, {"time": 29397, "pitch": 35, "duration": 111, "velocity": 100}, {"time": 29518, "pitch": 40, "duration": 231, "velocity": 105}, {"time": 29879, "pitch": 40, "duration": 110, "velocity": 110}, {"time": 29999, "pitch": 35, "duration": 111, "velocity": 100}, {"time": 30120, "pitch": 40, "duration": 110, "velocity": 105}, {"time": 30361, "pitch": 40, "duration": 110, "velocity": 110}, {"time": 30481, "pitch": 35, "duration": 110, "velocity": 100}, {"time": 30601, "pitch": 38, "duration": 111, "velocity": 105}, {"time": 30722, "pitch": 40, "duration": 110, "velocity": 110}, {"time": 30842, "pitch": 47, "duration": 111, "velocity": 105}, {"time": 30963, "pitch": 35, "duration": 110, "velocity": 110}, {"time": 31083, "pitch": 38, "duration": 110, "velocity": 100}, {"time": 31203, "pitch": 40, "duration": 111, "velocity": 110}, {"time": 31324, "pitch": 35, "duration": 110, "velocity": 100}, {"time": 31444, "pitch": 40, "duration": 231, "velocity": 105}, {"time": 31803, "pitch": 40, "duration": 108, "velocity": 110}, {"time": 31921, "pitch": 35, "duration": 108, "velocity": 100}, {"time": 32038, "pitch": 40, "duration": 108, "velocity": 105}, {"time": 32277, "pitch": 40, "duration": 110, "velocity": 110}, {"time": 32397, "pitch": 35, "duration": 110, "velocity": 100}, {"time": 32517, "pitch": 38, "duration": 111, "velocity": 105}, {"time": 32638, "pitch": 40, "duration": 110, "velocity": 110}, {"time": 32758, "pitch": 42, "duration": 111, "velocity": 100}, {"time": 32879, "pitch": 43, "duration": 110, "velocity": 105}, {"time": 32999, "pitch": 45, "duration": 110, "velocity": 100}, {"time": 33119, "pitch": 29, "duration": 111, "velocity": 110}, {"time": 33240, "pitch": 41, "duration": 110, "velocity": 100}, {"time": 33360, "pitch": 29, "duration": 231, "velocity": 105}, {"time": 33721, "pitch": 29, "duration": 231, "velocity": 110}, {"time": 33962, "pitch": 31, "duration": 110, "velocity": 100}, {"time": 34083, "pitch": 29, "duration": 110, "velocity": 110}, {"time": 34203, "pitch": 36, "duration": 110, "velocity": 100}, {"time": 34323, "pitch": 29, "duration": 231, "velocity": 105}, {"time": 34682, "pitch": 29, "duration": 108, "velocity": 105}, {"time": 34800, "pitch": 36, "duration": 108, "velocity": 110}, {"time": 34918, "pitch": 31, "duration": 108, "velocity": 100}, {"time": 35035, "pitch": 29, "duration": 111, "velocity": 110}, {"time": 35156, "pitch": 36, "duration": 110, "velocity": 100}, {"time": 35276, "pitch": 29, "duration": 231, "velocity": 105}, {"time": 35637, "pitch": 41, "duration": 111, "velocity": 110}, {"time": 35758, "pitch": 36, "duration": 110, "velocity": 100}, {"time": 35878, "pitch": 29, "duration": 110, "velocity": 105}, {"time": 35998, "pitch": 29, "duration": 111, "velocity": 110}, {"time": 36119, "pitch": 36, "duration": 110, "velocity": 100}, {"time": 36239, "pitch": 29, "duration": 231, "velocity": 105}, {"time": 36600, "pitch": 26, "duration": 111, "velocity": 105}, {"time": 36721, "pitch": 27, "duration": 110, "velocity": 110}, {"time": 36841, "pitch": 28, "duration": 111, "velocity": 100}, {"time": 36962, "pitch": 29, "duration": 110, "velocity": 110}, {"time": 37082, "pitch": 41, "duration": 110, "velocity": 100}, {"time": 37202, "pitch": 29, "duration": 231, "velocity": 105}, {"time": 37564, "pitch": 29, "duration": 230, "velocity": 110}, {"time": 37804, "pitch": 31, "duration": 111, "velocity": 100}, {"time": 37925, "pitch": 29, "duration": 108, "velocity": 110}, {"time": 38042, "pitch": 36, "duration": 109, "velocity": 100}, {"time": 38160, "pitch": 29, "duration": 226, "velocity": 105}, {"time": 38516, "pitch": 29, "duration": 111, "velocity": 105}, {"time": 38637, "pitch": 36, "duration": 110, "velocity": 110}, {"time": 38757, "pitch": 31, "duration": 110, "velocity": 100}, {"time": 38877, "pitch": 29, "duration": 111, "velocity": 110}, {"time": 38998, "pitch": 36, "duration": 110, "velocity": 100}, {"time": 39118, "pitch": 29, "duration": 231, "velocity": 105}, {"time": 39479, "pitch": 41, "duration": 111, "velocity": 110}, {"time": 39600, "pitch": 36, "duration": 110, "velocity": 100}, {"time": 39720, "pitch": 29, "duration": 111, "velocity": 105}, {"time": 39841, "pitch": 29, "duration": 110, "velocity": 110}, {"time": 39961, "pitch": 36, "duration": 110, "velocity": 100}, {"time": 40081, "pitch": 29, "duration": 231, "velocity": 105}, {"time": 40443, "pitch": 26, "duration": 110, "velocity": 105}, {"time": 40563, "pitch": 27, "duration": 110, "velocity": 110}, {"time": 40683, "pitch": 28, "duration": 111, "velocity": 100}, {"time": 40804, "pitch": 29, "duration": 108, "velocity": 110}, {"time": 40922, "pitch": 41, "duration": 108, "velocity": 100}, {"time": 41039, "pitch": 29, "duration": 226, "velocity": 105}, {"time": 41395, "pitch": 29, "duration": 231, "velocity": 110}, {"time": 41636, "pitch": 31, "duration": 111, "velocity": 100}, {"time": 41757, "pitch": 29, "duration": 110, "velocity": 110}, {"time": 41877, "pitch": 36, "duration": 110, "velocity": 100}, {"time": 41997, "pitch": 29, "duration": 231, "velocity": 105}, {"time": 42359, "pitch": 29, "duration": 110, "velocity": 105}, {"time": 42479, "pitch": 36, "duration": 110, "velocity": 110}, {"time": 42599, "pitch": 31, "duration": 111, "velocity": 100}, {"time": 42720, "pitch": 29, "duration": 110, "velocity": 110}, {"time": 42840, "pitch": 36, "duration": 110, "velocity": 100}, {"time": 42961, "pitch": 29, "duration": 230, "velocity": 105}, {"time": 43322, "pitch": 41, "duration": 110, "velocity": 110}, {"time": 43442, "pitch": 36, "duration": 110, "velocity": 100}, {"time": 43563, "pitch": 29, "duration": 110, "velocity": 105}, {"time": 43683, "pitch": 29, "duration": 110, "velocity": 110}, {"time": 43803, "pitch": 36, "duration": 111, "velocity": 100}, {"time": 43924, "pitch": 29, "duration": 230, "velocity": 105}, {"time": 44282, "pitch": 26, "duration": 108, "velocity": 105}, {"time": 44400, "pitch": 27, "duration": 108, "velocity": 110}, {"time": 44518, "pitch": 28, "duration": 108, "velocity": 100}, {"time": 44636, "pitch": 29, "duration": 110, "velocity": 110}, {"time": 44756, "pitch": 41, "duration": 110, "velocity": 100}, {"time": 44876, "pitch": 29, "duration": 231, "velocity": 105}, {"time": 45238, "pitch": 29, "duration": 230, "velocity": 110}, {"time": 45478, "pitch": 31, "duration": 111, "velocity": 100}, {"time": 45599, "pitch": 29, "duration": 110, "velocity": 110}, {"time": 45719, "pitch": 36, "duration": 111, "velocity": 100}, {"time": 45840, "pitch": 29, "duration": 230, "velocity": 105}, {"time": 46201, "pitch": 29, "duration": 110, "velocity": 105}, {"time": 46321, "pitch": 36, "duration": 111, "velocity": 110}, {"time": 46442, "pitch": 31, "duration": 110, "velocity": 100}, {"time": 46562, "pitch": 29, "duration": 110, "velocity": 110}, {"time": 46682, "pitch": 36, "duration": 111, "velocity": 100}, {"time": 46803, "pitch": 29, "duration": 231, "velocity": 105}, {"time": 47164, "pitch": 41, "duration": 110, "velocity": 110}, {"time": 47284, "pitch": 36, "duration": 111, "velocity": 105}, {"time": 47405, "pitch": 29, "duration": 110, "velocity": 100}, {"time": 48478, "pitch": 40, "duration": 110, "velocity": 110}, {"time": 48719, "pitch": 40, "duration": 110, "velocity": 105}, {"time": 48959, "pitch": 40, "duration": 231, "velocity": 110}, {"time": 49200, "pitch": 35, "duration": 111, "velocity": 100}, {"time": 49321, "pitch": 38, "duration": 110, "velocity": 105}, {"time": 49561, "pitch": 40, "duration": 111, "velocity": 105}, {"time": 49682, "pitch": 40, "duration": 231, "velocity": 110}, {"time": 50043, "pitch": 42, "duration": 110, "velocity": 105}, {"time": 50163, "pitch": 43, "duration": 111, "velocity": 110}, {"time": 50284, "pitch": 45, "duration": 110, "velocity": 100}, {"time": 50404, "pitch": 40, "duration": 108, "velocity": 110}, {"time": 50640, "pitch": 40, "duration": 108, "velocity": 105}, {"time": 50875, "pitch": 40, "duration": 231, "velocity": 110}, {"time": 51116, "pitch": 35, "duration": 111, "velocity": 100}, {"time": 51237, "pitch": 38, "duration": 110, "velocity": 105}, {"time": 51477, "pitch": 40, "duration": 111, "velocity": 105}, {"time": 51598, "pitch": 40, "duration": 110, "velocity": 110}, {"time": 51839, "pitch": 40, "duration": 110, "velocity": 110}, {"time": 51959, "pitch": 43, "duration": 110, "velocity": 105}, {"time": 52079, "pitch": 35, "duration": 111, "velocity": 110}, {"time": 52200, "pitch": 40, "duration": 110, "velocity": 100}, {"time": 52320, "pitch": 36, "duration": 110, "velocity": 110}, {"time": 52561, "pitch": 36, "duration": 110, "velocity": 105}, {"time": 52802, "pitch": 36, "duration": 230, "velocity": 110}, {"time": 53043, "pitch": 31, "duration": 110, "velocity": 100}, {"time": 53163, "pitch": 33, "duration": 110, "velocity": 105}, {"time": 53404, "pitch": 36, "duration": 110, "velocity": 105}, {"time": 53524, "pitch": 36, "duration": 231, "velocity": 110}, {"time": 53883, "pitch": 38, "duration": 108, "velocity": 105}, {"time": 54000, "pitch": 39, "duration": 108, "velocity": 110}, {"time": 54118, "pitch": 40, "duration": 108, "velocity": 100}, {"time": 54236, "pitch": 36, "duration": 110, "velocity": 110}, {"time": 54477, "pitch": 36, "duration": 110, "velocity": 105}, {"time": 54718, "pitch": 36, "duration": 230, "velocity": 110}, {"time": 54958, "pitch": 31, "duration": 111, "velocity": 100}, {"time": 55079, "pitch": 33, "duration": 110, "velocity": 105}, {"time": 55320, "pitch": 36, "duration": 110, "velocity": 105}, {"time": 55440, "pitch": 36, "duration": 110, "velocity": 110}, {"time": 55681, "pitch": 33, "duration": 110, "velocity": 110}, {"time": 55801, "pitch": 36, "duration": 111, "velocity": 105}, {"time": 55922, "pitch": 40, "duration": 110, "velocity": 110}, {"time": 56042, "pitch": 43, "duration": 110, "velocity": 100}, {"time": 56162, "pitch": 45, "duration": 111, "velocity": 110}, {"time": 56403, "pitch": 45, "duration": 111, "velocity": 105}, {"time": 56644, "pitch": 45, "duration": 226, "velocity": 110}, {"time": 56880, "pitch": 38, "duration": 108, "velocity": 100}, {"time": 56997, "pitch": 40, "duration": 108, "velocity": 105}, {"time": 57236, "pitch": 45, "duration": 110, "velocity": 105}, {"time": 57356, "pitch": 45, "duration": 231, "velocity": 110}, {"time": 57717, "pitch": 45, "duration": 110, "velocity": 105}, {"time": 57837, "pitch": 43, "duration": 111, "velocity": 110}, {"time": 57958, "pitch": 40, "duration": 110, "velocity": 100}, {"time": 58078, "pitch": 45, "duration": 111, "velocity": 110}, {"time": 58319, "pitch": 45, "duration": 110, "velocity": 105}, {"time": 58560, "pitch": 45, "duration": 231, "velocity": 110}, {"time": 58801, "pitch": 38, "duration": 110, "velocity": 100}, {"time": 58921, "pitch": 40, "duration": 110, "velocity": 105}, {"time": 59162, "pitch": 45, "duration": 110, "velocity": 105}, {"time": 59282, "pitch": 45, "duration": 111, "velocity": 110}, {"time": 59523, "pitch": 38, "duration": 110, "velocity": 110}, {"time": 59643, "pitch": 40, "duration": 111, "velocity": 105}, {"time": 59764, "pitch": 45, "duration": 110, "velocity": 110}, {"time": 59884, "pitch": 43, "duration": 111, "velocity": 100}, {"time": 60005, "pitch": 38, "duration": 108, "velocity": 110}, {"time": 60240, "pitch": 38, "duration": 108, "velocity": 105}, {"time": 60476, "pitch": 38, "duration": 231, "velocity": 110}, {"time": 60717, "pitch": 33, "duration": 110, "velocity": 100}, {"time": 60837, "pitch": 35, "duration": 110, "velocity": 105}, {"time": 61078, "pitch": 38, "duration": 110, "velocity": 105}, {"time": 61198, "pitch": 38, "duration": 231, "velocity": 110}, {"time": 61559, "pitch": 38, "duration": 111, "velocity": 105}, {"time": 61680, "pitch": 40, "duration": 110, "velocity": 110}, {"time": 61800, "pitch": 42, "duration": 110, "velocity": 100}, {"time": 61921, "pitch": 35, "duration": 110, "velocity": 110}, {"time": 62161, "pitch": 35, "duration": 111, "velocity": 105}, {"time": 62402, "pitch": 35, "duration": 231, "velocity": 110}, {"time": 62643, "pitch": 33, "duration": 110, "velocity": 100}, {"time": 62763, "pitch": 35, "duration": 111, "velocity": 105}, {"time": 63001, "pitch": 35, "duration": 108, "velocity": 105}, {"time": 63119, "pitch": 35, "duration": 108, "velocity": 110}, {"time": 63355, "pitch": 35, "duration": 110, "velocity": 110}, {"time": 63475, "pitch": 39, "duration": 111, "velocity": 105}, {"time": 63596, "pitch": 42, "duration": 110, "velocity": 110}, {"time": 63716, "pitch": 35, "duration": 110, "velocity": 100}, {"time": 63836, "pitch": 40, "duration": 111, "velocity": 110}, {"time": 64077, "pitch": 40, "duration": 111, "velocity": 105}, {"time": 64318, "pitch": 40, "duration": 231, "velocity": 110}, {"time": 64559, "pitch": 35, "duration": 110, "velocity": 100}, {"time": 64679, "pitch": 38, "duration": 111, "velocity": 105}, {"time": 64920, "pitch": 40, "duration": 110, "velocity": 105}, {"time": 65040, "pitch": 40, "duration": 231, "velocity": 110}, {"time": 65402, "pitch": 42, "duration": 110, "velocity": 105}, {"time": 65522, "pitch": 43, "duration": 110, "velocity": 110}, {"time": 65642, "pitch": 45, "duration": 111, "velocity": 100}, {"time": 65763, "pitch": 40, "duration": 110, "velocity": 110}, {"time": 66004, "pitch": 40, "duration": 110, "velocity": 105}, {"time": 66244, "pitch": 40, "duration": 226, "velocity": 110}, {"time": 66480, "pitch": 35, "duration": 108, "velocity": 100}, {"time": 66598, "pitch": 38, "duration": 108, "velocity": 105}, {"time": 66836, "pitch": 40, "duration": 110, "velocity": 105}, {"time": 66956, "pitch": 40, "duration": 111, "velocity": 110}, {"time": 67197, "pitch": 40, "duration": 110, "velocity": 110}, {"time": 67317, "pitch": 43, "duration": 111, "velocity": 105}, {"time": 67438, "pitch": 35, "duration": 110, "velocity": 110}, {"time": 67558, "pitch": 40, "duration": 111, "velocity": 100}, {"time": 67679, "pitch": 36, "duration": 110, "velocity": 110}, {"time": 67919, "pitch": 36, "duration": 111, "velocity": 105}, {"time": 68160, "pitch": 36, "duration": 231, "velocity": 110}, {"time": 68401, "pitch": 31, "duration": 110, "velocity": 100}, {"time": 68521, "pitch": 33, "duration": 111, "velocity": 105}, {"time": 68762, "pitch": 36, "duration": 111, "velocity": 105}, {"time": 68883, "pitch": 36, "duration": 230, "velocity": 110}, {"time": 69244, "pitch": 38, "duration": 110, "velocity": 105}, {"time": 69364, "pitch": 39, "duration": 111, "velocity": 110}, {"time": 69485, "pitch": 40, "duration": 110, "velocity": 100}, {"time": 69605, "pitch": 36, "duration": 108, "velocity": 110}, {"time": 69841, "pitch": 36, "duration": 108, "velocity": 105}, {"time": 70076, "pitch": 36, "duration": 231, "velocity": 110}, {"time": 70317, "pitch": 31, "duration": 110, "velocity": 100}, {"time": 70437, "pitch": 33, "duration": 111, "velocity": 105}, {"time": 70678, "pitch": 36, "duration": 111, "velocity": 105}, {"time": 70799, "pitch": 36, "duration": 110, "velocity": 110}, {"time": 71039, "pitch": 33, "duration": 111, "velocity": 110}, {"time": 71160, "pitch": 36, "duration": 110, "velocity": 105}, {"time": 71280, "pitch": 40, "duration": 110, "velocity": 110}, {"time": 71401, "pitch": 43, "duration": 110, "velocity": 100}, {"time": 71521, "pitch": 45, "duration": 110, "velocity": 110}, {"time": 71762, "pitch": 45, "duration": 110, "velocity": 105}, {"time": 72003, "pitch": 45, "duration": 230, "velocity": 110}, {"time": 72243, "pitch": 38, "duration": 111, "velocity": 100}, {"time": 72364, "pitch": 40, "duration": 110, "velocity": 105}, {"time": 72602, "pitch": 45, "duration": 108, "velocity": 105}, {"time": 72720, "pitch": 45, "duration": 226, "velocity": 110}, {"time": 73076, "pitch": 45, "duration": 110, "velocity": 105}, {"time": 73196, "pitch": 43, "duration": 110, "velocity": 110}, {"time": 73316, "pitch": 40, "duration": 111, "velocity": 100}, {"time": 73437, "pitch": 45, "duration": 110, "velocity": 110}, {"time": 73678, "pitch": 45, "duration": 110, "velocity": 105}, {"time": 73918, "pitch": 45, "duration": 231, "velocity": 110}, {"time": 74159, "pitch": 38, "duration": 111, "velocity": 100}, {"time": 74280, "pitch": 40, "duration": 110, "velocity": 105}, {"time": 74520, "pitch": 45, "duration": 111, "velocity": 105}, {"time": 74641, "pitch": 45, "duration": 110, "velocity": 110}, {"time": 74882, "pitch": 38, "duration": 110, "velocity": 110}, {"time": 75002, "pitch": 40, "duration": 110, "velocity": 105}, {"time": 75122, "pitch": 45, "duration": 111, "velocity": 110}, {"time": 75243, "pitch": 43, "duration": 110, "velocity": 100}, {"time": 75363, "pitch": 38, "duration": 111, "velocity": 110}, {"time": 75604, "pitch": 38, "duration": 110, "velocity": 105}, {"time": 75845, "pitch": 38, "duration": 226, "velocity": 110}, {"time": 76080, "pitch": 33, "duration": 108, "velocity": 100}, {"time": 76198, "pitch": 35, "duration": 108, "velocity": 105}, {"time": 76436, "pitch": 38, "duration": 111, "velocity": 105}, {"time": 76557, "pitch": 38, "duration": 230, "velocity": 110}, {"time": 76918, "pitch": 38, "duration": 110, "velocity": 105}, {"time": 77038, "pitch": 40, "duration": 111, "velocity": 110}, {"time": 77159, "pitch": 42, "duration": 110, "velocity": 100}, {"time": 77279, "pitch": 35, "duration": 110, "velocity": 110}, {"time": 77520, "pitch": 35, "duration": 110, "velocity": 105}, {"time": 77761, "pitch": 35, "duration": 230, "velocity": 110}, {"time": 78001, "pitch": 33, "duration": 111, "velocity": 100}, {"time": 78122, "pitch": 35, "duration": 110, "velocity": 105}, {"time": 78363, "pitch": 35, "duration": 110, "velocity": 105}, {"time": 78483, "pitch": 35, "duration": 110, "velocity": 110}, {"time": 78724, "pitch": 35, "duration": 108, "velocity": 110}, {"time": 78842, "pitch": 39, "duration": 108, "velocity": 105}, {"time": 78959, "pitch": 42, "duration": 108, "velocity": 110}, {"time": 79077, "pitch": 35, "duration": 108, "velocity": 100}, {"time": 79195, "pitch": 36, "duration": 712, "velocity": 110}, {"time": 79917, "pitch": 43, "duration": 231, "velocity": 100}, {"time": 80158, "pitch": 48, "duration": 351, "velocity": 110}, {"time": 80519, "pitch": 43, "duration": 351, "velocity": 105}, {"time": 80881, "pitch": 36, "duration": 230, "velocity": 100}, {"time": 81121, "pitch": 35, "duration": 713, "velocity": 110}, {"time": 81844, "pitch": 42, "duration": 230, "velocity": 100}, {"time": 82084, "pitch": 47, "duration": 344, "velocity": 110}, {"time": 82438, "pitch": 42, "duration": 348, "velocity": 105}, {"time": 82796, "pitch": 35, "duration": 231, "velocity": 100}, {"time": 83037, "pitch": 33, "duration": 713, "velocity": 110}, {"time": 83760, "pitch": 40, "duration": 230, "velocity": 100}, {"time": 84000, "pitch": 45, "duration": 713, "velocity": 110}, {"time": 84723, "pitch": 45, "duration": 110, "velocity": 105}, {"time": 84843, "pitch": 47, "duration": 111, "velocity": 100}, {"time": 84964, "pitch": 49, "duration": 471, "velocity": 110}, {"time": 85445, "pitch": 45, "duration": 462, "velocity": 105}, {"time": 85916, "pitch": 40, "duration": 472, "velocity": 110}, {"time": 86398, "pitch": 40, "duration": 231, "velocity": 105}, {"time": 86639, "pitch": 38, "duration": 230, "velocity": 100}, {"time": 86879, "pitch": 36, "duration": 713, "velocity": 110}, {"time": 87602, "pitch": 43, "duration": 231, "velocity": 100}, {"time": 87843, "pitch": 48, "duration": 351, "velocity": 110}, {"time": 88204, "pitch": 43, "duration": 346, "velocity": 105}, {"time": 88560, "pitch": 36, "duration": 226, "velocity": 100}, {"time": 88795, "pitch": 35, "duration": 352, "velocity": 110}, {"time": 89157, "pitch": 42, "duration": 351, "velocity": 105}, {"time": 89518, "pitch": 35, "duration": 231, "velocity": 100}, {"time": 89759, "pitch": 40, "duration": 712, "velocity": 110}, {"time": 90481, "pitch": 42, "duration": 110, "velocity": 105}, {"time": 90601, "pitch": 43, "duration": 111, "velocity": 100}, {"time": 90722, "pitch": 45, "duration": 712, "velocity": 110}, {"time": 91444, "pitch": 52, "duration": 467, "velocity": 110}, {"time": 91920, "pitch": 57, "duration": 226, "velocity": 105}, {"time": 92156, "pitch": 52, "duration": 231, "velocity": 110}, {"time": 92397, "pitch": 45, "duration": 231, "velocity": 100}, {"time": 92638, "pitch": 35, "duration": 230, "velocity": 110}, {"time": 92999, "pitch": 42, "duration": 231, "velocity": 105}, {"time": 93360, "pitch": 47, "duration": 110, "velocity": 100}, {"time": 93601, "pitch": 35, "duration": 231, "velocity": 110}, {"time": 93842, "pitch": 52, "duration": 702, "velocity": 105}, {"time": 94564, "pitch": 31, "duration": 108, "velocity": 110}, {"time": 94682, "pitch": 38, "duration": 108, "velocity": 100}, {"time": 94800, "pitch": 43, "duration": 225, "velocity": 105}, {"time": 95156, "pitch": 43, "duration": 230, "velocity": 110}, {"time": 95396, "pitch": 38, "duration": 111, "velocity": 100}, {"time": 95517, "pitch": 33, "duration": 110, "velocity": 110}, {"time": 95637, "pitch": 40, "duration": 110, "velocity": 100}, {"time": 95757, "pitch": 45, "duration": 231, "velocity": 105}, {"time": 96119, "pitch": 45, "duration": 110, "velocity": 110}, {"time": 96239, "pitch": 40, "duration": 110, "velocity": 105}, {"time": 96359, "pitch": 33, "duration": 111, "velocity": 100}, {"time": 96480, "pitch": 30, "duration": 110, "velocity": 110}, {"time": 96600, "pitch": 37, "duration": 111, "velocity": 100}, {"time": 96721, "pitch": 42, "duration": 230, "velocity": 105}, {"time": 97082, "pitch": 30, "duration": 110, "velocity": 110}, {"time": 97202, "pitch": 33, "duration": 111, "velocity": 100}, {"time": 97323, "pitch": 34, "duration": 110, "velocity": 105}, {"time": 97443, "pitch": 35, "duration": 110, "velocity": 110}, {"time": 97563, "pitch": 42, "duration": 111, "velocity": 100}, {"time": 97684, "pitch": 47, "duration": 231, "velocity": 105}, {"time": 98042, "pitch": 47, "duration": 108, "velocity": 110}, {"time": 98160, "pitch": 42, "duration": 108, "velocity": 105}, {"time": 98278, "pitch": 35, "duration": 108, "velocity": 100}, {"time": 98396, "pitch": 40, "duration": 110, "velocity": 110}, {"time": 98516, "pitch": 35, "duration": 111, "velocity": 100}, {"time": 98637, "pitch": 40, "duration": 230, "velocity": 105}, {"time": 98998, "pitch": 40, "duration": 110, "velocity": 110}, {"time": 99118, "pitch": 35, "duration": 111, "velocity": 100}, {"time": 99239, "pitch": 28, "duration": 110, "velocity": 105}, {"time": 99359, "pitch": 30, "duration": 110, "velocity": 110}, {"time": 99479, "pitch": 37, "duration": 111, "velocity": 100}, {"time": 99600, "pitch": 42, "duration": 230, "velocity": 105}, {"time": 99961, "pitch": 37, "duration": 110, "velocity": 110}, {"time": 100081, "pitch": 42, "duration": 111, "velocity": 105}, {"time": 100202, "pitch": 37, "duration": 110, "velocity": 100}, {"time": 100322, "pitch": 43, "duration": 110, "velocity": 110}, {"time": 100443, "pitch": 38, "duration": 110, "velocity": 100}, {"time": 100563, "pitch": 43, "duration": 231, "velocity": 105}, {"time": 100921, "pitch": 43, "duration": 108, "velocity": 110}, {"time": 101039, "pitch": 38, "duration": 108, "velocity": 100}, {"time": 101157, "pitch": 43, "duration": 108, "velocity": 105}, {"time": 101395, "pitch": 45, "duration": 111, "velocity": 110}, {"time": 101516, "pitch": 40, "duration": 110, "velocity": 100}, {"time": 101636, "pitch": 43, "duration": 110, "velocity": 105}, {"time": 101756, "pitch": 45, "duration": 111, "velocity": 110}, {"time": 101877, "pitch": 40, "duration": 110, "velocity": 105}, {"time": 101997, "pitch": 33, "duration": 111, "velocity": 110}, {"time": 102118, "pitch": 32, "duration": 110, "velocity": 100}, {"time": 102238, "pitch": 31, "duration": 110, "velocity": 110}, {"time": 102358, "pitch": 38, "duration": 111, "velocity": 100}, {"time": 102479, "pitch": 43, "duration": 231, "velocity": 105}, {"time": 102840, "pitch": 43, "duration": 231, "velocity": 110}, {"time": 103081, "pitch": 38, "duration": 110, "velocity": 100}, {"time": 103201, "pitch": 33, "duration": 111, "velocity": 110}, {"time": 103322, "pitch": 40, "duration": 110, "velocity": 100}, {"time": 103442, "pitch": 45, "duration": 231, "velocity": 105}, {"time": 103803, "pitch": 45, "duration": 111, "velocity": 110}, {"time": 103924, "pitch": 40, "duration": 110, "velocity": 105}, {"time": 104044, "pitch": 33, "duration": 110, "velocity": 100}, {"time": 104164, "pitch": 30, "duration": 108, "velocity": 110}, {"time": 104282, "pitch": 37, "duration": 108, "velocity": 100}, {"time": 104400, "pitch": 42, "duration": 226, "velocity": 105}, {"time": 104756, "pitch": 30, "duration": 110, "velocity": 110}, {"time": 104876, "pitch": 33, "duration": 111, "velocity": 100}, {"time": 104997, "pitch": 34, "duration": 110, "velocity": 105}, {"time": 105117, "pitch": 35, "duration": 110, "velocity": 110}, {"time": 105237, "pitch": 42, "duration": 111, "velocity": 100}, {"time": 105358, "pitch": 47, "duration": 231, "velocity": 105}, {"time": 105719, "pitch": 47, "duration": 110, "velocity": 110}, {"time": 105839, "pitch": 42, "duration": 111, "velocity": 105}, {"time": 105960, "pitch": 38, "duration": 110, "velocity": 100}, {"time": 106080, "pitch": 43, "duration": 111, "velocity": 110}, {"time": 106201, "pitch": 38, "duration": 110, "velocity": 100}, {"time": 106321, "pitch": 43, "duration": 231, "velocity": 105}, {"time": 106682, "pitch": 43, "duration": 111, "velocity": 110}, {"time": 106803, "pitch": 38, "duration": 110, "velocity": 100}, {"time": 106923, "pitch": 31, "duration": 110, "velocity": 105}, {"time": 107043, "pitch": 30, "duration": 111, "velocity": 110}, {"time": 107164, "pitch": 37, "duration": 110, "velocity": 100}, {"time": 107284, "pitch": 42, "duration": 231, "velocity": 105}, {"time": 107643, "pitch": 37, "duration": 108, "velocity": 110}, {"time": 107761, "pitch": 42, "duration": 108, "velocity": 105}, {"time": 107878, "pitch": 37, "duration": 108, "velocity": 100}, {"time": 107996, "pitch": 40, "duration": 111, "velocity": 110}, {"time": 108117, "pitch": 35, "duration": 110, "velocity": 100}, {"time": 108237, "pitch": 40, "duration": 231, "velocity": 105}, {"time": 108598, "pitch": 40, "duration": 111, "velocity": 110}, {"time": 108719, "pitch": 35, "duration": 110, "velocity": 100}, {"time": 108839, "pitch": 40, "duration": 110, "velocity": 105}, {"time": 109080, "pitch": 40, "duration": 110, "velocity": 110}, {"time": 109200, "pitch": 35, "duration": 110, "velocity": 100}, {"time": 109321, "pitch": 38, "duration": 110, "velocity": 105}, {"time": 109441, "pitch": 40, "duration": 110, "velocity": 110}, {"time": 109561, "pitch": 47, "duration": 111, "velocity": 105}, {"time": 109682, "pitch": 35, "duration": 110, "velocity": 110}, {"time": 109802, "pitch": 38, "duration": 110, "velocity": 100}, {"time": 109923, "pitch": 40, "duration": 110, "velocity": 110}, {"time": 110043, "pitch": 35, "duration": 110, "velocity": 100}, {"time": 110163, "pitch": 40, "duration": 231, "velocity": 105}, {"time": 110522, "pitch": 40, "duration": 108, "velocity": 110}, {"time": 110640, "pitch": 35, "duration": 108, "velocity": 100}, {"time": 110758, "pitch": 40, "duration": 108, "velocity": 105}, {"time": 110996, "pitch": 40, "duration": 110, "velocity": 110}, {"time": 111116, "pitch": 35, "duration": 110, "velocity": 100}, {"time": 111236, "pitch": 38, "duration": 111, "velocity": 105}, {"time": 111357, "pitch": 40, "duration": 110, "velocity": 110}, {"time": 111477, "pitch": 42, "duration": 111, "velocity": 100}, {"time": 111598, "pitch": 43, "duration": 110, "velocity": 105}, {"time": 111718, "pitch": 45, "duration": 110, "velocity": 100}, {"time": 111838, "pitch": 29, "duration": 111, "velocity": 110}, {"time": 111959, "pitch": 41, "duration": 110, "velocity": 100}, {"time": 112079, "pitch": 29, "duration": 231, "velocity": 105}, {"time": 112440, "pitch": 29, "duration": 231, "velocity": 110}, {"time": 112681, "pitch": 31, "duration": 111, "velocity": 100}, {"time": 112802, "pitch": 29, "duration": 110, "velocity": 110}, {"time": 112922, "pitch": 36, "duration": 110, "velocity": 100}, {"time": 113042, "pitch": 29, "duration": 231, "velocity": 105}, {"time": 113404, "pitch": 29, "duration": 110, "velocity": 105}, {"time": 113524, "pitch": 36, "duration": 110, "velocity": 110}, {"time": 113644, "pitch": 31, "duration": 111, "velocity": 100}, {"time": 113765, "pitch": 29, "duration": 108, "velocity": 110}, {"time": 113882, "pitch": 36, "duration": 109, "velocity": 100}, {"time": 114000, "pitch": 29, "duration": 226, "velocity": 105}, {"time": 114356, "pitch": 41, "duration": 111, "velocity": 110}, {"time": 114477, "pitch": 36, "duration": 110, "velocity": 100}, {"time": 114597, "pitch": 29, "duration": 110, "velocity": 105}, {"time": 114717, "pitch": 29, "duration": 111, "velocity": 110}, {"time": 114838, "pitch": 36, "duration": 110, "velocity": 100}, {"time": 114958, "pitch": 29, "duration": 231, "velocity": 105}, {"time": 115319, "pitch": 26, "duration": 111, "velocity": 105}, {"time": 115440, "pitch": 27, "duration": 110, "velocity": 110}, {"time": 115560, "pitch": 28, "duration": 111, "velocity": 100}, {"time": 115681, "pitch": 29, "duration": 110, "velocity": 110}, {"time": 115801, "pitch": 41, "duration": 110, "velocity": 100}, {"time": 115921, "pitch": 29, "duration": 231, "velocity": 105}, {"time": 116283, "pitch": 29, "duration": 230, "velocity": 110}, {"time": 116523, "pitch": 31, "duration": 111, "velocity": 100}, {"time": 116644, "pitch": 29, "duration": 108, "velocity": 110}, {"time": 116762, "pitch": 36, "duration": 108, "velocity": 100}, {"time": 116879, "pitch": 29, "duration": 226, "velocity": 105}, {"time": 117235, "pitch": 29, "duration": 111, "velocity": 105}, {"time": 117356, "pitch": 36, "duration": 110, "velocity": 110}, {"time": 117476, "pitch": 31, "duration": 111, "velocity": 100}, {"time": 117597, "pitch": 29, "duration": 110, "velocity": 110}, {"time": 117717, "pitch": 36, "duration": 110, "velocity": 100}, {"time": 117837, "pitch": 29, "duration": 231, "velocity": 105}, {"time": 118199, "pitch": 41, "duration": 110, "velocity": 110}, {"time": 118319, "pitch": 36, "duration": 110, "velocity": 100}, {"time": 118439, "pitch": 29, "duration": 111, "velocity": 105}, {"time": 118560, "pitch": 29, "duration": 110, "velocity": 110}, {"time": 118680, "pitch": 36, "duration": 110, "velocity": 100}, {"time": 118801, "pitch": 29, "duration": 230, "velocity": 105}, {"time": 119162, "pitch": 26, "duration": 110, "velocity": 105}, {"time": 119282, "pitch": 27, "duration": 110, "velocity": 110}, {"time": 119403, "pitch": 28, "duration": 110, "velocity": 100}, {"time": 119523, "pitch": 29, "duration": 110, "velocity": 110}, {"time": 119643, "pitch": 41, "duration": 111, "velocity": 100}, {"time": 119764, "pitch": 29, "duration": 230, "velocity": 105}, {"time": 120122, "pitch": 29, "duration": 226, "velocity": 110}, {"time": 120358, "pitch": 31, "duration": 108, "velocity": 100}, {"time": 120476, "pitch": 29, "duration": 110, "velocity": 110}, {"time": 120596, "pitch": 36, "duration": 110, "velocity": 100}, {"time": 120716, "pitch": 29, "duration": 231, "velocity": 105}, {"time": 121078, "pitch": 29, "duration": 110, "velocity": 105}, {"time": 121198, "pitch": 36, "duration": 110, "velocity": 110}, {"time": 121318, "pitch": 31, "duration": 111, "velocity": 100}, {"time": 121439, "pitch": 29, "duration": 110, "velocity": 110}, {"time": 121559, "pitch": 36, "duration": 111, "velocity": 100}, {"time": 121680, "pitch": 29, "duration": 230, "velocity": 105}, {"time": 122041, "pitch": 41, "duration": 110, "velocity": 110}, {"time": 122161, "pitch": 36, "duration": 111, "velocity": 100}, {"time": 122282, "pitch": 29, "duration": 110, "velocity": 105}, {"time": 122402, "pitch": 29, "duration": 110, "velocity": 110}, {"time": 122522, "pitch": 36, "duration": 111, "velocity": 100}, {"time": 122643, "pitch": 29, "duration": 231, "velocity": 105}, {"time": 123004, "pitch": 26, "duration": 110, "velocity": 105}, {"time": 123124, "pitch": 27, "duration": 111, "velocity": 110}, {"time": 123245, "pitch": 28, "duration": 110, "velocity": 100}, {"time": 123365, "pitch": 29, "duration": 108, "velocity": 110}, {"time": 123483, "pitch": 41, "duration": 108, "velocity": 100}, {"time": 123601, "pitch": 29, "duration": 226, "velocity": 105}, {"time": 123957, "pitch": 29, "duration": 230, "velocity": 110}, {"time": 124197, "pitch": 31, "duration": 111, "velocity": 100}, {"time": 124318, "pitch": 29, "duration": 110, "velocity": 110}, {"time": 124438, "pitch": 36, "duration": 111, "velocity": 100}, {"time": 124559, "pitch": 29, "duration": 230, "velocity": 105}, {"time": 124920, "pitch": 29, "duration": 110, "velocity": 105}, {"time": 125040, "pitch": 36, "duration": 111, "velocity": 110}, {"time": 125161, "pitch": 31, "duration": 110, "velocity": 100}, {"time": 125281, "pitch": 29, "duration": 110, "velocity": 110}, {"time": 125401, "pitch": 36, "duration": 111, "velocity": 100}, {"time": 125522, "pitch": 29, "duration": 231, "velocity": 105}, {"time": 125883, "pitch": 41, "duration": 110, "velocity": 110}, {"time": 126003, "pitch": 36, "duration": 111, "velocity": 105}, {"time": 126124, "pitch": 29, "duration": 110, "velocity": 100}, {"time": 126480, "pitch": 52, "duration": 697, "velocity": 105}, {"time": 127197, "pitch": 40, "duration": 110, "velocity": 110}, {"time": 127438, "pitch": 40, "duration": 110, "velocity": 105}, {"time": 127679, "pitch": 40, "duration": 230, "velocity": 110}, {"time": 127919, "pitch": 35, "duration": 111, "velocity": 100}, {"time": 128040, "pitch": 38, "duration": 110, "velocity": 105}, {"time": 128281, "pitch": 40, "duration": 110, "velocity": 105}, {"time": 128401, "pitch": 40, "duration": 231, "velocity": 110}, {"time": 128762, "pitch": 42, "duration": 110, "velocity": 105}, {"time": 128883, "pitch": 43, "duration": 110, "velocity": 110}, {"time": 129003, "pitch": 45, "duration": 110, "velocity": 100}, {"time": 129123, "pitch": 40, "duration": 111, "velocity": 110}, {"time": 129364, "pitch": 40, "duration": 110, "velocity": 105}, {"time": 129605, "pitch": 40, "duration": 226, "velocity": 110}, {"time": 129840, "pitch": 35, "duration": 108, "velocity": 100}, {"time": 129958, "pitch": 38, "duration": 108, "velocity": 105}, {"time": 130196, "pitch": 40, "duration": 111, "velocity": 105}, {"time": 130317, "pitch": 40, "duration": 110, "velocity": 110}, {"time": 130558, "pitch": 40, "duration": 110, "velocity": 110}, {"time": 130678, "pitch": 43, "duration": 110, "velocity": 105}, {"time": 130798, "pitch": 35, "duration": 111, "velocity": 110}, {"time": 130919, "pitch": 40, "duration": 110, "velocity": 100}, {"time": 131039, "pitch": 36, "duration": 111, "velocity": 110}, {"time": 131280, "pitch": 36, "duration": 110, "velocity": 105}, {"time": 131521, "pitch": 36, "duration": 231, "velocity": 110}, {"time": 131762, "pitch": 31, "duration": 110, "velocity": 100}, {"time": 131882, "pitch": 33, "duration": 110, "velocity": 105}, {"time": 132123, "pitch": 36, "duration": 110, "velocity": 105}, {"time": 132243, "pitch": 36, "duration": 231, "velocity": 110}, {"time": 132602, "pitch": 38, "duration": 108, "velocity": 105}, {"time": 132720, "pitch": 39, "duration": 108, "velocity": 110}, {"time": 132837, "pitch": 40, "duration": 108, "velocity": 100}, {"time": 132955, "pitch": 36, "duration": 110, "velocity": 110}, {"time": 133196, "pitch": 36, "duration": 110, "velocity": 105}, {"time": 133437, "pitch": 36, "duration": 230, "velocity": 110}, {"time": 133677, "pitch": 31, "duration": 111, "velocity": 100}, {"time": 133798, "pitch": 33, "duration": 110, "velocity": 105}, {"time": 134039, "pitch": 36, "duration": 110, "velocity": 105}, {"time": 134159, "pitch": 36, "duration": 110, "velocity": 110}, {"time": 134400, "pitch": 33, "duration": 110, "velocity": 110}, {"time": 134520, "pitch": 36, "duration": 111, "velocity": 105}, {"time": 134641, "pitch": 40, "duration": 110, "velocity": 110}, {"time": 134761, "pitch": 43, "duration": 110, "velocity": 100}, {"time": 134881, "pitch": 45, "duration": 111, "velocity": 110}, {"time": 135122, "pitch": 45, "duration": 111, "velocity": 105}, {"time": 135363, "pitch": 45, "duration": 231, "velocity": 110}, {"time": 135604, "pitch": 38, "duration": 110, "velocity": 100}, {"time": 135724, "pitch": 40, "duration": 111, "velocity": 105}, {"time": 135962, "pitch": 45, "duration": 108, "velocity": 105}, {"time": 136080, "pitch": 45, "duration": 226, "velocity": 110}, {"time": 136436, "pitch": 45, "duration": 111, "velocity": 105}, {"time": 136557, "pitch": 43, "duration": 110, "velocity": 110}, {"time": 136677, "pitch": 40, "duration": 110, "velocity": 100}, {"time": 136797, "pitch": 45, "duration": 111, "velocity": 110}, {"time": 137038, "pitch": 45, "duration": 111, "velocity": 105}, {"time": 137279, "pitch": 45, "duration": 231, "velocity": 110}, {"time": 137520, "pitch": 38, "duration": 110, "velocity": 100}, {"time": 137640, "pitch": 40, "duration": 110, "velocity": 105}, {"time": 137881, "pitch": 45, "duration": 110, "velocity": 105}, {"time": 138001, "pitch": 45, "duration": 111, "velocity": 110}, {"time": 138242, "pitch": 38, "duration": 110, "velocity": 110}, {"time": 138363, "pitch": 40, "duration": 110, "velocity": 105}, {"time": 138483, "pitch": 45, "duration": 110, "velocity": 110}, {"time": 138603, "pitch": 43, "duration": 111, "velocity": 100}, {"time": 138724, "pitch": 38, "duration": 108, "velocity": 110}, {"time": 138959, "pitch": 38, "duration": 108, "velocity": 105}, {"time": 139195, "pitch": 38, "duration": 231, "velocity": 110}, {"time": 139436, "pitch": 33, "duration": 110, "velocity": 100}, {"time": 139556, "pitch": 35, "duration": 110, "velocity": 105}, {"time": 139797, "pitch": 38, "duration": 110, "velocity": 105}, {"time": 139917, "pitch": 38, "duration": 231, "velocity": 110}, {"time": 140278, "pitch": 38, "duration": 111, "velocity": 105}, {"time": 140399, "pitch": 40, "duration": 110, "velocity": 110}, {"time": 140519, "pitch": 42, "duration": 111, "velocity": 100}, {"time": 140640, "pitch": 35, "duration": 110, "velocity": 110}, {"time": 140880, "pitch": 35, "duration": 111, "velocity": 105}, {"time": 141121, "pitch": 35, "duration": 231, "velocity": 110}, {"time": 141362, "pitch": 33, "duration": 110, "velocity": 100}, {"time": 141482, "pitch": 35, "duration": 111, "velocity": 105}, {"time": 141723, "pitch": 35, "duration": 111, "velocity": 105}, {"time": 141844, "pitch": 35, "duration": 110, "velocity": 110}, {"time": 142084, "pitch": 35, "duration": 108, "velocity": 110}, {"time": 142202, "pitch": 39, "duration": 108, "velocity": 105}, {"time": 142320, "pitch": 42, "duration": 108, "velocity": 110}, {"time": 142438, "pitch": 35, "duration": 108, "velocity": 100}, {"time": 142556, "pitch": 36, "duration": 712, "velocity": 110}, {"time": 143278, "pitch": 43, "duration": 231, "velocity": 100}, {"time": 143519, "pitch": 48, "duration": 351, "velocity": 110}, {"time": 143880, "pitch": 43, "duration": 351, "velocity": 105}, {"time": 144241, "pitch": 36, "duration": 231, "velocity": 100}, {"time": 144482, "pitch": 35, "duration": 712, "velocity": 110}, {"time": 145204, "pitch": 42, "duration": 231, "velocity": 100}, {"time": 145445, "pitch": 47, "duration": 344, "velocity": 110}, {"time": 145798, "pitch": 42, "duration": 349, "velocity": 105}, {"time": 146157, "pitch": 35, "duration": 231, "velocity": 100}, {"time": 146398, "pitch": 33, "duration": 712, "velocity": 110}, {"time": 147120, "pitch": 40, "duration": 231, "velocity": 100}, {"time": 147361, "pitch": 45, "duration": 712, "velocity": 110}, {"time": 148083, "pitch": 45, "duration": 111, "velocity": 105}, {"time": 148204, "pitch": 47, "duration": 110, "velocity": 100}, {"time": 148324, "pitch": 49, "duration": 462, "velocity": 110}, {"time": 148795, "pitch": 45, "duration": 472, "velocity": 105}, {"time": 149277, "pitch": 40, "duration": 471, "velocity": 110}, {"time": 149758, "pitch": 40, "duration": 231, "velocity": 105}, {"time": 149999, "pitch": 38, "duration": 231, "velocity": 100}, {"time": 150240, "pitch": 36, "duration": 712, "velocity": 110}, {"time": 150962, "pitch": 43, "duration": 231, "velocity": 100}, {"time": 151203, "pitch": 48, "duration": 351, "velocity": 110}, {"time": 151564, "pitch": 43, "duration": 347, "velocity": 105}, {"time": 151920, "pitch": 36, "duration": 226, "velocity": 100}, {"time": 152156, "pitch": 35, "duration": 351, "velocity": 110}, {"time": 152517, "pitch": 42, "duration": 351, "velocity": 105}, {"time": 152878, "pitch": 35, "duration": 231, "velocity": 100}, {"time": 153119, "pitch": 40, "duration": 712, "velocity": 110}, {"time": 153841, "pitch": 42, "duration": 111, "velocity": 105}, {"time": 153962, "pitch": 43, "duration": 110, "velocity": 100}, {"time": 154082, "pitch": 45, "duration": 708, "velocity": 110}, {"time": 154799, "pitch": 52, "duration": 467, "velocity": 110}, {"time": 155276, "pitch": 57, "duration": 231, "velocity": 105}, {"time": 155517, "pitch": 52, "duration": 230, "velocity": 110}, {"time": 155757, "pitch": 45, "duration": 231, "velocity": 100}, {"time": 155998, "pitch": 35, "duration": 231, "velocity": 110}, {"time": 156359, "pitch": 42, "duration": 231, "velocity": 105}, {"time": 156721, "pitch": 47, "duration": 110, "velocity": 100}, {"time": 156961, "pitch": 35, "duration": 231, "velocity": 110}, {"time": 157202, "pitch": 52, "duration": 702, "velocity": 105}, {"time": 157924, "pitch": 31, "duration": 108, "velocity": 110}, {"time": 158042, "pitch": 38, "duration": 108, "velocity": 100}, {"time": 158160, "pitch": 43, "duration": 226, "velocity": 105}, {"time": 158516, "pitch": 43, "duration": 231, "velocity": 110}, {"time": 158757, "pitch": 38, "duration": 110, "velocity": 100}, {"time": 158877, "pitch": 33, "duration": 111, "velocity": 110}, {"time": 158998, "pitch": 40, "duration": 110, "velocity": 100}, {"time": 159118, "pitch": 45, "duration": 231, "velocity": 105}, {"time": 159479, "pitch": 45, "duration": 111, "velocity": 110}, {"time": 159600, "pitch": 40, "duration": 110, "velocity": 105}, {"time": 159720, "pitch": 33, "duration": 110, "velocity": 100}, {"time": 159840, "pitch": 30, "duration": 111, "velocity": 110}, {"time": 159961, "pitch": 37, "duration": 110, "velocity": 100}, {"time": 160081, "pitch": 42, "duration": 231, "velocity": 105}, {"time": 160442, "pitch": 30, "duration": 111, "velocity": 110}, {"time": 160563, "pitch": 33, "duration": 110, "velocity": 100}, {"time": 160683, "pitch": 34, "duration": 111, "velocity": 105}, {"time": 160804, "pitch": 35, "duration": 110, "velocity": 110}, {"time": 160924, "pitch": 42, "duration": 110, "velocity": 100}, {"time": 161044, "pitch": 47, "duration": 231, "velocity": 105}, {"time": 161403, "pitch": 47, "duration": 108, "velocity": 110}, {"time": 161521, "pitch": 42, "duration": 108, "velocity": 105}, {"time": 161639, "pitch": 35, "duration": 108, "velocity": 100}, {"time": 161756, "pitch": 40, "duration": 111, "velocity": 110}, {"time": 161877, "pitch": 35, "duration": 110, "velocity": 100}, {"time": 161997, "pitch": 40, "duration": 231, "velocity": 105}, {"time": 162358, "pitch": 40, "duration": 111, "velocity": 110}, {"time": 162479, "pitch": 35, "duration": 110, "velocity": 100}, {"time": 162599, "pitch": 28, "duration": 110, "velocity": 105}, {"time": 162719, "pitch": 30, "duration": 111, "velocity": 110}, {"time": 162840, "pitch": 37, "duration": 110, "velocity": 100}, {"time": 162960, "pitch": 42, "duration": 231, "velocity": 105}, {"time": 163321, "pitch": 37, "duration": 111, "velocity": 110}, {"time": 163442, "pitch": 42, "duration": 110, "velocity": 105}, {"time": 163562, "pitch": 37, "duration": 111, "velocity": 100}, {"time": 163683, "pitch": 43, "duration": 110, "velocity": 110}, {"time": 163803, "pitch": 38, "duration": 110, "velocity": 100}, {"time": 163923, "pitch": 43, "duration": 231, "velocity": 105}, {"time": 164282, "pitch": 43, "duration": 108, "velocity": 110}, {"time": 164400, "pitch": 38, "duration": 108, "velocity": 100}, {"time": 164518, "pitch": 43, "duration": 108, "velocity": 105}, {"time": 164756, "pitch": 45, "duration": 110, "velocity": 110}, {"time": 164876, "pitch": 40, "duration": 111, "velocity": 100}, {"time": 164997, "pitch": 43, "duration": 110, "velocity": 105}, {"time": 165117, "pitch": 45, "duration": 110, "velocity": 110}, {"time": 165237, "pitch": 40, "duration": 111, "velocity": 105}, {"time": 165358, "pitch": 33, "duration": 110, "velocity": 110}, {"time": 165478, "pitch": 32, "duration": 111, "velocity": 100}, {"time": 165599, "pitch": 31, "duration": 110, "velocity": 110}, {"time": 165719, "pitch": 38, "duration": 110, "velocity": 100}, {"time": 165839, "pitch": 43, "duration": 231, "velocity": 105}, {"time": 166201, "pitch": 43, "duration": 230, "velocity": 110}, {"time": 166441, "pitch": 38, "duration": 111, "velocity": 100}, {"time": 166562, "pitch": 33, "duration": 110, "velocity": 110}, {"time": 166682, "pitch": 40, "duration": 110, "velocity": 100}, {"time": 166803, "pitch": 45, "duration": 230, "velocity": 105}, {"time": 167164, "pitch": 45, "duration": 110, "velocity": 110}, {"time": 167284, "pitch": 40, "duration": 110, "velocity": 105}, {"time": 167404, "pitch": 33, "duration": 111, "velocity": 100}, {"time": 167525, "pitch": 30, "duration": 108, "velocity": 110}, {"time": 167643, "pitch": 37, "duration": 108, "velocity": 100}, {"time": 167760, "pitch": 42, "duration": 226, "velocity": 105}, {"time": 168116, "pitch": 30, "duration": 111, "velocity": 110}, {"time": 168237, "pitch": 33, "duration": 110, "velocity": 100}, {"time": 168357, "pitch": 34, "duration": 111, "velocity": 105}, {"time": 168478, "pitch": 35, "duration": 110, "velocity": 110}, {"time": 168598, "pitch": 42, "duration": 110, "velocity": 100}, {"time": 168718, "pitch": 47, "duration": 231, "velocity": 105}, {"time": 169080, "pitch": 47, "duration": 110, "velocity": 110}, {"time": 169200, "pitch": 42, "duration": 110, "velocity": 105}, {"time": 169320, "pitch": 38, "duration": 111, "velocity": 100}, {"time": 169441, "pitch": 43, "duration": 110, "velocity": 110}, {"time": 169561, "pitch": 38, "duration": 111, "velocity": 100}, {"time": 169682, "pitch": 43, "duration": 230, "velocity": 105}, {"time": 170043, "pitch": 43, "duration": 110, "velocity": 110}, {"time": 170163, "pitch": 38, "duration": 111, "velocity": 100}, {"time": 170284, "pitch": 31, "duration": 110, "velocity": 105}, {"time": 170404, "pitch": 30, "duration": 108, "velocity": 110}, {"time": 170522, "pitch": 37, "duration": 108, "velocity": 100}, {"time": 170640, "pitch": 42, "duration": 225, "velocity": 105}, {"time": 170996, "pitch": 37, "duration": 110, "velocity": 110}, {"time": 171116, "pitch": 42, "duration": 110, "velocity": 105}, {"time": 171236, "pitch": 37, "duration": 111, "velocity": 100}, {"time": 171357, "pitch": 40, "duration": 110, "velocity": 110}, {"time": 171477, "pitch": 35, "duration": 110, "velocity": 100}, {"time": 171597, "pitch": 40, "duration": 231, "velocity": 105}, {"time": 171959, "pitch": 40, "duration": 110, "velocity": 110}, {"time": 172079, "pitch": 35, "duration": 110, "velocity": 100}, {"time": 172199, "pitch": 40, "duration": 111, "velocity": 105}, {"time": 172440, "pitch": 40, "duration": 111, "velocity": 110}, {"time": 172561, "pitch": 35, "duration": 110, "velocity": 100}, {"time": 172681, "pitch": 38, "duration": 110, "velocity": 105}, {"time": 172801, "pitch": 40, "duration": 111, "velocity": 110}, {"time": 172922, "pitch": 47, "duration": 110, "velocity": 105}, {"time": 173042, "pitch": 35, "duration": 111, "velocity": 110}, {"time": 173163, "pitch": 38, "duration": 110, "velocity": 100}, {"time": 173283, "pitch": 31, "duration": 110, "velocity": 110}, {"time": 173403, "pitch": 38, "duration": 111, "velocity": 100}, {"time": 173524, "pitch": 43, "duration": 231, "velocity": 105}, {"time": 173882, "pitch": 43, "duration": 226, "velocity": 110}, {"time": 174118, "pitch": 38, "duration": 108, "velocity": 100}, {"time": 174236, "pitch": 33, "duration": 110, "velocity": 110}, {"time": 174356, "pitch": 40, "duration": 111, "velocity": 100}, {"time": 174477, "pitch": 45, "duration": 230, "velocity": 105}, {"time": 174838, "pitch": 45, "duration": 110, "velocity": 110}, {"time": 174958, "pitch": 40, "duration": 111, "velocity": 105}, {"time": 175079, "pitch": 33, "duration": 110, "velocity": 100}, {"time": 175199, "pitch": 30, "duration": 110, "velocity": 110}, {"time": 175319, "pitch": 37, "duration": 111, "velocity": 100}, {"time": 175440, "pitch": 42, "duration": 231, "velocity": 105}, {"time": 175801, "pitch": 30, "duration": 110, "velocity": 110}, {"time": 175921, "pitch": 33, "duration": 111, "velocity": 100}, {"time": 176042, "pitch": 34, "duration": 110, "velocity": 105}, {"time": 176162, "pitch": 35, "duration": 110, "velocity": 110}, {"time": 176283, "pitch": 42, "duration": 110, "velocity": 100}, {"time": 176403, "pitch": 47, "duration": 231, "velocity": 105}, {"time": 176761, "pitch": 47, "duration": 108, "velocity": 110}, {"time": 176879, "pitch": 42, "duration": 108, "velocity": 105}, {"time": 176997, "pitch": 35, "duration": 108, "velocity": 100}, {"time": 177115, "pitch": 40, "duration": 110, "velocity": 110}, {"time": 177235, "pitch": 35, "duration": 111, "velocity": 100}, {"time": 177356, "pitch": 40, "duration": 230, "velocity": 105}, {"time": 177717, "pitch": 40, "duration": 110, "velocity": 110}, {"time": 177837, "pitch": 35, "duration": 111, "velocity": 100}, {"time": 177958, "pitch": 28, "duration": 110, "velocity": 105}, {"time": 178078, "pitch": 30, "duration": 110, "velocity": 110}, {"time": 178198, "pitch": 37, "duration": 111, "velocity": 100}, {"time": 178319, "pitch": 42, "duration": 231, "velocity": 105}, {"time": 178680, "pitch": 37, "duration": 110, "velocity": 110}, {"time": 178800, "pitch": 42, "duration": 111, "velocity": 105}, {"time": 178921, "pitch": 37, "duration": 110, "velocity": 100}, {"time": 179041, "pitch": 43, "duration": 111, "velocity": 110}, {"time": 179162, "pitch": 38, "duration": 110, "velocity": 100}, {"time": 179282, "pitch": 43, "duration": 231, "velocity": 105}, {"time": 179643, "pitch": 43, "duration": 111, "velocity": 110}, {"time": 179764, "pitch": 38, "duration": 110, "velocity": 100}, {"time": 179884, "pitch": 43, "duration": 110, "velocity": 105}, {"time": 180122, "pitch": 45, "duration": 108, "velocity": 110}, {"time": 180240, "pitch": 40, "duration": 108, "velocity": 100}, {"time": 180358, "pitch": 43, "duration": 108, "velocity": 105}, {"time": 180476, "pitch": 45, "duration": 110, "velocity": 110}, {"time": 180596, "pitch": 40, "duration": 110, "velocity": 105}, {"time": 180716, "pitch": 33, "duration": 111, "velocity": 110}, {"time": 180837, "pitch": 32, "duration": 110, "velocity": 100}, {"time": 180957, "pitch": 31, "duration": 110, "velocity": 110}, {"time": 181077, "pitch": 38, "duration": 111, "velocity": 100}, {"time": 181198, "pitch": 43, "duration": 231, "velocity": 105}, {"time": 181559, "pitch": 43, "duration": 231, "velocity": 110}, {"time": 181800, "pitch": 38, "duration": 110, "velocity": 100}, {"time": 181920, "pitch": 33, "duration": 111, "velocity": 110}, {"time": 182041, "pitch": 40, "duration": 110, "velocity": 100}, {"time": 182161, "pitch": 45, "duration": 231, "velocity": 105}, {"time": 182522, "pitch": 45, "duration": 111, "velocity": 110}, {"time": 182643, "pitch": 40, "duration": 110, "velocity": 105}, {"time": 182763, "pitch": 33, "duration": 110, "velocity": 100}, {"time": 182883, "pitch": 30, "duration": 111, "velocity": 110}, {"time": 183004, "pitch": 37, "duration": 110, "velocity": 100}, {"time": 183124, "pitch": 42, "duration": 231, "velocity": 105}, {"time": 183483, "pitch": 30, "duration": 108, "velocity": 110}, {"time": 183601, "pitch": 33, "duration": 108, "velocity": 100}, {"time": 183718, "pitch": 34, "duration": 108, "velocity": 105}, {"time": 183836, "pitch": 35, "duration": 111, "velocity": 110}, {"time": 183957, "pitch": 42, "duration": 110, "velocity": 100}, {"time": 184077, "pitch": 47, "duration": 231, "velocity": 105}, {"time": 184438, "pitch": 47, "duration": 111, "velocity": 110}, {"time": 184559, "pitch": 42, "duration": 110, "velocity": 105}, {"time": 184679, "pitch": 38, "duration": 110, "velocity": 100}, {"time": 184799, "pitch": 43, "duration": 111, "velocity": 110}, {"time": 184920, "pitch": 38, "duration": 110, "velocity": 100}, {"time": 185040, "pitch": 43, "duration": 231, "velocity": 105}, {"time": 185401, "pitch": 43, "duration": 111, "velocity": 110}, {"time": 185522, "pitch": 38, "duration": 110, "velocity": 100}, {"time": 185642, "pitch": 31, "duration": 110, "velocity": 105}, {"time": 185763, "pitch": 30, "duration": 110, "velocity": 110}, {"time": 185883, "pitch": 37, "duration": 110, "velocity": 100}, {"time": 186003, "pitch": 42, "duration": 231, "velocity": 105}, {"time": 186362, "pitch": 37, "duration": 108, "velocity": 110}, {"time": 186480, "pitch": 42, "duration": 108, "velocity": 105}, {"time": 186598, "pitch": 37, "duration": 108, "velocity": 100}, {"time": 186715, "pitch": 40, "duration": 111, "velocity": 110}, {"time": 186836, "pitch": 35, "duration": 110, "velocity": 100}, {"time": 186956, "pitch": 40, "duration": 231, "velocity": 105}, {"time": 187317, "pitch": 40, "duration": 111, "velocity": 110}, {"time": 187438, "pitch": 35, "duration": 110, "velocity": 100}, {"time": 187558, "pitch": 40, "duration": 110, "velocity": 105}, {"time": 187799, "pitch": 40, "duration": 110, "velocity": 110}, {"time": 187919, "pitch": 35, "duration": 111, "velocity": 100}, {"time": 188040, "pitch": 38, "duration": 110, "velocity": 105}, {"time": 188160, "pitch": 40, "duration": 110, "velocity": 110}, {"time": 188280, "pitch": 47, "duration": 111, "velocity": 105}, {"time": 188401, "pitch": 35, "duration": 110, "velocity": 110}, {"time": 188521, "pitch": 38, "duration": 111, "velocity": 100}, {"time": 188642, "pitch": 40, "duration": 110, "velocity": 110}, {"time": 188762, "pitch": 35, "duration": 110, "velocity": 100}, {"time": 188882, "pitch": 40, "duration": 231, "velocity": 105}, {"time": 189244, "pitch": 40, "duration": 110, "velocity": 110}, {"time": 189364, "pitch": 35, "duration": 110, "velocity": 100}, {"time": 189484, "pitch": 40, "duration": 111, "velocity": 105}, {"time": 189722, "pitch": 40, "duration": 109, "velocity": 110}, {"time": 189840, "pitch": 35, "duration": 108, "velocity": 100}, {"time": 189958, "pitch": 38, "duration": 108, "velocity": 105}, {"time": 190076, "pitch": 40, "duration": 110, "velocity": 110}, {"time": 190196, "pitch": 42, "duration": 111, "velocity": 100}, {"time": 190317, "pitch": 43, "duration": 110, "velocity": 105}, {"time": 190437, "pitch": 45, "duration": 110, "velocity": 100}, {"time": 190557, "pitch": 35, "duration": 352, "velocity": 110}, {"time": 191039, "pitch": 35, "duration": 351, "velocity": 110}, {"time": 191400, "pitch": 33, "duration": 111, "velocity": 100}, {"time": 191521, "pitch": 35, "duration": 110, "velocity": 110}, {"time": 191641, "pitch": 33, "duration": 110, "velocity": 100}, {"time": 191761, "pitch": 35, "duration": 111, "velocity": 105}, {"time": 191882, "pitch": 38, "duration": 351, "velocity": 110}, {"time": 192243, "pitch": 33, "duration": 110, "velocity": 105}, {"time": 192484, "pitch": 35, "duration": 343, "velocity": 110}, {"time": 192955, "pitch": 35, "duration": 351, "velocity": 110}, {"time": 193316, "pitch": 33, "duration": 111, "velocity": 100}, {"time": 193437, "pitch": 35, "duration": 110, "velocity": 110}, {"time": 193557, "pitch": 33, "duration": 110, "velocity": 100}, {"time": 193677, "pitch": 35, "duration": 111, "velocity": 105}, {"time": 193798, "pitch": 38, "duration": 351, "velocity": 110}, {"time": 194159, "pitch": 35, "duration": 110, "velocity": 105}, {"time": 194400, "pitch": 32, "duration": 351, "velocity": 110}, {"time": 194881, "pitch": 32, "duration": 351, "velocity": 110}, {"time": 195243, "pitch": 30, "duration": 110, "velocity": 100}, {"time": 195363, "pitch": 32, "duration": 110, "velocity": 110}, {"time": 195483, "pitch": 30, "duration": 111, "velocity": 100}, {"time": 195604, "pitch": 32, "duration": 110, "velocity": 105}, {"time": 195724, "pitch": 35, "duration": 346, "velocity": 110}, {"time": 196080, "pitch": 30, "duration": 108, "velocity": 105}, {"time": 196316, "pitch": 32, "duration": 351, "velocity": 110}, {"time": 196797, "pitch": 32, "duration": 351, "velocity": 110}, {"time": 197158, "pitch": 30, "duration": 111, "velocity": 100}, {"time": 197279, "pitch": 32, "duration": 110, "velocity": 110}, {"time": 197399, "pitch": 30, "duration": 111, "velocity": 100}, {"time": 197520, "pitch": 32, "duration": 110, "velocity": 105}, {"time": 197640, "pitch": 35, "duration": 351, "velocity": 110}, {"time": 198001, "pitch": 32, "duration": 111, "velocity": 105}, {"time": 198242, "pitch": 31, "duration": 351, "velocity": 110}, {"time": 198724, "pitch": 31, "duration": 351, "velocity": 110}, {"time": 199085, "pitch": 30, "duration": 110, "velocity": 100}, {"time": 199205, "pitch": 31, "duration": 108, "velocity": 110}, {"time": 199323, "pitch": 30, "duration": 108, "velocity": 100}, {"time": 199441, "pitch": 31, "duration": 108, "velocity": 105}, {"time": 199559, "pitch": 35, "duration": 348, "velocity": 110}, {"time": 199917, "pitch": 30, "duration": 110, "velocity": 105}, {"time": 200158, "pitch": 31, "duration": 351, "velocity": 110}, {"time": 200639, "pitch": 31, "duration": 352, "velocity": 110}, {"time": 201001, "pitch": 30, "duration": 110, "velocity": 100}, {"time": 201121, "pitch": 31, "duration": 110, "velocity": 110}, {"time": 201241, "pitch": 30, "duration": 111, "velocity": 100}, {"time": 201362, "pitch": 31, "duration": 110, "velocity": 105}, {"time": 201482, "pitch": 35, "duration": 351, "velocity": 110}, {"time": 201843, "pitch": 31, "duration": 111, "velocity": 105}, {"time": 202084, "pitch": 40, "duration": 344, "velocity": 110}, {"time": 202555, "pitch": 40, "duration": 352, "velocity": 110}, {"time": 202917, "pitch": 35, "duration": 110, "velocity": 100}, {"time": 203037, "pitch": 40, "duration": 110, "velocity": 110}, {"time": 203157, "pitch": 35, "duration": 111, "velocity": 100}, {"time": 203278, "pitch": 40, "duration": 110, "velocity": 105}, {"time": 203398, "pitch": 43, "duration": 351, "velocity": 110}, {"time": 203759, "pitch": 35, "duration": 111, "velocity": 105}, {"time": 204000, "pitch": 42, "duration": 351, "velocity": 110}, {"time": 204482, "pitch": 42, "duration": 351, "velocity": 110}, {"time": 204843, "pitch": 37, "duration": 110, "velocity": 100}, {"time": 204963, "pitch": 30, "duration": 111, "velocity": 110}, {"time": 205084, "pitch": 33, "duration": 110, "velocity": 100}, {"time": 205204, "pitch": 37, "duration": 110, "velocity": 105}, {"time": 205324, "pitch": 42, "duration": 347, "velocity": 110}, {"time": 205680, "pitch": 37, "duration": 108, "velocity": 105}, {"time": 205916, "pitch": 35, "duration": 351, "velocity": 110}, {"time": 206398, "pitch": 35, "duration": 351, "velocity": 110}, {"time": 206759, "pitch": 33, "duration": 110, "velocity": 100}, {"time": 206879, "pitch": 35, "duration": 111, "velocity": 110}, {"time": 207000, "pitch": 33, "duration": 110, "velocity": 100}, {"time": 207120, "pitch": 35, "duration": 110, "velocity": 105}, {"time": 207240, "pitch": 38, "duration": 352, "velocity": 110}, {"time": 207602, "pitch": 33, "duration": 110, "velocity": 105}, {"time": 207842, "pitch": 35, "duration": 352, "velocity": 110}, {"time": 208324, "pitch": 35, "duration": 344, "velocity": 110}, {"time": 208677, "pitch": 33, "duration": 108, "velocity": 100}, {"time": 208795, "pitch": 35, "duration": 110, "velocity": 110}, {"time": 208916, "pitch": 33, "duration": 110, "velocity": 100}, {"time": 209036, "pitch": 35, "duration": 110, "velocity": 105}, {"time": 209156, "pitch": 38, "duration": 351, "velocity": 110}, {"time": 209517, "pitch": 35, "duration": 111, "velocity": 105}, {"time": 209758, "pitch": 32, "duration": 351, "velocity": 110}, {"time": 210240, "pitch": 32, "duration": 351, "velocity": 110}, {"time": 210601, "pitch": 30, "duration": 110, "velocity": 100}, {"time": 210721, "pitch": 32, "duration": 111, "velocity": 110}, {"time": 210842, "pitch": 30, "duration": 110, "velocity": 100}, {"time": 210962, "pitch": 32, "duration": 111, "velocity": 105}, {"time": 211083, "pitch": 35, "duration": 351, "velocity": 110}, {"time": 211444, "pitch": 30, "duration": 110, "velocity": 105}, {"time": 211685, "pitch": 32, "duration": 343, "velocity": 110}, {"time": 212156, "pitch": 32, "duration": 351, "velocity": 110}, {"time": 212517, "pitch": 30, "duration": 110, "velocity": 100}, {"time": 212637, "pitch": 32, "duration": 111, "velocity": 110}, {"time": 212758, "pitch": 30, "duration": 110, "velocity": 100}, {"time": 212878, "pitch": 32, "duration": 111, "velocity": 105}, {"time": 212999, "pitch": 35, "duration": 351, "velocity": 110}, {"time": 213360, "pitch": 32, "duration": 110, "velocity": 105}, {"time": 213601, "pitch": 31, "duration": 351, "velocity": 110}, {"time": 214082, "pitch": 31, "duration": 351, "velocity": 110}, {"time": 214443, "pitch": 30, "duration": 111, "velocity": 100}, {"time": 214564, "pitch": 31, "duration": 108, "velocity": 110}, {"time": 214681, "pitch": 30, "duration": 108, "velocity": 100}, {"time": 214799, "pitch": 31, "duration": 108, "velocity": 105}, {"time": 214917, "pitch": 35, "duration": 349, "velocity": 110}, {"time": 215276, "pitch": 30, "duration": 110, "velocity": 105}, {"time": 215516, "pitch": 31, "duration": 352, "velocity": 110}, {"time": 215998, "pitch": 31, "duration": 351, "velocity": 110}, {"time": 216359, "pitch": 30, "duration": 111, "velocity": 100}, {"time": 216480, "pitch": 31, "duration": 110, "velocity": 110}, {"time": 216600, "pitch": 30, "duration": 110, "velocity": 100}, {"time": 216720, "pitch": 31, "duration": 111, "velocity": 105}, {"time": 216841, "pitch": 35, "duration": 351, "velocity": 110}, {"time": 217202, "pitch": 31, "duration": 110, "velocity": 105}, {"time": 217443, "pitch": 40, "duration": 351, "velocity": 110}, {"time": 217924, "pitch": 40, "duration": 344, "velocity": 110}, {"time": 218278, "pitch": 35, "duration": 108, "velocity": 100}, {"time": 218396, "pitch": 40, "duration": 110, "velocity": 110}, {"time": 218516, "pitch": 35, "duration": 110, "velocity": 100}, {"time": 218636, "pitch": 40, "duration": 111, "velocity": 105}, {"time": 218757, "pitch": 43, "duration": 351, "velocity": 110}, {"time": 219118, "pitch": 35, "duration": 110, "velocity": 105}, {"time": 219359, "pitch": 42, "duration": 351, "velocity": 110}, {"time": 219840, "pitch": 42, "duration": 351, "velocity": 110}, {"time": 220201, "pitch": 37, "duration": 111, "velocity": 100}, {"time": 220322, "pitch": 30, "duration": 110, "velocity": 110}, {"time": 220442, "pitch": 33, "duration": 111, "velocity": 100}, {"time": 220563, "pitch": 37, "duration": 110, "velocity": 105}, {"time": 220683, "pitch": 42, "duration": 351, "velocity": 110}, {"time": 221044, "pitch": 37, "duration": 111, "velocity": 105}, {"time": 235921, "pitch": 52, "duration": 703, "velocity": 105}, {"time": 236644, "pitch": 31, "duration": 110, "velocity": 110}, {"time": 236764, "pitch": 38, "duration": 110, "velocity": 100}, {"time": 236884, "pitch": 43, "duration": 231, "velocity": 105}, {"time": 237243, "pitch": 43, "duration": 226, "velocity": 110}, {"time": 237479, "pitch": 38, "duration": 108, "velocity": 100}, {"time": 237596, "pitch": 33, "duration": 111, "velocity": 110}, {"time": 237717, "pitch": 40, "duration": 110, "velocity": 100}, {"time": 237837, "pitch": 45, "duration": 231, "velocity": 105}, {"time": 238198, "pitch": 45, "duration": 111, "velocity": 110}, {"time": 238319, "pitch": 40, "duration": 110, "velocity": 105}, {"time": 238439, "pitch": 33, "duration": 110, "velocity": 100}, {"time": 238559, "pitch": 30, "duration": 111, "velocity": 110}, {"time": 238680, "pitch": 37, "duration": 110, "velocity": 100}, {"time": 238800, "pitch": 42, "duration": 231, "velocity": 105}, {"time": 239161, "pitch": 30, "duration": 111, "velocity": 110}, {"time": 239282, "pitch": 33, "duration": 110, "velocity": 100}, {"time": 239402, "pitch": 34, "duration": 111, "velocity": 105}, {"time": 239523, "pitch": 35, "duration": 110, "velocity": 110}, {"time": 239643, "pitch": 42, "duration": 110, "velocity": 100}, {"time": 239763, "pitch": 47, "duration": 231, "velocity": 105}, {"time": 240122, "pitch": 47, "duration": 108, "velocity": 110}, {"time": 240240, "pitch": 42, "duration": 108, "velocity": 105}, {"time": 240358, "pitch": 35, "duration": 108, "velocity": 100}, {"time": 240475, "pitch": 40, "duration": 111, "velocity": 110}, {"time": 240596, "pitch": 35, "duration": 110, "velocity": 100}, {"time": 240716, "pitch": 40, "duration": 231, "velocity": 105}, {"time": 241077, "pitch": 40, "duration": 111, "velocity": 110}, {"time": 241198, "pitch": 35, "duration": 110, "velocity": 100}, {"time": 241318, "pitch": 28, "duration": 111, "velocity": 105}, {"time": 241439, "pitch": 30, "duration": 110, "velocity": 110}, {"time": 241559, "pitch": 37, "duration": 110, "velocity": 100}, {"time": 241679, "pitch": 42, "duration": 231, "velocity": 105}, {"time": 242041, "pitch": 37, "duration": 110, "velocity": 110}, {"time": 242161, "pitch": 42, "duration": 110, "velocity": 105}, {"time": 242281, "pitch": 37, "duration": 111, "velocity": 100}, {"time": 242402, "pitch": 43, "duration": 110, "velocity": 110}, {"time": 242522, "pitch": 38, "duration": 110, "velocity": 100}, {"time": 242643, "pitch": 43, "duration": 230, "velocity": 105}, {"time": 243004, "pitch": 43, "duration": 110, "velocity": 110}, {"time": 243124, "pitch": 38, "duration": 110, "velocity": 100}, {"time": 243244, "pitch": 43, "duration": 111, "velocity": 105}, {"time": 243483, "pitch": 45, "duration": 108, "velocity": 110}, {"time": 243600, "pitch": 40, "duration": 108, "velocity": 100}, {"time": 243718, "pitch": 43, "duration": 108, "velocity": 105}, {"time": 243836, "pitch": 45, "duration": 110, "velocity": 110}, {"time": 243956, "pitch": 40, "duration": 111, "velocity": 105}, {"time": 244077, "pitch": 33, "duration": 110, "velocity": 110}, {"time": 244197, "pitch": 32, "duration": 111, "velocity": 100}, {"time": 244318, "pitch": 31, "duration": 110, "velocity": 110}, {"time": 244438, "pitch": 38, "duration": 110, "velocity": 100}, {"time": 244558, "pitch": 43, "duration": 231, "velocity": 105}, {"time": 244920, "pitch": 43, "duration": 230, "velocity": 110}, {"time": 245160, "pitch": 38, "duration": 111, "velocity": 100}, {"time": 245281, "pitch": 33, "duration": 110, "velocity": 110}, {"time": 245401, "pitch": 40, "duration": 111, "velocity": 100}, {"time": 245522, "pitch": 45, "duration": 230, "velocity": 105}, {"time": 245883, "pitch": 45, "duration": 110, "velocity": 110}, {"time": 246003, "pitch": 40, "duration": 111, "velocity": 105}, {"time": 246124, "pitch": 33, "duration": 110, "velocity": 100}, {"time": 246244, "pitch": 30, "duration": 108, "velocity": 110}, {"time": 246362, "pitch": 37, "duration": 108, "velocity": 100}, {"time": 246480, "pitch": 42, "duration": 225, "velocity": 105}, {"time": 246836, "pitch": 30, "duration": 110, "velocity": 110}, {"time": 246956, "pitch": 33, "duration": 110, "velocity": 100}, {"time": 247076, "pitch": 34, "duration": 111, "velocity": 105}, {"time": 247197, "pitch": 35, "duration": 110, "velocity": 110}, {"time": 247317, "pitch": 42, "duration": 110, "velocity": 100}, {"time": 247437, "pitch": 47, "duration": 231, "velocity": 105}, {"time": 247799, "pitch": 47, "duration": 110, "velocity": 110}, {"time": 247919, "pitch": 42, "duration": 110, "velocity": 105}, {"time": 248039, "pitch": 38, "duration": 111, "velocity": 100}, {"time": 248160, "pitch": 43, "duration": 110, "velocity": 110}, {"time": 248280, "pitch": 38, "duration": 111, "velocity": 100}, {"time": 248401, "pitch": 43, "duration": 230, "velocity": 105}, {"time": 248762, "pitch": 43, "duration": 110, "velocity": 110}, {"time": 248882, "pitch": 38, "duration": 111, "velocity": 100}, {"time": 249003, "pitch": 31, "duration": 110, "velocity": 105}, {"time": 249123, "pitch": 30, "duration": 110, "velocity": 110}, {"time": 249243, "pitch": 37, "duration": 111, "velocity": 100}, {"time": 249364, "pitch": 42, "duration": 231, "velocity": 105}, {"time": 249722, "pitch": 37, "duration": 108, "velocity": 110}, {"time": 249840, "pitch": 42, "duration": 108, "velocity": 105}, {"time": 249958, "pitch": 37, "duration": 108, "velocity": 100}, {"time": 250076, "pitch": 40, "duration": 110, "velocity": 110}, {"time": 250196, "pitch": 35, "duration": 111, "velocity": 100}, {"time": 250317, "pitch": 40, "duration": 230, "velocity": 105}, {"time": 250678, "pitch": 40, "duration": 110, "velocity": 110}, {"time": 250798, "pitch": 35, "duration": 111, "velocity": 100}, {"time": 250919, "pitch": 40, "duration": 110, "velocity": 105}, {"time": 251159, "pitch": 40, "duration": 111, "velocity": 110}, {"time": 251280, "pitch": 35, "duration": 110, "velocity": 100}, {"time": 251400, "pitch": 38, "duration": 111, "velocity": 105}, {"time": 251521, "pitch": 40, "duration": 110, "velocity": 110}, {"time": 251641, "pitch": 47, "duration": 110, "velocity": 105}, {"time": 251761, "pitch": 35, "duration": 111, "velocity": 110}, {"time": 251882, "pitch": 38, "duration": 110, "velocity": 100}, {"time": 252002, "pitch": 31, "duration": 110, "velocity": 110}, {"time": 252123, "pitch": 38, "duration": 110, "velocity": 100}, {"time": 252243, "pitch": 43, "duration": 231, "velocity": 105}, {"time": 252601, "pitch": 43, "duration": 226, "velocity": 110}, {"time": 252837, "pitch": 38, "duration": 108, "velocity": 100}, {"time": 252955, "pitch": 33, "duration": 110, "velocity": 110}, {"time": 253075, "pitch": 40, "duration": 111, "velocity": 100}, {"time": 253196, "pitch": 45, "duration": 230, "velocity": 105}, {"time": 253557, "pitch": 45, "duration": 110, "velocity": 110}, {"time": 253677, "pitch": 40, "duration": 111, "velocity": 105}, {"time": 253798, "pitch": 33, "duration": 110, "velocity": 100}, {"time": 253918, "pitch": 30, "duration": 110, "velocity": 110}, {"time": 254038, "pitch": 37, "duration": 111, "velocity": 100}, {"time": 254159, "pitch": 42, "duration": 231, "velocity": 105}, {"time": 254520, "pitch": 30, "duration": 110, "velocity": 110}, {"time": 254640, "pitch": 33, "duration": 111, "velocity": 100}, {"time": 254761, "pitch": 34, "duration": 110, "velocity": 105}, {"time": 254881, "pitch": 35, "duration": 111, "velocity": 110}, {"time": 255002, "pitch": 42, "duration": 110, "velocity": 100}, {"time": 255122, "pitch": 47, "duration": 231, "velocity": 105}, {"time": 255483, "pitch": 47, "duration": 111, "velocity": 110}, {"time": 255604, "pitch": 42, "duration": 110, "velocity": 105}, {"time": 255724, "pitch": 35, "duration": 110, "velocity": 100}, {"time": 255844, "pitch": 40, "duration": 108, "velocity": 110}, {"time": 255962, "pitch": 35, "duration": 108, "velocity": 100}, {"time": 256080, "pitch": 40, "duration": 226, "velocity": 105}, {"time": 256436, "pitch": 40, "duration": 110, "velocity": 110}, {"time": 256556, "pitch": 35, "duration": 111, "velocity": 100}, {"time": 256677, "pitch": 28, "duration": 110, "velocity": 105}, {"time": 256797, "pitch": 30, "duration": 110, "velocity": 110}, {"time": 256917, "pitch": 37, "duration": 111, "velocity": 100}, {"time": 257038, "pitch": 42, "duration": 231, "velocity": 105}, {"time": 257399, "pitch": 37, "duration": 110, "velocity": 110}, {"time": 257519, "pitch": 42, "duration": 111, "velocity": 105}, {"time": 257640, "pitch": 37, "duration": 110, "velocity": 100}, {"time": 257760, "pitch": 43, "duration": 111, "velocity": 110}, {"time": 257881, "pitch": 38, "duration": 110, "velocity": 100}, {"time": 258001, "pitch": 43, "duration": 231, "velocity": 105}, {"time": 258362, "pitch": 43, "duration": 111, "velocity": 110}, {"time": 258483, "pitch": 38, "duration": 110, "velocity": 100}, {"time": 258603, "pitch": 43, "duration": 110, "velocity": 105}, {"time": 258844, "pitch": 45, "duration": 110, "velocity": 110}, {"time": 258964, "pitch": 40, "duration": 111, "velocity": 100}, {"time": 259085, "pitch": 43, "duration": 110, "velocity": 105}, {"time": 259205, "pitch": 45, "duration": 108, "velocity": 110}, {"time": 259323, "pitch": 40, "duration": 108, "velocity": 105}, {"time": 259441, "pitch": 33, "duration": 108, "velocity": 110}, {"time": 259558, "pitch": 32, "duration": 108, "velocity": 100}, {"time": 259676, "pitch": 31, "duration": 111, "velocity": 110}, {"time": 259797, "pitch": 38, "duration": 110, "velocity": 100}, {"time": 259917, "pitch": 43, "duration": 231, "velocity": 105}, {"time": 260278, "pitch": 43, "duration": 231, "velocity": 110}, {"time": 260519, "pitch": 38, "duration": 110, "velocity": 100}, {"time": 260639, "pitch": 33, "duration": 111, "velocity": 110}, {"time": 260760, "pitch": 40, "duration": 110, "velocity": 100}, {"time": 260880, "pitch": 45, "duration": 231, "velocity": 105}, {"time": 261241, "pitch": 45, "duration": 111, "velocity": 110}, {"time": 261362, "pitch": 40, "duration": 110, "velocity": 105}, {"time": 261482, "pitch": 33, "duration": 110, "velocity": 100}, {"time": 261603, "pitch": 30, "duration": 110, "velocity": 110}, {"time": 261723, "pitch": 37, "duration": 110, "velocity": 100}, {"time": 261843, "pitch": 42, "duration": 231, "velocity": 105}, {"time": 262202, "pitch": 30, "duration": 108, "velocity": 110}, {"time": 262320, "pitch": 33, "duration": 108, "velocity": 100}, {"time": 262438, "pitch": 34, "duration": 108, "velocity": 105}, {"time": 262555, "pitch": 35, "duration": 111, "velocity": 110}, {"time": 262676, "pitch": 42, "duration": 110, "velocity": 100}, {"time": 262796, "pitch": 47, "duration": 231, "velocity": 105}, {"time": 263157, "pitch": 47, "duration": 111, "velocity": 110}, {"time": 263278, "pitch": 42, "duration": 110, "velocity": 105}, {"time": 263398, "pitch": 38, "duration": 110, "velocity": 100}, {"time": 263518, "pitch": 43, "duration": 111, "velocity": 110}, {"time": 263639, "pitch": 38, "duration": 110, "velocity": 100}, {"time": 263759, "pitch": 43, "duration": 231, "velocity": 105}, {"time": 264120, "pitch": 43, "duration": 111, "velocity": 110}, {"time": 264241, "pitch": 38, "duration": 110, "velocity": 100}, {"time": 264361, "pitch": 31, "duration": 111, "velocity": 105}, {"time": 264482, "pitch": 30, "duration": 110, "velocity": 110}, {"time": 264602, "pitch": 37, "duration": 110, "velocity": 100}, {"time": 264722, "pitch": 42, "duration": 231, "velocity": 105}, {"time": 265084, "pitch": 37, "duration": 110, "velocity": 110}, {"time": 265204, "pitch": 42, "duration": 110, "velocity": 105}, {"time": 265324, "pitch": 37, "duration": 111, "velocity": 100}, {"time": 265445, "pitch": 40, "duration": 108, "velocity": 110}, {"time": 265562, "pitch": 35, "duration": 109, "velocity": 100}, {"time": 265680, "pitch": 40, "duration": 226, "velocity": 105}, {"time": 266036, "pitch": 40, "duration": 111, "velocity": 110}, {"time": 266157, "pitch": 35, "duration": 110, "velocity": 100}, {"time": 266277, "pitch": 40, "duration": 110, "velocity": 105}, {"time": 266518, "pitch": 40, "duration": 110, "velocity": 110}, {"time": 266638, "pitch": 35, "duration": 111, "velocity": 100}, {"time": 266759, "pitch": 38, "duration": 110, "velocity": 105}, {"time": 266879, "pitch": 40, "duration": 110, "velocity": 110}, {"time": 266999, "pitch": 47, "duration": 111, "velocity": 105}, {"time": 267120, "pitch": 35, "duration": 110, "velocity": 110}, {"time": 267240, "pitch": 38, "duration": 111, "velocity": 100}, {"time": 267361, "pitch": 31, "duration": 110, "velocity": 110}, {"time": 267481, "pitch": 38, "duration": 110, "velocity": 100}, {"time": 267601, "pitch": 43, "duration": 231, "velocity": 105}, {"time": 267963, "pitch": 43, "duration": 230, "velocity": 110}, {"time": 268203, "pitch": 38, "duration": 111, "velocity": 100}, {"time": 268324, "pitch": 33, "duration": 108, "velocity": 110}, {"time": 268442, "pitch": 40, "duration": 108, "velocity": 100}, {"time": 268559, "pitch": 45, "duration": 226, "velocity": 105}, {"time": 268915, "pitch": 45, "duration": 111, "velocity": 110}, {"time": 269036, "pitch": 40, "duration": 110, "velocity": 105}, {"time": 269156, "pitch": 33, "duration": 111, "velocity": 100}, {"time": 269277, "pitch": 30, "duration": 110, "velocity": 110}, {"time": 269397, "pitch": 37, "duration": 110, "velocity": 100}, {"time": 269517, "pitch": 42, "duration": 231, "velocity": 105}, {"time": 269879, "pitch": 30, "duration": 110, "velocity": 110}, {"time": 269999, "pitch": 33, "duration": 110, "velocity": 100}, {"time": 270119, "pitch": 34, "duration": 111, "velocity": 105}, {"time": 270240, "pitch": 35, "duration": 110, "velocity": 110}, {"time": 270360, "pitch": 42, "duration": 111, "velocity": 100}, {"time": 270481, "pitch": 47, "duration": 230, "velocity": 105}, {"time": 270842, "pitch": 47, "duration": 110, "velocity": 110}, {"time": 270962, "pitch": 42, "duration": 110, "velocity": 105}, {"time": 271083, "pitch": 35, "duration": 110, "velocity": 100}, {"time": 271203, "pitch": 40, "duration": 110, "velocity": 110}, {"time": 271323, "pitch": 35, "duration": 111, "velocity": 100}, {"time": 271444, "pitch": 40, "duration": 230, "velocity": 105}, {"time": 271802, "pitch": 40, "duration": 108, "velocity": 110}, {"time": 271920, "pitch": 35, "duration": 108, "velocity": 100}, {"time": 272038, "pitch": 28, "duration": 108, "velocity": 105}, {"time": 272156, "pitch": 30, "duration": 110, "velocity": 110}, {"time": 272276, "pitch": 37, "duration": 110, "velocity": 100}, {"time": 272396, "pitch": 42, "duration": 231, "velocity": 105}, {"time": 272758, "pitch": 37, "duration": 110, "velocity": 110}, {"time": 272878, "pitch": 42, "duration": 110, "velocity": 105}, {"time": 272998, "pitch": 37, "duration": 111, "velocity": 100}, {"time": 273119, "pitch": 43, "duration": 110, "velocity": 110}, {"time": 273239, "pitch": 38, "duration": 111, "velocity": 100}, {"time": 273360, "pitch": 43, "duration": 230, "velocity": 105}, {"time": 273721, "pitch": 43, "duration": 110, "velocity": 110}, {"time": 273841, "pitch": 38, "duration": 111, "velocity": 100}, {"time": 273962, "pitch": 43, "duration": 110, "velocity": 105}, {"time": 274202, "pitch": 45, "duration": 111, "velocity": 110}, {"time": 274323, "pitch": 40, "duration": 110, "velocity": 100}, {"time": 274443, "pitch": 43, "duration": 111, "velocity": 105}, {"time": 274564, "pitch": 45, "duration": 110, "velocity": 110}, {"time": 274684, "pitch": 40, "duration": 110, "velocity": 105}, {"time": 274804, "pitch": 33, "duration": 111, "velocity": 110}, {"time": 274925, "pitch": 32, "duration": 110, "velocity": 100}, {"time": 275045, "pitch": 31, "duration": 108, "velocity": 110}, {"time": 275163, "pitch": 38, "duration": 108, "velocity": 100}, {"time": 275281, "pitch": 43, "duration": 226, "velocity": 105}, {"time": 275637, "pitch": 43, "duration": 230, "velocity": 110}, {"time": 275877, "pitch": 38, "duration": 111, "velocity": 100}, {"time": 275998, "pitch": 33, "duration": 110, "velocity": 110}, {"time": 276118, "pitch": 40, "duration": 111, "velocity": 100}, {"time": 276239, "pitch": 45, "duration": 230, "velocity": 105}, {"time": 276600, "pitch": 45, "duration": 110, "velocity": 110}, {"time": 276720, "pitch": 40, "duration": 111, "velocity": 105}, {"time": 276841, "pitch": 33, "duration": 110, "velocity": 100}, {"time": 276961, "pitch": 30, "duration": 110, "velocity": 110}, {"time": 277081, "pitch": 37, "duration": 111, "velocity": 100}, {"time": 277202, "pitch": 42, "duration": 231, "velocity": 105}, {"time": 277563, "pitch": 30, "duration": 110, "velocity": 110}, {"time": 277683, "pitch": 33, "duration": 111, "velocity": 100}, {"time": 277804, "pitch": 34, "duration": 110, "velocity": 105}, {"time": 277924, "pitch": 35, "duration": 108, "velocity": 110}, {"time": 278042, "pitch": 42, "duration": 108, "velocity": 100}, {"time": 278160, "pitch": 47, "duration": 226, "velocity": 105}, {"time": 278516, "pitch": 47, "duration": 110, "velocity": 110}, {"time": 278636, "pitch": 42, "duration": 111, "velocity": 105}, {"time": 278757, "pitch": 38, "duration": 110, "velocity": 100}, {"time": 278877, "pitch": 43, "duration": 110, "velocity": 110}, {"time": 278997, "pitch": 38, "duration": 111, "velocity": 100}, {"time": 279118, "pitch": 43, "duration": 231, "velocity": 105}, {"time": 279479, "pitch": 43, "duration": 110, "velocity": 110}, {"time": 279599, "pitch": 38, "duration": 111, "velocity": 100}, {"time": 279720, "pitch": 31, "duration": 110, "velocity": 105}, {"time": 279840, "pitch": 30, "duration": 111, "velocity": 110}, {"time": 279961, "pitch": 37, "duration": 110, "velocity": 100}, {"time": 280081, "pitch": 42, "duration": 231, "velocity": 105}, {"time": 280442, "pitch": 37, "duration": 110, "velocity": 110}, {"time": 280563, "pitch": 42, "duration": 110, "velocity": 105}, {"time": 280683, "pitch": 37, "duration": 110, "velocity": 100}, {"time": 280803, "pitch": 40, "duration": 111, "velocity": 110}, {"time": 280924, "pitch": 35, "duration": 110, "velocity": 100}, {"time": 281044, "pitch": 40, "duration": 231, "velocity": 105}, {"time": 281403, "pitch": 40, "duration": 108, "velocity": 110}, {"time": 281520, "pitch": 35, "duration": 108, "velocity": 100}, {"time": 281638, "pitch": 40, "duration": 108, "velocity": 105}, {"time": 281876, "pitch": 40, "duration": 111, "velocity": 110}, {"time": 281997, "pitch": 35, "duration": 110, "velocity": 100}, {"time": 282117, "pitch": 38, "duration": 111, "velocity": 105}, {"time": 282238, "pitch": 40, "duration": 110, "velocity": 110}, {"time": 282358, "pitch": 47, "duration": 110, "velocity": 105}, {"time": 282478, "pitch": 35, "duration": 111, "velocity": 110}, {"time": 282599, "pitch": 38, "duration": 110, "velocity": 100}, {"time": 282719, "pitch": 31, "duration": 111, "velocity": 110}, {"time": 282840, "pitch": 38, "duration": 110, "velocity": 100}, {"time": 282960, "pitch": 43, "duration": 231, "velocity": 105}, {"time": 283321, "pitch": 43, "duration": 231, "velocity": 110}, {"time": 283562, "pitch": 38, "duration": 110, "velocity": 100}, {"time": 283682, "pitch": 33, "duration": 111, "velocity": 110}, {"time": 283803, "pitch": 40, "duration": 110, "velocity": 100}, {"time": 283923, "pitch": 45, "duration": 231, "velocity": 105}, {"time": 284282, "pitch": 45, "duration": 108, "velocity": 110}, {"time": 284400, "pitch": 40, "duration": 108, "velocity": 105}, {"time": 284517, "pitch": 33, "duration": 108, "velocity": 100}, {"time": 284635, "pitch": 30, "duration": 110, "velocity": 110}, {"time": 284756, "pitch": 37, "duration": 110, "velocity": 100}, {"time": 284876, "pitch": 42, "duration": 231, "velocity": 105}, {"time": 285237, "pitch": 30, "duration": 110, "velocity": 110}, {"time": 285357, "pitch": 33, "duration": 111, "velocity": 100}, {"time": 285478, "pitch": 34, "duration": 110, "velocity": 105}, {"time": 285598, "pitch": 35, "duration": 111, "velocity": 110}, {"time": 285719, "pitch": 42, "duration": 110, "velocity": 100}, {"time": 285839, "pitch": 47, "duration": 231, "velocity": 105}, {"time": 286200, "pitch": 47, "duration": 111, "velocity": 110}, {"time": 286321, "pitch": 42, "duration": 110, "velocity": 105}, {"time": 286441, "pitch": 35, "duration": 110, "velocity": 100}, {"time": 286561, "pitch": 40, "duration": 111, "velocity": 110}, {"time": 286682, "pitch": 35, "duration": 110, "velocity": 100}, {"time": 286802, "pitch": 40, "duration": 231, "velocity": 105}, {"time": 287163, "pitch": 40, "duration": 111, "velocity": 110}, {"time": 287284, "pitch": 35, "duration": 110, "velocity": 100}, {"time": 287404, "pitch": 28, "duration": 111, "velocity": 105}, {"time": 287525, "pitch": 30, "duration": 108, "velocity": 110}, {"time": 287642, "pitch": 37, "duration": 108, "velocity": 100}, {"time": 287760, "pitch": 42, "duration": 226, "velocity": 105}, {"time": 288116, "pitch": 37, "duration": 111, "velocity": 110}, {"time": 288237, "pitch": 42, "duration": 110, "velocity": 105}, {"time": 288357, "pitch": 37, "duration": 110, "velocity": 100}, {"time": 288477, "pitch": 43, "duration": 111, "velocity": 110}, {"time": 288598, "pitch": 38, "duration": 110, "velocity": 100}, {"time": 288718, "pitch": 43, "duration": 231, "velocity": 105}, {"time": 289079, "pitch": 43, "duration": 111, "velocity": 110}, {"time": 289200, "pitch": 38, "duration": 110, "velocity": 100}, {"time": 289320, "pitch": 43, "duration": 111, "velocity": 105}, {"time": 289561, "pitch": 45, "duration": 110, "velocity": 110}, {"time": 289681, "pitch": 40, "duration": 111, "velocity": 100}, {"time": 289802, "pitch": 43, "duration": 110, "velocity": 105}, {"time": 289922, "pitch": 45, "duration": 110, "velocity": 110}, {"time": 290043, "pitch": 40, "duration": 110, "velocity": 105}, {"time": 290163, "pitch": 33, "duration": 110, "velocity": 110}, {"time": 290283, "pitch": 32, "duration": 111, "velocity": 100}, {"time": 290404, "pitch": 31, "duration": 108, "velocity": 110}, {"time": 290521, "pitch": 38, "duration": 108, "velocity": 100}, {"time": 290639, "pitch": 43, "duration": 226, "velocity": 105}, {"time": 290995, "pitch": 43, "duration": 231, "velocity": 110}, {"time": 291236, "pitch": 38, "duration": 110, "velocity": 100}, {"time": 291356, "pitch": 33, "duration": 111, "velocity": 110}, {"time": 291477, "pitch": 40, "duration": 110, "velocity": 100}, {"time": 291597, "pitch": 45, "duration": 231, "velocity": 105}, {"time": 291958, "pitch": 45, "duration": 111, "velocity": 110}, {"time": 292079, "pitch": 40, "duration": 110, "velocity": 105}, {"time": 292199, "pitch": 33, "duration": 111, "velocity": 100}, {"time": 292320, "pitch": 30, "duration": 110, "velocity": 110}, {"time": 292440, "pitch": 37, "duration": 110, "velocity": 100}, {"time": 292560, "pitch": 42, "duration": 231, "velocity": 105}, {"time": 292922, "pitch": 30, "duration": 110, "velocity": 110}, {"time": 293042, "pitch": 33, "duration": 110, "velocity": 100}, {"time": 293162, "pitch": 34, "duration": 111, "velocity": 105}, {"time": 293283, "pitch": 35, "duration": 110, "velocity": 110}, {"time": 293403, "pitch": 42, "duration": 111, "velocity": 100}, {"time": 293524, "pitch": 47, "duration": 230, "velocity": 105}, {"time": 293885, "pitch": 47, "duration": 110, "velocity": 110}, {"time": 294005, "pitch": 42, "duration": 111, "velocity": 105}, {"time": 294126, "pitch": 38, "duration": 110, "velocity": 100}, {"time": 294246, "pitch": 43, "duration": 110, "velocity": 110}, {"time": 294366, "pitch": 38, "duration": 111, "velocity": 100}, {"time": 294487, "pitch": 43, "duration": 231, "velocity": 105}, {"time": 294848, "pitch": 43, "duration": 110, "velocity": 110}, {"time": 294968, "pitch": 38, "duration": 111, "velocity": 100}, {"time": 295089, "pitch": 31, "duration": 110, "velocity": 105}, {"time": 295209, "pitch": 30, "duration": 110, "velocity": 110}, {"time": 295330, "pitch": 37, "duration": 110, "velocity": 100}, {"time": 295450, "pitch": 42, "duration": 231, "velocity": 105}, {"time": 295811, "pitch": 37, "duration": 110, "velocity": 110}, {"time": 295932, "pitch": 42, "duration": 110, "velocity": 105}, {"time": 296052, "pitch": 37, "duration": 110, "velocity": 100}, {"time": 296172, "pitch": 40, "duration": 111, "velocity": 110}, {"time": 296293, "pitch": 35, "duration": 110, "velocity": 100}, {"time": 296413, "pitch": 40, "duration": 231, "velocity": 105}, {"time": 296774, "pitch": 40, "duration": 111, "velocity": 110}, {"time": 296895, "pitch": 35, "duration": 110, "velocity": 100}, {"time": 297015, "pitch": 40, "duration": 110, "velocity": 105}, {"time": 297256, "pitch": 40, "duration": 110, "velocity": 110}, {"time": 297376, "pitch": 35, "duration": 111, "velocity": 100}, {"time": 297497, "pitch": 38, "duration": 110, "velocity": 105}, {"time": 297617, "pitch": 40, "duration": 110, "velocity": 110}, {"time": 297737, "pitch": 47, "duration": 111, "velocity": 105}, {"time": 297858, "pitch": 35, "duration": 110, "velocity": 110}, {"time": 297978, "pitch": 38, "duration": 111, "velocity": 100}, {"time": 15845, "pitch": 66, "duration": 343, "velocity": 100}, {"time": 16316, "pitch": 66, "duration": 351, "velocity": 95}, {"time": 16798, "pitch": 66, "duration": 481, "velocity": 100}, {"time": 17279, "pitch": 64, "duration": 231, "velocity": 95}, {"time": 17520, "pitch": 62, "duration": 231, "velocity": 90}, {"time": 17761, "pitch": 61, "duration": 231, "velocity": 100}, {"time": 18002, "pitch": 61, "duration": 230, "velocity": 95}, {"time": 18242, "pitch": 62, "duration": 231, "velocity": 100}, {"time": 18483, "pitch": 59, "duration": 516, "velocity": 95}, {"time": 23519, "pitch": 66, "duration": 351, "velocity": 100}, {"time": 24001, "pitch": 66, "duration": 351, "velocity": 95}, {"time": 24482, "pitch": 66, "duration": 482, "velocity": 100}, {"time": 24964, "pitch": 64, "duration": 225, "velocity": 95}, {"time": 25199, "pitch": 62, "duration": 226, "velocity": 90}, {"time": 25435, "pitch": 61, "duration": 231, "velocity": 100}, {"time": 25676, "pitch": 61, "duration": 230, "velocity": 95}, {"time": 25916, "pitch": 62, "duration": 231, "velocity": 100}, {"time": 26157, "pitch": 59, "duration": 522, "velocity": 95}, {"time": 79195, "pitch": 67, "duration": 712, "velocity": 100}, {"time": 80158, "pitch": 67, "duration": 231, "velocity": 100}, {"time": 80399, "pitch": 66, "duration": 231, "velocity": 95}, {"time": 80640, "pitch": 64, "duration": 230, "velocity": 90}, {"time": 80881, "pitch": 67, "duration": 230, "velocity": 95}, {"time": 81121, "pitch": 66, "duration": 713, "velocity": 100}, {"time": 81844, "pitch": 62, "duration": 110, "velocity": 90}, {"time": 82084, "pitch": 62, "duration": 702, "velocity": 100}, {"time": 82796, "pitch": 66, "duration": 231, "velocity": 95}, {"time": 83037, "pitch": 64, "duration": 472, "velocity": 100}, {"time": 83519, "pitch": 62, "duration": 231, "velocity": 95}, {"time": 83760, "pitch": 61, "duration": 1675, "velocity": 100}, {"time": 85916, "pitch": 61, "duration": 231, "velocity": 100}, {"time": 86157, "pitch": 62, "duration": 231, "velocity": 95}, {"time": 86398, "pitch": 64, "duration": 231, "velocity": 100}, {"time": 86639, "pitch": 61, "duration": 230, "velocity": 90}, {"time": 86879, "pitch": 67, "duration": 713, "velocity": 100}, {"time": 87843, "pitch": 67, "duration": 230, "velocity": 100}, {"time": 88083, "pitch": 66, "duration": 231, "velocity": 95}, {"time": 88324, "pitch": 64, "duration": 226, "velocity": 100}, {"time": 88560, "pitch": 67, "duration": 226, "velocity": 90}, {"time": 88795, "pitch": 66, "duration": 713, "velocity": 100}, {"time": 89518, "pitch": 62, "duration": 110, "velocity": 90}, {"time": 89759, "pitch": 62, "duration": 712, "velocity": 100}, {"time": 90481, "pitch": 66, "duration": 231, "velocity": 95}, {"time": 90722, "pitch": 64, "duration": 592, "velocity": 100}, {"time": 91444, "pitch": 64, "duration": 110, "velocity": 95}, {"time": 91564, "pitch": 66, "duration": 111, "velocity": 90}, {"time": 91685, "pitch": 67, "duration": 461, "velocity": 100}, {"time": 92397, "pitch": 61, "duration": 110, "velocity": 95}, {"time": 92517, "pitch": 63, "duration": 111, "velocity": 90}, {"time": 92638, "pitch": 64, "duration": 230, "velocity": 100}, {"time": 92999, "pitch": 64, "duration": 231, "velocity": 100}, {"time": 93360, "pitch": 63, "duration": 110, "velocity": 95}, {"time": 93601, "pitch": 63, "duration": 231, "velocity": 100}, {"time": 94564, "pitch": 66, "duration": 344, "velocity": 100}, {"time": 95035, "pitch": 66, "duration": 351, "velocity": 95}, {"time": 95517, "pitch": 66, "duration": 481, "velocity": 100}, {"time": 95998, "pitch": 64, "duration": 231, "velocity": 95}, {"time": 96239, "pitch": 62, "duration": 231, "velocity": 90}, {"time": 96480, "pitch": 61, "duration": 231, "velocity": 100}, {"time": 96721, "pitch": 61, "duration": 230, "velocity": 95}, {"time": 96961, "pitch": 62, "duration": 231, "velocity": 100}, {"time": 97202, "pitch": 59, "duration": 522, "velocity": 95}, {"time": 102238, "pitch": 66, "duration": 351, "velocity": 100}, {"time": 102720, "pitch": 66, "duration": 351, "velocity": 95}, {"time": 103201, "pitch": 66, "duration": 482, "velocity": 100}, {"time": 103683, "pitch": 64, "duration": 231, "velocity": 95}, {"time": 103924, "pitch": 62, "duration": 230, "velocity": 90}, {"time": 104164, "pitch": 61, "duration": 226, "velocity": 100}, {"time": 104400, "pitch": 61, "duration": 226, "velocity": 95}, {"time": 104636, "pitch": 62, "duration": 230, "velocity": 100}, {"time": 104876, "pitch": 59, "duration": 522, "velocity": 95}, {"time": 142556, "pitch": 67, "duration": 712, "velocity": 100}, {"time": 143519, "pitch": 67, "duration": 230, "velocity": 100}, {"time": 143759, "pitch": 66, "duration": 231, "velocity": 95}, {"time": 144000, "pitch": 64, "duration": 231, "velocity": 100}, {"time": 144241, "pitch": 67, "duration": 231, "velocity": 90}, {"time": 144482, "pitch": 66, "duration": 712, "velocity": 100}, {"time": 145204, "pitch": 62, "duration": 111, "velocity": 90}, {"time": 145445, "pitch": 62, "duration": 702, "velocity": 100}, {"time": 146157, "pitch": 66, "duration": 231, "velocity": 95}, {"time": 146398, "pitch": 64, "duration": 471, "velocity": 100}, {"time": 146879, "pitch": 62, "duration": 231, "velocity": 95}, {"time": 147120, "pitch": 61, "duration": 1666, "velocity": 100}, {"time": 149277, "pitch": 61, "duration": 231, "velocity": 100}, {"time": 149518, "pitch": 62, "duration": 230, "velocity": 95}, {"time": 149758, "pitch": 64, "duration": 231, "velocity": 100}, {"time": 149999, "pitch": 61, "duration": 231, "velocity": 90}, {"time": 150240, "pitch": 67, "duration": 712, "velocity": 100}, {"time": 151203, "pitch": 67, "duration": 231, "velocity": 100}, {"time": 151444, "pitch": 66, "duration": 231, "velocity": 95}, {"time": 151685, "pitch": 64, "duration": 226, "velocity": 100}, {"time": 151920, "pitch": 67, "duration": 226, "velocity": 90}, {"time": 152156, "pitch": 66, "duration": 712, "velocity": 100}, {"time": 152878, "pitch": 62, "duration": 111, "velocity": 90}, {"time": 153119, "pitch": 62, "duration": 712, "velocity": 100}, {"time": 153841, "pitch": 66, "duration": 231, "velocity": 95}, {"time": 154082, "pitch": 64, "duration": 590, "velocity": 100}, {"time": 154799, "pitch": 64, "duration": 108, "velocity": 95}, {"time": 154917, "pitch": 66, "duration": 108, "velocity": 90}, {"time": 155035, "pitch": 67, "duration": 472, "velocity": 100}, {"time": 155757, "pitch": 61, "duration": 111, "velocity": 95}, {"time": 155878, "pitch": 63, "duration": 110, "velocity": 90}, {"time": 155998, "pitch": 64, "duration": 231, "velocity": 100}, {"time": 156359, "pitch": 64, "duration": 231, "velocity": 100}, {"time": 156721, "pitch": 63, "duration": 110, "velocity": 95}, {"time": 156961, "pitch": 63, "duration": 231, "velocity": 100}, {"time": 157924, "pitch": 66, "duration": 344, "velocity": 100}, {"time": 158396, "pitch": 66, "duration": 351, "velocity": 95}, {"time": 158877, "pitch": 66, "duration": 482, "velocity": 100}, {"time": 159359, "pitch": 64, "duration": 231, "velocity": 95}, {"time": 159600, "pitch": 62, "duration": 230, "velocity": 90}, {"time": 159840, "pitch": 61, "duration": 231, "velocity": 100}, {"time": 160081, "pitch": 61, "duration": 231, "velocity": 95}, {"time": 160322, "pitch": 62, "duration": 231, "velocity": 100}, {"time": 160563, "pitch": 59, "duration": 521, "velocity": 95}, {"time": 165599, "pitch": 66, "duration": 351, "velocity": 100}, {"time": 166080, "pitch": 66, "duration": 351, "velocity": 95}, {"time": 166562, "pitch": 66, "duration": 481, "velocity": 100}, {"time": 167043, "pitch": 64, "duration": 231, "velocity": 95}, {"time": 167284, "pitch": 62, "duration": 231, "velocity": 90}, {"time": 167525, "pitch": 61, "duration": 226, "velocity": 100}, {"time": 167760, "pitch": 61, "duration": 226, "velocity": 95}, {"time": 167996, "pitch": 62, "duration": 231, "velocity": 100}, {"time": 168237, "pitch": 59, "duration": 522, "velocity": 95}, {"time": 169441, "pitch": 66, "duration": 351, "velocity": 100}, {"time": 169922, "pitch": 66, "duration": 352, "velocity": 95}, {"time": 170404, "pitch": 66, "duration": 471, "velocity": 100}, {"time": 170875, "pitch": 64, "duration": 231, "velocity": 95}, {"time": 171116, "pitch": 62, "duration": 231, "velocity": 90}, {"time": 171357, "pitch": 61, "duration": 230, "velocity": 100}, {"time": 171597, "pitch": 61, "duration": 231, "velocity": 95}, {"time": 171838, "pitch": 62, "duration": 231, "velocity": 100}, {"time": 172079, "pitch": 59, "duration": 522, "velocity": 95}, {"time": 177115, "pitch": 66, "duration": 351, "velocity": 100}, {"time": 177596, "pitch": 66, "duration": 352, "velocity": 95}, {"time": 178078, "pitch": 66, "duration": 482, "velocity": 100}, {"time": 178560, "pitch": 64, "duration": 230, "velocity": 95}, {"time": 178800, "pitch": 62, "duration": 231, "velocity": 90}, {"time": 179041, "pitch": 61, "duration": 231, "velocity": 100}, {"time": 179282, "pitch": 61, "duration": 231, "velocity": 95}, {"time": 179523, "pitch": 62, "duration": 231, "velocity": 100}, {"time": 179764, "pitch": 59, "duration": 515, "velocity": 95}, {"time": 220322, "pitch": 81, "duration": 943, "velocity": 110}, {"time": 221285, "pitch": 66, "duration": 344, "velocity": 100}, {"time": 221756, "pitch": 66, "duration": 351, "velocity": 95}, {"time": 222238, "pitch": 66, "duration": 481, "velocity": 100}, {"time": 222719, "pitch": 64, "duration": 231, "velocity": 95}, {"time": 222960, "pitch": 62, "duration": 231, "velocity": 90}, {"time": 223201, "pitch": 61, "duration": 231, "velocity": 100}, {"time": 223442, "pitch": 61, "duration": 230, "velocity": 95}, {"time": 223683, "pitch": 62, "duration": 230, "velocity": 100}, {"time": 223923, "pitch": 59, "duration": 516, "velocity": 95}, {"time": 228959, "pitch": 66, "duration": 351, "velocity": 100}, {"time": 229441, "pitch": 66, "duration": 351, "velocity": 95}, {"time": 229922, "pitch": 66, "duration": 482, "velocity": 100}, {"time": 230404, "pitch": 64, "duration": 226, "velocity": 95}, {"time": 230639, "pitch": 62, "duration": 226, "velocity": 90}, {"time": 230875, "pitch": 61, "duration": 231, "velocity": 100}, {"time": 231116, "pitch": 61, "duration": 231, "velocity": 95}, {"time": 231357, "pitch": 62, "duration": 230, "velocity": 100}, {"time": 231597, "pitch": 59, "duration": 522, "velocity": 95}, {"time": 236644, "pitch": 66, "duration": 351, "velocity": 100}, {"time": 237125, "pitch": 66, "duration": 344, "velocity": 95}, {"time": 237596, "pitch": 66, "duration": 482, "velocity": 100}, {"time": 238078, "pitch": 64, "duration": 231, "velocity": 95}, {"time": 238319, "pitch": 62, "duration": 230, "velocity": 90}, {"time": 238559, "pitch": 61, "duration": 231, "velocity": 100}, {"time": 238800, "pitch": 61, "duration": 231, "velocity": 95}, {"time": 239041, "pitch": 62, "duration": 231, "velocity": 100}, {"time": 239282, "pitch": 59, "duration": 522, "velocity": 95}, {"time": 244318, "pitch": 66, "duration": 351, "velocity": 100}, {"time": 244799, "pitch": 66, "duration": 351, "velocity": 95}, {"time": 245281, "pitch": 66, "duration": 481, "velocity": 100}, {"time": 245762, "pitch": 64, "duration": 231, "velocity": 95}, {"time": 246003, "pitch": 62, "duration": 231, "velocity": 90}, {"time": 246244, "pitch": 61, "duration": 226, "velocity": 100}, {"time": 246480, "pitch": 61, "duration": 225, "velocity": 95}, {"time": 246715, "pitch": 62, "duration": 231, "velocity": 100}, {"time": 246956, "pitch": 59, "duration": 522, "velocity": 95}, {"time": 66716, "pitch": 59, "duration": 120, "velocity": 100}, {"time": 66716, "pitch": 64, "duration": 120, "velocity": 105}, {"time": 66726, "pitch": 67, "duration": 110, "velocity": 110}, {"time": 66836, "pitch": 64, "duration": 100, "velocity": 95}, {"time": 66836, "pitch": 67, "duration": 100, "velocity": 100}, {"time": 66846, "pitch": 59, "duration": 100, "velocity": 90}, {"time": 67077, "pitch": 64, "duration": 120, "velocity": 100}, {"time": 67077, "pitch": 67, "duration": 120, "velocity": 105}, {"time": 67087, "pitch": 59, "duration": 110, "velocity": 95}, {"time": 67197, "pitch": 59, "duration": 462, "velocity": 100}, {"time": 67197, "pitch": 64, "duration": 462, "velocity": 105}, {"time": 67207, "pitch": 67, "duration": 462, "velocity": 110}, {"time": 70558, "pitch": 59, "duration": 120, "velocity": 100}, {"time": 70558, "pitch": 64, "duration": 120, "velocity": 105}, {"time": 70568, "pitch": 67, "duration": 110, "velocity": 110}, {"time": 70678, "pitch": 64, "duration": 100, "velocity": 95}, {"time": 70678, "pitch": 67, "duration": 100, "velocity": 100}, {"time": 70688, "pitch": 59, "duration": 101, "velocity": 90}, {"time": 70919, "pitch": 64, "duration": 120, "velocity": 100}, {"time": 70919, "pitch": 67, "duration": 120, "velocity": 105}, {"time": 70929, "pitch": 59, "duration": 110, "velocity": 95}, {"time": 71039, "pitch": 59, "duration": 462, "velocity": 100}, {"time": 71039, "pitch": 64, "duration": 462, "velocity": 105}, {"time": 71049, "pitch": 67, "duration": 462, "velocity": 110}, {"time": 74400, "pitch": 60, "duration": 120, "velocity": 100}, {"time": 74400, "pitch": 64, "duration": 120, "velocity": 105}, {"time": 74410, "pitch": 67, "duration": 110, "velocity": 110}, {"time": 74520, "pitch": 64, "duration": 101, "velocity": 95}, {"time": 74520, "pitch": 67, "duration": 101, "velocity": 100}, {"time": 74530, "pitch": 60, "duration": 101, "velocity": 90}, {"time": 74761, "pitch": 64, "duration": 121, "velocity": 100}, {"time": 74761, "pitch": 67, "duration": 121, "velocity": 105}, {"time": 74771, "pitch": 60, "duration": 111, "velocity": 95}, {"time": 74882, "pitch": 60, "duration": 240, "velocity": 100}, {"time": 74882, "pitch": 64, "duration": 240, "velocity": 105}, {"time": 74892, "pitch": 67, "duration": 230, "velocity": 110}, {"time": 75122, "pitch": 66, "duration": 121, "velocity": 100}, {"time": 75243, "pitch": 67, "duration": 100, "velocity": 105}, {"time": 130076, "pitch": 59, "duration": 120, "velocity": 100}, {"time": 130076, "pitch": 64, "duration": 120, "velocity": 105}, {"time": 130086, "pitch": 67, "duration": 110, "velocity": 110}, {"time": 130196, "pitch": 64, "duration": 101, "velocity": 95}, {"time": 130196, "pitch": 67, "duration": 101, "velocity": 100}, {"time": 130206, "pitch": 59, "duration": 101, "velocity": 90}, {"time": 130437, "pitch": 64, "duration": 121, "velocity": 100}, {"time": 130437, "pitch": 67, "duration": 121, "velocity": 105}, {"time": 130447, "pitch": 59, "duration": 111, "velocity": 95}, {"time": 130558, "pitch": 59, "duration": 461, "velocity": 100}, {"time": 130558, "pitch": 64, "duration": 461, "velocity": 105}, {"time": 130568, "pitch": 67, "duration": 461, "velocity": 110}, {"time": 133918, "pitch": 59, "duration": 121, "velocity": 100}, {"time": 133918, "pitch": 64, "duration": 121, "velocity": 105}, {"time": 133928, "pitch": 67, "duration": 111, "velocity": 110}, {"time": 134039, "pitch": 64, "duration": 100, "velocity": 95}, {"time": 134039, "pitch": 67, "duration": 100, "velocity": 100}, {"time": 134049, "pitch": 59, "duration": 100, "velocity": 90}, {"time": 134279, "pitch": 64, "duration": 121, "velocity": 100}, {"time": 134279, "pitch": 67, "duration": 121, "velocity": 105}, {"time": 134290, "pitch": 59, "duration": 110, "velocity": 95}, {"time": 134400, "pitch": 59, "duration": 461, "velocity": 100}, {"time": 134400, "pitch": 64, "duration": 461, "velocity": 105}, {"time": 134410, "pitch": 67, "duration": 461, "velocity": 110}, {"time": 137761, "pitch": 60, "duration": 120, "velocity": 100}, {"time": 137761, "pitch": 64, "duration": 120, "velocity": 105}, {"time": 137771, "pitch": 67, "duration": 110, "velocity": 110}, {"time": 137881, "pitch": 64, "duration": 100, "velocity": 95}, {"time": 137881, "pitch": 67, "duration": 100, "velocity": 100}, {"time": 137891, "pitch": 60, "duration": 100, "velocity": 90}, {"time": 138122, "pitch": 64, "duration": 120, "velocity": 100}, {"time": 138122, "pitch": 67, "duration": 120, "velocity": 105}, {"time": 138132, "pitch": 60, "duration": 110, "velocity": 95}, {"time": 138242, "pitch": 60, "duration": 241, "velocity": 100}, {"time": 138242, "pitch": 64, "duration": 241, "velocity": 105}, {"time": 138252, "pitch": 67, "duration": 231, "velocity": 110}, {"time": 138483, "pitch": 66, "duration": 120, "velocity": 100}, {"time": 138603, "pitch": 67, "duration": 101, "velocity": 105}, {"time": 190557, "pitch": 66, "duration": 1064, "velocity": 110}, {"time": 191761, "pitch": 66, "duration": 281, "velocity": 105}, {"time": 192123, "pitch": 66, "duration": 281, "velocity": 100}, {"time": 192484, "pitch": 66, "duration": 275, "velocity": 105}, {"time": 192837, "pitch": 66, "duration": 279, "velocity": 105}, {"time": 193196, "pitch": 66, "duration": 221, "velocity": 100}, {"time": 193437, "pitch": 66, "duration": 280, "velocity": 105}, {"time": 193798, "pitch": 66, "duration": 281, "velocity": 105}, {"time": 194159, "pitch": 66, "duration": 221, "velocity": 100}, {"time": 194400, "pitch": 64, "duration": 481, "velocity": 110}, {"time": 194881, "pitch": 59, "duration": 723, "velocity": 110}, {"time": 195604, "pitch": 59, "duration": 240, "velocity": 100}, {"time": 195844, "pitch": 62, "duration": 236, "velocity": 105}, {"time": 195854, "pitch": 66, "duration": 226, "velocity": 90}, {"time": 196080, "pitch": 59, "duration": 1430, "velocity": 110}, {"time": 197520, "pitch": 66, "duration": 240, "velocity": 100}, {"time": 197760, "pitch": 71, "duration": 241, "velocity": 110}, {"time": 198001, "pitch": 66, "duration": 241, "velocity": 105}, {"time": 198242, "pitch": 73, "duration": 241, "velocity": 110}, {"time": 198483, "pitch": 73, "duration": 10, "velocity": 100}, {"time": 198603, "pitch": 73, "duration": 241, "velocity": 105}, {"time": 198844, "pitch": 73, "duration": 10, "velocity": 95}, {"time": 198964, "pitch": 73, "duration": 693, "velocity": 110}, {"time": 199676, "pitch": 71, "duration": 482, "velocity": 105}, {"time": 200158, "pitch": 69, "duration": 481, "velocity": 110}, {"time": 200639, "pitch": 66, "duration": 482, "velocity": 105}, {"time": 201121, "pitch": 66, "duration": 241, "velocity": 110}, {"time": 201362, "pitch": 65, "duration": 120, "velocity": 105}, {"time": 201482, "pitch": 64, "duration": 121, "velocity": 95}, {"time": 201603, "pitch": 62, "duration": 230, "velocity": 110}, {"time": 201843, "pitch": 66, "duration": 477, "velocity": 105}, {"time": 202320, "pitch": 74, "duration": 235, "velocity": 110}, {"time": 202555, "pitch": 69, "duration": 241, "velocity": 105}, {"time": 202796, "pitch": 69, "duration": 231, "velocity": 100}, {"time": 203037, "pitch": 76, "duration": 482, "velocity": 110}, {"time": 203519, "pitch": 71, "duration": 160, "velocity": 100}, {"time": 203759, "pitch": 71, "duration": 723, "velocity": 110}, {"time": 204482, "pitch": 61, "duration": 241, "velocity": 85}, {"time": 204723, "pitch": 67, "duration": 240, "velocity": 95}, {"time": 204963, "pitch": 71, "duration": 101, "velocity": 100}, {"time": 205204, "pitch": 71, "duration": 120, "velocity": 90}, {"time": 205324, "pitch": 81, "duration": 415, "velocity": 110}, {"time": 205759, "pitch": 78, "duration": 147, "velocity": 100}, {"time": 206036, "pitch": 77, "duration": 101, "velocity": 105}, {"time": 206277, "pitch": 76, "duration": 361, "velocity": 110}, {"time": 206638, "pitch": 74, "duration": 101, "velocity": 100}, {"time": 206759, "pitch": 78, "duration": 140, "velocity": 110}, {"time": 207000, "pitch": 74, "duration": 341, "velocity": 105}, {"time": 207361, "pitch": 78, "duration": 963, "velocity": 110}, {"time": 208324, "pitch": 74, "duration": 236, "velocity": 105}, {"time": 208560, "pitch": 71, "duration": 117, "velocity": 100}, {"time": 208677, "pitch": 74, "duration": 961, "velocity": 110}, {"time": 209758, "pitch": 74, "duration": 221, "velocity": 100}, {"time": 210079, "pitch": 78, "duration": 241, "velocity": 105}, {"time": 210400, "pitch": 78, "duration": 241, "velocity": 110}, {"time": 210721, "pitch": 78, "duration": 241, "velocity": 104}, {"time": 211043, "pitch": 78, "duration": 240, "velocity": 107}, {"time": 211364, "pitch": 74, "duration": 792, "velocity": 110}, {"time": 212156, "pitch": 74, "duration": 160, "velocity": 105}, {"time": 212397, "pitch": 74, "duration": 762, "velocity": 110}, {"time": 213239, "pitch": 69, "duration": 111, "velocity": 105}, {"time": 213360, "pitch": 71, "duration": 722, "velocity": 110}, {"time": 214082, "pitch": 71, "duration": 121, "velocity": 105}, {"time": 214203, "pitch": 66, "duration": 240, "velocity": 110}, {"time": 214443, "pitch": 74, "duration": 121, "velocity": 100}, {"time": 214564, "pitch": 71, "duration": 117, "velocity": 95}, {"time": 214681, "pitch": 71, "duration": 236, "velocity": 105}, {"time": 214917, "pitch": 69, "duration": 118, "velocity": 100}, {"time": 215035, "pitch": 71, "duration": 241, "velocity": 110}, {"time": 215276, "pitch": 69, "duration": 120, "velocity": 100}, {"time": 215396, "pitch": 68, "duration": 120, "velocity": 105}, {"time": 215516, "pitch": 65, "duration": 241, "velocity": 110}, {"time": 215757, "pitch": 65, "duration": 241, "velocity": 105}, {"time": 215998, "pitch": 64, "duration": 120, "velocity": 100}, {"time": 216118, "pitch": 62, "duration": 352, "velocity": 105}, {"time": 216480, "pitch": 66, "duration": 361, "velocity": 110}, {"time": 216841, "pitch": 69, "duration": 100, "velocity": 100}, {"time": 216961, "pitch": 73, "duration": 161, "velocity": 105}, {"time": 217122, "pitch": 76, "duration": 200, "velocity": 110}, {"time": 217322, "pitch": 74, "duration": 121, "velocity": 100}, {"time": 217443, "pitch": 73, "duration": 361, "velocity": 110}, {"time": 217804, "pitch": 71, "duration": 120, "velocity": 100}, {"time": 217924, "pitch": 73, "duration": 236, "velocity": 110}, {"time": 218160, "pitch": 71, "duration": 118, "velocity": 105}, {"time": 218278, "pitch": 68, "duration": 118, "velocity": 95}, {"time": 218396, "pitch": 66, "duration": 120, "velocity": 100}, {"time": 218516, "pitch": 66, "duration": 241, "velocity": 105}, {"time": 218757, "pitch": 69, "duration": 120, "velocity": 100}, {"time": 218877, "pitch": 68, "duration": 120, "velocity": 105}, {"time": 218997, "pitch": 66, "duration": 121, "velocity": 100}, {"time": 219118, "pitch": 62, "duration": 241, "velocity": 105}, {"time": 219359, "pitch": 68, "duration": 240, "velocity": 110}, {"time": 219599, "pitch": 68, "duration": 121, "velocity": 100}, {"time": 219720, "pitch": 71, "duration": 241, "velocity": 105}, {"time": 219961, "pitch": 76, "duration": 240, "velocity": 110}, {"time": 220201, "pitch": 71, "duration": 121, "velocity": 100}, {"time": 251280, "pitch": 81, "duration": 481, "velocity": 110}, {"time": 251761, "pitch": 79, "duration": 241, "velocity": 100}, {"time": 252002, "pitch": 78, "duration": 241, "velocity": 110}, {"time": 252243, "pitch": 78, "duration": 476, "velocity": 105}, {"time": 252719, "pitch": 76, "duration": 717, "velocity": 110}, {"time": 253436, "pitch": 76, "duration": 241, "velocity": 105}, {"time": 253677, "pitch": 74, "duration": 843, "velocity": 110}, {"time": 254640, "pitch": 73, "duration": 482, "velocity": 110}, {"time": 255122, "pitch": 71, "duration": 241, "velocity": 100}, {"time": 255363, "pitch": 73, "duration": 241, "velocity": 110}, {"time": 255604, "pitch": 69, "duration": 240, "velocity": 105}, {"time": 255844, "pitch": 69, "duration": 472, "velocity": 110}, {"time": 256316, "pitch": 71, "duration": 240, "velocity": 105}, {"time": 256556, "pitch": 71, "duration": 20, "velocity": 95}, {"time": 256797, "pitch": 64, "duration": 482, "velocity": 110}, {"time": 257279, "pitch": 64, "duration": 240, "velocity": 105}, {"time": 257519, "pitch": 62, "duration": 482, "velocity": 110}, {"time": 258001, "pitch": 59, "duration": 241, "velocity": 105}, {"time": 258242, "pitch": 62, "duration": 241, "velocity": 100}, {"time": 258483, "pitch": 66, "duration": 240, "velocity": 105}, {"time": 258723, "pitch": 69, "duration": 241, "velocity": 110}, {"time": 258964, "pitch": 69, "duration": 241, "velocity": 105}, {"time": 259205, "pitch": 74, "duration": 236, "velocity": 110}, {"time": 259441, "pitch": 76, "duration": 235, "velocity": 105}, {"time": 259676, "pitch": 78, "duration": 241, "velocity": 110}, {"time": 259917, "pitch": 81, "duration": 241, "velocity": 100}, {"time": 260158, "pitch": 83, "duration": 241, "velocity": 105}, {"time": 260399, "pitch": 81, "duration": 943, "velocity": 110}, {"time": 261362, "pitch": 78, "duration": 481, "velocity": 110}, {"time": 261843, "pitch": 81, "duration": 241, "velocity": 105}, {"time": 262084, "pitch": 83, "duration": 236, "velocity": 100}, {"time": 262320, "pitch": 83, "duration": 717, "velocity": 90}, {"time": 263037, "pitch": 83, "duration": 241, "velocity": 105}, {"time": 263278, "pitch": 81, "duration": 1916, "velocity": 110}, {"time": 265204, "pitch": 78, "duration": 221, "velocity": 100}, {"time": 265445, "pitch": 71, "duration": 692, "velocity": 105}, {"time": 266157, "pitch": 71, "duration": 712, "velocity": 110}, {"time": 266879, "pitch": 69, "duration": 231, "velocity": 105}, {"time": 267120, "pitch": 71, "duration": 231, "velocity": 100}, {"time": 267361, "pitch": 71, "duration": 220, "velocity": 110}, {"time": 267601, "pitch": 71, "duration": 101, "velocity": 105}, {"time": 267722, "pitch": 71, "duration": 241, "velocity": 110}, {"time": 268043, "pitch": 71, "duration": 120, "velocity": 105}, {"time": 268183, "pitch": 69, "duration": 121, "velocity": 100}, {"time": 268324, "pitch": 73, "duration": 245, "velocity": 105}, {"time": 268579, "pitch": 74, "duration": 1179, "velocity": 110}, {"time": 269758, "pitch": 69, "duration": 161, "velocity": 105}, {"time": 269919, "pitch": 71, "duration": 160, "velocity": 110}, {"time": 270079, "pitch": 66, "duration": 161, "velocity": 100}, {"time": 270240, "pitch": 69, "duration": 120, "velocity": 105}, {"time": 270360, "pitch": 66, "duration": 121, "velocity": 95}, {"time": 270481, "pitch": 66, "duration": 240, "velocity": 105}, {"time": 270721, "pitch": 65, "duration": 121, "velocity": 100}, {"time": 270842, "pitch": 65, "duration": 241, "velocity": 105}, {"time": 271083, "pitch": 62, "duration": 481, "velocity": 110}, {"time": 271564, "pitch": 66, "duration": 120, "velocity": 95}, {"time": 271684, "pitch": 68, "duration": 462, "velocity": 105}, {"time": 272156, "pitch": 62, "duration": 230, "velocity": 100}, {"time": 272396, "pitch": 57, "duration": 231, "velocity": 90}, {"time": 272637, "pitch": 59, "duration": 241, "velocity": 100}, {"time": 272878, "pitch": 62, "duration": 241, "velocity": 105}, {"time": 273119, "pitch": 66, "duration": 241, "velocity": 110}, {"time": 273360, "pitch": 69, "duration": 120, "velocity": 105}, {"time": 273480, "pitch": 71, "duration": 120, "velocity": 100}, {"time": 273600, "pitch": 74, "duration": 241, "velocity": 105}, {"time": 273841, "pitch": 69, "duration": 241, "velocity": 100}, {"time": 274082, "pitch": 78, "duration": 722, "velocity": 110}, {"time": 274804, "pitch": 69, "duration": 241, "velocity": 100}, {"time": 275045, "pitch": 71, "duration": 236, "velocity": 105}, {"time": 275281, "pitch": 81, "duration": 476, "velocity": 110}, {"time": 275757, "pitch": 78, "duration": 151, "velocity": 105}, {"time": 275908, "pitch": 77, "duration": 160, "velocity": 100}, {"time": 276068, "pitch": 76, "duration": 291, "velocity": 110}, {"time": 276359, "pitch": 74, "duration": 120, "velocity": 100}, {"time": 276479, "pitch": 76, "duration": 241, "velocity": 105}, {"time": 276720, "pitch": 71, "duration": 241, "velocity": 100}, {"time": 276961, "pitch": 74, "duration": 241, "velocity": 105}, {"time": 277202, "pitch": 74, "duration": 10, "velocity": 95}, {"time": 277322, "pitch": 74, "duration": 602, "velocity": 110}, {"time": 277924, "pitch": 74, "duration": 692, "velocity": 110}, {"time": 278636, "pitch": 71, "duration": 241, "velocity": 100}, {"time": 278877, "pitch": 74, "duration": 150, "velocity": 105}, {"time": 279037, "pitch": 78, "duration": 161, "velocity": 110}, {"time": 279198, "pitch": 81, "duration": 151, "velocity": 100}, {"time": 279359, "pitch": 79, "duration": 200, "velocity": 110}, {"time": 279559, "pitch": 78, "duration": 101, "velocity": 105}, {"time": 279660, "pitch": 77, "duration": 90, "velocity": 100}, {"time": 279750, "pitch": 76, "duration": 90, "velocity": 95}, {"time": 279840, "pitch": 75, "duration": 201, "velocity": 110}, {"time": 280041, "pitch": 74, "duration": 70, "velocity": 100}, {"time": 280151, "pitch": 78, "duration": 111, "velocity": 105}, {"time": 280262, "pitch": 74, "duration": 180, "velocity": 110}, {"time": 280442, "pitch": 73, "duration": 70, "velocity": 100}, {"time": 280552, "pitch": 76, "duration": 101, "velocity": 105}, {"time": 280653, "pitch": 71, "duration": 150, "velocity": 100}, {"time": 280803, "pitch": 74, "duration": 241, "velocity": 105}, {"time": 281044, "pitch": 71, "duration": 231, "velocity": 100}, {"time": 281285, "pitch": 73, "duration": 461, "velocity": 105}, {"time": 281756, "pitch": 71, "duration": 120, "velocity": 110}, {"time": 281876, "pitch": 69, "duration": 121, "velocity": 105}, {"time": 281997, "pitch": 67, "duration": 120, "velocity": 110}, {"time": 282117, "pitch": 66, "duration": 121, "velocity": 100}, {"time": 282238, "pitch": 69, "duration": 120, "velocity": 110}, {"time": 282358, "pitch": 67, "duration": 120, "velocity": 105}, {"time": 282478, "pitch": 66, "duration": 121, "velocity": 110}, {"time": 282599, "pitch": 64, "duration": 120, "velocity": 100}, {"time": 282719, "pitch": 66, "duration": 241, "velocity": 110}, {"time": 282960, "pitch": 66, "duration": 241, "velocity": 105}, {"time": 283201, "pitch": 61, "duration": 241, "velocity": 100}, {"time": 283442, "pitch": 62, "duration": 160, "velocity": 105}, {"time": 283602, "pitch": 61, "duration": 80, "velocity": 95}, {"time": 283682, "pitch": 61, "duration": 241, "velocity": 110}, {"time": 283923, "pitch": 59, "duration": 121, "velocity": 95}, {"time": 284044, "pitch": 61, "duration": 120, "velocity": 100}, {"time": 284164, "pitch": 59, "duration": 118, "velocity": 110}, {"time": 284282, "pitch": 61, "duration": 118, "velocity": 100}, {"time": 284400, "pitch": 62, "duration": 117, "velocity": 105}, {"time": 284517, "pitch": 64, "duration": 118, "velocity": 100}, {"time": 284635, "pitch": 66, "duration": 482, "velocity": 110}, {"time": 285117, "pitch": 71, "duration": 120, "velocity": 105}, {"time": 285237, "pitch": 74, "duration": 120, "velocity": 100}, {"time": 285357, "pitch": 74, "duration": 11, "velocity": 95}, {"time": 285478, "pitch": 78, "duration": 823, "velocity": 110}, {"time": 286321, "pitch": 74, "duration": 230, "velocity": 105}, {"time": 286802, "pitch": 76, "duration": 723, "velocity": 110}, {"time": 287525, "pitch": 69, "duration": 225, "velocity": 105}, {"time": 287760, "pitch": 71, "duration": 697, "velocity": 110}, {"time": 288477, "pitch": 66, "duration": 231, "velocity": 105}, {"time": 288718, "pitch": 71, "duration": 241, "velocity": 110}, {"time": 288959, "pitch": 66, "duration": 231, "velocity": 100}, {"time": 289200, "pitch": 73, "duration": 231, "velocity": 105}, {"time": 289441, "pitch": 73, "duration": 481, "velocity": 110}, {"time": 289922, "pitch": 68, "duration": 241, "velocity": 105}, {"time": 290163, "pitch": 71, "duration": 241, "velocity": 100}, {"time": 290404, "pitch": 71, "duration": 235, "velocity": 105}, {"time": 290639, "pitch": 69, "duration": 597, "velocity": 110}, {"time": 291236, "pitch": 66, "duration": 120, "velocity": 100}, {"time": 291356, "pitch": 69, "duration": 241, "velocity": 105}, {"time": 291597, "pitch": 69, "duration": 482, "velocity": 110}, {"time": 292079, "pitch": 66, "duration": 241, "velocity": 100}, {"time": 292320, "pitch": 69, "duration": 240, "velocity": 105}, {"time": 292560, "pitch": 69, "duration": 482, "velocity": 110}, {"time": 293042, "pitch": 66, "duration": 241, "velocity": 105}, {"time": 293283, "pitch": 69, "duration": 481, "velocity": 110}, {"time": 293764, "pitch": 76, "duration": 241, "velocity": 105}, {"time": 294005, "pitch": 78, "duration": 482, "velocity": 110}, {"time": 294487, "pitch": 81, "duration": 241, "velocity": 105}, {"time": 294728, "pitch": 78, "duration": 240, "velocity": 110}, {"time": 294968, "pitch": 81, "duration": 241, "velocity": 105}, {"time": 295209, "pitch": 78, "duration": 241, "velocity": 110}, {"time": 295450, "pitch": 81, "duration": 120, "velocity": 105}, {"time": 295570, "pitch": 81, "duration": 121, "velocity": 100}, {"time": 295691, "pitch": 78, "duration": 241, "velocity": 110}, {"time": 295932, "pitch": 81, "duration": 240, "velocity": 105}, {"time": 296172, "pitch": 81, "duration": 1907, "velocity": 100}, {"time": 15845, "pitch": 81, "duration": 343, "velocity": 100}, {"time": 16316, "pitch": 81, "duration": 351, "velocity": 100}, {"time": 16798, "pitch": 81, "duration": 240, "velocity": 100}, {"time": 17038, "pitch": 81, "duration": 231, "velocity": 90}, {"time": 17279, "pitch": 79, "duration": 231, "velocity": 100}, {"time": 17520, "pitch": 78, "duration": 231, "velocity": 95}, {"time": 17761, "pitch": 76, "duration": 231, "velocity": 100}, {"time": 18002, "pitch": 76, "duration": 230, "velocity": 95}, {"time": 18242, "pitch": 78, "duration": 231, "velocity": 100}, {"time": 18483, "pitch": 74, "duration": 467, "velocity": 95}, {"time": 19436, "pitch": 71, "duration": 110, "velocity": 95}, {"time": 19556, "pitch": 73, "duration": 111, "velocity": 90}, {"time": 19677, "pitch": 74, "duration": 230, "velocity": 100}, {"time": 20038, "pitch": 74, "duration": 231, "velocity": 95}, {"time": 20399, "pitch": 74, "duration": 231, "velocity": 100}, {"time": 20640, "pitch": 73, "duration": 471, "velocity": 95}, {"time": 21362, "pitch": 71, "duration": 111, "velocity": 95}, {"time": 21483, "pitch": 73, "duration": 110, "velocity": 90}, {"time": 21603, "pitch": 74, "duration": 231, "velocity": 100}, {"time": 21964, "pitch": 74, "duration": 229, "velocity": 95}, {"time": 22320, "pitch": 74, "duration": 108, "velocity": 90}, {"time": 22556, "pitch": 74, "duration": 471, "velocity": 100}, {"time": 23037, "pitch": 76, "duration": 231, "velocity": 95}, {"time": 23519, "pitch": 81, "duration": 351, "velocity": 100}, {"time": 24001, "pitch": 81, "duration": 351, "velocity": 100}, {"time": 24482, "pitch": 81, "duration": 241, "velocity": 100}, {"time": 24723, "pitch": 81, "duration": 231, "velocity": 90}, {"time": 24964, "pitch": 79, "duration": 225, "velocity": 100}, {"time": 25199, "pitch": 78, "duration": 226, "velocity": 95}, {"time": 25435, "pitch": 76, "duration": 231, "velocity": 100}, {"time": 25676, "pitch": 76, "duration": 230, "velocity": 95}, {"time": 25916, "pitch": 78, "duration": 231, "velocity": 100}, {"time": 26157, "pitch": 74, "duration": 472, "velocity": 95}, {"time": 27120, "pitch": 71, "duration": 111, "velocity": 95}, {"time": 27241, "pitch": 73, "duration": 110, "velocity": 90}, {"time": 27361, "pitch": 74, "duration": 231, "velocity": 100}, {"time": 27722, "pitch": 74, "duration": 231, "velocity": 95}, {"time": 28084, "pitch": 74, "duration": 230, "velocity": 100}, {"time": 28324, "pitch": 73, "duration": 462, "velocity": 95}, {"time": 28796, "pitch": 69, "duration": 230, "velocity": 100}, {"time": 29036, "pitch": 71, "duration": 111, "velocity": 90}, {"time": 29277, "pitch": 71, "duration": 3351, "velocity": 100}, {"time": 48478, "pitch": 69, "duration": 110, "velocity": 100}, {"time": 48719, "pitch": 69, "duration": 110, "velocity": 95}, {"time": 48839, "pitch": 67, "duration": 110, "velocity": 90}, {"time": 48959, "pitch": 69, "duration": 111, "velocity": 100}, {"time": 49200, "pitch": 69, "duration": 111, "velocity": 95}, {"time": 49321, "pitch": 67, "duration": 110, "velocity": 90}, {"time": 49441, "pitch": 69, "duration": 110, "velocity": 100}, {"time": 49561, "pitch": 67, "duration": 111, "velocity": 90}, {"time": 49682, "pitch": 69, "duration": 110, "velocity": 95}, {"time": 49802, "pitch": 71, "duration": 1545, "velocity": 100}, {"time": 52320, "pitch": 69, "duration": 110, "velocity": 100}, {"time": 52561, "pitch": 69, "duration": 110, "velocity": 95}, {"time": 52681, "pitch": 67, "duration": 111, "velocity": 90}, {"time": 52802, "pitch": 69, "duration": 110, "velocity": 100}, {"time": 53043, "pitch": 69, "duration": 110, "velocity": 95}, {"time": 53163, "pitch": 67, "duration": 110, "velocity": 90}, {"time": 53283, "pitch": 69, "duration": 111, "velocity": 100}, {"time": 53404, "pitch": 67, "duration": 110, "velocity": 90}, {"time": 53524, "pitch": 74, "duration": 110, "velocity": 95}, {"time": 53644, "pitch": 71, "duration": 1545, "velocity": 100}, {"time": 56162, "pitch": 69, "duration": 111, "velocity": 100}, {"time": 56403, "pitch": 69, "duration": 111, "velocity": 95}, {"time": 56524, "pitch": 67, "duration": 110, "velocity": 90}, {"time": 56644, "pitch": 69, "duration": 108, "velocity": 100}, {"time": 56880, "pitch": 69, "duration": 108, "velocity": 95}, {"time": 56997, "pitch": 67, "duration": 108, "velocity": 90}, {"time": 57115, "pitch": 69, "duration": 110, "velocity": 100}, {"time": 57236, "pitch": 67, "duration": 110, "velocity": 90}, {"time": 57356, "pitch": 69, "duration": 110, "velocity": 95}, {"time": 57476, "pitch": 71, "duration": 1555, "velocity": 100}, {"time": 59764, "pitch": 69, "duration": 110, "velocity": 95}, {"time": 59884, "pitch": 71, "duration": 111, "velocity": 90}, {"time": 60005, "pitch": 72, "duration": 225, "velocity": 100}, {"time": 60240, "pitch": 71, "duration": 226, "velocity": 95}, {"time": 60476, "pitch": 69, "duration": 231, "velocity": 90}, {"time": 60717, "pitch": 74, "duration": 832, "velocity": 100}, {"time": 61680, "pitch": 71, "duration": 110, "velocity": 95}, {"time": 61800, "pitch": 73, "duration": 110, "velocity": 90}, {"time": 61921, "pitch": 75, "duration": 230, "velocity": 100}, {"time": 62161, "pitch": 73, "duration": 231, "velocity": 95}, {"time": 62402, "pitch": 71, "duration": 231, "velocity": 90}, {"time": 62643, "pitch": 78, "duration": 822, "velocity": 100}, {"time": 63836, "pitch": 69, "duration": 111, "velocity": 100}, {"time": 64077, "pitch": 69, "duration": 111, "velocity": 95}, {"time": 64198, "pitch": 67, "duration": 110, "velocity": 90}, {"time": 64318, "pitch": 69, "duration": 110, "velocity": 100}, {"time": 64559, "pitch": 69, "duration": 110, "velocity": 95}, {"time": 64679, "pitch": 67, "duration": 111, "velocity": 90}, {"time": 64800, "pitch": 69, "duration": 110, "velocity": 100}, {"time": 64920, "pitch": 67, "duration": 110, "velocity": 90}, {"time": 65040, "pitch": 69, "duration": 111, "velocity": 95}, {"time": 65161, "pitch": 71, "duration": 1545, "velocity": 100}, {"time": 67679, "pitch": 69, "duration": 110, "velocity": 100}, {"time": 67919, "pitch": 69, "duration": 111, "velocity": 95}, {"time": 68040, "pitch": 67, "duration": 110, "velocity": 90}, {"time": 68160, "pitch": 69, "duration": 111, "velocity": 100}, {"time": 68401, "pitch": 69, "duration": 110, "velocity": 95}, {"time": 68521, "pitch": 67, "duration": 111, "velocity": 90}, {"time": 68642, "pitch": 69, "duration": 110, "velocity": 100}, {"time": 68762, "pitch": 67, "duration": 111, "velocity": 90}, {"time": 68883, "pitch": 74, "duration": 110, "velocity": 95}, {"time": 69003, "pitch": 71, "duration": 1545, "velocity": 100}, {"time": 71521, "pitch": 69, "duration": 110, "velocity": 100}, {"time": 71762, "pitch": 69, "duration": 110, "velocity": 95}, {"time": 71882, "pitch": 67, "duration": 110, "velocity": 90}, {"time": 72003, "pitch": 69, "duration": 110, "velocity": 100}, {"time": 72243, "pitch": 69, "duration": 111, "velocity": 95}, {"time": 72364, "pitch": 67, "duration": 110, "velocity": 90}, {"time": 72484, "pitch": 69, "duration": 108, "velocity": 100}, {"time": 72602, "pitch": 67, "duration": 108, "velocity": 90}, {"time": 72720, "pitch": 69, "duration": 108, "velocity": 95}, {"time": 72838, "pitch": 71, "duration": 1552, "velocity": 100}, {"time": 75122, "pitch": 69, "duration": 111, "velocity": 95}, {"time": 75243, "pitch": 71, "duration": 110, "velocity": 90}, {"time": 75363, "pitch": 72, "duration": 231, "velocity": 100}, {"time": 75604, "pitch": 71, "duration": 231, "velocity": 95}, {"time": 75845, "pitch": 69, "duration": 226, "velocity": 90}, {"time": 76080, "pitch": 74, "duration": 828, "velocity": 100}, {"time": 77038, "pitch": 71, "duration": 111, "velocity": 95}, {"time": 77159, "pitch": 73, "duration": 110, "velocity": 90}, {"time": 77279, "pitch": 75, "duration": 231, "velocity": 100}, {"time": 77520, "pitch": 73, "duration": 231, "velocity": 95}, {"time": 77761, "pitch": 71, "duration": 230, "velocity": 90}, {"time": 78001, "pitch": 78, "duration": 831, "velocity": 100}, {"time": 79195, "pitch": 76, "duration": 712, "velocity": 100}, {"time": 80158, "pitch": 76, "duration": 231, "velocity": 100}, {"time": 80399, "pitch": 74, "duration": 231, "velocity": 95}, {"time": 80640, "pitch": 72, "duration": 230, "velocity": 90}, {"time": 80881, "pitch": 76, "duration": 230, "velocity": 95}, {"time": 81121, "pitch": 74, "duration": 713, "velocity": 100}, {"time": 81844, "pitch": 71, "duration": 110, "velocity": 90}, {"time": 82084, "pitch": 71, "duration": 702, "velocity": 100}, {"time": 82796, "pitch": 74, "duration": 231, "velocity": 95}, {"time": 83037, "pitch": 73, "duration": 472, "velocity": 100}, {"time": 83519, "pitch": 71, "duration": 231, "velocity": 95}, {"time": 83760, "pitch": 69, "duration": 1675, "velocity": 100}, {"time": 85916, "pitch": 69, "duration": 231, "velocity": 100}, {"time": 86157, "pitch": 71, "duration": 231, "velocity": 95}, {"time": 86398, "pitch": 72, "duration": 231, "velocity": 100}, {"time": 86639, "pitch": 69, "duration": 230, "velocity": 90}, {"time": 86879, "pitch": 76, "duration": 713, "velocity": 100}, {"time": 87843, "pitch": 76, "duration": 230, "velocity": 100}, {"time": 88083, "pitch": 74, "duration": 231, "velocity": 95}, {"time": 88324, "pitch": 72, "duration": 226, "velocity": 100}, {"time": 88560, "pitch": 76, "duration": 226, "velocity": 90}, {"time": 88795, "pitch": 74, "duration": 713, "velocity": 100}, {"time": 89518, "pitch": 71, "duration": 110, "velocity": 90}, {"time": 89759, "pitch": 71, "duration": 712, "velocity": 100}, {"time": 90481, "pitch": 74, "duration": 231, "velocity": 95}, {"time": 90722, "pitch": 73, "duration": 592, "velocity": 100}, {"time": 91444, "pitch": 73, "duration": 110, "velocity": 95}, {"time": 91564, "pitch": 74, "duration": 111, "velocity": 90}, {"time": 91685, "pitch": 76, "duration": 461, "velocity": 100}, {"time": 92397, "pitch": 76, "duration": 110, "velocity": 95}, {"time": 92517, "pitch": 78, "duration": 111, "velocity": 90}, {"time": 92638, "pitch": 79, "duration": 230, "velocity": 100}, {"time": 92999, "pitch": 79, "duration": 231, "velocity": 100}, {"time": 93360, "pitch": 78, "duration": 110, "velocity": 95}, {"time": 93601, "pitch": 78, "duration": 231, "velocity": 100}, {"time": 94564, "pitch": 81, "duration": 344, "velocity": 100}, {"time": 95035, "pitch": 81, "duration": 351, "velocity": 100}, {"time": 95517, "pitch": 81, "duration": 240, "velocity": 100}, {"time": 95757, "pitch": 81, "duration": 231, "velocity": 90}, {"time": 95998, "pitch": 79, "duration": 231, "velocity": 100}, {"time": 96239, "pitch": 78, "duration": 231, "velocity": 95}, {"time": 96480, "pitch": 76, "duration": 231, "velocity": 100}, {"time": 96721, "pitch": 76, "duration": 230, "velocity": 95}, {"time": 96961, "pitch": 78, "duration": 231, "velocity": 100}, {"time": 97202, "pitch": 74, "duration": 472, "velocity": 95}, {"time": 98160, "pitch": 71, "duration": 108, "velocity": 95}, {"time": 98278, "pitch": 73, "duration": 108, "velocity": 90}, {"time": 98396, "pitch": 74, "duration": 231, "velocity": 100}, {"time": 98757, "pitch": 74, "duration": 231, "velocity": 95}, {"time": 99118, "pitch": 74, "duration": 231, "velocity": 100}, {"time": 99359, "pitch": 73, "duration": 471, "velocity": 95}, {"time": 100081, "pitch": 71, "duration": 111, "velocity": 95}, {"time": 100202, "pitch": 73, "duration": 110, "velocity": 90}, {"time": 100322, "pitch": 74, "duration": 231, "velocity": 100}, {"time": 100683, "pitch": 74, "duration": 229, "velocity": 95}, {"time": 101039, "pitch": 74, "duration": 108, "velocity": 90}, {"time": 101275, "pitch": 74, "duration": 471, "velocity": 100}, {"time": 101756, "pitch": 76, "duration": 231, "velocity": 95}, {"time": 102238, "pitch": 81, "duration": 351, "velocity": 100}, {"time": 102720, "pitch": 81, "duration": 351, "velocity": 100}, {"time": 103201, "pitch": 81, "duration": 241, "velocity": 100}, {"time": 103442, "pitch": 81, "duration": 231, "velocity": 90}, {"time": 103683, "pitch": 79, "duration": 231, "velocity": 100}, {"time": 103924, "pitch": 78, "duration": 230, "velocity": 95}, {"time": 104164, "pitch": 76, "duration": 226, "velocity": 100}, {"time": 104400, "pitch": 76, "duration": 226, "velocity": 95}, {"time": 104636, "pitch": 78, "duration": 230, "velocity": 100}, {"time": 104876, "pitch": 74, "duration": 472, "velocity": 95}, {"time": 105839, "pitch": 71, "duration": 111, "velocity": 95}, {"time": 105960, "pitch": 73, "duration": 110, "velocity": 90}, {"time": 106080, "pitch": 74, "duration": 231, "velocity": 100}, {"time": 106441, "pitch": 74, "duration": 231, "velocity": 95}, {"time": 106803, "pitch": 74, "duration": 230, "velocity": 100}, {"time": 107043, "pitch": 73, "duration": 472, "velocity": 95}, {"time": 107525, "pitch": 69, "duration": 226, "velocity": 100}, {"time": 107761, "pitch": 71, "duration": 225, "velocity": 90}, {"time": 107996, "pitch": 71, "duration": 3351, "velocity": 100}, {"time": 127197, "pitch": 69, "duration": 110, "velocity": 100}, {"time": 127438, "pitch": 69, "duration": 110, "velocity": 95}, {"time": 127558, "pitch": 67, "duration": 111, "velocity": 90}, {"time": 127679, "pitch": 69, "duration": 110, "velocity": 100}, {"time": 127919, "pitch": 69, "duration": 111, "velocity": 95}, {"time": 128040, "pitch": 67, "duration": 110, "velocity": 90}, {"time": 128160, "pitch": 69, "duration": 110, "velocity": 100}, {"time": 128281, "pitch": 67, "duration": 110, "velocity": 90}, {"time": 128401, "pitch": 69, "duration": 110, "velocity": 95}, {"time": 128521, "pitch": 71, "duration": 1545, "velocity": 100}, {"time": 131039, "pitch": 69, "duration": 111, "velocity": 100}, {"time": 131280, "pitch": 69, "duration": 110, "velocity": 95}, {"time": 131400, "pitch": 67, "duration": 111, "velocity": 90}, {"time": 131521, "pitch": 69, "duration": 110, "velocity": 100}, {"time": 131762, "pitch": 69, "duration": 110, "velocity": 95}, {"time": 131882, "pitch": 67, "duration": 110, "velocity": 90}, {"time": 132002, "pitch": 69, "duration": 111, "velocity": 100}, {"time": 132123, "pitch": 67, "duration": 110, "velocity": 90}, {"time": 132243, "pitch": 74, "duration": 111, "velocity": 95}, {"time": 132364, "pitch": 71, "duration": 1544, "velocity": 100}, {"time": 134881, "pitch": 69, "duration": 111, "velocity": 100}, {"time": 135122, "pitch": 69, "duration": 111, "velocity": 95}, {"time": 135243, "pitch": 67, "duration": 110, "velocity": 90}, {"time": 135363, "pitch": 69, "duration": 110, "velocity": 100}, {"time": 135604, "pitch": 69, "duration": 110, "velocity": 95}, {"time": 135724, "pitch": 67, "duration": 111, "velocity": 90}, {"time": 135845, "pitch": 69, "duration": 108, "velocity": 100}, {"time": 135962, "pitch": 67, "duration": 108, "velocity": 90}, {"time": 136080, "pitch": 69, "duration": 108, "velocity": 95}, {"time": 136198, "pitch": 71, "duration": 1552, "velocity": 100}, {"time": 138483, "pitch": 69, "duration": 110, "velocity": 95}, {"time": 138603, "pitch": 71, "duration": 111, "velocity": 90}, {"time": 138724, "pitch": 72, "duration": 225, "velocity": 100}, {"time": 138959, "pitch": 71, "duration": 226, "velocity": 95}, {"time": 139195, "pitch": 69, "duration": 231, "velocity": 90}, {"time": 139436, "pitch": 74, "duration": 832, "velocity": 100}, {"time": 140399, "pitch": 71, "duration": 110, "velocity": 95}, {"time": 140519, "pitch": 73, "duration": 111, "velocity": 90}, {"time": 140640, "pitch": 75, "duration": 230, "velocity": 100}, {"time": 140880, "pitch": 73, "duration": 231, "velocity": 95}, {"time": 141121, "pitch": 71, "duration": 231, "velocity": 90}, {"time": 141362, "pitch": 78, "duration": 830, "velocity": 100}, {"time": 142556, "pitch": 76, "duration": 712, "velocity": 100}, {"time": 143519, "pitch": 76, "duration": 230, "velocity": 100}, {"time": 143759, "pitch": 74, "duration": 231, "velocity": 95}, {"time": 144000, "pitch": 72, "duration": 231, "velocity": 100}, {"time": 144241, "pitch": 76, "duration": 231, "velocity": 90}, {"time": 144482, "pitch": 74, "duration": 712, "velocity": 100}, {"time": 145204, "pitch": 71, "duration": 111, "velocity": 90}, {"time": 145445, "pitch": 71, "duration": 702, "velocity": 100}, {"time": 146157, "pitch": 74, "duration": 231, "velocity": 95}, {"time": 146398, "pitch": 73, "duration": 471, "velocity": 100}, {"time": 146879, "pitch": 71, "duration": 231, "velocity": 95}, {"time": 147120, "pitch": 69, "duration": 1666, "velocity": 100}, {"time": 149277, "pitch": 69, "duration": 231, "velocity": 100}, {"time": 149518, "pitch": 71, "duration": 230, "velocity": 95}, {"time": 149758, "pitch": 72, "duration": 231, "velocity": 100}, {"time": 149999, "pitch": 69, "duration": 231, "velocity": 90}, {"time": 150240, "pitch": 76, "duration": 712, "velocity": 100}, {"time": 151203, "pitch": 76, "duration": 231, "velocity": 100}, {"time": 151444, "pitch": 74, "duration": 231, "velocity": 95}, {"time": 151685, "pitch": 72, "duration": 226, "velocity": 100}, {"time": 151920, "pitch": 76, "duration": 226, "velocity": 90}, {"time": 152156, "pitch": 74, "duration": 712, "velocity": 100}, {"time": 152878, "pitch": 71, "duration": 111, "velocity": 90}, {"time": 153119, "pitch": 71, "duration": 712, "velocity": 100}, {"time": 153841, "pitch": 74, "duration": 231, "velocity": 95}, {"time": 154082, "pitch": 73, "duration": 590, "velocity": 100}, {"time": 154799, "pitch": 73, "duration": 108, "velocity": 95}, {"time": 154917, "pitch": 74, "duration": 108, "velocity": 90}, {"time": 155035, "pitch": 76, "duration": 472, "velocity": 100}, {"time": 155757, "pitch": 76, "duration": 111, "velocity": 95}, {"time": 155878, "pitch": 78, "duration": 110, "velocity": 90}, {"time": 155998, "pitch": 79, "duration": 231, "velocity": 100}, {"time": 156359, "pitch": 79, "duration": 231, "velocity": 100}, {"time": 156721, "pitch": 78, "duration": 110, "velocity": 95}, {"time": 156961, "pitch": 78, "duration": 231, "velocity": 100}, {"time": 157924, "pitch": 81, "duration": 344, "velocity": 100}, {"time": 158396, "pitch": 81, "duration": 351, "velocity": 100}, {"time": 158877, "pitch": 81, "duration": 241, "velocity": 100}, {"time": 159118, "pitch": 81, "duration": 231, "velocity": 90}, {"time": 159359, "pitch": 79, "duration": 231, "velocity": 100}, {"time": 159600, "pitch": 78, "duration": 230, "velocity": 95}, {"time": 159840, "pitch": 76, "duration": 231, "velocity": 100}, {"time": 160081, "pitch": 76, "duration": 231, "velocity": 95}, {"time": 160322, "pitch": 78, "duration": 231, "velocity": 100}, {"time": 160563, "pitch": 74, "duration": 471, "velocity": 95}, {"time": 161521, "pitch": 71, "duration": 108, "velocity": 95}, {"time": 161639, "pitch": 73, "duration": 108, "velocity": 90}, {"time": 161756, "pitch": 74, "duration": 231, "velocity": 100}, {"time": 162117, "pitch": 74, "duration": 231, "velocity": 95}, {"time": 162479, "pitch": 74, "duration": 230, "velocity": 100}, {"time": 162719, "pitch": 73, "duration": 472, "velocity": 95}, {"time": 163442, "pitch": 71, "duration": 110, "velocity": 95}, {"time": 163562, "pitch": 73, "duration": 111, "velocity": 90}, {"time": 163683, "pitch": 74, "duration": 230, "velocity": 100}, {"time": 164044, "pitch": 74, "duration": 228, "velocity": 95}, {"time": 164400, "pitch": 74, "duration": 108, "velocity": 90}, {"time": 164635, "pitch": 74, "duration": 472, "velocity": 100}, {"time": 165117, "pitch": 76, "duration": 231, "velocity": 95}, {"time": 165599, "pitch": 81, "duration": 351, "velocity": 100}, {"time": 166080, "pitch": 81, "duration": 351, "velocity": 100}, {"time": 166562, "pitch": 81, "duration": 241, "velocity": 100}, {"time": 166803, "pitch": 81, "duration": 230, "velocity": 90}, {"time": 167043, "pitch": 79, "duration": 231, "velocity": 100}, {"time": 167284, "pitch": 78, "duration": 231, "velocity": 95}, {"time": 167525, "pitch": 76, "duration": 226, "velocity": 100}, {"time": 167760, "pitch": 76, "duration": 226, "velocity": 95}, {"time": 167996, "pitch": 78, "duration": 231, "velocity": 100}, {"time": 168237, "pitch": 74, "duration": 471, "velocity": 95}, {"time": 169200, "pitch": 71, "duration": 110, "velocity": 95}, {"time": 169320, "pitch": 73, "duration": 111, "velocity": 90}, {"time": 169441, "pitch": 74, "duration": 231, "velocity": 100}, {"time": 169802, "pitch": 74, "duration": 231, "velocity": 95}, {"time": 170163, "pitch": 74, "duration": 231, "velocity": 100}, {"time": 170404, "pitch": 73, "duration": 461, "velocity": 95}, {"time": 170875, "pitch": 69, "duration": 231, "velocity": 100}, {"time": 171116, "pitch": 71, "duration": 110, "velocity": 90}, {"time": 171357, "pitch": 71, "duration": 471, "velocity": 100}, {"time": 171838, "pitch": 73, "duration": 472, "velocity": 95}, {"time": 172320, "pitch": 74, "duration": 471, "velocity": 100}, {"time": 172801, "pitch": 76, "duration": 231, "velocity": 95}, {"time": 173283, "pitch": 81, "duration": 351, "velocity": 100}, {"time": 173765, "pitch": 81, "duration": 343, "velocity": 100}, {"time": 174236, "pitch": 81, "duration": 241, "velocity": 100}, {"time": 174477, "pitch": 81, "duration": 230, "velocity": 90}, {"time": 174717, "pitch": 79, "duration": 231, "velocity": 100}, {"time": 174958, "pitch": 78, "duration": 231, "velocity": 95}, {"time": 175199, "pitch": 76, "duration": 231, "velocity": 100}, {"time": 175440, "pitch": 76, "duration": 231, "velocity": 95}, {"time": 175681, "pitch": 78, "duration": 230, "velocity": 100}, {"time": 175921, "pitch": 74, "duration": 472, "velocity": 95}, {"time": 176879, "pitch": 71, "duration": 108, "velocity": 95}, {"time": 176997, "pitch": 73, "duration": 108, "velocity": 90}, {"time": 177115, "pitch": 74, "duration": 231, "velocity": 100}, {"time": 177476, "pitch": 74, "duration": 231, "velocity": 95}, {"time": 177837, "pitch": 74, "duration": 231, "velocity": 100}, {"time": 178078, "pitch": 73, "duration": 472, "velocity": 95}, {"time": 178800, "pitch": 71, "duration": 111, "velocity": 95}, {"time": 178921, "pitch": 73, "duration": 110, "velocity": 90}, {"time": 179041, "pitch": 74, "duration": 231, "velocity": 100}, {"time": 179402, "pitch": 74, "duration": 231, "velocity": 95}, {"time": 179764, "pitch": 74, "duration": 110, "velocity": 90}, {"time": 180004, "pitch": 74, "duration": 462, "velocity": 100}, {"time": 180476, "pitch": 76, "duration": 230, "velocity": 95}, {"time": 180957, "pitch": 81, "duration": 351, "velocity": 100}, {"time": 181439, "pitch": 81, "duration": 351, "velocity": 100}, {"time": 181920, "pitch": 81, "duration": 241, "velocity": 100}, {"time": 182161, "pitch": 81, "duration": 231, "velocity": 90}, {"time": 182402, "pitch": 79, "duration": 231, "velocity": 100}, {"time": 182643, "pitch": 78, "duration": 230, "velocity": 95}, {"time": 182883, "pitch": 76, "duration": 231, "velocity": 100}, {"time": 183124, "pitch": 76, "duration": 231, "velocity": 95}, {"time": 183365, "pitch": 78, "duration": 226, "velocity": 100}, {"time": 183601, "pitch": 74, "duration": 466, "velocity": 95}, {"time": 184559, "pitch": 71, "duration": 110, "velocity": 95}, {"time": 184679, "pitch": 73, "duration": 110, "velocity": 90}, {"time": 184799, "pitch": 74, "duration": 231, "velocity": 100}, {"time": 185161, "pitch": 74, "duration": 230, "velocity": 95}, {"time": 185522, "pitch": 74, "duration": 230, "velocity": 100}, {"time": 185763, "pitch": 73, "duration": 471, "velocity": 95}, {"time": 186244, "pitch": 69, "duration": 226, "velocity": 100}, {"time": 186480, "pitch": 71, "duration": 108, "velocity": 90}, {"time": 186715, "pitch": 71, "duration": 3351, "velocity": 100}, {"time": 221285, "pitch": 81, "duration": 344, "velocity": 100}, {"time": 221756, "pitch": 81, "duration": 351, "velocity": 100}, {"time": 222238, "pitch": 81, "duration": 241, "velocity": 100}, {"time": 222479, "pitch": 81, "duration": 230, "velocity": 90}, {"time": 222719, "pitch": 79, "duration": 231, "velocity": 100}, {"time": 222960, "pitch": 78, "duration": 231, "velocity": 95}, {"time": 223201, "pitch": 76, "duration": 231, "velocity": 100}, {"time": 223442, "pitch": 76, "duration": 230, "velocity": 95}, {"time": 223683, "pitch": 78, "duration": 230, "velocity": 100}, {"time": 223923, "pitch": 74, "duration": 467, "velocity": 95}, {"time": 224876, "pitch": 71, "duration": 110, "velocity": 95}, {"time": 224996, "pitch": 73, "duration": 111, "velocity": 90}, {"time": 225117, "pitch": 74, "duration": 231, "velocity": 100}, {"time": 225478, "pitch": 74, "duration": 231, "velocity": 95}, {"time": 225839, "pitch": 74, "duration": 231, "velocity": 100}, {"time": 226080, "pitch": 73, "duration": 472, "velocity": 95}, {"time": 226802, "pitch": 71, "duration": 111, "velocity": 95}, {"time": 226923, "pitch": 73, "duration": 110, "velocity": 90}, {"time": 227043, "pitch": 74, "duration": 231, "velocity": 100}, {"time": 227404, "pitch": 74, "duration": 229, "velocity": 95}, {"time": 227760, "pitch": 74, "duration": 108, "velocity": 90}, {"time": 227996, "pitch": 74, "duration": 471, "velocity": 100}, {"time": 228477, "pitch": 76, "duration": 231, "velocity": 95}, {"time": 228959, "pitch": 81, "duration": 351, "velocity": 100}, {"time": 229441, "pitch": 81, "duration": 351, "velocity": 100}, {"time": 229922, "pitch": 81, "duration": 241, "velocity": 100}, {"time": 230163, "pitch": 81, "duration": 231, "velocity": 90}, {"time": 230404, "pitch": 79, "duration": 226, "velocity": 100}, {"time": 230639, "pitch": 78, "duration": 226, "velocity": 95}, {"time": 230875, "pitch": 76, "duration": 231, "velocity": 100}, {"time": 231116, "pitch": 76, "duration": 231, "velocity": 95}, {"time": 231357, "pitch": 78, "duration": 230, "velocity": 100}, {"time": 231597, "pitch": 74, "duration": 472, "velocity": 95}, {"time": 232561, "pitch": 71, "duration": 110, "velocity": 95}, {"time": 232681, "pitch": 73, "duration": 110, "velocity": 90}, {"time": 232801, "pitch": 74, "duration": 231, "velocity": 100}, {"time": 233163, "pitch": 74, "duration": 230, "velocity": 95}, {"time": 233524, "pitch": 74, "duration": 230, "velocity": 100}, {"time": 233764, "pitch": 73, "duration": 462, "velocity": 95}, {"time": 234236, "pitch": 69, "duration": 230, "velocity": 100}, {"time": 234476, "pitch": 71, "duration": 111, "velocity": 90}, {"time": 234717, "pitch": 71, "duration": 472, "velocity": 100}, {"time": 235199, "pitch": 73, "duration": 471, "velocity": 95}, {"time": 235680, "pitch": 74, "duration": 472, "velocity": 100}, {"time": 236162, "pitch": 76, "duration": 231, "velocity": 95}, {"time": 236644, "pitch": 81, "duration": 351, "velocity": 100}, {"time": 237125, "pitch": 81, "duration": 344, "velocity": 100}, {"time": 237596, "pitch": 81, "duration": 241, "velocity": 100}, {"time": 237837, "pitch": 81, "duration": 231, "velocity": 90}, {"time": 238078, "pitch": 79, "duration": 231, "velocity": 100}, {"time": 238319, "pitch": 78, "duration": 230, "velocity": 95}, {"time": 238559, "pitch": 76, "duration": 231, "velocity": 100}, {"time": 238800, "pitch": 76, "duration": 231, "velocity": 95}, {"time": 239041, "pitch": 78, "duration": 231, "velocity": 100}, {"time": 239282, "pitch": 74, "duration": 471, "velocity": 95}, {"time": 240240, "pitch": 71, "duration": 108, "velocity": 95}, {"time": 240358, "pitch": 73, "duration": 108, "velocity": 90}, {"time": 240475, "pitch": 74, "duration": 231, "velocity": 100}, {"time": 240837, "pitch": 74, "duration": 230, "velocity": 95}, {"time": 241198, "pitch": 74, "duration": 231, "velocity": 100}, {"time": 241439, "pitch": 73, "duration": 471, "velocity": 95}, {"time": 242161, "pitch": 71, "duration": 110, "velocity": 95}, {"time": 242281, "pitch": 73, "duration": 111, "velocity": 90}, {"time": 242402, "pitch": 74, "duration": 230, "velocity": 100}, {"time": 242763, "pitch": 74, "duration": 231, "velocity": 95}, {"time": 243124, "pitch": 74, "duration": 110, "velocity": 90}, {"time": 243365, "pitch": 74, "duration": 461, "velocity": 100}, {"time": 243836, "pitch": 76, "duration": 231, "velocity": 95}, {"time": 244318, "pitch": 81, "duration": 351, "velocity": 100}, {"time": 244799, "pitch": 81, "duration": 351, "velocity": 100}, {"time": 245281, "pitch": 81, "duration": 241, "velocity": 100}, {"time": 245522, "pitch": 81, "duration": 230, "velocity": 90}, {"time": 245762, "pitch": 79, "duration": 231, "velocity": 100}, {"time": 246003, "pitch": 78, "duration": 231, "velocity": 95}, {"time": 246244, "pitch": 76, "duration": 226, "velocity": 100}, {"time": 246480, "pitch": 76, "duration": 225, "velocity": 95}, {"time": 246715, "pitch": 78, "duration": 231, "velocity": 100}, {"time": 246956, "pitch": 74, "duration": 471, "velocity": 95}, {"time": 247919, "pitch": 71, "duration": 110, "velocity": 95}, {"time": 248039, "pitch": 73, "duration": 111, "velocity": 90}, {"time": 248160, "pitch": 74, "duration": 231, "velocity": 100}, {"time": 248521, "pitch": 74, "duration": 231, "velocity": 95}, {"time": 248882, "pitch": 74, "duration": 231, "velocity": 100}, {"time": 249123, "pitch": 73, "duration": 472, "velocity": 95}, {"time": 249605, "pitch": 81, "duration": 235, "velocity": 100}, {"time": 249840, "pitch": 83, "duration": 226, "velocity": 90}, {"time": 250076, "pitch": 83, "duration": 3350, "velocity": 100}, {"time": 15845, "pitch": 79, "duration": 19, "velocity": 120}, {"time": 15963, "pitch": 86, "duration": 19, "velocity": 120}, {"time": 16080, "pitch": 74, "duration": 20, "velocity": 120}, {"time": 16198, "pitch": 79, "duration": 20, "velocity": 120}, {"time": 16316, "pitch": 90, "duration": 20, "velocity": 120}, {"time": 16436, "pitch": 83, "duration": 21, "velocity": 120}, {"time": 16557, "pitch": 86, "duration": 20, "velocity": 120}, {"time": 16677, "pitch": 79, "duration": 20, "velocity": 120}, {"time": 16798, "pitch": 69, "duration": 20, "velocity": 120}, {"time": 16918, "pitch": 76, "duration": 20, "velocity": 120}, {"time": 17038, "pitch": 85, "duration": 20, "velocity": 120}, {"time": 17159, "pitch": 88, "duration": 20, "velocity": 120}, {"time": 17279, "pitch": 81, "duration": 20, "velocity": 120}, {"time": 17400, "pitch": 85, "duration": 20, "velocity": 120}, {"time": 17520, "pitch": 73, "duration": 20, "velocity": 120}, {"time": 17640, "pitch": 76, "duration": 20, "velocity": 120}, {"time": 17761, "pitch": 78, "duration": 20, "velocity": 120}, {"time": 17881, "pitch": 85, "duration": 20, "velocity": 120}, {"time": 18002, "pitch": 73, "duration": 20, "velocity": 120}, {"time": 18122, "pitch": 78, "duration": 20, "velocity": 120}, {"time": 18242, "pitch": 88, "duration": 20, "velocity": 120}, {"time": 18363, "pitch": 81, "duration": 20, "velocity": 120}, {"time": 18483, "pitch": 85, "duration": 20, "velocity": 120}, {"time": 18604, "pitch": 78, "duration": 20, "velocity": 120}, {"time": 18724, "pitch": 71, "duration": 20, "velocity": 120}, {"time": 18842, "pitch": 78, "duration": 19, "velocity": 120}, {"time": 18960, "pitch": 86, "duration": 19, "velocity": 120}, {"time": 19077, "pitch": 90, "duration": 20, "velocity": 120}, {"time": 19195, "pitch": 83, "duration": 20, "velocity": 120}, {"time": 19316, "pitch": 86, "duration": 20, "velocity": 120}, {"time": 19436, "pitch": 74, "duration": 20, "velocity": 120}, {"time": 19556, "pitch": 78, "duration": 20, "velocity": 120}, {"time": 19677, "pitch": 79, "duration": 20, "velocity": 120}, {"time": 19797, "pitch": 86, "duration": 20, "velocity": 120}, {"time": 19917, "pitch": 74, "duration": 21, "velocity": 120}, {"time": 20038, "pitch": 79, "duration": 20, "velocity": 120}, {"time": 20158, "pitch": 90, "duration": 20, "velocity": 120}, {"time": 20279, "pitch": 83, "duration": 20, "velocity": 120}, {"time": 20399, "pitch": 86, "duration": 20, "velocity": 120}, {"time": 20519, "pitch": 79, "duration": 21, "velocity": 120}, {"time": 20640, "pitch": 69, "duration": 20, "velocity": 120}, {"time": 20760, "pitch": 76, "duration": 20, "velocity": 120}, {"time": 20881, "pitch": 85, "duration": 20, "velocity": 120}, {"time": 21001, "pitch": 88, "duration": 20, "velocity": 120}, {"time": 21121, "pitch": 81, "duration": 21, "velocity": 120}, {"time": 21242, "pitch": 85, "duration": 20, "velocity": 120}, {"time": 21362, "pitch": 73, "duration": 20, "velocity": 120}, {"time": 21483, "pitch": 76, "duration": 20, "velocity": 120}, {"time": 21603, "pitch": 79, "duration": 20, "velocity": 120}, {"time": 21723, "pitch": 86, "duration": 21, "velocity": 120}, {"time": 21844, "pitch": 74, "duration": 20, "velocity": 120}, {"time": 21964, "pitch": 79, "duration": 20, "velocity": 120}, {"time": 22085, "pitch": 90, "duration": 19, "velocity": 120}, {"time": 22202, "pitch": 83, "duration": 20, "velocity": 120}, {"time": 22320, "pitch": 86, "duration": 20, "velocity": 120}, {"time": 22438, "pitch": 79, "duration": 20, "velocity": 120}, {"time": 22556, "pitch": 69, "duration": 20, "velocity": 120}, {"time": 22676, "pitch": 76, "duration": 20, "velocity": 120}, {"time": 22797, "pitch": 85, "duration": 20, "velocity": 120}, {"time": 22917, "pitch": 88, "duration": 20, "velocity": 120}, {"time": 23037, "pitch": 81, "duration": 20, "velocity": 120}, {"time": 23158, "pitch": 85, "duration": 20, "velocity": 120}, {"time": 23278, "pitch": 73, "duration": 20, "velocity": 120}, {"time": 23399, "pitch": 76, "duration": 20, "velocity": 120}, {"time": 23519, "pitch": 79, "duration": 20, "velocity": 120}, {"time": 23639, "pitch": 86, "duration": 20, "velocity": 120}, {"time": 23760, "pitch": 74, "duration": 20, "velocity": 120}, {"time": 23880, "pitch": 79, "duration": 20, "velocity": 120}, {"time": 24001, "pitch": 90, "duration": 20, "velocity": 120}, {"time": 24121, "pitch": 83, "duration": 20, "velocity": 120}, {"time": 24241, "pitch": 86, "duration": 20, "velocity": 120}, {"time": 24362, "pitch": 79, "duration": 20, "velocity": 120}, {"time": 24482, "pitch": 69, "duration": 20, "velocity": 120}, {"time": 24603, "pitch": 76, "duration": 20, "velocity": 120}, {"time": 24723, "pitch": 85, "duration": 20, "velocity": 120}, {"time": 24843, "pitch": 88, "duration": 20, "velocity": 120}, {"time": 24964, "pitch": 81, "duration": 19, "velocity": 120}, {"time": 25081, "pitch": 85, "duration": 20, "velocity": 120}, {"time": 25199, "pitch": 73, "duration": 20, "velocity": 120}, {"time": 25317, "pitch": 76, "duration": 20, "velocity": 120}, {"time": 25435, "pitch": 78, "duration": 20, "velocity": 120}, {"time": 25555, "pitch": 85, "duration": 20, "velocity": 120}, {"time": 25676, "pitch": 73, "duration": 20, "velocity": 120}, {"time": 25796, "pitch": 78, "duration": 20, "velocity": 120}, {"time": 25916, "pitch": 88, "duration": 21, "velocity": 120}, {"time": 26037, "pitch": 81, "duration": 20, "velocity": 120}, {"time": 26157, "pitch": 85, "duration": 20, "velocity": 120}, {"time": 26278, "pitch": 78, "duration": 20, "velocity": 120}, {"time": 26398, "pitch": 71, "duration": 20, "velocity": 120}, {"time": 26518, "pitch": 78, "duration": 20, "velocity": 120}, {"time": 26639, "pitch": 86, "duration": 20, "velocity": 120}, {"time": 26759, "pitch": 90, "duration": 20, "velocity": 120}, {"time": 26880, "pitch": 83, "duration": 20, "velocity": 120}, {"time": 27000, "pitch": 86, "duration": 20, "velocity": 120}, {"time": 27120, "pitch": 74, "duration": 20, "velocity": 120}, {"time": 27241, "pitch": 78, "duration": 20, "velocity": 120}, {"time": 27361, "pitch": 79, "duration": 20, "velocity": 120}, {"time": 27482, "pitch": 86, "duration": 20, "velocity": 120}, {"time": 27602, "pitch": 74, "duration": 20, "velocity": 120}, {"time": 27722, "pitch": 79, "duration": 20, "velocity": 120}, {"time": 27843, "pitch": 90, "duration": 20, "velocity": 120}, {"time": 27963, "pitch": 83, "duration": 20, "velocity": 120}, {"time": 28084, "pitch": 86, "duration": 20, "velocity": 120}, {"time": 28204, "pitch": 79, "duration": 20, "velocity": 120}, {"time": 28324, "pitch": 69, "duration": 20, "velocity": 120}, {"time": 28442, "pitch": 76, "duration": 20, "velocity": 120}, {"time": 28560, "pitch": 85, "duration": 20, "velocity": 120}, {"time": 28678, "pitch": 88, "duration": 19, "velocity": 120}, {"time": 28796, "pitch": 81, "duration": 20, "velocity": 120}, {"time": 28916, "pitch": 85, "duration": 20, "velocity": 120}, {"time": 29036, "pitch": 73, "duration": 20, "velocity": 120}, {"time": 29157, "pitch": 76, "duration": 20, "velocity": 120}, {"time": 29277, "pitch": 80, "duration": 20, "velocity": 120}, {"time": 29397, "pitch": 88, "duration": 21, "velocity": 120}, {"time": 29518, "pitch": 76, "duration": 20, "velocity": 120}, {"time": 29638, "pitch": 83, "duration": 20, "velocity": 120}, {"time": 29759, "pitch": 92, "duration": 20, "velocity": 120}, {"time": 29879, "pitch": 83, "duration": 20, "velocity": 120}, {"time": 29999, "pitch": 88, "duration": 21, "velocity": 120}, {"time": 30120, "pitch": 80, "duration": 20, "velocity": 120}, {"time": 30240, "pitch": 71, "duration": 20, "velocity": 120}, {"time": 30361, "pitch": 76, "duration": 20, "velocity": 120}, {"time": 30481, "pitch": 83, "duration": 20, "velocity": 120}, {"time": 30601, "pitch": 88, "duration": 21, "velocity": 120}, {"time": 30722, "pitch": 80, "duration": 20, "velocity": 120}, {"time": 30842, "pitch": 83, "duration": 20, "velocity": 120}, {"time": 30963, "pitch": 71, "duration": 20, "velocity": 120}, {"time": 31083, "pitch": 76, "duration": 20, "velocity": 120}, {"time": 31203, "pitch": 80, "duration": 21, "velocity": 120}, {"time": 31324, "pitch": 88, "duration": 20, "velocity": 120}, {"time": 31444, "pitch": 76, "duration": 20, "velocity": 120}, {"time": 31565, "pitch": 83, "duration": 20, "velocity": 120}, {"time": 31685, "pitch": 92, "duration": 20, "velocity": 120}, {"time": 31803, "pitch": 83, "duration": 19, "velocity": 120}, {"time": 31921, "pitch": 88, "duration": 19, "velocity": 120}, {"time": 32038, "pitch": 80, "duration": 20, "velocity": 120}, {"time": 32156, "pitch": 71, "duration": 20, "velocity": 120}, {"time": 32277, "pitch": 76, "duration": 20, "velocity": 120}, {"time": 32397, "pitch": 83, "duration": 20, "velocity": 120}, {"time": 32517, "pitch": 88, "duration": 20, "velocity": 120}, {"time": 32638, "pitch": 80, "duration": 20, "velocity": 120}, {"time": 32758, "pitch": 83, "duration": 20, "velocity": 120}, {"time": 32879, "pitch": 71, "duration": 20, "velocity": 120}, {"time": 32999, "pitch": 76, "duration": 20, "velocity": 120}, {"time": 33119, "pitch": 72, "duration": 20, "velocity": 120}, {"time": 33240, "pitch": 79, "duration": 20, "velocity": 120}, {"time": 33360, "pitch": 79, "duration": 20, "velocity": 120}, {"time": 33481, "pitch": 84, "duration": 20, "velocity": 120}, {"time": 33601, "pitch": 72, "duration": 20, "velocity": 120}, {"time": 33721, "pitch": 79, "duration": 20, "velocity": 120}, {"time": 33842, "pitch": 91, "duration": 20, "velocity": 120}, {"time": 33962, "pitch": 84, "duration": 20, "velocity": 120}, {"time": 34083, "pitch": 79, "duration": 20, "velocity": 120}, {"time": 34203, "pitch": 84, "duration": 20, "velocity": 120}, {"time": 34323, "pitch": 72, "duration": 20, "velocity": 120}, {"time": 34444, "pitch": 79, "duration": 20, "velocity": 120}, {"time": 34564, "pitch": 91, "duration": 20, "velocity": 120}, {"time": 34682, "pitch": 84, "duration": 19, "velocity": 120}, {"time": 34800, "pitch": 79, "duration": 19, "velocity": 120}, {"time": 34918, "pitch": 84, "duration": 19, "velocity": 120}, {"time": 35035, "pitch": 72, "duration": 20, "velocity": 120}, {"time": 35156, "pitch": 79, "duration": 20, "velocity": 120}, {"time": 35276, "pitch": 79, "duration": 20, "velocity": 120}, {"time": 35396, "pitch": 84, "duration": 21, "velocity": 120}, {"time": 35517, "pitch": 72, "duration": 20, "velocity": 120}, {"time": 35637, "pitch": 79, "duration": 20, "velocity": 120}, {"time": 35758, "pitch": 91, "duration": 20, "velocity": 120}, {"time": 35878, "pitch": 84, "duration": 20, "velocity": 120}, {"time": 35998, "pitch": 79, "duration": 20, "velocity": 120}, {"time": 36119, "pitch": 84, "duration": 20, "velocity": 120}, {"time": 36239, "pitch": 72, "duration": 20, "velocity": 120}, {"time": 36360, "pitch": 79, "duration": 20, "velocity": 120}, {"time": 36480, "pitch": 91, "duration": 20, "velocity": 120}, {"time": 36600, "pitch": 84, "duration": 20, "velocity": 120}, {"time": 36721, "pitch": 79, "duration": 20, "velocity": 120}, {"time": 36841, "pitch": 84, "duration": 20, "velocity": 120}, {"time": 36962, "pitch": 72, "duration": 20, "velocity": 120}, {"time": 37082, "pitch": 79, "duration": 20, "velocity": 120}, {"time": 37202, "pitch": 79, "duration": 20, "velocity": 120}, {"time": 37323, "pitch": 84, "duration": 20, "velocity": 120}, {"time": 37443, "pitch": 72, "duration": 20, "velocity": 120}, {"time": 37564, "pitch": 79, "duration": 20, "velocity": 120}, {"time": 37684, "pitch": 91, "duration": 20, "velocity": 120}, {"time": 37804, "pitch": 84, "duration": 20, "velocity": 120}, {"time": 37925, "pitch": 79, "duration": 19, "velocity": 120}, {"time": 38042, "pitch": 84, "duration": 20, "velocity": 120}, {"time": 38160, "pitch": 72, "duration": 20, "velocity": 120}, {"time": 38278, "pitch": 79, "duration": 20, "velocity": 120}, {"time": 38396, "pitch": 91, "duration": 20, "velocity": 120}, {"time": 38516, "pitch": 84, "duration": 20, "velocity": 120}, {"time": 38637, "pitch": 79, "duration": 20, "velocity": 120}, {"time": 38757, "pitch": 84, "duration": 20, "velocity": 120}, {"time": 38877, "pitch": 72, "duration": 21, "velocity": 120}, {"time": 38998, "pitch": 79, "duration": 20, "velocity": 120}, {"time": 39118, "pitch": 79, "duration": 20, "velocity": 120}, {"time": 39239, "pitch": 84, "duration": 20, "velocity": 120}, {"time": 39359, "pitch": 72, "duration": 20, "velocity": 120}, {"time": 39479, "pitch": 79, "duration": 21, "velocity": 120}, {"time": 39600, "pitch": 91, "duration": 20, "velocity": 120}, {"time": 39720, "pitch": 84, "duration": 20, "velocity": 120}, {"time": 39841, "pitch": 79, "duration": 20, "velocity": 120}, {"time": 39961, "pitch": 84, "duration": 20, "velocity": 120}, {"time": 40081, "pitch": 72, "duration": 21, "velocity": 120}, {"time": 40202, "pitch": 79, "duration": 20, "velocity": 120}, {"time": 40322, "pitch": 91, "duration": 20, "velocity": 120}, {"time": 40443, "pitch": 84, "duration": 20, "velocity": 120}, {"time": 40563, "pitch": 79, "duration": 20, "velocity": 120}, {"time": 40683, "pitch": 84, "duration": 21, "velocity": 120}, {"time": 40804, "pitch": 72, "duration": 19, "velocity": 120}, {"time": 40922, "pitch": 79, "duration": 19, "velocity": 120}, {"time": 41039, "pitch": 79, "duration": 20, "velocity": 120}, {"time": 41157, "pitch": 84, "duration": 20, "velocity": 120}, {"time": 41275, "pitch": 72, "duration": 20, "velocity": 120}, {"time": 41395, "pitch": 79, "duration": 20, "velocity": 120}, {"time": 41516, "pitch": 91, "duration": 20, "velocity": 120}, {"time": 41636, "pitch": 84, "duration": 20, "velocity": 120}, {"time": 41757, "pitch": 79, "duration": 20, "velocity": 120}, {"time": 41877, "pitch": 84, "duration": 20, "velocity": 120}, {"time": 41997, "pitch": 72, "duration": 20, "velocity": 120}, {"time": 42118, "pitch": 79, "duration": 20, "velocity": 120}, {"time": 42238, "pitch": 91, "duration": 20, "velocity": 120}, {"time": 42359, "pitch": 84, "duration": 20, "velocity": 120}, {"time": 42479, "pitch": 79, "duration": 20, "velocity": 120}, {"time": 42599, "pitch": 84, "duration": 20, "velocity": 120}, {"time": 42720, "pitch": 72, "duration": 20, "velocity": 120}, {"time": 42840, "pitch": 79, "duration": 20, "velocity": 120}, {"time": 42961, "pitch": 79, "duration": 20, "velocity": 120}, {"time": 43081, "pitch": 84, "duration": 20, "velocity": 120}, {"time": 43201, "pitch": 72, "duration": 20, "velocity": 120}, {"time": 43322, "pitch": 79, "duration": 20, "velocity": 120}, {"time": 43442, "pitch": 91, "duration": 20, "velocity": 120}, {"time": 43563, "pitch": 84, "duration": 20, "velocity": 120}, {"time": 43683, "pitch": 79, "duration": 20, "velocity": 120}, {"time": 43803, "pitch": 84, "duration": 20, "velocity": 120}, {"time": 43924, "pitch": 72, "duration": 20, "velocity": 120}, {"time": 44044, "pitch": 79, "duration": 20, "velocity": 120}, {"time": 44164, "pitch": 91, "duration": 20, "velocity": 120}, {"time": 44282, "pitch": 84, "duration": 20, "velocity": 120}, {"time": 44400, "pitch": 79, "duration": 20, "velocity": 120}, {"time": 44518, "pitch": 84, "duration": 20, "velocity": 120}, {"time": 44636, "pitch": 72, "duration": 20, "velocity": 120}, {"time": 44756, "pitch": 79, "duration": 20, "velocity": 120}, {"time": 44876, "pitch": 79, "duration": 21, "velocity": 120}, {"time": 44997, "pitch": 84, "duration": 20, "velocity": 120}, {"time": 45117, "pitch": 72, "duration": 20, "velocity": 120}, {"time": 45238, "pitch": 79, "duration": 20, "velocity": 120}, {"time": 45358, "pitch": 91, "duration": 20, "velocity": 120}, {"time": 45478, "pitch": 84, "duration": 20, "velocity": 120}, {"time": 45599, "pitch": 79, "duration": 20, "velocity": 120}, {"time": 45719, "pitch": 84, "duration": 20, "velocity": 120}, {"time": 45840, "pitch": 72, "duration": 20, "velocity": 120}, {"time": 45960, "pitch": 79, "duration": 20, "velocity": 120}, {"time": 46080, "pitch": 91, "duration": 20, "velocity": 120}, {"time": 46201, "pitch": 84, "duration": 20, "velocity": 120}, {"time": 46321, "pitch": 79, "duration": 20, "velocity": 120}, {"time": 46442, "pitch": 84, "duration": 20, "velocity": 120}, {"time": 46562, "pitch": 72, "duration": 20, "velocity": 120}, {"time": 46682, "pitch": 79, "duration": 20, "velocity": 120}, {"time": 46803, "pitch": 79, "duration": 20, "velocity": 120}, {"time": 46923, "pitch": 84, "duration": 20, "velocity": 120}, {"time": 47044, "pitch": 72, "duration": 20, "velocity": 120}, {"time": 47164, "pitch": 79, "duration": 20, "velocity": 120}, {"time": 47284, "pitch": 91, "duration": 20, "velocity": 120}, {"time": 47405, "pitch": 84, "duration": 20, "velocity": 120}, {"time": 48478, "pitch": 76, "duration": 20, "velocity": 120}, {"time": 48598, "pitch": 83, "duration": 20, "velocity": 120}, {"time": 48719, "pitch": 74, "duration": 20, "velocity": 120}, {"time": 48839, "pitch": 79, "duration": 20, "velocity": 120}, {"time": 48959, "pitch": 86, "duration": 21, "velocity": 120}, {"time": 49080, "pitch": 76, "duration": 20, "velocity": 120}, {"time": 49200, "pitch": 88, "duration": 20, "velocity": 120}, {"time": 49321, "pitch": 79, "duration": 20, "velocity": 120}, {"time": 49441, "pitch": 86, "duration": 20, "velocity": 120}, {"time": 49561, "pitch": 76, "duration": 21, "velocity": 120}, {"time": 49682, "pitch": 83, "duration": 20, "velocity": 120}, {"time": 49802, "pitch": 74, "duration": 20, "velocity": 120}, {"time": 49923, "pitch": 88, "duration": 20, "velocity": 120}, {"time": 50043, "pitch": 76, "duration": 20, "velocity": 120}, {"time": 50163, "pitch": 83, "duration": 21, "velocity": 120}, {"time": 50284, "pitch": 74, "duration": 20, "velocity": 120}, {"time": 50404, "pitch": 76, "duration": 20, "velocity": 120}, {"time": 50522, "pitch": 83, "duration": 20, "velocity": 120}, {"time": 50640, "pitch": 74, "duration": 19, "velocity": 120}, {"time": 50758, "pitch": 79, "duration": 19, "velocity": 120}, {"time": 50875, "pitch": 86, "duration": 20, "velocity": 120}, {"time": 50996, "pitch": 76, "duration": 20, "velocity": 120}, {"time": 51116, "pitch": 88, "duration": 20, "velocity": 120}, {"time": 51237, "pitch": 79, "duration": 20, "velocity": 120}, {"time": 51357, "pitch": 86, "duration": 20, "velocity": 120}, {"time": 51477, "pitch": 76, "duration": 20, "velocity": 120}, {"time": 51598, "pitch": 83, "duration": 20, "velocity": 120}, {"time": 51718, "pitch": 74, "duration": 20, "velocity": 120}, {"time": 51839, "pitch": 88, "duration": 20, "velocity": 120}, {"time": 51959, "pitch": 76, "duration": 20, "velocity": 120}, {"time": 52079, "pitch": 83, "duration": 20, "velocity": 120}, {"time": 52200, "pitch": 74, "duration": 20, "velocity": 120}, {"time": 52320, "pitch": 76, "duration": 20, "velocity": 120}, {"time": 52441, "pitch": 83, "duration": 20, "velocity": 120}, {"time": 52561, "pitch": 71, "duration": 20, "velocity": 120}, {"time": 52681, "pitch": 79, "duration": 20, "velocity": 120}, {"time": 52802, "pitch": 83, "duration": 20, "velocity": 120}, {"time": 52922, "pitch": 76, "duration": 20, "velocity": 120}, {"time": 53043, "pitch": 88, "duration": 20, "velocity": 120}, {"time": 53163, "pitch": 79, "duration": 20, "velocity": 120}, {"time": 53283, "pitch": 83, "duration": 20, "velocity": 120}, {"time": 53404, "pitch": 76, "duration": 20, "velocity": 120}, {"time": 53524, "pitch": 83, "duration": 20, "velocity": 120}, {"time": 53644, "pitch": 71, "duration": 21, "velocity": 120}, {"time": 53765, "pitch": 88, "duration": 19, "velocity": 120}, {"time": 53883, "pitch": 76, "duration": 19, "velocity": 120}, {"time": 54000, "pitch": 83, "duration": 20, "velocity": 120}, {"time": 54118, "pitch": 71, "duration": 20, "velocity": 120}, {"time": 54236, "pitch": 76, "duration": 20, "velocity": 120}, {"time": 54356, "pitch": 83, "duration": 21, "velocity": 120}, {"time": 54477, "pitch": 71, "duration": 20, "velocity": 120}, {"time": 54597, "pitch": 79, "duration": 20, "velocity": 120}, {"time": 54718, "pitch": 83, "duration": 20, "velocity": 120}, {"time": 54838, "pitch": 76, "duration": 20, "velocity": 120}, {"time": 54958, "pitch": 88, "duration": 20, "velocity": 120}, {"time": 55079, "pitch": 79, "duration": 20, "velocity": 120}, {"time": 55199, "pitch": 83, "duration": 20, "velocity": 120}, {"time": 55320, "pitch": 76, "duration": 20, "velocity": 120}, {"time": 55440, "pitch": 83, "duration": 20, "velocity": 120}, {"time": 55560, "pitch": 71, "duration": 20, "velocity": 120}, {"time": 55681, "pitch": 88, "duration": 20, "velocity": 120}, {"time": 55801, "pitch": 76, "duration": 20, "velocity": 120}, {"time": 55922, "pitch": 83, "duration": 20, "velocity": 120}, {"time": 56042, "pitch": 71, "duration": 20, "velocity": 120}, {"time": 56162, "pitch": 76, "duration": 20, "velocity": 120}, {"time": 56283, "pitch": 83, "duration": 20, "velocity": 120}, {"time": 56403, "pitch": 71, "duration": 20, "velocity": 120}, {"time": 56524, "pitch": 79, "duration": 20, "velocity": 120}, {"time": 56644, "pitch": 83, "duration": 20, "velocity": 120}, {"time": 56762, "pitch": 76, "duration": 19, "velocity": 120}, {"time": 56880, "pitch": 88, "duration": 19, "velocity": 120}, {"time": 56997, "pitch": 79, "duration": 20, "velocity": 120}, {"time": 57115, "pitch": 83, "duration": 20, "velocity": 120}, {"time": 57236, "pitch": 76, "duration": 20, "velocity": 120}, {"time": 57356, "pitch": 83, "duration": 20, "velocity": 120}, {"time": 57476, "pitch": 71, "duration": 20, "velocity": 120}, {"time": 57597, "pitch": 88, "duration": 20, "velocity": 120}, {"time": 57717, "pitch": 76, "duration": 20, "velocity": 120}, {"time": 57837, "pitch": 83, "duration": 21, "velocity": 120}, {"time": 57958, "pitch": 71, "duration": 20, "velocity": 120}, {"time": 58078, "pitch": 76, "duration": 20, "velocity": 120}, {"time": 58199, "pitch": 83, "duration": 20, "velocity": 120}, {"time": 58319, "pitch": 71, "duration": 20, "velocity": 120}, {"time": 58439, "pitch": 79, "duration": 21, "velocity": 120}, {"time": 58560, "pitch": 83, "duration": 20, "velocity": 120}, {"time": 58680, "pitch": 76, "duration": 20, "velocity": 120}, {"time": 58801, "pitch": 88, "duration": 20, "velocity": 120}, {"time": 58921, "pitch": 79, "duration": 20, "velocity": 120}, {"time": 59041, "pitch": 83, "duration": 21, "velocity": 120}, {"time": 59162, "pitch": 76, "duration": 20, "velocity": 120}, {"time": 59282, "pitch": 83, "duration": 20, "velocity": 120}, {"time": 59403, "pitch": 71, "duration": 20, "velocity": 120}, {"time": 59523, "pitch": 88, "duration": 20, "velocity": 120}, {"time": 59643, "pitch": 76, "duration": 21, "velocity": 120}, {"time": 59764, "pitch": 83, "duration": 20, "velocity": 120}, {"time": 59884, "pitch": 71, "duration": 20, "velocity": 120}, {"time": 60005, "pitch": 74, "duration": 19, "velocity": 120}, {"time": 60122, "pitch": 81, "duration": 20, "velocity": 120}, {"time": 60240, "pitch": 69, "duration": 20, "velocity": 120}, {"time": 60358, "pitch": 78, "duration": 20, "velocity": 120}, {"time": 60476, "pitch": 81, "duration": 20, "velocity": 120}, {"time": 60596, "pitch": 74, "duration": 20, "velocity": 120}, {"time": 60717, "pitch": 86, "duration": 20, "velocity": 120}, {"time": 60837, "pitch": 78, "duration": 20, "velocity": 120}, {"time": 60957, "pitch": 81, "duration": 20, "velocity": 120}, {"time": 61078, "pitch": 74, "duration": 20, "velocity": 120}, {"time": 61198, "pitch": 81, "duration": 20, "velocity": 120}, {"time": 61319, "pitch": 69, "duration": 20, "velocity": 120}, {"time": 61439, "pitch": 86, "duration": 20, "velocity": 120}, {"time": 61559, "pitch": 74, "duration": 20, "velocity": 120}, {"time": 61680, "pitch": 81, "duration": 20, "velocity": 120}, {"time": 61800, "pitch": 69, "duration": 20, "velocity": 120}, {"time": 61921, "pitch": 75, "duration": 20, "velocity": 120}, {"time": 62041, "pitch": 83, "duration": 20, "velocity": 120}, {"time": 62161, "pitch": 71, "duration": 20, "velocity": 120}, {"time": 62282, "pitch": 78, "duration": 20, "velocity": 120}, {"time": 62402, "pitch": 87, "duration": 20, "velocity": 120}, {"time": 62523, "pitch": 75, "duration": 20, "velocity": 120}, {"time": 62643, "pitch": 90, "duration": 20, "velocity": 120}, {"time": 62763, "pitch": 78, "duration": 20, "velocity": 120}, {"time": 62884, "pitch": 87, "duration": 19, "velocity": 120}, {"time": 63001, "pitch": 75, "duration": 20, "velocity": 120}, {"time": 63119, "pitch": 83, "duration": 20, "velocity": 120}, {"time": 63237, "pitch": 71, "duration": 20, "velocity": 120}, {"time": 63355, "pitch": 90, "duration": 20, "velocity": 120}, {"time": 63475, "pitch": 75, "duration": 20, "velocity": 120}, {"time": 63596, "pitch": 83, "duration": 20, "velocity": 120}, {"time": 63716, "pitch": 71, "duration": 20, "velocity": 120}, {"time": 63836, "pitch": 76, "duration": 21, "velocity": 120}, {"time": 63957, "pitch": 83, "duration": 20, "velocity": 120}, {"time": 64077, "pitch": 74, "duration": 20, "velocity": 120}, {"time": 64198, "pitch": 79, "duration": 20, "velocity": 120}, {"time": 64318, "pitch": 86, "duration": 20, "velocity": 120}, {"time": 64438, "pitch": 76, "duration": 20, "velocity": 120}, {"time": 64559, "pitch": 88, "duration": 20, "velocity": 120}, {"time": 64679, "pitch": 79, "duration": 20, "velocity": 120}, {"time": 64800, "pitch": 86, "duration": 20, "velocity": 120}, {"time": 64920, "pitch": 76, "duration": 20, "velocity": 120}, {"time": 65040, "pitch": 83, "duration": 20, "velocity": 120}, {"time": 65161, "pitch": 74, "duration": 20, "velocity": 120}, {"time": 65281, "pitch": 88, "duration": 20, "velocity": 120}, {"time": 65402, "pitch": 76, "duration": 20, "velocity": 120}, {"time": 65522, "pitch": 83, "duration": 20, "velocity": 120}, {"time": 65642, "pitch": 74, "duration": 20, "velocity": 120}, {"time": 65763, "pitch": 76, "duration": 20, "velocity": 120}, {"time": 65883, "pitch": 83, "duration": 20, "velocity": 120}, {"time": 66004, "pitch": 74, "duration": 20, "velocity": 120}, {"time": 66124, "pitch": 79, "duration": 20, "velocity": 120}, {"time": 66244, "pitch": 86, "duration": 20, "velocity": 120}, {"time": 66362, "pitch": 76, "duration": 20, "velocity": 120}, {"time": 66480, "pitch": 88, "duration": 20, "velocity": 120}, {"time": 66598, "pitch": 79, "duration": 19, "velocity": 120}, {"time": 66716, "pitch": 86, "duration": 20, "velocity": 120}, {"time": 66836, "pitch": 76, "duration": 20, "velocity": 120}, {"time": 66956, "pitch": 83, "duration": 20, "velocity": 120}, {"time": 67077, "pitch": 74, "duration": 20, "velocity": 120}, {"time": 67197, "pitch": 88, "duration": 20, "velocity": 120}, {"time": 67317, "pitch": 76, "duration": 21, "velocity": 120}, {"time": 67438, "pitch": 83, "duration": 20, "velocity": 120}, {"time": 67558, "pitch": 74, "duration": 20, "velocity": 120}, {"time": 67679, "pitch": 76, "duration": 20, "velocity": 120}, {"time": 67799, "pitch": 83, "duration": 20, "velocity": 120}, {"time": 67919, "pitch": 71, "duration": 21, "velocity": 120}, {"time": 68040, "pitch": 79, "duration": 20, "velocity": 120}, {"time": 68160, "pitch": 83, "duration": 20, "velocity": 120}, {"time": 68281, "pitch": 76, "duration": 20, "velocity": 120}, {"time": 68401, "pitch": 88, "duration": 20, "velocity": 120}, {"time": 68521, "pitch": 79, "duration": 21, "velocity": 120}, {"time": 68642, "pitch": 83, "duration": 20, "velocity": 120}, {"time": 68762, "pitch": 76, "duration": 20, "velocity": 120}, {"time": 68883, "pitch": 83, "duration": 20, "velocity": 120}, {"time": 69003, "pitch": 71, "duration": 20, "velocity": 120}, {"time": 69123, "pitch": 88, "duration": 21, "velocity": 120}, {"time": 69244, "pitch": 76, "duration": 20, "velocity": 120}, {"time": 69364, "pitch": 83, "duration": 20, "velocity": 120}, {"time": 69485, "pitch": 71, "duration": 20, "velocity": 120}, {"time": 69605, "pitch": 76, "duration": 20, "velocity": 120}, {"time": 69723, "pitch": 83, "duration": 19, "velocity": 120}, {"time": 69841, "pitch": 71, "duration": 19, "velocity": 120}, {"time": 69958, "pitch": 79, "duration": 20, "velocity": 120}, {"time": 70076, "pitch": 83, "duration": 20, "velocity": 120}, {"time": 70197, "pitch": 76, "duration": 20, "velocity": 120}, {"time": 70317, "pitch": 88, "duration": 20, "velocity": 120}, {"time": 70437, "pitch": 79, "duration": 20, "velocity": 120}, {"time": 70558, "pitch": 83, "duration": 20, "velocity": 120}, {"time": 70678, "pitch": 76, "duration": 20, "velocity": 120}, {"time": 70799, "pitch": 83, "duration": 20, "velocity": 120}, {"time": 70919, "pitch": 71, "duration": 20, "velocity": 120}, {"time": 71039, "pitch": 88, "duration": 20, "velocity": 120}, {"time": 71160, "pitch": 76, "duration": 20, "velocity": 120}, {"time": 71280, "pitch": 83, "duration": 20, "velocity": 120}, {"time": 71401, "pitch": 71, "duration": 20, "velocity": 120}, {"time": 71521, "pitch": 76, "duration": 20, "velocity": 120}, {"time": 71641, "pitch": 83, "duration": 20, "velocity": 120}, {"time": 71762, "pitch": 71, "duration": 20, "velocity": 120}, {"time": 71882, "pitch": 79, "duration": 20, "velocity": 120}, {"time": 72003, "pitch": 83, "duration": 20, "velocity": 120}, {"time": 72123, "pitch": 76, "duration": 20, "velocity": 120}, {"time": 72243, "pitch": 88, "duration": 20, "velocity": 120}, {"time": 72364, "pitch": 79, "duration": 20, "velocity": 120}, {"time": 72484, "pitch": 83, "duration": 20, "velocity": 120}, {"time": 72602, "pitch": 76, "duration": 19, "velocity": 120}, {"time": 72720, "pitch": 83, "duration": 19, "velocity": 120}, {"time": 72838, "pitch": 71, "duration": 19, "velocity": 120}, {"time": 72955, "pitch": 88, "duration": 20, "velocity": 120}, {"time": 73076, "pitch": 76, "duration": 20, "velocity": 120}, {"time": 73196, "pitch": 83, "duration": 20, "velocity": 120}, {"time": 73316, "pitch": 71, "duration": 21, "velocity": 120}, {"time": 73437, "pitch": 76, "duration": 20, "velocity": 120}, {"time": 73557, "pitch": 83, "duration": 20, "velocity": 120}, {"time": 73678, "pitch": 71, "duration": 20, "velocity": 120}, {"time": 73798, "pitch": 79, "duration": 20, "velocity": 120}, {"time": 73918, "pitch": 83, "duration": 20, "velocity": 120}, {"time": 74039, "pitch": 76, "duration": 20, "velocity": 120}, {"time": 74159, "pitch": 88, "duration": 20, "velocity": 120}, {"time": 74280, "pitch": 79, "duration": 20, "velocity": 120}, {"time": 74400, "pitch": 83, "duration": 20, "velocity": 120}, {"time": 74520, "pitch": 76, "duration": 20, "velocity": 120}, {"time": 74641, "pitch": 83, "duration": 20, "velocity": 120}, {"time": 74761, "pitch": 71, "duration": 20, "velocity": 120}, {"time": 74882, "pitch": 88, "duration": 20, "velocity": 120}, {"time": 75002, "pitch": 76, "duration": 20, "velocity": 120}, {"time": 75122, "pitch": 83, "duration": 20, "velocity": 120}, {"time": 75243, "pitch": 71, "duration": 20, "velocity": 120}, {"time": 75363, "pitch": 74, "duration": 20, "velocity": 120}, {"time": 75484, "pitch": 81, "duration": 20, "velocity": 120}, {"time": 75604, "pitch": 69, "duration": 20, "velocity": 120}, {"time": 75724, "pitch": 78, "duration": 20, "velocity": 120}, {"time": 75845, "pitch": 81, "duration": 19, "velocity": 120}, {"time": 75962, "pitch": 74, "duration": 20, "velocity": 120}, {"time": 76080, "pitch": 86, "duration": 20, "velocity": 120}, {"time": 76198, "pitch": 78, "duration": 20, "velocity": 120}, {"time": 76316, "pitch": 81, "duration": 20, "velocity": 120}, {"time": 76436, "pitch": 74, "duration": 20, "velocity": 120}, {"time": 76557, "pitch": 81, "duration": 20, "velocity": 120}, {"time": 76677, "pitch": 69, "duration": 20, "velocity": 120}, {"time": 76797, "pitch": 86, "duration": 21, "velocity": 120}, {"time": 76918, "pitch": 74, "duration": 20, "velocity": 120}, {"time": 77038, "pitch": 81, "duration": 20, "velocity": 120}, {"time": 77159, "pitch": 69, "duration": 20, "velocity": 120}, {"time": 77279, "pitch": 75, "duration": 20, "velocity": 120}, {"time": 77399, "pitch": 83, "duration": 21, "velocity": 120}, {"time": 77520, "pitch": 71, "duration": 20, "velocity": 120}, {"time": 77640, "pitch": 78, "duration": 20, "velocity": 120}, {"time": 77761, "pitch": 87, "duration": 20, "velocity": 120}, {"time": 77881, "pitch": 75, "duration": 20, "velocity": 120}, {"time": 78001, "pitch": 90, "duration": 21, "velocity": 120}, {"time": 78122, "pitch": 78, "duration": 20, "velocity": 120}, {"time": 78242, "pitch": 87, "duration": 20, "velocity": 120}, {"time": 78363, "pitch": 75, "duration": 20, "velocity": 120}, {"time": 78483, "pitch": 83, "duration": 20, "velocity": 120}, {"time": 78603, "pitch": 71, "duration": 21, "velocity": 120}, {"time": 78724, "pitch": 90, "duration": 19, "velocity": 120}, {"time": 78842, "pitch": 75, "duration": 19, "velocity": 120}, {"time": 78959, "pitch": 83, "duration": 20, "velocity": 120}, {"time": 79077, "pitch": 71, "duration": 20, "velocity": 120}, {"time": 79195, "pitch": 76, "duration": 20, "velocity": 120}, {"time": 79315, "pitch": 83, "duration": 20, "velocity": 120}, {"time": 79436, "pitch": 74, "duration": 20, "velocity": 120}, {"time": 79556, "pitch": 79, "duration": 20, "velocity": 120}, {"time": 79677, "pitch": 86, "duration": 20, "velocity": 120}, {"time": 79797, "pitch": 76, "duration": 20, "velocity": 120}, {"time": 79917, "pitch": 88, "duration": 20, "velocity": 120}, {"time": 80038, "pitch": 79, "duration": 20, "velocity": 120}, {"time": 80158, "pitch": 86, "duration": 20, "velocity": 120}, {"time": 80279, "pitch": 76, "duration": 20, "velocity": 120}, {"time": 80399, "pitch": 83, "duration": 20, "velocity": 120}, {"time": 80519, "pitch": 74, "duration": 20, "velocity": 120}, {"time": 80640, "pitch": 88, "duration": 20, "velocity": 120}, {"time": 80760, "pitch": 76, "duration": 20, "velocity": 120}, {"time": 80881, "pitch": 83, "duration": 20, "velocity": 120}, {"time": 81001, "pitch": 74, "duration": 20, "velocity": 120}, {"time": 81121, "pitch": 76, "duration": 20, "velocity": 120}, {"time": 81242, "pitch": 83, "duration": 20, "velocity": 120}, {"time": 81362, "pitch": 74, "duration": 20, "velocity": 120}, {"time": 81483, "pitch": 79, "duration": 20, "velocity": 120}, {"time": 81603, "pitch": 86, "duration": 20, "velocity": 120}, {"time": 81723, "pitch": 76, "duration": 20, "velocity": 120}, {"time": 81844, "pitch": 88, "duration": 20, "velocity": 120}, {"time": 81964, "pitch": 79, "duration": 20, "velocity": 120}, {"time": 82084, "pitch": 86, "duration": 20, "velocity": 120}, {"time": 82202, "pitch": 76, "duration": 20, "velocity": 120}, {"time": 82320, "pitch": 83, "duration": 20, "velocity": 120}, {"time": 82438, "pitch": 74, "duration": 20, "velocity": 120}, {"time": 82556, "pitch": 88, "duration": 20, "velocity": 120}, {"time": 82676, "pitch": 76, "duration": 20, "velocity": 120}, {"time": 82796, "pitch": 83, "duration": 21, "velocity": 120}, {"time": 82917, "pitch": 74, "duration": 20, "velocity": 120}, {"time": 83037, "pitch": 76, "duration": 20, "velocity": 120}, {"time": 83158, "pitch": 83, "duration": 20, "velocity": 120}, {"time": 83278, "pitch": 71, "duration": 20, "velocity": 120}, {"time": 83398, "pitch": 79, "duration": 20, "velocity": 120}, {"time": 83519, "pitch": 83, "duration": 20, "velocity": 120}, {"time": 83639, "pitch": 76, "duration": 20, "velocity": 120}, {"time": 83760, "pitch": 88, "duration": 20, "velocity": 120}, {"time": 83880, "pitch": 79, "duration": 20, "velocity": 120}, {"time": 84000, "pitch": 83, "duration": 20, "velocity": 120}, {"time": 84121, "pitch": 76, "duration": 20, "velocity": 120}, {"time": 84241, "pitch": 83, "duration": 20, "velocity": 120}, {"time": 84362, "pitch": 71, "duration": 20, "velocity": 120}, {"time": 84482, "pitch": 88, "duration": 20, "velocity": 120}, {"time": 84602, "pitch": 76, "duration": 20, "velocity": 120}, {"time": 84723, "pitch": 83, "duration": 20, "velocity": 120}, {"time": 84843, "pitch": 71, "duration": 20, "velocity": 120}, {"time": 84964, "pitch": 76, "duration": 20, "velocity": 120}, {"time": 85084, "pitch": 83, "duration": 20, "velocity": 120}, {"time": 85204, "pitch": 71, "duration": 20, "velocity": 120}, {"time": 85325, "pitch": 79, "duration": 20, "velocity": 120}, {"time": 85445, "pitch": 83, "duration": 20, "velocity": 120}, {"time": 85563, "pitch": 76, "duration": 20, "velocity": 120}, {"time": 85681, "pitch": 88, "duration": 19, "velocity": 120}, {"time": 85799, "pitch": 79, "duration": 19, "velocity": 120}, {"time": 85916, "pitch": 83, "duration": 20, "velocity": 120}, {"time": 86037, "pitch": 76, "duration": 20, "velocity": 120}, {"time": 86157, "pitch": 83, "duration": 20, "velocity": 120}, {"time": 86277, "pitch": 71, "duration": 21, "velocity": 120}, {"time": 86398, "pitch": 88, "duration": 20, "velocity": 120}, {"time": 86518, "pitch": 76, "duration": 20, "velocity": 120}, {"time": 86639, "pitch": 83, "duration": 20, "velocity": 120}, {"time": 86759, "pitch": 71, "duration": 20, "velocity": 120}, {"time": 86879, "pitch": 76, "duration": 21, "velocity": 120}, {"time": 87000, "pitch": 83, "duration": 20, "velocity": 120}, {"time": 87120, "pitch": 71, "duration": 20, "velocity": 120}, {"time": 87241, "pitch": 79, "duration": 20, "velocity": 120}, {"time": 87361, "pitch": 83, "duration": 20, "velocity": 120}, {"time": 87481, "pitch": 76, "duration": 21, "velocity": 120}, {"time": 87602, "pitch": 88, "duration": 20, "velocity": 120}, {"time": 87722, "pitch": 79, "duration": 20, "velocity": 120}, {"time": 87843, "pitch": 83, "duration": 20, "velocity": 120}, {"time": 87963, "pitch": 76, "duration": 20, "velocity": 120}, {"time": 88083, "pitch": 83, "duration": 21, "velocity": 120}, {"time": 88204, "pitch": 71, "duration": 20, "velocity": 120}, {"time": 88324, "pitch": 88, "duration": 20, "velocity": 120}, {"time": 88442, "pitch": 76, "duration": 20, "velocity": 120}, {"time": 88560, "pitch": 83, "duration": 19, "velocity": 120}, {"time": 88678, "pitch": 71, "duration": 19, "velocity": 120}, {"time": 88795, "pitch": 76, "duration": 20, "velocity": 120}, {"time": 88916, "pitch": 83, "duration": 20, "velocity": 120}, {"time": 89036, "pitch": 71, "duration": 20, "velocity": 120}, {"time": 89157, "pitch": 79, "duration": 20, "velocity": 120}, {"time": 89277, "pitch": 83, "duration": 20, "velocity": 120}, {"time": 89397, "pitch": 76, "duration": 20, "velocity": 120}, {"time": 89518, "pitch": 88, "duration": 20, "velocity": 120}, {"time": 89638, "pitch": 79, "duration": 20, "velocity": 120}, {"time": 89759, "pitch": 83, "duration": 20, "velocity": 120}, {"time": 89879, "pitch": 76, "duration": 20, "velocity": 120}, {"time": 89999, "pitch": 83, "duration": 20, "velocity": 120}, {"time": 90120, "pitch": 71, "duration": 20, "velocity": 120}, {"time": 90240, "pitch": 88, "duration": 20, "velocity": 120}, {"time": 90361, "pitch": 76, "duration": 20, "velocity": 120}, {"time": 90481, "pitch": 83, "duration": 20, "velocity": 120}, {"time": 90601, "pitch": 71, "duration": 20, "velocity": 120}, {"time": 90722, "pitch": 76, "duration": 20, "velocity": 120}, {"time": 90842, "pitch": 83, "duration": 20, "velocity": 120}, {"time": 90963, "pitch": 71, "duration": 20, "velocity": 120}, {"time": 91083, "pitch": 79, "duration": 20, "velocity": 120}, {"time": 91203, "pitch": 83, "duration": 20, "velocity": 120}, {"time": 91324, "pitch": 76, "duration": 20, "velocity": 120}, {"time": 91444, "pitch": 88, "duration": 20, "velocity": 120}, {"time": 91564, "pitch": 79, "duration": 21, "velocity": 120}, {"time": 91685, "pitch": 83, "duration": 19, "velocity": 120}, {"time": 91803, "pitch": 76, "duration": 19, "velocity": 120}, {"time": 91920, "pitch": 83, "duration": 20, "velocity": 120}, {"time": 92038, "pitch": 71, "duration": 20, "velocity": 120}, {"time": 92156, "pitch": 88, "duration": 20, "velocity": 120}, {"time": 92276, "pitch": 76, "duration": 21, "velocity": 120}, {"time": 92397, "pitch": 83, "duration": 20, "velocity": 120}, {"time": 92517, "pitch": 71, "duration": 20, "velocity": 120}, {"time": 92638, "pitch": 75, "duration": 20, "velocity": 120}, {"time": 92758, "pitch": 83, "duration": 20, "velocity": 120}, {"time": 92878, "pitch": 71, "duration": 20, "velocity": 120}, {"time": 92999, "pitch": 78, "duration": 20, "velocity": 120}, {"time": 93119, "pitch": 87, "duration": 20, "velocity": 120}, {"time": 93240, "pitch": 75, "duration": 20, "velocity": 120}, {"time": 93360, "pitch": 90, "duration": 20, "velocity": 120}, {"time": 93480, "pitch": 78, "duration": 20, "velocity": 120}, {"time": 93601, "pitch": 87, "duration": 20, "velocity": 120}, {"time": 93721, "pitch": 75, "duration": 20, "velocity": 120}, {"time": 93842, "pitch": 83, "duration": 20, "velocity": 120}, {"time": 93962, "pitch": 71, "duration": 20, "velocity": 120}, {"time": 94082, "pitch": 90, "duration": 20, "velocity": 120}, {"time": 94203, "pitch": 75, "duration": 20, "velocity": 120}, {"time": 94323, "pitch": 83, "duration": 20, "velocity": 120}, {"time": 94444, "pitch": 71, "duration": 20, "velocity": 120}, {"time": 94564, "pitch": 79, "duration": 20, "velocity": 120}, {"time": 94682, "pitch": 86, "duration": 19, "velocity": 120}, {"time": 94800, "pitch": 74, "duration": 19, "velocity": 120}, {"time": 94917, "pitch": 79, "duration": 20, "velocity": 120}, {"time": 95035, "pitch": 90, "duration": 20, "velocity": 120}, {"time": 95156, "pitch": 83, "duration": 20, "velocity": 120}, {"time": 95276, "pitch": 86, "duration": 20, "velocity": 120}, {"time": 95396, "pitch": 79, "duration": 20, "velocity": 120}, {"time": 95517, "pitch": 69, "duration": 20, "velocity": 120}, {"time": 95637, "pitch": 76, "duration": 20, "velocity": 120}, {"time": 95757, "pitch": 85, "duration": 21, "velocity": 120}, {"time": 95878, "pitch": 88, "duration": 20, "velocity": 120}, {"time": 95998, "pitch": 81, "duration": 20, "velocity": 120}, {"time": 96119, "pitch": 85, "duration": 20, "velocity": 120}, {"time": 96239, "pitch": 73, "duration": 20, "velocity": 120}, {"time": 96359, "pitch": 76, "duration": 21, "velocity": 120}, {"time": 96480, "pitch": 78, "duration": 20, "velocity": 120}, {"time": 96600, "pitch": 85, "duration": 20, "velocity": 120}, {"time": 96721, "pitch": 73, "duration": 20, "velocity": 120}, {"time": 96841, "pitch": 78, "duration": 20, "velocity": 120}, {"time": 96961, "pitch": 88, "duration": 21, "velocity": 120}, {"time": 97082, "pitch": 81, "duration": 20, "velocity": 120}, {"time": 97202, "pitch": 85, "duration": 20, "velocity": 120}, {"time": 97323, "pitch": 78, "duration": 20, "velocity": 120}, {"time": 97443, "pitch": 71, "duration": 20, "velocity": 120}, {"time": 97563, "pitch": 78, "duration": 21, "velocity": 120}, {"time": 97684, "pitch": 86, "duration": 20, "velocity": 120}, {"time": 97804, "pitch": 90, "duration": 20, "velocity": 120}, {"time": 97925, "pitch": 83, "duration": 19, "velocity": 120}, {"time": 98042, "pitch": 86, "duration": 20, "velocity": 120}, {"time": 98160, "pitch": 74, "duration": 20, "velocity": 120}, {"time": 98278, "pitch": 78, "duration": 20, "velocity": 120}, {"time": 98396, "pitch": 79, "duration": 20, "velocity": 120}, {"time": 98516, "pitch": 86, "duration": 20, "velocity": 120}, {"time": 98637, "pitch": 74, "duration": 20, "velocity": 120}, {"time": 98757, "pitch": 79, "duration": 20, "velocity": 120}, {"time": 98877, "pitch": 90, "duration": 20, "velocity": 120}, {"time": 98998, "pitch": 83, "duration": 20, "velocity": 120}, {"time": 99118, "pitch": 86, "duration": 20, "velocity": 120}, {"time": 99239, "pitch": 79, "duration": 20, "velocity": 120}, {"time": 99359, "pitch": 69, "duration": 20, "velocity": 120}, {"time": 99479, "pitch": 76, "duration": 20, "velocity": 120}, {"time": 99600, "pitch": 85, "duration": 20, "velocity": 120}, {"time": 99720, "pitch": 88, "duration": 20, "velocity": 120}, {"time": 99841, "pitch": 81, "duration": 20, "velocity": 120}, {"time": 99961, "pitch": 85, "duration": 20, "velocity": 120}, {"time": 100081, "pitch": 73, "duration": 20, "velocity": 120}, {"time": 100202, "pitch": 76, "duration": 20, "velocity": 120}, {"time": 100322, "pitch": 79, "duration": 20, "velocity": 120}, {"time": 100443, "pitch": 86, "duration": 20, "velocity": 120}, {"time": 100563, "pitch": 74, "duration": 20, "velocity": 120}, {"time": 100683, "pitch": 79, "duration": 20, "velocity": 120}, {"time": 100804, "pitch": 90, "duration": 19, "velocity": 120}, {"time": 100921, "pitch": 83, "duration": 20, "velocity": 120}, {"time": 101039, "pitch": 86, "duration": 20, "velocity": 120}, {"time": 101157, "pitch": 79, "duration": 20, "velocity": 120}, {"time": 101275, "pitch": 69, "duration": 20, "velocity": 120}, {"time": 101395, "pitch": 76, "duration": 20, "velocity": 120}, {"time": 101516, "pitch": 85, "duration": 20, "velocity": 120}, {"time": 101636, "pitch": 88, "duration": 20, "velocity": 120}, {"time": 101756, "pitch": 81, "duration": 21, "velocity": 120}, {"time": 101877, "pitch": 85, "duration": 20, "velocity": 120}, {"time": 101997, "pitch": 73, "duration": 20, "velocity": 120}, {"time": 102118, "pitch": 76, "duration": 20, "velocity": 120}, {"time": 102238, "pitch": 79, "duration": 20, "velocity": 120}, {"time": 102358, "pitch": 86, "duration": 20, "velocity": 120}, {"time": 102479, "pitch": 74, "duration": 20, "velocity": 120}, {"time": 102599, "pitch": 79, "duration": 20, "velocity": 120}, {"time": 102720, "pitch": 90, "duration": 20, "velocity": 120}, {"time": 102840, "pitch": 83, "duration": 20, "velocity": 120}, {"time": 102960, "pitch": 86, "duration": 20, "velocity": 120}, {"time": 103081, "pitch": 79, "duration": 20, "velocity": 120}, {"time": 103201, "pitch": 69, "duration": 20, "velocity": 120}, {"time": 103322, "pitch": 76, "duration": 20, "velocity": 120}, {"time": 103442, "pitch": 85, "duration": 20, "velocity": 120}, {"time": 103562, "pitch": 88, "duration": 20, "velocity": 120}, {"time": 103683, "pitch": 81, "duration": 20, "velocity": 120}, {"time": 103803, "pitch": 85, "duration": 20, "velocity": 120}, {"time": 103924, "pitch": 73, "duration": 20, "velocity": 120}, {"time": 104044, "pitch": 76, "duration": 20, "velocity": 120}, {"time": 104164, "pitch": 78, "duration": 20, "velocity": 120}, {"time": 104282, "pitch": 85, "duration": 20, "velocity": 120}, {"time": 104400, "pitch": 73, "duration": 20, "velocity": 120}, {"time": 104518, "pitch": 78, "duration": 19, "velocity": 120}, {"time": 104636, "pitch": 88, "duration": 20, "velocity": 120}, {"time": 104756, "pitch": 81, "duration": 20, "velocity": 120}, {"time": 104876, "pitch": 85, "duration": 20, "velocity": 120}, {"time": 104997, "pitch": 78, "duration": 20, "velocity": 120}, {"time": 105117, "pitch": 71, "duration": 20, "velocity": 120}, {"time": 105237, "pitch": 78, "duration": 21, "velocity": 120}, {"time": 105358, "pitch": 86, "duration": 20, "velocity": 120}, {"time": 105478, "pitch": 90, "duration": 20, "velocity": 120}, {"time": 105599, "pitch": 83, "duration": 20, "velocity": 120}, {"time": 105719, "pitch": 86, "duration": 20, "velocity": 120}, {"time": 105839, "pitch": 74, "duration": 21, "velocity": 120}, {"time": 105960, "pitch": 78, "duration": 20, "velocity": 120}, {"time": 106080, "pitch": 79, "duration": 20, "velocity": 120}, {"time": 106201, "pitch": 86, "duration": 20, "velocity": 120}, {"time": 106321, "pitch": 74, "duration": 20, "velocity": 120}, {"time": 106441, "pitch": 79, "duration": 21, "velocity": 120}, {"time": 106562, "pitch": 90, "duration": 20, "velocity": 120}, {"time": 106682, "pitch": 83, "duration": 20, "velocity": 120}, {"time": 106803, "pitch": 86, "duration": 20, "velocity": 120}, {"time": 106923, "pitch": 79, "duration": 20, "velocity": 120}, {"time": 107043, "pitch": 69, "duration": 21, "velocity": 120}, {"time": 107164, "pitch": 76, "duration": 20, "velocity": 120}, {"time": 107284, "pitch": 85, "duration": 20, "velocity": 120}, {"time": 107405, "pitch": 88, "duration": 20, "velocity": 120}, {"time": 107525, "pitch": 81, "duration": 20, "velocity": 120}, {"time": 107643, "pitch": 85, "duration": 19, "velocity": 120}, {"time": 107761, "pitch": 73, "duration": 19, "velocity": 120}, {"time": 107878, "pitch": 76, "duration": 20, "velocity": 120}, {"time": 107996, "pitch": 80, "duration": 20, "velocity": 120}, {"time": 108117, "pitch": 88, "duration": 20, "velocity": 120}, {"time": 108237, "pitch": 76, "duration": 20, "velocity": 120}, {"time": 108357, "pitch": 83, "duration": 20, "velocity": 120}, {"time": 108478, "pitch": 92, "duration": 20, "velocity": 120}, {"time": 108598, "pitch": 83, "duration": 20, "velocity": 120}, {"time": 108719, "pitch": 88, "duration": 20, "velocity": 120}, {"time": 108839, "pitch": 80, "duration": 20, "velocity": 120}, {"time": 108959, "pitch": 71, "duration": 20, "velocity": 120}, {"time": 109080, "pitch": 76, "duration": 20, "velocity": 120}, {"time": 109200, "pitch": 83, "duration": 20, "velocity": 120}, {"time": 109321, "pitch": 88, "duration": 20, "velocity": 120}, {"time": 109441, "pitch": 80, "duration": 20, "velocity": 120}, {"time": 109561, "pitch": 83, "duration": 20, "velocity": 120}, {"time": 109682, "pitch": 71, "duration": 20, "velocity": 120}, {"time": 109802, "pitch": 76, "duration": 20, "velocity": 120}, {"time": 109923, "pitch": 80, "duration": 20, "velocity": 120}, {"time": 110043, "pitch": 88, "duration": 20, "velocity": 120}, {"time": 110163, "pitch": 76, "duration": 20, "velocity": 120}, {"time": 110284, "pitch": 83, "duration": 20, "velocity": 120}, {"time": 110404, "pitch": 92, "duration": 20, "velocity": 120}, {"time": 110522, "pitch": 83, "duration": 19, "velocity": 120}, {"time": 110640, "pitch": 88, "duration": 19, "velocity": 120}, {"time": 110758, "pitch": 80, "duration": 19, "velocity": 120}, {"time": 110875, "pitch": 71, "duration": 20, "velocity": 120}, {"time": 110996, "pitch": 76, "duration": 20, "velocity": 120}, {"time": 111116, "pitch": 83, "duration": 20, "velocity": 120}, {"time": 111236, "pitch": 88, "duration": 21, "velocity": 120}, {"time": 111357, "pitch": 80, "duration": 20, "velocity": 120}, {"time": 111477, "pitch": 83, "duration": 20, "velocity": 120}, {"time": 111598, "pitch": 71, "duration": 20, "velocity": 120}, {"time": 111718, "pitch": 76, "duration": 20, "velocity": 120}, {"time": 111838, "pitch": 72, "duration": 20, "velocity": 120}, {"time": 111959, "pitch": 79, "duration": 20, "velocity": 120}, {"time": 112079, "pitch": 79, "duration": 20, "velocity": 120}, {"time": 112200, "pitch": 84, "duration": 20, "velocity": 120}, {"time": 112320, "pitch": 72, "duration": 20, "velocity": 120}, {"time": 112440, "pitch": 79, "duration": 20, "velocity": 120}, {"time": 112561, "pitch": 91, "duration": 20, "velocity": 120}, {"time": 112681, "pitch": 84, "duration": 20, "velocity": 120}, {"time": 112802, "pitch": 79, "duration": 20, "velocity": 120}, {"time": 112922, "pitch": 84, "duration": 20, "velocity": 120}, {"time": 113042, "pitch": 72, "duration": 20, "velocity": 120}, {"time": 113163, "pitch": 79, "duration": 20, "velocity": 120}, {"time": 113283, "pitch": 91, "duration": 20, "velocity": 120}, {"time": 113404, "pitch": 84, "duration": 20, "velocity": 120}, {"time": 113524, "pitch": 79, "duration": 20, "velocity": 120}, {"time": 113644, "pitch": 84, "duration": 20, "velocity": 120}, {"time": 113765, "pitch": 72, "duration": 19, "velocity": 120}, {"time": 113882, "pitch": 79, "duration": 20, "velocity": 120}, {"time": 114000, "pitch": 79, "duration": 20, "velocity": 120}, {"time": 114118, "pitch": 84, "duration": 20, "velocity": 120}, {"time": 114236, "pitch": 72, "duration": 20, "velocity": 120}, {"time": 114356, "pitch": 79, "duration": 20, "velocity": 120}, {"time": 114477, "pitch": 91, "duration": 20, "velocity": 120}, {"time": 114597, "pitch": 84, "duration": 20, "velocity": 120}, {"time": 114717, "pitch": 79, "duration": 21, "velocity": 120}, {"time": 114838, "pitch": 84, "duration": 20, "velocity": 120}, {"time": 114958, "pitch": 72, "duration": 20, "velocity": 120}, {"time": 115079, "pitch": 79, "duration": 20, "velocity": 120}, {"time": 115199, "pitch": 91, "duration": 20, "velocity": 120}, {"time": 115319, "pitch": 84, "duration": 21, "velocity": 120}, {"time": 115440, "pitch": 79, "duration": 20, "velocity": 120}, {"time": 115560, "pitch": 84, "duration": 20, "velocity": 120}, {"time": 115681, "pitch": 72, "duration": 20, "velocity": 120}, {"time": 115801, "pitch": 79, "duration": 20, "velocity": 120}, {"time": 115921, "pitch": 79, "duration": 21, "velocity": 120}, {"time": 116042, "pitch": 84, "duration": 20, "velocity": 120}, {"time": 116162, "pitch": 72, "duration": 20, "velocity": 120}, {"time": 116283, "pitch": 79, "duration": 20, "velocity": 120}, {"time": 116403, "pitch": 91, "duration": 20, "velocity": 120}, {"time": 116523, "pitch": 84, "duration": 21, "velocity": 120}, {"time": 116644, "pitch": 79, "duration": 19, "velocity": 120}, {"time": 116762, "pitch": 84, "duration": 19, "velocity": 120}, {"time": 116879, "pitch": 72, "duration": 20, "velocity": 120}, {"time": 116997, "pitch": 79, "duration": 20, "velocity": 120}, {"time": 117115, "pitch": 91, "duration": 20, "velocity": 120}, {"time": 117235, "pitch": 84, "duration": 20, "velocity": 120}, {"time": 117356, "pitch": 79, "duration": 20, "velocity": 120}, {"time": 117476, "pitch": 84, "duration": 20, "velocity": 120}, {"time": 117597, "pitch": 72, "duration": 20, "velocity": 120}, {"time": 117717, "pitch": 79, "duration": 20, "velocity": 120}, {"time": 117837, "pitch": 79, "duration": 20, "velocity": 120}, {"time": 117958, "pitch": 84, "duration": 20, "velocity": 120}, {"time": 118078, "pitch": 72, "duration": 20, "velocity": 120}, {"time": 118199, "pitch": 79, "duration": 20, "velocity": 120}, {"time": 118319, "pitch": 91, "duration": 20, "velocity": 120}, {"time": 118439, "pitch": 84, "duration": 20, "velocity": 120}, {"time": 118560, "pitch": 79, "duration": 20, "velocity": 120}, {"time": 118680, "pitch": 84, "duration": 20, "velocity": 120}, {"time": 118801, "pitch": 72, "duration": 20, "velocity": 120}, {"time": 118921, "pitch": 79, "duration": 20, "velocity": 120}, {"time": 119041, "pitch": 91, "duration": 20, "velocity": 120}, {"time": 119162, "pitch": 84, "duration": 20, "velocity": 120}, {"time": 119282, "pitch": 79, "duration": 20, "velocity": 120}, {"time": 119403, "pitch": 84, "duration": 20, "velocity": 120}, {"time": 119523, "pitch": 72, "duration": 20, "velocity": 120}, {"time": 119643, "pitch": 79, "duration": 20, "velocity": 120}, {"time": 119764, "pitch": 79, "duration": 20, "velocity": 120}, {"time": 119884, "pitch": 84, "duration": 20, "velocity": 120}, {"time": 120004, "pitch": 72, "duration": 20, "velocity": 120}, {"time": 120122, "pitch": 79, "duration": 20, "velocity": 120}, {"time": 120240, "pitch": 91, "duration": 20, "velocity": 120}, {"time": 120358, "pitch": 84, "duration": 20, "velocity": 120}, {"time": 120476, "pitch": 79, "duration": 20, "velocity": 120}, {"time": 120596, "pitch": 84, "duration": 20, "velocity": 120}, {"time": 120716, "pitch": 72, "duration": 21, "velocity": 120}, {"time": 120837, "pitch": 79, "duration": 20, "velocity": 120}, {"time": 120957, "pitch": 91, "duration": 20, "velocity": 120}, {"time": 121078, "pitch": 84, "duration": 20, "velocity": 120}, {"time": 121198, "pitch": 79, "duration": 20, "velocity": 120}, {"time": 121318, "pitch": 84, "duration": 20, "velocity": 120}, {"time": 121439, "pitch": 72, "duration": 20, "velocity": 120}, {"time": 121559, "pitch": 79, "duration": 20, "velocity": 120}, {"time": 121680, "pitch": 79, "duration": 20, "velocity": 120}, {"time": 121800, "pitch": 84, "duration": 20, "velocity": 120}, {"time": 121920, "pitch": 72, "duration": 20, "velocity": 120}, {"time": 122041, "pitch": 79, "duration": 20, "velocity": 120}, {"time": 122161, "pitch": 91, "duration": 20, "velocity": 120}, {"time": 122282, "pitch": 84, "duration": 20, "velocity": 120}, {"time": 122402, "pitch": 79, "duration": 20, "velocity": 120}, {"time": 122522, "pitch": 84, "duration": 20, "velocity": 120}, {"time": 122643, "pitch": 72, "duration": 20, "velocity": 120}, {"time": 122763, "pitch": 79, "duration": 20, "velocity": 120}, {"time": 122884, "pitch": 91, "duration": 20, "velocity": 120}, {"time": 123004, "pitch": 84, "duration": 20, "velocity": 120}, {"time": 123124, "pitch": 79, "duration": 20, "velocity": 120}, {"time": 123245, "pitch": 84, "duration": 20, "velocity": 120}, {"time": 123365, "pitch": 72, "duration": 20, "velocity": 120}, {"time": 123483, "pitch": 79, "duration": 20, "velocity": 120}, {"time": 123601, "pitch": 79, "duration": 19, "velocity": 120}, {"time": 123719, "pitch": 84, "duration": 19, "velocity": 120}, {"time": 123836, "pitch": 72, "duration": 20, "velocity": 120}, {"time": 123957, "pitch": 79, "duration": 20, "velocity": 120}, {"time": 124077, "pitch": 91, "duration": 20, "velocity": 120}, {"time": 124197, "pitch": 84, "duration": 21, "velocity": 120}, {"time": 124318, "pitch": 79, "duration": 20, "velocity": 120}, {"time": 124438, "pitch": 84, "duration": 20, "velocity": 120}, {"time": 124559, "pitch": 72, "duration": 20, "velocity": 120}, {"time": 124679, "pitch": 79, "duration": 20, "velocity": 120}, {"time": 124799, "pitch": 91, "duration": 21, "velocity": 120}, {"time": 124920, "pitch": 84, "duration": 20, "velocity": 120}, {"time": 125040, "pitch": 79, "duration": 20, "velocity": 120}, {"time": 125161, "pitch": 84, "duration": 20, "velocity": 120}, {"time": 125281, "pitch": 72, "duration": 20, "velocity": 120}, {"time": 125401, "pitch": 79, "duration": 21, "velocity": 120}, {"time": 125522, "pitch": 79, "duration": 20, "velocity": 120}, {"time": 125642, "pitch": 84, "duration": 20, "velocity": 120}, {"time": 125763, "pitch": 72, "duration": 20, "velocity": 120}, {"time": 125883, "pitch": 79, "duration": 20, "velocity": 120}, {"time": 126003, "pitch": 91, "duration": 21, "velocity": 120}, {"time": 126124, "pitch": 84, "duration": 20, "velocity": 120}, {"time": 127197, "pitch": 76, "duration": 20, "velocity": 120}, {"time": 127317, "pitch": 83, "duration": 20, "velocity": 120}, {"time": 127438, "pitch": 74, "duration": 20, "velocity": 120}, {"time": 127558, "pitch": 79, "duration": 20, "velocity": 120}, {"time": 127679, "pitch": 86, "duration": 20, "velocity": 120}, {"time": 127799, "pitch": 76, "duration": 20, "velocity": 120}, {"time": 127919, "pitch": 88, "duration": 20, "velocity": 120}, {"time": 128040, "pitch": 79, "duration": 20, "velocity": 120}, {"time": 128160, "pitch": 86, "duration": 20, "velocity": 120}, {"time": 128281, "pitch": 76, "duration": 20, "velocity": 120}, {"time": 128401, "pitch": 83, "duration": 20, "velocity": 120}, {"time": 128521, "pitch": 74, "duration": 20, "velocity": 120}, {"time": 128642, "pitch": 88, "duration": 20, "velocity": 120}, {"time": 128762, "pitch": 76, "duration": 20, "velocity": 120}, {"time": 128883, "pitch": 83, "duration": 20, "velocity": 120}, {"time": 129003, "pitch": 74, "duration": 20, "velocity": 120}, {"time": 129123, "pitch": 76, "duration": 20, "velocity": 120}, {"time": 129244, "pitch": 83, "duration": 20, "velocity": 120}, {"time": 129364, "pitch": 74, "duration": 20, "velocity": 120}, {"time": 129484, "pitch": 79, "duration": 21, "velocity": 120}, {"time": 129605, "pitch": 86, "duration": 19, "velocity": 120}, {"time": 129723, "pitch": 76, "duration": 19, "velocity": 120}, {"time": 129840, "pitch": 88, "duration": 20, "velocity": 120}, {"time": 129958, "pitch": 79, "duration": 20, "velocity": 120}, {"time": 130076, "pitch": 86, "duration": 20, "velocity": 120}, {"time": 130196, "pitch": 76, "duration": 21, "velocity": 120}, {"time": 130317, "pitch": 83, "duration": 20, "velocity": 120}, {"time": 130437, "pitch": 74, "duration": 20, "velocity": 120}, {"time": 130558, "pitch": 88, "duration": 20, "velocity": 120}, {"time": 130678, "pitch": 76, "duration": 20, "velocity": 120}, {"time": 130798, "pitch": 83, "duration": 20, "velocity": 120}, {"time": 130919, "pitch": 74, "duration": 20, "velocity": 120}, {"time": 131039, "pitch": 76, "duration": 20, "velocity": 120}, {"time": 131160, "pitch": 83, "duration": 20, "velocity": 120}, {"time": 131280, "pitch": 71, "duration": 20, "velocity": 120}, {"time": 131400, "pitch": 79, "duration": 20, "velocity": 120}, {"time": 131521, "pitch": 83, "duration": 20, "velocity": 120}, {"time": 131641, "pitch": 76, "duration": 20, "velocity": 120}, {"time": 131762, "pitch": 88, "duration": 20, "velocity": 120}, {"time": 131882, "pitch": 79, "duration": 20, "velocity": 120}, {"time": 132002, "pitch": 83, "duration": 20, "velocity": 120}, {"time": 132123, "pitch": 76, "duration": 20, "velocity": 120}, {"time": 132243, "pitch": 83, "duration": 20, "velocity": 120}, {"time": 132364, "pitch": 71, "duration": 20, "velocity": 120}, {"time": 132484, "pitch": 88, "duration": 20, "velocity": 120}, {"time": 132602, "pitch": 76, "duration": 19, "velocity": 120}, {"time": 132720, "pitch": 83, "duration": 19, "velocity": 120}, {"time": 132837, "pitch": 71, "duration": 20, "velocity": 120}, {"time": 132955, "pitch": 76, "duration": 20, "velocity": 120}, {"time": 133076, "pitch": 83, "duration": 20, "velocity": 120}, {"time": 133196, "pitch": 71, "duration": 20, "velocity": 120}, {"time": 133316, "pitch": 79, "duration": 20, "velocity": 120}, {"time": 133437, "pitch": 83, "duration": 20, "velocity": 120}, {"time": 133557, "pitch": 76, "duration": 20, "velocity": 120}, {"time": 133677, "pitch": 88, "duration": 21, "velocity": 120}, {"time": 133798, "pitch": 79, "duration": 20, "velocity": 120}, {"time": 133918, "pitch": 83, "duration": 20, "velocity": 120}, {"time": 134039, "pitch": 76, "duration": 20, "velocity": 120}, {"time": 134159, "pitch": 83, "duration": 20, "velocity": 120}, {"time": 134279, "pitch": 71, "duration": 21, "velocity": 120}, {"time": 134400, "pitch": 88, "duration": 20, "velocity": 120}, {"time": 134520, "pitch": 76, "duration": 20, "velocity": 120}, {"time": 134641, "pitch": 83, "duration": 20, "velocity": 120}, {"time": 134761, "pitch": 71, "duration": 20, "velocity": 120}, {"time": 134881, "pitch": 76, "duration": 21, "velocity": 120}, {"time": 135002, "pitch": 83, "duration": 20, "velocity": 120}, {"time": 135122, "pitch": 71, "duration": 20, "velocity": 120}, {"time": 135243, "pitch": 79, "duration": 20, "velocity": 120}, {"time": 135363, "pitch": 83, "duration": 20, "velocity": 120}, {"time": 135483, "pitch": 76, "duration": 21, "velocity": 120}, {"time": 135604, "pitch": 88, "duration": 20, "velocity": 120}, {"time": 135724, "pitch": 79, "duration": 20, "velocity": 120}, {"time": 135845, "pitch": 83, "duration": 19, "velocity": 120}, {"time": 135962, "pitch": 76, "duration": 20, "velocity": 120}, {"time": 136080, "pitch": 83, "duration": 20, "velocity": 120}, {"time": 136198, "pitch": 71, "duration": 20, "velocity": 120}, {"time": 136316, "pitch": 88, "duration": 20, "velocity": 120}, {"time": 136436, "pitch": 76, "duration": 20, "velocity": 120}, {"time": 136557, "pitch": 83, "duration": 20, "velocity": 120}, {"time": 136677, "pitch": 71, "duration": 20, "velocity": 120}, {"time": 136797, "pitch": 76, "duration": 20, "velocity": 120}, {"time": 136918, "pitch": 83, "duration": 20, "velocity": 120}, {"time": 137038, "pitch": 71, "duration": 20, "velocity": 120}, {"time": 137159, "pitch": 79, "duration": 20, "velocity": 120}, {"time": 137279, "pitch": 83, "duration": 20, "velocity": 120}, {"time": 137399, "pitch": 76, "duration": 20, "velocity": 120}, {"time": 137520, "pitch": 88, "duration": 20, "velocity": 120}, {"time": 137640, "pitch": 79, "duration": 20, "velocity": 120}, {"time": 137761, "pitch": 83, "duration": 20, "velocity": 120}, {"time": 137881, "pitch": 76, "duration": 20, "velocity": 120}, {"time": 138001, "pitch": 83, "duration": 20, "velocity": 120}, {"time": 138122, "pitch": 71, "duration": 20, "velocity": 120}, {"time": 138242, "pitch": 88, "duration": 20, "velocity": 120}, {"time": 138363, "pitch": 76, "duration": 20, "velocity": 120}, {"time": 138483, "pitch": 83, "duration": 20, "velocity": 120}, {"time": 138603, "pitch": 71, "duration": 20, "velocity": 120}, {"time": 138724, "pitch": 74, "duration": 19, "velocity": 120}, {"time": 138841, "pitch": 81, "duration": 20, "velocity": 120}, {"time": 138959, "pitch": 69, "duration": 20, "velocity": 120}, {"time": 139077, "pitch": 78, "duration": 20, "velocity": 120}, {"time": 139195, "pitch": 81, "duration": 20, "velocity": 120}, {"time": 139315, "pitch": 74, "duration": 20, "velocity": 120}, {"time": 139436, "pitch": 86, "duration": 20, "velocity": 120}, {"time": 139556, "pitch": 78, "duration": 20, "velocity": 120}, {"time": 139676, "pitch": 81, "duration": 21, "velocity": 120}, {"time": 139797, "pitch": 74, "duration": 20, "velocity": 120}, {"time": 139917, "pitch": 81, "duration": 20, "velocity": 120}, {"time": 140038, "pitch": 69, "duration": 20, "velocity": 120}, {"time": 140158, "pitch": 86, "duration": 20, "velocity": 120}, {"time": 140278, "pitch": 74, "duration": 20, "velocity": 120}, {"time": 140399, "pitch": 81, "duration": 20, "velocity": 120}, {"time": 140519, "pitch": 69, "duration": 20, "velocity": 120}, {"time": 140640, "pitch": 75, "duration": 20, "velocity": 120}, {"time": 140760, "pitch": 83, "duration": 20, "velocity": 120}, {"time": 140880, "pitch": 71, "duration": 20, "velocity": 120}, {"time": 141001, "pitch": 78, "duration": 20, "velocity": 120}, {"time": 141121, "pitch": 87, "duration": 20, "velocity": 120}, {"time": 141242, "pitch": 75, "duration": 20, "velocity": 120}, {"time": 141362, "pitch": 90, "duration": 20, "velocity": 120}, {"time": 141482, "pitch": 78, "duration": 20, "velocity": 120}, {"time": 141603, "pitch": 87, "duration": 20, "velocity": 120}, {"time": 141723, "pitch": 75, "duration": 20, "velocity": 120}, {"time": 141844, "pitch": 83, "duration": 20, "velocity": 120}, {"time": 141964, "pitch": 71, "duration": 20, "velocity": 120}, {"time": 142084, "pitch": 90, "duration": 20, "velocity": 120}, {"time": 142202, "pitch": 75, "duration": 20, "velocity": 120}, {"time": 142320, "pitch": 83, "duration": 20, "velocity": 120}, {"time": 142438, "pitch": 71, "duration": 19, "velocity": 120}, {"time": 142556, "pitch": 76, "duration": 20, "velocity": 120}, {"time": 142676, "pitch": 83, "duration": 20, "velocity": 120}, {"time": 142796, "pitch": 74, "duration": 20, "velocity": 120}, {"time": 142917, "pitch": 79, "duration": 20, "velocity": 120}, {"time": 143037, "pitch": 86, "duration": 20, "velocity": 120}, {"time": 143157, "pitch": 76, "duration": 21, "velocity": 120}, {"time": 143278, "pitch": 88, "duration": 20, "velocity": 120}, {"time": 143398, "pitch": 79, "duration": 20, "velocity": 120}, {"time": 143519, "pitch": 86, "duration": 20, "velocity": 120}, {"time": 143639, "pitch": 76, "duration": 20, "velocity": 120}, {"time": 143759, "pitch": 83, "duration": 21, "velocity": 120}, {"time": 143880, "pitch": 74, "duration": 20, "velocity": 120}, {"time": 144000, "pitch": 88, "duration": 20, "velocity": 120}, {"time": 144121, "pitch": 76, "duration": 20, "velocity": 120}, {"time": 144241, "pitch": 83, "duration": 20, "velocity": 120}, {"time": 144361, "pitch": 74, "duration": 21, "velocity": 120}, {"time": 144482, "pitch": 76, "duration": 20, "velocity": 120}, {"time": 144602, "pitch": 83, "duration": 20, "velocity": 120}, {"time": 144723, "pitch": 74, "duration": 20, "velocity": 120}, {"time": 144843, "pitch": 79, "duration": 20, "velocity": 120}, {"time": 144963, "pitch": 86, "duration": 21, "velocity": 120}, {"time": 145084, "pitch": 76, "duration": 20, "velocity": 120}, {"time": 145204, "pitch": 88, "duration": 20, "velocity": 120}, {"time": 145325, "pitch": 79, "duration": 20, "velocity": 120}, {"time": 145445, "pitch": 86, "duration": 20, "velocity": 120}, {"time": 145563, "pitch": 76, "duration": 19, "velocity": 120}, {"time": 145681, "pitch": 83, "duration": 19, "velocity": 120}, {"time": 145798, "pitch": 74, "duration": 20, "velocity": 120}, {"time": 145916, "pitch": 88, "duration": 20, "velocity": 120}, {"time": 146037, "pitch": 76, "duration": 20, "velocity": 120}, {"time": 146157, "pitch": 83, "duration": 20, "velocity": 120}, {"time": 146277, "pitch": 74, "duration": 20, "velocity": 120}, {"time": 146398, "pitch": 76, "duration": 20, "velocity": 120}, {"time": 146518, "pitch": 83, "duration": 20, "velocity": 120}, {"time": 146639, "pitch": 71, "duration": 20, "velocity": 120}, {"time": 146759, "pitch": 79, "duration": 20, "velocity": 120}, {"time": 146879, "pitch": 83, "duration": 20, "velocity": 120}, {"time": 147000, "pitch": 76, "duration": 20, "velocity": 120}, {"time": 147120, "pitch": 88, "duration": 20, "velocity": 120}, {"time": 147241, "pitch": 79, "duration": 20, "velocity": 120}, {"time": 147361, "pitch": 83, "duration": 20, "velocity": 120}, {"time": 147481, "pitch": 76, "duration": 20, "velocity": 120}, {"time": 147602, "pitch": 83, "duration": 20, "velocity": 120}, {"time": 147722, "pitch": 71, "duration": 20, "velocity": 120}, {"time": 147843, "pitch": 88, "duration": 20, "velocity": 120}, {"time": 147963, "pitch": 76, "duration": 20, "velocity": 120}, {"time": 148083, "pitch": 83, "duration": 20, "velocity": 120}, {"time": 148204, "pitch": 71, "duration": 20, "velocity": 120}, {"time": 148324, "pitch": 76, "duration": 20, "velocity": 120}, {"time": 148442, "pitch": 83, "duration": 19, "velocity": 120}, {"time": 148560, "pitch": 71, "duration": 19, "velocity": 120}, {"time": 148678, "pitch": 79, "duration": 19, "velocity": 120}, {"time": 148795, "pitch": 83, "duration": 20, "velocity": 120}, {"time": 148916, "pitch": 76, "duration": 20, "velocity": 120}, {"time": 149036, "pitch": 88, "duration": 20, "velocity": 120}, {"time": 149156, "pitch": 79, "duration": 21, "velocity": 120}, {"time": 149277, "pitch": 83, "duration": 20, "velocity": 120}, {"time": 149397, "pitch": 76, "duration": 20, "velocity": 120}, {"time": 149518, "pitch": 83, "duration": 20, "velocity": 120}, {"time": 149638, "pitch": 71, "duration": 20, "velocity": 120}, {"time": 149758, "pitch": 88, "duration": 20, "velocity": 120}, {"time": 149879, "pitch": 76, "duration": 20, "velocity": 120}, {"time": 149999, "pitch": 83, "duration": 20, "velocity": 120}, {"time": 150120, "pitch": 71, "duration": 20, "velocity": 120}, {"time": 150240, "pitch": 76, "duration": 20, "velocity": 120}, {"time": 150360, "pitch": 83, "duration": 20, "velocity": 120}, {"time": 150481, "pitch": 71, "duration": 20, "velocity": 120}, {"time": 150601, "pitch": 79, "duration": 20, "velocity": 120}, {"time": 150722, "pitch": 83, "duration": 20, "velocity": 120}, {"time": 150842, "pitch": 76, "duration": 20, "velocity": 120}, {"time": 150962, "pitch": 88, "duration": 20, "velocity": 120}, {"time": 151083, "pitch": 79, "duration": 20, "velocity": 120}, {"time": 151203, "pitch": 83, "duration": 20, "velocity": 120}, {"time": 151324, "pitch": 76, "duration": 20, "velocity": 120}, {"time": 151444, "pitch": 83, "duration": 20, "velocity": 120}, {"time": 151564, "pitch": 71, "duration": 20, "velocity": 120}, {"time": 151685, "pitch": 88, "duration": 19, "velocity": 120}, {"time": 151802, "pitch": 76, "duration": 20, "velocity": 120}, {"time": 151920, "pitch": 83, "duration": 20, "velocity": 120}, {"time": 152038, "pitch": 71, "duration": 20, "velocity": 120}, {"time": 152156, "pitch": 76, "duration": 20, "velocity": 120}, {"time": 152276, "pitch": 83, "duration": 20, "velocity": 120}, {"time": 152397, "pitch": 71, "duration": 20, "velocity": 120}, {"time": 152517, "pitch": 79, "duration": 20, "velocity": 120}, {"time": 152637, "pitch": 83, "duration": 21, "velocity": 120}, {"time": 152758, "pitch": 76, "duration": 20, "velocity": 120}, {"time": 152878, "pitch": 88, "duration": 20, "velocity": 120}, {"time": 152999, "pitch": 79, "duration": 20, "velocity": 120}, {"time": 153119, "pitch": 83, "duration": 20, "velocity": 120}, {"time": 153239, "pitch": 76, "duration": 21, "velocity": 120}, {"time": 153360, "pitch": 83, "duration": 20, "velocity": 120}, {"time": 153480, "pitch": 71, "duration": 20, "velocity": 120}, {"time": 153601, "pitch": 88, "duration": 20, "velocity": 120}, {"time": 153721, "pitch": 76, "duration": 20, "velocity": 120}, {"time": 153841, "pitch": 83, "duration": 21, "velocity": 120}, {"time": 153962, "pitch": 71, "duration": 20, "velocity": 120}, {"time": 154082, "pitch": 76, "duration": 20, "velocity": 120}, {"time": 154203, "pitch": 83, "duration": 20, "velocity": 120}, {"time": 154323, "pitch": 71, "duration": 20, "velocity": 120}, {"time": 154443, "pitch": 79, "duration": 21, "velocity": 120}, {"time": 154564, "pitch": 83, "duration": 19, "velocity": 120}, {"time": 154682, "pitch": 76, "duration": 19, "velocity": 120}, {"time": 154799, "pitch": 88, "duration": 20, "velocity": 120}, {"time": 154917, "pitch": 79, "duration": 20, "velocity": 120}, {"time": 155035, "pitch": 83, "duration": 20, "velocity": 120}, {"time": 155155, "pitch": 76, "duration": 20, "velocity": 120}, {"time": 155276, "pitch": 83, "duration": 20, "velocity": 120}, {"time": 155396, "pitch": 71, "duration": 20, "velocity": 120}, {"time": 155517, "pitch": 88, "duration": 20, "velocity": 120}, {"time": 155637, "pitch": 76, "duration": 20, "velocity": 120}, {"time": 155757, "pitch": 83, "duration": 20, "velocity": 120}, {"time": 155878, "pitch": 71, "duration": 20, "velocity": 120}, {"time": 155998, "pitch": 75, "duration": 20, "velocity": 120}, {"time": 156119, "pitch": 83, "duration": 20, "velocity": 120}, {"time": 156239, "pitch": 71, "duration": 20, "velocity": 120}, {"time": 156359, "pitch": 78, "duration": 20, "velocity": 120}, {"time": 156480, "pitch": 87, "duration": 20, "velocity": 120}, {"time": 156600, "pitch": 75, "duration": 20, "velocity": 120}, {"time": 156721, "pitch": 90, "duration": 20, "velocity": 120}, {"time": 156841, "pitch": 78, "duration": 20, "velocity": 120}, {"time": 156961, "pitch": 87, "duration": 20, "velocity": 120}, {"time": 157082, "pitch": 75, "duration": 20, "velocity": 120}, {"time": 157202, "pitch": 83, "duration": 20, "velocity": 120}, {"time": 157323, "pitch": 71, "duration": 20, "velocity": 120}, {"time": 157443, "pitch": 90, "duration": 20, "velocity": 120}, {"time": 157563, "pitch": 75, "duration": 20, "velocity": 120}, {"time": 157684, "pitch": 83, "duration": 20, "velocity": 120}, {"time": 157804, "pitch": 71, "duration": 20, "velocity": 120}, {"time": 157924, "pitch": 79, "duration": 20, "velocity": 120}, {"time": 158042, "pitch": 86, "duration": 20, "velocity": 120}, {"time": 158160, "pitch": 74, "duration": 20, "velocity": 120}, {"time": 158278, "pitch": 79, "duration": 20, "velocity": 120}, {"time": 158396, "pitch": 90, "duration": 20, "velocity": 120}, {"time": 158516, "pitch": 83, "duration": 20, "velocity": 120}, {"time": 158636, "pitch": 86, "duration": 21, "velocity": 120}, {"time": 158757, "pitch": 79, "duration": 20, "velocity": 120}, {"time": 158877, "pitch": 69, "duration": 20, "velocity": 120}, {"time": 158998, "pitch": 76, "duration": 20, "velocity": 120}, {"time": 159118, "pitch": 85, "duration": 20, "velocity": 120}, {"time": 159238, "pitch": 88, "duration": 20, "velocity": 120}, {"time": 159359, "pitch": 81, "duration": 20, "velocity": 120}, {"time": 159479, "pitch": 85, "duration": 20, "velocity": 120}, {"time": 159600, "pitch": 73, "duration": 20, "velocity": 120}, {"time": 159720, "pitch": 76, "duration": 20, "velocity": 120}, {"time": 159840, "pitch": 78, "duration": 20, "velocity": 120}, {"time": 159961, "pitch": 85, "duration": 20, "velocity": 120}, {"time": 160081, "pitch": 73, "duration": 20, "velocity": 120}, {"time": 160202, "pitch": 78, "duration": 20, "velocity": 120}, {"time": 160322, "pitch": 88, "duration": 20, "velocity": 120}, {"time": 160442, "pitch": 81, "duration": 20, "velocity": 120}, {"time": 160563, "pitch": 85, "duration": 20, "velocity": 120}, {"time": 160683, "pitch": 78, "duration": 20, "velocity": 120}, {"time": 160804, "pitch": 71, "duration": 20, "velocity": 120}, {"time": 160924, "pitch": 78, "duration": 20, "velocity": 120}, {"time": 161044, "pitch": 86, "duration": 20, "velocity": 120}, {"time": 161165, "pitch": 90, "duration": 20, "velocity": 120}, {"time": 161285, "pitch": 83, "duration": 20, "velocity": 120}, {"time": 161403, "pitch": 86, "duration": 20, "velocity": 120}, {"time": 161521, "pitch": 74, "duration": 19, "velocity": 120}, {"time": 161639, "pitch": 78, "duration": 19, "velocity": 120}, {"time": 161756, "pitch": 79, "duration": 20, "velocity": 120}, {"time": 161877, "pitch": 86, "duration": 20, "velocity": 120}, {"time": 161997, "pitch": 74, "duration": 20, "velocity": 120}, {"time": 162117, "pitch": 79, "duration": 21, "velocity": 120}, {"time": 162238, "pitch": 90, "duration": 20, "velocity": 120}, {"time": 162358, "pitch": 83, "duration": 20, "velocity": 120}, {"time": 162479, "pitch": 86, "duration": 20, "velocity": 120}, {"time": 162599, "pitch": 79, "duration": 20, "velocity": 120}, {"time": 162719, "pitch": 69, "duration": 21, "velocity": 120}, {"time": 162840, "pitch": 76, "duration": 20, "velocity": 120}, {"time": 162960, "pitch": 85, "duration": 20, "velocity": 120}, {"time": 163081, "pitch": 88, "duration": 20, "velocity": 120}, {"time": 163201, "pitch": 81, "duration": 20, "velocity": 120}, {"time": 163321, "pitch": 85, "duration": 21, "velocity": 120}, {"time": 163442, "pitch": 73, "duration": 20, "velocity": 120}, {"time": 163562, "pitch": 76, "duration": 20, "velocity": 120}, {"time": 163683, "pitch": 79, "duration": 20, "velocity": 120}, {"time": 163803, "pitch": 86, "duration": 20, "velocity": 120}, {"time": 163923, "pitch": 74, "duration": 21, "velocity": 120}, {"time": 164044, "pitch": 79, "duration": 20, "velocity": 120}, {"time": 164164, "pitch": 90, "duration": 20, "velocity": 120}, {"time": 164282, "pitch": 83, "duration": 20, "velocity": 120}, {"time": 164400, "pitch": 86, "duration": 19, "velocity": 120}, {"time": 164518, "pitch": 79, "duration": 19, "velocity": 120}, {"time": 164635, "pitch": 69, "duration": 20, "velocity": 120}, {"time": 164756, "pitch": 76, "duration": 20, "velocity": 120}, {"time": 164876, "pitch": 85, "duration": 20, "velocity": 120}, {"time": 164997, "pitch": 88, "duration": 20, "velocity": 120}, {"time": 165117, "pitch": 81, "duration": 20, "velocity": 120}, {"time": 165237, "pitch": 85, "duration": 20, "velocity": 120}, {"time": 165358, "pitch": 73, "duration": 20, "velocity": 120}, {"time": 165478, "pitch": 76, "duration": 20, "velocity": 120}, {"time": 165599, "pitch": 79, "duration": 20, "velocity": 120}, {"time": 165719, "pitch": 86, "duration": 20, "velocity": 120}, {"time": 165839, "pitch": 74, "duration": 20, "velocity": 120}, {"time": 165960, "pitch": 79, "duration": 20, "velocity": 120}, {"time": 166080, "pitch": 90, "duration": 20, "velocity": 120}, {"time": 166201, "pitch": 83, "duration": 20, "velocity": 120}, {"time": 166321, "pitch": 86, "duration": 20, "velocity": 120}, {"time": 166441, "pitch": 79, "duration": 20, "velocity": 120}, {"time": 166562, "pitch": 69, "duration": 20, "velocity": 120}, {"time": 166682, "pitch": 76, "duration": 20, "velocity": 120}, {"time": 166803, "pitch": 85, "duration": 20, "velocity": 120}, {"time": 166923, "pitch": 88, "duration": 20, "velocity": 120}, {"time": 167043, "pitch": 81, "duration": 20, "velocity": 120}, {"time": 167164, "pitch": 85, "duration": 20, "velocity": 120}, {"time": 167284, "pitch": 73, "duration": 20, "velocity": 120}, {"time": 167404, "pitch": 76, "duration": 21, "velocity": 120}, {"time": 167525, "pitch": 78, "duration": 19, "velocity": 120}, {"time": 167643, "pitch": 85, "duration": 19, "velocity": 120}, {"time": 167760, "pitch": 73, "duration": 20, "velocity": 120}, {"time": 167878, "pitch": 78, "duration": 20, "velocity": 120}, {"time": 167996, "pitch": 88, "duration": 20, "velocity": 120}, {"time": 168116, "pitch": 81, "duration": 21, "velocity": 120}, {"time": 168237, "pitch": 85, "duration": 20, "velocity": 120}, {"time": 168357, "pitch": 78, "duration": 20, "velocity": 120}, {"time": 168478, "pitch": 71, "duration": 20, "velocity": 120}, {"time": 168598, "pitch": 78, "duration": 20, "velocity": 120}, {"time": 168718, "pitch": 86, "duration": 20, "velocity": 120}, {"time": 168839, "pitch": 90, "duration": 20, "velocity": 120}, {"time": 168959, "pitch": 83, "duration": 20, "velocity": 120}, {"time": 169080, "pitch": 86, "duration": 20, "velocity": 120}, {"time": 169200, "pitch": 74, "duration": 20, "velocity": 120}, {"time": 169320, "pitch": 78, "duration": 20, "velocity": 120}, {"time": 169441, "pitch": 79, "duration": 20, "velocity": 120}, {"time": 169561, "pitch": 86, "duration": 20, "velocity": 120}, {"time": 169682, "pitch": 74, "duration": 20, "velocity": 120}, {"time": 169802, "pitch": 79, "duration": 20, "velocity": 120}, {"time": 169922, "pitch": 90, "duration": 20, "velocity": 120}, {"time": 170043, "pitch": 83, "duration": 20, "velocity": 120}, {"time": 170163, "pitch": 86, "duration": 20, "velocity": 120}, {"time": 170284, "pitch": 79, "duration": 20, "velocity": 120}, {"time": 170404, "pitch": 69, "duration": 20, "velocity": 120}, {"time": 170522, "pitch": 76, "duration": 19, "velocity": 120}, {"time": 170640, "pitch": 85, "duration": 19, "velocity": 120}, {"time": 170757, "pitch": 88, "duration": 20, "velocity": 120}, {"time": 170875, "pitch": 81, "duration": 20, "velocity": 120}, {"time": 170996, "pitch": 85, "duration": 20, "velocity": 120}, {"time": 171116, "pitch": 73, "duration": 20, "velocity": 120}, {"time": 171236, "pitch": 76, "duration": 20, "velocity": 120}, {"time": 171357, "pitch": 80, "duration": 20, "velocity": 120}, {"time": 171477, "pitch": 88, "duration": 20, "velocity": 120}, {"time": 171597, "pitch": 76, "duration": 21, "velocity": 120}, {"time": 171718, "pitch": 83, "duration": 20, "velocity": 120}, {"time": 171838, "pitch": 92, "duration": 20, "velocity": 120}, {"time": 171959, "pitch": 83, "duration": 20, "velocity": 120}, {"time": 172079, "pitch": 88, "duration": 20, "velocity": 120}, {"time": 172199, "pitch": 80, "duration": 21, "velocity": 120}, {"time": 172320, "pitch": 71, "duration": 20, "velocity": 120}, {"time": 172440, "pitch": 76, "duration": 20, "velocity": 120}, {"time": 172561, "pitch": 83, "duration": 20, "velocity": 120}, {"time": 172681, "pitch": 88, "duration": 20, "velocity": 120}, {"time": 172801, "pitch": 80, "duration": 21, "velocity": 120}, {"time": 172922, "pitch": 83, "duration": 20, "velocity": 120}, {"time": 173042, "pitch": 71, "duration": 20, "velocity": 120}, {"time": 173163, "pitch": 76, "duration": 20, "velocity": 120}, {"time": 173283, "pitch": 79, "duration": 20, "velocity": 120}, {"time": 173403, "pitch": 86, "duration": 21, "velocity": 120}, {"time": 173524, "pitch": 74, "duration": 20, "velocity": 120}, {"time": 173644, "pitch": 79, "duration": 20, "velocity": 120}, {"time": 173765, "pitch": 90, "duration": 19, "velocity": 120}, {"time": 173882, "pitch": 83, "duration": 20, "velocity": 120}, {"time": 174000, "pitch": 86, "duration": 20, "velocity": 120}, {"time": 174118, "pitch": 79, "duration": 20, "velocity": 120}, {"time": 174236, "pitch": 69, "duration": 20, "velocity": 120}, {"time": 174356, "pitch": 76, "duration": 20, "velocity": 120}, {"time": 174477, "pitch": 85, "duration": 20, "velocity": 120}, {"time": 174597, "pitch": 88, "duration": 20, "velocity": 120}, {"time": 174717, "pitch": 81, "duration": 20, "velocity": 120}, {"time": 174838, "pitch": 85, "duration": 20, "velocity": 120}, {"time": 174958, "pitch": 73, "duration": 20, "velocity": 120}, {"time": 175079, "pitch": 76, "duration": 20, "velocity": 120}, {"time": 175199, "pitch": 78, "duration": 20, "velocity": 120}, {"time": 175319, "pitch": 85, "duration": 20, "velocity": 120}, {"time": 175440, "pitch": 73, "duration": 20, "velocity": 120}, {"time": 175560, "pitch": 78, "duration": 20, "velocity": 120}, {"time": 175681, "pitch": 88, "duration": 20, "velocity": 120}, {"time": 175801, "pitch": 81, "duration": 20, "velocity": 120}, {"time": 175921, "pitch": 85, "duration": 20, "velocity": 120}, {"time": 176042, "pitch": 78, "duration": 20, "velocity": 120}, {"time": 176162, "pitch": 71, "duration": 20, "velocity": 120}, {"time": 176283, "pitch": 78, "duration": 20, "velocity": 120}, {"time": 176403, "pitch": 86, "duration": 20, "velocity": 120}, {"time": 176523, "pitch": 90, "duration": 20, "velocity": 120}, {"time": 176644, "pitch": 83, "duration": 19, "velocity": 120}, {"time": 176761, "pitch": 86, "duration": 20, "velocity": 120}, {"time": 176879, "pitch": 74, "duration": 20, "velocity": 120}, {"time": 176997, "pitch": 78, "duration": 20, "velocity": 120}, {"time": 177115, "pitch": 79, "duration": 20, "velocity": 120}, {"time": 177235, "pitch": 86, "duration": 20, "velocity": 120}, {"time": 177356, "pitch": 74, "duration": 20, "velocity": 120}, {"time": 177476, "pitch": 79, "duration": 20, "velocity": 120}, {"time": 177596, "pitch": 90, "duration": 21, "velocity": 120}, {"time": 177717, "pitch": 83, "duration": 20, "velocity": 120}, {"time": 177837, "pitch": 86, "duration": 20, "velocity": 120}, {"time": 177958, "pitch": 79, "duration": 20, "velocity": 120}, {"time": 178078, "pitch": 69, "duration": 20, "velocity": 120}, {"time": 178198, "pitch": 76, "duration": 20, "velocity": 120}, {"time": 178319, "pitch": 85, "duration": 20, "velocity": 120}, {"time": 178439, "pitch": 88, "duration": 20, "velocity": 120}, {"time": 178560, "pitch": 81, "duration": 20, "velocity": 120}, {"time": 178680, "pitch": 85, "duration": 20, "velocity": 120}, {"time": 178800, "pitch": 73, "duration": 20, "velocity": 120}, {"time": 178921, "pitch": 76, "duration": 20, "velocity": 120}, {"time": 179041, "pitch": 79, "duration": 20, "velocity": 120}, {"time": 179162, "pitch": 86, "duration": 20, "velocity": 120}, {"time": 179282, "pitch": 74, "duration": 20, "velocity": 120}, {"time": 179402, "pitch": 79, "duration": 20, "velocity": 120}, {"time": 179523, "pitch": 90, "duration": 20, "velocity": 120}, {"time": 179643, "pitch": 83, "duration": 20, "velocity": 120}, {"time": 179764, "pitch": 86, "duration": 20, "velocity": 120}, {"time": 179884, "pitch": 79, "duration": 20, "velocity": 120}, {"time": 180004, "pitch": 69, "duration": 20, "velocity": 120}, {"time": 180122, "pitch": 76, "duration": 20, "velocity": 120}, {"time": 180240, "pitch": 85, "duration": 20, "velocity": 120}, {"time": 180358, "pitch": 88, "duration": 19, "velocity": 120}, {"time": 180476, "pitch": 81, "duration": 20, "velocity": 120}, {"time": 180596, "pitch": 85, "duration": 20, "velocity": 120}, {"time": 180716, "pitch": 73, "duration": 20, "velocity": 120}, {"time": 180837, "pitch": 76, "duration": 20, "velocity": 120}, {"time": 180957, "pitch": 79, "duration": 20, "velocity": 120}, {"time": 181077, "pitch": 86, "duration": 21, "velocity": 120}, {"time": 181198, "pitch": 74, "duration": 20, "velocity": 120}, {"time": 181318, "pitch": 79, "duration": 20, "velocity": 120}, {"time": 181439, "pitch": 90, "duration": 20, "velocity": 120}, {"time": 181559, "pitch": 83, "duration": 20, "velocity": 120}, {"time": 181679, "pitch": 86, "duration": 21, "velocity": 120}, {"time": 181800, "pitch": 79, "duration": 20, "velocity": 120}, {"time": 181920, "pitch": 69, "duration": 20, "velocity": 120}, {"time": 182041, "pitch": 76, "duration": 20, "velocity": 120}, {"time": 182161, "pitch": 85, "duration": 20, "velocity": 120}, {"time": 182281, "pitch": 88, "duration": 21, "velocity": 120}, {"time": 182402, "pitch": 81, "duration": 20, "velocity": 120}, {"time": 182522, "pitch": 85, "duration": 20, "velocity": 120}, {"time": 182643, "pitch": 73, "duration": 20, "velocity": 120}, {"time": 182763, "pitch": 76, "duration": 20, "velocity": 120}, {"time": 182883, "pitch": 78, "duration": 21, "velocity": 120}, {"time": 183004, "pitch": 85, "duration": 20, "velocity": 120}, {"time": 183124, "pitch": 73, "duration": 20, "velocity": 120}, {"time": 183245, "pitch": 78, "duration": 20, "velocity": 120}, {"time": 183365, "pitch": 88, "duration": 20, "velocity": 120}, {"time": 183483, "pitch": 81, "duration": 19, "velocity": 120}, {"time": 183601, "pitch": 85, "duration": 19, "velocity": 120}, {"time": 183718, "pitch": 78, "duration": 20, "velocity": 120}, {"time": 183836, "pitch": 71, "duration": 20, "velocity": 120}, {"time": 183957, "pitch": 78, "duration": 20, "velocity": 120}, {"time": 184077, "pitch": 86, "duration": 20, "velocity": 120}, {"time": 184197, "pitch": 90, "duration": 20, "velocity": 120}, {"time": 184318, "pitch": 83, "duration": 20, "velocity": 120}, {"time": 184438, "pitch": 86, "duration": 20, "velocity": 120}, {"time": 184559, "pitch": 74, "duration": 20, "velocity": 120}, {"time": 184679, "pitch": 78, "duration": 20, "velocity": 120}, {"time": 184799, "pitch": 79, "duration": 20, "velocity": 120}, {"time": 184920, "pitch": 86, "duration": 20, "velocity": 120}, {"time": 185040, "pitch": 74, "duration": 20, "velocity": 120}, {"time": 185161, "pitch": 79, "duration": 20, "velocity": 120}, {"time": 185281, "pitch": 90, "duration": 20, "velocity": 120}, {"time": 185401, "pitch": 83, "duration": 20, "velocity": 120}, {"time": 185522, "pitch": 86, "duration": 20, "velocity": 120}, {"time": 185642, "pitch": 79, "duration": 20, "velocity": 120}, {"time": 185763, "pitch": 69, "duration": 20, "velocity": 120}, {"time": 185883, "pitch": 76, "duration": 20, "velocity": 120}, {"time": 186003, "pitch": 85, "duration": 20, "velocity": 120}, {"time": 186124, "pitch": 88, "duration": 20, "velocity": 120}, {"time": 186244, "pitch": 81, "duration": 20, "velocity": 120}, {"time": 186362, "pitch": 85, "duration": 19, "velocity": 120}, {"time": 186480, "pitch": 73, "duration": 19, "velocity": 120}, {"time": 186598, "pitch": 76, "duration": 19, "velocity": 120}, {"time": 186715, "pitch": 80, "duration": 20, "velocity": 120}, {"time": 186836, "pitch": 88, "duration": 20, "velocity": 120}, {"time": 186956, "pitch": 76, "duration": 20, "velocity": 120}, {"time": 187076, "pitch": 83, "duration": 21, "velocity": 120}, {"time": 187197, "pitch": 92, "duration": 20, "velocity": 120}, {"time": 187317, "pitch": 83, "duration": 20, "velocity": 120}, {"time": 187438, "pitch": 88, "duration": 20, "velocity": 120}, {"time": 187558, "pitch": 80, "duration": 20, "velocity": 120}, {"time": 187678, "pitch": 71, "duration": 20, "velocity": 120}, {"time": 187799, "pitch": 76, "duration": 20, "velocity": 120}, {"time": 187919, "pitch": 83, "duration": 20, "velocity": 120}, {"time": 188040, "pitch": 88, "duration": 20, "velocity": 120}, {"time": 188160, "pitch": 80, "duration": 20, "velocity": 120}, {"time": 188280, "pitch": 83, "duration": 20, "velocity": 120}, {"time": 188401, "pitch": 71, "duration": 20, "velocity": 120}, {"time": 188521, "pitch": 76, "duration": 20, "velocity": 120}, {"time": 188642, "pitch": 80, "duration": 20, "velocity": 120}, {"time": 188762, "pitch": 88, "duration": 20, "velocity": 120}, {"time": 188882, "pitch": 76, "duration": 20, "velocity": 120}, {"time": 189003, "pitch": 83, "duration": 20, "velocity": 120}, {"time": 189123, "pitch": 92, "duration": 20, "velocity": 120}, {"time": 189244, "pitch": 83, "duration": 20, "velocity": 120}, {"time": 189364, "pitch": 88, "duration": 20, "velocity": 120}, {"time": 189484, "pitch": 80, "duration": 20, "velocity": 120}, {"time": 189605, "pitch": 71, "duration": 19, "velocity": 120}, {"time": 189722, "pitch": 76, "duration": 20, "velocity": 120}, {"time": 189840, "pitch": 83, "duration": 20, "velocity": 120}, {"time": 189958, "pitch": 88, "duration": 20, "velocity": 120}, {"time": 190076, "pitch": 80, "duration": 20, "velocity": 120}, {"time": 190196, "pitch": 83, "duration": 20, "velocity": 120}, {"time": 190317, "pitch": 71, "duration": 20, "velocity": 120}, {"time": 190437, "pitch": 76, "duration": 20, "velocity": 120}, {"time": 190557, "pitch": 78, "duration": 21, "velocity": 120}, {"time": 190678, "pitch": 86, "duration": 20, "velocity": 120}, {"time": 190798, "pitch": 74, "duration": 20, "velocity": 120}, {"time": 190919, "pitch": 78, "duration": 20, "velocity": 120}, {"time": 191039, "pitch": 90, "duration": 20, "velocity": 120}, {"time": 191159, "pitch": 83, "duration": 21, "velocity": 120}, {"time": 191280, "pitch": 86, "duration": 20, "velocity": 120}, {"time": 191400, "pitch": 78, "duration": 20, "velocity": 120}, {"time": 191521, "pitch": 71, "duration": 20, "velocity": 120}, {"time": 191641, "pitch": 78, "duration": 20, "velocity": 120}, {"time": 191761, "pitch": 86, "duration": 21, "velocity": 120}, {"time": 191882, "pitch": 90, "duration": 20, "velocity": 120}, {"time": 192002, "pitch": 81, "duration": 20, "velocity": 120}, {"time": 192123, "pitch": 86, "duration": 20, "velocity": 120}, {"time": 192243, "pitch": 74, "duration": 20, "velocity": 120}, {"time": 192363, "pitch": 81, "duration": 21, "velocity": 120}, {"time": 192484, "pitch": 78, "duration": 19, "velocity": 120}, {"time": 192602, "pitch": 86, "duration": 19, "velocity": 120}, {"time": 192719, "pitch": 74, "duration": 20, "velocity": 120}, {"time": 192837, "pitch": 78, "duration": 20, "velocity": 120}, {"time": 192955, "pitch": 90, "duration": 20, "velocity": 120}, {"time": 193075, "pitch": 83, "duration": 20, "velocity": 120}, {"time": 193196, "pitch": 86, "duration": 20, "velocity": 120}, {"time": 193316, "pitch": 78, "duration": 20, "velocity": 120}, {"time": 193437, "pitch": 71, "duration": 20, "velocity": 120}, {"time": 193557, "pitch": 78, "duration": 20, "velocity": 120}, {"time": 193677, "pitch": 86, "duration": 20, "velocity": 120}, {"time": 193798, "pitch": 90, "duration": 20, "velocity": 120}, {"time": 193918, "pitch": 81, "duration": 20, "velocity": 120}, {"time": 194039, "pitch": 86, "duration": 20, "velocity": 120}, {"time": 194159, "pitch": 74, "duration": 20, "velocity": 120}, {"time": 194279, "pitch": 81, "duration": 20, "velocity": 120}, {"time": 194400, "pitch": 78, "duration": 20, "velocity": 120}, {"time": 194520, "pitch": 86, "duration": 20, "velocity": 120}, {"time": 194641, "pitch": 74, "duration": 20, "velocity": 120}, {"time": 194761, "pitch": 78, "duration": 20, "velocity": 120}, {"time": 194881, "pitch": 90, "duration": 20, "velocity": 120}, {"time": 195002, "pitch": 83, "duration": 20, "velocity": 120}, {"time": 195122, "pitch": 86, "duration": 20, "velocity": 120}, {"time": 195243, "pitch": 78, "duration": 20, "velocity": 120}, {"time": 195363, "pitch": 71, "duration": 20, "velocity": 120}, {"time": 195483, "pitch": 78, "duration": 20, "velocity": 120}, {"time": 195604, "pitch": 86, "duration": 20, "velocity": 120}, {"time": 195724, "pitch": 90, "duration": 20, "velocity": 120}, {"time": 195844, "pitch": 81, "duration": 20, "velocity": 120}, {"time": 195962, "pitch": 86, "duration": 20, "velocity": 120}, {"time": 196080, "pitch": 74, "duration": 20, "velocity": 120}, {"time": 196198, "pitch": 81, "duration": 20, "velocity": 120}, {"time": 196316, "pitch": 78, "duration": 20, "velocity": 120}, {"time": 196436, "pitch": 86, "duration": 20, "velocity": 120}, {"time": 196556, "pitch": 74, "duration": 21, "velocity": 120}, {"time": 196677, "pitch": 78, "duration": 20, "velocity": 120}, {"time": 196797, "pitch": 90, "duration": 20, "velocity": 120}, {"time": 196918, "pitch": 83, "duration": 20, "velocity": 120}, {"time": 197038, "pitch": 86, "duration": 20, "velocity": 120}, {"time": 197158, "pitch": 78, "duration": 20, "velocity": 120}, {"time": 197279, "pitch": 71, "duration": 20, "velocity": 120}, {"time": 197399, "pitch": 78, "duration": 20, "velocity": 120}, {"time": 197520, "pitch": 86, "duration": 20, "velocity": 120}, {"time": 197640, "pitch": 90, "duration": 20, "velocity": 120}, {"time": 197760, "pitch": 81, "duration": 20, "velocity": 120}, {"time": 197881, "pitch": 86, "duration": 20, "velocity": 120}, {"time": 198001, "pitch": 74, "duration": 20, "velocity": 120}, {"time": 198122, "pitch": 81, "duration": 20, "velocity": 120}, {"time": 198242, "pitch": 78, "duration": 20, "velocity": 120}, {"time": 198362, "pitch": 86, "duration": 20, "velocity": 120}, {"time": 198483, "pitch": 74, "duration": 20, "velocity": 120}, {"time": 198603, "pitch": 78, "duration": 20, "velocity": 120}, {"time": 198724, "pitch": 90, "duration": 20, "velocity": 120}, {"time": 198844, "pitch": 83, "duration": 20, "velocity": 120}, {"time": 198964, "pitch": 86, "duration": 20, "velocity": 120}, {"time": 199085, "pitch": 78, "duration": 20, "velocity": 120}, {"time": 199205, "pitch": 71, "duration": 20, "velocity": 120}, {"time": 199323, "pitch": 78, "duration": 20, "velocity": 120}, {"time": 199441, "pitch": 86, "duration": 19, "velocity": 120}, {"time": 199559, "pitch": 90, "duration": 19, "velocity": 120}, {"time": 199676, "pitch": 81, "duration": 20, "velocity": 120}, {"time": 199797, "pitch": 86, "duration": 20, "velocity": 120}, {"time": 199917, "pitch": 74, "duration": 20, "velocity": 120}, {"time": 200037, "pitch": 81, "duration": 21, "velocity": 120}, {"time": 200158, "pitch": 78, "duration": 20, "velocity": 120}, {"time": 200278, "pitch": 86, "duration": 20, "velocity": 120}, {"time": 200399, "pitch": 74, "duration": 20, "velocity": 120}, {"time": 200519, "pitch": 78, "duration": 20, "velocity": 120}, {"time": 200639, "pitch": 90, "duration": 21, "velocity": 120}, {"time": 200760, "pitch": 83, "duration": 20, "velocity": 120}, {"time": 200880, "pitch": 86, "duration": 20, "velocity": 120}, {"time": 201001, "pitch": 78, "duration": 20, "velocity": 120}, {"time": 201121, "pitch": 71, "duration": 20, "velocity": 120}, {"time": 201241, "pitch": 78, "duration": 21, "velocity": 120}, {"time": 201362, "pitch": 86, "duration": 20, "velocity": 120}, {"time": 201482, "pitch": 90, "duration": 20, "velocity": 120}, {"time": 201603, "pitch": 81, "duration": 20, "velocity": 120}, {"time": 201723, "pitch": 86, "duration": 20, "velocity": 120}, {"time": 201843, "pitch": 74, "duration": 21, "velocity": 120}, {"time": 201964, "pitch": 81, "duration": 20, "velocity": 120}, {"time": 202084, "pitch": 78, "duration": 20, "velocity": 120}, {"time": 202202, "pitch": 86, "duration": 20, "velocity": 120}, {"time": 202320, "pitch": 74, "duration": 19, "velocity": 120}, {"time": 202438, "pitch": 78, "duration": 19, "velocity": 120}, {"time": 202555, "pitch": 90, "duration": 20, "velocity": 120}, {"time": 202676, "pitch": 83, "duration": 20, "velocity": 120}, {"time": 202796, "pitch": 86, "duration": 20, "velocity": 120}, {"time": 202917, "pitch": 78, "duration": 20, "velocity": 120}, {"time": 203037, "pitch": 71, "duration": 20, "velocity": 120}, {"time": 203157, "pitch": 78, "duration": 20, "velocity": 120}, {"time": 203278, "pitch": 86, "duration": 20, "velocity": 120}, {"time": 203398, "pitch": 90, "duration": 20, "velocity": 120}, {"time": 203519, "pitch": 81, "duration": 20, "velocity": 120}, {"time": 203639, "pitch": 86, "duration": 20, "velocity": 120}, {"time": 203759, "pitch": 74, "duration": 20, "velocity": 120}, {"time": 203880, "pitch": 81, "duration": 20, "velocity": 120}, {"time": 204000, "pitch": 76, "duration": 20, "velocity": 120}, {"time": 204121, "pitch": 85, "duration": 20, "velocity": 120}, {"time": 204241, "pitch": 73, "duration": 20, "velocity": 120}, {"time": 204361, "pitch": 76, "duration": 20, "velocity": 120}, {"time": 204482, "pitch": 88, "duration": 20, "velocity": 120}, {"time": 204602, "pitch": 81, "duration": 20, "velocity": 120}, {"time": 204723, "pitch": 85, "duration": 20, "velocity": 120}, {"time": 204843, "pitch": 76, "duration": 20, "velocity": 120}, {"time": 204963, "pitch": 69, "duration": 20, "velocity": 120}, {"time": 205084, "pitch": 76, "duration": 20, "velocity": 120}, {"time": 205204, "pitch": 85, "duration": 20, "velocity": 120}, {"time": 205324, "pitch": 88, "duration": 21, "velocity": 120}, {"time": 205445, "pitch": 78, "duration": 19, "velocity": 120}, {"time": 205563, "pitch": 85, "duration": 19, "velocity": 120}, {"time": 205680, "pitch": 73, "duration": 20, "velocity": 120}, {"time": 205798, "pitch": 78, "duration": 20, "velocity": 120}, {"time": 205916, "pitch": 78, "duration": 20, "velocity": 120}, {"time": 206036, "pitch": 86, "duration": 21, "velocity": 120}, {"time": 206157, "pitch": 74, "duration": 20, "velocity": 120}, {"time": 206277, "pitch": 78, "duration": 20, "velocity": 120}, {"time": 206398, "pitch": 90, "duration": 20, "velocity": 120}, {"time": 206518, "pitch": 83, "duration": 20, "velocity": 120}, {"time": 206638, "pitch": 86, "duration": 20, "velocity": 120}, {"time": 206759, "pitch": 78, "duration": 20, "velocity": 120}, {"time": 206879, "pitch": 71, "duration": 20, "velocity": 120}, {"time": 207000, "pitch": 78, "duration": 20, "velocity": 120}, {"time": 207120, "pitch": 86, "duration": 20, "velocity": 120}, {"time": 207240, "pitch": 90, "duration": 20, "velocity": 120}, {"time": 207361, "pitch": 81, "duration": 20, "velocity": 120}, {"time": 207481, "pitch": 86, "duration": 20, "velocity": 120}, {"time": 207602, "pitch": 74, "duration": 20, "velocity": 120}, {"time": 207722, "pitch": 81, "duration": 20, "velocity": 120}, {"time": 207842, "pitch": 78, "duration": 20, "velocity": 120}, {"time": 207963, "pitch": 86, "duration": 20, "velocity": 120}, {"time": 208083, "pitch": 74, "duration": 20, "velocity": 120}, {"time": 208204, "pitch": 78, "duration": 20, "velocity": 120}, {"time": 208324, "pitch": 90, "duration": 20, "velocity": 120}, {"time": 208442, "pitch": 83, "duration": 19, "velocity": 120}, {"time": 208560, "pitch": 86, "duration": 19, "velocity": 120}, {"time": 208677, "pitch": 78, "duration": 20, "velocity": 120}, {"time": 208795, "pitch": 71, "duration": 20, "velocity": 120}, {"time": 208916, "pitch": 78, "duration": 20, "velocity": 120}, {"time": 209036, "pitch": 86, "duration": 20, "velocity": 120}, {"time": 209156, "pitch": 90, "duration": 20, "velocity": 120}, {"time": 209277, "pitch": 81, "duration": 20, "velocity": 120}, {"time": 209397, "pitch": 86, "duration": 20, "velocity": 120}, {"time": 209517, "pitch": 74, "duration": 21, "velocity": 120}, {"time": 209638, "pitch": 81, "duration": 20, "velocity": 120}, {"time": 209758, "pitch": 78, "duration": 20, "velocity": 120}, {"time": 209879, "pitch": 86, "duration": 20, "velocity": 120}, {"time": 209999, "pitch": 74, "duration": 20, "velocity": 120}, {"time": 210119, "pitch": 78, "duration": 21, "velocity": 120}, {"time": 210240, "pitch": 90, "duration": 20, "velocity": 120}, {"time": 210360, "pitch": 83, "duration": 20, "velocity": 120}, {"time": 210481, "pitch": 86, "duration": 20, "velocity": 120}, {"time": 210601, "pitch": 78, "duration": 20, "velocity": 120}, {"time": 210721, "pitch": 71, "duration": 21, "velocity": 120}, {"time": 210842, "pitch": 78, "duration": 20, "velocity": 120}, {"time": 210962, "pitch": 86, "duration": 20, "velocity": 120}, {"time": 211083, "pitch": 90, "duration": 20, "velocity": 120}, {"time": 211203, "pitch": 81, "duration": 20, "velocity": 120}, {"time": 211323, "pitch": 86, "duration": 21, "velocity": 120}, {"time": 211444, "pitch": 74, "duration": 20, "velocity": 120}, {"time": 211564, "pitch": 81, "duration": 20, "velocity": 120}, {"time": 211685, "pitch": 78, "duration": 19, "velocity": 120}, {"time": 211802, "pitch": 86, "duration": 20, "velocity": 120}, {"time": 211920, "pitch": 74, "duration": 20, "velocity": 120}, {"time": 212038, "pitch": 78, "duration": 20, "velocity": 120}, {"time": 212156, "pitch": 90, "duration": 20, "velocity": 120}, {"time": 212276, "pitch": 83, "duration": 20, "velocity": 120}, {"time": 212397, "pitch": 86, "duration": 20, "velocity": 120}, {"time": 212517, "pitch": 78, "duration": 20, "velocity": 120}, {"time": 212637, "pitch": 71, "duration": 20, "velocity": 120}, {"time": 212758, "pitch": 78, "duration": 20, "velocity": 120}, {"time": 212878, "pitch": 86, "duration": 20, "velocity": 120}, {"time": 212999, "pitch": 90, "duration": 20, "velocity": 120}, {"time": 213119, "pitch": 81, "duration": 20, "velocity": 120}, {"time": 213239, "pitch": 86, "duration": 20, "velocity": 120}, {"time": 213360, "pitch": 74, "duration": 20, "velocity": 120}, {"time": 213480, "pitch": 81, "duration": 20, "velocity": 120}, {"time": 213601, "pitch": 78, "duration": 20, "velocity": 120}, {"time": 213721, "pitch": 86, "duration": 20, "velocity": 120}, {"time": 213841, "pitch": 74, "duration": 20, "velocity": 120}, {"time": 213962, "pitch": 78, "duration": 20, "velocity": 120}, {"time": 214082, "pitch": 90, "duration": 20, "velocity": 120}, {"time": 214203, "pitch": 83, "duration": 20, "velocity": 120}, {"time": 214323, "pitch": 86, "duration": 20, "velocity": 120}, {"time": 214443, "pitch": 78, "duration": 20, "velocity": 120}, {"time": 214564, "pitch": 71, "duration": 19, "velocity": 120}, {"time": 214681, "pitch": 78, "duration": 20, "velocity": 120}, {"time": 214799, "pitch": 86, "duration": 20, "velocity": 120}, {"time": 214917, "pitch": 90, "duration": 20, "velocity": 120}, {"time": 215035, "pitch": 81, "duration": 20, "velocity": 120}, {"time": 215155, "pitch": 86, "duration": 20, "velocity": 120}, {"time": 215276, "pitch": 74, "duration": 20, "velocity": 120}, {"time": 215396, "pitch": 81, "duration": 20, "velocity": 120}, {"time": 215516, "pitch": 78, "duration": 21, "velocity": 120}, {"time": 215637, "pitch": 86, "duration": 20, "velocity": 120}, {"time": 215757, "pitch": 74, "duration": 20, "velocity": 120}, {"time": 215878, "pitch": 78, "duration": 20, "velocity": 120}, {"time": 215998, "pitch": 90, "duration": 20, "velocity": 120}, {"time": 216118, "pitch": 83, "duration": 20, "velocity": 120}, {"time": 216239, "pitch": 86, "duration": 20, "velocity": 120}, {"time": 216359, "pitch": 78, "duration": 20, "velocity": 120}, {"time": 216480, "pitch": 71, "duration": 20, "velocity": 120}, {"time": 216600, "pitch": 78, "duration": 20, "velocity": 120}, {"time": 216720, "pitch": 86, "duration": 20, "velocity": 120}, {"time": 216841, "pitch": 90, "duration": 20, "velocity": 120}, {"time": 216961, "pitch": 81, "duration": 20, "velocity": 120}, {"time": 217082, "pitch": 86, "duration": 20, "velocity": 120}, {"time": 217202, "pitch": 74, "duration": 20, "velocity": 120}, {"time": 217322, "pitch": 81, "duration": 20, "velocity": 120}, {"time": 217443, "pitch": 78, "duration": 20, "velocity": 120}, {"time": 217563, "pitch": 86, "duration": 20, "velocity": 120}, {"time": 217684, "pitch": 74, "duration": 20, "velocity": 120}, {"time": 217804, "pitch": 78, "duration": 20, "velocity": 120}, {"time": 217924, "pitch": 90, "duration": 20, "velocity": 120}, {"time": 218042, "pitch": 83, "duration": 20, "velocity": 120}, {"time": 218160, "pitch": 86, "duration": 20, "velocity": 120}, {"time": 218278, "pitch": 78, "duration": 19, "velocity": 120}, {"time": 218396, "pitch": 71, "duration": 20, "velocity": 120}, {"time": 218516, "pitch": 78, "duration": 20, "velocity": 120}, {"time": 218636, "pitch": 86, "duration": 20, "velocity": 120}, {"time": 218757, "pitch": 90, "duration": 20, "velocity": 120}, {"time": 218877, "pitch": 81, "duration": 20, "velocity": 120}, {"time": 218997, "pitch": 86, "duration": 21, "velocity": 120}, {"time": 219118, "pitch": 74, "duration": 20, "velocity": 120}, {"time": 219238, "pitch": 81, "duration": 20, "velocity": 120}, {"time": 219359, "pitch": 76, "duration": 20, "velocity": 120}, {"time": 219479, "pitch": 85, "duration": 20, "velocity": 120}, {"time": 219599, "pitch": 73, "duration": 21, "velocity": 120}, {"time": 219720, "pitch": 76, "duration": 20, "velocity": 120}, {"time": 219840, "pitch": 88, "duration": 20, "velocity": 120}, {"time": 219961, "pitch": 81, "duration": 20, "velocity": 120}, {"time": 220081, "pitch": 85, "duration": 20, "velocity": 120}, {"time": 220201, "pitch": 76, "duration": 21, "velocity": 120}, {"time": 220322, "pitch": 69, "duration": 20, "velocity": 120}, {"time": 220442, "pitch": 76, "duration": 20, "velocity": 120}, {"time": 220563, "pitch": 85, "duration": 20, "velocity": 120}, {"time": 220683, "pitch": 88, "duration": 20, "velocity": 120}, {"time": 220803, "pitch": 78, "duration": 21, "velocity": 120}, {"time": 220924, "pitch": 85, "duration": 20, "velocity": 120}, {"time": 221044, "pitch": 73, "duration": 20, "velocity": 120}, {"time": 221165, "pitch": 78, "duration": 20, "velocity": 120}, {"time": 221285, "pitch": 79, "duration": 20, "velocity": 120}, {"time": 221403, "pitch": 86, "duration": 19, "velocity": 120}, {"time": 221521, "pitch": 74, "duration": 19, "velocity": 120}, {"time": 221638, "pitch": 79, "duration": 20, "velocity": 120}, {"time": 221756, "pitch": 90, "duration": 20, "velocity": 120}, {"time": 221877, "pitch": 83, "duration": 20, "velocity": 120}, {"time": 221997, "pitch": 86, "duration": 20, "velocity": 120}, {"time": 222117, "pitch": 79, "duration": 20, "velocity": 120}, {"time": 222238, "pitch": 69, "duration": 20, "velocity": 120}, {"time": 222358, "pitch": 76, "duration": 20, "velocity": 120}, {"time": 222479, "pitch": 85, "duration": 20, "velocity": 120}, {"time": 222599, "pitch": 88, "duration": 20, "velocity": 120}, {"time": 222719, "pitch": 81, "duration": 20, "velocity": 120}, {"time": 222840, "pitch": 85, "duration": 20, "velocity": 120}, {"time": 222960, "pitch": 73, "duration": 20, "velocity": 120}, {"time": 223081, "pitch": 76, "duration": 20, "velocity": 120}, {"time": 223201, "pitch": 78, "duration": 20, "velocity": 120}, {"time": 223321, "pitch": 85, "duration": 20, "velocity": 120}, {"time": 223442, "pitch": 73, "duration": 20, "velocity": 120}, {"time": 223562, "pitch": 78, "duration": 20, "velocity": 120}, {"time": 223683, "pitch": 88, "duration": 20, "velocity": 120}, {"time": 223803, "pitch": 81, "duration": 20, "velocity": 120}, {"time": 223923, "pitch": 85, "duration": 20, "velocity": 120}, {"time": 224044, "pitch": 78, "duration": 20, "velocity": 120}, {"time": 224164, "pitch": 71, "duration": 20, "velocity": 120}, {"time": 224282, "pitch": 78, "duration": 19, "velocity": 120}, {"time": 224400, "pitch": 86, "duration": 19, "velocity": 120}, {"time": 224518, "pitch": 90, "duration": 19, "velocity": 120}, {"time": 224635, "pitch": 83, "duration": 20, "velocity": 120}, {"time": 224756, "pitch": 86, "duration": 20, "velocity": 120}, {"time": 224876, "pitch": 74, "duration": 20, "velocity": 120}, {"time": 224996, "pitch": 78, "duration": 21, "velocity": 120}, {"time": 225117, "pitch": 79, "duration": 20, "velocity": 120}, {"time": 225237, "pitch": 86, "duration": 20, "velocity": 120}, {"time": 225358, "pitch": 74, "duration": 20, "velocity": 120}, {"time": 225478, "pitch": 79, "duration": 20, "velocity": 120}, {"time": 225598, "pitch": 90, "duration": 20, "velocity": 120}, {"time": 225719, "pitch": 83, "duration": 20, "velocity": 120}, {"time": 225839, "pitch": 86, "duration": 20, "velocity": 120}, {"time": 225960, "pitch": 79, "duration": 20, "velocity": 120}, {"time": 226080, "pitch": 69, "duration": 20, "velocity": 120}, {"time": 226200, "pitch": 76, "duration": 20, "velocity": 120}, {"time": 226321, "pitch": 85, "duration": 20, "velocity": 120}, {"time": 226441, "pitch": 88, "duration": 20, "velocity": 120}, {"time": 226562, "pitch": 81, "duration": 20, "velocity": 120}, {"time": 226682, "pitch": 85, "duration": 20, "velocity": 120}, {"time": 226802, "pitch": 73, "duration": 20, "velocity": 120}, {"time": 226923, "pitch": 76, "duration": 20, "velocity": 120}, {"time": 227043, "pitch": 79, "duration": 20, "velocity": 120}, {"time": 227164, "pitch": 86, "duration": 20, "velocity": 120}, {"time": 227284, "pitch": 74, "duration": 20, "velocity": 120}, {"time": 227404, "pitch": 79, "duration": 20, "velocity": 120}, {"time": 227525, "pitch": 90, "duration": 19, "velocity": 120}, {"time": 227642, "pitch": 83, "duration": 20, "velocity": 120}, {"time": 227760, "pitch": 86, "duration": 20, "velocity": 120}, {"time": 227878, "pitch": 79, "duration": 20, "velocity": 120}, {"time": 227996, "pitch": 69, "duration": 20, "velocity": 120}, {"time": 228116, "pitch": 76, "duration": 20, "velocity": 120}, {"time": 228237, "pitch": 85, "duration": 20, "velocity": 120}, {"time": 228357, "pitch": 88, "duration": 20, "velocity": 120}, {"time": 228477, "pitch": 81, "duration": 21, "velocity": 120}, {"time": 228598, "pitch": 85, "duration": 20, "velocity": 120}, {"time": 228718, "pitch": 73, "duration": 20, "velocity": 120}, {"time": 228839, "pitch": 76, "duration": 20, "velocity": 120}, {"time": 228959, "pitch": 79, "duration": 20, "velocity": 120}, {"time": 229079, "pitch": 86, "duration": 21, "velocity": 120}, {"time": 229200, "pitch": 74, "duration": 20, "velocity": 120}, {"time": 229320, "pitch": 79, "duration": 20, "velocity": 120}, {"time": 229441, "pitch": 90, "duration": 20, "velocity": 120}, {"time": 229561, "pitch": 83, "duration": 20, "velocity": 120}, {"time": 229681, "pitch": 86, "duration": 21, "velocity": 120}, {"time": 229802, "pitch": 79, "duration": 20, "velocity": 120}, {"time": 229922, "pitch": 69, "duration": 20, "velocity": 120}, {"time": 230043, "pitch": 76, "duration": 20, "velocity": 120}, {"time": 230163, "pitch": 85, "duration": 20, "velocity": 120}, {"time": 230283, "pitch": 88, "duration": 21, "velocity": 120}, {"time": 230404, "pitch": 81, "duration": 19, "velocity": 120}, {"time": 230522, "pitch": 85, "duration": 19, "velocity": 120}, {"time": 230639, "pitch": 73, "duration": 20, "velocity": 120}, {"time": 230757, "pitch": 76, "duration": 20, "velocity": 120}, {"time": 230875, "pitch": 78, "duration": 20, "velocity": 120}, {"time": 230995, "pitch": 85, "duration": 20, "velocity": 120}, {"time": 231116, "pitch": 73, "duration": 20, "velocity": 120}, {"time": 231236, "pitch": 78, "duration": 20, "velocity": 120}, {"time": 231357, "pitch": 88, "duration": 20, "velocity": 120}, {"time": 231477, "pitch": 81, "duration": 20, "velocity": 120}, {"time": 231597, "pitch": 85, "duration": 20, "velocity": 120}, {"time": 231718, "pitch": 78, "duration": 20, "velocity": 120}, {"time": 231838, "pitch": 71, "duration": 20, "velocity": 120}, {"time": 231959, "pitch": 78, "duration": 20, "velocity": 120}, {"time": 232079, "pitch": 86, "duration": 20, "velocity": 120}, {"time": 232199, "pitch": 90, "duration": 20, "velocity": 120}, {"time": 232320, "pitch": 83, "duration": 20, "velocity": 120}, {"time": 232440, "pitch": 86, "duration": 20, "velocity": 120}, {"time": 232561, "pitch": 74, "duration": 20, "velocity": 120}, {"time": 232681, "pitch": 78, "duration": 20, "velocity": 120}, {"time": 232801, "pitch": 79, "duration": 20, "velocity": 120}, {"time": 232922, "pitch": 86, "duration": 20, "velocity": 120}, {"time": 233042, "pitch": 74, "duration": 20, "velocity": 120}, {"time": 233163, "pitch": 79, "duration": 20, "velocity": 120}, {"time": 233283, "pitch": 90, "duration": 20, "velocity": 120}, {"time": 233403, "pitch": 83, "duration": 20, "velocity": 120}, {"time": 233524, "pitch": 86, "duration": 20, "velocity": 120}, {"time": 233644, "pitch": 79, "duration": 20, "velocity": 120}, {"time": 233764, "pitch": 69, "duration": 20, "velocity": 120}, {"time": 233882, "pitch": 76, "duration": 20, "velocity": 120}, {"time": 234000, "pitch": 85, "duration": 20, "velocity": 120}, {"time": 234118, "pitch": 88, "duration": 20, "velocity": 120}, {"time": 234236, "pitch": 81, "duration": 20, "velocity": 120}, {"time": 234356, "pitch": 85, "duration": 20, "velocity": 120}, {"time": 234476, "pitch": 73, "duration": 21, "velocity": 120}, {"time": 234597, "pitch": 76, "duration": 20, "velocity": 120}, {"time": 234717, "pitch": 80, "duration": 20, "velocity": 120}, {"time": 234838, "pitch": 88, "duration": 20, "velocity": 120}, {"time": 234958, "pitch": 76, "duration": 20, "velocity": 120}, {"time": 235078, "pitch": 83, "duration": 20, "velocity": 120}, {"time": 235199, "pitch": 92, "duration": 20, "velocity": 120}, {"time": 235319, "pitch": 83, "duration": 20, "velocity": 120}, {"time": 235440, "pitch": 88, "duration": 20, "velocity": 120}, {"time": 235560, "pitch": 80, "duration": 20, "velocity": 120}, {"time": 235680, "pitch": 71, "duration": 20, "velocity": 120}, {"time": 235801, "pitch": 76, "duration": 20, "velocity": 120}, {"time": 235921, "pitch": 83, "duration": 20, "velocity": 120}, {"time": 236042, "pitch": 88, "duration": 20, "velocity": 120}, {"time": 236162, "pitch": 80, "duration": 20, "velocity": 120}, {"time": 236282, "pitch": 83, "duration": 20, "velocity": 120}, {"time": 236403, "pitch": 71, "duration": 20, "velocity": 120}, {"time": 236523, "pitch": 76, "duration": 20, "velocity": 120}, {"time": 236644, "pitch": 79, "duration": 20, "velocity": 120}, {"time": 236764, "pitch": 86, "duration": 20, "velocity": 120}, {"time": 236884, "pitch": 74, "duration": 20, "velocity": 120}, {"time": 237005, "pitch": 79, "duration": 20, "velocity": 120}, {"time": 237125, "pitch": 90, "duration": 20, "velocity": 120}, {"time": 237243, "pitch": 83, "duration": 20, "velocity": 120}, {"time": 237361, "pitch": 86, "duration": 19, "velocity": 120}, {"time": 237479, "pitch": 79, "duration": 19, "velocity": 120}, {"time": 237596, "pitch": 69, "duration": 20, "velocity": 120}, {"time": 237717, "pitch": 76, "duration": 20, "velocity": 120}, {"time": 237837, "pitch": 85, "duration": 20, "velocity": 120}, {"time": 237957, "pitch": 88, "duration": 21, "velocity": 120}, {"time": 238078, "pitch": 81, "duration": 20, "velocity": 120}, {"time": 238198, "pitch": 85, "duration": 20, "velocity": 120}, {"time": 238319, "pitch": 73, "duration": 20, "velocity": 120}, {"time": 238439, "pitch": 76, "duration": 20, "velocity": 120}, {"time": 238559, "pitch": 78, "duration": 21, "velocity": 120}, {"time": 238680, "pitch": 85, "duration": 20, "velocity": 120}, {"time": 238800, "pitch": 73, "duration": 20, "velocity": 120}, {"time": 238921, "pitch": 78, "duration": 20, "velocity": 120}, {"time": 239041, "pitch": 88, "duration": 20, "velocity": 120}, {"time": 239161, "pitch": 81, "duration": 21, "velocity": 120}, {"time": 239282, "pitch": 85, "duration": 20, "velocity": 120}, {"time": 239402, "pitch": 78, "duration": 20, "velocity": 120}, {"time": 239523, "pitch": 71, "duration": 20, "velocity": 120}, {"time": 239643, "pitch": 78, "duration": 20, "velocity": 120}, {"time": 239763, "pitch": 86, "duration": 21, "velocity": 120}, {"time": 239884, "pitch": 90, "duration": 20, "velocity": 120}, {"time": 240004, "pitch": 83, "duration": 20, "velocity": 120}, {"time": 240122, "pitch": 86, "duration": 20, "velocity": 120}, {"time": 240240, "pitch": 74, "duration": 19, "velocity": 120}, {"time": 240358, "pitch": 78, "duration": 19, "velocity": 120}, {"time": 240475, "pitch": 79, "duration": 20, "velocity": 120}, {"time": 240596, "pitch": 86, "duration": 20, "velocity": 120}, {"time": 240716, "pitch": 74, "duration": 20, "velocity": 120}, {"time": 240837, "pitch": 79, "duration": 20, "velocity": 120}, {"time": 240957, "pitch": 90, "duration": 20, "velocity": 120}, {"time": 241077, "pitch": 83, "duration": 20, "velocity": 120}, {"time": 241198, "pitch": 86, "duration": 20, "velocity": 120}, {"time": 241318, "pitch": 79, "duration": 20, "velocity": 120}, {"time": 241439, "pitch": 69, "duration": 20, "velocity": 120}, {"time": 241559, "pitch": 76, "duration": 20, "velocity": 120}, {"time": 241679, "pitch": 85, "duration": 20, "velocity": 120}, {"time": 241800, "pitch": 88, "duration": 20, "velocity": 120}, {"time": 241920, "pitch": 81, "duration": 20, "velocity": 120}, {"time": 242041, "pitch": 85, "duration": 20, "velocity": 120}, {"time": 242161, "pitch": 73, "duration": 20, "velocity": 120}, {"time": 242281, "pitch": 76, "duration": 20, "velocity": 120}, {"time": 242402, "pitch": 79, "duration": 20, "velocity": 120}, {"time": 242522, "pitch": 86, "duration": 20, "velocity": 120}, {"time": 242643, "pitch": 74, "duration": 20, "velocity": 120}, {"time": 242763, "pitch": 79, "duration": 20, "velocity": 120}, {"time": 242883, "pitch": 90, "duration": 20, "velocity": 120}, {"time": 243004, "pitch": 83, "duration": 20, "velocity": 120}, {"time": 243124, "pitch": 86, "duration": 20, "velocity": 120}, {"time": 243244, "pitch": 79, "duration": 21, "velocity": 120}, {"time": 243365, "pitch": 69, "duration": 19, "velocity": 120}, {"time": 243483, "pitch": 76, "duration": 19, "velocity": 120}, {"time": 243600, "pitch": 85, "duration": 20, "velocity": 120}, {"time": 243718, "pitch": 88, "duration": 20, "velocity": 120}, {"time": 243836, "pitch": 81, "duration": 20, "velocity": 120}, {"time": 243956, "pitch": 85, "duration": 21, "velocity": 120}, {"time": 244077, "pitch": 73, "duration": 20, "velocity": 120}, {"time": 244197, "pitch": 76, "duration": 20, "velocity": 120}, {"time": 244318, "pitch": 79, "duration": 20, "velocity": 120}, {"time": 244438, "pitch": 86, "duration": 20, "velocity": 120}, {"time": 244558, "pitch": 74, "duration": 20, "velocity": 120}, {"time": 244679, "pitch": 79, "duration": 20, "velocity": 120}, {"time": 244799, "pitch": 90, "duration": 20, "velocity": 120}, {"time": 244920, "pitch": 83, "duration": 20, "velocity": 120}, {"time": 245040, "pitch": 86, "duration": 20, "velocity": 120}, {"time": 245160, "pitch": 79, "duration": 20, "velocity": 120}, {"time": 245281, "pitch": 69, "duration": 20, "velocity": 120}, {"time": 245401, "pitch": 76, "duration": 20, "velocity": 120}, {"time": 245522, "pitch": 85, "duration": 20, "velocity": 120}, {"time": 245642, "pitch": 88, "duration": 20, "velocity": 120}, {"time": 245762, "pitch": 81, "duration": 20, "velocity": 120}, {"time": 245883, "pitch": 85, "duration": 20, "velocity": 120}, {"time": 246003, "pitch": 73, "duration": 20, "velocity": 120}, {"time": 246124, "pitch": 76, "duration": 20, "velocity": 120}, {"time": 246244, "pitch": 78, "duration": 20, "velocity": 120}, {"time": 246362, "pitch": 85, "duration": 19, "velocity": 120}, {"time": 246480, "pitch": 73, "duration": 19, "velocity": 120}, {"time": 246597, "pitch": 78, "duration": 20, "velocity": 120}, {"time": 246715, "pitch": 88, "duration": 20, "velocity": 120}, {"time": 246836, "pitch": 81, "duration": 20, "velocity": 120}, {"time": 246956, "pitch": 85, "duration": 20, "velocity": 120}, {"time": 247076, "pitch": 78, "duration": 20, "velocity": 120}, {"time": 247197, "pitch": 71, "duration": 20, "velocity": 120}, {"time": 247317, "pitch": 78, "duration": 20, "velocity": 120}, {"time": 247437, "pitch": 86, "duration": 21, "velocity": 120}, {"time": 247558, "pitch": 90, "duration": 20, "velocity": 120}, {"time": 247678, "pitch": 83, "duration": 20, "velocity": 120}, {"time": 247799, "pitch": 86, "duration": 20, "velocity": 120}, {"time": 247919, "pitch": 74, "duration": 20, "velocity": 120}, {"time": 248039, "pitch": 78, "duration": 21, "velocity": 120}, {"time": 248160, "pitch": 79, "duration": 20, "velocity": 120}, {"time": 248280, "pitch": 86, "duration": 20, "velocity": 120}, {"time": 248401, "pitch": 74, "duration": 20, "velocity": 120}, {"time": 248521, "pitch": 79, "duration": 20, "velocity": 120}, {"time": 248641, "pitch": 90, "duration": 21, "velocity": 120}, {"time": 248762, "pitch": 83, "duration": 20, "velocity": 120}, {"time": 248882, "pitch": 86, "duration": 20, "velocity": 120}, {"time": 249003, "pitch": 79, "duration": 20, "velocity": 120}, {"time": 249123, "pitch": 69, "duration": 20, "velocity": 120}, {"time": 249243, "pitch": 76, "duration": 21, "velocity": 120}, {"time": 249364, "pitch": 85, "duration": 20, "velocity": 120}, {"time": 249484, "pitch": 88, "duration": 20, "velocity": 120}, {"time": 249605, "pitch": 81, "duration": 19, "velocity": 120}, {"time": 249722, "pitch": 85, "duration": 20, "velocity": 120}, {"time": 249840, "pitch": 73, "duration": 20, "velocity": 120}, {"time": 249958, "pitch": 76, "duration": 20, "velocity": 120}, {"time": 250076, "pitch": 80, "duration": 20, "velocity": 120}, {"time": 250196, "pitch": 88, "duration": 20, "velocity": 120}, {"time": 250317, "pitch": 76, "duration": 20, "velocity": 120}, {"time": 250437, "pitch": 83, "duration": 20, "velocity": 120}, {"time": 250557, "pitch": 92, "duration": 20, "velocity": 120}, {"time": 250678, "pitch": 83, "duration": 20, "velocity": 120}, {"time": 250798, "pitch": 88, "duration": 20, "velocity": 120}, {"time": 250919, "pitch": 80, "duration": 20, "velocity": 120}, {"time": 251039, "pitch": 71, "duration": 20, "velocity": 120}, {"time": 251159, "pitch": 76, "duration": 20, "velocity": 120}, {"time": 251280, "pitch": 83, "duration": 20, "velocity": 120}, {"time": 251400, "pitch": 88, "duration": 20, "velocity": 120}, {"time": 251521, "pitch": 80, "duration": 20, "velocity": 120}, {"time": 251641, "pitch": 83, "duration": 20, "velocity": 120}, {"time": 251761, "pitch": 71, "duration": 20, "velocity": 120}, {"time": 251882, "pitch": 76, "duration": 20, "velocity": 120}, {"time": 252002, "pitch": 79, "duration": 20, "velocity": 120}, {"time": 252123, "pitch": 86, "duration": 20, "velocity": 120}, {"time": 252243, "pitch": 74, "duration": 20, "velocity": 120}, {"time": 252363, "pitch": 79, "duration": 20, "velocity": 120}, {"time": 252484, "pitch": 90, "duration": 19, "velocity": 120}, {"time": 252601, "pitch": 83, "duration": 20, "velocity": 120}, {"time": 252719, "pitch": 86, "duration": 20, "velocity": 120}, {"time": 252837, "pitch": 79, "duration": 20, "velocity": 120}, {"time": 252955, "pitch": 69, "duration": 20, "velocity": 120}, {"time": 253075, "pitch": 76, "duration": 20, "velocity": 120}, {"time": 253196, "pitch": 85, "duration": 20, "velocity": 120}, {"time": 253316, "pitch": 88, "duration": 20, "velocity": 120}, {"time": 253436, "pitch": 81, "duration": 21, "velocity": 120}, {"time": 253557, "pitch": 85, "duration": 20, "velocity": 120}, {"time": 253677, "pitch": 73, "duration": 20, "velocity": 120}, {"time": 253798, "pitch": 76, "duration": 20, "velocity": 120}, {"time": 253918, "pitch": 78, "duration": 20, "velocity": 120}, {"time": 254038, "pitch": 85, "duration": 20, "velocity": 120}, {"time": 254159, "pitch": 73, "duration": 20, "velocity": 120}, {"time": 254279, "pitch": 78, "duration": 20, "velocity": 120}, {"time": 254400, "pitch": 88, "duration": 20, "velocity": 120}, {"time": 254520, "pitch": 81, "duration": 20, "velocity": 120}, {"time": 254640, "pitch": 85, "duration": 20, "velocity": 120}, {"time": 254761, "pitch": 78, "duration": 20, "velocity": 120}, {"time": 254881, "pitch": 71, "duration": 20, "velocity": 120}, {"time": 255002, "pitch": 78, "duration": 20, "velocity": 120}, {"time": 255122, "pitch": 86, "duration": 20, "velocity": 120}, {"time": 255242, "pitch": 90, "duration": 20, "velocity": 120}, {"time": 255363, "pitch": 83, "duration": 20, "velocity": 120}, {"time": 255483, "pitch": 86, "duration": 20, "velocity": 120}, {"time": 255604, "pitch": 74, "duration": 20, "velocity": 120}, {"time": 255724, "pitch": 78, "duration": 20, "velocity": 120}, {"time": 255844, "pitch": 79, "duration": 20, "velocity": 120}, {"time": 255962, "pitch": 86, "duration": 20, "velocity": 120}, {"time": 256080, "pitch": 74, "duration": 20, "velocity": 120}, {"time": 256198, "pitch": 79, "duration": 19, "velocity": 120}, {"time": 256316, "pitch": 90, "duration": 20, "velocity": 120}, {"time": 256436, "pitch": 83, "duration": 20, "velocity": 120}, {"time": 256556, "pitch": 86, "duration": 20, "velocity": 120}, {"time": 256677, "pitch": 79, "duration": 20, "velocity": 120}, {"time": 256797, "pitch": 69, "duration": 20, "velocity": 120}, {"time": 256917, "pitch": 76, "duration": 21, "velocity": 120}, {"time": 257038, "pitch": 85, "duration": 20, "velocity": 120}, {"time": 257158, "pitch": 88, "duration": 20, "velocity": 120}, {"time": 257279, "pitch": 81, "duration": 20, "velocity": 120}, {"time": 257399, "pitch": 85, "duration": 20, "velocity": 120}, {"time": 257519, "pitch": 73, "duration": 21, "velocity": 120}, {"time": 257640, "pitch": 76, "duration": 20, "velocity": 120}, {"time": 257760, "pitch": 79, "duration": 20, "velocity": 120}, {"time": 257881, "pitch": 86, "duration": 20, "velocity": 120}, {"time": 258001, "pitch": 74, "duration": 20, "velocity": 120}, {"time": 258121, "pitch": 79, "duration": 21, "velocity": 120}, {"time": 258242, "pitch": 90, "duration": 20, "velocity": 120}, {"time": 258362, "pitch": 83, "duration": 20, "velocity": 120}, {"time": 258483, "pitch": 86, "duration": 20, "velocity": 120}, {"time": 258603, "pitch": 79, "duration": 20, "velocity": 120}, {"time": 258723, "pitch": 69, "duration": 21, "velocity": 120}, {"time": 258844, "pitch": 76, "duration": 20, "velocity": 120}, {"time": 258964, "pitch": 85, "duration": 20, "velocity": 120}, {"time": 259085, "pitch": 88, "duration": 20, "velocity": 120}, {"time": 259205, "pitch": 81, "duration": 20, "velocity": 120}, {"time": 259323, "pitch": 85, "duration": 19, "velocity": 120}, {"time": 259441, "pitch": 73, "duration": 19, "velocity": 120}, {"time": 259558, "pitch": 76, "duration": 20, "velocity": 120}, {"time": 259676, "pitch": 79, "duration": 20, "velocity": 120}, {"time": 259797, "pitch": 86, "duration": 20, "velocity": 120}, {"time": 259917, "pitch": 74, "duration": 20, "velocity": 120}, {"time": 260037, "pitch": 79, "duration": 20, "velocity": 120}, {"time": 260158, "pitch": 90, "duration": 20, "velocity": 120}, {"time": 260278, "pitch": 83, "duration": 20, "velocity": 120}, {"time": 260399, "pitch": 86, "duration": 20, "velocity": 120}, {"time": 260519, "pitch": 79, "duration": 20, "velocity": 120}, {"time": 260639, "pitch": 69, "duration": 20, "velocity": 120}, {"time": 260760, "pitch": 76, "duration": 20, "velocity": 120}, {"time": 260880, "pitch": 85, "duration": 20, "velocity": 120}, {"time": 261001, "pitch": 88, "duration": 20, "velocity": 120}, {"time": 261121, "pitch": 81, "duration": 20, "velocity": 120}, {"time": 261241, "pitch": 85, "duration": 20, "velocity": 120}, {"time": 261362, "pitch": 73, "duration": 20, "velocity": 120}, {"time": 261482, "pitch": 76, "duration": 20, "velocity": 120}, {"time": 261603, "pitch": 78, "duration": 20, "velocity": 120}, {"time": 261723, "pitch": 85, "duration": 20, "velocity": 120}, {"time": 261843, "pitch": 73, "duration": 20, "velocity": 120}, {"time": 261964, "pitch": 78, "duration": 20, "velocity": 120}, {"time": 262084, "pitch": 88, "duration": 20, "velocity": 120}, {"time": 262202, "pitch": 81, "duration": 19, "velocity": 120}, {"time": 262320, "pitch": 85, "duration": 19, "velocity": 120}, {"time": 262438, "pitch": 78, "duration": 19, "velocity": 120}, {"time": 262555, "pitch": 71, "duration": 20, "velocity": 120}, {"time": 262676, "pitch": 78, "duration": 20, "velocity": 120}, {"time": 262796, "pitch": 86, "duration": 20, "velocity": 120}, {"time": 262916, "pitch": 90, "duration": 21, "velocity": 120}, {"time": 263037, "pitch": 83, "duration": 20, "velocity": 120}, {"time": 263157, "pitch": 86, "duration": 20, "velocity": 120}, {"time": 263278, "pitch": 74, "duration": 20, "velocity": 120}, {"time": 263398, "pitch": 78, "duration": 20, "velocity": 120}, {"time": 263518, "pitch": 79, "duration": 20, "velocity": 120}, {"time": 263639, "pitch": 86, "duration": 20, "velocity": 120}, {"time": 263759, "pitch": 74, "duration": 20, "velocity": 120}, {"time": 263880, "pitch": 79, "duration": 20, "velocity": 120}, {"time": 264000, "pitch": 90, "duration": 20, "velocity": 120}, {"time": 264120, "pitch": 83, "duration": 20, "velocity": 120}, {"time": 264241, "pitch": 86, "duration": 20, "velocity": 120}, {"time": 264361, "pitch": 79, "duration": 20, "velocity": 120}, {"time": 264482, "pitch": 69, "duration": 20, "velocity": 120}, {"time": 264602, "pitch": 76, "duration": 20, "velocity": 120}, {"time": 264722, "pitch": 85, "duration": 20, "velocity": 120}, {"time": 264843, "pitch": 88, "duration": 20, "velocity": 120}, {"time": 264963, "pitch": 81, "duration": 20, "velocity": 120}, {"time": 265084, "pitch": 85, "duration": 20, "velocity": 120}, {"time": 265204, "pitch": 73, "duration": 20, "velocity": 120}, {"time": 265324, "pitch": 76, "duration": 20, "velocity": 120}, {"time": 265445, "pitch": 80, "duration": 19, "velocity": 120}, {"time": 265562, "pitch": 88, "duration": 20, "velocity": 120}, {"time": 265680, "pitch": 76, "duration": 20, "velocity": 120}, {"time": 265798, "pitch": 83, "duration": 20, "velocity": 120}, {"time": 265916, "pitch": 92, "duration": 20, "velocity": 120}, {"time": 266036, "pitch": 83, "duration": 20, "velocity": 120}, {"time": 266157, "pitch": 88, "duration": 20, "velocity": 120}, {"time": 266277, "pitch": 80, "duration": 20, "velocity": 120}, {"time": 266397, "pitch": 71, "duration": 21, "velocity": 120}, {"time": 266518, "pitch": 76, "duration": 20, "velocity": 120}, {"time": 266638, "pitch": 83, "duration": 20, "velocity": 120}, {"time": 266759, "pitch": 88, "duration": 20, "velocity": 120}, {"time": 266879, "pitch": 80, "duration": 20, "velocity": 120}, {"time": 266999, "pitch": 83, "duration": 21, "velocity": 120}, {"time": 267120, "pitch": 71, "duration": 20, "velocity": 120}, {"time": 267240, "pitch": 76, "duration": 20, "velocity": 120}, {"time": 267361, "pitch": 79, "duration": 20, "velocity": 120}, {"time": 267481, "pitch": 86, "duration": 20, "velocity": 120}, {"time": 267601, "pitch": 74, "duration": 21, "velocity": 120}, {"time": 267722, "pitch": 79, "duration": 20, "velocity": 120}, {"time": 267842, "pitch": 90, "duration": 20, "velocity": 120}, {"time": 267963, "pitch": 83, "duration": 20, "velocity": 120}, {"time": 268083, "pitch": 86, "duration": 20, "velocity": 120}, {"time": 268203, "pitch": 79, "duration": 21, "velocity": 120}, {"time": 268324, "pitch": 69, "duration": 19, "velocity": 120}, {"time": 268442, "pitch": 76, "duration": 19, "velocity": 120}, {"time": 268559, "pitch": 85, "duration": 20, "velocity": 120}, {"time": 268677, "pitch": 88, "duration": 20, "velocity": 120}, {"time": 268795, "pitch": 81, "duration": 20, "velocity": 120}, {"time": 268915, "pitch": 85, "duration": 20, "velocity": 120}, {"time": 269036, "pitch": 73, "duration": 20, "velocity": 120}, {"time": 269156, "pitch": 76, "duration": 20, "velocity": 120}, {"time": 269277, "pitch": 78, "duration": 20, "velocity": 120}, {"time": 269397, "pitch": 85, "duration": 20, "velocity": 120}, {"time": 269517, "pitch": 73, "duration": 20, "velocity": 120}, {"time": 269638, "pitch": 78, "duration": 20, "velocity": 120}, {"time": 269758, "pitch": 88, "duration": 20, "velocity": 120}, {"time": 269879, "pitch": 81, "duration": 20, "velocity": 120}, {"time": 269999, "pitch": 85, "duration": 20, "velocity": 120}, {"time": 270119, "pitch": 78, "duration": 20, "velocity": 120}, {"time": 270240, "pitch": 71, "duration": 20, "velocity": 120}, {"time": 270360, "pitch": 78, "duration": 20, "velocity": 120}, {"time": 270481, "pitch": 86, "duration": 20, "velocity": 120}, {"time": 270601, "pitch": 90, "duration": 20, "velocity": 120}, {"time": 270721, "pitch": 83, "duration": 20, "velocity": 120}, {"time": 270842, "pitch": 86, "duration": 20, "velocity": 120}, {"time": 270962, "pitch": 74, "duration": 20, "velocity": 120}, {"time": 271083, "pitch": 78, "duration": 20, "velocity": 120}, {"time": 271203, "pitch": 79, "duration": 20, "velocity": 120}, {"time": 271323, "pitch": 86, "duration": 20, "velocity": 120}, {"time": 271444, "pitch": 74, "duration": 20, "velocity": 120}, {"time": 271564, "pitch": 79, "duration": 20, "velocity": 120}, {"time": 271684, "pitch": 90, "duration": 20, "velocity": 120}, {"time": 271802, "pitch": 83, "duration": 20, "velocity": 120}, {"time": 271920, "pitch": 86, "duration": 20, "velocity": 120}, {"time": 272038, "pitch": 79, "duration": 20, "velocity": 120}, {"time": 272156, "pitch": 69, "duration": 20, "velocity": 120}, {"time": 272276, "pitch": 76, "duration": 20, "velocity": 120}, {"time": 272396, "pitch": 85, "duration": 21, "velocity": 120}, {"time": 272517, "pitch": 88, "duration": 20, "velocity": 120}, {"time": 272637, "pitch": 81, "duration": 20, "velocity": 120}, {"time": 272758, "pitch": 85, "duration": 20, "velocity": 120}, {"time": 272878, "pitch": 73, "duration": 20, "velocity": 120}, {"time": 272998, "pitch": 76, "duration": 20, "velocity": 120}, {"time": 273119, "pitch": 79, "duration": 20, "velocity": 120}, {"time": 273239, "pitch": 86, "duration": 20, "velocity": 120}, {"time": 273360, "pitch": 74, "duration": 20, "velocity": 120}, {"time": 273480, "pitch": 79, "duration": 20, "velocity": 120}, {"time": 273600, "pitch": 90, "duration": 20, "velocity": 120}, {"time": 273721, "pitch": 83, "duration": 20, "velocity": 120}, {"time": 273841, "pitch": 86, "duration": 20, "velocity": 120}, {"time": 273962, "pitch": 79, "duration": 20, "velocity": 120}, {"time": 274082, "pitch": 69, "duration": 20, "velocity": 120}, {"time": 274202, "pitch": 76, "duration": 20, "velocity": 120}, {"time": 274323, "pitch": 85, "duration": 20, "velocity": 120}, {"time": 274443, "pitch": 88, "duration": 20, "velocity": 120}, {"time": 274564, "pitch": 81, "duration": 20, "velocity": 120}, {"time": 274684, "pitch": 85, "duration": 20, "velocity": 120}, {"time": 274804, "pitch": 73, "duration": 20, "velocity": 120}, {"time": 274925, "pitch": 76, "duration": 20, "velocity": 120}, {"time": 275045, "pitch": 79, "duration": 20, "velocity": 120}, {"time": 275163, "pitch": 86, "duration": 20, "velocity": 120}, {"time": 275281, "pitch": 74, "duration": 19, "velocity": 120}, {"time": 275399, "pitch": 79, "duration": 19, "velocity": 120}, {"time": 275516, "pitch": 90, "duration": 20, "velocity": 120}, {"time": 275637, "pitch": 83, "duration": 20, "velocity": 120}, {"time": 275757, "pitch": 86, "duration": 20, "velocity": 120}, {"time": 275877, "pitch": 79, "duration": 21, "velocity": 120}, {"time": 275998, "pitch": 69, "duration": 20, "velocity": 120}, {"time": 276118, "pitch": 76, "duration": 20, "velocity": 120}, {"time": 276239, "pitch": 85, "duration": 20, "velocity": 120}, {"time": 276359, "pitch": 88, "duration": 20, "velocity": 120}, {"time": 276479, "pitch": 81, "duration": 21, "velocity": 120}, {"time": 276600, "pitch": 85, "duration": 20, "velocity": 120}, {"time": 276720, "pitch": 73, "duration": 20, "velocity": 120}, {"time": 276841, "pitch": 76, "duration": 20, "velocity": 120}, {"time": 276961, "pitch": 78, "duration": 20, "velocity": 120}, {"time": 277081, "pitch": 85, "duration": 21, "velocity": 120}, {"time": 277202, "pitch": 73, "duration": 20, "velocity": 120}, {"time": 277322, "pitch": 78, "duration": 20, "velocity": 120}, {"time": 277443, "pitch": 88, "duration": 20, "velocity": 120}, {"time": 277563, "pitch": 81, "duration": 20, "velocity": 120}, {"time": 277683, "pitch": 85, "duration": 21, "velocity": 120}, {"time": 277804, "pitch": 78, "duration": 20, "velocity": 120}, {"time": 277924, "pitch": 71, "duration": 20, "velocity": 120}, {"time": 278042, "pitch": 78, "duration": 20, "velocity": 120}, {"time": 278160, "pitch": 86, "duration": 19, "velocity": 120}, {"time": 278278, "pitch": 90, "duration": 19, "velocity": 120}, {"time": 278395, "pitch": 83, "duration": 20, "velocity": 120}, {"time": 278516, "pitch": 86, "duration": 20, "velocity": 120}, {"time": 278636, "pitch": 74, "duration": 20, "velocity": 120}, {"time": 278757, "pitch": 78, "duration": 20, "velocity": 120}, {"time": 278877, "pitch": 79, "duration": 20, "velocity": 120}, {"time": 278997, "pitch": 86, "duration": 20, "velocity": 120}, {"time": 279118, "pitch": 74, "duration": 20, "velocity": 120}, {"time": 279238, "pitch": 79, "duration": 20, "velocity": 120}, {"time": 279359, "pitch": 90, "duration": 20, "velocity": 120}, {"time": 279479, "pitch": 83, "duration": 20, "velocity": 120}, {"time": 279599, "pitch": 86, "duration": 20, "velocity": 120}, {"time": 279720, "pitch": 79, "duration": 20, "velocity": 120}, {"time": 279840, "pitch": 69, "duration": 20, "velocity": 120}, {"time": 279961, "pitch": 76, "duration": 20, "velocity": 120}, {"time": 280081, "pitch": 85, "duration": 20, "velocity": 120}, {"time": 280201, "pitch": 88, "duration": 20, "velocity": 120}, {"time": 280322, "pitch": 81, "duration": 20, "velocity": 120}, {"time": 280442, "pitch": 85, "duration": 20, "velocity": 120}, {"time": 280563, "pitch": 73, "duration": 20, "velocity": 120}, {"time": 280683, "pitch": 76, "duration": 20, "velocity": 120}, {"time": 280803, "pitch": 80, "duration": 20, "velocity": 120}, {"time": 280924, "pitch": 88, "duration": 20, "velocity": 120}, {"time": 281044, "pitch": 76, "duration": 20, "velocity": 120}, {"time": 281164, "pitch": 83, "duration": 21, "velocity": 120}, {"time": 281285, "pitch": 92, "duration": 19, "velocity": 120}, {"time": 281403, "pitch": 83, "duration": 19, "velocity": 120}, {"time": 281520, "pitch": 88, "duration": 20, "velocity": 120}, {"time": 281638, "pitch": 80, "duration": 20, "velocity": 120}, {"time": 281756, "pitch": 71, "duration": 20, "velocity": 120}, {"time": 281876, "pitch": 76, "duration": 21, "velocity": 120}, {"time": 281997, "pitch": 83, "duration": 20, "velocity": 120}, {"time": 282117, "pitch": 88, "duration": 20, "velocity": 120}, {"time": 282238, "pitch": 80, "duration": 20, "velocity": 120}, {"time": 282358, "pitch": 83, "duration": 20, "velocity": 120}, {"time": 282478, "pitch": 71, "duration": 20, "velocity": 120}, {"time": 282599, "pitch": 76, "duration": 20, "velocity": 120}, {"time": 282719, "pitch": 79, "duration": 20, "velocity": 120}, {"time": 282840, "pitch": 86, "duration": 20, "velocity": 120}, {"time": 282960, "pitch": 74, "duration": 20, "velocity": 120}, {"time": 283080, "pitch": 79, "duration": 20, "velocity": 120}, {"time": 283201, "pitch": 90, "duration": 20, "velocity": 120}, {"time": 283321, "pitch": 83, "duration": 20, "velocity": 120}, {"time": 283442, "pitch": 86, "duration": 20, "velocity": 120}, {"time": 283562, "pitch": 79, "duration": 20, "velocity": 120}, {"time": 283682, "pitch": 69, "duration": 20, "velocity": 120}, {"time": 283803, "pitch": 76, "duration": 20, "velocity": 120}, {"time": 283923, "pitch": 85, "duration": 20, "velocity": 120}, {"time": 284044, "pitch": 88, "duration": 20, "velocity": 120}, {"time": 284164, "pitch": 81, "duration": 20, "velocity": 120}, {"time": 284282, "pitch": 85, "duration": 19, "velocity": 120}, {"time": 284400, "pitch": 73, "duration": 19, "velocity": 120}, {"time": 284517, "pitch": 76, "duration": 20, "velocity": 120}, {"time": 284635, "pitch": 78, "duration": 20, "velocity": 120}, {"time": 284756, "pitch": 85, "duration": 20, "velocity": 120}, {"time": 284876, "pitch": 73, "duration": 20, "velocity": 120}, {"time": 284996, "pitch": 78, "duration": 20, "velocity": 120}, {"time": 285117, "pitch": 88, "duration": 20, "velocity": 120}, {"time": 285237, "pitch": 81, "duration": 20, "velocity": 120}, {"time": 285357, "pitch": 85, "duration": 21, "velocity": 120}, {"time": 285478, "pitch": 78, "duration": 20, "velocity": 120}, {"time": 285598, "pitch": 71, "duration": 20, "velocity": 120}, {"time": 285719, "pitch": 78, "duration": 20, "velocity": 120}, {"time": 285839, "pitch": 86, "duration": 20, "velocity": 120}, {"time": 285959, "pitch": 90, "duration": 21, "velocity": 120}, {"time": 286080, "pitch": 83, "duration": 20, "velocity": 120}, {"time": 286200, "pitch": 86, "duration": 20, "velocity": 120}, {"time": 286321, "pitch": 74, "duration": 20, "velocity": 120}, {"time": 286441, "pitch": 78, "duration": 20, "velocity": 120}, {"time": 286561, "pitch": 79, "duration": 21, "velocity": 120}, {"time": 286682, "pitch": 86, "duration": 20, "velocity": 120}, {"time": 286802, "pitch": 74, "duration": 20, "velocity": 120}, {"time": 286923, "pitch": 79, "duration": 20, "velocity": 120}, {"time": 287043, "pitch": 90, "duration": 20, "velocity": 120}, {"time": 287163, "pitch": 83, "duration": 21, "velocity": 120}, {"time": 287284, "pitch": 86, "duration": 20, "velocity": 120}, {"time": 287404, "pitch": 79, "duration": 20, "velocity": 120}, {"time": 287525, "pitch": 69, "duration": 19, "velocity": 120}, {"time": 287642, "pitch": 76, "duration": 20, "velocity": 120}, {"time": 287760, "pitch": 85, "duration": 20, "velocity": 120}, {"time": 287878, "pitch": 88, "duration": 20, "velocity": 120}, {"time": 287996, "pitch": 81, "duration": 20, "velocity": 120}, {"time": 288116, "pitch": 85, "duration": 20, "velocity": 120}, {"time": 288237, "pitch": 73, "duration": 20, "velocity": 120}, {"time": 288357, "pitch": 76, "duration": 20, "velocity": 120}, {"time": 288477, "pitch": 79, "duration": 20, "velocity": 120}, {"time": 288598, "pitch": 86, "duration": 20, "velocity": 120}, {"time": 288718, "pitch": 74, "duration": 20, "velocity": 120}, {"time": 288839, "pitch": 79, "duration": 20, "velocity": 120}, {"time": 288959, "pitch": 90, "duration": 20, "velocity": 120}, {"time": 289079, "pitch": 83, "duration": 20, "velocity": 120}, {"time": 289200, "pitch": 86, "duration": 20, "velocity": 120}, {"time": 289320, "pitch": 79, "duration": 20, "velocity": 120}, {"time": 289441, "pitch": 69, "duration": 20, "velocity": 120}, {"time": 289561, "pitch": 76, "duration": 20, "velocity": 120}, {"time": 289681, "pitch": 85, "duration": 20, "velocity": 120}, {"time": 289802, "pitch": 88, "duration": 20, "velocity": 120}, {"time": 289922, "pitch": 81, "duration": 20, "velocity": 120}, {"time": 290043, "pitch": 85, "duration": 20, "velocity": 120}, {"time": 290163, "pitch": 73, "duration": 20, "velocity": 120}, {"time": 290283, "pitch": 76, "duration": 20, "velocity": 120}, {"time": 290404, "pitch": 79, "duration": 19, "velocity": 120}, {"time": 290521, "pitch": 86, "duration": 20, "velocity": 120}, {"time": 290639, "pitch": 74, "duration": 20, "velocity": 120}, {"time": 290757, "pitch": 79, "duration": 20, "velocity": 120}, {"time": 290875, "pitch": 90, "duration": 20, "velocity": 120}, {"time": 290995, "pitch": 83, "duration": 20, "velocity": 120}, {"time": 291116, "pitch": 86, "duration": 20, "velocity": 120}, {"time": 291236, "pitch": 79, "duration": 20, "velocity": 120}, {"time": 291356, "pitch": 69, "duration": 21, "velocity": 120}, {"time": 291477, "pitch": 76, "duration": 20, "velocity": 120}, {"time": 291597, "pitch": 85, "duration": 20, "velocity": 120}, {"time": 291718, "pitch": 88, "duration": 20, "velocity": 120}, {"time": 291838, "pitch": 81, "duration": 20, "velocity": 120}, {"time": 291958, "pitch": 85, "duration": 20, "velocity": 120}, {"time": 292079, "pitch": 73, "duration": 20, "velocity": 120}, {"time": 292199, "pitch": 76, "duration": 20, "velocity": 120}, {"time": 292320, "pitch": 78, "duration": 20, "velocity": 120}, {"time": 292440, "pitch": 85, "duration": 20, "velocity": 120}, {"time": 292560, "pitch": 73, "duration": 20, "velocity": 120}, {"time": 292681, "pitch": 78, "duration": 20, "velocity": 120}, {"time": 292801, "pitch": 88, "duration": 20, "velocity": 120}, {"time": 292922, "pitch": 81, "duration": 20, "velocity": 120}, {"time": 293042, "pitch": 85, "duration": 20, "velocity": 120}, {"time": 293162, "pitch": 78, "duration": 20, "velocity": 120}, {"time": 293283, "pitch": 71, "duration": 20, "velocity": 120}, {"time": 293403, "pitch": 78, "duration": 20, "velocity": 120}, {"time": 293524, "pitch": 86, "duration": 20, "velocity": 120}, {"time": 293644, "pitch": 90, "duration": 20, "velocity": 120}, {"time": 293764, "pitch": 83, "duration": 20, "velocity": 120}, {"time": 293885, "pitch": 86, "duration": 20, "velocity": 120}, {"time": 294005, "pitch": 74, "duration": 20, "velocity": 120}, {"time": 294126, "pitch": 78, "duration": 20, "velocity": 120}, {"time": 294246, "pitch": 79, "duration": 20, "velocity": 120}, {"time": 294366, "pitch": 86, "duration": 20, "velocity": 120}, {"time": 294487, "pitch": 74, "duration": 20, "velocity": 120}, {"time": 294607, "pitch": 79, "duration": 20, "velocity": 120}, {"time": 294728, "pitch": 90, "duration": 20, "velocity": 120}, {"time": 294848, "pitch": 83, "duration": 20, "velocity": 120}, {"time": 294968, "pitch": 86, "duration": 20, "velocity": 120}, {"time": 295089, "pitch": 79, "duration": 20, "velocity": 120}, {"time": 295209, "pitch": 69, "duration": 20, "velocity": 120}, {"time": 295330, "pitch": 76, "duration": 20, "velocity": 120}, {"time": 295450, "pitch": 85, "duration": 20, "velocity": 120}, {"time": 295570, "pitch": 88, "duration": 20, "velocity": 120}, {"time": 295691, "pitch": 81, "duration": 20, "velocity": 120}, {"time": 295811, "pitch": 85, "duration": 20, "velocity": 120}, {"time": 295932, "pitch": 73, "duration": 20, "velocity": 120}, {"time": 296052, "pitch": 76, "duration": 20, "velocity": 120}, {"time": 296172, "pitch": 80, "duration": 20, "velocity": 120}, {"time": 296293, "pitch": 88, "duration": 20, "velocity": 120}, {"time": 296413, "pitch": 76, "duration": 20, "velocity": 120}, {"time": 296533, "pitch": 83, "duration": 21, "velocity": 120}, {"time": 296654, "pitch": 92, "duration": 20, "velocity": 120}, {"time": 296774, "pitch": 83, "duration": 20, "velocity": 120}, {"time": 296895, "pitch": 88, "duration": 20, "velocity": 120}, {"time": 297015, "pitch": 80, "duration": 20, "velocity": 120}, {"time": 297135, "pitch": 71, "duration": 21, "velocity": 120}, {"time": 297256, "pitch": 76, "duration": 20, "velocity": 120}, {"time": 297376, "pitch": 83, "duration": 20, "velocity": 120}, {"time": 297497, "pitch": 88, "duration": 20, "velocity": 120}, {"time": 297617, "pitch": 80, "duration": 20, "velocity": 120}, {"time": 297737, "pitch": 83, "duration": 21, "velocity": 120}, {"time": 297858, "pitch": 71, "duration": 20, "velocity": 120}, {"time": 297978, "pitch": 76, "duration": 20, "velocity": 120}, {"time": 15845, "pitch": 86, "duration": 29, "velocity": 120}, {"time": 15963, "pitch": 83, "duration": 29, "velocity": 120}, {"time": 16080, "pitch": 79, "duration": 30, "velocity": 120}, {"time": 16198, "pitch": 86, "duration": 30, "velocity": 120}, {"time": 16316, "pitch": 74, "duration": 30, "velocity": 120}, {"time": 16436, "pitch": 79, "duration": 31, "velocity": 120}, {"time": 16557, "pitch": 90, "duration": 30, "velocity": 120}, {"time": 16677, "pitch": 83, "duration": 30, "velocity": 120}, {"time": 16798, "pitch": 73, "duration": 30, "velocity": 120}, {"time": 16918, "pitch": 76, "duration": 30, "velocity": 120}, {"time": 17038, "pitch": 69, "duration": 31, "velocity": 120}, {"time": 17159, "pitch": 76, "duration": 30, "velocity": 120}, {"time": 17279, "pitch": 85, "duration": 30, "velocity": 120}, {"time": 17400, "pitch": 88, "duration": 30, "velocity": 120}, {"time": 17520, "pitch": 81, "duration": 30, "velocity": 120}, {"time": 17640, "pitch": 85, "duration": 30, "velocity": 120}, {"time": 17761, "pitch": 85, "duration": 30, "velocity": 120}, {"time": 17881, "pitch": 73, "duration": 30, "velocity": 120}, {"time": 18002, "pitch": 78, "duration": 30, "velocity": 120}, {"time": 18122, "pitch": 85, "duration": 30, "velocity": 120}, {"time": 18242, "pitch": 73, "duration": 30, "velocity": 120}, {"time": 18363, "pitch": 78, "duration": 30, "velocity": 120}, {"time": 18483, "pitch": 88, "duration": 30, "velocity": 120}, {"time": 18604, "pitch": 81, "duration": 30, "velocity": 120}, {"time": 18724, "pitch": 74, "duration": 29, "velocity": 120}, {"time": 18842, "pitch": 78, "duration": 29, "velocity": 120}, {"time": 18960, "pitch": 71, "duration": 29, "velocity": 120}, {"time": 19077, "pitch": 78, "duration": 30, "velocity": 120}, {"time": 19195, "pitch": 86, "duration": 30, "velocity": 120}, {"time": 19316, "pitch": 90, "duration": 30, "velocity": 120}, {"time": 19436, "pitch": 83, "duration": 30, "velocity": 120}, {"time": 19556, "pitch": 86, "duration": 30, "velocity": 120}, {"time": 19677, "pitch": 86, "duration": 30, "velocity": 120}, {"time": 19797, "pitch": 74, "duration": 30, "velocity": 120}, {"time": 19917, "pitch": 79, "duration": 31, "velocity": 120}, {"time": 20038, "pitch": 86, "duration": 30, "velocity": 120}, {"time": 20158, "pitch": 74, "duration": 30, "velocity": 120}, {"time": 20279, "pitch": 79, "duration": 30, "velocity": 120}, {"time": 20399, "pitch": 90, "duration": 30, "velocity": 120}, {"time": 20519, "pitch": 83, "duration": 31, "velocity": 120}, {"time": 20640, "pitch": 73, "duration": 30, "velocity": 120}, {"time": 20760, "pitch": 76, "duration": 30, "velocity": 120}, {"time": 20881, "pitch": 69, "duration": 30, "velocity": 120}, {"time": 21001, "pitch": 76, "duration": 30, "velocity": 120}, {"time": 21121, "pitch": 85, "duration": 31, "velocity": 120}, {"time": 21242, "pitch": 88, "duration": 30, "velocity": 120}, {"time": 21362, "pitch": 81, "duration": 30, "velocity": 120}, {"time": 21483, "pitch": 85, "duration": 30, "velocity": 120}, {"time": 21603, "pitch": 86, "duration": 30, "velocity": 120}, {"time": 21723, "pitch": 74, "duration": 31, "velocity": 120}, {"time": 21844, "pitch": 79, "duration": 30, "velocity": 120}, {"time": 21964, "pitch": 86, "duration": 30, "velocity": 120}, {"time": 22085, "pitch": 74, "duration": 29, "velocity": 120}, {"time": 22202, "pitch": 79, "duration": 30, "velocity": 120}, {"time": 22320, "pitch": 90, "duration": 30, "velocity": 120}, {"time": 22438, "pitch": 83, "duration": 29, "velocity": 120}, {"time": 22556, "pitch": 73, "duration": 30, "velocity": 120}, {"time": 22676, "pitch": 76, "duration": 30, "velocity": 120}, {"time": 22797, "pitch": 69, "duration": 30, "velocity": 120}, {"time": 22917, "pitch": 76, "duration": 30, "velocity": 120}, {"time": 23037, "pitch": 85, "duration": 30, "velocity": 120}, {"time": 23158, "pitch": 88, "duration": 30, "velocity": 120}, {"time": 23278, "pitch": 81, "duration": 30, "velocity": 120}, {"time": 23399, "pitch": 85, "duration": 30, "velocity": 120}, {"time": 23519, "pitch": 86, "duration": 30, "velocity": 120}, {"time": 23639, "pitch": 83, "duration": 30, "velocity": 120}, {"time": 23760, "pitch": 79, "duration": 30, "velocity": 120}, {"time": 23880, "pitch": 86, "duration": 30, "velocity": 120}, {"time": 24001, "pitch": 74, "duration": 30, "velocity": 120}, {"time": 24121, "pitch": 79, "duration": 30, "velocity": 120}, {"time": 24241, "pitch": 90, "duration": 30, "velocity": 120}, {"time": 24362, "pitch": 83, "duration": 30, "velocity": 120}, {"time": 24482, "pitch": 73, "duration": 30, "velocity": 120}, {"time": 24603, "pitch": 76, "duration": 30, "velocity": 120}, {"time": 24723, "pitch": 69, "duration": 30, "velocity": 120}, {"time": 24843, "pitch": 76, "duration": 30, "velocity": 120}, {"time": 24964, "pitch": 85, "duration": 29, "velocity": 120}, {"time": 25081, "pitch": 88, "duration": 30, "velocity": 120}, {"time": 25199, "pitch": 81, "duration": 30, "velocity": 120}, {"time": 25317, "pitch": 85, "duration": 30, "velocity": 120}, {"time": 25435, "pitch": 85, "duration": 30, "velocity": 120}, {"time": 25555, "pitch": 73, "duration": 30, "velocity": 120}, {"time": 25676, "pitch": 78, "duration": 30, "velocity": 120}, {"time": 25796, "pitch": 85, "duration": 30, "velocity": 120}, {"time": 25916, "pitch": 73, "duration": 31, "velocity": 120}, {"time": 26037, "pitch": 78, "duration": 30, "velocity": 120}, {"time": 26157, "pitch": 88, "duration": 30, "velocity": 120}, {"time": 26278, "pitch": 81, "duration": 30, "velocity": 120}, {"time": 26398, "pitch": 74, "duration": 30, "velocity": 120}, {"time": 26518, "pitch": 78, "duration": 31, "velocity": 120}, {"time": 26639, "pitch": 71, "duration": 30, "velocity": 120}, {"time": 26759, "pitch": 78, "duration": 30, "velocity": 120}, {"time": 26880, "pitch": 86, "duration": 30, "velocity": 120}, {"time": 27000, "pitch": 90, "duration": 30, "velocity": 120}, {"time": 27120, "pitch": 83, "duration": 30, "velocity": 120}, {"time": 27241, "pitch": 86, "duration": 30, "velocity": 120}, {"time": 27361, "pitch": 86, "duration": 30, "velocity": 120}, {"time": 27482, "pitch": 74, "duration": 30, "velocity": 120}, {"time": 27602, "pitch": 79, "duration": 30, "velocity": 120}, {"time": 27722, "pitch": 86, "duration": 30, "velocity": 120}, {"time": 27843, "pitch": 74, "duration": 30, "velocity": 120}, {"time": 27963, "pitch": 79, "duration": 30, "velocity": 120}, {"time": 28084, "pitch": 90, "duration": 30, "velocity": 120}, {"time": 28204, "pitch": 83, "duration": 30, "velocity": 120}, {"time": 28324, "pitch": 73, "duration": 30, "velocity": 120}, {"time": 28442, "pitch": 76, "duration": 30, "velocity": 120}, {"time": 28560, "pitch": 69, "duration": 29, "velocity": 120}, {"time": 28678, "pitch": 76, "duration": 29, "velocity": 120}, {"time": 28796, "pitch": 85, "duration": 30, "velocity": 120}, {"time": 28916, "pitch": 88, "duration": 30, "velocity": 120}, {"time": 29036, "pitch": 81, "duration": 30, "velocity": 120}, {"time": 29157, "pitch": 85, "duration": 30, "velocity": 120}, {"time": 29277, "pitch": 71, "duration": 30, "velocity": 120}, {"time": 29397, "pitch": 76, "duration": 31, "velocity": 120}, {"time": 29518, "pitch": 80, "duration": 30, "velocity": 120}, {"time": 29638, "pitch": 88, "duration": 30, "velocity": 120}, {"time": 29759, "pitch": 76, "duration": 30, "velocity": 120}, {"time": 29879, "pitch": 83, "duration": 30, "velocity": 120}, {"time": 29999, "pitch": 92, "duration": 31, "velocity": 120}, {"time": 30120, "pitch": 83, "duration": 30, "velocity": 120}, {"time": 30240, "pitch": 88, "duration": 30, "velocity": 120}, {"time": 30361, "pitch": 80, "duration": 30, "velocity": 120}, {"time": 30481, "pitch": 71, "duration": 30, "velocity": 120}, {"time": 30601, "pitch": 76, "duration": 31, "velocity": 120}, {"time": 30722, "pitch": 83, "duration": 30, "velocity": 120}, {"time": 30842, "pitch": 88, "duration": 30, "velocity": 120}, {"time": 30963, "pitch": 80, "duration": 30, "velocity": 120}, {"time": 31083, "pitch": 83, "duration": 30, "velocity": 120}, {"time": 31203, "pitch": 71, "duration": 31, "velocity": 120}, {"time": 31324, "pitch": 76, "duration": 30, "velocity": 120}, {"time": 31444, "pitch": 80, "duration": 30, "velocity": 120}, {"time": 31565, "pitch": 88, "duration": 30, "velocity": 120}, {"time": 31685, "pitch": 76, "duration": 29, "velocity": 120}, {"time": 31803, "pitch": 83, "duration": 29, "velocity": 120}, {"time": 31921, "pitch": 92, "duration": 29, "velocity": 120}, {"time": 32038, "pitch": 83, "duration": 30, "velocity": 120}, {"time": 32156, "pitch": 88, "duration": 30, "velocity": 120}, {"time": 32277, "pitch": 80, "duration": 30, "velocity": 120}, {"time": 32397, "pitch": 71, "duration": 30, "velocity": 120}, {"time": 32517, "pitch": 76, "duration": 30, "velocity": 120}, {"time": 32638, "pitch": 83, "duration": 30, "velocity": 120}, {"time": 32758, "pitch": 88, "duration": 30, "velocity": 120}, {"time": 32879, "pitch": 80, "duration": 30, "velocity": 120}, {"time": 32999, "pitch": 83, "duration": 30, "velocity": 120}, {"time": 33119, "pitch": 79, "duration": 30, "velocity": 120}, {"time": 33240, "pitch": 84, "duration": 30, "velocity": 120}, {"time": 33360, "pitch": 72, "duration": 30, "velocity": 120}, {"time": 33481, "pitch": 79, "duration": 30, "velocity": 120}, {"time": 33601, "pitch": 91, "duration": 30, "velocity": 120}, {"time": 33721, "pitch": 84, "duration": 30, "velocity": 120}, {"time": 33842, "pitch": 79, "duration": 30, "velocity": 120}, {"time": 33962, "pitch": 84, "duration": 30, "velocity": 120}, {"time": 34083, "pitch": 72, "duration": 30, "velocity": 120}, {"time": 34203, "pitch": 79, "duration": 30, "velocity": 120}, {"time": 34323, "pitch": 91, "duration": 30, "velocity": 120}, {"time": 34444, "pitch": 84, "duration": 30, "velocity": 120}, {"time": 34564, "pitch": 79, "duration": 29, "velocity": 120}, {"time": 34682, "pitch": 84, "duration": 29, "velocity": 120}, {"time": 34800, "pitch": 72, "duration": 29, "velocity": 120}, {"time": 34918, "pitch": 79, "duration": 29, "velocity": 120}, {"time": 35035, "pitch": 79, "duration": 30, "velocity": 120}, {"time": 35156, "pitch": 84, "duration": 30, "velocity": 120}, {"time": 35276, "pitch": 72, "duration": 30, "velocity": 120}, {"time": 35396, "pitch": 79, "duration": 31, "velocity": 120}, {"time": 35517, "pitch": 91, "duration": 30, "velocity": 120}, {"time": 35637, "pitch": 84, "duration": 30, "velocity": 120}, {"time": 35758, "pitch": 79, "duration": 30, "velocity": 120}, {"time": 35878, "pitch": 84, "duration": 30, "velocity": 120}, {"time": 35998, "pitch": 72, "duration": 31, "velocity": 120}, {"time": 36119, "pitch": 79, "duration": 30, "velocity": 120}, {"time": 36239, "pitch": 91, "duration": 30, "velocity": 120}, {"time": 36360, "pitch": 84, "duration": 30, "velocity": 120}, {"time": 36480, "pitch": 79, "duration": 30, "velocity": 120}, {"time": 36600, "pitch": 84, "duration": 30, "velocity": 120}, {"time": 36721, "pitch": 72, "duration": 30, "velocity": 120}, {"time": 36841, "pitch": 79, "duration": 30, "velocity": 120}, {"time": 36962, "pitch": 79, "duration": 30, "velocity": 120}, {"time": 37082, "pitch": 84, "duration": 30, "velocity": 120}, {"time": 37202, "pitch": 72, "duration": 30, "velocity": 120}, {"time": 37323, "pitch": 79, "duration": 30, "velocity": 120}, {"time": 37443, "pitch": 91, "duration": 30, "velocity": 120}, {"time": 37564, "pitch": 84, "duration": 30, "velocity": 120}, {"time": 37684, "pitch": 79, "duration": 30, "velocity": 120}, {"time": 37804, "pitch": 84, "duration": 30, "velocity": 120}, {"time": 37925, "pitch": 72, "duration": 29, "velocity": 120}, {"time": 38042, "pitch": 79, "duration": 30, "velocity": 120}, {"time": 38160, "pitch": 91, "duration": 30, "velocity": 120}, {"time": 38278, "pitch": 84, "duration": 30, "velocity": 120}, {"time": 38396, "pitch": 79, "duration": 30, "velocity": 120}, {"time": 38516, "pitch": 84, "duration": 30, "velocity": 120}, {"time": 38637, "pitch": 72, "duration": 30, "velocity": 120}, {"time": 38757, "pitch": 79, "duration": 30, "velocity": 120}, {"time": 38877, "pitch": 79, "duration": 31, "velocity": 120}, {"time": 38998, "pitch": 84, "duration": 30, "velocity": 120}, {"time": 39118, "pitch": 72, "duration": 30, "velocity": 120}, {"time": 39239, "pitch": 79, "duration": 30, "velocity": 120}, {"time": 39359, "pitch": 91, "duration": 30, "velocity": 120}, {"time": 39479, "pitch": 84, "duration": 31, "velocity": 120}, {"time": 39600, "pitch": 79, "duration": 30, "velocity": 120}, {"time": 39720, "pitch": 84, "duration": 30, "velocity": 120}, {"time": 39841, "pitch": 72, "duration": 30, "velocity": 120}, {"time": 39961, "pitch": 79, "duration": 30, "velocity": 120}, {"time": 40081, "pitch": 91, "duration": 31, "velocity": 120}, {"time": 40202, "pitch": 84, "duration": 30, "velocity": 120}, {"time": 40322, "pitch": 79, "duration": 30, "velocity": 120}, {"time": 40443, "pitch": 84, "duration": 30, "velocity": 120}, {"time": 40563, "pitch": 72, "duration": 30, "velocity": 120}, {"time": 40683, "pitch": 79, "duration": 31, "velocity": 120}, {"time": 40804, "pitch": 79, "duration": 29, "velocity": 120}, {"time": 40922, "pitch": 84, "duration": 29, "velocity": 120}, {"time": 41039, "pitch": 72, "duration": 30, "velocity": 120}, {"time": 41157, "pitch": 79, "duration": 30, "velocity": 120}, {"time": 41275, "pitch": 91, "duration": 30, "velocity": 120}, {"time": 41395, "pitch": 84, "duration": 30, "velocity": 120}, {"time": 41516, "pitch": 79, "duration": 30, "velocity": 120}, {"time": 41636, "pitch": 84, "duration": 30, "velocity": 120}, {"time": 41757, "pitch": 72, "duration": 30, "velocity": 120}, {"time": 41877, "pitch": 79, "duration": 30, "velocity": 120}, {"time": 41997, "pitch": 91, "duration": 30, "velocity": 120}, {"time": 42118, "pitch": 84, "duration": 30, "velocity": 120}, {"time": 42238, "pitch": 79, "duration": 30, "velocity": 120}, {"time": 42359, "pitch": 84, "duration": 30, "velocity": 120}, {"time": 42479, "pitch": 72, "duration": 30, "velocity": 120}, {"time": 42599, "pitch": 79, "duration": 30, "velocity": 120}, {"time": 42720, "pitch": 79, "duration": 30, "velocity": 120}, {"time": 42840, "pitch": 84, "duration": 30, "velocity": 120}, {"time": 42961, "pitch": 72, "duration": 30, "velocity": 120}, {"time": 43081, "pitch": 79, "duration": 30, "velocity": 120}, {"time": 43201, "pitch": 91, "duration": 30, "velocity": 120}, {"time": 43322, "pitch": 84, "duration": 30, "velocity": 120}, {"time": 43442, "pitch": 79, "duration": 30, "velocity": 120}, {"time": 43563, "pitch": 84, "duration": 30, "velocity": 120}, {"time": 43683, "pitch": 72, "duration": 30, "velocity": 120}, {"time": 43803, "pitch": 79, "duration": 30, "velocity": 120}, {"time": 43924, "pitch": 91, "duration": 30, "velocity": 120}, {"time": 44044, "pitch": 84, "duration": 30, "velocity": 120}, {"time": 44164, "pitch": 79, "duration": 30, "velocity": 120}, {"time": 44282, "pitch": 84, "duration": 30, "velocity": 120}, {"time": 44400, "pitch": 72, "duration": 30, "velocity": 120}, {"time": 44518, "pitch": 79, "duration": 29, "velocity": 120}, {"time": 44636, "pitch": 79, "duration": 30, "velocity": 120}, {"time": 44756, "pitch": 84, "duration": 30, "velocity": 120}, {"time": 44876, "pitch": 72, "duration": 31, "velocity": 120}, {"time": 44997, "pitch": 79, "duration": 30, "velocity": 120}, {"time": 45117, "pitch": 91, "duration": 30, "velocity": 120}, {"time": 45238, "pitch": 84, "duration": 30, "velocity": 120}, {"time": 45358, "pitch": 79, "duration": 30, "velocity": 120}, {"time": 45478, "pitch": 84, "duration": 31, "velocity": 120}, {"time": 45599, "pitch": 72, "duration": 30, "velocity": 120}, {"time": 45719, "pitch": 79, "duration": 30, "velocity": 120}, {"time": 45840, "pitch": 91, "duration": 30, "velocity": 120}, {"time": 45960, "pitch": 84, "duration": 30, "velocity": 120}, {"time": 46080, "pitch": 79, "duration": 30, "velocity": 120}, {"time": 46201, "pitch": 84, "duration": 30, "velocity": 120}, {"time": 46321, "pitch": 72, "duration": 30, "velocity": 120}, {"time": 46442, "pitch": 79, "duration": 30, "velocity": 120}, {"time": 46562, "pitch": 79, "duration": 30, "velocity": 120}, {"time": 46682, "pitch": 84, "duration": 30, "velocity": 120}, {"time": 46803, "pitch": 72, "duration": 30, "velocity": 120}, {"time": 46923, "pitch": 79, "duration": 30, "velocity": 120}, {"time": 47044, "pitch": 91, "duration": 30, "velocity": 120}, {"time": 47164, "pitch": 84, "duration": 30, "velocity": 120}, {"time": 47284, "pitch": 79, "duration": 30, "velocity": 120}, {"time": 47405, "pitch": 84, "duration": 30, "velocity": 120}, {"time": 48478, "pitch": 83, "duration": 30, "velocity": 120}, {"time": 48598, "pitch": 74, "duration": 30, "velocity": 120}, {"time": 48719, "pitch": 76, "duration": 30, "velocity": 120}, {"time": 48839, "pitch": 83, "duration": 30, "velocity": 120}, {"time": 48959, "pitch": 74, "duration": 31, "velocity": 120}, {"time": 49080, "pitch": 79, "duration": 30, "velocity": 120}, {"time": 49200, "pitch": 86, "duration": 30, "velocity": 120}, {"time": 49321, "pitch": 76, "duration": 30, "velocity": 120}, {"time": 49441, "pitch": 88, "duration": 30, "velocity": 120}, {"time": 49561, "pitch": 79, "duration": 31, "velocity": 120}, {"time": 49682, "pitch": 86, "duration": 30, "velocity": 120}, {"time": 49802, "pitch": 76, "duration": 30, "velocity": 120}, {"time": 49923, "pitch": 83, "duration": 30, "velocity": 120}, {"time": 50043, "pitch": 74, "duration": 30, "velocity": 120}, {"time": 50163, "pitch": 88, "duration": 31, "velocity": 120}, {"time": 50284, "pitch": 76, "duration": 30, "velocity": 120}, {"time": 50404, "pitch": 83, "duration": 30, "velocity": 120}, {"time": 50522, "pitch": 74, "duration": 29, "velocity": 120}, {"time": 50640, "pitch": 76, "duration": 29, "velocity": 120}, {"time": 50758, "pitch": 83, "duration": 29, "velocity": 120}, {"time": 50875, "pitch": 74, "duration": 30, "velocity": 120}, {"time": 50996, "pitch": 79, "duration": 30, "velocity": 120}, {"time": 51116, "pitch": 86, "duration": 30, "velocity": 120}, {"time": 51237, "pitch": 76, "duration": 30, "velocity": 120}, {"time": 51357, "pitch": 88, "duration": 30, "velocity": 120}, {"time": 51477, "pitch": 79, "duration": 30, "velocity": 120}, {"time": 51598, "pitch": 86, "duration": 30, "velocity": 120}, {"time": 51718, "pitch": 76, "duration": 30, "velocity": 120}, {"time": 51839, "pitch": 83, "duration": 30, "velocity": 120}, {"time": 51959, "pitch": 74, "duration": 30, "velocity": 120}, {"time": 52079, "pitch": 88, "duration": 30, "velocity": 120}, {"time": 52200, "pitch": 76, "duration": 30, "velocity": 120}, {"time": 52320, "pitch": 83, "duration": 30, "velocity": 120}, {"time": 52441, "pitch": 71, "duration": 30, "velocity": 120}, {"time": 52561, "pitch": 76, "duration": 30, "velocity": 120}, {"time": 52681, "pitch": 83, "duration": 30, "velocity": 120}, {"time": 52802, "pitch": 71, "duration": 30, "velocity": 120}, {"time": 52922, "pitch": 79, "duration": 30, "velocity": 120}, {"time": 53043, "pitch": 83, "duration": 30, "velocity": 120}, {"time": 53163, "pitch": 76, "duration": 30, "velocity": 120}, {"time": 53283, "pitch": 88, "duration": 30, "velocity": 120}, {"time": 53404, "pitch": 79, "duration": 30, "velocity": 120}, {"time": 53524, "pitch": 83, "duration": 30, "velocity": 120}, {"time": 53644, "pitch": 76, "duration": 31, "velocity": 120}, {"time": 53765, "pitch": 83, "duration": 29, "velocity": 120}, {"time": 53883, "pitch": 71, "duration": 29, "velocity": 120}, {"time": 54000, "pitch": 88, "duration": 30, "velocity": 120}, {"time": 54118, "pitch": 76, "duration": 30, "velocity": 120}, {"time": 54236, "pitch": 83, "duration": 30, "velocity": 120}, {"time": 54356, "pitch": 71, "duration": 31, "velocity": 120}, {"time": 54477, "pitch": 76, "duration": 30, "velocity": 120}, {"time": 54597, "pitch": 83, "duration": 30, "velocity": 120}, {"time": 54718, "pitch": 71, "duration": 30, "velocity": 120}, {"time": 54838, "pitch": 79, "duration": 30, "velocity": 120}, {"time": 54958, "pitch": 83, "duration": 31, "velocity": 120}, {"time": 55079, "pitch": 76, "duration": 30, "velocity": 120}, {"time": 55199, "pitch": 88, "duration": 30, "velocity": 120}, {"time": 55320, "pitch": 79, "duration": 30, "velocity": 120}, {"time": 55440, "pitch": 83, "duration": 30, "velocity": 120}, {"time": 55560, "pitch": 76, "duration": 30, "velocity": 120}, {"time": 55681, "pitch": 83, "duration": 30, "velocity": 120}, {"time": 55801, "pitch": 71, "duration": 30, "velocity": 120}, {"time": 55922, "pitch": 88, "duration": 30, "velocity": 120}, {"time": 56042, "pitch": 76, "duration": 30, "velocity": 120}, {"time": 56162, "pitch": 83, "duration": 30, "velocity": 120}, {"time": 56283, "pitch": 71, "duration": 30, "velocity": 120}, {"time": 56403, "pitch": 76, "duration": 30, "velocity": 120}, {"time": 56524, "pitch": 83, "duration": 30, "velocity": 120}, {"time": 56644, "pitch": 71, "duration": 29, "velocity": 120}, {"time": 56762, "pitch": 79, "duration": 29, "velocity": 120}, {"time": 56880, "pitch": 83, "duration": 29, "velocity": 120}, {"time": 56997, "pitch": 76, "duration": 30, "velocity": 120}, {"time": 57115, "pitch": 88, "duration": 30, "velocity": 120}, {"time": 57236, "pitch": 79, "duration": 30, "velocity": 120}, {"time": 57356, "pitch": 83, "duration": 30, "velocity": 120}, {"time": 57476, "pitch": 76, "duration": 30, "velocity": 120}, {"time": 57597, "pitch": 83, "duration": 30, "velocity": 120}, {"time": 57717, "pitch": 71, "duration": 30, "velocity": 120}, {"time": 57837, "pitch": 88, "duration": 31, "velocity": 120}, {"time": 57958, "pitch": 76, "duration": 30, "velocity": 120}, {"time": 58078, "pitch": 83, "duration": 30, "velocity": 120}, {"time": 58199, "pitch": 71, "duration": 30, "velocity": 120}, {"time": 58319, "pitch": 76, "duration": 30, "velocity": 120}, {"time": 58439, "pitch": 83, "duration": 31, "velocity": 120}, {"time": 58560, "pitch": 71, "duration": 30, "velocity": 120}, {"time": 58680, "pitch": 79, "duration": 30, "velocity": 120}, {"time": 58801, "pitch": 83, "duration": 30, "velocity": 120}, {"time": 58921, "pitch": 76, "duration": 30, "velocity": 120}, {"time": 59041, "pitch": 88, "duration": 31, "velocity": 120}, {"time": 59162, "pitch": 79, "duration": 30, "velocity": 120}, {"time": 59282, "pitch": 83, "duration": 30, "velocity": 120}, {"time": 59403, "pitch": 76, "duration": 30, "velocity": 120}, {"time": 59523, "pitch": 83, "duration": 30, "velocity": 120}, {"time": 59643, "pitch": 71, "duration": 31, "velocity": 120}, {"time": 59764, "pitch": 88, "duration": 30, "velocity": 120}, {"time": 59884, "pitch": 76, "duration": 30, "velocity": 120}, {"time": 60005, "pitch": 81, "duration": 29, "velocity": 120}, {"time": 60122, "pitch": 69, "duration": 30, "velocity": 120}, {"time": 60240, "pitch": 74, "duration": 30, "velocity": 120}, {"time": 60358, "pitch": 81, "duration": 29, "velocity": 120}, {"time": 60476, "pitch": 69, "duration": 30, "velocity": 120}, {"time": 60596, "pitch": 78, "duration": 30, "velocity": 120}, {"time": 60717, "pitch": 81, "duration": 30, "velocity": 120}, {"time": 60837, "pitch": 74, "duration": 30, "velocity": 120}, {"time": 60957, "pitch": 86, "duration": 30, "velocity": 120}, {"time": 61078, "pitch": 78, "duration": 30, "velocity": 120}, {"time": 61198, "pitch": 81, "duration": 30, "velocity": 120}, {"time": 61319, "pitch": 74, "duration": 30, "velocity": 120}, {"time": 61439, "pitch": 81, "duration": 30, "velocity": 120}, {"time": 61559, "pitch": 69, "duration": 30, "velocity": 120}, {"time": 61680, "pitch": 86, "duration": 30, "velocity": 120}, {"time": 61800, "pitch": 74, "duration": 30, "velocity": 120}, {"time": 61921, "pitch": 83, "duration": 30, "velocity": 120}, {"time": 62041, "pitch": 71, "duration": 30, "velocity": 120}, {"time": 62161, "pitch": 75, "duration": 30, "velocity": 120}, {"time": 62282, "pitch": 83, "duration": 30, "velocity": 120}, {"time": 62402, "pitch": 71, "duration": 30, "velocity": 120}, {"time": 62523, "pitch": 78, "duration": 30, "velocity": 120}, {"time": 62643, "pitch": 87, "duration": 30, "velocity": 120}, {"time": 62763, "pitch": 75, "duration": 30, "velocity": 120}, {"time": 62884, "pitch": 90, "duration": 29, "velocity": 120}, {"time": 63001, "pitch": 78, "duration": 30, "velocity": 120}, {"time": 63119, "pitch": 87, "duration": 30, "velocity": 120}, {"time": 63237, "pitch": 75, "duration": 30, "velocity": 120}, {"time": 63355, "pitch": 83, "duration": 30, "velocity": 120}, {"time": 63475, "pitch": 71, "duration": 30, "velocity": 120}, {"time": 63596, "pitch": 90, "duration": 30, "velocity": 120}, {"time": 63716, "pitch": 75, "duration": 30, "velocity": 120}, {"time": 63836, "pitch": 83, "duration": 31, "velocity": 120}, {"time": 63957, "pitch": 74, "duration": 30, "velocity": 120}, {"time": 64077, "pitch": 76, "duration": 30, "velocity": 120}, {"time": 64198, "pitch": 83, "duration": 30, "velocity": 120}, {"time": 64318, "pitch": 74, "duration": 30, "velocity": 120}, {"time": 64438, "pitch": 79, "duration": 31, "velocity": 120}, {"time": 64559, "pitch": 86, "duration": 30, "velocity": 120}, {"time": 64679, "pitch": 76, "duration": 30, "velocity": 120}, {"time": 64800, "pitch": 88, "duration": 30, "velocity": 120}, {"time": 64920, "pitch": 79, "duration": 30, "velocity": 120}, {"time": 65040, "pitch": 86, "duration": 30, "velocity": 120}, {"time": 65161, "pitch": 76, "duration": 30, "velocity": 120}, {"time": 65281, "pitch": 83, "duration": 30, "velocity": 120}, {"time": 65402, "pitch": 74, "duration": 30, "velocity": 120}, {"time": 65522, "pitch": 88, "duration": 30, "velocity": 120}, {"time": 65642, "pitch": 76, "duration": 30, "velocity": 120}, {"time": 65763, "pitch": 83, "duration": 30, "velocity": 120}, {"time": 65883, "pitch": 74, "duration": 30, "velocity": 120}, {"time": 66004, "pitch": 76, "duration": 30, "velocity": 120}, {"time": 66124, "pitch": 83, "duration": 30, "velocity": 120}, {"time": 66244, "pitch": 74, "duration": 30, "velocity": 120}, {"time": 66362, "pitch": 79, "duration": 30, "velocity": 120}, {"time": 66480, "pitch": 86, "duration": 29, "velocity": 120}, {"time": 66598, "pitch": 76, "duration": 29, "velocity": 120}, {"time": 66716, "pitch": 88, "duration": 30, "velocity": 120}, {"time": 66836, "pitch": 79, "duration": 30, "velocity": 120}, {"time": 66956, "pitch": 86, "duration": 30, "velocity": 120}, {"time": 67077, "pitch": 76, "duration": 30, "velocity": 120}, {"time": 67197, "pitch": 83, "duration": 30, "velocity": 120}, {"time": 67317, "pitch": 74, "duration": 31, "velocity": 120}, {"time": 67438, "pitch": 88, "duration": 30, "velocity": 120}, {"time": 67558, "pitch": 76, "duration": 30, "velocity": 120}, {"time": 67679, "pitch": 83, "duration": 30, "velocity": 120}, {"time": 67799, "pitch": 71, "duration": 30, "velocity": 120}, {"time": 67919, "pitch": 76, "duration": 31, "velocity": 120}, {"time": 68040, "pitch": 83, "duration": 30, "velocity": 120}, {"time": 68160, "pitch": 71, "duration": 30, "velocity": 120}, {"time": 68281, "pitch": 79, "duration": 30, "velocity": 120}, {"time": 68401, "pitch": 83, "duration": 30, "velocity": 120}, {"time": 68521, "pitch": 76, "duration": 31, "velocity": 120}, {"time": 68642, "pitch": 88, "duration": 30, "velocity": 120}, {"time": 68762, "pitch": 79, "duration": 30, "velocity": 120}, {"time": 68883, "pitch": 83, "duration": 30, "velocity": 120}, {"time": 69003, "pitch": 76, "duration": 30, "velocity": 120}, {"time": 69123, "pitch": 83, "duration": 31, "velocity": 120}, {"time": 69244, "pitch": 71, "duration": 30, "velocity": 120}, {"time": 69364, "pitch": 88, "duration": 30, "velocity": 120}, {"time": 69485, "pitch": 76, "duration": 30, "velocity": 120}, {"time": 69605, "pitch": 83, "duration": 29, "velocity": 120}, {"time": 69723, "pitch": 71, "duration": 29, "velocity": 120}, {"time": 69841, "pitch": 76, "duration": 29, "velocity": 120}, {"time": 69958, "pitch": 83, "duration": 30, "velocity": 120}, {"time": 70076, "pitch": 71, "duration": 30, "velocity": 120}, {"time": 70197, "pitch": 79, "duration": 30, "velocity": 120}, {"time": 70317, "pitch": 83, "duration": 30, "velocity": 120}, {"time": 70437, "pitch": 76, "duration": 30, "velocity": 120}, {"time": 70558, "pitch": 88, "duration": 30, "velocity": 120}, {"time": 70678, "pitch": 79, "duration": 30, "velocity": 120}, {"time": 70799, "pitch": 83, "duration": 30, "velocity": 120}, {"time": 70919, "pitch": 76, "duration": 30, "velocity": 120}, {"time": 71039, "pitch": 83, "duration": 30, "velocity": 120}, {"time": 71160, "pitch": 71, "duration": 30, "velocity": 120}, {"time": 71280, "pitch": 88, "duration": 30, "velocity": 120}, {"time": 71401, "pitch": 76, "duration": 30, "velocity": 120}, {"time": 71521, "pitch": 83, "duration": 30, "velocity": 120}, {"time": 71641, "pitch": 71, "duration": 30, "velocity": 120}, {"time": 71762, "pitch": 76, "duration": 30, "velocity": 120}, {"time": 71882, "pitch": 83, "duration": 30, "velocity": 120}, {"time": 72003, "pitch": 71, "duration": 30, "velocity": 120}, {"time": 72123, "pitch": 79, "duration": 30, "velocity": 120}, {"time": 72243, "pitch": 83, "duration": 30, "velocity": 120}, {"time": 72364, "pitch": 76, "duration": 30, "velocity": 120}, {"time": 72484, "pitch": 88, "duration": 29, "velocity": 120}, {"time": 72602, "pitch": 79, "duration": 29, "velocity": 120}, {"time": 72720, "pitch": 83, "duration": 29, "velocity": 120}, {"time": 72838, "pitch": 76, "duration": 29, "velocity": 120}, {"time": 72955, "pitch": 83, "duration": 30, "velocity": 120}, {"time": 73076, "pitch": 71, "duration": 30, "velocity": 120}, {"time": 73196, "pitch": 88, "duration": 30, "velocity": 120}, {"time": 73316, "pitch": 76, "duration": 31, "velocity": 120}, {"time": 73437, "pitch": 83, "duration": 30, "velocity": 120}, {"time": 73557, "pitch": 71, "duration": 30, "velocity": 120}, {"time": 73678, "pitch": 76, "duration": 30, "velocity": 120}, {"time": 73798, "pitch": 83, "duration": 30, "velocity": 120}, {"time": 73918, "pitch": 71, "duration": 31, "velocity": 120}, {"time": 74039, "pitch": 79, "duration": 30, "velocity": 120}, {"time": 74159, "pitch": 83, "duration": 30, "velocity": 120}, {"time": 74280, "pitch": 76, "duration": 30, "velocity": 120}, {"time": 74400, "pitch": 88, "duration": 30, "velocity": 120}, {"time": 74520, "pitch": 79, "duration": 30, "velocity": 120}, {"time": 74641, "pitch": 83, "duration": 30, "velocity": 120}, {"time": 74761, "pitch": 76, "duration": 30, "velocity": 120}, {"time": 74882, "pitch": 83, "duration": 30, "velocity": 120}, {"time": 75002, "pitch": 71, "duration": 30, "velocity": 120}, {"time": 75122, "pitch": 88, "duration": 30, "velocity": 120}, {"time": 75243, "pitch": 76, "duration": 30, "velocity": 120}, {"time": 75363, "pitch": 81, "duration": 30, "velocity": 120}, {"time": 75484, "pitch": 69, "duration": 30, "velocity": 120}, {"time": 75604, "pitch": 74, "duration": 30, "velocity": 120}, {"time": 75724, "pitch": 81, "duration": 30, "velocity": 120}, {"time": 75845, "pitch": 69, "duration": 29, "velocity": 120}, {"time": 75962, "pitch": 78, "duration": 30, "velocity": 120}, {"time": 76080, "pitch": 81, "duration": 30, "velocity": 120}, {"time": 76198, "pitch": 74, "duration": 30, "velocity": 120}, {"time": 76316, "pitch": 86, "duration": 30, "velocity": 120}, {"time": 76436, "pitch": 78, "duration": 30, "velocity": 120}, {"time": 76557, "pitch": 81, "duration": 30, "velocity": 120}, {"time": 76677, "pitch": 74, "duration": 30, "velocity": 120}, {"time": 76797, "pitch": 81, "duration": 31, "velocity": 120}, {"time": 76918, "pitch": 69, "duration": 30, "velocity": 120}, {"time": 77038, "pitch": 86, "duration": 30, "velocity": 120}, {"time": 77159, "pitch": 74, "duration": 30, "velocity": 120}, {"time": 77279, "pitch": 83, "duration": 30, "velocity": 120}, {"time": 77399, "pitch": 71, "duration": 31, "velocity": 120}, {"time": 77520, "pitch": 75, "duration": 30, "velocity": 120}, {"time": 77640, "pitch": 83, "duration": 30, "velocity": 120}, {"time": 77761, "pitch": 71, "duration": 30, "velocity": 120}, {"time": 77881, "pitch": 78, "duration": 30, "velocity": 120}, {"time": 78001, "pitch": 87, "duration": 31, "velocity": 120}, {"time": 78122, "pitch": 75, "duration": 30, "velocity": 120}, {"time": 78242, "pitch": 90, "duration": 30, "velocity": 120}, {"time": 78363, "pitch": 78, "duration": 30, "velocity": 120}, {"time": 78483, "pitch": 87, "duration": 30, "velocity": 120}, {"time": 78603, "pitch": 75, "duration": 31, "velocity": 120}, {"time": 78724, "pitch": 83, "duration": 29, "velocity": 120}, {"time": 78842, "pitch": 71, "duration": 29, "velocity": 120}, {"time": 78959, "pitch": 90, "duration": 30, "velocity": 120}, {"time": 79077, "pitch": 75, "duration": 30, "velocity": 120}, {"time": 79195, "pitch": 83, "duration": 30, "velocity": 120}, {"time": 79315, "pitch": 71, "duration": 30, "velocity": 120}, {"time": 79436, "pitch": 76, "duration": 30, "velocity": 120}, {"time": 79556, "pitch": 83, "duration": 30, "velocity": 120}, {"time": 79677, "pitch": 74, "duration": 30, "velocity": 120}, {"time": 79797, "pitch": 79, "duration": 30, "velocity": 120}, {"time": 79917, "pitch": 86, "duration": 30, "velocity": 120}, {"time": 80038, "pitch": 76, "duration": 30, "velocity": 120}, {"time": 80158, "pitch": 88, "duration": 30, "velocity": 120}, {"time": 80279, "pitch": 79, "duration": 30, "velocity": 120}, {"time": 80399, "pitch": 86, "duration": 30, "velocity": 120}, {"time": 80519, "pitch": 76, "duration": 30, "velocity": 120}, {"time": 80640, "pitch": 83, "duration": 30, "velocity": 120}, {"time": 80760, "pitch": 74, "duration": 30, "velocity": 120}, {"time": 80881, "pitch": 88, "duration": 30, "velocity": 120}, {"time": 81001, "pitch": 76, "duration": 30, "velocity": 120}, {"time": 81121, "pitch": 83, "duration": 30, "velocity": 120}, {"time": 81242, "pitch": 74, "duration": 30, "velocity": 120}, {"time": 81362, "pitch": 76, "duration": 30, "velocity": 120}, {"time": 81483, "pitch": 83, "duration": 30, "velocity": 120}, {"time": 81603, "pitch": 74, "duration": 30, "velocity": 120}, {"time": 81723, "pitch": 79, "duration": 30, "velocity": 120}, {"time": 81844, "pitch": 86, "duration": 30, "velocity": 120}, {"time": 81964, "pitch": 76, "duration": 30, "velocity": 120}, {"time": 82084, "pitch": 88, "duration": 30, "velocity": 120}, {"time": 82202, "pitch": 79, "duration": 30, "velocity": 120}, {"time": 82320, "pitch": 86, "duration": 30, "velocity": 120}, {"time": 82438, "pitch": 76, "duration": 29, "velocity": 120}, {"time": 82556, "pitch": 83, "duration": 30, "velocity": 120}, {"time": 82676, "pitch": 74, "duration": 30, "velocity": 120}, {"time": 82796, "pitch": 88, "duration": 31, "velocity": 120}, {"time": 82917, "pitch": 76, "duration": 30, "velocity": 120}, {"time": 83037, "pitch": 83, "duration": 30, "velocity": 120}, {"time": 83158, "pitch": 74, "duration": 30, "velocity": 120}, {"time": 83278, "pitch": 76, "duration": 30, "velocity": 120}, {"time": 83398, "pitch": 83, "duration": 31, "velocity": 120}, {"time": 83519, "pitch": 71, "duration": 30, "velocity": 120}, {"time": 83639, "pitch": 79, "duration": 30, "velocity": 120}, {"time": 83760, "pitch": 83, "duration": 30, "velocity": 120}, {"time": 83880, "pitch": 76, "duration": 30, "velocity": 120}, {"time": 84000, "pitch": 88, "duration": 30, "velocity": 120}, {"time": 84121, "pitch": 79, "duration": 30, "velocity": 120}, {"time": 84241, "pitch": 83, "duration": 30, "velocity": 120}, {"time": 84362, "pitch": 76, "duration": 30, "velocity": 120}, {"time": 84482, "pitch": 83, "duration": 30, "velocity": 120}, {"time": 84602, "pitch": 71, "duration": 30, "velocity": 120}, {"time": 84723, "pitch": 88, "duration": 30, "velocity": 120}, {"time": 84843, "pitch": 76, "duration": 30, "velocity": 120}, {"time": 84964, "pitch": 83, "duration": 30, "velocity": 120}, {"time": 85084, "pitch": 71, "duration": 30, "velocity": 120}, {"time": 85204, "pitch": 76, "duration": 30, "velocity": 120}, {"time": 85325, "pitch": 83, "duration": 30, "velocity": 120}, {"time": 85445, "pitch": 71, "duration": 30, "velocity": 120}, {"time": 85563, "pitch": 79, "duration": 29, "velocity": 120}, {"time": 85681, "pitch": 83, "duration": 29, "velocity": 120}, {"time": 85799, "pitch": 76, "duration": 29, "velocity": 120}, {"time": 85916, "pitch": 88, "duration": 30, "velocity": 120}, {"time": 86037, "pitch": 79, "duration": 30, "velocity": 120}, {"time": 86157, "pitch": 83, "duration": 30, "velocity": 120}, {"time": 86277, "pitch": 76, "duration": 31, "velocity": 120}, {"time": 86398, "pitch": 83, "duration": 30, "velocity": 120}, {"time": 86518, "pitch": 71, "duration": 30, "velocity": 120}, {"time": 86639, "pitch": 88, "duration": 30, "velocity": 120}, {"time": 86759, "pitch": 76, "duration": 30, "velocity": 120}, {"time": 86879, "pitch": 83, "duration": 31, "velocity": 120}, {"time": 87000, "pitch": 71, "duration": 30, "velocity": 120}, {"time": 87120, "pitch": 76, "duration": 30, "velocity": 120}, {"time": 87241, "pitch": 83, "duration": 30, "velocity": 120}, {"time": 87361, "pitch": 71, "duration": 30, "velocity": 120}, {"time": 87481, "pitch": 79, "duration": 31, "velocity": 120}, {"time": 87602, "pitch": 83, "duration": 30, "velocity": 120}, {"time": 87722, "pitch": 76, "duration": 30, "velocity": 120}, {"time": 87843, "pitch": 88, "duration": 30, "velocity": 120}, {"time": 87963, "pitch": 79, "duration": 30, "velocity": 120}, {"time": 88083, "pitch": 83, "duration": 31, "velocity": 120}, {"time": 88204, "pitch": 76, "duration": 30, "velocity": 120}, {"time": 88324, "pitch": 83, "duration": 30, "velocity": 120}, {"time": 88442, "pitch": 71, "duration": 29, "velocity": 120}, {"time": 88560, "pitch": 88, "duration": 29, "velocity": 120}, {"time": 88678, "pitch": 76, "duration": 29, "velocity": 120}, {"time": 88795, "pitch": 83, "duration": 30, "velocity": 120}, {"time": 88916, "pitch": 71, "duration": 30, "velocity": 120}, {"time": 89036, "pitch": 76, "duration": 30, "velocity": 120}, {"time": 89157, "pitch": 83, "duration": 30, "velocity": 120}, {"time": 89277, "pitch": 71, "duration": 30, "velocity": 120}, {"time": 89397, "pitch": 79, "duration": 30, "velocity": 120}, {"time": 89518, "pitch": 83, "duration": 30, "velocity": 120}, {"time": 89638, "pitch": 76, "duration": 30, "velocity": 120}, {"time": 89759, "pitch": 88, "duration": 30, "velocity": 120}, {"time": 89879, "pitch": 79, "duration": 30, "velocity": 120}, {"time": 89999, "pitch": 83, "duration": 30, "velocity": 120}, {"time": 90120, "pitch": 76, "duration": 30, "velocity": 120}, {"time": 90240, "pitch": 83, "duration": 30, "velocity": 120}, {"time": 90361, "pitch": 71, "duration": 30, "velocity": 120}, {"time": 90481, "pitch": 88, "duration": 30, "velocity": 120}, {"time": 90601, "pitch": 76, "duration": 30, "velocity": 120}, {"time": 90722, "pitch": 83, "duration": 30, "velocity": 120}, {"time": 90842, "pitch": 71, "duration": 30, "velocity": 120}, {"time": 90963, "pitch": 76, "duration": 30, "velocity": 120}, {"time": 91083, "pitch": 83, "duration": 30, "velocity": 120}, {"time": 91203, "pitch": 71, "duration": 30, "velocity": 120}, {"time": 91324, "pitch": 79, "duration": 30, "velocity": 120}, {"time": 91444, "pitch": 83, "duration": 30, "velocity": 120}, {"time": 91564, "pitch": 76, "duration": 31, "velocity": 120}, {"time": 91685, "pitch": 88, "duration": 29, "velocity": 120}, {"time": 91803, "pitch": 79, "duration": 29, "velocity": 120}, {"time": 91920, "pitch": 83, "duration": 30, "velocity": 120}, {"time": 92038, "pitch": 76, "duration": 30, "velocity": 120}, {"time": 92156, "pitch": 83, "duration": 30, "velocity": 120}, {"time": 92276, "pitch": 71, "duration": 31, "velocity": 120}, {"time": 92397, "pitch": 88, "duration": 30, "velocity": 120}, {"time": 92517, "pitch": 76, "duration": 30, "velocity": 120}, {"time": 92638, "pitch": 83, "duration": 30, "velocity": 120}, {"time": 92758, "pitch": 71, "duration": 30, "velocity": 120}, {"time": 92878, "pitch": 75, "duration": 31, "velocity": 120}, {"time": 92999, "pitch": 83, "duration": 30, "velocity": 120}, {"time": 93119, "pitch": 71, "duration": 30, "velocity": 120}, {"time": 93240, "pitch": 78, "duration": 30, "velocity": 120}, {"time": 93360, "pitch": 87, "duration": 30, "velocity": 120}, {"time": 93480, "pitch": 75, "duration": 30, "velocity": 120}, {"time": 93601, "pitch": 90, "duration": 30, "velocity": 120}, {"time": 93721, "pitch": 78, "duration": 30, "velocity": 120}, {"time": 93842, "pitch": 87, "duration": 30, "velocity": 120}, {"time": 93962, "pitch": 75, "duration": 30, "velocity": 120}, {"time": 94082, "pitch": 83, "duration": 30, "velocity": 120}, {"time": 94203, "pitch": 71, "duration": 30, "velocity": 120}, {"time": 94323, "pitch": 90, "duration": 30, "velocity": 120}, {"time": 94444, "pitch": 75, "duration": 30, "velocity": 120}, {"time": 94564, "pitch": 86, "duration": 29, "velocity": 120}, {"time": 94682, "pitch": 83, "duration": 29, "velocity": 120}, {"time": 94800, "pitch": 79, "duration": 29, "velocity": 120}, {"time": 94917, "pitch": 86, "duration": 30, "velocity": 120}, {"time": 95035, "pitch": 74, "duration": 30, "velocity": 120}, {"time": 95156, "pitch": 79, "duration": 30, "velocity": 120}, {"time": 95276, "pitch": 90, "duration": 30, "velocity": 120}, {"time": 95396, "pitch": 83, "duration": 30, "velocity": 120}, {"time": 95517, "pitch": 73, "duration": 30, "velocity": 120}, {"time": 95637, "pitch": 76, "duration": 30, "velocity": 120}, {"time": 95757, "pitch": 69, "duration": 31, "velocity": 120}, {"time": 95878, "pitch": 76, "duration": 30, "velocity": 120}, {"time": 95998, "pitch": 85, "duration": 30, "velocity": 120}, {"time": 96119, "pitch": 88, "duration": 30, "velocity": 120}, {"time": 96239, "pitch": 81, "duration": 30, "velocity": 120}, {"time": 96359, "pitch": 85, "duration": 31, "velocity": 120}, {"time": 96480, "pitch": 85, "duration": 30, "velocity": 120}, {"time": 96600, "pitch": 73, "duration": 30, "velocity": 120}, {"time": 96721, "pitch": 78, "duration": 30, "velocity": 120}, {"time": 96841, "pitch": 85, "duration": 30, "velocity": 120}, {"time": 96961, "pitch": 73, "duration": 31, "velocity": 120}, {"time": 97082, "pitch": 78, "duration": 30, "velocity": 120}, {"time": 97202, "pitch": 88, "duration": 30, "velocity": 120}, {"time": 97323, "pitch": 81, "duration": 30, "velocity": 120}, {"time": 97443, "pitch": 74, "duration": 30, "velocity": 120}, {"time": 97563, "pitch": 78, "duration": 31, "velocity": 120}, {"time": 97684, "pitch": 71, "duration": 30, "velocity": 120}, {"time": 97804, "pitch": 78, "duration": 30, "velocity": 120}, {"time": 97925, "pitch": 86, "duration": 29, "velocity": 120}, {"time": 98042, "pitch": 90, "duration": 30, "velocity": 120}, {"time": 98160, "pitch": 83, "duration": 30, "velocity": 120}, {"time": 98278, "pitch": 86, "duration": 29, "velocity": 120}, {"time": 98396, "pitch": 86, "duration": 30, "velocity": 120}, {"time": 98516, "pitch": 74, "duration": 30, "velocity": 120}, {"time": 98637, "pitch": 79, "duration": 30, "velocity": 120}, {"time": 98757, "pitch": 86, "duration": 30, "velocity": 120}, {"time": 98877, "pitch": 74, "duration": 30, "velocity": 120}, {"time": 98998, "pitch": 79, "duration": 30, "velocity": 120}, {"time": 99118, "pitch": 90, "duration": 30, "velocity": 120}, {"time": 99239, "pitch": 83, "duration": 30, "velocity": 120}, {"time": 99359, "pitch": 73, "duration": 30, "velocity": 120}, {"time": 99479, "pitch": 76, "duration": 30, "velocity": 120}, {"time": 99600, "pitch": 69, "duration": 30, "velocity": 120}, {"time": 99720, "pitch": 76, "duration": 30, "velocity": 120}, {"time": 99841, "pitch": 85, "duration": 30, "velocity": 120}, {"time": 99961, "pitch": 88, "duration": 30, "velocity": 120}, {"time": 100081, "pitch": 81, "duration": 30, "velocity": 120}, {"time": 100202, "pitch": 85, "duration": 30, "velocity": 120}, {"time": 100322, "pitch": 86, "duration": 30, "velocity": 120}, {"time": 100443, "pitch": 74, "duration": 30, "velocity": 120}, {"time": 100563, "pitch": 79, "duration": 30, "velocity": 120}, {"time": 100683, "pitch": 86, "duration": 30, "velocity": 120}, {"time": 100804, "pitch": 74, "duration": 29, "velocity": 120}, {"time": 100921, "pitch": 79, "duration": 30, "velocity": 120}, {"time": 101039, "pitch": 90, "duration": 30, "velocity": 120}, {"time": 101157, "pitch": 83, "duration": 30, "velocity": 120}, {"time": 101275, "pitch": 73, "duration": 30, "velocity": 120}, {"time": 101395, "pitch": 76, "duration": 30, "velocity": 120}, {"time": 101516, "pitch": 69, "duration": 30, "velocity": 120}, {"time": 101636, "pitch": 76, "duration": 30, "velocity": 120}, {"time": 101756, "pitch": 85, "duration": 31, "velocity": 120}, {"time": 101877, "pitch": 88, "duration": 30, "velocity": 120}, {"time": 101997, "pitch": 81, "duration": 30, "velocity": 120}, {"time": 102118, "pitch": 85, "duration": 30, "velocity": 120}, {"time": 102238, "pitch": 86, "duration": 30, "velocity": 120}, {"time": 102358, "pitch": 83, "duration": 31, "velocity": 120}, {"time": 102479, "pitch": 79, "duration": 30, "velocity": 120}, {"time": 102599, "pitch": 86, "duration": 30, "velocity": 120}, {"time": 102720, "pitch": 74, "duration": 30, "velocity": 120}, {"time": 102840, "pitch": 79, "duration": 30, "velocity": 120}, {"time": 102960, "pitch": 90, "duration": 30, "velocity": 120}, {"time": 103081, "pitch": 83, "duration": 30, "velocity": 120}, {"time": 103201, "pitch": 73, "duration": 30, "velocity": 120}, {"time": 103322, "pitch": 76, "duration": 30, "velocity": 120}, {"time": 103442, "pitch": 69, "duration": 30, "velocity": 120}, {"time": 103562, "pitch": 76, "duration": 30, "velocity": 120}, {"time": 103683, "pitch": 85, "duration": 30, "velocity": 120}, {"time": 103803, "pitch": 88, "duration": 30, "velocity": 120}, {"time": 103924, "pitch": 81, "duration": 30, "velocity": 120}, {"time": 104044, "pitch": 85, "duration": 30, "velocity": 120}, {"time": 104164, "pitch": 85, "duration": 30, "velocity": 120}, {"time": 104282, "pitch": 73, "duration": 30, "velocity": 120}, {"time": 104400, "pitch": 78, "duration": 29, "velocity": 120}, {"time": 104518, "pitch": 85, "duration": 29, "velocity": 120}, {"time": 104636, "pitch": 73, "duration": 30, "velocity": 120}, {"time": 104756, "pitch": 78, "duration": 30, "velocity": 120}, {"time": 104876, "pitch": 88, "duration": 30, "velocity": 120}, {"time": 104997, "pitch": 81, "duration": 30, "velocity": 120}, {"time": 105117, "pitch": 74, "duration": 30, "velocity": 120}, {"time": 105237, "pitch": 78, "duration": 31, "velocity": 120}, {"time": 105358, "pitch": 71, "duration": 30, "velocity": 120}, {"time": 105478, "pitch": 78, "duration": 30, "velocity": 120}, {"time": 105599, "pitch": 86, "duration": 30, "velocity": 120}, {"time": 105719, "pitch": 90, "duration": 30, "velocity": 120}, {"time": 105839, "pitch": 83, "duration": 31, "velocity": 120}, {"time": 105960, "pitch": 86, "duration": 30, "velocity": 120}, {"time": 106080, "pitch": 86, "duration": 30, "velocity": 120}, {"time": 106201, "pitch": 74, "duration": 30, "velocity": 120}, {"time": 106321, "pitch": 79, "duration": 30, "velocity": 120}, {"time": 106441, "pitch": 86, "duration": 31, "velocity": 120}, {"time": 106562, "pitch": 74, "duration": 30, "velocity": 120}, {"time": 106682, "pitch": 79, "duration": 30, "velocity": 120}, {"time": 106803, "pitch": 90, "duration": 30, "velocity": 120}, {"time": 106923, "pitch": 83, "duration": 30, "velocity": 120}, {"time": 107043, "pitch": 73, "duration": 31, "velocity": 120}, {"time": 107164, "pitch": 76, "duration": 30, "velocity": 120}, {"time": 107284, "pitch": 69, "duration": 30, "velocity": 120}, {"time": 107405, "pitch": 76, "duration": 30, "velocity": 120}, {"time": 107525, "pitch": 85, "duration": 29, "velocity": 120}, {"time": 107643, "pitch": 88, "duration": 29, "velocity": 120}, {"time": 107761, "pitch": 81, "duration": 29, "velocity": 120}, {"time": 107878, "pitch": 85, "duration": 30, "velocity": 120}, {"time": 107996, "pitch": 71, "duration": 30, "velocity": 120}, {"time": 108117, "pitch": 76, "duration": 30, "velocity": 120}, {"time": 108237, "pitch": 80, "duration": 30, "velocity": 120}, {"time": 108357, "pitch": 88, "duration": 30, "velocity": 120}, {"time": 108478, "pitch": 76, "duration": 30, "velocity": 120}, {"time": 108598, "pitch": 83, "duration": 30, "velocity": 120}, {"time": 108719, "pitch": 92, "duration": 30, "velocity": 120}, {"time": 108839, "pitch": 83, "duration": 30, "velocity": 120}, {"time": 108959, "pitch": 88, "duration": 30, "velocity": 120}, {"time": 109080, "pitch": 80, "duration": 30, "velocity": 120}, {"time": 109200, "pitch": 71, "duration": 30, "velocity": 120}, {"time": 109321, "pitch": 76, "duration": 30, "velocity": 120}, {"time": 109441, "pitch": 83, "duration": 30, "velocity": 120}, {"time": 109561, "pitch": 88, "duration": 30, "velocity": 120}, {"time": 109682, "pitch": 80, "duration": 30, "velocity": 120}, {"time": 109802, "pitch": 83, "duration": 30, "velocity": 120}, {"time": 109923, "pitch": 71, "duration": 30, "velocity": 120}, {"time": 110043, "pitch": 76, "duration": 30, "velocity": 120}, {"time": 110163, "pitch": 80, "duration": 30, "velocity": 120}, {"time": 110284, "pitch": 88, "duration": 30, "velocity": 120}, {"time": 110404, "pitch": 76, "duration": 29, "velocity": 120}, {"time": 110522, "pitch": 83, "duration": 29, "velocity": 120}, {"time": 110640, "pitch": 92, "duration": 29, "velocity": 120}, {"time": 110758, "pitch": 83, "duration": 29, "velocity": 120}, {"time": 110875, "pitch": 88, "duration": 30, "velocity": 120}, {"time": 110996, "pitch": 80, "duration": 30, "velocity": 120}, {"time": 111116, "pitch": 71, "duration": 30, "velocity": 120}, {"time": 111236, "pitch": 76, "duration": 31, "velocity": 120}, {"time": 111357, "pitch": 83, "duration": 30, "velocity": 120}, {"time": 111477, "pitch": 88, "duration": 30, "velocity": 120}, {"time": 111598, "pitch": 80, "duration": 30, "velocity": 120}, {"time": 111718, "pitch": 83, "duration": 30, "velocity": 120}, {"time": 111838, "pitch": 79, "duration": 31, "velocity": 120}, {"time": 111959, "pitch": 84, "duration": 30, "velocity": 120}, {"time": 112079, "pitch": 72, "duration": 30, "velocity": 120}, {"time": 112200, "pitch": 79, "duration": 30, "velocity": 120}, {"time": 112320, "pitch": 91, "duration": 30, "velocity": 120}, {"time": 112440, "pitch": 84, "duration": 30, "velocity": 120}, {"time": 112561, "pitch": 79, "duration": 30, "velocity": 120}, {"time": 112681, "pitch": 84, "duration": 30, "velocity": 120}, {"time": 112802, "pitch": 72, "duration": 30, "velocity": 120}, {"time": 112922, "pitch": 79, "duration": 30, "velocity": 120}, {"time": 113042, "pitch": 91, "duration": 30, "velocity": 120}, {"time": 113163, "pitch": 84, "duration": 30, "velocity": 120}, {"time": 113283, "pitch": 79, "duration": 30, "velocity": 120}, {"time": 113404, "pitch": 84, "duration": 30, "velocity": 120}, {"time": 113524, "pitch": 72, "duration": 30, "velocity": 120}, {"time": 113644, "pitch": 79, "duration": 30, "velocity": 120}, {"time": 113765, "pitch": 79, "duration": 29, "velocity": 120}, {"time": 113882, "pitch": 84, "duration": 30, "velocity": 120}, {"time": 114000, "pitch": 72, "duration": 30, "velocity": 120}, {"time": 114118, "pitch": 79, "duration": 30, "velocity": 120}, {"time": 114236, "pitch": 91, "duration": 30, "velocity": 120}, {"time": 114356, "pitch": 84, "duration": 30, "velocity": 120}, {"time": 114477, "pitch": 79, "duration": 30, "velocity": 120}, {"time": 114597, "pitch": 84, "duration": 30, "velocity": 120}, {"time": 114717, "pitch": 72, "duration": 31, "velocity": 120}, {"time": 114838, "pitch": 79, "duration": 30, "velocity": 120}, {"time": 114958, "pitch": 91, "duration": 30, "velocity": 120}, {"time": 115079, "pitch": 84, "duration": 30, "velocity": 120}, {"time": 115199, "pitch": 79, "duration": 30, "velocity": 120}, {"time": 115319, "pitch": 84, "duration": 31, "velocity": 120}, {"time": 115440, "pitch": 72, "duration": 30, "velocity": 120}, {"time": 115560, "pitch": 79, "duration": 30, "velocity": 120}, {"time": 115681, "pitch": 79, "duration": 30, "velocity": 120}, {"time": 115801, "pitch": 84, "duration": 30, "velocity": 120}, {"time": 115921, "pitch": 72, "duration": 31, "velocity": 120}, {"time": 116042, "pitch": 79, "duration": 30, "velocity": 120}, {"time": 116162, "pitch": 91, "duration": 30, "velocity": 120}, {"time": 116283, "pitch": 84, "duration": 30, "velocity": 120}, {"time": 116403, "pitch": 79, "duration": 30, "velocity": 120}, {"time": 116523, "pitch": 84, "duration": 31, "velocity": 120}, {"time": 116644, "pitch": 72, "duration": 29, "velocity": 120}, {"time": 116762, "pitch": 79, "duration": 29, "velocity": 120}, {"time": 116879, "pitch": 91, "duration": 30, "velocity": 120}, {"time": 116997, "pitch": 84, "duration": 30, "velocity": 120}, {"time": 117115, "pitch": 79, "duration": 30, "velocity": 120}, {"time": 117235, "pitch": 84, "duration": 30, "velocity": 120}, {"time": 117356, "pitch": 72, "duration": 30, "velocity": 120}, {"time": 117476, "pitch": 79, "duration": 30, "velocity": 120}, {"time": 117597, "pitch": 79, "duration": 30, "velocity": 120}, {"time": 117717, "pitch": 84, "duration": 30, "velocity": 120}, {"time": 117837, "pitch": 72, "duration": 30, "velocity": 120}, {"time": 117958, "pitch": 79, "duration": 30, "velocity": 120}, {"time": 118078, "pitch": 91, "duration": 30, "velocity": 120}, {"time": 118199, "pitch": 84, "duration": 30, "velocity": 120}, {"time": 118319, "pitch": 79, "duration": 30, "velocity": 120}, {"time": 118439, "pitch": 84, "duration": 30, "velocity": 120}, {"time": 118560, "pitch": 72, "duration": 30, "velocity": 120}, {"time": 118680, "pitch": 79, "duration": 30, "velocity": 120}, {"time": 118801, "pitch": 91, "duration": 30, "velocity": 120}, {"time": 118921, "pitch": 84, "duration": 30, "velocity": 120}, {"time": 119041, "pitch": 79, "duration": 30, "velocity": 120}, {"time": 119162, "pitch": 84, "duration": 30, "velocity": 120}, {"time": 119282, "pitch": 72, "duration": 30, "velocity": 120}, {"time": 119403, "pitch": 79, "duration": 30, "velocity": 120}, {"time": 119523, "pitch": 79, "duration": 30, "velocity": 120}, {"time": 119643, "pitch": 84, "duration": 30, "velocity": 120}, {"time": 119764, "pitch": 72, "duration": 30, "velocity": 120}, {"time": 119884, "pitch": 79, "duration": 30, "velocity": 120}, {"time": 120004, "pitch": 91, "duration": 30, "velocity": 120}, {"time": 120122, "pitch": 84, "duration": 30, "velocity": 120}, {"time": 120240, "pitch": 79, "duration": 30, "velocity": 120}, {"time": 120358, "pitch": 84, "duration": 29, "velocity": 120}, {"time": 120476, "pitch": 72, "duration": 30, "velocity": 120}, {"time": 120596, "pitch": 79, "duration": 30, "velocity": 120}, {"time": 120716, "pitch": 91, "duration": 31, "velocity": 120}, {"time": 120837, "pitch": 84, "duration": 30, "velocity": 120}, {"time": 120957, "pitch": 79, "duration": 30, "velocity": 120}, {"time": 121078, "pitch": 84, "duration": 30, "velocity": 120}, {"time": 121198, "pitch": 72, "duration": 30, "velocity": 120}, {"time": 121318, "pitch": 79, "duration": 31, "velocity": 120}, {"time": 121439, "pitch": 79, "duration": 30, "velocity": 120}, {"time": 121559, "pitch": 84, "duration": 30, "velocity": 120}, {"time": 121680, "pitch": 72, "duration": 30, "velocity": 120}, {"time": 121800, "pitch": 79, "duration": 30, "velocity": 120}, {"time": 121920, "pitch": 91, "duration": 30, "velocity": 120}, {"time": 122041, "pitch": 84, "duration": 30, "velocity": 120}, {"time": 122161, "pitch": 79, "duration": 30, "velocity": 120}, {"time": 122282, "pitch": 84, "duration": 30, "velocity": 120}, {"time": 122402, "pitch": 72, "duration": 30, "velocity": 120}, {"time": 122522, "pitch": 79, "duration": 30, "velocity": 120}, {"time": 122643, "pitch": 91, "duration": 30, "velocity": 120}, {"time": 122763, "pitch": 84, "duration": 30, "velocity": 120}, {"time": 122884, "pitch": 79, "duration": 30, "velocity": 120}, {"time": 123004, "pitch": 84, "duration": 30, "velocity": 120}, {"time": 123124, "pitch": 72, "duration": 30, "velocity": 120}, {"time": 123245, "pitch": 79, "duration": 30, "velocity": 120}, {"time": 123365, "pitch": 79, "duration": 30, "velocity": 120}, {"time": 123483, "pitch": 84, "duration": 29, "velocity": 120}, {"time": 123601, "pitch": 72, "duration": 29, "velocity": 120}, {"time": 123719, "pitch": 79, "duration": 29, "velocity": 120}, {"time": 123836, "pitch": 91, "duration": 30, "velocity": 120}, {"time": 123957, "pitch": 84, "duration": 30, "velocity": 120}, {"time": 124077, "pitch": 79, "duration": 30, "velocity": 120}, {"time": 124197, "pitch": 84, "duration": 31, "velocity": 120}, {"time": 124318, "pitch": 72, "duration": 30, "velocity": 120}, {"time": 124438, "pitch": 79, "duration": 30, "velocity": 120}, {"time": 124559, "pitch": 91, "duration": 30, "velocity": 120}, {"time": 124679, "pitch": 84, "duration": 30, "velocity": 120}, {"time": 124799, "pitch": 79, "duration": 31, "velocity": 120}, {"time": 124920, "pitch": 84, "duration": 30, "velocity": 120}, {"time": 125040, "pitch": 72, "duration": 30, "velocity": 120}, {"time": 125161, "pitch": 79, "duration": 30, "velocity": 120}, {"time": 125281, "pitch": 79, "duration": 30, "velocity": 120}, {"time": 125401, "pitch": 84, "duration": 31, "velocity": 120}, {"time": 125522, "pitch": 72, "duration": 30, "velocity": 120}, {"time": 125642, "pitch": 79, "duration": 30, "velocity": 120}, {"time": 125763, "pitch": 91, "duration": 30, "velocity": 120}, {"time": 125883, "pitch": 84, "duration": 30, "velocity": 120}, {"time": 126003, "pitch": 79, "duration": 31, "velocity": 120}, {"time": 126124, "pitch": 84, "duration": 30, "velocity": 120}, {"time": 127197, "pitch": 83, "duration": 30, "velocity": 120}, {"time": 127317, "pitch": 74, "duration": 30, "velocity": 120}, {"time": 127438, "pitch": 76, "duration": 30, "velocity": 120}, {"time": 127558, "pitch": 83, "duration": 30, "velocity": 120}, {"time": 127679, "pitch": 74, "duration": 30, "velocity": 120}, {"time": 127799, "pitch": 79, "duration": 30, "velocity": 120}, {"time": 127919, "pitch": 86, "duration": 30, "velocity": 120}, {"time": 128040, "pitch": 76, "duration": 30, "velocity": 120}, {"time": 128160, "pitch": 88, "duration": 30, "velocity": 120}, {"time": 128281, "pitch": 79, "duration": 30, "velocity": 120}, {"time": 128401, "pitch": 86, "duration": 30, "velocity": 120}, {"time": 128521, "pitch": 76, "duration": 30, "velocity": 120}, {"time": 128642, "pitch": 83, "duration": 30, "velocity": 120}, {"time": 128762, "pitch": 74, "duration": 30, "velocity": 120}, {"time": 128883, "pitch": 88, "duration": 30, "velocity": 120}, {"time": 129003, "pitch": 76, "duration": 30, "velocity": 120}, {"time": 129123, "pitch": 83, "duration": 30, "velocity": 120}, {"time": 129244, "pitch": 74, "duration": 30, "velocity": 120}, {"time": 129364, "pitch": 76, "duration": 30, "velocity": 120}, {"time": 129484, "pitch": 83, "duration": 31, "velocity": 120}, {"time": 129605, "pitch": 74, "duration": 29, "velocity": 120}, {"time": 129723, "pitch": 79, "duration": 29, "velocity": 120}, {"time": 129840, "pitch": 86, "duration": 30, "velocity": 120}, {"time": 129958, "pitch": 76, "duration": 30, "velocity": 120}, {"time": 130076, "pitch": 88, "duration": 30, "velocity": 120}, {"time": 130196, "pitch": 79, "duration": 31, "velocity": 120}, {"time": 130317, "pitch": 86, "duration": 30, "velocity": 120}, {"time": 130437, "pitch": 76, "duration": 30, "velocity": 120}, {"time": 130558, "pitch": 83, "duration": 30, "velocity": 120}, {"time": 130678, "pitch": 74, "duration": 30, "velocity": 120}, {"time": 130798, "pitch": 88, "duration": 31, "velocity": 120}, {"time": 130919, "pitch": 76, "duration": 30, "velocity": 120}, {"time": 131039, "pitch": 83, "duration": 30, "velocity": 120}, {"time": 131160, "pitch": 71, "duration": 30, "velocity": 120}, {"time": 131280, "pitch": 76, "duration": 30, "velocity": 120}, {"time": 131400, "pitch": 83, "duration": 30, "velocity": 120}, {"time": 131521, "pitch": 71, "duration": 30, "velocity": 120}, {"time": 131641, "pitch": 79, "duration": 30, "velocity": 120}, {"time": 131762, "pitch": 83, "duration": 30, "velocity": 120}, {"time": 131882, "pitch": 76, "duration": 30, "velocity": 120}, {"time": 132002, "pitch": 88, "duration": 30, "velocity": 120}, {"time": 132123, "pitch": 79, "duration": 30, "velocity": 120}, {"time": 132243, "pitch": 83, "duration": 30, "velocity": 120}, {"time": 132364, "pitch": 76, "duration": 30, "velocity": 120}, {"time": 132484, "pitch": 83, "duration": 29, "velocity": 120}, {"time": 132602, "pitch": 71, "duration": 29, "velocity": 120}, {"time": 132720, "pitch": 88, "duration": 29, "velocity": 120}, {"time": 132837, "pitch": 76, "duration": 30, "velocity": 120}, {"time": 132955, "pitch": 83, "duration": 30, "velocity": 120}, {"time": 133076, "pitch": 71, "duration": 30, "velocity": 120}, {"time": 133196, "pitch": 76, "duration": 30, "velocity": 120}, {"time": 133316, "pitch": 83, "duration": 30, "velocity": 120}, {"time": 133437, "pitch": 71, "duration": 30, "velocity": 120}, {"time": 133557, "pitch": 79, "duration": 30, "velocity": 120}, {"time": 133677, "pitch": 83, "duration": 31, "velocity": 120}, {"time": 133798, "pitch": 76, "duration": 30, "velocity": 120}, {"time": 133918, "pitch": 88, "duration": 30, "velocity": 120}, {"time": 134039, "pitch": 79, "duration": 30, "velocity": 120}, {"time": 134159, "pitch": 83, "duration": 30, "velocity": 120}, {"time": 134279, "pitch": 76, "duration": 31, "velocity": 120}, {"time": 134400, "pitch": 83, "duration": 30, "velocity": 120}, {"time": 134520, "pitch": 71, "duration": 30, "velocity": 120}, {"time": 134641, "pitch": 88, "duration": 30, "velocity": 120}, {"time": 134761, "pitch": 76, "duration": 30, "velocity": 120}, {"time": 134881, "pitch": 83, "duration": 31, "velocity": 120}, {"time": 135002, "pitch": 71, "duration": 30, "velocity": 120}, {"time": 135122, "pitch": 76, "duration": 30, "velocity": 120}, {"time": 135243, "pitch": 83, "duration": 30, "velocity": 120}, {"time": 135363, "pitch": 71, "duration": 30, "velocity": 120}, {"time": 135483, "pitch": 79, "duration": 31, "velocity": 120}, {"time": 135604, "pitch": 83, "duration": 30, "velocity": 120}, {"time": 135724, "pitch": 76, "duration": 30, "velocity": 120}, {"time": 135845, "pitch": 88, "duration": 29, "velocity": 120}, {"time": 135962, "pitch": 79, "duration": 30, "velocity": 120}, {"time": 136080, "pitch": 83, "duration": 30, "velocity": 120}, {"time": 136198, "pitch": 76, "duration": 29, "velocity": 120}, {"time": 136316, "pitch": 83, "duration": 30, "velocity": 120}, {"time": 136436, "pitch": 71, "duration": 30, "velocity": 120}, {"time": 136557, "pitch": 88, "duration": 30, "velocity": 120}, {"time": 136677, "pitch": 76, "duration": 30, "velocity": 120}, {"time": 136797, "pitch": 83, "duration": 30, "velocity": 120}, {"time": 136918, "pitch": 71, "duration": 30, "velocity": 120}, {"time": 137038, "pitch": 76, "duration": 30, "velocity": 120}, {"time": 137159, "pitch": 83, "duration": 30, "velocity": 120}, {"time": 137279, "pitch": 71, "duration": 30, "velocity": 120}, {"time": 137399, "pitch": 79, "duration": 30, "velocity": 120}, {"time": 137520, "pitch": 83, "duration": 30, "velocity": 120}, {"time": 137640, "pitch": 76, "duration": 30, "velocity": 120}, {"time": 137761, "pitch": 88, "duration": 30, "velocity": 120}, {"time": 137881, "pitch": 79, "duration": 30, "velocity": 120}, {"time": 138001, "pitch": 83, "duration": 30, "velocity": 120}, {"time": 138122, "pitch": 76, "duration": 30, "velocity": 120}, {"time": 138242, "pitch": 83, "duration": 30, "velocity": 120}, {"time": 138363, "pitch": 71, "duration": 30, "velocity": 120}, {"time": 138483, "pitch": 88, "duration": 30, "velocity": 120}, {"time": 138603, "pitch": 76, "duration": 30, "velocity": 120}, {"time": 138724, "pitch": 81, "duration": 29, "velocity": 120}, {"time": 138841, "pitch": 69, "duration": 30, "velocity": 120}, {"time": 138959, "pitch": 74, "duration": 30, "velocity": 120}, {"time": 139077, "pitch": 81, "duration": 30, "velocity": 120}, {"time": 139195, "pitch": 69, "duration": 30, "velocity": 120}, {"time": 139315, "pitch": 78, "duration": 30, "velocity": 120}, {"time": 139436, "pitch": 81, "duration": 30, "velocity": 120}, {"time": 139556, "pitch": 74, "duration": 30, "velocity": 120}, {"time": 139676, "pitch": 86, "duration": 31, "velocity": 120}, {"time": 139797, "pitch": 78, "duration": 30, "velocity": 120}, {"time": 139917, "pitch": 81, "duration": 30, "velocity": 120}, {"time": 140038, "pitch": 74, "duration": 30, "velocity": 120}, {"time": 140158, "pitch": 81, "duration": 30, "velocity": 120}, {"time": 140278, "pitch": 69, "duration": 31, "velocity": 120}, {"time": 140399, "pitch": 86, "duration": 30, "velocity": 120}, {"time": 140519, "pitch": 74, "duration": 30, "velocity": 120}, {"time": 140640, "pitch": 83, "duration": 30, "velocity": 120}, {"time": 140760, "pitch": 71, "duration": 30, "velocity": 120}, {"time": 140880, "pitch": 75, "duration": 30, "velocity": 120}, {"time": 141001, "pitch": 83, "duration": 30, "velocity": 120}, {"time": 141121, "pitch": 71, "duration": 30, "velocity": 120}, {"time": 141242, "pitch": 78, "duration": 30, "velocity": 120}, {"time": 141362, "pitch": 87, "duration": 30, "velocity": 120}, {"time": 141482, "pitch": 75, "duration": 30, "velocity": 120}, {"time": 141603, "pitch": 90, "duration": 30, "velocity": 120}, {"time": 141723, "pitch": 78, "duration": 30, "velocity": 120}, {"time": 141844, "pitch": 87, "duration": 30, "velocity": 120}, {"time": 141964, "pitch": 75, "duration": 30, "velocity": 120}, {"time": 142084, "pitch": 83, "duration": 30, "velocity": 120}, {"time": 142202, "pitch": 71, "duration": 30, "velocity": 120}, {"time": 142320, "pitch": 90, "duration": 29, "velocity": 120}, {"time": 142438, "pitch": 75, "duration": 29, "velocity": 120}, {"time": 142556, "pitch": 83, "duration": 30, "velocity": 120}, {"time": 142676, "pitch": 71, "duration": 30, "velocity": 120}, {"time": 142796, "pitch": 76, "duration": 30, "velocity": 120}, {"time": 142917, "pitch": 83, "duration": 30, "velocity": 120}, {"time": 143037, "pitch": 74, "duration": 30, "velocity": 120}, {"time": 143157, "pitch": 79, "duration": 31, "velocity": 120}, {"time": 143278, "pitch": 86, "duration": 30, "velocity": 120}, {"time": 143398, "pitch": 76, "duration": 30, "velocity": 120}, {"time": 143519, "pitch": 88, "duration": 30, "velocity": 120}, {"time": 143639, "pitch": 79, "duration": 30, "velocity": 120}, {"time": 143759, "pitch": 86, "duration": 31, "velocity": 120}, {"time": 143880, "pitch": 76, "duration": 30, "velocity": 120}, {"time": 144000, "pitch": 83, "duration": 30, "velocity": 120}, {"time": 144121, "pitch": 74, "duration": 30, "velocity": 120}, {"time": 144241, "pitch": 88, "duration": 30, "velocity": 120}, {"time": 144361, "pitch": 76, "duration": 31, "velocity": 120}, {"time": 144482, "pitch": 83, "duration": 30, "velocity": 120}, {"time": 144602, "pitch": 74, "duration": 30, "velocity": 120}, {"time": 144723, "pitch": 76, "duration": 30, "velocity": 120}, {"time": 144843, "pitch": 83, "duration": 30, "velocity": 120}, {"time": 144963, "pitch": 74, "duration": 31, "velocity": 120}, {"time": 145084, "pitch": 79, "duration": 30, "velocity": 120}, {"time": 145204, "pitch": 86, "duration": 30, "velocity": 120}, {"time": 145325, "pitch": 76, "duration": 30, "velocity": 120}, {"time": 145445, "pitch": 88, "duration": 29, "velocity": 120}, {"time": 145563, "pitch": 79, "duration": 29, "velocity": 120}, {"time": 145681, "pitch": 86, "duration": 29, "velocity": 120}, {"time": 145798, "pitch": 76, "duration": 30, "velocity": 120}, {"time": 145916, "pitch": 83, "duration": 30, "velocity": 120}, {"time": 146037, "pitch": 74, "duration": 30, "velocity": 120}, {"time": 146157, "pitch": 88, "duration": 30, "velocity": 120}, {"time": 146277, "pitch": 76, "duration": 30, "velocity": 120}, {"time": 146398, "pitch": 83, "duration": 30, "velocity": 120}, {"time": 146518, "pitch": 74, "duration": 30, "velocity": 120}, {"time": 146639, "pitch": 76, "duration": 30, "velocity": 120}, {"time": 146759, "pitch": 83, "duration": 30, "velocity": 120}, {"time": 146879, "pitch": 71, "duration": 30, "velocity": 120}, {"time": 147000, "pitch": 79, "duration": 30, "velocity": 120}, {"time": 147120, "pitch": 83, "duration": 30, "velocity": 120}, {"time": 147241, "pitch": 76, "duration": 30, "velocity": 120}, {"time": 147361, "pitch": 88, "duration": 30, "velocity": 120}, {"time": 147481, "pitch": 79, "duration": 30, "velocity": 120}, {"time": 147602, "pitch": 83, "duration": 30, "velocity": 120}, {"time": 147722, "pitch": 76, "duration": 30, "velocity": 120}, {"time": 147843, "pitch": 83, "duration": 30, "velocity": 120}, {"time": 147963, "pitch": 71, "duration": 30, "velocity": 120}, {"time": 148083, "pitch": 88, "duration": 30, "velocity": 120}, {"time": 148204, "pitch": 76, "duration": 30, "velocity": 120}, {"time": 148324, "pitch": 83, "duration": 29, "velocity": 120}, {"time": 148442, "pitch": 71, "duration": 29, "velocity": 120}, {"time": 148560, "pitch": 76, "duration": 29, "velocity": 120}, {"time": 148678, "pitch": 83, "duration": 29, "velocity": 120}, {"time": 148795, "pitch": 71, "duration": 30, "velocity": 120}, {"time": 148916, "pitch": 79, "duration": 30, "velocity": 120}, {"time": 149036, "pitch": 83, "duration": 30, "velocity": 120}, {"time": 149156, "pitch": 76, "duration": 31, "velocity": 120}, {"time": 149277, "pitch": 88, "duration": 30, "velocity": 120}, {"time": 149397, "pitch": 79, "duration": 30, "velocity": 120}, {"time": 149518, "pitch": 83, "duration": 30, "velocity": 120}, {"time": 149638, "pitch": 76, "duration": 30, "velocity": 120}, {"time": 149758, "pitch": 83, "duration": 31, "velocity": 120}, {"time": 149879, "pitch": 71, "duration": 30, "velocity": 120}, {"time": 149999, "pitch": 88, "duration": 30, "velocity": 120}, {"time": 150120, "pitch": 76, "duration": 30, "velocity": 120}, {"time": 150240, "pitch": 83, "duration": 30, "velocity": 120}, {"time": 150360, "pitch": 71, "duration": 30, "velocity": 120}, {"time": 150481, "pitch": 76, "duration": 30, "velocity": 120}, {"time": 150601, "pitch": 83, "duration": 30, "velocity": 120}, {"time": 150722, "pitch": 71, "duration": 30, "velocity": 120}, {"time": 150842, "pitch": 79, "duration": 30, "velocity": 120}, {"time": 150962, "pitch": 83, "duration": 30, "velocity": 120}, {"time": 151083, "pitch": 76, "duration": 30, "velocity": 120}, {"time": 151203, "pitch": 88, "duration": 30, "velocity": 120}, {"time": 151324, "pitch": 79, "duration": 30, "velocity": 120}, {"time": 151444, "pitch": 83, "duration": 30, "velocity": 120}, {"time": 151564, "pitch": 76, "duration": 30, "velocity": 120}, {"time": 151685, "pitch": 83, "duration": 29, "velocity": 120}, {"time": 151802, "pitch": 71, "duration": 30, "velocity": 120}, {"time": 151920, "pitch": 88, "duration": 30, "velocity": 120}, {"time": 152038, "pitch": 76, "duration": 30, "velocity": 120}, {"time": 152156, "pitch": 83, "duration": 30, "velocity": 120}, {"time": 152276, "pitch": 71, "duration": 30, "velocity": 120}, {"time": 152397, "pitch": 76, "duration": 30, "velocity": 120}, {"time": 152517, "pitch": 83, "duration": 30, "velocity": 120}, {"time": 152637, "pitch": 71, "duration": 31, "velocity": 120}, {"time": 152758, "pitch": 79, "duration": 30, "velocity": 120}, {"time": 152878, "pitch": 83, "duration": 30, "velocity": 120}, {"time": 152999, "pitch": 76, "duration": 30, "velocity": 120}, {"time": 153119, "pitch": 88, "duration": 30, "velocity": 120}, {"time": 153239, "pitch": 79, "duration": 31, "velocity": 120}, {"time": 153360, "pitch": 83, "duration": 30, "velocity": 120}, {"time": 153480, "pitch": 76, "duration": 30, "velocity": 120}, {"time": 153601, "pitch": 83, "duration": 30, "velocity": 120}, {"time": 153721, "pitch": 71, "duration": 30, "velocity": 120}, {"time": 153841, "pitch": 88, "duration": 31, "velocity": 120}, {"time": 153962, "pitch": 76, "duration": 30, "velocity": 120}, {"time": 154082, "pitch": 83, "duration": 30, "velocity": 120}, {"time": 154203, "pitch": 71, "duration": 30, "velocity": 120}, {"time": 154323, "pitch": 76, "duration": 30, "velocity": 120}, {"time": 154443, "pitch": 83, "duration": 31, "velocity": 120}, {"time": 154564, "pitch": 71, "duration": 29, "velocity": 120}, {"time": 154682, "pitch": 79, "duration": 29, "velocity": 120}, {"time": 154799, "pitch": 83, "duration": 30, "velocity": 120}, {"time": 154917, "pitch": 76, "duration": 30, "velocity": 120}, {"time": 155035, "pitch": 88, "duration": 30, "velocity": 120}, {"time": 155155, "pitch": 79, "duration": 30, "velocity": 120}, {"time": 155276, "pitch": 83, "duration": 30, "velocity": 120}, {"time": 155396, "pitch": 76, "duration": 30, "velocity": 120}, {"time": 155517, "pitch": 83, "duration": 30, "velocity": 120}, {"time": 155637, "pitch": 71, "duration": 30, "velocity": 120}, {"time": 155757, "pitch": 88, "duration": 30, "velocity": 120}, {"time": 155878, "pitch": 76, "duration": 30, "velocity": 120}, {"time": 155998, "pitch": 83, "duration": 30, "velocity": 120}, {"time": 156119, "pitch": 71, "duration": 30, "velocity": 120}, {"time": 156239, "pitch": 75, "duration": 30, "velocity": 120}, {"time": 156359, "pitch": 83, "duration": 30, "velocity": 120}, {"time": 156480, "pitch": 71, "duration": 30, "velocity": 120}, {"time": 156600, "pitch": 78, "duration": 30, "velocity": 120}, {"time": 156721, "pitch": 87, "duration": 30, "velocity": 120}, {"time": 156841, "pitch": 75, "duration": 30, "velocity": 120}, {"time": 156961, "pitch": 90, "duration": 30, "velocity": 120}, {"time": 157082, "pitch": 78, "duration": 30, "velocity": 120}, {"time": 157202, "pitch": 87, "duration": 30, "velocity": 120}, {"time": 157323, "pitch": 75, "duration": 30, "velocity": 120}, {"time": 157443, "pitch": 83, "duration": 30, "velocity": 120}, {"time": 157563, "pitch": 71, "duration": 30, "velocity": 120}, {"time": 157684, "pitch": 90, "duration": 30, "velocity": 120}, {"time": 157804, "pitch": 75, "duration": 30, "velocity": 120}, {"time": 157924, "pitch": 86, "duration": 30, "velocity": 120}, {"time": 158042, "pitch": 83, "duration": 30, "velocity": 120}, {"time": 158160, "pitch": 79, "duration": 30, "velocity": 120}, {"time": 158278, "pitch": 86, "duration": 29, "velocity": 120}, {"time": 158396, "pitch": 74, "duration": 30, "velocity": 120}, {"time": 158516, "pitch": 79, "duration": 30, "velocity": 120}, {"time": 158636, "pitch": 90, "duration": 31, "velocity": 120}, {"time": 158757, "pitch": 83, "duration": 30, "velocity": 120}, {"time": 158877, "pitch": 73, "duration": 30, "velocity": 120}, {"time": 158998, "pitch": 76, "duration": 30, "velocity": 120}, {"time": 159118, "pitch": 69, "duration": 30, "velocity": 120}, {"time": 159238, "pitch": 76, "duration": 31, "velocity": 120}, {"time": 159359, "pitch": 85, "duration": 30, "velocity": 120}, {"time": 159479, "pitch": 88, "duration": 30, "velocity": 120}, {"time": 159600, "pitch": 81, "duration": 30, "velocity": 120}, {"time": 159720, "pitch": 85, "duration": 30, "velocity": 120}, {"time": 159840, "pitch": 85, "duration": 30, "velocity": 120}, {"time": 159961, "pitch": 73, "duration": 30, "velocity": 120}, {"time": 160081, "pitch": 78, "duration": 30, "velocity": 120}, {"time": 160202, "pitch": 85, "duration": 30, "velocity": 120}, {"time": 160322, "pitch": 73, "duration": 30, "velocity": 120}, {"time": 160442, "pitch": 78, "duration": 30, "velocity": 120}, {"time": 160563, "pitch": 88, "duration": 30, "velocity": 120}, {"time": 160683, "pitch": 81, "duration": 30, "velocity": 120}, {"time": 160804, "pitch": 74, "duration": 30, "velocity": 120}, {"time": 160924, "pitch": 78, "duration": 30, "velocity": 120}, {"time": 161044, "pitch": 71, "duration": 30, "velocity": 120}, {"time": 161165, "pitch": 78, "duration": 30, "velocity": 120}, {"time": 161285, "pitch": 86, "duration": 30, "velocity": 120}, {"time": 161403, "pitch": 90, "duration": 29, "velocity": 120}, {"time": 161521, "pitch": 83, "duration": 29, "velocity": 120}, {"time": 161639, "pitch": 86, "duration": 29, "velocity": 120}, {"time": 161756, "pitch": 86, "duration": 30, "velocity": 120}, {"time": 161877, "pitch": 74, "duration": 30, "velocity": 120}, {"time": 161997, "pitch": 79, "duration": 30, "velocity": 120}, {"time": 162117, "pitch": 86, "duration": 31, "velocity": 120}, {"time": 162238, "pitch": 74, "duration": 30, "velocity": 120}, {"time": 162358, "pitch": 79, "duration": 30, "velocity": 120}, {"time": 162479, "pitch": 90, "duration": 30, "velocity": 120}, {"time": 162599, "pitch": 83, "duration": 30, "velocity": 120}, {"time": 162719, "pitch": 73, "duration": 31, "velocity": 120}, {"time": 162840, "pitch": 76, "duration": 30, "velocity": 120}, {"time": 162960, "pitch": 69, "duration": 30, "velocity": 120}, {"time": 163081, "pitch": 76, "duration": 30, "velocity": 120}, {"time": 163201, "pitch": 85, "duration": 30, "velocity": 120}, {"time": 163321, "pitch": 88, "duration": 31, "velocity": 120}, {"time": 163442, "pitch": 81, "duration": 30, "velocity": 120}, {"time": 163562, "pitch": 85, "duration": 30, "velocity": 120}, {"time": 163683, "pitch": 86, "duration": 30, "velocity": 120}, {"time": 163803, "pitch": 74, "duration": 30, "velocity": 120}, {"time": 163923, "pitch": 79, "duration": 31, "velocity": 120}, {"time": 164044, "pitch": 86, "duration": 30, "velocity": 120}, {"time": 164164, "pitch": 74, "duration": 30, "velocity": 120}, {"time": 164282, "pitch": 79, "duration": 29, "velocity": 120}, {"time": 164400, "pitch": 90, "duration": 29, "velocity": 120}, {"time": 164518, "pitch": 83, "duration": 29, "velocity": 120}, {"time": 164635, "pitch": 73, "duration": 30, "velocity": 120}, {"time": 164756, "pitch": 76, "duration": 30, "velocity": 120}, {"time": 164876, "pitch": 69, "duration": 30, "velocity": 120}, {"time": 164997, "pitch": 76, "duration": 30, "velocity": 120}, {"time": 165117, "pitch": 85, "duration": 30, "velocity": 120}, {"time": 165237, "pitch": 88, "duration": 30, "velocity": 120}, {"time": 165358, "pitch": 81, "duration": 30, "velocity": 120}, {"time": 165478, "pitch": 85, "duration": 30, "velocity": 120}, {"time": 165599, "pitch": 86, "duration": 30, "velocity": 120}, {"time": 165719, "pitch": 83, "duration": 30, "velocity": 120}, {"time": 165839, "pitch": 79, "duration": 30, "velocity": 120}, {"time": 165960, "pitch": 86, "duration": 30, "velocity": 120}, {"time": 166080, "pitch": 74, "duration": 30, "velocity": 120}, {"time": 166201, "pitch": 79, "duration": 30, "velocity": 120}, {"time": 166321, "pitch": 90, "duration": 30, "velocity": 120}, {"time": 166441, "pitch": 83, "duration": 30, "velocity": 120}, {"time": 166562, "pitch": 73, "duration": 30, "velocity": 120}, {"time": 166682, "pitch": 76, "duration": 30, "velocity": 120}, {"time": 166803, "pitch": 69, "duration": 30, "velocity": 120}, {"time": 166923, "pitch": 76, "duration": 30, "velocity": 120}, {"time": 167043, "pitch": 85, "duration": 30, "velocity": 120}, {"time": 167164, "pitch": 88, "duration": 30, "velocity": 120}, {"time": 167284, "pitch": 81, "duration": 30, "velocity": 120}, {"time": 167404, "pitch": 85, "duration": 31, "velocity": 120}, {"time": 167525, "pitch": 85, "duration": 29, "velocity": 120}, {"time": 167643, "pitch": 73, "duration": 29, "velocity": 120}, {"time": 167760, "pitch": 78, "duration": 30, "velocity": 120}, {"time": 167878, "pitch": 85, "duration": 30, "velocity": 120}, {"time": 167996, "pitch": 73, "duration": 30, "velocity": 120}, {"time": 168116, "pitch": 78, "duration": 31, "velocity": 120}, {"time": 168237, "pitch": 88, "duration": 30, "velocity": 120}, {"time": 168357, "pitch": 81, "duration": 30, "velocity": 120}, {"time": 168478, "pitch": 74, "duration": 30, "velocity": 120}, {"time": 168598, "pitch": 78, "duration": 30, "velocity": 120}, {"time": 168718, "pitch": 71, "duration": 31, "velocity": 120}, {"time": 168839, "pitch": 78, "duration": 30, "velocity": 120}, {"time": 168959, "pitch": 86, "duration": 30, "velocity": 120}, {"time": 169080, "pitch": 90, "duration": 30, "velocity": 120}, {"time": 169200, "pitch": 83, "duration": 30, "velocity": 120}, {"time": 169320, "pitch": 86, "duration": 30, "velocity": 120}, {"time": 169441, "pitch": 86, "duration": 30, "velocity": 120}, {"time": 169561, "pitch": 74, "duration": 30, "velocity": 120}, {"time": 169682, "pitch": 79, "duration": 30, "velocity": 120}, {"time": 169802, "pitch": 86, "duration": 30, "velocity": 120}, {"time": 169922, "pitch": 74, "duration": 30, "velocity": 120}, {"time": 170043, "pitch": 79, "duration": 30, "velocity": 120}, {"time": 170163, "pitch": 90, "duration": 30, "velocity": 120}, {"time": 170284, "pitch": 83, "duration": 30, "velocity": 120}, {"time": 170404, "pitch": 73, "duration": 29, "velocity": 120}, {"time": 170522, "pitch": 76, "duration": 29, "velocity": 120}, {"time": 170640, "pitch": 69, "duration": 29, "velocity": 120}, {"time": 170757, "pitch": 76, "duration": 30, "velocity": 120}, {"time": 170875, "pitch": 85, "duration": 30, "velocity": 120}, {"time": 170996, "pitch": 88, "duration": 30, "velocity": 120}, {"time": 171116, "pitch": 81, "duration": 30, "velocity": 120}, {"time": 171236, "pitch": 85, "duration": 30, "velocity": 120}, {"time": 171357, "pitch": 71, "duration": 30, "velocity": 120}, {"time": 171477, "pitch": 76, "duration": 30, "velocity": 120}, {"time": 171597, "pitch": 80, "duration": 31, "velocity": 120}, {"time": 171718, "pitch": 88, "duration": 30, "velocity": 120}, {"time": 171838, "pitch": 76, "duration": 30, "velocity": 120}, {"time": 171959, "pitch": 83, "duration": 30, "velocity": 120}, {"time": 172079, "pitch": 92, "duration": 30, "velocity": 120}, {"time": 172199, "pitch": 83, "duration": 31, "velocity": 120}, {"time": 172320, "pitch": 88, "duration": 30, "velocity": 120}, {"time": 172440, "pitch": 80, "duration": 30, "velocity": 120}, {"time": 172561, "pitch": 71, "duration": 30, "velocity": 120}, {"time": 172681, "pitch": 76, "duration": 30, "velocity": 120}, {"time": 172801, "pitch": 83, "duration": 31, "velocity": 120}, {"time": 172922, "pitch": 88, "duration": 30, "velocity": 120}, {"time": 173042, "pitch": 80, "duration": 30, "velocity": 120}, {"time": 173163, "pitch": 83, "duration": 30, "velocity": 120}, {"time": 173283, "pitch": 86, "duration": 30, "velocity": 120}, {"time": 173403, "pitch": 83, "duration": 31, "velocity": 120}, {"time": 173524, "pitch": 79, "duration": 30, "velocity": 120}, {"time": 173644, "pitch": 86, "duration": 30, "velocity": 120}, {"time": 173765, "pitch": 74, "duration": 29, "velocity": 120}, {"time": 173882, "pitch": 79, "duration": 30, "velocity": 120}, {"time": 174000, "pitch": 90, "duration": 30, "velocity": 120}, {"time": 174118, "pitch": 83, "duration": 29, "velocity": 120}, {"time": 174236, "pitch": 73, "duration": 30, "velocity": 120}, {"time": 174356, "pitch": 76, "duration": 30, "velocity": 120}, {"time": 174477, "pitch": 69, "duration": 30, "velocity": 120}, {"time": 174597, "pitch": 76, "duration": 30, "velocity": 120}, {"time": 174717, "pitch": 85, "duration": 30, "velocity": 120}, {"time": 174838, "pitch": 88, "duration": 30, "velocity": 120}, {"time": 174958, "pitch": 81, "duration": 30, "velocity": 120}, {"time": 175079, "pitch": 85, "duration": 30, "velocity": 120}, {"time": 175199, "pitch": 85, "duration": 30, "velocity": 120}, {"time": 175319, "pitch": 73, "duration": 30, "velocity": 120}, {"time": 175440, "pitch": 78, "duration": 30, "velocity": 120}, {"time": 175560, "pitch": 85, "duration": 30, "velocity": 120}, {"time": 175681, "pitch": 73, "duration": 30, "velocity": 120}, {"time": 175801, "pitch": 78, "duration": 30, "velocity": 120}, {"time": 175921, "pitch": 88, "duration": 30, "velocity": 120}, {"time": 176042, "pitch": 81, "duration": 30, "velocity": 120}, {"time": 176162, "pitch": 74, "duration": 30, "velocity": 120}, {"time": 176283, "pitch": 78, "duration": 30, "velocity": 120}, {"time": 176403, "pitch": 71, "duration": 30, "velocity": 120}, {"time": 176523, "pitch": 78, "duration": 30, "velocity": 120}, {"time": 176644, "pitch": 86, "duration": 29, "velocity": 120}, {"time": 176761, "pitch": 90, "duration": 30, "velocity": 120}, {"time": 176879, "pitch": 83, "duration": 30, "velocity": 120}, {"time": 176997, "pitch": 86, "duration": 30, "velocity": 120}, {"time": 177115, "pitch": 86, "duration": 30, "velocity": 120}, {"time": 177235, "pitch": 74, "duration": 30, "velocity": 120}, {"time": 177356, "pitch": 79, "duration": 30, "velocity": 120}, {"time": 177476, "pitch": 86, "duration": 30, "velocity": 120}, {"time": 177596, "pitch": 74, "duration": 31, "velocity": 120}, {"time": 177717, "pitch": 79, "duration": 30, "velocity": 120}, {"time": 177837, "pitch": 90, "duration": 30, "velocity": 120}, {"time": 177958, "pitch": 83, "duration": 30, "velocity": 120}, {"time": 178078, "pitch": 73, "duration": 30, "velocity": 120}, {"time": 178198, "pitch": 76, "duration": 31, "velocity": 120}, {"time": 178319, "pitch": 69, "duration": 30, "velocity": 120}, {"time": 178439, "pitch": 76, "duration": 30, "velocity": 120}, {"time": 178560, "pitch": 85, "duration": 30, "velocity": 120}, {"time": 178680, "pitch": 88, "duration": 30, "velocity": 120}, {"time": 178800, "pitch": 81, "duration": 30, "velocity": 120}, {"time": 178921, "pitch": 85, "duration": 30, "velocity": 120}, {"time": 179041, "pitch": 86, "duration": 30, "velocity": 120}, {"time": 179162, "pitch": 74, "duration": 30, "velocity": 120}, {"time": 179282, "pitch": 79, "duration": 30, "velocity": 120}, {"time": 179402, "pitch": 86, "duration": 30, "velocity": 120}, {"time": 179523, "pitch": 74, "duration": 30, "velocity": 120}, {"time": 179643, "pitch": 79, "duration": 30, "velocity": 120}, {"time": 179764, "pitch": 90, "duration": 30, "velocity": 120}, {"time": 179884, "pitch": 83, "duration": 30, "velocity": 120}, {"time": 180004, "pitch": 73, "duration": 30, "velocity": 120}, {"time": 180122, "pitch": 76, "duration": 30, "velocity": 120}, {"time": 180240, "pitch": 69, "duration": 29, "velocity": 120}, {"time": 180358, "pitch": 76, "duration": 29, "velocity": 120}, {"time": 180476, "pitch": 85, "duration": 30, "velocity": 120}, {"time": 180596, "pitch": 88, "duration": 30, "velocity": 120}, {"time": 180716, "pitch": 81, "duration": 30, "velocity": 120}, {"time": 180837, "pitch": 85, "duration": 30, "velocity": 120}, {"time": 180957, "pitch": 86, "duration": 30, "velocity": 120}, {"time": 181077, "pitch": 83, "duration": 31, "velocity": 120}, {"time": 181198, "pitch": 79, "duration": 30, "velocity": 120}, {"time": 181318, "pitch": 86, "duration": 30, "velocity": 120}, {"time": 181439, "pitch": 74, "duration": 30, "velocity": 120}, {"time": 181559, "pitch": 79, "duration": 30, "velocity": 120}, {"time": 181679, "pitch": 90, "duration": 31, "velocity": 120}, {"time": 181800, "pitch": 83, "duration": 30, "velocity": 120}, {"time": 181920, "pitch": 73, "duration": 30, "velocity": 120}, {"time": 182041, "pitch": 76, "duration": 30, "velocity": 120}, {"time": 182161, "pitch": 69, "duration": 30, "velocity": 120}, {"time": 182281, "pitch": 76, "duration": 31, "velocity": 120}, {"time": 182402, "pitch": 85, "duration": 30, "velocity": 120}, {"time": 182522, "pitch": 88, "duration": 30, "velocity": 120}, {"time": 182643, "pitch": 81, "duration": 30, "velocity": 120}, {"time": 182763, "pitch": 85, "duration": 30, "velocity": 120}, {"time": 182883, "pitch": 85, "duration": 31, "velocity": 120}, {"time": 183004, "pitch": 73, "duration": 30, "velocity": 120}, {"time": 183124, "pitch": 78, "duration": 30, "velocity": 120}, {"time": 183245, "pitch": 85, "duration": 30, "velocity": 120}, {"time": 183365, "pitch": 73, "duration": 29, "velocity": 120}, {"time": 183483, "pitch": 78, "duration": 29, "velocity": 120}, {"time": 183601, "pitch": 88, "duration": 29, "velocity": 120}, {"time": 183718, "pitch": 81, "duration": 30, "velocity": 120}, {"time": 183836, "pitch": 74, "duration": 30, "velocity": 120}, {"time": 183957, "pitch": 78, "duration": 30, "velocity": 120}, {"time": 184077, "pitch": 71, "duration": 30, "velocity": 120}, {"time": 184197, "pitch": 78, "duration": 30, "velocity": 120}, {"time": 184318, "pitch": 86, "duration": 30, "velocity": 120}, {"time": 184438, "pitch": 90, "duration": 30, "velocity": 120}, {"time": 184559, "pitch": 83, "duration": 30, "velocity": 120}, {"time": 184679, "pitch": 86, "duration": 30, "velocity": 120}, {"time": 184799, "pitch": 86, "duration": 30, "velocity": 120}, {"time": 184920, "pitch": 74, "duration": 30, "velocity": 120}, {"time": 185040, "pitch": 79, "duration": 30, "velocity": 120}, {"time": 185161, "pitch": 86, "duration": 30, "velocity": 120}, {"time": 185281, "pitch": 74, "duration": 30, "velocity": 120}, {"time": 185401, "pitch": 79, "duration": 30, "velocity": 120}, {"time": 185522, "pitch": 90, "duration": 30, "velocity": 120}, {"time": 185642, "pitch": 83, "duration": 30, "velocity": 120}, {"time": 185763, "pitch": 73, "duration": 30, "velocity": 120}, {"time": 185883, "pitch": 76, "duration": 30, "velocity": 120}, {"time": 186003, "pitch": 69, "duration": 30, "velocity": 120}, {"time": 186124, "pitch": 76, "duration": 30, "velocity": 120}, {"time": 186244, "pitch": 85, "duration": 29, "velocity": 120}, {"time": 186362, "pitch": 88, "duration": 29, "velocity": 120}, {"time": 186480, "pitch": 81, "duration": 29, "velocity": 120}, {"time": 186598, "pitch": 85, "duration": 29, "velocity": 120}, {"time": 186715, "pitch": 71, "duration": 30, "velocity": 120}, {"time": 186836, "pitch": 76, "duration": 30, "velocity": 120}, {"time": 186956, "pitch": 80, "duration": 30, "velocity": 120}, {"time": 187076, "pitch": 88, "duration": 31, "velocity": 120}, {"time": 187197, "pitch": 76, "duration": 30, "velocity": 120}, {"time": 187317, "pitch": 83, "duration": 30, "velocity": 120}, {"time": 187438, "pitch": 92, "duration": 30, "velocity": 120}, {"time": 187558, "pitch": 83, "duration": 30, "velocity": 120}, {"time": 187678, "pitch": 88, "duration": 31, "velocity": 120}, {"time": 187799, "pitch": 80, "duration": 30, "velocity": 120}, {"time": 187919, "pitch": 71, "duration": 30, "velocity": 120}, {"time": 188040, "pitch": 76, "duration": 30, "velocity": 120}, {"time": 188160, "pitch": 83, "duration": 30, "velocity": 120}, {"time": 188280, "pitch": 88, "duration": 31, "velocity": 120}, {"time": 188401, "pitch": 80, "duration": 30, "velocity": 120}, {"time": 188521, "pitch": 83, "duration": 30, "velocity": 120}, {"time": 188642, "pitch": 71, "duration": 30, "velocity": 120}, {"time": 188762, "pitch": 76, "duration": 30, "velocity": 120}, {"time": 188882, "pitch": 80, "duration": 30, "velocity": 120}, {"time": 189003, "pitch": 88, "duration": 30, "velocity": 120}, {"time": 189123, "pitch": 76, "duration": 30, "velocity": 120}, {"time": 189244, "pitch": 83, "duration": 30, "velocity": 120}, {"time": 189364, "pitch": 92, "duration": 30, "velocity": 120}, {"time": 189484, "pitch": 83, "duration": 30, "velocity": 120}, {"time": 189605, "pitch": 88, "duration": 29, "velocity": 120}, {"time": 189722, "pitch": 80, "duration": 30, "velocity": 120}, {"time": 189840, "pitch": 71, "duration": 30, "velocity": 120}, {"time": 189958, "pitch": 76, "duration": 30, "velocity": 120}, {"time": 190076, "pitch": 83, "duration": 30, "velocity": 120}, {"time": 190196, "pitch": 88, "duration": 30, "velocity": 120}, {"time": 190317, "pitch": 80, "duration": 30, "velocity": 120}, {"time": 190437, "pitch": 83, "duration": 30, "velocity": 120}, {"time": 190557, "pitch": 74, "duration": 31, "velocity": 120}, {"time": 190678, "pitch": 81, "duration": 30, "velocity": 120}, {"time": 190798, "pitch": 78, "duration": 30, "velocity": 120}, {"time": 190919, "pitch": 86, "duration": 30, "velocity": 120}, {"time": 191039, "pitch": 74, "duration": 30, "velocity": 120}, {"time": 191159, "pitch": 78, "duration": 31, "velocity": 120}, {"time": 191280, "pitch": 90, "duration": 30, "velocity": 120}, {"time": 191400, "pitch": 83, "duration": 30, "velocity": 120}, {"time": 191521, "pitch": 86, "duration": 30, "velocity": 120}, {"time": 191641, "pitch": 78, "duration": 30, "velocity": 120}, {"time": 191761, "pitch": 71, "duration": 31, "velocity": 120}, {"time": 191882, "pitch": 78, "duration": 30, "velocity": 120}, {"time": 192002, "pitch": 86, "duration": 30, "velocity": 120}, {"time": 192123, "pitch": 90, "duration": 30, "velocity": 120}, {"time": 192243, "pitch": 81, "duration": 30, "velocity": 120}, {"time": 192363, "pitch": 86, "duration": 31, "velocity": 120}, {"time": 192484, "pitch": 74, "duration": 29, "velocity": 120}, {"time": 192602, "pitch": 81, "duration": 29, "velocity": 120}, {"time": 192719, "pitch": 78, "duration": 30, "velocity": 120}, {"time": 192837, "pitch": 86, "duration": 30, "velocity": 120}, {"time": 192955, "pitch": 74, "duration": 30, "velocity": 120}, {"time": 193075, "pitch": 78, "duration": 30, "velocity": 120}, {"time": 193196, "pitch": 90, "duration": 30, "velocity": 120}, {"time": 193316, "pitch": 83, "duration": 30, "velocity": 120}, {"time": 193437, "pitch": 86, "duration": 30, "velocity": 120}, {"time": 193557, "pitch": 78, "duration": 30, "velocity": 120}, {"time": 193677, "pitch": 71, "duration": 30, "velocity": 120}, {"time": 193798, "pitch": 78, "duration": 30, "velocity": 120}, {"time": 193918, "pitch": 86, "duration": 30, "velocity": 120}, {"time": 194039, "pitch": 90, "duration": 30, "velocity": 120}, {"time": 194159, "pitch": 81, "duration": 30, "velocity": 120}, {"time": 194279, "pitch": 86, "duration": 30, "velocity": 120}, {"time": 194400, "pitch": 74, "duration": 30, "velocity": 120}, {"time": 194520, "pitch": 81, "duration": 30, "velocity": 120}, {"time": 194641, "pitch": 78, "duration": 30, "velocity": 120}, {"time": 194761, "pitch": 86, "duration": 30, "velocity": 120}, {"time": 194881, "pitch": 74, "duration": 30, "velocity": 120}, {"time": 195002, "pitch": 78, "duration": 30, "velocity": 120}, {"time": 195122, "pitch": 90, "duration": 30, "velocity": 120}, {"time": 195243, "pitch": 83, "duration": 30, "velocity": 120}, {"time": 195363, "pitch": 86, "duration": 30, "velocity": 120}, {"time": 195483, "pitch": 78, "duration": 30, "velocity": 120}, {"time": 195604, "pitch": 71, "duration": 30, "velocity": 120}, {"time": 195724, "pitch": 78, "duration": 30, "velocity": 120}, {"time": 195844, "pitch": 86, "duration": 30, "velocity": 120}, {"time": 195962, "pitch": 90, "duration": 30, "velocity": 120}, {"time": 196080, "pitch": 81, "duration": 30, "velocity": 120}, {"time": 196198, "pitch": 86, "duration": 29, "velocity": 120}, {"time": 196316, "pitch": 74, "duration": 30, "velocity": 120}, {"time": 196436, "pitch": 81, "duration": 30, "velocity": 120}, {"time": 196556, "pitch": 78, "duration": 31, "velocity": 120}, {"time": 196677, "pitch": 86, "duration": 30, "velocity": 120}, {"time": 196797, "pitch": 74, "duration": 30, "velocity": 120}, {"time": 196918, "pitch": 78, "duration": 30, "velocity": 120}, {"time": 197038, "pitch": 90, "duration": 30, "velocity": 120}, {"time": 197158, "pitch": 83, "duration": 31, "velocity": 120}, {"time": 197279, "pitch": 86, "duration": 30, "velocity": 120}, {"time": 197399, "pitch": 78, "duration": 30, "velocity": 120}, {"time": 197520, "pitch": 71, "duration": 30, "velocity": 120}, {"time": 197640, "pitch": 78, "duration": 30, "velocity": 120}, {"time": 197760, "pitch": 86, "duration": 31, "velocity": 120}, {"time": 197881, "pitch": 90, "duration": 30, "velocity": 120}, {"time": 198001, "pitch": 81, "duration": 30, "velocity": 120}, {"time": 198122, "pitch": 86, "duration": 30, "velocity": 120}, {"time": 198242, "pitch": 74, "duration": 30, "velocity": 120}, {"time": 198362, "pitch": 81, "duration": 30, "velocity": 120}, {"time": 198483, "pitch": 78, "duration": 30, "velocity": 120}, {"time": 198603, "pitch": 86, "duration": 30, "velocity": 120}, {"time": 198724, "pitch": 74, "duration": 30, "velocity": 120}, {"time": 198844, "pitch": 78, "duration": 30, "velocity": 120}, {"time": 198964, "pitch": 90, "duration": 30, "velocity": 120}, {"time": 199085, "pitch": 83, "duration": 30, "velocity": 120}, {"time": 199205, "pitch": 86, "duration": 30, "velocity": 120}, {"time": 199323, "pitch": 78, "duration": 29, "velocity": 120}, {"time": 199441, "pitch": 71, "duration": 29, "velocity": 120}, {"time": 199559, "pitch": 78, "duration": 29, "velocity": 120}, {"time": 199676, "pitch": 86, "duration": 30, "velocity": 120}, {"time": 199797, "pitch": 90, "duration": 30, "velocity": 120}, {"time": 199917, "pitch": 81, "duration": 30, "velocity": 120}, {"time": 200037, "pitch": 86, "duration": 31, "velocity": 120}, {"time": 200158, "pitch": 74, "duration": 30, "velocity": 120}, {"time": 200278, "pitch": 81, "duration": 30, "velocity": 120}, {"time": 200399, "pitch": 78, "duration": 30, "velocity": 120}, {"time": 200519, "pitch": 86, "duration": 30, "velocity": 120}, {"time": 200639, "pitch": 74, "duration": 31, "velocity": 120}, {"time": 200760, "pitch": 78, "duration": 30, "velocity": 120}, {"time": 200880, "pitch": 90, "duration": 30, "velocity": 120}, {"time": 201001, "pitch": 83, "duration": 30, "velocity": 120}, {"time": 201121, "pitch": 86, "duration": 30, "velocity": 120}, {"time": 201241, "pitch": 78, "duration": 31, "velocity": 120}, {"time": 201362, "pitch": 71, "duration": 30, "velocity": 120}, {"time": 201482, "pitch": 78, "duration": 30, "velocity": 120}, {"time": 201603, "pitch": 86, "duration": 30, "velocity": 120}, {"time": 201723, "pitch": 90, "duration": 30, "velocity": 120}, {"time": 201843, "pitch": 81, "duration": 31, "velocity": 120}, {"time": 201964, "pitch": 86, "duration": 30, "velocity": 120}, {"time": 202084, "pitch": 74, "duration": 30, "velocity": 120}, {"time": 202202, "pitch": 81, "duration": 29, "velocity": 120}, {"time": 202320, "pitch": 78, "duration": 29, "velocity": 120}, {"time": 202438, "pitch": 86, "duration": 29, "velocity": 120}, {"time": 202555, "pitch": 74, "duration": 30, "velocity": 120}, {"time": 202676, "pitch": 78, "duration": 30, "velocity": 120}, {"time": 202796, "pitch": 90, "duration": 30, "velocity": 120}, {"time": 202917, "pitch": 83, "duration": 30, "velocity": 120}, {"time": 203037, "pitch": 86, "duration": 30, "velocity": 120}, {"time": 203157, "pitch": 78, "duration": 30, "velocity": 120}, {"time": 203278, "pitch": 71, "duration": 30, "velocity": 120}, {"time": 203398, "pitch": 78, "duration": 30, "velocity": 120}, {"time": 203519, "pitch": 86, "duration": 30, "velocity": 120}, {"time": 203639, "pitch": 90, "duration": 30, "velocity": 120}, {"time": 203759, "pitch": 81, "duration": 30, "velocity": 120}, {"time": 203880, "pitch": 86, "duration": 30, "velocity": 120}, {"time": 204000, "pitch": 73, "duration": 30, "velocity": 120}, {"time": 204121, "pitch": 78, "duration": 30, "velocity": 120}, {"time": 204241, "pitch": 76, "duration": 30, "velocity": 120}, {"time": 204361, "pitch": 85, "duration": 30, "velocity": 120}, {"time": 204482, "pitch": 73, "duration": 30, "velocity": 120}, {"time": 204602, "pitch": 76, "duration": 30, "velocity": 120}, {"time": 204723, "pitch": 88, "duration": 30, "velocity": 120}, {"time": 204843, "pitch": 81, "duration": 30, "velocity": 120}, {"time": 204963, "pitch": 85, "duration": 30, "velocity": 120}, {"time": 205084, "pitch": 76, "duration": 30, "velocity": 120}, {"time": 205204, "pitch": 69, "duration": 30, "velocity": 120}, {"time": 205324, "pitch": 76, "duration": 31, "velocity": 120}, {"time": 205445, "pitch": 85, "duration": 29, "velocity": 120}, {"time": 205563, "pitch": 88, "duration": 29, "velocity": 120}, {"time": 205680, "pitch": 78, "duration": 30, "velocity": 120}, {"time": 205798, "pitch": 85, "duration": 30, "velocity": 120}, {"time": 205916, "pitch": 74, "duration": 30, "velocity": 120}, {"time": 206036, "pitch": 81, "duration": 31, "velocity": 120}, {"time": 206157, "pitch": 78, "duration": 30, "velocity": 120}, {"time": 206277, "pitch": 86, "duration": 30, "velocity": 120}, {"time": 206398, "pitch": 74, "duration": 30, "velocity": 120}, {"time": 206518, "pitch": 78, "duration": 30, "velocity": 120}, {"time": 206638, "pitch": 90, "duration": 31, "velocity": 120}, {"time": 206759, "pitch": 83, "duration": 30, "velocity": 120}, {"time": 206879, "pitch": 86, "duration": 30, "velocity": 120}, {"time": 207000, "pitch": 78, "duration": 30, "velocity": 120}, {"time": 207120, "pitch": 71, "duration": 30, "velocity": 120}, {"time": 207240, "pitch": 78, "duration": 31, "velocity": 120}, {"time": 207361, "pitch": 86, "duration": 30, "velocity": 120}, {"time": 207481, "pitch": 90, "duration": 30, "velocity": 120}, {"time": 207602, "pitch": 81, "duration": 30, "velocity": 120}, {"time": 207722, "pitch": 86, "duration": 30, "velocity": 120}, {"time": 207842, "pitch": 74, "duration": 30, "velocity": 120}, {"time": 207963, "pitch": 81, "duration": 30, "velocity": 120}, {"time": 208083, "pitch": 78, "duration": 30, "velocity": 120}, {"time": 208204, "pitch": 86, "duration": 30, "velocity": 120}, {"time": 208324, "pitch": 74, "duration": 29, "velocity": 120}, {"time": 208442, "pitch": 78, "duration": 29, "velocity": 120}, {"time": 208560, "pitch": 90, "duration": 29, "velocity": 120}, {"time": 208677, "pitch": 83, "duration": 30, "velocity": 120}, {"time": 208795, "pitch": 86, "duration": 30, "velocity": 120}, {"time": 208916, "pitch": 78, "duration": 30, "velocity": 120}, {"time": 209036, "pitch": 71, "duration": 30, "velocity": 120}, {"time": 209156, "pitch": 78, "duration": 30, "velocity": 120}, {"time": 209277, "pitch": 86, "duration": 30, "velocity": 120}, {"time": 209397, "pitch": 90, "duration": 30, "velocity": 120}, {"time": 209517, "pitch": 81, "duration": 31, "velocity": 120}, {"time": 209638, "pitch": 86, "duration": 30, "velocity": 120}, {"time": 209758, "pitch": 74, "duration": 30, "velocity": 120}, {"time": 209879, "pitch": 81, "duration": 30, "velocity": 120}, {"time": 209999, "pitch": 78, "duration": 30, "velocity": 120}, {"time": 210119, "pitch": 86, "duration": 31, "velocity": 120}, {"time": 210240, "pitch": 74, "duration": 30, "velocity": 120}, {"time": 210360, "pitch": 78, "duration": 30, "velocity": 120}, {"time": 210481, "pitch": 90, "duration": 30, "velocity": 120}, {"time": 210601, "pitch": 83, "duration": 30, "velocity": 120}, {"time": 210721, "pitch": 86, "duration": 31, "velocity": 120}, {"time": 210842, "pitch": 78, "duration": 30, "velocity": 120}, {"time": 210962, "pitch": 71, "duration": 30, "velocity": 120}, {"time": 211083, "pitch": 78, "duration": 30, "velocity": 120}, {"time": 211203, "pitch": 86, "duration": 30, "velocity": 120}, {"time": 211323, "pitch": 90, "duration": 31, "velocity": 120}, {"time": 211444, "pitch": 81, "duration": 30, "velocity": 120}, {"time": 211564, "pitch": 86, "duration": 30, "velocity": 120}, {"time": 211685, "pitch": 74, "duration": 29, "velocity": 120}, {"time": 211802, "pitch": 81, "duration": 30, "velocity": 120}, {"time": 211920, "pitch": 78, "duration": 30, "velocity": 120}, {"time": 212038, "pitch": 86, "duration": 29, "velocity": 120}, {"time": 212156, "pitch": 74, "duration": 30, "velocity": 120}, {"time": 212276, "pitch": 78, "duration": 30, "velocity": 120}, {"time": 212397, "pitch": 90, "duration": 30, "velocity": 120}, {"time": 212517, "pitch": 83, "duration": 30, "velocity": 120}, {"time": 212637, "pitch": 86, "duration": 30, "velocity": 120}, {"time": 212758, "pitch": 78, "duration": 30, "velocity": 120}, {"time": 212878, "pitch": 71, "duration": 30, "velocity": 120}, {"time": 212999, "pitch": 78, "duration": 30, "velocity": 120}, {"time": 213119, "pitch": 86, "duration": 30, "velocity": 120}, {"time": 213239, "pitch": 90, "duration": 30, "velocity": 120}, {"time": 213360, "pitch": 81, "duration": 30, "velocity": 120}, {"time": 213480, "pitch": 86, "duration": 30, "velocity": 120}, {"time": 213601, "pitch": 74, "duration": 30, "velocity": 120}, {"time": 213721, "pitch": 81, "duration": 30, "velocity": 120}, {"time": 213841, "pitch": 78, "duration": 30, "velocity": 120}, {"time": 213962, "pitch": 86, "duration": 30, "velocity": 120}, {"time": 214082, "pitch": 74, "duration": 30, "velocity": 120}, {"time": 214203, "pitch": 78, "duration": 30, "velocity": 120}, {"time": 214323, "pitch": 90, "duration": 30, "velocity": 120}, {"time": 214443, "pitch": 83, "duration": 30, "velocity": 120}, {"time": 214564, "pitch": 86, "duration": 29, "velocity": 120}, {"time": 214681, "pitch": 78, "duration": 30, "velocity": 120}, {"time": 214799, "pitch": 71, "duration": 30, "velocity": 120}, {"time": 214917, "pitch": 78, "duration": 30, "velocity": 120}, {"time": 215035, "pitch": 86, "duration": 30, "velocity": 120}, {"time": 215155, "pitch": 90, "duration": 30, "velocity": 120}, {"time": 215276, "pitch": 81, "duration": 30, "velocity": 120}, {"time": 215396, "pitch": 86, "duration": 30, "velocity": 120}, {"time": 215516, "pitch": 74, "duration": 31, "velocity": 120}, {"time": 215637, "pitch": 81, "duration": 30, "velocity": 120}, {"time": 215757, "pitch": 78, "duration": 30, "velocity": 120}, {"time": 215878, "pitch": 86, "duration": 30, "velocity": 120}, {"time": 215998, "pitch": 74, "duration": 30, "velocity": 120}, {"time": 216118, "pitch": 78, "duration": 31, "velocity": 120}, {"time": 216239, "pitch": 90, "duration": 30, "velocity": 120}, {"time": 216359, "pitch": 83, "duration": 30, "velocity": 120}, {"time": 216480, "pitch": 86, "duration": 30, "velocity": 120}, {"time": 216600, "pitch": 78, "duration": 30, "velocity": 120}, {"time": 216720, "pitch": 71, "duration": 31, "velocity": 120}, {"time": 216841, "pitch": 78, "duration": 30, "velocity": 120}, {"time": 216961, "pitch": 86, "duration": 30, "velocity": 120}, {"time": 217082, "pitch": 90, "duration": 30, "velocity": 120}, {"time": 217202, "pitch": 81, "duration": 30, "velocity": 120}, {"time": 217322, "pitch": 86, "duration": 30, "velocity": 120}, {"time": 217443, "pitch": 74, "duration": 30, "velocity": 120}, {"time": 217563, "pitch": 81, "duration": 30, "velocity": 120}, {"time": 217684, "pitch": 78, "duration": 30, "velocity": 120}, {"time": 217804, "pitch": 86, "duration": 30, "velocity": 120}, {"time": 217924, "pitch": 74, "duration": 30, "velocity": 120}, {"time": 218042, "pitch": 78, "duration": 30, "velocity": 120}, {"time": 218160, "pitch": 90, "duration": 29, "velocity": 120}, {"time": 218278, "pitch": 83, "duration": 29, "velocity": 120}, {"time": 218396, "pitch": 86, "duration": 30, "velocity": 120}, {"time": 218516, "pitch": 78, "duration": 30, "velocity": 120}, {"time": 218636, "pitch": 71, "duration": 30, "velocity": 120}, {"time": 218757, "pitch": 78, "duration": 30, "velocity": 120}, {"time": 218877, "pitch": 86, "duration": 30, "velocity": 120}, {"time": 218997, "pitch": 90, "duration": 31, "velocity": 120}, {"time": 219118, "pitch": 81, "duration": 30, "velocity": 120}, {"time": 219238, "pitch": 86, "duration": 30, "velocity": 120}, {"time": 219359, "pitch": 73, "duration": 30, "velocity": 120}, {"time": 219479, "pitch": 78, "duration": 30, "velocity": 120}, {"time": 219599, "pitch": 76, "duration": 31, "velocity": 120}, {"time": 219720, "pitch": 85, "duration": 30, "velocity": 120}, {"time": 219840, "pitch": 73, "duration": 30, "velocity": 120}, {"time": 219961, "pitch": 76, "duration": 30, "velocity": 120}, {"time": 220081, "pitch": 88, "duration": 30, "velocity": 120}, {"time": 220201, "pitch": 81, "duration": 31, "velocity": 120}, {"time": 220322, "pitch": 85, "duration": 30, "velocity": 120}, {"time": 220442, "pitch": 76, "duration": 30, "velocity": 120}, {"time": 220563, "pitch": 69, "duration": 30, "velocity": 120}, {"time": 220683, "pitch": 76, "duration": 30, "velocity": 120}, {"time": 220803, "pitch": 85, "duration": 31, "velocity": 120}, {"time": 220924, "pitch": 88, "duration": 30, "velocity": 120}, {"time": 221044, "pitch": 78, "duration": 30, "velocity": 120}, {"time": 221165, "pitch": 85, "duration": 30, "velocity": 120}, {"time": 221285, "pitch": 86, "duration": 29, "velocity": 120}, {"time": 221403, "pitch": 83, "duration": 29, "velocity": 120}, {"time": 221521, "pitch": 79, "duration": 29, "velocity": 120}, {"time": 221638, "pitch": 86, "duration": 30, "velocity": 120}, {"time": 221756, "pitch": 74, "duration": 30, "velocity": 120}, {"time": 221877, "pitch": 79, "duration": 30, "velocity": 120}, {"time": 221997, "pitch": 90, "duration": 30, "velocity": 120}, {"time": 222117, "pitch": 83, "duration": 30, "velocity": 120}, {"time": 222238, "pitch": 73, "duration": 30, "velocity": 120}, {"time": 222358, "pitch": 76, "duration": 30, "velocity": 120}, {"time": 222479, "pitch": 69, "duration": 30, "velocity": 120}, {"time": 222599, "pitch": 76, "duration": 30, "velocity": 120}, {"time": 222719, "pitch": 85, "duration": 30, "velocity": 120}, {"time": 222840, "pitch": 88, "duration": 30, "velocity": 120}, {"time": 222960, "pitch": 81, "duration": 30, "velocity": 120}, {"time": 223081, "pitch": 85, "duration": 30, "velocity": 120}, {"time": 223201, "pitch": 85, "duration": 30, "velocity": 120}, {"time": 223321, "pitch": 73, "duration": 30, "velocity": 120}, {"time": 223442, "pitch": 78, "duration": 30, "velocity": 120}, {"time": 223562, "pitch": 85, "duration": 30, "velocity": 120}, {"time": 223683, "pitch": 73, "duration": 30, "velocity": 120}, {"time": 223803, "pitch": 78, "duration": 30, "velocity": 120}, {"time": 223923, "pitch": 88, "duration": 30, "velocity": 120}, {"time": 224044, "pitch": 81, "duration": 30, "velocity": 120}, {"time": 224164, "pitch": 74, "duration": 29, "velocity": 120}, {"time": 224282, "pitch": 78, "duration": 29, "velocity": 120}, {"time": 224400, "pitch": 71, "duration": 29, "velocity": 120}, {"time": 224518, "pitch": 78, "duration": 29, "velocity": 120}, {"time": 224635, "pitch": 86, "duration": 30, "velocity": 120}, {"time": 224756, "pitch": 90, "duration": 30, "velocity": 120}, {"time": 224876, "pitch": 83, "duration": 30, "velocity": 120}, {"time": 224996, "pitch": 86, "duration": 31, "velocity": 120}, {"time": 225117, "pitch": 86, "duration": 30, "velocity": 120}, {"time": 225237, "pitch": 74, "duration": 30, "velocity": 120}, {"time": 225358, "pitch": 79, "duration": 30, "velocity": 120}, {"time": 225478, "pitch": 86, "duration": 30, "velocity": 120}, {"time": 225598, "pitch": 74, "duration": 31, "velocity": 120}, {"time": 225719, "pitch": 79, "duration": 30, "velocity": 120}, {"time": 225839, "pitch": 90, "duration": 30, "velocity": 120}, {"time": 225960, "pitch": 83, "duration": 30, "velocity": 120}, {"time": 226080, "pitch": 73, "duration": 30, "velocity": 120}, {"time": 226200, "pitch": 76, "duration": 31, "velocity": 120}, {"time": 226321, "pitch": 69, "duration": 30, "velocity": 120}, {"time": 226441, "pitch": 76, "duration": 30, "velocity": 120}, {"time": 226562, "pitch": 85, "duration": 30, "velocity": 120}, {"time": 226682, "pitch": 88, "duration": 30, "velocity": 120}, {"time": 226802, "pitch": 81, "duration": 30, "velocity": 120}, {"time": 226923, "pitch": 85, "duration": 30, "velocity": 120}, {"time": 227043, "pitch": 86, "duration": 30, "velocity": 120}, {"time": 227164, "pitch": 74, "duration": 30, "velocity": 120}, {"time": 227284, "pitch": 79, "duration": 30, "velocity": 120}, {"time": 227404, "pitch": 86, "duration": 30, "velocity": 120}, {"time": 227525, "pitch": 74, "duration": 29, "velocity": 120}, {"time": 227642, "pitch": 79, "duration": 30, "velocity": 120}, {"time": 227760, "pitch": 90, "duration": 30, "velocity": 120}, {"time": 227878, "pitch": 83, "duration": 30, "velocity": 120}, {"time": 227996, "pitch": 73, "duration": 30, "velocity": 120}, {"time": 228116, "pitch": 76, "duration": 30, "velocity": 120}, {"time": 228237, "pitch": 69, "duration": 30, "velocity": 120}, {"time": 228357, "pitch": 76, "duration": 30, "velocity": 120}, {"time": 228477, "pitch": 85, "duration": 31, "velocity": 120}, {"time": 228598, "pitch": 88, "duration": 30, "velocity": 120}, {"time": 228718, "pitch": 81, "duration": 30, "velocity": 120}, {"time": 228839, "pitch": 85, "duration": 30, "velocity": 120}, {"time": 228959, "pitch": 86, "duration": 30, "velocity": 120}, {"time": 229079, "pitch": 83, "duration": 31, "velocity": 120}, {"time": 229200, "pitch": 79, "duration": 30, "velocity": 120}, {"time": 229320, "pitch": 86, "duration": 30, "velocity": 120}, {"time": 229441, "pitch": 74, "duration": 30, "velocity": 120}, {"time": 229561, "pitch": 79, "duration": 30, "velocity": 120}, {"time": 229681, "pitch": 90, "duration": 31, "velocity": 120}, {"time": 229802, "pitch": 83, "duration": 30, "velocity": 120}, {"time": 229922, "pitch": 73, "duration": 30, "velocity": 120}, {"time": 230043, "pitch": 76, "duration": 30, "velocity": 120}, {"time": 230163, "pitch": 69, "duration": 30, "velocity": 120}, {"time": 230283, "pitch": 76, "duration": 31, "velocity": 120}, {"time": 230404, "pitch": 85, "duration": 29, "velocity": 120}, {"time": 230522, "pitch": 88, "duration": 29, "velocity": 120}, {"time": 230639, "pitch": 81, "duration": 30, "velocity": 120}, {"time": 230757, "pitch": 85, "duration": 30, "velocity": 120}, {"time": 230875, "pitch": 85, "duration": 30, "velocity": 120}, {"time": 230995, "pitch": 73, "duration": 30, "velocity": 120}, {"time": 231116, "pitch": 78, "duration": 30, "velocity": 120}, {"time": 231236, "pitch": 85, "duration": 30, "velocity": 120}, {"time": 231357, "pitch": 73, "duration": 30, "velocity": 120}, {"time": 231477, "pitch": 78, "duration": 30, "velocity": 120}, {"time": 231597, "pitch": 88, "duration": 30, "velocity": 120}, {"time": 231718, "pitch": 81, "duration": 30, "velocity": 120}, {"time": 231838, "pitch": 74, "duration": 30, "velocity": 120}, {"time": 231959, "pitch": 78, "duration": 30, "velocity": 120}, {"time": 232079, "pitch": 71, "duration": 30, "velocity": 120}, {"time": 232199, "pitch": 78, "duration": 30, "velocity": 120}, {"time": 232320, "pitch": 86, "duration": 30, "velocity": 120}, {"time": 232440, "pitch": 90, "duration": 30, "velocity": 120}, {"time": 232561, "pitch": 83, "duration": 30, "velocity": 120}, {"time": 232681, "pitch": 86, "duration": 30, "velocity": 120}, {"time": 232801, "pitch": 86, "duration": 30, "velocity": 120}, {"time": 232922, "pitch": 74, "duration": 30, "velocity": 120}, {"time": 233042, "pitch": 79, "duration": 30, "velocity": 120}, {"time": 233163, "pitch": 86, "duration": 30, "velocity": 120}, {"time": 233283, "pitch": 74, "duration": 30, "velocity": 120}, {"time": 233403, "pitch": 79, "duration": 30, "velocity": 120}, {"time": 233524, "pitch": 90, "duration": 30, "velocity": 120}, {"time": 233644, "pitch": 83, "duration": 30, "velocity": 120}, {"time": 233764, "pitch": 73, "duration": 30, "velocity": 120}, {"time": 233882, "pitch": 76, "duration": 30, "velocity": 120}, {"time": 234000, "pitch": 69, "duration": 30, "velocity": 120}, {"time": 234118, "pitch": 76, "duration": 29, "velocity": 120}, {"time": 234236, "pitch": 85, "duration": 30, "velocity": 120}, {"time": 234356, "pitch": 88, "duration": 30, "velocity": 120}, {"time": 234476, "pitch": 81, "duration": 31, "velocity": 120}, {"time": 234597, "pitch": 85, "duration": 30, "velocity": 120}, {"time": 234717, "pitch": 71, "duration": 30, "velocity": 120}, {"time": 234838, "pitch": 76, "duration": 30, "velocity": 120}, {"time": 234958, "pitch": 80, "duration": 30, "velocity": 120}, {"time": 235078, "pitch": 88, "duration": 31, "velocity": 120}, {"time": 235199, "pitch": 76, "duration": 30, "velocity": 120}, {"time": 235319, "pitch": 83, "duration": 30, "velocity": 120}, {"time": 235440, "pitch": 92, "duration": 30, "velocity": 120}, {"time": 235560, "pitch": 83, "duration": 30, "velocity": 120}, {"time": 235680, "pitch": 88, "duration": 31, "velocity": 120}, {"time": 235801, "pitch": 80, "duration": 30, "velocity": 120}, {"time": 235921, "pitch": 71, "duration": 30, "velocity": 120}, {"time": 236042, "pitch": 76, "duration": 30, "velocity": 120}, {"time": 236162, "pitch": 83, "duration": 30, "velocity": 120}, {"time": 236282, "pitch": 88, "duration": 30, "velocity": 120}, {"time": 236403, "pitch": 80, "duration": 30, "velocity": 120}, {"time": 236523, "pitch": 83, "duration": 30, "velocity": 120}, {"time": 236644, "pitch": 86, "duration": 30, "velocity": 120}, {"time": 236764, "pitch": 83, "duration": 30, "velocity": 120}, {"time": 236884, "pitch": 79, "duration": 30, "velocity": 120}, {"time": 237005, "pitch": 86, "duration": 30, "velocity": 120}, {"time": 237125, "pitch": 74, "duration": 30, "velocity": 120}, {"time": 237243, "pitch": 79, "duration": 29, "velocity": 120}, {"time": 237361, "pitch": 90, "duration": 29, "velocity": 120}, {"time": 237479, "pitch": 83, "duration": 29, "velocity": 120}, {"time": 237596, "pitch": 73, "duration": 30, "velocity": 120}, {"time": 237717, "pitch": 76, "duration": 30, "velocity": 120}, {"time": 237837, "pitch": 69, "duration": 30, "velocity": 120}, {"time": 237957, "pitch": 76, "duration": 31, "velocity": 120}, {"time": 238078, "pitch": 85, "duration": 30, "velocity": 120}, {"time": 238198, "pitch": 88, "duration": 30, "velocity": 120}, {"time": 238319, "pitch": 81, "duration": 30, "velocity": 120}, {"time": 238439, "pitch": 85, "duration": 30, "velocity": 120}, {"time": 238559, "pitch": 85, "duration": 31, "velocity": 120}, {"time": 238680, "pitch": 73, "duration": 30, "velocity": 120}, {"time": 238800, "pitch": 78, "duration": 30, "velocity": 120}, {"time": 238921, "pitch": 85, "duration": 30, "velocity": 120}, {"time": 239041, "pitch": 73, "duration": 30, "velocity": 120}, {"time": 239161, "pitch": 78, "duration": 31, "velocity": 120}, {"time": 239282, "pitch": 88, "duration": 30, "velocity": 120}, {"time": 239402, "pitch": 81, "duration": 30, "velocity": 120}, {"time": 239523, "pitch": 74, "duration": 30, "velocity": 120}, {"time": 239643, "pitch": 78, "duration": 30, "velocity": 120}, {"time": 239763, "pitch": 71, "duration": 31, "velocity": 120}, {"time": 239884, "pitch": 78, "duration": 30, "velocity": 120}, {"time": 240004, "pitch": 86, "duration": 30, "velocity": 120}, {"time": 240122, "pitch": 90, "duration": 29, "velocity": 120}, {"time": 240240, "pitch": 83, "duration": 29, "velocity": 120}, {"time": 240358, "pitch": 86, "duration": 29, "velocity": 120}, {"time": 240475, "pitch": 86, "duration": 30, "velocity": 120}, {"time": 240596, "pitch": 74, "duration": 30, "velocity": 120}, {"time": 240716, "pitch": 79, "duration": 30, "velocity": 120}, {"time": 240837, "pitch": 86, "duration": 30, "velocity": 120}, {"time": 240957, "pitch": 74, "duration": 30, "velocity": 120}, {"time": 241077, "pitch": 79, "duration": 30, "velocity": 120}, {"time": 241198, "pitch": 90, "duration": 30, "velocity": 120}, {"time": 241318, "pitch": 83, "duration": 30, "velocity": 120}, {"time": 241439, "pitch": 73, "duration": 30, "velocity": 120}, {"time": 241559, "pitch": 76, "duration": 30, "velocity": 120}, {"time": 241679, "pitch": 69, "duration": 30, "velocity": 120}, {"time": 241800, "pitch": 76, "duration": 30, "velocity": 120}, {"time": 241920, "pitch": 85, "duration": 30, "velocity": 120}, {"time": 242041, "pitch": 88, "duration": 30, "velocity": 120}, {"time": 242161, "pitch": 81, "duration": 30, "velocity": 120}, {"time": 242281, "pitch": 85, "duration": 30, "velocity": 120}, {"time": 242402, "pitch": 86, "duration": 30, "velocity": 120}, {"time": 242522, "pitch": 74, "duration": 30, "velocity": 120}, {"time": 242643, "pitch": 79, "duration": 30, "velocity": 120}, {"time": 242763, "pitch": 86, "duration": 30, "velocity": 120}, {"time": 242883, "pitch": 74, "duration": 30, "velocity": 120}, {"time": 243004, "pitch": 79, "duration": 30, "velocity": 120}, {"time": 243124, "pitch": 90, "duration": 30, "velocity": 120}, {"time": 243244, "pitch": 83, "duration": 31, "velocity": 120}, {"time": 243365, "pitch": 73, "duration": 29, "velocity": 120}, {"time": 243483, "pitch": 76, "duration": 29, "velocity": 120}, {"time": 243600, "pitch": 69, "duration": 30, "velocity": 120}, {"time": 243718, "pitch": 76, "duration": 30, "velocity": 120}, {"time": 243836, "pitch": 85, "duration": 30, "velocity": 120}, {"time": 243956, "pitch": 88, "duration": 31, "velocity": 120}, {"time": 244077, "pitch": 81, "duration": 30, "velocity": 120}, {"time": 244197, "pitch": 85, "duration": 30, "velocity": 120}, {"time": 244318, "pitch": 86, "duration": 30, "velocity": 120}, {"time": 244438, "pitch": 83, "duration": 30, "velocity": 120}, {"time": 244558, "pitch": 79, "duration": 31, "velocity": 120}, {"time": 244679, "pitch": 86, "duration": 30, "velocity": 120}, {"time": 244799, "pitch": 74, "duration": 30, "velocity": 120}, {"time": 244920, "pitch": 79, "duration": 30, "velocity": 120}, {"time": 245040, "pitch": 90, "duration": 30, "velocity": 120}, {"time": 245160, "pitch": 83, "duration": 31, "velocity": 120}, {"time": 245281, "pitch": 73, "duration": 30, "velocity": 120}, {"time": 245401, "pitch": 76, "duration": 30, "velocity": 120}, {"time": 245522, "pitch": 69, "duration": 30, "velocity": 120}, {"time": 245642, "pitch": 76, "duration": 30, "velocity": 120}, {"time": 245762, "pitch": 85, "duration": 30, "velocity": 120}, {"time": 245883, "pitch": 88, "duration": 30, "velocity": 120}, {"time": 246003, "pitch": 81, "duration": 30, "velocity": 120}, {"time": 246124, "pitch": 85, "duration": 30, "velocity": 120}, {"time": 246244, "pitch": 85, "duration": 29, "velocity": 120}, {"time": 246362, "pitch": 73, "duration": 29, "velocity": 120}, {"time": 246480, "pitch": 78, "duration": 29, "velocity": 120}, {"time": 246597, "pitch": 85, "duration": 30, "velocity": 120}, {"time": 246715, "pitch": 73, "duration": 30, "velocity": 120}, {"time": 246836, "pitch": 78, "duration": 30, "velocity": 120}, {"time": 246956, "pitch": 88, "duration": 30, "velocity": 120}, {"time": 247076, "pitch": 81, "duration": 30, "velocity": 120}, {"time": 247197, "pitch": 74, "duration": 30, "velocity": 120}, {"time": 247317, "pitch": 78, "duration": 30, "velocity": 120}, {"time": 247437, "pitch": 71, "duration": 31, "velocity": 120}, {"time": 247558, "pitch": 78, "duration": 30, "velocity": 120}, {"time": 247678, "pitch": 86, "duration": 30, "velocity": 120}, {"time": 247799, "pitch": 90, "duration": 30, "velocity": 120}, {"time": 247919, "pitch": 83, "duration": 30, "velocity": 120}, {"time": 248039, "pitch": 86, "duration": 31, "velocity": 120}, {"time": 248160, "pitch": 86, "duration": 30, "velocity": 120}, {"time": 248280, "pitch": 74, "duration": 30, "velocity": 120}, {"time": 248401, "pitch": 79, "duration": 30, "velocity": 120}, {"time": 248521, "pitch": 86, "duration": 30, "velocity": 120}, {"time": 248641, "pitch": 74, "duration": 31, "velocity": 120}, {"time": 248762, "pitch": 79, "duration": 30, "velocity": 120}, {"time": 248882, "pitch": 90, "duration": 30, "velocity": 120}, {"time": 249003, "pitch": 83, "duration": 30, "velocity": 120}, {"time": 249123, "pitch": 73, "duration": 30, "velocity": 120}, {"time": 249243, "pitch": 76, "duration": 31, "velocity": 120}, {"time": 249364, "pitch": 69, "duration": 30, "velocity": 120}, {"time": 249484, "pitch": 76, "duration": 30, "velocity": 120}, {"time": 249605, "pitch": 85, "duration": 29, "velocity": 120}, {"time": 249722, "pitch": 88, "duration": 30, "velocity": 120}, {"time": 249840, "pitch": 81, "duration": 30, "velocity": 120}, {"time": 249958, "pitch": 85, "duration": 29, "velocity": 120}, {"time": 250076, "pitch": 71, "duration": 30, "velocity": 120}, {"time": 250196, "pitch": 76, "duration": 30, "velocity": 120}, {"time": 250317, "pitch": 80, "duration": 30, "velocity": 120}, {"time": 250437, "pitch": 88, "duration": 30, "velocity": 120}, {"time": 250557, "pitch": 76, "duration": 30, "velocity": 120}, {"time": 250678, "pitch": 83, "duration": 30, "velocity": 120}, {"time": 250798, "pitch": 92, "duration": 30, "velocity": 120}, {"time": 250919, "pitch": 83, "duration": 30, "velocity": 120}, {"time": 251039, "pitch": 88, "duration": 30, "velocity": 120}, {"time": 251159, "pitch": 80, "duration": 30, "velocity": 120}, {"time": 251280, "pitch": 71, "duration": 30, "velocity": 120}, {"time": 251400, "pitch": 76, "duration": 30, "velocity": 120}, {"time": 251521, "pitch": 83, "duration": 30, "velocity": 120}, {"time": 251641, "pitch": 88, "duration": 30, "velocity": 120}, {"time": 251761, "pitch": 80, "duration": 30, "velocity": 120}, {"time": 251882, "pitch": 83, "duration": 30, "velocity": 120}, {"time": 252002, "pitch": 86, "duration": 30, "velocity": 120}, {"time": 252123, "pitch": 83, "duration": 30, "velocity": 120}, {"time": 252243, "pitch": 79, "duration": 30, "velocity": 120}, {"time": 252363, "pitch": 86, "duration": 30, "velocity": 120}, {"time": 252484, "pitch": 74, "duration": 29, "velocity": 120}, {"time": 252601, "pitch": 79, "duration": 30, "velocity": 120}, {"time": 252719, "pitch": 90, "duration": 30, "velocity": 120}, {"time": 252837, "pitch": 83, "duration": 30, "velocity": 120}, {"time": 252955, "pitch": 73, "duration": 30, "velocity": 120}, {"time": 253075, "pitch": 76, "duration": 30, "velocity": 120}, {"time": 253196, "pitch": 69, "duration": 30, "velocity": 120}, {"time": 253316, "pitch": 76, "duration": 30, "velocity": 120}, {"time": 253436, "pitch": 85, "duration": 31, "velocity": 120}, {"time": 253557, "pitch": 88, "duration": 30, "velocity": 120}, {"time": 253677, "pitch": 81, "duration": 30, "velocity": 120}, {"time": 253798, "pitch": 85, "duration": 30, "velocity": 120}, {"time": 253918, "pitch": 85, "duration": 30, "velocity": 120}, {"time": 254038, "pitch": 73, "duration": 31, "velocity": 120}, {"time": 254159, "pitch": 78, "duration": 30, "velocity": 120}, {"time": 254279, "pitch": 85, "duration": 30, "velocity": 120}, {"time": 254400, "pitch": 73, "duration": 30, "velocity": 120}, {"time": 254520, "pitch": 78, "duration": 30, "velocity": 120}, {"time": 254640, "pitch": 88, "duration": 31, "velocity": 120}, {"time": 254761, "pitch": 81, "duration": 30, "velocity": 120}, {"time": 254881, "pitch": 74, "duration": 30, "velocity": 120}, {"time": 255002, "pitch": 78, "duration": 30, "velocity": 120}, {"time": 255122, "pitch": 71, "duration": 30, "velocity": 120}, {"time": 255242, "pitch": 78, "duration": 30, "velocity": 120}, {"time": 255363, "pitch": 86, "duration": 30, "velocity": 120}, {"time": 255483, "pitch": 90, "duration": 30, "velocity": 120}, {"time": 255604, "pitch": 83, "duration": 30, "velocity": 120}, {"time": 255724, "pitch": 86, "duration": 30, "velocity": 120}, {"time": 255844, "pitch": 86, "duration": 30, "velocity": 120}, {"time": 255962, "pitch": 74, "duration": 30, "velocity": 120}, {"time": 256080, "pitch": 79, "duration": 29, "velocity": 120}, {"time": 256198, "pitch": 86, "duration": 29, "velocity": 120}, {"time": 256316, "pitch": 74, "duration": 30, "velocity": 120}, {"time": 256436, "pitch": 79, "duration": 30, "velocity": 120}, {"time": 256556, "pitch": 90, "duration": 30, "velocity": 120}, {"time": 256677, "pitch": 83, "duration": 30, "velocity": 120}, {"time": 256797, "pitch": 73, "duration": 30, "velocity": 120}, {"time": 256917, "pitch": 76, "duration": 31, "velocity": 120}, {"time": 257038, "pitch": 69, "duration": 30, "velocity": 120}, {"time": 257158, "pitch": 76, "duration": 30, "velocity": 120}, {"time": 257279, "pitch": 85, "duration": 30, "velocity": 120}, {"time": 257399, "pitch": 88, "duration": 30, "velocity": 120}, {"time": 257519, "pitch": 81, "duration": 31, "velocity": 120}, {"time": 257640, "pitch": 85, "duration": 30, "velocity": 120}, {"time": 257760, "pitch": 86, "duration": 30, "velocity": 120}, {"time": 257881, "pitch": 74, "duration": 30, "velocity": 120}, {"time": 258001, "pitch": 79, "duration": 30, "velocity": 120}, {"time": 258121, "pitch": 86, "duration": 31, "velocity": 120}, {"time": 258242, "pitch": 74, "duration": 30, "velocity": 120}, {"time": 258362, "pitch": 79, "duration": 30, "velocity": 120}, {"time": 258483, "pitch": 90, "duration": 30, "velocity": 120}, {"time": 258603, "pitch": 83, "duration": 30, "velocity": 120}, {"time": 258723, "pitch": 73, "duration": 31, "velocity": 120}, {"time": 258844, "pitch": 76, "duration": 30, "velocity": 120}, {"time": 258964, "pitch": 69, "duration": 30, "velocity": 120}, {"time": 259085, "pitch": 76, "duration": 30, "velocity": 120}, {"time": 259205, "pitch": 85, "duration": 29, "velocity": 120}, {"time": 259323, "pitch": 88, "duration": 29, "velocity": 120}, {"time": 259441, "pitch": 81, "duration": 29, "velocity": 120}, {"time": 259558, "pitch": 85, "duration": 30, "velocity": 120}, {"time": 259676, "pitch": 86, "duration": 30, "velocity": 120}, {"time": 259797, "pitch": 83, "duration": 30, "velocity": 120}, {"time": 259917, "pitch": 79, "duration": 30, "velocity": 120}, {"time": 260037, "pitch": 86, "duration": 30, "velocity": 120}, {"time": 260158, "pitch": 74, "duration": 30, "velocity": 120}, {"time": 260278, "pitch": 79, "duration": 30, "velocity": 120}, {"time": 260399, "pitch": 90, "duration": 30, "velocity": 120}, {"time": 260519, "pitch": 83, "duration": 30, "velocity": 120}, {"time": 260639, "pitch": 73, "duration": 30, "velocity": 120}, {"time": 260760, "pitch": 76, "duration": 30, "velocity": 120}, {"time": 260880, "pitch": 69, "duration": 30, "velocity": 120}, {"time": 261001, "pitch": 76, "duration": 30, "velocity": 120}, {"time": 261121, "pitch": 85, "duration": 30, "velocity": 120}, {"time": 261241, "pitch": 88, "duration": 30, "velocity": 120}, {"time": 261362, "pitch": 81, "duration": 30, "velocity": 120}, {"time": 261482, "pitch": 85, "duration": 30, "velocity": 120}, {"time": 261603, "pitch": 85, "duration": 30, "velocity": 120}, {"time": 261723, "pitch": 73, "duration": 30, "velocity": 120}, {"time": 261843, "pitch": 78, "duration": 30, "velocity": 120}, {"time": 261964, "pitch": 85, "duration": 30, "velocity": 120}, {"time": 262084, "pitch": 73, "duration": 29, "velocity": 120}, {"time": 262202, "pitch": 78, "duration": 29, "velocity": 120}, {"time": 262320, "pitch": 88, "duration": 29, "velocity": 120}, {"time": 262438, "pitch": 81, "duration": 29, "velocity": 120}, {"time": 262555, "pitch": 74, "duration": 30, "velocity": 120}, {"time": 262676, "pitch": 78, "duration": 30, "velocity": 120}, {"time": 262796, "pitch": 71, "duration": 30, "velocity": 120}, {"time": 262916, "pitch": 78, "duration": 31, "velocity": 120}, {"time": 263037, "pitch": 86, "duration": 30, "velocity": 120}, {"time": 263157, "pitch": 90, "duration": 30, "velocity": 120}, {"time": 263278, "pitch": 83, "duration": 30, "velocity": 120}, {"time": 263398, "pitch": 86, "duration": 30, "velocity": 120}, {"time": 263518, "pitch": 86, "duration": 31, "velocity": 120}, {"time": 263639, "pitch": 74, "duration": 30, "velocity": 120}, {"time": 263759, "pitch": 79, "duration": 30, "velocity": 120}, {"time": 263880, "pitch": 86, "duration": 30, "velocity": 120}, {"time": 264000, "pitch": 74, "duration": 30, "velocity": 120}, {"time": 264120, "pitch": 79, "duration": 31, "velocity": 120}, {"time": 264241, "pitch": 90, "duration": 30, "velocity": 120}, {"time": 264361, "pitch": 83, "duration": 30, "velocity": 120}, {"time": 264482, "pitch": 73, "duration": 30, "velocity": 120}, {"time": 264602, "pitch": 76, "duration": 30, "velocity": 120}, {"time": 264722, "pitch": 69, "duration": 30, "velocity": 120}, {"time": 264843, "pitch": 76, "duration": 30, "velocity": 120}, {"time": 264963, "pitch": 85, "duration": 30, "velocity": 120}, {"time": 265084, "pitch": 88, "duration": 30, "velocity": 120}, {"time": 265204, "pitch": 81, "duration": 30, "velocity": 120}, {"time": 265324, "pitch": 85, "duration": 30, "velocity": 120}, {"time": 265445, "pitch": 71, "duration": 29, "velocity": 120}, {"time": 265562, "pitch": 76, "duration": 30, "velocity": 120}, {"time": 265680, "pitch": 80, "duration": 30, "velocity": 120}, {"time": 265798, "pitch": 88, "duration": 30, "velocity": 120}, {"time": 265916, "pitch": 76, "duration": 30, "velocity": 120}, {"time": 266036, "pitch": 83, "duration": 30, "velocity": 120}, {"time": 266157, "pitch": 92, "duration": 30, "velocity": 120}, {"time": 266277, "pitch": 83, "duration": 30, "velocity": 120}, {"time": 266397, "pitch": 88, "duration": 31, "velocity": 120}, {"time": 266518, "pitch": 80, "duration": 30, "velocity": 120}, {"time": 266638, "pitch": 71, "duration": 30, "velocity": 120}, {"time": 266759, "pitch": 76, "duration": 30, "velocity": 120}, {"time": 266879, "pitch": 83, "duration": 30, "velocity": 120}, {"time": 266999, "pitch": 88, "duration": 31, "velocity": 120}, {"time": 267120, "pitch": 80, "duration": 30, "velocity": 120}, {"time": 267240, "pitch": 83, "duration": 30, "velocity": 120}, {"time": 267361, "pitch": 86, "duration": 30, "velocity": 120}, {"time": 267481, "pitch": 83, "duration": 30, "velocity": 120}, {"time": 267601, "pitch": 79, "duration": 31, "velocity": 120}, {"time": 267722, "pitch": 86, "duration": 30, "velocity": 120}, {"time": 267842, "pitch": 74, "duration": 30, "velocity": 120}, {"time": 267963, "pitch": 79, "duration": 30, "velocity": 120}, {"time": 268083, "pitch": 90, "duration": 30, "velocity": 120}, {"time": 268203, "pitch": 83, "duration": 31, "velocity": 120}, {"time": 268324, "pitch": 73, "duration": 29, "velocity": 120}, {"time": 268442, "pitch": 76, "duration": 29, "velocity": 120}, {"time": 268559, "pitch": 69, "duration": 30, "velocity": 120}, {"time": 268677, "pitch": 76, "duration": 30, "velocity": 120}, {"time": 268795, "pitch": 85, "duration": 30, "velocity": 120}, {"time": 268915, "pitch": 88, "duration": 30, "velocity": 120}, {"time": 269036, "pitch": 81, "duration": 30, "velocity": 120}, {"time": 269156, "pitch": 85, "duration": 30, "velocity": 120}, {"time": 269277, "pitch": 85, "duration": 30, "velocity": 120}, {"time": 269397, "pitch": 73, "duration": 30, "velocity": 120}, {"time": 269517, "pitch": 78, "duration": 30, "velocity": 120}, {"time": 269638, "pitch": 85, "duration": 30, "velocity": 120}, {"time": 269758, "pitch": 73, "duration": 30, "velocity": 120}, {"time": 269879, "pitch": 78, "duration": 30, "velocity": 120}, {"time": 269999, "pitch": 88, "duration": 30, "velocity": 120}, {"time": 270119, "pitch": 81, "duration": 30, "velocity": 120}, {"time": 270240, "pitch": 74, "duration": 30, "velocity": 120}, {"time": 270360, "pitch": 78, "duration": 30, "velocity": 120}, {"time": 270481, "pitch": 71, "duration": 30, "velocity": 120}, {"time": 270601, "pitch": 78, "duration": 30, "velocity": 120}, {"time": 270721, "pitch": 86, "duration": 30, "velocity": 120}, {"time": 270842, "pitch": 90, "duration": 30, "velocity": 120}, {"time": 270962, "pitch": 83, "duration": 30, "velocity": 120}, {"time": 271083, "pitch": 86, "duration": 30, "velocity": 120}, {"time": 271203, "pitch": 86, "duration": 30, "velocity": 120}, {"time": 271323, "pitch": 74, "duration": 30, "velocity": 120}, {"time": 271444, "pitch": 79, "duration": 30, "velocity": 120}, {"time": 271564, "pitch": 86, "duration": 30, "velocity": 120}, {"time": 271684, "pitch": 74, "duration": 30, "velocity": 120}, {"time": 271802, "pitch": 79, "duration": 30, "velocity": 120}, {"time": 271920, "pitch": 90, "duration": 30, "velocity": 120}, {"time": 272038, "pitch": 83, "duration": 29, "velocity": 120}, {"time": 272156, "pitch": 73, "duration": 30, "velocity": 120}, {"time": 272276, "pitch": 76, "duration": 30, "velocity": 120}, {"time": 272396, "pitch": 69, "duration": 31, "velocity": 120}, {"time": 272517, "pitch": 76, "duration": 30, "velocity": 120}, {"time": 272637, "pitch": 85, "duration": 30, "velocity": 120}, {"time": 272758, "pitch": 88, "duration": 30, "velocity": 120}, {"time": 272878, "pitch": 81, "duration": 30, "velocity": 120}, {"time": 272998, "pitch": 85, "duration": 31, "velocity": 120}, {"time": 273119, "pitch": 86, "duration": 30, "velocity": 120}, {"time": 273239, "pitch": 74, "duration": 30, "velocity": 120}, {"time": 273360, "pitch": 79, "duration": 30, "velocity": 120}, {"time": 273480, "pitch": 86, "duration": 30, "velocity": 120}, {"time": 273600, "pitch": 74, "duration": 31, "velocity": 120}, {"time": 273721, "pitch": 79, "duration": 30, "velocity": 120}, {"time": 273841, "pitch": 90, "duration": 30, "velocity": 120}, {"time": 273962, "pitch": 83, "duration": 30, "velocity": 120}, {"time": 274082, "pitch": 73, "duration": 30, "velocity": 120}, {"time": 274202, "pitch": 76, "duration": 30, "velocity": 120}, {"time": 274323, "pitch": 69, "duration": 30, "velocity": 120}, {"time": 274443, "pitch": 76, "duration": 30, "velocity": 120}, {"time": 274564, "pitch": 85, "duration": 30, "velocity": 120}, {"time": 274684, "pitch": 88, "duration": 30, "velocity": 120}, {"time": 274804, "pitch": 81, "duration": 30, "velocity": 120}, {"time": 274925, "pitch": 85, "duration": 30, "velocity": 120}, {"time": 275045, "pitch": 86, "duration": 30, "velocity": 120}, {"time": 275163, "pitch": 83, "duration": 29, "velocity": 120}, {"time": 275281, "pitch": 79, "duration": 29, "velocity": 120}, {"time": 275399, "pitch": 86, "duration": 29, "velocity": 120}, {"time": 275516, "pitch": 74, "duration": 30, "velocity": 120}, {"time": 275637, "pitch": 79, "duration": 30, "velocity": 120}, {"time": 275757, "pitch": 90, "duration": 30, "velocity": 120}, {"time": 275877, "pitch": 83, "duration": 31, "velocity": 120}, {"time": 275998, "pitch": 73, "duration": 30, "velocity": 120}, {"time": 276118, "pitch": 76, "duration": 30, "velocity": 120}, {"time": 276239, "pitch": 69, "duration": 30, "velocity": 120}, {"time": 276359, "pitch": 76, "duration": 30, "velocity": 120}, {"time": 276479, "pitch": 85, "duration": 31, "velocity": 120}, {"time": 276600, "pitch": 88, "duration": 30, "velocity": 120}, {"time": 276720, "pitch": 81, "duration": 30, "velocity": 120}, {"time": 276841, "pitch": 85, "duration": 30, "velocity": 120}, {"time": 276961, "pitch": 85, "duration": 30, "velocity": 120}, {"time": 277081, "pitch": 73, "duration": 31, "velocity": 120}, {"time": 277202, "pitch": 78, "duration": 30, "velocity": 120}, {"time": 277322, "pitch": 85, "duration": 30, "velocity": 120}, {"time": 277443, "pitch": 73, "duration": 30, "velocity": 120}, {"time": 277563, "pitch": 78, "duration": 30, "velocity": 120}, {"time": 277683, "pitch": 88, "duration": 31, "velocity": 120}, {"time": 277804, "pitch": 81, "duration": 30, "velocity": 120}, {"time": 277924, "pitch": 74, "duration": 30, "velocity": 120}, {"time": 278042, "pitch": 78, "duration": 29, "velocity": 120}, {"time": 278160, "pitch": 71, "duration": 29, "velocity": 120}, {"time": 278278, "pitch": 78, "duration": 29, "velocity": 120}, {"time": 278395, "pitch": 86, "duration": 30, "velocity": 120}, {"time": 278516, "pitch": 90, "duration": 30, "velocity": 120}, {"time": 278636, "pitch": 83, "duration": 30, "velocity": 120}, {"time": 278757, "pitch": 86, "duration": 30, "velocity": 120}, {"time": 278877, "pitch": 86, "duration": 30, "velocity": 120}, {"time": 278997, "pitch": 74, "duration": 30, "velocity": 120}, {"time": 279118, "pitch": 79, "duration": 30, "velocity": 120}, {"time": 279238, "pitch": 86, "duration": 30, "velocity": 120}, {"time": 279359, "pitch": 74, "duration": 30, "velocity": 120}, {"time": 279479, "pitch": 79, "duration": 30, "velocity": 120}, {"time": 279599, "pitch": 90, "duration": 30, "velocity": 120}, {"time": 279720, "pitch": 83, "duration": 30, "velocity": 120}, {"time": 279840, "pitch": 73, "duration": 30, "velocity": 120}, {"time": 279961, "pitch": 76, "duration": 30, "velocity": 120}, {"time": 280081, "pitch": 69, "duration": 30, "velocity": 120}, {"time": 280201, "pitch": 76, "duration": 30, "velocity": 120}, {"time": 280322, "pitch": 85, "duration": 30, "velocity": 120}, {"time": 280442, "pitch": 88, "duration": 30, "velocity": 120}, {"time": 280563, "pitch": 81, "duration": 30, "velocity": 120}, {"time": 280683, "pitch": 85, "duration": 30, "velocity": 120}, {"time": 280803, "pitch": 71, "duration": 30, "velocity": 120}, {"time": 280924, "pitch": 76, "duration": 30, "velocity": 120}, {"time": 281044, "pitch": 80, "duration": 30, "velocity": 120}, {"time": 281164, "pitch": 88, "duration": 31, "velocity": 120}, {"time": 281285, "pitch": 76, "duration": 29, "velocity": 120}, {"time": 281403, "pitch": 83, "duration": 29, "velocity": 120}, {"time": 281520, "pitch": 92, "duration": 30, "velocity": 120}, {"time": 281638, "pitch": 83, "duration": 30, "velocity": 120}, {"time": 281756, "pitch": 88, "duration": 30, "velocity": 120}, {"time": 281876, "pitch": 80, "duration": 31, "velocity": 120}, {"time": 281997, "pitch": 71, "duration": 30, "velocity": 120}, {"time": 282117, "pitch": 76, "duration": 30, "velocity": 120}, {"time": 282238, "pitch": 83, "duration": 30, "velocity": 120}, {"time": 282358, "pitch": 88, "duration": 30, "velocity": 120}, {"time": 282478, "pitch": 80, "duration": 31, "velocity": 120}, {"time": 282599, "pitch": 83, "duration": 30, "velocity": 120}, {"time": 282719, "pitch": 86, "duration": 30, "velocity": 120}, {"time": 282840, "pitch": 83, "duration": 30, "velocity": 120}, {"time": 282960, "pitch": 79, "duration": 30, "velocity": 120}, {"time": 283080, "pitch": 86, "duration": 31, "velocity": 120}, {"time": 283201, "pitch": 74, "duration": 30, "velocity": 120}, {"time": 283321, "pitch": 79, "duration": 30, "velocity": 120}, {"time": 283442, "pitch": 90, "duration": 30, "velocity": 120}, {"time": 283562, "pitch": 83, "duration": 30, "velocity": 120}, {"time": 283682, "pitch": 73, "duration": 30, "velocity": 120}, {"time": 283803, "pitch": 76, "duration": 30, "velocity": 120}, {"time": 283923, "pitch": 69, "duration": 30, "velocity": 120}, {"time": 284044, "pitch": 76, "duration": 30, "velocity": 120}, {"time": 284164, "pitch": 85, "duration": 29, "velocity": 120}, {"time": 284282, "pitch": 88, "duration": 29, "velocity": 120}, {"time": 284400, "pitch": 81, "duration": 29, "velocity": 120}, {"time": 284517, "pitch": 85, "duration": 30, "velocity": 120}, {"time": 284635, "pitch": 85, "duration": 30, "velocity": 120}, {"time": 284756, "pitch": 73, "duration": 30, "velocity": 120}, {"time": 284876, "pitch": 78, "duration": 30, "velocity": 120}, {"time": 284996, "pitch": 85, "duration": 30, "velocity": 120}, {"time": 285117, "pitch": 73, "duration": 30, "velocity": 120}, {"time": 285237, "pitch": 78, "duration": 30, "velocity": 120}, {"time": 285357, "pitch": 88, "duration": 31, "velocity": 120}, {"time": 285478, "pitch": 81, "duration": 30, "velocity": 120}, {"time": 285598, "pitch": 74, "duration": 30, "velocity": 120}, {"time": 285719, "pitch": 78, "duration": 30, "velocity": 120}, {"time": 285839, "pitch": 71, "duration": 30, "velocity": 120}, {"time": 285959, "pitch": 78, "duration": 31, "velocity": 120}, {"time": 286080, "pitch": 86, "duration": 30, "velocity": 120}, {"time": 286200, "pitch": 90, "duration": 30, "velocity": 120}, {"time": 286321, "pitch": 83, "duration": 30, "velocity": 120}, {"time": 286441, "pitch": 86, "duration": 30, "velocity": 120}, {"time": 286561, "pitch": 86, "duration": 31, "velocity": 120}, {"time": 286682, "pitch": 74, "duration": 30, "velocity": 120}, {"time": 286802, "pitch": 79, "duration": 30, "velocity": 120}, {"time": 286923, "pitch": 86, "duration": 30, "velocity": 120}, {"time": 287043, "pitch": 74, "duration": 30, "velocity": 120}, {"time": 287163, "pitch": 79, "duration": 31, "velocity": 120}, {"time": 287284, "pitch": 90, "duration": 30, "velocity": 120}, {"time": 287404, "pitch": 83, "duration": 30, "velocity": 120}, {"time": 287525, "pitch": 73, "duration": 29, "velocity": 120}, {"time": 287642, "pitch": 76, "duration": 30, "velocity": 120}, {"time": 287760, "pitch": 69, "duration": 30, "velocity": 120}, {"time": 287878, "pitch": 76, "duration": 29, "velocity": 120}, {"time": 287996, "pitch": 85, "duration": 30, "velocity": 120}, {"time": 288116, "pitch": 88, "duration": 30, "velocity": 120}, {"time": 288237, "pitch": 81, "duration": 30, "velocity": 120}, {"time": 288357, "pitch": 85, "duration": 30, "velocity": 120}, {"time": 288477, "pitch": 86, "duration": 30, "velocity": 120}, {"time": 288598, "pitch": 74, "duration": 30, "velocity": 120}, {"time": 288718, "pitch": 79, "duration": 30, "velocity": 120}, {"time": 288839, "pitch": 86, "duration": 30, "velocity": 120}, {"time": 288959, "pitch": 74, "duration": 30, "velocity": 120}, {"time": 289079, "pitch": 79, "duration": 30, "velocity": 120}, {"time": 289200, "pitch": 90, "duration": 30, "velocity": 120}, {"time": 289320, "pitch": 83, "duration": 30, "velocity": 120}, {"time": 289441, "pitch": 73, "duration": 30, "velocity": 120}, {"time": 289561, "pitch": 76, "duration": 30, "velocity": 120}, {"time": 289681, "pitch": 69, "duration": 30, "velocity": 120}, {"time": 289802, "pitch": 76, "duration": 30, "velocity": 120}, {"time": 289922, "pitch": 85, "duration": 30, "velocity": 120}, {"time": 290043, "pitch": 88, "duration": 30, "velocity": 120}, {"time": 290163, "pitch": 81, "duration": 30, "velocity": 120}, {"time": 290283, "pitch": 85, "duration": 30, "velocity": 120}, {"time": 290404, "pitch": 86, "duration": 29, "velocity": 120}, {"time": 290521, "pitch": 83, "duration": 30, "velocity": 120}, {"time": 290639, "pitch": 79, "duration": 30, "velocity": 120}, {"time": 290757, "pitch": 86, "duration": 30, "velocity": 120}, {"time": 290875, "pitch": 74, "duration": 30, "velocity": 120}, {"time": 290995, "pitch": 79, "duration": 30, "velocity": 120}, {"time": 291116, "pitch": 90, "duration": 30, "velocity": 120}, {"time": 291236, "pitch": 83, "duration": 30, "velocity": 120}, {"time": 291356, "pitch": 73, "duration": 31, "velocity": 120}, {"time": 291477, "pitch": 76, "duration": 30, "velocity": 120}, {"time": 291597, "pitch": 69, "duration": 30, "velocity": 120}, {"time": 291718, "pitch": 76, "duration": 30, "velocity": 120}, {"time": 291838, "pitch": 85, "duration": 30, "velocity": 120}, {"time": 291958, "pitch": 88, "duration": 31, "velocity": 120}, {"time": 292079, "pitch": 81, "duration": 30, "velocity": 120}, {"time": 292199, "pitch": 85, "duration": 30, "velocity": 120}, {"time": 292320, "pitch": 85, "duration": 30, "velocity": 120}, {"time": 292440, "pitch": 73, "duration": 30, "velocity": 120}, {"time": 292560, "pitch": 78, "duration": 31, "velocity": 120}, {"time": 292681, "pitch": 85, "duration": 30, "velocity": 120}, {"time": 292801, "pitch": 73, "duration": 30, "velocity": 120}, {"time": 292922, "pitch": 78, "duration": 30, "velocity": 120}, {"time": 293042, "pitch": 88, "duration": 30, "velocity": 120}, {"time": 293162, "pitch": 81, "duration": 30, "velocity": 120}, {"time": 293283, "pitch": 74, "duration": 30, "velocity": 120}, {"time": 293403, "pitch": 78, "duration": 30, "velocity": 120}, {"time": 293524, "pitch": 71, "duration": 30, "velocity": 120}, {"time": 293644, "pitch": 78, "duration": 30, "velocity": 120}, {"time": 293764, "pitch": 86, "duration": 30, "velocity": 120}, {"time": 293885, "pitch": 90, "duration": 30, "velocity": 120}, {"time": 294005, "pitch": 83, "duration": 30, "velocity": 120}, {"time": 294126, "pitch": 86, "duration": 30, "velocity": 120}, {"time": 294246, "pitch": 86, "duration": 30, "velocity": 120}, {"time": 294366, "pitch": 74, "duration": 30, "velocity": 120}, {"time": 294487, "pitch": 79, "duration": 30, "velocity": 120}, {"time": 294607, "pitch": 86, "duration": 30, "velocity": 120}, {"time": 294728, "pitch": 74, "duration": 30, "velocity": 120}, {"time": 294848, "pitch": 79, "duration": 30, "velocity": 120}, {"time": 294968, "pitch": 90, "duration": 30, "velocity": 120}, {"time": 295089, "pitch": 83, "duration": 30, "velocity": 120}, {"time": 295209, "pitch": 73, "duration": 30, "velocity": 120}, {"time": 295330, "pitch": 76, "duration": 30, "velocity": 120}, {"time": 295450, "pitch": 69, "duration": 30, "velocity": 120}, {"time": 295570, "pitch": 76, "duration": 30, "velocity": 120}, {"time": 295691, "pitch": 85, "duration": 30, "velocity": 120}, {"time": 295811, "pitch": 88, "duration": 30, "velocity": 120}, {"time": 295932, "pitch": 81, "duration": 30, "velocity": 120}, {"time": 296052, "pitch": 85, "duration": 30, "velocity": 120}, {"time": 296172, "pitch": 71, "duration": 30, "velocity": 120}, {"time": 296293, "pitch": 76, "duration": 30, "velocity": 120}, {"time": 296413, "pitch": 80, "duration": 30, "velocity": 120}, {"time": 296533, "pitch": 88, "duration": 31, "velocity": 120}, {"time": 296654, "pitch": 76, "duration": 30, "velocity": 120}, {"time": 296774, "pitch": 83, "duration": 30, "velocity": 120}, {"time": 296895, "pitch": 92, "duration": 30, "velocity": 120}, {"time": 297015, "pitch": 83, "duration": 30, "velocity": 120}, {"time": 297135, "pitch": 88, "duration": 31, "velocity": 120}, {"time": 297256, "pitch": 80, "duration": 30, "velocity": 120}, {"time": 297376, "pitch": 71, "duration": 30, "velocity": 120}, {"time": 297497, "pitch": 76, "duration": 30, "velocity": 120}, {"time": 297617, "pitch": 83, "duration": 30, "velocity": 120}, {"time": 297737, "pitch": 88, "duration": 31, "velocity": 120}, {"time": 297858, "pitch": 80, "duration": 30, "velocity": 120}, {"time": 297978, "pitch": 83, "duration": 30, "velocity": 120}, {"time": 15845, "pitch": 93, "duration": 69, "velocity": 100}, {"time": 15845, "pitch": 105, "duration": 69, "velocity": 120}, {"time": 16316, "pitch": 93, "duration": 70, "velocity": 100}, {"time": 16316, "pitch": 105, "duration": 70, "velocity": 120}, {"time": 16798, "pitch": 93, "duration": 70, "velocity": 100}, {"time": 16798, "pitch": 105, "duration": 70, "velocity": 120}, {"time": 17038, "pitch": 93, "duration": 71, "velocity": 100}, {"time": 17038, "pitch": 105, "duration": 71, "velocity": 120}, {"time": 17279, "pitch": 91, "duration": 70, "velocity": 100}, {"time": 17279, "pitch": 103, "duration": 70, "velocity": 120}, {"time": 17520, "pitch": 90, "duration": 70, "velocity": 100}, {"time": 17520, "pitch": 102, "duration": 70, "velocity": 120}, {"time": 17761, "pitch": 88, "duration": 70, "velocity": 100}, {"time": 17761, "pitch": 100, "duration": 70, "velocity": 120}, {"time": 18002, "pitch": 88, "duration": 70, "velocity": 100}, {"time": 18002, "pitch": 100, "duration": 70, "velocity": 120}, {"time": 18242, "pitch": 90, "duration": 71, "velocity": 100}, {"time": 18242, "pitch": 102, "duration": 71, "velocity": 120}, {"time": 18483, "pitch": 86, "duration": 70, "velocity": 100}, {"time": 18483, "pitch": 98, "duration": 70, "velocity": 120}, {"time": 23519, "pitch": 93, "duration": 70, "velocity": 100}, {"time": 23519, "pitch": 105, "duration": 70, "velocity": 120}, {"time": 24001, "pitch": 93, "duration": 70, "velocity": 100}, {"time": 24001, "pitch": 105, "duration": 70, "velocity": 120}, {"time": 24482, "pitch": 93, "duration": 70, "velocity": 100}, {"time": 24482, "pitch": 105, "duration": 70, "velocity": 120}, {"time": 24723, "pitch": 93, "duration": 70, "velocity": 100}, {"time": 24723, "pitch": 105, "duration": 70, "velocity": 120}, {"time": 24964, "pitch": 91, "duration": 68, "velocity": 100}, {"time": 24964, "pitch": 103, "duration": 68, "velocity": 120}, {"time": 25199, "pitch": 90, "duration": 69, "velocity": 100}, {"time": 25199, "pitch": 102, "duration": 69, "velocity": 120}, {"time": 25435, "pitch": 88, "duration": 70, "velocity": 100}, {"time": 25435, "pitch": 100, "duration": 70, "velocity": 120}, {"time": 25676, "pitch": 88, "duration": 70, "velocity": 100}, {"time": 25676, "pitch": 100, "duration": 70, "velocity": 120}, {"time": 25916, "pitch": 90, "duration": 71, "velocity": 100}, {"time": 25916, "pitch": 102, "duration": 71, "velocity": 120}, {"time": 26157, "pitch": 86, "duration": 70, "velocity": 100}, {"time": 26157, "pitch": 98, "duration": 70, "velocity": 120}, {"time": 94564, "pitch": 93, "duration": 69, "velocity": 100}, {"time": 94564, "pitch": 105, "duration": 69, "velocity": 120}, {"time": 95035, "pitch": 93, "duration": 70, "velocity": 100}, {"time": 95035, "pitch": 105, "duration": 70, "velocity": 120}, {"time": 95517, "pitch": 93, "duration": 70, "velocity": 100}, {"time": 95517, "pitch": 105, "duration": 70, "velocity": 120}, {"time": 95757, "pitch": 93, "duration": 71, "velocity": 100}, {"time": 95757, "pitch": 105, "duration": 71, "velocity": 120}, {"time": 95998, "pitch": 91, "duration": 71, "velocity": 100}, {"time": 95998, "pitch": 103, "duration": 71, "velocity": 120}, {"time": 96239, "pitch": 90, "duration": 70, "velocity": 100}, {"time": 96239, "pitch": 102, "duration": 70, "velocity": 120}, {"time": 96480, "pitch": 88, "duration": 70, "velocity": 100}, {"time": 96480, "pitch": 100, "duration": 70, "velocity": 120}, {"time": 96721, "pitch": 88, "duration": 70, "velocity": 100}, {"time": 96721, "pitch": 100, "duration": 70, "velocity": 120}, {"time": 96961, "pitch": 90, "duration": 71, "velocity": 100}, {"time": 96961, "pitch": 102, "duration": 71, "velocity": 120}, {"time": 97202, "pitch": 86, "duration": 70, "velocity": 100}, {"time": 97202, "pitch": 98, "duration": 70, "velocity": 120}, {"time": 102238, "pitch": 93, "duration": 70, "velocity": 100}, {"time": 102238, "pitch": 105, "duration": 70, "velocity": 120}, {"time": 102720, "pitch": 93, "duration": 70, "velocity": 100}, {"time": 102720, "pitch": 105, "duration": 70, "velocity": 120}, {"time": 103201, "pitch": 93, "duration": 70, "velocity": 100}, {"time": 103201, "pitch": 105, "duration": 70, "velocity": 120}, {"time": 103442, "pitch": 93, "duration": 70, "velocity": 100}, {"time": 103442, "pitch": 105, "duration": 70, "velocity": 120}, {"time": 103683, "pitch": 91, "duration": 70, "velocity": 100}, {"time": 103683, "pitch": 103, "duration": 70, "velocity": 120}, {"time": 103924, "pitch": 90, "duration": 70, "velocity": 100}, {"time": 103924, "pitch": 102, "duration": 70, "velocity": 120}, {"time": 104164, "pitch": 88, "duration": 69, "velocity": 100}, {"time": 104164, "pitch": 100, "duration": 69, "velocity": 120}, {"time": 104400, "pitch": 88, "duration": 69, "velocity": 100}, {"time": 104400, "pitch": 100, "duration": 69, "velocity": 120}, {"time": 104636, "pitch": 90, "duration": 70, "velocity": 100}, {"time": 104636, "pitch": 102, "duration": 70, "velocity": 120}, {"time": 104876, "pitch": 86, "duration": 71, "velocity": 100}, {"time": 104876, "pitch": 98, "duration": 71, "velocity": 120}, {"time": 157924, "pitch": 93, "duration": 69, "velocity": 100}, {"time": 157924, "pitch": 105, "duration": 69, "velocity": 120}, {"time": 158396, "pitch": 93, "duration": 70, "velocity": 100}, {"time": 158396, "pitch": 105, "duration": 70, "velocity": 120}, {"time": 158877, "pitch": 93, "duration": 70, "velocity": 100}, {"time": 158877, "pitch": 105, "duration": 70, "velocity": 120}, {"time": 159118, "pitch": 93, "duration": 70, "velocity": 100}, {"time": 159118, "pitch": 105, "duration": 70, "velocity": 120}, {"time": 159359, "pitch": 91, "duration": 70, "velocity": 100}, {"time": 159359, "pitch": 103, "duration": 70, "velocity": 120}, {"time": 159600, "pitch": 90, "duration": 70, "velocity": 100}, {"time": 159600, "pitch": 102, "duration": 70, "velocity": 120}, {"time": 159840, "pitch": 88, "duration": 71, "velocity": 100}, {"time": 159840, "pitch": 100, "duration": 71, "velocity": 120}, {"time": 160081, "pitch": 88, "duration": 70, "velocity": 100}, {"time": 160081, "pitch": 100, "duration": 70, "velocity": 120}, {"time": 160322, "pitch": 90, "duration": 70, "velocity": 100}, {"time": 160322, "pitch": 102, "duration": 70, "velocity": 120}, {"time": 160563, "pitch": 86, "duration": 70, "velocity": 100}, {"time": 160563, "pitch": 98, "duration": 70, "velocity": 120}, {"time": 165599, "pitch": 93, "duration": 70, "velocity": 100}, {"time": 165599, "pitch": 105, "duration": 70, "velocity": 120}, {"time": 166080, "pitch": 93, "duration": 70, "velocity": 100}, {"time": 166080, "pitch": 105, "duration": 70, "velocity": 120}, {"time": 166562, "pitch": 93, "duration": 70, "velocity": 100}, {"time": 166562, "pitch": 105, "duration": 70, "velocity": 120}, {"time": 166803, "pitch": 93, "duration": 70, "velocity": 100}, {"time": 166803, "pitch": 105, "duration": 70, "velocity": 120}, {"time": 167043, "pitch": 91, "duration": 71, "velocity": 100}, {"time": 167043, "pitch": 103, "duration": 71, "velocity": 120}, {"time": 167284, "pitch": 90, "duration": 70, "velocity": 100}, {"time": 167284, "pitch": 102, "duration": 70, "velocity": 120}, {"time": 167525, "pitch": 88, "duration": 69, "velocity": 100}, {"time": 167525, "pitch": 100, "duration": 69, "velocity": 120}, {"time": 167760, "pitch": 88, "duration": 69, "velocity": 100}, {"time": 167760, "pitch": 100, "duration": 69, "velocity": 120}, {"time": 167996, "pitch": 90, "duration": 70, "velocity": 100}, {"time": 167996, "pitch": 102, "duration": 70, "velocity": 120}, {"time": 168237, "pitch": 86, "duration": 70, "velocity": 100}, {"time": 168237, "pitch": 98, "duration": 70, "velocity": 120}, {"time": 173283, "pitch": 93, "duration": 70, "velocity": 100}, {"time": 173283, "pitch": 105, "duration": 70, "velocity": 120}, {"time": 173765, "pitch": 93, "duration": 68, "velocity": 100}, {"time": 173765, "pitch": 105, "duration": 68, "velocity": 120}, {"time": 174236, "pitch": 93, "duration": 70, "velocity": 100}, {"time": 174236, "pitch": 105, "duration": 70, "velocity": 120}, {"time": 174477, "pitch": 93, "duration": 70, "velocity": 100}, {"time": 174477, "pitch": 105, "duration": 70, "velocity": 120}, {"time": 174717, "pitch": 91, "duration": 71, "velocity": 100}, {"time": 174717, "pitch": 103, "duration": 71, "velocity": 120}, {"time": 174958, "pitch": 90, "duration": 70, "velocity": 100}, {"time": 174958, "pitch": 102, "duration": 70, "velocity": 120}, {"time": 175199, "pitch": 88, "duration": 70, "velocity": 100}, {"time": 175199, "pitch": 100, "duration": 70, "velocity": 120}, {"time": 175440, "pitch": 88, "duration": 70, "velocity": 100}, {"time": 175440, "pitch": 100, "duration": 70, "velocity": 120}, {"time": 175681, "pitch": 90, "duration": 70, "velocity": 100}, {"time": 175681, "pitch": 102, "duration": 70, "velocity": 120}, {"time": 175921, "pitch": 86, "duration": 71, "velocity": 100}, {"time": 175921, "pitch": 98, "duration": 71, "velocity": 120}, {"time": 180957, "pitch": 93, "duration": 70, "velocity": 100}, {"time": 180957, "pitch": 105, "duration": 70, "velocity": 120}, {"time": 181439, "pitch": 93, "duration": 70, "velocity": 100}, {"time": 181439, "pitch": 105, "duration": 70, "velocity": 120}, {"time": 181920, "pitch": 93, "duration": 71, "velocity": 100}, {"time": 181920, "pitch": 105, "duration": 71, "velocity": 120}, {"time": 182161, "pitch": 93, "duration": 70, "velocity": 100}, {"time": 182161, "pitch": 105, "duration": 70, "velocity": 120}, {"time": 182402, "pitch": 91, "duration": 70, "velocity": 100}, {"time": 182402, "pitch": 103, "duration": 70, "velocity": 120}, {"time": 182643, "pitch": 90, "duration": 70, "velocity": 100}, {"time": 182643, "pitch": 102, "duration": 70, "velocity": 120}, {"time": 182883, "pitch": 88, "duration": 71, "velocity": 100}, {"time": 182883, "pitch": 100, "duration": 71, "velocity": 120}, {"time": 183124, "pitch": 88, "duration": 70, "velocity": 100}, {"time": 183124, "pitch": 100, "duration": 70, "velocity": 120}, {"time": 183365, "pitch": 90, "duration": 69, "velocity": 100}, {"time": 183365, "pitch": 102, "duration": 69, "velocity": 120}, {"time": 183601, "pitch": 86, "duration": 68, "velocity": 100}, {"time": 183601, "pitch": 98, "duration": 68, "velocity": 120}, {"time": 236644, "pitch": 93, "duration": 70, "velocity": 100}, {"time": 236644, "pitch": 105, "duration": 70, "velocity": 120}, {"time": 237125, "pitch": 93, "duration": 69, "velocity": 100}, {"time": 237125, "pitch": 105, "duration": 69, "velocity": 120}, {"time": 237596, "pitch": 93, "duration": 71, "velocity": 100}, {"time": 237596, "pitch": 105, "duration": 71, "velocity": 120}, {"time": 237837, "pitch": 93, "duration": 70, "velocity": 100}, {"time": 237837, "pitch": 105, "duration": 70, "velocity": 120}, {"time": 238078, "pitch": 91, "duration": 70, "velocity": 100}, {"time": 238078, "pitch": 103, "duration": 70, "velocity": 120}, {"time": 238319, "pitch": 90, "duration": 70, "velocity": 100}, {"time": 238319, "pitch": 102, "duration": 70, "velocity": 120}, {"time": 238559, "pitch": 88, "duration": 71, "velocity": 100}, {"time": 238559, "pitch": 100, "duration": 71, "velocity": 120}, {"time": 238800, "pitch": 88, "duration": 71, "velocity": 100}, {"time": 238800, "pitch": 100, "duration": 71, "velocity": 120}, {"time": 239041, "pitch": 90, "duration": 70, "velocity": 100}, {"time": 239041, "pitch": 102, "duration": 70, "velocity": 120}, {"time": 239282, "pitch": 86, "duration": 70, "velocity": 100}, {"time": 239282, "pitch": 98, "duration": 70, "velocity": 120}, {"time": 244318, "pitch": 93, "duration": 70, "velocity": 100}, {"time": 244318, "pitch": 105, "duration": 70, "velocity": 120}, {"time": 244799, "pitch": 93, "duration": 70, "velocity": 100}, {"time": 244799, "pitch": 105, "duration": 70, "velocity": 120}, {"time": 245281, "pitch": 93, "duration": 70, "velocity": 100}, {"time": 245281, "pitch": 105, "duration": 70, "velocity": 120}, {"time": 245522, "pitch": 93, "duration": 70, "velocity": 100}, {"time": 245522, "pitch": 105, "duration": 70, "velocity": 120}, {"time": 245762, "pitch": 91, "duration": 71, "velocity": 100}, {"time": 245762, "pitch": 103, "duration": 71, "velocity": 120}, {"time": 246003, "pitch": 90, "duration": 70, "velocity": 100}, {"time": 246003, "pitch": 102, "duration": 70, "velocity": 120}, {"time": 246244, "pitch": 88, "duration": 69, "velocity": 100}, {"time": 246244, "pitch": 100, "duration": 69, "velocity": 120}, {"time": 246480, "pitch": 88, "duration": 68, "velocity": 100}, {"time": 246480, "pitch": 100, "duration": 68, "velocity": 120}, {"time": 246715, "pitch": 90, "duration": 70, "velocity": 100}, {"time": 246715, "pitch": 102, "duration": 70, "velocity": 120}, {"time": 246956, "pitch": 86, "duration": 70, "velocity": 100}, {"time": 246956, "pitch": 98, "duration": 70, "velocity": 120}, {"time": 252002, "pitch": 93, "duration": 70, "velocity": 100}, {"time": 252002, "pitch": 105, "duration": 70, "velocity": 120}, {"time": 252484, "pitch": 93, "duration": 68, "velocity": 100}, {"time": 252484, "pitch": 105, "duration": 68, "velocity": 120}, {"time": 252955, "pitch": 93, "duration": 70, "velocity": 100}, {"time": 252955, "pitch": 105, "duration": 70, "velocity": 120}, {"time": 253196, "pitch": 93, "duration": 70, "velocity": 100}, {"time": 253196, "pitch": 105, "duration": 70, "velocity": 120}, {"time": 253436, "pitch": 91, "duration": 71, "velocity": 100}, {"time": 253436, "pitch": 103, "duration": 71, "velocity": 120}, {"time": 253677, "pitch": 90, "duration": 70, "velocity": 100}, {"time": 253677, "pitch": 102, "duration": 70, "velocity": 120}, {"time": 253918, "pitch": 88, "duration": 70, "velocity": 100}, {"time": 253918, "pitch": 100, "duration": 70, "velocity": 120}, {"time": 254159, "pitch": 88, "duration": 70, "velocity": 100}, {"time": 254159, "pitch": 100, "duration": 70, "velocity": 120}, {"time": 254400, "pitch": 90, "duration": 70, "velocity": 100}, {"time": 254400, "pitch": 102, "duration": 70, "velocity": 120}, {"time": 254640, "pitch": 86, "duration": 71, "velocity": 100}, {"time": 254640, "pitch": 98, "duration": 71, "velocity": 120}, {"time": 259676, "pitch": 93, "duration": 70, "velocity": 100}, {"time": 259676, "pitch": 105, "duration": 70, "velocity": 120}, {"time": 260158, "pitch": 93, "duration": 70, "velocity": 100}, {"time": 260158, "pitch": 105, "duration": 70, "velocity": 120}, {"time": 260639, "pitch": 93, "duration": 71, "velocity": 100}, {"time": 260639, "pitch": 105, "duration": 71, "velocity": 120}, {"time": 260880, "pitch": 93, "duration": 70, "velocity": 100}, {"time": 260880, "pitch": 105, "duration": 70, "velocity": 120}, {"time": 261121, "pitch": 91, "duration": 70, "velocity": 100}, {"time": 261121, "pitch": 103, "duration": 70, "velocity": 120}, {"time": 261362, "pitch": 90, "duration": 70, "velocity": 100}, {"time": 261362, "pitch": 102, "duration": 70, "velocity": 120}, {"time": 261603, "pitch": 88, "duration": 70, "velocity": 100}, {"time": 261603, "pitch": 100, "duration": 70, "velocity": 120}, {"time": 261843, "pitch": 88, "duration": 71, "velocity": 100}, {"time": 261843, "pitch": 100, "duration": 71, "velocity": 120}, {"time": 262084, "pitch": 90, "duration": 69, "velocity": 100}, {"time": 262084, "pitch": 102, "duration": 69, "velocity": 120}, {"time": 262320, "pitch": 86, "duration": 68, "velocity": 100}, {"time": 262320, "pitch": 98, "duration": 68, "velocity": 120}, {"time": 267361, "pitch": 93, "duration": 70, "velocity": 100}, {"time": 267361, "pitch": 105, "duration": 70, "velocity": 120}, {"time": 267842, "pitch": 93, "duration": 70, "velocity": 100}, {"time": 267842, "pitch": 105, "duration": 70, "velocity": 120}, {"time": 268324, "pitch": 93, "duration": 68, "velocity": 100}, {"time": 268324, "pitch": 105, "duration": 68, "velocity": 120}, {"time": 268559, "pitch": 93, "duration": 69, "velocity": 100}, {"time": 268559, "pitch": 105, "duration": 69, "velocity": 120}, {"time": 268795, "pitch": 91, "duration": 70, "velocity": 100}, {"time": 268795, "pitch": 103, "duration": 70, "velocity": 120}, {"time": 269036, "pitch": 90, "duration": 70, "velocity": 100}, {"time": 269036, "pitch": 102, "duration": 70, "velocity": 120}, {"time": 269277, "pitch": 88, "duration": 70, "velocity": 100}, {"time": 269277, "pitch": 100, "duration": 70, "velocity": 120}, {"time": 269517, "pitch": 88, "duration": 71, "velocity": 100}, {"time": 269517, "pitch": 100, "duration": 71, "velocity": 120}, {"time": 269758, "pitch": 90, "duration": 70, "velocity": 100}, {"time": 269758, "pitch": 102, "duration": 70, "velocity": 120}, {"time": 269999, "pitch": 86, "duration": 70, "velocity": 100}, {"time": 269999, "pitch": 98, "duration": 70, "velocity": 120}, {"time": 275045, "pitch": 93, "duration": 69, "velocity": 100}, {"time": 275045, "pitch": 105, "duration": 69, "velocity": 120}, {"time": 275516, "pitch": 93, "duration": 71, "velocity": 100}, {"time": 275516, "pitch": 105, "duration": 71, "velocity": 120}, {"time": 275998, "pitch": 93, "duration": 70, "velocity": 100}, {"time": 275998, "pitch": 105, "duration": 70, "velocity": 120}, {"time": 276239, "pitch": 93, "duration": 70, "velocity": 100}, {"time": 276239, "pitch": 105, "duration": 70, "velocity": 120}, {"time": 276479, "pitch": 91, "duration": 71, "velocity": 100}, {"time": 276479, "pitch": 103, "duration": 71, "velocity": 120}, {"time": 276720, "pitch": 90, "duration": 71, "velocity": 100}, {"time": 276720, "pitch": 102, "duration": 71, "velocity": 120}, {"time": 276961, "pitch": 88, "duration": 70, "velocity": 100}, {"time": 276961, "pitch": 100, "duration": 70, "velocity": 120}, {"time": 277202, "pitch": 88, "duration": 70, "velocity": 100}, {"time": 277202, "pitch": 100, "duration": 70, "velocity": 120}, {"time": 277443, "pitch": 90, "duration": 70, "velocity": 100}, {"time": 277443, "pitch": 102, "duration": 70, "velocity": 120}, {"time": 277683, "pitch": 86, "duration": 71, "velocity": 100}, {"time": 277683, "pitch": 98, "duration": 71, "velocity": 120}, {"time": 282719, "pitch": 93, "duration": 70, "velocity": 100}, {"time": 282719, "pitch": 105, "duration": 70, "velocity": 120}, {"time": 283201, "pitch": 93, "duration": 70, "velocity": 100}, {"time": 283201, "pitch": 105, "duration": 70, "velocity": 120}, {"time": 283682, "pitch": 93, "duration": 71, "velocity": 100}, {"time": 283682, "pitch": 105, "duration": 71, "velocity": 120}, {"time": 283923, "pitch": 93, "duration": 70, "velocity": 100}, {"time": 283923, "pitch": 105, "duration": 70, "velocity": 120}, {"time": 284164, "pitch": 91, "duration": 69, "velocity": 100}, {"time": 284164, "pitch": 103, "duration": 69, "velocity": 120}, {"time": 284400, "pitch": 90, "duration": 68, "velocity": 100}, {"time": 284400, "pitch": 102, "duration": 68, "velocity": 120}, {"time": 284635, "pitch": 88, "duration": 70, "velocity": 100}, {"time": 284635, "pitch": 100, "duration": 70, "velocity": 120}, {"time": 284876, "pitch": 88, "duration": 70, "velocity": 100}, {"time": 284876, "pitch": 100, "duration": 70, "velocity": 120}, {"time": 285117, "pitch": 90, "duration": 70, "velocity": 100}, {"time": 285117, "pitch": 102, "duration": 70, "velocity": 120}, {"time": 285357, "pitch": 86, "duration": 71, "velocity": 100}, {"time": 285357, "pitch": 98, "duration": 71, "velocity": 120}, {"time": 290404, "pitch": 93, "duration": 68, "velocity": 100}, {"time": 290404, "pitch": 105, "duration": 68, "velocity": 120}, {"time": 290875, "pitch": 93, "duration": 70, "velocity": 100}, {"time": 290875, "pitch": 105, "duration": 70, "velocity": 120}, {"time": 291356, "pitch": 93, "duration": 71, "velocity": 100}, {"time": 291356, "pitch": 105, "duration": 71, "velocity": 120}, {"time": 291597, "pitch": 93, "duration": 70, "velocity": 100}, {"time": 291597, "pitch": 105, "duration": 70, "velocity": 120}, {"time": 291838, "pitch": 91, "duration": 70, "velocity": 100}, {"time": 291838, "pitch": 103, "duration": 70, "velocity": 120}, {"time": 292079, "pitch": 90, "duration": 70, "velocity": 100}, {"time": 292079, "pitch": 102, "duration": 70, "velocity": 120}, {"time": 292320, "pitch": 88, "duration": 70, "velocity": 100}, {"time": 292320, "pitch": 100, "duration": 70, "velocity": 120}, {"time": 292560, "pitch": 88, "duration": 71, "velocity": 100}, {"time": 292560, "pitch": 100, "duration": 71, "velocity": 120}, {"time": 292801, "pitch": 90, "duration": 70, "velocity": 100}, {"time": 292801, "pitch": 102, "duration": 70, "velocity": 120}, {"time": 293042, "pitch": 86, "duration": 70, "velocity": 100}, {"time": 293042, "pitch": 98, "duration": 70, "velocity": 120}, {"time": 12955, "pitch": 60, "duration": 964, "velocity": 125}, {"time": 13678, "pitch": 61, "duration": 2167, "velocity": 125}, {"time": 14400, "pitch": 60, "duration": 1445, "velocity": 125}, {"time": 93119, "pitch": 60, "duration": 1445, "velocity": 125}, {"time": 156480, "pitch": 60, "duration": 1444, "velocity": 125}, {"time": 170404, "pitch": 60, "duration": 953, "velocity": 125}, {"time": 171116, "pitch": 61, "duration": 2167, "velocity": 125}, {"time": 171838, "pitch": 60, "duration": 1445, "velocity": 125}, {"time": 218396, "pitch": 60, "duration": 963, "velocity": 125}, {"time": 219118, "pitch": 61, "duration": 2167, "velocity": 125}, {"time": 219840, "pitch": 60, "duration": 1445, "velocity": 125}, {"time": 233764, "pitch": 60, "duration": 953, "velocity": 125}, {"time": 234476, "pitch": 61, "duration": 2168, "velocity": 125}, {"time": 235199, "pitch": 60, "duration": 1445, "velocity": 125}, {"time": 249123, "pitch": 60, "duration": 953, "velocity": 125}, {"time": 249840, "pitch": 61, "duration": 2162, "velocity": 125}, {"time": 250557, "pitch": 60, "duration": 1445, "velocity": 125}, {"time": 264482, "pitch": 60, "duration": 963, "velocity": 125}, {"time": 265204, "pitch": 61, "duration": 2157, "velocity": 125}, {"time": 265916, "pitch": 60, "duration": 1445, "velocity": 125}, {"time": 279840, "pitch": 60, "duration": 963, "velocity": 125}, {"time": 280563, "pitch": 61, "duration": 2156, "velocity": 125}, {"time": 281285, "pitch": 60, "duration": 1434, "velocity": 125}, {"time": 717, "pitch": 69, "duration": 70, "velocity": 100}, {"time": 717, "pitch": 81, "duration": 70, "velocity": 105}, {"time": 957, "pitch": 71, "duration": 71, "velocity": 105}, {"time": 957, "pitch": 83, "duration": 71, "velocity": 110}, {"time": 1198, "pitch": 74, "duration": 71, "velocity": 100}, {"time": 1198, "pitch": 86, "duration": 71, "velocity": 105}, {"time": 1439, "pitch": 76, "duration": 351, "velocity": 105}, {"time": 1439, "pitch": 88, "duration": 351, "velocity": 110}, {"time": 1800, "pitch": 78, "duration": 111, "velocity": 95}, {"time": 1800, "pitch": 90, "duration": 111, "velocity": 100}, {"time": 2161, "pitch": 69, "duration": 71, "velocity": 100}, {"time": 2161, "pitch": 81, "duration": 71, "velocity": 105}, {"time": 2402, "pitch": 71, "duration": 70, "velocity": 105}, {"time": 2402, "pitch": 83, "duration": 70, "velocity": 110}, {"time": 2643, "pitch": 74, "duration": 70, "velocity": 100}, {"time": 2643, "pitch": 86, "duration": 70, "velocity": 105}, {"time": 2884, "pitch": 76, "duration": 343, "velocity": 105}, {"time": 2884, "pitch": 88, "duration": 343, "velocity": 110}, {"time": 3237, "pitch": 78, "duration": 108, "velocity": 100}, {"time": 3237, "pitch": 90, "duration": 108, "velocity": 105}, {"time": 4559, "pitch": 69, "duration": 70, "velocity": 100}, {"time": 4559, "pitch": 81, "duration": 70, "velocity": 105}, {"time": 4800, "pitch": 71, "duration": 70, "velocity": 105}, {"time": 4800, "pitch": 83, "duration": 70, "velocity": 110}, {"time": 5041, "pitch": 74, "duration": 70, "velocity": 100}, {"time": 5041, "pitch": 86, "duration": 70, "velocity": 105}, {"time": 5281, "pitch": 76, "duration": 351, "velocity": 105}, {"time": 5281, "pitch": 88, "duration": 351, "velocity": 110}, {"time": 5643, "pitch": 78, "duration": 110, "velocity": 95}, {"time": 5643, "pitch": 90, "duration": 110, "velocity": 100}, {"time": 6004, "pitch": 78, "duration": 70, "velocity": 100}, {"time": 6004, "pitch": 90, "duration": 70, "velocity": 105}, {"time": 6244, "pitch": 81, "duration": 226, "velocity": 105}, {"time": 6244, "pitch": 93, "duration": 226, "velocity": 110}, {"time": 6716, "pitch": 78, "duration": 230, "velocity": 100}, {"time": 6716, "pitch": 90, "duration": 230, "velocity": 105}, {"time": 7197, "pitch": 76, "duration": 231, "velocity": 105}, {"time": 7197, "pitch": 88, "duration": 231, "velocity": 110}, {"time": 7679, "pitch": 74, "duration": 231, "velocity": 100}, {"time": 7679, "pitch": 86, "duration": 231, "velocity": 105}, {"time": 8401, "pitch": 69, "duration": 70, "velocity": 100}, {"time": 8401, "pitch": 81, "duration": 70, "velocity": 105}, {"time": 8642, "pitch": 71, "duration": 70, "velocity": 105}, {"time": 8642, "pitch": 83, "duration": 70, "velocity": 110}, {"time": 8883, "pitch": 74, "duration": 70, "velocity": 100}, {"time": 8883, "pitch": 86, "duration": 70, "velocity": 105}, {"time": 9124, "pitch": 76, "duration": 351, "velocity": 105}, {"time": 9124, "pitch": 88, "duration": 351, "velocity": 110}, {"time": 9485, "pitch": 78, "duration": 110, "velocity": 95}, {"time": 9485, "pitch": 90, "duration": 110, "velocity": 100}, {"time": 9841, "pitch": 69, "duration": 68, "velocity": 100}, {"time": 9841, "pitch": 81, "duration": 68, "velocity": 105}, {"time": 10076, "pitch": 71, "duration": 71, "velocity": 105}, {"time": 10076, "pitch": 83, "duration": 71, "velocity": 110}, {"time": 10317, "pitch": 74, "duration": 70, "velocity": 100}, {"time": 10317, "pitch": 86, "duration": 70, "velocity": 105}, {"time": 10558, "pitch": 76, "duration": 351, "velocity": 105}, {"time": 10558, "pitch": 88, "duration": 351, "velocity": 110}, {"time": 10919, "pitch": 78, "duration": 110, "velocity": 100}, {"time": 10919, "pitch": 90, "duration": 110, "velocity": 105}, {"time": 12243, "pitch": 69, "duration": 71, "velocity": 100}, {"time": 12243, "pitch": 81, "duration": 71, "velocity": 105}, {"time": 12484, "pitch": 71, "duration": 69, "velocity": 105}, {"time": 12484, "pitch": 83, "duration": 69, "velocity": 110}, {"time": 12720, "pitch": 74, "duration": 69, "velocity": 100}, {"time": 12720, "pitch": 86, "duration": 69, "velocity": 105}, {"time": 12955, "pitch": 76, "duration": 352, "velocity": 105}, {"time": 12955, "pitch": 88, "duration": 352, "velocity": 110}, {"time": 13317, "pitch": 78, "duration": 110, "velocity": 95}, {"time": 13317, "pitch": 90, "duration": 110, "velocity": 100}, {"time": 13678, "pitch": 78, "duration": 231, "velocity": 100}, {"time": 13678, "pitch": 90, "duration": 231, "velocity": 105}, {"time": 13919, "pitch": 71, "duration": 351, "velocity": 105}, {"time": 13919, "pitch": 83, "duration": 351, "velocity": 110}, {"time": 14400, "pitch": 73, "duration": 351, "velocity": 100}, {"time": 14400, "pitch": 85, "duration": 351, "velocity": 105}, {"time": 14882, "pitch": 74, "duration": 351, "velocity": 105}, {"time": 14882, "pitch": 86, "duration": 351, "velocity": 110}, {"time": 15363, "pitch": 81, "duration": 351, "velocity": 100}, {"time": 15363, "pitch": 93, "duration": 351, "velocity": 105}, {"time": 16080, "pitch": 69, "duration": 69, "velocity": 100}, {"time": 16080, "pitch": 81, "duration": 69, "velocity": 105}, {"time": 16316, "pitch": 71, "duration": 70, "velocity": 105}, {"time": 16316, "pitch": 83, "duration": 70, "velocity": 110}, {"time": 16557, "pitch": 74, "duration": 70, "velocity": 100}, {"time": 16557, "pitch": 86, "duration": 70, "velocity": 105}, {"time": 16798, "pitch": 76, "duration": 351, "velocity": 105}, {"time": 16798, "pitch": 88, "duration": 351, "velocity": 110}, {"time": 17159, "pitch": 78, "duration": 110, "velocity": 95}, {"time": 17159, "pitch": 90, "duration": 110, "velocity": 100}, {"time": 17520, "pitch": 69, "duration": 70, "velocity": 100}, {"time": 17520, "pitch": 81, "duration": 70, "velocity": 105}, {"time": 17761, "pitch": 71, "duration": 70, "velocity": 105}, {"time": 17761, "pitch": 83, "duration": 70, "velocity": 110}, {"time": 18002, "pitch": 74, "duration": 70, "velocity": 100}, {"time": 18002, "pitch": 86, "duration": 70, "velocity": 105}, {"time": 18242, "pitch": 76, "duration": 352, "velocity": 105}, {"time": 18242, "pitch": 88, "duration": 352, "velocity": 110}, {"time": 18604, "pitch": 78, "duration": 110, "velocity": 100}, {"time": 18604, "pitch": 90, "duration": 110, "velocity": 105}, {"time": 19917, "pitch": 69, "duration": 71, "velocity": 100}, {"time": 19917, "pitch": 81, "duration": 71, "velocity": 105}, {"time": 20158, "pitch": 71, "duration": 71, "velocity": 105}, {"time": 20158, "pitch": 83, "duration": 71, "velocity": 110}, {"time": 20399, "pitch": 74, "duration": 70, "velocity": 100}, {"time": 20399, "pitch": 86, "duration": 70, "velocity": 105}, {"time": 20640, "pitch": 76, "duration": 351, "velocity": 105}, {"time": 20640, "pitch": 88, "duration": 351, "velocity": 110}, {"time": 21001, "pitch": 78, "duration": 110, "velocity": 95}, {"time": 21001, "pitch": 90, "duration": 110, "velocity": 100}, {"time": 21362, "pitch": 78, "duration": 70, "velocity": 100}, {"time": 21362, "pitch": 90, "duration": 70, "velocity": 105}, {"time": 21603, "pitch": 81, "duration": 231, "velocity": 105}, {"time": 21603, "pitch": 93, "duration": 231, "velocity": 110}, {"time": 22085, "pitch": 78, "duration": 225, "velocity": 100}, {"time": 22085, "pitch": 90, "duration": 225, "velocity": 105}, {"time": 22556, "pitch": 76, "duration": 231, "velocity": 105}, {"time": 22556, "pitch": 88, "duration": 231, "velocity": 110}, {"time": 23037, "pitch": 74, "duration": 231, "velocity": 100}, {"time": 23037, "pitch": 86, "duration": 231, "velocity": 105}, {"time": 23760, "pitch": 69, "duration": 70, "velocity": 100}, {"time": 23760, "pitch": 81, "duration": 70, "velocity": 105}, {"time": 24001, "pitch": 71, "duration": 70, "velocity": 105}, {"time": 24001, "pitch": 83, "duration": 70, "velocity": 110}, {"time": 24241, "pitch": 74, "duration": 71, "velocity": 100}, {"time": 24241, "pitch": 86, "duration": 71, "velocity": 105}, {"time": 24482, "pitch": 76, "duration": 351, "velocity": 105}, {"time": 24482, "pitch": 88, "duration": 351, "velocity": 110}, {"time": 24843, "pitch": 78, "duration": 111, "velocity": 95}, {"time": 24843, "pitch": 90, "duration": 111, "velocity": 100}, {"time": 25199, "pitch": 69, "duration": 69, "velocity": 100}, {"time": 25199, "pitch": 81, "duration": 69, "velocity": 105}, {"time": 25435, "pitch": 71, "duration": 70, "velocity": 105}, {"time": 25435, "pitch": 83, "duration": 70, "velocity": 110}, {"time": 25676, "pitch": 74, "duration": 70, "velocity": 100}, {"time": 25676, "pitch": 86, "duration": 70, "velocity": 105}, {"time": 25916, "pitch": 76, "duration": 352, "velocity": 105}, {"time": 25916, "pitch": 88, "duration": 352, "velocity": 110}, {"time": 26278, "pitch": 78, "duration": 110, "velocity": 100}, {"time": 26278, "pitch": 90, "duration": 110, "velocity": 105}, {"time": 27602, "pitch": 69, "duration": 70, "velocity": 100}, {"time": 27602, "pitch": 81, "duration": 70, "velocity": 105}, {"time": 27843, "pitch": 71, "duration": 70, "velocity": 105}, {"time": 27843, "pitch": 83, "duration": 70, "velocity": 110}, {"time": 28084, "pitch": 74, "duration": 70, "velocity": 100}, {"time": 28084, "pitch": 86, "duration": 70, "velocity": 105}, {"time": 28324, "pitch": 76, "duration": 344, "velocity": 105}, {"time": 28324, "pitch": 88, "duration": 344, "velocity": 110}, {"time": 28678, "pitch": 78, "duration": 108, "velocity": 95}, {"time": 28678, "pitch": 90, "duration": 108, "velocity": 100}, {"time": 29036, "pitch": 78, "duration": 231, "velocity": 100}, {"time": 29036, "pitch": 90, "duration": 231, "velocity": 105}, {"time": 29277, "pitch": 81, "duration": 712, "velocity": 105}, {"time": 29277, "pitch": 93, "duration": 712, "velocity": 110}, {"time": 29999, "pitch": 80, "duration": 111, "velocity": 100}, {"time": 29999, "pitch": 92, "duration": 111, "velocity": 105}, {"time": 30240, "pitch": 80, "duration": 713, "velocity": 105}, {"time": 30240, "pitch": 92, "duration": 713, "velocity": 110}, {"time": 31203, "pitch": 78, "duration": 708, "velocity": 105}, {"time": 31203, "pitch": 90, "duration": 708, "velocity": 110}, {"time": 31921, "pitch": 80, "duration": 108, "velocity": 100}, {"time": 31921, "pitch": 92, "duration": 108, "velocity": 105}, {"time": 32156, "pitch": 80, "duration": 713, "velocity": 105}, {"time": 32156, "pitch": 92, "duration": 713, "velocity": 110}, {"time": 92638, "pitch": 79, "duration": 230, "velocity": 105}, {"time": 92638, "pitch": 91, "duration": 230, "velocity": 110}, {"time": 92999, "pitch": 79, "duration": 231, "velocity": 105}, {"time": 92999, "pitch": 91, "duration": 231, "velocity": 110}, {"time": 93360, "pitch": 78, "duration": 110, "velocity": 100}, {"time": 93360, "pitch": 90, "duration": 110, "velocity": 105}, {"time": 93601, "pitch": 78, "duration": 231, "velocity": 105}, {"time": 93601, "pitch": 90, "duration": 231, "velocity": 110}, {"time": 94800, "pitch": 69, "duration": 68, "velocity": 100}, {"time": 94800, "pitch": 81, "duration": 68, "velocity": 105}, {"time": 95035, "pitch": 71, "duration": 70, "velocity": 105}, {"time": 95035, "pitch": 83, "duration": 70, "velocity": 110}, {"time": 95276, "pitch": 74, "duration": 70, "velocity": 100}, {"time": 95276, "pitch": 86, "duration": 70, "velocity": 105}, {"time": 95517, "pitch": 76, "duration": 351, "velocity": 105}, {"time": 95517, "pitch": 88, "duration": 351, "velocity": 110}, {"time": 95878, "pitch": 78, "duration": 110, "velocity": 95}, {"time": 95878, "pitch": 90, "duration": 110, "velocity": 100}, {"time": 96239, "pitch": 69, "duration": 70, "velocity": 100}, {"time": 96239, "pitch": 81, "duration": 70, "velocity": 105}, {"time": 96480, "pitch": 71, "duration": 70, "velocity": 105}, {"time": 96480, "pitch": 83, "duration": 70, "velocity": 110}, {"time": 96721, "pitch": 74, "duration": 70, "velocity": 100}, {"time": 96721, "pitch": 86, "duration": 70, "velocity": 105}, {"time": 96961, "pitch": 76, "duration": 352, "velocity": 105}, {"time": 96961, "pitch": 88, "duration": 352, "velocity": 110}, {"time": 97323, "pitch": 78, "duration": 110, "velocity": 100}, {"time": 97323, "pitch": 90, "duration": 110, "velocity": 105}, {"time": 98637, "pitch": 69, "duration": 70, "velocity": 100}, {"time": 98637, "pitch": 81, "duration": 70, "velocity": 105}, {"time": 98877, "pitch": 71, "duration": 71, "velocity": 105}, {"time": 98877, "pitch": 83, "duration": 71, "velocity": 110}, {"time": 99118, "pitch": 74, "duration": 70, "velocity": 100}, {"time": 99118, "pitch": 86, "duration": 70, "velocity": 105}, {"time": 99359, "pitch": 76, "duration": 351, "velocity": 105}, {"time": 99359, "pitch": 88, "duration": 351, "velocity": 110}, {"time": 99720, "pitch": 78, "duration": 110, "velocity": 95}, {"time": 99720, "pitch": 90, "duration": 110, "velocity": 100}, {"time": 100081, "pitch": 78, "duration": 71, "velocity": 100}, {"time": 100081, "pitch": 90, "duration": 71, "velocity": 105}, {"time": 100322, "pitch": 81, "duration": 231, "velocity": 105}, {"time": 100322, "pitch": 93, "duration": 231, "velocity": 110}, {"time": 100804, "pitch": 78, "duration": 225, "velocity": 100}, {"time": 100804, "pitch": 90, "duration": 225, "velocity": 105}, {"time": 101275, "pitch": 76, "duration": 231, "velocity": 105}, {"time": 101275, "pitch": 88, "duration": 231, "velocity": 110}, {"time": 101756, "pitch": 74, "duration": 231, "velocity": 100}, {"time": 101756, "pitch": 86, "duration": 231, "velocity": 105}, {"time": 102479, "pitch": 69, "duration": 70, "velocity": 100}, {"time": 102479, "pitch": 81, "duration": 70, "velocity": 105}, {"time": 102720, "pitch": 71, "duration": 70, "velocity": 105}, {"time": 102720, "pitch": 83, "duration": 70, "velocity": 110}, {"time": 102960, "pitch": 74, "duration": 71, "velocity": 100}, {"time": 102960, "pitch": 86, "duration": 71, "velocity": 105}, {"time": 103201, "pitch": 76, "duration": 351, "velocity": 105}, {"time": 103201, "pitch": 88, "duration": 351, "velocity": 110}, {"time": 103562, "pitch": 78, "duration": 111, "velocity": 95}, {"time": 103562, "pitch": 90, "duration": 111, "velocity": 100}, {"time": 103924, "pitch": 69, "duration": 70, "velocity": 100}, {"time": 103924, "pitch": 81, "duration": 70, "velocity": 105}, {"time": 104164, "pitch": 71, "duration": 69, "velocity": 105}, {"time": 104164, "pitch": 83, "duration": 69, "velocity": 110}, {"time": 104400, "pitch": 74, "duration": 69, "velocity": 100}, {"time": 104400, "pitch": 86, "duration": 69, "velocity": 105}, {"time": 104636, "pitch": 76, "duration": 351, "velocity": 105}, {"time": 104636, "pitch": 88, "duration": 351, "velocity": 110}, {"time": 104997, "pitch": 78, "duration": 110, "velocity": 100}, {"time": 104997, "pitch": 90, "duration": 110, "velocity": 105}, {"time": 106321, "pitch": 69, "duration": 70, "velocity": 100}, {"time": 106321, "pitch": 81, "duration": 70, "velocity": 105}, {"time": 106562, "pitch": 71, "duration": 70, "velocity": 105}, {"time": 106562, "pitch": 83, "duration": 70, "velocity": 110}, {"time": 106803, "pitch": 74, "duration": 70, "velocity": 100}, {"time": 106803, "pitch": 86, "duration": 70, "velocity": 105}, {"time": 107043, "pitch": 76, "duration": 352, "velocity": 105}, {"time": 107043, "pitch": 88, "duration": 352, "velocity": 110}, {"time": 107405, "pitch": 78, "duration": 110, "velocity": 95}, {"time": 107405, "pitch": 90, "duration": 110, "velocity": 100}, {"time": 107761, "pitch": 78, "duration": 225, "velocity": 100}, {"time": 107761, "pitch": 90, "duration": 225, "velocity": 105}, {"time": 107996, "pitch": 81, "duration": 713, "velocity": 105}, {"time": 107996, "pitch": 93, "duration": 713, "velocity": 110}, {"time": 108719, "pitch": 80, "duration": 110, "velocity": 100}, {"time": 108719, "pitch": 92, "duration": 110, "velocity": 105}, {"time": 108959, "pitch": 80, "duration": 713, "velocity": 105}, {"time": 108959, "pitch": 92, "duration": 713, "velocity": 110}, {"time": 109923, "pitch": 78, "duration": 707, "velocity": 105}, {"time": 109923, "pitch": 90, "duration": 707, "velocity": 110}, {"time": 110640, "pitch": 80, "duration": 108, "velocity": 100}, {"time": 110640, "pitch": 92, "duration": 108, "velocity": 105}, {"time": 110875, "pitch": 80, "duration": 713, "velocity": 105}, {"time": 110875, "pitch": 92, "duration": 713, "velocity": 110}, {"time": 155998, "pitch": 79, "duration": 231, "velocity": 105}, {"time": 155998, "pitch": 91, "duration": 231, "velocity": 110}, {"time": 156359, "pitch": 79, "duration": 231, "velocity": 105}, {"time": 156359, "pitch": 91, "duration": 231, "velocity": 110}, {"time": 156721, "pitch": 78, "duration": 110, "velocity": 100}, {"time": 156721, "pitch": 90, "duration": 110, "velocity": 105}, {"time": 156961, "pitch": 78, "duration": 231, "velocity": 105}, {"time": 156961, "pitch": 90, "duration": 231, "velocity": 110}, {"time": 158160, "pitch": 69, "duration": 69, "velocity": 100}, {"time": 158160, "pitch": 81, "duration": 69, "velocity": 105}, {"time": 158396, "pitch": 71, "duration": 70, "velocity": 105}, {"time": 158396, "pitch": 83, "duration": 70, "velocity": 110}, {"time": 158636, "pitch": 74, "duration": 71, "velocity": 100}, {"time": 158636, "pitch": 86, "duration": 71, "velocity": 105}, {"time": 158877, "pitch": 76, "duration": 351, "velocity": 105}, {"time": 158877, "pitch": 88, "duration": 351, "velocity": 110}, {"time": 159238, "pitch": 78, "duration": 111, "velocity": 95}, {"time": 159238, "pitch": 90, "duration": 111, "velocity": 100}, {"time": 159600, "pitch": 69, "duration": 70, "velocity": 100}, {"time": 159600, "pitch": 81, "duration": 70, "velocity": 105}, {"time": 159840, "pitch": 71, "duration": 71, "velocity": 105}, {"time": 159840, "pitch": 83, "duration": 71, "velocity": 110}, {"time": 160081, "pitch": 74, "duration": 70, "velocity": 100}, {"time": 160081, "pitch": 86, "duration": 70, "velocity": 105}, {"time": 160322, "pitch": 76, "duration": 351, "velocity": 105}, {"time": 160322, "pitch": 88, "duration": 351, "velocity": 110}, {"time": 160683, "pitch": 78, "duration": 111, "velocity": 100}, {"time": 160683, "pitch": 90, "duration": 111, "velocity": 105}, {"time": 161997, "pitch": 69, "duration": 70, "velocity": 100}, {"time": 161997, "pitch": 81, "duration": 70, "velocity": 105}, {"time": 162238, "pitch": 71, "duration": 70, "velocity": 105}, {"time": 162238, "pitch": 83, "duration": 70, "velocity": 110}, {"time": 162479, "pitch": 74, "duration": 70, "velocity": 100}, {"time": 162479, "pitch": 86, "duration": 70, "velocity": 105}, {"time": 162719, "pitch": 76, "duration": 352, "velocity": 105}, {"time": 162719, "pitch": 88, "duration": 352, "velocity": 110}, {"time": 163081, "pitch": 78, "duration": 110, "velocity": 95}, {"time": 163081, "pitch": 90, "duration": 110, "velocity": 100}, {"time": 163442, "pitch": 78, "duration": 70, "velocity": 100}, {"time": 163442, "pitch": 90, "duration": 70, "velocity": 105}, {"time": 163683, "pitch": 81, "duration": 230, "velocity": 105}, {"time": 163683, "pitch": 93, "duration": 230, "velocity": 110}, {"time": 164164, "pitch": 78, "duration": 226, "velocity": 100}, {"time": 164164, "pitch": 90, "duration": 226, "velocity": 105}, {"time": 164635, "pitch": 76, "duration": 231, "velocity": 105}, {"time": 164635, "pitch": 88, "duration": 231, "velocity": 110}, {"time": 165117, "pitch": 74, "duration": 231, "velocity": 100}, {"time": 165117, "pitch": 86, "duration": 231, "velocity": 105}, {"time": 165839, "pitch": 69, "duration": 71, "velocity": 100}, {"time": 165839, "pitch": 81, "duration": 71, "velocity": 105}, {"time": 166080, "pitch": 71, "duration": 70, "velocity": 105}, {"time": 166080, "pitch": 83, "duration": 70, "velocity": 110}, {"time": 166321, "pitch": 74, "duration": 70, "velocity": 100}, {"time": 166321, "pitch": 86, "duration": 70, "velocity": 105}, {"time": 166562, "pitch": 76, "duration": 351, "velocity": 105}, {"time": 166562, "pitch": 88, "duration": 351, "velocity": 110}, {"time": 166923, "pitch": 78, "duration": 110, "velocity": 95}, {"time": 166923, "pitch": 90, "duration": 110, "velocity": 100}, {"time": 167284, "pitch": 69, "duration": 70, "velocity": 100}, {"time": 167284, "pitch": 81, "duration": 70, "velocity": 105}, {"time": 167525, "pitch": 71, "duration": 69, "velocity": 105}, {"time": 167525, "pitch": 83, "duration": 69, "velocity": 110}, {"time": 167760, "pitch": 74, "duration": 69, "velocity": 100}, {"time": 167760, "pitch": 86, "duration": 69, "velocity": 105}, {"time": 167996, "pitch": 76, "duration": 351, "velocity": 105}, {"time": 167996, "pitch": 88, "duration": 351, "velocity": 110}, {"time": 168357, "pitch": 78, "duration": 111, "velocity": 100}, {"time": 168357, "pitch": 90, "duration": 111, "velocity": 105}, {"time": 169682, "pitch": 69, "duration": 70, "velocity": 100}, {"time": 169682, "pitch": 81, "duration": 70, "velocity": 105}, {"time": 169922, "pitch": 71, "duration": 71, "velocity": 105}, {"time": 169922, "pitch": 83, "duration": 71, "velocity": 110}, {"time": 170163, "pitch": 74, "duration": 70, "velocity": 100}, {"time": 170163, "pitch": 86, "duration": 70, "velocity": 105}, {"time": 170404, "pitch": 76, "duration": 344, "velocity": 105}, {"time": 170404, "pitch": 88, "duration": 344, "velocity": 110}, {"time": 170757, "pitch": 78, "duration": 108, "velocity": 95}, {"time": 170757, "pitch": 90, "duration": 108, "velocity": 100}, {"time": 171116, "pitch": 78, "duration": 231, "velocity": 100}, {"time": 171116, "pitch": 90, "duration": 231, "velocity": 105}, {"time": 171357, "pitch": 71, "duration": 351, "velocity": 105}, {"time": 171357, "pitch": 83, "duration": 351, "velocity": 110}, {"time": 171838, "pitch": 73, "duration": 351, "velocity": 100}, {"time": 171838, "pitch": 85, "duration": 351, "velocity": 105}, {"time": 172320, "pitch": 74, "duration": 351, "velocity": 105}, {"time": 172320, "pitch": 86, "duration": 351, "velocity": 110}, {"time": 172801, "pitch": 81, "duration": 352, "velocity": 100}, {"time": 172801, "pitch": 93, "duration": 352, "velocity": 105}, {"time": 173524, "pitch": 69, "duration": 70, "velocity": 100}, {"time": 173524, "pitch": 81, "duration": 70, "velocity": 105}, {"time": 173765, "pitch": 71, "duration": 68, "velocity": 105}, {"time": 173765, "pitch": 83, "duration": 68, "velocity": 110}, {"time": 174000, "pitch": 74, "duration": 69, "velocity": 100}, {"time": 174000, "pitch": 86, "duration": 69, "velocity": 105}, {"time": 174236, "pitch": 76, "duration": 351, "velocity": 105}, {"time": 174236, "pitch": 88, "duration": 351, "velocity": 110}, {"time": 174597, "pitch": 78, "duration": 110, "velocity": 95}, {"time": 174597, "pitch": 90, "duration": 110, "velocity": 100}, {"time": 174958, "pitch": 69, "duration": 70, "velocity": 100}, {"time": 174958, "pitch": 81, "duration": 70, "velocity": 105}, {"time": 175199, "pitch": 71, "duration": 70, "velocity": 105}, {"time": 175199, "pitch": 83, "duration": 70, "velocity": 110}, {"time": 175440, "pitch": 74, "duration": 70, "velocity": 100}, {"time": 175440, "pitch": 86, "duration": 70, "velocity": 105}, {"time": 175681, "pitch": 76, "duration": 351, "velocity": 105}, {"time": 175681, "pitch": 88, "duration": 351, "velocity": 110}, {"time": 176042, "pitch": 78, "duration": 110, "velocity": 100}, {"time": 176042, "pitch": 90, "duration": 110, "velocity": 105}, {"time": 177356, "pitch": 69, "duration": 70, "velocity": 100}, {"time": 177356, "pitch": 81, "duration": 70, "velocity": 105}, {"time": 177596, "pitch": 71, "duration": 71, "velocity": 105}, {"time": 177596, "pitch": 83, "duration": 71, "velocity": 110}, {"time": 177837, "pitch": 74, "duration": 70, "velocity": 100}, {"time": 177837, "pitch": 86, "duration": 70, "velocity": 105}, {"time": 178078, "pitch": 76, "duration": 351, "velocity": 105}, {"time": 178078, "pitch": 88, "duration": 351, "velocity": 110}, {"time": 178439, "pitch": 78, "duration": 111, "velocity": 95}, {"time": 178439, "pitch": 90, "duration": 111, "velocity": 100}, {"time": 178800, "pitch": 78, "duration": 71, "velocity": 100}, {"time": 178800, "pitch": 90, "duration": 71, "velocity": 105}, {"time": 179041, "pitch": 81, "duration": 231, "velocity": 105}, {"time": 179041, "pitch": 93, "duration": 231, "velocity": 110}, {"time": 179523, "pitch": 78, "duration": 231, "velocity": 100}, {"time": 179523, "pitch": 90, "duration": 231, "velocity": 105}, {"time": 180004, "pitch": 76, "duration": 226, "velocity": 105}, {"time": 180004, "pitch": 88, "duration": 226, "velocity": 110}, {"time": 180476, "pitch": 74, "duration": 230, "velocity": 100}, {"time": 180476, "pitch": 86, "duration": 230, "velocity": 105}, {"time": 181198, "pitch": 69, "duration": 70, "velocity": 100}, {"time": 181198, "pitch": 81, "duration": 70, "velocity": 105}, {"time": 181439, "pitch": 71, "duration": 70, "velocity": 105}, {"time": 181439, "pitch": 83, "duration": 70, "velocity": 110}, {"time": 181679, "pitch": 74, "duration": 71, "velocity": 100}, {"time": 181679, "pitch": 86, "duration": 71, "velocity": 105}, {"time": 181920, "pitch": 76, "duration": 351, "velocity": 105}, {"time": 181920, "pitch": 88, "duration": 351, "velocity": 110}, {"time": 182281, "pitch": 78, "duration": 111, "velocity": 95}, {"time": 182281, "pitch": 90, "duration": 111, "velocity": 100}, {"time": 182643, "pitch": 69, "duration": 70, "velocity": 100}, {"time": 182643, "pitch": 81, "duration": 70, "velocity": 105}, {"time": 182883, "pitch": 71, "duration": 71, "velocity": 105}, {"time": 182883, "pitch": 83, "duration": 71, "velocity": 110}, {"time": 183124, "pitch": 74, "duration": 70, "velocity": 100}, {"time": 183124, "pitch": 86, "duration": 70, "velocity": 105}, {"time": 183365, "pitch": 76, "duration": 344, "velocity": 105}, {"time": 183365, "pitch": 88, "duration": 344, "velocity": 110}, {"time": 183718, "pitch": 78, "duration": 108, "velocity": 100}, {"time": 183718, "pitch": 90, "duration": 108, "velocity": 105}, {"time": 185040, "pitch": 69, "duration": 70, "velocity": 100}, {"time": 185040, "pitch": 81, "duration": 70, "velocity": 105}, {"time": 185281, "pitch": 71, "duration": 70, "velocity": 105}, {"time": 185281, "pitch": 83, "duration": 70, "velocity": 110}, {"time": 185522, "pitch": 74, "duration": 70, "velocity": 100}, {"time": 185522, "pitch": 86, "duration": 70, "velocity": 105}, {"time": 185763, "pitch": 76, "duration": 351, "velocity": 105}, {"time": 185763, "pitch": 88, "duration": 351, "velocity": 110}, {"time": 186124, "pitch": 78, "duration": 110, "velocity": 95}, {"time": 186124, "pitch": 90, "duration": 110, "velocity": 100}, {"time": 186480, "pitch": 78, "duration": 226, "velocity": 100}, {"time": 186480, "pitch": 90, "duration": 226, "velocity": 105}, {"time": 186715, "pitch": 81, "duration": 713, "velocity": 105}, {"time": 186715, "pitch": 93, "duration": 713, "velocity": 110}, {"time": 187438, "pitch": 80, "duration": 110, "velocity": 100}, {"time": 187438, "pitch": 92, "duration": 110, "velocity": 105}, {"time": 187678, "pitch": 80, "duration": 713, "velocity": 105}, {"time": 187678, "pitch": 92, "duration": 713, "velocity": 110}, {"time": 188642, "pitch": 78, "duration": 712, "velocity": 105}, {"time": 188642, "pitch": 90, "duration": 712, "velocity": 110}, {"time": 189364, "pitch": 80, "duration": 110, "velocity": 100}, {"time": 189364, "pitch": 92, "duration": 110, "velocity": 105}, {"time": 189605, "pitch": 80, "duration": 702, "velocity": 105}, {"time": 189605, "pitch": 92, "duration": 702, "velocity": 110}, {"time": 221521, "pitch": 69, "duration": 68, "velocity": 100}, {"time": 221521, "pitch": 81, "duration": 68, "velocity": 105}, {"time": 221756, "pitch": 71, "duration": 70, "velocity": 105}, {"time": 221756, "pitch": 83, "duration": 70, "velocity": 110}, {"time": 221997, "pitch": 74, "duration": 70, "velocity": 100}, {"time": 221997, "pitch": 86, "duration": 70, "velocity": 105}, {"time": 222238, "pitch": 76, "duration": 351, "velocity": 105}, {"time": 222238, "pitch": 88, "duration": 351, "velocity": 110}, {"time": 222599, "pitch": 78, "duration": 110, "velocity": 95}, {"time": 222599, "pitch": 90, "duration": 110, "velocity": 100}, {"time": 222960, "pitch": 69, "duration": 70, "velocity": 100}, {"time": 222960, "pitch": 81, "duration": 70, "velocity": 105}, {"time": 223201, "pitch": 71, "duration": 70, "velocity": 105}, {"time": 223201, "pitch": 83, "duration": 70, "velocity": 110}, {"time": 223442, "pitch": 74, "duration": 70, "velocity": 100}, {"time": 223442, "pitch": 86, "duration": 70, "velocity": 105}, {"time": 223683, "pitch": 76, "duration": 351, "velocity": 105}, {"time": 223683, "pitch": 88, "duration": 351, "velocity": 110}, {"time": 224044, "pitch": 78, "duration": 110, "velocity": 100}, {"time": 224044, "pitch": 90, "duration": 110, "velocity": 105}, {"time": 225358, "pitch": 69, "duration": 70, "velocity": 100}, {"time": 225358, "pitch": 81, "duration": 70, "velocity": 105}, {"time": 225598, "pitch": 71, "duration": 71, "velocity": 105}, {"time": 225598, "pitch": 83, "duration": 71, "velocity": 110}, {"time": 225839, "pitch": 74, "duration": 70, "velocity": 100}, {"time": 225839, "pitch": 86, "duration": 70, "velocity": 105}, {"time": 226080, "pitch": 76, "duration": 351, "velocity": 105}, {"time": 226080, "pitch": 88, "duration": 351, "velocity": 110}, {"time": 226441, "pitch": 78, "duration": 111, "velocity": 95}, {"time": 226441, "pitch": 90, "duration": 111, "velocity": 100}, {"time": 226802, "pitch": 78, "duration": 71, "velocity": 100}, {"time": 226802, "pitch": 90, "duration": 71, "velocity": 105}, {"time": 227043, "pitch": 81, "duration": 231, "velocity": 105}, {"time": 227043, "pitch": 93, "duration": 231, "velocity": 110}, {"time": 227525, "pitch": 78, "duration": 226, "velocity": 100}, {"time": 227525, "pitch": 90, "duration": 226, "velocity": 105}, {"time": 227996, "pitch": 76, "duration": 231, "velocity": 105}, {"time": 227996, "pitch": 88, "duration": 231, "velocity": 110}, {"time": 228477, "pitch": 74, "duration": 231, "velocity": 100}, {"time": 228477, "pitch": 86, "duration": 231, "velocity": 105}, {"time": 229200, "pitch": 69, "duration": 70, "velocity": 100}, {"time": 229200, "pitch": 81, "duration": 70, "velocity": 105}, {"time": 229441, "pitch": 71, "duration": 70, "velocity": 105}, {"time": 229441, "pitch": 83, "duration": 70, "velocity": 110}, {"time": 229681, "pitch": 74, "duration": 71, "velocity": 100}, {"time": 229681, "pitch": 86, "duration": 71, "velocity": 105}, {"time": 229922, "pitch": 76, "duration": 351, "velocity": 105}, {"time": 229922, "pitch": 88, "duration": 351, "velocity": 110}, {"time": 230283, "pitch": 78, "duration": 111, "velocity": 95}, {"time": 230283, "pitch": 90, "duration": 111, "velocity": 100}, {"time": 230639, "pitch": 69, "duration": 69, "velocity": 100}, {"time": 230639, "pitch": 81, "duration": 69, "velocity": 105}, {"time": 230875, "pitch": 71, "duration": 70, "velocity": 105}, {"time": 230875, "pitch": 83, "duration": 70, "velocity": 110}, {"time": 231116, "pitch": 74, "duration": 70, "velocity": 100}, {"time": 231116, "pitch": 86, "duration": 70, "velocity": 105}, {"time": 231357, "pitch": 76, "duration": 351, "velocity": 105}, {"time": 231357, "pitch": 88, "duration": 351, "velocity": 110}, {"time": 231718, "pitch": 78, "duration": 110, "velocity": 100}, {"time": 231718, "pitch": 90, "duration": 110, "velocity": 105}, {"time": 233042, "pitch": 69, "duration": 70, "velocity": 100}, {"time": 233042, "pitch": 81, "duration": 70, "velocity": 105}, {"time": 233283, "pitch": 71, "duration": 70, "velocity": 105}, {"time": 233283, "pitch": 83, "duration": 70, "velocity": 110}, {"time": 233524, "pitch": 74, "duration": 70, "velocity": 100}, {"time": 233524, "pitch": 86, "duration": 70, "velocity": 105}, {"time": 233764, "pitch": 76, "duration": 344, "velocity": 105}, {"time": 233764, "pitch": 88, "duration": 344, "velocity": 110}, {"time": 234118, "pitch": 78, "duration": 108, "velocity": 95}, {"time": 234118, "pitch": 90, "duration": 108, "velocity": 100}, {"time": 234476, "pitch": 78, "duration": 231, "velocity": 100}, {"time": 234476, "pitch": 90, "duration": 231, "velocity": 105}, {"time": 234717, "pitch": 71, "duration": 351, "velocity": 105}, {"time": 234717, "pitch": 83, "duration": 351, "velocity": 110}, {"time": 235199, "pitch": 73, "duration": 351, "velocity": 100}, {"time": 235199, "pitch": 85, "duration": 351, "velocity": 105}, {"time": 235680, "pitch": 74, "duration": 352, "velocity": 105}, {"time": 235680, "pitch": 86, "duration": 352, "velocity": 110}, {"time": 236162, "pitch": 81, "duration": 351, "velocity": 100}, {"time": 236162, "pitch": 93, "duration": 351, "velocity": 105}, {"time": 236884, "pitch": 69, "duration": 71, "velocity": 100}, {"time": 236884, "pitch": 81, "duration": 71, "velocity": 105}, {"time": 237125, "pitch": 71, "duration": 69, "velocity": 105}, {"time": 237125, "pitch": 83, "duration": 69, "velocity": 110}, {"time": 237361, "pitch": 74, "duration": 68, "velocity": 100}, {"time": 237361, "pitch": 86, "duration": 68, "velocity": 105}, {"time": 237596, "pitch": 76, "duration": 351, "velocity": 105}, {"time": 237596, "pitch": 88, "duration": 351, "velocity": 110}, {"time": 237957, "pitch": 78, "duration": 111, "velocity": 95}, {"time": 237957, "pitch": 90, "duration": 111, "velocity": 100}, {"time": 238319, "pitch": 69, "duration": 70, "velocity": 100}, {"time": 238319, "pitch": 81, "duration": 70, "velocity": 105}, {"time": 238559, "pitch": 71, "duration": 71, "velocity": 105}, {"time": 238559, "pitch": 83, "duration": 71, "velocity": 110}, {"time": 238800, "pitch": 74, "duration": 71, "velocity": 100}, {"time": 238800, "pitch": 86, "duration": 71, "velocity": 105}, {"time": 239041, "pitch": 76, "duration": 351, "velocity": 105}, {"time": 239041, "pitch": 88, "duration": 351, "velocity": 110}, {"time": 239402, "pitch": 78, "duration": 111, "velocity": 100}, {"time": 239402, "pitch": 90, "duration": 111, "velocity": 105}, {"time": 240716, "pitch": 69, "duration": 70, "velocity": 100}, {"time": 240716, "pitch": 81, "duration": 70, "velocity": 105}, {"time": 240957, "pitch": 71, "duration": 70, "velocity": 105}, {"time": 240957, "pitch": 83, "duration": 70, "velocity": 110}, {"time": 241198, "pitch": 74, "duration": 70, "velocity": 100}, {"time": 241198, "pitch": 86, "duration": 70, "velocity": 105}, {"time": 241439, "pitch": 76, "duration": 351, "velocity": 105}, {"time": 241439, "pitch": 88, "duration": 351, "velocity": 110}, {"time": 241800, "pitch": 78, "duration": 110, "velocity": 95}, {"time": 241800, "pitch": 90, "duration": 110, "velocity": 100}, {"time": 242161, "pitch": 78, "duration": 70, "velocity": 100}, {"time": 242161, "pitch": 90, "duration": 70, "velocity": 105}, {"time": 242402, "pitch": 81, "duration": 230, "velocity": 105}, {"time": 242402, "pitch": 93, "duration": 230, "velocity": 110}, {"time": 242883, "pitch": 78, "duration": 231, "velocity": 100}, {"time": 242883, "pitch": 90, "duration": 231, "velocity": 105}, {"time": 243365, "pitch": 76, "duration": 226, "velocity": 105}, {"time": 243365, "pitch": 88, "duration": 226, "velocity": 110}, {"time": 243836, "pitch": 74, "duration": 231, "velocity": 100}, {"time": 243836, "pitch": 86, "duration": 231, "velocity": 105}, {"time": 244558, "pitch": 69, "duration": 71, "velocity": 100}, {"time": 244558, "pitch": 81, "duration": 71, "velocity": 105}, {"time": 244799, "pitch": 71, "duration": 70, "velocity": 105}, {"time": 244799, "pitch": 83, "duration": 70, "velocity": 110}, {"time": 245040, "pitch": 74, "duration": 70, "velocity": 100}, {"time": 245040, "pitch": 86, "duration": 70, "velocity": 105}, {"time": 245281, "pitch": 76, "duration": 351, "velocity": 105}, {"time": 245281, "pitch": 88, "duration": 351, "velocity": 110}, {"time": 245642, "pitch": 78, "duration": 110, "velocity": 95}, {"time": 245642, "pitch": 90, "duration": 110, "velocity": 100}, {"time": 246003, "pitch": 69, "duration": 70, "velocity": 100}, {"time": 246003, "pitch": 81, "duration": 70, "velocity": 105}, {"time": 246244, "pitch": 71, "duration": 69, "velocity": 105}, {"time": 246244, "pitch": 83, "duration": 69, "velocity": 110}, {"time": 246480, "pitch": 74, "duration": 68, "velocity": 100}, {"time": 246480, "pitch": 86, "duration": 68, "velocity": 105}, {"time": 246715, "pitch": 76, "duration": 351, "velocity": 105}, {"time": 246715, "pitch": 88, "duration": 351, "velocity": 110}, {"time": 247076, "pitch": 78, "duration": 111, "velocity": 100}, {"time": 247076, "pitch": 90, "duration": 111, "velocity": 105}, {"time": 248401, "pitch": 69, "duration": 70, "velocity": 100}, {"time": 248401, "pitch": 81, "duration": 70, "velocity": 105}, {"time": 248641, "pitch": 71, "duration": 71, "velocity": 105}, {"time": 248641, "pitch": 83, "duration": 71, "velocity": 110}, {"time": 248882, "pitch": 74, "duration": 70, "velocity": 100}, {"time": 248882, "pitch": 86, "duration": 70, "velocity": 105}, {"time": 249123, "pitch": 76, "duration": 351, "velocity": 105}, {"time": 249123, "pitch": 88, "duration": 351, "velocity": 110}, {"time": 249484, "pitch": 78, "duration": 111, "velocity": 95}, {"time": 249484, "pitch": 90, "duration": 111, "velocity": 100}, {"time": 249840, "pitch": 78, "duration": 226, "velocity": 100}, {"time": 249840, "pitch": 90, "duration": 226, "velocity": 105}, {"time": 250076, "pitch": 71, "duration": 351, "velocity": 105}, {"time": 250076, "pitch": 83, "duration": 351, "velocity": 110}, {"time": 250557, "pitch": 73, "duration": 352, "velocity": 100}, {"time": 250557, "pitch": 85, "duration": 352, "velocity": 105}, {"time": 251039, "pitch": 74, "duration": 351, "velocity": 105}, {"time": 251039, "pitch": 86, "duration": 351, "velocity": 110}, {"time": 251521, "pitch": 81, "duration": 351, "velocity": 100}, {"time": 251521, "pitch": 93, "duration": 351, "velocity": 105}, {"time": 252243, "pitch": 69, "duration": 70, "velocity": 100}, {"time": 252243, "pitch": 81, "duration": 70, "velocity": 105}, {"time": 252484, "pitch": 71, "duration": 68, "velocity": 105}, {"time": 252484, "pitch": 83, "duration": 68, "velocity": 110}, {"time": 252719, "pitch": 74, "duration": 69, "velocity": 100}, {"time": 252719, "pitch": 86, "duration": 69, "velocity": 105}, {"time": 252955, "pitch": 76, "duration": 351, "velocity": 105}, {"time": 252955, "pitch": 88, "duration": 351, "velocity": 110}, {"time": 253316, "pitch": 78, "duration": 110, "velocity": 95}, {"time": 253316, "pitch": 90, "duration": 110, "velocity": 100}, {"time": 253677, "pitch": 69, "duration": 70, "velocity": 100}, {"time": 253677, "pitch": 81, "duration": 70, "velocity": 105}, {"time": 253918, "pitch": 71, "duration": 70, "velocity": 105}, {"time": 253918, "pitch": 83, "duration": 70, "velocity": 110}, {"time": 254159, "pitch": 74, "duration": 70, "velocity": 100}, {"time": 254159, "pitch": 86, "duration": 70, "velocity": 105}, {"time": 254400, "pitch": 76, "duration": 351, "velocity": 105}, {"time": 254400, "pitch": 88, "duration": 351, "velocity": 110}, {"time": 254761, "pitch": 78, "duration": 110, "velocity": 100}, {"time": 254761, "pitch": 90, "duration": 110, "velocity": 105}, {"time": 256080, "pitch": 69, "duration": 69, "velocity": 100}, {"time": 256080, "pitch": 81, "duration": 69, "velocity": 105}, {"time": 256316, "pitch": 71, "duration": 70, "velocity": 105}, {"time": 256316, "pitch": 83, "duration": 70, "velocity": 110}, {"time": 256556, "pitch": 74, "duration": 71, "velocity": 100}, {"time": 256556, "pitch": 86, "duration": 71, "velocity": 105}, {"time": 256797, "pitch": 76, "duration": 351, "velocity": 105}, {"time": 256797, "pitch": 88, "duration": 351, "velocity": 110}, {"time": 257158, "pitch": 78, "duration": 111, "velocity": 95}, {"time": 257158, "pitch": 90, "duration": 111, "velocity": 100}, {"time": 257519, "pitch": 78, "duration": 71, "velocity": 100}, {"time": 257519, "pitch": 90, "duration": 71, "velocity": 105}, {"time": 257760, "pitch": 81, "duration": 231, "velocity": 105}, {"time": 257760, "pitch": 93, "duration": 231, "velocity": 110}, {"time": 258242, "pitch": 78, "duration": 231, "velocity": 100}, {"time": 258242, "pitch": 90, "duration": 231, "velocity": 105}, {"time": 258723, "pitch": 76, "duration": 231, "velocity": 105}, {"time": 258723, "pitch": 88, "duration": 231, "velocity": 110}, {"time": 259205, "pitch": 74, "duration": 226, "velocity": 100}, {"time": 259205, "pitch": 86, "duration": 226, "velocity": 105}, {"time": 259917, "pitch": 69, "duration": 70, "velocity": 100}, {"time": 259917, "pitch": 81, "duration": 70, "velocity": 105}, {"time": 260158, "pitch": 71, "duration": 70, "velocity": 105}, {"time": 260158, "pitch": 83, "duration": 70, "velocity": 110}, {"time": 260399, "pitch": 74, "duration": 70, "velocity": 100}, {"time": 260399, "pitch": 86, "duration": 70, "velocity": 105}, {"time": 260639, "pitch": 76, "duration": 352, "velocity": 105}, {"time": 260639, "pitch": 88, "duration": 352, "velocity": 110}, {"time": 261001, "pitch": 78, "duration": 110, "velocity": 95}, {"time": 261001, "pitch": 90, "duration": 110, "velocity": 100}, {"time": 261362, "pitch": 69, "duration": 70, "velocity": 100}, {"time": 261362, "pitch": 81, "duration": 70, "velocity": 105}, {"time": 261603, "pitch": 71, "duration": 70, "velocity": 105}, {"time": 261603, "pitch": 83, "duration": 70, "velocity": 110}, {"time": 261843, "pitch": 74, "duration": 71, "velocity": 100}, {"time": 261843, "pitch": 86, "duration": 71, "velocity": 105}, {"time": 262084, "pitch": 76, "duration": 344, "velocity": 105}, {"time": 262084, "pitch": 88, "duration": 344, "velocity": 110}, {"time": 262438, "pitch": 78, "duration": 108, "velocity": 100}, {"time": 262438, "pitch": 90, "duration": 108, "velocity": 105}, {"time": 263759, "pitch": 69, "duration": 70, "velocity": 100}, {"time": 263759, "pitch": 81, "duration": 70, "velocity": 105}, {"time": 264000, "pitch": 71, "duration": 70, "velocity": 105}, {"time": 264000, "pitch": 83, "duration": 70, "velocity": 110}, {"time": 264241, "pitch": 74, "duration": 70, "velocity": 100}, {"time": 264241, "pitch": 86, "duration": 70, "velocity": 105}, {"time": 264482, "pitch": 76, "duration": 351, "velocity": 105}, {"time": 264482, "pitch": 88, "duration": 351, "velocity": 110}, {"time": 264843, "pitch": 78, "duration": 110, "velocity": 95}, {"time": 264843, "pitch": 90, "duration": 110, "velocity": 100}, {"time": 265204, "pitch": 78, "duration": 231, "velocity": 100}, {"time": 265204, "pitch": 90, "duration": 231, "velocity": 105}, {"time": 265445, "pitch": 71, "duration": 343, "velocity": 105}, {"time": 265445, "pitch": 83, "duration": 343, "velocity": 110}, {"time": 265916, "pitch": 73, "duration": 351, "velocity": 100}, {"time": 265916, "pitch": 85, "duration": 351, "velocity": 105}, {"time": 266397, "pitch": 74, "duration": 352, "velocity": 105}, {"time": 266397, "pitch": 86, "duration": 352, "velocity": 110}, {"time": 266879, "pitch": 81, "duration": 351, "velocity": 100}, {"time": 266879, "pitch": 93, "duration": 351, "velocity": 105}, {"time": 267601, "pitch": 69, "duration": 71, "velocity": 100}, {"time": 267601, "pitch": 81, "duration": 71, "velocity": 105}, {"time": 267842, "pitch": 71, "duration": 70, "velocity": 105}, {"time": 267842, "pitch": 83, "duration": 70, "velocity": 110}, {"time": 268083, "pitch": 74, "duration": 70, "velocity": 100}, {"time": 268083, "pitch": 86, "duration": 70, "velocity": 105}, {"time": 268324, "pitch": 76, "duration": 343, "velocity": 105}, {"time": 268324, "pitch": 88, "duration": 343, "velocity": 110}, {"time": 268677, "pitch": 78, "duration": 108, "velocity": 95}, {"time": 268677, "pitch": 90, "duration": 108, "velocity": 100}, {"time": 269036, "pitch": 69, "duration": 70, "velocity": 100}, {"time": 269036, "pitch": 81, "duration": 70, "velocity": 105}, {"time": 269277, "pitch": 71, "duration": 70, "velocity": 105}, {"time": 269277, "pitch": 83, "duration": 70, "velocity": 110}, {"time": 269517, "pitch": 74, "duration": 71, "velocity": 100}, {"time": 269517, "pitch": 86, "duration": 71, "velocity": 105}, {"time": 269758, "pitch": 76, "duration": 351, "velocity": 105}, {"time": 269758, "pitch": 88, "duration": 351, "velocity": 110}, {"time": 270119, "pitch": 78, "duration": 111, "velocity": 100}, {"time": 270119, "pitch": 90, "duration": 111, "velocity": 105}, {"time": 271444, "pitch": 69, "duration": 70, "velocity": 100}, {"time": 271444, "pitch": 81, "duration": 70, "velocity": 105}, {"time": 271684, "pitch": 71, "duration": 69, "velocity": 105}, {"time": 271684, "pitch": 83, "duration": 69, "velocity": 110}, {"time": 271920, "pitch": 74, "duration": 69, "velocity": 100}, {"time": 271920, "pitch": 86, "duration": 69, "velocity": 105}, {"time": 272156, "pitch": 76, "duration": 351, "velocity": 105}, {"time": 272156, "pitch": 88, "duration": 351, "velocity": 110}, {"time": 272517, "pitch": 78, "duration": 110, "velocity": 95}, {"time": 272517, "pitch": 90, "duration": 110, "velocity": 100}, {"time": 272878, "pitch": 78, "duration": 70, "velocity": 100}, {"time": 272878, "pitch": 90, "duration": 70, "velocity": 105}, {"time": 273119, "pitch": 81, "duration": 231, "velocity": 105}, {"time": 273119, "pitch": 93, "duration": 231, "velocity": 110}, {"time": 273600, "pitch": 78, "duration": 231, "velocity": 100}, {"time": 273600, "pitch": 90, "duration": 231, "velocity": 105}, {"time": 274082, "pitch": 76, "duration": 231, "velocity": 105}, {"time": 274082, "pitch": 88, "duration": 231, "velocity": 110}, {"time": 274564, "pitch": 74, "duration": 230, "velocity": 100}, {"time": 274564, "pitch": 86, "duration": 230, "velocity": 105}, {"time": 275281, "pitch": 69, "duration": 68, "velocity": 100}, {"time": 275281, "pitch": 81, "duration": 68, "velocity": 105}, {"time": 275516, "pitch": 71, "duration": 71, "velocity": 105}, {"time": 275516, "pitch": 83, "duration": 71, "velocity": 110}, {"time": 275757, "pitch": 74, "duration": 70, "velocity": 100}, {"time": 275757, "pitch": 86, "duration": 70, "velocity": 105}, {"time": 275998, "pitch": 76, "duration": 351, "velocity": 105}, {"time": 275998, "pitch": 88, "duration": 351, "velocity": 110}, {"time": 276359, "pitch": 78, "duration": 110, "velocity": 95}, {"time": 276359, "pitch": 90, "duration": 110, "velocity": 100}, {"time": 276720, "pitch": 69, "duration": 71, "velocity": 100}, {"time": 276720, "pitch": 81, "duration": 71, "velocity": 105}, {"time": 276961, "pitch": 71, "duration": 70, "velocity": 105}, {"time": 276961, "pitch": 83, "duration": 70, "velocity": 110}, {"time": 277202, "pitch": 74, "duration": 70, "velocity": 100}, {"time": 277202, "pitch": 86, "duration": 70, "velocity": 105}, {"time": 277443, "pitch": 76, "duration": 351, "velocity": 105}, {"time": 277443, "pitch": 88, "duration": 351, "velocity": 110}, {"time": 277804, "pitch": 78, "duration": 110, "velocity": 100}, {"time": 277804, "pitch": 90, "duration": 110, "velocity": 105}, {"time": 279118, "pitch": 69, "duration": 70, "velocity": 100}, {"time": 279118, "pitch": 81, "duration": 70, "velocity": 105}, {"time": 279359, "pitch": 71, "duration": 70, "velocity": 105}, {"time": 279359, "pitch": 83, "duration": 70, "velocity": 110}, {"time": 279599, "pitch": 74, "duration": 71, "velocity": 100}, {"time": 279599, "pitch": 86, "duration": 71, "velocity": 105}, {"time": 279840, "pitch": 76, "duration": 351, "velocity": 105}, {"time": 279840, "pitch": 88, "duration": 351, "velocity": 110}, {"time": 280201, "pitch": 78, "duration": 111, "velocity": 95}, {"time": 280201, "pitch": 90, "duration": 111, "velocity": 100}, {"time": 280563, "pitch": 78, "duration": 230, "velocity": 100}, {"time": 280563, "pitch": 90, "duration": 230, "velocity": 105}, {"time": 280803, "pitch": 71, "duration": 351, "velocity": 105}, {"time": 280803, "pitch": 83, "duration": 351, "velocity": 110}, {"time": 281285, "pitch": 73, "duration": 343, "velocity": 100}, {"time": 281285, "pitch": 85, "duration": 343, "velocity": 105}, {"time": 281756, "pitch": 74, "duration": 351, "velocity": 105}, {"time": 281756, "pitch": 86, "duration": 351, "velocity": 110}, {"time": 282238, "pitch": 81, "duration": 351, "velocity": 100}, {"time": 282238, "pitch": 93, "duration": 351, "velocity": 105}, {"time": 282960, "pitch": 69, "duration": 70, "velocity": 100}, {"time": 282960, "pitch": 81, "duration": 70, "velocity": 105}, {"time": 283201, "pitch": 71, "duration": 70, "velocity": 105}, {"time": 283201, "pitch": 83, "duration": 70, "velocity": 110}, {"time": 283442, "pitch": 74, "duration": 70, "velocity": 100}, {"time": 283442, "pitch": 86, "duration": 70, "velocity": 105}, {"time": 283682, "pitch": 76, "duration": 352, "velocity": 105}, {"time": 283682, "pitch": 88, "duration": 352, "velocity": 110}, {"time": 284044, "pitch": 78, "duration": 110, "velocity": 95}, {"time": 284044, "pitch": 90, "duration": 110, "velocity": 100}, {"time": 284400, "pitch": 69, "duration": 68, "velocity": 100}, {"time": 284400, "pitch": 81, "duration": 68, "velocity": 105}, {"time": 284635, "pitch": 71, "duration": 70, "velocity": 105}, {"time": 284635, "pitch": 83, "duration": 70, "velocity": 110}, {"time": 284876, "pitch": 74, "duration": 70, "velocity": 100}, {"time": 284876, "pitch": 86, "duration": 70, "velocity": 105}, {"time": 285117, "pitch": 76, "duration": 351, "velocity": 105}, {"time": 285117, "pitch": 88, "duration": 351, "velocity": 110}, {"time": 285478, "pitch": 78, "duration": 110, "velocity": 100}, {"time": 285478, "pitch": 90, "duration": 110, "velocity": 105}, {"time": 286802, "pitch": 69, "duration": 70, "velocity": 100}, {"time": 286802, "pitch": 81, "duration": 70, "velocity": 105}, {"time": 287043, "pitch": 71, "duration": 70, "velocity": 105}, {"time": 287043, "pitch": 83, "duration": 70, "velocity": 110}, {"time": 287284, "pitch": 74, "duration": 70, "velocity": 100}, {"time": 287284, "pitch": 86, "duration": 70, "velocity": 105}, {"time": 287525, "pitch": 76, "duration": 343, "velocity": 105}, {"time": 287525, "pitch": 88, "duration": 343, "velocity": 110}, {"time": 287878, "pitch": 78, "duration": 108, "velocity": 95}, {"time": 287878, "pitch": 90, "duration": 108, "velocity": 100}, {"time": 288237, "pitch": 78, "duration": 70, "velocity": 100}, {"time": 288237, "pitch": 90, "duration": 70, "velocity": 105}, {"time": 288477, "pitch": 81, "duration": 231, "velocity": 105}, {"time": 288477, "pitch": 93, "duration": 231, "velocity": 110}, {"time": 288959, "pitch": 78, "duration": 231, "velocity": 100}, {"time": 288959, "pitch": 90, "duration": 231, "velocity": 105}, {"time": 289441, "pitch": 76, "duration": 230, "velocity": 105}, {"time": 289441, "pitch": 88, "duration": 230, "velocity": 110}, {"time": 289922, "pitch": 74, "duration": 231, "velocity": 100}, {"time": 289922, "pitch": 86, "duration": 231, "velocity": 105}, {"time": 290639, "pitch": 69, "duration": 69, "velocity": 100}, {"time": 290639, "pitch": 81, "duration": 69, "velocity": 105}, {"time": 290875, "pitch": 71, "duration": 70, "velocity": 105}, {"time": 290875, "pitch": 83, "duration": 70, "velocity": 110}, {"time": 291116, "pitch": 74, "duration": 70, "velocity": 100}, {"time": 291116, "pitch": 86, "duration": 70, "velocity": 105}, {"time": 291356, "pitch": 76, "duration": 352, "velocity": 105}, {"time": 291356, "pitch": 88, "duration": 352, "velocity": 110}, {"time": 291718, "pitch": 78, "duration": 110, "velocity": 95}, {"time": 291718, "pitch": 90, "duration": 110, "velocity": 100}, {"time": 292079, "pitch": 69, "duration": 70, "velocity": 100}, {"time": 292079, "pitch": 81, "duration": 70, "velocity": 105}, {"time": 292320, "pitch": 71, "duration": 70, "velocity": 105}, {"time": 292320, "pitch": 83, "duration": 70, "velocity": 110}, {"time": 292560, "pitch": 74, "duration": 71, "velocity": 100}, {"time": 292560, "pitch": 86, "duration": 71, "velocity": 105}, {"time": 292801, "pitch": 76, "duration": 351, "velocity": 105}, {"time": 292801, "pitch": 88, "duration": 351, "velocity": 110}, {"time": 293162, "pitch": 78, "duration": 111, "velocity": 100}, {"time": 293162, "pitch": 90, "duration": 111, "velocity": 105}, {"time": 294487, "pitch": 69, "duration": 70, "velocity": 100}, {"time": 294487, "pitch": 81, "duration": 70, "velocity": 105}, {"time": 294728, "pitch": 71, "duration": 70, "velocity": 105}, {"time": 294728, "pitch": 83, "duration": 70, "velocity": 110}, {"time": 294968, "pitch": 74, "duration": 71, "velocity": 100}, {"time": 294968, "pitch": 86, "duration": 71, "velocity": 105}, {"time": 295209, "pitch": 76, "duration": 351, "velocity": 105}, {"time": 295209, "pitch": 88, "duration": 351, "velocity": 110}, {"time": 295570, "pitch": 78, "duration": 111, "velocity": 95}, {"time": 295570, "pitch": 90, "duration": 111, "velocity": 100}, {"time": 295932, "pitch": 78, "duration": 230, "velocity": 100}, {"time": 295932, "pitch": 90, "duration": 230, "velocity": 105}, {"time": 296172, "pitch": 71, "duration": 351, "velocity": 105}, {"time": 296172, "pitch": 83, "duration": 351, "velocity": 110}, {"time": 296654, "pitch": 73, "duration": 351, "velocity": 100}, {"time": 296654, "pitch": 85, "duration": 351, "velocity": 105}, {"time": 297135, "pitch": 74, "duration": 352, "velocity": 105}, {"time": 297135, "pitch": 86, "duration": 352, "velocity": 110}, {"time": 297617, "pitch": 81, "duration": 351, "velocity": 100}, {"time": 297617, "pitch": 93, "duration": 351, "velocity": 105}, {"time": 7077, "pitch": 35, "duration": 10, "velocity": 105}, {"time": 7197, "pitch": 35, "duration": 10, "velocity": 120}, {"time": 7438, "pitch": 35, "duration": 10, "velocity": 105}, {"time": 7679, "pitch": 35, "duration": 10, "velocity": 120}, {"time": 7920, "pitch": 35, "duration": 10, "velocity": 120}, {"time": 8000, "pitch": 35, "duration": 10, "velocity": 120}, {"time": 8080, "pitch": 35, "duration": 10, "velocity": 120}, {"time": 8160, "pitch": 35, "duration": 10, "velocity": 120}, {"time": 8160, "pitch": 54, "duration": 10, "velocity": 75}, {"time": 8281, "pitch": 54, "duration": 10, "velocity": 45}, {"time": 8401, "pitch": 54, "duration": 10, "velocity": 105}, {"time": 8522, "pitch": 54, "duration": 10, "velocity": 45}, {"time": 8642, "pitch": 35, "duration": 10, "velocity": 120}, {"time": 8642, "pitch": 54, "duration": 10, "velocity": 75}, {"time": 8762, "pitch": 54, "duration": 10, "velocity": 45}, {"time": 8883, "pitch": 54, "duration": 10, "velocity": 105}, {"time": 9003, "pitch": 54, "duration": 10, "velocity": 45}, {"time": 9124, "pitch": 35, "duration": 10, "velocity": 120}, {"time": 9124, "pitch": 54, "duration": 10, "velocity": 75}, {"time": 9244, "pitch": 54, "duration": 10, "velocity": 45}, {"time": 9364, "pitch": 54, "duration": 10, "velocity": 105}, {"time": 9485, "pitch": 54, "duration": 10, "velocity": 45}, {"time": 9605, "pitch": 35, "duration": 10, "velocity": 120}, {"time": 9605, "pitch": 54, "duration": 10, "velocity": 75}, {"time": 9723, "pitch": 54, "duration": 10, "velocity": 45}, {"time": 9841, "pitch": 54, "duration": 10, "velocity": 105}, {"time": 9959, "pitch": 54, "duration": 9, "velocity": 45}, {"time": 10076, "pitch": 35, "duration": 10, "velocity": 120}, {"time": 10076, "pitch": 54, "duration": 10, "velocity": 75}, {"time": 10197, "pitch": 54, "duration": 10, "velocity": 45}, {"time": 10317, "pitch": 54, "duration": 10, "velocity": 105}, {"time": 10437, "pitch": 54, "duration": 11, "velocity": 45}, {"time": 10558, "pitch": 35, "duration": 10, "velocity": 120}, {"time": 10558, "pitch": 54, "duration": 10, "velocity": 75}, {"time": 10678, "pitch": 54, "duration": 10, "velocity": 45}, {"time": 10799, "pitch": 54, "duration": 10, "velocity": 105}, {"time": 10919, "pitch": 54, "duration": 10, "velocity": 45}, {"time": 11039, "pitch": 35, "duration": 11, "velocity": 120}, {"time": 11039, "pitch": 54, "duration": 11, "velocity": 75}, {"time": 11160, "pitch": 54, "duration": 10, "velocity": 45}, {"time": 11280, "pitch": 54, "duration": 10, "velocity": 105}, {"time": 11401, "pitch": 54, "duration": 10, "velocity": 45}, {"time": 11521, "pitch": 35, "duration": 10, "velocity": 120}, {"time": 11521, "pitch": 54, "duration": 10, "velocity": 75}, {"time": 11641, "pitch": 54, "duration": 10, "velocity": 45}, {"time": 11762, "pitch": 35, "duration": 10, "velocity": 120}, {"time": 11762, "pitch": 54, "duration": 10, "velocity": 105}, {"time": 11882, "pitch": 54, "duration": 10, "velocity": 45}, {"time": 12003, "pitch": 35, "duration": 10, "velocity": 120}, {"time": 12003, "pitch": 54, "duration": 10, "velocity": 75}, {"time": 12123, "pitch": 54, "duration": 10, "velocity": 45}, {"time": 12243, "pitch": 54, "duration": 10, "velocity": 105}, {"time": 12364, "pitch": 54, "duration": 10, "velocity": 45}, {"time": 12484, "pitch": 35, "duration": 10, "velocity": 120}, {"time": 12484, "pitch": 54, "duration": 10, "velocity": 75}, {"time": 12602, "pitch": 54, "duration": 10, "velocity": 45}, {"time": 12720, "pitch": 54, "duration": 10, "velocity": 105}, {"time": 12838, "pitch": 54, "duration": 9, "velocity": 45}, {"time": 12955, "pitch": 35, "duration": 10, "velocity": 120}, {"time": 12955, "pitch": 54, "duration": 10, "velocity": 75}, {"time": 13076, "pitch": 54, "duration": 10, "velocity": 45}, {"time": 13196, "pitch": 54, "duration": 10, "velocity": 105}, {"time": 13317, "pitch": 54, "duration": 10, "velocity": 45}, {"time": 13437, "pitch": 35, "duration": 10, "velocity": 120}, {"time": 13437, "pitch": 54, "duration": 10, "velocity": 75}, {"time": 13557, "pitch": 54, "duration": 10, "velocity": 45}, {"time": 13678, "pitch": 54, "duration": 10, "velocity": 105}, {"time": 13798, "pitch": 54, "duration": 10, "velocity": 45}, {"time": 13919, "pitch": 35, "duration": 10, "velocity": 120}, {"time": 13919, "pitch": 54, "duration": 10, "velocity": 75}, {"time": 14039, "pitch": 54, "duration": 10, "velocity": 45}, {"time": 14159, "pitch": 54, "duration": 10, "velocity": 105}, {"time": 14280, "pitch": 35, "duration": 10, "velocity": 105}, {"time": 14280, "pitch": 54, "duration": 10, "velocity": 45}, {"time": 14400, "pitch": 35, "duration": 10, "velocity": 120}, {"time": 14400, "pitch": 54, "duration": 10, "velocity": 75}, {"time": 14521, "pitch": 54, "duration": 10, "velocity": 45}, {"time": 14641, "pitch": 54, "duration": 10, "velocity": 105}, {"time": 14761, "pitch": 35, "duration": 10, "velocity": 105}, {"time": 14761, "pitch": 40, "duration": 10, "velocity": 110}, {"time": 14761, "pitch": 54, "duration": 10, "velocity": 45}, {"time": 14882, "pitch": 35, "duration": 10, "velocity": 120}, {"time": 14882, "pitch": 54, "duration": 10, "velocity": 75}, {"time": 15002, "pitch": 40, "duration": 10, "velocity": 110}, {"time": 15002, "pitch": 54, "duration": 10, "velocity": 45}, {"time": 15123, "pitch": 35, "duration": 10, "velocity": 105}, {"time": 15123, "pitch": 40, "duration": 10, "velocity": 110}, {"time": 15123, "pitch": 54, "duration": 10, "velocity": 105}, {"time": 15243, "pitch": 40, "duration": 10, "velocity": 110}, {"time": 15243, "pitch": 54, "duration": 10, "velocity": 45}, {"time": 15363, "pitch": 35, "duration": 10, "velocity": 120}, {"time": 15363, "pitch": 40, "duration": 10, "velocity": 110}, {"time": 15363, "pitch": 54, "duration": 10, "velocity": 75}, {"time": 15444, "pitch": 40, "duration": 10, "velocity": 110}, {"time": 15484, "pitch": 54, "duration": 10, "velocity": 45}, {"time": 15524, "pitch": 40, "duration": 10, "velocity": 110}, {"time": 15604, "pitch": 35, "duration": 10, "velocity": 105}, {"time": 15604, "pitch": 40, "duration": 10, "velocity": 110}, {"time": 15604, "pitch": 54, "duration": 10, "velocity": 105}, {"time": 15664, "pitch": 40, "duration": 10, "velocity": 110}, {"time": 15724, "pitch": 40, "duration": 11, "velocity": 110}, {"time": 15724, "pitch": 54, "duration": 11, "velocity": 45}, {"time": 15785, "pitch": 40, "duration": 10, "velocity": 110}, {"time": 15845, "pitch": 35, "duration": 10, "velocity": 120}, {"time": 15845, "pitch": 42, "duration": 10, "velocity": 80}, {"time": 15845, "pitch": 54, "duration": 10, "velocity": 75}, {"time": 15963, "pitch": 42, "duration": 9, "velocity": 60}, {"time": 15963, "pitch": 54, "duration": 9, "velocity": 45}, {"time": 16080, "pitch": 46, "duration": 10, "velocity": 75}, {"time": 16080, "pitch": 54, "duration": 10, "velocity": 105}, {"time": 16198, "pitch": 54, "duration": 10, "velocity": 45}, {"time": 16316, "pitch": 35, "duration": 10, "velocity": 120}, {"time": 16316, "pitch": 42, "duration": 10, "velocity": 80}, {"time": 16316, "pitch": 54, "duration": 10, "velocity": 75}, {"time": 16436, "pitch": 42, "duration": 10, "velocity": 60}, {"time": 16436, "pitch": 54, "duration": 10, "velocity": 45}, {"time": 16557, "pitch": 46, "duration": 10, "velocity": 75}, {"time": 16557, "pitch": 54, "duration": 10, "velocity": 105}, {"time": 16677, "pitch": 54, "duration": 10, "velocity": 45}, {"time": 16798, "pitch": 35, "duration": 10, "velocity": 120}, {"time": 16798, "pitch": 42, "duration": 10, "velocity": 80}, {"time": 16798, "pitch": 54, "duration": 10, "velocity": 75}, {"time": 16918, "pitch": 42, "duration": 10, "velocity": 60}, {"time": 16918, "pitch": 54, "duration": 10, "velocity": 45}, {"time": 17038, "pitch": 46, "duration": 10, "velocity": 75}, {"time": 17038, "pitch": 54, "duration": 10, "velocity": 105}, {"time": 17159, "pitch": 54, "duration": 10, "velocity": 45}, {"time": 17279, "pitch": 35, "duration": 10, "velocity": 120}, {"time": 17279, "pitch": 42, "duration": 10, "velocity": 80}, {"time": 17279, "pitch": 54, "duration": 10, "velocity": 75}, {"time": 17400, "pitch": 42, "duration": 10, "velocity": 60}, {"time": 17400, "pitch": 54, "duration": 10, "velocity": 45}, {"time": 17520, "pitch": 46, "duration": 10, "velocity": 75}, {"time": 17520, "pitch": 54, "duration": 10, "velocity": 105}, {"time": 17640, "pitch": 54, "duration": 10, "velocity": 45}, {"time": 17761, "pitch": 35, "duration": 10, "velocity": 120}, {"time": 17761, "pitch": 42, "duration": 10, "velocity": 80}, {"time": 17761, "pitch": 54, "duration": 10, "velocity": 75}, {"time": 17881, "pitch": 42, "duration": 10, "velocity": 60}, {"time": 17881, "pitch": 54, "duration": 10, "velocity": 45}, {"time": 18002, "pitch": 46, "duration": 10, "velocity": 75}, {"time": 18002, "pitch": 54, "duration": 10, "velocity": 105}, {"time": 18122, "pitch": 54, "duration": 10, "velocity": 45}, {"time": 18242, "pitch": 35, "duration": 10, "velocity": 120}, {"time": 18242, "pitch": 42, "duration": 10, "velocity": 80}, {"time": 18242, "pitch": 54, "duration": 10, "velocity": 75}, {"time": 18363, "pitch": 42, "duration": 10, "velocity": 60}, {"time": 18363, "pitch": 54, "duration": 10, "velocity": 45}, {"time": 18483, "pitch": 46, "duration": 10, "velocity": 75}, {"time": 18483, "pitch": 54, "duration": 10, "velocity": 105}, {"time": 18604, "pitch": 54, "duration": 10, "velocity": 45}, {"time": 18724, "pitch": 35, "duration": 10, "velocity": 120}, {"time": 18724, "pitch": 42, "duration": 10, "velocity": 80}, {"time": 18724, "pitch": 54, "duration": 10, "velocity": 75}, {"time": 18842, "pitch": 42, "duration": 10, "velocity": 60}, {"time": 18842, "pitch": 54, "duration": 10, "velocity": 45}, {"time": 18960, "pitch": 46, "duration": 9, "velocity": 75}, {"time": 18960, "pitch": 54, "duration": 9, "velocity": 105}, {"time": 19077, "pitch": 54, "duration": 10, "velocity": 45}, {"time": 19195, "pitch": 35, "duration": 10, "velocity": 120}, {"time": 19195, "pitch": 42, "duration": 10, "velocity": 80}, {"time": 19195, "pitch": 54, "duration": 10, "velocity": 75}, {"time": 19316, "pitch": 42, "duration": 10, "velocity": 60}, {"time": 19316, "pitch": 54, "duration": 10, "velocity": 45}, {"time": 19436, "pitch": 35, "duration": 10, "velocity": 105}, {"time": 19436, "pitch": 46, "duration": 10, "velocity": 75}, {"time": 19436, "pitch": 54, "duration": 10, "velocity": 105}, {"time": 19556, "pitch": 54, "duration": 10, "velocity": 45}, {"time": 19677, "pitch": 35, "duration": 10, "velocity": 120}, {"time": 19677, "pitch": 42, "duration": 10, "velocity": 80}, {"time": 19677, "pitch": 54, "duration": 10, "velocity": 75}, {"time": 19797, "pitch": 42, "duration": 10, "velocity": 60}, {"time": 19797, "pitch": 54, "duration": 10, "velocity": 45}, {"time": 19917, "pitch": 46, "duration": 11, "velocity": 75}, {"time": 19917, "pitch": 54, "duration": 11, "velocity": 105}, {"time": 20038, "pitch": 54, "duration": 10, "velocity": 45}, {"time": 20158, "pitch": 35, "duration": 10, "velocity": 120}, {"time": 20158, "pitch": 42, "duration": 10, "velocity": 80}, {"time": 20158, "pitch": 54, "duration": 10, "velocity": 75}, {"time": 20279, "pitch": 42, "duration": 10, "velocity": 60}, {"time": 20279, "pitch": 54, "duration": 10, "velocity": 45}, {"time": 20399, "pitch": 46, "duration": 10, "velocity": 75}, {"time": 20399, "pitch": 54, "duration": 10, "velocity": 105}, {"time": 20519, "pitch": 54, "duration": 11, "velocity": 45}, {"time": 20640, "pitch": 35, "duration": 10, "velocity": 120}, {"time": 20640, "pitch": 42, "duration": 10, "velocity": 80}, {"time": 20640, "pitch": 54, "duration": 10, "velocity": 75}, {"time": 20760, "pitch": 42, "duration": 10, "velocity": 60}, {"time": 20760, "pitch": 54, "duration": 10, "velocity": 45}, {"time": 20881, "pitch": 46, "duration": 10, "velocity": 75}, {"time": 20881, "pitch": 54, "duration": 10, "velocity": 105}, {"time": 21001, "pitch": 54, "duration": 10, "velocity": 45}, {"time": 21121, "pitch": 35, "duration": 10, "velocity": 120}, {"time": 21121, "pitch": 42, "duration": 10, "velocity": 80}, {"time": 21121, "pitch": 54, "duration": 10, "velocity": 75}, {"time": 21242, "pitch": 42, "duration": 10, "velocity": 60}, {"time": 21242, "pitch": 54, "duration": 10, "velocity": 45}, {"time": 21362, "pitch": 46, "duration": 10, "velocity": 75}, {"time": 21362, "pitch": 54, "duration": 10, "velocity": 105}, {"time": 21483, "pitch": 54, "duration": 10, "velocity": 45}, {"time": 21603, "pitch": 35, "duration": 10, "velocity": 120}, {"time": 21603, "pitch": 42, "duration": 10, "velocity": 80}, {"time": 21603, "pitch": 54, "duration": 10, "velocity": 75}, {"time": 21723, "pitch": 42, "duration": 10, "velocity": 60}, {"time": 21723, "pitch": 54, "duration": 10, "velocity": 45}, {"time": 21844, "pitch": 46, "duration": 10, "velocity": 75}, {"time": 21844, "pitch": 54, "duration": 10, "velocity": 105}, {"time": 21964, "pitch": 54, "duration": 10, "velocity": 45}, {"time": 22085, "pitch": 35, "duration": 9, "velocity": 120}, {"time": 22085, "pitch": 42, "duration": 9, "velocity": 80}, {"time": 22085, "pitch": 54, "duration": 9, "velocity": 75}, {"time": 22202, "pitch": 42, "duration": 10, "velocity": 60}, {"time": 22202, "pitch": 54, "duration": 10, "velocity": 45}, {"time": 22320, "pitch": 46, "duration": 10, "velocity": 75}, {"time": 22320, "pitch": 54, "duration": 10, "velocity": 105}, {"time": 22438, "pitch": 35, "duration": 10, "velocity": 105}, {"time": 22438, "pitch": 54, "duration": 10, "velocity": 45}, {"time": 22556, "pitch": 35, "duration": 10, "velocity": 120}, {"time": 22556, "pitch": 42, "duration": 10, "velocity": 80}, {"time": 22556, "pitch": 54, "duration": 10, "velocity": 75}, {"time": 22676, "pitch": 42, "duration": 10, "velocity": 60}, {"time": 22676, "pitch": 54, "duration": 10, "velocity": 45}, {"time": 22797, "pitch": 35, "duration": 10, "velocity": 105}, {"time": 22797, "pitch": 46, "duration": 10, "velocity": 75}, {"time": 22797, "pitch": 54, "duration": 10, "velocity": 105}, {"time": 22917, "pitch": 54, "duration": 10, "velocity": 45}, {"time": 23037, "pitch": 35, "duration": 10, "velocity": 120}, {"time": 23037, "pitch": 42, "duration": 10, "velocity": 80}, {"time": 23037, "pitch": 54, "duration": 10, "velocity": 75}, {"time": 23158, "pitch": 42, "duration": 10, "velocity": 60}, {"time": 23158, "pitch": 54, "duration": 10, "velocity": 45}, {"time": 23278, "pitch": 35, "duration": 10, "velocity": 105}, {"time": 23278, "pitch": 46, "duration": 10, "velocity": 75}, {"time": 23278, "pitch": 54, "duration": 10, "velocity": 105}, {"time": 23399, "pitch": 54, "duration": 10, "velocity": 45}, {"time": 23519, "pitch": 35, "duration": 10, "velocity": 120}, {"time": 23519, "pitch": 42, "duration": 10, "velocity": 80}, {"time": 23519, "pitch": 54, "duration": 10, "velocity": 75}, {"time": 23639, "pitch": 42, "duration": 10, "velocity": 60}, {"time": 23639, "pitch": 54, "duration": 10, "velocity": 45}, {"time": 23760, "pitch": 46, "duration": 10, "velocity": 75}, {"time": 23760, "pitch": 54, "duration": 10, "velocity": 105}, {"time": 23880, "pitch": 54, "duration": 10, "velocity": 45}, {"time": 24001, "pitch": 35, "duration": 10, "velocity": 120}, {"time": 24001, "pitch": 42, "duration": 10, "velocity": 80}, {"time": 24001, "pitch": 54, "duration": 10, "velocity": 75}, {"time": 24121, "pitch": 42, "duration": 10, "velocity": 60}, {"time": 24121, "pitch": 54, "duration": 10, "velocity": 45}, {"time": 24241, "pitch": 46, "duration": 10, "velocity": 75}, {"time": 24241, "pitch": 54, "duration": 10, "velocity": 105}, {"time": 24362, "pitch": 54, "duration": 10, "velocity": 45}, {"time": 24482, "pitch": 35, "duration": 10, "velocity": 120}, {"time": 24482, "pitch": 42, "duration": 10, "velocity": 80}, {"time": 24482, "pitch": 54, "duration": 10, "velocity": 75}, {"time": 24603, "pitch": 42, "duration": 10, "velocity": 60}, {"time": 24603, "pitch": 54, "duration": 10, "velocity": 45}, {"time": 24723, "pitch": 46, "duration": 10, "velocity": 75}, {"time": 24723, "pitch": 54, "duration": 10, "velocity": 105}, {"time": 24843, "pitch": 54, "duration": 10, "velocity": 45}, {"time": 24964, "pitch": 35, "duration": 9, "velocity": 120}, {"time": 24964, "pitch": 42, "duration": 9, "velocity": 80}, {"time": 24964, "pitch": 54, "duration": 9, "velocity": 75}, {"time": 25081, "pitch": 42, "duration": 10, "velocity": 60}, {"time": 25081, "pitch": 54, "duration": 10, "velocity": 45}, {"time": 25199, "pitch": 46, "duration": 10, "velocity": 75}, {"time": 25199, "pitch": 54, "duration": 10, "velocity": 105}, {"time": 25317, "pitch": 54, "duration": 10, "velocity": 45}, {"time": 25435, "pitch": 35, "duration": 10, "velocity": 120}, {"time": 25435, "pitch": 42, "duration": 10, "velocity": 80}, {"time": 25435, "pitch": 54, "duration": 10, "velocity": 75}, {"time": 25555, "pitch": 42, "duration": 10, "velocity": 60}, {"time": 25555, "pitch": 54, "duration": 10, "velocity": 45}, {"time": 25676, "pitch": 46, "duration": 10, "velocity": 75}, {"time": 25676, "pitch": 54, "duration": 10, "velocity": 105}, {"time": 25796, "pitch": 54, "duration": 10, "velocity": 45}, {"time": 25916, "pitch": 35, "duration": 10, "velocity": 120}, {"time": 25916, "pitch": 42, "duration": 10, "velocity": 80}, {"time": 25916, "pitch": 54, "duration": 10, "velocity": 75}, {"time": 26037, "pitch": 42, "duration": 10, "velocity": 60}, {"time": 26037, "pitch": 54, "duration": 10, "velocity": 45}, {"time": 26157, "pitch": 46, "duration": 10, "velocity": 75}, {"time": 26157, "pitch": 54, "duration": 10, "velocity": 105}, {"time": 26278, "pitch": 54, "duration": 10, "velocity": 45}, {"time": 26398, "pitch": 35, "duration": 10, "velocity": 120}, {"time": 26398, "pitch": 42, "duration": 10, "velocity": 80}, {"time": 26398, "pitch": 54, "duration": 10, "velocity": 75}, {"time": 26518, "pitch": 42, "duration": 10, "velocity": 60}, {"time": 26518, "pitch": 54, "duration": 10, "velocity": 45}, {"time": 26639, "pitch": 46, "duration": 10, "velocity": 75}, {"time": 26639, "pitch": 54, "duration": 10, "velocity": 105}, {"time": 26759, "pitch": 54, "duration": 10, "velocity": 45}, {"time": 26880, "pitch": 35, "duration": 10, "velocity": 120}, {"time": 26880, "pitch": 42, "duration": 10, "velocity": 80}, {"time": 26880, "pitch": 54, "duration": 10, "velocity": 75}, {"time": 27000, "pitch": 42, "duration": 10, "velocity": 60}, {"time": 27000, "pitch": 54, "duration": 10, "velocity": 45}, {"time": 27120, "pitch": 35, "duration": 10, "velocity": 105}, {"time": 27120, "pitch": 46, "duration": 10, "velocity": 75}, {"time": 27120, "pitch": 54, "duration": 10, "velocity": 105}, {"time": 27241, "pitch": 54, "duration": 10, "velocity": 45}, {"time": 27361, "pitch": 35, "duration": 10, "velocity": 120}, {"time": 27361, "pitch": 42, "duration": 10, "velocity": 80}, {"time": 27361, "pitch": 54, "duration": 10, "velocity": 75}, {"time": 27482, "pitch": 42, "duration": 10, "velocity": 60}, {"time": 27482, "pitch": 54, "duration": 10, "velocity": 45}, {"time": 27602, "pitch": 46, "duration": 10, "velocity": 75}, {"time": 27602, "pitch": 54, "duration": 10, "velocity": 105}, {"time": 27722, "pitch": 54, "duration": 10, "velocity": 45}, {"time": 27843, "pitch": 35, "duration": 10, "velocity": 120}, {"time": 27843, "pitch": 42, "duration": 10, "velocity": 80}, {"time": 27843, "pitch": 54, "duration": 10, "velocity": 75}, {"time": 27963, "pitch": 42, "duration": 10, "velocity": 60}, {"time": 27963, "pitch": 54, "duration": 10, "velocity": 45}, {"time": 28084, "pitch": 46, "duration": 10, "velocity": 75}, {"time": 28084, "pitch": 54, "duration": 10, "velocity": 105}, {"time": 28204, "pitch": 54, "duration": 10, "velocity": 45}, {"time": 28324, "pitch": 35, "duration": 10, "velocity": 120}, {"time": 28324, "pitch": 42, "duration": 10, "velocity": 80}, {"time": 28324, "pitch": 54, "duration": 10, "velocity": 75}, {"time": 28442, "pitch": 42, "duration": 10, "velocity": 60}, {"time": 28442, "pitch": 54, "duration": 10, "velocity": 45}, {"time": 28560, "pitch": 46, "duration": 10, "velocity": 75}, {"time": 28560, "pitch": 54, "duration": 10, "velocity": 105}, {"time": 28678, "pitch": 54, "duration": 10, "velocity": 45}, {"time": 28796, "pitch": 35, "duration": 10, "velocity": 120}, {"time": 28796, "pitch": 42, "duration": 10, "velocity": 80}, {"time": 28796, "pitch": 54, "duration": 10, "velocity": 75}, {"time": 28916, "pitch": 42, "duration": 10, "velocity": 60}, {"time": 28916, "pitch": 54, "duration": 10, "velocity": 45}, {"time": 29036, "pitch": 46, "duration": 10, "velocity": 75}, {"time": 29036, "pitch": 54, "duration": 10, "velocity": 105}, {"time": 29157, "pitch": 54, "duration": 10, "velocity": 45}, {"time": 29277, "pitch": 35, "duration": 10, "velocity": 120}, {"time": 29277, "pitch": 42, "duration": 10, "velocity": 80}, {"time": 29277, "pitch": 54, "duration": 10, "velocity": 75}, {"time": 29397, "pitch": 42, "duration": 11, "velocity": 60}, {"time": 29397, "pitch": 54, "duration": 11, "velocity": 45}, {"time": 29518, "pitch": 46, "duration": 10, "velocity": 75}, {"time": 29518, "pitch": 54, "duration": 10, "velocity": 105}, {"time": 29638, "pitch": 54, "duration": 10, "velocity": 45}, {"time": 29759, "pitch": 35, "duration": 10, "velocity": 120}, {"time": 29759, "pitch": 42, "duration": 10, "velocity": 80}, {"time": 29759, "pitch": 54, "duration": 10, "velocity": 75}, {"time": 29879, "pitch": 42, "duration": 10, "velocity": 60}, {"time": 29879, "pitch": 54, "duration": 10, "velocity": 45}, {"time": 29999, "pitch": 46, "duration": 11, "velocity": 75}, {"time": 29999, "pitch": 54, "duration": 11, "velocity": 105}, {"time": 30120, "pitch": 35, "duration": 10, "velocity": 105}, {"time": 30120, "pitch": 54, "duration": 10, "velocity": 45}, {"time": 30240, "pitch": 35, "duration": 10, "velocity": 120}, {"time": 30240, "pitch": 42, "duration": 10, "velocity": 80}, {"time": 30240, "pitch": 54, "duration": 10, "velocity": 75}, {"time": 30361, "pitch": 42, "duration": 10, "velocity": 60}, {"time": 30361, "pitch": 54, "duration": 10, "velocity": 45}, {"time": 30481, "pitch": 35, "duration": 10, "velocity": 105}, {"time": 30481, "pitch": 46, "duration": 10, "velocity": 75}, {"time": 30481, "pitch": 54, "duration": 10, "velocity": 105}, {"time": 30601, "pitch": 54, "duration": 10, "velocity": 45}, {"time": 30722, "pitch": 35, "duration": 10, "velocity": 120}, {"time": 30722, "pitch": 42, "duration": 10, "velocity": 80}, {"time": 30722, "pitch": 54, "duration": 10, "velocity": 75}, {"time": 30842, "pitch": 42, "duration": 10, "velocity": 60}, {"time": 30842, "pitch": 54, "duration": 10, "velocity": 45}, {"time": 30963, "pitch": 35, "duration": 10, "velocity": 105}, {"time": 30963, "pitch": 46, "duration": 10, "velocity": 75}, {"time": 30963, "pitch": 54, "duration": 10, "velocity": 105}, {"time": 31083, "pitch": 54, "duration": 10, "velocity": 45}, {"time": 31203, "pitch": 35, "duration": 10, "velocity": 120}, {"time": 31203, "pitch": 42, "duration": 10, "velocity": 80}, {"time": 31203, "pitch": 54, "duration": 10, "velocity": 75}, {"time": 31324, "pitch": 42, "duration": 10, "velocity": 60}, {"time": 31324, "pitch": 54, "duration": 10, "velocity": 45}, {"time": 31444, "pitch": 46, "duration": 10, "velocity": 75}, {"time": 31444, "pitch": 54, "duration": 10, "velocity": 105}, {"time": 31565, "pitch": 54, "duration": 10, "velocity": 45}, {"time": 31685, "pitch": 35, "duration": 10, "velocity": 120}, {"time": 31685, "pitch": 42, "duration": 10, "velocity": 80}, {"time": 31685, "pitch": 54, "duration": 10, "velocity": 75}, {"time": 31803, "pitch": 42, "duration": 10, "velocity": 60}, {"time": 31803, "pitch": 54, "duration": 10, "velocity": 45}, {"time": 31921, "pitch": 46, "duration": 9, "velocity": 75}, {"time": 31921, "pitch": 54, "duration": 9, "velocity": 105}, {"time": 32038, "pitch": 35, "duration": 10, "velocity": 105}, {"time": 32038, "pitch": 40, "duration": 10, "velocity": 110}, {"time": 32038, "pitch": 54, "duration": 10, "velocity": 45}, {"time": 32156, "pitch": 35, "duration": 10, "velocity": 120}, {"time": 32156, "pitch": 42, "duration": 10, "velocity": 80}, {"time": 32156, "pitch": 54, "duration": 10, "velocity": 75}, {"time": 32277, "pitch": 40, "duration": 10, "velocity": 110}, {"time": 32277, "pitch": 42, "duration": 10, "velocity": 60}, {"time": 32277, "pitch": 54, "duration": 10, "velocity": 45}, {"time": 32397, "pitch": 35, "duration": 10, "velocity": 105}, {"time": 32397, "pitch": 40, "duration": 10, "velocity": 110}, {"time": 32397, "pitch": 46, "duration": 10, "velocity": 75}, {"time": 32397, "pitch": 54, "duration": 10, "velocity": 105}, {"time": 32517, "pitch": 40, "duration": 10, "velocity": 110}, {"time": 32517, "pitch": 54, "duration": 10, "velocity": 45}, {"time": 32638, "pitch": 35, "duration": 10, "velocity": 120}, {"time": 32638, "pitch": 40, "duration": 10, "velocity": 110}, {"time": 32638, "pitch": 42, "duration": 10, "velocity": 80}, {"time": 32638, "pitch": 54, "duration": 10, "velocity": 75}, {"time": 32718, "pitch": 40, "duration": 10, "velocity": 110}, {"time": 32758, "pitch": 42, "duration": 10, "velocity": 60}, {"time": 32758, "pitch": 54, "duration": 10, "velocity": 45}, {"time": 32798, "pitch": 40, "duration": 10, "velocity": 110}, {"time": 32879, "pitch": 35, "duration": 10, "velocity": 105}, {"time": 32879, "pitch": 40, "duration": 10, "velocity": 110}, {"time": 32879, "pitch": 46, "duration": 10, "velocity": 75}, {"time": 32879, "pitch": 54, "duration": 10, "velocity": 105}, {"time": 32939, "pitch": 40, "duration": 10, "velocity": 110}, {"time": 32999, "pitch": 40, "duration": 10, "velocity": 110}, {"time": 32999, "pitch": 54, "duration": 10, "velocity": 45}, {"time": 33059, "pitch": 40, "duration": 10, "velocity": 110}, {"time": 33119, "pitch": 35, "duration": 10, "velocity": 120}, {"time": 33119, "pitch": 42, "duration": 10, "velocity": 80}, {"time": 33119, "pitch": 54, "duration": 10, "velocity": 75}, {"time": 33240, "pitch": 42, "duration": 10, "velocity": 60}, {"time": 33240, "pitch": 54, "duration": 10, "velocity": 45}, {"time": 33360, "pitch": 46, "duration": 10, "velocity": 75}, {"time": 33360, "pitch": 54, "duration": 10, "velocity": 105}, {"time": 33481, "pitch": 54, "duration": 10, "velocity": 45}, {"time": 33601, "pitch": 35, "duration": 10, "velocity": 120}, {"time": 33601, "pitch": 42, "duration": 10, "velocity": 80}, {"time": 33601, "pitch": 54, "duration": 10, "velocity": 75}, {"time": 33721, "pitch": 42, "duration": 10, "velocity": 60}, {"time": 33721, "pitch": 54, "duration": 10, "velocity": 45}, {"time": 33842, "pitch": 46, "duration": 10, "velocity": 75}, {"time": 33842, "pitch": 54, "duration": 10, "velocity": 105}, {"time": 33962, "pitch": 54, "duration": 10, "velocity": 45}, {"time": 34083, "pitch": 35, "duration": 10, "velocity": 120}, {"time": 34083, "pitch": 42, "duration": 10, "velocity": 80}, {"time": 34083, "pitch": 54, "duration": 10, "velocity": 75}, {"time": 34203, "pitch": 42, "duration": 10, "velocity": 60}, {"time": 34203, "pitch": 54, "duration": 10, "velocity": 45}, {"time": 34323, "pitch": 46, "duration": 10, "velocity": 75}, {"time": 34323, "pitch": 54, "duration": 10, "velocity": 105}, {"time": 34444, "pitch": 54, "duration": 10, "velocity": 45}, {"time": 34564, "pitch": 35, "duration": 10, "velocity": 120}, {"time": 34564, "pitch": 42, "duration": 10, "velocity": 80}, {"time": 34564, "pitch": 54, "duration": 10, "velocity": 75}, {"time": 34682, "pitch": 42, "duration": 10, "velocity": 60}, {"time": 34682, "pitch": 54, "duration": 10, "velocity": 45}, {"time": 34800, "pitch": 46, "duration": 9, "velocity": 75}, {"time": 34800, "pitch": 54, "duration": 9, "velocity": 105}, {"time": 34918, "pitch": 54, "duration": 9, "velocity": 45}, {"time": 35035, "pitch": 35, "duration": 10, "velocity": 120}, {"time": 35035, "pitch": 42, "duration": 10, "velocity": 80}, {"time": 35035, "pitch": 54, "duration": 10, "velocity": 75}, {"time": 35156, "pitch": 42, "duration": 10, "velocity": 60}, {"time": 35156, "pitch": 54, "duration": 10, "velocity": 45}, {"time": 35276, "pitch": 46, "duration": 10, "velocity": 75}, {"time": 35276, "pitch": 54, "duration": 10, "velocity": 105}, {"time": 35396, "pitch": 54, "duration": 10, "velocity": 45}, {"time": 35517, "pitch": 35, "duration": 10, "velocity": 120}, {"time": 35517, "pitch": 42, "duration": 10, "velocity": 80}, {"time": 35517, "pitch": 54, "duration": 10, "velocity": 75}, {"time": 35637, "pitch": 42, "duration": 10, "velocity": 60}, {"time": 35637, "pitch": 54, "duration": 10, "velocity": 45}, {"time": 35758, "pitch": 46, "duration": 10, "velocity": 75}, {"time": 35758, "pitch": 54, "duration": 10, "velocity": 105}, {"time": 35878, "pitch": 54, "duration": 10, "velocity": 45}, {"time": 35998, "pitch": 35, "duration": 10, "velocity": 120}, {"time": 35998, "pitch": 42, "duration": 10, "velocity": 80}, {"time": 35998, "pitch": 54, "duration": 10, "velocity": 75}, {"time": 36119, "pitch": 42, "duration": 10, "velocity": 60}, {"time": 36119, "pitch": 54, "duration": 10, "velocity": 45}, {"time": 36239, "pitch": 46, "duration": 10, "velocity": 75}, {"time": 36239, "pitch": 54, "duration": 10, "velocity": 105}, {"time": 36360, "pitch": 54, "duration": 10, "velocity": 45}, {"time": 36480, "pitch": 35, "duration": 10, "velocity": 120}, {"time": 36480, "pitch": 42, "duration": 10, "velocity": 80}, {"time": 36480, "pitch": 54, "duration": 10, "velocity": 75}, {"time": 36600, "pitch": 42, "duration": 10, "velocity": 60}, {"time": 36600, "pitch": 54, "duration": 10, "velocity": 45}, {"time": 36721, "pitch": 35, "duration": 10, "velocity": 105}, {"time": 36721, "pitch": 46, "duration": 10, "velocity": 75}, {"time": 36721, "pitch": 54, "duration": 10, "velocity": 105}, {"time": 36841, "pitch": 54, "duration": 10, "velocity": 45}, {"time": 36962, "pitch": 35, "duration": 10, "velocity": 120}, {"time": 36962, "pitch": 42, "duration": 10, "velocity": 80}, {"time": 36962, "pitch": 54, "duration": 10, "velocity": 75}, {"time": 37082, "pitch": 42, "duration": 10, "velocity": 60}, {"time": 37082, "pitch": 54, "duration": 10, "velocity": 45}, {"time": 37202, "pitch": 46, "duration": 10, "velocity": 75}, {"time": 37202, "pitch": 54, "duration": 10, "velocity": 105}, {"time": 37323, "pitch": 54, "duration": 10, "velocity": 45}, {"time": 37443, "pitch": 35, "duration": 10, "velocity": 120}, {"time": 37443, "pitch": 42, "duration": 10, "velocity": 80}, {"time": 37443, "pitch": 54, "duration": 10, "velocity": 75}, {"time": 37564, "pitch": 42, "duration": 10, "velocity": 60}, {"time": 37564, "pitch": 54, "duration": 10, "velocity": 45}, {"time": 37684, "pitch": 46, "duration": 10, "velocity": 75}, {"time": 37684, "pitch": 54, "duration": 10, "velocity": 105}, {"time": 37804, "pitch": 54, "duration": 10, "velocity": 45}, {"time": 37925, "pitch": 35, "duration": 9, "velocity": 120}, {"time": 37925, "pitch": 42, "duration": 9, "velocity": 80}, {"time": 37925, "pitch": 54, "duration": 9, "velocity": 75}, {"time": 38042, "pitch": 42, "duration": 10, "velocity": 60}, {"time": 38042, "pitch": 54, "duration": 10, "velocity": 45}, {"time": 38160, "pitch": 46, "duration": 10, "velocity": 75}, {"time": 38160, "pitch": 54, "duration": 10, "velocity": 105}, {"time": 38278, "pitch": 54, "duration": 10, "velocity": 45}, {"time": 38396, "pitch": 35, "duration": 10, "velocity": 120}, {"time": 38396, "pitch": 42, "duration": 10, "velocity": 80}, {"time": 38396, "pitch": 54, "duration": 10, "velocity": 75}, {"time": 38516, "pitch": 42, "duration": 10, "velocity": 60}, {"time": 38516, "pitch": 54, "duration": 10, "velocity": 45}, {"time": 38637, "pitch": 46, "duration": 10, "velocity": 75}, {"time": 38637, "pitch": 54, "duration": 10, "velocity": 105}, {"time": 38757, "pitch": 54, "duration": 10, "velocity": 45}, {"time": 38877, "pitch": 35, "duration": 11, "velocity": 120}, {"time": 38877, "pitch": 42, "duration": 11, "velocity": 80}, {"time": 38877, "pitch": 54, "duration": 11, "velocity": 75}, {"time": 38998, "pitch": 42, "duration": 10, "velocity": 60}, {"time": 38998, "pitch": 54, "duration": 10, "velocity": 45}, {"time": 39118, "pitch": 46, "duration": 10, "velocity": 75}, {"time": 39118, "pitch": 54, "duration": 10, "velocity": 105}, {"time": 39239, "pitch": 54, "duration": 10, "velocity": 45}, {"time": 39359, "pitch": 35, "duration": 10, "velocity": 120}, {"time": 39359, "pitch": 42, "duration": 10, "velocity": 80}, {"time": 39359, "pitch": 54, "duration": 10, "velocity": 75}, {"time": 39479, "pitch": 42, "duration": 11, "velocity": 60}, {"time": 39479, "pitch": 54, "duration": 11, "velocity": 45}, {"time": 39600, "pitch": 46, "duration": 10, "velocity": 75}, {"time": 39600, "pitch": 54, "duration": 10, "velocity": 105}, {"time": 39720, "pitch": 35, "duration": 10, "velocity": 105}, {"time": 39720, "pitch": 54, "duration": 10, "velocity": 45}, {"time": 39841, "pitch": 35, "duration": 10, "velocity": 120}, {"time": 39841, "pitch": 42, "duration": 10, "velocity": 80}, {"time": 39841, "pitch": 54, "duration": 10, "velocity": 75}, {"time": 39961, "pitch": 42, "duration": 10, "velocity": 60}, {"time": 39961, "pitch": 54, "duration": 10, "velocity": 45}, {"time": 40081, "pitch": 35, "duration": 10, "velocity": 105}, {"time": 40081, "pitch": 46, "duration": 10, "velocity": 75}, {"time": 40081, "pitch": 54, "duration": 10, "velocity": 105}, {"time": 40202, "pitch": 54, "duration": 10, "velocity": 45}, {"time": 40322, "pitch": 35, "duration": 10, "velocity": 120}, {"time": 40322, "pitch": 42, "duration": 10, "velocity": 80}, {"time": 40322, "pitch": 54, "duration": 10, "velocity": 75}, {"time": 40443, "pitch": 42, "duration": 10, "velocity": 60}, {"time": 40443, "pitch": 54, "duration": 10, "velocity": 45}, {"time": 40563, "pitch": 35, "duration": 10, "velocity": 105}, {"time": 40563, "pitch": 46, "duration": 10, "velocity": 75}, {"time": 40563, "pitch": 54, "duration": 10, "velocity": 105}, {"time": 40683, "pitch": 54, "duration": 10, "velocity": 45}, {"time": 40804, "pitch": 35, "duration": 10, "velocity": 120}, {"time": 40804, "pitch": 42, "duration": 10, "velocity": 80}, {"time": 40804, "pitch": 54, "duration": 10, "velocity": 75}, {"time": 40922, "pitch": 42, "duration": 9, "velocity": 60}, {"time": 40922, "pitch": 54, "duration": 9, "velocity": 45}, {"time": 41039, "pitch": 46, "duration": 10, "velocity": 75}, {"time": 41039, "pitch": 54, "duration": 10, "velocity": 105}, {"time": 41157, "pitch": 54, "duration": 10, "velocity": 45}, {"time": 41275, "pitch": 35, "duration": 10, "velocity": 120}, {"time": 41275, "pitch": 42, "duration": 10, "velocity": 80}, {"time": 41275, "pitch": 54, "duration": 10, "velocity": 75}, {"time": 41395, "pitch": 42, "duration": 10, "velocity": 60}, {"time": 41395, "pitch": 54, "duration": 10, "velocity": 45}, {"time": 41516, "pitch": 46, "duration": 10, "velocity": 75}, {"time": 41516, "pitch": 54, "duration": 10, "velocity": 105}, {"time": 41636, "pitch": 54, "duration": 10, "velocity": 45}, {"time": 41757, "pitch": 35, "duration": 10, "velocity": 120}, {"time": 41757, "pitch": 42, "duration": 10, "velocity": 80}, {"time": 41757, "pitch": 54, "duration": 10, "velocity": 75}, {"time": 41877, "pitch": 42, "duration": 10, "velocity": 60}, {"time": 41877, "pitch": 54, "duration": 10, "velocity": 45}, {"time": 41997, "pitch": 46, "duration": 10, "velocity": 75}, {"time": 41997, "pitch": 54, "duration": 10, "velocity": 105}, {"time": 42118, "pitch": 54, "duration": 10, "velocity": 45}, {"time": 42238, "pitch": 35, "duration": 10, "velocity": 120}, {"time": 42238, "pitch": 42, "duration": 10, "velocity": 80}, {"time": 42238, "pitch": 54, "duration": 10, "velocity": 75}, {"time": 42359, "pitch": 42, "duration": 10, "velocity": 60}, {"time": 42359, "pitch": 54, "duration": 10, "velocity": 45}, {"time": 42479, "pitch": 46, "duration": 10, "velocity": 75}, {"time": 42479, "pitch": 54, "duration": 10, "velocity": 105}, {"time": 42599, "pitch": 54, "duration": 10, "velocity": 45}, {"time": 42720, "pitch": 35, "duration": 10, "velocity": 120}, {"time": 42720, "pitch": 42, "duration": 10, "velocity": 80}, {"time": 42720, "pitch": 54, "duration": 10, "velocity": 75}, {"time": 42840, "pitch": 42, "duration": 10, "velocity": 60}, {"time": 42840, "pitch": 54, "duration": 10, "velocity": 45}, {"time": 42961, "pitch": 46, "duration": 10, "velocity": 75}, {"time": 42961, "pitch": 54, "duration": 10, "velocity": 105}, {"time": 43081, "pitch": 54, "duration": 10, "velocity": 45}, {"time": 43201, "pitch": 35, "duration": 10, "velocity": 120}, {"time": 43201, "pitch": 42, "duration": 10, "velocity": 80}, {"time": 43201, "pitch": 54, "duration": 10, "velocity": 75}, {"time": 43322, "pitch": 42, "duration": 10, "velocity": 60}, {"time": 43322, "pitch": 54, "duration": 10, "velocity": 45}, {"time": 43442, "pitch": 46, "duration": 10, "velocity": 75}, {"time": 43442, "pitch": 54, "duration": 10, "velocity": 105}, {"time": 43563, "pitch": 54, "duration": 10, "velocity": 45}, {"time": 43683, "pitch": 35, "duration": 10, "velocity": 120}, {"time": 43683, "pitch": 42, "duration": 10, "velocity": 80}, {"time": 43683, "pitch": 54, "duration": 10, "velocity": 75}, {"time": 43803, "pitch": 42, "duration": 10, "velocity": 60}, {"time": 43803, "pitch": 54, "duration": 10, "velocity": 45}, {"time": 43924, "pitch": 46, "duration": 10, "velocity": 75}, {"time": 43924, "pitch": 54, "duration": 10, "velocity": 105}, {"time": 44044, "pitch": 54, "duration": 10, "velocity": 45}, {"time": 44164, "pitch": 35, "duration": 10, "velocity": 120}, {"time": 44164, "pitch": 42, "duration": 10, "velocity": 80}, {"time": 44164, "pitch": 54, "duration": 10, "velocity": 75}, {"time": 44282, "pitch": 42, "duration": 10, "velocity": 60}, {"time": 44282, "pitch": 54, "duration": 10, "velocity": 45}, {"time": 44400, "pitch": 35, "duration": 10, "velocity": 105}, {"time": 44400, "pitch": 46, "duration": 10, "velocity": 75}, {"time": 44400, "pitch": 54, "duration": 10, "velocity": 105}, {"time": 44518, "pitch": 54, "duration": 10, "velocity": 45}, {"time": 44636, "pitch": 35, "duration": 10, "velocity": 120}, {"time": 44636, "pitch": 42, "duration": 10, "velocity": 80}, {"time": 44636, "pitch": 54, "duration": 10, "velocity": 75}, {"time": 44756, "pitch": 42, "duration": 10, "velocity": 60}, {"time": 44756, "pitch": 54, "duration": 10, "velocity": 45}, {"time": 44876, "pitch": 46, "duration": 10, "velocity": 75}, {"time": 44876, "pitch": 54, "duration": 10, "velocity": 105}, {"time": 44997, "pitch": 54, "duration": 10, "velocity": 45}, {"time": 45117, "pitch": 35, "duration": 10, "velocity": 120}, {"time": 45117, "pitch": 42, "duration": 10, "velocity": 80}, {"time": 45117, "pitch": 54, "duration": 10, "velocity": 75}, {"time": 45238, "pitch": 42, "duration": 10, "velocity": 60}, {"time": 45238, "pitch": 54, "duration": 10, "velocity": 45}, {"time": 45358, "pitch": 46, "duration": 10, "velocity": 75}, {"time": 45358, "pitch": 54, "duration": 10, "velocity": 105}, {"time": 45478, "pitch": 54, "duration": 10, "velocity": 45}, {"time": 45599, "pitch": 35, "duration": 10, "velocity": 120}, {"time": 45599, "pitch": 42, "duration": 10, "velocity": 80}, {"time": 45599, "pitch": 54, "duration": 10, "velocity": 75}, {"time": 45719, "pitch": 42, "duration": 10, "velocity": 60}, {"time": 45719, "pitch": 54, "duration": 10, "velocity": 45}, {"time": 45840, "pitch": 46, "duration": 10, "velocity": 75}, {"time": 45840, "pitch": 54, "duration": 10, "velocity": 105}, {"time": 45960, "pitch": 54, "duration": 10, "velocity": 45}, {"time": 46080, "pitch": 35, "duration": 10, "velocity": 120}, {"time": 46080, "pitch": 42, "duration": 10, "velocity": 80}, {"time": 46080, "pitch": 54, "duration": 10, "velocity": 75}, {"time": 46201, "pitch": 42, "duration": 10, "velocity": 60}, {"time": 46201, "pitch": 54, "duration": 10, "velocity": 45}, {"time": 46321, "pitch": 46, "duration": 10, "velocity": 75}, {"time": 46321, "pitch": 54, "duration": 10, "velocity": 105}, {"time": 46442, "pitch": 54, "duration": 10, "velocity": 45}, {"time": 46562, "pitch": 35, "duration": 10, "velocity": 120}, {"time": 46562, "pitch": 42, "duration": 10, "velocity": 80}, {"time": 46562, "pitch": 54, "duration": 10, "velocity": 75}, {"time": 46682, "pitch": 42, "duration": 10, "velocity": 60}, {"time": 46682, "pitch": 54, "duration": 10, "velocity": 45}, {"time": 46803, "pitch": 46, "duration": 10, "velocity": 75}, {"time": 46803, "pitch": 54, "duration": 10, "velocity": 105}, {"time": 46923, "pitch": 54, "duration": 10, "velocity": 45}, {"time": 47044, "pitch": 35, "duration": 10, "velocity": 120}, {"time": 47044, "pitch": 42, "duration": 10, "velocity": 80}, {"time": 47044, "pitch": 54, "duration": 10, "velocity": 75}, {"time": 47164, "pitch": 42, "duration": 10, "velocity": 60}, {"time": 47164, "pitch": 54, "duration": 10, "velocity": 45}, {"time": 47284, "pitch": 46, "duration": 10, "velocity": 75}, {"time": 47284, "pitch": 54, "duration": 10, "velocity": 105}, {"time": 47405, "pitch": 35, "duration": 10, "velocity": 105}, {"time": 47405, "pitch": 54, "duration": 10, "velocity": 45}, {"time": 48478, "pitch": 35, "duration": 10, "velocity": 120}, {"time": 48478, "pitch": 42, "duration": 10, "velocity": 80}, {"time": 48598, "pitch": 42, "duration": 10, "velocity": 60}, {"time": 48719, "pitch": 46, "duration": 10, "velocity": 75}, {"time": 48959, "pitch": 35, "duration": 11, "velocity": 120}, {"time": 48959, "pitch": 42, "duration": 11, "velocity": 80}, {"time": 49080, "pitch": 42, "duration": 10, "velocity": 60}, {"time": 49200, "pitch": 46, "duration": 10, "velocity": 75}, {"time": 49200, "pitch": 70, "duration": 10, "velocity": 120}, {"time": 49321, "pitch": 70, "duration": 10, "velocity": 120}, {"time": 49441, "pitch": 35, "duration": 10, "velocity": 120}, {"time": 49441, "pitch": 42, "duration": 10, "velocity": 80}, {"time": 49561, "pitch": 42, "duration": 10, "velocity": 60}, {"time": 49682, "pitch": 46, "duration": 10, "velocity": 75}, {"time": 49923, "pitch": 35, "duration": 10, "velocity": 120}, {"time": 49923, "pitch": 42, "duration": 10, "velocity": 80}, {"time": 50043, "pitch": 42, "duration": 10, "velocity": 60}, {"time": 50163, "pitch": 46, "duration": 10, "velocity": 75}, {"time": 50404, "pitch": 35, "duration": 10, "velocity": 120}, {"time": 50404, "pitch": 42, "duration": 10, "velocity": 80}, {"time": 50522, "pitch": 42, "duration": 10, "velocity": 60}, {"time": 50640, "pitch": 46, "duration": 10, "velocity": 75}, {"time": 50875, "pitch": 35, "duration": 10, "velocity": 120}, {"time": 50875, "pitch": 42, "duration": 10, "velocity": 80}, {"time": 50996, "pitch": 42, "duration": 10, "velocity": 60}, {"time": 51116, "pitch": 46, "duration": 10, "velocity": 75}, {"time": 51357, "pitch": 35, "duration": 10, "velocity": 120}, {"time": 51357, "pitch": 42, "duration": 10, "velocity": 80}, {"time": 51477, "pitch": 42, "duration": 10, "velocity": 60}, {"time": 51598, "pitch": 46, "duration": 10, "velocity": 75}, {"time": 51839, "pitch": 35, "duration": 10, "velocity": 120}, {"time": 51839, "pitch": 42, "duration": 10, "velocity": 80}, {"time": 51959, "pitch": 42, "duration": 10, "velocity": 60}, {"time": 52079, "pitch": 35, "duration": 10, "velocity": 105}, {"time": 52079, "pitch": 46, "duration": 10, "velocity": 75}, {"time": 52320, "pitch": 35, "duration": 10, "velocity": 120}, {"time": 52320, "pitch": 42, "duration": 10, "velocity": 80}, {"time": 52441, "pitch": 42, "duration": 10, "velocity": 60}, {"time": 52561, "pitch": 46, "duration": 10, "velocity": 75}, {"time": 52802, "pitch": 35, "duration": 10, "velocity": 120}, {"time": 52802, "pitch": 42, "duration": 10, "velocity": 80}, {"time": 52922, "pitch": 42, "duration": 10, "velocity": 60}, {"time": 53043, "pitch": 46, "duration": 10, "velocity": 75}, {"time": 53043, "pitch": 70, "duration": 10, "velocity": 120}, {"time": 53163, "pitch": 70, "duration": 10, "velocity": 120}, {"time": 53283, "pitch": 35, "duration": 10, "velocity": 120}, {"time": 53283, "pitch": 42, "duration": 10, "velocity": 80}, {"time": 53404, "pitch": 42, "duration": 10, "velocity": 60}, {"time": 53524, "pitch": 46, "duration": 10, "velocity": 75}, {"time": 53765, "pitch": 35, "duration": 10, "velocity": 120}, {"time": 53765, "pitch": 42, "duration": 10, "velocity": 80}, {"time": 53883, "pitch": 42, "duration": 9, "velocity": 60}, {"time": 54000, "pitch": 46, "duration": 10, "velocity": 75}, {"time": 54236, "pitch": 35, "duration": 10, "velocity": 120}, {"time": 54236, "pitch": 42, "duration": 10, "velocity": 80}, {"time": 54356, "pitch": 42, "duration": 10, "velocity": 60}, {"time": 54477, "pitch": 46, "duration": 10, "velocity": 75}, {"time": 54718, "pitch": 35, "duration": 10, "velocity": 120}, {"time": 54718, "pitch": 42, "duration": 10, "velocity": 80}, {"time": 54838, "pitch": 42, "duration": 10, "velocity": 60}, {"time": 54958, "pitch": 46, "duration": 10, "velocity": 75}, {"time": 55079, "pitch": 35, "duration": 10, "velocity": 105}, {"time": 55199, "pitch": 35, "duration": 10, "velocity": 120}, {"time": 55199, "pitch": 42, "duration": 10, "velocity": 80}, {"time": 55320, "pitch": 42, "duration": 10, "velocity": 60}, {"time": 55440, "pitch": 35, "duration": 10, "velocity": 105}, {"time": 55440, "pitch": 46, "duration": 10, "velocity": 75}, {"time": 55681, "pitch": 35, "duration": 10, "velocity": 120}, {"time": 55681, "pitch": 42, "duration": 10, "velocity": 80}, {"time": 55801, "pitch": 42, "duration": 10, "velocity": 60}, {"time": 55922, "pitch": 35, "duration": 10, "velocity": 105}, {"time": 55922, "pitch": 46, "duration": 10, "velocity": 75}, {"time": 56162, "pitch": 35, "duration": 10, "velocity": 120}, {"time": 56162, "pitch": 42, "duration": 10, "velocity": 80}, {"time": 56283, "pitch": 42, "duration": 10, "velocity": 60}, {"time": 56403, "pitch": 46, "duration": 10, "velocity": 75}, {"time": 56644, "pitch": 35, "duration": 10, "velocity": 120}, {"time": 56644, "pitch": 42, "duration": 10, "velocity": 80}, {"time": 56762, "pitch": 42, "duration": 10, "velocity": 60}, {"time": 56880, "pitch": 46, "duration": 9, "velocity": 75}, {"time": 56880, "pitch": 70, "duration": 9, "velocity": 120}, {"time": 56997, "pitch": 70, "duration": 10, "velocity": 120}, {"time": 57115, "pitch": 35, "duration": 10, "velocity": 120}, {"time": 57115, "pitch": 42, "duration": 10, "velocity": 80}, {"time": 57236, "pitch": 42, "duration": 10, "velocity": 60}, {"time": 57356, "pitch": 46, "duration": 10, "velocity": 75}, {"time": 57597, "pitch": 35, "duration": 10, "velocity": 120}, {"time": 57597, "pitch": 42, "duration": 10, "velocity": 80}, {"time": 57717, "pitch": 42, "duration": 10, "velocity": 60}, {"time": 57837, "pitch": 46, "duration": 11, "velocity": 75}, {"time": 58078, "pitch": 35, "duration": 10, "velocity": 120}, {"time": 58078, "pitch": 42, "duration": 10, "velocity": 80}, {"time": 58199, "pitch": 42, "duration": 10, "velocity": 60}, {"time": 58319, "pitch": 46, "duration": 10, "velocity": 75}, {"time": 58560, "pitch": 35, "duration": 10, "velocity": 120}, {"time": 58560, "pitch": 42, "duration": 10, "velocity": 80}, {"time": 58680, "pitch": 42, "duration": 10, "velocity": 60}, {"time": 58801, "pitch": 46, "duration": 10, "velocity": 75}, {"time": 59041, "pitch": 35, "duration": 10, "velocity": 120}, {"time": 59041, "pitch": 42, "duration": 10, "velocity": 80}, {"time": 59162, "pitch": 42, "duration": 10, "velocity": 60}, {"time": 59282, "pitch": 46, "duration": 10, "velocity": 75}, {"time": 59523, "pitch": 35, "duration": 10, "velocity": 120}, {"time": 59523, "pitch": 42, "duration": 10, "velocity": 80}, {"time": 59643, "pitch": 42, "duration": 10, "velocity": 60}, {"time": 59764, "pitch": 35, "duration": 10, "velocity": 105}, {"time": 59764, "pitch": 46, "duration": 10, "velocity": 75}, {"time": 60005, "pitch": 35, "duration": 9, "velocity": 120}, {"time": 60005, "pitch": 42, "duration": 9, "velocity": 80}, {"time": 60122, "pitch": 42, "duration": 10, "velocity": 60}, {"time": 60240, "pitch": 46, "duration": 10, "velocity": 75}, {"time": 60476, "pitch": 35, "duration": 10, "velocity": 120}, {"time": 60476, "pitch": 42, "duration": 10, "velocity": 80}, {"time": 60596, "pitch": 42, "duration": 10, "velocity": 60}, {"time": 60717, "pitch": 46, "duration": 10, "velocity": 75}, {"time": 60717, "pitch": 70, "duration": 10, "velocity": 120}, {"time": 60837, "pitch": 70, "duration": 10, "velocity": 120}, {"time": 60957, "pitch": 35, "duration": 10, "velocity": 120}, {"time": 60957, "pitch": 42, "duration": 10, "velocity": 80}, {"time": 61078, "pitch": 42, "duration": 10, "velocity": 60}, {"time": 61198, "pitch": 46, "duration": 10, "velocity": 75}, {"time": 61439, "pitch": 35, "duration": 10, "velocity": 120}, {"time": 61439, "pitch": 42, "duration": 10, "velocity": 80}, {"time": 61559, "pitch": 42, "duration": 10, "velocity": 60}, {"time": 61680, "pitch": 46, "duration": 10, "velocity": 75}, {"time": 61921, "pitch": 35, "duration": 10, "velocity": 120}, {"time": 61921, "pitch": 42, "duration": 10, "velocity": 80}, {"time": 62041, "pitch": 42, "duration": 10, "velocity": 60}, {"time": 62161, "pitch": 46, "duration": 10, "velocity": 75}, {"time": 62402, "pitch": 35, "duration": 10, "velocity": 120}, {"time": 62402, "pitch": 42, "duration": 10, "velocity": 80}, {"time": 62523, "pitch": 42, "duration": 10, "velocity": 60}, {"time": 62643, "pitch": 46, "duration": 10, "velocity": 75}, {"time": 62763, "pitch": 35, "duration": 10, "velocity": 105}, {"time": 62884, "pitch": 35, "duration": 9, "velocity": 120}, {"time": 62884, "pitch": 42, "duration": 9, "velocity": 80}, {"time": 63001, "pitch": 42, "duration": 10, "velocity": 60}, {"time": 63119, "pitch": 35, "duration": 10, "velocity": 105}, {"time": 63119, "pitch": 46, "duration": 10, "velocity": 75}, {"time": 63355, "pitch": 35, "duration": 10, "velocity": 120}, {"time": 63355, "pitch": 42, "duration": 10, "velocity": 80}, {"time": 63475, "pitch": 42, "duration": 10, "velocity": 60}, {"time": 63596, "pitch": 35, "duration": 10, "velocity": 105}, {"time": 63596, "pitch": 46, "duration": 10, "velocity": 75}, {"time": 63836, "pitch": 35, "duration": 10, "velocity": 120}, {"time": 63836, "pitch": 42, "duration": 10, "velocity": 80}, {"time": 63957, "pitch": 42, "duration": 10, "velocity": 60}, {"time": 64077, "pitch": 46, "duration": 10, "velocity": 75}, {"time": 64318, "pitch": 35, "duration": 10, "velocity": 120}, {"time": 64318, "pitch": 42, "duration": 10, "velocity": 80}, {"time": 64438, "pitch": 42, "duration": 10, "velocity": 60}, {"time": 64559, "pitch": 46, "duration": 10, "velocity": 75}, {"time": 64559, "pitch": 70, "duration": 10, "velocity": 120}, {"time": 64679, "pitch": 70, "duration": 10, "velocity": 120}, {"time": 64800, "pitch": 35, "duration": 10, "velocity": 120}, {"time": 64800, "pitch": 42, "duration": 10, "velocity": 80}, {"time": 64920, "pitch": 42, "duration": 10, "velocity": 60}, {"time": 65040, "pitch": 46, "duration": 10, "velocity": 75}, {"time": 65281, "pitch": 35, "duration": 10, "velocity": 120}, {"time": 65281, "pitch": 42, "duration": 10, "velocity": 80}, {"time": 65402, "pitch": 42, "duration": 10, "velocity": 60}, {"time": 65522, "pitch": 46, "duration": 10, "velocity": 75}, {"time": 65763, "pitch": 35, "duration": 10, "velocity": 120}, {"time": 65763, "pitch": 42, "duration": 10, "velocity": 80}, {"time": 65883, "pitch": 42, "duration": 10, "velocity": 60}, {"time": 66004, "pitch": 46, "duration": 10, "velocity": 75}, {"time": 66244, "pitch": 35, "duration": 10, "velocity": 120}, {"time": 66244, "pitch": 42, "duration": 10, "velocity": 80}, {"time": 66362, "pitch": 42, "duration": 10, "velocity": 60}, {"time": 66480, "pitch": 46, "duration": 10, "velocity": 75}, {"time": 66716, "pitch": 35, "duration": 10, "velocity": 120}, {"time": 66716, "pitch": 42, "duration": 10, "velocity": 80}, {"time": 66836, "pitch": 42, "duration": 10, "velocity": 60}, {"time": 66956, "pitch": 46, "duration": 10, "velocity": 75}, {"time": 67197, "pitch": 35, "duration": 10, "velocity": 120}, {"time": 67197, "pitch": 42, "duration": 10, "velocity": 80}, {"time": 67317, "pitch": 42, "duration": 11, "velocity": 60}, {"time": 67438, "pitch": 35, "duration": 10, "velocity": 105}, {"time": 67438, "pitch": 46, "duration": 10, "velocity": 75}, {"time": 67679, "pitch": 35, "duration": 10, "velocity": 120}, {"time": 67679, "pitch": 42, "duration": 10, "velocity": 80}, {"time": 67799, "pitch": 42, "duration": 10, "velocity": 60}, {"time": 67919, "pitch": 46, "duration": 11, "velocity": 75}, {"time": 68160, "pitch": 35, "duration": 10, "velocity": 120}, {"time": 68160, "pitch": 42, "duration": 10, "velocity": 80}, {"time": 68281, "pitch": 42, "duration": 10, "velocity": 60}, {"time": 68401, "pitch": 46, "duration": 10, "velocity": 75}, {"time": 68401, "pitch": 70, "duration": 10, "velocity": 120}, {"time": 68521, "pitch": 70, "duration": 10, "velocity": 120}, {"time": 68642, "pitch": 35, "duration": 10, "velocity": 120}, {"time": 68642, "pitch": 42, "duration": 10, "velocity": 80}, {"time": 68762, "pitch": 42, "duration": 10, "velocity": 60}, {"time": 68883, "pitch": 46, "duration": 10, "velocity": 75}, {"time": 69123, "pitch": 35, "duration": 10, "velocity": 120}, {"time": 69123, "pitch": 42, "duration": 10, "velocity": 80}, {"time": 69244, "pitch": 42, "duration": 10, "velocity": 60}, {"time": 69364, "pitch": 46, "duration": 10, "velocity": 75}, {"time": 69605, "pitch": 35, "duration": 10, "velocity": 120}, {"time": 69605, "pitch": 42, "duration": 10, "velocity": 80}, {"time": 69723, "pitch": 42, "duration": 10, "velocity": 60}, {"time": 69841, "pitch": 46, "duration": 9, "velocity": 75}, {"time": 70076, "pitch": 35, "duration": 10, "velocity": 120}, {"time": 70076, "pitch": 42, "duration": 10, "velocity": 80}, {"time": 70197, "pitch": 42, "duration": 10, "velocity": 60}, {"time": 70317, "pitch": 46, "duration": 10, "velocity": 75}, {"time": 70437, "pitch": 35, "duration": 10, "velocity": 105}, {"time": 70558, "pitch": 35, "duration": 10, "velocity": 120}, {"time": 70558, "pitch": 42, "duration": 10, "velocity": 80}, {"time": 70678, "pitch": 42, "duration": 10, "velocity": 60}, {"time": 70799, "pitch": 35, "duration": 10, "velocity": 105}, {"time": 70799, "pitch": 46, "duration": 10, "velocity": 75}, {"time": 71039, "pitch": 35, "duration": 10, "velocity": 120}, {"time": 71039, "pitch": 42, "duration": 10, "velocity": 80}, {"time": 71160, "pitch": 42, "duration": 10, "velocity": 60}, {"time": 71280, "pitch": 35, "duration": 10, "velocity": 105}, {"time": 71280, "pitch": 46, "duration": 10, "velocity": 75}, {"time": 71521, "pitch": 35, "duration": 10, "velocity": 120}, {"time": 71521, "pitch": 42, "duration": 10, "velocity": 80}, {"time": 71641, "pitch": 42, "duration": 10, "velocity": 60}, {"time": 71762, "pitch": 46, "duration": 10, "velocity": 75}, {"time": 72003, "pitch": 35, "duration": 10, "velocity": 120}, {"time": 72003, "pitch": 42, "duration": 10, "velocity": 80}, {"time": 72123, "pitch": 42, "duration": 10, "velocity": 60}, {"time": 72243, "pitch": 46, "duration": 10, "velocity": 75}, {"time": 72243, "pitch": 70, "duration": 10, "velocity": 120}, {"time": 72364, "pitch": 70, "duration": 10, "velocity": 120}, {"time": 72484, "pitch": 35, "duration": 10, "velocity": 120}, {"time": 72484, "pitch": 42, "duration": 10, "velocity": 80}, {"time": 72602, "pitch": 42, "duration": 10, "velocity": 60}, {"time": 72720, "pitch": 46, "duration": 9, "velocity": 75}, {"time": 72955, "pitch": 35, "duration": 10, "velocity": 120}, {"time": 72955, "pitch": 42, "duration": 10, "velocity": 80}, {"time": 73076, "pitch": 42, "duration": 10, "velocity": 60}, {"time": 73196, "pitch": 46, "duration": 10, "velocity": 75}, {"time": 73437, "pitch": 35, "duration": 10, "velocity": 120}, {"time": 73437, "pitch": 42, "duration": 10, "velocity": 80}, {"time": 73557, "pitch": 42, "duration": 10, "velocity": 60}, {"time": 73678, "pitch": 46, "duration": 10, "velocity": 75}, {"time": 73918, "pitch": 35, "duration": 10, "velocity": 120}, {"time": 73918, "pitch": 42, "duration": 10, "velocity": 80}, {"time": 74039, "pitch": 42, "duration": 10, "velocity": 60}, {"time": 74159, "pitch": 46, "duration": 10, "velocity": 75}, {"time": 74400, "pitch": 35, "duration": 10, "velocity": 120}, {"time": 74400, "pitch": 42, "duration": 10, "velocity": 80}, {"time": 74520, "pitch": 42, "duration": 10, "velocity": 60}, {"time": 74641, "pitch": 46, "duration": 10, "velocity": 75}, {"time": 74882, "pitch": 35, "duration": 10, "velocity": 120}, {"time": 74882, "pitch": 42, "duration": 10, "velocity": 80}, {"time": 75002, "pitch": 42, "duration": 10, "velocity": 60}, {"time": 75122, "pitch": 35, "duration": 10, "velocity": 105}, {"time": 75122, "pitch": 46, "duration": 10, "velocity": 75}, {"time": 75363, "pitch": 35, "duration": 10, "velocity": 120}, {"time": 75363, "pitch": 42, "duration": 10, "velocity": 80}, {"time": 75484, "pitch": 42, "duration": 10, "velocity": 60}, {"time": 75604, "pitch": 46, "duration": 10, "velocity": 75}, {"time": 75845, "pitch": 35, "duration": 9, "velocity": 120}, {"time": 75845, "pitch": 42, "duration": 9, "velocity": 80}, {"time": 75962, "pitch": 42, "duration": 10, "velocity": 60}, {"time": 76080, "pitch": 46, "duration": 10, "velocity": 75}, {"time": 76080, "pitch": 70, "duration": 10, "velocity": 120}, {"time": 76198, "pitch": 70, "duration": 10, "velocity": 120}, {"time": 76316, "pitch": 35, "duration": 10, "velocity": 120}, {"time": 76316, "pitch": 42, "duration": 10, "velocity": 80}, {"time": 76436, "pitch": 42, "duration": 10, "velocity": 60}, {"time": 76557, "pitch": 46, "duration": 10, "velocity": 75}, {"time": 76797, "pitch": 35, "duration": 11, "velocity": 120}, {"time": 76797, "pitch": 42, "duration": 11, "velocity": 80}, {"time": 76918, "pitch": 42, "duration": 10, "velocity": 60}, {"time": 77038, "pitch": 46, "duration": 10, "velocity": 75}, {"time": 77279, "pitch": 35, "duration": 10, "velocity": 120}, {"time": 77279, "pitch": 42, "duration": 10, "velocity": 80}, {"time": 77399, "pitch": 42, "duration": 11, "velocity": 60}, {"time": 77520, "pitch": 46, "duration": 10, "velocity": 75}, {"time": 77761, "pitch": 35, "duration": 10, "velocity": 120}, {"time": 77761, "pitch": 42, "duration": 10, "velocity": 80}, {"time": 77881, "pitch": 42, "duration": 10, "velocity": 60}, {"time": 78001, "pitch": 46, "duration": 10, "velocity": 75}, {"time": 78122, "pitch": 35, "duration": 10, "velocity": 105}, {"time": 78242, "pitch": 35, "duration": 10, "velocity": 120}, {"time": 78242, "pitch": 42, "duration": 10, "velocity": 80}, {"time": 78363, "pitch": 42, "duration": 10, "velocity": 60}, {"time": 78483, "pitch": 35, "duration": 10, "velocity": 105}, {"time": 78483, "pitch": 46, "duration": 10, "velocity": 75}, {"time": 78724, "pitch": 35, "duration": 10, "velocity": 120}, {"time": 78724, "pitch": 42, "duration": 10, "velocity": 80}, {"time": 78842, "pitch": 42, "duration": 9, "velocity": 60}, {"time": 78959, "pitch": 35, "duration": 10, "velocity": 105}, {"time": 78959, "pitch": 46, "duration": 10, "velocity": 75}, {"time": 79195, "pitch": 35, "duration": 10, "velocity": 120}, {"time": 79195, "pitch": 42, "duration": 10, "velocity": 80}, {"time": 79195, "pitch": 54, "duration": 10, "velocity": 75}, {"time": 79315, "pitch": 42, "duration": 10, "velocity": 60}, {"time": 79315, "pitch": 54, "duration": 10, "velocity": 45}, {"time": 79436, "pitch": 46, "duration": 10, "velocity": 75}, {"time": 79436, "pitch": 54, "duration": 10, "velocity": 105}, {"time": 79556, "pitch": 54, "duration": 10, "velocity": 45}, {"time": 79677, "pitch": 35, "duration": 10, "velocity": 120}, {"time": 79677, "pitch": 42, "duration": 10, "velocity": 80}, {"time": 79677, "pitch": 54, "duration": 10, "velocity": 75}, {"time": 79797, "pitch": 42, "duration": 10, "velocity": 60}, {"time": 79797, "pitch": 54, "duration": 10, "velocity": 105}, {"time": 79917, "pitch": 46, "duration": 10, "velocity": 75}, {"time": 79917, "pitch": 54, "duration": 10, "velocity": 45}, {"time": 80038, "pitch": 54, "duration": 10, "velocity": 75}, {"time": 80158, "pitch": 35, "duration": 10, "velocity": 120}, {"time": 80158, "pitch": 42, "duration": 10, "velocity": 80}, {"time": 80158, "pitch": 54, "duration": 10, "velocity": 45}, {"time": 80279, "pitch": 42, "duration": 10, "velocity": 60}, {"time": 80279, "pitch": 54, "duration": 10, "velocity": 75}, {"time": 80399, "pitch": 46, "duration": 10, "velocity": 75}, {"time": 80399, "pitch": 54, "duration": 10, "velocity": 105}, {"time": 80519, "pitch": 54, "duration": 10, "velocity": 45}, {"time": 80640, "pitch": 35, "duration": 10, "velocity": 120}, {"time": 80640, "pitch": 42, "duration": 10, "velocity": 80}, {"time": 80640, "pitch": 54, "duration": 10, "velocity": 75}, {"time": 80760, "pitch": 42, "duration": 10, "velocity": 60}, {"time": 80760, "pitch": 54, "duration": 10, "velocity": 45}, {"time": 80881, "pitch": 46, "duration": 10, "velocity": 75}, {"time": 80881, "pitch": 54, "duration": 10, "velocity": 75}, {"time": 81001, "pitch": 54, "duration": 10, "velocity": 105}, {"time": 81121, "pitch": 35, "duration": 10, "velocity": 120}, {"time": 81121, "pitch": 42, "duration": 10, "velocity": 80}, {"time": 81121, "pitch": 54, "duration": 10, "velocity": 75}, {"time": 81242, "pitch": 42, "duration": 10, "velocity": 60}, {"time": 81242, "pitch": 54, "duration": 10, "velocity": 45}, {"time": 81362, "pitch": 46, "duration": 10, "velocity": 75}, {"time": 81362, "pitch": 54, "duration": 10, "velocity": 105}, {"time": 81483, "pitch": 54, "duration": 10, "velocity": 45}, {"time": 81603, "pitch": 35, "duration": 10, "velocity": 120}, {"time": 81603, "pitch": 42, "duration": 10, "velocity": 80}, {"time": 81603, "pitch": 54, "duration": 10, "velocity": 75}, {"time": 81723, "pitch": 42, "duration": 10, "velocity": 60}, {"time": 81723, "pitch": 54, "duration": 10, "velocity": 105}, {"time": 81844, "pitch": 46, "duration": 10, "velocity": 75}, {"time": 81844, "pitch": 54, "duration": 10, "velocity": 45}, {"time": 81964, "pitch": 54, "duration": 10, "velocity": 75}, {"time": 82084, "pitch": 35, "duration": 10, "velocity": 120}, {"time": 82084, "pitch": 42, "duration": 10, "velocity": 80}, {"time": 82084, "pitch": 54, "duration": 10, "velocity": 45}, {"time": 82202, "pitch": 42, "duration": 10, "velocity": 60}, {"time": 82202, "pitch": 54, "duration": 10, "velocity": 75}, {"time": 82320, "pitch": 46, "duration": 10, "velocity": 75}, {"time": 82320, "pitch": 54, "duration": 10, "velocity": 105}, {"time": 82438, "pitch": 54, "duration": 10, "velocity": 45}, {"time": 82556, "pitch": 35, "duration": 10, "velocity": 120}, {"time": 82556, "pitch": 42, "duration": 10, "velocity": 80}, {"time": 82556, "pitch": 54, "duration": 10, "velocity": 75}, {"time": 82676, "pitch": 42, "duration": 10, "velocity": 60}, {"time": 82676, "pitch": 54, "duration": 10, "velocity": 45}, {"time": 82796, "pitch": 35, "duration": 10, "velocity": 105}, {"time": 82796, "pitch": 46, "duration": 10, "velocity": 75}, {"time": 82796, "pitch": 54, "duration": 10, "velocity": 75}, {"time": 82917, "pitch": 54, "duration": 10, "velocity": 105}, {"time": 83037, "pitch": 35, "duration": 10, "velocity": 120}, {"time": 83037, "pitch": 42, "duration": 10, "velocity": 80}, {"time": 83037, "pitch": 54, "duration": 10, "velocity": 75}, {"time": 83158, "pitch": 42, "duration": 10, "velocity": 60}, {"time": 83158, "pitch": 54, "duration": 10, "velocity": 45}, {"time": 83278, "pitch": 46, "duration": 10, "velocity": 75}, {"time": 83278, "pitch": 54, "duration": 10, "velocity": 105}, {"time": 83398, "pitch": 54, "duration": 10, "velocity": 45}, {"time": 83519, "pitch": 35, "duration": 10, "velocity": 120}, {"time": 83519, "pitch": 42, "duration": 10, "velocity": 80}, {"time": 83519, "pitch": 54, "duration": 10, "velocity": 75}, {"time": 83639, "pitch": 42, "duration": 10, "velocity": 60}, {"time": 83639, "pitch": 54, "duration": 10, "velocity": 105}, {"time": 83760, "pitch": 46, "duration": 10, "velocity": 75}, {"time": 83760, "pitch": 54, "duration": 10, "velocity": 45}, {"time": 83880, "pitch": 54, "duration": 10, "velocity": 75}, {"time": 84000, "pitch": 35, "duration": 10, "velocity": 120}, {"time": 84000, "pitch": 42, "duration": 10, "velocity": 80}, {"time": 84000, "pitch": 54, "duration": 10, "velocity": 45}, {"time": 84121, "pitch": 42, "duration": 10, "velocity": 60}, {"time": 84121, "pitch": 54, "duration": 10, "velocity": 75}, {"time": 84241, "pitch": 46, "duration": 10, "velocity": 75}, {"time": 84241, "pitch": 54, "duration": 10, "velocity": 105}, {"time": 84362, "pitch": 54, "duration": 10, "velocity": 45}, {"time": 84482, "pitch": 35, "duration": 10, "velocity": 120}, {"time": 84482, "pitch": 42, "duration": 10, "velocity": 80}, {"time": 84482, "pitch": 54, "duration": 10, "velocity": 75}, {"time": 84602, "pitch": 42, "duration": 10, "velocity": 60}, {"time": 84602, "pitch": 54, "duration": 10, "velocity": 45}, {"time": 84723, "pitch": 46, "duration": 10, "velocity": 75}, {"time": 84723, "pitch": 54, "duration": 10, "velocity": 75}, {"time": 84843, "pitch": 54, "duration": 10, "velocity": 105}, {"time": 84964, "pitch": 35, "duration": 10, "velocity": 120}, {"time": 84964, "pitch": 42, "duration": 10, "velocity": 80}, {"time": 84964, "pitch": 54, "duration": 10, "velocity": 75}, {"time": 85084, "pitch": 42, "duration": 10, "velocity": 60}, {"time": 85084, "pitch": 54, "duration": 10, "velocity": 45}, {"time": 85204, "pitch": 46, "duration": 10, "velocity": 75}, {"time": 85204, "pitch": 54, "duration": 10, "velocity": 105}, {"time": 85325, "pitch": 54, "duration": 10, "velocity": 45}, {"time": 85445, "pitch": 35, "duration": 10, "velocity": 120}, {"time": 85445, "pitch": 42, "duration": 10, "velocity": 80}, {"time": 85445, "pitch": 54, "duration": 10, "velocity": 75}, {"time": 85563, "pitch": 42, "duration": 10, "velocity": 60}, {"time": 85563, "pitch": 54, "duration": 10, "velocity": 105}, {"time": 85681, "pitch": 46, "duration": 10, "velocity": 75}, {"time": 85681, "pitch": 54, "duration": 10, "velocity": 45}, {"time": 85799, "pitch": 35, "duration": 9, "velocity": 105}, {"time": 85799, "pitch": 54, "duration": 9, "velocity": 75}, {"time": 85916, "pitch": 35, "duration": 10, "velocity": 120}, {"time": 85916, "pitch": 42, "duration": 10, "velocity": 80}, {"time": 85916, "pitch": 54, "duration": 10, "velocity": 45}, {"time": 86037, "pitch": 42, "duration": 10, "velocity": 60}, {"time": 86037, "pitch": 54, "duration": 10, "velocity": 75}, {"time": 86157, "pitch": 35, "duration": 10, "velocity": 105}, {"time": 86157, "pitch": 46, "duration": 10, "velocity": 75}, {"time": 86157, "pitch": 54, "duration": 10, "velocity": 105}, {"time": 86277, "pitch": 54, "duration": 11, "velocity": 45}, {"time": 86398, "pitch": 35, "duration": 10, "velocity": 120}, {"time": 86398, "pitch": 42, "duration": 10, "velocity": 80}, {"time": 86398, "pitch": 54, "duration": 10, "velocity": 75}, {"time": 86518, "pitch": 42, "duration": 10, "velocity": 60}, {"time": 86518, "pitch": 54, "duration": 10, "velocity": 45}, {"time": 86639, "pitch": 35, "duration": 10, "velocity": 105}, {"time": 86639, "pitch": 46, "duration": 10, "velocity": 75}, {"time": 86639, "pitch": 54, "duration": 10, "velocity": 75}, {"time": 86759, "pitch": 54, "duration": 10, "velocity": 105}, {"time": 86879, "pitch": 35, "duration": 11, "velocity": 120}, {"time": 86879, "pitch": 42, "duration": 11, "velocity": 80}, {"time": 86879, "pitch": 54, "duration": 11, "velocity": 75}, {"time": 87000, "pitch": 42, "duration": 10, "velocity": 60}, {"time": 87000, "pitch": 54, "duration": 10, "velocity": 45}, {"time": 87120, "pitch": 46, "duration": 10, "velocity": 75}, {"time": 87120, "pitch": 54, "duration": 10, "velocity": 105}, {"time": 87241, "pitch": 54, "duration": 10, "velocity": 45}, {"time": 87361, "pitch": 35, "duration": 10, "velocity": 120}, {"time": 87361, "pitch": 42, "duration": 10, "velocity": 80}, {"time": 87361, "pitch": 54, "duration": 10, "velocity": 75}, {"time": 87481, "pitch": 42, "duration": 10, "velocity": 60}, {"time": 87481, "pitch": 54, "duration": 10, "velocity": 105}, {"time": 87602, "pitch": 46, "duration": 10, "velocity": 75}, {"time": 87602, "pitch": 54, "duration": 10, "velocity": 45}, {"time": 87722, "pitch": 54, "duration": 10, "velocity": 75}, {"time": 87843, "pitch": 35, "duration": 10, "velocity": 120}, {"time": 87843, "pitch": 42, "duration": 10, "velocity": 80}, {"time": 87843, "pitch": 54, "duration": 10, "velocity": 45}, {"time": 87963, "pitch": 42, "duration": 10, "velocity": 60}, {"time": 87963, "pitch": 54, "duration": 10, "velocity": 75}, {"time": 88083, "pitch": 46, "duration": 10, "velocity": 75}, {"time": 88083, "pitch": 54, "duration": 10, "velocity": 105}, {"time": 88204, "pitch": 54, "duration": 10, "velocity": 45}, {"time": 88324, "pitch": 35, "duration": 10, "velocity": 120}, {"time": 88324, "pitch": 42, "duration": 10, "velocity": 80}, {"time": 88324, "pitch": 54, "duration": 10, "velocity": 75}, {"time": 88442, "pitch": 42, "duration": 10, "velocity": 60}, {"time": 88442, "pitch": 54, "duration": 10, "velocity": 45}, {"time": 88560, "pitch": 46, "duration": 10, "velocity": 75}, {"time": 88560, "pitch": 54, "duration": 10, "velocity": 75}, {"time": 88678, "pitch": 54, "duration": 9, "velocity": 105}, {"time": 88795, "pitch": 35, "duration": 10, "velocity": 120}, {"time": 88795, "pitch": 42, "duration": 10, "velocity": 80}, {"time": 88795, "pitch": 54, "duration": 10, "velocity": 75}, {"time": 88916, "pitch": 42, "duration": 10, "velocity": 60}, {"time": 88916, "pitch": 54, "duration": 10, "velocity": 45}, {"time": 89036, "pitch": 46, "duration": 10, "velocity": 75}, {"time": 89036, "pitch": 54, "duration": 10, "velocity": 105}, {"time": 89157, "pitch": 54, "duration": 10, "velocity": 45}, {"time": 89277, "pitch": 35, "duration": 10, "velocity": 120}, {"time": 89277, "pitch": 42, "duration": 10, "velocity": 80}, {"time": 89277, "pitch": 54, "duration": 10, "velocity": 75}, {"time": 89397, "pitch": 42, "duration": 10, "velocity": 60}, {"time": 89397, "pitch": 54, "duration": 10, "velocity": 105}, {"time": 89518, "pitch": 46, "duration": 10, "velocity": 75}, {"time": 89518, "pitch": 54, "duration": 10, "velocity": 45}, {"time": 89638, "pitch": 54, "duration": 10, "velocity": 75}, {"time": 89759, "pitch": 35, "duration": 10, "velocity": 120}, {"time": 89759, "pitch": 42, "duration": 10, "velocity": 80}, {"time": 89759, "pitch": 54, "duration": 10, "velocity": 45}, {"time": 89879, "pitch": 42, "duration": 10, "velocity": 60}, {"time": 89879, "pitch": 54, "duration": 10, "velocity": 75}, {"time": 89999, "pitch": 46, "duration": 10, "velocity": 75}, {"time": 89999, "pitch": 54, "duration": 10, "velocity": 105}, {"time": 90120, "pitch": 54, "duration": 10, "velocity": 45}, {"time": 90240, "pitch": 35, "duration": 10, "velocity": 120}, {"time": 90240, "pitch": 42, "duration": 10, "velocity": 80}, {"time": 90240, "pitch": 54, "duration": 10, "velocity": 75}, {"time": 90361, "pitch": 42, "duration": 10, "velocity": 60}, {"time": 90361, "pitch": 54, "duration": 10, "velocity": 45}, {"time": 90481, "pitch": 35, "duration": 10, "velocity": 105}, {"time": 90481, "pitch": 46, "duration": 10, "velocity": 75}, {"time": 90481, "pitch": 54, "duration": 10, "velocity": 75}, {"time": 90601, "pitch": 54, "duration": 10, "velocity": 105}, {"time": 90722, "pitch": 35, "duration": 10, "velocity": 120}, {"time": 90722, "pitch": 42, "duration": 10, "velocity": 80}, {"time": 90722, "pitch": 54, "duration": 10, "velocity": 75}, {"time": 90842, "pitch": 42, "duration": 10, "velocity": 60}, {"time": 90842, "pitch": 54, "duration": 10, "velocity": 45}, {"time": 90963, "pitch": 46, "duration": 10, "velocity": 75}, {"time": 90963, "pitch": 54, "duration": 10, "velocity": 105}, {"time": 91083, "pitch": 54, "duration": 10, "velocity": 45}, {"time": 91203, "pitch": 35, "duration": 10, "velocity": 120}, {"time": 91203, "pitch": 42, "duration": 10, "velocity": 80}, {"time": 91203, "pitch": 54, "duration": 10, "velocity": 75}, {"time": 91324, "pitch": 42, "duration": 10, "velocity": 60}, {"time": 91324, "pitch": 54, "duration": 10, "velocity": 105}, {"time": 91444, "pitch": 46, "duration": 10, "velocity": 75}, {"time": 91444, "pitch": 54, "duration": 10, "velocity": 45}, {"time": 91564, "pitch": 54, "duration": 11, "velocity": 75}, {"time": 91685, "pitch": 35, "duration": 10, "velocity": 120}, {"time": 91685, "pitch": 42, "duration": 10, "velocity": 80}, {"time": 91685, "pitch": 54, "duration": 10, "velocity": 45}, {"time": 91803, "pitch": 40, "duration": 9, "velocity": 100}, {"time": 91803, "pitch": 42, "duration": 9, "velocity": 60}, {"time": 91803, "pitch": 54, "duration": 9, "velocity": 75}, {"time": 91920, "pitch": 46, "duration": 10, "velocity": 75}, {"time": 91920, "pitch": 54, "duration": 10, "velocity": 105}, {"time": 92038, "pitch": 54, "duration": 10, "velocity": 45}, {"time": 92156, "pitch": 35, "duration": 10, "velocity": 120}, {"time": 92156, "pitch": 42, "duration": 10, "velocity": 80}, {"time": 92156, "pitch": 54, "duration": 10, "velocity": 75}, {"time": 92276, "pitch": 40, "duration": 10, "velocity": 100}, {"time": 92276, "pitch": 42, "duration": 10, "velocity": 60}, {"time": 92276, "pitch": 54, "duration": 10, "velocity": 45}, {"time": 92397, "pitch": 40, "duration": 10, "velocity": 100}, {"time": 92397, "pitch": 46, "duration": 10, "velocity": 75}, {"time": 92397, "pitch": 54, "duration": 10, "velocity": 75}, {"time": 92517, "pitch": 40, "duration": 10, "velocity": 100}, {"time": 92517, "pitch": 54, "duration": 10, "velocity": 105}, {"time": 92638, "pitch": 35, "duration": 10, "velocity": 120}, {"time": 92638, "pitch": 40, "duration": 10, "velocity": 100}, {"time": 92638, "pitch": 54, "duration": 10, "velocity": 105}, {"time": 92758, "pitch": 54, "duration": 10, "velocity": 45}, {"time": 92878, "pitch": 54, "duration": 10, "velocity": 75}, {"time": 92999, "pitch": 35, "duration": 10, "velocity": 120}, {"time": 92999, "pitch": 40, "duration": 10, "velocity": 100}, {"time": 92999, "pitch": 54, "duration": 10, "velocity": 105}, {"time": 93119, "pitch": 54, "duration": 10, "velocity": 45}, {"time": 93240, "pitch": 54, "duration": 10, "velocity": 75}, {"time": 93360, "pitch": 35, "duration": 10, "velocity": 120}, {"time": 93360, "pitch": 40, "duration": 10, "velocity": 100}, {"time": 93360, "pitch": 54, "duration": 10, "velocity": 105}, {"time": 93480, "pitch": 54, "duration": 10, "velocity": 45}, {"time": 93601, "pitch": 35, "duration": 10, "velocity": 120}, {"time": 93601, "pitch": 40, "duration": 10, "velocity": 100}, {"time": 93601, "pitch": 54, "duration": 10, "velocity": 105}, {"time": 93962, "pitch": 35, "duration": 10, "velocity": 120}, {"time": 94082, "pitch": 35, "duration": 10, "velocity": 120}, {"time": 94163, "pitch": 35, "duration": 10, "velocity": 120}, {"time": 94243, "pitch": 35, "duration": 10, "velocity": 120}, {"time": 94323, "pitch": 35, "duration": 10, "velocity": 120}, {"time": 94403, "pitch": 35, "duration": 10, "velocity": 120}, {"time": 94484, "pitch": 35, "duration": 10, "velocity": 120}, {"time": 94564, "pitch": 35, "duration": 10, "velocity": 120}, {"time": 94564, "pitch": 42, "duration": 10, "velocity": 80}, {"time": 94564, "pitch": 54, "duration": 10, "velocity": 75}, {"time": 94682, "pitch": 42, "duration": 10, "velocity": 60}, {"time": 94682, "pitch": 54, "duration": 10, "velocity": 45}, {"time": 94800, "pitch": 46, "duration": 9, "velocity": 75}, {"time": 94800, "pitch": 54, "duration": 9, "velocity": 105}, {"time": 94917, "pitch": 54, "duration": 10, "velocity": 45}, {"time": 95035, "pitch": 35, "duration": 10, "velocity": 120}, {"time": 95035, "pitch": 42, "duration": 10, "velocity": 80}, {"time": 95035, "pitch": 54, "duration": 10, "velocity": 75}, {"time": 95156, "pitch": 42, "duration": 10, "velocity": 60}, {"time": 95156, "pitch": 54, "duration": 10, "velocity": 45}, {"time": 95276, "pitch": 46, "duration": 10, "velocity": 75}, {"time": 95276, "pitch": 54, "duration": 10, "velocity": 105}, {"time": 95396, "pitch": 54, "duration": 10, "velocity": 45}, {"time": 95517, "pitch": 35, "duration": 10, "velocity": 120}, {"time": 95517, "pitch": 42, "duration": 10, "velocity": 80}, {"time": 95517, "pitch": 54, "duration": 10, "velocity": 75}, {"time": 95637, "pitch": 42, "duration": 10, "velocity": 60}, {"time": 95637, "pitch": 54, "duration": 10, "velocity": 45}, {"time": 95757, "pitch": 46, "duration": 11, "velocity": 75}, {"time": 95757, "pitch": 54, "duration": 11, "velocity": 105}, {"time": 95878, "pitch": 54, "duration": 10, "velocity": 45}, {"time": 95998, "pitch": 35, "duration": 10, "velocity": 120}, {"time": 95998, "pitch": 42, "duration": 10, "velocity": 80}, {"time": 95998, "pitch": 54, "duration": 10, "velocity": 75}, {"time": 96119, "pitch": 42, "duration": 10, "velocity": 60}, {"time": 96119, "pitch": 54, "duration": 10, "velocity": 45}, {"time": 96239, "pitch": 46, "duration": 10, "velocity": 75}, {"time": 96239, "pitch": 54, "duration": 10, "velocity": 105}, {"time": 96359, "pitch": 54, "duration": 11, "velocity": 45}, {"time": 96480, "pitch": 35, "duration": 10, "velocity": 120}, {"time": 96480, "pitch": 42, "duration": 10, "velocity": 80}, {"time": 96480, "pitch": 54, "duration": 10, "velocity": 75}, {"time": 96600, "pitch": 42, "duration": 10, "velocity": 60}, {"time": 96600, "pitch": 54, "duration": 10, "velocity": 45}, {"time": 96721, "pitch": 46, "duration": 10, "velocity": 75}, {"time": 96721, "pitch": 54, "duration": 10, "velocity": 105}, {"time": 96841, "pitch": 54, "duration": 10, "velocity": 45}, {"time": 96961, "pitch": 35, "duration": 10, "velocity": 120}, {"time": 96961, "pitch": 42, "duration": 10, "velocity": 80}, {"time": 96961, "pitch": 54, "duration": 10, "velocity": 75}, {"time": 97082, "pitch": 42, "duration": 10, "velocity": 60}, {"time": 97082, "pitch": 54, "duration": 10, "velocity": 45}, {"time": 97202, "pitch": 46, "duration": 10, "velocity": 75}, {"time": 97202, "pitch": 54, "duration": 10, "velocity": 105}, {"time": 97323, "pitch": 54, "duration": 10, "velocity": 45}, {"time": 97443, "pitch": 35, "duration": 10, "velocity": 120}, {"time": 97443, "pitch": 42, "duration": 10, "velocity": 80}, {"time": 97443, "pitch": 54, "duration": 10, "velocity": 75}, {"time": 97563, "pitch": 42, "duration": 10, "velocity": 60}, {"time": 97563, "pitch": 54, "duration": 10, "velocity": 45}, {"time": 97684, "pitch": 46, "duration": 10, "velocity": 75}, {"time": 97684, "pitch": 54, "duration": 10, "velocity": 105}, {"time": 97804, "pitch": 54, "duration": 10, "velocity": 45}, {"time": 97925, "pitch": 35, "duration": 9, "velocity": 120}, {"time": 97925, "pitch": 42, "duration": 9, "velocity": 80}, {"time": 97925, "pitch": 54, "duration": 9, "velocity": 75}, {"time": 98042, "pitch": 42, "duration": 10, "velocity": 60}, {"time": 98042, "pitch": 54, "duration": 10, "velocity": 45}, {"time": 98160, "pitch": 35, "duration": 10, "velocity": 105}, {"time": 98160, "pitch": 46, "duration": 10, "velocity": 75}, {"time": 98160, "pitch": 54, "duration": 10, "velocity": 105}, {"time": 98278, "pitch": 54, "duration": 10, "velocity": 45}, {"time": 98396, "pitch": 35, "duration": 10, "velocity": 120}, {"time": 98396, "pitch": 42, "duration": 10, "velocity": 80}, {"time": 98396, "pitch": 54, "duration": 10, "velocity": 75}, {"time": 98516, "pitch": 42, "duration": 10, "velocity": 60}, {"time": 98516, "pitch": 54, "duration": 10, "velocity": 45}, {"time": 98637, "pitch": 46, "duration": 10, "velocity": 75}, {"time": 98637, "pitch": 54, "duration": 10, "velocity": 105}, {"time": 98757, "pitch": 54, "duration": 10, "velocity": 45}, {"time": 98877, "pitch": 35, "duration": 10, "velocity": 120}, {"time": 98877, "pitch": 42, "duration": 10, "velocity": 80}, {"time": 98877, "pitch": 54, "duration": 10, "velocity": 75}, {"time": 98998, "pitch": 42, "duration": 10, "velocity": 60}, {"time": 98998, "pitch": 54, "duration": 10, "velocity": 45}, {"time": 99118, "pitch": 46, "duration": 10, "velocity": 75}, {"time": 99118, "pitch": 54, "duration": 10, "velocity": 105}, {"time": 99239, "pitch": 54, "duration": 10, "velocity": 45}, {"time": 99359, "pitch": 35, "duration": 10, "velocity": 120}, {"time": 99359, "pitch": 42, "duration": 10, "velocity": 80}, {"time": 99359, "pitch": 54, "duration": 10, "velocity": 75}, {"time": 99479, "pitch": 42, "duration": 10, "velocity": 60}, {"time": 99479, "pitch": 54, "duration": 10, "velocity": 45}, {"time": 99600, "pitch": 46, "duration": 10, "velocity": 75}, {"time": 99600, "pitch": 54, "duration": 10, "velocity": 105}, {"time": 99720, "pitch": 54, "duration": 10, "velocity": 45}, {"time": 99841, "pitch": 35, "duration": 10, "velocity": 120}, {"time": 99841, "pitch": 42, "duration": 10, "velocity": 80}, {"time": 99841, "pitch": 54, "duration": 10, "velocity": 75}, {"time": 99961, "pitch": 42, "duration": 10, "velocity": 60}, {"time": 99961, "pitch": 54, "duration": 10, "velocity": 45}, {"time": 100081, "pitch": 46, "duration": 10, "velocity": 75}, {"time": 100081, "pitch": 54, "duration": 10, "velocity": 105}, {"time": 100202, "pitch": 54, "duration": 10, "velocity": 45}, {"time": 100322, "pitch": 35, "duration": 10, "velocity": 120}, {"time": 100322, "pitch": 42, "duration": 10, "velocity": 80}, {"time": 100322, "pitch": 54, "duration": 10, "velocity": 75}, {"time": 100443, "pitch": 42, "duration": 10, "velocity": 60}, {"time": 100443, "pitch": 54, "duration": 10, "velocity": 45}, {"time": 100563, "pitch": 46, "duration": 10, "velocity": 75}, {"time": 100563, "pitch": 54, "duration": 10, "velocity": 105}, {"time": 100683, "pitch": 54, "duration": 10, "velocity": 45}, {"time": 100804, "pitch": 35, "duration": 9, "velocity": 120}, {"time": 100804, "pitch": 42, "duration": 9, "velocity": 80}, {"time": 100804, "pitch": 54, "duration": 9, "velocity": 75}, {"time": 100921, "pitch": 42, "duration": 10, "velocity": 60}, {"time": 100921, "pitch": 54, "duration": 10, "velocity": 45}, {"time": 101039, "pitch": 46, "duration": 10, "velocity": 75}, {"time": 101039, "pitch": 54, "duration": 10, "velocity": 105}, {"time": 101157, "pitch": 35, "duration": 10, "velocity": 105}, {"time": 101157, "pitch": 54, "duration": 10, "velocity": 45}, {"time": 101275, "pitch": 35, "duration": 10, "velocity": 120}, {"time": 101275, "pitch": 42, "duration": 10, "velocity": 80}, {"time": 101275, "pitch": 54, "duration": 10, "velocity": 75}, {"time": 101395, "pitch": 42, "duration": 10, "velocity": 60}, {"time": 101395, "pitch": 54, "duration": 10, "velocity": 45}, {"time": 101516, "pitch": 35, "duration": 10, "velocity": 105}, {"time": 101516, "pitch": 46, "duration": 10, "velocity": 75}, {"time": 101516, "pitch": 54, "duration": 10, "velocity": 105}, {"time": 101636, "pitch": 54, "duration": 10, "velocity": 45}, {"time": 101756, "pitch": 35, "duration": 10, "velocity": 120}, {"time": 101756, "pitch": 42, "duration": 10, "velocity": 80}, {"time": 101756, "pitch": 54, "duration": 10, "velocity": 75}, {"time": 101877, "pitch": 42, "duration": 10, "velocity": 60}, {"time": 101877, "pitch": 54, "duration": 10, "velocity": 45}, {"time": 101997, "pitch": 35, "duration": 10, "velocity": 105}, {"time": 101997, "pitch": 46, "duration": 10, "velocity": 75}, {"time": 101997, "pitch": 54, "duration": 10, "velocity": 105}, {"time": 102118, "pitch": 54, "duration": 10, "velocity": 45}, {"time": 102238, "pitch": 35, "duration": 10, "velocity": 120}, {"time": 102238, "pitch": 42, "duration": 10, "velocity": 80}, {"time": 102238, "pitch": 54, "duration": 10, "velocity": 75}, {"time": 102358, "pitch": 42, "duration": 10, "velocity": 60}, {"time": 102358, "pitch": 54, "duration": 10, "velocity": 45}, {"time": 102479, "pitch": 46, "duration": 10, "velocity": 75}, {"time": 102479, "pitch": 54, "duration": 10, "velocity": 105}, {"time": 102599, "pitch": 54, "duration": 10, "velocity": 45}, {"time": 102720, "pitch": 35, "duration": 10, "velocity": 120}, {"time": 102720, "pitch": 42, "duration": 10, "velocity": 80}, {"time": 102720, "pitch": 54, "duration": 10, "velocity": 75}, {"time": 102840, "pitch": 42, "duration": 10, "velocity": 60}, {"time": 102840, "pitch": 54, "duration": 10, "velocity": 45}, {"time": 102960, "pitch": 46, "duration": 10, "velocity": 75}, {"time": 102960, "pitch": 54, "duration": 10, "velocity": 105}, {"time": 103081, "pitch": 54, "duration": 10, "velocity": 45}, {"time": 103201, "pitch": 35, "duration": 10, "velocity": 120}, {"time": 103201, "pitch": 42, "duration": 10, "velocity": 80}, {"time": 103201, "pitch": 54, "duration": 10, "velocity": 75}, {"time": 103322, "pitch": 42, "duration": 10, "velocity": 60}, {"time": 103322, "pitch": 54, "duration": 10, "velocity": 45}, {"time": 103442, "pitch": 46, "duration": 10, "velocity": 75}, {"time": 103442, "pitch": 54, "duration": 10, "velocity": 105}, {"time": 103562, "pitch": 54, "duration": 10, "velocity": 45}, {"time": 103683, "pitch": 35, "duration": 10, "velocity": 120}, {"time": 103683, "pitch": 42, "duration": 10, "velocity": 80}, {"time": 103683, "pitch": 54, "duration": 10, "velocity": 75}, {"time": 103803, "pitch": 42, "duration": 10, "velocity": 60}, {"time": 103803, "pitch": 54, "duration": 10, "velocity": 45}, {"time": 103924, "pitch": 46, "duration": 10, "velocity": 75}, {"time": 103924, "pitch": 54, "duration": 10, "velocity": 105}, {"time": 104044, "pitch": 54, "duration": 10, "velocity": 45}, {"time": 104164, "pitch": 35, "duration": 10, "velocity": 120}, {"time": 104164, "pitch": 42, "duration": 10, "velocity": 80}, {"time": 104164, "pitch": 54, "duration": 10, "velocity": 75}, {"time": 104282, "pitch": 42, "duration": 10, "velocity": 60}, {"time": 104282, "pitch": 54, "duration": 10, "velocity": 45}, {"time": 104400, "pitch": 46, "duration": 10, "velocity": 75}, {"time": 104400, "pitch": 54, "duration": 10, "velocity": 105}, {"time": 104518, "pitch": 54, "duration": 10, "velocity": 45}, {"time": 104636, "pitch": 35, "duration": 10, "velocity": 120}, {"time": 104636, "pitch": 42, "duration": 10, "velocity": 80}, {"time": 104636, "pitch": 54, "duration": 10, "velocity": 75}, {"time": 104756, "pitch": 42, "duration": 10, "velocity": 60}, {"time": 104756, "pitch": 54, "duration": 10, "velocity": 45}, {"time": 104876, "pitch": 46, "duration": 10, "velocity": 75}, {"time": 104876, "pitch": 54, "duration": 10, "velocity": 105}, {"time": 104997, "pitch": 54, "duration": 10, "velocity": 45}, {"time": 105117, "pitch": 35, "duration": 10, "velocity": 120}, {"time": 105117, "pitch": 42, "duration": 10, "velocity": 80}, {"time": 105117, "pitch": 54, "duration": 10, "velocity": 75}, {"time": 105237, "pitch": 42, "duration": 11, "velocity": 60}, {"time": 105237, "pitch": 54, "duration": 11, "velocity": 45}, {"time": 105358, "pitch": 46, "duration": 10, "velocity": 75}, {"time": 105358, "pitch": 54, "duration": 10, "velocity": 105}, {"time": 105478, "pitch": 54, "duration": 10, "velocity": 45}, {"time": 105599, "pitch": 35, "duration": 10, "velocity": 120}, {"time": 105599, "pitch": 42, "duration": 10, "velocity": 80}, {"time": 105599, "pitch": 54, "duration": 10, "velocity": 75}, {"time": 105719, "pitch": 42, "duration": 10, "velocity": 60}, {"time": 105719, "pitch": 54, "duration": 10, "velocity": 45}, {"time": 105839, "pitch": 35, "duration": 11, "velocity": 105}, {"time": 105839, "pitch": 46, "duration": 11, "velocity": 75}, {"time": 105839, "pitch": 54, "duration": 11, "velocity": 105}, {"time": 105960, "pitch": 54, "duration": 10, "velocity": 45}, {"time": 106080, "pitch": 35, "duration": 10, "velocity": 120}, {"time": 106080, "pitch": 42, "duration": 10, "velocity": 80}, {"time": 106080, "pitch": 54, "duration": 10, "velocity": 75}, {"time": 106201, "pitch": 42, "duration": 10, "velocity": 60}, {"time": 106201, "pitch": 54, "duration": 10, "velocity": 45}, {"time": 106321, "pitch": 46, "duration": 10, "velocity": 75}, {"time": 106321, "pitch": 54, "duration": 10, "velocity": 105}, {"time": 106441, "pitch": 54, "duration": 10, "velocity": 45}, {"time": 106562, "pitch": 35, "duration": 10, "velocity": 120}, {"time": 106562, "pitch": 42, "duration": 10, "velocity": 80}, {"time": 106562, "pitch": 54, "duration": 10, "velocity": 75}, {"time": 106682, "pitch": 42, "duration": 10, "velocity": 60}, {"time": 106682, "pitch": 54, "duration": 10, "velocity": 45}, {"time": 106803, "pitch": 46, "duration": 10, "velocity": 75}, {"time": 106803, "pitch": 54, "duration": 10, "velocity": 105}, {"time": 106923, "pitch": 54, "duration": 10, "velocity": 45}, {"time": 107043, "pitch": 35, "duration": 10, "velocity": 120}, {"time": 107043, "pitch": 42, "duration": 10, "velocity": 80}, {"time": 107043, "pitch": 54, "duration": 10, "velocity": 75}, {"time": 107164, "pitch": 42, "duration": 10, "velocity": 60}, {"time": 107164, "pitch": 54, "duration": 10, "velocity": 45}, {"time": 107284, "pitch": 46, "duration": 10, "velocity": 75}, {"time": 107284, "pitch": 54, "duration": 10, "velocity": 105}, {"time": 107405, "pitch": 54, "duration": 10, "velocity": 45}, {"time": 107525, "pitch": 35, "duration": 10, "velocity": 120}, {"time": 107525, "pitch": 42, "duration": 10, "velocity": 80}, {"time": 107525, "pitch": 54, "duration": 10, "velocity": 75}, {"time": 107643, "pitch": 42, "duration": 10, "velocity": 60}, {"time": 107643, "pitch": 54, "duration": 10, "velocity": 45}, {"time": 107761, "pitch": 46, "duration": 9, "velocity": 75}, {"time": 107761, "pitch": 54, "duration": 9, "velocity": 105}, {"time": 107878, "pitch": 54, "duration": 10, "velocity": 45}, {"time": 107996, "pitch": 35, "duration": 10, "velocity": 120}, {"time": 107996, "pitch": 42, "duration": 10, "velocity": 80}, {"time": 107996, "pitch": 54, "duration": 10, "velocity": 75}, {"time": 108117, "pitch": 42, "duration": 10, "velocity": 60}, {"time": 108117, "pitch": 54, "duration": 10, "velocity": 45}, {"time": 108237, "pitch": 46, "duration": 10, "velocity": 75}, {"time": 108237, "pitch": 54, "duration": 10, "velocity": 105}, {"time": 108357, "pitch": 54, "duration": 10, "velocity": 45}, {"time": 108478, "pitch": 35, "duration": 10, "velocity": 120}, {"time": 108478, "pitch": 42, "duration": 10, "velocity": 80}, {"time": 108478, "pitch": 54, "duration": 10, "velocity": 75}, {"time": 108598, "pitch": 42, "duration": 10, "velocity": 60}, {"time": 108598, "pitch": 54, "duration": 10, "velocity": 45}, {"time": 108719, "pitch": 46, "duration": 10, "velocity": 75}, {"time": 108719, "pitch": 54, "duration": 10, "velocity": 105}, {"time": 108839, "pitch": 35, "duration": 10, "velocity": 105}, {"time": 108839, "pitch": 54, "duration": 10, "velocity": 45}, {"time": 108959, "pitch": 35, "duration": 10, "velocity": 120}, {"time": 108959, "pitch": 42, "duration": 10, "velocity": 80}, {"time": 108959, "pitch": 54, "duration": 10, "velocity": 75}, {"time": 109080, "pitch": 42, "duration": 10, "velocity": 60}, {"time": 109080, "pitch": 54, "duration": 10, "velocity": 45}, {"time": 109200, "pitch": 35, "duration": 10, "velocity": 105}, {"time": 109200, "pitch": 46, "duration": 10, "velocity": 75}, {"time": 109200, "pitch": 54, "duration": 10, "velocity": 105}, {"time": 109321, "pitch": 54, "duration": 10, "velocity": 45}, {"time": 109441, "pitch": 35, "duration": 10, "velocity": 120}, {"time": 109441, "pitch": 42, "duration": 10, "velocity": 80}, {"time": 109441, "pitch": 54, "duration": 10, "velocity": 75}, {"time": 109561, "pitch": 42, "duration": 10, "velocity": 60}, {"time": 109561, "pitch": 54, "duration": 10, "velocity": 45}, {"time": 109682, "pitch": 35, "duration": 10, "velocity": 105}, {"time": 109682, "pitch": 46, "duration": 10, "velocity": 75}, {"time": 109682, "pitch": 54, "duration": 10, "velocity": 105}, {"time": 109802, "pitch": 54, "duration": 10, "velocity": 65}, {"time": 109923, "pitch": 35, "duration": 10, "velocity": 120}, {"time": 109923, "pitch": 42, "duration": 10, "velocity": 80}, {"time": 109923, "pitch": 54, "duration": 10, "velocity": 75}, {"time": 110043, "pitch": 42, "duration": 10, "velocity": 60}, {"time": 110043, "pitch": 54, "duration": 10, "velocity": 45}, {"time": 110163, "pitch": 46, "duration": 10, "velocity": 75}, {"time": 110163, "pitch": 54, "duration": 10, "velocity": 105}, {"time": 110284, "pitch": 54, "duration": 10, "velocity": 45}, {"time": 110404, "pitch": 35, "duration": 10, "velocity": 120}, {"time": 110404, "pitch": 42, "duration": 10, "velocity": 80}, {"time": 110404, "pitch": 54, "duration": 10, "velocity": 75}, {"time": 110522, "pitch": 42, "duration": 10, "velocity": 60}, {"time": 110522, "pitch": 54, "duration": 10, "velocity": 45}, {"time": 110640, "pitch": 46, "duration": 9, "velocity": 75}, {"time": 110640, "pitch": 54, "duration": 9, "velocity": 105}, {"time": 110758, "pitch": 35, "duration": 9, "velocity": 105}, {"time": 110758, "pitch": 40, "duration": 9, "velocity": 110}, {"time": 110758, "pitch": 54, "duration": 9, "velocity": 45}, {"time": 110875, "pitch": 35, "duration": 10, "velocity": 120}, {"time": 110875, "pitch": 42, "duration": 10, "velocity": 80}, {"time": 110875, "pitch": 54, "duration": 10, "velocity": 75}, {"time": 110996, "pitch": 40, "duration": 10, "velocity": 110}, {"time": 110996, "pitch": 42, "duration": 10, "velocity": 60}, {"time": 110996, "pitch": 54, "duration": 10, "velocity": 45}, {"time": 111116, "pitch": 35, "duration": 10, "velocity": 105}, {"time": 111116, "pitch": 40, "duration": 10, "velocity": 110}, {"time": 111116, "pitch": 46, "duration": 10, "velocity": 75}, {"time": 111116, "pitch": 54, "duration": 10, "velocity": 105}, {"time": 111236, "pitch": 40, "duration": 10, "velocity": 110}, {"time": 111236, "pitch": 54, "duration": 10, "velocity": 45}, {"time": 111357, "pitch": 35, "duration": 10, "velocity": 120}, {"time": 111357, "pitch": 40, "duration": 10, "velocity": 110}, {"time": 111357, "pitch": 42, "duration": 10, "velocity": 80}, {"time": 111357, "pitch": 54, "duration": 10, "velocity": 75}, {"time": 111437, "pitch": 40, "duration": 10, "velocity": 110}, {"time": 111477, "pitch": 42, "duration": 10, "velocity": 60}, {"time": 111477, "pitch": 54, "duration": 10, "velocity": 45}, {"time": 111517, "pitch": 40, "duration": 10, "velocity": 110}, {"time": 111598, "pitch": 35, "duration": 10, "velocity": 105}, {"time": 111598, "pitch": 40, "duration": 10, "velocity": 110}, {"time": 111598, "pitch": 46, "duration": 10, "velocity": 75}, {"time": 111598, "pitch": 54, "duration": 10, "velocity": 105}, {"time": 111658, "pitch": 40, "duration": 10, "velocity": 110}, {"time": 111718, "pitch": 40, "duration": 10, "velocity": 110}, {"time": 111718, "pitch": 54, "duration": 10, "velocity": 45}, {"time": 111778, "pitch": 40, "duration": 10, "velocity": 110}, {"time": 111838, "pitch": 35, "duration": 10, "velocity": 120}, {"time": 111838, "pitch": 42, "duration": 10, "velocity": 80}, {"time": 111838, "pitch": 54, "duration": 10, "velocity": 75}, {"time": 111959, "pitch": 42, "duration": 10, "velocity": 60}, {"time": 111959, "pitch": 54, "duration": 10, "velocity": 45}, {"time": 112079, "pitch": 46, "duration": 10, "velocity": 75}, {"time": 112079, "pitch": 54, "duration": 10, "velocity": 105}, {"time": 112200, "pitch": 54, "duration": 10, "velocity": 45}, {"time": 112320, "pitch": 35, "duration": 10, "velocity": 120}, {"time": 112320, "pitch": 42, "duration": 10, "velocity": 80}, {"time": 112320, "pitch": 54, "duration": 10, "velocity": 75}, {"time": 112440, "pitch": 42, "duration": 10, "velocity": 60}, {"time": 112440, "pitch": 54, "duration": 10, "velocity": 45}, {"time": 112561, "pitch": 46, "duration": 10, "velocity": 75}, {"time": 112561, "pitch": 54, "duration": 10, "velocity": 105}, {"time": 112681, "pitch": 54, "duration": 10, "velocity": 45}, {"time": 112802, "pitch": 35, "duration": 10, "velocity": 120}, {"time": 112802, "pitch": 42, "duration": 10, "velocity": 80}, {"time": 112802, "pitch": 54, "duration": 10, "velocity": 75}, {"time": 112922, "pitch": 42, "duration": 10, "velocity": 60}, {"time": 112922, "pitch": 54, "duration": 10, "velocity": 45}, {"time": 113042, "pitch": 46, "duration": 10, "velocity": 75}, {"time": 113042, "pitch": 54, "duration": 10, "velocity": 105}, {"time": 113163, "pitch": 54, "duration": 10, "velocity": 45}, {"time": 113283, "pitch": 35, "duration": 10, "velocity": 120}, {"time": 113283, "pitch": 42, "duration": 10, "velocity": 80}, {"time": 113283, "pitch": 54, "duration": 10, "velocity": 75}, {"time": 113404, "pitch": 42, "duration": 10, "velocity": 60}, {"time": 113404, "pitch": 54, "duration": 10, "velocity": 45}, {"time": 113524, "pitch": 46, "duration": 10, "velocity": 75}, {"time": 113524, "pitch": 54, "duration": 10, "velocity": 105}, {"time": 113644, "pitch": 54, "duration": 10, "velocity": 45}, {"time": 113765, "pitch": 35, "duration": 9, "velocity": 120}, {"time": 113765, "pitch": 42, "duration": 9, "velocity": 80}, {"time": 113765, "pitch": 54, "duration": 9, "velocity": 75}, {"time": 113882, "pitch": 42, "duration": 10, "velocity": 60}, {"time": 113882, "pitch": 54, "duration": 10, "velocity": 45}, {"time": 114000, "pitch": 46, "duration": 10, "velocity": 75}, {"time": 114000, "pitch": 54, "duration": 10, "velocity": 105}, {"time": 114118, "pitch": 54, "duration": 10, "velocity": 45}, {"time": 114236, "pitch": 35, "duration": 10, "velocity": 120}, {"time": 114236, "pitch": 42, "duration": 10, "velocity": 80}, {"time": 114236, "pitch": 54, "duration": 10, "velocity": 75}, {"time": 114356, "pitch": 42, "duration": 10, "velocity": 60}, {"time": 114356, "pitch": 54, "duration": 10, "velocity": 45}, {"time": 114477, "pitch": 46, "duration": 10, "velocity": 75}, {"time": 114477, "pitch": 54, "duration": 10, "velocity": 105}, {"time": 114597, "pitch": 54, "duration": 10, "velocity": 45}, {"time": 114717, "pitch": 35, "duration": 11, "velocity": 120}, {"time": 114717, "pitch": 42, "duration": 11, "velocity": 80}, {"time": 114717, "pitch": 54, "duration": 11, "velocity": 75}, {"time": 114838, "pitch": 42, "duration": 10, "velocity": 60}, {"time": 114838, "pitch": 54, "duration": 10, "velocity": 45}, {"time": 114958, "pitch": 46, "duration": 10, "velocity": 75}, {"time": 114958, "pitch": 54, "duration": 10, "velocity": 105}, {"time": 115079, "pitch": 54, "duration": 10, "velocity": 45}, {"time": 115199, "pitch": 35, "duration": 10, "velocity": 120}, {"time": 115199, "pitch": 42, "duration": 10, "velocity": 80}, {"time": 115199, "pitch": 54, "duration": 10, "velocity": 75}, {"time": 115319, "pitch": 42, "duration": 11, "velocity": 60}, {"time": 115319, "pitch": 54, "duration": 11, "velocity": 45}, {"time": 115440, "pitch": 35, "duration": 10, "velocity": 105}, {"time": 115440, "pitch": 46, "duration": 10, "velocity": 75}, {"time": 115440, "pitch": 54, "duration": 10, "velocity": 105}, {"time": 115560, "pitch": 54, "duration": 10, "velocity": 45}, {"time": 115681, "pitch": 35, "duration": 10, "velocity": 120}, {"time": 115681, "pitch": 42, "duration": 10, "velocity": 80}, {"time": 115681, "pitch": 54, "duration": 10, "velocity": 75}, {"time": 115801, "pitch": 42, "duration": 10, "velocity": 60}, {"time": 115801, "pitch": 54, "duration": 10, "velocity": 45}, {"time": 115921, "pitch": 46, "duration": 10, "velocity": 75}, {"time": 115921, "pitch": 54, "duration": 10, "velocity": 105}, {"time": 116042, "pitch": 54, "duration": 10, "velocity": 45}, {"time": 116162, "pitch": 35, "duration": 10, "velocity": 120}, {"time": 116162, "pitch": 42, "duration": 10, "velocity": 80}, {"time": 116162, "pitch": 54, "duration": 10, "velocity": 75}, {"time": 116283, "pitch": 42, "duration": 10, "velocity": 60}, {"time": 116283, "pitch": 54, "duration": 10, "velocity": 45}, {"time": 116403, "pitch": 46, "duration": 10, "velocity": 75}, {"time": 116403, "pitch": 54, "duration": 10, "velocity": 105}, {"time": 116523, "pitch": 54, "duration": 10, "velocity": 45}, {"time": 116644, "pitch": 35, "duration": 10, "velocity": 120}, {"time": 116644, "pitch": 42, "duration": 10, "velocity": 80}, {"time": 116644, "pitch": 54, "duration": 10, "velocity": 75}, {"time": 116762, "pitch": 42, "duration": 9, "velocity": 60}, {"time": 116762, "pitch": 54, "duration": 9, "velocity": 45}, {"time": 116879, "pitch": 46, "duration": 10, "velocity": 75}, {"time": 116879, "pitch": 54, "duration": 10, "velocity": 105}, {"time": 116997, "pitch": 54, "duration": 10, "velocity": 45}, {"time": 117115, "pitch": 35, "duration": 10, "velocity": 120}, {"time": 117115, "pitch": 42, "duration": 10, "velocity": 80}, {"time": 117115, "pitch": 54, "duration": 10, "velocity": 75}, {"time": 117235, "pitch": 42, "duration": 10, "velocity": 60}, {"time": 117235, "pitch": 54, "duration": 10, "velocity": 45}, {"time": 117356, "pitch": 46, "duration": 10, "velocity": 75}, {"time": 117356, "pitch": 54, "duration": 10, "velocity": 105}, {"time": 117476, "pitch": 54, "duration": 10, "velocity": 45}, {"time": 117597, "pitch": 35, "duration": 10, "velocity": 120}, {"time": 117597, "pitch": 42, "duration": 10, "velocity": 80}, {"time": 117597, "pitch": 54, "duration": 10, "velocity": 75}, {"time": 117717, "pitch": 42, "duration": 10, "velocity": 60}, {"time": 117717, "pitch": 54, "duration": 10, "velocity": 45}, {"time": 117837, "pitch": 46, "duration": 10, "velocity": 75}, {"time": 117837, "pitch": 54, "duration": 10, "velocity": 105}, {"time": 117958, "pitch": 54, "duration": 10, "velocity": 45}, {"time": 118078, "pitch": 35, "duration": 10, "velocity": 120}, {"time": 118078, "pitch": 42, "duration": 10, "velocity": 80}, {"time": 118078, "pitch": 54, "duration": 10, "velocity": 75}, {"time": 118199, "pitch": 42, "duration": 10, "velocity": 60}, {"time": 118199, "pitch": 54, "duration": 10, "velocity": 45}, {"time": 118319, "pitch": 46, "duration": 10, "velocity": 75}, {"time": 118319, "pitch": 54, "duration": 10, "velocity": 105}, {"time": 118439, "pitch": 35, "duration": 10, "velocity": 105}, {"time": 118439, "pitch": 54, "duration": 10, "velocity": 45}, {"time": 118560, "pitch": 35, "duration": 10, "velocity": 120}, {"time": 118560, "pitch": 42, "duration": 10, "velocity": 80}, {"time": 118560, "pitch": 54, "duration": 10, "velocity": 75}, {"time": 118680, "pitch": 42, "duration": 10, "velocity": 60}, {"time": 118680, "pitch": 54, "duration": 10, "velocity": 45}, {"time": 118801, "pitch": 35, "duration": 10, "velocity": 105}, {"time": 118801, "pitch": 46, "duration": 10, "velocity": 75}, {"time": 118801, "pitch": 54, "duration": 10, "velocity": 105}, {"time": 118921, "pitch": 54, "duration": 10, "velocity": 45}, {"time": 119041, "pitch": 35, "duration": 10, "velocity": 120}, {"time": 119041, "pitch": 42, "duration": 10, "velocity": 80}, {"time": 119041, "pitch": 54, "duration": 10, "velocity": 75}, {"time": 119162, "pitch": 42, "duration": 10, "velocity": 60}, {"time": 119162, "pitch": 54, "duration": 10, "velocity": 45}, {"time": 119282, "pitch": 35, "duration": 10, "velocity": 105}, {"time": 119282, "pitch": 46, "duration": 10, "velocity": 75}, {"time": 119282, "pitch": 54, "duration": 10, "velocity": 105}, {"time": 119403, "pitch": 54, "duration": 10, "velocity": 45}, {"time": 119523, "pitch": 35, "duration": 10, "velocity": 120}, {"time": 119523, "pitch": 42, "duration": 10, "velocity": 80}, {"time": 119523, "pitch": 54, "duration": 10, "velocity": 75}, {"time": 119643, "pitch": 42, "duration": 10, "velocity": 60}, {"time": 119643, "pitch": 54, "duration": 10, "velocity": 45}, {"time": 119764, "pitch": 46, "duration": 10, "velocity": 75}, {"time": 119764, "pitch": 54, "duration": 10, "velocity": 105}, {"time": 119884, "pitch": 54, "duration": 10, "velocity": 45}, {"time": 120004, "pitch": 35, "duration": 10, "velocity": 120}, {"time": 120004, "pitch": 42, "duration": 10, "velocity": 80}, {"time": 120004, "pitch": 54, "duration": 10, "velocity": 75}, {"time": 120122, "pitch": 42, "duration": 10, "velocity": 60}, {"time": 120122, "pitch": 54, "duration": 10, "velocity": 45}, {"time": 120240, "pitch": 46, "duration": 10, "velocity": 75}, {"time": 120240, "pitch": 54, "duration": 10, "velocity": 105}, {"time": 120358, "pitch": 54, "duration": 10, "velocity": 45}, {"time": 120476, "pitch": 35, "duration": 10, "velocity": 120}, {"time": 120476, "pitch": 42, "duration": 10, "velocity": 80}, {"time": 120476, "pitch": 54, "duration": 10, "velocity": 75}, {"time": 120596, "pitch": 42, "duration": 10, "velocity": 60}, {"time": 120596, "pitch": 54, "duration": 10, "velocity": 45}, {"time": 120716, "pitch": 46, "duration": 10, "velocity": 75}, {"time": 120716, "pitch": 54, "duration": 10, "velocity": 105}, {"time": 120837, "pitch": 54, "duration": 10, "velocity": 45}, {"time": 120957, "pitch": 35, "duration": 10, "velocity": 120}, {"time": 120957, "pitch": 42, "duration": 10, "velocity": 80}, {"time": 120957, "pitch": 54, "duration": 10, "velocity": 75}, {"time": 121078, "pitch": 42, "duration": 10, "velocity": 60}, {"time": 121078, "pitch": 54, "duration": 10, "velocity": 45}, {"time": 121198, "pitch": 46, "duration": 10, "velocity": 75}, {"time": 121198, "pitch": 54, "duration": 10, "velocity": 105}, {"time": 121318, "pitch": 54, "duration": 10, "velocity": 45}, {"time": 121439, "pitch": 35, "duration": 10, "velocity": 120}, {"time": 121439, "pitch": 42, "duration": 10, "velocity": 80}, {"time": 121439, "pitch": 54, "duration": 10, "velocity": 75}, {"time": 121559, "pitch": 42, "duration": 10, "velocity": 60}, {"time": 121559, "pitch": 54, "duration": 10, "velocity": 45}, {"time": 121680, "pitch": 46, "duration": 10, "velocity": 75}, {"time": 121680, "pitch": 54, "duration": 10, "velocity": 105}, {"time": 121800, "pitch": 54, "duration": 10, "velocity": 45}, {"time": 121920, "pitch": 35, "duration": 10, "velocity": 120}, {"time": 121920, "pitch": 42, "duration": 10, "velocity": 80}, {"time": 121920, "pitch": 54, "duration": 10, "velocity": 75}, {"time": 122041, "pitch": 42, "duration": 10, "velocity": 60}, {"time": 122041, "pitch": 54, "duration": 10, "velocity": 45}, {"time": 122161, "pitch": 46, "duration": 10, "velocity": 75}, {"time": 122161, "pitch": 54, "duration": 10, "velocity": 105}, {"time": 122282, "pitch": 54, "duration": 10, "velocity": 45}, {"time": 122402, "pitch": 35, "duration": 10, "velocity": 120}, {"time": 122402, "pitch": 42, "duration": 10, "velocity": 80}, {"time": 122402, "pitch": 54, "duration": 10, "velocity": 75}, {"time": 122522, "pitch": 42, "duration": 10, "velocity": 60}, {"time": 122522, "pitch": 54, "duration": 10, "velocity": 45}, {"time": 122643, "pitch": 46, "duration": 10, "velocity": 75}, {"time": 122643, "pitch": 54, "duration": 10, "velocity": 105}, {"time": 122763, "pitch": 54, "duration": 10, "velocity": 45}, {"time": 122884, "pitch": 35, "duration": 10, "velocity": 120}, {"time": 122884, "pitch": 42, "duration": 10, "velocity": 80}, {"time": 122884, "pitch": 54, "duration": 10, "velocity": 75}, {"time": 123004, "pitch": 42, "duration": 10, "velocity": 60}, {"time": 123004, "pitch": 54, "duration": 10, "velocity": 45}, {"time": 123124, "pitch": 35, "duration": 10, "velocity": 105}, {"time": 123124, "pitch": 46, "duration": 10, "velocity": 75}, {"time": 123124, "pitch": 54, "duration": 10, "velocity": 105}, {"time": 123245, "pitch": 54, "duration": 10, "velocity": 45}, {"time": 123365, "pitch": 35, "duration": 10, "velocity": 120}, {"time": 123365, "pitch": 42, "duration": 10, "velocity": 80}, {"time": 123365, "pitch": 54, "duration": 10, "velocity": 75}, {"time": 123483, "pitch": 42, "duration": 10, "velocity": 60}, {"time": 123483, "pitch": 54, "duration": 10, "velocity": 45}, {"time": 123601, "pitch": 46, "duration": 10, "velocity": 75}, {"time": 123601, "pitch": 54, "duration": 10, "velocity": 105}, {"time": 123719, "pitch": 54, "duration": 9, "velocity": 45}, {"time": 123836, "pitch": 35, "duration": 10, "velocity": 120}, {"time": 123836, "pitch": 42, "duration": 10, "velocity": 80}, {"time": 123836, "pitch": 54, "duration": 10, "velocity": 75}, {"time": 123957, "pitch": 42, "duration": 10, "velocity": 60}, {"time": 123957, "pitch": 54, "duration": 10, "velocity": 45}, {"time": 124077, "pitch": 46, "duration": 10, "velocity": 75}, {"time": 124077, "pitch": 54, "duration": 10, "velocity": 105}, {"time": 124197, "pitch": 54, "duration": 11, "velocity": 45}, {"time": 124318, "pitch": 35, "duration": 10, "velocity": 120}, {"time": 124318, "pitch": 42, "duration": 10, "velocity": 80}, {"time": 124318, "pitch": 54, "duration": 10, "velocity": 75}, {"time": 124438, "pitch": 42, "duration": 10, "velocity": 60}, {"time": 124438, "pitch": 54, "duration": 10, "velocity": 45}, {"time": 124559, "pitch": 46, "duration": 10, "velocity": 75}, {"time": 124559, "pitch": 54, "duration": 10, "velocity": 105}, {"time": 124679, "pitch": 54, "duration": 10, "velocity": 45}, {"time": 124799, "pitch": 35, "duration": 11, "velocity": 120}, {"time": 124799, "pitch": 42, "duration": 11, "velocity": 80}, {"time": 124799, "pitch": 54, "duration": 11, "velocity": 75}, {"time": 124920, "pitch": 42, "duration": 10, "velocity": 60}, {"time": 124920, "pitch": 54, "duration": 10, "velocity": 45}, {"time": 125040, "pitch": 46, "duration": 10, "velocity": 75}, {"time": 125040, "pitch": 54, "duration": 10, "velocity": 105}, {"time": 125161, "pitch": 54, "duration": 10, "velocity": 45}, {"time": 125281, "pitch": 35, "duration": 10, "velocity": 120}, {"time": 125281, "pitch": 42, "duration": 10, "velocity": 80}, {"time": 125281, "pitch": 54, "duration": 10, "velocity": 75}, {"time": 125401, "pitch": 42, "duration": 10, "velocity": 60}, {"time": 125401, "pitch": 54, "duration": 10, "velocity": 45}, {"time": 125522, "pitch": 46, "duration": 10, "velocity": 75}, {"time": 125522, "pitch": 54, "duration": 10, "velocity": 105}, {"time": 125642, "pitch": 54, "duration": 10, "velocity": 45}, {"time": 125763, "pitch": 35, "duration": 10, "velocity": 120}, {"time": 125763, "pitch": 42, "duration": 10, "velocity": 80}, {"time": 125763, "pitch": 54, "duration": 10, "velocity": 75}, {"time": 125883, "pitch": 42, "duration": 10, "velocity": 60}, {"time": 125883, "pitch": 54, "duration": 10, "velocity": 45}, {"time": 126003, "pitch": 46, "duration": 10, "velocity": 75}, {"time": 126003, "pitch": 54, "duration": 10, "velocity": 105}, {"time": 126124, "pitch": 35, "duration": 10, "velocity": 105}, {"time": 126124, "pitch": 54, "duration": 10, "velocity": 45}, {"time": 127197, "pitch": 35, "duration": 10, "velocity": 120}, {"time": 127197, "pitch": 42, "duration": 10, "velocity": 80}, {"time": 127317, "pitch": 42, "duration": 10, "velocity": 60}, {"time": 127438, "pitch": 46, "duration": 10, "velocity": 75}, {"time": 127679, "pitch": 35, "duration": 10, "velocity": 120}, {"time": 127679, "pitch": 42, "duration": 10, "velocity": 80}, {"time": 127799, "pitch": 42, "duration": 10, "velocity": 60}, {"time": 127919, "pitch": 46, "duration": 10, "velocity": 75}, {"time": 127919, "pitch": 70, "duration": 10, "velocity": 120}, {"time": 128040, "pitch": 70, "duration": 10, "velocity": 120}, {"time": 128160, "pitch": 35, "duration": 10, "velocity": 120}, {"time": 128160, "pitch": 42, "duration": 10, "velocity": 80}, {"time": 128281, "pitch": 42, "duration": 10, "velocity": 60}, {"time": 128401, "pitch": 46, "duration": 10, "velocity": 75}, {"time": 128642, "pitch": 35, "duration": 10, "velocity": 120}, {"time": 128642, "pitch": 42, "duration": 10, "velocity": 80}, {"time": 128762, "pitch": 42, "duration": 10, "velocity": 60}, {"time": 128883, "pitch": 46, "duration": 10, "velocity": 75}, {"time": 129123, "pitch": 35, "duration": 10, "velocity": 120}, {"time": 129123, "pitch": 42, "duration": 10, "velocity": 80}, {"time": 129244, "pitch": 42, "duration": 10, "velocity": 60}, {"time": 129364, "pitch": 46, "duration": 10, "velocity": 75}, {"time": 129605, "pitch": 35, "duration": 10, "velocity": 120}, {"time": 129605, "pitch": 42, "duration": 10, "velocity": 80}, {"time": 129723, "pitch": 42, "duration": 9, "velocity": 60}, {"time": 129840, "pitch": 46, "duration": 10, "velocity": 75}, {"time": 130076, "pitch": 35, "duration": 10, "velocity": 120}, {"time": 130076, "pitch": 42, "duration": 10, "velocity": 80}, {"time": 130196, "pitch": 42, "duration": 10, "velocity": 60}, {"time": 130317, "pitch": 46, "duration": 10, "velocity": 75}, {"time": 130558, "pitch": 35, "duration": 10, "velocity": 120}, {"time": 130558, "pitch": 42, "duration": 10, "velocity": 80}, {"time": 130678, "pitch": 42, "duration": 10, "velocity": 60}, {"time": 130798, "pitch": 35, "duration": 10, "velocity": 105}, {"time": 130798, "pitch": 46, "duration": 10, "velocity": 75}, {"time": 131039, "pitch": 35, "duration": 10, "velocity": 120}, {"time": 131039, "pitch": 42, "duration": 10, "velocity": 80}, {"time": 131160, "pitch": 42, "duration": 10, "velocity": 60}, {"time": 131280, "pitch": 46, "duration": 10, "velocity": 75}, {"time": 131521, "pitch": 35, "duration": 10, "velocity": 120}, {"time": 131521, "pitch": 42, "duration": 10, "velocity": 80}, {"time": 131641, "pitch": 42, "duration": 10, "velocity": 60}, {"time": 131762, "pitch": 46, "duration": 10, "velocity": 75}, {"time": 131762, "pitch": 70, "duration": 10, "velocity": 120}, {"time": 131882, "pitch": 70, "duration": 10, "velocity": 120}, {"time": 132002, "pitch": 35, "duration": 10, "velocity": 120}, {"time": 132002, "pitch": 42, "duration": 10, "velocity": 80}, {"time": 132123, "pitch": 42, "duration": 10, "velocity": 60}, {"time": 132243, "pitch": 46, "duration": 10, "velocity": 75}, {"time": 132484, "pitch": 35, "duration": 10, "velocity": 120}, {"time": 132484, "pitch": 42, "duration": 10, "velocity": 80}, {"time": 132602, "pitch": 42, "duration": 10, "velocity": 60}, {"time": 132720, "pitch": 46, "duration": 9, "velocity": 75}, {"time": 132955, "pitch": 35, "duration": 10, "velocity": 120}, {"time": 132955, "pitch": 42, "duration": 10, "velocity": 80}, {"time": 133076, "pitch": 42, "duration": 10, "velocity": 60}, {"time": 133196, "pitch": 46, "duration": 10, "velocity": 75}, {"time": 133437, "pitch": 35, "duration": 10, "velocity": 120}, {"time": 133437, "pitch": 42, "duration": 10, "velocity": 80}, {"time": 133557, "pitch": 42, "duration": 10, "velocity": 60}, {"time": 133677, "pitch": 46, "duration": 11, "velocity": 75}, {"time": 133798, "pitch": 35, "duration": 10, "velocity": 105}, {"time": 133918, "pitch": 35, "duration": 10, "velocity": 120}, {"time": 133918, "pitch": 42, "duration": 10, "velocity": 80}, {"time": 134039, "pitch": 42, "duration": 10, "velocity": 60}, {"time": 134159, "pitch": 35, "duration": 10, "velocity": 105}, {"time": 134159, "pitch": 46, "duration": 10, "velocity": 75}, {"time": 134400, "pitch": 35, "duration": 10, "velocity": 120}, {"time": 134400, "pitch": 42, "duration": 10, "velocity": 80}, {"time": 134520, "pitch": 42, "duration": 10, "velocity": 60}, {"time": 134641, "pitch": 35, "duration": 10, "velocity": 105}, {"time": 134641, "pitch": 46, "duration": 10, "velocity": 75}, {"time": 134881, "pitch": 35, "duration": 10, "velocity": 120}, {"time": 134881, "pitch": 42, "duration": 10, "velocity": 80}, {"time": 135002, "pitch": 42, "duration": 10, "velocity": 60}, {"time": 135122, "pitch": 46, "duration": 10, "velocity": 75}, {"time": 135363, "pitch": 35, "duration": 10, "velocity": 120}, {"time": 135363, "pitch": 42, "duration": 10, "velocity": 80}, {"time": 135483, "pitch": 42, "duration": 10, "velocity": 60}, {"time": 135604, "pitch": 46, "duration": 10, "velocity": 75}, {"time": 135604, "pitch": 70, "duration": 10, "velocity": 120}, {"time": 135724, "pitch": 70, "duration": 10, "velocity": 120}, {"time": 135845, "pitch": 35, "duration": 9, "velocity": 120}, {"time": 135845, "pitch": 42, "duration": 9, "velocity": 80}, {"time": 135962, "pitch": 42, "duration": 10, "velocity": 60}, {"time": 136080, "pitch": 46, "duration": 10, "velocity": 75}, {"time": 136316, "pitch": 35, "duration": 10, "velocity": 120}, {"time": 136316, "pitch": 42, "duration": 10, "velocity": 80}, {"time": 136436, "pitch": 42, "duration": 10, "velocity": 60}, {"time": 136557, "pitch": 46, "duration": 10, "velocity": 75}, {"time": 136797, "pitch": 35, "duration": 10, "velocity": 120}, {"time": 136797, "pitch": 42, "duration": 10, "velocity": 80}, {"time": 136918, "pitch": 42, "duration": 10, "velocity": 60}, {"time": 137038, "pitch": 46, "duration": 10, "velocity": 75}, {"time": 137279, "pitch": 35, "duration": 10, "velocity": 120}, {"time": 137279, "pitch": 42, "duration": 10, "velocity": 80}, {"time": 137399, "pitch": 42, "duration": 10, "velocity": 60}, {"time": 137520, "pitch": 46, "duration": 10, "velocity": 75}, {"time": 137761, "pitch": 35, "duration": 10, "velocity": 120}, {"time": 137761, "pitch": 42, "duration": 10, "velocity": 80}, {"time": 137881, "pitch": 42, "duration": 10, "velocity": 60}, {"time": 138001, "pitch": 46, "duration": 10, "velocity": 75}, {"time": 138242, "pitch": 35, "duration": 10, "velocity": 120}, {"time": 138242, "pitch": 42, "duration": 10, "velocity": 80}, {"time": 138363, "pitch": 42, "duration": 10, "velocity": 60}, {"time": 138483, "pitch": 35, "duration": 10, "velocity": 105}, {"time": 138483, "pitch": 46, "duration": 10, "velocity": 75}, {"time": 138724, "pitch": 35, "duration": 9, "velocity": 120}, {"time": 138724, "pitch": 42, "duration": 9, "velocity": 80}, {"time": 138841, "pitch": 42, "duration": 10, "velocity": 60}, {"time": 138959, "pitch": 46, "duration": 10, "velocity": 75}, {"time": 139195, "pitch": 35, "duration": 10, "velocity": 120}, {"time": 139195, "pitch": 42, "duration": 10, "velocity": 80}, {"time": 139315, "pitch": 42, "duration": 10, "velocity": 60}, {"time": 139436, "pitch": 46, "duration": 10, "velocity": 75}, {"time": 139436, "pitch": 70, "duration": 10, "velocity": 120}, {"time": 139556, "pitch": 70, "duration": 10, "velocity": 120}, {"time": 139676, "pitch": 35, "duration": 10, "velocity": 120}, {"time": 139676, "pitch": 42, "duration": 10, "velocity": 80}, {"time": 139797, "pitch": 42, "duration": 10, "velocity": 60}, {"time": 139917, "pitch": 46, "duration": 10, "velocity": 75}, {"time": 140158, "pitch": 35, "duration": 10, "velocity": 120}, {"time": 140158, "pitch": 42, "duration": 10, "velocity": 80}, {"time": 140278, "pitch": 42, "duration": 10, "velocity": 60}, {"time": 140399, "pitch": 46, "duration": 10, "velocity": 75}, {"time": 140640, "pitch": 35, "duration": 10, "velocity": 120}, {"time": 140640, "pitch": 42, "duration": 10, "velocity": 80}, {"time": 140760, "pitch": 42, "duration": 10, "velocity": 60}, {"time": 140880, "pitch": 46, "duration": 10, "velocity": 75}, {"time": 141121, "pitch": 35, "duration": 10, "velocity": 120}, {"time": 141121, "pitch": 42, "duration": 10, "velocity": 80}, {"time": 141242, "pitch": 42, "duration": 10, "velocity": 60}, {"time": 141362, "pitch": 46, "duration": 10, "velocity": 75}, {"time": 141482, "pitch": 35, "duration": 10, "velocity": 105}, {"time": 141603, "pitch": 35, "duration": 10, "velocity": 120}, {"time": 141603, "pitch": 42, "duration": 10, "velocity": 80}, {"time": 141723, "pitch": 42, "duration": 10, "velocity": 60}, {"time": 141844, "pitch": 35, "duration": 10, "velocity": 105}, {"time": 141844, "pitch": 46, "duration": 10, "velocity": 75}, {"time": 142084, "pitch": 35, "duration": 10, "velocity": 120}, {"time": 142084, "pitch": 42, "duration": 10, "velocity": 80}, {"time": 142202, "pitch": 42, "duration": 10, "velocity": 60}, {"time": 142320, "pitch": 35, "duration": 10, "velocity": 105}, {"time": 142320, "pitch": 46, "duration": 10, "velocity": 75}, {"time": 142556, "pitch": 35, "duration": 10, "velocity": 120}, {"time": 142556, "pitch": 42, "duration": 10, "velocity": 80}, {"time": 142556, "pitch": 54, "duration": 10, "velocity": 75}, {"time": 142676, "pitch": 42, "duration": 10, "velocity": 60}, {"time": 142676, "pitch": 54, "duration": 10, "velocity": 45}, {"time": 142796, "pitch": 46, "duration": 10, "velocity": 75}, {"time": 142796, "pitch": 54, "duration": 10, "velocity": 105}, {"time": 142917, "pitch": 54, "duration": 10, "velocity": 45}, {"time": 143037, "pitch": 35, "duration": 10, "velocity": 120}, {"time": 143037, "pitch": 42, "duration": 10, "velocity": 80}, {"time": 143037, "pitch": 54, "duration": 10, "velocity": 75}, {"time": 143157, "pitch": 42, "duration": 11, "velocity": 60}, {"time": 143157, "pitch": 54, "duration": 11, "velocity": 105}, {"time": 143278, "pitch": 46, "duration": 10, "velocity": 75}, {"time": 143278, "pitch": 54, "duration": 10, "velocity": 45}, {"time": 143398, "pitch": 54, "duration": 10, "velocity": 75}, {"time": 143519, "pitch": 35, "duration": 10, "velocity": 120}, {"time": 143519, "pitch": 42, "duration": 10, "velocity": 80}, {"time": 143519, "pitch": 54, "duration": 10, "velocity": 45}, {"time": 143639, "pitch": 42, "duration": 10, "velocity": 60}, {"time": 143639, "pitch": 54, "duration": 10, "velocity": 75}, {"time": 143759, "pitch": 46, "duration": 11, "velocity": 75}, {"time": 143759, "pitch": 54, "duration": 11, "velocity": 105}, {"time": 143880, "pitch": 54, "duration": 10, "velocity": 45}, {"time": 144000, "pitch": 35, "duration": 10, "velocity": 120}, {"time": 144000, "pitch": 42, "duration": 10, "velocity": 80}, {"time": 144000, "pitch": 54, "duration": 10, "velocity": 75}, {"time": 144121, "pitch": 42, "duration": 10, "velocity": 60}, {"time": 144121, "pitch": 54, "duration": 10, "velocity": 45}, {"time": 144241, "pitch": 46, "duration": 10, "velocity": 75}, {"time": 144241, "pitch": 54, "duration": 10, "velocity": 75}, {"time": 144361, "pitch": 54, "duration": 10, "velocity": 105}, {"time": 144482, "pitch": 35, "duration": 10, "velocity": 120}, {"time": 144482, "pitch": 42, "duration": 10, "velocity": 80}, {"time": 144482, "pitch": 54, "duration": 10, "velocity": 75}, {"time": 144602, "pitch": 42, "duration": 10, "velocity": 60}, {"time": 144602, "pitch": 54, "duration": 10, "velocity": 45}, {"time": 144723, "pitch": 46, "duration": 10, "velocity": 75}, {"time": 144723, "pitch": 54, "duration": 10, "velocity": 105}, {"time": 144843, "pitch": 54, "duration": 10, "velocity": 45}, {"time": 144963, "pitch": 35, "duration": 10, "velocity": 120}, {"time": 144963, "pitch": 42, "duration": 10, "velocity": 80}, {"time": 144963, "pitch": 54, "duration": 10, "velocity": 75}, {"time": 145084, "pitch": 42, "duration": 10, "velocity": 60}, {"time": 145084, "pitch": 54, "duration": 10, "velocity": 105}, {"time": 145204, "pitch": 46, "duration": 10, "velocity": 75}, {"time": 145204, "pitch": 54, "duration": 10, "velocity": 45}, {"time": 145325, "pitch": 54, "duration": 10, "velocity": 75}, {"time": 145445, "pitch": 35, "duration": 10, "velocity": 120}, {"time": 145445, "pitch": 42, "duration": 10, "velocity": 80}, {"time": 145445, "pitch": 54, "duration": 10, "velocity": 45}, {"time": 145563, "pitch": 42, "duration": 10, "velocity": 60}, {"time": 145563, "pitch": 54, "duration": 10, "velocity": 75}, {"time": 145681, "pitch": 46, "duration": 9, "velocity": 75}, {"time": 145681, "pitch": 54, "duration": 9, "velocity": 105}, {"time": 145798, "pitch": 54, "duration": 10, "velocity": 45}, {"time": 145916, "pitch": 35, "duration": 10, "velocity": 120}, {"time": 145916, "pitch": 42, "duration": 10, "velocity": 80}, {"time": 145916, "pitch": 54, "duration": 10, "velocity": 75}, {"time": 146037, "pitch": 42, "duration": 10, "velocity": 60}, {"time": 146037, "pitch": 54, "duration": 10, "velocity": 45}, {"time": 146157, "pitch": 35, "duration": 10, "velocity": 105}, {"time": 146157, "pitch": 46, "duration": 10, "velocity": 75}, {"time": 146157, "pitch": 54, "duration": 10, "velocity": 75}, {"time": 146277, "pitch": 54, "duration": 10, "velocity": 105}, {"time": 146398, "pitch": 35, "duration": 10, "velocity": 120}, {"time": 146398, "pitch": 42, "duration": 10, "velocity": 80}, {"time": 146398, "pitch": 54, "duration": 10, "velocity": 75}, {"time": 146518, "pitch": 42, "duration": 10, "velocity": 60}, {"time": 146518, "pitch": 54, "duration": 10, "velocity": 45}, {"time": 146639, "pitch": 46, "duration": 10, "velocity": 75}, {"time": 146639, "pitch": 54, "duration": 10, "velocity": 105}, {"time": 146759, "pitch": 54, "duration": 10, "velocity": 45}, {"time": 146879, "pitch": 35, "duration": 10, "velocity": 120}, {"time": 146879, "pitch": 42, "duration": 10, "velocity": 80}, {"time": 146879, "pitch": 54, "duration": 10, "velocity": 75}, {"time": 147000, "pitch": 42, "duration": 10, "velocity": 60}, {"time": 147000, "pitch": 54, "duration": 10, "velocity": 105}, {"time": 147120, "pitch": 46, "duration": 10, "velocity": 75}, {"time": 147120, "pitch": 54, "duration": 10, "velocity": 45}, {"time": 147241, "pitch": 54, "duration": 10, "velocity": 75}, {"time": 147361, "pitch": 35, "duration": 10, "velocity": 120}, {"time": 147361, "pitch": 42, "duration": 10, "velocity": 80}, {"time": 147361, "pitch": 54, "duration": 10, "velocity": 45}, {"time": 147481, "pitch": 42, "duration": 10, "velocity": 60}, {"time": 147481, "pitch": 54, "duration": 10, "velocity": 75}, {"time": 147602, "pitch": 46, "duration": 10, "velocity": 75}, {"time": 147602, "pitch": 54, "duration": 10, "velocity": 105}, {"time": 147722, "pitch": 54, "duration": 10, "velocity": 45}, {"time": 147843, "pitch": 35, "duration": 10, "velocity": 120}, {"time": 147843, "pitch": 42, "duration": 10, "velocity": 80}, {"time": 147843, "pitch": 54, "duration": 10, "velocity": 75}, {"time": 147963, "pitch": 42, "duration": 10, "velocity": 60}, {"time": 147963, "pitch": 54, "duration": 10, "velocity": 45}, {"time": 148083, "pitch": 46, "duration": 10, "velocity": 75}, {"time": 148083, "pitch": 54, "duration": 10, "velocity": 75}, {"time": 148204, "pitch": 54, "duration": 10, "velocity": 105}, {"time": 148324, "pitch": 35, "duration": 10, "velocity": 120}, {"time": 148324, "pitch": 42, "duration": 10, "velocity": 80}, {"time": 148324, "pitch": 54, "duration": 10, "velocity": 75}, {"time": 148442, "pitch": 42, "duration": 10, "velocity": 60}, {"time": 148442, "pitch": 54, "duration": 10, "velocity": 45}, {"time": 148560, "pitch": 46, "duration": 9, "velocity": 75}, {"time": 148560, "pitch": 54, "duration": 9, "velocity": 105}, {"time": 148678, "pitch": 54, "duration": 9, "velocity": 45}, {"time": 148795, "pitch": 35, "duration": 10, "velocity": 120}, {"time": 148795, "pitch": 42, "duration": 10, "velocity": 80}, {"time": 148795, "pitch": 54, "duration": 10, "velocity": 75}, {"time": 148916, "pitch": 42, "duration": 10, "velocity": 60}, {"time": 148916, "pitch": 54, "duration": 10, "velocity": 105}, {"time": 149036, "pitch": 46, "duration": 10, "velocity": 75}, {"time": 149036, "pitch": 54, "duration": 10, "velocity": 45}, {"time": 149156, "pitch": 35, "duration": 10, "velocity": 105}, {"time": 149156, "pitch": 54, "duration": 10, "velocity": 75}, {"time": 149277, "pitch": 35, "duration": 10, "velocity": 120}, {"time": 149277, "pitch": 42, "duration": 10, "velocity": 80}, {"time": 149277, "pitch": 54, "duration": 10, "velocity": 45}, {"time": 149397, "pitch": 42, "duration": 10, "velocity": 60}, {"time": 149397, "pitch": 54, "duration": 10, "velocity": 75}, {"time": 149518, "pitch": 35, "duration": 10, "velocity": 105}, {"time": 149518, "pitch": 46, "duration": 10, "velocity": 75}, {"time": 149518, "pitch": 54, "duration": 10, "velocity": 105}, {"time": 149638, "pitch": 54, "duration": 10, "velocity": 45}, {"time": 149758, "pitch": 35, "duration": 10, "velocity": 120}, {"time": 149758, "pitch": 42, "duration": 10, "velocity": 80}, {"time": 149758, "pitch": 54, "duration": 10, "velocity": 75}, {"time": 149879, "pitch": 42, "duration": 10, "velocity": 60}, {"time": 149879, "pitch": 54, "duration": 10, "velocity": 45}, {"time": 149999, "pitch": 35, "duration": 10, "velocity": 105}, {"time": 149999, "pitch": 46, "duration": 10, "velocity": 75}, {"time": 149999, "pitch": 54, "duration": 10, "velocity": 75}, {"time": 150120, "pitch": 54, "duration": 10, "velocity": 105}, {"time": 150240, "pitch": 35, "duration": 10, "velocity": 120}, {"time": 150240, "pitch": 42, "duration": 10, "velocity": 80}, {"time": 150240, "pitch": 54, "duration": 10, "velocity": 75}, {"time": 150360, "pitch": 42, "duration": 10, "velocity": 60}, {"time": 150360, "pitch": 54, "duration": 10, "velocity": 45}, {"time": 150481, "pitch": 46, "duration": 10, "velocity": 75}, {"time": 150481, "pitch": 54, "duration": 10, "velocity": 105}, {"time": 150601, "pitch": 54, "duration": 10, "velocity": 45}, {"time": 150722, "pitch": 35, "duration": 10, "velocity": 120}, {"time": 150722, "pitch": 42, "duration": 10, "velocity": 80}, {"time": 150722, "pitch": 54, "duration": 10, "velocity": 75}, {"time": 150842, "pitch": 42, "duration": 10, "velocity": 60}, {"time": 150842, "pitch": 54, "duration": 10, "velocity": 105}, {"time": 150962, "pitch": 46, "duration": 10, "velocity": 75}, {"time": 150962, "pitch": 54, "duration": 10, "velocity": 45}, {"time": 151083, "pitch": 54, "duration": 10, "velocity": 75}, {"time": 151203, "pitch": 35, "duration": 10, "velocity": 120}, {"time": 151203, "pitch": 42, "duration": 10, "velocity": 80}, {"time": 151203, "pitch": 54, "duration": 10, "velocity": 45}, {"time": 151324, "pitch": 42, "duration": 10, "velocity": 60}, {"time": 151324, "pitch": 54, "duration": 10, "velocity": 75}, {"time": 151444, "pitch": 46, "duration": 10, "velocity": 75}, {"time": 151444, "pitch": 54, "duration": 10, "velocity": 105}, {"time": 151564, "pitch": 54, "duration": 10, "velocity": 45}, {"time": 151685, "pitch": 35, "duration": 9, "velocity": 120}, {"time": 151685, "pitch": 42, "duration": 9, "velocity": 80}, {"time": 151685, "pitch": 54, "duration": 9, "velocity": 75}, {"time": 151802, "pitch": 42, "duration": 10, "velocity": 60}, {"time": 151802, "pitch": 54, "duration": 10, "velocity": 45}, {"time": 151920, "pitch": 46, "duration": 10, "velocity": 75}, {"time": 151920, "pitch": 54, "duration": 10, "velocity": 75}, {"time": 152038, "pitch": 54, "duration": 10, "velocity": 105}, {"time": 152156, "pitch": 35, "duration": 10, "velocity": 120}, {"time": 152156, "pitch": 42, "duration": 10, "velocity": 80}, {"time": 152156, "pitch": 54, "duration": 10, "velocity": 75}, {"time": 152276, "pitch": 42, "duration": 10, "velocity": 60}, {"time": 152276, "pitch": 54, "duration": 10, "velocity": 45}, {"time": 152397, "pitch": 46, "duration": 10, "velocity": 75}, {"time": 152397, "pitch": 54, "duration": 10, "velocity": 105}, {"time": 152517, "pitch": 54, "duration": 10, "velocity": 45}, {"time": 152637, "pitch": 35, "duration": 11, "velocity": 120}, {"time": 152637, "pitch": 42, "duration": 11, "velocity": 80}, {"time": 152637, "pitch": 54, "duration": 11, "velocity": 75}, {"time": 152758, "pitch": 42, "duration": 10, "velocity": 60}, {"time": 152758, "pitch": 54, "duration": 10, "velocity": 105}, {"time": 152878, "pitch": 46, "duration": 10, "velocity": 75}, {"time": 152878, "pitch": 54, "duration": 10, "velocity": 45}, {"time": 152999, "pitch": 54, "duration": 10, "velocity": 75}, {"time": 153119, "pitch": 35, "duration": 10, "velocity": 120}, {"time": 153119, "pitch": 42, "duration": 10, "velocity": 80}, {"time": 153119, "pitch": 54, "duration": 10, "velocity": 45}, {"time": 153239, "pitch": 42, "duration": 11, "velocity": 60}, {"time": 153239, "pitch": 54, "duration": 11, "velocity": 75}, {"time": 153360, "pitch": 46, "duration": 10, "velocity": 75}, {"time": 153360, "pitch": 54, "duration": 10, "velocity": 105}, {"time": 153480, "pitch": 54, "duration": 10, "velocity": 45}, {"time": 153601, "pitch": 35, "duration": 10, "velocity": 120}, {"time": 153601, "pitch": 42, "duration": 10, "velocity": 80}, {"time": 153601, "pitch": 54, "duration": 10, "velocity": 75}, {"time": 153721, "pitch": 42, "duration": 10, "velocity": 60}, {"time": 153721, "pitch": 54, "duration": 10, "velocity": 45}, {"time": 153841, "pitch": 35, "duration": 10, "velocity": 105}, {"time": 153841, "pitch": 46, "duration": 10, "velocity": 75}, {"time": 153841, "pitch": 54, "duration": 10, "velocity": 75}, {"time": 153962, "pitch": 54, "duration": 10, "velocity": 105}, {"time": 154082, "pitch": 35, "duration": 10, "velocity": 120}, {"time": 154082, "pitch": 42, "duration": 10, "velocity": 80}, {"time": 154082, "pitch": 54, "duration": 10, "velocity": 75}, {"time": 154203, "pitch": 42, "duration": 10, "velocity": 60}, {"time": 154203, "pitch": 54, "duration": 10, "velocity": 45}, {"time": 154323, "pitch": 46, "duration": 10, "velocity": 75}, {"time": 154323, "pitch": 54, "duration": 10, "velocity": 105}, {"time": 154443, "pitch": 54, "duration": 10, "velocity": 45}, {"time": 154564, "pitch": 35, "duration": 10, "velocity": 120}, {"time": 154564, "pitch": 42, "duration": 10, "velocity": 80}, {"time": 154564, "pitch": 54, "duration": 10, "velocity": 75}, {"time": 154682, "pitch": 42, "duration": 9, "velocity": 60}, {"time": 154682, "pitch": 54, "duration": 9, "velocity": 105}, {"time": 154799, "pitch": 46, "duration": 10, "velocity": 75}, {"time": 154799, "pitch": 54, "duration": 10, "velocity": 45}, {"time": 154917, "pitch": 54, "duration": 10, "velocity": 75}, {"time": 155035, "pitch": 35, "duration": 10, "velocity": 120}, {"time": 155035, "pitch": 42, "duration": 10, "velocity": 80}, {"time": 155035, "pitch": 54, "duration": 10, "velocity": 45}, {"time": 155155, "pitch": 40, "duration": 10, "velocity": 100}, {"time": 155155, "pitch": 42, "duration": 10, "velocity": 60}, {"time": 155155, "pitch": 54, "duration": 10, "velocity": 75}, {"time": 155276, "pitch": 46, "duration": 10, "velocity": 75}, {"time": 155276, "pitch": 54, "duration": 10, "velocity": 105}, {"time": 155396, "pitch": 54, "duration": 10, "velocity": 45}, {"time": 155517, "pitch": 35, "duration": 10, "velocity": 120}, {"time": 155517, "pitch": 42, "duration": 10, "velocity": 80}, {"time": 155517, "pitch": 54, "duration": 10, "velocity": 75}, {"time": 155637, "pitch": 40, "duration": 10, "velocity": 100}, {"time": 155637, "pitch": 42, "duration": 10, "velocity": 60}, {"time": 155637, "pitch": 54, "duration": 10, "velocity": 45}, {"time": 155757, "pitch": 40, "duration": 10, "velocity": 100}, {"time": 155757, "pitch": 46, "duration": 10, "velocity": 75}, {"time": 155757, "pitch": 54, "duration": 10, "velocity": 75}, {"time": 155878, "pitch": 40, "duration": 10, "velocity": 100}, {"time": 155878, "pitch": 54, "duration": 10, "velocity": 105}, {"time": 155998, "pitch": 35, "duration": 10, "velocity": 120}, {"time": 155998, "pitch": 40, "duration": 10, "velocity": 100}, {"time": 155998, "pitch": 54, "duration": 10, "velocity": 105}, {"time": 156119, "pitch": 54, "duration": 10, "velocity": 45}, {"time": 156239, "pitch": 54, "duration": 10, "velocity": 75}, {"time": 156359, "pitch": 35, "duration": 10, "velocity": 120}, {"time": 156359, "pitch": 40, "duration": 10, "velocity": 100}, {"time": 156359, "pitch": 54, "duration": 10, "velocity": 105}, {"time": 156480, "pitch": 54, "duration": 10, "velocity": 45}, {"time": 156600, "pitch": 54, "duration": 10, "velocity": 75}, {"time": 156721, "pitch": 35, "duration": 10, "velocity": 120}, {"time": 156721, "pitch": 40, "duration": 10, "velocity": 100}, {"time": 156721, "pitch": 54, "duration": 10, "velocity": 105}, {"time": 156841, "pitch": 54, "duration": 10, "velocity": 45}, {"time": 156961, "pitch": 35, "duration": 10, "velocity": 120}, {"time": 156961, "pitch": 40, "duration": 10, "velocity": 100}, {"time": 156961, "pitch": 54, "duration": 10, "velocity": 105}, {"time": 157323, "pitch": 35, "duration": 10, "velocity": 120}, {"time": 157443, "pitch": 35, "duration": 10, "velocity": 120}, {"time": 157523, "pitch": 35, "duration": 10, "velocity": 120}, {"time": 157603, "pitch": 35, "duration": 10, "velocity": 120}, {"time": 157684, "pitch": 35, "duration": 10, "velocity": 120}, {"time": 157764, "pitch": 35, "duration": 10, "velocity": 120}, {"time": 157844, "pitch": 35, "duration": 10, "velocity": 120}, {"time": 157924, "pitch": 35, "duration": 10, "velocity": 120}, {"time": 157924, "pitch": 42, "duration": 10, "velocity": 80}, {"time": 157924, "pitch": 54, "duration": 10, "velocity": 75}, {"time": 158042, "pitch": 42, "duration": 10, "velocity": 60}, {"time": 158042, "pitch": 54, "duration": 10, "velocity": 45}, {"time": 158160, "pitch": 46, "duration": 10, "velocity": 75}, {"time": 158160, "pitch": 54, "duration": 10, "velocity": 105}, {"time": 158278, "pitch": 54, "duration": 10, "velocity": 45}, {"time": 158396, "pitch": 35, "duration": 10, "velocity": 120}, {"time": 158396, "pitch": 42, "duration": 10, "velocity": 80}, {"time": 158396, "pitch": 54, "duration": 10, "velocity": 75}, {"time": 158516, "pitch": 42, "duration": 10, "velocity": 60}, {"time": 158516, "pitch": 54, "duration": 10, "velocity": 45}, {"time": 158636, "pitch": 46, "duration": 10, "velocity": 75}, {"time": 158636, "pitch": 54, "duration": 10, "velocity": 105}, {"time": 158757, "pitch": 54, "duration": 10, "velocity": 45}, {"time": 158877, "pitch": 35, "duration": 10, "velocity": 120}, {"time": 158877, "pitch": 42, "duration": 10, "velocity": 80}, {"time": 158877, "pitch": 54, "duration": 10, "velocity": 75}, {"time": 158998, "pitch": 42, "duration": 10, "velocity": 60}, {"time": 158998, "pitch": 54, "duration": 10, "velocity": 45}, {"time": 159118, "pitch": 46, "duration": 10, "velocity": 75}, {"time": 159118, "pitch": 54, "duration": 10, "velocity": 105}, {"time": 159238, "pitch": 54, "duration": 10, "velocity": 45}, {"time": 159359, "pitch": 35, "duration": 10, "velocity": 120}, {"time": 159359, "pitch": 42, "duration": 10, "velocity": 80}, {"time": 159359, "pitch": 54, "duration": 10, "velocity": 75}, {"time": 159479, "pitch": 42, "duration": 10, "velocity": 60}, {"time": 159479, "pitch": 54, "duration": 10, "velocity": 45}, {"time": 159600, "pitch": 46, "duration": 10, "velocity": 75}, {"time": 159600, "pitch": 54, "duration": 10, "velocity": 105}, {"time": 159720, "pitch": 54, "duration": 10, "velocity": 45}, {"time": 159840, "pitch": 35, "duration": 10, "velocity": 120}, {"time": 159840, "pitch": 42, "duration": 10, "velocity": 80}, {"time": 159840, "pitch": 54, "duration": 10, "velocity": 75}, {"time": 159961, "pitch": 42, "duration": 10, "velocity": 60}, {"time": 159961, "pitch": 54, "duration": 10, "velocity": 45}, {"time": 160081, "pitch": 46, "duration": 10, "velocity": 75}, {"time": 160081, "pitch": 54, "duration": 10, "velocity": 105}, {"time": 160202, "pitch": 54, "duration": 10, "velocity": 45}, {"time": 160322, "pitch": 35, "duration": 10, "velocity": 120}, {"time": 160322, "pitch": 42, "duration": 10, "velocity": 80}, {"time": 160322, "pitch": 54, "duration": 10, "velocity": 75}, {"time": 160442, "pitch": 42, "duration": 10, "velocity": 60}, {"time": 160442, "pitch": 54, "duration": 10, "velocity": 45}, {"time": 160563, "pitch": 46, "duration": 10, "velocity": 75}, {"time": 160563, "pitch": 54, "duration": 10, "velocity": 105}, {"time": 160683, "pitch": 54, "duration": 10, "velocity": 45}, {"time": 160804, "pitch": 35, "duration": 10, "velocity": 120}, {"time": 160804, "pitch": 42, "duration": 10, "velocity": 80}, {"time": 160804, "pitch": 54, "duration": 10, "velocity": 75}, {"time": 160924, "pitch": 42, "duration": 10, "velocity": 60}, {"time": 160924, "pitch": 54, "duration": 10, "velocity": 45}, {"time": 161044, "pitch": 46, "duration": 10, "velocity": 75}, {"time": 161044, "pitch": 54, "duration": 10, "velocity": 105}, {"time": 161165, "pitch": 54, "duration": 10, "velocity": 45}, {"time": 161285, "pitch": 35, "duration": 10, "velocity": 120}, {"time": 161285, "pitch": 42, "duration": 10, "velocity": 80}, {"time": 161285, "pitch": 54, "duration": 10, "velocity": 75}, {"time": 161403, "pitch": 42, "duration": 10, "velocity": 60}, {"time": 161403, "pitch": 54, "duration": 10, "velocity": 45}, {"time": 161521, "pitch": 35, "duration": 10, "velocity": 105}, {"time": 161521, "pitch": 46, "duration": 10, "velocity": 75}, {"time": 161521, "pitch": 54, "duration": 10, "velocity": 105}, {"time": 161639, "pitch": 54, "duration": 9, "velocity": 45}, {"time": 161756, "pitch": 35, "duration": 10, "velocity": 120}, {"time": 161756, "pitch": 42, "duration": 10, "velocity": 80}, {"time": 161756, "pitch": 54, "duration": 10, "velocity": 75}, {"time": 161877, "pitch": 42, "duration": 10, "velocity": 60}, {"time": 161877, "pitch": 54, "duration": 10, "velocity": 45}, {"time": 161997, "pitch": 46, "duration": 10, "velocity": 75}, {"time": 161997, "pitch": 54, "duration": 10, "velocity": 105}, {"time": 162117, "pitch": 54, "duration": 11, "velocity": 45}, {"time": 162238, "pitch": 35, "duration": 10, "velocity": 120}, {"time": 162238, "pitch": 42, "duration": 10, "velocity": 80}, {"time": 162238, "pitch": 54, "duration": 10, "velocity": 75}, {"time": 162358, "pitch": 42, "duration": 10, "velocity": 60}, {"time": 162358, "pitch": 54, "duration": 10, "velocity": 45}, {"time": 162479, "pitch": 46, "duration": 10, "velocity": 75}, {"time": 162479, "pitch": 54, "duration": 10, "velocity": 105}, {"time": 162599, "pitch": 54, "duration": 10, "velocity": 45}, {"time": 162719, "pitch": 35, "duration": 11, "velocity": 120}, {"time": 162719, "pitch": 42, "duration": 11, "velocity": 80}, {"time": 162719, "pitch": 54, "duration": 11, "velocity": 75}, {"time": 162840, "pitch": 42, "duration": 10, "velocity": 60}, {"time": 162840, "pitch": 54, "duration": 10, "velocity": 45}, {"time": 162960, "pitch": 46, "duration": 10, "velocity": 75}, {"time": 162960, "pitch": 54, "duration": 10, "velocity": 105}, {"time": 163081, "pitch": 54, "duration": 10, "velocity": 45}, {"time": 163201, "pitch": 35, "duration": 10, "velocity": 120}, {"time": 163201, "pitch": 42, "duration": 10, "velocity": 80}, {"time": 163201, "pitch": 54, "duration": 10, "velocity": 75}, {"time": 163321, "pitch": 42, "duration": 10, "velocity": 60}, {"time": 163321, "pitch": 54, "duration": 10, "velocity": 45}, {"time": 163442, "pitch": 46, "duration": 10, "velocity": 75}, {"time": 163442, "pitch": 54, "duration": 10, "velocity": 105}, {"time": 163562, "pitch": 54, "duration": 10, "velocity": 45}, {"time": 163683, "pitch": 35, "duration": 10, "velocity": 120}, {"time": 163683, "pitch": 42, "duration": 10, "velocity": 80}, {"time": 163683, "pitch": 54, "duration": 10, "velocity": 75}, {"time": 163803, "pitch": 42, "duration": 10, "velocity": 60}, {"time": 163803, "pitch": 54, "duration": 10, "velocity": 45}, {"time": 163923, "pitch": 46, "duration": 10, "velocity": 75}, {"time": 163923, "pitch": 54, "duration": 10, "velocity": 105}, {"time": 164044, "pitch": 54, "duration": 10, "velocity": 45}, {"time": 164164, "pitch": 35, "duration": 10, "velocity": 120}, {"time": 164164, "pitch": 42, "duration": 10, "velocity": 80}, {"time": 164164, "pitch": 54, "duration": 10, "velocity": 75}, {"time": 164282, "pitch": 42, "duration": 10, "velocity": 60}, {"time": 164282, "pitch": 54, "duration": 10, "velocity": 45}, {"time": 164400, "pitch": 46, "duration": 10, "velocity": 75}, {"time": 164400, "pitch": 54, "duration": 10, "velocity": 105}, {"time": 164518, "pitch": 35, "duration": 9, "velocity": 105}, {"time": 164518, "pitch": 54, "duration": 9, "velocity": 45}, {"time": 164635, "pitch": 35, "duration": 10, "velocity": 120}, {"time": 164635, "pitch": 42, "duration": 10, "velocity": 80}, {"time": 164635, "pitch": 54, "duration": 10, "velocity": 75}, {"time": 164756, "pitch": 42, "duration": 10, "velocity": 60}, {"time": 164756, "pitch": 54, "duration": 10, "velocity": 45}, {"time": 164876, "pitch": 35, "duration": 10, "velocity": 105}, {"time": 164876, "pitch": 46, "duration": 10, "velocity": 75}, {"time": 164876, "pitch": 54, "duration": 10, "velocity": 105}, {"time": 164997, "pitch": 54, "duration": 10, "velocity": 45}, {"time": 165117, "pitch": 35, "duration": 10, "velocity": 120}, {"time": 165117, "pitch": 42, "duration": 10, "velocity": 80}, {"time": 165117, "pitch": 54, "duration": 10, "velocity": 75}, {"time": 165237, "pitch": 42, "duration": 10, "velocity": 60}, {"time": 165237, "pitch": 54, "duration": 10, "velocity": 45}, {"time": 165358, "pitch": 35, "duration": 10, "velocity": 105}, {"time": 165358, "pitch": 46, "duration": 10, "velocity": 75}, {"time": 165358, "pitch": 54, "duration": 10, "velocity": 105}, {"time": 165478, "pitch": 54, "duration": 10, "velocity": 45}, {"time": 165599, "pitch": 35, "duration": 10, "velocity": 120}, {"time": 165599, "pitch": 42, "duration": 10, "velocity": 80}, {"time": 165599, "pitch": 54, "duration": 10, "velocity": 75}, {"time": 165719, "pitch": 42, "duration": 10, "velocity": 60}, {"time": 165719, "pitch": 54, "duration": 10, "velocity": 45}, {"time": 165839, "pitch": 46, "duration": 10, "velocity": 75}, {"time": 165839, "pitch": 54, "duration": 10, "velocity": 105}, {"time": 165960, "pitch": 54, "duration": 10, "velocity": 45}, {"time": 166080, "pitch": 35, "duration": 10, "velocity": 120}, {"time": 166080, "pitch": 42, "duration": 10, "velocity": 80}, {"time": 166080, "pitch": 54, "duration": 10, "velocity": 75}, {"time": 166201, "pitch": 42, "duration": 10, "velocity": 60}, {"time": 166201, "pitch": 54, "duration": 10, "velocity": 45}, {"time": 166321, "pitch": 46, "duration": 10, "velocity": 75}, {"time": 166321, "pitch": 54, "duration": 10, "velocity": 105}, {"time": 166441, "pitch": 54, "duration": 10, "velocity": 45}, {"time": 166562, "pitch": 35, "duration": 10, "velocity": 120}, {"time": 166562, "pitch": 42, "duration": 10, "velocity": 80}, {"time": 166562, "pitch": 54, "duration": 10, "velocity": 75}, {"time": 166682, "pitch": 42, "duration": 10, "velocity": 60}, {"time": 166682, "pitch": 54, "duration": 10, "velocity": 45}, {"time": 166803, "pitch": 46, "duration": 10, "velocity": 75}, {"time": 166803, "pitch": 54, "duration": 10, "velocity": 105}, {"time": 166923, "pitch": 54, "duration": 10, "velocity": 45}, {"time": 167043, "pitch": 35, "duration": 10, "velocity": 120}, {"time": 167043, "pitch": 42, "duration": 10, "velocity": 80}, {"time": 167043, "pitch": 54, "duration": 10, "velocity": 75}, {"time": 167164, "pitch": 42, "duration": 10, "velocity": 60}, {"time": 167164, "pitch": 54, "duration": 10, "velocity": 45}, {"time": 167284, "pitch": 46, "duration": 10, "velocity": 75}, {"time": 167284, "pitch": 54, "duration": 10, "velocity": 105}, {"time": 167404, "pitch": 54, "duration": 11, "velocity": 45}, {"time": 167525, "pitch": 35, "duration": 10, "velocity": 120}, {"time": 167525, "pitch": 42, "duration": 10, "velocity": 80}, {"time": 167525, "pitch": 54, "duration": 10, "velocity": 75}, {"time": 167643, "pitch": 42, "duration": 9, "velocity": 60}, {"time": 167643, "pitch": 54, "duration": 9, "velocity": 45}, {"time": 167760, "pitch": 46, "duration": 10, "velocity": 75}, {"time": 167760, "pitch": 54, "duration": 10, "velocity": 105}, {"time": 167878, "pitch": 54, "duration": 10, "velocity": 45}, {"time": 167996, "pitch": 35, "duration": 10, "velocity": 120}, {"time": 167996, "pitch": 42, "duration": 10, "velocity": 80}, {"time": 167996, "pitch": 54, "duration": 10, "velocity": 75}, {"time": 168116, "pitch": 42, "duration": 10, "velocity": 60}, {"time": 168116, "pitch": 54, "duration": 10, "velocity": 45}, {"time": 168237, "pitch": 46, "duration": 10, "velocity": 75}, {"time": 168237, "pitch": 54, "duration": 10, "velocity": 105}, {"time": 168357, "pitch": 54, "duration": 10, "velocity": 45}, {"time": 168478, "pitch": 35, "duration": 10, "velocity": 120}, {"time": 168478, "pitch": 42, "duration": 10, "velocity": 80}, {"time": 168478, "pitch": 54, "duration": 10, "velocity": 75}, {"time": 168598, "pitch": 42, "duration": 10, "velocity": 60}, {"time": 168598, "pitch": 54, "duration": 10, "velocity": 45}, {"time": 168718, "pitch": 46, "duration": 10, "velocity": 75}, {"time": 168718, "pitch": 54, "duration": 10, "velocity": 105}, {"time": 168839, "pitch": 54, "duration": 10, "velocity": 45}, {"time": 168959, "pitch": 35, "duration": 10, "velocity": 120}, {"time": 168959, "pitch": 42, "duration": 10, "velocity": 80}, {"time": 168959, "pitch": 54, "duration": 10, "velocity": 75}, {"time": 169080, "pitch": 42, "duration": 10, "velocity": 60}, {"time": 169080, "pitch": 54, "duration": 10, "velocity": 45}, {"time": 169200, "pitch": 35, "duration": 10, "velocity": 105}, {"time": 169200, "pitch": 46, "duration": 10, "velocity": 75}, {"time": 169200, "pitch": 54, "duration": 10, "velocity": 105}, {"time": 169320, "pitch": 54, "duration": 10, "velocity": 45}, {"time": 169441, "pitch": 35, "duration": 10, "velocity": 120}, {"time": 169441, "pitch": 42, "duration": 10, "velocity": 80}, {"time": 169441, "pitch": 54, "duration": 10, "velocity": 75}, {"time": 169561, "pitch": 42, "duration": 10, "velocity": 60}, {"time": 169561, "pitch": 54, "duration": 10, "velocity": 45}, {"time": 169682, "pitch": 46, "duration": 10, "velocity": 75}, {"time": 169682, "pitch": 54, "duration": 10, "velocity": 105}, {"time": 169802, "pitch": 54, "duration": 10, "velocity": 45}, {"time": 169922, "pitch": 35, "duration": 10, "velocity": 120}, {"time": 169922, "pitch": 42, "duration": 10, "velocity": 80}, {"time": 169922, "pitch": 54, "duration": 10, "velocity": 75}, {"time": 170043, "pitch": 42, "duration": 10, "velocity": 60}, {"time": 170043, "pitch": 54, "duration": 10, "velocity": 45}, {"time": 170163, "pitch": 46, "duration": 10, "velocity": 75}, {"time": 170163, "pitch": 54, "duration": 10, "velocity": 105}, {"time": 170284, "pitch": 54, "duration": 10, "velocity": 45}, {"time": 170404, "pitch": 35, "duration": 10, "velocity": 120}, {"time": 170404, "pitch": 42, "duration": 10, "velocity": 80}, {"time": 170404, "pitch": 54, "duration": 10, "velocity": 75}, {"time": 170522, "pitch": 42, "duration": 10, "velocity": 60}, {"time": 170522, "pitch": 54, "duration": 10, "velocity": 45}, {"time": 170640, "pitch": 46, "duration": 9, "velocity": 75}, {"time": 170640, "pitch": 54, "duration": 9, "velocity": 105}, {"time": 170757, "pitch": 54, "duration": 10, "velocity": 45}, {"time": 170875, "pitch": 35, "duration": 10, "velocity": 120}, {"time": 170875, "pitch": 42, "duration": 10, "velocity": 80}, {"time": 170875, "pitch": 54, "duration": 10, "velocity": 75}, {"time": 170996, "pitch": 42, "duration": 10, "velocity": 60}, {"time": 170996, "pitch": 54, "duration": 10, "velocity": 45}, {"time": 171116, "pitch": 46, "duration": 10, "velocity": 75}, {"time": 171116, "pitch": 54, "duration": 10, "velocity": 105}, {"time": 171236, "pitch": 54, "duration": 10, "velocity": 45}, {"time": 171357, "pitch": 35, "duration": 10, "velocity": 120}, {"time": 171357, "pitch": 42, "duration": 10, "velocity": 80}, {"time": 171357, "pitch": 54, "duration": 10, "velocity": 75}, {"time": 171477, "pitch": 42, "duration": 10, "velocity": 60}, {"time": 171477, "pitch": 54, "duration": 10, "velocity": 45}, {"time": 171597, "pitch": 46, "duration": 11, "velocity": 75}, {"time": 171597, "pitch": 54, "duration": 11, "velocity": 105}, {"time": 171718, "pitch": 54, "duration": 10, "velocity": 45}, {"time": 171838, "pitch": 35, "duration": 10, "velocity": 120}, {"time": 171838, "pitch": 42, "duration": 10, "velocity": 80}, {"time": 171838, "pitch": 54, "duration": 10, "velocity": 75}, {"time": 171959, "pitch": 42, "duration": 10, "velocity": 60}, {"time": 171959, "pitch": 54, "duration": 10, "velocity": 45}, {"time": 172079, "pitch": 46, "duration": 10, "velocity": 75}, {"time": 172079, "pitch": 54, "duration": 10, "velocity": 105}, {"time": 172199, "pitch": 35, "duration": 11, "velocity": 105}, {"time": 172199, "pitch": 54, "duration": 11, "velocity": 45}, {"time": 172320, "pitch": 35, "duration": 10, "velocity": 120}, {"time": 172320, "pitch": 42, "duration": 10, "velocity": 80}, {"time": 172320, "pitch": 54, "duration": 10, "velocity": 75}, {"time": 172440, "pitch": 42, "duration": 10, "velocity": 60}, {"time": 172440, "pitch": 54, "duration": 10, "velocity": 45}, {"time": 172561, "pitch": 35, "duration": 10, "velocity": 105}, {"time": 172561, "pitch": 46, "duration": 10, "velocity": 75}, {"time": 172561, "pitch": 54, "duration": 10, "velocity": 105}, {"time": 172681, "pitch": 54, "duration": 10, "velocity": 45}, {"time": 172801, "pitch": 35, "duration": 10, "velocity": 120}, {"time": 172801, "pitch": 42, "duration": 10, "velocity": 80}, {"time": 172801, "pitch": 54, "duration": 10, "velocity": 75}, {"time": 172922, "pitch": 42, "duration": 10, "velocity": 60}, {"time": 172922, "pitch": 54, "duration": 10, "velocity": 45}, {"time": 173042, "pitch": 35, "duration": 10, "velocity": 105}, {"time": 173042, "pitch": 46, "duration": 10, "velocity": 75}, {"time": 173042, "pitch": 54, "duration": 10, "velocity": 105}, {"time": 173163, "pitch": 54, "duration": 10, "velocity": 45}, {"time": 173283, "pitch": 35, "duration": 10, "velocity": 120}, {"time": 173283, "pitch": 42, "duration": 10, "velocity": 80}, {"time": 173283, "pitch": 54, "duration": 10, "velocity": 75}, {"time": 173403, "pitch": 42, "duration": 10, "velocity": 60}, {"time": 173403, "pitch": 54, "duration": 10, "velocity": 45}, {"time": 173524, "pitch": 46, "duration": 10, "velocity": 75}, {"time": 173524, "pitch": 54, "duration": 10, "velocity": 105}, {"time": 173644, "pitch": 54, "duration": 10, "velocity": 45}, {"time": 173765, "pitch": 35, "duration": 9, "velocity": 120}, {"time": 173765, "pitch": 42, "duration": 9, "velocity": 80}, {"time": 173765, "pitch": 54, "duration": 9, "velocity": 75}, {"time": 173882, "pitch": 42, "duration": 10, "velocity": 60}, {"time": 173882, "pitch": 54, "duration": 10, "velocity": 45}, {"time": 174000, "pitch": 46, "duration": 10, "velocity": 75}, {"time": 174000, "pitch": 54, "duration": 10, "velocity": 105}, {"time": 174118, "pitch": 54, "duration": 10, "velocity": 45}, {"time": 174236, "pitch": 35, "duration": 10, "velocity": 120}, {"time": 174236, "pitch": 42, "duration": 10, "velocity": 80}, {"time": 174236, "pitch": 54, "duration": 10, "velocity": 75}, {"time": 174356, "pitch": 42, "duration": 10, "velocity": 60}, {"time": 174356, "pitch": 54, "duration": 10, "velocity": 45}, {"time": 174477, "pitch": 46, "duration": 10, "velocity": 75}, {"time": 174477, "pitch": 54, "duration": 10, "velocity": 105}, {"time": 174597, "pitch": 54, "duration": 10, "velocity": 45}, {"time": 174717, "pitch": 35, "duration": 10, "velocity": 120}, {"time": 174717, "pitch": 42, "duration": 10, "velocity": 80}, {"time": 174717, "pitch": 54, "duration": 10, "velocity": 75}, {"time": 174838, "pitch": 42, "duration": 10, "velocity": 60}, {"time": 174838, "pitch": 54, "duration": 10, "velocity": 45}, {"time": 174958, "pitch": 46, "duration": 10, "velocity": 75}, {"time": 174958, "pitch": 54, "duration": 10, "velocity": 105}, {"time": 175079, "pitch": 54, "duration": 10, "velocity": 45}, {"time": 175199, "pitch": 35, "duration": 10, "velocity": 120}, {"time": 175199, "pitch": 42, "duration": 10, "velocity": 80}, {"time": 175199, "pitch": 54, "duration": 10, "velocity": 75}, {"time": 175319, "pitch": 42, "duration": 10, "velocity": 60}, {"time": 175319, "pitch": 54, "duration": 10, "velocity": 45}, {"time": 175440, "pitch": 46, "duration": 10, "velocity": 75}, {"time": 175440, "pitch": 54, "duration": 10, "velocity": 105}, {"time": 175560, "pitch": 54, "duration": 10, "velocity": 45}, {"time": 175681, "pitch": 35, "duration": 10, "velocity": 120}, {"time": 175681, "pitch": 42, "duration": 10, "velocity": 80}, {"time": 175681, "pitch": 54, "duration": 10, "velocity": 75}, {"time": 175801, "pitch": 42, "duration": 10, "velocity": 60}, {"time": 175801, "pitch": 54, "duration": 10, "velocity": 45}, {"time": 175921, "pitch": 46, "duration": 10, "velocity": 75}, {"time": 175921, "pitch": 54, "duration": 10, "velocity": 105}, {"time": 176042, "pitch": 54, "duration": 10, "velocity": 45}, {"time": 176162, "pitch": 35, "duration": 10, "velocity": 120}, {"time": 176162, "pitch": 42, "duration": 10, "velocity": 80}, {"time": 176162, "pitch": 54, "duration": 10, "velocity": 75}, {"time": 176283, "pitch": 42, "duration": 10, "velocity": 60}, {"time": 176283, "pitch": 54, "duration": 10, "velocity": 45}, {"time": 176403, "pitch": 46, "duration": 10, "velocity": 75}, {"time": 176403, "pitch": 54, "duration": 10, "velocity": 105}, {"time": 176523, "pitch": 54, "duration": 10, "velocity": 45}, {"time": 176644, "pitch": 35, "duration": 9, "velocity": 120}, {"time": 176644, "pitch": 42, "duration": 9, "velocity": 80}, {"time": 176644, "pitch": 54, "duration": 9, "velocity": 75}, {"time": 176761, "pitch": 42, "duration": 10, "velocity": 60}, {"time": 176761, "pitch": 54, "duration": 10, "velocity": 45}, {"time": 176879, "pitch": 35, "duration": 10, "velocity": 105}, {"time": 176879, "pitch": 46, "duration": 10, "velocity": 75}, {"time": 176879, "pitch": 54, "duration": 10, "velocity": 105}, {"time": 176997, "pitch": 54, "duration": 10, "velocity": 45}, {"time": 177115, "pitch": 35, "duration": 10, "velocity": 120}, {"time": 177115, "pitch": 42, "duration": 10, "velocity": 80}, {"time": 177115, "pitch": 54, "duration": 10, "velocity": 75}, {"time": 177235, "pitch": 42, "duration": 10, "velocity": 60}, {"time": 177235, "pitch": 54, "duration": 10, "velocity": 45}, {"time": 177356, "pitch": 46, "duration": 10, "velocity": 75}, {"time": 177356, "pitch": 54, "duration": 10, "velocity": 105}, {"time": 177476, "pitch": 54, "duration": 10, "velocity": 45}, {"time": 177596, "pitch": 35, "duration": 10, "velocity": 120}, {"time": 177596, "pitch": 42, "duration": 10, "velocity": 80}, {"time": 177596, "pitch": 54, "duration": 10, "velocity": 75}, {"time": 177717, "pitch": 42, "duration": 10, "velocity": 60}, {"time": 177717, "pitch": 54, "duration": 10, "velocity": 45}, {"time": 177837, "pitch": 46, "duration": 10, "velocity": 75}, {"time": 177837, "pitch": 54, "duration": 10, "velocity": 105}, {"time": 177958, "pitch": 54, "duration": 10, "velocity": 45}, {"time": 178078, "pitch": 35, "duration": 10, "velocity": 120}, {"time": 178078, "pitch": 42, "duration": 10, "velocity": 80}, {"time": 178078, "pitch": 54, "duration": 10, "velocity": 75}, {"time": 178198, "pitch": 42, "duration": 10, "velocity": 60}, {"time": 178198, "pitch": 54, "duration": 10, "velocity": 45}, {"time": 178319, "pitch": 46, "duration": 10, "velocity": 75}, {"time": 178319, "pitch": 54, "duration": 10, "velocity": 105}, {"time": 178439, "pitch": 54, "duration": 10, "velocity": 45}, {"time": 178560, "pitch": 35, "duration": 10, "velocity": 120}, {"time": 178560, "pitch": 42, "duration": 10, "velocity": 80}, {"time": 178560, "pitch": 54, "duration": 10, "velocity": 75}, {"time": 178680, "pitch": 42, "duration": 10, "velocity": 60}, {"time": 178680, "pitch": 54, "duration": 10, "velocity": 45}, {"time": 178800, "pitch": 46, "duration": 10, "velocity": 75}, {"time": 178800, "pitch": 54, "duration": 10, "velocity": 105}, {"time": 178921, "pitch": 54, "duration": 10, "velocity": 45}, {"time": 179041, "pitch": 35, "duration": 10, "velocity": 120}, {"time": 179041, "pitch": 42, "duration": 10, "velocity": 80}, {"time": 179041, "pitch": 54, "duration": 10, "velocity": 75}, {"time": 179162, "pitch": 42, "duration": 10, "velocity": 60}, {"time": 179162, "pitch": 54, "duration": 10, "velocity": 45}, {"time": 179282, "pitch": 46, "duration": 10, "velocity": 75}, {"time": 179282, "pitch": 54, "duration": 10, "velocity": 105}, {"time": 179402, "pitch": 54, "duration": 10, "velocity": 45}, {"time": 179523, "pitch": 35, "duration": 10, "velocity": 120}, {"time": 179523, "pitch": 42, "duration": 10, "velocity": 80}, {"time": 179523, "pitch": 54, "duration": 10, "velocity": 75}, {"time": 179643, "pitch": 42, "duration": 10, "velocity": 60}, {"time": 179643, "pitch": 54, "duration": 10, "velocity": 45}, {"time": 179764, "pitch": 46, "duration": 10, "velocity": 75}, {"time": 179764, "pitch": 54, "duration": 10, "velocity": 105}, {"time": 179884, "pitch": 35, "duration": 10, "velocity": 105}, {"time": 179884, "pitch": 54, "duration": 10, "velocity": 45}, {"time": 180004, "pitch": 35, "duration": 10, "velocity": 120}, {"time": 180004, "pitch": 42, "duration": 10, "velocity": 80}, {"time": 180004, "pitch": 54, "duration": 10, "velocity": 75}, {"time": 180122, "pitch": 42, "duration": 10, "velocity": 60}, {"time": 180122, "pitch": 54, "duration": 10, "velocity": 45}, {"time": 180240, "pitch": 35, "duration": 10, "velocity": 105}, {"time": 180240, "pitch": 46, "duration": 10, "velocity": 75}, {"time": 180240, "pitch": 54, "duration": 10, "velocity": 105}, {"time": 180358, "pitch": 54, "duration": 10, "velocity": 45}, {"time": 180476, "pitch": 35, "duration": 10, "velocity": 120}, {"time": 180476, "pitch": 42, "duration": 10, "velocity": 80}, {"time": 180476, "pitch": 54, "duration": 10, "velocity": 75}, {"time": 180596, "pitch": 42, "duration": 10, "velocity": 60}, {"time": 180596, "pitch": 54, "duration": 10, "velocity": 45}, {"time": 180716, "pitch": 35, "duration": 10, "velocity": 105}, {"time": 180716, "pitch": 46, "duration": 10, "velocity": 75}, {"time": 180716, "pitch": 54, "duration": 10, "velocity": 105}, {"time": 180837, "pitch": 54, "duration": 10, "velocity": 45}, {"time": 180957, "pitch": 35, "duration": 10, "velocity": 120}, {"time": 180957, "pitch": 42, "duration": 10, "velocity": 80}, {"time": 180957, "pitch": 54, "duration": 10, "velocity": 75}, {"time": 181077, "pitch": 42, "duration": 11, "velocity": 60}, {"time": 181077, "pitch": 54, "duration": 11, "velocity": 45}, {"time": 181198, "pitch": 46, "duration": 10, "velocity": 75}, {"time": 181198, "pitch": 54, "duration": 10, "velocity": 105}, {"time": 181318, "pitch": 54, "duration": 10, "velocity": 45}, {"time": 181439, "pitch": 35, "duration": 10, "velocity": 120}, {"time": 181439, "pitch": 42, "duration": 10, "velocity": 80}, {"time": 181439, "pitch": 54, "duration": 10, "velocity": 75}, {"time": 181559, "pitch": 42, "duration": 10, "velocity": 60}, {"time": 181559, "pitch": 54, "duration": 10, "velocity": 45}, {"time": 181679, "pitch": 46, "duration": 11, "velocity": 75}, {"time": 181679, "pitch": 54, "duration": 11, "velocity": 105}, {"time": 181800, "pitch": 54, "duration": 10, "velocity": 45}, {"time": 181920, "pitch": 35, "duration": 10, "velocity": 120}, {"time": 181920, "pitch": 42, "duration": 10, "velocity": 80}, {"time": 181920, "pitch": 54, "duration": 10, "velocity": 75}, {"time": 182041, "pitch": 42, "duration": 10, "velocity": 60}, {"time": 182041, "pitch": 54, "duration": 10, "velocity": 45}, {"time": 182161, "pitch": 46, "duration": 10, "velocity": 75}, {"time": 182161, "pitch": 54, "duration": 10, "velocity": 105}, {"time": 182281, "pitch": 54, "duration": 10, "velocity": 45}, {"time": 182402, "pitch": 35, "duration": 10, "velocity": 120}, {"time": 182402, "pitch": 42, "duration": 10, "velocity": 80}, {"time": 182402, "pitch": 54, "duration": 10, "velocity": 75}, {"time": 182522, "pitch": 42, "duration": 10, "velocity": 60}, {"time": 182522, "pitch": 54, "duration": 10, "velocity": 45}, {"time": 182643, "pitch": 46, "duration": 10, "velocity": 75}, {"time": 182643, "pitch": 54, "duration": 10, "velocity": 105}, {"time": 182763, "pitch": 54, "duration": 10, "velocity": 45}, {"time": 182883, "pitch": 35, "duration": 10, "velocity": 120}, {"time": 182883, "pitch": 42, "duration": 10, "velocity": 80}, {"time": 182883, "pitch": 54, "duration": 10, "velocity": 75}, {"time": 183004, "pitch": 42, "duration": 10, "velocity": 60}, {"time": 183004, "pitch": 54, "duration": 10, "velocity": 45}, {"time": 183124, "pitch": 46, "duration": 10, "velocity": 75}, {"time": 183124, "pitch": 54, "duration": 10, "velocity": 105}, {"time": 183245, "pitch": 54, "duration": 10, "velocity": 45}, {"time": 183365, "pitch": 35, "duration": 10, "velocity": 120}, {"time": 183365, "pitch": 42, "duration": 10, "velocity": 80}, {"time": 183365, "pitch": 54, "duration": 10, "velocity": 75}, {"time": 183483, "pitch": 42, "duration": 10, "velocity": 60}, {"time": 183483, "pitch": 54, "duration": 10, "velocity": 45}, {"time": 183601, "pitch": 46, "duration": 9, "velocity": 75}, {"time": 183601, "pitch": 54, "duration": 9, "velocity": 105}, {"time": 183718, "pitch": 54, "duration": 10, "velocity": 45}, {"time": 183836, "pitch": 35, "duration": 10, "velocity": 120}, {"time": 183836, "pitch": 42, "duration": 10, "velocity": 80}, {"time": 183836, "pitch": 54, "duration": 10, "velocity": 75}, {"time": 183957, "pitch": 42, "duration": 10, "velocity": 60}, {"time": 183957, "pitch": 54, "duration": 10, "velocity": 45}, {"time": 184077, "pitch": 46, "duration": 10, "velocity": 75}, {"time": 184077, "pitch": 54, "duration": 10, "velocity": 105}, {"time": 184197, "pitch": 54, "duration": 10, "velocity": 45}, {"time": 184318, "pitch": 35, "duration": 10, "velocity": 120}, {"time": 184318, "pitch": 42, "duration": 10, "velocity": 80}, {"time": 184318, "pitch": 54, "duration": 10, "velocity": 75}, {"time": 184438, "pitch": 42, "duration": 10, "velocity": 60}, {"time": 184438, "pitch": 54, "duration": 10, "velocity": 45}, {"time": 184559, "pitch": 35, "duration": 10, "velocity": 105}, {"time": 184559, "pitch": 46, "duration": 10, "velocity": 75}, {"time": 184559, "pitch": 54, "duration": 10, "velocity": 105}, {"time": 184679, "pitch": 54, "duration": 10, "velocity": 45}, {"time": 184799, "pitch": 35, "duration": 10, "velocity": 120}, {"time": 184799, "pitch": 42, "duration": 10, "velocity": 80}, {"time": 184799, "pitch": 54, "duration": 10, "velocity": 75}, {"time": 184920, "pitch": 42, "duration": 10, "velocity": 60}, {"time": 184920, "pitch": 54, "duration": 10, "velocity": 45}, {"time": 185040, "pitch": 46, "duration": 10, "velocity": 75}, {"time": 185040, "pitch": 54, "duration": 10, "velocity": 105}, {"time": 185161, "pitch": 54, "duration": 10, "velocity": 45}, {"time": 185281, "pitch": 35, "duration": 10, "velocity": 120}, {"time": 185281, "pitch": 42, "duration": 10, "velocity": 80}, {"time": 185281, "pitch": 54, "duration": 10, "velocity": 75}, {"time": 185401, "pitch": 42, "duration": 10, "velocity": 60}, {"time": 185401, "pitch": 54, "duration": 10, "velocity": 45}, {"time": 185522, "pitch": 46, "duration": 10, "velocity": 75}, {"time": 185522, "pitch": 54, "duration": 10, "velocity": 105}, {"time": 185642, "pitch": 54, "duration": 10, "velocity": 45}, {"time": 185763, "pitch": 35, "duration": 10, "velocity": 120}, {"time": 185763, "pitch": 42, "duration": 10, "velocity": 80}, {"time": 185763, "pitch": 54, "duration": 10, "velocity": 75}, {"time": 185883, "pitch": 42, "duration": 10, "velocity": 60}, {"time": 185883, "pitch": 54, "duration": 10, "velocity": 45}, {"time": 186003, "pitch": 46, "duration": 10, "velocity": 75}, {"time": 186003, "pitch": 54, "duration": 10, "velocity": 105}, {"time": 186124, "pitch": 54, "duration": 10, "velocity": 45}, {"time": 186244, "pitch": 35, "duration": 10, "velocity": 120}, {"time": 186244, "pitch": 42, "duration": 10, "velocity": 80}, {"time": 186244, "pitch": 54, "duration": 10, "velocity": 75}, {"time": 186362, "pitch": 42, "duration": 10, "velocity": 60}, {"time": 186362, "pitch": 54, "duration": 10, "velocity": 45}, {"time": 186480, "pitch": 46, "duration": 10, "velocity": 75}, {"time": 186480, "pitch": 54, "duration": 10, "velocity": 105}, {"time": 186598, "pitch": 54, "duration": 9, "velocity": 45}, {"time": 186715, "pitch": 35, "duration": 10, "velocity": 120}, {"time": 186715, "pitch": 42, "duration": 10, "velocity": 80}, {"time": 186715, "pitch": 54, "duration": 10, "velocity": 75}, {"time": 186836, "pitch": 42, "duration": 10, "velocity": 60}, {"time": 186836, "pitch": 54, "duration": 10, "velocity": 45}, {"time": 186956, "pitch": 46, "duration": 10, "velocity": 75}, {"time": 186956, "pitch": 54, "duration": 10, "velocity": 105}, {"time": 187076, "pitch": 54, "duration": 10, "velocity": 45}, {"time": 187197, "pitch": 35, "duration": 10, "velocity": 120}, {"time": 187197, "pitch": 42, "duration": 10, "velocity": 80}, {"time": 187197, "pitch": 54, "duration": 10, "velocity": 75}, {"time": 187317, "pitch": 42, "duration": 10, "velocity": 60}, {"time": 187317, "pitch": 54, "duration": 10, "velocity": 45}, {"time": 187438, "pitch": 46, "duration": 10, "velocity": 75}, {"time": 187438, "pitch": 54, "duration": 10, "velocity": 105}, {"time": 187558, "pitch": 35, "duration": 10, "velocity": 105}, {"time": 187558, "pitch": 54, "duration": 10, "velocity": 45}, {"time": 187678, "pitch": 35, "duration": 10, "velocity": 120}, {"time": 187678, "pitch": 42, "duration": 10, "velocity": 80}, {"time": 187678, "pitch": 54, "duration": 10, "velocity": 75}, {"time": 187799, "pitch": 42, "duration": 10, "velocity": 60}, {"time": 187799, "pitch": 54, "duration": 10, "velocity": 45}, {"time": 187919, "pitch": 35, "duration": 10, "velocity": 105}, {"time": 187919, "pitch": 46, "duration": 10, "velocity": 75}, {"time": 187919, "pitch": 54, "duration": 10, "velocity": 105}, {"time": 188040, "pitch": 54, "duration": 10, "velocity": 45}, {"time": 188160, "pitch": 35, "duration": 10, "velocity": 120}, {"time": 188160, "pitch": 42, "duration": 10, "velocity": 80}, {"time": 188160, "pitch": 54, "duration": 10, "velocity": 75}, {"time": 188280, "pitch": 42, "duration": 10, "velocity": 60}, {"time": 188280, "pitch": 54, "duration": 10, "velocity": 45}, {"time": 188401, "pitch": 35, "duration": 10, "velocity": 105}, {"time": 188401, "pitch": 46, "duration": 10, "velocity": 75}, {"time": 188401, "pitch": 54, "duration": 10, "velocity": 105}, {"time": 188521, "pitch": 54, "duration": 10, "velocity": 45}, {"time": 188642, "pitch": 35, "duration": 10, "velocity": 120}, {"time": 188642, "pitch": 42, "duration": 10, "velocity": 80}, {"time": 188642, "pitch": 54, "duration": 10, "velocity": 75}, {"time": 188762, "pitch": 42, "duration": 10, "velocity": 60}, {"time": 188762, "pitch": 54, "duration": 10, "velocity": 45}, {"time": 188882, "pitch": 46, "duration": 10, "velocity": 75}, {"time": 188882, "pitch": 54, "duration": 10, "velocity": 105}, {"time": 189003, "pitch": 54, "duration": 10, "velocity": 45}, {"time": 189123, "pitch": 35, "duration": 10, "velocity": 120}, {"time": 189123, "pitch": 42, "duration": 10, "velocity": 80}, {"time": 189123, "pitch": 54, "duration": 10, "velocity": 75}, {"time": 189244, "pitch": 42, "duration": 10, "velocity": 60}, {"time": 189244, "pitch": 54, "duration": 10, "velocity": 45}, {"time": 189364, "pitch": 46, "duration": 10, "velocity": 75}, {"time": 189364, "pitch": 54, "duration": 10, "velocity": 105}, {"time": 189484, "pitch": 35, "duration": 10, "velocity": 105}, {"time": 189484, "pitch": 40, "duration": 10, "velocity": 110}, {"time": 189484, "pitch": 54, "duration": 10, "velocity": 45}, {"time": 189605, "pitch": 35, "duration": 9, "velocity": 120}, {"time": 189605, "pitch": 42, "duration": 9, "velocity": 80}, {"time": 189605, "pitch": 54, "duration": 9, "velocity": 75}, {"time": 189722, "pitch": 40, "duration": 10, "velocity": 110}, {"time": 189722, "pitch": 42, "duration": 10, "velocity": 60}, {"time": 189722, "pitch": 54, "duration": 10, "velocity": 45}, {"time": 189840, "pitch": 35, "duration": 10, "velocity": 105}, {"time": 189840, "pitch": 40, "duration": 10, "velocity": 110}, {"time": 189840, "pitch": 46, "duration": 10, "velocity": 75}, {"time": 189840, "pitch": 54, "duration": 10, "velocity": 105}, {"time": 189958, "pitch": 40, "duration": 10, "velocity": 110}, {"time": 189958, "pitch": 54, "duration": 10, "velocity": 45}, {"time": 190076, "pitch": 35, "duration": 10, "velocity": 120}, {"time": 190076, "pitch": 40, "duration": 10, "velocity": 110}, {"time": 190076, "pitch": 42, "duration": 10, "velocity": 80}, {"time": 190076, "pitch": 54, "duration": 10, "velocity": 75}, {"time": 190156, "pitch": 40, "duration": 10, "velocity": 110}, {"time": 190196, "pitch": 42, "duration": 10, "velocity": 60}, {"time": 190196, "pitch": 54, "duration": 10, "velocity": 45}, {"time": 190236, "pitch": 40, "duration": 10, "velocity": 110}, {"time": 190317, "pitch": 35, "duration": 10, "velocity": 105}, {"time": 190317, "pitch": 40, "duration": 10, "velocity": 110}, {"time": 190317, "pitch": 46, "duration": 10, "velocity": 75}, {"time": 190317, "pitch": 54, "duration": 10, "velocity": 105}, {"time": 190377, "pitch": 40, "duration": 10, "velocity": 110}, {"time": 190437, "pitch": 40, "duration": 10, "velocity": 110}, {"time": 190437, "pitch": 54, "duration": 10, "velocity": 45}, {"time": 190497, "pitch": 40, "duration": 10, "velocity": 110}, {"time": 190557, "pitch": 35, "duration": 11, "velocity": 120}, {"time": 190557, "pitch": 42, "duration": 11, "velocity": 80}, {"time": 190557, "pitch": 54, "duration": 11, "velocity": 75}, {"time": 190678, "pitch": 42, "duration": 10, "velocity": 60}, {"time": 190678, "pitch": 54, "duration": 10, "velocity": 45}, {"time": 190798, "pitch": 46, "duration": 10, "velocity": 75}, {"time": 190798, "pitch": 54, "duration": 10, "velocity": 105}, {"time": 190919, "pitch": 54, "duration": 10, "velocity": 45}, {"time": 191039, "pitch": 35, "duration": 10, "velocity": 120}, {"time": 191039, "pitch": 42, "duration": 10, "velocity": 80}, {"time": 191039, "pitch": 54, "duration": 10, "velocity": 75}, {"time": 191159, "pitch": 42, "duration": 11, "velocity": 60}, {"time": 191159, "pitch": 54, "duration": 11, "velocity": 45}, {"time": 191280, "pitch": 46, "duration": 10, "velocity": 75}, {"time": 191280, "pitch": 54, "duration": 10, "velocity": 105}, {"time": 191400, "pitch": 54, "duration": 10, "velocity": 45}, {"time": 191521, "pitch": 35, "duration": 10, "velocity": 120}, {"time": 191521, "pitch": 42, "duration": 10, "velocity": 80}, {"time": 191521, "pitch": 54, "duration": 10, "velocity": 75}, {"time": 191641, "pitch": 42, "duration": 10, "velocity": 60}, {"time": 191641, "pitch": 54, "duration": 10, "velocity": 45}, {"time": 191761, "pitch": 46, "duration": 10, "velocity": 75}, {"time": 191761, "pitch": 54, "duration": 10, "velocity": 105}, {"time": 191882, "pitch": 54, "duration": 10, "velocity": 45}, {"time": 192002, "pitch": 35, "duration": 10, "velocity": 120}, {"time": 192002, "pitch": 42, "duration": 10, "velocity": 80}, {"time": 192002, "pitch": 54, "duration": 10, "velocity": 75}, {"time": 192123, "pitch": 42, "duration": 10, "velocity": 60}, {"time": 192123, "pitch": 54, "duration": 10, "velocity": 45}, {"time": 192243, "pitch": 46, "duration": 10, "velocity": 75}, {"time": 192243, "pitch": 54, "duration": 10, "velocity": 105}, {"time": 192363, "pitch": 54, "duration": 10, "velocity": 45}, {"time": 192484, "pitch": 35, "duration": 10, "velocity": 120}, {"time": 192484, "pitch": 42, "duration": 10, "velocity": 80}, {"time": 192484, "pitch": 54, "duration": 10, "velocity": 75}, {"time": 192602, "pitch": 42, "duration": 9, "velocity": 60}, {"time": 192602, "pitch": 54, "duration": 9, "velocity": 45}, {"time": 192719, "pitch": 46, "duration": 10, "velocity": 75}, {"time": 192719, "pitch": 54, "duration": 10, "velocity": 105}, {"time": 192837, "pitch": 54, "duration": 10, "velocity": 45}, {"time": 192955, "pitch": 35, "duration": 10, "velocity": 120}, {"time": 192955, "pitch": 42, "duration": 10, "velocity": 80}, {"time": 192955, "pitch": 54, "duration": 10, "velocity": 75}, {"time": 193075, "pitch": 42, "duration": 10, "velocity": 60}, {"time": 193075, "pitch": 54, "duration": 10, "velocity": 45}, {"time": 193196, "pitch": 46, "duration": 10, "velocity": 75}, {"time": 193196, "pitch": 54, "duration": 10, "velocity": 105}, {"time": 193316, "pitch": 54, "duration": 10, "velocity": 45}, {"time": 193437, "pitch": 35, "duration": 10, "velocity": 120}, {"time": 193437, "pitch": 42, "duration": 10, "velocity": 80}, {"time": 193437, "pitch": 54, "duration": 10, "velocity": 75}, {"time": 193557, "pitch": 42, "duration": 10, "velocity": 60}, {"time": 193557, "pitch": 54, "duration": 10, "velocity": 45}, {"time": 193677, "pitch": 46, "duration": 10, "velocity": 75}, {"time": 193677, "pitch": 54, "duration": 10, "velocity": 105}, {"time": 193798, "pitch": 54, "duration": 10, "velocity": 45}, {"time": 193918, "pitch": 35, "duration": 10, "velocity": 120}, {"time": 193918, "pitch": 42, "duration": 10, "velocity": 80}, {"time": 193918, "pitch": 54, "duration": 10, "velocity": 75}, {"time": 194039, "pitch": 42, "duration": 10, "velocity": 60}, {"time": 194039, "pitch": 54, "duration": 10, "velocity": 45}, {"time": 194159, "pitch": 35, "duration": 10, "velocity": 105}, {"time": 194159, "pitch": 46, "duration": 10, "velocity": 75}, {"time": 194159, "pitch": 54, "duration": 10, "velocity": 105}, {"time": 194279, "pitch": 54, "duration": 10, "velocity": 45}, {"time": 194400, "pitch": 35, "duration": 10, "velocity": 120}, {"time": 194400, "pitch": 42, "duration": 10, "velocity": 80}, {"time": 194400, "pitch": 54, "duration": 10, "velocity": 75}, {"time": 194520, "pitch": 42, "duration": 10, "velocity": 60}, {"time": 194520, "pitch": 54, "duration": 10, "velocity": 45}, {"time": 194641, "pitch": 46, "duration": 10, "velocity": 75}, {"time": 194641, "pitch": 54, "duration": 10, "velocity": 105}, {"time": 194761, "pitch": 54, "duration": 10, "velocity": 45}, {"time": 194881, "pitch": 35, "duration": 10, "velocity": 120}, {"time": 194881, "pitch": 42, "duration": 10, "velocity": 80}, {"time": 194881, "pitch": 54, "duration": 10, "velocity": 75}, {"time": 195002, "pitch": 42, "duration": 10, "velocity": 60}, {"time": 195002, "pitch": 54, "duration": 10, "velocity": 45}, {"time": 195122, "pitch": 46, "duration": 10, "velocity": 75}, {"time": 195122, "pitch": 54, "duration": 10, "velocity": 105}, {"time": 195243, "pitch": 54, "duration": 10, "velocity": 45}, {"time": 195363, "pitch": 35, "duration": 10, "velocity": 120}, {"time": 195363, "pitch": 42, "duration": 10, "velocity": 80}, {"time": 195363, "pitch": 54, "duration": 10, "velocity": 75}, {"time": 195483, "pitch": 42, "duration": 10, "velocity": 60}, {"time": 195483, "pitch": 54, "duration": 10, "velocity": 45}, {"time": 195604, "pitch": 46, "duration": 10, "velocity": 75}, {"time": 195604, "pitch": 54, "duration": 10, "velocity": 105}, {"time": 195724, "pitch": 54, "duration": 10, "velocity": 45}, {"time": 195844, "pitch": 35, "duration": 10, "velocity": 120}, {"time": 195844, "pitch": 42, "duration": 10, "velocity": 80}, {"time": 195844, "pitch": 54, "duration": 10, "velocity": 75}, {"time": 195962, "pitch": 42, "duration": 10, "velocity": 60}, {"time": 195962, "pitch": 54, "duration": 10, "velocity": 45}, {"time": 196080, "pitch": 46, "duration": 10, "velocity": 75}, {"time": 196080, "pitch": 54, "duration": 10, "velocity": 105}, {"time": 196198, "pitch": 54, "duration": 10, "velocity": 45}, {"time": 196316, "pitch": 35, "duration": 10, "velocity": 120}, {"time": 196316, "pitch": 42, "duration": 10, "velocity": 80}, {"time": 196316, "pitch": 54, "duration": 10, "velocity": 75}, {"time": 196436, "pitch": 42, "duration": 10, "velocity": 60}, {"time": 196436, "pitch": 54, "duration": 10, "velocity": 45}, {"time": 196556, "pitch": 46, "duration": 10, "velocity": 75}, {"time": 196556, "pitch": 54, "duration": 10, "velocity": 105}, {"time": 196677, "pitch": 54, "duration": 10, "velocity": 45}, {"time": 196797, "pitch": 35, "duration": 10, "velocity": 120}, {"time": 196797, "pitch": 42, "duration": 10, "velocity": 80}, {"time": 196797, "pitch": 54, "duration": 10, "velocity": 75}, {"time": 196918, "pitch": 42, "duration": 10, "velocity": 60}, {"time": 196918, "pitch": 54, "duration": 10, "velocity": 45}, {"time": 197038, "pitch": 46, "duration": 10, "velocity": 75}, {"time": 197038, "pitch": 54, "duration": 10, "velocity": 105}, {"time": 197158, "pitch": 35, "duration": 10, "velocity": 105}, {"time": 197158, "pitch": 54, "duration": 10, "velocity": 45}, {"time": 197279, "pitch": 35, "duration": 10, "velocity": 120}, {"time": 197279, "pitch": 42, "duration": 10, "velocity": 80}, {"time": 197279, "pitch": 54, "duration": 10, "velocity": 75}, {"time": 197399, "pitch": 42, "duration": 10, "velocity": 60}, {"time": 197399, "pitch": 54, "duration": 10, "velocity": 45}, {"time": 197520, "pitch": 35, "duration": 10, "velocity": 105}, {"time": 197520, "pitch": 46, "duration": 10, "velocity": 75}, {"time": 197520, "pitch": 54, "duration": 10, "velocity": 105}, {"time": 197640, "pitch": 54, "duration": 10, "velocity": 45}, {"time": 197760, "pitch": 35, "duration": 10, "velocity": 120}, {"time": 197760, "pitch": 42, "duration": 10, "velocity": 80}, {"time": 197760, "pitch": 54, "duration": 10, "velocity": 75}, {"time": 197881, "pitch": 42, "duration": 10, "velocity": 60}, {"time": 197881, "pitch": 54, "duration": 10, "velocity": 45}, {"time": 198001, "pitch": 35, "duration": 10, "velocity": 105}, {"time": 198001, "pitch": 46, "duration": 10, "velocity": 75}, {"time": 198001, "pitch": 54, "duration": 10, "velocity": 105}, {"time": 198122, "pitch": 54, "duration": 10, "velocity": 45}, {"time": 198242, "pitch": 35, "duration": 10, "velocity": 120}, {"time": 198242, "pitch": 42, "duration": 10, "velocity": 80}, {"time": 198242, "pitch": 54, "duration": 10, "velocity": 75}, {"time": 198362, "pitch": 42, "duration": 10, "velocity": 60}, {"time": 198362, "pitch": 54, "duration": 10, "velocity": 45}, {"time": 198483, "pitch": 46, "duration": 10, "velocity": 75}, {"time": 198483, "pitch": 54, "duration": 10, "velocity": 105}, {"time": 198603, "pitch": 54, "duration": 10, "velocity": 45}, {"time": 198724, "pitch": 35, "duration": 10, "velocity": 120}, {"time": 198724, "pitch": 42, "duration": 10, "velocity": 80}, {"time": 198724, "pitch": 54, "duration": 10, "velocity": 75}, {"time": 198844, "pitch": 42, "duration": 10, "velocity": 60}, {"time": 198844, "pitch": 54, "duration": 10, "velocity": 45}, {"time": 198964, "pitch": 46, "duration": 10, "velocity": 75}, {"time": 198964, "pitch": 54, "duration": 10, "velocity": 105}, {"time": 199085, "pitch": 54, "duration": 10, "velocity": 45}, {"time": 199205, "pitch": 35, "duration": 10, "velocity": 120}, {"time": 199205, "pitch": 42, "duration": 10, "velocity": 80}, {"time": 199205, "pitch": 54, "duration": 10, "velocity": 75}, {"time": 199323, "pitch": 42, "duration": 10, "velocity": 60}, {"time": 199323, "pitch": 54, "duration": 10, "velocity": 45}, {"time": 199441, "pitch": 46, "duration": 10, "velocity": 75}, {"time": 199441, "pitch": 54, "duration": 10, "velocity": 105}, {"time": 199559, "pitch": 54, "duration": 9, "velocity": 45}, {"time": 199676, "pitch": 35, "duration": 10, "velocity": 120}, {"time": 199676, "pitch": 42, "duration": 10, "velocity": 80}, {"time": 199676, "pitch": 54, "duration": 10, "velocity": 75}, {"time": 199797, "pitch": 42, "duration": 10, "velocity": 60}, {"time": 199797, "pitch": 54, "duration": 10, "velocity": 45}, {"time": 199917, "pitch": 46, "duration": 10, "velocity": 75}, {"time": 199917, "pitch": 54, "duration": 10, "velocity": 105}, {"time": 200037, "pitch": 54, "duration": 11, "velocity": 45}, {"time": 200158, "pitch": 35, "duration": 10, "velocity": 120}, {"time": 200158, "pitch": 42, "duration": 10, "velocity": 80}, {"time": 200158, "pitch": 54, "duration": 10, "velocity": 75}, {"time": 200278, "pitch": 42, "duration": 10, "velocity": 60}, {"time": 200278, "pitch": 54, "duration": 10, "velocity": 45}, {"time": 200399, "pitch": 46, "duration": 10, "velocity": 75}, {"time": 200399, "pitch": 54, "duration": 10, "velocity": 105}, {"time": 200519, "pitch": 54, "duration": 10, "velocity": 45}, {"time": 200639, "pitch": 35, "duration": 11, "velocity": 120}, {"time": 200639, "pitch": 42, "duration": 11, "velocity": 80}, {"time": 200639, "pitch": 54, "duration": 11, "velocity": 75}, {"time": 200760, "pitch": 42, "duration": 10, "velocity": 60}, {"time": 200760, "pitch": 54, "duration": 10, "velocity": 45}, {"time": 200880, "pitch": 46, "duration": 10, "velocity": 75}, {"time": 200880, "pitch": 54, "duration": 10, "velocity": 105}, {"time": 201001, "pitch": 54, "duration": 10, "velocity": 45}, {"time": 201121, "pitch": 35, "duration": 10, "velocity": 120}, {"time": 201121, "pitch": 42, "duration": 10, "velocity": 80}, {"time": 201121, "pitch": 54, "duration": 10, "velocity": 75}, {"time": 201241, "pitch": 42, "duration": 10, "velocity": 60}, {"time": 201241, "pitch": 54, "duration": 10, "velocity": 45}, {"time": 201362, "pitch": 46, "duration": 10, "velocity": 75}, {"time": 201362, "pitch": 54, "duration": 10, "velocity": 105}, {"time": 201482, "pitch": 54, "duration": 10, "velocity": 45}, {"time": 201603, "pitch": 35, "duration": 10, "velocity": 120}, {"time": 201603, "pitch": 42, "duration": 10, "velocity": 80}, {"time": 201603, "pitch": 54, "duration": 10, "velocity": 75}, {"time": 201723, "pitch": 42, "duration": 10, "velocity": 60}, {"time": 201723, "pitch": 54, "duration": 10, "velocity": 45}, {"time": 201843, "pitch": 35, "duration": 10, "velocity": 105}, {"time": 201843, "pitch": 46, "duration": 10, "velocity": 75}, {"time": 201843, "pitch": 54, "duration": 10, "velocity": 105}, {"time": 201964, "pitch": 54, "duration": 10, "velocity": 45}, {"time": 202084, "pitch": 35, "duration": 10, "velocity": 120}, {"time": 202084, "pitch": 42, "duration": 10, "velocity": 80}, {"time": 202084, "pitch": 54, "duration": 10, "velocity": 75}, {"time": 202202, "pitch": 42, "duration": 10, "velocity": 60}, {"time": 202202, "pitch": 54, "duration": 10, "velocity": 45}, {"time": 202320, "pitch": 46, "duration": 10, "velocity": 75}, {"time": 202320, "pitch": 54, "duration": 10, "velocity": 105}, {"time": 202438, "pitch": 54, "duration": 9, "velocity": 45}, {"time": 202555, "pitch": 35, "duration": 10, "velocity": 120}, {"time": 202555, "pitch": 42, "duration": 10, "velocity": 80}, {"time": 202555, "pitch": 54, "duration": 10, "velocity": 75}, {"time": 202676, "pitch": 42, "duration": 10, "velocity": 60}, {"time": 202676, "pitch": 54, "duration": 10, "velocity": 45}, {"time": 202796, "pitch": 46, "duration": 10, "velocity": 75}, {"time": 202796, "pitch": 54, "duration": 10, "velocity": 105}, {"time": 202917, "pitch": 54, "duration": 10, "velocity": 45}, {"time": 203037, "pitch": 35, "duration": 10, "velocity": 120}, {"time": 203037, "pitch": 42, "duration": 10, "velocity": 80}, {"time": 203037, "pitch": 54, "duration": 10, "velocity": 75}, {"time": 203157, "pitch": 42, "duration": 10, "velocity": 60}, {"time": 203157, "pitch": 54, "duration": 10, "velocity": 45}, {"time": 203278, "pitch": 46, "duration": 10, "velocity": 75}, {"time": 203278, "pitch": 54, "duration": 10, "velocity": 105}, {"time": 203398, "pitch": 54, "duration": 10, "velocity": 45}, {"time": 203519, "pitch": 35, "duration": 10, "velocity": 120}, {"time": 203519, "pitch": 42, "duration": 10, "velocity": 80}, {"time": 203519, "pitch": 54, "duration": 10, "velocity": 75}, {"time": 203639, "pitch": 42, "duration": 10, "velocity": 60}, {"time": 203639, "pitch": 54, "duration": 10, "velocity": 45}, {"time": 203759, "pitch": 46, "duration": 10, "velocity": 75}, {"time": 203759, "pitch": 54, "duration": 10, "velocity": 105}, {"time": 203880, "pitch": 54, "duration": 10, "velocity": 45}, {"time": 204000, "pitch": 35, "duration": 10, "velocity": 120}, {"time": 204000, "pitch": 42, "duration": 10, "velocity": 80}, {"time": 204000, "pitch": 54, "duration": 10, "velocity": 75}, {"time": 204121, "pitch": 42, "duration": 10, "velocity": 60}, {"time": 204121, "pitch": 54, "duration": 10, "velocity": 45}, {"time": 204241, "pitch": 46, "duration": 10, "velocity": 75}, {"time": 204241, "pitch": 54, "duration": 10, "velocity": 105}, {"time": 204361, "pitch": 54, "duration": 10, "velocity": 45}, {"time": 204482, "pitch": 35, "duration": 10, "velocity": 120}, {"time": 204482, "pitch": 42, "duration": 10, "velocity": 80}, {"time": 204482, "pitch": 54, "duration": 10, "velocity": 75}, {"time": 204602, "pitch": 42, "duration": 10, "velocity": 60}, {"time": 204602, "pitch": 54, "duration": 10, "velocity": 45}, {"time": 204723, "pitch": 46, "duration": 10, "velocity": 75}, {"time": 204723, "pitch": 54, "duration": 10, "velocity": 105}, {"time": 204843, "pitch": 35, "duration": 10, "velocity": 105}, {"time": 204843, "pitch": 54, "duration": 10, "velocity": 45}, {"time": 204963, "pitch": 35, "duration": 10, "velocity": 120}, {"time": 204963, "pitch": 42, "duration": 10, "velocity": 80}, {"time": 204963, "pitch": 54, "duration": 10, "velocity": 75}, {"time": 205084, "pitch": 42, "duration": 10, "velocity": 60}, {"time": 205084, "pitch": 54, "duration": 10, "velocity": 45}, {"time": 205204, "pitch": 35, "duration": 10, "velocity": 105}, {"time": 205204, "pitch": 46, "duration": 10, "velocity": 75}, {"time": 205204, "pitch": 54, "duration": 10, "velocity": 105}, {"time": 205324, "pitch": 54, "duration": 11, "velocity": 45}, {"time": 205445, "pitch": 35, "duration": 10, "velocity": 120}, {"time": 205445, "pitch": 42, "duration": 10, "velocity": 80}, {"time": 205445, "pitch": 54, "duration": 10, "velocity": 75}, {"time": 205563, "pitch": 42, "duration": 9, "velocity": 60}, {"time": 205563, "pitch": 54, "duration": 9, "velocity": 45}, {"time": 205680, "pitch": 35, "duration": 10, "velocity": 105}, {"time": 205680, "pitch": 46, "duration": 10, "velocity": 75}, {"time": 205680, "pitch": 54, "duration": 10, "velocity": 105}, {"time": 205798, "pitch": 54, "duration": 10, "velocity": 45}, {"time": 205916, "pitch": 35, "duration": 10, "velocity": 120}, {"time": 205916, "pitch": 42, "duration": 10, "velocity": 80}, {"time": 205916, "pitch": 54, "duration": 10, "velocity": 75}, {"time": 206036, "pitch": 42, "duration": 10, "velocity": 60}, {"time": 206036, "pitch": 54, "duration": 10, "velocity": 45}, {"time": 206157, "pitch": 46, "duration": 10, "velocity": 75}, {"time": 206157, "pitch": 54, "duration": 10, "velocity": 105}, {"time": 206277, "pitch": 54, "duration": 10, "velocity": 45}, {"time": 206398, "pitch": 35, "duration": 10, "velocity": 120}, {"time": 206398, "pitch": 42, "duration": 10, "velocity": 80}, {"time": 206398, "pitch": 54, "duration": 10, "velocity": 75}, {"time": 206518, "pitch": 42, "duration": 10, "velocity": 60}, {"time": 206518, "pitch": 54, "duration": 10, "velocity": 45}, {"time": 206638, "pitch": 46, "duration": 10, "velocity": 75}, {"time": 206638, "pitch": 54, "duration": 10, "velocity": 105}, {"time": 206759, "pitch": 54, "duration": 10, "velocity": 45}, {"time": 206879, "pitch": 35, "duration": 10, "velocity": 120}, {"time": 206879, "pitch": 42, "duration": 10, "velocity": 80}, {"time": 206879, "pitch": 54, "duration": 10, "velocity": 75}, {"time": 207000, "pitch": 42, "duration": 10, "velocity": 60}, {"time": 207000, "pitch": 54, "duration": 10, "velocity": 45}, {"time": 207120, "pitch": 46, "duration": 10, "velocity": 75}, {"time": 207120, "pitch": 54, "duration": 10, "velocity": 105}, {"time": 207240, "pitch": 54, "duration": 10, "velocity": 45}, {"time": 207361, "pitch": 35, "duration": 10, "velocity": 120}, {"time": 207361, "pitch": 42, "duration": 10, "velocity": 80}, {"time": 207361, "pitch": 54, "duration": 10, "velocity": 75}, {"time": 207481, "pitch": 42, "duration": 10, "velocity": 60}, {"time": 207481, "pitch": 54, "duration": 10, "velocity": 45}, {"time": 207602, "pitch": 46, "duration": 10, "velocity": 75}, {"time": 207602, "pitch": 54, "duration": 10, "velocity": 105}, {"time": 207722, "pitch": 54, "duration": 10, "velocity": 45}, {"time": 207842, "pitch": 35, "duration": 10, "velocity": 120}, {"time": 207842, "pitch": 42, "duration": 10, "velocity": 80}, {"time": 207842, "pitch": 54, "duration": 10, "velocity": 75}, {"time": 207963, "pitch": 42, "duration": 10, "velocity": 60}, {"time": 207963, "pitch": 54, "duration": 10, "velocity": 45}, {"time": 208083, "pitch": 46, "duration": 10, "velocity": 75}, {"time": 208083, "pitch": 54, "duration": 10, "velocity": 105}, {"time": 208204, "pitch": 54, "duration": 10, "velocity": 45}, {"time": 208324, "pitch": 35, "duration": 10, "velocity": 120}, {"time": 208324, "pitch": 42, "duration": 10, "velocity": 80}, {"time": 208324, "pitch": 54, "duration": 10, "velocity": 75}, {"time": 208442, "pitch": 42, "duration": 10, "velocity": 60}, {"time": 208442, "pitch": 54, "duration": 10, "velocity": 45}, {"time": 208560, "pitch": 46, "duration": 9, "velocity": 75}, {"time": 208560, "pitch": 54, "duration": 9, "velocity": 105}, {"time": 208677, "pitch": 54, "duration": 10, "velocity": 45}, {"time": 208795, "pitch": 35, "duration": 10, "velocity": 120}, {"time": 208795, "pitch": 42, "duration": 10, "velocity": 80}, {"time": 208795, "pitch": 54, "duration": 10, "velocity": 75}, {"time": 208916, "pitch": 42, "duration": 10, "velocity": 60}, {"time": 208916, "pitch": 54, "duration": 10, "velocity": 45}, {"time": 209036, "pitch": 46, "duration": 10, "velocity": 75}, {"time": 209036, "pitch": 54, "duration": 10, "velocity": 105}, {"time": 209156, "pitch": 54, "duration": 10, "velocity": 45}, {"time": 209277, "pitch": 35, "duration": 10, "velocity": 120}, {"time": 209277, "pitch": 42, "duration": 10, "velocity": 80}, {"time": 209277, "pitch": 54, "duration": 10, "velocity": 75}, {"time": 209397, "pitch": 42, "duration": 10, "velocity": 60}, {"time": 209397, "pitch": 54, "duration": 10, "velocity": 45}, {"time": 209517, "pitch": 35, "duration": 11, "velocity": 105}, {"time": 209517, "pitch": 46, "duration": 11, "velocity": 75}, {"time": 209517, "pitch": 54, "duration": 11, "velocity": 105}, {"time": 209638, "pitch": 54, "duration": 10, "velocity": 45}, {"time": 209758, "pitch": 35, "duration": 10, "velocity": 120}, {"time": 209758, "pitch": 42, "duration": 10, "velocity": 80}, {"time": 209758, "pitch": 54, "duration": 10, "velocity": 75}, {"time": 209879, "pitch": 42, "duration": 10, "velocity": 60}, {"time": 209879, "pitch": 54, "duration": 10, "velocity": 45}, {"time": 209999, "pitch": 46, "duration": 10, "velocity": 75}, {"time": 209999, "pitch": 54, "duration": 10, "velocity": 105}, {"time": 210119, "pitch": 54, "duration": 11, "velocity": 45}, {"time": 210240, "pitch": 35, "duration": 10, "velocity": 120}, {"time": 210240, "pitch": 42, "duration": 10, "velocity": 80}, {"time": 210240, "pitch": 54, "duration": 10, "velocity": 75}, {"time": 210360, "pitch": 42, "duration": 10, "velocity": 60}, {"time": 210360, "pitch": 54, "duration": 10, "velocity": 45}, {"time": 210481, "pitch": 46, "duration": 10, "velocity": 75}, {"time": 210481, "pitch": 54, "duration": 10, "velocity": 105}, {"time": 210601, "pitch": 54, "duration": 10, "velocity": 45}, {"time": 210721, "pitch": 35, "duration": 10, "velocity": 120}, {"time": 210721, "pitch": 42, "duration": 10, "velocity": 80}, {"time": 210721, "pitch": 54, "duration": 10, "velocity": 75}, {"time": 210842, "pitch": 42, "duration": 10, "velocity": 60}, {"time": 210842, "pitch": 54, "duration": 10, "velocity": 45}, {"time": 210962, "pitch": 46, "duration": 10, "velocity": 75}, {"time": 210962, "pitch": 54, "duration": 10, "velocity": 105}, {"time": 211083, "pitch": 54, "duration": 10, "velocity": 45}, {"time": 211203, "pitch": 35, "duration": 10, "velocity": 120}, {"time": 211203, "pitch": 42, "duration": 10, "velocity": 80}, {"time": 211203, "pitch": 54, "duration": 10, "velocity": 75}, {"time": 211323, "pitch": 42, "duration": 10, "velocity": 60}, {"time": 211323, "pitch": 54, "duration": 10, "velocity": 45}, {"time": 211444, "pitch": 46, "duration": 10, "velocity": 75}, {"time": 211444, "pitch": 54, "duration": 10, "velocity": 105}, {"time": 211564, "pitch": 54, "duration": 10, "velocity": 45}, {"time": 211685, "pitch": 35, "duration": 9, "velocity": 120}, {"time": 211685, "pitch": 42, "duration": 9, "velocity": 80}, {"time": 211685, "pitch": 54, "duration": 9, "velocity": 75}, {"time": 211802, "pitch": 42, "duration": 10, "velocity": 60}, {"time": 211802, "pitch": 54, "duration": 10, "velocity": 45}, {"time": 211920, "pitch": 46, "duration": 10, "velocity": 75}, {"time": 211920, "pitch": 54, "duration": 10, "velocity": 105}, {"time": 212038, "pitch": 54, "duration": 10, "velocity": 45}, {"time": 212156, "pitch": 35, "duration": 10, "velocity": 120}, {"time": 212156, "pitch": 42, "duration": 10, "velocity": 80}, {"time": 212156, "pitch": 54, "duration": 10, "velocity": 75}, {"time": 212276, "pitch": 42, "duration": 10, "velocity": 60}, {"time": 212276, "pitch": 54, "duration": 10, "velocity": 45}, {"time": 212397, "pitch": 46, "duration": 10, "velocity": 75}, {"time": 212397, "pitch": 54, "duration": 10, "velocity": 105}, {"time": 212517, "pitch": 35, "duration": 10, "velocity": 105}, {"time": 212517, "pitch": 54, "duration": 10, "velocity": 45}, {"time": 212637, "pitch": 35, "duration": 10, "velocity": 120}, {"time": 212637, "pitch": 42, "duration": 10, "velocity": 80}, {"time": 212637, "pitch": 54, "duration": 10, "velocity": 75}, {"time": 212758, "pitch": 42, "duration": 10, "velocity": 60}, {"time": 212758, "pitch": 54, "duration": 10, "velocity": 45}, {"time": 212878, "pitch": 35, "duration": 10, "velocity": 105}, {"time": 212878, "pitch": 46, "duration": 10, "velocity": 75}, {"time": 212878, "pitch": 54, "duration": 10, "velocity": 105}, {"time": 212999, "pitch": 54, "duration": 10, "velocity": 45}, {"time": 213119, "pitch": 35, "duration": 10, "velocity": 120}, {"time": 213119, "pitch": 42, "duration": 10, "velocity": 80}, {"time": 213119, "pitch": 54, "duration": 10, "velocity": 75}, {"time": 213239, "pitch": 42, "duration": 10, "velocity": 60}, {"time": 213239, "pitch": 54, "duration": 10, "velocity": 45}, {"time": 213360, "pitch": 35, "duration": 10, "velocity": 105}, {"time": 213360, "pitch": 46, "duration": 10, "velocity": 75}, {"time": 213360, "pitch": 54, "duration": 10, "velocity": 105}, {"time": 213480, "pitch": 54, "duration": 10, "velocity": 45}, {"time": 213601, "pitch": 35, "duration": 10, "velocity": 120}, {"time": 213601, "pitch": 42, "duration": 10, "velocity": 80}, {"time": 213601, "pitch": 54, "duration": 10, "velocity": 75}, {"time": 213721, "pitch": 42, "duration": 10, "velocity": 60}, {"time": 213721, "pitch": 54, "duration": 10, "velocity": 45}, {"time": 213841, "pitch": 46, "duration": 10, "velocity": 75}, {"time": 213841, "pitch": 54, "duration": 10, "velocity": 105}, {"time": 213962, "pitch": 54, "duration": 10, "velocity": 45}, {"time": 214082, "pitch": 35, "duration": 10, "velocity": 120}, {"time": 214082, "pitch": 42, "duration": 10, "velocity": 80}, {"time": 214082, "pitch": 54, "duration": 10, "velocity": 75}, {"time": 214203, "pitch": 42, "duration": 10, "velocity": 60}, {"time": 214203, "pitch": 54, "duration": 10, "velocity": 45}, {"time": 214323, "pitch": 46, "duration": 10, "velocity": 75}, {"time": 214323, "pitch": 54, "duration": 10, "velocity": 105}, {"time": 214443, "pitch": 54, "duration": 10, "velocity": 45}, {"time": 214564, "pitch": 35, "duration": 9, "velocity": 120}, {"time": 214564, "pitch": 42, "duration": 9, "velocity": 80}, {"time": 214564, "pitch": 54, "duration": 9, "velocity": 75}, {"time": 214681, "pitch": 42, "duration": 10, "velocity": 60}, {"time": 214681, "pitch": 54, "duration": 10, "velocity": 45}, {"time": 214799, "pitch": 46, "duration": 10, "velocity": 75}, {"time": 214799, "pitch": 54, "duration": 10, "velocity": 105}, {"time": 214917, "pitch": 54, "duration": 10, "velocity": 45}, {"time": 215035, "pitch": 35, "duration": 10, "velocity": 120}, {"time": 215035, "pitch": 42, "duration": 10, "velocity": 80}, {"time": 215035, "pitch": 54, "duration": 10, "velocity": 75}, {"time": 215155, "pitch": 42, "duration": 10, "velocity": 60}, {"time": 215155, "pitch": 54, "duration": 10, "velocity": 45}, {"time": 215276, "pitch": 46, "duration": 10, "velocity": 75}, {"time": 215276, "pitch": 54, "duration": 10, "velocity": 105}, {"time": 215396, "pitch": 54, "duration": 10, "velocity": 45}, {"time": 215516, "pitch": 35, "duration": 10, "velocity": 120}, {"time": 215516, "pitch": 42, "duration": 10, "velocity": 80}, {"time": 215516, "pitch": 54, "duration": 10, "velocity": 75}, {"time": 215637, "pitch": 42, "duration": 10, "velocity": 60}, {"time": 215637, "pitch": 54, "duration": 10, "velocity": 45}, {"time": 215757, "pitch": 46, "duration": 10, "velocity": 75}, {"time": 215757, "pitch": 54, "duration": 10, "velocity": 105}, {"time": 215878, "pitch": 54, "duration": 10, "velocity": 45}, {"time": 215998, "pitch": 35, "duration": 10, "velocity": 120}, {"time": 215998, "pitch": 42, "duration": 10, "velocity": 80}, {"time": 215998, "pitch": 54, "duration": 10, "velocity": 75}, {"time": 216118, "pitch": 42, "duration": 10, "velocity": 60}, {"time": 216118, "pitch": 54, "duration": 10, "velocity": 45}, {"time": 216239, "pitch": 46, "duration": 10, "velocity": 75}, {"time": 216239, "pitch": 54, "duration": 10, "velocity": 105}, {"time": 216359, "pitch": 54, "duration": 10, "velocity": 45}, {"time": 216480, "pitch": 35, "duration": 10, "velocity": 120}, {"time": 216480, "pitch": 42, "duration": 10, "velocity": 80}, {"time": 216480, "pitch": 54, "duration": 10, "velocity": 75}, {"time": 216600, "pitch": 42, "duration": 10, "velocity": 60}, {"time": 216600, "pitch": 54, "duration": 10, "velocity": 45}, {"time": 216720, "pitch": 46, "duration": 10, "velocity": 75}, {"time": 216720, "pitch": 54, "duration": 10, "velocity": 105}, {"time": 216841, "pitch": 54, "duration": 10, "velocity": 45}, {"time": 216961, "pitch": 35, "duration": 10, "velocity": 120}, {"time": 216961, "pitch": 42, "duration": 10, "velocity": 80}, {"time": 216961, "pitch": 54, "duration": 10, "velocity": 75}, {"time": 217082, "pitch": 42, "duration": 10, "velocity": 60}, {"time": 217082, "pitch": 54, "duration": 10, "velocity": 45}, {"time": 217202, "pitch": 35, "duration": 10, "velocity": 105}, {"time": 217202, "pitch": 46, "duration": 10, "velocity": 75}, {"time": 217202, "pitch": 54, "duration": 10, "velocity": 105}, {"time": 217322, "pitch": 54, "duration": 10, "velocity": 45}, {"time": 217443, "pitch": 35, "duration": 10, "velocity": 120}, {"time": 217443, "pitch": 42, "duration": 10, "velocity": 80}, {"time": 217443, "pitch": 54, "duration": 10, "velocity": 75}, {"time": 217563, "pitch": 42, "duration": 10, "velocity": 60}, {"time": 217563, "pitch": 54, "duration": 10, "velocity": 45}, {"time": 217684, "pitch": 46, "duration": 10, "velocity": 75}, {"time": 217684, "pitch": 54, "duration": 10, "velocity": 105}, {"time": 217804, "pitch": 54, "duration": 10, "velocity": 45}, {"time": 217924, "pitch": 35, "duration": 10, "velocity": 120}, {"time": 217924, "pitch": 42, "duration": 10, "velocity": 80}, {"time": 217924, "pitch": 54, "duration": 10, "velocity": 75}, {"time": 218042, "pitch": 42, "duration": 10, "velocity": 60}, {"time": 218042, "pitch": 54, "duration": 10, "velocity": 45}, {"time": 218160, "pitch": 46, "duration": 10, "velocity": 75}, {"time": 218160, "pitch": 54, "duration": 10, "velocity": 105}, {"time": 218278, "pitch": 54, "duration": 10, "velocity": 45}, {"time": 218396, "pitch": 35, "duration": 10, "velocity": 120}, {"time": 218396, "pitch": 42, "duration": 10, "velocity": 80}, {"time": 218396, "pitch": 54, "duration": 10, "velocity": 75}, {"time": 218516, "pitch": 42, "duration": 10, "velocity": 60}, {"time": 218516, "pitch": 54, "duration": 10, "velocity": 45}, {"time": 218636, "pitch": 46, "duration": 10, "velocity": 75}, {"time": 218636, "pitch": 54, "duration": 10, "velocity": 105}, {"time": 218757, "pitch": 54, "duration": 10, "velocity": 45}, {"time": 218877, "pitch": 35, "duration": 10, "velocity": 120}, {"time": 218877, "pitch": 42, "duration": 10, "velocity": 80}, {"time": 218877, "pitch": 54, "duration": 10, "velocity": 75}, {"time": 218997, "pitch": 42, "duration": 11, "velocity": 60}, {"time": 218997, "pitch": 54, "duration": 11, "velocity": 45}, {"time": 219118, "pitch": 46, "duration": 10, "velocity": 75}, {"time": 219118, "pitch": 54, "duration": 10, "velocity": 105}, {"time": 219238, "pitch": 54, "duration": 10, "velocity": 45}, {"time": 219359, "pitch": 35, "duration": 10, "velocity": 120}, {"time": 219359, "pitch": 42, "duration": 10, "velocity": 80}, {"time": 219359, "pitch": 54, "duration": 10, "velocity": 75}, {"time": 219479, "pitch": 42, "duration": 10, "velocity": 60}, {"time": 219479, "pitch": 54, "duration": 10, "velocity": 45}, {"time": 219599, "pitch": 46, "duration": 11, "velocity": 75}, {"time": 219599, "pitch": 54, "duration": 11, "velocity": 105}, {"time": 219720, "pitch": 54, "duration": 10, "velocity": 45}, {"time": 219840, "pitch": 35, "duration": 10, "velocity": 120}, {"time": 219840, "pitch": 42, "duration": 10, "velocity": 80}, {"time": 219840, "pitch": 54, "duration": 10, "velocity": 75}, {"time": 219961, "pitch": 42, "duration": 10, "velocity": 60}, {"time": 219961, "pitch": 54, "duration": 10, "velocity": 45}, {"time": 220081, "pitch": 46, "duration": 10, "velocity": 75}, {"time": 220081, "pitch": 54, "duration": 10, "velocity": 105}, {"time": 220201, "pitch": 35, "duration": 10, "velocity": 105}, {"time": 220201, "pitch": 54, "duration": 10, "velocity": 45}, {"time": 220322, "pitch": 35, "duration": 10, "velocity": 120}, {"time": 220322, "pitch": 42, "duration": 10, "velocity": 80}, {"time": 220322, "pitch": 54, "duration": 10, "velocity": 75}, {"time": 220442, "pitch": 42, "duration": 10, "velocity": 60}, {"time": 220442, "pitch": 54, "duration": 10, "velocity": 45}, {"time": 220563, "pitch": 35, "duration": 10, "velocity": 105}, {"time": 220563, "pitch": 46, "duration": 10, "velocity": 75}, {"time": 220563, "pitch": 54, "duration": 10, "velocity": 105}, {"time": 220683, "pitch": 54, "duration": 10, "velocity": 45}, {"time": 220803, "pitch": 35, "duration": 10, "velocity": 120}, {"time": 220803, "pitch": 42, "duration": 10, "velocity": 80}, {"time": 220803, "pitch": 54, "duration": 10, "velocity": 75}, {"time": 220924, "pitch": 42, "duration": 10, "velocity": 60}, {"time": 220924, "pitch": 54, "duration": 10, "velocity": 45}, {"time": 221044, "pitch": 35, "duration": 10, "velocity": 105}, {"time": 221044, "pitch": 46, "duration": 10, "velocity": 75}, {"time": 221044, "pitch": 54, "duration": 10, "velocity": 105}, {"time": 221165, "pitch": 54, "duration": 10, "velocity": 45}, {"time": 221285, "pitch": 35, "duration": 10, "velocity": 120}, {"time": 221285, "pitch": 42, "duration": 10, "velocity": 80}, {"time": 221285, "pitch": 54, "duration": 10, "velocity": 75}, {"time": 221403, "pitch": 42, "duration": 10, "velocity": 60}, {"time": 221403, "pitch": 54, "duration": 10, "velocity": 45}, {"time": 221521, "pitch": 46, "duration": 9, "velocity": 75}, {"time": 221521, "pitch": 54, "duration": 9, "velocity": 105}, {"time": 221638, "pitch": 54, "duration": 10, "velocity": 45}, {"time": 221756, "pitch": 35, "duration": 10, "velocity": 120}, {"time": 221756, "pitch": 42, "duration": 10, "velocity": 80}, {"time": 221756, "pitch": 54, "duration": 10, "velocity": 75}, {"time": 221877, "pitch": 42, "duration": 10, "velocity": 60}, {"time": 221877, "pitch": 54, "duration": 10, "velocity": 45}, {"time": 221997, "pitch": 46, "duration": 10, "velocity": 75}, {"time": 221997, "pitch": 54, "duration": 10, "velocity": 105}, {"time": 222117, "pitch": 54, "duration": 10, "velocity": 45}, {"time": 222238, "pitch": 35, "duration": 10, "velocity": 120}, {"time": 222238, "pitch": 42, "duration": 10, "velocity": 80}, {"time": 222238, "pitch": 54, "duration": 10, "velocity": 75}, {"time": 222358, "pitch": 42, "duration": 10, "velocity": 60}, {"time": 222358, "pitch": 54, "duration": 10, "velocity": 45}, {"time": 222479, "pitch": 46, "duration": 10, "velocity": 75}, {"time": 222479, "pitch": 54, "duration": 10, "velocity": 105}, {"time": 222599, "pitch": 54, "duration": 10, "velocity": 45}, {"time": 222719, "pitch": 35, "duration": 10, "velocity": 120}, {"time": 222719, "pitch": 42, "duration": 10, "velocity": 80}, {"time": 222719, "pitch": 54, "duration": 10, "velocity": 75}, {"time": 222840, "pitch": 42, "duration": 10, "velocity": 60}, {"time": 222840, "pitch": 54, "duration": 10, "velocity": 45}, {"time": 222960, "pitch": 46, "duration": 10, "velocity": 75}, {"time": 222960, "pitch": 54, "duration": 10, "velocity": 105}, {"time": 223081, "pitch": 54, "duration": 10, "velocity": 45}, {"time": 223201, "pitch": 35, "duration": 10, "velocity": 120}, {"time": 223201, "pitch": 42, "duration": 10, "velocity": 80}, {"time": 223201, "pitch": 54, "duration": 10, "velocity": 75}, {"time": 223321, "pitch": 42, "duration": 10, "velocity": 60}, {"time": 223321, "pitch": 54, "duration": 10, "velocity": 45}, {"time": 223442, "pitch": 46, "duration": 10, "velocity": 75}, {"time": 223442, "pitch": 54, "duration": 10, "velocity": 105}, {"time": 223562, "pitch": 54, "duration": 10, "velocity": 45}, {"time": 223683, "pitch": 35, "duration": 10, "velocity": 120}, {"time": 223683, "pitch": 42, "duration": 10, "velocity": 80}, {"time": 223683, "pitch": 54, "duration": 10, "velocity": 75}, {"time": 223803, "pitch": 42, "duration": 10, "velocity": 60}, {"time": 223803, "pitch": 54, "duration": 10, "velocity": 45}, {"time": 223923, "pitch": 46, "duration": 10, "velocity": 75}, {"time": 223923, "pitch": 54, "duration": 10, "velocity": 105}, {"time": 224044, "pitch": 54, "duration": 10, "velocity": 45}, {"time": 224164, "pitch": 35, "duration": 10, "velocity": 120}, {"time": 224164, "pitch": 42, "duration": 10, "velocity": 80}, {"time": 224164, "pitch": 54, "duration": 10, "velocity": 75}, {"time": 224282, "pitch": 42, "duration": 10, "velocity": 60}, {"time": 224282, "pitch": 54, "duration": 10, "velocity": 45}, {"time": 224400, "pitch": 46, "duration": 10, "velocity": 75}, {"time": 224400, "pitch": 54, "duration": 10, "velocity": 105}, {"time": 224518, "pitch": 54, "duration": 9, "velocity": 45}, {"time": 224635, "pitch": 35, "duration": 10, "velocity": 120}, {"time": 224635, "pitch": 42, "duration": 10, "velocity": 80}, {"time": 224635, "pitch": 54, "duration": 10, "velocity": 75}, {"time": 224756, "pitch": 42, "duration": 10, "velocity": 60}, {"time": 224756, "pitch": 54, "duration": 10, "velocity": 45}, {"time": 224876, "pitch": 35, "duration": 10, "velocity": 105}, {"time": 224876, "pitch": 46, "duration": 10, "velocity": 75}, {"time": 224876, "pitch": 54, "duration": 10, "velocity": 105}, {"time": 224996, "pitch": 54, "duration": 10, "velocity": 45}, {"time": 225117, "pitch": 35, "duration": 10, "velocity": 120}, {"time": 225117, "pitch": 42, "duration": 10, "velocity": 80}, {"time": 225117, "pitch": 54, "duration": 10, "velocity": 75}, {"time": 225237, "pitch": 42, "duration": 10, "velocity": 60}, {"time": 225237, "pitch": 54, "duration": 10, "velocity": 45}, {"time": 225358, "pitch": 46, "duration": 10, "velocity": 75}, {"time": 225358, "pitch": 54, "duration": 10, "velocity": 105}, {"time": 225478, "pitch": 54, "duration": 10, "velocity": 45}, {"time": 225598, "pitch": 35, "duration": 10, "velocity": 120}, {"time": 225598, "pitch": 42, "duration": 10, "velocity": 80}, {"time": 225598, "pitch": 54, "duration": 10, "velocity": 75}, {"time": 225719, "pitch": 42, "duration": 10, "velocity": 60}, {"time": 225719, "pitch": 54, "duration": 10, "velocity": 45}, {"time": 225839, "pitch": 46, "duration": 10, "velocity": 75}, {"time": 225839, "pitch": 54, "duration": 10, "velocity": 105}, {"time": 225960, "pitch": 54, "duration": 10, "velocity": 45}, {"time": 226080, "pitch": 35, "duration": 10, "velocity": 120}, {"time": 226080, "pitch": 42, "duration": 10, "velocity": 80}, {"time": 226080, "pitch": 54, "duration": 10, "velocity": 75}, {"time": 226200, "pitch": 42, "duration": 10, "velocity": 60}, {"time": 226200, "pitch": 54, "duration": 10, "velocity": 45}, {"time": 226321, "pitch": 46, "duration": 10, "velocity": 75}, {"time": 226321, "pitch": 54, "duration": 10, "velocity": 105}, {"time": 226441, "pitch": 54, "duration": 10, "velocity": 45}, {"time": 226562, "pitch": 35, "duration": 10, "velocity": 120}, {"time": 226562, "pitch": 42, "duration": 10, "velocity": 80}, {"time": 226562, "pitch": 54, "duration": 10, "velocity": 75}, {"time": 226682, "pitch": 42, "duration": 10, "velocity": 60}, {"time": 226682, "pitch": 54, "duration": 10, "velocity": 45}, {"time": 226802, "pitch": 46, "duration": 10, "velocity": 75}, {"time": 226802, "pitch": 54, "duration": 10, "velocity": 105}, {"time": 226923, "pitch": 54, "duration": 10, "velocity": 45}, {"time": 227043, "pitch": 35, "duration": 10, "velocity": 120}, {"time": 227043, "pitch": 42, "duration": 10, "velocity": 80}, {"time": 227043, "pitch": 54, "duration": 10, "velocity": 75}, {"time": 227164, "pitch": 42, "duration": 10, "velocity": 60}, {"time": 227164, "pitch": 54, "duration": 10, "velocity": 45}, {"time": 227284, "pitch": 46, "duration": 10, "velocity": 75}, {"time": 227284, "pitch": 54, "duration": 10, "velocity": 105}, {"time": 227404, "pitch": 54, "duration": 10, "velocity": 45}, {"time": 227525, "pitch": 35, "duration": 9, "velocity": 120}, {"time": 227525, "pitch": 42, "duration": 9, "velocity": 80}, {"time": 227525, "pitch": 54, "duration": 9, "velocity": 75}, {"time": 227642, "pitch": 42, "duration": 10, "velocity": 60}, {"time": 227642, "pitch": 54, "duration": 10, "velocity": 45}, {"time": 227760, "pitch": 46, "duration": 10, "velocity": 75}, {"time": 227760, "pitch": 54, "duration": 10, "velocity": 105}, {"time": 227878, "pitch": 35, "duration": 10, "velocity": 105}, {"time": 227878, "pitch": 54, "duration": 10, "velocity": 45}, {"time": 227996, "pitch": 35, "duration": 10, "velocity": 120}, {"time": 227996, "pitch": 42, "duration": 10, "velocity": 80}, {"time": 227996, "pitch": 54, "duration": 10, "velocity": 75}, {"time": 228116, "pitch": 42, "duration": 10, "velocity": 60}, {"time": 228116, "pitch": 54, "duration": 10, "velocity": 45}, {"time": 228237, "pitch": 35, "duration": 10, "velocity": 105}, {"time": 228237, "pitch": 46, "duration": 10, "velocity": 75}, {"time": 228237, "pitch": 54, "duration": 10, "velocity": 105}, {"time": 228357, "pitch": 54, "duration": 10, "velocity": 45}, {"time": 228477, "pitch": 35, "duration": 11, "velocity": 120}, {"time": 228477, "pitch": 42, "duration": 11, "velocity": 80}, {"time": 228477, "pitch": 54, "duration": 11, "velocity": 75}, {"time": 228598, "pitch": 42, "duration": 10, "velocity": 60}, {"time": 228598, "pitch": 54, "duration": 10, "velocity": 45}, {"time": 228718, "pitch": 35, "duration": 10, "velocity": 105}, {"time": 228718, "pitch": 46, "duration": 10, "velocity": 75}, {"time": 228718, "pitch": 54, "duration": 10, "velocity": 105}, {"time": 228839, "pitch": 54, "duration": 10, "velocity": 45}, {"time": 228959, "pitch": 35, "duration": 10, "velocity": 120}, {"time": 228959, "pitch": 42, "duration": 10, "velocity": 80}, {"time": 228959, "pitch": 54, "duration": 10, "velocity": 75}, {"time": 229079, "pitch": 42, "duration": 11, "velocity": 60}, {"time": 229079, "pitch": 54, "duration": 11, "velocity": 45}, {"time": 229200, "pitch": 46, "duration": 10, "velocity": 75}, {"time": 229200, "pitch": 54, "duration": 10, "velocity": 105}, {"time": 229320, "pitch": 54, "duration": 10, "velocity": 45}, {"time": 229441, "pitch": 35, "duration": 10, "velocity": 120}, {"time": 229441, "pitch": 42, "duration": 10, "velocity": 80}, {"time": 229441, "pitch": 54, "duration": 10, "velocity": 75}, {"time": 229561, "pitch": 42, "duration": 10, "velocity": 60}, {"time": 229561, "pitch": 54, "duration": 10, "velocity": 45}, {"time": 229681, "pitch": 46, "duration": 10, "velocity": 75}, {"time": 229681, "pitch": 54, "duration": 10, "velocity": 105}, {"time": 229802, "pitch": 54, "duration": 10, "velocity": 45}, {"time": 229922, "pitch": 35, "duration": 10, "velocity": 120}, {"time": 229922, "pitch": 42, "duration": 10, "velocity": 80}, {"time": 229922, "pitch": 54, "duration": 10, "velocity": 75}, {"time": 230043, "pitch": 42, "duration": 10, "velocity": 60}, {"time": 230043, "pitch": 54, "duration": 10, "velocity": 45}, {"time": 230163, "pitch": 46, "duration": 10, "velocity": 75}, {"time": 230163, "pitch": 54, "duration": 10, "velocity": 105}, {"time": 230283, "pitch": 54, "duration": 10, "velocity": 45}, {"time": 230404, "pitch": 35, "duration": 10, "velocity": 120}, {"time": 230404, "pitch": 42, "duration": 10, "velocity": 80}, {"time": 230404, "pitch": 54, "duration": 10, "velocity": 75}, {"time": 230522, "pitch": 42, "duration": 9, "velocity": 60}, {"time": 230522, "pitch": 54, "duration": 9, "velocity": 45}, {"time": 230639, "pitch": 46, "duration": 10, "velocity": 75}, {"time": 230639, "pitch": 54, "duration": 10, "velocity": 105}, {"time": 230757, "pitch": 54, "duration": 10, "velocity": 45}, {"time": 230875, "pitch": 35, "duration": 10, "velocity": 120}, {"time": 230875, "pitch": 42, "duration": 10, "velocity": 80}, {"time": 230875, "pitch": 54, "duration": 10, "velocity": 75}, {"time": 230995, "pitch": 42, "duration": 10, "velocity": 60}, {"time": 230995, "pitch": 54, "duration": 10, "velocity": 45}, {"time": 231116, "pitch": 46, "duration": 10, "velocity": 75}, {"time": 231116, "pitch": 54, "duration": 10, "velocity": 105}, {"time": 231236, "pitch": 54, "duration": 10, "velocity": 45}, {"time": 231357, "pitch": 35, "duration": 10, "velocity": 120}, {"time": 231357, "pitch": 42, "duration": 10, "velocity": 80}, {"time": 231357, "pitch": 54, "duration": 10, "velocity": 75}, {"time": 231477, "pitch": 42, "duration": 10, "velocity": 60}, {"time": 231477, "pitch": 54, "duration": 10, "velocity": 45}, {"time": 231597, "pitch": 46, "duration": 10, "velocity": 75}, {"time": 231597, "pitch": 54, "duration": 10, "velocity": 105}, {"time": 231718, "pitch": 54, "duration": 10, "velocity": 45}, {"time": 231838, "pitch": 35, "duration": 10, "velocity": 120}, {"time": 231838, "pitch": 42, "duration": 10, "velocity": 80}, {"time": 231838, "pitch": 54, "duration": 10, "velocity": 75}, {"time": 231959, "pitch": 42, "duration": 10, "velocity": 60}, {"time": 231959, "pitch": 54, "duration": 10, "velocity": 45}, {"time": 232079, "pitch": 46, "duration": 10, "velocity": 75}, {"time": 232079, "pitch": 54, "duration": 10, "velocity": 105}, {"time": 232199, "pitch": 54, "duration": 10, "velocity": 45}, {"time": 232320, "pitch": 35, "duration": 10, "velocity": 120}, {"time": 232320, "pitch": 42, "duration": 10, "velocity": 80}, {"time": 232320, "pitch": 54, "duration": 10, "velocity": 75}, {"time": 232440, "pitch": 42, "duration": 10, "velocity": 60}, {"time": 232440, "pitch": 54, "duration": 10, "velocity": 45}, {"time": 232561, "pitch": 35, "duration": 10, "velocity": 105}, {"time": 232561, "pitch": 46, "duration": 10, "velocity": 75}, {"time": 232561, "pitch": 54, "duration": 10, "velocity": 105}, {"time": 232681, "pitch": 54, "duration": 10, "velocity": 45}, {"time": 232801, "pitch": 35, "duration": 10, "velocity": 120}, {"time": 232801, "pitch": 42, "duration": 10, "velocity": 80}, {"time": 232801, "pitch": 54, "duration": 10, "velocity": 75}, {"time": 232922, "pitch": 42, "duration": 10, "velocity": 60}, {"time": 232922, "pitch": 54, "duration": 10, "velocity": 45}, {"time": 233042, "pitch": 46, "duration": 10, "velocity": 75}, {"time": 233042, "pitch": 54, "duration": 10, "velocity": 105}, {"time": 233163, "pitch": 54, "duration": 10, "velocity": 45}, {"time": 233283, "pitch": 35, "duration": 10, "velocity": 120}, {"time": 233283, "pitch": 42, "duration": 10, "velocity": 80}, {"time": 233283, "pitch": 54, "duration": 10, "velocity": 75}, {"time": 233403, "pitch": 42, "duration": 10, "velocity": 60}, {"time": 233403, "pitch": 54, "duration": 10, "velocity": 45}, {"time": 233524, "pitch": 46, "duration": 10, "velocity": 75}, {"time": 233524, "pitch": 54, "duration": 10, "velocity": 105}, {"time": 233644, "pitch": 54, "duration": 10, "velocity": 45}, {"time": 233764, "pitch": 35, "duration": 10, "velocity": 120}, {"time": 233764, "pitch": 42, "duration": 10, "velocity": 80}, {"time": 233764, "pitch": 54, "duration": 10, "velocity": 75}, {"time": 233882, "pitch": 42, "duration": 10, "velocity": 60}, {"time": 233882, "pitch": 54, "duration": 10, "velocity": 45}, {"time": 234000, "pitch": 46, "duration": 10, "velocity": 75}, {"time": 234000, "pitch": 54, "duration": 10, "velocity": 105}, {"time": 234118, "pitch": 54, "duration": 10, "velocity": 45}, {"time": 234236, "pitch": 35, "duration": 10, "velocity": 120}, {"time": 234236, "pitch": 42, "duration": 10, "velocity": 80}, {"time": 234236, "pitch": 54, "duration": 10, "velocity": 75}, {"time": 234356, "pitch": 42, "duration": 10, "velocity": 60}, {"time": 234356, "pitch": 54, "duration": 10, "velocity": 45}, {"time": 234476, "pitch": 46, "duration": 10, "velocity": 75}, {"time": 234476, "pitch": 54, "duration": 10, "velocity": 105}, {"time": 234597, "pitch": 54, "duration": 10, "velocity": 45}, {"time": 234717, "pitch": 35, "duration": 10, "velocity": 120}, {"time": 234717, "pitch": 42, "duration": 10, "velocity": 80}, {"time": 234717, "pitch": 54, "duration": 10, "velocity": 75}, {"time": 234838, "pitch": 42, "duration": 10, "velocity": 60}, {"time": 234838, "pitch": 54, "duration": 10, "velocity": 45}, {"time": 234958, "pitch": 46, "duration": 10, "velocity": 75}, {"time": 234958, "pitch": 54, "duration": 10, "velocity": 105}, {"time": 235078, "pitch": 54, "duration": 10, "velocity": 45}, {"time": 235199, "pitch": 35, "duration": 10, "velocity": 120}, {"time": 235199, "pitch": 42, "duration": 10, "velocity": 80}, {"time": 235199, "pitch": 54, "duration": 10, "velocity": 75}, {"time": 235319, "pitch": 42, "duration": 10, "velocity": 60}, {"time": 235319, "pitch": 54, "duration": 10, "velocity": 45}, {"time": 235440, "pitch": 46, "duration": 10, "velocity": 75}, {"time": 235440, "pitch": 54, "duration": 10, "velocity": 105}, {"time": 235560, "pitch": 35, "duration": 10, "velocity": 105}, {"time": 235560, "pitch": 40, "duration": 10, "velocity": 110}, {"time": 235560, "pitch": 54, "duration": 10, "velocity": 45}, {"time": 235680, "pitch": 35, "duration": 10, "velocity": 120}, {"time": 235680, "pitch": 42, "duration": 10, "velocity": 80}, {"time": 235680, "pitch": 54, "duration": 10, "velocity": 75}, {"time": 235801, "pitch": 40, "duration": 10, "velocity": 110}, {"time": 235801, "pitch": 42, "duration": 10, "velocity": 60}, {"time": 235801, "pitch": 54, "duration": 10, "velocity": 45}, {"time": 235921, "pitch": 35, "duration": 10, "velocity": 105}, {"time": 235921, "pitch": 40, "duration": 10, "velocity": 110}, {"time": 235921, "pitch": 46, "duration": 10, "velocity": 75}, {"time": 235921, "pitch": 54, "duration": 10, "velocity": 105}, {"time": 236042, "pitch": 40, "duration": 10, "velocity": 110}, {"time": 236042, "pitch": 54, "duration": 10, "velocity": 45}, {"time": 236162, "pitch": 35, "duration": 10, "velocity": 120}, {"time": 236162, "pitch": 40, "duration": 10, "velocity": 110}, {"time": 236162, "pitch": 42, "duration": 10, "velocity": 80}, {"time": 236162, "pitch": 54, "duration": 10, "velocity": 75}, {"time": 236242, "pitch": 40, "duration": 10, "velocity": 110}, {"time": 236282, "pitch": 42, "duration": 10, "velocity": 60}, {"time": 236282, "pitch": 54, "duration": 10, "velocity": 45}, {"time": 236323, "pitch": 40, "duration": 10, "velocity": 110}, {"time": 236403, "pitch": 35, "duration": 10, "velocity": 105}, {"time": 236403, "pitch": 40, "duration": 10, "velocity": 110}, {"time": 236403, "pitch": 46, "duration": 10, "velocity": 75}, {"time": 236403, "pitch": 54, "duration": 10, "velocity": 105}, {"time": 236463, "pitch": 40, "duration": 10, "velocity": 110}, {"time": 236523, "pitch": 40, "duration": 10, "velocity": 110}, {"time": 236523, "pitch": 54, "duration": 10, "velocity": 45}, {"time": 236583, "pitch": 40, "duration": 10, "velocity": 110}, {"time": 236644, "pitch": 35, "duration": 10, "velocity": 120}, {"time": 236644, "pitch": 42, "duration": 10, "velocity": 80}, {"time": 236644, "pitch": 54, "duration": 10, "velocity": 75}, {"time": 236764, "pitch": 42, "duration": 10, "velocity": 60}, {"time": 236764, "pitch": 54, "duration": 10, "velocity": 45}, {"time": 236884, "pitch": 46, "duration": 10, "velocity": 75}, {"time": 236884, "pitch": 54, "duration": 10, "velocity": 105}, {"time": 237005, "pitch": 54, "duration": 10, "velocity": 45}, {"time": 237125, "pitch": 35, "duration": 10, "velocity": 120}, {"time": 237125, "pitch": 42, "duration": 10, "velocity": 80}, {"time": 237125, "pitch": 54, "duration": 10, "velocity": 75}, {"time": 237243, "pitch": 42, "duration": 10, "velocity": 60}, {"time": 237243, "pitch": 54, "duration": 10, "velocity": 45}, {"time": 237361, "pitch": 46, "duration": 10, "velocity": 75}, {"time": 237361, "pitch": 54, "duration": 10, "velocity": 105}, {"time": 237479, "pitch": 54, "duration": 9, "velocity": 45}, {"time": 237596, "pitch": 35, "duration": 10, "velocity": 120}, {"time": 237596, "pitch": 42, "duration": 10, "velocity": 80}, {"time": 237596, "pitch": 54, "duration": 10, "velocity": 75}, {"time": 237717, "pitch": 42, "duration": 10, "velocity": 60}, {"time": 237717, "pitch": 54, "duration": 10, "velocity": 45}, {"time": 237837, "pitch": 46, "duration": 10, "velocity": 75}, {"time": 237837, "pitch": 54, "duration": 10, "velocity": 105}, {"time": 237957, "pitch": 54, "duration": 11, "velocity": 45}, {"time": 238078, "pitch": 35, "duration": 10, "velocity": 120}, {"time": 238078, "pitch": 42, "duration": 10, "velocity": 80}, {"time": 238078, "pitch": 54, "duration": 10, "velocity": 75}, {"time": 238198, "pitch": 42, "duration": 10, "velocity": 60}, {"time": 238198, "pitch": 54, "duration": 10, "velocity": 45}, {"time": 238319, "pitch": 46, "duration": 10, "velocity": 75}, {"time": 238319, "pitch": 54, "duration": 10, "velocity": 105}, {"time": 238439, "pitch": 54, "duration": 10, "velocity": 45}, {"time": 238559, "pitch": 35, "duration": 11, "velocity": 120}, {"time": 238559, "pitch": 42, "duration": 11, "velocity": 80}, {"time": 238559, "pitch": 54, "duration": 11, "velocity": 75}, {"time": 238680, "pitch": 42, "duration": 10, "velocity": 60}, {"time": 238680, "pitch": 54, "duration": 10, "velocity": 45}, {"time": 238800, "pitch": 46, "duration": 10, "velocity": 75}, {"time": 238800, "pitch": 54, "duration": 10, "velocity": 105}, {"time": 238921, "pitch": 54, "duration": 10, "velocity": 45}, {"time": 239041, "pitch": 35, "duration": 10, "velocity": 120}, {"time": 239041, "pitch": 42, "duration": 10, "velocity": 80}, {"time": 239041, "pitch": 54, "duration": 10, "velocity": 75}, {"time": 239161, "pitch": 42, "duration": 10, "velocity": 60}, {"time": 239161, "pitch": 54, "duration": 10, "velocity": 45}, {"time": 239282, "pitch": 46, "duration": 10, "velocity": 75}, {"time": 239282, "pitch": 54, "duration": 10, "velocity": 105}, {"time": 239402, "pitch": 54, "duration": 10, "velocity": 45}, {"time": 239523, "pitch": 35, "duration": 10, "velocity": 120}, {"time": 239523, "pitch": 42, "duration": 10, "velocity": 80}, {"time": 239523, "pitch": 54, "duration": 10, "velocity": 75}, {"time": 239643, "pitch": 42, "duration": 10, "velocity": 60}, {"time": 239643, "pitch": 54, "duration": 10, "velocity": 45}, {"time": 239763, "pitch": 46, "duration": 10, "velocity": 75}, {"time": 239763, "pitch": 54, "duration": 10, "velocity": 105}, {"time": 239884, "pitch": 54, "duration": 10, "velocity": 45}, {"time": 240004, "pitch": 35, "duration": 10, "velocity": 120}, {"time": 240004, "pitch": 42, "duration": 10, "velocity": 80}, {"time": 240004, "pitch": 54, "duration": 10, "velocity": 75}, {"time": 240122, "pitch": 42, "duration": 10, "velocity": 60}, {"time": 240122, "pitch": 54, "duration": 10, "velocity": 45}, {"time": 240240, "pitch": 35, "duration": 10, "velocity": 105}, {"time": 240240, "pitch": 46, "duration": 10, "velocity": 75}, {"time": 240240, "pitch": 54, "duration": 10, "velocity": 105}, {"time": 240358, "pitch": 54, "duration": 9, "velocity": 45}, {"time": 240475, "pitch": 35, "duration": 10, "velocity": 120}, {"time": 240475, "pitch": 42, "duration": 10, "velocity": 80}, {"time": 240475, "pitch": 54, "duration": 10, "velocity": 75}, {"time": 240596, "pitch": 42, "duration": 10, "velocity": 60}, {"time": 240596, "pitch": 54, "duration": 10, "velocity": 45}, {"time": 240716, "pitch": 46, "duration": 10, "velocity": 75}, {"time": 240716, "pitch": 54, "duration": 10, "velocity": 105}, {"time": 240837, "pitch": 54, "duration": 10, "velocity": 45}, {"time": 240957, "pitch": 35, "duration": 10, "velocity": 120}, {"time": 240957, "pitch": 42, "duration": 10, "velocity": 80}, {"time": 240957, "pitch": 54, "duration": 10, "velocity": 75}, {"time": 241077, "pitch": 42, "duration": 10, "velocity": 60}, {"time": 241077, "pitch": 54, "duration": 10, "velocity": 45}, {"time": 241198, "pitch": 46, "duration": 10, "velocity": 75}, {"time": 241198, "pitch": 54, "duration": 10, "velocity": 105}, {"time": 241318, "pitch": 54, "duration": 10, "velocity": 45}, {"time": 241439, "pitch": 35, "duration": 10, "velocity": 120}, {"time": 241439, "pitch": 42, "duration": 10, "velocity": 80}, {"time": 241439, "pitch": 54, "duration": 10, "velocity": 75}, {"time": 241559, "pitch": 42, "duration": 10, "velocity": 60}, {"time": 241559, "pitch": 54, "duration": 10, "velocity": 45}, {"time": 241679, "pitch": 46, "duration": 10, "velocity": 75}, {"time": 241679, "pitch": 54, "duration": 10, "velocity": 105}, {"time": 241800, "pitch": 54, "duration": 10, "velocity": 45}, {"time": 241920, "pitch": 35, "duration": 10, "velocity": 120}, {"time": 241920, "pitch": 42, "duration": 10, "velocity": 80}, {"time": 241920, "pitch": 54, "duration": 10, "velocity": 75}, {"time": 242041, "pitch": 42, "duration": 10, "velocity": 60}, {"time": 242041, "pitch": 54, "duration": 10, "velocity": 45}, {"time": 242161, "pitch": 46, "duration": 10, "velocity": 75}, {"time": 242161, "pitch": 54, "duration": 10, "velocity": 105}, {"time": 242281, "pitch": 54, "duration": 10, "velocity": 45}, {"time": 242402, "pitch": 35, "duration": 10, "velocity": 120}, {"time": 242402, "pitch": 42, "duration": 10, "velocity": 80}, {"time": 242402, "pitch": 54, "duration": 10, "velocity": 75}, {"time": 242522, "pitch": 42, "duration": 10, "velocity": 60}, {"time": 242522, "pitch": 54, "duration": 10, "velocity": 45}, {"time": 242643, "pitch": 46, "duration": 10, "velocity": 75}, {"time": 242643, "pitch": 54, "duration": 10, "velocity": 105}, {"time": 242763, "pitch": 54, "duration": 10, "velocity": 45}, {"time": 242883, "pitch": 35, "duration": 10, "velocity": 120}, {"time": 242883, "pitch": 42, "duration": 10, "velocity": 80}, {"time": 242883, "pitch": 54, "duration": 10, "velocity": 75}, {"time": 243004, "pitch": 42, "duration": 10, "velocity": 60}, {"time": 243004, "pitch": 54, "duration": 10, "velocity": 45}, {"time": 243124, "pitch": 46, "duration": 10, "velocity": 75}, {"time": 243124, "pitch": 54, "duration": 10, "velocity": 105}, {"time": 243244, "pitch": 35, "duration": 11, "velocity": 105}, {"time": 243244, "pitch": 54, "duration": 11, "velocity": 45}, {"time": 243365, "pitch": 35, "duration": 10, "velocity": 120}, {"time": 243365, "pitch": 42, "duration": 10, "velocity": 80}, {"time": 243365, "pitch": 54, "duration": 10, "velocity": 75}, {"time": 243483, "pitch": 42, "duration": 9, "velocity": 60}, {"time": 243483, "pitch": 54, "duration": 9, "velocity": 45}, {"time": 243600, "pitch": 35, "duration": 10, "velocity": 105}, {"time": 243600, "pitch": 46, "duration": 10, "velocity": 75}, {"time": 243600, "pitch": 54, "duration": 10, "velocity": 105}, {"time": 243718, "pitch": 54, "duration": 10, "velocity": 45}, {"time": 243836, "pitch": 35, "duration": 10, "velocity": 120}, {"time": 243836, "pitch": 42, "duration": 10, "velocity": 80}, {"time": 243836, "pitch": 54, "duration": 10, "velocity": 75}, {"time": 243956, "pitch": 42, "duration": 10, "velocity": 60}, {"time": 243956, "pitch": 54, "duration": 10, "velocity": 45}, {"time": 244077, "pitch": 35, "duration": 10, "velocity": 105}, {"time": 244077, "pitch": 46, "duration": 10, "velocity": 75}, {"time": 244077, "pitch": 54, "duration": 10, "velocity": 105}, {"time": 244197, "pitch": 54, "duration": 10, "velocity": 45}, {"time": 244318, "pitch": 35, "duration": 10, "velocity": 120}, {"time": 244318, "pitch": 42, "duration": 10, "velocity": 80}, {"time": 244318, "pitch": 54, "duration": 10, "velocity": 75}, {"time": 244438, "pitch": 42, "duration": 10, "velocity": 60}, {"time": 244438, "pitch": 54, "duration": 10, "velocity": 45}, {"time": 244558, "pitch": 46, "duration": 10, "velocity": 75}, {"time": 244558, "pitch": 54, "duration": 10, "velocity": 105}, {"time": 244679, "pitch": 54, "duration": 10, "velocity": 45}, {"time": 244799, "pitch": 35, "duration": 10, "velocity": 120}, {"time": 244799, "pitch": 42, "duration": 10, "velocity": 80}, {"time": 244799, "pitch": 54, "duration": 10, "velocity": 75}, {"time": 244920, "pitch": 42, "duration": 10, "velocity": 60}, {"time": 244920, "pitch": 54, "duration": 10, "velocity": 45}, {"time": 245040, "pitch": 46, "duration": 10, "velocity": 75}, {"time": 245040, "pitch": 54, "duration": 10, "velocity": 105}, {"time": 245160, "pitch": 54, "duration": 10, "velocity": 45}, {"time": 245281, "pitch": 35, "duration": 10, "velocity": 120}, {"time": 245281, "pitch": 42, "duration": 10, "velocity": 80}, {"time": 245281, "pitch": 54, "duration": 10, "velocity": 75}, {"time": 245401, "pitch": 42, "duration": 10, "velocity": 60}, {"time": 245401, "pitch": 54, "duration": 10, "velocity": 45}, {"time": 245522, "pitch": 46, "duration": 10, "velocity": 75}, {"time": 245522, "pitch": 54, "duration": 10, "velocity": 105}, {"time": 245642, "pitch": 54, "duration": 10, "velocity": 45}, {"time": 245762, "pitch": 35, "duration": 10, "velocity": 120}, {"time": 245762, "pitch": 42, "duration": 10, "velocity": 80}, {"time": 245762, "pitch": 54, "duration": 10, "velocity": 75}, {"time": 245883, "pitch": 42, "duration": 10, "velocity": 60}, {"time": 245883, "pitch": 54, "duration": 10, "velocity": 45}, {"time": 246003, "pitch": 46, "duration": 10, "velocity": 75}, {"time": 246003, "pitch": 54, "duration": 10, "velocity": 105}, {"time": 246124, "pitch": 54, "duration": 10, "velocity": 45}, {"time": 246244, "pitch": 35, "duration": 10, "velocity": 120}, {"time": 246244, "pitch": 42, "duration": 10, "velocity": 80}, {"time": 246244, "pitch": 54, "duration": 10, "velocity": 75}, {"time": 246362, "pitch": 42, "duration": 10, "velocity": 60}, {"time": 246362, "pitch": 54, "duration": 10, "velocity": 45}, {"time": 246480, "pitch": 46, "duration": 9, "velocity": 75}, {"time": 246480, "pitch": 54, "duration": 9, "velocity": 105}, {"time": 246597, "pitch": 54, "duration": 10, "velocity": 45}, {"time": 246715, "pitch": 35, "duration": 10, "velocity": 120}, {"time": 246715, "pitch": 42, "duration": 10, "velocity": 80}, {"time": 246715, "pitch": 54, "duration": 10, "velocity": 75}, {"time": 246836, "pitch": 42, "duration": 10, "velocity": 60}, {"time": 246836, "pitch": 54, "duration": 10, "velocity": 45}, {"time": 246956, "pitch": 46, "duration": 10, "velocity": 75}, {"time": 246956, "pitch": 54, "duration": 10, "velocity": 105}, {"time": 247076, "pitch": 54, "duration": 10, "velocity": 45}, {"time": 247197, "pitch": 35, "duration": 10, "velocity": 120}, {"time": 247197, "pitch": 42, "duration": 10, "velocity": 80}, {"time": 247197, "pitch": 54, "duration": 10, "velocity": 75}, {"time": 247317, "pitch": 42, "duration": 10, "velocity": 60}, {"time": 247317, "pitch": 54, "duration": 10, "velocity": 45}, {"time": 247437, "pitch": 46, "duration": 11, "velocity": 75}, {"time": 247437, "pitch": 54, "duration": 11, "velocity": 105}, {"time": 247558, "pitch": 54, "duration": 10, "velocity": 45}, {"time": 247678, "pitch": 35, "duration": 10, "velocity": 120}, {"time": 247678, "pitch": 42, "duration": 10, "velocity": 80}, {"time": 247678, "pitch": 54, "duration": 10, "velocity": 75}, {"time": 247799, "pitch": 42, "duration": 10, "velocity": 60}, {"time": 247799, "pitch": 54, "duration": 10, "velocity": 45}, {"time": 247919, "pitch": 35, "duration": 10, "velocity": 105}, {"time": 247919, "pitch": 46, "duration": 10, "velocity": 75}, {"time": 247919, "pitch": 54, "duration": 10, "velocity": 105}, {"time": 248039, "pitch": 54, "duration": 11, "velocity": 45}, {"time": 248160, "pitch": 35, "duration": 10, "velocity": 120}, {"time": 248160, "pitch": 42, "duration": 10, "velocity": 80}, {"time": 248160, "pitch": 54, "duration": 10, "velocity": 75}, {"time": 248280, "pitch": 42, "duration": 10, "velocity": 60}, {"time": 248280, "pitch": 54, "duration": 10, "velocity": 45}, {"time": 248401, "pitch": 46, "duration": 10, "velocity": 75}, {"time": 248401, "pitch": 54, "duration": 10, "velocity": 105}, {"time": 248521, "pitch": 54, "duration": 10, "velocity": 45}, {"time": 248641, "pitch": 35, "duration": 10, "velocity": 120}, {"time": 248641, "pitch": 42, "duration": 10, "velocity": 80}, {"time": 248641, "pitch": 54, "duration": 10, "velocity": 75}, {"time": 248762, "pitch": 42, "duration": 10, "velocity": 60}, {"time": 248762, "pitch": 54, "duration": 10, "velocity": 45}, {"time": 248882, "pitch": 46, "duration": 10, "velocity": 75}, {"time": 248882, "pitch": 54, "duration": 10, "velocity": 105}, {"time": 249003, "pitch": 54, "duration": 10, "velocity": 45}, {"time": 249123, "pitch": 35, "duration": 10, "velocity": 120}, {"time": 249123, "pitch": 42, "duration": 10, "velocity": 80}, {"time": 249123, "pitch": 54, "duration": 10, "velocity": 75}, {"time": 249243, "pitch": 42, "duration": 10, "velocity": 60}, {"time": 249243, "pitch": 54, "duration": 10, "velocity": 45}, {"time": 249364, "pitch": 46, "duration": 10, "velocity": 75}, {"time": 249364, "pitch": 54, "duration": 10, "velocity": 105}, {"time": 249484, "pitch": 54, "duration": 10, "velocity": 45}, {"time": 249605, "pitch": 35, "duration": 9, "velocity": 120}, {"time": 249605, "pitch": 42, "duration": 9, "velocity": 80}, {"time": 249605, "pitch": 54, "duration": 9, "velocity": 75}, {"time": 249722, "pitch": 42, "duration": 10, "velocity": 60}, {"time": 249722, "pitch": 54, "duration": 10, "velocity": 45}, {"time": 249840, "pitch": 46, "duration": 10, "velocity": 75}, {"time": 249840, "pitch": 54, "duration": 10, "velocity": 105}, {"time": 249958, "pitch": 54, "duration": 10, "velocity": 45}, {"time": 250076, "pitch": 35, "duration": 10, "velocity": 120}, {"time": 250076, "pitch": 42, "duration": 10, "velocity": 80}, {"time": 250076, "pitch": 54, "duration": 10, "velocity": 75}, {"time": 250196, "pitch": 42, "duration": 10, "velocity": 60}, {"time": 250196, "pitch": 54, "duration": 10, "velocity": 45}, {"time": 250317, "pitch": 46, "duration": 10, "velocity": 75}, {"time": 250317, "pitch": 54, "duration": 10, "velocity": 105}, {"time": 250437, "pitch": 54, "duration": 10, "velocity": 45}, {"time": 250557, "pitch": 35, "duration": 10, "velocity": 120}, {"time": 250557, "pitch": 42, "duration": 10, "velocity": 80}, {"time": 250557, "pitch": 54, "duration": 10, "velocity": 75}, {"time": 250678, "pitch": 42, "duration": 10, "velocity": 60}, {"time": 250678, "pitch": 54, "duration": 10, "velocity": 45}, {"time": 250798, "pitch": 46, "duration": 10, "velocity": 75}, {"time": 250798, "pitch": 54, "duration": 10, "velocity": 105}, {"time": 250919, "pitch": 35, "duration": 10, "velocity": 105}, {"time": 250919, "pitch": 54, "duration": 10, "velocity": 45}, {"time": 251039, "pitch": 35, "duration": 10, "velocity": 120}, {"time": 251039, "pitch": 42, "duration": 10, "velocity": 80}, {"time": 251039, "pitch": 54, "duration": 10, "velocity": 75}, {"time": 251159, "pitch": 42, "duration": 10, "velocity": 60}, {"time": 251159, "pitch": 54, "duration": 10, "velocity": 45}, {"time": 251280, "pitch": 35, "duration": 10, "velocity": 105}, {"time": 251280, "pitch": 46, "duration": 10, "velocity": 75}, {"time": 251280, "pitch": 54, "duration": 10, "velocity": 105}, {"time": 251400, "pitch": 54, "duration": 10, "velocity": 45}, {"time": 251521, "pitch": 35, "duration": 10, "velocity": 120}, {"time": 251521, "pitch": 42, "duration": 10, "velocity": 80}, {"time": 251521, "pitch": 54, "duration": 10, "velocity": 75}, {"time": 251641, "pitch": 42, "duration": 10, "velocity": 60}, {"time": 251641, "pitch": 54, "duration": 10, "velocity": 45}, {"time": 251761, "pitch": 35, "duration": 10, "velocity": 105}, {"time": 251761, "pitch": 46, "duration": 10, "velocity": 75}, {"time": 251761, "pitch": 54, "duration": 10, "velocity": 105}, {"time": 251882, "pitch": 54, "duration": 10, "velocity": 45}, {"time": 252002, "pitch": 35, "duration": 10, "velocity": 120}, {"time": 252002, "pitch": 42, "duration": 10, "velocity": 80}, {"time": 252002, "pitch": 54, "duration": 10, "velocity": 75}, {"time": 252123, "pitch": 42, "duration": 10, "velocity": 60}, {"time": 252123, "pitch": 54, "duration": 10, "velocity": 45}, {"time": 252243, "pitch": 46, "duration": 10, "velocity": 75}, {"time": 252243, "pitch": 54, "duration": 10, "velocity": 105}, {"time": 252363, "pitch": 54, "duration": 10, "velocity": 45}, {"time": 252484, "pitch": 35, "duration": 9, "velocity": 120}, {"time": 252484, "pitch": 42, "duration": 9, "velocity": 80}, {"time": 252484, "pitch": 54, "duration": 9, "velocity": 75}, {"time": 252601, "pitch": 42, "duration": 10, "velocity": 60}, {"time": 252601, "pitch": 54, "duration": 10, "velocity": 45}, {"time": 252719, "pitch": 46, "duration": 10, "velocity": 75}, {"time": 252719, "pitch": 54, "duration": 10, "velocity": 105}, {"time": 252837, "pitch": 54, "duration": 10, "velocity": 45}, {"time": 252955, "pitch": 35, "duration": 10, "velocity": 120}, {"time": 252955, "pitch": 42, "duration": 10, "velocity": 80}, {"time": 252955, "pitch": 54, "duration": 10, "velocity": 75}, {"time": 253075, "pitch": 42, "duration": 10, "velocity": 60}, {"time": 253075, "pitch": 54, "duration": 10, "velocity": 45}, {"time": 253196, "pitch": 46, "duration": 10, "velocity": 75}, {"time": 253196, "pitch": 54, "duration": 10, "velocity": 105}, {"time": 253316, "pitch": 54, "duration": 10, "velocity": 45}, {"time": 253436, "pitch": 35, "duration": 10, "velocity": 120}, {"time": 253436, "pitch": 42, "duration": 10, "velocity": 80}, {"time": 253436, "pitch": 54, "duration": 10, "velocity": 75}, {"time": 253557, "pitch": 42, "duration": 10, "velocity": 60}, {"time": 253557, "pitch": 54, "duration": 10, "velocity": 45}, {"time": 253677, "pitch": 46, "duration": 10, "velocity": 75}, {"time": 253677, "pitch": 54, "duration": 10, "velocity": 105}, {"time": 253798, "pitch": 54, "duration": 10, "velocity": 45}, {"time": 253918, "pitch": 35, "duration": 10, "velocity": 120}, {"time": 253918, "pitch": 42, "duration": 10, "velocity": 80}, {"time": 253918, "pitch": 54, "duration": 10, "velocity": 75}, {"time": 254038, "pitch": 42, "duration": 10, "velocity": 60}, {"time": 254038, "pitch": 54, "duration": 10, "velocity": 45}, {"time": 254159, "pitch": 46, "duration": 10, "velocity": 75}, {"time": 254159, "pitch": 54, "duration": 10, "velocity": 105}, {"time": 254279, "pitch": 54, "duration": 10, "velocity": 45}, {"time": 254400, "pitch": 35, "duration": 10, "velocity": 120}, {"time": 254400, "pitch": 42, "duration": 10, "velocity": 80}, {"time": 254400, "pitch": 54, "duration": 10, "velocity": 75}, {"time": 254520, "pitch": 42, "duration": 10, "velocity": 60}, {"time": 254520, "pitch": 54, "duration": 10, "velocity": 45}, {"time": 254640, "pitch": 46, "duration": 10, "velocity": 75}, {"time": 254640, "pitch": 54, "duration": 10, "velocity": 105}, {"time": 254761, "pitch": 54, "duration": 10, "velocity": 45}, {"time": 254881, "pitch": 35, "duration": 10, "velocity": 120}, {"time": 254881, "pitch": 42, "duration": 10, "velocity": 80}, {"time": 254881, "pitch": 54, "duration": 10, "velocity": 75}, {"time": 255002, "pitch": 42, "duration": 10, "velocity": 60}, {"time": 255002, "pitch": 54, "duration": 10, "velocity": 45}, {"time": 255122, "pitch": 46, "duration": 10, "velocity": 75}, {"time": 255122, "pitch": 54, "duration": 10, "velocity": 105}, {"time": 255242, "pitch": 54, "duration": 10, "velocity": 45}, {"time": 255363, "pitch": 35, "duration": 10, "velocity": 120}, {"time": 255363, "pitch": 42, "duration": 10, "velocity": 80}, {"time": 255363, "pitch": 54, "duration": 10, "velocity": 75}, {"time": 255483, "pitch": 42, "duration": 10, "velocity": 60}, {"time": 255483, "pitch": 54, "duration": 10, "velocity": 45}, {"time": 255604, "pitch": 35, "duration": 10, "velocity": 105}, {"time": 255604, "pitch": 46, "duration": 10, "velocity": 75}, {"time": 255604, "pitch": 54, "duration": 10, "velocity": 105}, {"time": 255724, "pitch": 54, "duration": 10, "velocity": 45}, {"time": 255844, "pitch": 35, "duration": 10, "velocity": 120}, {"time": 255844, "pitch": 42, "duration": 10, "velocity": 80}, {"time": 255844, "pitch": 54, "duration": 10, "velocity": 75}, {"time": 255962, "pitch": 42, "duration": 10, "velocity": 60}, {"time": 255962, "pitch": 54, "duration": 10, "velocity": 45}, {"time": 256080, "pitch": 46, "duration": 10, "velocity": 75}, {"time": 256080, "pitch": 54, "duration": 10, "velocity": 105}, {"time": 256198, "pitch": 54, "duration": 10, "velocity": 45}, {"time": 256316, "pitch": 35, "duration": 10, "velocity": 120}, {"time": 256316, "pitch": 42, "duration": 10, "velocity": 80}, {"time": 256316, "pitch": 54, "duration": 10, "velocity": 75}, {"time": 256436, "pitch": 42, "duration": 10, "velocity": 60}, {"time": 256436, "pitch": 54, "duration": 10, "velocity": 45}, {"time": 256556, "pitch": 46, "duration": 10, "velocity": 75}, {"time": 256556, "pitch": 54, "duration": 10, "velocity": 105}, {"time": 256677, "pitch": 54, "duration": 10, "velocity": 45}, {"time": 256797, "pitch": 35, "duration": 10, "velocity": 120}, {"time": 256797, "pitch": 42, "duration": 10, "velocity": 80}, {"time": 256797, "pitch": 54, "duration": 10, "velocity": 75}, {"time": 256917, "pitch": 42, "duration": 11, "velocity": 60}, {"time": 256917, "pitch": 54, "duration": 11, "velocity": 45}, {"time": 257038, "pitch": 46, "duration": 10, "velocity": 75}, {"time": 257038, "pitch": 54, "duration": 10, "velocity": 105}, {"time": 257158, "pitch": 54, "duration": 10, "velocity": 45}, {"time": 257279, "pitch": 35, "duration": 10, "velocity": 120}, {"time": 257279, "pitch": 42, "duration": 10, "velocity": 80}, {"time": 257279, "pitch": 54, "duration": 10, "velocity": 75}, {"time": 257399, "pitch": 42, "duration": 10, "velocity": 60}, {"time": 257399, "pitch": 54, "duration": 10, "velocity": 45}, {"time": 257519, "pitch": 46, "duration": 11, "velocity": 75}, {"time": 257519, "pitch": 54, "duration": 11, "velocity": 105}, {"time": 257640, "pitch": 54, "duration": 10, "velocity": 45}, {"time": 257760, "pitch": 35, "duration": 10, "velocity": 120}, {"time": 257760, "pitch": 42, "duration": 10, "velocity": 80}, {"time": 257760, "pitch": 54, "duration": 10, "velocity": 75}, {"time": 257881, "pitch": 42, "duration": 10, "velocity": 60}, {"time": 257881, "pitch": 54, "duration": 10, "velocity": 45}, {"time": 258001, "pitch": 46, "duration": 10, "velocity": 75}, {"time": 258001, "pitch": 54, "duration": 10, "velocity": 105}, {"time": 258121, "pitch": 54, "duration": 10, "velocity": 45}, {"time": 258242, "pitch": 35, "duration": 10, "velocity": 120}, {"time": 258242, "pitch": 42, "duration": 10, "velocity": 80}, {"time": 258242, "pitch": 54, "duration": 10, "velocity": 75}, {"time": 258362, "pitch": 42, "duration": 10, "velocity": 60}, {"time": 258362, "pitch": 54, "duration": 10, "velocity": 45}, {"time": 258483, "pitch": 46, "duration": 10, "velocity": 75}, {"time": 258483, "pitch": 54, "duration": 10, "velocity": 105}, {"time": 258603, "pitch": 35, "duration": 10, "velocity": 105}, {"time": 258603, "pitch": 54, "duration": 10, "velocity": 45}, {"time": 258723, "pitch": 35, "duration": 10, "velocity": 120}, {"time": 258723, "pitch": 42, "duration": 10, "velocity": 80}, {"time": 258723, "pitch": 54, "duration": 10, "velocity": 75}, {"time": 258844, "pitch": 42, "duration": 10, "velocity": 60}, {"time": 258844, "pitch": 54, "duration": 10, "velocity": 45}, {"time": 258964, "pitch": 35, "duration": 10, "velocity": 105}, {"time": 258964, "pitch": 46, "duration": 10, "velocity": 75}, {"time": 258964, "pitch": 54, "duration": 10, "velocity": 105}, {"time": 259085, "pitch": 54, "duration": 10, "velocity": 45}, {"time": 259205, "pitch": 35, "duration": 10, "velocity": 120}, {"time": 259205, "pitch": 42, "duration": 10, "velocity": 80}, {"time": 259205, "pitch": 54, "duration": 10, "velocity": 75}, {"time": 259323, "pitch": 42, "duration": 10, "velocity": 60}, {"time": 259323, "pitch": 54, "duration": 10, "velocity": 45}, {"time": 259441, "pitch": 35, "duration": 9, "velocity": 105}, {"time": 259441, "pitch": 46, "duration": 9, "velocity": 75}, {"time": 259441, "pitch": 54, "duration": 9, "velocity": 105}, {"time": 259558, "pitch": 54, "duration": 10, "velocity": 45}, {"time": 259676, "pitch": 35, "duration": 10, "velocity": 120}, {"time": 259676, "pitch": 42, "duration": 10, "velocity": 80}, {"time": 259676, "pitch": 54, "duration": 10, "velocity": 75}, {"time": 259797, "pitch": 42, "duration": 10, "velocity": 60}, {"time": 259797, "pitch": 54, "duration": 10, "velocity": 45}, {"time": 259917, "pitch": 46, "duration": 10, "velocity": 75}, {"time": 259917, "pitch": 54, "duration": 10, "velocity": 105}, {"time": 260037, "pitch": 54, "duration": 10, "velocity": 45}, {"time": 260158, "pitch": 35, "duration": 10, "velocity": 120}, {"time": 260158, "pitch": 42, "duration": 10, "velocity": 80}, {"time": 260158, "pitch": 54, "duration": 10, "velocity": 75}, {"time": 260278, "pitch": 42, "duration": 10, "velocity": 60}, {"time": 260278, "pitch": 54, "duration": 10, "velocity": 45}, {"time": 260399, "pitch": 46, "duration": 10, "velocity": 75}, {"time": 260399, "pitch": 54, "duration": 10, "velocity": 105}, {"time": 260519, "pitch": 54, "duration": 10, "velocity": 45}, {"time": 260639, "pitch": 35, "duration": 10, "velocity": 120}, {"time": 260639, "pitch": 42, "duration": 10, "velocity": 80}, {"time": 260639, "pitch": 54, "duration": 10, "velocity": 75}, {"time": 260760, "pitch": 42, "duration": 10, "velocity": 60}, {"time": 260760, "pitch": 54, "duration": 10, "velocity": 45}, {"time": 260880, "pitch": 46, "duration": 10, "velocity": 75}, {"time": 260880, "pitch": 54, "duration": 10, "velocity": 105}, {"time": 261001, "pitch": 54, "duration": 10, "velocity": 45}, {"time": 261121, "pitch": 35, "duration": 10, "velocity": 120}, {"time": 261121, "pitch": 42, "duration": 10, "velocity": 80}, {"time": 261121, "pitch": 54, "duration": 10, "velocity": 75}, {"time": 261241, "pitch": 42, "duration": 10, "velocity": 60}, {"time": 261241, "pitch": 54, "duration": 10, "velocity": 45}, {"time": 261362, "pitch": 46, "duration": 10, "velocity": 75}, {"time": 261362, "pitch": 54, "duration": 10, "velocity": 105}, {"time": 261482, "pitch": 54, "duration": 10, "velocity": 45}, {"time": 261603, "pitch": 35, "duration": 10, "velocity": 120}, {"time": 261603, "pitch": 42, "duration": 10, "velocity": 80}, {"time": 261603, "pitch": 54, "duration": 10, "velocity": 75}, {"time": 261723, "pitch": 42, "duration": 10, "velocity": 60}, {"time": 261723, "pitch": 54, "duration": 10, "velocity": 45}, {"time": 261843, "pitch": 46, "duration": 10, "velocity": 75}, {"time": 261843, "pitch": 54, "duration": 10, "velocity": 105}, {"time": 261964, "pitch": 54, "duration": 10, "velocity": 45}, {"time": 262084, "pitch": 35, "duration": 10, "velocity": 120}, {"time": 262084, "pitch": 42, "duration": 10, "velocity": 80}, {"time": 262084, "pitch": 54, "duration": 10, "velocity": 75}, {"time": 262202, "pitch": 42, "duration": 10, "velocity": 60}, {"time": 262202, "pitch": 54, "duration": 10, "velocity": 45}, {"time": 262320, "pitch": 46, "duration": 10, "velocity": 75}, {"time": 262320, "pitch": 54, "duration": 10, "velocity": 105}, {"time": 262438, "pitch": 54, "duration": 9, "velocity": 45}, {"time": 262555, "pitch": 35, "duration": 10, "velocity": 120}, {"time": 262555, "pitch": 42, "duration": 10, "velocity": 80}, {"time": 262555, "pitch": 54, "duration": 10, "velocity": 75}, {"time": 262676, "pitch": 42, "duration": 10, "velocity": 60}, {"time": 262676, "pitch": 54, "duration": 10, "velocity": 45}, {"time": 262796, "pitch": 46, "duration": 10, "velocity": 75}, {"time": 262796, "pitch": 54, "duration": 10, "velocity": 105}, {"time": 262916, "pitch": 54, "duration": 10, "velocity": 45}, {"time": 263037, "pitch": 35, "duration": 10, "velocity": 120}, {"time": 263037, "pitch": 42, "duration": 10, "velocity": 80}, {"time": 263037, "pitch": 54, "duration": 10, "velocity": 75}, {"time": 263157, "pitch": 42, "duration": 10, "velocity": 60}, {"time": 263157, "pitch": 54, "duration": 10, "velocity": 45}, {"time": 263278, "pitch": 35, "duration": 10, "velocity": 105}, {"time": 263278, "pitch": 46, "duration": 10, "velocity": 75}, {"time": 263278, "pitch": 54, "duration": 10, "velocity": 105}, {"time": 263398, "pitch": 54, "duration": 10, "velocity": 45}, {"time": 263518, "pitch": 35, "duration": 10, "velocity": 120}, {"time": 263518, "pitch": 42, "duration": 10, "velocity": 80}, {"time": 263518, "pitch": 54, "duration": 10, "velocity": 75}, {"time": 263639, "pitch": 42, "duration": 10, "velocity": 60}, {"time": 263639, "pitch": 54, "duration": 10, "velocity": 45}, {"time": 263759, "pitch": 46, "duration": 10, "velocity": 75}, {"time": 263759, "pitch": 54, "duration": 10, "velocity": 105}, {"time": 263880, "pitch": 54, "duration": 10, "velocity": 45}, {"time": 264000, "pitch": 35, "duration": 10, "velocity": 120}, {"time": 264000, "pitch": 42, "duration": 10, "velocity": 80}, {"time": 264000, "pitch": 54, "duration": 10, "velocity": 75}, {"time": 264120, "pitch": 42, "duration": 10, "velocity": 60}, {"time": 264120, "pitch": 54, "duration": 10, "velocity": 45}, {"time": 264241, "pitch": 46, "duration": 10, "velocity": 75}, {"time": 264241, "pitch": 54, "duration": 10, "velocity": 105}, {"time": 264361, "pitch": 54, "duration": 10, "velocity": 45}, {"time": 264482, "pitch": 35, "duration": 10, "velocity": 120}, {"time": 264482, "pitch": 42, "duration": 10, "velocity": 80}, {"time": 264482, "pitch": 54, "duration": 10, "velocity": 75}, {"time": 264602, "pitch": 42, "duration": 10, "velocity": 60}, {"time": 264602, "pitch": 54, "duration": 10, "velocity": 45}, {"time": 264722, "pitch": 46, "duration": 10, "velocity": 75}, {"time": 264722, "pitch": 54, "duration": 10, "velocity": 105}, {"time": 264843, "pitch": 54, "duration": 10, "velocity": 45}, {"time": 264963, "pitch": 35, "duration": 10, "velocity": 120}, {"time": 264963, "pitch": 42, "duration": 10, "velocity": 80}, {"time": 264963, "pitch": 54, "duration": 10, "velocity": 75}, {"time": 265084, "pitch": 42, "duration": 10, "velocity": 60}, {"time": 265084, "pitch": 54, "duration": 10, "velocity": 45}, {"time": 265204, "pitch": 46, "duration": 10, "velocity": 75}, {"time": 265204, "pitch": 54, "duration": 10, "velocity": 105}, {"time": 265324, "pitch": 54, "duration": 10, "velocity": 45}, {"time": 265445, "pitch": 35, "duration": 9, "velocity": 120}, {"time": 265445, "pitch": 42, "duration": 9, "velocity": 80}, {"time": 265445, "pitch": 54, "duration": 9, "velocity": 75}, {"time": 265562, "pitch": 42, "duration": 10, "velocity": 60}, {"time": 265562, "pitch": 54, "duration": 10, "velocity": 45}, {"time": 265680, "pitch": 46, "duration": 10, "velocity": 75}, {"time": 265680, "pitch": 54, "duration": 10, "velocity": 105}, {"time": 265798, "pitch": 54, "duration": 10, "velocity": 45}, {"time": 265916, "pitch": 35, "duration": 10, "velocity": 120}, {"time": 265916, "pitch": 42, "duration": 10, "velocity": 80}, {"time": 265916, "pitch": 54, "duration": 10, "velocity": 75}, {"time": 266036, "pitch": 42, "duration": 10, "velocity": 60}, {"time": 266036, "pitch": 54, "duration": 10, "velocity": 45}, {"time": 266157, "pitch": 46, "duration": 10, "velocity": 75}, {"time": 266157, "pitch": 54, "duration": 10, "velocity": 105}, {"time": 266277, "pitch": 35, "duration": 10, "velocity": 105}, {"time": 266277, "pitch": 54, "duration": 10, "velocity": 45}, {"time": 266397, "pitch": 35, "duration": 11, "velocity": 120}, {"time": 266397, "pitch": 42, "duration": 11, "velocity": 80}, {"time": 266397, "pitch": 54, "duration": 11, "velocity": 75}, {"time": 266518, "pitch": 42, "duration": 10, "velocity": 60}, {"time": 266518, "pitch": 54, "duration": 10, "velocity": 45}, {"time": 266638, "pitch": 35, "duration": 10, "velocity": 105}, {"time": 266638, "pitch": 46, "duration": 10, "velocity": 75}, {"time": 266638, "pitch": 54, "duration": 10, "velocity": 105}, {"time": 266759, "pitch": 54, "duration": 10, "velocity": 45}, {"time": 266879, "pitch": 35, "duration": 10, "velocity": 120}, {"time": 266879, "pitch": 42, "duration": 10, "velocity": 80}, {"time": 266879, "pitch": 54, "duration": 10, "velocity": 75}, {"time": 266999, "pitch": 42, "duration": 11, "velocity": 60}, {"time": 266999, "pitch": 54, "duration": 11, "velocity": 45}, {"time": 267120, "pitch": 35, "duration": 10, "velocity": 105}, {"time": 267120, "pitch": 46, "duration": 10, "velocity": 75}, {"time": 267120, "pitch": 54, "duration": 10, "velocity": 105}, {"time": 267240, "pitch": 54, "duration": 10, "velocity": 45}, {"time": 267361, "pitch": 35, "duration": 10, "velocity": 120}, {"time": 267361, "pitch": 42, "duration": 10, "velocity": 80}, {"time": 267361, "pitch": 54, "duration": 10, "velocity": 75}, {"time": 267481, "pitch": 42, "duration": 10, "velocity": 60}, {"time": 267481, "pitch": 54, "duration": 10, "velocity": 45}, {"time": 267601, "pitch": 46, "duration": 10, "velocity": 75}, {"time": 267601, "pitch": 54, "duration": 10, "velocity": 105}, {"time": 267722, "pitch": 54, "duration": 10, "velocity": 45}, {"time": 267842, "pitch": 35, "duration": 10, "velocity": 120}, {"time": 267842, "pitch": 42, "duration": 10, "velocity": 80}, {"time": 267842, "pitch": 54, "duration": 10, "velocity": 75}, {"time": 267963, "pitch": 42, "duration": 10, "velocity": 60}, {"time": 267963, "pitch": 54, "duration": 10, "velocity": 45}, {"time": 268083, "pitch": 46, "duration": 10, "velocity": 75}, {"time": 268083, "pitch": 54, "duration": 10, "velocity": 105}, {"time": 268203, "pitch": 54, "duration": 10, "velocity": 45}, {"time": 268324, "pitch": 35, "duration": 10, "velocity": 120}, {"time": 268324, "pitch": 42, "duration": 10, "velocity": 80}, {"time": 268324, "pitch": 54, "duration": 10, "velocity": 75}, {"time": 268442, "pitch": 42, "duration": 9, "velocity": 60}, {"time": 268442, "pitch": 54, "duration": 9, "velocity": 45}, {"time": 268559, "pitch": 46, "duration": 10, "velocity": 75}, {"time": 268559, "pitch": 54, "duration": 10, "velocity": 105}, {"time": 268677, "pitch": 54, "duration": 10, "velocity": 45}, {"time": 268795, "pitch": 35, "duration": 10, "velocity": 120}, {"time": 268795, "pitch": 42, "duration": 10, "velocity": 80}, {"time": 268795, "pitch": 54, "duration": 10, "velocity": 75}, {"time": 268915, "pitch": 42, "duration": 10, "velocity": 60}, {"time": 268915, "pitch": 54, "duration": 10, "velocity": 45}, {"time": 269036, "pitch": 46, "duration": 10, "velocity": 75}, {"time": 269036, "pitch": 54, "duration": 10, "velocity": 105}, {"time": 269156, "pitch": 54, "duration": 10, "velocity": 45}, {"time": 269277, "pitch": 35, "duration": 10, "velocity": 120}, {"time": 269277, "pitch": 42, "duration": 10, "velocity": 80}, {"time": 269277, "pitch": 54, "duration": 10, "velocity": 75}, {"time": 269397, "pitch": 42, "duration": 10, "velocity": 60}, {"time": 269397, "pitch": 54, "duration": 10, "velocity": 45}, {"time": 269517, "pitch": 46, "duration": 10, "velocity": 75}, {"time": 269517, "pitch": 54, "duration": 10, "velocity": 105}, {"time": 269638, "pitch": 54, "duration": 10, "velocity": 45}, {"time": 269758, "pitch": 35, "duration": 10, "velocity": 120}, {"time": 269758, "pitch": 42, "duration": 10, "velocity": 80}, {"time": 269758, "pitch": 54, "duration": 10, "velocity": 75}, {"time": 269879, "pitch": 42, "duration": 10, "velocity": 60}, {"time": 269879, "pitch": 54, "duration": 10, "velocity": 45}, {"time": 269999, "pitch": 46, "duration": 10, "velocity": 75}, {"time": 269999, "pitch": 54, "duration": 10, "velocity": 105}, {"time": 270119, "pitch": 54, "duration": 10, "velocity": 45}, {"time": 270240, "pitch": 35, "duration": 10, "velocity": 120}, {"time": 270240, "pitch": 42, "duration": 10, "velocity": 80}, {"time": 270240, "pitch": 54, "duration": 10, "velocity": 75}, {"time": 270360, "pitch": 42, "duration": 10, "velocity": 60}, {"time": 270360, "pitch": 54, "duration": 10, "velocity": 45}, {"time": 270481, "pitch": 46, "duration": 10, "velocity": 75}, {"time": 270481, "pitch": 54, "duration": 10, "velocity": 105}, {"time": 270601, "pitch": 54, "duration": 10, "velocity": 45}, {"time": 270721, "pitch": 35, "duration": 10, "velocity": 120}, {"time": 270721, "pitch": 42, "duration": 10, "velocity": 80}, {"time": 270721, "pitch": 54, "duration": 10, "velocity": 75}, {"time": 270842, "pitch": 42, "duration": 10, "velocity": 60}, {"time": 270842, "pitch": 54, "duration": 10, "velocity": 45}, {"time": 270962, "pitch": 35, "duration": 10, "velocity": 105}, {"time": 270962, "pitch": 46, "duration": 10, "velocity": 75}, {"time": 270962, "pitch": 54, "duration": 10, "velocity": 105}, {"time": 271083, "pitch": 54, "duration": 10, "velocity": 45}, {"time": 271203, "pitch": 35, "duration": 10, "velocity": 120}, {"time": 271203, "pitch": 42, "duration": 10, "velocity": 80}, {"time": 271203, "pitch": 54, "duration": 10, "velocity": 75}, {"time": 271323, "pitch": 42, "duration": 10, "velocity": 60}, {"time": 271323, "pitch": 54, "duration": 10, "velocity": 45}, {"time": 271444, "pitch": 46, "duration": 10, "velocity": 75}, {"time": 271444, "pitch": 54, "duration": 10, "velocity": 105}, {"time": 271564, "pitch": 54, "duration": 10, "velocity": 45}, {"time": 271684, "pitch": 35, "duration": 10, "velocity": 120}, {"time": 271684, "pitch": 42, "duration": 10, "velocity": 80}, {"time": 271684, "pitch": 54, "duration": 10, "velocity": 75}, {"time": 271802, "pitch": 42, "duration": 10, "velocity": 60}, {"time": 271802, "pitch": 54, "duration": 10, "velocity": 45}, {"time": 271920, "pitch": 46, "duration": 10, "velocity": 75}, {"time": 271920, "pitch": 54, "duration": 10, "velocity": 105}, {"time": 272038, "pitch": 54, "duration": 10, "velocity": 45}, {"time": 272156, "pitch": 35, "duration": 10, "velocity": 120}, {"time": 272156, "pitch": 42, "duration": 10, "velocity": 80}, {"time": 272156, "pitch": 54, "duration": 10, "velocity": 75}, {"time": 272276, "pitch": 42, "duration": 10, "velocity": 60}, {"time": 272276, "pitch": 54, "duration": 10, "velocity": 45}, {"time": 272396, "pitch": 46, "duration": 10, "velocity": 75}, {"time": 272396, "pitch": 54, "duration": 10, "velocity": 105}, {"time": 272517, "pitch": 54, "duration": 10, "velocity": 45}, {"time": 272637, "pitch": 35, "duration": 10, "velocity": 120}, {"time": 272637, "pitch": 42, "duration": 10, "velocity": 80}, {"time": 272637, "pitch": 54, "duration": 10, "velocity": 75}, {"time": 272758, "pitch": 42, "duration": 10, "velocity": 60}, {"time": 272758, "pitch": 54, "duration": 10, "velocity": 45}, {"time": 272878, "pitch": 46, "duration": 10, "velocity": 75}, {"time": 272878, "pitch": 54, "duration": 10, "velocity": 105}, {"time": 272998, "pitch": 54, "duration": 10, "velocity": 45}, {"time": 273119, "pitch": 35, "duration": 10, "velocity": 120}, {"time": 273119, "pitch": 42, "duration": 10, "velocity": 80}, {"time": 273119, "pitch": 54, "duration": 10, "velocity": 75}, {"time": 273239, "pitch": 42, "duration": 10, "velocity": 60}, {"time": 273239, "pitch": 54, "duration": 10, "velocity": 45}, {"time": 273360, "pitch": 46, "duration": 10, "velocity": 75}, {"time": 273360, "pitch": 54, "duration": 10, "velocity": 105}, {"time": 273480, "pitch": 54, "duration": 10, "velocity": 45}, {"time": 273600, "pitch": 35, "duration": 10, "velocity": 120}, {"time": 273600, "pitch": 42, "duration": 10, "velocity": 80}, {"time": 273600, "pitch": 54, "duration": 10, "velocity": 75}, {"time": 273721, "pitch": 42, "duration": 10, "velocity": 60}, {"time": 273721, "pitch": 54, "duration": 10, "velocity": 45}, {"time": 273841, "pitch": 46, "duration": 10, "velocity": 75}, {"time": 273841, "pitch": 54, "duration": 10, "velocity": 105}, {"time": 273962, "pitch": 35, "duration": 10, "velocity": 105}, {"time": 273962, "pitch": 54, "duration": 10, "velocity": 45}, {"time": 274082, "pitch": 35, "duration": 10, "velocity": 120}, {"time": 274082, "pitch": 42, "duration": 10, "velocity": 80}, {"time": 274082, "pitch": 54, "duration": 10, "velocity": 75}, {"time": 274202, "pitch": 42, "duration": 10, "velocity": 60}, {"time": 274202, "pitch": 54, "duration": 10, "velocity": 45}, {"time": 274323, "pitch": 35, "duration": 10, "velocity": 105}, {"time": 274323, "pitch": 46, "duration": 10, "velocity": 75}, {"time": 274323, "pitch": 54, "duration": 10, "velocity": 105}, {"time": 274443, "pitch": 54, "duration": 10, "velocity": 45}, {"time": 274564, "pitch": 35, "duration": 10, "velocity": 120}, {"time": 274564, "pitch": 42, "duration": 10, "velocity": 80}, {"time": 274564, "pitch": 54, "duration": 10, "velocity": 75}, {"time": 274684, "pitch": 42, "duration": 10, "velocity": 60}, {"time": 274684, "pitch": 54, "duration": 10, "velocity": 45}, {"time": 274804, "pitch": 35, "duration": 10, "velocity": 105}, {"time": 274804, "pitch": 46, "duration": 10, "velocity": 75}, {"time": 274804, "pitch": 54, "duration": 10, "velocity": 105}, {"time": 274925, "pitch": 54, "duration": 10, "velocity": 45}, {"time": 275045, "pitch": 35, "duration": 10, "velocity": 120}, {"time": 275045, "pitch": 42, "duration": 10, "velocity": 80}, {"time": 275045, "pitch": 54, "duration": 10, "velocity": 75}, {"time": 275163, "pitch": 42, "duration": 10, "velocity": 60}, {"time": 275163, "pitch": 54, "duration": 10, "velocity": 45}, {"time": 275281, "pitch": 46, "duration": 10, "velocity": 75}, {"time": 275281, "pitch": 54, "duration": 10, "velocity": 105}, {"time": 275399, "pitch": 54, "duration": 9, "velocity": 45}, {"time": 275516, "pitch": 35, "duration": 10, "velocity": 120}, {"time": 275516, "pitch": 42, "duration": 10, "velocity": 80}, {"time": 275516, "pitch": 54, "duration": 10, "velocity": 75}, {"time": 275637, "pitch": 42, "duration": 10, "velocity": 60}, {"time": 275637, "pitch": 54, "duration": 10, "velocity": 45}, {"time": 275757, "pitch": 46, "duration": 10, "velocity": 75}, {"time": 275757, "pitch": 54, "duration": 10, "velocity": 105}, {"time": 275877, "pitch": 54, "duration": 11, "velocity": 45}, {"time": 275998, "pitch": 35, "duration": 10, "velocity": 120}, {"time": 275998, "pitch": 42, "duration": 10, "velocity": 80}, {"time": 275998, "pitch": 54, "duration": 10, "velocity": 75}, {"time": 276118, "pitch": 42, "duration": 10, "velocity": 60}, {"time": 276118, "pitch": 54, "duration": 10, "velocity": 45}, {"time": 276239, "pitch": 46, "duration": 10, "velocity": 75}, {"time": 276239, "pitch": 54, "duration": 10, "velocity": 105}, {"time": 276359, "pitch": 54, "duration": 10, "velocity": 45}, {"time": 276479, "pitch": 35, "duration": 11, "velocity": 120}, {"time": 276479, "pitch": 42, "duration": 11, "velocity": 80}, {"time": 276479, "pitch": 54, "duration": 11, "velocity": 75}, {"time": 276600, "pitch": 42, "duration": 10, "velocity": 60}, {"time": 276600, "pitch": 54, "duration": 10, "velocity": 45}, {"time": 276720, "pitch": 46, "duration": 10, "velocity": 75}, {"time": 276720, "pitch": 54, "duration": 10, "velocity": 105}, {"time": 276841, "pitch": 54, "duration": 10, "velocity": 45}, {"time": 276961, "pitch": 35, "duration": 10, "velocity": 120}, {"time": 276961, "pitch": 42, "duration": 10, "velocity": 80}, {"time": 276961, "pitch": 54, "duration": 10, "velocity": 75}, {"time": 277081, "pitch": 42, "duration": 10, "velocity": 60}, {"time": 277081, "pitch": 54, "duration": 10, "velocity": 45}, {"time": 277202, "pitch": 46, "duration": 10, "velocity": 75}, {"time": 277202, "pitch": 54, "duration": 10, "velocity": 105}, {"time": 277322, "pitch": 54, "duration": 10, "velocity": 45}, {"time": 277443, "pitch": 35, "duration": 10, "velocity": 120}, {"time": 277443, "pitch": 42, "duration": 10, "velocity": 80}, {"time": 277443, "pitch": 54, "duration": 10, "velocity": 75}, {"time": 277563, "pitch": 42, "duration": 10, "velocity": 60}, {"time": 277563, "pitch": 54, "duration": 10, "velocity": 45}, {"time": 277683, "pitch": 46, "duration": 10, "velocity": 75}, {"time": 277683, "pitch": 54, "duration": 10, "velocity": 105}, {"time": 277804, "pitch": 54, "duration": 10, "velocity": 45}, {"time": 277924, "pitch": 35, "duration": 10, "velocity": 120}, {"time": 277924, "pitch": 42, "duration": 10, "velocity": 80}, {"time": 277924, "pitch": 54, "duration": 10, "velocity": 75}, {"time": 278042, "pitch": 42, "duration": 10, "velocity": 60}, {"time": 278042, "pitch": 54, "duration": 10, "velocity": 45}, {"time": 278160, "pitch": 46, "duration": 10, "velocity": 75}, {"time": 278160, "pitch": 54, "duration": 10, "velocity": 105}, {"time": 278278, "pitch": 54, "duration": 9, "velocity": 45}, {"time": 278395, "pitch": 35, "duration": 10, "velocity": 120}, {"time": 278395, "pitch": 42, "duration": 10, "velocity": 80}, {"time": 278395, "pitch": 54, "duration": 10, "velocity": 75}, {"time": 278516, "pitch": 42, "duration": 10, "velocity": 60}, {"time": 278516, "pitch": 54, "duration": 10, "velocity": 45}, {"time": 278636, "pitch": 35, "duration": 10, "velocity": 105}, {"time": 278636, "pitch": 46, "duration": 10, "velocity": 75}, {"time": 278636, "pitch": 54, "duration": 10, "velocity": 105}, {"time": 278757, "pitch": 54, "duration": 10, "velocity": 45}, {"time": 278877, "pitch": 35, "duration": 10, "velocity": 120}, {"time": 278877, "pitch": 42, "duration": 10, "velocity": 80}, {"time": 278877, "pitch": 54, "duration": 10, "velocity": 75}, {"time": 278997, "pitch": 42, "duration": 10, "velocity": 60}, {"time": 278997, "pitch": 54, "duration": 10, "velocity": 45}, {"time": 279118, "pitch": 46, "duration": 10, "velocity": 75}, {"time": 279118, "pitch": 54, "duration": 10, "velocity": 105}, {"time": 279238, "pitch": 54, "duration": 10, "velocity": 45}, {"time": 279359, "pitch": 35, "duration": 10, "velocity": 120}, {"time": 279359, "pitch": 42, "duration": 10, "velocity": 80}, {"time": 279359, "pitch": 54, "duration": 10, "velocity": 75}, {"time": 279479, "pitch": 42, "duration": 10, "velocity": 60}, {"time": 279479, "pitch": 54, "duration": 10, "velocity": 45}, {"time": 279599, "pitch": 46, "duration": 10, "velocity": 75}, {"time": 279599, "pitch": 54, "duration": 10, "velocity": 105}, {"time": 279720, "pitch": 54, "duration": 10, "velocity": 45}, {"time": 279840, "pitch": 35, "duration": 10, "velocity": 120}, {"time": 279840, "pitch": 42, "duration": 10, "velocity": 80}, {"time": 279840, "pitch": 54, "duration": 10, "velocity": 75}, {"time": 279961, "pitch": 42, "duration": 10, "velocity": 60}, {"time": 279961, "pitch": 54, "duration": 10, "velocity": 45}, {"time": 280081, "pitch": 46, "duration": 10, "velocity": 75}, {"time": 280081, "pitch": 54, "duration": 10, "velocity": 105}, {"time": 280201, "pitch": 54, "duration": 10, "velocity": 45}, {"time": 280322, "pitch": 35, "duration": 10, "velocity": 120}, {"time": 280322, "pitch": 42, "duration": 10, "velocity": 80}, {"time": 280322, "pitch": 54, "duration": 10, "velocity": 75}, {"time": 280442, "pitch": 42, "duration": 10, "velocity": 60}, {"time": 280442, "pitch": 54, "duration": 10, "velocity": 45}, {"time": 280563, "pitch": 46, "duration": 10, "velocity": 75}, {"time": 280563, "pitch": 54, "duration": 10, "velocity": 105}, {"time": 280683, "pitch": 54, "duration": 10, "velocity": 45}, {"time": 280803, "pitch": 35, "duration": 10, "velocity": 120}, {"time": 280803, "pitch": 42, "duration": 10, "velocity": 80}, {"time": 280803, "pitch": 54, "duration": 10, "velocity": 75}, {"time": 280924, "pitch": 42, "duration": 10, "velocity": 60}, {"time": 280924, "pitch": 54, "duration": 10, "velocity": 45}, {"time": 281044, "pitch": 46, "duration": 10, "velocity": 75}, {"time": 281044, "pitch": 54, "duration": 10, "velocity": 105}, {"time": 281164, "pitch": 54, "duration": 11, "velocity": 45}, {"time": 281285, "pitch": 35, "duration": 10, "velocity": 120}, {"time": 281285, "pitch": 42, "duration": 10, "velocity": 80}, {"time": 281285, "pitch": 54, "duration": 10, "velocity": 75}, {"time": 281403, "pitch": 42, "duration": 9, "velocity": 60}, {"time": 281403, "pitch": 54, "duration": 9, "velocity": 45}, {"time": 281520, "pitch": 46, "duration": 10, "velocity": 75}, {"time": 281520, "pitch": 54, "duration": 10, "velocity": 105}, {"time": 281638, "pitch": 35, "duration": 10, "velocity": 105}, {"time": 281638, "pitch": 54, "duration": 10, "velocity": 45}, {"time": 281756, "pitch": 35, "duration": 10, "velocity": 120}, {"time": 281756, "pitch": 42, "duration": 10, "velocity": 80}, {"time": 281756, "pitch": 54, "duration": 10, "velocity": 75}, {"time": 281876, "pitch": 42, "duration": 10, "velocity": 60}, {"time": 281876, "pitch": 54, "duration": 10, "velocity": 45}, {"time": 281997, "pitch": 35, "duration": 10, "velocity": 105}, {"time": 281997, "pitch": 46, "duration": 10, "velocity": 75}, {"time": 281997, "pitch": 54, "duration": 10, "velocity": 105}, {"time": 282117, "pitch": 54, "duration": 10, "velocity": 45}, {"time": 282238, "pitch": 35, "duration": 10, "velocity": 120}, {"time": 282238, "pitch": 42, "duration": 10, "velocity": 80}, {"time": 282238, "pitch": 54, "duration": 10, "velocity": 75}, {"time": 282358, "pitch": 42, "duration": 10, "velocity": 60}, {"time": 282358, "pitch": 54, "duration": 10, "velocity": 45}, {"time": 282478, "pitch": 35, "duration": 10, "velocity": 105}, {"time": 282478, "pitch": 46, "duration": 10, "velocity": 75}, {"time": 282478, "pitch": 54, "duration": 10, "velocity": 105}, {"time": 282599, "pitch": 54, "duration": 10, "velocity": 45}, {"time": 282719, "pitch": 35, "duration": 10, "velocity": 120}, {"time": 282719, "pitch": 42, "duration": 10, "velocity": 80}, {"time": 282719, "pitch": 54, "duration": 10, "velocity": 75}, {"time": 282840, "pitch": 42, "duration": 10, "velocity": 60}, {"time": 282840, "pitch": 54, "duration": 10, "velocity": 45}, {"time": 282960, "pitch": 46, "duration": 10, "velocity": 75}, {"time": 282960, "pitch": 54, "duration": 10, "velocity": 105}, {"time": 283080, "pitch": 54, "duration": 10, "velocity": 45}, {"time": 283201, "pitch": 35, "duration": 10, "velocity": 120}, {"time": 283201, "pitch": 42, "duration": 10, "velocity": 80}, {"time": 283201, "pitch": 54, "duration": 10, "velocity": 75}, {"time": 283321, "pitch": 42, "duration": 10, "velocity": 60}, {"time": 283321, "pitch": 54, "duration": 10, "velocity": 45}, {"time": 283442, "pitch": 46, "duration": 10, "velocity": 75}, {"time": 283442, "pitch": 54, "duration": 10, "velocity": 105}, {"time": 283562, "pitch": 54, "duration": 10, "velocity": 45}, {"time": 283682, "pitch": 35, "duration": 10, "velocity": 120}, {"time": 283682, "pitch": 42, "duration": 10, "velocity": 80}, {"time": 283682, "pitch": 54, "duration": 10, "velocity": 75}, {"time": 283803, "pitch": 42, "duration": 10, "velocity": 60}, {"time": 283803, "pitch": 54, "duration": 10, "velocity": 45}, {"time": 283923, "pitch": 46, "duration": 10, "velocity": 75}, {"time": 283923, "pitch": 54, "duration": 10, "velocity": 105}, {"time": 284044, "pitch": 54, "duration": 10, "velocity": 45}, {"time": 284164, "pitch": 35, "duration": 10, "velocity": 120}, {"time": 284164, "pitch": 42, "duration": 10, "velocity": 80}, {"time": 284164, "pitch": 54, "duration": 10, "velocity": 75}, {"time": 284282, "pitch": 42, "duration": 10, "velocity": 60}, {"time": 284282, "pitch": 54, "duration": 10, "velocity": 45}, {"time": 284400, "pitch": 46, "duration": 9, "velocity": 75}, {"time": 284400, "pitch": 54, "duration": 9, "velocity": 105}, {"time": 284517, "pitch": 54, "duration": 10, "velocity": 45}, {"time": 284635, "pitch": 35, "duration": 10, "velocity": 120}, {"time": 284635, "pitch": 42, "duration": 10, "velocity": 80}, {"time": 284635, "pitch": 54, "duration": 10, "velocity": 75}, {"time": 284756, "pitch": 42, "duration": 10, "velocity": 60}, {"time": 284756, "pitch": 54, "duration": 10, "velocity": 45}, {"time": 284876, "pitch": 46, "duration": 10, "velocity": 75}, {"time": 284876, "pitch": 54, "duration": 10, "velocity": 105}, {"time": 284996, "pitch": 54, "duration": 10, "velocity": 45}, {"time": 285117, "pitch": 35, "duration": 10, "velocity": 120}, {"time": 285117, "pitch": 42, "duration": 10, "velocity": 80}, {"time": 285117, "pitch": 54, "duration": 10, "velocity": 75}, {"time": 285237, "pitch": 42, "duration": 10, "velocity": 60}, {"time": 285237, "pitch": 54, "duration": 10, "velocity": 45}, {"time": 285357, "pitch": 46, "duration": 11, "velocity": 75}, {"time": 285357, "pitch": 54, "duration": 11, "velocity": 105}, {"time": 285478, "pitch": 54, "duration": 10, "velocity": 45}, {"time": 285598, "pitch": 35, "duration": 10, "velocity": 120}, {"time": 285598, "pitch": 42, "duration": 10, "velocity": 80}, {"time": 285598, "pitch": 54, "duration": 10, "velocity": 75}, {"time": 285719, "pitch": 42, "duration": 10, "velocity": 60}, {"time": 285719, "pitch": 54, "duration": 10, "velocity": 45}, {"time": 285839, "pitch": 46, "duration": 10, "velocity": 75}, {"time": 285839, "pitch": 54, "duration": 10, "velocity": 105}, {"time": 285959, "pitch": 54, "duration": 11, "velocity": 45}, {"time": 286080, "pitch": 35, "duration": 10, "velocity": 120}, {"time": 286080, "pitch": 42, "duration": 10, "velocity": 80}, {"time": 286080, "pitch": 54, "duration": 10, "velocity": 75}, {"time": 286200, "pitch": 42, "duration": 10, "velocity": 60}, {"time": 286200, "pitch": 54, "duration": 10, "velocity": 45}, {"time": 286321, "pitch": 35, "duration": 10, "velocity": 105}, {"time": 286321, "pitch": 46, "duration": 10, "velocity": 75}, {"time": 286321, "pitch": 54, "duration": 10, "velocity": 105}, {"time": 286441, "pitch": 54, "duration": 10, "velocity": 45}, {"time": 286561, "pitch": 35, "duration": 10, "velocity": 120}, {"time": 286561, "pitch": 42, "duration": 10, "velocity": 80}, {"time": 286561, "pitch": 54, "duration": 10, "velocity": 75}, {"time": 286682, "pitch": 42, "duration": 10, "velocity": 60}, {"time": 286682, "pitch": 54, "duration": 10, "velocity": 45}, {"time": 286802, "pitch": 46, "duration": 10, "velocity": 75}, {"time": 286802, "pitch": 54, "duration": 10, "velocity": 105}, {"time": 286923, "pitch": 54, "duration": 10, "velocity": 45}, {"time": 287043, "pitch": 35, "duration": 10, "velocity": 120}, {"time": 287043, "pitch": 42, "duration": 10, "velocity": 80}, {"time": 287043, "pitch": 54, "duration": 10, "velocity": 75}, {"time": 287163, "pitch": 42, "duration": 10, "velocity": 60}, {"time": 287163, "pitch": 54, "duration": 10, "velocity": 45}, {"time": 287284, "pitch": 46, "duration": 10, "velocity": 75}, {"time": 287284, "pitch": 54, "duration": 10, "velocity": 105}, {"time": 287404, "pitch": 54, "duration": 10, "velocity": 45}, {"time": 287525, "pitch": 35, "duration": 9, "velocity": 120}, {"time": 287525, "pitch": 42, "duration": 9, "velocity": 80}, {"time": 287525, "pitch": 54, "duration": 9, "velocity": 75}, {"time": 287642, "pitch": 42, "duration": 10, "velocity": 60}, {"time": 287642, "pitch": 54, "duration": 10, "velocity": 45}, {"time": 287760, "pitch": 46, "duration": 10, "velocity": 75}, {"time": 287760, "pitch": 54, "duration": 10, "velocity": 105}, {"time": 287878, "pitch": 54, "duration": 10, "velocity": 45}, {"time": 287996, "pitch": 35, "duration": 10, "velocity": 120}, {"time": 287996, "pitch": 42, "duration": 10, "velocity": 80}, {"time": 287996, "pitch": 54, "duration": 10, "velocity": 75}, {"time": 288116, "pitch": 42, "duration": 10, "velocity": 60}, {"time": 288116, "pitch": 54, "duration": 10, "velocity": 45}, {"time": 288237, "pitch": 46, "duration": 10, "velocity": 75}, {"time": 288237, "pitch": 54, "duration": 10, "velocity": 105}, {"time": 288357, "pitch": 54, "duration": 10, "velocity": 45}, {"time": 288477, "pitch": 35, "duration": 10, "velocity": 120}, {"time": 288477, "pitch": 42, "duration": 10, "velocity": 80}, {"time": 288477, "pitch": 54, "duration": 10, "velocity": 75}, {"time": 288598, "pitch": 42, "duration": 10, "velocity": 60}, {"time": 288598, "pitch": 54, "duration": 10, "velocity": 45}, {"time": 288718, "pitch": 46, "duration": 10, "velocity": 75}, {"time": 288718, "pitch": 54, "duration": 10, "velocity": 105}, {"time": 288839, "pitch": 54, "duration": 10, "velocity": 45}, {"time": 288959, "pitch": 35, "duration": 10, "velocity": 120}, {"time": 288959, "pitch": 42, "duration": 10, "velocity": 80}, {"time": 288959, "pitch": 54, "duration": 10, "velocity": 75}, {"time": 289079, "pitch": 42, "duration": 10, "velocity": 60}, {"time": 289079, "pitch": 54, "duration": 10, "velocity": 45}, {"time": 289200, "pitch": 46, "duration": 10, "velocity": 75}, {"time": 289200, "pitch": 54, "duration": 10, "velocity": 105}, {"time": 289320, "pitch": 35, "duration": 10, "velocity": 105}, {"time": 289320, "pitch": 54, "duration": 10, "velocity": 45}, {"time": 289441, "pitch": 35, "duration": 10, "velocity": 120}, {"time": 289441, "pitch": 42, "duration": 10, "velocity": 80}, {"time": 289441, "pitch": 54, "duration": 10, "velocity": 75}, {"time": 289561, "pitch": 42, "duration": 10, "velocity": 60}, {"time": 289561, "pitch": 54, "duration": 10, "velocity": 45}, {"time": 289681, "pitch": 35, "duration": 10, "velocity": 105}, {"time": 289681, "pitch": 46, "duration": 10, "velocity": 75}, {"time": 289681, "pitch": 54, "duration": 10, "velocity": 105}, {"time": 289802, "pitch": 54, "duration": 10, "velocity": 45}, {"time": 289922, "pitch": 35, "duration": 10, "velocity": 120}, {"time": 289922, "pitch": 42, "duration": 10, "velocity": 80}, {"time": 289922, "pitch": 54, "duration": 10, "velocity": 75}, {"time": 290043, "pitch": 42, "duration": 10, "velocity": 60}, {"time": 290043, "pitch": 54, "duration": 10, "velocity": 45}, {"time": 290163, "pitch": 35, "duration": 10, "velocity": 105}, {"time": 290163, "pitch": 46, "duration": 10, "velocity": 75}, {"time": 290163, "pitch": 54, "duration": 10, "velocity": 105}, {"time": 290283, "pitch": 54, "duration": 10, "velocity": 45}, {"time": 290404, "pitch": 35, "duration": 9, "velocity": 120}, {"time": 290404, "pitch": 42, "duration": 9, "velocity": 80}, {"time": 290404, "pitch": 54, "duration": 9, "velocity": 75}, {"time": 290521, "pitch": 42, "duration": 10, "velocity": 60}, {"time": 290521, "pitch": 54, "duration": 10, "velocity": 45}, {"time": 290639, "pitch": 46, "duration": 10, "velocity": 75}, {"time": 290639, "pitch": 54, "duration": 10, "velocity": 105}, {"time": 290757, "pitch": 54, "duration": 10, "velocity": 45}, {"time": 290875, "pitch": 35, "duration": 10, "velocity": 120}, {"time": 290875, "pitch": 42, "duration": 10, "velocity": 80}, {"time": 290875, "pitch": 54, "duration": 10, "velocity": 75}, {"time": 290995, "pitch": 42, "duration": 10, "velocity": 60}, {"time": 290995, "pitch": 54, "duration": 10, "velocity": 45}, {"time": 291116, "pitch": 46, "duration": 10, "velocity": 75}, {"time": 291116, "pitch": 54, "duration": 10, "velocity": 105}, {"time": 291236, "pitch": 54, "duration": 10, "velocity": 45}, {"time": 291356, "pitch": 35, "duration": 10, "velocity": 120}, {"time": 291356, "pitch": 42, "duration": 10, "velocity": 80}, {"time": 291356, "pitch": 54, "duration": 10, "velocity": 75}, {"time": 291477, "pitch": 42, "duration": 10, "velocity": 60}, {"time": 291477, "pitch": 54, "duration": 10, "velocity": 45}, {"time": 291597, "pitch": 46, "duration": 10, "velocity": 75}, {"time": 291597, "pitch": 54, "duration": 10, "velocity": 105}, {"time": 291718, "pitch": 54, "duration": 10, "velocity": 45}, {"time": 291838, "pitch": 35, "duration": 10, "velocity": 120}, {"time": 291838, "pitch": 42, "duration": 10, "velocity": 80}, {"time": 291838, "pitch": 54, "duration": 10, "velocity": 75}, {"time": 291958, "pitch": 42, "duration": 10, "velocity": 60}, {"time": 291958, "pitch": 54, "duration": 10, "velocity": 45}, {"time": 292079, "pitch": 46, "duration": 10, "velocity": 75}, {"time": 292079, "pitch": 54, "duration": 10, "velocity": 105}, {"time": 292199, "pitch": 54, "duration": 10, "velocity": 45}, {"time": 292320, "pitch": 35, "duration": 10, "velocity": 120}, {"time": 292320, "pitch": 42, "duration": 10, "velocity": 80}, {"time": 292320, "pitch": 54, "duration": 10, "velocity": 75}, {"time": 292440, "pitch": 42, "duration": 10, "velocity": 60}, {"time": 292440, "pitch": 54, "duration": 10, "velocity": 45}, {"time": 292560, "pitch": 46, "duration": 10, "velocity": 75}, {"time": 292560, "pitch": 54, "duration": 10, "velocity": 105}, {"time": 292681, "pitch": 54, "duration": 10, "velocity": 45}, {"time": 292801, "pitch": 35, "duration": 10, "velocity": 120}, {"time": 292801, "pitch": 42, "duration": 10, "velocity": 80}, {"time": 292801, "pitch": 54, "duration": 10, "velocity": 75}, {"time": 292922, "pitch": 42, "duration": 10, "velocity": 60}, {"time": 292922, "pitch": 54, "duration": 10, "velocity": 45}, {"time": 293042, "pitch": 46, "duration": 10, "velocity": 75}, {"time": 293042, "pitch": 54, "duration": 10, "velocity": 105}, {"time": 293162, "pitch": 54, "duration": 10, "velocity": 45}, {"time": 293283, "pitch": 35, "duration": 10, "velocity": 120}, {"time": 293283, "pitch": 42, "duration": 10, "velocity": 80}, {"time": 293283, "pitch": 54, "duration": 10, "velocity": 75}, {"time": 293403, "pitch": 42, "duration": 10, "velocity": 60}, {"time": 293403, "pitch": 54, "duration": 10, "velocity": 45}, {"time": 293524, "pitch": 46, "duration": 10, "velocity": 75}, {"time": 293524, "pitch": 54, "duration": 10, "velocity": 105}, {"time": 293644, "pitch": 54, "duration": 10, "velocity": 45}, {"time": 293764, "pitch": 35, "duration": 10, "velocity": 120}, {"time": 293764, "pitch": 42, "duration": 10, "velocity": 80}, {"time": 293764, "pitch": 54, "duration": 10, "velocity": 75}, {"time": 293885, "pitch": 42, "duration": 10, "velocity": 60}, {"time": 293885, "pitch": 54, "duration": 10, "velocity": 45}, {"time": 294005, "pitch": 35, "duration": 10, "velocity": 105}, {"time": 294005, "pitch": 46, "duration": 10, "velocity": 75}, {"time": 294005, "pitch": 54, "duration": 10, "velocity": 105}, {"time": 294126, "pitch": 54, "duration": 10, "velocity": 45}, {"time": 294246, "pitch": 35, "duration": 10, "velocity": 120}, {"time": 294246, "pitch": 42, "duration": 10, "velocity": 80}, {"time": 294246, "pitch": 54, "duration": 10, "velocity": 75}, {"time": 294366, "pitch": 42, "duration": 10, "velocity": 60}, {"time": 294366, "pitch": 54, "duration": 10, "velocity": 45}, {"time": 294487, "pitch": 46, "duration": 10, "velocity": 75}, {"time": 294487, "pitch": 54, "duration": 10, "velocity": 105}, {"time": 294607, "pitch": 54, "duration": 10, "velocity": 45}, {"time": 294728, "pitch": 35, "duration": 10, "velocity": 120}, {"time": 294728, "pitch": 42, "duration": 10, "velocity": 80}, {"time": 294728, "pitch": 54, "duration": 10, "velocity": 75}, {"time": 294848, "pitch": 42, "duration": 10, "velocity": 60}, {"time": 294848, "pitch": 54, "duration": 10, "velocity": 45}, {"time": 294968, "pitch": 46, "duration": 10, "velocity": 75}, {"time": 294968, "pitch": 54, "duration": 10, "velocity": 105}, {"time": 295089, "pitch": 54, "duration": 10, "velocity": 45}, {"time": 295209, "pitch": 35, "duration": 10, "velocity": 120}, {"time": 295209, "pitch": 42, "duration": 10, "velocity": 80}, {"time": 295209, "pitch": 54, "duration": 10, "velocity": 75}, {"time": 295330, "pitch": 42, "duration": 10, "velocity": 60}, {"time": 295330, "pitch": 54, "duration": 10, "velocity": 45}, {"time": 295450, "pitch": 46, "duration": 10, "velocity": 75}, {"time": 295450, "pitch": 54, "duration": 10, "velocity": 105}, {"time": 295570, "pitch": 54, "duration": 10, "velocity": 45}, {"time": 295691, "pitch": 35, "duration": 10, "velocity": 120}, {"time": 295691, "pitch": 42, "duration": 10, "velocity": 80}, {"time": 295691, "pitch": 54, "duration": 10, "velocity": 75}, {"time": 295811, "pitch": 42, "duration": 10, "velocity": 60}, {"time": 295811, "pitch": 54, "duration": 10, "velocity": 45}, {"time": 295932, "pitch": 46, "duration": 10, "velocity": 75}, {"time": 295932, "pitch": 54, "duration": 10, "velocity": 105}, {"time": 296052, "pitch": 54, "duration": 10, "velocity": 45}, {"time": 296172, "pitch": 35, "duration": 10, "velocity": 120}, {"time": 296172, "pitch": 42, "duration": 10, "velocity": 80}, {"time": 296172, "pitch": 54, "duration": 10, "velocity": 75}, {"time": 296293, "pitch": 42, "duration": 10, "velocity": 60}, {"time": 296293, "pitch": 54, "duration": 10, "velocity": 45}, {"time": 296413, "pitch": 46, "duration": 10, "velocity": 75}, {"time": 296413, "pitch": 54, "duration": 10, "velocity": 105}, {"time": 296533, "pitch": 54, "duration": 11, "velocity": 45}, {"time": 296654, "pitch": 35, "duration": 10, "velocity": 120}, {"time": 296654, "pitch": 42, "duration": 10, "velocity": 80}, {"time": 296654, "pitch": 54, "duration": 10, "velocity": 75}, {"time": 296774, "pitch": 42, "duration": 10, "velocity": 60}, {"time": 296774, "pitch": 54, "duration": 10, "velocity": 45}, {"time": 296895, "pitch": 46, "duration": 10, "velocity": 75}, {"time": 296895, "pitch": 54, "duration": 10, "velocity": 105}, {"time": 297015, "pitch": 35, "duration": 10, "velocity": 105}, {"time": 297015, "pitch": 54, "duration": 10, "velocity": 45}, {"time": 297135, "pitch": 35, "duration": 10, "velocity": 120}, {"time": 297135, "pitch": 42, "duration": 10, "velocity": 80}, {"time": 297135, "pitch": 54, "duration": 10, "velocity": 75}, {"time": 297256, "pitch": 42, "duration": 10, "velocity": 60}, {"time": 297256, "pitch": 54, "duration": 10, "velocity": 45}, {"time": 297376, "pitch": 35, "duration": 10, "velocity": 105}, {"time": 297376, "pitch": 46, "duration": 10, "velocity": 75}, {"time": 297376, "pitch": 54, "duration": 10, "velocity": 105}, {"time": 297497, "pitch": 54, "duration": 10, "velocity": 45}, {"time": 297617, "pitch": 35, "duration": 10, "velocity": 120}, {"time": 297617, "pitch": 42, "duration": 10, "velocity": 80}, {"time": 297617, "pitch": 54, "duration": 10, "velocity": 75}, {"time": 297737, "pitch": 42, "duration": 10, "velocity": 60}, {"time": 297737, "pitch": 54, "duration": 10, "velocity": 45}, {"time": 297858, "pitch": 35, "duration": 10, "velocity": 105}, {"time": 297858, "pitch": 46, "duration": 10, "velocity": 75}, {"time": 297858, "pitch": 54, "duration": 10, "velocity": 105}, {"time": 297978, "pitch": 54, "duration": 10, "velocity": 45}, {"time": 15845, "pitch": 49, "duration": 10, "velocity": 110}, {"time": 16316, "pitch": 40, "duration": 10, "velocity": 100}, {"time": 16677, "pitch": 28, "duration": 10, "velocity": 60}, {"time": 16918, "pitch": 28, "duration": 10, "velocity": 60}, {"time": 17279, "pitch": 40, "duration": 10, "velocity": 100}, {"time": 17640, "pitch": 28, "duration": 10, "velocity": 60}, {"time": 18242, "pitch": 40, "duration": 10, "velocity": 100}, {"time": 18604, "pitch": 28, "duration": 10, "velocity": 60}, {"time": 18842, "pitch": 28, "duration": 10, "velocity": 60}, {"time": 19195, "pitch": 40, "duration": 10, "velocity": 100}, {"time": 19556, "pitch": 28, "duration": 10, "velocity": 60}, {"time": 20158, "pitch": 40, "duration": 10, "velocity": 100}, {"time": 20519, "pitch": 28, "duration": 11, "velocity": 60}, {"time": 20760, "pitch": 28, "duration": 10, "velocity": 60}, {"time": 21121, "pitch": 40, "duration": 10, "velocity": 100}, {"time": 21483, "pitch": 28, "duration": 10, "velocity": 60}, {"time": 22085, "pitch": 40, "duration": 9, "velocity": 100}, {"time": 22438, "pitch": 28, "duration": 10, "velocity": 60}, {"time": 22676, "pitch": 28, "duration": 10, "velocity": 60}, {"time": 22676, "pitch": 50, "duration": 10, "velocity": 100}, {"time": 22917, "pitch": 47, "duration": 10, "velocity": 100}, {"time": 22977, "pitch": 47, "duration": 10, "velocity": 100}, {"time": 23037, "pitch": 40, "duration": 10, "velocity": 100}, {"time": 23037, "pitch": 45, "duration": 10, "velocity": 100}, {"time": 23158, "pitch": 45, "duration": 10, "velocity": 100}, {"time": 23278, "pitch": 41, "duration": 10, "velocity": 100}, {"time": 23399, "pitch": 28, "duration": 10, "velocity": 60}, {"time": 23519, "pitch": 57, "duration": 10, "velocity": 110}, {"time": 24001, "pitch": 40, "duration": 10, "velocity": 100}, {"time": 24362, "pitch": 28, "duration": 10, "velocity": 60}, {"time": 24603, "pitch": 28, "duration": 10, "velocity": 60}, {"time": 24964, "pitch": 40, "duration": 9, "velocity": 100}, {"time": 25317, "pitch": 28, "duration": 10, "velocity": 60}, {"time": 25916, "pitch": 40, "duration": 10, "velocity": 100}, {"time": 26278, "pitch": 28, "duration": 10, "velocity": 60}, {"time": 26518, "pitch": 28, "duration": 10, "velocity": 60}, {"time": 26880, "pitch": 40, "duration": 10, "velocity": 100}, {"time": 27241, "pitch": 28, "duration": 10, "velocity": 60}, {"time": 27843, "pitch": 40, "duration": 10, "velocity": 100}, {"time": 28204, "pitch": 28, "duration": 10, "velocity": 60}, {"time": 28442, "pitch": 28, "duration": 10, "velocity": 60}, {"time": 28796, "pitch": 40, "duration": 10, "velocity": 100}, {"time": 29157, "pitch": 28, "duration": 10, "velocity": 60}, {"time": 29759, "pitch": 40, "duration": 10, "velocity": 100}, {"time": 30120, "pitch": 28, "duration": 10, "velocity": 60}, {"time": 30361, "pitch": 28, "duration": 10, "velocity": 60}, {"time": 30722, "pitch": 40, "duration": 10, "velocity": 100}, {"time": 31083, "pitch": 28, "duration": 10, "velocity": 60}, {"time": 31685, "pitch": 40, "duration": 10, "velocity": 100}, {"time": 32038, "pitch": 28, "duration": 10, "velocity": 60}, {"time": 32277, "pitch": 28, "duration": 10, "velocity": 60}, {"time": 32638, "pitch": 40, "duration": 10, "velocity": 100}, {"time": 32999, "pitch": 28, "duration": 10, "velocity": 60}, {"time": 33119, "pitch": 49, "duration": 10, "velocity": 110}, {"time": 33601, "pitch": 40, "duration": 10, "velocity": 100}, {"time": 33962, "pitch": 28, "duration": 10, "velocity": 60}, {"time": 34203, "pitch": 28, "duration": 10, "velocity": 60}, {"time": 34564, "pitch": 40, "duration": 10, "velocity": 100}, {"time": 34918, "pitch": 28, "duration": 9, "velocity": 60}, {"time": 35517, "pitch": 40, "duration": 10, "velocity": 100}, {"time": 35878, "pitch": 28, "duration": 10, "velocity": 60}, {"time": 36119, "pitch": 28, "duration": 10, "velocity": 60}, {"time": 36480, "pitch": 40, "duration": 10, "velocity": 100}, {"time": 36841, "pitch": 28, "duration": 10, "velocity": 60}, {"time": 36962, "pitch": 57, "duration": 10, "velocity": 110}, {"time": 37443, "pitch": 40, "duration": 10, "velocity": 100}, {"time": 37804, "pitch": 28, "duration": 10, "velocity": 60}, {"time": 38042, "pitch": 28, "duration": 10, "velocity": 60}, {"time": 38396, "pitch": 40, "duration": 10, "velocity": 100}, {"time": 38757, "pitch": 28, "duration": 10, "velocity": 60}, {"time": 39359, "pitch": 40, "duration": 10, "velocity": 100}, {"time": 39720, "pitch": 28, "duration": 10, "velocity": 60}, {"time": 39961, "pitch": 28, "duration": 10, "velocity": 60}, {"time": 39961, "pitch": 50, "duration": 10, "velocity": 100}, {"time": 40202, "pitch": 47, "duration": 10, "velocity": 100}, {"time": 40322, "pitch": 40, "duration": 10, "velocity": 100}, {"time": 40443, "pitch": 45, "duration": 10, "velocity": 100}, {"time": 40563, "pitch": 45, "duration": 10, "velocity": 100}, {"time": 40683, "pitch": 28, "duration": 10, "velocity": 60}, {"time": 40683, "pitch": 41, "duration": 10, "velocity": 100}, {"time": 40804, "pitch": 49, "duration": 10, "velocity": 110}, {"time": 41275, "pitch": 40, "duration": 10, "velocity": 100}, {"time": 41636, "pitch": 28, "duration": 10, "velocity": 60}, {"time": 41877, "pitch": 28, "duration": 10, "velocity": 60}, {"time": 42238, "pitch": 40, "duration": 10, "velocity": 100}, {"time": 42599, "pitch": 28, "duration": 10, "velocity": 60}, {"time": 43201, "pitch": 40, "duration": 10, "velocity": 100}, {"time": 43563, "pitch": 28, "duration": 10, "velocity": 60}, {"time": 43803, "pitch": 28, "duration": 10, "velocity": 60}, {"time": 44164, "pitch": 40, "duration": 10, "velocity": 100}, {"time": 44518, "pitch": 28, "duration": 10, "velocity": 60}, {"time": 44636, "pitch": 57, "duration": 10, "velocity": 110}, {"time": 45117, "pitch": 40, "duration": 10, "velocity": 100}, {"time": 45478, "pitch": 28, "duration": 10, "velocity": 60}, {"time": 45719, "pitch": 28, "duration": 10, "velocity": 60}, {"time": 46080, "pitch": 40, "duration": 10, "velocity": 100}, {"time": 46442, "pitch": 28, "duration": 10, "velocity": 60}, {"time": 46562, "pitch": 49, "duration": 10, "velocity": 110}, {"time": 47044, "pitch": 40, "duration": 10, "velocity": 100}, {"time": 47405, "pitch": 28, "duration": 10, "velocity": 60}, {"time": 47525, "pitch": 50, "duration": 10, "velocity": 100}, {"time": 47584, "pitch": 50, "duration": 10, "velocity": 100}, {"time": 47643, "pitch": 50, "duration": 10, "velocity": 100}, {"time": 47702, "pitch": 50, "duration": 10, "velocity": 100}, {"time": 47761, "pitch": 47, "duration": 10, "velocity": 100}, {"time": 47820, "pitch": 47, "duration": 9, "velocity": 100}, {"time": 47879, "pitch": 47, "duration": 9, "velocity": 100}, {"time": 47937, "pitch": 47, "duration": 10, "velocity": 100}, {"time": 47996, "pitch": 45, "duration": 10, "velocity": 100}, {"time": 48057, "pitch": 45, "duration": 10, "velocity": 100}, {"time": 48117, "pitch": 45, "duration": 10, "velocity": 100}, {"time": 48177, "pitch": 45, "duration": 10, "velocity": 100}, {"time": 48237, "pitch": 41, "duration": 10, "velocity": 100}, {"time": 48297, "pitch": 41, "duration": 10, "velocity": 100}, {"time": 48357, "pitch": 41, "duration": 11, "velocity": 100}, {"time": 48418, "pitch": 41, "duration": 10, "velocity": 100}, {"time": 48478, "pitch": 49, "duration": 10, "velocity": 110}, {"time": 48959, "pitch": 40, "duration": 11, "velocity": 100}, {"time": 49321, "pitch": 28, "duration": 10, "velocity": 60}, {"time": 49441, "pitch": 80, "duration": 10, "velocity": 110}, {"time": 49561, "pitch": 28, "duration": 10, "velocity": 60}, {"time": 49802, "pitch": 80, "duration": 10, "velocity": 110}, {"time": 49923, "pitch": 40, "duration": 10, "velocity": 100}, {"time": 50284, "pitch": 28, "duration": 10, "velocity": 60}, {"time": 50875, "pitch": 40, "duration": 10, "velocity": 100}, {"time": 51237, "pitch": 28, "duration": 10, "velocity": 60}, {"time": 51477, "pitch": 28, "duration": 10, "velocity": 60}, {"time": 51839, "pitch": 40, "duration": 10, "velocity": 100}, {"time": 52200, "pitch": 28, "duration": 10, "velocity": 60}, {"time": 52802, "pitch": 40, "duration": 10, "velocity": 100}, {"time": 53163, "pitch": 28, "duration": 10, "velocity": 60}, {"time": 53283, "pitch": 80, "duration": 10, "velocity": 110}, {"time": 53404, "pitch": 28, "duration": 10, "velocity": 60}, {"time": 53644, "pitch": 80, "duration": 11, "velocity": 110}, {"time": 53765, "pitch": 40, "duration": 10, "velocity": 100}, {"time": 54118, "pitch": 28, "duration": 10, "velocity": 60}, {"time": 54718, "pitch": 40, "duration": 10, "velocity": 100}, {"time": 55079, "pitch": 28, "duration": 10, "velocity": 60}, {"time": 55320, "pitch": 28, "duration": 10, "velocity": 60}, {"time": 55681, "pitch": 40, "duration": 10, "velocity": 100}, {"time": 56042, "pitch": 28, "duration": 10, "velocity": 60}, {"time": 56644, "pitch": 40, "duration": 10, "velocity": 100}, {"time": 56997, "pitch": 28, "duration": 10, "velocity": 60}, {"time": 57115, "pitch": 80, "duration": 10, "velocity": 110}, {"time": 57236, "pitch": 28, "duration": 10, "velocity": 60}, {"time": 57476, "pitch": 80, "duration": 10, "velocity": 110}, {"time": 57597, "pitch": 40, "duration": 10, "velocity": 100}, {"time": 57958, "pitch": 28, "duration": 10, "velocity": 60}, {"time": 58560, "pitch": 40, "duration": 10, "velocity": 100}, {"time": 58921, "pitch": 28, "duration": 10, "velocity": 60}, {"time": 59162, "pitch": 28, "duration": 10, "velocity": 60}, {"time": 59523, "pitch": 40, "duration": 10, "velocity": 100}, {"time": 59884, "pitch": 28, "duration": 10, "velocity": 60}, {"time": 60476, "pitch": 40, "duration": 10, "velocity": 100}, {"time": 60837, "pitch": 28, "duration": 10, "velocity": 60}, {"time": 60957, "pitch": 80, "duration": 10, "velocity": 110}, {"time": 61078, "pitch": 28, "duration": 10, "velocity": 60}, {"time": 61319, "pitch": 80, "duration": 10, "velocity": 110}, {"time": 61439, "pitch": 40, "duration": 10, "velocity": 100}, {"time": 61800, "pitch": 28, "duration": 10, "velocity": 60}, {"time": 62402, "pitch": 40, "duration": 10, "velocity": 100}, {"time": 62763, "pitch": 28, "duration": 10, "velocity": 60}, {"time": 63001, "pitch": 28, "duration": 10, "velocity": 60}, {"time": 63355, "pitch": 40, "duration": 10, "velocity": 100}, {"time": 63596, "pitch": 40, "duration": 10, "velocity": 80}, {"time": 63716, "pitch": 28, "duration": 10, "velocity": 60}, {"time": 63716, "pitch": 40, "duration": 10, "velocity": 100}, {"time": 63836, "pitch": 49, "duration": 10, "velocity": 110}, {"time": 64318, "pitch": 40, "duration": 10, "velocity": 100}, {"time": 64679, "pitch": 28, "duration": 10, "velocity": 60}, {"time": 64800, "pitch": 80, "duration": 10, "velocity": 110}, {"time": 64920, "pitch": 28, "duration": 10, "velocity": 60}, {"time": 65161, "pitch": 80, "duration": 10, "velocity": 110}, {"time": 65281, "pitch": 40, "duration": 10, "velocity": 100}, {"time": 65642, "pitch": 28, "duration": 10, "velocity": 60}, {"time": 66244, "pitch": 40, "duration": 10, "velocity": 100}, {"time": 66598, "pitch": 28, "duration": 10, "velocity": 60}, {"time": 66836, "pitch": 28, "duration": 10, "velocity": 60}, {"time": 67197, "pitch": 40, "duration": 10, "velocity": 100}, {"time": 67558, "pitch": 28, "duration": 10, "velocity": 60}, {"time": 68160, "pitch": 40, "duration": 10, "velocity": 100}, {"time": 68521, "pitch": 28, "duration": 10, "velocity": 60}, {"time": 68642, "pitch": 80, "duration": 10, "velocity": 110}, {"time": 68762, "pitch": 28, "duration": 10, "velocity": 60}, {"time": 69003, "pitch": 80, "duration": 10, "velocity": 110}, {"time": 69123, "pitch": 40, "duration": 10, "velocity": 100}, {"time": 69485, "pitch": 28, "duration": 10, "velocity": 60}, {"time": 70076, "pitch": 40, "duration": 10, "velocity": 100}, {"time": 70437, "pitch": 28, "duration": 10, "velocity": 60}, {"time": 70678, "pitch": 28, "duration": 10, "velocity": 60}, {"time": 71039, "pitch": 40, "duration": 10, "velocity": 100}, {"time": 71401, "pitch": 28, "duration": 10, "velocity": 60}, {"time": 72003, "pitch": 40, "duration": 10, "velocity": 100}, {"time": 72364, "pitch": 28, "duration": 10, "velocity": 60}, {"time": 72484, "pitch": 80, "duration": 10, "velocity": 110}, {"time": 72602, "pitch": 28, "duration": 10, "velocity": 60}, {"time": 72838, "pitch": 80, "duration": 9, "velocity": 110}, {"time": 72955, "pitch": 40, "duration": 10, "velocity": 100}, {"time": 73316, "pitch": 28, "duration": 10, "velocity": 60}, {"time": 73918, "pitch": 40, "duration": 10, "velocity": 100}, {"time": 74280, "pitch": 28, "duration": 10, "velocity": 60}, {"time": 74520, "pitch": 28, "duration": 10, "velocity": 60}, {"time": 74882, "pitch": 40, "duration": 10, "velocity": 100}, {"time": 75243, "pitch": 28, "duration": 10, "velocity": 60}, {"time": 75845, "pitch": 40, "duration": 9, "velocity": 100}, {"time": 76198, "pitch": 28, "duration": 10, "velocity": 60}, {"time": 76316, "pitch": 80, "duration": 10, "velocity": 110}, {"time": 76436, "pitch": 28, "duration": 10, "velocity": 60}, {"time": 76677, "pitch": 80, "duration": 10, "velocity": 110}, {"time": 76797, "pitch": 40, "duration": 11, "velocity": 100}, {"time": 77159, "pitch": 28, "duration": 10, "velocity": 60}, {"time": 77761, "pitch": 40, "duration": 10, "velocity": 100}, {"time": 78122, "pitch": 28, "duration": 10, "velocity": 60}, {"time": 78363, "pitch": 28, "duration": 10, "velocity": 60}, {"time": 78724, "pitch": 40, "duration": 10, "velocity": 100}, {"time": 79077, "pitch": 28, "duration": 10, "velocity": 60}, {"time": 79195, "pitch": 49, "duration": 10, "velocity": 110}, {"time": 79677, "pitch": 40, "duration": 10, "velocity": 100}, {"time": 80038, "pitch": 28, "duration": 10, "velocity": 60}, {"time": 80279, "pitch": 28, "duration": 10, "velocity": 60}, {"time": 80640, "pitch": 40, "duration": 10, "velocity": 100}, {"time": 81001, "pitch": 28, "duration": 10, "velocity": 60}, {"time": 81603, "pitch": 40, "duration": 10, "velocity": 100}, {"time": 81964, "pitch": 28, "duration": 10, "velocity": 60}, {"time": 82202, "pitch": 28, "duration": 10, "velocity": 60}, {"time": 82556, "pitch": 40, "duration": 10, "velocity": 100}, {"time": 82917, "pitch": 28, "duration": 10, "velocity": 60}, {"time": 83519, "pitch": 40, "duration": 10, "velocity": 100}, {"time": 83880, "pitch": 28, "duration": 10, "velocity": 60}, {"time": 84121, "pitch": 28, "duration": 10, "velocity": 60}, {"time": 84482, "pitch": 40, "duration": 10, "velocity": 100}, {"time": 84843, "pitch": 28, "duration": 10, "velocity": 60}, {"time": 85445, "pitch": 40, "duration": 10, "velocity": 100}, {"time": 85799, "pitch": 28, "duration": 9, "velocity": 60}, {"time": 86037, "pitch": 28, "duration": 10, "velocity": 60}, {"time": 86398, "pitch": 40, "duration": 10, "velocity": 100}, {"time": 86759, "pitch": 28, "duration": 10, "velocity": 60}, {"time": 86879, "pitch": 57, "duration": 11, "velocity": 110}, {"time": 87361, "pitch": 40, "duration": 10, "velocity": 100}, {"time": 87722, "pitch": 28, "duration": 10, "velocity": 60}, {"time": 87963, "pitch": 28, "duration": 10, "velocity": 60}, {"time": 88324, "pitch": 40, "duration": 10, "velocity": 100}, {"time": 88678, "pitch": 28, "duration": 9, "velocity": 60}, {"time": 88795, "pitch": 49, "duration": 10, "velocity": 110}, {"time": 89277, "pitch": 40, "duration": 10, "velocity": 100}, {"time": 89638, "pitch": 28, "duration": 10, "velocity": 60}, {"time": 89759, "pitch": 57, "duration": 10, "velocity": 110}, {"time": 89879, "pitch": 28, "duration": 10, "velocity": 60}, {"time": 90240, "pitch": 40, "duration": 10, "velocity": 100}, {"time": 90601, "pitch": 28, "duration": 10, "velocity": 60}, {"time": 90722, "pitch": 49, "duration": 10, "velocity": 110}, {"time": 91203, "pitch": 40, "duration": 10, "velocity": 100}, {"time": 91564, "pitch": 28, "duration": 11, "velocity": 60}, {"time": 91803, "pitch": 28, "duration": 9, "velocity": 60}, {"time": 92156, "pitch": 40, "duration": 10, "velocity": 100}, {"time": 92517, "pitch": 28, "duration": 10, "velocity": 60}, {"time": 92638, "pitch": 49, "duration": 10, "velocity": 110}, {"time": 92999, "pitch": 57, "duration": 10, "velocity": 110}, {"time": 93360, "pitch": 49, "duration": 10, "velocity": 110}, {"time": 93601, "pitch": 57, "duration": 10, "velocity": 110}, {"time": 94564, "pitch": 49, "duration": 10, "velocity": 110}, {"time": 95035, "pitch": 40, "duration": 10, "velocity": 100}, {"time": 95396, "pitch": 28, "duration": 10, "velocity": 60}, {"time": 95637, "pitch": 28, "duration": 10, "velocity": 60}, {"time": 95998, "pitch": 40, "duration": 10, "velocity": 100}, {"time": 96359, "pitch": 28, "duration": 11, "velocity": 60}, {"time": 96961, "pitch": 40, "duration": 10, "velocity": 100}, {"time": 97323, "pitch": 28, "duration": 10, "velocity": 60}, {"time": 97563, "pitch": 28, "duration": 10, "velocity": 60}, {"time": 97925, "pitch": 40, "duration": 9, "velocity": 100}, {"time": 98278, "pitch": 28, "duration": 10, "velocity": 60}, {"time": 98877, "pitch": 40, "duration": 10, "velocity": 100}, {"time": 99239, "pitch": 28, "duration": 10, "velocity": 60}, {"time": 99479, "pitch": 28, "duration": 10, "velocity": 60}, {"time": 99841, "pitch": 40, "duration": 10, "velocity": 100}, {"time": 100202, "pitch": 28, "duration": 10, "velocity": 60}, {"time": 100804, "pitch": 40, "duration": 9, "velocity": 100}, {"time": 101157, "pitch": 28, "duration": 10, "velocity": 60}, {"time": 101395, "pitch": 28, "duration": 10, "velocity": 60}, {"time": 101395, "pitch": 50, "duration": 10, "velocity": 100}, {"time": 101636, "pitch": 47, "duration": 10, "velocity": 100}, {"time": 101696, "pitch": 47, "duration": 10, "velocity": 100}, {"time": 101756, "pitch": 40, "duration": 10, "velocity": 100}, {"time": 101756, "pitch": 45, "duration": 10, "velocity": 100}, {"time": 101877, "pitch": 45, "duration": 10, "velocity": 100}, {"time": 101997, "pitch": 41, "duration": 10, "velocity": 100}, {"time": 102118, "pitch": 28, "duration": 10, "velocity": 60}, {"time": 102238, "pitch": 57, "duration": 10, "velocity": 110}, {"time": 102720, "pitch": 40, "duration": 10, "velocity": 100}, {"time": 103081, "pitch": 28, "duration": 10, "velocity": 60}, {"time": 103322, "pitch": 28, "duration": 10, "velocity": 60}, {"time": 103683, "pitch": 40, "duration": 10, "velocity": 100}, {"time": 104044, "pitch": 28, "duration": 10, "velocity": 60}, {"time": 104636, "pitch": 40, "duration": 10, "velocity": 100}, {"time": 104997, "pitch": 28, "duration": 10, "velocity": 60}, {"time": 105237, "pitch": 28, "duration": 11, "velocity": 60}, {"time": 105599, "pitch": 40, "duration": 10, "velocity": 100}, {"time": 105960, "pitch": 28, "duration": 10, "velocity": 60}, {"time": 106562, "pitch": 40, "duration": 10, "velocity": 100}, {"time": 106923, "pitch": 28, "duration": 10, "velocity": 60}, {"time": 107164, "pitch": 28, "duration": 10, "velocity": 60}, {"time": 107525, "pitch": 40, "duration": 10, "velocity": 100}, {"time": 107878, "pitch": 28, "duration": 10, "velocity": 60}, {"time": 108478, "pitch": 40, "duration": 10, "velocity": 100}, {"time": 108839, "pitch": 28, "duration": 10, "velocity": 60}, {"time": 109080, "pitch": 28, "duration": 10, "velocity": 60}, {"time": 109441, "pitch": 40, "duration": 10, "velocity": 100}, {"time": 109802, "pitch": 28, "duration": 10, "velocity": 60}, {"time": 110404, "pitch": 40, "duration": 10, "velocity": 100}, {"time": 110758, "pitch": 28, "duration": 9, "velocity": 60}, {"time": 110996, "pitch": 28, "duration": 10, "velocity": 60}, {"time": 111357, "pitch": 40, "duration": 10, "velocity": 100}, {"time": 111718, "pitch": 28, "duration": 10, "velocity": 60}, {"time": 111838, "pitch": 49, "duration": 10, "velocity": 110}, {"time": 112320, "pitch": 40, "duration": 10, "velocity": 100}, {"time": 112681, "pitch": 28, "duration": 10, "velocity": 60}, {"time": 112922, "pitch": 28, "duration": 10, "velocity": 60}, {"time": 113283, "pitch": 40, "duration": 10, "velocity": 100}, {"time": 113644, "pitch": 28, "duration": 10, "velocity": 60}, {"time": 114236, "pitch": 40, "duration": 10, "velocity": 100}, {"time": 114597, "pitch": 28, "duration": 10, "velocity": 60}, {"time": 114838, "pitch": 28, "duration": 10, "velocity": 60}, {"time": 115199, "pitch": 40, "duration": 10, "velocity": 100}, {"time": 115560, "pitch": 28, "duration": 10, "velocity": 60}, {"time": 115681, "pitch": 57, "duration": 10, "velocity": 110}, {"time": 116162, "pitch": 40, "duration": 10, "velocity": 100}, {"time": 116523, "pitch": 28, "duration": 10, "velocity": 60}, {"time": 116762, "pitch": 28, "duration": 9, "velocity": 60}, {"time": 117115, "pitch": 40, "duration": 10, "velocity": 100}, {"time": 117476, "pitch": 28, "duration": 10, "velocity": 60}, {"time": 118078, "pitch": 40, "duration": 10, "velocity": 100}, {"time": 118439, "pitch": 28, "duration": 10, "velocity": 60}, {"time": 118680, "pitch": 28, "duration": 10, "velocity": 60}, {"time": 118680, "pitch": 50, "duration": 10, "velocity": 100}, {"time": 118921, "pitch": 47, "duration": 10, "velocity": 100}, {"time": 119041, "pitch": 40, "duration": 10, "velocity": 100}, {"time": 119162, "pitch": 45, "duration": 10, "velocity": 100}, {"time": 119282, "pitch": 45, "duration": 10, "velocity": 100}, {"time": 119403, "pitch": 28, "duration": 10, "velocity": 60}, {"time": 119403, "pitch": 41, "duration": 10, "velocity": 100}, {"time": 119523, "pitch": 49, "duration": 10, "velocity": 110}, {"time": 120004, "pitch": 40, "duration": 10, "velocity": 100}, {"time": 120358, "pitch": 28, "duration": 10, "velocity": 60}, {"time": 120596, "pitch": 28, "duration": 10, "velocity": 60}, {"time": 120957, "pitch": 40, "duration": 10, "velocity": 100}, {"time": 121318, "pitch": 28, "duration": 10, "velocity": 60}, {"time": 121920, "pitch": 40, "duration": 10, "velocity": 100}, {"time": 122282, "pitch": 28, "duration": 10, "velocity": 60}, {"time": 122522, "pitch": 28, "duration": 10, "velocity": 60}, {"time": 122884, "pitch": 40, "duration": 10, "velocity": 100}, {"time": 123245, "pitch": 28, "duration": 10, "velocity": 60}, {"time": 123365, "pitch": 57, "duration": 10, "velocity": 110}, {"time": 123836, "pitch": 40, "duration": 10, "velocity": 100}, {"time": 124197, "pitch": 28, "duration": 11, "velocity": 60}, {"time": 124438, "pitch": 28, "duration": 10, "velocity": 60}, {"time": 124799, "pitch": 40, "duration": 11, "velocity": 100}, {"time": 125161, "pitch": 28, "duration": 10, "velocity": 60}, {"time": 125281, "pitch": 49, "duration": 10, "velocity": 110}, {"time": 125763, "pitch": 40, "duration": 10, "velocity": 100}, {"time": 126124, "pitch": 28, "duration": 10, "velocity": 60}, {"time": 127197, "pitch": 49, "duration": 10, "velocity": 110}, {"time": 127679, "pitch": 40, "duration": 10, "velocity": 100}, {"time": 128040, "pitch": 28, "duration": 10, "velocity": 60}, {"time": 128160, "pitch": 80, "duration": 10, "velocity": 110}, {"time": 128281, "pitch": 28, "duration": 10, "velocity": 60}, {"time": 128521, "pitch": 80, "duration": 10, "velocity": 110}, {"time": 128642, "pitch": 40, "duration": 10, "velocity": 100}, {"time": 129003, "pitch": 28, "duration": 10, "velocity": 60}, {"time": 129605, "pitch": 40, "duration": 10, "velocity": 100}, {"time": 129958, "pitch": 28, "duration": 10, "velocity": 60}, {"time": 130196, "pitch": 28, "duration": 10, "velocity": 60}, {"time": 130558, "pitch": 40, "duration": 10, "velocity": 100}, {"time": 130919, "pitch": 28, "duration": 10, "velocity": 60}, {"time": 131521, "pitch": 40, "duration": 10, "velocity": 100}, {"time": 131882, "pitch": 28, "duration": 10, "velocity": 60}, {"time": 132002, "pitch": 80, "duration": 10, "velocity": 110}, {"time": 132123, "pitch": 28, "duration": 10, "velocity": 60}, {"time": 132364, "pitch": 80, "duration": 10, "velocity": 110}, {"time": 132484, "pitch": 40, "duration": 10, "velocity": 100}, {"time": 132837, "pitch": 28, "duration": 10, "velocity": 60}, {"time": 133437, "pitch": 40, "duration": 10, "velocity": 100}, {"time": 133798, "pitch": 28, "duration": 10, "velocity": 60}, {"time": 134039, "pitch": 28, "duration": 10, "velocity": 60}, {"time": 134400, "pitch": 40, "duration": 10, "velocity": 100}, {"time": 134761, "pitch": 28, "duration": 10, "velocity": 60}, {"time": 135363, "pitch": 40, "duration": 10, "velocity": 100}, {"time": 135724, "pitch": 28, "duration": 10, "velocity": 60}, {"time": 135845, "pitch": 80, "duration": 9, "velocity": 110}, {"time": 135962, "pitch": 28, "duration": 10, "velocity": 60}, {"time": 136198, "pitch": 80, "duration": 10, "velocity": 110}, {"time": 136316, "pitch": 40, "duration": 10, "velocity": 100}, {"time": 136677, "pitch": 28, "duration": 10, "velocity": 60}, {"time": 137279, "pitch": 40, "duration": 10, "velocity": 100}, {"time": 137640, "pitch": 28, "duration": 10, "velocity": 60}, {"time": 137881, "pitch": 28, "duration": 10, "velocity": 60}, {"time": 138242, "pitch": 40, "duration": 10, "velocity": 100}, {"time": 138603, "pitch": 28, "duration": 10, "velocity": 60}, {"time": 139195, "pitch": 40, "duration": 10, "velocity": 100}, {"time": 139556, "pitch": 28, "duration": 10, "velocity": 60}, {"time": 139676, "pitch": 80, "duration": 10, "velocity": 110}, {"time": 139797, "pitch": 28, "duration": 10, "velocity": 60}, {"time": 140038, "pitch": 80, "duration": 10, "velocity": 110}, {"time": 140158, "pitch": 40, "duration": 10, "velocity": 100}, {"time": 140519, "pitch": 28, "duration": 10, "velocity": 60}, {"time": 141121, "pitch": 40, "duration": 10, "velocity": 100}, {"time": 141482, "pitch": 28, "duration": 10, "velocity": 60}, {"time": 141723, "pitch": 28, "duration": 10, "velocity": 60}, {"time": 142084, "pitch": 40, "duration": 10, "velocity": 100}, {"time": 142438, "pitch": 28, "duration": 10, "velocity": 60}, {"time": 142556, "pitch": 49, "duration": 10, "velocity": 110}, {"time": 143037, "pitch": 40, "duration": 10, "velocity": 100}, {"time": 143398, "pitch": 28, "duration": 10, "velocity": 60}, {"time": 143639, "pitch": 28, "duration": 10, "velocity": 60}, {"time": 144000, "pitch": 40, "duration": 10, "velocity": 100}, {"time": 144361, "pitch": 28, "duration": 10, "velocity": 60}, {"time": 144963, "pitch": 40, "duration": 10, "velocity": 100}, {"time": 145325, "pitch": 28, "duration": 10, "velocity": 60}, {"time": 145563, "pitch": 28, "duration": 10, "velocity": 60}, {"time": 145916, "pitch": 40, "duration": 10, "velocity": 100}, {"time": 146277, "pitch": 28, "duration": 10, "velocity": 60}, {"time": 146879, "pitch": 40, "duration": 10, "velocity": 100}, {"time": 147241, "pitch": 28, "duration": 10, "velocity": 60}, {"time": 147481, "pitch": 28, "duration": 10, "velocity": 60}, {"time": 147843, "pitch": 40, "duration": 10, "velocity": 100}, {"time": 148204, "pitch": 28, "duration": 10, "velocity": 60}, {"time": 148795, "pitch": 40, "duration": 10, "velocity": 100}, {"time": 149156, "pitch": 28, "duration": 10, "velocity": 60}, {"time": 149397, "pitch": 28, "duration": 10, "velocity": 60}, {"time": 149758, "pitch": 40, "duration": 10, "velocity": 100}, {"time": 150120, "pitch": 28, "duration": 10, "velocity": 60}, {"time": 150240, "pitch": 57, "duration": 10, "velocity": 110}, {"time": 150722, "pitch": 40, "duration": 10, "velocity": 100}, {"time": 151083, "pitch": 28, "duration": 10, "velocity": 60}, {"time": 151324, "pitch": 28, "duration": 10, "velocity": 60}, {"time": 151685, "pitch": 40, "duration": 9, "velocity": 100}, {"time": 152038, "pitch": 28, "duration": 10, "velocity": 60}, {"time": 152156, "pitch": 49, "duration": 10, "velocity": 110}, {"time": 152637, "pitch": 40, "duration": 11, "velocity": 100}, {"time": 152999, "pitch": 28, "duration": 10, "velocity": 60}, {"time": 153119, "pitch": 57, "duration": 10, "velocity": 110}, {"time": 153239, "pitch": 28, "duration": 11, "velocity": 60}, {"time": 153601, "pitch": 40, "duration": 10, "velocity": 100}, {"time": 153962, "pitch": 28, "duration": 10, "velocity": 60}, {"time": 154082, "pitch": 49, "duration": 10, "velocity": 110}, {"time": 154564, "pitch": 40, "duration": 10, "velocity": 100}, {"time": 154917, "pitch": 28, "duration": 10, "velocity": 60}, {"time": 155155, "pitch": 28, "duration": 10, "velocity": 60}, {"time": 155517, "pitch": 40, "duration": 10, "velocity": 100}, {"time": 155878, "pitch": 28, "duration": 10, "velocity": 60}, {"time": 155998, "pitch": 49, "duration": 10, "velocity": 110}, {"time": 156359, "pitch": 57, "duration": 10, "velocity": 110}, {"time": 156721, "pitch": 49, "duration": 10, "velocity": 110}, {"time": 156961, "pitch": 57, "duration": 10, "velocity": 110}, {"time": 157924, "pitch": 49, "duration": 10, "velocity": 110}, {"time": 158396, "pitch": 40, "duration": 10, "velocity": 100}, {"time": 158757, "pitch": 28, "duration": 10, "velocity": 60}, {"time": 158998, "pitch": 28, "duration": 10, "velocity": 60}, {"time": 159359, "pitch": 40, "duration": 10, "velocity": 100}, {"time": 159720, "pitch": 28, "duration": 10, "velocity": 60}, {"time": 160322, "pitch": 40, "duration": 10, "velocity": 100}, {"time": 160683, "pitch": 28, "duration": 10, "velocity": 60}, {"time": 160924, "pitch": 28, "duration": 10, "velocity": 60}, {"time": 161285, "pitch": 40, "duration": 10, "velocity": 100}, {"time": 161639, "pitch": 28, "duration": 9, "velocity": 60}, {"time": 162238, "pitch": 40, "duration": 10, "velocity": 100}, {"time": 162599, "pitch": 28, "duration": 10, "velocity": 60}, {"time": 162840, "pitch": 28, "duration": 10, "velocity": 60}, {"time": 163201, "pitch": 40, "duration": 10, "velocity": 100}, {"time": 163562, "pitch": 28, "duration": 10, "velocity": 60}, {"time": 164164, "pitch": 40, "duration": 10, "velocity": 100}, {"time": 164518, "pitch": 28, "duration": 9, "velocity": 60}, {"time": 164756, "pitch": 28, "duration": 10, "velocity": 60}, {"time": 164756, "pitch": 50, "duration": 10, "velocity": 100}, {"time": 164997, "pitch": 47, "duration": 10, "velocity": 100}, {"time": 165057, "pitch": 47, "duration": 10, "velocity": 100}, {"time": 165117, "pitch": 40, "duration": 10, "velocity": 100}, {"time": 165117, "pitch": 45, "duration": 10, "velocity": 100}, {"time": 165237, "pitch": 45, "duration": 10, "velocity": 100}, {"time": 165358, "pitch": 41, "duration": 10, "velocity": 100}, {"time": 165478, "pitch": 28, "duration": 10, "velocity": 60}, {"time": 165599, "pitch": 57, "duration": 10, "velocity": 110}, {"time": 166080, "pitch": 40, "duration": 10, "velocity": 100}, {"time": 166441, "pitch": 28, "duration": 10, "velocity": 60}, {"time": 166682, "pitch": 28, "duration": 10, "velocity": 60}, {"time": 167043, "pitch": 40, "duration": 10, "velocity": 100}, {"time": 167404, "pitch": 28, "duration": 11, "velocity": 60}, {"time": 167996, "pitch": 40, "duration": 10, "velocity": 100}, {"time": 168357, "pitch": 28, "duration": 10, "velocity": 60}, {"time": 168598, "pitch": 28, "duration": 10, "velocity": 60}, {"time": 168959, "pitch": 40, "duration": 10, "velocity": 100}, {"time": 169320, "pitch": 28, "duration": 10, "velocity": 60}, {"time": 169922, "pitch": 40, "duration": 10, "velocity": 100}, {"time": 170284, "pitch": 28, "duration": 10, "velocity": 60}, {"time": 170522, "pitch": 28, "duration": 10, "velocity": 60}, {"time": 170875, "pitch": 40, "duration": 10, "velocity": 100}, {"time": 171236, "pitch": 28, "duration": 10, "velocity": 60}, {"time": 171838, "pitch": 40, "duration": 10, "velocity": 100}, {"time": 172199, "pitch": 28, "duration": 11, "velocity": 60}, {"time": 172440, "pitch": 28, "duration": 10, "velocity": 60}, {"time": 172801, "pitch": 40, "duration": 10, "velocity": 100}, {"time": 173163, "pitch": 28, "duration": 10, "velocity": 60}, {"time": 173283, "pitch": 49, "duration": 10, "velocity": 110}, {"time": 173765, "pitch": 40, "duration": 9, "velocity": 100}, {"time": 174118, "pitch": 28, "duration": 10, "velocity": 60}, {"time": 174356, "pitch": 28, "duration": 10, "velocity": 60}, {"time": 174717, "pitch": 40, "duration": 10, "velocity": 100}, {"time": 175079, "pitch": 28, "duration": 10, "velocity": 60}, {"time": 175681, "pitch": 40, "duration": 10, "velocity": 100}, {"time": 176042, "pitch": 28, "duration": 10, "velocity": 60}, {"time": 176283, "pitch": 28, "duration": 10, "velocity": 60}, {"time": 176644, "pitch": 40, "duration": 9, "velocity": 100}, {"time": 176997, "pitch": 28, "duration": 10, "velocity": 60}, {"time": 177596, "pitch": 40, "duration": 10, "velocity": 100}, {"time": 177958, "pitch": 28, "duration": 10, "velocity": 60}, {"time": 178198, "pitch": 28, "duration": 10, "velocity": 60}, {"time": 178560, "pitch": 40, "duration": 10, "velocity": 100}, {"time": 178921, "pitch": 28, "duration": 10, "velocity": 60}, {"time": 179523, "pitch": 40, "duration": 10, "velocity": 100}, {"time": 179884, "pitch": 28, "duration": 10, "velocity": 60}, {"time": 180122, "pitch": 28, "duration": 10, "velocity": 60}, {"time": 180122, "pitch": 50, "duration": 10, "velocity": 100}, {"time": 180358, "pitch": 47, "duration": 10, "velocity": 100}, {"time": 180417, "pitch": 47, "duration": 10, "velocity": 100}, {"time": 180476, "pitch": 40, "duration": 10, "velocity": 100}, {"time": 180476, "pitch": 45, "duration": 10, "velocity": 100}, {"time": 180596, "pitch": 45, "duration": 10, "velocity": 100}, {"time": 180716, "pitch": 41, "duration": 10, "velocity": 100}, {"time": 180837, "pitch": 28, "duration": 10, "velocity": 60}, {"time": 180957, "pitch": 57, "duration": 10, "velocity": 110}, {"time": 181439, "pitch": 40, "duration": 10, "velocity": 100}, {"time": 181800, "pitch": 28, "duration": 10, "velocity": 60}, {"time": 182041, "pitch": 28, "duration": 10, "velocity": 60}, {"time": 182402, "pitch": 40, "duration": 10, "velocity": 100}, {"time": 182763, "pitch": 28, "duration": 10, "velocity": 60}, {"time": 183365, "pitch": 40, "duration": 10, "velocity": 100}, {"time": 183718, "pitch": 28, "duration": 10, "velocity": 60}, {"time": 183957, "pitch": 28, "duration": 10, "velocity": 60}, {"time": 184318, "pitch": 40, "duration": 10, "velocity": 100}, {"time": 184679, "pitch": 28, "duration": 10, "velocity": 60}, {"time": 185281, "pitch": 40, "duration": 10, "velocity": 100}, {"time": 185642, "pitch": 28, "duration": 10, "velocity": 60}, {"time": 185883, "pitch": 28, "duration": 10, "velocity": 60}, {"time": 186244, "pitch": 40, "duration": 10, "velocity": 100}, {"time": 186598, "pitch": 28, "duration": 9, "velocity": 60}, {"time": 187197, "pitch": 40, "duration": 10, "velocity": 100}, {"time": 187558, "pitch": 28, "duration": 10, "velocity": 60}, {"time": 187799, "pitch": 28, "duration": 10, "velocity": 60}, {"time": 188160, "pitch": 40, "duration": 10, "velocity": 100}, {"time": 188521, "pitch": 28, "duration": 10, "velocity": 60}, {"time": 189123, "pitch": 40, "duration": 10, "velocity": 100}, {"time": 189484, "pitch": 28, "duration": 10, "velocity": 60}, {"time": 189722, "pitch": 28, "duration": 10, "velocity": 60}, {"time": 190076, "pitch": 40, "duration": 10, "velocity": 100}, {"time": 190437, "pitch": 28, "duration": 10, "velocity": 60}, {"time": 190557, "pitch": 49, "duration": 11, "velocity": 110}, {"time": 191039, "pitch": 40, "duration": 10, "velocity": 100}, {"time": 191400, "pitch": 28, "duration": 10, "velocity": 60}, {"time": 191641, "pitch": 28, "duration": 10, "velocity": 60}, {"time": 192002, "pitch": 40, "duration": 10, "velocity": 100}, {"time": 192363, "pitch": 28, "duration": 10, "velocity": 60}, {"time": 192955, "pitch": 40, "duration": 10, "velocity": 100}, {"time": 193316, "pitch": 28, "duration": 10, "velocity": 60}, {"time": 193557, "pitch": 28, "duration": 10, "velocity": 60}, {"time": 193918, "pitch": 40, "duration": 10, "velocity": 100}, {"time": 194279, "pitch": 28, "duration": 10, "velocity": 60}, {"time": 194881, "pitch": 40, "duration": 10, "velocity": 100}, {"time": 195243, "pitch": 28, "duration": 10, "velocity": 60}, {"time": 195483, "pitch": 28, "duration": 10, "velocity": 60}, {"time": 195844, "pitch": 40, "duration": 10, "velocity": 100}, {"time": 196198, "pitch": 28, "duration": 10, "velocity": 60}, {"time": 196797, "pitch": 40, "duration": 10, "velocity": 100}, {"time": 197158, "pitch": 28, "duration": 10, "velocity": 60}, {"time": 197399, "pitch": 28, "duration": 10, "velocity": 60}, {"time": 197760, "pitch": 40, "duration": 10, "velocity": 100}, {"time": 198122, "pitch": 28, "duration": 10, "velocity": 60}, {"time": 198724, "pitch": 40, "duration": 10, "velocity": 100}, {"time": 199085, "pitch": 28, "duration": 10, "velocity": 60}, {"time": 199323, "pitch": 28, "duration": 10, "velocity": 60}, {"time": 199676, "pitch": 40, "duration": 10, "velocity": 100}, {"time": 200037, "pitch": 28, "duration": 11, "velocity": 60}, {"time": 200639, "pitch": 40, "duration": 11, "velocity": 100}, {"time": 201001, "pitch": 28, "duration": 10, "velocity": 60}, {"time": 201241, "pitch": 28, "duration": 10, "velocity": 60}, {"time": 201603, "pitch": 40, "duration": 10, "velocity": 100}, {"time": 201964, "pitch": 28, "duration": 10, "velocity": 60}, {"time": 202555, "pitch": 40, "duration": 10, "velocity": 100}, {"time": 202917, "pitch": 28, "duration": 10, "velocity": 60}, {"time": 203157, "pitch": 28, "duration": 10, "velocity": 60}, {"time": 203519, "pitch": 40, "duration": 10, "velocity": 100}, {"time": 203880, "pitch": 28, "duration": 10, "velocity": 60}, {"time": 204482, "pitch": 40, "duration": 10, "velocity": 100}, {"time": 204843, "pitch": 28, "duration": 10, "velocity": 60}, {"time": 205084, "pitch": 28, "duration": 10, "velocity": 60}, {"time": 205445, "pitch": 40, "duration": 10, "velocity": 100}, {"time": 205798, "pitch": 28, "duration": 10, "velocity": 60}, {"time": 205916, "pitch": 49, "duration": 10, "velocity": 110}, {"time": 206398, "pitch": 40, "duration": 10, "velocity": 100}, {"time": 206759, "pitch": 28, "duration": 10, "velocity": 60}, {"time": 207000, "pitch": 28, "duration": 10, "velocity": 60}, {"time": 207361, "pitch": 40, "duration": 10, "velocity": 100}, {"time": 207722, "pitch": 28, "duration": 10, "velocity": 60}, {"time": 208324, "pitch": 40, "duration": 10, "velocity": 100}, {"time": 208677, "pitch": 28, "duration": 10, "velocity": 60}, {"time": 208916, "pitch": 28, "duration": 10, "velocity": 60}, {"time": 209277, "pitch": 40, "duration": 10, "velocity": 100}, {"time": 209638, "pitch": 28, "duration": 10, "velocity": 60}, {"time": 210240, "pitch": 40, "duration": 10, "velocity": 100}, {"time": 210601, "pitch": 28, "duration": 10, "velocity": 60}, {"time": 210842, "pitch": 28, "duration": 10, "velocity": 60}, {"time": 211203, "pitch": 40, "duration": 10, "velocity": 100}, {"time": 211564, "pitch": 28, "duration": 10, "velocity": 60}, {"time": 212156, "pitch": 40, "duration": 10, "velocity": 100}, {"time": 212517, "pitch": 28, "duration": 10, "velocity": 60}, {"time": 212758, "pitch": 28, "duration": 10, "velocity": 60}, {"time": 213119, "pitch": 40, "duration": 10, "velocity": 100}, {"time": 213480, "pitch": 28, "duration": 10, "velocity": 60}, {"time": 214082, "pitch": 40, "duration": 10, "velocity": 100}, {"time": 214443, "pitch": 28, "duration": 10, "velocity": 60}, {"time": 214681, "pitch": 28, "duration": 10, "velocity": 60}, {"time": 215035, "pitch": 40, "duration": 10, "velocity": 100}, {"time": 215396, "pitch": 28, "duration": 10, "velocity": 60}, {"time": 215998, "pitch": 40, "duration": 10, "velocity": 100}, {"time": 216359, "pitch": 28, "duration": 10, "velocity": 60}, {"time": 216600, "pitch": 28, "duration": 10, "velocity": 60}, {"time": 216961, "pitch": 40, "duration": 10, "velocity": 100}, {"time": 217322, "pitch": 28, "duration": 10, "velocity": 60}, {"time": 217924, "pitch": 40, "duration": 10, "velocity": 100}, {"time": 218278, "pitch": 28, "duration": 10, "velocity": 60}, {"time": 218516, "pitch": 28, "duration": 10, "velocity": 60}, {"time": 218877, "pitch": 40, "duration": 10, "velocity": 100}, {"time": 219238, "pitch": 28, "duration": 10, "velocity": 60}, {"time": 219840, "pitch": 40, "duration": 10, "velocity": 100}, {"time": 220201, "pitch": 28, "duration": 10, "velocity": 60}, {"time": 220442, "pitch": 28, "duration": 10, "velocity": 60}, {"time": 220803, "pitch": 40, "duration": 10, "velocity": 100}, {"time": 221165, "pitch": 28, "duration": 10, "velocity": 60}, {"time": 221285, "pitch": 49, "duration": 10, "velocity": 110}, {"time": 221756, "pitch": 40, "duration": 10, "velocity": 100}, {"time": 222117, "pitch": 28, "duration": 10, "velocity": 60}, {"time": 222358, "pitch": 28, "duration": 10, "velocity": 60}, {"time": 222719, "pitch": 40, "duration": 10, "velocity": 100}, {"time": 223081, "pitch": 28, "duration": 10, "velocity": 60}, {"time": 223683, "pitch": 40, "duration": 10, "velocity": 100}, {"time": 224044, "pitch": 28, "duration": 10, "velocity": 60}, {"time": 224282, "pitch": 28, "duration": 10, "velocity": 60}, {"time": 224635, "pitch": 40, "duration": 10, "velocity": 100}, {"time": 224996, "pitch": 28, "duration": 10, "velocity": 60}, {"time": 225598, "pitch": 40, "duration": 10, "velocity": 100}, {"time": 225960, "pitch": 28, "duration": 10, "velocity": 60}, {"time": 226200, "pitch": 28, "duration": 10, "velocity": 60}, {"time": 226562, "pitch": 40, "duration": 10, "velocity": 100}, {"time": 226923, "pitch": 28, "duration": 10, "velocity": 60}, {"time": 227525, "pitch": 40, "duration": 9, "velocity": 100}, {"time": 227878, "pitch": 28, "duration": 10, "velocity": 60}, {"time": 228116, "pitch": 28, "duration": 10, "velocity": 60}, {"time": 228116, "pitch": 50, "duration": 10, "velocity": 100}, {"time": 228357, "pitch": 47, "duration": 10, "velocity": 100}, {"time": 228417, "pitch": 47, "duration": 10, "velocity": 100}, {"time": 228477, "pitch": 40, "duration": 11, "velocity": 100}, {"time": 228477, "pitch": 45, "duration": 11, "velocity": 100}, {"time": 228598, "pitch": 45, "duration": 10, "velocity": 100}, {"time": 228718, "pitch": 41, "duration": 10, "velocity": 100}, {"time": 228839, "pitch": 28, "duration": 10, "velocity": 60}, {"time": 228959, "pitch": 57, "duration": 10, "velocity": 110}, {"time": 229441, "pitch": 40, "duration": 10, "velocity": 100}, {"time": 229802, "pitch": 28, "duration": 10, "velocity": 60}, {"time": 230043, "pitch": 28, "duration": 10, "velocity": 60}, {"time": 230404, "pitch": 40, "duration": 10, "velocity": 100}, {"time": 230757, "pitch": 28, "duration": 10, "velocity": 60}, {"time": 231357, "pitch": 40, "duration": 10, "velocity": 100}, {"time": 231718, "pitch": 28, "duration": 10, "velocity": 60}, {"time": 231959, "pitch": 28, "duration": 10, "velocity": 60}, {"time": 232320, "pitch": 40, "duration": 10, "velocity": 100}, {"time": 232681, "pitch": 28, "duration": 10, "velocity": 60}, {"time": 233283, "pitch": 40, "duration": 10, "velocity": 100}, {"time": 233644, "pitch": 28, "duration": 10, "velocity": 60}, {"time": 233882, "pitch": 28, "duration": 10, "velocity": 60}, {"time": 234236, "pitch": 40, "duration": 10, "velocity": 100}, {"time": 234597, "pitch": 28, "duration": 10, "velocity": 60}, {"time": 235199, "pitch": 40, "duration": 10, "velocity": 100}, {"time": 235560, "pitch": 28, "duration": 10, "velocity": 60}, {"time": 235801, "pitch": 28, "duration": 10, "velocity": 60}, {"time": 236162, "pitch": 40, "duration": 10, "velocity": 100}, {"time": 236523, "pitch": 28, "duration": 10, "velocity": 60}, {"time": 236644, "pitch": 49, "duration": 10, "velocity": 110}, {"time": 237125, "pitch": 40, "duration": 10, "velocity": 100}, {"time": 237479, "pitch": 28, "duration": 9, "velocity": 60}, {"time": 237717, "pitch": 28, "duration": 10, "velocity": 60}, {"time": 238078, "pitch": 40, "duration": 10, "velocity": 100}, {"time": 238439, "pitch": 28, "duration": 10, "velocity": 60}, {"time": 239041, "pitch": 40, "duration": 10, "velocity": 100}, {"time": 239402, "pitch": 28, "duration": 10, "velocity": 60}, {"time": 239643, "pitch": 28, "duration": 10, "velocity": 60}, {"time": 240004, "pitch": 40, "duration": 10, "velocity": 100}, {"time": 240358, "pitch": 28, "duration": 9, "velocity": 60}, {"time": 240957, "pitch": 40, "duration": 10, "velocity": 100}, {"time": 241318, "pitch": 28, "duration": 10, "velocity": 60}, {"time": 241559, "pitch": 28, "duration": 10, "velocity": 60}, {"time": 241920, "pitch": 40, "duration": 10, "velocity": 100}, {"time": 242281, "pitch": 28, "duration": 10, "velocity": 60}, {"time": 242883, "pitch": 40, "duration": 10, "velocity": 100}, {"time": 243244, "pitch": 28, "duration": 11, "velocity": 60}, {"time": 243483, "pitch": 28, "duration": 9, "velocity": 60}, {"time": 243483, "pitch": 50, "duration": 9, "velocity": 100}, {"time": 243718, "pitch": 47, "duration": 10, "velocity": 100}, {"time": 243777, "pitch": 47, "duration": 10, "velocity": 100}, {"time": 243836, "pitch": 40, "duration": 10, "velocity": 100}, {"time": 243836, "pitch": 45, "duration": 10, "velocity": 100}, {"time": 243956, "pitch": 45, "duration": 10, "velocity": 100}, {"time": 244077, "pitch": 41, "duration": 10, "velocity": 100}, {"time": 244197, "pitch": 28, "duration": 10, "velocity": 60}, {"time": 244318, "pitch": 57, "duration": 10, "velocity": 110}, {"time": 244799, "pitch": 40, "duration": 10, "velocity": 100}, {"time": 245160, "pitch": 28, "duration": 10, "velocity": 60}, {"time": 245401, "pitch": 28, "duration": 10, "velocity": 60}, {"time": 245762, "pitch": 40, "duration": 10, "velocity": 100}, {"time": 246124, "pitch": 28, "duration": 10, "velocity": 60}, {"time": 246715, "pitch": 40, "duration": 10, "velocity": 100}, {"time": 247076, "pitch": 28, "duration": 10, "velocity": 60}, {"time": 247317, "pitch": 28, "duration": 10, "velocity": 60}, {"time": 247678, "pitch": 40, "duration": 10, "velocity": 100}, {"time": 248039, "pitch": 28, "duration": 11, "velocity": 60}, {"time": 248641, "pitch": 40, "duration": 10, "velocity": 100}, {"time": 249003, "pitch": 28, "duration": 10, "velocity": 60}, {"time": 249243, "pitch": 28, "duration": 10, "velocity": 60}, {"time": 249605, "pitch": 40, "duration": 9, "velocity": 100}, {"time": 249958, "pitch": 28, "duration": 10, "velocity": 60}, {"time": 250557, "pitch": 40, "duration": 10, "velocity": 100}, {"time": 250919, "pitch": 28, "duration": 10, "velocity": 60}, {"time": 251159, "pitch": 28, "duration": 10, "velocity": 60}, {"time": 251521, "pitch": 40, "duration": 10, "velocity": 100}, {"time": 251882, "pitch": 28, "duration": 10, "velocity": 60}, {"time": 252002, "pitch": 49, "duration": 10, "velocity": 110}, {"time": 252484, "pitch": 40, "duration": 9, "velocity": 100}, {"time": 252837, "pitch": 28, "duration": 10, "velocity": 60}, {"time": 253075, "pitch": 28, "duration": 10, "velocity": 60}, {"time": 253436, "pitch": 40, "duration": 10, "velocity": 100}, {"time": 253798, "pitch": 28, "duration": 10, "velocity": 60}, {"time": 254400, "pitch": 40, "duration": 10, "velocity": 100}, {"time": 254761, "pitch": 28, "duration": 10, "velocity": 60}, {"time": 255002, "pitch": 28, "duration": 10, "velocity": 60}, {"time": 255363, "pitch": 40, "duration": 10, "velocity": 100}, {"time": 255724, "pitch": 28, "duration": 10, "velocity": 60}, {"time": 256316, "pitch": 40, "duration": 10, "velocity": 100}, {"time": 256677, "pitch": 28, "duration": 10, "velocity": 60}, {"time": 256917, "pitch": 28, "duration": 11, "velocity": 60}, {"time": 257279, "pitch": 40, "duration": 10, "velocity": 100}, {"time": 257640, "pitch": 28, "duration": 10, "velocity": 60}, {"time": 258242, "pitch": 40, "duration": 10, "velocity": 100}, {"time": 258603, "pitch": 28, "duration": 10, "velocity": 60}, {"time": 258844, "pitch": 28, "duration": 10, "velocity": 60}, {"time": 258844, "pitch": 50, "duration": 10, "velocity": 100}, {"time": 259085, "pitch": 47, "duration": 10, "velocity": 100}, {"time": 259145, "pitch": 47, "duration": 10, "velocity": 100}, {"time": 259205, "pitch": 40, "duration": 10, "velocity": 100}, {"time": 259205, "pitch": 45, "duration": 10, "velocity": 100}, {"time": 259323, "pitch": 45, "duration": 10, "velocity": 100}, {"time": 259441, "pitch": 41, "duration": 9, "velocity": 100}, {"time": 259558, "pitch": 28, "duration": 10, "velocity": 60}, {"time": 259676, "pitch": 57, "duration": 10, "velocity": 110}, {"time": 260158, "pitch": 40, "duration": 10, "velocity": 100}, {"time": 260519, "pitch": 28, "duration": 10, "velocity": 60}, {"time": 260760, "pitch": 28, "duration": 10, "velocity": 60}, {"time": 261121, "pitch": 40, "duration": 10, "velocity": 100}, {"time": 261482, "pitch": 28, "duration": 10, "velocity": 60}, {"time": 262084, "pitch": 40, "duration": 10, "velocity": 100}, {"time": 262438, "pitch": 28, "duration": 9, "velocity": 60}, {"time": 262676, "pitch": 28, "duration": 10, "velocity": 60}, {"time": 263037, "pitch": 40, "duration": 10, "velocity": 100}, {"time": 263398, "pitch": 28, "duration": 10, "velocity": 60}, {"time": 264000, "pitch": 40, "duration": 10, "velocity": 100}, {"time": 264361, "pitch": 28, "duration": 10, "velocity": 60}, {"time": 264602, "pitch": 28, "duration": 10, "velocity": 60}, {"time": 264963, "pitch": 40, "duration": 10, "velocity": 100}, {"time": 265324, "pitch": 28, "duration": 10, "velocity": 60}, {"time": 265916, "pitch": 40, "duration": 10, "velocity": 100}, {"time": 266277, "pitch": 28, "duration": 10, "velocity": 60}, {"time": 266518, "pitch": 28, "duration": 10, "velocity": 60}, {"time": 266879, "pitch": 40, "duration": 10, "velocity": 100}, {"time": 267240, "pitch": 28, "duration": 10, "velocity": 60}, {"time": 267361, "pitch": 49, "duration": 10, "velocity": 110}, {"time": 267842, "pitch": 40, "duration": 10, "velocity": 100}, {"time": 268203, "pitch": 28, "duration": 10, "velocity": 60}, {"time": 268442, "pitch": 28, "duration": 9, "velocity": 60}, {"time": 268795, "pitch": 40, "duration": 10, "velocity": 100}, {"time": 269156, "pitch": 28, "duration": 10, "velocity": 60}, {"time": 269758, "pitch": 40, "duration": 10, "velocity": 100}, {"time": 270119, "pitch": 28, "duration": 10, "velocity": 60}, {"time": 270360, "pitch": 28, "duration": 10, "velocity": 60}, {"time": 270721, "pitch": 40, "duration": 10, "velocity": 100}, {"time": 271083, "pitch": 28, "duration": 10, "velocity": 60}, {"time": 271684, "pitch": 40, "duration": 10, "velocity": 100}, {"time": 272038, "pitch": 28, "duration": 10, "velocity": 60}, {"time": 272276, "pitch": 28, "duration": 10, "velocity": 60}, {"time": 272637, "pitch": 40, "duration": 10, "velocity": 100}, {"time": 272998, "pitch": 28, "duration": 10, "velocity": 60}, {"time": 273600, "pitch": 40, "duration": 10, "velocity": 100}, {"time": 273962, "pitch": 28, "duration": 10, "velocity": 60}, {"time": 274202, "pitch": 28, "duration": 10, "velocity": 60}, {"time": 274202, "pitch": 50, "duration": 10, "velocity": 100}, {"time": 274443, "pitch": 47, "duration": 10, "velocity": 100}, {"time": 274503, "pitch": 47, "duration": 10, "velocity": 100}, {"time": 274564, "pitch": 40, "duration": 10, "velocity": 100}, {"time": 274564, "pitch": 45, "duration": 10, "velocity": 100}, {"time": 274684, "pitch": 45, "duration": 10, "velocity": 100}, {"time": 274804, "pitch": 41, "duration": 10, "velocity": 100}, {"time": 274925, "pitch": 28, "duration": 10, "velocity": 60}, {"time": 275045, "pitch": 57, "duration": 10, "velocity": 110}, {"time": 275516, "pitch": 40, "duration": 10, "velocity": 100}, {"time": 275877, "pitch": 28, "duration": 11, "velocity": 60}, {"time": 276118, "pitch": 28, "duration": 10, "velocity": 60}, {"time": 276479, "pitch": 40, "duration": 11, "velocity": 100}, {"time": 276841, "pitch": 28, "duration": 10, "velocity": 60}, {"time": 277443, "pitch": 40, "duration": 10, "velocity": 100}, {"time": 277804, "pitch": 28, "duration": 10, "velocity": 60}, {"time": 278042, "pitch": 28, "duration": 10, "velocity": 60}, {"time": 278395, "pitch": 40, "duration": 10, "velocity": 100}, {"time": 278757, "pitch": 28, "duration": 10, "velocity": 60}, {"time": 279359, "pitch": 40, "duration": 10, "velocity": 100}, {"time": 279720, "pitch": 28, "duration": 10, "velocity": 60}, {"time": 279961, "pitch": 28, "duration": 10, "velocity": 60}, {"time": 280322, "pitch": 40, "duration": 10, "velocity": 100}, {"time": 280683, "pitch": 28, "duration": 10, "velocity": 60}, {"time": 281285, "pitch": 40, "duration": 10, "velocity": 100}, {"time": 281638, "pitch": 28, "duration": 10, "velocity": 60}, {"time": 281876, "pitch": 28, "duration": 10, "velocity": 60}, {"time": 282238, "pitch": 40, "duration": 10, "velocity": 100}, {"time": 282599, "pitch": 28, "duration": 10, "velocity": 60}, {"time": 282719, "pitch": 49, "duration": 10, "velocity": 110}, {"time": 283201, "pitch": 40, "duration": 10, "velocity": 100}, {"time": 283562, "pitch": 28, "duration": 10, "velocity": 60}, {"time": 283803, "pitch": 28, "duration": 10, "velocity": 60}, {"time": 284164, "pitch": 40, "duration": 10, "velocity": 100}, {"time": 284517, "pitch": 28, "duration": 10, "velocity": 60}, {"time": 285117, "pitch": 40, "duration": 10, "velocity": 100}, {"time": 285478, "pitch": 28, "duration": 10, "velocity": 60}, {"time": 285719, "pitch": 28, "duration": 10, "velocity": 60}, {"time": 286080, "pitch": 40, "duration": 10, "velocity": 100}, {"time": 286441, "pitch": 28, "duration": 10, "velocity": 60}, {"time": 287043, "pitch": 40, "duration": 10, "velocity": 100}, {"time": 287404, "pitch": 28, "duration": 10, "velocity": 60}, {"time": 287642, "pitch": 28, "duration": 10, "velocity": 60}, {"time": 287996, "pitch": 40, "duration": 10, "velocity": 100}, {"time": 288357, "pitch": 28, "duration": 10, "velocity": 60}, {"time": 288959, "pitch": 40, "duration": 10, "velocity": 100}, {"time": 289320, "pitch": 28, "duration": 10, "velocity": 60}, {"time": 289561, "pitch": 28, "duration": 10, "velocity": 60}, {"time": 289561, "pitch": 50, "duration": 10, "velocity": 100}, {"time": 289802, "pitch": 47, "duration": 10, "velocity": 100}, {"time": 289862, "pitch": 47, "duration": 10, "velocity": 100}, {"time": 289922, "pitch": 40, "duration": 10, "velocity": 100}, {"time": 289922, "pitch": 45, "duration": 10, "velocity": 100}, {"time": 290043, "pitch": 45, "duration": 10, "velocity": 100}, {"time": 290163, "pitch": 41, "duration": 10, "velocity": 100}, {"time": 290283, "pitch": 28, "duration": 10, "velocity": 60}, {"time": 290404, "pitch": 57, "duration": 9, "velocity": 110}, {"time": 290875, "pitch": 40, "duration": 10, "velocity": 100}, {"time": 291236, "pitch": 28, "duration": 10, "velocity": 60}, {"time": 291477, "pitch": 28, "duration": 10, "velocity": 60}, {"time": 291838, "pitch": 40, "duration": 10, "velocity": 100}, {"time": 292199, "pitch": 28, "duration": 10, "velocity": 60}, {"time": 292801, "pitch": 40, "duration": 10, "velocity": 100}, {"time": 293162, "pitch": 28, "duration": 10, "velocity": 60}, {"time": 293403, "pitch": 28, "duration": 10, "velocity": 60}, {"time": 293764, "pitch": 40, "duration": 10, "velocity": 100}, {"time": 294126, "pitch": 28, "duration": 10, "velocity": 60}, {"time": 294728, "pitch": 40, "duration": 10, "velocity": 100}, {"time": 295089, "pitch": 28, "duration": 10, "velocity": 60}, {"time": 295330, "pitch": 28, "duration": 10, "velocity": 60}, {"time": 295691, "pitch": 40, "duration": 10, "velocity": 100}, {"time": 296052, "pitch": 28, "duration": 10, "velocity": 60}, {"time": 296654, "pitch": 40, "duration": 10, "velocity": 100}, {"time": 297015, "pitch": 28, "duration": 10, "velocity": 60}, {"time": 297256, "pitch": 28, "duration": 10, "velocity": 60}, {"time": 297617, "pitch": 40, "duration": 10, "velocity": 100}, {"time": 297978, "pitch": 28, "duration": 10, "velocity": 60}, {"time": 85681, "pitch": 52, "duration": 59, "velocity": 85}, {"time": 85681, "pitch": 64, "duration": 59, "velocity": 90}, {"time": 85681, "pitch": 76, "duration": 59, "velocity": 95}, {"time": 85759, "pitch": 57, "duration": 59, "velocity": 90}, {"time": 85759, "pitch": 69, "duration": 59, "velocity": 95}, {"time": 85759, "pitch": 81, "duration": 59, "velocity": 100}, {"time": 85838, "pitch": 61, "duration": 59, "velocity": 95}, {"time": 85838, "pitch": 73, "duration": 59, "velocity": 100}, {"time": 85838, "pitch": 85, "duration": 59, "velocity": 105}, {"time": 85916, "pitch": 64, "duration": 61, "velocity": 100}, {"time": 85916, "pitch": 76, "duration": 61, "velocity": 105}, {"time": 85916, "pitch": 88, "duration": 61, "velocity": 110}, {"time": 86157, "pitch": 61, "duration": 60, "velocity": 95}, {"time": 86157, "pitch": 73, "duration": 60, "velocity": 100}, {"time": 86157, "pitch": 85, "duration": 60, "velocity": 105}, {"time": 86398, "pitch": 57, "duration": 60, "velocity": 100}, {"time": 86398, "pitch": 69, "duration": 60, "velocity": 105}, {"time": 86398, "pitch": 81, "duration": 60, "velocity": 110}, {"time": 86639, "pitch": 52, "duration": 60, "velocity": 95}, {"time": 86639, "pitch": 64, "duration": 60, "velocity": 100}, {"time": 86639, "pitch": 76, "duration": 60, "velocity": 105}, {"time": 91803, "pitch": 50, "duration": 108, "velocity": 80}, {"time": 91803, "pitch": 62, "duration": 108, "velocity": 85}, {"time": 91920, "pitch": 52, "duration": 108, "velocity": 83}, {"time": 91920, "pitch": 64, "duration": 108, "velocity": 88}, {"time": 92038, "pitch": 54, "duration": 108, "velocity": 86}, {"time": 92038, "pitch": 66, "duration": 108, "velocity": 91}, {"time": 92156, "pitch": 55, "duration": 70, "velocity": 89}, {"time": 92156, "pitch": 67, "duration": 70, "velocity": 94}, {"time": 92236, "pitch": 57, "duration": 71, "velocity": 91}, {"time": 92236, "pitch": 69, "duration": 71, "velocity": 96}, {"time": 92317, "pitch": 59, "duration": 70, "velocity": 93}, {"time": 92317, "pitch": 71, "duration": 70, "velocity": 98}, {"time": 92397, "pitch": 60, "duration": 50, "velocity": 95}, {"time": 92397, "pitch": 72, "duration": 50, "velocity": 100}, {"time": 92457, "pitch": 62, "duration": 50, "velocity": 97}, {"time": 92457, "pitch": 74, "duration": 50, "velocity": 102}, {"time": 92517, "pitch": 64, "duration": 50, "velocity": 98}, {"time": 92517, "pitch": 76, "duration": 50, "velocity": 103}, {"time": 92577, "pitch": 66, "duration": 51, "velocity": 100}, {"time": 92577, "pitch": 78, "duration": 51, "velocity": 105}, {"time": 92638, "pitch": 47, "duration": 230, "velocity": 95}, {"time": 92638, "pitch": 64, "duration": 230, "velocity": 100}, {"time": 92638, "pitch": 71, "duration": 230, "velocity": 105}, {"time": 92638, "pitch": 79, "duration": 230, "velocity": 110}, {"time": 92999, "pitch": 47, "duration": 231, "velocity": 95}, {"time": 92999, "pitch": 64, "duration": 231, "velocity": 100}, {"time": 92999, "pitch": 71, "duration": 231, "velocity": 105}, {"time": 92999, "pitch": 79, "duration": 231, "velocity": 110}, {"time": 93360, "pitch": 47, "duration": 110, "velocity": 90}, {"time": 93360, "pitch": 64, "duration": 110, "velocity": 95}, {"time": 93360, "pitch": 71, "duration": 110, "velocity": 100}, {"time": 93360, "pitch": 78, "duration": 110, "velocity": 105}, {"time": 93601, "pitch": 47, "duration": 231, "velocity": 95}, {"time": 93601, "pitch": 63, "duration": 231, "velocity": 100}, {"time": 93601, "pitch": 71, "duration": 231, "velocity": 105}, {"time": 93601, "pitch": 78, "duration": 231, "velocity": 110}, {"time": 149036, "pitch": 52, "duration": 60, "velocity": 85}, {"time": 149036, "pitch": 64, "duration": 60, "velocity": 90}, {"time": 149036, "pitch": 76, "duration": 60, "velocity": 95}, {"time": 149116, "pitch": 57, "duration": 61, "velocity": 90}, {"time": 149116, "pitch": 69, "duration": 61, "velocity": 95}, {"time": 149116, "pitch": 81, "duration": 61, "velocity": 100}, {"time": 149197, "pitch": 61, "duration": 60, "velocity": 95}, {"time": 149197, "pitch": 73, "duration": 60, "velocity": 100}, {"time": 149197, "pitch": 85, "duration": 60, "velocity": 105}, {"time": 149277, "pitch": 64, "duration": 60, "velocity": 100}, {"time": 149277, "pitch": 76, "duration": 60, "velocity": 105}, {"time": 149277, "pitch": 88, "duration": 60, "velocity": 110}, {"time": 149518, "pitch": 61, "duration": 60, "velocity": 95}, {"time": 149518, "pitch": 73, "duration": 60, "velocity": 100}, {"time": 149518, "pitch": 85, "duration": 60, "velocity": 105}, {"time": 149758, "pitch": 57, "duration": 61, "velocity": 100}, {"time": 149758, "pitch": 69, "duration": 61, "velocity": 105}, {"time": 149758, "pitch": 81, "duration": 61, "velocity": 110}, {"time": 149999, "pitch": 52, "duration": 60, "velocity": 95}, {"time": 149999, "pitch": 64, "duration": 60, "velocity": 100}, {"time": 149999, "pitch": 76, "duration": 60, "velocity": 105}, {"time": 155155, "pitch": 50, "duration": 111, "velocity": 80}, {"time": 155155, "pitch": 62, "duration": 111, "velocity": 85}, {"time": 155276, "pitch": 52, "duration": 110, "velocity": 83}, {"time": 155276, "pitch": 64, "duration": 110, "velocity": 88}, {"time": 155396, "pitch": 54, "duration": 111, "velocity": 86}, {"time": 155396, "pitch": 66, "duration": 111, "velocity": 91}, {"time": 155517, "pitch": 55, "duration": 70, "velocity": 89}, {"time": 155517, "pitch": 67, "duration": 70, "velocity": 94}, {"time": 155597, "pitch": 57, "duration": 70, "velocity": 91}, {"time": 155597, "pitch": 69, "duration": 70, "velocity": 96}, {"time": 155677, "pitch": 59, "duration": 70, "velocity": 93}, {"time": 155677, "pitch": 71, "duration": 70, "velocity": 98}, {"time": 155757, "pitch": 60, "duration": 51, "velocity": 95}, {"time": 155757, "pitch": 72, "duration": 51, "velocity": 100}, {"time": 155818, "pitch": 62, "duration": 50, "velocity": 97}, {"time": 155818, "pitch": 74, "duration": 50, "velocity": 102}, {"time": 155878, "pitch": 64, "duration": 50, "velocity": 98}, {"time": 155878, "pitch": 76, "duration": 50, "velocity": 103}, {"time": 155938, "pitch": 66, "duration": 50, "velocity": 100}, {"time": 155938, "pitch": 78, "duration": 50, "velocity": 105}, {"time": 155998, "pitch": 47, "duration": 231, "velocity": 95}, {"time": 155998, "pitch": 64, "duration": 231, "velocity": 100}, {"time": 155998, "pitch": 71, "duration": 231, "velocity": 105}, {"time": 155998, "pitch": 79, "duration": 231, "velocity": 110}, {"time": 156359, "pitch": 47, "duration": 231, "velocity": 95}, {"time": 156359, "pitch": 64, "duration": 231, "velocity": 100}, {"time": 156359, "pitch": 71, "duration": 231, "velocity": 105}, {"time": 156359, "pitch": 79, "duration": 231, "velocity": 110}, {"time": 156721, "pitch": 47, "duration": 110, "velocity": 90}, {"time": 156721, "pitch": 64, "duration": 110, "velocity": 95}, {"time": 156721, "pitch": 71, "duration": 110, "velocity": 100}, {"time": 156721, "pitch": 78, "duration": 110, "velocity": 105}, {"time": 156961, "pitch": 47, "duration": 231, "velocity": 95}, {"time": 156961, "pitch": 63, "duration": 231, "velocity": 100}, {"time": 156961, "pitch": 71, "duration": 231, "velocity": 105}, {"time": 156961, "pitch": 78, "duration": 231, "velocity": 110}, {"time": 190568, "pitch": 69, "duration": 1063, "velocity": 100}, {"time": 191761, "pitch": 66, "duration": 281, "velocity": 85}, {"time": 191771, "pitch": 69, "duration": 281, "velocity": 75}, {"time": 192123, "pitch": 66, "duration": 281, "velocity": 80}, {"time": 192133, "pitch": 69, "duration": 281, "velocity": 70}, {"time": 192494, "pitch": 66, "duration": 275, "velocity": 85}, {"time": 192503, "pitch": 69, "duration": 275, "velocity": 75}, {"time": 192847, "pitch": 66, "duration": 279, "velocity": 85}, {"time": 192857, "pitch": 69, "duration": 279, "velocity": 75}, {"time": 193206, "pitch": 66, "duration": 221, "velocity": 80}, {"time": 193216, "pitch": 69, "duration": 221, "velocity": 70}, {"time": 193447, "pitch": 66, "duration": 281, "velocity": 85}, {"time": 193457, "pitch": 69, "duration": 281, "velocity": 75}, {"time": 193808, "pitch": 66, "duration": 281, "velocity": 85}, {"time": 193818, "pitch": 69, "duration": 281, "velocity": 75}, {"time": 194169, "pitch": 66, "duration": 221, "velocity": 80}, {"time": 194179, "pitch": 69, "duration": 221, "velocity": 70}, {"time": 262320, "pitch": 71, "duration": 717, "velocity": 115}, {"time": 478, "pitch": 55, "duration": 951, "velocity": 100}, {"time": 478, "pitch": 62, "duration": 951, "velocity": 75}, {"time": 478, "pitch": 67, "duration": 951, "velocity": 80}, {"time": 478, "pitch": 71, "duration": 951, "velocity": 85}, {"time": 1439, "pitch": 57, "duration": 953, "velocity": 100}, {"time": 1439, "pitch": 64, "duration": 953, "velocity": 75}, {"time": 1439, "pitch": 69, "duration": 953, "velocity": 80}, {"time": 1439, "pitch": 73, "duration": 953, "velocity": 85}, {"time": 2402, "pitch": 54, "duration": 943, "velocity": 100}, {"time": 2402, "pitch": 64, "duration": 943, "velocity": 75}, {"time": 2402, "pitch": 69, "duration": 943, "velocity": 80}, {"time": 2402, "pitch": 73, "duration": 943, "velocity": 85}, {"time": 3355, "pitch": 47, "duration": 953, "velocity": 100}, {"time": 3355, "pitch": 66, "duration": 953, "velocity": 75}, {"time": 3355, "pitch": 69, "duration": 953, "velocity": 80}, {"time": 3355, "pitch": 74, "duration": 953, "velocity": 85}, {"time": 4318, "pitch": 52, "duration": 953, "velocity": 100}, {"time": 4318, "pitch": 62, "duration": 953, "velocity": 75}, {"time": 4318, "pitch": 67, "duration": 953, "velocity": 80}, {"time": 4318, "pitch": 71, "duration": 953, "velocity": 85}, {"time": 5281, "pitch": 54, "duration": 953, "velocity": 100}, {"time": 5281, "pitch": 64, "duration": 953, "velocity": 75}, {"time": 5281, "pitch": 69, "duration": 953, "velocity": 80}, {"time": 5281, "pitch": 73, "duration": 953, "velocity": 85}, {"time": 6244, "pitch": 55, "duration": 943, "velocity": 100}, {"time": 6244, "pitch": 66, "duration": 943, "velocity": 75}, {"time": 6244, "pitch": 71, "duration": 943, "velocity": 80}, {"time": 6244, "pitch": 74, "duration": 943, "velocity": 85}, {"time": 7197, "pitch": 57, "duration": 953, "velocity": 100}, {"time": 7197, "pitch": 69, "duration": 953, "velocity": 75}, {"time": 7197, "pitch": 73, "duration": 953, "velocity": 80}, {"time": 7197, "pitch": 76, "duration": 953, "velocity": 85}, {"time": 8160, "pitch": 55, "duration": 954, "velocity": 100}, {"time": 8160, "pitch": 62, "duration": 954, "velocity": 75}, {"time": 8160, "pitch": 67, "duration": 954, "velocity": 80}, {"time": 8160, "pitch": 71, "duration": 954, "velocity": 85}, {"time": 9124, "pitch": 57, "duration": 943, "velocity": 100}, {"time": 9124, "pitch": 64, "duration": 943, "velocity": 75}, {"time": 9124, "pitch": 69, "duration": 943, "velocity": 80}, {"time": 9124, "pitch": 73, "duration": 943, "velocity": 85}, {"time": 10076, "pitch": 54, "duration": 953, "velocity": 100}, {"time": 10076, "pitch": 64, "duration": 953, "velocity": 75}, {"time": 10076, "pitch": 69, "duration": 953, "velocity": 80}, {"time": 10076, "pitch": 73, "duration": 953, "velocity": 85}, {"time": 11039, "pitch": 47, "duration": 954, "velocity": 100}, {"time": 11039, "pitch": 66, "duration": 954, "velocity": 75}, {"time": 11039, "pitch": 69, "duration": 954, "velocity": 80}, {"time": 11039, "pitch": 74, "duration": 954, "velocity": 85}, {"time": 12003, "pitch": 55, "duration": 943, "velocity": 100}, {"time": 12003, "pitch": 66, "duration": 943, "velocity": 75}, {"time": 12003, "pitch": 71, "duration": 943, "velocity": 80}, {"time": 12003, "pitch": 74, "duration": 943, "velocity": 85}, {"time": 12955, "pitch": 54, "duration": 954, "velocity": 100}, {"time": 12955, "pitch": 64, "duration": 954, "velocity": 75}, {"time": 12955, "pitch": 69, "duration": 954, "velocity": 80}, {"time": 12955, "pitch": 73, "duration": 954, "velocity": 85}, {"time": 13919, "pitch": 52, "duration": 1916, "velocity": 100}, {"time": 13919, "pitch": 62, "duration": 1916, "velocity": 75}, {"time": 13919, "pitch": 68, "duration": 1916, "velocity": 80}, {"time": 13919, "pitch": 71, "duration": 1916, "velocity": 85}, {"time": 15845, "pitch": 55, "duration": 943, "velocity": 100}, {"time": 15845, "pitch": 62, "duration": 943, "velocity": 75}, {"time": 15845, "pitch": 67, "duration": 943, "velocity": 80}, {"time": 15845, "pitch": 71, "duration": 943, "velocity": 85}, {"time": 16798, "pitch": 57, "duration": 953, "velocity": 100}, {"time": 16798, "pitch": 64, "duration": 953, "velocity": 75}, {"time": 16798, "pitch": 69, "duration": 953, "velocity": 80}, {"time": 16798, "pitch": 73, "duration": 953, "velocity": 85}, {"time": 17761, "pitch": 54, "duration": 953, "velocity": 100}, {"time": 17761, "pitch": 64, "duration": 953, "velocity": 75}, {"time": 17761, "pitch": 69, "duration": 953, "velocity": 80}, {"time": 17761, "pitch": 73, "duration": 953, "velocity": 85}, {"time": 18724, "pitch": 47, "duration": 943, "velocity": 100}, {"time": 18724, "pitch": 66, "duration": 943, "velocity": 75}, {"time": 18724, "pitch": 69, "duration": 943, "velocity": 80}, {"time": 18724, "pitch": 74, "duration": 943, "velocity": 85}, {"time": 19677, "pitch": 52, "duration": 953, "velocity": 100}, {"time": 19677, "pitch": 62, "duration": 953, "velocity": 75}, {"time": 19677, "pitch": 67, "duration": 953, "velocity": 80}, {"time": 19677, "pitch": 71, "duration": 953, "velocity": 85}, {"time": 20640, "pitch": 54, "duration": 953, "velocity": 100}, {"time": 20640, "pitch": 64, "duration": 953, "velocity": 75}, {"time": 20640, "pitch": 69, "duration": 953, "velocity": 80}, {"time": 20640, "pitch": 73, "duration": 953, "velocity": 85}, {"time": 21603, "pitch": 55, "duration": 943, "velocity": 100}, {"time": 21603, "pitch": 66, "duration": 943, "velocity": 75}, {"time": 21603, "pitch": 71, "duration": 943, "velocity": 80}, {"time": 21603, "pitch": 74, "duration": 943, "velocity": 85}, {"time": 22556, "pitch": 57, "duration": 953, "velocity": 100}, {"time": 22556, "pitch": 69, "duration": 953, "velocity": 75}, {"time": 22556, "pitch": 73, "duration": 953, "velocity": 80}, {"time": 22556, "pitch": 76, "duration": 953, "velocity": 85}, {"time": 23519, "pitch": 55, "duration": 953, "velocity": 100}, {"time": 23519, "pitch": 62, "duration": 953, "velocity": 75}, {"time": 23519, "pitch": 67, "duration": 953, "velocity": 80}, {"time": 23519, "pitch": 71, "duration": 953, "velocity": 85}, {"time": 24482, "pitch": 57, "duration": 943, "velocity": 100}, {"time": 24482, "pitch": 64, "duration": 943, "velocity": 75}, {"time": 24482, "pitch": 69, "duration": 943, "velocity": 80}, {"time": 24482, "pitch": 73, "duration": 943, "velocity": 85}, {"time": 25435, "pitch": 54, "duration": 953, "velocity": 100}, {"time": 25435, "pitch": 64, "duration": 953, "velocity": 75}, {"time": 25435, "pitch": 69, "duration": 953, "velocity": 80}, {"time": 25435, "pitch": 73, "duration": 953, "velocity": 85}, {"time": 26398, "pitch": 47, "duration": 953, "velocity": 100}, {"time": 26398, "pitch": 66, "duration": 953, "velocity": 75}, {"time": 26398, "pitch": 69, "duration": 953, "velocity": 80}, {"time": 26398, "pitch": 74, "duration": 953, "velocity": 85}, {"time": 27361, "pitch": 55, "duration": 953, "velocity": 100}, {"time": 27361, "pitch": 66, "duration": 953, "velocity": 75}, {"time": 27361, "pitch": 71, "duration": 953, "velocity": 80}, {"time": 27361, "pitch": 74, "duration": 953, "velocity": 85}, {"time": 28324, "pitch": 54, "duration": 943, "velocity": 100}, {"time": 28324, "pitch": 64, "duration": 943, "velocity": 75}, {"time": 28324, "pitch": 69, "duration": 943, "velocity": 80}, {"time": 28324, "pitch": 73, "duration": 943, "velocity": 85}, {"time": 29277, "pitch": 52, "duration": 3832, "velocity": 100}, {"time": 29277, "pitch": 62, "duration": 3832, "velocity": 75}, {"time": 29277, "pitch": 68, "duration": 3832, "velocity": 80}, {"time": 29277, "pitch": 71, "duration": 3832, "velocity": 85}, {"time": 48478, "pitch": 62, "duration": 3832, "velocity": 80}, {"time": 48478, "pitch": 67, "duration": 3832, "velocity": 90}, {"time": 48478, "pitch": 71, "duration": 3832, "velocity": 100}, {"time": 52320, "pitch": 64, "duration": 3832, "velocity": 80}, {"time": 52320, "pitch": 67, "duration": 3832, "velocity": 90}, {"time": 52320, "pitch": 71, "duration": 3832, "velocity": 100}, {"time": 56162, "pitch": 64, "duration": 3833, "velocity": 80}, {"time": 56162, "pitch": 67, "duration": 3833, "velocity": 90}, {"time": 56162, "pitch": 72, "duration": 3833, "velocity": 100}, {"time": 60005, "pitch": 62, "duration": 1905, "velocity": 80}, {"time": 60005, "pitch": 66, "duration": 1905, "velocity": 90}, {"time": 60005, "pitch": 69, "duration": 1905, "velocity": 100}, {"time": 61921, "pitch": 63, "duration": 1905, "velocity": 80}, {"time": 61921, "pitch": 66, "duration": 1905, "velocity": 90}, {"time": 61921, "pitch": 69, "duration": 1905, "velocity": 100}, {"time": 63836, "pitch": 62, "duration": 3833, "velocity": 80}, {"time": 63836, "pitch": 67, "duration": 3833, "velocity": 90}, {"time": 63836, "pitch": 71, "duration": 3833, "velocity": 100}, {"time": 67679, "pitch": 64, "duration": 3832, "velocity": 80}, {"time": 67679, "pitch": 67, "duration": 3832, "velocity": 90}, {"time": 67679, "pitch": 71, "duration": 3832, "velocity": 100}, {"time": 71521, "pitch": 64, "duration": 3832, "velocity": 80}, {"time": 71521, "pitch": 67, "duration": 3832, "velocity": 90}, {"time": 71521, "pitch": 72, "duration": 3832, "velocity": 100}, {"time": 75363, "pitch": 62, "duration": 1906, "velocity": 80}, {"time": 75363, "pitch": 66, "duration": 1906, "velocity": 90}, {"time": 75363, "pitch": 69, "duration": 1906, "velocity": 100}, {"time": 77279, "pitch": 63, "duration": 1906, "velocity": 80}, {"time": 77279, "pitch": 66, "duration": 1906, "velocity": 90}, {"time": 77279, "pitch": 69, "duration": 1906, "velocity": 100}, {"time": 94564, "pitch": 55, "duration": 943, "velocity": 100}, {"time": 94564, "pitch": 62, "duration": 943, "velocity": 75}, {"time": 94564, "pitch": 67, "duration": 943, "velocity": 80}, {"time": 94564, "pitch": 71, "duration": 943, "velocity": 85}, {"time": 95517, "pitch": 57, "duration": 953, "velocity": 100}, {"time": 95517, "pitch": 64, "duration": 953, "velocity": 75}, {"time": 95517, "pitch": 69, "duration": 953, "velocity": 80}, {"time": 95517, "pitch": 73, "duration": 953, "velocity": 85}, {"time": 96480, "pitch": 54, "duration": 953, "velocity": 100}, {"time": 96480, "pitch": 64, "duration": 953, "velocity": 75}, {"time": 96480, "pitch": 69, "duration": 953, "velocity": 80}, {"time": 96480, "pitch": 73, "duration": 953, "velocity": 85}, {"time": 97443, "pitch": 47, "duration": 943, "velocity": 100}, {"time": 97443, "pitch": 66, "duration": 943, "velocity": 75}, {"time": 97443, "pitch": 69, "duration": 943, "velocity": 80}, {"time": 97443, "pitch": 74, "duration": 943, "velocity": 85}, {"time": 98396, "pitch": 52, "duration": 953, "velocity": 100}, {"time": 98396, "pitch": 62, "duration": 953, "velocity": 75}, {"time": 98396, "pitch": 67, "duration": 953, "velocity": 80}, {"time": 98396, "pitch": 71, "duration": 953, "velocity": 85}, {"time": 99359, "pitch": 54, "duration": 953, "velocity": 100}, {"time": 99359, "pitch": 64, "duration": 953, "velocity": 75}, {"time": 99359, "pitch": 69, "duration": 953, "velocity": 80}, {"time": 99359, "pitch": 73, "duration": 953, "velocity": 85}, {"time": 100322, "pitch": 55, "duration": 943, "velocity": 100}, {"time": 100322, "pitch": 66, "duration": 943, "velocity": 75}, {"time": 100322, "pitch": 71, "duration": 943, "velocity": 80}, {"time": 100322, "pitch": 74, "duration": 943, "velocity": 85}, {"time": 101275, "pitch": 57, "duration": 953, "velocity": 100}, {"time": 101275, "pitch": 69, "duration": 953, "velocity": 75}, {"time": 101275, "pitch": 73, "duration": 953, "velocity": 80}, {"time": 101275, "pitch": 76, "duration": 953, "velocity": 85}, {"time": 102238, "pitch": 55, "duration": 953, "velocity": 100}, {"time": 102238, "pitch": 62, "duration": 953, "velocity": 75}, {"time": 102238, "pitch": 67, "duration": 953, "velocity": 80}, {"time": 102238, "pitch": 71, "duration": 953, "velocity": 85}, {"time": 103201, "pitch": 57, "duration": 953, "velocity": 100}, {"time": 103201, "pitch": 64, "duration": 953, "velocity": 75}, {"time": 103201, "pitch": 69, "duration": 953, "velocity": 80}, {"time": 103201, "pitch": 73, "duration": 953, "velocity": 85}, {"time": 104164, "pitch": 54, "duration": 943, "velocity": 100}, {"time": 104164, "pitch": 64, "duration": 943, "velocity": 75}, {"time": 104164, "pitch": 69, "duration": 943, "velocity": 80}, {"time": 104164, "pitch": 73, "duration": 943, "velocity": 85}, {"time": 105117, "pitch": 47, "duration": 953, "velocity": 100}, {"time": 105117, "pitch": 66, "duration": 953, "velocity": 75}, {"time": 105117, "pitch": 69, "duration": 953, "velocity": 80}, {"time": 105117, "pitch": 74, "duration": 953, "velocity": 85}, {"time": 106080, "pitch": 55, "duration": 953, "velocity": 100}, {"time": 106080, "pitch": 66, "duration": 953, "velocity": 75}, {"time": 106080, "pitch": 71, "duration": 953, "velocity": 80}, {"time": 106080, "pitch": 74, "duration": 953, "velocity": 85}, {"time": 107043, "pitch": 54, "duration": 943, "velocity": 100}, {"time": 107043, "pitch": 64, "duration": 943, "velocity": 75}, {"time": 107043, "pitch": 69, "duration": 943, "velocity": 80}, {"time": 107043, "pitch": 73, "duration": 943, "velocity": 85}, {"time": 107996, "pitch": 52, "duration": 3832, "velocity": 100}, {"time": 107996, "pitch": 62, "duration": 3832, "velocity": 75}, {"time": 107996, "pitch": 68, "duration": 3832, "velocity": 80}, {"time": 107996, "pitch": 71, "duration": 3832, "velocity": 85}, {"time": 127197, "pitch": 62, "duration": 3832, "velocity": 80}, {"time": 127197, "pitch": 67, "duration": 3832, "velocity": 90}, {"time": 127197, "pitch": 71, "duration": 3832, "velocity": 100}, {"time": 131039, "pitch": 64, "duration": 3832, "velocity": 80}, {"time": 131039, "pitch": 67, "duration": 3832, "velocity": 90}, {"time": 131039, "pitch": 71, "duration": 3832, "velocity": 100}, {"time": 134881, "pitch": 64, "duration": 3833, "velocity": 80}, {"time": 134881, "pitch": 67, "duration": 3833, "velocity": 90}, {"time": 134881, "pitch": 72, "duration": 3833, "velocity": 100}, {"time": 138724, "pitch": 62, "duration": 1906, "velocity": 80}, {"time": 138724, "pitch": 66, "duration": 1906, "velocity": 90}, {"time": 138724, "pitch": 69, "duration": 1906, "velocity": 100}, {"time": 140640, "pitch": 63, "duration": 1906, "velocity": 80}, {"time": 140640, "pitch": 66, "duration": 1906, "velocity": 90}, {"time": 140640, "pitch": 69, "duration": 1906, "velocity": 100}, {"time": 157924, "pitch": 55, "duration": 943, "velocity": 100}, {"time": 157924, "pitch": 62, "duration": 943, "velocity": 75}, {"time": 157924, "pitch": 67, "duration": 943, "velocity": 80}, {"time": 157924, "pitch": 71, "duration": 943, "velocity": 85}, {"time": 158877, "pitch": 57, "duration": 953, "velocity": 100}, {"time": 158877, "pitch": 64, "duration": 953, "velocity": 75}, {"time": 158877, "pitch": 69, "duration": 953, "velocity": 80}, {"time": 158877, "pitch": 73, "duration": 953, "velocity": 85}, {"time": 159840, "pitch": 54, "duration": 954, "velocity": 100}, {"time": 159840, "pitch": 64, "duration": 954, "velocity": 75}, {"time": 159840, "pitch": 69, "duration": 954, "velocity": 80}, {"time": 159840, "pitch": 73, "duration": 954, "velocity": 85}, {"time": 160804, "pitch": 47, "duration": 943, "velocity": 100}, {"time": 160804, "pitch": 66, "duration": 943, "velocity": 75}, {"time": 160804, "pitch": 69, "duration": 943, "velocity": 80}, {"time": 160804, "pitch": 74, "duration": 943, "velocity": 85}, {"time": 161756, "pitch": 52, "duration": 953, "velocity": 100}, {"time": 161756, "pitch": 62, "duration": 953, "velocity": 75}, {"time": 161756, "pitch": 67, "duration": 953, "velocity": 80}, {"time": 161756, "pitch": 71, "duration": 953, "velocity": 85}, {"time": 162719, "pitch": 54, "duration": 954, "velocity": 100}, {"time": 162719, "pitch": 64, "duration": 954, "velocity": 75}, {"time": 162719, "pitch": 69, "duration": 954, "velocity": 80}, {"time": 162719, "pitch": 73, "duration": 954, "velocity": 85}, {"time": 163683, "pitch": 55, "duration": 943, "velocity": 100}, {"time": 163683, "pitch": 66, "duration": 943, "velocity": 75}, {"time": 163683, "pitch": 71, "duration": 943, "velocity": 80}, {"time": 163683, "pitch": 74, "duration": 943, "velocity": 85}, {"time": 164635, "pitch": 57, "duration": 954, "velocity": 100}, {"time": 164635, "pitch": 69, "duration": 954, "velocity": 75}, {"time": 164635, "pitch": 73, "duration": 954, "velocity": 80}, {"time": 164635, "pitch": 76, "duration": 954, "velocity": 85}, {"time": 165599, "pitch": 55, "duration": 953, "velocity": 100}, {"time": 165599, "pitch": 62, "duration": 953, "velocity": 75}, {"time": 165599, "pitch": 67, "duration": 953, "velocity": 80}, {"time": 165599, "pitch": 71, "duration": 953, "velocity": 85}, {"time": 166562, "pitch": 57, "duration": 953, "velocity": 100}, {"time": 166562, "pitch": 64, "duration": 953, "velocity": 75}, {"time": 166562, "pitch": 69, "duration": 953, "velocity": 80}, {"time": 166562, "pitch": 73, "duration": 953, "velocity": 85}, {"time": 167525, "pitch": 54, "duration": 943, "velocity": 100}, {"time": 167525, "pitch": 64, "duration": 943, "velocity": 75}, {"time": 167525, "pitch": 69, "duration": 943, "velocity": 80}, {"time": 167525, "pitch": 73, "duration": 943, "velocity": 85}, {"time": 168478, "pitch": 47, "duration": 953, "velocity": 100}, {"time": 168478, "pitch": 66, "duration": 953, "velocity": 75}, {"time": 168478, "pitch": 69, "duration": 953, "velocity": 80}, {"time": 168478, "pitch": 74, "duration": 953, "velocity": 85}, {"time": 169441, "pitch": 55, "duration": 953, "velocity": 100}, {"time": 169441, "pitch": 66, "duration": 953, "velocity": 75}, {"time": 169441, "pitch": 71, "duration": 953, "velocity": 80}, {"time": 169441, "pitch": 74, "duration": 953, "velocity": 85}, {"time": 170404, "pitch": 54, "duration": 943, "velocity": 100}, {"time": 170404, "pitch": 64, "duration": 943, "velocity": 75}, {"time": 170404, "pitch": 69, "duration": 943, "velocity": 80}, {"time": 170404, "pitch": 73, "duration": 943, "velocity": 85}, {"time": 171357, "pitch": 52, "duration": 1916, "velocity": 100}, {"time": 171357, "pitch": 62, "duration": 1916, "velocity": 75}, {"time": 171357, "pitch": 68, "duration": 1916, "velocity": 80}, {"time": 171357, "pitch": 71, "duration": 1916, "velocity": 85}, {"time": 173283, "pitch": 55, "duration": 943, "velocity": 100}, {"time": 173283, "pitch": 62, "duration": 943, "velocity": 75}, {"time": 173283, "pitch": 67, "duration": 943, "velocity": 80}, {"time": 173283, "pitch": 71, "duration": 943, "velocity": 85}, {"time": 174236, "pitch": 57, "duration": 953, "velocity": 100}, {"time": 174236, "pitch": 64, "duration": 953, "velocity": 75}, {"time": 174236, "pitch": 69, "duration": 953, "velocity": 80}, {"time": 174236, "pitch": 73, "duration": 953, "velocity": 85}, {"time": 175199, "pitch": 54, "duration": 953, "velocity": 100}, {"time": 175199, "pitch": 64, "duration": 953, "velocity": 75}, {"time": 175199, "pitch": 69, "duration": 953, "velocity": 80}, {"time": 175199, "pitch": 73, "duration": 953, "velocity": 85}, {"time": 176162, "pitch": 47, "duration": 943, "velocity": 100}, {"time": 176162, "pitch": 66, "duration": 943, "velocity": 75}, {"time": 176162, "pitch": 69, "duration": 943, "velocity": 80}, {"time": 176162, "pitch": 74, "duration": 943, "velocity": 85}, {"time": 177115, "pitch": 52, "duration": 953, "velocity": 100}, {"time": 177115, "pitch": 62, "duration": 953, "velocity": 75}, {"time": 177115, "pitch": 67, "duration": 953, "velocity": 80}, {"time": 177115, "pitch": 71, "duration": 953, "velocity": 85}, {"time": 178078, "pitch": 54, "duration": 953, "velocity": 100}, {"time": 178078, "pitch": 64, "duration": 953, "velocity": 75}, {"time": 178078, "pitch": 69, "duration": 953, "velocity": 80}, {"time": 178078, "pitch": 73, "duration": 953, "velocity": 85}, {"time": 179041, "pitch": 55, "duration": 953, "velocity": 100}, {"time": 179041, "pitch": 66, "duration": 953, "velocity": 75}, {"time": 179041, "pitch": 71, "duration": 953, "velocity": 80}, {"time": 179041, "pitch": 74, "duration": 953, "velocity": 85}, {"time": 180004, "pitch": 57, "duration": 943, "velocity": 100}, {"time": 180004, "pitch": 69, "duration": 943, "velocity": 75}, {"time": 180004, "pitch": 73, "duration": 943, "velocity": 80}, {"time": 180004, "pitch": 76, "duration": 943, "velocity": 85}, {"time": 180957, "pitch": 55, "duration": 953, "velocity": 100}, {"time": 180957, "pitch": 62, "duration": 953, "velocity": 75}, {"time": 180957, "pitch": 67, "duration": 953, "velocity": 80}, {"time": 180957, "pitch": 71, "duration": 953, "velocity": 85}, {"time": 181920, "pitch": 57, "duration": 953, "velocity": 100}, {"time": 181920, "pitch": 64, "duration": 953, "velocity": 75}, {"time": 181920, "pitch": 69, "duration": 953, "velocity": 80}, {"time": 181920, "pitch": 73, "duration": 953, "velocity": 85}, {"time": 182883, "pitch": 54, "duration": 943, "velocity": 100}, {"time": 182883, "pitch": 64, "duration": 943, "velocity": 75}, {"time": 182883, "pitch": 69, "duration": 943, "velocity": 80}, {"time": 182883, "pitch": 73, "duration": 943, "velocity": 85}, {"time": 183836, "pitch": 47, "duration": 953, "velocity": 100}, {"time": 183836, "pitch": 66, "duration": 953, "velocity": 75}, {"time": 183836, "pitch": 69, "duration": 953, "velocity": 80}, {"time": 183836, "pitch": 74, "duration": 953, "velocity": 85}, {"time": 184799, "pitch": 55, "duration": 953, "velocity": 100}, {"time": 184799, "pitch": 66, "duration": 953, "velocity": 75}, {"time": 184799, "pitch": 71, "duration": 953, "velocity": 80}, {"time": 184799, "pitch": 74, "duration": 953, "velocity": 85}, {"time": 185763, "pitch": 54, "duration": 943, "velocity": 100}, {"time": 185763, "pitch": 64, "duration": 943, "velocity": 75}, {"time": 185763, "pitch": 69, "duration": 943, "velocity": 80}, {"time": 185763, "pitch": 73, "duration": 943, "velocity": 85}, {"time": 186715, "pitch": 52, "duration": 3832, "velocity": 100}, {"time": 186715, "pitch": 62, "duration": 3832, "velocity": 75}, {"time": 186715, "pitch": 68, "duration": 3832, "velocity": 80}, {"time": 186715, "pitch": 71, "duration": 3832, "velocity": 85}, {"time": 190557, "pitch": 47, "duration": 3833, "velocity": 100}, {"time": 190557, "pitch": 57, "duration": 3833, "velocity": 75}, {"time": 190557, "pitch": 62, "duration": 3833, "velocity": 80}, {"time": 190557, "pitch": 66, "duration": 3833, "velocity": 85}, {"time": 194400, "pitch": 44, "duration": 3832, "velocity": 100}, {"time": 194400, "pitch": 59, "duration": 3832, "velocity": 75}, {"time": 194400, "pitch": 62, "duration": 3832, "velocity": 80}, {"time": 194400, "pitch": 66, "duration": 3832, "velocity": 85}, {"time": 198242, "pitch": 43, "duration": 3832, "velocity": 100}, {"time": 198242, "pitch": 59, "duration": 3832, "velocity": 75}, {"time": 198242, "pitch": 62, "duration": 3832, "velocity": 80}, {"time": 198242, "pitch": 66, "duration": 3832, "velocity": 85}, {"time": 202084, "pitch": 40, "duration": 1906, "velocity": 100}, {"time": 202084, "pitch": 55, "duration": 1906, "velocity": 75}, {"time": 202084, "pitch": 59, "duration": 1906, "velocity": 80}, {"time": 202084, "pitch": 62, "duration": 1906, "velocity": 85}, {"time": 204000, "pitch": 42, "duration": 1906, "velocity": 100}, {"time": 204000, "pitch": 57, "duration": 1906, "velocity": 75}, {"time": 204000, "pitch": 61, "duration": 1906, "velocity": 80}, {"time": 204000, "pitch": 64, "duration": 1906, "velocity": 85}, {"time": 205916, "pitch": 47, "duration": 3832, "velocity": 100}, {"time": 205916, "pitch": 57, "duration": 3832, "velocity": 75}, {"time": 205916, "pitch": 62, "duration": 3832, "velocity": 80}, {"time": 205916, "pitch": 66, "duration": 3832, "velocity": 85}, {"time": 209758, "pitch": 44, "duration": 3833, "velocity": 100}, {"time": 209758, "pitch": 59, "duration": 3833, "velocity": 75}, {"time": 209758, "pitch": 62, "duration": 3833, "velocity": 80}, {"time": 209758, "pitch": 66, "duration": 3833, "velocity": 85}, {"time": 213601, "pitch": 43, "duration": 3832, "velocity": 100}, {"time": 213601, "pitch": 59, "duration": 3832, "velocity": 75}, {"time": 213601, "pitch": 62, "duration": 3832, "velocity": 80}, {"time": 213601, "pitch": 66, "duration": 3832, "velocity": 85}, {"time": 217443, "pitch": 40, "duration": 1906, "velocity": 100}, {"time": 217443, "pitch": 55, "duration": 1906, "velocity": 75}, {"time": 217443, "pitch": 59, "duration": 1906, "velocity": 80}, {"time": 217443, "pitch": 62, "duration": 1906, "velocity": 85}, {"time": 219359, "pitch": 42, "duration": 1916, "velocity": 100}, {"time": 219359, "pitch": 57, "duration": 1916, "velocity": 75}, {"time": 219359, "pitch": 61, "duration": 1916, "velocity": 80}, {"time": 219359, "pitch": 64, "duration": 1916, "velocity": 85}, {"time": 221285, "pitch": 52, "duration": 943, "velocity": 100}, {"time": 221285, "pitch": 62, "duration": 943, "velocity": 75}, {"time": 221285, "pitch": 67, "duration": 943, "velocity": 80}, {"time": 221285, "pitch": 71, "duration": 943, "velocity": 85}, {"time": 222238, "pitch": 45, "duration": 953, "velocity": 100}, {"time": 222238, "pitch": 64, "duration": 953, "velocity": 75}, {"time": 222238, "pitch": 69, "duration": 953, "velocity": 80}, {"time": 222238, "pitch": 73, "duration": 953, "velocity": 85}, {"time": 223201, "pitch": 54, "duration": 953, "velocity": 100}, {"time": 223201, "pitch": 64, "duration": 953, "velocity": 75}, {"time": 223201, "pitch": 69, "duration": 953, "velocity": 80}, {"time": 223201, "pitch": 73, "duration": 953, "velocity": 85}, {"time": 224164, "pitch": 47, "duration": 943, "velocity": 100}, {"time": 224164, "pitch": 66, "duration": 943, "velocity": 75}, {"time": 224164, "pitch": 69, "duration": 943, "velocity": 80}, {"time": 224164, "pitch": 74, "duration": 943, "velocity": 85}, {"time": 225117, "pitch": 52, "duration": 953, "velocity": 100}, {"time": 225117, "pitch": 62, "duration": 953, "velocity": 75}, {"time": 225117, "pitch": 67, "duration": 953, "velocity": 80}, {"time": 225117, "pitch": 71, "duration": 953, "velocity": 85}, {"time": 226080, "pitch": 54, "duration": 953, "velocity": 100}, {"time": 226080, "pitch": 64, "duration": 953, "velocity": 75}, {"time": 226080, "pitch": 69, "duration": 953, "velocity": 80}, {"time": 226080, "pitch": 73, "duration": 953, "velocity": 85}, {"time": 227043, "pitch": 55, "duration": 943, "velocity": 100}, {"time": 227043, "pitch": 66, "duration": 943, "velocity": 75}, {"time": 227043, "pitch": 71, "duration": 943, "velocity": 80}, {"time": 227043, "pitch": 74, "duration": 943, "velocity": 85}, {"time": 227996, "pitch": 57, "duration": 953, "velocity": 100}, {"time": 227996, "pitch": 69, "duration": 953, "velocity": 75}, {"time": 227996, "pitch": 73, "duration": 953, "velocity": 80}, {"time": 227996, "pitch": 76, "duration": 953, "velocity": 85}, {"time": 228959, "pitch": 52, "duration": 953, "velocity": 100}, {"time": 228959, "pitch": 62, "duration": 953, "velocity": 75}, {"time": 228959, "pitch": 67, "duration": 953, "velocity": 80}, {"time": 228959, "pitch": 71, "duration": 953, "velocity": 85}, {"time": 229922, "pitch": 45, "duration": 943, "velocity": 100}, {"time": 229922, "pitch": 64, "duration": 943, "velocity": 75}, {"time": 229922, "pitch": 69, "duration": 943, "velocity": 80}, {"time": 229922, "pitch": 73, "duration": 943, "velocity": 85}, {"time": 230875, "pitch": 54, "duration": 953, "velocity": 100}, {"time": 230875, "pitch": 64, "duration": 953, "velocity": 75}, {"time": 230875, "pitch": 69, "duration": 953, "velocity": 80}, {"time": 230875, "pitch": 73, "duration": 953, "velocity": 85}, {"time": 231838, "pitch": 47, "duration": 953, "velocity": 100}, {"time": 231838, "pitch": 66, "duration": 953, "velocity": 75}, {"time": 231838, "pitch": 69, "duration": 953, "velocity": 80}, {"time": 231838, "pitch": 74, "duration": 953, "velocity": 85}, {"time": 232801, "pitch": 55, "duration": 953, "velocity": 100}, {"time": 232801, "pitch": 66, "duration": 953, "velocity": 75}, {"time": 232801, "pitch": 71, "duration": 953, "velocity": 80}, {"time": 232801, "pitch": 74, "duration": 953, "velocity": 85}, {"time": 233764, "pitch": 54, "duration": 943, "velocity": 100}, {"time": 233764, "pitch": 64, "duration": 943, "velocity": 75}, {"time": 233764, "pitch": 69, "duration": 943, "velocity": 80}, {"time": 233764, "pitch": 73, "duration": 943, "velocity": 85}, {"time": 234717, "pitch": 52, "duration": 1917, "velocity": 125}, {"time": 234717, "pitch": 62, "duration": 1917, "velocity": 110}, {"time": 234717, "pitch": 68, "duration": 1917, "velocity": 115}, {"time": 234717, "pitch": 71, "duration": 1917, "velocity": 120}, {"time": 236644, "pitch": 55, "duration": 943, "velocity": 100}, {"time": 236644, "pitch": 62, "duration": 943, "velocity": 75}, {"time": 236644, "pitch": 67, "duration": 943, "velocity": 80}, {"time": 236644, "pitch": 71, "duration": 943, "velocity": 85}, {"time": 237596, "pitch": 57, "duration": 953, "velocity": 100}, {"time": 237596, "pitch": 64, "duration": 953, "velocity": 75}, {"time": 237596, "pitch": 69, "duration": 953, "velocity": 80}, {"time": 237596, "pitch": 73, "duration": 953, "velocity": 85}, {"time": 238559, "pitch": 54, "duration": 954, "velocity": 100}, {"time": 238559, "pitch": 64, "duration": 954, "velocity": 75}, {"time": 238559, "pitch": 69, "duration": 954, "velocity": 80}, {"time": 238559, "pitch": 73, "duration": 954, "velocity": 85}, {"time": 239523, "pitch": 47, "duration": 943, "velocity": 100}, {"time": 239523, "pitch": 66, "duration": 943, "velocity": 75}, {"time": 239523, "pitch": 69, "duration": 943, "velocity": 80}, {"time": 239523, "pitch": 74, "duration": 943, "velocity": 85}, {"time": 240475, "pitch": 52, "duration": 954, "velocity": 100}, {"time": 240475, "pitch": 62, "duration": 954, "velocity": 75}, {"time": 240475, "pitch": 67, "duration": 954, "velocity": 80}, {"time": 240475, "pitch": 71, "duration": 954, "velocity": 85}, {"time": 241439, "pitch": 54, "duration": 953, "velocity": 100}, {"time": 241439, "pitch": 64, "duration": 953, "velocity": 75}, {"time": 241439, "pitch": 69, "duration": 953, "velocity": 80}, {"time": 241439, "pitch": 73, "duration": 953, "velocity": 85}, {"time": 242402, "pitch": 55, "duration": 953, "velocity": 100}, {"time": 242402, "pitch": 66, "duration": 953, "velocity": 75}, {"time": 242402, "pitch": 71, "duration": 953, "velocity": 80}, {"time": 242402, "pitch": 74, "duration": 953, "velocity": 85}, {"time": 243365, "pitch": 57, "duration": 943, "velocity": 100}, {"time": 243365, "pitch": 69, "duration": 943, "velocity": 75}, {"time": 243365, "pitch": 73, "duration": 943, "velocity": 80}, {"time": 243365, "pitch": 76, "duration": 943, "velocity": 85}, {"time": 244318, "pitch": 55, "duration": 953, "velocity": 100}, {"time": 244318, "pitch": 62, "duration": 953, "velocity": 75}, {"time": 244318, "pitch": 67, "duration": 953, "velocity": 80}, {"time": 244318, "pitch": 71, "duration": 953, "velocity": 85}, {"time": 245281, "pitch": 57, "duration": 953, "velocity": 100}, {"time": 245281, "pitch": 64, "duration": 953, "velocity": 75}, {"time": 245281, "pitch": 69, "duration": 953, "velocity": 80}, {"time": 245281, "pitch": 73, "duration": 953, "velocity": 85}, {"time": 246244, "pitch": 54, "duration": 943, "velocity": 100}, {"time": 246244, "pitch": 64, "duration": 943, "velocity": 75}, {"time": 246244, "pitch": 69, "duration": 943, "velocity": 80}, {"time": 246244, "pitch": 73, "duration": 943, "velocity": 85}, {"time": 247197, "pitch": 47, "duration": 953, "velocity": 100}, {"time": 247197, "pitch": 66, "duration": 953, "velocity": 75}, {"time": 247197, "pitch": 69, "duration": 953, "velocity": 80}, {"time": 247197, "pitch": 74, "duration": 953, "velocity": 85}, {"time": 248160, "pitch": 55, "duration": 953, "velocity": 100}, {"time": 248160, "pitch": 66, "duration": 953, "velocity": 75}, {"time": 248160, "pitch": 71, "duration": 953, "velocity": 80}, {"time": 248160, "pitch": 74, "duration": 953, "velocity": 85}, {"time": 249123, "pitch": 54, "duration": 943, "velocity": 100}, {"time": 249123, "pitch": 64, "duration": 943, "velocity": 75}, {"time": 249123, "pitch": 69, "duration": 943, "velocity": 80}, {"time": 249123, "pitch": 73, "duration": 943, "velocity": 85}, {"time": 250076, "pitch": 52, "duration": 1916, "velocity": 100}, {"time": 250076, "pitch": 62, "duration": 1916, "velocity": 75}, {"time": 250076, "pitch": 68, "duration": 1916, "velocity": 80}, {"time": 250076, "pitch": 71, "duration": 1916, "velocity": 85}, {"time": 252002, "pitch": 55, "duration": 943, "velocity": 100}, {"time": 252002, "pitch": 62, "duration": 943, "velocity": 75}, {"time": 252002, "pitch": 67, "duration": 943, "velocity": 80}, {"time": 252002, "pitch": 71, "duration": 943, "velocity": 85}, {"time": 252955, "pitch": 57, "duration": 953, "velocity": 100}, {"time": 252955, "pitch": 64, "duration": 953, "velocity": 75}, {"time": 252955, "pitch": 69, "duration": 953, "velocity": 80}, {"time": 252955, "pitch": 73, "duration": 953, "velocity": 85}, {"time": 253918, "pitch": 54, "duration": 953, "velocity": 100}, {"time": 253918, "pitch": 64, "duration": 953, "velocity": 75}, {"time": 253918, "pitch": 69, "duration": 953, "velocity": 80}, {"time": 253918, "pitch": 73, "duration": 953, "velocity": 85}, {"time": 254881, "pitch": 47, "duration": 953, "velocity": 100}, {"time": 254881, "pitch": 66, "duration": 953, "velocity": 75}, {"time": 254881, "pitch": 69, "duration": 953, "velocity": 80}, {"time": 254881, "pitch": 74, "duration": 953, "velocity": 85}, {"time": 255844, "pitch": 52, "duration": 943, "velocity": 100}, {"time": 255844, "pitch": 62, "duration": 943, "velocity": 75}, {"time": 255844, "pitch": 67, "duration": 943, "velocity": 80}, {"time": 255844, "pitch": 71, "duration": 943, "velocity": 85}, {"time": 256797, "pitch": 54, "duration": 953, "velocity": 100}, {"time": 256797, "pitch": 64, "duration": 953, "velocity": 75}, {"time": 256797, "pitch": 69, "duration": 953, "velocity": 80}, {"time": 256797, "pitch": 73, "duration": 953, "velocity": 85}, {"time": 257760, "pitch": 55, "duration": 953, "velocity": 100}, {"time": 257760, "pitch": 66, "duration": 953, "velocity": 75}, {"time": 257760, "pitch": 71, "duration": 953, "velocity": 80}, {"time": 257760, "pitch": 74, "duration": 953, "velocity": 85}, {"time": 258723, "pitch": 57, "duration": 943, "velocity": 100}, {"time": 258723, "pitch": 69, "duration": 943, "velocity": 75}, {"time": 258723, "pitch": 73, "duration": 943, "velocity": 80}, {"time": 258723, "pitch": 76, "duration": 943, "velocity": 85}, {"time": 259676, "pitch": 55, "duration": 953, "velocity": 100}, {"time": 259676, "pitch": 62, "duration": 953, "velocity": 75}, {"time": 259676, "pitch": 67, "duration": 953, "velocity": 80}, {"time": 259676, "pitch": 71, "duration": 953, "velocity": 85}, {"time": 260639, "pitch": 57, "duration": 953, "velocity": 100}, {"time": 260639, "pitch": 64, "duration": 953, "velocity": 75}, {"time": 260639, "pitch": 69, "duration": 953, "velocity": 80}, {"time": 260639, "pitch": 73, "duration": 953, "velocity": 85}, {"time": 261603, "pitch": 54, "duration": 943, "velocity": 100}, {"time": 261603, "pitch": 64, "duration": 943, "velocity": 75}, {"time": 261603, "pitch": 69, "duration": 943, "velocity": 80}, {"time": 261603, "pitch": 73, "duration": 943, "velocity": 85}, {"time": 262555, "pitch": 47, "duration": 953, "velocity": 100}, {"time": 262555, "pitch": 66, "duration": 953, "velocity": 75}, {"time": 262555, "pitch": 69, "duration": 953, "velocity": 80}, {"time": 262555, "pitch": 74, "duration": 953, "velocity": 85}, {"time": 263518, "pitch": 55, "duration": 954, "velocity": 100}, {"time": 263518, "pitch": 66, "duration": 954, "velocity": 75}, {"time": 263518, "pitch": 71, "duration": 954, "velocity": 80}, {"time": 263518, "pitch": 74, "duration": 954, "velocity": 85}, {"time": 264482, "pitch": 54, "duration": 953, "velocity": 100}, {"time": 264482, "pitch": 64, "duration": 953, "velocity": 75}, {"time": 264482, "pitch": 69, "duration": 953, "velocity": 80}, {"time": 264482, "pitch": 73, "duration": 953, "velocity": 85}, {"time": 265445, "pitch": 52, "duration": 1906, "velocity": 100}, {"time": 265445, "pitch": 62, "duration": 1906, "velocity": 75}, {"time": 265445, "pitch": 68, "duration": 1906, "velocity": 80}, {"time": 265445, "pitch": 71, "duration": 1906, "velocity": 85}, {"time": 267361, "pitch": 55, "duration": 953, "velocity": 100}, {"time": 267361, "pitch": 62, "duration": 953, "velocity": 75}, {"time": 267361, "pitch": 67, "duration": 953, "velocity": 80}, {"time": 267361, "pitch": 71, "duration": 953, "velocity": 85}, {"time": 268324, "pitch": 57, "duration": 943, "velocity": 100}, {"time": 268324, "pitch": 64, "duration": 943, "velocity": 75}, {"time": 268324, "pitch": 69, "duration": 943, "velocity": 80}, {"time": 268324, "pitch": 73, "duration": 943, "velocity": 85}, {"time": 269277, "pitch": 54, "duration": 953, "velocity": 100}, {"time": 269277, "pitch": 64, "duration": 953, "velocity": 75}, {"time": 269277, "pitch": 69, "duration": 953, "velocity": 80}, {"time": 269277, "pitch": 73, "duration": 953, "velocity": 85}, {"time": 270240, "pitch": 47, "duration": 953, "velocity": 100}, {"time": 270240, "pitch": 66, "duration": 953, "velocity": 75}, {"time": 270240, "pitch": 69, "duration": 953, "velocity": 80}, {"time": 270240, "pitch": 74, "duration": 953, "velocity": 85}, {"time": 271203, "pitch": 52, "duration": 943, "velocity": 100}, {"time": 271203, "pitch": 62, "duration": 943, "velocity": 75}, {"time": 271203, "pitch": 67, "duration": 943, "velocity": 80}, {"time": 271203, "pitch": 71, "duration": 943, "velocity": 85}, {"time": 272156, "pitch": 54, "duration": 953, "velocity": 100}, {"time": 272156, "pitch": 64, "duration": 953, "velocity": 75}, {"time": 272156, "pitch": 69, "duration": 953, "velocity": 80}, {"time": 272156, "pitch": 73, "duration": 953, "velocity": 85}, {"time": 273119, "pitch": 55, "duration": 953, "velocity": 100}, {"time": 273119, "pitch": 66, "duration": 953, "velocity": 75}, {"time": 273119, "pitch": 71, "duration": 953, "velocity": 80}, {"time": 273119, "pitch": 74, "duration": 953, "velocity": 85}, {"time": 274082, "pitch": 57, "duration": 953, "velocity": 100}, {"time": 274082, "pitch": 69, "duration": 953, "velocity": 75}, {"time": 274082, "pitch": 73, "duration": 953, "velocity": 80}, {"time": 274082, "pitch": 76, "duration": 953, "velocity": 85}, {"time": 275045, "pitch": 55, "duration": 943, "velocity": 100}, {"time": 275045, "pitch": 62, "duration": 943, "velocity": 75}, {"time": 275045, "pitch": 67, "duration": 943, "velocity": 80}, {"time": 275045, "pitch": 71, "duration": 943, "velocity": 85}, {"time": 275998, "pitch": 57, "duration": 953, "velocity": 100}, {"time": 275998, "pitch": 64, "duration": 953, "velocity": 75}, {"time": 275998, "pitch": 69, "duration": 953, "velocity": 80}, {"time": 275998, "pitch": 73, "duration": 953, "velocity": 85}, {"time": 276961, "pitch": 54, "duration": 953, "velocity": 100}, {"time": 276961, "pitch": 64, "duration": 953, "velocity": 75}, {"time": 276961, "pitch": 69, "duration": 953, "velocity": 80}, {"time": 276961, "pitch": 73, "duration": 953, "velocity": 85}, {"time": 277924, "pitch": 47, "duration": 943, "velocity": 100}, {"time": 277924, "pitch": 66, "duration": 943, "velocity": 75}, {"time": 277924, "pitch": 69, "duration": 943, "velocity": 80}, {"time": 277924, "pitch": 74, "duration": 943, "velocity": 85}, {"time": 278877, "pitch": 55, "duration": 953, "velocity": 100}, {"time": 278877, "pitch": 66, "duration": 953, "velocity": 75}, {"time": 278877, "pitch": 71, "duration": 953, "velocity": 80}, {"time": 278877, "pitch": 74, "duration": 953, "velocity": 85}, {"time": 279840, "pitch": 54, "duration": 953, "velocity": 100}, {"time": 279840, "pitch": 64, "duration": 953, "velocity": 75}, {"time": 279840, "pitch": 69, "duration": 953, "velocity": 80}, {"time": 279840, "pitch": 73, "duration": 953, "velocity": 85}, {"time": 280803, "pitch": 52, "duration": 1906, "velocity": 100}, {"time": 280803, "pitch": 62, "duration": 1906, "velocity": 75}, {"time": 280803, "pitch": 68, "duration": 1906, "velocity": 80}, {"time": 280803, "pitch": 71, "duration": 1906, "velocity": 85}, {"time": 282719, "pitch": 55, "duration": 953, "velocity": 100}, {"time": 282719, "pitch": 62, "duration": 953, "velocity": 75}, {"time": 282719, "pitch": 67, "duration": 953, "velocity": 80}, {"time": 282719, "pitch": 71, "duration": 953, "velocity": 85}, {"time": 283682, "pitch": 57, "duration": 943, "velocity": 100}, {"time": 283682, "pitch": 64, "duration": 943, "velocity": 75}, {"time": 283682, "pitch": 69, "duration": 943, "velocity": 80}, {"time": 283682, "pitch": 73, "duration": 943, "velocity": 85}, {"time": 284635, "pitch": 54, "duration": 953, "velocity": 100}, {"time": 284635, "pitch": 64, "duration": 953, "velocity": 75}, {"time": 284635, "pitch": 69, "duration": 953, "velocity": 80}, {"time": 284635, "pitch": 73, "duration": 953, "velocity": 85}, {"time": 285598, "pitch": 47, "duration": 953, "velocity": 100}, {"time": 285598, "pitch": 66, "duration": 953, "velocity": 75}, {"time": 285598, "pitch": 69, "duration": 953, "velocity": 80}, {"time": 285598, "pitch": 74, "duration": 953, "velocity": 85}, {"time": 286561, "pitch": 52, "duration": 954, "velocity": 100}, {"time": 286561, "pitch": 62, "duration": 954, "velocity": 75}, {"time": 286561, "pitch": 67, "duration": 954, "velocity": 80}, {"time": 286561, "pitch": 71, "duration": 954, "velocity": 85}, {"time": 287525, "pitch": 54, "duration": 942, "velocity": 100}, {"time": 287525, "pitch": 64, "duration": 942, "velocity": 75}, {"time": 287525, "pitch": 69, "duration": 942, "velocity": 80}, {"time": 287525, "pitch": 73, "duration": 942, "velocity": 85}, {"time": 288477, "pitch": 55, "duration": 954, "velocity": 100}, {"time": 288477, "pitch": 66, "duration": 954, "velocity": 75}, {"time": 288477, "pitch": 71, "duration": 954, "velocity": 80}, {"time": 288477, "pitch": 74, "duration": 954, "velocity": 85}, {"time": 289441, "pitch": 57, "duration": 953, "velocity": 100}, {"time": 289441, "pitch": 69, "duration": 953, "velocity": 75}, {"time": 289441, "pitch": 73, "duration": 953, "velocity": 80}, {"time": 289441, "pitch": 76, "duration": 953, "velocity": 85}, {"time": 290404, "pitch": 55, "duration": 942, "velocity": 100}, {"time": 290404, "pitch": 62, "duration": 942, "velocity": 75}, {"time": 290404, "pitch": 67, "duration": 942, "velocity": 80}, {"time": 290404, "pitch": 71, "duration": 942, "velocity": 85}, {"time": 291356, "pitch": 57, "duration": 954, "velocity": 100}, {"time": 291356, "pitch": 64, "duration": 954, "velocity": 75}, {"time": 291356, "pitch": 69, "duration": 954, "velocity": 80}, {"time": 291356, "pitch": 73, "duration": 954, "velocity": 85}, {"time": 292320, "pitch": 54, "duration": 953, "velocity": 100}, {"time": 292320, "pitch": 64, "duration": 953, "velocity": 75}, {"time": 292320, "pitch": 69, "duration": 953, "velocity": 80}, {"time": 292320, "pitch": 73, "duration": 953, "velocity": 85}, {"time": 293283, "pitch": 47, "duration": 953, "velocity": 100}, {"time": 293283, "pitch": 66, "duration": 953, "velocity": 75}, {"time": 293283, "pitch": 69, "duration": 953, "velocity": 80}, {"time": 293283, "pitch": 74, "duration": 953, "velocity": 85}, {"time": 294246, "pitch": 55, "duration": 953, "velocity": 100}, {"time": 294246, "pitch": 66, "duration": 953, "velocity": 75}, {"time": 294246, "pitch": 71, "duration": 953, "velocity": 80}, {"time": 294246, "pitch": 74, "duration": 953, "velocity": 85}, {"time": 295209, "pitch": 54, "duration": 953, "velocity": 100}, {"time": 295209, "pitch": 64, "duration": 953, "velocity": 75}, {"time": 295209, "pitch": 69, "duration": 953, "velocity": 80}, {"time": 295209, "pitch": 73, "duration": 953, "velocity": 85}, {"time": 296172, "pitch": 52, "duration": 1917, "velocity": 100}, {"time": 296172, "pitch": 62, "duration": 1917, "velocity": 75}, {"time": 296172, "pitch": 68, "duration": 1917, "velocity": 80}, {"time": 296172, "pitch": 71, "duration": 1917, "velocity": 85}, {"time": 33119, "pitch": 41, "duration": 14406, "velocity": 90}, {"time": 33119, "pitch": 53, "duration": 14406, "velocity": 100}, {"time": 33119, "pitch": 65, "duration": 2869, "velocity": 80}, {"time": 33119, "pitch": 69, "duration": 2869, "velocity": 85}, {"time": 33119, "pitch": 72, "duration": 2869, "velocity": 90}, {"time": 36962, "pitch": 67, "duration": 2869, "velocity": 80}, {"time": 36962, "pitch": 71, "duration": 2869, "velocity": 85}, {"time": 36962, "pitch": 74, "duration": 2869, "velocity": 90}, {"time": 40804, "pitch": 68, "duration": 2869, "velocity": 80}, {"time": 40804, "pitch": 72, "duration": 2869, "velocity": 85}, {"time": 40804, "pitch": 75, "duration": 2869, "velocity": 90}, {"time": 44636, "pitch": 70, "duration": 2889, "velocity": 80}, {"time": 44636, "pitch": 74, "duration": 2889, "velocity": 85}, {"time": 44636, "pitch": 77, "duration": 2889, "velocity": 90}, {"time": 79195, "pitch": 60, "duration": 1435, "velocity": 85}, {"time": 79195, "pitch": 71, "duration": 1435, "velocity": 90}, {"time": 79195, "pitch": 76, "duration": 1435, "velocity": 95}, {"time": 79195, "pitch": 79, "duration": 1435, "velocity": 100}, {"time": 81121, "pitch": 59, "duration": 1425, "velocity": 85}, {"time": 81121, "pitch": 69, "duration": 1425, "velocity": 90}, {"time": 81121, "pitch": 74, "duration": 1425, "velocity": 95}, {"time": 81121, "pitch": 78, "duration": 1425, "velocity": 100}, {"time": 83037, "pitch": 57, "duration": 3351, "velocity": 85}, {"time": 83037, "pitch": 67, "duration": 3351, "velocity": 90}, {"time": 83037, "pitch": 73, "duration": 3351, "velocity": 95}, {"time": 83037, "pitch": 76, "duration": 3351, "velocity": 100}, {"time": 86879, "pitch": 60, "duration": 1435, "velocity": 85}, {"time": 86879, "pitch": 71, "duration": 1435, "velocity": 90}, {"time": 86879, "pitch": 76, "duration": 1435, "velocity": 95}, {"time": 86879, "pitch": 79, "duration": 1435, "velocity": 100}, {"time": 88795, "pitch": 59, "duration": 472, "velocity": 85}, {"time": 88795, "pitch": 69, "duration": 472, "velocity": 90}, {"time": 88795, "pitch": 74, "duration": 472, "velocity": 95}, {"time": 88795, "pitch": 78, "duration": 472, "velocity": 100}, {"time": 89759, "pitch": 52, "duration": 471, "velocity": 85}, {"time": 89759, "pitch": 71, "duration": 471, "velocity": 90}, {"time": 89759, "pitch": 74, "duration": 471, "velocity": 95}, {"time": 89759, "pitch": 79, "duration": 471, "velocity": 100}, {"time": 90722, "pitch": 57, "duration": 1424, "velocity": 85}, {"time": 90722, "pitch": 73, "duration": 1424, "velocity": 90}, {"time": 90722, "pitch": 76, "duration": 1424, "velocity": 95}, {"time": 90722, "pitch": 79, "duration": 1424, "velocity": 100}, {"time": 92638, "pitch": 59, "duration": 471, "velocity": 85}, {"time": 92638, "pitch": 76, "duration": 471, "velocity": 90}, {"time": 92638, "pitch": 78, "duration": 471, "velocity": 95}, {"time": 92638, "pitch": 83, "duration": 471, "velocity": 100}, {"time": 111838, "pitch": 41, "duration": 14406, "velocity": 90}, {"time": 111838, "pitch": 53, "duration": 14406, "velocity": 100}, {"time": 111838, "pitch": 65, "duration": 2869, "velocity": 80}, {"time": 111838, "pitch": 69, "duration": 2869, "velocity": 85}, {"time": 111838, "pitch": 72, "duration": 2869, "velocity": 90}, {"time": 115681, "pitch": 67, "duration": 2869, "velocity": 80}, {"time": 115681, "pitch": 71, "duration": 2869, "velocity": 85}, {"time": 115681, "pitch": 74, "duration": 2869, "velocity": 90}, {"time": 119523, "pitch": 68, "duration": 2869, "velocity": 80}, {"time": 119523, "pitch": 72, "duration": 2869, "velocity": 85}, {"time": 119523, "pitch": 75, "duration": 2869, "velocity": 90}, {"time": 123365, "pitch": 70, "duration": 2879, "velocity": 80}, {"time": 123365, "pitch": 74, "duration": 2879, "velocity": 85}, {"time": 123365, "pitch": 77, "duration": 2879, "velocity": 90}, {"time": 142556, "pitch": 60, "duration": 1434, "velocity": 85}, {"time": 142556, "pitch": 71, "duration": 1434, "velocity": 90}, {"time": 142556, "pitch": 76, "duration": 1434, "velocity": 95}, {"time": 142556, "pitch": 79, "duration": 1434, "velocity": 100}, {"time": 144482, "pitch": 59, "duration": 1424, "velocity": 85}, {"time": 144482, "pitch": 69, "duration": 1424, "velocity": 90}, {"time": 144482, "pitch": 74, "duration": 1424, "velocity": 95}, {"time": 144482, "pitch": 78, "duration": 1424, "velocity": 100}, {"time": 146398, "pitch": 57, "duration": 3350, "velocity": 85}, {"time": 146398, "pitch": 67, "duration": 3350, "velocity": 90}, {"time": 146398, "pitch": 73, "duration": 3350, "velocity": 95}, {"time": 146398, "pitch": 76, "duration": 3350, "velocity": 100}, {"time": 150240, "pitch": 60, "duration": 1435, "velocity": 85}, {"time": 150240, "pitch": 71, "duration": 1435, "velocity": 90}, {"time": 150240, "pitch": 76, "duration": 1435, "velocity": 95}, {"time": 150240, "pitch": 79, "duration": 1435, "velocity": 100}, {"time": 152156, "pitch": 59, "duration": 471, "velocity": 85}, {"time": 152156, "pitch": 69, "duration": 471, "velocity": 90}, {"time": 152156, "pitch": 74, "duration": 471, "velocity": 95}, {"time": 152156, "pitch": 78, "duration": 471, "velocity": 100}, {"time": 153119, "pitch": 52, "duration": 472, "velocity": 85}, {"time": 153119, "pitch": 71, "duration": 472, "velocity": 90}, {"time": 153119, "pitch": 74, "duration": 472, "velocity": 95}, {"time": 153119, "pitch": 79, "duration": 472, "velocity": 100}, {"time": 154082, "pitch": 57, "duration": 1425, "velocity": 85}, {"time": 154082, "pitch": 73, "duration": 1425, "velocity": 90}, {"time": 154082, "pitch": 76, "duration": 1425, "velocity": 95}, {"time": 154082, "pitch": 79, "duration": 1425, "velocity": 100}, {"time": 155998, "pitch": 59, "duration": 472, "velocity": 85}, {"time": 155998, "pitch": 76, "duration": 472, "velocity": 90}, {"time": 155998, "pitch": 78, "duration": 472, "velocity": 95}, {"time": 155998, "pitch": 83, "duration": 472, "velocity": 100}, {"time": 15855, "pitch": 43, "duration": 933, "velocity": 110}, {"time": 15855, "pitch": 50, "duration": 933, "velocity": 105}, {"time": 15864, "pitch": 55, "duration": 934, "velocity": 100}, {"time": 16808, "pitch": 45, "duration": 943, "velocity": 110}, {"time": 16808, "pitch": 52, "duration": 943, "velocity": 105}, {"time": 16818, "pitch": 57, "duration": 943, "velocity": 100}, {"time": 17771, "pitch": 42, "duration": 943, "velocity": 110}, {"time": 17771, "pitch": 49, "duration": 943, "velocity": 105}, {"time": 17781, "pitch": 54, "duration": 943, "velocity": 100}, {"time": 18734, "pitch": 47, "duration": 933, "velocity": 110}, {"time": 18734, "pitch": 54, "duration": 933, "velocity": 105}, {"time": 18744, "pitch": 59, "duration": 933, "velocity": 100}, {"time": 19687, "pitch": 40, "duration": 943, "velocity": 110}, {"time": 19687, "pitch": 47, "duration": 943, "velocity": 105}, {"time": 19697, "pitch": 52, "duration": 943, "velocity": 100}, {"time": 20650, "pitch": 42, "duration": 943, "velocity": 110}, {"time": 20650, "pitch": 49, "duration": 943, "velocity": 105}, {"time": 20660, "pitch": 54, "duration": 943, "velocity": 100}, {"time": 21613, "pitch": 43, "duration": 933, "velocity": 110}, {"time": 21613, "pitch": 50, "duration": 933, "velocity": 105}, {"time": 21623, "pitch": 55, "duration": 933, "velocity": 100}, {"time": 22566, "pitch": 45, "duration": 943, "velocity": 110}, {"time": 22566, "pitch": 52, "duration": 943, "velocity": 105}, {"time": 22576, "pitch": 57, "duration": 943, "velocity": 100}, {"time": 23529, "pitch": 43, "duration": 943, "velocity": 110}, {"time": 23529, "pitch": 50, "duration": 943, "velocity": 105}, {"time": 23539, "pitch": 55, "duration": 943, "velocity": 100}, {"time": 24492, "pitch": 45, "duration": 933, "velocity": 110}, {"time": 24492, "pitch": 52, "duration": 933, "velocity": 105}, {"time": 24502, "pitch": 57, "duration": 933, "velocity": 100}, {"time": 25445, "pitch": 42, "duration": 943, "velocity": 110}, {"time": 25445, "pitch": 49, "duration": 943, "velocity": 105}, {"time": 25455, "pitch": 54, "duration": 943, "velocity": 100}, {"time": 26408, "pitch": 47, "duration": 943, "velocity": 110}, {"time": 26408, "pitch": 54, "duration": 943, "velocity": 105}, {"time": 26418, "pitch": 59, "duration": 943, "velocity": 100}, {"time": 27371, "pitch": 40, "duration": 943, "velocity": 110}, {"time": 27371, "pitch": 47, "duration": 943, "velocity": 105}, {"time": 27381, "pitch": 52, "duration": 943, "velocity": 100}, {"time": 28334, "pitch": 42, "duration": 933, "velocity": 110}, {"time": 28334, "pitch": 49, "duration": 933, "velocity": 105}, {"time": 28344, "pitch": 54, "duration": 933, "velocity": 100}, {"time": 29287, "pitch": 40, "duration": 3822, "velocity": 100}, {"time": 29287, "pitch": 47, "duration": 3822, "velocity": 105}, {"time": 29297, "pitch": 52, "duration": 3812, "velocity": 110}, {"time": 33129, "pitch": 60, "duration": 1916, "velocity": 110}, {"time": 33611, "pitch": 65, "duration": 963, "velocity": 100}, {"time": 34093, "pitch": 69, "duration": 952, "velocity": 105}, {"time": 34574, "pitch": 65, "duration": 471, "velocity": 100}, {"time": 35045, "pitch": 60, "duration": 963, "velocity": 110}, {"time": 35527, "pitch": 65, "duration": 1445, "velocity": 100}, {"time": 36008, "pitch": 60, "duration": 964, "velocity": 105}, {"time": 36490, "pitch": 72, "duration": 482, "velocity": 100}, {"time": 36972, "pitch": 62, "duration": 962, "velocity": 105}, {"time": 37453, "pitch": 71, "duration": 1435, "velocity": 110}, {"time": 37934, "pitch": 62, "duration": 954, "velocity": 100}, {"time": 38406, "pitch": 67, "duration": 482, "velocity": 105}, {"time": 38888, "pitch": 74, "duration": 1444, "velocity": 110}, {"time": 39369, "pitch": 67, "duration": 1445, "velocity": 105}, {"time": 39851, "pitch": 62, "duration": 963, "velocity": 100}, {"time": 40332, "pitch": 74, "duration": 482, "velocity": 105}, {"time": 40814, "pitch": 60, "duration": 973, "velocity": 90}, {"time": 40814, "pitch": 63, "duration": 973, "velocity": 100}, {"time": 40823, "pitch": 68, "duration": 974, "velocity": 110}, {"time": 42248, "pitch": 60, "duration": 462, "velocity": 85}, {"time": 42248, "pitch": 63, "duration": 462, "velocity": 95}, {"time": 42258, "pitch": 68, "duration": 462, "velocity": 105}, {"time": 42730, "pitch": 68, "duration": 481, "velocity": 100}, {"time": 42740, "pitch": 72, "duration": 471, "velocity": 110}, {"time": 43211, "pitch": 63, "duration": 482, "velocity": 90}, {"time": 43221, "pitch": 68, "duration": 472, "velocity": 100}, {"time": 43693, "pitch": 60, "duration": 481, "velocity": 70}, {"time": 43703, "pitch": 63, "duration": 471, "velocity": 80}, {"time": 44174, "pitch": 56, "duration": 452, "velocity": 50}, {"time": 44184, "pitch": 60, "duration": 452, "velocity": 60}, {"time": 44646, "pitch": 65, "duration": 541, "velocity": 100}, {"time": 44646, "pitch": 70, "duration": 541, "velocity": 110}, {"time": 44656, "pitch": 74, "duration": 541, "velocity": 90}, {"time": 45609, "pitch": 65, "duration": 943, "velocity": 100}, {"time": 45609, "pitch": 70, "duration": 943, "velocity": 110}, {"time": 45619, "pitch": 74, "duration": 943, "velocity": 90}, {"time": 46572, "pitch": 58, "duration": 1474, "velocity": 110}, {"time": 46572, "pitch": 65, "duration": 1474, "velocity": 105}, {"time": 46582, "pitch": 70, "duration": 1475, "velocity": 100}, {"time": 48488, "pitch": 40, "duration": 3822, "velocity": 90}, {"time": 48488, "pitch": 47, "duration": 3822, "velocity": 95}, {"time": 48498, "pitch": 52, "duration": 3812, "velocity": 100}, {"time": 52330, "pitch": 48, "duration": 3822, "velocity": 90}, {"time": 52330, "pitch": 55, "duration": 3822, "velocity": 95}, {"time": 52340, "pitch": 60, "duration": 3812, "velocity": 100}, {"time": 56172, "pitch": 45, "duration": 3823, "velocity": 90}, {"time": 56172, "pitch": 52, "duration": 3823, "velocity": 95}, {"time": 56182, "pitch": 57, "duration": 3813, "velocity": 100}, {"time": 60014, "pitch": 50, "duration": 1896, "velocity": 90}, {"time": 60014, "pitch": 57, "duration": 1896, "velocity": 95}, {"time": 60024, "pitch": 62, "duration": 1897, "velocity": 100}, {"time": 61931, "pitch": 47, "duration": 1895, "velocity": 90}, {"time": 61931, "pitch": 54, "duration": 1895, "velocity": 95}, {"time": 61941, "pitch": 59, "duration": 1895, "velocity": 100}, {"time": 63846, "pitch": 40, "duration": 3823, "velocity": 90}, {"time": 63846, "pitch": 47, "duration": 3823, "velocity": 95}, {"time": 63857, "pitch": 52, "duration": 3812, "velocity": 100}, {"time": 67689, "pitch": 48, "duration": 3822, "velocity": 90}, {"time": 67689, "pitch": 55, "duration": 3822, "velocity": 95}, {"time": 67699, "pitch": 60, "duration": 3812, "velocity": 100}, {"time": 71531, "pitch": 45, "duration": 3822, "velocity": 90}, {"time": 71531, "pitch": 52, "duration": 3822, "velocity": 95}, {"time": 71541, "pitch": 57, "duration": 3812, "velocity": 100}, {"time": 75373, "pitch": 50, "duration": 1896, "velocity": 90}, {"time": 75373, "pitch": 57, "duration": 1896, "velocity": 95}, {"time": 75383, "pitch": 62, "duration": 1896, "velocity": 100}, {"time": 77289, "pitch": 47, "duration": 1896, "velocity": 90}, {"time": 77289, "pitch": 54, "duration": 1896, "velocity": 95}, {"time": 77299, "pitch": 59, "duration": 1896, "velocity": 100}, {"time": 79205, "pitch": 64, "duration": 1906, "velocity": 110}, {"time": 79687, "pitch": 71, "duration": 1424, "velocity": 100}, {"time": 79927, "pitch": 67, "duration": 1184, "velocity": 105}, {"time": 81131, "pitch": 62, "duration": 1896, "velocity": 110}, {"time": 81613, "pitch": 71, "duration": 1414, "velocity": 100}, {"time": 81854, "pitch": 66, "duration": 1173, "velocity": 105}, {"time": 83047, "pitch": 64, "duration": 2408, "velocity": 110}, {"time": 83529, "pitch": 71, "duration": 3340, "velocity": 100}, {"time": 83770, "pitch": 67, "duration": 3099, "velocity": 105}, {"time": 85455, "pitch": 64, "duration": 1414, "velocity": 105}, {"time": 85926, "pitch": 61, "duration": 943, "velocity": 110}, {"time": 86408, "pitch": 57, "duration": 461, "velocity": 100}, {"time": 86890, "pitch": 64, "duration": 1896, "velocity": 110}, {"time": 87371, "pitch": 71, "duration": 1415, "velocity": 100}, {"time": 87612, "pitch": 67, "duration": 1174, "velocity": 105}, {"time": 88334, "pitch": 72, "duration": 452, "velocity": 110}, {"time": 88805, "pitch": 62, "duration": 1907, "velocity": 110}, {"time": 89287, "pitch": 71, "duration": 722, "velocity": 100}, {"time": 89528, "pitch": 67, "duration": 241, "velocity": 105}, {"time": 89769, "pitch": 67, "duration": 481, "velocity": 100}, {"time": 90009, "pitch": 71, "duration": 703, "velocity": 110}, {"time": 90250, "pitch": 67, "duration": 462, "velocity": 105}, {"time": 90732, "pitch": 64, "duration": 1896, "velocity": 110}, {"time": 91213, "pitch": 71, "duration": 953, "velocity": 100}, {"time": 91454, "pitch": 67, "duration": 1174, "velocity": 105}, {"time": 91695, "pitch": 76, "duration": 933, "velocity": 110}, {"time": 92166, "pitch": 71, "duration": 462, "velocity": 100}, {"time": 92648, "pitch": 59, "duration": 261, "velocity": 85}, {"time": 92648, "pitch": 64, "duration": 261, "velocity": 90}, {"time": 92658, "pitch": 66, "duration": 261, "velocity": 95}, {"time": 93009, "pitch": 64, "duration": 341, "velocity": 95}, {"time": 93009, "pitch": 66, "duration": 341, "velocity": 100}, {"time": 93019, "pitch": 59, "duration": 341, "velocity": 90}, {"time": 93370, "pitch": 59, "duration": 221, "velocity": 80}, {"time": 93370, "pitch": 63, "duration": 221, "velocity": 85}, {"time": 93380, "pitch": 66, "duration": 221, "velocity": 90}, {"time": 93611, "pitch": 59, "duration": 221, "velocity": 90}, {"time": 93611, "pitch": 63, "duration": 221, "velocity": 95}, {"time": 93621, "pitch": 66, "duration": 221, "velocity": 100}, {"time": 94574, "pitch": 43, "duration": 933, "velocity": 110}, {"time": 94574, "pitch": 50, "duration": 933, "velocity": 105}, {"time": 94584, "pitch": 55, "duration": 933, "velocity": 100}, {"time": 95527, "pitch": 45, "duration": 943, "velocity": 110}, {"time": 95527, "pitch": 52, "duration": 943, "velocity": 105}, {"time": 95537, "pitch": 57, "duration": 943, "velocity": 100}, {"time": 96490, "pitch": 42, "duration": 943, "velocity": 110}, {"time": 96490, "pitch": 49, "duration": 943, "velocity": 105}, {"time": 96500, "pitch": 54, "duration": 943, "velocity": 100}, {"time": 97453, "pitch": 47, "duration": 933, "velocity": 110}, {"time": 97453, "pitch": 54, "duration": 933, "velocity": 105}, {"time": 97463, "pitch": 59, "duration": 933, "velocity": 100}, {"time": 98406, "pitch": 40, "duration": 943, "velocity": 110}, {"time": 98406, "pitch": 47, "duration": 943, "velocity": 105}, {"time": 98416, "pitch": 52, "duration": 943, "velocity": 100}, {"time": 99369, "pitch": 42, "duration": 943, "velocity": 110}, {"time": 99369, "pitch": 49, "duration": 943, "velocity": 105}, {"time": 99379, "pitch": 54, "duration": 943, "velocity": 100}, {"time": 100332, "pitch": 43, "duration": 933, "velocity": 110}, {"time": 100332, "pitch": 50, "duration": 933, "velocity": 105}, {"time": 100342, "pitch": 55, "duration": 933, "velocity": 100}, {"time": 101285, "pitch": 45, "duration": 943, "velocity": 110}, {"time": 101285, "pitch": 52, "duration": 943, "velocity": 105}, {"time": 101295, "pitch": 57, "duration": 943, "velocity": 100}, {"time": 102248, "pitch": 43, "duration": 943, "velocity": 110}, {"time": 102248, "pitch": 50, "duration": 943, "velocity": 105}, {"time": 102258, "pitch": 55, "duration": 943, "velocity": 100}, {"time": 103211, "pitch": 45, "duration": 943, "velocity": 110}, {"time": 103211, "pitch": 52, "duration": 943, "velocity": 105}, {"time": 103221, "pitch": 57, "duration": 943, "velocity": 100}, {"time": 104174, "pitch": 42, "duration": 933, "velocity": 110}, {"time": 104174, "pitch": 49, "duration": 933, "velocity": 105}, {"time": 104184, "pitch": 54, "duration": 933, "velocity": 100}, {"time": 105127, "pitch": 47, "duration": 943, "velocity": 110}, {"time": 105127, "pitch": 54, "duration": 943, "velocity": 105}, {"time": 105137, "pitch": 59, "duration": 943, "velocity": 100}, {"time": 106090, "pitch": 40, "duration": 943, "velocity": 110}, {"time": 106090, "pitch": 47, "duration": 943, "velocity": 105}, {"time": 106100, "pitch": 52, "duration": 943, "velocity": 100}, {"time": 107053, "pitch": 42, "duration": 933, "velocity": 110}, {"time": 107053, "pitch": 49, "duration": 933, "velocity": 105}, {"time": 107064, "pitch": 54, "duration": 932, "velocity": 100}, {"time": 108006, "pitch": 40, "duration": 3822, "velocity": 100}, {"time": 108006, "pitch": 47, "duration": 3822, "velocity": 105}, {"time": 108016, "pitch": 52, "duration": 3812, "velocity": 110}, {"time": 111848, "pitch": 65, "duration": 964, "velocity": 100}, {"time": 112330, "pitch": 69, "duration": 963, "velocity": 90}, {"time": 112340, "pitch": 72, "duration": 963, "velocity": 110}, {"time": 112812, "pitch": 65, "duration": 943, "velocity": 100}, {"time": 113293, "pitch": 69, "duration": 462, "velocity": 90}, {"time": 113303, "pitch": 72, "duration": 462, "velocity": 110}, {"time": 113774, "pitch": 65, "duration": 954, "velocity": 100}, {"time": 114246, "pitch": 69, "duration": 963, "velocity": 90}, {"time": 114256, "pitch": 72, "duration": 963, "velocity": 110}, {"time": 114728, "pitch": 65, "duration": 943, "velocity": 100}, {"time": 115209, "pitch": 69, "duration": 462, "velocity": 90}, {"time": 115219, "pitch": 72, "duration": 462, "velocity": 110}, {"time": 115691, "pitch": 62, "duration": 963, "velocity": 105}, {"time": 116172, "pitch": 67, "duration": 482, "velocity": 110}, {"time": 116182, "pitch": 74, "duration": 1405, "velocity": 90}, {"time": 116654, "pitch": 62, "duration": 933, "velocity": 100}, {"time": 117125, "pitch": 67, "duration": 462, "velocity": 85}, {"time": 117607, "pitch": 62, "duration": 1444, "velocity": 90}, {"time": 118088, "pitch": 67, "duration": 482, "velocity": 105}, {"time": 118570, "pitch": 67, "duration": 943, "velocity": 95}, {"time": 118580, "pitch": 74, "duration": 471, "velocity": 110}, {"time": 119051, "pitch": 62, "duration": 462, "velocity": 100}, {"time": 119533, "pitch": 63, "duration": 1896, "velocity": 100}, {"time": 119543, "pitch": 68, "duration": 461, "velocity": 110}, {"time": 120014, "pitch": 67, "duration": 472, "velocity": 90}, {"time": 120486, "pitch": 68, "duration": 943, "velocity": 100}, {"time": 120967, "pitch": 75, "duration": 462, "velocity": 105}, {"time": 121449, "pitch": 63, "duration": 963, "velocity": 85}, {"time": 121459, "pitch": 68, "duration": 963, "velocity": 95}, {"time": 121930, "pitch": 72, "duration": 964, "velocity": 100}, {"time": 121940, "pitch": 75, "duration": 964, "velocity": 110}, {"time": 122412, "pitch": 63, "duration": 943, "velocity": 80}, {"time": 122422, "pitch": 68, "duration": 933, "velocity": 90}, {"time": 122894, "pitch": 72, "duration": 461, "velocity": 100}, {"time": 122904, "pitch": 75, "duration": 451, "velocity": 110}, {"time": 123375, "pitch": 65, "duration": 963, "velocity": 85}, {"time": 123385, "pitch": 70, "duration": 461, "velocity": 95}, {"time": 123846, "pitch": 70, "duration": 482, "velocity": 100}, {"time": 123856, "pitch": 77, "duration": 472, "velocity": 110}, {"time": 124328, "pitch": 58, "duration": 943, "velocity": 85}, {"time": 124338, "pitch": 65, "duration": 472, "velocity": 95}, {"time": 124810, "pitch": 65, "duration": 461, "velocity": 100}, {"time": 124820, "pitch": 70, "duration": 451, "velocity": 110}, {"time": 125291, "pitch": 58, "duration": 963, "velocity": 80}, {"time": 125301, "pitch": 65, "duration": 953, "velocity": 90}, {"time": 125773, "pitch": 70, "duration": 481, "velocity": 100}, {"time": 125783, "pitch": 74, "duration": 471, "velocity": 110}, {"time": 127207, "pitch": 40, "duration": 3822, "velocity": 90}, {"time": 127207, "pitch": 47, "duration": 3822, "velocity": 95}, {"time": 127217, "pitch": 52, "duration": 3812, "velocity": 100}, {"time": 131049, "pitch": 48, "duration": 3822, "velocity": 90}, {"time": 131049, "pitch": 55, "duration": 3822, "velocity": 95}, {"time": 131059, "pitch": 60, "duration": 3812, "velocity": 100}, {"time": 134891, "pitch": 45, "duration": 3823, "velocity": 90}, {"time": 134891, "pitch": 52, "duration": 3823, "velocity": 95}, {"time": 134902, "pitch": 57, "duration": 3812, "velocity": 100}, {"time": 138733, "pitch": 50, "duration": 1897, "velocity": 90}, {"time": 138733, "pitch": 57, "duration": 1897, "velocity": 95}, {"time": 138743, "pitch": 62, "duration": 1897, "velocity": 100}, {"time": 140650, "pitch": 47, "duration": 1896, "velocity": 90}, {"time": 140650, "pitch": 54, "duration": 1896, "velocity": 95}, {"time": 140660, "pitch": 59, "duration": 1896, "velocity": 100}, {"time": 142566, "pitch": 64, "duration": 1906, "velocity": 110}, {"time": 143047, "pitch": 71, "duration": 1425, "velocity": 100}, {"time": 143288, "pitch": 67, "duration": 1184, "velocity": 105}, {"time": 144492, "pitch": 62, "duration": 1896, "velocity": 110}, {"time": 144973, "pitch": 71, "duration": 1415, "velocity": 100}, {"time": 145214, "pitch": 66, "duration": 1174, "velocity": 105}, {"time": 146408, "pitch": 64, "duration": 2397, "velocity": 110}, {"time": 146889, "pitch": 71, "duration": 3341, "velocity": 100}, {"time": 147130, "pitch": 67, "duration": 3100, "velocity": 105}, {"time": 148805, "pitch": 64, "duration": 1425, "velocity": 105}, {"time": 149287, "pitch": 61, "duration": 943, "velocity": 110}, {"time": 149768, "pitch": 57, "duration": 462, "velocity": 100}, {"time": 150250, "pitch": 64, "duration": 1896, "velocity": 110}, {"time": 150732, "pitch": 71, "duration": 1414, "velocity": 100}, {"time": 150972, "pitch": 67, "duration": 1174, "velocity": 105}, {"time": 152166, "pitch": 62, "duration": 722, "velocity": 120}, {"time": 152888, "pitch": 62, "duration": 231, "velocity": 100}, {"time": 154092, "pitch": 64, "duration": 462, "velocity": 105}, {"time": 155045, "pitch": 67, "duration": 462, "velocity": 105}, {"time": 156008, "pitch": 59, "duration": 261, "velocity": 85}, {"time": 156008, "pitch": 64, "duration": 261, "velocity": 90}, {"time": 156018, "pitch": 66, "duration": 261, "velocity": 95}, {"time": 156369, "pitch": 64, "duration": 342, "velocity": 95}, {"time": 156369, "pitch": 66, "duration": 342, "velocity": 100}, {"time": 156379, "pitch": 59, "duration": 342, "velocity": 90}, {"time": 156731, "pitch": 59, "duration": 220, "velocity": 80}, {"time": 156731, "pitch": 63, "duration": 220, "velocity": 85}, {"time": 156741, "pitch": 66, "duration": 220, "velocity": 90}, {"time": 156971, "pitch": 59, "duration": 221, "velocity": 90}, {"time": 156971, "pitch": 63, "duration": 221, "velocity": 95}, {"time": 156981, "pitch": 66, "duration": 221, "velocity": 100}, {"time": 157934, "pitch": 43, "duration": 933, "velocity": 110}, {"time": 157934, "pitch": 50, "duration": 933, "velocity": 105}, {"time": 157944, "pitch": 55, "duration": 933, "velocity": 100}, {"time": 158887, "pitch": 45, "duration": 943, "velocity": 110}, {"time": 158887, "pitch": 52, "duration": 943, "velocity": 105}, {"time": 158897, "pitch": 57, "duration": 943, "velocity": 100}, {"time": 159850, "pitch": 42, "duration": 944, "velocity": 110}, {"time": 159850, "pitch": 49, "duration": 944, "velocity": 105}, {"time": 159860, "pitch": 54, "duration": 944, "velocity": 100}, {"time": 160814, "pitch": 47, "duration": 933, "velocity": 110}, {"time": 160814, "pitch": 54, "duration": 933, "velocity": 105}, {"time": 160824, "pitch": 59, "duration": 932, "velocity": 100}, {"time": 161766, "pitch": 40, "duration": 943, "velocity": 110}, {"time": 161766, "pitch": 47, "duration": 943, "velocity": 105}, {"time": 161776, "pitch": 52, "duration": 943, "velocity": 100}, {"time": 162730, "pitch": 42, "duration": 943, "velocity": 110}, {"time": 162730, "pitch": 49, "duration": 943, "velocity": 105}, {"time": 162740, "pitch": 54, "duration": 943, "velocity": 100}, {"time": 163693, "pitch": 43, "duration": 933, "velocity": 110}, {"time": 163693, "pitch": 50, "duration": 933, "velocity": 105}, {"time": 163703, "pitch": 55, "duration": 932, "velocity": 100}, {"time": 164645, "pitch": 45, "duration": 944, "velocity": 110}, {"time": 164645, "pitch": 52, "duration": 944, "velocity": 105}, {"time": 164655, "pitch": 57, "duration": 944, "velocity": 100}, {"time": 165609, "pitch": 43, "duration": 943, "velocity": 110}, {"time": 165609, "pitch": 50, "duration": 943, "velocity": 105}, {"time": 165619, "pitch": 55, "duration": 943, "velocity": 100}, {"time": 166572, "pitch": 45, "duration": 943, "velocity": 110}, {"time": 166572, "pitch": 52, "duration": 943, "velocity": 105}, {"time": 166582, "pitch": 57, "duration": 943, "velocity": 100}, {"time": 167535, "pitch": 42, "duration": 933, "velocity": 110}, {"time": 167535, "pitch": 49, "duration": 933, "velocity": 105}, {"time": 167544, "pitch": 54, "duration": 934, "velocity": 100}, {"time": 168488, "pitch": 47, "duration": 943, "velocity": 110}, {"time": 168488, "pitch": 54, "duration": 943, "velocity": 105}, {"time": 168498, "pitch": 59, "duration": 943, "velocity": 100}, {"time": 169451, "pitch": 40, "duration": 943, "velocity": 110}, {"time": 169451, "pitch": 47, "duration": 943, "velocity": 105}, {"time": 169461, "pitch": 52, "duration": 943, "velocity": 100}, {"time": 170414, "pitch": 42, "duration": 933, "velocity": 110}, {"time": 170414, "pitch": 49, "duration": 933, "velocity": 105}, {"time": 170424, "pitch": 54, "duration": 933, "velocity": 100}, {"time": 171367, "pitch": 40, "duration": 1906, "velocity": 100}, {"time": 171367, "pitch": 47, "duration": 1906, "velocity": 105}, {"time": 171377, "pitch": 52, "duration": 1906, "velocity": 110}, {"time": 173293, "pitch": 43, "duration": 933, "velocity": 110}, {"time": 173293, "pitch": 50, "duration": 933, "velocity": 105}, {"time": 173303, "pitch": 55, "duration": 933, "velocity": 100}, {"time": 174246, "pitch": 45, "duration": 943, "velocity": 110}, {"time": 174246, "pitch": 52, "duration": 943, "velocity": 105}, {"time": 174256, "pitch": 57, "duration": 943, "velocity": 100}, {"time": 175209, "pitch": 42, "duration": 943, "velocity": 110}, {"time": 175209, "pitch": 49, "duration": 943, "velocity": 105}, {"time": 175219, "pitch": 54, "duration": 943, "velocity": 100}, {"time": 176172, "pitch": 47, "duration": 933, "velocity": 110}, {"time": 176172, "pitch": 54, "duration": 933, "velocity": 105}, {"time": 176182, "pitch": 59, "duration": 933, "velocity": 100}, {"time": 177125, "pitch": 40, "duration": 943, "velocity": 110}, {"time": 177125, "pitch": 47, "duration": 943, "velocity": 105}, {"time": 177135, "pitch": 52, "duration": 943, "velocity": 100}, {"time": 178088, "pitch": 42, "duration": 943, "velocity": 110}, {"time": 178088, "pitch": 49, "duration": 943, "velocity": 105}, {"time": 178098, "pitch": 54, "duration": 943, "velocity": 100}, {"time": 179051, "pitch": 43, "duration": 943, "velocity": 110}, {"time": 179051, "pitch": 50, "duration": 943, "velocity": 105}, {"time": 179061, "pitch": 55, "duration": 943, "velocity": 100}, {"time": 180014, "pitch": 45, "duration": 933, "velocity": 110}, {"time": 180014, "pitch": 52, "duration": 933, "velocity": 105}, {"time": 180024, "pitch": 57, "duration": 933, "velocity": 100}, {"time": 180967, "pitch": 43, "duration": 943, "velocity": 110}, {"time": 180967, "pitch": 50, "duration": 943, "velocity": 105}, {"time": 180977, "pitch": 55, "duration": 943, "velocity": 100}, {"time": 181930, "pitch": 45, "duration": 943, "velocity": 110}, {"time": 181930, "pitch": 52, "duration": 943, "velocity": 105}, {"time": 181940, "pitch": 57, "duration": 943, "velocity": 100}, {"time": 182893, "pitch": 42, "duration": 933, "velocity": 110}, {"time": 182893, "pitch": 49, "duration": 933, "velocity": 105}, {"time": 182904, "pitch": 54, "duration": 932, "velocity": 100}, {"time": 183846, "pitch": 47, "duration": 943, "velocity": 110}, {"time": 183846, "pitch": 54, "duration": 943, "velocity": 105}, {"time": 183856, "pitch": 59, "duration": 943, "velocity": 100}, {"time": 184809, "pitch": 40, "duration": 943, "velocity": 110}, {"time": 184809, "pitch": 47, "duration": 943, "velocity": 105}, {"time": 184819, "pitch": 52, "duration": 944, "velocity": 100}, {"time": 185773, "pitch": 42, "duration": 933, "velocity": 110}, {"time": 185773, "pitch": 49, "duration": 933, "velocity": 105}, {"time": 185783, "pitch": 54, "duration": 932, "velocity": 100}, {"time": 186725, "pitch": 40, "duration": 3822, "velocity": 100}, {"time": 186725, "pitch": 47, "duration": 3822, "velocity": 105}, {"time": 186735, "pitch": 52, "duration": 3812, "velocity": 110}, {"time": 190568, "pitch": 57, "duration": 943, "velocity": 90}, {"time": 190568, "pitch": 62, "duration": 943, "velocity": 95}, {"time": 190578, "pitch": 66, "duration": 943, "velocity": 100}, {"time": 191531, "pitch": 57, "duration": 240, "velocity": 90}, {"time": 191531, "pitch": 62, "duration": 240, "velocity": 95}, {"time": 191541, "pitch": 66, "duration": 230, "velocity": 100}, {"time": 191771, "pitch": 57, "duration": 221, "velocity": 80}, {"time": 191771, "pitch": 62, "duration": 221, "velocity": 85}, {"time": 191782, "pitch": 66, "duration": 220, "velocity": 90}, {"time": 192012, "pitch": 57, "duration": 20, "velocity": 85}, {"time": 192012, "pitch": 62, "duration": 20, "velocity": 90}, {"time": 192022, "pitch": 66, "duration": 20, "velocity": 95}, {"time": 192253, "pitch": 57, "duration": 221, "velocity": 80}, {"time": 192253, "pitch": 62, "duration": 221, "velocity": 85}, {"time": 192263, "pitch": 66, "duration": 221, "velocity": 90}, {"time": 192494, "pitch": 57, "duration": 9, "velocity": 60}, {"time": 192494, "pitch": 62, "duration": 9, "velocity": 65}, {"time": 192503, "pitch": 66, "duration": 10, "velocity": 70}, {"time": 192729, "pitch": 57, "duration": 236, "velocity": 90}, {"time": 192729, "pitch": 62, "duration": 236, "velocity": 95}, {"time": 192739, "pitch": 66, "duration": 226, "velocity": 100}, {"time": 192965, "pitch": 57, "duration": 30, "velocity": 80}, {"time": 192965, "pitch": 62, "duration": 30, "velocity": 85}, {"time": 192975, "pitch": 66, "duration": 30, "velocity": 90}, {"time": 193206, "pitch": 57, "duration": 10, "velocity": 70}, {"time": 193206, "pitch": 62, "duration": 10, "velocity": 75}, {"time": 193216, "pitch": 66, "duration": 10, "velocity": 80}, {"time": 193447, "pitch": 57, "duration": 240, "velocity": 90}, {"time": 193447, "pitch": 62, "duration": 240, "velocity": 95}, {"time": 193457, "pitch": 66, "duration": 230, "velocity": 100}, {"time": 193687, "pitch": 57, "duration": 221, "velocity": 80}, {"time": 193687, "pitch": 62, "duration": 221, "velocity": 85}, {"time": 193697, "pitch": 66, "duration": 221, "velocity": 90}, {"time": 193928, "pitch": 57, "duration": 20, "velocity": 85}, {"time": 193928, "pitch": 62, "duration": 20, "velocity": 90}, {"time": 193938, "pitch": 66, "duration": 20, "velocity": 95}, {"time": 194169, "pitch": 57, "duration": 221, "velocity": 80}, {"time": 194169, "pitch": 62, "duration": 221, "velocity": 85}, {"time": 194179, "pitch": 66, "duration": 221, "velocity": 90}, {"time": 194410, "pitch": 56, "duration": 943, "velocity": 90}, {"time": 194410, "pitch": 62, "duration": 943, "velocity": 95}, {"time": 194420, "pitch": 66, "duration": 943, "velocity": 100}, {"time": 195373, "pitch": 56, "duration": 241, "velocity": 90}, {"time": 195373, "pitch": 62, "duration": 241, "velocity": 95}, {"time": 195383, "pitch": 66, "duration": 231, "velocity": 100}, {"time": 195614, "pitch": 56, "duration": 220, "velocity": 80}, {"time": 195614, "pitch": 62, "duration": 220, "velocity": 85}, {"time": 195624, "pitch": 66, "duration": 220, "velocity": 90}, {"time": 195854, "pitch": 56, "duration": 20, "velocity": 85}, {"time": 195854, "pitch": 62, "duration": 20, "velocity": 90}, {"time": 195864, "pitch": 66, "duration": 20, "velocity": 95}, {"time": 196090, "pitch": 56, "duration": 216, "velocity": 80}, {"time": 196090, "pitch": 62, "duration": 216, "velocity": 85}, {"time": 196100, "pitch": 66, "duration": 216, "velocity": 90}, {"time": 196326, "pitch": 56, "duration": 10, "velocity": 60}, {"time": 196326, "pitch": 62, "duration": 10, "velocity": 65}, {"time": 196336, "pitch": 66, "duration": 10, "velocity": 70}, {"time": 196566, "pitch": 56, "duration": 241, "velocity": 90}, {"time": 196566, "pitch": 62, "duration": 241, "velocity": 95}, {"time": 196577, "pitch": 66, "duration": 230, "velocity": 100}, {"time": 196807, "pitch": 56, "duration": 30, "velocity": 80}, {"time": 196807, "pitch": 62, "duration": 30, "velocity": 85}, {"time": 196817, "pitch": 66, "duration": 30, "velocity": 90}, {"time": 197048, "pitch": 56, "duration": 10, "velocity": 70}, {"time": 197048, "pitch": 62, "duration": 10, "velocity": 75}, {"time": 197058, "pitch": 66, "duration": 10, "velocity": 80}, {"time": 197289, "pitch": 56, "duration": 241, "velocity": 90}, {"time": 197289, "pitch": 62, "duration": 241, "velocity": 95}, {"time": 197299, "pitch": 66, "duration": 231, "velocity": 100}, {"time": 197530, "pitch": 56, "duration": 220, "velocity": 80}, {"time": 197530, "pitch": 62, "duration": 220, "velocity": 85}, {"time": 197540, "pitch": 66, "duration": 220, "velocity": 90}, {"time": 197770, "pitch": 56, "duration": 21, "velocity": 85}, {"time": 197770, "pitch": 62, "duration": 21, "velocity": 90}, {"time": 197780, "pitch": 66, "duration": 21, "velocity": 95}, {"time": 198011, "pitch": 56, "duration": 221, "velocity": 80}, {"time": 198011, "pitch": 62, "duration": 221, "velocity": 85}, {"time": 198021, "pitch": 66, "duration": 221, "velocity": 90}, {"time": 198252, "pitch": 59, "duration": 943, "velocity": 90}, {"time": 198252, "pitch": 62, "duration": 943, "velocity": 95}, {"time": 198262, "pitch": 66, "duration": 943, "velocity": 100}, {"time": 199215, "pitch": 59, "duration": 236, "velocity": 90}, {"time": 199215, "pitch": 62, "duration": 236, "velocity": 95}, {"time": 199225, "pitch": 66, "duration": 226, "velocity": 100}, {"time": 199451, "pitch": 59, "duration": 216, "velocity": 80}, {"time": 199451, "pitch": 62, "duration": 216, "velocity": 85}, {"time": 199460, "pitch": 66, "duration": 216, "velocity": 90}, {"time": 199686, "pitch": 59, "duration": 20, "velocity": 85}, {"time": 199686, "pitch": 62, "duration": 20, "velocity": 90}, {"time": 199696, "pitch": 66, "duration": 20, "velocity": 95}, {"time": 199927, "pitch": 59, "duration": 221, "velocity": 80}, {"time": 199927, "pitch": 62, "duration": 221, "velocity": 85}, {"time": 199937, "pitch": 66, "duration": 221, "velocity": 90}, {"time": 200168, "pitch": 59, "duration": 10, "velocity": 60}, {"time": 200168, "pitch": 62, "duration": 10, "velocity": 65}, {"time": 200178, "pitch": 66, "duration": 10, "velocity": 70}, {"time": 200409, "pitch": 59, "duration": 241, "velocity": 90}, {"time": 200409, "pitch": 62, "duration": 241, "velocity": 95}, {"time": 200419, "pitch": 66, "duration": 231, "velocity": 100}, {"time": 200650, "pitch": 59, "duration": 30, "velocity": 80}, {"time": 200650, "pitch": 62, "duration": 30, "velocity": 85}, {"time": 200660, "pitch": 66, "duration": 30, "velocity": 90}, {"time": 200890, "pitch": 59, "duration": 10, "velocity": 70}, {"time": 200890, "pitch": 62, "duration": 10, "velocity": 75}, {"time": 200900, "pitch": 66, "duration": 10, "velocity": 80}, {"time": 201131, "pitch": 59, "duration": 241, "velocity": 90}, {"time": 201131, "pitch": 62, "duration": 241, "velocity": 95}, {"time": 201141, "pitch": 66, "duration": 231, "velocity": 100}, {"time": 201372, "pitch": 59, "duration": 221, "velocity": 80}, {"time": 201372, "pitch": 62, "duration": 221, "velocity": 85}, {"time": 201382, "pitch": 66, "duration": 221, "velocity": 90}, {"time": 201613, "pitch": 59, "duration": 20, "velocity": 85}, {"time": 201613, "pitch": 62, "duration": 20, "velocity": 90}, {"time": 201623, "pitch": 66, "duration": 20, "velocity": 95}, {"time": 201853, "pitch": 59, "duration": 221, "velocity": 80}, {"time": 201853, "pitch": 62, "duration": 221, "velocity": 85}, {"time": 201864, "pitch": 66, "duration": 220, "velocity": 90}, {"time": 202094, "pitch": 59, "duration": 933, "velocity": 90}, {"time": 202094, "pitch": 64, "duration": 933, "velocity": 95}, {"time": 202104, "pitch": 67, "duration": 933, "velocity": 100}, {"time": 203047, "pitch": 59, "duration": 241, "velocity": 90}, {"time": 203047, "pitch": 64, "duration": 241, "velocity": 95}, {"time": 203057, "pitch": 67, "duration": 231, "velocity": 100}, {"time": 203288, "pitch": 59, "duration": 221, "velocity": 80}, {"time": 203288, "pitch": 64, "duration": 221, "velocity": 85}, {"time": 203298, "pitch": 67, "duration": 221, "velocity": 90}, {"time": 203529, "pitch": 59, "duration": 20, "velocity": 85}, {"time": 203529, "pitch": 64, "duration": 20, "velocity": 90}, {"time": 203539, "pitch": 67, "duration": 20, "velocity": 95}, {"time": 203769, "pitch": 59, "duration": 221, "velocity": 80}, {"time": 203769, "pitch": 64, "duration": 221, "velocity": 85}, {"time": 203779, "pitch": 67, "duration": 221, "velocity": 90}, {"time": 204010, "pitch": 61, "duration": 943, "velocity": 90}, {"time": 204010, "pitch": 66, "duration": 943, "velocity": 95}, {"time": 204020, "pitch": 69, "duration": 943, "velocity": 100}, {"time": 204973, "pitch": 61, "duration": 241, "velocity": 90}, {"time": 204973, "pitch": 66, "duration": 241, "velocity": 95}, {"time": 204983, "pitch": 69, "duration": 231, "velocity": 100}, {"time": 205214, "pitch": 61, "duration": 221, "velocity": 80}, {"time": 205214, "pitch": 66, "duration": 221, "velocity": 85}, {"time": 205224, "pitch": 69, "duration": 221, "velocity": 90}, {"time": 205455, "pitch": 61, "duration": 19, "velocity": 85}, {"time": 205455, "pitch": 66, "duration": 19, "velocity": 90}, {"time": 205464, "pitch": 69, "duration": 20, "velocity": 95}, {"time": 205690, "pitch": 61, "duration": 216, "velocity": 80}, {"time": 205690, "pitch": 66, "duration": 216, "velocity": 85}, {"time": 205700, "pitch": 69, "duration": 216, "velocity": 90}, {"time": 236654, "pitch": 43, "duration": 933, "velocity": 110}, {"time": 236654, "pitch": 50, "duration": 933, "velocity": 105}, {"time": 236664, "pitch": 55, "duration": 932, "velocity": 100}, {"time": 237606, "pitch": 45, "duration": 943, "velocity": 110}, {"time": 237606, "pitch": 52, "duration": 943, "velocity": 105}, {"time": 237616, "pitch": 57, "duration": 943, "velocity": 100}, {"time": 238570, "pitch": 42, "duration": 943, "velocity": 110}, {"time": 238570, "pitch": 49, "duration": 943, "velocity": 105}, {"time": 238580, "pitch": 54, "duration": 943, "velocity": 100}, {"time": 239533, "pitch": 47, "duration": 933, "velocity": 110}, {"time": 239533, "pitch": 54, "duration": 933, "velocity": 105}, {"time": 239543, "pitch": 59, "duration": 932, "velocity": 100}, {"time": 240485, "pitch": 40, "duration": 944, "velocity": 110}, {"time": 240485, "pitch": 47, "duration": 944, "velocity": 105}, {"time": 240495, "pitch": 52, "duration": 944, "velocity": 100}, {"time": 241449, "pitch": 42, "duration": 943, "velocity": 110}, {"time": 241449, "pitch": 49, "duration": 943, "velocity": 105}, {"time": 241459, "pitch": 54, "duration": 943, "velocity": 100}, {"time": 242412, "pitch": 43, "duration": 943, "velocity": 110}, {"time": 242412, "pitch": 50, "duration": 943, "velocity": 105}, {"time": 242422, "pitch": 55, "duration": 943, "velocity": 100}, {"time": 243375, "pitch": 45, "duration": 933, "velocity": 110}, {"time": 243375, "pitch": 52, "duration": 933, "velocity": 105}, {"time": 243384, "pitch": 57, "duration": 934, "velocity": 100}, {"time": 244328, "pitch": 43, "duration": 943, "velocity": 110}, {"time": 244328, "pitch": 50, "duration": 943, "velocity": 105}, {"time": 244338, "pitch": 55, "duration": 943, "velocity": 100}, {"time": 245291, "pitch": 45, "duration": 943, "velocity": 110}, {"time": 245291, "pitch": 52, "duration": 943, "velocity": 105}, {"time": 245301, "pitch": 57, "duration": 943, "velocity": 100}, {"time": 246254, "pitch": 42, "duration": 933, "velocity": 110}, {"time": 246254, "pitch": 49, "duration": 933, "velocity": 105}, {"time": 246264, "pitch": 54, "duration": 933, "velocity": 100}, {"time": 247207, "pitch": 47, "duration": 943, "velocity": 110}, {"time": 247207, "pitch": 54, "duration": 943, "velocity": 105}, {"time": 247217, "pitch": 59, "duration": 943, "velocity": 100}, {"time": 248170, "pitch": 40, "duration": 943, "velocity": 110}, {"time": 248170, "pitch": 47, "duration": 943, "velocity": 105}, {"time": 248180, "pitch": 52, "duration": 943, "velocity": 100}, {"time": 249133, "pitch": 42, "duration": 933, "velocity": 110}, {"time": 249133, "pitch": 49, "duration": 933, "velocity": 105}, {"time": 249143, "pitch": 54, "duration": 933, "velocity": 100}, {"time": 250086, "pitch": 40, "duration": 1906, "velocity": 100}, {"time": 250086, "pitch": 47, "duration": 1906, "velocity": 105}, {"time": 250096, "pitch": 52, "duration": 1906, "velocity": 110}, {"time": 252012, "pitch": 43, "duration": 933, "velocity": 110}, {"time": 252012, "pitch": 50, "duration": 933, "velocity": 105}, {"time": 252022, "pitch": 55, "duration": 933, "velocity": 100}, {"time": 252965, "pitch": 45, "duration": 943, "velocity": 110}, {"time": 252965, "pitch": 52, "duration": 943, "velocity": 105}, {"time": 252975, "pitch": 57, "duration": 943, "velocity": 100}, {"time": 253928, "pitch": 42, "duration": 943, "velocity": 110}, {"time": 253928, "pitch": 49, "duration": 943, "velocity": 105}, {"time": 253938, "pitch": 54, "duration": 943, "velocity": 100}, {"time": 254891, "pitch": 47, "duration": 943, "velocity": 110}, {"time": 254891, "pitch": 54, "duration": 943, "velocity": 105}, {"time": 254901, "pitch": 59, "duration": 943, "velocity": 100}, {"time": 255854, "pitch": 40, "duration": 933, "velocity": 110}, {"time": 255854, "pitch": 47, "duration": 933, "velocity": 105}, {"time": 255864, "pitch": 52, "duration": 933, "velocity": 100}, {"time": 256807, "pitch": 42, "duration": 943, "velocity": 110}, {"time": 256807, "pitch": 49, "duration": 943, "velocity": 105}, {"time": 256817, "pitch": 54, "duration": 943, "velocity": 100}, {"time": 257770, "pitch": 43, "duration": 943, "velocity": 110}, {"time": 257770, "pitch": 50, "duration": 943, "velocity": 105}, {"time": 257780, "pitch": 55, "duration": 943, "velocity": 100}, {"time": 258733, "pitch": 45, "duration": 933, "velocity": 110}, {"time": 258733, "pitch": 52, "duration": 933, "velocity": 105}, {"time": 258744, "pitch": 57, "duration": 932, "velocity": 100}, {"time": 259686, "pitch": 43, "duration": 943, "velocity": 110}, {"time": 259686, "pitch": 50, "duration": 943, "velocity": 105}, {"time": 259696, "pitch": 55, "duration": 943, "velocity": 100}, {"time": 260649, "pitch": 45, "duration": 943, "velocity": 110}, {"time": 260649, "pitch": 52, "duration": 943, "velocity": 105}, {"time": 260659, "pitch": 57, "duration": 944, "velocity": 100}, {"time": 261613, "pitch": 42, "duration": 933, "velocity": 110}, {"time": 261613, "pitch": 49, "duration": 933, "velocity": 105}, {"time": 261623, "pitch": 54, "duration": 932, "velocity": 100}, {"time": 262565, "pitch": 47, "duration": 943, "velocity": 110}, {"time": 262565, "pitch": 54, "duration": 943, "velocity": 105}, {"time": 262575, "pitch": 59, "duration": 943, "velocity": 100}, {"time": 263528, "pitch": 40, "duration": 944, "velocity": 110}, {"time": 263528, "pitch": 47, "duration": 944, "velocity": 105}, {"time": 263538, "pitch": 52, "duration": 944, "velocity": 100}, {"time": 264492, "pitch": 42, "duration": 943, "velocity": 110}, {"time": 264492, "pitch": 49, "duration": 943, "velocity": 105}, {"time": 264502, "pitch": 54, "duration": 943, "velocity": 100}, {"time": 265454, "pitch": 40, "duration": 1897, "velocity": 100}, {"time": 265454, "pitch": 47, "duration": 1897, "velocity": 105}, {"time": 265464, "pitch": 52, "duration": 1897, "velocity": 110}, {"time": 267371, "pitch": 43, "duration": 943, "velocity": 110}, {"time": 267371, "pitch": 50, "duration": 943, "velocity": 105}, {"time": 267381, "pitch": 55, "duration": 943, "velocity": 100}, {"time": 268334, "pitch": 45, "duration": 933, "velocity": 110}, {"time": 268334, "pitch": 52, "duration": 933, "velocity": 105}, {"time": 268343, "pitch": 57, "duration": 934, "velocity": 100}, {"time": 269287, "pitch": 42, "duration": 943, "velocity": 110}, {"time": 269287, "pitch": 49, "duration": 943, "velocity": 105}, {"time": 269297, "pitch": 54, "duration": 943, "velocity": 100}, {"time": 270250, "pitch": 47, "duration": 943, "velocity": 110}, {"time": 270250, "pitch": 54, "duration": 943, "velocity": 105}, {"time": 270260, "pitch": 59, "duration": 943, "velocity": 100}, {"time": 271213, "pitch": 40, "duration": 933, "velocity": 110}, {"time": 271213, "pitch": 47, "duration": 933, "velocity": 105}, {"time": 271223, "pitch": 52, "duration": 933, "velocity": 100}, {"time": 272166, "pitch": 42, "duration": 943, "velocity": 110}, {"time": 272166, "pitch": 49, "duration": 943, "velocity": 105}, {"time": 272176, "pitch": 54, "duration": 943, "velocity": 100}, {"time": 273129, "pitch": 43, "duration": 943, "velocity": 110}, {"time": 273129, "pitch": 50, "duration": 943, "velocity": 105}, {"time": 273139, "pitch": 55, "duration": 943, "velocity": 100}, {"time": 274092, "pitch": 45, "duration": 943, "velocity": 110}, {"time": 274092, "pitch": 52, "duration": 943, "velocity": 105}, {"time": 274102, "pitch": 57, "duration": 943, "velocity": 100}, {"time": 275055, "pitch": 43, "duration": 933, "velocity": 110}, {"time": 275055, "pitch": 50, "duration": 933, "velocity": 105}, {"time": 275065, "pitch": 55, "duration": 933, "velocity": 100}, {"time": 276008, "pitch": 45, "duration": 943, "velocity": 110}, {"time": 276008, "pitch": 52, "duration": 943, "velocity": 105}, {"time": 276018, "pitch": 57, "duration": 943, "velocity": 100}, {"time": 276971, "pitch": 42, "duration": 943, "velocity": 110}, {"time": 276971, "pitch": 49, "duration": 943, "velocity": 105}, {"time": 276981, "pitch": 54, "duration": 943, "velocity": 100}, {"time": 277934, "pitch": 47, "duration": 933, "velocity": 110}, {"time": 277934, "pitch": 54, "duration": 933, "velocity": 105}, {"time": 277944, "pitch": 59, "duration": 933, "velocity": 100}, {"time": 278887, "pitch": 40, "duration": 943, "velocity": 110}, {"time": 278887, "pitch": 47, "duration": 943, "velocity": 105}, {"time": 278897, "pitch": 52, "duration": 943, "velocity": 100}, {"time": 279850, "pitch": 42, "duration": 943, "velocity": 110}, {"time": 279850, "pitch": 49, "duration": 943, "velocity": 105}, {"time": 279860, "pitch": 54, "duration": 943, "velocity": 100}, {"time": 280813, "pitch": 40, "duration": 1896, "velocity": 100}, {"time": 280813, "pitch": 47, "duration": 1896, "velocity": 105}, {"time": 280823, "pitch": 52, "duration": 1896, "velocity": 110}, {"time": 282729, "pitch": 43, "duration": 943, "velocity": 110}, {"time": 282729, "pitch": 50, "duration": 943, "velocity": 105}, {"time": 282739, "pitch": 55, "duration": 943, "velocity": 100}, {"time": 283692, "pitch": 45, "duration": 933, "velocity": 110}, {"time": 283692, "pitch": 52, "duration": 933, "velocity": 105}, {"time": 283702, "pitch": 57, "duration": 933, "velocity": 100}, {"time": 284645, "pitch": 42, "duration": 943, "velocity": 110}, {"time": 284645, "pitch": 49, "duration": 943, "velocity": 105}, {"time": 284655, "pitch": 54, "duration": 943, "velocity": 100}, {"time": 285608, "pitch": 47, "duration": 943, "velocity": 110}, {"time": 285608, "pitch": 54, "duration": 943, "velocity": 105}, {"time": 285618, "pitch": 59, "duration": 943, "velocity": 100}, {"time": 286571, "pitch": 40, "duration": 944, "velocity": 110}, {"time": 286571, "pitch": 47, "duration": 944, "velocity": 105}, {"time": 286582, "pitch": 52, "duration": 943, "velocity": 100}, {"time": 287534, "pitch": 42, "duration": 933, "velocity": 110}, {"time": 287534, "pitch": 49, "duration": 933, "velocity": 105}, {"time": 287544, "pitch": 54, "duration": 933, "velocity": 100}, {"time": 288487, "pitch": 43, "duration": 944, "velocity": 110}, {"time": 288487, "pitch": 50, "duration": 944, "velocity": 105}, {"time": 288497, "pitch": 55, "duration": 944, "velocity": 100}, {"time": 289451, "pitch": 45, "duration": 943, "velocity": 110}, {"time": 289451, "pitch": 52, "duration": 943, "velocity": 105}, {"time": 289461, "pitch": 57, "duration": 943, "velocity": 100}, {"time": 290413, "pitch": 43, "duration": 933, "velocity": 110}, {"time": 290413, "pitch": 50, "duration": 933, "velocity": 105}, {"time": 290423, "pitch": 55, "duration": 933, "velocity": 100}, {"time": 291366, "pitch": 45, "duration": 944, "velocity": 110}, {"time": 291366, "pitch": 52, "duration": 944, "velocity": 105}, {"time": 291377, "pitch": 57, "duration": 943, "velocity": 100}, {"time": 292330, "pitch": 42, "duration": 943, "velocity": 110}, {"time": 292330, "pitch": 49, "duration": 943, "velocity": 105}, {"time": 292340, "pitch": 54, "duration": 943, "velocity": 100}, {"time": 293293, "pitch": 47, "duration": 943, "velocity": 110}, {"time": 293293, "pitch": 54, "duration": 943, "velocity": 105}, {"time": 293303, "pitch": 59, "duration": 943, "velocity": 100}, {"time": 294256, "pitch": 40, "duration": 943, "velocity": 110}, {"time": 294256, "pitch": 47, "duration": 943, "velocity": 105}, {"time": 294266, "pitch": 52, "duration": 943, "velocity": 100}, {"time": 295219, "pitch": 42, "duration": 943, "velocity": 110}, {"time": 295219, "pitch": 49, "duration": 943, "velocity": 105}, {"time": 295229, "pitch": 54, "duration": 943, "velocity": 100}, {"time": 296182, "pitch": 40, "duration": 1907, "velocity": 100}, {"time": 296182, "pitch": 47, "duration": 1907, "velocity": 105}, {"time": 296192, "pitch": 52, "duration": 1907, "velocity": 110}, {"time": 153129, "pitch": 76, "duration": 462, "velocity": 127}, {"time": 153611, "pitch": 79, "duration": 461, "velocity": 110}, {"time": 154574, "pitch": 57, "duration": 451, "velocity": 110}, {"time": 155527, "pitch": 57, "duration": 461, "velocity": 115}, {"time": 212647, "pitch": 59, "duration": 462, "velocity": 100}, {"time": 213249, "pitch": 59, "duration": 121, "velocity": 70}, {"time": 213370, "pitch": 59, "duration": 221, "velocity": 90}, {"time": 205926, "pitch": 59, "duration": 1445, "velocity": 120}, {"time": 207852, "pitch": 59, "duration": 1435, "velocity": 120}, {"time": 209768, "pitch": 59, "duration": 582, "velocity": 120}, {"time": 210731, "pitch": 68, "duration": 582, "velocity": 110}, {"time": 211694, "pitch": 68, "duration": 572, "velocity": 110}, {"time": 213611, "pitch": 59, "duration": 943, "velocity": 90}, {"time": 213611, "pitch": 62, "duration": 943, "velocity": 95}, {"time": 213621, "pitch": 66, "duration": 943, "velocity": 100}, {"time": 214573, "pitch": 59, "duration": 236, "velocity": 90}, {"time": 214573, "pitch": 62, "duration": 236, "velocity": 95}, {"time": 214583, "pitch": 66, "duration": 226, "velocity": 100}, {"time": 214809, "pitch": 59, "duration": 216, "velocity": 80}, {"time": 214809, "pitch": 62, "duration": 216, "velocity": 85}, {"time": 214819, "pitch": 66, "duration": 216, "velocity": 90}, {"time": 215045, "pitch": 59, "duration": 20, "velocity": 85}, {"time": 215045, "pitch": 62, "duration": 20, "velocity": 90}, {"time": 215055, "pitch": 66, "duration": 20, "velocity": 95}, {"time": 215286, "pitch": 59, "duration": 220, "velocity": 80}, {"time": 215286, "pitch": 62, "duration": 220, "velocity": 85}, {"time": 215296, "pitch": 66, "duration": 220, "velocity": 90}, {"time": 215526, "pitch": 59, "duration": 11, "velocity": 60}, {"time": 215526, "pitch": 62, "duration": 11, "velocity": 65}, {"time": 215537, "pitch": 66, "duration": 10, "velocity": 70}, {"time": 215767, "pitch": 59, "duration": 241, "velocity": 90}, {"time": 215767, "pitch": 62, "duration": 241, "velocity": 95}, {"time": 215777, "pitch": 66, "duration": 231, "velocity": 100}, {"time": 216008, "pitch": 59, "duration": 30, "velocity": 80}, {"time": 216008, "pitch": 62, "duration": 30, "velocity": 85}, {"time": 216018, "pitch": 66, "duration": 30, "velocity": 90}, {"time": 216249, "pitch": 59, "duration": 10, "velocity": 70}, {"time": 216249, "pitch": 62, "duration": 10, "velocity": 75}, {"time": 216259, "pitch": 66, "duration": 10, "velocity": 80}, {"time": 216490, "pitch": 59, "duration": 240, "velocity": 90}, {"time": 216490, "pitch": 62, "duration": 240, "velocity": 95}, {"time": 216500, "pitch": 66, "duration": 230, "velocity": 100}, {"time": 216730, "pitch": 59, "duration": 221, "velocity": 80}, {"time": 216730, "pitch": 62, "duration": 221, "velocity": 85}, {"time": 216740, "pitch": 66, "duration": 221, "velocity": 90}, {"time": 216971, "pitch": 59, "duration": 20, "velocity": 85}, {"time": 216971, "pitch": 62, "duration": 20, "velocity": 90}, {"time": 216981, "pitch": 66, "duration": 20, "velocity": 95}, {"time": 217212, "pitch": 59, "duration": 221, "velocity": 80}, {"time": 217212, "pitch": 62, "duration": 221, "velocity": 85}, {"time": 217222, "pitch": 66, "duration": 221, "velocity": 90}, {"time": 217453, "pitch": 59, "duration": 933, "velocity": 90}, {"time": 217453, "pitch": 64, "duration": 933, "velocity": 95}, {"time": 217463, "pitch": 67, "duration": 933, "velocity": 100}, {"time": 218406, "pitch": 59, "duration": 240, "velocity": 90}, {"time": 218406, "pitch": 64, "duration": 240, "velocity": 95}, {"time": 218416, "pitch": 67, "duration": 230, "velocity": 100}, {"time": 218646, "pitch": 59, "duration": 221, "velocity": 80}, {"time": 218646, "pitch": 64, "duration": 221, "velocity": 85}, {"time": 218656, "pitch": 67, "duration": 221, "velocity": 90}, {"time": 218887, "pitch": 59, "duration": 20, "velocity": 85}, {"time": 218887, "pitch": 64, "duration": 20, "velocity": 90}, {"time": 218897, "pitch": 67, "duration": 20, "velocity": 95}, {"time": 219128, "pitch": 59, "duration": 221, "velocity": 80}, {"time": 219128, "pitch": 64, "duration": 221, "velocity": 85}, {"time": 219138, "pitch": 67, "duration": 221, "velocity": 90}, {"time": 219369, "pitch": 61, "duration": 943, "velocity": 90}, {"time": 219369, "pitch": 66, "duration": 943, "velocity": 95}, {"time": 219379, "pitch": 69, "duration": 943, "velocity": 100}, {"time": 220332, "pitch": 61, "duration": 241, "velocity": 90}, {"time": 220332, "pitch": 66, "duration": 241, "velocity": 95}, {"time": 220342, "pitch": 69, "duration": 231, "velocity": 100}, {"time": 220573, "pitch": 61, "duration": 220, "velocity": 80}, {"time": 220573, "pitch": 66, "duration": 220, "velocity": 85}, {"time": 220583, "pitch": 69, "duration": 220, "velocity": 90}, {"time": 220813, "pitch": 61, "duration": 21, "velocity": 85}, {"time": 220813, "pitch": 66, "duration": 21, "velocity": 90}, {"time": 220824, "pitch": 69, "duration": 20, "velocity": 95}, {"time": 221054, "pitch": 61, "duration": 221, "velocity": 80}, {"time": 221054, "pitch": 66, "duration": 221, "velocity": 85}, {"time": 221064, "pitch": 69, "duration": 221, "velocity": 90}, {"time": 234727, "pitch": 52, "duration": 1907, "velocity": 100}, {"time": 234727, "pitch": 59, "duration": 1907, "velocity": 105}, {"time": 234737, "pitch": 64, "duration": 1907, "velocity": 110}, {"time": 478, "pitch": 71, "duration": 229, "velocity": 90}, {"time": 717, "pitch": 83, "duration": 230, "velocity": 120}, {"time": 957, "pitch": 71, "duration": 111, "velocity": 90}, {"time": 1078, "pitch": 81, "duration": 231, "velocity": 120}, {"time": 1319, "pitch": 71, "duration": 110, "velocity": 90}, {"time": 1439, "pitch": 78, "duration": 231, "velocity": 120}, {"time": 1680, "pitch": 71, "duration": 110, "velocity": 90}, {"time": 1800, "pitch": 76, "duration": 231, "velocity": 120}, {"time": 2041, "pitch": 71, "duration": 110, "velocity": 90}, {"time": 2161, "pitch": 78, "duration": 231, "velocity": 120}, {"time": 2402, "pitch": 71, "duration": 231, "velocity": 90}, {"time": 2643, "pitch": 83, "duration": 231, "velocity": 120}, {"time": 2884, "pitch": 71, "duration": 108, "velocity": 90}, {"time": 3002, "pitch": 81, "duration": 225, "velocity": 120}, {"time": 3237, "pitch": 71, "duration": 108, "velocity": 90}, {"time": 3355, "pitch": 78, "duration": 110, "velocity": 120}, {"time": 3475, "pitch": 76, "duration": 111, "velocity": 120}, {"time": 3596, "pitch": 78, "duration": 110, "velocity": 120}, {"time": 3716, "pitch": 81, "duration": 351, "velocity": 120}, {"time": 4077, "pitch": 78, "duration": 231, "velocity": 120}, {"time": 4318, "pitch": 71, "duration": 231, "velocity": 90}, {"time": 4559, "pitch": 83, "duration": 231, "velocity": 120}, {"time": 4800, "pitch": 71, "duration": 110, "velocity": 90}, {"time": 4920, "pitch": 81, "duration": 231, "velocity": 120}, {"time": 5161, "pitch": 71, "duration": 110, "velocity": 90}, {"time": 5281, "pitch": 78, "duration": 231, "velocity": 120}, {"time": 5522, "pitch": 71, "duration": 110, "velocity": 90}, {"time": 5643, "pitch": 76, "duration": 230, "velocity": 120}, {"time": 5883, "pitch": 71, "duration": 111, "velocity": 90}, {"time": 6004, "pitch": 78, "duration": 230, "velocity": 120}, {"time": 6244, "pitch": 71, "duration": 226, "velocity": 90}, {"time": 6480, "pitch": 83, "duration": 226, "velocity": 120}, {"time": 6716, "pitch": 71, "duration": 110, "velocity": 90}, {"time": 6836, "pitch": 81, "duration": 231, "velocity": 120}, {"time": 7077, "pitch": 71, "duration": 110, "velocity": 90}, {"time": 7197, "pitch": 78, "duration": 111, "velocity": 120}, {"time": 7318, "pitch": 76, "duration": 110, "velocity": 120}, {"time": 7438, "pitch": 78, "duration": 110, "velocity": 120}, {"time": 7558, "pitch": 81, "duration": 352, "velocity": 120}, {"time": 7920, "pitch": 78, "duration": 230, "velocity": 120}, {"time": 8160, "pitch": 71, "duration": 231, "velocity": 90}, {"time": 8401, "pitch": 83, "duration": 231, "velocity": 120}, {"time": 8642, "pitch": 71, "duration": 110, "velocity": 90}, {"time": 8762, "pitch": 81, "duration": 231, "velocity": 120}, {"time": 9003, "pitch": 71, "duration": 111, "velocity": 90}, {"time": 9124, "pitch": 78, "duration": 230, "velocity": 120}, {"time": 9364, "pitch": 71, "duration": 111, "velocity": 90}, {"time": 9485, "pitch": 76, "duration": 228, "velocity": 120}, {"time": 9723, "pitch": 71, "duration": 108, "velocity": 90}, {"time": 9841, "pitch": 78, "duration": 226, "velocity": 120}, {"time": 10076, "pitch": 71, "duration": 231, "velocity": 90}, {"time": 10317, "pitch": 83, "duration": 231, "velocity": 120}, {"time": 10558, "pitch": 71, "duration": 110, "velocity": 90}, {"time": 10678, "pitch": 81, "duration": 231, "velocity": 120}, {"time": 10919, "pitch": 71, "duration": 110, "velocity": 90}, {"time": 11039, "pitch": 78, "duration": 111, "velocity": 120}, {"time": 11160, "pitch": 76, "duration": 110, "velocity": 120}, {"time": 11280, "pitch": 78, "duration": 111, "velocity": 120}, {"time": 11401, "pitch": 81, "duration": 351, "velocity": 120}, {"time": 11762, "pitch": 78, "duration": 231, "velocity": 120}, {"time": 12003, "pitch": 71, "duration": 230, "velocity": 90}, {"time": 12243, "pitch": 83, "duration": 231, "velocity": 120}, {"time": 12484, "pitch": 71, "duration": 108, "velocity": 90}, {"time": 12602, "pitch": 81, "duration": 226, "velocity": 120}, {"time": 12838, "pitch": 71, "duration": 108, "velocity": 90}, {"time": 12955, "pitch": 78, "duration": 231, "velocity": 120}, {"time": 13196, "pitch": 71, "duration": 111, "velocity": 90}, {"time": 13317, "pitch": 76, "duration": 230, "velocity": 120}, {"time": 13557, "pitch": 71, "duration": 111, "velocity": 90}, {"time": 13678, "pitch": 78, "duration": 231, "velocity": 120}, {"time": 13919, "pitch": 71, "duration": 230, "velocity": 90}, {"time": 14159, "pitch": 83, "duration": 231, "velocity": 120}, {"time": 14400, "pitch": 71, "duration": 110, "velocity": 90}, {"time": 14521, "pitch": 81, "duration": 230, "velocity": 120}, {"time": 14761, "pitch": 71, "duration": 111, "velocity": 90}, {"time": 14882, "pitch": 78, "duration": 110, "velocity": 120}, {"time": 15002, "pitch": 76, "duration": 110, "velocity": 120}, {"time": 15123, "pitch": 78, "duration": 110, "velocity": 120}, {"time": 15243, "pitch": 81, "duration": 351, "velocity": 120}, {"time": 15604, "pitch": 78, "duration": 231, "velocity": 120}, {"time": 15845, "pitch": 71, "duration": 226, "velocity": 90}, {"time": 16080, "pitch": 83, "duration": 226, "velocity": 120}, {"time": 16316, "pitch": 71, "duration": 110, "velocity": 90}, {"time": 16436, "pitch": 81, "duration": 231, "velocity": 120}, {"time": 16677, "pitch": 71, "duration": 111, "velocity": 90}, {"time": 16798, "pitch": 78, "duration": 230, "velocity": 120}, {"time": 17038, "pitch": 71, "duration": 111, "velocity": 90}, {"time": 17159, "pitch": 76, "duration": 231, "velocity": 120}, {"time": 17400, "pitch": 71, "duration": 110, "velocity": 90}, {"time": 17520, "pitch": 78, "duration": 231, "velocity": 120}, {"time": 17761, "pitch": 71, "duration": 231, "velocity": 90}, {"time": 18002, "pitch": 83, "duration": 230, "velocity": 120}, {"time": 18242, "pitch": 71, "duration": 111, "velocity": 90}, {"time": 18363, "pitch": 81, "duration": 231, "velocity": 120}, {"time": 18604, "pitch": 71, "duration": 110, "velocity": 90}, {"time": 18724, "pitch": 78, "duration": 108, "velocity": 120}, {"time": 18842, "pitch": 76, "duration": 108, "velocity": 120}, {"time": 18960, "pitch": 78, "duration": 108, "velocity": 120}, {"time": 19077, "pitch": 81, "duration": 349, "velocity": 120}, {"time": 19436, "pitch": 78, "duration": 231, "velocity": 120}, {"time": 19677, "pitch": 71, "duration": 230, "velocity": 90}, {"time": 19917, "pitch": 83, "duration": 231, "velocity": 120}, {"time": 20158, "pitch": 71, "duration": 111, "velocity": 90}, {"time": 20279, "pitch": 81, "duration": 230, "velocity": 120}, {"time": 20519, "pitch": 71, "duration": 111, "velocity": 90}, {"time": 20640, "pitch": 78, "duration": 231, "velocity": 120}, {"time": 20881, "pitch": 71, "duration": 110, "velocity": 90}, {"time": 21001, "pitch": 76, "duration": 231, "velocity": 120}, {"time": 21242, "pitch": 71, "duration": 110, "velocity": 90}, {"time": 21362, "pitch": 78, "duration": 231, "velocity": 120}, {"time": 21603, "pitch": 71, "duration": 231, "velocity": 90}, {"time": 21844, "pitch": 83, "duration": 231, "velocity": 120}, {"time": 22085, "pitch": 71, "duration": 108, "velocity": 90}, {"time": 22202, "pitch": 81, "duration": 226, "velocity": 120}, {"time": 22438, "pitch": 71, "duration": 108, "velocity": 90}, {"time": 22556, "pitch": 78, "duration": 110, "velocity": 120}, {"time": 22676, "pitch": 76, "duration": 111, "velocity": 120}, {"time": 22797, "pitch": 78, "duration": 110, "velocity": 120}, {"time": 22917, "pitch": 81, "duration": 351, "velocity": 120}, {"time": 23278, "pitch": 78, "duration": 231, "velocity": 120}, {"time": 23519, "pitch": 71, "duration": 231, "velocity": 90}, {"time": 23760, "pitch": 83, "duration": 230, "velocity": 120}, {"time": 24001, "pitch": 71, "duration": 110, "velocity": 90}, {"time": 24121, "pitch": 81, "duration": 231, "velocity": 120}, {"time": 24362, "pitch": 71, "duration": 110, "velocity": 90}, {"time": 24482, "pitch": 78, "duration": 231, "velocity": 120}, {"time": 24723, "pitch": 71, "duration": 110, "velocity": 90}, {"time": 24843, "pitch": 76, "duration": 229, "velocity": 120}, {"time": 25081, "pitch": 71, "duration": 108, "velocity": 90}, {"time": 25199, "pitch": 78, "duration": 226, "velocity": 120}, {"time": 25435, "pitch": 71, "duration": 231, "velocity": 90}, {"time": 25676, "pitch": 83, "duration": 230, "velocity": 120}, {"time": 25916, "pitch": 71, "duration": 111, "velocity": 90}, {"time": 26037, "pitch": 81, "duration": 231, "velocity": 120}, {"time": 26278, "pitch": 71, "duration": 110, "velocity": 90}, {"time": 26398, "pitch": 78, "duration": 110, "velocity": 120}, {"time": 26518, "pitch": 76, "duration": 111, "velocity": 120}, {"time": 26639, "pitch": 78, "duration": 110, "velocity": 120}, {"time": 26759, "pitch": 81, "duration": 351, "velocity": 120}, {"time": 27120, "pitch": 78, "duration": 231, "velocity": 120}, {"time": 27361, "pitch": 71, "duration": 231, "velocity": 90}, {"time": 27602, "pitch": 83, "duration": 231, "velocity": 120}, {"time": 27843, "pitch": 71, "duration": 110, "velocity": 90}, {"time": 27963, "pitch": 81, "duration": 231, "velocity": 120}, {"time": 28204, "pitch": 71, "duration": 110, "velocity": 90}, {"time": 28324, "pitch": 78, "duration": 226, "velocity": 120}, {"time": 28560, "pitch": 71, "duration": 108, "velocity": 90}, {"time": 28678, "pitch": 76, "duration": 228, "velocity": 120}, {"time": 28916, "pitch": 71, "duration": 110, "velocity": 90}, {"time": 29036, "pitch": 78, "duration": 231, "velocity": 120}, {"time": 29277, "pitch": 71, "duration": 231, "velocity": 90}, {"time": 29518, "pitch": 83, "duration": 231, "velocity": 120}, {"time": 29759, "pitch": 71, "duration": 110, "velocity": 90}, {"time": 29879, "pitch": 81, "duration": 231, "velocity": 120}, {"time": 30120, "pitch": 71, "duration": 110, "velocity": 90}, {"time": 30240, "pitch": 78, "duration": 111, "velocity": 120}, {"time": 30361, "pitch": 76, "duration": 110, "velocity": 120}, {"time": 30481, "pitch": 78, "duration": 110, "velocity": 120}, {"time": 30601, "pitch": 81, "duration": 352, "velocity": 120}, {"time": 30963, "pitch": 78, "duration": 230, "velocity": 120}, {"time": 31203, "pitch": 71, "duration": 231, "velocity": 90}, {"time": 31444, "pitch": 83, "duration": 231, "velocity": 120}, {"time": 31685, "pitch": 71, "duration": 108, "velocity": 90}, {"time": 31803, "pitch": 81, "duration": 226, "velocity": 120}, {"time": 32038, "pitch": 71, "duration": 108, "velocity": 90}, {"time": 32156, "pitch": 78, "duration": 111, "velocity": 120}, {"time": 32277, "pitch": 76, "duration": 110, "velocity": 120}, {"time": 32397, "pitch": 78, "duration": 110, "velocity": 120}, {"time": 32517, "pitch": 81, "duration": 352, "velocity": 120}, {"time": 32879, "pitch": 78, "duration": 230, "velocity": 120}, {"time": 94564, "pitch": 71, "duration": 226, "velocity": 90}, {"time": 94800, "pitch": 83, "duration": 225, "velocity": 120}, {"time": 95035, "pitch": 71, "duration": 110, "velocity": 90}, {"time": 95156, "pitch": 81, "duration": 230, "velocity": 120}, {"time": 95396, "pitch": 71, "duration": 111, "velocity": 90}, {"time": 95517, "pitch": 78, "duration": 230, "velocity": 120}, {"time": 95757, "pitch": 71, "duration": 111, "velocity": 90}, {"time": 95878, "pitch": 76, "duration": 231, "velocity": 120}, {"time": 96119, "pitch": 71, "duration": 110, "velocity": 90}, {"time": 96239, "pitch": 78, "duration": 231, "velocity": 120}, {"time": 96480, "pitch": 71, "duration": 231, "velocity": 90}, {"time": 96721, "pitch": 83, "duration": 230, "velocity": 120}, {"time": 96961, "pitch": 71, "duration": 111, "velocity": 90}, {"time": 97082, "pitch": 81, "duration": 231, "velocity": 120}, {"time": 97323, "pitch": 71, "duration": 110, "velocity": 90}, {"time": 97443, "pitch": 78, "duration": 110, "velocity": 120}, {"time": 97563, "pitch": 76, "duration": 111, "velocity": 120}, {"time": 97684, "pitch": 78, "duration": 110, "velocity": 120}, {"time": 97804, "pitch": 81, "duration": 346, "velocity": 120}, {"time": 98160, "pitch": 78, "duration": 226, "velocity": 120}, {"time": 98396, "pitch": 71, "duration": 231, "velocity": 90}, {"time": 98637, "pitch": 83, "duration": 230, "velocity": 120}, {"time": 98877, "pitch": 71, "duration": 111, "velocity": 90}, {"time": 98998, "pitch": 81, "duration": 231, "velocity": 120}, {"time": 99239, "pitch": 71, "duration": 110, "velocity": 90}, {"time": 99359, "pitch": 78, "duration": 231, "velocity": 120}, {"time": 99600, "pitch": 71, "duration": 110, "velocity": 90}, {"time": 99720, "pitch": 76, "duration": 231, "velocity": 120}, {"time": 99961, "pitch": 71, "duration": 110, "velocity": 90}, {"time": 100081, "pitch": 78, "duration": 231, "velocity": 120}, {"time": 100322, "pitch": 71, "duration": 231, "velocity": 90}, {"time": 100563, "pitch": 83, "duration": 231, "velocity": 120}, {"time": 100804, "pitch": 71, "duration": 108, "velocity": 90}, {"time": 100921, "pitch": 81, "duration": 226, "velocity": 120}, {"time": 101157, "pitch": 71, "duration": 108, "velocity": 90}, {"time": 101275, "pitch": 78, "duration": 110, "velocity": 120}, {"time": 101395, "pitch": 76, "duration": 111, "velocity": 120}, {"time": 101516, "pitch": 78, "duration": 110, "velocity": 120}, {"time": 101636, "pitch": 81, "duration": 351, "velocity": 120}, {"time": 101997, "pitch": 78, "duration": 231, "velocity": 120}, {"time": 102238, "pitch": 71, "duration": 231, "velocity": 90}, {"time": 102479, "pitch": 83, "duration": 231, "velocity": 120}, {"time": 102720, "pitch": 71, "duration": 110, "velocity": 90}, {"time": 102840, "pitch": 81, "duration": 231, "velocity": 120}, {"time": 103081, "pitch": 71, "duration": 110, "velocity": 90}, {"time": 103201, "pitch": 78, "duration": 231, "velocity": 120}, {"time": 103442, "pitch": 71, "duration": 110, "velocity": 90}, {"time": 103562, "pitch": 76, "duration": 231, "velocity": 120}, {"time": 103803, "pitch": 71, "duration": 111, "velocity": 90}, {"time": 103924, "pitch": 78, "duration": 230, "velocity": 120}, {"time": 104164, "pitch": 71, "duration": 226, "velocity": 90}, {"time": 104400, "pitch": 83, "duration": 226, "velocity": 120}, {"time": 104636, "pitch": 71, "duration": 110, "velocity": 90}, {"time": 104756, "pitch": 81, "duration": 231, "velocity": 120}, {"time": 104997, "pitch": 71, "duration": 110, "velocity": 90}, {"time": 105117, "pitch": 78, "duration": 110, "velocity": 120}, {"time": 105237, "pitch": 76, "duration": 111, "velocity": 120}, {"time": 105358, "pitch": 78, "duration": 110, "velocity": 120}, {"time": 105478, "pitch": 81, "duration": 351, "velocity": 120}, {"time": 105839, "pitch": 78, "duration": 231, "velocity": 120}, {"time": 106080, "pitch": 71, "duration": 231, "velocity": 90}, {"time": 106321, "pitch": 83, "duration": 231, "velocity": 120}, {"time": 106562, "pitch": 71, "duration": 110, "velocity": 90}, {"time": 106682, "pitch": 81, "duration": 231, "velocity": 120}, {"time": 106923, "pitch": 71, "duration": 110, "velocity": 90}, {"time": 107043, "pitch": 78, "duration": 231, "velocity": 120}, {"time": 107284, "pitch": 71, "duration": 111, "velocity": 90}, {"time": 107405, "pitch": 76, "duration": 228, "velocity": 120}, {"time": 107643, "pitch": 71, "duration": 108, "velocity": 90}, {"time": 107761, "pitch": 78, "duration": 225, "velocity": 120}, {"time": 107996, "pitch": 71, "duration": 231, "velocity": 90}, {"time": 108237, "pitch": 83, "duration": 231, "velocity": 120}, {"time": 108478, "pitch": 71, "duration": 110, "velocity": 90}, {"time": 108598, "pitch": 81, "duration": 231, "velocity": 120}, {"time": 108839, "pitch": 71, "duration": 110, "velocity": 90}, {"time": 108959, "pitch": 78, "duration": 111, "velocity": 120}, {"time": 109080, "pitch": 76, "duration": 110, "velocity": 120}, {"time": 109200, "pitch": 78, "duration": 110, "velocity": 120}, {"time": 109321, "pitch": 81, "duration": 351, "velocity": 120}, {"time": 109682, "pitch": 78, "duration": 230, "velocity": 120}, {"time": 109923, "pitch": 71, "duration": 230, "velocity": 90}, {"time": 110163, "pitch": 83, "duration": 231, "velocity": 120}, {"time": 110404, "pitch": 71, "duration": 108, "velocity": 90}, {"time": 110522, "pitch": 81, "duration": 226, "velocity": 120}, {"time": 110758, "pitch": 71, "duration": 108, "velocity": 90}, {"time": 110875, "pitch": 78, "duration": 111, "velocity": 120}, {"time": 110996, "pitch": 76, "duration": 110, "velocity": 120}, {"time": 111116, "pitch": 78, "duration": 110, "velocity": 120}, {"time": 111236, "pitch": 81, "duration": 352, "velocity": 120}, {"time": 111598, "pitch": 78, "duration": 230, "velocity": 120}, {"time": 157924, "pitch": 71, "duration": 226, "velocity": 90}, {"time": 158160, "pitch": 83, "duration": 226, "velocity": 120}, {"time": 158396, "pitch": 71, "duration": 110, "velocity": 90}, {"time": 158516, "pitch": 81, "duration": 231, "velocity": 120}, {"time": 158757, "pitch": 71, "duration": 110, "velocity": 90}, {"time": 158877, "pitch": 78, "duration": 231, "velocity": 120}, {"time": 159118, "pitch": 71, "duration": 110, "velocity": 90}, {"time": 159238, "pitch": 76, "duration": 231, "velocity": 120}, {"time": 159479, "pitch": 71, "duration": 111, "velocity": 90}, {"time": 159600, "pitch": 78, "duration": 230, "velocity": 120}, {"time": 159840, "pitch": 71, "duration": 231, "velocity": 90}, {"time": 160081, "pitch": 83, "duration": 231, "velocity": 120}, {"time": 160322, "pitch": 71, "duration": 110, "velocity": 90}, {"time": 160442, "pitch": 81, "duration": 231, "velocity": 120}, {"time": 160683, "pitch": 71, "duration": 111, "velocity": 90}, {"time": 160804, "pitch": 78, "duration": 110, "velocity": 120}, {"time": 160924, "pitch": 76, "duration": 110, "velocity": 120}, {"time": 161044, "pitch": 78, "duration": 111, "velocity": 120}, {"time": 161165, "pitch": 81, "duration": 346, "velocity": 120}, {"time": 161521, "pitch": 78, "duration": 226, "velocity": 120}, {"time": 161756, "pitch": 71, "duration": 231, "velocity": 90}, {"time": 161997, "pitch": 83, "duration": 231, "velocity": 120}, {"time": 162238, "pitch": 71, "duration": 110, "velocity": 90}, {"time": 162358, "pitch": 81, "duration": 231, "velocity": 120}, {"time": 162599, "pitch": 71, "duration": 110, "velocity": 90}, {"time": 162719, "pitch": 78, "duration": 231, "velocity": 120}, {"time": 162960, "pitch": 71, "duration": 111, "velocity": 90}, {"time": 163081, "pitch": 76, "duration": 230, "velocity": 120}, {"time": 163321, "pitch": 71, "duration": 111, "velocity": 90}, {"time": 163442, "pitch": 78, "duration": 231, "velocity": 120}, {"time": 163683, "pitch": 71, "duration": 230, "velocity": 90}, {"time": 163923, "pitch": 83, "duration": 231, "velocity": 120}, {"time": 164164, "pitch": 71, "duration": 108, "velocity": 90}, {"time": 164282, "pitch": 81, "duration": 226, "velocity": 120}, {"time": 164518, "pitch": 71, "duration": 108, "velocity": 90}, {"time": 164635, "pitch": 78, "duration": 111, "velocity": 120}, {"time": 164756, "pitch": 76, "duration": 110, "velocity": 120}, {"time": 164876, "pitch": 78, "duration": 111, "velocity": 120}, {"time": 164997, "pitch": 81, "duration": 351, "velocity": 120}, {"time": 165358, "pitch": 78, "duration": 231, "velocity": 120}, {"time": 165599, "pitch": 71, "duration": 230, "velocity": 90}, {"time": 165839, "pitch": 83, "duration": 231, "velocity": 120}, {"time": 166080, "pitch": 71, "duration": 111, "velocity": 90}, {"time": 166201, "pitch": 81, "duration": 230, "velocity": 120}, {"time": 166441, "pitch": 71, "duration": 111, "velocity": 90}, {"time": 166562, "pitch": 78, "duration": 230, "velocity": 120}, {"time": 166803, "pitch": 71, "duration": 110, "velocity": 90}, {"time": 166923, "pitch": 76, "duration": 231, "velocity": 120}, {"time": 167164, "pitch": 71, "duration": 110, "velocity": 90}, {"time": 167284, "pitch": 78, "duration": 231, "velocity": 120}, {"time": 167525, "pitch": 71, "duration": 226, "velocity": 90}, {"time": 167760, "pitch": 83, "duration": 226, "velocity": 120}, {"time": 167996, "pitch": 71, "duration": 110, "velocity": 90}, {"time": 168116, "pitch": 81, "duration": 231, "velocity": 120}, {"time": 168357, "pitch": 71, "duration": 111, "velocity": 90}, {"time": 168478, "pitch": 78, "duration": 110, "velocity": 120}, {"time": 168598, "pitch": 76, "duration": 110, "velocity": 120}, {"time": 168718, "pitch": 78, "duration": 111, "velocity": 120}, {"time": 168839, "pitch": 81, "duration": 351, "velocity": 120}, {"time": 169200, "pitch": 78, "duration": 231, "velocity": 120}, {"time": 169441, "pitch": 71, "duration": 231, "velocity": 90}, {"time": 169682, "pitch": 83, "duration": 230, "velocity": 120}, {"time": 169922, "pitch": 71, "duration": 111, "velocity": 90}, {"time": 170043, "pitch": 81, "duration": 231, "velocity": 120}, {"time": 170284, "pitch": 71, "duration": 110, "velocity": 90}, {"time": 170404, "pitch": 78, "duration": 226, "velocity": 120}, {"time": 170640, "pitch": 71, "duration": 108, "velocity": 90}, {"time": 170757, "pitch": 76, "duration": 228, "velocity": 120}, {"time": 170996, "pitch": 71, "duration": 110, "velocity": 90}, {"time": 171116, "pitch": 78, "duration": 231, "velocity": 120}, {"time": 171357, "pitch": 71, "duration": 230, "velocity": 90}, {"time": 171597, "pitch": 83, "duration": 231, "velocity": 120}, {"time": 171838, "pitch": 71, "duration": 111, "velocity": 90}, {"time": 171959, "pitch": 81, "duration": 230, "velocity": 120}, {"time": 172199, "pitch": 71, "duration": 111, "velocity": 90}, {"time": 172320, "pitch": 78, "duration": 110, "velocity": 120}, {"time": 172440, "pitch": 76, "duration": 111, "velocity": 120}, {"time": 172561, "pitch": 78, "duration": 110, "velocity": 120}, {"time": 172681, "pitch": 81, "duration": 351, "velocity": 120}, {"time": 173042, "pitch": 78, "duration": 231, "velocity": 120}, {"time": 173283, "pitch": 71, "duration": 231, "velocity": 90}, {"time": 173524, "pitch": 83, "duration": 231, "velocity": 120}, {"time": 173765, "pitch": 71, "duration": 108, "velocity": 90}, {"time": 173882, "pitch": 81, "duration": 226, "velocity": 120}, {"time": 174118, "pitch": 71, "duration": 108, "velocity": 90}, {"time": 174236, "pitch": 78, "duration": 231, "velocity": 120}, {"time": 174477, "pitch": 71, "duration": 110, "velocity": 90}, {"time": 174597, "pitch": 76, "duration": 231, "velocity": 120}, {"time": 174838, "pitch": 71, "duration": 110, "velocity": 90}, {"time": 174958, "pitch": 78, "duration": 231, "velocity": 120}, {"time": 175199, "pitch": 71, "duration": 231, "velocity": 90}, {"time": 175440, "pitch": 83, "duration": 231, "velocity": 120}, {"time": 175681, "pitch": 71, "duration": 110, "velocity": 90}, {"time": 175801, "pitch": 81, "duration": 231, "velocity": 120}, {"time": 176042, "pitch": 71, "duration": 110, "velocity": 90}, {"time": 176162, "pitch": 78, "duration": 110, "velocity": 120}, {"time": 176283, "pitch": 76, "duration": 110, "velocity": 120}, {"time": 176403, "pitch": 78, "duration": 110, "velocity": 120}, {"time": 176523, "pitch": 81, "duration": 346, "velocity": 120}, {"time": 176879, "pitch": 78, "duration": 226, "velocity": 120}, {"time": 177115, "pitch": 71, "duration": 231, "velocity": 90}, {"time": 177356, "pitch": 83, "duration": 230, "velocity": 120}, {"time": 177596, "pitch": 71, "duration": 111, "velocity": 90}, {"time": 177717, "pitch": 81, "duration": 231, "velocity": 120}, {"time": 177958, "pitch": 71, "duration": 110, "velocity": 90}, {"time": 178078, "pitch": 78, "duration": 231, "velocity": 120}, {"time": 178319, "pitch": 71, "duration": 110, "velocity": 90}, {"time": 178439, "pitch": 76, "duration": 231, "velocity": 120}, {"time": 178680, "pitch": 71, "duration": 110, "velocity": 90}, {"time": 178800, "pitch": 78, "duration": 231, "velocity": 120}, {"time": 179041, "pitch": 71, "duration": 231, "velocity": 90}, {"time": 179282, "pitch": 83, "duration": 231, "velocity": 120}, {"time": 179523, "pitch": 71, "duration": 110, "velocity": 90}, {"time": 179643, "pitch": 81, "duration": 231, "velocity": 120}, {"time": 179884, "pitch": 71, "duration": 110, "velocity": 90}, {"time": 180004, "pitch": 78, "duration": 108, "velocity": 120}, {"time": 180122, "pitch": 76, "duration": 108, "velocity": 120}, {"time": 180240, "pitch": 78, "duration": 108, "velocity": 120}, {"time": 180358, "pitch": 81, "duration": 348, "velocity": 120}, {"time": 180716, "pitch": 78, "duration": 231, "velocity": 120}, {"time": 180957, "pitch": 71, "duration": 231, "velocity": 90}, {"time": 181198, "pitch": 83, "duration": 231, "velocity": 120}, {"time": 181439, "pitch": 71, "duration": 110, "velocity": 90}, {"time": 181559, "pitch": 81, "duration": 231, "velocity": 120}, {"time": 181800, "pitch": 71, "duration": 110, "velocity": 90}, {"time": 181920, "pitch": 78, "duration": 231, "velocity": 120}, {"time": 182161, "pitch": 71, "duration": 110, "velocity": 90}, {"time": 182281, "pitch": 76, "duration": 231, "velocity": 120}, {"time": 182522, "pitch": 71, "duration": 111, "velocity": 90}, {"time": 182643, "pitch": 78, "duration": 230, "velocity": 120}, {"time": 182883, "pitch": 71, "duration": 231, "velocity": 90}, {"time": 183124, "pitch": 83, "duration": 231, "velocity": 120}, {"time": 183365, "pitch": 71, "duration": 108, "velocity": 90}, {"time": 183483, "pitch": 81, "duration": 226, "velocity": 120}, {"time": 183718, "pitch": 71, "duration": 108, "velocity": 90}, {"time": 183836, "pitch": 78, "duration": 111, "velocity": 120}, {"time": 183957, "pitch": 76, "duration": 110, "velocity": 120}, {"time": 184077, "pitch": 78, "duration": 110, "velocity": 120}, {"time": 184197, "pitch": 81, "duration": 352, "velocity": 120}, {"time": 184559, "pitch": 78, "duration": 230, "velocity": 120}, {"time": 184799, "pitch": 71, "duration": 231, "velocity": 90}, {"time": 185040, "pitch": 83, "duration": 231, "velocity": 120}, {"time": 185281, "pitch": 71, "duration": 110, "velocity": 90}, {"time": 185401, "pitch": 81, "duration": 231, "velocity": 120}, {"time": 185642, "pitch": 71, "duration": 110, "velocity": 90}, {"time": 185763, "pitch": 78, "duration": 230, "velocity": 120}, {"time": 186003, "pitch": 71, "duration": 111, "velocity": 90}, {"time": 186124, "pitch": 76, "duration": 228, "velocity": 120}, {"time": 186362, "pitch": 71, "duration": 108, "velocity": 90}, {"time": 186480, "pitch": 78, "duration": 226, "velocity": 120}, {"time": 186715, "pitch": 71, "duration": 231, "velocity": 90}, {"time": 186956, "pitch": 83, "duration": 231, "velocity": 120}, {"time": 187197, "pitch": 71, "duration": 110, "velocity": 90}, {"time": 187317, "pitch": 81, "duration": 231, "velocity": 120}, {"time": 187558, "pitch": 71, "duration": 110, "velocity": 90}, {"time": 187678, "pitch": 78, "duration": 111, "velocity": 120}, {"time": 187799, "pitch": 76, "duration": 110, "velocity": 120}, {"time": 187919, "pitch": 78, "duration": 111, "velocity": 120}, {"time": 188040, "pitch": 81, "duration": 351, "velocity": 120}, {"time": 188401, "pitch": 78, "duration": 231, "velocity": 120}, {"time": 188642, "pitch": 71, "duration": 230, "velocity": 90}, {"time": 188882, "pitch": 83, "duration": 231, "velocity": 120}, {"time": 189123, "pitch": 71, "duration": 111, "velocity": 90}, {"time": 189244, "pitch": 81, "duration": 230, "velocity": 120}, {"time": 189484, "pitch": 71, "duration": 111, "velocity": 90}, {"time": 189605, "pitch": 78, "duration": 108, "velocity": 120}, {"time": 189722, "pitch": 76, "duration": 109, "velocity": 120}, {"time": 189840, "pitch": 78, "duration": 108, "velocity": 120}, {"time": 189958, "pitch": 81, "duration": 349, "velocity": 120}, {"time": 190317, "pitch": 78, "duration": 230, "velocity": 120}, {"time": 205916, "pitch": 71, "duration": 231, "velocity": 90}, {"time": 206157, "pitch": 83, "duration": 231, "velocity": 120}, {"time": 206398, "pitch": 71, "duration": 110, "velocity": 90}, {"time": 206518, "pitch": 81, "duration": 231, "velocity": 120}, {"time": 206759, "pitch": 71, "duration": 110, "velocity": 90}, {"time": 206879, "pitch": 78, "duration": 231, "velocity": 120}, {"time": 207120, "pitch": 71, "duration": 110, "velocity": 90}, {"time": 207240, "pitch": 76, "duration": 231, "velocity": 120}, {"time": 207481, "pitch": 71, "duration": 111, "velocity": 90}, {"time": 207602, "pitch": 78, "duration": 230, "velocity": 120}, {"time": 207842, "pitch": 71, "duration": 231, "velocity": 90}, {"time": 208083, "pitch": 83, "duration": 231, "velocity": 120}, {"time": 208324, "pitch": 71, "duration": 108, "velocity": 90}, {"time": 208442, "pitch": 81, "duration": 226, "velocity": 120}, {"time": 208677, "pitch": 71, "duration": 108, "velocity": 90}, {"time": 208795, "pitch": 78, "duration": 110, "velocity": 120}, {"time": 208916, "pitch": 76, "duration": 110, "velocity": 120}, {"time": 209036, "pitch": 78, "duration": 110, "velocity": 120}, {"time": 209156, "pitch": 81, "duration": 351, "velocity": 120}, {"time": 209517, "pitch": 78, "duration": 231, "velocity": 120}, {"time": 209758, "pitch": 71, "duration": 231, "velocity": 90}, {"time": 209999, "pitch": 83, "duration": 231, "velocity": 120}, {"time": 210240, "pitch": 71, "duration": 110, "velocity": 90}, {"time": 210360, "pitch": 81, "duration": 231, "velocity": 120}, {"time": 210601, "pitch": 71, "duration": 110, "velocity": 90}, {"time": 210721, "pitch": 78, "duration": 231, "velocity": 120}, {"time": 210962, "pitch": 71, "duration": 111, "velocity": 90}, {"time": 211083, "pitch": 76, "duration": 230, "velocity": 120}, {"time": 211323, "pitch": 71, "duration": 111, "velocity": 90}, {"time": 211444, "pitch": 78, "duration": 231, "velocity": 120}, {"time": 211685, "pitch": 71, "duration": 225, "velocity": 90}, {"time": 211920, "pitch": 83, "duration": 226, "velocity": 120}, {"time": 212156, "pitch": 71, "duration": 110, "velocity": 90}, {"time": 212276, "pitch": 81, "duration": 231, "velocity": 120}, {"time": 212517, "pitch": 71, "duration": 110, "velocity": 90}, {"time": 212637, "pitch": 78, "duration": 111, "velocity": 120}, {"time": 212758, "pitch": 76, "duration": 110, "velocity": 120}, {"time": 212878, "pitch": 78, "duration": 111, "velocity": 120}, {"time": 212999, "pitch": 81, "duration": 351, "velocity": 120}, {"time": 213360, "pitch": 78, "duration": 231, "velocity": 120}, {"time": 213601, "pitch": 71, "duration": 230, "velocity": 90}, {"time": 213841, "pitch": 83, "duration": 231, "velocity": 120}, {"time": 214082, "pitch": 71, "duration": 110, "velocity": 90}, {"time": 214203, "pitch": 81, "duration": 230, "velocity": 120}, {"time": 214443, "pitch": 71, "duration": 111, "velocity": 90}, {"time": 214564, "pitch": 78, "duration": 225, "velocity": 120}, {"time": 214799, "pitch": 71, "duration": 108, "velocity": 90}, {"time": 214917, "pitch": 76, "duration": 228, "velocity": 120}, {"time": 215155, "pitch": 71, "duration": 111, "velocity": 90}, {"time": 215276, "pitch": 78, "duration": 230, "velocity": 120}, {"time": 215516, "pitch": 71, "duration": 231, "velocity": 90}, {"time": 215757, "pitch": 83, "duration": 231, "velocity": 120}, {"time": 215998, "pitch": 71, "duration": 110, "velocity": 90}, {"time": 216118, "pitch": 81, "duration": 231, "velocity": 120}, {"time": 216359, "pitch": 71, "duration": 111, "velocity": 90}, {"time": 216480, "pitch": 78, "duration": 110, "velocity": 120}, {"time": 216600, "pitch": 76, "duration": 110, "velocity": 120}, {"time": 216720, "pitch": 78, "duration": 111, "velocity": 120}, {"time": 216841, "pitch": 81, "duration": 351, "velocity": 120}, {"time": 217202, "pitch": 78, "duration": 231, "velocity": 120}, {"time": 217443, "pitch": 71, "duration": 231, "velocity": 90}, {"time": 217684, "pitch": 83, "duration": 230, "velocity": 120}, {"time": 217924, "pitch": 71, "duration": 108, "velocity": 90}, {"time": 218042, "pitch": 81, "duration": 226, "velocity": 120}, {"time": 218278, "pitch": 71, "duration": 108, "velocity": 90}, {"time": 218396, "pitch": 78, "duration": 230, "velocity": 120}, {"time": 218636, "pitch": 71, "duration": 111, "velocity": 90}, {"time": 218757, "pitch": 76, "duration": 230, "velocity": 120}, {"time": 218997, "pitch": 71, "duration": 111, "velocity": 90}, {"time": 219118, "pitch": 78, "duration": 231, "velocity": 120}, {"time": 219359, "pitch": 71, "duration": 230, "velocity": 90}, {"time": 219599, "pitch": 83, "duration": 231, "velocity": 120}, {"time": 219840, "pitch": 71, "duration": 111, "velocity": 90}, {"time": 219961, "pitch": 81, "duration": 230, "velocity": 120}, {"time": 220201, "pitch": 71, "duration": 111, "velocity": 90}, {"time": 220322, "pitch": 78, "duration": 110, "velocity": 120}, {"time": 220442, "pitch": 76, "duration": 111, "velocity": 120}, {"time": 220563, "pitch": 78, "duration": 110, "velocity": 120}, {"time": 220683, "pitch": 81, "duration": 351, "velocity": 120}, {"time": 221044, "pitch": 78, "duration": 231, "velocity": 120}, {"time": 221285, "pitch": 71, "duration": 226, "velocity": 90}, {"time": 221521, "pitch": 83, "duration": 225, "velocity": 120}, {"time": 221756, "pitch": 71, "duration": 111, "velocity": 90}, {"time": 221877, "pitch": 81, "duration": 230, "velocity": 120}, {"time": 222117, "pitch": 71, "duration": 111, "velocity": 90}, {"time": 222238, "pitch": 78, "duration": 231, "velocity": 120}, {"time": 222479, "pitch": 71, "duration": 110, "velocity": 90}, {"time": 222599, "pitch": 76, "duration": 231, "velocity": 120}, {"time": 222840, "pitch": 71, "duration": 110, "velocity": 90}, {"time": 222960, "pitch": 78, "duration": 231, "velocity": 120}, {"time": 223201, "pitch": 71, "duration": 231, "velocity": 90}, {"time": 223442, "pitch": 83, "duration": 230, "velocity": 120}, {"time": 223683, "pitch": 71, "duration": 110, "velocity": 90}, {"time": 223803, "pitch": 81, "duration": 231, "velocity": 120}, {"time": 224044, "pitch": 71, "duration": 110, "velocity": 90}, {"time": 224164, "pitch": 78, "duration": 108, "velocity": 120}, {"time": 224282, "pitch": 76, "duration": 108, "velocity": 120}, {"time": 224400, "pitch": 78, "duration": 108, "velocity": 120}, {"time": 224518, "pitch": 81, "duration": 348, "velocity": 120}, {"time": 224876, "pitch": 78, "duration": 231, "velocity": 120}, {"time": 225117, "pitch": 71, "duration": 231, "velocity": 90}, {"time": 225358, "pitch": 83, "duration": 230, "velocity": 120}, {"time": 225598, "pitch": 71, "duration": 111, "velocity": 90}, {"time": 225719, "pitch": 81, "duration": 231, "velocity": 120}, {"time": 225960, "pitch": 71, "duration": 110, "velocity": 90}, {"time": 226080, "pitch": 78, "duration": 231, "velocity": 120}, {"time": 226321, "pitch": 71, "duration": 110, "velocity": 90}, {"time": 226441, "pitch": 76, "duration": 231, "velocity": 120}, {"time": 226682, "pitch": 71, "duration": 110, "velocity": 90}, {"time": 226802, "pitch": 78, "duration": 231, "velocity": 120}, {"time": 227043, "pitch": 71, "duration": 231, "velocity": 90}, {"time": 227284, "pitch": 83, "duration": 231, "velocity": 120}, {"time": 227525, "pitch": 71, "duration": 108, "velocity": 90}, {"time": 227642, "pitch": 81, "duration": 226, "velocity": 120}, {"time": 227878, "pitch": 71, "duration": 108, "velocity": 90}, {"time": 227996, "pitch": 78, "duration": 110, "velocity": 120}, {"time": 228116, "pitch": 76, "duration": 111, "velocity": 120}, {"time": 228237, "pitch": 78, "duration": 110, "velocity": 120}, {"time": 228357, "pitch": 81, "duration": 351, "velocity": 120}, {"time": 228718, "pitch": 78, "duration": 231, "velocity": 120}, {"time": 228959, "pitch": 71, "duration": 231, "velocity": 90}, {"time": 229200, "pitch": 83, "duration": 231, "velocity": 120}, {"time": 229441, "pitch": 71, "duration": 110, "velocity": 90}, {"time": 229561, "pitch": 81, "duration": 231, "velocity": 120}, {"time": 229802, "pitch": 71, "duration": 110, "velocity": 90}, {"time": 229922, "pitch": 78, "duration": 231, "velocity": 120}, {"time": 230163, "pitch": 71, "duration": 110, "velocity": 90}, {"time": 230283, "pitch": 76, "duration": 229, "velocity": 120}, {"time": 230522, "pitch": 71, "duration": 108, "velocity": 90}, {"time": 230639, "pitch": 78, "duration": 226, "velocity": 120}, {"time": 230875, "pitch": 71, "duration": 231, "velocity": 90}, {"time": 231116, "pitch": 83, "duration": 231, "velocity": 120}, {"time": 231357, "pitch": 71, "duration": 110, "velocity": 90}, {"time": 231477, "pitch": 81, "duration": 231, "velocity": 120}, {"time": 231718, "pitch": 71, "duration": 110, "velocity": 90}, {"time": 231838, "pitch": 78, "duration": 111, "velocity": 120}, {"time": 231959, "pitch": 76, "duration": 110, "velocity": 120}, {"time": 232079, "pitch": 78, "duration": 110, "velocity": 120}, {"time": 232199, "pitch": 81, "duration": 352, "velocity": 120}, {"time": 232561, "pitch": 78, "duration": 230, "velocity": 120}, {"time": 232801, "pitch": 71, "duration": 231, "velocity": 90}, {"time": 233042, "pitch": 83, "duration": 231, "velocity": 120}, {"time": 233283, "pitch": 71, "duration": 110, "velocity": 90}, {"time": 233403, "pitch": 81, "duration": 231, "velocity": 120}, {"time": 233644, "pitch": 71, "duration": 110, "velocity": 90}, {"time": 233764, "pitch": 78, "duration": 226, "velocity": 120}, {"time": 234000, "pitch": 71, "duration": 108, "velocity": 90}, {"time": 234118, "pitch": 76, "duration": 228, "velocity": 120}, {"time": 234356, "pitch": 71, "duration": 110, "velocity": 90}, {"time": 234476, "pitch": 78, "duration": 231, "velocity": 120}, {"time": 234717, "pitch": 71, "duration": 231, "velocity": 90}, {"time": 234958, "pitch": 83, "duration": 231, "velocity": 120}, {"time": 235199, "pitch": 71, "duration": 110, "velocity": 90}, {"time": 235319, "pitch": 81, "duration": 231, "velocity": 120}, {"time": 235560, "pitch": 71, "duration": 110, "velocity": 90}, {"time": 235680, "pitch": 78, "duration": 111, "velocity": 120}, {"time": 235801, "pitch": 76, "duration": 110, "velocity": 120}, {"time": 235921, "pitch": 78, "duration": 111, "velocity": 120}, {"time": 236042, "pitch": 81, "duration": 351, "velocity": 120}, {"time": 236403, "pitch": 78, "duration": 231, "velocity": 120}, {"time": 236644, "pitch": 71, "duration": 230, "velocity": 90}, {"time": 236884, "pitch": 83, "duration": 231, "velocity": 120}, {"time": 237125, "pitch": 71, "duration": 108, "velocity": 90}, {"time": 237243, "pitch": 81, "duration": 226, "velocity": 120}, {"time": 237479, "pitch": 71, "duration": 108, "velocity": 90}, {"time": 237596, "pitch": 78, "duration": 231, "velocity": 120}, {"time": 237837, "pitch": 71, "duration": 110, "velocity": 90}, {"time": 237957, "pitch": 76, "duration": 231, "velocity": 120}, {"time": 238198, "pitch": 71, "duration": 111, "velocity": 90}, {"time": 238319, "pitch": 78, "duration": 230, "velocity": 120}, {"time": 238559, "pitch": 71, "duration": 231, "velocity": 90}, {"time": 238800, "pitch": 83, "duration": 231, "velocity": 120}, {"time": 239041, "pitch": 71, "duration": 110, "velocity": 90}, {"time": 239161, "pitch": 81, "duration": 231, "velocity": 120}, {"time": 239402, "pitch": 71, "duration": 111, "velocity": 90}, {"time": 239523, "pitch": 78, "duration": 110, "velocity": 120}, {"time": 239643, "pitch": 76, "duration": 110, "velocity": 120}, {"time": 239763, "pitch": 78, "duration": 111, "velocity": 120}, {"time": 239884, "pitch": 81, "duration": 346, "velocity": 120}, {"time": 240240, "pitch": 78, "duration": 226, "velocity": 120}, {"time": 240475, "pitch": 71, "duration": 231, "velocity": 90}, {"time": 240716, "pitch": 83, "duration": 231, "velocity": 120}, {"time": 240957, "pitch": 71, "duration": 110, "velocity": 90}, {"time": 241077, "pitch": 81, "duration": 231, "velocity": 120}, {"time": 241318, "pitch": 71, "duration": 111, "velocity": 90}, {"time": 241439, "pitch": 78, "duration": 230, "velocity": 120}, {"time": 241679, "pitch": 71, "duration": 111, "velocity": 90}, {"time": 241800, "pitch": 76, "duration": 231, "velocity": 120}, {"time": 242041, "pitch": 71, "duration": 110, "velocity": 90}, {"time": 242161, "pitch": 78, "duration": 231, "velocity": 120}, {"time": 242402, "pitch": 71, "duration": 230, "velocity": 90}, {"time": 242643, "pitch": 83, "duration": 230, "velocity": 120}, {"time": 242883, "pitch": 71, "duration": 111, "velocity": 90}, {"time": 243004, "pitch": 81, "duration": 230, "velocity": 120}, {"time": 243244, "pitch": 71, "duration": 111, "velocity": 90}, {"time": 243365, "pitch": 78, "duration": 108, "velocity": 120}, {"time": 243483, "pitch": 76, "duration": 108, "velocity": 120}, {"time": 243600, "pitch": 78, "duration": 108, "velocity": 120}, {"time": 243718, "pitch": 81, "duration": 349, "velocity": 120}, {"time": 244077, "pitch": 78, "duration": 231, "velocity": 120}, {"time": 244318, "pitch": 71, "duration": 230, "velocity": 90}, {"time": 244558, "pitch": 83, "duration": 231, "velocity": 120}, {"time": 244799, "pitch": 71, "duration": 111, "velocity": 90}, {"time": 244920, "pitch": 81, "duration": 230, "velocity": 120}, {"time": 245160, "pitch": 71, "duration": 111, "velocity": 90}, {"time": 245281, "pitch": 78, "duration": 231, "velocity": 120}, {"time": 245522, "pitch": 71, "duration": 110, "velocity": 90}, {"time": 245642, "pitch": 76, "duration": 231, "velocity": 120}, {"time": 245883, "pitch": 71, "duration": 110, "velocity": 90}, {"time": 246003, "pitch": 78, "duration": 231, "velocity": 120}, {"time": 246244, "pitch": 71, "duration": 226, "velocity": 90}, {"time": 246480, "pitch": 83, "duration": 225, "velocity": 120}, {"time": 246715, "pitch": 71, "duration": 110, "velocity": 90}, {"time": 246836, "pitch": 81, "duration": 230, "velocity": 120}, {"time": 247076, "pitch": 71, "duration": 111, "velocity": 90}, {"time": 247197, "pitch": 78, "duration": 110, "velocity": 120}, {"time": 247317, "pitch": 76, "duration": 110, "velocity": 120}, {"time": 247437, "pitch": 78, "duration": 111, "velocity": 120}, {"time": 247558, "pitch": 81, "duration": 351, "velocity": 120}, {"time": 247919, "pitch": 78, "duration": 231, "velocity": 120}, {"time": 248160, "pitch": 71, "duration": 231, "velocity": 90}, {"time": 248401, "pitch": 83, "duration": 230, "velocity": 120}, {"time": 248641, "pitch": 71, "duration": 111, "velocity": 90}, {"time": 248762, "pitch": 81, "duration": 231, "velocity": 120}, {"time": 249003, "pitch": 71, "duration": 110, "velocity": 90}, {"time": 249123, "pitch": 78, "duration": 231, "velocity": 120}, {"time": 249364, "pitch": 71, "duration": 110, "velocity": 90}, {"time": 249484, "pitch": 76, "duration": 229, "velocity": 120}, {"time": 249722, "pitch": 71, "duration": 108, "velocity": 90}, {"time": 249840, "pitch": 78, "duration": 226, "velocity": 120}, {"time": 250076, "pitch": 71, "duration": 231, "velocity": 90}, {"time": 250317, "pitch": 83, "duration": 230, "velocity": 120}, {"time": 250557, "pitch": 71, "duration": 111, "velocity": 90}, {"time": 250678, "pitch": 81, "duration": 231, "velocity": 120}, {"time": 250919, "pitch": 71, "duration": 110, "velocity": 90}, {"time": 251039, "pitch": 78, "duration": 110, "velocity": 120}, {"time": 251159, "pitch": 76, "duration": 111, "velocity": 120}, {"time": 251280, "pitch": 78, "duration": 110, "velocity": 120}, {"time": 251400, "pitch": 81, "duration": 351, "velocity": 120}, {"time": 251761, "pitch": 78, "duration": 231, "velocity": 120}, {"time": 252002, "pitch": 71, "duration": 231, "velocity": 90}, {"time": 252243, "pitch": 83, "duration": 231, "velocity": 120}, {"time": 252484, "pitch": 71, "duration": 108, "velocity": 90}, {"time": 252601, "pitch": 81, "duration": 226, "velocity": 120}, {"time": 252837, "pitch": 71, "duration": 108, "velocity": 90}, {"time": 252955, "pitch": 78, "duration": 231, "velocity": 120}, {"time": 253196, "pitch": 71, "duration": 110, "velocity": 90}, {"time": 253316, "pitch": 76, "duration": 231, "velocity": 120}, {"time": 253557, "pitch": 71, "duration": 110, "velocity": 90}, {"time": 253677, "pitch": 78, "duration": 231, "velocity": 120}, {"time": 253918, "pitch": 71, "duration": 231, "velocity": 90}, {"time": 254159, "pitch": 83, "duration": 231, "velocity": 120}, {"time": 254400, "pitch": 71, "duration": 110, "velocity": 90}, {"time": 254520, "pitch": 81, "duration": 231, "velocity": 120}, {"time": 254761, "pitch": 71, "duration": 110, "velocity": 90}, {"time": 254881, "pitch": 78, "duration": 111, "velocity": 120}, {"time": 255002, "pitch": 76, "duration": 110, "velocity": 120}, {"time": 255122, "pitch": 78, "duration": 110, "velocity": 120}, {"time": 255242, "pitch": 81, "duration": 352, "velocity": 120}, {"time": 255604, "pitch": 78, "duration": 230, "velocity": 120}, {"time": 255844, "pitch": 71, "duration": 226, "velocity": 90}, {"time": 256080, "pitch": 83, "duration": 226, "velocity": 120}, {"time": 256316, "pitch": 71, "duration": 110, "velocity": 90}, {"time": 256436, "pitch": 81, "duration": 231, "velocity": 120}, {"time": 256677, "pitch": 71, "duration": 110, "velocity": 90}, {"time": 256797, "pitch": 78, "duration": 231, "velocity": 120}, {"time": 257038, "pitch": 71, "duration": 110, "velocity": 90}, {"time": 257158, "pitch": 76, "duration": 231, "velocity": 120}, {"time": 257399, "pitch": 71, "duration": 110, "velocity": 90}, {"time": 257519, "pitch": 78, "duration": 231, "velocity": 120}, {"time": 257760, "pitch": 71, "duration": 231, "velocity": 90}, {"time": 258001, "pitch": 83, "duration": 231, "velocity": 120}, {"time": 258242, "pitch": 71, "duration": 110, "velocity": 90}, {"time": 258362, "pitch": 81, "duration": 231, "velocity": 120}, {"time": 258603, "pitch": 71, "duration": 110, "velocity": 90}, {"time": 258723, "pitch": 78, "duration": 111, "velocity": 120}, {"time": 258844, "pitch": 76, "duration": 110, "velocity": 120}, {"time": 258964, "pitch": 78, "duration": 111, "velocity": 120}, {"time": 259085, "pitch": 81, "duration": 346, "velocity": 120}, {"time": 259441, "pitch": 78, "duration": 225, "velocity": 120}, {"time": 259676, "pitch": 71, "duration": 231, "velocity": 90}, {"time": 259917, "pitch": 83, "duration": 231, "velocity": 120}, {"time": 260158, "pitch": 71, "duration": 110, "velocity": 90}, {"time": 260278, "pitch": 81, "duration": 231, "velocity": 120}, {"time": 260519, "pitch": 71, "duration": 110, "velocity": 90}, {"time": 260639, "pitch": 78, "duration": 231, "velocity": 120}, {"time": 260880, "pitch": 71, "duration": 111, "velocity": 90}, {"time": 261001, "pitch": 76, "duration": 230, "velocity": 120}, {"time": 261241, "pitch": 71, "duration": 111, "velocity": 90}, {"time": 261362, "pitch": 78, "duration": 230, "velocity": 120}, {"time": 261603, "pitch": 71, "duration": 230, "velocity": 90}, {"time": 261843, "pitch": 83, "duration": 231, "velocity": 120}, {"time": 262084, "pitch": 71, "duration": 108, "velocity": 90}, {"time": 262202, "pitch": 81, "duration": 226, "velocity": 120}, {"time": 262438, "pitch": 71, "duration": 108, "velocity": 90}, {"time": 262555, "pitch": 78, "duration": 111, "velocity": 120}, {"time": 262676, "pitch": 76, "duration": 110, "velocity": 120}, {"time": 262796, "pitch": 78, "duration": 110, "velocity": 120}, {"time": 262916, "pitch": 81, "duration": 352, "velocity": 120}, {"time": 263278, "pitch": 78, "duration": 230, "velocity": 120}, {"time": 263518, "pitch": 71, "duration": 231, "velocity": 90}, {"time": 263759, "pitch": 83, "duration": 231, "velocity": 120}, {"time": 264000, "pitch": 71, "duration": 110, "velocity": 90}, {"time": 264120, "pitch": 81, "duration": 231, "velocity": 120}, {"time": 264361, "pitch": 71, "duration": 111, "velocity": 90}, {"time": 264482, "pitch": 78, "duration": 230, "velocity": 120}, {"time": 264722, "pitch": 71, "duration": 111, "velocity": 90}, {"time": 264843, "pitch": 76, "duration": 231, "velocity": 120}, {"time": 265084, "pitch": 71, "duration": 110, "velocity": 90}, {"time": 265204, "pitch": 78, "duration": 231, "velocity": 120}, {"time": 265445, "pitch": 71, "duration": 226, "velocity": 90}, {"time": 265680, "pitch": 83, "duration": 226, "velocity": 120}, {"time": 265916, "pitch": 71, "duration": 110, "velocity": 90}, {"time": 266036, "pitch": 81, "duration": 231, "velocity": 120}, {"time": 266277, "pitch": 71, "duration": 110, "velocity": 90}, {"time": 266397, "pitch": 78, "duration": 111, "velocity": 120}, {"time": 266518, "pitch": 76, "duration": 110, "velocity": 120}, {"time": 266638, "pitch": 78, "duration": 111, "velocity": 120}, {"time": 266759, "pitch": 81, "duration": 351, "velocity": 120}, {"time": 267120, "pitch": 78, "duration": 231, "velocity": 120}, {"time": 267361, "pitch": 71, "duration": 230, "velocity": 90}, {"time": 267601, "pitch": 83, "duration": 231, "velocity": 120}, {"time": 267842, "pitch": 71, "duration": 111, "velocity": 90}, {"time": 267963, "pitch": 81, "duration": 230, "velocity": 120}, {"time": 268203, "pitch": 71, "duration": 111, "velocity": 90}, {"time": 268324, "pitch": 78, "duration": 226, "velocity": 120}, {"time": 268559, "pitch": 71, "duration": 108, "velocity": 90}, {"time": 268677, "pitch": 76, "duration": 228, "velocity": 120}, {"time": 268915, "pitch": 71, "duration": 111, "velocity": 90}, {"time": 269036, "pitch": 78, "duration": 231, "velocity": 120}, {"time": 269277, "pitch": 71, "duration": 230, "velocity": 90}, {"time": 269517, "pitch": 83, "duration": 231, "velocity": 120}, {"time": 269758, "pitch": 71, "duration": 111, "velocity": 90}, {"time": 269879, "pitch": 81, "duration": 230, "velocity": 120}, {"time": 270119, "pitch": 71, "duration": 111, "velocity": 90}, {"time": 270240, "pitch": 78, "duration": 110, "velocity": 120}, {"time": 270360, "pitch": 76, "duration": 111, "velocity": 120}, {"time": 270481, "pitch": 78, "duration": 110, "velocity": 120}, {"time": 270601, "pitch": 81, "duration": 351, "velocity": 120}, {"time": 270962, "pitch": 78, "duration": 231, "velocity": 120}, {"time": 271203, "pitch": 71, "duration": 231, "velocity": 90}, {"time": 271444, "pitch": 83, "duration": 230, "velocity": 120}, {"time": 271684, "pitch": 71, "duration": 108, "velocity": 90}, {"time": 271802, "pitch": 81, "duration": 226, "velocity": 120}, {"time": 272038, "pitch": 71, "duration": 108, "velocity": 90}, {"time": 272156, "pitch": 78, "duration": 230, "velocity": 120}, {"time": 272396, "pitch": 71, "duration": 111, "velocity": 90}, {"time": 272517, "pitch": 76, "duration": 231, "velocity": 120}, {"time": 272758, "pitch": 71, "duration": 110, "velocity": 90}, {"time": 272878, "pitch": 78, "duration": 231, "velocity": 120}, {"time": 273119, "pitch": 71, "duration": 231, "velocity": 90}, {"time": 273360, "pitch": 83, "duration": 230, "velocity": 120}, {"time": 273600, "pitch": 71, "duration": 111, "velocity": 90}, {"time": 273721, "pitch": 81, "duration": 231, "velocity": 120}, {"time": 273962, "pitch": 71, "duration": 110, "velocity": 90}, {"time": 274082, "pitch": 78, "duration": 110, "velocity": 120}, {"time": 274202, "pitch": 76, "duration": 111, "velocity": 120}, {"time": 274323, "pitch": 78, "duration": 110, "velocity": 120}, {"time": 274443, "pitch": 81, "duration": 351, "velocity": 120}, {"time": 274804, "pitch": 78, "duration": 231, "velocity": 120}, {"time": 275045, "pitch": 71, "duration": 226, "velocity": 90}, {"time": 275281, "pitch": 83, "duration": 226, "velocity": 120}, {"time": 275516, "pitch": 71, "duration": 111, "velocity": 90}, {"time": 275637, "pitch": 81, "duration": 230, "velocity": 120}, {"time": 275877, "pitch": 71, "duration": 111, "velocity": 90}, {"time": 275998, "pitch": 78, "duration": 231, "velocity": 120}, {"time": 276239, "pitch": 71, "duration": 110, "velocity": 90}, {"time": 276359, "pitch": 76, "duration": 231, "velocity": 120}, {"time": 276600, "pitch": 71, "duration": 110, "velocity": 90}, {"time": 276720, "pitch": 78, "duration": 231, "velocity": 120}, {"time": 276961, "pitch": 71, "duration": 231, "velocity": 90}, {"time": 277202, "pitch": 83, "duration": 231, "velocity": 120}, {"time": 277443, "pitch": 71, "duration": 110, "velocity": 90}, {"time": 277563, "pitch": 81, "duration": 231, "velocity": 120}, {"time": 277804, "pitch": 71, "duration": 110, "velocity": 90}, {"time": 277924, "pitch": 78, "duration": 108, "velocity": 120}, {"time": 278042, "pitch": 76, "duration": 108, "velocity": 120}, {"time": 278160, "pitch": 78, "duration": 108, "velocity": 120}, {"time": 278278, "pitch": 81, "duration": 348, "velocity": 120}, {"time": 278636, "pitch": 78, "duration": 231, "velocity": 120}, {"time": 278877, "pitch": 71, "duration": 231, "velocity": 90}, {"time": 279118, "pitch": 83, "duration": 231, "velocity": 120}, {"time": 279359, "pitch": 71, "duration": 110, "velocity": 90}, {"time": 279479, "pitch": 81, "duration": 231, "velocity": 120}, {"time": 279720, "pitch": 71, "duration": 110, "velocity": 90}, {"time": 279840, "pitch": 78, "duration": 231, "velocity": 120}, {"time": 280081, "pitch": 71, "duration": 110, "velocity": 90}, {"time": 280201, "pitch": 76, "duration": 231, "velocity": 120}, {"time": 280442, "pitch": 71, "duration": 110, "velocity": 90}, {"time": 280563, "pitch": 78, "duration": 230, "velocity": 120}, {"time": 280803, "pitch": 71, "duration": 231, "velocity": 90}, {"time": 281044, "pitch": 83, "duration": 231, "velocity": 120}, {"time": 281285, "pitch": 71, "duration": 108, "velocity": 90}, {"time": 281403, "pitch": 81, "duration": 225, "velocity": 120}, {"time": 281638, "pitch": 71, "duration": 108, "velocity": 90}, {"time": 281756, "pitch": 78, "duration": 110, "velocity": 120}, {"time": 281876, "pitch": 76, "duration": 111, "velocity": 120}, {"time": 281997, "pitch": 78, "duration": 110, "velocity": 120}, {"time": 282117, "pitch": 81, "duration": 351, "velocity": 120}, {"time": 282478, "pitch": 78, "duration": 231, "velocity": 120}, {"time": 282719, "pitch": 71, "duration": 231, "velocity": 90}, {"time": 282960, "pitch": 83, "duration": 231, "velocity": 120}, {"time": 283201, "pitch": 71, "duration": 110, "velocity": 90}, {"time": 283321, "pitch": 81, "duration": 231, "velocity": 120}, {"time": 283562, "pitch": 71, "duration": 110, "velocity": 90}, {"time": 283682, "pitch": 78, "duration": 231, "velocity": 120}, {"time": 283923, "pitch": 71, "duration": 111, "velocity": 90}, {"time": 284044, "pitch": 76, "duration": 228, "velocity": 120}, {"time": 284282, "pitch": 71, "duration": 108, "velocity": 90}, {"time": 284400, "pitch": 78, "duration": 225, "velocity": 120}, {"time": 284635, "pitch": 71, "duration": 231, "velocity": 90}, {"time": 284876, "pitch": 83, "duration": 231, "velocity": 120}, {"time": 285117, "pitch": 71, "duration": 110, "velocity": 90}, {"time": 285237, "pitch": 81, "duration": 231, "velocity": 120}, {"time": 285478, "pitch": 71, "duration": 110, "velocity": 90}, {"time": 285598, "pitch": 78, "duration": 111, "velocity": 120}, {"time": 285719, "pitch": 76, "duration": 110, "velocity": 120}, {"time": 285839, "pitch": 78, "duration": 110, "velocity": 120}, {"time": 285959, "pitch": 81, "duration": 352, "velocity": 120}, {"time": 286321, "pitch": 78, "duration": 230, "velocity": 120}, {"time": 286561, "pitch": 71, "duration": 231, "velocity": 90}, {"time": 286802, "pitch": 83, "duration": 231, "velocity": 120}, {"time": 287043, "pitch": 71, "duration": 110, "velocity": 90}, {"time": 287163, "pitch": 81, "duration": 231, "velocity": 120}, {"time": 287404, "pitch": 71, "duration": 111, "velocity": 90}, {"time": 287525, "pitch": 78, "duration": 225, "velocity": 120}, {"time": 287760, "pitch": 71, "duration": 108, "velocity": 90}, {"time": 287878, "pitch": 76, "duration": 228, "velocity": 120}, {"time": 288116, "pitch": 71, "duration": 111, "velocity": 90}, {"time": 288237, "pitch": 78, "duration": 230, "velocity": 120}, {"time": 288477, "pitch": 71, "duration": 231, "velocity": 90}, {"time": 288718, "pitch": 83, "duration": 231, "velocity": 120}, {"time": 288959, "pitch": 71, "duration": 110, "velocity": 90}, {"time": 289079, "pitch": 81, "duration": 231, "velocity": 120}, {"time": 289320, "pitch": 71, "duration": 111, "velocity": 90}, {"time": 289441, "pitch": 78, "duration": 110, "velocity": 120}, {"time": 289561, "pitch": 76, "duration": 110, "velocity": 120}, {"time": 289681, "pitch": 78, "duration": 111, "velocity": 120}, {"time": 289802, "pitch": 81, "duration": 351, "velocity": 120}, {"time": 290163, "pitch": 78, "duration": 231, "velocity": 120}, {"time": 290404, "pitch": 71, "duration": 225, "velocity": 90}, {"time": 290639, "pitch": 83, "duration": 226, "velocity": 120}, {"time": 290875, "pitch": 71, "duration": 110, "velocity": 90}, {"time": 290995, "pitch": 81, "duration": 231, "velocity": 120}, {"time": 291236, "pitch": 71, "duration": 110, "velocity": 90}, {"time": 291356, "pitch": 78, "duration": 231, "velocity": 120}, {"time": 291597, "pitch": 71, "duration": 111, "velocity": 90}, {"time": 291718, "pitch": 76, "duration": 230, "velocity": 120}, {"time": 291958, "pitch": 71, "duration": 111, "velocity": 90}, {"time": 292079, "pitch": 78, "duration": 231, "velocity": 120}, {"time": 292320, "pitch": 71, "duration": 230, "velocity": 90}, {"time": 292560, "pitch": 83, "duration": 231, "velocity": 120}, {"time": 292801, "pitch": 71, "duration": 111, "velocity": 90}, {"time": 292922, "pitch": 81, "duration": 230, "velocity": 120}, {"time": 293162, "pitch": 71, "duration": 111, "velocity": 90}, {"time": 293283, "pitch": 78, "duration": 110, "velocity": 120}, {"time": 293403, "pitch": 76, "duration": 111, "velocity": 120}, {"time": 293524, "pitch": 78, "duration": 110, "velocity": 120}, {"time": 293644, "pitch": 81, "duration": 351, "velocity": 120}, {"time": 294005, "pitch": 78, "duration": 231, "velocity": 120}, {"time": 294246, "pitch": 71, "duration": 231, "velocity": 90}, {"time": 294487, "pitch": 83, "duration": 231, "velocity": 120}, {"time": 294728, "pitch": 71, "duration": 110, "velocity": 90}, {"time": 294848, "pitch": 81, "duration": 231, "velocity": 120}, {"time": 295089, "pitch": 71, "duration": 110, "velocity": 90}, {"time": 295209, "pitch": 78, "duration": 231, "velocity": 120}, {"time": 295450, "pitch": 71, "duration": 110, "velocity": 90}, {"time": 295570, "pitch": 76, "duration": 231, "velocity": 120}, {"time": 295811, "pitch": 71, "duration": 110, "velocity": 90}, {"time": 295932, "pitch": 78, "duration": 230, "velocity": 120}, {"time": 296172, "pitch": 71, "duration": 231, "velocity": 90}, {"time": 296413, "pitch": 83, "duration": 231, "velocity": 120}, {"time": 296654, "pitch": 71, "duration": 110, "velocity": 90}, {"time": 296774, "pitch": 81, "duration": 231, "velocity": 120}, {"time": 297015, "pitch": 71, "duration": 110, "velocity": 90}, {"time": 297135, "pitch": 78, "duration": 111, "velocity": 120}, {"time": 297256, "pitch": 76, "duration": 110, "velocity": 120}, {"time": 297376, "pitch": 78, "duration": 111, "velocity": 120}, {"time": 297497, "pitch": 81, "duration": 351, "velocity": 120}, {"time": 297858, "pitch": 78, "duration": 231, "velocity": 120}, {"time": 15845, "pitch": 43, "duration": 933, "velocity": 110}, {"time": 15845, "pitch": 50, "duration": 933, "velocity": 105}, {"time": 15855, "pitch": 55, "duration": 933, "velocity": 100}, {"time": 16798, "pitch": 45, "duration": 943, "velocity": 110}, {"time": 16798, "pitch": 52, "duration": 943, "velocity": 105}, {"time": 16808, "pitch": 57, "duration": 943, "velocity": 100}, {"time": 17761, "pitch": 42, "duration": 943, "velocity": 110}, {"time": 17761, "pitch": 49, "duration": 943, "velocity": 105}, {"time": 17771, "pitch": 54, "duration": 943, "velocity": 100}, {"time": 18724, "pitch": 47, "duration": 933, "velocity": 110}, {"time": 18724, "pitch": 54, "duration": 933, "velocity": 105}, {"time": 18734, "pitch": 59, "duration": 933, "velocity": 100}, {"time": 19677, "pitch": 40, "duration": 943, "velocity": 110}, {"time": 19677, "pitch": 47, "duration": 943, "velocity": 105}, {"time": 19687, "pitch": 52, "duration": 943, "velocity": 100}, {"time": 20640, "pitch": 42, "duration": 943, "velocity": 110}, {"time": 20640, "pitch": 49, "duration": 943, "velocity": 105}, {"time": 20650, "pitch": 54, "duration": 943, "velocity": 100}, {"time": 21603, "pitch": 43, "duration": 933, "velocity": 110}, {"time": 21603, "pitch": 50, "duration": 933, "velocity": 105}, {"time": 21613, "pitch": 55, "duration": 933, "velocity": 100}, {"time": 22556, "pitch": 45, "duration": 943, "velocity": 110}, {"time": 22556, "pitch": 52, "duration": 943, "velocity": 105}, {"time": 22566, "pitch": 57, "duration": 943, "velocity": 100}, {"time": 23519, "pitch": 43, "duration": 943, "velocity": 110}, {"time": 23519, "pitch": 50, "duration": 943, "velocity": 105}, {"time": 23529, "pitch": 55, "duration": 943, "velocity": 100}, {"time": 24482, "pitch": 45, "duration": 933, "velocity": 110}, {"time": 24482, "pitch": 52, "duration": 933, "velocity": 105}, {"time": 24492, "pitch": 57, "duration": 933, "velocity": 100}, {"time": 25435, "pitch": 42, "duration": 943, "velocity": 110}, {"time": 25435, "pitch": 49, "duration": 943, "velocity": 105}, {"time": 25445, "pitch": 54, "duration": 943, "velocity": 100}, {"time": 26398, "pitch": 47, "duration": 943, "velocity": 110}, {"time": 26398, "pitch": 54, "duration": 943, "velocity": 105}, {"time": 26408, "pitch": 59, "duration": 943, "velocity": 100}, {"time": 27361, "pitch": 40, "duration": 943, "velocity": 110}, {"time": 27361, "pitch": 47, "duration": 943, "velocity": 105}, {"time": 27371, "pitch": 52, "duration": 943, "velocity": 100}, {"time": 28324, "pitch": 42, "duration": 933, "velocity": 110}, {"time": 28324, "pitch": 49, "duration": 933, "velocity": 105}, {"time": 28334, "pitch": 54, "duration": 933, "velocity": 100}, {"time": 29277, "pitch": 40, "duration": 3822, "velocity": 110}, {"time": 29277, "pitch": 47, "duration": 3822, "velocity": 105}, {"time": 29287, "pitch": 52, "duration": 3812, "velocity": 100}, {"time": 33119, "pitch": 53, "duration": 3823, "velocity": 110}, {"time": 33119, "pitch": 60, "duration": 3823, "velocity": 100}, {"time": 33129, "pitch": 65, "duration": 3813, "velocity": 90}, {"time": 36962, "pitch": 55, "duration": 3822, "velocity": 110}, {"time": 36962, "pitch": 62, "duration": 3822, "velocity": 100}, {"time": 36972, "pitch": 67, "duration": 3812, "velocity": 90}, {"time": 40804, "pitch": 53, "duration": 3812, "velocity": 110}, {"time": 40804, "pitch": 60, "duration": 3812, "velocity": 100}, {"time": 40814, "pitch": 65, "duration": 3802, "velocity": 90}, {"time": 44636, "pitch": 46, "duration": 3822, "velocity": 100}, {"time": 44636, "pitch": 53, "duration": 3822, "velocity": 105}, {"time": 44646, "pitch": 58, "duration": 3812, "velocity": 110}, {"time": 48478, "pitch": 40, "duration": 3822, "velocity": 110}, {"time": 48478, "pitch": 47, "duration": 3822, "velocity": 105}, {"time": 48488, "pitch": 52, "duration": 3812, "velocity": 100}, {"time": 52320, "pitch": 48, "duration": 3822, "velocity": 110}, {"time": 52320, "pitch": 55, "duration": 3822, "velocity": 105}, {"time": 52330, "pitch": 60, "duration": 3812, "velocity": 100}, {"time": 56162, "pitch": 45, "duration": 3823, "velocity": 110}, {"time": 56162, "pitch": 52, "duration": 3823, "velocity": 105}, {"time": 56172, "pitch": 57, "duration": 3813, "velocity": 100}, {"time": 60005, "pitch": 50, "duration": 1895, "velocity": 110}, {"time": 60005, "pitch": 57, "duration": 1895, "velocity": 105}, {"time": 60014, "pitch": 62, "duration": 1896, "velocity": 100}, {"time": 61921, "pitch": 47, "duration": 1895, "velocity": 110}, {"time": 61921, "pitch": 54, "duration": 1895, "velocity": 105}, {"time": 61931, "pitch": 59, "duration": 1895, "velocity": 100}, {"time": 63836, "pitch": 40, "duration": 3823, "velocity": 110}, {"time": 63836, "pitch": 47, "duration": 3823, "velocity": 105}, {"time": 63846, "pitch": 52, "duration": 3813, "velocity": 100}, {"time": 67679, "pitch": 48, "duration": 3822, "velocity": 110}, {"time": 67679, "pitch": 55, "duration": 3822, "velocity": 105}, {"time": 67689, "pitch": 60, "duration": 3812, "velocity": 100}, {"time": 71521, "pitch": 45, "duration": 3822, "velocity": 110}, {"time": 71521, "pitch": 52, "duration": 3822, "velocity": 105}, {"time": 71531, "pitch": 57, "duration": 3812, "velocity": 100}, {"time": 75363, "pitch": 50, "duration": 1896, "velocity": 110}, {"time": 75363, "pitch": 57, "duration": 1896, "velocity": 105}, {"time": 75373, "pitch": 62, "duration": 1896, "velocity": 100}, {"time": 77279, "pitch": 47, "duration": 1896, "velocity": 110}, {"time": 77279, "pitch": 54, "duration": 1896, "velocity": 105}, {"time": 77289, "pitch": 59, "duration": 1896, "velocity": 100}, {"time": 79195, "pitch": 64, "duration": 1906, "velocity": 110}, {"time": 79677, "pitch": 71, "duration": 1424, "velocity": 100}, {"time": 79917, "pitch": 67, "duration": 1184, "velocity": 105}, {"time": 81121, "pitch": 62, "duration": 1896, "velocity": 110}, {"time": 81603, "pitch": 71, "duration": 1414, "velocity": 100}, {"time": 81844, "pitch": 66, "duration": 1173, "velocity": 105}, {"time": 83037, "pitch": 64, "duration": 2860, "velocity": 110}, {"time": 83519, "pitch": 71, "duration": 2378, "velocity": 100}, {"time": 83760, "pitch": 67, "duration": 2137, "velocity": 105}, {"time": 85916, "pitch": 64, "duration": 943, "velocity": 110}, {"time": 86157, "pitch": 61, "duration": 702, "velocity": 100}, {"time": 86398, "pitch": 67, "duration": 461, "velocity": 105}, {"time": 86879, "pitch": 64, "duration": 1897, "velocity": 110}, {"time": 87361, "pitch": 71, "duration": 1415, "velocity": 100}, {"time": 87602, "pitch": 67, "duration": 1174, "velocity": 105}, {"time": 88795, "pitch": 62, "duration": 1907, "velocity": 110}, {"time": 89277, "pitch": 71, "duration": 1425, "velocity": 100}, {"time": 89518, "pitch": 67, "duration": 1184, "velocity": 105}, {"time": 90722, "pitch": 64, "duration": 1896, "velocity": 110}, {"time": 91203, "pitch": 71, "duration": 1415, "velocity": 100}, {"time": 91444, "pitch": 67, "duration": 1174, "velocity": 105}, {"time": 92638, "pitch": 47, "duration": 260, "velocity": 105}, {"time": 92638, "pitch": 54, "duration": 260, "velocity": 100}, {"time": 92648, "pitch": 59, "duration": 261, "velocity": 95}, {"time": 92999, "pitch": 54, "duration": 341, "velocity": 105}, {"time": 92999, "pitch": 59, "duration": 341, "velocity": 110}, {"time": 93009, "pitch": 47, "duration": 341, "velocity": 100}, {"time": 93360, "pitch": 47, "duration": 221, "velocity": 100}, {"time": 93360, "pitch": 54, "duration": 221, "velocity": 95}, {"time": 93370, "pitch": 59, "duration": 221, "velocity": 90}, {"time": 93601, "pitch": 47, "duration": 221, "velocity": 110}, {"time": 93601, "pitch": 54, "duration": 221, "velocity": 105}, {"time": 93611, "pitch": 59, "duration": 221, "velocity": 100}, {"time": 94564, "pitch": 43, "duration": 933, "velocity": 110}, {"time": 94564, "pitch": 50, "duration": 933, "velocity": 105}, {"time": 94574, "pitch": 55, "duration": 933, "velocity": 100}, {"time": 95517, "pitch": 45, "duration": 943, "velocity": 110}, {"time": 95517, "pitch": 52, "duration": 943, "velocity": 105}, {"time": 95527, "pitch": 57, "duration": 943, "velocity": 100}, {"time": 96480, "pitch": 42, "duration": 943, "velocity": 110}, {"time": 96480, "pitch": 49, "duration": 943, "velocity": 105}, {"time": 96490, "pitch": 54, "duration": 943, "velocity": 100}, {"time": 97443, "pitch": 47, "duration": 933, "velocity": 110}, {"time": 97443, "pitch": 54, "duration": 933, "velocity": 105}, {"time": 97453, "pitch": 59, "duration": 933, "velocity": 100}, {"time": 98396, "pitch": 40, "duration": 943, "velocity": 110}, {"time": 98396, "pitch": 47, "duration": 943, "velocity": 105}, {"time": 98406, "pitch": 52, "duration": 943, "velocity": 100}, {"time": 99359, "pitch": 42, "duration": 943, "velocity": 110}, {"time": 99359, "pitch": 49, "duration": 943, "velocity": 105}, {"time": 99369, "pitch": 54, "duration": 943, "velocity": 100}, {"time": 100322, "pitch": 43, "duration": 933, "velocity": 110}, {"time": 100322, "pitch": 50, "duration": 933, "velocity": 105}, {"time": 100332, "pitch": 55, "duration": 933, "velocity": 100}, {"time": 101275, "pitch": 45, "duration": 943, "velocity": 110}, {"time": 101275, "pitch": 52, "duration": 943, "velocity": 105}, {"time": 101285, "pitch": 57, "duration": 943, "velocity": 100}, {"time": 102238, "pitch": 43, "duration": 943, "velocity": 110}, {"time": 102238, "pitch": 50, "duration": 943, "velocity": 105}, {"time": 102248, "pitch": 55, "duration": 943, "velocity": 100}, {"time": 103201, "pitch": 45, "duration": 943, "velocity": 110}, {"time": 103201, "pitch": 52, "duration": 943, "velocity": 105}, {"time": 103211, "pitch": 57, "duration": 943, "velocity": 100}, {"time": 104164, "pitch": 42, "duration": 933, "velocity": 110}, {"time": 104164, "pitch": 49, "duration": 933, "velocity": 105}, {"time": 104174, "pitch": 54, "duration": 933, "velocity": 100}, {"time": 105117, "pitch": 47, "duration": 943, "velocity": 110}, {"time": 105117, "pitch": 54, "duration": 943, "velocity": 105}, {"time": 105127, "pitch": 59, "duration": 943, "velocity": 100}, {"time": 106080, "pitch": 40, "duration": 943, "velocity": 110}, {"time": 106080, "pitch": 47, "duration": 943, "velocity": 105}, {"time": 106090, "pitch": 52, "duration": 943, "velocity": 100}, {"time": 107043, "pitch": 42, "duration": 934, "velocity": 110}, {"time": 107043, "pitch": 49, "duration": 934, "velocity": 105}, {"time": 107053, "pitch": 54, "duration": 933, "velocity": 100}, {"time": 107996, "pitch": 40, "duration": 3822, "velocity": 110}, {"time": 107996, "pitch": 47, "duration": 3822, "velocity": 105}, {"time": 108006, "pitch": 52, "duration": 3812, "velocity": 100}, {"time": 111838, "pitch": 53, "duration": 3823, "velocity": 110}, {"time": 111838, "pitch": 60, "duration": 3823, "velocity": 100}, {"time": 111848, "pitch": 65, "duration": 3813, "velocity": 90}, {"time": 115681, "pitch": 55, "duration": 3822, "velocity": 110}, {"time": 115681, "pitch": 62, "duration": 3822, "velocity": 100}, {"time": 115691, "pitch": 67, "duration": 3812, "velocity": 90}, {"time": 119523, "pitch": 53, "duration": 3822, "velocity": 110}, {"time": 119523, "pitch": 60, "duration": 3822, "velocity": 100}, {"time": 119533, "pitch": 65, "duration": 3812, "velocity": 90}, {"time": 123365, "pitch": 46, "duration": 2879, "velocity": 100}, {"time": 123365, "pitch": 53, "duration": 2879, "velocity": 105}, {"time": 123375, "pitch": 58, "duration": 2869, "velocity": 110}, {"time": 127197, "pitch": 40, "duration": 3822, "velocity": 110}, {"time": 127197, "pitch": 47, "duration": 3822, "velocity": 105}, {"time": 127207, "pitch": 52, "duration": 3812, "velocity": 100}, {"time": 131039, "pitch": 48, "duration": 3822, "velocity": 110}, {"time": 131039, "pitch": 55, "duration": 3822, "velocity": 105}, {"time": 131049, "pitch": 60, "duration": 3812, "velocity": 100}, {"time": 134881, "pitch": 45, "duration": 3823, "velocity": 110}, {"time": 134881, "pitch": 52, "duration": 3823, "velocity": 105}, {"time": 134891, "pitch": 57, "duration": 3813, "velocity": 100}, {"time": 138724, "pitch": 50, "duration": 1896, "velocity": 110}, {"time": 138724, "pitch": 57, "duration": 1896, "velocity": 105}, {"time": 138733, "pitch": 62, "duration": 1897, "velocity": 100}, {"time": 140640, "pitch": 47, "duration": 1896, "velocity": 110}, {"time": 140640, "pitch": 54, "duration": 1896, "velocity": 105}, {"time": 140650, "pitch": 59, "duration": 1896, "velocity": 100}, {"time": 142556, "pitch": 64, "duration": 1906, "velocity": 110}, {"time": 143037, "pitch": 71, "duration": 1425, "velocity": 100}, {"time": 143278, "pitch": 67, "duration": 1184, "velocity": 105}, {"time": 144482, "pitch": 62, "duration": 1896, "velocity": 110}, {"time": 144963, "pitch": 71, "duration": 1415, "velocity": 100}, {"time": 145204, "pitch": 66, "duration": 1174, "velocity": 105}, {"time": 146398, "pitch": 64, "duration": 2859, "velocity": 110}, {"time": 146879, "pitch": 71, "duration": 2378, "velocity": 100}, {"time": 147120, "pitch": 67, "duration": 2137, "velocity": 105}, {"time": 149277, "pitch": 64, "duration": 943, "velocity": 110}, {"time": 149518, "pitch": 61, "duration": 702, "velocity": 100}, {"time": 149758, "pitch": 67, "duration": 462, "velocity": 105}, {"time": 150240, "pitch": 64, "duration": 1896, "velocity": 110}, {"time": 150722, "pitch": 71, "duration": 1414, "velocity": 100}, {"time": 150962, "pitch": 67, "duration": 1174, "velocity": 105}, {"time": 152156, "pitch": 62, "duration": 1906, "velocity": 110}, {"time": 152637, "pitch": 71, "duration": 1425, "velocity": 100}, {"time": 152878, "pitch": 67, "duration": 1184, "velocity": 105}, {"time": 154082, "pitch": 64, "duration": 1896, "velocity": 110}, {"time": 154564, "pitch": 71, "duration": 1414, "velocity": 100}, {"time": 154799, "pitch": 67, "duration": 1179, "velocity": 105}, {"time": 155998, "pitch": 47, "duration": 261, "velocity": 105}, {"time": 155998, "pitch": 54, "duration": 261, "velocity": 100}, {"time": 156008, "pitch": 59, "duration": 261, "velocity": 95}, {"time": 156359, "pitch": 54, "duration": 341, "velocity": 105}, {"time": 156359, "pitch": 59, "duration": 341, "velocity": 110}, {"time": 156369, "pitch": 47, "duration": 342, "velocity": 100}, {"time": 156721, "pitch": 47, "duration": 220, "velocity": 100}, {"time": 156721, "pitch": 54, "duration": 220, "velocity": 95}, {"time": 156731, "pitch": 59, "duration": 220, "velocity": 90}, {"time": 156961, "pitch": 47, "duration": 221, "velocity": 110}, {"time": 156961, "pitch": 54, "duration": 221, "velocity": 105}, {"time": 156971, "pitch": 59, "duration": 221, "velocity": 100}, {"time": 157924, "pitch": 43, "duration": 933, "velocity": 110}, {"time": 157924, "pitch": 50, "duration": 933, "velocity": 105}, {"time": 157934, "pitch": 55, "duration": 933, "velocity": 100}, {"time": 158877, "pitch": 45, "duration": 943, "velocity": 110}, {"time": 158877, "pitch": 52, "duration": 943, "velocity": 105}, {"time": 158887, "pitch": 57, "duration": 943, "velocity": 100}, {"time": 159840, "pitch": 42, "duration": 944, "velocity": 110}, {"time": 159840, "pitch": 49, "duration": 944, "velocity": 105}, {"time": 159850, "pitch": 54, "duration": 944, "velocity": 100}, {"time": 160804, "pitch": 47, "duration": 933, "velocity": 110}, {"time": 160804, "pitch": 54, "duration": 933, "velocity": 105}, {"time": 160814, "pitch": 59, "duration": 933, "velocity": 100}, {"time": 161756, "pitch": 40, "duration": 943, "velocity": 110}, {"time": 161756, "pitch": 47, "duration": 943, "velocity": 105}, {"time": 161766, "pitch": 52, "duration": 943, "velocity": 100}, {"time": 162719, "pitch": 42, "duration": 944, "velocity": 110}, {"time": 162719, "pitch": 49, "duration": 944, "velocity": 105}, {"time": 162730, "pitch": 54, "duration": 943, "velocity": 100}, {"time": 163683, "pitch": 43, "duration": 933, "velocity": 110}, {"time": 163683, "pitch": 50, "duration": 933, "velocity": 105}, {"time": 163693, "pitch": 55, "duration": 933, "velocity": 100}, {"time": 164635, "pitch": 45, "duration": 943, "velocity": 110}, {"time": 164635, "pitch": 52, "duration": 943, "velocity": 105}, {"time": 164645, "pitch": 57, "duration": 944, "velocity": 100}, {"time": 165599, "pitch": 43, "duration": 943, "velocity": 110}, {"time": 165599, "pitch": 50, "duration": 943, "velocity": 105}, {"time": 165609, "pitch": 55, "duration": 943, "velocity": 100}, {"time": 166562, "pitch": 45, "duration": 943, "velocity": 110}, {"time": 166562, "pitch": 52, "duration": 943, "velocity": 105}, {"time": 166572, "pitch": 57, "duration": 943, "velocity": 100}, {"time": 167525, "pitch": 42, "duration": 933, "velocity": 110}, {"time": 167525, "pitch": 49, "duration": 933, "velocity": 105}, {"time": 167535, "pitch": 54, "duration": 933, "velocity": 100}, {"time": 168478, "pitch": 47, "duration": 943, "velocity": 110}, {"time": 168478, "pitch": 54, "duration": 943, "velocity": 105}, {"time": 168488, "pitch": 59, "duration": 943, "velocity": 100}, {"time": 169441, "pitch": 40, "duration": 943, "velocity": 110}, {"time": 169441, "pitch": 47, "duration": 943, "velocity": 105}, {"time": 169451, "pitch": 52, "duration": 943, "velocity": 100}, {"time": 170404, "pitch": 42, "duration": 933, "velocity": 110}, {"time": 170404, "pitch": 49, "duration": 933, "velocity": 105}, {"time": 170414, "pitch": 54, "duration": 933, "velocity": 100}, {"time": 171357, "pitch": 40, "duration": 1906, "velocity": 110}, {"time": 171357, "pitch": 47, "duration": 1906, "velocity": 105}, {"time": 171367, "pitch": 52, "duration": 1906, "velocity": 100}, {"time": 173283, "pitch": 43, "duration": 933, "velocity": 110}, {"time": 173283, "pitch": 50, "duration": 933, "velocity": 105}, {"time": 173293, "pitch": 55, "duration": 933, "velocity": 100}, {"time": 174236, "pitch": 45, "duration": 943, "velocity": 110}, {"time": 174236, "pitch": 52, "duration": 943, "velocity": 105}, {"time": 174246, "pitch": 57, "duration": 943, "velocity": 100}, {"time": 175199, "pitch": 42, "duration": 943, "velocity": 110}, {"time": 175199, "pitch": 49, "duration": 943, "velocity": 105}, {"time": 175209, "pitch": 54, "duration": 943, "velocity": 100}, {"time": 176162, "pitch": 47, "duration": 933, "velocity": 110}, {"time": 176162, "pitch": 54, "duration": 933, "velocity": 105}, {"time": 176172, "pitch": 59, "duration": 933, "velocity": 100}, {"time": 177115, "pitch": 40, "duration": 943, "velocity": 110}, {"time": 177115, "pitch": 47, "duration": 943, "velocity": 105}, {"time": 177125, "pitch": 52, "duration": 943, "velocity": 100}, {"time": 178078, "pitch": 42, "duration": 943, "velocity": 110}, {"time": 178078, "pitch": 49, "duration": 943, "velocity": 105}, {"time": 178088, "pitch": 54, "duration": 943, "velocity": 100}, {"time": 179041, "pitch": 43, "duration": 943, "velocity": 110}, {"time": 179041, "pitch": 50, "duration": 943, "velocity": 105}, {"time": 179051, "pitch": 55, "duration": 943, "velocity": 100}, {"time": 180004, "pitch": 45, "duration": 933, "velocity": 110}, {"time": 180004, "pitch": 52, "duration": 933, "velocity": 105}, {"time": 180014, "pitch": 57, "duration": 933, "velocity": 100}, {"time": 180957, "pitch": 43, "duration": 943, "velocity": 110}, {"time": 180957, "pitch": 50, "duration": 943, "velocity": 105}, {"time": 180967, "pitch": 55, "duration": 943, "velocity": 100}, {"time": 181920, "pitch": 45, "duration": 943, "velocity": 110}, {"time": 181920, "pitch": 52, "duration": 943, "velocity": 105}, {"time": 181930, "pitch": 57, "duration": 943, "velocity": 100}, {"time": 182883, "pitch": 42, "duration": 934, "velocity": 110}, {"time": 182883, "pitch": 49, "duration": 934, "velocity": 105}, {"time": 182893, "pitch": 54, "duration": 933, "velocity": 100}, {"time": 183836, "pitch": 47, "duration": 943, "velocity": 110}, {"time": 183836, "pitch": 54, "duration": 943, "velocity": 105}, {"time": 183846, "pitch": 59, "duration": 943, "velocity": 100}, {"time": 184799, "pitch": 40, "duration": 943, "velocity": 110}, {"time": 184799, "pitch": 47, "duration": 943, "velocity": 105}, {"time": 184809, "pitch": 52, "duration": 943, "velocity": 100}, {"time": 185763, "pitch": 42, "duration": 933, "velocity": 110}, {"time": 185763, "pitch": 49, "duration": 933, "velocity": 105}, {"time": 185773, "pitch": 54, "duration": 933, "velocity": 100}, {"time": 186715, "pitch": 40, "duration": 3822, "velocity": 110}, {"time": 186715, "pitch": 47, "duration": 3822, "velocity": 105}, {"time": 186725, "pitch": 52, "duration": 3812, "velocity": 100}, {"time": 190557, "pitch": 57, "duration": 944, "velocity": 90}, {"time": 190557, "pitch": 62, "duration": 944, "velocity": 95}, {"time": 190568, "pitch": 66, "duration": 943, "velocity": 100}, {"time": 191521, "pitch": 57, "duration": 240, "velocity": 90}, {"time": 191521, "pitch": 62, "duration": 240, "velocity": 95}, {"time": 191531, "pitch": 66, "duration": 230, "velocity": 100}, {"time": 191761, "pitch": 57, "duration": 221, "velocity": 80}, {"time": 191761, "pitch": 62, "duration": 221, "velocity": 85}, {"time": 191771, "pitch": 66, "duration": 221, "velocity": 90}, {"time": 192002, "pitch": 57, "duration": 20, "velocity": 85}, {"time": 192002, "pitch": 62, "duration": 20, "velocity": 90}, {"time": 192012, "pitch": 66, "duration": 20, "velocity": 95}, {"time": 192243, "pitch": 57, "duration": 221, "velocity": 80}, {"time": 192243, "pitch": 62, "duration": 221, "velocity": 85}, {"time": 192253, "pitch": 66, "duration": 221, "velocity": 90}, {"time": 192484, "pitch": 57, "duration": 10, "velocity": 60}, {"time": 192484, "pitch": 62, "duration": 10, "velocity": 65}, {"time": 192494, "pitch": 66, "duration": 9, "velocity": 70}, {"time": 192719, "pitch": 57, "duration": 236, "velocity": 90}, {"time": 192719, "pitch": 62, "duration": 236, "velocity": 95}, {"time": 192729, "pitch": 66, "duration": 226, "velocity": 100}, {"time": 192955, "pitch": 57, "duration": 30, "velocity": 80}, {"time": 192955, "pitch": 62, "duration": 30, "velocity": 85}, {"time": 192965, "pitch": 66, "duration": 30, "velocity": 90}, {"time": 193196, "pitch": 57, "duration": 10, "velocity": 70}, {"time": 193196, "pitch": 62, "duration": 10, "velocity": 75}, {"time": 193206, "pitch": 66, "duration": 10, "velocity": 80}, {"time": 193437, "pitch": 57, "duration": 240, "velocity": 90}, {"time": 193437, "pitch": 62, "duration": 240, "velocity": 95}, {"time": 193447, "pitch": 66, "duration": 230, "velocity": 100}, {"time": 193677, "pitch": 57, "duration": 221, "velocity": 80}, {"time": 193677, "pitch": 62, "duration": 221, "velocity": 85}, {"time": 193687, "pitch": 66, "duration": 221, "velocity": 90}, {"time": 193918, "pitch": 57, "duration": 20, "velocity": 85}, {"time": 193918, "pitch": 62, "duration": 20, "velocity": 90}, {"time": 193928, "pitch": 66, "duration": 20, "velocity": 95}, {"time": 194159, "pitch": 57, "duration": 221, "velocity": 80}, {"time": 194159, "pitch": 62, "duration": 221, "velocity": 85}, {"time": 194169, "pitch": 66, "duration": 221, "velocity": 90}, {"time": 194400, "pitch": 56, "duration": 943, "velocity": 90}, {"time": 194400, "pitch": 62, "duration": 943, "velocity": 95}, {"time": 194410, "pitch": 66, "duration": 943, "velocity": 100}, {"time": 195363, "pitch": 56, "duration": 241, "velocity": 90}, {"time": 195363, "pitch": 62, "duration": 241, "velocity": 95}, {"time": 195373, "pitch": 66, "duration": 231, "velocity": 100}, {"time": 195604, "pitch": 56, "duration": 220, "velocity": 80}, {"time": 195604, "pitch": 62, "duration": 220, "velocity": 85}, {"time": 195614, "pitch": 66, "duration": 220, "velocity": 90}, {"time": 195844, "pitch": 56, "duration": 20, "velocity": 85}, {"time": 195844, "pitch": 62, "duration": 20, "velocity": 90}, {"time": 195854, "pitch": 66, "duration": 20, "velocity": 95}, {"time": 196080, "pitch": 56, "duration": 216, "velocity": 80}, {"time": 196080, "pitch": 62, "duration": 216, "velocity": 85}, {"time": 196090, "pitch": 66, "duration": 216, "velocity": 90}, {"time": 196316, "pitch": 56, "duration": 10, "velocity": 60}, {"time": 196316, "pitch": 62, "duration": 10, "velocity": 65}, {"time": 196326, "pitch": 66, "duration": 10, "velocity": 70}, {"time": 196556, "pitch": 56, "duration": 241, "velocity": 90}, {"time": 196556, "pitch": 62, "duration": 241, "velocity": 95}, {"time": 196566, "pitch": 66, "duration": 231, "velocity": 100}, {"time": 196797, "pitch": 56, "duration": 30, "velocity": 80}, {"time": 196797, "pitch": 62, "duration": 30, "velocity": 85}, {"time": 196807, "pitch": 66, "duration": 30, "velocity": 90}, {"time": 197038, "pitch": 56, "duration": 10, "velocity": 70}, {"time": 197038, "pitch": 62, "duration": 10, "velocity": 75}, {"time": 197048, "pitch": 66, "duration": 10, "velocity": 80}, {"time": 197279, "pitch": 56, "duration": 241, "velocity": 90}, {"time": 197279, "pitch": 62, "duration": 241, "velocity": 95}, {"time": 197289, "pitch": 66, "duration": 231, "velocity": 100}, {"time": 197520, "pitch": 56, "duration": 220, "velocity": 80}, {"time": 197520, "pitch": 62, "duration": 220, "velocity": 85}, {"time": 197530, "pitch": 66, "duration": 220, "velocity": 90}, {"time": 197760, "pitch": 56, "duration": 20, "velocity": 85}, {"time": 197760, "pitch": 62, "duration": 20, "velocity": 90}, {"time": 197770, "pitch": 66, "duration": 21, "velocity": 95}, {"time": 198001, "pitch": 56, "duration": 221, "velocity": 80}, {"time": 198001, "pitch": 62, "duration": 221, "velocity": 85}, {"time": 198011, "pitch": 66, "duration": 221, "velocity": 90}, {"time": 198242, "pitch": 59, "duration": 943, "velocity": 90}, {"time": 198242, "pitch": 62, "duration": 943, "velocity": 95}, {"time": 198252, "pitch": 66, "duration": 943, "velocity": 100}, {"time": 199205, "pitch": 59, "duration": 236, "velocity": 90}, {"time": 199205, "pitch": 62, "duration": 236, "velocity": 95}, {"time": 199215, "pitch": 66, "duration": 226, "velocity": 100}, {"time": 199441, "pitch": 59, "duration": 216, "velocity": 80}, {"time": 199441, "pitch": 62, "duration": 216, "velocity": 85}, {"time": 199451, "pitch": 66, "duration": 216, "velocity": 90}, {"time": 199676, "pitch": 59, "duration": 20, "velocity": 85}, {"time": 199676, "pitch": 62, "duration": 20, "velocity": 90}, {"time": 199686, "pitch": 66, "duration": 20, "velocity": 95}, {"time": 199917, "pitch": 59, "duration": 221, "velocity": 80}, {"time": 199917, "pitch": 62, "duration": 221, "velocity": 85}, {"time": 199927, "pitch": 66, "duration": 221, "velocity": 90}, {"time": 200158, "pitch": 59, "duration": 10, "velocity": 60}, {"time": 200158, "pitch": 62, "duration": 10, "velocity": 65}, {"time": 200168, "pitch": 66, "duration": 10, "velocity": 70}, {"time": 200399, "pitch": 59, "duration": 240, "velocity": 90}, {"time": 200399, "pitch": 62, "duration": 240, "velocity": 95}, {"time": 200409, "pitch": 66, "duration": 230, "velocity": 100}, {"time": 200639, "pitch": 59, "duration": 31, "velocity": 80}, {"time": 200639, "pitch": 62, "duration": 31, "velocity": 85}, {"time": 200650, "pitch": 66, "duration": 30, "velocity": 90}, {"time": 200880, "pitch": 59, "duration": 10, "velocity": 70}, {"time": 200880, "pitch": 62, "duration": 10, "velocity": 75}, {"time": 200890, "pitch": 66, "duration": 10, "velocity": 80}, {"time": 201121, "pitch": 59, "duration": 241, "velocity": 90}, {"time": 201121, "pitch": 62, "duration": 241, "velocity": 95}, {"time": 201131, "pitch": 66, "duration": 231, "velocity": 100}, {"time": 201362, "pitch": 59, "duration": 221, "velocity": 80}, {"time": 201362, "pitch": 62, "duration": 221, "velocity": 85}, {"time": 201372, "pitch": 66, "duration": 221, "velocity": 90}, {"time": 201603, "pitch": 59, "duration": 20, "velocity": 85}, {"time": 201603, "pitch": 62, "duration": 20, "velocity": 90}, {"time": 201613, "pitch": 66, "duration": 20, "velocity": 95}, {"time": 201843, "pitch": 59, "duration": 221, "velocity": 80}, {"time": 201843, "pitch": 62, "duration": 221, "velocity": 85}, {"time": 201853, "pitch": 66, "duration": 221, "velocity": 90}, {"time": 202084, "pitch": 59, "duration": 933, "velocity": 90}, {"time": 202084, "pitch": 64, "duration": 933, "velocity": 95}, {"time": 202094, "pitch": 67, "duration": 933, "velocity": 100}, {"time": 203037, "pitch": 59, "duration": 241, "velocity": 90}, {"time": 203037, "pitch": 64, "duration": 241, "velocity": 95}, {"time": 203047, "pitch": 67, "duration": 231, "velocity": 100}, {"time": 203278, "pitch": 59, "duration": 220, "velocity": 80}, {"time": 203278, "pitch": 64, "duration": 220, "velocity": 85}, {"time": 203288, "pitch": 67, "duration": 221, "velocity": 90}, {"time": 203519, "pitch": 59, "duration": 20, "velocity": 85}, {"time": 203519, "pitch": 64, "duration": 20, "velocity": 90}, {"time": 203529, "pitch": 67, "duration": 20, "velocity": 95}, {"time": 203759, "pitch": 59, "duration": 221, "velocity": 80}, {"time": 203759, "pitch": 64, "duration": 221, "velocity": 85}, {"time": 203769, "pitch": 67, "duration": 221, "velocity": 90}, {"time": 204000, "pitch": 61, "duration": 943, "velocity": 90}, {"time": 204000, "pitch": 66, "duration": 943, "velocity": 95}, {"time": 204010, "pitch": 69, "duration": 943, "velocity": 100}, {"time": 204963, "pitch": 61, "duration": 241, "velocity": 90}, {"time": 204963, "pitch": 66, "duration": 241, "velocity": 95}, {"time": 204973, "pitch": 69, "duration": 231, "velocity": 100}, {"time": 205204, "pitch": 61, "duration": 221, "velocity": 80}, {"time": 205204, "pitch": 66, "duration": 221, "velocity": 85}, {"time": 205214, "pitch": 69, "duration": 221, "velocity": 90}, {"time": 205445, "pitch": 61, "duration": 19, "velocity": 85}, {"time": 205445, "pitch": 66, "duration": 19, "velocity": 90}, {"time": 205455, "pitch": 69, "duration": 19, "velocity": 95}, {"time": 205680, "pitch": 61, "duration": 216, "velocity": 80}, {"time": 205680, "pitch": 66, "duration": 216, "velocity": 85}, {"time": 205690, "pitch": 69, "duration": 216, "velocity": 90}, {"time": 205916, "pitch": 57, "duration": 943, "velocity": 90}, {"time": 205916, "pitch": 62, "duration": 943, "velocity": 95}, {"time": 205926, "pitch": 66, "duration": 943, "velocity": 100}, {"time": 206879, "pitch": 57, "duration": 241, "velocity": 90}, {"time": 206879, "pitch": 62, "duration": 241, "velocity": 95}, {"time": 206889, "pitch": 66, "duration": 231, "velocity": 100}, {"time": 207120, "pitch": 57, "duration": 221, "velocity": 80}, {"time": 207120, "pitch": 62, "duration": 221, "velocity": 85}, {"time": 207130, "pitch": 66, "duration": 221, "velocity": 90}, {"time": 207361, "pitch": 57, "duration": 20, "velocity": 85}, {"time": 207361, "pitch": 62, "duration": 20, "velocity": 90}, {"time": 207371, "pitch": 66, "duration": 20, "velocity": 95}, {"time": 207602, "pitch": 57, "duration": 220, "velocity": 80}, {"time": 207602, "pitch": 62, "duration": 220, "velocity": 85}, {"time": 207612, "pitch": 66, "duration": 220, "velocity": 90}, {"time": 207842, "pitch": 57, "duration": 10, "velocity": 60}, {"time": 207842, "pitch": 62, "duration": 10, "velocity": 65}, {"time": 207852, "pitch": 66, "duration": 10, "velocity": 70}, {"time": 208083, "pitch": 57, "duration": 241, "velocity": 90}, {"time": 208083, "pitch": 62, "duration": 241, "velocity": 95}, {"time": 208093, "pitch": 66, "duration": 231, "velocity": 100}, {"time": 208324, "pitch": 57, "duration": 29, "velocity": 80}, {"time": 208324, "pitch": 62, "duration": 29, "velocity": 85}, {"time": 208334, "pitch": 66, "duration": 29, "velocity": 90}, {"time": 208560, "pitch": 57, "duration": 9, "velocity": 70}, {"time": 208560, "pitch": 62, "duration": 9, "velocity": 75}, {"time": 208569, "pitch": 66, "duration": 10, "velocity": 80}, {"time": 208795, "pitch": 57, "duration": 241, "velocity": 90}, {"time": 208795, "pitch": 62, "duration": 241, "velocity": 95}, {"time": 208805, "pitch": 66, "duration": 231, "velocity": 100}, {"time": 209036, "pitch": 57, "duration": 221, "velocity": 80}, {"time": 209036, "pitch": 62, "duration": 221, "velocity": 85}, {"time": 209046, "pitch": 66, "duration": 221, "velocity": 90}, {"time": 209277, "pitch": 57, "duration": 20, "velocity": 85}, {"time": 209277, "pitch": 62, "duration": 20, "velocity": 90}, {"time": 209287, "pitch": 66, "duration": 20, "velocity": 95}, {"time": 209517, "pitch": 57, "duration": 221, "velocity": 80}, {"time": 209517, "pitch": 62, "duration": 221, "velocity": 85}, {"time": 209528, "pitch": 66, "duration": 220, "velocity": 90}, {"time": 209758, "pitch": 56, "duration": 943, "velocity": 90}, {"time": 209758, "pitch": 62, "duration": 943, "velocity": 95}, {"time": 209768, "pitch": 66, "duration": 943, "velocity": 100}, {"time": 210721, "pitch": 56, "duration": 241, "velocity": 90}, {"time": 210721, "pitch": 62, "duration": 241, "velocity": 95}, {"time": 210731, "pitch": 66, "duration": 231, "velocity": 100}, {"time": 210962, "pitch": 56, "duration": 221, "velocity": 80}, {"time": 210962, "pitch": 62, "duration": 221, "velocity": 85}, {"time": 210972, "pitch": 66, "duration": 221, "velocity": 90}, {"time": 211203, "pitch": 56, "duration": 20, "velocity": 85}, {"time": 211203, "pitch": 62, "duration": 20, "velocity": 90}, {"time": 211213, "pitch": 66, "duration": 20, "velocity": 95}, {"time": 211444, "pitch": 56, "duration": 221, "velocity": 80}, {"time": 211444, "pitch": 62, "duration": 221, "velocity": 85}, {"time": 211454, "pitch": 66, "duration": 221, "velocity": 90}, {"time": 211685, "pitch": 56, "duration": 9, "velocity": 60}, {"time": 211685, "pitch": 62, "duration": 9, "velocity": 65}, {"time": 211694, "pitch": 66, "duration": 10, "velocity": 70}, {"time": 211920, "pitch": 56, "duration": 236, "velocity": 90}, {"time": 211920, "pitch": 62, "duration": 236, "velocity": 95}, {"time": 211930, "pitch": 66, "duration": 226, "velocity": 100}, {"time": 212156, "pitch": 56, "duration": 30, "velocity": 80}, {"time": 212156, "pitch": 62, "duration": 30, "velocity": 85}, {"time": 212166, "pitch": 66, "duration": 30, "velocity": 90}, {"time": 212397, "pitch": 56, "duration": 10, "velocity": 70}, {"time": 212397, "pitch": 62, "duration": 10, "velocity": 75}, {"time": 212407, "pitch": 66, "duration": 10, "velocity": 80}, {"time": 212637, "pitch": 56, "duration": 241, "velocity": 90}, {"time": 212637, "pitch": 62, "duration": 241, "velocity": 95}, {"time": 212647, "pitch": 66, "duration": 231, "velocity": 100}, {"time": 212878, "pitch": 56, "duration": 221, "velocity": 80}, {"time": 212878, "pitch": 62, "duration": 221, "velocity": 85}, {"time": 212888, "pitch": 66, "duration": 221, "velocity": 90}, {"time": 213119, "pitch": 56, "duration": 20, "velocity": 85}, {"time": 213119, "pitch": 62, "duration": 20, "velocity": 90}, {"time": 213129, "pitch": 66, "duration": 20, "velocity": 95}, {"time": 213360, "pitch": 56, "duration": 220, "velocity": 80}, {"time": 213360, "pitch": 62, "duration": 220, "velocity": 85}, {"time": 213370, "pitch": 66, "duration": 221, "velocity": 90}, {"time": 213601, "pitch": 59, "duration": 943, "velocity": 90}, {"time": 213601, "pitch": 62, "duration": 943, "velocity": 95}, {"time": 213611, "pitch": 66, "duration": 943, "velocity": 100}, {"time": 214564, "pitch": 59, "duration": 235, "velocity": 90}, {"time": 214564, "pitch": 62, "duration": 235, "velocity": 95}, {"time": 214573, "pitch": 66, "duration": 226, "velocity": 100}, {"time": 214799, "pitch": 59, "duration": 216, "velocity": 80}, {"time": 214799, "pitch": 62, "duration": 216, "velocity": 85}, {"time": 214809, "pitch": 66, "duration": 216, "velocity": 90}, {"time": 215035, "pitch": 59, "duration": 20, "velocity": 85}, {"time": 215035, "pitch": 62, "duration": 20, "velocity": 90}, {"time": 215045, "pitch": 66, "duration": 20, "velocity": 95}, {"time": 215276, "pitch": 59, "duration": 220, "velocity": 80}, {"time": 215276, "pitch": 62, "duration": 220, "velocity": 85}, {"time": 215286, "pitch": 66, "duration": 220, "velocity": 90}, {"time": 215516, "pitch": 59, "duration": 10, "velocity": 60}, {"time": 215516, "pitch": 62, "duration": 10, "velocity": 65}, {"time": 215526, "pitch": 66, "duration": 11, "velocity": 70}, {"time": 215757, "pitch": 59, "duration": 241, "velocity": 90}, {"time": 215757, "pitch": 62, "duration": 241, "velocity": 95}, {"time": 215767, "pitch": 66, "duration": 231, "velocity": 100}, {"time": 215998, "pitch": 59, "duration": 30, "velocity": 80}, {"time": 215998, "pitch": 62, "duration": 30, "velocity": 85}, {"time": 216008, "pitch": 66, "duration": 30, "velocity": 90}, {"time": 216239, "pitch": 59, "duration": 10, "velocity": 70}, {"time": 216239, "pitch": 62, "duration": 10, "velocity": 75}, {"time": 216249, "pitch": 66, "duration": 10, "velocity": 80}, {"time": 216480, "pitch": 59, "duration": 240, "velocity": 90}, {"time": 216480, "pitch": 62, "duration": 240, "velocity": 95}, {"time": 216490, "pitch": 66, "duration": 230, "velocity": 100}, {"time": 216720, "pitch": 59, "duration": 221, "velocity": 80}, {"time": 216720, "pitch": 62, "duration": 221, "velocity": 85}, {"time": 216730, "pitch": 66, "duration": 221, "velocity": 90}, {"time": 216961, "pitch": 59, "duration": 20, "velocity": 85}, {"time": 216961, "pitch": 62, "duration": 20, "velocity": 90}, {"time": 216971, "pitch": 66, "duration": 20, "velocity": 95}, {"time": 217202, "pitch": 59, "duration": 221, "velocity": 80}, {"time": 217202, "pitch": 62, "duration": 221, "velocity": 85}, {"time": 217212, "pitch": 66, "duration": 221, "velocity": 90}, {"time": 217443, "pitch": 59, "duration": 933, "velocity": 90}, {"time": 217443, "pitch": 64, "duration": 933, "velocity": 95}, {"time": 217453, "pitch": 67, "duration": 933, "velocity": 100}, {"time": 218396, "pitch": 59, "duration": 240, "velocity": 90}, {"time": 218396, "pitch": 64, "duration": 240, "velocity": 95}, {"time": 218406, "pitch": 67, "duration": 230, "velocity": 100}, {"time": 218636, "pitch": 59, "duration": 221, "velocity": 80}, {"time": 218636, "pitch": 64, "duration": 221, "velocity": 85}, {"time": 218646, "pitch": 67, "duration": 221, "velocity": 90}, {"time": 218877, "pitch": 59, "duration": 20, "velocity": 85}, {"time": 218877, "pitch": 64, "duration": 20, "velocity": 90}, {"time": 218887, "pitch": 67, "duration": 20, "velocity": 95}, {"time": 219118, "pitch": 59, "duration": 221, "velocity": 80}, {"time": 219118, "pitch": 64, "duration": 221, "velocity": 85}, {"time": 219128, "pitch": 67, "duration": 221, "velocity": 90}, {"time": 219359, "pitch": 61, "duration": 943, "velocity": 90}, {"time": 219359, "pitch": 66, "duration": 943, "velocity": 95}, {"time": 219369, "pitch": 69, "duration": 943, "velocity": 100}, {"time": 220322, "pitch": 61, "duration": 241, "velocity": 90}, {"time": 220322, "pitch": 66, "duration": 241, "velocity": 95}, {"time": 220332, "pitch": 69, "duration": 231, "velocity": 100}, {"time": 220563, "pitch": 61, "duration": 220, "velocity": 80}, {"time": 220563, "pitch": 66, "duration": 220, "velocity": 85}, {"time": 220573, "pitch": 69, "duration": 220, "velocity": 90}, {"time": 220803, "pitch": 61, "duration": 21, "velocity": 85}, {"time": 220803, "pitch": 66, "duration": 21, "velocity": 90}, {"time": 220813, "pitch": 69, "duration": 21, "velocity": 95}, {"time": 221044, "pitch": 61, "duration": 221, "velocity": 80}, {"time": 221044, "pitch": 66, "duration": 221, "velocity": 85}, {"time": 221054, "pitch": 69, "duration": 221, "velocity": 90}, {"time": 234717, "pitch": 52, "duration": 1907, "velocity": 100}, {"time": 234717, "pitch": 59, "duration": 1907, "velocity": 105}, {"time": 234727, "pitch": 64, "duration": 1907, "velocity": 110}, {"time": 236644, "pitch": 43, "duration": 933, "velocity": 110}, {"time": 236644, "pitch": 50, "duration": 933, "velocity": 105}, {"time": 236654, "pitch": 55, "duration": 933, "velocity": 100}, {"time": 237596, "pitch": 45, "duration": 943, "velocity": 110}, {"time": 237596, "pitch": 52, "duration": 943, "velocity": 105}, {"time": 237606, "pitch": 57, "duration": 943, "velocity": 100}, {"time": 238559, "pitch": 42, "duration": 944, "velocity": 110}, {"time": 238559, "pitch": 49, "duration": 944, "velocity": 105}, {"time": 238570, "pitch": 54, "duration": 943, "velocity": 100}, {"time": 239523, "pitch": 47, "duration": 933, "velocity": 110}, {"time": 239523, "pitch": 54, "duration": 933, "velocity": 105}, {"time": 239533, "pitch": 59, "duration": 933, "velocity": 100}, {"time": 240475, "pitch": 40, "duration": 943, "velocity": 110}, {"time": 240475, "pitch": 47, "duration": 943, "velocity": 105}, {"time": 240485, "pitch": 52, "duration": 944, "velocity": 100}, {"time": 241439, "pitch": 42, "duration": 943, "velocity": 110}, {"time": 241439, "pitch": 49, "duration": 943, "velocity": 105}, {"time": 241449, "pitch": 54, "duration": 943, "velocity": 100}, {"time": 242402, "pitch": 43, "duration": 943, "velocity": 110}, {"time": 242402, "pitch": 50, "duration": 943, "velocity": 105}, {"time": 242412, "pitch": 55, "duration": 943, "velocity": 100}, {"time": 243365, "pitch": 45, "duration": 933, "velocity": 110}, {"time": 243365, "pitch": 52, "duration": 933, "velocity": 105}, {"time": 243375, "pitch": 57, "duration": 933, "velocity": 100}, {"time": 244318, "pitch": 43, "duration": 943, "velocity": 110}, {"time": 244318, "pitch": 50, "duration": 943, "velocity": 105}, {"time": 244328, "pitch": 55, "duration": 943, "velocity": 100}, {"time": 245281, "pitch": 45, "duration": 943, "velocity": 110}, {"time": 245281, "pitch": 52, "duration": 943, "velocity": 105}, {"time": 245291, "pitch": 57, "duration": 943, "velocity": 100}, {"time": 246244, "pitch": 42, "duration": 933, "velocity": 110}, {"time": 246244, "pitch": 49, "duration": 933, "velocity": 105}, {"time": 246254, "pitch": 54, "duration": 933, "velocity": 100}, {"time": 247197, "pitch": 47, "duration": 943, "velocity": 110}, {"time": 247197, "pitch": 54, "duration": 943, "velocity": 105}, {"time": 247207, "pitch": 59, "duration": 943, "velocity": 100}, {"time": 248160, "pitch": 40, "duration": 943, "velocity": 110}, {"time": 248160, "pitch": 47, "duration": 943, "velocity": 105}, {"time": 248170, "pitch": 52, "duration": 943, "velocity": 100}, {"time": 249123, "pitch": 42, "duration": 933, "velocity": 110}, {"time": 249123, "pitch": 49, "duration": 933, "velocity": 105}, {"time": 249133, "pitch": 54, "duration": 933, "velocity": 100}, {"time": 250076, "pitch": 40, "duration": 1906, "velocity": 110}, {"time": 250076, "pitch": 47, "duration": 1906, "velocity": 105}, {"time": 250086, "pitch": 52, "duration": 1906, "velocity": 100}]}]}