{"metadata": {"schema_version": "0.1", "title": "RWC-MDB-P-2001 No. 7: PROLOGUE / Tomomi Ogata", "copyright": "RWC Music Database. Copyright (C) 2001 Real World Computing Partnership (contact: Masataka GOTO <m.goto@aist.go.jp>)", "source_filename": "RM-P007.SMF_SYNC.MID", "source_format": "midi"}, "resolution": 480, "tempos": [{"time": 0, "qpm": 58.8235294117647}, {"time": 480, "qpm": 122.44897959183673}, {"time": 2400, "qpm": 120.0}, {"time": 2880, "qpm": 122.44897959183673}, {"time": 4800, "qpm": 120.0}, {"time": 5280, "qpm": 122.44897959183673}, {"time": 7680, "qpm": 120.0}, {"time": 8160, "qpm": 122.44897959183673}, {"time": 10080, "qpm": 120.0}, {"time": 10560, "qpm": 122.44897959183673}, {"time": 12960, "qpm": 120.0}, {"time": 13440, "qpm": 122.44897959183673}, {"time": 15840, "qpm": 120.0}, {"time": 16320, "qpm": 122.44897959183673}, {"time": 18240, "qpm": 120.0}, {"time": 18720, "qpm": 122.44897959183673}, {"time": 21120, "qpm": 120.0}, {"time": 21600, "qpm": 122.44897959183673}, {"time": 23520, "qpm": 120.0}, {"time": 24000, "qpm": 122.44897959183673}, {"time": 26400, "qpm": 120.0}, {"time": 26880, "qpm": 122.44897959183673}, {"time": 29280, "qpm": 120.0}, {"time": 29760, "qpm": 122.44897959183673}, {"time": 31680, "qpm": 120.0}, {"time": 32160, "qpm": 122.44897959183673}, {"time": 34080, "qpm": 120.0}, {"time": 34560, "qpm": 122.44897959183673}, {"time": 36960, "qpm": 120.0}, {"time": 37440, "qpm": 122.44897959183673}, {"time": 39360, "qpm": 120.0}, {"time": 39840, "qpm": 122.44897959183673}, {"time": 42240, "qpm": 120.0}, {"time": 42720, "qpm": 122.44897959183673}, {"time": 44640, "qpm": 120.0}, {"time": 45120, "qpm": 122.44897959183673}, {"time": 47520, "qpm": 120.0}, {"time": 48000, "qpm": 122.44897959183673}, {"time": 50400, "qpm": 120.0}, {"time": 50880, "qpm": 122.44897959183673}, {"time": 52800, "qpm": 120.0}, {"time": 53280, "qpm": 122.44897959183673}, {"time": 55680, "qpm": 120.0}, {"time": 56160, "qpm": 122.44897959183673}, {"time": 58080, "qpm": 120.0}, {"time": 58560, "qpm": 122.44897959183673}, {"time": 60960, "qpm": 120.0}, {"time": 61440, "qpm": 122.44897959183673}, {"time": 63840, "qpm": 120.0}, {"time": 64320, "qpm": 122.44897959183673}, {"time": 66240, "qpm": 120.0}, {"time": 66720, "qpm": 122.44897959183673}, {"time": 68640, "qpm": 120.0}, {"time": 69120, "qpm": 122.44897959183673}, {"time": 71520, "qpm": 120.0}, {"time": 72000, "qpm": 122.44897959183673}, {"time": 73920, "qpm": 120.0}, {"time": 74400, "qpm": 122.44897959183673}, {"time": 76800, "qpm": 120.0}, {"time": 77280, "qpm": 122.44897959183673}, {"time": 79680, "qpm": 120.0}, {"time": 80160, "qpm": 122.44897959183673}, {"time": 82080, "qpm": 120.0}, {"time": 82560, "qpm": 122.44897959183673}, {"time": 84960, "qpm": 120.0}, {"time": 85440, "qpm": 122.44897959183673}, {"time": 87360, "qpm": 120.0}, {"time": 87840, "qpm": 122.44897959183673}, {"time": 90240, "qpm": 120.0}, {"time": 90720, "qpm": 122.44897959183673}, {"time": 92640, "qpm": 120.0}, {"time": 93120, "qpm": 122.44897959183673}, {"time": 95520, "qpm": 120.0}, {"time": 96000, "qpm": 122.44897959183673}, {"time": 98400, "qpm": 120.0}, {"time": 98880, "qpm": 122.44897959183673}, {"time": 100800, "qpm": 120.0}, {"time": 101280, "qpm": 122.44897959183673}, {"time": 103200, "qpm": 120.0}, {"time": 103680, "qpm": 122.44897959183673}, {"time": 106080, "qpm": 120.0}, {"time": 106560, "qpm": 122.44897959183673}, {"time": 108960, "qpm": 120.0}, {"time": 109440, "qpm": 122.44897959183673}, {"time": 111360, "qpm": 120.0}, {"time": 111840, "qpm": 122.44897959183673}, {"time": 114240, "qpm": 120.0}, {"time": 114720, "qpm": 122.44897959183673}, {"time": 116640, "qpm": 120.0}, {"time": 117120, "qpm": 122.44897959183673}, {"time": 119520, "qpm": 120.0}, {"time": 120000, "qpm": 122.44897959183673}, {"time": 121920, "qpm": 120.0}, {"time": 122400, "qpm": 122.44897959183673}, {"time": 124800, "qpm": 120.0}, {"time": 125280, "qpm": 122.44897959183673}, {"time": 127200, "qpm": 120.0}, {"time": 127680, "qpm": 122.44897959183673}, {"time": 130080, "qpm": 120.0}, {"time": 130560, "qpm": 122.44897959183673}, {"time": 132960, "qpm": 120.0}, {"time": 133440, "qpm": 122.44897959183673}, {"time": 135360, "qpm": 120.0}, {"time": 135840, "qpm": 122.44897959183673}, {"time": 138240, "qpm": 120.0}, {"time": 138720, "qpm": 122.44897959183673}, {"time": 140640, "qpm": 120.0}, {"time": 141120, "qpm": 122.44897959183673}, {"time": 143520, "qpm": 120.0}, {"time": 144000, "qpm": 122.44897959183673}, {"time": 146400, "qpm": 120.0}, {"time": 146880, "qpm": 122.44897959183673}, {"time": 148800, "qpm": 120.0}, {"time": 149280, "qpm": 122.44897959183673}, {"time": 151200, "qpm": 120.0}, {"time": 151680, "qpm": 122.44897959183673}, {"time": 154080, "qpm": 120.0}, {"time": 154560, "qpm": 122.44897959183673}, {"time": 156480, "qpm": 120.0}, {"time": 156960, "qpm": 122.44897959183673}, {"time": 159360, "qpm": 120.0}, {"time": 159840, "qpm": 122.44897959183673}, {"time": 161760, "qpm": 120.0}, {"time": 162240, "qpm": 122.44897959183673}, {"time": 164640, "qpm": 120.0}, {"time": 165120, "qpm": 122.44897959183673}, {"time": 167520, "qpm": 120.0}, {"time": 168000, "qpm": 122.44897959183673}, {"time": 169920, "qpm": 120.0}, {"time": 170400, "qpm": 122.44897959183673}, {"time": 172800, "qpm": 120.0}, {"time": 173280, "qpm": 122.44897959183673}, {"time": 175200, "qpm": 120.0}, {"time": 175680, "qpm": 122.44897959183673}, {"time": 178080, "qpm": 120.0}, {"time": 178560, "qpm": 122.44897959183673}, {"time": 180960, "qpm": 120.0}, {"time": 181440, "qpm": 122.44897959183673}, {"time": 183360, "qpm": 120.0}, {"time": 183840, "qpm": 122.44897959183673}, {"time": 185760, "qpm": 120.0}, {"time": 186240, "qpm": 122.44897959183673}, {"time": 188640, "qpm": 120.0}, {"time": 189120, "qpm": 122.44897959183673}, {"time": 191040, "qpm": 120.0}, {"time": 191520, "qpm": 122.44897959183673}, {"time": 193920, "qpm": 120.0}, {"time": 194400, "qpm": 122.44897959183673}, {"time": 196800, "qpm": 120.0}, {"time": 197280, "qpm": 122.44897959183673}, {"time": 199200, "qpm": 120.0}, {"time": 199680, "qpm": 122.44897959183673}, {"time": 202080, "qpm": 120.0}, {"time": 202560, "qpm": 122.44897959183673}, {"time": 204480, "qpm": 120.0}, {"time": 204960, "qpm": 122.44897959183673}, {"time": 207360, "qpm": 120.0}, {"time": 207840, "qpm": 122.44897959183673}, {"time": 209760, "qpm": 120.0}, {"time": 210240, "qpm": 122.44897959183673}, {"time": 212640, "qpm": 120.0}, {"time": 213120, "qpm": 122.44897959183673}, {"time": 215520, "qpm": 120.0}, {"time": 216000, "qpm": 122.44897959183673}, {"time": 217920, "qpm": 120.0}, {"time": 218400, "qpm": 122.44897959183673}, {"time": 220320, "qpm": 120.0}, {"time": 220800, "qpm": 122.44897959183673}, {"time": 223200, "qpm": 120.0}, {"time": 223680, "qpm": 122.44897959183673}, {"time": 226080, "qpm": 120.0}, {"time": 226560, "qpm": 122.44897959183673}, {"time": 228480, "qpm": 120.0}, {"time": 228960, "qpm": 122.44897959183673}, {"time": 231360, "qpm": 120.0}, {"time": 231840, "qpm": 122.44897959183673}, {"time": 233760, "qpm": 120.0}, {"time": 234240, "qpm": 122.44897959183673}, {"time": 236640, "qpm": 120.0}, {"time": 237120, "qpm": 122.44897959183673}, {"time": 239040, "qpm": 120.0}, {"time": 239520, "qpm": 122.44897959183673}, {"time": 241920, "qpm": 120.0}, {"time": 242400, "qpm": 122.44897959183673}, {"time": 244320, "qpm": 120.0}, {"time": 244800, "qpm": 122.44897959183673}, {"time": 247200, "qpm": 120.0}, {"time": 247680, "qpm": 122.44897959183673}, {"time": 250080, "qpm": 120.0}, {"time": 250560, "qpm": 122.44897959183673}, {"time": 252480, "qpm": 120.0}, {"time": 252960, "qpm": 122.44897959183673}, {"time": 255360, "qpm": 120.0}, {"time": 255840, "qpm": 122.44897959183673}, {"time": 257760, "qpm": 120.0}, {"time": 258240, "qpm": 122.44897959183673}, {"time": 260640, "qpm": 120.0}, {"time": 261120, "qpm": 122.44897959183673}, {"time": 263520, "qpm": 120.0}, {"time": 264000, "qpm": 122.44897959183673}, {"time": 265920, "qpm": 120.0}, {"time": 266400, "qpm": 122.44897959183673}, {"time": 268320, "qpm": 120.0}, {"time": 268800, "qpm": 122.44897959183673}, {"time": 271200, "qpm": 120.0}, {"time": 271680, "qpm": 122.44897959183673}, {"time": 273600, "qpm": 120.0}, {"time": 274080, "qpm": 122.44897959183673}, {"time": 276480, "qpm": 120.0}, {"time": 276960, "qpm": 122.44897959183673}, {"time": 278880, "qpm": 120.0}, {"time": 279360, "qpm": 122.44897959183673}, {"time": 281760, "qpm": 120.0}, {"time": 282240, "qpm": 122.44897959183673}, {"time": 284640, "qpm": 120.0}, {"time": 285120, "qpm": 122.44897959183673}, {"time": 287040, "qpm": 120.0}, {"time": 287520, "qpm": 122.44897959183673}], "key_signatures": [{"time": 0, "root": 0, "mode": "major"}], "time_signatures": [{"time": 0, "numerator": 1, "denominator": 4}, {"time": 480, "numerator": 4, "denominator": 4}], "tracks": [{"program": 0, "is_drum": false, "name": "Piano", "notes": [{"time": 4322, "pitch": 49, "duration": 471, "velocity": 110}, {"time": 4322, "pitch": 59, "duration": 708, "velocity": 100}, {"time": 4322, "pitch": 64, "duration": 708, "velocity": 105}, {"time": 4322, "pitch": 68, "duration": 708, "velocity": 110}, {"time": 4803, "pitch": 49, "duration": 703, "velocity": 105}, {"time": 5039, "pitch": 59, "duration": 708, "velocity": 100}, {"time": 5039, "pitch": 64, "duration": 708, "velocity": 105}, {"time": 5039, "pitch": 68, "duration": 708, "velocity": 110}, {"time": 5516, "pitch": 49, "duration": 472, "velocity": 105}, {"time": 5757, "pitch": 59, "duration": 472, "velocity": 100}, {"time": 5757, "pitch": 64, "duration": 472, "velocity": 105}, {"time": 5757, "pitch": 68, "duration": 472, "velocity": 110}, {"time": 5998, "pitch": 49, "duration": 231, "velocity": 100}, {"time": 6239, "pitch": 42, "duration": 472, "velocity": 110}, {"time": 6239, "pitch": 57, "duration": 712, "velocity": 95}, {"time": 6239, "pitch": 61, "duration": 712, "velocity": 100}, {"time": 6239, "pitch": 64, "duration": 712, "velocity": 105}, {"time": 6239, "pitch": 68, "duration": 712, "velocity": 110}, {"time": 6721, "pitch": 42, "duration": 712, "velocity": 105}, {"time": 6962, "pitch": 57, "duration": 712, "velocity": 95}, {"time": 6962, "pitch": 61, "duration": 712, "velocity": 100}, {"time": 6962, "pitch": 64, "duration": 712, "velocity": 105}, {"time": 6962, "pitch": 68, "duration": 712, "velocity": 110}, {"time": 7443, "pitch": 42, "duration": 467, "velocity": 105}, {"time": 7684, "pitch": 57, "duration": 462, "velocity": 95}, {"time": 7684, "pitch": 61, "duration": 462, "velocity": 100}, {"time": 7684, "pitch": 64, "duration": 462, "velocity": 105}, {"time": 7684, "pitch": 68, "duration": 462, "velocity": 110}, {"time": 7920, "pitch": 42, "duration": 226, "velocity": 100}, {"time": 8156, "pitch": 44, "duration": 472, "velocity": 110}, {"time": 8156, "pitch": 56, "duration": 713, "velocity": 95}, {"time": 8156, "pitch": 59, "duration": 713, "velocity": 100}, {"time": 8156, "pitch": 63, "duration": 713, "velocity": 105}, {"time": 8156, "pitch": 66, "duration": 713, "velocity": 110}, {"time": 8638, "pitch": 44, "duration": 713, "velocity": 105}, {"time": 8879, "pitch": 56, "duration": 712, "velocity": 95}, {"time": 8879, "pitch": 59, "duration": 712, "velocity": 100}, {"time": 8879, "pitch": 63, "duration": 712, "velocity": 105}, {"time": 8879, "pitch": 66, "duration": 712, "velocity": 110}, {"time": 9361, "pitch": 44, "duration": 471, "velocity": 105}, {"time": 9601, "pitch": 56, "duration": 472, "velocity": 95}, {"time": 9601, "pitch": 59, "duration": 472, "velocity": 100}, {"time": 9601, "pitch": 63, "duration": 472, "velocity": 105}, {"time": 9601, "pitch": 66, "duration": 472, "velocity": 110}, {"time": 9842, "pitch": 44, "duration": 231, "velocity": 100}, {"time": 10083, "pitch": 45, "duration": 462, "velocity": 110}, {"time": 10083, "pitch": 57, "duration": 703, "velocity": 100}, {"time": 10083, "pitch": 61, "duration": 703, "velocity": 105}, {"time": 10083, "pitch": 64, "duration": 703, "velocity": 110}, {"time": 10555, "pitch": 45, "duration": 713, "velocity": 105}, {"time": 10796, "pitch": 57, "duration": 713, "velocity": 100}, {"time": 10796, "pitch": 61, "duration": 713, "velocity": 105}, {"time": 10796, "pitch": 64, "duration": 713, "velocity": 110}, {"time": 11278, "pitch": 45, "duration": 231, "velocity": 105}, {"time": 11519, "pitch": 47, "duration": 471, "velocity": 110}, {"time": 11519, "pitch": 59, "duration": 471, "velocity": 100}, {"time": 11519, "pitch": 63, "duration": 471, "velocity": 105}, {"time": 11519, "pitch": 66, "duration": 471, "velocity": 110}, {"time": 12000, "pitch": 49, "duration": 472, "velocity": 110}, {"time": 12000, "pitch": 59, "duration": 713, "velocity": 100}, {"time": 12000, "pitch": 64, "duration": 713, "velocity": 105}, {"time": 12000, "pitch": 68, "duration": 713, "velocity": 110}, {"time": 12482, "pitch": 49, "duration": 708, "velocity": 105}, {"time": 12723, "pitch": 59, "duration": 703, "velocity": 100}, {"time": 12723, "pitch": 64, "duration": 703, "velocity": 105}, {"time": 12723, "pitch": 68, "duration": 703, "velocity": 110}, {"time": 13200, "pitch": 49, "duration": 467, "velocity": 105}, {"time": 13436, "pitch": 59, "duration": 472, "velocity": 100}, {"time": 13436, "pitch": 64, "duration": 472, "velocity": 105}, {"time": 13436, "pitch": 68, "duration": 472, "velocity": 110}, {"time": 13677, "pitch": 49, "duration": 231, "velocity": 100}, {"time": 13918, "pitch": 44, "duration": 471, "velocity": 110}, {"time": 13918, "pitch": 56, "duration": 712, "velocity": 95}, {"time": 13918, "pitch": 59, "duration": 712, "velocity": 100}, {"time": 13918, "pitch": 63, "duration": 712, "velocity": 105}, {"time": 13918, "pitch": 66, "duration": 712, "velocity": 110}, {"time": 14400, "pitch": 44, "duration": 712, "velocity": 105}, {"time": 14640, "pitch": 56, "duration": 713, "velocity": 95}, {"time": 14640, "pitch": 59, "duration": 713, "velocity": 100}, {"time": 14640, "pitch": 63, "duration": 713, "velocity": 105}, {"time": 14640, "pitch": 66, "duration": 713, "velocity": 110}, {"time": 15122, "pitch": 44, "duration": 472, "velocity": 105}, {"time": 15363, "pitch": 56, "duration": 472, "velocity": 95}, {"time": 15363, "pitch": 59, "duration": 472, "velocity": 100}, {"time": 15363, "pitch": 63, "duration": 472, "velocity": 105}, {"time": 15363, "pitch": 66, "duration": 472, "velocity": 110}, {"time": 15604, "pitch": 43, "duration": 231, "velocity": 100}, {"time": 15845, "pitch": 42, "duration": 462, "velocity": 110}, {"time": 15845, "pitch": 54, "duration": 703, "velocity": 95}, {"time": 15845, "pitch": 57, "duration": 703, "velocity": 100}, {"time": 15845, "pitch": 61, "duration": 703, "velocity": 105}, {"time": 15845, "pitch": 64, "duration": 703, "velocity": 110}, {"time": 16317, "pitch": 42, "duration": 712, "velocity": 105}, {"time": 16558, "pitch": 54, "duration": 1194, "velocity": 95}, {"time": 16558, "pitch": 57, "duration": 1194, "velocity": 100}, {"time": 16558, "pitch": 61, "duration": 1194, "velocity": 105}, {"time": 16558, "pitch": 64, "duration": 1194, "velocity": 110}, {"time": 17039, "pitch": 42, "duration": 231, "velocity": 105}, {"time": 17280, "pitch": 40, "duration": 231, "velocity": 110}, {"time": 17521, "pitch": 39, "duration": 231, "velocity": 100}, {"time": 17762, "pitch": 38, "duration": 708, "velocity": 110}, {"time": 17762, "pitch": 60, "duration": 708, "velocity": 100}, {"time": 17762, "pitch": 66, "duration": 708, "velocity": 105}, {"time": 17762, "pitch": 71, "duration": 708, "velocity": 110}, {"time": 18480, "pitch": 44, "duration": 1189, "velocity": 110}, {"time": 18480, "pitch": 60, "duration": 1189, "velocity": 100}, {"time": 18480, "pitch": 66, "duration": 1189, "velocity": 105}, {"time": 18480, "pitch": 69, "duration": 1189, "velocity": 110}, {"time": 19679, "pitch": 49, "duration": 472, "velocity": 110}, {"time": 19679, "pitch": 59, "duration": 713, "velocity": 100}, {"time": 19679, "pitch": 64, "duration": 713, "velocity": 105}, {"time": 19679, "pitch": 68, "duration": 713, "velocity": 110}, {"time": 20161, "pitch": 49, "duration": 713, "velocity": 105}, {"time": 20402, "pitch": 59, "duration": 713, "velocity": 100}, {"time": 20402, "pitch": 64, "duration": 713, "velocity": 105}, {"time": 20402, "pitch": 68, "duration": 713, "velocity": 110}, {"time": 20884, "pitch": 49, "duration": 703, "velocity": 105}, {"time": 21125, "pitch": 59, "duration": 462, "velocity": 100}, {"time": 21125, "pitch": 64, "duration": 462, "velocity": 105}, {"time": 21125, "pitch": 68, "duration": 462, "velocity": 110}, {"time": 21597, "pitch": 49, "duration": 471, "velocity": 110}, {"time": 21597, "pitch": 59, "duration": 712, "velocity": 100}, {"time": 21597, "pitch": 64, "duration": 712, "velocity": 105}, {"time": 21597, "pitch": 68, "duration": 712, "velocity": 110}, {"time": 22078, "pitch": 49, "duration": 713, "velocity": 105}, {"time": 22319, "pitch": 59, "duration": 713, "velocity": 100}, {"time": 22319, "pitch": 64, "duration": 713, "velocity": 105}, {"time": 22319, "pitch": 68, "duration": 713, "velocity": 110}, {"time": 22801, "pitch": 49, "duration": 472, "velocity": 105}, {"time": 23042, "pitch": 59, "duration": 472, "velocity": 100}, {"time": 23042, "pitch": 64, "duration": 472, "velocity": 105}, {"time": 23042, "pitch": 68, "duration": 472, "velocity": 110}, {"time": 23283, "pitch": 49, "duration": 231, "velocity": 100}, {"time": 23524, "pitch": 42, "duration": 462, "velocity": 110}, {"time": 23524, "pitch": 57, "duration": 702, "velocity": 95}, {"time": 23524, "pitch": 61, "duration": 702, "velocity": 100}, {"time": 23524, "pitch": 64, "duration": 702, "velocity": 105}, {"time": 23524, "pitch": 68, "duration": 702, "velocity": 110}, {"time": 23996, "pitch": 42, "duration": 712, "velocity": 105}, {"time": 24237, "pitch": 57, "duration": 712, "velocity": 95}, {"time": 24237, "pitch": 61, "duration": 712, "velocity": 100}, {"time": 24237, "pitch": 64, "duration": 712, "velocity": 105}, {"time": 24237, "pitch": 68, "duration": 712, "velocity": 110}, {"time": 24718, "pitch": 42, "duration": 231, "velocity": 105}, {"time": 24959, "pitch": 42, "duration": 472, "velocity": 110}, {"time": 24959, "pitch": 57, "duration": 472, "velocity": 95}, {"time": 24959, "pitch": 61, "duration": 472, "velocity": 100}, {"time": 24959, "pitch": 64, "duration": 472, "velocity": 105}, {"time": 24959, "pitch": 68, "duration": 472, "velocity": 110}, {"time": 25441, "pitch": 42, "duration": 472, "velocity": 110}, {"time": 25441, "pitch": 57, "duration": 713, "velocity": 95}, {"time": 25441, "pitch": 61, "duration": 713, "velocity": 100}, {"time": 25441, "pitch": 64, "duration": 713, "velocity": 105}, {"time": 25441, "pitch": 68, "duration": 713, "velocity": 110}, {"time": 25923, "pitch": 42, "duration": 708, "velocity": 105}, {"time": 26164, "pitch": 57, "duration": 703, "velocity": 95}, {"time": 26164, "pitch": 61, "duration": 703, "velocity": 100}, {"time": 26164, "pitch": 64, "duration": 703, "velocity": 105}, {"time": 26164, "pitch": 68, "duration": 703, "velocity": 110}, {"time": 26640, "pitch": 42, "duration": 467, "velocity": 105}, {"time": 26877, "pitch": 57, "duration": 471, "velocity": 95}, {"time": 26877, "pitch": 61, "duration": 471, "velocity": 100}, {"time": 26877, "pitch": 64, "duration": 471, "velocity": 105}, {"time": 26877, "pitch": 68, "duration": 471, "velocity": 110}, {"time": 27117, "pitch": 42, "duration": 231, "velocity": 100}, {"time": 27358, "pitch": 44, "duration": 472, "velocity": 110}, {"time": 27358, "pitch": 59, "duration": 713, "velocity": 100}, {"time": 27358, "pitch": 63, "duration": 713, "velocity": 105}, {"time": 27358, "pitch": 66, "duration": 713, "velocity": 110}, {"time": 27840, "pitch": 44, "duration": 713, "velocity": 105}, {"time": 28081, "pitch": 59, "duration": 712, "velocity": 100}, {"time": 28081, "pitch": 63, "duration": 712, "velocity": 105}, {"time": 28081, "pitch": 66, "duration": 712, "velocity": 110}, {"time": 28563, "pitch": 44, "duration": 703, "velocity": 105}, {"time": 28803, "pitch": 59, "duration": 463, "velocity": 100}, {"time": 28803, "pitch": 63, "duration": 463, "velocity": 105}, {"time": 28803, "pitch": 66, "duration": 463, "velocity": 110}, {"time": 29276, "pitch": 44, "duration": 471, "velocity": 110}, {"time": 29276, "pitch": 59, "duration": 712, "velocity": 100}, {"time": 29276, "pitch": 63, "duration": 712, "velocity": 105}, {"time": 29276, "pitch": 66, "duration": 712, "velocity": 110}, {"time": 29757, "pitch": 44, "duration": 713, "velocity": 105}, {"time": 29998, "pitch": 59, "duration": 713, "velocity": 100}, {"time": 29998, "pitch": 63, "duration": 713, "velocity": 105}, {"time": 29998, "pitch": 66, "duration": 713, "velocity": 110}, {"time": 30480, "pitch": 44, "duration": 472, "velocity": 105}, {"time": 30721, "pitch": 59, "duration": 472, "velocity": 110}, {"time": 30721, "pitch": 63, "duration": 472, "velocity": 100}, {"time": 30721, "pitch": 66, "duration": 472, "velocity": 105}, {"time": 30962, "pitch": 44, "duration": 231, "velocity": 100}, {"time": 31203, "pitch": 45, "duration": 471, "velocity": 110}, {"time": 31203, "pitch": 57, "duration": 707, "velocity": 95}, {"time": 31203, "pitch": 61, "duration": 707, "velocity": 100}, {"time": 31203, "pitch": 64, "duration": 707, "velocity": 105}, {"time": 31203, "pitch": 68, "duration": 707, "velocity": 110}, {"time": 31684, "pitch": 45, "duration": 703, "velocity": 105}, {"time": 31920, "pitch": 57, "duration": 708, "velocity": 95}, {"time": 31920, "pitch": 61, "duration": 708, "velocity": 100}, {"time": 31920, "pitch": 64, "duration": 708, "velocity": 105}, {"time": 31920, "pitch": 68, "duration": 708, "velocity": 110}, {"time": 32397, "pitch": 45, "duration": 472, "velocity": 105}, {"time": 32638, "pitch": 57, "duration": 472, "velocity": 95}, {"time": 32638, "pitch": 61, "duration": 472, "velocity": 100}, {"time": 32638, "pitch": 64, "duration": 472, "velocity": 105}, {"time": 32638, "pitch": 68, "duration": 472, "velocity": 110}, {"time": 32879, "pitch": 45, "duration": 231, "velocity": 100}, {"time": 33120, "pitch": 44, "duration": 472, "velocity": 110}, {"time": 33120, "pitch": 54, "duration": 712, "velocity": 100}, {"time": 33120, "pitch": 60, "duration": 712, "velocity": 105}, {"time": 33120, "pitch": 63, "duration": 712, "velocity": 110}, {"time": 33602, "pitch": 44, "duration": 708, "velocity": 105}, {"time": 33842, "pitch": 54, "duration": 704, "velocity": 100}, {"time": 33842, "pitch": 60, "duration": 704, "velocity": 105}, {"time": 33842, "pitch": 63, "duration": 704, "velocity": 110}, {"time": 34319, "pitch": 44, "duration": 467, "velocity": 105}, {"time": 34555, "pitch": 54, "duration": 472, "velocity": 100}, {"time": 34555, "pitch": 60, "duration": 472, "velocity": 105}, {"time": 34555, "pitch": 63, "duration": 472, "velocity": 110}, {"time": 34796, "pitch": 44, "duration": 231, "velocity": 100}, {"time": 35037, "pitch": 49, "duration": 472, "velocity": 110}, {"time": 35037, "pitch": 59, "duration": 713, "velocity": 100}, {"time": 35037, "pitch": 64, "duration": 713, "velocity": 105}, {"time": 35037, "pitch": 68, "duration": 713, "velocity": 110}, {"time": 35519, "pitch": 49, "duration": 712, "velocity": 105}, {"time": 35760, "pitch": 59, "duration": 712, "velocity": 100}, {"time": 35760, "pitch": 64, "duration": 712, "velocity": 105}, {"time": 35760, "pitch": 68, "duration": 712, "velocity": 110}, {"time": 36242, "pitch": 49, "duration": 712, "velocity": 105}, {"time": 36482, "pitch": 59, "duration": 472, "velocity": 100}, {"time": 36482, "pitch": 64, "duration": 472, "velocity": 105}, {"time": 36482, "pitch": 68, "duration": 472, "velocity": 110}, {"time": 36964, "pitch": 49, "duration": 462, "velocity": 110}, {"time": 36964, "pitch": 59, "duration": 703, "velocity": 100}, {"time": 36964, "pitch": 64, "duration": 703, "velocity": 105}, {"time": 36964, "pitch": 68, "duration": 703, "velocity": 110}, {"time": 37436, "pitch": 49, "duration": 713, "velocity": 105}, {"time": 37677, "pitch": 59, "duration": 713, "velocity": 100}, {"time": 37677, "pitch": 64, "duration": 713, "velocity": 105}, {"time": 37677, "pitch": 68, "duration": 713, "velocity": 110}, {"time": 38159, "pitch": 49, "duration": 472, "velocity": 105}, {"time": 38400, "pitch": 59, "duration": 471, "velocity": 100}, {"time": 38400, "pitch": 64, "duration": 471, "velocity": 105}, {"time": 38400, "pitch": 68, "duration": 471, "velocity": 110}, {"time": 38641, "pitch": 49, "duration": 230, "velocity": 100}, {"time": 38881, "pitch": 42, "duration": 472, "velocity": 110}, {"time": 38881, "pitch": 57, "duration": 708, "velocity": 95}, {"time": 38881, "pitch": 61, "duration": 708, "velocity": 100}, {"time": 38881, "pitch": 64, "duration": 708, "velocity": 105}, {"time": 38881, "pitch": 68, "duration": 708, "velocity": 110}, {"time": 39363, "pitch": 42, "duration": 703, "velocity": 105}, {"time": 39599, "pitch": 57, "duration": 708, "velocity": 95}, {"time": 39599, "pitch": 61, "duration": 708, "velocity": 100}, {"time": 39599, "pitch": 64, "duration": 708, "velocity": 105}, {"time": 39599, "pitch": 68, "duration": 708, "velocity": 110}, {"time": 40076, "pitch": 42, "duration": 713, "velocity": 105}, {"time": 40317, "pitch": 57, "duration": 472, "velocity": 95}, {"time": 40317, "pitch": 61, "duration": 472, "velocity": 100}, {"time": 40317, "pitch": 64, "duration": 472, "velocity": 105}, {"time": 40317, "pitch": 68, "duration": 472, "velocity": 110}, {"time": 40799, "pitch": 42, "duration": 471, "velocity": 110}, {"time": 40799, "pitch": 57, "duration": 712, "velocity": 95}, {"time": 40799, "pitch": 61, "duration": 712, "velocity": 100}, {"time": 40799, "pitch": 64, "duration": 712, "velocity": 105}, {"time": 40799, "pitch": 68, "duration": 712, "velocity": 110}, {"time": 41280, "pitch": 42, "duration": 713, "velocity": 105}, {"time": 41521, "pitch": 57, "duration": 713, "velocity": 95}, {"time": 41521, "pitch": 61, "duration": 713, "velocity": 100}, {"time": 41521, "pitch": 64, "duration": 713, "velocity": 105}, {"time": 41521, "pitch": 68, "duration": 713, "velocity": 110}, {"time": 42003, "pitch": 42, "duration": 467, "velocity": 105}, {"time": 42244, "pitch": 57, "duration": 462, "velocity": 95}, {"time": 42244, "pitch": 61, "duration": 462, "velocity": 100}, {"time": 42244, "pitch": 64, "duration": 462, "velocity": 105}, {"time": 42244, "pitch": 68, "duration": 462, "velocity": 110}, {"time": 42480, "pitch": 42, "duration": 226, "velocity": 100}, {"time": 42716, "pitch": 44, "duration": 1194, "velocity": 110}, {"time": 42716, "pitch": 56, "duration": 713, "velocity": 95}, {"time": 42716, "pitch": 59, "duration": 713, "velocity": 100}, {"time": 42716, "pitch": 63, "duration": 713, "velocity": 105}, {"time": 42716, "pitch": 66, "duration": 713, "velocity": 110}, {"time": 43439, "pitch": 56, "duration": 712, "velocity": 95}, {"time": 43439, "pitch": 59, "duration": 712, "velocity": 100}, {"time": 43439, "pitch": 63, "duration": 712, "velocity": 105}, {"time": 43439, "pitch": 66, "duration": 712, "velocity": 110}, {"time": 43920, "pitch": 44, "duration": 472, "velocity": 105}, {"time": 44161, "pitch": 56, "duration": 472, "velocity": 95}, {"time": 44161, "pitch": 59, "duration": 472, "velocity": 100}, {"time": 44161, "pitch": 63, "duration": 472, "velocity": 105}, {"time": 44161, "pitch": 66, "duration": 472, "velocity": 110}, {"time": 44402, "pitch": 44, "duration": 231, "velocity": 100}, {"time": 44643, "pitch": 49, "duration": 472, "velocity": 110}, {"time": 44643, "pitch": 59, "duration": 708, "velocity": 100}, {"time": 44643, "pitch": 64, "duration": 708, "velocity": 105}, {"time": 44643, "pitch": 68, "duration": 708, "velocity": 110}, {"time": 45125, "pitch": 49, "duration": 703, "velocity": 105}, {"time": 45361, "pitch": 59, "duration": 707, "velocity": 100}, {"time": 45361, "pitch": 64, "duration": 707, "velocity": 105}, {"time": 45361, "pitch": 68, "duration": 707, "velocity": 110}, {"time": 45838, "pitch": 49, "duration": 471, "velocity": 105}, {"time": 46079, "pitch": 59, "duration": 471, "velocity": 100}, {"time": 46079, "pitch": 64, "duration": 471, "velocity": 105}, {"time": 46079, "pitch": 68, "duration": 471, "velocity": 110}, {"time": 46319, "pitch": 49, "duration": 231, "velocity": 100}, {"time": 46560, "pitch": 50, "duration": 472, "velocity": 110}, {"time": 46560, "pitch": 61, "duration": 713, "velocity": 100}, {"time": 46560, "pitch": 66, "duration": 713, "velocity": 105}, {"time": 46560, "pitch": 69, "duration": 713, "velocity": 110}, {"time": 47042, "pitch": 50, "duration": 708, "velocity": 105}, {"time": 47283, "pitch": 61, "duration": 703, "velocity": 100}, {"time": 47283, "pitch": 66, "duration": 703, "velocity": 105}, {"time": 47283, "pitch": 69, "duration": 703, "velocity": 110}, {"time": 47760, "pitch": 50, "duration": 467, "velocity": 105}, {"time": 47996, "pitch": 61, "duration": 472, "velocity": 100}, {"time": 47996, "pitch": 66, "duration": 472, "velocity": 105}, {"time": 47996, "pitch": 69, "duration": 472, "velocity": 110}, {"time": 48237, "pitch": 50, "duration": 231, "velocity": 100}, {"time": 48478, "pitch": 44, "duration": 471, "velocity": 110}, {"time": 48478, "pitch": 60, "duration": 712, "velocity": 100}, {"time": 48478, "pitch": 63, "duration": 712, "velocity": 105}, {"time": 48478, "pitch": 66, "duration": 712, "velocity": 110}, {"time": 48959, "pitch": 44, "duration": 713, "velocity": 105}, {"time": 49200, "pitch": 60, "duration": 713, "velocity": 100}, {"time": 49200, "pitch": 63, "duration": 713, "velocity": 105}, {"time": 49200, "pitch": 66, "duration": 713, "velocity": 110}, {"time": 49682, "pitch": 44, "duration": 472, "velocity": 105}, {"time": 49923, "pitch": 60, "duration": 472, "velocity": 100}, {"time": 49923, "pitch": 63, "duration": 472, "velocity": 105}, {"time": 49923, "pitch": 66, "duration": 472, "velocity": 110}, {"time": 50164, "pitch": 44, "duration": 231, "velocity": 100}, {"time": 50405, "pitch": 45, "duration": 462, "velocity": 110}, {"time": 50405, "pitch": 61, "duration": 702, "velocity": 100}, {"time": 50405, "pitch": 64, "duration": 702, "velocity": 105}, {"time": 50405, "pitch": 68, "duration": 702, "velocity": 110}, {"time": 50877, "pitch": 45, "duration": 712, "velocity": 105}, {"time": 51117, "pitch": 61, "duration": 713, "velocity": 100}, {"time": 51117, "pitch": 64, "duration": 713, "velocity": 105}, {"time": 51117, "pitch": 68, "duration": 713, "velocity": 110}, {"time": 51599, "pitch": 45, "duration": 472, "velocity": 105}, {"time": 51840, "pitch": 61, "duration": 472, "velocity": 100}, {"time": 51840, "pitch": 64, "duration": 472, "velocity": 105}, {"time": 51840, "pitch": 68, "duration": 472, "velocity": 110}, {"time": 52081, "pitch": 45, "duration": 231, "velocity": 100}, {"time": 52322, "pitch": 47, "duration": 472, "velocity": 110}, {"time": 52322, "pitch": 59, "duration": 708, "velocity": 100}, {"time": 52322, "pitch": 63, "duration": 708, "velocity": 105}, {"time": 52322, "pitch": 66, "duration": 708, "velocity": 110}, {"time": 52804, "pitch": 47, "duration": 702, "velocity": 105}, {"time": 53040, "pitch": 59, "duration": 707, "velocity": 100}, {"time": 53040, "pitch": 63, "duration": 707, "velocity": 105}, {"time": 53040, "pitch": 66, "duration": 707, "velocity": 110}, {"time": 53517, "pitch": 47, "duration": 471, "velocity": 105}, {"time": 53757, "pitch": 59, "duration": 472, "velocity": 100}, {"time": 53757, "pitch": 63, "duration": 472, "velocity": 105}, {"time": 53757, "pitch": 66, "duration": 472, "velocity": 110}, {"time": 53998, "pitch": 47, "duration": 231, "velocity": 100}, {"time": 54239, "pitch": 48, "duration": 472, "velocity": 110}, {"time": 54239, "pitch": 60, "duration": 713, "velocity": 100}, {"time": 54239, "pitch": 63, "duration": 713, "velocity": 105}, {"time": 54239, "pitch": 66, "duration": 713, "velocity": 110}, {"time": 54721, "pitch": 48, "duration": 713, "velocity": 105}, {"time": 54962, "pitch": 60, "duration": 712, "velocity": 100}, {"time": 54962, "pitch": 63, "duration": 712, "velocity": 105}, {"time": 54962, "pitch": 66, "duration": 712, "velocity": 110}, {"time": 55444, "pitch": 48, "duration": 467, "velocity": 105}, {"time": 55684, "pitch": 60, "duration": 463, "velocity": 100}, {"time": 55684, "pitch": 63, "duration": 463, "velocity": 105}, {"time": 55684, "pitch": 66, "duration": 463, "velocity": 110}, {"time": 55920, "pitch": 48, "duration": 227, "velocity": 100}, {"time": 56157, "pitch": 49, "duration": 471, "velocity": 110}, {"time": 56157, "pitch": 59, "duration": 712, "velocity": 100}, {"time": 56157, "pitch": 64, "duration": 712, "velocity": 105}, {"time": 56157, "pitch": 68, "duration": 712, "velocity": 110}, {"time": 56638, "pitch": 49, "duration": 713, "velocity": 105}, {"time": 56879, "pitch": 59, "duration": 713, "velocity": 100}, {"time": 56879, "pitch": 64, "duration": 713, "velocity": 105}, {"time": 56879, "pitch": 68, "duration": 713, "velocity": 110}, {"time": 57361, "pitch": 49, "duration": 472, "velocity": 105}, {"time": 57602, "pitch": 59, "duration": 471, "velocity": 100}, {"time": 57602, "pitch": 64, "duration": 471, "velocity": 105}, {"time": 57602, "pitch": 68, "duration": 471, "velocity": 110}, {"time": 57843, "pitch": 49, "duration": 230, "velocity": 100}, {"time": 58083, "pitch": 46, "duration": 463, "velocity": 110}, {"time": 58083, "pitch": 61, "duration": 703, "velocity": 100}, {"time": 58083, "pitch": 64, "duration": 703, "velocity": 105}, {"time": 58083, "pitch": 68, "duration": 703, "velocity": 110}, {"time": 58556, "pitch": 46, "duration": 712, "velocity": 105}, {"time": 58796, "pitch": 61, "duration": 713, "velocity": 100}, {"time": 58796, "pitch": 64, "duration": 713, "velocity": 105}, {"time": 58796, "pitch": 68, "duration": 713, "velocity": 110}, {"time": 59278, "pitch": 46, "duration": 472, "velocity": 105}, {"time": 59519, "pitch": 61, "duration": 472, "velocity": 100}, {"time": 59519, "pitch": 64, "duration": 472, "velocity": 105}, {"time": 59519, "pitch": 68, "duration": 472, "velocity": 110}, {"time": 59760, "pitch": 46, "duration": 231, "velocity": 100}, {"time": 60001, "pitch": 46, "duration": 712, "velocity": 110}, {"time": 60001, "pitch": 61, "duration": 471, "velocity": 100}, {"time": 60001, "pitch": 64, "duration": 471, "velocity": 105}, {"time": 60001, "pitch": 68, "duration": 471, "velocity": 110}, {"time": 60483, "pitch": 61, "duration": 707, "velocity": 95}, {"time": 60483, "pitch": 64, "duration": 707, "velocity": 100}, {"time": 60483, "pitch": 68, "duration": 707, "velocity": 105}, {"time": 60723, "pitch": 46, "duration": 231, "velocity": 110}, {"time": 60964, "pitch": 46, "duration": 463, "velocity": 105}, {"time": 61200, "pitch": 61, "duration": 708, "velocity": 100}, {"time": 61200, "pitch": 64, "duration": 708, "velocity": 105}, {"time": 61200, "pitch": 68, "duration": 708, "velocity": 110}, {"time": 61436, "pitch": 46, "duration": 472, "velocity": 110}, {"time": 61918, "pitch": 42, "duration": 713, "velocity": 110}, {"time": 61918, "pitch": 61, "duration": 472, "velocity": 100}, {"time": 61918, "pitch": 64, "duration": 472, "velocity": 105}, {"time": 61918, "pitch": 69, "duration": 472, "velocity": 110}, {"time": 62400, "pitch": 61, "duration": 712, "velocity": 100}, {"time": 62400, "pitch": 64, "duration": 712, "velocity": 105}, {"time": 62400, "pitch": 69, "duration": 712, "velocity": 110}, {"time": 62641, "pitch": 42, "duration": 231, "velocity": 105}, {"time": 62882, "pitch": 42, "duration": 471, "velocity": 100}, {"time": 63122, "pitch": 61, "duration": 467, "velocity": 100}, {"time": 63122, "pitch": 64, "duration": 467, "velocity": 105}, {"time": 63122, "pitch": 69, "duration": 467, "velocity": 110}, {"time": 63363, "pitch": 42, "duration": 226, "velocity": 105}, {"time": 63599, "pitch": 56, "duration": 708, "velocity": 110}, {"time": 63599, "pitch": 66, "duration": 708, "velocity": 100}, {"time": 63599, "pitch": 71, "duration": 708, "velocity": 105}, {"time": 63599, "pitch": 75, "duration": 708, "velocity": 110}, {"time": 64317, "pitch": 55, "duration": 231, "velocity": 105}, {"time": 64317, "pitch": 65, "duration": 231, "velocity": 95}, {"time": 64317, "pitch": 70, "duration": 231, "velocity": 100}, {"time": 64317, "pitch": 75, "duration": 231, "velocity": 105}, {"time": 64558, "pitch": 54, "duration": 472, "velocity": 110}, {"time": 64558, "pitch": 64, "duration": 472, "velocity": 100}, {"time": 64558, "pitch": 69, "duration": 472, "velocity": 105}, {"time": 64558, "pitch": 73, "duration": 472, "velocity": 110}, {"time": 65040, "pitch": 53, "duration": 471, "velocity": 105}, {"time": 65040, "pitch": 63, "duration": 471, "velocity": 95}, {"time": 65040, "pitch": 68, "duration": 471, "velocity": 100}, {"time": 65040, "pitch": 73, "duration": 471, "velocity": 105}, {"time": 65521, "pitch": 52, "duration": 472, "velocity": 110}, {"time": 65521, "pitch": 62, "duration": 472, "velocity": 100}, {"time": 65521, "pitch": 67, "duration": 472, "velocity": 105}, {"time": 65521, "pitch": 71, "duration": 472, "velocity": 110}, {"time": 66003, "pitch": 51, "duration": 231, "velocity": 105}, {"time": 66003, "pitch": 61, "duration": 231, "velocity": 95}, {"time": 66003, "pitch": 66, "duration": 231, "velocity": 100}, {"time": 66003, "pitch": 71, "duration": 231, "velocity": 105}, {"time": 66244, "pitch": 50, "duration": 703, "velocity": 110}, {"time": 66244, "pitch": 61, "duration": 703, "velocity": 100}, {"time": 66244, "pitch": 66, "duration": 703, "velocity": 105}, {"time": 66244, "pitch": 69, "duration": 703, "velocity": 110}, {"time": 66957, "pitch": 47, "duration": 713, "velocity": 110}, {"time": 66957, "pitch": 61, "duration": 713, "velocity": 100}, {"time": 66957, "pitch": 64, "duration": 713, "velocity": 105}, {"time": 66957, "pitch": 69, "duration": 713, "velocity": 110}, {"time": 67680, "pitch": 52, "duration": 471, "velocity": 110}, {"time": 67680, "pitch": 59, "duration": 712, "velocity": 100}, {"time": 67680, "pitch": 64, "duration": 712, "velocity": 105}, {"time": 67680, "pitch": 68, "duration": 712, "velocity": 110}, {"time": 68161, "pitch": 52, "duration": 708, "velocity": 105}, {"time": 68402, "pitch": 59, "duration": 703, "velocity": 100}, {"time": 68402, "pitch": 64, "duration": 703, "velocity": 105}, {"time": 68402, "pitch": 68, "duration": 703, "velocity": 110}, {"time": 68879, "pitch": 52, "duration": 467, "velocity": 105}, {"time": 69115, "pitch": 59, "duration": 472, "velocity": 100}, {"time": 69115, "pitch": 64, "duration": 472, "velocity": 105}, {"time": 69115, "pitch": 68, "duration": 472, "velocity": 110}, {"time": 69356, "pitch": 52, "duration": 231, "velocity": 100}, {"time": 69597, "pitch": 51, "duration": 472, "velocity": 110}, {"time": 69597, "pitch": 59, "duration": 713, "velocity": 100}, {"time": 69597, "pitch": 63, "duration": 713, "velocity": 105}, {"time": 69597, "pitch": 68, "duration": 713, "velocity": 110}, {"time": 70079, "pitch": 51, "duration": 712, "velocity": 105}, {"time": 70320, "pitch": 59, "duration": 712, "velocity": 100}, {"time": 70320, "pitch": 63, "duration": 712, "velocity": 105}, {"time": 70320, "pitch": 68, "duration": 712, "velocity": 110}, {"time": 70801, "pitch": 51, "duration": 472, "velocity": 105}, {"time": 71042, "pitch": 59, "duration": 472, "velocity": 100}, {"time": 71042, "pitch": 63, "duration": 472, "velocity": 105}, {"time": 71042, "pitch": 68, "duration": 472, "velocity": 110}, {"time": 71283, "pitch": 51, "duration": 231, "velocity": 100}, {"time": 71524, "pitch": 50, "duration": 462, "velocity": 110}, {"time": 71524, "pitch": 61, "duration": 703, "velocity": 100}, {"time": 71524, "pitch": 66, "duration": 703, "velocity": 105}, {"time": 71524, "pitch": 69, "duration": 703, "velocity": 110}, {"time": 71996, "pitch": 50, "duration": 713, "velocity": 105}, {"time": 72237, "pitch": 61, "duration": 712, "velocity": 100}, {"time": 72237, "pitch": 66, "duration": 712, "velocity": 105}, {"time": 72237, "pitch": 69, "duration": 712, "velocity": 110}, {"time": 72719, "pitch": 50, "duration": 471, "velocity": 105}, {"time": 72959, "pitch": 61, "duration": 472, "velocity": 100}, {"time": 72959, "pitch": 66, "duration": 472, "velocity": 105}, {"time": 72959, "pitch": 69, "duration": 472, "velocity": 110}, {"time": 73200, "pitch": 50, "duration": 231, "velocity": 100}, {"time": 73441, "pitch": 49, "duration": 472, "velocity": 110}, {"time": 73441, "pitch": 59, "duration": 713, "velocity": 100}, {"time": 73441, "pitch": 64, "duration": 713, "velocity": 105}, {"time": 73441, "pitch": 68, "duration": 713, "velocity": 110}, {"time": 73923, "pitch": 49, "duration": 708, "velocity": 105}, {"time": 74164, "pitch": 59, "duration": 703, "velocity": 100}, {"time": 74164, "pitch": 64, "duration": 703, "velocity": 105}, {"time": 74164, "pitch": 68, "duration": 703, "velocity": 110}, {"time": 74641, "pitch": 49, "duration": 467, "velocity": 105}, {"time": 74877, "pitch": 59, "duration": 471, "velocity": 100}, {"time": 74877, "pitch": 64, "duration": 471, "velocity": 105}, {"time": 74877, "pitch": 68, "duration": 471, "velocity": 110}, {"time": 75118, "pitch": 49, "duration": 230, "velocity": 100}, {"time": 75359, "pitch": 42, "duration": 471, "velocity": 110}, {"time": 75359, "pitch": 57, "duration": 712, "velocity": 95}, {"time": 75359, "pitch": 61, "duration": 712, "velocity": 100}, {"time": 75359, "pitch": 64, "duration": 712, "velocity": 105}, {"time": 75359, "pitch": 68, "duration": 712, "velocity": 110}, {"time": 75840, "pitch": 42, "duration": 713, "velocity": 105}, {"time": 76081, "pitch": 57, "duration": 713, "velocity": 95}, {"time": 76081, "pitch": 61, "duration": 713, "velocity": 100}, {"time": 76081, "pitch": 64, "duration": 713, "velocity": 105}, {"time": 76081, "pitch": 68, "duration": 713, "velocity": 110}, {"time": 76563, "pitch": 42, "duration": 467, "velocity": 105}, {"time": 76804, "pitch": 57, "duration": 462, "velocity": 95}, {"time": 76804, "pitch": 61, "duration": 462, "velocity": 100}, {"time": 76804, "pitch": 64, "duration": 462, "velocity": 105}, {"time": 76804, "pitch": 68, "duration": 462, "velocity": 110}, {"time": 77040, "pitch": 42, "duration": 226, "velocity": 100}, {"time": 77276, "pitch": 44, "duration": 472, "velocity": 110}, {"time": 77276, "pitch": 59, "duration": 712, "velocity": 100}, {"time": 77276, "pitch": 63, "duration": 712, "velocity": 105}, {"time": 77276, "pitch": 66, "duration": 712, "velocity": 110}, {"time": 77758, "pitch": 44, "duration": 712, "velocity": 105}, {"time": 77998, "pitch": 59, "duration": 713, "velocity": 100}, {"time": 77998, "pitch": 63, "duration": 713, "velocity": 105}, {"time": 77998, "pitch": 66, "duration": 713, "velocity": 110}, {"time": 78480, "pitch": 44, "duration": 472, "velocity": 105}, {"time": 78721, "pitch": 59, "duration": 472, "velocity": 110}, {"time": 78721, "pitch": 63, "duration": 472, "velocity": 100}, {"time": 78721, "pitch": 66, "duration": 472, "velocity": 105}, {"time": 78962, "pitch": 44, "duration": 231, "velocity": 100}, {"time": 79203, "pitch": 45, "duration": 472, "velocity": 110}, {"time": 79203, "pitch": 55, "duration": 708, "velocity": 100}, {"time": 79203, "pitch": 60, "duration": 708, "velocity": 105}, {"time": 79203, "pitch": 64, "duration": 708, "velocity": 110}, {"time": 79685, "pitch": 45, "duration": 702, "velocity": 105}, {"time": 79921, "pitch": 55, "duration": 707, "velocity": 100}, {"time": 79921, "pitch": 60, "duration": 707, "velocity": 105}, {"time": 79921, "pitch": 64, "duration": 707, "velocity": 110}, {"time": 80397, "pitch": 45, "duration": 472, "velocity": 105}, {"time": 80638, "pitch": 55, "duration": 472, "velocity": 100}, {"time": 80638, "pitch": 60, "duration": 472, "velocity": 105}, {"time": 80638, "pitch": 64, "duration": 472, "velocity": 110}, {"time": 80879, "pitch": 45, "duration": 231, "velocity": 100}, {"time": 81120, "pitch": 47, "duration": 713, "velocity": 110}, {"time": 81120, "pitch": 57, "duration": 472, "velocity": 100}, {"time": 81120, "pitch": 61, "duration": 472, "velocity": 105}, {"time": 81120, "pitch": 64, "duration": 472, "velocity": 110}, {"time": 81602, "pitch": 57, "duration": 708, "velocity": 95}, {"time": 81602, "pitch": 61, "duration": 708, "velocity": 100}, {"time": 81602, "pitch": 64, "duration": 708, "velocity": 105}, {"time": 81843, "pitch": 47, "duration": 703, "velocity": 110}, {"time": 82320, "pitch": 57, "duration": 707, "velocity": 100}, {"time": 82320, "pitch": 61, "duration": 707, "velocity": 105}, {"time": 82320, "pitch": 64, "duration": 707, "velocity": 110}, {"time": 82556, "pitch": 47, "duration": 471, "velocity": 105}, {"time": 83037, "pitch": 52, "duration": 472, "velocity": 110}, {"time": 83037, "pitch": 59, "duration": 713, "velocity": 100}, {"time": 83037, "pitch": 64, "duration": 713, "velocity": 105}, {"time": 83037, "pitch": 68, "duration": 713, "velocity": 110}, {"time": 83519, "pitch": 52, "duration": 713, "velocity": 105}, {"time": 83760, "pitch": 59, "duration": 713, "velocity": 100}, {"time": 83760, "pitch": 64, "duration": 713, "velocity": 105}, {"time": 83760, "pitch": 68, "duration": 713, "velocity": 110}, {"time": 84242, "pitch": 52, "duration": 472, "velocity": 105}, {"time": 84483, "pitch": 59, "duration": 471, "velocity": 100}, {"time": 84483, "pitch": 64, "duration": 471, "velocity": 105}, {"time": 84483, "pitch": 68, "duration": 471, "velocity": 110}, {"time": 84724, "pitch": 52, "duration": 230, "velocity": 100}, {"time": 84964, "pitch": 51, "duration": 463, "velocity": 110}, {"time": 84964, "pitch": 59, "duration": 703, "velocity": 100}, {"time": 84964, "pitch": 63, "duration": 703, "velocity": 105}, {"time": 84964, "pitch": 68, "duration": 703, "velocity": 110}, {"time": 85436, "pitch": 51, "duration": 713, "velocity": 105}, {"time": 85677, "pitch": 59, "duration": 713, "velocity": 100}, {"time": 85677, "pitch": 63, "duration": 713, "velocity": 105}, {"time": 85677, "pitch": 68, "duration": 713, "velocity": 110}, {"time": 86159, "pitch": 51, "duration": 472, "velocity": 105}, {"time": 86400, "pitch": 59, "duration": 472, "velocity": 100}, {"time": 86400, "pitch": 63, "duration": 472, "velocity": 105}, {"time": 86400, "pitch": 68, "duration": 472, "velocity": 110}, {"time": 86641, "pitch": 51, "duration": 231, "velocity": 100}, {"time": 86882, "pitch": 50, "duration": 471, "velocity": 110}, {"time": 86882, "pitch": 61, "duration": 708, "velocity": 100}, {"time": 86882, "pitch": 66, "duration": 708, "velocity": 105}, {"time": 86882, "pitch": 69, "duration": 708, "velocity": 110}, {"time": 87363, "pitch": 50, "duration": 703, "velocity": 105}, {"time": 87599, "pitch": 61, "duration": 708, "velocity": 100}, {"time": 87599, "pitch": 66, "duration": 708, "velocity": 105}, {"time": 87599, "pitch": 69, "duration": 708, "velocity": 110}, {"time": 88076, "pitch": 50, "duration": 472, "velocity": 105}, {"time": 88317, "pitch": 61, "duration": 472, "velocity": 100}, {"time": 88317, "pitch": 66, "duration": 472, "velocity": 105}, {"time": 88317, "pitch": 69, "duration": 472, "velocity": 110}, {"time": 88558, "pitch": 50, "duration": 231, "velocity": 100}, {"time": 88799, "pitch": 49, "duration": 472, "velocity": 110}, {"time": 88799, "pitch": 59, "duration": 713, "velocity": 100}, {"time": 88799, "pitch": 64, "duration": 713, "velocity": 105}, {"time": 88799, "pitch": 68, "duration": 713, "velocity": 110}, {"time": 89281, "pitch": 49, "duration": 712, "velocity": 105}, {"time": 89522, "pitch": 59, "duration": 712, "velocity": 100}, {"time": 89522, "pitch": 64, "duration": 712, "velocity": 105}, {"time": 89522, "pitch": 68, "duration": 712, "velocity": 110}, {"time": 90003, "pitch": 49, "duration": 467, "velocity": 105}, {"time": 90244, "pitch": 59, "duration": 462, "velocity": 100}, {"time": 90244, "pitch": 64, "duration": 462, "velocity": 105}, {"time": 90244, "pitch": 68, "duration": 462, "velocity": 110}, {"time": 90480, "pitch": 49, "duration": 226, "velocity": 100}, {"time": 90716, "pitch": 42, "duration": 472, "velocity": 110}, {"time": 90716, "pitch": 57, "duration": 713, "velocity": 95}, {"time": 90716, "pitch": 61, "duration": 713, "velocity": 100}, {"time": 90716, "pitch": 64, "duration": 713, "velocity": 105}, {"time": 90716, "pitch": 68, "duration": 713, "velocity": 110}, {"time": 91198, "pitch": 42, "duration": 713, "velocity": 105}, {"time": 91439, "pitch": 57, "duration": 713, "velocity": 95}, {"time": 91439, "pitch": 61, "duration": 713, "velocity": 100}, {"time": 91439, "pitch": 64, "duration": 713, "velocity": 105}, {"time": 91439, "pitch": 68, "duration": 713, "velocity": 110}, {"time": 91921, "pitch": 42, "duration": 471, "velocity": 105}, {"time": 92162, "pitch": 57, "duration": 471, "velocity": 95}, {"time": 92162, "pitch": 61, "duration": 471, "velocity": 100}, {"time": 92162, "pitch": 64, "duration": 471, "velocity": 105}, {"time": 92162, "pitch": 68, "duration": 471, "velocity": 110}, {"time": 92402, "pitch": 42, "duration": 231, "velocity": 100}, {"time": 92643, "pitch": 44, "duration": 463, "velocity": 110}, {"time": 92643, "pitch": 59, "duration": 703, "velocity": 100}, {"time": 92643, "pitch": 63, "duration": 703, "velocity": 105}, {"time": 92643, "pitch": 66, "duration": 703, "velocity": 110}, {"time": 93115, "pitch": 44, "duration": 713, "velocity": 105}, {"time": 93356, "pitch": 59, "duration": 713, "velocity": 100}, {"time": 93356, "pitch": 63, "duration": 713, "velocity": 105}, {"time": 93356, "pitch": 66, "duration": 713, "velocity": 110}, {"time": 93838, "pitch": 44, "duration": 472, "velocity": 105}, {"time": 94079, "pitch": 59, "duration": 472, "velocity": 110}, {"time": 94079, "pitch": 63, "duration": 472, "velocity": 100}, {"time": 94079, "pitch": 66, "duration": 472, "velocity": 105}, {"time": 94320, "pitch": 44, "duration": 231, "velocity": 100}, {"time": 94561, "pitch": 45, "duration": 471, "velocity": 110}, {"time": 94561, "pitch": 55, "duration": 712, "velocity": 100}, {"time": 94561, "pitch": 60, "duration": 712, "velocity": 105}, {"time": 94561, "pitch": 64, "duration": 712, "velocity": 110}, {"time": 95042, "pitch": 45, "duration": 708, "velocity": 105}, {"time": 95283, "pitch": 55, "duration": 703, "velocity": 100}, {"time": 95283, "pitch": 60, "duration": 703, "velocity": 105}, {"time": 95283, "pitch": 64, "duration": 703, "velocity": 110}, {"time": 95760, "pitch": 45, "duration": 467, "velocity": 105}, {"time": 95996, "pitch": 55, "duration": 472, "velocity": 100}, {"time": 95996, "pitch": 60, "duration": 472, "velocity": 105}, {"time": 95996, "pitch": 64, "duration": 472, "velocity": 110}, {"time": 96237, "pitch": 45, "duration": 231, "velocity": 100}, {"time": 96478, "pitch": 47, "duration": 472, "velocity": 110}, {"time": 96478, "pitch": 57, "duration": 472, "velocity": 100}, {"time": 96478, "pitch": 61, "duration": 472, "velocity": 105}, {"time": 96478, "pitch": 64, "duration": 472, "velocity": 110}, {"time": 96960, "pitch": 57, "duration": 110, "velocity": 95}, {"time": 96960, "pitch": 61, "duration": 110, "velocity": 100}, {"time": 96960, "pitch": 64, "duration": 110, "velocity": 105}, {"time": 97201, "pitch": 47, "duration": 1184, "velocity": 110}, {"time": 97201, "pitch": 59, "duration": 1184, "velocity": 100}, {"time": 97201, "pitch": 63, "duration": 1184, "velocity": 105}, {"time": 97201, "pitch": 66, "duration": 1184, "velocity": 110}, {"time": 98395, "pitch": 40, "duration": 472, "velocity": 110}, {"time": 98395, "pitch": 59, "duration": 713, "velocity": 100}, {"time": 98395, "pitch": 64, "duration": 713, "velocity": 105}, {"time": 98395, "pitch": 68, "duration": 713, "velocity": 110}, {"time": 98877, "pitch": 40, "duration": 713, "velocity": 105}, {"time": 99118, "pitch": 59, "duration": 712, "velocity": 100}, {"time": 99118, "pitch": 64, "duration": 712, "velocity": 105}, {"time": 99118, "pitch": 68, "duration": 712, "velocity": 110}, {"time": 99600, "pitch": 40, "duration": 471, "velocity": 105}, {"time": 99840, "pitch": 59, "duration": 472, "velocity": 100}, {"time": 99840, "pitch": 64, "duration": 472, "velocity": 105}, {"time": 99840, "pitch": 68, "duration": 472, "velocity": 110}, {"time": 100081, "pitch": 39, "duration": 231, "velocity": 100}, {"time": 100322, "pitch": 38, "duration": 708, "velocity": 110}, {"time": 100322, "pitch": 60, "duration": 708, "velocity": 100}, {"time": 100322, "pitch": 66, "duration": 708, "velocity": 105}, {"time": 100322, "pitch": 71, "duration": 708, "velocity": 110}, {"time": 101040, "pitch": 32, "duration": 1189, "velocity": 110}, {"time": 101040, "pitch": 60, "duration": 1189, "velocity": 100}, {"time": 101040, "pitch": 66, "duration": 1189, "velocity": 105}, {"time": 101040, "pitch": 69, "duration": 1189, "velocity": 110}, {"time": 132965, "pitch": 45, "duration": 462, "velocity": 110}, {"time": 132965, "pitch": 61, "duration": 703, "velocity": 100}, {"time": 132965, "pitch": 64, "duration": 703, "velocity": 105}, {"time": 132965, "pitch": 68, "duration": 703, "velocity": 110}, {"time": 133437, "pitch": 45, "duration": 712, "velocity": 105}, {"time": 133678, "pitch": 61, "duration": 712, "velocity": 100}, {"time": 133678, "pitch": 64, "duration": 712, "velocity": 105}, {"time": 133678, "pitch": 68, "duration": 712, "velocity": 110}, {"time": 134159, "pitch": 45, "duration": 472, "velocity": 105}, {"time": 134400, "pitch": 61, "duration": 472, "velocity": 100}, {"time": 134400, "pitch": 64, "duration": 472, "velocity": 105}, {"time": 134400, "pitch": 68, "duration": 472, "velocity": 110}, {"time": 134641, "pitch": 45, "duration": 231, "velocity": 100}, {"time": 134882, "pitch": 47, "duration": 472, "velocity": 110}, {"time": 134882, "pitch": 59, "duration": 708, "velocity": 100}, {"time": 134882, "pitch": 63, "duration": 708, "velocity": 105}, {"time": 134882, "pitch": 66, "duration": 708, "velocity": 110}, {"time": 135364, "pitch": 47, "duration": 703, "velocity": 105}, {"time": 135600, "pitch": 59, "duration": 707, "velocity": 100}, {"time": 135600, "pitch": 63, "duration": 707, "velocity": 105}, {"time": 135600, "pitch": 66, "duration": 707, "velocity": 110}, {"time": 136077, "pitch": 47, "duration": 471, "velocity": 105}, {"time": 136318, "pitch": 59, "duration": 471, "velocity": 100}, {"time": 136318, "pitch": 63, "duration": 471, "velocity": 105}, {"time": 136318, "pitch": 66, "duration": 471, "velocity": 110}, {"time": 136558, "pitch": 47, "duration": 231, "velocity": 100}, {"time": 136799, "pitch": 48, "duration": 472, "velocity": 110}, {"time": 136799, "pitch": 60, "duration": 713, "velocity": 100}, {"time": 136799, "pitch": 63, "duration": 713, "velocity": 105}, {"time": 136799, "pitch": 66, "duration": 713, "velocity": 110}, {"time": 137281, "pitch": 48, "duration": 713, "velocity": 105}, {"time": 137522, "pitch": 60, "duration": 713, "velocity": 100}, {"time": 137522, "pitch": 63, "duration": 713, "velocity": 105}, {"time": 137522, "pitch": 66, "duration": 713, "velocity": 110}, {"time": 138004, "pitch": 48, "duration": 467, "velocity": 105}, {"time": 138244, "pitch": 60, "duration": 463, "velocity": 100}, {"time": 138244, "pitch": 63, "duration": 463, "velocity": 105}, {"time": 138244, "pitch": 66, "duration": 463, "velocity": 110}, {"time": 138481, "pitch": 48, "duration": 226, "velocity": 100}, {"time": 138717, "pitch": 49, "duration": 471, "velocity": 110}, {"time": 138717, "pitch": 59, "duration": 712, "velocity": 100}, {"time": 138717, "pitch": 64, "duration": 712, "velocity": 105}, {"time": 138717, "pitch": 68, "duration": 712, "velocity": 110}, {"time": 139198, "pitch": 49, "duration": 713, "velocity": 105}, {"time": 139439, "pitch": 59, "duration": 713, "velocity": 100}, {"time": 139439, "pitch": 64, "duration": 713, "velocity": 105}, {"time": 139439, "pitch": 68, "duration": 713, "velocity": 110}, {"time": 139921, "pitch": 49, "duration": 472, "velocity": 105}, {"time": 140162, "pitch": 59, "duration": 472, "velocity": 100}, {"time": 140162, "pitch": 64, "duration": 472, "velocity": 105}, {"time": 140162, "pitch": 68, "duration": 472, "velocity": 110}, {"time": 140403, "pitch": 49, "duration": 231, "velocity": 100}, {"time": 140644, "pitch": 46, "duration": 462, "velocity": 110}, {"time": 140644, "pitch": 61, "duration": 702, "velocity": 100}, {"time": 140644, "pitch": 64, "duration": 702, "velocity": 105}, {"time": 140644, "pitch": 68, "duration": 702, "velocity": 110}, {"time": 141116, "pitch": 46, "duration": 712, "velocity": 105}, {"time": 141356, "pitch": 61, "duration": 713, "velocity": 100}, {"time": 141356, "pitch": 64, "duration": 713, "velocity": 105}, {"time": 141356, "pitch": 68, "duration": 713, "velocity": 110}, {"time": 141838, "pitch": 46, "duration": 472, "velocity": 105}, {"time": 142079, "pitch": 61, "duration": 472, "velocity": 100}, {"time": 142079, "pitch": 64, "duration": 472, "velocity": 105}, {"time": 142079, "pitch": 68, "duration": 472, "velocity": 110}, {"time": 142320, "pitch": 46, "duration": 231, "velocity": 100}, {"time": 142561, "pitch": 46, "duration": 712, "velocity": 110}, {"time": 142561, "pitch": 61, "duration": 472, "velocity": 100}, {"time": 142561, "pitch": 64, "duration": 472, "velocity": 105}, {"time": 142561, "pitch": 68, "duration": 472, "velocity": 110}, {"time": 143043, "pitch": 61, "duration": 708, "velocity": 95}, {"time": 143043, "pitch": 64, "duration": 708, "velocity": 100}, {"time": 143043, "pitch": 68, "duration": 708, "velocity": 105}, {"time": 143284, "pitch": 46, "duration": 230, "velocity": 110}, {"time": 143524, "pitch": 46, "duration": 463, "velocity": 105}, {"time": 143760, "pitch": 61, "duration": 708, "velocity": 100}, {"time": 143760, "pitch": 64, "duration": 708, "velocity": 105}, {"time": 143760, "pitch": 68, "duration": 708, "velocity": 110}, {"time": 143996, "pitch": 46, "duration": 472, "velocity": 110}, {"time": 144478, "pitch": 42, "duration": 713, "velocity": 110}, {"time": 144478, "pitch": 61, "duration": 472, "velocity": 100}, {"time": 144478, "pitch": 64, "duration": 472, "velocity": 105}, {"time": 144478, "pitch": 69, "duration": 472, "velocity": 110}, {"time": 144960, "pitch": 61, "duration": 713, "velocity": 100}, {"time": 144960, "pitch": 64, "duration": 713, "velocity": 105}, {"time": 144960, "pitch": 69, "duration": 713, "velocity": 110}, {"time": 145201, "pitch": 42, "duration": 231, "velocity": 105}, {"time": 145442, "pitch": 42, "duration": 471, "velocity": 100}, {"time": 145683, "pitch": 61, "duration": 467, "velocity": 100}, {"time": 145683, "pitch": 64, "duration": 467, "velocity": 105}, {"time": 145683, "pitch": 69, "duration": 467, "velocity": 110}, {"time": 145923, "pitch": 42, "duration": 227, "velocity": 105}, {"time": 146159, "pitch": 56, "duration": 708, "velocity": 110}, {"time": 146159, "pitch": 66, "duration": 708, "velocity": 100}, {"time": 146159, "pitch": 71, "duration": 708, "velocity": 105}, {"time": 146159, "pitch": 75, "duration": 708, "velocity": 110}, {"time": 146877, "pitch": 55, "duration": 231, "velocity": 105}, {"time": 146877, "pitch": 65, "duration": 231, "velocity": 95}, {"time": 146877, "pitch": 70, "duration": 231, "velocity": 100}, {"time": 146877, "pitch": 75, "duration": 231, "velocity": 105}, {"time": 147118, "pitch": 54, "duration": 472, "velocity": 110}, {"time": 147118, "pitch": 64, "duration": 472, "velocity": 100}, {"time": 147118, "pitch": 69, "duration": 472, "velocity": 105}, {"time": 147118, "pitch": 73, "duration": 472, "velocity": 110}, {"time": 147600, "pitch": 53, "duration": 472, "velocity": 105}, {"time": 147600, "pitch": 63, "duration": 472, "velocity": 95}, {"time": 147600, "pitch": 68, "duration": 472, "velocity": 100}, {"time": 147600, "pitch": 73, "duration": 472, "velocity": 105}, {"time": 148082, "pitch": 52, "duration": 471, "velocity": 110}, {"time": 148082, "pitch": 62, "duration": 471, "velocity": 100}, {"time": 148082, "pitch": 67, "duration": 471, "velocity": 105}, {"time": 148082, "pitch": 71, "duration": 471, "velocity": 110}, {"time": 148563, "pitch": 51, "duration": 231, "velocity": 105}, {"time": 148563, "pitch": 61, "duration": 231, "velocity": 95}, {"time": 148563, "pitch": 66, "duration": 231, "velocity": 100}, {"time": 148563, "pitch": 71, "duration": 231, "velocity": 105}, {"time": 148804, "pitch": 50, "duration": 703, "velocity": 110}, {"time": 148804, "pitch": 61, "duration": 703, "velocity": 100}, {"time": 148804, "pitch": 66, "duration": 703, "velocity": 105}, {"time": 148804, "pitch": 69, "duration": 703, "velocity": 110}, {"time": 149517, "pitch": 47, "duration": 713, "velocity": 110}, {"time": 149517, "pitch": 61, "duration": 713, "velocity": 100}, {"time": 149517, "pitch": 64, "duration": 713, "velocity": 105}, {"time": 149517, "pitch": 69, "duration": 713, "velocity": 110}, {"time": 150240, "pitch": 52, "duration": 471, "velocity": 110}, {"time": 150240, "pitch": 59, "duration": 712, "velocity": 100}, {"time": 150240, "pitch": 64, "duration": 712, "velocity": 105}, {"time": 150240, "pitch": 68, "duration": 712, "velocity": 110}, {"time": 150722, "pitch": 52, "duration": 707, "velocity": 105}, {"time": 150962, "pitch": 59, "duration": 704, "velocity": 100}, {"time": 150962, "pitch": 64, "duration": 704, "velocity": 105}, {"time": 150962, "pitch": 68, "duration": 704, "velocity": 110}, {"time": 151439, "pitch": 52, "duration": 467, "velocity": 105}, {"time": 151675, "pitch": 59, "duration": 472, "velocity": 100}, {"time": 151675, "pitch": 64, "duration": 472, "velocity": 105}, {"time": 151675, "pitch": 68, "duration": 472, "velocity": 110}, {"time": 151916, "pitch": 52, "duration": 231, "velocity": 100}, {"time": 152157, "pitch": 51, "duration": 472, "velocity": 110}, {"time": 152157, "pitch": 59, "duration": 713, "velocity": 100}, {"time": 152157, "pitch": 63, "duration": 713, "velocity": 105}, {"time": 152157, "pitch": 68, "duration": 713, "velocity": 110}, {"time": 152639, "pitch": 51, "duration": 712, "velocity": 105}, {"time": 152880, "pitch": 59, "duration": 712, "velocity": 100}, {"time": 152880, "pitch": 63, "duration": 712, "velocity": 105}, {"time": 152880, "pitch": 68, "duration": 712, "velocity": 110}, {"time": 153361, "pitch": 51, "duration": 472, "velocity": 105}, {"time": 153602, "pitch": 59, "duration": 472, "velocity": 100}, {"time": 153602, "pitch": 63, "duration": 472, "velocity": 105}, {"time": 153602, "pitch": 68, "duration": 472, "velocity": 110}, {"time": 153843, "pitch": 51, "duration": 231, "velocity": 100}, {"time": 154084, "pitch": 50, "duration": 462, "velocity": 110}, {"time": 154084, "pitch": 61, "duration": 703, "velocity": 100}, {"time": 154084, "pitch": 66, "duration": 703, "velocity": 105}, {"time": 154084, "pitch": 69, "duration": 703, "velocity": 110}, {"time": 154556, "pitch": 50, "duration": 713, "velocity": 105}, {"time": 154797, "pitch": 61, "duration": 713, "velocity": 100}, {"time": 154797, "pitch": 66, "duration": 713, "velocity": 105}, {"time": 154797, "pitch": 69, "duration": 713, "velocity": 110}, {"time": 155279, "pitch": 50, "duration": 471, "velocity": 105}, {"time": 155520, "pitch": 61, "duration": 471, "velocity": 100}, {"time": 155520, "pitch": 66, "duration": 471, "velocity": 105}, {"time": 155520, "pitch": 69, "duration": 471, "velocity": 110}, {"time": 155760, "pitch": 50, "duration": 231, "velocity": 100}, {"time": 156001, "pitch": 49, "duration": 472, "velocity": 110}, {"time": 156001, "pitch": 59, "duration": 713, "velocity": 100}, {"time": 156001, "pitch": 64, "duration": 713, "velocity": 105}, {"time": 156001, "pitch": 68, "duration": 713, "velocity": 110}, {"time": 156483, "pitch": 49, "duration": 708, "velocity": 105}, {"time": 156724, "pitch": 59, "duration": 703, "velocity": 100}, {"time": 156724, "pitch": 64, "duration": 703, "velocity": 105}, {"time": 156724, "pitch": 68, "duration": 703, "velocity": 110}, {"time": 157201, "pitch": 49, "duration": 467, "velocity": 105}, {"time": 157437, "pitch": 59, "duration": 472, "velocity": 100}, {"time": 157437, "pitch": 64, "duration": 472, "velocity": 105}, {"time": 157437, "pitch": 68, "duration": 472, "velocity": 110}, {"time": 157678, "pitch": 49, "duration": 231, "velocity": 100}, {"time": 157919, "pitch": 42, "duration": 471, "velocity": 110}, {"time": 157919, "pitch": 57, "duration": 712, "velocity": 95}, {"time": 157919, "pitch": 61, "duration": 712, "velocity": 100}, {"time": 157919, "pitch": 64, "duration": 712, "velocity": 105}, {"time": 157919, "pitch": 68, "duration": 712, "velocity": 110}, {"time": 158400, "pitch": 42, "duration": 713, "velocity": 105}, {"time": 158641, "pitch": 57, "duration": 713, "velocity": 95}, {"time": 158641, "pitch": 61, "duration": 713, "velocity": 100}, {"time": 158641, "pitch": 64, "duration": 713, "velocity": 105}, {"time": 158641, "pitch": 68, "duration": 713, "velocity": 110}, {"time": 159123, "pitch": 42, "duration": 467, "velocity": 105}, {"time": 159364, "pitch": 57, "duration": 462, "velocity": 95}, {"time": 159364, "pitch": 61, "duration": 462, "velocity": 100}, {"time": 159364, "pitch": 64, "duration": 462, "velocity": 105}, {"time": 159364, "pitch": 68, "duration": 462, "velocity": 110}, {"time": 159600, "pitch": 42, "duration": 226, "velocity": 100}, {"time": 159836, "pitch": 44, "duration": 472, "velocity": 110}, {"time": 159836, "pitch": 59, "duration": 713, "velocity": 100}, {"time": 159836, "pitch": 63, "duration": 713, "velocity": 105}, {"time": 159836, "pitch": 66, "duration": 713, "velocity": 110}, {"time": 160318, "pitch": 44, "duration": 712, "velocity": 105}, {"time": 160559, "pitch": 59, "duration": 712, "velocity": 100}, {"time": 160559, "pitch": 63, "duration": 712, "velocity": 105}, {"time": 160559, "pitch": 66, "duration": 712, "velocity": 110}, {"time": 161040, "pitch": 44, "duration": 472, "velocity": 105}, {"time": 161281, "pitch": 59, "duration": 472, "velocity": 110}, {"time": 161281, "pitch": 63, "duration": 472, "velocity": 100}, {"time": 161281, "pitch": 66, "duration": 472, "velocity": 105}, {"time": 161522, "pitch": 44, "duration": 231, "velocity": 100}, {"time": 161763, "pitch": 45, "duration": 472, "velocity": 110}, {"time": 161763, "pitch": 55, "duration": 708, "velocity": 100}, {"time": 161763, "pitch": 60, "duration": 708, "velocity": 105}, {"time": 161763, "pitch": 64, "duration": 708, "velocity": 110}, {"time": 162245, "pitch": 45, "duration": 703, "velocity": 105}, {"time": 162481, "pitch": 55, "duration": 707, "velocity": 100}, {"time": 162481, "pitch": 60, "duration": 707, "velocity": 105}, {"time": 162481, "pitch": 64, "duration": 707, "velocity": 110}, {"time": 162958, "pitch": 45, "duration": 471, "velocity": 105}, {"time": 163198, "pitch": 55, "duration": 472, "velocity": 100}, {"time": 163198, "pitch": 60, "duration": 472, "velocity": 105}, {"time": 163198, "pitch": 64, "duration": 472, "velocity": 110}, {"time": 163439, "pitch": 45, "duration": 231, "velocity": 100}, {"time": 163680, "pitch": 47, "duration": 713, "velocity": 110}, {"time": 163680, "pitch": 57, "duration": 472, "velocity": 100}, {"time": 163680, "pitch": 61, "duration": 472, "velocity": 105}, {"time": 163680, "pitch": 64, "duration": 472, "velocity": 110}, {"time": 164162, "pitch": 57, "duration": 708, "velocity": 95}, {"time": 164162, "pitch": 61, "duration": 708, "velocity": 100}, {"time": 164162, "pitch": 64, "duration": 708, "velocity": 105}, {"time": 164403, "pitch": 47, "duration": 703, "velocity": 110}, {"time": 164880, "pitch": 57, "duration": 707, "velocity": 100}, {"time": 164880, "pitch": 61, "duration": 707, "velocity": 105}, {"time": 164880, "pitch": 64, "duration": 707, "velocity": 110}, {"time": 165116, "pitch": 47, "duration": 471, "velocity": 105}, {"time": 165597, "pitch": 52, "duration": 472, "velocity": 110}, {"time": 165597, "pitch": 59, "duration": 713, "velocity": 100}, {"time": 165597, "pitch": 64, "duration": 713, "velocity": 105}, {"time": 165597, "pitch": 68, "duration": 713, "velocity": 110}, {"time": 166079, "pitch": 52, "duration": 713, "velocity": 105}, {"time": 166320, "pitch": 59, "duration": 713, "velocity": 100}, {"time": 166320, "pitch": 64, "duration": 713, "velocity": 105}, {"time": 166320, "pitch": 68, "duration": 713, "velocity": 110}, {"time": 166802, "pitch": 52, "duration": 472, "velocity": 105}, {"time": 167043, "pitch": 59, "duration": 472, "velocity": 100}, {"time": 167043, "pitch": 64, "duration": 472, "velocity": 105}, {"time": 167043, "pitch": 68, "duration": 472, "velocity": 110}, {"time": 167284, "pitch": 52, "duration": 231, "velocity": 100}, {"time": 167524, "pitch": 51, "duration": 463, "velocity": 110}, {"time": 167524, "pitch": 59, "duration": 703, "velocity": 100}, {"time": 167524, "pitch": 63, "duration": 703, "velocity": 105}, {"time": 167524, "pitch": 68, "duration": 703, "velocity": 110}, {"time": 167997, "pitch": 51, "duration": 712, "velocity": 105}, {"time": 168237, "pitch": 59, "duration": 713, "velocity": 100}, {"time": 168237, "pitch": 63, "duration": 713, "velocity": 105}, {"time": 168237, "pitch": 68, "duration": 713, "velocity": 110}, {"time": 168719, "pitch": 51, "duration": 472, "velocity": 105}, {"time": 168960, "pitch": 59, "duration": 472, "velocity": 100}, {"time": 168960, "pitch": 63, "duration": 472, "velocity": 105}, {"time": 168960, "pitch": 68, "duration": 472, "velocity": 110}, {"time": 169201, "pitch": 51, "duration": 231, "velocity": 100}, {"time": 169442, "pitch": 50, "duration": 472, "velocity": 110}, {"time": 169442, "pitch": 61, "duration": 708, "velocity": 100}, {"time": 169442, "pitch": 66, "duration": 708, "velocity": 105}, {"time": 169442, "pitch": 69, "duration": 708, "velocity": 110}, {"time": 169924, "pitch": 50, "duration": 702, "velocity": 105}, {"time": 170160, "pitch": 61, "duration": 707, "velocity": 100}, {"time": 170160, "pitch": 66, "duration": 707, "velocity": 105}, {"time": 170160, "pitch": 69, "duration": 707, "velocity": 110}, {"time": 170636, "pitch": 50, "duration": 472, "velocity": 105}, {"time": 170877, "pitch": 61, "duration": 472, "velocity": 100}, {"time": 170877, "pitch": 66, "duration": 472, "velocity": 105}, {"time": 170877, "pitch": 69, "duration": 472, "velocity": 110}, {"time": 171118, "pitch": 50, "duration": 231, "velocity": 100}, {"time": 171359, "pitch": 49, "duration": 472, "velocity": 110}, {"time": 171359, "pitch": 59, "duration": 713, "velocity": 100}, {"time": 171359, "pitch": 64, "duration": 713, "velocity": 105}, {"time": 171359, "pitch": 68, "duration": 713, "velocity": 110}, {"time": 171841, "pitch": 49, "duration": 712, "velocity": 105}, {"time": 172082, "pitch": 59, "duration": 712, "velocity": 100}, {"time": 172082, "pitch": 64, "duration": 712, "velocity": 105}, {"time": 172082, "pitch": 68, "duration": 712, "velocity": 110}, {"time": 172564, "pitch": 49, "duration": 467, "velocity": 105}, {"time": 172804, "pitch": 59, "duration": 463, "velocity": 100}, {"time": 172804, "pitch": 64, "duration": 463, "velocity": 105}, {"time": 172804, "pitch": 68, "duration": 463, "velocity": 110}, {"time": 173040, "pitch": 49, "duration": 227, "velocity": 100}, {"time": 173276, "pitch": 42, "duration": 472, "velocity": 110}, {"time": 173276, "pitch": 57, "duration": 713, "velocity": 95}, {"time": 173276, "pitch": 61, "duration": 713, "velocity": 100}, {"time": 173276, "pitch": 64, "duration": 713, "velocity": 105}, {"time": 173276, "pitch": 68, "duration": 713, "velocity": 110}, {"time": 173758, "pitch": 42, "duration": 713, "velocity": 105}, {"time": 173999, "pitch": 57, "duration": 713, "velocity": 95}, {"time": 173999, "pitch": 61, "duration": 713, "velocity": 100}, {"time": 173999, "pitch": 64, "duration": 713, "velocity": 105}, {"time": 173999, "pitch": 68, "duration": 713, "velocity": 110}, {"time": 174481, "pitch": 42, "duration": 472, "velocity": 105}, {"time": 174722, "pitch": 57, "duration": 471, "velocity": 95}, {"time": 174722, "pitch": 61, "duration": 471, "velocity": 100}, {"time": 174722, "pitch": 64, "duration": 471, "velocity": 105}, {"time": 174722, "pitch": 68, "duration": 471, "velocity": 110}, {"time": 174963, "pitch": 42, "duration": 230, "velocity": 100}, {"time": 175203, "pitch": 44, "duration": 463, "velocity": 110}, {"time": 175203, "pitch": 59, "duration": 703, "velocity": 100}, {"time": 175203, "pitch": 63, "duration": 703, "velocity": 105}, {"time": 175203, "pitch": 66, "duration": 703, "velocity": 110}, {"time": 175675, "pitch": 44, "duration": 713, "velocity": 105}, {"time": 175916, "pitch": 59, "duration": 713, "velocity": 100}, {"time": 175916, "pitch": 63, "duration": 713, "velocity": 105}, {"time": 175916, "pitch": 66, "duration": 713, "velocity": 110}, {"time": 176398, "pitch": 44, "duration": 472, "velocity": 105}, {"time": 176639, "pitch": 59, "duration": 472, "velocity": 110}, {"time": 176639, "pitch": 63, "duration": 472, "velocity": 100}, {"time": 176639, "pitch": 66, "duration": 472, "velocity": 105}, {"time": 176880, "pitch": 44, "duration": 231, "velocity": 100}, {"time": 177121, "pitch": 45, "duration": 471, "velocity": 110}, {"time": 177121, "pitch": 55, "duration": 712, "velocity": 100}, {"time": 177121, "pitch": 60, "duration": 712, "velocity": 105}, {"time": 177121, "pitch": 64, "duration": 712, "velocity": 110}, {"time": 177602, "pitch": 45, "duration": 708, "velocity": 105}, {"time": 177843, "pitch": 55, "duration": 703, "velocity": 100}, {"time": 177843, "pitch": 60, "duration": 703, "velocity": 105}, {"time": 177843, "pitch": 64, "duration": 703, "velocity": 110}, {"time": 178320, "pitch": 45, "duration": 467, "velocity": 105}, {"time": 178556, "pitch": 55, "duration": 472, "velocity": 100}, {"time": 178556, "pitch": 60, "duration": 472, "velocity": 105}, {"time": 178556, "pitch": 64, "duration": 472, "velocity": 110}, {"time": 178797, "pitch": 45, "duration": 231, "velocity": 100}, {"time": 179038, "pitch": 47, "duration": 472, "velocity": 110}, {"time": 179038, "pitch": 57, "duration": 472, "velocity": 100}, {"time": 179038, "pitch": 61, "duration": 472, "velocity": 105}, {"time": 179038, "pitch": 64, "duration": 472, "velocity": 110}, {"time": 179520, "pitch": 57, "duration": 110, "velocity": 95}, {"time": 179520, "pitch": 61, "duration": 110, "velocity": 100}, {"time": 179520, "pitch": 64, "duration": 110, "velocity": 105}, {"time": 179761, "pitch": 47, "duration": 1184, "velocity": 110}, {"time": 179761, "pitch": 59, "duration": 1184, "velocity": 100}, {"time": 179761, "pitch": 63, "duration": 1184, "velocity": 105}, {"time": 179761, "pitch": 66, "duration": 1184, "velocity": 110}, {"time": 180955, "pitch": 49, "duration": 472, "velocity": 110}, {"time": 180955, "pitch": 59, "duration": 713, "velocity": 100}, {"time": 180955, "pitch": 64, "duration": 713, "velocity": 105}, {"time": 180955, "pitch": 68, "duration": 713, "velocity": 110}, {"time": 181437, "pitch": 49, "duration": 713, "velocity": 105}, {"time": 181678, "pitch": 59, "duration": 713, "velocity": 100}, {"time": 181678, "pitch": 64, "duration": 713, "velocity": 105}, {"time": 181678, "pitch": 68, "duration": 713, "velocity": 110}, {"time": 182160, "pitch": 49, "duration": 471, "velocity": 105}, {"time": 182401, "pitch": 59, "duration": 471, "velocity": 100}, {"time": 182401, "pitch": 64, "duration": 471, "velocity": 105}, {"time": 182401, "pitch": 68, "duration": 471, "velocity": 110}, {"time": 182641, "pitch": 49, "duration": 231, "velocity": 100}, {"time": 182882, "pitch": 42, "duration": 472, "velocity": 110}, {"time": 182882, "pitch": 57, "duration": 708, "velocity": 95}, {"time": 182882, "pitch": 61, "duration": 708, "velocity": 100}, {"time": 182882, "pitch": 64, "duration": 708, "velocity": 105}, {"time": 182882, "pitch": 68, "duration": 708, "velocity": 110}, {"time": 183364, "pitch": 42, "duration": 703, "velocity": 105}, {"time": 183600, "pitch": 57, "duration": 708, "velocity": 95}, {"time": 183600, "pitch": 61, "duration": 708, "velocity": 100}, {"time": 183600, "pitch": 64, "duration": 708, "velocity": 105}, {"time": 183600, "pitch": 68, "duration": 708, "velocity": 110}, {"time": 184077, "pitch": 42, "duration": 472, "velocity": 105}, {"time": 184318, "pitch": 57, "duration": 472, "velocity": 95}, {"time": 184318, "pitch": 61, "duration": 472, "velocity": 100}, {"time": 184318, "pitch": 64, "duration": 472, "velocity": 105}, {"time": 184318, "pitch": 68, "duration": 472, "velocity": 110}, {"time": 184559, "pitch": 42, "duration": 231, "velocity": 100}, {"time": 184800, "pitch": 44, "duration": 471, "velocity": 110}, {"time": 184800, "pitch": 56, "duration": 712, "velocity": 95}, {"time": 184800, "pitch": 59, "duration": 712, "velocity": 100}, {"time": 184800, "pitch": 63, "duration": 712, "velocity": 105}, {"time": 184800, "pitch": 66, "duration": 712, "velocity": 110}, {"time": 185281, "pitch": 44, "duration": 713, "velocity": 105}, {"time": 185522, "pitch": 56, "duration": 713, "velocity": 95}, {"time": 185522, "pitch": 59, "duration": 713, "velocity": 100}, {"time": 185522, "pitch": 63, "duration": 713, "velocity": 105}, {"time": 185522, "pitch": 66, "duration": 713, "velocity": 110}, {"time": 186004, "pitch": 44, "duration": 467, "velocity": 105}, {"time": 186245, "pitch": 56, "duration": 462, "velocity": 95}, {"time": 186245, "pitch": 59, "duration": 462, "velocity": 100}, {"time": 186245, "pitch": 63, "duration": 462, "velocity": 105}, {"time": 186245, "pitch": 66, "duration": 462, "velocity": 110}, {"time": 186481, "pitch": 44, "duration": 226, "velocity": 100}, {"time": 186717, "pitch": 45, "duration": 472, "velocity": 110}, {"time": 186717, "pitch": 57, "duration": 712, "velocity": 100}, {"time": 186717, "pitch": 61, "duration": 712, "velocity": 105}, {"time": 186717, "pitch": 64, "duration": 712, "velocity": 110}, {"time": 187199, "pitch": 45, "duration": 712, "velocity": 105}, {"time": 187439, "pitch": 57, "duration": 713, "velocity": 100}, {"time": 187439, "pitch": 61, "duration": 713, "velocity": 105}, {"time": 187439, "pitch": 64, "duration": 713, "velocity": 110}, {"time": 187921, "pitch": 45, "duration": 231, "velocity": 105}, {"time": 188162, "pitch": 47, "duration": 472, "velocity": 110}, {"time": 188162, "pitch": 59, "duration": 472, "velocity": 100}, {"time": 188162, "pitch": 63, "duration": 472, "velocity": 105}, {"time": 188162, "pitch": 66, "duration": 472, "velocity": 110}, {"time": 188644, "pitch": 49, "duration": 462, "velocity": 110}, {"time": 188644, "pitch": 59, "duration": 703, "velocity": 100}, {"time": 188644, "pitch": 64, "duration": 703, "velocity": 105}, {"time": 188644, "pitch": 68, "duration": 703, "velocity": 110}, {"time": 189116, "pitch": 49, "duration": 712, "velocity": 105}, {"time": 189357, "pitch": 59, "duration": 712, "velocity": 100}, {"time": 189357, "pitch": 64, "duration": 712, "velocity": 105}, {"time": 189357, "pitch": 68, "duration": 712, "velocity": 110}, {"time": 189839, "pitch": 49, "duration": 471, "velocity": 105}, {"time": 190079, "pitch": 59, "duration": 472, "velocity": 100}, {"time": 190079, "pitch": 64, "duration": 472, "velocity": 105}, {"time": 190079, "pitch": 68, "duration": 472, "velocity": 110}, {"time": 190320, "pitch": 49, "duration": 231, "velocity": 100}, {"time": 190561, "pitch": 44, "duration": 472, "velocity": 110}, {"time": 190561, "pitch": 56, "duration": 713, "velocity": 95}, {"time": 190561, "pitch": 59, "duration": 713, "velocity": 100}, {"time": 190561, "pitch": 63, "duration": 713, "velocity": 105}, {"time": 190561, "pitch": 66, "duration": 713, "velocity": 110}, {"time": 191043, "pitch": 44, "duration": 708, "velocity": 105}, {"time": 191284, "pitch": 56, "duration": 703, "velocity": 95}, {"time": 191284, "pitch": 59, "duration": 703, "velocity": 100}, {"time": 191284, "pitch": 63, "duration": 703, "velocity": 105}, {"time": 191284, "pitch": 66, "duration": 703, "velocity": 110}, {"time": 191761, "pitch": 44, "duration": 467, "velocity": 105}, {"time": 191997, "pitch": 56, "duration": 471, "velocity": 95}, {"time": 191997, "pitch": 59, "duration": 471, "velocity": 100}, {"time": 191997, "pitch": 63, "duration": 471, "velocity": 105}, {"time": 191997, "pitch": 66, "duration": 471, "velocity": 110}, {"time": 192238, "pitch": 43, "duration": 230, "velocity": 100}, {"time": 192478, "pitch": 42, "duration": 472, "velocity": 110}, {"time": 192478, "pitch": 54, "duration": 713, "velocity": 95}, {"time": 192478, "pitch": 57, "duration": 713, "velocity": 100}, {"time": 192478, "pitch": 61, "duration": 713, "velocity": 105}, {"time": 192478, "pitch": 64, "duration": 713, "velocity": 110}, {"time": 192960, "pitch": 42, "duration": 713, "velocity": 105}, {"time": 193201, "pitch": 54, "duration": 1185, "velocity": 95}, {"time": 193201, "pitch": 57, "duration": 1185, "velocity": 100}, {"time": 193201, "pitch": 61, "duration": 1185, "velocity": 105}, {"time": 193201, "pitch": 64, "duration": 1185, "velocity": 110}, {"time": 193683, "pitch": 42, "duration": 231, "velocity": 105}, {"time": 193924, "pitch": 40, "duration": 226, "velocity": 110}, {"time": 194160, "pitch": 39, "duration": 226, "velocity": 100}, {"time": 194396, "pitch": 38, "duration": 712, "velocity": 110}, {"time": 194396, "pitch": 60, "duration": 712, "velocity": 100}, {"time": 194396, "pitch": 66, "duration": 712, "velocity": 105}, {"time": 194396, "pitch": 71, "duration": 712, "velocity": 110}, {"time": 195118, "pitch": 44, "duration": 1195, "velocity": 110}, {"time": 195118, "pitch": 60, "duration": 1195, "velocity": 100}, {"time": 195118, "pitch": 66, "duration": 1195, "velocity": 105}, {"time": 195118, "pitch": 69, "duration": 1195, "velocity": 110}, {"time": 196323, "pitch": 49, "duration": 472, "velocity": 110}, {"time": 196323, "pitch": 59, "duration": 708, "velocity": 100}, {"time": 196323, "pitch": 64, "duration": 708, "velocity": 105}, {"time": 196323, "pitch": 68, "duration": 708, "velocity": 110}, {"time": 196804, "pitch": 49, "duration": 703, "velocity": 105}, {"time": 197041, "pitch": 59, "duration": 707, "velocity": 100}, {"time": 197041, "pitch": 64, "duration": 707, "velocity": 105}, {"time": 197041, "pitch": 68, "duration": 707, "velocity": 110}, {"time": 197517, "pitch": 49, "duration": 713, "velocity": 105}, {"time": 197758, "pitch": 59, "duration": 472, "velocity": 100}, {"time": 197758, "pitch": 64, "duration": 472, "velocity": 105}, {"time": 197758, "pitch": 68, "duration": 472, "velocity": 110}, {"time": 198240, "pitch": 49, "duration": 472, "velocity": 110}, {"time": 198240, "pitch": 59, "duration": 713, "velocity": 100}, {"time": 198240, "pitch": 64, "duration": 713, "velocity": 105}, {"time": 198240, "pitch": 68, "duration": 713, "velocity": 110}, {"time": 198722, "pitch": 49, "duration": 708, "velocity": 105}, {"time": 198963, "pitch": 59, "duration": 703, "velocity": 100}, {"time": 198963, "pitch": 64, "duration": 703, "velocity": 105}, {"time": 198963, "pitch": 68, "duration": 703, "velocity": 110}, {"time": 199440, "pitch": 49, "duration": 466, "velocity": 105}, {"time": 199676, "pitch": 59, "duration": 471, "velocity": 100}, {"time": 199676, "pitch": 64, "duration": 471, "velocity": 105}, {"time": 199676, "pitch": 68, "duration": 471, "velocity": 110}, {"time": 199916, "pitch": 49, "duration": 231, "velocity": 100}, {"time": 200157, "pitch": 42, "duration": 472, "velocity": 110}, {"time": 200157, "pitch": 57, "duration": 713, "velocity": 95}, {"time": 200157, "pitch": 61, "duration": 713, "velocity": 100}, {"time": 200157, "pitch": 64, "duration": 713, "velocity": 105}, {"time": 200157, "pitch": 68, "duration": 713, "velocity": 110}, {"time": 200639, "pitch": 42, "duration": 713, "velocity": 105}, {"time": 200880, "pitch": 57, "duration": 713, "velocity": 95}, {"time": 200880, "pitch": 61, "duration": 713, "velocity": 100}, {"time": 200880, "pitch": 64, "duration": 713, "velocity": 105}, {"time": 200880, "pitch": 68, "duration": 713, "velocity": 110}, {"time": 201362, "pitch": 42, "duration": 231, "velocity": 105}, {"time": 201603, "pitch": 42, "duration": 471, "velocity": 110}, {"time": 201603, "pitch": 57, "duration": 471, "velocity": 95}, {"time": 201603, "pitch": 61, "duration": 471, "velocity": 100}, {"time": 201603, "pitch": 64, "duration": 471, "velocity": 105}, {"time": 201603, "pitch": 68, "duration": 471, "velocity": 110}, {"time": 202084, "pitch": 42, "duration": 463, "velocity": 110}, {"time": 202084, "pitch": 57, "duration": 703, "velocity": 95}, {"time": 202084, "pitch": 61, "duration": 703, "velocity": 100}, {"time": 202084, "pitch": 64, "duration": 703, "velocity": 105}, {"time": 202084, "pitch": 68, "duration": 703, "velocity": 110}, {"time": 202556, "pitch": 42, "duration": 713, "velocity": 105}, {"time": 202797, "pitch": 57, "duration": 713, "velocity": 95}, {"time": 202797, "pitch": 61, "duration": 713, "velocity": 100}, {"time": 202797, "pitch": 64, "duration": 713, "velocity": 105}, {"time": 202797, "pitch": 68, "duration": 713, "velocity": 110}, {"time": 203279, "pitch": 42, "duration": 472, "velocity": 105}, {"time": 203520, "pitch": 57, "duration": 472, "velocity": 95}, {"time": 203520, "pitch": 61, "duration": 472, "velocity": 100}, {"time": 203520, "pitch": 64, "duration": 472, "velocity": 105}, {"time": 203520, "pitch": 68, "duration": 472, "velocity": 110}, {"time": 203761, "pitch": 42, "duration": 231, "velocity": 100}, {"time": 204002, "pitch": 44, "duration": 471, "velocity": 110}, {"time": 204002, "pitch": 59, "duration": 708, "velocity": 100}, {"time": 204002, "pitch": 63, "duration": 708, "velocity": 105}, {"time": 204002, "pitch": 66, "duration": 708, "velocity": 110}, {"time": 204483, "pitch": 44, "duration": 703, "velocity": 105}, {"time": 204719, "pitch": 59, "duration": 708, "velocity": 100}, {"time": 204719, "pitch": 63, "duration": 708, "velocity": 105}, {"time": 204719, "pitch": 66, "duration": 708, "velocity": 110}, {"time": 205196, "pitch": 44, "duration": 713, "velocity": 105}, {"time": 205437, "pitch": 59, "duration": 472, "velocity": 100}, {"time": 205437, "pitch": 63, "duration": 472, "velocity": 105}, {"time": 205437, "pitch": 66, "duration": 472, "velocity": 110}, {"time": 205919, "pitch": 44, "duration": 472, "velocity": 110}, {"time": 205919, "pitch": 59, "duration": 713, "velocity": 100}, {"time": 205919, "pitch": 63, "duration": 713, "velocity": 105}, {"time": 205919, "pitch": 66, "duration": 713, "velocity": 110}, {"time": 206401, "pitch": 44, "duration": 712, "velocity": 105}, {"time": 206642, "pitch": 59, "duration": 712, "velocity": 100}, {"time": 206642, "pitch": 63, "duration": 712, "velocity": 105}, {"time": 206642, "pitch": 66, "duration": 712, "velocity": 110}, {"time": 207123, "pitch": 44, "duration": 467, "velocity": 105}, {"time": 207364, "pitch": 59, "duration": 462, "velocity": 110}, {"time": 207364, "pitch": 63, "duration": 462, "velocity": 100}, {"time": 207364, "pitch": 66, "duration": 462, "velocity": 105}, {"time": 207600, "pitch": 44, "duration": 226, "velocity": 100}, {"time": 207836, "pitch": 45, "duration": 472, "velocity": 110}, {"time": 207836, "pitch": 57, "duration": 713, "velocity": 95}, {"time": 207836, "pitch": 61, "duration": 713, "velocity": 100}, {"time": 207836, "pitch": 64, "duration": 713, "velocity": 105}, {"time": 207836, "pitch": 68, "duration": 713, "velocity": 110}, {"time": 208318, "pitch": 45, "duration": 713, "velocity": 105}, {"time": 208559, "pitch": 57, "duration": 712, "velocity": 95}, {"time": 208559, "pitch": 61, "duration": 712, "velocity": 100}, {"time": 208559, "pitch": 64, "duration": 712, "velocity": 105}, {"time": 208559, "pitch": 68, "duration": 712, "velocity": 110}, {"time": 209041, "pitch": 45, "duration": 471, "velocity": 105}, {"time": 209281, "pitch": 57, "duration": 472, "velocity": 95}, {"time": 209281, "pitch": 61, "duration": 472, "velocity": 100}, {"time": 209281, "pitch": 64, "duration": 472, "velocity": 105}, {"time": 209281, "pitch": 68, "duration": 472, "velocity": 110}, {"time": 209522, "pitch": 45, "duration": 231, "velocity": 100}, {"time": 209763, "pitch": 44, "duration": 462, "velocity": 110}, {"time": 209763, "pitch": 54, "duration": 703, "velocity": 100}, {"time": 209763, "pitch": 60, "duration": 703, "velocity": 105}, {"time": 209763, "pitch": 63, "duration": 703, "velocity": 110}, {"time": 210235, "pitch": 44, "duration": 713, "velocity": 105}, {"time": 210476, "pitch": 54, "duration": 713, "velocity": 100}, {"time": 210476, "pitch": 60, "duration": 713, "velocity": 105}, {"time": 210476, "pitch": 63, "duration": 713, "velocity": 110}, {"time": 210958, "pitch": 44, "duration": 472, "velocity": 105}, {"time": 211199, "pitch": 54, "duration": 471, "velocity": 100}, {"time": 211199, "pitch": 60, "duration": 471, "velocity": 105}, {"time": 211199, "pitch": 63, "duration": 471, "velocity": 110}, {"time": 211440, "pitch": 44, "duration": 230, "velocity": 100}, {"time": 211681, "pitch": 49, "duration": 471, "velocity": 110}, {"time": 211681, "pitch": 59, "duration": 712, "velocity": 100}, {"time": 211681, "pitch": 64, "duration": 712, "velocity": 105}, {"time": 211681, "pitch": 68, "duration": 712, "velocity": 110}, {"time": 212162, "pitch": 49, "duration": 708, "velocity": 105}, {"time": 212403, "pitch": 59, "duration": 703, "velocity": 100}, {"time": 212403, "pitch": 64, "duration": 703, "velocity": 105}, {"time": 212403, "pitch": 68, "duration": 703, "velocity": 110}, {"time": 212880, "pitch": 49, "duration": 708, "velocity": 105}, {"time": 213116, "pitch": 59, "duration": 472, "velocity": 100}, {"time": 213116, "pitch": 64, "duration": 472, "velocity": 105}, {"time": 213116, "pitch": 68, "duration": 472, "velocity": 110}, {"time": 213598, "pitch": 49, "duration": 472, "velocity": 110}, {"time": 213598, "pitch": 59, "duration": 712, "velocity": 100}, {"time": 213598, "pitch": 64, "duration": 712, "velocity": 105}, {"time": 213598, "pitch": 68, "duration": 712, "velocity": 110}, {"time": 214080, "pitch": 49, "duration": 712, "velocity": 105}, {"time": 214320, "pitch": 59, "duration": 713, "velocity": 100}, {"time": 214320, "pitch": 64, "duration": 713, "velocity": 105}, {"time": 214320, "pitch": 68, "duration": 713, "velocity": 110}, {"time": 214802, "pitch": 49, "duration": 472, "velocity": 105}, {"time": 215043, "pitch": 59, "duration": 472, "velocity": 100}, {"time": 215043, "pitch": 64, "duration": 472, "velocity": 105}, {"time": 215043, "pitch": 68, "duration": 472, "velocity": 110}, {"time": 215284, "pitch": 49, "duration": 231, "velocity": 100}, {"time": 215525, "pitch": 42, "duration": 462, "velocity": 110}, {"time": 215525, "pitch": 57, "duration": 703, "velocity": 95}, {"time": 215525, "pitch": 61, "duration": 703, "velocity": 100}, {"time": 215525, "pitch": 64, "duration": 703, "velocity": 105}, {"time": 215525, "pitch": 68, "duration": 703, "velocity": 110}, {"time": 215997, "pitch": 42, "duration": 712, "velocity": 105}, {"time": 216238, "pitch": 57, "duration": 712, "velocity": 95}, {"time": 216238, "pitch": 61, "duration": 712, "velocity": 100}, {"time": 216238, "pitch": 64, "duration": 712, "velocity": 105}, {"time": 216238, "pitch": 68, "duration": 712, "velocity": 110}, {"time": 216719, "pitch": 42, "duration": 713, "velocity": 105}, {"time": 216960, "pitch": 57, "duration": 472, "velocity": 95}, {"time": 216960, "pitch": 61, "duration": 472, "velocity": 100}, {"time": 216960, "pitch": 64, "duration": 472, "velocity": 105}, {"time": 216960, "pitch": 68, "duration": 472, "velocity": 110}, {"time": 217442, "pitch": 42, "duration": 472, "velocity": 110}, {"time": 217442, "pitch": 57, "duration": 708, "velocity": 95}, {"time": 217442, "pitch": 61, "duration": 708, "velocity": 100}, {"time": 217442, "pitch": 64, "duration": 708, "velocity": 105}, {"time": 217442, "pitch": 68, "duration": 708, "velocity": 110}, {"time": 217924, "pitch": 42, "duration": 703, "velocity": 105}, {"time": 218160, "pitch": 57, "duration": 708, "velocity": 95}, {"time": 218160, "pitch": 61, "duration": 708, "velocity": 100}, {"time": 218160, "pitch": 64, "duration": 708, "velocity": 105}, {"time": 218160, "pitch": 68, "duration": 708, "velocity": 110}, {"time": 218637, "pitch": 42, "duration": 471, "velocity": 105}, {"time": 218878, "pitch": 57, "duration": 471, "velocity": 95}, {"time": 218878, "pitch": 61, "duration": 471, "velocity": 100}, {"time": 218878, "pitch": 64, "duration": 471, "velocity": 105}, {"time": 218878, "pitch": 68, "duration": 471, "velocity": 110}, {"time": 219119, "pitch": 42, "duration": 230, "velocity": 100}, {"time": 219359, "pitch": 44, "duration": 1195, "velocity": 110}, {"time": 219359, "pitch": 56, "duration": 713, "velocity": 95}, {"time": 219359, "pitch": 59, "duration": 713, "velocity": 100}, {"time": 219359, "pitch": 63, "duration": 713, "velocity": 105}, {"time": 219359, "pitch": 66, "duration": 713, "velocity": 110}, {"time": 220082, "pitch": 56, "duration": 713, "velocity": 95}, {"time": 220082, "pitch": 59, "duration": 713, "velocity": 100}, {"time": 220082, "pitch": 63, "duration": 713, "velocity": 105}, {"time": 220082, "pitch": 66, "duration": 713, "velocity": 110}, {"time": 220564, "pitch": 44, "duration": 467, "velocity": 105}, {"time": 220805, "pitch": 56, "duration": 462, "velocity": 95}, {"time": 220805, "pitch": 59, "duration": 462, "velocity": 100}, {"time": 220805, "pitch": 63, "duration": 462, "velocity": 105}, {"time": 220805, "pitch": 66, "duration": 462, "velocity": 110}, {"time": 221041, "pitch": 44, "duration": 226, "velocity": 100}, {"time": 221277, "pitch": 49, "duration": 471, "velocity": 110}, {"time": 221277, "pitch": 59, "duration": 712, "velocity": 100}, {"time": 221277, "pitch": 64, "duration": 712, "velocity": 105}, {"time": 221277, "pitch": 68, "duration": 712, "velocity": 110}, {"time": 221758, "pitch": 49, "duration": 713, "velocity": 105}, {"time": 221999, "pitch": 59, "duration": 713, "velocity": 100}, {"time": 221999, "pitch": 64, "duration": 713, "velocity": 105}, {"time": 221999, "pitch": 68, "duration": 713, "velocity": 110}, {"time": 222481, "pitch": 49, "duration": 472, "velocity": 105}, {"time": 222722, "pitch": 59, "duration": 472, "velocity": 100}, {"time": 222722, "pitch": 64, "duration": 472, "velocity": 105}, {"time": 222722, "pitch": 68, "duration": 472, "velocity": 110}, {"time": 222963, "pitch": 49, "duration": 231, "velocity": 100}, {"time": 223204, "pitch": 50, "duration": 462, "velocity": 110}, {"time": 223204, "pitch": 61, "duration": 703, "velocity": 100}, {"time": 223204, "pitch": 66, "duration": 703, "velocity": 105}, {"time": 223204, "pitch": 69, "duration": 703, "velocity": 110}, {"time": 223676, "pitch": 50, "duration": 712, "velocity": 105}, {"time": 223917, "pitch": 61, "duration": 712, "velocity": 100}, {"time": 223917, "pitch": 66, "duration": 712, "velocity": 105}, {"time": 223917, "pitch": 69, "duration": 712, "velocity": 110}, {"time": 224398, "pitch": 50, "duration": 352, "velocity": 105}, {"time": 224639, "pitch": 61, "duration": 111, "velocity": 95}, {"time": 224639, "pitch": 66, "duration": 111, "velocity": 100}, {"time": 224639, "pitch": 69, "duration": 111, "velocity": 105}, {"time": 224880, "pitch": 56, "duration": 713, "velocity": 110}, {"time": 224880, "pitch": 66, "duration": 713, "velocity": 100}, {"time": 224880, "pitch": 71, "duration": 713, "velocity": 105}, {"time": 224880, "pitch": 75, "duration": 713, "velocity": 110}, {"time": 225603, "pitch": 55, "duration": 231, "velocity": 105}, {"time": 225603, "pitch": 65, "duration": 231, "velocity": 95}, {"time": 225603, "pitch": 70, "duration": 231, "velocity": 100}, {"time": 225603, "pitch": 75, "duration": 231, "velocity": 105}, {"time": 225844, "pitch": 54, "duration": 467, "velocity": 110}, {"time": 225844, "pitch": 64, "duration": 467, "velocity": 100}, {"time": 225844, "pitch": 69, "duration": 467, "velocity": 105}, {"time": 225844, "pitch": 73, "duration": 467, "velocity": 110}, {"time": 226321, "pitch": 53, "duration": 466, "velocity": 105}, {"time": 226321, "pitch": 63, "duration": 466, "velocity": 95}, {"time": 226321, "pitch": 68, "duration": 466, "velocity": 100}, {"time": 226321, "pitch": 73, "duration": 466, "velocity": 105}, {"time": 226797, "pitch": 52, "duration": 472, "velocity": 110}, {"time": 226797, "pitch": 62, "duration": 472, "velocity": 100}, {"time": 226797, "pitch": 67, "duration": 472, "velocity": 105}, {"time": 226797, "pitch": 71, "duration": 472, "velocity": 110}, {"time": 227279, "pitch": 51, "duration": 231, "velocity": 105}, {"time": 227279, "pitch": 61, "duration": 231, "velocity": 95}, {"time": 227279, "pitch": 66, "duration": 231, "velocity": 100}, {"time": 227279, "pitch": 71, "duration": 231, "velocity": 105}, {"time": 227520, "pitch": 50, "duration": 713, "velocity": 110}, {"time": 227520, "pitch": 61, "duration": 713, "velocity": 100}, {"time": 227520, "pitch": 66, "duration": 713, "velocity": 105}, {"time": 227520, "pitch": 69, "duration": 713, "velocity": 110}, {"time": 228243, "pitch": 47, "duration": 703, "velocity": 110}, {"time": 228243, "pitch": 61, "duration": 703, "velocity": 100}, {"time": 228243, "pitch": 64, "duration": 703, "velocity": 105}, {"time": 228243, "pitch": 69, "duration": 703, "velocity": 110}, {"time": 228956, "pitch": 52, "duration": 471, "velocity": 110}, {"time": 228956, "pitch": 59, "duration": 712, "velocity": 100}, {"time": 228956, "pitch": 64, "duration": 712, "velocity": 105}, {"time": 228956, "pitch": 68, "duration": 712, "velocity": 110}, {"time": 229437, "pitch": 52, "duration": 713, "velocity": 105}, {"time": 229678, "pitch": 59, "duration": 713, "velocity": 100}, {"time": 229678, "pitch": 64, "duration": 713, "velocity": 105}, {"time": 229678, "pitch": 68, "duration": 713, "velocity": 110}, {"time": 230160, "pitch": 52, "duration": 472, "velocity": 105}, {"time": 230401, "pitch": 59, "duration": 472, "velocity": 100}, {"time": 230401, "pitch": 64, "duration": 472, "velocity": 105}, {"time": 230401, "pitch": 68, "duration": 472, "velocity": 110}, {"time": 230642, "pitch": 52, "duration": 231, "velocity": 100}, {"time": 230883, "pitch": 51, "duration": 471, "velocity": 110}, {"time": 230883, "pitch": 59, "duration": 708, "velocity": 100}, {"time": 230883, "pitch": 63, "duration": 708, "velocity": 105}, {"time": 230883, "pitch": 68, "duration": 708, "velocity": 110}, {"time": 231364, "pitch": 51, "duration": 703, "velocity": 105}, {"time": 231600, "pitch": 59, "duration": 708, "velocity": 100}, {"time": 231600, "pitch": 63, "duration": 708, "velocity": 105}, {"time": 231600, "pitch": 68, "duration": 708, "velocity": 110}, {"time": 232077, "pitch": 51, "duration": 472, "velocity": 105}, {"time": 232318, "pitch": 59, "duration": 472, "velocity": 100}, {"time": 232318, "pitch": 63, "duration": 472, "velocity": 105}, {"time": 232318, "pitch": 68, "duration": 472, "velocity": 110}, {"time": 232559, "pitch": 51, "duration": 231, "velocity": 100}, {"time": 232800, "pitch": 50, "duration": 472, "velocity": 110}, {"time": 232800, "pitch": 61, "duration": 712, "velocity": 100}, {"time": 232800, "pitch": 66, "duration": 712, "velocity": 105}, {"time": 232800, "pitch": 69, "duration": 712, "velocity": 110}, {"time": 233282, "pitch": 50, "duration": 708, "velocity": 105}, {"time": 233523, "pitch": 61, "duration": 703, "velocity": 100}, {"time": 233523, "pitch": 66, "duration": 703, "velocity": 105}, {"time": 233523, "pitch": 69, "duration": 703, "velocity": 110}, {"time": 233999, "pitch": 50, "duration": 467, "velocity": 105}, {"time": 234235, "pitch": 61, "duration": 472, "velocity": 100}, {"time": 234235, "pitch": 66, "duration": 472, "velocity": 105}, {"time": 234235, "pitch": 69, "duration": 472, "velocity": 110}, {"time": 234476, "pitch": 50, "duration": 231, "velocity": 100}, {"time": 234717, "pitch": 49, "duration": 472, "velocity": 110}, {"time": 234717, "pitch": 59, "duration": 713, "velocity": 100}, {"time": 234717, "pitch": 64, "duration": 713, "velocity": 105}, {"time": 234717, "pitch": 68, "duration": 713, "velocity": 110}, {"time": 235199, "pitch": 49, "duration": 713, "velocity": 105}, {"time": 235440, "pitch": 59, "duration": 712, "velocity": 100}, {"time": 235440, "pitch": 64, "duration": 712, "velocity": 105}, {"time": 235440, "pitch": 68, "duration": 712, "velocity": 110}, {"time": 235922, "pitch": 49, "duration": 471, "velocity": 105}, {"time": 236162, "pitch": 59, "duration": 472, "velocity": 100}, {"time": 236162, "pitch": 64, "duration": 472, "velocity": 105}, {"time": 236162, "pitch": 68, "duration": 472, "velocity": 110}, {"time": 236403, "pitch": 49, "duration": 231, "velocity": 100}, {"time": 236644, "pitch": 42, "duration": 462, "velocity": 110}, {"time": 236644, "pitch": 57, "duration": 703, "velocity": 95}, {"time": 236644, "pitch": 61, "duration": 703, "velocity": 100}, {"time": 236644, "pitch": 64, "duration": 703, "velocity": 105}, {"time": 236644, "pitch": 68, "duration": 703, "velocity": 110}, {"time": 237116, "pitch": 42, "duration": 713, "velocity": 105}, {"time": 237357, "pitch": 57, "duration": 713, "velocity": 95}, {"time": 237357, "pitch": 61, "duration": 713, "velocity": 100}, {"time": 237357, "pitch": 64, "duration": 713, "velocity": 105}, {"time": 237357, "pitch": 68, "duration": 713, "velocity": 110}, {"time": 237839, "pitch": 42, "duration": 472, "velocity": 105}, {"time": 238080, "pitch": 57, "duration": 471, "velocity": 95}, {"time": 238080, "pitch": 61, "duration": 471, "velocity": 100}, {"time": 238080, "pitch": 64, "duration": 471, "velocity": 105}, {"time": 238080, "pitch": 68, "duration": 471, "velocity": 110}, {"time": 238321, "pitch": 42, "duration": 230, "velocity": 100}, {"time": 238561, "pitch": 44, "duration": 472, "velocity": 110}, {"time": 238561, "pitch": 59, "duration": 708, "velocity": 100}, {"time": 238561, "pitch": 63, "duration": 708, "velocity": 105}, {"time": 238561, "pitch": 66, "duration": 708, "velocity": 110}, {"time": 239043, "pitch": 44, "duration": 703, "velocity": 105}, {"time": 239279, "pitch": 59, "duration": 708, "velocity": 100}, {"time": 239279, "pitch": 63, "duration": 708, "velocity": 105}, {"time": 239279, "pitch": 66, "duration": 708, "velocity": 110}, {"time": 239756, "pitch": 44, "duration": 472, "velocity": 105}, {"time": 239997, "pitch": 59, "duration": 472, "velocity": 110}, {"time": 239997, "pitch": 63, "duration": 472, "velocity": 100}, {"time": 239997, "pitch": 66, "duration": 472, "velocity": 105}, {"time": 240238, "pitch": 44, "duration": 231, "velocity": 100}, {"time": 240479, "pitch": 45, "duration": 471, "velocity": 110}, {"time": 240479, "pitch": 55, "duration": 712, "velocity": 100}, {"time": 240479, "pitch": 60, "duration": 712, "velocity": 105}, {"time": 240479, "pitch": 64, "duration": 712, "velocity": 110}, {"time": 240961, "pitch": 45, "duration": 712, "velocity": 105}, {"time": 241201, "pitch": 55, "duration": 713, "velocity": 100}, {"time": 241201, "pitch": 60, "duration": 713, "velocity": 105}, {"time": 241201, "pitch": 64, "duration": 713, "velocity": 110}, {"time": 241683, "pitch": 45, "duration": 467, "velocity": 105}, {"time": 241924, "pitch": 55, "duration": 462, "velocity": 100}, {"time": 241924, "pitch": 60, "duration": 462, "velocity": 105}, {"time": 241924, "pitch": 64, "duration": 462, "velocity": 110}, {"time": 242160, "pitch": 45, "duration": 226, "velocity": 100}, {"time": 242396, "pitch": 47, "duration": 713, "velocity": 110}, {"time": 242396, "pitch": 57, "duration": 472, "velocity": 100}, {"time": 242396, "pitch": 61, "duration": 472, "velocity": 105}, {"time": 242396, "pitch": 64, "duration": 472, "velocity": 110}, {"time": 242878, "pitch": 57, "duration": 712, "velocity": 95}, {"time": 242878, "pitch": 61, "duration": 712, "velocity": 100}, {"time": 242878, "pitch": 64, "duration": 712, "velocity": 105}, {"time": 243119, "pitch": 47, "duration": 712, "velocity": 110}, {"time": 243600, "pitch": 57, "duration": 713, "velocity": 100}, {"time": 243600, "pitch": 61, "duration": 713, "velocity": 105}, {"time": 243600, "pitch": 64, "duration": 713, "velocity": 110}, {"time": 243841, "pitch": 47, "duration": 472, "velocity": 105}, {"time": 244323, "pitch": 52, "duration": 472, "velocity": 110}, {"time": 244323, "pitch": 59, "duration": 708, "velocity": 100}, {"time": 244323, "pitch": 64, "duration": 708, "velocity": 105}, {"time": 244323, "pitch": 68, "duration": 708, "velocity": 110}, {"time": 244805, "pitch": 52, "duration": 703, "velocity": 105}, {"time": 245041, "pitch": 59, "duration": 708, "velocity": 100}, {"time": 245041, "pitch": 64, "duration": 708, "velocity": 105}, {"time": 245041, "pitch": 68, "duration": 708, "velocity": 110}, {"time": 245518, "pitch": 52, "duration": 471, "velocity": 105}, {"time": 245759, "pitch": 59, "duration": 471, "velocity": 100}, {"time": 245759, "pitch": 64, "duration": 471, "velocity": 105}, {"time": 245759, "pitch": 68, "duration": 471, "velocity": 110}, {"time": 245999, "pitch": 52, "duration": 231, "velocity": 100}, {"time": 246240, "pitch": 51, "duration": 472, "velocity": 110}, {"time": 246240, "pitch": 59, "duration": 713, "velocity": 100}, {"time": 246240, "pitch": 63, "duration": 713, "velocity": 105}, {"time": 246240, "pitch": 68, "duration": 713, "velocity": 110}, {"time": 246722, "pitch": 51, "duration": 708, "velocity": 105}, {"time": 246963, "pitch": 59, "duration": 703, "velocity": 100}, {"time": 246963, "pitch": 63, "duration": 703, "velocity": 105}, {"time": 246963, "pitch": 68, "duration": 703, "velocity": 110}, {"time": 247440, "pitch": 51, "duration": 467, "velocity": 105}, {"time": 247676, "pitch": 59, "duration": 472, "velocity": 100}, {"time": 247676, "pitch": 63, "duration": 472, "velocity": 105}, {"time": 247676, "pitch": 68, "duration": 472, "velocity": 110}, {"time": 247917, "pitch": 51, "duration": 231, "velocity": 100}, {"time": 248158, "pitch": 50, "duration": 471, "velocity": 110}, {"time": 248158, "pitch": 61, "duration": 712, "velocity": 100}, {"time": 248158, "pitch": 66, "duration": 712, "velocity": 105}, {"time": 248158, "pitch": 69, "duration": 712, "velocity": 110}, {"time": 248639, "pitch": 50, "duration": 713, "velocity": 105}, {"time": 248880, "pitch": 61, "duration": 713, "velocity": 100}, {"time": 248880, "pitch": 66, "duration": 713, "velocity": 105}, {"time": 248880, "pitch": 69, "duration": 713, "velocity": 110}, {"time": 249362, "pitch": 50, "duration": 472, "velocity": 105}, {"time": 249603, "pitch": 61, "duration": 472, "velocity": 100}, {"time": 249603, "pitch": 66, "duration": 472, "velocity": 105}, {"time": 249603, "pitch": 69, "duration": 472, "velocity": 110}, {"time": 249844, "pitch": 50, "duration": 231, "velocity": 100}, {"time": 250085, "pitch": 49, "duration": 462, "velocity": 110}, {"time": 250085, "pitch": 59, "duration": 702, "velocity": 100}, {"time": 250085, "pitch": 64, "duration": 702, "velocity": 105}, {"time": 250085, "pitch": 68, "duration": 702, "velocity": 110}, {"time": 250557, "pitch": 49, "duration": 712, "velocity": 105}, {"time": 250798, "pitch": 59, "duration": 712, "velocity": 100}, {"time": 250798, "pitch": 64, "duration": 712, "velocity": 105}, {"time": 250798, "pitch": 68, "duration": 712, "velocity": 110}, {"time": 251279, "pitch": 49, "duration": 472, "velocity": 105}, {"time": 251520, "pitch": 59, "duration": 472, "velocity": 100}, {"time": 251520, "pitch": 64, "duration": 472, "velocity": 105}, {"time": 251520, "pitch": 68, "duration": 472, "velocity": 110}, {"time": 251761, "pitch": 49, "duration": 231, "velocity": 100}, {"time": 252002, "pitch": 42, "duration": 472, "velocity": 110}, {"time": 252002, "pitch": 57, "duration": 708, "velocity": 95}, {"time": 252002, "pitch": 61, "duration": 708, "velocity": 100}, {"time": 252002, "pitch": 64, "duration": 708, "velocity": 105}, {"time": 252002, "pitch": 68, "duration": 708, "velocity": 110}, {"time": 252484, "pitch": 42, "duration": 703, "velocity": 105}, {"time": 252720, "pitch": 57, "duration": 707, "velocity": 95}, {"time": 252720, "pitch": 61, "duration": 707, "velocity": 100}, {"time": 252720, "pitch": 64, "duration": 707, "velocity": 105}, {"time": 252720, "pitch": 68, "duration": 707, "velocity": 110}, {"time": 253197, "pitch": 42, "duration": 471, "velocity": 105}, {"time": 253437, "pitch": 57, "duration": 472, "velocity": 95}, {"time": 253437, "pitch": 61, "duration": 472, "velocity": 100}, {"time": 253437, "pitch": 64, "duration": 472, "velocity": 105}, {"time": 253437, "pitch": 68, "duration": 472, "velocity": 110}, {"time": 253678, "pitch": 42, "duration": 231, "velocity": 100}, {"time": 253919, "pitch": 44, "duration": 472, "velocity": 110}, {"time": 253919, "pitch": 59, "duration": 713, "velocity": 100}, {"time": 253919, "pitch": 63, "duration": 713, "velocity": 105}, {"time": 253919, "pitch": 66, "duration": 713, "velocity": 110}, {"time": 254401, "pitch": 44, "duration": 713, "velocity": 105}, {"time": 254642, "pitch": 59, "duration": 712, "velocity": 100}, {"time": 254642, "pitch": 63, "duration": 712, "velocity": 105}, {"time": 254642, "pitch": 66, "duration": 712, "velocity": 110}, {"time": 255124, "pitch": 44, "duration": 467, "velocity": 105}, {"time": 255364, "pitch": 59, "duration": 463, "velocity": 110}, {"time": 255364, "pitch": 63, "duration": 463, "velocity": 100}, {"time": 255364, "pitch": 66, "duration": 463, "velocity": 105}, {"time": 255600, "pitch": 44, "duration": 227, "velocity": 100}, {"time": 255837, "pitch": 45, "duration": 471, "velocity": 110}, {"time": 255837, "pitch": 55, "duration": 712, "velocity": 100}, {"time": 255837, "pitch": 60, "duration": 712, "velocity": 105}, {"time": 255837, "pitch": 64, "duration": 712, "velocity": 110}, {"time": 256318, "pitch": 45, "duration": 713, "velocity": 105}, {"time": 256559, "pitch": 55, "duration": 713, "velocity": 100}, {"time": 256559, "pitch": 60, "duration": 713, "velocity": 105}, {"time": 256559, "pitch": 64, "duration": 713, "velocity": 110}, {"time": 257041, "pitch": 45, "duration": 472, "velocity": 105}, {"time": 257282, "pitch": 55, "duration": 472, "velocity": 100}, {"time": 257282, "pitch": 60, "duration": 472, "velocity": 105}, {"time": 257282, "pitch": 64, "duration": 472, "velocity": 110}, {"time": 257523, "pitch": 45, "duration": 231, "velocity": 100}, {"time": 257763, "pitch": 47, "duration": 463, "velocity": 110}, {"time": 257763, "pitch": 57, "duration": 463, "velocity": 100}, {"time": 257763, "pitch": 61, "duration": 463, "velocity": 105}, {"time": 257763, "pitch": 64, "duration": 463, "velocity": 110}, {"time": 258236, "pitch": 57, "duration": 110, "velocity": 95}, {"time": 258236, "pitch": 61, "duration": 110, "velocity": 100}, {"time": 258236, "pitch": 64, "duration": 110, "velocity": 105}, {"time": 258476, "pitch": 47, "duration": 1195, "velocity": 110}, {"time": 258476, "pitch": 59, "duration": 1195, "velocity": 100}, {"time": 258476, "pitch": 63, "duration": 1195, "velocity": 105}, {"time": 258476, "pitch": 66, "duration": 1195, "velocity": 110}, {"time": 259681, "pitch": 49, "duration": 472, "velocity": 110}, {"time": 259681, "pitch": 59, "duration": 712, "velocity": 100}, {"time": 259681, "pitch": 64, "duration": 712, "velocity": 105}, {"time": 259681, "pitch": 68, "duration": 712, "velocity": 110}, {"time": 260163, "pitch": 49, "duration": 707, "velocity": 105}, {"time": 260403, "pitch": 59, "duration": 704, "velocity": 100}, {"time": 260403, "pitch": 64, "duration": 704, "velocity": 105}, {"time": 260403, "pitch": 68, "duration": 704, "velocity": 110}, {"time": 260880, "pitch": 49, "duration": 467, "velocity": 105}, {"time": 261116, "pitch": 59, "duration": 472, "velocity": 100}, {"time": 261116, "pitch": 64, "duration": 472, "velocity": 105}, {"time": 261116, "pitch": 68, "duration": 472, "velocity": 110}, {"time": 261357, "pitch": 49, "duration": 231, "velocity": 100}, {"time": 261598, "pitch": 42, "duration": 472, "velocity": 110}, {"time": 261598, "pitch": 57, "duration": 713, "velocity": 95}, {"time": 261598, "pitch": 61, "duration": 713, "velocity": 100}, {"time": 261598, "pitch": 64, "duration": 713, "velocity": 105}, {"time": 261598, "pitch": 68, "duration": 713, "velocity": 110}, {"time": 262080, "pitch": 42, "duration": 712, "velocity": 105}, {"time": 262321, "pitch": 57, "duration": 712, "velocity": 95}, {"time": 262321, "pitch": 61, "duration": 712, "velocity": 100}, {"time": 262321, "pitch": 64, "duration": 712, "velocity": 105}, {"time": 262321, "pitch": 68, "duration": 712, "velocity": 110}, {"time": 262802, "pitch": 42, "duration": 468, "velocity": 105}, {"time": 263043, "pitch": 57, "duration": 463, "velocity": 95}, {"time": 263043, "pitch": 61, "duration": 463, "velocity": 100}, {"time": 263043, "pitch": 64, "duration": 463, "velocity": 105}, {"time": 263043, "pitch": 68, "duration": 463, "velocity": 110}, {"time": 263279, "pitch": 42, "duration": 227, "velocity": 100}, {"time": 263515, "pitch": 44, "duration": 472, "velocity": 110}, {"time": 263515, "pitch": 56, "duration": 713, "velocity": 95}, {"time": 263515, "pitch": 59, "duration": 713, "velocity": 100}, {"time": 263515, "pitch": 63, "duration": 713, "velocity": 105}, {"time": 263515, "pitch": 66, "duration": 713, "velocity": 110}, {"time": 263997, "pitch": 44, "duration": 713, "velocity": 105}, {"time": 264238, "pitch": 56, "duration": 713, "velocity": 95}, {"time": 264238, "pitch": 59, "duration": 713, "velocity": 100}, {"time": 264238, "pitch": 63, "duration": 713, "velocity": 105}, {"time": 264238, "pitch": 66, "duration": 713, "velocity": 110}, {"time": 264720, "pitch": 44, "duration": 471, "velocity": 105}, {"time": 264961, "pitch": 56, "duration": 471, "velocity": 95}, {"time": 264961, "pitch": 59, "duration": 471, "velocity": 100}, {"time": 264961, "pitch": 63, "duration": 471, "velocity": 105}, {"time": 264961, "pitch": 66, "duration": 471, "velocity": 110}, {"time": 265202, "pitch": 44, "duration": 230, "velocity": 100}, {"time": 265442, "pitch": 45, "duration": 472, "velocity": 110}, {"time": 265442, "pitch": 57, "duration": 708, "velocity": 100}, {"time": 265442, "pitch": 61, "duration": 708, "velocity": 105}, {"time": 265442, "pitch": 64, "duration": 708, "velocity": 110}, {"time": 265924, "pitch": 45, "duration": 703, "velocity": 105}, {"time": 266160, "pitch": 57, "duration": 708, "velocity": 100}, {"time": 266160, "pitch": 61, "duration": 708, "velocity": 105}, {"time": 266160, "pitch": 64, "duration": 708, "velocity": 110}, {"time": 266637, "pitch": 45, "duration": 231, "velocity": 105}, {"time": 266878, "pitch": 47, "duration": 472, "velocity": 110}, {"time": 266878, "pitch": 59, "duration": 472, "velocity": 100}, {"time": 266878, "pitch": 63, "duration": 472, "velocity": 105}, {"time": 266878, "pitch": 66, "duration": 472, "velocity": 110}, {"time": 267360, "pitch": 49, "duration": 471, "velocity": 110}, {"time": 267360, "pitch": 59, "duration": 712, "velocity": 100}, {"time": 267360, "pitch": 64, "duration": 712, "velocity": 105}, {"time": 267360, "pitch": 68, "duration": 712, "velocity": 110}, {"time": 267841, "pitch": 49, "duration": 708, "velocity": 105}, {"time": 268082, "pitch": 59, "duration": 703, "velocity": 100}, {"time": 268082, "pitch": 64, "duration": 703, "velocity": 105}, {"time": 268082, "pitch": 68, "duration": 703, "velocity": 110}, {"time": 268559, "pitch": 49, "duration": 467, "velocity": 105}, {"time": 268795, "pitch": 59, "duration": 472, "velocity": 100}, {"time": 268795, "pitch": 64, "duration": 472, "velocity": 105}, {"time": 268795, "pitch": 68, "duration": 472, "velocity": 110}, {"time": 269036, "pitch": 49, "duration": 231, "velocity": 100}, {"time": 269277, "pitch": 44, "duration": 472, "velocity": 110}, {"time": 269277, "pitch": 56, "duration": 713, "velocity": 95}, {"time": 269277, "pitch": 59, "duration": 713, "velocity": 100}, {"time": 269277, "pitch": 63, "duration": 713, "velocity": 105}, {"time": 269277, "pitch": 66, "duration": 713, "velocity": 110}, {"time": 269759, "pitch": 44, "duration": 712, "velocity": 105}, {"time": 270000, "pitch": 56, "duration": 712, "velocity": 95}, {"time": 270000, "pitch": 59, "duration": 712, "velocity": 100}, {"time": 270000, "pitch": 63, "duration": 712, "velocity": 105}, {"time": 270000, "pitch": 66, "duration": 712, "velocity": 110}, {"time": 270481, "pitch": 44, "duration": 472, "velocity": 105}, {"time": 270722, "pitch": 56, "duration": 472, "velocity": 95}, {"time": 270722, "pitch": 59, "duration": 472, "velocity": 100}, {"time": 270722, "pitch": 63, "duration": 472, "velocity": 105}, {"time": 270722, "pitch": 66, "duration": 472, "velocity": 110}, {"time": 270963, "pitch": 43, "duration": 231, "velocity": 100}, {"time": 271204, "pitch": 42, "duration": 462, "velocity": 110}, {"time": 271204, "pitch": 54, "duration": 703, "velocity": 95}, {"time": 271204, "pitch": 57, "duration": 703, "velocity": 100}, {"time": 271204, "pitch": 61, "duration": 703, "velocity": 105}, {"time": 271204, "pitch": 64, "duration": 703, "velocity": 110}, {"time": 271676, "pitch": 42, "duration": 713, "velocity": 105}, {"time": 271917, "pitch": 54, "duration": 1194, "velocity": 95}, {"time": 271917, "pitch": 57, "duration": 1194, "velocity": 100}, {"time": 271917, "pitch": 61, "duration": 1194, "velocity": 105}, {"time": 271917, "pitch": 64, "duration": 1194, "velocity": 110}, {"time": 272399, "pitch": 42, "duration": 230, "velocity": 105}, {"time": 272640, "pitch": 40, "duration": 230, "velocity": 110}, {"time": 272880, "pitch": 39, "duration": 231, "velocity": 100}, {"time": 273121, "pitch": 38, "duration": 713, "velocity": 110}, {"time": 273121, "pitch": 60, "duration": 713, "velocity": 100}, {"time": 273121, "pitch": 66, "duration": 713, "velocity": 105}, {"time": 273121, "pitch": 71, "duration": 713, "velocity": 110}, {"time": 273844, "pitch": 44, "duration": 1185, "velocity": 110}, {"time": 273844, "pitch": 60, "duration": 1185, "velocity": 100}, {"time": 273844, "pitch": 66, "duration": 1185, "velocity": 105}, {"time": 273844, "pitch": 69, "duration": 1185, "velocity": 110}, {"time": 275039, "pitch": 45, "duration": 7668, "velocity": 100}, {"time": 275039, "pitch": 59, "duration": 7668, "velocity": 85}, {"time": 275039, "pitch": 61, "duration": 7668, "velocity": 90}, {"time": 275039, "pitch": 64, "duration": 7668, "velocity": 95}, {"time": 275039, "pitch": 68, "duration": 7668, "velocity": 100}, {"time": 4322, "pitch": 25, "duration": 220, "velocity": 110}, {"time": 4562, "pitch": 25, "duration": 101, "velocity": 100}, {"time": 4683, "pitch": 25, "duration": 100, "velocity": 95}, {"time": 4803, "pitch": 25, "duration": 227, "velocity": 110}, {"time": 5039, "pitch": 25, "duration": 217, "velocity": 105}, {"time": 5275, "pitch": 25, "duration": 101, "velocity": 110}, {"time": 5396, "pitch": 25, "duration": 100, "velocity": 100}, {"time": 5516, "pitch": 25, "duration": 231, "velocity": 105}, {"time": 5757, "pitch": 25, "duration": 221, "velocity": 110}, {"time": 5998, "pitch": 25, "duration": 221, "velocity": 105}, {"time": 6239, "pitch": 30, "duration": 221, "velocity": 110}, {"time": 6480, "pitch": 30, "duration": 100, "velocity": 100}, {"time": 6600, "pitch": 30, "duration": 101, "velocity": 95}, {"time": 6721, "pitch": 30, "duration": 230, "velocity": 110}, {"time": 6962, "pitch": 30, "duration": 220, "velocity": 105}, {"time": 7202, "pitch": 30, "duration": 101, "velocity": 110}, {"time": 7323, "pitch": 30, "duration": 100, "velocity": 100}, {"time": 7443, "pitch": 30, "duration": 231, "velocity": 105}, {"time": 7684, "pitch": 30, "duration": 216, "velocity": 110}, {"time": 7920, "pitch": 30, "duration": 217, "velocity": 105}, {"time": 8156, "pitch": 32, "duration": 221, "velocity": 110}, {"time": 8397, "pitch": 32, "duration": 100, "velocity": 100}, {"time": 8517, "pitch": 32, "duration": 101, "velocity": 95}, {"time": 8638, "pitch": 32, "duration": 231, "velocity": 110}, {"time": 8879, "pitch": 32, "duration": 221, "velocity": 105}, {"time": 9120, "pitch": 32, "duration": 100, "velocity": 110}, {"time": 9240, "pitch": 32, "duration": 100, "velocity": 100}, {"time": 9361, "pitch": 32, "duration": 230, "velocity": 105}, {"time": 9601, "pitch": 32, "duration": 221, "velocity": 110}, {"time": 9842, "pitch": 32, "duration": 221, "velocity": 105}, {"time": 10083, "pitch": 33, "duration": 217, "velocity": 110}, {"time": 10319, "pitch": 33, "duration": 99, "velocity": 100}, {"time": 10437, "pitch": 33, "duration": 99, "velocity": 95}, {"time": 10555, "pitch": 33, "duration": 231, "velocity": 110}, {"time": 10796, "pitch": 33, "duration": 221, "velocity": 105}, {"time": 11037, "pitch": 33, "duration": 100, "velocity": 110}, {"time": 11157, "pitch": 33, "duration": 101, "velocity": 100}, {"time": 11278, "pitch": 33, "duration": 231, "velocity": 105}, {"time": 11519, "pitch": 35, "duration": 100, "velocity": 100}, {"time": 11639, "pitch": 35, "duration": 341, "velocity": 110}, {"time": 12000, "pitch": 25, "duration": 221, "velocity": 110}, {"time": 12241, "pitch": 25, "duration": 101, "velocity": 100}, {"time": 12362, "pitch": 25, "duration": 100, "velocity": 95}, {"time": 12482, "pitch": 25, "duration": 231, "velocity": 110}, {"time": 12723, "pitch": 25, "duration": 221, "velocity": 105}, {"time": 12964, "pitch": 25, "duration": 98, "velocity": 110}, {"time": 13082, "pitch": 25, "duration": 98, "velocity": 100}, {"time": 13200, "pitch": 25, "duration": 226, "velocity": 105}, {"time": 13436, "pitch": 25, "duration": 221, "velocity": 110}, {"time": 13677, "pitch": 25, "duration": 221, "velocity": 105}, {"time": 13918, "pitch": 32, "duration": 221, "velocity": 110}, {"time": 14159, "pitch": 32, "duration": 100, "velocity": 100}, {"time": 14279, "pitch": 32, "duration": 100, "velocity": 95}, {"time": 14400, "pitch": 32, "duration": 230, "velocity": 110}, {"time": 14640, "pitch": 32, "duration": 221, "velocity": 105}, {"time": 14881, "pitch": 32, "duration": 101, "velocity": 110}, {"time": 15002, "pitch": 32, "duration": 100, "velocity": 100}, {"time": 15122, "pitch": 32, "duration": 231, "velocity": 105}, {"time": 15363, "pitch": 32, "duration": 100, "velocity": 100}, {"time": 15483, "pitch": 32, "duration": 342, "velocity": 110}, {"time": 15845, "pitch": 30, "duration": 216, "velocity": 110}, {"time": 16081, "pitch": 30, "duration": 98, "velocity": 100}, {"time": 16199, "pitch": 30, "duration": 98, "velocity": 95}, {"time": 16317, "pitch": 30, "duration": 221, "velocity": 110}, {"time": 16558, "pitch": 30, "duration": 220, "velocity": 105}, {"time": 16799, "pitch": 30, "duration": 100, "velocity": 110}, {"time": 16919, "pitch": 30, "duration": 100, "velocity": 100}, {"time": 17039, "pitch": 30, "duration": 221, "velocity": 105}, {"time": 17280, "pitch": 30, "duration": 111, "velocity": 110}, {"time": 17401, "pitch": 28, "duration": 110, "velocity": 100}, {"time": 17521, "pitch": 27, "duration": 231, "velocity": 105}, {"time": 17762, "pitch": 26, "duration": 231, "velocity": 110}, {"time": 18003, "pitch": 30, "duration": 231, "velocity": 105}, {"time": 18244, "pitch": 31, "duration": 226, "velocity": 100}, {"time": 18480, "pitch": 32, "duration": 718, "velocity": 110}, {"time": 19198, "pitch": 38, "duration": 471, "velocity": 100}, {"time": 19679, "pitch": 25, "duration": 101, "velocity": 110}, {"time": 19800, "pitch": 25, "duration": 100, "velocity": 100}, {"time": 19920, "pitch": 25, "duration": 221, "velocity": 105}, {"time": 20161, "pitch": 25, "duration": 221, "velocity": 110}, {"time": 20402, "pitch": 25, "duration": 100, "velocity": 100}, {"time": 20522, "pitch": 25, "duration": 221, "velocity": 105}, {"time": 20763, "pitch": 25, "duration": 342, "velocity": 110}, {"time": 21125, "pitch": 25, "duration": 216, "velocity": 110}, {"time": 21361, "pitch": 25, "duration": 98, "velocity": 105}, {"time": 21479, "pitch": 25, "duration": 98, "velocity": 100}, {"time": 21597, "pitch": 25, "duration": 100, "velocity": 110}, {"time": 21717, "pitch": 25, "duration": 100, "velocity": 100}, {"time": 21837, "pitch": 25, "duration": 221, "velocity": 105}, {"time": 22078, "pitch": 25, "duration": 221, "velocity": 110}, {"time": 22319, "pitch": 25, "duration": 101, "velocity": 100}, {"time": 22440, "pitch": 25, "duration": 221, "velocity": 105}, {"time": 22681, "pitch": 25, "duration": 341, "velocity": 110}, {"time": 23042, "pitch": 25, "duration": 221, "velocity": 110}, {"time": 23283, "pitch": 28, "duration": 100, "velocity": 105}, {"time": 23403, "pitch": 28, "duration": 101, "velocity": 100}, {"time": 23524, "pitch": 30, "duration": 98, "velocity": 110}, {"time": 23642, "pitch": 30, "duration": 98, "velocity": 100}, {"time": 23760, "pitch": 30, "duration": 216, "velocity": 105}, {"time": 23996, "pitch": 30, "duration": 220, "velocity": 110}, {"time": 24237, "pitch": 30, "duration": 100, "velocity": 100}, {"time": 24357, "pitch": 30, "duration": 221, "velocity": 105}, {"time": 24598, "pitch": 30, "duration": 341, "velocity": 110}, {"time": 24959, "pitch": 30, "duration": 221, "velocity": 110}, {"time": 25200, "pitch": 30, "duration": 100, "velocity": 105}, {"time": 25321, "pitch": 30, "duration": 100, "velocity": 100}, {"time": 25441, "pitch": 30, "duration": 100, "velocity": 110}, {"time": 25561, "pitch": 30, "duration": 101, "velocity": 100}, {"time": 25682, "pitch": 30, "duration": 221, "velocity": 105}, {"time": 25923, "pitch": 30, "duration": 221, "velocity": 110}, {"time": 26164, "pitch": 30, "duration": 100, "velocity": 100}, {"time": 26284, "pitch": 30, "duration": 219, "velocity": 105}, {"time": 26522, "pitch": 30, "duration": 335, "velocity": 110}, {"time": 26877, "pitch": 30, "duration": 220, "velocity": 110}, {"time": 27117, "pitch": 30, "duration": 101, "velocity": 105}, {"time": 27238, "pitch": 32, "duration": 100, "velocity": 100}, {"time": 27358, "pitch": 32, "duration": 101, "velocity": 110}, {"time": 27479, "pitch": 32, "duration": 100, "velocity": 100}, {"time": 27599, "pitch": 32, "duration": 221, "velocity": 105}, {"time": 27840, "pitch": 32, "duration": 221, "velocity": 110}, {"time": 28081, "pitch": 32, "duration": 100, "velocity": 100}, {"time": 28201, "pitch": 32, "duration": 221, "velocity": 105}, {"time": 28442, "pitch": 32, "duration": 331, "velocity": 110}, {"time": 28803, "pitch": 32, "duration": 217, "velocity": 110}, {"time": 29040, "pitch": 32, "duration": 98, "velocity": 105}, {"time": 29158, "pitch": 32, "duration": 98, "velocity": 100}, {"time": 29276, "pitch": 32, "duration": 100, "velocity": 110}, {"time": 29396, "pitch": 32, "duration": 100, "velocity": 100}, {"time": 29516, "pitch": 32, "duration": 221, "velocity": 105}, {"time": 29757, "pitch": 32, "duration": 221, "velocity": 110}, {"time": 29998, "pitch": 32, "duration": 101, "velocity": 100}, {"time": 30119, "pitch": 32, "duration": 220, "velocity": 105}, {"time": 30359, "pitch": 32, "duration": 342, "velocity": 110}, {"time": 30721, "pitch": 32, "duration": 110, "velocity": 110}, {"time": 30841, "pitch": 31, "duration": 111, "velocity": 105}, {"time": 30962, "pitch": 30, "duration": 110, "velocity": 100}, {"time": 31082, "pitch": 32, "duration": 111, "velocity": 105}, {"time": 31203, "pitch": 33, "duration": 100, "velocity": 110}, {"time": 31323, "pitch": 33, "duration": 100, "velocity": 100}, {"time": 31443, "pitch": 33, "duration": 221, "velocity": 105}, {"time": 31684, "pitch": 33, "duration": 217, "velocity": 110}, {"time": 31920, "pitch": 33, "duration": 99, "velocity": 100}, {"time": 32038, "pitch": 33, "duration": 219, "velocity": 105}, {"time": 32277, "pitch": 33, "duration": 341, "velocity": 110}, {"time": 32638, "pitch": 33, "duration": 221, "velocity": 110}, {"time": 32879, "pitch": 30, "duration": 110, "velocity": 105}, {"time": 32999, "pitch": 33, "duration": 111, "velocity": 100}, {"time": 33120, "pitch": 32, "duration": 100, "velocity": 110}, {"time": 33240, "pitch": 32, "duration": 101, "velocity": 100}, {"time": 33361, "pitch": 32, "duration": 221, "velocity": 105}, {"time": 33602, "pitch": 32, "duration": 220, "velocity": 110}, {"time": 33842, "pitch": 32, "duration": 101, "velocity": 100}, {"time": 33963, "pitch": 32, "duration": 219, "velocity": 105}, {"time": 34201, "pitch": 32, "duration": 335, "velocity": 110}, {"time": 34555, "pitch": 32, "duration": 111, "velocity": 110}, {"time": 34676, "pitch": 39, "duration": 110, "velocity": 105}, {"time": 34796, "pitch": 36, "duration": 111, "velocity": 100}, {"time": 34917, "pitch": 32, "duration": 110, "velocity": 105}, {"time": 35037, "pitch": 25, "duration": 100, "velocity": 110}, {"time": 35158, "pitch": 25, "duration": 100, "velocity": 100}, {"time": 35278, "pitch": 25, "duration": 221, "velocity": 105}, {"time": 35519, "pitch": 25, "duration": 221, "velocity": 110}, {"time": 35760, "pitch": 25, "duration": 100, "velocity": 100}, {"time": 35880, "pitch": 25, "duration": 221, "velocity": 105}, {"time": 36121, "pitch": 25, "duration": 341, "velocity": 110}, {"time": 36482, "pitch": 25, "duration": 221, "velocity": 110}, {"time": 36723, "pitch": 25, "duration": 101, "velocity": 105}, {"time": 36844, "pitch": 25, "duration": 100, "velocity": 100}, {"time": 36964, "pitch": 25, "duration": 98, "velocity": 110}, {"time": 37082, "pitch": 25, "duration": 98, "velocity": 100}, {"time": 37200, "pitch": 25, "duration": 217, "velocity": 105}, {"time": 37436, "pitch": 25, "duration": 221, "velocity": 110}, {"time": 37677, "pitch": 25, "duration": 100, "velocity": 100}, {"time": 37797, "pitch": 25, "duration": 221, "velocity": 105}, {"time": 38038, "pitch": 25, "duration": 342, "velocity": 110}, {"time": 38400, "pitch": 25, "duration": 110, "velocity": 110}, {"time": 38520, "pitch": 27, "duration": 111, "velocity": 105}, {"time": 38641, "pitch": 28, "duration": 110, "velocity": 100}, {"time": 38761, "pitch": 29, "duration": 110, "velocity": 105}, {"time": 38881, "pitch": 30, "duration": 101, "velocity": 110}, {"time": 39002, "pitch": 30, "duration": 100, "velocity": 100}, {"time": 39122, "pitch": 30, "duration": 221, "velocity": 105}, {"time": 39363, "pitch": 30, "duration": 217, "velocity": 110}, {"time": 39599, "pitch": 30, "duration": 99, "velocity": 100}, {"time": 39717, "pitch": 30, "duration": 219, "velocity": 105}, {"time": 39956, "pitch": 30, "duration": 341, "velocity": 110}, {"time": 40317, "pitch": 30, "duration": 221, "velocity": 110}, {"time": 40558, "pitch": 30, "duration": 100, "velocity": 105}, {"time": 40678, "pitch": 30, "duration": 101, "velocity": 100}, {"time": 40799, "pitch": 30, "duration": 100, "velocity": 110}, {"time": 40919, "pitch": 30, "duration": 101, "velocity": 100}, {"time": 41040, "pitch": 30, "duration": 220, "velocity": 105}, {"time": 41280, "pitch": 30, "duration": 221, "velocity": 110}, {"time": 41521, "pitch": 30, "duration": 101, "velocity": 100}, {"time": 41642, "pitch": 30, "duration": 221, "velocity": 105}, {"time": 41883, "pitch": 30, "duration": 341, "velocity": 110}, {"time": 42244, "pitch": 30, "duration": 98, "velocity": 105}, {"time": 42362, "pitch": 30, "duration": 216, "velocity": 110}, {"time": 42598, "pitch": 31, "duration": 108, "velocity": 100}, {"time": 42716, "pitch": 32, "duration": 100, "velocity": 110}, {"time": 42836, "pitch": 32, "duration": 101, "velocity": 100}, {"time": 42957, "pitch": 32, "duration": 221, "velocity": 105}, {"time": 43198, "pitch": 32, "duration": 221, "velocity": 110}, {"time": 43439, "pitch": 32, "duration": 100, "velocity": 100}, {"time": 43559, "pitch": 32, "duration": 221, "velocity": 105}, {"time": 43800, "pitch": 32, "duration": 341, "velocity": 110}, {"time": 44161, "pitch": 32, "duration": 111, "velocity": 110}, {"time": 44282, "pitch": 30, "duration": 110, "velocity": 105}, {"time": 44402, "pitch": 28, "duration": 111, "velocity": 100}, {"time": 44523, "pitch": 27, "duration": 110, "velocity": 105}, {"time": 44643, "pitch": 25, "duration": 100, "velocity": 110}, {"time": 44763, "pitch": 25, "duration": 101, "velocity": 100}, {"time": 44884, "pitch": 25, "duration": 221, "velocity": 105}, {"time": 45125, "pitch": 25, "duration": 216, "velocity": 110}, {"time": 45361, "pitch": 25, "duration": 98, "velocity": 100}, {"time": 45479, "pitch": 25, "duration": 218, "velocity": 105}, {"time": 45717, "pitch": 25, "duration": 341, "velocity": 110}, {"time": 46079, "pitch": 25, "duration": 110, "velocity": 110}, {"time": 46199, "pitch": 24, "duration": 110, "velocity": 105}, {"time": 46319, "pitch": 23, "duration": 111, "velocity": 100}, {"time": 46440, "pitch": 25, "duration": 110, "velocity": 105}, {"time": 46560, "pitch": 26, "duration": 101, "velocity": 110}, {"time": 46681, "pitch": 26, "duration": 100, "velocity": 100}, {"time": 46801, "pitch": 26, "duration": 221, "velocity": 105}, {"time": 47042, "pitch": 26, "duration": 221, "velocity": 110}, {"time": 47283, "pitch": 26, "duration": 100, "velocity": 100}, {"time": 47403, "pitch": 26, "duration": 219, "velocity": 105}, {"time": 47642, "pitch": 26, "duration": 334, "velocity": 110}, {"time": 47996, "pitch": 26, "duration": 110, "velocity": 110}, {"time": 48116, "pitch": 28, "duration": 111, "velocity": 105}, {"time": 48237, "pitch": 30, "duration": 110, "velocity": 100}, {"time": 48357, "pitch": 31, "duration": 111, "velocity": 105}, {"time": 48478, "pitch": 32, "duration": 100, "velocity": 110}, {"time": 48598, "pitch": 32, "duration": 100, "velocity": 100}, {"time": 48718, "pitch": 32, "duration": 221, "velocity": 105}, {"time": 48959, "pitch": 32, "duration": 221, "velocity": 110}, {"time": 49200, "pitch": 32, "duration": 101, "velocity": 100}, {"time": 49321, "pitch": 32, "duration": 220, "velocity": 105}, {"time": 49562, "pitch": 32, "duration": 341, "velocity": 110}, {"time": 49923, "pitch": 32, "duration": 110, "velocity": 110}, {"time": 50043, "pitch": 27, "duration": 111, "velocity": 105}, {"time": 50164, "pitch": 30, "duration": 110, "velocity": 100}, {"time": 50284, "pitch": 32, "duration": 111, "velocity": 105}, {"time": 50405, "pitch": 33, "duration": 472, "velocity": 110}, {"time": 51117, "pitch": 28, "duration": 231, "velocity": 100}, {"time": 51358, "pitch": 33, "duration": 231, "velocity": 105}, {"time": 51599, "pitch": 33, "duration": 231, "velocity": 110}, {"time": 52081, "pitch": 33, "duration": 231, "velocity": 100}, {"time": 52322, "pitch": 35, "duration": 442, "velocity": 110}, {"time": 53040, "pitch": 30, "duration": 226, "velocity": 100}, {"time": 53276, "pitch": 35, "duration": 230, "velocity": 110}, {"time": 53517, "pitch": 30, "duration": 230, "velocity": 105}, {"time": 53757, "pitch": 32, "duration": 231, "velocity": 100}, {"time": 53998, "pitch": 35, "duration": 231, "velocity": 105}, {"time": 54239, "pitch": 36, "duration": 482, "velocity": 110}, {"time": 54962, "pitch": 32, "duration": 231, "velocity": 100}, {"time": 55203, "pitch": 36, "duration": 231, "velocity": 105}, {"time": 55444, "pitch": 36, "duration": 230, "velocity": 110}, {"time": 55920, "pitch": 36, "duration": 227, "velocity": 100}, {"time": 56157, "pitch": 37, "duration": 441, "velocity": 110}, {"time": 56879, "pitch": 32, "duration": 231, "velocity": 100}, {"time": 57120, "pitch": 37, "duration": 231, "velocity": 110}, {"time": 57361, "pitch": 32, "duration": 231, "velocity": 105}, {"time": 57602, "pitch": 35, "duration": 231, "velocity": 100}, {"time": 57843, "pitch": 37, "duration": 230, "velocity": 105}, {"time": 58083, "pitch": 34, "duration": 463, "velocity": 110}, {"time": 58796, "pitch": 30, "duration": 231, "velocity": 100}, {"time": 59037, "pitch": 34, "duration": 231, "velocity": 105}, {"time": 59278, "pitch": 34, "duration": 231, "velocity": 110}, {"time": 59760, "pitch": 34, "duration": 231, "velocity": 100}, {"time": 60242, "pitch": 34, "duration": 230, "velocity": 110}, {"time": 60723, "pitch": 30, "duration": 231, "velocity": 100}, {"time": 60964, "pitch": 34, "duration": 226, "velocity": 110}, {"time": 61200, "pitch": 37, "duration": 227, "velocity": 105}, {"time": 61436, "pitch": 34, "duration": 231, "velocity": 100}, {"time": 61677, "pitch": 28, "duration": 231, "velocity": 105}, {"time": 61918, "pitch": 30, "duration": 472, "velocity": 110}, {"time": 62641, "pitch": 25, "duration": 231, "velocity": 100}, {"time": 62882, "pitch": 30, "duration": 230, "velocity": 110}, {"time": 63122, "pitch": 37, "duration": 231, "velocity": 105}, {"time": 63363, "pitch": 42, "duration": 226, "velocity": 100}, {"time": 63599, "pitch": 32, "duration": 708, "velocity": 110}, {"time": 64317, "pitch": 31, "duration": 231, "velocity": 100}, {"time": 64558, "pitch": 30, "duration": 472, "velocity": 110}, {"time": 65040, "pitch": 29, "duration": 471, "velocity": 105}, {"time": 65521, "pitch": 28, "duration": 472, "velocity": 110}, {"time": 66003, "pitch": 27, "duration": 231, "velocity": 105}, {"time": 66244, "pitch": 26, "duration": 703, "velocity": 110}, {"time": 66957, "pitch": 35, "duration": 703, "velocity": 105}, {"time": 67680, "pitch": 28, "duration": 230, "velocity": 110}, {"time": 67921, "pitch": 28, "duration": 230, "velocity": 105}, {"time": 68161, "pitch": 28, "duration": 231, "velocity": 110}, {"time": 68402, "pitch": 28, "duration": 111, "velocity": 100}, {"time": 68523, "pitch": 28, "duration": 228, "velocity": 110}, {"time": 68761, "pitch": 28, "duration": 108, "velocity": 100}, {"time": 68879, "pitch": 35, "duration": 226, "velocity": 110}, {"time": 69115, "pitch": 32, "duration": 231, "velocity": 105}, {"time": 69356, "pitch": 28, "duration": 231, "velocity": 100}, {"time": 69597, "pitch": 27, "duration": 110, "velocity": 110}, {"time": 69717, "pitch": 27, "duration": 111, "velocity": 100}, {"time": 69838, "pitch": 27, "duration": 231, "velocity": 105}, {"time": 70079, "pitch": 27, "duration": 231, "velocity": 110}, {"time": 70320, "pitch": 27, "duration": 110, "velocity": 100}, {"time": 70440, "pitch": 27, "duration": 231, "velocity": 110}, {"time": 70681, "pitch": 27, "duration": 110, "velocity": 100}, {"time": 70801, "pitch": 35, "duration": 231, "velocity": 110}, {"time": 71042, "pitch": 32, "duration": 231, "velocity": 105}, {"time": 71283, "pitch": 27, "duration": 231, "velocity": 100}, {"time": 71524, "pitch": 26, "duration": 226, "velocity": 110}, {"time": 71760, "pitch": 26, "duration": 226, "velocity": 105}, {"time": 71996, "pitch": 26, "duration": 231, "velocity": 110}, {"time": 72237, "pitch": 26, "duration": 110, "velocity": 100}, {"time": 72357, "pitch": 26, "duration": 231, "velocity": 110}, {"time": 72598, "pitch": 26, "duration": 111, "velocity": 100}, {"time": 72719, "pitch": 33, "duration": 230, "velocity": 110}, {"time": 72959, "pitch": 30, "duration": 231, "velocity": 105}, {"time": 73200, "pitch": 26, "duration": 231, "velocity": 100}, {"time": 73441, "pitch": 25, "duration": 111, "velocity": 110}, {"time": 73562, "pitch": 25, "duration": 110, "velocity": 100}, {"time": 73682, "pitch": 25, "duration": 231, "velocity": 105}, {"time": 73923, "pitch": 25, "duration": 231, "velocity": 110}, {"time": 74164, "pitch": 25, "duration": 110, "velocity": 100}, {"time": 74284, "pitch": 25, "duration": 229, "velocity": 110}, {"time": 74523, "pitch": 25, "duration": 108, "velocity": 100}, {"time": 74641, "pitch": 32, "duration": 226, "velocity": 110}, {"time": 74877, "pitch": 28, "duration": 231, "velocity": 105}, {"time": 75118, "pitch": 25, "duration": 230, "velocity": 100}, {"time": 75359, "pitch": 30, "duration": 230, "velocity": 110}, {"time": 75599, "pitch": 30, "duration": 231, "velocity": 105}, {"time": 75840, "pitch": 30, "duration": 231, "velocity": 110}, {"time": 76081, "pitch": 30, "duration": 111, "velocity": 100}, {"time": 76202, "pitch": 30, "duration": 230, "velocity": 110}, {"time": 76442, "pitch": 30, "duration": 111, "velocity": 100}, {"time": 76563, "pitch": 37, "duration": 231, "velocity": 110}, {"time": 76804, "pitch": 33, "duration": 226, "velocity": 105}, {"time": 77040, "pitch": 30, "duration": 226, "velocity": 100}, {"time": 77276, "pitch": 32, "duration": 110, "velocity": 110}, {"time": 77396, "pitch": 32, "duration": 111, "velocity": 100}, {"time": 77517, "pitch": 32, "duration": 231, "velocity": 105}, {"time": 77758, "pitch": 32, "duration": 230, "velocity": 110}, {"time": 77998, "pitch": 32, "duration": 111, "velocity": 100}, {"time": 78119, "pitch": 32, "duration": 231, "velocity": 110}, {"time": 78360, "pitch": 32, "duration": 110, "velocity": 100}, {"time": 78480, "pitch": 39, "duration": 231, "velocity": 110}, {"time": 78721, "pitch": 35, "duration": 231, "velocity": 105}, {"time": 78962, "pitch": 32, "duration": 231, "velocity": 100}, {"time": 79203, "pitch": 33, "duration": 231, "velocity": 110}, {"time": 79444, "pitch": 33, "duration": 231, "velocity": 105}, {"time": 79685, "pitch": 33, "duration": 226, "velocity": 110}, {"time": 79921, "pitch": 33, "duration": 108, "velocity": 100}, {"time": 80039, "pitch": 33, "duration": 228, "velocity": 110}, {"time": 80277, "pitch": 33, "duration": 110, "velocity": 100}, {"time": 80397, "pitch": 40, "duration": 231, "velocity": 110}, {"time": 80638, "pitch": 36, "duration": 231, "velocity": 105}, {"time": 80879, "pitch": 33, "duration": 231, "velocity": 100}, {"time": 81120, "pitch": 35, "duration": 111, "velocity": 110}, {"time": 81241, "pitch": 35, "duration": 110, "velocity": 100}, {"time": 81361, "pitch": 35, "duration": 231, "velocity": 105}, {"time": 81602, "pitch": 35, "duration": 231, "velocity": 110}, {"time": 81843, "pitch": 35, "duration": 110, "velocity": 100}, {"time": 81963, "pitch": 35, "duration": 229, "velocity": 110}, {"time": 82202, "pitch": 35, "duration": 108, "velocity": 100}, {"time": 82320, "pitch": 27, "duration": 226, "velocity": 110}, {"time": 82556, "pitch": 30, "duration": 230, "velocity": 105}, {"time": 82796, "pitch": 35, "duration": 231, "velocity": 100}, {"time": 83037, "pitch": 28, "duration": 231, "velocity": 110}, {"time": 83278, "pitch": 28, "duration": 231, "velocity": 105}, {"time": 83519, "pitch": 28, "duration": 231, "velocity": 110}, {"time": 83760, "pitch": 28, "duration": 110, "velocity": 100}, {"time": 83880, "pitch": 28, "duration": 231, "velocity": 110}, {"time": 84121, "pitch": 28, "duration": 111, "velocity": 100}, {"time": 84242, "pitch": 35, "duration": 231, "velocity": 110}, {"time": 84483, "pitch": 32, "duration": 231, "velocity": 105}, {"time": 84724, "pitch": 28, "duration": 230, "velocity": 100}, {"time": 84964, "pitch": 27, "duration": 109, "velocity": 110}, {"time": 85082, "pitch": 27, "duration": 109, "velocity": 100}, {"time": 85200, "pitch": 27, "duration": 227, "velocity": 105}, {"time": 85436, "pitch": 27, "duration": 231, "velocity": 110}, {"time": 85677, "pitch": 27, "duration": 111, "velocity": 100}, {"time": 85798, "pitch": 27, "duration": 231, "velocity": 110}, {"time": 86039, "pitch": 27, "duration": 110, "velocity": 100}, {"time": 86159, "pitch": 35, "duration": 231, "velocity": 110}, {"time": 86400, "pitch": 32, "duration": 231, "velocity": 105}, {"time": 86641, "pitch": 27, "duration": 231, "velocity": 100}, {"time": 86882, "pitch": 26, "duration": 231, "velocity": 110}, {"time": 87123, "pitch": 26, "duration": 230, "velocity": 105}, {"time": 87363, "pitch": 26, "duration": 227, "velocity": 110}, {"time": 87599, "pitch": 26, "duration": 109, "velocity": 100}, {"time": 87718, "pitch": 26, "duration": 228, "velocity": 110}, {"time": 87956, "pitch": 26, "duration": 110, "velocity": 100}, {"time": 88076, "pitch": 33, "duration": 231, "velocity": 110}, {"time": 88317, "pitch": 30, "duration": 231, "velocity": 105}, {"time": 88558, "pitch": 26, "duration": 231, "velocity": 100}, {"time": 88799, "pitch": 25, "duration": 110, "velocity": 110}, {"time": 88919, "pitch": 25, "duration": 111, "velocity": 100}, {"time": 89040, "pitch": 25, "duration": 231, "velocity": 105}, {"time": 89281, "pitch": 25, "duration": 231, "velocity": 110}, {"time": 89522, "pitch": 25, "duration": 110, "velocity": 100}, {"time": 89642, "pitch": 25, "duration": 231, "velocity": 110}, {"time": 89883, "pitch": 25, "duration": 110, "velocity": 100}, {"time": 90003, "pitch": 32, "duration": 231, "velocity": 110}, {"time": 90244, "pitch": 28, "duration": 226, "velocity": 105}, {"time": 90480, "pitch": 25, "duration": 226, "velocity": 100}, {"time": 90716, "pitch": 30, "duration": 231, "velocity": 110}, {"time": 90957, "pitch": 30, "duration": 231, "velocity": 105}, {"time": 91198, "pitch": 30, "duration": 231, "velocity": 110}, {"time": 91439, "pitch": 30, "duration": 110, "velocity": 100}, {"time": 91559, "pitch": 30, "duration": 231, "velocity": 110}, {"time": 91800, "pitch": 30, "duration": 111, "velocity": 100}, {"time": 91921, "pitch": 37, "duration": 231, "velocity": 110}, {"time": 92162, "pitch": 33, "duration": 230, "velocity": 105}, {"time": 92402, "pitch": 30, "duration": 231, "velocity": 100}, {"time": 92643, "pitch": 32, "duration": 108, "velocity": 110}, {"time": 92761, "pitch": 32, "duration": 108, "velocity": 100}, {"time": 92879, "pitch": 32, "duration": 227, "velocity": 105}, {"time": 93115, "pitch": 32, "duration": 231, "velocity": 110}, {"time": 93356, "pitch": 32, "duration": 111, "velocity": 100}, {"time": 93477, "pitch": 32, "duration": 230, "velocity": 110}, {"time": 93717, "pitch": 32, "duration": 111, "velocity": 100}, {"time": 93838, "pitch": 39, "duration": 231, "velocity": 110}, {"time": 94079, "pitch": 35, "duration": 231, "velocity": 105}, {"time": 94320, "pitch": 32, "duration": 231, "velocity": 100}, {"time": 94561, "pitch": 33, "duration": 230, "velocity": 110}, {"time": 94801, "pitch": 33, "duration": 231, "velocity": 105}, {"time": 95042, "pitch": 33, "duration": 231, "velocity": 110}, {"time": 95283, "pitch": 33, "duration": 111, "velocity": 100}, {"time": 95404, "pitch": 33, "duration": 228, "velocity": 110}, {"time": 95642, "pitch": 33, "duration": 108, "velocity": 100}, {"time": 95760, "pitch": 40, "duration": 226, "velocity": 110}, {"time": 95996, "pitch": 36, "duration": 231, "velocity": 105}, {"time": 96237, "pitch": 33, "duration": 231, "velocity": 100}, {"time": 96478, "pitch": 35, "duration": 110, "velocity": 110}, {"time": 96598, "pitch": 35, "duration": 111, "velocity": 100}, {"time": 96719, "pitch": 35, "duration": 231, "velocity": 105}, {"time": 96960, "pitch": 35, "duration": 230, "velocity": 110}, {"time": 97201, "pitch": 35, "duration": 110, "velocity": 100}, {"time": 97321, "pitch": 35, "duration": 231, "velocity": 110}, {"time": 97562, "pitch": 35, "duration": 110, "velocity": 100}, {"time": 97682, "pitch": 27, "duration": 231, "velocity": 110}, {"time": 97923, "pitch": 30, "duration": 226, "velocity": 105}, {"time": 98159, "pitch": 35, "duration": 226, "velocity": 100}, {"time": 98395, "pitch": 28, "duration": 231, "velocity": 110}, {"time": 98636, "pitch": 28, "duration": 231, "velocity": 100}, {"time": 98877, "pitch": 28, "duration": 231, "velocity": 105}, {"time": 99118, "pitch": 28, "duration": 110, "velocity": 110}, {"time": 99238, "pitch": 28, "duration": 111, "velocity": 105}, {"time": 99359, "pitch": 28, "duration": 110, "velocity": 100}, {"time": 99479, "pitch": 28, "duration": 111, "velocity": 105}, {"time": 99600, "pitch": 28, "duration": 230, "velocity": 110}, {"time": 99840, "pitch": 28, "duration": 231, "velocity": 105}, {"time": 100081, "pitch": 27, "duration": 231, "velocity": 100}, {"time": 100322, "pitch": 26, "duration": 231, "velocity": 110}, {"time": 100563, "pitch": 26, "duration": 231, "velocity": 100}, {"time": 100804, "pitch": 26, "duration": 226, "velocity": 105}, {"time": 101040, "pitch": 32, "duration": 467, "velocity": 110}, {"time": 101517, "pitch": 30, "duration": 110, "velocity": 105}, {"time": 101637, "pitch": 32, "duration": 111, "velocity": 100}, {"time": 101758, "pitch": 30, "duration": 110, "velocity": 110}, {"time": 101878, "pitch": 28, "duration": 111, "velocity": 105}, {"time": 101999, "pitch": 27, "duration": 110, "velocity": 100}, {"time": 102119, "pitch": 32, "duration": 110, "velocity": 105}, {"time": 102239, "pitch": 25, "duration": 101, "velocity": 110}, {"time": 102360, "pitch": 25, "duration": 100, "velocity": 100}, {"time": 102480, "pitch": 25, "duration": 221, "velocity": 105}, {"time": 102721, "pitch": 25, "duration": 221, "velocity": 110}, {"time": 102962, "pitch": 25, "duration": 100, "velocity": 100}, {"time": 103083, "pitch": 25, "duration": 220, "velocity": 105}, {"time": 103323, "pitch": 25, "duration": 342, "velocity": 110}, {"time": 103685, "pitch": 25, "duration": 216, "velocity": 110}, {"time": 103921, "pitch": 25, "duration": 98, "velocity": 105}, {"time": 104039, "pitch": 25, "duration": 98, "velocity": 100}, {"time": 104157, "pitch": 25, "duration": 100, "velocity": 110}, {"time": 104277, "pitch": 25, "duration": 101, "velocity": 100}, {"time": 104398, "pitch": 25, "duration": 220, "velocity": 105}, {"time": 104638, "pitch": 25, "duration": 221, "velocity": 110}, {"time": 104879, "pitch": 25, "duration": 101, "velocity": 100}, {"time": 105000, "pitch": 25, "duration": 221, "velocity": 105}, {"time": 105241, "pitch": 25, "duration": 341, "velocity": 110}, {"time": 105602, "pitch": 25, "duration": 221, "velocity": 110}, {"time": 105843, "pitch": 28, "duration": 100, "velocity": 105}, {"time": 105963, "pitch": 28, "duration": 101, "velocity": 100}, {"time": 106084, "pitch": 30, "duration": 98, "velocity": 110}, {"time": 106202, "pitch": 30, "duration": 98, "velocity": 100}, {"time": 106320, "pitch": 30, "duration": 216, "velocity": 105}, {"time": 106556, "pitch": 30, "duration": 221, "velocity": 110}, {"time": 106797, "pitch": 30, "duration": 100, "velocity": 100}, {"time": 106917, "pitch": 30, "duration": 221, "velocity": 105}, {"time": 107158, "pitch": 30, "duration": 341, "velocity": 110}, {"time": 107519, "pitch": 30, "duration": 221, "velocity": 110}, {"time": 107760, "pitch": 30, "duration": 101, "velocity": 105}, {"time": 107881, "pitch": 30, "duration": 100, "velocity": 100}, {"time": 108001, "pitch": 30, "duration": 100, "velocity": 110}, {"time": 108122, "pitch": 30, "duration": 100, "velocity": 100}, {"time": 108242, "pitch": 30, "duration": 221, "velocity": 105}, {"time": 108483, "pitch": 30, "duration": 221, "velocity": 110}, {"time": 108724, "pitch": 30, "duration": 100, "velocity": 100}, {"time": 108844, "pitch": 30, "duration": 219, "velocity": 105}, {"time": 109083, "pitch": 30, "duration": 334, "velocity": 110}, {"time": 109437, "pitch": 30, "duration": 220, "velocity": 110}, {"time": 109677, "pitch": 30, "duration": 101, "velocity": 105}, {"time": 109798, "pitch": 32, "duration": 100, "velocity": 100}, {"time": 109918, "pitch": 32, "duration": 101, "velocity": 110}, {"time": 110039, "pitch": 32, "duration": 100, "velocity": 100}, {"time": 110159, "pitch": 32, "duration": 221, "velocity": 105}, {"time": 110400, "pitch": 32, "duration": 221, "velocity": 110}, {"time": 110641, "pitch": 32, "duration": 100, "velocity": 100}, {"time": 110761, "pitch": 32, "duration": 221, "velocity": 105}, {"time": 111002, "pitch": 32, "duration": 332, "velocity": 110}, {"time": 111364, "pitch": 32, "duration": 216, "velocity": 110}, {"time": 111600, "pitch": 32, "duration": 98, "velocity": 105}, {"time": 111718, "pitch": 32, "duration": 98, "velocity": 100}, {"time": 111836, "pitch": 32, "duration": 100, "velocity": 110}, {"time": 111956, "pitch": 32, "duration": 100, "velocity": 100}, {"time": 112076, "pitch": 32, "duration": 221, "velocity": 105}, {"time": 112317, "pitch": 32, "duration": 221, "velocity": 110}, {"time": 112558, "pitch": 32, "duration": 101, "velocity": 100}, {"time": 112679, "pitch": 32, "duration": 221, "velocity": 105}, {"time": 112920, "pitch": 32, "duration": 341, "velocity": 110}, {"time": 113281, "pitch": 32, "duration": 110, "velocity": 110}, {"time": 113401, "pitch": 31, "duration": 111, "velocity": 105}, {"time": 113522, "pitch": 30, "duration": 110, "velocity": 100}, {"time": 113642, "pitch": 32, "duration": 111, "velocity": 105}, {"time": 113763, "pitch": 33, "duration": 100, "velocity": 110}, {"time": 113883, "pitch": 33, "duration": 100, "velocity": 100}, {"time": 114004, "pitch": 33, "duration": 220, "velocity": 105}, {"time": 114244, "pitch": 33, "duration": 217, "velocity": 110}, {"time": 114480, "pitch": 33, "duration": 99, "velocity": 100}, {"time": 114598, "pitch": 33, "duration": 219, "velocity": 105}, {"time": 114837, "pitch": 33, "duration": 341, "velocity": 110}, {"time": 115198, "pitch": 33, "duration": 221, "velocity": 110}, {"time": 115439, "pitch": 30, "duration": 110, "velocity": 105}, {"time": 115559, "pitch": 33, "duration": 111, "velocity": 100}, {"time": 115680, "pitch": 32, "duration": 100, "velocity": 110}, {"time": 115800, "pitch": 32, "duration": 101, "velocity": 100}, {"time": 115921, "pitch": 32, "duration": 221, "velocity": 105}, {"time": 116162, "pitch": 32, "duration": 221, "velocity": 110}, {"time": 116403, "pitch": 32, "duration": 100, "velocity": 100}, {"time": 116523, "pitch": 32, "duration": 219, "velocity": 105}, {"time": 116761, "pitch": 32, "duration": 335, "velocity": 110}, {"time": 117116, "pitch": 32, "duration": 110, "velocity": 110}, {"time": 117236, "pitch": 39, "duration": 110, "velocity": 105}, {"time": 117356, "pitch": 36, "duration": 111, "velocity": 100}, {"time": 117477, "pitch": 32, "duration": 110, "velocity": 105}, {"time": 117597, "pitch": 25, "duration": 101, "velocity": 110}, {"time": 117718, "pitch": 25, "duration": 100, "velocity": 100}, {"time": 117838, "pitch": 25, "duration": 221, "velocity": 105}, {"time": 118079, "pitch": 25, "duration": 221, "velocity": 110}, {"time": 118320, "pitch": 25, "duration": 100, "velocity": 100}, {"time": 118440, "pitch": 25, "duration": 221, "velocity": 105}, {"time": 118681, "pitch": 25, "duration": 341, "velocity": 110}, {"time": 119043, "pitch": 25, "duration": 220, "velocity": 110}, {"time": 119283, "pitch": 25, "duration": 101, "velocity": 105}, {"time": 119404, "pitch": 25, "duration": 100, "velocity": 100}, {"time": 119524, "pitch": 25, "duration": 99, "velocity": 110}, {"time": 119642, "pitch": 25, "duration": 99, "velocity": 100}, {"time": 119760, "pitch": 25, "duration": 217, "velocity": 105}, {"time": 119996, "pitch": 25, "duration": 221, "velocity": 110}, {"time": 120237, "pitch": 25, "duration": 100, "velocity": 100}, {"time": 120358, "pitch": 25, "duration": 220, "velocity": 105}, {"time": 120598, "pitch": 25, "duration": 342, "velocity": 110}, {"time": 120960, "pitch": 25, "duration": 110, "velocity": 110}, {"time": 121080, "pitch": 27, "duration": 111, "velocity": 105}, {"time": 121201, "pitch": 28, "duration": 110, "velocity": 100}, {"time": 121321, "pitch": 29, "duration": 110, "velocity": 105}, {"time": 121442, "pitch": 30, "duration": 100, "velocity": 110}, {"time": 121562, "pitch": 30, "duration": 100, "velocity": 100}, {"time": 121682, "pitch": 30, "duration": 221, "velocity": 105}, {"time": 121923, "pitch": 30, "duration": 217, "velocity": 110}, {"time": 122159, "pitch": 30, "duration": 99, "velocity": 100}, {"time": 122277, "pitch": 30, "duration": 219, "velocity": 105}, {"time": 122516, "pitch": 30, "duration": 341, "velocity": 110}, {"time": 122877, "pitch": 30, "duration": 221, "velocity": 110}, {"time": 123118, "pitch": 30, "duration": 100, "velocity": 105}, {"time": 123238, "pitch": 30, "duration": 101, "velocity": 100}, {"time": 123359, "pitch": 30, "duration": 100, "velocity": 110}, {"time": 123479, "pitch": 30, "duration": 101, "velocity": 100}, {"time": 123600, "pitch": 30, "duration": 220, "velocity": 105}, {"time": 123841, "pitch": 30, "duration": 220, "velocity": 110}, {"time": 124081, "pitch": 30, "duration": 101, "velocity": 100}, {"time": 124202, "pitch": 30, "duration": 221, "velocity": 105}, {"time": 124443, "pitch": 30, "duration": 341, "velocity": 110}, {"time": 124804, "pitch": 30, "duration": 98, "velocity": 105}, {"time": 124922, "pitch": 30, "duration": 216, "velocity": 110}, {"time": 125158, "pitch": 31, "duration": 108, "velocity": 100}, {"time": 125276, "pitch": 32, "duration": 100, "velocity": 110}, {"time": 125397, "pitch": 32, "duration": 100, "velocity": 100}, {"time": 125517, "pitch": 32, "duration": 221, "velocity": 105}, {"time": 125758, "pitch": 32, "duration": 221, "velocity": 110}, {"time": 125999, "pitch": 32, "duration": 100, "velocity": 100}, {"time": 126119, "pitch": 32, "duration": 221, "velocity": 105}, {"time": 126360, "pitch": 32, "duration": 341, "velocity": 110}, {"time": 126721, "pitch": 32, "duration": 111, "velocity": 110}, {"time": 126842, "pitch": 30, "duration": 110, "velocity": 105}, {"time": 126962, "pitch": 28, "duration": 111, "velocity": 100}, {"time": 127083, "pitch": 27, "duration": 110, "velocity": 105}, {"time": 127203, "pitch": 25, "duration": 98, "velocity": 110}, {"time": 127321, "pitch": 25, "duration": 98, "velocity": 100}, {"time": 127439, "pitch": 25, "duration": 217, "velocity": 105}, {"time": 127675, "pitch": 25, "duration": 221, "velocity": 110}, {"time": 127916, "pitch": 25, "duration": 100, "velocity": 100}, {"time": 128036, "pitch": 25, "duration": 221, "velocity": 105}, {"time": 128277, "pitch": 25, "duration": 342, "velocity": 110}, {"time": 128639, "pitch": 25, "duration": 110, "velocity": 110}, {"time": 128759, "pitch": 24, "duration": 110, "velocity": 105}, {"time": 128880, "pitch": 23, "duration": 110, "velocity": 100}, {"time": 129000, "pitch": 25, "duration": 110, "velocity": 105}, {"time": 129120, "pitch": 26, "duration": 101, "velocity": 110}, {"time": 129241, "pitch": 26, "duration": 100, "velocity": 100}, {"time": 129361, "pitch": 26, "duration": 221, "velocity": 105}, {"time": 129602, "pitch": 26, "duration": 221, "velocity": 110}, {"time": 129843, "pitch": 26, "duration": 100, "velocity": 100}, {"time": 129963, "pitch": 26, "duration": 219, "velocity": 105}, {"time": 130202, "pitch": 26, "duration": 334, "velocity": 110}, {"time": 130556, "pitch": 26, "duration": 110, "velocity": 110}, {"time": 130676, "pitch": 28, "duration": 111, "velocity": 105}, {"time": 130797, "pitch": 30, "duration": 110, "velocity": 100}, {"time": 130917, "pitch": 31, "duration": 111, "velocity": 105}, {"time": 131038, "pitch": 32, "duration": 100, "velocity": 110}, {"time": 131158, "pitch": 32, "duration": 100, "velocity": 100}, {"time": 131279, "pitch": 32, "duration": 220, "velocity": 105}, {"time": 131519, "pitch": 32, "duration": 221, "velocity": 110}, {"time": 131760, "pitch": 32, "duration": 101, "velocity": 100}, {"time": 131881, "pitch": 32, "duration": 221, "velocity": 105}, {"time": 132122, "pitch": 32, "duration": 341, "velocity": 110}, {"time": 132483, "pitch": 32, "duration": 110, "velocity": 110}, {"time": 132603, "pitch": 27, "duration": 111, "velocity": 105}, {"time": 132724, "pitch": 30, "duration": 110, "velocity": 100}, {"time": 132844, "pitch": 32, "duration": 111, "velocity": 105}, {"time": 132965, "pitch": 33, "duration": 472, "velocity": 110}, {"time": 133678, "pitch": 28, "duration": 230, "velocity": 100}, {"time": 133918, "pitch": 33, "duration": 231, "velocity": 105}, {"time": 134159, "pitch": 33, "duration": 231, "velocity": 110}, {"time": 134641, "pitch": 33, "duration": 231, "velocity": 100}, {"time": 134882, "pitch": 35, "duration": 442, "velocity": 110}, {"time": 135600, "pitch": 30, "duration": 226, "velocity": 100}, {"time": 135836, "pitch": 35, "duration": 231, "velocity": 110}, {"time": 136077, "pitch": 30, "duration": 230, "velocity": 105}, {"time": 136318, "pitch": 32, "duration": 230, "velocity": 100}, {"time": 136558, "pitch": 35, "duration": 231, "velocity": 105}, {"time": 136799, "pitch": 36, "duration": 482, "velocity": 110}, {"time": 137522, "pitch": 32, "duration": 231, "velocity": 100}, {"time": 137763, "pitch": 36, "duration": 231, "velocity": 105}, {"time": 138004, "pitch": 36, "duration": 231, "velocity": 110}, {"time": 138481, "pitch": 36, "duration": 226, "velocity": 100}, {"time": 138717, "pitch": 37, "duration": 441, "velocity": 110}, {"time": 139439, "pitch": 32, "duration": 231, "velocity": 100}, {"time": 139680, "pitch": 37, "duration": 231, "velocity": 110}, {"time": 139921, "pitch": 32, "duration": 231, "velocity": 105}, {"time": 140162, "pitch": 35, "duration": 231, "velocity": 100}, {"time": 140403, "pitch": 37, "duration": 231, "velocity": 105}, {"time": 140644, "pitch": 34, "duration": 462, "velocity": 110}, {"time": 141356, "pitch": 30, "duration": 231, "velocity": 100}, {"time": 141597, "pitch": 34, "duration": 231, "velocity": 105}, {"time": 141838, "pitch": 34, "duration": 231, "velocity": 110}, {"time": 142320, "pitch": 34, "duration": 231, "velocity": 100}, {"time": 142802, "pitch": 34, "duration": 231, "velocity": 110}, {"time": 143284, "pitch": 30, "duration": 230, "velocity": 100}, {"time": 143524, "pitch": 34, "duration": 227, "velocity": 110}, {"time": 143760, "pitch": 37, "duration": 227, "velocity": 105}, {"time": 143996, "pitch": 34, "duration": 231, "velocity": 100}, {"time": 144237, "pitch": 28, "duration": 231, "velocity": 105}, {"time": 144478, "pitch": 30, "duration": 472, "velocity": 110}, {"time": 145201, "pitch": 25, "duration": 231, "velocity": 100}, {"time": 145442, "pitch": 30, "duration": 231, "velocity": 110}, {"time": 145683, "pitch": 37, "duration": 230, "velocity": 105}, {"time": 145923, "pitch": 42, "duration": 227, "velocity": 100}, {"time": 146159, "pitch": 32, "duration": 708, "velocity": 110}, {"time": 146877, "pitch": 31, "duration": 231, "velocity": 100}, {"time": 147118, "pitch": 30, "duration": 472, "velocity": 110}, {"time": 147600, "pitch": 29, "duration": 472, "velocity": 105}, {"time": 148082, "pitch": 28, "duration": 471, "velocity": 110}, {"time": 148563, "pitch": 27, "duration": 231, "velocity": 105}, {"time": 148804, "pitch": 26, "duration": 703, "velocity": 110}, {"time": 149517, "pitch": 35, "duration": 703, "velocity": 105}, {"time": 150240, "pitch": 28, "duration": 231, "velocity": 110}, {"time": 150481, "pitch": 28, "duration": 230, "velocity": 105}, {"time": 150722, "pitch": 28, "duration": 230, "velocity": 110}, {"time": 150962, "pitch": 28, "duration": 111, "velocity": 100}, {"time": 151083, "pitch": 28, "duration": 228, "velocity": 110}, {"time": 151321, "pitch": 28, "duration": 108, "velocity": 100}, {"time": 151439, "pitch": 35, "duration": 227, "velocity": 110}, {"time": 151675, "pitch": 32, "duration": 231, "velocity": 105}, {"time": 151916, "pitch": 28, "duration": 231, "velocity": 100}, {"time": 152157, "pitch": 27, "duration": 110, "velocity": 110}, {"time": 152277, "pitch": 27, "duration": 111, "velocity": 100}, {"time": 152398, "pitch": 27, "duration": 231, "velocity": 105}, {"time": 152639, "pitch": 27, "duration": 231, "velocity": 110}, {"time": 152880, "pitch": 27, "duration": 110, "velocity": 100}, {"time": 153000, "pitch": 27, "duration": 231, "velocity": 110}, {"time": 153241, "pitch": 27, "duration": 110, "velocity": 100}, {"time": 153361, "pitch": 35, "duration": 231, "velocity": 110}, {"time": 153602, "pitch": 32, "duration": 231, "velocity": 105}, {"time": 153843, "pitch": 27, "duration": 231, "velocity": 100}, {"time": 154084, "pitch": 26, "duration": 226, "velocity": 110}, {"time": 154320, "pitch": 26, "duration": 226, "velocity": 105}, {"time": 154556, "pitch": 26, "duration": 231, "velocity": 110}, {"time": 154797, "pitch": 26, "duration": 110, "velocity": 100}, {"time": 154917, "pitch": 26, "duration": 231, "velocity": 110}, {"time": 155158, "pitch": 26, "duration": 111, "velocity": 100}, {"time": 155279, "pitch": 33, "duration": 231, "velocity": 110}, {"time": 155520, "pitch": 30, "duration": 230, "velocity": 105}, {"time": 155760, "pitch": 26, "duration": 231, "velocity": 100}, {"time": 156001, "pitch": 25, "duration": 111, "velocity": 110}, {"time": 156122, "pitch": 25, "duration": 110, "velocity": 100}, {"time": 156242, "pitch": 25, "duration": 231, "velocity": 105}, {"time": 156483, "pitch": 25, "duration": 231, "velocity": 110}, {"time": 156724, "pitch": 25, "duration": 110, "velocity": 100}, {"time": 156844, "pitch": 25, "duration": 229, "velocity": 110}, {"time": 157083, "pitch": 25, "duration": 108, "velocity": 100}, {"time": 157201, "pitch": 32, "duration": 226, "velocity": 110}, {"time": 157437, "pitch": 28, "duration": 231, "velocity": 105}, {"time": 157678, "pitch": 25, "duration": 231, "velocity": 100}, {"time": 157919, "pitch": 30, "duration": 230, "velocity": 110}, {"time": 158160, "pitch": 30, "duration": 230, "velocity": 105}, {"time": 158400, "pitch": 30, "duration": 231, "velocity": 110}, {"time": 158641, "pitch": 30, "duration": 111, "velocity": 100}, {"time": 158762, "pitch": 30, "duration": 231, "velocity": 110}, {"time": 159003, "pitch": 30, "duration": 110, "velocity": 100}, {"time": 159123, "pitch": 37, "duration": 231, "velocity": 110}, {"time": 159364, "pitch": 33, "duration": 226, "velocity": 105}, {"time": 159600, "pitch": 30, "duration": 226, "velocity": 100}, {"time": 159836, "pitch": 32, "duration": 110, "velocity": 110}, {"time": 159956, "pitch": 32, "duration": 111, "velocity": 100}, {"time": 160077, "pitch": 32, "duration": 231, "velocity": 105}, {"time": 160318, "pitch": 32, "duration": 231, "velocity": 110}, {"time": 160559, "pitch": 32, "duration": 110, "velocity": 100}, {"time": 160679, "pitch": 32, "duration": 231, "velocity": 110}, {"time": 160920, "pitch": 32, "duration": 110, "velocity": 100}, {"time": 161040, "pitch": 39, "duration": 231, "velocity": 110}, {"time": 161281, "pitch": 35, "duration": 231, "velocity": 105}, {"time": 161522, "pitch": 32, "duration": 231, "velocity": 100}, {"time": 161763, "pitch": 33, "duration": 231, "velocity": 110}, {"time": 162004, "pitch": 33, "duration": 231, "velocity": 105}, {"time": 162245, "pitch": 33, "duration": 226, "velocity": 110}, {"time": 162481, "pitch": 33, "duration": 108, "velocity": 100}, {"time": 162599, "pitch": 33, "duration": 228, "velocity": 110}, {"time": 162837, "pitch": 33, "duration": 111, "velocity": 100}, {"time": 162958, "pitch": 40, "duration": 230, "velocity": 110}, {"time": 163198, "pitch": 36, "duration": 231, "velocity": 105}, {"time": 163439, "pitch": 33, "duration": 231, "velocity": 100}, {"time": 163680, "pitch": 35, "duration": 111, "velocity": 110}, {"time": 163801, "pitch": 35, "duration": 110, "velocity": 100}, {"time": 163921, "pitch": 35, "duration": 231, "velocity": 105}, {"time": 164162, "pitch": 35, "duration": 231, "velocity": 110}, {"time": 164403, "pitch": 35, "duration": 110, "velocity": 100}, {"time": 164523, "pitch": 35, "duration": 229, "velocity": 110}, {"time": 164762, "pitch": 35, "duration": 108, "velocity": 100}, {"time": 164880, "pitch": 27, "duration": 226, "velocity": 110}, {"time": 165116, "pitch": 30, "duration": 231, "velocity": 105}, {"time": 165357, "pitch": 35, "duration": 230, "velocity": 100}, {"time": 165597, "pitch": 28, "duration": 231, "velocity": 110}, {"time": 165838, "pitch": 28, "duration": 231, "velocity": 105}, {"time": 166079, "pitch": 28, "duration": 231, "velocity": 110}, {"time": 166320, "pitch": 28, "duration": 111, "velocity": 100}, {"time": 166441, "pitch": 28, "duration": 230, "velocity": 110}, {"time": 166681, "pitch": 28, "duration": 111, "velocity": 100}, {"time": 166802, "pitch": 35, "duration": 231, "velocity": 110}, {"time": 167043, "pitch": 32, "duration": 231, "velocity": 105}, {"time": 167284, "pitch": 28, "duration": 231, "velocity": 100}, {"time": 167524, "pitch": 27, "duration": 109, "velocity": 110}, {"time": 167643, "pitch": 27, "duration": 108, "velocity": 100}, {"time": 167761, "pitch": 27, "duration": 226, "velocity": 105}, {"time": 167997, "pitch": 27, "duration": 230, "velocity": 110}, {"time": 168237, "pitch": 27, "duration": 111, "velocity": 100}, {"time": 168358, "pitch": 27, "duration": 231, "velocity": 110}, {"time": 168599, "pitch": 27, "duration": 110, "velocity": 100}, {"time": 168719, "pitch": 35, "duration": 231, "velocity": 110}, {"time": 168960, "pitch": 32, "duration": 231, "velocity": 105}, {"time": 169201, "pitch": 27, "duration": 231, "velocity": 100}, {"time": 169442, "pitch": 26, "duration": 231, "velocity": 110}, {"time": 169683, "pitch": 26, "duration": 231, "velocity": 105}, {"time": 169924, "pitch": 26, "duration": 226, "velocity": 110}, {"time": 170160, "pitch": 26, "duration": 108, "velocity": 100}, {"time": 170278, "pitch": 26, "duration": 228, "velocity": 110}, {"time": 170516, "pitch": 26, "duration": 110, "velocity": 100}, {"time": 170636, "pitch": 33, "duration": 231, "velocity": 110}, {"time": 170877, "pitch": 30, "duration": 231, "velocity": 105}, {"time": 171118, "pitch": 26, "duration": 231, "velocity": 100}, {"time": 171359, "pitch": 25, "duration": 111, "velocity": 110}, {"time": 171480, "pitch": 25, "duration": 110, "velocity": 100}, {"time": 171600, "pitch": 25, "duration": 231, "velocity": 105}, {"time": 171841, "pitch": 25, "duration": 231, "velocity": 110}, {"time": 172082, "pitch": 25, "duration": 110, "velocity": 100}, {"time": 172202, "pitch": 25, "duration": 231, "velocity": 110}, {"time": 172443, "pitch": 25, "duration": 110, "velocity": 100}, {"time": 172564, "pitch": 32, "duration": 230, "velocity": 110}, {"time": 172804, "pitch": 28, "duration": 227, "velocity": 105}, {"time": 173040, "pitch": 25, "duration": 227, "velocity": 100}, {"time": 173276, "pitch": 30, "duration": 231, "velocity": 110}, {"time": 173517, "pitch": 30, "duration": 231, "velocity": 105}, {"time": 173758, "pitch": 30, "duration": 231, "velocity": 110}, {"time": 173999, "pitch": 30, "duration": 110, "velocity": 100}, {"time": 174119, "pitch": 30, "duration": 231, "velocity": 110}, {"time": 174360, "pitch": 30, "duration": 111, "velocity": 100}, {"time": 174481, "pitch": 37, "duration": 231, "velocity": 110}, {"time": 174722, "pitch": 33, "duration": 231, "velocity": 105}, {"time": 174963, "pitch": 30, "duration": 230, "velocity": 100}, {"time": 175203, "pitch": 32, "duration": 109, "velocity": 110}, {"time": 175321, "pitch": 32, "duration": 109, "velocity": 100}, {"time": 175439, "pitch": 32, "duration": 227, "velocity": 105}, {"time": 175675, "pitch": 32, "duration": 231, "velocity": 110}, {"time": 175916, "pitch": 32, "duration": 111, "velocity": 100}, {"time": 176037, "pitch": 32, "duration": 231, "velocity": 110}, {"time": 176278, "pitch": 32, "duration": 110, "velocity": 100}, {"time": 176398, "pitch": 39, "duration": 231, "velocity": 110}, {"time": 176639, "pitch": 35, "duration": 231, "velocity": 105}, {"time": 176880, "pitch": 32, "duration": 231, "velocity": 100}, {"time": 177121, "pitch": 33, "duration": 231, "velocity": 110}, {"time": 177362, "pitch": 33, "duration": 230, "velocity": 105}, {"time": 177602, "pitch": 33, "duration": 231, "velocity": 110}, {"time": 177843, "pitch": 33, "duration": 111, "velocity": 100}, {"time": 177964, "pitch": 33, "duration": 228, "velocity": 110}, {"time": 178202, "pitch": 33, "duration": 108, "velocity": 100}, {"time": 178320, "pitch": 40, "duration": 226, "velocity": 110}, {"time": 178556, "pitch": 36, "duration": 231, "velocity": 105}, {"time": 178797, "pitch": 33, "duration": 231, "velocity": 100}, {"time": 179038, "pitch": 35, "duration": 110, "velocity": 110}, {"time": 179158, "pitch": 35, "duration": 111, "velocity": 100}, {"time": 179279, "pitch": 35, "duration": 231, "velocity": 105}, {"time": 179520, "pitch": 35, "duration": 231, "velocity": 110}, {"time": 179761, "pitch": 35, "duration": 110, "velocity": 100}, {"time": 179881, "pitch": 35, "duration": 231, "velocity": 110}, {"time": 180122, "pitch": 35, "duration": 110, "velocity": 100}, {"time": 180242, "pitch": 27, "duration": 231, "velocity": 105}, {"time": 180483, "pitch": 30, "duration": 226, "velocity": 110}, {"time": 180719, "pitch": 35, "duration": 226, "velocity": 100}, {"time": 180955, "pitch": 25, "duration": 221, "velocity": 110}, {"time": 181196, "pitch": 25, "duration": 100, "velocity": 100}, {"time": 181317, "pitch": 25, "duration": 100, "velocity": 95}, {"time": 181437, "pitch": 25, "duration": 231, "velocity": 110}, {"time": 181678, "pitch": 25, "duration": 221, "velocity": 105}, {"time": 181919, "pitch": 25, "duration": 100, "velocity": 110}, {"time": 182039, "pitch": 25, "duration": 101, "velocity": 100}, {"time": 182160, "pitch": 25, "duration": 231, "velocity": 105}, {"time": 182401, "pitch": 25, "duration": 220, "velocity": 110}, {"time": 182641, "pitch": 25, "duration": 221, "velocity": 105}, {"time": 182882, "pitch": 30, "duration": 221, "velocity": 110}, {"time": 183123, "pitch": 30, "duration": 101, "velocity": 100}, {"time": 183244, "pitch": 30, "duration": 100, "velocity": 95}, {"time": 183364, "pitch": 30, "duration": 226, "velocity": 110}, {"time": 183600, "pitch": 30, "duration": 216, "velocity": 105}, {"time": 183836, "pitch": 30, "duration": 100, "velocity": 110}, {"time": 183956, "pitch": 30, "duration": 101, "velocity": 100}, {"time": 184077, "pitch": 30, "duration": 231, "velocity": 105}, {"time": 184318, "pitch": 30, "duration": 221, "velocity": 110}, {"time": 184559, "pitch": 30, "duration": 220, "velocity": 105}, {"time": 184800, "pitch": 32, "duration": 220, "velocity": 110}, {"time": 185040, "pitch": 32, "duration": 101, "velocity": 100}, {"time": 185161, "pitch": 32, "duration": 100, "velocity": 95}, {"time": 185281, "pitch": 32, "duration": 231, "velocity": 110}, {"time": 185522, "pitch": 32, "duration": 221, "velocity": 105}, {"time": 185763, "pitch": 32, "duration": 100, "velocity": 110}, {"time": 185884, "pitch": 32, "duration": 100, "velocity": 100}, {"time": 186004, "pitch": 32, "duration": 231, "velocity": 105}, {"time": 186245, "pitch": 32, "duration": 216, "velocity": 110}, {"time": 186481, "pitch": 32, "duration": 216, "velocity": 105}, {"time": 186717, "pitch": 33, "duration": 221, "velocity": 110}, {"time": 186958, "pitch": 33, "duration": 100, "velocity": 100}, {"time": 187078, "pitch": 33, "duration": 101, "velocity": 95}, {"time": 187199, "pitch": 33, "duration": 230, "velocity": 110}, {"time": 187439, "pitch": 33, "duration": 221, "velocity": 105}, {"time": 187680, "pitch": 33, "duration": 101, "velocity": 110}, {"time": 187801, "pitch": 33, "duration": 100, "velocity": 100}, {"time": 187921, "pitch": 33, "duration": 231, "velocity": 105}, {"time": 188162, "pitch": 35, "duration": 101, "velocity": 100}, {"time": 188283, "pitch": 35, "duration": 341, "velocity": 110}, {"time": 188644, "pitch": 25, "duration": 216, "velocity": 110}, {"time": 188880, "pitch": 25, "duration": 98, "velocity": 100}, {"time": 188998, "pitch": 25, "duration": 98, "velocity": 95}, {"time": 189116, "pitch": 25, "duration": 231, "velocity": 110}, {"time": 189357, "pitch": 25, "duration": 221, "velocity": 105}, {"time": 189598, "pitch": 25, "duration": 100, "velocity": 110}, {"time": 189718, "pitch": 25, "duration": 100, "velocity": 100}, {"time": 189839, "pitch": 25, "duration": 230, "velocity": 105}, {"time": 190079, "pitch": 25, "duration": 221, "velocity": 110}, {"time": 190320, "pitch": 25, "duration": 221, "velocity": 105}, {"time": 190561, "pitch": 32, "duration": 221, "velocity": 110}, {"time": 190802, "pitch": 32, "duration": 100, "velocity": 100}, {"time": 190922, "pitch": 32, "duration": 101, "velocity": 95}, {"time": 191043, "pitch": 32, "duration": 231, "velocity": 110}, {"time": 191284, "pitch": 32, "duration": 221, "velocity": 105}, {"time": 191525, "pitch": 32, "duration": 98, "velocity": 110}, {"time": 191643, "pitch": 32, "duration": 98, "velocity": 100}, {"time": 191761, "pitch": 32, "duration": 226, "velocity": 105}, {"time": 191997, "pitch": 32, "duration": 220, "velocity": 110}, {"time": 192238, "pitch": 32, "duration": 220, "velocity": 105}, {"time": 192478, "pitch": 30, "duration": 221, "velocity": 110}, {"time": 192719, "pitch": 30, "duration": 101, "velocity": 100}, {"time": 192840, "pitch": 30, "duration": 100, "velocity": 95}, {"time": 192960, "pitch": 30, "duration": 221, "velocity": 110}, {"time": 193201, "pitch": 30, "duration": 221, "velocity": 105}, {"time": 193442, "pitch": 30, "duration": 100, "velocity": 110}, {"time": 193562, "pitch": 30, "duration": 101, "velocity": 100}, {"time": 193683, "pitch": 30, "duration": 221, "velocity": 105}, {"time": 193924, "pitch": 30, "duration": 108, "velocity": 110}, {"time": 194042, "pitch": 28, "duration": 108, "velocity": 100}, {"time": 194160, "pitch": 27, "duration": 226, "velocity": 105}, {"time": 194396, "pitch": 14, "duration": 231, "velocity": 110}, {"time": 194637, "pitch": 18, "duration": 230, "velocity": 105}, {"time": 194877, "pitch": 19, "duration": 231, "velocity": 100}, {"time": 195118, "pitch": 20, "duration": 723, "velocity": 110}, {"time": 195841, "pitch": 26, "duration": 472, "velocity": 100}, {"time": 196323, "pitch": 25, "duration": 100, "velocity": 110}, {"time": 196443, "pitch": 25, "duration": 101, "velocity": 100}, {"time": 196564, "pitch": 25, "duration": 220, "velocity": 105}, {"time": 196804, "pitch": 25, "duration": 217, "velocity": 110}, {"time": 197041, "pitch": 25, "duration": 98, "velocity": 100}, {"time": 197159, "pitch": 25, "duration": 218, "velocity": 105}, {"time": 197397, "pitch": 25, "duration": 341, "velocity": 110}, {"time": 197758, "pitch": 25, "duration": 221, "velocity": 110}, {"time": 197999, "pitch": 25, "duration": 101, "velocity": 105}, {"time": 198120, "pitch": 25, "duration": 100, "velocity": 100}, {"time": 198240, "pitch": 25, "duration": 100, "velocity": 110}, {"time": 198360, "pitch": 25, "duration": 101, "velocity": 100}, {"time": 198481, "pitch": 25, "duration": 221, "velocity": 105}, {"time": 198722, "pitch": 25, "duration": 221, "velocity": 110}, {"time": 198963, "pitch": 25, "duration": 100, "velocity": 100}, {"time": 199083, "pitch": 25, "duration": 219, "velocity": 105}, {"time": 199322, "pitch": 25, "duration": 334, "velocity": 110}, {"time": 199676, "pitch": 25, "duration": 220, "velocity": 110}, {"time": 199916, "pitch": 28, "duration": 101, "velocity": 105}, {"time": 200037, "pitch": 28, "duration": 100, "velocity": 100}, {"time": 200157, "pitch": 30, "duration": 101, "velocity": 110}, {"time": 200278, "pitch": 30, "duration": 100, "velocity": 100}, {"time": 200398, "pitch": 30, "duration": 221, "velocity": 105}, {"time": 200639, "pitch": 30, "duration": 221, "velocity": 110}, {"time": 200880, "pitch": 30, "duration": 100, "velocity": 100}, {"time": 201000, "pitch": 30, "duration": 221, "velocity": 105}, {"time": 201241, "pitch": 30, "duration": 342, "velocity": 110}, {"time": 201603, "pitch": 30, "duration": 220, "velocity": 110}, {"time": 201843, "pitch": 30, "duration": 101, "velocity": 105}, {"time": 201964, "pitch": 30, "duration": 100, "velocity": 100}, {"time": 202084, "pitch": 30, "duration": 99, "velocity": 110}, {"time": 202202, "pitch": 30, "duration": 99, "velocity": 100}, {"time": 202320, "pitch": 30, "duration": 217, "velocity": 105}, {"time": 202556, "pitch": 30, "duration": 221, "velocity": 110}, {"time": 202797, "pitch": 30, "duration": 101, "velocity": 100}, {"time": 202918, "pitch": 30, "duration": 220, "velocity": 105}, {"time": 203159, "pitch": 30, "duration": 341, "velocity": 110}, {"time": 203520, "pitch": 30, "duration": 221, "velocity": 110}, {"time": 203761, "pitch": 30, "duration": 100, "velocity": 105}, {"time": 203881, "pitch": 32, "duration": 101, "velocity": 100}, {"time": 204002, "pitch": 32, "duration": 100, "velocity": 110}, {"time": 204122, "pitch": 32, "duration": 100, "velocity": 100}, {"time": 204243, "pitch": 32, "duration": 220, "velocity": 105}, {"time": 204483, "pitch": 32, "duration": 217, "velocity": 110}, {"time": 204719, "pitch": 32, "duration": 99, "velocity": 100}, {"time": 204837, "pitch": 32, "duration": 219, "velocity": 105}, {"time": 205076, "pitch": 32, "duration": 331, "velocity": 110}, {"time": 205437, "pitch": 32, "duration": 221, "velocity": 110}, {"time": 205678, "pitch": 32, "duration": 100, "velocity": 105}, {"time": 205798, "pitch": 32, "duration": 101, "velocity": 100}, {"time": 205919, "pitch": 32, "duration": 100, "velocity": 110}, {"time": 206039, "pitch": 32, "duration": 101, "velocity": 100}, {"time": 206160, "pitch": 32, "duration": 221, "velocity": 105}, {"time": 206401, "pitch": 32, "duration": 220, "velocity": 110}, {"time": 206642, "pitch": 32, "duration": 100, "velocity": 100}, {"time": 206762, "pitch": 32, "duration": 221, "velocity": 105}, {"time": 207003, "pitch": 32, "duration": 341, "velocity": 110}, {"time": 207364, "pitch": 32, "duration": 108, "velocity": 110}, {"time": 207482, "pitch": 31, "duration": 108, "velocity": 105}, {"time": 207600, "pitch": 30, "duration": 108, "velocity": 100}, {"time": 207718, "pitch": 32, "duration": 108, "velocity": 105}, {"time": 207836, "pitch": 33, "duration": 101, "velocity": 110}, {"time": 207957, "pitch": 33, "duration": 100, "velocity": 100}, {"time": 208077, "pitch": 33, "duration": 221, "velocity": 105}, {"time": 208318, "pitch": 33, "duration": 221, "velocity": 110}, {"time": 208559, "pitch": 33, "duration": 100, "velocity": 100}, {"time": 208679, "pitch": 33, "duration": 221, "velocity": 105}, {"time": 208920, "pitch": 33, "duration": 341, "velocity": 110}, {"time": 209281, "pitch": 33, "duration": 221, "velocity": 110}, {"time": 209522, "pitch": 30, "duration": 111, "velocity": 105}, {"time": 209643, "pitch": 33, "duration": 110, "velocity": 100}, {"time": 209763, "pitch": 32, "duration": 99, "velocity": 110}, {"time": 209881, "pitch": 32, "duration": 99, "velocity": 100}, {"time": 209999, "pitch": 32, "duration": 217, "velocity": 105}, {"time": 210235, "pitch": 32, "duration": 221, "velocity": 110}, {"time": 210476, "pitch": 32, "duration": 100, "velocity": 100}, {"time": 210597, "pitch": 32, "duration": 220, "velocity": 105}, {"time": 210837, "pitch": 32, "duration": 342, "velocity": 110}, {"time": 211199, "pitch": 32, "duration": 110, "velocity": 110}, {"time": 211319, "pitch": 39, "duration": 111, "velocity": 105}, {"time": 211440, "pitch": 36, "duration": 110, "velocity": 100}, {"time": 211560, "pitch": 32, "duration": 110, "velocity": 105}, {"time": 211681, "pitch": 25, "duration": 100, "velocity": 110}, {"time": 211801, "pitch": 25, "duration": 100, "velocity": 100}, {"time": 211921, "pitch": 25, "duration": 221, "velocity": 105}, {"time": 212162, "pitch": 25, "duration": 221, "velocity": 110}, {"time": 212403, "pitch": 25, "duration": 101, "velocity": 100}, {"time": 212524, "pitch": 25, "duration": 218, "velocity": 105}, {"time": 212762, "pitch": 25, "duration": 334, "velocity": 110}, {"time": 213116, "pitch": 25, "duration": 221, "velocity": 110}, {"time": 213357, "pitch": 25, "duration": 100, "velocity": 105}, {"time": 213477, "pitch": 25, "duration": 101, "velocity": 100}, {"time": 213598, "pitch": 25, "duration": 100, "velocity": 110}, {"time": 213718, "pitch": 25, "duration": 101, "velocity": 100}, {"time": 213839, "pitch": 25, "duration": 220, "velocity": 105}, {"time": 214080, "pitch": 25, "duration": 220, "velocity": 110}, {"time": 214320, "pitch": 25, "duration": 101, "velocity": 100}, {"time": 214441, "pitch": 25, "duration": 221, "velocity": 105}, {"time": 214682, "pitch": 25, "duration": 341, "velocity": 110}, {"time": 215043, "pitch": 25, "duration": 110, "velocity": 110}, {"time": 215164, "pitch": 27, "duration": 110, "velocity": 105}, {"time": 215284, "pitch": 28, "duration": 110, "velocity": 100}, {"time": 215404, "pitch": 29, "duration": 111, "velocity": 105}, {"time": 215525, "pitch": 30, "duration": 98, "velocity": 110}, {"time": 215643, "pitch": 30, "duration": 98, "velocity": 100}, {"time": 215761, "pitch": 30, "duration": 216, "velocity": 105}, {"time": 215997, "pitch": 30, "duration": 221, "velocity": 110}, {"time": 216238, "pitch": 30, "duration": 100, "velocity": 100}, {"time": 216358, "pitch": 30, "duration": 221, "velocity": 105}, {"time": 216599, "pitch": 30, "duration": 341, "velocity": 110}, {"time": 216960, "pitch": 30, "duration": 221, "velocity": 110}, {"time": 217201, "pitch": 30, "duration": 101, "velocity": 105}, {"time": 217322, "pitch": 30, "duration": 100, "velocity": 100}, {"time": 217442, "pitch": 30, "duration": 100, "velocity": 110}, {"time": 217563, "pitch": 30, "duration": 100, "velocity": 100}, {"time": 217683, "pitch": 30, "duration": 221, "velocity": 105}, {"time": 217924, "pitch": 30, "duration": 216, "velocity": 110}, {"time": 218160, "pitch": 30, "duration": 98, "velocity": 100}, {"time": 218278, "pitch": 30, "duration": 218, "velocity": 105}, {"time": 218516, "pitch": 30, "duration": 342, "velocity": 110}, {"time": 218878, "pitch": 30, "duration": 100, "velocity": 105}, {"time": 218998, "pitch": 30, "duration": 221, "velocity": 110}, {"time": 219239, "pitch": 31, "duration": 110, "velocity": 100}, {"time": 219359, "pitch": 32, "duration": 101, "velocity": 110}, {"time": 219480, "pitch": 32, "duration": 100, "velocity": 100}, {"time": 219600, "pitch": 32, "duration": 221, "velocity": 105}, {"time": 219841, "pitch": 32, "duration": 221, "velocity": 110}, {"time": 220082, "pitch": 32, "duration": 100, "velocity": 100}, {"time": 220202, "pitch": 32, "duration": 221, "velocity": 105}, {"time": 220443, "pitch": 32, "duration": 342, "velocity": 110}, {"time": 220805, "pitch": 32, "duration": 108, "velocity": 110}, {"time": 220923, "pitch": 30, "duration": 108, "velocity": 105}, {"time": 221041, "pitch": 28, "duration": 108, "velocity": 100}, {"time": 221159, "pitch": 27, "duration": 108, "velocity": 105}, {"time": 221277, "pitch": 25, "duration": 100, "velocity": 110}, {"time": 221397, "pitch": 25, "duration": 100, "velocity": 100}, {"time": 221518, "pitch": 25, "duration": 220, "velocity": 105}, {"time": 221758, "pitch": 25, "duration": 221, "velocity": 110}, {"time": 221999, "pitch": 25, "duration": 101, "velocity": 100}, {"time": 222120, "pitch": 25, "duration": 221, "velocity": 105}, {"time": 222361, "pitch": 25, "duration": 341, "velocity": 110}, {"time": 222722, "pitch": 25, "duration": 110, "velocity": 110}, {"time": 222842, "pitch": 24, "duration": 111, "velocity": 105}, {"time": 222963, "pitch": 23, "duration": 110, "velocity": 100}, {"time": 223083, "pitch": 25, "duration": 111, "velocity": 105}, {"time": 223204, "pitch": 26, "duration": 98, "velocity": 110}, {"time": 223322, "pitch": 26, "duration": 98, "velocity": 100}, {"time": 223440, "pitch": 26, "duration": 216, "velocity": 105}, {"time": 223676, "pitch": 26, "duration": 221, "velocity": 110}, {"time": 223917, "pitch": 26, "duration": 100, "velocity": 100}, {"time": 224037, "pitch": 26, "duration": 221, "velocity": 110}, {"time": 224278, "pitch": 26, "duration": 341, "velocity": 105}, {"time": 224639, "pitch": 28, "duration": 111, "velocity": 110}, {"time": 224760, "pitch": 31, "duration": 110, "velocity": 105}, {"time": 224880, "pitch": 32, "duration": 713, "velocity": 110}, {"time": 225603, "pitch": 31, "duration": 231, "velocity": 100}, {"time": 225844, "pitch": 30, "duration": 467, "velocity": 105}, {"time": 226321, "pitch": 29, "duration": 466, "velocity": 100}, {"time": 226797, "pitch": 28, "duration": 472, "velocity": 110}, {"time": 227279, "pitch": 27, "duration": 231, "velocity": 105}, {"time": 227520, "pitch": 26, "duration": 713, "velocity": 110}, {"time": 228243, "pitch": 35, "duration": 693, "velocity": 100}, {"time": 228956, "pitch": 28, "duration": 230, "velocity": 110}, {"time": 229196, "pitch": 28, "duration": 231, "velocity": 105}, {"time": 229437, "pitch": 28, "duration": 231, "velocity": 110}, {"time": 229678, "pitch": 28, "duration": 111, "velocity": 100}, {"time": 229799, "pitch": 28, "duration": 230, "velocity": 110}, {"time": 230040, "pitch": 28, "duration": 110, "velocity": 100}, {"time": 230160, "pitch": 35, "duration": 231, "velocity": 110}, {"time": 230401, "pitch": 32, "duration": 231, "velocity": 105}, {"time": 230642, "pitch": 28, "duration": 231, "velocity": 100}, {"time": 230883, "pitch": 27, "duration": 110, "velocity": 110}, {"time": 231003, "pitch": 27, "duration": 110, "velocity": 100}, {"time": 231123, "pitch": 27, "duration": 231, "velocity": 105}, {"time": 231364, "pitch": 27, "duration": 227, "velocity": 110}, {"time": 231600, "pitch": 27, "duration": 109, "velocity": 100}, {"time": 231718, "pitch": 27, "duration": 229, "velocity": 110}, {"time": 231957, "pitch": 27, "duration": 110, "velocity": 100}, {"time": 232077, "pitch": 35, "duration": 231, "velocity": 110}, {"time": 232318, "pitch": 32, "duration": 231, "velocity": 105}, {"time": 232559, "pitch": 27, "duration": 231, "velocity": 100}, {"time": 232800, "pitch": 26, "duration": 231, "velocity": 110}, {"time": 233041, "pitch": 26, "duration": 231, "velocity": 105}, {"time": 233282, "pitch": 26, "duration": 230, "velocity": 110}, {"time": 233523, "pitch": 26, "duration": 110, "velocity": 100}, {"time": 233643, "pitch": 26, "duration": 229, "velocity": 110}, {"time": 233881, "pitch": 26, "duration": 109, "velocity": 100}, {"time": 233999, "pitch": 33, "duration": 227, "velocity": 110}, {"time": 234235, "pitch": 30, "duration": 231, "velocity": 105}, {"time": 234476, "pitch": 26, "duration": 231, "velocity": 100}, {"time": 234717, "pitch": 25, "duration": 111, "velocity": 110}, {"time": 234838, "pitch": 25, "duration": 110, "velocity": 100}, {"time": 234958, "pitch": 25, "duration": 231, "velocity": 105}, {"time": 235199, "pitch": 25, "duration": 231, "velocity": 110}, {"time": 235440, "pitch": 25, "duration": 110, "velocity": 100}, {"time": 235560, "pitch": 25, "duration": 231, "velocity": 110}, {"time": 235801, "pitch": 25, "duration": 111, "velocity": 100}, {"time": 235922, "pitch": 32, "duration": 230, "velocity": 110}, {"time": 236162, "pitch": 28, "duration": 231, "velocity": 105}, {"time": 236403, "pitch": 25, "duration": 231, "velocity": 100}, {"time": 236644, "pitch": 30, "duration": 226, "velocity": 110}, {"time": 236880, "pitch": 30, "duration": 226, "velocity": 105}, {"time": 237116, "pitch": 30, "duration": 231, "velocity": 110}, {"time": 237357, "pitch": 30, "duration": 110, "velocity": 100}, {"time": 237477, "pitch": 30, "duration": 231, "velocity": 110}, {"time": 237718, "pitch": 30, "duration": 111, "velocity": 100}, {"time": 237839, "pitch": 37, "duration": 231, "velocity": 110}, {"time": 238080, "pitch": 33, "duration": 231, "velocity": 105}, {"time": 238321, "pitch": 30, "duration": 230, "velocity": 100}, {"time": 238561, "pitch": 32, "duration": 111, "velocity": 110}, {"time": 238682, "pitch": 32, "duration": 110, "velocity": 100}, {"time": 238802, "pitch": 32, "duration": 231, "velocity": 105}, {"time": 239043, "pitch": 32, "duration": 226, "velocity": 110}, {"time": 239279, "pitch": 32, "duration": 108, "velocity": 100}, {"time": 239397, "pitch": 32, "duration": 229, "velocity": 110}, {"time": 239636, "pitch": 32, "duration": 110, "velocity": 100}, {"time": 239756, "pitch": 39, "duration": 231, "velocity": 110}, {"time": 239997, "pitch": 35, "duration": 231, "velocity": 105}, {"time": 240238, "pitch": 32, "duration": 231, "velocity": 100}, {"time": 240479, "pitch": 33, "duration": 231, "velocity": 110}, {"time": 240720, "pitch": 33, "duration": 230, "velocity": 105}, {"time": 240961, "pitch": 33, "duration": 230, "velocity": 110}, {"time": 241201, "pitch": 33, "duration": 111, "velocity": 100}, {"time": 241322, "pitch": 33, "duration": 231, "velocity": 110}, {"time": 241563, "pitch": 33, "duration": 110, "velocity": 100}, {"time": 241683, "pitch": 40, "duration": 231, "velocity": 110}, {"time": 241924, "pitch": 36, "duration": 226, "velocity": 105}, {"time": 242160, "pitch": 33, "duration": 226, "velocity": 100}, {"time": 242396, "pitch": 35, "duration": 110, "velocity": 110}, {"time": 242516, "pitch": 35, "duration": 111, "velocity": 100}, {"time": 242637, "pitch": 35, "duration": 231, "velocity": 105}, {"time": 242878, "pitch": 35, "duration": 231, "velocity": 110}, {"time": 243119, "pitch": 35, "duration": 110, "velocity": 100}, {"time": 243239, "pitch": 35, "duration": 231, "velocity": 110}, {"time": 243480, "pitch": 35, "duration": 110, "velocity": 100}, {"time": 243600, "pitch": 27, "duration": 231, "velocity": 110}, {"time": 243841, "pitch": 30, "duration": 231, "velocity": 105}, {"time": 244082, "pitch": 35, "duration": 231, "velocity": 100}, {"time": 244323, "pitch": 28, "duration": 231, "velocity": 110}, {"time": 244564, "pitch": 28, "duration": 231, "velocity": 105}, {"time": 244805, "pitch": 28, "duration": 226, "velocity": 110}, {"time": 245041, "pitch": 28, "duration": 108, "velocity": 100}, {"time": 245159, "pitch": 28, "duration": 228, "velocity": 110}, {"time": 245397, "pitch": 28, "duration": 111, "velocity": 100}, {"time": 245518, "pitch": 35, "duration": 231, "velocity": 110}, {"time": 245759, "pitch": 32, "duration": 230, "velocity": 105}, {"time": 245999, "pitch": 28, "duration": 231, "velocity": 100}, {"time": 246240, "pitch": 27, "duration": 111, "velocity": 110}, {"time": 246361, "pitch": 27, "duration": 110, "velocity": 100}, {"time": 246481, "pitch": 27, "duration": 231, "velocity": 105}, {"time": 246722, "pitch": 27, "duration": 231, "velocity": 110}, {"time": 246963, "pitch": 27, "duration": 110, "velocity": 100}, {"time": 247083, "pitch": 27, "duration": 229, "velocity": 110}, {"time": 247322, "pitch": 27, "duration": 108, "velocity": 100}, {"time": 247440, "pitch": 35, "duration": 226, "velocity": 110}, {"time": 247676, "pitch": 32, "duration": 231, "velocity": 105}, {"time": 247917, "pitch": 27, "duration": 231, "velocity": 100}, {"time": 248158, "pitch": 26, "duration": 230, "velocity": 110}, {"time": 248398, "pitch": 26, "duration": 231, "velocity": 105}, {"time": 248639, "pitch": 26, "duration": 231, "velocity": 110}, {"time": 248880, "pitch": 26, "duration": 111, "velocity": 100}, {"time": 249001, "pitch": 26, "duration": 231, "velocity": 110}, {"time": 249242, "pitch": 26, "duration": 110, "velocity": 100}, {"time": 249362, "pitch": 33, "duration": 231, "velocity": 110}, {"time": 249603, "pitch": 30, "duration": 231, "velocity": 105}, {"time": 249844, "pitch": 26, "duration": 231, "velocity": 100}, {"time": 250085, "pitch": 25, "duration": 108, "velocity": 110}, {"time": 250203, "pitch": 25, "duration": 108, "velocity": 100}, {"time": 250321, "pitch": 25, "duration": 226, "velocity": 105}, {"time": 250557, "pitch": 25, "duration": 230, "velocity": 110}, {"time": 250798, "pitch": 25, "duration": 110, "velocity": 100}, {"time": 250918, "pitch": 25, "duration": 231, "velocity": 110}, {"time": 251159, "pitch": 25, "duration": 110, "velocity": 100}, {"time": 251279, "pitch": 32, "duration": 231, "velocity": 110}, {"time": 251520, "pitch": 28, "duration": 231, "velocity": 105}, {"time": 251761, "pitch": 25, "duration": 231, "velocity": 100}, {"time": 252002, "pitch": 30, "duration": 231, "velocity": 110}, {"time": 252243, "pitch": 30, "duration": 231, "velocity": 105}, {"time": 252484, "pitch": 30, "duration": 226, "velocity": 110}, {"time": 252720, "pitch": 30, "duration": 108, "velocity": 100}, {"time": 252838, "pitch": 30, "duration": 228, "velocity": 110}, {"time": 253076, "pitch": 30, "duration": 111, "velocity": 100}, {"time": 253197, "pitch": 37, "duration": 230, "velocity": 110}, {"time": 253437, "pitch": 33, "duration": 231, "velocity": 105}, {"time": 253678, "pitch": 30, "duration": 231, "velocity": 100}, {"time": 253919, "pitch": 32, "duration": 111, "velocity": 110}, {"time": 254040, "pitch": 32, "duration": 110, "velocity": 100}, {"time": 254160, "pitch": 32, "duration": 231, "velocity": 105}, {"time": 254401, "pitch": 32, "duration": 231, "velocity": 110}, {"time": 254642, "pitch": 32, "duration": 110, "velocity": 100}, {"time": 254762, "pitch": 32, "duration": 231, "velocity": 110}, {"time": 255003, "pitch": 32, "duration": 111, "velocity": 100}, {"time": 255124, "pitch": 39, "duration": 230, "velocity": 110}, {"time": 255364, "pitch": 35, "duration": 227, "velocity": 105}, {"time": 255600, "pitch": 32, "duration": 227, "velocity": 100}, {"time": 255837, "pitch": 33, "duration": 230, "velocity": 110}, {"time": 256077, "pitch": 33, "duration": 231, "velocity": 105}, {"time": 256318, "pitch": 33, "duration": 231, "velocity": 110}, {"time": 256559, "pitch": 33, "duration": 111, "velocity": 100}, {"time": 256680, "pitch": 33, "duration": 230, "velocity": 110}, {"time": 256920, "pitch": 33, "duration": 111, "velocity": 100}, {"time": 257041, "pitch": 40, "duration": 231, "velocity": 110}, {"time": 257282, "pitch": 36, "duration": 231, "velocity": 105}, {"time": 257523, "pitch": 33, "duration": 231, "velocity": 100}, {"time": 257763, "pitch": 35, "duration": 109, "velocity": 110}, {"time": 257882, "pitch": 35, "duration": 108, "velocity": 100}, {"time": 258000, "pitch": 35, "duration": 226, "velocity": 105}, {"time": 258236, "pitch": 35, "duration": 230, "velocity": 110}, {"time": 258476, "pitch": 35, "duration": 111, "velocity": 100}, {"time": 258597, "pitch": 35, "duration": 231, "velocity": 110}, {"time": 258838, "pitch": 35, "duration": 110, "velocity": 100}, {"time": 258958, "pitch": 27, "duration": 231, "velocity": 110}, {"time": 259199, "pitch": 30, "duration": 231, "velocity": 105}, {"time": 259440, "pitch": 35, "duration": 231, "velocity": 100}, {"time": 259681, "pitch": 25, "duration": 221, "velocity": 110}, {"time": 259922, "pitch": 25, "duration": 100, "velocity": 100}, {"time": 260042, "pitch": 25, "duration": 101, "velocity": 95}, {"time": 260163, "pitch": 25, "duration": 230, "velocity": 110}, {"time": 260403, "pitch": 25, "duration": 221, "velocity": 105}, {"time": 260644, "pitch": 25, "duration": 99, "velocity": 110}, {"time": 260762, "pitch": 25, "duration": 99, "velocity": 100}, {"time": 260880, "pitch": 25, "duration": 227, "velocity": 105}, {"time": 261116, "pitch": 25, "duration": 221, "velocity": 110}, {"time": 261357, "pitch": 25, "duration": 221, "velocity": 105}, {"time": 261598, "pitch": 30, "duration": 221, "velocity": 110}, {"time": 261839, "pitch": 30, "duration": 100, "velocity": 100}, {"time": 261959, "pitch": 30, "duration": 101, "velocity": 95}, {"time": 262080, "pitch": 30, "duration": 231, "velocity": 110}, {"time": 262321, "pitch": 30, "duration": 221, "velocity": 105}, {"time": 262562, "pitch": 30, "duration": 100, "velocity": 110}, {"time": 262682, "pitch": 30, "duration": 100, "velocity": 100}, {"time": 262802, "pitch": 30, "duration": 231, "velocity": 105}, {"time": 263043, "pitch": 30, "duration": 217, "velocity": 110}, {"time": 263279, "pitch": 30, "duration": 217, "velocity": 105}, {"time": 263515, "pitch": 32, "duration": 221, "velocity": 110}, {"time": 263756, "pitch": 32, "duration": 101, "velocity": 100}, {"time": 263877, "pitch": 32, "duration": 100, "velocity": 95}, {"time": 263997, "pitch": 32, "duration": 231, "velocity": 110}, {"time": 264238, "pitch": 32, "duration": 221, "velocity": 105}, {"time": 264479, "pitch": 32, "duration": 100, "velocity": 110}, {"time": 264599, "pitch": 32, "duration": 101, "velocity": 100}, {"time": 264720, "pitch": 32, "duration": 231, "velocity": 105}, {"time": 264961, "pitch": 32, "duration": 220, "velocity": 110}, {"time": 265202, "pitch": 32, "duration": 220, "velocity": 105}, {"time": 265442, "pitch": 33, "duration": 221, "velocity": 110}, {"time": 265683, "pitch": 33, "duration": 101, "velocity": 100}, {"time": 265804, "pitch": 33, "duration": 100, "velocity": 95}, {"time": 265924, "pitch": 33, "duration": 226, "velocity": 110}, {"time": 266160, "pitch": 33, "duration": 217, "velocity": 105}, {"time": 266396, "pitch": 33, "duration": 101, "velocity": 110}, {"time": 266517, "pitch": 33, "duration": 100, "velocity": 100}, {"time": 266637, "pitch": 33, "duration": 231, "velocity": 105}, {"time": 266878, "pitch": 35, "duration": 100, "velocity": 100}, {"time": 266998, "pitch": 35, "duration": 342, "velocity": 110}, {"time": 267360, "pitch": 25, "duration": 220, "velocity": 110}, {"time": 267601, "pitch": 25, "duration": 100, "velocity": 100}, {"time": 267721, "pitch": 25, "duration": 100, "velocity": 95}, {"time": 267841, "pitch": 25, "duration": 231, "velocity": 110}, {"time": 268082, "pitch": 25, "duration": 221, "velocity": 105}, {"time": 268323, "pitch": 25, "duration": 99, "velocity": 110}, {"time": 268441, "pitch": 25, "duration": 99, "velocity": 100}, {"time": 268559, "pitch": 25, "duration": 226, "velocity": 105}, {"time": 268795, "pitch": 25, "duration": 221, "velocity": 110}, {"time": 269036, "pitch": 25, "duration": 221, "velocity": 105}, {"time": 269277, "pitch": 32, "duration": 221, "velocity": 110}, {"time": 269518, "pitch": 32, "duration": 100, "velocity": 100}, {"time": 269638, "pitch": 32, "duration": 101, "velocity": 95}, {"time": 269759, "pitch": 32, "duration": 231, "velocity": 110}, {"time": 270000, "pitch": 32, "duration": 220, "velocity": 105}, {"time": 270240, "pitch": 32, "duration": 101, "velocity": 110}, {"time": 270361, "pitch": 32, "duration": 100, "velocity": 100}, {"time": 270481, "pitch": 32, "duration": 231, "velocity": 105}, {"time": 270722, "pitch": 32, "duration": 221, "velocity": 110}, {"time": 270963, "pitch": 32, "duration": 221, "velocity": 105}, {"time": 271204, "pitch": 30, "duration": 216, "velocity": 110}, {"time": 271440, "pitch": 30, "duration": 98, "velocity": 100}, {"time": 271558, "pitch": 30, "duration": 98, "velocity": 95}, {"time": 271676, "pitch": 30, "duration": 221, "velocity": 110}, {"time": 271917, "pitch": 30, "duration": 221, "velocity": 105}, {"time": 272158, "pitch": 30, "duration": 100, "velocity": 110}, {"time": 272278, "pitch": 30, "duration": 101, "velocity": 100}, {"time": 272399, "pitch": 30, "duration": 220, "velocity": 105}, {"time": 272640, "pitch": 30, "duration": 110, "velocity": 110}, {"time": 272760, "pitch": 28, "duration": 110, "velocity": 100}, {"time": 272880, "pitch": 27, "duration": 231, "velocity": 105}, {"time": 273121, "pitch": 14, "duration": 231, "velocity": 110}, {"time": 273362, "pitch": 18, "duration": 231, "velocity": 105}, {"time": 273603, "pitch": 19, "duration": 231, "velocity": 100}, {"time": 273844, "pitch": 20, "duration": 713, "velocity": 110}, {"time": 274557, "pitch": 26, "duration": 472, "velocity": 100}, {"time": 275039, "pitch": 33, "duration": 7668, "velocity": 110}, {"time": 4081, "pitch": 73, "duration": 110, "velocity": 120}, {"time": 4081, "pitch": 85, "duration": 110, "velocity": 120}, {"time": 4081, "pitch": 97, "duration": 110, "velocity": 110}, {"time": 4322, "pitch": 80, "duration": 110, "velocity": 120}, {"time": 4322, "pitch": 92, "duration": 110, "velocity": 120}, {"time": 4322, "pitch": 104, "duration": 110, "velocity": 110}, {"time": 4803, "pitch": 78, "duration": 108, "velocity": 120}, {"time": 4803, "pitch": 90, "duration": 108, "velocity": 120}, {"time": 4803, "pitch": 102, "duration": 108, "velocity": 110}, {"time": 5039, "pitch": 76, "duration": 109, "velocity": 120}, {"time": 5039, "pitch": 88, "duration": 109, "velocity": 120}, {"time": 5039, "pitch": 100, "duration": 109, "velocity": 110}, {"time": 5516, "pitch": 78, "duration": 111, "velocity": 120}, {"time": 5516, "pitch": 90, "duration": 111, "velocity": 120}, {"time": 5516, "pitch": 102, "duration": 111, "velocity": 110}, {"time": 5998, "pitch": 80, "duration": 110, "velocity": 120}, {"time": 5998, "pitch": 92, "duration": 110, "velocity": 120}, {"time": 5998, "pitch": 104, "duration": 110, "velocity": 110}, {"time": 6480, "pitch": 73, "duration": 110, "velocity": 120}, {"time": 6480, "pitch": 85, "duration": 110, "velocity": 120}, {"time": 6480, "pitch": 97, "duration": 110, "velocity": 110}, {"time": 7920, "pitch": 75, "duration": 108, "velocity": 120}, {"time": 7920, "pitch": 87, "duration": 108, "velocity": 120}, {"time": 7920, "pitch": 99, "duration": 108, "velocity": 110}, {"time": 8156, "pitch": 83, "duration": 111, "velocity": 120}, {"time": 8156, "pitch": 95, "duration": 111, "velocity": 120}, {"time": 8156, "pitch": 107, "duration": 111, "velocity": 110}, {"time": 8638, "pitch": 81, "duration": 110, "velocity": 120}, {"time": 8638, "pitch": 93, "duration": 110, "velocity": 120}, {"time": 8638, "pitch": 105, "duration": 110, "velocity": 110}, {"time": 8879, "pitch": 80, "duration": 110, "velocity": 120}, {"time": 8879, "pitch": 92, "duration": 110, "velocity": 120}, {"time": 8879, "pitch": 104, "duration": 110, "velocity": 110}, {"time": 9361, "pitch": 81, "duration": 110, "velocity": 120}, {"time": 9361, "pitch": 93, "duration": 110, "velocity": 120}, {"time": 9361, "pitch": 105, "duration": 110, "velocity": 110}, {"time": 9842, "pitch": 83, "duration": 111, "velocity": 120}, {"time": 9842, "pitch": 95, "duration": 111, "velocity": 120}, {"time": 9842, "pitch": 107, "duration": 111, "velocity": 110}, {"time": 10319, "pitch": 80, "duration": 108, "velocity": 120}, {"time": 10319, "pitch": 92, "duration": 108, "velocity": 120}, {"time": 10319, "pitch": 104, "duration": 108, "velocity": 110}, {"time": 10796, "pitch": 76, "duration": 110, "velocity": 120}, {"time": 10796, "pitch": 88, "duration": 110, "velocity": 120}, {"time": 10796, "pitch": 100, "duration": 110, "velocity": 110}, {"time": 11760, "pitch": 73, "duration": 110, "velocity": 120}, {"time": 11760, "pitch": 85, "duration": 110, "velocity": 120}, {"time": 11760, "pitch": 97, "duration": 110, "velocity": 110}, {"time": 12000, "pitch": 80, "duration": 111, "velocity": 120}, {"time": 12000, "pitch": 92, "duration": 111, "velocity": 120}, {"time": 12000, "pitch": 104, "duration": 111, "velocity": 110}, {"time": 12482, "pitch": 78, "duration": 111, "velocity": 120}, {"time": 12482, "pitch": 90, "duration": 111, "velocity": 120}, {"time": 12482, "pitch": 102, "duration": 111, "velocity": 110}, {"time": 12723, "pitch": 76, "duration": 111, "velocity": 120}, {"time": 12723, "pitch": 88, "duration": 111, "velocity": 120}, {"time": 12723, "pitch": 100, "duration": 111, "velocity": 110}, {"time": 13200, "pitch": 78, "duration": 108, "velocity": 120}, {"time": 13200, "pitch": 90, "duration": 108, "velocity": 120}, {"time": 13200, "pitch": 102, "duration": 108, "velocity": 110}, {"time": 13677, "pitch": 80, "duration": 110, "velocity": 120}, {"time": 13677, "pitch": 92, "duration": 110, "velocity": 120}, {"time": 13677, "pitch": 104, "duration": 110, "velocity": 110}, {"time": 14159, "pitch": 73, "duration": 110, "velocity": 120}, {"time": 14159, "pitch": 85, "duration": 110, "velocity": 120}, {"time": 14159, "pitch": 97, "duration": 110, "velocity": 110}, {"time": 14640, "pitch": 75, "duration": 111, "velocity": 120}, {"time": 14640, "pitch": 87, "duration": 111, "velocity": 120}, {"time": 14640, "pitch": 99, "duration": 111, "velocity": 110}, {"time": 15122, "pitch": 76, "duration": 111, "velocity": 120}, {"time": 15122, "pitch": 88, "duration": 111, "velocity": 120}, {"time": 15122, "pitch": 100, "duration": 111, "velocity": 110}, {"time": 15363, "pitch": 78, "duration": 110, "velocity": 120}, {"time": 15363, "pitch": 90, "duration": 110, "velocity": 120}, {"time": 15363, "pitch": 102, "duration": 110, "velocity": 110}, {"time": 15604, "pitch": 80, "duration": 110, "velocity": 120}, {"time": 15604, "pitch": 92, "duration": 110, "velocity": 120}, {"time": 15604, "pitch": 104, "duration": 110, "velocity": 110}, {"time": 15845, "pitch": 81, "duration": 108, "velocity": 120}, {"time": 15845, "pitch": 93, "duration": 108, "velocity": 120}, {"time": 15845, "pitch": 105, "duration": 108, "velocity": 110}, {"time": 16317, "pitch": 80, "duration": 110, "velocity": 120}, {"time": 16317, "pitch": 92, "duration": 110, "velocity": 120}, {"time": 16317, "pitch": 104, "duration": 110, "velocity": 110}, {"time": 16558, "pitch": 78, "duration": 110, "velocity": 120}, {"time": 16558, "pitch": 90, "duration": 110, "velocity": 120}, {"time": 16558, "pitch": 102, "duration": 110, "velocity": 110}, {"time": 17039, "pitch": 76, "duration": 111, "velocity": 120}, {"time": 17039, "pitch": 88, "duration": 111, "velocity": 120}, {"time": 17039, "pitch": 100, "duration": 111, "velocity": 110}, {"time": 17521, "pitch": 83, "duration": 111, "velocity": 120}, {"time": 17521, "pitch": 95, "duration": 111, "velocity": 120}, {"time": 17521, "pitch": 107, "duration": 111, "velocity": 110}, {"time": 18244, "pitch": 81, "duration": 108, "velocity": 120}, {"time": 18244, "pitch": 93, "duration": 108, "velocity": 120}, {"time": 18244, "pitch": 105, "duration": 108, "velocity": 110}, {"time": 18480, "pitch": 76, "duration": 108, "velocity": 120}, {"time": 18480, "pitch": 88, "duration": 108, "velocity": 120}, {"time": 18480, "pitch": 100, "duration": 108, "velocity": 110}, {"time": 18957, "pitch": 78, "duration": 110, "velocity": 120}, {"time": 18957, "pitch": 90, "duration": 110, "velocity": 120}, {"time": 18957, "pitch": 102, "duration": 110, "velocity": 110}, {"time": 57120, "pitch": 73, "duration": 110, "velocity": 100}, {"time": 57120, "pitch": 85, "duration": 110, "velocity": 100}, {"time": 57120, "pitch": 97, "duration": 110, "velocity": 90}, {"time": 57602, "pitch": 71, "duration": 110, "velocity": 100}, {"time": 57602, "pitch": 83, "duration": 110, "velocity": 100}, {"time": 57602, "pitch": 95, "duration": 110, "velocity": 90}, {"time": 58083, "pitch": 70, "duration": 109, "velocity": 100}, {"time": 58083, "pitch": 82, "duration": 109, "velocity": 100}, {"time": 58083, "pitch": 94, "duration": 109, "velocity": 90}, {"time": 60483, "pitch": 70, "duration": 110, "velocity": 100}, {"time": 60483, "pitch": 82, "duration": 110, "velocity": 100}, {"time": 60483, "pitch": 94, "duration": 110, "velocity": 90}, {"time": 60964, "pitch": 66, "duration": 108, "velocity": 100}, {"time": 60964, "pitch": 78, "duration": 108, "velocity": 100}, {"time": 60964, "pitch": 90, "duration": 108, "velocity": 90}, {"time": 61436, "pitch": 68, "duration": 111, "velocity": 100}, {"time": 61436, "pitch": 80, "duration": 111, "velocity": 100}, {"time": 61436, "pitch": 92, "duration": 111, "velocity": 90}, {"time": 61918, "pitch": 69, "duration": 110, "velocity": 100}, {"time": 61918, "pitch": 81, "duration": 110, "velocity": 100}, {"time": 61918, "pitch": 93, "duration": 110, "velocity": 90}, {"time": 63122, "pitch": 71, "duration": 111, "velocity": 100}, {"time": 63122, "pitch": 83, "duration": 111, "velocity": 100}, {"time": 63122, "pitch": 95, "duration": 111, "velocity": 90}, {"time": 63599, "pitch": 75, "duration": 109, "velocity": 120}, {"time": 63599, "pitch": 87, "duration": 109, "velocity": 120}, {"time": 63599, "pitch": 99, "duration": 109, "velocity": 110}, {"time": 64317, "pitch": 75, "duration": 110, "velocity": 120}, {"time": 64317, "pitch": 87, "duration": 110, "velocity": 120}, {"time": 64317, "pitch": 99, "duration": 110, "velocity": 110}, {"time": 64558, "pitch": 73, "duration": 110, "velocity": 120}, {"time": 64558, "pitch": 85, "duration": 110, "velocity": 120}, {"time": 64558, "pitch": 97, "duration": 110, "velocity": 110}, {"time": 65040, "pitch": 73, "duration": 110, "velocity": 120}, {"time": 65040, "pitch": 85, "duration": 110, "velocity": 120}, {"time": 65040, "pitch": 97, "duration": 110, "velocity": 110}, {"time": 65521, "pitch": 71, "duration": 111, "velocity": 120}, {"time": 65521, "pitch": 83, "duration": 111, "velocity": 120}, {"time": 65521, "pitch": 95, "duration": 111, "velocity": 110}, {"time": 66003, "pitch": 71, "duration": 111, "velocity": 120}, {"time": 66003, "pitch": 83, "duration": 111, "velocity": 120}, {"time": 66003, "pitch": 95, "duration": 111, "velocity": 110}, {"time": 66244, "pitch": 69, "duration": 108, "velocity": 120}, {"time": 66244, "pitch": 81, "duration": 108, "velocity": 120}, {"time": 66244, "pitch": 93, "duration": 108, "velocity": 110}, {"time": 67680, "pitch": 71, "duration": 40, "velocity": 90}, {"time": 67680, "pitch": 83, "duration": 40, "velocity": 120}, {"time": 67680, "pitch": 95, "duration": 40, "velocity": 120}, {"time": 68161, "pitch": 71, "duration": 41, "velocity": 90}, {"time": 68161, "pitch": 83, "duration": 41, "velocity": 120}, {"time": 68161, "pitch": 95, "duration": 41, "velocity": 120}, {"time": 68402, "pitch": 69, "duration": 40, "velocity": 90}, {"time": 68402, "pitch": 81, "duration": 40, "velocity": 120}, {"time": 68402, "pitch": 93, "duration": 40, "velocity": 120}, {"time": 68879, "pitch": 68, "duration": 40, "velocity": 90}, {"time": 68879, "pitch": 80, "duration": 40, "velocity": 120}, {"time": 68879, "pitch": 92, "duration": 40, "velocity": 120}, {"time": 69356, "pitch": 71, "duration": 40, "velocity": 90}, {"time": 69356, "pitch": 83, "duration": 40, "velocity": 120}, {"time": 69356, "pitch": 95, "duration": 40, "velocity": 120}, {"time": 71524, "pitch": 71, "duration": 39, "velocity": 90}, {"time": 71524, "pitch": 83, "duration": 39, "velocity": 120}, {"time": 71524, "pitch": 95, "duration": 39, "velocity": 120}, {"time": 71996, "pitch": 71, "duration": 40, "velocity": 90}, {"time": 71996, "pitch": 83, "duration": 40, "velocity": 120}, {"time": 71996, "pitch": 95, "duration": 40, "velocity": 120}, {"time": 72237, "pitch": 69, "duration": 40, "velocity": 90}, {"time": 72237, "pitch": 81, "duration": 40, "velocity": 120}, {"time": 72237, "pitch": 93, "duration": 40, "velocity": 120}, {"time": 72719, "pitch": 68, "duration": 40, "velocity": 90}, {"time": 72719, "pitch": 80, "duration": 40, "velocity": 120}, {"time": 72719, "pitch": 92, "duration": 40, "velocity": 120}, {"time": 73200, "pitch": 71, "duration": 41, "velocity": 90}, {"time": 73200, "pitch": 83, "duration": 41, "velocity": 120}, {"time": 73200, "pitch": 95, "duration": 41, "velocity": 120}, {"time": 75359, "pitch": 73, "duration": 40, "velocity": 90}, {"time": 75359, "pitch": 85, "duration": 40, "velocity": 120}, {"time": 75359, "pitch": 97, "duration": 40, "velocity": 120}, {"time": 75840, "pitch": 73, "duration": 40, "velocity": 90}, {"time": 75840, "pitch": 85, "duration": 40, "velocity": 120}, {"time": 75840, "pitch": 97, "duration": 40, "velocity": 120}, {"time": 76081, "pitch": 71, "duration": 40, "velocity": 90}, {"time": 76081, "pitch": 83, "duration": 40, "velocity": 120}, {"time": 76081, "pitch": 95, "duration": 40, "velocity": 120}, {"time": 76563, "pitch": 69, "duration": 40, "velocity": 90}, {"time": 76563, "pitch": 81, "duration": 40, "velocity": 120}, {"time": 76563, "pitch": 93, "duration": 40, "velocity": 120}, {"time": 77040, "pitch": 71, "duration": 39, "velocity": 90}, {"time": 77040, "pitch": 83, "duration": 39, "velocity": 120}, {"time": 77040, "pitch": 95, "duration": 39, "velocity": 120}, {"time": 79203, "pitch": 72, "duration": 40, "velocity": 90}, {"time": 79203, "pitch": 84, "duration": 40, "velocity": 120}, {"time": 79203, "pitch": 96, "duration": 40, "velocity": 120}, {"time": 79685, "pitch": 71, "duration": 39, "velocity": 90}, {"time": 79685, "pitch": 83, "duration": 39, "velocity": 120}, {"time": 79685, "pitch": 95, "duration": 39, "velocity": 120}, {"time": 79921, "pitch": 72, "duration": 39, "velocity": 90}, {"time": 79921, "pitch": 84, "duration": 39, "velocity": 120}, {"time": 79921, "pitch": 96, "duration": 39, "velocity": 120}, {"time": 80397, "pitch": 74, "duration": 41, "velocity": 90}, {"time": 80397, "pitch": 86, "duration": 41, "velocity": 120}, {"time": 80397, "pitch": 98, "duration": 41, "velocity": 120}, {"time": 80879, "pitch": 71, "duration": 40, "velocity": 90}, {"time": 80879, "pitch": 83, "duration": 40, "velocity": 120}, {"time": 80879, "pitch": 95, "duration": 40, "velocity": 120}, {"time": 83037, "pitch": 71, "duration": 41, "velocity": 90}, {"time": 83037, "pitch": 83, "duration": 41, "velocity": 120}, {"time": 83037, "pitch": 95, "duration": 41, "velocity": 120}, {"time": 83519, "pitch": 71, "duration": 40, "velocity": 90}, {"time": 83519, "pitch": 83, "duration": 40, "velocity": 120}, {"time": 83519, "pitch": 95, "duration": 40, "velocity": 120}, {"time": 83760, "pitch": 69, "duration": 40, "velocity": 90}, {"time": 83760, "pitch": 81, "duration": 40, "velocity": 120}, {"time": 83760, "pitch": 93, "duration": 40, "velocity": 120}, {"time": 84242, "pitch": 68, "duration": 40, "velocity": 90}, {"time": 84242, "pitch": 80, "duration": 40, "velocity": 120}, {"time": 84242, "pitch": 92, "duration": 40, "velocity": 120}, {"time": 84724, "pitch": 71, "duration": 40, "velocity": 90}, {"time": 84724, "pitch": 83, "duration": 40, "velocity": 120}, {"time": 84724, "pitch": 95, "duration": 40, "velocity": 120}, {"time": 86882, "pitch": 71, "duration": 40, "velocity": 90}, {"time": 86882, "pitch": 83, "duration": 40, "velocity": 120}, {"time": 86882, "pitch": 95, "duration": 40, "velocity": 120}, {"time": 87363, "pitch": 71, "duration": 40, "velocity": 90}, {"time": 87363, "pitch": 83, "duration": 40, "velocity": 120}, {"time": 87363, "pitch": 95, "duration": 40, "velocity": 120}, {"time": 87599, "pitch": 69, "duration": 40, "velocity": 90}, {"time": 87599, "pitch": 81, "duration": 40, "velocity": 120}, {"time": 87599, "pitch": 93, "duration": 40, "velocity": 120}, {"time": 88076, "pitch": 68, "duration": 40, "velocity": 90}, {"time": 88076, "pitch": 80, "duration": 40, "velocity": 120}, {"time": 88076, "pitch": 92, "duration": 40, "velocity": 120}, {"time": 88558, "pitch": 71, "duration": 40, "velocity": 90}, {"time": 88558, "pitch": 83, "duration": 40, "velocity": 120}, {"time": 88558, "pitch": 95, "duration": 40, "velocity": 120}, {"time": 90716, "pitch": 73, "duration": 40, "velocity": 90}, {"time": 90716, "pitch": 85, "duration": 40, "velocity": 120}, {"time": 90716, "pitch": 97, "duration": 40, "velocity": 120}, {"time": 91198, "pitch": 73, "duration": 40, "velocity": 90}, {"time": 91198, "pitch": 85, "duration": 40, "velocity": 120}, {"time": 91198, "pitch": 97, "duration": 40, "velocity": 120}, {"time": 91439, "pitch": 71, "duration": 40, "velocity": 90}, {"time": 91439, "pitch": 83, "duration": 40, "velocity": 120}, {"time": 91439, "pitch": 95, "duration": 40, "velocity": 120}, {"time": 91921, "pitch": 69, "duration": 40, "velocity": 90}, {"time": 91921, "pitch": 81, "duration": 40, "velocity": 120}, {"time": 91921, "pitch": 93, "duration": 40, "velocity": 120}, {"time": 92402, "pitch": 71, "duration": 41, "velocity": 90}, {"time": 92402, "pitch": 83, "duration": 41, "velocity": 120}, {"time": 92402, "pitch": 95, "duration": 41, "velocity": 120}, {"time": 94561, "pitch": 72, "duration": 40, "velocity": 90}, {"time": 94561, "pitch": 84, "duration": 40, "velocity": 120}, {"time": 94561, "pitch": 96, "duration": 40, "velocity": 120}, {"time": 95042, "pitch": 71, "duration": 41, "velocity": 90}, {"time": 95042, "pitch": 83, "duration": 41, "velocity": 120}, {"time": 95042, "pitch": 95, "duration": 41, "velocity": 120}, {"time": 95283, "pitch": 72, "duration": 40, "velocity": 90}, {"time": 95283, "pitch": 84, "duration": 40, "velocity": 120}, {"time": 95283, "pitch": 96, "duration": 40, "velocity": 120}, {"time": 95760, "pitch": 74, "duration": 39, "velocity": 90}, {"time": 95760, "pitch": 86, "duration": 39, "velocity": 120}, {"time": 95760, "pitch": 98, "duration": 39, "velocity": 120}, {"time": 96237, "pitch": 71, "duration": 40, "velocity": 90}, {"time": 96237, "pitch": 83, "duration": 40, "velocity": 120}, {"time": 96237, "pitch": 95, "duration": 40, "velocity": 120}, {"time": 139680, "pitch": 73, "duration": 110, "velocity": 100}, {"time": 139680, "pitch": 85, "duration": 110, "velocity": 100}, {"time": 139680, "pitch": 97, "duration": 110, "velocity": 90}, {"time": 140162, "pitch": 71, "duration": 110, "velocity": 100}, {"time": 140162, "pitch": 83, "duration": 110, "velocity": 100}, {"time": 140162, "pitch": 95, "duration": 110, "velocity": 90}, {"time": 140644, "pitch": 70, "duration": 108, "velocity": 100}, {"time": 140644, "pitch": 82, "duration": 108, "velocity": 100}, {"time": 140644, "pitch": 94, "duration": 108, "velocity": 90}, {"time": 143043, "pitch": 70, "duration": 110, "velocity": 100}, {"time": 143043, "pitch": 82, "duration": 110, "velocity": 100}, {"time": 143043, "pitch": 94, "duration": 110, "velocity": 90}, {"time": 143524, "pitch": 66, "duration": 109, "velocity": 100}, {"time": 143524, "pitch": 78, "duration": 109, "velocity": 100}, {"time": 143524, "pitch": 90, "duration": 109, "velocity": 90}, {"time": 143996, "pitch": 68, "duration": 111, "velocity": 100}, {"time": 143996, "pitch": 80, "duration": 111, "velocity": 100}, {"time": 143996, "pitch": 92, "duration": 111, "velocity": 90}, {"time": 144478, "pitch": 69, "duration": 111, "velocity": 100}, {"time": 144478, "pitch": 81, "duration": 111, "velocity": 100}, {"time": 144478, "pitch": 93, "duration": 111, "velocity": 90}, {"time": 145683, "pitch": 71, "duration": 110, "velocity": 100}, {"time": 145683, "pitch": 83, "duration": 110, "velocity": 100}, {"time": 145683, "pitch": 95, "duration": 110, "velocity": 90}, {"time": 146159, "pitch": 75, "duration": 109, "velocity": 120}, {"time": 146159, "pitch": 87, "duration": 109, "velocity": 120}, {"time": 146159, "pitch": 99, "duration": 109, "velocity": 110}, {"time": 146877, "pitch": 75, "duration": 111, "velocity": 120}, {"time": 146877, "pitch": 87, "duration": 111, "velocity": 120}, {"time": 146877, "pitch": 99, "duration": 111, "velocity": 110}, {"time": 147118, "pitch": 73, "duration": 110, "velocity": 120}, {"time": 147118, "pitch": 85, "duration": 110, "velocity": 120}, {"time": 147118, "pitch": 97, "duration": 110, "velocity": 110}, {"time": 147600, "pitch": 73, "duration": 110, "velocity": 120}, {"time": 147600, "pitch": 85, "duration": 110, "velocity": 120}, {"time": 147600, "pitch": 97, "duration": 110, "velocity": 110}, {"time": 148082, "pitch": 71, "duration": 110, "velocity": 120}, {"time": 148082, "pitch": 83, "duration": 110, "velocity": 120}, {"time": 148082, "pitch": 95, "duration": 110, "velocity": 110}, {"time": 148563, "pitch": 71, "duration": 111, "velocity": 120}, {"time": 148563, "pitch": 83, "duration": 111, "velocity": 120}, {"time": 148563, "pitch": 95, "duration": 111, "velocity": 110}, {"time": 148804, "pitch": 69, "duration": 108, "velocity": 120}, {"time": 148804, "pitch": 81, "duration": 108, "velocity": 120}, {"time": 148804, "pitch": 93, "duration": 108, "velocity": 110}, {"time": 150240, "pitch": 71, "duration": 40, "velocity": 90}, {"time": 150240, "pitch": 83, "duration": 40, "velocity": 120}, {"time": 150240, "pitch": 95, "duration": 40, "velocity": 120}, {"time": 150722, "pitch": 71, "duration": 40, "velocity": 90}, {"time": 150722, "pitch": 83, "duration": 40, "velocity": 120}, {"time": 150722, "pitch": 95, "duration": 40, "velocity": 120}, {"time": 150962, "pitch": 69, "duration": 41, "velocity": 90}, {"time": 150962, "pitch": 81, "duration": 41, "velocity": 120}, {"time": 150962, "pitch": 93, "duration": 41, "velocity": 120}, {"time": 151439, "pitch": 68, "duration": 40, "velocity": 90}, {"time": 151439, "pitch": 80, "duration": 40, "velocity": 120}, {"time": 151439, "pitch": 92, "duration": 40, "velocity": 120}, {"time": 151916, "pitch": 71, "duration": 40, "velocity": 90}, {"time": 151916, "pitch": 83, "duration": 40, "velocity": 120}, {"time": 151916, "pitch": 95, "duration": 40, "velocity": 120}, {"time": 154084, "pitch": 71, "duration": 39, "velocity": 90}, {"time": 154084, "pitch": 83, "duration": 39, "velocity": 120}, {"time": 154084, "pitch": 95, "duration": 39, "velocity": 120}, {"time": 154556, "pitch": 71, "duration": 40, "velocity": 90}, {"time": 154556, "pitch": 83, "duration": 40, "velocity": 120}, {"time": 154556, "pitch": 95, "duration": 40, "velocity": 120}, {"time": 154797, "pitch": 69, "duration": 40, "velocity": 90}, {"time": 154797, "pitch": 81, "duration": 40, "velocity": 120}, {"time": 154797, "pitch": 93, "duration": 40, "velocity": 120}, {"time": 155279, "pitch": 68, "duration": 40, "velocity": 90}, {"time": 155279, "pitch": 80, "duration": 40, "velocity": 120}, {"time": 155279, "pitch": 92, "duration": 40, "velocity": 120}, {"time": 155760, "pitch": 71, "duration": 41, "velocity": 90}, {"time": 155760, "pitch": 83, "duration": 41, "velocity": 120}, {"time": 155760, "pitch": 95, "duration": 41, "velocity": 120}, {"time": 157919, "pitch": 73, "duration": 40, "velocity": 90}, {"time": 157919, "pitch": 85, "duration": 40, "velocity": 120}, {"time": 157919, "pitch": 97, "duration": 40, "velocity": 120}, {"time": 158400, "pitch": 73, "duration": 41, "velocity": 90}, {"time": 158400, "pitch": 85, "duration": 41, "velocity": 120}, {"time": 158400, "pitch": 97, "duration": 41, "velocity": 120}, {"time": 158641, "pitch": 71, "duration": 40, "velocity": 90}, {"time": 158641, "pitch": 83, "duration": 40, "velocity": 120}, {"time": 158641, "pitch": 95, "duration": 40, "velocity": 120}, {"time": 159123, "pitch": 69, "duration": 40, "velocity": 90}, {"time": 159123, "pitch": 81, "duration": 40, "velocity": 120}, {"time": 159123, "pitch": 93, "duration": 40, "velocity": 120}, {"time": 159600, "pitch": 71, "duration": 39, "velocity": 90}, {"time": 159600, "pitch": 83, "duration": 39, "velocity": 120}, {"time": 159600, "pitch": 95, "duration": 39, "velocity": 120}, {"time": 161763, "pitch": 72, "duration": 40, "velocity": 90}, {"time": 161763, "pitch": 84, "duration": 40, "velocity": 120}, {"time": 161763, "pitch": 96, "duration": 40, "velocity": 120}, {"time": 162245, "pitch": 71, "duration": 39, "velocity": 90}, {"time": 162245, "pitch": 83, "duration": 39, "velocity": 120}, {"time": 162245, "pitch": 95, "duration": 39, "velocity": 120}, {"time": 162481, "pitch": 72, "duration": 39, "velocity": 90}, {"time": 162481, "pitch": 84, "duration": 39, "velocity": 120}, {"time": 162481, "pitch": 96, "duration": 39, "velocity": 120}, {"time": 162958, "pitch": 74, "duration": 40, "velocity": 90}, {"time": 162958, "pitch": 86, "duration": 40, "velocity": 120}, {"time": 162958, "pitch": 98, "duration": 40, "velocity": 120}, {"time": 163439, "pitch": 71, "duration": 40, "velocity": 90}, {"time": 163439, "pitch": 83, "duration": 40, "velocity": 120}, {"time": 163439, "pitch": 95, "duration": 40, "velocity": 120}, {"time": 165597, "pitch": 71, "duration": 41, "velocity": 90}, {"time": 165597, "pitch": 83, "duration": 41, "velocity": 120}, {"time": 165597, "pitch": 95, "duration": 41, "velocity": 120}, {"time": 166079, "pitch": 71, "duration": 40, "velocity": 90}, {"time": 166079, "pitch": 83, "duration": 40, "velocity": 120}, {"time": 166079, "pitch": 95, "duration": 40, "velocity": 120}, {"time": 166320, "pitch": 69, "duration": 40, "velocity": 90}, {"time": 166320, "pitch": 81, "duration": 40, "velocity": 120}, {"time": 166320, "pitch": 93, "duration": 40, "velocity": 120}, {"time": 166802, "pitch": 68, "duration": 40, "velocity": 90}, {"time": 166802, "pitch": 80, "duration": 40, "velocity": 120}, {"time": 166802, "pitch": 92, "duration": 40, "velocity": 120}, {"time": 167284, "pitch": 71, "duration": 40, "velocity": 90}, {"time": 167284, "pitch": 83, "duration": 40, "velocity": 120}, {"time": 167284, "pitch": 95, "duration": 40, "velocity": 120}, {"time": 169442, "pitch": 71, "duration": 40, "velocity": 90}, {"time": 169442, "pitch": 83, "duration": 40, "velocity": 120}, {"time": 169442, "pitch": 95, "duration": 40, "velocity": 120}, {"time": 169924, "pitch": 71, "duration": 39, "velocity": 90}, {"time": 169924, "pitch": 83, "duration": 39, "velocity": 120}, {"time": 169924, "pitch": 95, "duration": 39, "velocity": 120}, {"time": 170160, "pitch": 69, "duration": 39, "velocity": 90}, {"time": 170160, "pitch": 81, "duration": 39, "velocity": 120}, {"time": 170160, "pitch": 93, "duration": 39, "velocity": 120}, {"time": 170636, "pitch": 68, "duration": 41, "velocity": 90}, {"time": 170636, "pitch": 80, "duration": 41, "velocity": 120}, {"time": 170636, "pitch": 92, "duration": 41, "velocity": 120}, {"time": 171118, "pitch": 71, "duration": 40, "velocity": 90}, {"time": 171118, "pitch": 83, "duration": 40, "velocity": 120}, {"time": 171118, "pitch": 95, "duration": 40, "velocity": 120}, {"time": 173276, "pitch": 73, "duration": 41, "velocity": 90}, {"time": 173276, "pitch": 85, "duration": 41, "velocity": 120}, {"time": 173276, "pitch": 97, "duration": 41, "velocity": 120}, {"time": 173758, "pitch": 73, "duration": 40, "velocity": 90}, {"time": 173758, "pitch": 85, "duration": 40, "velocity": 120}, {"time": 173758, "pitch": 97, "duration": 40, "velocity": 120}, {"time": 173999, "pitch": 71, "duration": 40, "velocity": 90}, {"time": 173999, "pitch": 83, "duration": 40, "velocity": 120}, {"time": 173999, "pitch": 95, "duration": 40, "velocity": 120}, {"time": 174481, "pitch": 69, "duration": 40, "velocity": 90}, {"time": 174481, "pitch": 81, "duration": 40, "velocity": 120}, {"time": 174481, "pitch": 93, "duration": 40, "velocity": 120}, {"time": 174963, "pitch": 71, "duration": 40, "velocity": 90}, {"time": 174963, "pitch": 83, "duration": 40, "velocity": 120}, {"time": 174963, "pitch": 95, "duration": 40, "velocity": 120}, {"time": 177121, "pitch": 72, "duration": 40, "velocity": 90}, {"time": 177121, "pitch": 84, "duration": 40, "velocity": 120}, {"time": 177121, "pitch": 96, "duration": 40, "velocity": 120}, {"time": 177602, "pitch": 71, "duration": 41, "velocity": 90}, {"time": 177602, "pitch": 83, "duration": 41, "velocity": 120}, {"time": 177602, "pitch": 95, "duration": 41, "velocity": 120}, {"time": 177843, "pitch": 72, "duration": 40, "velocity": 90}, {"time": 177843, "pitch": 84, "duration": 40, "velocity": 120}, {"time": 177843, "pitch": 96, "duration": 40, "velocity": 120}, {"time": 178320, "pitch": 74, "duration": 40, "velocity": 90}, {"time": 178320, "pitch": 86, "duration": 40, "velocity": 120}, {"time": 178320, "pitch": 98, "duration": 40, "velocity": 120}, {"time": 178797, "pitch": 71, "duration": 40, "velocity": 90}, {"time": 178797, "pitch": 83, "duration": 40, "velocity": 120}, {"time": 178797, "pitch": 95, "duration": 40, "velocity": 120}, {"time": 180719, "pitch": 73, "duration": 108, "velocity": 120}, {"time": 180719, "pitch": 85, "duration": 108, "velocity": 120}, {"time": 180719, "pitch": 97, "duration": 108, "velocity": 110}, {"time": 180955, "pitch": 80, "duration": 111, "velocity": 120}, {"time": 180955, "pitch": 92, "duration": 111, "velocity": 120}, {"time": 180955, "pitch": 104, "duration": 111, "velocity": 110}, {"time": 181437, "pitch": 78, "duration": 110, "velocity": 120}, {"time": 181437, "pitch": 90, "duration": 110, "velocity": 120}, {"time": 181437, "pitch": 102, "duration": 110, "velocity": 110}, {"time": 181678, "pitch": 76, "duration": 110, "velocity": 120}, {"time": 181678, "pitch": 88, "duration": 110, "velocity": 120}, {"time": 181678, "pitch": 100, "duration": 110, "velocity": 110}, {"time": 182160, "pitch": 78, "duration": 110, "velocity": 120}, {"time": 182160, "pitch": 90, "duration": 110, "velocity": 120}, {"time": 182160, "pitch": 102, "duration": 110, "velocity": 110}, {"time": 182641, "pitch": 80, "duration": 111, "velocity": 120}, {"time": 182641, "pitch": 92, "duration": 111, "velocity": 120}, {"time": 182641, "pitch": 104, "duration": 111, "velocity": 110}, {"time": 183123, "pitch": 73, "duration": 111, "velocity": 120}, {"time": 183123, "pitch": 85, "duration": 111, "velocity": 120}, {"time": 183123, "pitch": 97, "duration": 111, "velocity": 110}, {"time": 184559, "pitch": 75, "duration": 110, "velocity": 120}, {"time": 184559, "pitch": 87, "duration": 110, "velocity": 120}, {"time": 184559, "pitch": 99, "duration": 110, "velocity": 110}, {"time": 184800, "pitch": 83, "duration": 110, "velocity": 120}, {"time": 184800, "pitch": 95, "duration": 110, "velocity": 120}, {"time": 184800, "pitch": 107, "duration": 110, "velocity": 110}, {"time": 185281, "pitch": 81, "duration": 111, "velocity": 120}, {"time": 185281, "pitch": 93, "duration": 111, "velocity": 120}, {"time": 185281, "pitch": 105, "duration": 111, "velocity": 110}, {"time": 185522, "pitch": 80, "duration": 111, "velocity": 120}, {"time": 185522, "pitch": 92, "duration": 111, "velocity": 120}, {"time": 185522, "pitch": 104, "duration": 111, "velocity": 110}, {"time": 186004, "pitch": 81, "duration": 110, "velocity": 120}, {"time": 186004, "pitch": 93, "duration": 110, "velocity": 120}, {"time": 186004, "pitch": 105, "duration": 110, "velocity": 110}, {"time": 186481, "pitch": 83, "duration": 108, "velocity": 120}, {"time": 186481, "pitch": 95, "duration": 108, "velocity": 120}, {"time": 186481, "pitch": 107, "duration": 108, "velocity": 110}, {"time": 186958, "pitch": 80, "duration": 110, "velocity": 120}, {"time": 186958, "pitch": 92, "duration": 110, "velocity": 120}, {"time": 186958, "pitch": 104, "duration": 110, "velocity": 110}, {"time": 187439, "pitch": 76, "duration": 111, "velocity": 120}, {"time": 187439, "pitch": 88, "duration": 111, "velocity": 120}, {"time": 187439, "pitch": 100, "duration": 111, "velocity": 110}, {"time": 188403, "pitch": 73, "duration": 110, "velocity": 120}, {"time": 188403, "pitch": 85, "duration": 110, "velocity": 120}, {"time": 188403, "pitch": 97, "duration": 110, "velocity": 110}, {"time": 188644, "pitch": 80, "duration": 108, "velocity": 120}, {"time": 188644, "pitch": 92, "duration": 108, "velocity": 120}, {"time": 188644, "pitch": 104, "duration": 108, "velocity": 110}, {"time": 189116, "pitch": 78, "duration": 110, "velocity": 120}, {"time": 189116, "pitch": 90, "duration": 110, "velocity": 120}, {"time": 189116, "pitch": 102, "duration": 110, "velocity": 110}, {"time": 189357, "pitch": 76, "duration": 110, "velocity": 120}, {"time": 189357, "pitch": 88, "duration": 110, "velocity": 120}, {"time": 189357, "pitch": 100, "duration": 110, "velocity": 110}, {"time": 189839, "pitch": 78, "duration": 110, "velocity": 120}, {"time": 189839, "pitch": 90, "duration": 110, "velocity": 120}, {"time": 189839, "pitch": 102, "duration": 110, "velocity": 110}, {"time": 190320, "pitch": 80, "duration": 111, "velocity": 120}, {"time": 190320, "pitch": 92, "duration": 111, "velocity": 120}, {"time": 190320, "pitch": 104, "duration": 111, "velocity": 110}, {"time": 190802, "pitch": 73, "duration": 110, "velocity": 120}, {"time": 190802, "pitch": 85, "duration": 110, "velocity": 120}, {"time": 190802, "pitch": 97, "duration": 110, "velocity": 110}, {"time": 191284, "pitch": 75, "duration": 110, "velocity": 120}, {"time": 191284, "pitch": 87, "duration": 110, "velocity": 120}, {"time": 191284, "pitch": 99, "duration": 110, "velocity": 110}, {"time": 191761, "pitch": 76, "duration": 108, "velocity": 120}, {"time": 191761, "pitch": 88, "duration": 108, "velocity": 120}, {"time": 191761, "pitch": 100, "duration": 108, "velocity": 110}, {"time": 191997, "pitch": 78, "duration": 110, "velocity": 120}, {"time": 191997, "pitch": 90, "duration": 110, "velocity": 120}, {"time": 191997, "pitch": 102, "duration": 110, "velocity": 110}, {"time": 192238, "pitch": 80, "duration": 110, "velocity": 120}, {"time": 192238, "pitch": 92, "duration": 110, "velocity": 120}, {"time": 192238, "pitch": 104, "duration": 110, "velocity": 110}, {"time": 192478, "pitch": 81, "duration": 111, "velocity": 120}, {"time": 192478, "pitch": 93, "duration": 111, "velocity": 120}, {"time": 192478, "pitch": 105, "duration": 111, "velocity": 110}, {"time": 192960, "pitch": 80, "duration": 111, "velocity": 120}, {"time": 192960, "pitch": 92, "duration": 111, "velocity": 120}, {"time": 192960, "pitch": 104, "duration": 111, "velocity": 110}, {"time": 193201, "pitch": 78, "duration": 110, "velocity": 120}, {"time": 193201, "pitch": 90, "duration": 110, "velocity": 120}, {"time": 193201, "pitch": 102, "duration": 110, "velocity": 110}, {"time": 193683, "pitch": 76, "duration": 110, "velocity": 120}, {"time": 193683, "pitch": 88, "duration": 110, "velocity": 120}, {"time": 193683, "pitch": 100, "duration": 110, "velocity": 110}, {"time": 194160, "pitch": 83, "duration": 108, "velocity": 120}, {"time": 194160, "pitch": 95, "duration": 108, "velocity": 120}, {"time": 194160, "pitch": 107, "duration": 108, "velocity": 110}, {"time": 194877, "pitch": 81, "duration": 111, "velocity": 120}, {"time": 194877, "pitch": 93, "duration": 111, "velocity": 120}, {"time": 194877, "pitch": 105, "duration": 111, "velocity": 110}, {"time": 195118, "pitch": 76, "duration": 111, "velocity": 120}, {"time": 195118, "pitch": 88, "duration": 111, "velocity": 120}, {"time": 195118, "pitch": 100, "duration": 111, "velocity": 110}, {"time": 195600, "pitch": 78, "duration": 111, "velocity": 120}, {"time": 195600, "pitch": 90, "duration": 111, "velocity": 120}, {"time": 195600, "pitch": 102, "duration": 111, "velocity": 110}, {"time": 210476, "pitch": 68, "duration": 111, "velocity": 100}, {"time": 210476, "pitch": 80, "duration": 111, "velocity": 100}, {"time": 210476, "pitch": 92, "duration": 111, "velocity": 90}, {"time": 210717, "pitch": 75, "duration": 110, "velocity": 100}, {"time": 210717, "pitch": 87, "duration": 110, "velocity": 100}, {"time": 210717, "pitch": 99, "duration": 110, "velocity": 90}, {"time": 210958, "pitch": 80, "duration": 110, "velocity": 100}, {"time": 210958, "pitch": 92, "duration": 110, "velocity": 100}, {"time": 210958, "pitch": 104, "duration": 110, "velocity": 90}, {"time": 224880, "pitch": 75, "duration": 111, "velocity": 120}, {"time": 224880, "pitch": 87, "duration": 111, "velocity": 120}, {"time": 224880, "pitch": 99, "duration": 111, "velocity": 110}, {"time": 225603, "pitch": 75, "duration": 110, "velocity": 120}, {"time": 225603, "pitch": 87, "duration": 110, "velocity": 120}, {"time": 225603, "pitch": 99, "duration": 110, "velocity": 110}, {"time": 225844, "pitch": 73, "duration": 110, "velocity": 120}, {"time": 225844, "pitch": 85, "duration": 110, "velocity": 120}, {"time": 225844, "pitch": 97, "duration": 110, "velocity": 110}, {"time": 226321, "pitch": 73, "duration": 108, "velocity": 120}, {"time": 226321, "pitch": 85, "duration": 108, "velocity": 120}, {"time": 226321, "pitch": 97, "duration": 108, "velocity": 110}, {"time": 226797, "pitch": 71, "duration": 111, "velocity": 120}, {"time": 226797, "pitch": 83, "duration": 111, "velocity": 120}, {"time": 226797, "pitch": 95, "duration": 111, "velocity": 110}, {"time": 227279, "pitch": 71, "duration": 111, "velocity": 120}, {"time": 227279, "pitch": 83, "duration": 111, "velocity": 120}, {"time": 227279, "pitch": 95, "duration": 111, "velocity": 110}, {"time": 227520, "pitch": 69, "duration": 110, "velocity": 120}, {"time": 227520, "pitch": 81, "duration": 110, "velocity": 120}, {"time": 227520, "pitch": 93, "duration": 110, "velocity": 110}, {"time": 228956, "pitch": 71, "duration": 40, "velocity": 90}, {"time": 228956, "pitch": 83, "duration": 40, "velocity": 120}, {"time": 228956, "pitch": 95, "duration": 40, "velocity": 120}, {"time": 229437, "pitch": 71, "duration": 40, "velocity": 90}, {"time": 229437, "pitch": 83, "duration": 40, "velocity": 120}, {"time": 229437, "pitch": 95, "duration": 40, "velocity": 120}, {"time": 229678, "pitch": 69, "duration": 40, "velocity": 90}, {"time": 229678, "pitch": 81, "duration": 40, "velocity": 120}, {"time": 229678, "pitch": 93, "duration": 40, "velocity": 120}, {"time": 230160, "pitch": 68, "duration": 40, "velocity": 90}, {"time": 230160, "pitch": 80, "duration": 40, "velocity": 120}, {"time": 230160, "pitch": 92, "duration": 40, "velocity": 120}, {"time": 230642, "pitch": 71, "duration": 40, "velocity": 90}, {"time": 230642, "pitch": 83, "duration": 40, "velocity": 120}, {"time": 230642, "pitch": 95, "duration": 40, "velocity": 120}, {"time": 232800, "pitch": 71, "duration": 40, "velocity": 90}, {"time": 232800, "pitch": 83, "duration": 40, "velocity": 120}, {"time": 232800, "pitch": 95, "duration": 40, "velocity": 120}, {"time": 233282, "pitch": 71, "duration": 40, "velocity": 90}, {"time": 233282, "pitch": 83, "duration": 40, "velocity": 120}, {"time": 233282, "pitch": 95, "duration": 40, "velocity": 120}, {"time": 233523, "pitch": 69, "duration": 40, "velocity": 90}, {"time": 233523, "pitch": 81, "duration": 40, "velocity": 120}, {"time": 233523, "pitch": 93, "duration": 40, "velocity": 120}, {"time": 233999, "pitch": 68, "duration": 40, "velocity": 90}, {"time": 233999, "pitch": 80, "duration": 40, "velocity": 120}, {"time": 233999, "pitch": 92, "duration": 40, "velocity": 120}, {"time": 234476, "pitch": 71, "duration": 40, "velocity": 90}, {"time": 234476, "pitch": 83, "duration": 40, "velocity": 120}, {"time": 234476, "pitch": 95, "duration": 40, "velocity": 120}, {"time": 236644, "pitch": 73, "duration": 39, "velocity": 90}, {"time": 236644, "pitch": 85, "duration": 39, "velocity": 120}, {"time": 236644, "pitch": 97, "duration": 39, "velocity": 120}, {"time": 237116, "pitch": 73, "duration": 40, "velocity": 90}, {"time": 237116, "pitch": 85, "duration": 40, "velocity": 120}, {"time": 237116, "pitch": 97, "duration": 40, "velocity": 120}, {"time": 237357, "pitch": 71, "duration": 40, "velocity": 90}, {"time": 237357, "pitch": 83, "duration": 40, "velocity": 120}, {"time": 237357, "pitch": 95, "duration": 40, "velocity": 120}, {"time": 237839, "pitch": 69, "duration": 40, "velocity": 90}, {"time": 237839, "pitch": 81, "duration": 40, "velocity": 120}, {"time": 237839, "pitch": 93, "duration": 40, "velocity": 120}, {"time": 238321, "pitch": 71, "duration": 40, "velocity": 90}, {"time": 238321, "pitch": 83, "duration": 40, "velocity": 120}, {"time": 238321, "pitch": 95, "duration": 40, "velocity": 120}, {"time": 240479, "pitch": 72, "duration": 40, "velocity": 90}, {"time": 240479, "pitch": 84, "duration": 40, "velocity": 120}, {"time": 240479, "pitch": 96, "duration": 40, "velocity": 120}, {"time": 240961, "pitch": 71, "duration": 40, "velocity": 90}, {"time": 240961, "pitch": 83, "duration": 40, "velocity": 120}, {"time": 240961, "pitch": 95, "duration": 40, "velocity": 120}, {"time": 241201, "pitch": 72, "duration": 41, "velocity": 90}, {"time": 241201, "pitch": 84, "duration": 41, "velocity": 120}, {"time": 241201, "pitch": 96, "duration": 41, "velocity": 120}, {"time": 241683, "pitch": 74, "duration": 40, "velocity": 90}, {"time": 241683, "pitch": 86, "duration": 40, "velocity": 120}, {"time": 241683, "pitch": 98, "duration": 40, "velocity": 120}, {"time": 242160, "pitch": 71, "duration": 39, "velocity": 90}, {"time": 242160, "pitch": 83, "duration": 39, "velocity": 120}, {"time": 242160, "pitch": 95, "duration": 39, "velocity": 120}, {"time": 244323, "pitch": 71, "duration": 40, "velocity": 90}, {"time": 244323, "pitch": 83, "duration": 40, "velocity": 120}, {"time": 244323, "pitch": 95, "duration": 40, "velocity": 120}, {"time": 244805, "pitch": 71, "duration": 39, "velocity": 90}, {"time": 244805, "pitch": 83, "duration": 39, "velocity": 120}, {"time": 244805, "pitch": 95, "duration": 39, "velocity": 120}, {"time": 245041, "pitch": 69, "duration": 39, "velocity": 90}, {"time": 245041, "pitch": 81, "duration": 39, "velocity": 120}, {"time": 245041, "pitch": 93, "duration": 39, "velocity": 120}, {"time": 245518, "pitch": 68, "duration": 40, "velocity": 90}, {"time": 245518, "pitch": 80, "duration": 40, "velocity": 120}, {"time": 245518, "pitch": 92, "duration": 40, "velocity": 120}, {"time": 245999, "pitch": 71, "duration": 41, "velocity": 90}, {"time": 245999, "pitch": 83, "duration": 41, "velocity": 120}, {"time": 245999, "pitch": 95, "duration": 41, "velocity": 120}, {"time": 248158, "pitch": 71, "duration": 40, "velocity": 90}, {"time": 248158, "pitch": 83, "duration": 40, "velocity": 120}, {"time": 248158, "pitch": 95, "duration": 40, "velocity": 120}, {"time": 248639, "pitch": 71, "duration": 41, "velocity": 90}, {"time": 248639, "pitch": 83, "duration": 41, "velocity": 120}, {"time": 248639, "pitch": 95, "duration": 41, "velocity": 120}, {"time": 248880, "pitch": 69, "duration": 40, "velocity": 90}, {"time": 248880, "pitch": 81, "duration": 40, "velocity": 120}, {"time": 248880, "pitch": 93, "duration": 40, "velocity": 120}, {"time": 249362, "pitch": 68, "duration": 40, "velocity": 90}, {"time": 249362, "pitch": 80, "duration": 40, "velocity": 120}, {"time": 249362, "pitch": 92, "duration": 40, "velocity": 120}, {"time": 249844, "pitch": 71, "duration": 40, "velocity": 90}, {"time": 249844, "pitch": 83, "duration": 40, "velocity": 120}, {"time": 249844, "pitch": 95, "duration": 40, "velocity": 120}, {"time": 252002, "pitch": 73, "duration": 40, "velocity": 90}, {"time": 252002, "pitch": 85, "duration": 40, "velocity": 120}, {"time": 252002, "pitch": 97, "duration": 40, "velocity": 120}, {"time": 252484, "pitch": 73, "duration": 39, "velocity": 90}, {"time": 252484, "pitch": 85, "duration": 39, "velocity": 120}, {"time": 252484, "pitch": 97, "duration": 39, "velocity": 120}, {"time": 252720, "pitch": 71, "duration": 39, "velocity": 90}, {"time": 252720, "pitch": 83, "duration": 39, "velocity": 120}, {"time": 252720, "pitch": 95, "duration": 39, "velocity": 120}, {"time": 253197, "pitch": 69, "duration": 40, "velocity": 90}, {"time": 253197, "pitch": 81, "duration": 40, "velocity": 120}, {"time": 253197, "pitch": 93, "duration": 40, "velocity": 120}, {"time": 253678, "pitch": 71, "duration": 40, "velocity": 90}, {"time": 253678, "pitch": 83, "duration": 40, "velocity": 120}, {"time": 253678, "pitch": 95, "duration": 40, "velocity": 120}, {"time": 255837, "pitch": 72, "duration": 40, "velocity": 90}, {"time": 255837, "pitch": 84, "duration": 40, "velocity": 120}, {"time": 255837, "pitch": 96, "duration": 40, "velocity": 120}, {"time": 256318, "pitch": 71, "duration": 40, "velocity": 90}, {"time": 256318, "pitch": 83, "duration": 40, "velocity": 120}, {"time": 256318, "pitch": 95, "duration": 40, "velocity": 120}, {"time": 256559, "pitch": 72, "duration": 40, "velocity": 90}, {"time": 256559, "pitch": 84, "duration": 40, "velocity": 120}, {"time": 256559, "pitch": 96, "duration": 40, "velocity": 120}, {"time": 257041, "pitch": 74, "duration": 40, "velocity": 90}, {"time": 257041, "pitch": 86, "duration": 40, "velocity": 120}, {"time": 257041, "pitch": 98, "duration": 40, "velocity": 120}, {"time": 257523, "pitch": 71, "duration": 40, "velocity": 90}, {"time": 257523, "pitch": 83, "duration": 40, "velocity": 120}, {"time": 257523, "pitch": 95, "duration": 40, "velocity": 120}, {"time": 259440, "pitch": 73, "duration": 110, "velocity": 120}, {"time": 259440, "pitch": 85, "duration": 110, "velocity": 120}, {"time": 259440, "pitch": 97, "duration": 110, "velocity": 110}, {"time": 259681, "pitch": 80, "duration": 110, "velocity": 120}, {"time": 259681, "pitch": 92, "duration": 110, "velocity": 120}, {"time": 259681, "pitch": 104, "duration": 110, "velocity": 110}, {"time": 260163, "pitch": 78, "duration": 110, "velocity": 120}, {"time": 260163, "pitch": 90, "duration": 110, "velocity": 120}, {"time": 260163, "pitch": 102, "duration": 110, "velocity": 110}, {"time": 260403, "pitch": 76, "duration": 111, "velocity": 120}, {"time": 260403, "pitch": 88, "duration": 111, "velocity": 120}, {"time": 260403, "pitch": 100, "duration": 111, "velocity": 110}, {"time": 260880, "pitch": 78, "duration": 109, "velocity": 120}, {"time": 260880, "pitch": 90, "duration": 109, "velocity": 120}, {"time": 260880, "pitch": 102, "duration": 109, "velocity": 110}, {"time": 261357, "pitch": 80, "duration": 111, "velocity": 120}, {"time": 261357, "pitch": 92, "duration": 111, "velocity": 120}, {"time": 261357, "pitch": 104, "duration": 111, "velocity": 110}, {"time": 261839, "pitch": 73, "duration": 110, "velocity": 120}, {"time": 261839, "pitch": 85, "duration": 110, "velocity": 120}, {"time": 261839, "pitch": 97, "duration": 110, "velocity": 110}, {"time": 263279, "pitch": 75, "duration": 109, "velocity": 120}, {"time": 263279, "pitch": 87, "duration": 109, "velocity": 120}, {"time": 263279, "pitch": 99, "duration": 109, "velocity": 110}, {"time": 263515, "pitch": 83, "duration": 111, "velocity": 120}, {"time": 263515, "pitch": 95, "duration": 111, "velocity": 120}, {"time": 263515, "pitch": 107, "duration": 111, "velocity": 110}, {"time": 263997, "pitch": 81, "duration": 111, "velocity": 120}, {"time": 263997, "pitch": 93, "duration": 111, "velocity": 120}, {"time": 263997, "pitch": 105, "duration": 111, "velocity": 110}, {"time": 264238, "pitch": 80, "duration": 110, "velocity": 120}, {"time": 264238, "pitch": 92, "duration": 110, "velocity": 120}, {"time": 264238, "pitch": 104, "duration": 110, "velocity": 110}, {"time": 264720, "pitch": 81, "duration": 110, "velocity": 120}, {"time": 264720, "pitch": 93, "duration": 110, "velocity": 120}, {"time": 264720, "pitch": 105, "duration": 110, "velocity": 110}, {"time": 265202, "pitch": 83, "duration": 110, "velocity": 120}, {"time": 265202, "pitch": 95, "duration": 110, "velocity": 120}, {"time": 265202, "pitch": 107, "duration": 110, "velocity": 110}, {"time": 265683, "pitch": 80, "duration": 111, "velocity": 120}, {"time": 265683, "pitch": 92, "duration": 111, "velocity": 120}, {"time": 265683, "pitch": 104, "duration": 111, "velocity": 110}, {"time": 266160, "pitch": 76, "duration": 108, "velocity": 120}, {"time": 266160, "pitch": 88, "duration": 108, "velocity": 120}, {"time": 266160, "pitch": 100, "duration": 108, "velocity": 110}, {"time": 267119, "pitch": 73, "duration": 110, "velocity": 120}, {"time": 267119, "pitch": 85, "duration": 110, "velocity": 120}, {"time": 267119, "pitch": 97, "duration": 110, "velocity": 110}, {"time": 267360, "pitch": 80, "duration": 110, "velocity": 120}, {"time": 267360, "pitch": 92, "duration": 110, "velocity": 120}, {"time": 267360, "pitch": 104, "duration": 110, "velocity": 110}, {"time": 267841, "pitch": 78, "duration": 111, "velocity": 120}, {"time": 267841, "pitch": 90, "duration": 111, "velocity": 120}, {"time": 267841, "pitch": 102, "duration": 111, "velocity": 110}, {"time": 268082, "pitch": 76, "duration": 111, "velocity": 120}, {"time": 268082, "pitch": 88, "duration": 111, "velocity": 120}, {"time": 268082, "pitch": 100, "duration": 111, "velocity": 110}, {"time": 268559, "pitch": 78, "duration": 108, "velocity": 120}, {"time": 268559, "pitch": 90, "duration": 108, "velocity": 120}, {"time": 268559, "pitch": 102, "duration": 108, "velocity": 110}, {"time": 269036, "pitch": 80, "duration": 110, "velocity": 120}, {"time": 269036, "pitch": 92, "duration": 110, "velocity": 120}, {"time": 269036, "pitch": 104, "duration": 110, "velocity": 110}, {"time": 269518, "pitch": 73, "duration": 110, "velocity": 120}, {"time": 269518, "pitch": 85, "duration": 110, "velocity": 120}, {"time": 269518, "pitch": 97, "duration": 110, "velocity": 110}, {"time": 270000, "pitch": 75, "duration": 110, "velocity": 120}, {"time": 270000, "pitch": 87, "duration": 110, "velocity": 120}, {"time": 270000, "pitch": 99, "duration": 110, "velocity": 110}, {"time": 270481, "pitch": 76, "duration": 111, "velocity": 120}, {"time": 270481, "pitch": 88, "duration": 111, "velocity": 120}, {"time": 270481, "pitch": 100, "duration": 111, "velocity": 110}, {"time": 270722, "pitch": 78, "duration": 111, "velocity": 120}, {"time": 270722, "pitch": 90, "duration": 111, "velocity": 120}, {"time": 270722, "pitch": 102, "duration": 111, "velocity": 110}, {"time": 270963, "pitch": 80, "duration": 111, "velocity": 120}, {"time": 270963, "pitch": 92, "duration": 111, "velocity": 120}, {"time": 270963, "pitch": 104, "duration": 111, "velocity": 110}, {"time": 271204, "pitch": 81, "duration": 108, "velocity": 120}, {"time": 271204, "pitch": 93, "duration": 108, "velocity": 120}, {"time": 271204, "pitch": 105, "duration": 108, "velocity": 110}, {"time": 271676, "pitch": 80, "duration": 110, "velocity": 120}, {"time": 271676, "pitch": 92, "duration": 110, "velocity": 120}, {"time": 271676, "pitch": 104, "duration": 110, "velocity": 110}, {"time": 271917, "pitch": 78, "duration": 110, "velocity": 120}, {"time": 271917, "pitch": 90, "duration": 110, "velocity": 120}, {"time": 271917, "pitch": 102, "duration": 110, "velocity": 110}, {"time": 272399, "pitch": 76, "duration": 110, "velocity": 120}, {"time": 272399, "pitch": 88, "duration": 110, "velocity": 120}, {"time": 272399, "pitch": 100, "duration": 110, "velocity": 110}, {"time": 272880, "pitch": 83, "duration": 111, "velocity": 120}, {"time": 272880, "pitch": 95, "duration": 111, "velocity": 120}, {"time": 272880, "pitch": 107, "duration": 111, "velocity": 110}, {"time": 273603, "pitch": 81, "duration": 110, "velocity": 120}, {"time": 273603, "pitch": 93, "duration": 110, "velocity": 120}, {"time": 273603, "pitch": 105, "duration": 110, "velocity": 110}, {"time": 273844, "pitch": 76, "duration": 110, "velocity": 120}, {"time": 273844, "pitch": 88, "duration": 110, "velocity": 120}, {"time": 273844, "pitch": 100, "duration": 110, "velocity": 110}, {"time": 274321, "pitch": 78, "duration": 108, "velocity": 120}, {"time": 274321, "pitch": 90, "duration": 108, "velocity": 120}, {"time": 274321, "pitch": 102, "duration": 108, "velocity": 110}, {"time": 20161, "pitch": 64, "duration": 231, "velocity": 110}, {"time": 20402, "pitch": 63, "duration": 231, "velocity": 100}, {"time": 20643, "pitch": 64, "duration": 231, "velocity": 110}, {"time": 20884, "pitch": 63, "duration": 231, "velocity": 105}, {"time": 21125, "pitch": 64, "duration": 226, "velocity": 100}, {"time": 21361, "pitch": 66, "duration": 108, "velocity": 105}, {"time": 21479, "pitch": 68, "duration": 589, "velocity": 110}, {"time": 22319, "pitch": 61, "duration": 472, "velocity": 110}, {"time": 22801, "pitch": 63, "duration": 231, "velocity": 105}, {"time": 23042, "pitch": 64, "duration": 231, "velocity": 110}, {"time": 23283, "pitch": 66, "duration": 231, "velocity": 100}, {"time": 23524, "pitch": 68, "duration": 462, "velocity": 110}, {"time": 23996, "pitch": 66, "duration": 230, "velocity": 105}, {"time": 24237, "pitch": 68, "duration": 471, "velocity": 110}, {"time": 24718, "pitch": 66, "duration": 231, "velocity": 105}, {"time": 24959, "pitch": 61, "duration": 1435, "velocity": 110}, {"time": 27358, "pitch": 64, "duration": 472, "velocity": 110}, {"time": 27840, "pitch": 63, "duration": 231, "velocity": 105}, {"time": 28081, "pitch": 63, "duration": 472, "velocity": 110}, {"time": 28563, "pitch": 64, "duration": 230, "velocity": 105}, {"time": 28803, "pitch": 66, "duration": 227, "velocity": 100}, {"time": 29040, "pitch": 63, "duration": 707, "velocity": 110}, {"time": 29998, "pitch": 63, "duration": 472, "velocity": 110}, {"time": 30480, "pitch": 64, "duration": 231, "velocity": 105}, {"time": 30721, "pitch": 66, "duration": 231, "velocity": 110}, {"time": 30962, "pitch": 68, "duration": 231, "velocity": 100}, {"time": 31203, "pitch": 69, "duration": 471, "velocity": 110}, {"time": 31684, "pitch": 68, "duration": 226, "velocity": 105}, {"time": 31920, "pitch": 68, "duration": 467, "velocity": 110}, {"time": 32397, "pitch": 66, "duration": 231, "velocity": 105}, {"time": 32638, "pitch": 64, "duration": 231, "velocity": 100}, {"time": 32879, "pitch": 68, "duration": 1194, "velocity": 110}, {"time": 35037, "pitch": 64, "duration": 231, "velocity": 110}, {"time": 35278, "pitch": 63, "duration": 231, "velocity": 100}, {"time": 35519, "pitch": 64, "duration": 231, "velocity": 105}, {"time": 35760, "pitch": 63, "duration": 110, "velocity": 100}, {"time": 35880, "pitch": 64, "duration": 351, "velocity": 110}, {"time": 36242, "pitch": 63, "duration": 230, "velocity": 105}, {"time": 36482, "pitch": 64, "duration": 231, "velocity": 110}, {"time": 36723, "pitch": 66, "duration": 231, "velocity": 100}, {"time": 36964, "pitch": 68, "duration": 462, "velocity": 110}, {"time": 37677, "pitch": 61, "duration": 472, "velocity": 110}, {"time": 38159, "pitch": 63, "duration": 231, "velocity": 105}, {"time": 38400, "pitch": 64, "duration": 231, "velocity": 110}, {"time": 38641, "pitch": 61, "duration": 230, "velocity": 100}, {"time": 38881, "pitch": 68, "duration": 472, "velocity": 110}, {"time": 39363, "pitch": 66, "duration": 226, "velocity": 105}, {"time": 39599, "pitch": 68, "duration": 467, "velocity": 110}, {"time": 40076, "pitch": 66, "duration": 231, "velocity": 105}, {"time": 40317, "pitch": 61, "duration": 1435, "velocity": 110}, {"time": 42480, "pitch": 61, "duration": 108, "velocity": 110}, {"time": 42598, "pitch": 63, "duration": 108, "velocity": 105}, {"time": 42716, "pitch": 64, "duration": 472, "velocity": 110}, {"time": 43198, "pitch": 63, "duration": 231, "velocity": 100}, {"time": 43439, "pitch": 63, "duration": 562, "velocity": 105}, {"time": 44402, "pitch": 63, "duration": 111, "velocity": 110}, {"time": 44523, "pitch": 64, "duration": 110, "velocity": 105}, {"time": 44643, "pitch": 66, "duration": 472, "velocity": 110}, {"time": 45125, "pitch": 64, "duration": 226, "velocity": 100}, {"time": 45361, "pitch": 64, "duration": 467, "velocity": 105}, {"time": 45838, "pitch": 66, "duration": 471, "velocity": 110}, {"time": 46319, "pitch": 68, "duration": 231, "velocity": 100}, {"time": 46560, "pitch": 71, "duration": 472, "velocity": 110}, {"time": 47042, "pitch": 69, "duration": 231, "velocity": 100}, {"time": 47283, "pitch": 68, "duration": 467, "velocity": 105}, {"time": 47760, "pitch": 66, "duration": 226, "velocity": 110}, {"time": 47996, "pitch": 64, "duration": 231, "velocity": 105}, {"time": 48237, "pitch": 68, "duration": 1445, "velocity": 110}, {"time": 50405, "pitch": 68, "duration": 462, "velocity": 110}, {"time": 50877, "pitch": 66, "duration": 230, "velocity": 105}, {"time": 51117, "pitch": 66, "duration": 472, "velocity": 110}, {"time": 51599, "pitch": 61, "duration": 231, "velocity": 105}, {"time": 51840, "pitch": 66, "duration": 1797, "velocity": 110}, {"time": 54239, "pitch": 69, "duration": 472, "velocity": 110}, {"time": 54721, "pitch": 69, "duration": 231, "velocity": 100}, {"time": 54962, "pitch": 68, "duration": 472, "velocity": 105}, {"time": 55444, "pitch": 66, "duration": 230, "velocity": 110}, {"time": 55684, "pitch": 63, "duration": 227, "velocity": 105}, {"time": 55920, "pitch": 63, "duration": 708, "velocity": 110}, {"time": 56638, "pitch": 64, "duration": 231, "velocity": 100}, {"time": 56879, "pitch": 64, "duration": 673, "velocity": 105}, {"time": 58083, "pitch": 68, "duration": 453, "velocity": 110}, {"time": 58556, "pitch": 66, "duration": 220, "velocity": 105}, {"time": 58796, "pitch": 66, "duration": 462, "velocity": 110}, {"time": 59278, "pitch": 61, "duration": 221, "velocity": 105}, {"time": 59519, "pitch": 66, "duration": 1465, "velocity": 110}, {"time": 61200, "pitch": 66, "duration": 217, "velocity": 110}, {"time": 61436, "pitch": 68, "duration": 221, "velocity": 100}, {"time": 61677, "pitch": 69, "duration": 221, "velocity": 105}, {"time": 61918, "pitch": 69, "duration": 472, "velocity": 110}, {"time": 62400, "pitch": 68, "duration": 221, "velocity": 105}, {"time": 62641, "pitch": 69, "duration": 471, "velocity": 110}, {"time": 63122, "pitch": 71, "duration": 467, "velocity": 105}, {"time": 63599, "pitch": 73, "duration": 477, "velocity": 110}, {"time": 64076, "pitch": 71, "duration": 231, "velocity": 105}, {"time": 64317, "pitch": 71, "duration": 1927, "velocity": 110}, {"time": 66957, "pitch": 64, "duration": 231, "velocity": 110}, {"time": 67198, "pitch": 66, "duration": 231, "velocity": 100}, {"time": 67439, "pitch": 68, "duration": 231, "velocity": 105}, {"time": 67680, "pitch": 71, "duration": 361, "velocity": 110}, {"time": 68161, "pitch": 71, "duration": 221, "velocity": 105}, {"time": 68402, "pitch": 69, "duration": 477, "velocity": 110}, {"time": 68879, "pitch": 68, "duration": 457, "velocity": 105}, {"time": 69356, "pitch": 71, "duration": 1305, "velocity": 110}, {"time": 70801, "pitch": 64, "duration": 231, "velocity": 110}, {"time": 71042, "pitch": 66, "duration": 231, "velocity": 100}, {"time": 71283, "pitch": 68, "duration": 231, "velocity": 105}, {"time": 71524, "pitch": 71, "duration": 452, "velocity": 110}, {"time": 71996, "pitch": 71, "duration": 231, "velocity": 105}, {"time": 72237, "pitch": 69, "duration": 482, "velocity": 110}, {"time": 72719, "pitch": 68, "duration": 451, "velocity": 105}, {"time": 73200, "pitch": 71, "duration": 482, "velocity": 110}, {"time": 73682, "pitch": 69, "duration": 241, "velocity": 105}, {"time": 73923, "pitch": 68, "duration": 221, "velocity": 100}, {"time": 74164, "pitch": 64, "duration": 673, "velocity": 110}, {"time": 75118, "pitch": 64, "duration": 241, "velocity": 105}, {"time": 75359, "pitch": 73, "duration": 411, "velocity": 110}, {"time": 75840, "pitch": 73, "duration": 171, "velocity": 100}, {"time": 76081, "pitch": 71, "duration": 472, "velocity": 110}, {"time": 76563, "pitch": 69, "duration": 231, "velocity": 105}, {"time": 76804, "pitch": 69, "duration": 226, "velocity": 100}, {"time": 77040, "pitch": 71, "duration": 1280, "velocity": 110}, {"time": 78480, "pitch": 68, "duration": 231, "velocity": 110}, {"time": 78721, "pitch": 69, "duration": 231, "velocity": 100}, {"time": 78962, "pitch": 71, "duration": 221, "velocity": 105}, {"time": 79203, "pitch": 72, "duration": 462, "velocity": 110}, {"time": 79685, "pitch": 71, "duration": 216, "velocity": 105}, {"time": 79921, "pitch": 72, "duration": 456, "velocity": 110}, {"time": 80397, "pitch": 74, "duration": 402, "velocity": 105}, {"time": 80879, "pitch": 71, "duration": 1283, "velocity": 110}, {"time": 82320, "pitch": 64, "duration": 226, "velocity": 110}, {"time": 82556, "pitch": 66, "duration": 230, "velocity": 100}, {"time": 82796, "pitch": 68, "duration": 231, "velocity": 105}, {"time": 83037, "pitch": 71, "duration": 472, "velocity": 110}, {"time": 83519, "pitch": 71, "duration": 201, "velocity": 105}, {"time": 83760, "pitch": 69, "duration": 472, "velocity": 110}, {"time": 84242, "pitch": 68, "duration": 431, "velocity": 105}, {"time": 84724, "pitch": 71, "duration": 1335, "velocity": 110}, {"time": 86159, "pitch": 64, "duration": 221, "velocity": 110}, {"time": 86400, "pitch": 66, "duration": 221, "velocity": 100}, {"time": 86641, "pitch": 68, "duration": 211, "velocity": 105}, {"time": 86882, "pitch": 71, "duration": 401, "velocity": 110}, {"time": 87363, "pitch": 71, "duration": 227, "velocity": 105}, {"time": 87599, "pitch": 69, "duration": 457, "velocity": 110}, {"time": 88076, "pitch": 68, "duration": 482, "velocity": 105}, {"time": 88558, "pitch": 71, "duration": 462, "velocity": 110}, {"time": 89040, "pitch": 69, "duration": 221, "velocity": 105}, {"time": 89281, "pitch": 68, "duration": 221, "velocity": 100}, {"time": 89522, "pitch": 64, "duration": 672, "velocity": 110}, {"time": 90480, "pitch": 64, "duration": 217, "velocity": 105}, {"time": 90716, "pitch": 73, "duration": 362, "velocity": 110}, {"time": 91198, "pitch": 73, "duration": 221, "velocity": 105}, {"time": 91439, "pitch": 71, "duration": 421, "velocity": 110}, {"time": 91921, "pitch": 69, "duration": 160, "velocity": 105}, {"time": 92162, "pitch": 69, "duration": 220, "velocity": 100}, {"time": 92402, "pitch": 71, "duration": 1315, "velocity": 110}, {"time": 93838, "pitch": 68, "duration": 221, "velocity": 110}, {"time": 94079, "pitch": 69, "duration": 221, "velocity": 100}, {"time": 94320, "pitch": 71, "duration": 221, "velocity": 105}, {"time": 94561, "pitch": 72, "duration": 451, "velocity": 110}, {"time": 95042, "pitch": 71, "duration": 221, "velocity": 100}, {"time": 95283, "pitch": 72, "duration": 457, "velocity": 110}, {"time": 95760, "pitch": 74, "duration": 457, "velocity": 105}, {"time": 96237, "pitch": 71, "duration": 1004, "velocity": 110}, {"time": 97441, "pitch": 69, "duration": 231, "velocity": 110}, {"time": 97682, "pitch": 68, "duration": 231, "velocity": 105}, {"time": 97923, "pitch": 64, "duration": 226, "velocity": 100}, {"time": 98159, "pitch": 66, "duration": 226, "velocity": 105}, {"time": 98395, "pitch": 64, "duration": 1917, "velocity": 110}, {"time": 102721, "pitch": 64, "duration": 231, "velocity": 110}, {"time": 102962, "pitch": 63, "duration": 231, "velocity": 100}, {"time": 103203, "pitch": 64, "duration": 231, "velocity": 105}, {"time": 103444, "pitch": 63, "duration": 231, "velocity": 100}, {"time": 103685, "pitch": 64, "duration": 226, "velocity": 110}, {"time": 103921, "pitch": 66, "duration": 108, "velocity": 105}, {"time": 104039, "pitch": 68, "duration": 589, "velocity": 110}, {"time": 104879, "pitch": 61, "duration": 472, "velocity": 110}, {"time": 105361, "pitch": 63, "duration": 231, "velocity": 105}, {"time": 105602, "pitch": 64, "duration": 231, "velocity": 110}, {"time": 105843, "pitch": 66, "duration": 231, "velocity": 100}, {"time": 106084, "pitch": 68, "duration": 462, "velocity": 110}, {"time": 106556, "pitch": 66, "duration": 231, "velocity": 100}, {"time": 106797, "pitch": 68, "duration": 361, "velocity": 105}, {"time": 107278, "pitch": 66, "duration": 231, "velocity": 105}, {"time": 107519, "pitch": 61, "duration": 1436, "velocity": 110}, {"time": 109918, "pitch": 64, "duration": 472, "velocity": 110}, {"time": 110400, "pitch": 63, "duration": 231, "velocity": 100}, {"time": 110641, "pitch": 63, "duration": 472, "velocity": 105}, {"time": 111123, "pitch": 64, "duration": 231, "velocity": 110}, {"time": 111364, "pitch": 66, "duration": 226, "velocity": 105}, {"time": 111600, "pitch": 63, "duration": 707, "velocity": 110}, {"time": 112558, "pitch": 63, "duration": 472, "velocity": 110}, {"time": 113040, "pitch": 64, "duration": 231, "velocity": 105}, {"time": 113281, "pitch": 66, "duration": 231, "velocity": 110}, {"time": 113522, "pitch": 68, "duration": 231, "velocity": 100}, {"time": 113763, "pitch": 69, "duration": 471, "velocity": 110}, {"time": 114244, "pitch": 68, "duration": 227, "velocity": 100}, {"time": 114480, "pitch": 68, "duration": 467, "velocity": 105}, {"time": 114957, "pitch": 66, "duration": 231, "velocity": 110}, {"time": 115198, "pitch": 64, "duration": 231, "velocity": 105}, {"time": 115439, "pitch": 68, "duration": 1194, "velocity": 110}, {"time": 117597, "pitch": 64, "duration": 231, "velocity": 110}, {"time": 117838, "pitch": 63, "duration": 231, "velocity": 105}, {"time": 118079, "pitch": 64, "duration": 231, "velocity": 110}, {"time": 118320, "pitch": 63, "duration": 110, "velocity": 100}, {"time": 118440, "pitch": 64, "duration": 352, "velocity": 110}, {"time": 118802, "pitch": 63, "duration": 230, "velocity": 105}, {"time": 119043, "pitch": 64, "duration": 230, "velocity": 110}, {"time": 119283, "pitch": 66, "duration": 231, "velocity": 100}, {"time": 119524, "pitch": 68, "duration": 462, "velocity": 110}, {"time": 120237, "pitch": 61, "duration": 472, "velocity": 110}, {"time": 120719, "pitch": 63, "duration": 231, "velocity": 105}, {"time": 120960, "pitch": 64, "duration": 231, "velocity": 110}, {"time": 121201, "pitch": 61, "duration": 230, "velocity": 100}, {"time": 121442, "pitch": 68, "duration": 471, "velocity": 110}, {"time": 121923, "pitch": 66, "duration": 226, "velocity": 105}, {"time": 122159, "pitch": 68, "duration": 467, "velocity": 110}, {"time": 122636, "pitch": 66, "duration": 231, "velocity": 105}, {"time": 122877, "pitch": 61, "duration": 1435, "velocity": 110}, {"time": 125040, "pitch": 61, "duration": 108, "velocity": 105}, {"time": 125158, "pitch": 63, "duration": 108, "velocity": 100}, {"time": 125276, "pitch": 64, "duration": 472, "velocity": 110}, {"time": 125758, "pitch": 63, "duration": 231, "velocity": 105}, {"time": 125999, "pitch": 63, "duration": 401, "velocity": 110}, {"time": 126962, "pitch": 63, "duration": 111, "velocity": 110}, {"time": 127083, "pitch": 64, "duration": 110, "velocity": 105}, {"time": 127203, "pitch": 66, "duration": 462, "velocity": 110}, {"time": 127675, "pitch": 64, "duration": 231, "velocity": 100}, {"time": 127916, "pitch": 64, "duration": 361, "velocity": 105}, {"time": 128398, "pitch": 66, "duration": 471, "velocity": 110}, {"time": 128880, "pitch": 68, "duration": 230, "velocity": 105}, {"time": 129120, "pitch": 71, "duration": 472, "velocity": 110}, {"time": 129602, "pitch": 69, "duration": 231, "velocity": 100}, {"time": 129843, "pitch": 68, "duration": 467, "velocity": 105}, {"time": 130320, "pitch": 66, "duration": 226, "velocity": 110}, {"time": 130556, "pitch": 64, "duration": 231, "velocity": 105}, {"time": 130797, "pitch": 68, "duration": 1194, "velocity": 110}, {"time": 132965, "pitch": 68, "duration": 462, "velocity": 110}, {"time": 133437, "pitch": 66, "duration": 231, "velocity": 105}, {"time": 133678, "pitch": 66, "duration": 471, "velocity": 110}, {"time": 134159, "pitch": 61, "duration": 231, "velocity": 105}, {"time": 134400, "pitch": 66, "duration": 1416, "velocity": 110}, {"time": 136799, "pitch": 69, "duration": 472, "velocity": 110}, {"time": 137281, "pitch": 69, "duration": 231, "velocity": 105}, {"time": 137522, "pitch": 68, "duration": 472, "velocity": 110}, {"time": 138004, "pitch": 66, "duration": 231, "velocity": 105}, {"time": 138244, "pitch": 63, "duration": 227, "velocity": 100}, {"time": 138481, "pitch": 63, "duration": 707, "velocity": 110}, {"time": 139198, "pitch": 64, "duration": 231, "velocity": 100}, {"time": 139439, "pitch": 64, "duration": 673, "velocity": 105}, {"time": 140644, "pitch": 68, "duration": 452, "velocity": 110}, {"time": 141116, "pitch": 66, "duration": 230, "velocity": 105}, {"time": 141356, "pitch": 66, "duration": 442, "velocity": 110}, {"time": 141838, "pitch": 61, "duration": 221, "velocity": 105}, {"time": 142079, "pitch": 66, "duration": 1465, "velocity": 110}, {"time": 143760, "pitch": 66, "duration": 217, "velocity": 110}, {"time": 143996, "pitch": 68, "duration": 221, "velocity": 100}, {"time": 144237, "pitch": 69, "duration": 221, "velocity": 105}, {"time": 144478, "pitch": 69, "duration": 472, "velocity": 110}, {"time": 144960, "pitch": 68, "duration": 221, "velocity": 100}, {"time": 145201, "pitch": 69, "duration": 472, "velocity": 110}, {"time": 145683, "pitch": 71, "duration": 467, "velocity": 105}, {"time": 146159, "pitch": 73, "duration": 477, "velocity": 110}, {"time": 146636, "pitch": 71, "duration": 231, "velocity": 105}, {"time": 146877, "pitch": 71, "duration": 954, "velocity": 110}, {"time": 149517, "pitch": 64, "duration": 231, "velocity": 105}, {"time": 149758, "pitch": 66, "duration": 231, "velocity": 110}, {"time": 149999, "pitch": 68, "duration": 231, "velocity": 100}, {"time": 150240, "pitch": 71, "duration": 411, "velocity": 110}, {"time": 150722, "pitch": 71, "duration": 220, "velocity": 105}, {"time": 150962, "pitch": 69, "duration": 477, "velocity": 110}, {"time": 151439, "pitch": 68, "duration": 427, "velocity": 105}, {"time": 151916, "pitch": 71, "duration": 1305, "velocity": 110}, {"time": 153361, "pitch": 64, "duration": 231, "velocity": 110}, {"time": 153602, "pitch": 66, "duration": 231, "velocity": 100}, {"time": 153843, "pitch": 68, "duration": 231, "velocity": 105}, {"time": 154084, "pitch": 71, "duration": 413, "velocity": 110}, {"time": 154556, "pitch": 71, "duration": 221, "velocity": 100}, {"time": 154797, "pitch": 69, "duration": 482, "velocity": 110}, {"time": 155279, "pitch": 68, "duration": 461, "velocity": 105}, {"time": 155760, "pitch": 71, "duration": 472, "velocity": 110}, {"time": 156242, "pitch": 69, "duration": 241, "velocity": 100}, {"time": 156483, "pitch": 68, "duration": 221, "velocity": 105}, {"time": 156724, "pitch": 64, "duration": 674, "velocity": 110}, {"time": 157678, "pitch": 64, "duration": 221, "velocity": 105}, {"time": 157919, "pitch": 73, "duration": 421, "velocity": 110}, {"time": 158400, "pitch": 73, "duration": 221, "velocity": 100}, {"time": 158641, "pitch": 71, "duration": 472, "velocity": 105}, {"time": 159123, "pitch": 69, "duration": 231, "velocity": 110}, {"time": 159364, "pitch": 69, "duration": 226, "velocity": 105}, {"time": 159600, "pitch": 71, "duration": 1280, "velocity": 110}, {"time": 161040, "pitch": 68, "duration": 231, "velocity": 110}, {"time": 161281, "pitch": 69, "duration": 231, "velocity": 100}, {"time": 161522, "pitch": 71, "duration": 231, "velocity": 105}, {"time": 161763, "pitch": 72, "duration": 422, "velocity": 110}, {"time": 162245, "pitch": 71, "duration": 216, "velocity": 105}, {"time": 162481, "pitch": 72, "duration": 416, "velocity": 110}, {"time": 162958, "pitch": 74, "duration": 401, "velocity": 105}, {"time": 163439, "pitch": 71, "duration": 1283, "velocity": 110}, {"time": 164880, "pitch": 64, "duration": 226, "velocity": 110}, {"time": 165116, "pitch": 66, "duration": 231, "velocity": 100}, {"time": 165357, "pitch": 68, "duration": 230, "velocity": 105}, {"time": 165597, "pitch": 71, "duration": 472, "velocity": 110}, {"time": 166079, "pitch": 71, "duration": 201, "velocity": 105}, {"time": 166320, "pitch": 69, "duration": 472, "velocity": 110}, {"time": 166802, "pitch": 68, "duration": 431, "velocity": 105}, {"time": 167284, "pitch": 71, "duration": 1335, "velocity": 110}, {"time": 168719, "pitch": 64, "duration": 221, "velocity": 110}, {"time": 168960, "pitch": 66, "duration": 221, "velocity": 100}, {"time": 169201, "pitch": 68, "duration": 211, "velocity": 105}, {"time": 169442, "pitch": 71, "duration": 401, "velocity": 110}, {"time": 169924, "pitch": 71, "duration": 226, "velocity": 105}, {"time": 170160, "pitch": 69, "duration": 456, "velocity": 110}, {"time": 170636, "pitch": 68, "duration": 482, "velocity": 105}, {"time": 171118, "pitch": 71, "duration": 462, "velocity": 110}, {"time": 171600, "pitch": 69, "duration": 221, "velocity": 105}, {"time": 171841, "pitch": 68, "duration": 221, "velocity": 100}, {"time": 172082, "pitch": 64, "duration": 672, "velocity": 110}, {"time": 173040, "pitch": 64, "duration": 217, "velocity": 105}, {"time": 173276, "pitch": 73, "duration": 362, "velocity": 110}, {"time": 173758, "pitch": 73, "duration": 221, "velocity": 105}, {"time": 173999, "pitch": 71, "duration": 422, "velocity": 110}, {"time": 174481, "pitch": 69, "duration": 160, "velocity": 105}, {"time": 174722, "pitch": 69, "duration": 220, "velocity": 100}, {"time": 174963, "pitch": 71, "duration": 1315, "velocity": 110}, {"time": 176398, "pitch": 68, "duration": 221, "velocity": 110}, {"time": 176639, "pitch": 69, "duration": 221, "velocity": 100}, {"time": 176880, "pitch": 71, "duration": 221, "velocity": 105}, {"time": 177121, "pitch": 72, "duration": 451, "velocity": 110}, {"time": 177602, "pitch": 71, "duration": 221, "velocity": 100}, {"time": 177843, "pitch": 72, "duration": 458, "velocity": 110}, {"time": 178320, "pitch": 74, "duration": 457, "velocity": 105}, {"time": 178797, "pitch": 71, "duration": 1004, "velocity": 110}, {"time": 180002, "pitch": 69, "duration": 230, "velocity": 110}, {"time": 180242, "pitch": 68, "duration": 231, "velocity": 105}, {"time": 180483, "pitch": 64, "duration": 226, "velocity": 100}, {"time": 180719, "pitch": 66, "duration": 226, "velocity": 105}, {"time": 180955, "pitch": 64, "duration": 1917, "velocity": 110}, {"time": 228243, "pitch": 64, "duration": 231, "velocity": 110}, {"time": 228483, "pitch": 66, "duration": 227, "velocity": 100}, {"time": 228720, "pitch": 68, "duration": 226, "velocity": 105}, {"time": 228956, "pitch": 71, "duration": 361, "velocity": 110}, {"time": 229437, "pitch": 71, "duration": 221, "velocity": 105}, {"time": 229678, "pitch": 69, "duration": 482, "velocity": 110}, {"time": 230160, "pitch": 68, "duration": 462, "velocity": 105}, {"time": 230642, "pitch": 71, "duration": 1295, "velocity": 110}, {"time": 232077, "pitch": 64, "duration": 231, "velocity": 110}, {"time": 232318, "pitch": 66, "duration": 231, "velocity": 100}, {"time": 232559, "pitch": 68, "duration": 231, "velocity": 105}, {"time": 232800, "pitch": 71, "duration": 462, "velocity": 110}, {"time": 233282, "pitch": 71, "duration": 230, "velocity": 105}, {"time": 233523, "pitch": 69, "duration": 476, "velocity": 110}, {"time": 233999, "pitch": 68, "duration": 447, "velocity": 105}, {"time": 234476, "pitch": 71, "duration": 482, "velocity": 110}, {"time": 234958, "pitch": 69, "duration": 241, "velocity": 105}, {"time": 235199, "pitch": 68, "duration": 221, "velocity": 100}, {"time": 235440, "pitch": 64, "duration": 682, "velocity": 110}, {"time": 236403, "pitch": 64, "duration": 241, "velocity": 105}, {"time": 236644, "pitch": 73, "duration": 403, "velocity": 110}, {"time": 237116, "pitch": 73, "duration": 171, "velocity": 100}, {"time": 237357, "pitch": 71, "duration": 472, "velocity": 110}, {"time": 237839, "pitch": 69, "duration": 231, "velocity": 105}, {"time": 238080, "pitch": 69, "duration": 231, "velocity": 100}, {"time": 238321, "pitch": 71, "duration": 1275, "velocity": 110}, {"time": 239756, "pitch": 68, "duration": 231, "velocity": 110}, {"time": 239997, "pitch": 69, "duration": 231, "velocity": 100}, {"time": 240238, "pitch": 71, "duration": 221, "velocity": 105}, {"time": 240479, "pitch": 72, "duration": 461, "velocity": 110}, {"time": 240961, "pitch": 71, "duration": 220, "velocity": 105}, {"time": 241201, "pitch": 72, "duration": 462, "velocity": 110}, {"time": 241683, "pitch": 74, "duration": 398, "velocity": 105}, {"time": 242160, "pitch": 71, "duration": 1280, "velocity": 110}, {"time": 243600, "pitch": 64, "duration": 231, "velocity": 110}, {"time": 243841, "pitch": 66, "duration": 231, "velocity": 100}, {"time": 244082, "pitch": 68, "duration": 231, "velocity": 105}, {"time": 244323, "pitch": 71, "duration": 472, "velocity": 110}, {"time": 244805, "pitch": 71, "duration": 196, "velocity": 105}, {"time": 245041, "pitch": 69, "duration": 467, "velocity": 110}, {"time": 245518, "pitch": 68, "duration": 431, "velocity": 105}, {"time": 245999, "pitch": 71, "duration": 1343, "velocity": 110}, {"time": 247440, "pitch": 64, "duration": 216, "velocity": 110}, {"time": 247676, "pitch": 66, "duration": 221, "velocity": 100}, {"time": 247917, "pitch": 68, "duration": 221, "velocity": 105}, {"time": 248158, "pitch": 71, "duration": 401, "velocity": 110}, {"time": 248639, "pitch": 71, "duration": 231, "velocity": 105}, {"time": 248880, "pitch": 69, "duration": 462, "velocity": 110}, {"time": 249362, "pitch": 68, "duration": 482, "velocity": 105}, {"time": 249844, "pitch": 71, "duration": 457, "velocity": 110}, {"time": 250321, "pitch": 69, "duration": 216, "velocity": 105}, {"time": 250557, "pitch": 68, "duration": 220, "velocity": 100}, {"time": 250798, "pitch": 64, "duration": 672, "velocity": 110}, {"time": 251761, "pitch": 64, "duration": 221, "velocity": 105}, {"time": 252002, "pitch": 73, "duration": 361, "velocity": 110}, {"time": 252484, "pitch": 73, "duration": 216, "velocity": 105}, {"time": 252720, "pitch": 71, "duration": 416, "velocity": 110}, {"time": 253197, "pitch": 69, "duration": 160, "velocity": 105}, {"time": 253437, "pitch": 69, "duration": 221, "velocity": 100}, {"time": 253678, "pitch": 71, "duration": 1325, "velocity": 110}, {"time": 255124, "pitch": 68, "duration": 220, "velocity": 110}, {"time": 255364, "pitch": 69, "duration": 217, "velocity": 100}, {"time": 255600, "pitch": 71, "duration": 217, "velocity": 105}, {"time": 255837, "pitch": 72, "duration": 451, "velocity": 110}, {"time": 256318, "pitch": 71, "duration": 221, "velocity": 100}, {"time": 256559, "pitch": 72, "duration": 462, "velocity": 110}, {"time": 257041, "pitch": 74, "duration": 462, "velocity": 105}, {"time": 257523, "pitch": 71, "duration": 994, "velocity": 110}, {"time": 258717, "pitch": 69, "duration": 231, "velocity": 110}, {"time": 258958, "pitch": 68, "duration": 231, "velocity": 105}, {"time": 259199, "pitch": 64, "duration": 231, "velocity": 100}, {"time": 259440, "pitch": 66, "duration": 231, "velocity": 105}, {"time": 259681, "pitch": 64, "duration": 1907, "velocity": 110}, {"time": 479, "pitch": 47, "duration": 3833, "velocity": 95}, {"time": 479, "pitch": 64, "duration": 3833, "velocity": 90}, {"time": 479, "pitch": 69, "duration": 3833, "velocity": 100}, {"time": 479, "pitch": 73, "duration": 3833, "velocity": 110}, {"time": 4322, "pitch": 49, "duration": 1897, "velocity": 50}, {"time": 4322, "pitch": 59, "duration": 1897, "velocity": 45}, {"time": 4322, "pitch": 64, "duration": 1897, "velocity": 55}, {"time": 4322, "pitch": 68, "duration": 1897, "velocity": 65}, {"time": 6239, "pitch": 42, "duration": 1907, "velocity": 50}, {"time": 6239, "pitch": 57, "duration": 1907, "velocity": 45}, {"time": 6239, "pitch": 61, "duration": 1907, "velocity": 55}, {"time": 6239, "pitch": 64, "duration": 1907, "velocity": 65}, {"time": 8156, "pitch": 44, "duration": 1917, "velocity": 50}, {"time": 8156, "pitch": 59, "duration": 1917, "velocity": 45}, {"time": 8156, "pitch": 63, "duration": 1917, "velocity": 55}, {"time": 8156, "pitch": 66, "duration": 1917, "velocity": 65}, {"time": 10083, "pitch": 45, "duration": 1426, "velocity": 50}, {"time": 10083, "pitch": 61, "duration": 1426, "velocity": 45}, {"time": 10083, "pitch": 64, "duration": 1426, "velocity": 55}, {"time": 10083, "pitch": 68, "duration": 1426, "velocity": 65}, {"time": 11519, "pitch": 47, "duration": 471, "velocity": 50}, {"time": 11519, "pitch": 59, "duration": 471, "velocity": 45}, {"time": 11519, "pitch": 63, "duration": 471, "velocity": 55}, {"time": 11519, "pitch": 66, "duration": 471, "velocity": 65}, {"time": 12000, "pitch": 49, "duration": 1908, "velocity": 50}, {"time": 12000, "pitch": 59, "duration": 1908, "velocity": 45}, {"time": 12000, "pitch": 64, "duration": 1908, "velocity": 55}, {"time": 12000, "pitch": 68, "duration": 1908, "velocity": 65}, {"time": 13918, "pitch": 44, "duration": 1917, "velocity": 50}, {"time": 13918, "pitch": 59, "duration": 1917, "velocity": 45}, {"time": 13918, "pitch": 63, "duration": 1917, "velocity": 55}, {"time": 13918, "pitch": 66, "duration": 1917, "velocity": 65}, {"time": 15845, "pitch": 42, "duration": 1907, "velocity": 50}, {"time": 15845, "pitch": 61, "duration": 1907, "velocity": 45}, {"time": 15845, "pitch": 64, "duration": 1907, "velocity": 55}, {"time": 15845, "pitch": 68, "duration": 1907, "velocity": 65}, {"time": 17762, "pitch": 50, "duration": 708, "velocity": 50}, {"time": 17762, "pitch": 60, "duration": 708, "velocity": 45}, {"time": 17762, "pitch": 66, "duration": 708, "velocity": 55}, {"time": 17762, "pitch": 71, "duration": 708, "velocity": 65}, {"time": 18480, "pitch": 44, "duration": 1189, "velocity": 50}, {"time": 18480, "pitch": 60, "duration": 1189, "velocity": 45}, {"time": 18480, "pitch": 66, "duration": 1189, "velocity": 55}, {"time": 18480, "pitch": 69, "duration": 1189, "velocity": 65}, {"time": 19679, "pitch": 49, "duration": 3835, "velocity": 40}, {"time": 19679, "pitch": 56, "duration": 3835, "velocity": 35}, {"time": 19679, "pitch": 59, "duration": 3835, "velocity": 45}, {"time": 19679, "pitch": 64, "duration": 3835, "velocity": 55}, {"time": 23524, "pitch": 42, "duration": 3824, "velocity": 40}, {"time": 23524, "pitch": 57, "duration": 3824, "velocity": 35}, {"time": 23524, "pitch": 61, "duration": 3824, "velocity": 45}, {"time": 23524, "pitch": 64, "duration": 3824, "velocity": 55}, {"time": 27358, "pitch": 44, "duration": 3835, "velocity": 40}, {"time": 27358, "pitch": 54, "duration": 3835, "velocity": 35}, {"time": 27358, "pitch": 59, "duration": 3835, "velocity": 45}, {"time": 27358, "pitch": 63, "duration": 3835, "velocity": 55}, {"time": 31203, "pitch": 45, "duration": 1907, "velocity": 40}, {"time": 31203, "pitch": 56, "duration": 1907, "velocity": 35}, {"time": 31203, "pitch": 61, "duration": 1907, "velocity": 45}, {"time": 31203, "pitch": 64, "duration": 1907, "velocity": 55}, {"time": 33120, "pitch": 44, "duration": 1907, "velocity": 40}, {"time": 33120, "pitch": 54, "duration": 1907, "velocity": 35}, {"time": 33120, "pitch": 60, "duration": 1907, "velocity": 45}, {"time": 33120, "pitch": 63, "duration": 1907, "velocity": 55}, {"time": 35037, "pitch": 49, "duration": 3834, "velocity": 40}, {"time": 35037, "pitch": 56, "duration": 3834, "velocity": 35}, {"time": 35037, "pitch": 59, "duration": 3834, "velocity": 45}, {"time": 35037, "pitch": 64, "duration": 3834, "velocity": 55}, {"time": 38881, "pitch": 42, "duration": 3825, "velocity": 40}, {"time": 38881, "pitch": 57, "duration": 3825, "velocity": 35}, {"time": 38881, "pitch": 61, "duration": 3825, "velocity": 45}, {"time": 38881, "pitch": 64, "duration": 3825, "velocity": 55}, {"time": 42716, "pitch": 44, "duration": 1917, "velocity": 40}, {"time": 42716, "pitch": 54, "duration": 1917, "velocity": 35}, {"time": 42716, "pitch": 59, "duration": 1917, "velocity": 45}, {"time": 42716, "pitch": 63, "duration": 1917, "velocity": 55}, {"time": 44643, "pitch": 49, "duration": 1907, "velocity": 40}, {"time": 44643, "pitch": 56, "duration": 1907, "velocity": 35}, {"time": 44643, "pitch": 59, "duration": 1907, "velocity": 45}, {"time": 44643, "pitch": 64, "duration": 1907, "velocity": 55}, {"time": 46560, "pitch": 50, "duration": 1908, "velocity": 40}, {"time": 46560, "pitch": 57, "duration": 1908, "velocity": 35}, {"time": 46560, "pitch": 61, "duration": 1908, "velocity": 45}, {"time": 46560, "pitch": 66, "duration": 1908, "velocity": 55}, {"time": 48478, "pitch": 44, "duration": 1917, "velocity": 40}, {"time": 48478, "pitch": 60, "duration": 1917, "velocity": 35}, {"time": 48478, "pitch": 63, "duration": 1917, "velocity": 45}, {"time": 48478, "pitch": 66, "duration": 1917, "velocity": 55}, {"time": 50405, "pitch": 45, "duration": 1907, "velocity": 50}, {"time": 50405, "pitch": 59, "duration": 1907, "velocity": 45}, {"time": 50405, "pitch": 64, "duration": 1907, "velocity": 55}, {"time": 50405, "pitch": 68, "duration": 1907, "velocity": 65}, {"time": 52322, "pitch": 47, "duration": 1907, "velocity": 50}, {"time": 52322, "pitch": 59, "duration": 1907, "velocity": 45}, {"time": 52322, "pitch": 63, "duration": 1907, "velocity": 55}, {"time": 52322, "pitch": 68, "duration": 1907, "velocity": 65}, {"time": 54239, "pitch": 48, "duration": 1908, "velocity": 50}, {"time": 54239, "pitch": 60, "duration": 1908, "velocity": 45}, {"time": 54239, "pitch": 63, "duration": 1908, "velocity": 55}, {"time": 54239, "pitch": 68, "duration": 1908, "velocity": 65}, {"time": 56157, "pitch": 49, "duration": 1916, "velocity": 50}, {"time": 56157, "pitch": 59, "duration": 1916, "velocity": 45}, {"time": 56157, "pitch": 64, "duration": 1916, "velocity": 55}, {"time": 56157, "pitch": 68, "duration": 1916, "velocity": 65}, {"time": 58083, "pitch": 46, "duration": 3825, "velocity": 50}, {"time": 58083, "pitch": 61, "duration": 3825, "velocity": 45}, {"time": 58083, "pitch": 64, "duration": 3825, "velocity": 55}, {"time": 58083, "pitch": 68, "duration": 3825, "velocity": 65}, {"time": 61918, "pitch": 42, "duration": 1671, "velocity": 50}, {"time": 61918, "pitch": 57, "duration": 1671, "velocity": 35}, {"time": 61918, "pitch": 61, "duration": 1671, "velocity": 45}, {"time": 61918, "pitch": 64, "duration": 1671, "velocity": 55}, {"time": 61918, "pitch": 68, "duration": 1671, "velocity": 65}, {"time": 63599, "pitch": 56, "duration": 708, "velocity": 50}, {"time": 63599, "pitch": 66, "duration": 708, "velocity": 45}, {"time": 63599, "pitch": 71, "duration": 708, "velocity": 55}, {"time": 63599, "pitch": 75, "duration": 708, "velocity": 65}, {"time": 64317, "pitch": 55, "duration": 231, "velocity": 50}, {"time": 64317, "pitch": 65, "duration": 231, "velocity": 45}, {"time": 64317, "pitch": 70, "duration": 231, "velocity": 55}, {"time": 64317, "pitch": 75, "duration": 231, "velocity": 65}, {"time": 64558, "pitch": 54, "duration": 472, "velocity": 50}, {"time": 64558, "pitch": 64, "duration": 472, "velocity": 45}, {"time": 64558, "pitch": 69, "duration": 472, "velocity": 55}, {"time": 64558, "pitch": 73, "duration": 472, "velocity": 65}, {"time": 65040, "pitch": 53, "duration": 471, "velocity": 50}, {"time": 65040, "pitch": 63, "duration": 471, "velocity": 45}, {"time": 65040, "pitch": 68, "duration": 471, "velocity": 55}, {"time": 65040, "pitch": 73, "duration": 471, "velocity": 65}, {"time": 65521, "pitch": 52, "duration": 472, "velocity": 50}, {"time": 65521, "pitch": 62, "duration": 472, "velocity": 45}, {"time": 65521, "pitch": 67, "duration": 472, "velocity": 55}, {"time": 65521, "pitch": 71, "duration": 472, "velocity": 65}, {"time": 66003, "pitch": 51, "duration": 231, "velocity": 50}, {"time": 66003, "pitch": 61, "duration": 231, "velocity": 45}, {"time": 66003, "pitch": 66, "duration": 231, "velocity": 55}, {"time": 66003, "pitch": 71, "duration": 231, "velocity": 65}, {"time": 66244, "pitch": 50, "duration": 703, "velocity": 50}, {"time": 66244, "pitch": 61, "duration": 703, "velocity": 45}, {"time": 66244, "pitch": 66, "duration": 703, "velocity": 55}, {"time": 66244, "pitch": 69, "duration": 703, "velocity": 65}, {"time": 66957, "pitch": 47, "duration": 713, "velocity": 50}, {"time": 66957, "pitch": 61, "duration": 713, "velocity": 45}, {"time": 66957, "pitch": 64, "duration": 713, "velocity": 55}, {"time": 66957, "pitch": 69, "duration": 713, "velocity": 65}, {"time": 67680, "pitch": 52, "duration": 1907, "velocity": 50}, {"time": 67680, "pitch": 64, "duration": 1907, "velocity": 45}, {"time": 67680, "pitch": 68, "duration": 1907, "velocity": 55}, {"time": 67680, "pitch": 71, "duration": 1907, "velocity": 65}, {"time": 69597, "pitch": 51, "duration": 1917, "velocity": 50}, {"time": 69597, "pitch": 63, "duration": 1917, "velocity": 45}, {"time": 69597, "pitch": 68, "duration": 1917, "velocity": 55}, {"time": 69597, "pitch": 71, "duration": 1917, "velocity": 65}, {"time": 71524, "pitch": 50, "duration": 1907, "velocity": 50}, {"time": 71524, "pitch": 61, "duration": 1907, "velocity": 45}, {"time": 71524, "pitch": 66, "duration": 1907, "velocity": 55}, {"time": 71524, "pitch": 69, "duration": 1907, "velocity": 65}, {"time": 73441, "pitch": 49, "duration": 1907, "velocity": 50}, {"time": 73441, "pitch": 59, "duration": 1907, "velocity": 45}, {"time": 73441, "pitch": 64, "duration": 1907, "velocity": 55}, {"time": 73441, "pitch": 68, "duration": 1907, "velocity": 65}, {"time": 75359, "pitch": 42, "duration": 1907, "velocity": 50}, {"time": 75359, "pitch": 61, "duration": 1907, "velocity": 45}, {"time": 75359, "pitch": 64, "duration": 1907, "velocity": 55}, {"time": 75359, "pitch": 69, "duration": 1907, "velocity": 65}, {"time": 77276, "pitch": 44, "duration": 1917, "velocity": 50}, {"time": 77276, "pitch": 63, "duration": 1917, "velocity": 45}, {"time": 77276, "pitch": 66, "duration": 1917, "velocity": 55}, {"time": 77276, "pitch": 71, "duration": 1917, "velocity": 65}, {"time": 79203, "pitch": 45, "duration": 1907, "velocity": 50}, {"time": 79203, "pitch": 64, "duration": 1907, "velocity": 45}, {"time": 79203, "pitch": 67, "duration": 1907, "velocity": 55}, {"time": 79203, "pitch": 72, "duration": 1907, "velocity": 65}, {"time": 81120, "pitch": 47, "duration": 1907, "velocity": 50}, {"time": 81120, "pitch": 64, "duration": 1907, "velocity": 45}, {"time": 81120, "pitch": 69, "duration": 1907, "velocity": 55}, {"time": 81120, "pitch": 73, "duration": 1907, "velocity": 65}, {"time": 83037, "pitch": 52, "duration": 1917, "velocity": 50}, {"time": 83037, "pitch": 64, "duration": 1917, "velocity": 45}, {"time": 83037, "pitch": 68, "duration": 1917, "velocity": 55}, {"time": 83037, "pitch": 71, "duration": 1917, "velocity": 65}, {"time": 84964, "pitch": 51, "duration": 1908, "velocity": 50}, {"time": 84964, "pitch": 63, "duration": 1908, "velocity": 45}, {"time": 84964, "pitch": 68, "duration": 1908, "velocity": 55}, {"time": 84964, "pitch": 71, "duration": 1908, "velocity": 65}, {"time": 86882, "pitch": 50, "duration": 1907, "velocity": 50}, {"time": 86882, "pitch": 61, "duration": 1907, "velocity": 45}, {"time": 86882, "pitch": 66, "duration": 1907, "velocity": 55}, {"time": 86882, "pitch": 69, "duration": 1907, "velocity": 65}, {"time": 88799, "pitch": 49, "duration": 1907, "velocity": 50}, {"time": 88799, "pitch": 59, "duration": 1907, "velocity": 45}, {"time": 88799, "pitch": 64, "duration": 1907, "velocity": 55}, {"time": 88799, "pitch": 68, "duration": 1907, "velocity": 65}, {"time": 90716, "pitch": 42, "duration": 1917, "velocity": 50}, {"time": 90716, "pitch": 61, "duration": 1917, "velocity": 45}, {"time": 90716, "pitch": 64, "duration": 1917, "velocity": 55}, {"time": 90716, "pitch": 69, "duration": 1917, "velocity": 65}, {"time": 92643, "pitch": 44, "duration": 1908, "velocity": 50}, {"time": 92643, "pitch": 63, "duration": 1908, "velocity": 45}, {"time": 92643, "pitch": 66, "duration": 1908, "velocity": 55}, {"time": 92643, "pitch": 71, "duration": 1908, "velocity": 65}, {"time": 94561, "pitch": 45, "duration": 1907, "velocity": 50}, {"time": 94561, "pitch": 64, "duration": 1907, "velocity": 45}, {"time": 94561, "pitch": 67, "duration": 1907, "velocity": 55}, {"time": 94561, "pitch": 72, "duration": 1907, "velocity": 65}, {"time": 96478, "pitch": 47, "duration": 1907, "velocity": 50}, {"time": 96478, "pitch": 64, "duration": 1907, "velocity": 45}, {"time": 96478, "pitch": 69, "duration": 1907, "velocity": 55}, {"time": 96478, "pitch": 73, "duration": 1907, "velocity": 65}, {"time": 98395, "pitch": 52, "duration": 1676, "velocity": 50}, {"time": 98395, "pitch": 64, "duration": 1917, "velocity": 45}, {"time": 98395, "pitch": 68, "duration": 1917, "velocity": 55}, {"time": 98395, "pitch": 71, "duration": 1917, "velocity": 65}, {"time": 100081, "pitch": 51, "duration": 231, "velocity": 50}, {"time": 100322, "pitch": 50, "duration": 708, "velocity": 50}, {"time": 100322, "pitch": 60, "duration": 708, "velocity": 45}, {"time": 100322, "pitch": 66, "duration": 708, "velocity": 55}, {"time": 100322, "pitch": 71, "duration": 708, "velocity": 65}, {"time": 101040, "pitch": 44, "duration": 1189, "velocity": 50}, {"time": 101040, "pitch": 60, "duration": 1189, "velocity": 45}, {"time": 101040, "pitch": 66, "duration": 1189, "velocity": 55}, {"time": 101040, "pitch": 69, "duration": 1189, "velocity": 65}, {"time": 102239, "pitch": 49, "duration": 3835, "velocity": 40}, {"time": 102239, "pitch": 56, "duration": 3835, "velocity": 35}, {"time": 102239, "pitch": 59, "duration": 3835, "velocity": 45}, {"time": 102239, "pitch": 64, "duration": 3835, "velocity": 55}, {"time": 106084, "pitch": 42, "duration": 3824, "velocity": 40}, {"time": 106084, "pitch": 57, "duration": 3824, "velocity": 35}, {"time": 106084, "pitch": 61, "duration": 3824, "velocity": 45}, {"time": 106084, "pitch": 64, "duration": 3824, "velocity": 55}, {"time": 109918, "pitch": 44, "duration": 3835, "velocity": 40}, {"time": 109918, "pitch": 54, "duration": 3835, "velocity": 35}, {"time": 109918, "pitch": 59, "duration": 3835, "velocity": 45}, {"time": 109918, "pitch": 63, "duration": 3835, "velocity": 55}, {"time": 113763, "pitch": 45, "duration": 1907, "velocity": 40}, {"time": 113763, "pitch": 56, "duration": 1907, "velocity": 35}, {"time": 113763, "pitch": 61, "duration": 1907, "velocity": 45}, {"time": 113763, "pitch": 64, "duration": 1907, "velocity": 55}, {"time": 115680, "pitch": 44, "duration": 1907, "velocity": 40}, {"time": 115680, "pitch": 54, "duration": 1907, "velocity": 35}, {"time": 115680, "pitch": 60, "duration": 1907, "velocity": 45}, {"time": 115680, "pitch": 63, "duration": 1907, "velocity": 55}, {"time": 117597, "pitch": 49, "duration": 3834, "velocity": 40}, {"time": 117597, "pitch": 56, "duration": 3834, "velocity": 35}, {"time": 117597, "pitch": 59, "duration": 3834, "velocity": 45}, {"time": 117597, "pitch": 64, "duration": 3834, "velocity": 55}, {"time": 121442, "pitch": 42, "duration": 3824, "velocity": 40}, {"time": 121442, "pitch": 57, "duration": 3824, "velocity": 35}, {"time": 121442, "pitch": 61, "duration": 3824, "velocity": 45}, {"time": 121442, "pitch": 64, "duration": 3824, "velocity": 55}, {"time": 125276, "pitch": 44, "duration": 1917, "velocity": 40}, {"time": 125276, "pitch": 54, "duration": 1917, "velocity": 35}, {"time": 125276, "pitch": 59, "duration": 1917, "velocity": 45}, {"time": 125276, "pitch": 63, "duration": 1917, "velocity": 55}, {"time": 127203, "pitch": 49, "duration": 1907, "velocity": 40}, {"time": 127203, "pitch": 56, "duration": 1907, "velocity": 35}, {"time": 127203, "pitch": 59, "duration": 1907, "velocity": 45}, {"time": 127203, "pitch": 64, "duration": 1907, "velocity": 55}, {"time": 129120, "pitch": 50, "duration": 1908, "velocity": 40}, {"time": 129120, "pitch": 57, "duration": 1908, "velocity": 35}, {"time": 129120, "pitch": 61, "duration": 1908, "velocity": 45}, {"time": 129120, "pitch": 66, "duration": 1908, "velocity": 55}, {"time": 131038, "pitch": 44, "duration": 1917, "velocity": 40}, {"time": 131038, "pitch": 60, "duration": 1917, "velocity": 35}, {"time": 131038, "pitch": 63, "duration": 1917, "velocity": 45}, {"time": 131038, "pitch": 66, "duration": 1917, "velocity": 55}, {"time": 132965, "pitch": 45, "duration": 1907, "velocity": 50}, {"time": 132965, "pitch": 59, "duration": 1907, "velocity": 45}, {"time": 132965, "pitch": 64, "duration": 1907, "velocity": 55}, {"time": 132965, "pitch": 68, "duration": 1907, "velocity": 65}, {"time": 134882, "pitch": 47, "duration": 1907, "velocity": 50}, {"time": 134882, "pitch": 59, "duration": 1907, "velocity": 45}, {"time": 134882, "pitch": 63, "duration": 1907, "velocity": 55}, {"time": 134882, "pitch": 68, "duration": 1907, "velocity": 65}, {"time": 136799, "pitch": 48, "duration": 1908, "velocity": 50}, {"time": 136799, "pitch": 60, "duration": 1908, "velocity": 45}, {"time": 136799, "pitch": 63, "duration": 1908, "velocity": 55}, {"time": 136799, "pitch": 68, "duration": 1908, "velocity": 65}, {"time": 138717, "pitch": 49, "duration": 1917, "velocity": 50}, {"time": 138717, "pitch": 59, "duration": 1917, "velocity": 45}, {"time": 138717, "pitch": 64, "duration": 1917, "velocity": 55}, {"time": 138717, "pitch": 68, "duration": 1917, "velocity": 65}, {"time": 140644, "pitch": 46, "duration": 3824, "velocity": 50}, {"time": 140644, "pitch": 61, "duration": 3824, "velocity": 45}, {"time": 140644, "pitch": 64, "duration": 3824, "velocity": 55}, {"time": 140644, "pitch": 68, "duration": 3824, "velocity": 65}, {"time": 144478, "pitch": 42, "duration": 1672, "velocity": 50}, {"time": 144478, "pitch": 57, "duration": 1672, "velocity": 35}, {"time": 144478, "pitch": 61, "duration": 1672, "velocity": 45}, {"time": 144478, "pitch": 64, "duration": 1672, "velocity": 55}, {"time": 144478, "pitch": 68, "duration": 1672, "velocity": 65}, {"time": 146159, "pitch": 56, "duration": 708, "velocity": 50}, {"time": 146159, "pitch": 66, "duration": 708, "velocity": 45}, {"time": 146159, "pitch": 71, "duration": 708, "velocity": 55}, {"time": 146159, "pitch": 75, "duration": 708, "velocity": 65}, {"time": 146877, "pitch": 55, "duration": 231, "velocity": 50}, {"time": 146877, "pitch": 65, "duration": 231, "velocity": 45}, {"time": 146877, "pitch": 70, "duration": 231, "velocity": 55}, {"time": 146877, "pitch": 75, "duration": 231, "velocity": 65}, {"time": 147118, "pitch": 54, "duration": 472, "velocity": 50}, {"time": 147118, "pitch": 64, "duration": 472, "velocity": 45}, {"time": 147118, "pitch": 69, "duration": 472, "velocity": 55}, {"time": 147118, "pitch": 73, "duration": 472, "velocity": 65}, {"time": 147600, "pitch": 53, "duration": 472, "velocity": 50}, {"time": 147600, "pitch": 63, "duration": 472, "velocity": 45}, {"time": 147600, "pitch": 68, "duration": 472, "velocity": 55}, {"time": 147600, "pitch": 73, "duration": 472, "velocity": 65}, {"time": 148082, "pitch": 52, "duration": 471, "velocity": 50}, {"time": 148082, "pitch": 62, "duration": 471, "velocity": 45}, {"time": 148082, "pitch": 67, "duration": 471, "velocity": 55}, {"time": 148082, "pitch": 71, "duration": 471, "velocity": 65}, {"time": 148563, "pitch": 51, "duration": 231, "velocity": 50}, {"time": 148563, "pitch": 61, "duration": 231, "velocity": 45}, {"time": 148563, "pitch": 66, "duration": 231, "velocity": 55}, {"time": 148563, "pitch": 71, "duration": 231, "velocity": 65}, {"time": 148804, "pitch": 50, "duration": 703, "velocity": 50}, {"time": 148804, "pitch": 61, "duration": 703, "velocity": 45}, {"time": 148804, "pitch": 66, "duration": 703, "velocity": 55}, {"time": 148804, "pitch": 69, "duration": 703, "velocity": 65}, {"time": 149517, "pitch": 47, "duration": 713, "velocity": 50}, {"time": 149517, "pitch": 61, "duration": 713, "velocity": 45}, {"time": 149517, "pitch": 64, "duration": 713, "velocity": 55}, {"time": 149517, "pitch": 69, "duration": 713, "velocity": 65}, {"time": 150240, "pitch": 52, "duration": 1907, "velocity": 50}, {"time": 150240, "pitch": 64, "duration": 1907, "velocity": 45}, {"time": 150240, "pitch": 68, "duration": 1907, "velocity": 55}, {"time": 150240, "pitch": 71, "duration": 1907, "velocity": 65}, {"time": 152157, "pitch": 51, "duration": 1917, "velocity": 50}, {"time": 152157, "pitch": 63, "duration": 1917, "velocity": 45}, {"time": 152157, "pitch": 68, "duration": 1917, "velocity": 55}, {"time": 152157, "pitch": 71, "duration": 1917, "velocity": 65}, {"time": 154084, "pitch": 50, "duration": 1907, "velocity": 50}, {"time": 154084, "pitch": 61, "duration": 1907, "velocity": 45}, {"time": 154084, "pitch": 66, "duration": 1907, "velocity": 55}, {"time": 154084, "pitch": 69, "duration": 1907, "velocity": 65}, {"time": 156001, "pitch": 49, "duration": 1908, "velocity": 50}, {"time": 156001, "pitch": 59, "duration": 1908, "velocity": 45}, {"time": 156001, "pitch": 64, "duration": 1908, "velocity": 55}, {"time": 156001, "pitch": 68, "duration": 1908, "velocity": 65}, {"time": 157919, "pitch": 42, "duration": 1907, "velocity": 50}, {"time": 157919, "pitch": 61, "duration": 1907, "velocity": 45}, {"time": 157919, "pitch": 64, "duration": 1907, "velocity": 55}, {"time": 157919, "pitch": 69, "duration": 1907, "velocity": 65}, {"time": 159836, "pitch": 44, "duration": 1917, "velocity": 50}, {"time": 159836, "pitch": 63, "duration": 1917, "velocity": 45}, {"time": 159836, "pitch": 66, "duration": 1917, "velocity": 55}, {"time": 159836, "pitch": 71, "duration": 1917, "velocity": 65}, {"time": 161763, "pitch": 45, "duration": 1907, "velocity": 50}, {"time": 161763, "pitch": 64, "duration": 1907, "velocity": 45}, {"time": 161763, "pitch": 67, "duration": 1907, "velocity": 55}, {"time": 161763, "pitch": 72, "duration": 1907, "velocity": 65}, {"time": 163680, "pitch": 47, "duration": 1907, "velocity": 50}, {"time": 163680, "pitch": 64, "duration": 1907, "velocity": 45}, {"time": 163680, "pitch": 69, "duration": 1907, "velocity": 55}, {"time": 163680, "pitch": 73, "duration": 1907, "velocity": 65}, {"time": 165597, "pitch": 52, "duration": 1918, "velocity": 50}, {"time": 165597, "pitch": 64, "duration": 1918, "velocity": 45}, {"time": 165597, "pitch": 68, "duration": 1918, "velocity": 55}, {"time": 165597, "pitch": 71, "duration": 1918, "velocity": 65}, {"time": 167524, "pitch": 51, "duration": 1908, "velocity": 50}, {"time": 167524, "pitch": 63, "duration": 1908, "velocity": 45}, {"time": 167524, "pitch": 68, "duration": 1908, "velocity": 55}, {"time": 167524, "pitch": 71, "duration": 1908, "velocity": 65}, {"time": 169442, "pitch": 50, "duration": 1907, "velocity": 50}, {"time": 169442, "pitch": 61, "duration": 1907, "velocity": 45}, {"time": 169442, "pitch": 66, "duration": 1907, "velocity": 55}, {"time": 169442, "pitch": 69, "duration": 1907, "velocity": 65}, {"time": 171359, "pitch": 49, "duration": 1908, "velocity": 50}, {"time": 171359, "pitch": 59, "duration": 1908, "velocity": 45}, {"time": 171359, "pitch": 64, "duration": 1908, "velocity": 55}, {"time": 171359, "pitch": 68, "duration": 1908, "velocity": 65}, {"time": 173276, "pitch": 42, "duration": 1917, "velocity": 50}, {"time": 173276, "pitch": 61, "duration": 1917, "velocity": 45}, {"time": 173276, "pitch": 64, "duration": 1917, "velocity": 55}, {"time": 173276, "pitch": 69, "duration": 1917, "velocity": 65}, {"time": 175203, "pitch": 44, "duration": 1908, "velocity": 50}, {"time": 175203, "pitch": 63, "duration": 1908, "velocity": 45}, {"time": 175203, "pitch": 66, "duration": 1908, "velocity": 55}, {"time": 175203, "pitch": 71, "duration": 1908, "velocity": 65}, {"time": 177121, "pitch": 45, "duration": 1907, "velocity": 50}, {"time": 177121, "pitch": 64, "duration": 1907, "velocity": 45}, {"time": 177121, "pitch": 67, "duration": 1907, "velocity": 55}, {"time": 177121, "pitch": 72, "duration": 1907, "velocity": 65}, {"time": 179038, "pitch": 47, "duration": 1907, "velocity": 50}, {"time": 179038, "pitch": 64, "duration": 1907, "velocity": 45}, {"time": 179038, "pitch": 69, "duration": 1907, "velocity": 55}, {"time": 179038, "pitch": 73, "duration": 1907, "velocity": 65}, {"time": 180955, "pitch": 49, "duration": 1917, "velocity": 50}, {"time": 180955, "pitch": 59, "duration": 1917, "velocity": 45}, {"time": 180955, "pitch": 64, "duration": 1917, "velocity": 55}, {"time": 180955, "pitch": 68, "duration": 1917, "velocity": 65}, {"time": 182882, "pitch": 42, "duration": 1908, "velocity": 50}, {"time": 182882, "pitch": 57, "duration": 1908, "velocity": 45}, {"time": 182882, "pitch": 61, "duration": 1908, "velocity": 55}, {"time": 182882, "pitch": 64, "duration": 1908, "velocity": 65}, {"time": 184800, "pitch": 44, "duration": 1907, "velocity": 50}, {"time": 184800, "pitch": 59, "duration": 1907, "velocity": 45}, {"time": 184800, "pitch": 63, "duration": 1907, "velocity": 55}, {"time": 184800, "pitch": 66, "duration": 1907, "velocity": 65}, {"time": 186717, "pitch": 45, "duration": 1435, "velocity": 50}, {"time": 186717, "pitch": 61, "duration": 1435, "velocity": 45}, {"time": 186717, "pitch": 64, "duration": 1435, "velocity": 55}, {"time": 186717, "pitch": 68, "duration": 1435, "velocity": 65}, {"time": 188162, "pitch": 47, "duration": 472, "velocity": 50}, {"time": 188162, "pitch": 59, "duration": 472, "velocity": 45}, {"time": 188162, "pitch": 63, "duration": 472, "velocity": 55}, {"time": 188162, "pitch": 66, "duration": 472, "velocity": 65}, {"time": 188644, "pitch": 49, "duration": 1907, "velocity": 50}, {"time": 188644, "pitch": 59, "duration": 1907, "velocity": 45}, {"time": 188644, "pitch": 64, "duration": 1907, "velocity": 55}, {"time": 188644, "pitch": 68, "duration": 1907, "velocity": 65}, {"time": 190561, "pitch": 44, "duration": 1907, "velocity": 50}, {"time": 190561, "pitch": 59, "duration": 1907, "velocity": 45}, {"time": 190561, "pitch": 63, "duration": 1907, "velocity": 55}, {"time": 190561, "pitch": 66, "duration": 1907, "velocity": 65}, {"time": 192478, "pitch": 42, "duration": 1908, "velocity": 50}, {"time": 192478, "pitch": 61, "duration": 1908, "velocity": 45}, {"time": 192478, "pitch": 64, "duration": 1908, "velocity": 55}, {"time": 192478, "pitch": 68, "duration": 1908, "velocity": 65}, {"time": 194396, "pitch": 50, "duration": 712, "velocity": 50}, {"time": 194396, "pitch": 60, "duration": 712, "velocity": 45}, {"time": 194396, "pitch": 66, "duration": 712, "velocity": 55}, {"time": 194396, "pitch": 71, "duration": 712, "velocity": 65}, {"time": 195118, "pitch": 44, "duration": 1195, "velocity": 50}, {"time": 195118, "pitch": 60, "duration": 1195, "velocity": 45}, {"time": 195118, "pitch": 66, "duration": 1195, "velocity": 55}, {"time": 195118, "pitch": 69, "duration": 1195, "velocity": 65}, {"time": 196323, "pitch": 49, "duration": 3824, "velocity": 40}, {"time": 196323, "pitch": 56, "duration": 3824, "velocity": 35}, {"time": 196323, "pitch": 59, "duration": 3824, "velocity": 45}, {"time": 196323, "pitch": 64, "duration": 3824, "velocity": 55}, {"time": 200157, "pitch": 42, "duration": 3835, "velocity": 40}, {"time": 200157, "pitch": 57, "duration": 3835, "velocity": 35}, {"time": 200157, "pitch": 61, "duration": 3835, "velocity": 45}, {"time": 200157, "pitch": 64, "duration": 3835, "velocity": 55}, {"time": 204002, "pitch": 44, "duration": 3824, "velocity": 40}, {"time": 204002, "pitch": 54, "duration": 3824, "velocity": 35}, {"time": 204002, "pitch": 59, "duration": 3824, "velocity": 45}, {"time": 204002, "pitch": 63, "duration": 3824, "velocity": 55}, {"time": 207836, "pitch": 45, "duration": 1917, "velocity": 40}, {"time": 207836, "pitch": 56, "duration": 1917, "velocity": 35}, {"time": 207836, "pitch": 61, "duration": 1917, "velocity": 45}, {"time": 207836, "pitch": 64, "duration": 1917, "velocity": 55}, {"time": 209763, "pitch": 44, "duration": 1907, "velocity": 40}, {"time": 209763, "pitch": 54, "duration": 1907, "velocity": 35}, {"time": 209763, "pitch": 60, "duration": 1907, "velocity": 45}, {"time": 209763, "pitch": 63, "duration": 1907, "velocity": 55}, {"time": 211681, "pitch": 49, "duration": 3834, "velocity": 40}, {"time": 211681, "pitch": 56, "duration": 3834, "velocity": 35}, {"time": 211681, "pitch": 59, "duration": 3834, "velocity": 45}, {"time": 211681, "pitch": 64, "duration": 3834, "velocity": 55}, {"time": 215525, "pitch": 42, "duration": 3824, "velocity": 40}, {"time": 215525, "pitch": 57, "duration": 3824, "velocity": 35}, {"time": 215525, "pitch": 61, "duration": 3824, "velocity": 45}, {"time": 215525, "pitch": 64, "duration": 3824, "velocity": 55}, {"time": 219359, "pitch": 44, "duration": 1908, "velocity": 40}, {"time": 219359, "pitch": 54, "duration": 1908, "velocity": 35}, {"time": 219359, "pitch": 59, "duration": 1908, "velocity": 45}, {"time": 219359, "pitch": 63, "duration": 1908, "velocity": 55}, {"time": 221277, "pitch": 49, "duration": 1917, "velocity": 40}, {"time": 221277, "pitch": 56, "duration": 1917, "velocity": 35}, {"time": 221277, "pitch": 59, "duration": 1917, "velocity": 45}, {"time": 221277, "pitch": 64, "duration": 1917, "velocity": 55}, {"time": 223204, "pitch": 50, "duration": 1666, "velocity": 40}, {"time": 223204, "pitch": 57, "duration": 1666, "velocity": 35}, {"time": 223204, "pitch": 61, "duration": 1666, "velocity": 45}, {"time": 223204, "pitch": 66, "duration": 1666, "velocity": 55}, {"time": 224880, "pitch": 56, "duration": 713, "velocity": 50}, {"time": 224880, "pitch": 66, "duration": 713, "velocity": 45}, {"time": 224880, "pitch": 71, "duration": 713, "velocity": 55}, {"time": 224880, "pitch": 75, "duration": 713, "velocity": 65}, {"time": 225603, "pitch": 55, "duration": 231, "velocity": 50}, {"time": 225603, "pitch": 65, "duration": 231, "velocity": 45}, {"time": 225603, "pitch": 70, "duration": 231, "velocity": 55}, {"time": 225603, "pitch": 75, "duration": 231, "velocity": 65}, {"time": 225844, "pitch": 54, "duration": 467, "velocity": 50}, {"time": 225844, "pitch": 64, "duration": 467, "velocity": 45}, {"time": 225844, "pitch": 69, "duration": 467, "velocity": 55}, {"time": 225844, "pitch": 73, "duration": 467, "velocity": 65}, {"time": 226321, "pitch": 53, "duration": 466, "velocity": 50}, {"time": 226321, "pitch": 63, "duration": 466, "velocity": 45}, {"time": 226321, "pitch": 68, "duration": 466, "velocity": 55}, {"time": 226321, "pitch": 73, "duration": 466, "velocity": 65}, {"time": 226797, "pitch": 52, "duration": 472, "velocity": 50}, {"time": 226797, "pitch": 62, "duration": 472, "velocity": 45}, {"time": 226797, "pitch": 67, "duration": 472, "velocity": 55}, {"time": 226797, "pitch": 71, "duration": 472, "velocity": 65}, {"time": 227279, "pitch": 51, "duration": 231, "velocity": 50}, {"time": 227279, "pitch": 61, "duration": 231, "velocity": 45}, {"time": 227279, "pitch": 66, "duration": 231, "velocity": 55}, {"time": 227279, "pitch": 71, "duration": 231, "velocity": 65}, {"time": 227520, "pitch": 50, "duration": 713, "velocity": 50}, {"time": 227520, "pitch": 61, "duration": 713, "velocity": 45}, {"time": 227520, "pitch": 66, "duration": 713, "velocity": 55}, {"time": 227520, "pitch": 69, "duration": 713, "velocity": 65}, {"time": 228243, "pitch": 47, "duration": 703, "velocity": 50}, {"time": 228243, "pitch": 61, "duration": 703, "velocity": 45}, {"time": 228243, "pitch": 64, "duration": 703, "velocity": 55}, {"time": 228243, "pitch": 69, "duration": 703, "velocity": 65}, {"time": 228956, "pitch": 52, "duration": 1917, "velocity": 50}, {"time": 228956, "pitch": 64, "duration": 1917, "velocity": 45}, {"time": 228956, "pitch": 68, "duration": 1917, "velocity": 55}, {"time": 228956, "pitch": 71, "duration": 1917, "velocity": 65}, {"time": 230883, "pitch": 51, "duration": 1907, "velocity": 50}, {"time": 230883, "pitch": 63, "duration": 1907, "velocity": 45}, {"time": 230883, "pitch": 68, "duration": 1907, "velocity": 55}, {"time": 230883, "pitch": 71, "duration": 1907, "velocity": 65}, {"time": 232800, "pitch": 50, "duration": 1907, "velocity": 50}, {"time": 232800, "pitch": 61, "duration": 1907, "velocity": 45}, {"time": 232800, "pitch": 66, "duration": 1907, "velocity": 55}, {"time": 232800, "pitch": 69, "duration": 1907, "velocity": 65}, {"time": 234717, "pitch": 49, "duration": 1917, "velocity": 50}, {"time": 234717, "pitch": 59, "duration": 1917, "velocity": 45}, {"time": 234717, "pitch": 64, "duration": 1917, "velocity": 55}, {"time": 234717, "pitch": 68, "duration": 1917, "velocity": 65}, {"time": 236644, "pitch": 42, "duration": 1907, "velocity": 50}, {"time": 236644, "pitch": 61, "duration": 1907, "velocity": 45}, {"time": 236644, "pitch": 64, "duration": 1907, "velocity": 55}, {"time": 236644, "pitch": 69, "duration": 1907, "velocity": 65}, {"time": 238561, "pitch": 44, "duration": 1908, "velocity": 50}, {"time": 238561, "pitch": 63, "duration": 1908, "velocity": 45}, {"time": 238561, "pitch": 66, "duration": 1908, "velocity": 55}, {"time": 238561, "pitch": 71, "duration": 1908, "velocity": 65}, {"time": 240479, "pitch": 45, "duration": 1907, "velocity": 50}, {"time": 240479, "pitch": 64, "duration": 1907, "velocity": 45}, {"time": 240479, "pitch": 67, "duration": 1907, "velocity": 55}, {"time": 240479, "pitch": 72, "duration": 1907, "velocity": 65}, {"time": 242396, "pitch": 47, "duration": 1917, "velocity": 50}, {"time": 242396, "pitch": 64, "duration": 1917, "velocity": 45}, {"time": 242396, "pitch": 69, "duration": 1917, "velocity": 55}, {"time": 242396, "pitch": 73, "duration": 1917, "velocity": 65}, {"time": 244323, "pitch": 52, "duration": 1907, "velocity": 50}, {"time": 244323, "pitch": 64, "duration": 1907, "velocity": 45}, {"time": 244323, "pitch": 68, "duration": 1907, "velocity": 55}, {"time": 244323, "pitch": 71, "duration": 1907, "velocity": 65}, {"time": 246240, "pitch": 51, "duration": 1908, "velocity": 50}, {"time": 246240, "pitch": 63, "duration": 1908, "velocity": 45}, {"time": 246240, "pitch": 68, "duration": 1908, "velocity": 55}, {"time": 246240, "pitch": 71, "duration": 1908, "velocity": 65}, {"time": 248158, "pitch": 50, "duration": 1917, "velocity": 50}, {"time": 248158, "pitch": 61, "duration": 1917, "velocity": 45}, {"time": 248158, "pitch": 66, "duration": 1917, "velocity": 55}, {"time": 248158, "pitch": 69, "duration": 1917, "velocity": 65}, {"time": 250085, "pitch": 49, "duration": 1907, "velocity": 50}, {"time": 250085, "pitch": 59, "duration": 1907, "velocity": 45}, {"time": 250085, "pitch": 64, "duration": 1907, "velocity": 55}, {"time": 250085, "pitch": 68, "duration": 1907, "velocity": 65}, {"time": 252002, "pitch": 42, "duration": 1907, "velocity": 50}, {"time": 252002, "pitch": 61, "duration": 1907, "velocity": 45}, {"time": 252002, "pitch": 64, "duration": 1907, "velocity": 55}, {"time": 252002, "pitch": 69, "duration": 1907, "velocity": 65}, {"time": 253919, "pitch": 44, "duration": 1908, "velocity": 50}, {"time": 253919, "pitch": 63, "duration": 1908, "velocity": 45}, {"time": 253919, "pitch": 66, "duration": 1908, "velocity": 55}, {"time": 253919, "pitch": 71, "duration": 1908, "velocity": 65}, {"time": 255837, "pitch": 45, "duration": 1917, "velocity": 50}, {"time": 255837, "pitch": 64, "duration": 1917, "velocity": 45}, {"time": 255837, "pitch": 67, "duration": 1917, "velocity": 55}, {"time": 255837, "pitch": 72, "duration": 1917, "velocity": 65}, {"time": 257763, "pitch": 47, "duration": 1908, "velocity": 50}, {"time": 257763, "pitch": 64, "duration": 1908, "velocity": 45}, {"time": 257763, "pitch": 69, "duration": 1908, "velocity": 55}, {"time": 257763, "pitch": 73, "duration": 1908, "velocity": 65}, {"time": 259681, "pitch": 49, "duration": 1907, "velocity": 50}, {"time": 259681, "pitch": 59, "duration": 1907, "velocity": 45}, {"time": 259681, "pitch": 64, "duration": 1907, "velocity": 55}, {"time": 259681, "pitch": 68, "duration": 1907, "velocity": 65}, {"time": 261598, "pitch": 42, "duration": 1908, "velocity": 50}, {"time": 261598, "pitch": 57, "duration": 1908, "velocity": 45}, {"time": 261598, "pitch": 61, "duration": 1908, "velocity": 55}, {"time": 261598, "pitch": 64, "duration": 1908, "velocity": 65}, {"time": 263515, "pitch": 44, "duration": 1917, "velocity": 50}, {"time": 263515, "pitch": 59, "duration": 1917, "velocity": 45}, {"time": 263515, "pitch": 63, "duration": 1917, "velocity": 55}, {"time": 263515, "pitch": 66, "duration": 1917, "velocity": 65}, {"time": 265442, "pitch": 45, "duration": 1426, "velocity": 50}, {"time": 265442, "pitch": 61, "duration": 1426, "velocity": 45}, {"time": 265442, "pitch": 64, "duration": 1426, "velocity": 55}, {"time": 265442, "pitch": 68, "duration": 1426, "velocity": 65}, {"time": 266878, "pitch": 47, "duration": 472, "velocity": 50}, {"time": 266878, "pitch": 59, "duration": 472, "velocity": 45}, {"time": 266878, "pitch": 63, "duration": 472, "velocity": 55}, {"time": 266878, "pitch": 66, "duration": 472, "velocity": 65}, {"time": 267360, "pitch": 49, "duration": 1907, "velocity": 50}, {"time": 267360, "pitch": 59, "duration": 1907, "velocity": 45}, {"time": 267360, "pitch": 64, "duration": 1907, "velocity": 55}, {"time": 267360, "pitch": 68, "duration": 1907, "velocity": 65}, {"time": 269277, "pitch": 44, "duration": 1917, "velocity": 50}, {"time": 269277, "pitch": 59, "duration": 1917, "velocity": 45}, {"time": 269277, "pitch": 63, "duration": 1917, "velocity": 55}, {"time": 269277, "pitch": 66, "duration": 1917, "velocity": 65}, {"time": 271204, "pitch": 42, "duration": 1907, "velocity": 50}, {"time": 271204, "pitch": 61, "duration": 1907, "velocity": 45}, {"time": 271204, "pitch": 64, "duration": 1907, "velocity": 55}, {"time": 271204, "pitch": 68, "duration": 1907, "velocity": 65}, {"time": 273121, "pitch": 50, "duration": 713, "velocity": 50}, {"time": 273121, "pitch": 60, "duration": 713, "velocity": 45}, {"time": 273121, "pitch": 66, "duration": 713, "velocity": 55}, {"time": 273121, "pitch": 71, "duration": 713, "velocity": 65}, {"time": 273844, "pitch": 44, "duration": 1185, "velocity": 50}, {"time": 273844, "pitch": 60, "duration": 1185, "velocity": 45}, {"time": 273844, "pitch": 66, "duration": 1185, "velocity": 55}, {"time": 273844, "pitch": 69, "duration": 1185, "velocity": 65}, {"time": 275039, "pitch": 45, "duration": 7668, "velocity": 40}, {"time": 275039, "pitch": 61, "duration": 7668, "velocity": 25}, {"time": 275039, "pitch": 64, "duration": 7668, "velocity": 35}, {"time": 275039, "pitch": 68, "duration": 7668, "velocity": 45}, {"time": 275039, "pitch": 71, "duration": 7668, "velocity": 55}, {"time": 17531, "pitch": 57, "duration": 30, "velocity": 75}, {"time": 17531, "pitch": 59, "duration": 30, "velocity": 75}, {"time": 17541, "pitch": 61, "duration": 30, "velocity": 76}, {"time": 17561, "pitch": 63, "duration": 30, "velocity": 78}, {"time": 17581, "pitch": 64, "duration": 31, "velocity": 80}, {"time": 17591, "pitch": 66, "duration": 31, "velocity": 81}, {"time": 17612, "pitch": 68, "duration": 30, "velocity": 83}, {"time": 17632, "pitch": 69, "duration": 30, "velocity": 85}, {"time": 17652, "pitch": 71, "duration": 30, "velocity": 86}, {"time": 17662, "pitch": 73, "duration": 30, "velocity": 87}, {"time": 17672, "pitch": 75, "duration": 30, "velocity": 88}, {"time": 17692, "pitch": 76, "duration": 30, "velocity": 90}, {"time": 17712, "pitch": 78, "duration": 30, "velocity": 92}, {"time": 17722, "pitch": 80, "duration": 40, "velocity": 93}, {"time": 17742, "pitch": 81, "duration": 20, "velocity": 95}, {"time": 17762, "pitch": 72, "duration": 708, "velocity": 90}, {"time": 17762, "pitch": 78, "duration": 708, "velocity": 100}, {"time": 17762, "pitch": 80, "duration": 10, "velocity": 100}, {"time": 17762, "pitch": 81, "duration": 20, "velocity": 100}, {"time": 17762, "pitch": 83, "duration": 708, "velocity": 110}, {"time": 18480, "pitch": 72, "duration": 1189, "velocity": 90}, {"time": 18480, "pitch": 78, "duration": 1189, "velocity": 100}, {"time": 18480, "pitch": 81, "duration": 1189, "velocity": 110}, {"time": 63599, "pitch": 66, "duration": 708, "velocity": 80}, {"time": 63599, "pitch": 71, "duration": 708, "velocity": 90}, {"time": 63599, "pitch": 75, "duration": 708, "velocity": 100}, {"time": 63599, "pitch": 80, "duration": 708, "velocity": 110}, {"time": 64317, "pitch": 65, "duration": 231, "velocity": 80}, {"time": 64317, "pitch": 70, "duration": 231, "velocity": 90}, {"time": 64317, "pitch": 75, "duration": 231, "velocity": 100}, {"time": 64317, "pitch": 79, "duration": 231, "velocity": 110}, {"time": 64558, "pitch": 64, "duration": 472, "velocity": 80}, {"time": 64558, "pitch": 69, "duration": 472, "velocity": 90}, {"time": 64558, "pitch": 73, "duration": 472, "velocity": 100}, {"time": 64558, "pitch": 78, "duration": 472, "velocity": 110}, {"time": 65040, "pitch": 63, "duration": 471, "velocity": 80}, {"time": 65040, "pitch": 68, "duration": 471, "velocity": 90}, {"time": 65040, "pitch": 73, "duration": 471, "velocity": 100}, {"time": 65040, "pitch": 77, "duration": 471, "velocity": 110}, {"time": 65521, "pitch": 62, "duration": 472, "velocity": 80}, {"time": 65521, "pitch": 67, "duration": 472, "velocity": 90}, {"time": 65521, "pitch": 71, "duration": 472, "velocity": 100}, {"time": 65521, "pitch": 76, "duration": 472, "velocity": 110}, {"time": 66003, "pitch": 61, "duration": 231, "velocity": 80}, {"time": 66003, "pitch": 66, "duration": 231, "velocity": 90}, {"time": 66003, "pitch": 71, "duration": 231, "velocity": 100}, {"time": 66003, "pitch": 75, "duration": 231, "velocity": 110}, {"time": 66244, "pitch": 61, "duration": 703, "velocity": 80}, {"time": 66244, "pitch": 66, "duration": 703, "velocity": 90}, {"time": 66244, "pitch": 69, "duration": 703, "velocity": 100}, {"time": 66244, "pitch": 74, "duration": 703, "velocity": 110}, {"time": 66957, "pitch": 61, "duration": 713, "velocity": 80}, {"time": 66957, "pitch": 64, "duration": 713, "velocity": 90}, {"time": 66957, "pitch": 69, "duration": 713, "velocity": 100}, {"time": 66957, "pitch": 73, "duration": 713, "velocity": 110}, {"time": 98877, "pitch": 64, "duration": 110, "velocity": 100}, {"time": 98877, "pitch": 76, "duration": 110, "velocity": 120}, {"time": 99118, "pitch": 66, "duration": 110, "velocity": 100}, {"time": 99118, "pitch": 78, "duration": 110, "velocity": 120}, {"time": 99600, "pitch": 68, "duration": 110, "velocity": 100}, {"time": 99600, "pitch": 80, "duration": 110, "velocity": 120}, {"time": 100081, "pitch": 71, "duration": 472, "velocity": 100}, {"time": 100081, "pitch": 83, "duration": 472, "velocity": 120}, {"time": 100563, "pitch": 69, "duration": 110, "velocity": 100}, {"time": 100563, "pitch": 81, "duration": 110, "velocity": 120}, {"time": 100804, "pitch": 64, "duration": 108, "velocity": 100}, {"time": 100804, "pitch": 76, "duration": 108, "velocity": 120}, {"time": 101040, "pitch": 59, "duration": 108, "velocity": 100}, {"time": 101040, "pitch": 71, "duration": 108, "velocity": 120}, {"time": 101517, "pitch": 57, "duration": 110, "velocity": 100}, {"time": 101517, "pitch": 69, "duration": 110, "velocity": 120}, {"time": 101999, "pitch": 56, "duration": 110, "velocity": 100}, {"time": 101999, "pitch": 68, "duration": 110, "velocity": 120}, {"time": 146159, "pitch": 66, "duration": 708, "velocity": 80}, {"time": 146159, "pitch": 71, "duration": 708, "velocity": 90}, {"time": 146159, "pitch": 75, "duration": 708, "velocity": 100}, {"time": 146159, "pitch": 80, "duration": 708, "velocity": 110}, {"time": 146877, "pitch": 65, "duration": 231, "velocity": 80}, {"time": 146877, "pitch": 70, "duration": 231, "velocity": 90}, {"time": 146877, "pitch": 75, "duration": 231, "velocity": 100}, {"time": 146877, "pitch": 79, "duration": 231, "velocity": 110}, {"time": 147118, "pitch": 64, "duration": 472, "velocity": 80}, {"time": 147118, "pitch": 69, "duration": 472, "velocity": 90}, {"time": 147118, "pitch": 73, "duration": 472, "velocity": 100}, {"time": 147118, "pitch": 78, "duration": 472, "velocity": 110}, {"time": 147600, "pitch": 63, "duration": 472, "velocity": 80}, {"time": 147600, "pitch": 68, "duration": 472, "velocity": 90}, {"time": 147600, "pitch": 73, "duration": 472, "velocity": 100}, {"time": 147600, "pitch": 77, "duration": 472, "velocity": 110}, {"time": 148082, "pitch": 62, "duration": 471, "velocity": 80}, {"time": 148082, "pitch": 67, "duration": 471, "velocity": 90}, {"time": 148082, "pitch": 71, "duration": 471, "velocity": 100}, {"time": 148082, "pitch": 76, "duration": 471, "velocity": 110}, {"time": 148563, "pitch": 61, "duration": 231, "velocity": 80}, {"time": 148563, "pitch": 66, "duration": 231, "velocity": 90}, {"time": 148563, "pitch": 71, "duration": 231, "velocity": 100}, {"time": 148563, "pitch": 75, "duration": 231, "velocity": 110}, {"time": 148804, "pitch": 61, "duration": 703, "velocity": 80}, {"time": 148804, "pitch": 66, "duration": 703, "velocity": 90}, {"time": 148804, "pitch": 69, "duration": 703, "velocity": 100}, {"time": 148804, "pitch": 74, "duration": 703, "velocity": 110}, {"time": 149517, "pitch": 61, "duration": 713, "velocity": 80}, {"time": 149517, "pitch": 64, "duration": 713, "velocity": 90}, {"time": 149517, "pitch": 69, "duration": 713, "velocity": 100}, {"time": 149517, "pitch": 73, "duration": 713, "velocity": 110}, {"time": 194170, "pitch": 57, "duration": 29, "velocity": 75}, {"time": 194170, "pitch": 59, "duration": 29, "velocity": 75}, {"time": 194179, "pitch": 61, "duration": 30, "velocity": 76}, {"time": 194199, "pitch": 63, "duration": 30, "velocity": 78}, {"time": 194219, "pitch": 64, "duration": 29, "velocity": 80}, {"time": 194229, "pitch": 66, "duration": 29, "velocity": 81}, {"time": 194248, "pitch": 68, "duration": 30, "velocity": 83}, {"time": 194268, "pitch": 69, "duration": 29, "velocity": 85}, {"time": 194288, "pitch": 71, "duration": 29, "velocity": 86}, {"time": 194297, "pitch": 73, "duration": 30, "velocity": 87}, {"time": 194307, "pitch": 75, "duration": 30, "velocity": 88}, {"time": 194327, "pitch": 76, "duration": 29, "velocity": 90}, {"time": 194347, "pitch": 78, "duration": 29, "velocity": 92}, {"time": 194356, "pitch": 80, "duration": 40, "velocity": 93}, {"time": 194376, "pitch": 81, "duration": 20, "velocity": 95}, {"time": 194396, "pitch": 72, "duration": 712, "velocity": 90}, {"time": 194396, "pitch": 78, "duration": 712, "velocity": 100}, {"time": 194396, "pitch": 80, "duration": 10, "velocity": 100}, {"time": 194396, "pitch": 81, "duration": 20, "velocity": 100}, {"time": 194396, "pitch": 83, "duration": 712, "velocity": 110}, {"time": 195118, "pitch": 72, "duration": 1195, "velocity": 90}, {"time": 195118, "pitch": 78, "duration": 1195, "velocity": 100}, {"time": 195118, "pitch": 81, "duration": 1195, "velocity": 110}, {"time": 224880, "pitch": 66, "duration": 713, "velocity": 80}, {"time": 224880, "pitch": 71, "duration": 713, "velocity": 90}, {"time": 224880, "pitch": 75, "duration": 713, "velocity": 100}, {"time": 224880, "pitch": 80, "duration": 713, "velocity": 110}, {"time": 225603, "pitch": 65, "duration": 231, "velocity": 80}, {"time": 225603, "pitch": 70, "duration": 231, "velocity": 90}, {"time": 225603, "pitch": 75, "duration": 231, "velocity": 100}, {"time": 225603, "pitch": 79, "duration": 231, "velocity": 110}, {"time": 225844, "pitch": 64, "duration": 467, "velocity": 80}, {"time": 225844, "pitch": 69, "duration": 467, "velocity": 90}, {"time": 225844, "pitch": 73, "duration": 467, "velocity": 100}, {"time": 225844, "pitch": 78, "duration": 467, "velocity": 110}, {"time": 226321, "pitch": 63, "duration": 466, "velocity": 80}, {"time": 226321, "pitch": 68, "duration": 466, "velocity": 90}, {"time": 226321, "pitch": 73, "duration": 466, "velocity": 100}, {"time": 226321, "pitch": 77, "duration": 466, "velocity": 110}, {"time": 226797, "pitch": 62, "duration": 472, "velocity": 80}, {"time": 226797, "pitch": 67, "duration": 472, "velocity": 90}, {"time": 226797, "pitch": 71, "duration": 472, "velocity": 100}, {"time": 226797, "pitch": 76, "duration": 472, "velocity": 110}, {"time": 227279, "pitch": 61, "duration": 231, "velocity": 80}, {"time": 227279, "pitch": 66, "duration": 231, "velocity": 90}, {"time": 227279, "pitch": 71, "duration": 231, "velocity": 100}, {"time": 227279, "pitch": 75, "duration": 231, "velocity": 110}, {"time": 227520, "pitch": 61, "duration": 713, "velocity": 80}, {"time": 227520, "pitch": 66, "duration": 713, "velocity": 90}, {"time": 227520, "pitch": 69, "duration": 713, "velocity": 100}, {"time": 227520, "pitch": 74, "duration": 713, "velocity": 110}, {"time": 228243, "pitch": 61, "duration": 703, "velocity": 80}, {"time": 228243, "pitch": 64, "duration": 703, "velocity": 90}, {"time": 228243, "pitch": 69, "duration": 703, "velocity": 100}, {"time": 228243, "pitch": 73, "duration": 703, "velocity": 110}, {"time": 272890, "pitch": 57, "duration": 31, "velocity": 75}, {"time": 272890, "pitch": 59, "duration": 31, "velocity": 75}, {"time": 272900, "pitch": 61, "duration": 31, "velocity": 76}, {"time": 272921, "pitch": 63, "duration": 30, "velocity": 78}, {"time": 272941, "pitch": 64, "duration": 30, "velocity": 80}, {"time": 272951, "pitch": 66, "duration": 30, "velocity": 81}, {"time": 272971, "pitch": 68, "duration": 30, "velocity": 83}, {"time": 272991, "pitch": 69, "duration": 30, "velocity": 85}, {"time": 273011, "pitch": 71, "duration": 30, "velocity": 86}, {"time": 273021, "pitch": 73, "duration": 30, "velocity": 87}, {"time": 273031, "pitch": 75, "duration": 30, "velocity": 88}, {"time": 273051, "pitch": 76, "duration": 30, "velocity": 90}, {"time": 273071, "pitch": 78, "duration": 30, "velocity": 92}, {"time": 273081, "pitch": 80, "duration": 40, "velocity": 93}, {"time": 273101, "pitch": 81, "duration": 20, "velocity": 95}, {"time": 273121, "pitch": 72, "duration": 713, "velocity": 90}, {"time": 273121, "pitch": 78, "duration": 713, "velocity": 100}, {"time": 273121, "pitch": 80, "duration": 10, "velocity": 100}, {"time": 273121, "pitch": 81, "duration": 20, "velocity": 100}, {"time": 273121, "pitch": 83, "duration": 713, "velocity": 110}, {"time": 273844, "pitch": 72, "duration": 1185, "velocity": 90}, {"time": 273844, "pitch": 78, "duration": 1185, "velocity": 100}, {"time": 273844, "pitch": 81, "duration": 1185, "velocity": 110}, {"time": 275039, "pitch": 71, "duration": 7668, "velocity": 20}, {"time": 275039, "pitch": 73, "duration": 7668, "velocity": 30}, {"time": 275039, "pitch": 76, "duration": 7668, "velocity": 40}, {"time": 275039, "pitch": 80, "duration": 7668, "velocity": 50}, {"time": 67680, "pitch": 59, "duration": 10, "velocity": 120}, {"time": 67800, "pitch": 68, "duration": 10, "velocity": 120}, {"time": 67921, "pitch": 76, "duration": 10, "velocity": 120}, {"time": 68041, "pitch": 68, "duration": 10, "velocity": 120}, {"time": 68282, "pitch": 64, "duration": 10, "velocity": 120}, {"time": 68402, "pitch": 71, "duration": 10, "velocity": 120}, {"time": 68523, "pitch": 68, "duration": 10, "velocity": 120}, {"time": 68643, "pitch": 64, "duration": 10, "velocity": 120}, {"time": 68761, "pitch": 80, "duration": 10, "velocity": 120}, {"time": 68879, "pitch": 68, "duration": 10, "velocity": 120}, {"time": 68997, "pitch": 71, "duration": 10, "velocity": 120}, {"time": 69115, "pitch": 59, "duration": 10, "velocity": 120}, {"time": 69236, "pitch": 64, "duration": 10, "velocity": 120}, {"time": 69356, "pitch": 76, "duration": 10, "velocity": 120}, {"time": 69476, "pitch": 71, "duration": 11, "velocity": 120}, {"time": 69597, "pitch": 59, "duration": 10, "velocity": 120}, {"time": 69717, "pitch": 68, "duration": 10, "velocity": 120}, {"time": 69838, "pitch": 75, "duration": 10, "velocity": 120}, {"time": 69958, "pitch": 68, "duration": 10, "velocity": 120}, {"time": 70199, "pitch": 63, "duration": 10, "velocity": 120}, {"time": 70320, "pitch": 71, "duration": 10, "velocity": 120}, {"time": 70440, "pitch": 68, "duration": 10, "velocity": 120}, {"time": 70560, "pitch": 63, "duration": 10, "velocity": 120}, {"time": 70681, "pitch": 80, "duration": 10, "velocity": 120}, {"time": 70801, "pitch": 68, "duration": 10, "velocity": 120}, {"time": 70922, "pitch": 71, "duration": 10, "velocity": 120}, {"time": 71042, "pitch": 59, "duration": 10, "velocity": 120}, {"time": 71163, "pitch": 63, "duration": 10, "velocity": 120}, {"time": 71283, "pitch": 75, "duration": 10, "velocity": 120}, {"time": 71404, "pitch": 71, "duration": 10, "velocity": 120}, {"time": 71524, "pitch": 57, "duration": 10, "velocity": 120}, {"time": 71642, "pitch": 66, "duration": 10, "velocity": 120}, {"time": 71760, "pitch": 74, "duration": 10, "velocity": 120}, {"time": 71878, "pitch": 66, "duration": 10, "velocity": 120}, {"time": 72116, "pitch": 62, "duration": 10, "velocity": 120}, {"time": 72237, "pitch": 69, "duration": 10, "velocity": 120}, {"time": 72357, "pitch": 66, "duration": 10, "velocity": 120}, {"time": 72478, "pitch": 62, "duration": 10, "velocity": 120}, {"time": 72598, "pitch": 78, "duration": 10, "velocity": 120}, {"time": 72719, "pitch": 66, "duration": 10, "velocity": 120}, {"time": 72839, "pitch": 69, "duration": 10, "velocity": 120}, {"time": 72959, "pitch": 57, "duration": 11, "velocity": 120}, {"time": 73080, "pitch": 62, "duration": 10, "velocity": 120}, {"time": 73200, "pitch": 74, "duration": 10, "velocity": 120}, {"time": 73321, "pitch": 69, "duration": 10, "velocity": 120}, {"time": 73441, "pitch": 61, "duration": 10, "velocity": 120}, {"time": 73562, "pitch": 68, "duration": 10, "velocity": 120}, {"time": 73682, "pitch": 76, "duration": 10, "velocity": 120}, {"time": 73803, "pitch": 68, "duration": 10, "velocity": 120}, {"time": 74043, "pitch": 64, "duration": 10, "velocity": 120}, {"time": 74164, "pitch": 71, "duration": 10, "velocity": 120}, {"time": 74284, "pitch": 68, "duration": 10, "velocity": 120}, {"time": 74405, "pitch": 64, "duration": 10, "velocity": 120}, {"time": 74523, "pitch": 80, "duration": 10, "velocity": 120}, {"time": 74641, "pitch": 68, "duration": 10, "velocity": 120}, {"time": 74759, "pitch": 71, "duration": 10, "velocity": 120}, {"time": 74877, "pitch": 61, "duration": 10, "velocity": 120}, {"time": 74997, "pitch": 64, "duration": 10, "velocity": 120}, {"time": 75118, "pitch": 76, "duration": 10, "velocity": 120}, {"time": 75238, "pitch": 71, "duration": 10, "velocity": 120}, {"time": 75359, "pitch": 61, "duration": 10, "velocity": 120}, {"time": 75479, "pitch": 69, "duration": 10, "velocity": 120}, {"time": 75599, "pitch": 76, "duration": 10, "velocity": 120}, {"time": 75720, "pitch": 69, "duration": 10, "velocity": 120}, {"time": 75961, "pitch": 66, "duration": 10, "velocity": 120}, {"time": 76081, "pitch": 73, "duration": 10, "velocity": 120}, {"time": 76202, "pitch": 69, "duration": 10, "velocity": 120}, {"time": 76322, "pitch": 66, "duration": 10, "velocity": 120}, {"time": 76442, "pitch": 81, "duration": 11, "velocity": 120}, {"time": 76563, "pitch": 69, "duration": 10, "velocity": 120}, {"time": 76683, "pitch": 73, "duration": 10, "velocity": 120}, {"time": 76804, "pitch": 61, "duration": 10, "velocity": 120}, {"time": 76922, "pitch": 66, "duration": 10, "velocity": 120}, {"time": 77040, "pitch": 76, "duration": 10, "velocity": 120}, {"time": 77158, "pitch": 73, "duration": 10, "velocity": 120}, {"time": 77276, "pitch": 63, "duration": 10, "velocity": 120}, {"time": 77396, "pitch": 71, "duration": 10, "velocity": 120}, {"time": 77517, "pitch": 78, "duration": 10, "velocity": 120}, {"time": 77637, "pitch": 71, "duration": 10, "velocity": 120}, {"time": 77878, "pitch": 68, "duration": 10, "velocity": 120}, {"time": 77998, "pitch": 75, "duration": 10, "velocity": 120}, {"time": 78119, "pitch": 71, "duration": 10, "velocity": 120}, {"time": 78239, "pitch": 68, "duration": 10, "velocity": 120}, {"time": 78360, "pitch": 83, "duration": 10, "velocity": 120}, {"time": 78480, "pitch": 71, "duration": 10, "velocity": 120}, {"time": 78601, "pitch": 75, "duration": 10, "velocity": 120}, {"time": 78721, "pitch": 63, "duration": 10, "velocity": 120}, {"time": 78842, "pitch": 68, "duration": 10, "velocity": 120}, {"time": 78962, "pitch": 78, "duration": 10, "velocity": 120}, {"time": 79082, "pitch": 75, "duration": 10, "velocity": 120}, {"time": 79203, "pitch": 64, "duration": 10, "velocity": 120}, {"time": 79323, "pitch": 72, "duration": 10, "velocity": 120}, {"time": 79444, "pitch": 79, "duration": 10, "velocity": 120}, {"time": 79564, "pitch": 72, "duration": 10, "velocity": 120}, {"time": 79803, "pitch": 69, "duration": 9, "velocity": 120}, {"time": 79921, "pitch": 76, "duration": 9, "velocity": 120}, {"time": 80039, "pitch": 72, "duration": 9, "velocity": 120}, {"time": 80157, "pitch": 69, "duration": 10, "velocity": 120}, {"time": 80277, "pitch": 84, "duration": 10, "velocity": 120}, {"time": 80397, "pitch": 72, "duration": 11, "velocity": 120}, {"time": 80518, "pitch": 76, "duration": 10, "velocity": 120}, {"time": 80638, "pitch": 64, "duration": 10, "velocity": 120}, {"time": 80759, "pitch": 69, "duration": 10, "velocity": 120}, {"time": 80879, "pitch": 79, "duration": 10, "velocity": 120}, {"time": 81000, "pitch": 76, "duration": 10, "velocity": 120}, {"time": 81120, "pitch": 59, "duration": 10, "velocity": 120}, {"time": 81241, "pitch": 73, "duration": 10, "velocity": 120}, {"time": 81361, "pitch": 81, "duration": 10, "velocity": 120}, {"time": 81481, "pitch": 73, "duration": 10, "velocity": 120}, {"time": 81722, "pitch": 69, "duration": 10, "velocity": 120}, {"time": 81843, "pitch": 76, "duration": 10, "velocity": 120}, {"time": 81963, "pitch": 73, "duration": 10, "velocity": 120}, {"time": 82084, "pitch": 69, "duration": 9, "velocity": 120}, {"time": 82202, "pitch": 85, "duration": 9, "velocity": 120}, {"time": 82320, "pitch": 73, "duration": 9, "velocity": 120}, {"time": 82438, "pitch": 76, "duration": 10, "velocity": 120}, {"time": 82556, "pitch": 59, "duration": 10, "velocity": 120}, {"time": 82676, "pitch": 69, "duration": 10, "velocity": 120}, {"time": 82796, "pitch": 81, "duration": 11, "velocity": 120}, {"time": 82917, "pitch": 76, "duration": 10, "velocity": 120}, {"time": 83037, "pitch": 59, "duration": 10, "velocity": 120}, {"time": 83158, "pitch": 68, "duration": 10, "velocity": 120}, {"time": 83278, "pitch": 76, "duration": 10, "velocity": 120}, {"time": 83399, "pitch": 68, "duration": 10, "velocity": 120}, {"time": 83640, "pitch": 64, "duration": 10, "velocity": 120}, {"time": 83760, "pitch": 71, "duration": 10, "velocity": 120}, {"time": 83880, "pitch": 68, "duration": 11, "velocity": 120}, {"time": 84001, "pitch": 64, "duration": 10, "velocity": 120}, {"time": 84121, "pitch": 80, "duration": 10, "velocity": 120}, {"time": 84242, "pitch": 68, "duration": 10, "velocity": 120}, {"time": 84362, "pitch": 71, "duration": 10, "velocity": 120}, {"time": 84483, "pitch": 59, "duration": 10, "velocity": 120}, {"time": 84603, "pitch": 64, "duration": 10, "velocity": 120}, {"time": 84724, "pitch": 76, "duration": 10, "velocity": 120}, {"time": 84844, "pitch": 71, "duration": 10, "velocity": 120}, {"time": 84964, "pitch": 59, "duration": 10, "velocity": 120}, {"time": 85082, "pitch": 68, "duration": 10, "velocity": 120}, {"time": 85200, "pitch": 75, "duration": 10, "velocity": 120}, {"time": 85318, "pitch": 68, "duration": 10, "velocity": 120}, {"time": 85557, "pitch": 63, "duration": 10, "velocity": 120}, {"time": 85677, "pitch": 71, "duration": 10, "velocity": 120}, {"time": 85798, "pitch": 68, "duration": 10, "velocity": 120}, {"time": 85918, "pitch": 63, "duration": 10, "velocity": 120}, {"time": 86039, "pitch": 80, "duration": 10, "velocity": 120}, {"time": 86159, "pitch": 68, "duration": 10, "velocity": 120}, {"time": 86280, "pitch": 71, "duration": 10, "velocity": 120}, {"time": 86400, "pitch": 59, "duration": 10, "velocity": 120}, {"time": 86520, "pitch": 63, "duration": 10, "velocity": 120}, {"time": 86641, "pitch": 75, "duration": 10, "velocity": 120}, {"time": 86761, "pitch": 71, "duration": 10, "velocity": 120}, {"time": 86882, "pitch": 57, "duration": 10, "velocity": 120}, {"time": 87002, "pitch": 66, "duration": 10, "velocity": 120}, {"time": 87123, "pitch": 74, "duration": 10, "velocity": 120}, {"time": 87243, "pitch": 66, "duration": 10, "velocity": 120}, {"time": 87481, "pitch": 62, "duration": 10, "velocity": 120}, {"time": 87599, "pitch": 69, "duration": 10, "velocity": 120}, {"time": 87718, "pitch": 66, "duration": 9, "velocity": 120}, {"time": 87836, "pitch": 62, "duration": 9, "velocity": 120}, {"time": 87956, "pitch": 78, "duration": 10, "velocity": 120}, {"time": 88076, "pitch": 66, "duration": 10, "velocity": 120}, {"time": 88197, "pitch": 69, "duration": 10, "velocity": 120}, {"time": 88317, "pitch": 57, "duration": 10, "velocity": 120}, {"time": 88438, "pitch": 62, "duration": 10, "velocity": 120}, {"time": 88558, "pitch": 74, "duration": 10, "velocity": 120}, {"time": 88679, "pitch": 69, "duration": 10, "velocity": 120}, {"time": 88799, "pitch": 61, "duration": 10, "velocity": 120}, {"time": 88919, "pitch": 68, "duration": 10, "velocity": 120}, {"time": 89040, "pitch": 76, "duration": 10, "velocity": 120}, {"time": 89160, "pitch": 68, "duration": 10, "velocity": 120}, {"time": 89401, "pitch": 64, "duration": 10, "velocity": 120}, {"time": 89522, "pitch": 71, "duration": 10, "velocity": 120}, {"time": 89642, "pitch": 68, "duration": 10, "velocity": 120}, {"time": 89763, "pitch": 64, "duration": 10, "velocity": 120}, {"time": 89883, "pitch": 80, "duration": 10, "velocity": 120}, {"time": 90003, "pitch": 68, "duration": 10, "velocity": 120}, {"time": 90124, "pitch": 71, "duration": 10, "velocity": 120}, {"time": 90244, "pitch": 61, "duration": 10, "velocity": 120}, {"time": 90362, "pitch": 64, "duration": 10, "velocity": 120}, {"time": 90480, "pitch": 76, "duration": 10, "velocity": 120}, {"time": 90598, "pitch": 71, "duration": 10, "velocity": 120}, {"time": 90716, "pitch": 61, "duration": 10, "velocity": 120}, {"time": 90837, "pitch": 69, "duration": 10, "velocity": 120}, {"time": 90957, "pitch": 76, "duration": 10, "velocity": 120}, {"time": 91078, "pitch": 69, "duration": 10, "velocity": 120}, {"time": 91318, "pitch": 66, "duration": 10, "velocity": 120}, {"time": 91439, "pitch": 73, "duration": 10, "velocity": 120}, {"time": 91559, "pitch": 69, "duration": 10, "velocity": 120}, {"time": 91680, "pitch": 66, "duration": 10, "velocity": 120}, {"time": 91800, "pitch": 81, "duration": 10, "velocity": 120}, {"time": 91921, "pitch": 69, "duration": 10, "velocity": 120}, {"time": 92041, "pitch": 73, "duration": 10, "velocity": 120}, {"time": 92162, "pitch": 61, "duration": 10, "velocity": 120}, {"time": 92282, "pitch": 66, "duration": 10, "velocity": 120}, {"time": 92402, "pitch": 76, "duration": 10, "velocity": 120}, {"time": 92523, "pitch": 73, "duration": 10, "velocity": 120}, {"time": 92643, "pitch": 63, "duration": 10, "velocity": 120}, {"time": 92761, "pitch": 71, "duration": 10, "velocity": 120}, {"time": 92879, "pitch": 78, "duration": 10, "velocity": 120}, {"time": 92997, "pitch": 71, "duration": 10, "velocity": 120}, {"time": 93236, "pitch": 68, "duration": 10, "velocity": 120}, {"time": 93356, "pitch": 75, "duration": 10, "velocity": 120}, {"time": 93477, "pitch": 71, "duration": 10, "velocity": 120}, {"time": 93597, "pitch": 68, "duration": 10, "velocity": 120}, {"time": 93717, "pitch": 83, "duration": 11, "velocity": 120}, {"time": 93838, "pitch": 71, "duration": 10, "velocity": 120}, {"time": 93958, "pitch": 75, "duration": 10, "velocity": 120}, {"time": 94079, "pitch": 63, "duration": 10, "velocity": 120}, {"time": 94199, "pitch": 68, "duration": 10, "velocity": 120}, {"time": 94320, "pitch": 78, "duration": 10, "velocity": 120}, {"time": 94440, "pitch": 75, "duration": 10, "velocity": 120}, {"time": 94561, "pitch": 64, "duration": 10, "velocity": 120}, {"time": 94681, "pitch": 72, "duration": 10, "velocity": 120}, {"time": 94801, "pitch": 79, "duration": 11, "velocity": 120}, {"time": 94922, "pitch": 72, "duration": 10, "velocity": 120}, {"time": 95163, "pitch": 69, "duration": 10, "velocity": 120}, {"time": 95283, "pitch": 76, "duration": 10, "velocity": 120}, {"time": 95404, "pitch": 72, "duration": 10, "velocity": 120}, {"time": 95524, "pitch": 69, "duration": 10, "velocity": 120}, {"time": 95642, "pitch": 84, "duration": 10, "velocity": 120}, {"time": 95760, "pitch": 72, "duration": 10, "velocity": 120}, {"time": 95878, "pitch": 76, "duration": 10, "velocity": 120}, {"time": 95996, "pitch": 64, "duration": 10, "velocity": 120}, {"time": 96117, "pitch": 69, "duration": 10, "velocity": 120}, {"time": 96237, "pitch": 79, "duration": 10, "velocity": 120}, {"time": 96357, "pitch": 76, "duration": 10, "velocity": 120}, {"time": 96478, "pitch": 59, "duration": 10, "velocity": 120}, {"time": 96598, "pitch": 73, "duration": 10, "velocity": 120}, {"time": 96719, "pitch": 81, "duration": 10, "velocity": 120}, {"time": 96839, "pitch": 73, "duration": 10, "velocity": 120}, {"time": 97080, "pitch": 69, "duration": 10, "velocity": 120}, {"time": 97201, "pitch": 76, "duration": 10, "velocity": 120}, {"time": 97321, "pitch": 73, "duration": 10, "velocity": 120}, {"time": 97441, "pitch": 69, "duration": 10, "velocity": 120}, {"time": 97562, "pitch": 85, "duration": 10, "velocity": 120}, {"time": 97682, "pitch": 73, "duration": 10, "velocity": 120}, {"time": 97803, "pitch": 76, "duration": 10, "velocity": 120}, {"time": 97923, "pitch": 59, "duration": 10, "velocity": 120}, {"time": 98041, "pitch": 69, "duration": 10, "velocity": 120}, {"time": 98159, "pitch": 81, "duration": 10, "velocity": 120}, {"time": 98277, "pitch": 76, "duration": 10, "velocity": 120}, {"time": 98395, "pitch": 59, "duration": 10, "velocity": 120}, {"time": 98516, "pitch": 68, "duration": 10, "velocity": 120}, {"time": 98636, "pitch": 76, "duration": 10, "velocity": 120}, {"time": 98756, "pitch": 68, "duration": 10, "velocity": 120}, {"time": 98997, "pitch": 64, "duration": 10, "velocity": 120}, {"time": 99118, "pitch": 71, "duration": 10, "velocity": 120}, {"time": 99238, "pitch": 68, "duration": 10, "velocity": 120}, {"time": 99359, "pitch": 64, "duration": 10, "velocity": 120}, {"time": 99479, "pitch": 80, "duration": 10, "velocity": 120}, {"time": 99600, "pitch": 68, "duration": 10, "velocity": 120}, {"time": 99720, "pitch": 71, "duration": 10, "velocity": 120}, {"time": 99840, "pitch": 59, "duration": 10, "velocity": 120}, {"time": 99961, "pitch": 64, "duration": 10, "velocity": 120}, {"time": 100081, "pitch": 76, "duration": 10, "velocity": 120}, {"time": 100202, "pitch": 71, "duration": 10, "velocity": 120}, {"time": 100322, "pitch": 57, "duration": 10, "velocity": 120}, {"time": 100443, "pitch": 66, "duration": 10, "velocity": 120}, {"time": 100563, "pitch": 78, "duration": 10, "velocity": 120}, {"time": 100684, "pitch": 66, "duration": 10, "velocity": 120}, {"time": 100922, "pitch": 62, "duration": 10, "velocity": 120}, {"time": 101040, "pitch": 72, "duration": 10, "velocity": 120}, {"time": 101158, "pitch": 66, "duration": 10, "velocity": 120}, {"time": 101276, "pitch": 63, "duration": 10, "velocity": 120}, {"time": 101396, "pitch": 80, "duration": 10, "velocity": 120}, {"time": 101517, "pitch": 68, "duration": 10, "velocity": 120}, {"time": 101637, "pitch": 72, "duration": 10, "velocity": 120}, {"time": 101758, "pitch": 60, "duration": 10, "velocity": 120}, {"time": 101878, "pitch": 66, "duration": 10, "velocity": 120}, {"time": 101999, "pitch": 75, "duration": 10, "velocity": 120}, {"time": 102119, "pitch": 72, "duration": 10, "velocity": 120}, {"time": 102239, "pitch": 61, "duration": 10, "velocity": 120}, {"time": 102360, "pitch": 68, "duration": 10, "velocity": 120}, {"time": 102480, "pitch": 73, "duration": 10, "velocity": 120}, {"time": 102842, "pitch": 68, "duration": 10, "velocity": 120}, {"time": 102962, "pitch": 71, "duration": 10, "velocity": 120}, {"time": 103083, "pitch": 73, "duration": 10, "velocity": 120}, {"time": 103444, "pitch": 76, "duration": 10, "velocity": 120}, {"time": 103564, "pitch": 71, "duration": 10, "velocity": 120}, {"time": 103685, "pitch": 73, "duration": 9, "velocity": 120}, {"time": 104039, "pitch": 68, "duration": 10, "velocity": 120}, {"time": 104157, "pitch": 64, "duration": 10, "velocity": 120}, {"time": 104277, "pitch": 59, "duration": 10, "velocity": 120}, {"time": 104638, "pitch": 59, "duration": 11, "velocity": 120}, {"time": 104759, "pitch": 64, "duration": 10, "velocity": 120}, {"time": 104879, "pitch": 71, "duration": 10, "velocity": 120}, {"time": 105241, "pitch": 68, "duration": 10, "velocity": 120}, {"time": 105361, "pitch": 76, "duration": 10, "velocity": 120}, {"time": 105482, "pitch": 71, "duration": 10, "velocity": 120}, {"time": 105843, "pitch": 71, "duration": 10, "velocity": 120}, {"time": 105963, "pitch": 73, "duration": 10, "velocity": 120}, {"time": 106084, "pitch": 61, "duration": 10, "velocity": 120}, {"time": 106202, "pitch": 68, "duration": 10, "velocity": 120}, {"time": 106320, "pitch": 73, "duration": 10, "velocity": 120}, {"time": 106676, "pitch": 68, "duration": 10, "velocity": 120}, {"time": 106797, "pitch": 71, "duration": 10, "velocity": 120}, {"time": 106917, "pitch": 73, "duration": 10, "velocity": 120}, {"time": 107278, "pitch": 76, "duration": 10, "velocity": 120}, {"time": 107399, "pitch": 71, "duration": 10, "velocity": 120}, {"time": 107519, "pitch": 73, "duration": 10, "velocity": 120}, {"time": 107881, "pitch": 68, "duration": 10, "velocity": 120}, {"time": 108001, "pitch": 64, "duration": 10, "velocity": 120}, {"time": 108122, "pitch": 59, "duration": 10, "velocity": 120}, {"time": 108483, "pitch": 59, "duration": 10, "velocity": 120}, {"time": 108603, "pitch": 64, "duration": 10, "velocity": 120}, {"time": 108724, "pitch": 71, "duration": 10, "velocity": 120}, {"time": 109083, "pitch": 68, "duration": 9, "velocity": 120}, {"time": 109201, "pitch": 76, "duration": 9, "velocity": 120}, {"time": 109319, "pitch": 71, "duration": 9, "velocity": 120}, {"time": 109677, "pitch": 71, "duration": 10, "velocity": 120}, {"time": 109798, "pitch": 73, "duration": 10, "velocity": 120}, {"time": 109918, "pitch": 61, "duration": 10, "velocity": 120}, {"time": 110039, "pitch": 68, "duration": 10, "velocity": 120}, {"time": 110159, "pitch": 73, "duration": 10, "velocity": 120}, {"time": 110521, "pitch": 68, "duration": 10, "velocity": 120}, {"time": 110641, "pitch": 71, "duration": 10, "velocity": 120}, {"time": 110761, "pitch": 73, "duration": 10, "velocity": 120}, {"time": 111123, "pitch": 76, "duration": 10, "velocity": 120}, {"time": 111243, "pitch": 71, "duration": 10, "velocity": 120}, {"time": 111364, "pitch": 73, "duration": 9, "velocity": 120}, {"time": 111718, "pitch": 68, "duration": 9, "velocity": 120}, {"time": 111836, "pitch": 64, "duration": 10, "velocity": 120}, {"time": 111956, "pitch": 59, "duration": 10, "velocity": 120}, {"time": 112317, "pitch": 59, "duration": 10, "velocity": 120}, {"time": 112438, "pitch": 64, "duration": 10, "velocity": 120}, {"time": 112558, "pitch": 71, "duration": 10, "velocity": 120}, {"time": 112920, "pitch": 68, "duration": 10, "velocity": 120}, {"time": 113040, "pitch": 76, "duration": 10, "velocity": 120}, {"time": 113160, "pitch": 71, "duration": 10, "velocity": 120}, {"time": 113522, "pitch": 71, "duration": 10, "velocity": 120}, {"time": 113642, "pitch": 73, "duration": 10, "velocity": 120}, {"time": 113763, "pitch": 61, "duration": 10, "velocity": 120}, {"time": 113883, "pitch": 68, "duration": 10, "velocity": 120}, {"time": 114004, "pitch": 73, "duration": 10, "velocity": 120}, {"time": 114362, "pitch": 68, "duration": 10, "velocity": 120}, {"time": 114480, "pitch": 71, "duration": 10, "velocity": 120}, {"time": 114598, "pitch": 73, "duration": 10, "velocity": 120}, {"time": 114957, "pitch": 76, "duration": 10, "velocity": 120}, {"time": 115078, "pitch": 71, "duration": 10, "velocity": 120}, {"time": 115198, "pitch": 73, "duration": 10, "velocity": 120}, {"time": 115559, "pitch": 68, "duration": 11, "velocity": 120}, {"time": 115680, "pitch": 64, "duration": 10, "velocity": 120}, {"time": 115800, "pitch": 59, "duration": 10, "velocity": 120}, {"time": 116162, "pitch": 59, "duration": 10, "velocity": 120}, {"time": 116282, "pitch": 64, "duration": 10, "velocity": 120}, {"time": 116403, "pitch": 71, "duration": 10, "velocity": 120}, {"time": 116761, "pitch": 68, "duration": 10, "velocity": 120}, {"time": 116879, "pitch": 76, "duration": 10, "velocity": 120}, {"time": 116997, "pitch": 71, "duration": 10, "velocity": 120}, {"time": 117356, "pitch": 71, "duration": 10, "velocity": 120}, {"time": 117477, "pitch": 73, "duration": 10, "velocity": 120}, {"time": 117597, "pitch": 61, "duration": 10, "velocity": 120}, {"time": 117718, "pitch": 68, "duration": 10, "velocity": 120}, {"time": 117838, "pitch": 73, "duration": 10, "velocity": 120}, {"time": 118199, "pitch": 68, "duration": 10, "velocity": 120}, {"time": 118320, "pitch": 71, "duration": 10, "velocity": 120}, {"time": 118440, "pitch": 73, "duration": 10, "velocity": 120}, {"time": 118802, "pitch": 76, "duration": 10, "velocity": 120}, {"time": 118922, "pitch": 71, "duration": 10, "velocity": 120}, {"time": 119043, "pitch": 73, "duration": 10, "velocity": 120}, {"time": 119404, "pitch": 68, "duration": 10, "velocity": 120}, {"time": 119524, "pitch": 64, "duration": 10, "velocity": 120}, {"time": 119642, "pitch": 59, "duration": 10, "velocity": 120}, {"time": 119996, "pitch": 59, "duration": 10, "velocity": 120}, {"time": 120117, "pitch": 64, "duration": 10, "velocity": 120}, {"time": 120237, "pitch": 71, "duration": 10, "velocity": 120}, {"time": 120598, "pitch": 68, "duration": 10, "velocity": 120}, {"time": 120719, "pitch": 76, "duration": 10, "velocity": 120}, {"time": 120839, "pitch": 71, "duration": 10, "velocity": 120}, {"time": 121201, "pitch": 71, "duration": 10, "velocity": 120}, {"time": 121321, "pitch": 73, "duration": 10, "velocity": 120}, {"time": 121442, "pitch": 61, "duration": 10, "velocity": 120}, {"time": 121562, "pitch": 68, "duration": 10, "velocity": 120}, {"time": 121682, "pitch": 73, "duration": 10, "velocity": 120}, {"time": 122041, "pitch": 68, "duration": 10, "velocity": 120}, {"time": 122159, "pitch": 71, "duration": 10, "velocity": 120}, {"time": 122277, "pitch": 73, "duration": 10, "velocity": 120}, {"time": 122636, "pitch": 76, "duration": 10, "velocity": 120}, {"time": 122757, "pitch": 71, "duration": 10, "velocity": 120}, {"time": 122877, "pitch": 73, "duration": 10, "velocity": 120}, {"time": 123238, "pitch": 68, "duration": 10, "velocity": 120}, {"time": 123359, "pitch": 64, "duration": 10, "velocity": 120}, {"time": 123479, "pitch": 59, "duration": 10, "velocity": 120}, {"time": 123841, "pitch": 59, "duration": 10, "velocity": 120}, {"time": 123961, "pitch": 64, "duration": 10, "velocity": 120}, {"time": 124081, "pitch": 71, "duration": 10, "velocity": 120}, {"time": 124443, "pitch": 68, "duration": 10, "velocity": 120}, {"time": 124563, "pitch": 76, "duration": 10, "velocity": 120}, {"time": 124684, "pitch": 71, "duration": 10, "velocity": 120}, {"time": 125040, "pitch": 71, "duration": 10, "velocity": 120}, {"time": 125158, "pitch": 73, "duration": 10, "velocity": 120}, {"time": 125276, "pitch": 61, "duration": 10, "velocity": 120}, {"time": 125397, "pitch": 68, "duration": 10, "velocity": 120}, {"time": 125517, "pitch": 73, "duration": 10, "velocity": 120}, {"time": 125878, "pitch": 68, "duration": 10, "velocity": 120}, {"time": 125999, "pitch": 71, "duration": 10, "velocity": 120}, {"time": 126119, "pitch": 73, "duration": 10, "velocity": 120}, {"time": 126480, "pitch": 76, "duration": 11, "velocity": 120}, {"time": 126601, "pitch": 71, "duration": 10, "velocity": 120}, {"time": 126721, "pitch": 73, "duration": 10, "velocity": 120}, {"time": 127083, "pitch": 68, "duration": 10, "velocity": 120}, {"time": 127203, "pitch": 64, "duration": 10, "velocity": 120}, {"time": 127321, "pitch": 59, "duration": 10, "velocity": 120}, {"time": 127675, "pitch": 59, "duration": 10, "velocity": 120}, {"time": 127796, "pitch": 64, "duration": 10, "velocity": 120}, {"time": 127916, "pitch": 71, "duration": 10, "velocity": 120}, {"time": 128277, "pitch": 68, "duration": 10, "velocity": 120}, {"time": 128398, "pitch": 76, "duration": 10, "velocity": 120}, {"time": 128518, "pitch": 71, "duration": 10, "velocity": 120}, {"time": 128880, "pitch": 71, "duration": 10, "velocity": 120}, {"time": 129000, "pitch": 73, "duration": 10, "velocity": 120}, {"time": 129120, "pitch": 62, "duration": 10, "velocity": 120}, {"time": 129241, "pitch": 66, "duration": 10, "velocity": 120}, {"time": 129361, "pitch": 73, "duration": 10, "velocity": 120}, {"time": 129723, "pitch": 66, "duration": 10, "velocity": 120}, {"time": 129843, "pitch": 71, "duration": 10, "velocity": 120}, {"time": 129963, "pitch": 73, "duration": 11, "velocity": 120}, {"time": 130320, "pitch": 78, "duration": 10, "velocity": 120}, {"time": 130438, "pitch": 71, "duration": 10, "velocity": 120}, {"time": 130556, "pitch": 73, "duration": 10, "velocity": 120}, {"time": 130917, "pitch": 66, "duration": 10, "velocity": 120}, {"time": 131038, "pitch": 66, "duration": 10, "velocity": 120}, {"time": 131158, "pitch": 60, "duration": 10, "velocity": 120}, {"time": 131519, "pitch": 60, "duration": 10, "velocity": 120}, {"time": 131640, "pitch": 66, "duration": 10, "velocity": 120}, {"time": 131760, "pitch": 72, "duration": 10, "velocity": 120}, {"time": 132122, "pitch": 68, "duration": 10, "velocity": 120}, {"time": 132242, "pitch": 78, "duration": 10, "velocity": 120}, {"time": 132363, "pitch": 72, "duration": 10, "velocity": 120}, {"time": 132724, "pitch": 72, "duration": 10, "velocity": 120}, {"time": 132844, "pitch": 75, "duration": 10, "velocity": 120}, {"time": 150240, "pitch": 59, "duration": 10, "velocity": 120}, {"time": 150360, "pitch": 68, "duration": 10, "velocity": 120}, {"time": 150481, "pitch": 76, "duration": 10, "velocity": 120}, {"time": 150601, "pitch": 68, "duration": 10, "velocity": 120}, {"time": 150842, "pitch": 64, "duration": 10, "velocity": 120}, {"time": 150962, "pitch": 71, "duration": 10, "velocity": 120}, {"time": 151083, "pitch": 68, "duration": 10, "velocity": 120}, {"time": 151203, "pitch": 64, "duration": 10, "velocity": 120}, {"time": 151321, "pitch": 80, "duration": 10, "velocity": 120}, {"time": 151439, "pitch": 68, "duration": 10, "velocity": 120}, {"time": 151557, "pitch": 71, "duration": 10, "velocity": 120}, {"time": 151675, "pitch": 59, "duration": 10, "velocity": 120}, {"time": 151796, "pitch": 64, "duration": 10, "velocity": 120}, {"time": 151916, "pitch": 76, "duration": 10, "velocity": 120}, {"time": 152037, "pitch": 71, "duration": 10, "velocity": 120}, {"time": 152157, "pitch": 59, "duration": 10, "velocity": 120}, {"time": 152277, "pitch": 68, "duration": 11, "velocity": 120}, {"time": 152398, "pitch": 75, "duration": 10, "velocity": 120}, {"time": 152518, "pitch": 68, "duration": 10, "velocity": 120}, {"time": 152759, "pitch": 63, "duration": 10, "velocity": 120}, {"time": 152880, "pitch": 71, "duration": 10, "velocity": 120}, {"time": 153000, "pitch": 68, "duration": 10, "velocity": 120}, {"time": 153121, "pitch": 63, "duration": 10, "velocity": 120}, {"time": 153241, "pitch": 80, "duration": 10, "velocity": 120}, {"time": 153361, "pitch": 68, "duration": 10, "velocity": 120}, {"time": 153482, "pitch": 71, "duration": 10, "velocity": 120}, {"time": 153602, "pitch": 59, "duration": 10, "velocity": 120}, {"time": 153723, "pitch": 63, "duration": 10, "velocity": 120}, {"time": 153843, "pitch": 75, "duration": 10, "velocity": 120}, {"time": 153964, "pitch": 71, "duration": 10, "velocity": 120}, {"time": 154084, "pitch": 57, "duration": 10, "velocity": 120}, {"time": 154202, "pitch": 66, "duration": 10, "velocity": 120}, {"time": 154320, "pitch": 74, "duration": 10, "velocity": 120}, {"time": 154438, "pitch": 66, "duration": 10, "velocity": 120}, {"time": 154676, "pitch": 62, "duration": 11, "velocity": 120}, {"time": 154797, "pitch": 69, "duration": 10, "velocity": 120}, {"time": 154917, "pitch": 66, "duration": 10, "velocity": 120}, {"time": 155038, "pitch": 62, "duration": 10, "velocity": 120}, {"time": 155158, "pitch": 78, "duration": 10, "velocity": 120}, {"time": 155279, "pitch": 66, "duration": 10, "velocity": 120}, {"time": 155399, "pitch": 69, "duration": 10, "velocity": 120}, {"time": 155520, "pitch": 57, "duration": 10, "velocity": 120}, {"time": 155640, "pitch": 62, "duration": 10, "velocity": 120}, {"time": 155760, "pitch": 74, "duration": 11, "velocity": 120}, {"time": 155881, "pitch": 69, "duration": 10, "velocity": 120}, {"time": 156001, "pitch": 61, "duration": 10, "velocity": 120}, {"time": 156122, "pitch": 68, "duration": 10, "velocity": 120}, {"time": 156242, "pitch": 76, "duration": 10, "velocity": 120}, {"time": 156363, "pitch": 68, "duration": 10, "velocity": 120}, {"time": 156604, "pitch": 64, "duration": 10, "velocity": 120}, {"time": 156724, "pitch": 71, "duration": 10, "velocity": 120}, {"time": 156844, "pitch": 68, "duration": 10, "velocity": 120}, {"time": 156965, "pitch": 64, "duration": 10, "velocity": 120}, {"time": 157083, "pitch": 80, "duration": 10, "velocity": 120}, {"time": 157201, "pitch": 68, "duration": 10, "velocity": 120}, {"time": 157319, "pitch": 71, "duration": 10, "velocity": 120}, {"time": 157437, "pitch": 61, "duration": 10, "velocity": 120}, {"time": 157557, "pitch": 64, "duration": 10, "velocity": 120}, {"time": 157678, "pitch": 76, "duration": 10, "velocity": 120}, {"time": 157798, "pitch": 71, "duration": 10, "velocity": 120}, {"time": 157919, "pitch": 61, "duration": 10, "velocity": 120}, {"time": 158039, "pitch": 69, "duration": 10, "velocity": 120}, {"time": 158160, "pitch": 76, "duration": 10, "velocity": 120}, {"time": 158280, "pitch": 69, "duration": 10, "velocity": 120}, {"time": 158521, "pitch": 66, "duration": 10, "velocity": 120}, {"time": 158641, "pitch": 73, "duration": 10, "velocity": 120}, {"time": 158762, "pitch": 69, "duration": 10, "velocity": 120}, {"time": 158882, "pitch": 66, "duration": 10, "velocity": 120}, {"time": 159003, "pitch": 81, "duration": 10, "velocity": 120}, {"time": 159123, "pitch": 69, "duration": 10, "velocity": 120}, {"time": 159243, "pitch": 73, "duration": 11, "velocity": 120}, {"time": 159364, "pitch": 61, "duration": 10, "velocity": 120}, {"time": 159482, "pitch": 66, "duration": 10, "velocity": 120}, {"time": 159600, "pitch": 76, "duration": 10, "velocity": 120}, {"time": 159718, "pitch": 73, "duration": 10, "velocity": 120}, {"time": 159836, "pitch": 63, "duration": 10, "velocity": 120}, {"time": 159956, "pitch": 71, "duration": 10, "velocity": 120}, {"time": 160077, "pitch": 78, "duration": 10, "velocity": 120}, {"time": 160197, "pitch": 71, "duration": 10, "velocity": 120}, {"time": 160438, "pitch": 68, "duration": 10, "velocity": 120}, {"time": 160559, "pitch": 75, "duration": 10, "velocity": 120}, {"time": 160679, "pitch": 71, "duration": 10, "velocity": 120}, {"time": 160799, "pitch": 68, "duration": 10, "velocity": 120}, {"time": 160920, "pitch": 83, "duration": 10, "velocity": 120}, {"time": 161040, "pitch": 71, "duration": 10, "velocity": 120}, {"time": 161161, "pitch": 75, "duration": 10, "velocity": 120}, {"time": 161281, "pitch": 63, "duration": 10, "velocity": 120}, {"time": 161402, "pitch": 68, "duration": 10, "velocity": 120}, {"time": 161522, "pitch": 78, "duration": 10, "velocity": 120}, {"time": 161643, "pitch": 75, "duration": 10, "velocity": 120}, {"time": 161763, "pitch": 64, "duration": 10, "velocity": 120}, {"time": 161883, "pitch": 72, "duration": 10, "velocity": 120}, {"time": 162004, "pitch": 79, "duration": 10, "velocity": 120}, {"time": 162124, "pitch": 72, "duration": 10, "velocity": 120}, {"time": 162363, "pitch": 69, "duration": 9, "velocity": 120}, {"time": 162481, "pitch": 76, "duration": 10, "velocity": 120}, {"time": 162599, "pitch": 72, "duration": 10, "velocity": 120}, {"time": 162717, "pitch": 69, "duration": 10, "velocity": 120}, {"time": 162837, "pitch": 84, "duration": 10, "velocity": 120}, {"time": 162958, "pitch": 72, "duration": 10, "velocity": 120}, {"time": 163078, "pitch": 76, "duration": 10, "velocity": 120}, {"time": 163198, "pitch": 64, "duration": 10, "velocity": 120}, {"time": 163319, "pitch": 69, "duration": 10, "velocity": 120}, {"time": 163439, "pitch": 79, "duration": 10, "velocity": 120}, {"time": 163560, "pitch": 76, "duration": 10, "velocity": 120}, {"time": 163680, "pitch": 59, "duration": 10, "velocity": 120}, {"time": 163801, "pitch": 73, "duration": 10, "velocity": 120}, {"time": 163921, "pitch": 81, "duration": 10, "velocity": 120}, {"time": 164042, "pitch": 73, "duration": 10, "velocity": 120}, {"time": 164282, "pitch": 69, "duration": 10, "velocity": 120}, {"time": 164403, "pitch": 76, "duration": 10, "velocity": 120}, {"time": 164523, "pitch": 73, "duration": 10, "velocity": 120}, {"time": 164644, "pitch": 69, "duration": 10, "velocity": 120}, {"time": 164762, "pitch": 85, "duration": 10, "velocity": 120}, {"time": 164880, "pitch": 73, "duration": 10, "velocity": 120}, {"time": 164998, "pitch": 76, "duration": 10, "velocity": 120}, {"time": 165116, "pitch": 59, "duration": 10, "velocity": 120}, {"time": 165236, "pitch": 69, "duration": 10, "velocity": 120}, {"time": 165357, "pitch": 81, "duration": 10, "velocity": 120}, {"time": 165477, "pitch": 76, "duration": 10, "velocity": 120}, {"time": 165597, "pitch": 59, "duration": 11, "velocity": 120}, {"time": 165718, "pitch": 68, "duration": 10, "velocity": 120}, {"time": 165838, "pitch": 76, "duration": 10, "velocity": 120}, {"time": 165959, "pitch": 68, "duration": 10, "velocity": 120}, {"time": 166200, "pitch": 64, "duration": 10, "velocity": 120}, {"time": 166320, "pitch": 71, "duration": 10, "velocity": 120}, {"time": 166441, "pitch": 68, "duration": 10, "velocity": 120}, {"time": 166561, "pitch": 64, "duration": 10, "velocity": 120}, {"time": 166681, "pitch": 80, "duration": 11, "velocity": 120}, {"time": 166802, "pitch": 68, "duration": 10, "velocity": 120}, {"time": 166922, "pitch": 71, "duration": 10, "velocity": 120}, {"time": 167043, "pitch": 59, "duration": 10, "velocity": 120}, {"time": 167163, "pitch": 64, "duration": 10, "velocity": 120}, {"time": 167284, "pitch": 76, "duration": 10, "velocity": 120}, {"time": 167404, "pitch": 71, "duration": 10, "velocity": 120}, {"time": 167524, "pitch": 59, "duration": 10, "velocity": 120}, {"time": 167643, "pitch": 68, "duration": 9, "velocity": 120}, {"time": 167761, "pitch": 75, "duration": 9, "velocity": 120}, {"time": 167879, "pitch": 68, "duration": 9, "velocity": 120}, {"time": 168117, "pitch": 63, "duration": 10, "velocity": 120}, {"time": 168237, "pitch": 71, "duration": 10, "velocity": 120}, {"time": 168358, "pitch": 68, "duration": 10, "velocity": 120}, {"time": 168478, "pitch": 63, "duration": 10, "velocity": 120}, {"time": 168599, "pitch": 80, "duration": 10, "velocity": 120}, {"time": 168719, "pitch": 68, "duration": 10, "velocity": 120}, {"time": 168840, "pitch": 71, "duration": 10, "velocity": 120}, {"time": 168960, "pitch": 59, "duration": 10, "velocity": 120}, {"time": 169081, "pitch": 63, "duration": 10, "velocity": 120}, {"time": 169201, "pitch": 75, "duration": 10, "velocity": 120}, {"time": 169321, "pitch": 71, "duration": 10, "velocity": 120}, {"time": 169442, "pitch": 57, "duration": 10, "velocity": 120}, {"time": 169562, "pitch": 66, "duration": 10, "velocity": 120}, {"time": 169683, "pitch": 74, "duration": 10, "velocity": 120}, {"time": 169803, "pitch": 66, "duration": 10, "velocity": 120}, {"time": 170042, "pitch": 62, "duration": 9, "velocity": 120}, {"time": 170160, "pitch": 69, "duration": 9, "velocity": 120}, {"time": 170278, "pitch": 66, "duration": 9, "velocity": 120}, {"time": 170396, "pitch": 62, "duration": 10, "velocity": 120}, {"time": 170516, "pitch": 78, "duration": 10, "velocity": 120}, {"time": 170636, "pitch": 66, "duration": 10, "velocity": 120}, {"time": 170757, "pitch": 69, "duration": 10, "velocity": 120}, {"time": 170877, "pitch": 57, "duration": 10, "velocity": 120}, {"time": 170998, "pitch": 62, "duration": 10, "velocity": 120}, {"time": 171118, "pitch": 74, "duration": 10, "velocity": 120}, {"time": 171239, "pitch": 69, "duration": 10, "velocity": 120}, {"time": 171359, "pitch": 61, "duration": 10, "velocity": 120}, {"time": 171480, "pitch": 68, "duration": 10, "velocity": 120}, {"time": 171600, "pitch": 76, "duration": 10, "velocity": 120}, {"time": 171720, "pitch": 68, "duration": 10, "velocity": 120}, {"time": 171961, "pitch": 64, "duration": 10, "velocity": 120}, {"time": 172082, "pitch": 71, "duration": 10, "velocity": 120}, {"time": 172202, "pitch": 68, "duration": 10, "velocity": 120}, {"time": 172323, "pitch": 64, "duration": 10, "velocity": 120}, {"time": 172443, "pitch": 80, "duration": 10, "velocity": 120}, {"time": 172564, "pitch": 68, "duration": 10, "velocity": 120}, {"time": 172684, "pitch": 71, "duration": 10, "velocity": 120}, {"time": 172804, "pitch": 61, "duration": 10, "velocity": 120}, {"time": 172922, "pitch": 64, "duration": 10, "velocity": 120}, {"time": 173040, "pitch": 76, "duration": 10, "velocity": 120}, {"time": 173158, "pitch": 71, "duration": 10, "velocity": 120}, {"time": 173276, "pitch": 61, "duration": 10, "velocity": 120}, {"time": 173397, "pitch": 69, "duration": 10, "velocity": 120}, {"time": 173517, "pitch": 76, "duration": 10, "velocity": 120}, {"time": 173638, "pitch": 69, "duration": 10, "velocity": 120}, {"time": 173879, "pitch": 66, "duration": 10, "velocity": 120}, {"time": 173999, "pitch": 73, "duration": 10, "velocity": 120}, {"time": 174119, "pitch": 69, "duration": 10, "velocity": 120}, {"time": 174240, "pitch": 66, "duration": 10, "velocity": 120}, {"time": 174360, "pitch": 81, "duration": 10, "velocity": 120}, {"time": 174481, "pitch": 69, "duration": 10, "velocity": 120}, {"time": 174601, "pitch": 73, "duration": 10, "velocity": 120}, {"time": 174722, "pitch": 61, "duration": 10, "velocity": 120}, {"time": 174842, "pitch": 66, "duration": 10, "velocity": 120}, {"time": 174963, "pitch": 76, "duration": 10, "velocity": 120}, {"time": 175083, "pitch": 73, "duration": 10, "velocity": 120}, {"time": 175203, "pitch": 63, "duration": 10, "velocity": 120}, {"time": 175321, "pitch": 71, "duration": 10, "velocity": 120}, {"time": 175439, "pitch": 78, "duration": 10, "velocity": 120}, {"time": 175557, "pitch": 71, "duration": 10, "velocity": 120}, {"time": 175796, "pitch": 68, "duration": 10, "velocity": 120}, {"time": 175916, "pitch": 75, "duration": 10, "velocity": 120}, {"time": 176037, "pitch": 71, "duration": 10, "velocity": 120}, {"time": 176157, "pitch": 68, "duration": 10, "velocity": 120}, {"time": 176278, "pitch": 83, "duration": 10, "velocity": 120}, {"time": 176398, "pitch": 71, "duration": 10, "velocity": 120}, {"time": 176518, "pitch": 75, "duration": 11, "velocity": 120}, {"time": 176639, "pitch": 63, "duration": 10, "velocity": 120}, {"time": 176759, "pitch": 68, "duration": 10, "velocity": 120}, {"time": 176880, "pitch": 78, "duration": 10, "velocity": 120}, {"time": 177000, "pitch": 75, "duration": 10, "velocity": 120}, {"time": 177121, "pitch": 64, "duration": 10, "velocity": 120}, {"time": 177241, "pitch": 72, "duration": 10, "velocity": 120}, {"time": 177362, "pitch": 79, "duration": 10, "velocity": 120}, {"time": 177482, "pitch": 72, "duration": 10, "velocity": 120}, {"time": 177723, "pitch": 69, "duration": 10, "velocity": 120}, {"time": 177843, "pitch": 76, "duration": 10, "velocity": 120}, {"time": 177964, "pitch": 72, "duration": 10, "velocity": 120}, {"time": 178084, "pitch": 69, "duration": 10, "velocity": 120}, {"time": 178202, "pitch": 84, "duration": 10, "velocity": 120}, {"time": 178320, "pitch": 72, "duration": 10, "velocity": 120}, {"time": 178438, "pitch": 76, "duration": 10, "velocity": 120}, {"time": 178556, "pitch": 64, "duration": 10, "velocity": 120}, {"time": 178677, "pitch": 69, "duration": 10, "velocity": 120}, {"time": 178797, "pitch": 79, "duration": 10, "velocity": 120}, {"time": 178918, "pitch": 76, "duration": 10, "velocity": 120}, {"time": 179038, "pitch": 59, "duration": 10, "velocity": 120}, {"time": 179158, "pitch": 73, "duration": 10, "velocity": 120}, {"time": 179279, "pitch": 81, "duration": 10, "velocity": 120}, {"time": 179399, "pitch": 73, "duration": 10, "velocity": 120}, {"time": 179640, "pitch": 69, "duration": 10, "velocity": 120}, {"time": 179761, "pitch": 76, "duration": 10, "velocity": 120}, {"time": 179881, "pitch": 73, "duration": 10, "velocity": 120}, {"time": 180002, "pitch": 69, "duration": 10, "velocity": 120}, {"time": 180122, "pitch": 85, "duration": 10, "velocity": 120}, {"time": 180242, "pitch": 73, "duration": 10, "velocity": 120}, {"time": 180363, "pitch": 76, "duration": 10, "velocity": 120}, {"time": 180483, "pitch": 59, "duration": 10, "velocity": 120}, {"time": 180601, "pitch": 69, "duration": 10, "velocity": 120}, {"time": 180719, "pitch": 81, "duration": 10, "velocity": 120}, {"time": 180837, "pitch": 76, "duration": 10, "velocity": 120}, {"time": 196323, "pitch": 61, "duration": 10, "velocity": 120}, {"time": 196443, "pitch": 68, "duration": 10, "velocity": 120}, {"time": 196564, "pitch": 73, "duration": 10, "velocity": 120}, {"time": 196922, "pitch": 68, "duration": 10, "velocity": 120}, {"time": 197041, "pitch": 71, "duration": 9, "velocity": 120}, {"time": 197159, "pitch": 73, "duration": 9, "velocity": 120}, {"time": 197517, "pitch": 76, "duration": 10, "velocity": 120}, {"time": 197638, "pitch": 71, "duration": 10, "velocity": 120}, {"time": 197758, "pitch": 73, "duration": 10, "velocity": 120}, {"time": 198120, "pitch": 68, "duration": 10, "velocity": 120}, {"time": 198240, "pitch": 64, "duration": 10, "velocity": 120}, {"time": 198360, "pitch": 59, "duration": 11, "velocity": 120}, {"time": 198722, "pitch": 59, "duration": 10, "velocity": 120}, {"time": 198842, "pitch": 64, "duration": 10, "velocity": 120}, {"time": 198963, "pitch": 71, "duration": 10, "velocity": 120}, {"time": 199322, "pitch": 68, "duration": 9, "velocity": 120}, {"time": 199440, "pitch": 76, "duration": 9, "velocity": 120}, {"time": 199558, "pitch": 71, "duration": 9, "velocity": 120}, {"time": 199916, "pitch": 71, "duration": 10, "velocity": 120}, {"time": 200037, "pitch": 73, "duration": 10, "velocity": 120}, {"time": 200157, "pitch": 61, "duration": 10, "velocity": 120}, {"time": 200278, "pitch": 68, "duration": 10, "velocity": 120}, {"time": 200398, "pitch": 73, "duration": 10, "velocity": 120}, {"time": 200760, "pitch": 68, "duration": 10, "velocity": 120}, {"time": 200880, "pitch": 71, "duration": 10, "velocity": 120}, {"time": 201000, "pitch": 73, "duration": 10, "velocity": 120}, {"time": 201362, "pitch": 76, "duration": 10, "velocity": 120}, {"time": 201482, "pitch": 71, "duration": 10, "velocity": 120}, {"time": 201603, "pitch": 73, "duration": 10, "velocity": 120}, {"time": 201964, "pitch": 68, "duration": 10, "velocity": 120}, {"time": 202084, "pitch": 64, "duration": 10, "velocity": 120}, {"time": 202202, "pitch": 59, "duration": 10, "velocity": 120}, {"time": 202556, "pitch": 59, "duration": 10, "velocity": 120}, {"time": 202677, "pitch": 64, "duration": 10, "velocity": 120}, {"time": 202797, "pitch": 71, "duration": 10, "velocity": 120}, {"time": 203159, "pitch": 68, "duration": 10, "velocity": 120}, {"time": 203279, "pitch": 76, "duration": 10, "velocity": 120}, {"time": 203399, "pitch": 71, "duration": 10, "velocity": 120}, {"time": 203761, "pitch": 71, "duration": 10, "velocity": 120}, {"time": 203881, "pitch": 73, "duration": 10, "velocity": 120}, {"time": 204002, "pitch": 61, "duration": 10, "velocity": 120}, {"time": 204122, "pitch": 68, "duration": 10, "velocity": 120}, {"time": 204243, "pitch": 73, "duration": 10, "velocity": 120}, {"time": 204601, "pitch": 68, "duration": 10, "velocity": 120}, {"time": 204719, "pitch": 71, "duration": 10, "velocity": 120}, {"time": 204837, "pitch": 73, "duration": 10, "velocity": 120}, {"time": 205196, "pitch": 76, "duration": 10, "velocity": 120}, {"time": 205317, "pitch": 71, "duration": 10, "velocity": 120}, {"time": 205437, "pitch": 73, "duration": 10, "velocity": 120}, {"time": 205798, "pitch": 68, "duration": 11, "velocity": 120}, {"time": 205919, "pitch": 64, "duration": 10, "velocity": 120}, {"time": 206039, "pitch": 59, "duration": 10, "velocity": 120}, {"time": 206401, "pitch": 59, "duration": 10, "velocity": 120}, {"time": 206521, "pitch": 64, "duration": 10, "velocity": 120}, {"time": 206642, "pitch": 71, "duration": 10, "velocity": 120}, {"time": 207003, "pitch": 68, "duration": 10, "velocity": 120}, {"time": 207123, "pitch": 76, "duration": 10, "velocity": 120}, {"time": 207244, "pitch": 71, "duration": 10, "velocity": 120}, {"time": 207600, "pitch": 71, "duration": 10, "velocity": 120}, {"time": 207718, "pitch": 73, "duration": 10, "velocity": 120}, {"time": 207836, "pitch": 61, "duration": 10, "velocity": 120}, {"time": 207957, "pitch": 68, "duration": 10, "velocity": 120}, {"time": 208077, "pitch": 73, "duration": 10, "velocity": 120}, {"time": 208438, "pitch": 68, "duration": 10, "velocity": 120}, {"time": 208559, "pitch": 71, "duration": 10, "velocity": 120}, {"time": 208679, "pitch": 73, "duration": 10, "velocity": 120}, {"time": 209041, "pitch": 76, "duration": 10, "velocity": 120}, {"time": 209161, "pitch": 71, "duration": 10, "velocity": 120}, {"time": 209281, "pitch": 73, "duration": 11, "velocity": 120}, {"time": 209643, "pitch": 68, "duration": 10, "velocity": 120}, {"time": 209763, "pitch": 64, "duration": 10, "velocity": 120}, {"time": 209881, "pitch": 59, "duration": 10, "velocity": 120}, {"time": 210235, "pitch": 59, "duration": 10, "velocity": 120}, {"time": 210356, "pitch": 64, "duration": 10, "velocity": 120}, {"time": 210476, "pitch": 71, "duration": 10, "velocity": 120}, {"time": 210837, "pitch": 68, "duration": 10, "velocity": 120}, {"time": 210958, "pitch": 76, "duration": 10, "velocity": 120}, {"time": 211078, "pitch": 71, "duration": 10, "velocity": 120}, {"time": 211440, "pitch": 71, "duration": 10, "velocity": 120}, {"time": 211560, "pitch": 73, "duration": 10, "velocity": 120}, {"time": 211681, "pitch": 61, "duration": 10, "velocity": 120}, {"time": 211801, "pitch": 68, "duration": 10, "velocity": 120}, {"time": 211921, "pitch": 73, "duration": 10, "velocity": 120}, {"time": 212283, "pitch": 68, "duration": 10, "velocity": 120}, {"time": 212403, "pitch": 71, "duration": 10, "velocity": 120}, {"time": 212524, "pitch": 73, "duration": 10, "velocity": 120}, {"time": 212880, "pitch": 76, "duration": 10, "velocity": 120}, {"time": 212998, "pitch": 71, "duration": 10, "velocity": 120}, {"time": 213116, "pitch": 73, "duration": 10, "velocity": 120}, {"time": 213477, "pitch": 68, "duration": 10, "velocity": 120}, {"time": 213598, "pitch": 64, "duration": 10, "velocity": 120}, {"time": 213718, "pitch": 59, "duration": 10, "velocity": 120}, {"time": 214080, "pitch": 59, "duration": 10, "velocity": 120}, {"time": 214200, "pitch": 64, "duration": 10, "velocity": 120}, {"time": 214320, "pitch": 71, "duration": 10, "velocity": 120}, {"time": 214682, "pitch": 68, "duration": 10, "velocity": 120}, {"time": 214802, "pitch": 76, "duration": 10, "velocity": 120}, {"time": 214923, "pitch": 71, "duration": 10, "velocity": 120}, {"time": 215284, "pitch": 71, "duration": 10, "velocity": 120}, {"time": 215404, "pitch": 73, "duration": 10, "velocity": 120}, {"time": 215525, "pitch": 61, "duration": 10, "velocity": 120}, {"time": 215643, "pitch": 68, "duration": 10, "velocity": 120}, {"time": 215761, "pitch": 73, "duration": 10, "velocity": 120}, {"time": 216117, "pitch": 68, "duration": 10, "velocity": 120}, {"time": 216238, "pitch": 71, "duration": 10, "velocity": 120}, {"time": 216358, "pitch": 73, "duration": 10, "velocity": 120}, {"time": 216719, "pitch": 76, "duration": 11, "velocity": 120}, {"time": 216840, "pitch": 71, "duration": 10, "velocity": 120}, {"time": 216960, "pitch": 73, "duration": 10, "velocity": 120}, {"time": 217322, "pitch": 68, "duration": 10, "velocity": 120}, {"time": 217442, "pitch": 64, "duration": 10, "velocity": 120}, {"time": 217563, "pitch": 59, "duration": 10, "velocity": 120}, {"time": 217924, "pitch": 59, "duration": 10, "velocity": 120}, {"time": 218042, "pitch": 64, "duration": 10, "velocity": 120}, {"time": 218160, "pitch": 71, "duration": 10, "velocity": 120}, {"time": 218516, "pitch": 68, "duration": 10, "velocity": 120}, {"time": 218637, "pitch": 76, "duration": 10, "velocity": 120}, {"time": 218757, "pitch": 71, "duration": 10, "velocity": 120}, {"time": 219119, "pitch": 71, "duration": 10, "velocity": 120}, {"time": 219239, "pitch": 73, "duration": 10, "velocity": 120}, {"time": 219359, "pitch": 61, "duration": 10, "velocity": 120}, {"time": 219480, "pitch": 68, "duration": 10, "velocity": 120}, {"time": 219600, "pitch": 73, "duration": 10, "velocity": 120}, {"time": 219962, "pitch": 68, "duration": 10, "velocity": 120}, {"time": 220082, "pitch": 71, "duration": 10, "velocity": 120}, {"time": 220202, "pitch": 73, "duration": 11, "velocity": 120}, {"time": 220564, "pitch": 76, "duration": 10, "velocity": 120}, {"time": 220684, "pitch": 71, "duration": 10, "velocity": 120}, {"time": 220805, "pitch": 73, "duration": 9, "velocity": 120}, {"time": 221159, "pitch": 68, "duration": 10, "velocity": 120}, {"time": 221277, "pitch": 64, "duration": 10, "velocity": 120}, {"time": 221397, "pitch": 59, "duration": 10, "velocity": 120}, {"time": 221758, "pitch": 59, "duration": 10, "velocity": 120}, {"time": 221879, "pitch": 64, "duration": 10, "velocity": 120}, {"time": 221999, "pitch": 71, "duration": 10, "velocity": 120}, {"time": 222361, "pitch": 68, "duration": 10, "velocity": 120}, {"time": 222481, "pitch": 76, "duration": 10, "velocity": 120}, {"time": 222602, "pitch": 71, "duration": 10, "velocity": 120}, {"time": 222963, "pitch": 71, "duration": 10, "velocity": 120}, {"time": 223083, "pitch": 73, "duration": 10, "velocity": 120}, {"time": 223204, "pitch": 62, "duration": 9, "velocity": 120}, {"time": 223322, "pitch": 66, "duration": 10, "velocity": 120}, {"time": 223440, "pitch": 73, "duration": 10, "velocity": 120}, {"time": 223796, "pitch": 66, "duration": 10, "velocity": 120}, {"time": 223917, "pitch": 71, "duration": 10, "velocity": 120}, {"time": 224037, "pitch": 73, "duration": 10, "velocity": 120}, {"time": 224398, "pitch": 78, "duration": 10, "velocity": 120}, {"time": 224519, "pitch": 71, "duration": 10, "velocity": 120}, {"time": 224639, "pitch": 73, "duration": 10, "velocity": 120}, {"time": 228956, "pitch": 59, "duration": 10, "velocity": 120}, {"time": 229076, "pitch": 68, "duration": 10, "velocity": 120}, {"time": 229196, "pitch": 76, "duration": 10, "velocity": 120}, {"time": 229317, "pitch": 68, "duration": 10, "velocity": 120}, {"time": 229558, "pitch": 64, "duration": 10, "velocity": 120}, {"time": 229678, "pitch": 71, "duration": 10, "velocity": 120}, {"time": 229799, "pitch": 68, "duration": 10, "velocity": 120}, {"time": 229919, "pitch": 64, "duration": 10, "velocity": 120}, {"time": 230040, "pitch": 80, "duration": 10, "velocity": 120}, {"time": 230160, "pitch": 68, "duration": 10, "velocity": 120}, {"time": 230280, "pitch": 71, "duration": 10, "velocity": 120}, {"time": 230401, "pitch": 59, "duration": 10, "velocity": 120}, {"time": 230521, "pitch": 64, "duration": 10, "velocity": 120}, {"time": 230642, "pitch": 76, "duration": 10, "velocity": 120}, {"time": 230762, "pitch": 71, "duration": 10, "velocity": 120}, {"time": 230883, "pitch": 59, "duration": 10, "velocity": 120}, {"time": 231003, "pitch": 68, "duration": 10, "velocity": 120}, {"time": 231123, "pitch": 75, "duration": 11, "velocity": 120}, {"time": 231244, "pitch": 68, "duration": 10, "velocity": 120}, {"time": 231482, "pitch": 63, "duration": 10, "velocity": 120}, {"time": 231600, "pitch": 71, "duration": 10, "velocity": 120}, {"time": 231718, "pitch": 68, "duration": 10, "velocity": 120}, {"time": 231836, "pitch": 63, "duration": 10, "velocity": 120}, {"time": 231957, "pitch": 80, "duration": 10, "velocity": 120}, {"time": 232077, "pitch": 68, "duration": 10, "velocity": 120}, {"time": 232198, "pitch": 71, "duration": 10, "velocity": 120}, {"time": 232318, "pitch": 59, "duration": 10, "velocity": 120}, {"time": 232439, "pitch": 63, "duration": 10, "velocity": 120}, {"time": 232559, "pitch": 75, "duration": 10, "velocity": 120}, {"time": 232679, "pitch": 71, "duration": 10, "velocity": 120}, {"time": 232800, "pitch": 57, "duration": 10, "velocity": 120}, {"time": 232920, "pitch": 66, "duration": 10, "velocity": 120}, {"time": 233041, "pitch": 74, "duration": 10, "velocity": 120}, {"time": 233161, "pitch": 66, "duration": 10, "velocity": 120}, {"time": 233402, "pitch": 62, "duration": 10, "velocity": 120}, {"time": 233523, "pitch": 69, "duration": 10, "velocity": 120}, {"time": 233643, "pitch": 66, "duration": 10, "velocity": 120}, {"time": 233763, "pitch": 62, "duration": 10, "velocity": 120}, {"time": 233881, "pitch": 78, "duration": 10, "velocity": 120}, {"time": 233999, "pitch": 66, "duration": 10, "velocity": 120}, {"time": 234117, "pitch": 69, "duration": 10, "velocity": 120}, {"time": 234235, "pitch": 57, "duration": 10, "velocity": 120}, {"time": 234356, "pitch": 62, "duration": 10, "velocity": 120}, {"time": 234476, "pitch": 74, "duration": 10, "velocity": 120}, {"time": 234597, "pitch": 69, "duration": 10, "velocity": 120}, {"time": 234717, "pitch": 61, "duration": 10, "velocity": 120}, {"time": 234838, "pitch": 68, "duration": 10, "velocity": 120}, {"time": 234958, "pitch": 76, "duration": 10, "velocity": 120}, {"time": 235078, "pitch": 68, "duration": 10, "velocity": 120}, {"time": 235319, "pitch": 64, "duration": 10, "velocity": 120}, {"time": 235440, "pitch": 71, "duration": 10, "velocity": 120}, {"time": 235560, "pitch": 68, "duration": 10, "velocity": 120}, {"time": 235681, "pitch": 64, "duration": 10, "velocity": 120}, {"time": 235801, "pitch": 80, "duration": 10, "velocity": 120}, {"time": 235922, "pitch": 68, "duration": 10, "velocity": 120}, {"time": 236042, "pitch": 71, "duration": 10, "velocity": 120}, {"time": 236162, "pitch": 61, "duration": 10, "velocity": 120}, {"time": 236283, "pitch": 64, "duration": 10, "velocity": 120}, {"time": 236403, "pitch": 76, "duration": 10, "velocity": 120}, {"time": 236524, "pitch": 71, "duration": 10, "velocity": 120}, {"time": 236644, "pitch": 61, "duration": 10, "velocity": 120}, {"time": 236762, "pitch": 69, "duration": 10, "velocity": 120}, {"time": 236880, "pitch": 76, "duration": 10, "velocity": 120}, {"time": 236998, "pitch": 69, "duration": 10, "velocity": 120}, {"time": 237237, "pitch": 66, "duration": 10, "velocity": 120}, {"time": 237357, "pitch": 73, "duration": 10, "velocity": 120}, {"time": 237477, "pitch": 69, "duration": 11, "velocity": 120}, {"time": 237598, "pitch": 66, "duration": 10, "velocity": 120}, {"time": 237718, "pitch": 81, "duration": 10, "velocity": 120}, {"time": 237839, "pitch": 69, "duration": 10, "velocity": 120}, {"time": 237959, "pitch": 73, "duration": 10, "velocity": 120}, {"time": 238080, "pitch": 61, "duration": 10, "velocity": 120}, {"time": 238200, "pitch": 66, "duration": 10, "velocity": 120}, {"time": 238321, "pitch": 76, "duration": 10, "velocity": 120}, {"time": 238441, "pitch": 73, "duration": 10, "velocity": 120}, {"time": 238561, "pitch": 63, "duration": 11, "velocity": 120}, {"time": 238682, "pitch": 71, "duration": 10, "velocity": 120}, {"time": 238802, "pitch": 78, "duration": 10, "velocity": 120}, {"time": 238923, "pitch": 71, "duration": 10, "velocity": 120}, {"time": 239161, "pitch": 68, "duration": 10, "velocity": 120}, {"time": 239279, "pitch": 75, "duration": 10, "velocity": 120}, {"time": 239397, "pitch": 71, "duration": 10, "velocity": 120}, {"time": 239515, "pitch": 68, "duration": 10, "velocity": 120}, {"time": 239636, "pitch": 83, "duration": 10, "velocity": 120}, {"time": 239756, "pitch": 71, "duration": 10, "velocity": 120}, {"time": 239877, "pitch": 75, "duration": 10, "velocity": 120}, {"time": 239997, "pitch": 63, "duration": 10, "velocity": 120}, {"time": 240117, "pitch": 68, "duration": 10, "velocity": 120}, {"time": 240238, "pitch": 78, "duration": 10, "velocity": 120}, {"time": 240358, "pitch": 75, "duration": 10, "velocity": 120}, {"time": 240479, "pitch": 64, "duration": 10, "velocity": 120}, {"time": 240599, "pitch": 72, "duration": 10, "velocity": 120}, {"time": 240720, "pitch": 79, "duration": 10, "velocity": 120}, {"time": 240840, "pitch": 72, "duration": 10, "velocity": 120}, {"time": 241081, "pitch": 69, "duration": 10, "velocity": 120}, {"time": 241201, "pitch": 76, "duration": 10, "velocity": 120}, {"time": 241322, "pitch": 72, "duration": 10, "velocity": 120}, {"time": 241442, "pitch": 69, "duration": 10, "velocity": 120}, {"time": 241563, "pitch": 84, "duration": 10, "velocity": 120}, {"time": 241683, "pitch": 72, "duration": 10, "velocity": 120}, {"time": 241804, "pitch": 76, "duration": 10, "velocity": 120}, {"time": 241924, "pitch": 64, "duration": 10, "velocity": 120}, {"time": 242042, "pitch": 69, "duration": 10, "velocity": 120}, {"time": 242160, "pitch": 79, "duration": 10, "velocity": 120}, {"time": 242278, "pitch": 76, "duration": 10, "velocity": 120}, {"time": 242396, "pitch": 59, "duration": 10, "velocity": 120}, {"time": 242516, "pitch": 73, "duration": 10, "velocity": 120}, {"time": 242637, "pitch": 81, "duration": 10, "velocity": 120}, {"time": 242757, "pitch": 73, "duration": 10, "velocity": 120}, {"time": 242998, "pitch": 69, "duration": 10, "velocity": 120}, {"time": 243119, "pitch": 76, "duration": 10, "velocity": 120}, {"time": 243239, "pitch": 73, "duration": 10, "velocity": 120}, {"time": 243360, "pitch": 69, "duration": 10, "velocity": 120}, {"time": 243480, "pitch": 85, "duration": 10, "velocity": 120}, {"time": 243600, "pitch": 73, "duration": 10, "velocity": 120}, {"time": 243721, "pitch": 76, "duration": 10, "velocity": 120}, {"time": 243841, "pitch": 59, "duration": 10, "velocity": 120}, {"time": 243962, "pitch": 69, "duration": 10, "velocity": 120}, {"time": 244082, "pitch": 81, "duration": 10, "velocity": 120}, {"time": 244203, "pitch": 76, "duration": 10, "velocity": 120}, {"time": 244323, "pitch": 59, "duration": 10, "velocity": 120}, {"time": 244444, "pitch": 68, "duration": 10, "velocity": 120}, {"time": 244564, "pitch": 76, "duration": 10, "velocity": 120}, {"time": 244684, "pitch": 68, "duration": 10, "velocity": 120}, {"time": 244923, "pitch": 64, "duration": 10, "velocity": 120}, {"time": 245041, "pitch": 71, "duration": 10, "velocity": 120}, {"time": 245159, "pitch": 68, "duration": 10, "velocity": 120}, {"time": 245277, "pitch": 64, "duration": 10, "velocity": 120}, {"time": 245397, "pitch": 80, "duration": 10, "velocity": 120}, {"time": 245518, "pitch": 68, "duration": 10, "velocity": 120}, {"time": 245638, "pitch": 71, "duration": 10, "velocity": 120}, {"time": 245759, "pitch": 59, "duration": 10, "velocity": 120}, {"time": 245879, "pitch": 64, "duration": 10, "velocity": 120}, {"time": 245999, "pitch": 76, "duration": 10, "velocity": 120}, {"time": 246120, "pitch": 71, "duration": 10, "velocity": 120}, {"time": 246240, "pitch": 59, "duration": 10, "velocity": 120}, {"time": 246361, "pitch": 68, "duration": 10, "velocity": 120}, {"time": 246481, "pitch": 75, "duration": 10, "velocity": 120}, {"time": 246602, "pitch": 68, "duration": 10, "velocity": 120}, {"time": 246843, "pitch": 63, "duration": 10, "velocity": 120}, {"time": 246963, "pitch": 71, "duration": 10, "velocity": 120}, {"time": 247083, "pitch": 68, "duration": 10, "velocity": 120}, {"time": 247204, "pitch": 63, "duration": 10, "velocity": 120}, {"time": 247322, "pitch": 80, "duration": 10, "velocity": 120}, {"time": 247440, "pitch": 68, "duration": 10, "velocity": 120}, {"time": 247558, "pitch": 71, "duration": 10, "velocity": 120}, {"time": 247676, "pitch": 59, "duration": 10, "velocity": 120}, {"time": 247796, "pitch": 63, "duration": 10, "velocity": 120}, {"time": 247917, "pitch": 75, "duration": 10, "velocity": 120}, {"time": 248037, "pitch": 71, "duration": 10, "velocity": 120}, {"time": 248158, "pitch": 57, "duration": 10, "velocity": 120}, {"time": 248278, "pitch": 66, "duration": 10, "velocity": 120}, {"time": 248398, "pitch": 74, "duration": 11, "velocity": 120}, {"time": 248519, "pitch": 66, "duration": 10, "velocity": 120}, {"time": 248760, "pitch": 62, "duration": 10, "velocity": 120}, {"time": 248880, "pitch": 69, "duration": 10, "velocity": 120}, {"time": 249001, "pitch": 66, "duration": 10, "velocity": 120}, {"time": 249121, "pitch": 62, "duration": 10, "velocity": 120}, {"time": 249242, "pitch": 78, "duration": 10, "velocity": 120}, {"time": 249362, "pitch": 66, "duration": 10, "velocity": 120}, {"time": 249482, "pitch": 69, "duration": 11, "velocity": 120}, {"time": 249603, "pitch": 57, "duration": 10, "velocity": 120}, {"time": 249723, "pitch": 62, "duration": 10, "velocity": 120}, {"time": 249844, "pitch": 74, "duration": 10, "velocity": 120}, {"time": 249964, "pitch": 69, "duration": 10, "velocity": 120}, {"time": 250085, "pitch": 61, "duration": 9, "velocity": 120}, {"time": 250203, "pitch": 68, "duration": 9, "velocity": 120}, {"time": 250321, "pitch": 76, "duration": 9, "velocity": 120}, {"time": 250439, "pitch": 68, "duration": 10, "velocity": 120}, {"time": 250677, "pitch": 64, "duration": 10, "velocity": 120}, {"time": 250798, "pitch": 71, "duration": 10, "velocity": 120}, {"time": 250918, "pitch": 68, "duration": 10, "velocity": 120}, {"time": 251038, "pitch": 64, "duration": 10, "velocity": 120}, {"time": 251159, "pitch": 80, "duration": 10, "velocity": 120}, {"time": 251279, "pitch": 68, "duration": 10, "velocity": 120}, {"time": 251400, "pitch": 71, "duration": 10, "velocity": 120}, {"time": 251520, "pitch": 61, "duration": 10, "velocity": 120}, {"time": 251641, "pitch": 64, "duration": 10, "velocity": 120}, {"time": 251761, "pitch": 76, "duration": 10, "velocity": 120}, {"time": 251882, "pitch": 71, "duration": 10, "velocity": 120}, {"time": 252002, "pitch": 61, "duration": 10, "velocity": 120}, {"time": 252122, "pitch": 69, "duration": 10, "velocity": 120}, {"time": 252243, "pitch": 76, "duration": 10, "velocity": 120}, {"time": 252363, "pitch": 69, "duration": 10, "velocity": 120}, {"time": 252602, "pitch": 66, "duration": 10, "velocity": 120}, {"time": 252720, "pitch": 73, "duration": 10, "velocity": 120}, {"time": 252838, "pitch": 69, "duration": 10, "velocity": 120}, {"time": 252956, "pitch": 66, "duration": 10, "velocity": 120}, {"time": 253076, "pitch": 81, "duration": 10, "velocity": 120}, {"time": 253197, "pitch": 69, "duration": 10, "velocity": 120}, {"time": 253317, "pitch": 73, "duration": 10, "velocity": 120}, {"time": 253437, "pitch": 61, "duration": 10, "velocity": 120}, {"time": 253558, "pitch": 66, "duration": 10, "velocity": 120}, {"time": 253678, "pitch": 76, "duration": 10, "velocity": 120}, {"time": 253799, "pitch": 73, "duration": 10, "velocity": 120}, {"time": 253919, "pitch": 63, "duration": 10, "velocity": 120}, {"time": 254040, "pitch": 71, "duration": 10, "velocity": 120}, {"time": 254160, "pitch": 78, "duration": 10, "velocity": 120}, {"time": 254281, "pitch": 71, "duration": 10, "velocity": 120}, {"time": 254521, "pitch": 68, "duration": 10, "velocity": 120}, {"time": 254642, "pitch": 75, "duration": 10, "velocity": 120}, {"time": 254762, "pitch": 71, "duration": 10, "velocity": 120}, {"time": 254883, "pitch": 68, "duration": 10, "velocity": 120}, {"time": 255003, "pitch": 83, "duration": 10, "velocity": 120}, {"time": 255124, "pitch": 71, "duration": 10, "velocity": 120}, {"time": 255244, "pitch": 75, "duration": 10, "velocity": 120}, {"time": 255364, "pitch": 63, "duration": 10, "velocity": 120}, {"time": 255482, "pitch": 68, "duration": 10, "velocity": 120}, {"time": 255600, "pitch": 78, "duration": 10, "velocity": 120}, {"time": 255719, "pitch": 75, "duration": 9, "velocity": 120}, {"time": 255837, "pitch": 64, "duration": 10, "velocity": 120}, {"time": 255957, "pitch": 72, "duration": 10, "velocity": 120}, {"time": 256077, "pitch": 79, "duration": 10, "velocity": 120}, {"time": 256198, "pitch": 72, "duration": 10, "velocity": 120}, {"time": 256439, "pitch": 69, "duration": 10, "velocity": 120}, {"time": 256559, "pitch": 76, "duration": 10, "velocity": 120}, {"time": 256680, "pitch": 72, "duration": 10, "velocity": 120}, {"time": 256800, "pitch": 69, "duration": 10, "velocity": 120}, {"time": 256920, "pitch": 84, "duration": 10, "velocity": 120}, {"time": 257041, "pitch": 72, "duration": 10, "velocity": 120}, {"time": 257161, "pitch": 76, "duration": 10, "velocity": 120}, {"time": 257282, "pitch": 64, "duration": 10, "velocity": 120}, {"time": 257402, "pitch": 69, "duration": 10, "velocity": 120}, {"time": 257523, "pitch": 79, "duration": 10, "velocity": 120}, {"time": 257643, "pitch": 76, "duration": 10, "velocity": 120}, {"time": 257763, "pitch": 59, "duration": 10, "velocity": 120}, {"time": 257882, "pitch": 73, "duration": 9, "velocity": 120}, {"time": 258000, "pitch": 81, "duration": 9, "velocity": 120}, {"time": 258118, "pitch": 73, "duration": 9, "velocity": 120}, {"time": 258356, "pitch": 69, "duration": 10, "velocity": 120}, {"time": 258476, "pitch": 76, "duration": 10, "velocity": 120}, {"time": 258597, "pitch": 73, "duration": 10, "velocity": 120}, {"time": 258717, "pitch": 69, "duration": 10, "velocity": 120}, {"time": 258838, "pitch": 85, "duration": 10, "velocity": 120}, {"time": 258958, "pitch": 73, "duration": 10, "velocity": 120}, {"time": 259079, "pitch": 76, "duration": 10, "velocity": 120}, {"time": 259199, "pitch": 59, "duration": 10, "velocity": 120}, {"time": 259319, "pitch": 69, "duration": 11, "velocity": 120}, {"time": 259440, "pitch": 81, "duration": 10, "velocity": 120}, {"time": 259560, "pitch": 76, "duration": 10, "velocity": 120}, {"time": 479, "pitch": 61, "duration": 350, "velocity": 90}, {"time": 839, "pitch": 69, "duration": 110, "velocity": 90}, {"time": 959, "pitch": 73, "duration": 351, "velocity": 90}, {"time": 1320, "pitch": 81, "duration": 111, "velocity": 90}, {"time": 1441, "pitch": 76, "duration": 351, "velocity": 90}, {"time": 1802, "pitch": 73, "duration": 111, "velocity": 90}, {"time": 1923, "pitch": 64, "duration": 110, "velocity": 90}, {"time": 2043, "pitch": 69, "duration": 110, "velocity": 90}, {"time": 2163, "pitch": 73, "duration": 111, "velocity": 90}, {"time": 2284, "pitch": 69, "duration": 110, "velocity": 90}, {"time": 2404, "pitch": 61, "duration": 345, "velocity": 90}, {"time": 2758, "pitch": 69, "duration": 109, "velocity": 90}, {"time": 2876, "pitch": 73, "duration": 352, "velocity": 90}, {"time": 3238, "pitch": 81, "duration": 110, "velocity": 90}, {"time": 3358, "pitch": 76, "duration": 351, "velocity": 90}, {"time": 3719, "pitch": 73, "duration": 111, "velocity": 90}, {"time": 3840, "pitch": 64, "duration": 110, "velocity": 90}, {"time": 3960, "pitch": 69, "duration": 111, "velocity": 90}, {"time": 4081, "pitch": 73, "duration": 110, "velocity": 90}, {"time": 4201, "pitch": 69, "duration": 111, "velocity": 90}, {"time": 4322, "pitch": 61, "duration": 351, "velocity": 90}, {"time": 4683, "pitch": 68, "duration": 110, "velocity": 90}, {"time": 4803, "pitch": 73, "duration": 345, "velocity": 90}, {"time": 5157, "pitch": 85, "duration": 109, "velocity": 90}, {"time": 5275, "pitch": 80, "duration": 352, "velocity": 90}, {"time": 5637, "pitch": 73, "duration": 110, "velocity": 90}, {"time": 5757, "pitch": 61, "duration": 111, "velocity": 90}, {"time": 5878, "pitch": 68, "duration": 110, "velocity": 90}, {"time": 5998, "pitch": 73, "duration": 110, "velocity": 90}, {"time": 6118, "pitch": 68, "duration": 111, "velocity": 90}, {"time": 6239, "pitch": 61, "duration": 351, "velocity": 90}, {"time": 6600, "pitch": 68, "duration": 111, "velocity": 90}, {"time": 6721, "pitch": 73, "duration": 351, "velocity": 90}, {"time": 7082, "pitch": 85, "duration": 110, "velocity": 90}, {"time": 7202, "pitch": 80, "duration": 352, "velocity": 90}, {"time": 7564, "pitch": 73, "duration": 110, "velocity": 90}, {"time": 7684, "pitch": 61, "duration": 108, "velocity": 90}, {"time": 7802, "pitch": 68, "duration": 108, "velocity": 90}, {"time": 7920, "pitch": 73, "duration": 108, "velocity": 90}, {"time": 8038, "pitch": 68, "duration": 108, "velocity": 90}, {"time": 8156, "pitch": 63, "duration": 351, "velocity": 90}, {"time": 8517, "pitch": 71, "duration": 111, "velocity": 90}, {"time": 8638, "pitch": 75, "duration": 351, "velocity": 90}, {"time": 8999, "pitch": 87, "duration": 111, "velocity": 90}, {"time": 9120, "pitch": 83, "duration": 351, "velocity": 90}, {"time": 9481, "pitch": 75, "duration": 110, "velocity": 90}, {"time": 9601, "pitch": 63, "duration": 111, "velocity": 90}, {"time": 9722, "pitch": 71, "duration": 110, "velocity": 90}, {"time": 9842, "pitch": 75, "duration": 111, "velocity": 90}, {"time": 9963, "pitch": 71, "duration": 110, "velocity": 90}, {"time": 10083, "pitch": 64, "duration": 344, "velocity": 90}, {"time": 10437, "pitch": 71, "duration": 108, "velocity": 90}, {"time": 10555, "pitch": 76, "duration": 351, "velocity": 90}, {"time": 10916, "pitch": 88, "duration": 111, "velocity": 90}, {"time": 11037, "pitch": 83, "duration": 351, "velocity": 90}, {"time": 11398, "pitch": 76, "duration": 111, "velocity": 90}, {"time": 11519, "pitch": 64, "duration": 110, "velocity": 90}, {"time": 11639, "pitch": 71, "duration": 111, "velocity": 90}, {"time": 11760, "pitch": 76, "duration": 110, "velocity": 90}, {"time": 11880, "pitch": 71, "duration": 110, "velocity": 90}, {"time": 12000, "pitch": 61, "duration": 352, "velocity": 90}, {"time": 12362, "pitch": 68, "duration": 110, "velocity": 90}, {"time": 12482, "pitch": 73, "duration": 352, "velocity": 90}, {"time": 12844, "pitch": 85, "duration": 110, "velocity": 90}, {"time": 12964, "pitch": 80, "duration": 344, "velocity": 90}, {"time": 13318, "pitch": 73, "duration": 108, "velocity": 90}, {"time": 13436, "pitch": 61, "duration": 110, "velocity": 90}, {"time": 13556, "pitch": 68, "duration": 111, "velocity": 90}, {"time": 13677, "pitch": 73, "duration": 110, "velocity": 90}, {"time": 13797, "pitch": 68, "duration": 111, "velocity": 90}, {"time": 13918, "pitch": 63, "duration": 351, "velocity": 90}, {"time": 14279, "pitch": 71, "duration": 110, "velocity": 90}, {"time": 14400, "pitch": 75, "duration": 351, "velocity": 90}, {"time": 14761, "pitch": 87, "duration": 110, "velocity": 90}, {"time": 14881, "pitch": 83, "duration": 352, "velocity": 90}, {"time": 15243, "pitch": 75, "duration": 110, "velocity": 90}, {"time": 15363, "pitch": 63, "duration": 110, "velocity": 90}, {"time": 15483, "pitch": 71, "duration": 111, "velocity": 90}, {"time": 15604, "pitch": 75, "duration": 110, "velocity": 90}, {"time": 15724, "pitch": 71, "duration": 111, "velocity": 90}, {"time": 15845, "pitch": 61, "duration": 344, "velocity": 90}, {"time": 16199, "pitch": 69, "duration": 108, "velocity": 90}, {"time": 16317, "pitch": 73, "duration": 351, "velocity": 90}, {"time": 16678, "pitch": 85, "duration": 111, "velocity": 90}, {"time": 16799, "pitch": 81, "duration": 351, "velocity": 90}, {"time": 17160, "pitch": 73, "duration": 110, "velocity": 90}, {"time": 17280, "pitch": 61, "duration": 111, "velocity": 90}, {"time": 17401, "pitch": 69, "duration": 110, "velocity": 90}, {"time": 17521, "pitch": 73, "duration": 111, "velocity": 90}, {"time": 17642, "pitch": 69, "duration": 110, "velocity": 90}, {"time": 17762, "pitch": 66, "duration": 351, "velocity": 90}, {"time": 18123, "pitch": 72, "duration": 111, "velocity": 90}, {"time": 18244, "pitch": 78, "duration": 344, "velocity": 90}, {"time": 18598, "pitch": 90, "duration": 108, "velocity": 90}, {"time": 50877, "pitch": 57, "duration": 230, "velocity": 110}, {"time": 51117, "pitch": 64, "duration": 231, "velocity": 110}, {"time": 51358, "pitch": 68, "duration": 231, "velocity": 110}, {"time": 51599, "pitch": 73, "duration": 231, "velocity": 110}, {"time": 52804, "pitch": 59, "duration": 226, "velocity": 110}, {"time": 53040, "pitch": 63, "duration": 226, "velocity": 110}, {"time": 53276, "pitch": 66, "duration": 230, "velocity": 110}, {"time": 53517, "pitch": 71, "duration": 230, "velocity": 110}, {"time": 54721, "pitch": 60, "duration": 231, "velocity": 110}, {"time": 54962, "pitch": 63, "duration": 231, "velocity": 110}, {"time": 55203, "pitch": 68, "duration": 231, "velocity": 110}, {"time": 55444, "pitch": 72, "duration": 230, "velocity": 110}, {"time": 56638, "pitch": 61, "duration": 231, "velocity": 110}, {"time": 56879, "pitch": 68, "duration": 231, "velocity": 110}, {"time": 57120, "pitch": 73, "duration": 231, "velocity": 110}, {"time": 57361, "pitch": 76, "duration": 231, "velocity": 110}, {"time": 58556, "pitch": 58, "duration": 230, "velocity": 110}, {"time": 58796, "pitch": 64, "duration": 231, "velocity": 110}, {"time": 59037, "pitch": 68, "duration": 231, "velocity": 110}, {"time": 59278, "pitch": 73, "duration": 231, "velocity": 110}, {"time": 60483, "pitch": 76, "duration": 230, "velocity": 110}, {"time": 60723, "pitch": 73, "duration": 231, "velocity": 110}, {"time": 60964, "pitch": 68, "duration": 226, "velocity": 110}, {"time": 61200, "pitch": 64, "duration": 227, "velocity": 110}, {"time": 62400, "pitch": 61, "duration": 231, "velocity": 110}, {"time": 62641, "pitch": 66, "duration": 231, "velocity": 110}, {"time": 62882, "pitch": 69, "duration": 230, "velocity": 110}, {"time": 63122, "pitch": 78, "duration": 231, "velocity": 110}, {"time": 133437, "pitch": 57, "duration": 231, "velocity": 110}, {"time": 133678, "pitch": 64, "duration": 230, "velocity": 110}, {"time": 133918, "pitch": 68, "duration": 231, "velocity": 110}, {"time": 134159, "pitch": 73, "duration": 231, "velocity": 110}, {"time": 135364, "pitch": 59, "duration": 226, "velocity": 110}, {"time": 135600, "pitch": 63, "duration": 226, "velocity": 110}, {"time": 135836, "pitch": 66, "duration": 231, "velocity": 110}, {"time": 136077, "pitch": 71, "duration": 230, "velocity": 110}, {"time": 137281, "pitch": 60, "duration": 231, "velocity": 110}, {"time": 137522, "pitch": 63, "duration": 231, "velocity": 110}, {"time": 137763, "pitch": 68, "duration": 231, "velocity": 110}, {"time": 138004, "pitch": 72, "duration": 231, "velocity": 110}, {"time": 139198, "pitch": 61, "duration": 231, "velocity": 110}, {"time": 139439, "pitch": 68, "duration": 231, "velocity": 110}, {"time": 139680, "pitch": 73, "duration": 231, "velocity": 110}, {"time": 139921, "pitch": 76, "duration": 231, "velocity": 110}, {"time": 141116, "pitch": 58, "duration": 230, "velocity": 110}, {"time": 141356, "pitch": 64, "duration": 231, "velocity": 110}, {"time": 141597, "pitch": 68, "duration": 231, "velocity": 110}, {"time": 141838, "pitch": 73, "duration": 231, "velocity": 110}, {"time": 143043, "pitch": 76, "duration": 230, "velocity": 110}, {"time": 143284, "pitch": 73, "duration": 230, "velocity": 110}, {"time": 143524, "pitch": 68, "duration": 227, "velocity": 110}, {"time": 143760, "pitch": 64, "duration": 227, "velocity": 110}, {"time": 144960, "pitch": 61, "duration": 231, "velocity": 110}, {"time": 145201, "pitch": 66, "duration": 231, "velocity": 110}, {"time": 145442, "pitch": 69, "duration": 231, "velocity": 110}, {"time": 145683, "pitch": 78, "duration": 230, "velocity": 110}, {"time": 180955, "pitch": 61, "duration": 352, "velocity": 90}, {"time": 181317, "pitch": 68, "duration": 110, "velocity": 90}, {"time": 181437, "pitch": 73, "duration": 351, "velocity": 90}, {"time": 181798, "pitch": 85, "duration": 111, "velocity": 90}, {"time": 181919, "pitch": 80, "duration": 351, "velocity": 90}, {"time": 182280, "pitch": 73, "duration": 111, "velocity": 90}, {"time": 182401, "pitch": 61, "duration": 110, "velocity": 90}, {"time": 182521, "pitch": 68, "duration": 110, "velocity": 90}, {"time": 182641, "pitch": 73, "duration": 111, "velocity": 90}, {"time": 182762, "pitch": 68, "duration": 110, "velocity": 90}, {"time": 182882, "pitch": 61, "duration": 352, "velocity": 90}, {"time": 183244, "pitch": 68, "duration": 110, "velocity": 90}, {"time": 183364, "pitch": 73, "duration": 344, "velocity": 90}, {"time": 183718, "pitch": 85, "duration": 108, "velocity": 90}, {"time": 183836, "pitch": 80, "duration": 351, "velocity": 90}, {"time": 184197, "pitch": 73, "duration": 111, "velocity": 90}, {"time": 184318, "pitch": 61, "duration": 110, "velocity": 90}, {"time": 184438, "pitch": 68, "duration": 111, "velocity": 90}, {"time": 184559, "pitch": 73, "duration": 110, "velocity": 90}, {"time": 184679, "pitch": 68, "duration": 111, "velocity": 90}, {"time": 184800, "pitch": 63, "duration": 351, "velocity": 90}, {"time": 185161, "pitch": 71, "duration": 110, "velocity": 90}, {"time": 185281, "pitch": 75, "duration": 352, "velocity": 90}, {"time": 185643, "pitch": 87, "duration": 110, "velocity": 90}, {"time": 185763, "pitch": 83, "duration": 351, "velocity": 90}, {"time": 186124, "pitch": 75, "duration": 111, "velocity": 90}, {"time": 186245, "pitch": 63, "duration": 108, "velocity": 90}, {"time": 186363, "pitch": 71, "duration": 108, "velocity": 90}, {"time": 186481, "pitch": 75, "duration": 108, "velocity": 90}, {"time": 186599, "pitch": 71, "duration": 108, "velocity": 90}, {"time": 186717, "pitch": 64, "duration": 351, "velocity": 90}, {"time": 187078, "pitch": 71, "duration": 111, "velocity": 90}, {"time": 187199, "pitch": 76, "duration": 351, "velocity": 90}, {"time": 187560, "pitch": 88, "duration": 110, "velocity": 90}, {"time": 187680, "pitch": 83, "duration": 352, "velocity": 90}, {"time": 188042, "pitch": 76, "duration": 110, "velocity": 90}, {"time": 188162, "pitch": 64, "duration": 111, "velocity": 90}, {"time": 188283, "pitch": 71, "duration": 110, "velocity": 90}, {"time": 188403, "pitch": 76, "duration": 110, "velocity": 90}, {"time": 188523, "pitch": 71, "duration": 111, "velocity": 90}, {"time": 188644, "pitch": 61, "duration": 344, "velocity": 90}, {"time": 188998, "pitch": 68, "duration": 108, "velocity": 90}, {"time": 189116, "pitch": 73, "duration": 351, "velocity": 90}, {"time": 189477, "pitch": 85, "duration": 111, "velocity": 90}, {"time": 189598, "pitch": 80, "duration": 351, "velocity": 90}, {"time": 189959, "pitch": 73, "duration": 110, "velocity": 90}, {"time": 190079, "pitch": 61, "duration": 111, "velocity": 90}, {"time": 190200, "pitch": 68, "duration": 110, "velocity": 90}, {"time": 190320, "pitch": 73, "duration": 111, "velocity": 90}, {"time": 190441, "pitch": 68, "duration": 110, "velocity": 90}, {"time": 190561, "pitch": 63, "duration": 351, "velocity": 90}, {"time": 190922, "pitch": 71, "duration": 111, "velocity": 90}, {"time": 191043, "pitch": 75, "duration": 351, "velocity": 90}, {"time": 191404, "pitch": 87, "duration": 111, "velocity": 90}, {"time": 191525, "pitch": 83, "duration": 344, "velocity": 90}, {"time": 191879, "pitch": 75, "duration": 108, "velocity": 90}, {"time": 191997, "pitch": 63, "duration": 110, "velocity": 90}, {"time": 192117, "pitch": 71, "duration": 111, "velocity": 90}, {"time": 192238, "pitch": 75, "duration": 110, "velocity": 90}, {"time": 192358, "pitch": 71, "duration": 110, "velocity": 90}, {"time": 192478, "pitch": 61, "duration": 352, "velocity": 90}, {"time": 192840, "pitch": 69, "duration": 110, "velocity": 90}, {"time": 192960, "pitch": 73, "duration": 351, "velocity": 90}, {"time": 193322, "pitch": 85, "duration": 110, "velocity": 90}, {"time": 193442, "pitch": 81, "duration": 351, "velocity": 90}, {"time": 193803, "pitch": 73, "duration": 111, "velocity": 90}, {"time": 193924, "pitch": 61, "duration": 108, "velocity": 90}, {"time": 194042, "pitch": 69, "duration": 108, "velocity": 90}, {"time": 194160, "pitch": 73, "duration": 108, "velocity": 90}, {"time": 194278, "pitch": 69, "duration": 108, "velocity": 90}, {"time": 194396, "pitch": 66, "duration": 351, "velocity": 90}, {"time": 194757, "pitch": 72, "duration": 110, "velocity": 90}, {"time": 194877, "pitch": 78, "duration": 352, "velocity": 90}, {"time": 195239, "pitch": 90, "duration": 110, "velocity": 90}, {"time": 259681, "pitch": 61, "duration": 351, "velocity": 90}, {"time": 260042, "pitch": 68, "duration": 111, "velocity": 90}, {"time": 260163, "pitch": 73, "duration": 351, "velocity": 90}, {"time": 260524, "pitch": 85, "duration": 110, "velocity": 90}, {"time": 260644, "pitch": 80, "duration": 345, "velocity": 90}, {"time": 260998, "pitch": 73, "duration": 109, "velocity": 90}, {"time": 261116, "pitch": 61, "duration": 111, "velocity": 90}, {"time": 261237, "pitch": 68, "duration": 110, "velocity": 90}, {"time": 261357, "pitch": 73, "duration": 111, "velocity": 90}, {"time": 261478, "pitch": 68, "duration": 110, "velocity": 90}, {"time": 261598, "pitch": 61, "duration": 351, "velocity": 90}, {"time": 261959, "pitch": 68, "duration": 111, "velocity": 90}, {"time": 262080, "pitch": 73, "duration": 351, "velocity": 90}, {"time": 262441, "pitch": 85, "duration": 111, "velocity": 90}, {"time": 262562, "pitch": 80, "duration": 351, "velocity": 90}, {"time": 262923, "pitch": 73, "duration": 110, "velocity": 90}, {"time": 263043, "pitch": 61, "duration": 109, "velocity": 90}, {"time": 263161, "pitch": 68, "duration": 109, "velocity": 90}, {"time": 263279, "pitch": 73, "duration": 109, "velocity": 90}, {"time": 263397, "pitch": 68, "duration": 109, "velocity": 90}, {"time": 263515, "pitch": 63, "duration": 352, "velocity": 90}, {"time": 263877, "pitch": 71, "duration": 110, "velocity": 90}, {"time": 263997, "pitch": 75, "duration": 351, "velocity": 90}, {"time": 264358, "pitch": 87, "duration": 111, "velocity": 90}, {"time": 264479, "pitch": 83, "duration": 351, "velocity": 90}, {"time": 264840, "pitch": 75, "duration": 111, "velocity": 90}, {"time": 264961, "pitch": 63, "duration": 110, "velocity": 90}, {"time": 265081, "pitch": 71, "duration": 110, "velocity": 90}, {"time": 265202, "pitch": 75, "duration": 110, "velocity": 90}, {"time": 265322, "pitch": 71, "duration": 110, "velocity": 90}, {"time": 265442, "pitch": 64, "duration": 352, "velocity": 90}, {"time": 265804, "pitch": 71, "duration": 110, "velocity": 90}, {"time": 265924, "pitch": 76, "duration": 344, "velocity": 90}, {"time": 266278, "pitch": 88, "duration": 108, "velocity": 90}, {"time": 266396, "pitch": 83, "duration": 351, "velocity": 90}, {"time": 266757, "pitch": 76, "duration": 111, "velocity": 90}, {"time": 266878, "pitch": 64, "duration": 110, "velocity": 90}, {"time": 266998, "pitch": 71, "duration": 111, "velocity": 90}, {"time": 267119, "pitch": 76, "duration": 110, "velocity": 90}, {"time": 267239, "pitch": 71, "duration": 111, "velocity": 90}, {"time": 267360, "pitch": 61, "duration": 351, "velocity": 90}, {"time": 267721, "pitch": 68, "duration": 110, "velocity": 90}, {"time": 267841, "pitch": 73, "duration": 352, "velocity": 90}, {"time": 268203, "pitch": 85, "duration": 110, "velocity": 90}, {"time": 268323, "pitch": 80, "duration": 344, "velocity": 90}, {"time": 268677, "pitch": 73, "duration": 108, "velocity": 90}, {"time": 268795, "pitch": 61, "duration": 111, "velocity": 90}, {"time": 268916, "pitch": 68, "duration": 110, "velocity": 90}, {"time": 269036, "pitch": 73, "duration": 110, "velocity": 90}, {"time": 269157, "pitch": 68, "duration": 110, "velocity": 90}, {"time": 269277, "pitch": 63, "duration": 351, "velocity": 90}, {"time": 269638, "pitch": 71, "duration": 111, "velocity": 90}, {"time": 269759, "pitch": 75, "duration": 351, "velocity": 90}, {"time": 270120, "pitch": 87, "duration": 110, "velocity": 90}, {"time": 270240, "pitch": 83, "duration": 352, "velocity": 90}, {"time": 270602, "pitch": 75, "duration": 110, "velocity": 90}, {"time": 270722, "pitch": 63, "duration": 111, "velocity": 90}, {"time": 270843, "pitch": 71, "duration": 110, "velocity": 90}, {"time": 270963, "pitch": 75, "duration": 111, "velocity": 90}, {"time": 271084, "pitch": 71, "duration": 110, "velocity": 90}, {"time": 271204, "pitch": 61, "duration": 344, "velocity": 90}, {"time": 271558, "pitch": 69, "duration": 108, "velocity": 90}, {"time": 271676, "pitch": 73, "duration": 351, "velocity": 90}, {"time": 272037, "pitch": 85, "duration": 111, "velocity": 90}, {"time": 272158, "pitch": 81, "duration": 351, "velocity": 90}, {"time": 272519, "pitch": 73, "duration": 110, "velocity": 90}, {"time": 272640, "pitch": 61, "duration": 110, "velocity": 90}, {"time": 272760, "pitch": 69, "duration": 110, "velocity": 90}, {"time": 272880, "pitch": 73, "duration": 111, "velocity": 90}, {"time": 273001, "pitch": 69, "duration": 110, "velocity": 90}, {"time": 273121, "pitch": 66, "duration": 352, "velocity": 90}, {"time": 273483, "pitch": 72, "duration": 110, "velocity": 90}, {"time": 273603, "pitch": 78, "duration": 351, "velocity": 90}, {"time": 273964, "pitch": 90, "duration": 111, "velocity": 90}, {"time": 274085, "pitch": 81, "duration": 344, "velocity": 90}, {"time": 274439, "pitch": 78, "duration": 108, "velocity": 90}, {"time": 274557, "pitch": 66, "duration": 110, "velocity": 90}, {"time": 274677, "pitch": 72, "duration": 111, "velocity": 90}, {"time": 274798, "pitch": 78, "duration": 110, "velocity": 90}, {"time": 274918, "pitch": 72, "duration": 111, "velocity": 90}, {"time": 275039, "pitch": 69, "duration": 351, "velocity": 90}, {"time": 275400, "pitch": 71, "duration": 110, "velocity": 90}, {"time": 275520, "pitch": 76, "duration": 352, "velocity": 90}, {"time": 275882, "pitch": 85, "duration": 110, "velocity": 90}, {"time": 276002, "pitch": 80, "duration": 351, "velocity": 90}, {"time": 276363, "pitch": 76, "duration": 111, "velocity": 90}, {"time": 276484, "pitch": 69, "duration": 108, "velocity": 90}, {"time": 276602, "pitch": 71, "duration": 108, "velocity": 90}, {"time": 276720, "pitch": 76, "duration": 108, "velocity": 90}, {"time": 276838, "pitch": 71, "duration": 108, "velocity": 90}, {"time": 276956, "pitch": 69, "duration": 351, "velocity": 90}, {"time": 277317, "pitch": 71, "duration": 111, "velocity": 90}, {"time": 277438, "pitch": 76, "duration": 351, "velocity": 90}, {"time": 277799, "pitch": 85, "duration": 110, "velocity": 90}, {"time": 277919, "pitch": 80, "duration": 352, "velocity": 90}, {"time": 278281, "pitch": 76, "duration": 110, "velocity": 90}, {"time": 278401, "pitch": 69, "duration": 111, "velocity": 90}, {"time": 278522, "pitch": 71, "duration": 110, "velocity": 90}, {"time": 278642, "pitch": 76, "duration": 110, "velocity": 90}, {"time": 278762, "pitch": 71, "duration": 111, "velocity": 90}, {"time": 278883, "pitch": 69, "duration": 351, "velocity": 90}, {"time": 279244, "pitch": 71, "duration": 111, "velocity": 90}, {"time": 279365, "pitch": 76, "duration": 344, "velocity": 90}, {"time": 279719, "pitch": 85, "duration": 108, "velocity": 90}, {"time": 279837, "pitch": 80, "duration": 351, "velocity": 90}, {"time": 280198, "pitch": 76, "duration": 110, "velocity": 90}, {"time": 280318, "pitch": 69, "duration": 111, "velocity": 90}, {"time": 280439, "pitch": 71, "duration": 110, "velocity": 90}, {"time": 280559, "pitch": 76, "duration": 111, "velocity": 90}, {"time": 280680, "pitch": 71, "duration": 110, "velocity": 90}, {"time": 280800, "pitch": 69, "duration": 351, "velocity": 90}, {"time": 281161, "pitch": 71, "duration": 111, "velocity": 90}, {"time": 281282, "pitch": 76, "duration": 351, "velocity": 90}, {"time": 281643, "pitch": 85, "duration": 111, "velocity": 90}, {"time": 281764, "pitch": 80, "duration": 344, "velocity": 90}, {"time": 282118, "pitch": 76, "duration": 108, "velocity": 90}, {"time": 282236, "pitch": 69, "duration": 110, "velocity": 90}, {"time": 282356, "pitch": 71, "duration": 111, "velocity": 90}, {"time": 282477, "pitch": 76, "duration": 110, "velocity": 90}, {"time": 282597, "pitch": 71, "duration": 110, "velocity": 90}, {"time": 282717, "pitch": 69, "duration": 352, "velocity": 90}, {"time": 283079, "pitch": 71, "duration": 110, "velocity": 90}, {"time": 283199, "pitch": 76, "duration": 351, "velocity": 90}, {"time": 283561, "pitch": 85, "duration": 110, "velocity": 90}, {"time": 283681, "pitch": 80, "duration": 351, "velocity": 90}, {"time": 284042, "pitch": 76, "duration": 111, "velocity": 90}, {"time": 284163, "pitch": 69, "duration": 110, "velocity": 90}, {"time": 284283, "pitch": 71, "duration": 111, "velocity": 90}, {"time": 284404, "pitch": 76, "duration": 110, "velocity": 90}, {"time": 284524, "pitch": 71, "duration": 110, "velocity": 90}, {"time": 284644, "pitch": 69, "duration": 345, "velocity": 90}, {"time": 284999, "pitch": 71, "duration": 108, "velocity": 90}, {"time": 285117, "pitch": 76, "duration": 351, "velocity": 90}, {"time": 285478, "pitch": 85, "duration": 110, "velocity": 90}, {"time": 285598, "pitch": 80, "duration": 352, "velocity": 90}, {"time": 285960, "pitch": 76, "duration": 110, "velocity": 90}, {"time": 286080, "pitch": 69, "duration": 110, "velocity": 90}, {"time": 286200, "pitch": 71, "duration": 111, "velocity": 90}, {"time": 286321, "pitch": 76, "duration": 110, "velocity": 90}, {"time": 286441, "pitch": 71, "duration": 111, "velocity": 90}, {"time": 286562, "pitch": 69, "duration": 351, "velocity": 90}, {"time": 286923, "pitch": 71, "duration": 110, "velocity": 90}, {"time": 287043, "pitch": 76, "duration": 345, "velocity": 90}, {"time": 287398, "pitch": 85, "duration": 108, "velocity": 90}, {"time": 287516, "pitch": 80, "duration": 351, "velocity": 90}, {"time": 287877, "pitch": 76, "duration": 110, "velocity": 85}, {"time": 287997, "pitch": 69, "duration": 111, "velocity": 72}, {"time": 288118, "pitch": 71, "duration": 110, "velocity": 59}, {"time": 288238, "pitch": 76, "duration": 111, "velocity": 46}, {"time": 288359, "pitch": 71, "duration": 110, "velocity": 34}, {"time": 4322, "pitch": 73, "duration": 2389, "velocity": 110}, {"time": 4322, "pitch": 85, "duration": 2389, "velocity": 80}, {"time": 6721, "pitch": 75, "duration": 471, "velocity": 110}, {"time": 6721, "pitch": 87, "duration": 471, "velocity": 80}, {"time": 7202, "pitch": 76, "duration": 472, "velocity": 110}, {"time": 7202, "pitch": 88, "duration": 472, "velocity": 80}, {"time": 7684, "pitch": 80, "duration": 462, "velocity": 110}, {"time": 7684, "pitch": 92, "duration": 462, "velocity": 80}, {"time": 8156, "pitch": 78, "duration": 2389, "velocity": 110}, {"time": 8156, "pitch": 90, "duration": 2389, "velocity": 80}, {"time": 10555, "pitch": 75, "duration": 472, "velocity": 110}, {"time": 10555, "pitch": 87, "duration": 472, "velocity": 80}, {"time": 11037, "pitch": 76, "duration": 472, "velocity": 110}, {"time": 11037, "pitch": 88, "duration": 472, "velocity": 80}, {"time": 11519, "pitch": 78, "duration": 471, "velocity": 110}, {"time": 11519, "pitch": 90, "duration": 471, "velocity": 80}, {"time": 12000, "pitch": 80, "duration": 2389, "velocity": 110}, {"time": 12000, "pitch": 92, "duration": 2389, "velocity": 80}, {"time": 14400, "pitch": 76, "duration": 471, "velocity": 110}, {"time": 14400, "pitch": 88, "duration": 471, "velocity": 80}, {"time": 14881, "pitch": 78, "duration": 472, "velocity": 110}, {"time": 14881, "pitch": 90, "duration": 472, "velocity": 80}, {"time": 15363, "pitch": 80, "duration": 472, "velocity": 110}, {"time": 15363, "pitch": 92, "duration": 472, "velocity": 80}, {"time": 15845, "pitch": 83, "duration": 1184, "velocity": 110}, {"time": 15845, "pitch": 95, "duration": 1184, "velocity": 80}, {"time": 17039, "pitch": 81, "duration": 231, "velocity": 110}, {"time": 17039, "pitch": 93, "duration": 231, "velocity": 80}, {"time": 17280, "pitch": 80, "duration": 231, "velocity": 110}, {"time": 17280, "pitch": 92, "duration": 231, "velocity": 80}, {"time": 17521, "pitch": 78, "duration": 231, "velocity": 110}, {"time": 17521, "pitch": 90, "duration": 231, "velocity": 80}, {"time": 17762, "pitch": 76, "duration": 708, "velocity": 110}, {"time": 17762, "pitch": 88, "duration": 708, "velocity": 80}, {"time": 18480, "pitch": 75, "duration": 1189, "velocity": 110}, {"time": 18480, "pitch": 87, "duration": 1189, "velocity": 80}, {"time": 66716, "pitch": 64, "duration": 111, "velocity": 120}, {"time": 66716, "pitch": 76, "duration": 111, "velocity": 90}, {"time": 66837, "pitch": 66, "duration": 110, "velocity": 115}, {"time": 66837, "pitch": 78, "duration": 110, "velocity": 85}, {"time": 66957, "pitch": 68, "duration": 110, "velocity": 110}, {"time": 66957, "pitch": 80, "duration": 110, "velocity": 80}, {"time": 67077, "pitch": 69, "duration": 111, "velocity": 105}, {"time": 67077, "pitch": 81, "duration": 111, "velocity": 75}, {"time": 67198, "pitch": 71, "duration": 70, "velocity": 100}, {"time": 67198, "pitch": 83, "duration": 70, "velocity": 70}, {"time": 67278, "pitch": 73, "duration": 70, "velocity": 96}, {"time": 67278, "pitch": 85, "duration": 70, "velocity": 66}, {"time": 67358, "pitch": 75, "duration": 71, "velocity": 93}, {"time": 67358, "pitch": 87, "duration": 71, "velocity": 63}, {"time": 67439, "pitch": 76, "duration": 50, "velocity": 90}, {"time": 67439, "pitch": 88, "duration": 50, "velocity": 60}, {"time": 67499, "pitch": 78, "duration": 50, "velocity": 87}, {"time": 67499, "pitch": 90, "duration": 50, "velocity": 57}, {"time": 67559, "pitch": 80, "duration": 50, "velocity": 84}, {"time": 67559, "pitch": 92, "duration": 50, "velocity": 54}, {"time": 67619, "pitch": 81, "duration": 51, "velocity": 82}, {"time": 67619, "pitch": 93, "duration": 51, "velocity": 52}, {"time": 67680, "pitch": 83, "duration": 2389, "velocity": 110}, {"time": 67680, "pitch": 95, "duration": 2389, "velocity": 80}, {"time": 70079, "pitch": 71, "duration": 471, "velocity": 110}, {"time": 70079, "pitch": 83, "duration": 471, "velocity": 80}, {"time": 70560, "pitch": 76, "duration": 472, "velocity": 110}, {"time": 70560, "pitch": 88, "duration": 472, "velocity": 80}, {"time": 71042, "pitch": 80, "duration": 472, "velocity": 110}, {"time": 71042, "pitch": 92, "duration": 472, "velocity": 80}, {"time": 71524, "pitch": 83, "duration": 1907, "velocity": 110}, {"time": 71524, "pitch": 95, "duration": 1907, "velocity": 80}, {"time": 73441, "pitch": 85, "duration": 1190, "velocity": 110}, {"time": 73441, "pitch": 97, "duration": 1190, "velocity": 80}, {"time": 74641, "pitch": 80, "duration": 467, "velocity": 110}, {"time": 74641, "pitch": 92, "duration": 467, "velocity": 80}, {"time": 75118, "pitch": 83, "duration": 230, "velocity": 110}, {"time": 75118, "pitch": 95, "duration": 230, "velocity": 80}, {"time": 75359, "pitch": 81, "duration": 1907, "velocity": 110}, {"time": 75359, "pitch": 93, "duration": 1907, "velocity": 80}, {"time": 77276, "pitch": 83, "duration": 472, "velocity": 110}, {"time": 77276, "pitch": 95, "duration": 472, "velocity": 80}, {"time": 77758, "pitch": 80, "duration": 230, "velocity": 110}, {"time": 77758, "pitch": 92, "duration": 230, "velocity": 80}, {"time": 77998, "pitch": 76, "duration": 472, "velocity": 110}, {"time": 77998, "pitch": 88, "duration": 472, "velocity": 80}, {"time": 78480, "pitch": 71, "duration": 713, "velocity": 110}, {"time": 78480, "pitch": 83, "duration": 713, "velocity": 80}, {"time": 79203, "pitch": 72, "duration": 1184, "velocity": 110}, {"time": 79203, "pitch": 84, "duration": 1184, "velocity": 80}, {"time": 80397, "pitch": 74, "duration": 472, "velocity": 110}, {"time": 80397, "pitch": 86, "duration": 472, "velocity": 80}, {"time": 80879, "pitch": 76, "duration": 954, "velocity": 110}, {"time": 80879, "pitch": 88, "duration": 954, "velocity": 80}, {"time": 81843, "pitch": 78, "duration": 703, "velocity": 110}, {"time": 81843, "pitch": 90, "duration": 703, "velocity": 80}, {"time": 82556, "pitch": 80, "duration": 471, "velocity": 110}, {"time": 82556, "pitch": 92, "duration": 471, "velocity": 80}, {"time": 83037, "pitch": 83, "duration": 3232, "velocity": 110}, {"time": 83037, "pitch": 95, "duration": 3232, "velocity": 80}, {"time": 86280, "pitch": 80, "duration": 351, "velocity": 110}, {"time": 86280, "pitch": 92, "duration": 351, "velocity": 80}, {"time": 86641, "pitch": 81, "duration": 231, "velocity": 110}, {"time": 86641, "pitch": 93, "duration": 231, "velocity": 80}, {"time": 86882, "pitch": 83, "duration": 1907, "velocity": 110}, {"time": 86882, "pitch": 95, "duration": 1907, "velocity": 80}, {"time": 88799, "pitch": 85, "duration": 472, "velocity": 110}, {"time": 88799, "pitch": 97, "duration": 472, "velocity": 80}, {"time": 89281, "pitch": 83, "duration": 471, "velocity": 110}, {"time": 89281, "pitch": 95, "duration": 471, "velocity": 80}, {"time": 89763, "pitch": 81, "duration": 471, "velocity": 110}, {"time": 89763, "pitch": 93, "duration": 471, "velocity": 80}, {"time": 90244, "pitch": 80, "duration": 462, "velocity": 110}, {"time": 90244, "pitch": 92, "duration": 462, "velocity": 80}, {"time": 90716, "pitch": 78, "duration": 1195, "velocity": 110}, {"time": 90716, "pitch": 90, "duration": 1195, "velocity": 80}, {"time": 91921, "pitch": 80, "duration": 471, "velocity": 110}, {"time": 91921, "pitch": 92, "duration": 471, "velocity": 80}, {"time": 92402, "pitch": 81, "duration": 231, "velocity": 110}, {"time": 92402, "pitch": 93, "duration": 231, "velocity": 80}, {"time": 92643, "pitch": 80, "duration": 1185, "velocity": 110}, {"time": 92643, "pitch": 92, "duration": 1185, "velocity": 80}, {"time": 93838, "pitch": 81, "duration": 472, "velocity": 110}, {"time": 93838, "pitch": 93, "duration": 472, "velocity": 80}, {"time": 94320, "pitch": 83, "duration": 231, "velocity": 110}, {"time": 94320, "pitch": 95, "duration": 231, "velocity": 80}, {"time": 94561, "pitch": 84, "duration": 1189, "velocity": 110}, {"time": 94561, "pitch": 96, "duration": 1189, "velocity": 80}, {"time": 95760, "pitch": 83, "duration": 467, "velocity": 110}, {"time": 95760, "pitch": 95, "duration": 467, "velocity": 80}, {"time": 96237, "pitch": 84, "duration": 231, "velocity": 110}, {"time": 96237, "pitch": 96, "duration": 231, "velocity": 80}, {"time": 96478, "pitch": 85, "duration": 1907, "velocity": 110}, {"time": 96478, "pitch": 97, "duration": 1907, "velocity": 80}, {"time": 98395, "pitch": 83, "duration": 3834, "velocity": 110}, {"time": 98395, "pitch": 95, "duration": 3834, "velocity": 80}, {"time": 149276, "pitch": 64, "duration": 111, "velocity": 120}, {"time": 149276, "pitch": 76, "duration": 111, "velocity": 90}, {"time": 149397, "pitch": 66, "duration": 110, "velocity": 115}, {"time": 149397, "pitch": 78, "duration": 110, "velocity": 85}, {"time": 149517, "pitch": 68, "duration": 111, "velocity": 110}, {"time": 149517, "pitch": 80, "duration": 111, "velocity": 80}, {"time": 149638, "pitch": 69, "duration": 110, "velocity": 105}, {"time": 149638, "pitch": 81, "duration": 110, "velocity": 75}, {"time": 149758, "pitch": 71, "duration": 70, "velocity": 100}, {"time": 149758, "pitch": 83, "duration": 70, "velocity": 70}, {"time": 149838, "pitch": 73, "duration": 71, "velocity": 96}, {"time": 149838, "pitch": 85, "duration": 71, "velocity": 66}, {"time": 149919, "pitch": 75, "duration": 70, "velocity": 93}, {"time": 149919, "pitch": 87, "duration": 70, "velocity": 63}, {"time": 149999, "pitch": 76, "duration": 50, "velocity": 90}, {"time": 149999, "pitch": 88, "duration": 50, "velocity": 60}, {"time": 150059, "pitch": 78, "duration": 50, "velocity": 87}, {"time": 150059, "pitch": 90, "duration": 50, "velocity": 57}, {"time": 150119, "pitch": 80, "duration": 50, "velocity": 84}, {"time": 150119, "pitch": 92, "duration": 50, "velocity": 54}, {"time": 150180, "pitch": 81, "duration": 50, "velocity": 82}, {"time": 150180, "pitch": 93, "duration": 50, "velocity": 52}, {"time": 150240, "pitch": 83, "duration": 2389, "velocity": 110}, {"time": 150240, "pitch": 95, "duration": 2389, "velocity": 80}, {"time": 152639, "pitch": 71, "duration": 472, "velocity": 110}, {"time": 152639, "pitch": 83, "duration": 472, "velocity": 80}, {"time": 153121, "pitch": 76, "duration": 471, "velocity": 110}, {"time": 153121, "pitch": 88, "duration": 471, "velocity": 80}, {"time": 153602, "pitch": 80, "duration": 472, "velocity": 110}, {"time": 153602, "pitch": 92, "duration": 472, "velocity": 80}, {"time": 154084, "pitch": 83, "duration": 1907, "velocity": 110}, {"time": 154084, "pitch": 95, "duration": 1907, "velocity": 80}, {"time": 156001, "pitch": 85, "duration": 1190, "velocity": 110}, {"time": 156001, "pitch": 97, "duration": 1190, "velocity": 80}, {"time": 157201, "pitch": 80, "duration": 467, "velocity": 110}, {"time": 157201, "pitch": 92, "duration": 467, "velocity": 80}, {"time": 157678, "pitch": 83, "duration": 231, "velocity": 110}, {"time": 157678, "pitch": 95, "duration": 231, "velocity": 80}, {"time": 157919, "pitch": 81, "duration": 1907, "velocity": 110}, {"time": 157919, "pitch": 93, "duration": 1907, "velocity": 80}, {"time": 159836, "pitch": 83, "duration": 472, "velocity": 110}, {"time": 159836, "pitch": 95, "duration": 472, "velocity": 80}, {"time": 160318, "pitch": 80, "duration": 231, "velocity": 110}, {"time": 160318, "pitch": 92, "duration": 231, "velocity": 80}, {"time": 160559, "pitch": 76, "duration": 471, "velocity": 110}, {"time": 160559, "pitch": 88, "duration": 471, "velocity": 80}, {"time": 161040, "pitch": 71, "duration": 713, "velocity": 110}, {"time": 161040, "pitch": 83, "duration": 713, "velocity": 80}, {"time": 161763, "pitch": 72, "duration": 1185, "velocity": 110}, {"time": 161763, "pitch": 84, "duration": 1185, "velocity": 80}, {"time": 162958, "pitch": 74, "duration": 471, "velocity": 110}, {"time": 162958, "pitch": 86, "duration": 471, "velocity": 80}, {"time": 163439, "pitch": 76, "duration": 954, "velocity": 110}, {"time": 163439, "pitch": 88, "duration": 954, "velocity": 80}, {"time": 164403, "pitch": 78, "duration": 703, "velocity": 110}, {"time": 164403, "pitch": 90, "duration": 703, "velocity": 80}, {"time": 165116, "pitch": 80, "duration": 471, "velocity": 110}, {"time": 165116, "pitch": 92, "duration": 471, "velocity": 80}, {"time": 165597, "pitch": 83, "duration": 3233, "velocity": 110}, {"time": 165597, "pitch": 95, "duration": 3233, "velocity": 80}, {"time": 168840, "pitch": 80, "duration": 351, "velocity": 110}, {"time": 168840, "pitch": 92, "duration": 351, "velocity": 80}, {"time": 169201, "pitch": 81, "duration": 231, "velocity": 110}, {"time": 169201, "pitch": 93, "duration": 231, "velocity": 80}, {"time": 169442, "pitch": 83, "duration": 1907, "velocity": 110}, {"time": 169442, "pitch": 95, "duration": 1907, "velocity": 80}, {"time": 171359, "pitch": 85, "duration": 472, "velocity": 110}, {"time": 171359, "pitch": 97, "duration": 472, "velocity": 80}, {"time": 171841, "pitch": 83, "duration": 472, "velocity": 110}, {"time": 171841, "pitch": 95, "duration": 472, "velocity": 80}, {"time": 172323, "pitch": 81, "duration": 471, "velocity": 110}, {"time": 172323, "pitch": 93, "duration": 471, "velocity": 80}, {"time": 172804, "pitch": 80, "duration": 463, "velocity": 110}, {"time": 172804, "pitch": 92, "duration": 463, "velocity": 80}, {"time": 173276, "pitch": 78, "duration": 1195, "velocity": 110}, {"time": 173276, "pitch": 90, "duration": 1195, "velocity": 80}, {"time": 174481, "pitch": 80, "duration": 472, "velocity": 110}, {"time": 174481, "pitch": 92, "duration": 472, "velocity": 80}, {"time": 174963, "pitch": 81, "duration": 230, "velocity": 110}, {"time": 174963, "pitch": 93, "duration": 230, "velocity": 80}, {"time": 175203, "pitch": 80, "duration": 1185, "velocity": 110}, {"time": 175203, "pitch": 92, "duration": 1185, "velocity": 80}, {"time": 176398, "pitch": 81, "duration": 472, "velocity": 110}, {"time": 176398, "pitch": 93, "duration": 472, "velocity": 80}, {"time": 176880, "pitch": 83, "duration": 231, "velocity": 110}, {"time": 176880, "pitch": 95, "duration": 231, "velocity": 80}, {"time": 177121, "pitch": 84, "duration": 1189, "velocity": 110}, {"time": 177121, "pitch": 96, "duration": 1189, "velocity": 80}, {"time": 178320, "pitch": 83, "duration": 467, "velocity": 110}, {"time": 178320, "pitch": 95, "duration": 467, "velocity": 80}, {"time": 178797, "pitch": 84, "duration": 231, "velocity": 110}, {"time": 178797, "pitch": 96, "duration": 231, "velocity": 80}, {"time": 179038, "pitch": 85, "duration": 1907, "velocity": 110}, {"time": 179038, "pitch": 97, "duration": 1907, "velocity": 80}, {"time": 180955, "pitch": 73, "duration": 2399, "velocity": 110}, {"time": 180955, "pitch": 85, "duration": 2399, "velocity": 80}, {"time": 183364, "pitch": 75, "duration": 462, "velocity": 110}, {"time": 183364, "pitch": 87, "duration": 462, "velocity": 80}, {"time": 183836, "pitch": 76, "duration": 472, "velocity": 110}, {"time": 183836, "pitch": 88, "duration": 472, "velocity": 80}, {"time": 184318, "pitch": 80, "duration": 472, "velocity": 110}, {"time": 184318, "pitch": 92, "duration": 472, "velocity": 80}, {"time": 184800, "pitch": 78, "duration": 2389, "velocity": 110}, {"time": 184800, "pitch": 90, "duration": 2389, "velocity": 80}, {"time": 187199, "pitch": 75, "duration": 471, "velocity": 110}, {"time": 187199, "pitch": 87, "duration": 471, "velocity": 80}, {"time": 187680, "pitch": 76, "duration": 472, "velocity": 110}, {"time": 187680, "pitch": 88, "duration": 472, "velocity": 80}, {"time": 188162, "pitch": 78, "duration": 472, "velocity": 110}, {"time": 188162, "pitch": 90, "duration": 472, "velocity": 80}, {"time": 188644, "pitch": 80, "duration": 2389, "velocity": 110}, {"time": 188644, "pitch": 92, "duration": 2389, "velocity": 80}, {"time": 191043, "pitch": 76, "duration": 472, "velocity": 110}, {"time": 191043, "pitch": 88, "duration": 472, "velocity": 80}, {"time": 191525, "pitch": 78, "duration": 462, "velocity": 110}, {"time": 191525, "pitch": 90, "duration": 462, "velocity": 80}, {"time": 191997, "pitch": 80, "duration": 471, "velocity": 110}, {"time": 191997, "pitch": 92, "duration": 471, "velocity": 80}, {"time": 192478, "pitch": 83, "duration": 1195, "velocity": 110}, {"time": 192478, "pitch": 95, "duration": 1195, "velocity": 80}, {"time": 193683, "pitch": 81, "duration": 231, "velocity": 110}, {"time": 193683, "pitch": 93, "duration": 231, "velocity": 80}, {"time": 193924, "pitch": 80, "duration": 226, "velocity": 110}, {"time": 193924, "pitch": 92, "duration": 226, "velocity": 80}, {"time": 194160, "pitch": 78, "duration": 226, "velocity": 110}, {"time": 194160, "pitch": 90, "duration": 226, "velocity": 80}, {"time": 194396, "pitch": 76, "duration": 712, "velocity": 110}, {"time": 194396, "pitch": 88, "duration": 712, "velocity": 80}, {"time": 195118, "pitch": 75, "duration": 1195, "velocity": 110}, {"time": 195118, "pitch": 87, "duration": 1195, "velocity": 80}, {"time": 228002, "pitch": 64, "duration": 110, "velocity": 120}, {"time": 228002, "pitch": 76, "duration": 110, "velocity": 90}, {"time": 228122, "pitch": 66, "duration": 111, "velocity": 115}, {"time": 228122, "pitch": 78, "duration": 111, "velocity": 85}, {"time": 228243, "pitch": 68, "duration": 110, "velocity": 110}, {"time": 228243, "pitch": 80, "duration": 110, "velocity": 80}, {"time": 228363, "pitch": 69, "duration": 111, "velocity": 105}, {"time": 228363, "pitch": 81, "duration": 111, "velocity": 75}, {"time": 228483, "pitch": 71, "duration": 69, "velocity": 100}, {"time": 228483, "pitch": 83, "duration": 69, "velocity": 70}, {"time": 228562, "pitch": 73, "duration": 69, "velocity": 96}, {"time": 228562, "pitch": 85, "duration": 69, "velocity": 66}, {"time": 228641, "pitch": 75, "duration": 69, "velocity": 93}, {"time": 228641, "pitch": 87, "duration": 69, "velocity": 63}, {"time": 228720, "pitch": 76, "duration": 49, "velocity": 90}, {"time": 228720, "pitch": 88, "duration": 49, "velocity": 60}, {"time": 228779, "pitch": 78, "duration": 49, "velocity": 87}, {"time": 228779, "pitch": 90, "duration": 49, "velocity": 57}, {"time": 228838, "pitch": 80, "duration": 49, "velocity": 84}, {"time": 228838, "pitch": 92, "duration": 49, "velocity": 54}, {"time": 228897, "pitch": 81, "duration": 49, "velocity": 82}, {"time": 228897, "pitch": 93, "duration": 49, "velocity": 52}, {"time": 228956, "pitch": 83, "duration": 2398, "velocity": 110}, {"time": 228956, "pitch": 95, "duration": 2398, "velocity": 80}, {"time": 231364, "pitch": 71, "duration": 463, "velocity": 110}, {"time": 231364, "pitch": 83, "duration": 463, "velocity": 80}, {"time": 231836, "pitch": 76, "duration": 472, "velocity": 110}, {"time": 231836, "pitch": 88, "duration": 472, "velocity": 80}, {"time": 232318, "pitch": 80, "duration": 472, "velocity": 110}, {"time": 232318, "pitch": 92, "duration": 472, "velocity": 80}, {"time": 232800, "pitch": 83, "duration": 1907, "velocity": 110}, {"time": 232800, "pitch": 95, "duration": 1907, "velocity": 80}, {"time": 234717, "pitch": 85, "duration": 1195, "velocity": 110}, {"time": 234717, "pitch": 97, "duration": 1195, "velocity": 80}, {"time": 235922, "pitch": 80, "duration": 471, "velocity": 110}, {"time": 235922, "pitch": 92, "duration": 471, "velocity": 80}, {"time": 236403, "pitch": 83, "duration": 231, "velocity": 110}, {"time": 236403, "pitch": 95, "duration": 231, "velocity": 80}, {"time": 236644, "pitch": 81, "duration": 1907, "velocity": 110}, {"time": 236644, "pitch": 93, "duration": 1907, "velocity": 80}, {"time": 238561, "pitch": 83, "duration": 472, "velocity": 110}, {"time": 238561, "pitch": 95, "duration": 472, "velocity": 80}, {"time": 239043, "pitch": 80, "duration": 226, "velocity": 110}, {"time": 239043, "pitch": 92, "duration": 226, "velocity": 80}, {"time": 239279, "pitch": 76, "duration": 467, "velocity": 110}, {"time": 239279, "pitch": 88, "duration": 467, "velocity": 80}, {"time": 239756, "pitch": 71, "duration": 713, "velocity": 110}, {"time": 239756, "pitch": 83, "duration": 713, "velocity": 80}, {"time": 240479, "pitch": 72, "duration": 1194, "velocity": 110}, {"time": 240479, "pitch": 84, "duration": 1194, "velocity": 80}, {"time": 241683, "pitch": 74, "duration": 467, "velocity": 110}, {"time": 241683, "pitch": 86, "duration": 467, "velocity": 80}, {"time": 242160, "pitch": 76, "duration": 949, "velocity": 110}, {"time": 242160, "pitch": 88, "duration": 949, "velocity": 80}, {"time": 243119, "pitch": 78, "duration": 712, "velocity": 110}, {"time": 243119, "pitch": 90, "duration": 712, "velocity": 80}, {"time": 243841, "pitch": 80, "duration": 472, "velocity": 110}, {"time": 243841, "pitch": 92, "duration": 472, "velocity": 80}, {"time": 244323, "pitch": 83, "duration": 3225, "velocity": 110}, {"time": 244323, "pitch": 95, "duration": 3225, "velocity": 80}, {"time": 247558, "pitch": 80, "duration": 349, "velocity": 110}, {"time": 247558, "pitch": 92, "duration": 349, "velocity": 80}, {"time": 247917, "pitch": 81, "duration": 231, "velocity": 110}, {"time": 247917, "pitch": 93, "duration": 231, "velocity": 80}, {"time": 248158, "pitch": 83, "duration": 1917, "velocity": 110}, {"time": 248158, "pitch": 95, "duration": 1917, "velocity": 80}, {"time": 250085, "pitch": 85, "duration": 462, "velocity": 110}, {"time": 250085, "pitch": 97, "duration": 462, "velocity": 80}, {"time": 250557, "pitch": 83, "duration": 471, "velocity": 110}, {"time": 250557, "pitch": 95, "duration": 471, "velocity": 80}, {"time": 251038, "pitch": 81, "duration": 472, "velocity": 110}, {"time": 251038, "pitch": 93, "duration": 472, "velocity": 80}, {"time": 251520, "pitch": 80, "duration": 472, "velocity": 110}, {"time": 251520, "pitch": 92, "duration": 472, "velocity": 80}, {"time": 252002, "pitch": 78, "duration": 1185, "velocity": 110}, {"time": 252002, "pitch": 90, "duration": 1185, "velocity": 80}, {"time": 253197, "pitch": 80, "duration": 471, "velocity": 110}, {"time": 253197, "pitch": 92, "duration": 471, "velocity": 80}, {"time": 253678, "pitch": 81, "duration": 231, "velocity": 110}, {"time": 253678, "pitch": 93, "duration": 231, "velocity": 80}, {"time": 253919, "pitch": 80, "duration": 1195, "velocity": 110}, {"time": 253919, "pitch": 92, "duration": 1195, "velocity": 80}, {"time": 255124, "pitch": 81, "duration": 467, "velocity": 110}, {"time": 255124, "pitch": 93, "duration": 467, "velocity": 80}, {"time": 255600, "pitch": 83, "duration": 227, "velocity": 110}, {"time": 255600, "pitch": 95, "duration": 227, "velocity": 80}, {"time": 255837, "pitch": 84, "duration": 1194, "velocity": 110}, {"time": 255837, "pitch": 96, "duration": 1194, "velocity": 80}, {"time": 257041, "pitch": 83, "duration": 472, "velocity": 110}, {"time": 257041, "pitch": 95, "duration": 472, "velocity": 80}, {"time": 257523, "pitch": 84, "duration": 231, "velocity": 110}, {"time": 257523, "pitch": 96, "duration": 231, "velocity": 80}, {"time": 257763, "pitch": 85, "duration": 1908, "velocity": 110}, {"time": 257763, "pitch": 97, "duration": 1908, "velocity": 80}, {"time": 259681, "pitch": 73, "duration": 2389, "velocity": 110}, {"time": 259681, "pitch": 85, "duration": 2389, "velocity": 80}, {"time": 262080, "pitch": 75, "duration": 472, "velocity": 110}, {"time": 262080, "pitch": 87, "duration": 472, "velocity": 80}, {"time": 262562, "pitch": 76, "duration": 471, "velocity": 110}, {"time": 262562, "pitch": 88, "duration": 471, "velocity": 80}, {"time": 263043, "pitch": 80, "duration": 463, "velocity": 110}, {"time": 263043, "pitch": 92, "duration": 463, "velocity": 80}, {"time": 263515, "pitch": 78, "duration": 2399, "velocity": 110}, {"time": 263515, "pitch": 90, "duration": 2399, "velocity": 80}, {"time": 265924, "pitch": 75, "duration": 462, "velocity": 110}, {"time": 265924, "pitch": 87, "duration": 462, "velocity": 80}, {"time": 266396, "pitch": 76, "duration": 472, "velocity": 110}, {"time": 266396, "pitch": 88, "duration": 472, "velocity": 80}, {"time": 266878, "pitch": 78, "duration": 472, "velocity": 110}, {"time": 266878, "pitch": 90, "duration": 472, "velocity": 80}, {"time": 267360, "pitch": 80, "duration": 2389, "velocity": 110}, {"time": 267360, "pitch": 92, "duration": 2389, "velocity": 80}, {"time": 269759, "pitch": 76, "duration": 471, "velocity": 110}, {"time": 269759, "pitch": 88, "duration": 471, "velocity": 80}, {"time": 270240, "pitch": 78, "duration": 472, "velocity": 110}, {"time": 270240, "pitch": 90, "duration": 472, "velocity": 80}, {"time": 270722, "pitch": 80, "duration": 472, "velocity": 110}, {"time": 270722, "pitch": 92, "duration": 472, "velocity": 80}, {"time": 271204, "pitch": 83, "duration": 1185, "velocity": 110}, {"time": 271204, "pitch": 95, "duration": 1185, "velocity": 80}, {"time": 272399, "pitch": 81, "duration": 230, "velocity": 110}, {"time": 272399, "pitch": 93, "duration": 230, "velocity": 80}, {"time": 272640, "pitch": 80, "duration": 230, "velocity": 110}, {"time": 272640, "pitch": 92, "duration": 230, "velocity": 80}, {"time": 272880, "pitch": 78, "duration": 231, "velocity": 110}, {"time": 272880, "pitch": 90, "duration": 231, "velocity": 80}, {"time": 273121, "pitch": 76, "duration": 713, "velocity": 110}, {"time": 273121, "pitch": 88, "duration": 713, "velocity": 80}, {"time": 273844, "pitch": 75, "duration": 1185, "velocity": 110}, {"time": 273844, "pitch": 87, "duration": 1185, "velocity": 80}, {"time": 275039, "pitch": 73, "duration": 7668, "velocity": 100}, {"time": 275039, "pitch": 85, "duration": 7668, "velocity": 70}, {"time": 4322, "pitch": 35, "duration": 20, "velocity": 100}, {"time": 4322, "pitch": 42, "duration": 40, "velocity": 84}, {"time": 4322, "pitch": 49, "duration": 30, "velocity": 80}, {"time": 4322, "pitch": 54, "duration": 10, "velocity": 60}, {"time": 4442, "pitch": 54, "duration": 10, "velocity": 40}, {"time": 4562, "pitch": 42, "duration": 31, "velocity": 64}, {"time": 4562, "pitch": 54, "duration": 21, "velocity": 90}, {"time": 4562, "pitch": 69, "duration": 11, "velocity": 90}, {"time": 4683, "pitch": 54, "duration": 20, "velocity": 40}, {"time": 4683, "pitch": 69, "duration": 10, "velocity": 90}, {"time": 4803, "pitch": 38, "duration": 30, "velocity": 110}, {"time": 4803, "pitch": 42, "duration": 20, "velocity": 84}, {"time": 4803, "pitch": 54, "duration": 10, "velocity": 60}, {"time": 4921, "pitch": 54, "duration": 10, "velocity": 40}, {"time": 5039, "pitch": 35, "duration": 20, "velocity": 100}, {"time": 5039, "pitch": 42, "duration": 30, "velocity": 64}, {"time": 5039, "pitch": 54, "duration": 10, "velocity": 90}, {"time": 5157, "pitch": 54, "duration": 10, "velocity": 40}, {"time": 5275, "pitch": 42, "duration": 20, "velocity": 84}, {"time": 5275, "pitch": 54, "duration": 10, "velocity": 60}, {"time": 5396, "pitch": 35, "duration": 20, "velocity": 85}, {"time": 5396, "pitch": 54, "duration": 10, "velocity": 40}, {"time": 5516, "pitch": 35, "duration": 20, "velocity": 100}, {"time": 5516, "pitch": 42, "duration": 30, "velocity": 64}, {"time": 5516, "pitch": 54, "duration": 10, "velocity": 90}, {"time": 5637, "pitch": 54, "duration": 10, "velocity": 40}, {"time": 5757, "pitch": 38, "duration": 30, "velocity": 110}, {"time": 5757, "pitch": 42, "duration": 20, "velocity": 84}, {"time": 5757, "pitch": 54, "duration": 10, "velocity": 60}, {"time": 5878, "pitch": 54, "duration": 10, "velocity": 40}, {"time": 5998, "pitch": 35, "duration": 20, "velocity": 85}, {"time": 5998, "pitch": 42, "duration": 30, "velocity": 64}, {"time": 5998, "pitch": 54, "duration": 10, "velocity": 90}, {"time": 6118, "pitch": 54, "duration": 10, "velocity": 40}, {"time": 6239, "pitch": 35, "duration": 20, "velocity": 100}, {"time": 6239, "pitch": 42, "duration": 30, "velocity": 84}, {"time": 6239, "pitch": 54, "duration": 10, "velocity": 60}, {"time": 6359, "pitch": 54, "duration": 10, "velocity": 40}, {"time": 6480, "pitch": 42, "duration": 30, "velocity": 64}, {"time": 6480, "pitch": 54, "duration": 20, "velocity": 90}, {"time": 6480, "pitch": 69, "duration": 10, "velocity": 90}, {"time": 6600, "pitch": 54, "duration": 20, "velocity": 40}, {"time": 6600, "pitch": 69, "duration": 10, "velocity": 90}, {"time": 6721, "pitch": 38, "duration": 30, "velocity": 110}, {"time": 6721, "pitch": 42, "duration": 20, "velocity": 84}, {"time": 6721, "pitch": 54, "duration": 10, "velocity": 60}, {"time": 6841, "pitch": 54, "duration": 10, "velocity": 40}, {"time": 6962, "pitch": 35, "duration": 20, "velocity": 100}, {"time": 6962, "pitch": 42, "duration": 30, "velocity": 64}, {"time": 6962, "pitch": 54, "duration": 10, "velocity": 90}, {"time": 7082, "pitch": 54, "duration": 10, "velocity": 40}, {"time": 7202, "pitch": 42, "duration": 20, "velocity": 84}, {"time": 7202, "pitch": 54, "duration": 10, "velocity": 60}, {"time": 7323, "pitch": 54, "duration": 10, "velocity": 40}, {"time": 7443, "pitch": 35, "duration": 20, "velocity": 85}, {"time": 7443, "pitch": 46, "duration": 30, "velocity": 95}, {"time": 7443, "pitch": 54, "duration": 10, "velocity": 90}, {"time": 7564, "pitch": 54, "duration": 10, "velocity": 40}, {"time": 7684, "pitch": 38, "duration": 30, "velocity": 110}, {"time": 7684, "pitch": 42, "duration": 20, "velocity": 84}, {"time": 7684, "pitch": 54, "duration": 10, "velocity": 60}, {"time": 7802, "pitch": 35, "duration": 20, "velocity": 85}, {"time": 7802, "pitch": 54, "duration": 10, "velocity": 40}, {"time": 7920, "pitch": 42, "duration": 20, "velocity": 64}, {"time": 7920, "pitch": 54, "duration": 10, "velocity": 90}, {"time": 8038, "pitch": 54, "duration": 10, "velocity": 40}, {"time": 8156, "pitch": 35, "duration": 20, "velocity": 100}, {"time": 8156, "pitch": 42, "duration": 30, "velocity": 84}, {"time": 8156, "pitch": 54, "duration": 10, "velocity": 60}, {"time": 8277, "pitch": 54, "duration": 10, "velocity": 40}, {"time": 8397, "pitch": 42, "duration": 30, "velocity": 64}, {"time": 8397, "pitch": 54, "duration": 20, "velocity": 90}, {"time": 8397, "pitch": 69, "duration": 10, "velocity": 90}, {"time": 8517, "pitch": 54, "duration": 21, "velocity": 40}, {"time": 8517, "pitch": 69, "duration": 11, "velocity": 90}, {"time": 8638, "pitch": 38, "duration": 30, "velocity": 110}, {"time": 8638, "pitch": 42, "duration": 20, "velocity": 84}, {"time": 8638, "pitch": 54, "duration": 10, "velocity": 60}, {"time": 8758, "pitch": 54, "duration": 10, "velocity": 40}, {"time": 8879, "pitch": 35, "duration": 20, "velocity": 100}, {"time": 8879, "pitch": 42, "duration": 30, "velocity": 64}, {"time": 8879, "pitch": 54, "duration": 10, "velocity": 90}, {"time": 8999, "pitch": 54, "duration": 10, "velocity": 40}, {"time": 9120, "pitch": 42, "duration": 20, "velocity": 84}, {"time": 9120, "pitch": 54, "duration": 10, "velocity": 60}, {"time": 9240, "pitch": 35, "duration": 20, "velocity": 85}, {"time": 9240, "pitch": 54, "duration": 10, "velocity": 40}, {"time": 9361, "pitch": 35, "duration": 20, "velocity": 100}, {"time": 9361, "pitch": 42, "duration": 30, "velocity": 64}, {"time": 9361, "pitch": 54, "duration": 10, "velocity": 90}, {"time": 9481, "pitch": 54, "duration": 10, "velocity": 40}, {"time": 9601, "pitch": 38, "duration": 31, "velocity": 110}, {"time": 9601, "pitch": 42, "duration": 21, "velocity": 84}, {"time": 9601, "pitch": 54, "duration": 10, "velocity": 60}, {"time": 9722, "pitch": 54, "duration": 10, "velocity": 40}, {"time": 9842, "pitch": 35, "duration": 20, "velocity": 85}, {"time": 9842, "pitch": 42, "duration": 30, "velocity": 64}, {"time": 9842, "pitch": 54, "duration": 10, "velocity": 90}, {"time": 9963, "pitch": 54, "duration": 10, "velocity": 40}, {"time": 10083, "pitch": 35, "duration": 20, "velocity": 100}, {"time": 10083, "pitch": 42, "duration": 30, "velocity": 84}, {"time": 10083, "pitch": 54, "duration": 10, "velocity": 60}, {"time": 10201, "pitch": 54, "duration": 10, "velocity": 40}, {"time": 10319, "pitch": 42, "duration": 30, "velocity": 64}, {"time": 10319, "pitch": 54, "duration": 20, "velocity": 90}, {"time": 10319, "pitch": 69, "duration": 10, "velocity": 90}, {"time": 10437, "pitch": 54, "duration": 20, "velocity": 40}, {"time": 10437, "pitch": 69, "duration": 10, "velocity": 90}, {"time": 10555, "pitch": 38, "duration": 30, "velocity": 110}, {"time": 10555, "pitch": 42, "duration": 20, "velocity": 84}, {"time": 10555, "pitch": 54, "duration": 10, "velocity": 60}, {"time": 10676, "pitch": 54, "duration": 10, "velocity": 40}, {"time": 10796, "pitch": 35, "duration": 20, "velocity": 100}, {"time": 10796, "pitch": 42, "duration": 30, "velocity": 64}, {"time": 10796, "pitch": 54, "duration": 10, "velocity": 90}, {"time": 10916, "pitch": 54, "duration": 11, "velocity": 40}, {"time": 11037, "pitch": 42, "duration": 20, "velocity": 84}, {"time": 11037, "pitch": 54, "duration": 10, "velocity": 60}, {"time": 11157, "pitch": 54, "duration": 10, "velocity": 40}, {"time": 11278, "pitch": 35, "duration": 20, "velocity": 85}, {"time": 11278, "pitch": 46, "duration": 30, "velocity": 95}, {"time": 11278, "pitch": 54, "duration": 10, "velocity": 90}, {"time": 11398, "pitch": 54, "duration": 10, "velocity": 40}, {"time": 11519, "pitch": 38, "duration": 30, "velocity": 110}, {"time": 11519, "pitch": 42, "duration": 20, "velocity": 84}, {"time": 11519, "pitch": 54, "duration": 10, "velocity": 60}, {"time": 11639, "pitch": 35, "duration": 20, "velocity": 85}, {"time": 11639, "pitch": 54, "duration": 10, "velocity": 40}, {"time": 11760, "pitch": 42, "duration": 20, "velocity": 64}, {"time": 11760, "pitch": 54, "duration": 10, "velocity": 90}, {"time": 11880, "pitch": 54, "duration": 10, "velocity": 40}, {"time": 12000, "pitch": 35, "duration": 21, "velocity": 100}, {"time": 12000, "pitch": 42, "duration": 41, "velocity": 84}, {"time": 12000, "pitch": 54, "duration": 11, "velocity": 60}, {"time": 12000, "pitch": 57, "duration": 31, "velocity": 90}, {"time": 12121, "pitch": 54, "duration": 10, "velocity": 40}, {"time": 12241, "pitch": 42, "duration": 30, "velocity": 64}, {"time": 12241, "pitch": 54, "duration": 20, "velocity": 90}, {"time": 12241, "pitch": 69, "duration": 10, "velocity": 90}, {"time": 12362, "pitch": 54, "duration": 20, "velocity": 40}, {"time": 12362, "pitch": 69, "duration": 10, "velocity": 90}, {"time": 12482, "pitch": 38, "duration": 30, "velocity": 110}, {"time": 12482, "pitch": 42, "duration": 20, "velocity": 84}, {"time": 12482, "pitch": 54, "duration": 10, "velocity": 60}, {"time": 12603, "pitch": 54, "duration": 10, "velocity": 40}, {"time": 12723, "pitch": 35, "duration": 20, "velocity": 100}, {"time": 12723, "pitch": 42, "duration": 30, "velocity": 64}, {"time": 12723, "pitch": 54, "duration": 10, "velocity": 90}, {"time": 12844, "pitch": 54, "duration": 10, "velocity": 40}, {"time": 12964, "pitch": 42, "duration": 20, "velocity": 84}, {"time": 12964, "pitch": 54, "duration": 10, "velocity": 60}, {"time": 13082, "pitch": 35, "duration": 20, "velocity": 85}, {"time": 13082, "pitch": 54, "duration": 10, "velocity": 40}, {"time": 13200, "pitch": 35, "duration": 20, "velocity": 100}, {"time": 13200, "pitch": 42, "duration": 29, "velocity": 64}, {"time": 13200, "pitch": 54, "duration": 10, "velocity": 90}, {"time": 13318, "pitch": 54, "duration": 10, "velocity": 40}, {"time": 13436, "pitch": 38, "duration": 30, "velocity": 110}, {"time": 13436, "pitch": 42, "duration": 20, "velocity": 84}, {"time": 13436, "pitch": 54, "duration": 10, "velocity": 60}, {"time": 13556, "pitch": 54, "duration": 10, "velocity": 40}, {"time": 13677, "pitch": 35, "duration": 20, "velocity": 85}, {"time": 13677, "pitch": 42, "duration": 30, "velocity": 64}, {"time": 13677, "pitch": 54, "duration": 10, "velocity": 90}, {"time": 13797, "pitch": 54, "duration": 10, "velocity": 40}, {"time": 13918, "pitch": 35, "duration": 20, "velocity": 100}, {"time": 13918, "pitch": 42, "duration": 30, "velocity": 84}, {"time": 13918, "pitch": 54, "duration": 10, "velocity": 60}, {"time": 14038, "pitch": 54, "duration": 10, "velocity": 40}, {"time": 14159, "pitch": 42, "duration": 30, "velocity": 64}, {"time": 14159, "pitch": 54, "duration": 20, "velocity": 90}, {"time": 14159, "pitch": 69, "duration": 10, "velocity": 90}, {"time": 14279, "pitch": 54, "duration": 20, "velocity": 40}, {"time": 14279, "pitch": 69, "duration": 10, "velocity": 90}, {"time": 14400, "pitch": 38, "duration": 30, "velocity": 110}, {"time": 14400, "pitch": 42, "duration": 20, "velocity": 84}, {"time": 14400, "pitch": 54, "duration": 10, "velocity": 60}, {"time": 14520, "pitch": 54, "duration": 10, "velocity": 40}, {"time": 14640, "pitch": 35, "duration": 20, "velocity": 100}, {"time": 14640, "pitch": 42, "duration": 31, "velocity": 64}, {"time": 14640, "pitch": 54, "duration": 10, "velocity": 90}, {"time": 14761, "pitch": 54, "duration": 10, "velocity": 40}, {"time": 14881, "pitch": 42, "duration": 20, "velocity": 84}, {"time": 14881, "pitch": 54, "duration": 10, "velocity": 60}, {"time": 15002, "pitch": 54, "duration": 10, "velocity": 40}, {"time": 15122, "pitch": 35, "duration": 20, "velocity": 85}, {"time": 15122, "pitch": 46, "duration": 30, "velocity": 95}, {"time": 15122, "pitch": 54, "duration": 10, "velocity": 90}, {"time": 15243, "pitch": 54, "duration": 10, "velocity": 40}, {"time": 15363, "pitch": 38, "duration": 30, "velocity": 110}, {"time": 15363, "pitch": 42, "duration": 20, "velocity": 84}, {"time": 15363, "pitch": 54, "duration": 10, "velocity": 60}, {"time": 15483, "pitch": 35, "duration": 21, "velocity": 85}, {"time": 15483, "pitch": 54, "duration": 11, "velocity": 40}, {"time": 15604, "pitch": 42, "duration": 20, "velocity": 64}, {"time": 15604, "pitch": 54, "duration": 10, "velocity": 90}, {"time": 15724, "pitch": 54, "duration": 10, "velocity": 40}, {"time": 15845, "pitch": 35, "duration": 19, "velocity": 100}, {"time": 15845, "pitch": 42, "duration": 29, "velocity": 84}, {"time": 15845, "pitch": 54, "duration": 10, "velocity": 60}, {"time": 15963, "pitch": 54, "duration": 10, "velocity": 40}, {"time": 16081, "pitch": 42, "duration": 29, "velocity": 64}, {"time": 16081, "pitch": 54, "duration": 19, "velocity": 90}, {"time": 16081, "pitch": 69, "duration": 10, "velocity": 90}, {"time": 16199, "pitch": 54, "duration": 19, "velocity": 40}, {"time": 16199, "pitch": 69, "duration": 10, "velocity": 90}, {"time": 16317, "pitch": 38, "duration": 30, "velocity": 110}, {"time": 16317, "pitch": 42, "duration": 20, "velocity": 84}, {"time": 16317, "pitch": 54, "duration": 10, "velocity": 60}, {"time": 16437, "pitch": 54, "duration": 10, "velocity": 40}, {"time": 16558, "pitch": 35, "duration": 20, "velocity": 100}, {"time": 16558, "pitch": 42, "duration": 30, "velocity": 64}, {"time": 16558, "pitch": 54, "duration": 10, "velocity": 90}, {"time": 16678, "pitch": 54, "duration": 10, "velocity": 40}, {"time": 16799, "pitch": 42, "duration": 20, "velocity": 84}, {"time": 16799, "pitch": 54, "duration": 10, "velocity": 60}, {"time": 16919, "pitch": 35, "duration": 20, "velocity": 85}, {"time": 16919, "pitch": 54, "duration": 10, "velocity": 40}, {"time": 17039, "pitch": 35, "duration": 21, "velocity": 100}, {"time": 17039, "pitch": 42, "duration": 31, "velocity": 64}, {"time": 17039, "pitch": 54, "duration": 10, "velocity": 90}, {"time": 17160, "pitch": 48, "duration": 20, "velocity": 90}, {"time": 17160, "pitch": 54, "duration": 10, "velocity": 40}, {"time": 17280, "pitch": 38, "duration": 30, "velocity": 110}, {"time": 17280, "pitch": 42, "duration": 20, "velocity": 84}, {"time": 17280, "pitch": 54, "duration": 10, "velocity": 60}, {"time": 17401, "pitch": 45, "duration": 20, "velocity": 90}, {"time": 17401, "pitch": 54, "duration": 10, "velocity": 40}, {"time": 17521, "pitch": 35, "duration": 30, "velocity": 85}, {"time": 17521, "pitch": 42, "duration": 40, "velocity": 64}, {"time": 17521, "pitch": 45, "duration": 20, "velocity": 90}, {"time": 17521, "pitch": 54, "duration": 10, "velocity": 90}, {"time": 17642, "pitch": 41, "duration": 20, "velocity": 90}, {"time": 17642, "pitch": 54, "duration": 10, "velocity": 40}, {"time": 17762, "pitch": 35, "duration": 20, "velocity": 100}, {"time": 17762, "pitch": 42, "duration": 40, "velocity": 84}, {"time": 17762, "pitch": 49, "duration": 30, "velocity": 80}, {"time": 17762, "pitch": 54, "duration": 10, "velocity": 60}, {"time": 17883, "pitch": 54, "duration": 10, "velocity": 40}, {"time": 18003, "pitch": 42, "duration": 30, "velocity": 64}, {"time": 18003, "pitch": 54, "duration": 20, "velocity": 90}, {"time": 18003, "pitch": 69, "duration": 10, "velocity": 90}, {"time": 18123, "pitch": 54, "duration": 20, "velocity": 40}, {"time": 18123, "pitch": 69, "duration": 10, "velocity": 90}, {"time": 18244, "pitch": 38, "duration": 29, "velocity": 110}, {"time": 18244, "pitch": 42, "duration": 19, "velocity": 84}, {"time": 18244, "pitch": 54, "duration": 10, "velocity": 60}, {"time": 18362, "pitch": 54, "duration": 10, "velocity": 40}, {"time": 18480, "pitch": 35, "duration": 20, "velocity": 100}, {"time": 18480, "pitch": 42, "duration": 39, "velocity": 64}, {"time": 18480, "pitch": 54, "duration": 10, "velocity": 90}, {"time": 18480, "pitch": 57, "duration": 29, "velocity": 90}, {"time": 18957, "pitch": 44, "duration": 10, "velocity": 70}, {"time": 19198, "pitch": 42, "duration": 10, "velocity": 104}, {"time": 19318, "pitch": 42, "duration": 10, "velocity": 84}, {"time": 19438, "pitch": 46, "duration": 10, "velocity": 115}, {"time": 19679, "pitch": 35, "duration": 10, "velocity": 100}, {"time": 19679, "pitch": 42, "duration": 30, "velocity": 84}, {"time": 19679, "pitch": 49, "duration": 20, "velocity": 80}, {"time": 19920, "pitch": 42, "duration": 20, "velocity": 64}, {"time": 19920, "pitch": 69, "duration": 10, "velocity": 90}, {"time": 20041, "pitch": 69, "duration": 10, "velocity": 90}, {"time": 20161, "pitch": 38, "duration": 20, "velocity": 110}, {"time": 20161, "pitch": 42, "duration": 10, "velocity": 84}, {"time": 20402, "pitch": 35, "duration": 10, "velocity": 100}, {"time": 20402, "pitch": 42, "duration": 20, "velocity": 64}, {"time": 20643, "pitch": 42, "duration": 10, "velocity": 84}, {"time": 20763, "pitch": 35, "duration": 10, "velocity": 85}, {"time": 20884, "pitch": 35, "duration": 10, "velocity": 100}, {"time": 20884, "pitch": 42, "duration": 20, "velocity": 64}, {"time": 21125, "pitch": 38, "duration": 19, "velocity": 110}, {"time": 21125, "pitch": 42, "duration": 9, "velocity": 84}, {"time": 21361, "pitch": 35, "duration": 9, "velocity": 85}, {"time": 21361, "pitch": 42, "duration": 19, "velocity": 64}, {"time": 21597, "pitch": 35, "duration": 10, "velocity": 100}, {"time": 21597, "pitch": 42, "duration": 20, "velocity": 84}, {"time": 21837, "pitch": 42, "duration": 21, "velocity": 64}, {"time": 21837, "pitch": 69, "duration": 11, "velocity": 90}, {"time": 21958, "pitch": 69, "duration": 10, "velocity": 90}, {"time": 22078, "pitch": 38, "duration": 20, "velocity": 110}, {"time": 22078, "pitch": 42, "duration": 10, "velocity": 84}, {"time": 22319, "pitch": 35, "duration": 10, "velocity": 100}, {"time": 22319, "pitch": 42, "duration": 20, "velocity": 64}, {"time": 22560, "pitch": 42, "duration": 10, "velocity": 84}, {"time": 22801, "pitch": 35, "duration": 10, "velocity": 85}, {"time": 22801, "pitch": 46, "duration": 20, "velocity": 95}, {"time": 23042, "pitch": 38, "duration": 20, "velocity": 110}, {"time": 23042, "pitch": 42, "duration": 10, "velocity": 84}, {"time": 23162, "pitch": 35, "duration": 10, "velocity": 85}, {"time": 23283, "pitch": 42, "duration": 10, "velocity": 64}, {"time": 23524, "pitch": 35, "duration": 9, "velocity": 100}, {"time": 23524, "pitch": 42, "duration": 19, "velocity": 84}, {"time": 23760, "pitch": 42, "duration": 19, "velocity": 64}, {"time": 23760, "pitch": 69, "duration": 10, "velocity": 90}, {"time": 23878, "pitch": 69, "duration": 10, "velocity": 90}, {"time": 23996, "pitch": 38, "duration": 20, "velocity": 110}, {"time": 23996, "pitch": 42, "duration": 10, "velocity": 84}, {"time": 24237, "pitch": 35, "duration": 10, "velocity": 100}, {"time": 24237, "pitch": 42, "duration": 20, "velocity": 64}, {"time": 24477, "pitch": 42, "duration": 10, "velocity": 84}, {"time": 24598, "pitch": 35, "duration": 10, "velocity": 85}, {"time": 24718, "pitch": 35, "duration": 10, "velocity": 100}, {"time": 24718, "pitch": 42, "duration": 20, "velocity": 64}, {"time": 24959, "pitch": 38, "duration": 20, "velocity": 110}, {"time": 24959, "pitch": 42, "duration": 10, "velocity": 84}, {"time": 25200, "pitch": 35, "duration": 10, "velocity": 85}, {"time": 25200, "pitch": 42, "duration": 20, "velocity": 64}, {"time": 25441, "pitch": 35, "duration": 10, "velocity": 100}, {"time": 25441, "pitch": 42, "duration": 20, "velocity": 84}, {"time": 25682, "pitch": 42, "duration": 20, "velocity": 64}, {"time": 25682, "pitch": 69, "duration": 10, "velocity": 90}, {"time": 25802, "pitch": 69, "duration": 10, "velocity": 90}, {"time": 25923, "pitch": 38, "duration": 20, "velocity": 110}, {"time": 25923, "pitch": 42, "duration": 10, "velocity": 84}, {"time": 26164, "pitch": 35, "duration": 10, "velocity": 100}, {"time": 26164, "pitch": 42, "duration": 20, "velocity": 64}, {"time": 26404, "pitch": 42, "duration": 10, "velocity": 84}, {"time": 26640, "pitch": 35, "duration": 10, "velocity": 85}, {"time": 26640, "pitch": 46, "duration": 20, "velocity": 95}, {"time": 26877, "pitch": 38, "duration": 20, "velocity": 110}, {"time": 26877, "pitch": 42, "duration": 9, "velocity": 84}, {"time": 26997, "pitch": 35, "duration": 10, "velocity": 85}, {"time": 27117, "pitch": 42, "duration": 10, "velocity": 64}, {"time": 27358, "pitch": 35, "duration": 10, "velocity": 100}, {"time": 27358, "pitch": 42, "duration": 20, "velocity": 84}, {"time": 27599, "pitch": 42, "duration": 20, "velocity": 64}, {"time": 27599, "pitch": 69, "duration": 10, "velocity": 90}, {"time": 27720, "pitch": 69, "duration": 10, "velocity": 90}, {"time": 27840, "pitch": 38, "duration": 20, "velocity": 110}, {"time": 27840, "pitch": 42, "duration": 10, "velocity": 84}, {"time": 28081, "pitch": 35, "duration": 10, "velocity": 100}, {"time": 28081, "pitch": 42, "duration": 20, "velocity": 64}, {"time": 28322, "pitch": 42, "duration": 10, "velocity": 84}, {"time": 28442, "pitch": 35, "duration": 10, "velocity": 85}, {"time": 28563, "pitch": 35, "duration": 10, "velocity": 100}, {"time": 28563, "pitch": 42, "duration": 20, "velocity": 64}, {"time": 28803, "pitch": 38, "duration": 20, "velocity": 110}, {"time": 28803, "pitch": 42, "duration": 10, "velocity": 84}, {"time": 29040, "pitch": 35, "duration": 9, "velocity": 85}, {"time": 29040, "pitch": 42, "duration": 19, "velocity": 64}, {"time": 29276, "pitch": 35, "duration": 10, "velocity": 100}, {"time": 29276, "pitch": 42, "duration": 20, "velocity": 84}, {"time": 29516, "pitch": 42, "duration": 20, "velocity": 64}, {"time": 29516, "pitch": 69, "duration": 10, "velocity": 90}, {"time": 29637, "pitch": 69, "duration": 10, "velocity": 90}, {"time": 29757, "pitch": 38, "duration": 20, "velocity": 110}, {"time": 29757, "pitch": 42, "duration": 10, "velocity": 84}, {"time": 29998, "pitch": 35, "duration": 10, "velocity": 100}, {"time": 29998, "pitch": 42, "duration": 20, "velocity": 64}, {"time": 30239, "pitch": 42, "duration": 10, "velocity": 84}, {"time": 30480, "pitch": 35, "duration": 10, "velocity": 85}, {"time": 30480, "pitch": 46, "duration": 20, "velocity": 95}, {"time": 30721, "pitch": 38, "duration": 20, "velocity": 110}, {"time": 30721, "pitch": 42, "duration": 10, "velocity": 84}, {"time": 30841, "pitch": 35, "duration": 10, "velocity": 85}, {"time": 30962, "pitch": 42, "duration": 10, "velocity": 64}, {"time": 31203, "pitch": 35, "duration": 10, "velocity": 100}, {"time": 31203, "pitch": 42, "duration": 20, "velocity": 84}, {"time": 31443, "pitch": 42, "duration": 21, "velocity": 64}, {"time": 31443, "pitch": 69, "duration": 10, "velocity": 90}, {"time": 31564, "pitch": 69, "duration": 10, "velocity": 90}, {"time": 31684, "pitch": 38, "duration": 20, "velocity": 110}, {"time": 31684, "pitch": 42, "duration": 10, "velocity": 84}, {"time": 31920, "pitch": 35, "duration": 10, "velocity": 100}, {"time": 31920, "pitch": 42, "duration": 20, "velocity": 64}, {"time": 32156, "pitch": 42, "duration": 10, "velocity": 84}, {"time": 32277, "pitch": 35, "duration": 10, "velocity": 85}, {"time": 32397, "pitch": 35, "duration": 10, "velocity": 100}, {"time": 32397, "pitch": 42, "duration": 20, "velocity": 64}, {"time": 32638, "pitch": 38, "duration": 20, "velocity": 110}, {"time": 32638, "pitch": 42, "duration": 10, "velocity": 84}, {"time": 32879, "pitch": 35, "duration": 10, "velocity": 85}, {"time": 32879, "pitch": 42, "duration": 20, "velocity": 64}, {"time": 33120, "pitch": 35, "duration": 10, "velocity": 100}, {"time": 33120, "pitch": 42, "duration": 20, "velocity": 84}, {"time": 33361, "pitch": 42, "duration": 20, "velocity": 64}, {"time": 33361, "pitch": 69, "duration": 10, "velocity": 90}, {"time": 33481, "pitch": 69, "duration": 10, "velocity": 90}, {"time": 33602, "pitch": 38, "duration": 20, "velocity": 110}, {"time": 33602, "pitch": 42, "duration": 10, "velocity": 84}, {"time": 33842, "pitch": 35, "duration": 11, "velocity": 100}, {"time": 33842, "pitch": 42, "duration": 21, "velocity": 64}, {"time": 34083, "pitch": 42, "duration": 10, "velocity": 84}, {"time": 34319, "pitch": 35, "duration": 10, "velocity": 85}, {"time": 34319, "pitch": 46, "duration": 20, "velocity": 95}, {"time": 34555, "pitch": 38, "duration": 20, "velocity": 110}, {"time": 34555, "pitch": 42, "duration": 10, "velocity": 84}, {"time": 34676, "pitch": 35, "duration": 10, "velocity": 85}, {"time": 34796, "pitch": 38, "duration": 20, "velocity": 110}, {"time": 34796, "pitch": 42, "duration": 10, "velocity": 64}, {"time": 34917, "pitch": 38, "duration": 10, "velocity": 110}, {"time": 35037, "pitch": 35, "duration": 10, "velocity": 100}, {"time": 35037, "pitch": 42, "duration": 30, "velocity": 84}, {"time": 35037, "pitch": 57, "duration": 20, "velocity": 90}, {"time": 35278, "pitch": 42, "duration": 20, "velocity": 64}, {"time": 35278, "pitch": 69, "duration": 10, "velocity": 90}, {"time": 35398, "pitch": 69, "duration": 10, "velocity": 90}, {"time": 35519, "pitch": 38, "duration": 20, "velocity": 110}, {"time": 35519, "pitch": 42, "duration": 10, "velocity": 84}, {"time": 35760, "pitch": 35, "duration": 10, "velocity": 100}, {"time": 35760, "pitch": 42, "duration": 20, "velocity": 64}, {"time": 36001, "pitch": 42, "duration": 10, "velocity": 84}, {"time": 36121, "pitch": 35, "duration": 10, "velocity": 85}, {"time": 36242, "pitch": 35, "duration": 10, "velocity": 100}, {"time": 36242, "pitch": 42, "duration": 20, "velocity": 64}, {"time": 36482, "pitch": 38, "duration": 20, "velocity": 110}, {"time": 36482, "pitch": 42, "duration": 10, "velocity": 84}, {"time": 36723, "pitch": 35, "duration": 10, "velocity": 85}, {"time": 36723, "pitch": 42, "duration": 20, "velocity": 64}, {"time": 36964, "pitch": 35, "duration": 10, "velocity": 100}, {"time": 36964, "pitch": 42, "duration": 20, "velocity": 84}, {"time": 37200, "pitch": 42, "duration": 20, "velocity": 64}, {"time": 37200, "pitch": 69, "duration": 10, "velocity": 90}, {"time": 37318, "pitch": 69, "duration": 10, "velocity": 90}, {"time": 37436, "pitch": 38, "duration": 20, "velocity": 110}, {"time": 37436, "pitch": 42, "duration": 10, "velocity": 84}, {"time": 37677, "pitch": 35, "duration": 10, "velocity": 100}, {"time": 37677, "pitch": 42, "duration": 20, "velocity": 64}, {"time": 37918, "pitch": 42, "duration": 10, "velocity": 84}, {"time": 38159, "pitch": 35, "duration": 10, "velocity": 85}, {"time": 38159, "pitch": 46, "duration": 20, "velocity": 95}, {"time": 38400, "pitch": 38, "duration": 20, "velocity": 110}, {"time": 38400, "pitch": 42, "duration": 10, "velocity": 84}, {"time": 38520, "pitch": 35, "duration": 10, "velocity": 85}, {"time": 38641, "pitch": 42, "duration": 10, "velocity": 64}, {"time": 38881, "pitch": 35, "duration": 10, "velocity": 100}, {"time": 38881, "pitch": 42, "duration": 20, "velocity": 84}, {"time": 39122, "pitch": 42, "duration": 20, "velocity": 64}, {"time": 39122, "pitch": 69, "duration": 10, "velocity": 90}, {"time": 39243, "pitch": 69, "duration": 10, "velocity": 90}, {"time": 39363, "pitch": 38, "duration": 20, "velocity": 110}, {"time": 39363, "pitch": 42, "duration": 10, "velocity": 84}, {"time": 39599, "pitch": 35, "duration": 10, "velocity": 100}, {"time": 39599, "pitch": 42, "duration": 20, "velocity": 64}, {"time": 39835, "pitch": 42, "duration": 10, "velocity": 84}, {"time": 39956, "pitch": 35, "duration": 10, "velocity": 85}, {"time": 40076, "pitch": 35, "duration": 10, "velocity": 100}, {"time": 40076, "pitch": 42, "duration": 20, "velocity": 64}, {"time": 40317, "pitch": 38, "duration": 20, "velocity": 110}, {"time": 40317, "pitch": 42, "duration": 10, "velocity": 84}, {"time": 40558, "pitch": 35, "duration": 10, "velocity": 85}, {"time": 40558, "pitch": 42, "duration": 20, "velocity": 64}, {"time": 40799, "pitch": 35, "duration": 10, "velocity": 100}, {"time": 40799, "pitch": 42, "duration": 20, "velocity": 84}, {"time": 41040, "pitch": 42, "duration": 20, "velocity": 64}, {"time": 41040, "pitch": 69, "duration": 10, "velocity": 90}, {"time": 41160, "pitch": 69, "duration": 10, "velocity": 90}, {"time": 41280, "pitch": 38, "duration": 21, "velocity": 110}, {"time": 41280, "pitch": 42, "duration": 10, "velocity": 84}, {"time": 41521, "pitch": 35, "duration": 10, "velocity": 100}, {"time": 41521, "pitch": 42, "duration": 20, "velocity": 64}, {"time": 41762, "pitch": 42, "duration": 10, "velocity": 84}, {"time": 42003, "pitch": 35, "duration": 10, "velocity": 85}, {"time": 42003, "pitch": 46, "duration": 20, "velocity": 95}, {"time": 42244, "pitch": 38, "duration": 20, "velocity": 110}, {"time": 42244, "pitch": 42, "duration": 10, "velocity": 84}, {"time": 42362, "pitch": 35, "duration": 10, "velocity": 85}, {"time": 42480, "pitch": 42, "duration": 10, "velocity": 64}, {"time": 42716, "pitch": 35, "duration": 10, "velocity": 100}, {"time": 42716, "pitch": 42, "duration": 20, "velocity": 84}, {"time": 42957, "pitch": 42, "duration": 20, "velocity": 64}, {"time": 42957, "pitch": 69, "duration": 10, "velocity": 90}, {"time": 43077, "pitch": 69, "duration": 10, "velocity": 90}, {"time": 43198, "pitch": 38, "duration": 20, "velocity": 110}, {"time": 43198, "pitch": 42, "duration": 10, "velocity": 84}, {"time": 43439, "pitch": 35, "duration": 10, "velocity": 100}, {"time": 43439, "pitch": 42, "duration": 20, "velocity": 64}, {"time": 43679, "pitch": 42, "duration": 11, "velocity": 84}, {"time": 43800, "pitch": 35, "duration": 10, "velocity": 85}, {"time": 43920, "pitch": 35, "duration": 10, "velocity": 100}, {"time": 43920, "pitch": 42, "duration": 20, "velocity": 64}, {"time": 44161, "pitch": 38, "duration": 20, "velocity": 110}, {"time": 44161, "pitch": 42, "duration": 10, "velocity": 84}, {"time": 44402, "pitch": 35, "duration": 10, "velocity": 85}, {"time": 44402, "pitch": 42, "duration": 20, "velocity": 64}, {"time": 44643, "pitch": 35, "duration": 10, "velocity": 100}, {"time": 44643, "pitch": 42, "duration": 20, "velocity": 84}, {"time": 44884, "pitch": 42, "duration": 20, "velocity": 64}, {"time": 44884, "pitch": 69, "duration": 10, "velocity": 90}, {"time": 45004, "pitch": 69, "duration": 10, "velocity": 90}, {"time": 45125, "pitch": 38, "duration": 19, "velocity": 110}, {"time": 45125, "pitch": 42, "duration": 10, "velocity": 84}, {"time": 45361, "pitch": 35, "duration": 10, "velocity": 100}, {"time": 45361, "pitch": 42, "duration": 19, "velocity": 64}, {"time": 45597, "pitch": 42, "duration": 10, "velocity": 84}, {"time": 45838, "pitch": 35, "duration": 10, "velocity": 85}, {"time": 45838, "pitch": 46, "duration": 20, "velocity": 95}, {"time": 46079, "pitch": 38, "duration": 20, "velocity": 110}, {"time": 46079, "pitch": 42, "duration": 10, "velocity": 84}, {"time": 46199, "pitch": 35, "duration": 10, "velocity": 85}, {"time": 46319, "pitch": 42, "duration": 10, "velocity": 64}, {"time": 46560, "pitch": 35, "duration": 10, "velocity": 100}, {"time": 46560, "pitch": 42, "duration": 20, "velocity": 84}, {"time": 46801, "pitch": 42, "duration": 20, "velocity": 64}, {"time": 46801, "pitch": 69, "duration": 10, "velocity": 90}, {"time": 46922, "pitch": 69, "duration": 10, "velocity": 90}, {"time": 47042, "pitch": 38, "duration": 20, "velocity": 110}, {"time": 47042, "pitch": 42, "duration": 10, "velocity": 84}, {"time": 47283, "pitch": 35, "duration": 10, "velocity": 100}, {"time": 47283, "pitch": 42, "duration": 20, "velocity": 64}, {"time": 47524, "pitch": 42, "duration": 10, "velocity": 84}, {"time": 47642, "pitch": 35, "duration": 10, "velocity": 85}, {"time": 47760, "pitch": 35, "duration": 10, "velocity": 100}, {"time": 47760, "pitch": 42, "duration": 19, "velocity": 64}, {"time": 47996, "pitch": 38, "duration": 20, "velocity": 110}, {"time": 47996, "pitch": 42, "duration": 10, "velocity": 84}, {"time": 48116, "pitch": 38, "duration": 10, "velocity": 90}, {"time": 48237, "pitch": 35, "duration": 20, "velocity": 85}, {"time": 48237, "pitch": 42, "duration": 30, "velocity": 64}, {"time": 48237, "pitch": 45, "duration": 10, "velocity": 90}, {"time": 48478, "pitch": 35, "duration": 10, "velocity": 100}, {"time": 48478, "pitch": 42, "duration": 30, "velocity": 84}, {"time": 48478, "pitch": 49, "duration": 20, "velocity": 80}, {"time": 48718, "pitch": 42, "duration": 21, "velocity": 64}, {"time": 48718, "pitch": 69, "duration": 10, "velocity": 90}, {"time": 48839, "pitch": 69, "duration": 10, "velocity": 90}, {"time": 48959, "pitch": 38, "duration": 20, "velocity": 110}, {"time": 48959, "pitch": 42, "duration": 10, "velocity": 84}, {"time": 49200, "pitch": 35, "duration": 10, "velocity": 100}, {"time": 49200, "pitch": 42, "duration": 30, "velocity": 64}, {"time": 49200, "pitch": 57, "duration": 20, "velocity": 90}, {"time": 49441, "pitch": 42, "duration": 10, "velocity": 84}, {"time": 49682, "pitch": 35, "duration": 20, "velocity": 85}, {"time": 49682, "pitch": 46, "duration": 30, "velocity": 95}, {"time": 49682, "pitch": 48, "duration": 10, "velocity": 90}, {"time": 49923, "pitch": 38, "duration": 20, "velocity": 110}, {"time": 49923, "pitch": 42, "duration": 10, "velocity": 84}, {"time": 50043, "pitch": 35, "duration": 20, "velocity": 85}, {"time": 50043, "pitch": 45, "duration": 10, "velocity": 90}, {"time": 50164, "pitch": 41, "duration": 10, "velocity": 90}, {"time": 50164, "pitch": 42, "duration": 20, "velocity": 64}, {"time": 50405, "pitch": 35, "duration": 9, "velocity": 100}, {"time": 50405, "pitch": 42, "duration": 29, "velocity": 84}, {"time": 50405, "pitch": 49, "duration": 19, "velocity": 80}, {"time": 50641, "pitch": 42, "duration": 9, "velocity": 64}, {"time": 50877, "pitch": 38, "duration": 20, "velocity": 110}, {"time": 50877, "pitch": 42, "duration": 10, "velocity": 84}, {"time": 51117, "pitch": 35, "duration": 11, "velocity": 85}, {"time": 51117, "pitch": 42, "duration": 21, "velocity": 64}, {"time": 51358, "pitch": 35, "duration": 10, "velocity": 100}, {"time": 51358, "pitch": 42, "duration": 20, "velocity": 84}, {"time": 51599, "pitch": 42, "duration": 10, "velocity": 64}, {"time": 51840, "pitch": 38, "duration": 20, "velocity": 110}, {"time": 51840, "pitch": 42, "duration": 10, "velocity": 84}, {"time": 52081, "pitch": 35, "duration": 10, "velocity": 85}, {"time": 52081, "pitch": 42, "duration": 20, "velocity": 64}, {"time": 52322, "pitch": 35, "duration": 10, "velocity": 100}, {"time": 52322, "pitch": 42, "duration": 20, "velocity": 84}, {"time": 52563, "pitch": 42, "duration": 10, "velocity": 64}, {"time": 52804, "pitch": 38, "duration": 19, "velocity": 110}, {"time": 52804, "pitch": 42, "duration": 9, "velocity": 84}, {"time": 53040, "pitch": 35, "duration": 9, "velocity": 85}, {"time": 53040, "pitch": 42, "duration": 19, "velocity": 64}, {"time": 53276, "pitch": 35, "duration": 10, "velocity": 100}, {"time": 53276, "pitch": 42, "duration": 20, "velocity": 84}, {"time": 53517, "pitch": 42, "duration": 10, "velocity": 64}, {"time": 53757, "pitch": 38, "duration": 20, "velocity": 110}, {"time": 53757, "pitch": 42, "duration": 10, "velocity": 84}, {"time": 53998, "pitch": 35, "duration": 10, "velocity": 85}, {"time": 53998, "pitch": 46, "duration": 20, "velocity": 95}, {"time": 54239, "pitch": 35, "duration": 10, "velocity": 100}, {"time": 54239, "pitch": 42, "duration": 30, "velocity": 84}, {"time": 54239, "pitch": 57, "duration": 20, "velocity": 90}, {"time": 54480, "pitch": 42, "duration": 10, "velocity": 64}, {"time": 54721, "pitch": 38, "duration": 20, "velocity": 110}, {"time": 54721, "pitch": 42, "duration": 10, "velocity": 84}, {"time": 54962, "pitch": 35, "duration": 10, "velocity": 85}, {"time": 54962, "pitch": 42, "duration": 20, "velocity": 64}, {"time": 55203, "pitch": 35, "duration": 10, "velocity": 100}, {"time": 55203, "pitch": 42, "duration": 20, "velocity": 84}, {"time": 55444, "pitch": 42, "duration": 10, "velocity": 64}, {"time": 55684, "pitch": 38, "duration": 20, "velocity": 110}, {"time": 55684, "pitch": 42, "duration": 10, "velocity": 84}, {"time": 55920, "pitch": 35, "duration": 10, "velocity": 85}, {"time": 55920, "pitch": 42, "duration": 20, "velocity": 64}, {"time": 56157, "pitch": 35, "duration": 9, "velocity": 100}, {"time": 56157, "pitch": 42, "duration": 30, "velocity": 84}, {"time": 56157, "pitch": 49, "duration": 20, "velocity": 80}, {"time": 56397, "pitch": 42, "duration": 10, "velocity": 64}, {"time": 56638, "pitch": 38, "duration": 20, "velocity": 110}, {"time": 56638, "pitch": 42, "duration": 10, "velocity": 84}, {"time": 56879, "pitch": 35, "duration": 10, "velocity": 85}, {"time": 56879, "pitch": 42, "duration": 20, "velocity": 64}, {"time": 57120, "pitch": 35, "duration": 10, "velocity": 100}, {"time": 57120, "pitch": 42, "duration": 30, "velocity": 84}, {"time": 57120, "pitch": 57, "duration": 20, "velocity": 90}, {"time": 57361, "pitch": 46, "duration": 10, "velocity": 95}, {"time": 57602, "pitch": 38, "duration": 20, "velocity": 110}, {"time": 57602, "pitch": 42, "duration": 10, "velocity": 84}, {"time": 57843, "pitch": 35, "duration": 10, "velocity": 85}, {"time": 57843, "pitch": 46, "duration": 20, "velocity": 95}, {"time": 58083, "pitch": 35, "duration": 10, "velocity": 100}, {"time": 58083, "pitch": 42, "duration": 30, "velocity": 84}, {"time": 58083, "pitch": 49, "duration": 20, "velocity": 80}, {"time": 58319, "pitch": 42, "duration": 10, "velocity": 64}, {"time": 58556, "pitch": 38, "duration": 20, "velocity": 110}, {"time": 58556, "pitch": 42, "duration": 10, "velocity": 84}, {"time": 58796, "pitch": 35, "duration": 10, "velocity": 85}, {"time": 58796, "pitch": 42, "duration": 20, "velocity": 64}, {"time": 59037, "pitch": 35, "duration": 10, "velocity": 100}, {"time": 59037, "pitch": 42, "duration": 20, "velocity": 84}, {"time": 59278, "pitch": 42, "duration": 10, "velocity": 64}, {"time": 59519, "pitch": 38, "duration": 20, "velocity": 110}, {"time": 59519, "pitch": 42, "duration": 10, "velocity": 84}, {"time": 59760, "pitch": 35, "duration": 10, "velocity": 85}, {"time": 59760, "pitch": 42, "duration": 20, "velocity": 64}, {"time": 60001, "pitch": 35, "duration": 10, "velocity": 100}, {"time": 60001, "pitch": 42, "duration": 20, "velocity": 84}, {"time": 60242, "pitch": 42, "duration": 10, "velocity": 64}, {"time": 60483, "pitch": 38, "duration": 20, "velocity": 110}, {"time": 60483, "pitch": 42, "duration": 10, "velocity": 84}, {"time": 60723, "pitch": 35, "duration": 10, "velocity": 85}, {"time": 60723, "pitch": 42, "duration": 20, "velocity": 64}, {"time": 60964, "pitch": 35, "duration": 20, "velocity": 100}, {"time": 60964, "pitch": 42, "duration": 20, "velocity": 84}, {"time": 60964, "pitch": 45, "duration": 10, "velocity": 90}, {"time": 60984, "pitch": 41, "duration": 10, "velocity": 90}, {"time": 61200, "pitch": 42, "duration": 10, "velocity": 64}, {"time": 61436, "pitch": 38, "duration": 20, "velocity": 110}, {"time": 61436, "pitch": 42, "duration": 10, "velocity": 84}, {"time": 61677, "pitch": 35, "duration": 10, "velocity": 85}, {"time": 61677, "pitch": 38, "duration": 30, "velocity": 110}, {"time": 61677, "pitch": 46, "duration": 20, "velocity": 95}, {"time": 61918, "pitch": 35, "duration": 10, "velocity": 100}, {"time": 61918, "pitch": 42, "duration": 30, "velocity": 84}, {"time": 61918, "pitch": 57, "duration": 20, "velocity": 90}, {"time": 62159, "pitch": 42, "duration": 10, "velocity": 64}, {"time": 62400, "pitch": 38, "duration": 20, "velocity": 110}, {"time": 62400, "pitch": 42, "duration": 10, "velocity": 84}, {"time": 62641, "pitch": 35, "duration": 10, "velocity": 85}, {"time": 62641, "pitch": 42, "duration": 20, "velocity": 64}, {"time": 62882, "pitch": 38, "duration": 20, "velocity": 110}, {"time": 62882, "pitch": 42, "duration": 10, "velocity": 84}, {"time": 63122, "pitch": 35, "duration": 10, "velocity": 100}, {"time": 63122, "pitch": 42, "duration": 21, "velocity": 64}, {"time": 63363, "pitch": 38, "duration": 20, "velocity": 110}, {"time": 63363, "pitch": 42, "duration": 10, "velocity": 84}, {"time": 63599, "pitch": 35, "duration": 10, "velocity": 85}, {"time": 63599, "pitch": 42, "duration": 30, "velocity": 64}, {"time": 63599, "pitch": 49, "duration": 20, "velocity": 80}, {"time": 64076, "pitch": 35, "duration": 30, "velocity": 85}, {"time": 64076, "pitch": 44, "duration": 20, "velocity": 60}, {"time": 64076, "pitch": 48, "duration": 10, "velocity": 90}, {"time": 64136, "pitch": 45, "duration": 10, "velocity": 90}, {"time": 64197, "pitch": 41, "duration": 10, "velocity": 90}, {"time": 64297, "pitch": 38, "duration": 10, "velocity": 90}, {"time": 64317, "pitch": 38, "duration": 10, "velocity": 110}, {"time": 64558, "pitch": 35, "duration": 20, "velocity": 100}, {"time": 64558, "pitch": 44, "duration": 10, "velocity": 60}, {"time": 64558, "pitch": 57, "duration": 30, "velocity": 90}, {"time": 64799, "pitch": 45, "duration": 10, "velocity": 90}, {"time": 64819, "pitch": 41, "duration": 10, "velocity": 90}, {"time": 65040, "pitch": 35, "duration": 30, "velocity": 100}, {"time": 65040, "pitch": 41, "duration": 20, "velocity": 90}, {"time": 65040, "pitch": 44, "duration": 10, "velocity": 60}, {"time": 65040, "pitch": 49, "duration": 40, "velocity": 80}, {"time": 65261, "pitch": 38, "duration": 10, "velocity": 90}, {"time": 65281, "pitch": 38, "duration": 10, "velocity": 110}, {"time": 65521, "pitch": 35, "duration": 31, "velocity": 100}, {"time": 65521, "pitch": 44, "duration": 21, "velocity": 60}, {"time": 65521, "pitch": 48, "duration": 11, "velocity": 90}, {"time": 65521, "pitch": 57, "duration": 41, "velocity": 90}, {"time": 65762, "pitch": 45, "duration": 10, "velocity": 90}, {"time": 65782, "pitch": 41, "duration": 10, "velocity": 90}, {"time": 65983, "pitch": 38, "duration": 10, "velocity": 90}, {"time": 66003, "pitch": 38, "duration": 20, "velocity": 110}, {"time": 66003, "pitch": 44, "duration": 10, "velocity": 60}, {"time": 66244, "pitch": 35, "duration": 10, "velocity": 100}, {"time": 66244, "pitch": 49, "duration": 20, "velocity": 80}, {"time": 66480, "pitch": 44, "duration": 10, "velocity": 60}, {"time": 66716, "pitch": 46, "duration": 10, "velocity": 115}, {"time": 66957, "pitch": 35, "duration": 20, "velocity": 100}, {"time": 66957, "pitch": 44, "duration": 10, "velocity": 60}, {"time": 66957, "pitch": 49, "duration": 40, "velocity": 80}, {"time": 66957, "pitch": 57, "duration": 30, "velocity": 90}, {"time": 67178, "pitch": 38, "duration": 10, "velocity": 90}, {"time": 67198, "pitch": 38, "duration": 10, "velocity": 110}, {"time": 67439, "pitch": 35, "duration": 20, "velocity": 100}, {"time": 67439, "pitch": 44, "duration": 10, "velocity": 60}, {"time": 67680, "pitch": 35, "duration": 20, "velocity": 100}, {"time": 67680, "pitch": 42, "duration": 40, "velocity": 84}, {"time": 67680, "pitch": 49, "duration": 30, "velocity": 80}, {"time": 67680, "pitch": 54, "duration": 10, "velocity": 60}, {"time": 67800, "pitch": 54, "duration": 10, "velocity": 40}, {"time": 67921, "pitch": 42, "duration": 30, "velocity": 64}, {"time": 67921, "pitch": 54, "duration": 20, "velocity": 90}, {"time": 67921, "pitch": 69, "duration": 10, "velocity": 90}, {"time": 68041, "pitch": 54, "duration": 20, "velocity": 40}, {"time": 68041, "pitch": 69, "duration": 10, "velocity": 90}, {"time": 68161, "pitch": 38, "duration": 31, "velocity": 110}, {"time": 68161, "pitch": 42, "duration": 20, "velocity": 84}, {"time": 68161, "pitch": 54, "duration": 10, "velocity": 60}, {"time": 68282, "pitch": 54, "duration": 10, "velocity": 40}, {"time": 68402, "pitch": 35, "duration": 20, "velocity": 100}, {"time": 68402, "pitch": 42, "duration": 30, "velocity": 64}, {"time": 68402, "pitch": 54, "duration": 10, "velocity": 90}, {"time": 68523, "pitch": 54, "duration": 10, "velocity": 40}, {"time": 68643, "pitch": 42, "duration": 20, "velocity": 84}, {"time": 68643, "pitch": 54, "duration": 10, "velocity": 60}, {"time": 68761, "pitch": 54, "duration": 10, "velocity": 40}, {"time": 68879, "pitch": 35, "duration": 20, "velocity": 100}, {"time": 68879, "pitch": 42, "duration": 30, "velocity": 64}, {"time": 68879, "pitch": 54, "duration": 10, "velocity": 90}, {"time": 68997, "pitch": 54, "duration": 10, "velocity": 40}, {"time": 69115, "pitch": 38, "duration": 30, "velocity": 110}, {"time": 69115, "pitch": 42, "duration": 20, "velocity": 84}, {"time": 69115, "pitch": 54, "duration": 10, "velocity": 60}, {"time": 69236, "pitch": 54, "duration": 10, "velocity": 40}, {"time": 69356, "pitch": 35, "duration": 20, "velocity": 85}, {"time": 69356, "pitch": 42, "duration": 30, "velocity": 64}, {"time": 69356, "pitch": 54, "duration": 10, "velocity": 90}, {"time": 69476, "pitch": 54, "duration": 11, "velocity": 40}, {"time": 69597, "pitch": 35, "duration": 20, "velocity": 100}, {"time": 69597, "pitch": 42, "duration": 30, "velocity": 84}, {"time": 69597, "pitch": 54, "duration": 10, "velocity": 60}, {"time": 69717, "pitch": 54, "duration": 10, "velocity": 40}, {"time": 69838, "pitch": 42, "duration": 30, "velocity": 64}, {"time": 69838, "pitch": 54, "duration": 20, "velocity": 90}, {"time": 69838, "pitch": 69, "duration": 10, "velocity": 90}, {"time": 69958, "pitch": 54, "duration": 20, "velocity": 40}, {"time": 69958, "pitch": 69, "duration": 10, "velocity": 90}, {"time": 70079, "pitch": 38, "duration": 30, "velocity": 110}, {"time": 70079, "pitch": 42, "duration": 20, "velocity": 84}, {"time": 70079, "pitch": 54, "duration": 10, "velocity": 60}, {"time": 70199, "pitch": 54, "duration": 10, "velocity": 40}, {"time": 70320, "pitch": 35, "duration": 20, "velocity": 100}, {"time": 70320, "pitch": 42, "duration": 30, "velocity": 64}, {"time": 70320, "pitch": 54, "duration": 10, "velocity": 90}, {"time": 70440, "pitch": 54, "duration": 10, "velocity": 40}, {"time": 70560, "pitch": 42, "duration": 21, "velocity": 84}, {"time": 70560, "pitch": 54, "duration": 10, "velocity": 60}, {"time": 70681, "pitch": 54, "duration": 10, "velocity": 40}, {"time": 70801, "pitch": 35, "duration": 20, "velocity": 85}, {"time": 70801, "pitch": 46, "duration": 30, "velocity": 95}, {"time": 70801, "pitch": 54, "duration": 10, "velocity": 90}, {"time": 70922, "pitch": 54, "duration": 10, "velocity": 40}, {"time": 71042, "pitch": 38, "duration": 30, "velocity": 110}, {"time": 71042, "pitch": 42, "duration": 20, "velocity": 84}, {"time": 71042, "pitch": 54, "duration": 10, "velocity": 60}, {"time": 71163, "pitch": 35, "duration": 20, "velocity": 85}, {"time": 71163, "pitch": 54, "duration": 10, "velocity": 40}, {"time": 71283, "pitch": 42, "duration": 20, "velocity": 64}, {"time": 71283, "pitch": 54, "duration": 10, "velocity": 90}, {"time": 71404, "pitch": 54, "duration": 10, "velocity": 40}, {"time": 71524, "pitch": 35, "duration": 20, "velocity": 100}, {"time": 71524, "pitch": 42, "duration": 29, "velocity": 84}, {"time": 71524, "pitch": 54, "duration": 10, "velocity": 60}, {"time": 71642, "pitch": 54, "duration": 10, "velocity": 40}, {"time": 71760, "pitch": 42, "duration": 29, "velocity": 64}, {"time": 71760, "pitch": 54, "duration": 20, "velocity": 90}, {"time": 71760, "pitch": 69, "duration": 10, "velocity": 90}, {"time": 71878, "pitch": 54, "duration": 20, "velocity": 40}, {"time": 71878, "pitch": 69, "duration": 10, "velocity": 90}, {"time": 71996, "pitch": 38, "duration": 30, "velocity": 110}, {"time": 71996, "pitch": 42, "duration": 20, "velocity": 84}, {"time": 71996, "pitch": 54, "duration": 10, "velocity": 60}, {"time": 72116, "pitch": 54, "duration": 10, "velocity": 40}, {"time": 72237, "pitch": 35, "duration": 20, "velocity": 100}, {"time": 72237, "pitch": 42, "duration": 30, "velocity": 64}, {"time": 72237, "pitch": 54, "duration": 10, "velocity": 90}, {"time": 72357, "pitch": 54, "duration": 10, "velocity": 40}, {"time": 72478, "pitch": 42, "duration": 20, "velocity": 84}, {"time": 72478, "pitch": 54, "duration": 10, "velocity": 60}, {"time": 72598, "pitch": 54, "duration": 10, "velocity": 40}, {"time": 72719, "pitch": 35, "duration": 20, "velocity": 100}, {"time": 72719, "pitch": 42, "duration": 30, "velocity": 64}, {"time": 72719, "pitch": 54, "duration": 10, "velocity": 90}, {"time": 72839, "pitch": 54, "duration": 10, "velocity": 40}, {"time": 72959, "pitch": 38, "duration": 31, "velocity": 110}, {"time": 72959, "pitch": 42, "duration": 21, "velocity": 84}, {"time": 72959, "pitch": 54, "duration": 11, "velocity": 60}, {"time": 73080, "pitch": 54, "duration": 10, "velocity": 40}, {"time": 73200, "pitch": 35, "duration": 20, "velocity": 85}, {"time": 73200, "pitch": 42, "duration": 30, "velocity": 64}, {"time": 73200, "pitch": 54, "duration": 10, "velocity": 90}, {"time": 73321, "pitch": 54, "duration": 10, "velocity": 40}, {"time": 73441, "pitch": 35, "duration": 20, "velocity": 100}, {"time": 73441, "pitch": 42, "duration": 30, "velocity": 84}, {"time": 73441, "pitch": 54, "duration": 10, "velocity": 60}, {"time": 73562, "pitch": 54, "duration": 10, "velocity": 40}, {"time": 73682, "pitch": 42, "duration": 30, "velocity": 64}, {"time": 73682, "pitch": 54, "duration": 20, "velocity": 90}, {"time": 73682, "pitch": 69, "duration": 10, "velocity": 90}, {"time": 73803, "pitch": 54, "duration": 20, "velocity": 40}, {"time": 73803, "pitch": 69, "duration": 10, "velocity": 90}, {"time": 73923, "pitch": 38, "duration": 30, "velocity": 110}, {"time": 73923, "pitch": 42, "duration": 20, "velocity": 84}, {"time": 73923, "pitch": 54, "duration": 10, "velocity": 60}, {"time": 74043, "pitch": 54, "duration": 10, "velocity": 40}, {"time": 74164, "pitch": 35, "duration": 20, "velocity": 100}, {"time": 74164, "pitch": 42, "duration": 30, "velocity": 64}, {"time": 74164, "pitch": 54, "duration": 10, "velocity": 90}, {"time": 74284, "pitch": 54, "duration": 10, "velocity": 40}, {"time": 74405, "pitch": 42, "duration": 19, "velocity": 84}, {"time": 74405, "pitch": 54, "duration": 10, "velocity": 60}, {"time": 74523, "pitch": 54, "duration": 10, "velocity": 40}, {"time": 74641, "pitch": 35, "duration": 19, "velocity": 85}, {"time": 74641, "pitch": 46, "duration": 29, "velocity": 95}, {"time": 74641, "pitch": 54, "duration": 10, "velocity": 90}, {"time": 74759, "pitch": 54, "duration": 10, "velocity": 40}, {"time": 74877, "pitch": 38, "duration": 30, "velocity": 110}, {"time": 74877, "pitch": 42, "duration": 20, "velocity": 84}, {"time": 74877, "pitch": 54, "duration": 10, "velocity": 60}, {"time": 74997, "pitch": 35, "duration": 20, "velocity": 85}, {"time": 74997, "pitch": 54, "duration": 10, "velocity": 40}, {"time": 75118, "pitch": 42, "duration": 20, "velocity": 64}, {"time": 75118, "pitch": 54, "duration": 10, "velocity": 90}, {"time": 75238, "pitch": 54, "duration": 10, "velocity": 40}, {"time": 75359, "pitch": 35, "duration": 20, "velocity": 100}, {"time": 75359, "pitch": 42, "duration": 40, "velocity": 84}, {"time": 75359, "pitch": 49, "duration": 30, "velocity": 80}, {"time": 75359, "pitch": 54, "duration": 10, "velocity": 60}, {"time": 75479, "pitch": 54, "duration": 10, "velocity": 40}, {"time": 75599, "pitch": 42, "duration": 31, "velocity": 64}, {"time": 75599, "pitch": 54, "duration": 20, "velocity": 90}, {"time": 75599, "pitch": 69, "duration": 10, "velocity": 90}, {"time": 75720, "pitch": 54, "duration": 20, "velocity": 40}, {"time": 75720, "pitch": 69, "duration": 10, "velocity": 90}, {"time": 75840, "pitch": 38, "duration": 30, "velocity": 110}, {"time": 75840, "pitch": 42, "duration": 20, "velocity": 84}, {"time": 75840, "pitch": 54, "duration": 10, "velocity": 60}, {"time": 75961, "pitch": 54, "duration": 10, "velocity": 40}, {"time": 76081, "pitch": 35, "duration": 20, "velocity": 100}, {"time": 76081, "pitch": 42, "duration": 30, "velocity": 64}, {"time": 76081, "pitch": 54, "duration": 10, "velocity": 90}, {"time": 76202, "pitch": 54, "duration": 10, "velocity": 40}, {"time": 76322, "pitch": 42, "duration": 20, "velocity": 84}, {"time": 76322, "pitch": 54, "duration": 10, "velocity": 60}, {"time": 76442, "pitch": 54, "duration": 11, "velocity": 40}, {"time": 76563, "pitch": 35, "duration": 20, "velocity": 100}, {"time": 76563, "pitch": 42, "duration": 30, "velocity": 64}, {"time": 76563, "pitch": 54, "duration": 10, "velocity": 90}, {"time": 76683, "pitch": 54, "duration": 10, "velocity": 40}, {"time": 76804, "pitch": 38, "duration": 29, "velocity": 110}, {"time": 76804, "pitch": 42, "duration": 19, "velocity": 84}, {"time": 76804, "pitch": 54, "duration": 10, "velocity": 60}, {"time": 76922, "pitch": 54, "duration": 10, "velocity": 40}, {"time": 77040, "pitch": 35, "duration": 19, "velocity": 85}, {"time": 77040, "pitch": 42, "duration": 29, "velocity": 64}, {"time": 77040, "pitch": 54, "duration": 10, "velocity": 90}, {"time": 77158, "pitch": 54, "duration": 10, "velocity": 40}, {"time": 77276, "pitch": 35, "duration": 20, "velocity": 100}, {"time": 77276, "pitch": 42, "duration": 40, "velocity": 84}, {"time": 77276, "pitch": 54, "duration": 10, "velocity": 60}, {"time": 77276, "pitch": 57, "duration": 30, "velocity": 90}, {"time": 77396, "pitch": 54, "duration": 10, "velocity": 40}, {"time": 77517, "pitch": 42, "duration": 30, "velocity": 64}, {"time": 77517, "pitch": 54, "duration": 20, "velocity": 90}, {"time": 77517, "pitch": 69, "duration": 10, "velocity": 90}, {"time": 77637, "pitch": 54, "duration": 20, "velocity": 40}, {"time": 77637, "pitch": 69, "duration": 10, "velocity": 90}, {"time": 77758, "pitch": 38, "duration": 30, "velocity": 110}, {"time": 77758, "pitch": 42, "duration": 20, "velocity": 84}, {"time": 77758, "pitch": 54, "duration": 10, "velocity": 60}, {"time": 77878, "pitch": 54, "duration": 10, "velocity": 40}, {"time": 77998, "pitch": 35, "duration": 21, "velocity": 100}, {"time": 77998, "pitch": 42, "duration": 31, "velocity": 64}, {"time": 77998, "pitch": 54, "duration": 10, "velocity": 90}, {"time": 78119, "pitch": 54, "duration": 10, "velocity": 40}, {"time": 78239, "pitch": 42, "duration": 20, "velocity": 84}, {"time": 78239, "pitch": 54, "duration": 10, "velocity": 60}, {"time": 78360, "pitch": 54, "duration": 10, "velocity": 40}, {"time": 78480, "pitch": 35, "duration": 20, "velocity": 85}, {"time": 78480, "pitch": 46, "duration": 30, "velocity": 95}, {"time": 78480, "pitch": 54, "duration": 10, "velocity": 90}, {"time": 78601, "pitch": 54, "duration": 10, "velocity": 40}, {"time": 78721, "pitch": 38, "duration": 30, "velocity": 110}, {"time": 78721, "pitch": 42, "duration": 20, "velocity": 84}, {"time": 78721, "pitch": 54, "duration": 10, "velocity": 60}, {"time": 78842, "pitch": 35, "duration": 20, "velocity": 85}, {"time": 78842, "pitch": 54, "duration": 10, "velocity": 40}, {"time": 78962, "pitch": 42, "duration": 20, "velocity": 64}, {"time": 78962, "pitch": 54, "duration": 10, "velocity": 90}, {"time": 79082, "pitch": 54, "duration": 10, "velocity": 40}, {"time": 79203, "pitch": 35, "duration": 20, "velocity": 100}, {"time": 79203, "pitch": 42, "duration": 40, "velocity": 84}, {"time": 79203, "pitch": 49, "duration": 30, "velocity": 80}, {"time": 79203, "pitch": 54, "duration": 10, "velocity": 60}, {"time": 79323, "pitch": 54, "duration": 10, "velocity": 40}, {"time": 79444, "pitch": 42, "duration": 30, "velocity": 64}, {"time": 79444, "pitch": 54, "duration": 20, "velocity": 90}, {"time": 79444, "pitch": 69, "duration": 10, "velocity": 90}, {"time": 79564, "pitch": 54, "duration": 20, "velocity": 40}, {"time": 79564, "pitch": 69, "duration": 10, "velocity": 90}, {"time": 79685, "pitch": 38, "duration": 29, "velocity": 110}, {"time": 79685, "pitch": 42, "duration": 19, "velocity": 84}, {"time": 79685, "pitch": 54, "duration": 9, "velocity": 60}, {"time": 79803, "pitch": 54, "duration": 9, "velocity": 40}, {"time": 79921, "pitch": 35, "duration": 19, "velocity": 100}, {"time": 79921, "pitch": 42, "duration": 29, "velocity": 64}, {"time": 79921, "pitch": 54, "duration": 9, "velocity": 90}, {"time": 80039, "pitch": 54, "duration": 9, "velocity": 40}, {"time": 80157, "pitch": 42, "duration": 20, "velocity": 84}, {"time": 80157, "pitch": 54, "duration": 10, "velocity": 60}, {"time": 80277, "pitch": 54, "duration": 10, "velocity": 40}, {"time": 80397, "pitch": 35, "duration": 21, "velocity": 100}, {"time": 80397, "pitch": 42, "duration": 31, "velocity": 64}, {"time": 80397, "pitch": 54, "duration": 11, "velocity": 90}, {"time": 80518, "pitch": 54, "duration": 10, "velocity": 40}, {"time": 80638, "pitch": 38, "duration": 30, "velocity": 110}, {"time": 80638, "pitch": 42, "duration": 20, "velocity": 84}, {"time": 80638, "pitch": 54, "duration": 10, "velocity": 60}, {"time": 80759, "pitch": 54, "duration": 10, "velocity": 40}, {"time": 80879, "pitch": 35, "duration": 20, "velocity": 85}, {"time": 80879, "pitch": 42, "duration": 30, "velocity": 64}, {"time": 80879, "pitch": 54, "duration": 10, "velocity": 90}, {"time": 81000, "pitch": 54, "duration": 10, "velocity": 40}, {"time": 81120, "pitch": 35, "duration": 20, "velocity": 100}, {"time": 81120, "pitch": 42, "duration": 40, "velocity": 84}, {"time": 81120, "pitch": 54, "duration": 10, "velocity": 60}, {"time": 81120, "pitch": 57, "duration": 30, "velocity": 90}, {"time": 81241, "pitch": 54, "duration": 10, "velocity": 40}, {"time": 81361, "pitch": 42, "duration": 30, "velocity": 64}, {"time": 81361, "pitch": 54, "duration": 20, "velocity": 90}, {"time": 81361, "pitch": 69, "duration": 10, "velocity": 90}, {"time": 81481, "pitch": 54, "duration": 21, "velocity": 40}, {"time": 81481, "pitch": 69, "duration": 10, "velocity": 90}, {"time": 81602, "pitch": 38, "duration": 30, "velocity": 110}, {"time": 81602, "pitch": 42, "duration": 20, "velocity": 84}, {"time": 81602, "pitch": 54, "duration": 10, "velocity": 60}, {"time": 81722, "pitch": 54, "duration": 10, "velocity": 40}, {"time": 81843, "pitch": 35, "duration": 20, "velocity": 100}, {"time": 81843, "pitch": 42, "duration": 30, "velocity": 64}, {"time": 81843, "pitch": 54, "duration": 10, "velocity": 90}, {"time": 81963, "pitch": 54, "duration": 10, "velocity": 40}, {"time": 82084, "pitch": 42, "duration": 19, "velocity": 84}, {"time": 82084, "pitch": 45, "duration": 19, "velocity": 90}, {"time": 82084, "pitch": 54, "duration": 9, "velocity": 60}, {"time": 82103, "pitch": 41, "duration": 10, "velocity": 90}, {"time": 82202, "pitch": 54, "duration": 9, "velocity": 40}, {"time": 82320, "pitch": 35, "duration": 19, "velocity": 85}, {"time": 82320, "pitch": 38, "duration": 39, "velocity": 100}, {"time": 82320, "pitch": 46, "duration": 29, "velocity": 95}, {"time": 82320, "pitch": 54, "duration": 9, "velocity": 90}, {"time": 82438, "pitch": 54, "duration": 10, "velocity": 40}, {"time": 82556, "pitch": 38, "duration": 30, "velocity": 110}, {"time": 82556, "pitch": 42, "duration": 20, "velocity": 84}, {"time": 82556, "pitch": 54, "duration": 10, "velocity": 60}, {"time": 82676, "pitch": 35, "duration": 20, "velocity": 85}, {"time": 82676, "pitch": 54, "duration": 10, "velocity": 40}, {"time": 82796, "pitch": 38, "duration": 31, "velocity": 110}, {"time": 82796, "pitch": 42, "duration": 21, "velocity": 64}, {"time": 82796, "pitch": 54, "duration": 11, "velocity": 90}, {"time": 82917, "pitch": 38, "duration": 20, "velocity": 110}, {"time": 82917, "pitch": 54, "duration": 10, "velocity": 40}, {"time": 83037, "pitch": 35, "duration": 20, "velocity": 100}, {"time": 83037, "pitch": 42, "duration": 41, "velocity": 84}, {"time": 83037, "pitch": 49, "duration": 30, "velocity": 80}, {"time": 83037, "pitch": 54, "duration": 10, "velocity": 60}, {"time": 83158, "pitch": 54, "duration": 10, "velocity": 40}, {"time": 83278, "pitch": 42, "duration": 30, "velocity": 64}, {"time": 83278, "pitch": 54, "duration": 20, "velocity": 90}, {"time": 83278, "pitch": 69, "duration": 10, "velocity": 90}, {"time": 83399, "pitch": 54, "duration": 20, "velocity": 40}, {"time": 83399, "pitch": 69, "duration": 10, "velocity": 90}, {"time": 83519, "pitch": 38, "duration": 30, "velocity": 110}, {"time": 83519, "pitch": 42, "duration": 20, "velocity": 84}, {"time": 83519, "pitch": 54, "duration": 10, "velocity": 60}, {"time": 83640, "pitch": 54, "duration": 10, "velocity": 40}, {"time": 83760, "pitch": 35, "duration": 20, "velocity": 100}, {"time": 83760, "pitch": 42, "duration": 30, "velocity": 64}, {"time": 83760, "pitch": 54, "duration": 10, "velocity": 90}, {"time": 83880, "pitch": 54, "duration": 11, "velocity": 40}, {"time": 84001, "pitch": 42, "duration": 20, "velocity": 84}, {"time": 84001, "pitch": 54, "duration": 10, "velocity": 60}, {"time": 84121, "pitch": 54, "duration": 10, "velocity": 40}, {"time": 84242, "pitch": 35, "duration": 20, "velocity": 100}, {"time": 84242, "pitch": 42, "duration": 30, "velocity": 64}, {"time": 84242, "pitch": 54, "duration": 10, "velocity": 90}, {"time": 84362, "pitch": 54, "duration": 10, "velocity": 40}, {"time": 84483, "pitch": 38, "duration": 30, "velocity": 110}, {"time": 84483, "pitch": 42, "duration": 20, "velocity": 84}, {"time": 84483, "pitch": 54, "duration": 10, "velocity": 60}, {"time": 84603, "pitch": 54, "duration": 10, "velocity": 40}, {"time": 84724, "pitch": 35, "duration": 20, "velocity": 85}, {"time": 84724, "pitch": 42, "duration": 30, "velocity": 64}, {"time": 84724, "pitch": 54, "duration": 10, "velocity": 90}, {"time": 84844, "pitch": 54, "duration": 10, "velocity": 40}, {"time": 84964, "pitch": 35, "duration": 20, "velocity": 100}, {"time": 84964, "pitch": 42, "duration": 30, "velocity": 84}, {"time": 84964, "pitch": 54, "duration": 10, "velocity": 60}, {"time": 85082, "pitch": 54, "duration": 10, "velocity": 40}, {"time": 85200, "pitch": 42, "duration": 30, "velocity": 64}, {"time": 85200, "pitch": 54, "duration": 20, "velocity": 90}, {"time": 85200, "pitch": 69, "duration": 10, "velocity": 90}, {"time": 85318, "pitch": 54, "duration": 20, "velocity": 40}, {"time": 85318, "pitch": 69, "duration": 10, "velocity": 90}, {"time": 85436, "pitch": 38, "duration": 31, "velocity": 110}, {"time": 85436, "pitch": 42, "duration": 20, "velocity": 84}, {"time": 85436, "pitch": 54, "duration": 10, "velocity": 60}, {"time": 85557, "pitch": 54, "duration": 10, "velocity": 40}, {"time": 85677, "pitch": 35, "duration": 20, "velocity": 100}, {"time": 85677, "pitch": 42, "duration": 30, "velocity": 64}, {"time": 85677, "pitch": 54, "duration": 10, "velocity": 90}, {"time": 85798, "pitch": 54, "duration": 10, "velocity": 40}, {"time": 85918, "pitch": 42, "duration": 20, "velocity": 84}, {"time": 85918, "pitch": 54, "duration": 10, "velocity": 60}, {"time": 86039, "pitch": 54, "duration": 10, "velocity": 40}, {"time": 86159, "pitch": 35, "duration": 20, "velocity": 85}, {"time": 86159, "pitch": 46, "duration": 30, "velocity": 95}, {"time": 86159, "pitch": 54, "duration": 10, "velocity": 90}, {"time": 86280, "pitch": 54, "duration": 10, "velocity": 40}, {"time": 86400, "pitch": 38, "duration": 30, "velocity": 110}, {"time": 86400, "pitch": 42, "duration": 20, "velocity": 84}, {"time": 86400, "pitch": 54, "duration": 10, "velocity": 60}, {"time": 86520, "pitch": 35, "duration": 20, "velocity": 85}, {"time": 86520, "pitch": 54, "duration": 10, "velocity": 40}, {"time": 86641, "pitch": 42, "duration": 20, "velocity": 64}, {"time": 86641, "pitch": 54, "duration": 10, "velocity": 90}, {"time": 86761, "pitch": 54, "duration": 10, "velocity": 40}, {"time": 86882, "pitch": 35, "duration": 20, "velocity": 100}, {"time": 86882, "pitch": 42, "duration": 30, "velocity": 84}, {"time": 86882, "pitch": 54, "duration": 10, "velocity": 60}, {"time": 87002, "pitch": 54, "duration": 10, "velocity": 40}, {"time": 87123, "pitch": 42, "duration": 30, "velocity": 64}, {"time": 87123, "pitch": 54, "duration": 20, "velocity": 90}, {"time": 87123, "pitch": 69, "duration": 10, "velocity": 90}, {"time": 87243, "pitch": 54, "duration": 20, "velocity": 40}, {"time": 87243, "pitch": 69, "duration": 10, "velocity": 90}, {"time": 87363, "pitch": 38, "duration": 30, "velocity": 110}, {"time": 87363, "pitch": 42, "duration": 20, "velocity": 84}, {"time": 87363, "pitch": 54, "duration": 10, "velocity": 60}, {"time": 87481, "pitch": 54, "duration": 10, "velocity": 40}, {"time": 87599, "pitch": 35, "duration": 20, "velocity": 100}, {"time": 87599, "pitch": 42, "duration": 30, "velocity": 64}, {"time": 87599, "pitch": 54, "duration": 10, "velocity": 90}, {"time": 87718, "pitch": 54, "duration": 9, "velocity": 40}, {"time": 87836, "pitch": 42, "duration": 20, "velocity": 84}, {"time": 87836, "pitch": 54, "duration": 9, "velocity": 60}, {"time": 87956, "pitch": 54, "duration": 10, "velocity": 40}, {"time": 88076, "pitch": 35, "duration": 20, "velocity": 100}, {"time": 88076, "pitch": 42, "duration": 30, "velocity": 64}, {"time": 88076, "pitch": 54, "duration": 10, "velocity": 90}, {"time": 88197, "pitch": 54, "duration": 10, "velocity": 40}, {"time": 88317, "pitch": 38, "duration": 30, "velocity": 110}, {"time": 88317, "pitch": 42, "duration": 20, "velocity": 84}, {"time": 88317, "pitch": 54, "duration": 10, "velocity": 60}, {"time": 88438, "pitch": 54, "duration": 10, "velocity": 40}, {"time": 88558, "pitch": 35, "duration": 20, "velocity": 85}, {"time": 88558, "pitch": 42, "duration": 30, "velocity": 64}, {"time": 88558, "pitch": 54, "duration": 10, "velocity": 90}, {"time": 88679, "pitch": 54, "duration": 10, "velocity": 40}, {"time": 88799, "pitch": 35, "duration": 20, "velocity": 100}, {"time": 88799, "pitch": 42, "duration": 30, "velocity": 84}, {"time": 88799, "pitch": 54, "duration": 10, "velocity": 60}, {"time": 88919, "pitch": 54, "duration": 10, "velocity": 40}, {"time": 89040, "pitch": 42, "duration": 30, "velocity": 64}, {"time": 89040, "pitch": 54, "duration": 20, "velocity": 90}, {"time": 89040, "pitch": 69, "duration": 10, "velocity": 90}, {"time": 89160, "pitch": 54, "duration": 20, "velocity": 40}, {"time": 89160, "pitch": 69, "duration": 10, "velocity": 90}, {"time": 89281, "pitch": 38, "duration": 30, "velocity": 110}, {"time": 89281, "pitch": 42, "duration": 20, "velocity": 84}, {"time": 89281, "pitch": 54, "duration": 10, "velocity": 60}, {"time": 89401, "pitch": 54, "duration": 10, "velocity": 40}, {"time": 89522, "pitch": 35, "duration": 20, "velocity": 100}, {"time": 89522, "pitch": 42, "duration": 30, "velocity": 64}, {"time": 89522, "pitch": 54, "duration": 10, "velocity": 90}, {"time": 89642, "pitch": 54, "duration": 10, "velocity": 40}, {"time": 89763, "pitch": 42, "duration": 20, "velocity": 84}, {"time": 89763, "pitch": 54, "duration": 10, "velocity": 60}, {"time": 89883, "pitch": 54, "duration": 10, "velocity": 40}, {"time": 90003, "pitch": 35, "duration": 20, "velocity": 85}, {"time": 90003, "pitch": 46, "duration": 31, "velocity": 95}, {"time": 90003, "pitch": 54, "duration": 10, "velocity": 90}, {"time": 90124, "pitch": 54, "duration": 10, "velocity": 40}, {"time": 90244, "pitch": 38, "duration": 30, "velocity": 110}, {"time": 90244, "pitch": 42, "duration": 20, "velocity": 84}, {"time": 90244, "pitch": 54, "duration": 10, "velocity": 60}, {"time": 90362, "pitch": 35, "duration": 20, "velocity": 85}, {"time": 90362, "pitch": 54, "duration": 10, "velocity": 40}, {"time": 90480, "pitch": 42, "duration": 20, "velocity": 64}, {"time": 90480, "pitch": 54, "duration": 10, "velocity": 90}, {"time": 90598, "pitch": 54, "duration": 10, "velocity": 40}, {"time": 90716, "pitch": 35, "duration": 20, "velocity": 100}, {"time": 90716, "pitch": 42, "duration": 40, "velocity": 84}, {"time": 90716, "pitch": 49, "duration": 30, "velocity": 80}, {"time": 90716, "pitch": 54, "duration": 10, "velocity": 60}, {"time": 90837, "pitch": 54, "duration": 10, "velocity": 40}, {"time": 90957, "pitch": 42, "duration": 30, "velocity": 64}, {"time": 90957, "pitch": 54, "duration": 20, "velocity": 90}, {"time": 90957, "pitch": 69, "duration": 10, "velocity": 90}, {"time": 91078, "pitch": 54, "duration": 20, "velocity": 40}, {"time": 91078, "pitch": 69, "duration": 10, "velocity": 90}, {"time": 91198, "pitch": 38, "duration": 30, "velocity": 110}, {"time": 91198, "pitch": 42, "duration": 20, "velocity": 84}, {"time": 91198, "pitch": 54, "duration": 10, "velocity": 60}, {"time": 91318, "pitch": 54, "duration": 10, "velocity": 40}, {"time": 91439, "pitch": 35, "duration": 20, "velocity": 100}, {"time": 91439, "pitch": 42, "duration": 30, "velocity": 64}, {"time": 91439, "pitch": 54, "duration": 10, "velocity": 90}, {"time": 91559, "pitch": 54, "duration": 10, "velocity": 40}, {"time": 91680, "pitch": 42, "duration": 20, "velocity": 84}, {"time": 91680, "pitch": 54, "duration": 10, "velocity": 60}, {"time": 91800, "pitch": 54, "duration": 10, "velocity": 40}, {"time": 91921, "pitch": 35, "duration": 20, "velocity": 100}, {"time": 91921, "pitch": 42, "duration": 30, "velocity": 64}, {"time": 91921, "pitch": 54, "duration": 10, "velocity": 90}, {"time": 92041, "pitch": 54, "duration": 10, "velocity": 40}, {"time": 92162, "pitch": 38, "duration": 30, "velocity": 110}, {"time": 92162, "pitch": 42, "duration": 20, "velocity": 84}, {"time": 92162, "pitch": 54, "duration": 10, "velocity": 60}, {"time": 92282, "pitch": 54, "duration": 10, "velocity": 40}, {"time": 92402, "pitch": 35, "duration": 21, "velocity": 85}, {"time": 92402, "pitch": 42, "duration": 31, "velocity": 64}, {"time": 92402, "pitch": 54, "duration": 10, "velocity": 90}, {"time": 92523, "pitch": 54, "duration": 10, "velocity": 40}, {"time": 92643, "pitch": 35, "duration": 20, "velocity": 100}, {"time": 92643, "pitch": 42, "duration": 40, "velocity": 84}, {"time": 92643, "pitch": 54, "duration": 10, "velocity": 60}, {"time": 92643, "pitch": 57, "duration": 30, "velocity": 90}, {"time": 92761, "pitch": 54, "duration": 10, "velocity": 40}, {"time": 92879, "pitch": 42, "duration": 30, "velocity": 64}, {"time": 92879, "pitch": 54, "duration": 20, "velocity": 90}, {"time": 92879, "pitch": 69, "duration": 10, "velocity": 90}, {"time": 92997, "pitch": 54, "duration": 20, "velocity": 40}, {"time": 92997, "pitch": 69, "duration": 10, "velocity": 90}, {"time": 93115, "pitch": 38, "duration": 30, "velocity": 110}, {"time": 93115, "pitch": 42, "duration": 20, "velocity": 84}, {"time": 93115, "pitch": 54, "duration": 10, "velocity": 60}, {"time": 93236, "pitch": 54, "duration": 10, "velocity": 40}, {"time": 93356, "pitch": 35, "duration": 20, "velocity": 100}, {"time": 93356, "pitch": 42, "duration": 30, "velocity": 64}, {"time": 93356, "pitch": 54, "duration": 10, "velocity": 90}, {"time": 93477, "pitch": 54, "duration": 10, "velocity": 40}, {"time": 93597, "pitch": 42, "duration": 20, "velocity": 84}, {"time": 93597, "pitch": 54, "duration": 10, "velocity": 60}, {"time": 93717, "pitch": 54, "duration": 11, "velocity": 40}, {"time": 93838, "pitch": 35, "duration": 20, "velocity": 85}, {"time": 93838, "pitch": 46, "duration": 30, "velocity": 95}, {"time": 93838, "pitch": 54, "duration": 10, "velocity": 90}, {"time": 93958, "pitch": 54, "duration": 10, "velocity": 40}, {"time": 94079, "pitch": 38, "duration": 30, "velocity": 110}, {"time": 94079, "pitch": 42, "duration": 20, "velocity": 84}, {"time": 94079, "pitch": 54, "duration": 10, "velocity": 60}, {"time": 94199, "pitch": 35, "duration": 20, "velocity": 85}, {"time": 94199, "pitch": 54, "duration": 10, "velocity": 40}, {"time": 94320, "pitch": 42, "duration": 20, "velocity": 64}, {"time": 94320, "pitch": 54, "duration": 10, "velocity": 90}, {"time": 94440, "pitch": 54, "duration": 10, "velocity": 40}, {"time": 94561, "pitch": 35, "duration": 20, "velocity": 100}, {"time": 94561, "pitch": 42, "duration": 40, "velocity": 84}, {"time": 94561, "pitch": 49, "duration": 30, "velocity": 80}, {"time": 94561, "pitch": 54, "duration": 10, "velocity": 60}, {"time": 94681, "pitch": 54, "duration": 10, "velocity": 40}, {"time": 94801, "pitch": 42, "duration": 31, "velocity": 64}, {"time": 94801, "pitch": 54, "duration": 21, "velocity": 90}, {"time": 94801, "pitch": 69, "duration": 11, "velocity": 90}, {"time": 94922, "pitch": 54, "duration": 20, "velocity": 40}, {"time": 94922, "pitch": 69, "duration": 10, "velocity": 90}, {"time": 95042, "pitch": 38, "duration": 30, "velocity": 110}, {"time": 95042, "pitch": 42, "duration": 20, "velocity": 84}, {"time": 95042, "pitch": 54, "duration": 10, "velocity": 60}, {"time": 95163, "pitch": 54, "duration": 10, "velocity": 40}, {"time": 95283, "pitch": 35, "duration": 20, "velocity": 100}, {"time": 95283, "pitch": 42, "duration": 30, "velocity": 64}, {"time": 95283, "pitch": 54, "duration": 10, "velocity": 90}, {"time": 95404, "pitch": 54, "duration": 10, "velocity": 40}, {"time": 95524, "pitch": 42, "duration": 20, "velocity": 84}, {"time": 95524, "pitch": 54, "duration": 10, "velocity": 60}, {"time": 95642, "pitch": 54, "duration": 10, "velocity": 40}, {"time": 95760, "pitch": 35, "duration": 20, "velocity": 100}, {"time": 95760, "pitch": 42, "duration": 30, "velocity": 64}, {"time": 95760, "pitch": 54, "duration": 10, "velocity": 90}, {"time": 95878, "pitch": 54, "duration": 10, "velocity": 40}, {"time": 95996, "pitch": 38, "duration": 30, "velocity": 110}, {"time": 95996, "pitch": 42, "duration": 20, "velocity": 84}, {"time": 95996, "pitch": 54, "duration": 10, "velocity": 60}, {"time": 96117, "pitch": 54, "duration": 10, "velocity": 40}, {"time": 96237, "pitch": 35, "duration": 20, "velocity": 85}, {"time": 96237, "pitch": 42, "duration": 30, "velocity": 64}, {"time": 96237, "pitch": 54, "duration": 10, "velocity": 90}, {"time": 96357, "pitch": 54, "duration": 10, "velocity": 40}, {"time": 96478, "pitch": 35, "duration": 20, "velocity": 100}, {"time": 96478, "pitch": 42, "duration": 40, "velocity": 84}, {"time": 96478, "pitch": 54, "duration": 10, "velocity": 60}, {"time": 96478, "pitch": 57, "duration": 30, "velocity": 90}, {"time": 96598, "pitch": 54, "duration": 10, "velocity": 40}, {"time": 96719, "pitch": 42, "duration": 30, "velocity": 64}, {"time": 96719, "pitch": 54, "duration": 20, "velocity": 90}, {"time": 96719, "pitch": 69, "duration": 10, "velocity": 90}, {"time": 96839, "pitch": 54, "duration": 20, "velocity": 40}, {"time": 96839, "pitch": 69, "duration": 10, "velocity": 90}, {"time": 96960, "pitch": 38, "duration": 30, "velocity": 110}, {"time": 96960, "pitch": 42, "duration": 20, "velocity": 84}, {"time": 96960, "pitch": 54, "duration": 10, "velocity": 60}, {"time": 97080, "pitch": 54, "duration": 10, "velocity": 40}, {"time": 97201, "pitch": 35, "duration": 20, "velocity": 100}, {"time": 97201, "pitch": 42, "duration": 40, "velocity": 64}, {"time": 97201, "pitch": 49, "duration": 30, "velocity": 80}, {"time": 97201, "pitch": 54, "duration": 10, "velocity": 90}, {"time": 97321, "pitch": 54, "duration": 10, "velocity": 40}, {"time": 97441, "pitch": 42, "duration": 20, "velocity": 84}, {"time": 97441, "pitch": 54, "duration": 10, "velocity": 60}, {"time": 97562, "pitch": 54, "duration": 10, "velocity": 40}, {"time": 97682, "pitch": 46, "duration": 30, "velocity": 95}, {"time": 97682, "pitch": 48, "duration": 20, "velocity": 90}, {"time": 97682, "pitch": 54, "duration": 10, "velocity": 90}, {"time": 97803, "pitch": 54, "duration": 10, "velocity": 40}, {"time": 97923, "pitch": 38, "duration": 39, "velocity": 110}, {"time": 97923, "pitch": 42, "duration": 30, "velocity": 84}, {"time": 97923, "pitch": 45, "duration": 20, "velocity": 90}, {"time": 97923, "pitch": 54, "duration": 10, "velocity": 60}, {"time": 98041, "pitch": 54, "duration": 10, "velocity": 40}, {"time": 98159, "pitch": 41, "duration": 20, "velocity": 90}, {"time": 98159, "pitch": 42, "duration": 30, "velocity": 64}, {"time": 98159, "pitch": 54, "duration": 10, "velocity": 90}, {"time": 98277, "pitch": 54, "duration": 10, "velocity": 40}, {"time": 98395, "pitch": 35, "duration": 20, "velocity": 100}, {"time": 98395, "pitch": 42, "duration": 40, "velocity": 84}, {"time": 98395, "pitch": 49, "duration": 30, "velocity": 80}, {"time": 98395, "pitch": 54, "duration": 10, "velocity": 60}, {"time": 98516, "pitch": 54, "duration": 10, "velocity": 40}, {"time": 98636, "pitch": 42, "duration": 30, "velocity": 64}, {"time": 98636, "pitch": 54, "duration": 20, "velocity": 90}, {"time": 98636, "pitch": 69, "duration": 10, "velocity": 90}, {"time": 98756, "pitch": 54, "duration": 21, "velocity": 40}, {"time": 98756, "pitch": 69, "duration": 10, "velocity": 90}, {"time": 98877, "pitch": 38, "duration": 30, "velocity": 110}, {"time": 98877, "pitch": 42, "duration": 20, "velocity": 84}, {"time": 98877, "pitch": 54, "duration": 10, "velocity": 60}, {"time": 98997, "pitch": 54, "duration": 10, "velocity": 40}, {"time": 99118, "pitch": 35, "duration": 20, "velocity": 100}, {"time": 99118, "pitch": 42, "duration": 30, "velocity": 64}, {"time": 99118, "pitch": 54, "duration": 10, "velocity": 90}, {"time": 99238, "pitch": 54, "duration": 10, "velocity": 40}, {"time": 99359, "pitch": 42, "duration": 20, "velocity": 84}, {"time": 99359, "pitch": 54, "duration": 10, "velocity": 60}, {"time": 99479, "pitch": 54, "duration": 10, "velocity": 40}, {"time": 99600, "pitch": 35, "duration": 20, "velocity": 100}, {"time": 99600, "pitch": 42, "duration": 30, "velocity": 64}, {"time": 99600, "pitch": 54, "duration": 10, "velocity": 90}, {"time": 99720, "pitch": 54, "duration": 10, "velocity": 40}, {"time": 99840, "pitch": 38, "duration": 31, "velocity": 110}, {"time": 99840, "pitch": 42, "duration": 20, "velocity": 84}, {"time": 99840, "pitch": 54, "duration": 10, "velocity": 60}, {"time": 99961, "pitch": 54, "duration": 10, "velocity": 40}, {"time": 100081, "pitch": 35, "duration": 20, "velocity": 85}, {"time": 100081, "pitch": 42, "duration": 30, "velocity": 64}, {"time": 100081, "pitch": 54, "duration": 10, "velocity": 90}, {"time": 100202, "pitch": 54, "duration": 10, "velocity": 40}, {"time": 100322, "pitch": 35, "duration": 20, "velocity": 100}, {"time": 100322, "pitch": 42, "duration": 40, "velocity": 84}, {"time": 100322, "pitch": 54, "duration": 10, "velocity": 60}, {"time": 100322, "pitch": 57, "duration": 30, "velocity": 90}, {"time": 100443, "pitch": 54, "duration": 10, "velocity": 40}, {"time": 100563, "pitch": 42, "duration": 30, "velocity": 64}, {"time": 100563, "pitch": 54, "duration": 20, "velocity": 90}, {"time": 100563, "pitch": 69, "duration": 10, "velocity": 90}, {"time": 100684, "pitch": 54, "duration": 20, "velocity": 40}, {"time": 100684, "pitch": 69, "duration": 10, "velocity": 90}, {"time": 100804, "pitch": 38, "duration": 29, "velocity": 110}, {"time": 100804, "pitch": 42, "duration": 20, "velocity": 84}, {"time": 100804, "pitch": 54, "duration": 10, "velocity": 60}, {"time": 100922, "pitch": 54, "duration": 10, "velocity": 40}, {"time": 101040, "pitch": 35, "duration": 20, "velocity": 100}, {"time": 101040, "pitch": 42, "duration": 39, "velocity": 64}, {"time": 101040, "pitch": 49, "duration": 29, "velocity": 80}, {"time": 101040, "pitch": 54, "duration": 10, "velocity": 90}, {"time": 101158, "pitch": 54, "duration": 10, "velocity": 40}, {"time": 101276, "pitch": 42, "duration": 20, "velocity": 84}, {"time": 101276, "pitch": 54, "duration": 10, "velocity": 60}, {"time": 101396, "pitch": 38, "duration": 20, "velocity": 110}, {"time": 101396, "pitch": 54, "duration": 10, "velocity": 40}, {"time": 101517, "pitch": 35, "duration": 20, "velocity": 85}, {"time": 101517, "pitch": 46, "duration": 30, "velocity": 95}, {"time": 101517, "pitch": 54, "duration": 10, "velocity": 90}, {"time": 101637, "pitch": 54, "duration": 10, "velocity": 40}, {"time": 101758, "pitch": 38, "duration": 30, "velocity": 110}, {"time": 101758, "pitch": 42, "duration": 20, "velocity": 84}, {"time": 101758, "pitch": 54, "duration": 10, "velocity": 60}, {"time": 101878, "pitch": 35, "duration": 20, "velocity": 85}, {"time": 101878, "pitch": 54, "duration": 10, "velocity": 40}, {"time": 101999, "pitch": 38, "duration": 30, "velocity": 110}, {"time": 101999, "pitch": 42, "duration": 20, "velocity": 64}, {"time": 101999, "pitch": 54, "duration": 10, "velocity": 90}, {"time": 102119, "pitch": 38, "duration": 20, "velocity": 110}, {"time": 102119, "pitch": 54, "duration": 10, "velocity": 40}, {"time": 102239, "pitch": 35, "duration": 10, "velocity": 100}, {"time": 102239, "pitch": 42, "duration": 31, "velocity": 84}, {"time": 102239, "pitch": 49, "duration": 21, "velocity": 80}, {"time": 102480, "pitch": 42, "duration": 20, "velocity": 64}, {"time": 102480, "pitch": 69, "duration": 10, "velocity": 90}, {"time": 102601, "pitch": 69, "duration": 10, "velocity": 90}, {"time": 102721, "pitch": 38, "duration": 20, "velocity": 110}, {"time": 102721, "pitch": 42, "duration": 10, "velocity": 84}, {"time": 102962, "pitch": 35, "duration": 10, "velocity": 100}, {"time": 102962, "pitch": 42, "duration": 20, "velocity": 64}, {"time": 103203, "pitch": 42, "duration": 10, "velocity": 84}, {"time": 103323, "pitch": 35, "duration": 10, "velocity": 85}, {"time": 103444, "pitch": 35, "duration": 10, "velocity": 100}, {"time": 103444, "pitch": 42, "duration": 20, "velocity": 64}, {"time": 103685, "pitch": 38, "duration": 19, "velocity": 110}, {"time": 103685, "pitch": 42, "duration": 9, "velocity": 84}, {"time": 103921, "pitch": 35, "duration": 10, "velocity": 85}, {"time": 103921, "pitch": 42, "duration": 19, "velocity": 64}, {"time": 104157, "pitch": 35, "duration": 10, "velocity": 100}, {"time": 104157, "pitch": 42, "duration": 20, "velocity": 84}, {"time": 104398, "pitch": 42, "duration": 20, "velocity": 64}, {"time": 104398, "pitch": 69, "duration": 10, "velocity": 90}, {"time": 104518, "pitch": 69, "duration": 10, "velocity": 90}, {"time": 104638, "pitch": 38, "duration": 21, "velocity": 110}, {"time": 104638, "pitch": 42, "duration": 11, "velocity": 84}, {"time": 104879, "pitch": 35, "duration": 10, "velocity": 100}, {"time": 104879, "pitch": 42, "duration": 20, "velocity": 64}, {"time": 105120, "pitch": 42, "duration": 10, "velocity": 84}, {"time": 105361, "pitch": 35, "duration": 10, "velocity": 85}, {"time": 105361, "pitch": 46, "duration": 20, "velocity": 95}, {"time": 105602, "pitch": 38, "duration": 20, "velocity": 110}, {"time": 105602, "pitch": 42, "duration": 10, "velocity": 84}, {"time": 105722, "pitch": 35, "duration": 11, "velocity": 85}, {"time": 105843, "pitch": 42, "duration": 10, "velocity": 64}, {"time": 106084, "pitch": 35, "duration": 10, "velocity": 100}, {"time": 106084, "pitch": 42, "duration": 19, "velocity": 84}, {"time": 106320, "pitch": 42, "duration": 19, "velocity": 64}, {"time": 106320, "pitch": 69, "duration": 10, "velocity": 90}, {"time": 106438, "pitch": 69, "duration": 10, "velocity": 90}, {"time": 106556, "pitch": 38, "duration": 20, "velocity": 110}, {"time": 106556, "pitch": 42, "duration": 10, "velocity": 84}, {"time": 106797, "pitch": 35, "duration": 10, "velocity": 100}, {"time": 106797, "pitch": 42, "duration": 20, "velocity": 64}, {"time": 107038, "pitch": 42, "duration": 10, "velocity": 84}, {"time": 107158, "pitch": 35, "duration": 10, "velocity": 85}, {"time": 107278, "pitch": 35, "duration": 10, "velocity": 100}, {"time": 107278, "pitch": 42, "duration": 20, "velocity": 64}, {"time": 107519, "pitch": 38, "duration": 20, "velocity": 110}, {"time": 107519, "pitch": 42, "duration": 10, "velocity": 84}, {"time": 107760, "pitch": 35, "duration": 10, "velocity": 85}, {"time": 107760, "pitch": 42, "duration": 20, "velocity": 64}, {"time": 108001, "pitch": 35, "duration": 10, "velocity": 100}, {"time": 108001, "pitch": 42, "duration": 20, "velocity": 84}, {"time": 108242, "pitch": 42, "duration": 20, "velocity": 64}, {"time": 108242, "pitch": 69, "duration": 10, "velocity": 90}, {"time": 108362, "pitch": 69, "duration": 10, "velocity": 90}, {"time": 108483, "pitch": 38, "duration": 20, "velocity": 110}, {"time": 108483, "pitch": 42, "duration": 10, "velocity": 84}, {"time": 108724, "pitch": 35, "duration": 10, "velocity": 100}, {"time": 108724, "pitch": 42, "duration": 20, "velocity": 64}, {"time": 108965, "pitch": 42, "duration": 9, "velocity": 84}, {"time": 109201, "pitch": 35, "duration": 9, "velocity": 85}, {"time": 109201, "pitch": 46, "duration": 19, "velocity": 95}, {"time": 109437, "pitch": 38, "duration": 20, "velocity": 110}, {"time": 109437, "pitch": 42, "duration": 10, "velocity": 84}, {"time": 109557, "pitch": 35, "duration": 10, "velocity": 85}, {"time": 109677, "pitch": 42, "duration": 10, "velocity": 64}, {"time": 109918, "pitch": 35, "duration": 10, "velocity": 100}, {"time": 109918, "pitch": 42, "duration": 20, "velocity": 84}, {"time": 110159, "pitch": 42, "duration": 20, "velocity": 64}, {"time": 110159, "pitch": 69, "duration": 10, "velocity": 90}, {"time": 110280, "pitch": 69, "duration": 10, "velocity": 90}, {"time": 110400, "pitch": 38, "duration": 20, "velocity": 110}, {"time": 110400, "pitch": 42, "duration": 10, "velocity": 84}, {"time": 110641, "pitch": 35, "duration": 10, "velocity": 100}, {"time": 110641, "pitch": 42, "duration": 20, "velocity": 64}, {"time": 110882, "pitch": 42, "duration": 10, "velocity": 84}, {"time": 111002, "pitch": 35, "duration": 10, "velocity": 85}, {"time": 111123, "pitch": 35, "duration": 10, "velocity": 100}, {"time": 111123, "pitch": 42, "duration": 20, "velocity": 64}, {"time": 111364, "pitch": 38, "duration": 19, "velocity": 110}, {"time": 111364, "pitch": 42, "duration": 9, "velocity": 84}, {"time": 111600, "pitch": 35, "duration": 9, "velocity": 85}, {"time": 111600, "pitch": 42, "duration": 19, "velocity": 64}, {"time": 111836, "pitch": 35, "duration": 10, "velocity": 100}, {"time": 111836, "pitch": 42, "duration": 20, "velocity": 84}, {"time": 112076, "pitch": 42, "duration": 21, "velocity": 64}, {"time": 112076, "pitch": 69, "duration": 11, "velocity": 90}, {"time": 112197, "pitch": 69, "duration": 10, "velocity": 90}, {"time": 112317, "pitch": 38, "duration": 20, "velocity": 110}, {"time": 112317, "pitch": 42, "duration": 10, "velocity": 84}, {"time": 112558, "pitch": 35, "duration": 10, "velocity": 100}, {"time": 112558, "pitch": 42, "duration": 20, "velocity": 64}, {"time": 112799, "pitch": 42, "duration": 10, "velocity": 84}, {"time": 113040, "pitch": 35, "duration": 10, "velocity": 85}, {"time": 113040, "pitch": 46, "duration": 20, "velocity": 95}, {"time": 113281, "pitch": 38, "duration": 20, "velocity": 110}, {"time": 113281, "pitch": 42, "duration": 10, "velocity": 84}, {"time": 113401, "pitch": 35, "duration": 10, "velocity": 85}, {"time": 113522, "pitch": 42, "duration": 10, "velocity": 64}, {"time": 113763, "pitch": 35, "duration": 10, "velocity": 100}, {"time": 113763, "pitch": 42, "duration": 20, "velocity": 84}, {"time": 114004, "pitch": 42, "duration": 20, "velocity": 64}, {"time": 114004, "pitch": 69, "duration": 10, "velocity": 90}, {"time": 114124, "pitch": 69, "duration": 10, "velocity": 90}, {"time": 114244, "pitch": 38, "duration": 20, "velocity": 110}, {"time": 114244, "pitch": 42, "duration": 10, "velocity": 84}, {"time": 114480, "pitch": 35, "duration": 10, "velocity": 100}, {"time": 114480, "pitch": 42, "duration": 20, "velocity": 64}, {"time": 114716, "pitch": 42, "duration": 10, "velocity": 84}, {"time": 114837, "pitch": 35, "duration": 10, "velocity": 85}, {"time": 114957, "pitch": 35, "duration": 10, "velocity": 100}, {"time": 114957, "pitch": 42, "duration": 20, "velocity": 64}, {"time": 115198, "pitch": 38, "duration": 20, "velocity": 110}, {"time": 115198, "pitch": 42, "duration": 10, "velocity": 84}, {"time": 115439, "pitch": 35, "duration": 10, "velocity": 85}, {"time": 115439, "pitch": 42, "duration": 20, "velocity": 64}, {"time": 115680, "pitch": 35, "duration": 10, "velocity": 100}, {"time": 115680, "pitch": 42, "duration": 20, "velocity": 84}, {"time": 115921, "pitch": 42, "duration": 20, "velocity": 64}, {"time": 115921, "pitch": 69, "duration": 10, "velocity": 90}, {"time": 116041, "pitch": 69, "duration": 10, "velocity": 90}, {"time": 116162, "pitch": 38, "duration": 20, "velocity": 110}, {"time": 116162, "pitch": 42, "duration": 10, "velocity": 84}, {"time": 116403, "pitch": 35, "duration": 10, "velocity": 100}, {"time": 116403, "pitch": 42, "duration": 20, "velocity": 64}, {"time": 116643, "pitch": 42, "duration": 10, "velocity": 84}, {"time": 116879, "pitch": 35, "duration": 10, "velocity": 85}, {"time": 116879, "pitch": 46, "duration": 20, "velocity": 95}, {"time": 117116, "pitch": 38, "duration": 20, "velocity": 110}, {"time": 117116, "pitch": 42, "duration": 9, "velocity": 84}, {"time": 117236, "pitch": 35, "duration": 10, "velocity": 85}, {"time": 117356, "pitch": 38, "duration": 20, "velocity": 110}, {"time": 117356, "pitch": 42, "duration": 10, "velocity": 64}, {"time": 117477, "pitch": 38, "duration": 10, "velocity": 110}, {"time": 117597, "pitch": 35, "duration": 10, "velocity": 100}, {"time": 117597, "pitch": 42, "duration": 30, "velocity": 84}, {"time": 117597, "pitch": 57, "duration": 20, "velocity": 90}, {"time": 117838, "pitch": 42, "duration": 20, "velocity": 64}, {"time": 117838, "pitch": 69, "duration": 10, "velocity": 90}, {"time": 117959, "pitch": 69, "duration": 10, "velocity": 90}, {"time": 118079, "pitch": 38, "duration": 20, "velocity": 110}, {"time": 118079, "pitch": 42, "duration": 10, "velocity": 84}, {"time": 118320, "pitch": 35, "duration": 10, "velocity": 100}, {"time": 118320, "pitch": 42, "duration": 20, "velocity": 64}, {"time": 118561, "pitch": 42, "duration": 10, "velocity": 84}, {"time": 118681, "pitch": 35, "duration": 10, "velocity": 85}, {"time": 118802, "pitch": 35, "duration": 10, "velocity": 100}, {"time": 118802, "pitch": 42, "duration": 20, "velocity": 64}, {"time": 119043, "pitch": 38, "duration": 20, "velocity": 110}, {"time": 119043, "pitch": 42, "duration": 10, "velocity": 84}, {"time": 119283, "pitch": 35, "duration": 10, "velocity": 85}, {"time": 119283, "pitch": 42, "duration": 20, "velocity": 64}, {"time": 119524, "pitch": 35, "duration": 10, "velocity": 100}, {"time": 119524, "pitch": 42, "duration": 20, "velocity": 84}, {"time": 119760, "pitch": 42, "duration": 20, "velocity": 64}, {"time": 119760, "pitch": 69, "duration": 10, "velocity": 90}, {"time": 119878, "pitch": 69, "duration": 10, "velocity": 90}, {"time": 119996, "pitch": 38, "duration": 20, "velocity": 110}, {"time": 119996, "pitch": 42, "duration": 10, "velocity": 84}, {"time": 120237, "pitch": 35, "duration": 10, "velocity": 100}, {"time": 120237, "pitch": 42, "duration": 20, "velocity": 64}, {"time": 120478, "pitch": 42, "duration": 10, "velocity": 84}, {"time": 120719, "pitch": 35, "duration": 10, "velocity": 85}, {"time": 120719, "pitch": 46, "duration": 20, "velocity": 95}, {"time": 120960, "pitch": 38, "duration": 20, "velocity": 110}, {"time": 120960, "pitch": 42, "duration": 10, "velocity": 84}, {"time": 121080, "pitch": 35, "duration": 10, "velocity": 85}, {"time": 121201, "pitch": 42, "duration": 10, "velocity": 64}, {"time": 121442, "pitch": 35, "duration": 10, "velocity": 100}, {"time": 121442, "pitch": 42, "duration": 20, "velocity": 84}, {"time": 121682, "pitch": 42, "duration": 20, "velocity": 64}, {"time": 121682, "pitch": 69, "duration": 10, "velocity": 90}, {"time": 121803, "pitch": 69, "duration": 10, "velocity": 90}, {"time": 121923, "pitch": 38, "duration": 20, "velocity": 110}, {"time": 121923, "pitch": 42, "duration": 10, "velocity": 84}, {"time": 122159, "pitch": 35, "duration": 10, "velocity": 100}, {"time": 122159, "pitch": 42, "duration": 20, "velocity": 64}, {"time": 122395, "pitch": 42, "duration": 10, "velocity": 84}, {"time": 122516, "pitch": 35, "duration": 10, "velocity": 85}, {"time": 122636, "pitch": 35, "duration": 10, "velocity": 100}, {"time": 122636, "pitch": 42, "duration": 20, "velocity": 64}, {"time": 122877, "pitch": 38, "duration": 20, "velocity": 110}, {"time": 122877, "pitch": 42, "duration": 10, "velocity": 84}, {"time": 123118, "pitch": 35, "duration": 10, "velocity": 85}, {"time": 123118, "pitch": 42, "duration": 20, "velocity": 64}, {"time": 123359, "pitch": 35, "duration": 10, "velocity": 100}, {"time": 123359, "pitch": 42, "duration": 20, "velocity": 84}, {"time": 123600, "pitch": 42, "duration": 20, "velocity": 64}, {"time": 123600, "pitch": 69, "duration": 10, "velocity": 90}, {"time": 123720, "pitch": 69, "duration": 10, "velocity": 90}, {"time": 123841, "pitch": 38, "duration": 20, "velocity": 110}, {"time": 123841, "pitch": 42, "duration": 10, "velocity": 84}, {"time": 124081, "pitch": 35, "duration": 10, "velocity": 100}, {"time": 124081, "pitch": 42, "duration": 21, "velocity": 64}, {"time": 124322, "pitch": 42, "duration": 10, "velocity": 84}, {"time": 124563, "pitch": 35, "duration": 10, "velocity": 85}, {"time": 124563, "pitch": 46, "duration": 20, "velocity": 95}, {"time": 124804, "pitch": 38, "duration": 20, "velocity": 110}, {"time": 124804, "pitch": 42, "duration": 10, "velocity": 84}, {"time": 124922, "pitch": 35, "duration": 10, "velocity": 85}, {"time": 125040, "pitch": 42, "duration": 10, "velocity": 64}, {"time": 125276, "pitch": 35, "duration": 10, "velocity": 100}, {"time": 125276, "pitch": 42, "duration": 20, "velocity": 84}, {"time": 125517, "pitch": 42, "duration": 20, "velocity": 64}, {"time": 125517, "pitch": 69, "duration": 10, "velocity": 90}, {"time": 125637, "pitch": 69, "duration": 10, "velocity": 90}, {"time": 125758, "pitch": 38, "duration": 20, "velocity": 110}, {"time": 125758, "pitch": 42, "duration": 10, "velocity": 84}, {"time": 125999, "pitch": 35, "duration": 10, "velocity": 100}, {"time": 125999, "pitch": 42, "duration": 20, "velocity": 64}, {"time": 126240, "pitch": 42, "duration": 10, "velocity": 84}, {"time": 126360, "pitch": 35, "duration": 10, "velocity": 85}, {"time": 126480, "pitch": 35, "duration": 11, "velocity": 100}, {"time": 126480, "pitch": 42, "duration": 21, "velocity": 64}, {"time": 126721, "pitch": 38, "duration": 20, "velocity": 110}, {"time": 126721, "pitch": 42, "duration": 10, "velocity": 84}, {"time": 126962, "pitch": 35, "duration": 10, "velocity": 85}, {"time": 126962, "pitch": 42, "duration": 20, "velocity": 64}, {"time": 127203, "pitch": 35, "duration": 10, "velocity": 100}, {"time": 127203, "pitch": 42, "duration": 20, "velocity": 84}, {"time": 127439, "pitch": 42, "duration": 20, "velocity": 64}, {"time": 127439, "pitch": 69, "duration": 10, "velocity": 90}, {"time": 127557, "pitch": 69, "duration": 10, "velocity": 90}, {"time": 127675, "pitch": 38, "duration": 20, "velocity": 110}, {"time": 127675, "pitch": 42, "duration": 10, "velocity": 84}, {"time": 127916, "pitch": 35, "duration": 10, "velocity": 100}, {"time": 127916, "pitch": 42, "duration": 20, "velocity": 64}, {"time": 128157, "pitch": 42, "duration": 10, "velocity": 84}, {"time": 128398, "pitch": 35, "duration": 10, "velocity": 85}, {"time": 128398, "pitch": 46, "duration": 20, "velocity": 95}, {"time": 128639, "pitch": 38, "duration": 20, "velocity": 110}, {"time": 128639, "pitch": 42, "duration": 10, "velocity": 84}, {"time": 128759, "pitch": 35, "duration": 10, "velocity": 85}, {"time": 128880, "pitch": 42, "duration": 10, "velocity": 64}, {"time": 129120, "pitch": 35, "duration": 10, "velocity": 100}, {"time": 129120, "pitch": 42, "duration": 20, "velocity": 84}, {"time": 129361, "pitch": 42, "duration": 20, "velocity": 64}, {"time": 129361, "pitch": 69, "duration": 10, "velocity": 90}, {"time": 129482, "pitch": 69, "duration": 10, "velocity": 90}, {"time": 129602, "pitch": 38, "duration": 20, "velocity": 110}, {"time": 129602, "pitch": 42, "duration": 10, "velocity": 84}, {"time": 129843, "pitch": 35, "duration": 10, "velocity": 100}, {"time": 129843, "pitch": 42, "duration": 20, "velocity": 64}, {"time": 130084, "pitch": 42, "duration": 10, "velocity": 84}, {"time": 130202, "pitch": 35, "duration": 10, "velocity": 85}, {"time": 130320, "pitch": 35, "duration": 10, "velocity": 100}, {"time": 130320, "pitch": 42, "duration": 20, "velocity": 64}, {"time": 130556, "pitch": 38, "duration": 20, "velocity": 110}, {"time": 130556, "pitch": 42, "duration": 10, "velocity": 84}, {"time": 130676, "pitch": 38, "duration": 10, "velocity": 90}, {"time": 130797, "pitch": 35, "duration": 20, "velocity": 85}, {"time": 130797, "pitch": 42, "duration": 30, "velocity": 64}, {"time": 130797, "pitch": 45, "duration": 10, "velocity": 90}, {"time": 131038, "pitch": 35, "duration": 10, "velocity": 100}, {"time": 131038, "pitch": 42, "duration": 30, "velocity": 84}, {"time": 131038, "pitch": 49, "duration": 20, "velocity": 80}, {"time": 131279, "pitch": 42, "duration": 20, "velocity": 64}, {"time": 131279, "pitch": 69, "duration": 10, "velocity": 90}, {"time": 131399, "pitch": 69, "duration": 10, "velocity": 90}, {"time": 131519, "pitch": 38, "duration": 21, "velocity": 110}, {"time": 131519, "pitch": 42, "duration": 10, "velocity": 84}, {"time": 131760, "pitch": 35, "duration": 10, "velocity": 100}, {"time": 131760, "pitch": 42, "duration": 30, "velocity": 64}, {"time": 131760, "pitch": 57, "duration": 20, "velocity": 90}, {"time": 132001, "pitch": 42, "duration": 10, "velocity": 84}, {"time": 132242, "pitch": 35, "duration": 20, "velocity": 85}, {"time": 132242, "pitch": 46, "duration": 30, "velocity": 95}, {"time": 132242, "pitch": 48, "duration": 10, "velocity": 90}, {"time": 132483, "pitch": 38, "duration": 20, "velocity": 110}, {"time": 132483, "pitch": 42, "duration": 10, "velocity": 84}, {"time": 132603, "pitch": 35, "duration": 20, "velocity": 85}, {"time": 132603, "pitch": 45, "duration": 10, "velocity": 90}, {"time": 132724, "pitch": 41, "duration": 10, "velocity": 90}, {"time": 132724, "pitch": 42, "duration": 20, "velocity": 64}, {"time": 132965, "pitch": 35, "duration": 9, "velocity": 100}, {"time": 132965, "pitch": 42, "duration": 29, "velocity": 84}, {"time": 132965, "pitch": 49, "duration": 19, "velocity": 80}, {"time": 133201, "pitch": 42, "duration": 10, "velocity": 64}, {"time": 133437, "pitch": 38, "duration": 20, "velocity": 110}, {"time": 133437, "pitch": 42, "duration": 10, "velocity": 84}, {"time": 133678, "pitch": 35, "duration": 10, "velocity": 85}, {"time": 133678, "pitch": 42, "duration": 20, "velocity": 64}, {"time": 133918, "pitch": 35, "duration": 11, "velocity": 100}, {"time": 133918, "pitch": 42, "duration": 21, "velocity": 84}, {"time": 134159, "pitch": 42, "duration": 10, "velocity": 64}, {"time": 134400, "pitch": 38, "duration": 20, "velocity": 110}, {"time": 134400, "pitch": 42, "duration": 10, "velocity": 84}, {"time": 134641, "pitch": 35, "duration": 10, "velocity": 85}, {"time": 134641, "pitch": 42, "duration": 20, "velocity": 64}, {"time": 134882, "pitch": 35, "duration": 10, "velocity": 100}, {"time": 134882, "pitch": 42, "duration": 20, "velocity": 84}, {"time": 135123, "pitch": 42, "duration": 10, "velocity": 64}, {"time": 135364, "pitch": 38, "duration": 19, "velocity": 110}, {"time": 135364, "pitch": 42, "duration": 10, "velocity": 84}, {"time": 135600, "pitch": 35, "duration": 10, "velocity": 85}, {"time": 135600, "pitch": 42, "duration": 19, "velocity": 64}, {"time": 135836, "pitch": 35, "duration": 10, "velocity": 100}, {"time": 135836, "pitch": 42, "duration": 20, "velocity": 84}, {"time": 136077, "pitch": 42, "duration": 10, "velocity": 64}, {"time": 136318, "pitch": 38, "duration": 20, "velocity": 110}, {"time": 136318, "pitch": 42, "duration": 10, "velocity": 84}, {"time": 136558, "pitch": 35, "duration": 10, "velocity": 85}, {"time": 136558, "pitch": 46, "duration": 20, "velocity": 95}, {"time": 136799, "pitch": 35, "duration": 10, "velocity": 100}, {"time": 136799, "pitch": 42, "duration": 30, "velocity": 84}, {"time": 136799, "pitch": 57, "duration": 20, "velocity": 90}, {"time": 137040, "pitch": 42, "duration": 10, "velocity": 64}, {"time": 137281, "pitch": 38, "duration": 20, "velocity": 110}, {"time": 137281, "pitch": 42, "duration": 10, "velocity": 84}, {"time": 137522, "pitch": 35, "duration": 10, "velocity": 85}, {"time": 137522, "pitch": 42, "duration": 20, "velocity": 64}, {"time": 137763, "pitch": 35, "duration": 10, "velocity": 100}, {"time": 137763, "pitch": 42, "duration": 20, "velocity": 84}, {"time": 138004, "pitch": 42, "duration": 10, "velocity": 64}, {"time": 138244, "pitch": 38, "duration": 20, "velocity": 110}, {"time": 138244, "pitch": 42, "duration": 10, "velocity": 84}, {"time": 138481, "pitch": 35, "duration": 9, "velocity": 85}, {"time": 138481, "pitch": 42, "duration": 19, "velocity": 64}, {"time": 138717, "pitch": 35, "duration": 10, "velocity": 100}, {"time": 138717, "pitch": 42, "duration": 30, "velocity": 84}, {"time": 138717, "pitch": 49, "duration": 20, "velocity": 80}, {"time": 138957, "pitch": 42, "duration": 10, "velocity": 64}, {"time": 139198, "pitch": 38, "duration": 20, "velocity": 110}, {"time": 139198, "pitch": 42, "duration": 10, "velocity": 84}, {"time": 139439, "pitch": 35, "duration": 10, "velocity": 85}, {"time": 139439, "pitch": 42, "duration": 20, "velocity": 64}, {"time": 139680, "pitch": 35, "duration": 10, "velocity": 100}, {"time": 139680, "pitch": 42, "duration": 30, "velocity": 84}, {"time": 139680, "pitch": 57, "duration": 20, "velocity": 90}, {"time": 139921, "pitch": 46, "duration": 10, "velocity": 95}, {"time": 140162, "pitch": 38, "duration": 20, "velocity": 110}, {"time": 140162, "pitch": 42, "duration": 10, "velocity": 84}, {"time": 140403, "pitch": 35, "duration": 10, "velocity": 85}, {"time": 140403, "pitch": 46, "duration": 20, "velocity": 95}, {"time": 140644, "pitch": 35, "duration": 9, "velocity": 100}, {"time": 140644, "pitch": 42, "duration": 29, "velocity": 84}, {"time": 140644, "pitch": 49, "duration": 19, "velocity": 80}, {"time": 140880, "pitch": 42, "duration": 9, "velocity": 64}, {"time": 141116, "pitch": 38, "duration": 20, "velocity": 110}, {"time": 141116, "pitch": 42, "duration": 10, "velocity": 84}, {"time": 141356, "pitch": 35, "duration": 11, "velocity": 85}, {"time": 141356, "pitch": 42, "duration": 21, "velocity": 64}, {"time": 141597, "pitch": 35, "duration": 10, "velocity": 100}, {"time": 141597, "pitch": 42, "duration": 20, "velocity": 84}, {"time": 141838, "pitch": 42, "duration": 10, "velocity": 64}, {"time": 142079, "pitch": 38, "duration": 20, "velocity": 110}, {"time": 142079, "pitch": 42, "duration": 10, "velocity": 84}, {"time": 142320, "pitch": 35, "duration": 10, "velocity": 85}, {"time": 142320, "pitch": 42, "duration": 20, "velocity": 64}, {"time": 142561, "pitch": 35, "duration": 10, "velocity": 100}, {"time": 142561, "pitch": 42, "duration": 20, "velocity": 84}, {"time": 142802, "pitch": 42, "duration": 10, "velocity": 64}, {"time": 143043, "pitch": 38, "duration": 20, "velocity": 110}, {"time": 143043, "pitch": 42, "duration": 10, "velocity": 84}, {"time": 143284, "pitch": 35, "duration": 10, "velocity": 85}, {"time": 143284, "pitch": 42, "duration": 20, "velocity": 64}, {"time": 143524, "pitch": 35, "duration": 20, "velocity": 100}, {"time": 143524, "pitch": 42, "duration": 20, "velocity": 84}, {"time": 143524, "pitch": 45, "duration": 10, "velocity": 90}, {"time": 143544, "pitch": 41, "duration": 10, "velocity": 90}, {"time": 143760, "pitch": 42, "duration": 10, "velocity": 64}, {"time": 143996, "pitch": 38, "duration": 20, "velocity": 110}, {"time": 143996, "pitch": 42, "duration": 10, "velocity": 84}, {"time": 144237, "pitch": 35, "duration": 10, "velocity": 85}, {"time": 144237, "pitch": 38, "duration": 30, "velocity": 110}, {"time": 144237, "pitch": 46, "duration": 20, "velocity": 95}, {"time": 144478, "pitch": 35, "duration": 10, "velocity": 100}, {"time": 144478, "pitch": 42, "duration": 30, "velocity": 84}, {"time": 144478, "pitch": 57, "duration": 20, "velocity": 90}, {"time": 144719, "pitch": 42, "duration": 10, "velocity": 64}, {"time": 144960, "pitch": 38, "duration": 20, "velocity": 110}, {"time": 144960, "pitch": 42, "duration": 10, "velocity": 84}, {"time": 145201, "pitch": 35, "duration": 10, "velocity": 85}, {"time": 145201, "pitch": 42, "duration": 20, "velocity": 64}, {"time": 145442, "pitch": 35, "duration": 10, "velocity": 100}, {"time": 145442, "pitch": 42, "duration": 20, "velocity": 84}, {"time": 145683, "pitch": 42, "duration": 10, "velocity": 64}, {"time": 145923, "pitch": 38, "duration": 20, "velocity": 110}, {"time": 145923, "pitch": 42, "duration": 10, "velocity": 84}, {"time": 146159, "pitch": 35, "duration": 10, "velocity": 85}, {"time": 146159, "pitch": 42, "duration": 30, "velocity": 64}, {"time": 146159, "pitch": 49, "duration": 20, "velocity": 80}, {"time": 146636, "pitch": 35, "duration": 30, "velocity": 85}, {"time": 146636, "pitch": 44, "duration": 20, "velocity": 60}, {"time": 146636, "pitch": 48, "duration": 10, "velocity": 90}, {"time": 146697, "pitch": 45, "duration": 10, "velocity": 90}, {"time": 146757, "pitch": 41, "duration": 10, "velocity": 90}, {"time": 146857, "pitch": 38, "duration": 10, "velocity": 90}, {"time": 146877, "pitch": 38, "duration": 10, "velocity": 110}, {"time": 147118, "pitch": 35, "duration": 20, "velocity": 100}, {"time": 147118, "pitch": 44, "duration": 10, "velocity": 60}, {"time": 147118, "pitch": 57, "duration": 30, "velocity": 90}, {"time": 147359, "pitch": 45, "duration": 10, "velocity": 90}, {"time": 147379, "pitch": 41, "duration": 10, "velocity": 90}, {"time": 147600, "pitch": 35, "duration": 30, "velocity": 100}, {"time": 147600, "pitch": 41, "duration": 20, "velocity": 90}, {"time": 147600, "pitch": 44, "duration": 10, "velocity": 60}, {"time": 147600, "pitch": 49, "duration": 40, "velocity": 80}, {"time": 147821, "pitch": 38, "duration": 10, "velocity": 90}, {"time": 147841, "pitch": 38, "duration": 10, "velocity": 110}, {"time": 148082, "pitch": 35, "duration": 30, "velocity": 100}, {"time": 148082, "pitch": 44, "duration": 20, "velocity": 60}, {"time": 148082, "pitch": 48, "duration": 10, "velocity": 90}, {"time": 148082, "pitch": 57, "duration": 40, "velocity": 90}, {"time": 148322, "pitch": 45, "duration": 11, "velocity": 90}, {"time": 148343, "pitch": 41, "duration": 10, "velocity": 90}, {"time": 148543, "pitch": 38, "duration": 10, "velocity": 90}, {"time": 148563, "pitch": 38, "duration": 20, "velocity": 110}, {"time": 148563, "pitch": 44, "duration": 10, "velocity": 60}, {"time": 148804, "pitch": 35, "duration": 10, "velocity": 100}, {"time": 148804, "pitch": 49, "duration": 20, "velocity": 80}, {"time": 149040, "pitch": 44, "duration": 10, "velocity": 60}, {"time": 149276, "pitch": 46, "duration": 10, "velocity": 115}, {"time": 149517, "pitch": 35, "duration": 20, "velocity": 100}, {"time": 149517, "pitch": 44, "duration": 10, "velocity": 60}, {"time": 149517, "pitch": 49, "duration": 40, "velocity": 80}, {"time": 149517, "pitch": 57, "duration": 30, "velocity": 90}, {"time": 149738, "pitch": 38, "duration": 10, "velocity": 90}, {"time": 149758, "pitch": 38, "duration": 10, "velocity": 110}, {"time": 149999, "pitch": 35, "duration": 20, "velocity": 100}, {"time": 149999, "pitch": 44, "duration": 10, "velocity": 60}, {"time": 150240, "pitch": 35, "duration": 20, "velocity": 100}, {"time": 150240, "pitch": 42, "duration": 40, "velocity": 84}, {"time": 150240, "pitch": 49, "duration": 30, "velocity": 80}, {"time": 150240, "pitch": 54, "duration": 10, "velocity": 60}, {"time": 150360, "pitch": 54, "duration": 10, "velocity": 40}, {"time": 150481, "pitch": 42, "duration": 30, "velocity": 64}, {"time": 150481, "pitch": 54, "duration": 20, "velocity": 90}, {"time": 150481, "pitch": 69, "duration": 10, "velocity": 90}, {"time": 150601, "pitch": 54, "duration": 20, "velocity": 40}, {"time": 150601, "pitch": 69, "duration": 10, "velocity": 90}, {"time": 150722, "pitch": 38, "duration": 30, "velocity": 110}, {"time": 150722, "pitch": 42, "duration": 20, "velocity": 84}, {"time": 150722, "pitch": 54, "duration": 10, "velocity": 60}, {"time": 150842, "pitch": 54, "duration": 10, "velocity": 40}, {"time": 150962, "pitch": 35, "duration": 20, "velocity": 100}, {"time": 150962, "pitch": 42, "duration": 31, "velocity": 64}, {"time": 150962, "pitch": 54, "duration": 10, "velocity": 90}, {"time": 151083, "pitch": 54, "duration": 10, "velocity": 40}, {"time": 151203, "pitch": 42, "duration": 20, "velocity": 84}, {"time": 151203, "pitch": 54, "duration": 10, "velocity": 60}, {"time": 151321, "pitch": 54, "duration": 10, "velocity": 40}, {"time": 151439, "pitch": 35, "duration": 20, "velocity": 100}, {"time": 151439, "pitch": 42, "duration": 30, "velocity": 64}, {"time": 151439, "pitch": 54, "duration": 10, "velocity": 90}, {"time": 151557, "pitch": 54, "duration": 10, "velocity": 40}, {"time": 151675, "pitch": 38, "duration": 30, "velocity": 110}, {"time": 151675, "pitch": 42, "duration": 20, "velocity": 84}, {"time": 151675, "pitch": 54, "duration": 10, "velocity": 60}, {"time": 151796, "pitch": 54, "duration": 10, "velocity": 40}, {"time": 151916, "pitch": 35, "duration": 20, "velocity": 85}, {"time": 151916, "pitch": 42, "duration": 30, "velocity": 64}, {"time": 151916, "pitch": 54, "duration": 10, "velocity": 90}, {"time": 152037, "pitch": 54, "duration": 10, "velocity": 40}, {"time": 152157, "pitch": 35, "duration": 20, "velocity": 100}, {"time": 152157, "pitch": 42, "duration": 30, "velocity": 84}, {"time": 152157, "pitch": 54, "duration": 10, "velocity": 60}, {"time": 152277, "pitch": 54, "duration": 11, "velocity": 40}, {"time": 152398, "pitch": 42, "duration": 30, "velocity": 64}, {"time": 152398, "pitch": 54, "duration": 20, "velocity": 90}, {"time": 152398, "pitch": 69, "duration": 10, "velocity": 90}, {"time": 152518, "pitch": 54, "duration": 20, "velocity": 40}, {"time": 152518, "pitch": 69, "duration": 10, "velocity": 90}, {"time": 152639, "pitch": 38, "duration": 30, "velocity": 110}, {"time": 152639, "pitch": 42, "duration": 20, "velocity": 84}, {"time": 152639, "pitch": 54, "duration": 10, "velocity": 60}, {"time": 152759, "pitch": 54, "duration": 10, "velocity": 40}, {"time": 152880, "pitch": 35, "duration": 20, "velocity": 100}, {"time": 152880, "pitch": 42, "duration": 30, "velocity": 64}, {"time": 152880, "pitch": 54, "duration": 10, "velocity": 90}, {"time": 153000, "pitch": 54, "duration": 10, "velocity": 40}, {"time": 153121, "pitch": 42, "duration": 20, "velocity": 84}, {"time": 153121, "pitch": 54, "duration": 10, "velocity": 60}, {"time": 153241, "pitch": 54, "duration": 10, "velocity": 40}, {"time": 153361, "pitch": 35, "duration": 21, "velocity": 85}, {"time": 153361, "pitch": 46, "duration": 31, "velocity": 95}, {"time": 153361, "pitch": 54, "duration": 10, "velocity": 90}, {"time": 153482, "pitch": 54, "duration": 10, "velocity": 40}, {"time": 153602, "pitch": 38, "duration": 30, "velocity": 110}, {"time": 153602, "pitch": 42, "duration": 20, "velocity": 84}, {"time": 153602, "pitch": 54, "duration": 10, "velocity": 60}, {"time": 153723, "pitch": 35, "duration": 20, "velocity": 85}, {"time": 153723, "pitch": 54, "duration": 10, "velocity": 40}, {"time": 153843, "pitch": 42, "duration": 20, "velocity": 64}, {"time": 153843, "pitch": 54, "duration": 10, "velocity": 90}, {"time": 153964, "pitch": 54, "duration": 10, "velocity": 40}, {"time": 154084, "pitch": 35, "duration": 20, "velocity": 100}, {"time": 154084, "pitch": 42, "duration": 30, "velocity": 84}, {"time": 154084, "pitch": 54, "duration": 10, "velocity": 60}, {"time": 154202, "pitch": 54, "duration": 10, "velocity": 40}, {"time": 154320, "pitch": 42, "duration": 30, "velocity": 64}, {"time": 154320, "pitch": 54, "duration": 20, "velocity": 90}, {"time": 154320, "pitch": 69, "duration": 10, "velocity": 90}, {"time": 154438, "pitch": 54, "duration": 20, "velocity": 40}, {"time": 154438, "pitch": 69, "duration": 10, "velocity": 90}, {"time": 154556, "pitch": 38, "duration": 30, "velocity": 110}, {"time": 154556, "pitch": 42, "duration": 20, "velocity": 84}, {"time": 154556, "pitch": 54, "duration": 10, "velocity": 60}, {"time": 154676, "pitch": 54, "duration": 11, "velocity": 40}, {"time": 154797, "pitch": 35, "duration": 20, "velocity": 100}, {"time": 154797, "pitch": 42, "duration": 30, "velocity": 64}, {"time": 154797, "pitch": 54, "duration": 10, "velocity": 90}, {"time": 154917, "pitch": 54, "duration": 10, "velocity": 40}, {"time": 155038, "pitch": 42, "duration": 20, "velocity": 84}, {"time": 155038, "pitch": 54, "duration": 10, "velocity": 60}, {"time": 155158, "pitch": 54, "duration": 10, "velocity": 40}, {"time": 155279, "pitch": 35, "duration": 20, "velocity": 100}, {"time": 155279, "pitch": 42, "duration": 30, "velocity": 64}, {"time": 155279, "pitch": 54, "duration": 10, "velocity": 90}, {"time": 155399, "pitch": 54, "duration": 10, "velocity": 40}, {"time": 155520, "pitch": 38, "duration": 30, "velocity": 110}, {"time": 155520, "pitch": 42, "duration": 20, "velocity": 84}, {"time": 155520, "pitch": 54, "duration": 10, "velocity": 60}, {"time": 155640, "pitch": 54, "duration": 10, "velocity": 40}, {"time": 155760, "pitch": 35, "duration": 21, "velocity": 85}, {"time": 155760, "pitch": 42, "duration": 31, "velocity": 64}, {"time": 155760, "pitch": 54, "duration": 11, "velocity": 90}, {"time": 155881, "pitch": 54, "duration": 10, "velocity": 40}, {"time": 156001, "pitch": 35, "duration": 20, "velocity": 100}, {"time": 156001, "pitch": 42, "duration": 30, "velocity": 84}, {"time": 156001, "pitch": 54, "duration": 10, "velocity": 60}, {"time": 156122, "pitch": 54, "duration": 10, "velocity": 40}, {"time": 156242, "pitch": 42, "duration": 30, "velocity": 64}, {"time": 156242, "pitch": 54, "duration": 20, "velocity": 90}, {"time": 156242, "pitch": 69, "duration": 10, "velocity": 90}, {"time": 156363, "pitch": 54, "duration": 20, "velocity": 40}, {"time": 156363, "pitch": 69, "duration": 10, "velocity": 90}, {"time": 156483, "pitch": 38, "duration": 30, "velocity": 110}, {"time": 156483, "pitch": 42, "duration": 20, "velocity": 84}, {"time": 156483, "pitch": 54, "duration": 10, "velocity": 60}, {"time": 156604, "pitch": 54, "duration": 10, "velocity": 40}, {"time": 156724, "pitch": 35, "duration": 20, "velocity": 100}, {"time": 156724, "pitch": 42, "duration": 30, "velocity": 64}, {"time": 156724, "pitch": 54, "duration": 10, "velocity": 90}, {"time": 156844, "pitch": 54, "duration": 10, "velocity": 40}, {"time": 156965, "pitch": 42, "duration": 19, "velocity": 84}, {"time": 156965, "pitch": 54, "duration": 10, "velocity": 60}, {"time": 157083, "pitch": 54, "duration": 10, "velocity": 40}, {"time": 157201, "pitch": 35, "duration": 20, "velocity": 85}, {"time": 157201, "pitch": 46, "duration": 29, "velocity": 95}, {"time": 157201, "pitch": 54, "duration": 10, "velocity": 90}, {"time": 157319, "pitch": 54, "duration": 10, "velocity": 40}, {"time": 157437, "pitch": 38, "duration": 30, "velocity": 110}, {"time": 157437, "pitch": 42, "duration": 20, "velocity": 84}, {"time": 157437, "pitch": 54, "duration": 10, "velocity": 60}, {"time": 157557, "pitch": 35, "duration": 20, "velocity": 85}, {"time": 157557, "pitch": 54, "duration": 10, "velocity": 40}, {"time": 157678, "pitch": 42, "duration": 20, "velocity": 64}, {"time": 157678, "pitch": 54, "duration": 10, "velocity": 90}, {"time": 157798, "pitch": 54, "duration": 10, "velocity": 40}, {"time": 157919, "pitch": 35, "duration": 20, "velocity": 100}, {"time": 157919, "pitch": 42, "duration": 40, "velocity": 84}, {"time": 157919, "pitch": 49, "duration": 30, "velocity": 80}, {"time": 157919, "pitch": 54, "duration": 10, "velocity": 60}, {"time": 158039, "pitch": 54, "duration": 10, "velocity": 40}, {"time": 158160, "pitch": 42, "duration": 30, "velocity": 64}, {"time": 158160, "pitch": 54, "duration": 20, "velocity": 90}, {"time": 158160, "pitch": 69, "duration": 10, "velocity": 90}, {"time": 158280, "pitch": 54, "duration": 20, "velocity": 40}, {"time": 158280, "pitch": 69, "duration": 10, "velocity": 90}, {"time": 158400, "pitch": 38, "duration": 31, "velocity": 110}, {"time": 158400, "pitch": 42, "duration": 20, "velocity": 84}, {"time": 158400, "pitch": 54, "duration": 10, "velocity": 60}, {"time": 158521, "pitch": 54, "duration": 10, "velocity": 40}, {"time": 158641, "pitch": 35, "duration": 20, "velocity": 100}, {"time": 158641, "pitch": 42, "duration": 30, "velocity": 64}, {"time": 158641, "pitch": 54, "duration": 10, "velocity": 90}, {"time": 158762, "pitch": 54, "duration": 10, "velocity": 40}, {"time": 158882, "pitch": 42, "duration": 20, "velocity": 84}, {"time": 158882, "pitch": 54, "duration": 10, "velocity": 60}, {"time": 159003, "pitch": 54, "duration": 10, "velocity": 40}, {"time": 159123, "pitch": 35, "duration": 20, "velocity": 100}, {"time": 159123, "pitch": 42, "duration": 30, "velocity": 64}, {"time": 159123, "pitch": 54, "duration": 10, "velocity": 90}, {"time": 159243, "pitch": 54, "duration": 11, "velocity": 40}, {"time": 159364, "pitch": 38, "duration": 29, "velocity": 110}, {"time": 159364, "pitch": 42, "duration": 20, "velocity": 84}, {"time": 159364, "pitch": 54, "duration": 10, "velocity": 60}, {"time": 159482, "pitch": 54, "duration": 10, "velocity": 40}, {"time": 159600, "pitch": 35, "duration": 20, "velocity": 85}, {"time": 159600, "pitch": 42, "duration": 29, "velocity": 64}, {"time": 159600, "pitch": 54, "duration": 10, "velocity": 90}, {"time": 159718, "pitch": 54, "duration": 10, "velocity": 40}, {"time": 159836, "pitch": 35, "duration": 20, "velocity": 100}, {"time": 159836, "pitch": 42, "duration": 40, "velocity": 84}, {"time": 159836, "pitch": 54, "duration": 10, "velocity": 60}, {"time": 159836, "pitch": 57, "duration": 30, "velocity": 90}, {"time": 159956, "pitch": 54, "duration": 10, "velocity": 40}, {"time": 160077, "pitch": 42, "duration": 30, "velocity": 64}, {"time": 160077, "pitch": 54, "duration": 20, "velocity": 90}, {"time": 160077, "pitch": 69, "duration": 10, "velocity": 90}, {"time": 160197, "pitch": 54, "duration": 20, "velocity": 40}, {"time": 160197, "pitch": 69, "duration": 10, "velocity": 90}, {"time": 160318, "pitch": 38, "duration": 30, "velocity": 110}, {"time": 160318, "pitch": 42, "duration": 20, "velocity": 84}, {"time": 160318, "pitch": 54, "duration": 10, "velocity": 60}, {"time": 160438, "pitch": 54, "duration": 10, "velocity": 40}, {"time": 160559, "pitch": 35, "duration": 20, "velocity": 100}, {"time": 160559, "pitch": 42, "duration": 30, "velocity": 64}, {"time": 160559, "pitch": 54, "duration": 10, "velocity": 90}, {"time": 160679, "pitch": 54, "duration": 10, "velocity": 40}, {"time": 160799, "pitch": 42, "duration": 20, "velocity": 84}, {"time": 160799, "pitch": 54, "duration": 10, "velocity": 60}, {"time": 160920, "pitch": 54, "duration": 10, "velocity": 40}, {"time": 161040, "pitch": 35, "duration": 20, "velocity": 85}, {"time": 161040, "pitch": 46, "duration": 30, "velocity": 95}, {"time": 161040, "pitch": 54, "duration": 10, "velocity": 90}, {"time": 161161, "pitch": 54, "duration": 10, "velocity": 40}, {"time": 161281, "pitch": 38, "duration": 30, "velocity": 110}, {"time": 161281, "pitch": 42, "duration": 20, "velocity": 84}, {"time": 161281, "pitch": 54, "duration": 10, "velocity": 60}, {"time": 161402, "pitch": 35, "duration": 20, "velocity": 85}, {"time": 161402, "pitch": 54, "duration": 10, "velocity": 40}, {"time": 161522, "pitch": 42, "duration": 20, "velocity": 64}, {"time": 161522, "pitch": 54, "duration": 10, "velocity": 90}, {"time": 161643, "pitch": 54, "duration": 10, "velocity": 40}, {"time": 161763, "pitch": 35, "duration": 20, "velocity": 100}, {"time": 161763, "pitch": 42, "duration": 40, "velocity": 84}, {"time": 161763, "pitch": 49, "duration": 30, "velocity": 80}, {"time": 161763, "pitch": 54, "duration": 10, "velocity": 60}, {"time": 161883, "pitch": 54, "duration": 10, "velocity": 40}, {"time": 162004, "pitch": 42, "duration": 30, "velocity": 64}, {"time": 162004, "pitch": 54, "duration": 20, "velocity": 90}, {"time": 162004, "pitch": 69, "duration": 10, "velocity": 90}, {"time": 162124, "pitch": 54, "duration": 20, "velocity": 40}, {"time": 162124, "pitch": 69, "duration": 10, "velocity": 90}, {"time": 162245, "pitch": 38, "duration": 29, "velocity": 110}, {"time": 162245, "pitch": 42, "duration": 19, "velocity": 84}, {"time": 162245, "pitch": 54, "duration": 9, "velocity": 60}, {"time": 162363, "pitch": 54, "duration": 9, "velocity": 40}, {"time": 162481, "pitch": 35, "duration": 19, "velocity": 100}, {"time": 162481, "pitch": 42, "duration": 29, "velocity": 64}, {"time": 162481, "pitch": 54, "duration": 10, "velocity": 90}, {"time": 162599, "pitch": 54, "duration": 10, "velocity": 40}, {"time": 162717, "pitch": 42, "duration": 20, "velocity": 84}, {"time": 162717, "pitch": 54, "duration": 10, "velocity": 60}, {"time": 162837, "pitch": 54, "duration": 10, "velocity": 40}, {"time": 162958, "pitch": 35, "duration": 20, "velocity": 100}, {"time": 162958, "pitch": 42, "duration": 30, "velocity": 64}, {"time": 162958, "pitch": 54, "duration": 10, "velocity": 90}, {"time": 163078, "pitch": 54, "duration": 10, "velocity": 40}, {"time": 163198, "pitch": 38, "duration": 31, "velocity": 110}, {"time": 163198, "pitch": 42, "duration": 21, "velocity": 84}, {"time": 163198, "pitch": 54, "duration": 10, "velocity": 60}, {"time": 163319, "pitch": 54, "duration": 10, "velocity": 40}, {"time": 163439, "pitch": 35, "duration": 20, "velocity": 85}, {"time": 163439, "pitch": 42, "duration": 30, "velocity": 64}, {"time": 163439, "pitch": 54, "duration": 10, "velocity": 90}, {"time": 163560, "pitch": 54, "duration": 10, "velocity": 40}, {"time": 163680, "pitch": 35, "duration": 20, "velocity": 100}, {"time": 163680, "pitch": 42, "duration": 40, "velocity": 84}, {"time": 163680, "pitch": 54, "duration": 10, "velocity": 60}, {"time": 163680, "pitch": 57, "duration": 30, "velocity": 90}, {"time": 163801, "pitch": 54, "duration": 10, "velocity": 40}, {"time": 163921, "pitch": 42, "duration": 30, "velocity": 64}, {"time": 163921, "pitch": 54, "duration": 20, "velocity": 90}, {"time": 163921, "pitch": 69, "duration": 10, "velocity": 90}, {"time": 164042, "pitch": 54, "duration": 20, "velocity": 40}, {"time": 164042, "pitch": 69, "duration": 10, "velocity": 90}, {"time": 164162, "pitch": 38, "duration": 30, "velocity": 110}, {"time": 164162, "pitch": 42, "duration": 20, "velocity": 84}, {"time": 164162, "pitch": 54, "duration": 10, "velocity": 60}, {"time": 164282, "pitch": 54, "duration": 10, "velocity": 40}, {"time": 164403, "pitch": 35, "duration": 20, "velocity": 100}, {"time": 164403, "pitch": 42, "duration": 30, "velocity": 64}, {"time": 164403, "pitch": 54, "duration": 10, "velocity": 90}, {"time": 164523, "pitch": 54, "duration": 10, "velocity": 40}, {"time": 164644, "pitch": 42, "duration": 19, "velocity": 84}, {"time": 164644, "pitch": 45, "duration": 19, "velocity": 90}, {"time": 164644, "pitch": 54, "duration": 10, "velocity": 60}, {"time": 164663, "pitch": 41, "duration": 10, "velocity": 90}, {"time": 164762, "pitch": 54, "duration": 10, "velocity": 40}, {"time": 164880, "pitch": 35, "duration": 19, "velocity": 85}, {"time": 164880, "pitch": 38, "duration": 39, "velocity": 100}, {"time": 164880, "pitch": 46, "duration": 29, "velocity": 95}, {"time": 164880, "pitch": 54, "duration": 10, "velocity": 90}, {"time": 164998, "pitch": 54, "duration": 10, "velocity": 40}, {"time": 165116, "pitch": 38, "duration": 30, "velocity": 110}, {"time": 165116, "pitch": 42, "duration": 20, "velocity": 84}, {"time": 165116, "pitch": 54, "duration": 10, "velocity": 60}, {"time": 165236, "pitch": 35, "duration": 20, "velocity": 85}, {"time": 165236, "pitch": 54, "duration": 10, "velocity": 40}, {"time": 165357, "pitch": 38, "duration": 30, "velocity": 110}, {"time": 165357, "pitch": 42, "duration": 20, "velocity": 64}, {"time": 165357, "pitch": 54, "duration": 10, "velocity": 90}, {"time": 165477, "pitch": 38, "duration": 20, "velocity": 110}, {"time": 165477, "pitch": 54, "duration": 10, "velocity": 40}, {"time": 165597, "pitch": 35, "duration": 21, "velocity": 100}, {"time": 165597, "pitch": 42, "duration": 41, "velocity": 84}, {"time": 165597, "pitch": 49, "duration": 31, "velocity": 80}, {"time": 165597, "pitch": 54, "duration": 11, "velocity": 60}, {"time": 165718, "pitch": 54, "duration": 10, "velocity": 40}, {"time": 165838, "pitch": 42, "duration": 30, "velocity": 64}, {"time": 165838, "pitch": 54, "duration": 20, "velocity": 90}, {"time": 165838, "pitch": 69, "duration": 10, "velocity": 90}, {"time": 165959, "pitch": 54, "duration": 20, "velocity": 40}, {"time": 165959, "pitch": 69, "duration": 10, "velocity": 90}, {"time": 166079, "pitch": 38, "duration": 30, "velocity": 110}, {"time": 166079, "pitch": 42, "duration": 20, "velocity": 84}, {"time": 166079, "pitch": 54, "duration": 10, "velocity": 60}, {"time": 166200, "pitch": 54, "duration": 10, "velocity": 40}, {"time": 166320, "pitch": 35, "duration": 20, "velocity": 100}, {"time": 166320, "pitch": 42, "duration": 30, "velocity": 64}, {"time": 166320, "pitch": 54, "duration": 10, "velocity": 90}, {"time": 166441, "pitch": 54, "duration": 10, "velocity": 40}, {"time": 166561, "pitch": 42, "duration": 20, "velocity": 84}, {"time": 166561, "pitch": 54, "duration": 10, "velocity": 60}, {"time": 166681, "pitch": 54, "duration": 11, "velocity": 40}, {"time": 166802, "pitch": 35, "duration": 20, "velocity": 100}, {"time": 166802, "pitch": 42, "duration": 30, "velocity": 64}, {"time": 166802, "pitch": 54, "duration": 10, "velocity": 90}, {"time": 166922, "pitch": 54, "duration": 10, "velocity": 40}, {"time": 167043, "pitch": 38, "duration": 30, "velocity": 110}, {"time": 167043, "pitch": 42, "duration": 20, "velocity": 84}, {"time": 167043, "pitch": 54, "duration": 10, "velocity": 60}, {"time": 167163, "pitch": 54, "duration": 10, "velocity": 40}, {"time": 167284, "pitch": 35, "duration": 20, "velocity": 85}, {"time": 167284, "pitch": 42, "duration": 30, "velocity": 64}, {"time": 167284, "pitch": 54, "duration": 10, "velocity": 90}, {"time": 167404, "pitch": 54, "duration": 10, "velocity": 40}, {"time": 167524, "pitch": 35, "duration": 20, "velocity": 100}, {"time": 167524, "pitch": 42, "duration": 30, "velocity": 84}, {"time": 167524, "pitch": 54, "duration": 10, "velocity": 60}, {"time": 167643, "pitch": 54, "duration": 9, "velocity": 40}, {"time": 167761, "pitch": 42, "duration": 29, "velocity": 64}, {"time": 167761, "pitch": 54, "duration": 19, "velocity": 90}, {"time": 167761, "pitch": 69, "duration": 9, "velocity": 90}, {"time": 167879, "pitch": 54, "duration": 19, "velocity": 40}, {"time": 167879, "pitch": 69, "duration": 9, "velocity": 90}, {"time": 167997, "pitch": 38, "duration": 30, "velocity": 110}, {"time": 167997, "pitch": 42, "duration": 20, "velocity": 84}, {"time": 167997, "pitch": 54, "duration": 10, "velocity": 60}, {"time": 168117, "pitch": 54, "duration": 10, "velocity": 40}, {"time": 168237, "pitch": 35, "duration": 20, "velocity": 100}, {"time": 168237, "pitch": 42, "duration": 31, "velocity": 64}, {"time": 168237, "pitch": 54, "duration": 10, "velocity": 90}, {"time": 168358, "pitch": 54, "duration": 10, "velocity": 40}, {"time": 168478, "pitch": 42, "duration": 20, "velocity": 84}, {"time": 168478, "pitch": 54, "duration": 10, "velocity": 60}, {"time": 168599, "pitch": 54, "duration": 10, "velocity": 40}, {"time": 168719, "pitch": 35, "duration": 20, "velocity": 85}, {"time": 168719, "pitch": 46, "duration": 30, "velocity": 95}, {"time": 168719, "pitch": 54, "duration": 10, "velocity": 90}, {"time": 168840, "pitch": 54, "duration": 10, "velocity": 40}, {"time": 168960, "pitch": 38, "duration": 30, "velocity": 110}, {"time": 168960, "pitch": 42, "duration": 20, "velocity": 84}, {"time": 168960, "pitch": 54, "duration": 10, "velocity": 60}, {"time": 169081, "pitch": 35, "duration": 20, "velocity": 85}, {"time": 169081, "pitch": 54, "duration": 10, "velocity": 40}, {"time": 169201, "pitch": 42, "duration": 20, "velocity": 64}, {"time": 169201, "pitch": 54, "duration": 10, "velocity": 90}, {"time": 169321, "pitch": 54, "duration": 10, "velocity": 40}, {"time": 169442, "pitch": 35, "duration": 20, "velocity": 100}, {"time": 169442, "pitch": 42, "duration": 30, "velocity": 84}, {"time": 169442, "pitch": 54, "duration": 10, "velocity": 60}, {"time": 169562, "pitch": 54, "duration": 10, "velocity": 40}, {"time": 169683, "pitch": 42, "duration": 30, "velocity": 64}, {"time": 169683, "pitch": 54, "duration": 20, "velocity": 90}, {"time": 169683, "pitch": 69, "duration": 10, "velocity": 90}, {"time": 169803, "pitch": 54, "duration": 20, "velocity": 40}, {"time": 169803, "pitch": 69, "duration": 10, "velocity": 90}, {"time": 169924, "pitch": 38, "duration": 29, "velocity": 110}, {"time": 169924, "pitch": 42, "duration": 19, "velocity": 84}, {"time": 169924, "pitch": 54, "duration": 9, "velocity": 60}, {"time": 170042, "pitch": 54, "duration": 9, "velocity": 40}, {"time": 170160, "pitch": 35, "duration": 19, "velocity": 100}, {"time": 170160, "pitch": 42, "duration": 29, "velocity": 64}, {"time": 170160, "pitch": 54, "duration": 9, "velocity": 90}, {"time": 170278, "pitch": 54, "duration": 9, "velocity": 40}, {"time": 170396, "pitch": 42, "duration": 20, "velocity": 84}, {"time": 170396, "pitch": 54, "duration": 10, "velocity": 60}, {"time": 170516, "pitch": 54, "duration": 10, "velocity": 40}, {"time": 170636, "pitch": 35, "duration": 21, "velocity": 100}, {"time": 170636, "pitch": 42, "duration": 31, "velocity": 64}, {"time": 170636, "pitch": 54, "duration": 10, "velocity": 90}, {"time": 170757, "pitch": 54, "duration": 10, "velocity": 40}, {"time": 170877, "pitch": 38, "duration": 30, "velocity": 110}, {"time": 170877, "pitch": 42, "duration": 20, "velocity": 84}, {"time": 170877, "pitch": 54, "duration": 10, "velocity": 60}, {"time": 170998, "pitch": 54, "duration": 10, "velocity": 40}, {"time": 171118, "pitch": 35, "duration": 20, "velocity": 85}, {"time": 171118, "pitch": 42, "duration": 30, "velocity": 64}, {"time": 171118, "pitch": 54, "duration": 10, "velocity": 90}, {"time": 171239, "pitch": 54, "duration": 10, "velocity": 40}, {"time": 171359, "pitch": 35, "duration": 20, "velocity": 100}, {"time": 171359, "pitch": 42, "duration": 30, "velocity": 84}, {"time": 171359, "pitch": 54, "duration": 10, "velocity": 60}, {"time": 171480, "pitch": 54, "duration": 10, "velocity": 40}, {"time": 171600, "pitch": 42, "duration": 30, "velocity": 64}, {"time": 171600, "pitch": 54, "duration": 20, "velocity": 90}, {"time": 171600, "pitch": 69, "duration": 10, "velocity": 90}, {"time": 171720, "pitch": 54, "duration": 20, "velocity": 40}, {"time": 171720, "pitch": 69, "duration": 10, "velocity": 90}, {"time": 171841, "pitch": 38, "duration": 30, "velocity": 110}, {"time": 171841, "pitch": 42, "duration": 20, "velocity": 84}, {"time": 171841, "pitch": 54, "duration": 10, "velocity": 60}, {"time": 171961, "pitch": 54, "duration": 10, "velocity": 40}, {"time": 172082, "pitch": 35, "duration": 20, "velocity": 100}, {"time": 172082, "pitch": 42, "duration": 30, "velocity": 64}, {"time": 172082, "pitch": 54, "duration": 10, "velocity": 90}, {"time": 172202, "pitch": 54, "duration": 10, "velocity": 40}, {"time": 172323, "pitch": 42, "duration": 20, "velocity": 84}, {"time": 172323, "pitch": 54, "duration": 10, "velocity": 60}, {"time": 172443, "pitch": 54, "duration": 10, "velocity": 40}, {"time": 172564, "pitch": 35, "duration": 20, "velocity": 85}, {"time": 172564, "pitch": 46, "duration": 30, "velocity": 95}, {"time": 172564, "pitch": 54, "duration": 10, "velocity": 90}, {"time": 172684, "pitch": 54, "duration": 10, "velocity": 40}, {"time": 172804, "pitch": 38, "duration": 30, "velocity": 110}, {"time": 172804, "pitch": 42, "duration": 20, "velocity": 84}, {"time": 172804, "pitch": 54, "duration": 10, "velocity": 60}, {"time": 172922, "pitch": 35, "duration": 20, "velocity": 85}, {"time": 172922, "pitch": 54, "duration": 10, "velocity": 40}, {"time": 173040, "pitch": 42, "duration": 20, "velocity": 64}, {"time": 173040, "pitch": 54, "duration": 10, "velocity": 90}, {"time": 173158, "pitch": 54, "duration": 10, "velocity": 40}, {"time": 173276, "pitch": 35, "duration": 20, "velocity": 100}, {"time": 173276, "pitch": 42, "duration": 41, "velocity": 84}, {"time": 173276, "pitch": 49, "duration": 30, "velocity": 80}, {"time": 173276, "pitch": 54, "duration": 10, "velocity": 60}, {"time": 173397, "pitch": 54, "duration": 10, "velocity": 40}, {"time": 173517, "pitch": 42, "duration": 30, "velocity": 64}, {"time": 173517, "pitch": 54, "duration": 20, "velocity": 90}, {"time": 173517, "pitch": 69, "duration": 10, "velocity": 90}, {"time": 173638, "pitch": 54, "duration": 20, "velocity": 40}, {"time": 173638, "pitch": 69, "duration": 10, "velocity": 90}, {"time": 173758, "pitch": 38, "duration": 30, "velocity": 110}, {"time": 173758, "pitch": 42, "duration": 20, "velocity": 84}, {"time": 173758, "pitch": 54, "duration": 10, "velocity": 60}, {"time": 173879, "pitch": 54, "duration": 10, "velocity": 40}, {"time": 173999, "pitch": 35, "duration": 20, "velocity": 100}, {"time": 173999, "pitch": 42, "duration": 30, "velocity": 64}, {"time": 173999, "pitch": 54, "duration": 10, "velocity": 90}, {"time": 174119, "pitch": 54, "duration": 10, "velocity": 40}, {"time": 174240, "pitch": 42, "duration": 20, "velocity": 84}, {"time": 174240, "pitch": 54, "duration": 10, "velocity": 60}, {"time": 174360, "pitch": 54, "duration": 10, "velocity": 40}, {"time": 174481, "pitch": 35, "duration": 20, "velocity": 100}, {"time": 174481, "pitch": 42, "duration": 30, "velocity": 64}, {"time": 174481, "pitch": 54, "duration": 10, "velocity": 90}, {"time": 174601, "pitch": 54, "duration": 10, "velocity": 40}, {"time": 174722, "pitch": 38, "duration": 30, "velocity": 110}, {"time": 174722, "pitch": 42, "duration": 20, "velocity": 84}, {"time": 174722, "pitch": 54, "duration": 10, "velocity": 60}, {"time": 174842, "pitch": 54, "duration": 10, "velocity": 40}, {"time": 174963, "pitch": 35, "duration": 20, "velocity": 85}, {"time": 174963, "pitch": 42, "duration": 30, "velocity": 64}, {"time": 174963, "pitch": 54, "duration": 10, "velocity": 90}, {"time": 175083, "pitch": 54, "duration": 10, "velocity": 40}, {"time": 175203, "pitch": 35, "duration": 20, "velocity": 100}, {"time": 175203, "pitch": 42, "duration": 40, "velocity": 84}, {"time": 175203, "pitch": 54, "duration": 10, "velocity": 60}, {"time": 175203, "pitch": 57, "duration": 30, "velocity": 90}, {"time": 175321, "pitch": 54, "duration": 10, "velocity": 40}, {"time": 175439, "pitch": 42, "duration": 30, "velocity": 64}, {"time": 175439, "pitch": 54, "duration": 20, "velocity": 90}, {"time": 175439, "pitch": 69, "duration": 10, "velocity": 90}, {"time": 175557, "pitch": 54, "duration": 20, "velocity": 40}, {"time": 175557, "pitch": 69, "duration": 10, "velocity": 90}, {"time": 175675, "pitch": 38, "duration": 31, "velocity": 110}, {"time": 175675, "pitch": 42, "duration": 20, "velocity": 84}, {"time": 175675, "pitch": 54, "duration": 10, "velocity": 60}, {"time": 175796, "pitch": 54, "duration": 10, "velocity": 40}, {"time": 175916, "pitch": 35, "duration": 20, "velocity": 100}, {"time": 175916, "pitch": 42, "duration": 30, "velocity": 64}, {"time": 175916, "pitch": 54, "duration": 10, "velocity": 90}, {"time": 176037, "pitch": 54, "duration": 10, "velocity": 40}, {"time": 176157, "pitch": 42, "duration": 20, "velocity": 84}, {"time": 176157, "pitch": 54, "duration": 10, "velocity": 60}, {"time": 176278, "pitch": 54, "duration": 10, "velocity": 40}, {"time": 176398, "pitch": 35, "duration": 20, "velocity": 85}, {"time": 176398, "pitch": 46, "duration": 30, "velocity": 95}, {"time": 176398, "pitch": 54, "duration": 10, "velocity": 90}, {"time": 176518, "pitch": 54, "duration": 11, "velocity": 40}, {"time": 176639, "pitch": 38, "duration": 30, "velocity": 110}, {"time": 176639, "pitch": 42, "duration": 20, "velocity": 84}, {"time": 176639, "pitch": 54, "duration": 10, "velocity": 60}, {"time": 176759, "pitch": 35, "duration": 20, "velocity": 85}, {"time": 176759, "pitch": 54, "duration": 10, "velocity": 40}, {"time": 176880, "pitch": 42, "duration": 20, "velocity": 64}, {"time": 176880, "pitch": 54, "duration": 10, "velocity": 90}, {"time": 177000, "pitch": 54, "duration": 10, "velocity": 40}, {"time": 177121, "pitch": 35, "duration": 20, "velocity": 100}, {"time": 177121, "pitch": 42, "duration": 40, "velocity": 84}, {"time": 177121, "pitch": 49, "duration": 30, "velocity": 80}, {"time": 177121, "pitch": 54, "duration": 10, "velocity": 60}, {"time": 177241, "pitch": 54, "duration": 10, "velocity": 40}, {"time": 177362, "pitch": 42, "duration": 30, "velocity": 64}, {"time": 177362, "pitch": 54, "duration": 20, "velocity": 90}, {"time": 177362, "pitch": 69, "duration": 10, "velocity": 90}, {"time": 177482, "pitch": 54, "duration": 20, "velocity": 40}, {"time": 177482, "pitch": 69, "duration": 10, "velocity": 90}, {"time": 177602, "pitch": 38, "duration": 31, "velocity": 110}, {"time": 177602, "pitch": 42, "duration": 21, "velocity": 84}, {"time": 177602, "pitch": 54, "duration": 11, "velocity": 60}, {"time": 177723, "pitch": 54, "duration": 10, "velocity": 40}, {"time": 177843, "pitch": 35, "duration": 20, "velocity": 100}, {"time": 177843, "pitch": 42, "duration": 30, "velocity": 64}, {"time": 177843, "pitch": 54, "duration": 10, "velocity": 90}, {"time": 177964, "pitch": 54, "duration": 10, "velocity": 40}, {"time": 178084, "pitch": 42, "duration": 20, "velocity": 84}, {"time": 178084, "pitch": 54, "duration": 10, "velocity": 60}, {"time": 178202, "pitch": 54, "duration": 10, "velocity": 40}, {"time": 178320, "pitch": 35, "duration": 20, "velocity": 100}, {"time": 178320, "pitch": 42, "duration": 30, "velocity": 64}, {"time": 178320, "pitch": 54, "duration": 10, "velocity": 90}, {"time": 178438, "pitch": 54, "duration": 10, "velocity": 40}, {"time": 178556, "pitch": 38, "duration": 30, "velocity": 110}, {"time": 178556, "pitch": 42, "duration": 20, "velocity": 84}, {"time": 178556, "pitch": 54, "duration": 10, "velocity": 60}, {"time": 178677, "pitch": 54, "duration": 10, "velocity": 40}, {"time": 178797, "pitch": 35, "duration": 20, "velocity": 85}, {"time": 178797, "pitch": 42, "duration": 30, "velocity": 64}, {"time": 178797, "pitch": 54, "duration": 10, "velocity": 90}, {"time": 178918, "pitch": 54, "duration": 10, "velocity": 40}, {"time": 179038, "pitch": 35, "duration": 20, "velocity": 100}, {"time": 179038, "pitch": 42, "duration": 40, "velocity": 84}, {"time": 179038, "pitch": 54, "duration": 10, "velocity": 60}, {"time": 179038, "pitch": 57, "duration": 30, "velocity": 90}, {"time": 179158, "pitch": 54, "duration": 10, "velocity": 40}, {"time": 179279, "pitch": 42, "duration": 30, "velocity": 64}, {"time": 179279, "pitch": 54, "duration": 20, "velocity": 90}, {"time": 179279, "pitch": 69, "duration": 10, "velocity": 90}, {"time": 179399, "pitch": 54, "duration": 20, "velocity": 40}, {"time": 179399, "pitch": 69, "duration": 10, "velocity": 90}, {"time": 179520, "pitch": 38, "duration": 30, "velocity": 110}, {"time": 179520, "pitch": 42, "duration": 20, "velocity": 84}, {"time": 179520, "pitch": 54, "duration": 10, "velocity": 60}, {"time": 179640, "pitch": 54, "duration": 10, "velocity": 40}, {"time": 179761, "pitch": 35, "duration": 20, "velocity": 100}, {"time": 179761, "pitch": 42, "duration": 40, "velocity": 64}, {"time": 179761, "pitch": 49, "duration": 30, "velocity": 80}, {"time": 179761, "pitch": 54, "duration": 10, "velocity": 90}, {"time": 179881, "pitch": 54, "duration": 10, "velocity": 40}, {"time": 180002, "pitch": 42, "duration": 20, "velocity": 84}, {"time": 180002, "pitch": 54, "duration": 10, "velocity": 60}, {"time": 180122, "pitch": 54, "duration": 10, "velocity": 40}, {"time": 180242, "pitch": 46, "duration": 30, "velocity": 95}, {"time": 180242, "pitch": 48, "duration": 20, "velocity": 90}, {"time": 180242, "pitch": 54, "duration": 10, "velocity": 90}, {"time": 180363, "pitch": 54, "duration": 10, "velocity": 40}, {"time": 180483, "pitch": 38, "duration": 40, "velocity": 110}, {"time": 180483, "pitch": 42, "duration": 30, "velocity": 84}, {"time": 180483, "pitch": 45, "duration": 20, "velocity": 90}, {"time": 180483, "pitch": 54, "duration": 10, "velocity": 60}, {"time": 180601, "pitch": 54, "duration": 10, "velocity": 40}, {"time": 180719, "pitch": 41, "duration": 20, "velocity": 90}, {"time": 180719, "pitch": 42, "duration": 30, "velocity": 64}, {"time": 180719, "pitch": 54, "duration": 10, "velocity": 90}, {"time": 180837, "pitch": 54, "duration": 10, "velocity": 40}, {"time": 180955, "pitch": 35, "duration": 20, "velocity": 100}, {"time": 180955, "pitch": 42, "duration": 40, "velocity": 84}, {"time": 180955, "pitch": 49, "duration": 30, "velocity": 80}, {"time": 180955, "pitch": 54, "duration": 10, "velocity": 60}, {"time": 181076, "pitch": 54, "duration": 10, "velocity": 40}, {"time": 181196, "pitch": 42, "duration": 30, "velocity": 64}, {"time": 181196, "pitch": 54, "duration": 20, "velocity": 90}, {"time": 181196, "pitch": 69, "duration": 10, "velocity": 90}, {"time": 181317, "pitch": 54, "duration": 20, "velocity": 40}, {"time": 181317, "pitch": 69, "duration": 10, "velocity": 90}, {"time": 181437, "pitch": 38, "duration": 30, "velocity": 110}, {"time": 181437, "pitch": 42, "duration": 20, "velocity": 84}, {"time": 181437, "pitch": 54, "duration": 10, "velocity": 60}, {"time": 181557, "pitch": 54, "duration": 10, "velocity": 40}, {"time": 181678, "pitch": 35, "duration": 20, "velocity": 100}, {"time": 181678, "pitch": 42, "duration": 30, "velocity": 64}, {"time": 181678, "pitch": 54, "duration": 10, "velocity": 90}, {"time": 181798, "pitch": 54, "duration": 10, "velocity": 40}, {"time": 181919, "pitch": 42, "duration": 20, "velocity": 84}, {"time": 181919, "pitch": 54, "duration": 10, "velocity": 60}, {"time": 182039, "pitch": 35, "duration": 20, "velocity": 85}, {"time": 182039, "pitch": 54, "duration": 10, "velocity": 40}, {"time": 182160, "pitch": 35, "duration": 20, "velocity": 100}, {"time": 182160, "pitch": 42, "duration": 30, "velocity": 64}, {"time": 182160, "pitch": 54, "duration": 10, "velocity": 90}, {"time": 182280, "pitch": 54, "duration": 10, "velocity": 40}, {"time": 182401, "pitch": 38, "duration": 30, "velocity": 110}, {"time": 182401, "pitch": 42, "duration": 20, "velocity": 84}, {"time": 182401, "pitch": 54, "duration": 10, "velocity": 60}, {"time": 182521, "pitch": 54, "duration": 10, "velocity": 40}, {"time": 182641, "pitch": 35, "duration": 20, "velocity": 85}, {"time": 182641, "pitch": 42, "duration": 31, "velocity": 64}, {"time": 182641, "pitch": 54, "duration": 10, "velocity": 90}, {"time": 182762, "pitch": 54, "duration": 10, "velocity": 40}, {"time": 182882, "pitch": 35, "duration": 20, "velocity": 100}, {"time": 182882, "pitch": 42, "duration": 30, "velocity": 84}, {"time": 182882, "pitch": 54, "duration": 10, "velocity": 60}, {"time": 183003, "pitch": 54, "duration": 10, "velocity": 40}, {"time": 183123, "pitch": 42, "duration": 30, "velocity": 64}, {"time": 183123, "pitch": 54, "duration": 20, "velocity": 90}, {"time": 183123, "pitch": 69, "duration": 10, "velocity": 90}, {"time": 183244, "pitch": 54, "duration": 20, "velocity": 40}, {"time": 183244, "pitch": 69, "duration": 10, "velocity": 90}, {"time": 183364, "pitch": 38, "duration": 29, "velocity": 110}, {"time": 183364, "pitch": 42, "duration": 20, "velocity": 84}, {"time": 183364, "pitch": 54, "duration": 10, "velocity": 60}, {"time": 183482, "pitch": 54, "duration": 10, "velocity": 40}, {"time": 183600, "pitch": 35, "duration": 20, "velocity": 100}, {"time": 183600, "pitch": 42, "duration": 30, "velocity": 64}, {"time": 183600, "pitch": 54, "duration": 10, "velocity": 90}, {"time": 183718, "pitch": 54, "duration": 10, "velocity": 40}, {"time": 183836, "pitch": 42, "duration": 20, "velocity": 84}, {"time": 183836, "pitch": 54, "duration": 10, "velocity": 60}, {"time": 183956, "pitch": 54, "duration": 11, "velocity": 40}, {"time": 184077, "pitch": 35, "duration": 20, "velocity": 85}, {"time": 184077, "pitch": 46, "duration": 30, "velocity": 95}, {"time": 184077, "pitch": 54, "duration": 10, "velocity": 90}, {"time": 184197, "pitch": 54, "duration": 10, "velocity": 40}, {"time": 184318, "pitch": 38, "duration": 30, "velocity": 110}, {"time": 184318, "pitch": 42, "duration": 20, "velocity": 84}, {"time": 184318, "pitch": 54, "duration": 10, "velocity": 60}, {"time": 184438, "pitch": 35, "duration": 20, "velocity": 85}, {"time": 184438, "pitch": 54, "duration": 10, "velocity": 40}, {"time": 184559, "pitch": 42, "duration": 20, "velocity": 64}, {"time": 184559, "pitch": 54, "duration": 10, "velocity": 90}, {"time": 184679, "pitch": 54, "duration": 10, "velocity": 40}, {"time": 184800, "pitch": 35, "duration": 20, "velocity": 100}, {"time": 184800, "pitch": 42, "duration": 30, "velocity": 84}, {"time": 184800, "pitch": 54, "duration": 10, "velocity": 60}, {"time": 184920, "pitch": 54, "duration": 10, "velocity": 40}, {"time": 185040, "pitch": 42, "duration": 31, "velocity": 64}, {"time": 185040, "pitch": 54, "duration": 21, "velocity": 90}, {"time": 185040, "pitch": 69, "duration": 10, "velocity": 90}, {"time": 185161, "pitch": 54, "duration": 20, "velocity": 40}, {"time": 185161, "pitch": 69, "duration": 10, "velocity": 90}, {"time": 185281, "pitch": 38, "duration": 30, "velocity": 110}, {"time": 185281, "pitch": 42, "duration": 20, "velocity": 84}, {"time": 185281, "pitch": 54, "duration": 10, "velocity": 60}, {"time": 185402, "pitch": 54, "duration": 10, "velocity": 40}, {"time": 185522, "pitch": 35, "duration": 20, "velocity": 100}, {"time": 185522, "pitch": 42, "duration": 30, "velocity": 64}, {"time": 185522, "pitch": 54, "duration": 10, "velocity": 90}, {"time": 185643, "pitch": 54, "duration": 10, "velocity": 40}, {"time": 185763, "pitch": 42, "duration": 20, "velocity": 84}, {"time": 185763, "pitch": 54, "duration": 10, "velocity": 60}, {"time": 185884, "pitch": 35, "duration": 20, "velocity": 85}, {"time": 185884, "pitch": 54, "duration": 10, "velocity": 40}, {"time": 186004, "pitch": 35, "duration": 20, "velocity": 100}, {"time": 186004, "pitch": 42, "duration": 30, "velocity": 64}, {"time": 186004, "pitch": 54, "duration": 10, "velocity": 90}, {"time": 186124, "pitch": 54, "duration": 10, "velocity": 40}, {"time": 186245, "pitch": 38, "duration": 29, "velocity": 110}, {"time": 186245, "pitch": 42, "duration": 19, "velocity": 84}, {"time": 186245, "pitch": 54, "duration": 10, "velocity": 60}, {"time": 186363, "pitch": 54, "duration": 10, "velocity": 40}, {"time": 186481, "pitch": 35, "duration": 20, "velocity": 85}, {"time": 186481, "pitch": 42, "duration": 29, "velocity": 64}, {"time": 186481, "pitch": 54, "duration": 10, "velocity": 90}, {"time": 186599, "pitch": 54, "duration": 10, "velocity": 40}, {"time": 186717, "pitch": 35, "duration": 20, "velocity": 100}, {"time": 186717, "pitch": 42, "duration": 30, "velocity": 84}, {"time": 186717, "pitch": 54, "duration": 10, "velocity": 60}, {"time": 186837, "pitch": 54, "duration": 10, "velocity": 40}, {"time": 186958, "pitch": 42, "duration": 30, "velocity": 64}, {"time": 186958, "pitch": 54, "duration": 20, "velocity": 90}, {"time": 186958, "pitch": 69, "duration": 10, "velocity": 90}, {"time": 187078, "pitch": 54, "duration": 20, "velocity": 40}, {"time": 187078, "pitch": 69, "duration": 10, "velocity": 90}, {"time": 187199, "pitch": 38, "duration": 30, "velocity": 110}, {"time": 187199, "pitch": 42, "duration": 20, "velocity": 84}, {"time": 187199, "pitch": 54, "duration": 10, "velocity": 60}, {"time": 187319, "pitch": 54, "duration": 10, "velocity": 40}, {"time": 187439, "pitch": 35, "duration": 21, "velocity": 100}, {"time": 187439, "pitch": 42, "duration": 31, "velocity": 64}, {"time": 187439, "pitch": 54, "duration": 11, "velocity": 90}, {"time": 187560, "pitch": 54, "duration": 10, "velocity": 40}, {"time": 187680, "pitch": 42, "duration": 20, "velocity": 84}, {"time": 187680, "pitch": 54, "duration": 10, "velocity": 60}, {"time": 187801, "pitch": 54, "duration": 10, "velocity": 40}, {"time": 187921, "pitch": 35, "duration": 20, "velocity": 85}, {"time": 187921, "pitch": 46, "duration": 30, "velocity": 95}, {"time": 187921, "pitch": 54, "duration": 10, "velocity": 90}, {"time": 188042, "pitch": 54, "duration": 10, "velocity": 40}, {"time": 188162, "pitch": 38, "duration": 30, "velocity": 110}, {"time": 188162, "pitch": 42, "duration": 20, "velocity": 84}, {"time": 188162, "pitch": 54, "duration": 10, "velocity": 60}, {"time": 188283, "pitch": 35, "duration": 20, "velocity": 85}, {"time": 188283, "pitch": 54, "duration": 10, "velocity": 40}, {"time": 188403, "pitch": 42, "duration": 20, "velocity": 64}, {"time": 188403, "pitch": 54, "duration": 10, "velocity": 90}, {"time": 188523, "pitch": 54, "duration": 11, "velocity": 40}, {"time": 188644, "pitch": 35, "duration": 20, "velocity": 100}, {"time": 188644, "pitch": 42, "duration": 39, "velocity": 84}, {"time": 188644, "pitch": 54, "duration": 10, "velocity": 60}, {"time": 188644, "pitch": 57, "duration": 29, "velocity": 90}, {"time": 188762, "pitch": 54, "duration": 10, "velocity": 40}, {"time": 188880, "pitch": 42, "duration": 29, "velocity": 64}, {"time": 188880, "pitch": 54, "duration": 20, "velocity": 90}, {"time": 188880, "pitch": 69, "duration": 10, "velocity": 90}, {"time": 188998, "pitch": 54, "duration": 20, "velocity": 40}, {"time": 188998, "pitch": 69, "duration": 10, "velocity": 90}, {"time": 189116, "pitch": 38, "duration": 30, "velocity": 110}, {"time": 189116, "pitch": 42, "duration": 20, "velocity": 84}, {"time": 189116, "pitch": 54, "duration": 10, "velocity": 60}, {"time": 189236, "pitch": 54, "duration": 10, "velocity": 40}, {"time": 189357, "pitch": 35, "duration": 20, "velocity": 100}, {"time": 189357, "pitch": 42, "duration": 30, "velocity": 64}, {"time": 189357, "pitch": 54, "duration": 10, "velocity": 90}, {"time": 189477, "pitch": 54, "duration": 10, "velocity": 40}, {"time": 189598, "pitch": 42, "duration": 20, "velocity": 84}, {"time": 189598, "pitch": 54, "duration": 10, "velocity": 60}, {"time": 189718, "pitch": 35, "duration": 20, "velocity": 85}, {"time": 189718, "pitch": 54, "duration": 10, "velocity": 40}, {"time": 189839, "pitch": 35, "duration": 20, "velocity": 100}, {"time": 189839, "pitch": 42, "duration": 30, "velocity": 64}, {"time": 189839, "pitch": 54, "duration": 10, "velocity": 90}, {"time": 189959, "pitch": 54, "duration": 10, "velocity": 40}, {"time": 190079, "pitch": 38, "duration": 31, "velocity": 110}, {"time": 190079, "pitch": 42, "duration": 20, "velocity": 84}, {"time": 190079, "pitch": 54, "duration": 10, "velocity": 60}, {"time": 190200, "pitch": 54, "duration": 10, "velocity": 40}, {"time": 190320, "pitch": 35, "duration": 20, "velocity": 85}, {"time": 190320, "pitch": 42, "duration": 30, "velocity": 64}, {"time": 190320, "pitch": 54, "duration": 10, "velocity": 90}, {"time": 190441, "pitch": 54, "duration": 10, "velocity": 40}, {"time": 190561, "pitch": 35, "duration": 20, "velocity": 100}, {"time": 190561, "pitch": 42, "duration": 30, "velocity": 84}, {"time": 190561, "pitch": 54, "duration": 10, "velocity": 60}, {"time": 190682, "pitch": 54, "duration": 10, "velocity": 40}, {"time": 190802, "pitch": 42, "duration": 30, "velocity": 64}, {"time": 190802, "pitch": 54, "duration": 20, "velocity": 90}, {"time": 190802, "pitch": 69, "duration": 10, "velocity": 90}, {"time": 190922, "pitch": 54, "duration": 21, "velocity": 40}, {"time": 190922, "pitch": 69, "duration": 11, "velocity": 90}, {"time": 191043, "pitch": 38, "duration": 30, "velocity": 110}, {"time": 191043, "pitch": 42, "duration": 20, "velocity": 84}, {"time": 191043, "pitch": 54, "duration": 10, "velocity": 60}, {"time": 191163, "pitch": 54, "duration": 10, "velocity": 40}, {"time": 191284, "pitch": 35, "duration": 20, "velocity": 100}, {"time": 191284, "pitch": 42, "duration": 30, "velocity": 64}, {"time": 191284, "pitch": 54, "duration": 10, "velocity": 90}, {"time": 191404, "pitch": 54, "duration": 10, "velocity": 40}, {"time": 191525, "pitch": 42, "duration": 19, "velocity": 84}, {"time": 191525, "pitch": 54, "duration": 9, "velocity": 60}, {"time": 191643, "pitch": 54, "duration": 9, "velocity": 40}, {"time": 191761, "pitch": 35, "duration": 19, "velocity": 85}, {"time": 191761, "pitch": 46, "duration": 29, "velocity": 95}, {"time": 191761, "pitch": 54, "duration": 10, "velocity": 90}, {"time": 191879, "pitch": 54, "duration": 10, "velocity": 40}, {"time": 191997, "pitch": 38, "duration": 30, "velocity": 110}, {"time": 191997, "pitch": 42, "duration": 20, "velocity": 84}, {"time": 191997, "pitch": 54, "duration": 10, "velocity": 60}, {"time": 192117, "pitch": 35, "duration": 20, "velocity": 85}, {"time": 192117, "pitch": 54, "duration": 10, "velocity": 40}, {"time": 192238, "pitch": 42, "duration": 20, "velocity": 64}, {"time": 192238, "pitch": 54, "duration": 10, "velocity": 90}, {"time": 192358, "pitch": 54, "duration": 10, "velocity": 40}, {"time": 192478, "pitch": 35, "duration": 21, "velocity": 100}, {"time": 192478, "pitch": 42, "duration": 31, "velocity": 84}, {"time": 192478, "pitch": 54, "duration": 10, "velocity": 60}, {"time": 192599, "pitch": 54, "duration": 10, "velocity": 40}, {"time": 192719, "pitch": 42, "duration": 30, "velocity": 64}, {"time": 192719, "pitch": 54, "duration": 20, "velocity": 90}, {"time": 192719, "pitch": 69, "duration": 10, "velocity": 90}, {"time": 192840, "pitch": 54, "duration": 20, "velocity": 40}, {"time": 192840, "pitch": 69, "duration": 10, "velocity": 90}, {"time": 192960, "pitch": 38, "duration": 30, "velocity": 110}, {"time": 192960, "pitch": 42, "duration": 20, "velocity": 84}, {"time": 192960, "pitch": 54, "duration": 10, "velocity": 60}, {"time": 193081, "pitch": 54, "duration": 10, "velocity": 40}, {"time": 193201, "pitch": 35, "duration": 20, "velocity": 100}, {"time": 193201, "pitch": 42, "duration": 30, "velocity": 64}, {"time": 193201, "pitch": 54, "duration": 10, "velocity": 90}, {"time": 193322, "pitch": 54, "duration": 10, "velocity": 40}, {"time": 193442, "pitch": 42, "duration": 20, "velocity": 84}, {"time": 193442, "pitch": 54, "duration": 10, "velocity": 60}, {"time": 193562, "pitch": 35, "duration": 20, "velocity": 85}, {"time": 193562, "pitch": 54, "duration": 10, "velocity": 40}, {"time": 193683, "pitch": 35, "duration": 20, "velocity": 100}, {"time": 193683, "pitch": 42, "duration": 30, "velocity": 64}, {"time": 193683, "pitch": 54, "duration": 10, "velocity": 90}, {"time": 193803, "pitch": 48, "duration": 20, "velocity": 90}, {"time": 193803, "pitch": 54, "duration": 10, "velocity": 40}, {"time": 193924, "pitch": 38, "duration": 29, "velocity": 110}, {"time": 193924, "pitch": 42, "duration": 19, "velocity": 84}, {"time": 193924, "pitch": 54, "duration": 10, "velocity": 60}, {"time": 194042, "pitch": 45, "duration": 19, "velocity": 90}, {"time": 194042, "pitch": 54, "duration": 10, "velocity": 40}, {"time": 194160, "pitch": 35, "duration": 29, "velocity": 85}, {"time": 194160, "pitch": 42, "duration": 39, "velocity": 64}, {"time": 194160, "pitch": 45, "duration": 19, "velocity": 90}, {"time": 194160, "pitch": 54, "duration": 10, "velocity": 90}, {"time": 194278, "pitch": 41, "duration": 19, "velocity": 90}, {"time": 194278, "pitch": 54, "duration": 10, "velocity": 40}, {"time": 194396, "pitch": 35, "duration": 20, "velocity": 100}, {"time": 194396, "pitch": 42, "duration": 40, "velocity": 84}, {"time": 194396, "pitch": 49, "duration": 30, "velocity": 80}, {"time": 194396, "pitch": 54, "duration": 10, "velocity": 60}, {"time": 194516, "pitch": 54, "duration": 10, "velocity": 40}, {"time": 194637, "pitch": 42, "duration": 30, "velocity": 64}, {"time": 194637, "pitch": 54, "duration": 20, "velocity": 90}, {"time": 194637, "pitch": 69, "duration": 10, "velocity": 90}, {"time": 194757, "pitch": 54, "duration": 20, "velocity": 40}, {"time": 194757, "pitch": 69, "duration": 10, "velocity": 90}, {"time": 194877, "pitch": 38, "duration": 31, "velocity": 110}, {"time": 194877, "pitch": 42, "duration": 21, "velocity": 84}, {"time": 194877, "pitch": 54, "duration": 11, "velocity": 60}, {"time": 194998, "pitch": 54, "duration": 10, "velocity": 40}, {"time": 195118, "pitch": 35, "duration": 20, "velocity": 100}, {"time": 195118, "pitch": 42, "duration": 41, "velocity": 64}, {"time": 195118, "pitch": 54, "duration": 10, "velocity": 90}, {"time": 195118, "pitch": 57, "duration": 30, "velocity": 90}, {"time": 195600, "pitch": 44, "duration": 10, "velocity": 70}, {"time": 195841, "pitch": 42, "duration": 10, "velocity": 104}, {"time": 195961, "pitch": 42, "duration": 10, "velocity": 84}, {"time": 196082, "pitch": 46, "duration": 10, "velocity": 115}, {"time": 196323, "pitch": 35, "duration": 10, "velocity": 100}, {"time": 196323, "pitch": 42, "duration": 30, "velocity": 84}, {"time": 196323, "pitch": 49, "duration": 20, "velocity": 80}, {"time": 196564, "pitch": 42, "duration": 20, "velocity": 64}, {"time": 196564, "pitch": 69, "duration": 10, "velocity": 90}, {"time": 196684, "pitch": 69, "duration": 10, "velocity": 90}, {"time": 196804, "pitch": 38, "duration": 20, "velocity": 110}, {"time": 196804, "pitch": 42, "duration": 10, "velocity": 84}, {"time": 197041, "pitch": 35, "duration": 9, "velocity": 100}, {"time": 197041, "pitch": 42, "duration": 19, "velocity": 64}, {"time": 197277, "pitch": 42, "duration": 10, "velocity": 84}, {"time": 197397, "pitch": 35, "duration": 10, "velocity": 85}, {"time": 197517, "pitch": 35, "duration": 10, "velocity": 100}, {"time": 197517, "pitch": 42, "duration": 20, "velocity": 64}, {"time": 197758, "pitch": 38, "duration": 20, "velocity": 110}, {"time": 197758, "pitch": 42, "duration": 10, "velocity": 84}, {"time": 197999, "pitch": 35, "duration": 10, "velocity": 85}, {"time": 197999, "pitch": 42, "duration": 20, "velocity": 64}, {"time": 198240, "pitch": 35, "duration": 10, "velocity": 100}, {"time": 198240, "pitch": 42, "duration": 20, "velocity": 84}, {"time": 198481, "pitch": 42, "duration": 20, "velocity": 64}, {"time": 198481, "pitch": 69, "duration": 10, "velocity": 90}, {"time": 198601, "pitch": 69, "duration": 10, "velocity": 90}, {"time": 198722, "pitch": 38, "duration": 20, "velocity": 110}, {"time": 198722, "pitch": 42, "duration": 10, "velocity": 84}, {"time": 198963, "pitch": 35, "duration": 10, "velocity": 100}, {"time": 198963, "pitch": 42, "duration": 20, "velocity": 64}, {"time": 199204, "pitch": 42, "duration": 9, "velocity": 84}, {"time": 199440, "pitch": 35, "duration": 9, "velocity": 85}, {"time": 199440, "pitch": 46, "duration": 19, "velocity": 95}, {"time": 199676, "pitch": 38, "duration": 20, "velocity": 110}, {"time": 199676, "pitch": 42, "duration": 10, "velocity": 84}, {"time": 199796, "pitch": 35, "duration": 10, "velocity": 85}, {"time": 199916, "pitch": 42, "duration": 10, "velocity": 64}, {"time": 200157, "pitch": 35, "duration": 10, "velocity": 100}, {"time": 200157, "pitch": 42, "duration": 20, "velocity": 84}, {"time": 200398, "pitch": 42, "duration": 20, "velocity": 64}, {"time": 200398, "pitch": 69, "duration": 10, "velocity": 90}, {"time": 200519, "pitch": 69, "duration": 10, "velocity": 90}, {"time": 200639, "pitch": 38, "duration": 20, "velocity": 110}, {"time": 200639, "pitch": 42, "duration": 10, "velocity": 84}, {"time": 200880, "pitch": 35, "duration": 10, "velocity": 100}, {"time": 200880, "pitch": 42, "duration": 20, "velocity": 64}, {"time": 201121, "pitch": 42, "duration": 10, "velocity": 84}, {"time": 201241, "pitch": 35, "duration": 10, "velocity": 85}, {"time": 201362, "pitch": 35, "duration": 10, "velocity": 100}, {"time": 201362, "pitch": 42, "duration": 20, "velocity": 64}, {"time": 201603, "pitch": 38, "duration": 20, "velocity": 110}, {"time": 201603, "pitch": 42, "duration": 10, "velocity": 84}, {"time": 201843, "pitch": 35, "duration": 11, "velocity": 85}, {"time": 201843, "pitch": 42, "duration": 21, "velocity": 64}, {"time": 202084, "pitch": 35, "duration": 10, "velocity": 100}, {"time": 202084, "pitch": 42, "duration": 20, "velocity": 84}, {"time": 202320, "pitch": 42, "duration": 20, "velocity": 64}, {"time": 202320, "pitch": 69, "duration": 10, "velocity": 90}, {"time": 202438, "pitch": 69, "duration": 10, "velocity": 90}, {"time": 202556, "pitch": 38, "duration": 20, "velocity": 110}, {"time": 202556, "pitch": 42, "duration": 10, "velocity": 84}, {"time": 202797, "pitch": 35, "duration": 10, "velocity": 100}, {"time": 202797, "pitch": 42, "duration": 20, "velocity": 64}, {"time": 203038, "pitch": 42, "duration": 10, "velocity": 84}, {"time": 203279, "pitch": 35, "duration": 10, "velocity": 85}, {"time": 203279, "pitch": 46, "duration": 20, "velocity": 95}, {"time": 203520, "pitch": 38, "duration": 20, "velocity": 110}, {"time": 203520, "pitch": 42, "duration": 10, "velocity": 84}, {"time": 203640, "pitch": 35, "duration": 10, "velocity": 85}, {"time": 203761, "pitch": 42, "duration": 10, "velocity": 64}, {"time": 204002, "pitch": 35, "duration": 10, "velocity": 100}, {"time": 204002, "pitch": 42, "duration": 20, "velocity": 84}, {"time": 204243, "pitch": 42, "duration": 20, "velocity": 64}, {"time": 204243, "pitch": 69, "duration": 10, "velocity": 90}, {"time": 204363, "pitch": 69, "duration": 10, "velocity": 90}, {"time": 204483, "pitch": 38, "duration": 20, "velocity": 110}, {"time": 204483, "pitch": 42, "duration": 10, "velocity": 84}, {"time": 204719, "pitch": 35, "duration": 10, "velocity": 100}, {"time": 204719, "pitch": 42, "duration": 20, "velocity": 64}, {"time": 204955, "pitch": 42, "duration": 10, "velocity": 84}, {"time": 205076, "pitch": 35, "duration": 10, "velocity": 85}, {"time": 205196, "pitch": 35, "duration": 10, "velocity": 100}, {"time": 205196, "pitch": 42, "duration": 20, "velocity": 64}, {"time": 205437, "pitch": 38, "duration": 20, "velocity": 110}, {"time": 205437, "pitch": 42, "duration": 10, "velocity": 84}, {"time": 205678, "pitch": 35, "duration": 10, "velocity": 85}, {"time": 205678, "pitch": 42, "duration": 20, "velocity": 64}, {"time": 205919, "pitch": 35, "duration": 10, "velocity": 100}, {"time": 205919, "pitch": 42, "duration": 20, "velocity": 84}, {"time": 206160, "pitch": 42, "duration": 20, "velocity": 64}, {"time": 206160, "pitch": 69, "duration": 10, "velocity": 90}, {"time": 206280, "pitch": 69, "duration": 10, "velocity": 90}, {"time": 206401, "pitch": 38, "duration": 20, "velocity": 110}, {"time": 206401, "pitch": 42, "duration": 10, "velocity": 84}, {"time": 206642, "pitch": 35, "duration": 10, "velocity": 100}, {"time": 206642, "pitch": 42, "duration": 20, "velocity": 64}, {"time": 206882, "pitch": 42, "duration": 10, "velocity": 84}, {"time": 207123, "pitch": 35, "duration": 10, "velocity": 85}, {"time": 207123, "pitch": 46, "duration": 20, "velocity": 95}, {"time": 207364, "pitch": 38, "duration": 20, "velocity": 110}, {"time": 207364, "pitch": 42, "duration": 10, "velocity": 84}, {"time": 207482, "pitch": 35, "duration": 10, "velocity": 85}, {"time": 207600, "pitch": 42, "duration": 10, "velocity": 64}, {"time": 207836, "pitch": 35, "duration": 10, "velocity": 100}, {"time": 207836, "pitch": 42, "duration": 20, "velocity": 84}, {"time": 208077, "pitch": 42, "duration": 20, "velocity": 64}, {"time": 208077, "pitch": 69, "duration": 10, "velocity": 90}, {"time": 208198, "pitch": 69, "duration": 10, "velocity": 90}, {"time": 208318, "pitch": 38, "duration": 20, "velocity": 110}, {"time": 208318, "pitch": 42, "duration": 10, "velocity": 84}, {"time": 208559, "pitch": 35, "duration": 10, "velocity": 100}, {"time": 208559, "pitch": 42, "duration": 20, "velocity": 64}, {"time": 208800, "pitch": 42, "duration": 10, "velocity": 84}, {"time": 208920, "pitch": 35, "duration": 10, "velocity": 85}, {"time": 209041, "pitch": 35, "duration": 10, "velocity": 100}, {"time": 209041, "pitch": 42, "duration": 20, "velocity": 64}, {"time": 209281, "pitch": 38, "duration": 21, "velocity": 110}, {"time": 209281, "pitch": 42, "duration": 11, "velocity": 84}, {"time": 209522, "pitch": 35, "duration": 10, "velocity": 85}, {"time": 209522, "pitch": 42, "duration": 20, "velocity": 64}, {"time": 209763, "pitch": 35, "duration": 10, "velocity": 100}, {"time": 209763, "pitch": 42, "duration": 20, "velocity": 84}, {"time": 209999, "pitch": 42, "duration": 20, "velocity": 64}, {"time": 209999, "pitch": 69, "duration": 10, "velocity": 90}, {"time": 210117, "pitch": 69, "duration": 10, "velocity": 90}, {"time": 210235, "pitch": 38, "duration": 20, "velocity": 110}, {"time": 210235, "pitch": 42, "duration": 10, "velocity": 84}, {"time": 210476, "pitch": 35, "duration": 10, "velocity": 100}, {"time": 210476, "pitch": 42, "duration": 20, "velocity": 64}, {"time": 210717, "pitch": 42, "duration": 10, "velocity": 84}, {"time": 210958, "pitch": 35, "duration": 10, "velocity": 85}, {"time": 210958, "pitch": 46, "duration": 20, "velocity": 95}, {"time": 211199, "pitch": 38, "duration": 20, "velocity": 110}, {"time": 211199, "pitch": 42, "duration": 10, "velocity": 84}, {"time": 211319, "pitch": 35, "duration": 10, "velocity": 85}, {"time": 211440, "pitch": 38, "duration": 20, "velocity": 110}, {"time": 211440, "pitch": 42, "duration": 10, "velocity": 64}, {"time": 211560, "pitch": 38, "duration": 10, "velocity": 110}, {"time": 211681, "pitch": 35, "duration": 10, "velocity": 100}, {"time": 211681, "pitch": 42, "duration": 30, "velocity": 84}, {"time": 211681, "pitch": 57, "duration": 20, "velocity": 90}, {"time": 211921, "pitch": 42, "duration": 20, "velocity": 64}, {"time": 211921, "pitch": 69, "duration": 10, "velocity": 90}, {"time": 212042, "pitch": 69, "duration": 10, "velocity": 90}, {"time": 212162, "pitch": 38, "duration": 20, "velocity": 110}, {"time": 212162, "pitch": 42, "duration": 10, "velocity": 84}, {"time": 212403, "pitch": 35, "duration": 10, "velocity": 100}, {"time": 212403, "pitch": 42, "duration": 20, "velocity": 64}, {"time": 212644, "pitch": 42, "duration": 10, "velocity": 84}, {"time": 212762, "pitch": 35, "duration": 10, "velocity": 85}, {"time": 212880, "pitch": 35, "duration": 10, "velocity": 100}, {"time": 212880, "pitch": 42, "duration": 20, "velocity": 64}, {"time": 213116, "pitch": 38, "duration": 20, "velocity": 110}, {"time": 213116, "pitch": 42, "duration": 10, "velocity": 84}, {"time": 213357, "pitch": 35, "duration": 10, "velocity": 85}, {"time": 213357, "pitch": 42, "duration": 20, "velocity": 64}, {"time": 213598, "pitch": 35, "duration": 10, "velocity": 100}, {"time": 213598, "pitch": 42, "duration": 20, "velocity": 84}, {"time": 213839, "pitch": 42, "duration": 20, "velocity": 64}, {"time": 213839, "pitch": 69, "duration": 10, "velocity": 90}, {"time": 213959, "pitch": 69, "duration": 10, "velocity": 90}, {"time": 214080, "pitch": 38, "duration": 20, "velocity": 110}, {"time": 214080, "pitch": 42, "duration": 10, "velocity": 84}, {"time": 214320, "pitch": 35, "duration": 10, "velocity": 100}, {"time": 214320, "pitch": 42, "duration": 21, "velocity": 64}, {"time": 214561, "pitch": 42, "duration": 10, "velocity": 84}, {"time": 214802, "pitch": 35, "duration": 10, "velocity": 85}, {"time": 214802, "pitch": 46, "duration": 20, "velocity": 95}, {"time": 215043, "pitch": 38, "duration": 20, "velocity": 110}, {"time": 215043, "pitch": 42, "duration": 10, "velocity": 84}, {"time": 215164, "pitch": 35, "duration": 10, "velocity": 85}, {"time": 215284, "pitch": 42, "duration": 10, "velocity": 64}, {"time": 215525, "pitch": 35, "duration": 10, "velocity": 100}, {"time": 215525, "pitch": 42, "duration": 19, "velocity": 84}, {"time": 215761, "pitch": 42, "duration": 19, "velocity": 64}, {"time": 215761, "pitch": 69, "duration": 10, "velocity": 90}, {"time": 215879, "pitch": 69, "duration": 10, "velocity": 90}, {"time": 215997, "pitch": 38, "duration": 20, "velocity": 110}, {"time": 215997, "pitch": 42, "duration": 10, "velocity": 84}, {"time": 216238, "pitch": 35, "duration": 10, "velocity": 100}, {"time": 216238, "pitch": 42, "duration": 20, "velocity": 64}, {"time": 216479, "pitch": 42, "duration": 10, "velocity": 84}, {"time": 216599, "pitch": 35, "duration": 10, "velocity": 85}, {"time": 216719, "pitch": 35, "duration": 11, "velocity": 100}, {"time": 216719, "pitch": 42, "duration": 21, "velocity": 64}, {"time": 216960, "pitch": 38, "duration": 20, "velocity": 110}, {"time": 216960, "pitch": 42, "duration": 10, "velocity": 84}, {"time": 217201, "pitch": 35, "duration": 10, "velocity": 85}, {"time": 217201, "pitch": 42, "duration": 20, "velocity": 64}, {"time": 217442, "pitch": 35, "duration": 10, "velocity": 100}, {"time": 217442, "pitch": 42, "duration": 20, "velocity": 84}, {"time": 217683, "pitch": 42, "duration": 20, "velocity": 64}, {"time": 217683, "pitch": 69, "duration": 10, "velocity": 90}, {"time": 217803, "pitch": 69, "duration": 10, "velocity": 90}, {"time": 217924, "pitch": 38, "duration": 19, "velocity": 110}, {"time": 217924, "pitch": 42, "duration": 10, "velocity": 84}, {"time": 218160, "pitch": 35, "duration": 10, "velocity": 100}, {"time": 218160, "pitch": 42, "duration": 20, "velocity": 64}, {"time": 218396, "pitch": 42, "duration": 10, "velocity": 84}, {"time": 218637, "pitch": 35, "duration": 10, "velocity": 85}, {"time": 218637, "pitch": 46, "duration": 20, "velocity": 95}, {"time": 218878, "pitch": 38, "duration": 20, "velocity": 110}, {"time": 218878, "pitch": 42, "duration": 10, "velocity": 84}, {"time": 218998, "pitch": 35, "duration": 10, "velocity": 85}, {"time": 219119, "pitch": 42, "duration": 10, "velocity": 64}, {"time": 219359, "pitch": 35, "duration": 10, "velocity": 100}, {"time": 219359, "pitch": 42, "duration": 20, "velocity": 84}, {"time": 219600, "pitch": 42, "duration": 20, "velocity": 64}, {"time": 219600, "pitch": 69, "duration": 10, "velocity": 90}, {"time": 219721, "pitch": 69, "duration": 10, "velocity": 90}, {"time": 219841, "pitch": 38, "duration": 20, "velocity": 110}, {"time": 219841, "pitch": 42, "duration": 10, "velocity": 84}, {"time": 220082, "pitch": 35, "duration": 10, "velocity": 100}, {"time": 220082, "pitch": 42, "duration": 20, "velocity": 64}, {"time": 220323, "pitch": 42, "duration": 10, "velocity": 84}, {"time": 220443, "pitch": 35, "duration": 10, "velocity": 85}, {"time": 220564, "pitch": 35, "duration": 10, "velocity": 100}, {"time": 220564, "pitch": 42, "duration": 20, "velocity": 64}, {"time": 220805, "pitch": 38, "duration": 19, "velocity": 110}, {"time": 220805, "pitch": 42, "duration": 9, "velocity": 84}, {"time": 221041, "pitch": 35, "duration": 9, "velocity": 85}, {"time": 221041, "pitch": 42, "duration": 19, "velocity": 64}, {"time": 221277, "pitch": 35, "duration": 10, "velocity": 100}, {"time": 221277, "pitch": 42, "duration": 20, "velocity": 84}, {"time": 221518, "pitch": 42, "duration": 20, "velocity": 64}, {"time": 221518, "pitch": 69, "duration": 10, "velocity": 90}, {"time": 221638, "pitch": 69, "duration": 10, "velocity": 90}, {"time": 221758, "pitch": 38, "duration": 21, "velocity": 110}, {"time": 221758, "pitch": 42, "duration": 10, "velocity": 84}, {"time": 221999, "pitch": 35, "duration": 10, "velocity": 100}, {"time": 221999, "pitch": 42, "duration": 20, "velocity": 64}, {"time": 222240, "pitch": 42, "duration": 10, "velocity": 84}, {"time": 222481, "pitch": 35, "duration": 10, "velocity": 85}, {"time": 222481, "pitch": 46, "duration": 20, "velocity": 95}, {"time": 222722, "pitch": 38, "duration": 20, "velocity": 110}, {"time": 222722, "pitch": 42, "duration": 10, "velocity": 84}, {"time": 222842, "pitch": 35, "duration": 10, "velocity": 85}, {"time": 222963, "pitch": 42, "duration": 10, "velocity": 64}, {"time": 223204, "pitch": 35, "duration": 9, "velocity": 100}, {"time": 223204, "pitch": 42, "duration": 19, "velocity": 84}, {"time": 223440, "pitch": 42, "duration": 19, "velocity": 64}, {"time": 223440, "pitch": 69, "duration": 10, "velocity": 90}, {"time": 223558, "pitch": 69, "duration": 10, "velocity": 90}, {"time": 223676, "pitch": 38, "duration": 20, "velocity": 110}, {"time": 223676, "pitch": 42, "duration": 10, "velocity": 84}, {"time": 223917, "pitch": 35, "duration": 10, "velocity": 100}, {"time": 223917, "pitch": 42, "duration": 20, "velocity": 64}, {"time": 224157, "pitch": 38, "duration": 21, "velocity": 110}, {"time": 224157, "pitch": 42, "duration": 10, "velocity": 84}, {"time": 224278, "pitch": 35, "duration": 10, "velocity": 85}, {"time": 224398, "pitch": 35, "duration": 10, "velocity": 100}, {"time": 224398, "pitch": 42, "duration": 20, "velocity": 64}, {"time": 224519, "pitch": 38, "duration": 10, "velocity": 90}, {"time": 224639, "pitch": 38, "duration": 20, "velocity": 110}, {"time": 224639, "pitch": 42, "duration": 10, "velocity": 84}, {"time": 224760, "pitch": 38, "duration": 10, "velocity": 90}, {"time": 224880, "pitch": 35, "duration": 10, "velocity": 85}, {"time": 224880, "pitch": 42, "duration": 40, "velocity": 64}, {"time": 224880, "pitch": 49, "duration": 30, "velocity": 80}, {"time": 224880, "pitch": 57, "duration": 20, "velocity": 90}, {"time": 225362, "pitch": 35, "duration": 40, "velocity": 85}, {"time": 225362, "pitch": 44, "duration": 30, "velocity": 60}, {"time": 225362, "pitch": 48, "duration": 20, "velocity": 90}, {"time": 225362, "pitch": 69, "duration": 10, "velocity": 90}, {"time": 225422, "pitch": 45, "duration": 10, "velocity": 90}, {"time": 225482, "pitch": 41, "duration": 20, "velocity": 90}, {"time": 225482, "pitch": 69, "duration": 10, "velocity": 90}, {"time": 225583, "pitch": 38, "duration": 10, "velocity": 90}, {"time": 225603, "pitch": 38, "duration": 10, "velocity": 110}, {"time": 225844, "pitch": 35, "duration": 20, "velocity": 100}, {"time": 225844, "pitch": 44, "duration": 10, "velocity": 60}, {"time": 225844, "pitch": 57, "duration": 30, "velocity": 90}, {"time": 226084, "pitch": 45, "duration": 10, "velocity": 90}, {"time": 226104, "pitch": 41, "duration": 10, "velocity": 90}, {"time": 226321, "pitch": 35, "duration": 29, "velocity": 100}, {"time": 226321, "pitch": 41, "duration": 19, "velocity": 90}, {"time": 226321, "pitch": 44, "duration": 9, "velocity": 60}, {"time": 226321, "pitch": 49, "duration": 39, "velocity": 80}, {"time": 226537, "pitch": 38, "duration": 10, "velocity": 90}, {"time": 226557, "pitch": 38, "duration": 10, "velocity": 110}, {"time": 226797, "pitch": 35, "duration": 30, "velocity": 100}, {"time": 226797, "pitch": 44, "duration": 20, "velocity": 60}, {"time": 226797, "pitch": 48, "duration": 10, "velocity": 90}, {"time": 226797, "pitch": 57, "duration": 41, "velocity": 90}, {"time": 227038, "pitch": 45, "duration": 10, "velocity": 90}, {"time": 227058, "pitch": 41, "duration": 10, "velocity": 90}, {"time": 227259, "pitch": 38, "duration": 10, "velocity": 90}, {"time": 227279, "pitch": 38, "duration": 20, "velocity": 110}, {"time": 227279, "pitch": 44, "duration": 10, "velocity": 60}, {"time": 227520, "pitch": 35, "duration": 10, "velocity": 100}, {"time": 227520, "pitch": 49, "duration": 20, "velocity": 80}, {"time": 227761, "pitch": 44, "duration": 10, "velocity": 60}, {"time": 228002, "pitch": 46, "duration": 10, "velocity": 115}, {"time": 228243, "pitch": 35, "duration": 20, "velocity": 100}, {"time": 228243, "pitch": 44, "duration": 10, "velocity": 60}, {"time": 228243, "pitch": 49, "duration": 40, "velocity": 80}, {"time": 228243, "pitch": 57, "duration": 30, "velocity": 90}, {"time": 228463, "pitch": 38, "duration": 11, "velocity": 90}, {"time": 228483, "pitch": 38, "duration": 10, "velocity": 110}, {"time": 228720, "pitch": 35, "duration": 19, "velocity": 100}, {"time": 228720, "pitch": 44, "duration": 9, "velocity": 60}, {"time": 228956, "pitch": 35, "duration": 20, "velocity": 100}, {"time": 228956, "pitch": 42, "duration": 30, "velocity": 84}, {"time": 228956, "pitch": 54, "duration": 10, "velocity": 60}, {"time": 229076, "pitch": 54, "duration": 10, "velocity": 40}, {"time": 229196, "pitch": 42, "duration": 31, "velocity": 64}, {"time": 229196, "pitch": 54, "duration": 20, "velocity": 90}, {"time": 229196, "pitch": 69, "duration": 10, "velocity": 90}, {"time": 229317, "pitch": 35, "duration": 30, "velocity": 100}, {"time": 229317, "pitch": 54, "duration": 20, "velocity": 40}, {"time": 229317, "pitch": 69, "duration": 10, "velocity": 90}, {"time": 229377, "pitch": 35, "duration": 10, "velocity": 100}, {"time": 229437, "pitch": 38, "duration": 40, "velocity": 110}, {"time": 229437, "pitch": 42, "duration": 30, "velocity": 84}, {"time": 229437, "pitch": 49, "duration": 20, "velocity": 90}, {"time": 229437, "pitch": 54, "duration": 10, "velocity": 60}, {"time": 229558, "pitch": 54, "duration": 10, "velocity": 40}, {"time": 229678, "pitch": 35, "duration": 20, "velocity": 100}, {"time": 229678, "pitch": 42, "duration": 30, "velocity": 64}, {"time": 229678, "pitch": 54, "duration": 10, "velocity": 90}, {"time": 229799, "pitch": 54, "duration": 10, "velocity": 40}, {"time": 229919, "pitch": 42, "duration": 20, "velocity": 84}, {"time": 229919, "pitch": 54, "duration": 10, "velocity": 60}, {"time": 230040, "pitch": 54, "duration": 10, "velocity": 40}, {"time": 230160, "pitch": 35, "duration": 20, "velocity": 100}, {"time": 230160, "pitch": 42, "duration": 30, "velocity": 64}, {"time": 230160, "pitch": 54, "duration": 10, "velocity": 90}, {"time": 230280, "pitch": 54, "duration": 10, "velocity": 40}, {"time": 230401, "pitch": 38, "duration": 30, "velocity": 110}, {"time": 230401, "pitch": 42, "duration": 20, "velocity": 84}, {"time": 230401, "pitch": 54, "duration": 10, "velocity": 60}, {"time": 230521, "pitch": 54, "duration": 10, "velocity": 40}, {"time": 230642, "pitch": 35, "duration": 20, "velocity": 85}, {"time": 230642, "pitch": 42, "duration": 30, "velocity": 64}, {"time": 230642, "pitch": 54, "duration": 10, "velocity": 90}, {"time": 230762, "pitch": 54, "duration": 10, "velocity": 40}, {"time": 230883, "pitch": 35, "duration": 20, "velocity": 100}, {"time": 230883, "pitch": 42, "duration": 30, "velocity": 84}, {"time": 230883, "pitch": 54, "duration": 10, "velocity": 60}, {"time": 231003, "pitch": 54, "duration": 10, "velocity": 40}, {"time": 231123, "pitch": 42, "duration": 31, "velocity": 64}, {"time": 231123, "pitch": 54, "duration": 21, "velocity": 90}, {"time": 231123, "pitch": 69, "duration": 11, "velocity": 90}, {"time": 231244, "pitch": 54, "duration": 20, "velocity": 40}, {"time": 231244, "pitch": 69, "duration": 10, "velocity": 90}, {"time": 231364, "pitch": 38, "duration": 30, "velocity": 110}, {"time": 231364, "pitch": 42, "duration": 20, "velocity": 84}, {"time": 231364, "pitch": 54, "duration": 10, "velocity": 60}, {"time": 231482, "pitch": 54, "duration": 10, "velocity": 40}, {"time": 231600, "pitch": 35, "duration": 20, "velocity": 100}, {"time": 231600, "pitch": 42, "duration": 30, "velocity": 64}, {"time": 231600, "pitch": 54, "duration": 10, "velocity": 90}, {"time": 231718, "pitch": 54, "duration": 10, "velocity": 40}, {"time": 231836, "pitch": 42, "duration": 20, "velocity": 84}, {"time": 231836, "pitch": 54, "duration": 10, "velocity": 60}, {"time": 231957, "pitch": 54, "duration": 10, "velocity": 40}, {"time": 232077, "pitch": 35, "duration": 20, "velocity": 85}, {"time": 232077, "pitch": 46, "duration": 30, "velocity": 95}, {"time": 232077, "pitch": 54, "duration": 10, "velocity": 90}, {"time": 232198, "pitch": 54, "duration": 10, "velocity": 40}, {"time": 232318, "pitch": 38, "duration": 30, "velocity": 110}, {"time": 232318, "pitch": 42, "duration": 20, "velocity": 84}, {"time": 232318, "pitch": 54, "duration": 10, "velocity": 60}, {"time": 232439, "pitch": 35, "duration": 20, "velocity": 85}, {"time": 232439, "pitch": 54, "duration": 10, "velocity": 40}, {"time": 232559, "pitch": 42, "duration": 20, "velocity": 64}, {"time": 232559, "pitch": 54, "duration": 10, "velocity": 90}, {"time": 232679, "pitch": 54, "duration": 10, "velocity": 40}, {"time": 232800, "pitch": 35, "duration": 20, "velocity": 100}, {"time": 232800, "pitch": 42, "duration": 30, "velocity": 84}, {"time": 232800, "pitch": 54, "duration": 10, "velocity": 60}, {"time": 232920, "pitch": 54, "duration": 10, "velocity": 40}, {"time": 233041, "pitch": 42, "duration": 30, "velocity": 64}, {"time": 233041, "pitch": 54, "duration": 20, "velocity": 90}, {"time": 233041, "pitch": 69, "duration": 10, "velocity": 90}, {"time": 233161, "pitch": 54, "duration": 20, "velocity": 40}, {"time": 233161, "pitch": 69, "duration": 10, "velocity": 90}, {"time": 233282, "pitch": 38, "duration": 30, "velocity": 110}, {"time": 233282, "pitch": 42, "duration": 20, "velocity": 84}, {"time": 233282, "pitch": 54, "duration": 10, "velocity": 60}, {"time": 233402, "pitch": 54, "duration": 10, "velocity": 40}, {"time": 233523, "pitch": 35, "duration": 20, "velocity": 100}, {"time": 233523, "pitch": 42, "duration": 30, "velocity": 64}, {"time": 233523, "pitch": 54, "duration": 10, "velocity": 90}, {"time": 233643, "pitch": 54, "duration": 10, "velocity": 40}, {"time": 233763, "pitch": 42, "duration": 20, "velocity": 84}, {"time": 233763, "pitch": 54, "duration": 10, "velocity": 60}, {"time": 233881, "pitch": 54, "duration": 10, "velocity": 40}, {"time": 233999, "pitch": 35, "duration": 20, "velocity": 100}, {"time": 233999, "pitch": 42, "duration": 30, "velocity": 64}, {"time": 233999, "pitch": 54, "duration": 10, "velocity": 90}, {"time": 234117, "pitch": 54, "duration": 10, "velocity": 40}, {"time": 234235, "pitch": 38, "duration": 30, "velocity": 110}, {"time": 234235, "pitch": 42, "duration": 20, "velocity": 84}, {"time": 234235, "pitch": 54, "duration": 10, "velocity": 60}, {"time": 234356, "pitch": 54, "duration": 10, "velocity": 40}, {"time": 234476, "pitch": 35, "duration": 20, "velocity": 85}, {"time": 234476, "pitch": 42, "duration": 30, "velocity": 64}, {"time": 234476, "pitch": 54, "duration": 10, "velocity": 90}, {"time": 234597, "pitch": 54, "duration": 10, "velocity": 40}, {"time": 234717, "pitch": 35, "duration": 20, "velocity": 100}, {"time": 234717, "pitch": 42, "duration": 30, "velocity": 84}, {"time": 234717, "pitch": 54, "duration": 10, "velocity": 60}, {"time": 234838, "pitch": 54, "duration": 10, "velocity": 40}, {"time": 234958, "pitch": 42, "duration": 30, "velocity": 64}, {"time": 234958, "pitch": 54, "duration": 20, "velocity": 90}, {"time": 234958, "pitch": 69, "duration": 10, "velocity": 90}, {"time": 235078, "pitch": 54, "duration": 21, "velocity": 40}, {"time": 235078, "pitch": 69, "duration": 10, "velocity": 90}, {"time": 235199, "pitch": 38, "duration": 30, "velocity": 110}, {"time": 235199, "pitch": 42, "duration": 20, "velocity": 84}, {"time": 235199, "pitch": 54, "duration": 10, "velocity": 60}, {"time": 235319, "pitch": 54, "duration": 10, "velocity": 40}, {"time": 235440, "pitch": 35, "duration": 20, "velocity": 100}, {"time": 235440, "pitch": 42, "duration": 30, "velocity": 64}, {"time": 235440, "pitch": 54, "duration": 10, "velocity": 90}, {"time": 235560, "pitch": 54, "duration": 10, "velocity": 40}, {"time": 235681, "pitch": 42, "duration": 20, "velocity": 84}, {"time": 235681, "pitch": 54, "duration": 10, "velocity": 60}, {"time": 235801, "pitch": 54, "duration": 10, "velocity": 40}, {"time": 235922, "pitch": 35, "duration": 20, "velocity": 85}, {"time": 235922, "pitch": 46, "duration": 30, "velocity": 95}, {"time": 235922, "pitch": 54, "duration": 10, "velocity": 90}, {"time": 236042, "pitch": 54, "duration": 10, "velocity": 40}, {"time": 236162, "pitch": 38, "duration": 31, "velocity": 110}, {"time": 236162, "pitch": 42, "duration": 21, "velocity": 84}, {"time": 236162, "pitch": 54, "duration": 10, "velocity": 60}, {"time": 236283, "pitch": 35, "duration": 20, "velocity": 85}, {"time": 236283, "pitch": 54, "duration": 10, "velocity": 40}, {"time": 236403, "pitch": 42, "duration": 20, "velocity": 64}, {"time": 236403, "pitch": 54, "duration": 10, "velocity": 90}, {"time": 236524, "pitch": 54, "duration": 10, "velocity": 40}, {"time": 236644, "pitch": 35, "duration": 20, "velocity": 100}, {"time": 236644, "pitch": 42, "duration": 39, "velocity": 84}, {"time": 236644, "pitch": 49, "duration": 30, "velocity": 80}, {"time": 236644, "pitch": 54, "duration": 10, "velocity": 60}, {"time": 236762, "pitch": 54, "duration": 10, "velocity": 40}, {"time": 236880, "pitch": 42, "duration": 30, "velocity": 64}, {"time": 236880, "pitch": 54, "duration": 20, "velocity": 90}, {"time": 236880, "pitch": 69, "duration": 10, "velocity": 90}, {"time": 236998, "pitch": 54, "duration": 20, "velocity": 40}, {"time": 236998, "pitch": 69, "duration": 10, "velocity": 90}, {"time": 237116, "pitch": 38, "duration": 30, "velocity": 110}, {"time": 237116, "pitch": 42, "duration": 20, "velocity": 84}, {"time": 237116, "pitch": 54, "duration": 10, "velocity": 60}, {"time": 237237, "pitch": 54, "duration": 10, "velocity": 40}, {"time": 237357, "pitch": 35, "duration": 20, "velocity": 100}, {"time": 237357, "pitch": 42, "duration": 30, "velocity": 64}, {"time": 237357, "pitch": 54, "duration": 10, "velocity": 90}, {"time": 237477, "pitch": 54, "duration": 11, "velocity": 40}, {"time": 237598, "pitch": 42, "duration": 20, "velocity": 84}, {"time": 237598, "pitch": 54, "duration": 10, "velocity": 60}, {"time": 237718, "pitch": 54, "duration": 10, "velocity": 40}, {"time": 237839, "pitch": 35, "duration": 20, "velocity": 100}, {"time": 237839, "pitch": 42, "duration": 30, "velocity": 64}, {"time": 237839, "pitch": 54, "duration": 10, "velocity": 90}, {"time": 237959, "pitch": 54, "duration": 10, "velocity": 40}, {"time": 238080, "pitch": 38, "duration": 30, "velocity": 110}, {"time": 238080, "pitch": 42, "duration": 20, "velocity": 84}, {"time": 238080, "pitch": 54, "duration": 10, "velocity": 60}, {"time": 238200, "pitch": 54, "duration": 10, "velocity": 40}, {"time": 238321, "pitch": 35, "duration": 20, "velocity": 85}, {"time": 238321, "pitch": 42, "duration": 30, "velocity": 64}, {"time": 238321, "pitch": 54, "duration": 10, "velocity": 90}, {"time": 238441, "pitch": 54, "duration": 10, "velocity": 40}, {"time": 238561, "pitch": 35, "duration": 21, "velocity": 100}, {"time": 238561, "pitch": 42, "duration": 41, "velocity": 84}, {"time": 238561, "pitch": 54, "duration": 11, "velocity": 60}, {"time": 238561, "pitch": 57, "duration": 31, "velocity": 90}, {"time": 238682, "pitch": 54, "duration": 10, "velocity": 40}, {"time": 238802, "pitch": 42, "duration": 30, "velocity": 64}, {"time": 238802, "pitch": 54, "duration": 20, "velocity": 90}, {"time": 238802, "pitch": 69, "duration": 10, "velocity": 90}, {"time": 238923, "pitch": 54, "duration": 20, "velocity": 40}, {"time": 238923, "pitch": 69, "duration": 10, "velocity": 90}, {"time": 239043, "pitch": 38, "duration": 30, "velocity": 110}, {"time": 239043, "pitch": 42, "duration": 20, "velocity": 84}, {"time": 239043, "pitch": 54, "duration": 10, "velocity": 60}, {"time": 239161, "pitch": 54, "duration": 10, "velocity": 40}, {"time": 239279, "pitch": 35, "duration": 20, "velocity": 100}, {"time": 239279, "pitch": 42, "duration": 30, "velocity": 64}, {"time": 239279, "pitch": 54, "duration": 10, "velocity": 90}, {"time": 239397, "pitch": 54, "duration": 10, "velocity": 40}, {"time": 239515, "pitch": 42, "duration": 20, "velocity": 84}, {"time": 239515, "pitch": 54, "duration": 10, "velocity": 60}, {"time": 239636, "pitch": 54, "duration": 10, "velocity": 40}, {"time": 239756, "pitch": 35, "duration": 20, "velocity": 85}, {"time": 239756, "pitch": 46, "duration": 30, "velocity": 95}, {"time": 239756, "pitch": 54, "duration": 10, "velocity": 90}, {"time": 239877, "pitch": 54, "duration": 10, "velocity": 40}, {"time": 239997, "pitch": 38, "duration": 30, "velocity": 110}, {"time": 239997, "pitch": 42, "duration": 20, "velocity": 84}, {"time": 239997, "pitch": 54, "duration": 10, "velocity": 60}, {"time": 240117, "pitch": 35, "duration": 20, "velocity": 85}, {"time": 240117, "pitch": 54, "duration": 10, "velocity": 40}, {"time": 240238, "pitch": 42, "duration": 20, "velocity": 64}, {"time": 240238, "pitch": 54, "duration": 10, "velocity": 90}, {"time": 240358, "pitch": 54, "duration": 10, "velocity": 40}, {"time": 240479, "pitch": 35, "duration": 20, "velocity": 100}, {"time": 240479, "pitch": 42, "duration": 40, "velocity": 84}, {"time": 240479, "pitch": 49, "duration": 30, "velocity": 80}, {"time": 240479, "pitch": 54, "duration": 10, "velocity": 60}, {"time": 240599, "pitch": 54, "duration": 10, "velocity": 40}, {"time": 240720, "pitch": 42, "duration": 30, "velocity": 64}, {"time": 240720, "pitch": 54, "duration": 20, "velocity": 90}, {"time": 240720, "pitch": 69, "duration": 10, "velocity": 90}, {"time": 240840, "pitch": 54, "duration": 20, "velocity": 40}, {"time": 240840, "pitch": 69, "duration": 10, "velocity": 90}, {"time": 240961, "pitch": 38, "duration": 30, "velocity": 110}, {"time": 240961, "pitch": 42, "duration": 20, "velocity": 84}, {"time": 240961, "pitch": 54, "duration": 10, "velocity": 60}, {"time": 241081, "pitch": 54, "duration": 10, "velocity": 40}, {"time": 241201, "pitch": 35, "duration": 20, "velocity": 100}, {"time": 241201, "pitch": 42, "duration": 30, "velocity": 64}, {"time": 241201, "pitch": 54, "duration": 10, "velocity": 90}, {"time": 241322, "pitch": 54, "duration": 10, "velocity": 40}, {"time": 241442, "pitch": 38, "duration": 30, "velocity": 110}, {"time": 241442, "pitch": 42, "duration": 20, "velocity": 84}, {"time": 241442, "pitch": 54, "duration": 10, "velocity": 60}, {"time": 241563, "pitch": 54, "duration": 10, "velocity": 40}, {"time": 241683, "pitch": 35, "duration": 20, "velocity": 100}, {"time": 241683, "pitch": 42, "duration": 30, "velocity": 64}, {"time": 241683, "pitch": 54, "duration": 10, "velocity": 90}, {"time": 241804, "pitch": 54, "duration": 10, "velocity": 40}, {"time": 241924, "pitch": 38, "duration": 29, "velocity": 110}, {"time": 241924, "pitch": 42, "duration": 20, "velocity": 84}, {"time": 241924, "pitch": 54, "duration": 10, "velocity": 60}, {"time": 242042, "pitch": 54, "duration": 10, "velocity": 40}, {"time": 242160, "pitch": 35, "duration": 20, "velocity": 85}, {"time": 242160, "pitch": 42, "duration": 30, "velocity": 64}, {"time": 242160, "pitch": 54, "duration": 10, "velocity": 90}, {"time": 242278, "pitch": 54, "duration": 10, "velocity": 40}, {"time": 242396, "pitch": 35, "duration": 20, "velocity": 100}, {"time": 242396, "pitch": 42, "duration": 40, "velocity": 84}, {"time": 242396, "pitch": 54, "duration": 10, "velocity": 60}, {"time": 242396, "pitch": 57, "duration": 30, "velocity": 90}, {"time": 242516, "pitch": 54, "duration": 10, "velocity": 40}, {"time": 242617, "pitch": 38, "duration": 10, "velocity": 90}, {"time": 242637, "pitch": 38, "duration": 40, "velocity": 110}, {"time": 242637, "pitch": 42, "duration": 30, "velocity": 64}, {"time": 242637, "pitch": 54, "duration": 20, "velocity": 90}, {"time": 242637, "pitch": 69, "duration": 10, "velocity": 90}, {"time": 242757, "pitch": 54, "duration": 20, "velocity": 40}, {"time": 242757, "pitch": 69, "duration": 10, "velocity": 90}, {"time": 242878, "pitch": 38, "duration": 30, "velocity": 110}, {"time": 242878, "pitch": 42, "duration": 20, "velocity": 84}, {"time": 242878, "pitch": 54, "duration": 10, "velocity": 60}, {"time": 242998, "pitch": 54, "duration": 10, "velocity": 40}, {"time": 243119, "pitch": 35, "duration": 20, "velocity": 100}, {"time": 243119, "pitch": 42, "duration": 30, "velocity": 64}, {"time": 243119, "pitch": 54, "duration": 10, "velocity": 90}, {"time": 243239, "pitch": 54, "duration": 10, "velocity": 40}, {"time": 243360, "pitch": 42, "duration": 20, "velocity": 84}, {"time": 243360, "pitch": 45, "duration": 20, "velocity": 90}, {"time": 243360, "pitch": 54, "duration": 10, "velocity": 60}, {"time": 243380, "pitch": 41, "duration": 10, "velocity": 90}, {"time": 243480, "pitch": 54, "duration": 10, "velocity": 40}, {"time": 243600, "pitch": 35, "duration": 20, "velocity": 85}, {"time": 243600, "pitch": 38, "duration": 41, "velocity": 100}, {"time": 243600, "pitch": 46, "duration": 31, "velocity": 95}, {"time": 243600, "pitch": 54, "duration": 10, "velocity": 90}, {"time": 243721, "pitch": 54, "duration": 10, "velocity": 40}, {"time": 243841, "pitch": 38, "duration": 30, "velocity": 110}, {"time": 243841, "pitch": 42, "duration": 20, "velocity": 84}, {"time": 243841, "pitch": 54, "duration": 10, "velocity": 60}, {"time": 243962, "pitch": 35, "duration": 30, "velocity": 85}, {"time": 243962, "pitch": 48, "duration": 20, "velocity": 90}, {"time": 243962, "pitch": 54, "duration": 10, "velocity": 40}, {"time": 244082, "pitch": 42, "duration": 30, "velocity": 64}, {"time": 244082, "pitch": 45, "duration": 20, "velocity": 90}, {"time": 244082, "pitch": 54, "duration": 10, "velocity": 90}, {"time": 244203, "pitch": 41, "duration": 20, "velocity": 90}, {"time": 244203, "pitch": 54, "duration": 10, "velocity": 40}, {"time": 244323, "pitch": 35, "duration": 20, "velocity": 100}, {"time": 244323, "pitch": 42, "duration": 40, "velocity": 84}, {"time": 244323, "pitch": 49, "duration": 30, "velocity": 80}, {"time": 244323, "pitch": 54, "duration": 10, "velocity": 60}, {"time": 244444, "pitch": 54, "duration": 10, "velocity": 40}, {"time": 244564, "pitch": 42, "duration": 30, "velocity": 64}, {"time": 244564, "pitch": 54, "duration": 20, "velocity": 90}, {"time": 244564, "pitch": 69, "duration": 10, "velocity": 90}, {"time": 244684, "pitch": 54, "duration": 20, "velocity": 40}, {"time": 244684, "pitch": 69, "duration": 10, "velocity": 90}, {"time": 244805, "pitch": 38, "duration": 29, "velocity": 110}, {"time": 244805, "pitch": 42, "duration": 19, "velocity": 84}, {"time": 244805, "pitch": 54, "duration": 10, "velocity": 60}, {"time": 244923, "pitch": 54, "duration": 10, "velocity": 40}, {"time": 245041, "pitch": 35, "duration": 19, "velocity": 100}, {"time": 245041, "pitch": 42, "duration": 29, "velocity": 64}, {"time": 245041, "pitch": 54, "duration": 10, "velocity": 90}, {"time": 245159, "pitch": 54, "duration": 10, "velocity": 40}, {"time": 245277, "pitch": 42, "duration": 20, "velocity": 84}, {"time": 245277, "pitch": 54, "duration": 10, "velocity": 60}, {"time": 245397, "pitch": 54, "duration": 10, "velocity": 40}, {"time": 245518, "pitch": 35, "duration": 20, "velocity": 100}, {"time": 245518, "pitch": 42, "duration": 30, "velocity": 64}, {"time": 245518, "pitch": 54, "duration": 10, "velocity": 90}, {"time": 245638, "pitch": 54, "duration": 10, "velocity": 40}, {"time": 245759, "pitch": 38, "duration": 30, "velocity": 110}, {"time": 245759, "pitch": 42, "duration": 20, "velocity": 84}, {"time": 245759, "pitch": 54, "duration": 10, "velocity": 60}, {"time": 245879, "pitch": 54, "duration": 10, "velocity": 40}, {"time": 245999, "pitch": 35, "duration": 21, "velocity": 85}, {"time": 245999, "pitch": 42, "duration": 31, "velocity": 64}, {"time": 245999, "pitch": 54, "duration": 10, "velocity": 90}, {"time": 246120, "pitch": 54, "duration": 10, "velocity": 40}, {"time": 246240, "pitch": 35, "duration": 20, "velocity": 100}, {"time": 246240, "pitch": 42, "duration": 30, "velocity": 84}, {"time": 246240, "pitch": 54, "duration": 10, "velocity": 60}, {"time": 246361, "pitch": 54, "duration": 10, "velocity": 40}, {"time": 246481, "pitch": 42, "duration": 30, "velocity": 64}, {"time": 246481, "pitch": 54, "duration": 20, "velocity": 90}, {"time": 246481, "pitch": 69, "duration": 10, "velocity": 90}, {"time": 246602, "pitch": 54, "duration": 20, "velocity": 40}, {"time": 246602, "pitch": 69, "duration": 10, "velocity": 90}, {"time": 246722, "pitch": 38, "duration": 40, "velocity": 110}, {"time": 246722, "pitch": 42, "duration": 30, "velocity": 84}, {"time": 246722, "pitch": 54, "duration": 10, "velocity": 60}, {"time": 246722, "pitch": 57, "duration": 20, "velocity": 90}, {"time": 246843, "pitch": 54, "duration": 10, "velocity": 40}, {"time": 246963, "pitch": 35, "duration": 20, "velocity": 100}, {"time": 246963, "pitch": 42, "duration": 30, "velocity": 64}, {"time": 246963, "pitch": 54, "duration": 10, "velocity": 90}, {"time": 247083, "pitch": 54, "duration": 10, "velocity": 40}, {"time": 247204, "pitch": 42, "duration": 19, "velocity": 84}, {"time": 247204, "pitch": 54, "duration": 10, "velocity": 60}, {"time": 247322, "pitch": 54, "duration": 10, "velocity": 40}, {"time": 247440, "pitch": 35, "duration": 20, "velocity": 85}, {"time": 247440, "pitch": 46, "duration": 29, "velocity": 95}, {"time": 247440, "pitch": 54, "duration": 10, "velocity": 90}, {"time": 247558, "pitch": 54, "duration": 10, "velocity": 40}, {"time": 247676, "pitch": 38, "duration": 30, "velocity": 110}, {"time": 247676, "pitch": 42, "duration": 20, "velocity": 84}, {"time": 247676, "pitch": 54, "duration": 10, "velocity": 60}, {"time": 247796, "pitch": 35, "duration": 20, "velocity": 85}, {"time": 247796, "pitch": 54, "duration": 10, "velocity": 40}, {"time": 247917, "pitch": 42, "duration": 20, "velocity": 64}, {"time": 247917, "pitch": 54, "duration": 10, "velocity": 90}, {"time": 248037, "pitch": 54, "duration": 10, "velocity": 40}, {"time": 248158, "pitch": 35, "duration": 20, "velocity": 100}, {"time": 248158, "pitch": 42, "duration": 30, "velocity": 84}, {"time": 248158, "pitch": 54, "duration": 10, "velocity": 60}, {"time": 248278, "pitch": 54, "duration": 10, "velocity": 40}, {"time": 248398, "pitch": 42, "duration": 31, "velocity": 64}, {"time": 248398, "pitch": 54, "duration": 21, "velocity": 90}, {"time": 248398, "pitch": 69, "duration": 11, "velocity": 90}, {"time": 248519, "pitch": 54, "duration": 20, "velocity": 40}, {"time": 248519, "pitch": 69, "duration": 10, "velocity": 90}, {"time": 248639, "pitch": 38, "duration": 30, "velocity": 110}, {"time": 248639, "pitch": 42, "duration": 20, "velocity": 84}, {"time": 248639, "pitch": 54, "duration": 10, "velocity": 60}, {"time": 248760, "pitch": 54, "duration": 10, "velocity": 40}, {"time": 248880, "pitch": 35, "duration": 20, "velocity": 100}, {"time": 248880, "pitch": 42, "duration": 30, "velocity": 64}, {"time": 248880, "pitch": 54, "duration": 10, "velocity": 90}, {"time": 249001, "pitch": 54, "duration": 10, "velocity": 40}, {"time": 249121, "pitch": 42, "duration": 20, "velocity": 84}, {"time": 249121, "pitch": 54, "duration": 10, "velocity": 60}, {"time": 249242, "pitch": 54, "duration": 10, "velocity": 40}, {"time": 249362, "pitch": 35, "duration": 20, "velocity": 100}, {"time": 249362, "pitch": 42, "duration": 30, "velocity": 64}, {"time": 249362, "pitch": 54, "duration": 10, "velocity": 90}, {"time": 249482, "pitch": 54, "duration": 11, "velocity": 40}, {"time": 249603, "pitch": 38, "duration": 30, "velocity": 110}, {"time": 249603, "pitch": 42, "duration": 20, "velocity": 84}, {"time": 249603, "pitch": 54, "duration": 10, "velocity": 60}, {"time": 249723, "pitch": 54, "duration": 10, "velocity": 40}, {"time": 249844, "pitch": 35, "duration": 20, "velocity": 85}, {"time": 249844, "pitch": 42, "duration": 30, "velocity": 64}, {"time": 249844, "pitch": 54, "duration": 10, "velocity": 90}, {"time": 249964, "pitch": 54, "duration": 10, "velocity": 40}, {"time": 250085, "pitch": 35, "duration": 19, "velocity": 100}, {"time": 250085, "pitch": 42, "duration": 29, "velocity": 84}, {"time": 250085, "pitch": 54, "duration": 9, "velocity": 60}, {"time": 250203, "pitch": 54, "duration": 9, "velocity": 40}, {"time": 250321, "pitch": 42, "duration": 29, "velocity": 64}, {"time": 250321, "pitch": 54, "duration": 19, "velocity": 90}, {"time": 250321, "pitch": 69, "duration": 9, "velocity": 90}, {"time": 250439, "pitch": 54, "duration": 19, "velocity": 40}, {"time": 250439, "pitch": 69, "duration": 10, "velocity": 90}, {"time": 250557, "pitch": 38, "duration": 30, "velocity": 110}, {"time": 250557, "pitch": 42, "duration": 20, "velocity": 84}, {"time": 250557, "pitch": 54, "duration": 10, "velocity": 60}, {"time": 250677, "pitch": 54, "duration": 10, "velocity": 40}, {"time": 250798, "pitch": 35, "duration": 20, "velocity": 100}, {"time": 250798, "pitch": 42, "duration": 30, "velocity": 64}, {"time": 250798, "pitch": 54, "duration": 10, "velocity": 90}, {"time": 250918, "pitch": 54, "duration": 10, "velocity": 40}, {"time": 251038, "pitch": 42, "duration": 20, "velocity": 84}, {"time": 251038, "pitch": 54, "duration": 10, "velocity": 60}, {"time": 251159, "pitch": 54, "duration": 10, "velocity": 40}, {"time": 251279, "pitch": 35, "duration": 20, "velocity": 85}, {"time": 251279, "pitch": 46, "duration": 30, "velocity": 95}, {"time": 251279, "pitch": 54, "duration": 10, "velocity": 90}, {"time": 251400, "pitch": 38, "duration": 20, "velocity": 80}, {"time": 251400, "pitch": 54, "duration": 10, "velocity": 40}, {"time": 251520, "pitch": 38, "duration": 30, "velocity": 110}, {"time": 251520, "pitch": 42, "duration": 20, "velocity": 84}, {"time": 251520, "pitch": 54, "duration": 10, "velocity": 60}, {"time": 251641, "pitch": 35, "duration": 20, "velocity": 85}, {"time": 251641, "pitch": 54, "duration": 10, "velocity": 40}, {"time": 251761, "pitch": 42, "duration": 30, "velocity": 64}, {"time": 251761, "pitch": 45, "duration": 20, "velocity": 90}, {"time": 251761, "pitch": 54, "duration": 10, "velocity": 90}, {"time": 251882, "pitch": 54, "duration": 10, "velocity": 40}, {"time": 252002, "pitch": 35, "duration": 20, "velocity": 100}, {"time": 252002, "pitch": 42, "duration": 40, "velocity": 84}, {"time": 252002, "pitch": 49, "duration": 30, "velocity": 80}, {"time": 252002, "pitch": 54, "duration": 10, "velocity": 60}, {"time": 252122, "pitch": 54, "duration": 10, "velocity": 40}, {"time": 252243, "pitch": 42, "duration": 30, "velocity": 64}, {"time": 252243, "pitch": 54, "duration": 20, "velocity": 90}, {"time": 252243, "pitch": 69, "duration": 10, "velocity": 90}, {"time": 252363, "pitch": 54, "duration": 20, "velocity": 40}, {"time": 252363, "pitch": 69, "duration": 10, "velocity": 90}, {"time": 252484, "pitch": 38, "duration": 29, "velocity": 110}, {"time": 252484, "pitch": 42, "duration": 19, "velocity": 84}, {"time": 252484, "pitch": 54, "duration": 9, "velocity": 60}, {"time": 252602, "pitch": 54, "duration": 10, "velocity": 40}, {"time": 252720, "pitch": 35, "duration": 19, "velocity": 100}, {"time": 252720, "pitch": 42, "duration": 29, "velocity": 64}, {"time": 252720, "pitch": 54, "duration": 10, "velocity": 90}, {"time": 252838, "pitch": 54, "duration": 10, "velocity": 40}, {"time": 252956, "pitch": 42, "duration": 20, "velocity": 84}, {"time": 252956, "pitch": 54, "duration": 10, "velocity": 60}, {"time": 253076, "pitch": 54, "duration": 10, "velocity": 40}, {"time": 253197, "pitch": 35, "duration": 20, "velocity": 100}, {"time": 253197, "pitch": 42, "duration": 30, "velocity": 64}, {"time": 253197, "pitch": 54, "duration": 10, "velocity": 90}, {"time": 253317, "pitch": 54, "duration": 10, "velocity": 40}, {"time": 253437, "pitch": 38, "duration": 31, "velocity": 110}, {"time": 253437, "pitch": 42, "duration": 21, "velocity": 84}, {"time": 253437, "pitch": 54, "duration": 10, "velocity": 60}, {"time": 253558, "pitch": 54, "duration": 10, "velocity": 40}, {"time": 253678, "pitch": 35, "duration": 20, "velocity": 85}, {"time": 253678, "pitch": 42, "duration": 30, "velocity": 64}, {"time": 253678, "pitch": 54, "duration": 10, "velocity": 90}, {"time": 253799, "pitch": 54, "duration": 10, "velocity": 40}, {"time": 253919, "pitch": 35, "duration": 20, "velocity": 100}, {"time": 253919, "pitch": 42, "duration": 40, "velocity": 84}, {"time": 253919, "pitch": 54, "duration": 10, "velocity": 60}, {"time": 253919, "pitch": 57, "duration": 30, "velocity": 90}, {"time": 254040, "pitch": 54, "duration": 10, "velocity": 40}, {"time": 254160, "pitch": 42, "duration": 30, "velocity": 64}, {"time": 254160, "pitch": 54, "duration": 20, "velocity": 90}, {"time": 254160, "pitch": 69, "duration": 10, "velocity": 90}, {"time": 254281, "pitch": 54, "duration": 20, "velocity": 40}, {"time": 254281, "pitch": 69, "duration": 10, "velocity": 90}, {"time": 254401, "pitch": 38, "duration": 30, "velocity": 110}, {"time": 254401, "pitch": 42, "duration": 20, "velocity": 84}, {"time": 254401, "pitch": 54, "duration": 10, "velocity": 60}, {"time": 254521, "pitch": 54, "duration": 10, "velocity": 40}, {"time": 254642, "pitch": 35, "duration": 20, "velocity": 100}, {"time": 254642, "pitch": 42, "duration": 30, "velocity": 64}, {"time": 254642, "pitch": 54, "duration": 10, "velocity": 90}, {"time": 254762, "pitch": 54, "duration": 10, "velocity": 40}, {"time": 254883, "pitch": 42, "duration": 20, "velocity": 84}, {"time": 254883, "pitch": 54, "duration": 10, "velocity": 60}, {"time": 255003, "pitch": 54, "duration": 10, "velocity": 40}, {"time": 255124, "pitch": 35, "duration": 20, "velocity": 85}, {"time": 255124, "pitch": 46, "duration": 30, "velocity": 95}, {"time": 255124, "pitch": 54, "duration": 10, "velocity": 90}, {"time": 255244, "pitch": 54, "duration": 10, "velocity": 40}, {"time": 255364, "pitch": 38, "duration": 30, "velocity": 110}, {"time": 255364, "pitch": 42, "duration": 20, "velocity": 84}, {"time": 255364, "pitch": 54, "duration": 10, "velocity": 60}, {"time": 255482, "pitch": 35, "duration": 20, "velocity": 85}, {"time": 255482, "pitch": 54, "duration": 10, "velocity": 40}, {"time": 255600, "pitch": 42, "duration": 20, "velocity": 64}, {"time": 255600, "pitch": 54, "duration": 10, "velocity": 90}, {"time": 255719, "pitch": 54, "duration": 9, "velocity": 40}, {"time": 255837, "pitch": 35, "duration": 20, "velocity": 100}, {"time": 255837, "pitch": 42, "duration": 40, "velocity": 84}, {"time": 255837, "pitch": 49, "duration": 30, "velocity": 80}, {"time": 255837, "pitch": 54, "duration": 10, "velocity": 60}, {"time": 255957, "pitch": 54, "duration": 10, "velocity": 40}, {"time": 256077, "pitch": 42, "duration": 30, "velocity": 64}, {"time": 256077, "pitch": 54, "duration": 20, "velocity": 90}, {"time": 256077, "pitch": 69, "duration": 10, "velocity": 90}, {"time": 256198, "pitch": 54, "duration": 20, "velocity": 40}, {"time": 256198, "pitch": 69, "duration": 10, "velocity": 90}, {"time": 256318, "pitch": 38, "duration": 30, "velocity": 110}, {"time": 256318, "pitch": 42, "duration": 20, "velocity": 84}, {"time": 256318, "pitch": 54, "duration": 10, "velocity": 60}, {"time": 256439, "pitch": 54, "duration": 10, "velocity": 40}, {"time": 256559, "pitch": 35, "duration": 20, "velocity": 100}, {"time": 256559, "pitch": 42, "duration": 30, "velocity": 64}, {"time": 256559, "pitch": 54, "duration": 10, "velocity": 90}, {"time": 256680, "pitch": 54, "duration": 10, "velocity": 40}, {"time": 256800, "pitch": 42, "duration": 20, "velocity": 84}, {"time": 256800, "pitch": 54, "duration": 10, "velocity": 60}, {"time": 256920, "pitch": 54, "duration": 10, "velocity": 40}, {"time": 257041, "pitch": 35, "duration": 20, "velocity": 100}, {"time": 257041, "pitch": 42, "duration": 30, "velocity": 64}, {"time": 257041, "pitch": 54, "duration": 10, "velocity": 90}, {"time": 257161, "pitch": 54, "duration": 10, "velocity": 40}, {"time": 257282, "pitch": 38, "duration": 30, "velocity": 110}, {"time": 257282, "pitch": 42, "duration": 20, "velocity": 84}, {"time": 257282, "pitch": 54, "duration": 10, "velocity": 60}, {"time": 257402, "pitch": 54, "duration": 10, "velocity": 40}, {"time": 257523, "pitch": 35, "duration": 20, "velocity": 85}, {"time": 257523, "pitch": 42, "duration": 30, "velocity": 64}, {"time": 257523, "pitch": 54, "duration": 10, "velocity": 90}, {"time": 257643, "pitch": 54, "duration": 10, "velocity": 40}, {"time": 257763, "pitch": 35, "duration": 20, "velocity": 100}, {"time": 257763, "pitch": 42, "duration": 40, "velocity": 84}, {"time": 257763, "pitch": 54, "duration": 10, "velocity": 60}, {"time": 257763, "pitch": 57, "duration": 30, "velocity": 90}, {"time": 257882, "pitch": 54, "duration": 9, "velocity": 40}, {"time": 258000, "pitch": 38, "duration": 39, "velocity": 110}, {"time": 258000, "pitch": 42, "duration": 29, "velocity": 64}, {"time": 258000, "pitch": 54, "duration": 19, "velocity": 90}, {"time": 258000, "pitch": 69, "duration": 9, "velocity": 90}, {"time": 258118, "pitch": 54, "duration": 19, "velocity": 40}, {"time": 258118, "pitch": 69, "duration": 9, "velocity": 90}, {"time": 258236, "pitch": 38, "duration": 30, "velocity": 110}, {"time": 258236, "pitch": 42, "duration": 20, "velocity": 84}, {"time": 258236, "pitch": 54, "duration": 10, "velocity": 60}, {"time": 258356, "pitch": 35, "duration": 20, "velocity": 100}, {"time": 258356, "pitch": 54, "duration": 10, "velocity": 40}, {"time": 258476, "pitch": 42, "duration": 31, "velocity": 64}, {"time": 258476, "pitch": 49, "duration": 20, "velocity": 80}, {"time": 258476, "pitch": 54, "duration": 10, "velocity": 90}, {"time": 258597, "pitch": 35, "duration": 20, "velocity": 100}, {"time": 258597, "pitch": 54, "duration": 10, "velocity": 40}, {"time": 258717, "pitch": 42, "duration": 20, "velocity": 84}, {"time": 258717, "pitch": 54, "duration": 10, "velocity": 60}, {"time": 258838, "pitch": 38, "duration": 20, "velocity": 90}, {"time": 258838, "pitch": 54, "duration": 10, "velocity": 40}, {"time": 258958, "pitch": 38, "duration": 30, "velocity": 110}, {"time": 258958, "pitch": 46, "duration": 20, "velocity": 95}, {"time": 258958, "pitch": 54, "duration": 10, "velocity": 90}, {"time": 259079, "pitch": 54, "duration": 10, "velocity": 40}, {"time": 259199, "pitch": 38, "duration": 30, "velocity": 110}, {"time": 259199, "pitch": 42, "duration": 20, "velocity": 84}, {"time": 259199, "pitch": 54, "duration": 10, "velocity": 60}, {"time": 259319, "pitch": 45, "duration": 21, "velocity": 90}, {"time": 259319, "pitch": 54, "duration": 11, "velocity": 40}, {"time": 259440, "pitch": 41, "duration": 20, "velocity": 90}, {"time": 259440, "pitch": 42, "duration": 30, "velocity": 64}, {"time": 259440, "pitch": 54, "duration": 10, "velocity": 90}, {"time": 259560, "pitch": 54, "duration": 10, "velocity": 40}, {"time": 259681, "pitch": 35, "duration": 20, "velocity": 100}, {"time": 259681, "pitch": 42, "duration": 40, "velocity": 84}, {"time": 259681, "pitch": 49, "duration": 30, "velocity": 80}, {"time": 259681, "pitch": 54, "duration": 10, "velocity": 60}, {"time": 259801, "pitch": 54, "duration": 10, "velocity": 40}, {"time": 259922, "pitch": 42, "duration": 30, "velocity": 64}, {"time": 259922, "pitch": 54, "duration": 20, "velocity": 90}, {"time": 259922, "pitch": 69, "duration": 10, "velocity": 90}, {"time": 260042, "pitch": 54, "duration": 20, "velocity": 40}, {"time": 260042, "pitch": 69, "duration": 10, "velocity": 90}, {"time": 260163, "pitch": 38, "duration": 30, "velocity": 110}, {"time": 260163, "pitch": 42, "duration": 20, "velocity": 84}, {"time": 260163, "pitch": 54, "duration": 10, "velocity": 60}, {"time": 260283, "pitch": 54, "duration": 10, "velocity": 40}, {"time": 260403, "pitch": 35, "duration": 21, "velocity": 100}, {"time": 260403, "pitch": 42, "duration": 31, "velocity": 64}, {"time": 260403, "pitch": 54, "duration": 11, "velocity": 90}, {"time": 260524, "pitch": 54, "duration": 10, "velocity": 40}, {"time": 260644, "pitch": 42, "duration": 20, "velocity": 84}, {"time": 260644, "pitch": 54, "duration": 10, "velocity": 60}, {"time": 260762, "pitch": 35, "duration": 20, "velocity": 85}, {"time": 260762, "pitch": 54, "duration": 10, "velocity": 40}, {"time": 260880, "pitch": 35, "duration": 20, "velocity": 100}, {"time": 260880, "pitch": 42, "duration": 30, "velocity": 64}, {"time": 260880, "pitch": 54, "duration": 10, "velocity": 90}, {"time": 260998, "pitch": 54, "duration": 10, "velocity": 40}, {"time": 261116, "pitch": 38, "duration": 30, "velocity": 110}, {"time": 261116, "pitch": 42, "duration": 20, "velocity": 84}, {"time": 261116, "pitch": 54, "duration": 10, "velocity": 60}, {"time": 261237, "pitch": 54, "duration": 10, "velocity": 40}, {"time": 261357, "pitch": 35, "duration": 20, "velocity": 85}, {"time": 261357, "pitch": 42, "duration": 30, "velocity": 64}, {"time": 261357, "pitch": 54, "duration": 10, "velocity": 90}, {"time": 261478, "pitch": 54, "duration": 10, "velocity": 40}, {"time": 261598, "pitch": 35, "duration": 20, "velocity": 100}, {"time": 261598, "pitch": 42, "duration": 30, "velocity": 84}, {"time": 261598, "pitch": 54, "duration": 10, "velocity": 60}, {"time": 261719, "pitch": 54, "duration": 10, "velocity": 40}, {"time": 261839, "pitch": 42, "duration": 30, "velocity": 64}, {"time": 261839, "pitch": 54, "duration": 20, "velocity": 90}, {"time": 261839, "pitch": 69, "duration": 10, "velocity": 90}, {"time": 261959, "pitch": 54, "duration": 20, "velocity": 40}, {"time": 261959, "pitch": 69, "duration": 10, "velocity": 90}, {"time": 262080, "pitch": 38, "duration": 30, "velocity": 110}, {"time": 262080, "pitch": 42, "duration": 20, "velocity": 84}, {"time": 262080, "pitch": 54, "duration": 10, "velocity": 60}, {"time": 262200, "pitch": 54, "duration": 10, "velocity": 40}, {"time": 262321, "pitch": 35, "duration": 20, "velocity": 100}, {"time": 262321, "pitch": 42, "duration": 30, "velocity": 64}, {"time": 262321, "pitch": 54, "duration": 10, "velocity": 90}, {"time": 262441, "pitch": 54, "duration": 10, "velocity": 40}, {"time": 262562, "pitch": 42, "duration": 20, "velocity": 84}, {"time": 262562, "pitch": 54, "duration": 10, "velocity": 60}, {"time": 262682, "pitch": 54, "duration": 10, "velocity": 40}, {"time": 262802, "pitch": 35, "duration": 21, "velocity": 85}, {"time": 262802, "pitch": 46, "duration": 31, "velocity": 95}, {"time": 262802, "pitch": 54, "duration": 11, "velocity": 90}, {"time": 262923, "pitch": 54, "duration": 10, "velocity": 40}, {"time": 263043, "pitch": 38, "duration": 30, "velocity": 110}, {"time": 263043, "pitch": 42, "duration": 20, "velocity": 84}, {"time": 263043, "pitch": 54, "duration": 10, "velocity": 60}, {"time": 263161, "pitch": 35, "duration": 20, "velocity": 85}, {"time": 263161, "pitch": 54, "duration": 10, "velocity": 40}, {"time": 263279, "pitch": 42, "duration": 20, "velocity": 64}, {"time": 263279, "pitch": 54, "duration": 10, "velocity": 90}, {"time": 263397, "pitch": 54, "duration": 10, "velocity": 40}, {"time": 263515, "pitch": 35, "duration": 20, "velocity": 100}, {"time": 263515, "pitch": 42, "duration": 30, "velocity": 84}, {"time": 263515, "pitch": 54, "duration": 10, "velocity": 60}, {"time": 263636, "pitch": 54, "duration": 10, "velocity": 40}, {"time": 263756, "pitch": 42, "duration": 30, "velocity": 64}, {"time": 263756, "pitch": 54, "duration": 20, "velocity": 90}, {"time": 263756, "pitch": 69, "duration": 10, "velocity": 90}, {"time": 263877, "pitch": 54, "duration": 20, "velocity": 40}, {"time": 263877, "pitch": 69, "duration": 10, "velocity": 90}, {"time": 263997, "pitch": 38, "duration": 30, "velocity": 110}, {"time": 263997, "pitch": 42, "duration": 20, "velocity": 84}, {"time": 263997, "pitch": 54, "duration": 10, "velocity": 60}, {"time": 264118, "pitch": 54, "duration": 10, "velocity": 40}, {"time": 264238, "pitch": 35, "duration": 20, "velocity": 100}, {"time": 264238, "pitch": 42, "duration": 30, "velocity": 64}, {"time": 264238, "pitch": 54, "duration": 10, "velocity": 90}, {"time": 264358, "pitch": 54, "duration": 10, "velocity": 40}, {"time": 264479, "pitch": 42, "duration": 20, "velocity": 84}, {"time": 264479, "pitch": 54, "duration": 10, "velocity": 60}, {"time": 264599, "pitch": 35, "duration": 20, "velocity": 85}, {"time": 264599, "pitch": 54, "duration": 10, "velocity": 40}, {"time": 264720, "pitch": 35, "duration": 20, "velocity": 100}, {"time": 264720, "pitch": 42, "duration": 30, "velocity": 64}, {"time": 264720, "pitch": 54, "duration": 10, "velocity": 90}, {"time": 264840, "pitch": 54, "duration": 10, "velocity": 40}, {"time": 264961, "pitch": 38, "duration": 30, "velocity": 110}, {"time": 264961, "pitch": 42, "duration": 20, "velocity": 84}, {"time": 264961, "pitch": 54, "duration": 10, "velocity": 60}, {"time": 265081, "pitch": 54, "duration": 10, "velocity": 40}, {"time": 265202, "pitch": 35, "duration": 20, "velocity": 85}, {"time": 265202, "pitch": 42, "duration": 30, "velocity": 64}, {"time": 265202, "pitch": 54, "duration": 10, "velocity": 90}, {"time": 265322, "pitch": 54, "duration": 10, "velocity": 40}, {"time": 265442, "pitch": 35, "duration": 20, "velocity": 100}, {"time": 265442, "pitch": 42, "duration": 31, "velocity": 84}, {"time": 265442, "pitch": 54, "duration": 10, "velocity": 60}, {"time": 265563, "pitch": 54, "duration": 10, "velocity": 40}, {"time": 265683, "pitch": 42, "duration": 30, "velocity": 64}, {"time": 265683, "pitch": 54, "duration": 20, "velocity": 90}, {"time": 265683, "pitch": 69, "duration": 10, "velocity": 90}, {"time": 265804, "pitch": 54, "duration": 20, "velocity": 40}, {"time": 265804, "pitch": 69, "duration": 10, "velocity": 90}, {"time": 265924, "pitch": 38, "duration": 30, "velocity": 110}, {"time": 265924, "pitch": 42, "duration": 20, "velocity": 84}, {"time": 265924, "pitch": 54, "duration": 10, "velocity": 60}, {"time": 266042, "pitch": 54, "duration": 10, "velocity": 40}, {"time": 266160, "pitch": 35, "duration": 20, "velocity": 100}, {"time": 266160, "pitch": 42, "duration": 30, "velocity": 64}, {"time": 266160, "pitch": 54, "duration": 10, "velocity": 90}, {"time": 266278, "pitch": 54, "duration": 10, "velocity": 40}, {"time": 266396, "pitch": 42, "duration": 20, "velocity": 84}, {"time": 266396, "pitch": 54, "duration": 10, "velocity": 60}, {"time": 266517, "pitch": 54, "duration": 10, "velocity": 40}, {"time": 266637, "pitch": 35, "duration": 20, "velocity": 85}, {"time": 266637, "pitch": 46, "duration": 30, "velocity": 95}, {"time": 266637, "pitch": 54, "duration": 10, "velocity": 90}, {"time": 266757, "pitch": 54, "duration": 11, "velocity": 40}, {"time": 266878, "pitch": 38, "duration": 30, "velocity": 110}, {"time": 266878, "pitch": 42, "duration": 20, "velocity": 84}, {"time": 266878, "pitch": 54, "duration": 10, "velocity": 60}, {"time": 266998, "pitch": 35, "duration": 20, "velocity": 85}, {"time": 266998, "pitch": 54, "duration": 10, "velocity": 40}, {"time": 267119, "pitch": 42, "duration": 20, "velocity": 64}, {"time": 267119, "pitch": 54, "duration": 10, "velocity": 90}, {"time": 267239, "pitch": 54, "duration": 10, "velocity": 40}, {"time": 267360, "pitch": 35, "duration": 20, "velocity": 100}, {"time": 267360, "pitch": 42, "duration": 40, "velocity": 84}, {"time": 267360, "pitch": 54, "duration": 10, "velocity": 60}, {"time": 267360, "pitch": 57, "duration": 30, "velocity": 90}, {"time": 267480, "pitch": 54, "duration": 10, "velocity": 40}, {"time": 267601, "pitch": 42, "duration": 30, "velocity": 64}, {"time": 267601, "pitch": 54, "duration": 20, "velocity": 90}, {"time": 267601, "pitch": 69, "duration": 10, "velocity": 90}, {"time": 267721, "pitch": 54, "duration": 20, "velocity": 40}, {"time": 267721, "pitch": 69, "duration": 10, "velocity": 90}, {"time": 267841, "pitch": 38, "duration": 31, "velocity": 110}, {"time": 267841, "pitch": 42, "duration": 21, "velocity": 84}, {"time": 267841, "pitch": 54, "duration": 10, "velocity": 60}, {"time": 267962, "pitch": 54, "duration": 10, "velocity": 40}, {"time": 268082, "pitch": 35, "duration": 20, "velocity": 100}, {"time": 268082, "pitch": 42, "duration": 30, "velocity": 64}, {"time": 268082, "pitch": 54, "duration": 10, "velocity": 90}, {"time": 268203, "pitch": 54, "duration": 10, "velocity": 40}, {"time": 268323, "pitch": 42, "duration": 20, "velocity": 84}, {"time": 268323, "pitch": 54, "duration": 10, "velocity": 60}, {"time": 268441, "pitch": 35, "duration": 20, "velocity": 85}, {"time": 268441, "pitch": 54, "duration": 10, "velocity": 40}, {"time": 268559, "pitch": 35, "duration": 20, "velocity": 100}, {"time": 268559, "pitch": 42, "duration": 30, "velocity": 64}, {"time": 268559, "pitch": 54, "duration": 10, "velocity": 90}, {"time": 268677, "pitch": 54, "duration": 10, "velocity": 40}, {"time": 268795, "pitch": 38, "duration": 30, "velocity": 110}, {"time": 268795, "pitch": 42, "duration": 20, "velocity": 84}, {"time": 268795, "pitch": 54, "duration": 10, "velocity": 60}, {"time": 268916, "pitch": 54, "duration": 10, "velocity": 40}, {"time": 269036, "pitch": 35, "duration": 20, "velocity": 85}, {"time": 269036, "pitch": 42, "duration": 30, "velocity": 64}, {"time": 269036, "pitch": 54, "duration": 10, "velocity": 90}, {"time": 269157, "pitch": 54, "duration": 10, "velocity": 40}, {"time": 269277, "pitch": 35, "duration": 20, "velocity": 100}, {"time": 269277, "pitch": 42, "duration": 30, "velocity": 84}, {"time": 269277, "pitch": 54, "duration": 10, "velocity": 60}, {"time": 269397, "pitch": 54, "duration": 10, "velocity": 40}, {"time": 269518, "pitch": 42, "duration": 30, "velocity": 64}, {"time": 269518, "pitch": 54, "duration": 20, "velocity": 90}, {"time": 269518, "pitch": 69, "duration": 10, "velocity": 90}, {"time": 269638, "pitch": 54, "duration": 20, "velocity": 40}, {"time": 269638, "pitch": 69, "duration": 10, "velocity": 90}, {"time": 269759, "pitch": 38, "duration": 30, "velocity": 110}, {"time": 269759, "pitch": 42, "duration": 20, "velocity": 84}, {"time": 269759, "pitch": 54, "duration": 10, "velocity": 60}, {"time": 269879, "pitch": 54, "duration": 10, "velocity": 40}, {"time": 270000, "pitch": 35, "duration": 20, "velocity": 100}, {"time": 270000, "pitch": 42, "duration": 30, "velocity": 64}, {"time": 270000, "pitch": 54, "duration": 10, "velocity": 90}, {"time": 270120, "pitch": 54, "duration": 10, "velocity": 40}, {"time": 270240, "pitch": 42, "duration": 21, "velocity": 84}, {"time": 270240, "pitch": 54, "duration": 11, "velocity": 60}, {"time": 270361, "pitch": 54, "duration": 10, "velocity": 40}, {"time": 270481, "pitch": 35, "duration": 20, "velocity": 85}, {"time": 270481, "pitch": 46, "duration": 30, "velocity": 95}, {"time": 270481, "pitch": 54, "duration": 10, "velocity": 90}, {"time": 270602, "pitch": 54, "duration": 10, "velocity": 40}, {"time": 270722, "pitch": 38, "duration": 30, "velocity": 110}, {"time": 270722, "pitch": 42, "duration": 20, "velocity": 84}, {"time": 270722, "pitch": 54, "duration": 10, "velocity": 60}, {"time": 270843, "pitch": 35, "duration": 20, "velocity": 85}, {"time": 270843, "pitch": 54, "duration": 10, "velocity": 40}, {"time": 270963, "pitch": 42, "duration": 20, "velocity": 64}, {"time": 270963, "pitch": 54, "duration": 10, "velocity": 90}, {"time": 271084, "pitch": 54, "duration": 10, "velocity": 40}, {"time": 271204, "pitch": 35, "duration": 20, "velocity": 100}, {"time": 271204, "pitch": 42, "duration": 29, "velocity": 84}, {"time": 271204, "pitch": 54, "duration": 10, "velocity": 60}, {"time": 271322, "pitch": 54, "duration": 10, "velocity": 40}, {"time": 271440, "pitch": 42, "duration": 30, "velocity": 64}, {"time": 271440, "pitch": 54, "duration": 20, "velocity": 90}, {"time": 271440, "pitch": 69, "duration": 10, "velocity": 90}, {"time": 271558, "pitch": 54, "duration": 20, "velocity": 40}, {"time": 271558, "pitch": 69, "duration": 10, "velocity": 90}, {"time": 271676, "pitch": 38, "duration": 30, "velocity": 110}, {"time": 271676, "pitch": 42, "duration": 20, "velocity": 84}, {"time": 271676, "pitch": 54, "duration": 10, "velocity": 60}, {"time": 271796, "pitch": 54, "duration": 10, "velocity": 40}, {"time": 271917, "pitch": 35, "duration": 20, "velocity": 100}, {"time": 271917, "pitch": 42, "duration": 30, "velocity": 64}, {"time": 271917, "pitch": 54, "duration": 10, "velocity": 90}, {"time": 272037, "pitch": 54, "duration": 10, "velocity": 40}, {"time": 272158, "pitch": 42, "duration": 20, "velocity": 84}, {"time": 272158, "pitch": 54, "duration": 10, "velocity": 60}, {"time": 272278, "pitch": 35, "duration": 20, "velocity": 85}, {"time": 272278, "pitch": 54, "duration": 10, "velocity": 40}, {"time": 272399, "pitch": 35, "duration": 20, "velocity": 100}, {"time": 272399, "pitch": 42, "duration": 30, "velocity": 64}, {"time": 272399, "pitch": 54, "duration": 10, "velocity": 90}, {"time": 272519, "pitch": 48, "duration": 20, "velocity": 90}, {"time": 272519, "pitch": 54, "duration": 10, "velocity": 40}, {"time": 272640, "pitch": 38, "duration": 30, "velocity": 110}, {"time": 272640, "pitch": 42, "duration": 20, "velocity": 84}, {"time": 272640, "pitch": 54, "duration": 10, "velocity": 60}, {"time": 272760, "pitch": 45, "duration": 20, "velocity": 90}, {"time": 272760, "pitch": 54, "duration": 10, "velocity": 40}, {"time": 272880, "pitch": 35, "duration": 31, "velocity": 85}, {"time": 272880, "pitch": 42, "duration": 41, "velocity": 64}, {"time": 272880, "pitch": 45, "duration": 20, "velocity": 90}, {"time": 272880, "pitch": 54, "duration": 10, "velocity": 90}, {"time": 273001, "pitch": 41, "duration": 20, "velocity": 90}, {"time": 273001, "pitch": 54, "duration": 10, "velocity": 40}, {"time": 273121, "pitch": 35, "duration": 20, "velocity": 100}, {"time": 273121, "pitch": 42, "duration": 40, "velocity": 84}, {"time": 273121, "pitch": 49, "duration": 30, "velocity": 80}, {"time": 273121, "pitch": 54, "duration": 10, "velocity": 60}, {"time": 273242, "pitch": 54, "duration": 10, "velocity": 40}, {"time": 273362, "pitch": 42, "duration": 30, "velocity": 64}, {"time": 273362, "pitch": 54, "duration": 20, "velocity": 90}, {"time": 273362, "pitch": 69, "duration": 10, "velocity": 90}, {"time": 273483, "pitch": 54, "duration": 20, "velocity": 40}, {"time": 273483, "pitch": 69, "duration": 10, "velocity": 90}, {"time": 273603, "pitch": 38, "duration": 30, "velocity": 110}, {"time": 273603, "pitch": 42, "duration": 20, "velocity": 84}, {"time": 273603, "pitch": 54, "duration": 10, "velocity": 60}, {"time": 273723, "pitch": 54, "duration": 11, "velocity": 40}, {"time": 273844, "pitch": 35, "duration": 20, "velocity": 100}, {"time": 273844, "pitch": 42, "duration": 40, "velocity": 64}, {"time": 273844, "pitch": 54, "duration": 10, "velocity": 90}, {"time": 273844, "pitch": 57, "duration": 30, "velocity": 90}, {"time": 274085, "pitch": 35, "duration": 10, "velocity": 100}, {"time": 274203, "pitch": 38, "duration": 10, "velocity": 110}, {"time": 274321, "pitch": 38, "duration": 19, "velocity": 110}, {"time": 274321, "pitch": 44, "duration": 10, "velocity": 60}, {"time": 274439, "pitch": 45, "duration": 10, "velocity": 100}, {"time": 274557, "pitch": 38, "duration": 10, "velocity": 110}, {"time": 274677, "pitch": 48, "duration": 10, "velocity": 100}, {"time": 274798, "pitch": 44, "duration": 20, "velocity": 60}, {"time": 274798, "pitch": 45, "duration": 10, "velocity": 100}, {"time": 274918, "pitch": 41, "duration": 10, "velocity": 100}, {"time": 275039, "pitch": 35, "duration": 10, "velocity": 100}, {"time": 275039, "pitch": 49, "duration": 30, "velocity": 80}, {"time": 275039, "pitch": 57, "duration": 20, "velocity": 90}, {"time": 276720, "pitch": 46, "duration": 10, "velocity": 55}, {"time": 276759, "pitch": 46, "duration": 10, "velocity": 65}, {"time": 276799, "pitch": 46, "duration": 9, "velocity": 75}, {"time": 276838, "pitch": 46, "duration": 10, "velocity": 85}, {"time": 276877, "pitch": 46, "duration": 10, "velocity": 95}, {"time": 276917, "pitch": 46, "duration": 9, "velocity": 105}, {"time": 276956, "pitch": 46, "duration": 10, "velocity": 115}, {"time": 5396, "pitch": 37, "duration": 10, "velocity": 80}, {"time": 5637, "pitch": 37, "duration": 10, "velocity": 80}, {"time": 7202, "pitch": 56, "duration": 10, "velocity": 75}, {"time": 7564, "pitch": 56, "duration": 10, "velocity": 75}, {"time": 7920, "pitch": 75, "duration": 10, "velocity": 51}, {"time": 8038, "pitch": 75, "duration": 10, "velocity": 51}, {"time": 9240, "pitch": 37, "duration": 10, "velocity": 80}, {"time": 9481, "pitch": 37, "duration": 10, "velocity": 80}, {"time": 11037, "pitch": 56, "duration": 10, "velocity": 75}, {"time": 11398, "pitch": 56, "duration": 10, "velocity": 75}, {"time": 11760, "pitch": 75, "duration": 10, "velocity": 51}, {"time": 11880, "pitch": 75, "duration": 10, "velocity": 51}, {"time": 13082, "pitch": 37, "duration": 10, "velocity": 80}, {"time": 13318, "pitch": 37, "duration": 10, "velocity": 80}, {"time": 14881, "pitch": 56, "duration": 10, "velocity": 75}, {"time": 15243, "pitch": 56, "duration": 10, "velocity": 75}, {"time": 15604, "pitch": 75, "duration": 10, "velocity": 51}, {"time": 15724, "pitch": 75, "duration": 10, "velocity": 51}, {"time": 16919, "pitch": 37, "duration": 10, "velocity": 80}, {"time": 17160, "pitch": 37, "duration": 10, "velocity": 80}, {"time": 19438, "pitch": 75, "duration": 10, "velocity": 51}, {"time": 19559, "pitch": 75, "duration": 10, "velocity": 51}, {"time": 20763, "pitch": 37, "duration": 10, "velocity": 80}, {"time": 21004, "pitch": 37, "duration": 10, "velocity": 80}, {"time": 22560, "pitch": 56, "duration": 10, "velocity": 75}, {"time": 22921, "pitch": 56, "duration": 11, "velocity": 75}, {"time": 23283, "pitch": 75, "duration": 10, "velocity": 51}, {"time": 23403, "pitch": 75, "duration": 10, "velocity": 51}, {"time": 24598, "pitch": 37, "duration": 10, "velocity": 80}, {"time": 24839, "pitch": 37, "duration": 10, "velocity": 80}, {"time": 26404, "pitch": 56, "duration": 10, "velocity": 75}, {"time": 26758, "pitch": 56, "duration": 10, "velocity": 75}, {"time": 27117, "pitch": 75, "duration": 10, "velocity": 51}, {"time": 27238, "pitch": 75, "duration": 10, "velocity": 51}, {"time": 28442, "pitch": 37, "duration": 10, "velocity": 80}, {"time": 28683, "pitch": 37, "duration": 10, "velocity": 80}, {"time": 30239, "pitch": 56, "duration": 10, "velocity": 75}, {"time": 30600, "pitch": 56, "duration": 10, "velocity": 75}, {"time": 30962, "pitch": 75, "duration": 10, "velocity": 51}, {"time": 31082, "pitch": 75, "duration": 10, "velocity": 51}, {"time": 32277, "pitch": 37, "duration": 10, "velocity": 80}, {"time": 32518, "pitch": 37, "duration": 10, "velocity": 80}, {"time": 34083, "pitch": 56, "duration": 10, "velocity": 75}, {"time": 34437, "pitch": 56, "duration": 10, "velocity": 75}, {"time": 34796, "pitch": 75, "duration": 10, "velocity": 51}, {"time": 34917, "pitch": 75, "duration": 10, "velocity": 51}, {"time": 36121, "pitch": 37, "duration": 10, "velocity": 80}, {"time": 36362, "pitch": 37, "duration": 10, "velocity": 80}, {"time": 37918, "pitch": 56, "duration": 10, "velocity": 75}, {"time": 38279, "pitch": 56, "duration": 10, "velocity": 75}, {"time": 38641, "pitch": 75, "duration": 10, "velocity": 51}, {"time": 38761, "pitch": 75, "duration": 10, "velocity": 51}, {"time": 39956, "pitch": 37, "duration": 10, "velocity": 80}, {"time": 40196, "pitch": 37, "duration": 11, "velocity": 80}, {"time": 41762, "pitch": 56, "duration": 10, "velocity": 75}, {"time": 42124, "pitch": 56, "duration": 10, "velocity": 75}, {"time": 42480, "pitch": 75, "duration": 10, "velocity": 51}, {"time": 42598, "pitch": 75, "duration": 10, "velocity": 51}, {"time": 43800, "pitch": 37, "duration": 10, "velocity": 80}, {"time": 44041, "pitch": 37, "duration": 10, "velocity": 80}, {"time": 45597, "pitch": 56, "duration": 10, "velocity": 75}, {"time": 45958, "pitch": 56, "duration": 10, "velocity": 75}, {"time": 46319, "pitch": 75, "duration": 10, "velocity": 51}, {"time": 46440, "pitch": 75, "duration": 10, "velocity": 51}, {"time": 47642, "pitch": 37, "duration": 10, "velocity": 80}, {"time": 47878, "pitch": 37, "duration": 10, "velocity": 80}, {"time": 49441, "pitch": 56, "duration": 10, "velocity": 75}, {"time": 49802, "pitch": 56, "duration": 10, "velocity": 75}, {"time": 50164, "pitch": 75, "duration": 10, "velocity": 51}, {"time": 50284, "pitch": 75, "duration": 10, "velocity": 51}, {"time": 68761, "pitch": 37, "duration": 10, "velocity": 80}, {"time": 68997, "pitch": 37, "duration": 10, "velocity": 80}, {"time": 70560, "pitch": 56, "duration": 10, "velocity": 75}, {"time": 70922, "pitch": 56, "duration": 10, "velocity": 75}, {"time": 71283, "pitch": 75, "duration": 10, "velocity": 51}, {"time": 71404, "pitch": 75, "duration": 10, "velocity": 51}, {"time": 72598, "pitch": 37, "duration": 10, "velocity": 80}, {"time": 72839, "pitch": 37, "duration": 10, "velocity": 80}, {"time": 74405, "pitch": 56, "duration": 10, "velocity": 75}, {"time": 74759, "pitch": 56, "duration": 10, "velocity": 75}, {"time": 75118, "pitch": 75, "duration": 10, "velocity": 51}, {"time": 75238, "pitch": 75, "duration": 10, "velocity": 51}, {"time": 76442, "pitch": 37, "duration": 11, "velocity": 80}, {"time": 76683, "pitch": 37, "duration": 10, "velocity": 80}, {"time": 78239, "pitch": 56, "duration": 10, "velocity": 75}, {"time": 78601, "pitch": 56, "duration": 10, "velocity": 75}, {"time": 78962, "pitch": 75, "duration": 10, "velocity": 51}, {"time": 79082, "pitch": 75, "duration": 10, "velocity": 51}, {"time": 80277, "pitch": 37, "duration": 10, "velocity": 80}, {"time": 80518, "pitch": 37, "duration": 10, "velocity": 80}, {"time": 82084, "pitch": 56, "duration": 9, "velocity": 75}, {"time": 82438, "pitch": 56, "duration": 10, "velocity": 75}, {"time": 82796, "pitch": 75, "duration": 11, "velocity": 51}, {"time": 82917, "pitch": 75, "duration": 10, "velocity": 51}, {"time": 84121, "pitch": 37, "duration": 10, "velocity": 80}, {"time": 84362, "pitch": 37, "duration": 10, "velocity": 80}, {"time": 85918, "pitch": 56, "duration": 10, "velocity": 75}, {"time": 86280, "pitch": 56, "duration": 10, "velocity": 75}, {"time": 86641, "pitch": 75, "duration": 10, "velocity": 51}, {"time": 86761, "pitch": 75, "duration": 10, "velocity": 51}, {"time": 87956, "pitch": 37, "duration": 10, "velocity": 80}, {"time": 88197, "pitch": 37, "duration": 10, "velocity": 80}, {"time": 89763, "pitch": 56, "duration": 10, "velocity": 75}, {"time": 90124, "pitch": 56, "duration": 10, "velocity": 75}, {"time": 90480, "pitch": 75, "duration": 10, "velocity": 51}, {"time": 90598, "pitch": 75, "duration": 10, "velocity": 51}, {"time": 91800, "pitch": 37, "duration": 10, "velocity": 80}, {"time": 92041, "pitch": 37, "duration": 10, "velocity": 80}, {"time": 93597, "pitch": 56, "duration": 10, "velocity": 75}, {"time": 93958, "pitch": 56, "duration": 10, "velocity": 75}, {"time": 94320, "pitch": 75, "duration": 10, "velocity": 51}, {"time": 94440, "pitch": 75, "duration": 10, "velocity": 51}, {"time": 95642, "pitch": 37, "duration": 10, "velocity": 80}, {"time": 95878, "pitch": 37, "duration": 10, "velocity": 80}, {"time": 97441, "pitch": 56, "duration": 10, "velocity": 75}, {"time": 97803, "pitch": 56, "duration": 10, "velocity": 75}, {"time": 98159, "pitch": 75, "duration": 10, "velocity": 51}, {"time": 98277, "pitch": 75, "duration": 10, "velocity": 51}, {"time": 99479, "pitch": 37, "duration": 10, "velocity": 80}, {"time": 99720, "pitch": 37, "duration": 10, "velocity": 80}, {"time": 101276, "pitch": 56, "duration": 10, "velocity": 75}, {"time": 101637, "pitch": 56, "duration": 10, "velocity": 75}, {"time": 101999, "pitch": 75, "duration": 10, "velocity": 51}, {"time": 102119, "pitch": 75, "duration": 10, "velocity": 51}, {"time": 103323, "pitch": 37, "duration": 10, "velocity": 80}, {"time": 103564, "pitch": 37, "duration": 10, "velocity": 80}, {"time": 105120, "pitch": 56, "duration": 10, "velocity": 75}, {"time": 105482, "pitch": 56, "duration": 10, "velocity": 75}, {"time": 105843, "pitch": 75, "duration": 10, "velocity": 51}, {"time": 105963, "pitch": 75, "duration": 10, "velocity": 51}, {"time": 107158, "pitch": 37, "duration": 10, "velocity": 80}, {"time": 107399, "pitch": 37, "duration": 10, "velocity": 80}, {"time": 108965, "pitch": 56, "duration": 9, "velocity": 75}, {"time": 109319, "pitch": 56, "duration": 9, "velocity": 75}, {"time": 109677, "pitch": 75, "duration": 10, "velocity": 51}, {"time": 109798, "pitch": 75, "duration": 10, "velocity": 51}, {"time": 111002, "pitch": 37, "duration": 10, "velocity": 80}, {"time": 111243, "pitch": 37, "duration": 10, "velocity": 80}, {"time": 112799, "pitch": 56, "duration": 10, "velocity": 75}, {"time": 113160, "pitch": 56, "duration": 10, "velocity": 75}, {"time": 113522, "pitch": 75, "duration": 10, "velocity": 51}, {"time": 113642, "pitch": 75, "duration": 10, "velocity": 51}, {"time": 114837, "pitch": 37, "duration": 10, "velocity": 80}, {"time": 115078, "pitch": 37, "duration": 10, "velocity": 80}, {"time": 116643, "pitch": 56, "duration": 10, "velocity": 75}, {"time": 116997, "pitch": 56, "duration": 10, "velocity": 75}, {"time": 117356, "pitch": 75, "duration": 10, "velocity": 51}, {"time": 117477, "pitch": 75, "duration": 10, "velocity": 51}, {"time": 118681, "pitch": 37, "duration": 10, "velocity": 80}, {"time": 118922, "pitch": 37, "duration": 10, "velocity": 80}, {"time": 120478, "pitch": 56, "duration": 10, "velocity": 75}, {"time": 120839, "pitch": 56, "duration": 10, "velocity": 75}, {"time": 121201, "pitch": 75, "duration": 10, "velocity": 51}, {"time": 121321, "pitch": 75, "duration": 10, "velocity": 51}, {"time": 122516, "pitch": 37, "duration": 10, "velocity": 80}, {"time": 122757, "pitch": 37, "duration": 10, "velocity": 80}, {"time": 124322, "pitch": 56, "duration": 10, "velocity": 75}, {"time": 124684, "pitch": 56, "duration": 10, "velocity": 75}, {"time": 125040, "pitch": 75, "duration": 10, "velocity": 51}, {"time": 125158, "pitch": 75, "duration": 10, "velocity": 51}, {"time": 126360, "pitch": 37, "duration": 10, "velocity": 80}, {"time": 126601, "pitch": 37, "duration": 10, "velocity": 80}, {"time": 128157, "pitch": 56, "duration": 10, "velocity": 75}, {"time": 128518, "pitch": 56, "duration": 10, "velocity": 75}, {"time": 128880, "pitch": 75, "duration": 10, "velocity": 51}, {"time": 129000, "pitch": 75, "duration": 10, "velocity": 51}, {"time": 130202, "pitch": 37, "duration": 10, "velocity": 80}, {"time": 130438, "pitch": 37, "duration": 10, "velocity": 80}, {"time": 132001, "pitch": 56, "duration": 10, "velocity": 75}, {"time": 132363, "pitch": 56, "duration": 10, "velocity": 75}, {"time": 132724, "pitch": 75, "duration": 10, "velocity": 51}, {"time": 132844, "pitch": 75, "duration": 10, "velocity": 51}, {"time": 151321, "pitch": 37, "duration": 10, "velocity": 80}, {"time": 151557, "pitch": 37, "duration": 10, "velocity": 80}, {"time": 153121, "pitch": 56, "duration": 10, "velocity": 75}, {"time": 153482, "pitch": 56, "duration": 10, "velocity": 75}, {"time": 153843, "pitch": 75, "duration": 10, "velocity": 51}, {"time": 153964, "pitch": 75, "duration": 10, "velocity": 51}, {"time": 155158, "pitch": 37, "duration": 10, "velocity": 80}, {"time": 155399, "pitch": 37, "duration": 10, "velocity": 80}, {"time": 156965, "pitch": 56, "duration": 10, "velocity": 75}, {"time": 157319, "pitch": 56, "duration": 10, "velocity": 75}, {"time": 157678, "pitch": 75, "duration": 10, "velocity": 51}, {"time": 157798, "pitch": 75, "duration": 10, "velocity": 51}, {"time": 159003, "pitch": 37, "duration": 10, "velocity": 80}, {"time": 159243, "pitch": 37, "duration": 11, "velocity": 80}, {"time": 160799, "pitch": 56, "duration": 10, "velocity": 75}, {"time": 161161, "pitch": 56, "duration": 10, "velocity": 75}, {"time": 161522, "pitch": 75, "duration": 10, "velocity": 51}, {"time": 161643, "pitch": 75, "duration": 10, "velocity": 51}, {"time": 162837, "pitch": 37, "duration": 10, "velocity": 80}, {"time": 163078, "pitch": 37, "duration": 10, "velocity": 80}, {"time": 164644, "pitch": 56, "duration": 10, "velocity": 75}, {"time": 164998, "pitch": 56, "duration": 10, "velocity": 75}, {"time": 165357, "pitch": 75, "duration": 10, "velocity": 51}, {"time": 165477, "pitch": 75, "duration": 10, "velocity": 51}, {"time": 166681, "pitch": 37, "duration": 11, "velocity": 80}, {"time": 166922, "pitch": 37, "duration": 10, "velocity": 80}, {"time": 168478, "pitch": 56, "duration": 10, "velocity": 75}, {"time": 168840, "pitch": 56, "duration": 10, "velocity": 75}, {"time": 169201, "pitch": 75, "duration": 10, "velocity": 51}, {"time": 169321, "pitch": 75, "duration": 10, "velocity": 51}, {"time": 170516, "pitch": 37, "duration": 10, "velocity": 80}, {"time": 170757, "pitch": 37, "duration": 10, "velocity": 80}, {"time": 172323, "pitch": 56, "duration": 10, "velocity": 75}, {"time": 172684, "pitch": 56, "duration": 10, "velocity": 75}, {"time": 173040, "pitch": 75, "duration": 10, "velocity": 51}, {"time": 173158, "pitch": 75, "duration": 10, "velocity": 51}, {"time": 174360, "pitch": 37, "duration": 10, "velocity": 80}, {"time": 174601, "pitch": 37, "duration": 10, "velocity": 80}, {"time": 176157, "pitch": 56, "duration": 10, "velocity": 75}, {"time": 176518, "pitch": 56, "duration": 11, "velocity": 75}, {"time": 176880, "pitch": 75, "duration": 10, "velocity": 51}, {"time": 177000, "pitch": 75, "duration": 10, "velocity": 51}, {"time": 178202, "pitch": 37, "duration": 10, "velocity": 80}, {"time": 178438, "pitch": 37, "duration": 10, "velocity": 80}, {"time": 180002, "pitch": 56, "duration": 10, "velocity": 75}, {"time": 180363, "pitch": 56, "duration": 10, "velocity": 75}, {"time": 180719, "pitch": 75, "duration": 10, "velocity": 51}, {"time": 180837, "pitch": 75, "duration": 10, "velocity": 51}, {"time": 182039, "pitch": 37, "duration": 10, "velocity": 80}, {"time": 182280, "pitch": 37, "duration": 10, "velocity": 80}, {"time": 183836, "pitch": 56, "duration": 10, "velocity": 75}, {"time": 184197, "pitch": 56, "duration": 10, "velocity": 75}, {"time": 184559, "pitch": 75, "duration": 10, "velocity": 51}, {"time": 184679, "pitch": 75, "duration": 10, "velocity": 51}, {"time": 185884, "pitch": 37, "duration": 10, "velocity": 80}, {"time": 186124, "pitch": 37, "duration": 10, "velocity": 80}, {"time": 187680, "pitch": 56, "duration": 10, "velocity": 75}, {"time": 188042, "pitch": 56, "duration": 10, "velocity": 75}, {"time": 188403, "pitch": 75, "duration": 10, "velocity": 51}, {"time": 188523, "pitch": 75, "duration": 11, "velocity": 51}, {"time": 189718, "pitch": 37, "duration": 10, "velocity": 80}, {"time": 189959, "pitch": 37, "duration": 10, "velocity": 80}, {"time": 191525, "pitch": 56, "duration": 9, "velocity": 75}, {"time": 191879, "pitch": 56, "duration": 10, "velocity": 75}, {"time": 192238, "pitch": 75, "duration": 10, "velocity": 51}, {"time": 192358, "pitch": 75, "duration": 10, "velocity": 51}, {"time": 193562, "pitch": 37, "duration": 10, "velocity": 80}, {"time": 193803, "pitch": 37, "duration": 10, "velocity": 80}, {"time": 196082, "pitch": 75, "duration": 10, "velocity": 51}, {"time": 196202, "pitch": 75, "duration": 10, "velocity": 51}, {"time": 197397, "pitch": 37, "duration": 10, "velocity": 80}, {"time": 197638, "pitch": 37, "duration": 10, "velocity": 80}, {"time": 199204, "pitch": 56, "duration": 9, "velocity": 75}, {"time": 199558, "pitch": 56, "duration": 9, "velocity": 75}, {"time": 199916, "pitch": 75, "duration": 10, "velocity": 51}, {"time": 200037, "pitch": 75, "duration": 10, "velocity": 51}, {"time": 201241, "pitch": 37, "duration": 10, "velocity": 80}, {"time": 201482, "pitch": 37, "duration": 10, "velocity": 80}, {"time": 203038, "pitch": 56, "duration": 10, "velocity": 75}, {"time": 203399, "pitch": 56, "duration": 10, "velocity": 75}, {"time": 203761, "pitch": 75, "duration": 10, "velocity": 51}, {"time": 203881, "pitch": 75, "duration": 10, "velocity": 51}, {"time": 205076, "pitch": 37, "duration": 10, "velocity": 80}, {"time": 205317, "pitch": 37, "duration": 10, "velocity": 80}, {"time": 206882, "pitch": 56, "duration": 10, "velocity": 75}, {"time": 207244, "pitch": 56, "duration": 10, "velocity": 75}, {"time": 207600, "pitch": 75, "duration": 10, "velocity": 51}, {"time": 207718, "pitch": 75, "duration": 10, "velocity": 51}, {"time": 208920, "pitch": 37, "duration": 10, "velocity": 80}, {"time": 209161, "pitch": 37, "duration": 10, "velocity": 80}, {"time": 210717, "pitch": 56, "duration": 10, "velocity": 75}, {"time": 211078, "pitch": 56, "duration": 10, "velocity": 75}, {"time": 211440, "pitch": 75, "duration": 10, "velocity": 51}, {"time": 211560, "pitch": 75, "duration": 10, "velocity": 51}, {"time": 212762, "pitch": 37, "duration": 10, "velocity": 80}, {"time": 212998, "pitch": 37, "duration": 10, "velocity": 80}, {"time": 214561, "pitch": 56, "duration": 10, "velocity": 75}, {"time": 214923, "pitch": 56, "duration": 10, "velocity": 75}, {"time": 215284, "pitch": 75, "duration": 10, "velocity": 51}, {"time": 215404, "pitch": 75, "duration": 10, "velocity": 51}, {"time": 216599, "pitch": 37, "duration": 10, "velocity": 80}, {"time": 216840, "pitch": 37, "duration": 10, "velocity": 80}, {"time": 218396, "pitch": 56, "duration": 10, "velocity": 75}, {"time": 218757, "pitch": 56, "duration": 10, "velocity": 75}, {"time": 219119, "pitch": 75, "duration": 10, "velocity": 51}, {"time": 219239, "pitch": 75, "duration": 10, "velocity": 51}, {"time": 220443, "pitch": 37, "duration": 10, "velocity": 80}, {"time": 220684, "pitch": 37, "duration": 10, "velocity": 80}, {"time": 222240, "pitch": 56, "duration": 10, "velocity": 75}, {"time": 222602, "pitch": 56, "duration": 10, "velocity": 75}, {"time": 222963, "pitch": 75, "duration": 10, "velocity": 51}, {"time": 223083, "pitch": 75, "duration": 10, "velocity": 51}, {"time": 224278, "pitch": 37, "duration": 10, "velocity": 80}, {"time": 224519, "pitch": 37, "duration": 10, "velocity": 80}, {"time": 226084, "pitch": 56, "duration": 10, "velocity": 75}, {"time": 226439, "pitch": 56, "duration": 9, "velocity": 75}, {"time": 226797, "pitch": 75, "duration": 10, "velocity": 51}, {"time": 226918, "pitch": 75, "duration": 10, "velocity": 51}, {"time": 230040, "pitch": 37, "duration": 10, "velocity": 80}, {"time": 230280, "pitch": 37, "duration": 10, "velocity": 80}, {"time": 231836, "pitch": 56, "duration": 10, "velocity": 75}, {"time": 232198, "pitch": 56, "duration": 10, "velocity": 75}, {"time": 232559, "pitch": 75, "duration": 10, "velocity": 51}, {"time": 232679, "pitch": 75, "duration": 10, "velocity": 51}, {"time": 233881, "pitch": 37, "duration": 10, "velocity": 80}, {"time": 234117, "pitch": 37, "duration": 10, "velocity": 80}, {"time": 235681, "pitch": 56, "duration": 10, "velocity": 75}, {"time": 236042, "pitch": 56, "duration": 10, "velocity": 75}, {"time": 236403, "pitch": 75, "duration": 10, "velocity": 51}, {"time": 236524, "pitch": 75, "duration": 10, "velocity": 51}, {"time": 237718, "pitch": 37, "duration": 10, "velocity": 80}, {"time": 237959, "pitch": 37, "duration": 10, "velocity": 80}, {"time": 239515, "pitch": 56, "duration": 10, "velocity": 75}, {"time": 239877, "pitch": 56, "duration": 10, "velocity": 75}, {"time": 240238, "pitch": 75, "duration": 10, "velocity": 51}, {"time": 240358, "pitch": 75, "duration": 10, "velocity": 51}, {"time": 241563, "pitch": 37, "duration": 10, "velocity": 80}, {"time": 241804, "pitch": 37, "duration": 10, "velocity": 80}, {"time": 243360, "pitch": 56, "duration": 10, "velocity": 75}, {"time": 243721, "pitch": 56, "duration": 10, "velocity": 75}, {"time": 244082, "pitch": 75, "duration": 10, "velocity": 51}, {"time": 244203, "pitch": 75, "duration": 10, "velocity": 51}, {"time": 245397, "pitch": 37, "duration": 10, "velocity": 80}, {"time": 245638, "pitch": 37, "duration": 10, "velocity": 80}, {"time": 247204, "pitch": 56, "duration": 10, "velocity": 75}, {"time": 247558, "pitch": 56, "duration": 10, "velocity": 75}, {"time": 247917, "pitch": 75, "duration": 10, "velocity": 51}, {"time": 248037, "pitch": 75, "duration": 10, "velocity": 51}, {"time": 249242, "pitch": 37, "duration": 10, "velocity": 80}, {"time": 249482, "pitch": 37, "duration": 11, "velocity": 80}, {"time": 251038, "pitch": 56, "duration": 10, "velocity": 75}, {"time": 251400, "pitch": 56, "duration": 10, "velocity": 75}, {"time": 251761, "pitch": 75, "duration": 10, "velocity": 51}, {"time": 251882, "pitch": 75, "duration": 10, "velocity": 51}, {"time": 253076, "pitch": 37, "duration": 10, "velocity": 80}, {"time": 253317, "pitch": 37, "duration": 10, "velocity": 80}, {"time": 254883, "pitch": 56, "duration": 10, "velocity": 75}, {"time": 255244, "pitch": 56, "duration": 10, "velocity": 75}, {"time": 255600, "pitch": 75, "duration": 10, "velocity": 51}, {"time": 255719, "pitch": 75, "duration": 9, "velocity": 51}, {"time": 256920, "pitch": 37, "duration": 10, "velocity": 80}, {"time": 257161, "pitch": 37, "duration": 10, "velocity": 80}, {"time": 258717, "pitch": 56, "duration": 10, "velocity": 75}, {"time": 259079, "pitch": 56, "duration": 10, "velocity": 75}, {"time": 259440, "pitch": 75, "duration": 10, "velocity": 51}, {"time": 259560, "pitch": 75, "duration": 10, "velocity": 51}, {"time": 260762, "pitch": 37, "duration": 10, "velocity": 80}, {"time": 260998, "pitch": 37, "duration": 10, "velocity": 80}, {"time": 262562, "pitch": 56, "duration": 10, "velocity": 75}, {"time": 262923, "pitch": 56, "duration": 10, "velocity": 75}, {"time": 263279, "pitch": 75, "duration": 10, "velocity": 51}, {"time": 263397, "pitch": 75, "duration": 10, "velocity": 51}, {"time": 264599, "pitch": 37, "duration": 10, "velocity": 80}, {"time": 264840, "pitch": 37, "duration": 10, "velocity": 80}, {"time": 266396, "pitch": 56, "duration": 10, "velocity": 75}, {"time": 266757, "pitch": 56, "duration": 11, "velocity": 75}, {"time": 267119, "pitch": 75, "duration": 10, "velocity": 51}, {"time": 267239, "pitch": 75, "duration": 10, "velocity": 51}, {"time": 268441, "pitch": 37, "duration": 10, "velocity": 80}, {"time": 268677, "pitch": 37, "duration": 10, "velocity": 80}, {"time": 270240, "pitch": 56, "duration": 11, "velocity": 75}, {"time": 270602, "pitch": 56, "duration": 10, "velocity": 75}, {"time": 270963, "pitch": 75, "duration": 10, "velocity": 51}, {"time": 271084, "pitch": 75, "duration": 10, "velocity": 51}, {"time": 272278, "pitch": 37, "duration": 10, "velocity": 80}, {"time": 272519, "pitch": 37, "duration": 10, "velocity": 80}, {"time": 274798, "pitch": 75, "duration": 10, "velocity": 51}, {"time": 274918, "pitch": 75, "duration": 10, "velocity": 51}, {"time": 33842, "pitch": 80, "duration": 111, "velocity": 95}, {"time": 33842, "pitch": 92, "duration": 111, "velocity": 75}, {"time": 33963, "pitch": 92, "duration": 110, "velocity": 65}, {"time": 33963, "pitch": 104, "duration": 110, "velocity": 45}, {"time": 34083, "pitch": 87, "duration": 108, "velocity": 95}, {"time": 34083, "pitch": 99, "duration": 108, "velocity": 75}, {"time": 34201, "pitch": 99, "duration": 109, "velocity": 65}, {"time": 34201, "pitch": 111, "duration": 109, "velocity": 45}, {"time": 34319, "pitch": 92, "duration": 109, "velocity": 105}, {"time": 34319, "pitch": 104, "duration": 109, "velocity": 85}, {"time": 34437, "pitch": 104, "duration": 109, "velocity": 65}, {"time": 34437, "pitch": 116, "duration": 109, "velocity": 45}, {"time": 34555, "pitch": 92, "duration": 111, "velocity": 75}, {"time": 34555, "pitch": 104, "duration": 111, "velocity": 55}, {"time": 34676, "pitch": 104, "duration": 110, "velocity": 45}, {"time": 34676, "pitch": 116, "duration": 110, "velocity": 25}, {"time": 34796, "pitch": 92, "duration": 111, "velocity": 55}, {"time": 34796, "pitch": 104, "duration": 111, "velocity": 35}, {"time": 34917, "pitch": 104, "duration": 110, "velocity": 25}, {"time": 34917, "pitch": 116, "duration": 110, "velocity": 15}, {"time": 35037, "pitch": 92, "duration": 110, "velocity": 35}, {"time": 35037, "pitch": 104, "duration": 110, "velocity": 15}, {"time": 35158, "pitch": 104, "duration": 110, "velocity": 6}, {"time": 35158, "pitch": 116, "duration": 110, "velocity": 6}, {"time": 49200, "pitch": 80, "duration": 111, "velocity": 95}, {"time": 49200, "pitch": 92, "duration": 111, "velocity": 75}, {"time": 49321, "pitch": 92, "duration": 110, "velocity": 65}, {"time": 49321, "pitch": 104, "duration": 110, "velocity": 45}, {"time": 49441, "pitch": 87, "duration": 111, "velocity": 95}, {"time": 49441, "pitch": 99, "duration": 111, "velocity": 75}, {"time": 49562, "pitch": 99, "duration": 110, "velocity": 65}, {"time": 49562, "pitch": 111, "duration": 110, "velocity": 45}, {"time": 49682, "pitch": 92, "duration": 110, "velocity": 105}, {"time": 49682, "pitch": 104, "duration": 110, "velocity": 85}, {"time": 49802, "pitch": 104, "duration": 111, "velocity": 65}, {"time": 49802, "pitch": 116, "duration": 111, "velocity": 45}, {"time": 49923, "pitch": 92, "duration": 110, "velocity": 75}, {"time": 49923, "pitch": 104, "duration": 110, "velocity": 55}, {"time": 50043, "pitch": 104, "duration": 111, "velocity": 45}, {"time": 50043, "pitch": 116, "duration": 111, "velocity": 25}, {"time": 50164, "pitch": 92, "duration": 110, "velocity": 55}, {"time": 50164, "pitch": 104, "duration": 110, "velocity": 35}, {"time": 50284, "pitch": 104, "duration": 111, "velocity": 25}, {"time": 50284, "pitch": 116, "duration": 111, "velocity": 15}, {"time": 50405, "pitch": 92, "duration": 108, "velocity": 35}, {"time": 50405, "pitch": 104, "duration": 108, "velocity": 15}, {"time": 50523, "pitch": 104, "duration": 108, "velocity": 6}, {"time": 50523, "pitch": 116, "duration": 108, "velocity": 6}, {"time": 116403, "pitch": 80, "duration": 110, "velocity": 95}, {"time": 116403, "pitch": 92, "duration": 110, "velocity": 75}, {"time": 116523, "pitch": 92, "duration": 110, "velocity": 65}, {"time": 116523, "pitch": 104, "duration": 110, "velocity": 45}, {"time": 116643, "pitch": 87, "duration": 109, "velocity": 95}, {"time": 116643, "pitch": 99, "duration": 109, "velocity": 75}, {"time": 116761, "pitch": 99, "duration": 109, "velocity": 65}, {"time": 116761, "pitch": 111, "duration": 109, "velocity": 45}, {"time": 116879, "pitch": 92, "duration": 109, "velocity": 105}, {"time": 116879, "pitch": 104, "duration": 109, "velocity": 85}, {"time": 116997, "pitch": 104, "duration": 109, "velocity": 65}, {"time": 116997, "pitch": 116, "duration": 109, "velocity": 45}, {"time": 117116, "pitch": 92, "duration": 110, "velocity": 75}, {"time": 117116, "pitch": 104, "duration": 110, "velocity": 55}, {"time": 117236, "pitch": 104, "duration": 110, "velocity": 45}, {"time": 117236, "pitch": 116, "duration": 110, "velocity": 25}, {"time": 117356, "pitch": 92, "duration": 111, "velocity": 55}, {"time": 117356, "pitch": 104, "duration": 111, "velocity": 35}, {"time": 117477, "pitch": 104, "duration": 110, "velocity": 25}, {"time": 117477, "pitch": 116, "duration": 110, "velocity": 15}, {"time": 117597, "pitch": 92, "duration": 111, "velocity": 35}, {"time": 117597, "pitch": 104, "duration": 111, "velocity": 15}, {"time": 117718, "pitch": 104, "duration": 110, "velocity": 6}, {"time": 117718, "pitch": 116, "duration": 110, "velocity": 6}, {"time": 131760, "pitch": 80, "duration": 111, "velocity": 95}, {"time": 131760, "pitch": 92, "duration": 111, "velocity": 75}, {"time": 131881, "pitch": 92, "duration": 110, "velocity": 65}, {"time": 131881, "pitch": 104, "duration": 110, "velocity": 45}, {"time": 132001, "pitch": 87, "duration": 111, "velocity": 95}, {"time": 132001, "pitch": 99, "duration": 111, "velocity": 75}, {"time": 132122, "pitch": 99, "duration": 110, "velocity": 65}, {"time": 132122, "pitch": 111, "duration": 110, "velocity": 45}, {"time": 132242, "pitch": 92, "duration": 110, "velocity": 105}, {"time": 132242, "pitch": 104, "duration": 110, "velocity": 85}, {"time": 132363, "pitch": 104, "duration": 110, "velocity": 65}, {"time": 132363, "pitch": 116, "duration": 110, "velocity": 45}, {"time": 132483, "pitch": 92, "duration": 110, "velocity": 75}, {"time": 132483, "pitch": 104, "duration": 110, "velocity": 55}, {"time": 132603, "pitch": 104, "duration": 111, "velocity": 45}, {"time": 132603, "pitch": 116, "duration": 111, "velocity": 25}, {"time": 132724, "pitch": 92, "duration": 110, "velocity": 55}, {"time": 132724, "pitch": 104, "duration": 110, "velocity": 35}, {"time": 132844, "pitch": 104, "duration": 111, "velocity": 25}, {"time": 132844, "pitch": 116, "duration": 111, "velocity": 15}, {"time": 132965, "pitch": 92, "duration": 108, "velocity": 35}, {"time": 132965, "pitch": 104, "duration": 108, "velocity": 15}, {"time": 133083, "pitch": 104, "duration": 108, "velocity": 6}, {"time": 133083, "pitch": 116, "duration": 108, "velocity": 6}, {"time": 196082, "pitch": 78, "duration": 939, "velocity": 110}, {"time": 197041, "pitch": 78, "duration": 767, "velocity": 110}, {"time": 197808, "pitch": 76, "duration": 161, "velocity": 105}, {"time": 198019, "pitch": 75, "duration": 161, "velocity": 100}, {"time": 198240, "pitch": 78, "duration": 120, "velocity": 110}, {"time": 198421, "pitch": 75, "duration": 301, "velocity": 105}, {"time": 198722, "pitch": 73, "duration": 160, "velocity": 100}, {"time": 198882, "pitch": 76, "duration": 161, "velocity": 110}, {"time": 199043, "pitch": 75, "duration": 161, "velocity": 105}, {"time": 199204, "pitch": 73, "duration": 147, "velocity": 110}, {"time": 199361, "pitch": 71, "duration": 157, "velocity": 100}, {"time": 199518, "pitch": 75, "duration": 138, "velocity": 105}, {"time": 199676, "pitch": 73, "duration": 140, "velocity": 110}, {"time": 199836, "pitch": 71, "duration": 141, "velocity": 105}, {"time": 199997, "pitch": 69, "duration": 140, "velocity": 100}, {"time": 200157, "pitch": 68, "duration": 151, "velocity": 105}, {"time": 200318, "pitch": 71, "duration": 150, "velocity": 110}, {"time": 200478, "pitch": 69, "duration": 151, "velocity": 100}, {"time": 200639, "pitch": 68, "duration": 281, "velocity": 110}, {"time": 200920, "pitch": 66, "duration": 100, "velocity": 100}, {"time": 201020, "pitch": 69, "duration": 91, "velocity": 105}, {"time": 201121, "pitch": 68, "duration": 150, "velocity": 110}, {"time": 201281, "pitch": 66, "duration": 161, "velocity": 105}, {"time": 201442, "pitch": 64, "duration": 151, "velocity": 100}, {"time": 201603, "pitch": 66, "duration": 953, "velocity": 110}, {"time": 202556, "pitch": 66, "duration": 201, "velocity": 105}, {"time": 202797, "pitch": 64, "duration": 954, "velocity": 110}, {"time": 203761, "pitch": 64, "duration": 241, "velocity": 105}, {"time": 204002, "pitch": 68, "duration": 140, "velocity": 100}, {"time": 204162, "pitch": 71, "duration": 141, "velocity": 105}, {"time": 204323, "pitch": 75, "duration": 160, "velocity": 110}, {"time": 204641, "pitch": 75, "duration": 314, "velocity": 110}, {"time": 204955, "pitch": 71, "duration": 141, "velocity": 100}, {"time": 205096, "pitch": 68, "duration": 181, "velocity": 110}, {"time": 205277, "pitch": 64, "duration": 140, "velocity": 100}, {"time": 205417, "pitch": 63, "duration": 181, "velocity": 110}, {"time": 205598, "pitch": 59, "duration": 140, "velocity": 105}, {"time": 205738, "pitch": 56, "duration": 181, "velocity": 100}, {"time": 205919, "pitch": 52, "duration": 161, "velocity": 105}, {"time": 206080, "pitch": 51, "duration": 160, "velocity": 100}, {"time": 206240, "pitch": 52, "duration": 161, "velocity": 110}, {"time": 206401, "pitch": 56, "duration": 160, "velocity": 100}, {"time": 206561, "pitch": 59, "duration": 161, "velocity": 105}, {"time": 206722, "pitch": 63, "duration": 201, "velocity": 110}, {"time": 206923, "pitch": 64, "duration": 160, "velocity": 105}, {"time": 207083, "pitch": 68, "duration": 221, "velocity": 110}, {"time": 207304, "pitch": 71, "duration": 158, "velocity": 105}, {"time": 207462, "pitch": 75, "duration": 217, "velocity": 110}, {"time": 207679, "pitch": 76, "duration": 157, "velocity": 105}, {"time": 207836, "pitch": 80, "duration": 241, "velocity": 100}, {"time": 208077, "pitch": 83, "duration": 231, "velocity": 105}, {"time": 208318, "pitch": 83, "duration": 1204, "velocity": 110}, {"time": 209522, "pitch": 78, "duration": 713, "velocity": 110}, {"time": 210235, "pitch": 78, "duration": 201, "velocity": 105}, {"time": 210476, "pitch": 76, "duration": 944, "velocity": 110}, {"time": 211440, "pitch": 68, "duration": 481, "velocity": 105}, {"time": 211921, "pitch": 73, "duration": 241, "velocity": 110}, {"time": 212162, "pitch": 75, "duration": 231, "velocity": 105}, {"time": 212403, "pitch": 76, "duration": 693, "velocity": 110}, {"time": 213116, "pitch": 76, "duration": 221, "velocity": 105}, {"time": 213357, "pitch": 76, "duration": 472, "velocity": 110}, {"time": 213839, "pitch": 75, "duration": 461, "velocity": 105}, {"time": 214320, "pitch": 73, "duration": 231, "velocity": 100}, {"time": 214561, "pitch": 73, "duration": 221, "velocity": 110}, {"time": 214802, "pitch": 73, "duration": 221, "velocity": 105}, {"time": 215043, "pitch": 68, "duration": 141, "velocity": 100}, {"time": 215284, "pitch": 78, "duration": 398, "velocity": 110}, {"time": 215702, "pitch": 73, "duration": 88, "velocity": 100}, {"time": 215712, "pitch": 76, "duration": 78, "velocity": 90}, {"time": 215800, "pitch": 72, "duration": 89, "velocity": 105}, {"time": 215899, "pitch": 68, "duration": 88, "velocity": 100}, {"time": 215997, "pitch": 73, "duration": 241, "velocity": 110}, {"time": 216238, "pitch": 73, "duration": 140, "velocity": 105}, {"time": 216378, "pitch": 68, "duration": 121, "velocity": 100}, {"time": 216519, "pitch": 71, "duration": 221, "velocity": 110}, {"time": 216740, "pitch": 68, "duration": 200, "velocity": 105}, {"time": 216960, "pitch": 68, "duration": 141, "velocity": 110}, {"time": 217121, "pitch": 67, "duration": 140, "velocity": 105}, {"time": 217282, "pitch": 66, "duration": 140, "velocity": 100}, {"time": 217442, "pitch": 68, "duration": 111, "velocity": 110}, {"time": 217563, "pitch": 67, "duration": 120, "velocity": 105}, {"time": 217683, "pitch": 66, "duration": 110, "velocity": 100}, {"time": 217803, "pitch": 68, "duration": 101, "velocity": 105}, {"time": 217924, "pitch": 66, "duration": 98, "velocity": 110}, {"time": 218042, "pitch": 64, "duration": 98, "velocity": 105}, {"time": 218160, "pitch": 64, "duration": 216, "velocity": 110}, {"time": 218396, "pitch": 70, "duration": 221, "velocity": 100}, {"time": 218637, "pitch": 64, "duration": 562, "velocity": 105}, {"time": 219199, "pitch": 68, "duration": 321, "velocity": 100}, {"time": 219520, "pitch": 71, "duration": 161, "velocity": 105}, {"time": 219681, "pitch": 68, "duration": 160, "velocity": 100}, {"time": 219841, "pitch": 73, "duration": 121, "velocity": 110}, {"time": 219962, "pitch": 68, "duration": 120, "velocity": 100}, {"time": 220082, "pitch": 73, "duration": 241, "velocity": 105}, {"time": 220323, "pitch": 76, "duration": 100, "velocity": 107}, {"time": 220443, "pitch": 78, "duration": 201, "velocity": 110}, {"time": 220684, "pitch": 78, "duration": 160, "velocity": 105}, {"time": 220923, "pitch": 78, "duration": 236, "velocity": 110}, {"time": 221159, "pitch": 76, "duration": 118, "velocity": 100}, {"time": 221277, "pitch": 73, "duration": 241, "velocity": 105}, {"time": 221518, "pitch": 76, "duration": 240, "velocity": 110}, {"time": 221758, "pitch": 71, "duration": 241, "velocity": 100}, {"time": 221999, "pitch": 73, "duration": 472, "velocity": 110}, {"time": 222481, "pitch": 70, "duration": 241, "velocity": 105}, {"time": 222722, "pitch": 73, "duration": 140, "velocity": 100}, {"time": 222963, "pitch": 83, "duration": 398, "velocity": 110}, {"time": 223361, "pitch": 80, "duration": 118, "velocity": 100}, {"time": 223518, "pitch": 79, "duration": 138, "velocity": 105}, {"time": 223676, "pitch": 78, "duration": 361, "velocity": 110}, {"time": 224037, "pitch": 76, "duration": 120, "velocity": 100}, {"time": 224157, "pitch": 78, "duration": 111, "velocity": 105}, {"time": 224278, "pitch": 73, "duration": 110, "velocity": 100}, {"time": 224398, "pitch": 76, "duration": 402, "velocity": 105}, {"time": 224880, "pitch": 80, "duration": 703, "velocity": 110}, {"time": 225603, "pitch": 79, "duration": 221, "velocity": 105}, {"time": 225844, "pitch": 78, "duration": 813, "velocity": 110}, {"time": 226677, "pitch": 78, "duration": 20, "velocity": 100}, {"time": 226797, "pitch": 73, "duration": 462, "velocity": 110}, {"time": 227279, "pitch": 76, "duration": 221, "velocity": 100}, {"time": 227520, "pitch": 83, "duration": 1436, "velocity": 110}, {"time": 479, "pitch": 57, "duration": 1925, "velocity": 90}, {"time": 479, "pitch": 61, "duration": 1925, "velocity": 95}, {"time": 487, "pitch": 64, "duration": 1917, "velocity": 100}, {"time": 2404, "pitch": 57, "duration": 1436, "velocity": 90}, {"time": 2404, "pitch": 61, "duration": 1436, "velocity": 95}, {"time": 2404, "pitch": 64, "duration": 1436, "velocity": 100}, {"time": 3840, "pitch": 56, "duration": 472, "velocity": 100}, {"time": 4322, "pitch": 49, "duration": 120, "velocity": 100}, {"time": 4322, "pitch": 56, "duration": 120, "velocity": 85}, {"time": 4332, "pitch": 59, "duration": 110, "velocity": 90}, {"time": 4442, "pitch": 56, "duration": 120, "velocity": 75}, {"time": 4442, "pitch": 59, "duration": 120, "velocity": 80}, {"time": 4452, "pitch": 49, "duration": 110, "velocity": 90}, {"time": 4562, "pitch": 47, "duration": 241, "velocity": 95}, {"time": 4562, "pitch": 56, "duration": 241, "velocity": 80}, {"time": 4573, "pitch": 59, "duration": 230, "velocity": 85}, {"time": 4803, "pitch": 49, "duration": 236, "velocity": 100}, {"time": 4803, "pitch": 56, "duration": 236, "velocity": 85}, {"time": 4813, "pitch": 59, "duration": 226, "velocity": 90}, {"time": 5039, "pitch": 47, "duration": 236, "velocity": 95}, {"time": 5039, "pitch": 56, "duration": 236, "velocity": 80}, {"time": 5049, "pitch": 59, "duration": 226, "velocity": 85}, {"time": 5275, "pitch": 49, "duration": 121, "velocity": 100}, {"time": 5275, "pitch": 56, "duration": 121, "velocity": 85}, {"time": 5285, "pitch": 59, "duration": 111, "velocity": 90}, {"time": 5396, "pitch": 56, "duration": 120, "velocity": 75}, {"time": 5396, "pitch": 59, "duration": 120, "velocity": 80}, {"time": 5406, "pitch": 49, "duration": 110, "velocity": 90}, {"time": 5516, "pitch": 47, "duration": 241, "velocity": 95}, {"time": 5516, "pitch": 56, "duration": 241, "velocity": 80}, {"time": 5526, "pitch": 59, "duration": 231, "velocity": 85}, {"time": 5757, "pitch": 49, "duration": 241, "velocity": 100}, {"time": 5757, "pitch": 56, "duration": 241, "velocity": 85}, {"time": 5767, "pitch": 59, "duration": 231, "velocity": 90}, {"time": 5998, "pitch": 47, "duration": 231, "velocity": 95}, {"time": 5998, "pitch": 56, "duration": 231, "velocity": 80}, {"time": 6008, "pitch": 59, "duration": 231, "velocity": 85}, {"time": 6239, "pitch": 49, "duration": 120, "velocity": 100}, {"time": 6239, "pitch": 56, "duration": 120, "velocity": 85}, {"time": 6249, "pitch": 59, "duration": 110, "velocity": 90}, {"time": 6359, "pitch": 56, "duration": 121, "velocity": 75}, {"time": 6359, "pitch": 59, "duration": 121, "velocity": 80}, {"time": 6369, "pitch": 49, "duration": 111, "velocity": 90}, {"time": 6480, "pitch": 47, "duration": 241, "velocity": 95}, {"time": 6480, "pitch": 56, "duration": 241, "velocity": 80}, {"time": 6490, "pitch": 59, "duration": 231, "velocity": 85}, {"time": 6721, "pitch": 49, "duration": 241, "velocity": 100}, {"time": 6721, "pitch": 56, "duration": 241, "velocity": 85}, {"time": 6731, "pitch": 59, "duration": 231, "velocity": 90}, {"time": 6962, "pitch": 47, "duration": 240, "velocity": 95}, {"time": 6962, "pitch": 56, "duration": 240, "velocity": 80}, {"time": 6972, "pitch": 59, "duration": 230, "velocity": 85}, {"time": 7202, "pitch": 49, "duration": 121, "velocity": 100}, {"time": 7202, "pitch": 56, "duration": 121, "velocity": 85}, {"time": 7212, "pitch": 59, "duration": 111, "velocity": 90}, {"time": 7323, "pitch": 56, "duration": 120, "velocity": 75}, {"time": 7323, "pitch": 59, "duration": 120, "velocity": 80}, {"time": 7333, "pitch": 49, "duration": 110, "velocity": 90}, {"time": 7443, "pitch": 47, "duration": 241, "velocity": 95}, {"time": 7443, "pitch": 56, "duration": 241, "velocity": 80}, {"time": 7453, "pitch": 59, "duration": 231, "velocity": 85}, {"time": 7684, "pitch": 49, "duration": 236, "velocity": 100}, {"time": 7684, "pitch": 56, "duration": 236, "velocity": 85}, {"time": 7694, "pitch": 59, "duration": 226, "velocity": 90}, {"time": 7920, "pitch": 49, "duration": 226, "velocity": 95}, {"time": 7920, "pitch": 56, "duration": 226, "velocity": 80}, {"time": 7930, "pitch": 59, "duration": 226, "velocity": 85}, {"time": 8156, "pitch": 49, "duration": 121, "velocity": 100}, {"time": 8156, "pitch": 56, "duration": 121, "velocity": 85}, {"time": 8166, "pitch": 59, "duration": 111, "velocity": 90}, {"time": 8277, "pitch": 56, "duration": 120, "velocity": 75}, {"time": 8277, "pitch": 59, "duration": 120, "velocity": 80}, {"time": 8287, "pitch": 49, "duration": 110, "velocity": 90}, {"time": 8397, "pitch": 47, "duration": 241, "velocity": 95}, {"time": 8397, "pitch": 56, "duration": 241, "velocity": 80}, {"time": 8407, "pitch": 59, "duration": 231, "velocity": 85}, {"time": 8638, "pitch": 49, "duration": 241, "velocity": 100}, {"time": 8638, "pitch": 56, "duration": 241, "velocity": 85}, {"time": 8648, "pitch": 59, "duration": 231, "velocity": 90}, {"time": 8879, "pitch": 47, "duration": 241, "velocity": 95}, {"time": 8879, "pitch": 56, "duration": 241, "velocity": 80}, {"time": 8889, "pitch": 59, "duration": 231, "velocity": 85}, {"time": 9120, "pitch": 49, "duration": 120, "velocity": 100}, {"time": 9120, "pitch": 56, "duration": 120, "velocity": 85}, {"time": 9130, "pitch": 59, "duration": 110, "velocity": 90}, {"time": 9240, "pitch": 56, "duration": 121, "velocity": 75}, {"time": 9240, "pitch": 59, "duration": 121, "velocity": 80}, {"time": 9250, "pitch": 49, "duration": 111, "velocity": 90}, {"time": 9361, "pitch": 47, "duration": 240, "velocity": 95}, {"time": 9361, "pitch": 56, "duration": 240, "velocity": 80}, {"time": 9371, "pitch": 59, "duration": 230, "velocity": 85}, {"time": 9601, "pitch": 49, "duration": 241, "velocity": 100}, {"time": 9601, "pitch": 56, "duration": 241, "velocity": 85}, {"time": 9611, "pitch": 59, "duration": 231, "velocity": 90}, {"time": 9842, "pitch": 47, "duration": 231, "velocity": 95}, {"time": 9842, "pitch": 56, "duration": 231, "velocity": 80}, {"time": 9852, "pitch": 59, "duration": 231, "velocity": 85}, {"time": 10083, "pitch": 49, "duration": 118, "velocity": 100}, {"time": 10083, "pitch": 56, "duration": 118, "velocity": 85}, {"time": 10093, "pitch": 59, "duration": 108, "velocity": 90}, {"time": 10201, "pitch": 56, "duration": 118, "velocity": 75}, {"time": 10201, "pitch": 59, "duration": 118, "velocity": 80}, {"time": 10211, "pitch": 49, "duration": 108, "velocity": 90}, {"time": 10319, "pitch": 47, "duration": 236, "velocity": 95}, {"time": 10319, "pitch": 56, "duration": 236, "velocity": 80}, {"time": 10329, "pitch": 59, "duration": 226, "velocity": 85}, {"time": 10555, "pitch": 49, "duration": 241, "velocity": 100}, {"time": 10555, "pitch": 56, "duration": 241, "velocity": 85}, {"time": 10565, "pitch": 59, "duration": 231, "velocity": 90}, {"time": 10796, "pitch": 47, "duration": 241, "velocity": 95}, {"time": 10796, "pitch": 56, "duration": 241, "velocity": 80}, {"time": 10806, "pitch": 59, "duration": 231, "velocity": 85}, {"time": 11037, "pitch": 49, "duration": 120, "velocity": 100}, {"time": 11037, "pitch": 56, "duration": 120, "velocity": 85}, {"time": 11047, "pitch": 59, "duration": 110, "velocity": 90}, {"time": 11157, "pitch": 56, "duration": 121, "velocity": 75}, {"time": 11157, "pitch": 59, "duration": 121, "velocity": 80}, {"time": 11167, "pitch": 49, "duration": 111, "velocity": 90}, {"time": 11278, "pitch": 47, "duration": 241, "velocity": 95}, {"time": 11278, "pitch": 56, "duration": 241, "velocity": 80}, {"time": 11288, "pitch": 59, "duration": 231, "velocity": 85}, {"time": 11519, "pitch": 49, "duration": 241, "velocity": 100}, {"time": 11519, "pitch": 56, "duration": 241, "velocity": 85}, {"time": 11529, "pitch": 59, "duration": 231, "velocity": 90}, {"time": 11760, "pitch": 49, "duration": 230, "velocity": 95}, {"time": 11760, "pitch": 56, "duration": 230, "velocity": 80}, {"time": 11770, "pitch": 59, "duration": 230, "velocity": 85}, {"time": 12000, "pitch": 49, "duration": 121, "velocity": 100}, {"time": 12000, "pitch": 56, "duration": 121, "velocity": 85}, {"time": 12011, "pitch": 59, "duration": 110, "velocity": 90}, {"time": 12121, "pitch": 56, "duration": 120, "velocity": 75}, {"time": 12121, "pitch": 59, "duration": 120, "velocity": 80}, {"time": 12131, "pitch": 49, "duration": 110, "velocity": 90}, {"time": 12241, "pitch": 47, "duration": 241, "velocity": 95}, {"time": 12241, "pitch": 56, "duration": 241, "velocity": 80}, {"time": 12251, "pitch": 59, "duration": 231, "velocity": 85}, {"time": 12482, "pitch": 49, "duration": 241, "velocity": 100}, {"time": 12482, "pitch": 56, "duration": 241, "velocity": 85}, {"time": 12492, "pitch": 59, "duration": 231, "velocity": 90}, {"time": 12723, "pitch": 47, "duration": 241, "velocity": 95}, {"time": 12723, "pitch": 56, "duration": 241, "velocity": 80}, {"time": 12733, "pitch": 59, "duration": 231, "velocity": 85}, {"time": 12964, "pitch": 49, "duration": 118, "velocity": 100}, {"time": 12964, "pitch": 56, "duration": 118, "velocity": 85}, {"time": 12974, "pitch": 59, "duration": 108, "velocity": 90}, {"time": 13082, "pitch": 56, "duration": 118, "velocity": 75}, {"time": 13082, "pitch": 59, "duration": 118, "velocity": 80}, {"time": 13092, "pitch": 49, "duration": 108, "velocity": 90}, {"time": 13200, "pitch": 47, "duration": 236, "velocity": 95}, {"time": 13200, "pitch": 56, "duration": 236, "velocity": 80}, {"time": 13210, "pitch": 59, "duration": 226, "velocity": 85}, {"time": 13436, "pitch": 49, "duration": 241, "velocity": 100}, {"time": 13436, "pitch": 56, "duration": 241, "velocity": 85}, {"time": 13446, "pitch": 59, "duration": 231, "velocity": 90}, {"time": 13677, "pitch": 47, "duration": 231, "velocity": 95}, {"time": 13677, "pitch": 56, "duration": 231, "velocity": 80}, {"time": 13687, "pitch": 59, "duration": 231, "velocity": 85}, {"time": 13918, "pitch": 49, "duration": 120, "velocity": 100}, {"time": 13918, "pitch": 56, "duration": 120, "velocity": 85}, {"time": 13928, "pitch": 59, "duration": 110, "velocity": 90}, {"time": 14038, "pitch": 56, "duration": 121, "velocity": 75}, {"time": 14038, "pitch": 59, "duration": 121, "velocity": 80}, {"time": 14048, "pitch": 49, "duration": 111, "velocity": 90}, {"time": 14159, "pitch": 47, "duration": 241, "velocity": 95}, {"time": 14159, "pitch": 56, "duration": 241, "velocity": 80}, {"time": 14169, "pitch": 59, "duration": 231, "velocity": 85}, {"time": 14400, "pitch": 49, "duration": 240, "velocity": 100}, {"time": 14400, "pitch": 56, "duration": 240, "velocity": 85}, {"time": 14410, "pitch": 59, "duration": 230, "velocity": 90}, {"time": 14640, "pitch": 47, "duration": 241, "velocity": 95}, {"time": 14640, "pitch": 56, "duration": 241, "velocity": 80}, {"time": 14650, "pitch": 59, "duration": 231, "velocity": 85}, {"time": 14881, "pitch": 49, "duration": 121, "velocity": 100}, {"time": 14881, "pitch": 56, "duration": 121, "velocity": 85}, {"time": 14891, "pitch": 59, "duration": 111, "velocity": 90}, {"time": 15002, "pitch": 56, "duration": 120, "velocity": 75}, {"time": 15002, "pitch": 59, "duration": 120, "velocity": 80}, {"time": 15012, "pitch": 49, "duration": 110, "velocity": 90}, {"time": 15122, "pitch": 47, "duration": 241, "velocity": 95}, {"time": 15122, "pitch": 56, "duration": 241, "velocity": 80}, {"time": 15132, "pitch": 59, "duration": 231, "velocity": 85}, {"time": 15363, "pitch": 49, "duration": 241, "velocity": 100}, {"time": 15363, "pitch": 56, "duration": 241, "velocity": 85}, {"time": 15373, "pitch": 59, "duration": 231, "velocity": 90}, {"time": 15604, "pitch": 49, "duration": 231, "velocity": 95}, {"time": 15604, "pitch": 56, "duration": 231, "velocity": 80}, {"time": 15614, "pitch": 59, "duration": 231, "velocity": 85}, {"time": 15845, "pitch": 49, "duration": 118, "velocity": 100}, {"time": 15845, "pitch": 56, "duration": 118, "velocity": 85}, {"time": 15855, "pitch": 59, "duration": 108, "velocity": 90}, {"time": 15963, "pitch": 56, "duration": 118, "velocity": 75}, {"time": 15963, "pitch": 59, "duration": 118, "velocity": 80}, {"time": 15973, "pitch": 49, "duration": 108, "velocity": 90}, {"time": 16081, "pitch": 47, "duration": 236, "velocity": 95}, {"time": 16081, "pitch": 56, "duration": 236, "velocity": 80}, {"time": 16091, "pitch": 59, "duration": 226, "velocity": 85}, {"time": 16317, "pitch": 49, "duration": 241, "velocity": 100}, {"time": 16317, "pitch": 56, "duration": 241, "velocity": 85}, {"time": 16327, "pitch": 59, "duration": 231, "velocity": 90}, {"time": 16558, "pitch": 47, "duration": 241, "velocity": 95}, {"time": 16558, "pitch": 56, "duration": 241, "velocity": 80}, {"time": 16568, "pitch": 59, "duration": 231, "velocity": 85}, {"time": 16799, "pitch": 49, "duration": 120, "velocity": 100}, {"time": 16799, "pitch": 56, "duration": 120, "velocity": 85}, {"time": 16809, "pitch": 59, "duration": 110, "velocity": 90}, {"time": 16919, "pitch": 56, "duration": 120, "velocity": 75}, {"time": 16919, "pitch": 59, "duration": 120, "velocity": 80}, {"time": 16929, "pitch": 49, "duration": 110, "velocity": 90}, {"time": 17039, "pitch": 47, "duration": 241, "velocity": 95}, {"time": 17039, "pitch": 56, "duration": 241, "velocity": 80}, {"time": 17049, "pitch": 59, "duration": 231, "velocity": 85}, {"time": 17280, "pitch": 49, "duration": 241, "velocity": 100}, {"time": 17280, "pitch": 56, "duration": 241, "velocity": 85}, {"time": 17290, "pitch": 59, "duration": 231, "velocity": 90}, {"time": 17521, "pitch": 49, "duration": 231, "velocity": 95}, {"time": 17521, "pitch": 56, "duration": 231, "velocity": 80}, {"time": 17531, "pitch": 59, "duration": 231, "velocity": 85}, {"time": 17762, "pitch": 50, "duration": 698, "velocity": 100}, {"time": 17762, "pitch": 57, "duration": 698, "velocity": 95}, {"time": 17772, "pitch": 62, "duration": 698, "velocity": 90}, {"time": 18480, "pitch": 44, "duration": 1179, "velocity": 100}, {"time": 18480, "pitch": 51, "duration": 1179, "velocity": 95}, {"time": 18490, "pitch": 56, "duration": 1179, "velocity": 90}, {"time": 19679, "pitch": 49, "duration": 241, "velocity": 85}, {"time": 19679, "pitch": 56, "duration": 241, "velocity": 90}, {"time": 19689, "pitch": 61, "duration": 231, "velocity": 95}, {"time": 19920, "pitch": 49, "duration": 241, "velocity": 75}, {"time": 19920, "pitch": 56, "duration": 241, "velocity": 80}, {"time": 19930, "pitch": 61, "duration": 231, "velocity": 85}, {"time": 20161, "pitch": 49, "duration": 241, "velocity": 90}, {"time": 20161, "pitch": 56, "duration": 241, "velocity": 95}, {"time": 20171, "pitch": 61, "duration": 231, "velocity": 100}, {"time": 20402, "pitch": 49, "duration": 241, "velocity": 80}, {"time": 20402, "pitch": 56, "duration": 241, "velocity": 85}, {"time": 20412, "pitch": 61, "duration": 231, "velocity": 90}, {"time": 20643, "pitch": 49, "duration": 241, "velocity": 75}, {"time": 20643, "pitch": 56, "duration": 241, "velocity": 80}, {"time": 20653, "pitch": 61, "duration": 231, "velocity": 85}, {"time": 20884, "pitch": 49, "duration": 241, "velocity": 90}, {"time": 20884, "pitch": 56, "duration": 241, "velocity": 95}, {"time": 20894, "pitch": 61, "duration": 231, "velocity": 100}, {"time": 21125, "pitch": 49, "duration": 236, "velocity": 75}, {"time": 21125, "pitch": 56, "duration": 236, "velocity": 80}, {"time": 21134, "pitch": 61, "duration": 227, "velocity": 85}, {"time": 21361, "pitch": 49, "duration": 118, "velocity": 80}, {"time": 21361, "pitch": 56, "duration": 118, "velocity": 85}, {"time": 21370, "pitch": 61, "duration": 109, "velocity": 90}, {"time": 21479, "pitch": 56, "duration": 118, "velocity": 80}, {"time": 21479, "pitch": 61, "duration": 118, "velocity": 85}, {"time": 21488, "pitch": 49, "duration": 109, "velocity": 75}, {"time": 21597, "pitch": 49, "duration": 240, "velocity": 85}, {"time": 21597, "pitch": 56, "duration": 240, "velocity": 90}, {"time": 21607, "pitch": 61, "duration": 230, "velocity": 95}, {"time": 21837, "pitch": 49, "duration": 241, "velocity": 75}, {"time": 21837, "pitch": 56, "duration": 241, "velocity": 80}, {"time": 21848, "pitch": 61, "duration": 230, "velocity": 85}, {"time": 22078, "pitch": 49, "duration": 241, "velocity": 80}, {"time": 22078, "pitch": 56, "duration": 241, "velocity": 90}, {"time": 22088, "pitch": 61, "duration": 231, "velocity": 100}, {"time": 22319, "pitch": 49, "duration": 1185, "velocity": 85}, {"time": 22319, "pitch": 56, "duration": 1185, "velocity": 95}, {"time": 22329, "pitch": 59, "duration": 1185, "velocity": 105}, {"time": 23524, "pitch": 42, "duration": 236, "velocity": 85}, {"time": 23524, "pitch": 49, "duration": 236, "velocity": 90}, {"time": 23533, "pitch": 54, "duration": 227, "velocity": 95}, {"time": 23760, "pitch": 42, "duration": 236, "velocity": 75}, {"time": 23760, "pitch": 49, "duration": 236, "velocity": 80}, {"time": 23770, "pitch": 54, "duration": 226, "velocity": 85}, {"time": 23996, "pitch": 42, "duration": 241, "velocity": 90}, {"time": 23996, "pitch": 49, "duration": 241, "velocity": 95}, {"time": 24006, "pitch": 54, "duration": 231, "velocity": 100}, {"time": 24237, "pitch": 42, "duration": 240, "velocity": 80}, {"time": 24237, "pitch": 49, "duration": 240, "velocity": 85}, {"time": 24247, "pitch": 54, "duration": 230, "velocity": 90}, {"time": 24477, "pitch": 42, "duration": 241, "velocity": 75}, {"time": 24477, "pitch": 49, "duration": 241, "velocity": 80}, {"time": 24487, "pitch": 54, "duration": 231, "velocity": 85}, {"time": 24718, "pitch": 42, "duration": 241, "velocity": 90}, {"time": 24718, "pitch": 49, "duration": 241, "velocity": 95}, {"time": 24728, "pitch": 54, "duration": 231, "velocity": 100}, {"time": 24959, "pitch": 42, "duration": 241, "velocity": 75}, {"time": 24959, "pitch": 49, "duration": 241, "velocity": 80}, {"time": 24969, "pitch": 54, "duration": 231, "velocity": 85}, {"time": 25200, "pitch": 42, "duration": 121, "velocity": 80}, {"time": 25200, "pitch": 49, "duration": 121, "velocity": 85}, {"time": 25210, "pitch": 54, "duration": 111, "velocity": 90}, {"time": 25321, "pitch": 49, "duration": 120, "velocity": 80}, {"time": 25321, "pitch": 54, "duration": 120, "velocity": 85}, {"time": 25331, "pitch": 42, "duration": 110, "velocity": 75}, {"time": 25441, "pitch": 42, "duration": 241, "velocity": 85}, {"time": 25441, "pitch": 49, "duration": 241, "velocity": 90}, {"time": 25451, "pitch": 54, "duration": 231, "velocity": 95}, {"time": 25682, "pitch": 42, "duration": 241, "velocity": 75}, {"time": 25682, "pitch": 49, "duration": 241, "velocity": 80}, {"time": 25692, "pitch": 54, "duration": 231, "velocity": 85}, {"time": 25923, "pitch": 59, "duration": 241, "velocity": 105}, {"time": 26164, "pitch": 57, "duration": 933, "velocity": 110}, {"time": 27117, "pitch": 42, "duration": 30, "velocity": 90}, {"time": 27117, "pitch": 49, "duration": 30, "velocity": 95}, {"time": 27127, "pitch": 54, "duration": 30, "velocity": 100}, {"time": 27238, "pitch": 49, "duration": 30, "velocity": 90}, {"time": 27238, "pitch": 54, "duration": 30, "velocity": 95}, {"time": 27248, "pitch": 42, "duration": 30, "velocity": 85}, {"time": 27358, "pitch": 44, "duration": 1662, "velocity": 100}, {"time": 27358, "pitch": 51, "duration": 1662, "velocity": 95}, {"time": 27368, "pitch": 56, "duration": 1662, "velocity": 90}, {"time": 29040, "pitch": 44, "duration": 29, "velocity": 85}, {"time": 29040, "pitch": 51, "duration": 29, "velocity": 90}, {"time": 29049, "pitch": 56, "duration": 30, "velocity": 95}, {"time": 29158, "pitch": 51, "duration": 29, "velocity": 85}, {"time": 29158, "pitch": 56, "duration": 29, "velocity": 90}, {"time": 29167, "pitch": 44, "duration": 30, "velocity": 80}, {"time": 29276, "pitch": 44, "duration": 963, "velocity": 90}, {"time": 29286, "pitch": 51, "duration": 712, "velocity": 85}, {"time": 29516, "pitch": 56, "duration": 241, "velocity": 90}, {"time": 29516, "pitch": 59, "duration": 251, "velocity": 95}, {"time": 29526, "pitch": 63, "duration": 1656, "velocity": 100}, {"time": 29757, "pitch": 56, "duration": 251, "velocity": 85}, {"time": 29767, "pitch": 59, "duration": 482, "velocity": 90}, {"time": 29998, "pitch": 51, "duration": 241, "velocity": 90}, {"time": 30008, "pitch": 56, "duration": 231, "velocity": 95}, {"time": 30239, "pitch": 44, "duration": 482, "velocity": 85}, {"time": 30239, "pitch": 51, "duration": 482, "velocity": 90}, {"time": 30239, "pitch": 56, "duration": 482, "velocity": 95}, {"time": 30249, "pitch": 59, "duration": 482, "velocity": 100}, {"time": 30721, "pitch": 44, "duration": 461, "velocity": 80}, {"time": 30721, "pitch": 51, "duration": 461, "velocity": 85}, {"time": 30721, "pitch": 56, "duration": 461, "velocity": 90}, {"time": 30731, "pitch": 59, "duration": 462, "velocity": 95}, {"time": 31203, "pitch": 45, "duration": 1897, "velocity": 100}, {"time": 31203, "pitch": 52, "duration": 1897, "velocity": 95}, {"time": 31203, "pitch": 56, "duration": 1897, "velocity": 90}, {"time": 31213, "pitch": 61, "duration": 1897, "velocity": 85}, {"time": 33120, "pitch": 44, "duration": 1897, "velocity": 100}, {"time": 33120, "pitch": 51, "duration": 1897, "velocity": 95}, {"time": 33120, "pitch": 56, "duration": 1897, "velocity": 90}, {"time": 33130, "pitch": 60, "duration": 1897, "velocity": 85}, {"time": 35519, "pitch": 56, "duration": 221, "velocity": 95}, {"time": 35529, "pitch": 61, "duration": 221, "velocity": 100}, {"time": 36242, "pitch": 56, "duration": 220, "velocity": 95}, {"time": 36252, "pitch": 61, "duration": 220, "velocity": 100}, {"time": 37200, "pitch": 61, "duration": 236, "velocity": 95}, {"time": 37436, "pitch": 59, "duration": 241, "velocity": 100}, {"time": 37677, "pitch": 64, "duration": 1184, "velocity": 110}, {"time": 38881, "pitch": 42, "duration": 241, "velocity": 95}, {"time": 38881, "pitch": 49, "duration": 241, "velocity": 90}, {"time": 38891, "pitch": 54, "duration": 231, "velocity": 85}, {"time": 39122, "pitch": 42, "duration": 241, "velocity": 90}, {"time": 39122, "pitch": 49, "duration": 241, "velocity": 85}, {"time": 39132, "pitch": 54, "duration": 231, "velocity": 80}, {"time": 39363, "pitch": 54, "duration": 236, "velocity": 90}, {"time": 39363, "pitch": 57, "duration": 236, "velocity": 95}, {"time": 39373, "pitch": 61, "duration": 226, "velocity": 100}, {"time": 39599, "pitch": 42, "duration": 236, "velocity": 95}, {"time": 39599, "pitch": 49, "duration": 236, "velocity": 90}, {"time": 39609, "pitch": 54, "duration": 226, "velocity": 85}, {"time": 39835, "pitch": 42, "duration": 241, "velocity": 90}, {"time": 39835, "pitch": 49, "duration": 241, "velocity": 85}, {"time": 39845, "pitch": 54, "duration": 231, "velocity": 80}, {"time": 40076, "pitch": 54, "duration": 241, "velocity": 90}, {"time": 40076, "pitch": 57, "duration": 241, "velocity": 95}, {"time": 40086, "pitch": 61, "duration": 231, "velocity": 100}, {"time": 40317, "pitch": 42, "duration": 241, "velocity": 95}, {"time": 40317, "pitch": 49, "duration": 241, "velocity": 90}, {"time": 40327, "pitch": 54, "duration": 231, "velocity": 85}, {"time": 40558, "pitch": 42, "duration": 241, "velocity": 90}, {"time": 40558, "pitch": 49, "duration": 241, "velocity": 85}, {"time": 40568, "pitch": 54, "duration": 231, "velocity": 80}, {"time": 40799, "pitch": 42, "duration": 241, "velocity": 95}, {"time": 40799, "pitch": 49, "duration": 241, "velocity": 90}, {"time": 40809, "pitch": 54, "duration": 231, "velocity": 85}, {"time": 41040, "pitch": 42, "duration": 240, "velocity": 90}, {"time": 41040, "pitch": 49, "duration": 240, "velocity": 85}, {"time": 41050, "pitch": 54, "duration": 230, "velocity": 80}, {"time": 41280, "pitch": 54, "duration": 241, "velocity": 90}, {"time": 41280, "pitch": 57, "duration": 241, "velocity": 95}, {"time": 41290, "pitch": 61, "duration": 231, "velocity": 100}, {"time": 41521, "pitch": 42, "duration": 241, "velocity": 95}, {"time": 41521, "pitch": 49, "duration": 241, "velocity": 90}, {"time": 41531, "pitch": 54, "duration": 231, "velocity": 85}, {"time": 41762, "pitch": 42, "duration": 241, "velocity": 90}, {"time": 41762, "pitch": 49, "duration": 241, "velocity": 85}, {"time": 41772, "pitch": 54, "duration": 231, "velocity": 80}, {"time": 42003, "pitch": 54, "duration": 241, "velocity": 90}, {"time": 42003, "pitch": 57, "duration": 241, "velocity": 95}, {"time": 42013, "pitch": 61, "duration": 231, "velocity": 100}, {"time": 42244, "pitch": 42, "duration": 236, "velocity": 95}, {"time": 42244, "pitch": 49, "duration": 236, "velocity": 90}, {"time": 42254, "pitch": 54, "duration": 226, "velocity": 85}, {"time": 42480, "pitch": 42, "duration": 236, "velocity": 90}, {"time": 42480, "pitch": 49, "duration": 236, "velocity": 85}, {"time": 42490, "pitch": 54, "duration": 226, "velocity": 80}, {"time": 42716, "pitch": 44, "duration": 241, "velocity": 95}, {"time": 42716, "pitch": 51, "duration": 241, "velocity": 90}, {"time": 42726, "pitch": 56, "duration": 231, "velocity": 85}, {"time": 42957, "pitch": 44, "duration": 241, "velocity": 90}, {"time": 42957, "pitch": 51, "duration": 241, "velocity": 85}, {"time": 42967, "pitch": 56, "duration": 231, "velocity": 80}, {"time": 43198, "pitch": 51, "duration": 241, "velocity": 90}, {"time": 43198, "pitch": 56, "duration": 241, "velocity": 95}, {"time": 43208, "pitch": 59, "duration": 231, "velocity": 100}, {"time": 43439, "pitch": 44, "duration": 240, "velocity": 95}, {"time": 43439, "pitch": 51, "duration": 240, "velocity": 90}, {"time": 43449, "pitch": 56, "duration": 230, "velocity": 85}, {"time": 43679, "pitch": 44, "duration": 241, "velocity": 90}, {"time": 43679, "pitch": 51, "duration": 241, "velocity": 85}, {"time": 43690, "pitch": 56, "duration": 230, "velocity": 80}, {"time": 43920, "pitch": 51, "duration": 241, "velocity": 90}, {"time": 43920, "pitch": 56, "duration": 251, "velocity": 95}, {"time": 43930, "pitch": 59, "duration": 703, "velocity": 100}, {"time": 44161, "pitch": 51, "duration": 251, "velocity": 90}, {"time": 44171, "pitch": 56, "duration": 462, "velocity": 95}, {"time": 44402, "pitch": 44, "duration": 231, "velocity": 85}, {"time": 44412, "pitch": 51, "duration": 231, "velocity": 90}, {"time": 44643, "pitch": 56, "duration": 241, "velocity": 90}, {"time": 44643, "pitch": 59, "duration": 241, "velocity": 95}, {"time": 44653, "pitch": 64, "duration": 241, "velocity": 100}, {"time": 44884, "pitch": 49, "duration": 241, "velocity": 90}, {"time": 44894, "pitch": 56, "duration": 231, "velocity": 85}, {"time": 45125, "pitch": 56, "duration": 236, "velocity": 85}, {"time": 45125, "pitch": 59, "duration": 236, "velocity": 90}, {"time": 45135, "pitch": 64, "duration": 226, "velocity": 95}, {"time": 45361, "pitch": 56, "duration": 246, "velocity": 90}, {"time": 45361, "pitch": 59, "duration": 1179, "velocity": 95}, {"time": 45371, "pitch": 64, "duration": 1169, "velocity": 100}, {"time": 45597, "pitch": 49, "duration": 241, "velocity": 95}, {"time": 45607, "pitch": 56, "duration": 241, "velocity": 90}, {"time": 45838, "pitch": 49, "duration": 241, "velocity": 90}, {"time": 45848, "pitch": 56, "duration": 241, "velocity": 85}, {"time": 46079, "pitch": 49, "duration": 240, "velocity": 95}, {"time": 46089, "pitch": 56, "duration": 240, "velocity": 90}, {"time": 46319, "pitch": 49, "duration": 221, "velocity": 90}, {"time": 46329, "pitch": 56, "duration": 221, "velocity": 85}, {"time": 46560, "pitch": 50, "duration": 241, "velocity": 100}, {"time": 46560, "pitch": 57, "duration": 241, "velocity": 95}, {"time": 46570, "pitch": 62, "duration": 231, "velocity": 90}, {"time": 46801, "pitch": 50, "duration": 241, "velocity": 95}, {"time": 46801, "pitch": 57, "duration": 241, "velocity": 90}, {"time": 46811, "pitch": 62, "duration": 231, "velocity": 85}, {"time": 47042, "pitch": 50, "duration": 241, "velocity": 100}, {"time": 47042, "pitch": 57, "duration": 241, "velocity": 95}, {"time": 47052, "pitch": 62, "duration": 231, "velocity": 90}, {"time": 47283, "pitch": 50, "duration": 241, "velocity": 95}, {"time": 47283, "pitch": 57, "duration": 241, "velocity": 90}, {"time": 47293, "pitch": 62, "duration": 231, "velocity": 85}, {"time": 47524, "pitch": 50, "duration": 236, "velocity": 100}, {"time": 47524, "pitch": 57, "duration": 236, "velocity": 95}, {"time": 47534, "pitch": 62, "duration": 226, "velocity": 90}, {"time": 47760, "pitch": 50, "duration": 236, "velocity": 95}, {"time": 47760, "pitch": 57, "duration": 236, "velocity": 90}, {"time": 47770, "pitch": 62, "duration": 226, "velocity": 85}, {"time": 47996, "pitch": 50, "duration": 241, "velocity": 100}, {"time": 47996, "pitch": 57, "duration": 241, "velocity": 95}, {"time": 48006, "pitch": 62, "duration": 231, "velocity": 90}, {"time": 48237, "pitch": 50, "duration": 241, "velocity": 95}, {"time": 48237, "pitch": 57, "duration": 241, "velocity": 90}, {"time": 48247, "pitch": 62, "duration": 231, "velocity": 85}, {"time": 48478, "pitch": 44, "duration": 240, "velocity": 100}, {"time": 48478, "pitch": 51, "duration": 240, "velocity": 95}, {"time": 48488, "pitch": 56, "duration": 230, "velocity": 90}, {"time": 48718, "pitch": 44, "duration": 241, "velocity": 95}, {"time": 48718, "pitch": 51, "duration": 241, "velocity": 90}, {"time": 48728, "pitch": 56, "duration": 231, "velocity": 85}, {"time": 48959, "pitch": 44, "duration": 241, "velocity": 100}, {"time": 48959, "pitch": 51, "duration": 241, "velocity": 95}, {"time": 48969, "pitch": 56, "duration": 231, "velocity": 90}, {"time": 49200, "pitch": 44, "duration": 241, "velocity": 95}, {"time": 49200, "pitch": 51, "duration": 241, "velocity": 90}, {"time": 49210, "pitch": 56, "duration": 231, "velocity": 85}, {"time": 49441, "pitch": 44, "duration": 241, "velocity": 100}, {"time": 49441, "pitch": 51, "duration": 241, "velocity": 95}, {"time": 49451, "pitch": 56, "duration": 231, "velocity": 90}, {"time": 49682, "pitch": 44, "duration": 241, "velocity": 95}, {"time": 49682, "pitch": 51, "duration": 241, "velocity": 90}, {"time": 49692, "pitch": 56, "duration": 231, "velocity": 85}, {"time": 49923, "pitch": 44, "duration": 241, "velocity": 100}, {"time": 49923, "pitch": 51, "duration": 241, "velocity": 95}, {"time": 49933, "pitch": 56, "duration": 231, "velocity": 90}, {"time": 50164, "pitch": 44, "duration": 241, "velocity": 95}, {"time": 50164, "pitch": 51, "duration": 241, "velocity": 90}, {"time": 50174, "pitch": 56, "duration": 231, "velocity": 85}, {"time": 50405, "pitch": 45, "duration": 236, "velocity": 100}, {"time": 50414, "pitch": 52, "duration": 227, "velocity": 95}, {"time": 50641, "pitch": 45, "duration": 236, "velocity": 95}, {"time": 50650, "pitch": 52, "duration": 227, "velocity": 90}, {"time": 50877, "pitch": 45, "duration": 240, "velocity": 100}, {"time": 50887, "pitch": 52, "duration": 230, "velocity": 95}, {"time": 51117, "pitch": 45, "duration": 241, "velocity": 95}, {"time": 51128, "pitch": 52, "duration": 230, "velocity": 90}, {"time": 51358, "pitch": 45, "duration": 241, "velocity": 100}, {"time": 51368, "pitch": 52, "duration": 231, "velocity": 95}, {"time": 51599, "pitch": 45, "duration": 241, "velocity": 95}, {"time": 51609, "pitch": 52, "duration": 231, "velocity": 90}, {"time": 51840, "pitch": 45, "duration": 241, "velocity": 100}, {"time": 51850, "pitch": 52, "duration": 231, "velocity": 95}, {"time": 52081, "pitch": 45, "duration": 241, "velocity": 95}, {"time": 52091, "pitch": 52, "duration": 231, "velocity": 90}, {"time": 52322, "pitch": 47, "duration": 241, "velocity": 100}, {"time": 52332, "pitch": 54, "duration": 231, "velocity": 95}, {"time": 52563, "pitch": 47, "duration": 241, "velocity": 95}, {"time": 52573, "pitch": 54, "duration": 231, "velocity": 90}, {"time": 52804, "pitch": 47, "duration": 236, "velocity": 100}, {"time": 52813, "pitch": 54, "duration": 227, "velocity": 95}, {"time": 53040, "pitch": 47, "duration": 236, "velocity": 95}, {"time": 53049, "pitch": 54, "duration": 227, "velocity": 90}, {"time": 53276, "pitch": 47, "duration": 241, "velocity": 100}, {"time": 53286, "pitch": 54, "duration": 231, "velocity": 95}, {"time": 53517, "pitch": 47, "duration": 240, "velocity": 95}, {"time": 53527, "pitch": 54, "duration": 230, "velocity": 90}, {"time": 53757, "pitch": 47, "duration": 241, "velocity": 100}, {"time": 53767, "pitch": 54, "duration": 231, "velocity": 95}, {"time": 53998, "pitch": 47, "duration": 241, "velocity": 95}, {"time": 54008, "pitch": 54, "duration": 231, "velocity": 90}, {"time": 54239, "pitch": 48, "duration": 241, "velocity": 100}, {"time": 54480, "pitch": 48, "duration": 241, "velocity": 95}, {"time": 54721, "pitch": 48, "duration": 241, "velocity": 100}, {"time": 54962, "pitch": 48, "duration": 241, "velocity": 95}, {"time": 55203, "pitch": 48, "duration": 241, "velocity": 100}, {"time": 55444, "pitch": 48, "duration": 240, "velocity": 95}, {"time": 55684, "pitch": 48, "duration": 236, "velocity": 100}, {"time": 55920, "pitch": 48, "duration": 237, "velocity": 95}, {"time": 56157, "pitch": 49, "duration": 240, "velocity": 100}, {"time": 56397, "pitch": 49, "duration": 241, "velocity": 95}, {"time": 56638, "pitch": 49, "duration": 241, "velocity": 100}, {"time": 56879, "pitch": 49, "duration": 241, "velocity": 95}, {"time": 57120, "pitch": 49, "duration": 241, "velocity": 100}, {"time": 57361, "pitch": 49, "duration": 241, "velocity": 95}, {"time": 57602, "pitch": 47, "duration": 241, "velocity": 100}, {"time": 57843, "pitch": 47, "duration": 240, "velocity": 95}, {"time": 58083, "pitch": 46, "duration": 236, "velocity": 100}, {"time": 58319, "pitch": 46, "duration": 237, "velocity": 95}, {"time": 58556, "pitch": 46, "duration": 240, "velocity": 100}, {"time": 58796, "pitch": 46, "duration": 241, "velocity": 95}, {"time": 59037, "pitch": 46, "duration": 241, "velocity": 100}, {"time": 59278, "pitch": 46, "duration": 241, "velocity": 95}, {"time": 59519, "pitch": 46, "duration": 241, "velocity": 100}, {"time": 59760, "pitch": 46, "duration": 241, "velocity": 95}, {"time": 60001, "pitch": 46, "duration": 241, "velocity": 100}, {"time": 60242, "pitch": 46, "duration": 241, "velocity": 95}, {"time": 60483, "pitch": 46, "duration": 240, "velocity": 100}, {"time": 60723, "pitch": 46, "duration": 241, "velocity": 95}, {"time": 60964, "pitch": 46, "duration": 236, "velocity": 100}, {"time": 61200, "pitch": 46, "duration": 236, "velocity": 95}, {"time": 61436, "pitch": 46, "duration": 241, "velocity": 100}, {"time": 61677, "pitch": 46, "duration": 241, "velocity": 95}, {"time": 61918, "pitch": 42, "duration": 241, "velocity": 100}, {"time": 61928, "pitch": 49, "duration": 231, "velocity": 90}, {"time": 62159, "pitch": 42, "duration": 241, "velocity": 95}, {"time": 62169, "pitch": 49, "duration": 231, "velocity": 85}, {"time": 62400, "pitch": 42, "duration": 241, "velocity": 100}, {"time": 62410, "pitch": 49, "duration": 231, "velocity": 90}, {"time": 62641, "pitch": 42, "duration": 241, "velocity": 95}, {"time": 62651, "pitch": 49, "duration": 231, "velocity": 85}, {"time": 62882, "pitch": 42, "duration": 240, "velocity": 100}, {"time": 62892, "pitch": 49, "duration": 230, "velocity": 90}, {"time": 63122, "pitch": 42, "duration": 241, "velocity": 95}, {"time": 63132, "pitch": 49, "duration": 231, "velocity": 85}, {"time": 63363, "pitch": 42, "duration": 217, "velocity": 90}, {"time": 63373, "pitch": 49, "duration": 216, "velocity": 80}, {"time": 63599, "pitch": 56, "duration": 708, "velocity": 100}, {"time": 64317, "pitch": 55, "duration": 231, "velocity": 95}, {"time": 64558, "pitch": 54, "duration": 472, "velocity": 100}, {"time": 65040, "pitch": 53, "duration": 471, "velocity": 95}, {"time": 65521, "pitch": 52, "duration": 472, "velocity": 100}, {"time": 66003, "pitch": 51, "duration": 231, "velocity": 95}, {"time": 66244, "pitch": 50, "duration": 703, "velocity": 100}, {"time": 66957, "pitch": 47, "duration": 713, "velocity": 100}, {"time": 68161, "pitch": 59, "duration": 221, "velocity": 95}, {"time": 68171, "pitch": 64, "duration": 221, "velocity": 100}, {"time": 68879, "pitch": 59, "duration": 217, "velocity": 95}, {"time": 68889, "pitch": 64, "duration": 216, "velocity": 100}, {"time": 70079, "pitch": 59, "duration": 220, "velocity": 95}, {"time": 70089, "pitch": 63, "duration": 221, "velocity": 100}, {"time": 70801, "pitch": 59, "duration": 221, "velocity": 95}, {"time": 70811, "pitch": 63, "duration": 221, "velocity": 100}, {"time": 71996, "pitch": 57, "duration": 221, "velocity": 95}, {"time": 72006, "pitch": 62, "duration": 221, "velocity": 100}, {"time": 72719, "pitch": 57, "duration": 220, "velocity": 95}, {"time": 72729, "pitch": 62, "duration": 220, "velocity": 100}, {"time": 73923, "pitch": 56, "duration": 221, "velocity": 95}, {"time": 73933, "pitch": 61, "duration": 221, "velocity": 100}, {"time": 74641, "pitch": 56, "duration": 216, "velocity": 95}, {"time": 74651, "pitch": 61, "duration": 216, "velocity": 100}, {"time": 75840, "pitch": 49, "duration": 221, "velocity": 95}, {"time": 75850, "pitch": 54, "duration": 221, "velocity": 100}, {"time": 76563, "pitch": 49, "duration": 221, "velocity": 95}, {"time": 76573, "pitch": 54, "duration": 221, "velocity": 100}, {"time": 77758, "pitch": 51, "duration": 220, "velocity": 95}, {"time": 77768, "pitch": 56, "duration": 220, "velocity": 100}, {"time": 78480, "pitch": 51, "duration": 221, "velocity": 95}, {"time": 78490, "pitch": 56, "duration": 221, "velocity": 100}, {"time": 79685, "pitch": 52, "duration": 216, "velocity": 95}, {"time": 79694, "pitch": 57, "duration": 217, "velocity": 100}, {"time": 80397, "pitch": 52, "duration": 221, "velocity": 95}, {"time": 80408, "pitch": 57, "duration": 220, "velocity": 100}, {"time": 81120, "pitch": 47, "duration": 241, "velocity": 100}, {"time": 81361, "pitch": 47, "duration": 241, "velocity": 95}, {"time": 81602, "pitch": 47, "duration": 241, "velocity": 100}, {"time": 81843, "pitch": 47, "duration": 241, "velocity": 95}, {"time": 82084, "pitch": 47, "duration": 236, "velocity": 100}, {"time": 82320, "pitch": 47, "duration": 236, "velocity": 95}, {"time": 82556, "pitch": 47, "duration": 240, "velocity": 100}, {"time": 82796, "pitch": 47, "duration": 231, "velocity": 95}, {"time": 83037, "pitch": 52, "duration": 221, "velocity": 95}, {"time": 83278, "pitch": 52, "duration": 221, "velocity": 90}, {"time": 83519, "pitch": 59, "duration": 221, "velocity": 95}, {"time": 83529, "pitch": 64, "duration": 221, "velocity": 100}, {"time": 84242, "pitch": 59, "duration": 221, "velocity": 95}, {"time": 84252, "pitch": 64, "duration": 221, "velocity": 100}, {"time": 85436, "pitch": 59, "duration": 221, "velocity": 95}, {"time": 85446, "pitch": 63, "duration": 221, "velocity": 100}, {"time": 86159, "pitch": 59, "duration": 221, "velocity": 95}, {"time": 86169, "pitch": 63, "duration": 221, "velocity": 100}, {"time": 87363, "pitch": 57, "duration": 217, "velocity": 95}, {"time": 87373, "pitch": 62, "duration": 217, "velocity": 100}, {"time": 88076, "pitch": 57, "duration": 221, "velocity": 95}, {"time": 88086, "pitch": 62, "duration": 221, "velocity": 100}, {"time": 89281, "pitch": 56, "duration": 221, "velocity": 95}, {"time": 89291, "pitch": 61, "duration": 221, "velocity": 100}, {"time": 90003, "pitch": 56, "duration": 221, "velocity": 95}, {"time": 90013, "pitch": 61, "duration": 221, "velocity": 100}, {"time": 91198, "pitch": 49, "duration": 221, "velocity": 95}, {"time": 91208, "pitch": 54, "duration": 221, "velocity": 100}, {"time": 91921, "pitch": 49, "duration": 220, "velocity": 95}, {"time": 91931, "pitch": 54, "duration": 221, "velocity": 100}, {"time": 93115, "pitch": 51, "duration": 221, "velocity": 95}, {"time": 93125, "pitch": 56, "duration": 221, "velocity": 100}, {"time": 93838, "pitch": 51, "duration": 221, "velocity": 95}, {"time": 93848, "pitch": 56, "duration": 221, "velocity": 100}, {"time": 95042, "pitch": 52, "duration": 221, "velocity": 95}, {"time": 95052, "pitch": 57, "duration": 221, "velocity": 100}, {"time": 95760, "pitch": 52, "duration": 216, "velocity": 95}, {"time": 95770, "pitch": 57, "duration": 216, "velocity": 100}, {"time": 96478, "pitch": 47, "duration": 241, "velocity": 100}, {"time": 96719, "pitch": 47, "duration": 241, "velocity": 95}, {"time": 96960, "pitch": 47, "duration": 241, "velocity": 100}, {"time": 97201, "pitch": 47, "duration": 240, "velocity": 95}, {"time": 97441, "pitch": 47, "duration": 241, "velocity": 100}, {"time": 97682, "pitch": 47, "duration": 241, "velocity": 95}, {"time": 97923, "pitch": 47, "duration": 236, "velocity": 100}, {"time": 98159, "pitch": 47, "duration": 226, "velocity": 95}, {"time": 98877, "pitch": 59, "duration": 221, "velocity": 95}, {"time": 98887, "pitch": 64, "duration": 221, "velocity": 100}, {"time": 99600, "pitch": 59, "duration": 220, "velocity": 95}, {"time": 99610, "pitch": 64, "duration": 220, "velocity": 100}, {"time": 100322, "pitch": 50, "duration": 698, "velocity": 100}, {"time": 100322, "pitch": 57, "duration": 698, "velocity": 95}, {"time": 100332, "pitch": 62, "duration": 698, "velocity": 90}, {"time": 101040, "pitch": 44, "duration": 477, "velocity": 100}, {"time": 101040, "pitch": 51, "duration": 477, "velocity": 95}, {"time": 101050, "pitch": 56, "duration": 467, "velocity": 90}, {"time": 101517, "pitch": 44, "duration": 241, "velocity": 95}, {"time": 101517, "pitch": 51, "duration": 241, "velocity": 90}, {"time": 101527, "pitch": 56, "duration": 231, "velocity": 85}, {"time": 101758, "pitch": 44, "duration": 241, "velocity": 100}, {"time": 101758, "pitch": 51, "duration": 241, "velocity": 95}, {"time": 101768, "pitch": 56, "duration": 231, "velocity": 90}, {"time": 101999, "pitch": 44, "duration": 240, "velocity": 90}, {"time": 101999, "pitch": 51, "duration": 240, "velocity": 85}, {"time": 102009, "pitch": 56, "duration": 230, "velocity": 80}, {"time": 102239, "pitch": 49, "duration": 241, "velocity": 85}, {"time": 102239, "pitch": 56, "duration": 241, "velocity": 90}, {"time": 102249, "pitch": 61, "duration": 231, "velocity": 95}, {"time": 102480, "pitch": 49, "duration": 241, "velocity": 75}, {"time": 102480, "pitch": 56, "duration": 241, "velocity": 80}, {"time": 102490, "pitch": 61, "duration": 231, "velocity": 85}, {"time": 102721, "pitch": 49, "duration": 241, "velocity": 90}, {"time": 102721, "pitch": 56, "duration": 241, "velocity": 95}, {"time": 102731, "pitch": 61, "duration": 231, "velocity": 100}, {"time": 102962, "pitch": 49, "duration": 241, "velocity": 80}, {"time": 102962, "pitch": 56, "duration": 241, "velocity": 85}, {"time": 102972, "pitch": 61, "duration": 231, "velocity": 90}, {"time": 103203, "pitch": 49, "duration": 241, "velocity": 75}, {"time": 103203, "pitch": 56, "duration": 241, "velocity": 80}, {"time": 103213, "pitch": 61, "duration": 231, "velocity": 85}, {"time": 103444, "pitch": 49, "duration": 241, "velocity": 90}, {"time": 103444, "pitch": 56, "duration": 241, "velocity": 95}, {"time": 103454, "pitch": 61, "duration": 231, "velocity": 100}, {"time": 103685, "pitch": 49, "duration": 236, "velocity": 75}, {"time": 103685, "pitch": 56, "duration": 236, "velocity": 80}, {"time": 103694, "pitch": 61, "duration": 227, "velocity": 85}, {"time": 103921, "pitch": 49, "duration": 118, "velocity": 80}, {"time": 103921, "pitch": 56, "duration": 118, "velocity": 85}, {"time": 103931, "pitch": 61, "duration": 108, "velocity": 90}, {"time": 104039, "pitch": 56, "duration": 118, "velocity": 80}, {"time": 104039, "pitch": 61, "duration": 118, "velocity": 85}, {"time": 104049, "pitch": 49, "duration": 108, "velocity": 75}, {"time": 104157, "pitch": 49, "duration": 241, "velocity": 80}, {"time": 104157, "pitch": 56, "duration": 241, "velocity": 85}, {"time": 104167, "pitch": 61, "duration": 231, "velocity": 90}, {"time": 104398, "pitch": 49, "duration": 240, "velocity": 90}, {"time": 104398, "pitch": 56, "duration": 240, "velocity": 95}, {"time": 104408, "pitch": 61, "duration": 230, "velocity": 100}, {"time": 104638, "pitch": 49, "duration": 241, "velocity": 85}, {"time": 104638, "pitch": 56, "duration": 241, "velocity": 90}, {"time": 104649, "pitch": 61, "duration": 230, "velocity": 95}, {"time": 104879, "pitch": 49, "duration": 241, "velocity": 80}, {"time": 104879, "pitch": 56, "duration": 241, "velocity": 85}, {"time": 104889, "pitch": 61, "duration": 231, "velocity": 90}, {"time": 105120, "pitch": 49, "duration": 241, "velocity": 90}, {"time": 105120, "pitch": 56, "duration": 241, "velocity": 95}, {"time": 105130, "pitch": 61, "duration": 231, "velocity": 100}, {"time": 105361, "pitch": 49, "duration": 241, "velocity": 85}, {"time": 105361, "pitch": 56, "duration": 241, "velocity": 90}, {"time": 105371, "pitch": 61, "duration": 231, "velocity": 95}, {"time": 105602, "pitch": 49, "duration": 241, "velocity": 90}, {"time": 105602, "pitch": 56, "duration": 241, "velocity": 95}, {"time": 105612, "pitch": 61, "duration": 231, "velocity": 100}, {"time": 105843, "pitch": 49, "duration": 241, "velocity": 80}, {"time": 105843, "pitch": 56, "duration": 241, "velocity": 85}, {"time": 105853, "pitch": 61, "duration": 231, "velocity": 90}, {"time": 106084, "pitch": 42, "duration": 236, "velocity": 85}, {"time": 106084, "pitch": 49, "duration": 236, "velocity": 90}, {"time": 106094, "pitch": 54, "duration": 226, "velocity": 95}, {"time": 106320, "pitch": 42, "duration": 236, "velocity": 75}, {"time": 106320, "pitch": 49, "duration": 236, "velocity": 80}, {"time": 106330, "pitch": 54, "duration": 226, "velocity": 85}, {"time": 106556, "pitch": 42, "duration": 241, "velocity": 90}, {"time": 106556, "pitch": 49, "duration": 241, "velocity": 95}, {"time": 106566, "pitch": 54, "duration": 231, "velocity": 100}, {"time": 106797, "pitch": 42, "duration": 241, "velocity": 80}, {"time": 106797, "pitch": 49, "duration": 241, "velocity": 85}, {"time": 106807, "pitch": 54, "duration": 231, "velocity": 90}, {"time": 107038, "pitch": 42, "duration": 240, "velocity": 75}, {"time": 107038, "pitch": 49, "duration": 240, "velocity": 80}, {"time": 107048, "pitch": 54, "duration": 230, "velocity": 85}, {"time": 107278, "pitch": 49, "duration": 241, "velocity": 90}, {"time": 107278, "pitch": 54, "duration": 241, "velocity": 95}, {"time": 107288, "pitch": 57, "duration": 231, "velocity": 100}, {"time": 107519, "pitch": 42, "duration": 241, "velocity": 75}, {"time": 107519, "pitch": 49, "duration": 241, "velocity": 80}, {"time": 107529, "pitch": 54, "duration": 231, "velocity": 85}, {"time": 107760, "pitch": 42, "duration": 121, "velocity": 80}, {"time": 107760, "pitch": 49, "duration": 121, "velocity": 85}, {"time": 107770, "pitch": 54, "duration": 111, "velocity": 90}, {"time": 107881, "pitch": 49, "duration": 120, "velocity": 80}, {"time": 107881, "pitch": 54, "duration": 120, "velocity": 85}, {"time": 107891, "pitch": 42, "duration": 110, "velocity": 75}, {"time": 108001, "pitch": 57, "duration": 241, "velocity": 100}, {"time": 108242, "pitch": 54, "duration": 241, "velocity": 90}, {"time": 108483, "pitch": 42, "duration": 241, "velocity": 80}, {"time": 108724, "pitch": 49, "duration": 130, "velocity": 80}, {"time": 108734, "pitch": 54, "duration": 110, "velocity": 85}, {"time": 108844, "pitch": 54, "duration": 121, "velocity": 85}, {"time": 108844, "pitch": 57, "duration": 121, "velocity": 90}, {"time": 108854, "pitch": 49, "duration": 111, "velocity": 80}, {"time": 108965, "pitch": 42, "duration": 236, "velocity": 90}, {"time": 108974, "pitch": 49, "duration": 227, "velocity": 95}, {"time": 109201, "pitch": 54, "duration": 236, "velocity": 100}, {"time": 109437, "pitch": 57, "duration": 240, "velocity": 105}, {"time": 109677, "pitch": 54, "duration": 241, "velocity": 95}, {"time": 109918, "pitch": 44, "duration": 482, "velocity": 100}, {"time": 109918, "pitch": 51, "duration": 482, "velocity": 95}, {"time": 109928, "pitch": 56, "duration": 472, "velocity": 90}, {"time": 110400, "pitch": 51, "duration": 241, "velocity": 85}, {"time": 110400, "pitch": 56, "duration": 241, "velocity": 90}, {"time": 110410, "pitch": 59, "duration": 231, "velocity": 95}, {"time": 110641, "pitch": 51, "duration": 482, "velocity": 90}, {"time": 110641, "pitch": 56, "duration": 482, "velocity": 95}, {"time": 110651, "pitch": 59, "duration": 472, "velocity": 100}, {"time": 111123, "pitch": 44, "duration": 241, "velocity": 95}, {"time": 111123, "pitch": 51, "duration": 241, "velocity": 90}, {"time": 111133, "pitch": 56, "duration": 231, "velocity": 85}, {"time": 111364, "pitch": 51, "duration": 236, "velocity": 90}, {"time": 111364, "pitch": 56, "duration": 236, "velocity": 95}, {"time": 111373, "pitch": 59, "duration": 227, "velocity": 100}, {"time": 111600, "pitch": 44, "duration": 226, "velocity": 90}, {"time": 111600, "pitch": 51, "duration": 226, "velocity": 85}, {"time": 111609, "pitch": 56, "duration": 227, "velocity": 80}, {"time": 111836, "pitch": 44, "duration": 240, "velocity": 95}, {"time": 111836, "pitch": 51, "duration": 240, "velocity": 90}, {"time": 111846, "pitch": 56, "duration": 230, "velocity": 85}, {"time": 112076, "pitch": 51, "duration": 241, "velocity": 90}, {"time": 112076, "pitch": 56, "duration": 241, "velocity": 95}, {"time": 112087, "pitch": 59, "duration": 230, "velocity": 100}, {"time": 112317, "pitch": 44, "duration": 241, "velocity": 95}, {"time": 112317, "pitch": 51, "duration": 241, "velocity": 90}, {"time": 112327, "pitch": 56, "duration": 231, "velocity": 85}, {"time": 112558, "pitch": 44, "duration": 241, "velocity": 90}, {"time": 112558, "pitch": 51, "duration": 241, "velocity": 85}, {"time": 112568, "pitch": 56, "duration": 231, "velocity": 80}, {"time": 112799, "pitch": 51, "duration": 241, "velocity": 90}, {"time": 112799, "pitch": 56, "duration": 241, "velocity": 95}, {"time": 112809, "pitch": 59, "duration": 231, "velocity": 100}, {"time": 113040, "pitch": 44, "duration": 241, "velocity": 90}, {"time": 113040, "pitch": 51, "duration": 241, "velocity": 85}, {"time": 113050, "pitch": 56, "duration": 231, "velocity": 80}, {"time": 113281, "pitch": 51, "duration": 241, "velocity": 90}, {"time": 113281, "pitch": 56, "duration": 241, "velocity": 95}, {"time": 113291, "pitch": 59, "duration": 231, "velocity": 100}, {"time": 113522, "pitch": 44, "duration": 231, "velocity": 90}, {"time": 113522, "pitch": 51, "duration": 231, "velocity": 85}, {"time": 113532, "pitch": 56, "duration": 231, "velocity": 80}, {"time": 113763, "pitch": 45, "duration": 241, "velocity": 95}, {"time": 113773, "pitch": 52, "duration": 231, "velocity": 90}, {"time": 114004, "pitch": 45, "duration": 240, "velocity": 90}, {"time": 114014, "pitch": 52, "duration": 230, "velocity": 85}, {"time": 114244, "pitch": 52, "duration": 472, "velocity": 90}, {"time": 114244, "pitch": 56, "duration": 472, "velocity": 95}, {"time": 114254, "pitch": 61, "duration": 462, "velocity": 100}, {"time": 114716, "pitch": 45, "duration": 241, "velocity": 95}, {"time": 114716, "pitch": 52, "duration": 241, "velocity": 90}, {"time": 114726, "pitch": 56, "duration": 231, "velocity": 85}, {"time": 114957, "pitch": 45, "duration": 241, "velocity": 90}, {"time": 114957, "pitch": 52, "duration": 241, "velocity": 85}, {"time": 114967, "pitch": 56, "duration": 231, "velocity": 80}, {"time": 115198, "pitch": 52, "duration": 241, "velocity": 90}, {"time": 115198, "pitch": 56, "duration": 241, "velocity": 95}, {"time": 115208, "pitch": 61, "duration": 231, "velocity": 100}, {"time": 115439, "pitch": 45, "duration": 231, "velocity": 95}, {"time": 115439, "pitch": 52, "duration": 231, "velocity": 90}, {"time": 115449, "pitch": 56, "duration": 231, "velocity": 85}, {"time": 115680, "pitch": 44, "duration": 1897, "velocity": 100}, {"time": 115680, "pitch": 51, "duration": 1897, "velocity": 95}, {"time": 115680, "pitch": 56, "duration": 1897, "velocity": 90}, {"time": 115690, "pitch": 60, "duration": 1897, "velocity": 85}, {"time": 118079, "pitch": 49, "duration": 241, "velocity": 95}, {"time": 118079, "pitch": 56, "duration": 241, "velocity": 90}, {"time": 118089, "pitch": 61, "duration": 231, "velocity": 85}, {"time": 118320, "pitch": 49, "duration": 482, "velocity": 100}, {"time": 118320, "pitch": 56, "duration": 482, "velocity": 95}, {"time": 118330, "pitch": 61, "duration": 472, "velocity": 90}, {"time": 118802, "pitch": 49, "duration": 241, "velocity": 95}, {"time": 118812, "pitch": 56, "duration": 231, "velocity": 90}, {"time": 119043, "pitch": 49, "duration": 240, "velocity": 100}, {"time": 119053, "pitch": 56, "duration": 230, "velocity": 95}, {"time": 119283, "pitch": 49, "duration": 231, "velocity": 90}, {"time": 119293, "pitch": 56, "duration": 231, "velocity": 85}, {"time": 119524, "pitch": 49, "duration": 217, "velocity": 100}, {"time": 119534, "pitch": 56, "duration": 216, "velocity": 90}, {"time": 119760, "pitch": 61, "duration": 236, "velocity": 95}, {"time": 119996, "pitch": 59, "duration": 241, "velocity": 100}, {"time": 120237, "pitch": 61, "duration": 1184, "velocity": 105}, {"time": 121442, "pitch": 42, "duration": 240, "velocity": 95}, {"time": 121442, "pitch": 49, "duration": 240, "velocity": 90}, {"time": 121452, "pitch": 54, "duration": 230, "velocity": 85}, {"time": 121682, "pitch": 42, "duration": 241, "velocity": 90}, {"time": 121682, "pitch": 49, "duration": 241, "velocity": 85}, {"time": 121692, "pitch": 54, "duration": 231, "velocity": 80}, {"time": 121923, "pitch": 54, "duration": 236, "velocity": 90}, {"time": 121923, "pitch": 57, "duration": 236, "velocity": 95}, {"time": 121933, "pitch": 61, "duration": 226, "velocity": 100}, {"time": 122159, "pitch": 42, "duration": 236, "velocity": 95}, {"time": 122159, "pitch": 49, "duration": 236, "velocity": 90}, {"time": 122169, "pitch": 54, "duration": 226, "velocity": 85}, {"time": 122395, "pitch": 42, "duration": 241, "velocity": 90}, {"time": 122395, "pitch": 49, "duration": 241, "velocity": 85}, {"time": 122405, "pitch": 54, "duration": 231, "velocity": 80}, {"time": 122636, "pitch": 54, "duration": 241, "velocity": 90}, {"time": 122636, "pitch": 57, "duration": 241, "velocity": 95}, {"time": 122646, "pitch": 61, "duration": 231, "velocity": 100}, {"time": 122877, "pitch": 42, "duration": 241, "velocity": 95}, {"time": 122877, "pitch": 49, "duration": 241, "velocity": 90}, {"time": 122887, "pitch": 54, "duration": 231, "velocity": 85}, {"time": 123118, "pitch": 42, "duration": 241, "velocity": 90}, {"time": 123118, "pitch": 49, "duration": 241, "velocity": 85}, {"time": 123128, "pitch": 54, "duration": 231, "velocity": 80}, {"time": 123359, "pitch": 57, "duration": 241, "velocity": 100}, {"time": 123600, "pitch": 54, "duration": 241, "velocity": 90}, {"time": 123841, "pitch": 59, "duration": 240, "velocity": 95}, {"time": 124081, "pitch": 57, "duration": 723, "velocity": 100}, {"time": 124804, "pitch": 54, "duration": 236, "velocity": 95}, {"time": 125040, "pitch": 57, "duration": 236, "velocity": 90}, {"time": 125276, "pitch": 56, "duration": 281, "velocity": 100}, {"time": 125758, "pitch": 63, "duration": 241, "velocity": 95}, {"time": 125999, "pitch": 51, "duration": 1194, "velocity": 80}, {"time": 126009, "pitch": 56, "duration": 1184, "velocity": 100}, {"time": 126480, "pitch": 59, "duration": 713, "velocity": 95}, {"time": 127203, "pitch": 56, "duration": 236, "velocity": 90}, {"time": 127203, "pitch": 59, "duration": 472, "velocity": 95}, {"time": 127213, "pitch": 64, "duration": 462, "velocity": 100}, {"time": 127439, "pitch": 49, "duration": 236, "velocity": 90}, {"time": 127449, "pitch": 56, "duration": 226, "velocity": 85}, {"time": 127675, "pitch": 56, "duration": 241, "velocity": 85}, {"time": 127675, "pitch": 59, "duration": 241, "velocity": 90}, {"time": 127685, "pitch": 64, "duration": 231, "velocity": 95}, {"time": 127916, "pitch": 56, "duration": 723, "velocity": 80}, {"time": 127916, "pitch": 59, "duration": 482, "velocity": 90}, {"time": 127926, "pitch": 64, "duration": 954, "velocity": 100}, {"time": 128398, "pitch": 59, "duration": 712, "velocity": 95}, {"time": 128639, "pitch": 56, "duration": 471, "velocity": 90}, {"time": 128880, "pitch": 64, "duration": 230, "velocity": 95}, {"time": 129120, "pitch": 50, "duration": 241, "velocity": 100}, {"time": 129120, "pitch": 57, "duration": 241, "velocity": 95}, {"time": 129130, "pitch": 62, "duration": 231, "velocity": 90}, {"time": 129361, "pitch": 50, "duration": 241, "velocity": 95}, {"time": 129361, "pitch": 57, "duration": 241, "velocity": 90}, {"time": 129371, "pitch": 62, "duration": 231, "velocity": 85}, {"time": 129602, "pitch": 50, "duration": 241, "velocity": 100}, {"time": 129602, "pitch": 57, "duration": 241, "velocity": 95}, {"time": 129612, "pitch": 62, "duration": 231, "velocity": 90}, {"time": 129843, "pitch": 50, "duration": 241, "velocity": 95}, {"time": 129843, "pitch": 57, "duration": 241, "velocity": 90}, {"time": 129853, "pitch": 62, "duration": 231, "velocity": 85}, {"time": 130084, "pitch": 50, "duration": 236, "velocity": 100}, {"time": 130084, "pitch": 57, "duration": 236, "velocity": 95}, {"time": 130094, "pitch": 62, "duration": 226, "velocity": 90}, {"time": 130320, "pitch": 50, "duration": 236, "velocity": 95}, {"time": 130320, "pitch": 57, "duration": 236, "velocity": 90}, {"time": 130330, "pitch": 62, "duration": 226, "velocity": 85}, {"time": 130556, "pitch": 50, "duration": 241, "velocity": 100}, {"time": 130556, "pitch": 57, "duration": 241, "velocity": 95}, {"time": 130566, "pitch": 62, "duration": 231, "velocity": 90}, {"time": 130797, "pitch": 50, "duration": 241, "velocity": 95}, {"time": 130797, "pitch": 57, "duration": 241, "velocity": 90}, {"time": 130807, "pitch": 62, "duration": 231, "velocity": 85}, {"time": 131038, "pitch": 44, "duration": 241, "velocity": 100}, {"time": 131038, "pitch": 51, "duration": 241, "velocity": 95}, {"time": 131048, "pitch": 56, "duration": 231, "velocity": 90}, {"time": 131279, "pitch": 44, "duration": 240, "velocity": 95}, {"time": 131279, "pitch": 51, "duration": 240, "velocity": 90}, {"time": 131289, "pitch": 56, "duration": 230, "velocity": 85}, {"time": 131519, "pitch": 44, "duration": 241, "velocity": 100}, {"time": 131519, "pitch": 51, "duration": 241, "velocity": 95}, {"time": 131529, "pitch": 56, "duration": 231, "velocity": 90}, {"time": 131760, "pitch": 44, "duration": 241, "velocity": 95}, {"time": 131760, "pitch": 51, "duration": 241, "velocity": 90}, {"time": 131770, "pitch": 56, "duration": 231, "velocity": 85}, {"time": 132001, "pitch": 44, "duration": 241, "velocity": 100}, {"time": 132001, "pitch": 51, "duration": 241, "velocity": 95}, {"time": 132011, "pitch": 56, "duration": 231, "velocity": 90}, {"time": 132242, "pitch": 44, "duration": 241, "velocity": 95}, {"time": 132242, "pitch": 51, "duration": 241, "velocity": 90}, {"time": 132252, "pitch": 56, "duration": 231, "velocity": 85}, {"time": 132483, "pitch": 44, "duration": 241, "velocity": 100}, {"time": 132483, "pitch": 51, "duration": 241, "velocity": 95}, {"time": 132493, "pitch": 56, "duration": 231, "velocity": 90}, {"time": 132724, "pitch": 44, "duration": 241, "velocity": 95}, {"time": 132724, "pitch": 51, "duration": 241, "velocity": 90}, {"time": 132734, "pitch": 56, "duration": 231, "velocity": 85}, {"time": 132965, "pitch": 45, "duration": 236, "velocity": 100}, {"time": 132974, "pitch": 52, "duration": 227, "velocity": 95}, {"time": 133201, "pitch": 45, "duration": 236, "velocity": 95}, {"time": 133211, "pitch": 52, "duration": 226, "velocity": 90}, {"time": 133437, "pitch": 45, "duration": 241, "velocity": 100}, {"time": 133447, "pitch": 52, "duration": 231, "velocity": 95}, {"time": 133678, "pitch": 45, "duration": 240, "velocity": 95}, {"time": 133688, "pitch": 52, "duration": 230, "velocity": 90}, {"time": 133918, "pitch": 45, "duration": 241, "velocity": 100}, {"time": 133929, "pitch": 52, "duration": 230, "velocity": 95}, {"time": 134159, "pitch": 45, "duration": 241, "velocity": 95}, {"time": 134169, "pitch": 52, "duration": 231, "velocity": 90}, {"time": 134400, "pitch": 45, "duration": 241, "velocity": 100}, {"time": 134410, "pitch": 52, "duration": 231, "velocity": 95}, {"time": 134641, "pitch": 45, "duration": 241, "velocity": 95}, {"time": 134651, "pitch": 52, "duration": 231, "velocity": 90}, {"time": 134882, "pitch": 47, "duration": 241, "velocity": 100}, {"time": 134892, "pitch": 54, "duration": 231, "velocity": 95}, {"time": 135123, "pitch": 47, "duration": 241, "velocity": 95}, {"time": 135133, "pitch": 54, "duration": 231, "velocity": 90}, {"time": 135364, "pitch": 47, "duration": 236, "velocity": 100}, {"time": 135374, "pitch": 54, "duration": 226, "velocity": 95}, {"time": 135600, "pitch": 47, "duration": 236, "velocity": 95}, {"time": 135610, "pitch": 54, "duration": 226, "velocity": 90}, {"time": 135836, "pitch": 47, "duration": 241, "velocity": 100}, {"time": 135846, "pitch": 54, "duration": 231, "velocity": 95}, {"time": 136077, "pitch": 47, "duration": 241, "velocity": 95}, {"time": 136087, "pitch": 54, "duration": 231, "velocity": 90}, {"time": 136318, "pitch": 47, "duration": 240, "velocity": 100}, {"time": 136328, "pitch": 54, "duration": 230, "velocity": 95}, {"time": 136558, "pitch": 47, "duration": 241, "velocity": 95}, {"time": 136568, "pitch": 54, "duration": 231, "velocity": 90}, {"time": 136799, "pitch": 48, "duration": 241, "velocity": 100}, {"time": 137040, "pitch": 48, "duration": 241, "velocity": 95}, {"time": 137281, "pitch": 48, "duration": 241, "velocity": 100}, {"time": 137522, "pitch": 48, "duration": 241, "velocity": 95}, {"time": 137763, "pitch": 48, "duration": 241, "velocity": 100}, {"time": 138004, "pitch": 48, "duration": 240, "velocity": 95}, {"time": 138244, "pitch": 48, "duration": 237, "velocity": 100}, {"time": 138481, "pitch": 48, "duration": 236, "velocity": 95}, {"time": 138717, "pitch": 49, "duration": 240, "velocity": 100}, {"time": 138957, "pitch": 49, "duration": 241, "velocity": 95}, {"time": 139198, "pitch": 49, "duration": 241, "velocity": 100}, {"time": 139439, "pitch": 49, "duration": 241, "velocity": 95}, {"time": 139680, "pitch": 49, "duration": 241, "velocity": 100}, {"time": 139921, "pitch": 49, "duration": 241, "velocity": 95}, {"time": 140162, "pitch": 47, "duration": 241, "velocity": 100}, {"time": 140403, "pitch": 47, "duration": 241, "velocity": 95}, {"time": 140644, "pitch": 46, "duration": 236, "velocity": 100}, {"time": 140880, "pitch": 46, "duration": 236, "velocity": 95}, {"time": 141116, "pitch": 46, "duration": 240, "velocity": 100}, {"time": 141356, "pitch": 46, "duration": 241, "velocity": 95}, {"time": 141597, "pitch": 46, "duration": 241, "velocity": 100}, {"time": 141838, "pitch": 46, "duration": 241, "velocity": 95}, {"time": 142079, "pitch": 46, "duration": 241, "velocity": 100}, {"time": 142320, "pitch": 46, "duration": 241, "velocity": 95}, {"time": 142561, "pitch": 46, "duration": 241, "velocity": 100}, {"time": 142802, "pitch": 46, "duration": 241, "velocity": 95}, {"time": 143043, "pitch": 46, "duration": 241, "velocity": 100}, {"time": 143284, "pitch": 46, "duration": 240, "velocity": 95}, {"time": 143524, "pitch": 46, "duration": 236, "velocity": 100}, {"time": 143760, "pitch": 46, "duration": 236, "velocity": 95}, {"time": 143996, "pitch": 46, "duration": 241, "velocity": 100}, {"time": 144237, "pitch": 46, "duration": 241, "velocity": 95}, {"time": 144478, "pitch": 42, "duration": 241, "velocity": 100}, {"time": 144488, "pitch": 49, "duration": 231, "velocity": 90}, {"time": 144719, "pitch": 42, "duration": 241, "velocity": 95}, {"time": 144729, "pitch": 49, "duration": 231, "velocity": 85}, {"time": 144960, "pitch": 42, "duration": 241, "velocity": 100}, {"time": 144970, "pitch": 49, "duration": 231, "velocity": 90}, {"time": 145201, "pitch": 42, "duration": 241, "velocity": 95}, {"time": 145211, "pitch": 49, "duration": 231, "velocity": 85}, {"time": 145442, "pitch": 42, "duration": 241, "velocity": 100}, {"time": 145452, "pitch": 49, "duration": 231, "velocity": 90}, {"time": 145683, "pitch": 42, "duration": 240, "velocity": 95}, {"time": 145693, "pitch": 49, "duration": 230, "velocity": 85}, {"time": 145923, "pitch": 42, "duration": 217, "velocity": 90}, {"time": 145933, "pitch": 49, "duration": 217, "velocity": 80}, {"time": 146159, "pitch": 56, "duration": 708, "velocity": 100}, {"time": 146877, "pitch": 55, "duration": 231, "velocity": 95}, {"time": 147118, "pitch": 54, "duration": 472, "velocity": 100}, {"time": 147600, "pitch": 53, "duration": 472, "velocity": 95}, {"time": 148082, "pitch": 52, "duration": 471, "velocity": 100}, {"time": 148563, "pitch": 51, "duration": 231, "velocity": 95}, {"time": 148804, "pitch": 50, "duration": 703, "velocity": 100}, {"time": 149517, "pitch": 47, "duration": 703, "velocity": 85}, {"time": 149517, "pitch": 54, "duration": 703, "velocity": 90}, {"time": 149527, "pitch": 59, "duration": 703, "velocity": 95}, {"time": 150722, "pitch": 59, "duration": 220, "velocity": 95}, {"time": 150732, "pitch": 64, "duration": 220, "velocity": 100}, {"time": 151439, "pitch": 59, "duration": 217, "velocity": 95}, {"time": 151449, "pitch": 64, "duration": 217, "velocity": 100}, {"time": 152639, "pitch": 59, "duration": 221, "velocity": 95}, {"time": 152649, "pitch": 63, "duration": 221, "velocity": 100}, {"time": 153361, "pitch": 59, "duration": 221, "velocity": 95}, {"time": 153371, "pitch": 63, "duration": 221, "velocity": 100}, {"time": 154556, "pitch": 57, "duration": 221, "velocity": 95}, {"time": 154566, "pitch": 62, "duration": 221, "velocity": 100}, {"time": 155279, "pitch": 57, "duration": 221, "velocity": 95}, {"time": 155289, "pitch": 62, "duration": 221, "velocity": 100}, {"time": 156483, "pitch": 56, "duration": 221, "velocity": 95}, {"time": 156493, "pitch": 61, "duration": 221, "velocity": 100}, {"time": 157201, "pitch": 56, "duration": 216, "velocity": 95}, {"time": 157211, "pitch": 61, "duration": 216, "velocity": 100}, {"time": 158400, "pitch": 49, "duration": 221, "velocity": 95}, {"time": 158410, "pitch": 54, "duration": 221, "velocity": 100}, {"time": 159123, "pitch": 49, "duration": 221, "velocity": 95}, {"time": 159133, "pitch": 54, "duration": 221, "velocity": 100}, {"time": 160318, "pitch": 51, "duration": 220, "velocity": 95}, {"time": 160328, "pitch": 56, "duration": 221, "velocity": 100}, {"time": 161040, "pitch": 51, "duration": 221, "velocity": 95}, {"time": 161050, "pitch": 56, "duration": 221, "velocity": 100}, {"time": 162245, "pitch": 52, "duration": 216, "velocity": 95}, {"time": 162254, "pitch": 57, "duration": 217, "velocity": 100}, {"time": 162958, "pitch": 52, "duration": 220, "velocity": 95}, {"time": 162968, "pitch": 57, "duration": 220, "velocity": 100}, {"time": 163680, "pitch": 47, "duration": 241, "velocity": 100}, {"time": 163921, "pitch": 47, "duration": 241, "velocity": 95}, {"time": 164162, "pitch": 47, "duration": 241, "velocity": 100}, {"time": 164403, "pitch": 47, "duration": 241, "velocity": 95}, {"time": 164644, "pitch": 47, "duration": 236, "velocity": 100}, {"time": 164880, "pitch": 47, "duration": 236, "velocity": 95}, {"time": 165116, "pitch": 47, "duration": 241, "velocity": 100}, {"time": 165357, "pitch": 47, "duration": 230, "velocity": 95}, {"time": 165597, "pitch": 52, "duration": 221, "velocity": 95}, {"time": 165838, "pitch": 52, "duration": 221, "velocity": 90}, {"time": 166079, "pitch": 59, "duration": 221, "velocity": 95}, {"time": 166089, "pitch": 64, "duration": 221, "velocity": 100}, {"time": 166802, "pitch": 59, "duration": 221, "velocity": 95}, {"time": 166812, "pitch": 64, "duration": 221, "velocity": 100}, {"time": 167997, "pitch": 59, "duration": 220, "velocity": 95}, {"time": 168007, "pitch": 63, "duration": 220, "velocity": 100}, {"time": 168719, "pitch": 59, "duration": 221, "velocity": 95}, {"time": 168729, "pitch": 63, "duration": 221, "velocity": 100}, {"time": 169924, "pitch": 57, "duration": 216, "velocity": 95}, {"time": 169933, "pitch": 62, "duration": 217, "velocity": 100}, {"time": 170636, "pitch": 57, "duration": 221, "velocity": 95}, {"time": 170646, "pitch": 62, "duration": 221, "velocity": 100}, {"time": 171841, "pitch": 56, "duration": 221, "velocity": 95}, {"time": 171851, "pitch": 61, "duration": 221, "velocity": 100}, {"time": 172564, "pitch": 56, "duration": 220, "velocity": 95}, {"time": 172574, "pitch": 61, "duration": 220, "velocity": 100}, {"time": 173758, "pitch": 49, "duration": 221, "velocity": 95}, {"time": 173768, "pitch": 54, "duration": 221, "velocity": 100}, {"time": 174481, "pitch": 49, "duration": 221, "velocity": 95}, {"time": 174491, "pitch": 54, "duration": 221, "velocity": 100}, {"time": 175675, "pitch": 51, "duration": 221, "velocity": 95}, {"time": 175685, "pitch": 56, "duration": 221, "velocity": 100}, {"time": 176398, "pitch": 51, "duration": 221, "velocity": 95}, {"time": 176408, "pitch": 56, "duration": 221, "velocity": 100}, {"time": 177602, "pitch": 52, "duration": 221, "velocity": 95}, {"time": 177613, "pitch": 57, "duration": 220, "velocity": 100}, {"time": 178320, "pitch": 52, "duration": 217, "velocity": 95}, {"time": 178330, "pitch": 57, "duration": 216, "velocity": 100}, {"time": 179038, "pitch": 47, "duration": 241, "velocity": 100}, {"time": 179279, "pitch": 47, "duration": 241, "velocity": 95}, {"time": 179520, "pitch": 47, "duration": 241, "velocity": 100}, {"time": 179761, "pitch": 47, "duration": 241, "velocity": 95}, {"time": 180002, "pitch": 47, "duration": 240, "velocity": 100}, {"time": 180242, "pitch": 47, "duration": 241, "velocity": 95}, {"time": 180483, "pitch": 47, "duration": 236, "velocity": 100}, {"time": 180719, "pitch": 47, "duration": 99, "velocity": 85}, {"time": 180719, "pitch": 54, "duration": 99, "velocity": 90}, {"time": 180729, "pitch": 59, "duration": 98, "velocity": 95}, {"time": 180837, "pitch": 54, "duration": 99, "velocity": 85}, {"time": 180837, "pitch": 59, "duration": 99, "velocity": 90}, {"time": 180847, "pitch": 47, "duration": 98, "velocity": 80}, {"time": 180955, "pitch": 49, "duration": 121, "velocity": 100}, {"time": 180955, "pitch": 56, "duration": 121, "velocity": 85}, {"time": 180965, "pitch": 59, "duration": 111, "velocity": 90}, {"time": 181076, "pitch": 56, "duration": 120, "velocity": 75}, {"time": 181076, "pitch": 59, "duration": 120, "velocity": 80}, {"time": 181086, "pitch": 49, "duration": 110, "velocity": 90}, {"time": 181196, "pitch": 47, "duration": 241, "velocity": 95}, {"time": 181196, "pitch": 56, "duration": 241, "velocity": 80}, {"time": 181206, "pitch": 59, "duration": 231, "velocity": 85}, {"time": 181437, "pitch": 49, "duration": 241, "velocity": 100}, {"time": 181437, "pitch": 56, "duration": 241, "velocity": 85}, {"time": 181447, "pitch": 59, "duration": 231, "velocity": 90}, {"time": 181678, "pitch": 47, "duration": 241, "velocity": 95}, {"time": 181678, "pitch": 56, "duration": 241, "velocity": 80}, {"time": 181688, "pitch": 59, "duration": 231, "velocity": 85}, {"time": 181919, "pitch": 49, "duration": 120, "velocity": 100}, {"time": 181919, "pitch": 56, "duration": 120, "velocity": 85}, {"time": 181929, "pitch": 59, "duration": 110, "velocity": 90}, {"time": 182039, "pitch": 56, "duration": 121, "velocity": 75}, {"time": 182039, "pitch": 59, "duration": 121, "velocity": 80}, {"time": 182049, "pitch": 49, "duration": 111, "velocity": 90}, {"time": 182160, "pitch": 47, "duration": 241, "velocity": 95}, {"time": 182160, "pitch": 56, "duration": 241, "velocity": 80}, {"time": 182170, "pitch": 59, "duration": 231, "velocity": 85}, {"time": 182401, "pitch": 49, "duration": 240, "velocity": 100}, {"time": 182401, "pitch": 56, "duration": 240, "velocity": 85}, {"time": 182411, "pitch": 59, "duration": 230, "velocity": 90}, {"time": 182641, "pitch": 47, "duration": 231, "velocity": 95}, {"time": 182641, "pitch": 56, "duration": 231, "velocity": 80}, {"time": 182651, "pitch": 59, "duration": 231, "velocity": 85}, {"time": 182882, "pitch": 49, "duration": 121, "velocity": 100}, {"time": 182882, "pitch": 56, "duration": 121, "velocity": 85}, {"time": 182892, "pitch": 59, "duration": 111, "velocity": 90}, {"time": 183003, "pitch": 56, "duration": 120, "velocity": 75}, {"time": 183003, "pitch": 59, "duration": 120, "velocity": 80}, {"time": 183013, "pitch": 49, "duration": 110, "velocity": 90}, {"time": 183123, "pitch": 47, "duration": 241, "velocity": 95}, {"time": 183123, "pitch": 56, "duration": 241, "velocity": 80}, {"time": 183133, "pitch": 59, "duration": 231, "velocity": 85}, {"time": 183364, "pitch": 49, "duration": 236, "velocity": 100}, {"time": 183364, "pitch": 56, "duration": 236, "velocity": 85}, {"time": 183374, "pitch": 59, "duration": 226, "velocity": 90}, {"time": 183600, "pitch": 47, "duration": 236, "velocity": 95}, {"time": 183600, "pitch": 56, "duration": 236, "velocity": 80}, {"time": 183610, "pitch": 59, "duration": 226, "velocity": 85}, {"time": 183836, "pitch": 49, "duration": 120, "velocity": 100}, {"time": 183836, "pitch": 56, "duration": 120, "velocity": 85}, {"time": 183846, "pitch": 59, "duration": 110, "velocity": 90}, {"time": 183956, "pitch": 56, "duration": 121, "velocity": 75}, {"time": 183956, "pitch": 59, "duration": 121, "velocity": 80}, {"time": 183967, "pitch": 49, "duration": 110, "velocity": 90}, {"time": 184077, "pitch": 47, "duration": 241, "velocity": 95}, {"time": 184077, "pitch": 56, "duration": 241, "velocity": 80}, {"time": 184087, "pitch": 59, "duration": 231, "velocity": 85}, {"time": 184318, "pitch": 49, "duration": 241, "velocity": 100}, {"time": 184318, "pitch": 56, "duration": 241, "velocity": 85}, {"time": 184328, "pitch": 59, "duration": 231, "velocity": 90}, {"time": 184559, "pitch": 49, "duration": 231, "velocity": 95}, {"time": 184559, "pitch": 56, "duration": 231, "velocity": 80}, {"time": 184569, "pitch": 59, "duration": 231, "velocity": 85}, {"time": 184800, "pitch": 49, "duration": 120, "velocity": 100}, {"time": 184800, "pitch": 56, "duration": 120, "velocity": 85}, {"time": 184810, "pitch": 59, "duration": 110, "velocity": 90}, {"time": 184920, "pitch": 56, "duration": 120, "velocity": 75}, {"time": 184920, "pitch": 59, "duration": 120, "velocity": 80}, {"time": 184930, "pitch": 49, "duration": 110, "velocity": 90}, {"time": 185040, "pitch": 47, "duration": 241, "velocity": 95}, {"time": 185040, "pitch": 56, "duration": 241, "velocity": 80}, {"time": 185050, "pitch": 59, "duration": 231, "velocity": 85}, {"time": 185281, "pitch": 49, "duration": 241, "velocity": 100}, {"time": 185281, "pitch": 56, "duration": 241, "velocity": 85}, {"time": 185291, "pitch": 59, "duration": 231, "velocity": 90}, {"time": 185522, "pitch": 47, "duration": 241, "velocity": 95}, {"time": 185522, "pitch": 56, "duration": 241, "velocity": 80}, {"time": 185532, "pitch": 59, "duration": 231, "velocity": 85}, {"time": 185763, "pitch": 49, "duration": 121, "velocity": 100}, {"time": 185763, "pitch": 56, "duration": 121, "velocity": 85}, {"time": 185773, "pitch": 59, "duration": 111, "velocity": 90}, {"time": 185884, "pitch": 56, "duration": 120, "velocity": 75}, {"time": 185884, "pitch": 59, "duration": 120, "velocity": 80}, {"time": 185894, "pitch": 49, "duration": 110, "velocity": 90}, {"time": 186004, "pitch": 47, "duration": 241, "velocity": 95}, {"time": 186004, "pitch": 56, "duration": 241, "velocity": 80}, {"time": 186014, "pitch": 59, "duration": 231, "velocity": 85}, {"time": 186245, "pitch": 49, "duration": 236, "velocity": 100}, {"time": 186245, "pitch": 56, "duration": 236, "velocity": 85}, {"time": 186255, "pitch": 59, "duration": 226, "velocity": 90}, {"time": 186481, "pitch": 47, "duration": 226, "velocity": 95}, {"time": 186481, "pitch": 56, "duration": 226, "velocity": 80}, {"time": 186491, "pitch": 59, "duration": 226, "velocity": 85}, {"time": 186717, "pitch": 49, "duration": 120, "velocity": 100}, {"time": 186717, "pitch": 56, "duration": 120, "velocity": 85}, {"time": 186727, "pitch": 59, "duration": 110, "velocity": 90}, {"time": 186837, "pitch": 56, "duration": 121, "velocity": 75}, {"time": 186837, "pitch": 59, "duration": 121, "velocity": 80}, {"time": 186847, "pitch": 49, "duration": 111, "velocity": 90}, {"time": 186958, "pitch": 47, "duration": 241, "velocity": 95}, {"time": 186958, "pitch": 56, "duration": 241, "velocity": 80}, {"time": 186968, "pitch": 59, "duration": 231, "velocity": 85}, {"time": 187199, "pitch": 49, "duration": 240, "velocity": 100}, {"time": 187199, "pitch": 56, "duration": 240, "velocity": 85}, {"time": 187209, "pitch": 59, "duration": 230, "velocity": 90}, {"time": 187439, "pitch": 47, "duration": 241, "velocity": 95}, {"time": 187439, "pitch": 56, "duration": 241, "velocity": 80}, {"time": 187450, "pitch": 59, "duration": 230, "velocity": 85}, {"time": 187680, "pitch": 49, "duration": 121, "velocity": 100}, {"time": 187680, "pitch": 56, "duration": 121, "velocity": 85}, {"time": 187690, "pitch": 59, "duration": 111, "velocity": 90}, {"time": 187801, "pitch": 56, "duration": 120, "velocity": 75}, {"time": 187801, "pitch": 59, "duration": 120, "velocity": 80}, {"time": 187811, "pitch": 49, "duration": 110, "velocity": 90}, {"time": 187921, "pitch": 47, "duration": 241, "velocity": 95}, {"time": 187921, "pitch": 56, "duration": 241, "velocity": 80}, {"time": 187931, "pitch": 59, "duration": 231, "velocity": 85}, {"time": 188162, "pitch": 49, "duration": 241, "velocity": 100}, {"time": 188162, "pitch": 56, "duration": 241, "velocity": 85}, {"time": 188172, "pitch": 59, "duration": 231, "velocity": 90}, {"time": 188403, "pitch": 49, "duration": 231, "velocity": 95}, {"time": 188403, "pitch": 56, "duration": 231, "velocity": 80}, {"time": 188413, "pitch": 59, "duration": 231, "velocity": 85}, {"time": 188644, "pitch": 49, "duration": 118, "velocity": 100}, {"time": 188644, "pitch": 56, "duration": 118, "velocity": 85}, {"time": 188654, "pitch": 59, "duration": 108, "velocity": 90}, {"time": 188762, "pitch": 56, "duration": 118, "velocity": 75}, {"time": 188762, "pitch": 59, "duration": 118, "velocity": 80}, {"time": 188772, "pitch": 49, "duration": 108, "velocity": 90}, {"time": 188880, "pitch": 47, "duration": 236, "velocity": 95}, {"time": 188880, "pitch": 56, "duration": 236, "velocity": 80}, {"time": 188890, "pitch": 59, "duration": 226, "velocity": 85}, {"time": 189116, "pitch": 49, "duration": 241, "velocity": 100}, {"time": 189116, "pitch": 56, "duration": 241, "velocity": 85}, {"time": 189126, "pitch": 59, "duration": 231, "velocity": 90}, {"time": 189357, "pitch": 47, "duration": 241, "velocity": 95}, {"time": 189357, "pitch": 56, "duration": 241, "velocity": 80}, {"time": 189367, "pitch": 59, "duration": 231, "velocity": 85}, {"time": 189598, "pitch": 49, "duration": 120, "velocity": 100}, {"time": 189598, "pitch": 56, "duration": 120, "velocity": 85}, {"time": 189608, "pitch": 59, "duration": 110, "velocity": 90}, {"time": 189718, "pitch": 56, "duration": 121, "velocity": 75}, {"time": 189718, "pitch": 59, "duration": 121, "velocity": 80}, {"time": 189728, "pitch": 49, "duration": 111, "velocity": 90}, {"time": 189839, "pitch": 47, "duration": 240, "velocity": 95}, {"time": 189839, "pitch": 56, "duration": 240, "velocity": 80}, {"time": 189849, "pitch": 59, "duration": 230, "velocity": 85}, {"time": 190079, "pitch": 49, "duration": 241, "velocity": 100}, {"time": 190079, "pitch": 56, "duration": 241, "velocity": 85}, {"time": 190089, "pitch": 59, "duration": 231, "velocity": 90}, {"time": 190320, "pitch": 47, "duration": 231, "velocity": 95}, {"time": 190320, "pitch": 56, "duration": 231, "velocity": 80}, {"time": 190330, "pitch": 59, "duration": 231, "velocity": 85}, {"time": 190561, "pitch": 49, "duration": 121, "velocity": 100}, {"time": 190561, "pitch": 56, "duration": 121, "velocity": 85}, {"time": 190571, "pitch": 59, "duration": 111, "velocity": 90}, {"time": 190682, "pitch": 56, "duration": 120, "velocity": 75}, {"time": 190682, "pitch": 59, "duration": 120, "velocity": 80}, {"time": 190692, "pitch": 49, "duration": 110, "velocity": 90}, {"time": 190802, "pitch": 47, "duration": 241, "velocity": 95}, {"time": 190802, "pitch": 56, "duration": 241, "velocity": 80}, {"time": 190812, "pitch": 59, "duration": 231, "velocity": 85}, {"time": 191043, "pitch": 49, "duration": 241, "velocity": 100}, {"time": 191043, "pitch": 56, "duration": 241, "velocity": 85}, {"time": 191053, "pitch": 59, "duration": 231, "velocity": 90}, {"time": 191284, "pitch": 47, "duration": 241, "velocity": 95}, {"time": 191284, "pitch": 56, "duration": 241, "velocity": 80}, {"time": 191294, "pitch": 59, "duration": 231, "velocity": 85}, {"time": 191525, "pitch": 49, "duration": 118, "velocity": 100}, {"time": 191525, "pitch": 56, "duration": 118, "velocity": 85}, {"time": 191534, "pitch": 59, "duration": 109, "velocity": 90}, {"time": 191643, "pitch": 56, "duration": 118, "velocity": 75}, {"time": 191643, "pitch": 59, "duration": 118, "velocity": 80}, {"time": 191652, "pitch": 49, "duration": 109, "velocity": 90}, {"time": 191761, "pitch": 47, "duration": 236, "velocity": 95}, {"time": 191761, "pitch": 56, "duration": 236, "velocity": 80}, {"time": 191771, "pitch": 59, "duration": 226, "velocity": 85}, {"time": 191997, "pitch": 49, "duration": 241, "velocity": 100}, {"time": 191997, "pitch": 56, "duration": 241, "velocity": 85}, {"time": 192007, "pitch": 59, "duration": 231, "velocity": 90}, {"time": 192238, "pitch": 49, "duration": 230, "velocity": 95}, {"time": 192238, "pitch": 56, "duration": 230, "velocity": 80}, {"time": 192248, "pitch": 59, "duration": 230, "velocity": 85}, {"time": 192478, "pitch": 49, "duration": 121, "velocity": 100}, {"time": 192478, "pitch": 56, "duration": 121, "velocity": 85}, {"time": 192488, "pitch": 59, "duration": 111, "velocity": 90}, {"time": 192599, "pitch": 56, "duration": 120, "velocity": 75}, {"time": 192599, "pitch": 59, "duration": 120, "velocity": 80}, {"time": 192609, "pitch": 49, "duration": 110, "velocity": 90}, {"time": 192719, "pitch": 47, "duration": 241, "velocity": 95}, {"time": 192719, "pitch": 56, "duration": 241, "velocity": 80}, {"time": 192729, "pitch": 59, "duration": 231, "velocity": 85}, {"time": 192960, "pitch": 49, "duration": 241, "velocity": 100}, {"time": 192960, "pitch": 56, "duration": 241, "velocity": 85}, {"time": 192970, "pitch": 59, "duration": 231, "velocity": 90}, {"time": 193201, "pitch": 47, "duration": 241, "velocity": 95}, {"time": 193201, "pitch": 56, "duration": 241, "velocity": 80}, {"time": 193211, "pitch": 59, "duration": 231, "velocity": 85}, {"time": 193442, "pitch": 49, "duration": 120, "velocity": 100}, {"time": 193442, "pitch": 56, "duration": 120, "velocity": 85}, {"time": 193452, "pitch": 59, "duration": 110, "velocity": 90}, {"time": 193562, "pitch": 56, "duration": 121, "velocity": 75}, {"time": 193562, "pitch": 59, "duration": 121, "velocity": 80}, {"time": 193572, "pitch": 49, "duration": 111, "velocity": 90}, {"time": 193683, "pitch": 47, "duration": 241, "velocity": 95}, {"time": 193683, "pitch": 56, "duration": 241, "velocity": 80}, {"time": 193693, "pitch": 59, "duration": 231, "velocity": 85}, {"time": 193924, "pitch": 49, "duration": 236, "velocity": 100}, {"time": 193924, "pitch": 56, "duration": 236, "velocity": 85}, {"time": 193934, "pitch": 59, "duration": 226, "velocity": 90}, {"time": 194160, "pitch": 49, "duration": 226, "velocity": 95}, {"time": 194160, "pitch": 56, "duration": 226, "velocity": 80}, {"time": 194170, "pitch": 59, "duration": 226, "velocity": 85}, {"time": 194396, "pitch": 50, "duration": 702, "velocity": 100}, {"time": 194396, "pitch": 57, "duration": 702, "velocity": 95}, {"time": 194406, "pitch": 62, "duration": 702, "velocity": 90}, {"time": 195118, "pitch": 44, "duration": 1185, "velocity": 100}, {"time": 195118, "pitch": 51, "duration": 1185, "velocity": 95}, {"time": 195128, "pitch": 56, "duration": 1185, "velocity": 90}, {"time": 228956, "pitch": 52, "duration": 220, "velocity": 95}, {"time": 229196, "pitch": 52, "duration": 221, "velocity": 90}, {"time": 229437, "pitch": 59, "duration": 221, "velocity": 95}, {"time": 229447, "pitch": 64, "duration": 221, "velocity": 100}, {"time": 230160, "pitch": 59, "duration": 221, "velocity": 95}, {"time": 230170, "pitch": 64, "duration": 221, "velocity": 100}, {"time": 231364, "pitch": 59, "duration": 217, "velocity": 95}, {"time": 231374, "pitch": 63, "duration": 217, "velocity": 100}, {"time": 232077, "pitch": 59, "duration": 221, "velocity": 95}, {"time": 232087, "pitch": 63, "duration": 221, "velocity": 100}, {"time": 233282, "pitch": 57, "duration": 220, "velocity": 95}, {"time": 233292, "pitch": 62, "duration": 220, "velocity": 100}, {"time": 233999, "pitch": 57, "duration": 217, "velocity": 95}, {"time": 234009, "pitch": 62, "duration": 217, "velocity": 100}, {"time": 235199, "pitch": 56, "duration": 221, "velocity": 95}, {"time": 235209, "pitch": 61, "duration": 221, "velocity": 100}, {"time": 235922, "pitch": 56, "duration": 220, "velocity": 95}, {"time": 235932, "pitch": 61, "duration": 220, "velocity": 100}, {"time": 237116, "pitch": 49, "duration": 221, "velocity": 95}, {"time": 237126, "pitch": 54, "duration": 221, "velocity": 100}, {"time": 237839, "pitch": 49, "duration": 221, "velocity": 95}, {"time": 237849, "pitch": 54, "duration": 221, "velocity": 100}, {"time": 239043, "pitch": 51, "duration": 217, "velocity": 95}, {"time": 239053, "pitch": 56, "duration": 216, "velocity": 100}, {"time": 239756, "pitch": 51, "duration": 221, "velocity": 95}, {"time": 239766, "pitch": 56, "duration": 221, "velocity": 100}, {"time": 240961, "pitch": 52, "duration": 220, "velocity": 95}, {"time": 240971, "pitch": 57, "duration": 220, "velocity": 100}, {"time": 241683, "pitch": 52, "duration": 221, "velocity": 95}, {"time": 241693, "pitch": 57, "duration": 221, "velocity": 100}, {"time": 242396, "pitch": 47, "duration": 241, "velocity": 100}, {"time": 242637, "pitch": 47, "duration": 241, "velocity": 95}, {"time": 242878, "pitch": 47, "duration": 241, "velocity": 100}, {"time": 243119, "pitch": 47, "duration": 241, "velocity": 95}, {"time": 243360, "pitch": 47, "duration": 240, "velocity": 100}, {"time": 243600, "pitch": 47, "duration": 241, "velocity": 95}, {"time": 243841, "pitch": 47, "duration": 241, "velocity": 100}, {"time": 244082, "pitch": 47, "duration": 231, "velocity": 95}, {"time": 244323, "pitch": 52, "duration": 221, "velocity": 95}, {"time": 244564, "pitch": 52, "duration": 221, "velocity": 90}, {"time": 244805, "pitch": 59, "duration": 216, "velocity": 95}, {"time": 244815, "pitch": 64, "duration": 216, "velocity": 100}, {"time": 245518, "pitch": 59, "duration": 221, "velocity": 95}, {"time": 245528, "pitch": 64, "duration": 221, "velocity": 100}, {"time": 246722, "pitch": 59, "duration": 221, "velocity": 95}, {"time": 246732, "pitch": 63, "duration": 221, "velocity": 100}, {"time": 247440, "pitch": 59, "duration": 216, "velocity": 95}, {"time": 247450, "pitch": 63, "duration": 216, "velocity": 100}, {"time": 248639, "pitch": 57, "duration": 221, "velocity": 95}, {"time": 248649, "pitch": 62, "duration": 221, "velocity": 100}, {"time": 249362, "pitch": 57, "duration": 221, "velocity": 95}, {"time": 249372, "pitch": 62, "duration": 221, "velocity": 100}, {"time": 250557, "pitch": 56, "duration": 220, "velocity": 95}, {"time": 250567, "pitch": 61, "duration": 220, "velocity": 100}, {"time": 251279, "pitch": 56, "duration": 221, "velocity": 95}, {"time": 251289, "pitch": 61, "duration": 221, "velocity": 100}, {"time": 252484, "pitch": 49, "duration": 216, "velocity": 95}, {"time": 252493, "pitch": 54, "duration": 217, "velocity": 100}, {"time": 253197, "pitch": 49, "duration": 220, "velocity": 95}, {"time": 253207, "pitch": 54, "duration": 220, "velocity": 100}, {"time": 254401, "pitch": 51, "duration": 221, "velocity": 95}, {"time": 254411, "pitch": 56, "duration": 221, "velocity": 100}, {"time": 255124, "pitch": 51, "duration": 220, "velocity": 95}, {"time": 255134, "pitch": 56, "duration": 220, "velocity": 100}, {"time": 256318, "pitch": 52, "duration": 221, "velocity": 95}, {"time": 256328, "pitch": 57, "duration": 221, "velocity": 100}, {"time": 257041, "pitch": 52, "duration": 221, "velocity": 95}, {"time": 257051, "pitch": 57, "duration": 221, "velocity": 100}, {"time": 257763, "pitch": 47, "duration": 237, "velocity": 100}, {"time": 258000, "pitch": 47, "duration": 236, "velocity": 95}, {"time": 258236, "pitch": 47, "duration": 240, "velocity": 100}, {"time": 258476, "pitch": 47, "duration": 241, "velocity": 95}, {"time": 258717, "pitch": 47, "duration": 241, "velocity": 100}, {"time": 258958, "pitch": 47, "duration": 241, "velocity": 95}, {"time": 259199, "pitch": 47, "duration": 241, "velocity": 100}, {"time": 259440, "pitch": 47, "duration": 231, "velocity": 95}, {"time": 259681, "pitch": 49, "duration": 120, "velocity": 100}, {"time": 259681, "pitch": 56, "duration": 120, "velocity": 85}, {"time": 259691, "pitch": 59, "duration": 110, "velocity": 90}, {"time": 259801, "pitch": 56, "duration": 121, "velocity": 75}, {"time": 259801, "pitch": 59, "duration": 121, "velocity": 80}, {"time": 259811, "pitch": 49, "duration": 111, "velocity": 90}, {"time": 259922, "pitch": 47, "duration": 241, "velocity": 95}, {"time": 259922, "pitch": 56, "duration": 241, "velocity": 80}, {"time": 259932, "pitch": 59, "duration": 231, "velocity": 85}, {"time": 260163, "pitch": 49, "duration": 240, "velocity": 100}, {"time": 260163, "pitch": 56, "duration": 240, "velocity": 85}, {"time": 260173, "pitch": 59, "duration": 230, "velocity": 90}, {"time": 260403, "pitch": 47, "duration": 241, "velocity": 95}, {"time": 260403, "pitch": 56, "duration": 241, "velocity": 80}, {"time": 260414, "pitch": 59, "duration": 230, "velocity": 85}, {"time": 260644, "pitch": 49, "duration": 118, "velocity": 100}, {"time": 260644, "pitch": 56, "duration": 118, "velocity": 85}, {"time": 260654, "pitch": 59, "duration": 108, "velocity": 90}, {"time": 260762, "pitch": 56, "duration": 118, "velocity": 75}, {"time": 260762, "pitch": 59, "duration": 118, "velocity": 80}, {"time": 260772, "pitch": 49, "duration": 108, "velocity": 90}, {"time": 260880, "pitch": 47, "duration": 236, "velocity": 95}, {"time": 260880, "pitch": 56, "duration": 236, "velocity": 80}, {"time": 260890, "pitch": 59, "duration": 226, "velocity": 85}, {"time": 261116, "pitch": 49, "duration": 241, "velocity": 100}, {"time": 261116, "pitch": 56, "duration": 241, "velocity": 85}, {"time": 261126, "pitch": 59, "duration": 231, "velocity": 90}, {"time": 261357, "pitch": 47, "duration": 231, "velocity": 95}, {"time": 261357, "pitch": 56, "duration": 231, "velocity": 80}, {"time": 261367, "pitch": 59, "duration": 231, "velocity": 85}, {"time": 261598, "pitch": 49, "duration": 121, "velocity": 100}, {"time": 261598, "pitch": 56, "duration": 121, "velocity": 85}, {"time": 261608, "pitch": 59, "duration": 111, "velocity": 90}, {"time": 261719, "pitch": 56, "duration": 120, "velocity": 75}, {"time": 261719, "pitch": 59, "duration": 120, "velocity": 80}, {"time": 261729, "pitch": 49, "duration": 110, "velocity": 90}, {"time": 261839, "pitch": 47, "duration": 241, "velocity": 95}, {"time": 261839, "pitch": 56, "duration": 241, "velocity": 80}, {"time": 261849, "pitch": 59, "duration": 231, "velocity": 85}, {"time": 262080, "pitch": 49, "duration": 241, "velocity": 100}, {"time": 262080, "pitch": 56, "duration": 241, "velocity": 85}, {"time": 262090, "pitch": 59, "duration": 231, "velocity": 90}, {"time": 262321, "pitch": 47, "duration": 241, "velocity": 95}, {"time": 262321, "pitch": 56, "duration": 241, "velocity": 80}, {"time": 262331, "pitch": 59, "duration": 231, "velocity": 85}, {"time": 262562, "pitch": 49, "duration": 120, "velocity": 100}, {"time": 262562, "pitch": 56, "duration": 120, "velocity": 85}, {"time": 262572, "pitch": 59, "duration": 110, "velocity": 90}, {"time": 262682, "pitch": 56, "duration": 120, "velocity": 75}, {"time": 262682, "pitch": 59, "duration": 120, "velocity": 80}, {"time": 262692, "pitch": 49, "duration": 110, "velocity": 90}, {"time": 262802, "pitch": 47, "duration": 241, "velocity": 95}, {"time": 262802, "pitch": 56, "duration": 241, "velocity": 80}, {"time": 262813, "pitch": 59, "duration": 230, "velocity": 85}, {"time": 263043, "pitch": 49, "duration": 236, "velocity": 100}, {"time": 263043, "pitch": 56, "duration": 236, "velocity": 85}, {"time": 263053, "pitch": 59, "duration": 226, "velocity": 90}, {"time": 263279, "pitch": 49, "duration": 227, "velocity": 95}, {"time": 263279, "pitch": 56, "duration": 227, "velocity": 80}, {"time": 263289, "pitch": 59, "duration": 226, "velocity": 85}, {"time": 263515, "pitch": 49, "duration": 121, "velocity": 100}, {"time": 263515, "pitch": 56, "duration": 121, "velocity": 85}, {"time": 263525, "pitch": 59, "duration": 111, "velocity": 90}, {"time": 263636, "pitch": 56, "duration": 120, "velocity": 75}, {"time": 263636, "pitch": 59, "duration": 120, "velocity": 80}, {"time": 263646, "pitch": 49, "duration": 110, "velocity": 90}, {"time": 263756, "pitch": 47, "duration": 241, "velocity": 95}, {"time": 263756, "pitch": 56, "duration": 241, "velocity": 80}, {"time": 263766, "pitch": 59, "duration": 231, "velocity": 85}, {"time": 263997, "pitch": 49, "duration": 241, "velocity": 100}, {"time": 263997, "pitch": 56, "duration": 241, "velocity": 85}, {"time": 264007, "pitch": 59, "duration": 231, "velocity": 90}, {"time": 264238, "pitch": 47, "duration": 241, "velocity": 95}, {"time": 264238, "pitch": 56, "duration": 241, "velocity": 80}, {"time": 264248, "pitch": 59, "duration": 231, "velocity": 85}, {"time": 264479, "pitch": 49, "duration": 120, "velocity": 100}, {"time": 264479, "pitch": 56, "duration": 120, "velocity": 85}, {"time": 264489, "pitch": 59, "duration": 110, "velocity": 90}, {"time": 264599, "pitch": 56, "duration": 121, "velocity": 75}, {"time": 264599, "pitch": 59, "duration": 121, "velocity": 80}, {"time": 264609, "pitch": 49, "duration": 111, "velocity": 90}, {"time": 264720, "pitch": 47, "duration": 241, "velocity": 95}, {"time": 264720, "pitch": 56, "duration": 241, "velocity": 80}, {"time": 264730, "pitch": 59, "duration": 231, "velocity": 85}, {"time": 264961, "pitch": 49, "duration": 241, "velocity": 100}, {"time": 264961, "pitch": 56, "duration": 241, "velocity": 85}, {"time": 264971, "pitch": 59, "duration": 231, "velocity": 90}, {"time": 265202, "pitch": 47, "duration": 230, "velocity": 95}, {"time": 265202, "pitch": 56, "duration": 230, "velocity": 80}, {"time": 265212, "pitch": 59, "duration": 230, "velocity": 85}, {"time": 265442, "pitch": 49, "duration": 121, "velocity": 100}, {"time": 265442, "pitch": 56, "duration": 121, "velocity": 85}, {"time": 265452, "pitch": 59, "duration": 111, "velocity": 90}, {"time": 265563, "pitch": 56, "duration": 120, "velocity": 75}, {"time": 265563, "pitch": 59, "duration": 120, "velocity": 80}, {"time": 265573, "pitch": 49, "duration": 110, "velocity": 90}, {"time": 265683, "pitch": 47, "duration": 241, "velocity": 95}, {"time": 265683, "pitch": 56, "duration": 241, "velocity": 80}, {"time": 265693, "pitch": 59, "duration": 231, "velocity": 85}, {"time": 265924, "pitch": 49, "duration": 236, "velocity": 100}, {"time": 265924, "pitch": 56, "duration": 236, "velocity": 85}, {"time": 265934, "pitch": 59, "duration": 226, "velocity": 90}, {"time": 266160, "pitch": 47, "duration": 236, "velocity": 95}, {"time": 266160, "pitch": 56, "duration": 236, "velocity": 80}, {"time": 266170, "pitch": 59, "duration": 226, "velocity": 85}, {"time": 266396, "pitch": 49, "duration": 121, "velocity": 100}, {"time": 266396, "pitch": 56, "duration": 121, "velocity": 85}, {"time": 266406, "pitch": 59, "duration": 111, "velocity": 90}, {"time": 266517, "pitch": 56, "duration": 120, "velocity": 75}, {"time": 266517, "pitch": 59, "duration": 120, "velocity": 80}, {"time": 266527, "pitch": 49, "duration": 110, "velocity": 90}, {"time": 266637, "pitch": 47, "duration": 241, "velocity": 95}, {"time": 266637, "pitch": 56, "duration": 241, "velocity": 80}, {"time": 266647, "pitch": 59, "duration": 231, "velocity": 85}, {"time": 266878, "pitch": 49, "duration": 241, "velocity": 100}, {"time": 266878, "pitch": 56, "duration": 241, "velocity": 85}, {"time": 266888, "pitch": 59, "duration": 231, "velocity": 90}, {"time": 267119, "pitch": 49, "duration": 231, "velocity": 95}, {"time": 267119, "pitch": 56, "duration": 231, "velocity": 80}, {"time": 267129, "pitch": 59, "duration": 231, "velocity": 85}, {"time": 267360, "pitch": 49, "duration": 120, "velocity": 100}, {"time": 267360, "pitch": 56, "duration": 120, "velocity": 85}, {"time": 267370, "pitch": 59, "duration": 110, "velocity": 90}, {"time": 267480, "pitch": 56, "duration": 121, "velocity": 75}, {"time": 267480, "pitch": 59, "duration": 121, "velocity": 80}, {"time": 267490, "pitch": 49, "duration": 111, "velocity": 90}, {"time": 267601, "pitch": 47, "duration": 240, "velocity": 95}, {"time": 267601, "pitch": 56, "duration": 240, "velocity": 80}, {"time": 267611, "pitch": 59, "duration": 230, "velocity": 85}, {"time": 267841, "pitch": 49, "duration": 241, "velocity": 100}, {"time": 267841, "pitch": 56, "duration": 241, "velocity": 85}, {"time": 267851, "pitch": 59, "duration": 231, "velocity": 90}, {"time": 268082, "pitch": 47, "duration": 241, "velocity": 95}, {"time": 268082, "pitch": 56, "duration": 241, "velocity": 80}, {"time": 268092, "pitch": 59, "duration": 231, "velocity": 85}, {"time": 268323, "pitch": 49, "duration": 118, "velocity": 100}, {"time": 268323, "pitch": 56, "duration": 118, "velocity": 85}, {"time": 268333, "pitch": 59, "duration": 108, "velocity": 90}, {"time": 268441, "pitch": 56, "duration": 118, "velocity": 75}, {"time": 268441, "pitch": 59, "duration": 118, "velocity": 80}, {"time": 268451, "pitch": 49, "duration": 108, "velocity": 90}, {"time": 268559, "pitch": 47, "duration": 236, "velocity": 95}, {"time": 268559, "pitch": 56, "duration": 236, "velocity": 80}, {"time": 268569, "pitch": 59, "duration": 226, "velocity": 85}, {"time": 268795, "pitch": 49, "duration": 241, "velocity": 100}, {"time": 268795, "pitch": 56, "duration": 241, "velocity": 85}, {"time": 268805, "pitch": 59, "duration": 231, "velocity": 90}, {"time": 269036, "pitch": 47, "duration": 231, "velocity": 95}, {"time": 269036, "pitch": 56, "duration": 231, "velocity": 80}, {"time": 269046, "pitch": 59, "duration": 231, "velocity": 85}, {"time": 269277, "pitch": 49, "duration": 120, "velocity": 100}, {"time": 269277, "pitch": 56, "duration": 120, "velocity": 85}, {"time": 269287, "pitch": 59, "duration": 110, "velocity": 90}, {"time": 269397, "pitch": 56, "duration": 121, "velocity": 75}, {"time": 269397, "pitch": 59, "duration": 121, "velocity": 80}, {"time": 269407, "pitch": 49, "duration": 111, "velocity": 90}, {"time": 269518, "pitch": 47, "duration": 241, "velocity": 95}, {"time": 269518, "pitch": 56, "duration": 241, "velocity": 80}, {"time": 269528, "pitch": 59, "duration": 231, "velocity": 85}, {"time": 269759, "pitch": 49, "duration": 241, "velocity": 100}, {"time": 269759, "pitch": 56, "duration": 241, "velocity": 85}, {"time": 269769, "pitch": 59, "duration": 231, "velocity": 90}, {"time": 270000, "pitch": 47, "duration": 240, "velocity": 95}, {"time": 270000, "pitch": 56, "duration": 240, "velocity": 80}, {"time": 270010, "pitch": 59, "duration": 230, "velocity": 85}, {"time": 270240, "pitch": 49, "duration": 121, "velocity": 100}, {"time": 270240, "pitch": 56, "duration": 121, "velocity": 85}, {"time": 270251, "pitch": 59, "duration": 110, "velocity": 90}, {"time": 270361, "pitch": 56, "duration": 120, "velocity": 75}, {"time": 270361, "pitch": 59, "duration": 120, "velocity": 80}, {"time": 270371, "pitch": 49, "duration": 110, "velocity": 90}, {"time": 270481, "pitch": 47, "duration": 241, "velocity": 95}, {"time": 270481, "pitch": 56, "duration": 241, "velocity": 80}, {"time": 270491, "pitch": 59, "duration": 231, "velocity": 85}, {"time": 270722, "pitch": 49, "duration": 241, "velocity": 100}, {"time": 270722, "pitch": 56, "duration": 241, "velocity": 85}, {"time": 270732, "pitch": 59, "duration": 231, "velocity": 90}, {"time": 270963, "pitch": 49, "duration": 231, "velocity": 95}, {"time": 270963, "pitch": 56, "duration": 231, "velocity": 80}, {"time": 270973, "pitch": 59, "duration": 231, "velocity": 85}, {"time": 271204, "pitch": 49, "duration": 118, "velocity": 100}, {"time": 271204, "pitch": 56, "duration": 118, "velocity": 85}, {"time": 271214, "pitch": 59, "duration": 108, "velocity": 90}, {"time": 271322, "pitch": 56, "duration": 118, "velocity": 75}, {"time": 271322, "pitch": 59, "duration": 118, "velocity": 80}, {"time": 271332, "pitch": 49, "duration": 108, "velocity": 90}, {"time": 271440, "pitch": 47, "duration": 236, "velocity": 95}, {"time": 271440, "pitch": 56, "duration": 236, "velocity": 80}, {"time": 271450, "pitch": 59, "duration": 226, "velocity": 85}, {"time": 271676, "pitch": 49, "duration": 241, "velocity": 100}, {"time": 271676, "pitch": 56, "duration": 241, "velocity": 85}, {"time": 271686, "pitch": 59, "duration": 231, "velocity": 90}, {"time": 271917, "pitch": 47, "duration": 241, "velocity": 95}, {"time": 271917, "pitch": 56, "duration": 241, "velocity": 80}, {"time": 271927, "pitch": 59, "duration": 231, "velocity": 85}, {"time": 272158, "pitch": 49, "duration": 120, "velocity": 100}, {"time": 272158, "pitch": 56, "duration": 120, "velocity": 85}, {"time": 272168, "pitch": 59, "duration": 110, "velocity": 90}, {"time": 272278, "pitch": 56, "duration": 121, "velocity": 75}, {"time": 272278, "pitch": 59, "duration": 121, "velocity": 80}, {"time": 272288, "pitch": 49, "duration": 111, "velocity": 90}, {"time": 272399, "pitch": 47, "duration": 241, "velocity": 95}, {"time": 272399, "pitch": 56, "duration": 241, "velocity": 80}, {"time": 272409, "pitch": 59, "duration": 231, "velocity": 85}, {"time": 272640, "pitch": 49, "duration": 240, "velocity": 100}, {"time": 272640, "pitch": 56, "duration": 240, "velocity": 85}, {"time": 272650, "pitch": 59, "duration": 230, "velocity": 90}, {"time": 272880, "pitch": 49, "duration": 231, "velocity": 95}, {"time": 272880, "pitch": 56, "duration": 231, "velocity": 80}, {"time": 272890, "pitch": 59, "duration": 231, "velocity": 85}, {"time": 273121, "pitch": 50, "duration": 703, "velocity": 100}, {"time": 273121, "pitch": 57, "duration": 703, "velocity": 95}, {"time": 273131, "pitch": 62, "duration": 703, "velocity": 90}, {"time": 273844, "pitch": 44, "duration": 1174, "velocity": 100}, {"time": 273844, "pitch": 51, "duration": 1174, "velocity": 95}, {"time": 273854, "pitch": 56, "duration": 1175, "velocity": 90}, {"time": 275039, "pitch": 45, "duration": 2399, "velocity": 80}, {"time": 275039, "pitch": 52, "duration": 2399, "velocity": 85}, {"time": 275039, "pitch": 56, "duration": 2399, "velocity": 90}, {"time": 275039, "pitch": 61, "duration": 2399, "velocity": 95}, {"time": 275049, "pitch": 64, "duration": 2399, "velocity": 100}, {"time": 277438, "pitch": 45, "duration": 11523, "velocity": 90}, {"time": 277438, "pitch": 52, "duration": 11523, "velocity": 95}, {"time": 277438, "pitch": 56, "duration": 11523, "velocity": 100}, {"time": 277438, "pitch": 61, "duration": 11523, "velocity": 105}, {"time": 277448, "pitch": 64, "duration": 11513, "velocity": 110}, {"time": 35037, "pitch": 49, "duration": 221, "velocity": 95}, {"time": 35278, "pitch": 49, "duration": 221, "velocity": 90}, {"time": 35760, "pitch": 49, "duration": 221, "velocity": 95}, {"time": 36001, "pitch": 49, "duration": 220, "velocity": 90}, {"time": 36482, "pitch": 49, "duration": 221, "velocity": 95}, {"time": 36723, "pitch": 49, "duration": 221, "velocity": 90}, {"time": 36964, "pitch": 49, "duration": 216, "velocity": 100}, {"time": 36974, "pitch": 56, "duration": 216, "velocity": 90}, {"time": 67680, "pitch": 52, "duration": 220, "velocity": 95}, {"time": 67921, "pitch": 52, "duration": 220, "velocity": 90}, {"time": 68402, "pitch": 52, "duration": 221, "velocity": 95}, {"time": 68643, "pitch": 52, "duration": 217, "velocity": 90}, {"time": 69115, "pitch": 52, "duration": 221, "velocity": 95}, {"time": 69356, "pitch": 52, "duration": 221, "velocity": 90}, {"time": 69597, "pitch": 51, "duration": 221, "velocity": 95}, {"time": 69838, "pitch": 51, "duration": 221, "velocity": 90}, {"time": 70320, "pitch": 51, "duration": 220, "velocity": 95}, {"time": 70560, "pitch": 51, "duration": 221, "velocity": 90}, {"time": 71042, "pitch": 51, "duration": 221, "velocity": 95}, {"time": 71283, "pitch": 51, "duration": 221, "velocity": 90}, {"time": 71524, "pitch": 50, "duration": 216, "velocity": 95}, {"time": 71760, "pitch": 50, "duration": 216, "velocity": 90}, {"time": 72237, "pitch": 50, "duration": 221, "velocity": 95}, {"time": 72478, "pitch": 50, "duration": 221, "velocity": 90}, {"time": 72959, "pitch": 50, "duration": 221, "velocity": 95}, {"time": 73200, "pitch": 50, "duration": 221, "velocity": 90}, {"time": 73441, "pitch": 49, "duration": 221, "velocity": 95}, {"time": 73682, "pitch": 49, "duration": 221, "velocity": 90}, {"time": 74164, "pitch": 49, "duration": 221, "velocity": 95}, {"time": 74405, "pitch": 49, "duration": 216, "velocity": 90}, {"time": 74877, "pitch": 49, "duration": 221, "velocity": 95}, {"time": 75118, "pitch": 49, "duration": 220, "velocity": 90}, {"time": 75359, "pitch": 42, "duration": 220, "velocity": 95}, {"time": 75599, "pitch": 42, "duration": 221, "velocity": 90}, {"time": 76081, "pitch": 42, "duration": 221, "velocity": 95}, {"time": 76322, "pitch": 42, "duration": 221, "velocity": 90}, {"time": 76804, "pitch": 42, "duration": 216, "velocity": 95}, {"time": 77040, "pitch": 42, "duration": 216, "velocity": 90}, {"time": 77276, "pitch": 44, "duration": 221, "velocity": 95}, {"time": 77517, "pitch": 44, "duration": 220, "velocity": 90}, {"time": 77998, "pitch": 44, "duration": 221, "velocity": 95}, {"time": 78239, "pitch": 44, "duration": 221, "velocity": 90}, {"time": 78721, "pitch": 44, "duration": 221, "velocity": 95}, {"time": 78962, "pitch": 44, "duration": 221, "velocity": 90}, {"time": 79203, "pitch": 45, "duration": 221, "velocity": 95}, {"time": 79444, "pitch": 45, "duration": 221, "velocity": 90}, {"time": 79921, "pitch": 45, "duration": 216, "velocity": 95}, {"time": 80157, "pitch": 45, "duration": 220, "velocity": 90}, {"time": 80638, "pitch": 45, "duration": 221, "velocity": 95}, {"time": 80879, "pitch": 45, "duration": 221, "velocity": 90}, {"time": 83760, "pitch": 52, "duration": 221, "velocity": 95}, {"time": 84001, "pitch": 52, "duration": 221, "velocity": 90}, {"time": 84483, "pitch": 52, "duration": 220, "velocity": 95}, {"time": 84724, "pitch": 52, "duration": 220, "velocity": 90}, {"time": 84964, "pitch": 51, "duration": 217, "velocity": 95}, {"time": 85200, "pitch": 51, "duration": 217, "velocity": 90}, {"time": 85677, "pitch": 51, "duration": 221, "velocity": 95}, {"time": 85918, "pitch": 51, "duration": 221, "velocity": 90}, {"time": 86400, "pitch": 51, "duration": 221, "velocity": 95}, {"time": 86641, "pitch": 51, "duration": 221, "velocity": 90}, {"time": 86882, "pitch": 50, "duration": 221, "velocity": 95}, {"time": 87123, "pitch": 50, "duration": 220, "velocity": 90}, {"time": 87599, "pitch": 50, "duration": 217, "velocity": 95}, {"time": 87836, "pitch": 50, "duration": 220, "velocity": 90}, {"time": 88317, "pitch": 50, "duration": 221, "velocity": 95}, {"time": 88558, "pitch": 50, "duration": 221, "velocity": 90}, {"time": 88799, "pitch": 49, "duration": 221, "velocity": 95}, {"time": 89040, "pitch": 49, "duration": 221, "velocity": 90}, {"time": 89522, "pitch": 49, "duration": 220, "velocity": 95}, {"time": 89763, "pitch": 49, "duration": 220, "velocity": 90}, {"time": 90244, "pitch": 49, "duration": 217, "velocity": 95}, {"time": 90480, "pitch": 49, "duration": 217, "velocity": 90}, {"time": 90716, "pitch": 42, "duration": 221, "velocity": 95}, {"time": 90957, "pitch": 42, "duration": 221, "velocity": 90}, {"time": 91439, "pitch": 42, "duration": 221, "velocity": 95}, {"time": 91680, "pitch": 42, "duration": 221, "velocity": 90}, {"time": 92162, "pitch": 42, "duration": 220, "velocity": 95}, {"time": 92402, "pitch": 42, "duration": 221, "velocity": 90}, {"time": 92643, "pitch": 44, "duration": 217, "velocity": 95}, {"time": 92879, "pitch": 44, "duration": 217, "velocity": 90}, {"time": 93356, "pitch": 44, "duration": 221, "velocity": 95}, {"time": 93597, "pitch": 44, "duration": 221, "velocity": 90}, {"time": 94079, "pitch": 44, "duration": 221, "velocity": 95}, {"time": 94320, "pitch": 44, "duration": 221, "velocity": 90}, {"time": 94561, "pitch": 45, "duration": 220, "velocity": 95}, {"time": 94801, "pitch": 45, "duration": 221, "velocity": 90}, {"time": 95283, "pitch": 45, "duration": 221, "velocity": 95}, {"time": 95524, "pitch": 45, "duration": 216, "velocity": 90}, {"time": 95996, "pitch": 45, "duration": 221, "velocity": 95}, {"time": 96237, "pitch": 45, "duration": 221, "velocity": 90}, {"time": 98395, "pitch": 52, "duration": 221, "velocity": 95}, {"time": 98636, "pitch": 52, "duration": 221, "velocity": 90}, {"time": 99118, "pitch": 52, "duration": 221, "velocity": 95}, {"time": 99359, "pitch": 52, "duration": 220, "velocity": 90}, {"time": 99840, "pitch": 52, "duration": 221, "velocity": 95}, {"time": 100081, "pitch": 52, "duration": 221, "velocity": 90}, {"time": 117597, "pitch": 49, "duration": 221, "velocity": 95}, {"time": 117838, "pitch": 49, "duration": 221, "velocity": 90}, {"time": 150240, "pitch": 52, "duration": 221, "velocity": 95}, {"time": 150481, "pitch": 52, "duration": 220, "velocity": 90}, {"time": 150962, "pitch": 52, "duration": 221, "velocity": 95}, {"time": 151203, "pitch": 52, "duration": 217, "velocity": 90}, {"time": 151675, "pitch": 52, "duration": 221, "velocity": 95}, {"time": 151916, "pitch": 52, "duration": 221, "velocity": 90}, {"time": 152157, "pitch": 51, "duration": 221, "velocity": 95}, {"time": 152398, "pitch": 51, "duration": 221, "velocity": 90}, {"time": 152880, "pitch": 51, "duration": 220, "velocity": 95}, {"time": 153121, "pitch": 51, "duration": 220, "velocity": 90}, {"time": 153602, "pitch": 51, "duration": 221, "velocity": 95}, {"time": 153843, "pitch": 51, "duration": 221, "velocity": 90}, {"time": 154084, "pitch": 50, "duration": 216, "velocity": 95}, {"time": 154320, "pitch": 50, "duration": 216, "velocity": 90}, {"time": 154797, "pitch": 50, "duration": 221, "velocity": 95}, {"time": 155038, "pitch": 50, "duration": 221, "velocity": 90}, {"time": 155520, "pitch": 50, "duration": 220, "velocity": 95}, {"time": 155760, "pitch": 50, "duration": 221, "velocity": 90}, {"time": 156001, "pitch": 49, "duration": 221, "velocity": 95}, {"time": 156242, "pitch": 49, "duration": 221, "velocity": 90}, {"time": 156724, "pitch": 49, "duration": 221, "velocity": 95}, {"time": 156965, "pitch": 49, "duration": 216, "velocity": 90}, {"time": 157437, "pitch": 49, "duration": 221, "velocity": 95}, {"time": 157678, "pitch": 49, "duration": 221, "velocity": 90}, {"time": 157919, "pitch": 42, "duration": 220, "velocity": 95}, {"time": 158160, "pitch": 42, "duration": 220, "velocity": 90}, {"time": 158641, "pitch": 42, "duration": 221, "velocity": 95}, {"time": 158882, "pitch": 42, "duration": 221, "velocity": 90}, {"time": 159364, "pitch": 42, "duration": 216, "velocity": 95}, {"time": 159600, "pitch": 42, "duration": 216, "velocity": 90}, {"time": 159836, "pitch": 44, "duration": 221, "velocity": 95}, {"time": 160077, "pitch": 44, "duration": 221, "velocity": 90}, {"time": 160559, "pitch": 44, "duration": 220, "velocity": 95}, {"time": 160799, "pitch": 44, "duration": 221, "velocity": 90}, {"time": 161281, "pitch": 44, "duration": 221, "velocity": 95}, {"time": 161522, "pitch": 44, "duration": 221, "velocity": 90}, {"time": 161763, "pitch": 45, "duration": 221, "velocity": 95}, {"time": 162004, "pitch": 45, "duration": 221, "velocity": 90}, {"time": 162481, "pitch": 45, "duration": 216, "velocity": 95}, {"time": 162717, "pitch": 45, "duration": 221, "velocity": 90}, {"time": 163198, "pitch": 45, "duration": 221, "velocity": 95}, {"time": 163439, "pitch": 45, "duration": 221, "velocity": 90}, {"time": 166320, "pitch": 52, "duration": 221, "velocity": 95}, {"time": 166561, "pitch": 52, "duration": 221, "velocity": 90}, {"time": 167043, "pitch": 52, "duration": 221, "velocity": 95}, {"time": 167284, "pitch": 52, "duration": 220, "velocity": 90}, {"time": 167524, "pitch": 51, "duration": 217, "velocity": 95}, {"time": 167761, "pitch": 51, "duration": 216, "velocity": 90}, {"time": 168237, "pitch": 51, "duration": 221, "velocity": 95}, {"time": 168478, "pitch": 51, "duration": 221, "velocity": 90}, {"time": 168960, "pitch": 51, "duration": 221, "velocity": 95}, {"time": 169201, "pitch": 51, "duration": 221, "velocity": 90}, {"time": 169442, "pitch": 50, "duration": 221, "velocity": 95}, {"time": 169683, "pitch": 50, "duration": 221, "velocity": 90}, {"time": 170160, "pitch": 50, "duration": 216, "velocity": 95}, {"time": 170396, "pitch": 50, "duration": 220, "velocity": 90}, {"time": 170877, "pitch": 50, "duration": 221, "velocity": 95}, {"time": 171118, "pitch": 50, "duration": 221, "velocity": 90}, {"time": 171359, "pitch": 49, "duration": 221, "velocity": 95}, {"time": 171600, "pitch": 49, "duration": 221, "velocity": 90}, {"time": 172082, "pitch": 49, "duration": 221, "velocity": 95}, {"time": 172323, "pitch": 49, "duration": 220, "velocity": 90}, {"time": 172804, "pitch": 49, "duration": 217, "velocity": 95}, {"time": 173040, "pitch": 49, "duration": 217, "velocity": 90}, {"time": 173276, "pitch": 42, "duration": 221, "velocity": 95}, {"time": 173517, "pitch": 42, "duration": 221, "velocity": 90}, {"time": 173999, "pitch": 42, "duration": 221, "velocity": 95}, {"time": 174240, "pitch": 42, "duration": 221, "velocity": 90}, {"time": 174722, "pitch": 42, "duration": 220, "velocity": 95}, {"time": 174963, "pitch": 42, "duration": 220, "velocity": 90}, {"time": 175203, "pitch": 44, "duration": 217, "velocity": 95}, {"time": 175439, "pitch": 44, "duration": 217, "velocity": 90}, {"time": 175916, "pitch": 44, "duration": 221, "velocity": 95}, {"time": 176157, "pitch": 44, "duration": 221, "velocity": 90}, {"time": 176639, "pitch": 44, "duration": 221, "velocity": 95}, {"time": 176880, "pitch": 44, "duration": 221, "velocity": 90}, {"time": 177121, "pitch": 45, "duration": 221, "velocity": 95}, {"time": 177362, "pitch": 45, "duration": 220, "velocity": 90}, {"time": 177843, "pitch": 45, "duration": 221, "velocity": 95}, {"time": 178084, "pitch": 45, "duration": 217, "velocity": 90}, {"time": 178556, "pitch": 45, "duration": 221, "velocity": 95}, {"time": 178797, "pitch": 45, "duration": 221, "velocity": 90}, {"time": 229678, "pitch": 52, "duration": 221, "velocity": 95}, {"time": 229919, "pitch": 52, "duration": 221, "velocity": 90}, {"time": 230401, "pitch": 52, "duration": 221, "velocity": 95}, {"time": 230642, "pitch": 52, "duration": 221, "velocity": 90}, {"time": 230883, "pitch": 51, "duration": 220, "velocity": 95}, {"time": 231123, "pitch": 51, "duration": 221, "velocity": 90}, {"time": 231600, "pitch": 51, "duration": 217, "velocity": 95}, {"time": 231836, "pitch": 51, "duration": 221, "velocity": 90}, {"time": 232318, "pitch": 51, "duration": 221, "velocity": 95}, {"time": 232559, "pitch": 51, "duration": 221, "velocity": 90}, {"time": 232800, "pitch": 50, "duration": 221, "velocity": 95}, {"time": 233041, "pitch": 50, "duration": 221, "velocity": 90}, {"time": 233523, "pitch": 50, "duration": 220, "velocity": 95}, {"time": 233763, "pitch": 50, "duration": 217, "velocity": 90}, {"time": 234235, "pitch": 50, "duration": 221, "velocity": 95}, {"time": 234476, "pitch": 50, "duration": 221, "velocity": 90}, {"time": 234717, "pitch": 49, "duration": 221, "velocity": 95}, {"time": 234958, "pitch": 49, "duration": 221, "velocity": 90}, {"time": 235440, "pitch": 49, "duration": 221, "velocity": 95}, {"time": 235681, "pitch": 49, "duration": 220, "velocity": 90}, {"time": 236162, "pitch": 49, "duration": 221, "velocity": 95}, {"time": 236403, "pitch": 49, "duration": 221, "velocity": 90}, {"time": 236644, "pitch": 42, "duration": 217, "velocity": 95}, {"time": 236880, "pitch": 42, "duration": 217, "velocity": 90}, {"time": 237357, "pitch": 42, "duration": 221, "velocity": 95}, {"time": 237598, "pitch": 42, "duration": 221, "velocity": 90}, {"time": 238080, "pitch": 42, "duration": 221, "velocity": 95}, {"time": 238321, "pitch": 42, "duration": 220, "velocity": 90}, {"time": 238561, "pitch": 44, "duration": 221, "velocity": 95}, {"time": 238802, "pitch": 44, "duration": 221, "velocity": 90}, {"time": 239279, "pitch": 44, "duration": 217, "velocity": 95}, {"time": 239515, "pitch": 44, "duration": 221, "velocity": 90}, {"time": 239997, "pitch": 44, "duration": 221, "velocity": 95}, {"time": 240238, "pitch": 44, "duration": 221, "velocity": 90}, {"time": 240479, "pitch": 45, "duration": 221, "velocity": 95}, {"time": 240720, "pitch": 45, "duration": 220, "velocity": 90}, {"time": 241201, "pitch": 45, "duration": 221, "velocity": 95}, {"time": 241442, "pitch": 45, "duration": 221, "velocity": 90}, {"time": 241924, "pitch": 45, "duration": 216, "velocity": 95}, {"time": 242160, "pitch": 45, "duration": 216, "velocity": 90}, {"time": 245041, "pitch": 52, "duration": 216, "velocity": 95}, {"time": 245277, "pitch": 52, "duration": 221, "velocity": 90}, {"time": 245759, "pitch": 52, "duration": 220, "velocity": 95}, {"time": 245999, "pitch": 52, "duration": 221, "velocity": 90}, {"time": 246240, "pitch": 51, "duration": 221, "velocity": 95}, {"time": 246481, "pitch": 51, "duration": 221, "velocity": 90}, {"time": 246963, "pitch": 51, "duration": 221, "velocity": 95}, {"time": 247204, "pitch": 51, "duration": 216, "velocity": 90}, {"time": 247676, "pitch": 51, "duration": 221, "velocity": 95}, {"time": 247917, "pitch": 51, "duration": 221, "velocity": 90}, {"time": 248158, "pitch": 50, "duration": 220, "velocity": 95}, {"time": 248398, "pitch": 50, "duration": 221, "velocity": 90}, {"time": 248880, "pitch": 50, "duration": 221, "velocity": 95}, {"time": 249121, "pitch": 50, "duration": 221, "velocity": 90}, {"time": 249603, "pitch": 50, "duration": 221, "velocity": 95}, {"time": 249844, "pitch": 50, "duration": 221, "velocity": 90}, {"time": 250085, "pitch": 49, "duration": 216, "velocity": 95}, {"time": 250321, "pitch": 49, "duration": 216, "velocity": 90}, {"time": 250798, "pitch": 49, "duration": 220, "velocity": 95}, {"time": 251038, "pitch": 49, "duration": 221, "velocity": 90}, {"time": 251520, "pitch": 49, "duration": 221, "velocity": 95}, {"time": 251761, "pitch": 49, "duration": 221, "velocity": 90}, {"time": 252002, "pitch": 42, "duration": 221, "velocity": 95}, {"time": 252243, "pitch": 42, "duration": 221, "velocity": 90}, {"time": 252720, "pitch": 42, "duration": 216, "velocity": 95}, {"time": 252956, "pitch": 42, "duration": 220, "velocity": 90}, {"time": 253437, "pitch": 42, "duration": 221, "velocity": 95}, {"time": 253678, "pitch": 42, "duration": 221, "velocity": 90}, {"time": 253919, "pitch": 44, "duration": 221, "velocity": 95}, {"time": 254160, "pitch": 44, "duration": 221, "velocity": 90}, {"time": 254642, "pitch": 44, "duration": 221, "velocity": 95}, {"time": 254883, "pitch": 44, "duration": 221, "velocity": 90}, {"time": 255364, "pitch": 44, "duration": 217, "velocity": 95}, {"time": 255600, "pitch": 44, "duration": 217, "velocity": 90}, {"time": 255837, "pitch": 45, "duration": 220, "velocity": 95}, {"time": 256077, "pitch": 45, "duration": 221, "velocity": 90}, {"time": 256559, "pitch": 45, "duration": 221, "velocity": 95}, {"time": 256800, "pitch": 45, "duration": 221, "velocity": 90}, {"time": 257282, "pitch": 45, "duration": 221, "velocity": 95}, {"time": 257523, "pitch": 45, "duration": 220, "velocity": 90}, {"time": 278883, "pitch": 52, "duration": 60, "velocity": 100}, {"time": 278943, "pitch": 52, "duration": 60, "velocity": 80}, {"time": 279003, "pitch": 52, "duration": 61, "velocity": 90}, {"time": 279064, "pitch": 52, "duration": 60, "velocity": 100}, {"time": 279124, "pitch": 52, "duration": 60, "velocity": 80}, {"time": 279184, "pitch": 52, "duration": 60, "velocity": 90}, {"time": 279244, "pitch": 52, "duration": 60, "velocity": 100}, {"time": 279304, "pitch": 52, "duration": 61, "velocity": 80}, {"time": 279365, "pitch": 52, "duration": 59, "velocity": 90}, {"time": 279424, "pitch": 52, "duration": 59, "velocity": 100}, {"time": 279483, "pitch": 52, "duration": 59, "velocity": 80}, {"time": 279542, "pitch": 52, "duration": 59, "velocity": 90}, {"time": 279601, "pitch": 52, "duration": 59, "velocity": 100}, {"time": 279660, "pitch": 52, "duration": 59, "velocity": 80}, {"time": 279719, "pitch": 52, "duration": 59, "velocity": 90}, {"time": 279778, "pitch": 52, "duration": 59, "velocity": 100}, {"time": 279837, "pitch": 52, "duration": 60, "velocity": 80}, {"time": 279897, "pitch": 52, "duration": 60, "velocity": 90}, {"time": 279957, "pitch": 52, "duration": 60, "velocity": 100}, {"time": 280017, "pitch": 52, "duration": 61, "velocity": 80}, {"time": 280078, "pitch": 52, "duration": 60, "velocity": 90}, {"time": 280138, "pitch": 52, "duration": 60, "velocity": 100}, {"time": 280198, "pitch": 52, "duration": 60, "velocity": 80}, {"time": 280258, "pitch": 52, "duration": 60, "velocity": 90}, {"time": 280318, "pitch": 52, "duration": 61, "velocity": 100}, {"time": 280379, "pitch": 52, "duration": 60, "velocity": 80}, {"time": 280439, "pitch": 52, "duration": 60, "velocity": 90}, {"time": 280499, "pitch": 52, "duration": 60, "velocity": 100}, {"time": 280559, "pitch": 52, "duration": 60, "velocity": 80}, {"time": 280619, "pitch": 52, "duration": 61, "velocity": 90}, {"time": 280680, "pitch": 52, "duration": 60, "velocity": 100}, {"time": 280740, "pitch": 52, "duration": 60, "velocity": 80}, {"time": 280800, "pitch": 52, "duration": 60, "velocity": 90}, {"time": 280860, "pitch": 52, "duration": 61, "velocity": 100}, {"time": 280921, "pitch": 52, "duration": 60, "velocity": 80}, {"time": 280981, "pitch": 52, "duration": 60, "velocity": 90}, {"time": 281041, "pitch": 52, "duration": 60, "velocity": 100}, {"time": 281101, "pitch": 52, "duration": 60, "velocity": 80}, {"time": 281161, "pitch": 52, "duration": 61, "velocity": 90}, {"time": 281222, "pitch": 52, "duration": 60, "velocity": 100}, {"time": 281282, "pitch": 52, "duration": 60, "velocity": 80}, {"time": 281342, "pitch": 52, "duration": 60, "velocity": 90}, {"time": 281402, "pitch": 52, "duration": 61, "velocity": 100}, {"time": 281463, "pitch": 52, "duration": 60, "velocity": 80}, {"time": 281523, "pitch": 52, "duration": 60, "velocity": 90}, {"time": 281583, "pitch": 52, "duration": 60, "velocity": 100}, {"time": 281643, "pitch": 52, "duration": 60, "velocity": 80}, {"time": 281703, "pitch": 52, "duration": 61, "velocity": 90}, {"time": 281764, "pitch": 52, "duration": 59, "velocity": 100}, {"time": 281823, "pitch": 52, "duration": 59, "velocity": 80}, {"time": 281882, "pitch": 52, "duration": 59, "velocity": 90}, {"time": 281941, "pitch": 52, "duration": 59, "velocity": 100}, {"time": 282000, "pitch": 52, "duration": 59, "velocity": 80}, {"time": 282059, "pitch": 52, "duration": 59, "velocity": 90}, {"time": 282118, "pitch": 52, "duration": 59, "velocity": 100}, {"time": 282177, "pitch": 52, "duration": 59, "velocity": 80}, {"time": 282236, "pitch": 52, "duration": 60, "velocity": 90}, {"time": 282296, "pitch": 52, "duration": 60, "velocity": 100}, {"time": 282356, "pitch": 52, "duration": 60, "velocity": 80}, {"time": 282416, "pitch": 52, "duration": 61, "velocity": 90}, {"time": 282477, "pitch": 52, "duration": 60, "velocity": 100}, {"time": 282537, "pitch": 52, "duration": 60, "velocity": 80}, {"time": 282597, "pitch": 52, "duration": 60, "velocity": 90}, {"time": 282657, "pitch": 52, "duration": 60, "velocity": 100}, {"time": 282717, "pitch": 52, "duration": 61, "velocity": 80}, {"time": 282778, "pitch": 52, "duration": 60, "velocity": 90}, {"time": 282838, "pitch": 52, "duration": 60, "velocity": 100}, {"time": 282898, "pitch": 52, "duration": 60, "velocity": 80}, {"time": 282958, "pitch": 52, "duration": 61, "velocity": 90}, {"time": 283019, "pitch": 52, "duration": 60, "velocity": 100}, {"time": 283079, "pitch": 52, "duration": 60, "velocity": 80}, {"time": 283139, "pitch": 52, "duration": 60, "velocity": 90}, {"time": 283199, "pitch": 52, "duration": 60, "velocity": 100}, {"time": 283259, "pitch": 52, "duration": 61, "velocity": 80}, {"time": 283320, "pitch": 52, "duration": 60, "velocity": 90}, {"time": 283380, "pitch": 52, "duration": 60, "velocity": 100}, {"time": 283440, "pitch": 52, "duration": 60, "velocity": 80}, {"time": 283500, "pitch": 52, "duration": 61, "velocity": 90}, {"time": 283561, "pitch": 52, "duration": 60, "velocity": 100}, {"time": 283621, "pitch": 52, "duration": 60, "velocity": 80}, {"time": 283681, "pitch": 52, "duration": 60, "velocity": 90}, {"time": 283741, "pitch": 52, "duration": 60, "velocity": 100}, {"time": 283801, "pitch": 52, "duration": 61, "velocity": 80}, {"time": 283862, "pitch": 52, "duration": 60, "velocity": 90}, {"time": 283922, "pitch": 52, "duration": 60, "velocity": 100}, {"time": 283982, "pitch": 52, "duration": 60, "velocity": 80}, {"time": 284042, "pitch": 52, "duration": 61, "velocity": 90}, {"time": 284103, "pitch": 52, "duration": 60, "velocity": 100}, {"time": 284163, "pitch": 52, "duration": 60, "velocity": 80}, {"time": 284223, "pitch": 52, "duration": 60, "velocity": 90}, {"time": 284283, "pitch": 52, "duration": 60, "velocity": 100}, {"time": 284343, "pitch": 52, "duration": 61, "velocity": 80}, {"time": 284404, "pitch": 52, "duration": 60, "velocity": 90}, {"time": 284464, "pitch": 52, "duration": 60, "velocity": 100}, {"time": 284524, "pitch": 52, "duration": 60, "velocity": 80}, {"time": 284584, "pitch": 52, "duration": 60, "velocity": 90}, {"time": 284644, "pitch": 52, "duration": 69, "velocity": 100}, {"time": 284713, "pitch": 52, "duration": 69, "velocity": 80}, {"time": 284782, "pitch": 52, "duration": 69, "velocity": 90}, {"time": 284851, "pitch": 52, "duration": 79, "velocity": 100}, {"time": 284930, "pitch": 52, "duration": 78, "velocity": 80}, {"time": 285008, "pitch": 52, "duration": 79, "velocity": 90}, {"time": 285087, "pitch": 52, "duration": 90, "velocity": 100}, {"time": 285177, "pitch": 52, "duration": 90, "velocity": 80}, {"time": 285267, "pitch": 52, "duration": 90, "velocity": 90}, {"time": 285357, "pitch": 52, "duration": 101, "velocity": 100}, {"time": 285458, "pitch": 52, "duration": 100, "velocity": 80}, {"time": 285558, "pitch": 52, "duration": 110, "velocity": 90}, {"time": 285668, "pitch": 52, "duration": 111, "velocity": 100}, {"time": 285779, "pitch": 52, "duration": 120, "velocity": 80}, {"time": 285899, "pitch": 52, "duration": 121, "velocity": 90}, {"time": 286020, "pitch": 52, "duration": 130, "velocity": 100}, {"time": 286150, "pitch": 52, "duration": 131, "velocity": 95}, {"time": 286281, "pitch": 52, "duration": 140, "velocity": 100}, {"time": 286421, "pitch": 52, "duration": 141, "velocity": 95}]}]}