{"metadata": {"schema_version": "0.1", "title": "RWC-MDB-P-2001 No. 77: Aishiteru / Makiko Hattori", "copyright": "RWC Music Database. Copyright (C) 2001 Real World Computing Partnership (contact: Masataka GOTO <m.goto@aist.go.jp>)", "source_filename": "RM-P077.SMF_SYNC.MID", "source_format": "midi"}, "resolution": 480, "tempos": [{"time": 0, "qpm": 55.55555555555556}, {"time": 480, "qpm": 120.0}, {"time": 211680, "qpm": 103.44827586206897}, {"time": 212160, "qpm": 95.23809523809524}, {"time": 212640, "qpm": 90.9090909090909}, {"time": 213120, "qpm": 130.43478260869566}, {"time": 213600, "qpm": 127.65957446808511}, {"time": 214080, "qpm": 250.0}], "key_signatures": [{"time": 0, "root": 0, "mode": "major"}], "time_signatures": [{"time": 0, "numerator": 1, "denominator": 4}, {"time": 480, "numerator": 6, "denominator": 4}, {"time": 6240, "numerator": 4, "denominator": 4}, {"time": 211680, "numerator": 6, "denominator": 4}], "tracks": [{"program": 0, "is_drum": false, "name": "Piano", "notes": [{"time": 429, "pitch": 67, "duration": 561, "velocity": 102}, {"time": 448, "pitch": 72, "duration": 592, "velocity": 109}, {"time": 471, "pitch": 48, "duration": 2729, "velocity": 106}, {"time": 471, "pitch": 76, "duration": 479, "velocity": 120}, {"time": 960, "pitch": 79, "duration": 310, "velocity": 117}, {"time": 1200, "pitch": 60, "duration": 2030, "velocity": 89}, {"time": 1200, "pitch": 69, "duration": 690, "velocity": 118}, {"time": 1200, "pitch": 72, "duration": 730, "velocity": 113}, {"time": 1200, "pitch": 77, "duration": 760, "velocity": 116}, {"time": 2200, "pitch": 72, "duration": 520, "velocity": 100}, {"time": 2290, "pitch": 77, "duration": 150, "velocity": 102}, {"time": 2330, "pitch": 81, "duration": 140, "velocity": 114}, {"time": 2400, "pitch": 84, "duration": 290, "velocity": 124}, {"time": 2650, "pitch": 81, "duration": 270, "velocity": 112}, {"time": 2880, "pitch": 77, "duration": 250, "velocity": 118}, {"time": 3110, "pitch": 72, "duration": 90, "velocity": 107}, {"time": 3360, "pitch": 48, "duration": 2320, "velocity": 101}, {"time": 3360, "pitch": 67, "duration": 600, "velocity": 119}, {"time": 3360, "pitch": 72, "duration": 550, "velocity": 112}, {"time": 3360, "pitch": 76, "duration": 520, "velocity": 118}, {"time": 3840, "pitch": 79, "duration": 290, "velocity": 119}, {"time": 4080, "pitch": 67, "duration": 680, "velocity": 113}, {"time": 4080, "pitch": 71, "duration": 640, "velocity": 114}, {"time": 4080, "pitch": 74, "duration": 660, "velocity": 121}, {"time": 4090, "pitch": 60, "duration": 740, "velocity": 91}, {"time": 5030, "pitch": 62, "duration": 80, "velocity": 111}, {"time": 5030, "pitch": 71, "duration": 70, "velocity": 118}, {"time": 5270, "pitch": 71, "duration": 300, "velocity": 114}, {"time": 5280, "pitch": 62, "duration": 170, "velocity": 99}, {"time": 5510, "pitch": 59, "duration": 70, "velocity": 107}, {"time": 5510, "pitch": 67, "duration": 240, "velocity": 113}, {"time": 5750, "pitch": 59, "duration": 70, "velocity": 93}, {"time": 5750, "pitch": 62, "duration": 200, "velocity": 117}, {"time": 5990, "pitch": 55, "duration": 50, "velocity": 99}, {"time": 5990, "pitch": 59, "duration": 90, "velocity": 119}, {"time": 6230, "pitch": 41, "duration": 550, "velocity": 106}, {"time": 6230, "pitch": 53, "duration": 540, "velocity": 108}, {"time": 6230, "pitch": 60, "duration": 420, "velocity": 117}, {"time": 6230, "pitch": 65, "duration": 310, "velocity": 115}, {"time": 6230, "pitch": 69, "duration": 330, "velocity": 118}, {"time": 6480, "pitch": 72, "duration": 450, "velocity": 111}, {"time": 6960, "pitch": 40, "duration": 650, "velocity": 109}, {"time": 6960, "pitch": 52, "duration": 640, "velocity": 111}, {"time": 6960, "pitch": 60, "duration": 580, "velocity": 107}, {"time": 6960, "pitch": 64, "duration": 530, "velocity": 114}, {"time": 6960, "pitch": 67, "duration": 510, "velocity": 117}, {"time": 7440, "pitch": 72, "duration": 400, "velocity": 98}, {"time": 7910, "pitch": 38, "duration": 100, "velocity": 114}, {"time": 7910, "pitch": 50, "duration": 70, "velocity": 106}, {"time": 7910, "pitch": 60, "duration": 70, "velocity": 92}, {"time": 7910, "pitch": 62, "duration": 120, "velocity": 107}, {"time": 7910, "pitch": 65, "duration": 100, "velocity": 102}, {"time": 8370, "pitch": 40, "duration": 130, "velocity": 101}, {"time": 8510, "pitch": 41, "duration": 130, "velocity": 98}, {"time": 8640, "pitch": 43, "duration": 940, "velocity": 97}, {"time": 8640, "pitch": 62, "duration": 740, "velocity": 113}, {"time": 8640, "pitch": 65, "duration": 1020, "velocity": 111}, {"time": 8640, "pitch": 69, "duration": 1020, "velocity": 106}, {"time": 8640, "pitch": 72, "duration": 790, "velocity": 104}, {"time": 9360, "pitch": 31, "duration": 470, "velocity": 104}, {"time": 9600, "pitch": 60, "duration": 140, "velocity": 111}, {"time": 9810, "pitch": 43, "duration": 70, "velocity": 95}, {"time": 10050, "pitch": 55, "duration": 30, "velocity": 115}, {"time": 10060, "pitch": 60, "duration": 560, "velocity": 110}, {"time": 10070, "pitch": 64, "duration": 500, "velocity": 108}, {"time": 10080, "pitch": 36, "duration": 1700, "velocity": 103}, {"time": 10080, "pitch": 55, "duration": 510, "velocity": 115}, {"time": 10550, "pitch": 67, "duration": 270, "velocity": 106}, {"time": 10790, "pitch": 65, "duration": 540, "velocity": 113}, {"time": 10800, "pitch": 57, "duration": 580, "velocity": 107}, {"time": 10800, "pitch": 60, "duration": 560, "velocity": 104}, {"time": 10810, "pitch": 48, "duration": 970, "velocity": 93}, {"time": 11280, "pitch": 67, "duration": 720, "velocity": 111}, {"time": 11750, "pitch": 43, "duration": 290, "velocity": 98}, {"time": 11990, "pitch": 60, "duration": 390, "velocity": 95}, {"time": 11990, "pitch": 64, "duration": 460, "velocity": 100}, {"time": 12010, "pitch": 36, "duration": 1500, "velocity": 99}, {"time": 12010, "pitch": 55, "duration": 320, "velocity": 75}, {"time": 12490, "pitch": 55, "duration": 300, "velocity": 101}, {"time": 12730, "pitch": 60, "duration": 310, "velocity": 114}, {"time": 12970, "pitch": 67, "duration": 280, "velocity": 127}, {"time": 13210, "pitch": 64, "duration": 290, "velocity": 109}, {"time": 13450, "pitch": 60, "duration": 270, "velocity": 108}, {"time": 13690, "pitch": 55, "duration": 100, "velocity": 110}, {"time": 13920, "pitch": 36, "duration": 1670, "velocity": 95}, {"time": 13920, "pitch": 55, "duration": 520, "velocity": 107}, {"time": 13920, "pitch": 59, "duration": 760, "velocity": 113}, {"time": 13920, "pitch": 62, "duration": 720, "velocity": 114}, {"time": 14640, "pitch": 55, "duration": 510, "velocity": 111}, {"time": 14640, "pitch": 60, "duration": 910, "velocity": 110}, {"time": 14640, "pitch": 64, "duration": 950, "velocity": 109}, {"time": 15130, "pitch": 48, "duration": 240, "velocity": 98}, {"time": 15360, "pitch": 55, "duration": 360, "velocity": 108}, {"time": 15590, "pitch": 48, "duration": 440, "velocity": 95}, {"time": 15830, "pitch": 64, "duration": 740, "velocity": 109}, {"time": 15840, "pitch": 57, "duration": 610, "velocity": 109}, {"time": 15840, "pitch": 60, "duration": 710, "velocity": 106}, {"time": 15850, "pitch": 36, "duration": 110, "velocity": 92}, {"time": 16080, "pitch": 36, "duration": 220, "velocity": 96}, {"time": 16320, "pitch": 53, "duration": 460, "velocity": 111}, {"time": 16540, "pitch": 36, "duration": 330, "velocity": 88}, {"time": 16790, "pitch": 60, "duration": 580, "velocity": 111}, {"time": 16790, "pitch": 64, "duration": 740, "velocity": 111}, {"time": 16800, "pitch": 57, "duration": 530, "velocity": 104}, {"time": 17040, "pitch": 36, "duration": 170, "velocity": 94}, {"time": 17280, "pitch": 53, "duration": 190, "velocity": 105}, {"time": 17520, "pitch": 36, "duration": 100, "velocity": 98}, {"time": 17750, "pitch": 36, "duration": 530, "velocity": 96}, {"time": 17750, "pitch": 55, "duration": 330, "velocity": 112}, {"time": 17750, "pitch": 59, "duration": 390, "velocity": 114}, {"time": 17750, "pitch": 62, "duration": 490, "velocity": 110}, {"time": 18230, "pitch": 55, "duration": 80, "velocity": 107}, {"time": 18230, "pitch": 59, "duration": 70, "velocity": 96}, {"time": 18230, "pitch": 64, "duration": 70, "velocity": 97}, {"time": 18470, "pitch": 55, "duration": 290, "velocity": 114}, {"time": 18470, "pitch": 59, "duration": 330, "velocity": 110}, {"time": 18470, "pitch": 64, "duration": 340, "velocity": 114}, {"time": 18720, "pitch": 36, "duration": 620, "velocity": 93}, {"time": 18960, "pitch": 59, "duration": 460, "velocity": 118}, {"time": 18970, "pitch": 67, "duration": 380, "velocity": 124}, {"time": 19440, "pitch": 36, "duration": 120, "velocity": 104}, {"time": 19670, "pitch": 55, "duration": 720, "velocity": 113}, {"time": 19670, "pitch": 60, "duration": 960, "velocity": 111}, {"time": 19670, "pitch": 64, "duration": 960, "velocity": 114}, {"time": 19680, "pitch": 36, "duration": 510, "velocity": 102}, {"time": 20390, "pitch": 36, "duration": 120, "velocity": 88}, {"time": 20650, "pitch": 36, "duration": 920, "velocity": 91}, {"time": 20650, "pitch": 55, "duration": 320, "velocity": 115}, {"time": 20880, "pitch": 60, "duration": 310, "velocity": 114}, {"time": 21120, "pitch": 62, "duration": 270, "velocity": 113}, {"time": 21360, "pitch": 64, "duration": 160, "velocity": 113}, {"time": 21600, "pitch": 40, "duration": 690, "velocity": 102}, {"time": 21600, "pitch": 59, "duration": 710, "velocity": 109}, {"time": 21600, "pitch": 62, "duration": 680, "velocity": 97}, {"time": 21600, "pitch": 67, "duration": 710, "velocity": 109}, {"time": 22310, "pitch": 52, "duration": 530, "velocity": 101}, {"time": 22550, "pitch": 59, "duration": 660, "velocity": 111}, {"time": 22550, "pitch": 62, "duration": 530, "velocity": 110}, {"time": 22550, "pitch": 67, "duration": 640, "velocity": 111}, {"time": 22800, "pitch": 40, "duration": 230, "velocity": 111}, {"time": 23040, "pitch": 52, "duration": 200, "velocity": 110}, {"time": 23260, "pitch": 40, "duration": 90, "velocity": 111}, {"time": 23510, "pitch": 57, "duration": 1070, "velocity": 116}, {"time": 23510, "pitch": 60, "duration": 1090, "velocity": 117}, {"time": 23510, "pitch": 67, "duration": 1040, "velocity": 110}, {"time": 23520, "pitch": 33, "duration": 480, "velocity": 112}, {"time": 23520, "pitch": 64, "duration": 1090, "velocity": 94}, {"time": 24240, "pitch": 33, "duration": 250, "velocity": 109}, {"time": 24470, "pitch": 45, "duration": 320, "velocity": 107}, {"time": 24710, "pitch": 57, "duration": 560, "velocity": 121}, {"time": 24710, "pitch": 60, "duration": 560, "velocity": 118}, {"time": 24710, "pitch": 67, "duration": 560, "velocity": 113}, {"time": 24720, "pitch": 64, "duration": 490, "velocity": 96}, {"time": 25200, "pitch": 45, "duration": 250, "velocity": 94}, {"time": 25440, "pitch": 57, "duration": 810, "velocity": 123}, {"time": 25440, "pitch": 60, "duration": 880, "velocity": 116}, {"time": 25440, "pitch": 67, "duration": 710, "velocity": 113}, {"time": 25450, "pitch": 38, "duration": 510, "velocity": 108}, {"time": 25450, "pitch": 65, "duration": 770, "velocity": 105}, {"time": 26160, "pitch": 38, "duration": 270, "velocity": 111}, {"time": 26400, "pitch": 55, "duration": 780, "velocity": 110}, {"time": 26400, "pitch": 60, "duration": 830, "velocity": 98}, {"time": 26400, "pitch": 67, "duration": 810, "velocity": 96}, {"time": 26410, "pitch": 40, "duration": 570, "velocity": 99}, {"time": 26410, "pitch": 64, "duration": 760, "velocity": 96}, {"time": 27130, "pitch": 39, "duration": 120, "velocity": 103}, {"time": 27250, "pitch": 40, "duration": 110, "velocity": 95}, {"time": 27360, "pitch": 41, "duration": 690, "velocity": 104}, {"time": 27360, "pitch": 57, "duration": 580, "velocity": 118}, {"time": 27360, "pitch": 60, "duration": 570, "velocity": 111}, {"time": 27360, "pitch": 65, "duration": 570, "velocity": 107}, {"time": 27360, "pitch": 67, "duration": 520, "velocity": 113}, {"time": 28070, "pitch": 38, "duration": 300, "velocity": 102}, {"time": 28320, "pitch": 53, "duration": 680, "velocity": 111}, {"time": 28320, "pitch": 57, "duration": 720, "velocity": 106}, {"time": 28320, "pitch": 60, "duration": 540, "velocity": 114}, {"time": 28330, "pitch": 31, "duration": 720, "velocity": 107}, {"time": 28800, "pitch": 62, "duration": 230, "velocity": 106}, {"time": 29040, "pitch": 43, "duration": 150, "velocity": 100}, {"time": 29280, "pitch": 36, "duration": 1730, "velocity": 97}, {"time": 29280, "pitch": 48, "duration": 1020, "velocity": 98}, {"time": 29280, "pitch": 55, "duration": 470, "velocity": 113}, {"time": 29280, "pitch": 59, "duration": 760, "velocity": 118}, {"time": 29280, "pitch": 62, "duration": 740, "velocity": 116}, {"time": 29980, "pitch": 55, "duration": 470, "velocity": 118}, {"time": 29980, "pitch": 64, "duration": 950, "velocity": 109}, {"time": 29990, "pitch": 60, "duration": 930, "velocity": 108}, {"time": 30470, "pitch": 48, "duration": 250, "velocity": 91}, {"time": 30710, "pitch": 55, "duration": 220, "velocity": 110}, {"time": 30950, "pitch": 48, "duration": 110, "velocity": 98}, {"time": 31180, "pitch": 36, "duration": 1700, "velocity": 101}, {"time": 31180, "pitch": 48, "duration": 140, "velocity": 96}, {"time": 31180, "pitch": 57, "duration": 730, "velocity": 118}, {"time": 31180, "pitch": 60, "duration": 760, "velocity": 99}, {"time": 31180, "pitch": 65, "duration": 750, "velocity": 117}, {"time": 31440, "pitch": 48, "duration": 320, "velocity": 97}, {"time": 31920, "pitch": 48, "duration": 340, "velocity": 89}, {"time": 32160, "pitch": 57, "duration": 570, "velocity": 118}, {"time": 32160, "pitch": 65, "duration": 690, "velocity": 113}, {"time": 32170, "pitch": 60, "duration": 660, "velocity": 110}, {"time": 32420, "pitch": 48, "duration": 280, "velocity": 99}, {"time": 32890, "pitch": 48, "duration": 100, "velocity": 98}, {"time": 33110, "pitch": 40, "duration": 680, "velocity": 109}, {"time": 33110, "pitch": 59, "duration": 1020, "velocity": 122}, {"time": 33110, "pitch": 62, "duration": 1040, "velocity": 102}, {"time": 33110, "pitch": 64, "duration": 1040, "velocity": 109}, {"time": 33110, "pitch": 67, "duration": 990, "velocity": 117}, {"time": 33120, "pitch": 52, "duration": 730, "velocity": 102}, {"time": 33840, "pitch": 55, "duration": 530, "velocity": 107}, {"time": 34070, "pitch": 40, "duration": 710, "velocity": 87}, {"time": 34320, "pitch": 59, "duration": 340, "velocity": 122}, {"time": 34320, "pitch": 62, "duration": 300, "velocity": 110}, {"time": 34320, "pitch": 64, "duration": 320, "velocity": 105}, {"time": 34320, "pitch": 67, "duration": 490, "velocity": 117}, {"time": 34800, "pitch": 40, "duration": 80, "velocity": 105}, {"time": 35030, "pitch": 33, "duration": 650, "velocity": 104}, {"time": 35030, "pitch": 57, "duration": 820, "velocity": 119}, {"time": 35030, "pitch": 60, "duration": 730, "velocity": 118}, {"time": 35030, "pitch": 64, "duration": 710, "velocity": 102}, {"time": 35030, "pitch": 67, "duration": 770, "velocity": 111}, {"time": 35760, "pitch": 33, "duration": 670, "velocity": 100}, {"time": 36000, "pitch": 57, "duration": 440, "velocity": 111}, {"time": 36000, "pitch": 60, "duration": 610, "velocity": 112}, {"time": 36000, "pitch": 64, "duration": 570, "velocity": 97}, {"time": 36470, "pitch": 33, "duration": 70, "velocity": 109}, {"time": 36470, "pitch": 45, "duration": 80, "velocity": 108}, {"time": 36470, "pitch": 55, "duration": 430, "velocity": 97}, {"time": 36710, "pitch": 44, "duration": 80, "velocity": 109}, {"time": 36720, "pitch": 32, "duration": 50, "velocity": 113}, {"time": 36960, "pitch": 31, "duration": 1640, "velocity": 95}, {"time": 36960, "pitch": 43, "duration": 740, "velocity": 93}, {"time": 36960, "pitch": 55, "duration": 480, "velocity": 113}, {"time": 36960, "pitch": 58, "duration": 470, "velocity": 112}, {"time": 36960, "pitch": 62, "duration": 520, "velocity": 114}, {"time": 37680, "pitch": 55, "duration": 410, "velocity": 108}, {"time": 37680, "pitch": 58, "duration": 400, "velocity": 106}, {"time": 37680, "pitch": 62, "duration": 410, "velocity": 104}, {"time": 37910, "pitch": 43, "duration": 340, "velocity": 102}, {"time": 38400, "pitch": 55, "duration": 310, "velocity": 101}, {"time": 38400, "pitch": 58, "duration": 330, "velocity": 96}, {"time": 38400, "pitch": 62, "duration": 380, "velocity": 98}, {"time": 38640, "pitch": 43, "duration": 90, "velocity": 103}, {"time": 38880, "pitch": 36, "duration": 1950, "velocity": 106}, {"time": 38880, "pitch": 48, "duration": 550, "velocity": 108}, {"time": 38880, "pitch": 55, "duration": 830, "velocity": 114}, {"time": 38880, "pitch": 58, "duration": 660, "velocity": 116}, {"time": 38880, "pitch": 62, "duration": 900, "velocity": 113}, {"time": 39600, "pitch": 48, "duration": 110, "velocity": 92}, {"time": 39840, "pitch": 55, "duration": 670, "velocity": 115}, {"time": 39840, "pitch": 58, "duration": 620, "velocity": 114}, {"time": 39840, "pitch": 64, "duration": 650, "velocity": 111}, {"time": 39850, "pitch": 48, "duration": 500, "velocity": 100}, {"time": 40540, "pitch": 48, "duration": 290, "velocity": 90}, {"time": 40790, "pitch": 53, "duration": 350, "velocity": 113}, {"time": 40790, "pitch": 57, "duration": 390, "velocity": 111}, {"time": 40790, "pitch": 60, "duration": 440, "velocity": 116}, {"time": 40800, "pitch": 41, "duration": 530, "velocity": 111}, {"time": 41510, "pitch": 41, "duration": 280, "velocity": 101}, {"time": 41760, "pitch": 60, "duration": 830, "velocity": 122}, {"time": 41760, "pitch": 67, "duration": 870, "velocity": 117}, {"time": 41760, "pitch": 72, "duration": 760, "velocity": 117}, {"time": 41770, "pitch": 40, "duration": 490, "velocity": 115}, {"time": 42480, "pitch": 48, "duration": 250, "velocity": 90}, {"time": 42710, "pitch": 60, "duration": 610, "velocity": 114}, {"time": 42710, "pitch": 69, "duration": 720, "velocity": 117}, {"time": 42720, "pitch": 38, "duration": 730, "velocity": 108}, {"time": 42720, "pitch": 65, "duration": 620, "velocity": 105}, {"time": 43400, "pitch": 40, "duration": 160, "velocity": 99}, {"time": 43490, "pitch": 41, "duration": 90, "velocity": 99}, {"time": 43560, "pitch": 42, "duration": 140, "velocity": 111}, {"time": 43680, "pitch": 43, "duration": 1740, "velocity": 111}, {"time": 43680, "pitch": 62, "duration": 300, "velocity": 108}, {"time": 43680, "pitch": 65, "duration": 320, "velocity": 115}, {"time": 43680, "pitch": 72, "duration": 380, "velocity": 115}, {"time": 44390, "pitch": 31, "duration": 70, "velocity": 93}, {"time": 44460, "pitch": 67, "duration": 640, "velocity": 98}, {"time": 44530, "pitch": 72, "duration": 550, "velocity": 107}, {"time": 44580, "pitch": 31, "duration": 490, "velocity": 107}, {"time": 44620, "pitch": 74, "duration": 460, "velocity": 121}, {"time": 44670, "pitch": 79, "duration": 360, "velocity": 121}, {"time": 45370, "pitch": 31, "duration": 910, "velocity": 103}, {"time": 45610, "pitch": 43, "duration": 500, "velocity": 100}, {"time": 45610, "pitch": 53, "duration": 310, "velocity": 108}, {"time": 45610, "pitch": 57, "duration": 340, "velocity": 107}, {"time": 45610, "pitch": 60, "duration": 380, "velocity": 109}, {"time": 46080, "pitch": 56, "duration": 240, "velocity": 108}, {"time": 46080, "pitch": 59, "duration": 230, "velocity": 106}, {"time": 46080, "pitch": 62, "duration": 260, "velocity": 107}, {"time": 46310, "pitch": 43, "duration": 130, "velocity": 84}, {"time": 46560, "pitch": 36, "duration": 1440, "velocity": 92}, {"time": 46560, "pitch": 48, "duration": 1010, "velocity": 101}, {"time": 46560, "pitch": 55, "duration": 390, "velocity": 113}, {"time": 46560, "pitch": 60, "duration": 490, "velocity": 103}, {"time": 46560, "pitch": 64, "duration": 470, "velocity": 117}, {"time": 46560, "pitch": 67, "duration": 470, "velocity": 110}, {"time": 47040, "pitch": 55, "duration": 200, "velocity": 106}, {"time": 47280, "pitch": 60, "duration": 300, "velocity": 86}, {"time": 47280, "pitch": 64, "duration": 310, "velocity": 91}, {"time": 47280, "pitch": 67, "duration": 260, "velocity": 115}, {"time": 47760, "pitch": 48, "duration": 480, "velocity": 105}, {"time": 48000, "pitch": 55, "duration": 460, "velocity": 105}, {"time": 48240, "pitch": 36, "duration": 90, "velocity": 90}, {"time": 48480, "pitch": 35, "duration": 350, "velocity": 107}, {"time": 48480, "pitch": 47, "duration": 440, "velocity": 103}, {"time": 48480, "pitch": 59, "duration": 480, "velocity": 94}, {"time": 48480, "pitch": 62, "duration": 300, "velocity": 100}, {"time": 48480, "pitch": 65, "duration": 500, "velocity": 91}, {"time": 48950, "pitch": 57, "duration": 170, "velocity": 91}, {"time": 49190, "pitch": 49, "duration": 140, "velocity": 110}, {"time": 49280, "pitch": 50, "duration": 100, "velocity": 83}, {"time": 49360, "pitch": 51, "duration": 120, "velocity": 110}, {"time": 49450, "pitch": 52, "duration": 450, "velocity": 103}, {"time": 49450, "pitch": 56, "duration": 420, "velocity": 114}, {"time": 49450, "pitch": 64, "duration": 520, "velocity": 111}, {"time": 49920, "pitch": 59, "duration": 100, "velocity": 111}, {"time": 49920, "pitch": 65, "duration": 120, "velocity": 112}, {"time": 50400, "pitch": 33, "duration": 1190, "velocity": 98}, {"time": 50400, "pitch": 45, "duration": 1190, "velocity": 106}, {"time": 50400, "pitch": 55, "duration": 360, "velocity": 114}, {"time": 50400, "pitch": 60, "duration": 450, "velocity": 102}, {"time": 50400, "pitch": 64, "duration": 440, "velocity": 114}, {"time": 50880, "pitch": 55, "duration": 210, "velocity": 101}, {"time": 51130, "pitch": 55, "duration": 350, "velocity": 110}, {"time": 51130, "pitch": 64, "duration": 320, "velocity": 114}, {"time": 51140, "pitch": 60, "duration": 320, "velocity": 102}, {"time": 51610, "pitch": 55, "duration": 80, "velocity": 113}, {"time": 51610, "pitch": 64, "duration": 80, "velocity": 109}, {"time": 51620, "pitch": 60, "duration": 90, "velocity": 88}, {"time": 52080, "pitch": 63, "duration": 70, "velocity": 106}, {"time": 52090, "pitch": 32, "duration": 90, "velocity": 97}, {"time": 52090, "pitch": 44, "duration": 90, "velocity": 91}, {"time": 52090, "pitch": 56, "duration": 80, "velocity": 93}, {"time": 52090, "pitch": 59, "duration": 80, "velocity": 96}, {"time": 52320, "pitch": 31, "duration": 650, "velocity": 110}, {"time": 52320, "pitch": 43, "duration": 450, "velocity": 99}, {"time": 52320, "pitch": 55, "duration": 550, "velocity": 105}, {"time": 52320, "pitch": 58, "duration": 530, "velocity": 107}, {"time": 52320, "pitch": 62, "duration": 540, "velocity": 99}, {"time": 53020, "pitch": 33, "duration": 100, "velocity": 95}, {"time": 53100, "pitch": 34, "duration": 130, "velocity": 105}, {"time": 53190, "pitch": 35, "duration": 120, "velocity": 94}, {"time": 53290, "pitch": 36, "duration": 580, "velocity": 104}, {"time": 53290, "pitch": 60, "duration": 530, "velocity": 114}, {"time": 53290, "pitch": 64, "duration": 530, "velocity": 117}, {"time": 53300, "pitch": 55, "duration": 430, "velocity": 99}, {"time": 53760, "pitch": 55, "duration": 310, "velocity": 93}, {"time": 54240, "pitch": 29, "duration": 1480, "velocity": 101}, {"time": 54240, "pitch": 41, "duration": 980, "velocity": 102}, {"time": 54240, "pitch": 57, "duration": 200, "velocity": 107}, {"time": 54240, "pitch": 60, "duration": 250, "velocity": 103}, {"time": 54240, "pitch": 64, "duration": 270, "velocity": 117}, {"time": 54240, "pitch": 67, "duration": 270, "velocity": 97}, {"time": 54960, "pitch": 60, "duration": 370, "velocity": 127}, {"time": 54960, "pitch": 72, "duration": 310, "velocity": 127}, {"time": 55430, "pitch": 41, "duration": 520, "velocity": 107}, {"time": 55670, "pitch": 57, "duration": 140, "velocity": 99}, {"time": 55670, "pitch": 60, "duration": 170, "velocity": 96}, {"time": 55670, "pitch": 65, "duration": 130, "velocity": 95}, {"time": 55910, "pitch": 29, "duration": 100, "velocity": 103}, {"time": 56160, "pitch": 28, "duration": 1430, "velocity": 88}, {"time": 56160, "pitch": 40, "duration": 250, "velocity": 110}, {"time": 56160, "pitch": 60, "duration": 320, "velocity": 103}, {"time": 56160, "pitch": 64, "duration": 350, "velocity": 107}, {"time": 56160, "pitch": 67, "duration": 350, "velocity": 97}, {"time": 56640, "pitch": 40, "duration": 480, "velocity": 91}, {"time": 56880, "pitch": 60, "duration": 290, "velocity": 127}, {"time": 56880, "pitch": 72, "duration": 240, "velocity": 127}, {"time": 57350, "pitch": 40, "duration": 510, "velocity": 111}, {"time": 57590, "pitch": 60, "duration": 250, "velocity": 118}, {"time": 57830, "pitch": 28, "duration": 100, "velocity": 110}, {"time": 58070, "pitch": 53, "duration": 850, "velocity": 113}, {"time": 58070, "pitch": 57, "duration": 820, "velocity": 107}, {"time": 58070, "pitch": 60, "duration": 820, "velocity": 116}, {"time": 58080, "pitch": 26, "duration": 360, "velocity": 98}, {"time": 58080, "pitch": 38, "duration": 420, "velocity": 108}, {"time": 58800, "pitch": 38, "duration": 160, "velocity": 98}, {"time": 59040, "pitch": 53, "duration": 690, "velocity": 105}, {"time": 59040, "pitch": 60, "duration": 680, "velocity": 117}, {"time": 59050, "pitch": 38, "duration": 420, "velocity": 107}, {"time": 59050, "pitch": 50, "duration": 350, "velocity": 104}, {"time": 59050, "pitch": 57, "duration": 680, "velocity": 104}, {"time": 59760, "pitch": 38, "duration": 60, "velocity": 93}, {"time": 60000, "pitch": 31, "duration": 460, "velocity": 119}, {"time": 60000, "pitch": 43, "duration": 740, "velocity": 108}, {"time": 60000, "pitch": 50, "duration": 740, "velocity": 98}, {"time": 60000, "pitch": 53, "duration": 470, "velocity": 114}, {"time": 60000, "pitch": 57, "duration": 480, "velocity": 110}, {"time": 60000, "pitch": 60, "duration": 540, "velocity": 120}, {"time": 60710, "pitch": 31, "duration": 100, "velocity": 114}, {"time": 60950, "pitch": 31, "duration": 270, "velocity": 105}, {"time": 60950, "pitch": 43, "duration": 290, "velocity": 102}, {"time": 60950, "pitch": 55, "duration": 270, "velocity": 113}, {"time": 60950, "pitch": 59, "duration": 280, "velocity": 106}, {"time": 60950, "pitch": 62, "duration": 290, "velocity": 113}, {"time": 61430, "pitch": 32, "duration": 280, "velocity": 100}, {"time": 61430, "pitch": 44, "duration": 300, "velocity": 109}, {"time": 61430, "pitch": 56, "duration": 340, "velocity": 113}, {"time": 61430, "pitch": 59, "duration": 380, "velocity": 93}, {"time": 61430, "pitch": 64, "duration": 290, "velocity": 114}, {"time": 61670, "pitch": 62, "duration": 250, "velocity": 108}, {"time": 61920, "pitch": 33, "duration": 1090, "velocity": 104}, {"time": 61920, "pitch": 45, "duration": 1070, "velocity": 103}, {"time": 61920, "pitch": 52, "duration": 540, "velocity": 95}, {"time": 61920, "pitch": 57, "duration": 450, "velocity": 107}, {"time": 61920, "pitch": 60, "duration": 530, "velocity": 112}, {"time": 62640, "pitch": 60, "duration": 490, "velocity": 109}, {"time": 62640, "pitch": 64, "duration": 450, "velocity": 111}, {"time": 62650, "pitch": 57, "duration": 470, "velocity": 110}, {"time": 63120, "pitch": 45, "duration": 350, "velocity": 114}, {"time": 63360, "pitch": 52, "duration": 270, "velocity": 125}, {"time": 63600, "pitch": 32, "duration": 220, "velocity": 99}, {"time": 63600, "pitch": 44, "duration": 220, "velocity": 102}, {"time": 63600, "pitch": 51, "duration": 80, "velocity": 119}, {"time": 63830, "pitch": 31, "duration": 720, "velocity": 116}, {"time": 63830, "pitch": 43, "duration": 120, "velocity": 108}, {"time": 63830, "pitch": 55, "duration": 340, "velocity": 116}, {"time": 63830, "pitch": 58, "duration": 330, "velocity": 121}, {"time": 63830, "pitch": 62, "duration": 350, "velocity": 111}, {"time": 64080, "pitch": 43, "duration": 250, "velocity": 111}, {"time": 64320, "pitch": 52, "duration": 320, "velocity": 109}, {"time": 64560, "pitch": 43, "duration": 140, "velocity": 111}, {"time": 64800, "pitch": 36, "duration": 830, "velocity": 106}, {"time": 64800, "pitch": 48, "duration": 120, "velocity": 108}, {"time": 64800, "pitch": 55, "duration": 330, "velocity": 110}, {"time": 64800, "pitch": 58, "duration": 420, "velocity": 112}, {"time": 64800, "pitch": 62, "duration": 390, "velocity": 103}, {"time": 65030, "pitch": 48, "duration": 250, "velocity": 108}, {"time": 65270, "pitch": 55, "duration": 390, "velocity": 101}, {"time": 65690, "pitch": 53, "duration": 100, "velocity": 111}, {"time": 65730, "pitch": 57, "duration": 120, "velocity": 108}, {"time": 65760, "pitch": 41, "duration": 420, "velocity": 103}, {"time": 65770, "pitch": 60, "duration": 100, "velocity": 111}, {"time": 65790, "pitch": 64, "duration": 120, "velocity": 119}, {"time": 66000, "pitch": 65, "duration": 520, "velocity": 119}, {"time": 66240, "pitch": 69, "duration": 370, "velocity": 119}, {"time": 66480, "pitch": 72, "duration": 160, "velocity": 124}, {"time": 66690, "pitch": 65, "duration": 380, "velocity": 107}, {"time": 66700, "pitch": 69, "duration": 360, "velocity": 117}, {"time": 66710, "pitch": 76, "duration": 310, "velocity": 121}, {"time": 66720, "pitch": 72, "duration": 380, "velocity": 98}, {"time": 66730, "pitch": 48, "duration": 730, "velocity": 110}, {"time": 67430, "pitch": 47, "duration": 280, "velocity": 96}, {"time": 67640, "pitch": 56, "duration": 610, "velocity": 98}, {"time": 67680, "pitch": 46, "duration": 1480, "velocity": 104}, {"time": 67680, "pitch": 62, "duration": 1470, "velocity": 106}, {"time": 67700, "pitch": 67, "duration": 1440, "velocity": 115}, {"time": 67720, "pitch": 72, "duration": 1440, "velocity": 106}, {"time": 68620, "pitch": 56, "duration": 520, "velocity": 96}, {"time": 69600, "pitch": 52, "duration": 320, "velocity": 112}, {"time": 69600, "pitch": 59, "duration": 480, "velocity": 112}, {"time": 69600, "pitch": 62, "duration": 510, "velocity": 109}, {"time": 69600, "pitch": 67, "duration": 510, "velocity": 117}, {"time": 70070, "pitch": 52, "duration": 290, "velocity": 99}, {"time": 70310, "pitch": 57, "duration": 550, "velocity": 114}, {"time": 70310, "pitch": 65, "duration": 810, "velocity": 118}, {"time": 70320, "pitch": 45, "duration": 310, "velocity": 101}, {"time": 70320, "pitch": 61, "duration": 750, "velocity": 112}, {"time": 70800, "pitch": 45, "duration": 430, "velocity": 114}, {"time": 71280, "pitch": 57, "duration": 440, "velocity": 123}, {"time": 71280, "pitch": 60, "duration": 870, "velocity": 112}, {"time": 71280, "pitch": 65, "duration": 850, "velocity": 125}, {"time": 71290, "pitch": 50, "duration": 330, "velocity": 110}, {"time": 71290, "pitch": 62, "duration": 870, "velocity": 85}, {"time": 71760, "pitch": 50, "duration": 240, "velocity": 113}, {"time": 72000, "pitch": 57, "duration": 220, "velocity": 119}, {"time": 72240, "pitch": 50, "duration": 210, "velocity": 108}, {"time": 72480, "pitch": 53, "duration": 590, "velocity": 95}, {"time": 72480, "pitch": 57, "duration": 610, "velocity": 98}, {"time": 72480, "pitch": 60, "duration": 640, "velocity": 104}, {"time": 72490, "pitch": 43, "duration": 610, "velocity": 100}, {"time": 73330, "pitch": 53, "duration": 120, "velocity": 97}, {"time": 73390, "pitch": 57, "duration": 120, "velocity": 106}, {"time": 73450, "pitch": 36, "duration": 1660, "velocity": 102}, {"time": 73450, "pitch": 48, "duration": 1670, "velocity": 106}, {"time": 73470, "pitch": 62, "duration": 120, "velocity": 111}, {"time": 73790, "pitch": 65, "duration": 900, "velocity": 127}, {"time": 74100, "pitch": 69, "duration": 570, "velocity": 124}, {"time": 74410, "pitch": 74, "duration": 350, "velocity": 127}, {"time": 75160, "pitch": 43, "duration": 240, "velocity": 95}, {"time": 75360, "pitch": 36, "duration": 1420, "velocity": 109}, {"time": 75360, "pitch": 48, "duration": 1430, "velocity": 106}, {"time": 75360, "pitch": 64, "duration": 540, "velocity": 109}, {"time": 75360, "pitch": 72, "duration": 870, "velocity": 120}, {"time": 75370, "pitch": 67, "duration": 1440, "velocity": 86}, {"time": 76320, "pitch": 60, "duration": 510, "velocity": 123}, {"time": 77280, "pitch": 41, "duration": 540, "velocity": 106}, {"time": 77280, "pitch": 53, "duration": 530, "velocity": 108}, {"time": 77280, "pitch": 60, "duration": 410, "velocity": 117}, {"time": 77280, "pitch": 65, "duration": 300, "velocity": 115}, {"time": 77280, "pitch": 69, "duration": 320, "velocity": 118}, {"time": 77520, "pitch": 72, "duration": 450, "velocity": 111}, {"time": 77990, "pitch": 60, "duration": 580, "velocity": 107}, {"time": 77990, "pitch": 64, "duration": 530, "velocity": 114}, {"time": 77990, "pitch": 67, "duration": 510, "velocity": 117}, {"time": 78000, "pitch": 40, "duration": 650, "velocity": 109}, {"time": 78000, "pitch": 52, "duration": 640, "velocity": 111}, {"time": 78480, "pitch": 72, "duration": 400, "velocity": 98}, {"time": 78930, "pitch": 62, "duration": 120, "velocity": 107}, {"time": 78940, "pitch": 38, "duration": 100, "velocity": 114}, {"time": 78940, "pitch": 60, "duration": 70, "velocity": 92}, {"time": 78940, "pitch": 65, "duration": 100, "velocity": 102}, {"time": 78950, "pitch": 50, "duration": 70, "velocity": 106}, {"time": 79460, "pitch": 40, "duration": 130, "velocity": 101}, {"time": 79560, "pitch": 41, "duration": 130, "velocity": 98}, {"time": 79690, "pitch": 43, "duration": 940, "velocity": 97}, {"time": 79690, "pitch": 62, "duration": 740, "velocity": 113}, {"time": 79690, "pitch": 65, "duration": 1020, "velocity": 111}, {"time": 79690, "pitch": 69, "duration": 1020, "velocity": 106}, {"time": 79690, "pitch": 72, "duration": 790, "velocity": 104}, {"time": 80400, "pitch": 31, "duration": 470, "velocity": 114}, {"time": 80640, "pitch": 60, "duration": 140, "velocity": 111}, {"time": 80870, "pitch": 43, "duration": 70, "velocity": 95}, {"time": 81110, "pitch": 55, "duration": 520, "velocity": 115}, {"time": 81110, "pitch": 60, "duration": 550, "velocity": 110}, {"time": 81110, "pitch": 64, "duration": 500, "velocity": 108}, {"time": 81120, "pitch": 36, "duration": 1700, "velocity": 103}, {"time": 81600, "pitch": 67, "duration": 270, "velocity": 106}, {"time": 81830, "pitch": 65, "duration": 540, "velocity": 113}, {"time": 81840, "pitch": 57, "duration": 580, "velocity": 107}, {"time": 81840, "pitch": 60, "duration": 560, "velocity": 104}, {"time": 81850, "pitch": 48, "duration": 970, "velocity": 93}, {"time": 82320, "pitch": 67, "duration": 720, "velocity": 111}, {"time": 82790, "pitch": 43, "duration": 290, "velocity": 98}, {"time": 83030, "pitch": 60, "duration": 390, "velocity": 95}, {"time": 83030, "pitch": 64, "duration": 460, "velocity": 100}, {"time": 83050, "pitch": 36, "duration": 1500, "velocity": 99}, {"time": 83050, "pitch": 55, "duration": 320, "velocity": 80}, {"time": 83520, "pitch": 55, "duration": 300, "velocity": 69}, {"time": 83760, "pitch": 60, "duration": 310, "velocity": 114}, {"time": 84000, "pitch": 67, "duration": 280, "velocity": 127}, {"time": 84250, "pitch": 64, "duration": 290, "velocity": 109}, {"time": 84490, "pitch": 60, "duration": 270, "velocity": 108}, {"time": 84720, "pitch": 55, "duration": 100, "velocity": 110}, {"time": 84960, "pitch": 36, "duration": 1670, "velocity": 95}, {"time": 84960, "pitch": 55, "duration": 520, "velocity": 107}, {"time": 84960, "pitch": 59, "duration": 760, "velocity": 113}, {"time": 84960, "pitch": 62, "duration": 720, "velocity": 114}, {"time": 85680, "pitch": 55, "duration": 510, "velocity": 111}, {"time": 85680, "pitch": 60, "duration": 910, "velocity": 110}, {"time": 85680, "pitch": 64, "duration": 950, "velocity": 109}, {"time": 86170, "pitch": 48, "duration": 240, "velocity": 98}, {"time": 86400, "pitch": 55, "duration": 360, "velocity": 108}, {"time": 86630, "pitch": 48, "duration": 440, "velocity": 95}, {"time": 86870, "pitch": 64, "duration": 740, "velocity": 109}, {"time": 86880, "pitch": 57, "duration": 610, "velocity": 109}, {"time": 86880, "pitch": 60, "duration": 710, "velocity": 106}, {"time": 86890, "pitch": 36, "duration": 110, "velocity": 92}, {"time": 87120, "pitch": 36, "duration": 220, "velocity": 96}, {"time": 87360, "pitch": 53, "duration": 460, "velocity": 83}, {"time": 87580, "pitch": 36, "duration": 330, "velocity": 88}, {"time": 87610, "pitch": 60, "duration": 580, "velocity": 111}, {"time": 87610, "pitch": 65, "duration": 1150, "velocity": 111}, {"time": 87620, "pitch": 57, "duration": 530, "velocity": 104}, {"time": 88070, "pitch": 36, "duration": 170, "velocity": 94}, {"time": 88310, "pitch": 57, "duration": 390, "velocity": 101}, {"time": 88550, "pitch": 36, "duration": 100, "velocity": 98}, {"time": 88790, "pitch": 36, "duration": 530, "velocity": 96}, {"time": 88790, "pitch": 59, "duration": 390, "velocity": 114}, {"time": 88790, "pitch": 62, "duration": 490, "velocity": 110}, {"time": 88790, "pitch": 67, "duration": 330, "velocity": 112}, {"time": 89270, "pitch": 55, "duration": 80, "velocity": 107}, {"time": 89510, "pitch": 59, "duration": 70, "velocity": 96}, {"time": 89520, "pitch": 62, "duration": 70, "velocity": 97}, {"time": 89980, "pitch": 48, "duration": 430, "velocity": 92}, {"time": 89980, "pitch": 59, "duration": 460, "velocity": 118}, {"time": 89990, "pitch": 67, "duration": 380, "velocity": 124}, {"time": 90460, "pitch": 43, "duration": 120, "velocity": 94}, {"time": 90710, "pitch": 55, "duration": 420, "velocity": 113}, {"time": 90710, "pitch": 60, "duration": 960, "velocity": 111}, {"time": 90710, "pitch": 64, "duration": 960, "velocity": 114}, {"time": 90720, "pitch": 36, "duration": 210, "velocity": 102}, {"time": 90960, "pitch": 36, "duration": 1460, "velocity": 76}, {"time": 91190, "pitch": 55, "duration": 190, "velocity": 102}, {"time": 91430, "pitch": 55, "duration": 1030, "velocity": 102}, {"time": 91690, "pitch": 48, "duration": 850, "velocity": 85}, {"time": 91920, "pitch": 60, "duration": 310, "velocity": 114}, {"time": 92640, "pitch": 40, "duration": 690, "velocity": 112}, {"time": 92640, "pitch": 55, "duration": 710, "velocity": 109}, {"time": 92640, "pitch": 59, "duration": 710, "velocity": 119}, {"time": 92640, "pitch": 62, "duration": 680, "velocity": 107}, {"time": 93350, "pitch": 52, "duration": 530, "velocity": 111}, {"time": 93590, "pitch": 55, "duration": 640, "velocity": 111}, {"time": 93590, "pitch": 59, "duration": 660, "velocity": 111}, {"time": 93590, "pitch": 62, "duration": 530, "velocity": 100}, {"time": 93840, "pitch": 40, "duration": 230, "velocity": 111}, {"time": 94080, "pitch": 52, "duration": 200, "velocity": 110}, {"time": 94300, "pitch": 40, "duration": 90, "velocity": 111}, {"time": 94550, "pitch": 57, "duration": 870, "velocity": 116}, {"time": 94550, "pitch": 60, "duration": 890, "velocity": 117}, {"time": 94550, "pitch": 67, "duration": 840, "velocity": 110}, {"time": 94560, "pitch": 33, "duration": 480, "velocity": 112}, {"time": 94560, "pitch": 64, "duration": 890, "velocity": 94}, {"time": 95290, "pitch": 33, "duration": 250, "velocity": 109}, {"time": 95520, "pitch": 45, "duration": 320, "velocity": 107}, {"time": 95520, "pitch": 60, "duration": 560, "velocity": 108}, {"time": 95520, "pitch": 64, "duration": 490, "velocity": 96}, {"time": 95520, "pitch": 67, "duration": 560, "velocity": 113}, {"time": 95990, "pitch": 55, "duration": 490, "velocity": 111}, {"time": 96240, "pitch": 45, "duration": 250, "velocity": 86}, {"time": 96480, "pitch": 38, "duration": 510, "velocity": 108}, {"time": 96480, "pitch": 57, "duration": 410, "velocity": 113}, {"time": 96480, "pitch": 60, "duration": 880, "velocity": 116}, {"time": 96480, "pitch": 65, "duration": 770, "velocity": 105}, {"time": 96960, "pitch": 57, "duration": 260, "velocity": 95}, {"time": 97200, "pitch": 38, "duration": 270, "velocity": 111}, {"time": 97440, "pitch": 55, "duration": 470, "velocity": 100}, {"time": 97440, "pitch": 60, "duration": 830, "velocity": 98}, {"time": 97440, "pitch": 64, "duration": 760, "velocity": 106}, {"time": 97440, "pitch": 67, "duration": 810, "velocity": 106}, {"time": 97450, "pitch": 40, "duration": 570, "velocity": 109}, {"time": 97910, "pitch": 55, "duration": 570, "velocity": 109}, {"time": 98170, "pitch": 39, "duration": 120, "velocity": 103}, {"time": 98280, "pitch": 40, "duration": 90, "velocity": 93}, {"time": 98400, "pitch": 41, "duration": 690, "velocity": 104}, {"time": 98400, "pitch": 57, "duration": 580, "velocity": 118}, {"time": 98400, "pitch": 60, "duration": 570, "velocity": 111}, {"time": 98400, "pitch": 65, "duration": 570, "velocity": 107}, {"time": 98400, "pitch": 67, "duration": 520, "velocity": 113}, {"time": 99100, "pitch": 38, "duration": 300, "velocity": 82}, {"time": 99370, "pitch": 53, "duration": 680, "velocity": 101}, {"time": 99370, "pitch": 57, "duration": 720, "velocity": 96}, {"time": 99370, "pitch": 60, "duration": 540, "velocity": 104}, {"time": 99380, "pitch": 31, "duration": 720, "velocity": 97}, {"time": 99840, "pitch": 62, "duration": 230, "velocity": 106}, {"time": 100080, "pitch": 43, "duration": 150, "velocity": 80}, {"time": 100320, "pitch": 36, "duration": 1730, "velocity": 97}, {"time": 100320, "pitch": 48, "duration": 1020, "velocity": 98}, {"time": 100320, "pitch": 55, "duration": 470, "velocity": 113}, {"time": 100320, "pitch": 59, "duration": 760, "velocity": 118}, {"time": 100320, "pitch": 62, "duration": 740, "velocity": 116}, {"time": 101040, "pitch": 55, "duration": 470, "velocity": 118}, {"time": 101040, "pitch": 64, "duration": 950, "velocity": 109}, {"time": 101050, "pitch": 60, "duration": 930, "velocity": 108}, {"time": 101520, "pitch": 48, "duration": 250, "velocity": 91}, {"time": 101750, "pitch": 55, "duration": 220, "velocity": 110}, {"time": 102000, "pitch": 48, "duration": 110, "velocity": 98}, {"time": 102230, "pitch": 36, "duration": 1870, "velocity": 101}, {"time": 102230, "pitch": 48, "duration": 130, "velocity": 96}, {"time": 102230, "pitch": 57, "duration": 720, "velocity": 118}, {"time": 102230, "pitch": 60, "duration": 620, "velocity": 99}, {"time": 102230, "pitch": 65, "duration": 640, "velocity": 117}, {"time": 102470, "pitch": 48, "duration": 930, "velocity": 68}, {"time": 102960, "pitch": 60, "duration": 270, "velocity": 113}, {"time": 102960, "pitch": 65, "duration": 390, "velocity": 118}, {"time": 102960, "pitch": 69, "duration": 400, "velocity": 121}, {"time": 103430, "pitch": 48, "duration": 280, "velocity": 83}, {"time": 103430, "pitch": 65, "duration": 600, "velocity": 117}, {"time": 103430, "pitch": 69, "duration": 620, "velocity": 115}, {"time": 103430, "pitch": 72, "duration": 610, "velocity": 117}, {"time": 103910, "pitch": 48, "duration": 130, "velocity": 78}, {"time": 104150, "pitch": 40, "duration": 480, "velocity": 109}, {"time": 104150, "pitch": 62, "duration": 1040, "velocity": 102}, {"time": 104150, "pitch": 64, "duration": 1040, "velocity": 109}, {"time": 104150, "pitch": 67, "duration": 990, "velocity": 117}, {"time": 104150, "pitch": 71, "duration": 1020, "velocity": 122}, {"time": 104870, "pitch": 40, "duration": 530, "velocity": 88}, {"time": 105110, "pitch": 52, "duration": 710, "velocity": 87}, {"time": 105350, "pitch": 64, "duration": 320, "velocity": 105}, {"time": 105350, "pitch": 67, "duration": 490, "velocity": 117}, {"time": 105350, "pitch": 71, "duration": 340, "velocity": 122}, {"time": 105350, "pitch": 74, "duration": 300, "velocity": 110}, {"time": 105830, "pitch": 40, "duration": 80, "velocity": 105}, {"time": 106070, "pitch": 45, "duration": 1040, "velocity": 104}, {"time": 106070, "pitch": 64, "duration": 710, "velocity": 102}, {"time": 106070, "pitch": 67, "duration": 770, "velocity": 111}, {"time": 106070, "pitch": 69, "duration": 820, "velocity": 119}, {"time": 106070, "pitch": 72, "duration": 730, "velocity": 118}, {"time": 106790, "pitch": 33, "duration": 370, "velocity": 100}, {"time": 107030, "pitch": 60, "duration": 610, "velocity": 102}, {"time": 107040, "pitch": 55, "duration": 600, "velocity": 106}, {"time": 107040, "pitch": 57, "duration": 560, "velocity": 101}, {"time": 107040, "pitch": 64, "duration": 570, "velocity": 97}, {"time": 107260, "pitch": 45, "duration": 80, "velocity": 108}, {"time": 107270, "pitch": 33, "duration": 70, "velocity": 99}, {"time": 107750, "pitch": 44, "duration": 80, "velocity": 99}, {"time": 107760, "pitch": 32, "duration": 50, "velocity": 93}, {"time": 108000, "pitch": 43, "duration": 540, "velocity": 93}, {"time": 108000, "pitch": 55, "duration": 480, "velocity": 113}, {"time": 108000, "pitch": 58, "duration": 470, "velocity": 112}, {"time": 108000, "pitch": 62, "duration": 520, "velocity": 114}, {"time": 108010, "pitch": 31, "duration": 1650, "velocity": 95}, {"time": 108720, "pitch": 43, "duration": 400, "velocity": 116}, {"time": 108950, "pitch": 55, "duration": 550, "velocity": 102}, {"time": 108950, "pitch": 58, "duration": 580, "velocity": 102}, {"time": 108950, "pitch": 62, "duration": 620, "velocity": 102}, {"time": 109680, "pitch": 43, "duration": 90, "velocity": 87}, {"time": 109920, "pitch": 36, "duration": 1950, "velocity": 106}, {"time": 109920, "pitch": 48, "duration": 550, "velocity": 108}, {"time": 109920, "pitch": 55, "duration": 830, "velocity": 114}, {"time": 109920, "pitch": 58, "duration": 660, "velocity": 116}, {"time": 109920, "pitch": 62, "duration": 900, "velocity": 113}, {"time": 109920, "pitch": 67, "duration": 510, "velocity": 121}, {"time": 110400, "pitch": 65, "duration": 510, "velocity": 121}, {"time": 110640, "pitch": 48, "duration": 110, "velocity": 102}, {"time": 110870, "pitch": 55, "duration": 670, "velocity": 115}, {"time": 110870, "pitch": 58, "duration": 620, "velocity": 114}, {"time": 110870, "pitch": 64, "duration": 650, "velocity": 111}, {"time": 110880, "pitch": 48, "duration": 500, "velocity": 100}, {"time": 111580, "pitch": 48, "duration": 290, "velocity": 100}, {"time": 111830, "pitch": 57, "duration": 390, "velocity": 111}, {"time": 111830, "pitch": 60, "duration": 440, "velocity": 106}, {"time": 111830, "pitch": 65, "duration": 350, "velocity": 113}, {"time": 111840, "pitch": 41, "duration": 530, "velocity": 111}, {"time": 112550, "pitch": 41, "duration": 280, "velocity": 101}, {"time": 112800, "pitch": 60, "duration": 830, "velocity": 122}, {"time": 112800, "pitch": 64, "duration": 760, "velocity": 107}, {"time": 112800, "pitch": 67, "duration": 870, "velocity": 117}, {"time": 112810, "pitch": 40, "duration": 490, "velocity": 98}, {"time": 113510, "pitch": 40, "duration": 230, "velocity": 90}, {"time": 113650, "pitch": 60, "duration": 710, "velocity": 114}, {"time": 113700, "pitch": 65, "duration": 680, "velocity": 117}, {"time": 113760, "pitch": 38, "duration": 730, "velocity": 108}, {"time": 113760, "pitch": 69, "duration": 710, "velocity": 117}, {"time": 114440, "pitch": 40, "duration": 160, "velocity": 99}, {"time": 114530, "pitch": 41, "duration": 90, "velocity": 99}, {"time": 114580, "pitch": 42, "duration": 140, "velocity": 111}, {"time": 114700, "pitch": 62, "duration": 300, "velocity": 108}, {"time": 114700, "pitch": 72, "duration": 380, "velocity": 115}, {"time": 114710, "pitch": 43, "duration": 1750, "velocity": 111}, {"time": 114710, "pitch": 65, "duration": 320, "velocity": 115}, {"time": 115440, "pitch": 31, "duration": 50, "velocity": 93}, {"time": 115580, "pitch": 67, "duration": 560, "velocity": 98}, {"time": 115630, "pitch": 72, "duration": 490, "velocity": 107}, {"time": 115660, "pitch": 31, "duration": 450, "velocity": 107}, {"time": 115670, "pitch": 74, "duration": 450, "velocity": 121}, {"time": 115710, "pitch": 79, "duration": 360, "velocity": 121}, {"time": 116410, "pitch": 31, "duration": 910, "velocity": 103}, {"time": 116630, "pitch": 43, "duration": 500, "velocity": 100}, {"time": 116640, "pitch": 53, "duration": 310, "velocity": 118}, {"time": 116640, "pitch": 57, "duration": 340, "velocity": 117}, {"time": 116640, "pitch": 60, "duration": 380, "velocity": 119}, {"time": 117120, "pitch": 56, "duration": 240, "velocity": 108}, {"time": 117120, "pitch": 59, "duration": 230, "velocity": 106}, {"time": 117120, "pitch": 62, "duration": 260, "velocity": 107}, {"time": 117350, "pitch": 43, "duration": 130, "velocity": 104}, {"time": 117600, "pitch": 48, "duration": 1270, "velocity": 101}, {"time": 117600, "pitch": 55, "duration": 390, "velocity": 113}, {"time": 117600, "pitch": 60, "duration": 490, "velocity": 103}, {"time": 117600, "pitch": 64, "duration": 470, "velocity": 117}, {"time": 117610, "pitch": 36, "duration": 1440, "velocity": 92}, {"time": 118080, "pitch": 55, "duration": 200, "velocity": 106}, {"time": 118320, "pitch": 60, "duration": 300, "velocity": 116}, {"time": 118320, "pitch": 64, "duration": 310, "velocity": 111}, {"time": 118320, "pitch": 67, "duration": 260, "velocity": 115}, {"time": 118790, "pitch": 55, "duration": 310, "velocity": 125}, {"time": 119030, "pitch": 60, "duration": 450, "velocity": 105}, {"time": 119270, "pitch": 36, "duration": 90, "velocity": 98}, {"time": 119520, "pitch": 35, "duration": 350, "velocity": 107}, {"time": 119520, "pitch": 47, "duration": 440, "velocity": 103}, {"time": 119520, "pitch": 57, "duration": 500, "velocity": 100}, {"time": 119520, "pitch": 59, "duration": 480, "velocity": 84}, {"time": 119520, "pitch": 64, "duration": 500, "velocity": 91}, {"time": 120230, "pitch": 49, "duration": 140, "velocity": 110}, {"time": 120320, "pitch": 50, "duration": 100, "velocity": 83}, {"time": 120390, "pitch": 51, "duration": 120, "velocity": 110}, {"time": 120470, "pitch": 64, "duration": 520, "velocity": 111}, {"time": 120480, "pitch": 56, "duration": 420, "velocity": 114}, {"time": 120490, "pitch": 52, "duration": 450, "velocity": 93}, {"time": 120960, "pitch": 59, "duration": 300, "velocity": 106}, {"time": 121440, "pitch": 45, "duration": 1190, "velocity": 106}, {"time": 121440, "pitch": 57, "duration": 460, "velocity": 112}, {"time": 121440, "pitch": 60, "duration": 450, "velocity": 102}, {"time": 121440, "pitch": 64, "duration": 440, "velocity": 114}, {"time": 121450, "pitch": 33, "duration": 1190, "velocity": 98}, {"time": 121920, "pitch": 55, "duration": 330, "velocity": 91}, {"time": 122160, "pitch": 60, "duration": 320, "velocity": 102}, {"time": 122160, "pitch": 64, "duration": 320, "velocity": 104}, {"time": 122160, "pitch": 69, "duration": 350, "velocity": 120}, {"time": 122640, "pitch": 60, "duration": 190, "velocity": 88}, {"time": 122640, "pitch": 64, "duration": 180, "velocity": 109}, {"time": 122640, "pitch": 69, "duration": 180, "velocity": 123}, {"time": 123100, "pitch": 63, "duration": 70, "velocity": 115}, {"time": 123110, "pitch": 68, "duration": 80, "velocity": 103}, {"time": 123120, "pitch": 32, "duration": 90, "velocity": 107}, {"time": 123120, "pitch": 44, "duration": 70, "velocity": 110}, {"time": 123350, "pitch": 58, "duration": 340, "velocity": 117}, {"time": 123350, "pitch": 62, "duration": 550, "velocity": 109}, {"time": 123350, "pitch": 67, "duration": 560, "velocity": 115}, {"time": 123360, "pitch": 31, "duration": 650, "velocity": 110}, {"time": 123360, "pitch": 43, "duration": 450, "velocity": 99}, {"time": 123830, "pitch": 58, "duration": 650, "velocity": 100}, {"time": 124060, "pitch": 33, "duration": 100, "velocity": 75}, {"time": 124140, "pitch": 34, "duration": 130, "velocity": 105}, {"time": 124230, "pitch": 35, "duration": 120, "velocity": 94}, {"time": 124330, "pitch": 36, "duration": 580, "velocity": 104}, {"time": 124330, "pitch": 60, "duration": 530, "velocity": 114}, {"time": 124330, "pitch": 64, "duration": 530, "velocity": 117}, {"time": 124330, "pitch": 67, "duration": 330, "velocity": 99}, {"time": 124800, "pitch": 55, "duration": 110, "velocity": 113}, {"time": 125280, "pitch": 29, "duration": 1480, "velocity": 101}, {"time": 125280, "pitch": 41, "duration": 980, "velocity": 102}, {"time": 125280, "pitch": 57, "duration": 200, "velocity": 107}, {"time": 125280, "pitch": 60, "duration": 250, "velocity": 103}, {"time": 125280, "pitch": 64, "duration": 270, "velocity": 107}, {"time": 125280, "pitch": 67, "duration": 250, "velocity": 121}, {"time": 126000, "pitch": 60, "duration": 370, "velocity": 122}, {"time": 126010, "pitch": 72, "duration": 310, "velocity": 121}, {"time": 126470, "pitch": 41, "duration": 520, "velocity": 107}, {"time": 126710, "pitch": 57, "duration": 140, "velocity": 109}, {"time": 126720, "pitch": 53, "duration": 130, "velocity": 108}, {"time": 126720, "pitch": 60, "duration": 170, "velocity": 109}, {"time": 126960, "pitch": 29, "duration": 100, "velocity": 113}, {"time": 127200, "pitch": 28, "duration": 1430, "velocity": 100}, {"time": 127200, "pitch": 40, "duration": 250, "velocity": 110}, {"time": 127200, "pitch": 60, "duration": 320, "velocity": 103}, {"time": 127200, "pitch": 64, "duration": 350, "velocity": 107}, {"time": 127200, "pitch": 67, "duration": 280, "velocity": 116}, {"time": 127680, "pitch": 40, "duration": 480, "velocity": 111}, {"time": 127920, "pitch": 60, "duration": 290, "velocity": 121}, {"time": 127920, "pitch": 72, "duration": 240, "velocity": 119}, {"time": 128390, "pitch": 40, "duration": 440, "velocity": 111}, {"time": 128630, "pitch": 60, "duration": 210, "velocity": 108}, {"time": 128630, "pitch": 64, "duration": 190, "velocity": 113}, {"time": 128630, "pitch": 67, "duration": 190, "velocity": 98}, {"time": 128870, "pitch": 45, "duration": 130, "velocity": 100}, {"time": 129110, "pitch": 60, "duration": 820, "velocity": 106}, {"time": 129110, "pitch": 65, "duration": 850, "velocity": 103}, {"time": 129110, "pitch": 69, "duration": 820, "velocity": 107}, {"time": 129120, "pitch": 38, "duration": 420, "velocity": 108}, {"time": 129840, "pitch": 50, "duration": 120, "velocity": 108}, {"time": 130080, "pitch": 65, "duration": 690, "velocity": 115}, {"time": 130080, "pitch": 72, "duration": 680, "velocity": 116}, {"time": 130090, "pitch": 50, "duration": 420, "velocity": 107}, {"time": 130090, "pitch": 62, "duration": 350, "velocity": 104}, {"time": 130090, "pitch": 69, "duration": 680, "velocity": 104}, {"time": 131040, "pitch": 31, "duration": 460, "velocity": 119}, {"time": 131040, "pitch": 43, "duration": 740, "velocity": 108}, {"time": 131040, "pitch": 65, "duration": 470, "velocity": 114}, {"time": 131040, "pitch": 69, "duration": 480, "velocity": 110}, {"time": 131040, "pitch": 72, "duration": 740, "velocity": 98}, {"time": 131040, "pitch": 74, "duration": 540, "velocity": 120}, {"time": 131750, "pitch": 31, "duration": 100, "velocity": 114}, {"time": 131990, "pitch": 67, "duration": 270, "velocity": 113}, {"time": 131990, "pitch": 74, "duration": 290, "velocity": 113}, {"time": 132000, "pitch": 31, "duration": 270, "velocity": 105}, {"time": 132000, "pitch": 43, "duration": 290, "velocity": 102}, {"time": 132000, "pitch": 71, "duration": 280, "velocity": 106}, {"time": 132480, "pitch": 32, "duration": 280, "velocity": 100}, {"time": 132480, "pitch": 44, "duration": 300, "velocity": 109}, {"time": 132480, "pitch": 68, "duration": 340, "velocity": 113}, {"time": 132480, "pitch": 71, "duration": 380, "velocity": 93}, {"time": 132480, "pitch": 76, "duration": 290, "velocity": 114}, {"time": 132720, "pitch": 74, "duration": 250, "velocity": 108}, {"time": 132960, "pitch": 33, "duration": 600, "velocity": 110}, {"time": 132960, "pitch": 45, "duration": 600, "velocity": 104}, {"time": 132960, "pitch": 64, "duration": 540, "velocity": 115}, {"time": 132960, "pitch": 69, "duration": 450, "velocity": 117}, {"time": 132960, "pitch": 72, "duration": 530, "velocity": 112}, {"time": 133680, "pitch": 33, "duration": 920, "velocity": 103}, {"time": 133680, "pitch": 45, "duration": 330, "velocity": 109}, {"time": 133680, "pitch": 60, "duration": 490, "velocity": 112}, {"time": 133680, "pitch": 64, "duration": 450, "velocity": 101}, {"time": 133690, "pitch": 67, "duration": 470, "velocity": 100}, {"time": 134160, "pitch": 45, "duration": 430, "velocity": 107}, {"time": 134400, "pitch": 64, "duration": 270, "velocity": 113}, {"time": 134400, "pitch": 69, "duration": 270, "velocity": 112}, {"time": 134640, "pitch": 63, "duration": 80, "velocity": 97}, {"time": 134640, "pitch": 68, "duration": 80, "velocity": 109}, {"time": 134870, "pitch": 31, "duration": 720, "velocity": 116}, {"time": 134870, "pitch": 43, "duration": 120, "velocity": 108}, {"time": 134870, "pitch": 58, "duration": 330, "velocity": 121}, {"time": 134870, "pitch": 62, "duration": 350, "velocity": 111}, {"time": 134870, "pitch": 67, "duration": 340, "velocity": 116}, {"time": 135130, "pitch": 43, "duration": 250, "velocity": 111}, {"time": 135360, "pitch": 58, "duration": 240, "velocity": 111}, {"time": 135600, "pitch": 43, "duration": 140, "velocity": 111}, {"time": 135840, "pitch": 36, "duration": 830, "velocity": 116}, {"time": 135840, "pitch": 48, "duration": 200, "velocity": 107}, {"time": 135840, "pitch": 58, "duration": 720, "velocity": 122}, {"time": 135840, "pitch": 62, "duration": 690, "velocity": 113}, {"time": 135840, "pitch": 67, "duration": 730, "velocity": 110}, {"time": 136080, "pitch": 48, "duration": 410, "velocity": 98}, {"time": 136560, "pitch": 48, "duration": 230, "velocity": 101}, {"time": 136800, "pitch": 29, "duration": 940, "velocity": 120}, {"time": 136800, "pitch": 41, "duration": 970, "velocity": 119}, {"time": 136800, "pitch": 57, "duration": 990, "velocity": 121}, {"time": 136800, "pitch": 60, "duration": 1000, "velocity": 114}, {"time": 136800, "pitch": 64, "duration": 1070, "velocity": 115}, {"time": 137750, "pitch": 36, "duration": 410, "velocity": 118}, {"time": 138000, "pitch": 60, "duration": 160, "velocity": 116}, {"time": 138000, "pitch": 64, "duration": 170, "velocity": 108}, {"time": 138000, "pitch": 69, "duration": 160, "velocity": 120}, {"time": 138440, "pitch": 35, "duration": 110, "velocity": 108}, {"time": 138440, "pitch": 47, "duration": 250, "velocity": 96}, {"time": 138440, "pitch": 59, "duration": 100, "velocity": 103}, {"time": 138440, "pitch": 63, "duration": 120, "velocity": 103}, {"time": 138440, "pitch": 68, "duration": 120, "velocity": 109}, {"time": 138720, "pitch": 34, "duration": 1610, "velocity": 118}, {"time": 138720, "pitch": 46, "duration": 1480, "velocity": 104}, {"time": 138720, "pitch": 56, "duration": 570, "velocity": 98}, {"time": 138720, "pitch": 58, "duration": 1600, "velocity": 119}, {"time": 138720, "pitch": 62, "duration": 1610, "velocity": 99}, {"time": 138720, "pitch": 67, "duration": 1440, "velocity": 118}, {"time": 139640, "pitch": 56, "duration": 520, "velocity": 101}, {"time": 139640, "pitch": 65, "duration": 670, "velocity": 101}, {"time": 140640, "pitch": 52, "duration": 320, "velocity": 112}, {"time": 140640, "pitch": 59, "duration": 480, "velocity": 122}, {"time": 140640, "pitch": 62, "duration": 510, "velocity": 109}, {"time": 140640, "pitch": 67, "duration": 510, "velocity": 117}, {"time": 141090, "pitch": 52, "duration": 290, "velocity": 99}, {"time": 141340, "pitch": 57, "duration": 550, "velocity": 124}, {"time": 141340, "pitch": 65, "duration": 810, "velocity": 127}, {"time": 141350, "pitch": 45, "duration": 310, "velocity": 111}, {"time": 141350, "pitch": 61, "duration": 750, "velocity": 122}, {"time": 141820, "pitch": 45, "duration": 430, "velocity": 114}, {"time": 142300, "pitch": 57, "duration": 460, "velocity": 123}, {"time": 142300, "pitch": 60, "duration": 890, "velocity": 112}, {"time": 142300, "pitch": 65, "duration": 870, "velocity": 125}, {"time": 142310, "pitch": 50, "duration": 290, "velocity": 110}, {"time": 142310, "pitch": 62, "duration": 890, "velocity": 105}, {"time": 142790, "pitch": 50, "duration": 240, "velocity": 83}, {"time": 143020, "pitch": 57, "duration": 220, "velocity": 99}, {"time": 143260, "pitch": 50, "duration": 110, "velocity": 78}, {"time": 143520, "pitch": 53, "duration": 590, "velocity": 115}, {"time": 143520, "pitch": 57, "duration": 610, "velocity": 108}, {"time": 143520, "pitch": 60, "duration": 440, "velocity": 114}, {"time": 143530, "pitch": 43, "duration": 610, "velocity": 100}, {"time": 144020, "pitch": 62, "duration": 390, "velocity": 110}, {"time": 144430, "pitch": 53, "duration": 120, "velocity": 97}, {"time": 144460, "pitch": 57, "duration": 120, "velocity": 106}, {"time": 144490, "pitch": 36, "duration": 1660, "velocity": 102}, {"time": 144490, "pitch": 48, "duration": 1670, "velocity": 106}, {"time": 144510, "pitch": 62, "duration": 120, "velocity": 111}, {"time": 144960, "pitch": 65, "duration": 970, "velocity": 123}, {"time": 145440, "pitch": 69, "duration": 570, "velocity": 115}, {"time": 145920, "pitch": 74, "duration": 350, "velocity": 121}, {"time": 146160, "pitch": 43, "duration": 230, "velocity": 90}, {"time": 146400, "pitch": 36, "duration": 1420, "velocity": 109}, {"time": 146400, "pitch": 48, "duration": 1430, "velocity": 116}, {"time": 146400, "pitch": 64, "duration": 540, "velocity": 119}, {"time": 146400, "pitch": 72, "duration": 750, "velocity": 120}, {"time": 146410, "pitch": 67, "duration": 1440, "velocity": 86}, {"time": 147190, "pitch": 72, "duration": 990, "velocity": 104}, {"time": 147270, "pitch": 76, "duration": 910, "velocity": 117}, {"time": 147350, "pitch": 79, "duration": 870, "velocity": 127}, {"time": 148320, "pitch": 34, "duration": 1880, "velocity": 121}, {"time": 148320, "pitch": 46, "duration": 610, "velocity": 122}, {"time": 148320, "pitch": 72, "duration": 910, "velocity": 118}, {"time": 148320, "pitch": 76, "duration": 920, "velocity": 110}, {"time": 148320, "pitch": 79, "duration": 890, "velocity": 127}, {"time": 149040, "pitch": 46, "duration": 160, "velocity": 92}, {"time": 149280, "pitch": 46, "duration": 100, "velocity": 93}, {"time": 149280, "pitch": 72, "duration": 910, "velocity": 106}, {"time": 149280, "pitch": 76, "duration": 890, "velocity": 109}, {"time": 149280, "pitch": 79, "duration": 850, "velocity": 119}, {"time": 149490, "pitch": 46, "duration": 640, "velocity": 89}, {"time": 150240, "pitch": 33, "duration": 1670, "velocity": 104}, {"time": 150240, "pitch": 45, "duration": 570, "velocity": 113}, {"time": 150240, "pitch": 69, "duration": 870, "velocity": 117}, {"time": 150240, "pitch": 72, "duration": 880, "velocity": 111}, {"time": 150240, "pitch": 79, "duration": 880, "velocity": 122}, {"time": 150960, "pitch": 45, "duration": 140, "velocity": 105}, {"time": 151190, "pitch": 45, "duration": 820, "velocity": 106}, {"time": 151190, "pitch": 69, "duration": 830, "velocity": 92}, {"time": 151190, "pitch": 72, "duration": 830, "velocity": 107}, {"time": 151190, "pitch": 77, "duration": 840, "velocity": 110}, {"time": 152160, "pitch": 32, "duration": 520, "velocity": 103}, {"time": 152160, "pitch": 44, "duration": 650, "velocity": 109}, {"time": 152160, "pitch": 68, "duration": 840, "velocity": 127}, {"time": 152160, "pitch": 74, "duration": 890, "velocity": 118}, {"time": 152160, "pitch": 79, "duration": 820, "velocity": 122}, {"time": 152880, "pitch": 44, "duration": 310, "velocity": 119}, {"time": 153110, "pitch": 68, "duration": 820, "velocity": 124}, {"time": 153110, "pitch": 72, "duration": 250, "velocity": 114}, {"time": 153110, "pitch": 79, "duration": 800, "velocity": 117}, {"time": 153120, "pitch": 56, "duration": 740, "velocity": 108}, {"time": 153360, "pitch": 74, "duration": 680, "velocity": 109}, {"time": 153840, "pitch": 44, "duration": 260, "velocity": 100}, {"time": 154080, "pitch": 43, "duration": 140, "velocity": 103}, {"time": 154080, "pitch": 67, "duration": 850, "velocity": 115}, {"time": 154080, "pitch": 72, "duration": 870, "velocity": 116}, {"time": 154080, "pitch": 76, "duration": 870, "velocity": 121}, {"time": 154080, "pitch": 79, "duration": 830, "velocity": 121}, {"time": 154310, "pitch": 43, "duration": 400, "velocity": 90}, {"time": 154780, "pitch": 43, "duration": 270, "velocity": 102}, {"time": 155030, "pitch": 55, "duration": 770, "velocity": 107}, {"time": 155040, "pitch": 67, "duration": 550, "velocity": 108}, {"time": 155040, "pitch": 72, "duration": 620, "velocity": 110}, {"time": 155040, "pitch": 76, "duration": 640, "velocity": 115}, {"time": 155040, "pitch": 79, "duration": 650, "velocity": 119}, {"time": 155780, "pitch": 72, "duration": 220, "velocity": 105}, {"time": 155840, "pitch": 74, "duration": 1060, "velocity": 99}, {"time": 155920, "pitch": 76, "duration": 980, "velocity": 118}, {"time": 156000, "pitch": 42, "duration": 650, "velocity": 118}, {"time": 156000, "pitch": 81, "duration": 920, "velocity": 122}, {"time": 156710, "pitch": 42, "duration": 260, "velocity": 99}, {"time": 156950, "pitch": 62, "duration": 760, "velocity": 127}, {"time": 156960, "pitch": 54, "duration": 710, "velocity": 113}, {"time": 157680, "pitch": 42, "duration": 280, "velocity": 111}, {"time": 157920, "pitch": 43, "duration": 1030, "velocity": 107}, {"time": 157920, "pitch": 53, "duration": 890, "velocity": 114}, {"time": 157920, "pitch": 57, "duration": 930, "velocity": 98}, {"time": 157920, "pitch": 60, "duration": 880, "velocity": 114}, {"time": 158880, "pitch": 52, "duration": 1160, "velocity": 121}, {"time": 158880, "pitch": 56, "duration": 1100, "velocity": 111}, {"time": 158880, "pitch": 59, "duration": 1100, "velocity": 109}, {"time": 158890, "pitch": 44, "duration": 880, "velocity": 118}, {"time": 158890, "pitch": 62, "duration": 1130, "velocity": 101}, {"time": 159840, "pitch": 44, "duration": 1000, "velocity": 83}, {"time": 160310, "pitch": 76, "duration": 280, "velocity": 118}, {"time": 160570, "pitch": 71, "duration": 170, "velocity": 127}, {"time": 160800, "pitch": 71, "duration": 260, "velocity": 119}, {"time": 161040, "pitch": 64, "duration": 710, "velocity": 114}, {"time": 161280, "pitch": 44, "duration": 120, "velocity": 103}, {"time": 161520, "pitch": 44, "duration": 170, "velocity": 98}, {"time": 161760, "pitch": 45, "duration": 1050, "velocity": 104}, {"time": 161760, "pitch": 57, "duration": 660, "velocity": 108}, {"time": 161760, "pitch": 60, "duration": 740, "velocity": 80}, {"time": 161760, "pitch": 64, "duration": 750, "velocity": 113}, {"time": 162470, "pitch": 57, "duration": 740, "velocity": 115}, {"time": 162950, "pitch": 45, "duration": 670, "velocity": 94}, {"time": 163200, "pitch": 60, "duration": 260, "velocity": 111}, {"time": 163200, "pitch": 64, "duration": 280, "velocity": 115}, {"time": 163440, "pitch": 57, "duration": 170, "velocity": 103}, {"time": 163680, "pitch": 44, "duration": 620, "velocity": 113}, {"time": 163680, "pitch": 56, "duration": 860, "velocity": 114}, {"time": 163680, "pitch": 59, "duration": 1220, "velocity": 104}, {"time": 163680, "pitch": 62, "duration": 1100, "velocity": 101}, {"time": 163680, "pitch": 64, "duration": 1100, "velocity": 105}, {"time": 164400, "pitch": 44, "duration": 250, "velocity": 97}, {"time": 164640, "pitch": 56, "duration": 650, "velocity": 111}, {"time": 165120, "pitch": 59, "duration": 430, "velocity": 105}, {"time": 165120, "pitch": 62, "duration": 460, "velocity": 106}, {"time": 165120, "pitch": 64, "duration": 460, "velocity": 110}, {"time": 165360, "pitch": 56, "duration": 230, "velocity": 102}, {"time": 165600, "pitch": 43, "duration": 640, "velocity": 104}, {"time": 165600, "pitch": 55, "duration": 880, "velocity": 115}, {"time": 165600, "pitch": 57, "duration": 880, "velocity": 109}, {"time": 165600, "pitch": 60, "duration": 900, "velocity": 105}, {"time": 165600, "pitch": 64, "duration": 860, "velocity": 102}, {"time": 166320, "pitch": 43, "duration": 250, "velocity": 102}, {"time": 166560, "pitch": 55, "duration": 900, "velocity": 115}, {"time": 166560, "pitch": 57, "duration": 2640, "velocity": 105}, {"time": 166560, "pitch": 60, "duration": 2660, "velocity": 97}, {"time": 166560, "pitch": 64, "duration": 2670, "velocity": 108}, {"time": 167520, "pitch": 42, "duration": 1780, "velocity": 105}, {"time": 169440, "pitch": 26, "duration": 390, "velocity": 123}, {"time": 169440, "pitch": 38, "duration": 390, "velocity": 122}, {"time": 169440, "pitch": 57, "duration": 490, "velocity": 126}, {"time": 169440, "pitch": 60, "duration": 640, "velocity": 109}, {"time": 169440, "pitch": 65, "duration": 610, "velocity": 122}, {"time": 169920, "pitch": 28, "duration": 160, "velocity": 109}, {"time": 169920, "pitch": 40, "duration": 160, "velocity": 117}, {"time": 169920, "pitch": 55, "duration": 190, "velocity": 115}, {"time": 170160, "pitch": 29, "duration": 360, "velocity": 104}, {"time": 170160, "pitch": 41, "duration": 390, "velocity": 112}, {"time": 170160, "pitch": 53, "duration": 400, "velocity": 111}, {"time": 170160, "pitch": 57, "duration": 440, "velocity": 97}, {"time": 170160, "pitch": 60, "duration": 430, "velocity": 123}, {"time": 170630, "pitch": 41, "duration": 600, "velocity": 109}, {"time": 170640, "pitch": 29, "duration": 570, "velocity": 113}, {"time": 170640, "pitch": 53, "duration": 700, "velocity": 97}, {"time": 170650, "pitch": 57, "duration": 690, "velocity": 107}, {"time": 170650, "pitch": 60, "duration": 690, "velocity": 118}, {"time": 171120, "pitch": 30, "duration": 130, "velocity": 105}, {"time": 171120, "pitch": 42, "duration": 140, "velocity": 108}, {"time": 171360, "pitch": 31, "duration": 1820, "velocity": 120}, {"time": 171360, "pitch": 43, "duration": 840, "velocity": 113}, {"time": 171360, "pitch": 53, "duration": 810, "velocity": 110}, {"time": 171360, "pitch": 57, "duration": 850, "velocity": 109}, {"time": 171360, "pitch": 60, "duration": 910, "velocity": 112}, {"time": 172310, "pitch": 43, "duration": 620, "velocity": 111}, {"time": 172320, "pitch": 57, "duration": 450, "velocity": 95}, {"time": 172800, "pitch": 60, "duration": 480, "velocity": 127}, {"time": 173040, "pitch": 43, "duration": 140, "velocity": 94}, {"time": 173280, "pitch": 31, "duration": 1800, "velocity": 120}, {"time": 173280, "pitch": 43, "duration": 590, "velocity": 95}, {"time": 173280, "pitch": 67, "duration": 800, "velocity": 127}, {"time": 173990, "pitch": 43, "duration": 120, "velocity": 85}, {"time": 174230, "pitch": 43, "duration": 940, "velocity": 104}, {"time": 174240, "pitch": 57, "duration": 480, "velocity": 119}, {"time": 174240, "pitch": 60, "duration": 490, "velocity": 99}, {"time": 174240, "pitch": 67, "duration": 450, "velocity": 114}, {"time": 174720, "pitch": 56, "duration": 400, "velocity": 113}, {"time": 174720, "pitch": 62, "duration": 420, "velocity": 99}, {"time": 174720, "pitch": 65, "duration": 440, "velocity": 109}, {"time": 175200, "pitch": 48, "duration": 1270, "velocity": 101}, {"time": 175200, "pitch": 55, "duration": 390, "velocity": 113}, {"time": 175200, "pitch": 60, "duration": 490, "velocity": 103}, {"time": 175200, "pitch": 64, "duration": 470, "velocity": 117}, {"time": 175210, "pitch": 36, "duration": 1440, "velocity": 92}, {"time": 175680, "pitch": 55, "duration": 200, "velocity": 87}, {"time": 175920, "pitch": 55, "duration": 500, "velocity": 91}, {"time": 176400, "pitch": 60, "duration": 300, "velocity": 116}, {"time": 176400, "pitch": 64, "duration": 310, "velocity": 111}, {"time": 176400, "pitch": 67, "duration": 260, "velocity": 115}, {"time": 176870, "pitch": 36, "duration": 90, "velocity": 98}, {"time": 177110, "pitch": 57, "duration": 490, "velocity": 104}, {"time": 177120, "pitch": 35, "duration": 350, "velocity": 107}, {"time": 177120, "pitch": 47, "duration": 440, "velocity": 103}, {"time": 177120, "pitch": 59, "duration": 500, "velocity": 100}, {"time": 177120, "pitch": 62, "duration": 430, "velocity": 111}, {"time": 177560, "pitch": 62, "duration": 330, "velocity": 93}, {"time": 177830, "pitch": 49, "duration": 140, "velocity": 110}, {"time": 177920, "pitch": 50, "duration": 100, "velocity": 83}, {"time": 178000, "pitch": 51, "duration": 130, "velocity": 110}, {"time": 178090, "pitch": 64, "duration": 520, "velocity": 111}, {"time": 178100, "pitch": 56, "duration": 420, "velocity": 114}, {"time": 178110, "pitch": 52, "duration": 450, "velocity": 93}, {"time": 178560, "pitch": 65, "duration": 300, "velocity": 106}, {"time": 179040, "pitch": 45, "duration": 1190, "velocity": 106}, {"time": 179040, "pitch": 57, "duration": 460, "velocity": 112}, {"time": 179040, "pitch": 60, "duration": 450, "velocity": 102}, {"time": 179040, "pitch": 64, "duration": 440, "velocity": 114}, {"time": 179050, "pitch": 33, "duration": 1190, "velocity": 98}, {"time": 179530, "pitch": 55, "duration": 330, "velocity": 91}, {"time": 179780, "pitch": 57, "duration": 350, "velocity": 120}, {"time": 179780, "pitch": 60, "duration": 320, "velocity": 102}, {"time": 179780, "pitch": 64, "duration": 320, "velocity": 104}, {"time": 180240, "pitch": 57, "duration": 180, "velocity": 123}, {"time": 180240, "pitch": 60, "duration": 190, "velocity": 88}, {"time": 180240, "pitch": 64, "duration": 180, "velocity": 109}, {"time": 180700, "pitch": 59, "duration": 70, "velocity": 111}, {"time": 180700, "pitch": 63, "duration": 70, "velocity": 115}, {"time": 180710, "pitch": 56, "duration": 80, "velocity": 103}, {"time": 180720, "pitch": 32, "duration": 90, "velocity": 107}, {"time": 180720, "pitch": 44, "duration": 70, "velocity": 110}, {"time": 180950, "pitch": 55, "duration": 560, "velocity": 115}, {"time": 180950, "pitch": 58, "duration": 340, "velocity": 117}, {"time": 180950, "pitch": 62, "duration": 550, "velocity": 109}, {"time": 180960, "pitch": 31, "duration": 650, "velocity": 110}, {"time": 180960, "pitch": 43, "duration": 450, "velocity": 99}, {"time": 181430, "pitch": 58, "duration": 650, "velocity": 96}, {"time": 181660, "pitch": 33, "duration": 100, "velocity": 75}, {"time": 181740, "pitch": 34, "duration": 130, "velocity": 105}, {"time": 181830, "pitch": 35, "duration": 120, "velocity": 94}, {"time": 181920, "pitch": 36, "duration": 580, "velocity": 104}, {"time": 181920, "pitch": 55, "duration": 330, "velocity": 89}, {"time": 181920, "pitch": 60, "duration": 530, "velocity": 114}, {"time": 181920, "pitch": 64, "duration": 530, "velocity": 117}, {"time": 182400, "pitch": 55, "duration": 110, "velocity": 113}, {"time": 182880, "pitch": 29, "duration": 1480, "velocity": 101}, {"time": 182880, "pitch": 41, "duration": 600, "velocity": 98}, {"time": 182880, "pitch": 57, "duration": 200, "velocity": 107}, {"time": 182880, "pitch": 60, "duration": 250, "velocity": 103}, {"time": 182880, "pitch": 64, "duration": 270, "velocity": 107}, {"time": 182880, "pitch": 67, "duration": 250, "velocity": 121}, {"time": 183600, "pitch": 60, "duration": 370, "velocity": 122}, {"time": 183610, "pitch": 72, "duration": 310, "velocity": 121}, {"time": 183840, "pitch": 41, "duration": 520, "velocity": 96}, {"time": 184310, "pitch": 69, "duration": 140, "velocity": 109}, {"time": 184320, "pitch": 60, "duration": 170, "velocity": 109}, {"time": 184320, "pitch": 65, "duration": 130, "velocity": 98}, {"time": 184560, "pitch": 29, "duration": 100, "velocity": 83}, {"time": 184800, "pitch": 28, "duration": 1430, "velocity": 100}, {"time": 184800, "pitch": 40, "duration": 250, "velocity": 110}, {"time": 184800, "pitch": 60, "duration": 320, "velocity": 103}, {"time": 184800, "pitch": 64, "duration": 350, "velocity": 107}, {"time": 184800, "pitch": 67, "duration": 280, "velocity": 116}, {"time": 185280, "pitch": 40, "duration": 480, "velocity": 111}, {"time": 185520, "pitch": 60, "duration": 870, "velocity": 121}, {"time": 185520, "pitch": 72, "duration": 840, "velocity": 127}, {"time": 185990, "pitch": 40, "duration": 440, "velocity": 111}, {"time": 186470, "pitch": 43, "duration": 130, "velocity": 80}, {"time": 186710, "pitch": 65, "duration": 850, "velocity": 103}, {"time": 186710, "pitch": 69, "duration": 820, "velocity": 107}, {"time": 186710, "pitch": 72, "duration": 820, "velocity": 106}, {"time": 186720, "pitch": 38, "duration": 420, "velocity": 108}, {"time": 187440, "pitch": 38, "duration": 120, "velocity": 108}, {"time": 187680, "pitch": 50, "duration": 480, "velocity": 89}, {"time": 187680, "pitch": 65, "duration": 180, "velocity": 109}, {"time": 187680, "pitch": 69, "duration": 180, "velocity": 116}, {"time": 187920, "pitch": 62, "duration": 350, "velocity": 104}, {"time": 187920, "pitch": 65, "duration": 680, "velocity": 116}, {"time": 187920, "pitch": 72, "duration": 680, "velocity": 116}, {"time": 188400, "pitch": 50, "duration": 350, "velocity": 104}, {"time": 188640, "pitch": 31, "duration": 460, "velocity": 119}, {"time": 188640, "pitch": 43, "duration": 740, "velocity": 108}, {"time": 188640, "pitch": 65, "duration": 470, "velocity": 114}, {"time": 188640, "pitch": 69, "duration": 480, "velocity": 110}, {"time": 188640, "pitch": 72, "duration": 740, "velocity": 118}, {"time": 189350, "pitch": 31, "duration": 100, "velocity": 114}, {"time": 189590, "pitch": 67, "duration": 270, "velocity": 113}, {"time": 189590, "pitch": 74, "duration": 290, "velocity": 113}, {"time": 189600, "pitch": 31, "duration": 270, "velocity": 105}, {"time": 189600, "pitch": 43, "duration": 290, "velocity": 102}, {"time": 189600, "pitch": 71, "duration": 280, "velocity": 106}, {"time": 190070, "pitch": 32, "duration": 280, "velocity": 100}, {"time": 190070, "pitch": 44, "duration": 300, "velocity": 109}, {"time": 190070, "pitch": 68, "duration": 340, "velocity": 113}, {"time": 190070, "pitch": 71, "duration": 380, "velocity": 93}, {"time": 190070, "pitch": 76, "duration": 290, "velocity": 114}, {"time": 190310, "pitch": 74, "duration": 250, "velocity": 108}, {"time": 190560, "pitch": 33, "duration": 600, "velocity": 110}, {"time": 190560, "pitch": 45, "duration": 600, "velocity": 104}, {"time": 190560, "pitch": 64, "duration": 540, "velocity": 115}, {"time": 190560, "pitch": 69, "duration": 450, "velocity": 117}, {"time": 190560, "pitch": 72, "duration": 530, "velocity": 112}, {"time": 191280, "pitch": 33, "duration": 920, "velocity": 103}, {"time": 191280, "pitch": 45, "duration": 330, "velocity": 109}, {"time": 191280, "pitch": 60, "duration": 490, "velocity": 112}, {"time": 191280, "pitch": 64, "duration": 450, "velocity": 101}, {"time": 191290, "pitch": 67, "duration": 470, "velocity": 100}, {"time": 191750, "pitch": 45, "duration": 430, "velocity": 107}, {"time": 191990, "pitch": 64, "duration": 270, "velocity": 93}, {"time": 191990, "pitch": 69, "duration": 270, "velocity": 92}, {"time": 192240, "pitch": 32, "duration": 80, "velocity": 97}, {"time": 192240, "pitch": 44, "duration": 80, "velocity": 109}, {"time": 192470, "pitch": 31, "duration": 720, "velocity": 116}, {"time": 192470, "pitch": 43, "duration": 120, "velocity": 108}, {"time": 192470, "pitch": 58, "duration": 330, "velocity": 121}, {"time": 192470, "pitch": 62, "duration": 350, "velocity": 111}, {"time": 192470, "pitch": 67, "duration": 340, "velocity": 116}, {"time": 192720, "pitch": 43, "duration": 250, "velocity": 111}, {"time": 192960, "pitch": 58, "duration": 240, "velocity": 111}, {"time": 193200, "pitch": 43, "duration": 140, "velocity": 111}, {"time": 193440, "pitch": 36, "duration": 830, "velocity": 116}, {"time": 193440, "pitch": 48, "duration": 200, "velocity": 107}, {"time": 193440, "pitch": 58, "duration": 720, "velocity": 122}, {"time": 193440, "pitch": 62, "duration": 690, "velocity": 113}, {"time": 193440, "pitch": 67, "duration": 730, "velocity": 110}, {"time": 193680, "pitch": 48, "duration": 410, "velocity": 98}, {"time": 194160, "pitch": 48, "duration": 230, "velocity": 101}, {"time": 194400, "pitch": 29, "duration": 640, "velocity": 97}, {"time": 194400, "pitch": 41, "duration": 650, "velocity": 89}, {"time": 194400, "pitch": 53, "duration": 210, "velocity": 98}, {"time": 194400, "pitch": 57, "duration": 260, "velocity": 95}, {"time": 194400, "pitch": 60, "duration": 320, "velocity": 94}, {"time": 194400, "pitch": 64, "duration": 390, "velocity": 106}, {"time": 195130, "pitch": 65, "duration": 140, "velocity": 115}, {"time": 195370, "pitch": 29, "duration": 420, "velocity": 97}, {"time": 195370, "pitch": 41, "duration": 490, "velocity": 94}, {"time": 195370, "pitch": 69, "duration": 320, "velocity": 118}, {"time": 195710, "pitch": 72, "duration": 350, "velocity": 118}, {"time": 196020, "pitch": 76, "duration": 80, "velocity": 114}, {"time": 196320, "pitch": 34, "duration": 1490, "velocity": 91}, {"time": 196320, "pitch": 46, "duration": 630, "velocity": 79}, {"time": 196320, "pitch": 70, "duration": 1490, "velocity": 99}, {"time": 196330, "pitch": 79, "duration": 1500, "velocity": 110}, {"time": 196340, "pitch": 74, "duration": 1480, "velocity": 102}, {"time": 197280, "pitch": 46, "duration": 550, "velocity": 86}, {"time": 198240, "pitch": 52, "duration": 320, "velocity": 112}, {"time": 198240, "pitch": 59, "duration": 480, "velocity": 122}, {"time": 198240, "pitch": 62, "duration": 510, "velocity": 109}, {"time": 198240, "pitch": 67, "duration": 510, "velocity": 117}, {"time": 198720, "pitch": 52, "duration": 290, "velocity": 99}, {"time": 198970, "pitch": 57, "duration": 550, "velocity": 124}, {"time": 198970, "pitch": 65, "duration": 810, "velocity": 127}, {"time": 198980, "pitch": 45, "duration": 310, "velocity": 111}, {"time": 198980, "pitch": 61, "duration": 750, "velocity": 122}, {"time": 199430, "pitch": 45, "duration": 430, "velocity": 114}, {"time": 199910, "pitch": 57, "duration": 450, "velocity": 123}, {"time": 199910, "pitch": 60, "duration": 880, "velocity": 112}, {"time": 199910, "pitch": 65, "duration": 860, "velocity": 125}, {"time": 199920, "pitch": 50, "duration": 280, "velocity": 110}, {"time": 199920, "pitch": 62, "duration": 880, "velocity": 105}, {"time": 200410, "pitch": 50, "duration": 240, "velocity": 83}, {"time": 200650, "pitch": 57, "duration": 220, "velocity": 99}, {"time": 200890, "pitch": 50, "duration": 110, "velocity": 78}, {"time": 201110, "pitch": 53, "duration": 590, "velocity": 115}, {"time": 201110, "pitch": 57, "duration": 610, "velocity": 108}, {"time": 201110, "pitch": 60, "duration": 430, "velocity": 114}, {"time": 201120, "pitch": 43, "duration": 610, "velocity": 100}, {"time": 202030, "pitch": 71, "duration": 570, "velocity": 97}, {"time": 202060, "pitch": 74, "duration": 540, "velocity": 106}, {"time": 202080, "pitch": 52, "duration": 550, "velocity": 123}, {"time": 202080, "pitch": 64, "duration": 480, "velocity": 118}, {"time": 202080, "pitch": 79, "duration": 520, "velocity": 127}, {"time": 202560, "pitch": 77, "duration": 160, "velocity": 111}, {"time": 202790, "pitch": 45, "duration": 700, "velocity": 112}, {"time": 202790, "pitch": 57, "duration": 720, "velocity": 111}, {"time": 202790, "pitch": 69, "duration": 510, "velocity": 101}, {"time": 202790, "pitch": 73, "duration": 510, "velocity": 104}, {"time": 202790, "pitch": 77, "duration": 510, "velocity": 121}, {"time": 203280, "pitch": 76, "duration": 550, "velocity": 113}, {"time": 203710, "pitch": 69, "duration": 800, "velocity": 95}, {"time": 203740, "pitch": 72, "duration": 770, "velocity": 104}, {"time": 203770, "pitch": 50, "duration": 1180, "velocity": 107}, {"time": 203770, "pitch": 62, "duration": 420, "velocity": 107}, {"time": 203770, "pitch": 77, "duration": 740, "velocity": 123}, {"time": 204240, "pitch": 62, "duration": 1240, "velocity": 101}, {"time": 204470, "pitch": 76, "duration": 540, "velocity": 113}, {"time": 204950, "pitch": 43, "duration": 700, "velocity": 93}, {"time": 204950, "pitch": 65, "duration": 700, "velocity": 90}, {"time": 204950, "pitch": 69, "duration": 700, "velocity": 89}, {"time": 204950, "pitch": 72, "duration": 520, "velocity": 113}, {"time": 205440, "pitch": 74, "duration": 400, "velocity": 118}, {"time": 205920, "pitch": 52, "duration": 320, "velocity": 100}, {"time": 205920, "pitch": 59, "duration": 480, "velocity": 110}, {"time": 205920, "pitch": 62, "duration": 510, "velocity": 97}, {"time": 205920, "pitch": 67, "duration": 510, "velocity": 105}, {"time": 206390, "pitch": 52, "duration": 290, "velocity": 77}, {"time": 206630, "pitch": 57, "duration": 690, "velocity": 92}, {"time": 206630, "pitch": 65, "duration": 810, "velocity": 116}, {"time": 206640, "pitch": 45, "duration": 910, "velocity": 99}, {"time": 206640, "pitch": 61, "duration": 750, "velocity": 110}, {"time": 207570, "pitch": 57, "duration": 1070, "velocity": 101}, {"time": 207570, "pitch": 60, "duration": 1100, "velocity": 90}, {"time": 207570, "pitch": 65, "duration": 1080, "velocity": 103}, {"time": 207580, "pitch": 38, "duration": 1100, "velocity": 78}, {"time": 207580, "pitch": 62, "duration": 1100, "velocity": 93}, {"time": 208780, "pitch": 53, "duration": 590, "velocity": 103}, {"time": 208780, "pitch": 57, "duration": 610, "velocity": 96}, {"time": 208780, "pitch": 60, "duration": 440, "velocity": 102}, {"time": 208790, "pitch": 43, "duration": 610, "velocity": 88}, {"time": 209710, "pitch": 53, "duration": 390, "velocity": 85}, {"time": 209740, "pitch": 57, "duration": 380, "velocity": 94}, {"time": 209760, "pitch": 36, "duration": 1840, "velocity": 100}, {"time": 209760, "pitch": 48, "duration": 1770, "velocity": 105}, {"time": 209760, "pitch": 62, "duration": 480, "velocity": 85}, {"time": 210240, "pitch": 65, "duration": 510, "velocity": 114}, {"time": 210720, "pitch": 69, "duration": 480, "velocity": 114}, {"time": 211200, "pitch": 74, "duration": 450, "velocity": 121}, {"time": 211650, "pitch": 69, "duration": 470, "velocity": 93}, {"time": 211670, "pitch": 74, "duration": 450, "velocity": 96}, {"time": 211680, "pitch": 36, "duration": 1905, "velocity": 90}, {"time": 211680, "pitch": 48, "duration": 850, "velocity": 79}, {"time": 211680, "pitch": 77, "duration": 440, "velocity": 113}, {"time": 212160, "pitch": 81, "duration": 816, "velocity": 105}, {"time": 212687, "pitch": 48, "duration": 896, "velocity": 93}, {"time": 213120, "pitch": 86, "duration": 465, "velocity": 112}, {"time": 214309, "pitch": 36, "duration": 12265, "velocity": 90}, {"time": 214309, "pitch": 48, "duration": 12265, "velocity": 87}, {"time": 214309, "pitch": 76, "duration": 1478, "velocity": 82}, {"time": 214322, "pitch": 79, "duration": 1465, "velocity": 103}, {"time": 214352, "pitch": 84, "duration": 1435, "velocity": 101}, {"time": 214382, "pitch": 88, "duration": 1405, "velocity": 121}, {"time": 214785, "pitch": 55, "duration": 11789, "velocity": 105}, {"time": 215288, "pitch": 60, "duration": 11286, "velocity": 87}, {"time": 215745, "pitch": 64, "duration": 10829, "velocity": 81}, {"time": 216202, "pitch": 67, "duration": 541, "velocity": 91}, {"time": 216682, "pitch": 72, "duration": 871, "velocity": 88}, {"time": 217369, "pitch": 74, "duration": 820, "velocity": 94}, {"time": 218160, "pitch": 76, "duration": 796, "velocity": 80}, {"time": 218956, "pitch": 79, "duration": 1799, "velocity": 81}, {"time": 220726, "pitch": 84, "duration": 5848, "velocity": 91}, {"time": 76240, "pitch": 36, "duration": 110, "velocity": 54}, {"time": 76290, "pitch": 38, "duration": 110, "velocity": 64}, {"time": 76330, "pitch": 40, "duration": 110, "velocity": 72}, {"time": 76380, "pitch": 41, "duration": 110, "velocity": 81}, {"time": 76440, "pitch": 43, "duration": 90, "velocity": 86}, {"time": 76480, "pitch": 45, "duration": 80, "velocity": 91}, {"time": 76520, "pitch": 47, "duration": 80, "velocity": 92}, {"time": 76560, "pitch": 48, "duration": 80, "velocity": 96}, {"time": 76590, "pitch": 50, "duration": 80, "velocity": 96}, {"time": 76630, "pitch": 52, "duration": 80, "velocity": 98}, {"time": 76660, "pitch": 53, "duration": 90, "velocity": 95}, {"time": 76700, "pitch": 55, "duration": 80, "velocity": 97}, {"time": 76730, "pitch": 57, "duration": 90, "velocity": 96}, {"time": 76770, "pitch": 59, "duration": 80, "velocity": 96}, {"time": 76800, "pitch": 60, "duration": 80, "velocity": 93}, {"time": 76840, "pitch": 62, "duration": 70, "velocity": 92}, {"time": 76870, "pitch": 64, "duration": 70, "velocity": 94}, {"time": 76900, "pitch": 65, "duration": 70, "velocity": 91}, {"time": 76930, "pitch": 67, "duration": 70, "velocity": 96}, {"time": 76950, "pitch": 69, "duration": 60, "velocity": 98}, {"time": 76970, "pitch": 71, "duration": 60, "velocity": 93}, {"time": 77000, "pitch": 72, "duration": 40, "velocity": 91}, {"time": 77020, "pitch": 74, "duration": 40, "velocity": 97}, {"time": 77040, "pitch": 76, "duration": 40, "velocity": 96}, {"time": 77070, "pitch": 77, "duration": 60, "velocity": 97}, {"time": 77090, "pitch": 79, "duration": 110, "velocity": 94}, {"time": 77110, "pitch": 81, "duration": 110, "velocity": 89}, {"time": 77140, "pitch": 83, "duration": 130, "velocity": 88}, {"time": 77160, "pitch": 84, "duration": 120, "velocity": 81}, {"time": 77280, "pitch": 53, "duration": 780, "velocity": 105}, {"time": 77280, "pitch": 81, "duration": 660, "velocity": 90}, {"time": 77280, "pitch": 84, "duration": 690, "velocity": 91}, {"time": 77280, "pitch": 89, "duration": 740, "velocity": 104}, {"time": 78000, "pitch": 52, "duration": 940, "velocity": 100}, {"time": 78000, "pitch": 79, "duration": 770, "velocity": 94}, {"time": 78000, "pitch": 84, "duration": 830, "velocity": 104}, {"time": 78000, "pitch": 88, "duration": 890, "velocity": 105}, {"time": 78960, "pitch": 50, "duration": 160, "velocity": 104}, {"time": 78960, "pitch": 81, "duration": 140, "velocity": 94}, {"time": 78960, "pitch": 84, "duration": 140, "velocity": 74}, {"time": 78960, "pitch": 89, "duration": 110, "velocity": 105}, {"time": 79460, "pitch": 53, "duration": 110, "velocity": 96}, {"time": 79560, "pitch": 54, "duration": 190, "velocity": 97}, {"time": 79680, "pitch": 55, "duration": 1420, "velocity": 96}, {"time": 79680, "pitch": 77, "duration": 1420, "velocity": 95}, {"time": 79680, "pitch": 81, "duration": 1420, "velocity": 81}, {"time": 79680, "pitch": 84, "duration": 1420, "velocity": 103}, {"time": 81120, "pitch": 48, "duration": 3830, "velocity": 93}, {"time": 81120, "pitch": 60, "duration": 3820, "velocity": 86}, {"time": 81120, "pitch": 76, "duration": 680, "velocity": 77}, {"time": 81120, "pitch": 79, "duration": 800, "velocity": 84}, {"time": 81120, "pitch": 84, "duration": 3820, "velocity": 88}, {"time": 81840, "pitch": 77, "duration": 1100, "velocity": 93}, {"time": 81840, "pitch": 81, "duration": 1110, "velocity": 81}, {"time": 83040, "pitch": 76, "duration": 1910, "velocity": 71}, {"time": 83040, "pitch": 79, "duration": 1910, "velocity": 90}, {"time": 84960, "pitch": 67, "duration": 1790, "velocity": 76}, {"time": 84960, "pitch": 71, "duration": 770, "velocity": 65}, {"time": 84960, "pitch": 74, "duration": 760, "velocity": 79}, {"time": 85680, "pitch": 72, "duration": 3060, "velocity": 73}, {"time": 85680, "pitch": 76, "duration": 1210, "velocity": 79}, {"time": 86880, "pitch": 69, "duration": 1870, "velocity": 81}, {"time": 86880, "pitch": 77, "duration": 1870, "velocity": 77}, {"time": 88800, "pitch": 71, "duration": 1760, "velocity": 74}, {"time": 88800, "pitch": 74, "duration": 1930, "velocity": 81}, {"time": 88800, "pitch": 79, "duration": 1930, "velocity": 86}, {"time": 90720, "pitch": 67, "duration": 1820, "velocity": 62}, {"time": 90720, "pitch": 72, "duration": 1810, "velocity": 74}, {"time": 90720, "pitch": 76, "duration": 1830, "velocity": 83}, {"time": 92640, "pitch": 67, "duration": 1800, "velocity": 77}, {"time": 92640, "pitch": 71, "duration": 1900, "velocity": 72}, {"time": 92640, "pitch": 74, "duration": 1900, "velocity": 80}, {"time": 94560, "pitch": 67, "duration": 1830, "velocity": 82}, {"time": 94560, "pitch": 72, "duration": 1820, "velocity": 78}, {"time": 94560, "pitch": 76, "duration": 1840, "velocity": 83}, {"time": 96480, "pitch": 72, "duration": 820, "velocity": 71}, {"time": 96480, "pitch": 74, "duration": 910, "velocity": 71}, {"time": 96480, "pitch": 79, "duration": 840, "velocity": 81}, {"time": 97440, "pitch": 72, "duration": 920, "velocity": 74}, {"time": 97440, "pitch": 76, "duration": 880, "velocity": 72}, {"time": 97440, "pitch": 79, "duration": 890, "velocity": 78}, {"time": 98400, "pitch": 65, "duration": 330, "velocity": 80}, {"time": 98400, "pitch": 69, "duration": 330, "velocity": 87}, {"time": 98400, "pitch": 72, "duration": 350, "velocity": 83}, {"time": 99360, "pitch": 67, "duration": 860, "velocity": 80}, {"time": 99360, "pitch": 69, "duration": 850, "velocity": 81}, {"time": 99360, "pitch": 72, "duration": 870, "velocity": 82}, {"time": 100320, "pitch": 67, "duration": 1790, "velocity": 76}, {"time": 100320, "pitch": 71, "duration": 770, "velocity": 65}, {"time": 100320, "pitch": 74, "duration": 760, "velocity": 79}, {"time": 101040, "pitch": 72, "duration": 1200, "velocity": 73}, {"time": 101040, "pitch": 76, "duration": 1200, "velocity": 79}, {"time": 102240, "pitch": 65, "duration": 660, "velocity": 61}, {"time": 102240, "pitch": 69, "duration": 650, "velocity": 65}, {"time": 102240, "pitch": 72, "duration": 660, "velocity": 74}, {"time": 102960, "pitch": 65, "duration": 1130, "velocity": 63}, {"time": 102960, "pitch": 69, "duration": 1130, "velocity": 69}, {"time": 102960, "pitch": 72, "duration": 1160, "velocity": 74}, {"time": 104160, "pitch": 67, "duration": 1790, "velocity": 71}, {"time": 104160, "pitch": 71, "duration": 1880, "velocity": 68}, {"time": 104160, "pitch": 74, "duration": 1880, "velocity": 79}, {"time": 106080, "pitch": 67, "duration": 1500, "velocity": 82}, {"time": 106080, "pitch": 72, "duration": 1540, "velocity": 79}, {"time": 106080, "pitch": 76, "duration": 1470, "velocity": 78}, {"time": 107760, "pitch": 68, "duration": 140, "velocity": 76}, {"time": 107760, "pitch": 71, "duration": 120, "velocity": 68}, {"time": 107760, "pitch": 75, "duration": 150, "velocity": 77}, {"time": 108000, "pitch": 67, "duration": 1790, "velocity": 76}, {"time": 108000, "pitch": 70, "duration": 1770, "velocity": 83}, {"time": 108000, "pitch": 74, "duration": 1810, "velocity": 87}, {"time": 109920, "pitch": 67, "duration": 890, "velocity": 88}, {"time": 109920, "pitch": 70, "duration": 890, "velocity": 82}, {"time": 109920, "pitch": 77, "duration": 1000, "velocity": 91}, {"time": 110880, "pitch": 67, "duration": 900, "velocity": 74}, {"time": 110880, "pitch": 70, "duration": 900, "velocity": 91}, {"time": 110880, "pitch": 76, "duration": 910, "velocity": 82}, {"time": 111840, "pitch": 69, "duration": 810, "velocity": 91}, {"time": 111840, "pitch": 72, "duration": 860, "velocity": 74}, {"time": 111840, "pitch": 77, "duration": 900, "velocity": 94}, {"time": 112800, "pitch": 72, "duration": 840, "velocity": 83}, {"time": 112800, "pitch": 76, "duration": 830, "velocity": 81}, {"time": 112800, "pitch": 79, "duration": 920, "velocity": 92}, {"time": 113760, "pitch": 74, "duration": 920, "velocity": 98}, {"time": 113760, "pitch": 77, "duration": 920, "velocity": 89}, {"time": 113760, "pitch": 81, "duration": 920, "velocity": 82}, {"time": 114720, "pitch": 77, "duration": 1780, "velocity": 79}, {"time": 114720, "pitch": 81, "duration": 1740, "velocity": 92}, {"time": 114720, "pitch": 84, "duration": 1830, "velocity": 94}, {"time": 116640, "pitch": 77, "duration": 960, "velocity": 88}, {"time": 116640, "pitch": 81, "duration": 480, "velocity": 75}, {"time": 116640, "pitch": 86, "duration": 910, "velocity": 94}, {"time": 117120, "pitch": 80, "duration": 470, "velocity": 81}, {"time": 117600, "pitch": 79, "duration": 1930, "velocity": 87}, {"time": 117600, "pitch": 84, "duration": 1880, "velocity": 76}, {"time": 117600, "pitch": 88, "duration": 1800, "velocity": 93}, {"time": 119520, "pitch": 81, "duration": 990, "velocity": 73}, {"time": 119520, "pitch": 83, "duration": 860, "velocity": 85}, {"time": 119520, "pitch": 88, "duration": 810, "velocity": 88}, {"time": 120480, "pitch": 80, "duration": 960, "velocity": 90}, {"time": 120480, "pitch": 83, "duration": 960, "velocity": 71}, {"time": 120480, "pitch": 88, "duration": 960, "velocity": 80}, {"time": 121440, "pitch": 79, "duration": 1740, "velocity": 81}, {"time": 121440, "pitch": 84, "duration": 1710, "velocity": 75}, {"time": 121440, "pitch": 88, "duration": 1670, "velocity": 87}, {"time": 123360, "pitch": 67, "duration": 850, "velocity": 65}, {"time": 123360, "pitch": 70, "duration": 830, "velocity": 66}, {"time": 123360, "pitch": 74, "duration": 990, "velocity": 80}, {"time": 124320, "pitch": 67, "duration": 810, "velocity": 76}, {"time": 124320, "pitch": 70, "duration": 840, "velocity": 79}, {"time": 124320, "pitch": 76, "duration": 930, "velocity": 70}, {"time": 125280, "pitch": 65, "duration": 1860, "velocity": 77}, {"time": 125280, "pitch": 69, "duration": 1850, "velocity": 78}, {"time": 125280, "pitch": 72, "duration": 1880, "velocity": 91}, {"time": 127200, "pitch": 67, "duration": 1810, "velocity": 78}, {"time": 127200, "pitch": 72, "duration": 1810, "velocity": 71}, {"time": 127200, "pitch": 76, "duration": 1930, "velocity": 74}, {"time": 129120, "pitch": 69, "duration": 1780, "velocity": 78}, {"time": 129120, "pitch": 72, "duration": 2790, "velocity": 82}, {"time": 129120, "pitch": 77, "duration": 1770, "velocity": 74}, {"time": 131040, "pitch": 67, "duration": 840, "velocity": 83}, {"time": 131040, "pitch": 77, "duration": 940, "velocity": 83}, {"time": 132000, "pitch": 67, "duration": 400, "velocity": 68}, {"time": 132000, "pitch": 71, "duration": 430, "velocity": 79}, {"time": 132000, "pitch": 74, "duration": 430, "velocity": 83}, {"time": 132480, "pitch": 68, "duration": 430, "velocity": 82}, {"time": 132480, "pitch": 71, "duration": 440, "velocity": 70}, {"time": 132480, "pitch": 74, "duration": 460, "velocity": 77}, {"time": 132960, "pitch": 69, "duration": 1840, "velocity": 69}, {"time": 132960, "pitch": 72, "duration": 1870, "velocity": 70}, {"time": 132960, "pitch": 76, "duration": 1750, "velocity": 79}, {"time": 134880, "pitch": 67, "duration": 860, "velocity": 85}, {"time": 134880, "pitch": 70, "duration": 870, "velocity": 83}, {"time": 134880, "pitch": 74, "duration": 850, "velocity": 86}, {"time": 135840, "pitch": 67, "duration": 880, "velocity": 84}, {"time": 135840, "pitch": 70, "duration": 910, "velocity": 75}, {"time": 135840, "pitch": 74, "duration": 870, "velocity": 89}, {"time": 136800, "pitch": 65, "duration": 700, "velocity": 89}, {"time": 136800, "pitch": 69, "duration": 720, "velocity": 86}, {"time": 136800, "pitch": 76, "duration": 740, "velocity": 83}, {"time": 138000, "pitch": 72, "duration": 90, "velocity": 91}, {"time": 138000, "pitch": 76, "duration": 90, "velocity": 94}, {"time": 138000, "pitch": 81, "duration": 80, "velocity": 83}, {"time": 138450, "pitch": 71, "duration": 220, "velocity": 79}, {"time": 138450, "pitch": 75, "duration": 220, "velocity": 88}, {"time": 138450, "pitch": 80, "duration": 220, "velocity": 95}, {"time": 138720, "pitch": 70, "duration": 1860, "velocity": 81}, {"time": 138720, "pitch": 74, "duration": 1850, "velocity": 66}, {"time": 138720, "pitch": 79, "duration": 1010, "velocity": 84}, {"time": 139680, "pitch": 77, "duration": 960, "velocity": 65}, {"time": 140640, "pitch": 71, "duration": 630, "velocity": 73}, {"time": 140640, "pitch": 74, "duration": 680, "velocity": 80}, {"time": 140640, "pitch": 79, "duration": 760, "velocity": 85}, {"time": 141360, "pitch": 69, "duration": 810, "velocity": 71}, {"time": 141360, "pitch": 73, "duration": 840, "velocity": 86}, {"time": 141360, "pitch": 77, "duration": 810, "velocity": 88}, {"time": 142320, "pitch": 69, "duration": 2040, "velocity": 79}, {"time": 142320, "pitch": 72, "duration": 2040, "velocity": 77}, {"time": 142320, "pitch": 77, "duration": 2060, "velocity": 89}, {"time": 144480, "pitch": 65, "duration": 1760, "velocity": 49}, {"time": 144480, "pitch": 69, "duration": 1830, "velocity": 67}, {"time": 144480, "pitch": 74, "duration": 1930, "velocity": 73}, {"time": 146400, "pitch": 64, "duration": 1790, "velocity": 54}, {"time": 146400, "pitch": 67, "duration": 1780, "velocity": 72}, {"time": 146400, "pitch": 72, "duration": 1800, "velocity": 68}, {"time": 148320, "pitch": 84, "duration": 1830, "velocity": 71}, {"time": 148320, "pitch": 88, "duration": 1930, "velocity": 62}, {"time": 148320, "pitch": 91, "duration": 1770, "velocity": 79}, {"time": 150240, "pitch": 81, "duration": 1820, "velocity": 61}, {"time": 150240, "pitch": 84, "duration": 1820, "velocity": 50}, {"time": 150240, "pitch": 91, "duration": 970, "velocity": 84}, {"time": 151200, "pitch": 89, "duration": 890, "velocity": 77}, {"time": 152160, "pitch": 77, "duration": 1780, "velocity": 76}, {"time": 152160, "pitch": 80, "duration": 1850, "velocity": 80}, {"time": 152160, "pitch": 84, "duration": 1790, "velocity": 65}, {"time": 152160, "pitch": 86, "duration": 1920, "velocity": 81}, {"time": 154080, "pitch": 79, "duration": 1900, "velocity": 67}, {"time": 154080, "pitch": 84, "duration": 1900, "velocity": 71}, {"time": 154080, "pitch": 88, "duration": 1900, "velocity": 81}, {"time": 156000, "pitch": 78, "duration": 1900, "velocity": 76}, {"time": 156000, "pitch": 81, "duration": 1900, "velocity": 67}, {"time": 156000, "pitch": 86, "duration": 1900, "velocity": 81}, {"time": 157920, "pitch": 74, "duration": 870, "velocity": 83}, {"time": 157920, "pitch": 77, "duration": 900, "velocity": 77}, {"time": 157920, "pitch": 84, "duration": 850, "velocity": 81}, {"time": 158880, "pitch": 74, "duration": 2860, "velocity": 73}, {"time": 158880, "pitch": 80, "duration": 2860, "velocity": 75}, {"time": 158880, "pitch": 83, "duration": 2860, "velocity": 80}, {"time": 161760, "pitch": 76, "duration": 1820, "velocity": 78}, {"time": 161760, "pitch": 81, "duration": 410, "velocity": 68}, {"time": 161760, "pitch": 84, "duration": 580, "velocity": 85}, {"time": 162240, "pitch": 81, "duration": 1450, "velocity": 76}, {"time": 163680, "pitch": 76, "duration": 1800, "velocity": 84}, {"time": 163680, "pitch": 80, "duration": 1770, "velocity": 82}, {"time": 163680, "pitch": 84, "duration": 480, "velocity": 84}, {"time": 164160, "pitch": 83, "duration": 1320, "velocity": 87}, {"time": 165600, "pitch": 76, "duration": 1370, "velocity": 83}, {"time": 165600, "pitch": 79, "duration": 1380, "velocity": 81}, {"time": 165600, "pitch": 84, "duration": 1360, "velocity": 89}, {"time": 166980, "pitch": 57, "duration": 140, "velocity": 99}, {"time": 167070, "pitch": 59, "duration": 80, "velocity": 69}, {"time": 167110, "pitch": 60, "duration": 80, "velocity": 84}, {"time": 167150, "pitch": 62, "duration": 80, "velocity": 89}, {"time": 167180, "pitch": 64, "duration": 80, "velocity": 90}, {"time": 167210, "pitch": 65, "duration": 70, "velocity": 96}, {"time": 167230, "pitch": 67, "duration": 80, "velocity": 101}, {"time": 167260, "pitch": 69, "duration": 60, "velocity": 101}, {"time": 167280, "pitch": 71, "duration": 70, "velocity": 99}, {"time": 167300, "pitch": 72, "duration": 70, "velocity": 103}, {"time": 167330, "pitch": 74, "duration": 60, "velocity": 102}, {"time": 167360, "pitch": 76, "duration": 70, "velocity": 95}, {"time": 167390, "pitch": 77, "duration": 80, "velocity": 92}, {"time": 167420, "pitch": 79, "duration": 90, "velocity": 91}, {"time": 167520, "pitch": 74, "duration": 1900, "velocity": 89}, {"time": 167520, "pitch": 78, "duration": 1880, "velocity": 86}, {"time": 167520, "pitch": 81, "duration": 1910, "velocity": 99}, {"time": 169230, "pitch": 86, "duration": 210, "velocity": 82}, {"time": 169440, "pitch": 81, "duration": 460, "velocity": 92}, {"time": 169440, "pitch": 84, "duration": 490, "velocity": 94}, {"time": 169440, "pitch": 89, "duration": 440, "velocity": 103}, {"time": 169920, "pitch": 79, "duration": 180, "velocity": 96}, {"time": 169920, "pitch": 83, "duration": 180, "velocity": 89}, {"time": 169920, "pitch": 88, "duration": 180, "velocity": 104}, {"time": 170160, "pitch": 77, "duration": 170, "velocity": 94}, {"time": 170160, "pitch": 81, "duration": 170, "velocity": 81}, {"time": 170160, "pitch": 86, "duration": 140, "velocity": 100}, {"time": 170640, "pitch": 77, "duration": 630, "velocity": 94}, {"time": 170640, "pitch": 81, "duration": 630, "velocity": 79}, {"time": 170640, "pitch": 84, "duration": 640, "velocity": 95}, {"time": 171360, "pitch": 77, "duration": 2730, "velocity": 78}, {"time": 171360, "pitch": 81, "duration": 2750, "velocity": 78}, {"time": 171360, "pitch": 84, "duration": 2750, "velocity": 90}, {"time": 174240, "pitch": 77, "duration": 410, "velocity": 82}, {"time": 174240, "pitch": 81, "duration": 370, "velocity": 72}, {"time": 174240, "pitch": 84, "duration": 510, "velocity": 95}, {"time": 174720, "pitch": 77, "duration": 440, "velocity": 74}, {"time": 174720, "pitch": 80, "duration": 410, "velocity": 88}, {"time": 174720, "pitch": 86, "duration": 410, "velocity": 87}, {"time": 175200, "pitch": 79, "duration": 1840, "velocity": 69}, {"time": 175200, "pitch": 84, "duration": 1870, "velocity": 70}, {"time": 175200, "pitch": 88, "duration": 1750, "velocity": 79}, {"time": 177120, "pitch": 81, "duration": 990, "velocity": 73}, {"time": 177120, "pitch": 83, "duration": 960, "velocity": 85}, {"time": 177120, "pitch": 88, "duration": 910, "velocity": 88}, {"time": 178080, "pitch": 80, "duration": 960, "velocity": 90}, {"time": 178080, "pitch": 83, "duration": 960, "velocity": 71}, {"time": 178080, "pitch": 88, "duration": 960, "velocity": 80}, {"time": 179040, "pitch": 79, "duration": 460, "velocity": 81}, {"time": 179040, "pitch": 84, "duration": 480, "velocity": 75}, {"time": 179040, "pitch": 88, "duration": 470, "velocity": 87}, {"time": 179480, "pitch": 45, "duration": 130, "velocity": 70}, {"time": 179540, "pitch": 47, "duration": 150, "velocity": 74}, {"time": 179600, "pitch": 48, "duration": 90, "velocity": 80}, {"time": 179640, "pitch": 50, "duration": 80, "velocity": 85}, {"time": 179680, "pitch": 52, "duration": 70, "velocity": 88}, {"time": 179710, "pitch": 53, "duration": 70, "velocity": 91}, {"time": 179740, "pitch": 55, "duration": 70, "velocity": 94}, {"time": 179760, "pitch": 57, "duration": 70, "velocity": 94}, {"time": 179790, "pitch": 59, "duration": 60, "velocity": 95}, {"time": 179810, "pitch": 60, "duration": 60, "velocity": 94}, {"time": 179830, "pitch": 62, "duration": 60, "velocity": 88}, {"time": 179850, "pitch": 64, "duration": 60, "velocity": 94}, {"time": 179870, "pitch": 65, "duration": 60, "velocity": 91}, {"time": 179890, "pitch": 67, "duration": 100, "velocity": 90}, {"time": 179910, "pitch": 69, "duration": 120, "velocity": 78}, {"time": 179940, "pitch": 71, "duration": 110, "velocity": 83}, {"time": 179960, "pitch": 72, "duration": 140, "velocity": 83}, {"time": 179980, "pitch": 74, "duration": 140, "velocity": 81}, {"time": 180000, "pitch": 76, "duration": 140, "velocity": 78}, {"time": 180030, "pitch": 77, "duration": 150, "velocity": 76}, {"time": 180060, "pitch": 79, "duration": 180, "velocity": 72}, {"time": 180240, "pitch": 67, "duration": 450, "velocity": 97}, {"time": 180240, "pitch": 72, "duration": 450, "velocity": 87}, {"time": 180240, "pitch": 76, "duration": 450, "velocity": 96}, {"time": 180720, "pitch": 66, "duration": 220, "velocity": 92}, {"time": 180720, "pitch": 71, "duration": 220, "velocity": 81}, {"time": 180720, "pitch": 75, "duration": 220, "velocity": 95}, {"time": 180960, "pitch": 65, "duration": 880, "velocity": 75}, {"time": 180960, "pitch": 70, "duration": 900, "velocity": 76}, {"time": 180960, "pitch": 74, "duration": 990, "velocity": 83}, {"time": 181920, "pitch": 67, "duration": 810, "velocity": 76}, {"time": 181920, "pitch": 70, "duration": 840, "velocity": 79}, {"time": 181920, "pitch": 76, "duration": 930, "velocity": 70}, {"time": 182880, "pitch": 69, "duration": 1850, "velocity": 78}, {"time": 182880, "pitch": 72, "duration": 1880, "velocity": 87}, {"time": 182880, "pitch": 77, "duration": 1860, "velocity": 87}, {"time": 184800, "pitch": 72, "duration": 1810, "velocity": 72}, {"time": 184800, "pitch": 76, "duration": 1910, "velocity": 78}, {"time": 184800, "pitch": 79, "duration": 1810, "velocity": 84}, {"time": 186720, "pitch": 72, "duration": 1870, "velocity": 82}, {"time": 186720, "pitch": 77, "duration": 1770, "velocity": 74}, {"time": 186720, "pitch": 81, "duration": 1780, "velocity": 78}, {"time": 188160, "pitch": 84, "duration": 480, "velocity": 84}, {"time": 188640, "pitch": 77, "duration": 870, "velocity": 82}, {"time": 188640, "pitch": 81, "duration": 940, "velocity": 83}, {"time": 188640, "pitch": 84, "duration": 840, "velocity": 83}, {"time": 189600, "pitch": 79, "duration": 400, "velocity": 68}, {"time": 189600, "pitch": 83, "duration": 430, "velocity": 79}, {"time": 189600, "pitch": 86, "duration": 430, "velocity": 83}, {"time": 190080, "pitch": 80, "duration": 440, "velocity": 70}, {"time": 190080, "pitch": 83, "duration": 460, "velocity": 77}, {"time": 190080, "pitch": 86, "duration": 430, "velocity": 82}, {"time": 190560, "pitch": 81, "duration": 1870, "velocity": 70}, {"time": 190560, "pitch": 84, "duration": 1840, "velocity": 69}, {"time": 190560, "pitch": 88, "duration": 1750, "velocity": 79}, {"time": 192480, "pitch": 79, "duration": 860, "velocity": 85}, {"time": 192480, "pitch": 82, "duration": 870, "velocity": 83}, {"time": 192480, "pitch": 89, "duration": 850, "velocity": 86}, {"time": 193440, "pitch": 82, "duration": 880, "velocity": 84}, {"time": 193440, "pitch": 86, "duration": 910, "velocity": 75}, {"time": 193440, "pitch": 91, "duration": 870, "velocity": 89}, {"time": 194400, "pitch": 81, "duration": 1610, "velocity": 83}, {"time": 194400, "pitch": 84, "duration": 1600, "velocity": 89}, {"time": 194400, "pitch": 91, "duration": 1580, "velocity": 86}, {"time": 196320, "pitch": 68, "duration": 1860, "velocity": 88}, {"time": 196320, "pitch": 72, "duration": 1830, "velocity": 84}, {"time": 196320, "pitch": 74, "duration": 1850, "velocity": 66}, {"time": 198240, "pitch": 71, "duration": 630, "velocity": 73}, {"time": 198240, "pitch": 74, "duration": 680, "velocity": 80}, {"time": 198240, "pitch": 79, "duration": 760, "velocity": 85}, {"time": 198960, "pitch": 69, "duration": 810, "velocity": 71}, {"time": 198960, "pitch": 73, "duration": 840, "velocity": 86}, {"time": 198960, "pitch": 77, "duration": 810, "velocity": 88}, {"time": 199920, "pitch": 69, "duration": 2040, "velocity": 79}, {"time": 199920, "pitch": 72, "duration": 2040, "velocity": 77}, {"time": 199920, "pitch": 77, "duration": 2060, "velocity": 89}, {"time": 205400, "pitch": 41, "duration": 100, "velocity": 72}, {"time": 205420, "pitch": 43, "duration": 130, "velocity": 74}, {"time": 205480, "pitch": 45, "duration": 100, "velocity": 79}, {"time": 205520, "pitch": 47, "duration": 100, "velocity": 77}, {"time": 205560, "pitch": 48, "duration": 90, "velocity": 82}, {"time": 205590, "pitch": 50, "duration": 90, "velocity": 84}, {"time": 205630, "pitch": 52, "duration": 90, "velocity": 87}, {"time": 205660, "pitch": 53, "duration": 80, "velocity": 85}, {"time": 205690, "pitch": 55, "duration": 80, "velocity": 85}, {"time": 205720, "pitch": 57, "duration": 80, "velocity": 86}, {"time": 205750, "pitch": 59, "duration": 70, "velocity": 87}, {"time": 205780, "pitch": 60, "duration": 70, "velocity": 83}, {"time": 205800, "pitch": 62, "duration": 70, "velocity": 91}, {"time": 205820, "pitch": 64, "duration": 70, "velocity": 88}, {"time": 205850, "pitch": 65, "duration": 70, "velocity": 85}, {"time": 205870, "pitch": 67, "duration": 50, "velocity": 86}, {"time": 205890, "pitch": 69, "duration": 40, "velocity": 80}, {"time": 205920, "pitch": 71, "duration": 630, "velocity": 73}, {"time": 205920, "pitch": 74, "duration": 680, "velocity": 80}, {"time": 205920, "pitch": 79, "duration": 760, "velocity": 85}, {"time": 206640, "pitch": 69, "duration": 810, "velocity": 71}, {"time": 206640, "pitch": 73, "duration": 840, "velocity": 86}, {"time": 206640, "pitch": 77, "duration": 810, "velocity": 88}, {"time": 207600, "pitch": 69, "duration": 1160, "velocity": 79}, {"time": 207600, "pitch": 72, "duration": 1160, "velocity": 77}, {"time": 207600, "pitch": 77, "duration": 1160, "velocity": 89}, {"time": 208800, "pitch": 65, "duration": 860, "velocity": 78}, {"time": 208800, "pitch": 69, "duration": 850, "velocity": 72}, {"time": 208800, "pitch": 72, "duration": 890, "velocity": 91}, {"time": 209760, "pitch": 69, "duration": 4121, "velocity": 81}, {"time": 209760, "pitch": 72, "duration": 4314, "velocity": 78}, {"time": 209760, "pitch": 74, "duration": 1930, "velocity": 88}, {"time": 211680, "pitch": 77, "duration": 2629, "velocity": 90}, {"time": 214309, "pitch": 67, "duration": 12265, "velocity": 74}, {"time": 214309, "pitch": 72, "duration": 12265, "velocity": 80}, {"time": 214309, "pitch": 76, "duration": 12265, "velocity": 83}, {"time": 13920, "pitch": 62, "duration": 720, "velocity": 100}, {"time": 14640, "pitch": 64, "duration": 1200, "velocity": 100}, {"time": 16320, "pitch": 55, "duration": 220, "velocity": 100}, {"time": 16560, "pitch": 55, "duration": 480, "velocity": 100}, {"time": 17040, "pitch": 57, "duration": 720, "velocity": 100}, {"time": 17760, "pitch": 62, "duration": 480, "velocity": 100}, {"time": 18240, "pitch": 64, "duration": 220, "velocity": 100}, {"time": 18480, "pitch": 64, "duration": 480, "velocity": 100}, {"time": 18960, "pitch": 67, "duration": 720, "velocity": 100}, {"time": 19680, "pitch": 64, "duration": 1680, "velocity": 100}, {"time": 21600, "pitch": 62, "duration": 700, "velocity": 100}, {"time": 22320, "pitch": 62, "duration": 960, "velocity": 100}, {"time": 23520, "pitch": 67, "duration": 480, "velocity": 100}, {"time": 24000, "pitch": 65, "duration": 480, "velocity": 100}, {"time": 24480, "pitch": 64, "duration": 480, "velocity": 100}, {"time": 24960, "pitch": 60, "duration": 440, "velocity": 100}, {"time": 25440, "pitch": 60, "duration": 920, "velocity": 100}, {"time": 26400, "pitch": 60, "duration": 920, "velocity": 100}, {"time": 27360, "pitch": 60, "duration": 920, "velocity": 100}, {"time": 28320, "pitch": 60, "duration": 880, "velocity": 100}, {"time": 29280, "pitch": 62, "duration": 720, "velocity": 100}, {"time": 30000, "pitch": 64, "duration": 1200, "velocity": 100}, {"time": 31680, "pitch": 55, "duration": 220, "velocity": 100}, {"time": 31920, "pitch": 55, "duration": 480, "velocity": 100}, {"time": 32400, "pitch": 57, "duration": 720, "velocity": 100}, {"time": 33120, "pitch": 62, "duration": 480, "velocity": 100}, {"time": 33600, "pitch": 64, "duration": 220, "velocity": 100}, {"time": 33840, "pitch": 64, "duration": 480, "velocity": 100}, {"time": 34320, "pitch": 67, "duration": 720, "velocity": 100}, {"time": 35040, "pitch": 62, "duration": 720, "velocity": 100}, {"time": 35760, "pitch": 62, "duration": 240, "velocity": 100}, {"time": 36000, "pitch": 60, "duration": 720, "velocity": 100}, {"time": 36960, "pitch": 62, "duration": 600, "velocity": 100}, {"time": 37680, "pitch": 62, "duration": 1080, "velocity": 100}, {"time": 38880, "pitch": 67, "duration": 480, "velocity": 100}, {"time": 39360, "pitch": 65, "duration": 480, "velocity": 100}, {"time": 39840, "pitch": 64, "duration": 480, "velocity": 100}, {"time": 40320, "pitch": 60, "duration": 440, "velocity": 100}, {"time": 40800, "pitch": 60, "duration": 920, "velocity": 100}, {"time": 41760, "pitch": 60, "duration": 920, "velocity": 100}, {"time": 42720, "pitch": 60, "duration": 960, "velocity": 100}, {"time": 43680, "pitch": 67, "duration": 960, "velocity": 100}, {"time": 45600, "pitch": 64, "duration": 480, "velocity": 100}, {"time": 46080, "pitch": 65, "duration": 480, "velocity": 100}, {"time": 46560, "pitch": 67, "duration": 460, "velocity": 100}, {"time": 47040, "pitch": 67, "duration": 220, "velocity": 100}, {"time": 47280, "pitch": 67, "duration": 460, "velocity": 100}, {"time": 47760, "pitch": 67, "duration": 460, "velocity": 100}, {"time": 48240, "pitch": 67, "duration": 720, "velocity": 100}, {"time": 48960, "pitch": 65, "duration": 480, "velocity": 100}, {"time": 49440, "pitch": 64, "duration": 480, "velocity": 100}, {"time": 49920, "pitch": 62, "duration": 240, "velocity": 100}, {"time": 50160, "pitch": 60, "duration": 220, "velocity": 100}, {"time": 50400, "pitch": 60, "duration": 1680, "velocity": 100}, {"time": 52320, "pitch": 60, "duration": 240, "velocity": 100}, {"time": 52560, "pitch": 62, "duration": 480, "velocity": 100}, {"time": 53040, "pitch": 64, "duration": 480, "velocity": 100}, {"time": 53520, "pitch": 67, "duration": 680, "velocity": 100}, {"time": 54240, "pitch": 67, "duration": 480, "velocity": 100}, {"time": 54720, "pitch": 65, "duration": 240, "velocity": 100}, {"time": 54960, "pitch": 72, "duration": 480, "velocity": 100}, {"time": 55440, "pitch": 65, "duration": 720, "velocity": 100}, {"time": 56160, "pitch": 67, "duration": 480, "velocity": 100}, {"time": 56640, "pitch": 64, "duration": 240, "velocity": 100}, {"time": 56880, "pitch": 72, "duration": 480, "velocity": 100}, {"time": 57360, "pitch": 64, "duration": 720, "velocity": 100}, {"time": 58080, "pitch": 67, "duration": 480, "velocity": 100}, {"time": 58560, "pitch": 65, "duration": 220, "velocity": 100}, {"time": 58800, "pitch": 65, "duration": 480, "velocity": 100}, {"time": 59280, "pitch": 64, "duration": 480, "velocity": 100}, {"time": 59760, "pitch": 64, "duration": 240, "velocity": 100}, {"time": 60000, "pitch": 62, "duration": 720, "velocity": 100}, {"time": 60960, "pitch": 64, "duration": 480, "velocity": 100}, {"time": 61440, "pitch": 65, "duration": 480, "velocity": 100}, {"time": 61920, "pitch": 67, "duration": 460, "velocity": 100}, {"time": 62400, "pitch": 67, "duration": 220, "velocity": 100}, {"time": 62640, "pitch": 67, "duration": 460, "velocity": 100}, {"time": 63120, "pitch": 67, "duration": 460, "velocity": 100}, {"time": 63600, "pitch": 67, "duration": 720, "velocity": 100}, {"time": 64320, "pitch": 64, "duration": 480, "velocity": 100}, {"time": 64800, "pitch": 67, "duration": 480, "velocity": 100}, {"time": 65280, "pitch": 74, "duration": 480, "velocity": 100}, {"time": 65760, "pitch": 72, "duration": 1440, "velocity": 100}, {"time": 67440, "pitch": 64, "duration": 240, "velocity": 100}, {"time": 67680, "pitch": 62, "duration": 240, "velocity": 100}, {"time": 67920, "pitch": 60, "duration": 480, "velocity": 100}, {"time": 68640, "pitch": 60, "duration": 340, "velocity": 100}, {"time": 68980, "pitch": 62, "duration": 340, "velocity": 100}, {"time": 69320, "pitch": 64, "duration": 280, "velocity": 100}, {"time": 69600, "pitch": 67, "duration": 480, "velocity": 100}, {"time": 70080, "pitch": 65, "duration": 220, "velocity": 100}, {"time": 70320, "pitch": 65, "duration": 480, "velocity": 100}, {"time": 70800, "pitch": 64, "duration": 480, "velocity": 100}, {"time": 71280, "pitch": 65, "duration": 720, "velocity": 100}, {"time": 72000, "pitch": 64, "duration": 480, "velocity": 100}, {"time": 72480, "pitch": 60, "duration": 480, "velocity": 100}, {"time": 72960, "pitch": 62, "duration": 480, "velocity": 100}, {"time": 73440, "pitch": 62, "duration": 720, "velocity": 100}, {"time": 74160, "pitch": 62, "duration": 240, "velocity": 100}, {"time": 74400, "pitch": 60, "duration": 2640, "velocity": 100}, {"time": 84960, "pitch": 62, "duration": 720, "velocity": 100}, {"time": 85680, "pitch": 64, "duration": 1200, "velocity": 100}, {"time": 87360, "pitch": 55, "duration": 220, "velocity": 100}, {"time": 87600, "pitch": 55, "duration": 480, "velocity": 100}, {"time": 88080, "pitch": 57, "duration": 720, "velocity": 100}, {"time": 88800, "pitch": 62, "duration": 480, "velocity": 100}, {"time": 89280, "pitch": 64, "duration": 220, "velocity": 100}, {"time": 89520, "pitch": 64, "duration": 480, "velocity": 100}, {"time": 90000, "pitch": 67, "duration": 720, "velocity": 100}, {"time": 90720, "pitch": 64, "duration": 1680, "velocity": 100}, {"time": 92640, "pitch": 62, "duration": 700, "velocity": 100}, {"time": 93360, "pitch": 62, "duration": 960, "velocity": 100}, {"time": 94560, "pitch": 67, "duration": 480, "velocity": 100}, {"time": 95040, "pitch": 65, "duration": 480, "velocity": 100}, {"time": 95520, "pitch": 64, "duration": 480, "velocity": 100}, {"time": 96000, "pitch": 60, "duration": 440, "velocity": 100}, {"time": 96480, "pitch": 60, "duration": 920, "velocity": 100}, {"time": 97440, "pitch": 60, "duration": 920, "velocity": 100}, {"time": 98400, "pitch": 60, "duration": 920, "velocity": 100}, {"time": 99360, "pitch": 60, "duration": 880, "velocity": 100}, {"time": 100320, "pitch": 62, "duration": 720, "velocity": 100}, {"time": 101040, "pitch": 64, "duration": 1200, "velocity": 100}, {"time": 102720, "pitch": 55, "duration": 220, "velocity": 100}, {"time": 102960, "pitch": 55, "duration": 480, "velocity": 100}, {"time": 103440, "pitch": 57, "duration": 720, "velocity": 100}, {"time": 104160, "pitch": 62, "duration": 480, "velocity": 100}, {"time": 104640, "pitch": 64, "duration": 220, "velocity": 100}, {"time": 104880, "pitch": 64, "duration": 480, "velocity": 100}, {"time": 105360, "pitch": 67, "duration": 720, "velocity": 100}, {"time": 106080, "pitch": 62, "duration": 720, "velocity": 100}, {"time": 106800, "pitch": 62, "duration": 240, "velocity": 100}, {"time": 107040, "pitch": 60, "duration": 720, "velocity": 100}, {"time": 108000, "pitch": 62, "duration": 600, "velocity": 100}, {"time": 108720, "pitch": 62, "duration": 1080, "velocity": 100}, {"time": 109920, "pitch": 67, "duration": 480, "velocity": 100}, {"time": 110400, "pitch": 65, "duration": 480, "velocity": 100}, {"time": 110880, "pitch": 64, "duration": 480, "velocity": 100}, {"time": 111360, "pitch": 60, "duration": 440, "velocity": 100}, {"time": 111840, "pitch": 60, "duration": 920, "velocity": 100}, {"time": 112800, "pitch": 60, "duration": 920, "velocity": 100}, {"time": 113760, "pitch": 60, "duration": 960, "velocity": 100}, {"time": 114720, "pitch": 67, "duration": 960, "velocity": 100}, {"time": 116640, "pitch": 64, "duration": 480, "velocity": 100}, {"time": 117120, "pitch": 65, "duration": 480, "velocity": 100}, {"time": 117600, "pitch": 67, "duration": 460, "velocity": 100}, {"time": 118080, "pitch": 67, "duration": 220, "velocity": 100}, {"time": 118320, "pitch": 67, "duration": 460, "velocity": 100}, {"time": 118800, "pitch": 67, "duration": 460, "velocity": 100}, {"time": 119280, "pitch": 67, "duration": 720, "velocity": 100}, {"time": 120000, "pitch": 65, "duration": 480, "velocity": 100}, {"time": 120480, "pitch": 64, "duration": 480, "velocity": 100}, {"time": 120960, "pitch": 62, "duration": 240, "velocity": 100}, {"time": 121200, "pitch": 60, "duration": 220, "velocity": 100}, {"time": 121440, "pitch": 60, "duration": 1680, "velocity": 100}, {"time": 123360, "pitch": 60, "duration": 240, "velocity": 100}, {"time": 123600, "pitch": 62, "duration": 480, "velocity": 100}, {"time": 124080, "pitch": 64, "duration": 480, "velocity": 100}, {"time": 124560, "pitch": 67, "duration": 680, "velocity": 100}, {"time": 125280, "pitch": 67, "duration": 480, "velocity": 100}, {"time": 125760, "pitch": 65, "duration": 240, "velocity": 100}, {"time": 126000, "pitch": 72, "duration": 480, "velocity": 100}, {"time": 126480, "pitch": 65, "duration": 720, "velocity": 100}, {"time": 127200, "pitch": 67, "duration": 480, "velocity": 100}, {"time": 127680, "pitch": 64, "duration": 240, "velocity": 100}, {"time": 127920, "pitch": 72, "duration": 480, "velocity": 100}, {"time": 128400, "pitch": 64, "duration": 720, "velocity": 100}, {"time": 129120, "pitch": 67, "duration": 480, "velocity": 100}, {"time": 129600, "pitch": 65, "duration": 220, "velocity": 100}, {"time": 129840, "pitch": 65, "duration": 480, "velocity": 100}, {"time": 130320, "pitch": 64, "duration": 480, "velocity": 100}, {"time": 130800, "pitch": 64, "duration": 240, "velocity": 100}, {"time": 131040, "pitch": 62, "duration": 720, "velocity": 100}, {"time": 132000, "pitch": 64, "duration": 480, "velocity": 100}, {"time": 132480, "pitch": 65, "duration": 480, "velocity": 100}, {"time": 132960, "pitch": 67, "duration": 460, "velocity": 100}, {"time": 133440, "pitch": 67, "duration": 220, "velocity": 100}, {"time": 133680, "pitch": 67, "duration": 460, "velocity": 100}, {"time": 134160, "pitch": 67, "duration": 460, "velocity": 100}, {"time": 134640, "pitch": 67, "duration": 720, "velocity": 100}, {"time": 135360, "pitch": 64, "duration": 480, "velocity": 100}, {"time": 135840, "pitch": 67, "duration": 480, "velocity": 100}, {"time": 136320, "pitch": 74, "duration": 480, "velocity": 100}, {"time": 136800, "pitch": 72, "duration": 1680, "velocity": 100}, {"time": 138480, "pitch": 64, "duration": 240, "velocity": 100}, {"time": 138720, "pitch": 62, "duration": 240, "velocity": 100}, {"time": 138960, "pitch": 60, "duration": 480, "velocity": 100}, {"time": 139680, "pitch": 60, "duration": 340, "velocity": 100}, {"time": 140020, "pitch": 62, "duration": 340, "velocity": 100}, {"time": 140360, "pitch": 64, "duration": 280, "velocity": 100}, {"time": 140640, "pitch": 67, "duration": 480, "velocity": 100}, {"time": 141120, "pitch": 65, "duration": 220, "velocity": 100}, {"time": 141360, "pitch": 65, "duration": 480, "velocity": 100}, {"time": 141840, "pitch": 64, "duration": 480, "velocity": 100}, {"time": 142320, "pitch": 65, "duration": 720, "velocity": 100}, {"time": 143040, "pitch": 64, "duration": 480, "velocity": 100}, {"time": 143520, "pitch": 60, "duration": 480, "velocity": 100}, {"time": 144000, "pitch": 62, "duration": 480, "velocity": 100}, {"time": 144480, "pitch": 62, "duration": 720, "velocity": 100}, {"time": 145200, "pitch": 62, "duration": 240, "velocity": 100}, {"time": 145440, "pitch": 60, "duration": 2640, "velocity": 100}, {"time": 174240, "pitch": 64, "duration": 480, "velocity": 100}, {"time": 174720, "pitch": 65, "duration": 480, "velocity": 100}, {"time": 175200, "pitch": 67, "duration": 460, "velocity": 100}, {"time": 175680, "pitch": 67, "duration": 220, "velocity": 100}, {"time": 175920, "pitch": 67, "duration": 460, "velocity": 100}, {"time": 176400, "pitch": 67, "duration": 460, "velocity": 100}, {"time": 176880, "pitch": 67, "duration": 720, "velocity": 100}, {"time": 177600, "pitch": 65, "duration": 480, "velocity": 100}, {"time": 178080, "pitch": 64, "duration": 480, "velocity": 100}, {"time": 178560, "pitch": 62, "duration": 240, "velocity": 100}, {"time": 178800, "pitch": 60, "duration": 220, "velocity": 100}, {"time": 179040, "pitch": 60, "duration": 1680, "velocity": 100}, {"time": 180960, "pitch": 60, "duration": 240, "velocity": 100}, {"time": 181200, "pitch": 62, "duration": 480, "velocity": 100}, {"time": 181680, "pitch": 64, "duration": 480, "velocity": 100}, {"time": 182160, "pitch": 67, "duration": 680, "velocity": 100}, {"time": 182880, "pitch": 67, "duration": 480, "velocity": 100}, {"time": 183360, "pitch": 65, "duration": 240, "velocity": 100}, {"time": 183600, "pitch": 72, "duration": 480, "velocity": 100}, {"time": 184080, "pitch": 65, "duration": 720, "velocity": 100}, {"time": 184800, "pitch": 67, "duration": 480, "velocity": 100}, {"time": 185280, "pitch": 64, "duration": 240, "velocity": 100}, {"time": 185520, "pitch": 72, "duration": 480, "velocity": 100}, {"time": 186000, "pitch": 64, "duration": 720, "velocity": 100}, {"time": 186720, "pitch": 67, "duration": 480, "velocity": 100}, {"time": 187200, "pitch": 65, "duration": 220, "velocity": 100}, {"time": 187440, "pitch": 65, "duration": 480, "velocity": 100}, {"time": 187920, "pitch": 64, "duration": 480, "velocity": 100}, {"time": 188400, "pitch": 64, "duration": 240, "velocity": 100}, {"time": 188640, "pitch": 62, "duration": 720, "velocity": 100}, {"time": 189600, "pitch": 64, "duration": 480, "velocity": 100}, {"time": 190080, "pitch": 65, "duration": 480, "velocity": 100}, {"time": 190560, "pitch": 67, "duration": 460, "velocity": 100}, {"time": 191040, "pitch": 67, "duration": 220, "velocity": 100}, {"time": 191280, "pitch": 67, "duration": 460, "velocity": 100}, {"time": 191760, "pitch": 67, "duration": 460, "velocity": 100}, {"time": 192240, "pitch": 67, "duration": 720, "velocity": 100}, {"time": 192960, "pitch": 64, "duration": 480, "velocity": 100}, {"time": 193440, "pitch": 67, "duration": 480, "velocity": 100}, {"time": 193920, "pitch": 74, "duration": 480, "velocity": 100}, {"time": 194400, "pitch": 72, "duration": 1680, "velocity": 100}, {"time": 196080, "pitch": 64, "duration": 240, "velocity": 100}, {"time": 196320, "pitch": 62, "duration": 240, "velocity": 100}, {"time": 196560, "pitch": 60, "duration": 480, "velocity": 100}, {"time": 197280, "pitch": 60, "duration": 340, "velocity": 100}, {"time": 197620, "pitch": 62, "duration": 340, "velocity": 100}, {"time": 197960, "pitch": 64, "duration": 280, "velocity": 100}, {"time": 198240, "pitch": 67, "duration": 480, "velocity": 100}, {"time": 198720, "pitch": 65, "duration": 220, "velocity": 100}, {"time": 198960, "pitch": 65, "duration": 480, "velocity": 100}, {"time": 199440, "pitch": 64, "duration": 480, "velocity": 100}, {"time": 199920, "pitch": 65, "duration": 720, "velocity": 100}, {"time": 200640, "pitch": 64, "duration": 480, "velocity": 100}, {"time": 201120, "pitch": 60, "duration": 480, "velocity": 100}, {"time": 201600, "pitch": 62, "duration": 960, "velocity": 100}, {"time": 204960, "pitch": 60, "duration": 340, "velocity": 100}, {"time": 205300, "pitch": 62, "duration": 340, "velocity": 100}, {"time": 205640, "pitch": 64, "duration": 280, "velocity": 100}, {"time": 205920, "pitch": 67, "duration": 480, "velocity": 100}, {"time": 206400, "pitch": 65, "duration": 220, "velocity": 100}, {"time": 206640, "pitch": 65, "duration": 480, "velocity": 100}, {"time": 207120, "pitch": 64, "duration": 480, "velocity": 100}, {"time": 207600, "pitch": 65, "duration": 720, "velocity": 100}, {"time": 208320, "pitch": 64, "duration": 480, "velocity": 100}, {"time": 208800, "pitch": 60, "duration": 480, "velocity": 100}, {"time": 209280, "pitch": 62, "duration": 480, "velocity": 100}, {"time": 209760, "pitch": 62, "duration": 3360, "velocity": 100}, {"time": 213608, "pitch": 62, "duration": 665, "velocity": 100}, {"time": 214273, "pitch": 60, "duration": 6910, "velocity": 100}, {"time": 148320, "pitch": 64, "duration": 480, "velocity": 115}, {"time": 148800, "pitch": 65, "duration": 230, "velocity": 110}, {"time": 149040, "pitch": 65, "duration": 510, "velocity": 114}, {"time": 149520, "pitch": 67, "duration": 500, "velocity": 105}, {"time": 150000, "pitch": 72, "duration": 2120, "velocity": 117}, {"time": 152160, "pitch": 65, "duration": 480, "velocity": 109}, {"time": 152640, "pitch": 67, "duration": 240, "velocity": 107}, {"time": 152880, "pitch": 65, "duration": 480, "velocity": 111}, {"time": 153360, "pitch": 62, "duration": 480, "velocity": 107}, {"time": 153840, "pitch": 64, "duration": 2130, "velocity": 110}, {"time": 156000, "pitch": 64, "duration": 480, "velocity": 110}, {"time": 156480, "pitch": 62, "duration": 200, "velocity": 106}, {"time": 156720, "pitch": 62, "duration": 460, "velocity": 112}, {"time": 157180, "pitch": 69, "duration": 740, "velocity": 108}, {"time": 157920, "pitch": 60, "duration": 960, "velocity": 110}, {"time": 158880, "pitch": 59, "duration": 2860, "velocity": 104}, {"time": 161760, "pitch": 60, "duration": 460, "velocity": 109}, {"time": 162240, "pitch": 62, "duration": 460, "velocity": 99}, {"time": 162720, "pitch": 62, "duration": 220, "velocity": 95}, {"time": 162960, "pitch": 64, "duration": 700, "velocity": 110}, {"time": 163680, "pitch": 60, "duration": 460, "velocity": 103}, {"time": 164160, "pitch": 62, "duration": 220, "velocity": 96}, {"time": 164400, "pitch": 64, "duration": 1180, "velocity": 113}, {"time": 165600, "pitch": 60, "duration": 460, "velocity": 107}, {"time": 166080, "pitch": 62, "duration": 460, "velocity": 98}, {"time": 166560, "pitch": 62, "duration": 460, "velocity": 102}, {"time": 167040, "pitch": 64, "duration": 2360, "velocity": 110}, {"time": 167280, "pitch": 69, "duration": 2120, "velocity": 104}]}]}