{"metadata": {"schema_version": "0.1", "title": "RWC-MDB-P-2001 No. 40: promise / Kazuo Nishi", "copyright": "RWC Music Database. Copyright (C) 2001 Real World Computing Partnership (contact: Masataka GOTO <m.goto@aist.go.jp>)", "source_filename": "RM-P040.SMF_SYNC.MID", "source_format": "midi"}, "resolution": 480, "tempos": [{"time": 0, "qpm": 58.25242718446602}, {"time": 480, "qpm": 122.44897959183673}, {"time": 2400, "qpm": 120.0}, {"time": 2880, "qpm": 122.44897959183673}, {"time": 4800, "qpm": 120.0}, {"time": 5280, "qpm": 122.44897959183673}, {"time": 7680, "qpm": 120.0}, {"time": 8160, "qpm": 122.44897959183673}, {"time": 9600, "qpm": 120.0}, {"time": 10080, "qpm": 125.0}, {"time": 10560, "qpm": 120.0}, {"time": 11040, "qpm": 122.44897959183673}, {"time": 12960, "qpm": 120.0}, {"time": 13440, "qpm": 122.44897959183673}, {"time": 15840, "qpm": 120.0}, {"time": 16320, "qpm": 122.44897959183673}, {"time": 18720, "qpm": 120.0}, {"time": 19200, "qpm": 122.44897959183673}, {"time": 21120, "qpm": 120.0}, {"time": 21600, "qpm": 122.44897959183673}, {"time": 23520, "qpm": 120.0}, {"time": 24000, "qpm": 122.44897959183673}, {"time": 26400, "qpm": 120.0}, {"time": 26880, "qpm": 122.44897959183673}, {"time": 28800, "qpm": 120.0}, {"time": 29280, "qpm": 122.44897959183673}, {"time": 31680, "qpm": 120.0}, {"time": 32160, "qpm": 122.44897959183673}, {"time": 33600, "qpm": 120.0}, {"time": 34080, "qpm": 122.44897959183673}, {"time": 37440, "qpm": 120.0}, {"time": 37920, "qpm": 122.44897959183673}, {"time": 39840, "qpm": 120.0}, {"time": 40320, "qpm": 122.44897959183673}, {"time": 42240, "qpm": 120.0}, {"time": 42720, "qpm": 122.44897959183673}, {"time": 45120, "qpm": 120.0}, {"time": 45600, "qpm": 122.44897959183673}, {"time": 47520, "qpm": 120.0}, {"time": 48000, "qpm": 122.44897959183673}, {"time": 50400, "qpm": 120.0}, {"time": 50880, "qpm": 122.44897959183673}, {"time": 52800, "qpm": 120.0}, {"time": 53280, "qpm": 122.44897959183673}, {"time": 55680, "qpm": 120.0}, {"time": 56160, "qpm": 122.44897959183673}, {"time": 57600, "qpm": 120.0}, {"time": 58080, "qpm": 122.44897959183673}, {"time": 61440, "qpm": 120.0}, {"time": 61920, "qpm": 122.44897959183673}, {"time": 63360, "qpm": 120.0}, {"time": 63840, "qpm": 122.44897959183673}, {"time": 66240, "qpm": 120.0}, {"time": 66720, "qpm": 122.44897959183673}, {"time": 69120, "qpm": 120.0}, {"time": 69600, "qpm": 122.44897959183673}, {"time": 71520, "qpm": 120.0}, {"time": 72000, "qpm": 122.44897959183673}, {"time": 74400, "qpm": 120.0}, {"time": 74880, "qpm": 122.44897959183673}, {"time": 76800, "qpm": 120.0}, {"time": 77280, "qpm": 122.44897959183673}, {"time": 79680, "qpm": 120.0}, {"time": 80160, "qpm": 122.44897959183673}, {"time": 81600, "qpm": 120.0}, {"time": 82080, "qpm": 122.44897959183673}, {"time": 84960, "qpm": 120.0}, {"time": 85440, "qpm": 122.44897959183673}, {"time": 87360, "qpm": 120.0}, {"time": 87840, "qpm": 122.44897959183673}, {"time": 90720, "qpm": 120.0}, {"time": 91200, "qpm": 122.44897959183673}, {"time": 92160, "qpm": 120.0}, {"time": 92640, "qpm": 122.44897959183673}, {"time": 96000, "qpm": 120.0}, {"time": 96480, "qpm": 122.44897959183673}, {"time": 97920, "qpm": 120.0}, {"time": 98400, "qpm": 122.44897959183673}, {"time": 100800, "qpm": 120.0}, {"time": 101280, "qpm": 122.44897959183673}, {"time": 103200, "qpm": 120.0}, {"time": 103680, "qpm": 125.0}, {"time": 104160, "qpm": 120.0}, {"time": 104640, "qpm": 122.44897959183673}, {"time": 106080, "qpm": 120.0}, {"time": 106560, "qpm": 122.44897959183673}, {"time": 108960, "qpm": 120.0}, {"time": 109440, "qpm": 122.44897959183673}, {"time": 110880, "qpm": 120.0}, {"time": 111360, "qpm": 122.44897959183673}, {"time": 114720, "qpm": 120.0}, {"time": 115200, "qpm": 122.44897959183673}, {"time": 116640, "qpm": 120.0}, {"time": 117120, "qpm": 122.44897959183673}, {"time": 119040, "qpm": 120.0}, {"time": 119520, "qpm": 125.0}, {"time": 120000, "qpm": 120.0}, {"time": 120480, "qpm": 122.44897959183673}, {"time": 121920, "qpm": 120.0}, {"time": 122400, "qpm": 122.44897959183673}, {"time": 124800, "qpm": 120.0}, {"time": 125280, "qpm": 122.44897959183673}, {"time": 127200, "qpm": 120.0}, {"time": 127680, "qpm": 122.44897959183673}, {"time": 130080, "qpm": 120.0}, {"time": 130560, "qpm": 122.44897959183673}, {"time": 132480, "qpm": 120.0}, {"time": 132960, "qpm": 122.44897959183673}, {"time": 135360, "qpm": 120.0}, {"time": 135840, "qpm": 122.44897959183673}, {"time": 138240, "qpm": 120.0}, {"time": 138720, "qpm": 122.44897959183673}, {"time": 140160, "qpm": 120.0}, {"time": 140640, "qpm": 122.44897959183673}, {"time": 141600, "qpm": 120.0}, {"time": 142080, "qpm": 125.0}, {"time": 142560, "qpm": 122.44897959183673}, {"time": 143040, "qpm": 120.0}, {"time": 143520, "qpm": 125.0}, {"time": 144000, "qpm": 120.0}, {"time": 144480, "qpm": 122.44897959183673}, {"time": 145920, "qpm": 120.0}, {"time": 146400, "qpm": 122.44897959183673}, {"time": 148800, "qpm": 120.0}, {"time": 149280, "qpm": 122.44897959183673}, {"time": 151200, "qpm": 120.0}, {"time": 151680, "qpm": 122.44897959183673}, {"time": 153600, "qpm": 120.0}, {"time": 154080, "qpm": 122.44897959183673}, {"time": 156480, "qpm": 120.0}, {"time": 156960, "qpm": 125.0}, {"time": 157440, "qpm": 120.0}, {"time": 157920, "qpm": 122.44897959183673}, {"time": 159360, "qpm": 120.0}, {"time": 159840, "qpm": 122.44897959183673}, {"time": 162720, "qpm": 120.0}, {"time": 163200, "qpm": 122.44897959183673}, {"time": 164640, "qpm": 120.0}, {"time": 165120, "qpm": 122.44897959183673}, {"time": 167040, "qpm": 120.0}, {"time": 167520, "qpm": 125.0}, {"time": 168000, "qpm": 120.0}, {"time": 168480, "qpm": 122.44897959183673}, {"time": 169920, "qpm": 120.0}, {"time": 170400, "qpm": 122.44897959183673}, {"time": 172320, "qpm": 120.0}, {"time": 172800, "qpm": 122.44897959183673}, {"time": 175200, "qpm": 120.0}, {"time": 175680, "qpm": 122.44897959183673}, {"time": 178080, "qpm": 120.0}, {"time": 178560, "qpm": 122.44897959183673}, {"time": 180480, "qpm": 120.0}, {"time": 180960, "qpm": 122.44897959183673}, {"time": 183360, "qpm": 120.0}, {"time": 183840, "qpm": 122.44897959183673}, {"time": 186720, "qpm": 120.0}, {"time": 187200, "qpm": 122.44897959183673}, {"time": 188160, "qpm": 120.0}, {"time": 188640, "qpm": 122.44897959183673}, {"time": 192000, "qpm": 120.0}, {"time": 192480, "qpm": 122.44897959183673}, {"time": 193920, "qpm": 120.0}, {"time": 194400, "qpm": 122.44897959183673}, {"time": 197280, "qpm": 120.0}, {"time": 197760, "qpm": 122.44897959183673}, {"time": 199200, "qpm": 120.0}, {"time": 199680, "qpm": 122.44897959183673}, {"time": 202080, "qpm": 120.0}, {"time": 202560, "qpm": 122.44897959183673}, {"time": 204000, "qpm": 120.0}, {"time": 204480, "qpm": 122.44897959183673}, {"time": 207360, "qpm": 120.0}, {"time": 207840, "qpm": 122.44897959183673}, {"time": 210720, "qpm": 120.0}, {"time": 211200, "qpm": 122.44897959183673}, {"time": 212160, "qpm": 120.0}, {"time": 212640, "qpm": 122.44897959183673}, {"time": 216000, "qpm": 120.0}, {"time": 216480, "qpm": 122.44897959183673}], "key_signatures": [{"time": 0, "root": 0, "mode": "major"}], "time_signatures": [{"time": 0, "numerator": 1, "denominator": 4}, {"time": 480, "numerator": 4, "denominator": 4}], "tracks": [{"program": 0, "is_drum": false, "name": "Piano", "notes": [{"time": 479, "pitch": 41, "duration": 238, "velocity": 112}, {"time": 479, "pitch": 60, "duration": 893, "velocity": 120}, {"time": 479, "pitch": 65, "duration": 886, "velocity": 121}, {"time": 479, "pitch": 69, "duration": 902, "velocity": 120}, {"time": 718, "pitch": 53, "duration": 281, "velocity": 104}, {"time": 959, "pitch": 41, "duration": 227, "velocity": 100}, {"time": 1200, "pitch": 53, "duration": 218, "velocity": 111}, {"time": 1441, "pitch": 41, "duration": 284, "velocity": 111}, {"time": 1441, "pitch": 60, "duration": 834, "velocity": 108}, {"time": 1441, "pitch": 64, "duration": 826, "velocity": 117}, {"time": 1441, "pitch": 67, "duration": 842, "velocity": 120}, {"time": 1682, "pitch": 53, "duration": 231, "velocity": 98}, {"time": 1923, "pitch": 41, "duration": 313, "velocity": 112}, {"time": 2163, "pitch": 53, "duration": 205, "velocity": 90}, {"time": 2404, "pitch": 41, "duration": 320, "velocity": 111}, {"time": 2404, "pitch": 62, "duration": 411, "velocity": 121}, {"time": 2404, "pitch": 65, "duration": 411, "velocity": 122}, {"time": 2404, "pitch": 70, "duration": 407, "velocity": 120}, {"time": 2640, "pitch": 53, "duration": 261, "velocity": 95}, {"time": 2876, "pitch": 41, "duration": 216, "velocity": 108}, {"time": 2876, "pitch": 62, "duration": 85, "velocity": 108}, {"time": 2876, "pitch": 65, "duration": 86, "velocity": 114}, {"time": 2876, "pitch": 70, "duration": 102, "velocity": 111}, {"time": 3117, "pitch": 53, "duration": 232, "velocity": 95}, {"time": 3117, "pitch": 60, "duration": 1030, "velocity": 112}, {"time": 3117, "pitch": 65, "duration": 1042, "velocity": 122}, {"time": 3117, "pitch": 69, "duration": 1042, "velocity": 112}, {"time": 3358, "pitch": 41, "duration": 243, "velocity": 111}, {"time": 3599, "pitch": 53, "duration": 269, "velocity": 87}, {"time": 3840, "pitch": 41, "duration": 261, "velocity": 98}, {"time": 4081, "pitch": 53, "duration": 272, "velocity": 85}, {"time": 4322, "pitch": 41, "duration": 285, "velocity": 111}, {"time": 4322, "pitch": 60, "duration": 845, "velocity": 117}, {"time": 4322, "pitch": 65, "duration": 841, "velocity": 122}, {"time": 4322, "pitch": 69, "duration": 829, "velocity": 120}, {"time": 4562, "pitch": 53, "duration": 265, "velocity": 83}, {"time": 4803, "pitch": 41, "duration": 306, "velocity": 112}, {"time": 5039, "pitch": 53, "duration": 256, "velocity": 87}, {"time": 5275, "pitch": 41, "duration": 320, "velocity": 108}, {"time": 5275, "pitch": 60, "duration": 879, "velocity": 112}, {"time": 5275, "pitch": 64, "duration": 855, "velocity": 120}, {"time": 5275, "pitch": 67, "duration": 868, "velocity": 114}, {"time": 5516, "pitch": 53, "duration": 267, "velocity": 86}, {"time": 5757, "pitch": 41, "duration": 264, "velocity": 104}, {"time": 5998, "pitch": 53, "duration": 229, "velocity": 73}, {"time": 6239, "pitch": 41, "duration": 307, "velocity": 104}, {"time": 6239, "pitch": 58, "duration": 438, "velocity": 117}, {"time": 6239, "pitch": 62, "duration": 462, "velocity": 122}, {"time": 6239, "pitch": 65, "duration": 465, "velocity": 122}, {"time": 6480, "pitch": 53, "duration": 281, "velocity": 90}, {"time": 6721, "pitch": 41, "duration": 265, "velocity": 108}, {"time": 6721, "pitch": 58, "duration": 91, "velocity": 81}, {"time": 6721, "pitch": 62, "duration": 60, "velocity": 90}, {"time": 6721, "pitch": 65, "duration": 71, "velocity": 90}, {"time": 6962, "pitch": 53, "duration": 296, "velocity": 72}, {"time": 6962, "pitch": 57, "duration": 1134, "velocity": 111}, {"time": 6962, "pitch": 60, "duration": 1064, "velocity": 114}, {"time": 6962, "pitch": 65, "duration": 1091, "velocity": 122}, {"time": 7202, "pitch": 41, "duration": 262, "velocity": 104}, {"time": 7443, "pitch": 53, "duration": 281, "velocity": 75}, {"time": 7684, "pitch": 41, "duration": 287, "velocity": 108}, {"time": 7920, "pitch": 53, "duration": 191, "velocity": 90}, {"time": 8156, "pitch": 41, "duration": 240, "velocity": 112}, {"time": 8156, "pitch": 60, "duration": 894, "velocity": 120}, {"time": 8156, "pitch": 65, "duration": 887, "velocity": 121}, {"time": 8156, "pitch": 69, "duration": 903, "velocity": 120}, {"time": 8397, "pitch": 53, "duration": 281, "velocity": 104}, {"time": 8638, "pitch": 41, "duration": 227, "velocity": 100}, {"time": 8879, "pitch": 53, "duration": 218, "velocity": 111}, {"time": 9120, "pitch": 41, "duration": 284, "velocity": 111}, {"time": 9120, "pitch": 60, "duration": 834, "velocity": 108}, {"time": 9120, "pitch": 64, "duration": 826, "velocity": 117}, {"time": 9120, "pitch": 67, "duration": 842, "velocity": 120}, {"time": 9361, "pitch": 53, "duration": 230, "velocity": 98}, {"time": 9601, "pitch": 41, "duration": 314, "velocity": 112}, {"time": 9842, "pitch": 53, "duration": 205, "velocity": 90}, {"time": 10083, "pitch": 41, "duration": 320, "velocity": 111}, {"time": 10083, "pitch": 62, "duration": 411, "velocity": 121}, {"time": 10083, "pitch": 65, "duration": 411, "velocity": 122}, {"time": 10083, "pitch": 70, "duration": 407, "velocity": 120}, {"time": 10319, "pitch": 53, "duration": 261, "velocity": 95}, {"time": 10555, "pitch": 41, "duration": 216, "velocity": 108}, {"time": 10555, "pitch": 62, "duration": 84, "velocity": 108}, {"time": 10555, "pitch": 65, "duration": 85, "velocity": 114}, {"time": 10555, "pitch": 70, "duration": 102, "velocity": 111}, {"time": 10796, "pitch": 53, "duration": 232, "velocity": 95}, {"time": 10796, "pitch": 60, "duration": 1030, "velocity": 112}, {"time": 10796, "pitch": 65, "duration": 1042, "velocity": 122}, {"time": 10796, "pitch": 69, "duration": 1042, "velocity": 112}, {"time": 11037, "pitch": 41, "duration": 243, "velocity": 111}, {"time": 11278, "pitch": 53, "duration": 269, "velocity": 87}, {"time": 11519, "pitch": 41, "duration": 261, "velocity": 98}, {"time": 11760, "pitch": 53, "duration": 272, "velocity": 85}, {"time": 12000, "pitch": 41, "duration": 286, "velocity": 111}, {"time": 12000, "pitch": 60, "duration": 854, "velocity": 117}, {"time": 12000, "pitch": 65, "duration": 850, "velocity": 122}, {"time": 12000, "pitch": 69, "duration": 838, "velocity": 120}, {"time": 12241, "pitch": 53, "duration": 265, "velocity": 83}, {"time": 12482, "pitch": 41, "duration": 312, "velocity": 112}, {"time": 12723, "pitch": 53, "duration": 261, "velocity": 87}, {"time": 12964, "pitch": 41, "duration": 313, "velocity": 108}, {"time": 12964, "pitch": 60, "duration": 868, "velocity": 112}, {"time": 12964, "pitch": 64, "duration": 845, "velocity": 120}, {"time": 12964, "pitch": 67, "duration": 857, "velocity": 114}, {"time": 13200, "pitch": 53, "duration": 262, "velocity": 86}, {"time": 13436, "pitch": 41, "duration": 264, "velocity": 104}, {"time": 13677, "pitch": 53, "duration": 229, "velocity": 73}, {"time": 13918, "pitch": 41, "duration": 307, "velocity": 104}, {"time": 13918, "pitch": 58, "duration": 438, "velocity": 117}, {"time": 13918, "pitch": 62, "duration": 461, "velocity": 122}, {"time": 13918, "pitch": 65, "duration": 464, "velocity": 122}, {"time": 14159, "pitch": 53, "duration": 281, "velocity": 90}, {"time": 14400, "pitch": 41, "duration": 264, "velocity": 108}, {"time": 14400, "pitch": 58, "duration": 91, "velocity": 81}, {"time": 14400, "pitch": 62, "duration": 60, "velocity": 90}, {"time": 14400, "pitch": 65, "duration": 71, "velocity": 90}, {"time": 14640, "pitch": 53, "duration": 296, "velocity": 72}, {"time": 14640, "pitch": 57, "duration": 1144, "velocity": 111}, {"time": 14640, "pitch": 60, "duration": 1072, "velocity": 114}, {"time": 14640, "pitch": 65, "duration": 1099, "velocity": 122}, {"time": 14881, "pitch": 41, "duration": 262, "velocity": 104}, {"time": 15122, "pitch": 53, "duration": 282, "velocity": 75}, {"time": 15363, "pitch": 41, "duration": 293, "velocity": 108}, {"time": 15604, "pitch": 53, "duration": 195, "velocity": 90}, {"time": 15845, "pitch": 41, "duration": 235, "velocity": 112}, {"time": 15845, "pitch": 60, "duration": 884, "velocity": 120}, {"time": 15845, "pitch": 65, "duration": 877, "velocity": 121}, {"time": 15845, "pitch": 69, "duration": 893, "velocity": 120}, {"time": 16081, "pitch": 53, "duration": 276, "velocity": 104}, {"time": 16317, "pitch": 41, "duration": 227, "velocity": 100}, {"time": 16558, "pitch": 53, "duration": 217, "velocity": 111}, {"time": 16799, "pitch": 41, "duration": 284, "velocity": 111}, {"time": 16799, "pitch": 60, "duration": 834, "velocity": 108}, {"time": 16799, "pitch": 64, "duration": 826, "velocity": 117}, {"time": 16799, "pitch": 67, "duration": 842, "velocity": 120}, {"time": 17039, "pitch": 53, "duration": 231, "velocity": 98}, {"time": 17280, "pitch": 41, "duration": 313, "velocity": 112}, {"time": 17521, "pitch": 53, "duration": 205, "velocity": 90}, {"time": 17762, "pitch": 41, "duration": 326, "velocity": 111}, {"time": 17762, "pitch": 62, "duration": 420, "velocity": 121}, {"time": 17762, "pitch": 65, "duration": 420, "velocity": 122}, {"time": 17762, "pitch": 70, "duration": 416, "velocity": 120}, {"time": 18003, "pitch": 53, "duration": 265, "velocity": 95}, {"time": 18244, "pitch": 41, "duration": 211, "velocity": 108}, {"time": 18244, "pitch": 62, "duration": 82, "velocity": 108}, {"time": 18244, "pitch": 65, "duration": 83, "velocity": 114}, {"time": 18244, "pitch": 70, "duration": 99, "velocity": 111}, {"time": 18480, "pitch": 53, "duration": 227, "velocity": 95}, {"time": 18480, "pitch": 60, "duration": 1025, "velocity": 112}, {"time": 18480, "pitch": 65, "duration": 1037, "velocity": 122}, {"time": 18480, "pitch": 69, "duration": 1037, "velocity": 112}, {"time": 18716, "pitch": 41, "duration": 243, "velocity": 111}, {"time": 18957, "pitch": 53, "duration": 269, "velocity": 87}, {"time": 19198, "pitch": 41, "duration": 261, "velocity": 98}, {"time": 19438, "pitch": 53, "duration": 272, "velocity": 85}, {"time": 19679, "pitch": 41, "duration": 285, "velocity": 111}, {"time": 19679, "pitch": 60, "duration": 853, "velocity": 117}, {"time": 19679, "pitch": 65, "duration": 849, "velocity": 122}, {"time": 19679, "pitch": 69, "duration": 837, "velocity": 120}, {"time": 19920, "pitch": 53, "duration": 265, "velocity": 83}, {"time": 20161, "pitch": 41, "duration": 312, "velocity": 112}, {"time": 20402, "pitch": 53, "duration": 261, "velocity": 87}, {"time": 20643, "pitch": 41, "duration": 319, "velocity": 108}, {"time": 20643, "pitch": 60, "duration": 870, "velocity": 112}, {"time": 20643, "pitch": 64, "duration": 847, "velocity": 120}, {"time": 20643, "pitch": 67, "duration": 859, "velocity": 114}, {"time": 20884, "pitch": 53, "duration": 266, "velocity": 86}, {"time": 21125, "pitch": 41, "duration": 258, "velocity": 104}, {"time": 21361, "pitch": 53, "duration": 224, "velocity": 73}, {"time": 21597, "pitch": 41, "duration": 307, "velocity": 104}, {"time": 21597, "pitch": 58, "duration": 438, "velocity": 117}, {"time": 21597, "pitch": 62, "duration": 461, "velocity": 122}, {"time": 21597, "pitch": 65, "duration": 464, "velocity": 122}, {"time": 21837, "pitch": 53, "duration": 282, "velocity": 90}, {"time": 22078, "pitch": 41, "duration": 265, "velocity": 108}, {"time": 22078, "pitch": 58, "duration": 92, "velocity": 81}, {"time": 22078, "pitch": 62, "duration": 61, "velocity": 90}, {"time": 22078, "pitch": 65, "duration": 72, "velocity": 90}, {"time": 22319, "pitch": 53, "duration": 296, "velocity": 72}, {"time": 22319, "pitch": 57, "duration": 1143, "velocity": 111}, {"time": 22319, "pitch": 60, "duration": 1072, "velocity": 114}, {"time": 22319, "pitch": 65, "duration": 1099, "velocity": 122}, {"time": 22560, "pitch": 41, "duration": 262, "velocity": 104}, {"time": 22801, "pitch": 53, "duration": 282, "velocity": 75}, {"time": 23042, "pitch": 41, "duration": 293, "velocity": 108}, {"time": 23283, "pitch": 53, "duration": 195, "velocity": 90}, {"time": 23524, "pitch": 41, "duration": 235, "velocity": 112}, {"time": 23524, "pitch": 60, "duration": 884, "velocity": 120}, {"time": 23524, "pitch": 65, "duration": 877, "velocity": 121}, {"time": 23524, "pitch": 69, "duration": 893, "velocity": 120}, {"time": 23760, "pitch": 53, "duration": 276, "velocity": 104}, {"time": 23996, "pitch": 41, "duration": 226, "velocity": 100}, {"time": 24237, "pitch": 53, "duration": 217, "velocity": 111}, {"time": 24477, "pitch": 41, "duration": 284, "velocity": 111}, {"time": 24477, "pitch": 60, "duration": 834, "velocity": 108}, {"time": 24477, "pitch": 64, "duration": 826, "velocity": 117}, {"time": 24477, "pitch": 67, "duration": 843, "velocity": 120}, {"time": 24718, "pitch": 53, "duration": 231, "velocity": 98}, {"time": 24959, "pitch": 41, "duration": 313, "velocity": 112}, {"time": 25200, "pitch": 53, "duration": 205, "velocity": 90}, {"time": 25441, "pitch": 41, "duration": 326, "velocity": 111}, {"time": 25441, "pitch": 62, "duration": 419, "velocity": 121}, {"time": 25441, "pitch": 65, "duration": 419, "velocity": 122}, {"time": 25441, "pitch": 70, "duration": 415, "velocity": 120}, {"time": 25682, "pitch": 53, "duration": 266, "velocity": 95}, {"time": 25923, "pitch": 41, "duration": 216, "velocity": 108}, {"time": 25923, "pitch": 62, "duration": 84, "velocity": 108}, {"time": 25923, "pitch": 65, "duration": 85, "velocity": 114}, {"time": 25923, "pitch": 70, "duration": 101, "velocity": 111}, {"time": 26164, "pitch": 53, "duration": 231, "velocity": 95}, {"time": 26164, "pitch": 60, "duration": 1020, "velocity": 112}, {"time": 26164, "pitch": 65, "duration": 1032, "velocity": 122}, {"time": 26164, "pitch": 69, "duration": 1032, "velocity": 112}, {"time": 26404, "pitch": 41, "duration": 238, "velocity": 111}, {"time": 26640, "pitch": 53, "duration": 265, "velocity": 87}, {"time": 26877, "pitch": 41, "duration": 260, "velocity": 98}, {"time": 27117, "pitch": 53, "duration": 272, "velocity": 85}, {"time": 27358, "pitch": 41, "duration": 285, "velocity": 111}, {"time": 27358, "pitch": 60, "duration": 853, "velocity": 117}, {"time": 27358, "pitch": 65, "duration": 849, "velocity": 122}, {"time": 27358, "pitch": 69, "duration": 837, "velocity": 120}, {"time": 27599, "pitch": 53, "duration": 265, "velocity": 83}, {"time": 27840, "pitch": 41, "duration": 312, "velocity": 112}, {"time": 28081, "pitch": 53, "duration": 261, "velocity": 87}, {"time": 28322, "pitch": 41, "duration": 319, "velocity": 108}, {"time": 28322, "pitch": 60, "duration": 870, "velocity": 112}, {"time": 28322, "pitch": 64, "duration": 847, "velocity": 120}, {"time": 28322, "pitch": 67, "duration": 859, "velocity": 114}, {"time": 28563, "pitch": 53, "duration": 266, "velocity": 86}, {"time": 28803, "pitch": 41, "duration": 259, "velocity": 104}, {"time": 29040, "pitch": 53, "duration": 224, "velocity": 73}, {"time": 29276, "pitch": 41, "duration": 307, "velocity": 104}, {"time": 29276, "pitch": 58, "duration": 438, "velocity": 117}, {"time": 29276, "pitch": 62, "duration": 461, "velocity": 122}, {"time": 29276, "pitch": 65, "duration": 464, "velocity": 122}, {"time": 29516, "pitch": 53, "duration": 281, "velocity": 90}, {"time": 29757, "pitch": 41, "duration": 265, "velocity": 108}, {"time": 29757, "pitch": 58, "duration": 92, "velocity": 81}, {"time": 29757, "pitch": 62, "duration": 60, "velocity": 90}, {"time": 29757, "pitch": 65, "duration": 72, "velocity": 90}, {"time": 29998, "pitch": 53, "duration": 296, "velocity": 72}, {"time": 29998, "pitch": 57, "duration": 1143, "velocity": 111}, {"time": 29998, "pitch": 60, "duration": 1072, "velocity": 114}, {"time": 29998, "pitch": 65, "duration": 1099, "velocity": 122}, {"time": 30239, "pitch": 41, "duration": 262, "velocity": 104}, {"time": 30480, "pitch": 53, "duration": 282, "velocity": 75}, {"time": 30721, "pitch": 41, "duration": 293, "velocity": 108}, {"time": 30962, "pitch": 53, "duration": 194, "velocity": 90}, {"time": 31203, "pitch": 41, "duration": 239, "velocity": 112}, {"time": 31203, "pitch": 60, "duration": 885, "velocity": 120}, {"time": 31203, "pitch": 65, "duration": 879, "velocity": 121}, {"time": 31203, "pitch": 69, "duration": 894, "velocity": 120}, {"time": 31443, "pitch": 53, "duration": 281, "velocity": 104}, {"time": 31684, "pitch": 41, "duration": 223, "velocity": 100}, {"time": 31920, "pitch": 53, "duration": 214, "velocity": 111}, {"time": 32156, "pitch": 41, "duration": 284, "velocity": 111}, {"time": 32156, "pitch": 60, "duration": 834, "velocity": 108}, {"time": 32156, "pitch": 64, "duration": 826, "velocity": 117}, {"time": 32156, "pitch": 67, "duration": 842, "velocity": 120}, {"time": 32397, "pitch": 53, "duration": 231, "velocity": 98}, {"time": 32638, "pitch": 41, "duration": 313, "velocity": 112}, {"time": 32879, "pitch": 53, "duration": 205, "velocity": 90}, {"time": 33120, "pitch": 41, "duration": 326, "velocity": 111}, {"time": 33120, "pitch": 62, "duration": 419, "velocity": 121}, {"time": 33120, "pitch": 65, "duration": 419, "velocity": 122}, {"time": 33120, "pitch": 70, "duration": 415, "velocity": 120}, {"time": 33361, "pitch": 53, "duration": 266, "velocity": 95}, {"time": 33602, "pitch": 41, "duration": 215, "velocity": 108}, {"time": 33602, "pitch": 62, "duration": 84, "velocity": 108}, {"time": 33602, "pitch": 65, "duration": 85, "velocity": 114}, {"time": 33602, "pitch": 70, "duration": 101, "velocity": 111}, {"time": 33842, "pitch": 53, "duration": 232, "velocity": 95}, {"time": 33842, "pitch": 60, "duration": 1020, "velocity": 112}, {"time": 33842, "pitch": 65, "duration": 1032, "velocity": 122}, {"time": 33842, "pitch": 69, "duration": 1032, "velocity": 112}, {"time": 34083, "pitch": 41, "duration": 238, "velocity": 111}, {"time": 34319, "pitch": 53, "duration": 264, "velocity": 87}, {"time": 34555, "pitch": 41, "duration": 261, "velocity": 98}, {"time": 34796, "pitch": 53, "duration": 272, "velocity": 85}, {"time": 35037, "pitch": 41, "duration": 285, "velocity": 111}, {"time": 35037, "pitch": 60, "duration": 853, "velocity": 117}, {"time": 35037, "pitch": 65, "duration": 849, "velocity": 122}, {"time": 35037, "pitch": 69, "duration": 837, "velocity": 120}, {"time": 35278, "pitch": 53, "duration": 265, "velocity": 83}, {"time": 35519, "pitch": 41, "duration": 312, "velocity": 112}, {"time": 35760, "pitch": 53, "duration": 261, "velocity": 87}, {"time": 36001, "pitch": 41, "duration": 319, "velocity": 108}, {"time": 36001, "pitch": 60, "duration": 878, "velocity": 112}, {"time": 36001, "pitch": 64, "duration": 855, "velocity": 120}, {"time": 36001, "pitch": 67, "duration": 867, "velocity": 114}, {"time": 36242, "pitch": 53, "duration": 266, "velocity": 86}, {"time": 36482, "pitch": 41, "duration": 264, "velocity": 104}, {"time": 36723, "pitch": 53, "duration": 229, "velocity": 73}, {"time": 36964, "pitch": 36, "duration": 278, "velocity": 111}, {"time": 36964, "pitch": 58, "duration": 628, "velocity": 121}, {"time": 36964, "pitch": 62, "duration": 625, "velocity": 121}, {"time": 36964, "pitch": 65, "duration": 640, "velocity": 117}, {"time": 37200, "pitch": 48, "duration": 237, "velocity": 111}, {"time": 37436, "pitch": 36, "duration": 297, "velocity": 95}, {"time": 37677, "pitch": 48, "duration": 253, "velocity": 111}, {"time": 37677, "pitch": 55, "duration": 970, "velocity": 104}, {"time": 37677, "pitch": 60, "duration": 974, "velocity": 120}, {"time": 37677, "pitch": 64, "duration": 969, "velocity": 117}, {"time": 37918, "pitch": 36, "duration": 295, "velocity": 93}, {"time": 38159, "pitch": 48, "duration": 277, "velocity": 112}, {"time": 38400, "pitch": 36, "duration": 308, "velocity": 108}, {"time": 38641, "pitch": 48, "duration": 230, "velocity": 111}, {"time": 38881, "pitch": 41, "duration": 240, "velocity": 112}, {"time": 38881, "pitch": 60, "duration": 886, "velocity": 120}, {"time": 38881, "pitch": 65, "duration": 880, "velocity": 121}, {"time": 38881, "pitch": 69, "duration": 895, "velocity": 120}, {"time": 39122, "pitch": 53, "duration": 280, "velocity": 104}, {"time": 39363, "pitch": 41, "duration": 222, "velocity": 100}, {"time": 39599, "pitch": 53, "duration": 214, "velocity": 111}, {"time": 39835, "pitch": 41, "duration": 284, "velocity": 111}, {"time": 39835, "pitch": 60, "duration": 834, "velocity": 108}, {"time": 39835, "pitch": 64, "duration": 826, "velocity": 117}, {"time": 39835, "pitch": 67, "duration": 842, "velocity": 120}, {"time": 40076, "pitch": 53, "duration": 231, "velocity": 98}, {"time": 40317, "pitch": 41, "duration": 313, "velocity": 112}, {"time": 40558, "pitch": 53, "duration": 205, "velocity": 90}, {"time": 40799, "pitch": 41, "duration": 326, "velocity": 111}, {"time": 40799, "pitch": 62, "duration": 419, "velocity": 121}, {"time": 40799, "pitch": 65, "duration": 419, "velocity": 122}, {"time": 40799, "pitch": 70, "duration": 415, "velocity": 120}, {"time": 41040, "pitch": 53, "duration": 266, "velocity": 95}, {"time": 41280, "pitch": 41, "duration": 216, "velocity": 108}, {"time": 41280, "pitch": 62, "duration": 85, "velocity": 108}, {"time": 41280, "pitch": 65, "duration": 86, "velocity": 114}, {"time": 41280, "pitch": 70, "duration": 102, "velocity": 111}, {"time": 41521, "pitch": 53, "duration": 232, "velocity": 95}, {"time": 41521, "pitch": 60, "duration": 1024, "velocity": 112}, {"time": 41521, "pitch": 65, "duration": 1036, "velocity": 122}, {"time": 41521, "pitch": 69, "duration": 1036, "velocity": 112}, {"time": 41762, "pitch": 41, "duration": 243, "velocity": 111}, {"time": 42003, "pitch": 53, "duration": 268, "velocity": 87}, {"time": 42244, "pitch": 41, "duration": 256, "velocity": 98}, {"time": 42480, "pitch": 53, "duration": 267, "velocity": 85}, {"time": 42716, "pitch": 41, "duration": 285, "velocity": 111}, {"time": 42716, "pitch": 60, "duration": 853, "velocity": 117}, {"time": 42716, "pitch": 65, "duration": 849, "velocity": 122}, {"time": 42716, "pitch": 69, "duration": 837, "velocity": 120}, {"time": 42957, "pitch": 53, "duration": 265, "velocity": 83}, {"time": 43198, "pitch": 41, "duration": 312, "velocity": 112}, {"time": 43439, "pitch": 53, "duration": 261, "velocity": 87}, {"time": 43679, "pitch": 41, "duration": 320, "velocity": 108}, {"time": 43679, "pitch": 60, "duration": 879, "velocity": 112}, {"time": 43679, "pitch": 64, "duration": 856, "velocity": 120}, {"time": 43679, "pitch": 67, "duration": 868, "velocity": 114}, {"time": 43920, "pitch": 53, "duration": 267, "velocity": 86}, {"time": 44161, "pitch": 41, "duration": 264, "velocity": 104}, {"time": 44402, "pitch": 53, "duration": 229, "velocity": 73}, {"time": 44643, "pitch": 36, "duration": 284, "velocity": 111}, {"time": 44643, "pitch": 58, "duration": 634, "velocity": 121}, {"time": 44643, "pitch": 62, "duration": 631, "velocity": 121}, {"time": 44643, "pitch": 65, "duration": 646, "velocity": 117}, {"time": 44884, "pitch": 48, "duration": 242, "velocity": 111}, {"time": 45125, "pitch": 36, "duration": 291, "velocity": 95}, {"time": 45361, "pitch": 48, "duration": 248, "velocity": 111}, {"time": 45361, "pitch": 55, "duration": 964, "velocity": 104}, {"time": 45361, "pitch": 60, "duration": 968, "velocity": 120}, {"time": 45361, "pitch": 64, "duration": 963, "velocity": 117}, {"time": 45597, "pitch": 36, "duration": 295, "velocity": 93}, {"time": 45838, "pitch": 48, "duration": 277, "velocity": 112}, {"time": 46079, "pitch": 36, "duration": 308, "velocity": 108}, {"time": 46319, "pitch": 48, "duration": 231, "velocity": 111}, {"time": 46560, "pitch": 34, "duration": 251, "velocity": 111}, {"time": 46560, "pitch": 53, "duration": 610, "velocity": 120}, {"time": 46560, "pitch": 58, "duration": 599, "velocity": 121}, {"time": 46560, "pitch": 62, "duration": 621, "velocity": 122}, {"time": 46801, "pitch": 46, "duration": 270, "velocity": 122}, {"time": 47042, "pitch": 34, "duration": 295, "velocity": 100}, {"time": 47283, "pitch": 46, "duration": 281, "velocity": 122}, {"time": 47283, "pitch": 53, "duration": 1115, "velocity": 112}, {"time": 47283, "pitch": 58, "duration": 1103, "velocity": 122}, {"time": 47283, "pitch": 62, "duration": 1116, "velocity": 123}, {"time": 47524, "pitch": 34, "duration": 316, "velocity": 111}, {"time": 47760, "pitch": 46, "duration": 266, "velocity": 121}, {"time": 47996, "pitch": 34, "duration": 328, "velocity": 104}, {"time": 48237, "pitch": 46, "duration": 250, "velocity": 122}, {"time": 48478, "pitch": 33, "duration": 308, "velocity": 98}, {"time": 48478, "pitch": 53, "duration": 641, "velocity": 112}, {"time": 48478, "pitch": 57, "duration": 646, "velocity": 122}, {"time": 48478, "pitch": 60, "duration": 654, "velocity": 121}, {"time": 48718, "pitch": 45, "duration": 277, "velocity": 108}, {"time": 48959, "pitch": 33, "duration": 319, "velocity": 112}, {"time": 49200, "pitch": 45, "duration": 279, "velocity": 121}, {"time": 49200, "pitch": 57, "duration": 1070, "velocity": 122}, {"time": 49200, "pitch": 60, "duration": 1077, "velocity": 121}, {"time": 49200, "pitch": 65, "duration": 1070, "velocity": 112}, {"time": 49441, "pitch": 33, "duration": 312, "velocity": 104}, {"time": 49682, "pitch": 45, "duration": 269, "velocity": 121}, {"time": 49923, "pitch": 33, "duration": 334, "velocity": 100}, {"time": 50164, "pitch": 45, "duration": 259, "velocity": 117}, {"time": 50405, "pitch": 31, "duration": 312, "velocity": 98}, {"time": 50405, "pitch": 53, "duration": 616, "velocity": 108}, {"time": 50405, "pitch": 58, "duration": 599, "velocity": 122}, {"time": 50405, "pitch": 62, "duration": 621, "velocity": 121}, {"time": 50641, "pitch": 43, "duration": 296, "velocity": 108}, {"time": 50877, "pitch": 31, "duration": 308, "velocity": 100}, {"time": 51117, "pitch": 43, "duration": 286, "velocity": 108}, {"time": 51117, "pitch": 58, "duration": 1129, "velocity": 120}, {"time": 51117, "pitch": 62, "duration": 1135, "velocity": 122}, {"time": 51117, "pitch": 65, "duration": 1145, "velocity": 104}, {"time": 51358, "pitch": 31, "duration": 328, "velocity": 87}, {"time": 51599, "pitch": 43, "duration": 279, "velocity": 111}, {"time": 51840, "pitch": 31, "duration": 347, "velocity": 93}, {"time": 52081, "pitch": 43, "duration": 273, "velocity": 111}, {"time": 52322, "pitch": 29, "duration": 300, "velocity": 108}, {"time": 52322, "pitch": 57, "duration": 636, "velocity": 121}, {"time": 52322, "pitch": 60, "duration": 641, "velocity": 120}, {"time": 52322, "pitch": 65, "duration": 638, "velocity": 117}, {"time": 52563, "pitch": 41, "duration": 299, "velocity": 108}, {"time": 52804, "pitch": 29, "duration": 305, "velocity": 104}, {"time": 53040, "pitch": 41, "duration": 306, "velocity": 104}, {"time": 53040, "pitch": 57, "duration": 1034, "velocity": 121}, {"time": 53040, "pitch": 60, "duration": 1030, "velocity": 114}, {"time": 53040, "pitch": 65, "duration": 1016, "velocity": 114}, {"time": 53276, "pitch": 29, "duration": 270, "velocity": 104}, {"time": 53517, "pitch": 41, "duration": 273, "velocity": 104}, {"time": 53757, "pitch": 29, "duration": 355, "velocity": 90}, {"time": 53998, "pitch": 41, "duration": 255, "velocity": 104}, {"time": 54239, "pitch": 34, "duration": 317, "velocity": 104}, {"time": 54239, "pitch": 53, "duration": 635, "velocity": 114}, {"time": 54239, "pitch": 58, "duration": 623, "velocity": 121}, {"time": 54239, "pitch": 62, "duration": 644, "velocity": 120}, {"time": 54480, "pitch": 46, "duration": 282, "velocity": 117}, {"time": 54721, "pitch": 34, "duration": 322, "velocity": 77}, {"time": 54962, "pitch": 46, "duration": 293, "velocity": 120}, {"time": 54962, "pitch": 53, "duration": 1068, "velocity": 111}, {"time": 54962, "pitch": 58, "duration": 1054, "velocity": 122}, {"time": 54962, "pitch": 62, "duration": 1082, "velocity": 121}, {"time": 55203, "pitch": 34, "duration": 296, "velocity": 98}, {"time": 55444, "pitch": 46, "duration": 275, "velocity": 120}, {"time": 55684, "pitch": 34, "duration": 314, "velocity": 95}, {"time": 55920, "pitch": 46, "duration": 257, "velocity": 122}, {"time": 56157, "pitch": 33, "duration": 337, "velocity": 79}, {"time": 56157, "pitch": 53, "duration": 642, "velocity": 117}, {"time": 56157, "pitch": 57, "duration": 643, "velocity": 122}, {"time": 56157, "pitch": 60, "duration": 649, "velocity": 122}, {"time": 56397, "pitch": 45, "duration": 306, "velocity": 114}, {"time": 56638, "pitch": 33, "duration": 322, "velocity": 95}, {"time": 56879, "pitch": 45, "duration": 276, "velocity": 112}, {"time": 56879, "pitch": 57, "duration": 1051, "velocity": 122}, {"time": 56879, "pitch": 60, "duration": 1068, "velocity": 117}, {"time": 56879, "pitch": 65, "duration": 1038, "velocity": 112}, {"time": 57120, "pitch": 33, "duration": 315, "velocity": 93}, {"time": 57361, "pitch": 45, "duration": 274, "velocity": 120}, {"time": 57602, "pitch": 33, "duration": 359, "velocity": 87}, {"time": 57843, "pitch": 45, "duration": 256, "velocity": 117}, {"time": 58083, "pitch": 31, "duration": 320, "velocity": 85}, {"time": 58083, "pitch": 53, "duration": 620, "velocity": 112}, {"time": 58083, "pitch": 58, "duration": 614, "velocity": 122}, {"time": 58083, "pitch": 62, "duration": 633, "velocity": 120}, {"time": 58319, "pitch": 43, "duration": 268, "velocity": 120}, {"time": 58556, "pitch": 31, "duration": 325, "velocity": 74}, {"time": 58796, "pitch": 43, "duration": 278, "velocity": 120}, {"time": 58796, "pitch": 53, "duration": 1080, "velocity": 111}, {"time": 58796, "pitch": 58, "duration": 1070, "velocity": 122}, {"time": 58796, "pitch": 62, "duration": 1116, "velocity": 122}, {"time": 59037, "pitch": 31, "duration": 324, "velocity": 81}, {"time": 59278, "pitch": 43, "duration": 280, "velocity": 114}, {"time": 59519, "pitch": 31, "duration": 299, "velocity": 79}, {"time": 59760, "pitch": 43, "duration": 281, "velocity": 114}, {"time": 60001, "pitch": 31, "duration": 291, "velocity": 98}, {"time": 60001, "pitch": 53, "duration": 627, "velocity": 117}, {"time": 60001, "pitch": 58, "duration": 624, "velocity": 122}, {"time": 60001, "pitch": 60, "duration": 628, "velocity": 122}, {"time": 60242, "pitch": 43, "duration": 288, "velocity": 95}, {"time": 60483, "pitch": 31, "duration": 376, "velocity": 90}, {"time": 60723, "pitch": 43, "duration": 302, "velocity": 111}, {"time": 60723, "pitch": 53, "duration": 1066, "velocity": 112}, {"time": 60723, "pitch": 58, "duration": 1060, "velocity": 122}, {"time": 60723, "pitch": 60, "duration": 1071, "velocity": 122}, {"time": 60964, "pitch": 36, "duration": 311, "velocity": 111}, {"time": 61200, "pitch": 48, "duration": 293, "velocity": 111}, {"time": 61436, "pitch": 36, "duration": 306, "velocity": 111}, {"time": 61677, "pitch": 48, "duration": 270, "velocity": 114}, {"time": 61918, "pitch": 36, "duration": 316, "velocity": 111}, {"time": 61918, "pitch": 55, "duration": 722, "velocity": 114}, {"time": 61918, "pitch": 58, "duration": 699, "velocity": 122}, {"time": 61918, "pitch": 60, "duration": 710, "velocity": 122}, {"time": 61918, "pitch": 65, "duration": 697, "velocity": 117}, {"time": 62159, "pitch": 48, "duration": 297, "velocity": 120}, {"time": 62400, "pitch": 36, "duration": 315, "velocity": 111}, {"time": 62641, "pitch": 48, "duration": 269, "velocity": 117}, {"time": 62641, "pitch": 55, "duration": 1068, "velocity": 104}, {"time": 62641, "pitch": 58, "duration": 1065, "velocity": 121}, {"time": 62641, "pitch": 60, "duration": 1064, "velocity": 122}, {"time": 62641, "pitch": 64, "duration": 1097, "velocity": 114}, {"time": 62882, "pitch": 36, "duration": 334, "velocity": 111}, {"time": 63122, "pitch": 48, "duration": 289, "velocity": 120}, {"time": 63363, "pitch": 36, "duration": 328, "velocity": 108}, {"time": 63599, "pitch": 48, "duration": 160, "velocity": 114}, {"time": 63835, "pitch": 41, "duration": 249, "velocity": 111}, {"time": 63835, "pitch": 57, "duration": 144, "velocity": 117}, {"time": 63835, "pitch": 60, "duration": 149, "velocity": 117}, {"time": 63835, "pitch": 65, "duration": 141, "velocity": 117}, {"time": 64076, "pitch": 53, "duration": 271, "velocity": 98}, {"time": 64076, "pitch": 57, "duration": 116, "velocity": 87}, {"time": 64076, "pitch": 60, "duration": 123, "velocity": 90}, {"time": 64076, "pitch": 65, "duration": 112, "velocity": 100}, {"time": 64317, "pitch": 41, "duration": 282, "velocity": 111}, {"time": 64317, "pitch": 57, "duration": 136, "velocity": 114}, {"time": 64317, "pitch": 60, "duration": 130, "velocity": 114}, {"time": 64317, "pitch": 65, "duration": 129, "velocity": 117}, {"time": 64558, "pitch": 53, "duration": 191, "velocity": 75}, {"time": 64558, "pitch": 57, "duration": 139, "velocity": 86}, {"time": 64558, "pitch": 60, "duration": 133, "velocity": 93}, {"time": 64558, "pitch": 65, "duration": 135, "velocity": 93}, {"time": 64799, "pitch": 40, "duration": 294, "velocity": 120}, {"time": 64799, "pitch": 55, "duration": 156, "velocity": 98}, {"time": 64799, "pitch": 60, "duration": 152, "velocity": 112}, {"time": 64799, "pitch": 64, "duration": 151, "velocity": 111}, {"time": 65040, "pitch": 55, "duration": 117, "velocity": 85}, {"time": 65040, "pitch": 60, "duration": 107, "velocity": 90}, {"time": 65040, "pitch": 64, "duration": 103, "velocity": 98}, {"time": 65281, "pitch": 40, "duration": 170, "velocity": 111}, {"time": 65281, "pitch": 52, "duration": 9, "velocity": 112}, {"time": 65281, "pitch": 55, "duration": 133, "velocity": 120}, {"time": 65281, "pitch": 60, "duration": 127, "velocity": 114}, {"time": 65521, "pitch": 38, "duration": 434, "velocity": 112}, {"time": 65521, "pitch": 53, "duration": 1103, "velocity": 100}, {"time": 65521, "pitch": 58, "duration": 1103, "velocity": 117}, {"time": 65521, "pitch": 62, "duration": 1125, "velocity": 114}, {"time": 66003, "pitch": 50, "duration": 206, "velocity": 104}, {"time": 66244, "pitch": 38, "duration": 275, "velocity": 114}, {"time": 66480, "pitch": 50, "duration": 225, "velocity": 93}, {"time": 66716, "pitch": 38, "duration": 320, "velocity": 112}, {"time": 66716, "pitch": 53, "duration": 236, "velocity": 114}, {"time": 66716, "pitch": 58, "duration": 241, "velocity": 121}, {"time": 66716, "pitch": 62, "duration": 267, "velocity": 120}, {"time": 66957, "pitch": 50, "duration": 161, "velocity": 98}, {"time": 67198, "pitch": 36, "duration": 306, "velocity": 112}, {"time": 67198, "pitch": 55, "duration": 285, "velocity": 117}, {"time": 67198, "pitch": 60, "duration": 289, "velocity": 122}, {"time": 67198, "pitch": 64, "duration": 282, "velocity": 112}, {"time": 67439, "pitch": 48, "duration": 168, "velocity": 108}, {"time": 67680, "pitch": 41, "duration": 264, "velocity": 112}, {"time": 67680, "pitch": 57, "duration": 148, "velocity": 120}, {"time": 67680, "pitch": 60, "duration": 147, "velocity": 120}, {"time": 67680, "pitch": 65, "duration": 141, "velocity": 120}, {"time": 67921, "pitch": 52, "duration": 40, "velocity": 71}, {"time": 67921, "pitch": 53, "duration": 159, "velocity": 76}, {"time": 67921, "pitch": 57, "duration": 99, "velocity": 104}, {"time": 67921, "pitch": 60, "duration": 109, "velocity": 111}, {"time": 67921, "pitch": 65, "duration": 100, "velocity": 111}, {"time": 68161, "pitch": 41, "duration": 268, "velocity": 104}, {"time": 68161, "pitch": 57, "duration": 115, "velocity": 120}, {"time": 68161, "pitch": 60, "duration": 117, "velocity": 120}, {"time": 68161, "pitch": 65, "duration": 112, "velocity": 114}, {"time": 68402, "pitch": 53, "duration": 175, "velocity": 95}, {"time": 68402, "pitch": 57, "duration": 99, "velocity": 85}, {"time": 68402, "pitch": 60, "duration": 104, "velocity": 85}, {"time": 68402, "pitch": 65, "duration": 108, "velocity": 95}, {"time": 68643, "pitch": 40, "duration": 293, "velocity": 117}, {"time": 68643, "pitch": 60, "duration": 127, "velocity": 117}, {"time": 68643, "pitch": 64, "duration": 131, "velocity": 120}, {"time": 68643, "pitch": 67, "duration": 138, "velocity": 108}, {"time": 68879, "pitch": 52, "duration": 230, "velocity": 93}, {"time": 68879, "pitch": 60, "duration": 108, "velocity": 90}, {"time": 68879, "pitch": 64, "duration": 96, "velocity": 95}, {"time": 68879, "pitch": 67, "duration": 92, "velocity": 90}, {"time": 69115, "pitch": 40, "duration": 183, "velocity": 111}, {"time": 69115, "pitch": 55, "duration": 117, "velocity": 117}, {"time": 69115, "pitch": 60, "duration": 111, "velocity": 117}, {"time": 69115, "pitch": 64, "duration": 105, "velocity": 111}, {"time": 69356, "pitch": 38, "duration": 499, "velocity": 111}, {"time": 69356, "pitch": 53, "duration": 1033, "velocity": 120}, {"time": 69356, "pitch": 58, "duration": 1027, "velocity": 121}, {"time": 69356, "pitch": 62, "duration": 1046, "velocity": 114}, {"time": 69838, "pitch": 50, "duration": 221, "velocity": 98}, {"time": 70079, "pitch": 38, "duration": 302, "velocity": 108}, {"time": 70320, "pitch": 50, "duration": 221, "velocity": 104}, {"time": 70560, "pitch": 38, "duration": 317, "velocity": 108}, {"time": 70560, "pitch": 53, "duration": 312, "velocity": 120}, {"time": 70560, "pitch": 58, "duration": 322, "velocity": 122}, {"time": 70560, "pitch": 62, "duration": 342, "velocity": 120}, {"time": 70801, "pitch": 50, "duration": 135, "velocity": 87}, {"time": 71042, "pitch": 36, "duration": 268, "velocity": 112}, {"time": 71042, "pitch": 55, "duration": 334, "velocity": 117}, {"time": 71042, "pitch": 60, "duration": 349, "velocity": 122}, {"time": 71042, "pitch": 64, "duration": 334, "velocity": 117}, {"time": 71283, "pitch": 48, "duration": 135, "velocity": 85}, {"time": 71524, "pitch": 41, "duration": 297, "velocity": 112}, {"time": 71524, "pitch": 57, "duration": 118, "velocity": 114}, {"time": 71524, "pitch": 60, "duration": 110, "velocity": 121}, {"time": 71524, "pitch": 65, "duration": 112, "velocity": 114}, {"time": 71760, "pitch": 53, "duration": 163, "velocity": 90}, {"time": 71760, "pitch": 57, "duration": 87, "velocity": 104}, {"time": 71760, "pitch": 60, "duration": 76, "velocity": 111}, {"time": 71760, "pitch": 65, "duration": 72, "velocity": 100}, {"time": 71996, "pitch": 41, "duration": 302, "velocity": 104}, {"time": 71996, "pitch": 57, "duration": 81, "velocity": 117}, {"time": 71996, "pitch": 60, "duration": 82, "velocity": 114}, {"time": 71996, "pitch": 65, "duration": 102, "velocity": 112}, {"time": 72237, "pitch": 53, "duration": 167, "velocity": 81}, {"time": 72237, "pitch": 57, "duration": 108, "velocity": 100}, {"time": 72237, "pitch": 60, "duration": 105, "velocity": 104}, {"time": 72237, "pitch": 65, "duration": 105, "velocity": 100}, {"time": 72478, "pitch": 40, "duration": 296, "velocity": 117}, {"time": 72478, "pitch": 55, "duration": 136, "velocity": 112}, {"time": 72478, "pitch": 60, "duration": 124, "velocity": 121}, {"time": 72478, "pitch": 64, "duration": 103, "velocity": 111}, {"time": 72719, "pitch": 55, "duration": 121, "velocity": 90}, {"time": 72719, "pitch": 60, "duration": 105, "velocity": 108}, {"time": 72719, "pitch": 64, "duration": 81, "velocity": 86}, {"time": 72959, "pitch": 40, "duration": 162, "velocity": 108}, {"time": 72959, "pitch": 52, "duration": 3, "velocity": 112}, {"time": 72959, "pitch": 55, "duration": 70, "velocity": 112}, {"time": 72959, "pitch": 60, "duration": 89, "velocity": 111}, {"time": 73200, "pitch": 38, "duration": 478, "velocity": 108}, {"time": 73200, "pitch": 53, "duration": 1104, "velocity": 114}, {"time": 73200, "pitch": 58, "duration": 1099, "velocity": 121}, {"time": 73200, "pitch": 62, "duration": 1094, "velocity": 117}, {"time": 73682, "pitch": 50, "duration": 230, "velocity": 95}, {"time": 73923, "pitch": 38, "duration": 287, "velocity": 108}, {"time": 74164, "pitch": 50, "duration": 217, "velocity": 90}, {"time": 74405, "pitch": 38, "duration": 250, "velocity": 79}, {"time": 74405, "pitch": 40, "duration": 137, "velocity": 85}, {"time": 74405, "pitch": 53, "duration": 325, "velocity": 112}, {"time": 74405, "pitch": 58, "duration": 341, "velocity": 122}, {"time": 74405, "pitch": 62, "duration": 350, "velocity": 114}, {"time": 74641, "pitch": 50, "duration": 134, "velocity": 93}, {"time": 74877, "pitch": 36, "duration": 304, "velocity": 111}, {"time": 74877, "pitch": 55, "duration": 306, "velocity": 120}, {"time": 74877, "pitch": 60, "duration": 305, "velocity": 120}, {"time": 74877, "pitch": 64, "duration": 339, "velocity": 114}, {"time": 75118, "pitch": 48, "duration": 147, "velocity": 90}, {"time": 75359, "pitch": 37, "duration": 280, "velocity": 104}, {"time": 75359, "pitch": 56, "duration": 870, "velocity": 122}, {"time": 75359, "pitch": 61, "duration": 871, "velocity": 122}, {"time": 75359, "pitch": 65, "duration": 884, "velocity": 122}, {"time": 75599, "pitch": 49, "duration": 220, "velocity": 108}, {"time": 75840, "pitch": 37, "duration": 306, "velocity": 100}, {"time": 76081, "pitch": 49, "duration": 211, "velocity": 100}, {"time": 76322, "pitch": 39, "duration": 282, "velocity": 108}, {"time": 76322, "pitch": 58, "duration": 789, "velocity": 122}, {"time": 76322, "pitch": 63, "duration": 803, "velocity": 121}, {"time": 76322, "pitch": 67, "duration": 812, "velocity": 121}, {"time": 76563, "pitch": 51, "duration": 226, "velocity": 98}, {"time": 76804, "pitch": 39, "duration": 295, "velocity": 111}, {"time": 77040, "pitch": 51, "duration": 114, "velocity": 93}, {"time": 77276, "pitch": 41, "duration": 259, "velocity": 98}, {"time": 77276, "pitch": 60, "duration": 1680, "velocity": 120}, {"time": 77276, "pitch": 65, "duration": 1678, "velocity": 123}, {"time": 77276, "pitch": 69, "duration": 1695, "velocity": 120}, {"time": 77517, "pitch": 53, "duration": 278, "velocity": 95}, {"time": 77758, "pitch": 41, "duration": 253, "velocity": 108}, {"time": 77998, "pitch": 53, "duration": 289, "velocity": 112}, {"time": 78239, "pitch": 41, "duration": 246, "velocity": 100}, {"time": 78480, "pitch": 53, "duration": 256, "velocity": 75}, {"time": 78721, "pitch": 41, "duration": 273, "velocity": 104}, {"time": 78962, "pitch": 53, "duration": 204, "velocity": 98}, {"time": 79203, "pitch": 41, "duration": 240, "velocity": 112}, {"time": 79203, "pitch": 60, "duration": 886, "velocity": 120}, {"time": 79203, "pitch": 65, "duration": 879, "velocity": 121}, {"time": 79203, "pitch": 69, "duration": 895, "velocity": 120}, {"time": 79444, "pitch": 53, "duration": 280, "velocity": 104}, {"time": 79685, "pitch": 41, "duration": 222, "velocity": 100}, {"time": 79921, "pitch": 53, "duration": 213, "velocity": 111}, {"time": 80157, "pitch": 41, "duration": 284, "velocity": 111}, {"time": 80157, "pitch": 60, "duration": 834, "velocity": 108}, {"time": 80157, "pitch": 64, "duration": 826, "velocity": 117}, {"time": 80157, "pitch": 67, "duration": 842, "velocity": 120}, {"time": 80397, "pitch": 53, "duration": 231, "velocity": 98}, {"time": 80638, "pitch": 41, "duration": 313, "velocity": 112}, {"time": 80879, "pitch": 53, "duration": 205, "velocity": 90}, {"time": 81120, "pitch": 41, "duration": 326, "velocity": 111}, {"time": 81120, "pitch": 62, "duration": 420, "velocity": 121}, {"time": 81120, "pitch": 65, "duration": 420, "velocity": 122}, {"time": 81120, "pitch": 70, "duration": 416, "velocity": 120}, {"time": 81361, "pitch": 53, "duration": 266, "velocity": 95}, {"time": 81602, "pitch": 41, "duration": 216, "velocity": 108}, {"time": 81602, "pitch": 62, "duration": 84, "velocity": 108}, {"time": 81602, "pitch": 65, "duration": 85, "velocity": 114}, {"time": 81602, "pitch": 70, "duration": 101, "velocity": 111}, {"time": 81843, "pitch": 53, "duration": 232, "velocity": 95}, {"time": 81843, "pitch": 60, "duration": 1020, "velocity": 112}, {"time": 81843, "pitch": 65, "duration": 1032, "velocity": 122}, {"time": 81843, "pitch": 69, "duration": 1032, "velocity": 112}, {"time": 82084, "pitch": 41, "duration": 238, "velocity": 111}, {"time": 82320, "pitch": 53, "duration": 264, "velocity": 87}, {"time": 82556, "pitch": 41, "duration": 261, "velocity": 98}, {"time": 82796, "pitch": 53, "duration": 272, "velocity": 85}, {"time": 83037, "pitch": 41, "duration": 285, "velocity": 111}, {"time": 83037, "pitch": 60, "duration": 854, "velocity": 117}, {"time": 83037, "pitch": 65, "duration": 849, "velocity": 122}, {"time": 83037, "pitch": 69, "duration": 837, "velocity": 120}, {"time": 83278, "pitch": 53, "duration": 265, "velocity": 83}, {"time": 83519, "pitch": 41, "duration": 312, "velocity": 112}, {"time": 83760, "pitch": 53, "duration": 261, "velocity": 87}, {"time": 84001, "pitch": 41, "duration": 319, "velocity": 108}, {"time": 84001, "pitch": 60, "duration": 878, "velocity": 112}, {"time": 84001, "pitch": 64, "duration": 855, "velocity": 120}, {"time": 84001, "pitch": 67, "duration": 867, "velocity": 114}, {"time": 84242, "pitch": 53, "duration": 267, "velocity": 86}, {"time": 84483, "pitch": 41, "duration": 264, "velocity": 104}, {"time": 84724, "pitch": 53, "duration": 228, "velocity": 73}, {"time": 84964, "pitch": 41, "duration": 301, "velocity": 104}, {"time": 84964, "pitch": 58, "duration": 430, "velocity": 117}, {"time": 84964, "pitch": 62, "duration": 453, "velocity": 122}, {"time": 84964, "pitch": 65, "duration": 456, "velocity": 122}, {"time": 85200, "pitch": 53, "duration": 277, "velocity": 90}, {"time": 85436, "pitch": 41, "duration": 265, "velocity": 108}, {"time": 85436, "pitch": 58, "duration": 92, "velocity": 81}, {"time": 85436, "pitch": 62, "duration": 61, "velocity": 90}, {"time": 85436, "pitch": 65, "duration": 72, "velocity": 90}, {"time": 85677, "pitch": 53, "duration": 296, "velocity": 72}, {"time": 85677, "pitch": 57, "duration": 1143, "velocity": 111}, {"time": 85677, "pitch": 60, "duration": 1072, "velocity": 114}, {"time": 85677, "pitch": 65, "duration": 1099, "velocity": 122}, {"time": 85918, "pitch": 41, "duration": 262, "velocity": 104}, {"time": 86159, "pitch": 53, "duration": 282, "velocity": 75}, {"time": 86400, "pitch": 41, "duration": 293, "velocity": 108}, {"time": 86641, "pitch": 53, "duration": 195, "velocity": 90}, {"time": 86882, "pitch": 41, "duration": 240, "velocity": 112}, {"time": 86882, "pitch": 60, "duration": 886, "velocity": 120}, {"time": 86882, "pitch": 65, "duration": 879, "velocity": 121}, {"time": 86882, "pitch": 69, "duration": 895, "velocity": 120}, {"time": 87123, "pitch": 53, "duration": 280, "velocity": 104}, {"time": 87363, "pitch": 41, "duration": 223, "velocity": 100}, {"time": 87599, "pitch": 53, "duration": 214, "velocity": 111}, {"time": 87836, "pitch": 41, "duration": 283, "velocity": 111}, {"time": 87836, "pitch": 60, "duration": 834, "velocity": 108}, {"time": 87836, "pitch": 64, "duration": 825, "velocity": 117}, {"time": 87836, "pitch": 67, "duration": 842, "velocity": 120}, {"time": 88076, "pitch": 53, "duration": 231, "velocity": 98}, {"time": 88317, "pitch": 41, "duration": 313, "velocity": 112}, {"time": 88558, "pitch": 53, "duration": 205, "velocity": 90}, {"time": 88799, "pitch": 41, "duration": 326, "velocity": 111}, {"time": 88799, "pitch": 62, "duration": 420, "velocity": 121}, {"time": 88799, "pitch": 65, "duration": 420, "velocity": 122}, {"time": 88799, "pitch": 70, "duration": 416, "velocity": 120}, {"time": 89040, "pitch": 53, "duration": 266, "velocity": 95}, {"time": 89281, "pitch": 41, "duration": 216, "velocity": 108}, {"time": 89281, "pitch": 62, "duration": 84, "velocity": 108}, {"time": 89281, "pitch": 65, "duration": 85, "velocity": 114}, {"time": 89281, "pitch": 70, "duration": 101, "velocity": 111}, {"time": 89522, "pitch": 53, "duration": 231, "velocity": 95}, {"time": 89522, "pitch": 60, "duration": 1023, "velocity": 112}, {"time": 89522, "pitch": 65, "duration": 1035, "velocity": 122}, {"time": 89522, "pitch": 69, "duration": 1035, "velocity": 112}, {"time": 89763, "pitch": 41, "duration": 242, "velocity": 111}, {"time": 90003, "pitch": 53, "duration": 269, "velocity": 87}, {"time": 90244, "pitch": 41, "duration": 256, "velocity": 98}, {"time": 90480, "pitch": 53, "duration": 267, "velocity": 85}, {"time": 90716, "pitch": 41, "duration": 285, "velocity": 111}, {"time": 90716, "pitch": 60, "duration": 853, "velocity": 117}, {"time": 90716, "pitch": 65, "duration": 849, "velocity": 122}, {"time": 90716, "pitch": 69, "duration": 837, "velocity": 120}, {"time": 90957, "pitch": 53, "duration": 265, "velocity": 83}, {"time": 91198, "pitch": 41, "duration": 312, "velocity": 112}, {"time": 91439, "pitch": 53, "duration": 261, "velocity": 87}, {"time": 91680, "pitch": 41, "duration": 319, "velocity": 108}, {"time": 91680, "pitch": 60, "duration": 878, "velocity": 112}, {"time": 91680, "pitch": 64, "duration": 855, "velocity": 120}, {"time": 91680, "pitch": 67, "duration": 867, "velocity": 114}, {"time": 91921, "pitch": 53, "duration": 267, "velocity": 86}, {"time": 92162, "pitch": 41, "duration": 264, "velocity": 104}, {"time": 92402, "pitch": 53, "duration": 229, "velocity": 73}, {"time": 92643, "pitch": 36, "duration": 279, "velocity": 111}, {"time": 92643, "pitch": 58, "duration": 628, "velocity": 121}, {"time": 92643, "pitch": 62, "duration": 625, "velocity": 121}, {"time": 92643, "pitch": 65, "duration": 640, "velocity": 117}, {"time": 92879, "pitch": 48, "duration": 237, "velocity": 111}, {"time": 93115, "pitch": 36, "duration": 297, "velocity": 95}, {"time": 93356, "pitch": 48, "duration": 253, "velocity": 111}, {"time": 93356, "pitch": 55, "duration": 970, "velocity": 104}, {"time": 93356, "pitch": 60, "duration": 974, "velocity": 120}, {"time": 93356, "pitch": 64, "duration": 969, "velocity": 117}, {"time": 93597, "pitch": 36, "duration": 295, "velocity": 93}, {"time": 93838, "pitch": 48, "duration": 277, "velocity": 112}, {"time": 94079, "pitch": 36, "duration": 308, "velocity": 108}, {"time": 94320, "pitch": 48, "duration": 231, "velocity": 111}, {"time": 94561, "pitch": 41, "duration": 239, "velocity": 112}, {"time": 94561, "pitch": 60, "duration": 894, "velocity": 120}, {"time": 94561, "pitch": 65, "duration": 887, "velocity": 121}, {"time": 94561, "pitch": 69, "duration": 903, "velocity": 120}, {"time": 94801, "pitch": 53, "duration": 282, "velocity": 104}, {"time": 95042, "pitch": 41, "duration": 227, "velocity": 100}, {"time": 95283, "pitch": 53, "duration": 218, "velocity": 111}, {"time": 95524, "pitch": 41, "duration": 278, "velocity": 111}, {"time": 95524, "pitch": 60, "duration": 824, "velocity": 108}, {"time": 95524, "pitch": 64, "duration": 816, "velocity": 117}, {"time": 95524, "pitch": 67, "duration": 832, "velocity": 120}, {"time": 95760, "pitch": 53, "duration": 226, "velocity": 98}, {"time": 95996, "pitch": 41, "duration": 313, "velocity": 112}, {"time": 96237, "pitch": 53, "duration": 205, "velocity": 90}, {"time": 96478, "pitch": 41, "duration": 326, "velocity": 111}, {"time": 96478, "pitch": 62, "duration": 419, "velocity": 121}, {"time": 96478, "pitch": 65, "duration": 419, "velocity": 122}, {"time": 96478, "pitch": 70, "duration": 415, "velocity": 120}, {"time": 96719, "pitch": 53, "duration": 266, "velocity": 95}, {"time": 96960, "pitch": 41, "duration": 215, "velocity": 108}, {"time": 96960, "pitch": 62, "duration": 84, "velocity": 108}, {"time": 96960, "pitch": 65, "duration": 85, "velocity": 114}, {"time": 96960, "pitch": 70, "duration": 101, "velocity": 111}, {"time": 97201, "pitch": 53, "duration": 231, "velocity": 95}, {"time": 97201, "pitch": 60, "duration": 1023, "velocity": 112}, {"time": 97201, "pitch": 65, "duration": 1035, "velocity": 122}, {"time": 97201, "pitch": 69, "duration": 1035, "velocity": 112}, {"time": 97441, "pitch": 41, "duration": 243, "velocity": 111}, {"time": 97682, "pitch": 53, "duration": 269, "velocity": 87}, {"time": 97923, "pitch": 41, "duration": 256, "velocity": 98}, {"time": 98159, "pitch": 53, "duration": 267, "velocity": 85}, {"time": 98395, "pitch": 41, "duration": 285, "velocity": 111}, {"time": 98395, "pitch": 60, "duration": 853, "velocity": 117}, {"time": 98395, "pitch": 65, "duration": 849, "velocity": 122}, {"time": 98395, "pitch": 69, "duration": 837, "velocity": 120}, {"time": 98636, "pitch": 53, "duration": 265, "velocity": 83}, {"time": 98877, "pitch": 41, "duration": 312, "velocity": 112}, {"time": 99118, "pitch": 53, "duration": 261, "velocity": 87}, {"time": 99359, "pitch": 41, "duration": 319, "velocity": 108}, {"time": 99359, "pitch": 60, "duration": 878, "velocity": 112}, {"time": 99359, "pitch": 64, "duration": 855, "velocity": 120}, {"time": 99359, "pitch": 67, "duration": 867, "velocity": 114}, {"time": 99600, "pitch": 53, "duration": 267, "velocity": 86}, {"time": 99840, "pitch": 41, "duration": 264, "velocity": 104}, {"time": 100081, "pitch": 53, "duration": 229, "velocity": 73}, {"time": 100322, "pitch": 36, "duration": 284, "velocity": 111}, {"time": 100322, "pitch": 58, "duration": 634, "velocity": 121}, {"time": 100322, "pitch": 62, "duration": 631, "velocity": 121}, {"time": 100322, "pitch": 65, "duration": 646, "velocity": 117}, {"time": 100563, "pitch": 48, "duration": 242, "velocity": 111}, {"time": 100804, "pitch": 36, "duration": 291, "velocity": 95}, {"time": 101040, "pitch": 48, "duration": 248, "velocity": 111}, {"time": 101040, "pitch": 55, "duration": 965, "velocity": 104}, {"time": 101040, "pitch": 60, "duration": 969, "velocity": 120}, {"time": 101040, "pitch": 64, "duration": 964, "velocity": 117}, {"time": 101276, "pitch": 36, "duration": 295, "velocity": 93}, {"time": 101517, "pitch": 48, "duration": 277, "velocity": 112}, {"time": 101758, "pitch": 36, "duration": 308, "velocity": 108}, {"time": 101999, "pitch": 48, "duration": 230, "velocity": 111}, {"time": 102239, "pitch": 34, "duration": 251, "velocity": 111}, {"time": 102239, "pitch": 53, "duration": 610, "velocity": 120}, {"time": 102239, "pitch": 58, "duration": 600, "velocity": 121}, {"time": 102239, "pitch": 62, "duration": 621, "velocity": 122}, {"time": 102480, "pitch": 46, "duration": 270, "velocity": 122}, {"time": 102721, "pitch": 34, "duration": 295, "velocity": 100}, {"time": 102962, "pitch": 46, "duration": 282, "velocity": 122}, {"time": 102962, "pitch": 53, "duration": 1117, "velocity": 112}, {"time": 102962, "pitch": 58, "duration": 1105, "velocity": 122}, {"time": 102962, "pitch": 62, "duration": 1118, "velocity": 123}, {"time": 103203, "pitch": 34, "duration": 323, "velocity": 111}, {"time": 103444, "pitch": 46, "duration": 270, "velocity": 121}, {"time": 103685, "pitch": 34, "duration": 321, "velocity": 104}, {"time": 103921, "pitch": 46, "duration": 245, "velocity": 122}, {"time": 104157, "pitch": 33, "duration": 308, "velocity": 98}, {"time": 104157, "pitch": 53, "duration": 641, "velocity": 112}, {"time": 104157, "pitch": 57, "duration": 646, "velocity": 122}, {"time": 104157, "pitch": 60, "duration": 654, "velocity": 121}, {"time": 104398, "pitch": 45, "duration": 277, "velocity": 108}, {"time": 104638, "pitch": 33, "duration": 320, "velocity": 112}, {"time": 104879, "pitch": 45, "duration": 279, "velocity": 121}, {"time": 104879, "pitch": 57, "duration": 1070, "velocity": 122}, {"time": 104879, "pitch": 60, "duration": 1077, "velocity": 121}, {"time": 104879, "pitch": 65, "duration": 1070, "velocity": 112}, {"time": 105120, "pitch": 33, "duration": 312, "velocity": 104}, {"time": 105361, "pitch": 45, "duration": 269, "velocity": 121}, {"time": 105602, "pitch": 33, "duration": 334, "velocity": 100}, {"time": 105843, "pitch": 45, "duration": 259, "velocity": 117}, {"time": 106084, "pitch": 31, "duration": 313, "velocity": 98}, {"time": 106084, "pitch": 53, "duration": 616, "velocity": 108}, {"time": 106084, "pitch": 58, "duration": 599, "velocity": 122}, {"time": 106084, "pitch": 62, "duration": 621, "velocity": 121}, {"time": 106320, "pitch": 43, "duration": 296, "velocity": 108}, {"time": 106556, "pitch": 31, "duration": 308, "velocity": 100}, {"time": 106797, "pitch": 43, "duration": 285, "velocity": 108}, {"time": 106797, "pitch": 58, "duration": 1128, "velocity": 120}, {"time": 106797, "pitch": 62, "duration": 1134, "velocity": 122}, {"time": 106797, "pitch": 65, "duration": 1144, "velocity": 104}, {"time": 107038, "pitch": 31, "duration": 327, "velocity": 87}, {"time": 107278, "pitch": 43, "duration": 279, "velocity": 111}, {"time": 107519, "pitch": 31, "duration": 348, "velocity": 93}, {"time": 107760, "pitch": 43, "duration": 273, "velocity": 111}, {"time": 108001, "pitch": 29, "duration": 300, "velocity": 108}, {"time": 108001, "pitch": 57, "duration": 639, "velocity": 121}, {"time": 108001, "pitch": 60, "duration": 644, "velocity": 120}, {"time": 108001, "pitch": 65, "duration": 641, "velocity": 117}, {"time": 108242, "pitch": 41, "duration": 300, "velocity": 108}, {"time": 108483, "pitch": 29, "duration": 312, "velocity": 104}, {"time": 108724, "pitch": 41, "duration": 309, "velocity": 104}, {"time": 108724, "pitch": 57, "duration": 1029, "velocity": 121}, {"time": 108724, "pitch": 60, "duration": 1025, "velocity": 114}, {"time": 108724, "pitch": 65, "duration": 1012, "velocity": 114}, {"time": 108965, "pitch": 29, "duration": 264, "velocity": 104}, {"time": 109201, "pitch": 41, "duration": 268, "velocity": 104}, {"time": 109437, "pitch": 29, "duration": 354, "velocity": 90}, {"time": 109677, "pitch": 41, "duration": 255, "velocity": 104}, {"time": 109918, "pitch": 34, "duration": 317, "velocity": 104}, {"time": 109918, "pitch": 53, "duration": 636, "velocity": 114}, {"time": 109918, "pitch": 58, "duration": 624, "velocity": 121}, {"time": 109918, "pitch": 62, "duration": 644, "velocity": 120}, {"time": 110159, "pitch": 46, "duration": 282, "velocity": 117}, {"time": 110400, "pitch": 34, "duration": 322, "velocity": 77}, {"time": 110641, "pitch": 46, "duration": 293, "velocity": 120}, {"time": 110641, "pitch": 53, "duration": 1068, "velocity": 111}, {"time": 110641, "pitch": 58, "duration": 1054, "velocity": 122}, {"time": 110641, "pitch": 62, "duration": 1083, "velocity": 121}, {"time": 110882, "pitch": 34, "duration": 296, "velocity": 98}, {"time": 111123, "pitch": 46, "duration": 275, "velocity": 120}, {"time": 111364, "pitch": 34, "duration": 313, "velocity": 95}, {"time": 111600, "pitch": 46, "duration": 256, "velocity": 122}, {"time": 111836, "pitch": 33, "duration": 337, "velocity": 79}, {"time": 111836, "pitch": 53, "duration": 642, "velocity": 117}, {"time": 111836, "pitch": 57, "duration": 643, "velocity": 122}, {"time": 111836, "pitch": 60, "duration": 649, "velocity": 122}, {"time": 112076, "pitch": 45, "duration": 307, "velocity": 114}, {"time": 112317, "pitch": 33, "duration": 323, "velocity": 95}, {"time": 112558, "pitch": 45, "duration": 276, "velocity": 112}, {"time": 112558, "pitch": 57, "duration": 1051, "velocity": 122}, {"time": 112558, "pitch": 60, "duration": 1068, "velocity": 117}, {"time": 112558, "pitch": 65, "duration": 1038, "velocity": 112}, {"time": 112799, "pitch": 33, "duration": 315, "velocity": 93}, {"time": 113040, "pitch": 45, "duration": 274, "velocity": 120}, {"time": 113281, "pitch": 33, "duration": 359, "velocity": 87}, {"time": 113522, "pitch": 45, "duration": 257, "velocity": 117}, {"time": 113763, "pitch": 31, "duration": 326, "velocity": 85}, {"time": 113763, "pitch": 53, "duration": 626, "velocity": 112}, {"time": 113763, "pitch": 58, "duration": 620, "velocity": 122}, {"time": 113763, "pitch": 62, "duration": 639, "velocity": 120}, {"time": 114004, "pitch": 43, "duration": 271, "velocity": 120}, {"time": 114244, "pitch": 31, "duration": 319, "velocity": 74}, {"time": 114480, "pitch": 43, "duration": 274, "velocity": 120}, {"time": 114480, "pitch": 53, "duration": 1075, "velocity": 111}, {"time": 114480, "pitch": 58, "duration": 1065, "velocity": 122}, {"time": 114480, "pitch": 62, "duration": 1112, "velocity": 122}, {"time": 114716, "pitch": 31, "duration": 325, "velocity": 81}, {"time": 114957, "pitch": 43, "duration": 280, "velocity": 114}, {"time": 115198, "pitch": 31, "duration": 299, "velocity": 79}, {"time": 115439, "pitch": 43, "duration": 281, "velocity": 114}, {"time": 115680, "pitch": 31, "duration": 291, "velocity": 98}, {"time": 115680, "pitch": 53, "duration": 627, "velocity": 117}, {"time": 115680, "pitch": 58, "duration": 624, "velocity": 122}, {"time": 115680, "pitch": 60, "duration": 628, "velocity": 122}, {"time": 115921, "pitch": 43, "duration": 288, "velocity": 95}, {"time": 116162, "pitch": 31, "duration": 376, "velocity": 90}, {"time": 116403, "pitch": 43, "duration": 301, "velocity": 111}, {"time": 116403, "pitch": 53, "duration": 1065, "velocity": 112}, {"time": 116403, "pitch": 58, "duration": 1059, "velocity": 122}, {"time": 116403, "pitch": 60, "duration": 1070, "velocity": 122}, {"time": 116643, "pitch": 36, "duration": 311, "velocity": 111}, {"time": 116879, "pitch": 48, "duration": 294, "velocity": 111}, {"time": 117116, "pitch": 36, "duration": 306, "velocity": 111}, {"time": 117356, "pitch": 48, "duration": 270, "velocity": 114}, {"time": 117597, "pitch": 36, "duration": 316, "velocity": 111}, {"time": 117597, "pitch": 55, "duration": 722, "velocity": 114}, {"time": 117597, "pitch": 58, "duration": 699, "velocity": 122}, {"time": 117597, "pitch": 60, "duration": 710, "velocity": 122}, {"time": 117597, "pitch": 65, "duration": 697, "velocity": 117}, {"time": 117838, "pitch": 48, "duration": 297, "velocity": 120}, {"time": 118079, "pitch": 36, "duration": 315, "velocity": 111}, {"time": 118320, "pitch": 48, "duration": 269, "velocity": 117}, {"time": 118320, "pitch": 55, "duration": 1076, "velocity": 104}, {"time": 118320, "pitch": 58, "duration": 1072, "velocity": 121}, {"time": 118320, "pitch": 60, "duration": 1071, "velocity": 122}, {"time": 118320, "pitch": 64, "duration": 1105, "velocity": 114}, {"time": 118561, "pitch": 36, "duration": 334, "velocity": 111}, {"time": 118802, "pitch": 48, "duration": 290, "velocity": 120}, {"time": 119043, "pitch": 36, "duration": 334, "velocity": 108}, {"time": 119283, "pitch": 48, "duration": 163, "velocity": 114}, {"time": 119524, "pitch": 41, "duration": 244, "velocity": 111}, {"time": 119524, "pitch": 57, "duration": 141, "velocity": 117}, {"time": 119524, "pitch": 60, "duration": 146, "velocity": 117}, {"time": 119524, "pitch": 65, "duration": 138, "velocity": 117}, {"time": 119760, "pitch": 53, "duration": 266, "velocity": 98}, {"time": 119760, "pitch": 57, "duration": 113, "velocity": 87}, {"time": 119760, "pitch": 60, "duration": 120, "velocity": 90}, {"time": 119760, "pitch": 65, "duration": 109, "velocity": 100}, {"time": 119996, "pitch": 41, "duration": 282, "velocity": 111}, {"time": 119996, "pitch": 57, "duration": 136, "velocity": 114}, {"time": 119996, "pitch": 60, "duration": 130, "velocity": 114}, {"time": 119996, "pitch": 65, "duration": 129, "velocity": 117}, {"time": 120237, "pitch": 53, "duration": 191, "velocity": 75}, {"time": 120237, "pitch": 57, "duration": 140, "velocity": 86}, {"time": 120237, "pitch": 60, "duration": 134, "velocity": 93}, {"time": 120237, "pitch": 65, "duration": 136, "velocity": 93}, {"time": 120478, "pitch": 40, "duration": 294, "velocity": 120}, {"time": 120478, "pitch": 55, "duration": 157, "velocity": 98}, {"time": 120478, "pitch": 60, "duration": 153, "velocity": 112}, {"time": 120478, "pitch": 64, "duration": 152, "velocity": 111}, {"time": 120719, "pitch": 55, "duration": 117, "velocity": 85}, {"time": 120719, "pitch": 60, "duration": 107, "velocity": 90}, {"time": 120719, "pitch": 64, "duration": 103, "velocity": 98}, {"time": 120960, "pitch": 40, "duration": 170, "velocity": 111}, {"time": 120960, "pitch": 52, "duration": 9, "velocity": 112}, {"time": 120960, "pitch": 55, "duration": 133, "velocity": 120}, {"time": 120960, "pitch": 60, "duration": 127, "velocity": 114}, {"time": 121201, "pitch": 38, "duration": 433, "velocity": 112}, {"time": 121201, "pitch": 53, "duration": 1102, "velocity": 100}, {"time": 121201, "pitch": 58, "duration": 1102, "velocity": 117}, {"time": 121201, "pitch": 62, "duration": 1125, "velocity": 114}, {"time": 121682, "pitch": 50, "duration": 206, "velocity": 104}, {"time": 121923, "pitch": 38, "duration": 276, "velocity": 114}, {"time": 122159, "pitch": 50, "duration": 226, "velocity": 93}, {"time": 122395, "pitch": 38, "duration": 320, "velocity": 112}, {"time": 122395, "pitch": 53, "duration": 236, "velocity": 114}, {"time": 122395, "pitch": 58, "duration": 241, "velocity": 121}, {"time": 122395, "pitch": 62, "duration": 267, "velocity": 120}, {"time": 122636, "pitch": 50, "duration": 161, "velocity": 98}, {"time": 122877, "pitch": 36, "duration": 306, "velocity": 112}, {"time": 122877, "pitch": 55, "duration": 285, "velocity": 117}, {"time": 122877, "pitch": 60, "duration": 289, "velocity": 122}, {"time": 122877, "pitch": 64, "duration": 282, "velocity": 112}, {"time": 123118, "pitch": 48, "duration": 169, "velocity": 108}, {"time": 123359, "pitch": 41, "duration": 264, "velocity": 112}, {"time": 123359, "pitch": 57, "duration": 148, "velocity": 120}, {"time": 123359, "pitch": 60, "duration": 147, "velocity": 120}, {"time": 123359, "pitch": 65, "duration": 141, "velocity": 120}, {"time": 123600, "pitch": 52, "duration": 40, "velocity": 71}, {"time": 123600, "pitch": 53, "duration": 159, "velocity": 76}, {"time": 123600, "pitch": 57, "duration": 99, "velocity": 104}, {"time": 123600, "pitch": 60, "duration": 109, "velocity": 111}, {"time": 123600, "pitch": 65, "duration": 100, "velocity": 111}, {"time": 123841, "pitch": 41, "duration": 268, "velocity": 104}, {"time": 123841, "pitch": 57, "duration": 114, "velocity": 120}, {"time": 123841, "pitch": 60, "duration": 116, "velocity": 120}, {"time": 123841, "pitch": 65, "duration": 111, "velocity": 114}, {"time": 124081, "pitch": 53, "duration": 175, "velocity": 95}, {"time": 124081, "pitch": 57, "duration": 99, "velocity": 85}, {"time": 124081, "pitch": 60, "duration": 104, "velocity": 85}, {"time": 124081, "pitch": 65, "duration": 108, "velocity": 95}, {"time": 124322, "pitch": 40, "duration": 299, "velocity": 117}, {"time": 124322, "pitch": 60, "duration": 130, "velocity": 117}, {"time": 124322, "pitch": 64, "duration": 134, "velocity": 120}, {"time": 124322, "pitch": 67, "duration": 141, "velocity": 108}, {"time": 124563, "pitch": 52, "duration": 235, "velocity": 93}, {"time": 124563, "pitch": 60, "duration": 111, "velocity": 90}, {"time": 124563, "pitch": 64, "duration": 98, "velocity": 95}, {"time": 124563, "pitch": 67, "duration": 94, "velocity": 90}, {"time": 124804, "pitch": 40, "duration": 179, "velocity": 111}, {"time": 124804, "pitch": 55, "duration": 114, "velocity": 117}, {"time": 124804, "pitch": 60, "duration": 108, "velocity": 117}, {"time": 124804, "pitch": 64, "duration": 102, "velocity": 111}, {"time": 125040, "pitch": 38, "duration": 494, "velocity": 111}, {"time": 125040, "pitch": 53, "duration": 1028, "velocity": 120}, {"time": 125040, "pitch": 58, "duration": 1022, "velocity": 121}, {"time": 125040, "pitch": 62, "duration": 1041, "velocity": 114}, {"time": 125517, "pitch": 50, "duration": 221, "velocity": 98}, {"time": 125758, "pitch": 38, "duration": 302, "velocity": 108}, {"time": 125999, "pitch": 50, "duration": 222, "velocity": 104}, {"time": 126240, "pitch": 38, "duration": 316, "velocity": 108}, {"time": 126240, "pitch": 53, "duration": 311, "velocity": 120}, {"time": 126240, "pitch": 58, "duration": 321, "velocity": 122}, {"time": 126240, "pitch": 62, "duration": 341, "velocity": 120}, {"time": 126480, "pitch": 50, "duration": 135, "velocity": 87}, {"time": 126721, "pitch": 36, "duration": 268, "velocity": 112}, {"time": 126721, "pitch": 55, "duration": 335, "velocity": 117}, {"time": 126721, "pitch": 60, "duration": 350, "velocity": 122}, {"time": 126721, "pitch": 64, "duration": 335, "velocity": 117}, {"time": 126962, "pitch": 48, "duration": 135, "velocity": 85}, {"time": 127203, "pitch": 41, "duration": 297, "velocity": 112}, {"time": 127203, "pitch": 57, "duration": 118, "velocity": 114}, {"time": 127203, "pitch": 60, "duration": 110, "velocity": 121}, {"time": 127203, "pitch": 65, "duration": 112, "velocity": 114}, {"time": 127439, "pitch": 53, "duration": 163, "velocity": 90}, {"time": 127439, "pitch": 57, "duration": 87, "velocity": 104}, {"time": 127439, "pitch": 60, "duration": 76, "velocity": 111}, {"time": 127439, "pitch": 65, "duration": 72, "velocity": 100}, {"time": 127675, "pitch": 41, "duration": 302, "velocity": 104}, {"time": 127675, "pitch": 57, "duration": 81, "velocity": 117}, {"time": 127675, "pitch": 60, "duration": 82, "velocity": 114}, {"time": 127675, "pitch": 65, "duration": 102, "velocity": 112}, {"time": 127916, "pitch": 53, "duration": 168, "velocity": 81}, {"time": 127916, "pitch": 57, "duration": 108, "velocity": 100}, {"time": 127916, "pitch": 60, "duration": 105, "velocity": 104}, {"time": 127916, "pitch": 65, "duration": 105, "velocity": 100}, {"time": 128157, "pitch": 40, "duration": 296, "velocity": 117}, {"time": 128157, "pitch": 55, "duration": 136, "velocity": 112}, {"time": 128157, "pitch": 60, "duration": 124, "velocity": 121}, {"time": 128157, "pitch": 64, "duration": 103, "velocity": 111}, {"time": 128398, "pitch": 55, "duration": 121, "velocity": 90}, {"time": 128398, "pitch": 60, "duration": 105, "velocity": 108}, {"time": 128398, "pitch": 64, "duration": 81, "velocity": 86}, {"time": 128639, "pitch": 40, "duration": 161, "velocity": 108}, {"time": 128639, "pitch": 52, "duration": 3, "velocity": 112}, {"time": 128639, "pitch": 55, "duration": 69, "velocity": 112}, {"time": 128639, "pitch": 60, "duration": 88, "velocity": 111}, {"time": 128880, "pitch": 38, "duration": 477, "velocity": 108}, {"time": 128880, "pitch": 53, "duration": 1104, "velocity": 114}, {"time": 128880, "pitch": 58, "duration": 1099, "velocity": 121}, {"time": 128880, "pitch": 62, "duration": 1094, "velocity": 117}, {"time": 129361, "pitch": 50, "duration": 230, "velocity": 95}, {"time": 129602, "pitch": 38, "duration": 287, "velocity": 108}, {"time": 129843, "pitch": 50, "duration": 217, "velocity": 90}, {"time": 130084, "pitch": 38, "duration": 250, "velocity": 79}, {"time": 130084, "pitch": 40, "duration": 138, "velocity": 85}, {"time": 130084, "pitch": 53, "duration": 325, "velocity": 112}, {"time": 130084, "pitch": 58, "duration": 341, "velocity": 122}, {"time": 130084, "pitch": 62, "duration": 350, "velocity": 114}, {"time": 130320, "pitch": 50, "duration": 134, "velocity": 93}, {"time": 130556, "pitch": 36, "duration": 304, "velocity": 111}, {"time": 130556, "pitch": 55, "duration": 306, "velocity": 120}, {"time": 130556, "pitch": 60, "duration": 305, "velocity": 120}, {"time": 130556, "pitch": 64, "duration": 339, "velocity": 114}, {"time": 130797, "pitch": 48, "duration": 147, "velocity": 90}, {"time": 131038, "pitch": 37, "duration": 280, "velocity": 104}, {"time": 131038, "pitch": 56, "duration": 870, "velocity": 122}, {"time": 131038, "pitch": 61, "duration": 871, "velocity": 122}, {"time": 131038, "pitch": 65, "duration": 884, "velocity": 122}, {"time": 131279, "pitch": 49, "duration": 219, "velocity": 108}, {"time": 131519, "pitch": 37, "duration": 307, "velocity": 100}, {"time": 131760, "pitch": 49, "duration": 211, "velocity": 100}, {"time": 132001, "pitch": 39, "duration": 282, "velocity": 108}, {"time": 132001, "pitch": 58, "duration": 795, "velocity": 122}, {"time": 132001, "pitch": 63, "duration": 810, "velocity": 121}, {"time": 132001, "pitch": 66, "duration": 15, "velocity": 85}, {"time": 132001, "pitch": 67, "duration": 819, "velocity": 121}, {"time": 132242, "pitch": 51, "duration": 226, "velocity": 98}, {"time": 132483, "pitch": 39, "duration": 301, "velocity": 111}, {"time": 132724, "pitch": 51, "duration": 116, "velocity": 93}, {"time": 132965, "pitch": 37, "duration": 253, "velocity": 98}, {"time": 132965, "pitch": 61, "duration": 1670, "velocity": 120}, {"time": 132965, "pitch": 65, "duration": 1668, "velocity": 123}, {"time": 132965, "pitch": 68, "duration": 1685, "velocity": 120}, {"time": 133161, "pitch": 76, "duration": 99, "velocity": 83}, {"time": 133201, "pitch": 49, "duration": 273, "velocity": 95}, {"time": 133201, "pitch": 77, "duration": 137, "velocity": 97}, {"time": 133437, "pitch": 37, "duration": 254, "velocity": 108}, {"time": 133437, "pitch": 77, "duration": 110, "velocity": 112}, {"time": 133437, "pitch": 80, "duration": 10, "velocity": 127}, {"time": 133678, "pitch": 49, "duration": 289, "velocity": 112}, {"time": 133678, "pitch": 77, "duration": 110, "velocity": 118}, {"time": 133678, "pitch": 80, "duration": 120, "velocity": 127}, {"time": 133918, "pitch": 37, "duration": 246, "velocity": 100}, {"time": 133918, "pitch": 77, "duration": 131, "velocity": 120}, {"time": 133918, "pitch": 80, "duration": 161, "velocity": 127}, {"time": 134159, "pitch": 49, "duration": 256, "velocity": 75}, {"time": 134159, "pitch": 77, "duration": 131, "velocity": 120}, {"time": 134159, "pitch": 80, "duration": 151, "velocity": 127}, {"time": 134400, "pitch": 37, "duration": 273, "velocity": 104}, {"time": 134400, "pitch": 77, "duration": 131, "velocity": 120}, {"time": 134400, "pitch": 80, "duration": 151, "velocity": 127}, {"time": 134641, "pitch": 49, "duration": 204, "velocity": 98}, {"time": 134641, "pitch": 77, "duration": 111, "velocity": 127}, {"time": 134641, "pitch": 80, "duration": 131, "velocity": 127}, {"time": 134882, "pitch": 49, "duration": 1365, "velocity": 127}, {"time": 134882, "pitch": 56, "duration": 1365, "velocity": 127}, {"time": 134882, "pitch": 61, "duration": 1355, "velocity": 109}, {"time": 134882, "pitch": 65, "duration": 1335, "velocity": 127}, {"time": 136318, "pitch": 49, "duration": 461, "velocity": 127}, {"time": 136318, "pitch": 56, "duration": 381, "velocity": 127}, {"time": 136318, "pitch": 61, "duration": 361, "velocity": 91}, {"time": 136318, "pitch": 65, "duration": 351, "velocity": 127}, {"time": 136799, "pitch": 48, "duration": 1839, "velocity": 120}, {"time": 136799, "pitch": 56, "duration": 1701, "velocity": 127}, {"time": 136799, "pitch": 60, "duration": 1652, "velocity": 120}, {"time": 136799, "pitch": 63, "duration": 1731, "velocity": 118}, {"time": 138717, "pitch": 42, "duration": 1927, "velocity": 120}, {"time": 138717, "pitch": 58, "duration": 853, "velocity": 127}, {"time": 138717, "pitch": 61, "duration": 853, "velocity": 127}, {"time": 138717, "pitch": 66, "duration": 853, "velocity": 127}, {"time": 139680, "pitch": 58, "duration": 833, "velocity": 127}, {"time": 139680, "pitch": 61, "duration": 793, "velocity": 127}, {"time": 139680, "pitch": 66, "duration": 833, "velocity": 127}, {"time": 140644, "pitch": 49, "duration": 1435, "velocity": 127}, {"time": 140644, "pitch": 56, "duration": 1325, "velocity": 127}, {"time": 140644, "pitch": 61, "duration": 1345, "velocity": 125}, {"time": 140644, "pitch": 65, "duration": 1335, "velocity": 118}, {"time": 142079, "pitch": 51, "duration": 462, "velocity": 127}, {"time": 142079, "pitch": 58, "duration": 321, "velocity": 127}, {"time": 142079, "pitch": 63, "duration": 331, "velocity": 125}, {"time": 142079, "pitch": 67, "duration": 311, "velocity": 109}, {"time": 142561, "pitch": 53, "duration": 1917, "velocity": 110}, {"time": 142561, "pitch": 60, "duration": 963, "velocity": 122}, {"time": 142561, "pitch": 65, "duration": 963, "velocity": 127}, {"time": 142561, "pitch": 68, "duration": 963, "velocity": 127}, {"time": 143524, "pitch": 72, "duration": 954, "velocity": 122}, {"time": 143524, "pitch": 77, "duration": 954, "velocity": 127}, {"time": 143524, "pitch": 80, "duration": 954, "velocity": 127}, {"time": 144478, "pitch": 52, "duration": 1849, "velocity": 127}, {"time": 144478, "pitch": 60, "duration": 1780, "velocity": 120}, {"time": 144478, "pitch": 64, "duration": 1790, "velocity": 127}, {"time": 144478, "pitch": 67, "duration": 1790, "velocity": 114}, {"time": 146396, "pitch": 51, "duration": 1876, "velocity": 127}, {"time": 146396, "pitch": 58, "duration": 1776, "velocity": 127}, {"time": 146396, "pitch": 63, "duration": 1796, "velocity": 127}, {"time": 146396, "pitch": 66, "duration": 1796, "velocity": 127}, {"time": 146757, "pitch": 67, "duration": 190, "velocity": 71}, {"time": 148322, "pitch": 50, "duration": 1847, "velocity": 120}, {"time": 148322, "pitch": 58, "duration": 1787, "velocity": 127}, {"time": 148322, "pitch": 62, "duration": 1747, "velocity": 120}, {"time": 148322, "pitch": 65, "duration": 1717, "velocity": 106}, {"time": 150240, "pitch": 49, "duration": 1847, "velocity": 127}, {"time": 150240, "pitch": 58, "duration": 1817, "velocity": 127}, {"time": 150240, "pitch": 61, "duration": 1817, "velocity": 125}, {"time": 150240, "pitch": 65, "duration": 1766, "velocity": 89}, {"time": 152157, "pitch": 48, "duration": 1827, "velocity": 127}, {"time": 152157, "pitch": 57, "duration": 923, "velocity": 120}, {"time": 152157, "pitch": 60, "duration": 933, "velocity": 127}, {"time": 152157, "pitch": 65, "duration": 913, "velocity": 127}, {"time": 153121, "pitch": 57, "duration": 742, "velocity": 127}, {"time": 153121, "pitch": 60, "duration": 752, "velocity": 127}, {"time": 154084, "pitch": 43, "duration": 1807, "velocity": 122}, {"time": 154084, "pitch": 53, "duration": 1767, "velocity": 127}, {"time": 154084, "pitch": 58, "duration": 1797, "velocity": 127}, {"time": 154084, "pitch": 60, "duration": 1807, "velocity": 118}, {"time": 156001, "pitch": 43, "duration": 974, "velocity": 120}, {"time": 156001, "pitch": 55, "duration": 914, "velocity": 118}, {"time": 156001, "pitch": 58, "duration": 914, "velocity": 127}, {"time": 156001, "pitch": 60, "duration": 914, "velocity": 127}, {"time": 156965, "pitch": 48, "duration": 783, "velocity": 98}, {"time": 156965, "pitch": 55, "duration": 733, "velocity": 106}, {"time": 156965, "pitch": 58, "duration": 763, "velocity": 125}, {"time": 156965, "pitch": 60, "duration": 753, "velocity": 112}, {"time": 156965, "pitch": 64, "duration": 783, "velocity": 122}, {"time": 157919, "pitch": 41, "duration": 249, "velocity": 111}, {"time": 157919, "pitch": 57, "duration": 143, "velocity": 117}, {"time": 157919, "pitch": 60, "duration": 148, "velocity": 117}, {"time": 157919, "pitch": 65, "duration": 140, "velocity": 117}, {"time": 158160, "pitch": 53, "duration": 271, "velocity": 98}, {"time": 158160, "pitch": 57, "duration": 115, "velocity": 87}, {"time": 158160, "pitch": 60, "duration": 122, "velocity": 90}, {"time": 158160, "pitch": 65, "duration": 111, "velocity": 100}, {"time": 158400, "pitch": 41, "duration": 282, "velocity": 111}, {"time": 158400, "pitch": 57, "duration": 136, "velocity": 114}, {"time": 158400, "pitch": 60, "duration": 130, "velocity": 114}, {"time": 158400, "pitch": 65, "duration": 129, "velocity": 117}, {"time": 158641, "pitch": 53, "duration": 191, "velocity": 75}, {"time": 158641, "pitch": 57, "duration": 140, "velocity": 86}, {"time": 158641, "pitch": 60, "duration": 134, "velocity": 93}, {"time": 158641, "pitch": 65, "duration": 136, "velocity": 93}, {"time": 158882, "pitch": 40, "duration": 294, "velocity": 120}, {"time": 158882, "pitch": 55, "duration": 157, "velocity": 98}, {"time": 158882, "pitch": 60, "duration": 153, "velocity": 112}, {"time": 158882, "pitch": 64, "duration": 152, "velocity": 111}, {"time": 159123, "pitch": 55, "duration": 117, "velocity": 85}, {"time": 159123, "pitch": 60, "duration": 107, "velocity": 90}, {"time": 159123, "pitch": 64, "duration": 103, "velocity": 98}, {"time": 159364, "pitch": 40, "duration": 167, "velocity": 111}, {"time": 159364, "pitch": 52, "duration": 9, "velocity": 112}, {"time": 159364, "pitch": 55, "duration": 131, "velocity": 120}, {"time": 159364, "pitch": 60, "duration": 125, "velocity": 114}, {"time": 159600, "pitch": 38, "duration": 429, "velocity": 112}, {"time": 159600, "pitch": 53, "duration": 1105, "velocity": 100}, {"time": 159600, "pitch": 58, "duration": 1105, "velocity": 117}, {"time": 159600, "pitch": 62, "duration": 1128, "velocity": 114}, {"time": 160077, "pitch": 50, "duration": 206, "velocity": 104}, {"time": 160318, "pitch": 38, "duration": 281, "velocity": 114}, {"time": 160559, "pitch": 50, "duration": 229, "velocity": 93}, {"time": 160799, "pitch": 38, "duration": 321, "velocity": 112}, {"time": 160799, "pitch": 53, "duration": 236, "velocity": 114}, {"time": 160799, "pitch": 58, "duration": 241, "velocity": 121}, {"time": 160799, "pitch": 62, "duration": 267, "velocity": 120}, {"time": 161040, "pitch": 50, "duration": 161, "velocity": 98}, {"time": 161281, "pitch": 36, "duration": 306, "velocity": 112}, {"time": 161281, "pitch": 55, "duration": 285, "velocity": 117}, {"time": 161281, "pitch": 60, "duration": 289, "velocity": 122}, {"time": 161281, "pitch": 64, "duration": 282, "velocity": 112}, {"time": 161522, "pitch": 48, "duration": 169, "velocity": 108}, {"time": 161763, "pitch": 41, "duration": 264, "velocity": 112}, {"time": 161763, "pitch": 57, "duration": 149, "velocity": 120}, {"time": 161763, "pitch": 60, "duration": 147, "velocity": 120}, {"time": 161763, "pitch": 65, "duration": 141, "velocity": 120}, {"time": 162004, "pitch": 52, "duration": 40, "velocity": 71}, {"time": 162004, "pitch": 53, "duration": 159, "velocity": 76}, {"time": 162004, "pitch": 57, "duration": 99, "velocity": 104}, {"time": 162004, "pitch": 60, "duration": 109, "velocity": 111}, {"time": 162004, "pitch": 65, "duration": 100, "velocity": 111}, {"time": 162245, "pitch": 41, "duration": 262, "velocity": 104}, {"time": 162245, "pitch": 57, "duration": 112, "velocity": 120}, {"time": 162245, "pitch": 60, "duration": 114, "velocity": 120}, {"time": 162245, "pitch": 65, "duration": 109, "velocity": 114}, {"time": 162481, "pitch": 53, "duration": 171, "velocity": 95}, {"time": 162481, "pitch": 57, "duration": 96, "velocity": 85}, {"time": 162481, "pitch": 60, "duration": 101, "velocity": 85}, {"time": 162481, "pitch": 65, "duration": 105, "velocity": 95}, {"time": 162717, "pitch": 40, "duration": 299, "velocity": 117}, {"time": 162717, "pitch": 60, "duration": 129, "velocity": 117}, {"time": 162717, "pitch": 64, "duration": 133, "velocity": 120}, {"time": 162717, "pitch": 67, "duration": 140, "velocity": 108}, {"time": 162958, "pitch": 52, "duration": 234, "velocity": 93}, {"time": 162958, "pitch": 60, "duration": 110, "velocity": 90}, {"time": 162958, "pitch": 64, "duration": 97, "velocity": 95}, {"time": 162958, "pitch": 67, "duration": 93, "velocity": 90}, {"time": 163198, "pitch": 40, "duration": 183, "velocity": 111}, {"time": 163198, "pitch": 55, "duration": 117, "velocity": 117}, {"time": 163198, "pitch": 60, "duration": 111, "velocity": 117}, {"time": 163198, "pitch": 64, "duration": 105, "velocity": 111}, {"time": 163439, "pitch": 38, "duration": 499, "velocity": 111}, {"time": 163439, "pitch": 53, "duration": 1033, "velocity": 120}, {"time": 163439, "pitch": 58, "duration": 1027, "velocity": 121}, {"time": 163439, "pitch": 62, "duration": 1046, "velocity": 114}, {"time": 163921, "pitch": 50, "duration": 221, "velocity": 98}, {"time": 164162, "pitch": 38, "duration": 302, "velocity": 108}, {"time": 164403, "pitch": 50, "duration": 222, "velocity": 104}, {"time": 164644, "pitch": 38, "duration": 310, "velocity": 108}, {"time": 164644, "pitch": 53, "duration": 305, "velocity": 120}, {"time": 164644, "pitch": 58, "duration": 314, "velocity": 122}, {"time": 164644, "pitch": 62, "duration": 334, "velocity": 120}, {"time": 164880, "pitch": 50, "duration": 132, "velocity": 87}, {"time": 165116, "pitch": 36, "duration": 268, "velocity": 112}, {"time": 165116, "pitch": 55, "duration": 334, "velocity": 117}, {"time": 165116, "pitch": 60, "duration": 349, "velocity": 122}, {"time": 165116, "pitch": 64, "duration": 334, "velocity": 117}, {"time": 165357, "pitch": 48, "duration": 134, "velocity": 85}, {"time": 165597, "pitch": 41, "duration": 304, "velocity": 112}, {"time": 165597, "pitch": 57, "duration": 121, "velocity": 114}, {"time": 165597, "pitch": 60, "duration": 113, "velocity": 121}, {"time": 165597, "pitch": 65, "duration": 115, "velocity": 114}, {"time": 165838, "pitch": 53, "duration": 167, "velocity": 90}, {"time": 165838, "pitch": 57, "duration": 89, "velocity": 104}, {"time": 165838, "pitch": 60, "duration": 78, "velocity": 111}, {"time": 165838, "pitch": 65, "duration": 74, "velocity": 100}, {"time": 166079, "pitch": 41, "duration": 302, "velocity": 104}, {"time": 166079, "pitch": 57, "duration": 82, "velocity": 117}, {"time": 166079, "pitch": 60, "duration": 83, "velocity": 114}, {"time": 166079, "pitch": 65, "duration": 103, "velocity": 112}, {"time": 166320, "pitch": 53, "duration": 168, "velocity": 81}, {"time": 166320, "pitch": 57, "duration": 109, "velocity": 100}, {"time": 166320, "pitch": 60, "duration": 106, "velocity": 104}, {"time": 166320, "pitch": 65, "duration": 106, "velocity": 100}, {"time": 166561, "pitch": 40, "duration": 296, "velocity": 117}, {"time": 166561, "pitch": 55, "duration": 137, "velocity": 112}, {"time": 166561, "pitch": 60, "duration": 124, "velocity": 121}, {"time": 166561, "pitch": 64, "duration": 103, "velocity": 111}, {"time": 166802, "pitch": 55, "duration": 121, "velocity": 90}, {"time": 166802, "pitch": 60, "duration": 105, "velocity": 108}, {"time": 166802, "pitch": 64, "duration": 81, "velocity": 86}, {"time": 167043, "pitch": 40, "duration": 161, "velocity": 108}, {"time": 167043, "pitch": 52, "duration": 3, "velocity": 112}, {"time": 167043, "pitch": 55, "duration": 69, "velocity": 112}, {"time": 167043, "pitch": 60, "duration": 88, "velocity": 111}, {"time": 167284, "pitch": 38, "duration": 473, "velocity": 108}, {"time": 167284, "pitch": 53, "duration": 1094, "velocity": 114}, {"time": 167284, "pitch": 58, "duration": 1089, "velocity": 121}, {"time": 167284, "pitch": 62, "duration": 1084, "velocity": 117}, {"time": 167761, "pitch": 50, "duration": 225, "velocity": 95}, {"time": 167997, "pitch": 38, "duration": 287, "velocity": 108}, {"time": 168237, "pitch": 50, "duration": 217, "velocity": 90}, {"time": 168478, "pitch": 38, "duration": 255, "velocity": 79}, {"time": 168478, "pitch": 40, "duration": 141, "velocity": 85}, {"time": 168478, "pitch": 53, "duration": 333, "velocity": 112}, {"time": 168478, "pitch": 58, "duration": 349, "velocity": 122}, {"time": 168478, "pitch": 62, "duration": 358, "velocity": 114}, {"time": 168719, "pitch": 50, "duration": 137, "velocity": 93}, {"time": 168960, "pitch": 36, "duration": 304, "velocity": 111}, {"time": 168960, "pitch": 55, "duration": 306, "velocity": 120}, {"time": 168960, "pitch": 60, "duration": 305, "velocity": 120}, {"time": 168960, "pitch": 64, "duration": 339, "velocity": 114}, {"time": 169201, "pitch": 48, "duration": 147, "velocity": 90}, {"time": 169442, "pitch": 37, "duration": 280, "velocity": 104}, {"time": 169442, "pitch": 56, "duration": 862, "velocity": 122}, {"time": 169442, "pitch": 61, "duration": 863, "velocity": 122}, {"time": 169442, "pitch": 65, "duration": 876, "velocity": 122}, {"time": 169683, "pitch": 49, "duration": 220, "velocity": 108}, {"time": 169924, "pitch": 37, "duration": 300, "velocity": 100}, {"time": 170160, "pitch": 49, "duration": 206, "velocity": 100}, {"time": 170396, "pitch": 39, "duration": 282, "velocity": 108}, {"time": 170396, "pitch": 58, "duration": 794, "velocity": 122}, {"time": 170396, "pitch": 63, "duration": 810, "velocity": 121}, {"time": 170396, "pitch": 66, "duration": 15, "velocity": 85}, {"time": 170396, "pitch": 67, "duration": 819, "velocity": 121}, {"time": 170636, "pitch": 51, "duration": 226, "velocity": 98}, {"time": 170877, "pitch": 39, "duration": 301, "velocity": 111}, {"time": 171118, "pitch": 51, "duration": 117, "velocity": 93}, {"time": 171359, "pitch": 41, "duration": 259, "velocity": 98}, {"time": 171359, "pitch": 60, "duration": 1675, "velocity": 120}, {"time": 171359, "pitch": 65, "duration": 1674, "velocity": 123}, {"time": 171359, "pitch": 69, "duration": 1690, "velocity": 120}, {"time": 171600, "pitch": 53, "duration": 278, "velocity": 95}, {"time": 171841, "pitch": 41, "duration": 254, "velocity": 108}, {"time": 172082, "pitch": 53, "duration": 289, "velocity": 112}, {"time": 172323, "pitch": 41, "duration": 246, "velocity": 100}, {"time": 172564, "pitch": 53, "duration": 255, "velocity": 75}, {"time": 172804, "pitch": 41, "duration": 268, "velocity": 104}, {"time": 173040, "pitch": 53, "duration": 200, "velocity": 98}, {"time": 173276, "pitch": 41, "duration": 249, "velocity": 111}, {"time": 173276, "pitch": 57, "duration": 144, "velocity": 117}, {"time": 173276, "pitch": 60, "duration": 149, "velocity": 117}, {"time": 173276, "pitch": 65, "duration": 141, "velocity": 117}, {"time": 173517, "pitch": 53, "duration": 271, "velocity": 98}, {"time": 173517, "pitch": 57, "duration": 116, "velocity": 87}, {"time": 173517, "pitch": 60, "duration": 123, "velocity": 90}, {"time": 173517, "pitch": 65, "duration": 112, "velocity": 100}, {"time": 173758, "pitch": 41, "duration": 282, "velocity": 111}, {"time": 173758, "pitch": 57, "duration": 136, "velocity": 114}, {"time": 173758, "pitch": 60, "duration": 130, "velocity": 114}, {"time": 173758, "pitch": 65, "duration": 129, "velocity": 117}, {"time": 173999, "pitch": 53, "duration": 191, "velocity": 75}, {"time": 173999, "pitch": 57, "duration": 140, "velocity": 86}, {"time": 173999, "pitch": 60, "duration": 134, "velocity": 93}, {"time": 173999, "pitch": 65, "duration": 136, "velocity": 93}, {"time": 174240, "pitch": 40, "duration": 294, "velocity": 120}, {"time": 174240, "pitch": 55, "duration": 156, "velocity": 98}, {"time": 174240, "pitch": 60, "duration": 152, "velocity": 112}, {"time": 174240, "pitch": 64, "duration": 151, "velocity": 111}, {"time": 174481, "pitch": 55, "duration": 117, "velocity": 85}, {"time": 174481, "pitch": 60, "duration": 107, "velocity": 90}, {"time": 174481, "pitch": 64, "duration": 103, "velocity": 98}, {"time": 174722, "pitch": 40, "duration": 170, "velocity": 111}, {"time": 174722, "pitch": 52, "duration": 9, "velocity": 112}, {"time": 174722, "pitch": 55, "duration": 133, "velocity": 120}, {"time": 174722, "pitch": 60, "duration": 127, "velocity": 114}, {"time": 174963, "pitch": 38, "duration": 429, "velocity": 112}, {"time": 174963, "pitch": 53, "duration": 1100, "velocity": 100}, {"time": 174963, "pitch": 58, "duration": 1100, "velocity": 117}, {"time": 174963, "pitch": 62, "duration": 1123, "velocity": 114}, {"time": 175439, "pitch": 50, "duration": 202, "velocity": 104}, {"time": 175675, "pitch": 38, "duration": 281, "velocity": 114}, {"time": 175916, "pitch": 50, "duration": 230, "velocity": 93}, {"time": 176157, "pitch": 38, "duration": 320, "velocity": 112}, {"time": 176157, "pitch": 53, "duration": 236, "velocity": 114}, {"time": 176157, "pitch": 58, "duration": 241, "velocity": 121}, {"time": 176157, "pitch": 62, "duration": 267, "velocity": 120}, {"time": 176398, "pitch": 50, "duration": 161, "velocity": 98}, {"time": 176639, "pitch": 36, "duration": 306, "velocity": 112}, {"time": 176639, "pitch": 55, "duration": 285, "velocity": 117}, {"time": 176639, "pitch": 60, "duration": 289, "velocity": 122}, {"time": 176639, "pitch": 64, "duration": 282, "velocity": 112}, {"time": 176880, "pitch": 48, "duration": 168, "velocity": 108}, {"time": 177121, "pitch": 41, "duration": 264, "velocity": 112}, {"time": 177121, "pitch": 57, "duration": 148, "velocity": 120}, {"time": 177121, "pitch": 60, "duration": 147, "velocity": 120}, {"time": 177121, "pitch": 65, "duration": 141, "velocity": 120}, {"time": 177362, "pitch": 52, "duration": 40, "velocity": 71}, {"time": 177362, "pitch": 53, "duration": 159, "velocity": 76}, {"time": 177362, "pitch": 57, "duration": 99, "velocity": 104}, {"time": 177362, "pitch": 60, "duration": 109, "velocity": 111}, {"time": 177362, "pitch": 65, "duration": 100, "velocity": 111}, {"time": 177602, "pitch": 41, "duration": 268, "velocity": 104}, {"time": 177602, "pitch": 57, "duration": 115, "velocity": 120}, {"time": 177602, "pitch": 60, "duration": 117, "velocity": 120}, {"time": 177602, "pitch": 65, "duration": 112, "velocity": 114}, {"time": 177843, "pitch": 53, "duration": 175, "velocity": 95}, {"time": 177843, "pitch": 57, "duration": 99, "velocity": 85}, {"time": 177843, "pitch": 60, "duration": 104, "velocity": 85}, {"time": 177843, "pitch": 65, "duration": 108, "velocity": 95}, {"time": 178084, "pitch": 40, "duration": 293, "velocity": 117}, {"time": 178084, "pitch": 60, "duration": 127, "velocity": 117}, {"time": 178084, "pitch": 64, "duration": 131, "velocity": 120}, {"time": 178084, "pitch": 67, "duration": 138, "velocity": 108}, {"time": 178320, "pitch": 52, "duration": 230, "velocity": 93}, {"time": 178320, "pitch": 60, "duration": 108, "velocity": 90}, {"time": 178320, "pitch": 64, "duration": 96, "velocity": 95}, {"time": 178320, "pitch": 67, "duration": 92, "velocity": 90}, {"time": 178556, "pitch": 40, "duration": 183, "velocity": 111}, {"time": 178556, "pitch": 55, "duration": 117, "velocity": 117}, {"time": 178556, "pitch": 60, "duration": 111, "velocity": 117}, {"time": 178556, "pitch": 64, "duration": 105, "velocity": 111}, {"time": 178797, "pitch": 38, "duration": 499, "velocity": 111}, {"time": 178797, "pitch": 53, "duration": 1033, "velocity": 120}, {"time": 178797, "pitch": 58, "duration": 1027, "velocity": 121}, {"time": 178797, "pitch": 62, "duration": 1046, "velocity": 114}, {"time": 179279, "pitch": 50, "duration": 221, "velocity": 98}, {"time": 179520, "pitch": 38, "duration": 302, "velocity": 108}, {"time": 179761, "pitch": 50, "duration": 221, "velocity": 104}, {"time": 180002, "pitch": 38, "duration": 316, "velocity": 108}, {"time": 180002, "pitch": 53, "duration": 311, "velocity": 120}, {"time": 180002, "pitch": 58, "duration": 321, "velocity": 122}, {"time": 180002, "pitch": 62, "duration": 341, "velocity": 120}, {"time": 180242, "pitch": 50, "duration": 135, "velocity": 87}, {"time": 180483, "pitch": 36, "duration": 263, "velocity": 112}, {"time": 180483, "pitch": 55, "duration": 328, "velocity": 117}, {"time": 180483, "pitch": 60, "duration": 342, "velocity": 122}, {"time": 180483, "pitch": 64, "duration": 328, "velocity": 117}, {"time": 180719, "pitch": 48, "duration": 132, "velocity": 85}, {"time": 180955, "pitch": 41, "duration": 303, "velocity": 112}, {"time": 180955, "pitch": 57, "duration": 121, "velocity": 114}, {"time": 180955, "pitch": 60, "duration": 113, "velocity": 121}, {"time": 180955, "pitch": 65, "duration": 115, "velocity": 114}, {"time": 181196, "pitch": 53, "duration": 167, "velocity": 90}, {"time": 181196, "pitch": 57, "duration": 88, "velocity": 104}, {"time": 181196, "pitch": 60, "duration": 77, "velocity": 111}, {"time": 181196, "pitch": 65, "duration": 73, "velocity": 100}, {"time": 181437, "pitch": 41, "duration": 302, "velocity": 104}, {"time": 181437, "pitch": 57, "duration": 81, "velocity": 117}, {"time": 181437, "pitch": 60, "duration": 82, "velocity": 114}, {"time": 181437, "pitch": 65, "duration": 102, "velocity": 112}, {"time": 181678, "pitch": 53, "duration": 168, "velocity": 81}, {"time": 181678, "pitch": 57, "duration": 108, "velocity": 100}, {"time": 181678, "pitch": 60, "duration": 105, "velocity": 104}, {"time": 181678, "pitch": 65, "duration": 105, "velocity": 100}, {"time": 181919, "pitch": 40, "duration": 296, "velocity": 117}, {"time": 181919, "pitch": 55, "duration": 136, "velocity": 112}, {"time": 181919, "pitch": 60, "duration": 124, "velocity": 121}, {"time": 181919, "pitch": 64, "duration": 103, "velocity": 111}, {"time": 182160, "pitch": 55, "duration": 121, "velocity": 90}, {"time": 182160, "pitch": 60, "duration": 105, "velocity": 108}, {"time": 182160, "pitch": 64, "duration": 81, "velocity": 86}, {"time": 182401, "pitch": 40, "duration": 161, "velocity": 108}, {"time": 182401, "pitch": 52, "duration": 3, "velocity": 112}, {"time": 182401, "pitch": 55, "duration": 69, "velocity": 112}, {"time": 182401, "pitch": 60, "duration": 88, "velocity": 111}, {"time": 182641, "pitch": 38, "duration": 478, "velocity": 108}, {"time": 182641, "pitch": 53, "duration": 1097, "velocity": 114}, {"time": 182641, "pitch": 58, "duration": 1092, "velocity": 121}, {"time": 182641, "pitch": 62, "duration": 1087, "velocity": 117}, {"time": 183123, "pitch": 50, "duration": 230, "velocity": 95}, {"time": 183364, "pitch": 38, "duration": 281, "velocity": 108}, {"time": 183600, "pitch": 50, "duration": 213, "velocity": 90}, {"time": 183836, "pitch": 38, "duration": 255, "velocity": 79}, {"time": 183836, "pitch": 40, "duration": 141, "velocity": 85}, {"time": 183836, "pitch": 53, "duration": 332, "velocity": 112}, {"time": 183836, "pitch": 58, "duration": 348, "velocity": 122}, {"time": 183836, "pitch": 62, "duration": 357, "velocity": 114}, {"time": 184077, "pitch": 50, "duration": 136, "velocity": 93}, {"time": 184318, "pitch": 36, "duration": 304, "velocity": 111}, {"time": 184318, "pitch": 55, "duration": 306, "velocity": 120}, {"time": 184318, "pitch": 60, "duration": 305, "velocity": 120}, {"time": 184318, "pitch": 64, "duration": 339, "velocity": 114}, {"time": 184559, "pitch": 48, "duration": 147, "velocity": 90}, {"time": 184800, "pitch": 37, "duration": 280, "velocity": 104}, {"time": 184800, "pitch": 56, "duration": 870, "velocity": 122}, {"time": 184800, "pitch": 61, "duration": 871, "velocity": 122}, {"time": 184800, "pitch": 65, "duration": 884, "velocity": 122}, {"time": 185040, "pitch": 49, "duration": 220, "velocity": 108}, {"time": 185281, "pitch": 37, "duration": 306, "velocity": 100}, {"time": 185522, "pitch": 49, "duration": 211, "velocity": 100}, {"time": 185763, "pitch": 39, "duration": 282, "velocity": 108}, {"time": 185763, "pitch": 58, "duration": 789, "velocity": 122}, {"time": 185763, "pitch": 63, "duration": 803, "velocity": 121}, {"time": 185763, "pitch": 66, "duration": 15, "velocity": 85}, {"time": 185763, "pitch": 67, "duration": 812, "velocity": 121}, {"time": 186004, "pitch": 51, "duration": 226, "velocity": 98}, {"time": 186245, "pitch": 39, "duration": 295, "velocity": 111}, {"time": 186481, "pitch": 51, "duration": 114, "velocity": 93}, {"time": 186717, "pitch": 41, "duration": 259, "velocity": 98}, {"time": 186717, "pitch": 60, "duration": 1680, "velocity": 120}, {"time": 186717, "pitch": 65, "duration": 1678, "velocity": 123}, {"time": 186717, "pitch": 69, "duration": 1695, "velocity": 120}, {"time": 186958, "pitch": 53, "duration": 278, "velocity": 95}, {"time": 187199, "pitch": 41, "duration": 254, "velocity": 108}, {"time": 187439, "pitch": 53, "duration": 290, "velocity": 112}, {"time": 187680, "pitch": 41, "duration": 246, "velocity": 100}, {"time": 187921, "pitch": 53, "duration": 256, "velocity": 75}, {"time": 188162, "pitch": 41, "duration": 273, "velocity": 104}, {"time": 188403, "pitch": 53, "duration": 204, "velocity": 98}, {"time": 188644, "pitch": 41, "duration": 235, "velocity": 112}, {"time": 188644, "pitch": 60, "duration": 884, "velocity": 120}, {"time": 188644, "pitch": 65, "duration": 877, "velocity": 121}, {"time": 188644, "pitch": 69, "duration": 893, "velocity": 120}, {"time": 188880, "pitch": 53, "duration": 276, "velocity": 104}, {"time": 189116, "pitch": 41, "duration": 227, "velocity": 100}, {"time": 189357, "pitch": 53, "duration": 218, "velocity": 111}, {"time": 189598, "pitch": 41, "duration": 284, "velocity": 111}, {"time": 189598, "pitch": 60, "duration": 834, "velocity": 108}, {"time": 189598, "pitch": 64, "duration": 826, "velocity": 117}, {"time": 189598, "pitch": 67, "duration": 842, "velocity": 120}, {"time": 189839, "pitch": 53, "duration": 230, "velocity": 98}, {"time": 190079, "pitch": 41, "duration": 314, "velocity": 112}, {"time": 190320, "pitch": 53, "duration": 205, "velocity": 90}, {"time": 190561, "pitch": 41, "duration": 326, "velocity": 111}, {"time": 190561, "pitch": 62, "duration": 420, "velocity": 121}, {"time": 190561, "pitch": 65, "duration": 420, "velocity": 122}, {"time": 190561, "pitch": 70, "duration": 416, "velocity": 120}, {"time": 190802, "pitch": 53, "duration": 266, "velocity": 95}, {"time": 191043, "pitch": 41, "duration": 216, "velocity": 108}, {"time": 191043, "pitch": 62, "duration": 84, "velocity": 108}, {"time": 191043, "pitch": 65, "duration": 85, "velocity": 114}, {"time": 191043, "pitch": 70, "duration": 101, "velocity": 111}, {"time": 191284, "pitch": 53, "duration": 232, "velocity": 95}, {"time": 191284, "pitch": 60, "duration": 1020, "velocity": 112}, {"time": 191284, "pitch": 65, "duration": 1032, "velocity": 122}, {"time": 191284, "pitch": 69, "duration": 1032, "velocity": 112}, {"time": 191525, "pitch": 41, "duration": 238, "velocity": 111}, {"time": 191761, "pitch": 53, "duration": 264, "velocity": 87}, {"time": 191997, "pitch": 41, "duration": 261, "velocity": 98}, {"time": 192238, "pitch": 53, "duration": 272, "velocity": 85}, {"time": 192478, "pitch": 41, "duration": 285, "velocity": 111}, {"time": 192478, "pitch": 60, "duration": 854, "velocity": 117}, {"time": 192478, "pitch": 65, "duration": 850, "velocity": 122}, {"time": 192478, "pitch": 69, "duration": 838, "velocity": 120}, {"time": 192719, "pitch": 53, "duration": 265, "velocity": 83}, {"time": 192960, "pitch": 41, "duration": 312, "velocity": 112}, {"time": 193201, "pitch": 53, "duration": 261, "velocity": 87}, {"time": 193442, "pitch": 41, "duration": 319, "velocity": 108}, {"time": 193442, "pitch": 60, "duration": 870, "velocity": 112}, {"time": 193442, "pitch": 64, "duration": 848, "velocity": 120}, {"time": 193442, "pitch": 67, "duration": 859, "velocity": 114}, {"time": 193683, "pitch": 53, "duration": 266, "velocity": 86}, {"time": 193924, "pitch": 41, "duration": 258, "velocity": 104}, {"time": 194160, "pitch": 53, "duration": 224, "velocity": 73}, {"time": 194396, "pitch": 41, "duration": 307, "velocity": 104}, {"time": 194396, "pitch": 58, "duration": 438, "velocity": 117}, {"time": 194396, "pitch": 62, "duration": 461, "velocity": 122}, {"time": 194396, "pitch": 65, "duration": 464, "velocity": 122}, {"time": 194637, "pitch": 53, "duration": 281, "velocity": 90}, {"time": 194877, "pitch": 41, "duration": 265, "velocity": 108}, {"time": 194877, "pitch": 58, "duration": 92, "velocity": 81}, {"time": 194877, "pitch": 62, "duration": 61, "velocity": 90}, {"time": 194877, "pitch": 65, "duration": 72, "velocity": 90}, {"time": 195118, "pitch": 53, "duration": 296, "velocity": 72}, {"time": 195118, "pitch": 57, "duration": 1144, "velocity": 111}, {"time": 195118, "pitch": 60, "duration": 1072, "velocity": 114}, {"time": 195118, "pitch": 65, "duration": 1099, "velocity": 122}, {"time": 195359, "pitch": 41, "duration": 262, "velocity": 104}, {"time": 195600, "pitch": 53, "duration": 282, "velocity": 75}, {"time": 195841, "pitch": 41, "duration": 293, "velocity": 108}, {"time": 196082, "pitch": 53, "duration": 195, "velocity": 90}, {"time": 196323, "pitch": 41, "duration": 240, "velocity": 112}, {"time": 196323, "pitch": 60, "duration": 886, "velocity": 120}, {"time": 196323, "pitch": 65, "duration": 879, "velocity": 121}, {"time": 196323, "pitch": 69, "duration": 895, "velocity": 120}, {"time": 196564, "pitch": 53, "duration": 280, "velocity": 104}, {"time": 196804, "pitch": 41, "duration": 223, "velocity": 100}, {"time": 197041, "pitch": 53, "duration": 213, "velocity": 111}, {"time": 197277, "pitch": 41, "duration": 284, "velocity": 111}, {"time": 197277, "pitch": 60, "duration": 834, "velocity": 108}, {"time": 197277, "pitch": 64, "duration": 826, "velocity": 117}, {"time": 197277, "pitch": 67, "duration": 842, "velocity": 120}, {"time": 197517, "pitch": 53, "duration": 231, "velocity": 98}, {"time": 197758, "pitch": 41, "duration": 313, "velocity": 112}, {"time": 197999, "pitch": 53, "duration": 205, "velocity": 90}, {"time": 198240, "pitch": 41, "duration": 326, "velocity": 111}, {"time": 198240, "pitch": 62, "duration": 420, "velocity": 121}, {"time": 198240, "pitch": 65, "duration": 420, "velocity": 122}, {"time": 198240, "pitch": 70, "duration": 416, "velocity": 120}, {"time": 198481, "pitch": 53, "duration": 266, "velocity": 95}, {"time": 198722, "pitch": 41, "duration": 216, "velocity": 108}, {"time": 198722, "pitch": 62, "duration": 84, "velocity": 108}, {"time": 198722, "pitch": 65, "duration": 85, "velocity": 114}, {"time": 198722, "pitch": 70, "duration": 101, "velocity": 111}, {"time": 198963, "pitch": 53, "duration": 232, "velocity": 95}, {"time": 198963, "pitch": 60, "duration": 1020, "velocity": 112}, {"time": 198963, "pitch": 65, "duration": 1032, "velocity": 122}, {"time": 198963, "pitch": 69, "duration": 1032, "velocity": 112}, {"time": 199204, "pitch": 41, "duration": 238, "velocity": 111}, {"time": 199440, "pitch": 53, "duration": 264, "velocity": 87}, {"time": 199676, "pitch": 41, "duration": 261, "velocity": 98}, {"time": 199916, "pitch": 53, "duration": 272, "velocity": 85}, {"time": 200157, "pitch": 41, "duration": 285, "velocity": 111}, {"time": 200157, "pitch": 60, "duration": 853, "velocity": 117}, {"time": 200157, "pitch": 65, "duration": 849, "velocity": 122}, {"time": 200157, "pitch": 69, "duration": 837, "velocity": 120}, {"time": 200398, "pitch": 53, "duration": 265, "velocity": 83}, {"time": 200639, "pitch": 41, "duration": 312, "velocity": 112}, {"time": 200880, "pitch": 53, "duration": 261, "velocity": 87}, {"time": 201121, "pitch": 41, "duration": 319, "velocity": 108}, {"time": 201121, "pitch": 60, "duration": 878, "velocity": 112}, {"time": 201121, "pitch": 64, "duration": 855, "velocity": 120}, {"time": 201121, "pitch": 67, "duration": 867, "velocity": 114}, {"time": 201362, "pitch": 53, "duration": 267, "velocity": 86}, {"time": 201603, "pitch": 41, "duration": 264, "velocity": 104}, {"time": 201843, "pitch": 53, "duration": 229, "velocity": 73}, {"time": 202084, "pitch": 41, "duration": 301, "velocity": 104}, {"time": 202084, "pitch": 58, "duration": 430, "velocity": 117}, {"time": 202084, "pitch": 62, "duration": 453, "velocity": 122}, {"time": 202084, "pitch": 65, "duration": 456, "velocity": 122}, {"time": 202320, "pitch": 53, "duration": 276, "velocity": 90}, {"time": 202556, "pitch": 41, "duration": 265, "velocity": 108}, {"time": 202556, "pitch": 58, "duration": 92, "velocity": 81}, {"time": 202556, "pitch": 62, "duration": 61, "velocity": 90}, {"time": 202556, "pitch": 65, "duration": 72, "velocity": 90}, {"time": 202797, "pitch": 53, "duration": 296, "velocity": 72}, {"time": 202797, "pitch": 57, "duration": 1143, "velocity": 111}, {"time": 202797, "pitch": 60, "duration": 1072, "velocity": 114}, {"time": 202797, "pitch": 65, "duration": 1099, "velocity": 122}, {"time": 203038, "pitch": 41, "duration": 262, "velocity": 104}, {"time": 203279, "pitch": 53, "duration": 282, "velocity": 75}, {"time": 203520, "pitch": 41, "duration": 293, "velocity": 108}, {"time": 203761, "pitch": 53, "duration": 194, "velocity": 90}, {"time": 204002, "pitch": 41, "duration": 240, "velocity": 112}, {"time": 204002, "pitch": 60, "duration": 886, "velocity": 120}, {"time": 204002, "pitch": 65, "duration": 879, "velocity": 121}, {"time": 204002, "pitch": 69, "duration": 894, "velocity": 120}, {"time": 204243, "pitch": 53, "duration": 280, "velocity": 104}, {"time": 204483, "pitch": 41, "duration": 223, "velocity": 100}, {"time": 204719, "pitch": 53, "duration": 214, "velocity": 111}, {"time": 204955, "pitch": 41, "duration": 284, "velocity": 111}, {"time": 204955, "pitch": 60, "duration": 834, "velocity": 108}, {"time": 204955, "pitch": 64, "duration": 826, "velocity": 117}, {"time": 204955, "pitch": 67, "duration": 842, "velocity": 120}, {"time": 205196, "pitch": 53, "duration": 231, "velocity": 98}, {"time": 205437, "pitch": 41, "duration": 313, "velocity": 112}, {"time": 205678, "pitch": 53, "duration": 205, "velocity": 90}, {"time": 205919, "pitch": 41, "duration": 326, "velocity": 111}, {"time": 205919, "pitch": 62, "duration": 419, "velocity": 121}, {"time": 205919, "pitch": 65, "duration": 419, "velocity": 122}, {"time": 205919, "pitch": 70, "duration": 415, "velocity": 120}, {"time": 206160, "pitch": 53, "duration": 266, "velocity": 95}, {"time": 206401, "pitch": 41, "duration": 215, "velocity": 108}, {"time": 206401, "pitch": 62, "duration": 84, "velocity": 108}, {"time": 206401, "pitch": 65, "duration": 85, "velocity": 114}, {"time": 206401, "pitch": 70, "duration": 101, "velocity": 111}, {"time": 206642, "pitch": 53, "duration": 231, "velocity": 95}, {"time": 206642, "pitch": 60, "duration": 1023, "velocity": 112}, {"time": 206642, "pitch": 65, "duration": 1035, "velocity": 122}, {"time": 206642, "pitch": 69, "duration": 1035, "velocity": 112}, {"time": 206882, "pitch": 41, "duration": 243, "velocity": 111}, {"time": 207123, "pitch": 53, "duration": 269, "velocity": 87}, {"time": 207364, "pitch": 41, "duration": 256, "velocity": 98}, {"time": 207600, "pitch": 53, "duration": 267, "velocity": 85}, {"time": 207836, "pitch": 41, "duration": 285, "velocity": 111}, {"time": 207836, "pitch": 60, "duration": 853, "velocity": 117}, {"time": 207836, "pitch": 65, "duration": 849, "velocity": 122}, {"time": 207836, "pitch": 69, "duration": 837, "velocity": 120}, {"time": 208077, "pitch": 53, "duration": 265, "velocity": 83}, {"time": 208318, "pitch": 41, "duration": 312, "velocity": 112}, {"time": 208559, "pitch": 53, "duration": 261, "velocity": 87}, {"time": 208800, "pitch": 41, "duration": 319, "velocity": 108}, {"time": 208800, "pitch": 60, "duration": 878, "velocity": 112}, {"time": 208800, "pitch": 64, "duration": 855, "velocity": 120}, {"time": 208800, "pitch": 67, "duration": 867, "velocity": 114}, {"time": 209041, "pitch": 53, "duration": 267, "velocity": 86}, {"time": 209281, "pitch": 41, "duration": 264, "velocity": 104}, {"time": 209522, "pitch": 53, "duration": 229, "velocity": 73}, {"time": 209763, "pitch": 41, "duration": 301, "velocity": 104}, {"time": 209763, "pitch": 58, "duration": 430, "velocity": 117}, {"time": 209763, "pitch": 62, "duration": 453, "velocity": 122}, {"time": 209763, "pitch": 65, "duration": 456, "velocity": 122}, {"time": 209999, "pitch": 53, "duration": 276, "velocity": 90}, {"time": 210235, "pitch": 41, "duration": 265, "velocity": 108}, {"time": 210235, "pitch": 58, "duration": 92, "velocity": 81}, {"time": 210235, "pitch": 62, "duration": 60, "velocity": 90}, {"time": 210235, "pitch": 65, "duration": 71, "velocity": 90}, {"time": 210476, "pitch": 53, "duration": 296, "velocity": 72}, {"time": 210476, "pitch": 57, "duration": 1143, "velocity": 111}, {"time": 210476, "pitch": 60, "duration": 1072, "velocity": 114}, {"time": 210476, "pitch": 65, "duration": 1099, "velocity": 122}, {"time": 210717, "pitch": 41, "duration": 262, "velocity": 104}, {"time": 210958, "pitch": 53, "duration": 282, "velocity": 75}, {"time": 211199, "pitch": 41, "duration": 293, "velocity": 108}, {"time": 211440, "pitch": 53, "duration": 194, "velocity": 90}, {"time": 211681, "pitch": 41, "duration": 239, "velocity": 112}, {"time": 211681, "pitch": 60, "duration": 894, "velocity": 120}, {"time": 211681, "pitch": 65, "duration": 887, "velocity": 121}, {"time": 211681, "pitch": 69, "duration": 903, "velocity": 120}, {"time": 211921, "pitch": 53, "duration": 281, "velocity": 104}, {"time": 212162, "pitch": 41, "duration": 227, "velocity": 100}, {"time": 212403, "pitch": 53, "duration": 218, "velocity": 111}, {"time": 212644, "pitch": 41, "duration": 278, "velocity": 111}, {"time": 212644, "pitch": 60, "duration": 824, "velocity": 108}, {"time": 212644, "pitch": 64, "duration": 816, "velocity": 117}, {"time": 212644, "pitch": 67, "duration": 832, "velocity": 120}, {"time": 212880, "pitch": 53, "duration": 226, "velocity": 98}, {"time": 213116, "pitch": 41, "duration": 313, "velocity": 112}, {"time": 213357, "pitch": 53, "duration": 205, "velocity": 90}, {"time": 213598, "pitch": 41, "duration": 326, "velocity": 111}, {"time": 213598, "pitch": 62, "duration": 419, "velocity": 121}, {"time": 213598, "pitch": 65, "duration": 419, "velocity": 122}, {"time": 213598, "pitch": 70, "duration": 415, "velocity": 120}, {"time": 213839, "pitch": 53, "duration": 266, "velocity": 95}, {"time": 214080, "pitch": 41, "duration": 215, "velocity": 108}, {"time": 214080, "pitch": 62, "duration": 84, "velocity": 108}, {"time": 214080, "pitch": 65, "duration": 85, "velocity": 114}, {"time": 214080, "pitch": 70, "duration": 101, "velocity": 111}, {"time": 214320, "pitch": 53, "duration": 232, "velocity": 95}, {"time": 214320, "pitch": 60, "duration": 181, "velocity": 112}, {"time": 214320, "pitch": 65, "duration": 181, "velocity": 122}, {"time": 214320, "pitch": 69, "duration": 181, "velocity": 112}, {"time": 8156, "pitch": 29, "duration": 266, "velocity": 114}, {"time": 8397, "pitch": 41, "duration": 312, "velocity": 68}, {"time": 8638, "pitch": 29, "duration": 259, "velocity": 111}, {"time": 8879, "pitch": 41, "duration": 301, "velocity": 63}, {"time": 9120, "pitch": 29, "duration": 255, "velocity": 108}, {"time": 9361, "pitch": 41, "duration": 244, "velocity": 67}, {"time": 9601, "pitch": 29, "duration": 249, "velocity": 104}, {"time": 9842, "pitch": 41, "duration": 249, "velocity": 71}, {"time": 10083, "pitch": 29, "duration": 252, "velocity": 108}, {"time": 10319, "pitch": 41, "duration": 302, "velocity": 61}, {"time": 10555, "pitch": 29, "duration": 261, "velocity": 108}, {"time": 10796, "pitch": 41, "duration": 285, "velocity": 66}, {"time": 11037, "pitch": 29, "duration": 270, "velocity": 100}, {"time": 11278, "pitch": 41, "duration": 309, "velocity": 61}, {"time": 11519, "pitch": 29, "duration": 262, "velocity": 95}, {"time": 11760, "pitch": 41, "duration": 283, "velocity": 58}, {"time": 12000, "pitch": 29, "duration": 262, "velocity": 100}, {"time": 12241, "pitch": 41, "duration": 284, "velocity": 65}, {"time": 12482, "pitch": 29, "duration": 287, "velocity": 100}, {"time": 12723, "pitch": 41, "duration": 274, "velocity": 65}, {"time": 12964, "pitch": 29, "duration": 268, "velocity": 100}, {"time": 13200, "pitch": 41, "duration": 295, "velocity": 66}, {"time": 13436, "pitch": 29, "duration": 265, "velocity": 95}, {"time": 13677, "pitch": 41, "duration": 294, "velocity": 59}, {"time": 13918, "pitch": 29, "duration": 269, "velocity": 111}, {"time": 14159, "pitch": 41, "duration": 290, "velocity": 66}, {"time": 14400, "pitch": 29, "duration": 279, "velocity": 93}, {"time": 14640, "pitch": 41, "duration": 309, "velocity": 65}, {"time": 14881, "pitch": 29, "duration": 275, "velocity": 86}, {"time": 15122, "pitch": 41, "duration": 301, "velocity": 65}, {"time": 15363, "pitch": 29, "duration": 296, "velocity": 85}, {"time": 15604, "pitch": 41, "duration": 236, "velocity": 74}, {"time": 15845, "pitch": 29, "duration": 260, "velocity": 114}, {"time": 16081, "pitch": 41, "duration": 307, "velocity": 68}, {"time": 16317, "pitch": 29, "duration": 259, "velocity": 111}, {"time": 16558, "pitch": 41, "duration": 301, "velocity": 63}, {"time": 16799, "pitch": 29, "duration": 254, "velocity": 108}, {"time": 17039, "pitch": 41, "duration": 245, "velocity": 67}, {"time": 17280, "pitch": 29, "duration": 249, "velocity": 104}, {"time": 17521, "pitch": 41, "duration": 249, "velocity": 71}, {"time": 17762, "pitch": 29, "duration": 257, "velocity": 108}, {"time": 18003, "pitch": 41, "duration": 306, "velocity": 61}, {"time": 18244, "pitch": 29, "duration": 256, "velocity": 108}, {"time": 18480, "pitch": 41, "duration": 280, "velocity": 66}, {"time": 18716, "pitch": 29, "duration": 270, "velocity": 100}, {"time": 18957, "pitch": 41, "duration": 309, "velocity": 61}, {"time": 19198, "pitch": 29, "duration": 262, "velocity": 95}, {"time": 19438, "pitch": 41, "duration": 284, "velocity": 58}, {"time": 19679, "pitch": 29, "duration": 262, "velocity": 100}, {"time": 19920, "pitch": 41, "duration": 284, "velocity": 65}, {"time": 20161, "pitch": 29, "duration": 287, "velocity": 100}, {"time": 20402, "pitch": 41, "duration": 275, "velocity": 65}, {"time": 20643, "pitch": 29, "duration": 274, "velocity": 100}, {"time": 20884, "pitch": 41, "duration": 299, "velocity": 66}, {"time": 21125, "pitch": 29, "duration": 259, "velocity": 95}, {"time": 21361, "pitch": 41, "duration": 289, "velocity": 59}, {"time": 21597, "pitch": 29, "duration": 269, "velocity": 111}, {"time": 21837, "pitch": 41, "duration": 291, "velocity": 66}, {"time": 22078, "pitch": 29, "duration": 279, "velocity": 93}, {"time": 22319, "pitch": 41, "duration": 308, "velocity": 65}, {"time": 22560, "pitch": 29, "duration": 275, "velocity": 86}, {"time": 22801, "pitch": 41, "duration": 301, "velocity": 65}, {"time": 23042, "pitch": 29, "duration": 296, "velocity": 85}, {"time": 23283, "pitch": 41, "duration": 236, "velocity": 74}, {"time": 23524, "pitch": 29, "duration": 260, "velocity": 114}, {"time": 23760, "pitch": 41, "duration": 307, "velocity": 68}, {"time": 23996, "pitch": 29, "duration": 259, "velocity": 111}, {"time": 24237, "pitch": 41, "duration": 301, "velocity": 63}, {"time": 24477, "pitch": 29, "duration": 255, "velocity": 108}, {"time": 24718, "pitch": 41, "duration": 245, "velocity": 67}, {"time": 24959, "pitch": 29, "duration": 249, "velocity": 104}, {"time": 25200, "pitch": 41, "duration": 249, "velocity": 71}, {"time": 25441, "pitch": 29, "duration": 257, "velocity": 108}, {"time": 25682, "pitch": 41, "duration": 307, "velocity": 61}, {"time": 25923, "pitch": 29, "duration": 261, "velocity": 108}, {"time": 26164, "pitch": 41, "duration": 284, "velocity": 66}, {"time": 26404, "pitch": 29, "duration": 265, "velocity": 100}, {"time": 26640, "pitch": 41, "duration": 305, "velocity": 61}, {"time": 26877, "pitch": 29, "duration": 261, "velocity": 95}, {"time": 27117, "pitch": 41, "duration": 283, "velocity": 58}, {"time": 27358, "pitch": 29, "duration": 262, "velocity": 100}, {"time": 27599, "pitch": 41, "duration": 284, "velocity": 65}, {"time": 27840, "pitch": 29, "duration": 287, "velocity": 100}, {"time": 28081, "pitch": 41, "duration": 275, "velocity": 65}, {"time": 28322, "pitch": 29, "duration": 274, "velocity": 100}, {"time": 28563, "pitch": 41, "duration": 298, "velocity": 66}, {"time": 28803, "pitch": 29, "duration": 260, "velocity": 95}, {"time": 29040, "pitch": 41, "duration": 289, "velocity": 59}, {"time": 29276, "pitch": 29, "duration": 268, "velocity": 111}, {"time": 29516, "pitch": 41, "duration": 290, "velocity": 66}, {"time": 29757, "pitch": 29, "duration": 279, "velocity": 93}, {"time": 29998, "pitch": 41, "duration": 308, "velocity": 65}, {"time": 30239, "pitch": 29, "duration": 275, "velocity": 86}, {"time": 30480, "pitch": 41, "duration": 301, "velocity": 65}, {"time": 30721, "pitch": 29, "duration": 296, "velocity": 85}, {"time": 30962, "pitch": 41, "duration": 236, "velocity": 74}, {"time": 31203, "pitch": 29, "duration": 266, "velocity": 114}, {"time": 31443, "pitch": 41, "duration": 311, "velocity": 68}, {"time": 31684, "pitch": 29, "duration": 254, "velocity": 111}, {"time": 31920, "pitch": 41, "duration": 297, "velocity": 63}, {"time": 32156, "pitch": 29, "duration": 255, "velocity": 108}, {"time": 32397, "pitch": 41, "duration": 245, "velocity": 67}, {"time": 32638, "pitch": 29, "duration": 249, "velocity": 104}, {"time": 32879, "pitch": 41, "duration": 249, "velocity": 71}, {"time": 33120, "pitch": 29, "duration": 257, "velocity": 108}, {"time": 33361, "pitch": 41, "duration": 307, "velocity": 61}, {"time": 33602, "pitch": 29, "duration": 261, "velocity": 108}, {"time": 33842, "pitch": 41, "duration": 285, "velocity": 66}, {"time": 34083, "pitch": 29, "duration": 265, "velocity": 100}, {"time": 34319, "pitch": 41, "duration": 305, "velocity": 61}, {"time": 34555, "pitch": 29, "duration": 262, "velocity": 95}, {"time": 34796, "pitch": 41, "duration": 283, "velocity": 58}, {"time": 35037, "pitch": 29, "duration": 262, "velocity": 100}, {"time": 35278, "pitch": 41, "duration": 284, "velocity": 65}, {"time": 35519, "pitch": 29, "duration": 287, "velocity": 100}, {"time": 35760, "pitch": 41, "duration": 275, "velocity": 65}, {"time": 36001, "pitch": 29, "duration": 274, "velocity": 100}, {"time": 36242, "pitch": 41, "duration": 300, "velocity": 66}, {"time": 36482, "pitch": 29, "duration": 265, "velocity": 95}, {"time": 36723, "pitch": 41, "duration": 293, "velocity": 59}, {"time": 36964, "pitch": 36, "duration": 264, "velocity": 111}, {"time": 37200, "pitch": 48, "duration": 285, "velocity": 66}, {"time": 37436, "pitch": 36, "duration": 279, "velocity": 93}, {"time": 37677, "pitch": 48, "duration": 308, "velocity": 65}, {"time": 37918, "pitch": 36, "duration": 275, "velocity": 86}, {"time": 38159, "pitch": 48, "duration": 301, "velocity": 65}, {"time": 38400, "pitch": 36, "duration": 296, "velocity": 85}, {"time": 38641, "pitch": 48, "duration": 235, "velocity": 74}, {"time": 38881, "pitch": 29, "duration": 266, "velocity": 114}, {"time": 39122, "pitch": 41, "duration": 311, "velocity": 68}, {"time": 39363, "pitch": 29, "duration": 254, "velocity": 111}, {"time": 39599, "pitch": 41, "duration": 296, "velocity": 63}, {"time": 39835, "pitch": 29, "duration": 255, "velocity": 108}, {"time": 40076, "pitch": 41, "duration": 245, "velocity": 67}, {"time": 40317, "pitch": 29, "duration": 249, "velocity": 104}, {"time": 40558, "pitch": 41, "duration": 249, "velocity": 71}, {"time": 40799, "pitch": 29, "duration": 257, "velocity": 108}, {"time": 41040, "pitch": 41, "duration": 307, "velocity": 61}, {"time": 41280, "pitch": 29, "duration": 261, "velocity": 108}, {"time": 41521, "pitch": 41, "duration": 285, "velocity": 66}, {"time": 41762, "pitch": 29, "duration": 270, "velocity": 100}, {"time": 42003, "pitch": 41, "duration": 308, "velocity": 61}, {"time": 42244, "pitch": 29, "duration": 257, "velocity": 95}, {"time": 42480, "pitch": 41, "duration": 278, "velocity": 58}, {"time": 42716, "pitch": 29, "duration": 262, "velocity": 100}, {"time": 42957, "pitch": 41, "duration": 284, "velocity": 65}, {"time": 43198, "pitch": 29, "duration": 287, "velocity": 100}, {"time": 43439, "pitch": 41, "duration": 275, "velocity": 65}, {"time": 43679, "pitch": 29, "duration": 274, "velocity": 100}, {"time": 43920, "pitch": 41, "duration": 300, "velocity": 66}, {"time": 44161, "pitch": 29, "duration": 265, "velocity": 95}, {"time": 44402, "pitch": 41, "duration": 294, "velocity": 59}, {"time": 44643, "pitch": 36, "duration": 269, "velocity": 111}, {"time": 44884, "pitch": 48, "duration": 289, "velocity": 66}, {"time": 45125, "pitch": 36, "duration": 273, "velocity": 93}, {"time": 45361, "pitch": 48, "duration": 303, "velocity": 65}, {"time": 45597, "pitch": 36, "duration": 275, "velocity": 86}, {"time": 45838, "pitch": 48, "duration": 301, "velocity": 65}, {"time": 46079, "pitch": 36, "duration": 296, "velocity": 85}, {"time": 46319, "pitch": 48, "duration": 236, "velocity": 74}, {"time": 46560, "pitch": 34, "duration": 165, "velocity": 121}, {"time": 46801, "pitch": 34, "duration": 142, "velocity": 108}, {"time": 47042, "pitch": 34, "duration": 139, "velocity": 117}, {"time": 47283, "pitch": 34, "duration": 446, "velocity": 122}, {"time": 47760, "pitch": 34, "duration": 136, "velocity": 108}, {"time": 47996, "pitch": 34, "duration": 206, "velocity": 121}, {"time": 48237, "pitch": 36, "duration": 197, "velocity": 93}, {"time": 48478, "pitch": 33, "duration": 179, "velocity": 117}, {"time": 48718, "pitch": 33, "duration": 160, "velocity": 95}, {"time": 48959, "pitch": 33, "duration": 148, "velocity": 120}, {"time": 49200, "pitch": 33, "duration": 432, "velocity": 122}, {"time": 49682, "pitch": 33, "duration": 139, "velocity": 111}, {"time": 49923, "pitch": 33, "duration": 172, "velocity": 121}, {"time": 50164, "pitch": 33, "duration": 186, "velocity": 81}, {"time": 50405, "pitch": 31, "duration": 190, "velocity": 111}, {"time": 50641, "pitch": 31, "duration": 148, "velocity": 98}, {"time": 50877, "pitch": 31, "duration": 169, "velocity": 95}, {"time": 51117, "pitch": 31, "duration": 403, "velocity": 121}, {"time": 51599, "pitch": 31, "duration": 174, "velocity": 104}, {"time": 51840, "pitch": 31, "duration": 159, "velocity": 108}, {"time": 52081, "pitch": 31, "duration": 207, "velocity": 81}, {"time": 52322, "pitch": 29, "duration": 211, "velocity": 111}, {"time": 52563, "pitch": 29, "duration": 159, "velocity": 104}, {"time": 52804, "pitch": 29, "duration": 153, "velocity": 111}, {"time": 53040, "pitch": 29, "duration": 468, "velocity": 111}, {"time": 53517, "pitch": 36, "duration": 212, "velocity": 111}, {"time": 53757, "pitch": 41, "duration": 209, "velocity": 111}, {"time": 53998, "pitch": 29, "duration": 231, "velocity": 71}, {"time": 54239, "pitch": 34, "duration": 200, "velocity": 122}, {"time": 54480, "pitch": 34, "duration": 162, "velocity": 117}, {"time": 54721, "pitch": 34, "duration": 158, "velocity": 117}, {"time": 54962, "pitch": 34, "duration": 414, "velocity": 122}, {"time": 55444, "pitch": 34, "duration": 159, "velocity": 114}, {"time": 55684, "pitch": 36, "duration": 257, "velocity": 108}, {"time": 55920, "pitch": 34, "duration": 187, "velocity": 111}, {"time": 56157, "pitch": 33, "duration": 203, "velocity": 114}, {"time": 56397, "pitch": 33, "duration": 153, "velocity": 100}, {"time": 56638, "pitch": 33, "duration": 159, "velocity": 117}, {"time": 56879, "pitch": 33, "duration": 126, "velocity": 100}, {"time": 57120, "pitch": 33, "duration": 275, "velocity": 108}, {"time": 57361, "pitch": 36, "duration": 214, "velocity": 104}, {"time": 57602, "pitch": 41, "duration": 253, "velocity": 111}, {"time": 57843, "pitch": 33, "duration": 204, "velocity": 83}, {"time": 58083, "pitch": 31, "duration": 212, "velocity": 112}, {"time": 58319, "pitch": 31, "duration": 164, "velocity": 93}, {"time": 58556, "pitch": 31, "duration": 153, "velocity": 111}, {"time": 58796, "pitch": 31, "duration": 412, "velocity": 100}, {"time": 59278, "pitch": 31, "duration": 204, "velocity": 100}, {"time": 59519, "pitch": 31, "duration": 166, "velocity": 85}, {"time": 59760, "pitch": 31, "duration": 169, "velocity": 93}, {"time": 60001, "pitch": 31, "duration": 187, "velocity": 111}, {"time": 60242, "pitch": 31, "duration": 160, "velocity": 83}, {"time": 60483, "pitch": 31, "duration": 155, "velocity": 100}, {"time": 60723, "pitch": 31, "duration": 159, "velocity": 95}, {"time": 60964, "pitch": 31, "duration": 189, "velocity": 104}, {"time": 61200, "pitch": 31, "duration": 149, "velocity": 81}, {"time": 61436, "pitch": 31, "duration": 163, "velocity": 112}, {"time": 61677, "pitch": 31, "duration": 190, "velocity": 86}, {"time": 61918, "pitch": 36, "duration": 197, "velocity": 117}, {"time": 62159, "pitch": 36, "duration": 154, "velocity": 100}, {"time": 62400, "pitch": 36, "duration": 182, "velocity": 114}, {"time": 62641, "pitch": 31, "duration": 403, "velocity": 111}, {"time": 63122, "pitch": 36, "duration": 230, "velocity": 108}, {"time": 63363, "pitch": 31, "duration": 175, "velocity": 111}, {"time": 63599, "pitch": 36, "duration": 229, "velocity": 120}, {"time": 63835, "pitch": 41, "duration": 201, "velocity": 122}, {"time": 64076, "pitch": 41, "duration": 181, "velocity": 93}, {"time": 64317, "pitch": 41, "duration": 181, "velocity": 117}, {"time": 64558, "pitch": 41, "duration": 221, "velocity": 104}, {"time": 64799, "pitch": 40, "duration": 175, "velocity": 117}, {"time": 65040, "pitch": 40, "duration": 143, "velocity": 108}, {"time": 65281, "pitch": 40, "duration": 220, "velocity": 122}, {"time": 65521, "pitch": 38, "duration": 482, "velocity": 122}, {"time": 66003, "pitch": 41, "duration": 231, "velocity": 112}, {"time": 66244, "pitch": 46, "duration": 235, "velocity": 120}, {"time": 66480, "pitch": 38, "duration": 177, "velocity": 100}, {"time": 66716, "pitch": 38, "duration": 401, "velocity": 121}, {"time": 67198, "pitch": 36, "duration": 427, "velocity": 117}, {"time": 67680, "pitch": 41, "duration": 200, "velocity": 117}, {"time": 67921, "pitch": 41, "duration": 190, "velocity": 100}, {"time": 68161, "pitch": 41, "duration": 181, "velocity": 112}, {"time": 68402, "pitch": 41, "duration": 221, "velocity": 100}, {"time": 68643, "pitch": 40, "duration": 226, "velocity": 112}, {"time": 68879, "pitch": 48, "duration": 233, "velocity": 104}, {"time": 69115, "pitch": 40, "duration": 231, "velocity": 117}, {"time": 69356, "pitch": 38, "duration": 462, "velocity": 123}, {"time": 69838, "pitch": 41, "duration": 231, "velocity": 112}, {"time": 70079, "pitch": 46, "duration": 234, "velocity": 117}, {"time": 70320, "pitch": 38, "duration": 160, "velocity": 104}, {"time": 70560, "pitch": 38, "duration": 426, "velocity": 122}, {"time": 71042, "pitch": 36, "duration": 441, "velocity": 122}, {"time": 71524, "pitch": 41, "duration": 197, "velocity": 117}, {"time": 71760, "pitch": 41, "duration": 177, "velocity": 112}, {"time": 71996, "pitch": 41, "duration": 181, "velocity": 117}, {"time": 72237, "pitch": 41, "duration": 231, "velocity": 114}, {"time": 72478, "pitch": 40, "duration": 231, "velocity": 112}, {"time": 72719, "pitch": 48, "duration": 230, "velocity": 98}, {"time": 72959, "pitch": 40, "duration": 231, "velocity": 108}, {"time": 73200, "pitch": 38, "duration": 482, "velocity": 123}, {"time": 73682, "pitch": 41, "duration": 231, "velocity": 111}, {"time": 73923, "pitch": 46, "duration": 231, "velocity": 114}, {"time": 74164, "pitch": 50, "duration": 165, "velocity": 104}, {"time": 74405, "pitch": 50, "duration": 424, "velocity": 121}, {"time": 74877, "pitch": 48, "duration": 474, "velocity": 121}, {"time": 75359, "pitch": 37, "duration": 240, "velocity": 122}, {"time": 75599, "pitch": 44, "duration": 241, "velocity": 98}, {"time": 75840, "pitch": 37, "duration": 241, "velocity": 112}, {"time": 76081, "pitch": 32, "duration": 241, "velocity": 104}, {"time": 76322, "pitch": 39, "duration": 241, "velocity": 117}, {"time": 76563, "pitch": 34, "duration": 241, "velocity": 100}, {"time": 76804, "pitch": 39, "duration": 196, "velocity": 98}, {"time": 77040, "pitch": 39, "duration": 236, "velocity": 120}, {"time": 77276, "pitch": 41, "duration": 241, "velocity": 111}, {"time": 77517, "pitch": 36, "duration": 218, "velocity": 93}, {"time": 77758, "pitch": 29, "duration": 216, "velocity": 100}, {"time": 77998, "pitch": 41, "duration": 406, "velocity": 120}, {"time": 78480, "pitch": 41, "duration": 241, "velocity": 98}, {"time": 78721, "pitch": 36, "duration": 214, "velocity": 111}, {"time": 78962, "pitch": 29, "duration": 241, "velocity": 85}, {"time": 79203, "pitch": 29, "duration": 266, "velocity": 114}, {"time": 79444, "pitch": 41, "duration": 310, "velocity": 68}, {"time": 79685, "pitch": 29, "duration": 253, "velocity": 111}, {"time": 79921, "pitch": 41, "duration": 296, "velocity": 63}, {"time": 80157, "pitch": 29, "duration": 255, "velocity": 108}, {"time": 80397, "pitch": 41, "duration": 245, "velocity": 67}, {"time": 80638, "pitch": 29, "duration": 249, "velocity": 104}, {"time": 80879, "pitch": 41, "duration": 249, "velocity": 71}, {"time": 81120, "pitch": 29, "duration": 257, "velocity": 108}, {"time": 81361, "pitch": 41, "duration": 307, "velocity": 61}, {"time": 81602, "pitch": 29, "duration": 261, "velocity": 108}, {"time": 81843, "pitch": 41, "duration": 284, "velocity": 66}, {"time": 82084, "pitch": 29, "duration": 264, "velocity": 100}, {"time": 82320, "pitch": 41, "duration": 304, "velocity": 61}, {"time": 82556, "pitch": 29, "duration": 262, "velocity": 95}, {"time": 82796, "pitch": 41, "duration": 284, "velocity": 58}, {"time": 83037, "pitch": 29, "duration": 262, "velocity": 100}, {"time": 83278, "pitch": 41, "duration": 284, "velocity": 65}, {"time": 83519, "pitch": 29, "duration": 287, "velocity": 100}, {"time": 83760, "pitch": 41, "duration": 275, "velocity": 65}, {"time": 84001, "pitch": 29, "duration": 274, "velocity": 100}, {"time": 84242, "pitch": 41, "duration": 300, "velocity": 66}, {"time": 84483, "pitch": 29, "duration": 265, "velocity": 95}, {"time": 84724, "pitch": 41, "duration": 292, "velocity": 59}, {"time": 84964, "pitch": 29, "duration": 264, "velocity": 111}, {"time": 85200, "pitch": 41, "duration": 286, "velocity": 66}, {"time": 85436, "pitch": 29, "duration": 279, "velocity": 93}, {"time": 85677, "pitch": 41, "duration": 308, "velocity": 65}, {"time": 85918, "pitch": 29, "duration": 275, "velocity": 86}, {"time": 86159, "pitch": 41, "duration": 301, "velocity": 65}, {"time": 86400, "pitch": 29, "duration": 296, "velocity": 85}, {"time": 86641, "pitch": 41, "duration": 236, "velocity": 74}, {"time": 86882, "pitch": 29, "duration": 266, "velocity": 114}, {"time": 87123, "pitch": 41, "duration": 310, "velocity": 68}, {"time": 87363, "pitch": 29, "duration": 254, "velocity": 111}, {"time": 87599, "pitch": 41, "duration": 297, "velocity": 63}, {"time": 87836, "pitch": 29, "duration": 254, "velocity": 108}, {"time": 88076, "pitch": 41, "duration": 245, "velocity": 67}, {"time": 88317, "pitch": 29, "duration": 249, "velocity": 104}, {"time": 88558, "pitch": 41, "duration": 249, "velocity": 71}, {"time": 88799, "pitch": 29, "duration": 257, "velocity": 108}, {"time": 89040, "pitch": 41, "duration": 307, "velocity": 61}, {"time": 89281, "pitch": 29, "duration": 261, "velocity": 108}, {"time": 89522, "pitch": 41, "duration": 285, "velocity": 66}, {"time": 89763, "pitch": 29, "duration": 270, "velocity": 100}, {"time": 90003, "pitch": 41, "duration": 308, "velocity": 61}, {"time": 90244, "pitch": 29, "duration": 257, "velocity": 95}, {"time": 90480, "pitch": 41, "duration": 278, "velocity": 58}, {"time": 90716, "pitch": 29, "duration": 262, "velocity": 100}, {"time": 90957, "pitch": 41, "duration": 284, "velocity": 65}, {"time": 91198, "pitch": 29, "duration": 287, "velocity": 100}, {"time": 91439, "pitch": 41, "duration": 275, "velocity": 65}, {"time": 91680, "pitch": 29, "duration": 274, "velocity": 100}, {"time": 91921, "pitch": 41, "duration": 300, "velocity": 66}, {"time": 92162, "pitch": 29, "duration": 265, "velocity": 95}, {"time": 92402, "pitch": 41, "duration": 293, "velocity": 59}, {"time": 92643, "pitch": 36, "duration": 264, "velocity": 111}, {"time": 92879, "pitch": 48, "duration": 285, "velocity": 66}, {"time": 93115, "pitch": 36, "duration": 279, "velocity": 93}, {"time": 93356, "pitch": 48, "duration": 308, "velocity": 65}, {"time": 93597, "pitch": 36, "duration": 275, "velocity": 86}, {"time": 93838, "pitch": 48, "duration": 301, "velocity": 65}, {"time": 94079, "pitch": 36, "duration": 296, "velocity": 85}, {"time": 94320, "pitch": 48, "duration": 236, "velocity": 74}, {"time": 94561, "pitch": 29, "duration": 266, "velocity": 114}, {"time": 94801, "pitch": 41, "duration": 313, "velocity": 68}, {"time": 95042, "pitch": 29, "duration": 259, "velocity": 111}, {"time": 95283, "pitch": 41, "duration": 300, "velocity": 63}, {"time": 95524, "pitch": 29, "duration": 250, "velocity": 108}, {"time": 95760, "pitch": 41, "duration": 240, "velocity": 67}, {"time": 95996, "pitch": 29, "duration": 249, "velocity": 104}, {"time": 96237, "pitch": 41, "duration": 249, "velocity": 71}, {"time": 96478, "pitch": 29, "duration": 257, "velocity": 108}, {"time": 96719, "pitch": 41, "duration": 307, "velocity": 61}, {"time": 96960, "pitch": 29, "duration": 261, "velocity": 108}, {"time": 97201, "pitch": 41, "duration": 285, "velocity": 66}, {"time": 97441, "pitch": 29, "duration": 270, "velocity": 100}, {"time": 97682, "pitch": 41, "duration": 308, "velocity": 61}, {"time": 97923, "pitch": 29, "duration": 257, "velocity": 95}, {"time": 98159, "pitch": 41, "duration": 278, "velocity": 58}, {"time": 98395, "pitch": 29, "duration": 262, "velocity": 100}, {"time": 98636, "pitch": 41, "duration": 284, "velocity": 65}, {"time": 98877, "pitch": 29, "duration": 287, "velocity": 100}, {"time": 99118, "pitch": 41, "duration": 275, "velocity": 65}, {"time": 99359, "pitch": 29, "duration": 274, "velocity": 100}, {"time": 99600, "pitch": 41, "duration": 300, "velocity": 66}, {"time": 99840, "pitch": 29, "duration": 265, "velocity": 95}, {"time": 100081, "pitch": 41, "duration": 294, "velocity": 59}, {"time": 100322, "pitch": 36, "duration": 269, "velocity": 111}, {"time": 100563, "pitch": 48, "duration": 289, "velocity": 66}, {"time": 100804, "pitch": 36, "duration": 273, "velocity": 93}, {"time": 101040, "pitch": 48, "duration": 303, "velocity": 65}, {"time": 101276, "pitch": 36, "duration": 275, "velocity": 86}, {"time": 101517, "pitch": 48, "duration": 301, "velocity": 65}, {"time": 101758, "pitch": 36, "duration": 296, "velocity": 85}, {"time": 101999, "pitch": 48, "duration": 235, "velocity": 74}, {"time": 102239, "pitch": 34, "duration": 165, "velocity": 121}, {"time": 102480, "pitch": 34, "duration": 142, "velocity": 108}, {"time": 102721, "pitch": 34, "duration": 139, "velocity": 117}, {"time": 102962, "pitch": 34, "duration": 451, "velocity": 122}, {"time": 103444, "pitch": 34, "duration": 138, "velocity": 108}, {"time": 103685, "pitch": 34, "duration": 201, "velocity": 121}, {"time": 103921, "pitch": 36, "duration": 193, "velocity": 93}, {"time": 104157, "pitch": 33, "duration": 179, "velocity": 117}, {"time": 104398, "pitch": 33, "duration": 159, "velocity": 95}, {"time": 104638, "pitch": 33, "duration": 148, "velocity": 120}, {"time": 104879, "pitch": 33, "duration": 432, "velocity": 122}, {"time": 105361, "pitch": 33, "duration": 140, "velocity": 111}, {"time": 105602, "pitch": 33, "duration": 173, "velocity": 121}, {"time": 105843, "pitch": 33, "duration": 187, "velocity": 81}, {"time": 106084, "pitch": 31, "duration": 191, "velocity": 111}, {"time": 106320, "pitch": 31, "duration": 148, "velocity": 98}, {"time": 106556, "pitch": 31, "duration": 169, "velocity": 95}, {"time": 106797, "pitch": 31, "duration": 402, "velocity": 121}, {"time": 107278, "pitch": 31, "duration": 174, "velocity": 104}, {"time": 107519, "pitch": 31, "duration": 159, "velocity": 108}, {"time": 107760, "pitch": 31, "duration": 207, "velocity": 81}, {"time": 108001, "pitch": 29, "duration": 211, "velocity": 111}, {"time": 108242, "pitch": 29, "duration": 160, "velocity": 104}, {"time": 108483, "pitch": 29, "duration": 156, "velocity": 111}, {"time": 108724, "pitch": 29, "duration": 469, "velocity": 111}, {"time": 109201, "pitch": 36, "duration": 208, "velocity": 111}, {"time": 109437, "pitch": 41, "duration": 208, "velocity": 111}, {"time": 109677, "pitch": 29, "duration": 231, "velocity": 71}, {"time": 109918, "pitch": 34, "duration": 200, "velocity": 122}, {"time": 110159, "pitch": 34, "duration": 162, "velocity": 117}, {"time": 110400, "pitch": 34, "duration": 158, "velocity": 117}, {"time": 110641, "pitch": 34, "duration": 414, "velocity": 122}, {"time": 111123, "pitch": 34, "duration": 159, "velocity": 114}, {"time": 111364, "pitch": 36, "duration": 256, "velocity": 108}, {"time": 111600, "pitch": 34, "duration": 187, "velocity": 111}, {"time": 111836, "pitch": 33, "duration": 203, "velocity": 114}, {"time": 112076, "pitch": 33, "duration": 153, "velocity": 100}, {"time": 112317, "pitch": 33, "duration": 159, "velocity": 117}, {"time": 112558, "pitch": 33, "duration": 126, "velocity": 100}, {"time": 112799, "pitch": 33, "duration": 275, "velocity": 108}, {"time": 113040, "pitch": 36, "duration": 214, "velocity": 104}, {"time": 113281, "pitch": 41, "duration": 253, "velocity": 111}, {"time": 113522, "pitch": 33, "duration": 205, "velocity": 83}, {"time": 113763, "pitch": 31, "duration": 215, "velocity": 112}, {"time": 114004, "pitch": 31, "duration": 166, "velocity": 93}, {"time": 114244, "pitch": 31, "duration": 151, "velocity": 111}, {"time": 114480, "pitch": 31, "duration": 407, "velocity": 100}, {"time": 114957, "pitch": 31, "duration": 204, "velocity": 100}, {"time": 115198, "pitch": 31, "duration": 166, "velocity": 85}, {"time": 115439, "pitch": 31, "duration": 169, "velocity": 93}, {"time": 115680, "pitch": 31, "duration": 188, "velocity": 111}, {"time": 115921, "pitch": 31, "duration": 160, "velocity": 83}, {"time": 116162, "pitch": 31, "duration": 155, "velocity": 100}, {"time": 116403, "pitch": 31, "duration": 158, "velocity": 95}, {"time": 116643, "pitch": 31, "duration": 189, "velocity": 104}, {"time": 116879, "pitch": 31, "duration": 149, "velocity": 81}, {"time": 117116, "pitch": 31, "duration": 162, "velocity": 112}, {"time": 117356, "pitch": 31, "duration": 190, "velocity": 86}, {"time": 117597, "pitch": 36, "duration": 197, "velocity": 117}, {"time": 117838, "pitch": 36, "duration": 155, "velocity": 100}, {"time": 118079, "pitch": 36, "duration": 183, "velocity": 114}, {"time": 118320, "pitch": 31, "duration": 403, "velocity": 111}, {"time": 118802, "pitch": 36, "duration": 229, "velocity": 108}, {"time": 119043, "pitch": 31, "duration": 178, "velocity": 111}, {"time": 119283, "pitch": 36, "duration": 233, "velocity": 120}, {"time": 119524, "pitch": 41, "duration": 197, "velocity": 122}, {"time": 119760, "pitch": 41, "duration": 177, "velocity": 93}, {"time": 119996, "pitch": 41, "duration": 181, "velocity": 117}, {"time": 120237, "pitch": 41, "duration": 221, "velocity": 104}, {"time": 120478, "pitch": 40, "duration": 176, "velocity": 117}, {"time": 120719, "pitch": 40, "duration": 143, "velocity": 108}, {"time": 120960, "pitch": 40, "duration": 221, "velocity": 122}, {"time": 121201, "pitch": 38, "duration": 481, "velocity": 122}, {"time": 121682, "pitch": 41, "duration": 231, "velocity": 112}, {"time": 121923, "pitch": 46, "duration": 235, "velocity": 120}, {"time": 122159, "pitch": 38, "duration": 177, "velocity": 100}, {"time": 122395, "pitch": 38, "duration": 401, "velocity": 121}, {"time": 122877, "pitch": 36, "duration": 428, "velocity": 117}, {"time": 123359, "pitch": 41, "duration": 201, "velocity": 117}, {"time": 123600, "pitch": 41, "duration": 190, "velocity": 100}, {"time": 123841, "pitch": 41, "duration": 180, "velocity": 112}, {"time": 124081, "pitch": 41, "duration": 221, "velocity": 100}, {"time": 124322, "pitch": 40, "duration": 231, "velocity": 112}, {"time": 124563, "pitch": 48, "duration": 238, "velocity": 104}, {"time": 124804, "pitch": 40, "duration": 226, "velocity": 117}, {"time": 125040, "pitch": 38, "duration": 457, "velocity": 123}, {"time": 125517, "pitch": 41, "duration": 231, "velocity": 112}, {"time": 125758, "pitch": 46, "duration": 234, "velocity": 117}, {"time": 125999, "pitch": 38, "duration": 160, "velocity": 104}, {"time": 126240, "pitch": 38, "duration": 425, "velocity": 122}, {"time": 126721, "pitch": 36, "duration": 441, "velocity": 122}, {"time": 127203, "pitch": 41, "duration": 197, "velocity": 117}, {"time": 127439, "pitch": 41, "duration": 177, "velocity": 112}, {"time": 127675, "pitch": 41, "duration": 181, "velocity": 117}, {"time": 127916, "pitch": 41, "duration": 231, "velocity": 114}, {"time": 128157, "pitch": 40, "duration": 231, "velocity": 112}, {"time": 128398, "pitch": 48, "duration": 231, "velocity": 98}, {"time": 128639, "pitch": 40, "duration": 230, "velocity": 108}, {"time": 128880, "pitch": 38, "duration": 481, "velocity": 123}, {"time": 129361, "pitch": 41, "duration": 231, "velocity": 111}, {"time": 129602, "pitch": 46, "duration": 231, "velocity": 114}, {"time": 129843, "pitch": 50, "duration": 166, "velocity": 104}, {"time": 130084, "pitch": 50, "duration": 424, "velocity": 121}, {"time": 130556, "pitch": 48, "duration": 475, "velocity": 121}, {"time": 131038, "pitch": 37, "duration": 241, "velocity": 122}, {"time": 131279, "pitch": 44, "duration": 240, "velocity": 98}, {"time": 131519, "pitch": 37, "duration": 241, "velocity": 112}, {"time": 131760, "pitch": 32, "duration": 241, "velocity": 104}, {"time": 132001, "pitch": 39, "duration": 241, "velocity": 117}, {"time": 132242, "pitch": 34, "duration": 241, "velocity": 100}, {"time": 132483, "pitch": 39, "duration": 201, "velocity": 98}, {"time": 132724, "pitch": 39, "duration": 241, "velocity": 120}, {"time": 132965, "pitch": 37, "duration": 236, "velocity": 111}, {"time": 133201, "pitch": 44, "duration": 214, "velocity": 93}, {"time": 133437, "pitch": 49, "duration": 217, "velocity": 100}, {"time": 133678, "pitch": 53, "duration": 471, "velocity": 120}, {"time": 134159, "pitch": 51, "duration": 241, "velocity": 98}, {"time": 134400, "pitch": 49, "duration": 214, "velocity": 111}, {"time": 134641, "pitch": 44, "duration": 241, "velocity": 85}, {"time": 134882, "pitch": 37, "duration": 161, "velocity": 122}, {"time": 135123, "pitch": 37, "duration": 150, "velocity": 121}, {"time": 135364, "pitch": 37, "duration": 128, "velocity": 127}, {"time": 135600, "pitch": 37, "duration": 177, "velocity": 127}, {"time": 135836, "pitch": 37, "duration": 140, "velocity": 120}, {"time": 136077, "pitch": 37, "duration": 230, "velocity": 110}, {"time": 136318, "pitch": 44, "duration": 230, "velocity": 117}, {"time": 136558, "pitch": 37, "duration": 231, "velocity": 113}, {"time": 136799, "pitch": 36, "duration": 171, "velocity": 125}, {"time": 137040, "pitch": 36, "duration": 131, "velocity": 106}, {"time": 137281, "pitch": 36, "duration": 131, "velocity": 114}, {"time": 137522, "pitch": 36, "duration": 161, "velocity": 106}, {"time": 137763, "pitch": 36, "duration": 130, "velocity": 114}, {"time": 138004, "pitch": 36, "duration": 231, "velocity": 110}, {"time": 138244, "pitch": 44, "duration": 227, "velocity": 117}, {"time": 138481, "pitch": 36, "duration": 226, "velocity": 113}, {"time": 138717, "pitch": 42, "duration": 170, "velocity": 121}, {"time": 138957, "pitch": 42, "duration": 151, "velocity": 120}, {"time": 139198, "pitch": 42, "duration": 161, "velocity": 123}, {"time": 139439, "pitch": 42, "duration": 161, "velocity": 114}, {"time": 139680, "pitch": 42, "duration": 181, "velocity": 122}, {"time": 139921, "pitch": 42, "duration": 161, "velocity": 114}, {"time": 140162, "pitch": 42, "duration": 160, "velocity": 125}, {"time": 140403, "pitch": 42, "duration": 231, "velocity": 95}, {"time": 140644, "pitch": 37, "duration": 157, "velocity": 127}, {"time": 140880, "pitch": 37, "duration": 137, "velocity": 112}, {"time": 141116, "pitch": 37, "duration": 180, "velocity": 127}, {"time": 141356, "pitch": 37, "duration": 151, "velocity": 117}, {"time": 141597, "pitch": 37, "duration": 171, "velocity": 118}, {"time": 141838, "pitch": 37, "duration": 231, "velocity": 110}, {"time": 142079, "pitch": 39, "duration": 191, "velocity": 118}, {"time": 142320, "pitch": 39, "duration": 221, "velocity": 109}, {"time": 142561, "pitch": 41, "duration": 171, "velocity": 125}, {"time": 142802, "pitch": 41, "duration": 130, "velocity": 106}, {"time": 143043, "pitch": 41, "duration": 130, "velocity": 114}, {"time": 143284, "pitch": 41, "duration": 160, "velocity": 106}, {"time": 143524, "pitch": 41, "duration": 128, "velocity": 114}, {"time": 143760, "pitch": 41, "duration": 227, "velocity": 110}, {"time": 143996, "pitch": 43, "duration": 231, "velocity": 117}, {"time": 144237, "pitch": 41, "duration": 231, "velocity": 113}, {"time": 144478, "pitch": 40, "duration": 171, "velocity": 125}, {"time": 144719, "pitch": 40, "duration": 131, "velocity": 106}, {"time": 144960, "pitch": 40, "duration": 130, "velocity": 114}, {"time": 145201, "pitch": 40, "duration": 160, "velocity": 106}, {"time": 145442, "pitch": 40, "duration": 130, "velocity": 114}, {"time": 145683, "pitch": 40, "duration": 230, "velocity": 110}, {"time": 145923, "pitch": 48, "duration": 227, "velocity": 117}, {"time": 146159, "pitch": 40, "duration": 227, "velocity": 113}, {"time": 146396, "pitch": 39, "duration": 170, "velocity": 125}, {"time": 146636, "pitch": 39, "duration": 131, "velocity": 106}, {"time": 146877, "pitch": 39, "duration": 131, "velocity": 114}, {"time": 147118, "pitch": 39, "duration": 161, "velocity": 106}, {"time": 147359, "pitch": 39, "duration": 130, "velocity": 114}, {"time": 147600, "pitch": 39, "duration": 231, "velocity": 110}, {"time": 147841, "pitch": 46, "duration": 231, "velocity": 117}, {"time": 148082, "pitch": 39, "duration": 230, "velocity": 113}, {"time": 148322, "pitch": 38, "duration": 241, "velocity": 111}, {"time": 148563, "pitch": 41, "duration": 219, "velocity": 93}, {"time": 148804, "pitch": 46, "duration": 213, "velocity": 100}, {"time": 149040, "pitch": 53, "duration": 467, "velocity": 120}, {"time": 149517, "pitch": 46, "duration": 241, "velocity": 98}, {"time": 149758, "pitch": 41, "duration": 214, "velocity": 111}, {"time": 149999, "pitch": 38, "duration": 241, "velocity": 85}, {"time": 150240, "pitch": 46, "duration": 231, "velocity": 125}, {"time": 150481, "pitch": 41, "duration": 130, "velocity": 106}, {"time": 150722, "pitch": 34, "duration": 230, "velocity": 114}, {"time": 150962, "pitch": 46, "duration": 231, "velocity": 106}, {"time": 151203, "pitch": 41, "duration": 128, "velocity": 114}, {"time": 151439, "pitch": 34, "duration": 227, "velocity": 110}, {"time": 151675, "pitch": 46, "duration": 231, "velocity": 117}, {"time": 151916, "pitch": 41, "duration": 231, "velocity": 113}, {"time": 152157, "pitch": 45, "duration": 231, "velocity": 125}, {"time": 152398, "pitch": 41, "duration": 130, "velocity": 106}, {"time": 152639, "pitch": 36, "duration": 231, "velocity": 114}, {"time": 152880, "pitch": 45, "duration": 231, "velocity": 106}, {"time": 153121, "pitch": 41, "duration": 130, "velocity": 114}, {"time": 153361, "pitch": 36, "duration": 231, "velocity": 110}, {"time": 153602, "pitch": 45, "duration": 231, "velocity": 117}, {"time": 153843, "pitch": 41, "duration": 231, "velocity": 113}, {"time": 154084, "pitch": 31, "duration": 184, "velocity": 111}, {"time": 154320, "pitch": 31, "duration": 157, "velocity": 83}, {"time": 154556, "pitch": 31, "duration": 156, "velocity": 100}, {"time": 154797, "pitch": 31, "duration": 159, "velocity": 95}, {"time": 155038, "pitch": 31, "duration": 193, "velocity": 104}, {"time": 155279, "pitch": 31, "duration": 151, "velocity": 81}, {"time": 155520, "pitch": 31, "duration": 162, "velocity": 112}, {"time": 155760, "pitch": 31, "duration": 190, "velocity": 86}, {"time": 156001, "pitch": 36, "duration": 197, "velocity": 117}, {"time": 156242, "pitch": 36, "duration": 155, "velocity": 100}, {"time": 156483, "pitch": 36, "duration": 183, "velocity": 114}, {"time": 156724, "pitch": 31, "duration": 400, "velocity": 111}, {"time": 157201, "pitch": 36, "duration": 225, "velocity": 108}, {"time": 157437, "pitch": 31, "duration": 179, "velocity": 111}, {"time": 157678, "pitch": 36, "duration": 233, "velocity": 120}, {"time": 157919, "pitch": 41, "duration": 200, "velocity": 122}, {"time": 158160, "pitch": 41, "duration": 180, "velocity": 93}, {"time": 158400, "pitch": 41, "duration": 181, "velocity": 117}, {"time": 158641, "pitch": 41, "duration": 221, "velocity": 104}, {"time": 158882, "pitch": 40, "duration": 176, "velocity": 117}, {"time": 159123, "pitch": 40, "duration": 144, "velocity": 108}, {"time": 159364, "pitch": 40, "duration": 216, "velocity": 122}, {"time": 159600, "pitch": 38, "duration": 477, "velocity": 122}, {"time": 160077, "pitch": 41, "duration": 231, "velocity": 112}, {"time": 160318, "pitch": 46, "duration": 240, "velocity": 120}, {"time": 160559, "pitch": 38, "duration": 180, "velocity": 100}, {"time": 160799, "pitch": 38, "duration": 401, "velocity": 121}, {"time": 161281, "pitch": 36, "duration": 428, "velocity": 117}, {"time": 161763, "pitch": 41, "duration": 201, "velocity": 117}, {"time": 162004, "pitch": 41, "duration": 191, "velocity": 100}, {"time": 162245, "pitch": 41, "duration": 177, "velocity": 112}, {"time": 162481, "pitch": 41, "duration": 216, "velocity": 100}, {"time": 162717, "pitch": 40, "duration": 231, "velocity": 112}, {"time": 162958, "pitch": 48, "duration": 237, "velocity": 104}, {"time": 163198, "pitch": 40, "duration": 231, "velocity": 117}, {"time": 163439, "pitch": 38, "duration": 462, "velocity": 123}, {"time": 163921, "pitch": 41, "duration": 231, "velocity": 112}, {"time": 164162, "pitch": 46, "duration": 234, "velocity": 117}, {"time": 164403, "pitch": 38, "duration": 160, "velocity": 104}, {"time": 164644, "pitch": 38, "duration": 417, "velocity": 122}, {"time": 165116, "pitch": 36, "duration": 440, "velocity": 122}, {"time": 165597, "pitch": 41, "duration": 201, "velocity": 117}, {"time": 165838, "pitch": 41, "duration": 181, "velocity": 112}, {"time": 166079, "pitch": 41, "duration": 181, "velocity": 117}, {"time": 166320, "pitch": 41, "duration": 231, "velocity": 114}, {"time": 166561, "pitch": 40, "duration": 231, "velocity": 112}, {"time": 166802, "pitch": 48, "duration": 231, "velocity": 98}, {"time": 167043, "pitch": 40, "duration": 231, "velocity": 108}, {"time": 167284, "pitch": 38, "duration": 477, "velocity": 123}, {"time": 167761, "pitch": 41, "duration": 226, "velocity": 111}, {"time": 167997, "pitch": 46, "duration": 230, "velocity": 114}, {"time": 168237, "pitch": 50, "duration": 166, "velocity": 104}, {"time": 168478, "pitch": 50, "duration": 433, "velocity": 121}, {"time": 168960, "pitch": 48, "duration": 475, "velocity": 121}, {"time": 169442, "pitch": 37, "duration": 241, "velocity": 122}, {"time": 169683, "pitch": 44, "duration": 241, "velocity": 98}, {"time": 169924, "pitch": 37, "duration": 236, "velocity": 112}, {"time": 170160, "pitch": 32, "duration": 236, "velocity": 104}, {"time": 170396, "pitch": 39, "duration": 240, "velocity": 117}, {"time": 170636, "pitch": 34, "duration": 241, "velocity": 100}, {"time": 170877, "pitch": 39, "duration": 201, "velocity": 98}, {"time": 171118, "pitch": 39, "duration": 241, "velocity": 120}, {"time": 171359, "pitch": 41, "duration": 241, "velocity": 111}, {"time": 171600, "pitch": 36, "duration": 219, "velocity": 93}, {"time": 171841, "pitch": 29, "duration": 217, "velocity": 100}, {"time": 172082, "pitch": 41, "duration": 405, "velocity": 120}, {"time": 172564, "pitch": 41, "duration": 240, "velocity": 98}, {"time": 172804, "pitch": 36, "duration": 210, "velocity": 111}, {"time": 173040, "pitch": 29, "duration": 236, "velocity": 85}, {"time": 173276, "pitch": 41, "duration": 201, "velocity": 122}, {"time": 173517, "pitch": 41, "duration": 181, "velocity": 93}, {"time": 173758, "pitch": 41, "duration": 181, "velocity": 117}, {"time": 173999, "pitch": 41, "duration": 221, "velocity": 104}, {"time": 174240, "pitch": 40, "duration": 176, "velocity": 117}, {"time": 174481, "pitch": 40, "duration": 143, "velocity": 108}, {"time": 174722, "pitch": 40, "duration": 220, "velocity": 122}, {"time": 174963, "pitch": 38, "duration": 476, "velocity": 122}, {"time": 175439, "pitch": 41, "duration": 227, "velocity": 112}, {"time": 175675, "pitch": 46, "duration": 240, "velocity": 120}, {"time": 175916, "pitch": 38, "duration": 181, "velocity": 100}, {"time": 176157, "pitch": 38, "duration": 401, "velocity": 121}, {"time": 176639, "pitch": 36, "duration": 428, "velocity": 117}, {"time": 177121, "pitch": 41, "duration": 200, "velocity": 117}, {"time": 177362, "pitch": 41, "duration": 190, "velocity": 100}, {"time": 177602, "pitch": 41, "duration": 181, "velocity": 112}, {"time": 177843, "pitch": 41, "duration": 221, "velocity": 100}, {"time": 178084, "pitch": 40, "duration": 226, "velocity": 112}, {"time": 178320, "pitch": 48, "duration": 233, "velocity": 104}, {"time": 178556, "pitch": 40, "duration": 231, "velocity": 117}, {"time": 178797, "pitch": 38, "duration": 462, "velocity": 123}, {"time": 179279, "pitch": 41, "duration": 231, "velocity": 112}, {"time": 179520, "pitch": 46, "duration": 234, "velocity": 117}, {"time": 179761, "pitch": 38, "duration": 160, "velocity": 104}, {"time": 180002, "pitch": 38, "duration": 425, "velocity": 122}, {"time": 180483, "pitch": 36, "duration": 432, "velocity": 122}, {"time": 180955, "pitch": 41, "duration": 201, "velocity": 117}, {"time": 181196, "pitch": 41, "duration": 181, "velocity": 112}, {"time": 181437, "pitch": 41, "duration": 181, "velocity": 117}, {"time": 181678, "pitch": 41, "duration": 231, "velocity": 114}, {"time": 181919, "pitch": 40, "duration": 231, "velocity": 112}, {"time": 182160, "pitch": 48, "duration": 231, "velocity": 98}, {"time": 182401, "pitch": 40, "duration": 230, "velocity": 108}, {"time": 182641, "pitch": 38, "duration": 482, "velocity": 123}, {"time": 183123, "pitch": 41, "duration": 231, "velocity": 111}, {"time": 183364, "pitch": 46, "duration": 226, "velocity": 114}, {"time": 183600, "pitch": 50, "duration": 162, "velocity": 104}, {"time": 183836, "pitch": 50, "duration": 433, "velocity": 121}, {"time": 184318, "pitch": 48, "duration": 475, "velocity": 121}, {"time": 184800, "pitch": 37, "duration": 240, "velocity": 122}, {"time": 185040, "pitch": 44, "duration": 241, "velocity": 98}, {"time": 185281, "pitch": 37, "duration": 241, "velocity": 112}, {"time": 185522, "pitch": 32, "duration": 241, "velocity": 104}, {"time": 185763, "pitch": 39, "duration": 241, "velocity": 117}, {"time": 186004, "pitch": 34, "duration": 241, "velocity": 100}, {"time": 186245, "pitch": 39, "duration": 196, "velocity": 98}, {"time": 186481, "pitch": 39, "duration": 236, "velocity": 120}, {"time": 186717, "pitch": 41, "duration": 241, "velocity": 111}, {"time": 186958, "pitch": 36, "duration": 219, "velocity": 93}, {"time": 187199, "pitch": 29, "duration": 216, "velocity": 100}, {"time": 187439, "pitch": 41, "duration": 406, "velocity": 120}, {"time": 187921, "pitch": 41, "duration": 241, "velocity": 98}, {"time": 188162, "pitch": 36, "duration": 214, "velocity": 111}, {"time": 188403, "pitch": 29, "duration": 241, "velocity": 85}, {"time": 188644, "pitch": 29, "duration": 260, "velocity": 114}, {"time": 188880, "pitch": 41, "duration": 307, "velocity": 68}, {"time": 189116, "pitch": 29, "duration": 259, "velocity": 111}, {"time": 189357, "pitch": 41, "duration": 301, "velocity": 63}, {"time": 189598, "pitch": 29, "duration": 255, "velocity": 108}, {"time": 189839, "pitch": 41, "duration": 244, "velocity": 67}, {"time": 190079, "pitch": 29, "duration": 249, "velocity": 104}, {"time": 190320, "pitch": 41, "duration": 249, "velocity": 71}, {"time": 190561, "pitch": 29, "duration": 257, "velocity": 108}, {"time": 190802, "pitch": 41, "duration": 307, "velocity": 61}, {"time": 191043, "pitch": 29, "duration": 261, "velocity": 108}, {"time": 191284, "pitch": 41, "duration": 284, "velocity": 66}, {"time": 191525, "pitch": 29, "duration": 264, "velocity": 100}, {"time": 191761, "pitch": 41, "duration": 304, "velocity": 61}, {"time": 191997, "pitch": 29, "duration": 262, "velocity": 95}, {"time": 192238, "pitch": 41, "duration": 283, "velocity": 58}, {"time": 192478, "pitch": 29, "duration": 262, "velocity": 100}, {"time": 192719, "pitch": 41, "duration": 284, "velocity": 65}, {"time": 192960, "pitch": 29, "duration": 287, "velocity": 100}, {"time": 193201, "pitch": 41, "duration": 275, "velocity": 65}, {"time": 193442, "pitch": 29, "duration": 274, "velocity": 100}, {"time": 193683, "pitch": 41, "duration": 299, "velocity": 66}, {"time": 193924, "pitch": 29, "duration": 259, "velocity": 95}, {"time": 194160, "pitch": 41, "duration": 289, "velocity": 59}, {"time": 194396, "pitch": 29, "duration": 269, "velocity": 111}, {"time": 194637, "pitch": 41, "duration": 290, "velocity": 66}, {"time": 194877, "pitch": 29, "duration": 280, "velocity": 93}, {"time": 195118, "pitch": 41, "duration": 308, "velocity": 65}, {"time": 195359, "pitch": 29, "duration": 275, "velocity": 86}, {"time": 195600, "pitch": 41, "duration": 301, "velocity": 65}, {"time": 195841, "pitch": 29, "duration": 296, "velocity": 85}, {"time": 196082, "pitch": 41, "duration": 236, "velocity": 74}, {"time": 196323, "pitch": 29, "duration": 266, "velocity": 114}, {"time": 196564, "pitch": 41, "duration": 310, "velocity": 68}, {"time": 196804, "pitch": 29, "duration": 254, "velocity": 111}, {"time": 197041, "pitch": 41, "duration": 296, "velocity": 63}, {"time": 197277, "pitch": 29, "duration": 254, "velocity": 108}, {"time": 197517, "pitch": 41, "duration": 245, "velocity": 67}, {"time": 197758, "pitch": 29, "duration": 249, "velocity": 104}, {"time": 197999, "pitch": 41, "duration": 249, "velocity": 71}, {"time": 198240, "pitch": 29, "duration": 257, "velocity": 108}, {"time": 198481, "pitch": 41, "duration": 307, "velocity": 61}, {"time": 198722, "pitch": 29, "duration": 261, "velocity": 108}, {"time": 198963, "pitch": 41, "duration": 284, "velocity": 66}, {"time": 199204, "pitch": 29, "duration": 264, "velocity": 100}, {"time": 199440, "pitch": 41, "duration": 304, "velocity": 61}, {"time": 199676, "pitch": 29, "duration": 262, "velocity": 95}, {"time": 199916, "pitch": 41, "duration": 283, "velocity": 58}, {"time": 200157, "pitch": 29, "duration": 262, "velocity": 100}, {"time": 200398, "pitch": 41, "duration": 284, "velocity": 65}, {"time": 200639, "pitch": 29, "duration": 287, "velocity": 100}, {"time": 200880, "pitch": 41, "duration": 275, "velocity": 65}, {"time": 201121, "pitch": 29, "duration": 274, "velocity": 100}, {"time": 201362, "pitch": 41, "duration": 300, "velocity": 66}, {"time": 201603, "pitch": 29, "duration": 265, "velocity": 95}, {"time": 201843, "pitch": 41, "duration": 293, "velocity": 59}, {"time": 202084, "pitch": 29, "duration": 264, "velocity": 111}, {"time": 202320, "pitch": 41, "duration": 286, "velocity": 66}, {"time": 202556, "pitch": 29, "duration": 279, "velocity": 93}, {"time": 202797, "pitch": 41, "duration": 308, "velocity": 65}, {"time": 203038, "pitch": 29, "duration": 275, "velocity": 86}, {"time": 203279, "pitch": 41, "duration": 301, "velocity": 65}, {"time": 203520, "pitch": 29, "duration": 296, "velocity": 85}, {"time": 203761, "pitch": 41, "duration": 236, "velocity": 74}, {"time": 204002, "pitch": 29, "duration": 266, "velocity": 114}, {"time": 204243, "pitch": 41, "duration": 310, "velocity": 68}, {"time": 204483, "pitch": 29, "duration": 254, "velocity": 111}, {"time": 204719, "pitch": 41, "duration": 297, "velocity": 63}, {"time": 204955, "pitch": 29, "duration": 255, "velocity": 108}, {"time": 205196, "pitch": 41, "duration": 245, "velocity": 67}, {"time": 205437, "pitch": 29, "duration": 249, "velocity": 104}, {"time": 205678, "pitch": 41, "duration": 249, "velocity": 71}, {"time": 205919, "pitch": 29, "duration": 257, "velocity": 108}, {"time": 206160, "pitch": 41, "duration": 307, "velocity": 61}, {"time": 206401, "pitch": 29, "duration": 261, "velocity": 108}, {"time": 206642, "pitch": 41, "duration": 285, "velocity": 66}, {"time": 206882, "pitch": 29, "duration": 270, "velocity": 100}, {"time": 207123, "pitch": 41, "duration": 308, "velocity": 61}, {"time": 207364, "pitch": 29, "duration": 257, "velocity": 95}, {"time": 207600, "pitch": 41, "duration": 278, "velocity": 58}, {"time": 207836, "pitch": 29, "duration": 262, "velocity": 100}, {"time": 208077, "pitch": 41, "duration": 284, "velocity": 65}, {"time": 208318, "pitch": 29, "duration": 287, "velocity": 100}, {"time": 208559, "pitch": 41, "duration": 275, "velocity": 65}, {"time": 208800, "pitch": 29, "duration": 274, "velocity": 100}, {"time": 209041, "pitch": 41, "duration": 300, "velocity": 66}, {"time": 209281, "pitch": 29, "duration": 265, "velocity": 95}, {"time": 209522, "pitch": 41, "duration": 293, "velocity": 59}, {"time": 209763, "pitch": 29, "duration": 264, "velocity": 111}, {"time": 209999, "pitch": 41, "duration": 285, "velocity": 66}, {"time": 210235, "pitch": 29, "duration": 279, "velocity": 93}, {"time": 210476, "pitch": 41, "duration": 308, "velocity": 65}, {"time": 210717, "pitch": 29, "duration": 275, "velocity": 86}, {"time": 210958, "pitch": 41, "duration": 301, "velocity": 65}, {"time": 211199, "pitch": 29, "duration": 296, "velocity": 85}, {"time": 211440, "pitch": 41, "duration": 236, "velocity": 74}, {"time": 211681, "pitch": 29, "duration": 265, "velocity": 114}, {"time": 211921, "pitch": 41, "duration": 313, "velocity": 68}, {"time": 212162, "pitch": 29, "duration": 259, "velocity": 111}, {"time": 212403, "pitch": 41, "duration": 300, "velocity": 63}, {"time": 212644, "pitch": 40, "duration": 250, "velocity": 108}, {"time": 212880, "pitch": 36, "duration": 240, "velocity": 67}, {"time": 213116, "pitch": 34, "duration": 249, "velocity": 104}, {"time": 213357, "pitch": 36, "duration": 249, "velocity": 71}, {"time": 213598, "pitch": 29, "duration": 257, "velocity": 108}, {"time": 213839, "pitch": 41, "duration": 307, "velocity": 61}, {"time": 214080, "pitch": 29, "duration": 261, "velocity": 108}, {"time": 214320, "pitch": 41, "duration": 285, "velocity": 112}, {"time": 46560, "pitch": 62, "duration": 241, "velocity": 122}, {"time": 46801, "pitch": 60, "duration": 241, "velocity": 112}, {"time": 47042, "pitch": 58, "duration": 241, "velocity": 117}, {"time": 47283, "pitch": 60, "duration": 477, "velocity": 100}, {"time": 47760, "pitch": 65, "duration": 477, "velocity": 122}, {"time": 48237, "pitch": 65, "duration": 1893, "velocity": 121}, {"time": 50164, "pitch": 60, "duration": 241, "velocity": 112}, {"time": 50405, "pitch": 58, "duration": 236, "velocity": 117}, {"time": 50641, "pitch": 60, "duration": 236, "velocity": 100}, {"time": 50877, "pitch": 65, "duration": 240, "velocity": 117}, {"time": 51117, "pitch": 60, "duration": 482, "velocity": 117}, {"time": 51599, "pitch": 67, "duration": 482, "velocity": 121}, {"time": 52081, "pitch": 69, "duration": 959, "velocity": 112}, {"time": 53040, "pitch": 65, "duration": 1110, "velocity": 121}, {"time": 54239, "pitch": 62, "duration": 241, "velocity": 122}, {"time": 54480, "pitch": 60, "duration": 241, "velocity": 108}, {"time": 54721, "pitch": 58, "duration": 241, "velocity": 120}, {"time": 54962, "pitch": 60, "duration": 482, "velocity": 114}, {"time": 55444, "pitch": 65, "duration": 476, "velocity": 122}, {"time": 55920, "pitch": 65, "duration": 1895, "velocity": 120}, {"time": 57843, "pitch": 60, "duration": 240, "velocity": 114}, {"time": 58083, "pitch": 58, "duration": 236, "velocity": 114}, {"time": 58319, "pitch": 60, "duration": 237, "velocity": 104}, {"time": 58556, "pitch": 65, "duration": 240, "velocity": 122}, {"time": 58796, "pitch": 60, "duration": 482, "velocity": 117}, {"time": 59278, "pitch": 65, "duration": 482, "velocity": 122}, {"time": 59760, "pitch": 67, "duration": 963, "velocity": 122}, {"time": 60723, "pitch": 72, "duration": 954, "velocity": 122}, {"time": 61677, "pitch": 79, "duration": 964, "velocity": 122}, {"time": 62641, "pitch": 72, "duration": 1050, "velocity": 120}, {"time": 63835, "pitch": 69, "duration": 482, "velocity": 122}, {"time": 64317, "pitch": 70, "duration": 241, "velocity": 121}, {"time": 64558, "pitch": 72, "duration": 482, "velocity": 111}, {"time": 65040, "pitch": 67, "duration": 481, "velocity": 122}, {"time": 65521, "pitch": 65, "duration": 1109, "velocity": 122}, {"time": 66716, "pitch": 65, "duration": 462, "velocity": 117}, {"time": 67198, "pitch": 67, "duration": 451, "velocity": 122}, {"time": 67680, "pitch": 69, "duration": 481, "velocity": 121}, {"time": 68161, "pitch": 70, "duration": 241, "velocity": 121}, {"time": 68402, "pitch": 72, "duration": 477, "velocity": 112}, {"time": 68879, "pitch": 74, "duration": 236, "velocity": 122}, {"time": 69115, "pitch": 72, "duration": 1985, "velocity": 117}, {"time": 71524, "pitch": 69, "duration": 472, "velocity": 114}, {"time": 71996, "pitch": 70, "duration": 241, "velocity": 123}, {"time": 72237, "pitch": 72, "duration": 482, "velocity": 112}, {"time": 72719, "pitch": 67, "duration": 481, "velocity": 123}, {"time": 73200, "pitch": 65, "duration": 1075, "velocity": 122}, {"time": 74405, "pitch": 65, "duration": 236, "velocity": 121}, {"time": 74641, "pitch": 67, "duration": 236, "velocity": 112}, {"time": 74877, "pitch": 69, "duration": 241, "velocity": 108}, {"time": 75118, "pitch": 72, "duration": 481, "velocity": 122}, {"time": 75599, "pitch": 77, "duration": 723, "velocity": 120}, {"time": 76322, "pitch": 79, "duration": 482, "velocity": 121}, {"time": 76804, "pitch": 81, "duration": 236, "velocity": 121}, {"time": 77040, "pitch": 77, "duration": 1802, "velocity": 117}, {"time": 86882, "pitch": 60, "duration": 717, "velocity": 114}, {"time": 87599, "pitch": 65, "duration": 718, "velocity": 120}, {"time": 88317, "pitch": 72, "duration": 482, "velocity": 120}, {"time": 88799, "pitch": 70, "duration": 723, "velocity": 122}, {"time": 89522, "pitch": 69, "duration": 807, "velocity": 104}, {"time": 90480, "pitch": 72, "duration": 236, "velocity": 120}, {"time": 90716, "pitch": 77, "duration": 241, "velocity": 117}, {"time": 90957, "pitch": 76, "duration": 241, "velocity": 112}, {"time": 91198, "pitch": 77, "duration": 241, "velocity": 117}, {"time": 91439, "pitch": 72, "duration": 482, "velocity": 117}, {"time": 91921, "pitch": 70, "duration": 241, "velocity": 120}, {"time": 92162, "pitch": 69, "duration": 240, "velocity": 114}, {"time": 92402, "pitch": 70, "duration": 241, "velocity": 122}, {"time": 92643, "pitch": 72, "duration": 713, "velocity": 122}, {"time": 93356, "pitch": 67, "duration": 997, "velocity": 117}, {"time": 94561, "pitch": 60, "duration": 722, "velocity": 112}, {"time": 95283, "pitch": 65, "duration": 713, "velocity": 117}, {"time": 95996, "pitch": 72, "duration": 482, "velocity": 120}, {"time": 96478, "pitch": 70, "duration": 723, "velocity": 120}, {"time": 97201, "pitch": 69, "duration": 880, "velocity": 117}, {"time": 98159, "pitch": 72, "duration": 236, "velocity": 120}, {"time": 98395, "pitch": 77, "duration": 241, "velocity": 100}, {"time": 98636, "pitch": 76, "duration": 241, "velocity": 100}, {"time": 98877, "pitch": 77, "duration": 241, "velocity": 111}, {"time": 99118, "pitch": 72, "duration": 482, "velocity": 114}, {"time": 99600, "pitch": 77, "duration": 481, "velocity": 122}, {"time": 100081, "pitch": 79, "duration": 959, "velocity": 114}, {"time": 101040, "pitch": 72, "duration": 972, "velocity": 114}, {"time": 102239, "pitch": 62, "duration": 241, "velocity": 122}, {"time": 102480, "pitch": 60, "duration": 241, "velocity": 112}, {"time": 102721, "pitch": 58, "duration": 241, "velocity": 117}, {"time": 102962, "pitch": 60, "duration": 482, "velocity": 100}, {"time": 103444, "pitch": 65, "duration": 477, "velocity": 122}, {"time": 103921, "pitch": 65, "duration": 1888, "velocity": 121}, {"time": 105843, "pitch": 60, "duration": 241, "velocity": 112}, {"time": 106084, "pitch": 58, "duration": 236, "velocity": 117}, {"time": 106320, "pitch": 60, "duration": 236, "velocity": 100}, {"time": 106556, "pitch": 65, "duration": 241, "velocity": 117}, {"time": 106797, "pitch": 60, "duration": 481, "velocity": 117}, {"time": 107278, "pitch": 67, "duration": 482, "velocity": 121}, {"time": 107760, "pitch": 69, "duration": 964, "velocity": 112}, {"time": 108724, "pitch": 65, "duration": 1105, "velocity": 121}, {"time": 109918, "pitch": 62, "duration": 241, "velocity": 122}, {"time": 110159, "pitch": 60, "duration": 241, "velocity": 108}, {"time": 110400, "pitch": 58, "duration": 241, "velocity": 120}, {"time": 110641, "pitch": 60, "duration": 482, "velocity": 114}, {"time": 111123, "pitch": 65, "duration": 477, "velocity": 122}, {"time": 111600, "pitch": 65, "duration": 1894, "velocity": 120}, {"time": 113522, "pitch": 60, "duration": 241, "velocity": 114}, {"time": 113763, "pitch": 58, "duration": 241, "velocity": 114}, {"time": 114004, "pitch": 60, "duration": 240, "velocity": 104}, {"time": 114244, "pitch": 65, "duration": 236, "velocity": 122}, {"time": 114480, "pitch": 60, "duration": 477, "velocity": 117}, {"time": 114957, "pitch": 65, "duration": 482, "velocity": 122}, {"time": 115439, "pitch": 67, "duration": 964, "velocity": 122}, {"time": 116403, "pitch": 72, "duration": 920, "velocity": 122}, {"time": 117356, "pitch": 79, "duration": 964, "velocity": 122}, {"time": 118320, "pitch": 72, "duration": 1057, "velocity": 120}, {"time": 119524, "pitch": 69, "duration": 472, "velocity": 122}, {"time": 119996, "pitch": 70, "duration": 241, "velocity": 121}, {"time": 120237, "pitch": 72, "duration": 482, "velocity": 111}, {"time": 120719, "pitch": 67, "duration": 482, "velocity": 122}, {"time": 121201, "pitch": 65, "duration": 1108, "velocity": 122}, {"time": 122395, "pitch": 65, "duration": 462, "velocity": 117}, {"time": 122877, "pitch": 67, "duration": 451, "velocity": 122}, {"time": 123359, "pitch": 69, "duration": 482, "velocity": 121}, {"time": 123841, "pitch": 70, "duration": 240, "velocity": 121}, {"time": 124081, "pitch": 72, "duration": 482, "velocity": 112}, {"time": 124563, "pitch": 74, "duration": 241, "velocity": 122}, {"time": 124804, "pitch": 72, "duration": 1976, "velocity": 117}, {"time": 127203, "pitch": 69, "duration": 472, "velocity": 114}, {"time": 127675, "pitch": 70, "duration": 241, "velocity": 123}, {"time": 127916, "pitch": 72, "duration": 482, "velocity": 112}, {"time": 128398, "pitch": 67, "duration": 482, "velocity": 123}, {"time": 128880, "pitch": 65, "duration": 1074, "velocity": 122}, {"time": 130084, "pitch": 65, "duration": 236, "velocity": 121}, {"time": 130084, "pitch": 67, "duration": 236, "velocity": 100}, {"time": 130320, "pitch": 67, "duration": 236, "velocity": 112}, {"time": 130556, "pitch": 69, "duration": 241, "velocity": 108}, {"time": 130797, "pitch": 72, "duration": 482, "velocity": 122}, {"time": 131279, "pitch": 77, "duration": 722, "velocity": 120}, {"time": 132001, "pitch": 79, "duration": 482, "velocity": 121}, {"time": 132483, "pitch": 81, "duration": 241, "velocity": 121}, {"time": 132724, "pitch": 77, "duration": 242, "velocity": 117}, {"time": 134400, "pitch": 65, "duration": 121, "velocity": 127}, {"time": 134641, "pitch": 60, "duration": 241, "velocity": 127}, {"time": 134882, "pitch": 65, "duration": 1094, "velocity": 127}, {"time": 136077, "pitch": 67, "duration": 230, "velocity": 122}, {"time": 136446, "pitch": 68, "duration": 221, "velocity": 125}, {"time": 136751, "pitch": 68, "duration": 763, "velocity": 127}, {"time": 137522, "pitch": 67, "duration": 120, "velocity": 127}, {"time": 137642, "pitch": 65, "duration": 121, "velocity": 127}, {"time": 137763, "pitch": 63, "duration": 670, "velocity": 127}, {"time": 138492, "pitch": 63, "duration": 225, "velocity": 127}, {"time": 138717, "pitch": 73, "duration": 1144, "velocity": 127}, {"time": 139873, "pitch": 72, "duration": 462, "velocity": 127}, {"time": 140350, "pitch": 70, "duration": 193, "velocity": 127}, {"time": 140605, "pitch": 72, "duration": 1181, "velocity": 127}, {"time": 142081, "pitch": 68, "duration": 241, "velocity": 127}, {"time": 142327, "pitch": 77, "duration": 115, "velocity": 127}, {"time": 142452, "pitch": 77, "duration": 549, "velocity": 127}, {"time": 143043, "pitch": 77, "duration": 120, "velocity": 127}, {"time": 143163, "pitch": 75, "duration": 121, "velocity": 127}, {"time": 143284, "pitch": 77, "duration": 80, "velocity": 127}, {"time": 143364, "pitch": 80, "duration": 80, "velocity": 127}, {"time": 143444, "pitch": 77, "duration": 80, "velocity": 127}, {"time": 143524, "pitch": 72, "duration": 79, "velocity": 127}, {"time": 143603, "pitch": 75, "duration": 79, "velocity": 127}, {"time": 143682, "pitch": 72, "duration": 78, "velocity": 127}, {"time": 143760, "pitch": 71, "duration": 79, "velocity": 127}, {"time": 143839, "pitch": 70, "duration": 79, "velocity": 127}, {"time": 143918, "pitch": 69, "duration": 78, "velocity": 127}, {"time": 143996, "pitch": 68, "duration": 195, "velocity": 127}, {"time": 144199, "pitch": 72, "duration": 460, "velocity": 127}, {"time": 144199, "pitch": 75, "duration": 460, "velocity": 127}, {"time": 144663, "pitch": 72, "duration": 462, "velocity": 127}, {"time": 144663, "pitch": 75, "duration": 462, "velocity": 127}, {"time": 145125, "pitch": 72, "duration": 562, "velocity": 127}, {"time": 145125, "pitch": 75, "duration": 562, "velocity": 127}, {"time": 145695, "pitch": 68, "duration": 14, "velocity": 127}, {"time": 145723, "pitch": 66, "duration": 14, "velocity": 127}, {"time": 145757, "pitch": 63, "duration": 14, "velocity": 127}, {"time": 145786, "pitch": 59, "duration": 14, "velocity": 127}, {"time": 145795, "pitch": 56, "duration": 14, "velocity": 127}, {"time": 145829, "pitch": 51, "duration": 14, "velocity": 127}, {"time": 145858, "pitch": 48, "duration": 14, "velocity": 127}, {"time": 145891, "pitch": 45, "duration": 14, "velocity": 127}, {"time": 145935, "pitch": 42, "duration": 14, "velocity": 127}, {"time": 145964, "pitch": 39, "duration": 13, "velocity": 127}, {"time": 145996, "pitch": 37, "duration": 14, "velocity": 127}, {"time": 146039, "pitch": 36, "duration": 14, "velocity": 127}, {"time": 146077, "pitch": 37, "duration": 14, "velocity": 127}, {"time": 146105, "pitch": 39, "duration": 14, "velocity": 127}, {"time": 146129, "pitch": 41, "duration": 14, "velocity": 127}, {"time": 146157, "pitch": 43, "duration": 14, "velocity": 127}, {"time": 146176, "pitch": 45, "duration": 14, "velocity": 127}, {"time": 146195, "pitch": 47, "duration": 14, "velocity": 127}, {"time": 146232, "pitch": 49, "duration": 14, "velocity": 127}, {"time": 146256, "pitch": 51, "duration": 14, "velocity": 127}, {"time": 146280, "pitch": 53, "duration": 14, "velocity": 127}, {"time": 146318, "pitch": 55, "duration": 14, "velocity": 127}, {"time": 146346, "pitch": 57, "duration": 14, "velocity": 127}, {"time": 146370, "pitch": 59, "duration": 14, "velocity": 127}, {"time": 146397, "pitch": 60, "duration": 360, "velocity": 127}, {"time": 146757, "pitch": 63, "duration": 120, "velocity": 127}, {"time": 146884, "pitch": 65, "duration": 121, "velocity": 127}, {"time": 147005, "pitch": 68, "duration": 120, "velocity": 127}, {"time": 147118, "pitch": 70, "duration": 80, "velocity": 127}, {"time": 147198, "pitch": 68, "duration": 81, "velocity": 127}, {"time": 147279, "pitch": 65, "duration": 80, "velocity": 127}, {"time": 147359, "pitch": 68, "duration": 215, "velocity": 127}, {"time": 147600, "pitch": 70, "duration": 166, "velocity": 127}, {"time": 147841, "pitch": 72, "duration": 219, "velocity": 127}, {"time": 147841, "pitch": 75, "duration": 219, "velocity": 127}, {"time": 148082, "pitch": 72, "duration": 209, "velocity": 127}, {"time": 148082, "pitch": 75, "duration": 204, "velocity": 127}, {"time": 148322, "pitch": 72, "duration": 161, "velocity": 127}, {"time": 148322, "pitch": 75, "duration": 161, "velocity": 127}, {"time": 148483, "pitch": 68, "duration": 80, "velocity": 127}, {"time": 148563, "pitch": 65, "duration": 241, "velocity": 127}, {"time": 148804, "pitch": 68, "duration": 1127, "velocity": 127}, {"time": 149999, "pitch": 60, "duration": 241, "velocity": 127}, {"time": 150240, "pitch": 61, "duration": 359, "velocity": 127}, {"time": 150453, "pitch": 70, "duration": 156, "velocity": 127}, {"time": 150626, "pitch": 72, "duration": 167, "velocity": 127}, {"time": 150809, "pitch": 73, "duration": 630, "velocity": 127}, {"time": 151439, "pitch": 75, "duration": 473, "velocity": 127}, {"time": 151920, "pitch": 73, "duration": 236, "velocity": 127}, {"time": 152157, "pitch": 72, "duration": 241, "velocity": 127}, {"time": 152398, "pitch": 70, "duration": 241, "velocity": 127}, {"time": 152639, "pitch": 69, "duration": 158, "velocity": 127}, {"time": 152797, "pitch": 70, "duration": 102, "velocity": 127}, {"time": 152899, "pitch": 69, "duration": 101, "velocity": 127}, {"time": 153000, "pitch": 65, "duration": 121, "velocity": 127}, {"time": 153121, "pitch": 60, "duration": 722, "velocity": 127}, {"time": 153843, "pitch": 74, "duration": 713, "velocity": 127}, {"time": 153843, "pitch": 79, "duration": 477, "velocity": 127}, {"time": 154320, "pitch": 79, "duration": 477, "velocity": 127}, {"time": 154797, "pitch": 81, "duration": 241, "velocity": 127}, {"time": 155038, "pitch": 82, "duration": 241, "velocity": 127}, {"time": 155279, "pitch": 81, "duration": 193, "velocity": 127}, {"time": 155520, "pitch": 79, "duration": 120, "velocity": 127}, {"time": 155760, "pitch": 76, "duration": 482, "velocity": 127}, {"time": 156242, "pitch": 79, "duration": 241, "velocity": 127}, {"time": 156483, "pitch": 82, "duration": 121, "velocity": 127}, {"time": 156724, "pitch": 84, "duration": 1195, "velocity": 127}, {"time": 157919, "pitch": 69, "duration": 481, "velocity": 122}, {"time": 158400, "pitch": 70, "duration": 241, "velocity": 121}, {"time": 158641, "pitch": 72, "duration": 482, "velocity": 111}, {"time": 159123, "pitch": 67, "duration": 477, "velocity": 122}, {"time": 159600, "pitch": 65, "duration": 1111, "velocity": 122}, {"time": 160799, "pitch": 65, "duration": 482, "velocity": 117}, {"time": 161281, "pitch": 67, "duration": 482, "velocity": 122}, {"time": 161763, "pitch": 69, "duration": 482, "velocity": 121}, {"time": 162245, "pitch": 70, "duration": 236, "velocity": 121}, {"time": 162481, "pitch": 72, "duration": 477, "velocity": 112}, {"time": 162958, "pitch": 74, "duration": 240, "velocity": 122}, {"time": 163198, "pitch": 72, "duration": 1976, "velocity": 117}, {"time": 165597, "pitch": 69, "duration": 482, "velocity": 114}, {"time": 166079, "pitch": 70, "duration": 241, "velocity": 123}, {"time": 166320, "pitch": 72, "duration": 482, "velocity": 112}, {"time": 166802, "pitch": 67, "duration": 482, "velocity": 123}, {"time": 167284, "pitch": 65, "duration": 1065, "velocity": 122}, {"time": 168478, "pitch": 65, "duration": 241, "velocity": 121}, {"time": 168719, "pitch": 67, "duration": 241, "velocity": 112}, {"time": 168960, "pitch": 69, "duration": 241, "velocity": 108}, {"time": 169201, "pitch": 72, "duration": 482, "velocity": 122}, {"time": 169683, "pitch": 77, "duration": 713, "velocity": 120}, {"time": 170396, "pitch": 79, "duration": 481, "velocity": 121}, {"time": 170877, "pitch": 81, "duration": 241, "velocity": 121}, {"time": 171118, "pitch": 77, "duration": 1804, "velocity": 117}, {"time": 173276, "pitch": 69, "duration": 482, "velocity": 122}, {"time": 173758, "pitch": 70, "duration": 241, "velocity": 121}, {"time": 173999, "pitch": 72, "duration": 482, "velocity": 111}, {"time": 174481, "pitch": 67, "duration": 482, "velocity": 122}, {"time": 174963, "pitch": 65, "duration": 1106, "velocity": 122}, {"time": 176157, "pitch": 65, "duration": 482, "velocity": 117}, {"time": 176639, "pitch": 67, "duration": 482, "velocity": 122}, {"time": 177121, "pitch": 69, "duration": 481, "velocity": 121}, {"time": 177602, "pitch": 70, "duration": 241, "velocity": 121}, {"time": 177843, "pitch": 72, "duration": 477, "velocity": 112}, {"time": 178320, "pitch": 74, "duration": 236, "velocity": 122}, {"time": 178556, "pitch": 72, "duration": 1984, "velocity": 117}, {"time": 180955, "pitch": 69, "duration": 482, "velocity": 114}, {"time": 181437, "pitch": 70, "duration": 241, "velocity": 123}, {"time": 181678, "pitch": 72, "duration": 482, "velocity": 112}, {"time": 182160, "pitch": 67, "duration": 481, "velocity": 123}, {"time": 182641, "pitch": 65, "duration": 1068, "velocity": 122}, {"time": 183836, "pitch": 65, "duration": 241, "velocity": 121}, {"time": 184077, "pitch": 67, "duration": 241, "velocity": 112}, {"time": 184318, "pitch": 69, "duration": 241, "velocity": 108}, {"time": 184559, "pitch": 72, "duration": 481, "velocity": 122}, {"time": 185040, "pitch": 77, "duration": 723, "velocity": 120}, {"time": 185763, "pitch": 79, "duration": 482, "velocity": 121}, {"time": 186245, "pitch": 81, "duration": 236, "velocity": 121}, {"time": 186481, "pitch": 77, "duration": 1802, "velocity": 117}, {"time": 213598, "pitch": 58, "duration": 198, "velocity": 117}, {"time": 213598, "pitch": 70, "duration": 202, "velocity": 123}, {"time": 213839, "pitch": 57, "duration": 191, "velocity": 87}, {"time": 213839, "pitch": 69, "duration": 203, "velocity": 114}, {"time": 214080, "pitch": 55, "duration": 193, "velocity": 73}, {"time": 214080, "pitch": 67, "duration": 203, "velocity": 112}, {"time": 214320, "pitch": 53, "duration": 241, "velocity": 120}, {"time": 214320, "pitch": 65, "duration": 241, "velocity": 124}, {"time": 30962, "pitch": 60, "duration": 220, "velocity": 102}, {"time": 31203, "pitch": 65, "duration": 944, "velocity": 127}, {"time": 32156, "pitch": 60, "duration": 653, "velocity": 114}, {"time": 32879, "pitch": 65, "duration": 181, "velocity": 103}, {"time": 33120, "pitch": 67, "duration": 241, "velocity": 106}, {"time": 33361, "pitch": 65, "duration": 271, "velocity": 114}, {"time": 33602, "pitch": 64, "duration": 251, "velocity": 103}, {"time": 33842, "pitch": 65, "duration": 448, "velocity": 114}, {"time": 34319, "pitch": 60, "duration": 648, "velocity": 125}, {"time": 35037, "pitch": 69, "duration": 171, "velocity": 103}, {"time": 35278, "pitch": 69, "duration": 171, "velocity": 106}, {"time": 35519, "pitch": 69, "duration": 150, "velocity": 114}, {"time": 35760, "pitch": 69, "duration": 160, "velocity": 106}, {"time": 36001, "pitch": 67, "duration": 441, "velocity": 106}, {"time": 36482, "pitch": 67, "duration": 191, "velocity": 106}, {"time": 36723, "pitch": 65, "duration": 674, "velocity": 114}, {"time": 37436, "pitch": 65, "duration": 191, "velocity": 106}, {"time": 37677, "pitch": 67, "duration": 994, "velocity": 100}, {"time": 38641, "pitch": 60, "duration": 220, "velocity": 102}, {"time": 38881, "pitch": 65, "duration": 944, "velocity": 127}, {"time": 39835, "pitch": 60, "duration": 653, "velocity": 114}, {"time": 40558, "pitch": 65, "duration": 180, "velocity": 103}, {"time": 40799, "pitch": 67, "duration": 241, "velocity": 106}, {"time": 41040, "pitch": 65, "duration": 271, "velocity": 114}, {"time": 41280, "pitch": 64, "duration": 251, "velocity": 103}, {"time": 41521, "pitch": 65, "duration": 452, "velocity": 114}, {"time": 42003, "pitch": 60, "duration": 644, "velocity": 125}, {"time": 42716, "pitch": 69, "duration": 171, "velocity": 103}, {"time": 42957, "pitch": 69, "duration": 170, "velocity": 106}, {"time": 43198, "pitch": 69, "duration": 150, "velocity": 114}, {"time": 43439, "pitch": 69, "duration": 160, "velocity": 106}, {"time": 43679, "pitch": 67, "duration": 442, "velocity": 106}, {"time": 44161, "pitch": 67, "duration": 191, "velocity": 106}, {"time": 44402, "pitch": 65, "duration": 683, "velocity": 114}, {"time": 45125, "pitch": 65, "duration": 187, "velocity": 106}, {"time": 45361, "pitch": 67, "duration": 989, "velocity": 100}, {"time": 46560, "pitch": 65, "duration": 1367, "velocity": 127}, {"time": 48237, "pitch": 65, "duration": 261, "velocity": 122}, {"time": 48478, "pitch": 67, "duration": 271, "velocity": 97}, {"time": 48718, "pitch": 65, "duration": 362, "velocity": 114}, {"time": 49200, "pitch": 65, "duration": 914, "velocity": 127}, {"time": 50405, "pitch": 62, "duration": 383, "velocity": 112}, {"time": 50877, "pitch": 64, "duration": 240, "velocity": 95}, {"time": 51117, "pitch": 65, "duration": 422, "velocity": 97}, {"time": 51599, "pitch": 60, "duration": 532, "velocity": 95}, {"time": 52081, "pitch": 69, "duration": 452, "velocity": 114}, {"time": 52563, "pitch": 65, "duration": 190, "velocity": 106}, {"time": 52804, "pitch": 62, "duration": 236, "velocity": 103}, {"time": 53040, "pitch": 60, "duration": 118, "velocity": 106}, {"time": 53158, "pitch": 62, "duration": 118, "velocity": 106}, {"time": 53276, "pitch": 60, "duration": 783, "velocity": 112}, {"time": 54239, "pitch": 65, "duration": 1114, "velocity": 125}, {"time": 55444, "pitch": 64, "duration": 190, "velocity": 114}, {"time": 55684, "pitch": 65, "duration": 227, "velocity": 97}, {"time": 55920, "pitch": 67, "duration": 477, "velocity": 106}, {"time": 56397, "pitch": 65, "duration": 121, "velocity": 125}, {"time": 56638, "pitch": 65, "duration": 1154, "velocity": 122}, {"time": 57843, "pitch": 60, "duration": 200, "velocity": 114}, {"time": 58083, "pitch": 70, "duration": 168, "velocity": 127}, {"time": 58319, "pitch": 70, "duration": 247, "velocity": 114}, {"time": 58556, "pitch": 69, "duration": 291, "velocity": 97}, {"time": 58796, "pitch": 67, "duration": 241, "velocity": 114}, {"time": 59037, "pitch": 65, "duration": 231, "velocity": 102}, {"time": 59278, "pitch": 67, "duration": 321, "velocity": 112}, {"time": 59760, "pitch": 60, "duration": 201, "velocity": 106}, {"time": 60001, "pitch": 70, "duration": 190, "velocity": 127}, {"time": 60242, "pitch": 70, "duration": 170, "velocity": 125}, {"time": 60483, "pitch": 69, "duration": 180, "velocity": 106}, {"time": 60723, "pitch": 70, "duration": 399, "velocity": 125}, {"time": 61200, "pitch": 72, "duration": 327, "velocity": 127}, {"time": 61677, "pitch": 72, "duration": 1486, "velocity": 122}, {"time": 63122, "pitch": 69, "duration": 81, "velocity": 97}, {"time": 63243, "pitch": 67, "duration": 642, "velocity": 81}, {"time": 63835, "pitch": 77, "duration": 241, "velocity": 89}, {"time": 64076, "pitch": 76, "duration": 281, "velocity": 103}, {"time": 64317, "pitch": 77, "duration": 231, "velocity": 89}, {"time": 64558, "pitch": 72, "duration": 291, "velocity": 114}, {"time": 65040, "pitch": 72, "duration": 311, "velocity": 114}, {"time": 65521, "pitch": 72, "duration": 211, "velocity": 106}, {"time": 65762, "pitch": 70, "duration": 241, "velocity": 127}, {"time": 66003, "pitch": 72, "duration": 211, "velocity": 106}, {"time": 66244, "pitch": 74, "duration": 207, "velocity": 97}, {"time": 66480, "pitch": 72, "duration": 387, "velocity": 114}, {"time": 66957, "pitch": 72, "duration": 221, "velocity": 114}, {"time": 67198, "pitch": 74, "duration": 231, "velocity": 106}, {"time": 67439, "pitch": 76, "duration": 170, "velocity": 97}, {"time": 67680, "pitch": 77, "duration": 230, "velocity": 106}, {"time": 67921, "pitch": 76, "duration": 200, "velocity": 125}, {"time": 68161, "pitch": 77, "duration": 231, "velocity": 106}, {"time": 68402, "pitch": 72, "duration": 428, "velocity": 114}, {"time": 68879, "pitch": 79, "duration": 377, "velocity": 127}, {"time": 69356, "pitch": 77, "duration": 442, "velocity": 114}, {"time": 69838, "pitch": 76, "duration": 221, "velocity": 112}, {"time": 70079, "pitch": 77, "duration": 190, "velocity": 103}, {"time": 70320, "pitch": 77, "duration": 411, "velocity": 112}, {"time": 70801, "pitch": 72, "duration": 231, "velocity": 114}, {"time": 71042, "pitch": 74, "duration": 221, "velocity": 125}, {"time": 71283, "pitch": 76, "duration": 231, "velocity": 106}, {"time": 71524, "pitch": 77, "duration": 216, "velocity": 125}, {"time": 71760, "pitch": 76, "duration": 207, "velocity": 114}, {"time": 71996, "pitch": 77, "duration": 221, "velocity": 89}, {"time": 72237, "pitch": 72, "duration": 351, "velocity": 125}, {"time": 72719, "pitch": 72, "duration": 271, "velocity": 127}, {"time": 73200, "pitch": 72, "duration": 211, "velocity": 125}, {"time": 73441, "pitch": 70, "duration": 251, "velocity": 125}, {"time": 73682, "pitch": 72, "duration": 181, "velocity": 106}, {"time": 73923, "pitch": 74, "duration": 201, "velocity": 95}, {"time": 74164, "pitch": 72, "duration": 863, "velocity": 125}, {"time": 75118, "pitch": 72, "duration": 160, "velocity": 125}, {"time": 75359, "pitch": 77, "duration": 461, "velocity": 112}, {"time": 75840, "pitch": 72, "duration": 201, "velocity": 103}, {"time": 76081, "pitch": 77, "duration": 442, "velocity": 114}, {"time": 76563, "pitch": 72, "duration": 140, "velocity": 106}, {"time": 76804, "pitch": 72, "duration": 157, "velocity": 106}, {"time": 77040, "pitch": 77, "duration": 1771, "velocity": 112}, {"time": 86641, "pitch": 60, "duration": 221, "velocity": 102}, {"time": 86882, "pitch": 65, "duration": 944, "velocity": 127}, {"time": 87836, "pitch": 60, "duration": 652, "velocity": 114}, {"time": 88558, "pitch": 65, "duration": 181, "velocity": 103}, {"time": 88799, "pitch": 67, "duration": 241, "velocity": 106}, {"time": 89040, "pitch": 65, "duration": 271, "velocity": 114}, {"time": 89281, "pitch": 64, "duration": 251, "velocity": 103}, {"time": 89522, "pitch": 65, "duration": 451, "velocity": 114}, {"time": 90003, "pitch": 60, "duration": 644, "velocity": 125}, {"time": 90716, "pitch": 69, "duration": 171, "velocity": 103}, {"time": 90957, "pitch": 69, "duration": 171, "velocity": 106}, {"time": 91198, "pitch": 69, "duration": 151, "velocity": 114}, {"time": 91439, "pitch": 69, "duration": 160, "velocity": 106}, {"time": 91680, "pitch": 67, "duration": 441, "velocity": 106}, {"time": 92162, "pitch": 67, "duration": 190, "velocity": 106}, {"time": 92402, "pitch": 65, "duration": 674, "velocity": 114}, {"time": 93115, "pitch": 65, "duration": 191, "velocity": 106}, {"time": 93356, "pitch": 67, "duration": 994, "velocity": 100}, {"time": 94320, "pitch": 60, "duration": 221, "velocity": 102}, {"time": 94561, "pitch": 65, "duration": 953, "velocity": 127}, {"time": 95524, "pitch": 60, "duration": 643, "velocity": 114}, {"time": 96237, "pitch": 65, "duration": 181, "velocity": 103}, {"time": 96478, "pitch": 67, "duration": 241, "velocity": 106}, {"time": 96719, "pitch": 65, "duration": 271, "velocity": 114}, {"time": 96960, "pitch": 64, "duration": 251, "velocity": 103}, {"time": 97201, "pitch": 65, "duration": 451, "velocity": 114}, {"time": 97682, "pitch": 60, "duration": 644, "velocity": 125}, {"time": 98395, "pitch": 69, "duration": 171, "velocity": 103}, {"time": 98636, "pitch": 69, "duration": 171, "velocity": 106}, {"time": 98877, "pitch": 69, "duration": 150, "velocity": 114}, {"time": 99118, "pitch": 69, "duration": 160, "velocity": 106}, {"time": 99359, "pitch": 67, "duration": 441, "velocity": 106}, {"time": 99840, "pitch": 67, "duration": 191, "velocity": 106}, {"time": 100081, "pitch": 65, "duration": 683, "velocity": 114}, {"time": 100804, "pitch": 65, "duration": 187, "velocity": 106}, {"time": 101040, "pitch": 67, "duration": 989, "velocity": 100}, {"time": 102239, "pitch": 65, "duration": 1376, "velocity": 127}, {"time": 103921, "pitch": 65, "duration": 256, "velocity": 122}, {"time": 104157, "pitch": 67, "duration": 271, "velocity": 97}, {"time": 104398, "pitch": 65, "duration": 361, "velocity": 114}, {"time": 104879, "pitch": 65, "duration": 914, "velocity": 127}, {"time": 106084, "pitch": 62, "duration": 383, "velocity": 112}, {"time": 106556, "pitch": 64, "duration": 241, "velocity": 95}, {"time": 106797, "pitch": 65, "duration": 421, "velocity": 97}, {"time": 107278, "pitch": 60, "duration": 532, "velocity": 95}, {"time": 107760, "pitch": 69, "duration": 452, "velocity": 114}, {"time": 108242, "pitch": 65, "duration": 191, "velocity": 106}, {"time": 108483, "pitch": 62, "duration": 241, "velocity": 103}, {"time": 108724, "pitch": 60, "duration": 120, "velocity": 106}, {"time": 108844, "pitch": 62, "duration": 121, "velocity": 106}, {"time": 108965, "pitch": 60, "duration": 773, "velocity": 112}, {"time": 109918, "pitch": 65, "duration": 1114, "velocity": 125}, {"time": 111123, "pitch": 64, "duration": 190, "velocity": 114}, {"time": 111364, "pitch": 65, "duration": 226, "velocity": 97}, {"time": 111600, "pitch": 67, "duration": 476, "velocity": 106}, {"time": 112076, "pitch": 65, "duration": 121, "velocity": 125}, {"time": 112317, "pitch": 65, "duration": 1155, "velocity": 122}, {"time": 113522, "pitch": 60, "duration": 201, "velocity": 114}, {"time": 113763, "pitch": 70, "duration": 170, "velocity": 127}, {"time": 114004, "pitch": 70, "duration": 250, "velocity": 114}, {"time": 114244, "pitch": 69, "duration": 286, "velocity": 97}, {"time": 114480, "pitch": 67, "duration": 236, "velocity": 114}, {"time": 114716, "pitch": 65, "duration": 231, "velocity": 102}, {"time": 114957, "pitch": 67, "duration": 321, "velocity": 112}, {"time": 115439, "pitch": 60, "duration": 201, "velocity": 106}, {"time": 115680, "pitch": 70, "duration": 191, "velocity": 127}, {"time": 115921, "pitch": 70, "duration": 170, "velocity": 125}, {"time": 116162, "pitch": 69, "duration": 180, "velocity": 106}, {"time": 116403, "pitch": 70, "duration": 398, "velocity": 125}, {"time": 116879, "pitch": 72, "duration": 327, "velocity": 127}, {"time": 117356, "pitch": 72, "duration": 1486, "velocity": 122}, {"time": 118802, "pitch": 69, "duration": 80, "velocity": 97}, {"time": 118922, "pitch": 67, "duration": 651, "velocity": 81}, {"time": 119524, "pitch": 77, "duration": 236, "velocity": 89}, {"time": 119760, "pitch": 76, "duration": 276, "velocity": 103}, {"time": 119996, "pitch": 77, "duration": 231, "velocity": 89}, {"time": 120237, "pitch": 72, "duration": 291, "velocity": 114}, {"time": 120719, "pitch": 72, "duration": 311, "velocity": 114}, {"time": 121201, "pitch": 72, "duration": 210, "velocity": 106}, {"time": 121442, "pitch": 70, "duration": 240, "velocity": 127}, {"time": 121682, "pitch": 72, "duration": 211, "velocity": 106}, {"time": 121923, "pitch": 74, "duration": 207, "velocity": 97}, {"time": 122159, "pitch": 72, "duration": 387, "velocity": 114}, {"time": 122636, "pitch": 72, "duration": 221, "velocity": 114}, {"time": 122877, "pitch": 74, "duration": 231, "velocity": 106}, {"time": 123118, "pitch": 76, "duration": 171, "velocity": 97}, {"time": 123359, "pitch": 77, "duration": 231, "velocity": 106}, {"time": 123600, "pitch": 76, "duration": 200, "velocity": 125}, {"time": 123841, "pitch": 77, "duration": 230, "velocity": 106}, {"time": 124081, "pitch": 72, "duration": 432, "velocity": 114}, {"time": 124563, "pitch": 79, "duration": 379, "velocity": 127}, {"time": 125040, "pitch": 77, "duration": 437, "velocity": 114}, {"time": 125517, "pitch": 76, "duration": 221, "velocity": 112}, {"time": 125758, "pitch": 77, "duration": 191, "velocity": 103}, {"time": 125999, "pitch": 77, "duration": 411, "velocity": 112}, {"time": 126480, "pitch": 72, "duration": 231, "velocity": 114}, {"time": 126721, "pitch": 74, "duration": 221, "velocity": 125}, {"time": 126962, "pitch": 76, "duration": 231, "velocity": 106}, {"time": 127203, "pitch": 77, "duration": 216, "velocity": 125}, {"time": 127439, "pitch": 76, "duration": 207, "velocity": 114}, {"time": 127675, "pitch": 77, "duration": 221, "velocity": 89}, {"time": 127916, "pitch": 72, "duration": 351, "velocity": 125}, {"time": 128398, "pitch": 72, "duration": 271, "velocity": 127}, {"time": 128880, "pitch": 72, "duration": 210, "velocity": 125}, {"time": 129120, "pitch": 70, "duration": 251, "velocity": 125}, {"time": 129361, "pitch": 72, "duration": 181, "velocity": 106}, {"time": 129602, "pitch": 74, "duration": 201, "velocity": 95}, {"time": 129843, "pitch": 72, "duration": 863, "velocity": 125}, {"time": 130797, "pitch": 72, "duration": 160, "velocity": 125}, {"time": 131038, "pitch": 77, "duration": 461, "velocity": 112}, {"time": 131519, "pitch": 72, "duration": 201, "velocity": 103}, {"time": 131760, "pitch": 77, "duration": 442, "velocity": 114}, {"time": 132242, "pitch": 72, "duration": 141, "velocity": 106}, {"time": 132483, "pitch": 72, "duration": 161, "velocity": 106}, {"time": 132724, "pitch": 77, "duration": 1767, "velocity": 112}, {"time": 157919, "pitch": 77, "duration": 241, "velocity": 89}, {"time": 158160, "pitch": 76, "duration": 281, "velocity": 103}, {"time": 158400, "pitch": 77, "duration": 231, "velocity": 89}, {"time": 158641, "pitch": 72, "duration": 291, "velocity": 114}, {"time": 159123, "pitch": 72, "duration": 310, "velocity": 114}, {"time": 159600, "pitch": 72, "duration": 206, "velocity": 106}, {"time": 159836, "pitch": 70, "duration": 241, "velocity": 127}, {"time": 160077, "pitch": 72, "duration": 211, "velocity": 106}, {"time": 160318, "pitch": 74, "duration": 210, "velocity": 97}, {"time": 160559, "pitch": 72, "duration": 391, "velocity": 114}, {"time": 161040, "pitch": 72, "duration": 221, "velocity": 114}, {"time": 161281, "pitch": 74, "duration": 231, "velocity": 106}, {"time": 161522, "pitch": 76, "duration": 171, "velocity": 97}, {"time": 161763, "pitch": 77, "duration": 231, "velocity": 106}, {"time": 162004, "pitch": 76, "duration": 201, "velocity": 125}, {"time": 162245, "pitch": 77, "duration": 226, "velocity": 106}, {"time": 162481, "pitch": 72, "duration": 426, "velocity": 114}, {"time": 162958, "pitch": 79, "duration": 381, "velocity": 127}, {"time": 163439, "pitch": 77, "duration": 442, "velocity": 114}, {"time": 163921, "pitch": 76, "duration": 221, "velocity": 112}, {"time": 164162, "pitch": 77, "duration": 191, "velocity": 103}, {"time": 164403, "pitch": 77, "duration": 408, "velocity": 112}, {"time": 164880, "pitch": 72, "duration": 226, "velocity": 114}, {"time": 165116, "pitch": 74, "duration": 221, "velocity": 125}, {"time": 165357, "pitch": 76, "duration": 230, "velocity": 106}, {"time": 165597, "pitch": 77, "duration": 221, "velocity": 125}, {"time": 165838, "pitch": 76, "duration": 211, "velocity": 114}, {"time": 166079, "pitch": 77, "duration": 221, "velocity": 89}, {"time": 166320, "pitch": 72, "duration": 351, "velocity": 125}, {"time": 166802, "pitch": 72, "duration": 271, "velocity": 127}, {"time": 167284, "pitch": 72, "duration": 210, "velocity": 125}, {"time": 167524, "pitch": 70, "duration": 246, "velocity": 125}, {"time": 167761, "pitch": 72, "duration": 177, "velocity": 106}, {"time": 167997, "pitch": 74, "duration": 200, "velocity": 95}, {"time": 168237, "pitch": 72, "duration": 874, "velocity": 125}, {"time": 169201, "pitch": 72, "duration": 161, "velocity": 125}, {"time": 169442, "pitch": 77, "duration": 462, "velocity": 112}, {"time": 169924, "pitch": 72, "duration": 196, "velocity": 103}, {"time": 170160, "pitch": 77, "duration": 436, "velocity": 114}, {"time": 170636, "pitch": 72, "duration": 141, "velocity": 106}, {"time": 170877, "pitch": 72, "duration": 161, "velocity": 106}, {"time": 171118, "pitch": 77, "duration": 1775, "velocity": 112}, {"time": 173276, "pitch": 77, "duration": 241, "velocity": 89}, {"time": 173517, "pitch": 76, "duration": 281, "velocity": 103}, {"time": 173758, "pitch": 77, "duration": 231, "velocity": 89}, {"time": 173999, "pitch": 72, "duration": 291, "velocity": 114}, {"time": 174481, "pitch": 72, "duration": 311, "velocity": 114}, {"time": 174963, "pitch": 72, "duration": 210, "velocity": 106}, {"time": 175203, "pitch": 70, "duration": 236, "velocity": 127}, {"time": 175439, "pitch": 72, "duration": 207, "velocity": 106}, {"time": 175675, "pitch": 74, "duration": 211, "velocity": 97}, {"time": 175916, "pitch": 72, "duration": 392, "velocity": 114}, {"time": 176398, "pitch": 72, "duration": 221, "velocity": 114}, {"time": 176639, "pitch": 74, "duration": 231, "velocity": 106}, {"time": 176880, "pitch": 76, "duration": 170, "velocity": 97}, {"time": 177121, "pitch": 77, "duration": 231, "velocity": 106}, {"time": 177362, "pitch": 76, "duration": 200, "velocity": 125}, {"time": 177602, "pitch": 77, "duration": 231, "velocity": 106}, {"time": 177843, "pitch": 72, "duration": 428, "velocity": 114}, {"time": 178320, "pitch": 79, "duration": 377, "velocity": 127}, {"time": 178797, "pitch": 77, "duration": 442, "velocity": 114}, {"time": 179279, "pitch": 76, "duration": 221, "velocity": 112}, {"time": 179520, "pitch": 77, "duration": 190, "velocity": 103}, {"time": 179761, "pitch": 77, "duration": 411, "velocity": 112}, {"time": 180242, "pitch": 72, "duration": 231, "velocity": 114}, {"time": 180483, "pitch": 74, "duration": 217, "velocity": 125}, {"time": 180719, "pitch": 76, "duration": 226, "velocity": 106}, {"time": 180955, "pitch": 77, "duration": 221, "velocity": 125}, {"time": 181196, "pitch": 76, "duration": 211, "velocity": 114}, {"time": 181437, "pitch": 77, "duration": 221, "velocity": 89}, {"time": 181678, "pitch": 72, "duration": 351, "velocity": 125}, {"time": 182160, "pitch": 72, "duration": 271, "velocity": 127}, {"time": 182641, "pitch": 72, "duration": 211, "velocity": 125}, {"time": 182882, "pitch": 70, "duration": 251, "velocity": 125}, {"time": 183123, "pitch": 72, "duration": 181, "velocity": 106}, {"time": 183364, "pitch": 74, "duration": 197, "velocity": 95}, {"time": 183600, "pitch": 72, "duration": 868, "velocity": 125}, {"time": 184559, "pitch": 72, "duration": 160, "velocity": 125}, {"time": 184800, "pitch": 77, "duration": 461, "velocity": 112}, {"time": 185281, "pitch": 72, "duration": 201, "velocity": 103}, {"time": 185522, "pitch": 77, "duration": 442, "velocity": 114}, {"time": 186004, "pitch": 72, "duration": 141, "velocity": 106}, {"time": 186245, "pitch": 72, "duration": 157, "velocity": 106}, {"time": 186481, "pitch": 77, "duration": 1771, "velocity": 112}, {"time": 46560, "pitch": 74, "duration": 246, "velocity": 111}, {"time": 46801, "pitch": 72, "duration": 272, "velocity": 104}, {"time": 47042, "pitch": 70, "duration": 222, "velocity": 108}, {"time": 47283, "pitch": 72, "duration": 494, "velocity": 93}, {"time": 47760, "pitch": 77, "duration": 406, "velocity": 120}, {"time": 48237, "pitch": 77, "duration": 1935, "velocity": 121}, {"time": 50164, "pitch": 72, "duration": 245, "velocity": 108}, {"time": 50405, "pitch": 70, "duration": 234, "velocity": 111}, {"time": 50641, "pitch": 72, "duration": 249, "velocity": 108}, {"time": 50877, "pitch": 77, "duration": 237, "velocity": 117}, {"time": 51117, "pitch": 72, "duration": 527, "velocity": 111}, {"time": 51599, "pitch": 79, "duration": 469, "velocity": 121}, {"time": 52081, "pitch": 81, "duration": 968, "velocity": 104}, {"time": 53040, "pitch": 77, "duration": 1156, "velocity": 120}, {"time": 54239, "pitch": 74, "duration": 238, "velocity": 120}, {"time": 54480, "pitch": 72, "duration": 246, "velocity": 86}, {"time": 54721, "pitch": 70, "duration": 240, "velocity": 120}, {"time": 54962, "pitch": 72, "duration": 524, "velocity": 100}, {"time": 55444, "pitch": 77, "duration": 399, "velocity": 122}, {"time": 55920, "pitch": 77, "duration": 1921, "velocity": 117}, {"time": 57843, "pitch": 72, "duration": 242, "velocity": 100}, {"time": 58083, "pitch": 70, "duration": 208, "velocity": 111}, {"time": 58319, "pitch": 72, "duration": 259, "velocity": 104}, {"time": 58556, "pitch": 77, "duration": 230, "velocity": 117}, {"time": 58796, "pitch": 72, "duration": 492, "velocity": 112}, {"time": 59278, "pitch": 77, "duration": 449, "velocity": 121}, {"time": 59760, "pitch": 79, "duration": 3832, "velocity": 120}, {"time": 63835, "pitch": 72, "duration": 11539, "velocity": 63}, {"time": 63835, "pitch": 84, "duration": 11539, "velocity": 93}, {"time": 75359, "pitch": 73, "duration": 1014, "velocity": 74}, {"time": 75359, "pitch": 85, "duration": 994, "velocity": 117}, {"time": 76322, "pitch": 75, "duration": 916, "velocity": 59}, {"time": 76322, "pitch": 87, "duration": 932, "velocity": 117}, {"time": 77276, "pitch": 77, "duration": 1850, "velocity": 98}, {"time": 77276, "pitch": 89, "duration": 1868, "velocity": 100}, {"time": 102239, "pitch": 74, "duration": 246, "velocity": 111}, {"time": 102480, "pitch": 72, "duration": 272, "velocity": 104}, {"time": 102721, "pitch": 70, "duration": 222, "velocity": 108}, {"time": 102962, "pitch": 72, "duration": 499, "velocity": 93}, {"time": 103444, "pitch": 77, "duration": 408, "velocity": 120}, {"time": 103921, "pitch": 77, "duration": 1930, "velocity": 121}, {"time": 105843, "pitch": 72, "duration": 246, "velocity": 108}, {"time": 106084, "pitch": 70, "duration": 234, "velocity": 111}, {"time": 106320, "pitch": 72, "duration": 249, "velocity": 108}, {"time": 106556, "pitch": 77, "duration": 238, "velocity": 117}, {"time": 106797, "pitch": 72, "duration": 527, "velocity": 111}, {"time": 107278, "pitch": 79, "duration": 469, "velocity": 121}, {"time": 107760, "pitch": 81, "duration": 973, "velocity": 104}, {"time": 108724, "pitch": 77, "duration": 1151, "velocity": 120}, {"time": 109918, "pitch": 74, "duration": 238, "velocity": 120}, {"time": 110159, "pitch": 72, "duration": 246, "velocity": 86}, {"time": 110400, "pitch": 70, "duration": 240, "velocity": 120}, {"time": 110641, "pitch": 72, "duration": 524, "velocity": 100}, {"time": 111123, "pitch": 77, "duration": 399, "velocity": 122}, {"time": 111600, "pitch": 77, "duration": 1920, "velocity": 117}, {"time": 113522, "pitch": 72, "duration": 243, "velocity": 100}, {"time": 113763, "pitch": 70, "duration": 211, "velocity": 111}, {"time": 114004, "pitch": 72, "duration": 262, "velocity": 104}, {"time": 114244, "pitch": 77, "duration": 227, "velocity": 117}, {"time": 114480, "pitch": 72, "duration": 487, "velocity": 112}, {"time": 114957, "pitch": 77, "duration": 449, "velocity": 121}, {"time": 115439, "pitch": 79, "duration": 3837, "velocity": 120}, {"time": 119524, "pitch": 72, "duration": 11529, "velocity": 63}, {"time": 119524, "pitch": 84, "duration": 11529, "velocity": 93}, {"time": 131038, "pitch": 73, "duration": 1014, "velocity": 74}, {"time": 131038, "pitch": 85, "duration": 994, "velocity": 117}, {"time": 132001, "pitch": 75, "duration": 925, "velocity": 59}, {"time": 132001, "pitch": 87, "duration": 942, "velocity": 117}, {"time": 132965, "pitch": 77, "duration": 1840, "velocity": 98}, {"time": 132965, "pitch": 89, "duration": 1858, "velocity": 100}, {"time": 142079, "pitch": 91, "duration": 80, "velocity": 127}, {"time": 142200, "pitch": 82, "duration": 80, "velocity": 127}, {"time": 142320, "pitch": 87, "duration": 80, "velocity": 127}, {"time": 142440, "pitch": 91, "duration": 81, "velocity": 127}, {"time": 142561, "pitch": 92, "duration": 80, "velocity": 127}, {"time": 142681, "pitch": 89, "duration": 81, "velocity": 127}, {"time": 142802, "pitch": 84, "duration": 80, "velocity": 127}, {"time": 142922, "pitch": 80, "duration": 81, "velocity": 127}, {"time": 143043, "pitch": 77, "duration": 80, "velocity": 127}, {"time": 143163, "pitch": 72, "duration": 80, "velocity": 110}, {"time": 143284, "pitch": 68, "duration": 80, "velocity": 100}, {"time": 143404, "pitch": 65, "duration": 80, "velocity": 101}, {"time": 153121, "pitch": 77, "duration": 120, "velocity": 122}, {"time": 153241, "pitch": 79, "duration": 120, "velocity": 114}, {"time": 153361, "pitch": 81, "duration": 121, "velocity": 125}, {"time": 153482, "pitch": 82, "duration": 120, "velocity": 127}, {"time": 153602, "pitch": 84, "duration": 121, "velocity": 125}, {"time": 153723, "pitch": 86, "duration": 120, "velocity": 125}, {"time": 153843, "pitch": 88, "duration": 121, "velocity": 127}, {"time": 153964, "pitch": 89, "duration": 120, "velocity": 127}, {"time": 154084, "pitch": 91, "duration": 118, "velocity": 127}, {"time": 154320, "pitch": 84, "duration": 118, "velocity": 127}, {"time": 154556, "pitch": 91, "duration": 120, "velocity": 127}, {"time": 154797, "pitch": 84, "duration": 120, "velocity": 127}, {"time": 155038, "pitch": 91, "duration": 120, "velocity": 127}, {"time": 155279, "pitch": 84, "duration": 120, "velocity": 127}, {"time": 155520, "pitch": 91, "duration": 120, "velocity": 127}, {"time": 155760, "pitch": 84, "duration": 121, "velocity": 127}, {"time": 156001, "pitch": 96, "duration": 121, "velocity": 127}, {"time": 156242, "pitch": 84, "duration": 121, "velocity": 127}, {"time": 156483, "pitch": 96, "duration": 121, "velocity": 127}, {"time": 156724, "pitch": 84, "duration": 120, "velocity": 127}, {"time": 156965, "pitch": 96, "duration": 118, "velocity": 127}, {"time": 157201, "pitch": 84, "duration": 118, "velocity": 127}, {"time": 157437, "pitch": 96, "duration": 120, "velocity": 127}, {"time": 157678, "pitch": 84, "duration": 120, "velocity": 127}, {"time": 157919, "pitch": 72, "duration": 11538, "velocity": 63}, {"time": 157919, "pitch": 84, "duration": 11538, "velocity": 93}, {"time": 169442, "pitch": 73, "duration": 1005, "velocity": 74}, {"time": 169442, "pitch": 85, "duration": 985, "velocity": 117}, {"time": 170396, "pitch": 75, "duration": 924, "velocity": 59}, {"time": 170396, "pitch": 87, "duration": 941, "velocity": 117}, {"time": 171359, "pitch": 77, "duration": 1445, "velocity": 98}, {"time": 171359, "pitch": 89, "duration": 1445, "velocity": 100}, {"time": 172804, "pitch": 77, "duration": 118, "velocity": 89}, {"time": 172804, "pitch": 89, "duration": 118, "velocity": 106}, {"time": 172922, "pitch": 79, "duration": 118, "velocity": 86}, {"time": 172922, "pitch": 91, "duration": 118, "velocity": 103}, {"time": 173040, "pitch": 81, "duration": 118, "velocity": 110}, {"time": 173040, "pitch": 93, "duration": 118, "velocity": 112}, {"time": 173158, "pitch": 82, "duration": 118, "velocity": 106}, {"time": 173158, "pitch": 94, "duration": 118, "velocity": 127}, {"time": 173276, "pitch": 84, "duration": 101, "velocity": 127}, {"time": 173276, "pitch": 96, "duration": 81, "velocity": 127}, {"time": 173758, "pitch": 84, "duration": 90, "velocity": 127}, {"time": 173758, "pitch": 96, "duration": 70, "velocity": 127}, {"time": 174240, "pitch": 84, "duration": 80, "velocity": 127}, {"time": 174240, "pitch": 96, "duration": 90, "velocity": 127}, {"time": 174722, "pitch": 84, "duration": 90, "velocity": 127}, {"time": 174722, "pitch": 96, "duration": 80, "velocity": 127}, {"time": 175203, "pitch": 84, "duration": 99, "velocity": 127}, {"time": 175203, "pitch": 96, "duration": 79, "velocity": 127}, {"time": 175675, "pitch": 84, "duration": 91, "velocity": 127}, {"time": 175675, "pitch": 96, "duration": 71, "velocity": 127}, {"time": 176157, "pitch": 84, "duration": 80, "velocity": 127}, {"time": 176157, "pitch": 96, "duration": 91, "velocity": 127}, {"time": 176639, "pitch": 84, "duration": 90, "velocity": 127}, {"time": 176639, "pitch": 96, "duration": 80, "velocity": 127}, {"time": 177121, "pitch": 84, "duration": 100, "velocity": 127}, {"time": 177121, "pitch": 96, "duration": 80, "velocity": 127}, {"time": 177602, "pitch": 84, "duration": 91, "velocity": 127}, {"time": 177602, "pitch": 96, "duration": 71, "velocity": 127}, {"time": 178084, "pitch": 84, "duration": 79, "velocity": 127}, {"time": 178084, "pitch": 96, "duration": 89, "velocity": 127}, {"time": 178556, "pitch": 84, "duration": 91, "velocity": 127}, {"time": 178556, "pitch": 96, "duration": 80, "velocity": 127}, {"time": 179038, "pitch": 84, "duration": 100, "velocity": 127}, {"time": 179038, "pitch": 96, "duration": 80, "velocity": 127}, {"time": 179520, "pitch": 84, "duration": 90, "velocity": 127}, {"time": 179520, "pitch": 96, "duration": 70, "velocity": 127}, {"time": 180002, "pitch": 84, "duration": 80, "velocity": 127}, {"time": 180002, "pitch": 96, "duration": 90, "velocity": 127}, {"time": 180483, "pitch": 84, "duration": 89, "velocity": 127}, {"time": 180483, "pitch": 96, "duration": 79, "velocity": 127}, {"time": 180955, "pitch": 84, "duration": 101, "velocity": 127}, {"time": 180955, "pitch": 96, "duration": 81, "velocity": 127}, {"time": 181437, "pitch": 84, "duration": 90, "velocity": 127}, {"time": 181437, "pitch": 96, "duration": 70, "velocity": 127}, {"time": 181919, "pitch": 84, "duration": 80, "velocity": 127}, {"time": 181919, "pitch": 96, "duration": 90, "velocity": 127}, {"time": 182401, "pitch": 84, "duration": 90, "velocity": 127}, {"time": 182401, "pitch": 96, "duration": 80, "velocity": 127}, {"time": 182882, "pitch": 84, "duration": 101, "velocity": 127}, {"time": 182882, "pitch": 96, "duration": 81, "velocity": 127}, {"time": 183364, "pitch": 84, "duration": 89, "velocity": 127}, {"time": 183364, "pitch": 96, "duration": 69, "velocity": 127}, {"time": 183836, "pitch": 84, "duration": 80, "velocity": 127}, {"time": 183836, "pitch": 96, "duration": 90, "velocity": 127}, {"time": 184318, "pitch": 84, "duration": 90, "velocity": 127}, {"time": 184318, "pitch": 96, "duration": 80, "velocity": 127}, {"time": 184800, "pitch": 85, "duration": 120, "velocity": 103}, {"time": 184800, "pitch": 97, "duration": 120, "velocity": 127}, {"time": 185040, "pitch": 80, "duration": 121, "velocity": 97}, {"time": 185040, "pitch": 92, "duration": 121, "velocity": 125}, {"time": 185281, "pitch": 73, "duration": 121, "velocity": 112}, {"time": 185281, "pitch": 85, "duration": 121, "velocity": 122}, {"time": 185522, "pitch": 85, "duration": 121, "velocity": 127}, {"time": 185522, "pitch": 97, "duration": 121, "velocity": 127}, {"time": 185763, "pitch": 87, "duration": 121, "velocity": 109}, {"time": 185763, "pitch": 99, "duration": 121, "velocity": 127}, {"time": 186004, "pitch": 82, "duration": 120, "velocity": 103}, {"time": 186004, "pitch": 94, "duration": 120, "velocity": 127}, {"time": 186245, "pitch": 75, "duration": 118, "velocity": 106}, {"time": 186245, "pitch": 87, "duration": 118, "velocity": 125}, {"time": 186481, "pitch": 87, "duration": 118, "velocity": 127}, {"time": 186481, "pitch": 99, "duration": 118, "velocity": 127}, {"time": 186717, "pitch": 89, "duration": 120, "velocity": 103}, {"time": 186717, "pitch": 101, "duration": 120, "velocity": 123}, {"time": 186837, "pitch": 84, "duration": 121, "velocity": 99}, {"time": 186837, "pitch": 96, "duration": 121, "velocity": 112}, {"time": 186958, "pitch": 77, "duration": 120, "velocity": 97}, {"time": 186958, "pitch": 89, "duration": 120, "velocity": 106}, {"time": 187199, "pitch": 77, "duration": 1445, "velocity": 98}, {"time": 187199, "pitch": 89, "duration": 1445, "velocity": 100}, {"time": 196323, "pitch": 64, "duration": 42, "velocity": 59}, {"time": 196323, "pitch": 65, "duration": 445, "velocity": 95}, {"time": 196323, "pitch": 77, "duration": 414, "velocity": 117}, {"time": 196804, "pitch": 67, "duration": 272, "velocity": 87}, {"time": 196804, "pitch": 79, "duration": 211, "velocity": 114}, {"time": 197041, "pitch": 69, "duration": 523, "velocity": 87}, {"time": 197041, "pitch": 81, "duration": 501, "velocity": 108}, {"time": 197517, "pitch": 72, "duration": 236, "velocity": 86}, {"time": 197517, "pitch": 84, "duration": 228, "velocity": 112}, {"time": 197758, "pitch": 77, "duration": 2159, "velocity": 100}, {"time": 197758, "pitch": 89, "duration": 2136, "velocity": 108}, {"time": 199916, "pitch": 79, "duration": 237, "velocity": 90}, {"time": 199916, "pitch": 91, "duration": 237, "velocity": 111}, {"time": 200157, "pitch": 81, "duration": 497, "velocity": 98}, {"time": 200157, "pitch": 93, "duration": 462, "velocity": 114}, {"time": 200639, "pitch": 77, "duration": 169, "velocity": 98}, {"time": 200639, "pitch": 89, "duration": 184, "velocity": 108}, {"time": 200880, "pitch": 77, "duration": 495, "velocity": 93}, {"time": 200880, "pitch": 89, "duration": 475, "velocity": 117}, {"time": 201362, "pitch": 72, "duration": 254, "velocity": 73}, {"time": 201362, "pitch": 84, "duration": 246, "velocity": 93}, {"time": 201603, "pitch": 77, "duration": 1760, "velocity": 93}, {"time": 201603, "pitch": 89, "duration": 1813, "velocity": 120}, {"time": 203520, "pitch": 77, "duration": 120, "velocity": 100}, {"time": 203520, "pitch": 89, "duration": 120, "velocity": 120}, {"time": 203640, "pitch": 79, "duration": 121, "velocity": 100}, {"time": 203640, "pitch": 91, "duration": 121, "velocity": 120}, {"time": 203761, "pitch": 93, "duration": 120, "velocity": 120}, {"time": 203881, "pitch": 81, "duration": 121, "velocity": 100}, {"time": 203881, "pitch": 82, "duration": 121, "velocity": 100}, {"time": 203881, "pitch": 94, "duration": 121, "velocity": 120}, {"time": 204002, "pitch": 84, "duration": 7679, "velocity": 100}, {"time": 204002, "pitch": 96, "duration": 7679, "velocity": 100}, {"time": 211681, "pitch": 81, "duration": 974, "velocity": 112}, {"time": 211681, "pitch": 93, "duration": 985, "velocity": 123}, {"time": 212644, "pitch": 79, "duration": 965, "velocity": 120}, {"time": 212644, "pitch": 91, "duration": 911, "velocity": 122}, {"time": 213598, "pitch": 77, "duration": 150, "velocity": 117}, {"time": 213598, "pitch": 89, "duration": 165, "velocity": 120}, {"time": 213839, "pitch": 77, "duration": 110, "velocity": 112}, {"time": 213839, "pitch": 89, "duration": 104, "velocity": 114}, {"time": 214080, "pitch": 77, "duration": 97, "velocity": 122}, {"time": 214080, "pitch": 89, "duration": 92, "velocity": 120}, {"time": 214320, "pitch": 77, "duration": 133, "velocity": 126}, {"time": 214320, "pitch": 89, "duration": 138, "velocity": 125}, {"time": 46560, "pitch": 46, "duration": 179, "velocity": 122}, {"time": 46801, "pitch": 53, "duration": 113, "velocity": 100}, {"time": 47042, "pitch": 58, "duration": 132, "velocity": 122}, {"time": 47283, "pitch": 53, "duration": 94, "velocity": 76}, {"time": 47524, "pitch": 62, "duration": 128, "velocity": 120}, {"time": 47760, "pitch": 53, "duration": 96, "velocity": 85}, {"time": 47996, "pitch": 58, "duration": 112, "velocity": 122}, {"time": 48237, "pitch": 53, "duration": 132, "velocity": 104}, {"time": 48478, "pitch": 45, "duration": 222, "velocity": 112}, {"time": 48718, "pitch": 53, "duration": 106, "velocity": 90}, {"time": 48959, "pitch": 57, "duration": 103, "velocity": 117}, {"time": 49200, "pitch": 53, "duration": 103, "velocity": 83}, {"time": 49441, "pitch": 60, "duration": 136, "velocity": 120}, {"time": 49682, "pitch": 53, "duration": 99, "velocity": 83}, {"time": 49923, "pitch": 57, "duration": 94, "velocity": 122}, {"time": 50164, "pitch": 53, "duration": 96, "velocity": 95}, {"time": 50405, "pitch": 43, "duration": 220, "velocity": 111}, {"time": 50641, "pitch": 53, "duration": 90, "velocity": 90}, {"time": 50877, "pitch": 58, "duration": 113, "velocity": 122}, {"time": 51117, "pitch": 53, "duration": 90, "velocity": 81}, {"time": 51358, "pitch": 60, "duration": 153, "velocity": 120}, {"time": 51599, "pitch": 53, "duration": 98, "velocity": 76}, {"time": 51840, "pitch": 58, "duration": 122, "velocity": 120}, {"time": 52081, "pitch": 53, "duration": 115, "velocity": 85}, {"time": 52322, "pitch": 41, "duration": 212, "velocity": 111}, {"time": 52563, "pitch": 53, "duration": 108, "velocity": 90}, {"time": 52804, "pitch": 60, "duration": 145, "velocity": 121}, {"time": 53040, "pitch": 53, "duration": 88, "velocity": 81}, {"time": 53276, "pitch": 57, "duration": 129, "velocity": 121}, {"time": 53517, "pitch": 53, "duration": 89, "velocity": 74}, {"time": 53757, "pitch": 60, "duration": 139, "velocity": 122}, {"time": 53998, "pitch": 53, "duration": 121, "velocity": 95}, {"time": 54239, "pitch": 46, "duration": 221, "velocity": 120}, {"time": 54480, "pitch": 53, "duration": 113, "velocity": 93}, {"time": 54721, "pitch": 62, "duration": 111, "velocity": 121}, {"time": 54962, "pitch": 53, "duration": 94, "velocity": 83}, {"time": 55203, "pitch": 65, "duration": 103, "velocity": 114}, {"time": 55444, "pitch": 53, "duration": 95, "velocity": 83}, {"time": 55684, "pitch": 58, "duration": 125, "velocity": 121}, {"time": 55920, "pitch": 53, "duration": 144, "velocity": 98}, {"time": 56157, "pitch": 45, "duration": 223, "velocity": 108}, {"time": 56397, "pitch": 53, "duration": 111, "velocity": 87}, {"time": 56638, "pitch": 60, "duration": 137, "velocity": 120}, {"time": 56879, "pitch": 57, "duration": 91, "velocity": 95}, {"time": 57120, "pitch": 65, "duration": 127, "velocity": 117}, {"time": 57361, "pitch": 57, "duration": 103, "velocity": 76}, {"time": 57602, "pitch": 60, "duration": 151, "velocity": 121}, {"time": 57843, "pitch": 53, "duration": 95, "velocity": 100}, {"time": 58083, "pitch": 43, "duration": 249, "velocity": 111}, {"time": 58319, "pitch": 53, "duration": 103, "velocity": 93}, {"time": 58556, "pitch": 55, "duration": 123, "velocity": 117}, {"time": 58796, "pitch": 53, "duration": 103, "velocity": 90}, {"time": 59037, "pitch": 58, "duration": 142, "velocity": 122}, {"time": 59278, "pitch": 53, "duration": 91, "velocity": 83}, {"time": 59519, "pitch": 58, "duration": 117, "velocity": 122}, {"time": 59760, "pitch": 53, "duration": 104, "velocity": 93}, {"time": 60001, "pitch": 43, "duration": 212, "velocity": 111}, {"time": 60242, "pitch": 53, "duration": 115, "velocity": 111}, {"time": 60483, "pitch": 58, "duration": 131, "velocity": 122}, {"time": 60723, "pitch": 53, "duration": 170, "velocity": 112}, {"time": 60964, "pitch": 43, "duration": 255, "velocity": 114}, {"time": 61200, "pitch": 53, "duration": 100, "velocity": 108}, {"time": 61436, "pitch": 58, "duration": 140, "velocity": 122}, {"time": 61677, "pitch": 53, "duration": 127, "velocity": 114}, {"time": 61918, "pitch": 48, "duration": 246, "velocity": 122}, {"time": 62159, "pitch": 55, "duration": 111, "velocity": 95}, {"time": 62400, "pitch": 60, "duration": 152, "velocity": 122}, {"time": 62641, "pitch": 55, "duration": 118, "velocity": 108}, {"time": 62882, "pitch": 58, "duration": 125, "velocity": 122}, {"time": 63122, "pitch": 55, "duration": 122, "velocity": 108}, {"time": 63363, "pitch": 48, "duration": 157, "velocity": 117}, {"time": 63599, "pitch": 43, "duration": 102, "velocity": 98}, {"time": 63835, "pitch": 57, "duration": 489, "velocity": 121}, {"time": 64317, "pitch": 58, "duration": 263, "velocity": 120}, {"time": 64558, "pitch": 60, "duration": 356, "velocity": 100}, {"time": 65040, "pitch": 55, "duration": 439, "velocity": 121}, {"time": 65521, "pitch": 53, "duration": 1118, "velocity": 121}, {"time": 66716, "pitch": 53, "duration": 512, "velocity": 108}, {"time": 67198, "pitch": 55, "duration": 520, "velocity": 114}, {"time": 67680, "pitch": 57, "duration": 435, "velocity": 122}, {"time": 68161, "pitch": 58, "duration": 286, "velocity": 120}, {"time": 68402, "pitch": 60, "duration": 433, "velocity": 111}, {"time": 68879, "pitch": 62, "duration": 212, "velocity": 117}, {"time": 69115, "pitch": 60, "duration": 1447, "velocity": 100}, {"time": 70560, "pitch": 65, "duration": 517, "velocity": 120}, {"time": 71042, "pitch": 67, "duration": 459, "velocity": 114}, {"time": 71524, "pitch": 57, "duration": 447, "velocity": 86}, {"time": 71524, "pitch": 69, "duration": 464, "velocity": 117}, {"time": 71996, "pitch": 58, "duration": 255, "velocity": 95}, {"time": 71996, "pitch": 70, "duration": 287, "velocity": 121}, {"time": 72237, "pitch": 60, "duration": 270, "velocity": 77}, {"time": 72237, "pitch": 72, "duration": 287, "velocity": 108}, {"time": 72719, "pitch": 55, "duration": 319, "velocity": 85}, {"time": 72719, "pitch": 67, "duration": 328, "velocity": 122}, {"time": 73200, "pitch": 53, "duration": 1055, "velocity": 77}, {"time": 73200, "pitch": 65, "duration": 1104, "velocity": 120}, {"time": 74405, "pitch": 53, "duration": 511, "velocity": 90}, {"time": 74405, "pitch": 65, "duration": 498, "velocity": 114}, {"time": 74877, "pitch": 55, "duration": 519, "velocity": 87}, {"time": 74877, "pitch": 67, "duration": 478, "velocity": 117}, {"time": 75359, "pitch": 56, "duration": 956, "velocity": 108}, {"time": 75359, "pitch": 65, "duration": 952, "velocity": 111}, {"time": 76322, "pitch": 58, "duration": 1006, "velocity": 114}, {"time": 76322, "pitch": 67, "duration": 1001, "velocity": 93}, {"time": 77276, "pitch": 60, "duration": 1820, "velocity": 81}, {"time": 77276, "pitch": 69, "duration": 1821, "velocity": 93}, {"time": 102239, "pitch": 46, "duration": 179, "velocity": 122}, {"time": 102480, "pitch": 53, "duration": 113, "velocity": 100}, {"time": 102721, "pitch": 58, "duration": 132, "velocity": 122}, {"time": 102962, "pitch": 53, "duration": 94, "velocity": 76}, {"time": 103203, "pitch": 62, "duration": 130, "velocity": 120}, {"time": 103444, "pitch": 53, "duration": 98, "velocity": 85}, {"time": 103685, "pitch": 58, "duration": 110, "velocity": 122}, {"time": 103921, "pitch": 53, "duration": 130, "velocity": 104}, {"time": 104157, "pitch": 45, "duration": 223, "velocity": 112}, {"time": 104398, "pitch": 53, "duration": 105, "velocity": 90}, {"time": 104638, "pitch": 57, "duration": 103, "velocity": 117}, {"time": 104879, "pitch": 53, "duration": 103, "velocity": 83}, {"time": 105120, "pitch": 60, "duration": 136, "velocity": 120}, {"time": 105361, "pitch": 53, "duration": 100, "velocity": 83}, {"time": 105602, "pitch": 57, "duration": 94, "velocity": 122}, {"time": 105843, "pitch": 53, "duration": 96, "velocity": 95}, {"time": 106084, "pitch": 43, "duration": 220, "velocity": 111}, {"time": 106320, "pitch": 53, "duration": 90, "velocity": 90}, {"time": 106556, "pitch": 58, "duration": 113, "velocity": 122}, {"time": 106797, "pitch": 53, "duration": 89, "velocity": 81}, {"time": 107038, "pitch": 60, "duration": 152, "velocity": 120}, {"time": 107278, "pitch": 53, "duration": 98, "velocity": 76}, {"time": 107519, "pitch": 58, "duration": 122, "velocity": 120}, {"time": 107760, "pitch": 53, "duration": 116, "velocity": 85}, {"time": 108001, "pitch": 41, "duration": 212, "velocity": 111}, {"time": 108242, "pitch": 53, "duration": 108, "velocity": 90}, {"time": 108483, "pitch": 60, "duration": 148, "velocity": 121}, {"time": 108724, "pitch": 53, "duration": 90, "velocity": 81}, {"time": 108965, "pitch": 57, "duration": 126, "velocity": 121}, {"time": 109201, "pitch": 53, "duration": 87, "velocity": 74}, {"time": 109437, "pitch": 60, "duration": 138, "velocity": 122}, {"time": 109677, "pitch": 53, "duration": 121, "velocity": 95}, {"time": 109918, "pitch": 46, "duration": 221, "velocity": 120}, {"time": 110159, "pitch": 53, "duration": 114, "velocity": 93}, {"time": 110400, "pitch": 62, "duration": 112, "velocity": 121}, {"time": 110641, "pitch": 53, "duration": 94, "velocity": 83}, {"time": 110882, "pitch": 65, "duration": 103, "velocity": 114}, {"time": 111123, "pitch": 53, "duration": 95, "velocity": 83}, {"time": 111364, "pitch": 58, "duration": 124, "velocity": 121}, {"time": 111600, "pitch": 53, "duration": 143, "velocity": 98}, {"time": 111836, "pitch": 45, "duration": 223, "velocity": 108}, {"time": 112076, "pitch": 53, "duration": 111, "velocity": 87}, {"time": 112317, "pitch": 60, "duration": 137, "velocity": 120}, {"time": 112558, "pitch": 57, "duration": 92, "velocity": 95}, {"time": 112799, "pitch": 65, "duration": 128, "velocity": 117}, {"time": 113040, "pitch": 57, "duration": 103, "velocity": 76}, {"time": 113281, "pitch": 60, "duration": 151, "velocity": 121}, {"time": 113522, "pitch": 53, "duration": 95, "velocity": 100}, {"time": 113763, "pitch": 43, "duration": 254, "velocity": 111}, {"time": 114004, "pitch": 53, "duration": 104, "velocity": 93}, {"time": 114244, "pitch": 55, "duration": 121, "velocity": 117}, {"time": 114480, "pitch": 53, "duration": 101, "velocity": 90}, {"time": 114716, "pitch": 58, "duration": 142, "velocity": 122}, {"time": 114957, "pitch": 53, "duration": 92, "velocity": 83}, {"time": 115198, "pitch": 58, "duration": 118, "velocity": 122}, {"time": 115439, "pitch": 53, "duration": 104, "velocity": 93}, {"time": 115680, "pitch": 43, "duration": 212, "velocity": 111}, {"time": 115921, "pitch": 53, "duration": 115, "velocity": 111}, {"time": 116162, "pitch": 58, "duration": 131, "velocity": 122}, {"time": 116403, "pitch": 53, "duration": 169, "velocity": 112}, {"time": 116643, "pitch": 43, "duration": 255, "velocity": 114}, {"time": 116879, "pitch": 53, "duration": 100, "velocity": 108}, {"time": 117116, "pitch": 58, "duration": 139, "velocity": 122}, {"time": 117356, "pitch": 53, "duration": 127, "velocity": 114}, {"time": 117597, "pitch": 48, "duration": 246, "velocity": 122}, {"time": 117838, "pitch": 55, "duration": 111, "velocity": 95}, {"time": 118079, "pitch": 60, "duration": 153, "velocity": 122}, {"time": 118320, "pitch": 55, "duration": 118, "velocity": 108}, {"time": 118561, "pitch": 58, "duration": 125, "velocity": 122}, {"time": 118802, "pitch": 55, "duration": 121, "velocity": 108}, {"time": 119043, "pitch": 48, "duration": 159, "velocity": 117}, {"time": 119283, "pitch": 43, "duration": 104, "velocity": 98}, {"time": 119524, "pitch": 57, "duration": 479, "velocity": 121}, {"time": 119996, "pitch": 58, "duration": 263, "velocity": 120}, {"time": 120237, "pitch": 60, "duration": 356, "velocity": 100}, {"time": 120719, "pitch": 55, "duration": 439, "velocity": 121}, {"time": 121201, "pitch": 53, "duration": 1118, "velocity": 121}, {"time": 122395, "pitch": 53, "duration": 512, "velocity": 108}, {"time": 122877, "pitch": 55, "duration": 520, "velocity": 114}, {"time": 123359, "pitch": 57, "duration": 435, "velocity": 122}, {"time": 123841, "pitch": 58, "duration": 286, "velocity": 120}, {"time": 124081, "pitch": 60, "duration": 437, "velocity": 111}, {"time": 124563, "pitch": 62, "duration": 216, "velocity": 117}, {"time": 124804, "pitch": 60, "duration": 1438, "velocity": 100}, {"time": 126240, "pitch": 65, "duration": 517, "velocity": 120}, {"time": 126721, "pitch": 67, "duration": 459, "velocity": 114}, {"time": 127203, "pitch": 57, "duration": 448, "velocity": 86}, {"time": 127203, "pitch": 69, "duration": 464, "velocity": 117}, {"time": 127675, "pitch": 58, "duration": 255, "velocity": 95}, {"time": 127675, "pitch": 70, "duration": 287, "velocity": 121}, {"time": 127916, "pitch": 60, "duration": 270, "velocity": 77}, {"time": 127916, "pitch": 72, "duration": 287, "velocity": 108}, {"time": 128398, "pitch": 55, "duration": 319, "velocity": 85}, {"time": 128398, "pitch": 67, "duration": 328, "velocity": 122}, {"time": 128880, "pitch": 53, "duration": 1054, "velocity": 77}, {"time": 128880, "pitch": 65, "duration": 1104, "velocity": 120}, {"time": 130084, "pitch": 53, "duration": 511, "velocity": 90}, {"time": 130084, "pitch": 65, "duration": 498, "velocity": 114}, {"time": 130556, "pitch": 55, "duration": 519, "velocity": 87}, {"time": 130556, "pitch": 67, "duration": 479, "velocity": 117}, {"time": 131038, "pitch": 56, "duration": 956, "velocity": 108}, {"time": 131038, "pitch": 65, "duration": 952, "velocity": 111}, {"time": 132001, "pitch": 58, "duration": 1015, "velocity": 114}, {"time": 132001, "pitch": 67, "duration": 1010, "velocity": 93}, {"time": 132965, "pitch": 61, "duration": 1811, "velocity": 81}, {"time": 132965, "pitch": 65, "duration": 1812, "velocity": 93}, {"time": 134882, "pitch": 68, "duration": 110, "velocity": 125}, {"time": 135123, "pitch": 61, "duration": 90, "velocity": 97}, {"time": 135364, "pitch": 68, "duration": 128, "velocity": 125}, {"time": 135600, "pitch": 61, "duration": 88, "velocity": 114}, {"time": 135836, "pitch": 68, "duration": 130, "velocity": 125}, {"time": 136077, "pitch": 61, "duration": 100, "velocity": 125}, {"time": 136318, "pitch": 68, "duration": 120, "velocity": 122}, {"time": 136558, "pitch": 61, "duration": 81, "velocity": 114}, {"time": 136799, "pitch": 68, "duration": 121, "velocity": 125}, {"time": 137040, "pitch": 60, "duration": 90, "velocity": 106}, {"time": 137281, "pitch": 68, "duration": 110, "velocity": 127}, {"time": 137522, "pitch": 60, "duration": 90, "velocity": 106}, {"time": 137763, "pitch": 68, "duration": 120, "velocity": 125}, {"time": 138004, "pitch": 60, "duration": 100, "velocity": 114}, {"time": 138244, "pitch": 68, "duration": 109, "velocity": 127}, {"time": 138481, "pitch": 60, "duration": 98, "velocity": 112}, {"time": 138717, "pitch": 66, "duration": 120, "velocity": 125}, {"time": 138957, "pitch": 61, "duration": 91, "velocity": 106}, {"time": 139198, "pitch": 66, "duration": 111, "velocity": 127}, {"time": 139439, "pitch": 61, "duration": 91, "velocity": 106}, {"time": 139680, "pitch": 66, "duration": 121, "velocity": 125}, {"time": 139921, "pitch": 61, "duration": 100, "velocity": 114}, {"time": 140162, "pitch": 66, "duration": 110, "velocity": 127}, {"time": 140403, "pitch": 61, "duration": 100, "velocity": 112}, {"time": 140644, "pitch": 65, "duration": 118, "velocity": 125}, {"time": 140880, "pitch": 61, "duration": 88, "velocity": 106}, {"time": 141116, "pitch": 65, "duration": 110, "velocity": 127}, {"time": 141356, "pitch": 61, "duration": 91, "velocity": 106}, {"time": 141597, "pitch": 65, "duration": 121, "velocity": 125}, {"time": 141838, "pitch": 61, "duration": 101, "velocity": 114}, {"time": 142079, "pitch": 67, "duration": 111, "velocity": 127}, {"time": 142320, "pitch": 63, "duration": 100, "velocity": 112}, {"time": 142561, "pitch": 53, "duration": 140, "velocity": 125}, {"time": 143043, "pitch": 53, "duration": 688, "velocity": 125}, {"time": 143760, "pitch": 55, "duration": 187, "velocity": 106}, {"time": 143996, "pitch": 53, "duration": 482, "velocity": 114}, {"time": 144478, "pitch": 52, "duration": 723, "velocity": 125}, {"time": 145201, "pitch": 60, "duration": 712, "velocity": 103}, {"time": 145923, "pitch": 52, "duration": 423, "velocity": 125}, {"time": 146396, "pitch": 51, "duration": 110, "velocity": 127}, {"time": 146877, "pitch": 51, "duration": 693, "velocity": 127}, {"time": 147600, "pitch": 53, "duration": 221, "velocity": 122}, {"time": 147841, "pitch": 51, "duration": 381, "velocity": 127}, {"time": 148322, "pitch": 50, "duration": 1265, "velocity": 125}, {"time": 149517, "pitch": 58, "duration": 181, "velocity": 127}, {"time": 149758, "pitch": 50, "duration": 371, "velocity": 125}, {"time": 150240, "pitch": 49, "duration": 120, "velocity": 127}, {"time": 150722, "pitch": 49, "duration": 707, "velocity": 127}, {"time": 151439, "pitch": 51, "duration": 217, "velocity": 127}, {"time": 151675, "pitch": 53, "duration": 432, "velocity": 122}, {"time": 152157, "pitch": 48, "duration": 693, "velocity": 127}, {"time": 152880, "pitch": 53, "duration": 712, "velocity": 114}, {"time": 153121, "pitch": 69, "duration": 120, "velocity": 127}, {"time": 153361, "pitch": 65, "duration": 121, "velocity": 127}, {"time": 153602, "pitch": 60, "duration": 121, "velocity": 127}, {"time": 153723, "pitch": 60, "duration": 311, "velocity": 125}, {"time": 153843, "pitch": 53, "duration": 121, "velocity": 127}, {"time": 154084, "pitch": 43, "duration": 208, "velocity": 111}, {"time": 154320, "pitch": 53, "duration": 113, "velocity": 111}, {"time": 154556, "pitch": 58, "duration": 132, "velocity": 122}, {"time": 154797, "pitch": 53, "duration": 170, "velocity": 112}, {"time": 155038, "pitch": 43, "duration": 260, "velocity": 114}, {"time": 155279, "pitch": 53, "duration": 101, "velocity": 108}, {"time": 155520, "pitch": 58, "duration": 139, "velocity": 122}, {"time": 155760, "pitch": 53, "duration": 127, "velocity": 114}, {"time": 156001, "pitch": 48, "duration": 246, "velocity": 122}, {"time": 156242, "pitch": 55, "duration": 112, "velocity": 95}, {"time": 156483, "pitch": 60, "duration": 153, "velocity": 122}, {"time": 156724, "pitch": 55, "duration": 118, "velocity": 108}, {"time": 156965, "pitch": 58, "duration": 123, "velocity": 122}, {"time": 157201, "pitch": 55, "duration": 119, "velocity": 108}, {"time": 157437, "pitch": 48, "duration": 159, "velocity": 117}, {"time": 157678, "pitch": 43, "duration": 103, "velocity": 98}, {"time": 157919, "pitch": 57, "duration": 488, "velocity": 121}, {"time": 158400, "pitch": 58, "duration": 263, "velocity": 120}, {"time": 158641, "pitch": 60, "duration": 357, "velocity": 100}, {"time": 159123, "pitch": 55, "duration": 436, "velocity": 121}, {"time": 159600, "pitch": 53, "duration": 1121, "velocity": 121}, {"time": 160799, "pitch": 53, "duration": 512, "velocity": 108}, {"time": 161281, "pitch": 55, "duration": 520, "velocity": 114}, {"time": 161763, "pitch": 57, "duration": 436, "velocity": 122}, {"time": 162245, "pitch": 58, "duration": 280, "velocity": 120}, {"time": 162481, "pitch": 60, "duration": 431, "velocity": 111}, {"time": 162958, "pitch": 62, "duration": 215, "velocity": 117}, {"time": 163198, "pitch": 60, "duration": 1448, "velocity": 100}, {"time": 164644, "pitch": 65, "duration": 507, "velocity": 120}, {"time": 165116, "pitch": 67, "duration": 458, "velocity": 114}, {"time": 165597, "pitch": 57, "duration": 457, "velocity": 86}, {"time": 165597, "pitch": 69, "duration": 474, "velocity": 117}, {"time": 166079, "pitch": 58, "duration": 255, "velocity": 95}, {"time": 166079, "pitch": 70, "duration": 287, "velocity": 121}, {"time": 166320, "pitch": 60, "duration": 270, "velocity": 77}, {"time": 166320, "pitch": 72, "duration": 287, "velocity": 108}, {"time": 166802, "pitch": 55, "duration": 319, "velocity": 85}, {"time": 166802, "pitch": 67, "duration": 328, "velocity": 122}, {"time": 167284, "pitch": 53, "duration": 1045, "velocity": 77}, {"time": 167284, "pitch": 65, "duration": 1094, "velocity": 120}, {"time": 168478, "pitch": 53, "duration": 521, "velocity": 90}, {"time": 168478, "pitch": 65, "duration": 508, "velocity": 114}, {"time": 168960, "pitch": 55, "duration": 519, "velocity": 87}, {"time": 168960, "pitch": 67, "duration": 479, "velocity": 117}, {"time": 169442, "pitch": 56, "duration": 947, "velocity": 108}, {"time": 169442, "pitch": 65, "duration": 943, "velocity": 111}, {"time": 170396, "pitch": 58, "duration": 1015, "velocity": 114}, {"time": 170396, "pitch": 67, "duration": 1010, "velocity": 93}, {"time": 171359, "pitch": 60, "duration": 1813, "velocity": 81}, {"time": 171359, "pitch": 69, "duration": 1814, "velocity": 93}, {"time": 173276, "pitch": 57, "duration": 489, "velocity": 121}, {"time": 173758, "pitch": 58, "duration": 263, "velocity": 120}, {"time": 173999, "pitch": 60, "duration": 356, "velocity": 100}, {"time": 174481, "pitch": 55, "duration": 439, "velocity": 121}, {"time": 174963, "pitch": 53, "duration": 1116, "velocity": 121}, {"time": 176157, "pitch": 53, "duration": 512, "velocity": 108}, {"time": 176639, "pitch": 55, "duration": 520, "velocity": 114}, {"time": 177121, "pitch": 57, "duration": 435, "velocity": 122}, {"time": 177602, "pitch": 58, "duration": 287, "velocity": 120}, {"time": 177843, "pitch": 60, "duration": 433, "velocity": 111}, {"time": 178320, "pitch": 62, "duration": 212, "velocity": 117}, {"time": 178556, "pitch": 60, "duration": 1448, "velocity": 100}, {"time": 180002, "pitch": 65, "duration": 516, "velocity": 120}, {"time": 180483, "pitch": 67, "duration": 450, "velocity": 114}, {"time": 180955, "pitch": 57, "duration": 457, "velocity": 86}, {"time": 180955, "pitch": 69, "duration": 474, "velocity": 117}, {"time": 181437, "pitch": 58, "duration": 255, "velocity": 95}, {"time": 181437, "pitch": 70, "duration": 287, "velocity": 121}, {"time": 181678, "pitch": 60, "duration": 270, "velocity": 77}, {"time": 181678, "pitch": 72, "duration": 287, "velocity": 108}, {"time": 182160, "pitch": 55, "duration": 319, "velocity": 85}, {"time": 182160, "pitch": 67, "duration": 328, "velocity": 122}, {"time": 182641, "pitch": 53, "duration": 1049, "velocity": 77}, {"time": 182641, "pitch": 65, "duration": 1097, "velocity": 120}, {"time": 183836, "pitch": 53, "duration": 521, "velocity": 90}, {"time": 183836, "pitch": 65, "duration": 508, "velocity": 114}, {"time": 184318, "pitch": 55, "duration": 519, "velocity": 87}, {"time": 184318, "pitch": 67, "duration": 479, "velocity": 117}, {"time": 184800, "pitch": 56, "duration": 956, "velocity": 108}, {"time": 184800, "pitch": 65, "duration": 952, "velocity": 111}, {"time": 185763, "pitch": 58, "duration": 1006, "velocity": 114}, {"time": 185763, "pitch": 67, "duration": 1001, "velocity": 93}, {"time": 186717, "pitch": 60, "duration": 1821, "velocity": 81}, {"time": 186717, "pitch": 69, "duration": 1822, "velocity": 93}, {"time": 204002, "pitch": 53, "duration": 461, "velocity": 95}, {"time": 204002, "pitch": 65, "duration": 453, "velocity": 108}, {"time": 204483, "pitch": 55, "duration": 267, "velocity": 76}, {"time": 204483, "pitch": 67, "duration": 221, "velocity": 111}, {"time": 204719, "pitch": 57, "duration": 494, "velocity": 86}, {"time": 204719, "pitch": 69, "duration": 479, "velocity": 95}, {"time": 205196, "pitch": 60, "duration": 212, "velocity": 85}, {"time": 205196, "pitch": 72, "duration": 240, "velocity": 112}, {"time": 205437, "pitch": 65, "duration": 2156, "velocity": 87}, {"time": 205437, "pitch": 77, "duration": 2148, "velocity": 108}, {"time": 207600, "pitch": 67, "duration": 218, "velocity": 85}, {"time": 207600, "pitch": 79, "duration": 259, "velocity": 104}, {"time": 207836, "pitch": 69, "duration": 502, "velocity": 100}, {"time": 207836, "pitch": 81, "duration": 464, "velocity": 100}, {"time": 208318, "pitch": 65, "duration": 159, "velocity": 79}, {"time": 208318, "pitch": 77, "duration": 169, "velocity": 93}, {"time": 208559, "pitch": 65, "duration": 496, "velocity": 90}, {"time": 208559, "pitch": 77, "duration": 480, "velocity": 114}, {"time": 209041, "pitch": 60, "duration": 262, "velocity": 72}, {"time": 209041, "pitch": 72, "duration": 265, "velocity": 90}, {"time": 209281, "pitch": 65, "duration": 2048, "velocity": 77}, {"time": 209281, "pitch": 77, "duration": 2044, "velocity": 108}, {"time": 211681, "pitch": 65, "duration": 941, "velocity": 86}, {"time": 211681, "pitch": 77, "duration": 946, "velocity": 108}, {"time": 212644, "pitch": 60, "duration": 887, "velocity": 90}, {"time": 212644, "pitch": 72, "duration": 841, "velocity": 117}, {"time": 213598, "pitch": 58, "duration": 223, "velocity": 114}, {"time": 213598, "pitch": 70, "duration": 219, "velocity": 122}, {"time": 213839, "pitch": 57, "duration": 260, "velocity": 87}, {"time": 213839, "pitch": 58, "duration": 34, "velocity": 53}, {"time": 213839, "pitch": 69, "duration": 210, "velocity": 100}, {"time": 214080, "pitch": 55, "duration": 186, "velocity": 74}, {"time": 214080, "pitch": 67, "duration": 183, "velocity": 111}, {"time": 214320, "pitch": 53, "duration": 211, "velocity": 114}, {"time": 214320, "pitch": 65, "duration": 197, "velocity": 122}, {"time": 15845, "pitch": 41, "duration": 227, "velocity": 81}, {"time": 16081, "pitch": 48, "duration": 192, "velocity": 81}, {"time": 16317, "pitch": 53, "duration": 204, "velocity": 117}, {"time": 16558, "pitch": 48, "duration": 175, "velocity": 83}, {"time": 16799, "pitch": 55, "duration": 231, "velocity": 117}, {"time": 17039, "pitch": 48, "duration": 205, "velocity": 69}, {"time": 17280, "pitch": 53, "duration": 220, "velocity": 112}, {"time": 17521, "pitch": 48, "duration": 266, "velocity": 100}, {"time": 17762, "pitch": 41, "duration": 254, "velocity": 86}, {"time": 18003, "pitch": 48, "duration": 199, "velocity": 90}, {"time": 18244, "pitch": 53, "duration": 211, "velocity": 117}, {"time": 18480, "pitch": 48, "duration": 189, "velocity": 85}, {"time": 18716, "pitch": 57, "duration": 228, "velocity": 111}, {"time": 18957, "pitch": 48, "duration": 232, "velocity": 75}, {"time": 19198, "pitch": 53, "duration": 220, "velocity": 112}, {"time": 19438, "pitch": 48, "duration": 223, "velocity": 86}, {"time": 19679, "pitch": 41, "duration": 283, "velocity": 87}, {"time": 19920, "pitch": 48, "duration": 211, "velocity": 93}, {"time": 20161, "pitch": 53, "duration": 236, "velocity": 111}, {"time": 20402, "pitch": 48, "duration": 213, "velocity": 81}, {"time": 20643, "pitch": 55, "duration": 232, "velocity": 120}, {"time": 20884, "pitch": 48, "duration": 207, "velocity": 74}, {"time": 21125, "pitch": 53, "duration": 234, "velocity": 112}, {"time": 21361, "pitch": 48, "duration": 264, "velocity": 90}, {"time": 21597, "pitch": 41, "duration": 314, "velocity": 79}, {"time": 21837, "pitch": 48, "duration": 197, "velocity": 87}, {"time": 22078, "pitch": 53, "duration": 238, "velocity": 112}, {"time": 22319, "pitch": 48, "duration": 198, "velocity": 70}, {"time": 22560, "pitch": 57, "duration": 246, "velocity": 112}, {"time": 22801, "pitch": 48, "duration": 209, "velocity": 71}, {"time": 23042, "pitch": 53, "duration": 250, "velocity": 98}, {"time": 23283, "pitch": 48, "duration": 204, "velocity": 90}, {"time": 23524, "pitch": 41, "duration": 227, "velocity": 81}, {"time": 23760, "pitch": 48, "duration": 191, "velocity": 81}, {"time": 23996, "pitch": 53, "duration": 203, "velocity": 117}, {"time": 24237, "pitch": 48, "duration": 175, "velocity": 83}, {"time": 24477, "pitch": 55, "duration": 232, "velocity": 117}, {"time": 24718, "pitch": 48, "duration": 205, "velocity": 69}, {"time": 24959, "pitch": 53, "duration": 220, "velocity": 112}, {"time": 25200, "pitch": 48, "duration": 266, "velocity": 100}, {"time": 25441, "pitch": 41, "duration": 254, "velocity": 86}, {"time": 25682, "pitch": 48, "duration": 199, "velocity": 90}, {"time": 25923, "pitch": 53, "duration": 216, "velocity": 117}, {"time": 26164, "pitch": 48, "duration": 192, "velocity": 85}, {"time": 26404, "pitch": 57, "duration": 224, "velocity": 111}, {"time": 26640, "pitch": 48, "duration": 228, "velocity": 75}, {"time": 26877, "pitch": 53, "duration": 220, "velocity": 112}, {"time": 27117, "pitch": 48, "duration": 223, "velocity": 86}, {"time": 27358, "pitch": 41, "duration": 283, "velocity": 87}, {"time": 27599, "pitch": 48, "duration": 211, "velocity": 93}, {"time": 27840, "pitch": 53, "duration": 236, "velocity": 111}, {"time": 28081, "pitch": 48, "duration": 213, "velocity": 81}, {"time": 28322, "pitch": 55, "duration": 232, "velocity": 120}, {"time": 28563, "pitch": 48, "duration": 206, "velocity": 74}, {"time": 28803, "pitch": 53, "duration": 235, "velocity": 112}, {"time": 29040, "pitch": 48, "duration": 264, "velocity": 90}, {"time": 29276, "pitch": 41, "duration": 314, "velocity": 79}, {"time": 29516, "pitch": 48, "duration": 197, "velocity": 87}, {"time": 29757, "pitch": 53, "duration": 238, "velocity": 112}, {"time": 29998, "pitch": 48, "duration": 198, "velocity": 70}, {"time": 30239, "pitch": 57, "duration": 246, "velocity": 112}, {"time": 30480, "pitch": 48, "duration": 209, "velocity": 71}, {"time": 30721, "pitch": 53, "duration": 250, "velocity": 98}, {"time": 30962, "pitch": 48, "duration": 203, "velocity": 90}, {"time": 31203, "pitch": 41, "duration": 247, "velocity": 117}, {"time": 31443, "pitch": 48, "duration": 223, "velocity": 79}, {"time": 31684, "pitch": 53, "duration": 228, "velocity": 120}, {"time": 31920, "pitch": 48, "duration": 229, "velocity": 79}, {"time": 32156, "pitch": 55, "duration": 269, "velocity": 112}, {"time": 32397, "pitch": 48, "duration": 248, "velocity": 83}, {"time": 32638, "pitch": 53, "duration": 253, "velocity": 117}, {"time": 32879, "pitch": 48, "duration": 253, "velocity": 86}, {"time": 33120, "pitch": 41, "duration": 314, "velocity": 121}, {"time": 33361, "pitch": 48, "duration": 236, "velocity": 93}, {"time": 33602, "pitch": 53, "duration": 256, "velocity": 114}, {"time": 33842, "pitch": 48, "duration": 207, "velocity": 83}, {"time": 34083, "pitch": 57, "duration": 257, "velocity": 114}, {"time": 34319, "pitch": 48, "duration": 229, "velocity": 70}, {"time": 34555, "pitch": 53, "duration": 265, "velocity": 111}, {"time": 34796, "pitch": 48, "duration": 215, "velocity": 90}, {"time": 35037, "pitch": 41, "duration": 313, "velocity": 121}, {"time": 35278, "pitch": 48, "duration": 283, "velocity": 86}, {"time": 35519, "pitch": 53, "duration": 249, "velocity": 112}, {"time": 35760, "pitch": 48, "duration": 204, "velocity": 74}, {"time": 36001, "pitch": 55, "duration": 269, "velocity": 111}, {"time": 36242, "pitch": 48, "duration": 198, "velocity": 71}, {"time": 36482, "pitch": 53, "duration": 241, "velocity": 114}, {"time": 36723, "pitch": 48, "duration": 253, "velocity": 100}, {"time": 36964, "pitch": 43, "duration": 307, "velocity": 117}, {"time": 37200, "pitch": 48, "duration": 241, "velocity": 93}, {"time": 37436, "pitch": 55, "duration": 248, "velocity": 111}, {"time": 37677, "pitch": 48, "duration": 452, "velocity": 79}, {"time": 38159, "pitch": 53, "duration": 231, "velocity": 120}, {"time": 38279, "pitch": 52, "duration": 101, "velocity": 98}, {"time": 38400, "pitch": 48, "duration": 257, "velocity": 115}, {"time": 38641, "pitch": 41, "duration": 164, "velocity": 87}, {"time": 38881, "pitch": 41, "duration": 248, "velocity": 117}, {"time": 39122, "pitch": 48, "duration": 223, "velocity": 79}, {"time": 39363, "pitch": 53, "duration": 228, "velocity": 120}, {"time": 39599, "pitch": 48, "duration": 229, "velocity": 79}, {"time": 39835, "pitch": 55, "duration": 269, "velocity": 112}, {"time": 40076, "pitch": 48, "duration": 248, "velocity": 83}, {"time": 40317, "pitch": 53, "duration": 253, "velocity": 117}, {"time": 40558, "pitch": 48, "duration": 253, "velocity": 86}, {"time": 40799, "pitch": 41, "duration": 314, "velocity": 121}, {"time": 41040, "pitch": 48, "duration": 235, "velocity": 93}, {"time": 41280, "pitch": 53, "duration": 256, "velocity": 114}, {"time": 41521, "pitch": 48, "duration": 207, "velocity": 83}, {"time": 41762, "pitch": 57, "duration": 262, "velocity": 114}, {"time": 42003, "pitch": 48, "duration": 233, "velocity": 70}, {"time": 42244, "pitch": 53, "duration": 260, "velocity": 111}, {"time": 42480, "pitch": 48, "duration": 210, "velocity": 90}, {"time": 42716, "pitch": 41, "duration": 313, "velocity": 121}, {"time": 42957, "pitch": 48, "duration": 283, "velocity": 86}, {"time": 43198, "pitch": 53, "duration": 249, "velocity": 112}, {"time": 43439, "pitch": 48, "duration": 204, "velocity": 74}, {"time": 43679, "pitch": 55, "duration": 269, "velocity": 111}, {"time": 43920, "pitch": 48, "duration": 199, "velocity": 71}, {"time": 44161, "pitch": 53, "duration": 241, "velocity": 114}, {"time": 44402, "pitch": 48, "duration": 253, "velocity": 100}, {"time": 44643, "pitch": 43, "duration": 313, "velocity": 117}, {"time": 44884, "pitch": 48, "duration": 246, "velocity": 93}, {"time": 45125, "pitch": 55, "duration": 243, "velocity": 111}, {"time": 45597, "pitch": 48, "duration": 7, "velocity": 112}, {"time": 45838, "pitch": 55, "duration": 221, "velocity": 98}, {"time": 46079, "pitch": 60, "duration": 256, "velocity": 114}, {"time": 46319, "pitch": 48, "duration": 165, "velocity": 87}, {"time": 46560, "pitch": 46, "duration": 97, "velocity": 104}, {"time": 46801, "pitch": 53, "duration": 89, "velocity": 79}, {"time": 47042, "pitch": 60, "duration": 48, "velocity": 76}, {"time": 47042, "pitch": 62, "duration": 69, "velocity": 79}, {"time": 47283, "pitch": 53, "duration": 86, "velocity": 83}, {"time": 47524, "pitch": 46, "duration": 110, "velocity": 120}, {"time": 47760, "pitch": 53, "duration": 101, "velocity": 86}, {"time": 47996, "pitch": 62, "duration": 101, "velocity": 104}, {"time": 48237, "pitch": 53, "duration": 96, "velocity": 93}, {"time": 48478, "pitch": 45, "duration": 138, "velocity": 98}, {"time": 48718, "pitch": 53, "duration": 105, "velocity": 79}, {"time": 48959, "pitch": 60, "duration": 109, "velocity": 100}, {"time": 49200, "pitch": 53, "duration": 95, "velocity": 85}, {"time": 49441, "pitch": 45, "duration": 145, "velocity": 100}, {"time": 49682, "pitch": 53, "duration": 102, "velocity": 81}, {"time": 49923, "pitch": 60, "duration": 89, "velocity": 90}, {"time": 50164, "pitch": 53, "duration": 96, "velocity": 83}, {"time": 50405, "pitch": 43, "duration": 155, "velocity": 76}, {"time": 50641, "pitch": 50, "duration": 87, "velocity": 67}, {"time": 50877, "pitch": 58, "duration": 92, "velocity": 112}, {"time": 51117, "pitch": 50, "duration": 85, "velocity": 81}, {"time": 51358, "pitch": 43, "duration": 161, "velocity": 104}, {"time": 51599, "pitch": 50, "duration": 95, "velocity": 75}, {"time": 51840, "pitch": 58, "duration": 93, "velocity": 108}, {"time": 52081, "pitch": 50, "duration": 89, "velocity": 73}, {"time": 52322, "pitch": 41, "duration": 118, "velocity": 75}, {"time": 52563, "pitch": 53, "duration": 94, "velocity": 74}, {"time": 52804, "pitch": 60, "duration": 93, "velocity": 93}, {"time": 53040, "pitch": 53, "duration": 86, "velocity": 76}, {"time": 53276, "pitch": 41, "duration": 172, "velocity": 95}, {"time": 53517, "pitch": 53, "duration": 96, "velocity": 81}, {"time": 53757, "pitch": 60, "duration": 96, "velocity": 90}, {"time": 53998, "pitch": 53, "duration": 94, "velocity": 90}, {"time": 54239, "pitch": 46, "duration": 138, "velocity": 114}, {"time": 54480, "pitch": 53, "duration": 99, "velocity": 90}, {"time": 54721, "pitch": 58, "duration": 90, "velocity": 121}, {"time": 54962, "pitch": 53, "duration": 91, "velocity": 90}, {"time": 55203, "pitch": 46, "duration": 141, "velocity": 117}, {"time": 55444, "pitch": 53, "duration": 89, "velocity": 93}, {"time": 55684, "pitch": 58, "duration": 91, "velocity": 121}, {"time": 55920, "pitch": 53, "duration": 90, "velocity": 87}, {"time": 56157, "pitch": 45, "duration": 161, "velocity": 108}, {"time": 56397, "pitch": 53, "duration": 93, "velocity": 83}, {"time": 56638, "pitch": 60, "duration": 114, "velocity": 98}, {"time": 56879, "pitch": 53, "duration": 99, "velocity": 90}, {"time": 57120, "pitch": 45, "duration": 168, "velocity": 111}, {"time": 57361, "pitch": 53, "duration": 110, "velocity": 93}, {"time": 57602, "pitch": 60, "duration": 103, "velocity": 90}, {"time": 57843, "pitch": 53, "duration": 94, "velocity": 85}, {"time": 58083, "pitch": 43, "duration": 170, "velocity": 100}, {"time": 58319, "pitch": 50, "duration": 108, "velocity": 76}, {"time": 58556, "pitch": 58, "duration": 103, "velocity": 111}, {"time": 58796, "pitch": 50, "duration": 102, "velocity": 85}, {"time": 59037, "pitch": 43, "duration": 127, "velocity": 95}, {"time": 59278, "pitch": 50, "duration": 96, "velocity": 76}, {"time": 59519, "pitch": 58, "duration": 91, "velocity": 114}, {"time": 59760, "pitch": 50, "duration": 81, "velocity": 86}, {"time": 60242, "pitch": 53, "duration": 102, "velocity": 98}, {"time": 60483, "pitch": 58, "duration": 80, "velocity": 117}, {"time": 60723, "pitch": 62, "duration": 108, "velocity": 112}, {"time": 60964, "pitch": 53, "duration": 104, "velocity": 98}, {"time": 61200, "pitch": 58, "duration": 90, "velocity": 121}, {"time": 61436, "pitch": 62, "duration": 124, "velocity": 112}, {"time": 61677, "pitch": 53, "duration": 131, "velocity": 104}, {"time": 61918, "pitch": 48, "duration": 167, "velocity": 112}, {"time": 62159, "pitch": 55, "duration": 101, "velocity": 98}, {"time": 62400, "pitch": 60, "duration": 129, "velocity": 117}, {"time": 62641, "pitch": 55, "duration": 116, "velocity": 95}, {"time": 62882, "pitch": 48, "duration": 157, "velocity": 111}, {"time": 63122, "pitch": 55, "duration": 104, "velocity": 108}, {"time": 63363, "pitch": 60, "duration": 106, "velocity": 112}, {"time": 63599, "pitch": 55, "duration": 88, "velocity": 87}, {"time": 63835, "pitch": 53, "duration": 125, "velocity": 117}, {"time": 63835, "pitch": 60, "duration": 135, "velocity": 114}, {"time": 64076, "pitch": 53, "duration": 77, "velocity": 98}, {"time": 64076, "pitch": 60, "duration": 105, "velocity": 98}, {"time": 64317, "pitch": 53, "duration": 86, "velocity": 112}, {"time": 64317, "pitch": 60, "duration": 108, "velocity": 112}, {"time": 64558, "pitch": 53, "duration": 115, "velocity": 95}, {"time": 64558, "pitch": 60, "duration": 118, "velocity": 95}, {"time": 64799, "pitch": 52, "duration": 80, "velocity": 120}, {"time": 64799, "pitch": 60, "duration": 116, "velocity": 114}, {"time": 65040, "pitch": 52, "duration": 72, "velocity": 111}, {"time": 65040, "pitch": 60, "duration": 82, "velocity": 104}, {"time": 65281, "pitch": 52, "duration": 77, "velocity": 112}, {"time": 65281, "pitch": 60, "duration": 123, "velocity": 112}, {"time": 65521, "pitch": 50, "duration": 1009, "velocity": 120}, {"time": 65521, "pitch": 58, "duration": 994, "velocity": 122}, {"time": 66716, "pitch": 50, "duration": 398, "velocity": 117}, {"time": 66716, "pitch": 58, "duration": 402, "velocity": 122}, {"time": 67198, "pitch": 52, "duration": 368, "velocity": 112}, {"time": 67198, "pitch": 60, "duration": 386, "velocity": 121}, {"time": 67680, "pitch": 53, "duration": 136, "velocity": 120}, {"time": 67680, "pitch": 60, "duration": 126, "velocity": 117}, {"time": 67921, "pitch": 53, "duration": 88, "velocity": 104}, {"time": 67921, "pitch": 60, "duration": 101, "velocity": 108}, {"time": 68161, "pitch": 53, "duration": 100, "velocity": 114}, {"time": 68161, "pitch": 60, "duration": 115, "velocity": 104}, {"time": 68402, "pitch": 53, "duration": 127, "velocity": 100}, {"time": 68402, "pitch": 60, "duration": 131, "velocity": 100}, {"time": 68643, "pitch": 52, "duration": 115, "velocity": 117}, {"time": 68643, "pitch": 60, "duration": 111, "velocity": 108}, {"time": 68879, "pitch": 52, "duration": 79, "velocity": 111}, {"time": 68879, "pitch": 60, "duration": 102, "velocity": 104}, {"time": 69115, "pitch": 52, "duration": 137, "velocity": 114}, {"time": 69115, "pitch": 60, "duration": 129, "velocity": 111}, {"time": 69356, "pitch": 50, "duration": 1056, "velocity": 121}, {"time": 69356, "pitch": 58, "duration": 1026, "velocity": 122}, {"time": 70560, "pitch": 50, "duration": 387, "velocity": 117}, {"time": 70560, "pitch": 58, "duration": 404, "velocity": 122}, {"time": 71042, "pitch": 52, "duration": 367, "velocity": 112}, {"time": 71042, "pitch": 60, "duration": 384, "velocity": 114}, {"time": 71524, "pitch": 53, "duration": 122, "velocity": 111}, {"time": 71524, "pitch": 60, "duration": 120, "velocity": 114}, {"time": 71760, "pitch": 53, "duration": 104, "velocity": 111}, {"time": 71760, "pitch": 60, "duration": 110, "velocity": 108}, {"time": 71996, "pitch": 53, "duration": 121, "velocity": 111}, {"time": 71996, "pitch": 60, "duration": 120, "velocity": 111}, {"time": 72237, "pitch": 53, "duration": 135, "velocity": 104}, {"time": 72237, "pitch": 60, "duration": 141, "velocity": 93}, {"time": 72478, "pitch": 52, "duration": 125, "velocity": 114}, {"time": 72478, "pitch": 60, "duration": 123, "velocity": 108}, {"time": 72719, "pitch": 52, "duration": 89, "velocity": 98}, {"time": 72719, "pitch": 60, "duration": 102, "velocity": 93}, {"time": 72959, "pitch": 52, "duration": 134, "velocity": 112}, {"time": 72959, "pitch": 60, "duration": 147, "velocity": 100}, {"time": 73200, "pitch": 50, "duration": 1044, "velocity": 120}, {"time": 73200, "pitch": 58, "duration": 1027, "velocity": 122}, {"time": 74405, "pitch": 50, "duration": 401, "velocity": 114}, {"time": 74405, "pitch": 58, "duration": 399, "velocity": 122}, {"time": 74877, "pitch": 52, "duration": 352, "velocity": 111}, {"time": 74877, "pitch": 60, "duration": 379, "velocity": 112}, {"time": 75359, "pitch": 49, "duration": 278, "velocity": 120}, {"time": 75599, "pitch": 56, "duration": 198, "velocity": 117}, {"time": 75840, "pitch": 61, "duration": 284, "velocity": 121}, {"time": 76081, "pitch": 56, "duration": 269, "velocity": 121}, {"time": 76322, "pitch": 51, "duration": 338, "velocity": 122}, {"time": 76563, "pitch": 58, "duration": 259, "velocity": 121}, {"time": 76804, "pitch": 63, "duration": 291, "velocity": 121}, {"time": 77040, "pitch": 58, "duration": 212, "velocity": 121}, {"time": 77276, "pitch": 53, "duration": 452, "velocity": 108}, {"time": 77517, "pitch": 60, "duration": 269, "velocity": 122}, {"time": 77758, "pitch": 65, "duration": 285, "velocity": 114}, {"time": 77998, "pitch": 60, "duration": 310, "velocity": 117}, {"time": 78239, "pitch": 53, "duration": 452, "velocity": 120}, {"time": 78480, "pitch": 60, "duration": 472, "velocity": 114}, {"time": 78721, "pitch": 65, "duration": 331, "velocity": 111}, {"time": 78962, "pitch": 53, "duration": 198, "velocity": 120}, {"time": 79203, "pitch": 41, "duration": 232, "velocity": 81}, {"time": 79444, "pitch": 48, "duration": 195, "velocity": 81}, {"time": 79685, "pitch": 53, "duration": 199, "velocity": 117}, {"time": 79921, "pitch": 48, "duration": 172, "velocity": 83}, {"time": 80157, "pitch": 55, "duration": 231, "velocity": 117}, {"time": 80397, "pitch": 48, "duration": 205, "velocity": 69}, {"time": 80638, "pitch": 53, "duration": 220, "velocity": 112}, {"time": 80879, "pitch": 48, "duration": 266, "velocity": 100}, {"time": 81120, "pitch": 41, "duration": 254, "velocity": 86}, {"time": 81361, "pitch": 48, "duration": 199, "velocity": 90}, {"time": 81602, "pitch": 53, "duration": 216, "velocity": 117}, {"time": 81843, "pitch": 48, "duration": 192, "velocity": 85}, {"time": 82084, "pitch": 57, "duration": 223, "velocity": 111}, {"time": 82320, "pitch": 48, "duration": 227, "velocity": 75}, {"time": 82556, "pitch": 53, "duration": 220, "velocity": 112}, {"time": 82796, "pitch": 48, "duration": 223, "velocity": 86}, {"time": 83037, "pitch": 41, "duration": 283, "velocity": 87}, {"time": 83278, "pitch": 48, "duration": 211, "velocity": 93}, {"time": 83519, "pitch": 53, "duration": 236, "velocity": 111}, {"time": 83760, "pitch": 48, "duration": 213, "velocity": 81}, {"time": 84001, "pitch": 55, "duration": 232, "velocity": 120}, {"time": 84242, "pitch": 48, "duration": 207, "velocity": 74}, {"time": 84483, "pitch": 53, "duration": 239, "velocity": 112}, {"time": 84724, "pitch": 48, "duration": 268, "velocity": 90}, {"time": 84964, "pitch": 41, "duration": 308, "velocity": 79}, {"time": 85200, "pitch": 48, "duration": 193, "velocity": 87}, {"time": 85436, "pitch": 53, "duration": 238, "velocity": 112}, {"time": 85677, "pitch": 48, "duration": 198, "velocity": 70}, {"time": 85918, "pitch": 57, "duration": 246, "velocity": 112}, {"time": 86159, "pitch": 48, "duration": 209, "velocity": 71}, {"time": 86400, "pitch": 53, "duration": 250, "velocity": 98}, {"time": 86641, "pitch": 48, "duration": 204, "velocity": 90}, {"time": 86882, "pitch": 41, "duration": 248, "velocity": 117}, {"time": 87123, "pitch": 48, "duration": 222, "velocity": 79}, {"time": 87363, "pitch": 53, "duration": 229, "velocity": 120}, {"time": 87599, "pitch": 48, "duration": 230, "velocity": 79}, {"time": 87836, "pitch": 55, "duration": 268, "velocity": 112}, {"time": 88076, "pitch": 48, "duration": 248, "velocity": 83}, {"time": 88317, "pitch": 53, "duration": 253, "velocity": 117}, {"time": 88558, "pitch": 48, "duration": 253, "velocity": 86}, {"time": 88799, "pitch": 41, "duration": 314, "velocity": 121}, {"time": 89040, "pitch": 48, "duration": 236, "velocity": 93}, {"time": 89281, "pitch": 53, "duration": 256, "velocity": 114}, {"time": 89522, "pitch": 48, "duration": 206, "velocity": 83}, {"time": 89763, "pitch": 57, "duration": 261, "velocity": 114}, {"time": 90003, "pitch": 48, "duration": 233, "velocity": 70}, {"time": 90244, "pitch": 53, "duration": 260, "velocity": 111}, {"time": 90480, "pitch": 48, "duration": 211, "velocity": 90}, {"time": 90716, "pitch": 41, "duration": 313, "velocity": 121}, {"time": 90957, "pitch": 48, "duration": 283, "velocity": 86}, {"time": 91198, "pitch": 53, "duration": 249, "velocity": 112}, {"time": 91439, "pitch": 48, "duration": 205, "velocity": 74}, {"time": 91680, "pitch": 55, "duration": 269, "velocity": 111}, {"time": 91921, "pitch": 48, "duration": 198, "velocity": 71}, {"time": 92162, "pitch": 53, "duration": 240, "velocity": 114}, {"time": 92402, "pitch": 48, "duration": 253, "velocity": 100}, {"time": 92643, "pitch": 43, "duration": 307, "velocity": 117}, {"time": 92879, "pitch": 48, "duration": 241, "velocity": 93}, {"time": 93115, "pitch": 55, "duration": 248, "velocity": 111}, {"time": 93356, "pitch": 48, "duration": 248, "velocity": 79}, {"time": 93597, "pitch": 43, "duration": 287, "velocity": 112}, {"time": 93838, "pitch": 48, "duration": 222, "velocity": 98}, {"time": 94079, "pitch": 55, "duration": 257, "velocity": 114}, {"time": 94320, "pitch": 48, "duration": 164, "velocity": 87}, {"time": 94561, "pitch": 41, "duration": 247, "velocity": 117}, {"time": 94801, "pitch": 48, "duration": 223, "velocity": 79}, {"time": 95042, "pitch": 53, "duration": 233, "velocity": 120}, {"time": 95283, "pitch": 48, "duration": 234, "velocity": 79}, {"time": 95524, "pitch": 55, "duration": 264, "velocity": 112}, {"time": 95760, "pitch": 48, "duration": 243, "velocity": 83}, {"time": 95996, "pitch": 53, "duration": 253, "velocity": 117}, {"time": 96237, "pitch": 48, "duration": 253, "velocity": 86}, {"time": 96478, "pitch": 41, "duration": 314, "velocity": 121}, {"time": 96719, "pitch": 48, "duration": 236, "velocity": 93}, {"time": 96960, "pitch": 53, "duration": 256, "velocity": 114}, {"time": 97201, "pitch": 48, "duration": 206, "velocity": 83}, {"time": 97441, "pitch": 57, "duration": 262, "velocity": 114}, {"time": 97682, "pitch": 48, "duration": 233, "velocity": 70}, {"time": 97923, "pitch": 53, "duration": 260, "velocity": 111}, {"time": 98159, "pitch": 48, "duration": 211, "velocity": 90}, {"time": 98395, "pitch": 41, "duration": 313, "velocity": 121}, {"time": 98636, "pitch": 48, "duration": 283, "velocity": 86}, {"time": 98877, "pitch": 53, "duration": 249, "velocity": 112}, {"time": 99118, "pitch": 48, "duration": 205, "velocity": 74}, {"time": 99359, "pitch": 55, "duration": 269, "velocity": 111}, {"time": 99600, "pitch": 48, "duration": 198, "velocity": 71}, {"time": 99840, "pitch": 53, "duration": 241, "velocity": 114}, {"time": 100081, "pitch": 48, "duration": 253, "velocity": 100}, {"time": 100322, "pitch": 43, "duration": 313, "velocity": 117}, {"time": 100563, "pitch": 48, "duration": 246, "velocity": 93}, {"time": 100804, "pitch": 55, "duration": 243, "velocity": 111}, {"time": 101276, "pitch": 48, "duration": 7, "velocity": 112}, {"time": 101517, "pitch": 55, "duration": 222, "velocity": 98}, {"time": 101758, "pitch": 60, "duration": 257, "velocity": 114}, {"time": 101999, "pitch": 48, "duration": 164, "velocity": 87}, {"time": 102239, "pitch": 46, "duration": 97, "velocity": 104}, {"time": 102480, "pitch": 53, "duration": 89, "velocity": 79}, {"time": 102721, "pitch": 62, "duration": 69, "velocity": 79}, {"time": 102962, "pitch": 53, "duration": 86, "velocity": 83}, {"time": 103203, "pitch": 46, "duration": 112, "velocity": 120}, {"time": 103444, "pitch": 53, "duration": 103, "velocity": 86}, {"time": 103685, "pitch": 62, "duration": 99, "velocity": 104}, {"time": 103921, "pitch": 53, "duration": 94, "velocity": 93}, {"time": 104157, "pitch": 45, "duration": 138, "velocity": 98}, {"time": 104398, "pitch": 53, "duration": 104, "velocity": 79}, {"time": 104638, "pitch": 60, "duration": 109, "velocity": 100}, {"time": 104879, "pitch": 53, "duration": 95, "velocity": 85}, {"time": 105120, "pitch": 45, "duration": 145, "velocity": 100}, {"time": 105361, "pitch": 53, "duration": 103, "velocity": 81}, {"time": 105602, "pitch": 60, "duration": 89, "velocity": 90}, {"time": 105843, "pitch": 53, "duration": 96, "velocity": 83}, {"time": 106084, "pitch": 43, "duration": 155, "velocity": 76}, {"time": 106320, "pitch": 50, "duration": 87, "velocity": 67}, {"time": 106556, "pitch": 58, "duration": 92, "velocity": 112}, {"time": 106797, "pitch": 50, "duration": 84, "velocity": 81}, {"time": 107038, "pitch": 43, "duration": 160, "velocity": 104}, {"time": 107278, "pitch": 50, "duration": 95, "velocity": 75}, {"time": 107519, "pitch": 58, "duration": 94, "velocity": 108}, {"time": 107760, "pitch": 50, "duration": 90, "velocity": 73}, {"time": 108001, "pitch": 41, "duration": 118, "velocity": 75}, {"time": 108242, "pitch": 53, "duration": 94, "velocity": 74}, {"time": 108483, "pitch": 60, "duration": 95, "velocity": 93}, {"time": 108724, "pitch": 53, "duration": 88, "velocity": 76}, {"time": 108965, "pitch": 41, "duration": 169, "velocity": 95}, {"time": 109201, "pitch": 53, "duration": 94, "velocity": 81}, {"time": 109437, "pitch": 60, "duration": 95, "velocity": 90}, {"time": 109677, "pitch": 53, "duration": 94, "velocity": 90}, {"time": 109918, "pitch": 46, "duration": 138, "velocity": 114}, {"time": 110159, "pitch": 53, "duration": 100, "velocity": 90}, {"time": 110400, "pitch": 58, "duration": 90, "velocity": 121}, {"time": 110641, "pitch": 53, "duration": 91, "velocity": 90}, {"time": 110882, "pitch": 46, "duration": 141, "velocity": 117}, {"time": 111123, "pitch": 53, "duration": 89, "velocity": 93}, {"time": 111364, "pitch": 58, "duration": 90, "velocity": 121}, {"time": 111600, "pitch": 53, "duration": 89, "velocity": 87}, {"time": 111836, "pitch": 45, "duration": 161, "velocity": 108}, {"time": 112076, "pitch": 53, "duration": 93, "velocity": 83}, {"time": 112317, "pitch": 60, "duration": 114, "velocity": 98}, {"time": 112558, "pitch": 53, "duration": 100, "velocity": 90}, {"time": 112799, "pitch": 45, "duration": 168, "velocity": 111}, {"time": 113040, "pitch": 53, "duration": 110, "velocity": 93}, {"time": 113281, "pitch": 60, "duration": 103, "velocity": 90}, {"time": 113522, "pitch": 53, "duration": 94, "velocity": 85}, {"time": 113763, "pitch": 43, "duration": 172, "velocity": 100}, {"time": 114004, "pitch": 50, "duration": 109, "velocity": 76}, {"time": 114244, "pitch": 58, "duration": 102, "velocity": 111}, {"time": 114480, "pitch": 50, "duration": 100, "velocity": 85}, {"time": 114716, "pitch": 43, "duration": 127, "velocity": 95}, {"time": 114957, "pitch": 50, "duration": 97, "velocity": 76}, {"time": 115198, "pitch": 58, "duration": 92, "velocity": 114}, {"time": 115439, "pitch": 50, "duration": 81, "velocity": 86}, {"time": 115921, "pitch": 53, "duration": 102, "velocity": 98}, {"time": 116162, "pitch": 58, "duration": 80, "velocity": 117}, {"time": 116403, "pitch": 62, "duration": 107, "velocity": 112}, {"time": 116643, "pitch": 53, "duration": 105, "velocity": 98}, {"time": 116879, "pitch": 58, "duration": 90, "velocity": 121}, {"time": 117116, "pitch": 62, "duration": 123, "velocity": 112}, {"time": 117356, "pitch": 53, "duration": 131, "velocity": 104}, {"time": 117597, "pitch": 48, "duration": 167, "velocity": 112}, {"time": 117838, "pitch": 55, "duration": 101, "velocity": 98}, {"time": 118079, "pitch": 60, "duration": 129, "velocity": 117}, {"time": 118320, "pitch": 55, "duration": 116, "velocity": 95}, {"time": 118561, "pitch": 48, "duration": 157, "velocity": 111}, {"time": 118802, "pitch": 55, "duration": 103, "velocity": 108}, {"time": 119043, "pitch": 60, "duration": 107, "velocity": 112}, {"time": 119283, "pitch": 55, "duration": 90, "velocity": 87}, {"time": 119524, "pitch": 53, "duration": 122, "velocity": 117}, {"time": 119524, "pitch": 60, "duration": 132, "velocity": 114}, {"time": 119760, "pitch": 53, "duration": 76, "velocity": 98}, {"time": 119760, "pitch": 60, "duration": 103, "velocity": 98}, {"time": 119996, "pitch": 53, "duration": 87, "velocity": 112}, {"time": 119996, "pitch": 60, "duration": 109, "velocity": 112}, {"time": 120237, "pitch": 53, "duration": 116, "velocity": 95}, {"time": 120237, "pitch": 60, "duration": 119, "velocity": 95}, {"time": 120478, "pitch": 52, "duration": 80, "velocity": 120}, {"time": 120478, "pitch": 60, "duration": 116, "velocity": 114}, {"time": 120719, "pitch": 52, "duration": 72, "velocity": 111}, {"time": 120719, "pitch": 60, "duration": 82, "velocity": 104}, {"time": 120960, "pitch": 52, "duration": 77, "velocity": 112}, {"time": 120960, "pitch": 60, "duration": 123, "velocity": 112}, {"time": 121201, "pitch": 50, "duration": 1008, "velocity": 120}, {"time": 121201, "pitch": 58, "duration": 993, "velocity": 122}, {"time": 122395, "pitch": 50, "duration": 398, "velocity": 117}, {"time": 122395, "pitch": 58, "duration": 402, "velocity": 122}, {"time": 122877, "pitch": 52, "duration": 368, "velocity": 112}, {"time": 122877, "pitch": 60, "duration": 386, "velocity": 121}, {"time": 123359, "pitch": 53, "duration": 136, "velocity": 120}, {"time": 123359, "pitch": 60, "duration": 126, "velocity": 117}, {"time": 123600, "pitch": 53, "duration": 88, "velocity": 104}, {"time": 123600, "pitch": 60, "duration": 101, "velocity": 108}, {"time": 123841, "pitch": 53, "duration": 99, "velocity": 114}, {"time": 123841, "pitch": 60, "duration": 114, "velocity": 104}, {"time": 124081, "pitch": 53, "duration": 127, "velocity": 100}, {"time": 124081, "pitch": 60, "duration": 131, "velocity": 100}, {"time": 124322, "pitch": 52, "duration": 118, "velocity": 117}, {"time": 124322, "pitch": 60, "duration": 114, "velocity": 108}, {"time": 124563, "pitch": 52, "duration": 81, "velocity": 111}, {"time": 124563, "pitch": 60, "duration": 105, "velocity": 104}, {"time": 124804, "pitch": 52, "duration": 134, "velocity": 114}, {"time": 124804, "pitch": 60, "duration": 126, "velocity": 111}, {"time": 125040, "pitch": 50, "duration": 1051, "velocity": 121}, {"time": 125040, "pitch": 58, "duration": 1021, "velocity": 122}, {"time": 126240, "pitch": 50, "duration": 386, "velocity": 117}, {"time": 126240, "pitch": 58, "duration": 403, "velocity": 122}, {"time": 126721, "pitch": 52, "duration": 367, "velocity": 112}, {"time": 126721, "pitch": 60, "duration": 384, "velocity": 114}, {"time": 127203, "pitch": 53, "duration": 122, "velocity": 111}, {"time": 127203, "pitch": 60, "duration": 120, "velocity": 114}, {"time": 127439, "pitch": 53, "duration": 104, "velocity": 111}, {"time": 127439, "pitch": 60, "duration": 110, "velocity": 108}, {"time": 127675, "pitch": 53, "duration": 122, "velocity": 111}, {"time": 127675, "pitch": 60, "duration": 121, "velocity": 111}, {"time": 127916, "pitch": 53, "duration": 135, "velocity": 104}, {"time": 127916, "pitch": 60, "duration": 142, "velocity": 93}, {"time": 128157, "pitch": 52, "duration": 125, "velocity": 114}, {"time": 128157, "pitch": 60, "duration": 123, "velocity": 108}, {"time": 128398, "pitch": 52, "duration": 89, "velocity": 98}, {"time": 128398, "pitch": 60, "duration": 102, "velocity": 93}, {"time": 128639, "pitch": 52, "duration": 133, "velocity": 112}, {"time": 128639, "pitch": 60, "duration": 146, "velocity": 100}, {"time": 128880, "pitch": 50, "duration": 1043, "velocity": 120}, {"time": 128880, "pitch": 58, "duration": 1026, "velocity": 122}, {"time": 130084, "pitch": 50, "duration": 401, "velocity": 114}, {"time": 130084, "pitch": 58, "duration": 399, "velocity": 122}, {"time": 130556, "pitch": 52, "duration": 352, "velocity": 111}, {"time": 130556, "pitch": 60, "duration": 379, "velocity": 112}, {"time": 131038, "pitch": 49, "duration": 278, "velocity": 120}, {"time": 131279, "pitch": 56, "duration": 197, "velocity": 117}, {"time": 131519, "pitch": 61, "duration": 284, "velocity": 121}, {"time": 131760, "pitch": 56, "duration": 269, "velocity": 121}, {"time": 132001, "pitch": 51, "duration": 338, "velocity": 122}, {"time": 132242, "pitch": 58, "duration": 260, "velocity": 121}, {"time": 132483, "pitch": 63, "duration": 297, "velocity": 121}, {"time": 132724, "pitch": 58, "duration": 217, "velocity": 121}, {"time": 132965, "pitch": 49, "duration": 443, "velocity": 108}, {"time": 133201, "pitch": 56, "duration": 264, "velocity": 122}, {"time": 133437, "pitch": 65, "duration": 285, "velocity": 114}, {"time": 133678, "pitch": 56, "duration": 309, "velocity": 117}, {"time": 133918, "pitch": 49, "duration": 452, "velocity": 120}, {"time": 134159, "pitch": 56, "duration": 472, "velocity": 114}, {"time": 134400, "pitch": 65, "duration": 331, "velocity": 111}, {"time": 134641, "pitch": 56, "duration": 198, "velocity": 120}, {"time": 134882, "pitch": 49, "duration": 96, "velocity": 104}, {"time": 135123, "pitch": 56, "duration": 88, "velocity": 79}, {"time": 135364, "pitch": 65, "duration": 68, "velocity": 79}, {"time": 135600, "pitch": 56, "duration": 84, "velocity": 83}, {"time": 135836, "pitch": 49, "duration": 112, "velocity": 120}, {"time": 136077, "pitch": 56, "duration": 103, "velocity": 86}, {"time": 136318, "pitch": 65, "duration": 101, "velocity": 104}, {"time": 136558, "pitch": 56, "duration": 97, "velocity": 93}, {"time": 136799, "pitch": 48, "duration": 139, "velocity": 98}, {"time": 137040, "pitch": 56, "duration": 105, "velocity": 79}, {"time": 137281, "pitch": 63, "duration": 108, "velocity": 100}, {"time": 137522, "pitch": 56, "duration": 94, "velocity": 85}, {"time": 137763, "pitch": 48, "duration": 144, "velocity": 100}, {"time": 138004, "pitch": 56, "duration": 102, "velocity": 81}, {"time": 138244, "pitch": 63, "duration": 88, "velocity": 90}, {"time": 138481, "pitch": 56, "duration": 94, "velocity": 83}, {"time": 138717, "pitch": 54, "duration": 158, "velocity": 76}, {"time": 138957, "pitch": 49, "duration": 90, "velocity": 67}, {"time": 139198, "pitch": 58, "duration": 93, "velocity": 112}, {"time": 139439, "pitch": 49, "duration": 85, "velocity": 81}, {"time": 139680, "pitch": 54, "duration": 161, "velocity": 104}, {"time": 139921, "pitch": 49, "duration": 94, "velocity": 75}, {"time": 140162, "pitch": 58, "duration": 93, "velocity": 108}, {"time": 140403, "pitch": 49, "duration": 89, "velocity": 73}, {"time": 140644, "pitch": 49, "duration": 116, "velocity": 75}, {"time": 140880, "pitch": 56, "duration": 92, "velocity": 74}, {"time": 141116, "pitch": 65, "duration": 95, "velocity": 93}, {"time": 141356, "pitch": 56, "duration": 89, "velocity": 76}, {"time": 141597, "pitch": 49, "duration": 173, "velocity": 95}, {"time": 141838, "pitch": 56, "duration": 97, "velocity": 81}, {"time": 142079, "pitch": 55, "duration": 231, "velocity": 90}, {"time": 142079, "pitch": 58, "duration": 231, "velocity": 100}, {"time": 142079, "pitch": 63, "duration": 231, "velocity": 110}, {"time": 142320, "pitch": 51, "duration": 93, "velocity": 103}, {"time": 142561, "pitch": 53, "duration": 100, "velocity": 97}, {"time": 142802, "pitch": 53, "duration": 110, "velocity": 83}, {"time": 143043, "pitch": 53, "duration": 170, "velocity": 122}, {"time": 143043, "pitch": 60, "duration": 200, "velocity": 127}, {"time": 143284, "pitch": 53, "duration": 130, "velocity": 97}, {"time": 143524, "pitch": 53, "duration": 118, "velocity": 71}, {"time": 143760, "pitch": 53, "duration": 158, "velocity": 127}, {"time": 143760, "pitch": 60, "duration": 197, "velocity": 127}, {"time": 143996, "pitch": 53, "duration": 111, "velocity": 106}, {"time": 144237, "pitch": 53, "duration": 60, "velocity": 77}, {"time": 144358, "pitch": 53, "duration": 100, "velocity": 125}, {"time": 144478, "pitch": 52, "duration": 101, "velocity": 97}, {"time": 144719, "pitch": 52, "duration": 110, "velocity": 83}, {"time": 144960, "pitch": 52, "duration": 171, "velocity": 122}, {"time": 144960, "pitch": 60, "duration": 201, "velocity": 127}, {"time": 145201, "pitch": 52, "duration": 130, "velocity": 97}, {"time": 145442, "pitch": 52, "duration": 120, "velocity": 71}, {"time": 145683, "pitch": 52, "duration": 160, "velocity": 127}, {"time": 145683, "pitch": 60, "duration": 200, "velocity": 127}, {"time": 145923, "pitch": 52, "duration": 109, "velocity": 106}, {"time": 146159, "pitch": 52, "duration": 59, "velocity": 77}, {"time": 146277, "pitch": 52, "duration": 99, "velocity": 125}, {"time": 146396, "pitch": 51, "duration": 100, "velocity": 97}, {"time": 146636, "pitch": 51, "duration": 111, "velocity": 83}, {"time": 146877, "pitch": 51, "duration": 171, "velocity": 122}, {"time": 146877, "pitch": 60, "duration": 201, "velocity": 127}, {"time": 147118, "pitch": 51, "duration": 131, "velocity": 97}, {"time": 147359, "pitch": 51, "duration": 120, "velocity": 71}, {"time": 147600, "pitch": 51, "duration": 160, "velocity": 127}, {"time": 147600, "pitch": 60, "duration": 201, "velocity": 127}, {"time": 147841, "pitch": 51, "duration": 110, "velocity": 106}, {"time": 148082, "pitch": 51, "duration": 60, "velocity": 77}, {"time": 148202, "pitch": 51, "duration": 100, "velocity": 125}, {"time": 148322, "pitch": 50, "duration": 101, "velocity": 97}, {"time": 148563, "pitch": 50, "duration": 111, "velocity": 83}, {"time": 148804, "pitch": 50, "duration": 167, "velocity": 122}, {"time": 148804, "pitch": 58, "duration": 197, "velocity": 127}, {"time": 149040, "pitch": 50, "duration": 128, "velocity": 97}, {"time": 149276, "pitch": 50, "duration": 121, "velocity": 71}, {"time": 149517, "pitch": 50, "duration": 161, "velocity": 127}, {"time": 149517, "pitch": 58, "duration": 201, "velocity": 127}, {"time": 149758, "pitch": 50, "duration": 110, "velocity": 106}, {"time": 149999, "pitch": 50, "duration": 60, "velocity": 77}, {"time": 150119, "pitch": 50, "duration": 101, "velocity": 125}, {"time": 150240, "pitch": 49, "duration": 100, "velocity": 97}, {"time": 150481, "pitch": 49, "duration": 110, "velocity": 83}, {"time": 150722, "pitch": 49, "duration": 170, "velocity": 122}, {"time": 150722, "pitch": 58, "duration": 200, "velocity": 127}, {"time": 150962, "pitch": 49, "duration": 131, "velocity": 97}, {"time": 151203, "pitch": 49, "duration": 118, "velocity": 71}, {"time": 151439, "pitch": 49, "duration": 158, "velocity": 127}, {"time": 151439, "pitch": 58, "duration": 197, "velocity": 127}, {"time": 151675, "pitch": 49, "duration": 111, "velocity": 106}, {"time": 151916, "pitch": 49, "duration": 60, "velocity": 77}, {"time": 152037, "pitch": 49, "duration": 100, "velocity": 125}, {"time": 152157, "pitch": 53, "duration": 100, "velocity": 97}, {"time": 152398, "pitch": 53, "duration": 110, "velocity": 83}, {"time": 152639, "pitch": 53, "duration": 170, "velocity": 122}, {"time": 152639, "pitch": 60, "duration": 201, "velocity": 127}, {"time": 152880, "pitch": 53, "duration": 130, "velocity": 97}, {"time": 153121, "pitch": 53, "duration": 120, "velocity": 71}, {"time": 153361, "pitch": 53, "duration": 161, "velocity": 127}, {"time": 153361, "pitch": 60, "duration": 201, "velocity": 127}, {"time": 153602, "pitch": 53, "duration": 111, "velocity": 106}, {"time": 153843, "pitch": 53, "duration": 60, "velocity": 77}, {"time": 153964, "pitch": 53, "duration": 100, "velocity": 125}, {"time": 154320, "pitch": 53, "duration": 100, "velocity": 98}, {"time": 154556, "pitch": 58, "duration": 80, "velocity": 117}, {"time": 154797, "pitch": 62, "duration": 107, "velocity": 112}, {"time": 155038, "pitch": 53, "duration": 106, "velocity": 98}, {"time": 155279, "pitch": 58, "duration": 91, "velocity": 121}, {"time": 155520, "pitch": 62, "duration": 123, "velocity": 112}, {"time": 155760, "pitch": 53, "duration": 131, "velocity": 104}, {"time": 156001, "pitch": 48, "duration": 167, "velocity": 112}, {"time": 156242, "pitch": 55, "duration": 102, "velocity": 98}, {"time": 156483, "pitch": 60, "duration": 130, "velocity": 117}, {"time": 156724, "pitch": 55, "duration": 116, "velocity": 95}, {"time": 156965, "pitch": 48, "duration": 154, "velocity": 111}, {"time": 157201, "pitch": 55, "duration": 101, "velocity": 108}, {"time": 157437, "pitch": 60, "duration": 107, "velocity": 112}, {"time": 157678, "pitch": 55, "duration": 89, "velocity": 87}, {"time": 157919, "pitch": 53, "duration": 124, "velocity": 117}, {"time": 157919, "pitch": 60, "duration": 134, "velocity": 114}, {"time": 158160, "pitch": 53, "duration": 77, "velocity": 98}, {"time": 158160, "pitch": 60, "duration": 104, "velocity": 98}, {"time": 158400, "pitch": 53, "duration": 87, "velocity": 112}, {"time": 158400, "pitch": 60, "duration": 109, "velocity": 112}, {"time": 158641, "pitch": 53, "duration": 116, "velocity": 95}, {"time": 158641, "pitch": 60, "duration": 119, "velocity": 95}, {"time": 158882, "pitch": 52, "duration": 80, "velocity": 120}, {"time": 158882, "pitch": 60, "duration": 117, "velocity": 114}, {"time": 159123, "pitch": 52, "duration": 72, "velocity": 111}, {"time": 159123, "pitch": 60, "duration": 82, "velocity": 104}, {"time": 159364, "pitch": 52, "duration": 76, "velocity": 112}, {"time": 159364, "pitch": 60, "duration": 121, "velocity": 112}, {"time": 159600, "pitch": 50, "duration": 1010, "velocity": 120}, {"time": 159600, "pitch": 58, "duration": 994, "velocity": 122}, {"time": 160799, "pitch": 50, "duration": 398, "velocity": 117}, {"time": 160799, "pitch": 58, "duration": 402, "velocity": 122}, {"time": 161281, "pitch": 52, "duration": 369, "velocity": 112}, {"time": 161281, "pitch": 60, "duration": 387, "velocity": 121}, {"time": 161763, "pitch": 53, "duration": 136, "velocity": 120}, {"time": 161763, "pitch": 60, "duration": 126, "velocity": 117}, {"time": 162004, "pitch": 53, "duration": 88, "velocity": 104}, {"time": 162004, "pitch": 60, "duration": 101, "velocity": 108}, {"time": 162245, "pitch": 53, "duration": 97, "velocity": 114}, {"time": 162245, "pitch": 60, "duration": 112, "velocity": 104}, {"time": 162481, "pitch": 53, "duration": 124, "velocity": 100}, {"time": 162481, "pitch": 60, "duration": 128, "velocity": 100}, {"time": 162717, "pitch": 52, "duration": 117, "velocity": 117}, {"time": 162717, "pitch": 60, "duration": 113, "velocity": 108}, {"time": 162958, "pitch": 52, "duration": 80, "velocity": 111}, {"time": 162958, "pitch": 60, "duration": 104, "velocity": 104}, {"time": 163198, "pitch": 52, "duration": 137, "velocity": 114}, {"time": 163198, "pitch": 60, "duration": 129, "velocity": 111}, {"time": 163439, "pitch": 50, "duration": 1056, "velocity": 121}, {"time": 163439, "pitch": 58, "duration": 1026, "velocity": 122}, {"time": 164644, "pitch": 50, "duration": 378, "velocity": 117}, {"time": 164644, "pitch": 58, "duration": 395, "velocity": 122}, {"time": 165116, "pitch": 52, "duration": 366, "velocity": 112}, {"time": 165116, "pitch": 60, "duration": 383, "velocity": 114}, {"time": 165597, "pitch": 53, "duration": 125, "velocity": 111}, {"time": 165597, "pitch": 60, "duration": 123, "velocity": 114}, {"time": 165838, "pitch": 53, "duration": 107, "velocity": 111}, {"time": 165838, "pitch": 60, "duration": 113, "velocity": 108}, {"time": 166079, "pitch": 53, "duration": 122, "velocity": 111}, {"time": 166079, "pitch": 60, "duration": 121, "velocity": 111}, {"time": 166320, "pitch": 53, "duration": 136, "velocity": 104}, {"time": 166320, "pitch": 60, "duration": 142, "velocity": 93}, {"time": 166561, "pitch": 52, "duration": 125, "velocity": 114}, {"time": 166561, "pitch": 60, "duration": 123, "velocity": 108}, {"time": 166802, "pitch": 52, "duration": 89, "velocity": 98}, {"time": 166802, "pitch": 60, "duration": 102, "velocity": 93}, {"time": 167043, "pitch": 52, "duration": 133, "velocity": 112}, {"time": 167043, "pitch": 60, "duration": 146, "velocity": 100}, {"time": 167284, "pitch": 50, "duration": 1034, "velocity": 120}, {"time": 167284, "pitch": 58, "duration": 1017, "velocity": 122}, {"time": 168478, "pitch": 50, "duration": 410, "velocity": 114}, {"time": 168478, "pitch": 58, "duration": 408, "velocity": 122}, {"time": 168960, "pitch": 52, "duration": 352, "velocity": 111}, {"time": 168960, "pitch": 60, "duration": 379, "velocity": 112}, {"time": 169442, "pitch": 49, "duration": 278, "velocity": 120}, {"time": 169683, "pitch": 56, "duration": 197, "velocity": 117}, {"time": 169924, "pitch": 61, "duration": 278, "velocity": 121}, {"time": 170160, "pitch": 56, "duration": 264, "velocity": 121}, {"time": 170396, "pitch": 51, "duration": 338, "velocity": 122}, {"time": 170636, "pitch": 58, "duration": 260, "velocity": 121}, {"time": 170877, "pitch": 63, "duration": 297, "velocity": 121}, {"time": 171118, "pitch": 58, "duration": 217, "velocity": 121}, {"time": 171359, "pitch": 53, "duration": 453, "velocity": 108}, {"time": 171600, "pitch": 60, "duration": 269, "velocity": 122}, {"time": 171841, "pitch": 65, "duration": 285, "velocity": 114}, {"time": 172082, "pitch": 60, "duration": 309, "velocity": 117}, {"time": 172323, "pitch": 53, "duration": 451, "velocity": 120}, {"time": 172564, "pitch": 60, "duration": 467, "velocity": 114}, {"time": 172804, "pitch": 65, "duration": 325, "velocity": 111}, {"time": 173040, "pitch": 53, "duration": 194, "velocity": 120}, {"time": 173276, "pitch": 53, "duration": 125, "velocity": 117}, {"time": 173276, "pitch": 60, "duration": 135, "velocity": 114}, {"time": 173517, "pitch": 53, "duration": 78, "velocity": 98}, {"time": 173517, "pitch": 60, "duration": 105, "velocity": 98}, {"time": 173758, "pitch": 53, "duration": 86, "velocity": 112}, {"time": 173758, "pitch": 60, "duration": 109, "velocity": 112}, {"time": 173999, "pitch": 53, "duration": 115, "velocity": 95}, {"time": 173999, "pitch": 60, "duration": 118, "velocity": 95}, {"time": 174240, "pitch": 52, "duration": 80, "velocity": 120}, {"time": 174240, "pitch": 60, "duration": 116, "velocity": 114}, {"time": 174481, "pitch": 52, "duration": 72, "velocity": 111}, {"time": 174481, "pitch": 60, "duration": 82, "velocity": 104}, {"time": 174722, "pitch": 52, "duration": 77, "velocity": 112}, {"time": 174722, "pitch": 60, "duration": 123, "velocity": 112}, {"time": 174963, "pitch": 50, "duration": 1004, "velocity": 120}, {"time": 174963, "pitch": 58, "duration": 988, "velocity": 122}, {"time": 176157, "pitch": 50, "duration": 398, "velocity": 117}, {"time": 176157, "pitch": 58, "duration": 402, "velocity": 122}, {"time": 176639, "pitch": 52, "duration": 368, "velocity": 112}, {"time": 176639, "pitch": 60, "duration": 386, "velocity": 121}, {"time": 177121, "pitch": 53, "duration": 136, "velocity": 120}, {"time": 177121, "pitch": 60, "duration": 126, "velocity": 117}, {"time": 177362, "pitch": 53, "duration": 88, "velocity": 104}, {"time": 177362, "pitch": 60, "duration": 101, "velocity": 108}, {"time": 177602, "pitch": 53, "duration": 100, "velocity": 114}, {"time": 177602, "pitch": 60, "duration": 115, "velocity": 104}, {"time": 177843, "pitch": 53, "duration": 127, "velocity": 100}, {"time": 177843, "pitch": 60, "duration": 131, "velocity": 100}, {"time": 178084, "pitch": 52, "duration": 115, "velocity": 117}, {"time": 178084, "pitch": 60, "duration": 111, "velocity": 108}, {"time": 178320, "pitch": 52, "duration": 79, "velocity": 111}, {"time": 178320, "pitch": 60, "duration": 103, "velocity": 104}, {"time": 178556, "pitch": 52, "duration": 137, "velocity": 114}, {"time": 178556, "pitch": 60, "duration": 129, "velocity": 111}, {"time": 178797, "pitch": 50, "duration": 1056, "velocity": 121}, {"time": 178797, "pitch": 58, "duration": 1026, "velocity": 122}, {"time": 180002, "pitch": 50, "duration": 386, "velocity": 117}, {"time": 180002, "pitch": 58, "duration": 403, "velocity": 122}, {"time": 180483, "pitch": 52, "duration": 359, "velocity": 112}, {"time": 180483, "pitch": 60, "duration": 376, "velocity": 114}, {"time": 180955, "pitch": 53, "duration": 125, "velocity": 111}, {"time": 180955, "pitch": 60, "duration": 123, "velocity": 114}, {"time": 181196, "pitch": 53, "duration": 107, "velocity": 111}, {"time": 181196, "pitch": 60, "duration": 113, "velocity": 108}, {"time": 181437, "pitch": 53, "duration": 121, "velocity": 111}, {"time": 181437, "pitch": 60, "duration": 120, "velocity": 111}, {"time": 181678, "pitch": 53, "duration": 135, "velocity": 104}, {"time": 181678, "pitch": 60, "duration": 141, "velocity": 93}, {"time": 181919, "pitch": 52, "duration": 125, "velocity": 114}, {"time": 181919, "pitch": 60, "duration": 123, "velocity": 108}, {"time": 182160, "pitch": 52, "duration": 89, "velocity": 98}, {"time": 182160, "pitch": 60, "duration": 102, "velocity": 93}, {"time": 182401, "pitch": 52, "duration": 133, "velocity": 112}, {"time": 182401, "pitch": 60, "duration": 146, "velocity": 100}, {"time": 182641, "pitch": 50, "duration": 1038, "velocity": 120}, {"time": 182641, "pitch": 58, "duration": 1021, "velocity": 122}, {"time": 183836, "pitch": 50, "duration": 410, "velocity": 114}, {"time": 183836, "pitch": 58, "duration": 408, "velocity": 122}, {"time": 184318, "pitch": 52, "duration": 352, "velocity": 111}, {"time": 184318, "pitch": 60, "duration": 379, "velocity": 112}, {"time": 184800, "pitch": 49, "duration": 278, "velocity": 120}, {"time": 185040, "pitch": 56, "duration": 198, "velocity": 117}, {"time": 185281, "pitch": 61, "duration": 284, "velocity": 121}, {"time": 185522, "pitch": 56, "duration": 269, "velocity": 121}, {"time": 185763, "pitch": 51, "duration": 338, "velocity": 122}, {"time": 186004, "pitch": 58, "duration": 259, "velocity": 121}, {"time": 186245, "pitch": 63, "duration": 291, "velocity": 121}, {"time": 186481, "pitch": 58, "duration": 212, "velocity": 121}, {"time": 186717, "pitch": 53, "duration": 453, "velocity": 108}, {"time": 186958, "pitch": 60, "duration": 269, "velocity": 122}, {"time": 187199, "pitch": 65, "duration": 285, "velocity": 114}, {"time": 187439, "pitch": 60, "duration": 310, "velocity": 117}, {"time": 187680, "pitch": 53, "duration": 452, "velocity": 120}, {"time": 187921, "pitch": 60, "duration": 472, "velocity": 114}, {"time": 188162, "pitch": 65, "duration": 331, "velocity": 111}, {"time": 188403, "pitch": 53, "duration": 198, "velocity": 120}, {"time": 188644, "pitch": 41, "duration": 227, "velocity": 81}, {"time": 188880, "pitch": 48, "duration": 192, "velocity": 81}, {"time": 189116, "pitch": 53, "duration": 204, "velocity": 117}, {"time": 189357, "pitch": 48, "duration": 175, "velocity": 83}, {"time": 189598, "pitch": 55, "duration": 231, "velocity": 117}, {"time": 189839, "pitch": 48, "duration": 204, "velocity": 69}, {"time": 190079, "pitch": 53, "duration": 220, "velocity": 112}, {"time": 190320, "pitch": 48, "duration": 266, "velocity": 100}, {"time": 190561, "pitch": 41, "duration": 254, "velocity": 86}, {"time": 190802, "pitch": 48, "duration": 199, "velocity": 90}, {"time": 191043, "pitch": 53, "duration": 216, "velocity": 117}, {"time": 191284, "pitch": 48, "duration": 193, "velocity": 85}, {"time": 191525, "pitch": 57, "duration": 223, "velocity": 111}, {"time": 191761, "pitch": 48, "duration": 227, "velocity": 75}, {"time": 191997, "pitch": 53, "duration": 220, "velocity": 112}, {"time": 192238, "pitch": 48, "duration": 222, "velocity": 86}, {"time": 192478, "pitch": 41, "duration": 283, "velocity": 87}, {"time": 192719, "pitch": 48, "duration": 211, "velocity": 93}, {"time": 192960, "pitch": 53, "duration": 236, "velocity": 111}, {"time": 193201, "pitch": 48, "duration": 213, "velocity": 81}, {"time": 193442, "pitch": 55, "duration": 232, "velocity": 120}, {"time": 193683, "pitch": 48, "duration": 207, "velocity": 74}, {"time": 193924, "pitch": 53, "duration": 234, "velocity": 112}, {"time": 194160, "pitch": 48, "duration": 264, "velocity": 90}, {"time": 194396, "pitch": 41, "duration": 314, "velocity": 79}, {"time": 194637, "pitch": 48, "duration": 196, "velocity": 87}, {"time": 194877, "pitch": 53, "duration": 238, "velocity": 112}, {"time": 195118, "pitch": 48, "duration": 198, "velocity": 70}, {"time": 195359, "pitch": 57, "duration": 246, "velocity": 112}, {"time": 195600, "pitch": 48, "duration": 209, "velocity": 71}, {"time": 195841, "pitch": 53, "duration": 250, "velocity": 98}, {"time": 196082, "pitch": 48, "duration": 204, "velocity": 90}, {"time": 196323, "pitch": 41, "duration": 232, "velocity": 81}, {"time": 196564, "pitch": 48, "duration": 195, "velocity": 81}, {"time": 196804, "pitch": 53, "duration": 200, "velocity": 117}, {"time": 197041, "pitch": 48, "duration": 172, "velocity": 83}, {"time": 197277, "pitch": 55, "duration": 231, "velocity": 117}, {"time": 197517, "pitch": 48, "duration": 205, "velocity": 69}, {"time": 197758, "pitch": 53, "duration": 220, "velocity": 112}, {"time": 197999, "pitch": 48, "duration": 266, "velocity": 100}, {"time": 198240, "pitch": 41, "duration": 254, "velocity": 86}, {"time": 198481, "pitch": 48, "duration": 199, "velocity": 90}, {"time": 198722, "pitch": 53, "duration": 216, "velocity": 117}, {"time": 198963, "pitch": 48, "duration": 192, "velocity": 85}, {"time": 199204, "pitch": 57, "duration": 223, "velocity": 111}, {"time": 199440, "pitch": 48, "duration": 227, "velocity": 75}, {"time": 199676, "pitch": 53, "duration": 220, "velocity": 112}, {"time": 199916, "pitch": 48, "duration": 223, "velocity": 86}, {"time": 200157, "pitch": 41, "duration": 283, "velocity": 87}, {"time": 200398, "pitch": 48, "duration": 211, "velocity": 93}, {"time": 200639, "pitch": 53, "duration": 236, "velocity": 111}, {"time": 200880, "pitch": 48, "duration": 213, "velocity": 81}, {"time": 201121, "pitch": 55, "duration": 232, "velocity": 120}, {"time": 201362, "pitch": 48, "duration": 206, "velocity": 74}, {"time": 201603, "pitch": 53, "duration": 238, "velocity": 112}, {"time": 201843, "pitch": 48, "duration": 269, "velocity": 90}, {"time": 202084, "pitch": 41, "duration": 308, "velocity": 79}, {"time": 202320, "pitch": 48, "duration": 193, "velocity": 87}, {"time": 202556, "pitch": 53, "duration": 238, "velocity": 112}, {"time": 202797, "pitch": 48, "duration": 198, "velocity": 70}, {"time": 203038, "pitch": 57, "duration": 246, "velocity": 112}, {"time": 203279, "pitch": 48, "duration": 209, "velocity": 71}, {"time": 203520, "pitch": 53, "duration": 250, "velocity": 98}, {"time": 203761, "pitch": 48, "duration": 204, "velocity": 90}, {"time": 204002, "pitch": 41, "duration": 231, "velocity": 81}, {"time": 204243, "pitch": 48, "duration": 195, "velocity": 81}, {"time": 204483, "pitch": 53, "duration": 200, "velocity": 117}, {"time": 204719, "pitch": 48, "duration": 173, "velocity": 83}, {"time": 204955, "pitch": 55, "duration": 232, "velocity": 117}, {"time": 205196, "pitch": 48, "duration": 205, "velocity": 69}, {"time": 205437, "pitch": 53, "duration": 220, "velocity": 112}, {"time": 205678, "pitch": 48, "duration": 266, "velocity": 100}, {"time": 205919, "pitch": 41, "duration": 254, "velocity": 86}, {"time": 206160, "pitch": 48, "duration": 199, "velocity": 90}, {"time": 206401, "pitch": 53, "duration": 215, "velocity": 117}, {"time": 206642, "pitch": 48, "duration": 192, "velocity": 85}, {"time": 206882, "pitch": 57, "duration": 228, "velocity": 111}, {"time": 207123, "pitch": 48, "duration": 232, "velocity": 75}, {"time": 207364, "pitch": 53, "duration": 217, "velocity": 112}, {"time": 207600, "pitch": 48, "duration": 219, "velocity": 86}, {"time": 207836, "pitch": 41, "duration": 283, "velocity": 87}, {"time": 208077, "pitch": 48, "duration": 211, "velocity": 93}, {"time": 208318, "pitch": 53, "duration": 236, "velocity": 111}, {"time": 208559, "pitch": 48, "duration": 213, "velocity": 81}, {"time": 208800, "pitch": 55, "duration": 232, "velocity": 120}, {"time": 209041, "pitch": 48, "duration": 206, "velocity": 74}, {"time": 209281, "pitch": 53, "duration": 239, "velocity": 112}, {"time": 209522, "pitch": 48, "duration": 269, "velocity": 90}, {"time": 209763, "pitch": 41, "duration": 308, "velocity": 79}, {"time": 209999, "pitch": 48, "duration": 193, "velocity": 87}, {"time": 210235, "pitch": 53, "duration": 238, "velocity": 112}, {"time": 210476, "pitch": 48, "duration": 198, "velocity": 70}, {"time": 210717, "pitch": 57, "duration": 246, "velocity": 112}, {"time": 210958, "pitch": 48, "duration": 209, "velocity": 71}, {"time": 211199, "pitch": 53, "duration": 250, "velocity": 98}, {"time": 211440, "pitch": 48, "duration": 203, "velocity": 90}, {"time": 211681, "pitch": 41, "duration": 231, "velocity": 81}, {"time": 211921, "pitch": 48, "duration": 196, "velocity": 81}, {"time": 212162, "pitch": 53, "duration": 204, "velocity": 117}, {"time": 212403, "pitch": 48, "duration": 176, "velocity": 83}, {"time": 212644, "pitch": 55, "duration": 227, "velocity": 117}, {"time": 212880, "pitch": 48, "duration": 201, "velocity": 69}, {"time": 213116, "pitch": 53, "duration": 220, "velocity": 112}, {"time": 213357, "pitch": 48, "duration": 266, "velocity": 100}, {"time": 213598, "pitch": 41, "duration": 254, "velocity": 86}, {"time": 213839, "pitch": 48, "duration": 198, "velocity": 90}, {"time": 214080, "pitch": 53, "duration": 215, "velocity": 117}, {"time": 214320, "pitch": 53, "duration": 193, "velocity": 117}, {"time": 46560, "pitch": 58, "duration": 256, "velocity": 121}, {"time": 46801, "pitch": 53, "duration": 1643, "velocity": 98}, {"time": 47042, "pitch": 62, "duration": 279, "velocity": 117}, {"time": 47283, "pitch": 65, "duration": 1047, "velocity": 117}, {"time": 48478, "pitch": 60, "duration": 257, "velocity": 121}, {"time": 48718, "pitch": 53, "duration": 327, "velocity": 95}, {"time": 48959, "pitch": 57, "duration": 1326, "velocity": 90}, {"time": 49200, "pitch": 65, "duration": 1035, "velocity": 120}, {"time": 50405, "pitch": 62, "duration": 304, "velocity": 122}, {"time": 50641, "pitch": 53, "duration": 1639, "velocity": 69}, {"time": 50877, "pitch": 58, "duration": 1328, "velocity": 100}, {"time": 51117, "pitch": 65, "duration": 1087, "velocity": 112}, {"time": 52322, "pitch": 60, "duration": 262, "velocity": 121}, {"time": 52563, "pitch": 53, "duration": 250, "velocity": 73}, {"time": 52804, "pitch": 57, "duration": 1290, "velocity": 87}, {"time": 53040, "pitch": 65, "duration": 1019, "velocity": 120}, {"time": 54239, "pitch": 62, "duration": 255, "velocity": 120}, {"time": 54480, "pitch": 53, "duration": 1561, "velocity": 95}, {"time": 54721, "pitch": 58, "duration": 1292, "velocity": 98}, {"time": 54962, "pitch": 65, "duration": 989, "velocity": 117}, {"time": 56157, "pitch": 60, "duration": 247, "velocity": 121}, {"time": 56397, "pitch": 53, "duration": 272, "velocity": 85}, {"time": 56638, "pitch": 57, "duration": 1315, "velocity": 100}, {"time": 56879, "pitch": 65, "duration": 969, "velocity": 117}, {"time": 58083, "pitch": 62, "duration": 479, "velocity": 121}, {"time": 58319, "pitch": 53, "duration": 1608, "velocity": 83}, {"time": 58556, "pitch": 58, "duration": 1323, "velocity": 98}, {"time": 58796, "pitch": 65, "duration": 1093, "velocity": 120}, {"time": 60001, "pitch": 58, "duration": 253, "velocity": 122}, {"time": 60242, "pitch": 53, "duration": 1555, "velocity": 74}, {"time": 60483, "pitch": 58, "duration": 1306, "velocity": 111}, {"time": 60723, "pitch": 65, "duration": 1093, "velocity": 120}, {"time": 61918, "pitch": 60, "duration": 301, "velocity": 121}, {"time": 62159, "pitch": 55, "duration": 1440, "velocity": 86}, {"time": 62400, "pitch": 60, "duration": 1249, "velocity": 98}, {"time": 62641, "pitch": 67, "duration": 995, "velocity": 117}, {"time": 63835, "pitch": 65, "duration": 280, "velocity": 111}, {"time": 64076, "pitch": 57, "duration": 257, "velocity": 108}, {"time": 64317, "pitch": 60, "duration": 253, "velocity": 117}, {"time": 64558, "pitch": 65, "duration": 266, "velocity": 95}, {"time": 64799, "pitch": 64, "duration": 269, "velocity": 111}, {"time": 65040, "pitch": 55, "duration": 227, "velocity": 83}, {"time": 65281, "pitch": 60, "duration": 228, "velocity": 108}, {"time": 65521, "pitch": 62, "duration": 490, "velocity": 120}, {"time": 66003, "pitch": 53, "duration": 256, "velocity": 73}, {"time": 66244, "pitch": 58, "duration": 297, "velocity": 117}, {"time": 66480, "pitch": 62, "duration": 174, "velocity": 117}, {"time": 66716, "pitch": 62, "duration": 247, "velocity": 120}, {"time": 66957, "pitch": 58, "duration": 205, "velocity": 108}, {"time": 67198, "pitch": 64, "duration": 281, "velocity": 112}, {"time": 67439, "pitch": 60, "duration": 200, "velocity": 93}, {"time": 67680, "pitch": 65, "duration": 279, "velocity": 112}, {"time": 67921, "pitch": 57, "duration": 256, "velocity": 104}, {"time": 68161, "pitch": 60, "duration": 255, "velocity": 112}, {"time": 68402, "pitch": 65, "duration": 265, "velocity": 95}, {"time": 68643, "pitch": 64, "duration": 265, "velocity": 112}, {"time": 68879, "pitch": 55, "duration": 256, "velocity": 86}, {"time": 69115, "pitch": 60, "duration": 223, "velocity": 104}, {"time": 69356, "pitch": 62, "duration": 482, "velocity": 122}, {"time": 69838, "pitch": 53, "duration": 263, "velocity": 86}, {"time": 70079, "pitch": 58, "duration": 280, "velocity": 114}, {"time": 70320, "pitch": 62, "duration": 165, "velocity": 114}, {"time": 70560, "pitch": 62, "duration": 274, "velocity": 121}, {"time": 70801, "pitch": 58, "duration": 193, "velocity": 83}, {"time": 71042, "pitch": 64, "duration": 299, "velocity": 112}, {"time": 71283, "pitch": 60, "duration": 215, "velocity": 83}, {"time": 71524, "pitch": 64, "duration": 14, "velocity": 100}, {"time": 71524, "pitch": 65, "duration": 292, "velocity": 95}, {"time": 71760, "pitch": 57, "duration": 233, "velocity": 87}, {"time": 71996, "pitch": 60, "duration": 247, "velocity": 111}, {"time": 72237, "pitch": 65, "duration": 267, "velocity": 98}, {"time": 72478, "pitch": 64, "duration": 272, "velocity": 111}, {"time": 72719, "pitch": 55, "duration": 259, "velocity": 90}, {"time": 72959, "pitch": 60, "duration": 233, "velocity": 108}, {"time": 73200, "pitch": 62, "duration": 510, "velocity": 87}, {"time": 73682, "pitch": 53, "duration": 271, "velocity": 90}, {"time": 73923, "pitch": 58, "duration": 281, "velocity": 114}, {"time": 74164, "pitch": 62, "duration": 156, "velocity": 114}, {"time": 74405, "pitch": 62, "duration": 269, "velocity": 117}, {"time": 74641, "pitch": 58, "duration": 192, "velocity": 86}, {"time": 74877, "pitch": 64, "duration": 297, "velocity": 112}, {"time": 75118, "pitch": 60, "duration": 216, "velocity": 90}, {"time": 75359, "pitch": 65, "duration": 248, "velocity": 120}, {"time": 75599, "pitch": 56, "duration": 251, "velocity": 85}, {"time": 75840, "pitch": 61, "duration": 240, "velocity": 111}, {"time": 76081, "pitch": 65, "duration": 272, "velocity": 108}, {"time": 76081, "pitch": 66, "duration": 10, "velocity": 86}, {"time": 76322, "pitch": 67, "duration": 295, "velocity": 112}, {"time": 76563, "pitch": 58, "duration": 255, "velocity": 93}, {"time": 76804, "pitch": 63, "duration": 243, "velocity": 108}, {"time": 77040, "pitch": 67, "duration": 258, "velocity": 70}, {"time": 77040, "pitch": 68, "duration": 14, "velocity": 93}, {"time": 77276, "pitch": 69, "duration": 319, "velocity": 111}, {"time": 77517, "pitch": 60, "duration": 271, "velocity": 81}, {"time": 77758, "pitch": 65, "duration": 238, "velocity": 114}, {"time": 77998, "pitch": 69, "duration": 281, "velocity": 93}, {"time": 78239, "pitch": 60, "duration": 236, "velocity": 98}, {"time": 78480, "pitch": 65, "duration": 239, "velocity": 90}, {"time": 78721, "pitch": 57, "duration": 259, "velocity": 111}, {"time": 78962, "pitch": 60, "duration": 227, "velocity": 95}, {"time": 102239, "pitch": 58, "duration": 256, "velocity": 121}, {"time": 102480, "pitch": 53, "duration": 1644, "velocity": 98}, {"time": 102721, "pitch": 62, "duration": 279, "velocity": 117}, {"time": 102962, "pitch": 65, "duration": 1050, "velocity": 117}, {"time": 104157, "pitch": 60, "duration": 257, "velocity": 121}, {"time": 104398, "pitch": 53, "duration": 326, "velocity": 95}, {"time": 104638, "pitch": 57, "duration": 1326, "velocity": 90}, {"time": 104879, "pitch": 65, "duration": 1035, "velocity": 120}, {"time": 106084, "pitch": 62, "duration": 305, "velocity": 122}, {"time": 106320, "pitch": 53, "duration": 1639, "velocity": 69}, {"time": 106556, "pitch": 58, "duration": 1329, "velocity": 100}, {"time": 106797, "pitch": 65, "duration": 1087, "velocity": 112}, {"time": 108001, "pitch": 60, "duration": 262, "velocity": 121}, {"time": 108242, "pitch": 53, "duration": 251, "velocity": 73}, {"time": 108483, "pitch": 57, "duration": 1290, "velocity": 87}, {"time": 108724, "pitch": 65, "duration": 1014, "velocity": 120}, {"time": 109918, "pitch": 62, "duration": 255, "velocity": 120}, {"time": 110159, "pitch": 53, "duration": 1562, "velocity": 95}, {"time": 110400, "pitch": 58, "duration": 1292, "velocity": 98}, {"time": 110641, "pitch": 65, "duration": 989, "velocity": 117}, {"time": 111836, "pitch": 60, "duration": 248, "velocity": 121}, {"time": 112076, "pitch": 53, "duration": 272, "velocity": 85}, {"time": 112317, "pitch": 57, "duration": 1315, "velocity": 100}, {"time": 112558, "pitch": 65, "duration": 969, "velocity": 117}, {"time": 113763, "pitch": 62, "duration": 488, "velocity": 121}, {"time": 114004, "pitch": 53, "duration": 1603, "velocity": 83}, {"time": 114244, "pitch": 58, "duration": 1314, "velocity": 98}, {"time": 114480, "pitch": 65, "duration": 1089, "velocity": 120}, {"time": 115680, "pitch": 58, "duration": 253, "velocity": 122}, {"time": 115921, "pitch": 53, "duration": 1555, "velocity": 74}, {"time": 116162, "pitch": 58, "duration": 1306, "velocity": 111}, {"time": 116403, "pitch": 65, "duration": 1092, "velocity": 120}, {"time": 117597, "pitch": 60, "duration": 301, "velocity": 121}, {"time": 117838, "pitch": 55, "duration": 1445, "velocity": 86}, {"time": 118079, "pitch": 60, "duration": 1255, "velocity": 98}, {"time": 118320, "pitch": 67, "duration": 1001, "velocity": 117}, {"time": 119524, "pitch": 65, "duration": 275, "velocity": 111}, {"time": 119760, "pitch": 57, "duration": 252, "velocity": 108}, {"time": 119996, "pitch": 60, "duration": 253, "velocity": 117}, {"time": 120237, "pitch": 65, "duration": 266, "velocity": 95}, {"time": 120478, "pitch": 64, "duration": 269, "velocity": 111}, {"time": 120719, "pitch": 55, "duration": 227, "velocity": 83}, {"time": 120960, "pitch": 60, "duration": 229, "velocity": 108}, {"time": 121201, "pitch": 62, "duration": 489, "velocity": 120}, {"time": 121682, "pitch": 53, "duration": 256, "velocity": 73}, {"time": 121923, "pitch": 58, "duration": 297, "velocity": 117}, {"time": 122159, "pitch": 62, "duration": 174, "velocity": 117}, {"time": 122395, "pitch": 62, "duration": 247, "velocity": 120}, {"time": 122636, "pitch": 58, "duration": 205, "velocity": 108}, {"time": 122877, "pitch": 64, "duration": 281, "velocity": 112}, {"time": 123118, "pitch": 60, "duration": 201, "velocity": 93}, {"time": 123359, "pitch": 65, "duration": 279, "velocity": 112}, {"time": 123600, "pitch": 57, "duration": 257, "velocity": 104}, {"time": 123841, "pitch": 60, "duration": 255, "velocity": 112}, {"time": 124081, "pitch": 65, "duration": 265, "velocity": 95}, {"time": 124322, "pitch": 64, "duration": 270, "velocity": 112}, {"time": 124563, "pitch": 55, "duration": 261, "velocity": 86}, {"time": 124804, "pitch": 60, "duration": 218, "velocity": 104}, {"time": 125040, "pitch": 62, "duration": 477, "velocity": 122}, {"time": 125517, "pitch": 53, "duration": 263, "velocity": 86}, {"time": 125758, "pitch": 58, "duration": 280, "velocity": 114}, {"time": 125999, "pitch": 62, "duration": 165, "velocity": 114}, {"time": 126240, "pitch": 62, "duration": 274, "velocity": 121}, {"time": 126480, "pitch": 58, "duration": 193, "velocity": 83}, {"time": 126721, "pitch": 64, "duration": 299, "velocity": 112}, {"time": 126962, "pitch": 60, "duration": 215, "velocity": 83}, {"time": 127203, "pitch": 64, "duration": 14, "velocity": 100}, {"time": 127203, "pitch": 65, "duration": 292, "velocity": 95}, {"time": 127439, "pitch": 57, "duration": 233, "velocity": 87}, {"time": 127675, "pitch": 60, "duration": 247, "velocity": 111}, {"time": 127916, "pitch": 65, "duration": 267, "velocity": 98}, {"time": 128157, "pitch": 64, "duration": 272, "velocity": 111}, {"time": 128398, "pitch": 55, "duration": 259, "velocity": 90}, {"time": 128639, "pitch": 60, "duration": 232, "velocity": 108}, {"time": 128880, "pitch": 62, "duration": 509, "velocity": 87}, {"time": 129361, "pitch": 53, "duration": 271, "velocity": 90}, {"time": 129602, "pitch": 58, "duration": 281, "velocity": 114}, {"time": 129843, "pitch": 62, "duration": 157, "velocity": 114}, {"time": 130084, "pitch": 62, "duration": 269, "velocity": 117}, {"time": 130320, "pitch": 58, "duration": 192, "velocity": 86}, {"time": 130556, "pitch": 64, "duration": 297, "velocity": 112}, {"time": 130797, "pitch": 60, "duration": 217, "velocity": 90}, {"time": 131038, "pitch": 65, "duration": 249, "velocity": 120}, {"time": 131279, "pitch": 56, "duration": 250, "velocity": 85}, {"time": 131519, "pitch": 61, "duration": 240, "velocity": 111}, {"time": 131760, "pitch": 65, "duration": 272, "velocity": 108}, {"time": 131760, "pitch": 66, "duration": 10, "velocity": 86}, {"time": 132001, "pitch": 67, "duration": 295, "velocity": 112}, {"time": 132242, "pitch": 58, "duration": 256, "velocity": 93}, {"time": 132483, "pitch": 63, "duration": 248, "velocity": 108}, {"time": 132724, "pitch": 67, "duration": 262, "velocity": 70}, {"time": 132724, "pitch": 68, "duration": 14, "velocity": 93}, {"time": 132965, "pitch": 69, "duration": 312, "velocity": 111}, {"time": 133201, "pitch": 60, "duration": 266, "velocity": 81}, {"time": 133437, "pitch": 65, "duration": 239, "velocity": 114}, {"time": 133678, "pitch": 69, "duration": 281, "velocity": 93}, {"time": 133918, "pitch": 60, "duration": 236, "velocity": 98}, {"time": 134159, "pitch": 65, "duration": 239, "velocity": 90}, {"time": 134400, "pitch": 57, "duration": 259, "velocity": 111}, {"time": 134641, "pitch": 60, "duration": 227, "velocity": 95}, {"time": 154084, "pitch": 58, "duration": 248, "velocity": 122}, {"time": 154320, "pitch": 53, "duration": 1560, "velocity": 74}, {"time": 154556, "pitch": 58, "duration": 1316, "velocity": 111}, {"time": 154797, "pitch": 65, "duration": 1102, "velocity": 120}, {"time": 156001, "pitch": 60, "duration": 301, "velocity": 121}, {"time": 156242, "pitch": 55, "duration": 1436, "velocity": 86}, {"time": 156483, "pitch": 60, "duration": 1245, "velocity": 98}, {"time": 156724, "pitch": 67, "duration": 991, "velocity": 117}, {"time": 157919, "pitch": 65, "duration": 280, "velocity": 111}, {"time": 158160, "pitch": 57, "duration": 256, "velocity": 108}, {"time": 158400, "pitch": 60, "duration": 253, "velocity": 117}, {"time": 158641, "pitch": 65, "duration": 266, "velocity": 95}, {"time": 158882, "pitch": 64, "duration": 269, "velocity": 111}, {"time": 159123, "pitch": 55, "duration": 227, "velocity": 83}, {"time": 159364, "pitch": 60, "duration": 224, "velocity": 108}, {"time": 159600, "pitch": 62, "duration": 485, "velocity": 120}, {"time": 160077, "pitch": 53, "duration": 256, "velocity": 73}, {"time": 160318, "pitch": 58, "duration": 303, "velocity": 117}, {"time": 160559, "pitch": 62, "duration": 177, "velocity": 117}, {"time": 160799, "pitch": 62, "duration": 247, "velocity": 120}, {"time": 161040, "pitch": 58, "duration": 205, "velocity": 108}, {"time": 161281, "pitch": 64, "duration": 281, "velocity": 112}, {"time": 161522, "pitch": 60, "duration": 201, "velocity": 93}, {"time": 161763, "pitch": 65, "duration": 279, "velocity": 112}, {"time": 162004, "pitch": 57, "duration": 256, "velocity": 104}, {"time": 162245, "pitch": 60, "duration": 249, "velocity": 112}, {"time": 162481, "pitch": 65, "duration": 260, "velocity": 95}, {"time": 162717, "pitch": 64, "duration": 270, "velocity": 112}, {"time": 162958, "pitch": 55, "duration": 261, "velocity": 86}, {"time": 163198, "pitch": 60, "duration": 223, "velocity": 104}, {"time": 163439, "pitch": 62, "duration": 482, "velocity": 122}, {"time": 163921, "pitch": 53, "duration": 263, "velocity": 86}, {"time": 164162, "pitch": 58, "duration": 280, "velocity": 114}, {"time": 164403, "pitch": 62, "duration": 165, "velocity": 114}, {"time": 164644, "pitch": 62, "duration": 268, "velocity": 121}, {"time": 164880, "pitch": 58, "duration": 189, "velocity": 83}, {"time": 165116, "pitch": 64, "duration": 299, "velocity": 112}, {"time": 165357, "pitch": 60, "duration": 214, "velocity": 83}, {"time": 165597, "pitch": 64, "duration": 15, "velocity": 100}, {"time": 165597, "pitch": 65, "duration": 299, "velocity": 95}, {"time": 165838, "pitch": 57, "duration": 238, "velocity": 87}, {"time": 166079, "pitch": 60, "duration": 247, "velocity": 111}, {"time": 166320, "pitch": 65, "duration": 267, "velocity": 98}, {"time": 166561, "pitch": 64, "duration": 272, "velocity": 111}, {"time": 166802, "pitch": 55, "duration": 259, "velocity": 90}, {"time": 167043, "pitch": 60, "duration": 233, "velocity": 108}, {"time": 167284, "pitch": 62, "duration": 504, "velocity": 87}, {"time": 167761, "pitch": 53, "duration": 266, "velocity": 90}, {"time": 167997, "pitch": 58, "duration": 281, "velocity": 114}, {"time": 168237, "pitch": 62, "duration": 157, "velocity": 114}, {"time": 168478, "pitch": 62, "duration": 275, "velocity": 117}, {"time": 168719, "pitch": 58, "duration": 196, "velocity": 86}, {"time": 168960, "pitch": 64, "duration": 297, "velocity": 112}, {"time": 169201, "pitch": 60, "duration": 217, "velocity": 90}, {"time": 169442, "pitch": 65, "duration": 249, "velocity": 120}, {"time": 169683, "pitch": 56, "duration": 250, "velocity": 85}, {"time": 169924, "pitch": 61, "duration": 235, "velocity": 111}, {"time": 170160, "pitch": 65, "duration": 267, "velocity": 108}, {"time": 170160, "pitch": 66, "duration": 9, "velocity": 86}, {"time": 170396, "pitch": 67, "duration": 295, "velocity": 112}, {"time": 170636, "pitch": 58, "duration": 256, "velocity": 93}, {"time": 170877, "pitch": 63, "duration": 248, "velocity": 108}, {"time": 171118, "pitch": 67, "duration": 263, "velocity": 70}, {"time": 171118, "pitch": 68, "duration": 14, "velocity": 93}, {"time": 171359, "pitch": 69, "duration": 319, "velocity": 111}, {"time": 171600, "pitch": 60, "duration": 271, "velocity": 81}, {"time": 171841, "pitch": 65, "duration": 239, "velocity": 114}, {"time": 172082, "pitch": 69, "duration": 281, "velocity": 93}, {"time": 172323, "pitch": 60, "duration": 235, "velocity": 98}, {"time": 172564, "pitch": 65, "duration": 238, "velocity": 90}, {"time": 172804, "pitch": 57, "duration": 254, "velocity": 111}, {"time": 173040, "pitch": 60, "duration": 223, "velocity": 95}, {"time": 173276, "pitch": 65, "duration": 280, "velocity": 111}, {"time": 173517, "pitch": 57, "duration": 257, "velocity": 108}, {"time": 173758, "pitch": 60, "duration": 253, "velocity": 117}, {"time": 173999, "pitch": 65, "duration": 266, "velocity": 95}, {"time": 174240, "pitch": 64, "duration": 269, "velocity": 111}, {"time": 174481, "pitch": 55, "duration": 227, "velocity": 83}, {"time": 174722, "pitch": 60, "duration": 229, "velocity": 108}, {"time": 174963, "pitch": 62, "duration": 484, "velocity": 120}, {"time": 175439, "pitch": 53, "duration": 251, "velocity": 73}, {"time": 175675, "pitch": 58, "duration": 304, "velocity": 117}, {"time": 175916, "pitch": 62, "duration": 178, "velocity": 117}, {"time": 176157, "pitch": 62, "duration": 247, "velocity": 120}, {"time": 176398, "pitch": 58, "duration": 205, "velocity": 108}, {"time": 176639, "pitch": 64, "duration": 281, "velocity": 112}, {"time": 176880, "pitch": 60, "duration": 201, "velocity": 93}, {"time": 177121, "pitch": 65, "duration": 279, "velocity": 112}, {"time": 177362, "pitch": 57, "duration": 257, "velocity": 104}, {"time": 177602, "pitch": 60, "duration": 255, "velocity": 112}, {"time": 177843, "pitch": 65, "duration": 265, "velocity": 95}, {"time": 178084, "pitch": 64, "duration": 265, "velocity": 112}, {"time": 178320, "pitch": 55, "duration": 256, "velocity": 86}, {"time": 178556, "pitch": 60, "duration": 223, "velocity": 104}, {"time": 178797, "pitch": 62, "duration": 482, "velocity": 122}, {"time": 179279, "pitch": 53, "duration": 263, "velocity": 86}, {"time": 179520, "pitch": 58, "duration": 280, "velocity": 114}, {"time": 179761, "pitch": 62, "duration": 165, "velocity": 114}, {"time": 180002, "pitch": 62, "duration": 274, "velocity": 121}, {"time": 180242, "pitch": 58, "duration": 193, "velocity": 83}, {"time": 180483, "pitch": 64, "duration": 293, "velocity": 112}, {"time": 180719, "pitch": 60, "duration": 211, "velocity": 83}, {"time": 180955, "pitch": 64, "duration": 14, "velocity": 100}, {"time": 180955, "pitch": 65, "duration": 298, "velocity": 95}, {"time": 181196, "pitch": 57, "duration": 238, "velocity": 87}, {"time": 181437, "pitch": 60, "duration": 247, "velocity": 111}, {"time": 181678, "pitch": 65, "duration": 267, "velocity": 98}, {"time": 181919, "pitch": 64, "duration": 272, "velocity": 111}, {"time": 182160, "pitch": 55, "duration": 259, "velocity": 90}, {"time": 182401, "pitch": 60, "duration": 232, "velocity": 108}, {"time": 182641, "pitch": 62, "duration": 510, "velocity": 87}, {"time": 183123, "pitch": 53, "duration": 270, "velocity": 90}, {"time": 183364, "pitch": 58, "duration": 275, "velocity": 114}, {"time": 183600, "pitch": 62, "duration": 153, "velocity": 114}, {"time": 183836, "pitch": 62, "duration": 275, "velocity": 117}, {"time": 184077, "pitch": 58, "duration": 196, "velocity": 86}, {"time": 184318, "pitch": 64, "duration": 297, "velocity": 112}, {"time": 184559, "pitch": 60, "duration": 216, "velocity": 90}, {"time": 184800, "pitch": 65, "duration": 248, "velocity": 120}, {"time": 185040, "pitch": 56, "duration": 251, "velocity": 85}, {"time": 185281, "pitch": 61, "duration": 240, "velocity": 111}, {"time": 185522, "pitch": 65, "duration": 272, "velocity": 108}, {"time": 185522, "pitch": 66, "duration": 10, "velocity": 86}, {"time": 185763, "pitch": 67, "duration": 295, "velocity": 112}, {"time": 186004, "pitch": 58, "duration": 256, "velocity": 93}, {"time": 186245, "pitch": 63, "duration": 243, "velocity": 108}, {"time": 186481, "pitch": 67, "duration": 258, "velocity": 70}, {"time": 186481, "pitch": 68, "duration": 14, "velocity": 93}, {"time": 186717, "pitch": 69, "duration": 319, "velocity": 111}, {"time": 186958, "pitch": 60, "duration": 271, "velocity": 81}, {"time": 187199, "pitch": 65, "duration": 238, "velocity": 114}, {"time": 187439, "pitch": 69, "duration": 282, "velocity": 93}, {"time": 187680, "pitch": 60, "duration": 236, "velocity": 98}, {"time": 187921, "pitch": 65, "duration": 239, "velocity": 90}, {"time": 188162, "pitch": 57, "duration": 259, "velocity": 111}, {"time": 188403, "pitch": 60, "duration": 227, "velocity": 95}, {"time": 46560, "pitch": 70, "duration": 118, "velocity": 121}, {"time": 46801, "pitch": 65, "duration": 108, "velocity": 76}, {"time": 47042, "pitch": 74, "duration": 110, "velocity": 114}, {"time": 47283, "pitch": 77, "duration": 131, "velocity": 112}, {"time": 48478, "pitch": 72, "duration": 138, "velocity": 120}, {"time": 48718, "pitch": 65, "duration": 121, "velocity": 77}, {"time": 48959, "pitch": 69, "duration": 106, "velocity": 112}, {"time": 49200, "pitch": 77, "duration": 128, "velocity": 111}, {"time": 50164, "pitch": 77, "duration": 119, "velocity": 104}, {"time": 50405, "pitch": 72, "duration": 106, "velocity": 76}, {"time": 50641, "pitch": 67, "duration": 114, "velocity": 83}, {"time": 50877, "pitch": 72, "duration": 122, "velocity": 98}, {"time": 51117, "pitch": 79, "duration": 105, "velocity": 98}, {"time": 52322, "pitch": 72, "duration": 143, "velocity": 117}, {"time": 52563, "pitch": 69, "duration": 113, "velocity": 79}, {"time": 52804, "pitch": 72, "duration": 95, "velocity": 104}, {"time": 53040, "pitch": 77, "duration": 106, "velocity": 98}, {"time": 53517, "pitch": 72, "duration": 83, "velocity": 98}, {"time": 54239, "pitch": 74, "duration": 108, "velocity": 117}, {"time": 54480, "pitch": 65, "duration": 108, "velocity": 77}, {"time": 54721, "pitch": 70, "duration": 87, "velocity": 108}, {"time": 54962, "pitch": 77, "duration": 119, "velocity": 108}, {"time": 56157, "pitch": 72, "duration": 116, "velocity": 100}, {"time": 56397, "pitch": 65, "duration": 115, "velocity": 69}, {"time": 56638, "pitch": 69, "duration": 97, "velocity": 87}, {"time": 56879, "pitch": 77, "duration": 115, "velocity": 108}, {"time": 58083, "pitch": 74, "duration": 127, "velocity": 108}, {"time": 58319, "pitch": 65, "duration": 107, "velocity": 69}, {"time": 58556, "pitch": 70, "duration": 86, "velocity": 90}, {"time": 58796, "pitch": 77, "duration": 87, "velocity": 81}, {"time": 58796, "pitch": 79, "duration": 80, "velocity": 83}, {"time": 60001, "pitch": 70, "duration": 99, "velocity": 121}, {"time": 60242, "pitch": 65, "duration": 111, "velocity": 70}, {"time": 60483, "pitch": 70, "duration": 96, "velocity": 111}, {"time": 60723, "pitch": 77, "duration": 105, "velocity": 114}, {"time": 61918, "pitch": 72, "duration": 115, "velocity": 98}, {"time": 62159, "pitch": 79, "duration": 90, "velocity": 95}, {"time": 62400, "pitch": 84, "duration": 127, "velocity": 98}, {"time": 62641, "pitch": 72, "duration": 120, "velocity": 93}, {"time": 63122, "pitch": 79, "duration": 96, "velocity": 108}, {"time": 63363, "pitch": 84, "duration": 67, "velocity": 98}, {"time": 63835, "pitch": 77, "duration": 106, "velocity": 104}, {"time": 64076, "pitch": 69, "duration": 97, "velocity": 76}, {"time": 64317, "pitch": 72, "duration": 102, "velocity": 112}, {"time": 64558, "pitch": 77, "duration": 106, "velocity": 98}, {"time": 64799, "pitch": 76, "duration": 110, "velocity": 112}, {"time": 65040, "pitch": 67, "duration": 109, "velocity": 76}, {"time": 65281, "pitch": 72, "duration": 90, "velocity": 111}, {"time": 65521, "pitch": 74, "duration": 137, "velocity": 121}, {"time": 66716, "pitch": 74, "duration": 73, "velocity": 122}, {"time": 67198, "pitch": 76, "duration": 86, "velocity": 120}, {"time": 67680, "pitch": 77, "duration": 99, "velocity": 112}, {"time": 67921, "pitch": 69, "duration": 93, "velocity": 83}, {"time": 68161, "pitch": 72, "duration": 92, "velocity": 117}, {"time": 68402, "pitch": 77, "duration": 99, "velocity": 98}, {"time": 68643, "pitch": 76, "duration": 110, "velocity": 117}, {"time": 68879, "pitch": 67, "duration": 95, "velocity": 72}, {"time": 69115, "pitch": 72, "duration": 89, "velocity": 112}, {"time": 69356, "pitch": 74, "duration": 81, "velocity": 122}, {"time": 70560, "pitch": 74, "duration": 100, "velocity": 120}, {"time": 71042, "pitch": 76, "duration": 102, "velocity": 100}, {"time": 71524, "pitch": 77, "duration": 106, "velocity": 108}, {"time": 71760, "pitch": 69, "duration": 103, "velocity": 79}, {"time": 71996, "pitch": 72, "duration": 97, "velocity": 112}, {"time": 72237, "pitch": 77, "duration": 95, "velocity": 90}, {"time": 72478, "pitch": 76, "duration": 114, "velocity": 112}, {"time": 72719, "pitch": 67, "duration": 102, "velocity": 74}, {"time": 72959, "pitch": 72, "duration": 89, "velocity": 104}, {"time": 73200, "pitch": 74, "duration": 93, "velocity": 121}, {"time": 74405, "pitch": 70, "duration": 70, "velocity": 117}, {"time": 74405, "pitch": 74, "duration": 76, "velocity": 104}, {"time": 74877, "pitch": 72, "duration": 64, "velocity": 90}, {"time": 74877, "pitch": 76, "duration": 86, "velocity": 98}, {"time": 75479, "pitch": 77, "duration": 70, "velocity": 98}, {"time": 76322, "pitch": 79, "duration": 71, "velocity": 121}, {"time": 77276, "pitch": 81, "duration": 81, "velocity": 121}, {"time": 102239, "pitch": 70, "duration": 118, "velocity": 121}, {"time": 102480, "pitch": 65, "duration": 108, "velocity": 76}, {"time": 102721, "pitch": 74, "duration": 111, "velocity": 114}, {"time": 102962, "pitch": 77, "duration": 132, "velocity": 112}, {"time": 104157, "pitch": 72, "duration": 138, "velocity": 120}, {"time": 104398, "pitch": 65, "duration": 120, "velocity": 77}, {"time": 104638, "pitch": 69, "duration": 106, "velocity": 112}, {"time": 104879, "pitch": 77, "duration": 128, "velocity": 111}, {"time": 105843, "pitch": 77, "duration": 119, "velocity": 104}, {"time": 106084, "pitch": 72, "duration": 106, "velocity": 76}, {"time": 106320, "pitch": 67, "duration": 114, "velocity": 83}, {"time": 106556, "pitch": 72, "duration": 122, "velocity": 98}, {"time": 106797, "pitch": 79, "duration": 104, "velocity": 98}, {"time": 108001, "pitch": 72, "duration": 144, "velocity": 117}, {"time": 108242, "pitch": 69, "duration": 113, "velocity": 79}, {"time": 108483, "pitch": 72, "duration": 97, "velocity": 104}, {"time": 108724, "pitch": 77, "duration": 108, "velocity": 98}, {"time": 109201, "pitch": 72, "duration": 81, "velocity": 98}, {"time": 109918, "pitch": 74, "duration": 108, "velocity": 117}, {"time": 110159, "pitch": 65, "duration": 109, "velocity": 77}, {"time": 110400, "pitch": 70, "duration": 87, "velocity": 108}, {"time": 110641, "pitch": 77, "duration": 119, "velocity": 108}, {"time": 111836, "pitch": 72, "duration": 116, "velocity": 100}, {"time": 112076, "pitch": 65, "duration": 115, "velocity": 69}, {"time": 112317, "pitch": 69, "duration": 97, "velocity": 87}, {"time": 112558, "pitch": 77, "duration": 115, "velocity": 108}, {"time": 113763, "pitch": 74, "duration": 129, "velocity": 108}, {"time": 114004, "pitch": 65, "duration": 108, "velocity": 69}, {"time": 114244, "pitch": 70, "duration": 85, "velocity": 90}, {"time": 114480, "pitch": 77, "duration": 85, "velocity": 81}, {"time": 114480, "pitch": 79, "duration": 78, "velocity": 83}, {"time": 115680, "pitch": 70, "duration": 99, "velocity": 121}, {"time": 115921, "pitch": 65, "duration": 111, "velocity": 70}, {"time": 116162, "pitch": 70, "duration": 96, "velocity": 111}, {"time": 116403, "pitch": 77, "duration": 104, "velocity": 114}, {"time": 117597, "pitch": 72, "duration": 116, "velocity": 98}, {"time": 117838, "pitch": 79, "duration": 90, "velocity": 95}, {"time": 118079, "pitch": 84, "duration": 127, "velocity": 98}, {"time": 118320, "pitch": 72, "duration": 120, "velocity": 93}, {"time": 118802, "pitch": 79, "duration": 95, "velocity": 108}, {"time": 119043, "pitch": 84, "duration": 68, "velocity": 98}, {"time": 119524, "pitch": 77, "duration": 103, "velocity": 104}, {"time": 119760, "pitch": 69, "duration": 95, "velocity": 76}, {"time": 119996, "pitch": 72, "duration": 103, "velocity": 112}, {"time": 120237, "pitch": 77, "duration": 107, "velocity": 98}, {"time": 120478, "pitch": 76, "duration": 110, "velocity": 112}, {"time": 120719, "pitch": 67, "duration": 109, "velocity": 76}, {"time": 120960, "pitch": 72, "duration": 90, "velocity": 111}, {"time": 121201, "pitch": 74, "duration": 136, "velocity": 121}, {"time": 122395, "pitch": 74, "duration": 74, "velocity": 122}, {"time": 122877, "pitch": 76, "duration": 86, "velocity": 120}, {"time": 123359, "pitch": 77, "duration": 99, "velocity": 112}, {"time": 123600, "pitch": 69, "duration": 93, "velocity": 83}, {"time": 123841, "pitch": 72, "duration": 91, "velocity": 117}, {"time": 124081, "pitch": 77, "duration": 99, "velocity": 98}, {"time": 124322, "pitch": 76, "duration": 113, "velocity": 117}, {"time": 124563, "pitch": 67, "duration": 97, "velocity": 72}, {"time": 124804, "pitch": 72, "duration": 88, "velocity": 112}, {"time": 125040, "pitch": 74, "duration": 80, "velocity": 122}, {"time": 126240, "pitch": 74, "duration": 99, "velocity": 120}, {"time": 126721, "pitch": 76, "duration": 102, "velocity": 100}, {"time": 127203, "pitch": 77, "duration": 106, "velocity": 108}, {"time": 127439, "pitch": 69, "duration": 103, "velocity": 79}, {"time": 127675, "pitch": 72, "duration": 97, "velocity": 112}, {"time": 127916, "pitch": 77, "duration": 95, "velocity": 90}, {"time": 128157, "pitch": 76, "duration": 114, "velocity": 112}, {"time": 128398, "pitch": 67, "duration": 102, "velocity": 74}, {"time": 128639, "pitch": 72, "duration": 88, "velocity": 104}, {"time": 128880, "pitch": 74, "duration": 92, "velocity": 121}, {"time": 130084, "pitch": 70, "duration": 71, "velocity": 117}, {"time": 130084, "pitch": 74, "duration": 77, "velocity": 104}, {"time": 130556, "pitch": 72, "duration": 64, "velocity": 90}, {"time": 130556, "pitch": 76, "duration": 86, "velocity": 98}, {"time": 131158, "pitch": 77, "duration": 70, "velocity": 98}, {"time": 132001, "pitch": 79, "duration": 71, "velocity": 121}, {"time": 132965, "pitch": 81, "duration": 79, "velocity": 121}, {"time": 154084, "pitch": 70, "duration": 97, "velocity": 121}, {"time": 154320, "pitch": 65, "duration": 109, "velocity": 70}, {"time": 154556, "pitch": 70, "duration": 96, "velocity": 111}, {"time": 154797, "pitch": 77, "duration": 104, "velocity": 114}, {"time": 156001, "pitch": 72, "duration": 116, "velocity": 98}, {"time": 156242, "pitch": 79, "duration": 91, "velocity": 95}, {"time": 156483, "pitch": 84, "duration": 128, "velocity": 98}, {"time": 156724, "pitch": 72, "duration": 120, "velocity": 93}, {"time": 157201, "pitch": 79, "duration": 93, "velocity": 108}, {"time": 157437, "pitch": 84, "duration": 68, "velocity": 98}, {"time": 157919, "pitch": 77, "duration": 105, "velocity": 104}, {"time": 158160, "pitch": 69, "duration": 96, "velocity": 76}, {"time": 158400, "pitch": 72, "duration": 103, "velocity": 112}, {"time": 158641, "pitch": 77, "duration": 107, "velocity": 98}, {"time": 158882, "pitch": 76, "duration": 111, "velocity": 112}, {"time": 159123, "pitch": 67, "duration": 109, "velocity": 76}, {"time": 159364, "pitch": 72, "duration": 88, "velocity": 111}, {"time": 159600, "pitch": 74, "duration": 134, "velocity": 121}, {"time": 160799, "pitch": 74, "duration": 74, "velocity": 122}, {"time": 161281, "pitch": 76, "duration": 87, "velocity": 120}, {"time": 161763, "pitch": 77, "duration": 99, "velocity": 112}, {"time": 162004, "pitch": 69, "duration": 93, "velocity": 83}, {"time": 162245, "pitch": 72, "duration": 89, "velocity": 117}, {"time": 162481, "pitch": 77, "duration": 96, "velocity": 98}, {"time": 162717, "pitch": 76, "duration": 112, "velocity": 117}, {"time": 162958, "pitch": 67, "duration": 96, "velocity": 72}, {"time": 163198, "pitch": 72, "duration": 90, "velocity": 112}, {"time": 163439, "pitch": 74, "duration": 82, "velocity": 122}, {"time": 164644, "pitch": 74, "duration": 97, "velocity": 120}, {"time": 165116, "pitch": 76, "duration": 101, "velocity": 100}, {"time": 165597, "pitch": 77, "duration": 109, "velocity": 108}, {"time": 165838, "pitch": 69, "duration": 106, "velocity": 79}, {"time": 166079, "pitch": 72, "duration": 98, "velocity": 112}, {"time": 166320, "pitch": 77, "duration": 95, "velocity": 90}, {"time": 166561, "pitch": 76, "duration": 114, "velocity": 112}, {"time": 166802, "pitch": 67, "duration": 102, "velocity": 74}, {"time": 167043, "pitch": 72, "duration": 88, "velocity": 104}, {"time": 167284, "pitch": 74, "duration": 92, "velocity": 121}, {"time": 168478, "pitch": 70, "duration": 73, "velocity": 117}, {"time": 168478, "pitch": 74, "duration": 79, "velocity": 104}, {"time": 168960, "pitch": 72, "duration": 64, "velocity": 90}, {"time": 168960, "pitch": 76, "duration": 86, "velocity": 98}, {"time": 169562, "pitch": 77, "duration": 71, "velocity": 98}, {"time": 170396, "pitch": 79, "duration": 71, "velocity": 121}, {"time": 171359, "pitch": 81, "duration": 81, "velocity": 121}, {"time": 173276, "pitch": 77, "duration": 106, "velocity": 104}, {"time": 173517, "pitch": 69, "duration": 97, "velocity": 76}, {"time": 173758, "pitch": 72, "duration": 103, "velocity": 112}, {"time": 173999, "pitch": 77, "duration": 106, "velocity": 98}, {"time": 174240, "pitch": 76, "duration": 110, "velocity": 112}, {"time": 174481, "pitch": 67, "duration": 109, "velocity": 76}, {"time": 174722, "pitch": 72, "duration": 90, "velocity": 111}, {"time": 174963, "pitch": 74, "duration": 136, "velocity": 121}, {"time": 176157, "pitch": 74, "duration": 73, "velocity": 122}, {"time": 176639, "pitch": 76, "duration": 86, "velocity": 120}, {"time": 177121, "pitch": 77, "duration": 99, "velocity": 112}, {"time": 177362, "pitch": 69, "duration": 93, "velocity": 83}, {"time": 177602, "pitch": 72, "duration": 92, "velocity": 117}, {"time": 177843, "pitch": 77, "duration": 99, "velocity": 98}, {"time": 178084, "pitch": 76, "duration": 110, "velocity": 117}, {"time": 178320, "pitch": 67, "duration": 95, "velocity": 72}, {"time": 178556, "pitch": 72, "duration": 90, "velocity": 112}, {"time": 178797, "pitch": 74, "duration": 81, "velocity": 122}, {"time": 180002, "pitch": 74, "duration": 99, "velocity": 120}, {"time": 180483, "pitch": 76, "duration": 100, "velocity": 100}, {"time": 180955, "pitch": 77, "duration": 109, "velocity": 108}, {"time": 181196, "pitch": 69, "duration": 106, "velocity": 79}, {"time": 181437, "pitch": 72, "duration": 97, "velocity": 112}, {"time": 181678, "pitch": 77, "duration": 95, "velocity": 90}, {"time": 181919, "pitch": 76, "duration": 114, "velocity": 112}, {"time": 182160, "pitch": 67, "duration": 102, "velocity": 74}, {"time": 182401, "pitch": 72, "duration": 88, "velocity": 104}, {"time": 182641, "pitch": 74, "duration": 93, "velocity": 121}, {"time": 183836, "pitch": 70, "duration": 72, "velocity": 117}, {"time": 183836, "pitch": 74, "duration": 78, "velocity": 104}, {"time": 184318, "pitch": 72, "duration": 64, "velocity": 90}, {"time": 184318, "pitch": 76, "duration": 86, "velocity": 98}, {"time": 184920, "pitch": 77, "duration": 70, "velocity": 98}, {"time": 185763, "pitch": 79, "duration": 71, "velocity": 121}, {"time": 186717, "pitch": 81, "duration": 81, "velocity": 121}, {"time": 211681, "pitch": 72, "duration": 245, "velocity": 100}, {"time": 211681, "pitch": 84, "duration": 179, "velocity": 120}, {"time": 212162, "pitch": 65, "duration": 154, "velocity": 86}, {"time": 212162, "pitch": 77, "duration": 149, "velocity": 111}, {"time": 212403, "pitch": 72, "duration": 227, "velocity": 117}, {"time": 212403, "pitch": 84, "duration": 190, "velocity": 121}, {"time": 213598, "pitch": 70, "duration": 124, "velocity": 108}, {"time": 213598, "pitch": 82, "duration": 118, "velocity": 123}, {"time": 213839, "pitch": 69, "duration": 101, "velocity": 75}, {"time": 213839, "pitch": 81, "duration": 92, "velocity": 95}, {"time": 214080, "pitch": 67, "duration": 87, "velocity": 74}, {"time": 214080, "pitch": 79, "duration": 92, "velocity": 95}, {"time": 214320, "pitch": 65, "duration": 75, "velocity": 111}, {"time": 214320, "pitch": 77, "duration": 68, "velocity": 123}, {"time": 479, "pitch": 35, "duration": 198, "velocity": 110}, {"time": 479, "pitch": 42, "duration": 87, "velocity": 122}, {"time": 479, "pitch": 70, "duration": 76, "velocity": 120}, {"time": 718, "pitch": 42, "duration": 63, "velocity": 74}, {"time": 718, "pitch": 70, "duration": 55, "velocity": 81}, {"time": 839, "pitch": 42, "duration": 53, "velocity": 71}, {"time": 959, "pitch": 35, "duration": 170, "velocity": 110}, {"time": 959, "pitch": 42, "duration": 95, "velocity": 112}, {"time": 959, "pitch": 70, "duration": 60, "velocity": 122}, {"time": 1200, "pitch": 42, "duration": 49, "velocity": 76}, {"time": 1200, "pitch": 70, "duration": 56, "velocity": 74}, {"time": 1320, "pitch": 42, "duration": 64, "velocity": 79}, {"time": 1441, "pitch": 35, "duration": 115, "velocity": 110}, {"time": 1441, "pitch": 42, "duration": 70, "velocity": 117}, {"time": 1441, "pitch": 70, "duration": 73, "velocity": 122}, {"time": 1682, "pitch": 42, "duration": 48, "velocity": 60}, {"time": 1682, "pitch": 70, "duration": 48, "velocity": 77}, {"time": 1802, "pitch": 42, "duration": 50, "velocity": 75}, {"time": 1802, "pitch": 70, "duration": 40, "velocity": 76}, {"time": 1923, "pitch": 35, "duration": 88, "velocity": 109}, {"time": 1923, "pitch": 42, "duration": 87, "velocity": 117}, {"time": 1923, "pitch": 70, "duration": 66, "velocity": 83}, {"time": 2043, "pitch": 70, "duration": 48, "velocity": 85}, {"time": 2163, "pitch": 42, "duration": 50, "velocity": 73}, {"time": 2163, "pitch": 70, "duration": 56, "velocity": 75}, {"time": 2284, "pitch": 42, "duration": 50, "velocity": 66}, {"time": 2404, "pitch": 35, "duration": 99, "velocity": 109}, {"time": 2404, "pitch": 42, "duration": 74, "velocity": 121}, {"time": 2404, "pitch": 70, "duration": 76, "velocity": 120}, {"time": 2640, "pitch": 42, "duration": 47, "velocity": 67}, {"time": 2640, "pitch": 70, "duration": 54, "velocity": 81}, {"time": 2758, "pitch": 42, "duration": 48, "velocity": 83}, {"time": 2876, "pitch": 35, "duration": 96, "velocity": 109}, {"time": 2876, "pitch": 42, "duration": 86, "velocity": 117}, {"time": 2876, "pitch": 70, "duration": 61, "velocity": 122}, {"time": 3117, "pitch": 42, "duration": 47, "velocity": 79}, {"time": 3117, "pitch": 70, "duration": 56, "velocity": 74}, {"time": 3238, "pitch": 42, "duration": 61, "velocity": 72}, {"time": 3358, "pitch": 35, "duration": 93, "velocity": 109}, {"time": 3358, "pitch": 42, "duration": 66, "velocity": 120}, {"time": 3358, "pitch": 70, "duration": 73, "velocity": 122}, {"time": 3599, "pitch": 42, "duration": 41, "velocity": 61}, {"time": 3599, "pitch": 70, "duration": 48, "velocity": 77}, {"time": 3719, "pitch": 42, "duration": 57, "velocity": 93}, {"time": 3719, "pitch": 70, "duration": 41, "velocity": 76}, {"time": 3840, "pitch": 35, "duration": 88, "velocity": 110}, {"time": 3840, "pitch": 42, "duration": 79, "velocity": 111}, {"time": 3840, "pitch": 70, "duration": 66, "velocity": 83}, {"time": 3960, "pitch": 70, "duration": 48, "velocity": 85}, {"time": 4081, "pitch": 42, "duration": 45, "velocity": 74}, {"time": 4081, "pitch": 70, "duration": 55, "velocity": 75}, {"time": 4201, "pitch": 42, "duration": 50, "velocity": 65}, {"time": 4322, "pitch": 35, "duration": 102, "velocity": 109}, {"time": 4322, "pitch": 42, "duration": 66, "velocity": 114}, {"time": 4322, "pitch": 70, "duration": 77, "velocity": 120}, {"time": 4562, "pitch": 42, "duration": 52, "velocity": 79}, {"time": 4562, "pitch": 70, "duration": 56, "velocity": 81}, {"time": 4683, "pitch": 42, "duration": 44, "velocity": 75}, {"time": 4803, "pitch": 35, "duration": 102, "velocity": 107}, {"time": 4803, "pitch": 42, "duration": 87, "velocity": 117}, {"time": 4803, "pitch": 70, "duration": 59, "velocity": 122}, {"time": 5039, "pitch": 42, "duration": 53, "velocity": 90}, {"time": 5039, "pitch": 70, "duration": 55, "velocity": 74}, {"time": 5157, "pitch": 42, "duration": 53, "velocity": 77}, {"time": 5275, "pitch": 35, "duration": 98, "velocity": 109}, {"time": 5275, "pitch": 42, "duration": 69, "velocity": 117}, {"time": 5275, "pitch": 70, "duration": 74, "velocity": 122}, {"time": 5516, "pitch": 42, "duration": 47, "velocity": 60}, {"time": 5516, "pitch": 70, "duration": 48, "velocity": 77}, {"time": 5637, "pitch": 42, "duration": 45, "velocity": 74}, {"time": 5637, "pitch": 70, "duration": 40, "velocity": 76}, {"time": 5757, "pitch": 35, "duration": 96, "velocity": 111}, {"time": 5757, "pitch": 42, "duration": 85, "velocity": 114}, {"time": 5757, "pitch": 70, "duration": 66, "velocity": 83}, {"time": 5878, "pitch": 70, "duration": 48, "velocity": 85}, {"time": 5998, "pitch": 42, "duration": 55, "velocity": 86}, {"time": 5998, "pitch": 70, "duration": 55, "velocity": 75}, {"time": 6118, "pitch": 42, "duration": 56, "velocity": 73}, {"time": 6239, "pitch": 35, "duration": 101, "velocity": 109}, {"time": 6239, "pitch": 42, "duration": 75, "velocity": 121}, {"time": 6239, "pitch": 70, "duration": 77, "velocity": 120}, {"time": 6480, "pitch": 42, "duration": 58, "velocity": 61}, {"time": 6480, "pitch": 70, "duration": 55, "velocity": 81}, {"time": 6600, "pitch": 42, "duration": 44, "velocity": 67}, {"time": 6721, "pitch": 35, "duration": 85, "velocity": 109}, {"time": 6721, "pitch": 42, "duration": 85, "velocity": 121}, {"time": 6721, "pitch": 70, "duration": 60, "velocity": 122}, {"time": 6962, "pitch": 42, "duration": 47, "velocity": 70}, {"time": 6962, "pitch": 70, "duration": 56, "velocity": 74}, {"time": 7082, "pitch": 42, "duration": 61, "velocity": 74}, {"time": 7202, "pitch": 35, "duration": 108, "velocity": 109}, {"time": 7202, "pitch": 42, "duration": 77, "velocity": 121}, {"time": 7202, "pitch": 70, "duration": 74, "velocity": 122}, {"time": 7443, "pitch": 42, "duration": 43, "velocity": 64}, {"time": 7443, "pitch": 70, "duration": 48, "velocity": 77}, {"time": 7564, "pitch": 42, "duration": 47, "velocity": 71}, {"time": 7564, "pitch": 70, "duration": 40, "velocity": 76}, {"time": 7684, "pitch": 35, "duration": 87, "velocity": 108}, {"time": 7684, "pitch": 42, "duration": 87, "velocity": 114}, {"time": 7684, "pitch": 70, "duration": 65, "velocity": 83}, {"time": 7802, "pitch": 42, "duration": 42, "velocity": 64}, {"time": 7802, "pitch": 70, "duration": 47, "velocity": 85}, {"time": 7920, "pitch": 46, "duration": 63, "velocity": 72}, {"time": 7920, "pitch": 70, "duration": 54, "velocity": 75}, {"time": 8156, "pitch": 35, "duration": 200, "velocity": 110}, {"time": 8156, "pitch": 42, "duration": 88, "velocity": 122}, {"time": 8156, "pitch": 70, "duration": 77, "velocity": 120}, {"time": 8397, "pitch": 42, "duration": 63, "velocity": 74}, {"time": 8397, "pitch": 70, "duration": 55, "velocity": 81}, {"time": 8517, "pitch": 42, "duration": 54, "velocity": 71}, {"time": 8638, "pitch": 35, "duration": 170, "velocity": 110}, {"time": 8638, "pitch": 42, "duration": 95, "velocity": 112}, {"time": 8638, "pitch": 70, "duration": 60, "velocity": 122}, {"time": 8879, "pitch": 42, "duration": 49, "velocity": 76}, {"time": 8879, "pitch": 70, "duration": 56, "velocity": 74}, {"time": 8999, "pitch": 42, "duration": 63, "velocity": 79}, {"time": 9120, "pitch": 35, "duration": 115, "velocity": 110}, {"time": 9120, "pitch": 42, "duration": 70, "velocity": 117}, {"time": 9120, "pitch": 70, "duration": 73, "velocity": 122}, {"time": 9361, "pitch": 42, "duration": 48, "velocity": 60}, {"time": 9361, "pitch": 70, "duration": 48, "velocity": 77}, {"time": 9481, "pitch": 42, "duration": 50, "velocity": 75}, {"time": 9481, "pitch": 70, "duration": 40, "velocity": 76}, {"time": 9601, "pitch": 35, "duration": 89, "velocity": 109}, {"time": 9601, "pitch": 42, "duration": 88, "velocity": 117}, {"time": 9601, "pitch": 70, "duration": 67, "velocity": 83}, {"time": 9722, "pitch": 70, "duration": 48, "velocity": 85}, {"time": 9842, "pitch": 42, "duration": 50, "velocity": 73}, {"time": 9842, "pitch": 70, "duration": 56, "velocity": 75}, {"time": 9963, "pitch": 42, "duration": 50, "velocity": 66}, {"time": 10083, "pitch": 35, "duration": 99, "velocity": 109}, {"time": 10083, "pitch": 42, "duration": 74, "velocity": 121}, {"time": 10083, "pitch": 70, "duration": 76, "velocity": 120}, {"time": 10319, "pitch": 42, "duration": 46, "velocity": 67}, {"time": 10319, "pitch": 70, "duration": 54, "velocity": 81}, {"time": 10437, "pitch": 42, "duration": 47, "velocity": 83}, {"time": 10555, "pitch": 35, "duration": 96, "velocity": 109}, {"time": 10555, "pitch": 42, "duration": 85, "velocity": 117}, {"time": 10555, "pitch": 70, "duration": 60, "velocity": 122}, {"time": 10796, "pitch": 42, "duration": 47, "velocity": 79}, {"time": 10796, "pitch": 70, "duration": 56, "velocity": 74}, {"time": 10916, "pitch": 42, "duration": 62, "velocity": 72}, {"time": 11037, "pitch": 35, "duration": 93, "velocity": 109}, {"time": 11037, "pitch": 42, "duration": 66, "velocity": 120}, {"time": 11037, "pitch": 70, "duration": 73, "velocity": 122}, {"time": 11278, "pitch": 42, "duration": 41, "velocity": 61}, {"time": 11278, "pitch": 70, "duration": 48, "velocity": 77}, {"time": 11398, "pitch": 42, "duration": 56, "velocity": 93}, {"time": 11398, "pitch": 70, "duration": 40, "velocity": 76}, {"time": 11519, "pitch": 35, "duration": 88, "velocity": 110}, {"time": 11519, "pitch": 42, "duration": 79, "velocity": 111}, {"time": 11519, "pitch": 70, "duration": 66, "velocity": 83}, {"time": 11639, "pitch": 70, "duration": 48, "velocity": 85}, {"time": 11760, "pitch": 42, "duration": 45, "velocity": 74}, {"time": 11760, "pitch": 70, "duration": 55, "velocity": 75}, {"time": 11880, "pitch": 42, "duration": 50, "velocity": 65}, {"time": 12000, "pitch": 35, "duration": 103, "velocity": 109}, {"time": 12000, "pitch": 42, "duration": 67, "velocity": 114}, {"time": 12000, "pitch": 70, "duration": 78, "velocity": 120}, {"time": 12241, "pitch": 42, "duration": 52, "velocity": 79}, {"time": 12241, "pitch": 70, "duration": 56, "velocity": 81}, {"time": 12362, "pitch": 42, "duration": 44, "velocity": 75}, {"time": 12482, "pitch": 35, "duration": 104, "velocity": 107}, {"time": 12482, "pitch": 42, "duration": 89, "velocity": 117}, {"time": 12482, "pitch": 70, "duration": 60, "velocity": 122}, {"time": 12723, "pitch": 42, "duration": 54, "velocity": 90}, {"time": 12723, "pitch": 70, "duration": 56, "velocity": 74}, {"time": 12844, "pitch": 42, "duration": 53, "velocity": 77}, {"time": 12964, "pitch": 35, "duration": 95, "velocity": 109}, {"time": 12964, "pitch": 42, "duration": 67, "velocity": 117}, {"time": 12964, "pitch": 70, "duration": 72, "velocity": 122}, {"time": 13200, "pitch": 42, "duration": 46, "velocity": 60}, {"time": 13200, "pitch": 70, "duration": 47, "velocity": 77}, {"time": 13318, "pitch": 42, "duration": 44, "velocity": 74}, {"time": 13318, "pitch": 70, "duration": 39, "velocity": 76}, {"time": 13436, "pitch": 35, "duration": 96, "velocity": 111}, {"time": 13436, "pitch": 42, "duration": 85, "velocity": 114}, {"time": 13436, "pitch": 70, "duration": 66, "velocity": 83}, {"time": 13556, "pitch": 70, "duration": 49, "velocity": 85}, {"time": 13677, "pitch": 42, "duration": 55, "velocity": 86}, {"time": 13677, "pitch": 70, "duration": 55, "velocity": 75}, {"time": 13797, "pitch": 42, "duration": 56, "velocity": 73}, {"time": 13918, "pitch": 35, "duration": 101, "velocity": 109}, {"time": 13918, "pitch": 42, "duration": 75, "velocity": 121}, {"time": 13918, "pitch": 70, "duration": 77, "velocity": 120}, {"time": 14159, "pitch": 42, "duration": 58, "velocity": 61}, {"time": 14159, "pitch": 70, "duration": 55, "velocity": 81}, {"time": 14279, "pitch": 42, "duration": 44, "velocity": 67}, {"time": 14400, "pitch": 35, "duration": 85, "velocity": 109}, {"time": 14400, "pitch": 42, "duration": 85, "velocity": 121}, {"time": 14400, "pitch": 70, "duration": 60, "velocity": 122}, {"time": 14640, "pitch": 42, "duration": 48, "velocity": 70}, {"time": 14640, "pitch": 70, "duration": 57, "velocity": 74}, {"time": 14761, "pitch": 42, "duration": 61, "velocity": 74}, {"time": 14881, "pitch": 35, "duration": 108, "velocity": 109}, {"time": 14881, "pitch": 42, "duration": 77, "velocity": 121}, {"time": 14881, "pitch": 70, "duration": 74, "velocity": 122}, {"time": 15122, "pitch": 42, "duration": 43, "velocity": 64}, {"time": 15122, "pitch": 70, "duration": 48, "velocity": 77}, {"time": 15243, "pitch": 38, "duration": 98, "velocity": 41}, {"time": 15243, "pitch": 42, "duration": 47, "velocity": 71}, {"time": 15243, "pitch": 70, "duration": 40, "velocity": 76}, {"time": 15363, "pitch": 35, "duration": 88, "velocity": 108}, {"time": 15363, "pitch": 38, "duration": 84, "velocity": 108}, {"time": 15363, "pitch": 42, "duration": 88, "velocity": 114}, {"time": 15363, "pitch": 70, "duration": 66, "velocity": 83}, {"time": 15483, "pitch": 42, "duration": 44, "velocity": 64}, {"time": 15483, "pitch": 70, "duration": 49, "velocity": 85}, {"time": 15604, "pitch": 46, "duration": 64, "velocity": 72}, {"time": 15604, "pitch": 70, "duration": 55, "velocity": 75}, {"time": 15845, "pitch": 35, "duration": 195, "velocity": 110}, {"time": 15845, "pitch": 42, "duration": 86, "velocity": 122}, {"time": 15845, "pitch": 49, "duration": 110, "velocity": 53}, {"time": 15845, "pitch": 70, "duration": 75, "velocity": 120}, {"time": 16081, "pitch": 42, "duration": 62, "velocity": 74}, {"time": 16081, "pitch": 70, "duration": 54, "velocity": 81}, {"time": 16199, "pitch": 42, "duration": 52, "velocity": 71}, {"time": 16317, "pitch": 35, "duration": 169, "velocity": 110}, {"time": 16317, "pitch": 38, "duration": 111, "velocity": 105}, {"time": 16317, "pitch": 42, "duration": 95, "velocity": 112}, {"time": 16317, "pitch": 70, "duration": 60, "velocity": 122}, {"time": 16558, "pitch": 42, "duration": 49, "velocity": 76}, {"time": 16558, "pitch": 70, "duration": 56, "velocity": 74}, {"time": 16678, "pitch": 42, "duration": 63, "velocity": 79}, {"time": 16799, "pitch": 35, "duration": 115, "velocity": 110}, {"time": 16799, "pitch": 42, "duration": 70, "velocity": 117}, {"time": 16799, "pitch": 70, "duration": 73, "velocity": 122}, {"time": 17039, "pitch": 42, "duration": 49, "velocity": 60}, {"time": 17039, "pitch": 70, "duration": 49, "velocity": 77}, {"time": 17160, "pitch": 42, "duration": 50, "velocity": 75}, {"time": 17160, "pitch": 70, "duration": 40, "velocity": 76}, {"time": 17280, "pitch": 35, "duration": 89, "velocity": 109}, {"time": 17280, "pitch": 38, "duration": 87, "velocity": 104}, {"time": 17280, "pitch": 42, "duration": 88, "velocity": 117}, {"time": 17280, "pitch": 70, "duration": 67, "velocity": 83}, {"time": 17401, "pitch": 70, "duration": 48, "velocity": 85}, {"time": 17521, "pitch": 42, "duration": 49, "velocity": 73}, {"time": 17521, "pitch": 70, "duration": 55, "velocity": 75}, {"time": 17642, "pitch": 42, "duration": 50, "velocity": 66}, {"time": 17762, "pitch": 35, "duration": 100, "velocity": 109}, {"time": 17762, "pitch": 42, "duration": 75, "velocity": 121}, {"time": 17762, "pitch": 70, "duration": 77, "velocity": 120}, {"time": 18003, "pitch": 42, "duration": 47, "velocity": 67}, {"time": 18003, "pitch": 70, "duration": 55, "velocity": 81}, {"time": 18123, "pitch": 42, "duration": 49, "velocity": 83}, {"time": 18244, "pitch": 35, "duration": 93, "velocity": 109}, {"time": 18244, "pitch": 38, "duration": 102, "velocity": 104}, {"time": 18244, "pitch": 42, "duration": 83, "velocity": 117}, {"time": 18244, "pitch": 70, "duration": 59, "velocity": 122}, {"time": 18480, "pitch": 42, "duration": 46, "velocity": 79}, {"time": 18480, "pitch": 70, "duration": 55, "velocity": 74}, {"time": 18598, "pitch": 42, "duration": 60, "velocity": 72}, {"time": 18716, "pitch": 35, "duration": 93, "velocity": 109}, {"time": 18716, "pitch": 42, "duration": 66, "velocity": 120}, {"time": 18716, "pitch": 70, "duration": 73, "velocity": 122}, {"time": 18957, "pitch": 42, "duration": 41, "velocity": 61}, {"time": 18957, "pitch": 70, "duration": 48, "velocity": 77}, {"time": 19077, "pitch": 42, "duration": 56, "velocity": 93}, {"time": 19077, "pitch": 70, "duration": 40, "velocity": 76}, {"time": 19198, "pitch": 35, "duration": 88, "velocity": 110}, {"time": 19198, "pitch": 38, "duration": 113, "velocity": 103}, {"time": 19198, "pitch": 42, "duration": 79, "velocity": 111}, {"time": 19198, "pitch": 70, "duration": 66, "velocity": 83}, {"time": 19318, "pitch": 70, "duration": 48, "velocity": 85}, {"time": 19438, "pitch": 42, "duration": 46, "velocity": 74}, {"time": 19438, "pitch": 70, "duration": 56, "velocity": 75}, {"time": 19559, "pitch": 42, "duration": 50, "velocity": 65}, {"time": 19679, "pitch": 35, "duration": 103, "velocity": 109}, {"time": 19679, "pitch": 42, "duration": 67, "velocity": 114}, {"time": 19679, "pitch": 70, "duration": 78, "velocity": 120}, {"time": 19920, "pitch": 42, "duration": 51, "velocity": 79}, {"time": 19920, "pitch": 70, "duration": 55, "velocity": 81}, {"time": 20041, "pitch": 42, "duration": 44, "velocity": 75}, {"time": 20161, "pitch": 35, "duration": 103, "velocity": 107}, {"time": 20161, "pitch": 38, "duration": 113, "velocity": 104}, {"time": 20161, "pitch": 42, "duration": 88, "velocity": 117}, {"time": 20161, "pitch": 70, "duration": 60, "velocity": 122}, {"time": 20402, "pitch": 42, "duration": 54, "velocity": 90}, {"time": 20402, "pitch": 70, "duration": 56, "velocity": 74}, {"time": 20522, "pitch": 42, "duration": 54, "velocity": 77}, {"time": 20643, "pitch": 35, "duration": 97, "velocity": 109}, {"time": 20643, "pitch": 42, "duration": 68, "velocity": 117}, {"time": 20643, "pitch": 70, "duration": 73, "velocity": 122}, {"time": 20884, "pitch": 42, "duration": 47, "velocity": 60}, {"time": 20884, "pitch": 70, "duration": 48, "velocity": 77}, {"time": 21004, "pitch": 42, "duration": 45, "velocity": 74}, {"time": 21004, "pitch": 70, "duration": 40, "velocity": 76}, {"time": 21125, "pitch": 35, "duration": 94, "velocity": 111}, {"time": 21125, "pitch": 38, "duration": 93, "velocity": 103}, {"time": 21125, "pitch": 42, "duration": 83, "velocity": 114}, {"time": 21125, "pitch": 70, "duration": 64, "velocity": 83}, {"time": 21243, "pitch": 70, "duration": 47, "velocity": 85}, {"time": 21361, "pitch": 42, "duration": 54, "velocity": 86}, {"time": 21361, "pitch": 70, "duration": 54, "velocity": 75}, {"time": 21479, "pitch": 42, "duration": 54, "velocity": 73}, {"time": 21597, "pitch": 35, "duration": 101, "velocity": 109}, {"time": 21597, "pitch": 42, "duration": 75, "velocity": 121}, {"time": 21597, "pitch": 70, "duration": 77, "velocity": 120}, {"time": 21837, "pitch": 42, "duration": 59, "velocity": 61}, {"time": 21837, "pitch": 70, "duration": 56, "velocity": 81}, {"time": 21958, "pitch": 42, "duration": 44, "velocity": 67}, {"time": 22078, "pitch": 35, "duration": 86, "velocity": 109}, {"time": 22078, "pitch": 38, "duration": 99, "velocity": 103}, {"time": 22078, "pitch": 42, "duration": 86, "velocity": 121}, {"time": 22078, "pitch": 70, "duration": 61, "velocity": 122}, {"time": 22319, "pitch": 42, "duration": 47, "velocity": 70}, {"time": 22319, "pitch": 70, "duration": 56, "velocity": 74}, {"time": 22440, "pitch": 42, "duration": 61, "velocity": 74}, {"time": 22560, "pitch": 35, "duration": 108, "velocity": 109}, {"time": 22560, "pitch": 42, "duration": 76, "velocity": 121}, {"time": 22560, "pitch": 70, "duration": 73, "velocity": 122}, {"time": 22801, "pitch": 42, "duration": 43, "velocity": 64}, {"time": 22801, "pitch": 70, "duration": 48, "velocity": 77}, {"time": 22921, "pitch": 42, "duration": 48, "velocity": 71}, {"time": 22921, "pitch": 70, "duration": 41, "velocity": 76}, {"time": 23042, "pitch": 35, "duration": 88, "velocity": 108}, {"time": 23042, "pitch": 38, "duration": 84, "velocity": 103}, {"time": 23042, "pitch": 42, "duration": 88, "velocity": 114}, {"time": 23042, "pitch": 70, "duration": 66, "velocity": 83}, {"time": 23162, "pitch": 42, "duration": 44, "velocity": 64}, {"time": 23162, "pitch": 70, "duration": 49, "velocity": 85}, {"time": 23283, "pitch": 46, "duration": 64, "velocity": 72}, {"time": 23283, "pitch": 70, "duration": 55, "velocity": 75}, {"time": 23524, "pitch": 35, "duration": 195, "velocity": 110}, {"time": 23524, "pitch": 42, "duration": 86, "velocity": 122}, {"time": 23524, "pitch": 70, "duration": 75, "velocity": 120}, {"time": 23760, "pitch": 42, "duration": 62, "velocity": 74}, {"time": 23760, "pitch": 70, "duration": 54, "velocity": 81}, {"time": 23878, "pitch": 42, "duration": 52, "velocity": 71}, {"time": 23996, "pitch": 35, "duration": 169, "velocity": 110}, {"time": 23996, "pitch": 38, "duration": 111, "velocity": 105}, {"time": 23996, "pitch": 42, "duration": 95, "velocity": 112}, {"time": 23996, "pitch": 70, "duration": 60, "velocity": 122}, {"time": 24237, "pitch": 42, "duration": 49, "velocity": 76}, {"time": 24237, "pitch": 70, "duration": 56, "velocity": 74}, {"time": 24357, "pitch": 42, "duration": 63, "velocity": 79}, {"time": 24477, "pitch": 35, "duration": 116, "velocity": 110}, {"time": 24477, "pitch": 42, "duration": 71, "velocity": 117}, {"time": 24477, "pitch": 70, "duration": 74, "velocity": 122}, {"time": 24718, "pitch": 42, "duration": 48, "velocity": 60}, {"time": 24718, "pitch": 70, "duration": 48, "velocity": 77}, {"time": 24839, "pitch": 42, "duration": 50, "velocity": 75}, {"time": 24839, "pitch": 70, "duration": 40, "velocity": 76}, {"time": 24959, "pitch": 35, "duration": 89, "velocity": 109}, {"time": 24959, "pitch": 38, "duration": 86, "velocity": 104}, {"time": 24959, "pitch": 42, "duration": 88, "velocity": 117}, {"time": 24959, "pitch": 70, "duration": 66, "velocity": 83}, {"time": 25080, "pitch": 70, "duration": 48, "velocity": 85}, {"time": 25200, "pitch": 42, "duration": 49, "velocity": 73}, {"time": 25200, "pitch": 70, "duration": 55, "velocity": 75}, {"time": 25321, "pitch": 42, "duration": 50, "velocity": 66}, {"time": 25441, "pitch": 35, "duration": 100, "velocity": 109}, {"time": 25441, "pitch": 42, "duration": 75, "velocity": 121}, {"time": 25441, "pitch": 70, "duration": 77, "velocity": 120}, {"time": 25682, "pitch": 42, "duration": 47, "velocity": 67}, {"time": 25682, "pitch": 70, "duration": 55, "velocity": 81}, {"time": 25802, "pitch": 42, "duration": 48, "velocity": 83}, {"time": 25923, "pitch": 35, "duration": 95, "velocity": 109}, {"time": 25923, "pitch": 38, "duration": 104, "velocity": 104}, {"time": 25923, "pitch": 42, "duration": 85, "velocity": 117}, {"time": 25923, "pitch": 70, "duration": 60, "velocity": 122}, {"time": 26164, "pitch": 42, "duration": 47, "velocity": 79}, {"time": 26164, "pitch": 70, "duration": 56, "velocity": 74}, {"time": 26284, "pitch": 42, "duration": 61, "velocity": 72}, {"time": 26404, "pitch": 35, "duration": 92, "velocity": 109}, {"time": 26404, "pitch": 42, "duration": 65, "velocity": 120}, {"time": 26404, "pitch": 70, "duration": 72, "velocity": 122}, {"time": 26640, "pitch": 42, "duration": 41, "velocity": 61}, {"time": 26640, "pitch": 70, "duration": 48, "velocity": 77}, {"time": 26758, "pitch": 42, "duration": 56, "velocity": 93}, {"time": 26758, "pitch": 70, "duration": 40, "velocity": 76}, {"time": 26877, "pitch": 35, "duration": 88, "velocity": 110}, {"time": 26877, "pitch": 38, "duration": 113, "velocity": 103}, {"time": 26877, "pitch": 42, "duration": 79, "velocity": 111}, {"time": 26877, "pitch": 70, "duration": 66, "velocity": 83}, {"time": 26997, "pitch": 70, "duration": 48, "velocity": 85}, {"time": 27117, "pitch": 42, "duration": 45, "velocity": 74}, {"time": 27117, "pitch": 70, "duration": 56, "velocity": 75}, {"time": 27238, "pitch": 42, "duration": 50, "velocity": 65}, {"time": 27358, "pitch": 35, "duration": 103, "velocity": 109}, {"time": 27358, "pitch": 42, "duration": 66, "velocity": 114}, {"time": 27358, "pitch": 70, "duration": 78, "velocity": 120}, {"time": 27599, "pitch": 42, "duration": 51, "velocity": 79}, {"time": 27599, "pitch": 70, "duration": 55, "velocity": 81}, {"time": 27720, "pitch": 42, "duration": 44, "velocity": 75}, {"time": 27840, "pitch": 35, "duration": 103, "velocity": 107}, {"time": 27840, "pitch": 38, "duration": 112, "velocity": 104}, {"time": 27840, "pitch": 42, "duration": 88, "velocity": 117}, {"time": 27840, "pitch": 70, "duration": 60, "velocity": 122}, {"time": 28081, "pitch": 42, "duration": 54, "velocity": 90}, {"time": 28081, "pitch": 70, "duration": 56, "velocity": 74}, {"time": 28201, "pitch": 42, "duration": 54, "velocity": 77}, {"time": 28322, "pitch": 35, "duration": 97, "velocity": 109}, {"time": 28322, "pitch": 42, "duration": 68, "velocity": 117}, {"time": 28322, "pitch": 70, "duration": 73, "velocity": 122}, {"time": 28563, "pitch": 42, "duration": 47, "velocity": 60}, {"time": 28563, "pitch": 70, "duration": 48, "velocity": 77}, {"time": 28683, "pitch": 42, "duration": 45, "velocity": 74}, {"time": 28683, "pitch": 70, "duration": 40, "velocity": 76}, {"time": 28803, "pitch": 35, "duration": 95, "velocity": 111}, {"time": 28803, "pitch": 38, "duration": 94, "velocity": 103}, {"time": 28803, "pitch": 42, "duration": 84, "velocity": 114}, {"time": 28803, "pitch": 70, "duration": 65, "velocity": 83}, {"time": 28921, "pitch": 70, "duration": 48, "velocity": 85}, {"time": 29040, "pitch": 42, "duration": 54, "velocity": 86}, {"time": 29040, "pitch": 70, "duration": 54, "velocity": 75}, {"time": 29158, "pitch": 42, "duration": 54, "velocity": 73}, {"time": 29276, "pitch": 35, "duration": 101, "velocity": 109}, {"time": 29276, "pitch": 42, "duration": 75, "velocity": 121}, {"time": 29276, "pitch": 70, "duration": 77, "velocity": 120}, {"time": 29516, "pitch": 42, "duration": 59, "velocity": 61}, {"time": 29516, "pitch": 70, "duration": 56, "velocity": 81}, {"time": 29637, "pitch": 42, "duration": 44, "velocity": 67}, {"time": 29757, "pitch": 35, "duration": 86, "velocity": 109}, {"time": 29757, "pitch": 38, "duration": 99, "velocity": 103}, {"time": 29757, "pitch": 42, "duration": 86, "velocity": 121}, {"time": 29757, "pitch": 70, "duration": 60, "velocity": 122}, {"time": 29998, "pitch": 42, "duration": 47, "velocity": 70}, {"time": 29998, "pitch": 70, "duration": 56, "velocity": 74}, {"time": 30119, "pitch": 42, "duration": 61, "velocity": 74}, {"time": 30239, "pitch": 35, "duration": 107, "velocity": 109}, {"time": 30239, "pitch": 42, "duration": 76, "velocity": 121}, {"time": 30239, "pitch": 70, "duration": 73, "velocity": 122}, {"time": 30480, "pitch": 42, "duration": 43, "velocity": 64}, {"time": 30480, "pitch": 70, "duration": 48, "velocity": 77}, {"time": 30600, "pitch": 38, "duration": 10, "velocity": 58}, {"time": 30600, "pitch": 42, "duration": 48, "velocity": 71}, {"time": 30600, "pitch": 70, "duration": 40, "velocity": 76}, {"time": 30721, "pitch": 35, "duration": 88, "velocity": 108}, {"time": 30721, "pitch": 38, "duration": 84, "velocity": 103}, {"time": 30721, "pitch": 42, "duration": 88, "velocity": 114}, {"time": 30721, "pitch": 70, "duration": 66, "velocity": 83}, {"time": 30841, "pitch": 42, "duration": 43, "velocity": 64}, {"time": 30841, "pitch": 70, "duration": 48, "velocity": 85}, {"time": 30962, "pitch": 38, "duration": 10, "velocity": 96}, {"time": 30962, "pitch": 46, "duration": 64, "velocity": 72}, {"time": 30962, "pitch": 70, "duration": 55, "velocity": 75}, {"time": 31203, "pitch": 35, "duration": 199, "velocity": 110}, {"time": 31203, "pitch": 42, "duration": 88, "velocity": 122}, {"time": 31203, "pitch": 70, "duration": 77, "velocity": 120}, {"time": 31443, "pitch": 42, "duration": 64, "velocity": 74}, {"time": 31443, "pitch": 70, "duration": 56, "velocity": 81}, {"time": 31564, "pitch": 42, "duration": 53, "velocity": 71}, {"time": 31684, "pitch": 35, "duration": 166, "velocity": 110}, {"time": 31684, "pitch": 38, "duration": 109, "velocity": 105}, {"time": 31684, "pitch": 42, "duration": 94, "velocity": 112}, {"time": 31684, "pitch": 70, "duration": 59, "velocity": 122}, {"time": 31920, "pitch": 42, "duration": 48, "velocity": 76}, {"time": 31920, "pitch": 70, "duration": 55, "velocity": 74}, {"time": 32038, "pitch": 42, "duration": 62, "velocity": 79}, {"time": 32156, "pitch": 35, "duration": 116, "velocity": 110}, {"time": 32156, "pitch": 42, "duration": 71, "velocity": 117}, {"time": 32156, "pitch": 70, "duration": 74, "velocity": 122}, {"time": 32397, "pitch": 42, "duration": 48, "velocity": 60}, {"time": 32397, "pitch": 70, "duration": 48, "velocity": 77}, {"time": 32518, "pitch": 42, "duration": 50, "velocity": 75}, {"time": 32518, "pitch": 70, "duration": 40, "velocity": 76}, {"time": 32638, "pitch": 35, "duration": 88, "velocity": 109}, {"time": 32638, "pitch": 38, "duration": 86, "velocity": 104}, {"time": 32638, "pitch": 42, "duration": 87, "velocity": 117}, {"time": 32638, "pitch": 70, "duration": 66, "velocity": 83}, {"time": 32758, "pitch": 70, "duration": 49, "velocity": 85}, {"time": 32879, "pitch": 42, "duration": 49, "velocity": 73}, {"time": 32879, "pitch": 70, "duration": 55, "velocity": 75}, {"time": 32999, "pitch": 42, "duration": 51, "velocity": 66}, {"time": 33120, "pitch": 35, "duration": 100, "velocity": 109}, {"time": 33120, "pitch": 42, "duration": 75, "velocity": 121}, {"time": 33120, "pitch": 70, "duration": 77, "velocity": 120}, {"time": 33361, "pitch": 42, "duration": 47, "velocity": 67}, {"time": 33361, "pitch": 70, "duration": 55, "velocity": 81}, {"time": 33481, "pitch": 42, "duration": 48, "velocity": 83}, {"time": 33602, "pitch": 35, "duration": 95, "velocity": 109}, {"time": 33602, "pitch": 38, "duration": 104, "velocity": 104}, {"time": 33602, "pitch": 42, "duration": 85, "velocity": 117}, {"time": 33602, "pitch": 70, "duration": 60, "velocity": 122}, {"time": 33842, "pitch": 42, "duration": 48, "velocity": 79}, {"time": 33842, "pitch": 70, "duration": 57, "velocity": 74}, {"time": 33963, "pitch": 42, "duration": 61, "velocity": 72}, {"time": 34083, "pitch": 35, "duration": 92, "velocity": 109}, {"time": 34083, "pitch": 42, "duration": 65, "velocity": 120}, {"time": 34083, "pitch": 70, "duration": 72, "velocity": 122}, {"time": 34319, "pitch": 42, "duration": 41, "velocity": 61}, {"time": 34319, "pitch": 70, "duration": 48, "velocity": 77}, {"time": 34437, "pitch": 42, "duration": 55, "velocity": 93}, {"time": 34437, "pitch": 70, "duration": 40, "velocity": 76}, {"time": 34555, "pitch": 35, "duration": 89, "velocity": 110}, {"time": 34555, "pitch": 38, "duration": 114, "velocity": 103}, {"time": 34555, "pitch": 42, "duration": 80, "velocity": 111}, {"time": 34555, "pitch": 70, "duration": 67, "velocity": 83}, {"time": 34676, "pitch": 70, "duration": 48, "velocity": 85}, {"time": 34796, "pitch": 42, "duration": 45, "velocity": 74}, {"time": 34796, "pitch": 70, "duration": 55, "velocity": 75}, {"time": 34917, "pitch": 42, "duration": 50, "velocity": 65}, {"time": 35037, "pitch": 35, "duration": 102, "velocity": 109}, {"time": 35037, "pitch": 42, "duration": 66, "velocity": 114}, {"time": 35037, "pitch": 70, "duration": 77, "velocity": 120}, {"time": 35278, "pitch": 42, "duration": 51, "velocity": 79}, {"time": 35278, "pitch": 70, "duration": 55, "velocity": 81}, {"time": 35398, "pitch": 42, "duration": 45, "velocity": 75}, {"time": 35519, "pitch": 35, "duration": 103, "velocity": 107}, {"time": 35519, "pitch": 38, "duration": 112, "velocity": 104}, {"time": 35519, "pitch": 42, "duration": 88, "velocity": 117}, {"time": 35519, "pitch": 70, "duration": 60, "velocity": 122}, {"time": 35760, "pitch": 42, "duration": 54, "velocity": 90}, {"time": 35760, "pitch": 70, "duration": 56, "velocity": 74}, {"time": 35880, "pitch": 42, "duration": 53, "velocity": 77}, {"time": 36001, "pitch": 35, "duration": 97, "velocity": 109}, {"time": 36001, "pitch": 42, "duration": 68, "velocity": 117}, {"time": 36001, "pitch": 70, "duration": 73, "velocity": 122}, {"time": 36242, "pitch": 42, "duration": 47, "velocity": 60}, {"time": 36242, "pitch": 70, "duration": 48, "velocity": 77}, {"time": 36362, "pitch": 42, "duration": 45, "velocity": 74}, {"time": 36362, "pitch": 70, "duration": 40, "velocity": 76}, {"time": 36482, "pitch": 35, "duration": 97, "velocity": 111}, {"time": 36482, "pitch": 38, "duration": 96, "velocity": 103}, {"time": 36482, "pitch": 42, "duration": 86, "velocity": 114}, {"time": 36482, "pitch": 70, "duration": 67, "velocity": 83}, {"time": 36603, "pitch": 70, "duration": 48, "velocity": 85}, {"time": 36723, "pitch": 42, "duration": 55, "velocity": 86}, {"time": 36723, "pitch": 70, "duration": 55, "velocity": 75}, {"time": 36844, "pitch": 42, "duration": 55, "velocity": 73}, {"time": 36964, "pitch": 35, "duration": 99, "velocity": 109}, {"time": 36964, "pitch": 42, "duration": 74, "velocity": 121}, {"time": 36964, "pitch": 70, "duration": 76, "velocity": 120}, {"time": 37200, "pitch": 42, "duration": 57, "velocity": 61}, {"time": 37200, "pitch": 70, "duration": 54, "velocity": 81}, {"time": 37318, "pitch": 42, "duration": 43, "velocity": 67}, {"time": 37436, "pitch": 35, "duration": 85, "velocity": 109}, {"time": 37436, "pitch": 38, "duration": 98, "velocity": 103}, {"time": 37436, "pitch": 42, "duration": 85, "velocity": 121}, {"time": 37436, "pitch": 70, "duration": 60, "velocity": 122}, {"time": 37677, "pitch": 42, "duration": 47, "velocity": 70}, {"time": 37677, "pitch": 70, "duration": 56, "velocity": 74}, {"time": 37797, "pitch": 42, "duration": 62, "velocity": 74}, {"time": 37918, "pitch": 35, "duration": 107, "velocity": 109}, {"time": 37918, "pitch": 42, "duration": 76, "velocity": 121}, {"time": 37918, "pitch": 70, "duration": 73, "velocity": 122}, {"time": 38159, "pitch": 42, "duration": 43, "velocity": 64}, {"time": 38159, "pitch": 70, "duration": 48, "velocity": 77}, {"time": 38279, "pitch": 42, "duration": 47, "velocity": 71}, {"time": 38279, "pitch": 70, "duration": 40, "velocity": 76}, {"time": 38400, "pitch": 35, "duration": 88, "velocity": 108}, {"time": 38400, "pitch": 38, "duration": 84, "velocity": 103}, {"time": 38400, "pitch": 42, "duration": 88, "velocity": 114}, {"time": 38400, "pitch": 70, "duration": 66, "velocity": 83}, {"time": 38520, "pitch": 42, "duration": 43, "velocity": 64}, {"time": 38520, "pitch": 70, "duration": 48, "velocity": 85}, {"time": 38641, "pitch": 46, "duration": 64, "velocity": 72}, {"time": 38641, "pitch": 70, "duration": 55, "velocity": 75}, {"time": 38881, "pitch": 35, "duration": 200, "velocity": 110}, {"time": 38881, "pitch": 42, "duration": 89, "velocity": 122}, {"time": 38881, "pitch": 70, "duration": 78, "velocity": 120}, {"time": 39122, "pitch": 42, "duration": 64, "velocity": 74}, {"time": 39122, "pitch": 70, "duration": 56, "velocity": 81}, {"time": 39243, "pitch": 42, "duration": 53, "velocity": 71}, {"time": 39363, "pitch": 35, "duration": 166, "velocity": 110}, {"time": 39363, "pitch": 38, "duration": 109, "velocity": 105}, {"time": 39363, "pitch": 42, "duration": 94, "velocity": 112}, {"time": 39363, "pitch": 70, "duration": 59, "velocity": 122}, {"time": 39599, "pitch": 42, "duration": 48, "velocity": 76}, {"time": 39599, "pitch": 70, "duration": 55, "velocity": 74}, {"time": 39717, "pitch": 42, "duration": 62, "velocity": 79}, {"time": 39835, "pitch": 35, "duration": 116, "velocity": 110}, {"time": 39835, "pitch": 42, "duration": 70, "velocity": 117}, {"time": 39835, "pitch": 70, "duration": 73, "velocity": 122}, {"time": 40076, "pitch": 42, "duration": 48, "velocity": 60}, {"time": 40076, "pitch": 70, "duration": 48, "velocity": 77}, {"time": 40196, "pitch": 42, "duration": 51, "velocity": 75}, {"time": 40196, "pitch": 70, "duration": 41, "velocity": 76}, {"time": 40317, "pitch": 35, "duration": 88, "velocity": 109}, {"time": 40317, "pitch": 38, "duration": 86, "velocity": 104}, {"time": 40317, "pitch": 42, "duration": 87, "velocity": 117}, {"time": 40317, "pitch": 70, "duration": 66, "velocity": 83}, {"time": 40437, "pitch": 70, "duration": 49, "velocity": 85}, {"time": 40558, "pitch": 42, "duration": 49, "velocity": 73}, {"time": 40558, "pitch": 70, "duration": 55, "velocity": 75}, {"time": 40678, "pitch": 42, "duration": 50, "velocity": 66}, {"time": 40799, "pitch": 35, "duration": 100, "velocity": 109}, {"time": 40799, "pitch": 42, "duration": 75, "velocity": 121}, {"time": 40799, "pitch": 70, "duration": 77, "velocity": 120}, {"time": 41040, "pitch": 42, "duration": 47, "velocity": 67}, {"time": 41040, "pitch": 70, "duration": 55, "velocity": 81}, {"time": 41160, "pitch": 42, "duration": 48, "velocity": 83}, {"time": 41280, "pitch": 35, "duration": 96, "velocity": 109}, {"time": 41280, "pitch": 38, "duration": 105, "velocity": 104}, {"time": 41280, "pitch": 42, "duration": 86, "velocity": 117}, {"time": 41280, "pitch": 70, "duration": 61, "velocity": 122}, {"time": 41521, "pitch": 42, "duration": 48, "velocity": 79}, {"time": 41521, "pitch": 70, "duration": 57, "velocity": 74}, {"time": 41642, "pitch": 42, "duration": 61, "velocity": 72}, {"time": 41762, "pitch": 35, "duration": 94, "velocity": 109}, {"time": 41762, "pitch": 42, "duration": 66, "velocity": 120}, {"time": 41762, "pitch": 70, "duration": 73, "velocity": 122}, {"time": 42003, "pitch": 42, "duration": 41, "velocity": 61}, {"time": 42003, "pitch": 70, "duration": 48, "velocity": 77}, {"time": 42124, "pitch": 42, "duration": 56, "velocity": 93}, {"time": 42124, "pitch": 70, "duration": 40, "velocity": 76}, {"time": 42244, "pitch": 35, "duration": 86, "velocity": 110}, {"time": 42244, "pitch": 38, "duration": 111, "velocity": 103}, {"time": 42244, "pitch": 42, "duration": 78, "velocity": 111}, {"time": 42244, "pitch": 70, "duration": 65, "velocity": 83}, {"time": 42362, "pitch": 70, "duration": 47, "velocity": 85}, {"time": 42480, "pitch": 42, "duration": 44, "velocity": 74}, {"time": 42480, "pitch": 70, "duration": 54, "velocity": 75}, {"time": 42598, "pitch": 42, "duration": 49, "velocity": 65}, {"time": 42716, "pitch": 35, "duration": 102, "velocity": 109}, {"time": 42716, "pitch": 42, "duration": 66, "velocity": 114}, {"time": 42716, "pitch": 70, "duration": 77, "velocity": 120}, {"time": 42957, "pitch": 42, "duration": 51, "velocity": 79}, {"time": 42957, "pitch": 70, "duration": 55, "velocity": 81}, {"time": 43077, "pitch": 42, "duration": 44, "velocity": 75}, {"time": 43198, "pitch": 35, "duration": 103, "velocity": 107}, {"time": 43198, "pitch": 38, "duration": 112, "velocity": 104}, {"time": 43198, "pitch": 42, "duration": 88, "velocity": 117}, {"time": 43198, "pitch": 70, "duration": 60, "velocity": 122}, {"time": 43439, "pitch": 42, "duration": 54, "velocity": 90}, {"time": 43439, "pitch": 70, "duration": 56, "velocity": 74}, {"time": 43559, "pitch": 42, "duration": 53, "velocity": 77}, {"time": 43679, "pitch": 35, "duration": 98, "velocity": 109}, {"time": 43679, "pitch": 42, "duration": 69, "velocity": 117}, {"time": 43679, "pitch": 70, "duration": 74, "velocity": 122}, {"time": 43920, "pitch": 42, "duration": 48, "velocity": 60}, {"time": 43920, "pitch": 70, "duration": 49, "velocity": 77}, {"time": 44041, "pitch": 42, "duration": 45, "velocity": 74}, {"time": 44041, "pitch": 70, "duration": 40, "velocity": 76}, {"time": 44161, "pitch": 35, "duration": 97, "velocity": 111}, {"time": 44161, "pitch": 38, "duration": 96, "velocity": 103}, {"time": 44161, "pitch": 42, "duration": 86, "velocity": 114}, {"time": 44161, "pitch": 70, "duration": 67, "velocity": 83}, {"time": 44282, "pitch": 70, "duration": 48, "velocity": 85}, {"time": 44402, "pitch": 42, "duration": 55, "velocity": 86}, {"time": 44402, "pitch": 70, "duration": 55, "velocity": 75}, {"time": 44523, "pitch": 42, "duration": 55, "velocity": 73}, {"time": 44643, "pitch": 35, "duration": 101, "velocity": 109}, {"time": 44643, "pitch": 42, "duration": 75, "velocity": 121}, {"time": 44643, "pitch": 70, "duration": 77, "velocity": 120}, {"time": 44884, "pitch": 42, "duration": 58, "velocity": 61}, {"time": 44884, "pitch": 70, "duration": 55, "velocity": 81}, {"time": 45004, "pitch": 42, "duration": 45, "velocity": 67}, {"time": 45125, "pitch": 35, "duration": 83, "velocity": 109}, {"time": 45125, "pitch": 38, "duration": 96, "velocity": 103}, {"time": 45125, "pitch": 42, "duration": 83, "velocity": 121}, {"time": 45125, "pitch": 70, "duration": 59, "velocity": 122}, {"time": 45361, "pitch": 42, "duration": 46, "velocity": 70}, {"time": 45361, "pitch": 70, "duration": 55, "velocity": 74}, {"time": 45479, "pitch": 42, "duration": 60, "velocity": 74}, {"time": 45597, "pitch": 35, "duration": 107, "velocity": 109}, {"time": 45597, "pitch": 42, "duration": 76, "velocity": 121}, {"time": 45597, "pitch": 70, "duration": 73, "velocity": 122}, {"time": 45838, "pitch": 42, "duration": 43, "velocity": 64}, {"time": 45838, "pitch": 70, "duration": 48, "velocity": 77}, {"time": 45958, "pitch": 42, "duration": 47, "velocity": 71}, {"time": 45958, "pitch": 70, "duration": 40, "velocity": 76}, {"time": 46079, "pitch": 35, "duration": 88, "velocity": 108}, {"time": 46079, "pitch": 38, "duration": 84, "velocity": 103}, {"time": 46079, "pitch": 42, "duration": 88, "velocity": 114}, {"time": 46079, "pitch": 70, "duration": 66, "velocity": 83}, {"time": 46199, "pitch": 38, "duration": 62, "velocity": 78}, {"time": 46199, "pitch": 42, "duration": 43, "velocity": 64}, {"time": 46199, "pitch": 70, "duration": 48, "velocity": 85}, {"time": 46319, "pitch": 45, "duration": 10, "velocity": 78}, {"time": 46319, "pitch": 46, "duration": 65, "velocity": 72}, {"time": 46319, "pitch": 70, "duration": 56, "velocity": 75}, {"time": 46560, "pitch": 35, "duration": 200, "velocity": 110}, {"time": 46560, "pitch": 42, "duration": 89, "velocity": 122}, {"time": 46560, "pitch": 57, "duration": 149, "velocity": 73}, {"time": 46560, "pitch": 70, "duration": 78, "velocity": 120}, {"time": 46801, "pitch": 42, "duration": 63, "velocity": 74}, {"time": 46801, "pitch": 70, "duration": 55, "velocity": 81}, {"time": 46922, "pitch": 42, "duration": 53, "velocity": 71}, {"time": 47042, "pitch": 35, "duration": 170, "velocity": 110}, {"time": 47042, "pitch": 38, "duration": 111, "velocity": 105}, {"time": 47042, "pitch": 42, "duration": 95, "velocity": 112}, {"time": 47042, "pitch": 70, "duration": 60, "velocity": 122}, {"time": 47283, "pitch": 42, "duration": 49, "velocity": 76}, {"time": 47283, "pitch": 70, "duration": 56, "velocity": 74}, {"time": 47403, "pitch": 42, "duration": 64, "velocity": 79}, {"time": 47524, "pitch": 35, "duration": 113, "velocity": 110}, {"time": 47524, "pitch": 42, "duration": 69, "velocity": 117}, {"time": 47524, "pitch": 70, "duration": 72, "velocity": 122}, {"time": 47760, "pitch": 42, "duration": 47, "velocity": 60}, {"time": 47760, "pitch": 70, "duration": 47, "velocity": 77}, {"time": 47878, "pitch": 42, "duration": 49, "velocity": 75}, {"time": 47878, "pitch": 70, "duration": 39, "velocity": 76}, {"time": 47996, "pitch": 35, "duration": 88, "velocity": 109}, {"time": 47996, "pitch": 38, "duration": 86, "velocity": 104}, {"time": 47996, "pitch": 42, "duration": 87, "velocity": 117}, {"time": 47996, "pitch": 70, "duration": 66, "velocity": 83}, {"time": 48116, "pitch": 70, "duration": 48, "velocity": 85}, {"time": 48237, "pitch": 42, "duration": 49, "velocity": 73}, {"time": 48237, "pitch": 70, "duration": 55, "velocity": 75}, {"time": 48357, "pitch": 42, "duration": 50, "velocity": 66}, {"time": 48478, "pitch": 35, "duration": 100, "velocity": 109}, {"time": 48478, "pitch": 42, "duration": 75, "velocity": 121}, {"time": 48478, "pitch": 70, "duration": 77, "velocity": 120}, {"time": 48718, "pitch": 42, "duration": 48, "velocity": 67}, {"time": 48718, "pitch": 70, "duration": 56, "velocity": 81}, {"time": 48839, "pitch": 42, "duration": 48, "velocity": 83}, {"time": 48959, "pitch": 35, "duration": 96, "velocity": 109}, {"time": 48959, "pitch": 38, "duration": 105, "velocity": 104}, {"time": 48959, "pitch": 42, "duration": 86, "velocity": 117}, {"time": 48959, "pitch": 70, "duration": 61, "velocity": 122}, {"time": 49200, "pitch": 42, "duration": 47, "velocity": 79}, {"time": 49200, "pitch": 70, "duration": 56, "velocity": 74}, {"time": 49321, "pitch": 42, "duration": 61, "velocity": 72}, {"time": 49441, "pitch": 35, "duration": 93, "velocity": 109}, {"time": 49441, "pitch": 42, "duration": 66, "velocity": 120}, {"time": 49441, "pitch": 70, "duration": 73, "velocity": 122}, {"time": 49682, "pitch": 42, "duration": 41, "velocity": 61}, {"time": 49682, "pitch": 70, "duration": 48, "velocity": 77}, {"time": 49802, "pitch": 42, "duration": 57, "velocity": 93}, {"time": 49802, "pitch": 70, "duration": 41, "velocity": 76}, {"time": 49923, "pitch": 35, "duration": 88, "velocity": 110}, {"time": 49923, "pitch": 38, "duration": 113, "velocity": 103}, {"time": 49923, "pitch": 42, "duration": 79, "velocity": 111}, {"time": 49923, "pitch": 70, "duration": 66, "velocity": 83}, {"time": 50043, "pitch": 70, "duration": 48, "velocity": 85}, {"time": 50164, "pitch": 42, "duration": 45, "velocity": 74}, {"time": 50164, "pitch": 70, "duration": 55, "velocity": 75}, {"time": 50284, "pitch": 42, "duration": 50, "velocity": 65}, {"time": 50405, "pitch": 35, "duration": 100, "velocity": 109}, {"time": 50405, "pitch": 42, "duration": 64, "velocity": 114}, {"time": 50405, "pitch": 70, "duration": 75, "velocity": 120}, {"time": 50641, "pitch": 42, "duration": 50, "velocity": 79}, {"time": 50641, "pitch": 70, "duration": 54, "velocity": 81}, {"time": 50759, "pitch": 42, "duration": 43, "velocity": 75}, {"time": 50877, "pitch": 35, "duration": 103, "velocity": 107}, {"time": 50877, "pitch": 38, "duration": 112, "velocity": 104}, {"time": 50877, "pitch": 42, "duration": 88, "velocity": 117}, {"time": 50877, "pitch": 70, "duration": 60, "velocity": 122}, {"time": 51117, "pitch": 42, "duration": 55, "velocity": 90}, {"time": 51117, "pitch": 70, "duration": 57, "velocity": 74}, {"time": 51238, "pitch": 42, "duration": 53, "velocity": 77}, {"time": 51358, "pitch": 35, "duration": 98, "velocity": 109}, {"time": 51358, "pitch": 42, "duration": 69, "velocity": 117}, {"time": 51358, "pitch": 70, "duration": 74, "velocity": 122}, {"time": 51599, "pitch": 42, "duration": 47, "velocity": 60}, {"time": 51599, "pitch": 70, "duration": 48, "velocity": 77}, {"time": 51720, "pitch": 42, "duration": 45, "velocity": 74}, {"time": 51720, "pitch": 70, "duration": 40, "velocity": 76}, {"time": 51840, "pitch": 35, "duration": 96, "velocity": 111}, {"time": 51840, "pitch": 38, "duration": 95, "velocity": 103}, {"time": 51840, "pitch": 42, "duration": 85, "velocity": 114}, {"time": 51840, "pitch": 70, "duration": 66, "velocity": 83}, {"time": 51961, "pitch": 70, "duration": 48, "velocity": 85}, {"time": 52081, "pitch": 42, "duration": 55, "velocity": 86}, {"time": 52081, "pitch": 70, "duration": 55, "velocity": 75}, {"time": 52201, "pitch": 42, "duration": 56, "velocity": 73}, {"time": 52322, "pitch": 35, "duration": 101, "velocity": 109}, {"time": 52322, "pitch": 42, "duration": 75, "velocity": 121}, {"time": 52322, "pitch": 70, "duration": 77, "velocity": 120}, {"time": 52563, "pitch": 42, "duration": 58, "velocity": 61}, {"time": 52563, "pitch": 70, "duration": 55, "velocity": 81}, {"time": 52683, "pitch": 42, "duration": 44, "velocity": 67}, {"time": 52804, "pitch": 35, "duration": 83, "velocity": 109}, {"time": 52804, "pitch": 38, "duration": 96, "velocity": 103}, {"time": 52804, "pitch": 42, "duration": 83, "velocity": 121}, {"time": 52804, "pitch": 70, "duration": 59, "velocity": 122}, {"time": 53040, "pitch": 42, "duration": 46, "velocity": 70}, {"time": 53040, "pitch": 70, "duration": 55, "velocity": 74}, {"time": 53158, "pitch": 42, "duration": 60, "velocity": 74}, {"time": 53276, "pitch": 35, "duration": 107, "velocity": 109}, {"time": 53276, "pitch": 42, "duration": 76, "velocity": 121}, {"time": 53276, "pitch": 70, "duration": 73, "velocity": 122}, {"time": 53517, "pitch": 42, "duration": 43, "velocity": 64}, {"time": 53517, "pitch": 70, "duration": 48, "velocity": 77}, {"time": 53637, "pitch": 42, "duration": 47, "velocity": 71}, {"time": 53637, "pitch": 70, "duration": 40, "velocity": 76}, {"time": 53757, "pitch": 35, "duration": 89, "velocity": 108}, {"time": 53757, "pitch": 38, "duration": 85, "velocity": 103}, {"time": 53757, "pitch": 42, "duration": 89, "velocity": 114}, {"time": 53757, "pitch": 70, "duration": 67, "velocity": 83}, {"time": 53878, "pitch": 42, "duration": 43, "velocity": 64}, {"time": 53878, "pitch": 70, "duration": 48, "velocity": 85}, {"time": 53998, "pitch": 46, "duration": 65, "velocity": 72}, {"time": 53998, "pitch": 70, "duration": 55, "velocity": 75}, {"time": 54239, "pitch": 35, "duration": 200, "velocity": 110}, {"time": 54239, "pitch": 42, "duration": 88, "velocity": 122}, {"time": 54239, "pitch": 70, "duration": 77, "velocity": 120}, {"time": 54480, "pitch": 42, "duration": 63, "velocity": 74}, {"time": 54480, "pitch": 70, "duration": 55, "velocity": 81}, {"time": 54600, "pitch": 42, "duration": 54, "velocity": 71}, {"time": 54721, "pitch": 35, "duration": 170, "velocity": 110}, {"time": 54721, "pitch": 38, "duration": 111, "velocity": 105}, {"time": 54721, "pitch": 42, "duration": 95, "velocity": 112}, {"time": 54721, "pitch": 70, "duration": 60, "velocity": 122}, {"time": 54962, "pitch": 42, "duration": 49, "velocity": 76}, {"time": 54962, "pitch": 70, "duration": 56, "velocity": 74}, {"time": 55082, "pitch": 42, "duration": 63, "velocity": 79}, {"time": 55203, "pitch": 35, "duration": 115, "velocity": 110}, {"time": 55203, "pitch": 42, "duration": 70, "velocity": 117}, {"time": 55203, "pitch": 70, "duration": 73, "velocity": 122}, {"time": 55444, "pitch": 42, "duration": 48, "velocity": 60}, {"time": 55444, "pitch": 70, "duration": 48, "velocity": 77}, {"time": 55564, "pitch": 42, "duration": 50, "velocity": 75}, {"time": 55564, "pitch": 70, "duration": 40, "velocity": 76}, {"time": 55684, "pitch": 35, "duration": 87, "velocity": 109}, {"time": 55684, "pitch": 38, "duration": 85, "velocity": 104}, {"time": 55684, "pitch": 42, "duration": 86, "velocity": 117}, {"time": 55684, "pitch": 70, "duration": 65, "velocity": 83}, {"time": 55802, "pitch": 70, "duration": 48, "velocity": 85}, {"time": 55920, "pitch": 42, "duration": 49, "velocity": 73}, {"time": 55920, "pitch": 70, "duration": 55, "velocity": 75}, {"time": 56038, "pitch": 42, "duration": 50, "velocity": 66}, {"time": 56157, "pitch": 35, "duration": 100, "velocity": 109}, {"time": 56157, "pitch": 42, "duration": 75, "velocity": 121}, {"time": 56157, "pitch": 70, "duration": 77, "velocity": 120}, {"time": 56397, "pitch": 42, "duration": 47, "velocity": 67}, {"time": 56397, "pitch": 70, "duration": 56, "velocity": 81}, {"time": 56518, "pitch": 42, "duration": 48, "velocity": 83}, {"time": 56638, "pitch": 35, "duration": 96, "velocity": 109}, {"time": 56638, "pitch": 38, "duration": 105, "velocity": 104}, {"time": 56638, "pitch": 42, "duration": 86, "velocity": 117}, {"time": 56638, "pitch": 70, "duration": 60, "velocity": 122}, {"time": 56879, "pitch": 42, "duration": 47, "velocity": 79}, {"time": 56879, "pitch": 70, "duration": 56, "velocity": 74}, {"time": 57000, "pitch": 42, "duration": 61, "velocity": 72}, {"time": 57120, "pitch": 35, "duration": 93, "velocity": 109}, {"time": 57120, "pitch": 42, "duration": 66, "velocity": 120}, {"time": 57120, "pitch": 70, "duration": 73, "velocity": 122}, {"time": 57361, "pitch": 42, "duration": 41, "velocity": 61}, {"time": 57361, "pitch": 70, "duration": 48, "velocity": 77}, {"time": 57481, "pitch": 42, "duration": 56, "velocity": 93}, {"time": 57481, "pitch": 70, "duration": 40, "velocity": 76}, {"time": 57602, "pitch": 35, "duration": 88, "velocity": 110}, {"time": 57602, "pitch": 38, "duration": 113, "velocity": 103}, {"time": 57602, "pitch": 42, "duration": 79, "velocity": 111}, {"time": 57602, "pitch": 70, "duration": 66, "velocity": 83}, {"time": 57722, "pitch": 70, "duration": 48, "velocity": 85}, {"time": 57843, "pitch": 42, "duration": 45, "velocity": 74}, {"time": 57843, "pitch": 70, "duration": 55, "velocity": 75}, {"time": 57963, "pitch": 42, "duration": 50, "velocity": 65}, {"time": 58083, "pitch": 35, "duration": 101, "velocity": 109}, {"time": 58083, "pitch": 42, "duration": 65, "velocity": 114}, {"time": 58083, "pitch": 70, "duration": 76, "velocity": 120}, {"time": 58319, "pitch": 42, "duration": 51, "velocity": 79}, {"time": 58319, "pitch": 70, "duration": 55, "velocity": 81}, {"time": 58438, "pitch": 42, "duration": 43, "velocity": 75}, {"time": 58556, "pitch": 35, "duration": 103, "velocity": 107}, {"time": 58556, "pitch": 38, "duration": 112, "velocity": 104}, {"time": 58556, "pitch": 42, "duration": 88, "velocity": 117}, {"time": 58556, "pitch": 70, "duration": 60, "velocity": 122}, {"time": 58796, "pitch": 42, "duration": 55, "velocity": 90}, {"time": 58796, "pitch": 70, "duration": 57, "velocity": 74}, {"time": 58917, "pitch": 42, "duration": 53, "velocity": 77}, {"time": 59037, "pitch": 35, "duration": 98, "velocity": 109}, {"time": 59037, "pitch": 42, "duration": 68, "velocity": 117}, {"time": 59037, "pitch": 70, "duration": 74, "velocity": 122}, {"time": 59278, "pitch": 42, "duration": 47, "velocity": 60}, {"time": 59278, "pitch": 70, "duration": 48, "velocity": 77}, {"time": 59399, "pitch": 42, "duration": 45, "velocity": 74}, {"time": 59399, "pitch": 70, "duration": 40, "velocity": 76}, {"time": 59519, "pitch": 35, "duration": 96, "velocity": 111}, {"time": 59519, "pitch": 38, "duration": 95, "velocity": 103}, {"time": 59519, "pitch": 42, "duration": 85, "velocity": 114}, {"time": 59519, "pitch": 70, "duration": 66, "velocity": 83}, {"time": 59639, "pitch": 70, "duration": 49, "velocity": 85}, {"time": 59760, "pitch": 42, "duration": 55, "velocity": 86}, {"time": 59760, "pitch": 70, "duration": 55, "velocity": 75}, {"time": 59880, "pitch": 42, "duration": 56, "velocity": 73}, {"time": 60001, "pitch": 35, "duration": 101, "velocity": 109}, {"time": 60001, "pitch": 42, "duration": 75, "velocity": 121}, {"time": 60001, "pitch": 57, "duration": 170, "velocity": 93}, {"time": 60001, "pitch": 70, "duration": 77, "velocity": 120}, {"time": 60242, "pitch": 35, "duration": 140, "velocity": 107}, {"time": 60242, "pitch": 42, "duration": 58, "velocity": 61}, {"time": 60242, "pitch": 70, "duration": 55, "velocity": 81}, {"time": 60362, "pitch": 42, "duration": 44, "velocity": 67}, {"time": 60483, "pitch": 35, "duration": 85, "velocity": 109}, {"time": 60483, "pitch": 38, "duration": 98, "velocity": 103}, {"time": 60483, "pitch": 42, "duration": 85, "velocity": 121}, {"time": 60483, "pitch": 70, "duration": 60, "velocity": 122}, {"time": 60723, "pitch": 42, "duration": 48, "velocity": 70}, {"time": 60723, "pitch": 48, "duration": 134, "velocity": 106}, {"time": 60723, "pitch": 70, "duration": 57, "velocity": 74}, {"time": 60844, "pitch": 42, "duration": 61, "velocity": 74}, {"time": 60964, "pitch": 35, "duration": 105, "velocity": 109}, {"time": 60964, "pitch": 42, "duration": 75, "velocity": 121}, {"time": 60964, "pitch": 70, "duration": 72, "velocity": 122}, {"time": 61200, "pitch": 42, "duration": 43, "velocity": 64}, {"time": 61200, "pitch": 45, "duration": 93, "velocity": 107}, {"time": 61200, "pitch": 70, "duration": 47, "velocity": 77}, {"time": 61318, "pitch": 42, "duration": 47, "velocity": 71}, {"time": 61318, "pitch": 70, "duration": 40, "velocity": 76}, {"time": 61436, "pitch": 35, "duration": 89, "velocity": 108}, {"time": 61436, "pitch": 38, "duration": 85, "velocity": 103}, {"time": 61436, "pitch": 42, "duration": 89, "velocity": 114}, {"time": 61436, "pitch": 70, "duration": 67, "velocity": 83}, {"time": 61557, "pitch": 42, "duration": 43, "velocity": 64}, {"time": 61557, "pitch": 70, "duration": 48, "velocity": 85}, {"time": 61677, "pitch": 35, "duration": 113, "velocity": 91}, {"time": 61677, "pitch": 41, "duration": 87, "velocity": 104}, {"time": 61677, "pitch": 46, "duration": 64, "velocity": 72}, {"time": 61677, "pitch": 70, "duration": 55, "velocity": 75}, {"time": 61918, "pitch": 35, "duration": 200, "velocity": 110}, {"time": 61918, "pitch": 42, "duration": 88, "velocity": 122}, {"time": 61918, "pitch": 49, "duration": 92, "velocity": 61}, {"time": 61918, "pitch": 70, "duration": 77, "velocity": 120}, {"time": 62159, "pitch": 42, "duration": 63, "velocity": 74}, {"time": 62159, "pitch": 70, "duration": 55, "velocity": 81}, {"time": 62279, "pitch": 42, "duration": 54, "velocity": 71}, {"time": 62400, "pitch": 35, "duration": 169, "velocity": 110}, {"time": 62400, "pitch": 38, "duration": 111, "velocity": 105}, {"time": 62400, "pitch": 42, "duration": 95, "velocity": 112}, {"time": 62400, "pitch": 70, "duration": 60, "velocity": 122}, {"time": 62641, "pitch": 42, "duration": 49, "velocity": 76}, {"time": 62641, "pitch": 48, "duration": 94, "velocity": 100}, {"time": 62641, "pitch": 57, "duration": 111, "velocity": 90}, {"time": 62641, "pitch": 70, "duration": 56, "velocity": 74}, {"time": 62761, "pitch": 42, "duration": 63, "velocity": 79}, {"time": 62882, "pitch": 35, "duration": 115, "velocity": 110}, {"time": 62882, "pitch": 42, "duration": 70, "velocity": 117}, {"time": 62882, "pitch": 70, "duration": 73, "velocity": 122}, {"time": 63122, "pitch": 42, "duration": 49, "velocity": 60}, {"time": 63122, "pitch": 45, "duration": 66, "velocity": 94}, {"time": 63122, "pitch": 70, "duration": 49, "velocity": 77}, {"time": 63243, "pitch": 42, "duration": 50, "velocity": 75}, {"time": 63243, "pitch": 70, "duration": 40, "velocity": 76}, {"time": 63363, "pitch": 35, "duration": 87, "velocity": 109}, {"time": 63363, "pitch": 38, "duration": 85, "velocity": 104}, {"time": 63363, "pitch": 42, "duration": 86, "velocity": 117}, {"time": 63363, "pitch": 70, "duration": 65, "velocity": 83}, {"time": 63481, "pitch": 38, "duration": 79, "velocity": 74}, {"time": 63481, "pitch": 70, "duration": 48, "velocity": 85}, {"time": 63599, "pitch": 42, "duration": 49, "velocity": 73}, {"time": 63599, "pitch": 45, "duration": 73, "velocity": 73}, {"time": 63599, "pitch": 70, "duration": 54, "velocity": 75}, {"time": 63717, "pitch": 41, "duration": 66, "velocity": 85}, {"time": 63717, "pitch": 42, "duration": 50, "velocity": 66}, {"time": 63835, "pitch": 35, "duration": 200, "velocity": 110}, {"time": 63835, "pitch": 42, "duration": 89, "velocity": 122}, {"time": 63835, "pitch": 57, "duration": 149, "velocity": 73}, {"time": 63835, "pitch": 70, "duration": 78, "velocity": 120}, {"time": 64076, "pitch": 42, "duration": 63, "velocity": 74}, {"time": 64076, "pitch": 70, "duration": 55, "velocity": 81}, {"time": 64197, "pitch": 42, "duration": 53, "velocity": 71}, {"time": 64317, "pitch": 35, "duration": 170, "velocity": 110}, {"time": 64317, "pitch": 38, "duration": 111, "velocity": 105}, {"time": 64317, "pitch": 42, "duration": 95, "velocity": 112}, {"time": 64317, "pitch": 54, "duration": 108, "velocity": 93}, {"time": 64317, "pitch": 70, "duration": 60, "velocity": 122}, {"time": 64558, "pitch": 42, "duration": 49, "velocity": 76}, {"time": 64558, "pitch": 70, "duration": 56, "velocity": 74}, {"time": 64678, "pitch": 42, "duration": 64, "velocity": 79}, {"time": 64799, "pitch": 35, "duration": 115, "velocity": 110}, {"time": 64799, "pitch": 42, "duration": 70, "velocity": 117}, {"time": 64799, "pitch": 70, "duration": 73, "velocity": 122}, {"time": 65040, "pitch": 42, "duration": 48, "velocity": 60}, {"time": 65040, "pitch": 70, "duration": 48, "velocity": 77}, {"time": 65160, "pitch": 42, "duration": 50, "velocity": 75}, {"time": 65160, "pitch": 70, "duration": 40, "velocity": 76}, {"time": 65281, "pitch": 35, "duration": 88, "velocity": 109}, {"time": 65281, "pitch": 38, "duration": 86, "velocity": 104}, {"time": 65281, "pitch": 42, "duration": 87, "velocity": 117}, {"time": 65281, "pitch": 54, "duration": 113, "velocity": 92}, {"time": 65281, "pitch": 70, "duration": 66, "velocity": 83}, {"time": 65401, "pitch": 70, "duration": 48, "velocity": 85}, {"time": 65521, "pitch": 42, "duration": 50, "velocity": 73}, {"time": 65521, "pitch": 70, "duration": 56, "velocity": 75}, {"time": 65642, "pitch": 42, "duration": 50, "velocity": 66}, {"time": 65762, "pitch": 35, "duration": 101, "velocity": 109}, {"time": 65762, "pitch": 42, "duration": 76, "velocity": 121}, {"time": 65762, "pitch": 70, "duration": 78, "velocity": 120}, {"time": 66003, "pitch": 42, "duration": 47, "velocity": 67}, {"time": 66003, "pitch": 70, "duration": 55, "velocity": 81}, {"time": 66124, "pitch": 42, "duration": 48, "velocity": 83}, {"time": 66244, "pitch": 35, "duration": 93, "velocity": 109}, {"time": 66244, "pitch": 38, "duration": 102, "velocity": 104}, {"time": 66244, "pitch": 42, "duration": 84, "velocity": 117}, {"time": 66244, "pitch": 54, "duration": 130, "velocity": 93}, {"time": 66244, "pitch": 70, "duration": 59, "velocity": 122}, {"time": 66480, "pitch": 42, "duration": 46, "velocity": 79}, {"time": 66480, "pitch": 70, "duration": 55, "velocity": 74}, {"time": 66598, "pitch": 42, "duration": 60, "velocity": 72}, {"time": 66716, "pitch": 35, "duration": 93, "velocity": 109}, {"time": 66716, "pitch": 42, "duration": 66, "velocity": 120}, {"time": 66716, "pitch": 70, "duration": 73, "velocity": 122}, {"time": 66957, "pitch": 42, "duration": 41, "velocity": 61}, {"time": 66957, "pitch": 54, "duration": 59, "velocity": 82}, {"time": 66957, "pitch": 70, "duration": 48, "velocity": 77}, {"time": 67077, "pitch": 42, "duration": 57, "velocity": 93}, {"time": 67077, "pitch": 70, "duration": 41, "velocity": 76}, {"time": 67198, "pitch": 35, "duration": 88, "velocity": 110}, {"time": 67198, "pitch": 38, "duration": 113, "velocity": 103}, {"time": 67198, "pitch": 42, "duration": 79, "velocity": 111}, {"time": 67198, "pitch": 54, "duration": 140, "velocity": 94}, {"time": 67198, "pitch": 70, "duration": 66, "velocity": 83}, {"time": 67318, "pitch": 70, "duration": 48, "velocity": 85}, {"time": 67439, "pitch": 42, "duration": 45, "velocity": 74}, {"time": 67439, "pitch": 70, "duration": 55, "velocity": 75}, {"time": 67559, "pitch": 42, "duration": 50, "velocity": 65}, {"time": 67680, "pitch": 35, "duration": 102, "velocity": 109}, {"time": 67680, "pitch": 42, "duration": 66, "velocity": 114}, {"time": 67680, "pitch": 70, "duration": 77, "velocity": 120}, {"time": 67921, "pitch": 42, "duration": 51, "velocity": 79}, {"time": 67921, "pitch": 70, "duration": 55, "velocity": 81}, {"time": 68041, "pitch": 42, "duration": 44, "velocity": 75}, {"time": 68161, "pitch": 35, "duration": 104, "velocity": 107}, {"time": 68161, "pitch": 38, "duration": 113, "velocity": 104}, {"time": 68161, "pitch": 42, "duration": 89, "velocity": 117}, {"time": 68161, "pitch": 54, "duration": 110, "velocity": 92}, {"time": 68161, "pitch": 70, "duration": 61, "velocity": 122}, {"time": 68402, "pitch": 42, "duration": 54, "velocity": 90}, {"time": 68402, "pitch": 70, "duration": 56, "velocity": 74}, {"time": 68523, "pitch": 42, "duration": 53, "velocity": 77}, {"time": 68643, "pitch": 35, "duration": 96, "velocity": 109}, {"time": 68643, "pitch": 42, "duration": 67, "velocity": 117}, {"time": 68643, "pitch": 70, "duration": 72, "velocity": 122}, {"time": 68879, "pitch": 42, "duration": 46, "velocity": 60}, {"time": 68879, "pitch": 70, "duration": 47, "velocity": 77}, {"time": 68997, "pitch": 42, "duration": 44, "velocity": 74}, {"time": 68997, "pitch": 70, "duration": 40, "velocity": 76}, {"time": 69115, "pitch": 35, "duration": 96, "velocity": 111}, {"time": 69115, "pitch": 38, "duration": 95, "velocity": 103}, {"time": 69115, "pitch": 42, "duration": 85, "velocity": 114}, {"time": 69115, "pitch": 54, "duration": 96, "velocity": 93}, {"time": 69115, "pitch": 70, "duration": 66, "velocity": 83}, {"time": 69236, "pitch": 70, "duration": 48, "velocity": 85}, {"time": 69356, "pitch": 42, "duration": 55, "velocity": 86}, {"time": 69356, "pitch": 70, "duration": 55, "velocity": 75}, {"time": 69476, "pitch": 42, "duration": 56, "velocity": 73}, {"time": 69597, "pitch": 35, "duration": 101, "velocity": 109}, {"time": 69597, "pitch": 42, "duration": 75, "velocity": 121}, {"time": 69597, "pitch": 70, "duration": 77, "velocity": 120}, {"time": 69838, "pitch": 42, "duration": 58, "velocity": 61}, {"time": 69838, "pitch": 70, "duration": 55, "velocity": 81}, {"time": 69958, "pitch": 42, "duration": 44, "velocity": 67}, {"time": 70079, "pitch": 35, "duration": 85, "velocity": 109}, {"time": 70079, "pitch": 38, "duration": 98, "velocity": 103}, {"time": 70079, "pitch": 42, "duration": 85, "velocity": 121}, {"time": 70079, "pitch": 54, "duration": 98, "velocity": 93}, {"time": 70079, "pitch": 70, "duration": 60, "velocity": 122}, {"time": 70320, "pitch": 42, "duration": 47, "velocity": 70}, {"time": 70320, "pitch": 70, "duration": 56, "velocity": 74}, {"time": 70440, "pitch": 42, "duration": 61, "velocity": 74}, {"time": 70560, "pitch": 35, "duration": 108, "velocity": 109}, {"time": 70560, "pitch": 42, "duration": 77, "velocity": 121}, {"time": 70560, "pitch": 70, "duration": 74, "velocity": 122}, {"time": 70801, "pitch": 42, "duration": 43, "velocity": 64}, {"time": 70801, "pitch": 70, "duration": 49, "velocity": 77}, {"time": 70922, "pitch": 42, "duration": 47, "velocity": 71}, {"time": 70922, "pitch": 70, "duration": 40, "velocity": 76}, {"time": 71042, "pitch": 35, "duration": 89, "velocity": 108}, {"time": 71042, "pitch": 38, "duration": 85, "velocity": 103}, {"time": 71042, "pitch": 42, "duration": 89, "velocity": 114}, {"time": 71042, "pitch": 54, "duration": 92, "velocity": 94}, {"time": 71042, "pitch": 70, "duration": 66, "velocity": 83}, {"time": 71163, "pitch": 42, "duration": 43, "velocity": 64}, {"time": 71163, "pitch": 70, "duration": 48, "velocity": 85}, {"time": 71283, "pitch": 46, "duration": 64, "velocity": 72}, {"time": 71283, "pitch": 70, "duration": 55, "velocity": 75}, {"time": 71524, "pitch": 35, "duration": 196, "velocity": 110}, {"time": 71524, "pitch": 42, "duration": 86, "velocity": 122}, {"time": 71524, "pitch": 70, "duration": 76, "velocity": 120}, {"time": 71760, "pitch": 42, "duration": 62, "velocity": 74}, {"time": 71760, "pitch": 70, "duration": 54, "velocity": 81}, {"time": 71878, "pitch": 42, "duration": 52, "velocity": 71}, {"time": 71996, "pitch": 35, "duration": 170, "velocity": 110}, {"time": 71996, "pitch": 38, "duration": 111, "velocity": 105}, {"time": 71996, "pitch": 42, "duration": 95, "velocity": 112}, {"time": 71996, "pitch": 54, "duration": 85, "velocity": 93}, {"time": 71996, "pitch": 70, "duration": 60, "velocity": 122}, {"time": 72237, "pitch": 42, "duration": 49, "velocity": 76}, {"time": 72237, "pitch": 70, "duration": 56, "velocity": 74}, {"time": 72357, "pitch": 42, "duration": 63, "velocity": 79}, {"time": 72478, "pitch": 35, "duration": 115, "velocity": 110}, {"time": 72478, "pitch": 42, "duration": 70, "velocity": 117}, {"time": 72478, "pitch": 70, "duration": 73, "velocity": 122}, {"time": 72719, "pitch": 42, "duration": 48, "velocity": 60}, {"time": 72719, "pitch": 70, "duration": 48, "velocity": 77}, {"time": 72839, "pitch": 42, "duration": 50, "velocity": 75}, {"time": 72839, "pitch": 70, "duration": 40, "velocity": 76}, {"time": 72959, "pitch": 35, "duration": 89, "velocity": 109}, {"time": 72959, "pitch": 38, "duration": 87, "velocity": 104}, {"time": 72959, "pitch": 42, "duration": 88, "velocity": 117}, {"time": 72959, "pitch": 54, "duration": 83, "velocity": 93}, {"time": 72959, "pitch": 70, "duration": 67, "velocity": 83}, {"time": 73080, "pitch": 70, "duration": 48, "velocity": 85}, {"time": 73200, "pitch": 42, "duration": 50, "velocity": 73}, {"time": 73200, "pitch": 70, "duration": 56, "velocity": 75}, {"time": 73321, "pitch": 42, "duration": 50, "velocity": 66}, {"time": 73441, "pitch": 35, "duration": 101, "velocity": 109}, {"time": 73441, "pitch": 42, "duration": 76, "velocity": 121}, {"time": 73441, "pitch": 70, "duration": 78, "velocity": 120}, {"time": 73682, "pitch": 42, "duration": 47, "velocity": 67}, {"time": 73682, "pitch": 70, "duration": 55, "velocity": 81}, {"time": 73803, "pitch": 42, "duration": 48, "velocity": 83}, {"time": 73923, "pitch": 35, "duration": 95, "velocity": 109}, {"time": 73923, "pitch": 38, "duration": 104, "velocity": 104}, {"time": 73923, "pitch": 42, "duration": 85, "velocity": 117}, {"time": 73923, "pitch": 54, "duration": 86, "velocity": 93}, {"time": 73923, "pitch": 70, "duration": 60, "velocity": 122}, {"time": 74164, "pitch": 42, "duration": 47, "velocity": 79}, {"time": 74164, "pitch": 70, "duration": 56, "velocity": 74}, {"time": 74284, "pitch": 42, "duration": 62, "velocity": 72}, {"time": 74405, "pitch": 35, "duration": 91, "velocity": 109}, {"time": 74405, "pitch": 42, "duration": 65, "velocity": 120}, {"time": 74405, "pitch": 70, "duration": 71, "velocity": 122}, {"time": 74641, "pitch": 42, "duration": 40, "velocity": 61}, {"time": 74641, "pitch": 54, "duration": 54, "velocity": 81}, {"time": 74641, "pitch": 70, "duration": 47, "velocity": 77}, {"time": 74759, "pitch": 42, "duration": 55, "velocity": 93}, {"time": 74759, "pitch": 70, "duration": 39, "velocity": 76}, {"time": 74877, "pitch": 35, "duration": 88, "velocity": 110}, {"time": 74877, "pitch": 38, "duration": 113, "velocity": 103}, {"time": 74877, "pitch": 42, "duration": 79, "velocity": 111}, {"time": 74877, "pitch": 54, "duration": 112, "velocity": 94}, {"time": 74877, "pitch": 70, "duration": 66, "velocity": 83}, {"time": 74997, "pitch": 70, "duration": 48, "velocity": 85}, {"time": 75118, "pitch": 42, "duration": 45, "velocity": 74}, {"time": 75118, "pitch": 70, "duration": 55, "velocity": 75}, {"time": 75238, "pitch": 42, "duration": 50, "velocity": 65}, {"time": 75359, "pitch": 35, "duration": 102, "velocity": 109}, {"time": 75359, "pitch": 42, "duration": 66, "velocity": 114}, {"time": 75359, "pitch": 70, "duration": 77, "velocity": 120}, {"time": 75599, "pitch": 42, "duration": 52, "velocity": 79}, {"time": 75599, "pitch": 70, "duration": 56, "velocity": 81}, {"time": 75720, "pitch": 42, "duration": 44, "velocity": 75}, {"time": 75840, "pitch": 35, "duration": 104, "velocity": 107}, {"time": 75840, "pitch": 38, "duration": 113, "velocity": 104}, {"time": 75840, "pitch": 42, "duration": 89, "velocity": 117}, {"time": 75840, "pitch": 54, "duration": 89, "velocity": 93}, {"time": 75840, "pitch": 70, "duration": 60, "velocity": 122}, {"time": 76081, "pitch": 42, "duration": 54, "velocity": 90}, {"time": 76081, "pitch": 70, "duration": 56, "velocity": 74}, {"time": 76202, "pitch": 42, "duration": 53, "velocity": 77}, {"time": 76322, "pitch": 35, "duration": 97, "velocity": 109}, {"time": 76322, "pitch": 42, "duration": 68, "velocity": 117}, {"time": 76322, "pitch": 70, "duration": 73, "velocity": 122}, {"time": 76563, "pitch": 42, "duration": 47, "velocity": 60}, {"time": 76563, "pitch": 70, "duration": 48, "velocity": 77}, {"time": 76683, "pitch": 42, "duration": 46, "velocity": 74}, {"time": 76683, "pitch": 70, "duration": 41, "velocity": 76}, {"time": 76804, "pitch": 35, "duration": 94, "velocity": 111}, {"time": 76804, "pitch": 38, "duration": 93, "velocity": 103}, {"time": 76804, "pitch": 42, "duration": 83, "velocity": 114}, {"time": 76804, "pitch": 54, "duration": 82, "velocity": 93}, {"time": 76804, "pitch": 70, "duration": 65, "velocity": 83}, {"time": 76922, "pitch": 70, "duration": 47, "velocity": 85}, {"time": 77040, "pitch": 42, "duration": 54, "velocity": 86}, {"time": 77040, "pitch": 70, "duration": 54, "velocity": 75}, {"time": 77158, "pitch": 42, "duration": 54, "velocity": 73}, {"time": 77276, "pitch": 35, "duration": 101, "velocity": 109}, {"time": 77276, "pitch": 42, "duration": 75, "velocity": 121}, {"time": 77276, "pitch": 57, "duration": 170, "velocity": 93}, {"time": 77276, "pitch": 70, "duration": 77, "velocity": 120}, {"time": 77517, "pitch": 35, "duration": 140, "velocity": 107}, {"time": 77517, "pitch": 42, "duration": 58, "velocity": 61}, {"time": 77517, "pitch": 70, "duration": 55, "velocity": 81}, {"time": 77637, "pitch": 42, "duration": 44, "velocity": 67}, {"time": 77758, "pitch": 35, "duration": 85, "velocity": 109}, {"time": 77758, "pitch": 38, "duration": 98, "velocity": 103}, {"time": 77758, "pitch": 42, "duration": 85, "velocity": 121}, {"time": 77758, "pitch": 54, "duration": 77, "velocity": 94}, {"time": 77758, "pitch": 70, "duration": 60, "velocity": 122}, {"time": 77998, "pitch": 42, "duration": 48, "velocity": 70}, {"time": 77998, "pitch": 48, "duration": 134, "velocity": 106}, {"time": 77998, "pitch": 70, "duration": 57, "velocity": 74}, {"time": 78119, "pitch": 42, "duration": 61, "velocity": 74}, {"time": 78239, "pitch": 35, "duration": 108, "velocity": 109}, {"time": 78239, "pitch": 42, "duration": 77, "velocity": 121}, {"time": 78239, "pitch": 70, "duration": 74, "velocity": 122}, {"time": 78480, "pitch": 42, "duration": 43, "velocity": 64}, {"time": 78480, "pitch": 45, "duration": 95, "velocity": 107}, {"time": 78480, "pitch": 70, "duration": 48, "velocity": 77}, {"time": 78601, "pitch": 42, "duration": 47, "velocity": 71}, {"time": 78601, "pitch": 70, "duration": 40, "velocity": 76}, {"time": 78721, "pitch": 35, "duration": 88, "velocity": 108}, {"time": 78721, "pitch": 38, "duration": 84, "velocity": 103}, {"time": 78721, "pitch": 42, "duration": 88, "velocity": 114}, {"time": 78721, "pitch": 54, "duration": 74, "velocity": 94}, {"time": 78721, "pitch": 70, "duration": 66, "velocity": 83}, {"time": 78842, "pitch": 42, "duration": 43, "velocity": 64}, {"time": 78842, "pitch": 70, "duration": 48, "velocity": 85}, {"time": 78962, "pitch": 35, "duration": 112, "velocity": 91}, {"time": 78962, "pitch": 41, "duration": 87, "velocity": 104}, {"time": 78962, "pitch": 46, "duration": 64, "velocity": 72}, {"time": 78962, "pitch": 70, "duration": 55, "velocity": 75}, {"time": 79203, "pitch": 35, "duration": 200, "velocity": 110}, {"time": 79203, "pitch": 42, "duration": 88, "velocity": 122}, {"time": 79203, "pitch": 49, "duration": 112, "velocity": 53}, {"time": 79203, "pitch": 70, "duration": 77, "velocity": 120}, {"time": 79444, "pitch": 42, "duration": 63, "velocity": 74}, {"time": 79444, "pitch": 70, "duration": 55, "velocity": 81}, {"time": 79564, "pitch": 42, "duration": 53, "velocity": 71}, {"time": 79685, "pitch": 35, "duration": 166, "velocity": 110}, {"time": 79685, "pitch": 38, "duration": 109, "velocity": 105}, {"time": 79685, "pitch": 42, "duration": 93, "velocity": 112}, {"time": 79685, "pitch": 70, "duration": 59, "velocity": 122}, {"time": 79921, "pitch": 42, "duration": 48, "velocity": 76}, {"time": 79921, "pitch": 70, "duration": 55, "velocity": 74}, {"time": 80039, "pitch": 42, "duration": 62, "velocity": 79}, {"time": 80157, "pitch": 35, "duration": 115, "velocity": 110}, {"time": 80157, "pitch": 42, "duration": 70, "velocity": 117}, {"time": 80157, "pitch": 70, "duration": 73, "velocity": 122}, {"time": 80397, "pitch": 42, "duration": 49, "velocity": 60}, {"time": 80397, "pitch": 70, "duration": 49, "velocity": 77}, {"time": 80518, "pitch": 42, "duration": 50, "velocity": 75}, {"time": 80518, "pitch": 70, "duration": 40, "velocity": 76}, {"time": 80638, "pitch": 35, "duration": 89, "velocity": 109}, {"time": 80638, "pitch": 38, "duration": 87, "velocity": 104}, {"time": 80638, "pitch": 42, "duration": 88, "velocity": 117}, {"time": 80638, "pitch": 70, "duration": 67, "velocity": 83}, {"time": 80759, "pitch": 70, "duration": 48, "velocity": 85}, {"time": 80879, "pitch": 42, "duration": 49, "velocity": 73}, {"time": 80879, "pitch": 70, "duration": 55, "velocity": 75}, {"time": 81000, "pitch": 42, "duration": 50, "velocity": 66}, {"time": 81120, "pitch": 35, "duration": 100, "velocity": 109}, {"time": 81120, "pitch": 42, "duration": 75, "velocity": 121}, {"time": 81120, "pitch": 70, "duration": 77, "velocity": 120}, {"time": 81361, "pitch": 42, "duration": 47, "velocity": 67}, {"time": 81361, "pitch": 70, "duration": 55, "velocity": 81}, {"time": 81481, "pitch": 42, "duration": 49, "velocity": 83}, {"time": 81602, "pitch": 35, "duration": 95, "velocity": 109}, {"time": 81602, "pitch": 38, "duration": 104, "velocity": 104}, {"time": 81602, "pitch": 42, "duration": 85, "velocity": 117}, {"time": 81602, "pitch": 70, "duration": 60, "velocity": 122}, {"time": 81843, "pitch": 42, "duration": 47, "velocity": 79}, {"time": 81843, "pitch": 70, "duration": 56, "velocity": 74}, {"time": 81963, "pitch": 42, "duration": 61, "velocity": 72}, {"time": 82084, "pitch": 35, "duration": 91, "velocity": 109}, {"time": 82084, "pitch": 42, "duration": 64, "velocity": 120}, {"time": 82084, "pitch": 70, "duration": 71, "velocity": 122}, {"time": 82320, "pitch": 42, "duration": 40, "velocity": 61}, {"time": 82320, "pitch": 70, "duration": 47, "velocity": 77}, {"time": 82438, "pitch": 42, "duration": 55, "velocity": 93}, {"time": 82438, "pitch": 70, "duration": 39, "velocity": 76}, {"time": 82556, "pitch": 35, "duration": 88, "velocity": 110}, {"time": 82556, "pitch": 38, "duration": 113, "velocity": 103}, {"time": 82556, "pitch": 42, "duration": 79, "velocity": 111}, {"time": 82556, "pitch": 70, "duration": 66, "velocity": 83}, {"time": 82676, "pitch": 70, "duration": 48, "velocity": 85}, {"time": 82796, "pitch": 42, "duration": 46, "velocity": 74}, {"time": 82796, "pitch": 70, "duration": 56, "velocity": 75}, {"time": 82917, "pitch": 42, "duration": 50, "velocity": 65}, {"time": 83037, "pitch": 35, "duration": 103, "velocity": 109}, {"time": 83037, "pitch": 42, "duration": 67, "velocity": 114}, {"time": 83037, "pitch": 70, "duration": 78, "velocity": 120}, {"time": 83278, "pitch": 42, "duration": 51, "velocity": 79}, {"time": 83278, "pitch": 70, "duration": 55, "velocity": 81}, {"time": 83399, "pitch": 42, "duration": 44, "velocity": 75}, {"time": 83519, "pitch": 35, "duration": 104, "velocity": 107}, {"time": 83519, "pitch": 38, "duration": 113, "velocity": 104}, {"time": 83519, "pitch": 42, "duration": 88, "velocity": 117}, {"time": 83519, "pitch": 70, "duration": 60, "velocity": 122}, {"time": 83760, "pitch": 42, "duration": 54, "velocity": 90}, {"time": 83760, "pitch": 70, "duration": 56, "velocity": 74}, {"time": 83880, "pitch": 42, "duration": 54, "velocity": 77}, {"time": 84001, "pitch": 35, "duration": 97, "velocity": 109}, {"time": 84001, "pitch": 42, "duration": 68, "velocity": 117}, {"time": 84001, "pitch": 70, "duration": 73, "velocity": 122}, {"time": 84242, "pitch": 42, "duration": 47, "velocity": 60}, {"time": 84242, "pitch": 70, "duration": 48, "velocity": 77}, {"time": 84362, "pitch": 42, "duration": 45, "velocity": 74}, {"time": 84362, "pitch": 70, "duration": 40, "velocity": 76}, {"time": 84483, "pitch": 35, "duration": 96, "velocity": 111}, {"time": 84483, "pitch": 38, "duration": 95, "velocity": 103}, {"time": 84483, "pitch": 42, "duration": 85, "velocity": 114}, {"time": 84483, "pitch": 70, "duration": 66, "velocity": 83}, {"time": 84603, "pitch": 70, "duration": 48, "velocity": 85}, {"time": 84724, "pitch": 42, "duration": 55, "velocity": 86}, {"time": 84724, "pitch": 70, "duration": 55, "velocity": 75}, {"time": 84844, "pitch": 42, "duration": 55, "velocity": 73}, {"time": 84964, "pitch": 35, "duration": 100, "velocity": 109}, {"time": 84964, "pitch": 42, "duration": 74, "velocity": 121}, {"time": 84964, "pitch": 70, "duration": 76, "velocity": 120}, {"time": 85200, "pitch": 42, "duration": 57, "velocity": 61}, {"time": 85200, "pitch": 70, "duration": 55, "velocity": 81}, {"time": 85318, "pitch": 42, "duration": 44, "velocity": 67}, {"time": 85436, "pitch": 35, "duration": 86, "velocity": 109}, {"time": 85436, "pitch": 38, "duration": 99, "velocity": 103}, {"time": 85436, "pitch": 42, "duration": 86, "velocity": 121}, {"time": 85436, "pitch": 70, "duration": 61, "velocity": 122}, {"time": 85677, "pitch": 42, "duration": 47, "velocity": 70}, {"time": 85677, "pitch": 70, "duration": 57, "velocity": 74}, {"time": 85798, "pitch": 42, "duration": 61, "velocity": 74}, {"time": 85918, "pitch": 35, "duration": 108, "velocity": 109}, {"time": 85918, "pitch": 42, "duration": 76, "velocity": 121}, {"time": 85918, "pitch": 70, "duration": 73, "velocity": 122}, {"time": 86159, "pitch": 42, "duration": 43, "velocity": 64}, {"time": 86159, "pitch": 70, "duration": 48, "velocity": 77}, {"time": 86280, "pitch": 42, "duration": 47, "velocity": 71}, {"time": 86280, "pitch": 70, "duration": 40, "velocity": 76}, {"time": 86400, "pitch": 35, "duration": 88, "velocity": 108}, {"time": 86400, "pitch": 38, "duration": 84, "velocity": 103}, {"time": 86400, "pitch": 42, "duration": 88, "velocity": 114}, {"time": 86400, "pitch": 70, "duration": 66, "velocity": 83}, {"time": 86520, "pitch": 42, "duration": 44, "velocity": 64}, {"time": 86520, "pitch": 70, "duration": 49, "velocity": 85}, {"time": 86641, "pitch": 46, "duration": 64, "velocity": 72}, {"time": 86641, "pitch": 70, "duration": 55, "velocity": 75}, {"time": 86882, "pitch": 35, "duration": 199, "velocity": 110}, {"time": 86882, "pitch": 42, "duration": 88, "velocity": 122}, {"time": 86882, "pitch": 70, "duration": 77, "velocity": 120}, {"time": 87123, "pitch": 42, "duration": 63, "velocity": 74}, {"time": 87123, "pitch": 70, "duration": 55, "velocity": 81}, {"time": 87243, "pitch": 42, "duration": 53, "velocity": 71}, {"time": 87363, "pitch": 35, "duration": 167, "velocity": 110}, {"time": 87363, "pitch": 38, "duration": 110, "velocity": 105}, {"time": 87363, "pitch": 42, "duration": 94, "velocity": 112}, {"time": 87363, "pitch": 70, "duration": 59, "velocity": 122}, {"time": 87599, "pitch": 42, "duration": 49, "velocity": 76}, {"time": 87599, "pitch": 70, "duration": 56, "velocity": 74}, {"time": 87718, "pitch": 42, "duration": 61, "velocity": 79}, {"time": 87836, "pitch": 35, "duration": 115, "velocity": 110}, {"time": 87836, "pitch": 42, "duration": 70, "velocity": 117}, {"time": 87836, "pitch": 70, "duration": 73, "velocity": 122}, {"time": 88076, "pitch": 42, "duration": 49, "velocity": 60}, {"time": 88076, "pitch": 70, "duration": 49, "velocity": 77}, {"time": 88197, "pitch": 42, "duration": 50, "velocity": 75}, {"time": 88197, "pitch": 70, "duration": 40, "velocity": 76}, {"time": 88317, "pitch": 35, "duration": 89, "velocity": 109}, {"time": 88317, "pitch": 38, "duration": 87, "velocity": 104}, {"time": 88317, "pitch": 42, "duration": 88, "velocity": 117}, {"time": 88317, "pitch": 70, "duration": 66, "velocity": 83}, {"time": 88438, "pitch": 70, "duration": 48, "velocity": 85}, {"time": 88558, "pitch": 42, "duration": 49, "velocity": 73}, {"time": 88558, "pitch": 70, "duration": 55, "velocity": 75}, {"time": 88679, "pitch": 42, "duration": 50, "velocity": 66}, {"time": 88799, "pitch": 35, "duration": 100, "velocity": 109}, {"time": 88799, "pitch": 42, "duration": 75, "velocity": 121}, {"time": 88799, "pitch": 70, "duration": 77, "velocity": 120}, {"time": 89040, "pitch": 42, "duration": 47, "velocity": 67}, {"time": 89040, "pitch": 70, "duration": 55, "velocity": 81}, {"time": 89160, "pitch": 42, "duration": 48, "velocity": 83}, {"time": 89281, "pitch": 35, "duration": 95, "velocity": 109}, {"time": 89281, "pitch": 38, "duration": 104, "velocity": 104}, {"time": 89281, "pitch": 42, "duration": 85, "velocity": 117}, {"time": 89281, "pitch": 70, "duration": 60, "velocity": 122}, {"time": 89522, "pitch": 42, "duration": 47, "velocity": 79}, {"time": 89522, "pitch": 70, "duration": 56, "velocity": 74}, {"time": 89642, "pitch": 42, "duration": 61, "velocity": 72}, {"time": 89763, "pitch": 35, "duration": 93, "velocity": 109}, {"time": 89763, "pitch": 42, "duration": 66, "velocity": 120}, {"time": 89763, "pitch": 70, "duration": 73, "velocity": 122}, {"time": 90003, "pitch": 42, "duration": 42, "velocity": 61}, {"time": 90003, "pitch": 70, "duration": 49, "velocity": 77}, {"time": 90124, "pitch": 42, "duration": 56, "velocity": 93}, {"time": 90124, "pitch": 70, "duration": 40, "velocity": 76}, {"time": 90244, "pitch": 35, "duration": 87, "velocity": 110}, {"time": 90244, "pitch": 38, "duration": 111, "velocity": 103}, {"time": 90244, "pitch": 42, "duration": 78, "velocity": 111}, {"time": 90244, "pitch": 70, "duration": 65, "velocity": 83}, {"time": 90362, "pitch": 70, "duration": 47, "velocity": 85}, {"time": 90480, "pitch": 42, "duration": 45, "velocity": 74}, {"time": 90480, "pitch": 70, "duration": 54, "velocity": 75}, {"time": 90598, "pitch": 42, "duration": 49, "velocity": 65}, {"time": 90716, "pitch": 35, "duration": 103, "velocity": 109}, {"time": 90716, "pitch": 42, "duration": 66, "velocity": 114}, {"time": 90716, "pitch": 70, "duration": 78, "velocity": 120}, {"time": 90957, "pitch": 42, "duration": 51, "velocity": 79}, {"time": 90957, "pitch": 70, "duration": 55, "velocity": 81}, {"time": 91078, "pitch": 42, "duration": 44, "velocity": 75}, {"time": 91198, "pitch": 35, "duration": 103, "velocity": 107}, {"time": 91198, "pitch": 38, "duration": 112, "velocity": 104}, {"time": 91198, "pitch": 42, "duration": 88, "velocity": 117}, {"time": 91198, "pitch": 70, "duration": 60, "velocity": 122}, {"time": 91439, "pitch": 42, "duration": 54, "velocity": 90}, {"time": 91439, "pitch": 70, "duration": 56, "velocity": 74}, {"time": 91559, "pitch": 42, "duration": 54, "velocity": 77}, {"time": 91680, "pitch": 35, "duration": 97, "velocity": 109}, {"time": 91680, "pitch": 42, "duration": 68, "velocity": 117}, {"time": 91680, "pitch": 70, "duration": 73, "velocity": 122}, {"time": 91921, "pitch": 42, "duration": 47, "velocity": 60}, {"time": 91921, "pitch": 70, "duration": 48, "velocity": 77}, {"time": 92041, "pitch": 42, "duration": 45, "velocity": 74}, {"time": 92041, "pitch": 70, "duration": 40, "velocity": 76}, {"time": 92162, "pitch": 35, "duration": 96, "velocity": 111}, {"time": 92162, "pitch": 38, "duration": 95, "velocity": 103}, {"time": 92162, "pitch": 42, "duration": 85, "velocity": 114}, {"time": 92162, "pitch": 70, "duration": 66, "velocity": 83}, {"time": 92282, "pitch": 70, "duration": 48, "velocity": 85}, {"time": 92402, "pitch": 42, "duration": 56, "velocity": 86}, {"time": 92402, "pitch": 70, "duration": 56, "velocity": 75}, {"time": 92523, "pitch": 42, "duration": 55, "velocity": 73}, {"time": 92643, "pitch": 35, "duration": 100, "velocity": 109}, {"time": 92643, "pitch": 42, "duration": 74, "velocity": 121}, {"time": 92643, "pitch": 70, "duration": 76, "velocity": 120}, {"time": 92879, "pitch": 42, "duration": 57, "velocity": 61}, {"time": 92879, "pitch": 70, "duration": 54, "velocity": 81}, {"time": 92997, "pitch": 42, "duration": 44, "velocity": 67}, {"time": 93115, "pitch": 35, "duration": 86, "velocity": 109}, {"time": 93115, "pitch": 38, "duration": 99, "velocity": 103}, {"time": 93115, "pitch": 42, "duration": 86, "velocity": 121}, {"time": 93115, "pitch": 70, "duration": 61, "velocity": 122}, {"time": 93356, "pitch": 42, "duration": 47, "velocity": 70}, {"time": 93356, "pitch": 70, "duration": 56, "velocity": 74}, {"time": 93477, "pitch": 42, "duration": 61, "velocity": 74}, {"time": 93597, "pitch": 35, "duration": 107, "velocity": 109}, {"time": 93597, "pitch": 42, "duration": 76, "velocity": 121}, {"time": 93597, "pitch": 70, "duration": 73, "velocity": 122}, {"time": 93838, "pitch": 42, "duration": 43, "velocity": 64}, {"time": 93838, "pitch": 70, "duration": 48, "velocity": 77}, {"time": 93958, "pitch": 42, "duration": 48, "velocity": 71}, {"time": 93958, "pitch": 70, "duration": 41, "velocity": 76}, {"time": 94079, "pitch": 35, "duration": 88, "velocity": 108}, {"time": 94079, "pitch": 38, "duration": 84, "velocity": 103}, {"time": 94079, "pitch": 42, "duration": 88, "velocity": 114}, {"time": 94079, "pitch": 70, "duration": 66, "velocity": 83}, {"time": 94199, "pitch": 42, "duration": 43, "velocity": 64}, {"time": 94199, "pitch": 70, "duration": 48, "velocity": 85}, {"time": 94320, "pitch": 46, "duration": 64, "velocity": 72}, {"time": 94320, "pitch": 70, "duration": 55, "velocity": 75}, {"time": 94561, "pitch": 35, "duration": 199, "velocity": 110}, {"time": 94561, "pitch": 42, "duration": 88, "velocity": 122}, {"time": 94561, "pitch": 70, "duration": 77, "velocity": 120}, {"time": 94801, "pitch": 42, "duration": 64, "velocity": 74}, {"time": 94801, "pitch": 70, "duration": 56, "velocity": 81}, {"time": 94922, "pitch": 42, "duration": 53, "velocity": 71}, {"time": 95042, "pitch": 35, "duration": 170, "velocity": 110}, {"time": 95042, "pitch": 38, "duration": 112, "velocity": 105}, {"time": 95042, "pitch": 42, "duration": 96, "velocity": 112}, {"time": 95042, "pitch": 70, "duration": 61, "velocity": 122}, {"time": 95283, "pitch": 42, "duration": 49, "velocity": 76}, {"time": 95283, "pitch": 70, "duration": 56, "velocity": 74}, {"time": 95404, "pitch": 42, "duration": 63, "velocity": 79}, {"time": 95524, "pitch": 35, "duration": 113, "velocity": 110}, {"time": 95524, "pitch": 42, "duration": 69, "velocity": 117}, {"time": 95524, "pitch": 70, "duration": 72, "velocity": 122}, {"time": 95760, "pitch": 42, "duration": 47, "velocity": 60}, {"time": 95760, "pitch": 70, "duration": 47, "velocity": 77}, {"time": 95878, "pitch": 42, "duration": 49, "velocity": 75}, {"time": 95878, "pitch": 70, "duration": 39, "velocity": 76}, {"time": 95996, "pitch": 35, "duration": 88, "velocity": 109}, {"time": 95996, "pitch": 38, "duration": 86, "velocity": 104}, {"time": 95996, "pitch": 42, "duration": 87, "velocity": 117}, {"time": 95996, "pitch": 70, "duration": 66, "velocity": 83}, {"time": 96117, "pitch": 70, "duration": 48, "velocity": 85}, {"time": 96237, "pitch": 42, "duration": 49, "velocity": 73}, {"time": 96237, "pitch": 70, "duration": 55, "velocity": 75}, {"time": 96357, "pitch": 42, "duration": 51, "velocity": 66}, {"time": 96478, "pitch": 35, "duration": 100, "velocity": 109}, {"time": 96478, "pitch": 42, "duration": 75, "velocity": 121}, {"time": 96478, "pitch": 70, "duration": 77, "velocity": 120}, {"time": 96719, "pitch": 42, "duration": 47, "velocity": 67}, {"time": 96719, "pitch": 70, "duration": 55, "velocity": 81}, {"time": 96839, "pitch": 42, "duration": 48, "velocity": 83}, {"time": 96960, "pitch": 35, "duration": 95, "velocity": 109}, {"time": 96960, "pitch": 38, "duration": 104, "velocity": 104}, {"time": 96960, "pitch": 42, "duration": 85, "velocity": 117}, {"time": 96960, "pitch": 70, "duration": 60, "velocity": 122}, {"time": 97201, "pitch": 42, "duration": 47, "velocity": 79}, {"time": 97201, "pitch": 70, "duration": 56, "velocity": 74}, {"time": 97321, "pitch": 42, "duration": 61, "velocity": 72}, {"time": 97441, "pitch": 35, "duration": 94, "velocity": 109}, {"time": 97441, "pitch": 42, "duration": 67, "velocity": 120}, {"time": 97441, "pitch": 70, "duration": 74, "velocity": 122}, {"time": 97682, "pitch": 42, "duration": 41, "velocity": 61}, {"time": 97682, "pitch": 70, "duration": 48, "velocity": 77}, {"time": 97803, "pitch": 42, "duration": 56, "velocity": 93}, {"time": 97803, "pitch": 70, "duration": 40, "velocity": 76}, {"time": 97923, "pitch": 35, "duration": 87, "velocity": 110}, {"time": 97923, "pitch": 38, "duration": 111, "velocity": 103}, {"time": 97923, "pitch": 42, "duration": 78, "velocity": 111}, {"time": 97923, "pitch": 70, "duration": 65, "velocity": 83}, {"time": 98041, "pitch": 70, "duration": 47, "velocity": 85}, {"time": 98159, "pitch": 42, "duration": 44, "velocity": 74}, {"time": 98159, "pitch": 70, "duration": 54, "velocity": 75}, {"time": 98277, "pitch": 42, "duration": 49, "velocity": 65}, {"time": 98395, "pitch": 35, "duration": 103, "velocity": 109}, {"time": 98395, "pitch": 42, "duration": 66, "velocity": 114}, {"time": 98395, "pitch": 70, "duration": 77, "velocity": 120}, {"time": 98636, "pitch": 42, "duration": 51, "velocity": 79}, {"time": 98636, "pitch": 70, "duration": 55, "velocity": 81}, {"time": 98756, "pitch": 42, "duration": 45, "velocity": 75}, {"time": 98877, "pitch": 35, "duration": 103, "velocity": 107}, {"time": 98877, "pitch": 38, "duration": 112, "velocity": 104}, {"time": 98877, "pitch": 42, "duration": 88, "velocity": 117}, {"time": 98877, "pitch": 70, "duration": 60, "velocity": 122}, {"time": 99118, "pitch": 42, "duration": 54, "velocity": 90}, {"time": 99118, "pitch": 70, "duration": 56, "velocity": 74}, {"time": 99238, "pitch": 42, "duration": 53, "velocity": 77}, {"time": 99359, "pitch": 35, "duration": 97, "velocity": 109}, {"time": 99359, "pitch": 42, "duration": 68, "velocity": 117}, {"time": 99359, "pitch": 70, "duration": 73, "velocity": 122}, {"time": 99600, "pitch": 42, "duration": 47, "velocity": 60}, {"time": 99600, "pitch": 70, "duration": 48, "velocity": 77}, {"time": 99720, "pitch": 42, "duration": 45, "velocity": 74}, {"time": 99720, "pitch": 70, "duration": 40, "velocity": 76}, {"time": 99840, "pitch": 35, "duration": 97, "velocity": 111}, {"time": 99840, "pitch": 38, "duration": 96, "velocity": 103}, {"time": 99840, "pitch": 42, "duration": 86, "velocity": 114}, {"time": 99840, "pitch": 70, "duration": 67, "velocity": 83}, {"time": 99961, "pitch": 70, "duration": 48, "velocity": 85}, {"time": 100081, "pitch": 42, "duration": 56, "velocity": 86}, {"time": 100081, "pitch": 70, "duration": 56, "velocity": 75}, {"time": 100202, "pitch": 42, "duration": 55, "velocity": 73}, {"time": 100322, "pitch": 35, "duration": 102, "velocity": 109}, {"time": 100322, "pitch": 42, "duration": 75, "velocity": 121}, {"time": 100322, "pitch": 70, "duration": 77, "velocity": 120}, {"time": 100563, "pitch": 42, "duration": 58, "velocity": 61}, {"time": 100563, "pitch": 70, "duration": 55, "velocity": 81}, {"time": 100684, "pitch": 42, "duration": 44, "velocity": 67}, {"time": 100804, "pitch": 35, "duration": 83, "velocity": 109}, {"time": 100804, "pitch": 38, "duration": 96, "velocity": 103}, {"time": 100804, "pitch": 42, "duration": 83, "velocity": 121}, {"time": 100804, "pitch": 70, "duration": 59, "velocity": 122}, {"time": 101040, "pitch": 42, "duration": 46, "velocity": 70}, {"time": 101040, "pitch": 70, "duration": 55, "velocity": 74}, {"time": 101158, "pitch": 42, "duration": 60, "velocity": 74}, {"time": 101276, "pitch": 35, "duration": 107, "velocity": 109}, {"time": 101276, "pitch": 42, "duration": 76, "velocity": 121}, {"time": 101276, "pitch": 70, "duration": 73, "velocity": 122}, {"time": 101517, "pitch": 42, "duration": 43, "velocity": 64}, {"time": 101517, "pitch": 70, "duration": 48, "velocity": 77}, {"time": 101637, "pitch": 42, "duration": 47, "velocity": 71}, {"time": 101637, "pitch": 70, "duration": 40, "velocity": 76}, {"time": 101758, "pitch": 35, "duration": 88, "velocity": 108}, {"time": 101758, "pitch": 38, "duration": 84, "velocity": 103}, {"time": 101758, "pitch": 42, "duration": 88, "velocity": 114}, {"time": 101758, "pitch": 70, "duration": 66, "velocity": 83}, {"time": 101878, "pitch": 38, "duration": 62, "velocity": 78}, {"time": 101878, "pitch": 42, "duration": 43, "velocity": 64}, {"time": 101878, "pitch": 70, "duration": 48, "velocity": 85}, {"time": 101999, "pitch": 45, "duration": 10, "velocity": 78}, {"time": 101999, "pitch": 46, "duration": 64, "velocity": 72}, {"time": 101999, "pitch": 70, "duration": 55, "velocity": 75}, {"time": 102239, "pitch": 35, "duration": 200, "velocity": 110}, {"time": 102239, "pitch": 42, "duration": 89, "velocity": 122}, {"time": 102239, "pitch": 57, "duration": 149, "velocity": 73}, {"time": 102239, "pitch": 70, "duration": 78, "velocity": 120}, {"time": 102480, "pitch": 42, "duration": 64, "velocity": 74}, {"time": 102480, "pitch": 70, "duration": 56, "velocity": 81}, {"time": 102601, "pitch": 42, "duration": 53, "velocity": 71}, {"time": 102721, "pitch": 35, "duration": 170, "velocity": 110}, {"time": 102721, "pitch": 38, "duration": 112, "velocity": 105}, {"time": 102721, "pitch": 42, "duration": 96, "velocity": 112}, {"time": 102721, "pitch": 70, "duration": 60, "velocity": 122}, {"time": 102962, "pitch": 42, "duration": 49, "velocity": 76}, {"time": 102962, "pitch": 70, "duration": 56, "velocity": 74}, {"time": 103083, "pitch": 42, "duration": 63, "velocity": 79}, {"time": 103203, "pitch": 35, "duration": 115, "velocity": 110}, {"time": 103203, "pitch": 42, "duration": 70, "velocity": 117}, {"time": 103203, "pitch": 70, "duration": 73, "velocity": 122}, {"time": 103444, "pitch": 42, "duration": 48, "velocity": 60}, {"time": 103444, "pitch": 70, "duration": 48, "velocity": 77}, {"time": 103564, "pitch": 42, "duration": 51, "velocity": 75}, {"time": 103564, "pitch": 70, "duration": 40, "velocity": 76}, {"time": 103685, "pitch": 35, "duration": 86, "velocity": 109}, {"time": 103685, "pitch": 38, "duration": 84, "velocity": 104}, {"time": 103685, "pitch": 42, "duration": 85, "velocity": 117}, {"time": 103685, "pitch": 70, "duration": 65, "velocity": 83}, {"time": 103803, "pitch": 70, "duration": 47, "velocity": 85}, {"time": 103921, "pitch": 42, "duration": 48, "velocity": 73}, {"time": 103921, "pitch": 70, "duration": 54, "velocity": 75}, {"time": 104039, "pitch": 42, "duration": 49, "velocity": 66}, {"time": 104157, "pitch": 35, "duration": 100, "velocity": 109}, {"time": 104157, "pitch": 42, "duration": 75, "velocity": 121}, {"time": 104157, "pitch": 70, "duration": 77, "velocity": 120}, {"time": 104398, "pitch": 42, "duration": 47, "velocity": 67}, {"time": 104398, "pitch": 70, "duration": 55, "velocity": 81}, {"time": 104518, "pitch": 42, "duration": 48, "velocity": 83}, {"time": 104638, "pitch": 35, "duration": 96, "velocity": 109}, {"time": 104638, "pitch": 38, "duration": 105, "velocity": 104}, {"time": 104638, "pitch": 42, "duration": 86, "velocity": 117}, {"time": 104638, "pitch": 70, "duration": 61, "velocity": 122}, {"time": 104879, "pitch": 42, "duration": 48, "velocity": 79}, {"time": 104879, "pitch": 70, "duration": 57, "velocity": 74}, {"time": 105000, "pitch": 42, "duration": 61, "velocity": 72}, {"time": 105120, "pitch": 35, "duration": 94, "velocity": 109}, {"time": 105120, "pitch": 42, "duration": 67, "velocity": 120}, {"time": 105120, "pitch": 70, "duration": 74, "velocity": 122}, {"time": 105361, "pitch": 42, "duration": 41, "velocity": 61}, {"time": 105361, "pitch": 70, "duration": 48, "velocity": 77}, {"time": 105482, "pitch": 42, "duration": 56, "velocity": 93}, {"time": 105482, "pitch": 70, "duration": 40, "velocity": 76}, {"time": 105602, "pitch": 35, "duration": 88, "velocity": 110}, {"time": 105602, "pitch": 38, "duration": 113, "velocity": 103}, {"time": 105602, "pitch": 42, "duration": 79, "velocity": 111}, {"time": 105602, "pitch": 70, "duration": 66, "velocity": 83}, {"time": 105722, "pitch": 70, "duration": 49, "velocity": 85}, {"time": 105843, "pitch": 42, "duration": 45, "velocity": 74}, {"time": 105843, "pitch": 70, "duration": 55, "velocity": 75}, {"time": 105963, "pitch": 42, "duration": 51, "velocity": 65}, {"time": 106084, "pitch": 35, "duration": 100, "velocity": 109}, {"time": 106084, "pitch": 42, "duration": 65, "velocity": 114}, {"time": 106084, "pitch": 70, "duration": 75, "velocity": 120}, {"time": 106320, "pitch": 42, "duration": 50, "velocity": 79}, {"time": 106320, "pitch": 70, "duration": 54, "velocity": 81}, {"time": 106438, "pitch": 42, "duration": 43, "velocity": 75}, {"time": 106556, "pitch": 35, "duration": 103, "velocity": 107}, {"time": 106556, "pitch": 38, "duration": 112, "velocity": 104}, {"time": 106556, "pitch": 42, "duration": 88, "velocity": 117}, {"time": 106556, "pitch": 70, "duration": 60, "velocity": 122}, {"time": 106797, "pitch": 42, "duration": 54, "velocity": 90}, {"time": 106797, "pitch": 70, "duration": 56, "velocity": 74}, {"time": 106917, "pitch": 42, "duration": 53, "velocity": 77}, {"time": 107038, "pitch": 35, "duration": 97, "velocity": 109}, {"time": 107038, "pitch": 42, "duration": 68, "velocity": 117}, {"time": 107038, "pitch": 70, "duration": 73, "velocity": 122}, {"time": 107278, "pitch": 42, "duration": 48, "velocity": 60}, {"time": 107278, "pitch": 70, "duration": 49, "velocity": 77}, {"time": 107399, "pitch": 42, "duration": 45, "velocity": 74}, {"time": 107399, "pitch": 70, "duration": 40, "velocity": 76}, {"time": 107519, "pitch": 35, "duration": 97, "velocity": 111}, {"time": 107519, "pitch": 38, "duration": 96, "velocity": 103}, {"time": 107519, "pitch": 42, "duration": 86, "velocity": 114}, {"time": 107519, "pitch": 70, "duration": 67, "velocity": 83}, {"time": 107640, "pitch": 70, "duration": 48, "velocity": 85}, {"time": 107760, "pitch": 42, "duration": 55, "velocity": 86}, {"time": 107760, "pitch": 70, "duration": 55, "velocity": 75}, {"time": 107881, "pitch": 42, "duration": 55, "velocity": 73}, {"time": 108001, "pitch": 35, "duration": 101, "velocity": 109}, {"time": 108001, "pitch": 42, "duration": 75, "velocity": 121}, {"time": 108001, "pitch": 70, "duration": 77, "velocity": 120}, {"time": 108242, "pitch": 42, "duration": 58, "velocity": 61}, {"time": 108242, "pitch": 70, "duration": 55, "velocity": 81}, {"time": 108362, "pitch": 42, "duration": 45, "velocity": 67}, {"time": 108483, "pitch": 35, "duration": 85, "velocity": 109}, {"time": 108483, "pitch": 38, "duration": 98, "velocity": 103}, {"time": 108483, "pitch": 42, "duration": 85, "velocity": 121}, {"time": 108483, "pitch": 70, "duration": 60, "velocity": 122}, {"time": 108724, "pitch": 42, "duration": 47, "velocity": 70}, {"time": 108724, "pitch": 70, "duration": 56, "velocity": 74}, {"time": 108844, "pitch": 42, "duration": 61, "velocity": 74}, {"time": 108965, "pitch": 35, "duration": 105, "velocity": 109}, {"time": 108965, "pitch": 42, "duration": 74, "velocity": 121}, {"time": 108965, "pitch": 70, "duration": 71, "velocity": 122}, {"time": 109201, "pitch": 42, "duration": 42, "velocity": 64}, {"time": 109201, "pitch": 70, "duration": 47, "velocity": 77}, {"time": 109319, "pitch": 42, "duration": 46, "velocity": 71}, {"time": 109319, "pitch": 70, "duration": 39, "velocity": 76}, {"time": 109437, "pitch": 35, "duration": 88, "velocity": 108}, {"time": 109437, "pitch": 38, "duration": 84, "velocity": 103}, {"time": 109437, "pitch": 42, "duration": 88, "velocity": 114}, {"time": 109437, "pitch": 70, "duration": 66, "velocity": 83}, {"time": 109557, "pitch": 42, "duration": 43, "velocity": 64}, {"time": 109557, "pitch": 70, "duration": 48, "velocity": 85}, {"time": 109677, "pitch": 46, "duration": 65, "velocity": 72}, {"time": 109677, "pitch": 70, "duration": 56, "velocity": 75}, {"time": 109918, "pitch": 35, "duration": 200, "velocity": 110}, {"time": 109918, "pitch": 42, "duration": 89, "velocity": 122}, {"time": 109918, "pitch": 70, "duration": 78, "velocity": 120}, {"time": 110159, "pitch": 42, "duration": 63, "velocity": 74}, {"time": 110159, "pitch": 70, "duration": 55, "velocity": 81}, {"time": 110280, "pitch": 42, "duration": 53, "velocity": 71}, {"time": 110400, "pitch": 35, "duration": 170, "velocity": 110}, {"time": 110400, "pitch": 38, "duration": 112, "velocity": 105}, {"time": 110400, "pitch": 42, "duration": 95, "velocity": 112}, {"time": 110400, "pitch": 70, "duration": 60, "velocity": 122}, {"time": 110641, "pitch": 42, "duration": 49, "velocity": 76}, {"time": 110641, "pitch": 70, "duration": 56, "velocity": 74}, {"time": 110761, "pitch": 42, "duration": 64, "velocity": 79}, {"time": 110882, "pitch": 35, "duration": 115, "velocity": 110}, {"time": 110882, "pitch": 42, "duration": 70, "velocity": 117}, {"time": 110882, "pitch": 70, "duration": 73, "velocity": 122}, {"time": 111123, "pitch": 42, "duration": 48, "velocity": 60}, {"time": 111123, "pitch": 70, "duration": 48, "velocity": 77}, {"time": 111243, "pitch": 42, "duration": 50, "velocity": 75}, {"time": 111243, "pitch": 70, "duration": 40, "velocity": 76}, {"time": 111364, "pitch": 35, "duration": 86, "velocity": 109}, {"time": 111364, "pitch": 38, "duration": 84, "velocity": 104}, {"time": 111364, "pitch": 42, "duration": 85, "velocity": 117}, {"time": 111364, "pitch": 70, "duration": 64, "velocity": 83}, {"time": 111482, "pitch": 70, "duration": 47, "velocity": 85}, {"time": 111600, "pitch": 42, "duration": 48, "velocity": 73}, {"time": 111600, "pitch": 70, "duration": 54, "velocity": 75}, {"time": 111718, "pitch": 42, "duration": 49, "velocity": 66}, {"time": 111836, "pitch": 35, "duration": 100, "velocity": 109}, {"time": 111836, "pitch": 42, "duration": 75, "velocity": 121}, {"time": 111836, "pitch": 70, "duration": 77, "velocity": 120}, {"time": 112076, "pitch": 42, "duration": 48, "velocity": 67}, {"time": 112076, "pitch": 70, "duration": 56, "velocity": 81}, {"time": 112197, "pitch": 42, "duration": 48, "velocity": 83}, {"time": 112317, "pitch": 35, "duration": 96, "velocity": 109}, {"time": 112317, "pitch": 38, "duration": 105, "velocity": 104}, {"time": 112317, "pitch": 42, "duration": 86, "velocity": 117}, {"time": 112317, "pitch": 70, "duration": 61, "velocity": 122}, {"time": 112558, "pitch": 42, "duration": 47, "velocity": 79}, {"time": 112558, "pitch": 70, "duration": 56, "velocity": 74}, {"time": 112679, "pitch": 42, "duration": 61, "velocity": 72}, {"time": 112799, "pitch": 35, "duration": 93, "velocity": 109}, {"time": 112799, "pitch": 42, "duration": 66, "velocity": 120}, {"time": 112799, "pitch": 70, "duration": 73, "velocity": 122}, {"time": 113040, "pitch": 42, "duration": 41, "velocity": 61}, {"time": 113040, "pitch": 70, "duration": 48, "velocity": 77}, {"time": 113160, "pitch": 42, "duration": 57, "velocity": 93}, {"time": 113160, "pitch": 70, "duration": 41, "velocity": 76}, {"time": 113281, "pitch": 35, "duration": 88, "velocity": 110}, {"time": 113281, "pitch": 38, "duration": 113, "velocity": 103}, {"time": 113281, "pitch": 42, "duration": 79, "velocity": 111}, {"time": 113281, "pitch": 70, "duration": 66, "velocity": 83}, {"time": 113401, "pitch": 70, "duration": 49, "velocity": 85}, {"time": 113522, "pitch": 42, "duration": 45, "velocity": 74}, {"time": 113522, "pitch": 70, "duration": 55, "velocity": 75}, {"time": 113642, "pitch": 42, "duration": 50, "velocity": 65}, {"time": 113763, "pitch": 35, "duration": 102, "velocity": 109}, {"time": 113763, "pitch": 42, "duration": 66, "velocity": 114}, {"time": 113763, "pitch": 70, "duration": 77, "velocity": 120}, {"time": 114004, "pitch": 42, "duration": 51, "velocity": 79}, {"time": 114004, "pitch": 70, "duration": 55, "velocity": 81}, {"time": 114124, "pitch": 42, "duration": 44, "velocity": 75}, {"time": 114244, "pitch": 35, "duration": 102, "velocity": 107}, {"time": 114244, "pitch": 38, "duration": 111, "velocity": 104}, {"time": 114244, "pitch": 42, "duration": 87, "velocity": 117}, {"time": 114244, "pitch": 70, "duration": 59, "velocity": 122}, {"time": 114480, "pitch": 42, "duration": 54, "velocity": 90}, {"time": 114480, "pitch": 70, "duration": 55, "velocity": 74}, {"time": 114598, "pitch": 42, "duration": 53, "velocity": 77}, {"time": 114716, "pitch": 35, "duration": 98, "velocity": 109}, {"time": 114716, "pitch": 42, "duration": 69, "velocity": 117}, {"time": 114716, "pitch": 70, "duration": 74, "velocity": 122}, {"time": 114957, "pitch": 42, "duration": 47, "velocity": 60}, {"time": 114957, "pitch": 70, "duration": 48, "velocity": 77}, {"time": 115078, "pitch": 42, "duration": 45, "velocity": 74}, {"time": 115078, "pitch": 70, "duration": 40, "velocity": 76}, {"time": 115198, "pitch": 35, "duration": 97, "velocity": 111}, {"time": 115198, "pitch": 38, "duration": 96, "velocity": 103}, {"time": 115198, "pitch": 42, "duration": 85, "velocity": 114}, {"time": 115198, "pitch": 70, "duration": 66, "velocity": 83}, {"time": 115319, "pitch": 70, "duration": 48, "velocity": 85}, {"time": 115439, "pitch": 42, "duration": 55, "velocity": 86}, {"time": 115439, "pitch": 70, "duration": 55, "velocity": 75}, {"time": 115559, "pitch": 42, "duration": 56, "velocity": 73}, {"time": 115680, "pitch": 35, "duration": 101, "velocity": 109}, {"time": 115680, "pitch": 42, "duration": 75, "velocity": 121}, {"time": 115680, "pitch": 57, "duration": 171, "velocity": 93}, {"time": 115680, "pitch": 70, "duration": 77, "velocity": 120}, {"time": 115921, "pitch": 35, "duration": 140, "velocity": 107}, {"time": 115921, "pitch": 42, "duration": 58, "velocity": 61}, {"time": 115921, "pitch": 70, "duration": 55, "velocity": 81}, {"time": 116041, "pitch": 42, "duration": 44, "velocity": 67}, {"time": 116162, "pitch": 35, "duration": 85, "velocity": 109}, {"time": 116162, "pitch": 38, "duration": 98, "velocity": 103}, {"time": 116162, "pitch": 42, "duration": 85, "velocity": 121}, {"time": 116162, "pitch": 70, "duration": 60, "velocity": 122}, {"time": 116403, "pitch": 42, "duration": 47, "velocity": 70}, {"time": 116403, "pitch": 48, "duration": 133, "velocity": 106}, {"time": 116403, "pitch": 70, "duration": 56, "velocity": 74}, {"time": 116523, "pitch": 42, "duration": 61, "velocity": 74}, {"time": 116643, "pitch": 35, "duration": 106, "velocity": 109}, {"time": 116643, "pitch": 42, "duration": 75, "velocity": 121}, {"time": 116643, "pitch": 70, "duration": 72, "velocity": 122}, {"time": 116879, "pitch": 42, "duration": 43, "velocity": 64}, {"time": 116879, "pitch": 45, "duration": 93, "velocity": 107}, {"time": 116879, "pitch": 70, "duration": 48, "velocity": 77}, {"time": 116997, "pitch": 42, "duration": 47, "velocity": 71}, {"time": 116997, "pitch": 70, "duration": 40, "velocity": 76}, {"time": 117116, "pitch": 35, "duration": 88, "velocity": 108}, {"time": 117116, "pitch": 38, "duration": 84, "velocity": 103}, {"time": 117116, "pitch": 42, "duration": 88, "velocity": 114}, {"time": 117116, "pitch": 70, "duration": 66, "velocity": 83}, {"time": 117236, "pitch": 42, "duration": 43, "velocity": 64}, {"time": 117236, "pitch": 70, "duration": 48, "velocity": 85}, {"time": 117356, "pitch": 35, "duration": 113, "velocity": 91}, {"time": 117356, "pitch": 41, "duration": 88, "velocity": 104}, {"time": 117356, "pitch": 46, "duration": 65, "velocity": 72}, {"time": 117356, "pitch": 70, "duration": 56, "velocity": 75}, {"time": 117597, "pitch": 35, "duration": 200, "velocity": 110}, {"time": 117597, "pitch": 42, "duration": 89, "velocity": 122}, {"time": 117597, "pitch": 49, "duration": 93, "velocity": 61}, {"time": 117597, "pitch": 70, "duration": 77, "velocity": 120}, {"time": 117838, "pitch": 42, "duration": 63, "velocity": 74}, {"time": 117838, "pitch": 70, "duration": 55, "velocity": 81}, {"time": 117959, "pitch": 42, "duration": 53, "velocity": 71}, {"time": 118079, "pitch": 35, "duration": 170, "velocity": 110}, {"time": 118079, "pitch": 38, "duration": 111, "velocity": 105}, {"time": 118079, "pitch": 42, "duration": 95, "velocity": 112}, {"time": 118079, "pitch": 70, "duration": 60, "velocity": 122}, {"time": 118320, "pitch": 42, "duration": 49, "velocity": 76}, {"time": 118320, "pitch": 48, "duration": 94, "velocity": 100}, {"time": 118320, "pitch": 57, "duration": 111, "velocity": 90}, {"time": 118320, "pitch": 70, "duration": 56, "velocity": 74}, {"time": 118440, "pitch": 42, "duration": 64, "velocity": 79}, {"time": 118561, "pitch": 35, "duration": 115, "velocity": 110}, {"time": 118561, "pitch": 42, "duration": 70, "velocity": 117}, {"time": 118561, "pitch": 70, "duration": 73, "velocity": 122}, {"time": 118802, "pitch": 42, "duration": 48, "velocity": 60}, {"time": 118802, "pitch": 45, "duration": 65, "velocity": 94}, {"time": 118802, "pitch": 70, "duration": 48, "velocity": 77}, {"time": 118922, "pitch": 42, "duration": 50, "velocity": 75}, {"time": 118922, "pitch": 70, "duration": 40, "velocity": 76}, {"time": 119043, "pitch": 35, "duration": 88, "velocity": 109}, {"time": 119043, "pitch": 38, "duration": 86, "velocity": 104}, {"time": 119043, "pitch": 42, "duration": 87, "velocity": 117}, {"time": 119043, "pitch": 70, "duration": 66, "velocity": 83}, {"time": 119163, "pitch": 38, "duration": 80, "velocity": 74}, {"time": 119163, "pitch": 70, "duration": 48, "velocity": 85}, {"time": 119283, "pitch": 42, "duration": 50, "velocity": 73}, {"time": 119283, "pitch": 45, "duration": 75, "velocity": 73}, {"time": 119283, "pitch": 70, "duration": 56, "velocity": 75}, {"time": 119404, "pitch": 41, "duration": 67, "velocity": 85}, {"time": 119404, "pitch": 42, "duration": 50, "velocity": 66}, {"time": 119524, "pitch": 35, "duration": 196, "velocity": 110}, {"time": 119524, "pitch": 42, "duration": 87, "velocity": 122}, {"time": 119524, "pitch": 57, "duration": 146, "velocity": 73}, {"time": 119524, "pitch": 70, "duration": 76, "velocity": 120}, {"time": 119760, "pitch": 42, "duration": 62, "velocity": 74}, {"time": 119760, "pitch": 70, "duration": 54, "velocity": 81}, {"time": 119878, "pitch": 42, "duration": 52, "velocity": 71}, {"time": 119996, "pitch": 35, "duration": 170, "velocity": 110}, {"time": 119996, "pitch": 38, "duration": 112, "velocity": 105}, {"time": 119996, "pitch": 42, "duration": 96, "velocity": 112}, {"time": 119996, "pitch": 54, "duration": 109, "velocity": 93}, {"time": 119996, "pitch": 70, "duration": 60, "velocity": 122}, {"time": 120237, "pitch": 42, "duration": 49, "velocity": 76}, {"time": 120237, "pitch": 70, "duration": 56, "velocity": 74}, {"time": 120358, "pitch": 42, "duration": 63, "velocity": 79}, {"time": 120478, "pitch": 35, "duration": 115, "velocity": 110}, {"time": 120478, "pitch": 42, "duration": 70, "velocity": 117}, {"time": 120478, "pitch": 70, "duration": 73, "velocity": 122}, {"time": 120719, "pitch": 42, "duration": 48, "velocity": 60}, {"time": 120719, "pitch": 70, "duration": 48, "velocity": 77}, {"time": 120839, "pitch": 42, "duration": 51, "velocity": 75}, {"time": 120839, "pitch": 70, "duration": 40, "velocity": 76}, {"time": 120960, "pitch": 35, "duration": 88, "velocity": 109}, {"time": 120960, "pitch": 38, "duration": 86, "velocity": 104}, {"time": 120960, "pitch": 42, "duration": 87, "velocity": 117}, {"time": 120960, "pitch": 54, "duration": 113, "velocity": 92}, {"time": 120960, "pitch": 70, "duration": 66, "velocity": 83}, {"time": 121080, "pitch": 70, "duration": 48, "velocity": 85}, {"time": 121201, "pitch": 42, "duration": 49, "velocity": 73}, {"time": 121201, "pitch": 70, "duration": 55, "velocity": 75}, {"time": 121321, "pitch": 42, "duration": 50, "velocity": 66}, {"time": 121442, "pitch": 35, "duration": 100, "velocity": 109}, {"time": 121442, "pitch": 42, "duration": 75, "velocity": 121}, {"time": 121442, "pitch": 70, "duration": 77, "velocity": 120}, {"time": 121682, "pitch": 42, "duration": 48, "velocity": 67}, {"time": 121682, "pitch": 70, "duration": 56, "velocity": 81}, {"time": 121803, "pitch": 42, "duration": 48, "velocity": 83}, {"time": 121923, "pitch": 35, "duration": 94, "velocity": 109}, {"time": 121923, "pitch": 38, "duration": 103, "velocity": 104}, {"time": 121923, "pitch": 42, "duration": 84, "velocity": 117}, {"time": 121923, "pitch": 54, "duration": 130, "velocity": 93}, {"time": 121923, "pitch": 70, "duration": 59, "velocity": 122}, {"time": 122159, "pitch": 42, "duration": 47, "velocity": 79}, {"time": 122159, "pitch": 70, "duration": 55, "velocity": 74}, {"time": 122277, "pitch": 42, "duration": 60, "velocity": 72}, {"time": 122395, "pitch": 35, "duration": 94, "velocity": 109}, {"time": 122395, "pitch": 42, "duration": 67, "velocity": 120}, {"time": 122395, "pitch": 70, "duration": 74, "velocity": 122}, {"time": 122636, "pitch": 42, "duration": 41, "velocity": 61}, {"time": 122636, "pitch": 54, "duration": 59, "velocity": 82}, {"time": 122636, "pitch": 70, "duration": 48, "velocity": 77}, {"time": 122757, "pitch": 42, "duration": 56, "velocity": 93}, {"time": 122757, "pitch": 70, "duration": 40, "velocity": 76}, {"time": 122877, "pitch": 35, "duration": 88, "velocity": 110}, {"time": 122877, "pitch": 38, "duration": 113, "velocity": 103}, {"time": 122877, "pitch": 42, "duration": 79, "velocity": 111}, {"time": 122877, "pitch": 54, "duration": 141, "velocity": 94}, {"time": 122877, "pitch": 70, "duration": 66, "velocity": 83}, {"time": 122997, "pitch": 70, "duration": 49, "velocity": 85}, {"time": 123118, "pitch": 42, "duration": 45, "velocity": 74}, {"time": 123118, "pitch": 70, "duration": 55, "velocity": 75}, {"time": 123238, "pitch": 42, "duration": 51, "velocity": 65}, {"time": 123359, "pitch": 35, "duration": 102, "velocity": 109}, {"time": 123359, "pitch": 42, "duration": 66, "velocity": 114}, {"time": 123359, "pitch": 70, "duration": 77, "velocity": 120}, {"time": 123600, "pitch": 42, "duration": 51, "velocity": 79}, {"time": 123600, "pitch": 70, "duration": 55, "velocity": 81}, {"time": 123720, "pitch": 42, "duration": 44, "velocity": 75}, {"time": 123841, "pitch": 35, "duration": 103, "velocity": 107}, {"time": 123841, "pitch": 38, "duration": 112, "velocity": 104}, {"time": 123841, "pitch": 42, "duration": 88, "velocity": 117}, {"time": 123841, "pitch": 54, "duration": 109, "velocity": 92}, {"time": 123841, "pitch": 70, "duration": 60, "velocity": 122}, {"time": 124081, "pitch": 42, "duration": 55, "velocity": 90}, {"time": 124081, "pitch": 70, "duration": 57, "velocity": 74}, {"time": 124202, "pitch": 42, "duration": 53, "velocity": 77}, {"time": 124322, "pitch": 35, "duration": 98, "velocity": 109}, {"time": 124322, "pitch": 42, "duration": 69, "velocity": 117}, {"time": 124322, "pitch": 70, "duration": 74, "velocity": 122}, {"time": 124563, "pitch": 42, "duration": 47, "velocity": 60}, {"time": 124563, "pitch": 70, "duration": 48, "velocity": 77}, {"time": 124684, "pitch": 42, "duration": 45, "velocity": 74}, {"time": 124684, "pitch": 70, "duration": 40, "velocity": 76}, {"time": 124804, "pitch": 35, "duration": 94, "velocity": 111}, {"time": 124804, "pitch": 38, "duration": 93, "velocity": 103}, {"time": 124804, "pitch": 42, "duration": 84, "velocity": 114}, {"time": 124804, "pitch": 54, "duration": 94, "velocity": 93}, {"time": 124804, "pitch": 70, "duration": 65, "velocity": 83}, {"time": 124922, "pitch": 70, "duration": 47, "velocity": 85}, {"time": 125040, "pitch": 42, "duration": 54, "velocity": 86}, {"time": 125040, "pitch": 70, "duration": 54, "velocity": 75}, {"time": 125158, "pitch": 42, "duration": 54, "velocity": 73}, {"time": 125276, "pitch": 35, "duration": 101, "velocity": 109}, {"time": 125276, "pitch": 42, "duration": 75, "velocity": 121}, {"time": 125276, "pitch": 70, "duration": 77, "velocity": 120}, {"time": 125517, "pitch": 42, "duration": 58, "velocity": 61}, {"time": 125517, "pitch": 70, "duration": 55, "velocity": 81}, {"time": 125637, "pitch": 42, "duration": 45, "velocity": 67}, {"time": 125758, "pitch": 35, "duration": 85, "velocity": 109}, {"time": 125758, "pitch": 38, "duration": 98, "velocity": 103}, {"time": 125758, "pitch": 42, "duration": 85, "velocity": 121}, {"time": 125758, "pitch": 54, "duration": 98, "velocity": 93}, {"time": 125758, "pitch": 70, "duration": 60, "velocity": 122}, {"time": 125999, "pitch": 42, "duration": 47, "velocity": 70}, {"time": 125999, "pitch": 70, "duration": 56, "velocity": 74}, {"time": 126119, "pitch": 42, "duration": 61, "velocity": 74}, {"time": 126240, "pitch": 35, "duration": 107, "velocity": 109}, {"time": 126240, "pitch": 42, "duration": 76, "velocity": 121}, {"time": 126240, "pitch": 70, "duration": 73, "velocity": 122}, {"time": 126480, "pitch": 42, "duration": 44, "velocity": 64}, {"time": 126480, "pitch": 70, "duration": 49, "velocity": 77}, {"time": 126601, "pitch": 42, "duration": 47, "velocity": 71}, {"time": 126601, "pitch": 70, "duration": 40, "velocity": 76}, {"time": 126721, "pitch": 35, "duration": 89, "velocity": 108}, {"time": 126721, "pitch": 38, "duration": 85, "velocity": 103}, {"time": 126721, "pitch": 42, "duration": 89, "velocity": 114}, {"time": 126721, "pitch": 54, "duration": 92, "velocity": 94}, {"time": 126721, "pitch": 70, "duration": 67, "velocity": 83}, {"time": 126842, "pitch": 42, "duration": 43, "velocity": 64}, {"time": 126842, "pitch": 70, "duration": 48, "velocity": 85}, {"time": 126962, "pitch": 46, "duration": 64, "velocity": 72}, {"time": 126962, "pitch": 70, "duration": 55, "velocity": 75}, {"time": 127203, "pitch": 35, "duration": 196, "velocity": 110}, {"time": 127203, "pitch": 42, "duration": 87, "velocity": 122}, {"time": 127203, "pitch": 70, "duration": 76, "velocity": 120}, {"time": 127439, "pitch": 42, "duration": 62, "velocity": 74}, {"time": 127439, "pitch": 70, "duration": 54, "velocity": 81}, {"time": 127557, "pitch": 42, "duration": 52, "velocity": 71}, {"time": 127675, "pitch": 35, "duration": 170, "velocity": 110}, {"time": 127675, "pitch": 38, "duration": 112, "velocity": 105}, {"time": 127675, "pitch": 42, "duration": 95, "velocity": 112}, {"time": 127675, "pitch": 54, "duration": 85, "velocity": 93}, {"time": 127675, "pitch": 70, "duration": 60, "velocity": 122}, {"time": 127916, "pitch": 42, "duration": 49, "velocity": 76}, {"time": 127916, "pitch": 70, "duration": 56, "velocity": 74}, {"time": 128036, "pitch": 42, "duration": 64, "velocity": 79}, {"time": 128157, "pitch": 35, "duration": 115, "velocity": 110}, {"time": 128157, "pitch": 42, "duration": 70, "velocity": 117}, {"time": 128157, "pitch": 70, "duration": 73, "velocity": 122}, {"time": 128398, "pitch": 42, "duration": 48, "velocity": 60}, {"time": 128398, "pitch": 70, "duration": 48, "velocity": 77}, {"time": 128518, "pitch": 42, "duration": 50, "velocity": 75}, {"time": 128518, "pitch": 70, "duration": 40, "velocity": 76}, {"time": 128639, "pitch": 35, "duration": 88, "velocity": 109}, {"time": 128639, "pitch": 38, "duration": 86, "velocity": 104}, {"time": 128639, "pitch": 42, "duration": 87, "velocity": 117}, {"time": 128639, "pitch": 54, "duration": 82, "velocity": 93}, {"time": 128639, "pitch": 70, "duration": 66, "velocity": 83}, {"time": 128759, "pitch": 70, "duration": 48, "velocity": 85}, {"time": 128880, "pitch": 42, "duration": 49, "velocity": 73}, {"time": 128880, "pitch": 70, "duration": 55, "velocity": 75}, {"time": 129000, "pitch": 42, "duration": 50, "velocity": 66}, {"time": 129120, "pitch": 35, "duration": 101, "velocity": 109}, {"time": 129120, "pitch": 42, "duration": 76, "velocity": 121}, {"time": 129120, "pitch": 70, "duration": 78, "velocity": 120}, {"time": 129361, "pitch": 42, "duration": 47, "velocity": 67}, {"time": 129361, "pitch": 70, "duration": 55, "velocity": 81}, {"time": 129482, "pitch": 42, "duration": 48, "velocity": 83}, {"time": 129602, "pitch": 35, "duration": 96, "velocity": 109}, {"time": 129602, "pitch": 38, "duration": 105, "velocity": 104}, {"time": 129602, "pitch": 42, "duration": 85, "velocity": 117}, {"time": 129602, "pitch": 54, "duration": 86, "velocity": 93}, {"time": 129602, "pitch": 70, "duration": 60, "velocity": 122}, {"time": 129843, "pitch": 42, "duration": 47, "velocity": 79}, {"time": 129843, "pitch": 70, "duration": 56, "velocity": 74}, {"time": 129963, "pitch": 42, "duration": 62, "velocity": 72}, {"time": 130084, "pitch": 35, "duration": 91, "velocity": 109}, {"time": 130084, "pitch": 42, "duration": 65, "velocity": 120}, {"time": 130084, "pitch": 70, "duration": 72, "velocity": 122}, {"time": 130320, "pitch": 42, "duration": 40, "velocity": 61}, {"time": 130320, "pitch": 54, "duration": 54, "velocity": 81}, {"time": 130320, "pitch": 70, "duration": 47, "velocity": 77}, {"time": 130438, "pitch": 42, "duration": 55, "velocity": 93}, {"time": 130438, "pitch": 70, "duration": 39, "velocity": 76}, {"time": 130556, "pitch": 35, "duration": 88, "velocity": 110}, {"time": 130556, "pitch": 38, "duration": 113, "velocity": 103}, {"time": 130556, "pitch": 42, "duration": 79, "velocity": 111}, {"time": 130556, "pitch": 54, "duration": 112, "velocity": 94}, {"time": 130556, "pitch": 70, "duration": 66, "velocity": 83}, {"time": 130676, "pitch": 70, "duration": 49, "velocity": 85}, {"time": 130797, "pitch": 42, "duration": 45, "velocity": 74}, {"time": 130797, "pitch": 70, "duration": 55, "velocity": 75}, {"time": 130917, "pitch": 42, "duration": 50, "velocity": 65}, {"time": 131038, "pitch": 35, "duration": 102, "velocity": 109}, {"time": 131038, "pitch": 42, "duration": 66, "velocity": 114}, {"time": 131038, "pitch": 70, "duration": 77, "velocity": 120}, {"time": 131279, "pitch": 42, "duration": 51, "velocity": 79}, {"time": 131279, "pitch": 70, "duration": 55, "velocity": 81}, {"time": 131399, "pitch": 42, "duration": 44, "velocity": 75}, {"time": 131519, "pitch": 35, "duration": 104, "velocity": 107}, {"time": 131519, "pitch": 38, "duration": 113, "velocity": 104}, {"time": 131519, "pitch": 42, "duration": 89, "velocity": 117}, {"time": 131519, "pitch": 54, "duration": 89, "velocity": 93}, {"time": 131519, "pitch": 70, "duration": 61, "velocity": 122}, {"time": 131760, "pitch": 42, "duration": 55, "velocity": 90}, {"time": 131760, "pitch": 70, "duration": 57, "velocity": 74}, {"time": 131881, "pitch": 42, "duration": 53, "velocity": 77}, {"time": 132001, "pitch": 35, "duration": 98, "velocity": 109}, {"time": 132001, "pitch": 42, "duration": 68, "velocity": 117}, {"time": 132001, "pitch": 70, "duration": 73, "velocity": 122}, {"time": 132242, "pitch": 42, "duration": 47, "velocity": 60}, {"time": 132242, "pitch": 70, "duration": 48, "velocity": 77}, {"time": 132363, "pitch": 42, "duration": 45, "velocity": 74}, {"time": 132363, "pitch": 70, "duration": 40, "velocity": 76}, {"time": 132483, "pitch": 35, "duration": 96, "velocity": 111}, {"time": 132483, "pitch": 38, "duration": 95, "velocity": 103}, {"time": 132483, "pitch": 42, "duration": 85, "velocity": 114}, {"time": 132483, "pitch": 54, "duration": 84, "velocity": 93}, {"time": 132483, "pitch": 70, "duration": 66, "velocity": 83}, {"time": 132603, "pitch": 70, "duration": 49, "velocity": 85}, {"time": 132724, "pitch": 42, "duration": 55, "velocity": 86}, {"time": 132724, "pitch": 70, "duration": 55, "velocity": 75}, {"time": 132844, "pitch": 42, "duration": 56, "velocity": 73}, {"time": 132965, "pitch": 35, "duration": 99, "velocity": 109}, {"time": 132965, "pitch": 42, "duration": 73, "velocity": 121}, {"time": 132965, "pitch": 57, "duration": 167, "velocity": 93}, {"time": 132965, "pitch": 70, "duration": 75, "velocity": 120}, {"time": 133201, "pitch": 35, "duration": 137, "velocity": 107}, {"time": 133201, "pitch": 42, "duration": 57, "velocity": 61}, {"time": 133201, "pitch": 70, "duration": 54, "velocity": 81}, {"time": 133319, "pitch": 42, "duration": 43, "velocity": 67}, {"time": 133437, "pitch": 35, "duration": 85, "velocity": 109}, {"time": 133437, "pitch": 38, "duration": 98, "velocity": 103}, {"time": 133437, "pitch": 42, "duration": 85, "velocity": 121}, {"time": 133437, "pitch": 54, "duration": 77, "velocity": 94}, {"time": 133437, "pitch": 70, "duration": 60, "velocity": 122}, {"time": 133678, "pitch": 42, "duration": 47, "velocity": 70}, {"time": 133678, "pitch": 48, "duration": 133, "velocity": 106}, {"time": 133678, "pitch": 70, "duration": 56, "velocity": 74}, {"time": 133798, "pitch": 42, "duration": 61, "velocity": 74}, {"time": 133918, "pitch": 35, "duration": 108, "velocity": 109}, {"time": 133918, "pitch": 42, "duration": 77, "velocity": 121}, {"time": 133918, "pitch": 70, "duration": 74, "velocity": 122}, {"time": 134159, "pitch": 42, "duration": 44, "velocity": 64}, {"time": 134159, "pitch": 45, "duration": 95, "velocity": 107}, {"time": 134159, "pitch": 70, "duration": 49, "velocity": 77}, {"time": 134280, "pitch": 42, "duration": 47, "velocity": 71}, {"time": 134280, "pitch": 70, "duration": 40, "velocity": 76}, {"time": 134400, "pitch": 38, "duration": 89, "velocity": 102}, {"time": 134400, "pitch": 42, "duration": 89, "velocity": 114}, {"time": 134400, "pitch": 54, "duration": 75, "velocity": 94}, {"time": 134400, "pitch": 70, "duration": 66, "velocity": 83}, {"time": 134521, "pitch": 38, "duration": 88, "velocity": 91}, {"time": 134521, "pitch": 42, "duration": 43, "velocity": 64}, {"time": 134521, "pitch": 70, "duration": 48, "velocity": 85}, {"time": 134641, "pitch": 35, "duration": 113, "velocity": 91}, {"time": 134641, "pitch": 41, "duration": 87, "velocity": 104}, {"time": 134641, "pitch": 46, "duration": 64, "velocity": 72}, {"time": 134641, "pitch": 70, "duration": 55, "velocity": 75}, {"time": 134762, "pitch": 38, "duration": 88, "velocity": 91}, {"time": 134882, "pitch": 35, "duration": 200, "velocity": 110}, {"time": 134882, "pitch": 42, "duration": 88, "velocity": 122}, {"time": 134882, "pitch": 49, "duration": 149, "velocity": 59}, {"time": 134882, "pitch": 70, "duration": 77, "velocity": 120}, {"time": 135123, "pitch": 42, "duration": 63, "velocity": 74}, {"time": 135123, "pitch": 70, "duration": 55, "velocity": 81}, {"time": 135243, "pitch": 42, "duration": 54, "velocity": 71}, {"time": 135364, "pitch": 35, "duration": 166, "velocity": 110}, {"time": 135364, "pitch": 42, "duration": 93, "velocity": 112}, {"time": 135364, "pitch": 70, "duration": 59, "velocity": 122}, {"time": 135364, "pitch": 85, "duration": 66, "velocity": 122}, {"time": 135600, "pitch": 42, "duration": 48, "velocity": 76}, {"time": 135600, "pitch": 70, "duration": 55, "velocity": 74}, {"time": 135718, "pitch": 42, "duration": 62, "velocity": 79}, {"time": 135836, "pitch": 35, "duration": 115, "velocity": 110}, {"time": 135836, "pitch": 42, "duration": 70, "velocity": 117}, {"time": 135836, "pitch": 70, "duration": 73, "velocity": 122}, {"time": 136077, "pitch": 42, "duration": 48, "velocity": 60}, {"time": 136077, "pitch": 70, "duration": 48, "velocity": 77}, {"time": 136197, "pitch": 42, "duration": 50, "velocity": 75}, {"time": 136197, "pitch": 70, "duration": 40, "velocity": 76}, {"time": 136318, "pitch": 35, "duration": 88, "velocity": 109}, {"time": 136318, "pitch": 38, "duration": 86, "velocity": 104}, {"time": 136318, "pitch": 42, "duration": 87, "velocity": 117}, {"time": 136318, "pitch": 54, "duration": 113, "velocity": 92}, {"time": 136318, "pitch": 70, "duration": 66, "velocity": 83}, {"time": 136438, "pitch": 70, "duration": 48, "velocity": 85}, {"time": 136558, "pitch": 42, "duration": 50, "velocity": 73}, {"time": 136558, "pitch": 70, "duration": 56, "velocity": 75}, {"time": 136679, "pitch": 42, "duration": 50, "velocity": 66}, {"time": 136799, "pitch": 35, "duration": 200, "velocity": 110}, {"time": 136799, "pitch": 42, "duration": 76, "velocity": 121}, {"time": 136799, "pitch": 70, "duration": 78, "velocity": 120}, {"time": 137040, "pitch": 70, "duration": 55, "velocity": 81}, {"time": 137161, "pitch": 42, "duration": 48, "velocity": 83}, {"time": 137281, "pitch": 35, "duration": 170, "velocity": 110}, {"time": 137281, "pitch": 42, "duration": 85, "velocity": 117}, {"time": 137281, "pitch": 70, "duration": 60, "velocity": 122}, {"time": 137522, "pitch": 42, "duration": 47, "velocity": 79}, {"time": 137522, "pitch": 70, "duration": 56, "velocity": 74}, {"time": 137522, "pitch": 85, "duration": 63, "velocity": 122}, {"time": 137642, "pitch": 42, "duration": 62, "velocity": 72}, {"time": 137763, "pitch": 35, "duration": 115, "velocity": 110}, {"time": 137763, "pitch": 42, "duration": 66, "velocity": 120}, {"time": 137763, "pitch": 70, "duration": 73, "velocity": 122}, {"time": 138004, "pitch": 42, "duration": 41, "velocity": 61}, {"time": 138004, "pitch": 54, "duration": 59, "velocity": 82}, {"time": 138004, "pitch": 70, "duration": 48, "velocity": 77}, {"time": 138124, "pitch": 42, "duration": 56, "velocity": 93}, {"time": 138124, "pitch": 70, "duration": 40, "velocity": 76}, {"time": 138244, "pitch": 35, "duration": 87, "velocity": 109}, {"time": 138244, "pitch": 38, "duration": 85, "velocity": 104}, {"time": 138244, "pitch": 42, "duration": 78, "velocity": 111}, {"time": 138244, "pitch": 54, "duration": 138, "velocity": 94}, {"time": 138244, "pitch": 70, "duration": 65, "velocity": 83}, {"time": 138363, "pitch": 70, "duration": 47, "velocity": 85}, {"time": 138481, "pitch": 42, "duration": 44, "velocity": 74}, {"time": 138481, "pitch": 70, "duration": 54, "velocity": 75}, {"time": 138599, "pitch": 42, "duration": 49, "velocity": 65}, {"time": 138717, "pitch": 35, "duration": 199, "velocity": 110}, {"time": 138717, "pitch": 42, "duration": 88, "velocity": 122}, {"time": 138717, "pitch": 57, "duration": 148, "velocity": 73}, {"time": 138717, "pitch": 70, "duration": 77, "velocity": 120}, {"time": 138957, "pitch": 42, "duration": 64, "velocity": 74}, {"time": 138957, "pitch": 70, "duration": 56, "velocity": 81}, {"time": 139078, "pitch": 42, "duration": 53, "velocity": 71}, {"time": 139198, "pitch": 35, "duration": 170, "velocity": 110}, {"time": 139198, "pitch": 42, "duration": 96, "velocity": 112}, {"time": 139198, "pitch": 70, "duration": 61, "velocity": 122}, {"time": 139198, "pitch": 85, "duration": 68, "velocity": 122}, {"time": 139439, "pitch": 42, "duration": 49, "velocity": 76}, {"time": 139439, "pitch": 70, "duration": 56, "velocity": 74}, {"time": 139560, "pitch": 42, "duration": 63, "velocity": 79}, {"time": 139680, "pitch": 35, "duration": 116, "velocity": 110}, {"time": 139680, "pitch": 42, "duration": 70, "velocity": 117}, {"time": 139680, "pitch": 70, "duration": 73, "velocity": 122}, {"time": 139921, "pitch": 42, "duration": 48, "velocity": 60}, {"time": 139921, "pitch": 70, "duration": 48, "velocity": 77}, {"time": 140041, "pitch": 42, "duration": 51, "velocity": 75}, {"time": 140041, "pitch": 70, "duration": 41, "velocity": 76}, {"time": 140162, "pitch": 35, "duration": 88, "velocity": 109}, {"time": 140162, "pitch": 38, "duration": 86, "velocity": 104}, {"time": 140162, "pitch": 42, "duration": 87, "velocity": 117}, {"time": 140162, "pitch": 54, "duration": 113, "velocity": 92}, {"time": 140162, "pitch": 70, "duration": 66, "velocity": 83}, {"time": 140282, "pitch": 70, "duration": 48, "velocity": 85}, {"time": 140403, "pitch": 42, "duration": 49, "velocity": 73}, {"time": 140403, "pitch": 70, "duration": 55, "velocity": 75}, {"time": 140523, "pitch": 42, "duration": 50, "velocity": 66}, {"time": 140644, "pitch": 35, "duration": 195, "velocity": 110}, {"time": 140644, "pitch": 42, "duration": 73, "velocity": 121}, {"time": 140644, "pitch": 70, "duration": 75, "velocity": 120}, {"time": 140880, "pitch": 70, "duration": 54, "velocity": 81}, {"time": 140998, "pitch": 42, "duration": 47, "velocity": 83}, {"time": 141116, "pitch": 35, "duration": 169, "velocity": 110}, {"time": 141116, "pitch": 42, "duration": 85, "velocity": 117}, {"time": 141116, "pitch": 70, "duration": 60, "velocity": 122}, {"time": 141356, "pitch": 42, "duration": 48, "velocity": 79}, {"time": 141356, "pitch": 70, "duration": 57, "velocity": 74}, {"time": 141356, "pitch": 85, "duration": 64, "velocity": 122}, {"time": 141477, "pitch": 42, "duration": 61, "velocity": 72}, {"time": 141597, "pitch": 35, "duration": 116, "velocity": 110}, {"time": 141597, "pitch": 42, "duration": 67, "velocity": 120}, {"time": 141597, "pitch": 70, "duration": 74, "velocity": 122}, {"time": 141838, "pitch": 42, "duration": 41, "velocity": 61}, {"time": 141838, "pitch": 54, "duration": 59, "velocity": 82}, {"time": 141838, "pitch": 70, "duration": 48, "velocity": 77}, {"time": 141959, "pitch": 42, "duration": 56, "velocity": 93}, {"time": 141959, "pitch": 70, "duration": 40, "velocity": 76}, {"time": 142079, "pitch": 35, "duration": 88, "velocity": 109}, {"time": 142079, "pitch": 38, "duration": 86, "velocity": 104}, {"time": 142079, "pitch": 42, "duration": 79, "velocity": 111}, {"time": 142079, "pitch": 49, "duration": 149, "velocity": 59}, {"time": 142079, "pitch": 54, "duration": 141, "velocity": 94}, {"time": 142079, "pitch": 70, "duration": 66, "velocity": 83}, {"time": 142200, "pitch": 70, "duration": 48, "velocity": 85}, {"time": 142320, "pitch": 42, "duration": 45, "velocity": 74}, {"time": 142320, "pitch": 70, "duration": 55, "velocity": 75}, {"time": 142440, "pitch": 42, "duration": 51, "velocity": 65}, {"time": 142561, "pitch": 35, "duration": 200, "velocity": 110}, {"time": 142561, "pitch": 42, "duration": 88, "velocity": 122}, {"time": 142561, "pitch": 57, "duration": 148, "velocity": 73}, {"time": 142561, "pitch": 70, "duration": 77, "velocity": 120}, {"time": 142802, "pitch": 42, "duration": 63, "velocity": 74}, {"time": 142802, "pitch": 70, "duration": 55, "velocity": 81}, {"time": 142922, "pitch": 42, "duration": 53, "velocity": 71}, {"time": 143043, "pitch": 35, "duration": 169, "velocity": 110}, {"time": 143043, "pitch": 42, "duration": 95, "velocity": 112}, {"time": 143043, "pitch": 70, "duration": 60, "velocity": 122}, {"time": 143043, "pitch": 85, "duration": 67, "velocity": 122}, {"time": 143284, "pitch": 42, "duration": 49, "velocity": 76}, {"time": 143284, "pitch": 70, "duration": 56, "velocity": 74}, {"time": 143404, "pitch": 42, "duration": 63, "velocity": 79}, {"time": 143524, "pitch": 35, "duration": 113, "velocity": 110}, {"time": 143524, "pitch": 42, "duration": 69, "velocity": 117}, {"time": 143524, "pitch": 70, "duration": 72, "velocity": 122}, {"time": 143760, "pitch": 42, "duration": 48, "velocity": 60}, {"time": 143760, "pitch": 70, "duration": 48, "velocity": 77}, {"time": 143878, "pitch": 42, "duration": 50, "velocity": 75}, {"time": 143878, "pitch": 70, "duration": 40, "velocity": 76}, {"time": 143996, "pitch": 35, "duration": 89, "velocity": 109}, {"time": 143996, "pitch": 38, "duration": 87, "velocity": 104}, {"time": 143996, "pitch": 42, "duration": 88, "velocity": 117}, {"time": 143996, "pitch": 54, "duration": 114, "velocity": 92}, {"time": 143996, "pitch": 70, "duration": 67, "velocity": 83}, {"time": 144117, "pitch": 70, "duration": 48, "velocity": 85}, {"time": 144237, "pitch": 42, "duration": 49, "velocity": 73}, {"time": 144237, "pitch": 70, "duration": 55, "velocity": 75}, {"time": 144358, "pitch": 42, "duration": 50, "velocity": 66}, {"time": 144478, "pitch": 35, "duration": 200, "velocity": 110}, {"time": 144478, "pitch": 42, "duration": 75, "velocity": 121}, {"time": 144478, "pitch": 70, "duration": 77, "velocity": 120}, {"time": 144719, "pitch": 70, "duration": 55, "velocity": 81}, {"time": 144839, "pitch": 42, "duration": 49, "velocity": 83}, {"time": 144960, "pitch": 35, "duration": 170, "velocity": 110}, {"time": 144960, "pitch": 42, "duration": 85, "velocity": 117}, {"time": 144960, "pitch": 70, "duration": 60, "velocity": 122}, {"time": 145201, "pitch": 42, "duration": 47, "velocity": 79}, {"time": 145201, "pitch": 70, "duration": 56, "velocity": 74}, {"time": 145201, "pitch": 85, "duration": 63, "velocity": 122}, {"time": 145321, "pitch": 42, "duration": 61, "velocity": 72}, {"time": 145442, "pitch": 35, "duration": 115, "velocity": 110}, {"time": 145442, "pitch": 42, "duration": 66, "velocity": 120}, {"time": 145442, "pitch": 70, "duration": 73, "velocity": 122}, {"time": 145683, "pitch": 42, "duration": 41, "velocity": 61}, {"time": 145683, "pitch": 54, "duration": 59, "velocity": 82}, {"time": 145683, "pitch": 70, "duration": 48, "velocity": 77}, {"time": 145803, "pitch": 42, "duration": 56, "velocity": 93}, {"time": 145803, "pitch": 70, "duration": 40, "velocity": 76}, {"time": 145923, "pitch": 35, "duration": 87, "velocity": 109}, {"time": 145923, "pitch": 38, "duration": 85, "velocity": 104}, {"time": 145923, "pitch": 42, "duration": 78, "velocity": 111}, {"time": 145923, "pitch": 54, "duration": 138, "velocity": 94}, {"time": 145923, "pitch": 70, "duration": 65, "velocity": 83}, {"time": 146041, "pitch": 70, "duration": 48, "velocity": 85}, {"time": 146159, "pitch": 42, "duration": 45, "velocity": 74}, {"time": 146159, "pitch": 70, "duration": 55, "velocity": 75}, {"time": 146277, "pitch": 42, "duration": 50, "velocity": 65}, {"time": 146396, "pitch": 35, "duration": 199, "velocity": 110}, {"time": 146396, "pitch": 42, "duration": 88, "velocity": 122}, {"time": 146396, "pitch": 57, "duration": 148, "velocity": 73}, {"time": 146396, "pitch": 70, "duration": 77, "velocity": 120}, {"time": 146636, "pitch": 42, "duration": 64, "velocity": 74}, {"time": 146636, "pitch": 70, "duration": 56, "velocity": 81}, {"time": 146757, "pitch": 42, "duration": 53, "velocity": 71}, {"time": 146877, "pitch": 35, "duration": 170, "velocity": 110}, {"time": 146877, "pitch": 42, "duration": 96, "velocity": 112}, {"time": 146877, "pitch": 70, "duration": 60, "velocity": 122}, {"time": 146877, "pitch": 85, "duration": 67, "velocity": 122}, {"time": 147118, "pitch": 42, "duration": 49, "velocity": 76}, {"time": 147118, "pitch": 70, "duration": 56, "velocity": 74}, {"time": 147239, "pitch": 42, "duration": 63, "velocity": 79}, {"time": 147359, "pitch": 35, "duration": 115, "velocity": 110}, {"time": 147359, "pitch": 42, "duration": 70, "velocity": 117}, {"time": 147359, "pitch": 70, "duration": 73, "velocity": 122}, {"time": 147600, "pitch": 42, "duration": 48, "velocity": 60}, {"time": 147600, "pitch": 70, "duration": 48, "velocity": 77}, {"time": 147720, "pitch": 42, "duration": 50, "velocity": 75}, {"time": 147720, "pitch": 70, "duration": 40, "velocity": 76}, {"time": 147841, "pitch": 35, "duration": 88, "velocity": 109}, {"time": 147841, "pitch": 38, "duration": 86, "velocity": 104}, {"time": 147841, "pitch": 42, "duration": 87, "velocity": 117}, {"time": 147841, "pitch": 54, "duration": 113, "velocity": 92}, {"time": 147841, "pitch": 70, "duration": 66, "velocity": 83}, {"time": 147961, "pitch": 70, "duration": 48, "velocity": 85}, {"time": 148082, "pitch": 42, "duration": 49, "velocity": 73}, {"time": 148082, "pitch": 70, "duration": 55, "velocity": 75}, {"time": 148202, "pitch": 42, "duration": 50, "velocity": 66}, {"time": 148322, "pitch": 35, "duration": 200, "velocity": 110}, {"time": 148322, "pitch": 42, "duration": 76, "velocity": 121}, {"time": 148322, "pitch": 70, "duration": 78, "velocity": 120}, {"time": 148563, "pitch": 70, "duration": 56, "velocity": 81}, {"time": 148684, "pitch": 42, "duration": 48, "velocity": 83}, {"time": 148804, "pitch": 35, "duration": 166, "velocity": 110}, {"time": 148804, "pitch": 42, "duration": 84, "velocity": 117}, {"time": 148804, "pitch": 70, "duration": 59, "velocity": 122}, {"time": 149040, "pitch": 42, "duration": 46, "velocity": 79}, {"time": 149040, "pitch": 70, "duration": 55, "velocity": 74}, {"time": 149040, "pitch": 85, "duration": 62, "velocity": 122}, {"time": 149158, "pitch": 42, "duration": 60, "velocity": 72}, {"time": 149276, "pitch": 35, "duration": 116, "velocity": 110}, {"time": 149276, "pitch": 42, "duration": 66, "velocity": 120}, {"time": 149276, "pitch": 70, "duration": 73, "velocity": 122}, {"time": 149517, "pitch": 42, "duration": 41, "velocity": 61}, {"time": 149517, "pitch": 54, "duration": 59, "velocity": 82}, {"time": 149517, "pitch": 70, "duration": 48, "velocity": 77}, {"time": 149638, "pitch": 42, "duration": 56, "velocity": 93}, {"time": 149638, "pitch": 70, "duration": 40, "velocity": 76}, {"time": 149758, "pitch": 35, "duration": 88, "velocity": 109}, {"time": 149758, "pitch": 38, "duration": 86, "velocity": 104}, {"time": 149758, "pitch": 42, "duration": 79, "velocity": 111}, {"time": 149758, "pitch": 54, "duration": 141, "velocity": 94}, {"time": 149758, "pitch": 70, "duration": 66, "velocity": 83}, {"time": 149878, "pitch": 70, "duration": 49, "velocity": 85}, {"time": 149999, "pitch": 42, "duration": 45, "velocity": 74}, {"time": 149999, "pitch": 70, "duration": 55, "velocity": 75}, {"time": 150119, "pitch": 42, "duration": 50, "velocity": 65}, {"time": 150240, "pitch": 35, "duration": 199, "velocity": 110}, {"time": 150240, "pitch": 42, "duration": 88, "velocity": 122}, {"time": 150240, "pitch": 57, "duration": 148, "velocity": 73}, {"time": 150240, "pitch": 70, "duration": 77, "velocity": 120}, {"time": 150481, "pitch": 42, "duration": 63, "velocity": 74}, {"time": 150481, "pitch": 70, "duration": 55, "velocity": 81}, {"time": 150601, "pitch": 42, "duration": 53, "velocity": 71}, {"time": 150722, "pitch": 35, "duration": 169, "velocity": 110}, {"time": 150722, "pitch": 42, "duration": 95, "velocity": 112}, {"time": 150722, "pitch": 70, "duration": 60, "velocity": 122}, {"time": 150722, "pitch": 85, "duration": 67, "velocity": 122}, {"time": 150962, "pitch": 42, "duration": 50, "velocity": 76}, {"time": 150962, "pitch": 70, "duration": 57, "velocity": 74}, {"time": 151083, "pitch": 42, "duration": 63, "velocity": 79}, {"time": 151203, "pitch": 35, "duration": 113, "velocity": 110}, {"time": 151203, "pitch": 42, "duration": 69, "velocity": 117}, {"time": 151203, "pitch": 70, "duration": 72, "velocity": 122}, {"time": 151439, "pitch": 42, "duration": 47, "velocity": 60}, {"time": 151439, "pitch": 70, "duration": 47, "velocity": 77}, {"time": 151557, "pitch": 42, "duration": 49, "velocity": 75}, {"time": 151557, "pitch": 70, "duration": 40, "velocity": 76}, {"time": 151675, "pitch": 35, "duration": 89, "velocity": 109}, {"time": 151675, "pitch": 38, "duration": 87, "velocity": 104}, {"time": 151675, "pitch": 42, "duration": 88, "velocity": 117}, {"time": 151675, "pitch": 54, "duration": 114, "velocity": 92}, {"time": 151675, "pitch": 70, "duration": 66, "velocity": 83}, {"time": 151796, "pitch": 70, "duration": 48, "velocity": 85}, {"time": 151916, "pitch": 42, "duration": 49, "velocity": 73}, {"time": 151916, "pitch": 70, "duration": 55, "velocity": 75}, {"time": 152037, "pitch": 42, "duration": 50, "velocity": 66}, {"time": 152157, "pitch": 35, "duration": 200, "velocity": 110}, {"time": 152157, "pitch": 42, "duration": 75, "velocity": 121}, {"time": 152157, "pitch": 70, "duration": 77, "velocity": 120}, {"time": 152398, "pitch": 70, "duration": 55, "velocity": 81}, {"time": 152518, "pitch": 42, "duration": 49, "velocity": 83}, {"time": 152639, "pitch": 35, "duration": 169, "velocity": 110}, {"time": 152639, "pitch": 42, "duration": 85, "velocity": 117}, {"time": 152639, "pitch": 70, "duration": 60, "velocity": 122}, {"time": 152880, "pitch": 42, "duration": 47, "velocity": 79}, {"time": 152880, "pitch": 70, "duration": 56, "velocity": 74}, {"time": 152880, "pitch": 85, "duration": 63, "velocity": 122}, {"time": 153000, "pitch": 42, "duration": 61, "velocity": 72}, {"time": 153121, "pitch": 35, "duration": 115, "velocity": 110}, {"time": 153121, "pitch": 42, "duration": 66, "velocity": 120}, {"time": 153121, "pitch": 70, "duration": 73, "velocity": 122}, {"time": 153361, "pitch": 42, "duration": 42, "velocity": 61}, {"time": 153361, "pitch": 54, "duration": 60, "velocity": 82}, {"time": 153361, "pitch": 70, "duration": 49, "velocity": 77}, {"time": 153482, "pitch": 42, "duration": 56, "velocity": 93}, {"time": 153482, "pitch": 70, "duration": 40, "velocity": 76}, {"time": 153602, "pitch": 35, "duration": 89, "velocity": 109}, {"time": 153602, "pitch": 38, "duration": 87, "velocity": 104}, {"time": 153602, "pitch": 42, "duration": 80, "velocity": 111}, {"time": 153602, "pitch": 54, "duration": 141, "velocity": 94}, {"time": 153602, "pitch": 70, "duration": 67, "velocity": 83}, {"time": 153723, "pitch": 70, "duration": 48, "velocity": 85}, {"time": 153843, "pitch": 42, "duration": 45, "velocity": 74}, {"time": 153843, "pitch": 70, "duration": 55, "velocity": 75}, {"time": 153964, "pitch": 42, "duration": 50, "velocity": 65}, {"time": 154084, "pitch": 35, "duration": 196, "velocity": 110}, {"time": 154084, "pitch": 42, "duration": 87, "velocity": 122}, {"time": 154084, "pitch": 57, "duration": 146, "velocity": 73}, {"time": 154084, "pitch": 70, "duration": 76, "velocity": 120}, {"time": 154320, "pitch": 42, "duration": 62, "velocity": 74}, {"time": 154320, "pitch": 70, "duration": 54, "velocity": 81}, {"time": 154438, "pitch": 42, "duration": 52, "velocity": 71}, {"time": 154556, "pitch": 35, "duration": 170, "velocity": 110}, {"time": 154556, "pitch": 42, "duration": 95, "velocity": 112}, {"time": 154556, "pitch": 70, "duration": 60, "velocity": 122}, {"time": 154556, "pitch": 85, "duration": 67, "velocity": 122}, {"time": 154797, "pitch": 42, "duration": 49, "velocity": 76}, {"time": 154797, "pitch": 70, "duration": 56, "velocity": 74}, {"time": 154917, "pitch": 42, "duration": 64, "velocity": 79}, {"time": 155038, "pitch": 35, "duration": 115, "velocity": 110}, {"time": 155038, "pitch": 42, "duration": 70, "velocity": 117}, {"time": 155038, "pitch": 70, "duration": 73, "velocity": 122}, {"time": 155279, "pitch": 42, "duration": 48, "velocity": 60}, {"time": 155279, "pitch": 70, "duration": 48, "velocity": 77}, {"time": 155399, "pitch": 42, "duration": 50, "velocity": 75}, {"time": 155399, "pitch": 70, "duration": 40, "velocity": 76}, {"time": 155520, "pitch": 35, "duration": 88, "velocity": 109}, {"time": 155520, "pitch": 38, "duration": 86, "velocity": 104}, {"time": 155520, "pitch": 42, "duration": 87, "velocity": 117}, {"time": 155520, "pitch": 54, "duration": 113, "velocity": 92}, {"time": 155520, "pitch": 70, "duration": 66, "velocity": 83}, {"time": 155640, "pitch": 70, "duration": 48, "velocity": 85}, {"time": 155760, "pitch": 42, "duration": 50, "velocity": 73}, {"time": 155760, "pitch": 70, "duration": 56, "velocity": 75}, {"time": 155881, "pitch": 42, "duration": 50, "velocity": 66}, {"time": 156001, "pitch": 35, "duration": 102, "velocity": 109}, {"time": 156001, "pitch": 42, "duration": 76, "velocity": 121}, {"time": 156001, "pitch": 57, "duration": 171, "velocity": 93}, {"time": 156001, "pitch": 70, "duration": 78, "velocity": 120}, {"time": 156242, "pitch": 35, "duration": 141, "velocity": 107}, {"time": 156242, "pitch": 42, "duration": 58, "velocity": 61}, {"time": 156242, "pitch": 70, "duration": 55, "velocity": 81}, {"time": 156363, "pitch": 42, "duration": 44, "velocity": 67}, {"time": 156483, "pitch": 35, "duration": 85, "velocity": 109}, {"time": 156483, "pitch": 38, "duration": 98, "velocity": 103}, {"time": 156483, "pitch": 42, "duration": 85, "velocity": 121}, {"time": 156483, "pitch": 54, "duration": 77, "velocity": 94}, {"time": 156483, "pitch": 70, "duration": 60, "velocity": 122}, {"time": 156724, "pitch": 42, "duration": 47, "velocity": 70}, {"time": 156724, "pitch": 48, "duration": 133, "velocity": 106}, {"time": 156724, "pitch": 70, "duration": 56, "velocity": 74}, {"time": 156844, "pitch": 42, "duration": 62, "velocity": 74}, {"time": 156965, "pitch": 35, "duration": 105, "velocity": 109}, {"time": 156965, "pitch": 42, "duration": 75, "velocity": 121}, {"time": 156965, "pitch": 70, "duration": 72, "velocity": 122}, {"time": 157201, "pitch": 42, "duration": 42, "velocity": 64}, {"time": 157201, "pitch": 45, "duration": 92, "velocity": 107}, {"time": 157201, "pitch": 70, "duration": 47, "velocity": 77}, {"time": 157319, "pitch": 42, "duration": 46, "velocity": 71}, {"time": 157319, "pitch": 70, "duration": 39, "velocity": 76}, {"time": 157437, "pitch": 38, "duration": 88, "velocity": 102}, {"time": 157437, "pitch": 42, "duration": 88, "velocity": 114}, {"time": 157437, "pitch": 54, "duration": 74, "velocity": 94}, {"time": 157437, "pitch": 70, "duration": 66, "velocity": 83}, {"time": 157557, "pitch": 38, "duration": 89, "velocity": 91}, {"time": 157557, "pitch": 42, "duration": 43, "velocity": 64}, {"time": 157557, "pitch": 70, "duration": 48, "velocity": 85}, {"time": 157678, "pitch": 35, "duration": 112, "velocity": 91}, {"time": 157678, "pitch": 41, "duration": 87, "velocity": 104}, {"time": 157678, "pitch": 46, "duration": 64, "velocity": 72}, {"time": 157678, "pitch": 70, "duration": 55, "velocity": 75}, {"time": 157798, "pitch": 38, "duration": 89, "velocity": 91}, {"time": 157798, "pitch": 42, "duration": 50, "velocity": 65}, {"time": 157919, "pitch": 35, "duration": 199, "velocity": 110}, {"time": 157919, "pitch": 42, "duration": 88, "velocity": 122}, {"time": 157919, "pitch": 57, "duration": 148, "velocity": 73}, {"time": 157919, "pitch": 70, "duration": 77, "velocity": 120}, {"time": 158160, "pitch": 42, "duration": 63, "velocity": 74}, {"time": 158160, "pitch": 70, "duration": 55, "velocity": 81}, {"time": 158280, "pitch": 42, "duration": 53, "velocity": 71}, {"time": 158400, "pitch": 35, "duration": 170, "velocity": 110}, {"time": 158400, "pitch": 38, "duration": 112, "velocity": 105}, {"time": 158400, "pitch": 42, "duration": 96, "velocity": 112}, {"time": 158400, "pitch": 54, "duration": 109, "velocity": 93}, {"time": 158400, "pitch": 70, "duration": 61, "velocity": 122}, {"time": 158641, "pitch": 42, "duration": 49, "velocity": 76}, {"time": 158641, "pitch": 70, "duration": 56, "velocity": 74}, {"time": 158762, "pitch": 42, "duration": 63, "velocity": 79}, {"time": 158882, "pitch": 35, "duration": 116, "velocity": 110}, {"time": 158882, "pitch": 42, "duration": 70, "velocity": 117}, {"time": 158882, "pitch": 70, "duration": 73, "velocity": 122}, {"time": 159123, "pitch": 42, "duration": 48, "velocity": 60}, {"time": 159123, "pitch": 70, "duration": 48, "velocity": 77}, {"time": 159243, "pitch": 42, "duration": 51, "velocity": 75}, {"time": 159243, "pitch": 70, "duration": 41, "velocity": 76}, {"time": 159364, "pitch": 35, "duration": 86, "velocity": 109}, {"time": 159364, "pitch": 38, "duration": 84, "velocity": 104}, {"time": 159364, "pitch": 42, "duration": 85, "velocity": 117}, {"time": 159364, "pitch": 54, "duration": 111, "velocity": 92}, {"time": 159364, "pitch": 70, "duration": 65, "velocity": 83}, {"time": 159482, "pitch": 70, "duration": 47, "velocity": 85}, {"time": 159600, "pitch": 42, "duration": 48, "velocity": 73}, {"time": 159600, "pitch": 70, "duration": 54, "velocity": 75}, {"time": 159718, "pitch": 42, "duration": 49, "velocity": 66}, {"time": 159836, "pitch": 35, "duration": 100, "velocity": 109}, {"time": 159836, "pitch": 42, "duration": 75, "velocity": 121}, {"time": 159836, "pitch": 70, "duration": 77, "velocity": 120}, {"time": 160077, "pitch": 42, "duration": 47, "velocity": 67}, {"time": 160077, "pitch": 70, "duration": 55, "velocity": 81}, {"time": 160077, "pitch": 85, "duration": 67, "velocity": 122}, {"time": 160197, "pitch": 42, "duration": 48, "velocity": 83}, {"time": 160318, "pitch": 35, "duration": 95, "velocity": 109}, {"time": 160318, "pitch": 38, "duration": 104, "velocity": 104}, {"time": 160318, "pitch": 42, "duration": 85, "velocity": 117}, {"time": 160318, "pitch": 54, "duration": 132, "velocity": 93}, {"time": 160318, "pitch": 70, "duration": 60, "velocity": 122}, {"time": 160559, "pitch": 42, "duration": 47, "velocity": 79}, {"time": 160559, "pitch": 70, "duration": 56, "velocity": 74}, {"time": 160559, "pitch": 85, "duration": 63, "velocity": 122}, {"time": 160679, "pitch": 42, "duration": 61, "velocity": 72}, {"time": 160799, "pitch": 35, "duration": 94, "velocity": 109}, {"time": 160799, "pitch": 42, "duration": 67, "velocity": 120}, {"time": 160799, "pitch": 70, "duration": 74, "velocity": 122}, {"time": 161040, "pitch": 42, "duration": 41, "velocity": 61}, {"time": 161040, "pitch": 54, "duration": 60, "velocity": 82}, {"time": 161040, "pitch": 70, "duration": 48, "velocity": 77}, {"time": 161161, "pitch": 42, "duration": 56, "velocity": 93}, {"time": 161161, "pitch": 70, "duration": 40, "velocity": 76}, {"time": 161281, "pitch": 35, "duration": 89, "velocity": 110}, {"time": 161281, "pitch": 38, "duration": 114, "velocity": 103}, {"time": 161281, "pitch": 42, "duration": 79, "velocity": 111}, {"time": 161281, "pitch": 54, "duration": 141, "velocity": 94}, {"time": 161281, "pitch": 70, "duration": 66, "velocity": 83}, {"time": 161402, "pitch": 70, "duration": 48, "velocity": 85}, {"time": 161522, "pitch": 42, "duration": 45, "velocity": 74}, {"time": 161522, "pitch": 70, "duration": 55, "velocity": 75}, {"time": 161643, "pitch": 42, "duration": 50, "velocity": 65}, {"time": 161763, "pitch": 35, "duration": 102, "velocity": 109}, {"time": 161763, "pitch": 42, "duration": 66, "velocity": 114}, {"time": 161763, "pitch": 70, "duration": 77, "velocity": 120}, {"time": 162004, "pitch": 42, "duration": 51, "velocity": 79}, {"time": 162004, "pitch": 70, "duration": 55, "velocity": 81}, {"time": 162124, "pitch": 42, "duration": 44, "velocity": 75}, {"time": 162245, "pitch": 35, "duration": 101, "velocity": 107}, {"time": 162245, "pitch": 38, "duration": 110, "velocity": 104}, {"time": 162245, "pitch": 42, "duration": 86, "velocity": 117}, {"time": 162245, "pitch": 54, "duration": 107, "velocity": 92}, {"time": 162245, "pitch": 70, "duration": 59, "velocity": 122}, {"time": 162481, "pitch": 42, "duration": 53, "velocity": 90}, {"time": 162481, "pitch": 70, "duration": 55, "velocity": 74}, {"time": 162599, "pitch": 42, "duration": 52, "velocity": 77}, {"time": 162717, "pitch": 35, "duration": 97, "velocity": 109}, {"time": 162717, "pitch": 42, "duration": 68, "velocity": 117}, {"time": 162717, "pitch": 70, "duration": 73, "velocity": 122}, {"time": 162958, "pitch": 42, "duration": 47, "velocity": 60}, {"time": 162958, "pitch": 70, "duration": 48, "velocity": 77}, {"time": 163078, "pitch": 42, "duration": 45, "velocity": 74}, {"time": 163078, "pitch": 70, "duration": 40, "velocity": 76}, {"time": 163198, "pitch": 35, "duration": 97, "velocity": 111}, {"time": 163198, "pitch": 38, "duration": 96, "velocity": 103}, {"time": 163198, "pitch": 42, "duration": 86, "velocity": 114}, {"time": 163198, "pitch": 54, "duration": 97, "velocity": 93}, {"time": 163198, "pitch": 70, "duration": 67, "velocity": 83}, {"time": 163319, "pitch": 70, "duration": 48, "velocity": 85}, {"time": 163439, "pitch": 42, "duration": 56, "velocity": 86}, {"time": 163439, "pitch": 70, "duration": 56, "velocity": 75}, {"time": 163560, "pitch": 42, "duration": 55, "velocity": 73}, {"time": 163680, "pitch": 35, "duration": 102, "velocity": 109}, {"time": 163680, "pitch": 42, "duration": 76, "velocity": 121}, {"time": 163680, "pitch": 70, "duration": 78, "velocity": 120}, {"time": 163921, "pitch": 42, "duration": 58, "velocity": 61}, {"time": 163921, "pitch": 70, "duration": 55, "velocity": 81}, {"time": 164042, "pitch": 42, "duration": 44, "velocity": 67}, {"time": 164162, "pitch": 35, "duration": 85, "velocity": 109}, {"time": 164162, "pitch": 38, "duration": 98, "velocity": 103}, {"time": 164162, "pitch": 42, "duration": 85, "velocity": 121}, {"time": 164162, "pitch": 54, "duration": 98, "velocity": 93}, {"time": 164162, "pitch": 70, "duration": 60, "velocity": 122}, {"time": 164403, "pitch": 42, "duration": 47, "velocity": 70}, {"time": 164403, "pitch": 70, "duration": 56, "velocity": 74}, {"time": 164523, "pitch": 42, "duration": 62, "velocity": 74}, {"time": 164644, "pitch": 35, "duration": 105, "velocity": 109}, {"time": 164644, "pitch": 42, "duration": 74, "velocity": 121}, {"time": 164644, "pitch": 70, "duration": 71, "velocity": 122}, {"time": 164880, "pitch": 42, "duration": 42, "velocity": 64}, {"time": 164880, "pitch": 70, "duration": 47, "velocity": 77}, {"time": 164998, "pitch": 42, "duration": 46, "velocity": 71}, {"time": 164998, "pitch": 70, "duration": 39, "velocity": 76}, {"time": 165116, "pitch": 35, "duration": 88, "velocity": 108}, {"time": 165116, "pitch": 38, "duration": 84, "velocity": 103}, {"time": 165116, "pitch": 42, "duration": 88, "velocity": 114}, {"time": 165116, "pitch": 54, "duration": 91, "velocity": 94}, {"time": 165116, "pitch": 70, "duration": 66, "velocity": 83}, {"time": 165236, "pitch": 42, "duration": 43, "velocity": 64}, {"time": 165236, "pitch": 70, "duration": 48, "velocity": 85}, {"time": 165357, "pitch": 46, "duration": 64, "velocity": 72}, {"time": 165357, "pitch": 70, "duration": 55, "velocity": 75}, {"time": 165597, "pitch": 35, "duration": 200, "velocity": 110}, {"time": 165597, "pitch": 42, "duration": 89, "velocity": 122}, {"time": 165597, "pitch": 70, "duration": 78, "velocity": 120}, {"time": 165838, "pitch": 42, "duration": 64, "velocity": 74}, {"time": 165838, "pitch": 70, "duration": 56, "velocity": 81}, {"time": 165959, "pitch": 42, "duration": 53, "velocity": 71}, {"time": 166079, "pitch": 35, "duration": 170, "velocity": 110}, {"time": 166079, "pitch": 38, "duration": 112, "velocity": 105}, {"time": 166079, "pitch": 42, "duration": 96, "velocity": 112}, {"time": 166079, "pitch": 54, "duration": 86, "velocity": 93}, {"time": 166079, "pitch": 70, "duration": 60, "velocity": 122}, {"time": 166320, "pitch": 42, "duration": 49, "velocity": 76}, {"time": 166320, "pitch": 70, "duration": 56, "velocity": 74}, {"time": 166441, "pitch": 42, "duration": 63, "velocity": 79}, {"time": 166561, "pitch": 35, "duration": 115, "velocity": 110}, {"time": 166561, "pitch": 42, "duration": 70, "velocity": 117}, {"time": 166561, "pitch": 70, "duration": 73, "velocity": 122}, {"time": 166802, "pitch": 42, "duration": 48, "velocity": 60}, {"time": 166802, "pitch": 70, "duration": 48, "velocity": 77}, {"time": 166922, "pitch": 42, "duration": 51, "velocity": 75}, {"time": 166922, "pitch": 70, "duration": 41, "velocity": 76}, {"time": 167043, "pitch": 35, "duration": 88, "velocity": 109}, {"time": 167043, "pitch": 38, "duration": 86, "velocity": 104}, {"time": 167043, "pitch": 42, "duration": 87, "velocity": 117}, {"time": 167043, "pitch": 54, "duration": 82, "velocity": 93}, {"time": 167043, "pitch": 70, "duration": 66, "velocity": 83}, {"time": 167163, "pitch": 70, "duration": 48, "velocity": 85}, {"time": 167284, "pitch": 42, "duration": 49, "velocity": 73}, {"time": 167284, "pitch": 70, "duration": 55, "velocity": 75}, {"time": 167404, "pitch": 42, "duration": 50, "velocity": 66}, {"time": 167524, "pitch": 35, "duration": 99, "velocity": 109}, {"time": 167524, "pitch": 42, "duration": 74, "velocity": 121}, {"time": 167524, "pitch": 70, "duration": 76, "velocity": 120}, {"time": 167761, "pitch": 42, "duration": 46, "velocity": 67}, {"time": 167761, "pitch": 70, "duration": 54, "velocity": 81}, {"time": 167761, "pitch": 85, "duration": 70, "velocity": 121}, {"time": 167879, "pitch": 42, "duration": 47, "velocity": 83}, {"time": 167997, "pitch": 35, "duration": 95, "velocity": 109}, {"time": 167997, "pitch": 38, "duration": 104, "velocity": 104}, {"time": 167997, "pitch": 42, "duration": 85, "velocity": 117}, {"time": 167997, "pitch": 54, "duration": 86, "velocity": 93}, {"time": 167997, "pitch": 70, "duration": 60, "velocity": 122}, {"time": 168237, "pitch": 42, "duration": 48, "velocity": 79}, {"time": 168237, "pitch": 70, "duration": 57, "velocity": 74}, {"time": 168237, "pitch": 85, "duration": 71, "velocity": 122}, {"time": 168358, "pitch": 42, "duration": 61, "velocity": 72}, {"time": 168478, "pitch": 35, "duration": 94, "velocity": 109}, {"time": 168478, "pitch": 42, "duration": 67, "velocity": 120}, {"time": 168478, "pitch": 70, "duration": 74, "velocity": 122}, {"time": 168719, "pitch": 42, "duration": 41, "velocity": 61}, {"time": 168719, "pitch": 54, "duration": 55, "velocity": 81}, {"time": 168719, "pitch": 70, "duration": 48, "velocity": 77}, {"time": 168840, "pitch": 42, "duration": 56, "velocity": 93}, {"time": 168840, "pitch": 70, "duration": 40, "velocity": 76}, {"time": 168960, "pitch": 35, "duration": 88, "velocity": 110}, {"time": 168960, "pitch": 38, "duration": 113, "velocity": 103}, {"time": 168960, "pitch": 42, "duration": 79, "velocity": 111}, {"time": 168960, "pitch": 54, "duration": 112, "velocity": 94}, {"time": 168960, "pitch": 70, "duration": 66, "velocity": 83}, {"time": 169081, "pitch": 70, "duration": 48, "velocity": 85}, {"time": 169201, "pitch": 42, "duration": 45, "velocity": 74}, {"time": 169201, "pitch": 70, "duration": 55, "velocity": 75}, {"time": 169321, "pitch": 42, "duration": 51, "velocity": 65}, {"time": 169442, "pitch": 35, "duration": 102, "velocity": 109}, {"time": 169442, "pitch": 42, "duration": 66, "velocity": 114}, {"time": 169442, "pitch": 70, "duration": 77, "velocity": 120}, {"time": 169683, "pitch": 42, "duration": 51, "velocity": 79}, {"time": 169683, "pitch": 70, "duration": 55, "velocity": 81}, {"time": 169803, "pitch": 42, "duration": 44, "velocity": 75}, {"time": 169924, "pitch": 35, "duration": 101, "velocity": 107}, {"time": 169924, "pitch": 38, "duration": 110, "velocity": 104}, {"time": 169924, "pitch": 42, "duration": 86, "velocity": 117}, {"time": 169924, "pitch": 54, "duration": 86, "velocity": 93}, {"time": 169924, "pitch": 70, "duration": 59, "velocity": 122}, {"time": 170160, "pitch": 42, "duration": 53, "velocity": 90}, {"time": 170160, "pitch": 70, "duration": 55, "velocity": 74}, {"time": 170278, "pitch": 42, "duration": 52, "velocity": 77}, {"time": 170396, "pitch": 35, "duration": 97, "velocity": 109}, {"time": 170396, "pitch": 42, "duration": 68, "velocity": 117}, {"time": 170396, "pitch": 70, "duration": 73, "velocity": 122}, {"time": 170636, "pitch": 42, "duration": 48, "velocity": 60}, {"time": 170636, "pitch": 70, "duration": 49, "velocity": 77}, {"time": 170757, "pitch": 42, "duration": 45, "velocity": 74}, {"time": 170757, "pitch": 70, "duration": 40, "velocity": 76}, {"time": 170877, "pitch": 35, "duration": 97, "velocity": 111}, {"time": 170877, "pitch": 38, "duration": 96, "velocity": 103}, {"time": 170877, "pitch": 42, "duration": 86, "velocity": 114}, {"time": 170877, "pitch": 54, "duration": 85, "velocity": 93}, {"time": 170877, "pitch": 70, "duration": 67, "velocity": 83}, {"time": 170998, "pitch": 70, "duration": 48, "velocity": 85}, {"time": 171118, "pitch": 42, "duration": 55, "velocity": 86}, {"time": 171118, "pitch": 70, "duration": 55, "velocity": 75}, {"time": 171239, "pitch": 42, "duration": 55, "velocity": 73}, {"time": 171359, "pitch": 35, "duration": 101, "velocity": 109}, {"time": 171359, "pitch": 42, "duration": 75, "velocity": 121}, {"time": 171359, "pitch": 57, "duration": 171, "velocity": 93}, {"time": 171359, "pitch": 70, "duration": 77, "velocity": 120}, {"time": 171600, "pitch": 35, "duration": 140, "velocity": 107}, {"time": 171600, "pitch": 42, "duration": 58, "velocity": 61}, {"time": 171600, "pitch": 70, "duration": 55, "velocity": 81}, {"time": 171720, "pitch": 42, "duration": 45, "velocity": 67}, {"time": 171841, "pitch": 35, "duration": 85, "velocity": 109}, {"time": 171841, "pitch": 38, "duration": 98, "velocity": 103}, {"time": 171841, "pitch": 42, "duration": 85, "velocity": 121}, {"time": 171841, "pitch": 54, "duration": 77, "velocity": 94}, {"time": 171841, "pitch": 70, "duration": 60, "velocity": 122}, {"time": 172082, "pitch": 42, "duration": 47, "velocity": 70}, {"time": 172082, "pitch": 48, "duration": 133, "velocity": 106}, {"time": 172082, "pitch": 70, "duration": 56, "velocity": 74}, {"time": 172202, "pitch": 42, "duration": 61, "velocity": 74}, {"time": 172323, "pitch": 35, "duration": 107, "velocity": 109}, {"time": 172323, "pitch": 42, "duration": 76, "velocity": 121}, {"time": 172323, "pitch": 70, "duration": 73, "velocity": 122}, {"time": 172564, "pitch": 42, "duration": 43, "velocity": 64}, {"time": 172564, "pitch": 45, "duration": 94, "velocity": 107}, {"time": 172564, "pitch": 70, "duration": 48, "velocity": 77}, {"time": 172684, "pitch": 42, "duration": 47, "velocity": 71}, {"time": 172684, "pitch": 70, "duration": 40, "velocity": 76}, {"time": 172804, "pitch": 35, "duration": 87, "velocity": 108}, {"time": 172804, "pitch": 38, "duration": 83, "velocity": 103}, {"time": 172804, "pitch": 42, "duration": 87, "velocity": 114}, {"time": 172804, "pitch": 54, "duration": 73, "velocity": 94}, {"time": 172804, "pitch": 70, "duration": 65, "velocity": 83}, {"time": 172922, "pitch": 42, "duration": 43, "velocity": 64}, {"time": 172922, "pitch": 70, "duration": 48, "velocity": 85}, {"time": 173040, "pitch": 35, "duration": 111, "velocity": 91}, {"time": 173040, "pitch": 41, "duration": 86, "velocity": 104}, {"time": 173040, "pitch": 46, "duration": 63, "velocity": 72}, {"time": 173040, "pitch": 70, "duration": 54, "velocity": 75}, {"time": 173276, "pitch": 35, "duration": 200, "velocity": 110}, {"time": 173276, "pitch": 42, "duration": 89, "velocity": 122}, {"time": 173276, "pitch": 57, "duration": 149, "velocity": 73}, {"time": 173276, "pitch": 70, "duration": 78, "velocity": 120}, {"time": 173517, "pitch": 42, "duration": 63, "velocity": 74}, {"time": 173517, "pitch": 70, "duration": 55, "velocity": 81}, {"time": 173638, "pitch": 42, "duration": 53, "velocity": 71}, {"time": 173758, "pitch": 35, "duration": 170, "velocity": 110}, {"time": 173758, "pitch": 38, "duration": 112, "velocity": 105}, {"time": 173758, "pitch": 42, "duration": 95, "velocity": 112}, {"time": 173758, "pitch": 54, "duration": 109, "velocity": 93}, {"time": 173758, "pitch": 70, "duration": 60, "velocity": 122}, {"time": 173999, "pitch": 42, "duration": 49, "velocity": 76}, {"time": 173999, "pitch": 70, "duration": 56, "velocity": 74}, {"time": 174119, "pitch": 42, "duration": 64, "velocity": 79}, {"time": 174240, "pitch": 35, "duration": 115, "velocity": 110}, {"time": 174240, "pitch": 42, "duration": 70, "velocity": 117}, {"time": 174240, "pitch": 70, "duration": 73, "velocity": 122}, {"time": 174481, "pitch": 42, "duration": 48, "velocity": 60}, {"time": 174481, "pitch": 70, "duration": 48, "velocity": 77}, {"time": 174601, "pitch": 42, "duration": 50, "velocity": 75}, {"time": 174601, "pitch": 70, "duration": 40, "velocity": 76}, {"time": 174722, "pitch": 35, "duration": 88, "velocity": 109}, {"time": 174722, "pitch": 38, "duration": 86, "velocity": 104}, {"time": 174722, "pitch": 42, "duration": 87, "velocity": 117}, {"time": 174722, "pitch": 54, "duration": 113, "velocity": 92}, {"time": 174722, "pitch": 70, "duration": 66, "velocity": 83}, {"time": 174842, "pitch": 70, "duration": 48, "velocity": 85}, {"time": 174963, "pitch": 42, "duration": 49, "velocity": 73}, {"time": 174963, "pitch": 70, "duration": 55, "velocity": 75}, {"time": 175083, "pitch": 42, "duration": 50, "velocity": 66}, {"time": 175203, "pitch": 35, "duration": 99, "velocity": 109}, {"time": 175203, "pitch": 42, "duration": 74, "velocity": 121}, {"time": 175203, "pitch": 70, "duration": 76, "velocity": 120}, {"time": 175439, "pitch": 42, "duration": 47, "velocity": 67}, {"time": 175439, "pitch": 70, "duration": 55, "velocity": 81}, {"time": 175439, "pitch": 85, "duration": 66, "velocity": 122}, {"time": 175557, "pitch": 42, "duration": 48, "velocity": 83}, {"time": 175675, "pitch": 35, "duration": 96, "velocity": 109}, {"time": 175675, "pitch": 38, "duration": 105, "velocity": 104}, {"time": 175675, "pitch": 42, "duration": 86, "velocity": 117}, {"time": 175675, "pitch": 54, "duration": 133, "velocity": 93}, {"time": 175675, "pitch": 70, "duration": 61, "velocity": 122}, {"time": 175916, "pitch": 42, "duration": 47, "velocity": 79}, {"time": 175916, "pitch": 70, "duration": 56, "velocity": 74}, {"time": 175916, "pitch": 85, "duration": 64, "velocity": 122}, {"time": 176037, "pitch": 42, "duration": 61, "velocity": 72}, {"time": 176157, "pitch": 35, "duration": 94, "velocity": 109}, {"time": 176157, "pitch": 42, "duration": 66, "velocity": 120}, {"time": 176157, "pitch": 70, "duration": 73, "velocity": 122}, {"time": 176398, "pitch": 42, "duration": 41, "velocity": 61}, {"time": 176398, "pitch": 54, "duration": 59, "velocity": 82}, {"time": 176398, "pitch": 70, "duration": 48, "velocity": 77}, {"time": 176518, "pitch": 42, "duration": 57, "velocity": 93}, {"time": 176518, "pitch": 70, "duration": 41, "velocity": 76}, {"time": 176639, "pitch": 35, "duration": 88, "velocity": 110}, {"time": 176639, "pitch": 38, "duration": 113, "velocity": 103}, {"time": 176639, "pitch": 42, "duration": 79, "velocity": 111}, {"time": 176639, "pitch": 54, "duration": 140, "velocity": 94}, {"time": 176639, "pitch": 70, "duration": 66, "velocity": 83}, {"time": 176759, "pitch": 70, "duration": 49, "velocity": 85}, {"time": 176880, "pitch": 42, "duration": 45, "velocity": 74}, {"time": 176880, "pitch": 70, "duration": 55, "velocity": 75}, {"time": 177000, "pitch": 42, "duration": 50, "velocity": 65}, {"time": 177121, "pitch": 35, "duration": 102, "velocity": 109}, {"time": 177121, "pitch": 42, "duration": 66, "velocity": 114}, {"time": 177121, "pitch": 70, "duration": 77, "velocity": 120}, {"time": 177362, "pitch": 42, "duration": 51, "velocity": 79}, {"time": 177362, "pitch": 70, "duration": 55, "velocity": 81}, {"time": 177482, "pitch": 42, "duration": 44, "velocity": 75}, {"time": 177602, "pitch": 35, "duration": 104, "velocity": 107}, {"time": 177602, "pitch": 38, "duration": 113, "velocity": 104}, {"time": 177602, "pitch": 42, "duration": 89, "velocity": 117}, {"time": 177602, "pitch": 54, "duration": 110, "velocity": 92}, {"time": 177602, "pitch": 70, "duration": 61, "velocity": 122}, {"time": 177843, "pitch": 42, "duration": 55, "velocity": 90}, {"time": 177843, "pitch": 70, "duration": 57, "velocity": 74}, {"time": 177964, "pitch": 42, "duration": 53, "velocity": 77}, {"time": 178084, "pitch": 35, "duration": 96, "velocity": 109}, {"time": 178084, "pitch": 42, "duration": 67, "velocity": 117}, {"time": 178084, "pitch": 70, "duration": 72, "velocity": 122}, {"time": 178320, "pitch": 42, "duration": 46, "velocity": 60}, {"time": 178320, "pitch": 70, "duration": 47, "velocity": 77}, {"time": 178438, "pitch": 42, "duration": 45, "velocity": 74}, {"time": 178438, "pitch": 70, "duration": 40, "velocity": 76}, {"time": 178556, "pitch": 35, "duration": 97, "velocity": 111}, {"time": 178556, "pitch": 38, "duration": 96, "velocity": 103}, {"time": 178556, "pitch": 42, "duration": 86, "velocity": 114}, {"time": 178556, "pitch": 54, "duration": 97, "velocity": 93}, {"time": 178556, "pitch": 70, "duration": 66, "velocity": 83}, {"time": 178677, "pitch": 70, "duration": 48, "velocity": 85}, {"time": 178797, "pitch": 42, "duration": 55, "velocity": 86}, {"time": 178797, "pitch": 70, "duration": 55, "velocity": 75}, {"time": 178918, "pitch": 42, "duration": 55, "velocity": 73}, {"time": 179038, "pitch": 35, "duration": 101, "velocity": 109}, {"time": 179038, "pitch": 42, "duration": 75, "velocity": 121}, {"time": 179038, "pitch": 70, "duration": 77, "velocity": 120}, {"time": 179279, "pitch": 42, "duration": 58, "velocity": 61}, {"time": 179279, "pitch": 70, "duration": 55, "velocity": 81}, {"time": 179399, "pitch": 42, "duration": 44, "velocity": 67}, {"time": 179520, "pitch": 35, "duration": 85, "velocity": 109}, {"time": 179520, "pitch": 38, "duration": 98, "velocity": 103}, {"time": 179520, "pitch": 42, "duration": 85, "velocity": 121}, {"time": 179520, "pitch": 54, "duration": 98, "velocity": 93}, {"time": 179520, "pitch": 70, "duration": 60, "velocity": 122}, {"time": 179761, "pitch": 42, "duration": 47, "velocity": 70}, {"time": 179761, "pitch": 70, "duration": 56, "velocity": 74}, {"time": 179881, "pitch": 42, "duration": 61, "velocity": 74}, {"time": 180002, "pitch": 35, "duration": 107, "velocity": 109}, {"time": 180002, "pitch": 42, "duration": 76, "velocity": 121}, {"time": 180002, "pitch": 70, "duration": 73, "velocity": 122}, {"time": 180242, "pitch": 42, "duration": 44, "velocity": 64}, {"time": 180242, "pitch": 70, "duration": 49, "velocity": 77}, {"time": 180363, "pitch": 42, "duration": 47, "velocity": 71}, {"time": 180363, "pitch": 70, "duration": 40, "velocity": 76}, {"time": 180483, "pitch": 35, "duration": 87, "velocity": 108}, {"time": 180483, "pitch": 38, "duration": 83, "velocity": 103}, {"time": 180483, "pitch": 42, "duration": 87, "velocity": 114}, {"time": 180483, "pitch": 54, "duration": 90, "velocity": 94}, {"time": 180483, "pitch": 70, "duration": 65, "velocity": 83}, {"time": 180601, "pitch": 42, "duration": 43, "velocity": 64}, {"time": 180601, "pitch": 70, "duration": 47, "velocity": 85}, {"time": 180719, "pitch": 46, "duration": 63, "velocity": 72}, {"time": 180719, "pitch": 70, "duration": 54, "velocity": 75}, {"time": 180955, "pitch": 35, "duration": 200, "velocity": 110}, {"time": 180955, "pitch": 42, "duration": 89, "velocity": 122}, {"time": 180955, "pitch": 70, "duration": 78, "velocity": 120}, {"time": 181196, "pitch": 42, "duration": 63, "velocity": 74}, {"time": 181196, "pitch": 70, "duration": 55, "velocity": 81}, {"time": 181317, "pitch": 42, "duration": 53, "velocity": 71}, {"time": 181437, "pitch": 35, "duration": 170, "velocity": 110}, {"time": 181437, "pitch": 38, "duration": 111, "velocity": 105}, {"time": 181437, "pitch": 42, "duration": 95, "velocity": 112}, {"time": 181437, "pitch": 54, "duration": 85, "velocity": 93}, {"time": 181437, "pitch": 70, "duration": 60, "velocity": 122}, {"time": 181678, "pitch": 42, "duration": 49, "velocity": 76}, {"time": 181678, "pitch": 70, "duration": 56, "velocity": 74}, {"time": 181798, "pitch": 42, "duration": 64, "velocity": 79}, {"time": 181919, "pitch": 35, "duration": 115, "velocity": 110}, {"time": 181919, "pitch": 42, "duration": 70, "velocity": 117}, {"time": 181919, "pitch": 70, "duration": 73, "velocity": 122}, {"time": 182160, "pitch": 42, "duration": 48, "velocity": 60}, {"time": 182160, "pitch": 70, "duration": 48, "velocity": 77}, {"time": 182280, "pitch": 42, "duration": 50, "velocity": 75}, {"time": 182280, "pitch": 70, "duration": 40, "velocity": 76}, {"time": 182401, "pitch": 35, "duration": 88, "velocity": 109}, {"time": 182401, "pitch": 38, "duration": 86, "velocity": 104}, {"time": 182401, "pitch": 42, "duration": 87, "velocity": 117}, {"time": 182401, "pitch": 54, "duration": 82, "velocity": 93}, {"time": 182401, "pitch": 70, "duration": 66, "velocity": 83}, {"time": 182521, "pitch": 70, "duration": 48, "velocity": 85}, {"time": 182641, "pitch": 42, "duration": 50, "velocity": 73}, {"time": 182641, "pitch": 70, "duration": 56, "velocity": 75}, {"time": 182762, "pitch": 42, "duration": 50, "velocity": 66}, {"time": 182882, "pitch": 35, "duration": 101, "velocity": 109}, {"time": 182882, "pitch": 42, "duration": 76, "velocity": 121}, {"time": 182882, "pitch": 70, "duration": 78, "velocity": 120}, {"time": 183123, "pitch": 42, "duration": 47, "velocity": 67}, {"time": 183123, "pitch": 70, "duration": 55, "velocity": 81}, {"time": 183123, "pitch": 85, "duration": 72, "velocity": 121}, {"time": 183244, "pitch": 42, "duration": 48, "velocity": 83}, {"time": 183364, "pitch": 35, "duration": 93, "velocity": 109}, {"time": 183364, "pitch": 38, "duration": 102, "velocity": 104}, {"time": 183364, "pitch": 42, "duration": 84, "velocity": 117}, {"time": 183364, "pitch": 54, "duration": 85, "velocity": 93}, {"time": 183364, "pitch": 70, "duration": 59, "velocity": 122}, {"time": 183600, "pitch": 42, "duration": 46, "velocity": 79}, {"time": 183600, "pitch": 70, "duration": 55, "velocity": 74}, {"time": 183600, "pitch": 85, "duration": 69, "velocity": 122}, {"time": 183718, "pitch": 42, "duration": 60, "velocity": 72}, {"time": 183836, "pitch": 35, "duration": 93, "velocity": 109}, {"time": 183836, "pitch": 42, "duration": 66, "velocity": 120}, {"time": 183836, "pitch": 70, "duration": 73, "velocity": 122}, {"time": 184077, "pitch": 42, "duration": 41, "velocity": 61}, {"time": 184077, "pitch": 54, "duration": 55, "velocity": 81}, {"time": 184077, "pitch": 70, "duration": 48, "velocity": 77}, {"time": 184197, "pitch": 42, "duration": 57, "velocity": 93}, {"time": 184197, "pitch": 70, "duration": 41, "velocity": 76}, {"time": 184318, "pitch": 35, "duration": 88, "velocity": 110}, {"time": 184318, "pitch": 38, "duration": 113, "velocity": 103}, {"time": 184318, "pitch": 42, "duration": 79, "velocity": 111}, {"time": 184318, "pitch": 54, "duration": 112, "velocity": 94}, {"time": 184318, "pitch": 70, "duration": 66, "velocity": 83}, {"time": 184438, "pitch": 70, "duration": 48, "velocity": 85}, {"time": 184559, "pitch": 42, "duration": 45, "velocity": 74}, {"time": 184559, "pitch": 70, "duration": 55, "velocity": 75}, {"time": 184679, "pitch": 42, "duration": 50, "velocity": 65}, {"time": 184800, "pitch": 35, "duration": 102, "velocity": 109}, {"time": 184800, "pitch": 42, "duration": 66, "velocity": 114}, {"time": 184800, "pitch": 70, "duration": 77, "velocity": 120}, {"time": 185040, "pitch": 42, "duration": 52, "velocity": 79}, {"time": 185040, "pitch": 70, "duration": 56, "velocity": 81}, {"time": 185161, "pitch": 42, "duration": 44, "velocity": 75}, {"time": 185281, "pitch": 35, "duration": 104, "velocity": 107}, {"time": 185281, "pitch": 38, "duration": 113, "velocity": 104}, {"time": 185281, "pitch": 42, "duration": 89, "velocity": 117}, {"time": 185281, "pitch": 54, "duration": 89, "velocity": 93}, {"time": 185281, "pitch": 70, "duration": 61, "velocity": 122}, {"time": 185522, "pitch": 42, "duration": 54, "velocity": 90}, {"time": 185522, "pitch": 70, "duration": 56, "velocity": 74}, {"time": 185643, "pitch": 42, "duration": 53, "velocity": 77}, {"time": 185763, "pitch": 35, "duration": 97, "velocity": 109}, {"time": 185763, "pitch": 42, "duration": 68, "velocity": 117}, {"time": 185763, "pitch": 70, "duration": 73, "velocity": 122}, {"time": 186004, "pitch": 42, "duration": 47, "velocity": 60}, {"time": 186004, "pitch": 70, "duration": 48, "velocity": 77}, {"time": 186124, "pitch": 42, "duration": 46, "velocity": 74}, {"time": 186124, "pitch": 70, "duration": 41, "velocity": 76}, {"time": 186245, "pitch": 35, "duration": 94, "velocity": 111}, {"time": 186245, "pitch": 38, "duration": 93, "velocity": 103}, {"time": 186245, "pitch": 42, "duration": 83, "velocity": 114}, {"time": 186245, "pitch": 54, "duration": 82, "velocity": 93}, {"time": 186245, "pitch": 70, "duration": 65, "velocity": 83}, {"time": 186363, "pitch": 70, "duration": 47, "velocity": 85}, {"time": 186481, "pitch": 42, "duration": 54, "velocity": 86}, {"time": 186481, "pitch": 70, "duration": 54, "velocity": 75}, {"time": 186599, "pitch": 42, "duration": 54, "velocity": 73}, {"time": 186717, "pitch": 35, "duration": 101, "velocity": 109}, {"time": 186717, "pitch": 42, "duration": 75, "velocity": 121}, {"time": 186717, "pitch": 57, "duration": 170, "velocity": 93}, {"time": 186717, "pitch": 70, "duration": 77, "velocity": 120}, {"time": 186958, "pitch": 35, "duration": 140, "velocity": 107}, {"time": 186958, "pitch": 42, "duration": 58, "velocity": 61}, {"time": 186958, "pitch": 70, "duration": 55, "velocity": 81}, {"time": 187078, "pitch": 42, "duration": 44, "velocity": 67}, {"time": 187199, "pitch": 35, "duration": 85, "velocity": 109}, {"time": 187199, "pitch": 38, "duration": 98, "velocity": 103}, {"time": 187199, "pitch": 42, "duration": 85, "velocity": 121}, {"time": 187199, "pitch": 54, "duration": 77, "velocity": 94}, {"time": 187199, "pitch": 70, "duration": 60, "velocity": 122}, {"time": 187439, "pitch": 42, "duration": 48, "velocity": 70}, {"time": 187439, "pitch": 48, "duration": 134, "velocity": 106}, {"time": 187439, "pitch": 70, "duration": 57, "velocity": 74}, {"time": 187560, "pitch": 42, "duration": 61, "velocity": 74}, {"time": 187680, "pitch": 35, "duration": 108, "velocity": 109}, {"time": 187680, "pitch": 42, "duration": 77, "velocity": 121}, {"time": 187680, "pitch": 70, "duration": 74, "velocity": 122}, {"time": 187921, "pitch": 42, "duration": 43, "velocity": 64}, {"time": 187921, "pitch": 45, "duration": 95, "velocity": 107}, {"time": 187921, "pitch": 70, "duration": 48, "velocity": 77}, {"time": 188042, "pitch": 38, "duration": 10, "velocity": 58}, {"time": 188042, "pitch": 42, "duration": 47, "velocity": 71}, {"time": 188042, "pitch": 70, "duration": 40, "velocity": 76}, {"time": 188162, "pitch": 35, "duration": 88, "velocity": 108}, {"time": 188162, "pitch": 38, "duration": 84, "velocity": 103}, {"time": 188162, "pitch": 42, "duration": 88, "velocity": 114}, {"time": 188162, "pitch": 54, "duration": 74, "velocity": 94}, {"time": 188162, "pitch": 70, "duration": 66, "velocity": 83}, {"time": 188283, "pitch": 42, "duration": 43, "velocity": 64}, {"time": 188283, "pitch": 70, "duration": 48, "velocity": 85}, {"time": 188403, "pitch": 38, "duration": 10, "velocity": 96}, {"time": 188403, "pitch": 41, "duration": 87, "velocity": 104}, {"time": 188403, "pitch": 46, "duration": 64, "velocity": 72}, {"time": 188403, "pitch": 70, "duration": 55, "velocity": 75}, {"time": 188644, "pitch": 35, "duration": 196, "velocity": 110}, {"time": 188644, "pitch": 42, "duration": 86, "velocity": 122}, {"time": 188644, "pitch": 49, "duration": 110, "velocity": 53}, {"time": 188644, "pitch": 70, "duration": 76, "velocity": 120}, {"time": 188880, "pitch": 42, "duration": 62, "velocity": 74}, {"time": 188880, "pitch": 70, "duration": 54, "velocity": 81}, {"time": 188998, "pitch": 42, "duration": 52, "velocity": 71}, {"time": 189116, "pitch": 35, "duration": 169, "velocity": 110}, {"time": 189116, "pitch": 38, "duration": 111, "velocity": 105}, {"time": 189116, "pitch": 42, "duration": 95, "velocity": 112}, {"time": 189116, "pitch": 70, "duration": 60, "velocity": 122}, {"time": 189357, "pitch": 42, "duration": 49, "velocity": 76}, {"time": 189357, "pitch": 70, "duration": 56, "velocity": 74}, {"time": 189477, "pitch": 42, "duration": 63, "velocity": 79}, {"time": 189598, "pitch": 35, "duration": 115, "velocity": 110}, {"time": 189598, "pitch": 42, "duration": 70, "velocity": 117}, {"time": 189598, "pitch": 70, "duration": 73, "velocity": 122}, {"time": 189839, "pitch": 42, "duration": 48, "velocity": 60}, {"time": 189839, "pitch": 70, "duration": 48, "velocity": 77}, {"time": 189959, "pitch": 42, "duration": 50, "velocity": 75}, {"time": 189959, "pitch": 70, "duration": 40, "velocity": 76}, {"time": 190079, "pitch": 35, "duration": 89, "velocity": 109}, {"time": 190079, "pitch": 38, "duration": 87, "velocity": 104}, {"time": 190079, "pitch": 42, "duration": 88, "velocity": 117}, {"time": 190079, "pitch": 70, "duration": 67, "velocity": 83}, {"time": 190200, "pitch": 70, "duration": 48, "velocity": 85}, {"time": 190320, "pitch": 42, "duration": 49, "velocity": 73}, {"time": 190320, "pitch": 70, "duration": 55, "velocity": 75}, {"time": 190441, "pitch": 42, "duration": 50, "velocity": 66}, {"time": 190561, "pitch": 35, "duration": 101, "velocity": 109}, {"time": 190561, "pitch": 42, "duration": 75, "velocity": 121}, {"time": 190561, "pitch": 70, "duration": 77, "velocity": 120}, {"time": 190802, "pitch": 42, "duration": 47, "velocity": 67}, {"time": 190802, "pitch": 70, "duration": 55, "velocity": 81}, {"time": 190922, "pitch": 42, "duration": 49, "velocity": 83}, {"time": 191043, "pitch": 35, "duration": 95, "velocity": 109}, {"time": 191043, "pitch": 38, "duration": 104, "velocity": 104}, {"time": 191043, "pitch": 42, "duration": 85, "velocity": 117}, {"time": 191043, "pitch": 70, "duration": 60, "velocity": 122}, {"time": 191284, "pitch": 42, "duration": 47, "velocity": 79}, {"time": 191284, "pitch": 70, "duration": 56, "velocity": 74}, {"time": 191404, "pitch": 42, "duration": 61, "velocity": 72}, {"time": 191525, "pitch": 35, "duration": 91, "velocity": 109}, {"time": 191525, "pitch": 42, "duration": 65, "velocity": 120}, {"time": 191525, "pitch": 70, "duration": 71, "velocity": 122}, {"time": 191761, "pitch": 42, "duration": 40, "velocity": 61}, {"time": 191761, "pitch": 70, "duration": 47, "velocity": 77}, {"time": 191879, "pitch": 42, "duration": 55, "velocity": 93}, {"time": 191879, "pitch": 70, "duration": 39, "velocity": 76}, {"time": 191997, "pitch": 35, "duration": 88, "velocity": 110}, {"time": 191997, "pitch": 38, "duration": 113, "velocity": 103}, {"time": 191997, "pitch": 42, "duration": 79, "velocity": 111}, {"time": 191997, "pitch": 70, "duration": 66, "velocity": 83}, {"time": 192117, "pitch": 70, "duration": 48, "velocity": 85}, {"time": 192238, "pitch": 42, "duration": 45, "velocity": 74}, {"time": 192238, "pitch": 70, "duration": 55, "velocity": 75}, {"time": 192358, "pitch": 42, "duration": 50, "velocity": 65}, {"time": 192478, "pitch": 35, "duration": 103, "velocity": 109}, {"time": 192478, "pitch": 42, "duration": 67, "velocity": 114}, {"time": 192478, "pitch": 70, "duration": 78, "velocity": 120}, {"time": 192719, "pitch": 42, "duration": 52, "velocity": 79}, {"time": 192719, "pitch": 70, "duration": 56, "velocity": 81}, {"time": 192840, "pitch": 42, "duration": 44, "velocity": 75}, {"time": 192960, "pitch": 35, "duration": 104, "velocity": 107}, {"time": 192960, "pitch": 38, "duration": 113, "velocity": 104}, {"time": 192960, "pitch": 42, "duration": 89, "velocity": 117}, {"time": 192960, "pitch": 70, "duration": 60, "velocity": 122}, {"time": 193201, "pitch": 42, "duration": 54, "velocity": 90}, {"time": 193201, "pitch": 70, "duration": 56, "velocity": 74}, {"time": 193322, "pitch": 42, "duration": 53, "velocity": 77}, {"time": 193442, "pitch": 35, "duration": 97, "velocity": 109}, {"time": 193442, "pitch": 42, "duration": 68, "velocity": 117}, {"time": 193442, "pitch": 70, "duration": 73, "velocity": 122}, {"time": 193683, "pitch": 42, "duration": 47, "velocity": 60}, {"time": 193683, "pitch": 70, "duration": 48, "velocity": 77}, {"time": 193803, "pitch": 42, "duration": 45, "velocity": 74}, {"time": 193803, "pitch": 70, "duration": 40, "velocity": 76}, {"time": 193924, "pitch": 35, "duration": 94, "velocity": 111}, {"time": 193924, "pitch": 38, "duration": 93, "velocity": 103}, {"time": 193924, "pitch": 42, "duration": 83, "velocity": 114}, {"time": 193924, "pitch": 70, "duration": 65, "velocity": 83}, {"time": 194042, "pitch": 70, "duration": 47, "velocity": 85}, {"time": 194160, "pitch": 42, "duration": 54, "velocity": 86}, {"time": 194160, "pitch": 70, "duration": 54, "velocity": 75}, {"time": 194278, "pitch": 42, "duration": 54, "velocity": 73}, {"time": 194396, "pitch": 35, "duration": 101, "velocity": 109}, {"time": 194396, "pitch": 42, "duration": 75, "velocity": 121}, {"time": 194396, "pitch": 70, "duration": 77, "velocity": 120}, {"time": 194637, "pitch": 42, "duration": 58, "velocity": 61}, {"time": 194637, "pitch": 70, "duration": 55, "velocity": 81}, {"time": 194757, "pitch": 42, "duration": 44, "velocity": 67}, {"time": 194877, "pitch": 35, "duration": 86, "velocity": 109}, {"time": 194877, "pitch": 38, "duration": 99, "velocity": 103}, {"time": 194877, "pitch": 42, "duration": 86, "velocity": 121}, {"time": 194877, "pitch": 70, "duration": 61, "velocity": 122}, {"time": 195118, "pitch": 42, "duration": 48, "velocity": 70}, {"time": 195118, "pitch": 70, "duration": 57, "velocity": 74}, {"time": 195239, "pitch": 42, "duration": 61, "velocity": 74}, {"time": 195359, "pitch": 35, "duration": 108, "velocity": 109}, {"time": 195359, "pitch": 42, "duration": 77, "velocity": 121}, {"time": 195359, "pitch": 70, "duration": 74, "velocity": 122}, {"time": 195600, "pitch": 42, "duration": 43, "velocity": 64}, {"time": 195600, "pitch": 70, "duration": 48, "velocity": 77}, {"time": 195721, "pitch": 42, "duration": 47, "velocity": 71}, {"time": 195721, "pitch": 70, "duration": 40, "velocity": 76}, {"time": 195841, "pitch": 35, "duration": 88, "velocity": 108}, {"time": 195841, "pitch": 38, "duration": 84, "velocity": 103}, {"time": 195841, "pitch": 42, "duration": 88, "velocity": 114}, {"time": 195841, "pitch": 70, "duration": 66, "velocity": 83}, {"time": 195961, "pitch": 42, "duration": 44, "velocity": 64}, {"time": 195961, "pitch": 70, "duration": 49, "velocity": 85}, {"time": 196082, "pitch": 46, "duration": 64, "velocity": 72}, {"time": 196082, "pitch": 70, "duration": 55, "velocity": 75}, {"time": 196323, "pitch": 35, "duration": 200, "velocity": 110}, {"time": 196323, "pitch": 42, "duration": 88, "velocity": 122}, {"time": 196323, "pitch": 49, "duration": 112, "velocity": 53}, {"time": 196323, "pitch": 70, "duration": 77, "velocity": 120}, {"time": 196564, "pitch": 42, "duration": 63, "velocity": 74}, {"time": 196564, "pitch": 70, "duration": 55, "velocity": 81}, {"time": 196684, "pitch": 42, "duration": 53, "velocity": 71}, {"time": 196804, "pitch": 35, "duration": 167, "velocity": 110}, {"time": 196804, "pitch": 38, "duration": 110, "velocity": 105}, {"time": 196804, "pitch": 42, "duration": 94, "velocity": 112}, {"time": 196804, "pitch": 70, "duration": 59, "velocity": 122}, {"time": 197041, "pitch": 42, "duration": 48, "velocity": 76}, {"time": 197041, "pitch": 70, "duration": 55, "velocity": 74}, {"time": 197159, "pitch": 42, "duration": 62, "velocity": 79}, {"time": 197277, "pitch": 35, "duration": 115, "velocity": 110}, {"time": 197277, "pitch": 42, "duration": 70, "velocity": 117}, {"time": 197277, "pitch": 70, "duration": 73, "velocity": 122}, {"time": 197517, "pitch": 42, "duration": 49, "velocity": 60}, {"time": 197517, "pitch": 70, "duration": 49, "velocity": 77}, {"time": 197638, "pitch": 42, "duration": 50, "velocity": 75}, {"time": 197638, "pitch": 70, "duration": 40, "velocity": 76}, {"time": 197758, "pitch": 35, "duration": 89, "velocity": 109}, {"time": 197758, "pitch": 38, "duration": 87, "velocity": 104}, {"time": 197758, "pitch": 42, "duration": 88, "velocity": 117}, {"time": 197758, "pitch": 70, "duration": 67, "velocity": 83}, {"time": 197879, "pitch": 70, "duration": 48, "velocity": 85}, {"time": 197999, "pitch": 42, "duration": 49, "velocity": 73}, {"time": 197999, "pitch": 70, "duration": 55, "velocity": 75}, {"time": 198120, "pitch": 42, "duration": 50, "velocity": 66}, {"time": 198240, "pitch": 35, "duration": 100, "velocity": 109}, {"time": 198240, "pitch": 42, "duration": 75, "velocity": 121}, {"time": 198240, "pitch": 70, "duration": 77, "velocity": 120}, {"time": 198481, "pitch": 42, "duration": 47, "velocity": 67}, {"time": 198481, "pitch": 70, "duration": 55, "velocity": 81}, {"time": 198601, "pitch": 42, "duration": 49, "velocity": 83}, {"time": 198722, "pitch": 35, "duration": 95, "velocity": 109}, {"time": 198722, "pitch": 38, "duration": 104, "velocity": 104}, {"time": 198722, "pitch": 42, "duration": 85, "velocity": 117}, {"time": 198722, "pitch": 70, "duration": 60, "velocity": 122}, {"time": 198963, "pitch": 42, "duration": 47, "velocity": 79}, {"time": 198963, "pitch": 70, "duration": 56, "velocity": 74}, {"time": 199083, "pitch": 42, "duration": 61, "velocity": 72}, {"time": 199204, "pitch": 35, "duration": 91, "velocity": 109}, {"time": 199204, "pitch": 42, "duration": 64, "velocity": 120}, {"time": 199204, "pitch": 70, "duration": 71, "velocity": 122}, {"time": 199440, "pitch": 42, "duration": 40, "velocity": 61}, {"time": 199440, "pitch": 70, "duration": 47, "velocity": 77}, {"time": 199558, "pitch": 42, "duration": 55, "velocity": 93}, {"time": 199558, "pitch": 70, "duration": 39, "velocity": 76}, {"time": 199676, "pitch": 35, "duration": 88, "velocity": 110}, {"time": 199676, "pitch": 38, "duration": 113, "velocity": 103}, {"time": 199676, "pitch": 42, "duration": 79, "velocity": 111}, {"time": 199676, "pitch": 70, "duration": 66, "velocity": 83}, {"time": 199796, "pitch": 70, "duration": 48, "velocity": 85}, {"time": 199916, "pitch": 42, "duration": 46, "velocity": 74}, {"time": 199916, "pitch": 70, "duration": 56, "velocity": 75}, {"time": 200037, "pitch": 42, "duration": 50, "velocity": 65}, {"time": 200157, "pitch": 35, "duration": 103, "velocity": 109}, {"time": 200157, "pitch": 42, "duration": 67, "velocity": 114}, {"time": 200157, "pitch": 70, "duration": 78, "velocity": 120}, {"time": 200398, "pitch": 42, "duration": 51, "velocity": 79}, {"time": 200398, "pitch": 70, "duration": 55, "velocity": 81}, {"time": 200519, "pitch": 42, "duration": 44, "velocity": 75}, {"time": 200639, "pitch": 35, "duration": 103, "velocity": 107}, {"time": 200639, "pitch": 38, "duration": 112, "velocity": 104}, {"time": 200639, "pitch": 42, "duration": 88, "velocity": 117}, {"time": 200639, "pitch": 70, "duration": 60, "velocity": 122}, {"time": 200880, "pitch": 42, "duration": 54, "velocity": 90}, {"time": 200880, "pitch": 70, "duration": 56, "velocity": 74}, {"time": 201000, "pitch": 42, "duration": 54, "velocity": 77}, {"time": 201121, "pitch": 35, "duration": 97, "velocity": 109}, {"time": 201121, "pitch": 42, "duration": 68, "velocity": 117}, {"time": 201121, "pitch": 70, "duration": 73, "velocity": 122}, {"time": 201362, "pitch": 42, "duration": 47, "velocity": 60}, {"time": 201362, "pitch": 70, "duration": 48, "velocity": 77}, {"time": 201482, "pitch": 42, "duration": 45, "velocity": 74}, {"time": 201482, "pitch": 70, "duration": 40, "velocity": 76}, {"time": 201603, "pitch": 35, "duration": 96, "velocity": 111}, {"time": 201603, "pitch": 38, "duration": 95, "velocity": 103}, {"time": 201603, "pitch": 42, "duration": 85, "velocity": 114}, {"time": 201603, "pitch": 70, "duration": 66, "velocity": 83}, {"time": 201723, "pitch": 70, "duration": 48, "velocity": 85}, {"time": 201843, "pitch": 42, "duration": 56, "velocity": 86}, {"time": 201843, "pitch": 70, "duration": 56, "velocity": 75}, {"time": 201964, "pitch": 42, "duration": 55, "velocity": 73}, {"time": 202084, "pitch": 35, "duration": 100, "velocity": 109}, {"time": 202084, "pitch": 42, "duration": 74, "velocity": 121}, {"time": 202084, "pitch": 70, "duration": 76, "velocity": 120}, {"time": 202320, "pitch": 42, "duration": 57, "velocity": 61}, {"time": 202320, "pitch": 70, "duration": 54, "velocity": 81}, {"time": 202438, "pitch": 42, "duration": 44, "velocity": 67}, {"time": 202556, "pitch": 35, "duration": 86, "velocity": 109}, {"time": 202556, "pitch": 38, "duration": 99, "velocity": 103}, {"time": 202556, "pitch": 42, "duration": 86, "velocity": 121}, {"time": 202556, "pitch": 70, "duration": 61, "velocity": 122}, {"time": 202797, "pitch": 42, "duration": 47, "velocity": 70}, {"time": 202797, "pitch": 70, "duration": 56, "velocity": 74}, {"time": 202918, "pitch": 42, "duration": 61, "velocity": 74}, {"time": 203038, "pitch": 35, "duration": 108, "velocity": 109}, {"time": 203038, "pitch": 42, "duration": 76, "velocity": 121}, {"time": 203038, "pitch": 70, "duration": 73, "velocity": 122}, {"time": 203279, "pitch": 42, "duration": 43, "velocity": 64}, {"time": 203279, "pitch": 70, "duration": 48, "velocity": 77}, {"time": 203399, "pitch": 42, "duration": 48, "velocity": 71}, {"time": 203399, "pitch": 70, "duration": 41, "velocity": 76}, {"time": 203520, "pitch": 35, "duration": 88, "velocity": 108}, {"time": 203520, "pitch": 38, "duration": 84, "velocity": 103}, {"time": 203520, "pitch": 42, "duration": 88, "velocity": 114}, {"time": 203520, "pitch": 70, "duration": 66, "velocity": 83}, {"time": 203640, "pitch": 42, "duration": 43, "velocity": 64}, {"time": 203640, "pitch": 70, "duration": 49, "velocity": 85}, {"time": 203761, "pitch": 46, "duration": 64, "velocity": 72}, {"time": 203761, "pitch": 70, "duration": 55, "velocity": 75}, {"time": 204002, "pitch": 35, "duration": 199, "velocity": 110}, {"time": 204002, "pitch": 42, "duration": 88, "velocity": 122}, {"time": 204002, "pitch": 70, "duration": 77, "velocity": 120}, {"time": 204243, "pitch": 42, "duration": 63, "velocity": 74}, {"time": 204243, "pitch": 70, "duration": 55, "velocity": 81}, {"time": 204363, "pitch": 42, "duration": 53, "velocity": 71}, {"time": 204483, "pitch": 35, "duration": 167, "velocity": 110}, {"time": 204483, "pitch": 38, "duration": 110, "velocity": 105}, {"time": 204483, "pitch": 42, "duration": 94, "velocity": 112}, {"time": 204483, "pitch": 70, "duration": 59, "velocity": 122}, {"time": 204719, "pitch": 42, "duration": 49, "velocity": 76}, {"time": 204719, "pitch": 70, "duration": 55, "velocity": 74}, {"time": 204837, "pitch": 42, "duration": 62, "velocity": 79}, {"time": 204955, "pitch": 35, "duration": 116, "velocity": 110}, {"time": 204955, "pitch": 42, "duration": 71, "velocity": 117}, {"time": 204955, "pitch": 70, "duration": 74, "velocity": 122}, {"time": 205196, "pitch": 42, "duration": 48, "velocity": 60}, {"time": 205196, "pitch": 70, "duration": 48, "velocity": 77}, {"time": 205317, "pitch": 42, "duration": 50, "velocity": 75}, {"time": 205317, "pitch": 70, "duration": 40, "velocity": 76}, {"time": 205437, "pitch": 35, "duration": 88, "velocity": 109}, {"time": 205437, "pitch": 38, "duration": 86, "velocity": 104}, {"time": 205437, "pitch": 42, "duration": 87, "velocity": 117}, {"time": 205437, "pitch": 70, "duration": 66, "velocity": 83}, {"time": 205558, "pitch": 70, "duration": 48, "velocity": 85}, {"time": 205678, "pitch": 42, "duration": 49, "velocity": 73}, {"time": 205678, "pitch": 70, "duration": 55, "velocity": 75}, {"time": 205798, "pitch": 42, "duration": 51, "velocity": 66}, {"time": 205919, "pitch": 35, "duration": 100, "velocity": 109}, {"time": 205919, "pitch": 42, "duration": 75, "velocity": 121}, {"time": 205919, "pitch": 70, "duration": 77, "velocity": 120}, {"time": 206160, "pitch": 42, "duration": 47, "velocity": 67}, {"time": 206160, "pitch": 70, "duration": 55, "velocity": 81}, {"time": 206280, "pitch": 42, "duration": 48, "velocity": 83}, {"time": 206401, "pitch": 35, "duration": 95, "velocity": 109}, {"time": 206401, "pitch": 38, "duration": 104, "velocity": 104}, {"time": 206401, "pitch": 42, "duration": 85, "velocity": 117}, {"time": 206401, "pitch": 70, "duration": 60, "velocity": 122}, {"time": 206642, "pitch": 42, "duration": 47, "velocity": 79}, {"time": 206642, "pitch": 70, "duration": 56, "velocity": 74}, {"time": 206762, "pitch": 42, "duration": 61, "velocity": 72}, {"time": 206882, "pitch": 35, "duration": 94, "velocity": 109}, {"time": 206882, "pitch": 42, "duration": 67, "velocity": 120}, {"time": 206882, "pitch": 70, "duration": 74, "velocity": 122}, {"time": 207123, "pitch": 42, "duration": 41, "velocity": 61}, {"time": 207123, "pitch": 70, "duration": 49, "velocity": 77}, {"time": 207244, "pitch": 42, "duration": 56, "velocity": 93}, {"time": 207244, "pitch": 70, "duration": 40, "velocity": 76}, {"time": 207364, "pitch": 35, "duration": 87, "velocity": 110}, {"time": 207364, "pitch": 38, "duration": 111, "velocity": 103}, {"time": 207364, "pitch": 42, "duration": 78, "velocity": 111}, {"time": 207364, "pitch": 70, "duration": 65, "velocity": 83}, {"time": 207482, "pitch": 70, "duration": 47, "velocity": 85}, {"time": 207600, "pitch": 42, "duration": 44, "velocity": 74}, {"time": 207600, "pitch": 70, "duration": 54, "velocity": 75}, {"time": 207718, "pitch": 42, "duration": 49, "velocity": 65}, {"time": 207836, "pitch": 35, "duration": 103, "velocity": 109}, {"time": 207836, "pitch": 42, "duration": 66, "velocity": 114}, {"time": 207836, "pitch": 70, "duration": 77, "velocity": 120}, {"time": 208077, "pitch": 42, "duration": 51, "velocity": 79}, {"time": 208077, "pitch": 70, "duration": 55, "velocity": 81}, {"time": 208198, "pitch": 42, "duration": 44, "velocity": 75}, {"time": 208318, "pitch": 35, "duration": 103, "velocity": 107}, {"time": 208318, "pitch": 38, "duration": 112, "velocity": 104}, {"time": 208318, "pitch": 42, "duration": 88, "velocity": 117}, {"time": 208318, "pitch": 70, "duration": 60, "velocity": 122}, {"time": 208559, "pitch": 42, "duration": 54, "velocity": 90}, {"time": 208559, "pitch": 70, "duration": 56, "velocity": 74}, {"time": 208679, "pitch": 42, "duration": 53, "velocity": 77}, {"time": 208800, "pitch": 35, "duration": 97, "velocity": 109}, {"time": 208800, "pitch": 42, "duration": 68, "velocity": 117}, {"time": 208800, "pitch": 70, "duration": 73, "velocity": 122}, {"time": 209041, "pitch": 42, "duration": 47, "velocity": 60}, {"time": 209041, "pitch": 70, "duration": 48, "velocity": 77}, {"time": 209161, "pitch": 42, "duration": 45, "velocity": 74}, {"time": 209161, "pitch": 70, "duration": 40, "velocity": 76}, {"time": 209281, "pitch": 35, "duration": 97, "velocity": 111}, {"time": 209281, "pitch": 38, "duration": 96, "velocity": 103}, {"time": 209281, "pitch": 42, "duration": 86, "velocity": 114}, {"time": 209281, "pitch": 70, "duration": 67, "velocity": 83}, {"time": 209402, "pitch": 70, "duration": 48, "velocity": 85}, {"time": 209522, "pitch": 42, "duration": 56, "velocity": 86}, {"time": 209522, "pitch": 70, "duration": 56, "velocity": 75}, {"time": 209643, "pitch": 42, "duration": 55, "velocity": 73}, {"time": 209763, "pitch": 35, "duration": 100, "velocity": 109}, {"time": 209763, "pitch": 42, "duration": 74, "velocity": 121}, {"time": 209763, "pitch": 70, "duration": 76, "velocity": 120}, {"time": 209999, "pitch": 42, "duration": 57, "velocity": 61}, {"time": 209999, "pitch": 70, "duration": 54, "velocity": 81}, {"time": 210117, "pitch": 42, "duration": 44, "velocity": 67}, {"time": 210235, "pitch": 35, "duration": 86, "velocity": 109}, {"time": 210235, "pitch": 38, "duration": 99, "velocity": 103}, {"time": 210235, "pitch": 42, "duration": 86, "velocity": 121}, {"time": 210235, "pitch": 70, "duration": 60, "velocity": 122}, {"time": 210476, "pitch": 42, "duration": 47, "velocity": 70}, {"time": 210476, "pitch": 70, "duration": 56, "velocity": 74}, {"time": 210597, "pitch": 42, "duration": 61, "velocity": 74}, {"time": 210717, "pitch": 35, "duration": 107, "velocity": 109}, {"time": 210717, "pitch": 42, "duration": 76, "velocity": 121}, {"time": 210717, "pitch": 70, "duration": 73, "velocity": 122}, {"time": 210958, "pitch": 42, "duration": 43, "velocity": 64}, {"time": 210958, "pitch": 70, "duration": 48, "velocity": 77}, {"time": 211078, "pitch": 38, "duration": 10, "velocity": 58}, {"time": 211078, "pitch": 42, "duration": 47, "velocity": 71}, {"time": 211078, "pitch": 70, "duration": 40, "velocity": 76}, {"time": 211199, "pitch": 35, "duration": 88, "velocity": 108}, {"time": 211199, "pitch": 38, "duration": 84, "velocity": 103}, {"time": 211199, "pitch": 42, "duration": 88, "velocity": 114}, {"time": 211199, "pitch": 70, "duration": 66, "velocity": 83}, {"time": 211319, "pitch": 42, "duration": 43, "velocity": 64}, {"time": 211319, "pitch": 70, "duration": 48, "velocity": 85}, {"time": 211440, "pitch": 38, "duration": 10, "velocity": 96}, {"time": 211440, "pitch": 46, "duration": 64, "velocity": 72}, {"time": 211440, "pitch": 70, "duration": 55, "velocity": 75}, {"time": 211681, "pitch": 35, "duration": 199, "velocity": 110}, {"time": 211681, "pitch": 42, "duration": 88, "velocity": 122}, {"time": 211681, "pitch": 49, "duration": 112, "velocity": 53}, {"time": 211681, "pitch": 70, "duration": 77, "velocity": 120}, {"time": 211921, "pitch": 42, "duration": 64, "velocity": 74}, {"time": 211921, "pitch": 70, "duration": 56, "velocity": 81}, {"time": 212042, "pitch": 42, "duration": 53, "velocity": 71}, {"time": 212162, "pitch": 35, "duration": 170, "velocity": 110}, {"time": 212162, "pitch": 38, "duration": 112, "velocity": 105}, {"time": 212162, "pitch": 42, "duration": 96, "velocity": 112}, {"time": 212162, "pitch": 70, "duration": 61, "velocity": 122}, {"time": 212403, "pitch": 42, "duration": 49, "velocity": 76}, {"time": 212403, "pitch": 70, "duration": 56, "velocity": 74}, {"time": 212524, "pitch": 42, "duration": 63, "velocity": 79}, {"time": 212644, "pitch": 35, "duration": 113, "velocity": 110}, {"time": 212644, "pitch": 42, "duration": 69, "velocity": 117}, {"time": 212644, "pitch": 70, "duration": 72, "velocity": 122}, {"time": 212880, "pitch": 42, "duration": 47, "velocity": 60}, {"time": 212880, "pitch": 70, "duration": 47, "velocity": 77}, {"time": 212998, "pitch": 42, "duration": 49, "velocity": 75}, {"time": 212998, "pitch": 70, "duration": 39, "velocity": 76}, {"time": 213116, "pitch": 35, "duration": 88, "velocity": 109}, {"time": 213116, "pitch": 38, "duration": 86, "velocity": 104}, {"time": 213116, "pitch": 42, "duration": 87, "velocity": 117}, {"time": 213116, "pitch": 70, "duration": 66, "velocity": 83}, {"time": 213236, "pitch": 70, "duration": 49, "velocity": 85}, {"time": 213357, "pitch": 42, "duration": 49, "velocity": 73}, {"time": 213357, "pitch": 70, "duration": 55, "velocity": 75}, {"time": 213477, "pitch": 42, "duration": 51, "velocity": 66}, {"time": 213598, "pitch": 35, "duration": 100, "velocity": 109}, {"time": 213598, "pitch": 42, "duration": 75, "velocity": 121}, {"time": 213839, "pitch": 38, "duration": 104, "velocity": 104}, {"time": 213839, "pitch": 46, "duration": 47, "velocity": 67}, {"time": 213959, "pitch": 38, "duration": 104, "velocity": 51}, {"time": 214080, "pitch": 35, "duration": 95, "velocity": 109}, {"time": 214080, "pitch": 38, "duration": 104, "velocity": 104}, {"time": 214080, "pitch": 42, "duration": 85, "velocity": 117}, {"time": 214320, "pitch": 35, "duration": 94, "velocity": 109}, {"time": 214320, "pitch": 38, "duration": 114, "velocity": 103}, {"time": 214320, "pitch": 42, "duration": 48, "velocity": 79}, {"time": 134882, "pitch": 49, "duration": 231, "velocity": 90}, {"time": 134882, "pitch": 56, "duration": 231, "velocity": 95}, {"time": 134892, "pitch": 61, "duration": 221, "velocity": 106}, {"time": 134892, "pitch": 65, "duration": 221, "velocity": 127}, {"time": 135123, "pitch": 49, "duration": 80, "velocity": 91}, {"time": 135123, "pitch": 56, "duration": 80, "velocity": 97}, {"time": 135133, "pitch": 61, "duration": 70, "velocity": 78}, {"time": 135133, "pitch": 65, "duration": 50, "velocity": 92}, {"time": 135243, "pitch": 61, "duration": 91, "velocity": 109}, {"time": 135243, "pitch": 65, "duration": 91, "velocity": 108}, {"time": 135253, "pitch": 49, "duration": 81, "velocity": 114}, {"time": 135253, "pitch": 56, "duration": 81, "velocity": 103}, {"time": 135364, "pitch": 49, "duration": 226, "velocity": 90}, {"time": 135364, "pitch": 56, "duration": 226, "velocity": 95}, {"time": 135374, "pitch": 61, "duration": 216, "velocity": 106}, {"time": 135374, "pitch": 65, "duration": 216, "velocity": 127}, {"time": 135600, "pitch": 49, "duration": 78, "velocity": 91}, {"time": 135600, "pitch": 56, "duration": 78, "velocity": 97}, {"time": 135610, "pitch": 61, "duration": 68, "velocity": 78}, {"time": 135610, "pitch": 65, "duration": 49, "velocity": 92}, {"time": 135718, "pitch": 61, "duration": 88, "velocity": 109}, {"time": 135718, "pitch": 65, "duration": 88, "velocity": 108}, {"time": 135728, "pitch": 49, "duration": 78, "velocity": 114}, {"time": 135728, "pitch": 56, "duration": 78, "velocity": 103}, {"time": 135836, "pitch": 49, "duration": 231, "velocity": 90}, {"time": 135836, "pitch": 56, "duration": 231, "velocity": 95}, {"time": 135846, "pitch": 61, "duration": 221, "velocity": 106}, {"time": 135846, "pitch": 65, "duration": 221, "velocity": 112}, {"time": 136077, "pitch": 49, "duration": 70, "velocity": 127}, {"time": 136077, "pitch": 56, "duration": 60, "velocity": 100}, {"time": 136077, "pitch": 65, "duration": 40, "velocity": 112}, {"time": 136197, "pitch": 49, "duration": 70, "velocity": 110}, {"time": 136197, "pitch": 56, "duration": 70, "velocity": 122}, {"time": 136197, "pitch": 61, "duration": 50, "velocity": 91}, {"time": 136197, "pitch": 65, "duration": 70, "velocity": 120}, {"time": 136318, "pitch": 49, "duration": 200, "velocity": 127}, {"time": 136318, "pitch": 56, "duration": 170, "velocity": 127}, {"time": 136328, "pitch": 61, "duration": 180, "velocity": 117}, {"time": 136338, "pitch": 65, "duration": 160, "velocity": 114}, {"time": 136558, "pitch": 49, "duration": 71, "velocity": 127}, {"time": 136558, "pitch": 56, "duration": 71, "velocity": 114}, {"time": 136558, "pitch": 65, "duration": 51, "velocity": 110}, {"time": 136679, "pitch": 49, "duration": 100, "velocity": 127}, {"time": 136679, "pitch": 56, "duration": 110, "velocity": 122}, {"time": 136679, "pitch": 61, "duration": 40, "velocity": 106}, {"time": 136679, "pitch": 65, "duration": 100, "velocity": 127}, {"time": 136799, "pitch": 51, "duration": 231, "velocity": 90}, {"time": 136799, "pitch": 56, "duration": 231, "velocity": 95}, {"time": 136809, "pitch": 60, "duration": 221, "velocity": 106}, {"time": 136809, "pitch": 63, "duration": 221, "velocity": 127}, {"time": 137040, "pitch": 51, "duration": 80, "velocity": 91}, {"time": 137040, "pitch": 56, "duration": 80, "velocity": 97}, {"time": 137050, "pitch": 60, "duration": 70, "velocity": 78}, {"time": 137050, "pitch": 63, "duration": 50, "velocity": 92}, {"time": 137161, "pitch": 60, "duration": 90, "velocity": 109}, {"time": 137161, "pitch": 63, "duration": 90, "velocity": 108}, {"time": 137171, "pitch": 51, "duration": 80, "velocity": 114}, {"time": 137171, "pitch": 56, "duration": 80, "velocity": 103}, {"time": 137281, "pitch": 51, "duration": 231, "velocity": 90}, {"time": 137281, "pitch": 56, "duration": 231, "velocity": 95}, {"time": 137291, "pitch": 60, "duration": 221, "velocity": 106}, {"time": 137291, "pitch": 63, "duration": 221, "velocity": 127}, {"time": 137522, "pitch": 51, "duration": 80, "velocity": 91}, {"time": 137522, "pitch": 56, "duration": 80, "velocity": 97}, {"time": 137532, "pitch": 60, "duration": 70, "velocity": 78}, {"time": 137532, "pitch": 63, "duration": 50, "velocity": 92}, {"time": 137642, "pitch": 60, "duration": 91, "velocity": 109}, {"time": 137642, "pitch": 63, "duration": 91, "velocity": 108}, {"time": 137652, "pitch": 51, "duration": 81, "velocity": 114}, {"time": 137652, "pitch": 56, "duration": 81, "velocity": 103}, {"time": 137763, "pitch": 51, "duration": 231, "velocity": 90}, {"time": 137763, "pitch": 56, "duration": 231, "velocity": 95}, {"time": 137773, "pitch": 60, "duration": 221, "velocity": 106}, {"time": 137773, "pitch": 63, "duration": 221, "velocity": 112}, {"time": 138004, "pitch": 51, "duration": 70, "velocity": 127}, {"time": 138004, "pitch": 56, "duration": 60, "velocity": 100}, {"time": 138004, "pitch": 63, "duration": 40, "velocity": 112}, {"time": 138124, "pitch": 51, "duration": 70, "velocity": 110}, {"time": 138124, "pitch": 56, "duration": 70, "velocity": 122}, {"time": 138124, "pitch": 60, "duration": 50, "velocity": 91}, {"time": 138124, "pitch": 63, "duration": 70, "velocity": 120}, {"time": 138244, "pitch": 51, "duration": 197, "velocity": 127}, {"time": 138244, "pitch": 56, "duration": 168, "velocity": 127}, {"time": 138254, "pitch": 60, "duration": 177, "velocity": 117}, {"time": 138264, "pitch": 63, "duration": 158, "velocity": 114}, {"time": 138481, "pitch": 51, "duration": 68, "velocity": 127}, {"time": 138481, "pitch": 56, "duration": 68, "velocity": 114}, {"time": 138481, "pitch": 63, "duration": 49, "velocity": 110}, {"time": 138599, "pitch": 51, "duration": 98, "velocity": 127}, {"time": 138599, "pitch": 56, "duration": 108, "velocity": 122}, {"time": 138599, "pitch": 60, "duration": 39, "velocity": 106}, {"time": 138599, "pitch": 63, "duration": 98, "velocity": 127}, {"time": 138717, "pitch": 54, "duration": 230, "velocity": 90}, {"time": 138717, "pitch": 58, "duration": 230, "velocity": 95}, {"time": 138727, "pitch": 61, "duration": 220, "velocity": 106}, {"time": 138727, "pitch": 66, "duration": 220, "velocity": 127}, {"time": 138957, "pitch": 54, "duration": 81, "velocity": 91}, {"time": 138957, "pitch": 58, "duration": 81, "velocity": 97}, {"time": 138967, "pitch": 61, "duration": 71, "velocity": 78}, {"time": 138967, "pitch": 66, "duration": 51, "velocity": 92}, {"time": 139078, "pitch": 61, "duration": 90, "velocity": 109}, {"time": 139078, "pitch": 66, "duration": 90, "velocity": 108}, {"time": 139088, "pitch": 54, "duration": 80, "velocity": 114}, {"time": 139088, "pitch": 58, "duration": 80, "velocity": 103}, {"time": 139198, "pitch": 54, "duration": 231, "velocity": 90}, {"time": 139198, "pitch": 58, "duration": 231, "velocity": 95}, {"time": 139208, "pitch": 61, "duration": 221, "velocity": 106}, {"time": 139208, "pitch": 66, "duration": 221, "velocity": 127}, {"time": 139439, "pitch": 54, "duration": 80, "velocity": 91}, {"time": 139439, "pitch": 58, "duration": 80, "velocity": 97}, {"time": 139449, "pitch": 61, "duration": 70, "velocity": 78}, {"time": 139449, "pitch": 66, "duration": 50, "velocity": 92}, {"time": 139560, "pitch": 61, "duration": 90, "velocity": 109}, {"time": 139560, "pitch": 66, "duration": 90, "velocity": 108}, {"time": 139570, "pitch": 54, "duration": 80, "velocity": 114}, {"time": 139570, "pitch": 58, "duration": 80, "velocity": 103}, {"time": 139680, "pitch": 54, "duration": 231, "velocity": 90}, {"time": 139680, "pitch": 58, "duration": 231, "velocity": 95}, {"time": 139690, "pitch": 61, "duration": 221, "velocity": 106}, {"time": 139690, "pitch": 66, "duration": 221, "velocity": 112}, {"time": 139921, "pitch": 54, "duration": 70, "velocity": 127}, {"time": 139921, "pitch": 58, "duration": 60, "velocity": 100}, {"time": 139921, "pitch": 66, "duration": 40, "velocity": 112}, {"time": 140041, "pitch": 54, "duration": 71, "velocity": 110}, {"time": 140041, "pitch": 58, "duration": 71, "velocity": 122}, {"time": 140041, "pitch": 61, "duration": 51, "velocity": 91}, {"time": 140041, "pitch": 66, "duration": 71, "velocity": 120}, {"time": 140162, "pitch": 54, "duration": 201, "velocity": 127}, {"time": 140162, "pitch": 58, "duration": 170, "velocity": 127}, {"time": 140172, "pitch": 61, "duration": 181, "velocity": 117}, {"time": 140182, "pitch": 66, "duration": 161, "velocity": 114}, {"time": 140403, "pitch": 54, "duration": 70, "velocity": 127}, {"time": 140403, "pitch": 58, "duration": 70, "velocity": 114}, {"time": 140403, "pitch": 66, "duration": 50, "velocity": 110}, {"time": 140523, "pitch": 54, "duration": 101, "velocity": 127}, {"time": 140523, "pitch": 58, "duration": 111, "velocity": 122}, {"time": 140523, "pitch": 61, "duration": 40, "velocity": 106}, {"time": 140523, "pitch": 66, "duration": 101, "velocity": 127}, {"time": 140644, "pitch": 49, "duration": 226, "velocity": 90}, {"time": 140644, "pitch": 56, "duration": 226, "velocity": 95}, {"time": 140653, "pitch": 61, "duration": 217, "velocity": 106}, {"time": 140653, "pitch": 65, "duration": 217, "velocity": 127}, {"time": 140880, "pitch": 49, "duration": 78, "velocity": 91}, {"time": 140880, "pitch": 56, "duration": 78, "velocity": 97}, {"time": 140889, "pitch": 61, "duration": 69, "velocity": 78}, {"time": 140889, "pitch": 65, "duration": 50, "velocity": 92}, {"time": 140998, "pitch": 61, "duration": 88, "velocity": 109}, {"time": 140998, "pitch": 65, "duration": 88, "velocity": 108}, {"time": 141007, "pitch": 49, "duration": 79, "velocity": 114}, {"time": 141007, "pitch": 56, "duration": 79, "velocity": 103}, {"time": 141116, "pitch": 49, "duration": 230, "velocity": 90}, {"time": 141116, "pitch": 56, "duration": 230, "velocity": 95}, {"time": 141126, "pitch": 61, "duration": 220, "velocity": 106}, {"time": 141126, "pitch": 65, "duration": 220, "velocity": 127}, {"time": 141356, "pitch": 49, "duration": 81, "velocity": 91}, {"time": 141356, "pitch": 56, "duration": 81, "velocity": 97}, {"time": 141367, "pitch": 61, "duration": 70, "velocity": 78}, {"time": 141367, "pitch": 65, "duration": 50, "velocity": 92}, {"time": 141477, "pitch": 61, "duration": 90, "velocity": 109}, {"time": 141477, "pitch": 65, "duration": 90, "velocity": 108}, {"time": 141487, "pitch": 49, "duration": 80, "velocity": 114}, {"time": 141487, "pitch": 56, "duration": 80, "velocity": 103}, {"time": 141597, "pitch": 49, "duration": 231, "velocity": 90}, {"time": 141597, "pitch": 56, "duration": 231, "velocity": 95}, {"time": 141607, "pitch": 61, "duration": 221, "velocity": 106}, {"time": 141607, "pitch": 65, "duration": 221, "velocity": 112}, {"time": 141838, "pitch": 49, "duration": 70, "velocity": 127}, {"time": 141838, "pitch": 56, "duration": 60, "velocity": 100}, {"time": 141838, "pitch": 65, "duration": 40, "velocity": 112}, {"time": 141959, "pitch": 49, "duration": 70, "velocity": 110}, {"time": 141959, "pitch": 56, "duration": 70, "velocity": 122}, {"time": 141959, "pitch": 61, "duration": 50, "velocity": 91}, {"time": 141959, "pitch": 65, "duration": 70, "velocity": 120}, {"time": 142079, "pitch": 51, "duration": 201, "velocity": 127}, {"time": 142079, "pitch": 58, "duration": 171, "velocity": 127}, {"time": 142089, "pitch": 63, "duration": 181, "velocity": 117}, {"time": 142099, "pitch": 67, "duration": 161, "velocity": 114}, {"time": 142320, "pitch": 51, "duration": 70, "velocity": 127}, {"time": 142320, "pitch": 58, "duration": 70, "velocity": 114}, {"time": 142320, "pitch": 67, "duration": 50, "velocity": 110}, {"time": 142440, "pitch": 51, "duration": 101, "velocity": 127}, {"time": 142440, "pitch": 58, "duration": 111, "velocity": 122}, {"time": 142440, "pitch": 63, "duration": 41, "velocity": 106}, {"time": 142440, "pitch": 67, "duration": 101, "velocity": 127}, {"time": 142561, "pitch": 53, "duration": 231, "velocity": 90}, {"time": 142561, "pitch": 56, "duration": 231, "velocity": 95}, {"time": 142571, "pitch": 60, "duration": 221, "velocity": 106}, {"time": 142571, "pitch": 65, "duration": 221, "velocity": 127}, {"time": 142802, "pitch": 53, "duration": 80, "velocity": 91}, {"time": 142802, "pitch": 56, "duration": 80, "velocity": 97}, {"time": 142812, "pitch": 60, "duration": 70, "velocity": 78}, {"time": 142812, "pitch": 65, "duration": 50, "velocity": 92}, {"time": 142922, "pitch": 60, "duration": 91, "velocity": 109}, {"time": 142922, "pitch": 65, "duration": 91, "velocity": 108}, {"time": 142932, "pitch": 53, "duration": 81, "velocity": 114}, {"time": 142932, "pitch": 56, "duration": 81, "velocity": 103}, {"time": 143043, "pitch": 53, "duration": 230, "velocity": 90}, {"time": 143043, "pitch": 56, "duration": 230, "velocity": 95}, {"time": 143053, "pitch": 60, "duration": 220, "velocity": 106}, {"time": 143053, "pitch": 65, "duration": 220, "velocity": 127}, {"time": 143284, "pitch": 53, "duration": 80, "velocity": 91}, {"time": 143284, "pitch": 56, "duration": 80, "velocity": 97}, {"time": 143294, "pitch": 60, "duration": 70, "velocity": 78}, {"time": 143294, "pitch": 65, "duration": 50, "velocity": 92}, {"time": 143404, "pitch": 60, "duration": 90, "velocity": 109}, {"time": 143404, "pitch": 65, "duration": 90, "velocity": 108}, {"time": 143414, "pitch": 53, "duration": 80, "velocity": 114}, {"time": 143414, "pitch": 56, "duration": 80, "velocity": 103}, {"time": 143524, "pitch": 53, "duration": 227, "velocity": 90}, {"time": 143524, "pitch": 56, "duration": 227, "velocity": 95}, {"time": 143534, "pitch": 60, "duration": 217, "velocity": 106}, {"time": 143534, "pitch": 65, "duration": 217, "velocity": 112}, {"time": 143760, "pitch": 53, "duration": 69, "velocity": 127}, {"time": 143760, "pitch": 56, "duration": 59, "velocity": 100}, {"time": 143760, "pitch": 65, "duration": 40, "velocity": 112}, {"time": 143878, "pitch": 53, "duration": 69, "velocity": 110}, {"time": 143878, "pitch": 56, "duration": 69, "velocity": 122}, {"time": 143878, "pitch": 60, "duration": 50, "velocity": 91}, {"time": 143878, "pitch": 65, "duration": 69, "velocity": 120}, {"time": 143996, "pitch": 53, "duration": 201, "velocity": 127}, {"time": 143996, "pitch": 56, "duration": 171, "velocity": 127}, {"time": 144006, "pitch": 60, "duration": 181, "velocity": 117}, {"time": 144016, "pitch": 65, "duration": 161, "velocity": 114}, {"time": 144237, "pitch": 53, "duration": 71, "velocity": 127}, {"time": 144237, "pitch": 56, "duration": 71, "velocity": 114}, {"time": 144237, "pitch": 65, "duration": 50, "velocity": 110}, {"time": 144358, "pitch": 53, "duration": 100, "velocity": 127}, {"time": 144358, "pitch": 56, "duration": 110, "velocity": 122}, {"time": 144358, "pitch": 60, "duration": 40, "velocity": 106}, {"time": 144358, "pitch": 65, "duration": 100, "velocity": 127}, {"time": 144478, "pitch": 52, "duration": 231, "velocity": 90}, {"time": 144478, "pitch": 55, "duration": 231, "velocity": 95}, {"time": 144488, "pitch": 60, "duration": 221, "velocity": 106}, {"time": 144488, "pitch": 64, "duration": 221, "velocity": 127}, {"time": 144719, "pitch": 52, "duration": 80, "velocity": 91}, {"time": 144719, "pitch": 55, "duration": 80, "velocity": 97}, {"time": 144729, "pitch": 60, "duration": 70, "velocity": 78}, {"time": 144729, "pitch": 64, "duration": 50, "velocity": 92}, {"time": 144839, "pitch": 60, "duration": 91, "velocity": 109}, {"time": 144839, "pitch": 64, "duration": 91, "velocity": 108}, {"time": 144850, "pitch": 52, "duration": 80, "velocity": 114}, {"time": 144850, "pitch": 55, "duration": 80, "velocity": 103}, {"time": 144960, "pitch": 52, "duration": 231, "velocity": 90}, {"time": 144960, "pitch": 55, "duration": 231, "velocity": 95}, {"time": 144970, "pitch": 60, "duration": 221, "velocity": 106}, {"time": 144970, "pitch": 64, "duration": 221, "velocity": 127}, {"time": 145201, "pitch": 52, "duration": 80, "velocity": 91}, {"time": 145201, "pitch": 55, "duration": 80, "velocity": 97}, {"time": 145211, "pitch": 60, "duration": 70, "velocity": 78}, {"time": 145211, "pitch": 64, "duration": 50, "velocity": 92}, {"time": 145321, "pitch": 60, "duration": 91, "velocity": 109}, {"time": 145321, "pitch": 64, "duration": 91, "velocity": 108}, {"time": 145331, "pitch": 52, "duration": 81, "velocity": 114}, {"time": 145331, "pitch": 55, "duration": 81, "velocity": 103}, {"time": 145442, "pitch": 52, "duration": 231, "velocity": 90}, {"time": 145442, "pitch": 55, "duration": 231, "velocity": 95}, {"time": 145452, "pitch": 60, "duration": 221, "velocity": 106}, {"time": 145452, "pitch": 64, "duration": 221, "velocity": 112}, {"time": 145683, "pitch": 52, "duration": 70, "velocity": 127}, {"time": 145683, "pitch": 55, "duration": 60, "velocity": 100}, {"time": 145683, "pitch": 64, "duration": 40, "velocity": 112}, {"time": 145803, "pitch": 52, "duration": 70, "velocity": 110}, {"time": 145803, "pitch": 55, "duration": 70, "velocity": 122}, {"time": 145803, "pitch": 60, "duration": 50, "velocity": 91}, {"time": 145803, "pitch": 64, "duration": 70, "velocity": 120}, {"time": 145923, "pitch": 52, "duration": 197, "velocity": 127}, {"time": 145923, "pitch": 55, "duration": 168, "velocity": 127}, {"time": 145933, "pitch": 60, "duration": 177, "velocity": 117}, {"time": 145943, "pitch": 64, "duration": 157, "velocity": 114}, {"time": 146159, "pitch": 52, "duration": 69, "velocity": 127}, {"time": 146159, "pitch": 55, "duration": 69, "velocity": 114}, {"time": 146159, "pitch": 64, "duration": 50, "velocity": 110}, {"time": 146277, "pitch": 52, "duration": 99, "velocity": 127}, {"time": 146277, "pitch": 55, "duration": 109, "velocity": 122}, {"time": 146277, "pitch": 60, "duration": 40, "velocity": 106}, {"time": 146277, "pitch": 64, "duration": 99, "velocity": 127}, {"time": 146396, "pitch": 51, "duration": 230, "velocity": 90}, {"time": 146396, "pitch": 54, "duration": 230, "velocity": 95}, {"time": 146405, "pitch": 58, "duration": 221, "velocity": 106}, {"time": 146405, "pitch": 63, "duration": 221, "velocity": 127}, {"time": 146636, "pitch": 51, "duration": 81, "velocity": 91}, {"time": 146636, "pitch": 54, "duration": 81, "velocity": 97}, {"time": 146646, "pitch": 58, "duration": 71, "velocity": 78}, {"time": 146646, "pitch": 63, "duration": 51, "velocity": 92}, {"time": 146757, "pitch": 58, "duration": 90, "velocity": 109}, {"time": 146757, "pitch": 63, "duration": 90, "velocity": 108}, {"time": 146767, "pitch": 51, "duration": 80, "velocity": 114}, {"time": 146767, "pitch": 54, "duration": 80, "velocity": 103}, {"time": 146877, "pitch": 51, "duration": 231, "velocity": 90}, {"time": 146877, "pitch": 54, "duration": 231, "velocity": 95}, {"time": 146887, "pitch": 58, "duration": 221, "velocity": 106}, {"time": 146887, "pitch": 63, "duration": 221, "velocity": 127}, {"time": 147118, "pitch": 51, "duration": 80, "velocity": 91}, {"time": 147118, "pitch": 54, "duration": 80, "velocity": 97}, {"time": 147128, "pitch": 58, "duration": 70, "velocity": 78}, {"time": 147128, "pitch": 63, "duration": 50, "velocity": 92}, {"time": 147239, "pitch": 58, "duration": 90, "velocity": 109}, {"time": 147239, "pitch": 63, "duration": 90, "velocity": 108}, {"time": 147249, "pitch": 51, "duration": 80, "velocity": 114}, {"time": 147249, "pitch": 54, "duration": 80, "velocity": 103}, {"time": 147359, "pitch": 51, "duration": 231, "velocity": 90}, {"time": 147359, "pitch": 54, "duration": 231, "velocity": 95}, {"time": 147369, "pitch": 58, "duration": 221, "velocity": 106}, {"time": 147369, "pitch": 63, "duration": 221, "velocity": 112}, {"time": 147600, "pitch": 51, "duration": 70, "velocity": 127}, {"time": 147600, "pitch": 54, "duration": 60, "velocity": 100}, {"time": 147600, "pitch": 63, "duration": 40, "velocity": 112}, {"time": 147720, "pitch": 51, "duration": 71, "velocity": 110}, {"time": 147720, "pitch": 54, "duration": 71, "velocity": 122}, {"time": 147720, "pitch": 58, "duration": 50, "velocity": 91}, {"time": 147720, "pitch": 63, "duration": 71, "velocity": 120}, {"time": 147841, "pitch": 51, "duration": 200, "velocity": 127}, {"time": 147841, "pitch": 54, "duration": 170, "velocity": 127}, {"time": 147851, "pitch": 58, "duration": 180, "velocity": 117}, {"time": 147861, "pitch": 63, "duration": 160, "velocity": 114}, {"time": 148082, "pitch": 51, "duration": 70, "velocity": 127}, {"time": 148082, "pitch": 54, "duration": 70, "velocity": 114}, {"time": 148082, "pitch": 63, "duration": 50, "velocity": 110}, {"time": 148202, "pitch": 51, "duration": 100, "velocity": 127}, {"time": 148202, "pitch": 54, "duration": 110, "velocity": 122}, {"time": 148202, "pitch": 58, "duration": 40, "velocity": 106}, {"time": 148202, "pitch": 63, "duration": 100, "velocity": 127}, {"time": 148322, "pitch": 53, "duration": 231, "velocity": 90}, {"time": 148322, "pitch": 58, "duration": 231, "velocity": 95}, {"time": 148333, "pitch": 62, "duration": 220, "velocity": 106}, {"time": 148333, "pitch": 65, "duration": 220, "velocity": 127}, {"time": 148563, "pitch": 53, "duration": 81, "velocity": 91}, {"time": 148563, "pitch": 58, "duration": 81, "velocity": 97}, {"time": 148573, "pitch": 62, "duration": 71, "velocity": 78}, {"time": 148573, "pitch": 65, "duration": 51, "velocity": 92}, {"time": 148684, "pitch": 62, "duration": 90, "velocity": 109}, {"time": 148684, "pitch": 65, "duration": 90, "velocity": 108}, {"time": 148694, "pitch": 53, "duration": 80, "velocity": 114}, {"time": 148694, "pitch": 58, "duration": 80, "velocity": 103}, {"time": 148804, "pitch": 53, "duration": 226, "velocity": 90}, {"time": 148804, "pitch": 58, "duration": 226, "velocity": 95}, {"time": 148814, "pitch": 62, "duration": 216, "velocity": 106}, {"time": 148814, "pitch": 65, "duration": 216, "velocity": 127}, {"time": 149040, "pitch": 53, "duration": 79, "velocity": 91}, {"time": 149040, "pitch": 58, "duration": 79, "velocity": 97}, {"time": 149050, "pitch": 62, "duration": 69, "velocity": 78}, {"time": 149050, "pitch": 65, "duration": 49, "velocity": 92}, {"time": 149158, "pitch": 62, "duration": 89, "velocity": 109}, {"time": 149158, "pitch": 65, "duration": 89, "velocity": 108}, {"time": 149168, "pitch": 53, "duration": 79, "velocity": 114}, {"time": 149168, "pitch": 58, "duration": 79, "velocity": 103}, {"time": 149276, "pitch": 53, "duration": 231, "velocity": 90}, {"time": 149276, "pitch": 58, "duration": 231, "velocity": 95}, {"time": 149286, "pitch": 62, "duration": 221, "velocity": 106}, {"time": 149286, "pitch": 65, "duration": 221, "velocity": 112}, {"time": 149517, "pitch": 53, "duration": 70, "velocity": 127}, {"time": 149517, "pitch": 58, "duration": 60, "velocity": 100}, {"time": 149517, "pitch": 65, "duration": 40, "velocity": 112}, {"time": 149638, "pitch": 53, "duration": 70, "velocity": 110}, {"time": 149638, "pitch": 58, "duration": 70, "velocity": 122}, {"time": 149638, "pitch": 62, "duration": 50, "velocity": 91}, {"time": 149638, "pitch": 65, "duration": 70, "velocity": 120}, {"time": 149758, "pitch": 53, "duration": 201, "velocity": 127}, {"time": 149758, "pitch": 58, "duration": 171, "velocity": 127}, {"time": 149768, "pitch": 62, "duration": 181, "velocity": 117}, {"time": 149778, "pitch": 65, "duration": 161, "velocity": 114}, {"time": 149999, "pitch": 53, "duration": 70, "velocity": 127}, {"time": 149999, "pitch": 58, "duration": 70, "velocity": 114}, {"time": 149999, "pitch": 65, "duration": 50, "velocity": 110}, {"time": 150119, "pitch": 53, "duration": 101, "velocity": 127}, {"time": 150119, "pitch": 58, "duration": 111, "velocity": 122}, {"time": 150119, "pitch": 62, "duration": 40, "velocity": 106}, {"time": 150119, "pitch": 65, "duration": 101, "velocity": 127}, {"time": 150240, "pitch": 53, "duration": 231, "velocity": 90}, {"time": 150240, "pitch": 58, "duration": 231, "velocity": 95}, {"time": 150250, "pitch": 61, "duration": 221, "velocity": 106}, {"time": 150250, "pitch": 65, "duration": 221, "velocity": 127}, {"time": 150481, "pitch": 53, "duration": 80, "velocity": 91}, {"time": 150481, "pitch": 58, "duration": 80, "velocity": 97}, {"time": 150491, "pitch": 61, "duration": 70, "velocity": 78}, {"time": 150491, "pitch": 65, "duration": 50, "velocity": 92}, {"time": 150601, "pitch": 61, "duration": 90, "velocity": 109}, {"time": 150601, "pitch": 65, "duration": 90, "velocity": 108}, {"time": 150611, "pitch": 53, "duration": 80, "velocity": 114}, {"time": 150611, "pitch": 58, "duration": 80, "velocity": 103}, {"time": 150722, "pitch": 53, "duration": 230, "velocity": 90}, {"time": 150722, "pitch": 58, "duration": 230, "velocity": 95}, {"time": 150732, "pitch": 61, "duration": 220, "velocity": 106}, {"time": 150732, "pitch": 65, "duration": 220, "velocity": 127}, {"time": 150962, "pitch": 53, "duration": 81, "velocity": 91}, {"time": 150962, "pitch": 58, "duration": 81, "velocity": 97}, {"time": 150972, "pitch": 61, "duration": 71, "velocity": 78}, {"time": 150972, "pitch": 65, "duration": 51, "velocity": 92}, {"time": 151083, "pitch": 61, "duration": 90, "velocity": 109}, {"time": 151083, "pitch": 65, "duration": 90, "velocity": 108}, {"time": 151093, "pitch": 53, "duration": 80, "velocity": 114}, {"time": 151093, "pitch": 58, "duration": 80, "velocity": 103}, {"time": 151203, "pitch": 53, "duration": 226, "velocity": 90}, {"time": 151203, "pitch": 58, "duration": 226, "velocity": 95}, {"time": 151213, "pitch": 61, "duration": 216, "velocity": 106}, {"time": 151213, "pitch": 65, "duration": 216, "velocity": 112}, {"time": 151439, "pitch": 53, "duration": 69, "velocity": 127}, {"time": 151439, "pitch": 58, "duration": 59, "velocity": 100}, {"time": 151439, "pitch": 65, "duration": 40, "velocity": 112}, {"time": 151557, "pitch": 53, "duration": 69, "velocity": 110}, {"time": 151557, "pitch": 58, "duration": 69, "velocity": 122}, {"time": 151557, "pitch": 61, "duration": 49, "velocity": 91}, {"time": 151557, "pitch": 65, "duration": 69, "velocity": 120}, {"time": 151675, "pitch": 53, "duration": 201, "velocity": 127}, {"time": 151675, "pitch": 58, "duration": 171, "velocity": 127}, {"time": 151685, "pitch": 61, "duration": 181, "velocity": 117}, {"time": 151695, "pitch": 65, "duration": 161, "velocity": 114}, {"time": 151916, "pitch": 53, "duration": 70, "velocity": 127}, {"time": 151916, "pitch": 58, "duration": 70, "velocity": 114}, {"time": 151916, "pitch": 65, "duration": 50, "velocity": 110}, {"time": 152037, "pitch": 53, "duration": 100, "velocity": 127}, {"time": 152037, "pitch": 58, "duration": 110, "velocity": 122}, {"time": 152037, "pitch": 61, "duration": 40, "velocity": 106}, {"time": 152037, "pitch": 65, "duration": 100, "velocity": 127}, {"time": 152157, "pitch": 53, "duration": 231, "velocity": 90}, {"time": 152157, "pitch": 57, "duration": 231, "velocity": 95}, {"time": 152167, "pitch": 60, "duration": 221, "velocity": 106}, {"time": 152167, "pitch": 65, "duration": 221, "velocity": 127}, {"time": 152398, "pitch": 53, "duration": 80, "velocity": 91}, {"time": 152398, "pitch": 57, "duration": 80, "velocity": 97}, {"time": 152408, "pitch": 60, "duration": 70, "velocity": 78}, {"time": 152408, "pitch": 65, "duration": 50, "velocity": 92}, {"time": 152518, "pitch": 60, "duration": 91, "velocity": 109}, {"time": 152518, "pitch": 65, "duration": 91, "velocity": 108}, {"time": 152528, "pitch": 53, "duration": 81, "velocity": 114}, {"time": 152528, "pitch": 57, "duration": 81, "velocity": 103}, {"time": 152639, "pitch": 53, "duration": 231, "velocity": 90}, {"time": 152639, "pitch": 57, "duration": 231, "velocity": 95}, {"time": 152649, "pitch": 60, "duration": 221, "velocity": 106}, {"time": 152649, "pitch": 65, "duration": 221, "velocity": 127}, {"time": 152880, "pitch": 53, "duration": 80, "velocity": 91}, {"time": 152880, "pitch": 57, "duration": 80, "velocity": 97}, {"time": 152890, "pitch": 60, "duration": 70, "velocity": 78}, {"time": 152890, "pitch": 65, "duration": 50, "velocity": 92}, {"time": 153000, "pitch": 60, "duration": 90, "velocity": 109}, {"time": 153000, "pitch": 65, "duration": 90, "velocity": 108}, {"time": 153010, "pitch": 53, "duration": 80, "velocity": 114}, {"time": 153010, "pitch": 57, "duration": 80, "velocity": 103}, {"time": 153121, "pitch": 53, "duration": 230, "velocity": 90}, {"time": 153121, "pitch": 57, "duration": 230, "velocity": 95}, {"time": 153131, "pitch": 60, "duration": 220, "velocity": 106}, {"time": 153131, "pitch": 65, "duration": 220, "velocity": 112}, {"time": 153361, "pitch": 53, "duration": 71, "velocity": 127}, {"time": 153361, "pitch": 57, "duration": 61, "velocity": 100}, {"time": 153361, "pitch": 65, "duration": 41, "velocity": 112}, {"time": 153482, "pitch": 53, "duration": 70, "velocity": 110}, {"time": 153482, "pitch": 57, "duration": 70, "velocity": 122}, {"time": 153482, "pitch": 60, "duration": 50, "velocity": 91}, {"time": 153482, "pitch": 65, "duration": 70, "velocity": 120}, {"time": 153602, "pitch": 53, "duration": 201, "velocity": 127}, {"time": 153602, "pitch": 57, "duration": 171, "velocity": 127}, {"time": 153612, "pitch": 60, "duration": 181, "velocity": 117}, {"time": 153622, "pitch": 65, "duration": 161, "velocity": 114}, {"time": 153843, "pitch": 53, "duration": 70, "velocity": 127}, {"time": 153843, "pitch": 57, "duration": 70, "velocity": 114}, {"time": 153843, "pitch": 65, "duration": 50, "velocity": 110}, {"time": 153964, "pitch": 53, "duration": 100, "velocity": 127}, {"time": 153964, "pitch": 57, "duration": 110, "velocity": 122}, {"time": 153964, "pitch": 60, "duration": 40, "velocity": 106}, {"time": 153964, "pitch": 65, "duration": 100, "velocity": 127}, {"time": 154084, "pitch": 53, "duration": 226, "velocity": 90}, {"time": 154084, "pitch": 58, "duration": 226, "velocity": 95}, {"time": 154094, "pitch": 62, "duration": 216, "velocity": 106}, {"time": 154094, "pitch": 65, "duration": 216, "velocity": 127}, {"time": 154320, "pitch": 53, "duration": 79, "velocity": 91}, {"time": 154320, "pitch": 58, "duration": 79, "velocity": 97}, {"time": 154330, "pitch": 62, "duration": 69, "velocity": 78}, {"time": 154330, "pitch": 65, "duration": 49, "velocity": 92}, {"time": 154438, "pitch": 62, "duration": 89, "velocity": 109}, {"time": 154438, "pitch": 65, "duration": 89, "velocity": 108}, {"time": 154448, "pitch": 53, "duration": 79, "velocity": 114}, {"time": 154448, "pitch": 58, "duration": 79, "velocity": 103}, {"time": 154556, "pitch": 53, "duration": 231, "velocity": 90}, {"time": 154556, "pitch": 58, "duration": 231, "velocity": 95}, {"time": 154566, "pitch": 62, "duration": 221, "velocity": 106}, {"time": 154566, "pitch": 65, "duration": 221, "velocity": 127}, {"time": 154797, "pitch": 53, "duration": 80, "velocity": 91}, {"time": 154797, "pitch": 58, "duration": 80, "velocity": 97}, {"time": 154807, "pitch": 62, "duration": 70, "velocity": 78}, {"time": 154807, "pitch": 65, "duration": 50, "velocity": 92}, {"time": 154917, "pitch": 62, "duration": 91, "velocity": 109}, {"time": 154917, "pitch": 65, "duration": 91, "velocity": 108}, {"time": 154927, "pitch": 53, "duration": 81, "velocity": 114}, {"time": 154927, "pitch": 58, "duration": 81, "velocity": 103}, {"time": 155038, "pitch": 53, "duration": 231, "velocity": 90}, {"time": 155038, "pitch": 58, "duration": 231, "velocity": 95}, {"time": 155048, "pitch": 62, "duration": 221, "velocity": 106}, {"time": 155048, "pitch": 65, "duration": 221, "velocity": 112}, {"time": 155279, "pitch": 53, "duration": 70, "velocity": 127}, {"time": 155279, "pitch": 58, "duration": 60, "velocity": 100}, {"time": 155279, "pitch": 65, "duration": 40, "velocity": 112}, {"time": 155399, "pitch": 53, "duration": 70, "velocity": 110}, {"time": 155399, "pitch": 58, "duration": 70, "velocity": 122}, {"time": 155399, "pitch": 62, "duration": 50, "velocity": 91}, {"time": 155399, "pitch": 65, "duration": 70, "velocity": 120}, {"time": 155520, "pitch": 53, "duration": 200, "velocity": 127}, {"time": 155520, "pitch": 58, "duration": 170, "velocity": 127}, {"time": 155530, "pitch": 62, "duration": 180, "velocity": 117}, {"time": 155540, "pitch": 65, "duration": 160, "velocity": 114}, {"time": 155760, "pitch": 53, "duration": 71, "velocity": 127}, {"time": 155760, "pitch": 58, "duration": 71, "velocity": 114}, {"time": 155760, "pitch": 65, "duration": 51, "velocity": 110}, {"time": 155881, "pitch": 53, "duration": 100, "velocity": 127}, {"time": 155881, "pitch": 58, "duration": 110, "velocity": 122}, {"time": 155881, "pitch": 62, "duration": 40, "velocity": 106}, {"time": 155881, "pitch": 65, "duration": 100, "velocity": 127}, {"time": 156001, "pitch": 55, "duration": 231, "velocity": 90}, {"time": 156001, "pitch": 60, "duration": 231, "velocity": 95}, {"time": 156011, "pitch": 65, "duration": 221, "velocity": 106}, {"time": 156011, "pitch": 67, "duration": 221, "velocity": 127}, {"time": 156242, "pitch": 55, "duration": 81, "velocity": 91}, {"time": 156242, "pitch": 60, "duration": 81, "velocity": 97}, {"time": 156252, "pitch": 65, "duration": 71, "velocity": 78}, {"time": 156252, "pitch": 67, "duration": 50, "velocity": 92}, {"time": 156363, "pitch": 65, "duration": 90, "velocity": 109}, {"time": 156363, "pitch": 67, "duration": 90, "velocity": 108}, {"time": 156373, "pitch": 55, "duration": 80, "velocity": 114}, {"time": 156373, "pitch": 60, "duration": 80, "velocity": 103}, {"time": 156483, "pitch": 55, "duration": 231, "velocity": 90}, {"time": 156483, "pitch": 60, "duration": 231, "velocity": 95}, {"time": 156493, "pitch": 65, "duration": 221, "velocity": 106}, {"time": 156493, "pitch": 67, "duration": 221, "velocity": 127}, {"time": 156724, "pitch": 55, "duration": 80, "velocity": 91}, {"time": 156724, "pitch": 60, "duration": 80, "velocity": 97}, {"time": 156734, "pitch": 65, "duration": 70, "velocity": 78}, {"time": 156734, "pitch": 67, "duration": 50, "velocity": 92}, {"time": 156844, "pitch": 65, "duration": 91, "velocity": 109}, {"time": 156844, "pitch": 67, "duration": 91, "velocity": 108}, {"time": 156854, "pitch": 55, "duration": 81, "velocity": 114}, {"time": 156854, "pitch": 60, "duration": 81, "velocity": 103}, {"time": 156965, "pitch": 55, "duration": 226, "velocity": 90}, {"time": 156965, "pitch": 60, "duration": 226, "velocity": 95}, {"time": 156975, "pitch": 64, "duration": 216, "velocity": 106}, {"time": 156975, "pitch": 67, "duration": 216, "velocity": 112}, {"time": 157201, "pitch": 55, "duration": 69, "velocity": 127}, {"time": 157201, "pitch": 60, "duration": 59, "velocity": 100}, {"time": 157201, "pitch": 67, "duration": 39, "velocity": 112}, {"time": 157319, "pitch": 55, "duration": 69, "velocity": 110}, {"time": 157319, "pitch": 60, "duration": 69, "velocity": 122}, {"time": 157319, "pitch": 64, "duration": 49, "velocity": 91}, {"time": 157319, "pitch": 67, "duration": 69, "velocity": 120}, {"time": 157437, "pitch": 55, "duration": 201, "velocity": 127}, {"time": 157437, "pitch": 60, "duration": 170, "velocity": 127}, {"time": 157447, "pitch": 64, "duration": 181, "velocity": 117}, {"time": 157457, "pitch": 67, "duration": 161, "velocity": 114}, {"time": 157678, "pitch": 55, "duration": 70, "velocity": 127}, {"time": 157678, "pitch": 60, "duration": 70, "velocity": 114}, {"time": 157678, "pitch": 67, "duration": 50, "velocity": 110}, {"time": 157798, "pitch": 55, "duration": 101, "velocity": 127}, {"time": 157798, "pitch": 60, "duration": 111, "velocity": 122}, {"time": 157798, "pitch": 64, "duration": 40, "velocity": 106}, {"time": 157798, "pitch": 67, "duration": 101, "velocity": 127}, {"time": 8397, "pitch": 53, "duration": 221, "velocity": 70}, {"time": 8638, "pitch": 53, "duration": 421, "velocity": 70}, {"time": 9120, "pitch": 53, "duration": 451, "velocity": 70}, {"time": 9842, "pitch": 53, "duration": 221, "velocity": 70}, {"time": 10319, "pitch": 53, "duration": 217, "velocity": 70}, {"time": 10796, "pitch": 52, "duration": 221, "velocity": 70}, {"time": 11278, "pitch": 53, "duration": 702, "velocity": 70}, {"time": 12241, "pitch": 53, "duration": 221, "velocity": 70}, {"time": 12482, "pitch": 53, "duration": 392, "velocity": 70}, {"time": 12964, "pitch": 53, "duration": 472, "velocity": 70}, {"time": 13677, "pitch": 53, "duration": 221, "velocity": 70}, {"time": 14159, "pitch": 53, "duration": 220, "velocity": 70}, {"time": 14640, "pitch": 52, "duration": 221, "velocity": 70}, {"time": 15122, "pitch": 53, "duration": 703, "velocity": 70}, {"time": 16081, "pitch": 53, "duration": 216, "velocity": 70}, {"time": 16317, "pitch": 53, "duration": 421, "velocity": 70}, {"time": 16799, "pitch": 53, "duration": 451, "velocity": 70}, {"time": 17521, "pitch": 53, "duration": 221, "velocity": 70}, {"time": 18003, "pitch": 53, "duration": 221, "velocity": 70}, {"time": 18480, "pitch": 52, "duration": 216, "velocity": 70}, {"time": 18957, "pitch": 53, "duration": 702, "velocity": 70}, {"time": 19920, "pitch": 53, "duration": 221, "velocity": 70}, {"time": 20161, "pitch": 53, "duration": 422, "velocity": 70}, {"time": 20643, "pitch": 53, "duration": 452, "velocity": 70}, {"time": 21361, "pitch": 53, "duration": 216, "velocity": 70}, {"time": 21837, "pitch": 53, "duration": 221, "velocity": 70}, {"time": 22319, "pitch": 52, "duration": 221, "velocity": 70}, {"time": 22801, "pitch": 53, "duration": 703, "velocity": 70}, {"time": 23760, "pitch": 53, "duration": 216, "velocity": 70}, {"time": 23996, "pitch": 53, "duration": 421, "velocity": 70}, {"time": 24477, "pitch": 53, "duration": 452, "velocity": 70}, {"time": 25200, "pitch": 53, "duration": 221, "velocity": 70}, {"time": 25682, "pitch": 53, "duration": 221, "velocity": 70}, {"time": 26164, "pitch": 52, "duration": 220, "velocity": 70}, {"time": 26640, "pitch": 53, "duration": 698, "velocity": 70}, {"time": 27599, "pitch": 53, "duration": 221, "velocity": 70}, {"time": 27840, "pitch": 53, "duration": 422, "velocity": 70}, {"time": 28322, "pitch": 53, "duration": 451, "velocity": 70}, {"time": 29040, "pitch": 53, "duration": 216, "velocity": 70}, {"time": 29516, "pitch": 53, "duration": 221, "velocity": 70}, {"time": 29998, "pitch": 52, "duration": 221, "velocity": 70}, {"time": 30480, "pitch": 53, "duration": 702, "velocity": 70}, {"time": 188880, "pitch": 53, "duration": 216, "velocity": 70}, {"time": 189116, "pitch": 53, "duration": 421, "velocity": 70}, {"time": 189598, "pitch": 53, "duration": 451, "velocity": 70}, {"time": 190320, "pitch": 53, "duration": 221, "velocity": 70}, {"time": 190802, "pitch": 53, "duration": 221, "velocity": 70}, {"time": 191284, "pitch": 52, "duration": 221, "velocity": 70}, {"time": 191761, "pitch": 53, "duration": 697, "velocity": 70}, {"time": 192719, "pitch": 53, "duration": 221, "velocity": 70}, {"time": 192960, "pitch": 53, "duration": 422, "velocity": 70}, {"time": 193442, "pitch": 53, "duration": 452, "velocity": 70}, {"time": 194160, "pitch": 53, "duration": 216, "velocity": 70}, {"time": 194637, "pitch": 53, "duration": 220, "velocity": 70}, {"time": 195118, "pitch": 52, "duration": 221, "velocity": 70}, {"time": 195600, "pitch": 53, "duration": 703, "velocity": 70}, {"time": 196564, "pitch": 53, "duration": 220, "velocity": 70}, {"time": 196804, "pitch": 53, "duration": 414, "velocity": 70}, {"time": 197277, "pitch": 53, "duration": 451, "velocity": 70}, {"time": 197999, "pitch": 53, "duration": 221, "velocity": 70}, {"time": 198481, "pitch": 53, "duration": 221, "velocity": 70}, {"time": 198963, "pitch": 52, "duration": 221, "velocity": 70}, {"time": 199440, "pitch": 53, "duration": 697, "velocity": 70}, {"time": 200398, "pitch": 53, "duration": 221, "velocity": 70}, {"time": 200639, "pitch": 53, "duration": 422, "velocity": 70}, {"time": 201121, "pitch": 53, "duration": 452, "velocity": 70}, {"time": 201843, "pitch": 53, "duration": 221, "velocity": 70}, {"time": 202320, "pitch": 53, "duration": 217, "velocity": 70}, {"time": 202797, "pitch": 52, "duration": 221, "velocity": 70}, {"time": 203279, "pitch": 53, "duration": 703, "velocity": 70}, {"time": 204243, "pitch": 53, "duration": 220, "velocity": 70}, {"time": 204483, "pitch": 53, "duration": 413, "velocity": 70}, {"time": 204955, "pitch": 53, "duration": 452, "velocity": 70}, {"time": 205678, "pitch": 53, "duration": 221, "velocity": 70}, {"time": 206160, "pitch": 53, "duration": 221, "velocity": 70}, {"time": 206642, "pitch": 52, "duration": 220, "velocity": 70}, {"time": 207123, "pitch": 53, "duration": 694, "velocity": 70}, {"time": 208077, "pitch": 53, "duration": 221, "velocity": 70}, {"time": 208318, "pitch": 53, "duration": 421, "velocity": 70}, {"time": 208800, "pitch": 53, "duration": 451, "velocity": 70}, {"time": 209522, "pitch": 53, "duration": 221, "velocity": 70}, {"time": 209999, "pitch": 53, "duration": 217, "velocity": 70}, {"time": 210476, "pitch": 52, "duration": 221, "velocity": 70}, {"time": 210958, "pitch": 53, "duration": 702, "velocity": 70}, {"time": 211921, "pitch": 53, "duration": 221, "velocity": 70}, {"time": 212162, "pitch": 53, "duration": 422, "velocity": 70}, {"time": 212644, "pitch": 53, "duration": 443, "velocity": 70}, {"time": 213357, "pitch": 53, "duration": 221, "velocity": 70}, {"time": 213839, "pitch": 53, "duration": 220, "velocity": 70}, {"time": 214320, "pitch": 53, "duration": 854, "velocity": 70}, {"time": 63835, "pitch": 57, "duration": 241, "velocity": 79}, {"time": 64076, "pitch": 55, "duration": 281, "velocity": 93}, {"time": 64317, "pitch": 57, "duration": 231, "velocity": 79}, {"time": 64558, "pitch": 53, "duration": 291, "velocity": 104}, {"time": 65040, "pitch": 53, "duration": 311, "velocity": 104}, {"time": 65521, "pitch": 53, "duration": 211, "velocity": 96}, {"time": 65762, "pitch": 50, "duration": 241, "velocity": 117}, {"time": 66003, "pitch": 52, "duration": 211, "velocity": 96}, {"time": 66244, "pitch": 53, "duration": 207, "velocity": 87}, {"time": 66480, "pitch": 52, "duration": 387, "velocity": 104}, {"time": 66957, "pitch": 52, "duration": 221, "velocity": 104}, {"time": 67198, "pitch": 53, "duration": 231, "velocity": 96}, {"time": 67439, "pitch": 55, "duration": 170, "velocity": 87}, {"time": 67680, "pitch": 57, "duration": 230, "velocity": 96}, {"time": 67921, "pitch": 55, "duration": 200, "velocity": 115}, {"time": 68161, "pitch": 57, "duration": 231, "velocity": 96}, {"time": 68402, "pitch": 53, "duration": 428, "velocity": 104}, {"time": 68879, "pitch": 58, "duration": 377, "velocity": 117}, {"time": 69356, "pitch": 57, "duration": 442, "velocity": 104}, {"time": 69838, "pitch": 55, "duration": 221, "velocity": 102}, {"time": 70079, "pitch": 57, "duration": 190, "velocity": 93}, {"time": 70320, "pitch": 57, "duration": 411, "velocity": 102}, {"time": 70801, "pitch": 52, "duration": 231, "velocity": 104}, {"time": 71042, "pitch": 53, "duration": 221, "velocity": 115}, {"time": 71283, "pitch": 55, "duration": 231, "velocity": 96}, {"time": 71524, "pitch": 57, "duration": 216, "velocity": 115}, {"time": 71760, "pitch": 55, "duration": 207, "velocity": 104}, {"time": 71996, "pitch": 57, "duration": 221, "velocity": 79}, {"time": 72237, "pitch": 53, "duration": 351, "velocity": 115}, {"time": 72719, "pitch": 53, "duration": 271, "velocity": 117}, {"time": 73200, "pitch": 53, "duration": 211, "velocity": 115}, {"time": 73441, "pitch": 50, "duration": 251, "velocity": 115}, {"time": 73682, "pitch": 52, "duration": 181, "velocity": 96}, {"time": 73923, "pitch": 53, "duration": 201, "velocity": 85}, {"time": 74164, "pitch": 52, "duration": 863, "velocity": 90}, {"time": 119524, "pitch": 57, "duration": 236, "velocity": 79}, {"time": 119760, "pitch": 55, "duration": 276, "velocity": 93}, {"time": 119996, "pitch": 57, "duration": 231, "velocity": 79}, {"time": 120237, "pitch": 53, "duration": 291, "velocity": 104}, {"time": 120719, "pitch": 53, "duration": 311, "velocity": 104}, {"time": 121201, "pitch": 53, "duration": 210, "velocity": 96}, {"time": 121442, "pitch": 50, "duration": 240, "velocity": 117}, {"time": 121682, "pitch": 52, "duration": 211, "velocity": 96}, {"time": 121923, "pitch": 53, "duration": 207, "velocity": 87}, {"time": 122159, "pitch": 52, "duration": 387, "velocity": 104}, {"time": 122636, "pitch": 52, "duration": 221, "velocity": 104}, {"time": 122877, "pitch": 53, "duration": 231, "velocity": 96}, {"time": 123118, "pitch": 55, "duration": 171, "velocity": 87}, {"time": 123359, "pitch": 57, "duration": 231, "velocity": 96}, {"time": 123600, "pitch": 55, "duration": 200, "velocity": 115}, {"time": 123841, "pitch": 57, "duration": 230, "velocity": 96}, {"time": 124081, "pitch": 53, "duration": 432, "velocity": 104}, {"time": 124563, "pitch": 60, "duration": 379, "velocity": 90}, {"time": 125040, "pitch": 57, "duration": 437, "velocity": 104}, {"time": 125517, "pitch": 55, "duration": 221, "velocity": 102}, {"time": 125758, "pitch": 57, "duration": 191, "velocity": 93}, {"time": 125999, "pitch": 57, "duration": 411, "velocity": 102}, {"time": 126480, "pitch": 52, "duration": 231, "velocity": 104}, {"time": 126721, "pitch": 53, "duration": 221, "velocity": 115}, {"time": 126962, "pitch": 55, "duration": 231, "velocity": 96}, {"time": 127203, "pitch": 57, "duration": 216, "velocity": 115}, {"time": 127439, "pitch": 55, "duration": 207, "velocity": 104}, {"time": 127675, "pitch": 57, "duration": 221, "velocity": 79}, {"time": 127916, "pitch": 53, "duration": 351, "velocity": 115}, {"time": 128398, "pitch": 53, "duration": 271, "velocity": 117}, {"time": 128880, "pitch": 53, "duration": 210, "velocity": 115}, {"time": 129120, "pitch": 50, "duration": 251, "velocity": 115}, {"time": 129361, "pitch": 52, "duration": 181, "velocity": 96}, {"time": 129602, "pitch": 53, "duration": 201, "velocity": 85}, {"time": 129843, "pitch": 52, "duration": 863, "velocity": 90}, {"time": 157919, "pitch": 57, "duration": 241, "velocity": 79}, {"time": 158160, "pitch": 55, "duration": 281, "velocity": 93}, {"time": 158400, "pitch": 57, "duration": 231, "velocity": 79}, {"time": 158641, "pitch": 53, "duration": 291, "velocity": 104}, {"time": 159123, "pitch": 53, "duration": 310, "velocity": 104}, {"time": 159600, "pitch": 53, "duration": 206, "velocity": 96}, {"time": 159836, "pitch": 50, "duration": 241, "velocity": 117}, {"time": 160077, "pitch": 52, "duration": 211, "velocity": 96}, {"time": 160318, "pitch": 53, "duration": 210, "velocity": 87}, {"time": 160559, "pitch": 52, "duration": 391, "velocity": 104}, {"time": 161040, "pitch": 52, "duration": 221, "velocity": 104}, {"time": 161281, "pitch": 53, "duration": 231, "velocity": 96}, {"time": 161522, "pitch": 55, "duration": 171, "velocity": 87}, {"time": 161763, "pitch": 57, "duration": 231, "velocity": 96}, {"time": 162004, "pitch": 55, "duration": 201, "velocity": 115}, {"time": 162245, "pitch": 57, "duration": 226, "velocity": 96}, {"time": 162481, "pitch": 53, "duration": 426, "velocity": 104}, {"time": 162958, "pitch": 58, "duration": 381, "velocity": 117}, {"time": 163439, "pitch": 57, "duration": 442, "velocity": 104}, {"time": 163921, "pitch": 55, "duration": 221, "velocity": 102}, {"time": 164162, "pitch": 57, "duration": 191, "velocity": 93}, {"time": 164403, "pitch": 57, "duration": 408, "velocity": 102}, {"time": 164880, "pitch": 52, "duration": 226, "velocity": 104}, {"time": 165116, "pitch": 53, "duration": 221, "velocity": 115}, {"time": 165357, "pitch": 55, "duration": 230, "velocity": 96}, {"time": 165597, "pitch": 57, "duration": 221, "velocity": 115}, {"time": 165838, "pitch": 55, "duration": 211, "velocity": 104}, {"time": 166079, "pitch": 57, "duration": 221, "velocity": 79}, {"time": 166320, "pitch": 53, "duration": 351, "velocity": 115}, {"time": 166802, "pitch": 53, "duration": 271, "velocity": 117}, {"time": 167284, "pitch": 53, "duration": 210, "velocity": 115}, {"time": 167524, "pitch": 50, "duration": 246, "velocity": 115}, {"time": 167761, "pitch": 52, "duration": 177, "velocity": 96}, {"time": 167997, "pitch": 53, "duration": 200, "velocity": 85}, {"time": 168237, "pitch": 52, "duration": 874, "velocity": 90}, {"time": 173276, "pitch": 57, "duration": 241, "velocity": 79}, {"time": 173517, "pitch": 55, "duration": 281, "velocity": 93}, {"time": 173758, "pitch": 57, "duration": 231, "velocity": 79}, {"time": 173999, "pitch": 53, "duration": 291, "velocity": 104}, {"time": 174481, "pitch": 53, "duration": 311, "velocity": 104}, {"time": 174963, "pitch": 53, "duration": 210, "velocity": 96}, {"time": 175203, "pitch": 50, "duration": 236, "velocity": 117}, {"time": 175439, "pitch": 52, "duration": 207, "velocity": 96}, {"time": 175675, "pitch": 53, "duration": 211, "velocity": 87}, {"time": 175916, "pitch": 52, "duration": 392, "velocity": 104}, {"time": 176398, "pitch": 52, "duration": 221, "velocity": 104}, {"time": 176639, "pitch": 53, "duration": 231, "velocity": 96}, {"time": 176880, "pitch": 55, "duration": 170, "velocity": 87}, {"time": 177121, "pitch": 57, "duration": 231, "velocity": 96}, {"time": 177362, "pitch": 55, "duration": 200, "velocity": 115}, {"time": 177602, "pitch": 57, "duration": 231, "velocity": 96}, {"time": 177843, "pitch": 53, "duration": 428, "velocity": 104}, {"time": 178320, "pitch": 58, "duration": 377, "velocity": 117}, {"time": 178797, "pitch": 57, "duration": 442, "velocity": 104}, {"time": 179279, "pitch": 55, "duration": 221, "velocity": 102}, {"time": 179520, "pitch": 57, "duration": 190, "velocity": 93}, {"time": 179761, "pitch": 57, "duration": 411, "velocity": 102}, {"time": 180242, "pitch": 52, "duration": 231, "velocity": 104}, {"time": 180483, "pitch": 53, "duration": 217, "velocity": 115}, {"time": 180719, "pitch": 55, "duration": 226, "velocity": 96}, {"time": 180955, "pitch": 57, "duration": 221, "velocity": 115}, {"time": 181196, "pitch": 55, "duration": 211, "velocity": 104}, {"time": 181437, "pitch": 57, "duration": 221, "velocity": 79}, {"time": 181678, "pitch": 53, "duration": 351, "velocity": 115}, {"time": 182160, "pitch": 53, "duration": 271, "velocity": 117}, {"time": 182641, "pitch": 53, "duration": 211, "velocity": 115}, {"time": 182882, "pitch": 50, "duration": 251, "velocity": 115}, {"time": 183123, "pitch": 52, "duration": 181, "velocity": 96}, {"time": 183364, "pitch": 53, "duration": 197, "velocity": 85}, {"time": 183600, "pitch": 52, "duration": 868, "velocity": 90}]}]}