{"metadata": {"schema_version": "0.1", "title": "RWC-MDB-P-2001 No. 9: Doukoku / Kazuo Nishi", "copyright": "RWC Music Database. Copyright (C) 2001 Real World Computing Partnership (contact: Masataka GOTO <m.goto@aist.go.jp>)", "source_filename": "RM-P009.SMF_SYNC.MID", "source_format": "midi"}, "resolution": 480, "tempos": [{"time": 0, "qpm": 41.37931034482759}, {"time": 480, "qpm": 69.76744186046511}, {"time": 1440, "qpm": 70.58823529411765}, {"time": 1920, "qpm": 69.76744186046511}, {"time": 3360, "qpm": 70.58823529411765}, {"time": 3840, "qpm": 69.76744186046511}, {"time": 4800, "qpm": 70.58823529411765}, {"time": 5280, "qpm": 69.76744186046511}, {"time": 6720, "qpm": 70.58823529411765}, {"time": 7200, "qpm": 69.76744186046511}, {"time": 8160, "qpm": 70.58823529411765}, {"time": 8640, "qpm": 69.76744186046511}, {"time": 10080, "qpm": 70.58823529411765}, {"time": 10560, "qpm": 69.76744186046511}, {"time": 11520, "qpm": 70.58823529411765}, {"time": 12000, "qpm": 69.76744186046511}, {"time": 13440, "qpm": 70.58823529411765}, {"time": 13920, "qpm": 69.76744186046511}, {"time": 14880, "qpm": 70.58823529411765}, {"time": 15360, "qpm": 69.76744186046511}, {"time": 16320, "qpm": 70.58823529411765}, {"time": 16800, "qpm": 69.76744186046511}, {"time": 18240, "qpm": 70.58823529411765}, {"time": 18720, "qpm": 69.76744186046511}, {"time": 19680, "qpm": 70.58823529411765}, {"time": 20160, "qpm": 69.76744186046511}, {"time": 21600, "qpm": 70.58823529411765}, {"time": 22080, "qpm": 69.76744186046511}, {"time": 23040, "qpm": 70.58823529411765}, {"time": 23520, "qpm": 69.76744186046511}, {"time": 24960, "qpm": 70.58823529411765}, {"time": 25440, "qpm": 69.76744186046511}, {"time": 26400, "qpm": 70.58823529411765}, {"time": 26880, "qpm": 69.76744186046511}, {"time": 27840, "qpm": 70.58823529411765}, {"time": 28320, "qpm": 69.76744186046511}, {"time": 29760, "qpm": 70.58823529411765}, {"time": 30240, "qpm": 69.76744186046511}, {"time": 31200, "qpm": 70.58823529411765}, {"time": 31680, "qpm": 69.76744186046511}, {"time": 33120, "qpm": 70.58823529411765}, {"time": 33600, "qpm": 69.76744186046511}, {"time": 34560, "qpm": 70.58823529411765}, {"time": 35040, "qpm": 69.76744186046511}, {"time": 36480, "qpm": 70.58823529411765}, {"time": 36960, "qpm": 69.76744186046511}, {"time": 37920, "qpm": 70.58823529411765}, {"time": 38400, "qpm": 69.76744186046511}, {"time": 39360, "qpm": 70.58823529411765}, {"time": 39840, "qpm": 69.76744186046511}, {"time": 41280, "qpm": 70.58823529411765}, {"time": 41760, "qpm": 69.76744186046511}, {"time": 42720, "qpm": 70.58823529411765}, {"time": 43200, "qpm": 69.76744186046511}, {"time": 44640, "qpm": 70.58823529411765}, {"time": 45120, "qpm": 69.76744186046511}, {"time": 46560, "qpm": 70.58823529411765}, {"time": 47040, "qpm": 69.76744186046511}, {"time": 47520, "qpm": 70.58823529411765}, {"time": 48000, "qpm": 69.76744186046511}, {"time": 49440, "qpm": 70.58823529411765}, {"time": 49920, "qpm": 69.76744186046511}, {"time": 51360, "qpm": 70.58823529411765}, {"time": 51840, "qpm": 69.76744186046511}, {"time": 52800, "qpm": 70.58823529411765}, {"time": 53280, "qpm": 69.76744186046511}, {"time": 54240, "qpm": 70.58823529411765}, {"time": 54720, "qpm": 69.76744186046511}, {"time": 56160, "qpm": 70.58823529411765}, {"time": 56640, "qpm": 69.76744186046511}, {"time": 57600, "qpm": 70.58823529411765}, {"time": 58080, "qpm": 69.76744186046511}, {"time": 59040, "qpm": 70.58823529411765}, {"time": 59520, "qpm": 69.76744186046511}, {"time": 60960, "qpm": 70.58823529411765}, {"time": 61440, "qpm": 69.76744186046511}, {"time": 62880, "qpm": 70.58823529411765}, {"time": 63360, "qpm": 69.76744186046511}, {"time": 64320, "qpm": 70.58823529411765}, {"time": 64800, "qpm": 69.76744186046511}, {"time": 65760, "qpm": 70.58823529411765}, {"time": 66240, "qpm": 69.76744186046511}, {"time": 67200, "qpm": 70.58823529411765}, {"time": 67680, "qpm": 69.76744186046511}, {"time": 69120, "qpm": 70.58823529411765}, {"time": 69600, "qpm": 69.76744186046511}, {"time": 70560, "qpm": 70.58823529411765}, {"time": 71040, "qpm": 69.76744186046511}, {"time": 72480, "qpm": 70.58823529411765}, {"time": 72960, "qpm": 69.76744186046511}, {"time": 73920, "qpm": 70.58823529411765}, {"time": 74400, "qpm": 69.76744186046511}, {"time": 75840, "qpm": 70.58823529411765}, {"time": 76320, "qpm": 69.76744186046511}, {"time": 77280, "qpm": 70.58823529411765}, {"time": 77760, "qpm": 69.76744186046511}, {"time": 78240, "qpm": 68.96551724137932}, {"time": 78720, "qpm": 70.58823529411765}, {"time": 79680, "qpm": 69.76744186046511}, {"time": 80640, "qpm": 70.58823529411765}, {"time": 81120, "qpm": 69.76744186046511}, {"time": 82080, "qpm": 70.58823529411765}, {"time": 82560, "qpm": 69.76744186046511}, {"time": 84000, "qpm": 70.58823529411765}, {"time": 84480, "qpm": 69.76744186046511}, {"time": 85440, "qpm": 70.58823529411765}, {"time": 85920, "qpm": 69.76744186046511}, {"time": 87360, "qpm": 70.58823529411765}, {"time": 87840, "qpm": 69.76744186046511}, {"time": 88800, "qpm": 70.58823529411765}, {"time": 89280, "qpm": 69.76744186046511}, {"time": 90720, "qpm": 70.58823529411765}, {"time": 91200, "qpm": 69.76744186046511}, {"time": 92160, "qpm": 70.58823529411765}, {"time": 92640, "qpm": 69.76744186046511}, {"time": 94080, "qpm": 70.58823529411765}, {"time": 94560, "qpm": 69.76744186046511}, {"time": 95520, "qpm": 70.58823529411765}, {"time": 96000, "qpm": 69.76744186046511}, {"time": 97440, "qpm": 70.58823529411765}, {"time": 97920, "qpm": 69.76744186046511}, {"time": 98880, "qpm": 70.58823529411765}, {"time": 99360, "qpm": 69.76744186046511}, {"time": 100320, "qpm": 70.58823529411765}, {"time": 100800, "qpm": 69.76744186046511}, {"time": 102240, "qpm": 70.58823529411765}, {"time": 102720, "qpm": 69.76744186046511}, {"time": 103680, "qpm": 70.58823529411765}, {"time": 104160, "qpm": 69.76744186046511}, {"time": 105600, "qpm": 70.58823529411765}, {"time": 106080, "qpm": 69.76744186046511}, {"time": 107040, "qpm": 70.58823529411765}, {"time": 107520, "qpm": 69.76744186046511}, {"time": 108480, "qpm": 70.58823529411765}, {"time": 108960, "qpm": 69.76744186046511}, {"time": 110400, "qpm": 70.58823529411765}, {"time": 110880, "qpm": 69.76744186046511}, {"time": 111840, "qpm": 70.58823529411765}, {"time": 112320, "qpm": 69.76744186046511}, {"time": 115680, "qpm": 70.58823529411765}, {"time": 117120, "qpm": 69.76744186046511}, {"time": 118560, "qpm": 70.58823529411765}, {"time": 119040, "qpm": 69.76744186046511}, {"time": 120480, "qpm": 70.58823529411765}, {"time": 120960, "qpm": 69.76744186046511}, {"time": 121440, "qpm": 70.58823529411765}, {"time": 121920, "qpm": 69.76744186046511}, {"time": 123360, "qpm": 70.58823529411765}, {"time": 123840, "qpm": 69.76744186046511}, {"time": 125280, "qpm": 70.58823529411765}, {"time": 125760, "qpm": 69.76744186046511}, {"time": 126720, "qpm": 70.58823529411765}, {"time": 127200, "qpm": 69.76744186046511}, {"time": 128160, "qpm": 70.58823529411765}, {"time": 128640, "qpm": 69.76744186046511}, {"time": 130080, "qpm": 70.58823529411765}, {"time": 130560, "qpm": 69.76744186046511}, {"time": 131520, "qpm": 70.58823529411765}, {"time": 132000, "qpm": 69.76744186046511}, {"time": 133440, "qpm": 70.58823529411765}, {"time": 133920, "qpm": 69.76744186046511}, {"time": 134880, "qpm": 70.58823529411765}, {"time": 135360, "qpm": 69.76744186046511}, {"time": 136320, "qpm": 70.58823529411765}, {"time": 136800, "qpm": 69.76744186046511}, {"time": 138240, "qpm": 70.58823529411765}, {"time": 138720, "qpm": 69.76744186046511}, {"time": 140160, "qpm": 70.58823529411765}, {"time": 140640, "qpm": 69.76744186046511}, {"time": 141600, "qpm": 70.58823529411765}, {"time": 142080, "qpm": 69.76744186046511}, {"time": 143040, "qpm": 70.58823529411765}, {"time": 143520, "qpm": 69.76744186046511}, {"time": 144960, "qpm": 70.58823529411765}, {"time": 145440, "qpm": 69.76744186046511}, {"time": 146400, "qpm": 70.58823529411765}, {"time": 146880, "qpm": 69.76744186046511}, {"time": 148320, "qpm": 70.58823529411765}, {"time": 148800, "qpm": 69.76744186046511}, {"time": 149760, "qpm": 70.58823529411765}, {"time": 150240, "qpm": 69.76744186046511}, {"time": 151200, "qpm": 70.58823529411765}, {"time": 151680, "qpm": 69.76744186046511}], "key_signatures": [{"time": 0, "root": 4, "mode": "minor"}], "time_signatures": [{"time": 0, "numerator": 1, "denominator": 4}, {"time": 480, "numerator": 4, "denominator": 4}], "tracks": [{"program": 0, "is_drum": false, "name": "Piano", "notes": [{"time": 6241, "pitch": 40, "duration": 980, "velocity": 117}, {"time": 6718, "pitch": 52, "duration": 483, "velocity": 98}, {"time": 6728, "pitch": 55, "duration": 483, "velocity": 104}, {"time": 6738, "pitch": 59, "duration": 463, "velocity": 109}, {"time": 6748, "pitch": 64, "duration": 483, "velocity": 113}, {"time": 7201, "pitch": 50, "duration": 238, "velocity": 120}, {"time": 7439, "pitch": 45, "duration": 239, "velocity": 113}, {"time": 7678, "pitch": 43, "duration": 161, "velocity": 119}, {"time": 7839, "pitch": 42, "duration": 322, "velocity": 115}, {"time": 8161, "pitch": 40, "duration": 980, "velocity": 117}, {"time": 8399, "pitch": 47, "duration": 722, "velocity": 97}, {"time": 8638, "pitch": 52, "duration": 483, "velocity": 98}, {"time": 8648, "pitch": 55, "duration": 483, "velocity": 104}, {"time": 8658, "pitch": 59, "duration": 463, "velocity": 109}, {"time": 8668, "pitch": 64, "duration": 483, "velocity": 113}, {"time": 9121, "pitch": 50, "duration": 238, "velocity": 120}, {"time": 9359, "pitch": 45, "duration": 239, "velocity": 113}, {"time": 9598, "pitch": 43, "duration": 161, "velocity": 119}, {"time": 9759, "pitch": 42, "duration": 322, "velocity": 115}, {"time": 10081, "pitch": 40, "duration": 980, "velocity": 117}, {"time": 10558, "pitch": 52, "duration": 483, "velocity": 98}, {"time": 10568, "pitch": 55, "duration": 483, "velocity": 104}, {"time": 10578, "pitch": 59, "duration": 463, "velocity": 109}, {"time": 10588, "pitch": 64, "duration": 483, "velocity": 113}, {"time": 11041, "pitch": 50, "duration": 239, "velocity": 120}, {"time": 11280, "pitch": 45, "duration": 238, "velocity": 113}, {"time": 11518, "pitch": 43, "duration": 161, "velocity": 119}, {"time": 11679, "pitch": 42, "duration": 322, "velocity": 115}, {"time": 12001, "pitch": 40, "duration": 980, "velocity": 117}, {"time": 12240, "pitch": 47, "duration": 721, "velocity": 97}, {"time": 12478, "pitch": 52, "duration": 483, "velocity": 98}, {"time": 12488, "pitch": 55, "duration": 483, "velocity": 104}, {"time": 12498, "pitch": 59, "duration": 463, "velocity": 109}, {"time": 12508, "pitch": 64, "duration": 483, "velocity": 113}, {"time": 12961, "pitch": 50, "duration": 239, "velocity": 120}, {"time": 13200, "pitch": 45, "duration": 238, "velocity": 113}, {"time": 13438, "pitch": 43, "duration": 161, "velocity": 119}, {"time": 13599, "pitch": 42, "duration": 322, "velocity": 115}, {"time": 13921, "pitch": 40, "duration": 980, "velocity": 117}, {"time": 14398, "pitch": 52, "duration": 383, "velocity": 98}, {"time": 14409, "pitch": 55, "duration": 372, "velocity": 104}, {"time": 14419, "pitch": 59, "duration": 362, "velocity": 109}, {"time": 14429, "pitch": 64, "duration": 352, "velocity": 113}, {"time": 14801, "pitch": 52, "duration": 110, "velocity": 88}, {"time": 14801, "pitch": 55, "duration": 100, "velocity": 94}, {"time": 14801, "pitch": 59, "duration": 110, "velocity": 109}, {"time": 14801, "pitch": 64, "duration": 110, "velocity": 100}, {"time": 15040, "pitch": 52, "duration": 480, "velocity": 98}, {"time": 15040, "pitch": 55, "duration": 480, "velocity": 104}, {"time": 15040, "pitch": 62, "duration": 459, "velocity": 109}, {"time": 15050, "pitch": 64, "duration": 480, "velocity": 113}, {"time": 15841, "pitch": 40, "duration": 980, "velocity": 117}, {"time": 16319, "pitch": 52, "duration": 382, "velocity": 98}, {"time": 16329, "pitch": 55, "duration": 372, "velocity": 104}, {"time": 16339, "pitch": 59, "duration": 362, "velocity": 109}, {"time": 16349, "pitch": 64, "duration": 352, "velocity": 113}, {"time": 16721, "pitch": 52, "duration": 110, "velocity": 88}, {"time": 16721, "pitch": 55, "duration": 100, "velocity": 94}, {"time": 16721, "pitch": 59, "duration": 110, "velocity": 109}, {"time": 16721, "pitch": 64, "duration": 110, "velocity": 100}, {"time": 16961, "pitch": 52, "duration": 479, "velocity": 98}, {"time": 16961, "pitch": 55, "duration": 479, "velocity": 104}, {"time": 16961, "pitch": 61, "duration": 459, "velocity": 109}, {"time": 16971, "pitch": 64, "duration": 479, "velocity": 113}, {"time": 17762, "pitch": 40, "duration": 980, "velocity": 117}, {"time": 18239, "pitch": 52, "duration": 382, "velocity": 98}, {"time": 18249, "pitch": 55, "duration": 372, "velocity": 104}, {"time": 18259, "pitch": 59, "duration": 362, "velocity": 109}, {"time": 18269, "pitch": 64, "duration": 352, "velocity": 113}, {"time": 18641, "pitch": 52, "duration": 110, "velocity": 88}, {"time": 18641, "pitch": 55, "duration": 101, "velocity": 94}, {"time": 18641, "pitch": 59, "duration": 110, "velocity": 109}, {"time": 18641, "pitch": 64, "duration": 110, "velocity": 100}, {"time": 18881, "pitch": 52, "duration": 479, "velocity": 98}, {"time": 18881, "pitch": 55, "duration": 479, "velocity": 104}, {"time": 18881, "pitch": 62, "duration": 459, "velocity": 109}, {"time": 18891, "pitch": 64, "duration": 479, "velocity": 113}, {"time": 19682, "pitch": 40, "duration": 980, "velocity": 117}, {"time": 20159, "pitch": 52, "duration": 382, "velocity": 98}, {"time": 20169, "pitch": 55, "duration": 372, "velocity": 104}, {"time": 20179, "pitch": 59, "duration": 362, "velocity": 109}, {"time": 20189, "pitch": 64, "duration": 352, "velocity": 113}, {"time": 20561, "pitch": 52, "duration": 111, "velocity": 88}, {"time": 20561, "pitch": 55, "duration": 101, "velocity": 94}, {"time": 20561, "pitch": 59, "duration": 111, "velocity": 109}, {"time": 20561, "pitch": 64, "duration": 111, "velocity": 100}, {"time": 20801, "pitch": 52, "duration": 479, "velocity": 98}, {"time": 20801, "pitch": 55, "duration": 479, "velocity": 104}, {"time": 20801, "pitch": 61, "duration": 459, "velocity": 109}, {"time": 20811, "pitch": 64, "duration": 479, "velocity": 113}, {"time": 21602, "pitch": 40, "duration": 980, "velocity": 117}, {"time": 22079, "pitch": 52, "duration": 382, "velocity": 98}, {"time": 22089, "pitch": 55, "duration": 372, "velocity": 104}, {"time": 22099, "pitch": 59, "duration": 362, "velocity": 109}, {"time": 22109, "pitch": 64, "duration": 352, "velocity": 113}, {"time": 22482, "pitch": 52, "duration": 110, "velocity": 88}, {"time": 22482, "pitch": 55, "duration": 100, "velocity": 94}, {"time": 22482, "pitch": 59, "duration": 110, "velocity": 109}, {"time": 22482, "pitch": 64, "duration": 110, "velocity": 100}, {"time": 22721, "pitch": 52, "duration": 479, "velocity": 98}, {"time": 22721, "pitch": 55, "duration": 479, "velocity": 104}, {"time": 22721, "pitch": 62, "duration": 459, "velocity": 109}, {"time": 22731, "pitch": 64, "duration": 479, "velocity": 113}, {"time": 23522, "pitch": 40, "duration": 980, "velocity": 117}, {"time": 23999, "pitch": 52, "duration": 383, "velocity": 98}, {"time": 24009, "pitch": 55, "duration": 373, "velocity": 104}, {"time": 24019, "pitch": 59, "duration": 363, "velocity": 109}, {"time": 24029, "pitch": 64, "duration": 353, "velocity": 113}, {"time": 24402, "pitch": 52, "duration": 110, "velocity": 88}, {"time": 24402, "pitch": 55, "duration": 100, "velocity": 94}, {"time": 24402, "pitch": 59, "duration": 110, "velocity": 109}, {"time": 24402, "pitch": 64, "duration": 110, "velocity": 100}, {"time": 24641, "pitch": 52, "duration": 479, "velocity": 98}, {"time": 24641, "pitch": 55, "duration": 479, "velocity": 104}, {"time": 24641, "pitch": 61, "duration": 459, "velocity": 109}, {"time": 24651, "pitch": 64, "duration": 479, "velocity": 113}, {"time": 25442, "pitch": 40, "duration": 980, "velocity": 117}, {"time": 25919, "pitch": 52, "duration": 383, "velocity": 98}, {"time": 25929, "pitch": 55, "duration": 373, "velocity": 104}, {"time": 25940, "pitch": 59, "duration": 362, "velocity": 109}, {"time": 25950, "pitch": 64, "duration": 352, "velocity": 113}, {"time": 26322, "pitch": 52, "duration": 110, "velocity": 88}, {"time": 26322, "pitch": 55, "duration": 100, "velocity": 94}, {"time": 26322, "pitch": 59, "duration": 110, "velocity": 109}, {"time": 26322, "pitch": 64, "duration": 110, "velocity": 100}, {"time": 26561, "pitch": 52, "duration": 479, "velocity": 98}, {"time": 26561, "pitch": 55, "duration": 479, "velocity": 104}, {"time": 26561, "pitch": 62, "duration": 459, "velocity": 109}, {"time": 26571, "pitch": 64, "duration": 480, "velocity": 113}, {"time": 27362, "pitch": 40, "duration": 980, "velocity": 117}, {"time": 27840, "pitch": 52, "duration": 482, "velocity": 98}, {"time": 27850, "pitch": 55, "duration": 482, "velocity": 104}, {"time": 27860, "pitch": 59, "duration": 462, "velocity": 109}, {"time": 27870, "pitch": 64, "duration": 482, "velocity": 113}, {"time": 28482, "pitch": 52, "duration": 479, "velocity": 98}, {"time": 28482, "pitch": 55, "duration": 479, "velocity": 104}, {"time": 28482, "pitch": 61, "duration": 459, "velocity": 109}, {"time": 28491, "pitch": 64, "duration": 480, "velocity": 113}, {"time": 29283, "pitch": 48, "duration": 1920, "velocity": 99}, {"time": 29283, "pitch": 52, "duration": 1920, "velocity": 103}, {"time": 29292, "pitch": 55, "duration": 1911, "velocity": 106}, {"time": 29302, "pitch": 59, "duration": 1911, "velocity": 108}, {"time": 29312, "pitch": 64, "duration": 1921, "velocity": 113}, {"time": 31203, "pitch": 55, "duration": 1904, "velocity": 88}, {"time": 31213, "pitch": 59, "duration": 1904, "velocity": 98}, {"time": 31223, "pitch": 62, "duration": 1894, "velocity": 106}, {"time": 31233, "pitch": 66, "duration": 1884, "velocity": 91}, {"time": 33117, "pitch": 45, "duration": 242, "velocity": 94}, {"time": 33117, "pitch": 52, "duration": 242, "velocity": 93}, {"time": 33117, "pitch": 57, "duration": 242, "velocity": 91}, {"time": 33127, "pitch": 62, "duration": 242, "velocity": 94}, {"time": 33137, "pitch": 64, "duration": 242, "velocity": 97}, {"time": 33359, "pitch": 45, "duration": 241, "velocity": 94}, {"time": 33359, "pitch": 52, "duration": 241, "velocity": 93}, {"time": 33359, "pitch": 57, "duration": 241, "velocity": 91}, {"time": 33369, "pitch": 62, "duration": 241, "velocity": 94}, {"time": 33379, "pitch": 64, "duration": 241, "velocity": 97}, {"time": 34077, "pitch": 45, "duration": 242, "velocity": 94}, {"time": 34077, "pitch": 52, "duration": 242, "velocity": 93}, {"time": 34077, "pitch": 57, "duration": 242, "velocity": 91}, {"time": 34087, "pitch": 61, "duration": 242, "velocity": 94}, {"time": 34097, "pitch": 64, "duration": 242, "velocity": 97}, {"time": 34319, "pitch": 45, "duration": 241, "velocity": 94}, {"time": 34319, "pitch": 52, "duration": 241, "velocity": 93}, {"time": 34319, "pitch": 57, "duration": 241, "velocity": 91}, {"time": 34329, "pitch": 61, "duration": 241, "velocity": 94}, {"time": 34339, "pitch": 64, "duration": 241, "velocity": 97}, {"time": 35037, "pitch": 45, "duration": 453, "velocity": 94}, {"time": 35037, "pitch": 52, "duration": 453, "velocity": 93}, {"time": 35037, "pitch": 57, "duration": 453, "velocity": 91}, {"time": 35047, "pitch": 60, "duration": 453, "velocity": 94}, {"time": 35057, "pitch": 64, "duration": 453, "velocity": 97}, {"time": 35520, "pitch": 47, "duration": 448, "velocity": 94}, {"time": 35520, "pitch": 54, "duration": 448, "velocity": 93}, {"time": 35520, "pitch": 59, "duration": 448, "velocity": 91}, {"time": 35530, "pitch": 62, "duration": 448, "velocity": 94}, {"time": 35540, "pitch": 66, "duration": 447, "velocity": 97}, {"time": 35997, "pitch": 48, "duration": 483, "velocity": 94}, {"time": 35997, "pitch": 52, "duration": 483, "velocity": 93}, {"time": 35997, "pitch": 55, "duration": 483, "velocity": 91}, {"time": 36007, "pitch": 60, "duration": 483, "velocity": 94}, {"time": 36018, "pitch": 64, "duration": 482, "velocity": 97}, {"time": 36480, "pitch": 50, "duration": 239, "velocity": 94}, {"time": 36480, "pitch": 57, "duration": 239, "velocity": 91}, {"time": 36480, "pitch": 62, "duration": 239, "velocity": 94}, {"time": 36480, "pitch": 67, "duration": 239, "velocity": 97}, {"time": 36719, "pitch": 50, "duration": 239, "velocity": 94}, {"time": 36719, "pitch": 57, "duration": 239, "velocity": 91}, {"time": 36719, "pitch": 62, "duration": 239, "velocity": 94}, {"time": 36719, "pitch": 66, "duration": 239, "velocity": 97}, {"time": 36958, "pitch": 55, "duration": 241, "velocity": 88}, {"time": 36958, "pitch": 59, "duration": 241, "velocity": 98}, {"time": 36968, "pitch": 62, "duration": 231, "velocity": 106}, {"time": 36978, "pitch": 67, "duration": 221, "velocity": 91}, {"time": 37199, "pitch": 59, "duration": 241, "velocity": 81}, {"time": 37199, "pitch": 62, "duration": 241, "velocity": 93}, {"time": 37199, "pitch": 67, "duration": 241, "velocity": 85}, {"time": 37209, "pitch": 55, "duration": 231, "velocity": 77}, {"time": 37440, "pitch": 55, "duration": 239, "velocity": 88}, {"time": 37440, "pitch": 59, "duration": 239, "velocity": 98}, {"time": 37450, "pitch": 62, "duration": 229, "velocity": 106}, {"time": 37460, "pitch": 67, "duration": 219, "velocity": 91}, {"time": 37679, "pitch": 55, "duration": 159, "velocity": 83}, {"time": 37679, "pitch": 59, "duration": 159, "velocity": 93}, {"time": 37689, "pitch": 62, "duration": 149, "velocity": 101}, {"time": 37699, "pitch": 67, "duration": 139, "velocity": 86}, {"time": 37838, "pitch": 59, "duration": 80, "velocity": 79}, {"time": 37838, "pitch": 62, "duration": 80, "velocity": 91}, {"time": 37838, "pitch": 67, "duration": 80, "velocity": 83}, {"time": 37848, "pitch": 55, "duration": 70, "velocity": 75}, {"time": 37918, "pitch": 55, "duration": 161, "velocity": 68}, {"time": 37918, "pitch": 59, "duration": 161, "velocity": 78}, {"time": 37928, "pitch": 62, "duration": 151, "velocity": 86}, {"time": 37938, "pitch": 67, "duration": 141, "velocity": 71}, {"time": 38079, "pitch": 59, "duration": 80, "velocity": 78}, {"time": 38079, "pitch": 62, "duration": 80, "velocity": 90}, {"time": 38079, "pitch": 67, "duration": 80, "velocity": 82}, {"time": 38089, "pitch": 55, "duration": 70, "velocity": 74}, {"time": 38159, "pitch": 55, "duration": 241, "velocity": 73}, {"time": 38159, "pitch": 59, "duration": 241, "velocity": 83}, {"time": 38169, "pitch": 62, "duration": 231, "velocity": 91}, {"time": 38179, "pitch": 67, "duration": 221, "velocity": 76}, {"time": 38400, "pitch": 55, "duration": 239, "velocity": 88}, {"time": 38400, "pitch": 59, "duration": 239, "velocity": 98}, {"time": 38410, "pitch": 62, "duration": 229, "velocity": 106}, {"time": 38420, "pitch": 67, "duration": 219, "velocity": 91}, {"time": 38639, "pitch": 55, "duration": 159, "velocity": 83}, {"time": 38639, "pitch": 59, "duration": 159, "velocity": 93}, {"time": 38649, "pitch": 62, "duration": 149, "velocity": 101}, {"time": 38659, "pitch": 67, "duration": 139, "velocity": 86}, {"time": 38798, "pitch": 59, "duration": 80, "velocity": 79}, {"time": 38798, "pitch": 62, "duration": 80, "velocity": 91}, {"time": 38798, "pitch": 67, "duration": 80, "velocity": 83}, {"time": 38808, "pitch": 55, "duration": 70, "velocity": 75}, {"time": 38878, "pitch": 50, "duration": 241, "velocity": 88}, {"time": 38878, "pitch": 57, "duration": 241, "velocity": 98}, {"time": 38888, "pitch": 62, "duration": 231, "velocity": 106}, {"time": 38898, "pitch": 66, "duration": 221, "velocity": 91}, {"time": 39119, "pitch": 57, "duration": 242, "velocity": 81}, {"time": 39119, "pitch": 62, "duration": 242, "velocity": 93}, {"time": 39119, "pitch": 66, "duration": 242, "velocity": 85}, {"time": 39129, "pitch": 50, "duration": 232, "velocity": 77}, {"time": 39361, "pitch": 50, "duration": 238, "velocity": 88}, {"time": 39361, "pitch": 57, "duration": 238, "velocity": 98}, {"time": 39370, "pitch": 62, "duration": 229, "velocity": 106}, {"time": 39380, "pitch": 66, "duration": 219, "velocity": 91}, {"time": 39599, "pitch": 50, "duration": 159, "velocity": 83}, {"time": 39599, "pitch": 57, "duration": 159, "velocity": 93}, {"time": 39609, "pitch": 62, "duration": 149, "velocity": 101}, {"time": 39619, "pitch": 66, "duration": 139, "velocity": 86}, {"time": 39758, "pitch": 57, "duration": 80, "velocity": 79}, {"time": 39758, "pitch": 62, "duration": 80, "velocity": 91}, {"time": 39758, "pitch": 66, "duration": 80, "velocity": 83}, {"time": 39768, "pitch": 50, "duration": 70, "velocity": 75}, {"time": 39838, "pitch": 50, "duration": 161, "velocity": 68}, {"time": 39838, "pitch": 57, "duration": 161, "velocity": 78}, {"time": 39848, "pitch": 62, "duration": 151, "velocity": 86}, {"time": 39858, "pitch": 66, "duration": 141, "velocity": 71}, {"time": 39999, "pitch": 57, "duration": 80, "velocity": 78}, {"time": 39999, "pitch": 62, "duration": 80, "velocity": 90}, {"time": 39999, "pitch": 66, "duration": 80, "velocity": 82}, {"time": 40009, "pitch": 50, "duration": 70, "velocity": 74}, {"time": 40079, "pitch": 50, "duration": 242, "velocity": 73}, {"time": 40079, "pitch": 57, "duration": 242, "velocity": 83}, {"time": 40089, "pitch": 62, "duration": 232, "velocity": 91}, {"time": 40099, "pitch": 66, "duration": 222, "velocity": 76}, {"time": 40321, "pitch": 50, "duration": 238, "velocity": 88}, {"time": 40321, "pitch": 57, "duration": 238, "velocity": 98}, {"time": 40331, "pitch": 62, "duration": 228, "velocity": 106}, {"time": 40340, "pitch": 66, "duration": 219, "velocity": 91}, {"time": 40559, "pitch": 50, "duration": 159, "velocity": 83}, {"time": 40559, "pitch": 57, "duration": 159, "velocity": 93}, {"time": 40569, "pitch": 62, "duration": 149, "velocity": 101}, {"time": 40579, "pitch": 66, "duration": 139, "velocity": 86}, {"time": 40718, "pitch": 57, "duration": 80, "velocity": 79}, {"time": 40718, "pitch": 62, "duration": 80, "velocity": 91}, {"time": 40718, "pitch": 66, "duration": 80, "velocity": 83}, {"time": 40728, "pitch": 50, "duration": 70, "velocity": 75}, {"time": 40798, "pitch": 52, "duration": 241, "velocity": 88}, {"time": 40798, "pitch": 55, "duration": 241, "velocity": 98}, {"time": 40808, "pitch": 59, "duration": 231, "velocity": 106}, {"time": 40818, "pitch": 64, "duration": 221, "velocity": 91}, {"time": 41039, "pitch": 55, "duration": 242, "velocity": 81}, {"time": 41039, "pitch": 59, "duration": 242, "velocity": 93}, {"time": 41039, "pitch": 64, "duration": 242, "velocity": 85}, {"time": 41049, "pitch": 52, "duration": 232, "velocity": 77}, {"time": 41281, "pitch": 52, "duration": 238, "velocity": 88}, {"time": 41281, "pitch": 55, "duration": 238, "velocity": 98}, {"time": 41291, "pitch": 59, "duration": 228, "velocity": 106}, {"time": 41301, "pitch": 64, "duration": 218, "velocity": 91}, {"time": 41519, "pitch": 52, "duration": 159, "velocity": 83}, {"time": 41519, "pitch": 55, "duration": 159, "velocity": 93}, {"time": 41529, "pitch": 59, "duration": 149, "velocity": 101}, {"time": 41539, "pitch": 64, "duration": 139, "velocity": 86}, {"time": 41678, "pitch": 55, "duration": 80, "velocity": 79}, {"time": 41678, "pitch": 59, "duration": 80, "velocity": 91}, {"time": 41678, "pitch": 64, "duration": 80, "velocity": 83}, {"time": 41688, "pitch": 52, "duration": 70, "velocity": 75}, {"time": 41758, "pitch": 52, "duration": 161, "velocity": 68}, {"time": 41758, "pitch": 55, "duration": 161, "velocity": 78}, {"time": 41768, "pitch": 59, "duration": 151, "velocity": 86}, {"time": 41778, "pitch": 64, "duration": 141, "velocity": 71}, {"time": 41919, "pitch": 55, "duration": 80, "velocity": 78}, {"time": 41919, "pitch": 59, "duration": 80, "velocity": 90}, {"time": 41919, "pitch": 64, "duration": 80, "velocity": 82}, {"time": 41929, "pitch": 52, "duration": 70, "velocity": 74}, {"time": 41999, "pitch": 52, "duration": 242, "velocity": 73}, {"time": 41999, "pitch": 55, "duration": 242, "velocity": 83}, {"time": 42009, "pitch": 59, "duration": 232, "velocity": 91}, {"time": 42019, "pitch": 64, "duration": 222, "velocity": 76}, {"time": 42241, "pitch": 52, "duration": 238, "velocity": 88}, {"time": 42241, "pitch": 55, "duration": 238, "velocity": 98}, {"time": 42251, "pitch": 59, "duration": 228, "velocity": 106}, {"time": 42261, "pitch": 64, "duration": 218, "velocity": 91}, {"time": 42479, "pitch": 52, "duration": 159, "velocity": 83}, {"time": 42479, "pitch": 55, "duration": 159, "velocity": 93}, {"time": 42489, "pitch": 59, "duration": 149, "velocity": 101}, {"time": 42499, "pitch": 64, "duration": 139, "velocity": 86}, {"time": 42638, "pitch": 55, "duration": 80, "velocity": 79}, {"time": 42638, "pitch": 59, "duration": 80, "velocity": 91}, {"time": 42638, "pitch": 64, "duration": 80, "velocity": 83}, {"time": 42648, "pitch": 52, "duration": 70, "velocity": 75}, {"time": 42718, "pitch": 48, "duration": 241, "velocity": 88}, {"time": 42718, "pitch": 55, "duration": 241, "velocity": 98}, {"time": 42728, "pitch": 60, "duration": 231, "velocity": 106}, {"time": 42738, "pitch": 64, "duration": 221, "velocity": 91}, {"time": 42959, "pitch": 55, "duration": 242, "velocity": 81}, {"time": 42959, "pitch": 60, "duration": 242, "velocity": 93}, {"time": 42959, "pitch": 64, "duration": 242, "velocity": 85}, {"time": 42969, "pitch": 48, "duration": 232, "velocity": 77}, {"time": 43201, "pitch": 48, "duration": 238, "velocity": 88}, {"time": 43201, "pitch": 55, "duration": 238, "velocity": 98}, {"time": 43211, "pitch": 60, "duration": 228, "velocity": 106}, {"time": 43221, "pitch": 64, "duration": 218, "velocity": 91}, {"time": 43439, "pitch": 48, "duration": 160, "velocity": 83}, {"time": 43439, "pitch": 55, "duration": 160, "velocity": 93}, {"time": 43449, "pitch": 60, "duration": 150, "velocity": 101}, {"time": 43459, "pitch": 64, "duration": 140, "velocity": 86}, {"time": 43599, "pitch": 55, "duration": 79, "velocity": 79}, {"time": 43599, "pitch": 60, "duration": 79, "velocity": 91}, {"time": 43599, "pitch": 64, "duration": 79, "velocity": 83}, {"time": 43608, "pitch": 48, "duration": 70, "velocity": 75}, {"time": 43678, "pitch": 53, "duration": 161, "velocity": 68}, {"time": 43678, "pitch": 56, "duration": 161, "velocity": 78}, {"time": 43688, "pitch": 60, "duration": 151, "velocity": 86}, {"time": 43698, "pitch": 65, "duration": 141, "velocity": 71}, {"time": 43839, "pitch": 56, "duration": 80, "velocity": 78}, {"time": 43839, "pitch": 60, "duration": 80, "velocity": 90}, {"time": 43839, "pitch": 65, "duration": 80, "velocity": 82}, {"time": 43849, "pitch": 53, "duration": 70, "velocity": 74}, {"time": 43919, "pitch": 53, "duration": 242, "velocity": 73}, {"time": 43919, "pitch": 56, "duration": 242, "velocity": 83}, {"time": 43930, "pitch": 60, "duration": 231, "velocity": 91}, {"time": 43940, "pitch": 65, "duration": 221, "velocity": 76}, {"time": 44161, "pitch": 50, "duration": 239, "velocity": 88}, {"time": 44161, "pitch": 57, "duration": 239, "velocity": 98}, {"time": 44171, "pitch": 62, "duration": 229, "velocity": 106}, {"time": 44181, "pitch": 66, "duration": 219, "velocity": 91}, {"time": 44400, "pitch": 50, "duration": 159, "velocity": 83}, {"time": 44400, "pitch": 57, "duration": 159, "velocity": 93}, {"time": 44409, "pitch": 62, "duration": 150, "velocity": 101}, {"time": 44419, "pitch": 66, "duration": 140, "velocity": 86}, {"time": 44559, "pitch": 57, "duration": 79, "velocity": 79}, {"time": 44559, "pitch": 62, "duration": 79, "velocity": 91}, {"time": 44559, "pitch": 66, "duration": 79, "velocity": 83}, {"time": 44569, "pitch": 50, "duration": 69, "velocity": 75}, {"time": 44638, "pitch": 55, "duration": 242, "velocity": 88}, {"time": 44638, "pitch": 59, "duration": 242, "velocity": 98}, {"time": 44648, "pitch": 62, "duration": 232, "velocity": 106}, {"time": 44658, "pitch": 67, "duration": 222, "velocity": 91}, {"time": 44880, "pitch": 59, "duration": 241, "velocity": 81}, {"time": 44880, "pitch": 62, "duration": 241, "velocity": 93}, {"time": 44880, "pitch": 67, "duration": 241, "velocity": 85}, {"time": 44890, "pitch": 55, "duration": 231, "velocity": 77}, {"time": 45121, "pitch": 55, "duration": 239, "velocity": 88}, {"time": 45121, "pitch": 59, "duration": 239, "velocity": 98}, {"time": 45131, "pitch": 62, "duration": 229, "velocity": 106}, {"time": 45141, "pitch": 67, "duration": 219, "velocity": 91}, {"time": 45360, "pitch": 55, "duration": 159, "velocity": 83}, {"time": 45360, "pitch": 59, "duration": 159, "velocity": 93}, {"time": 45370, "pitch": 62, "duration": 149, "velocity": 101}, {"time": 45380, "pitch": 67, "duration": 139, "velocity": 86}, {"time": 45519, "pitch": 59, "duration": 79, "velocity": 79}, {"time": 45519, "pitch": 62, "duration": 79, "velocity": 91}, {"time": 45519, "pitch": 67, "duration": 79, "velocity": 83}, {"time": 45529, "pitch": 55, "duration": 69, "velocity": 75}, {"time": 45598, "pitch": 55, "duration": 161, "velocity": 68}, {"time": 45598, "pitch": 59, "duration": 161, "velocity": 78}, {"time": 45608, "pitch": 62, "duration": 151, "velocity": 86}, {"time": 45618, "pitch": 67, "duration": 141, "velocity": 71}, {"time": 45759, "pitch": 59, "duration": 81, "velocity": 78}, {"time": 45759, "pitch": 62, "duration": 81, "velocity": 90}, {"time": 45759, "pitch": 67, "duration": 81, "velocity": 82}, {"time": 45769, "pitch": 55, "duration": 71, "velocity": 74}, {"time": 45840, "pitch": 55, "duration": 241, "velocity": 73}, {"time": 45840, "pitch": 59, "duration": 241, "velocity": 83}, {"time": 45850, "pitch": 62, "duration": 231, "velocity": 91}, {"time": 45860, "pitch": 67, "duration": 221, "velocity": 76}, {"time": 46081, "pitch": 55, "duration": 239, "velocity": 88}, {"time": 46081, "pitch": 59, "duration": 239, "velocity": 98}, {"time": 46091, "pitch": 62, "duration": 229, "velocity": 106}, {"time": 46101, "pitch": 67, "duration": 219, "velocity": 91}, {"time": 46320, "pitch": 55, "duration": 159, "velocity": 83}, {"time": 46320, "pitch": 59, "duration": 159, "velocity": 93}, {"time": 46330, "pitch": 62, "duration": 149, "velocity": 101}, {"time": 46340, "pitch": 67, "duration": 139, "velocity": 86}, {"time": 46479, "pitch": 59, "duration": 79, "velocity": 79}, {"time": 46479, "pitch": 62, "duration": 79, "velocity": 91}, {"time": 46479, "pitch": 67, "duration": 79, "velocity": 83}, {"time": 46489, "pitch": 55, "duration": 69, "velocity": 75}, {"time": 46558, "pitch": 50, "duration": 242, "velocity": 88}, {"time": 46558, "pitch": 57, "duration": 242, "velocity": 98}, {"time": 46568, "pitch": 62, "duration": 232, "velocity": 106}, {"time": 46578, "pitch": 66, "duration": 222, "velocity": 91}, {"time": 46800, "pitch": 57, "duration": 241, "velocity": 81}, {"time": 46800, "pitch": 62, "duration": 241, "velocity": 93}, {"time": 46800, "pitch": 66, "duration": 241, "velocity": 85}, {"time": 46810, "pitch": 50, "duration": 231, "velocity": 77}, {"time": 47041, "pitch": 50, "duration": 239, "velocity": 88}, {"time": 47041, "pitch": 57, "duration": 239, "velocity": 98}, {"time": 47051, "pitch": 62, "duration": 229, "velocity": 106}, {"time": 47061, "pitch": 66, "duration": 219, "velocity": 91}, {"time": 47280, "pitch": 50, "duration": 159, "velocity": 83}, {"time": 47280, "pitch": 57, "duration": 159, "velocity": 93}, {"time": 47290, "pitch": 62, "duration": 149, "velocity": 101}, {"time": 47300, "pitch": 66, "duration": 139, "velocity": 86}, {"time": 47439, "pitch": 57, "duration": 79, "velocity": 79}, {"time": 47439, "pitch": 62, "duration": 79, "velocity": 91}, {"time": 47439, "pitch": 66, "duration": 79, "velocity": 83}, {"time": 47449, "pitch": 50, "duration": 69, "velocity": 75}, {"time": 47518, "pitch": 50, "duration": 161, "velocity": 68}, {"time": 47518, "pitch": 57, "duration": 161, "velocity": 78}, {"time": 47528, "pitch": 62, "duration": 151, "velocity": 86}, {"time": 47538, "pitch": 66, "duration": 141, "velocity": 71}, {"time": 47679, "pitch": 57, "duration": 81, "velocity": 78}, {"time": 47679, "pitch": 62, "duration": 81, "velocity": 90}, {"time": 47679, "pitch": 66, "duration": 81, "velocity": 82}, {"time": 47689, "pitch": 50, "duration": 71, "velocity": 74}, {"time": 47760, "pitch": 50, "duration": 241, "velocity": 73}, {"time": 47760, "pitch": 57, "duration": 241, "velocity": 83}, {"time": 47770, "pitch": 62, "duration": 231, "velocity": 91}, {"time": 47780, "pitch": 66, "duration": 221, "velocity": 76}, {"time": 48001, "pitch": 50, "duration": 239, "velocity": 88}, {"time": 48001, "pitch": 57, "duration": 239, "velocity": 98}, {"time": 48011, "pitch": 62, "duration": 229, "velocity": 106}, {"time": 48021, "pitch": 66, "duration": 219, "velocity": 91}, {"time": 48240, "pitch": 50, "duration": 159, "velocity": 83}, {"time": 48240, "pitch": 57, "duration": 159, "velocity": 93}, {"time": 48250, "pitch": 62, "duration": 149, "velocity": 101}, {"time": 48260, "pitch": 66, "duration": 139, "velocity": 86}, {"time": 48399, "pitch": 57, "duration": 79, "velocity": 79}, {"time": 48399, "pitch": 62, "duration": 79, "velocity": 91}, {"time": 48399, "pitch": 66, "duration": 79, "velocity": 83}, {"time": 48409, "pitch": 50, "duration": 69, "velocity": 75}, {"time": 48478, "pitch": 52, "duration": 242, "velocity": 88}, {"time": 48478, "pitch": 55, "duration": 242, "velocity": 98}, {"time": 48489, "pitch": 59, "duration": 231, "velocity": 106}, {"time": 48499, "pitch": 64, "duration": 221, "velocity": 91}, {"time": 48720, "pitch": 55, "duration": 241, "velocity": 81}, {"time": 48720, "pitch": 59, "duration": 241, "velocity": 93}, {"time": 48720, "pitch": 64, "duration": 241, "velocity": 85}, {"time": 48730, "pitch": 52, "duration": 231, "velocity": 77}, {"time": 48961, "pitch": 52, "duration": 239, "velocity": 88}, {"time": 48961, "pitch": 55, "duration": 239, "velocity": 98}, {"time": 48971, "pitch": 59, "duration": 229, "velocity": 106}, {"time": 48981, "pitch": 64, "duration": 219, "velocity": 91}, {"time": 49200, "pitch": 52, "duration": 159, "velocity": 83}, {"time": 49200, "pitch": 55, "duration": 159, "velocity": 93}, {"time": 49210, "pitch": 59, "duration": 149, "velocity": 101}, {"time": 49220, "pitch": 64, "duration": 139, "velocity": 86}, {"time": 49359, "pitch": 55, "duration": 80, "velocity": 79}, {"time": 49359, "pitch": 59, "duration": 80, "velocity": 91}, {"time": 49359, "pitch": 64, "duration": 80, "velocity": 83}, {"time": 49369, "pitch": 52, "duration": 70, "velocity": 75}, {"time": 49439, "pitch": 52, "duration": 160, "velocity": 68}, {"time": 49439, "pitch": 55, "duration": 160, "velocity": 78}, {"time": 49449, "pitch": 59, "duration": 150, "velocity": 86}, {"time": 49459, "pitch": 64, "duration": 140, "velocity": 71}, {"time": 49599, "pitch": 55, "duration": 81, "velocity": 78}, {"time": 49599, "pitch": 59, "duration": 81, "velocity": 90}, {"time": 49599, "pitch": 64, "duration": 81, "velocity": 82}, {"time": 49610, "pitch": 52, "duration": 70, "velocity": 74}, {"time": 49680, "pitch": 52, "duration": 241, "velocity": 73}, {"time": 49680, "pitch": 55, "duration": 241, "velocity": 83}, {"time": 49690, "pitch": 59, "duration": 231, "velocity": 91}, {"time": 49700, "pitch": 64, "duration": 221, "velocity": 76}, {"time": 49921, "pitch": 52, "duration": 239, "velocity": 88}, {"time": 49921, "pitch": 55, "duration": 239, "velocity": 98}, {"time": 49931, "pitch": 59, "duration": 229, "velocity": 106}, {"time": 49941, "pitch": 64, "duration": 219, "velocity": 91}, {"time": 50160, "pitch": 52, "duration": 159, "velocity": 83}, {"time": 50160, "pitch": 55, "duration": 159, "velocity": 93}, {"time": 50170, "pitch": 59, "duration": 149, "velocity": 101}, {"time": 50180, "pitch": 64, "duration": 139, "velocity": 86}, {"time": 50319, "pitch": 55, "duration": 80, "velocity": 79}, {"time": 50319, "pitch": 59, "duration": 80, "velocity": 91}, {"time": 50319, "pitch": 64, "duration": 80, "velocity": 83}, {"time": 50329, "pitch": 52, "duration": 70, "velocity": 75}, {"time": 50399, "pitch": 48, "duration": 241, "velocity": 88}, {"time": 50399, "pitch": 55, "duration": 241, "velocity": 98}, {"time": 50409, "pitch": 60, "duration": 231, "velocity": 106}, {"time": 50419, "pitch": 64, "duration": 221, "velocity": 91}, {"time": 50640, "pitch": 55, "duration": 241, "velocity": 81}, {"time": 50640, "pitch": 60, "duration": 241, "velocity": 93}, {"time": 50640, "pitch": 64, "duration": 241, "velocity": 85}, {"time": 50650, "pitch": 48, "duration": 231, "velocity": 77}, {"time": 50881, "pitch": 48, "duration": 239, "velocity": 88}, {"time": 50881, "pitch": 55, "duration": 239, "velocity": 98}, {"time": 50891, "pitch": 60, "duration": 229, "velocity": 106}, {"time": 50901, "pitch": 64, "duration": 219, "velocity": 91}, {"time": 51120, "pitch": 48, "duration": 159, "velocity": 83}, {"time": 51120, "pitch": 55, "duration": 159, "velocity": 93}, {"time": 51130, "pitch": 60, "duration": 149, "velocity": 101}, {"time": 51140, "pitch": 64, "duration": 139, "velocity": 86}, {"time": 51279, "pitch": 55, "duration": 80, "velocity": 79}, {"time": 51279, "pitch": 60, "duration": 80, "velocity": 91}, {"time": 51279, "pitch": 64, "duration": 80, "velocity": 83}, {"time": 51289, "pitch": 48, "duration": 70, "velocity": 75}, {"time": 51359, "pitch": 50, "duration": 161, "velocity": 68}, {"time": 51359, "pitch": 57, "duration": 161, "velocity": 78}, {"time": 51369, "pitch": 62, "duration": 151, "velocity": 86}, {"time": 51379, "pitch": 66, "duration": 141, "velocity": 71}, {"time": 51520, "pitch": 57, "duration": 80, "velocity": 78}, {"time": 51520, "pitch": 62, "duration": 80, "velocity": 90}, {"time": 51520, "pitch": 66, "duration": 80, "velocity": 82}, {"time": 51530, "pitch": 50, "duration": 70, "velocity": 74}, {"time": 51600, "pitch": 50, "duration": 242, "velocity": 73}, {"time": 51600, "pitch": 57, "duration": 242, "velocity": 83}, {"time": 51610, "pitch": 62, "duration": 232, "velocity": 91}, {"time": 51620, "pitch": 66, "duration": 222, "velocity": 76}, {"time": 51842, "pitch": 51, "duration": 238, "velocity": 88}, {"time": 51842, "pitch": 57, "duration": 238, "velocity": 98}, {"time": 51852, "pitch": 63, "duration": 228, "velocity": 106}, {"time": 51861, "pitch": 66, "duration": 219, "velocity": 91}, {"time": 52080, "pitch": 51, "duration": 159, "velocity": 83}, {"time": 52080, "pitch": 57, "duration": 159, "velocity": 93}, {"time": 52090, "pitch": 63, "duration": 149, "velocity": 101}, {"time": 52100, "pitch": 66, "duration": 139, "velocity": 86}, {"time": 52239, "pitch": 57, "duration": 80, "velocity": 79}, {"time": 52239, "pitch": 63, "duration": 80, "velocity": 91}, {"time": 52239, "pitch": 66, "duration": 80, "velocity": 83}, {"time": 52249, "pitch": 51, "duration": 70, "velocity": 75}, {"time": 52319, "pitch": 40, "duration": 980, "velocity": 117}, {"time": 52802, "pitch": 52, "duration": 477, "velocity": 98}, {"time": 52812, "pitch": 55, "duration": 477, "velocity": 104}, {"time": 52822, "pitch": 59, "duration": 457, "velocity": 109}, {"time": 52831, "pitch": 64, "duration": 478, "velocity": 113}, {"time": 53279, "pitch": 50, "duration": 241, "velocity": 120}, {"time": 53520, "pitch": 45, "duration": 242, "velocity": 113}, {"time": 53762, "pitch": 43, "duration": 159, "velocity": 119}, {"time": 53921, "pitch": 42, "duration": 318, "velocity": 115}, {"time": 54239, "pitch": 40, "duration": 980, "velocity": 117}, {"time": 54480, "pitch": 47, "duration": 719, "velocity": 97}, {"time": 54722, "pitch": 52, "duration": 477, "velocity": 98}, {"time": 54732, "pitch": 55, "duration": 477, "velocity": 104}, {"time": 54742, "pitch": 59, "duration": 457, "velocity": 109}, {"time": 54752, "pitch": 64, "duration": 477, "velocity": 113}, {"time": 55199, "pitch": 50, "duration": 241, "velocity": 120}, {"time": 55440, "pitch": 45, "duration": 242, "velocity": 113}, {"time": 55682, "pitch": 43, "duration": 159, "velocity": 119}, {"time": 55841, "pitch": 42, "duration": 318, "velocity": 115}, {"time": 56159, "pitch": 40, "duration": 980, "velocity": 117}, {"time": 56642, "pitch": 52, "duration": 378, "velocity": 98}, {"time": 56652, "pitch": 55, "duration": 368, "velocity": 104}, {"time": 56662, "pitch": 59, "duration": 358, "velocity": 109}, {"time": 56672, "pitch": 64, "duration": 348, "velocity": 113}, {"time": 57040, "pitch": 52, "duration": 109, "velocity": 88}, {"time": 57040, "pitch": 55, "duration": 99, "velocity": 94}, {"time": 57040, "pitch": 59, "duration": 109, "velocity": 109}, {"time": 57040, "pitch": 64, "duration": 109, "velocity": 100}, {"time": 57280, "pitch": 52, "duration": 481, "velocity": 98}, {"time": 57280, "pitch": 55, "duration": 481, "velocity": 104}, {"time": 57280, "pitch": 62, "duration": 461, "velocity": 109}, {"time": 57290, "pitch": 64, "duration": 481, "velocity": 113}, {"time": 58079, "pitch": 40, "duration": 980, "velocity": 117}, {"time": 58562, "pitch": 52, "duration": 378, "velocity": 98}, {"time": 58572, "pitch": 55, "duration": 368, "velocity": 104}, {"time": 58582, "pitch": 59, "duration": 358, "velocity": 109}, {"time": 58592, "pitch": 64, "duration": 348, "velocity": 113}, {"time": 58960, "pitch": 52, "duration": 110, "velocity": 88}, {"time": 58960, "pitch": 55, "duration": 99, "velocity": 94}, {"time": 58960, "pitch": 59, "duration": 110, "velocity": 109}, {"time": 58960, "pitch": 64, "duration": 110, "velocity": 100}, {"time": 59200, "pitch": 52, "duration": 481, "velocity": 98}, {"time": 59200, "pitch": 55, "duration": 481, "velocity": 104}, {"time": 59200, "pitch": 61, "duration": 461, "velocity": 109}, {"time": 59210, "pitch": 64, "duration": 481, "velocity": 113}, {"time": 59999, "pitch": 40, "duration": 981, "velocity": 117}, {"time": 60482, "pitch": 52, "duration": 378, "velocity": 98}, {"time": 60492, "pitch": 55, "duration": 368, "velocity": 104}, {"time": 60502, "pitch": 59, "duration": 358, "velocity": 109}, {"time": 60512, "pitch": 64, "duration": 348, "velocity": 113}, {"time": 60880, "pitch": 52, "duration": 110, "velocity": 88}, {"time": 60880, "pitch": 55, "duration": 100, "velocity": 94}, {"time": 60880, "pitch": 59, "duration": 110, "velocity": 109}, {"time": 60880, "pitch": 64, "duration": 110, "velocity": 100}, {"time": 61120, "pitch": 52, "duration": 481, "velocity": 98}, {"time": 61120, "pitch": 55, "duration": 481, "velocity": 104}, {"time": 61120, "pitch": 62, "duration": 462, "velocity": 109}, {"time": 61131, "pitch": 64, "duration": 480, "velocity": 113}, {"time": 61920, "pitch": 40, "duration": 980, "velocity": 117}, {"time": 62402, "pitch": 52, "duration": 378, "velocity": 98}, {"time": 62412, "pitch": 55, "duration": 368, "velocity": 104}, {"time": 62422, "pitch": 59, "duration": 358, "velocity": 109}, {"time": 62432, "pitch": 64, "duration": 348, "velocity": 113}, {"time": 62800, "pitch": 52, "duration": 110, "velocity": 88}, {"time": 62800, "pitch": 55, "duration": 100, "velocity": 94}, {"time": 62800, "pitch": 59, "duration": 110, "velocity": 109}, {"time": 62800, "pitch": 64, "duration": 110, "velocity": 100}, {"time": 63041, "pitch": 52, "duration": 481, "velocity": 98}, {"time": 63041, "pitch": 55, "duration": 481, "velocity": 104}, {"time": 63041, "pitch": 61, "duration": 461, "velocity": 109}, {"time": 63051, "pitch": 64, "duration": 481, "velocity": 113}, {"time": 63840, "pitch": 40, "duration": 980, "velocity": 117}, {"time": 64323, "pitch": 52, "duration": 377, "velocity": 98}, {"time": 64333, "pitch": 55, "duration": 367, "velocity": 104}, {"time": 64342, "pitch": 59, "duration": 358, "velocity": 109}, {"time": 64352, "pitch": 64, "duration": 348, "velocity": 113}, {"time": 64720, "pitch": 52, "duration": 110, "velocity": 88}, {"time": 64720, "pitch": 55, "duration": 100, "velocity": 94}, {"time": 64720, "pitch": 59, "duration": 110, "velocity": 109}, {"time": 64720, "pitch": 64, "duration": 110, "velocity": 100}, {"time": 64961, "pitch": 52, "duration": 481, "velocity": 98}, {"time": 64961, "pitch": 55, "duration": 481, "velocity": 104}, {"time": 64961, "pitch": 62, "duration": 461, "velocity": 109}, {"time": 64971, "pitch": 64, "duration": 481, "velocity": 113}, {"time": 65760, "pitch": 40, "duration": 980, "velocity": 117}, {"time": 66243, "pitch": 52, "duration": 378, "velocity": 98}, {"time": 66253, "pitch": 55, "duration": 368, "velocity": 104}, {"time": 66263, "pitch": 59, "duration": 358, "velocity": 109}, {"time": 66273, "pitch": 64, "duration": 348, "velocity": 113}, {"time": 66640, "pitch": 52, "duration": 110, "velocity": 88}, {"time": 66640, "pitch": 55, "duration": 100, "velocity": 94}, {"time": 66640, "pitch": 59, "duration": 110, "velocity": 109}, {"time": 66640, "pitch": 64, "duration": 110, "velocity": 100}, {"time": 66879, "pitch": 52, "duration": 479, "velocity": 98}, {"time": 66879, "pitch": 55, "duration": 479, "velocity": 104}, {"time": 66879, "pitch": 61, "duration": 459, "velocity": 109}, {"time": 66889, "pitch": 64, "duration": 479, "velocity": 113}, {"time": 67680, "pitch": 40, "duration": 980, "velocity": 117}, {"time": 68157, "pitch": 52, "duration": 383, "velocity": 98}, {"time": 68167, "pitch": 55, "duration": 373, "velocity": 104}, {"time": 68177, "pitch": 59, "duration": 363, "velocity": 109}, {"time": 68187, "pitch": 64, "duration": 353, "velocity": 113}, {"time": 68560, "pitch": 52, "duration": 110, "velocity": 88}, {"time": 68560, "pitch": 55, "duration": 100, "velocity": 94}, {"time": 68560, "pitch": 59, "duration": 110, "velocity": 109}, {"time": 68560, "pitch": 64, "duration": 110, "velocity": 100}, {"time": 68799, "pitch": 52, "duration": 479, "velocity": 98}, {"time": 68799, "pitch": 55, "duration": 479, "velocity": 104}, {"time": 68799, "pitch": 62, "duration": 459, "velocity": 109}, {"time": 68809, "pitch": 64, "duration": 479, "velocity": 113}, {"time": 69600, "pitch": 40, "duration": 980, "velocity": 117}, {"time": 70077, "pitch": 52, "duration": 483, "velocity": 98}, {"time": 70087, "pitch": 55, "duration": 483, "velocity": 104}, {"time": 70098, "pitch": 59, "duration": 462, "velocity": 109}, {"time": 70108, "pitch": 64, "duration": 482, "velocity": 113}, {"time": 70719, "pitch": 52, "duration": 479, "velocity": 98}, {"time": 70719, "pitch": 55, "duration": 479, "velocity": 104}, {"time": 70719, "pitch": 61, "duration": 459, "velocity": 109}, {"time": 70729, "pitch": 64, "duration": 479, "velocity": 113}, {"time": 71520, "pitch": 48, "duration": 1921, "velocity": 99}, {"time": 71520, "pitch": 52, "duration": 1921, "velocity": 103}, {"time": 71530, "pitch": 55, "duration": 1911, "velocity": 106}, {"time": 71540, "pitch": 59, "duration": 1910, "velocity": 108}, {"time": 71550, "pitch": 64, "duration": 1920, "velocity": 113}, {"time": 73441, "pitch": 55, "duration": 1910, "velocity": 88}, {"time": 73450, "pitch": 59, "duration": 1911, "velocity": 98}, {"time": 73460, "pitch": 62, "duration": 1901, "velocity": 106}, {"time": 73470, "pitch": 66, "duration": 1891, "velocity": 91}, {"time": 75361, "pitch": 45, "duration": 238, "velocity": 94}, {"time": 75361, "pitch": 52, "duration": 238, "velocity": 93}, {"time": 75361, "pitch": 57, "duration": 238, "velocity": 91}, {"time": 75371, "pitch": 62, "duration": 238, "velocity": 94}, {"time": 75381, "pitch": 64, "duration": 238, "velocity": 97}, {"time": 75599, "pitch": 45, "duration": 239, "velocity": 94}, {"time": 75599, "pitch": 52, "duration": 239, "velocity": 93}, {"time": 75599, "pitch": 57, "duration": 239, "velocity": 91}, {"time": 75609, "pitch": 62, "duration": 239, "velocity": 94}, {"time": 75619, "pitch": 64, "duration": 239, "velocity": 97}, {"time": 76321, "pitch": 45, "duration": 238, "velocity": 94}, {"time": 76321, "pitch": 52, "duration": 238, "velocity": 93}, {"time": 76321, "pitch": 57, "duration": 238, "velocity": 91}, {"time": 76331, "pitch": 61, "duration": 238, "velocity": 94}, {"time": 76341, "pitch": 64, "duration": 238, "velocity": 97}, {"time": 76559, "pitch": 45, "duration": 239, "velocity": 94}, {"time": 76559, "pitch": 52, "duration": 239, "velocity": 93}, {"time": 76559, "pitch": 57, "duration": 239, "velocity": 91}, {"time": 76569, "pitch": 61, "duration": 239, "velocity": 94}, {"time": 76579, "pitch": 64, "duration": 239, "velocity": 97}, {"time": 77281, "pitch": 45, "duration": 447, "velocity": 94}, {"time": 77281, "pitch": 52, "duration": 447, "velocity": 93}, {"time": 77281, "pitch": 57, "duration": 447, "velocity": 91}, {"time": 77291, "pitch": 60, "duration": 447, "velocity": 94}, {"time": 77301, "pitch": 64, "duration": 447, "velocity": 97}, {"time": 77758, "pitch": 47, "duration": 453, "velocity": 94}, {"time": 77758, "pitch": 54, "duration": 453, "velocity": 93}, {"time": 77758, "pitch": 59, "duration": 453, "velocity": 91}, {"time": 77768, "pitch": 62, "duration": 453, "velocity": 94}, {"time": 77778, "pitch": 66, "duration": 453, "velocity": 97}, {"time": 78241, "pitch": 48, "duration": 477, "velocity": 94}, {"time": 78241, "pitch": 52, "duration": 477, "velocity": 93}, {"time": 78241, "pitch": 55, "duration": 477, "velocity": 91}, {"time": 78251, "pitch": 60, "duration": 477, "velocity": 94}, {"time": 78261, "pitch": 64, "duration": 477, "velocity": 97}, {"time": 78718, "pitch": 50, "duration": 242, "velocity": 94}, {"time": 78718, "pitch": 57, "duration": 242, "velocity": 91}, {"time": 78718, "pitch": 62, "duration": 242, "velocity": 94}, {"time": 78718, "pitch": 67, "duration": 242, "velocity": 97}, {"time": 78960, "pitch": 50, "duration": 241, "velocity": 94}, {"time": 78960, "pitch": 57, "duration": 241, "velocity": 91}, {"time": 78960, "pitch": 62, "duration": 241, "velocity": 94}, {"time": 78960, "pitch": 66, "duration": 241, "velocity": 97}, {"time": 79201, "pitch": 55, "duration": 239, "velocity": 88}, {"time": 79201, "pitch": 59, "duration": 239, "velocity": 98}, {"time": 79211, "pitch": 62, "duration": 229, "velocity": 106}, {"time": 79221, "pitch": 67, "duration": 219, "velocity": 91}, {"time": 79440, "pitch": 59, "duration": 238, "velocity": 81}, {"time": 79440, "pitch": 62, "duration": 238, "velocity": 93}, {"time": 79440, "pitch": 67, "duration": 238, "velocity": 85}, {"time": 79450, "pitch": 55, "duration": 228, "velocity": 77}, {"time": 79678, "pitch": 55, "duration": 242, "velocity": 88}, {"time": 79678, "pitch": 59, "duration": 242, "velocity": 98}, {"time": 79688, "pitch": 62, "duration": 232, "velocity": 106}, {"time": 79698, "pitch": 67, "duration": 222, "velocity": 91}, {"time": 79920, "pitch": 55, "duration": 161, "velocity": 83}, {"time": 79920, "pitch": 59, "duration": 161, "velocity": 93}, {"time": 79930, "pitch": 62, "duration": 151, "velocity": 101}, {"time": 79940, "pitch": 67, "duration": 141, "velocity": 86}, {"time": 80081, "pitch": 59, "duration": 80, "velocity": 79}, {"time": 80081, "pitch": 62, "duration": 80, "velocity": 91}, {"time": 80081, "pitch": 67, "duration": 80, "velocity": 83}, {"time": 80091, "pitch": 55, "duration": 70, "velocity": 75}, {"time": 80161, "pitch": 55, "duration": 159, "velocity": 68}, {"time": 80161, "pitch": 59, "duration": 159, "velocity": 78}, {"time": 80171, "pitch": 62, "duration": 149, "velocity": 86}, {"time": 80181, "pitch": 67, "duration": 139, "velocity": 71}, {"time": 80320, "pitch": 59, "duration": 80, "velocity": 78}, {"time": 80320, "pitch": 62, "duration": 80, "velocity": 90}, {"time": 80320, "pitch": 67, "duration": 80, "velocity": 82}, {"time": 80330, "pitch": 55, "duration": 70, "velocity": 74}, {"time": 80400, "pitch": 55, "duration": 238, "velocity": 73}, {"time": 80400, "pitch": 59, "duration": 238, "velocity": 83}, {"time": 80410, "pitch": 62, "duration": 228, "velocity": 91}, {"time": 80420, "pitch": 67, "duration": 218, "velocity": 76}, {"time": 80638, "pitch": 55, "duration": 242, "velocity": 88}, {"time": 80638, "pitch": 59, "duration": 242, "velocity": 98}, {"time": 80648, "pitch": 62, "duration": 232, "velocity": 106}, {"time": 80658, "pitch": 67, "duration": 222, "velocity": 91}, {"time": 80880, "pitch": 55, "duration": 161, "velocity": 83}, {"time": 80880, "pitch": 59, "duration": 161, "velocity": 93}, {"time": 80890, "pitch": 62, "duration": 151, "velocity": 101}, {"time": 80900, "pitch": 67, "duration": 141, "velocity": 86}, {"time": 81041, "pitch": 59, "duration": 80, "velocity": 79}, {"time": 81041, "pitch": 62, "duration": 80, "velocity": 91}, {"time": 81041, "pitch": 67, "duration": 80, "velocity": 83}, {"time": 81051, "pitch": 55, "duration": 70, "velocity": 75}, {"time": 81121, "pitch": 50, "duration": 239, "velocity": 88}, {"time": 81121, "pitch": 57, "duration": 239, "velocity": 98}, {"time": 81131, "pitch": 62, "duration": 229, "velocity": 106}, {"time": 81141, "pitch": 66, "duration": 219, "velocity": 91}, {"time": 81360, "pitch": 57, "duration": 238, "velocity": 81}, {"time": 81360, "pitch": 62, "duration": 238, "velocity": 93}, {"time": 81360, "pitch": 66, "duration": 238, "velocity": 85}, {"time": 81370, "pitch": 50, "duration": 228, "velocity": 77}, {"time": 81598, "pitch": 50, "duration": 242, "velocity": 88}, {"time": 81598, "pitch": 57, "duration": 242, "velocity": 98}, {"time": 81608, "pitch": 62, "duration": 232, "velocity": 106}, {"time": 81618, "pitch": 66, "duration": 222, "velocity": 91}, {"time": 81840, "pitch": 50, "duration": 161, "velocity": 83}, {"time": 81840, "pitch": 57, "duration": 161, "velocity": 93}, {"time": 81850, "pitch": 62, "duration": 151, "velocity": 101}, {"time": 81860, "pitch": 66, "duration": 141, "velocity": 86}, {"time": 82001, "pitch": 57, "duration": 80, "velocity": 79}, {"time": 82001, "pitch": 62, "duration": 80, "velocity": 91}, {"time": 82001, "pitch": 66, "duration": 80, "velocity": 83}, {"time": 82011, "pitch": 50, "duration": 70, "velocity": 75}, {"time": 82081, "pitch": 50, "duration": 159, "velocity": 68}, {"time": 82081, "pitch": 57, "duration": 159, "velocity": 78}, {"time": 82091, "pitch": 62, "duration": 149, "velocity": 86}, {"time": 82101, "pitch": 66, "duration": 139, "velocity": 71}, {"time": 82240, "pitch": 57, "duration": 80, "velocity": 78}, {"time": 82240, "pitch": 62, "duration": 80, "velocity": 90}, {"time": 82240, "pitch": 66, "duration": 80, "velocity": 82}, {"time": 82250, "pitch": 50, "duration": 70, "velocity": 74}, {"time": 82320, "pitch": 50, "duration": 238, "velocity": 73}, {"time": 82320, "pitch": 57, "duration": 238, "velocity": 83}, {"time": 82330, "pitch": 62, "duration": 228, "velocity": 91}, {"time": 82340, "pitch": 66, "duration": 218, "velocity": 76}, {"time": 82558, "pitch": 50, "duration": 242, "velocity": 88}, {"time": 82558, "pitch": 57, "duration": 242, "velocity": 98}, {"time": 82568, "pitch": 62, "duration": 232, "velocity": 106}, {"time": 82579, "pitch": 66, "duration": 221, "velocity": 91}, {"time": 82800, "pitch": 50, "duration": 161, "velocity": 83}, {"time": 82800, "pitch": 57, "duration": 161, "velocity": 93}, {"time": 82810, "pitch": 62, "duration": 151, "velocity": 101}, {"time": 82820, "pitch": 66, "duration": 141, "velocity": 86}, {"time": 82961, "pitch": 57, "duration": 80, "velocity": 79}, {"time": 82961, "pitch": 62, "duration": 80, "velocity": 91}, {"time": 82961, "pitch": 66, "duration": 80, "velocity": 83}, {"time": 82971, "pitch": 50, "duration": 70, "velocity": 75}, {"time": 83041, "pitch": 52, "duration": 239, "velocity": 88}, {"time": 83041, "pitch": 55, "duration": 239, "velocity": 98}, {"time": 83051, "pitch": 59, "duration": 229, "velocity": 106}, {"time": 83061, "pitch": 64, "duration": 219, "velocity": 91}, {"time": 83280, "pitch": 55, "duration": 239, "velocity": 81}, {"time": 83280, "pitch": 59, "duration": 239, "velocity": 93}, {"time": 83280, "pitch": 64, "duration": 239, "velocity": 85}, {"time": 83290, "pitch": 52, "duration": 229, "velocity": 77}, {"time": 83519, "pitch": 52, "duration": 241, "velocity": 88}, {"time": 83519, "pitch": 55, "duration": 241, "velocity": 98}, {"time": 83529, "pitch": 59, "duration": 231, "velocity": 106}, {"time": 83539, "pitch": 64, "duration": 221, "velocity": 91}, {"time": 83760, "pitch": 52, "duration": 161, "velocity": 83}, {"time": 83760, "pitch": 55, "duration": 161, "velocity": 93}, {"time": 83770, "pitch": 59, "duration": 151, "velocity": 101}, {"time": 83780, "pitch": 64, "duration": 141, "velocity": 86}, {"time": 83921, "pitch": 55, "duration": 80, "velocity": 79}, {"time": 83921, "pitch": 59, "duration": 80, "velocity": 91}, {"time": 83921, "pitch": 64, "duration": 80, "velocity": 83}, {"time": 83931, "pitch": 52, "duration": 70, "velocity": 75}, {"time": 84001, "pitch": 52, "duration": 159, "velocity": 68}, {"time": 84001, "pitch": 55, "duration": 159, "velocity": 78}, {"time": 84011, "pitch": 59, "duration": 149, "velocity": 86}, {"time": 84021, "pitch": 64, "duration": 139, "velocity": 71}, {"time": 84160, "pitch": 55, "duration": 80, "velocity": 78}, {"time": 84160, "pitch": 59, "duration": 80, "velocity": 90}, {"time": 84160, "pitch": 64, "duration": 80, "velocity": 82}, {"time": 84170, "pitch": 52, "duration": 70, "velocity": 74}, {"time": 84240, "pitch": 52, "duration": 239, "velocity": 73}, {"time": 84240, "pitch": 55, "duration": 239, "velocity": 83}, {"time": 84250, "pitch": 59, "duration": 229, "velocity": 91}, {"time": 84260, "pitch": 64, "duration": 219, "velocity": 76}, {"time": 84479, "pitch": 52, "duration": 241, "velocity": 88}, {"time": 84479, "pitch": 55, "duration": 241, "velocity": 98}, {"time": 84489, "pitch": 59, "duration": 231, "velocity": 106}, {"time": 84499, "pitch": 64, "duration": 221, "velocity": 91}, {"time": 84720, "pitch": 52, "duration": 161, "velocity": 83}, {"time": 84720, "pitch": 55, "duration": 161, "velocity": 93}, {"time": 84730, "pitch": 59, "duration": 151, "velocity": 101}, {"time": 84740, "pitch": 64, "duration": 141, "velocity": 86}, {"time": 84881, "pitch": 55, "duration": 80, "velocity": 79}, {"time": 84881, "pitch": 59, "duration": 80, "velocity": 91}, {"time": 84881, "pitch": 64, "duration": 80, "velocity": 83}, {"time": 84891, "pitch": 52, "duration": 70, "velocity": 75}, {"time": 84961, "pitch": 48, "duration": 239, "velocity": 88}, {"time": 84961, "pitch": 55, "duration": 239, "velocity": 98}, {"time": 84971, "pitch": 60, "duration": 229, "velocity": 106}, {"time": 84981, "pitch": 64, "duration": 219, "velocity": 91}, {"time": 85200, "pitch": 55, "duration": 239, "velocity": 81}, {"time": 85200, "pitch": 60, "duration": 239, "velocity": 93}, {"time": 85200, "pitch": 64, "duration": 239, "velocity": 85}, {"time": 85210, "pitch": 48, "duration": 229, "velocity": 77}, {"time": 85439, "pitch": 48, "duration": 241, "velocity": 88}, {"time": 85439, "pitch": 55, "duration": 241, "velocity": 98}, {"time": 85449, "pitch": 60, "duration": 231, "velocity": 106}, {"time": 85459, "pitch": 64, "duration": 221, "velocity": 91}, {"time": 85680, "pitch": 48, "duration": 161, "velocity": 83}, {"time": 85680, "pitch": 55, "duration": 161, "velocity": 93}, {"time": 85690, "pitch": 60, "duration": 151, "velocity": 101}, {"time": 85700, "pitch": 64, "duration": 141, "velocity": 86}, {"time": 85841, "pitch": 55, "duration": 81, "velocity": 79}, {"time": 85841, "pitch": 60, "duration": 81, "velocity": 91}, {"time": 85841, "pitch": 64, "duration": 81, "velocity": 83}, {"time": 85851, "pitch": 48, "duration": 71, "velocity": 75}, {"time": 85922, "pitch": 53, "duration": 159, "velocity": 68}, {"time": 85922, "pitch": 56, "duration": 159, "velocity": 78}, {"time": 85931, "pitch": 60, "duration": 150, "velocity": 86}, {"time": 85941, "pitch": 65, "duration": 140, "velocity": 71}, {"time": 86081, "pitch": 56, "duration": 79, "velocity": 78}, {"time": 86081, "pitch": 60, "duration": 79, "velocity": 90}, {"time": 86081, "pitch": 65, "duration": 79, "velocity": 82}, {"time": 86091, "pitch": 53, "duration": 69, "velocity": 74}, {"time": 86160, "pitch": 53, "duration": 239, "velocity": 73}, {"time": 86160, "pitch": 56, "duration": 239, "velocity": 83}, {"time": 86170, "pitch": 60, "duration": 229, "velocity": 91}, {"time": 86180, "pitch": 65, "duration": 219, "velocity": 76}, {"time": 86399, "pitch": 50, "duration": 241, "velocity": 88}, {"time": 86399, "pitch": 57, "duration": 241, "velocity": 98}, {"time": 86409, "pitch": 62, "duration": 231, "velocity": 106}, {"time": 86419, "pitch": 66, "duration": 221, "velocity": 91}, {"time": 86640, "pitch": 50, "duration": 161, "velocity": 83}, {"time": 86640, "pitch": 57, "duration": 161, "velocity": 93}, {"time": 86650, "pitch": 62, "duration": 151, "velocity": 101}, {"time": 86660, "pitch": 66, "duration": 141, "velocity": 86}, {"time": 86801, "pitch": 57, "duration": 81, "velocity": 79}, {"time": 86801, "pitch": 62, "duration": 81, "velocity": 91}, {"time": 86801, "pitch": 66, "duration": 81, "velocity": 83}, {"time": 86811, "pitch": 50, "duration": 71, "velocity": 75}, {"time": 86882, "pitch": 55, "duration": 238, "velocity": 88}, {"time": 86882, "pitch": 59, "duration": 238, "velocity": 98}, {"time": 86892, "pitch": 62, "duration": 228, "velocity": 106}, {"time": 86902, "pitch": 67, "duration": 218, "velocity": 91}, {"time": 87120, "pitch": 59, "duration": 239, "velocity": 81}, {"time": 87120, "pitch": 62, "duration": 239, "velocity": 93}, {"time": 87120, "pitch": 67, "duration": 239, "velocity": 85}, {"time": 87130, "pitch": 55, "duration": 229, "velocity": 77}, {"time": 87359, "pitch": 55, "duration": 241, "velocity": 88}, {"time": 87359, "pitch": 59, "duration": 241, "velocity": 98}, {"time": 87369, "pitch": 62, "duration": 231, "velocity": 106}, {"time": 87379, "pitch": 67, "duration": 221, "velocity": 91}, {"time": 87600, "pitch": 55, "duration": 161, "velocity": 83}, {"time": 87600, "pitch": 59, "duration": 161, "velocity": 93}, {"time": 87610, "pitch": 62, "duration": 151, "velocity": 101}, {"time": 87620, "pitch": 67, "duration": 141, "velocity": 86}, {"time": 87761, "pitch": 59, "duration": 81, "velocity": 79}, {"time": 87761, "pitch": 62, "duration": 81, "velocity": 91}, {"time": 87761, "pitch": 67, "duration": 81, "velocity": 83}, {"time": 87771, "pitch": 55, "duration": 71, "velocity": 75}, {"time": 87842, "pitch": 55, "duration": 159, "velocity": 68}, {"time": 87842, "pitch": 59, "duration": 159, "velocity": 78}, {"time": 87852, "pitch": 62, "duration": 149, "velocity": 86}, {"time": 87862, "pitch": 67, "duration": 139, "velocity": 71}, {"time": 88001, "pitch": 59, "duration": 79, "velocity": 78}, {"time": 88001, "pitch": 62, "duration": 79, "velocity": 90}, {"time": 88001, "pitch": 67, "duration": 79, "velocity": 82}, {"time": 88011, "pitch": 55, "duration": 69, "velocity": 74}, {"time": 88080, "pitch": 55, "duration": 239, "velocity": 73}, {"time": 88080, "pitch": 59, "duration": 239, "velocity": 83}, {"time": 88090, "pitch": 62, "duration": 229, "velocity": 91}, {"time": 88100, "pitch": 67, "duration": 219, "velocity": 76}, {"time": 88319, "pitch": 55, "duration": 241, "velocity": 88}, {"time": 88319, "pitch": 59, "duration": 241, "velocity": 98}, {"time": 88329, "pitch": 62, "duration": 231, "velocity": 106}, {"time": 88339, "pitch": 67, "duration": 221, "velocity": 91}, {"time": 88560, "pitch": 55, "duration": 161, "velocity": 83}, {"time": 88560, "pitch": 59, "duration": 161, "velocity": 93}, {"time": 88570, "pitch": 62, "duration": 151, "velocity": 101}, {"time": 88580, "pitch": 67, "duration": 141, "velocity": 86}, {"time": 88721, "pitch": 59, "duration": 81, "velocity": 79}, {"time": 88721, "pitch": 62, "duration": 81, "velocity": 91}, {"time": 88721, "pitch": 67, "duration": 81, "velocity": 83}, {"time": 88731, "pitch": 55, "duration": 71, "velocity": 75}, {"time": 88802, "pitch": 50, "duration": 238, "velocity": 88}, {"time": 88802, "pitch": 57, "duration": 238, "velocity": 98}, {"time": 88812, "pitch": 62, "duration": 228, "velocity": 106}, {"time": 88822, "pitch": 66, "duration": 218, "velocity": 91}, {"time": 89040, "pitch": 57, "duration": 239, "velocity": 81}, {"time": 89040, "pitch": 62, "duration": 239, "velocity": 93}, {"time": 89040, "pitch": 66, "duration": 239, "velocity": 85}, {"time": 89050, "pitch": 50, "duration": 229, "velocity": 77}, {"time": 89279, "pitch": 50, "duration": 241, "velocity": 88}, {"time": 89279, "pitch": 57, "duration": 241, "velocity": 98}, {"time": 89289, "pitch": 62, "duration": 231, "velocity": 106}, {"time": 89299, "pitch": 66, "duration": 221, "velocity": 91}, {"time": 89520, "pitch": 50, "duration": 161, "velocity": 83}, {"time": 89520, "pitch": 57, "duration": 161, "velocity": 93}, {"time": 89530, "pitch": 62, "duration": 151, "velocity": 101}, {"time": 89541, "pitch": 66, "duration": 140, "velocity": 86}, {"time": 89681, "pitch": 57, "duration": 81, "velocity": 79}, {"time": 89681, "pitch": 62, "duration": 81, "velocity": 91}, {"time": 89681, "pitch": 66, "duration": 81, "velocity": 83}, {"time": 89691, "pitch": 50, "duration": 71, "velocity": 75}, {"time": 89762, "pitch": 50, "duration": 159, "velocity": 68}, {"time": 89762, "pitch": 57, "duration": 159, "velocity": 78}, {"time": 89772, "pitch": 62, "duration": 149, "velocity": 86}, {"time": 89782, "pitch": 66, "duration": 139, "velocity": 71}, {"time": 89921, "pitch": 57, "duration": 79, "velocity": 78}, {"time": 89921, "pitch": 62, "duration": 79, "velocity": 90}, {"time": 89921, "pitch": 66, "duration": 79, "velocity": 82}, {"time": 89931, "pitch": 50, "duration": 69, "velocity": 74}, {"time": 90000, "pitch": 50, "duration": 239, "velocity": 73}, {"time": 90000, "pitch": 57, "duration": 239, "velocity": 83}, {"time": 90010, "pitch": 62, "duration": 229, "velocity": 91}, {"time": 90020, "pitch": 66, "duration": 219, "velocity": 76}, {"time": 90239, "pitch": 50, "duration": 242, "velocity": 88}, {"time": 90239, "pitch": 57, "duration": 242, "velocity": 98}, {"time": 90249, "pitch": 62, "duration": 232, "velocity": 106}, {"time": 90259, "pitch": 66, "duration": 222, "velocity": 91}, {"time": 90481, "pitch": 50, "duration": 160, "velocity": 83}, {"time": 90481, "pitch": 57, "duration": 160, "velocity": 93}, {"time": 90491, "pitch": 62, "duration": 150, "velocity": 101}, {"time": 90501, "pitch": 66, "duration": 140, "velocity": 86}, {"time": 90641, "pitch": 57, "duration": 81, "velocity": 79}, {"time": 90641, "pitch": 62, "duration": 81, "velocity": 91}, {"time": 90641, "pitch": 66, "duration": 81, "velocity": 83}, {"time": 90652, "pitch": 50, "duration": 70, "velocity": 75}, {"time": 90722, "pitch": 52, "duration": 239, "velocity": 88}, {"time": 90722, "pitch": 55, "duration": 239, "velocity": 98}, {"time": 90732, "pitch": 59, "duration": 229, "velocity": 106}, {"time": 90742, "pitch": 64, "duration": 219, "velocity": 91}, {"time": 90961, "pitch": 55, "duration": 238, "velocity": 81}, {"time": 90961, "pitch": 59, "duration": 238, "velocity": 93}, {"time": 90961, "pitch": 64, "duration": 238, "velocity": 85}, {"time": 90970, "pitch": 52, "duration": 229, "velocity": 77}, {"time": 91199, "pitch": 52, "duration": 242, "velocity": 88}, {"time": 91199, "pitch": 55, "duration": 242, "velocity": 98}, {"time": 91209, "pitch": 59, "duration": 232, "velocity": 106}, {"time": 91219, "pitch": 64, "duration": 222, "velocity": 91}, {"time": 91441, "pitch": 52, "duration": 161, "velocity": 83}, {"time": 91441, "pitch": 55, "duration": 161, "velocity": 93}, {"time": 91451, "pitch": 59, "duration": 151, "velocity": 101}, {"time": 91461, "pitch": 64, "duration": 141, "velocity": 86}, {"time": 91602, "pitch": 55, "duration": 80, "velocity": 79}, {"time": 91602, "pitch": 59, "duration": 80, "velocity": 91}, {"time": 91602, "pitch": 64, "duration": 80, "velocity": 83}, {"time": 91612, "pitch": 52, "duration": 70, "velocity": 75}, {"time": 91682, "pitch": 52, "duration": 159, "velocity": 68}, {"time": 91682, "pitch": 55, "duration": 159, "velocity": 78}, {"time": 91692, "pitch": 59, "duration": 149, "velocity": 86}, {"time": 91702, "pitch": 64, "duration": 139, "velocity": 71}, {"time": 91841, "pitch": 55, "duration": 80, "velocity": 78}, {"time": 91841, "pitch": 59, "duration": 80, "velocity": 90}, {"time": 91841, "pitch": 64, "duration": 80, "velocity": 82}, {"time": 91851, "pitch": 52, "duration": 70, "velocity": 74}, {"time": 91921, "pitch": 52, "duration": 238, "velocity": 73}, {"time": 91921, "pitch": 55, "duration": 238, "velocity": 83}, {"time": 91931, "pitch": 59, "duration": 228, "velocity": 91}, {"time": 91941, "pitch": 64, "duration": 218, "velocity": 76}, {"time": 92159, "pitch": 52, "duration": 242, "velocity": 88}, {"time": 92159, "pitch": 55, "duration": 242, "velocity": 98}, {"time": 92169, "pitch": 59, "duration": 232, "velocity": 106}, {"time": 92179, "pitch": 64, "duration": 222, "velocity": 91}, {"time": 92401, "pitch": 52, "duration": 161, "velocity": 83}, {"time": 92401, "pitch": 55, "duration": 161, "velocity": 93}, {"time": 92411, "pitch": 59, "duration": 151, "velocity": 101}, {"time": 92421, "pitch": 64, "duration": 141, "velocity": 86}, {"time": 92562, "pitch": 55, "duration": 80, "velocity": 79}, {"time": 92562, "pitch": 59, "duration": 80, "velocity": 91}, {"time": 92562, "pitch": 64, "duration": 80, "velocity": 83}, {"time": 92572, "pitch": 52, "duration": 70, "velocity": 75}, {"time": 92642, "pitch": 48, "duration": 239, "velocity": 88}, {"time": 92642, "pitch": 55, "duration": 239, "velocity": 98}, {"time": 92652, "pitch": 60, "duration": 229, "velocity": 106}, {"time": 92662, "pitch": 64, "duration": 219, "velocity": 91}, {"time": 92881, "pitch": 55, "duration": 238, "velocity": 81}, {"time": 92881, "pitch": 60, "duration": 238, "velocity": 93}, {"time": 92881, "pitch": 64, "duration": 238, "velocity": 85}, {"time": 92891, "pitch": 48, "duration": 228, "velocity": 77}, {"time": 93119, "pitch": 48, "duration": 242, "velocity": 88}, {"time": 93119, "pitch": 55, "duration": 242, "velocity": 98}, {"time": 93129, "pitch": 60, "duration": 232, "velocity": 106}, {"time": 93139, "pitch": 64, "duration": 222, "velocity": 91}, {"time": 93361, "pitch": 48, "duration": 161, "velocity": 83}, {"time": 93361, "pitch": 55, "duration": 161, "velocity": 93}, {"time": 93371, "pitch": 60, "duration": 151, "velocity": 101}, {"time": 93381, "pitch": 64, "duration": 141, "velocity": 86}, {"time": 93522, "pitch": 55, "duration": 80, "velocity": 79}, {"time": 93522, "pitch": 60, "duration": 80, "velocity": 91}, {"time": 93522, "pitch": 64, "duration": 80, "velocity": 83}, {"time": 93532, "pitch": 48, "duration": 70, "velocity": 75}, {"time": 93602, "pitch": 50, "duration": 159, "velocity": 68}, {"time": 93602, "pitch": 57, "duration": 159, "velocity": 78}, {"time": 93612, "pitch": 62, "duration": 149, "velocity": 86}, {"time": 93622, "pitch": 66, "duration": 139, "velocity": 71}, {"time": 93761, "pitch": 57, "duration": 80, "velocity": 78}, {"time": 93761, "pitch": 62, "duration": 80, "velocity": 90}, {"time": 93761, "pitch": 66, "duration": 80, "velocity": 82}, {"time": 93771, "pitch": 50, "duration": 70, "velocity": 74}, {"time": 93841, "pitch": 50, "duration": 238, "velocity": 73}, {"time": 93841, "pitch": 57, "duration": 238, "velocity": 83}, {"time": 93851, "pitch": 62, "duration": 228, "velocity": 91}, {"time": 93861, "pitch": 66, "duration": 218, "velocity": 76}, {"time": 94079, "pitch": 54, "duration": 242, "velocity": 88}, {"time": 94079, "pitch": 59, "duration": 242, "velocity": 98}, {"time": 94089, "pitch": 63, "duration": 232, "velocity": 106}, {"time": 94100, "pitch": 66, "duration": 221, "velocity": 91}, {"time": 94321, "pitch": 54, "duration": 161, "velocity": 83}, {"time": 94321, "pitch": 59, "duration": 161, "velocity": 93}, {"time": 94331, "pitch": 63, "duration": 151, "velocity": 101}, {"time": 94341, "pitch": 66, "duration": 141, "velocity": 86}, {"time": 94482, "pitch": 59, "duration": 80, "velocity": 79}, {"time": 94482, "pitch": 63, "duration": 80, "velocity": 91}, {"time": 94482, "pitch": 66, "duration": 80, "velocity": 83}, {"time": 94492, "pitch": 54, "duration": 70, "velocity": 75}, {"time": 94562, "pitch": 52, "duration": 239, "velocity": 88}, {"time": 94562, "pitch": 57, "duration": 239, "velocity": 98}, {"time": 94572, "pitch": 60, "duration": 229, "velocity": 106}, {"time": 94582, "pitch": 64, "duration": 219, "velocity": 91}, {"time": 94801, "pitch": 57, "duration": 238, "velocity": 81}, {"time": 94801, "pitch": 60, "duration": 238, "velocity": 93}, {"time": 94801, "pitch": 64, "duration": 238, "velocity": 85}, {"time": 94811, "pitch": 52, "duration": 228, "velocity": 77}, {"time": 95039, "pitch": 52, "duration": 242, "velocity": 88}, {"time": 95039, "pitch": 57, "duration": 242, "velocity": 98}, {"time": 95050, "pitch": 60, "duration": 231, "velocity": 106}, {"time": 95060, "pitch": 64, "duration": 221, "velocity": 91}, {"time": 95281, "pitch": 52, "duration": 161, "velocity": 83}, {"time": 95281, "pitch": 57, "duration": 161, "velocity": 93}, {"time": 95291, "pitch": 60, "duration": 151, "velocity": 101}, {"time": 95301, "pitch": 64, "duration": 141, "velocity": 86}, {"time": 95442, "pitch": 57, "duration": 80, "velocity": 79}, {"time": 95442, "pitch": 60, "duration": 80, "velocity": 91}, {"time": 95442, "pitch": 64, "duration": 80, "velocity": 83}, {"time": 95452, "pitch": 52, "duration": 70, "velocity": 75}, {"time": 95522, "pitch": 52, "duration": 159, "velocity": 68}, {"time": 95522, "pitch": 57, "duration": 159, "velocity": 78}, {"time": 95532, "pitch": 60, "duration": 149, "velocity": 86}, {"time": 95542, "pitch": 64, "duration": 139, "velocity": 71}, {"time": 95681, "pitch": 57, "duration": 80, "velocity": 78}, {"time": 95681, "pitch": 60, "duration": 80, "velocity": 90}, {"time": 95681, "pitch": 64, "duration": 80, "velocity": 82}, {"time": 95691, "pitch": 52, "duration": 70, "velocity": 74}, {"time": 95761, "pitch": 52, "duration": 239, "velocity": 73}, {"time": 95761, "pitch": 57, "duration": 239, "velocity": 83}, {"time": 95771, "pitch": 60, "duration": 229, "velocity": 91}, {"time": 95781, "pitch": 64, "duration": 219, "velocity": 76}, {"time": 96000, "pitch": 52, "duration": 241, "velocity": 88}, {"time": 96000, "pitch": 57, "duration": 241, "velocity": 98}, {"time": 96010, "pitch": 60, "duration": 231, "velocity": 106}, {"time": 96020, "pitch": 64, "duration": 221, "velocity": 91}, {"time": 96241, "pitch": 52, "duration": 161, "velocity": 83}, {"time": 96241, "pitch": 57, "duration": 161, "velocity": 93}, {"time": 96251, "pitch": 60, "duration": 151, "velocity": 101}, {"time": 96261, "pitch": 64, "duration": 141, "velocity": 86}, {"time": 96402, "pitch": 57, "duration": 80, "velocity": 79}, {"time": 96402, "pitch": 60, "duration": 80, "velocity": 91}, {"time": 96402, "pitch": 64, "duration": 80, "velocity": 83}, {"time": 96412, "pitch": 52, "duration": 70, "velocity": 75}, {"time": 96482, "pitch": 48, "duration": 239, "velocity": 88}, {"time": 96482, "pitch": 55, "duration": 239, "velocity": 98}, {"time": 96492, "pitch": 60, "duration": 229, "velocity": 106}, {"time": 96502, "pitch": 64, "duration": 219, "velocity": 91}, {"time": 96721, "pitch": 55, "duration": 239, "velocity": 81}, {"time": 96721, "pitch": 60, "duration": 239, "velocity": 93}, {"time": 96721, "pitch": 64, "duration": 239, "velocity": 85}, {"time": 96731, "pitch": 48, "duration": 229, "velocity": 77}, {"time": 96960, "pitch": 48, "duration": 241, "velocity": 88}, {"time": 96960, "pitch": 55, "duration": 241, "velocity": 98}, {"time": 96970, "pitch": 60, "duration": 231, "velocity": 106}, {"time": 96980, "pitch": 64, "duration": 221, "velocity": 91}, {"time": 97201, "pitch": 48, "duration": 161, "velocity": 83}, {"time": 97201, "pitch": 55, "duration": 161, "velocity": 93}, {"time": 97211, "pitch": 60, "duration": 151, "velocity": 101}, {"time": 97221, "pitch": 64, "duration": 141, "velocity": 86}, {"time": 97362, "pitch": 55, "duration": 80, "velocity": 79}, {"time": 97362, "pitch": 60, "duration": 80, "velocity": 91}, {"time": 97362, "pitch": 64, "duration": 80, "velocity": 83}, {"time": 97372, "pitch": 48, "duration": 70, "velocity": 75}, {"time": 97442, "pitch": 48, "duration": 160, "velocity": 68}, {"time": 97442, "pitch": 55, "duration": 160, "velocity": 78}, {"time": 97452, "pitch": 60, "duration": 150, "velocity": 86}, {"time": 97462, "pitch": 64, "duration": 140, "velocity": 71}, {"time": 97602, "pitch": 55, "duration": 79, "velocity": 78}, {"time": 97602, "pitch": 60, "duration": 79, "velocity": 90}, {"time": 97602, "pitch": 64, "duration": 79, "velocity": 82}, {"time": 97612, "pitch": 48, "duration": 69, "velocity": 74}, {"time": 97681, "pitch": 48, "duration": 239, "velocity": 73}, {"time": 97681, "pitch": 55, "duration": 239, "velocity": 83}, {"time": 97691, "pitch": 60, "duration": 229, "velocity": 91}, {"time": 97701, "pitch": 64, "duration": 219, "velocity": 76}, {"time": 97920, "pitch": 48, "duration": 241, "velocity": 88}, {"time": 97920, "pitch": 55, "duration": 241, "velocity": 98}, {"time": 97930, "pitch": 60, "duration": 231, "velocity": 106}, {"time": 97940, "pitch": 64, "duration": 221, "velocity": 91}, {"time": 98161, "pitch": 48, "duration": 161, "velocity": 83}, {"time": 98161, "pitch": 55, "duration": 161, "velocity": 93}, {"time": 98171, "pitch": 60, "duration": 151, "velocity": 101}, {"time": 98181, "pitch": 64, "duration": 141, "velocity": 86}, {"time": 98322, "pitch": 55, "duration": 81, "velocity": 79}, {"time": 98322, "pitch": 60, "duration": 81, "velocity": 91}, {"time": 98322, "pitch": 64, "duration": 81, "velocity": 83}, {"time": 98332, "pitch": 48, "duration": 71, "velocity": 75}, {"time": 98403, "pitch": 55, "duration": 447, "velocity": 88}, {"time": 98403, "pitch": 59, "duration": 447, "velocity": 98}, {"time": 98413, "pitch": 62, "duration": 447, "velocity": 106}, {"time": 98422, "pitch": 67, "duration": 448, "velocity": 91}, {"time": 99121, "pitch": 55, "duration": 1182, "velocity": 78}, {"time": 99121, "pitch": 59, "duration": 1182, "velocity": 88}, {"time": 99131, "pitch": 62, "duration": 1182, "velocity": 96}, {"time": 99141, "pitch": 67, "duration": 1182, "velocity": 81}, {"time": 100323, "pitch": 55, "duration": 447, "velocity": 88}, {"time": 100323, "pitch": 59, "duration": 447, "velocity": 98}, {"time": 100333, "pitch": 62, "duration": 447, "velocity": 106}, {"time": 100343, "pitch": 67, "duration": 447, "velocity": 91}, {"time": 101041, "pitch": 55, "duration": 818, "velocity": 78}, {"time": 101041, "pitch": 59, "duration": 818, "velocity": 88}, {"time": 101051, "pitch": 62, "duration": 818, "velocity": 96}, {"time": 101062, "pitch": 67, "duration": 817, "velocity": 81}, {"time": 101879, "pitch": 53, "duration": 338, "velocity": 78}, {"time": 101879, "pitch": 57, "duration": 338, "velocity": 88}, {"time": 101889, "pitch": 60, "duration": 338, "velocity": 96}, {"time": 101899, "pitch": 65, "duration": 338, "velocity": 81}, {"time": 102237, "pitch": 51, "duration": 242, "velocity": 88}, {"time": 102237, "pitch": 58, "duration": 242, "velocity": 98}, {"time": 102247, "pitch": 63, "duration": 232, "velocity": 106}, {"time": 102257, "pitch": 67, "duration": 222, "velocity": 91}, {"time": 102479, "pitch": 58, "duration": 241, "velocity": 81}, {"time": 102479, "pitch": 63, "duration": 241, "velocity": 93}, {"time": 102479, "pitch": 67, "duration": 241, "velocity": 85}, {"time": 102489, "pitch": 51, "duration": 231, "velocity": 77}, {"time": 102720, "pitch": 51, "duration": 239, "velocity": 88}, {"time": 102720, "pitch": 58, "duration": 239, "velocity": 98}, {"time": 102730, "pitch": 63, "duration": 229, "velocity": 106}, {"time": 102740, "pitch": 67, "duration": 219, "velocity": 91}, {"time": 102959, "pitch": 51, "duration": 159, "velocity": 83}, {"time": 102959, "pitch": 58, "duration": 159, "velocity": 93}, {"time": 102969, "pitch": 63, "duration": 149, "velocity": 101}, {"time": 102979, "pitch": 67, "duration": 139, "velocity": 86}, {"time": 103118, "pitch": 58, "duration": 79, "velocity": 79}, {"time": 103118, "pitch": 63, "duration": 79, "velocity": 91}, {"time": 103118, "pitch": 67, "duration": 79, "velocity": 83}, {"time": 103128, "pitch": 51, "duration": 69, "velocity": 75}, {"time": 103197, "pitch": 51, "duration": 161, "velocity": 68}, {"time": 103197, "pitch": 58, "duration": 161, "velocity": 78}, {"time": 103207, "pitch": 63, "duration": 151, "velocity": 86}, {"time": 103217, "pitch": 67, "duration": 141, "velocity": 71}, {"time": 103358, "pitch": 58, "duration": 81, "velocity": 78}, {"time": 103358, "pitch": 63, "duration": 81, "velocity": 90}, {"time": 103358, "pitch": 67, "duration": 81, "velocity": 82}, {"time": 103368, "pitch": 51, "duration": 71, "velocity": 74}, {"time": 103439, "pitch": 51, "duration": 241, "velocity": 73}, {"time": 103439, "pitch": 58, "duration": 241, "velocity": 83}, {"time": 103449, "pitch": 63, "duration": 231, "velocity": 91}, {"time": 103459, "pitch": 67, "duration": 221, "velocity": 76}, {"time": 103680, "pitch": 51, "duration": 239, "velocity": 88}, {"time": 103680, "pitch": 58, "duration": 239, "velocity": 98}, {"time": 103690, "pitch": 63, "duration": 229, "velocity": 106}, {"time": 103700, "pitch": 67, "duration": 219, "velocity": 91}, {"time": 103919, "pitch": 51, "duration": 159, "velocity": 83}, {"time": 103919, "pitch": 58, "duration": 159, "velocity": 93}, {"time": 103929, "pitch": 63, "duration": 149, "velocity": 101}, {"time": 103939, "pitch": 67, "duration": 139, "velocity": 86}, {"time": 104078, "pitch": 58, "duration": 79, "velocity": 79}, {"time": 104078, "pitch": 63, "duration": 79, "velocity": 91}, {"time": 104078, "pitch": 67, "duration": 79, "velocity": 83}, {"time": 104088, "pitch": 51, "duration": 69, "velocity": 75}, {"time": 104157, "pitch": 50, "duration": 242, "velocity": 88}, {"time": 104157, "pitch": 57, "duration": 242, "velocity": 98}, {"time": 104167, "pitch": 62, "duration": 232, "velocity": 106}, {"time": 104177, "pitch": 65, "duration": 222, "velocity": 91}, {"time": 104399, "pitch": 57, "duration": 241, "velocity": 81}, {"time": 104399, "pitch": 62, "duration": 241, "velocity": 93}, {"time": 104399, "pitch": 65, "duration": 241, "velocity": 85}, {"time": 104409, "pitch": 50, "duration": 231, "velocity": 77}, {"time": 104640, "pitch": 50, "duration": 239, "velocity": 88}, {"time": 104640, "pitch": 57, "duration": 239, "velocity": 98}, {"time": 104650, "pitch": 62, "duration": 229, "velocity": 106}, {"time": 104660, "pitch": 65, "duration": 219, "velocity": 91}, {"time": 104879, "pitch": 50, "duration": 159, "velocity": 83}, {"time": 104879, "pitch": 57, "duration": 159, "velocity": 93}, {"time": 104889, "pitch": 62, "duration": 149, "velocity": 101}, {"time": 104899, "pitch": 65, "duration": 139, "velocity": 86}, {"time": 105038, "pitch": 57, "duration": 79, "velocity": 79}, {"time": 105038, "pitch": 62, "duration": 79, "velocity": 91}, {"time": 105038, "pitch": 65, "duration": 79, "velocity": 83}, {"time": 105048, "pitch": 50, "duration": 69, "velocity": 75}, {"time": 105117, "pitch": 55, "duration": 161, "velocity": 68}, {"time": 105117, "pitch": 58, "duration": 161, "velocity": 78}, {"time": 105128, "pitch": 62, "duration": 150, "velocity": 86}, {"time": 105138, "pitch": 67, "duration": 140, "velocity": 71}, {"time": 105278, "pitch": 58, "duration": 81, "velocity": 78}, {"time": 105278, "pitch": 62, "duration": 81, "velocity": 90}, {"time": 105278, "pitch": 67, "duration": 81, "velocity": 82}, {"time": 105288, "pitch": 55, "duration": 71, "velocity": 74}, {"time": 105359, "pitch": 55, "duration": 241, "velocity": 73}, {"time": 105359, "pitch": 58, "duration": 241, "velocity": 83}, {"time": 105369, "pitch": 62, "duration": 231, "velocity": 91}, {"time": 105379, "pitch": 67, "duration": 221, "velocity": 76}, {"time": 105600, "pitch": 55, "duration": 239, "velocity": 88}, {"time": 105600, "pitch": 58, "duration": 239, "velocity": 98}, {"time": 105610, "pitch": 62, "duration": 229, "velocity": 106}, {"time": 105620, "pitch": 67, "duration": 219, "velocity": 91}, {"time": 105839, "pitch": 55, "duration": 159, "velocity": 83}, {"time": 105839, "pitch": 58, "duration": 159, "velocity": 93}, {"time": 105849, "pitch": 62, "duration": 149, "velocity": 101}, {"time": 105859, "pitch": 67, "duration": 139, "velocity": 86}, {"time": 105998, "pitch": 58, "duration": 80, "velocity": 79}, {"time": 105998, "pitch": 62, "duration": 80, "velocity": 91}, {"time": 105998, "pitch": 67, "duration": 80, "velocity": 83}, {"time": 106008, "pitch": 55, "duration": 70, "velocity": 75}, {"time": 106078, "pitch": 55, "duration": 452, "velocity": 94}, {"time": 106078, "pitch": 60, "duration": 452, "velocity": 91}, {"time": 106088, "pitch": 63, "duration": 452, "velocity": 94}, {"time": 106098, "pitch": 67, "duration": 452, "velocity": 97}, {"time": 106560, "pitch": 50, "duration": 448, "velocity": 89}, {"time": 106560, "pitch": 57, "duration": 448, "velocity": 83}, {"time": 106570, "pitch": 62, "duration": 448, "velocity": 90}, {"time": 106580, "pitch": 65, "duration": 448, "velocity": 96}, {"time": 107038, "pitch": 58, "duration": 452, "velocity": 91}, {"time": 107048, "pitch": 63, "duration": 452, "velocity": 94}, {"time": 107058, "pitch": 67, "duration": 452, "velocity": 97}, {"time": 107521, "pitch": 58, "duration": 447, "velocity": 83}, {"time": 107530, "pitch": 63, "duration": 448, "velocity": 90}, {"time": 107540, "pitch": 67, "duration": 448, "velocity": 96}, {"time": 107998, "pitch": 55, "duration": 452, "velocity": 94}, {"time": 107998, "pitch": 60, "duration": 452, "velocity": 91}, {"time": 108008, "pitch": 63, "duration": 452, "velocity": 94}, {"time": 108018, "pitch": 67, "duration": 453, "velocity": 97}, {"time": 108481, "pitch": 50, "duration": 447, "velocity": 89}, {"time": 108481, "pitch": 57, "duration": 447, "velocity": 83}, {"time": 108491, "pitch": 62, "duration": 447, "velocity": 90}, {"time": 108500, "pitch": 65, "duration": 448, "velocity": 96}, {"time": 108958, "pitch": 58, "duration": 452, "velocity": 91}, {"time": 108968, "pitch": 63, "duration": 453, "velocity": 94}, {"time": 108978, "pitch": 67, "duration": 453, "velocity": 97}, {"time": 109679, "pitch": 50, "duration": 480, "velocity": 88}, {"time": 109679, "pitch": 57, "duration": 480, "velocity": 83}, {"time": 109689, "pitch": 62, "duration": 470, "velocity": 90}, {"time": 109699, "pitch": 66, "duration": 470, "velocity": 96}, {"time": 110159, "pitch": 50, "duration": 242, "velocity": 83}, {"time": 110159, "pitch": 57, "duration": 242, "velocity": 77}, {"time": 110159, "pitch": 62, "duration": 242, "velocity": 85}, {"time": 110169, "pitch": 66, "duration": 232, "velocity": 90}, {"time": 110401, "pitch": 50, "duration": 238, "velocity": 88}, {"time": 110401, "pitch": 57, "duration": 238, "velocity": 83}, {"time": 110411, "pitch": 62, "duration": 228, "velocity": 90}, {"time": 110421, "pitch": 66, "duration": 228, "velocity": 96}, {"time": 110639, "pitch": 50, "duration": 239, "velocity": 83}, {"time": 110639, "pitch": 57, "duration": 239, "velocity": 77}, {"time": 110639, "pitch": 62, "duration": 239, "velocity": 85}, {"time": 110649, "pitch": 66, "duration": 229, "velocity": 90}, {"time": 110878, "pitch": 50, "duration": 241, "velocity": 88}, {"time": 110878, "pitch": 57, "duration": 241, "velocity": 83}, {"time": 110888, "pitch": 62, "duration": 231, "velocity": 90}, {"time": 110898, "pitch": 66, "duration": 231, "velocity": 96}, {"time": 111119, "pitch": 50, "duration": 242, "velocity": 83}, {"time": 111119, "pitch": 57, "duration": 242, "velocity": 77}, {"time": 111119, "pitch": 62, "duration": 242, "velocity": 85}, {"time": 111129, "pitch": 66, "duration": 232, "velocity": 90}, {"time": 111361, "pitch": 50, "duration": 238, "velocity": 88}, {"time": 111361, "pitch": 57, "duration": 238, "velocity": 83}, {"time": 111371, "pitch": 62, "duration": 228, "velocity": 90}, {"time": 111381, "pitch": 66, "duration": 228, "velocity": 96}, {"time": 111599, "pitch": 50, "duration": 239, "velocity": 83}, {"time": 111599, "pitch": 57, "duration": 239, "velocity": 77}, {"time": 111599, "pitch": 62, "duration": 239, "velocity": 85}, {"time": 111609, "pitch": 66, "duration": 229, "velocity": 90}, {"time": 111838, "pitch": 50, "duration": 241, "velocity": 88}, {"time": 111838, "pitch": 57, "duration": 241, "velocity": 83}, {"time": 111848, "pitch": 62, "duration": 231, "velocity": 90}, {"time": 111858, "pitch": 66, "duration": 232, "velocity": 96}, {"time": 112079, "pitch": 50, "duration": 242, "velocity": 83}, {"time": 112079, "pitch": 57, "duration": 242, "velocity": 77}, {"time": 112079, "pitch": 62, "duration": 242, "velocity": 85}, {"time": 112090, "pitch": 66, "duration": 231, "velocity": 90}, {"time": 112321, "pitch": 50, "duration": 239, "velocity": 88}, {"time": 112321, "pitch": 57, "duration": 239, "velocity": 83}, {"time": 112331, "pitch": 62, "duration": 229, "velocity": 90}, {"time": 112341, "pitch": 66, "duration": 228, "velocity": 96}, {"time": 112560, "pitch": 50, "duration": 238, "velocity": 83}, {"time": 112560, "pitch": 57, "duration": 238, "velocity": 77}, {"time": 112560, "pitch": 62, "duration": 238, "velocity": 85}, {"time": 112569, "pitch": 66, "duration": 229, "velocity": 90}, {"time": 112798, "pitch": 50, "duration": 242, "velocity": 88}, {"time": 112798, "pitch": 57, "duration": 242, "velocity": 83}, {"time": 112808, "pitch": 62, "duration": 232, "velocity": 90}, {"time": 112818, "pitch": 66, "duration": 232, "velocity": 96}, {"time": 113040, "pitch": 50, "duration": 241, "velocity": 83}, {"time": 113040, "pitch": 57, "duration": 241, "velocity": 77}, {"time": 113040, "pitch": 62, "duration": 241, "velocity": 85}, {"time": 113050, "pitch": 66, "duration": 231, "velocity": 90}, {"time": 113281, "pitch": 50, "duration": 239, "velocity": 88}, {"time": 113281, "pitch": 57, "duration": 239, "velocity": 83}, {"time": 113291, "pitch": 62, "duration": 229, "velocity": 90}, {"time": 113301, "pitch": 66, "duration": 229, "velocity": 96}, {"time": 113520, "pitch": 50, "duration": 238, "velocity": 83}, {"time": 113520, "pitch": 57, "duration": 238, "velocity": 77}, {"time": 113520, "pitch": 62, "duration": 238, "velocity": 85}, {"time": 113530, "pitch": 66, "duration": 228, "velocity": 90}, {"time": 113758, "pitch": 55, "duration": 242, "velocity": 88}, {"time": 113758, "pitch": 59, "duration": 242, "velocity": 98}, {"time": 113768, "pitch": 62, "duration": 232, "velocity": 106}, {"time": 113778, "pitch": 67, "duration": 222, "velocity": 91}, {"time": 114000, "pitch": 59, "duration": 241, "velocity": 81}, {"time": 114000, "pitch": 62, "duration": 241, "velocity": 93}, {"time": 114000, "pitch": 67, "duration": 241, "velocity": 85}, {"time": 114010, "pitch": 55, "duration": 231, "velocity": 77}, {"time": 114241, "pitch": 55, "duration": 239, "velocity": 88}, {"time": 114241, "pitch": 59, "duration": 239, "velocity": 98}, {"time": 114251, "pitch": 62, "duration": 229, "velocity": 106}, {"time": 114261, "pitch": 67, "duration": 219, "velocity": 91}, {"time": 114480, "pitch": 55, "duration": 159, "velocity": 83}, {"time": 114480, "pitch": 59, "duration": 159, "velocity": 93}, {"time": 114490, "pitch": 62, "duration": 149, "velocity": 101}, {"time": 114500, "pitch": 67, "duration": 139, "velocity": 86}, {"time": 114639, "pitch": 59, "duration": 79, "velocity": 79}, {"time": 114639, "pitch": 62, "duration": 79, "velocity": 91}, {"time": 114639, "pitch": 67, "duration": 79, "velocity": 83}, {"time": 114649, "pitch": 55, "duration": 69, "velocity": 75}, {"time": 114718, "pitch": 55, "duration": 161, "velocity": 68}, {"time": 114718, "pitch": 59, "duration": 161, "velocity": 78}, {"time": 114728, "pitch": 62, "duration": 151, "velocity": 86}, {"time": 114738, "pitch": 67, "duration": 141, "velocity": 71}, {"time": 114879, "pitch": 59, "duration": 81, "velocity": 78}, {"time": 114879, "pitch": 62, "duration": 81, "velocity": 90}, {"time": 114879, "pitch": 67, "duration": 81, "velocity": 82}, {"time": 114889, "pitch": 55, "duration": 71, "velocity": 74}, {"time": 114960, "pitch": 55, "duration": 241, "velocity": 73}, {"time": 114960, "pitch": 59, "duration": 241, "velocity": 83}, {"time": 114970, "pitch": 62, "duration": 231, "velocity": 91}, {"time": 114980, "pitch": 67, "duration": 221, "velocity": 76}, {"time": 115201, "pitch": 55, "duration": 239, "velocity": 88}, {"time": 115201, "pitch": 59, "duration": 239, "velocity": 98}, {"time": 115211, "pitch": 62, "duration": 229, "velocity": 106}, {"time": 115221, "pitch": 67, "duration": 219, "velocity": 91}, {"time": 115440, "pitch": 55, "duration": 159, "velocity": 83}, {"time": 115440, "pitch": 59, "duration": 159, "velocity": 93}, {"time": 115450, "pitch": 62, "duration": 149, "velocity": 101}, {"time": 115460, "pitch": 67, "duration": 139, "velocity": 86}, {"time": 115599, "pitch": 59, "duration": 79, "velocity": 79}, {"time": 115599, "pitch": 62, "duration": 79, "velocity": 91}, {"time": 115599, "pitch": 67, "duration": 79, "velocity": 83}, {"time": 115609, "pitch": 55, "duration": 69, "velocity": 75}, {"time": 115678, "pitch": 50, "duration": 242, "velocity": 88}, {"time": 115678, "pitch": 57, "duration": 242, "velocity": 98}, {"time": 115688, "pitch": 62, "duration": 232, "velocity": 106}, {"time": 115698, "pitch": 66, "duration": 222, "velocity": 91}, {"time": 115920, "pitch": 57, "duration": 241, "velocity": 81}, {"time": 115920, "pitch": 62, "duration": 241, "velocity": 93}, {"time": 115920, "pitch": 66, "duration": 241, "velocity": 85}, {"time": 115930, "pitch": 50, "duration": 231, "velocity": 77}, {"time": 116161, "pitch": 50, "duration": 239, "velocity": 88}, {"time": 116161, "pitch": 57, "duration": 239, "velocity": 98}, {"time": 116171, "pitch": 62, "duration": 229, "velocity": 106}, {"time": 116181, "pitch": 66, "duration": 219, "velocity": 91}, {"time": 116400, "pitch": 50, "duration": 159, "velocity": 83}, {"time": 116400, "pitch": 57, "duration": 159, "velocity": 93}, {"time": 116410, "pitch": 62, "duration": 149, "velocity": 101}, {"time": 116420, "pitch": 66, "duration": 139, "velocity": 86}, {"time": 116559, "pitch": 57, "duration": 79, "velocity": 79}, {"time": 116559, "pitch": 62, "duration": 79, "velocity": 91}, {"time": 116559, "pitch": 66, "duration": 79, "velocity": 83}, {"time": 116569, "pitch": 50, "duration": 69, "velocity": 75}, {"time": 116638, "pitch": 50, "duration": 161, "velocity": 68}, {"time": 116638, "pitch": 57, "duration": 161, "velocity": 78}, {"time": 116648, "pitch": 62, "duration": 151, "velocity": 86}, {"time": 116659, "pitch": 66, "duration": 140, "velocity": 71}, {"time": 116799, "pitch": 57, "duration": 81, "velocity": 78}, {"time": 116799, "pitch": 62, "duration": 81, "velocity": 90}, {"time": 116799, "pitch": 66, "duration": 81, "velocity": 82}, {"time": 116809, "pitch": 50, "duration": 71, "velocity": 74}, {"time": 116880, "pitch": 50, "duration": 241, "velocity": 73}, {"time": 116880, "pitch": 57, "duration": 241, "velocity": 83}, {"time": 116890, "pitch": 62, "duration": 231, "velocity": 91}, {"time": 116900, "pitch": 66, "duration": 221, "velocity": 76}, {"time": 117121, "pitch": 50, "duration": 239, "velocity": 88}, {"time": 117121, "pitch": 57, "duration": 239, "velocity": 98}, {"time": 117131, "pitch": 62, "duration": 229, "velocity": 106}, {"time": 117141, "pitch": 66, "duration": 219, "velocity": 91}, {"time": 117360, "pitch": 50, "duration": 159, "velocity": 83}, {"time": 117360, "pitch": 57, "duration": 159, "velocity": 93}, {"time": 117370, "pitch": 62, "duration": 149, "velocity": 101}, {"time": 117380, "pitch": 66, "duration": 139, "velocity": 86}, {"time": 117519, "pitch": 57, "duration": 80, "velocity": 79}, {"time": 117519, "pitch": 62, "duration": 80, "velocity": 91}, {"time": 117519, "pitch": 66, "duration": 80, "velocity": 83}, {"time": 117529, "pitch": 50, "duration": 70, "velocity": 75}, {"time": 117599, "pitch": 52, "duration": 241, "velocity": 88}, {"time": 117599, "pitch": 55, "duration": 241, "velocity": 98}, {"time": 117609, "pitch": 59, "duration": 231, "velocity": 106}, {"time": 117619, "pitch": 64, "duration": 221, "velocity": 91}, {"time": 117840, "pitch": 55, "duration": 241, "velocity": 81}, {"time": 117840, "pitch": 59, "duration": 241, "velocity": 93}, {"time": 117840, "pitch": 64, "duration": 241, "velocity": 85}, {"time": 117850, "pitch": 52, "duration": 231, "velocity": 77}, {"time": 118081, "pitch": 52, "duration": 239, "velocity": 88}, {"time": 118081, "pitch": 55, "duration": 239, "velocity": 98}, {"time": 118091, "pitch": 59, "duration": 229, "velocity": 106}, {"time": 118101, "pitch": 64, "duration": 219, "velocity": 91}, {"time": 118320, "pitch": 52, "duration": 159, "velocity": 83}, {"time": 118320, "pitch": 55, "duration": 159, "velocity": 93}, {"time": 118330, "pitch": 59, "duration": 149, "velocity": 101}, {"time": 118340, "pitch": 64, "duration": 139, "velocity": 86}, {"time": 118479, "pitch": 55, "duration": 80, "velocity": 79}, {"time": 118479, "pitch": 59, "duration": 80, "velocity": 91}, {"time": 118479, "pitch": 64, "duration": 80, "velocity": 83}, {"time": 118489, "pitch": 52, "duration": 70, "velocity": 75}, {"time": 118559, "pitch": 52, "duration": 161, "velocity": 68}, {"time": 118559, "pitch": 55, "duration": 161, "velocity": 78}, {"time": 118569, "pitch": 59, "duration": 151, "velocity": 86}, {"time": 118579, "pitch": 64, "duration": 141, "velocity": 71}, {"time": 118720, "pitch": 55, "duration": 80, "velocity": 78}, {"time": 118720, "pitch": 59, "duration": 80, "velocity": 90}, {"time": 118720, "pitch": 64, "duration": 80, "velocity": 82}, {"time": 118730, "pitch": 52, "duration": 70, "velocity": 74}, {"time": 118800, "pitch": 52, "duration": 241, "velocity": 73}, {"time": 118800, "pitch": 55, "duration": 241, "velocity": 83}, {"time": 118810, "pitch": 59, "duration": 231, "velocity": 91}, {"time": 118820, "pitch": 64, "duration": 221, "velocity": 76}, {"time": 119041, "pitch": 52, "duration": 239, "velocity": 88}, {"time": 119041, "pitch": 55, "duration": 239, "velocity": 98}, {"time": 119051, "pitch": 59, "duration": 229, "velocity": 106}, {"time": 119061, "pitch": 64, "duration": 219, "velocity": 91}, {"time": 119280, "pitch": 52, "duration": 159, "velocity": 83}, {"time": 119280, "pitch": 55, "duration": 159, "velocity": 93}, {"time": 119290, "pitch": 59, "duration": 149, "velocity": 101}, {"time": 119300, "pitch": 64, "duration": 139, "velocity": 86}, {"time": 119439, "pitch": 55, "duration": 80, "velocity": 79}, {"time": 119439, "pitch": 59, "duration": 80, "velocity": 91}, {"time": 119439, "pitch": 64, "duration": 80, "velocity": 83}, {"time": 119449, "pitch": 52, "duration": 70, "velocity": 75}, {"time": 119519, "pitch": 48, "duration": 241, "velocity": 88}, {"time": 119519, "pitch": 55, "duration": 241, "velocity": 98}, {"time": 119529, "pitch": 60, "duration": 231, "velocity": 106}, {"time": 119539, "pitch": 64, "duration": 221, "velocity": 91}, {"time": 119760, "pitch": 55, "duration": 242, "velocity": 81}, {"time": 119760, "pitch": 60, "duration": 242, "velocity": 93}, {"time": 119760, "pitch": 64, "duration": 242, "velocity": 85}, {"time": 119770, "pitch": 48, "duration": 232, "velocity": 77}, {"time": 120002, "pitch": 48, "duration": 238, "velocity": 88}, {"time": 120002, "pitch": 55, "duration": 238, "velocity": 98}, {"time": 120011, "pitch": 60, "duration": 229, "velocity": 106}, {"time": 120021, "pitch": 64, "duration": 219, "velocity": 91}, {"time": 120240, "pitch": 48, "duration": 159, "velocity": 83}, {"time": 120240, "pitch": 55, "duration": 159, "velocity": 93}, {"time": 120250, "pitch": 60, "duration": 149, "velocity": 101}, {"time": 120260, "pitch": 64, "duration": 139, "velocity": 86}, {"time": 120399, "pitch": 55, "duration": 80, "velocity": 79}, {"time": 120399, "pitch": 60, "duration": 80, "velocity": 91}, {"time": 120399, "pitch": 64, "duration": 80, "velocity": 83}, {"time": 120409, "pitch": 48, "duration": 70, "velocity": 75}, {"time": 120479, "pitch": 53, "duration": 161, "velocity": 68}, {"time": 120479, "pitch": 56, "duration": 161, "velocity": 78}, {"time": 120489, "pitch": 60, "duration": 151, "velocity": 86}, {"time": 120499, "pitch": 65, "duration": 141, "velocity": 71}, {"time": 120640, "pitch": 56, "duration": 80, "velocity": 78}, {"time": 120640, "pitch": 60, "duration": 80, "velocity": 90}, {"time": 120640, "pitch": 65, "duration": 80, "velocity": 82}, {"time": 120650, "pitch": 53, "duration": 70, "velocity": 74}, {"time": 120720, "pitch": 53, "duration": 242, "velocity": 73}, {"time": 120720, "pitch": 56, "duration": 242, "velocity": 83}, {"time": 120730, "pitch": 60, "duration": 232, "velocity": 91}, {"time": 120740, "pitch": 65, "duration": 222, "velocity": 76}, {"time": 120962, "pitch": 50, "duration": 238, "velocity": 88}, {"time": 120962, "pitch": 57, "duration": 238, "velocity": 98}, {"time": 120972, "pitch": 62, "duration": 228, "velocity": 106}, {"time": 120981, "pitch": 66, "duration": 219, "velocity": 91}, {"time": 121200, "pitch": 50, "duration": 159, "velocity": 83}, {"time": 121200, "pitch": 57, "duration": 159, "velocity": 93}, {"time": 121210, "pitch": 62, "duration": 149, "velocity": 101}, {"time": 121220, "pitch": 66, "duration": 139, "velocity": 86}, {"time": 121359, "pitch": 57, "duration": 80, "velocity": 79}, {"time": 121359, "pitch": 62, "duration": 80, "velocity": 91}, {"time": 121359, "pitch": 66, "duration": 80, "velocity": 83}, {"time": 121369, "pitch": 50, "duration": 70, "velocity": 75}, {"time": 121439, "pitch": 55, "duration": 241, "velocity": 88}, {"time": 121439, "pitch": 59, "duration": 241, "velocity": 98}, {"time": 121449, "pitch": 62, "duration": 231, "velocity": 106}, {"time": 121459, "pitch": 67, "duration": 221, "velocity": 91}, {"time": 121680, "pitch": 59, "duration": 242, "velocity": 81}, {"time": 121680, "pitch": 62, "duration": 242, "velocity": 93}, {"time": 121680, "pitch": 67, "duration": 242, "velocity": 85}, {"time": 121690, "pitch": 55, "duration": 232, "velocity": 77}, {"time": 121922, "pitch": 55, "duration": 238, "velocity": 88}, {"time": 121922, "pitch": 59, "duration": 238, "velocity": 98}, {"time": 121932, "pitch": 62, "duration": 228, "velocity": 106}, {"time": 121942, "pitch": 67, "duration": 218, "velocity": 91}, {"time": 122160, "pitch": 55, "duration": 159, "velocity": 83}, {"time": 122160, "pitch": 59, "duration": 159, "velocity": 93}, {"time": 122170, "pitch": 62, "duration": 149, "velocity": 101}, {"time": 122180, "pitch": 67, "duration": 139, "velocity": 86}, {"time": 122319, "pitch": 59, "duration": 80, "velocity": 79}, {"time": 122319, "pitch": 62, "duration": 80, "velocity": 91}, {"time": 122319, "pitch": 67, "duration": 80, "velocity": 83}, {"time": 122329, "pitch": 55, "duration": 70, "velocity": 75}, {"time": 122399, "pitch": 55, "duration": 161, "velocity": 68}, {"time": 122399, "pitch": 59, "duration": 161, "velocity": 78}, {"time": 122409, "pitch": 62, "duration": 151, "velocity": 86}, {"time": 122419, "pitch": 67, "duration": 141, "velocity": 71}, {"time": 122560, "pitch": 59, "duration": 80, "velocity": 78}, {"time": 122560, "pitch": 62, "duration": 80, "velocity": 90}, {"time": 122560, "pitch": 67, "duration": 80, "velocity": 82}, {"time": 122570, "pitch": 55, "duration": 70, "velocity": 74}, {"time": 122640, "pitch": 55, "duration": 242, "velocity": 73}, {"time": 122640, "pitch": 59, "duration": 242, "velocity": 83}, {"time": 122650, "pitch": 62, "duration": 232, "velocity": 91}, {"time": 122660, "pitch": 67, "duration": 222, "velocity": 76}, {"time": 122882, "pitch": 55, "duration": 238, "velocity": 88}, {"time": 122882, "pitch": 59, "duration": 238, "velocity": 98}, {"time": 122892, "pitch": 62, "duration": 228, "velocity": 106}, {"time": 122902, "pitch": 67, "duration": 218, "velocity": 91}, {"time": 123120, "pitch": 55, "duration": 159, "velocity": 83}, {"time": 123120, "pitch": 59, "duration": 159, "velocity": 93}, {"time": 123130, "pitch": 62, "duration": 149, "velocity": 101}, {"time": 123140, "pitch": 67, "duration": 139, "velocity": 86}, {"time": 123279, "pitch": 59, "duration": 80, "velocity": 79}, {"time": 123279, "pitch": 62, "duration": 80, "velocity": 91}, {"time": 123279, "pitch": 67, "duration": 80, "velocity": 83}, {"time": 123289, "pitch": 55, "duration": 70, "velocity": 75}, {"time": 123359, "pitch": 50, "duration": 241, "velocity": 88}, {"time": 123359, "pitch": 57, "duration": 241, "velocity": 98}, {"time": 123369, "pitch": 62, "duration": 231, "velocity": 106}, {"time": 123379, "pitch": 66, "duration": 221, "velocity": 91}, {"time": 123600, "pitch": 57, "duration": 242, "velocity": 81}, {"time": 123600, "pitch": 62, "duration": 242, "velocity": 93}, {"time": 123600, "pitch": 66, "duration": 242, "velocity": 85}, {"time": 123610, "pitch": 50, "duration": 232, "velocity": 77}, {"time": 123842, "pitch": 50, "duration": 238, "velocity": 88}, {"time": 123842, "pitch": 57, "duration": 238, "velocity": 98}, {"time": 123852, "pitch": 62, "duration": 228, "velocity": 106}, {"time": 123862, "pitch": 66, "duration": 218, "velocity": 91}, {"time": 124080, "pitch": 50, "duration": 160, "velocity": 83}, {"time": 124080, "pitch": 57, "duration": 160, "velocity": 93}, {"time": 124090, "pitch": 62, "duration": 150, "velocity": 101}, {"time": 124100, "pitch": 66, "duration": 140, "velocity": 86}, {"time": 124240, "pitch": 57, "duration": 79, "velocity": 79}, {"time": 124240, "pitch": 62, "duration": 79, "velocity": 91}, {"time": 124240, "pitch": 66, "duration": 79, "velocity": 83}, {"time": 124249, "pitch": 50, "duration": 70, "velocity": 75}, {"time": 124319, "pitch": 50, "duration": 161, "velocity": 68}, {"time": 124319, "pitch": 57, "duration": 161, "velocity": 78}, {"time": 124329, "pitch": 62, "duration": 151, "velocity": 86}, {"time": 124339, "pitch": 66, "duration": 141, "velocity": 71}, {"time": 124480, "pitch": 57, "duration": 81, "velocity": 78}, {"time": 124480, "pitch": 62, "duration": 81, "velocity": 90}, {"time": 124480, "pitch": 66, "duration": 81, "velocity": 82}, {"time": 124490, "pitch": 50, "duration": 71, "velocity": 74}, {"time": 124561, "pitch": 50, "duration": 241, "velocity": 73}, {"time": 124561, "pitch": 57, "duration": 241, "velocity": 83}, {"time": 124571, "pitch": 62, "duration": 231, "velocity": 91}, {"time": 124581, "pitch": 66, "duration": 221, "velocity": 76}, {"time": 124802, "pitch": 50, "duration": 239, "velocity": 88}, {"time": 124802, "pitch": 57, "duration": 239, "velocity": 98}, {"time": 124812, "pitch": 62, "duration": 229, "velocity": 106}, {"time": 124822, "pitch": 66, "duration": 219, "velocity": 91}, {"time": 125041, "pitch": 50, "duration": 159, "velocity": 83}, {"time": 125041, "pitch": 57, "duration": 159, "velocity": 93}, {"time": 125050, "pitch": 62, "duration": 150, "velocity": 101}, {"time": 125060, "pitch": 66, "duration": 140, "velocity": 86}, {"time": 125200, "pitch": 57, "duration": 79, "velocity": 79}, {"time": 125200, "pitch": 62, "duration": 79, "velocity": 91}, {"time": 125200, "pitch": 66, "duration": 79, "velocity": 83}, {"time": 125210, "pitch": 50, "duration": 69, "velocity": 75}, {"time": 125279, "pitch": 52, "duration": 242, "velocity": 88}, {"time": 125279, "pitch": 55, "duration": 242, "velocity": 98}, {"time": 125289, "pitch": 59, "duration": 232, "velocity": 106}, {"time": 125299, "pitch": 64, "duration": 222, "velocity": 91}, {"time": 125521, "pitch": 55, "duration": 241, "velocity": 81}, {"time": 125521, "pitch": 59, "duration": 241, "velocity": 93}, {"time": 125521, "pitch": 64, "duration": 241, "velocity": 85}, {"time": 125531, "pitch": 52, "duration": 231, "velocity": 77}, {"time": 125762, "pitch": 52, "duration": 239, "velocity": 88}, {"time": 125762, "pitch": 55, "duration": 239, "velocity": 98}, {"time": 125772, "pitch": 59, "duration": 229, "velocity": 106}, {"time": 125782, "pitch": 64, "duration": 219, "velocity": 91}, {"time": 126001, "pitch": 52, "duration": 159, "velocity": 83}, {"time": 126001, "pitch": 55, "duration": 159, "velocity": 93}, {"time": 126011, "pitch": 59, "duration": 149, "velocity": 101}, {"time": 126020, "pitch": 64, "duration": 140, "velocity": 86}, {"time": 126160, "pitch": 55, "duration": 79, "velocity": 79}, {"time": 126160, "pitch": 59, "duration": 79, "velocity": 91}, {"time": 126160, "pitch": 64, "duration": 79, "velocity": 83}, {"time": 126170, "pitch": 52, "duration": 69, "velocity": 75}, {"time": 126239, "pitch": 52, "duration": 161, "velocity": 68}, {"time": 126239, "pitch": 55, "duration": 161, "velocity": 78}, {"time": 126249, "pitch": 59, "duration": 151, "velocity": 86}, {"time": 126259, "pitch": 64, "duration": 141, "velocity": 71}, {"time": 126400, "pitch": 55, "duration": 81, "velocity": 78}, {"time": 126400, "pitch": 59, "duration": 81, "velocity": 90}, {"time": 126400, "pitch": 64, "duration": 81, "velocity": 82}, {"time": 126410, "pitch": 52, "duration": 71, "velocity": 74}, {"time": 126481, "pitch": 52, "duration": 241, "velocity": 73}, {"time": 126481, "pitch": 55, "duration": 241, "velocity": 83}, {"time": 126491, "pitch": 59, "duration": 231, "velocity": 91}, {"time": 126501, "pitch": 64, "duration": 221, "velocity": 76}, {"time": 126722, "pitch": 52, "duration": 239, "velocity": 88}, {"time": 126722, "pitch": 55, "duration": 239, "velocity": 98}, {"time": 126732, "pitch": 59, "duration": 229, "velocity": 106}, {"time": 126742, "pitch": 64, "duration": 219, "velocity": 91}, {"time": 126961, "pitch": 52, "duration": 159, "velocity": 83}, {"time": 126961, "pitch": 55, "duration": 159, "velocity": 93}, {"time": 126971, "pitch": 59, "duration": 149, "velocity": 101}, {"time": 126981, "pitch": 64, "duration": 139, "velocity": 86}, {"time": 127120, "pitch": 55, "duration": 79, "velocity": 79}, {"time": 127120, "pitch": 59, "duration": 79, "velocity": 91}, {"time": 127120, "pitch": 64, "duration": 79, "velocity": 83}, {"time": 127130, "pitch": 52, "duration": 69, "velocity": 75}, {"time": 127199, "pitch": 48, "duration": 242, "velocity": 88}, {"time": 127199, "pitch": 55, "duration": 242, "velocity": 98}, {"time": 127209, "pitch": 60, "duration": 232, "velocity": 106}, {"time": 127219, "pitch": 64, "duration": 222, "velocity": 91}, {"time": 127441, "pitch": 55, "duration": 241, "velocity": 81}, {"time": 127441, "pitch": 60, "duration": 241, "velocity": 93}, {"time": 127441, "pitch": 64, "duration": 241, "velocity": 85}, {"time": 127451, "pitch": 48, "duration": 231, "velocity": 77}, {"time": 127682, "pitch": 48, "duration": 239, "velocity": 88}, {"time": 127682, "pitch": 55, "duration": 239, "velocity": 98}, {"time": 127692, "pitch": 60, "duration": 229, "velocity": 106}, {"time": 127702, "pitch": 64, "duration": 219, "velocity": 91}, {"time": 127921, "pitch": 48, "duration": 159, "velocity": 83}, {"time": 127921, "pitch": 55, "duration": 159, "velocity": 93}, {"time": 127931, "pitch": 60, "duration": 149, "velocity": 101}, {"time": 127941, "pitch": 64, "duration": 139, "velocity": 86}, {"time": 128080, "pitch": 55, "duration": 79, "velocity": 79}, {"time": 128080, "pitch": 60, "duration": 79, "velocity": 91}, {"time": 128080, "pitch": 64, "duration": 79, "velocity": 83}, {"time": 128090, "pitch": 48, "duration": 69, "velocity": 75}, {"time": 128159, "pitch": 50, "duration": 161, "velocity": 68}, {"time": 128159, "pitch": 57, "duration": 161, "velocity": 78}, {"time": 128169, "pitch": 62, "duration": 151, "velocity": 86}, {"time": 128179, "pitch": 66, "duration": 141, "velocity": 71}, {"time": 128320, "pitch": 57, "duration": 81, "velocity": 78}, {"time": 128320, "pitch": 62, "duration": 81, "velocity": 90}, {"time": 128320, "pitch": 66, "duration": 81, "velocity": 82}, {"time": 128330, "pitch": 50, "duration": 71, "velocity": 74}, {"time": 128401, "pitch": 50, "duration": 241, "velocity": 73}, {"time": 128401, "pitch": 57, "duration": 241, "velocity": 83}, {"time": 128411, "pitch": 62, "duration": 231, "velocity": 91}, {"time": 128421, "pitch": 66, "duration": 221, "velocity": 76}, {"time": 128642, "pitch": 50, "duration": 239, "velocity": 88}, {"time": 128642, "pitch": 57, "duration": 239, "velocity": 98}, {"time": 128652, "pitch": 62, "duration": 229, "velocity": 106}, {"time": 128662, "pitch": 66, "duration": 219, "velocity": 91}, {"time": 128881, "pitch": 50, "duration": 159, "velocity": 83}, {"time": 128881, "pitch": 57, "duration": 159, "velocity": 93}, {"time": 128891, "pitch": 62, "duration": 149, "velocity": 101}, {"time": 128901, "pitch": 66, "duration": 139, "velocity": 86}, {"time": 129040, "pitch": 57, "duration": 79, "velocity": 79}, {"time": 129040, "pitch": 62, "duration": 79, "velocity": 91}, {"time": 129040, "pitch": 66, "duration": 79, "velocity": 83}, {"time": 129050, "pitch": 50, "duration": 69, "velocity": 75}, {"time": 129119, "pitch": 55, "duration": 242, "velocity": 88}, {"time": 129119, "pitch": 59, "duration": 242, "velocity": 98}, {"time": 129130, "pitch": 62, "duration": 231, "velocity": 106}, {"time": 129140, "pitch": 67, "duration": 221, "velocity": 91}, {"time": 129361, "pitch": 59, "duration": 241, "velocity": 81}, {"time": 129361, "pitch": 62, "duration": 241, "velocity": 93}, {"time": 129361, "pitch": 67, "duration": 241, "velocity": 85}, {"time": 129371, "pitch": 55, "duration": 231, "velocity": 77}, {"time": 129602, "pitch": 55, "duration": 239, "velocity": 88}, {"time": 129602, "pitch": 59, "duration": 239, "velocity": 98}, {"time": 129612, "pitch": 62, "duration": 229, "velocity": 106}, {"time": 129622, "pitch": 67, "duration": 219, "velocity": 91}, {"time": 129841, "pitch": 55, "duration": 159, "velocity": 83}, {"time": 129841, "pitch": 59, "duration": 159, "velocity": 93}, {"time": 129851, "pitch": 62, "duration": 149, "velocity": 101}, {"time": 129861, "pitch": 67, "duration": 139, "velocity": 86}, {"time": 130000, "pitch": 59, "duration": 80, "velocity": 79}, {"time": 130000, "pitch": 62, "duration": 80, "velocity": 91}, {"time": 130000, "pitch": 67, "duration": 80, "velocity": 83}, {"time": 130010, "pitch": 55, "duration": 70, "velocity": 75}, {"time": 130080, "pitch": 55, "duration": 160, "velocity": 68}, {"time": 130080, "pitch": 59, "duration": 160, "velocity": 78}, {"time": 130090, "pitch": 62, "duration": 150, "velocity": 86}, {"time": 130100, "pitch": 67, "duration": 140, "velocity": 71}, {"time": 130240, "pitch": 59, "duration": 81, "velocity": 78}, {"time": 130240, "pitch": 62, "duration": 81, "velocity": 90}, {"time": 130240, "pitch": 67, "duration": 81, "velocity": 82}, {"time": 130251, "pitch": 55, "duration": 70, "velocity": 74}, {"time": 130321, "pitch": 55, "duration": 241, "velocity": 73}, {"time": 130321, "pitch": 59, "duration": 241, "velocity": 83}, {"time": 130331, "pitch": 62, "duration": 231, "velocity": 91}, {"time": 130341, "pitch": 67, "duration": 221, "velocity": 76}, {"time": 130562, "pitch": 55, "duration": 239, "velocity": 88}, {"time": 130562, "pitch": 59, "duration": 239, "velocity": 98}, {"time": 130572, "pitch": 62, "duration": 229, "velocity": 106}, {"time": 130582, "pitch": 67, "duration": 219, "velocity": 91}, {"time": 130801, "pitch": 55, "duration": 159, "velocity": 83}, {"time": 130801, "pitch": 59, "duration": 159, "velocity": 93}, {"time": 130811, "pitch": 62, "duration": 149, "velocity": 101}, {"time": 130821, "pitch": 67, "duration": 139, "velocity": 86}, {"time": 130960, "pitch": 59, "duration": 80, "velocity": 79}, {"time": 130960, "pitch": 62, "duration": 80, "velocity": 91}, {"time": 130960, "pitch": 67, "duration": 80, "velocity": 83}, {"time": 130970, "pitch": 55, "duration": 70, "velocity": 75}, {"time": 131040, "pitch": 50, "duration": 241, "velocity": 88}, {"time": 131040, "pitch": 57, "duration": 241, "velocity": 98}, {"time": 131050, "pitch": 62, "duration": 231, "velocity": 106}, {"time": 131060, "pitch": 66, "duration": 221, "velocity": 91}, {"time": 131281, "pitch": 57, "duration": 241, "velocity": 81}, {"time": 131281, "pitch": 62, "duration": 241, "velocity": 93}, {"time": 131281, "pitch": 66, "duration": 241, "velocity": 85}, {"time": 131291, "pitch": 50, "duration": 231, "velocity": 77}, {"time": 131522, "pitch": 50, "duration": 239, "velocity": 88}, {"time": 131522, "pitch": 57, "duration": 239, "velocity": 98}, {"time": 131532, "pitch": 62, "duration": 229, "velocity": 106}, {"time": 131542, "pitch": 66, "duration": 219, "velocity": 91}, {"time": 131761, "pitch": 50, "duration": 159, "velocity": 83}, {"time": 131761, "pitch": 57, "duration": 159, "velocity": 93}, {"time": 131771, "pitch": 62, "duration": 149, "velocity": 101}, {"time": 131781, "pitch": 66, "duration": 139, "velocity": 86}, {"time": 131920, "pitch": 57, "duration": 80, "velocity": 79}, {"time": 131920, "pitch": 62, "duration": 80, "velocity": 91}, {"time": 131920, "pitch": 66, "duration": 80, "velocity": 83}, {"time": 131930, "pitch": 50, "duration": 70, "velocity": 75}, {"time": 132000, "pitch": 50, "duration": 161, "velocity": 68}, {"time": 132000, "pitch": 57, "duration": 161, "velocity": 78}, {"time": 132010, "pitch": 62, "duration": 151, "velocity": 86}, {"time": 132020, "pitch": 66, "duration": 141, "velocity": 71}, {"time": 132161, "pitch": 57, "duration": 80, "velocity": 78}, {"time": 132161, "pitch": 62, "duration": 80, "velocity": 90}, {"time": 132161, "pitch": 66, "duration": 80, "velocity": 82}, {"time": 132171, "pitch": 50, "duration": 70, "velocity": 74}, {"time": 132241, "pitch": 50, "duration": 242, "velocity": 73}, {"time": 132241, "pitch": 57, "duration": 242, "velocity": 83}, {"time": 132251, "pitch": 62, "duration": 232, "velocity": 91}, {"time": 132261, "pitch": 66, "duration": 222, "velocity": 76}, {"time": 132483, "pitch": 50, "duration": 238, "velocity": 88}, {"time": 132483, "pitch": 57, "duration": 238, "velocity": 98}, {"time": 132493, "pitch": 62, "duration": 228, "velocity": 106}, {"time": 132502, "pitch": 66, "duration": 219, "velocity": 91}, {"time": 132721, "pitch": 50, "duration": 159, "velocity": 83}, {"time": 132721, "pitch": 57, "duration": 159, "velocity": 93}, {"time": 132731, "pitch": 62, "duration": 149, "velocity": 101}, {"time": 132741, "pitch": 66, "duration": 139, "velocity": 86}, {"time": 132880, "pitch": 57, "duration": 80, "velocity": 79}, {"time": 132880, "pitch": 62, "duration": 80, "velocity": 91}, {"time": 132880, "pitch": 66, "duration": 80, "velocity": 83}, {"time": 132890, "pitch": 50, "duration": 70, "velocity": 75}, {"time": 132960, "pitch": 52, "duration": 241, "velocity": 88}, {"time": 132960, "pitch": 55, "duration": 241, "velocity": 98}, {"time": 132970, "pitch": 59, "duration": 231, "velocity": 106}, {"time": 132980, "pitch": 64, "duration": 221, "velocity": 91}, {"time": 133201, "pitch": 55, "duration": 242, "velocity": 81}, {"time": 133201, "pitch": 59, "duration": 242, "velocity": 93}, {"time": 133201, "pitch": 64, "duration": 242, "velocity": 85}, {"time": 133211, "pitch": 52, "duration": 232, "velocity": 77}, {"time": 133443, "pitch": 52, "duration": 238, "velocity": 88}, {"time": 133443, "pitch": 55, "duration": 238, "velocity": 98}, {"time": 133453, "pitch": 59, "duration": 228, "velocity": 106}, {"time": 133463, "pitch": 64, "duration": 218, "velocity": 91}, {"time": 133681, "pitch": 52, "duration": 159, "velocity": 83}, {"time": 133681, "pitch": 55, "duration": 159, "velocity": 93}, {"time": 133691, "pitch": 59, "duration": 149, "velocity": 101}, {"time": 133701, "pitch": 64, "duration": 139, "velocity": 86}, {"time": 133840, "pitch": 55, "duration": 80, "velocity": 79}, {"time": 133840, "pitch": 59, "duration": 80, "velocity": 91}, {"time": 133840, "pitch": 64, "duration": 80, "velocity": 83}, {"time": 133850, "pitch": 52, "duration": 70, "velocity": 75}, {"time": 133920, "pitch": 52, "duration": 161, "velocity": 68}, {"time": 133920, "pitch": 55, "duration": 161, "velocity": 78}, {"time": 133930, "pitch": 59, "duration": 151, "velocity": 86}, {"time": 133940, "pitch": 64, "duration": 141, "velocity": 71}, {"time": 134081, "pitch": 55, "duration": 80, "velocity": 78}, {"time": 134081, "pitch": 59, "duration": 80, "velocity": 90}, {"time": 134081, "pitch": 64, "duration": 80, "velocity": 82}, {"time": 134091, "pitch": 52, "duration": 70, "velocity": 74}, {"time": 134161, "pitch": 52, "duration": 242, "velocity": 73}, {"time": 134161, "pitch": 55, "duration": 242, "velocity": 83}, {"time": 134171, "pitch": 59, "duration": 232, "velocity": 91}, {"time": 134181, "pitch": 64, "duration": 222, "velocity": 76}, {"time": 134403, "pitch": 52, "duration": 238, "velocity": 88}, {"time": 134403, "pitch": 55, "duration": 238, "velocity": 98}, {"time": 134413, "pitch": 59, "duration": 228, "velocity": 106}, {"time": 134423, "pitch": 64, "duration": 218, "velocity": 91}, {"time": 134641, "pitch": 52, "duration": 159, "velocity": 83}, {"time": 134641, "pitch": 55, "duration": 159, "velocity": 93}, {"time": 134651, "pitch": 59, "duration": 149, "velocity": 101}, {"time": 134661, "pitch": 64, "duration": 139, "velocity": 86}, {"time": 134800, "pitch": 55, "duration": 80, "velocity": 79}, {"time": 134800, "pitch": 59, "duration": 80, "velocity": 91}, {"time": 134800, "pitch": 64, "duration": 80, "velocity": 83}, {"time": 134810, "pitch": 52, "duration": 70, "velocity": 75}, {"time": 134880, "pitch": 48, "duration": 241, "velocity": 88}, {"time": 134880, "pitch": 55, "duration": 241, "velocity": 98}, {"time": 134890, "pitch": 60, "duration": 231, "velocity": 106}, {"time": 134900, "pitch": 64, "duration": 221, "velocity": 91}, {"time": 135121, "pitch": 55, "duration": 242, "velocity": 81}, {"time": 135121, "pitch": 60, "duration": 242, "velocity": 93}, {"time": 135121, "pitch": 64, "duration": 242, "velocity": 85}, {"time": 135131, "pitch": 48, "duration": 232, "velocity": 77}, {"time": 135363, "pitch": 48, "duration": 238, "velocity": 88}, {"time": 135363, "pitch": 55, "duration": 238, "velocity": 98}, {"time": 135373, "pitch": 60, "duration": 228, "velocity": 106}, {"time": 135383, "pitch": 64, "duration": 218, "velocity": 91}, {"time": 135601, "pitch": 48, "duration": 159, "velocity": 83}, {"time": 135601, "pitch": 55, "duration": 159, "velocity": 93}, {"time": 135611, "pitch": 60, "duration": 149, "velocity": 101}, {"time": 135621, "pitch": 64, "duration": 139, "velocity": 86}, {"time": 135760, "pitch": 55, "duration": 80, "velocity": 79}, {"time": 135760, "pitch": 60, "duration": 80, "velocity": 91}, {"time": 135760, "pitch": 64, "duration": 80, "velocity": 83}, {"time": 135770, "pitch": 48, "duration": 70, "velocity": 75}, {"time": 135840, "pitch": 53, "duration": 159, "velocity": 68}, {"time": 135840, "pitch": 56, "duration": 159, "velocity": 78}, {"time": 135850, "pitch": 60, "duration": 149, "velocity": 86}, {"time": 135860, "pitch": 65, "duration": 139, "velocity": 71}, {"time": 135999, "pitch": 56, "duration": 80, "velocity": 78}, {"time": 135999, "pitch": 60, "duration": 80, "velocity": 90}, {"time": 135999, "pitch": 65, "duration": 80, "velocity": 82}, {"time": 136009, "pitch": 53, "duration": 70, "velocity": 74}, {"time": 136079, "pitch": 53, "duration": 238, "velocity": 73}, {"time": 136079, "pitch": 56, "duration": 238, "velocity": 83}, {"time": 136089, "pitch": 60, "duration": 228, "velocity": 91}, {"time": 136099, "pitch": 65, "duration": 218, "velocity": 76}, {"time": 136317, "pitch": 50, "duration": 242, "velocity": 88}, {"time": 136317, "pitch": 57, "duration": 242, "velocity": 98}, {"time": 136327, "pitch": 62, "duration": 232, "velocity": 106}, {"time": 136337, "pitch": 66, "duration": 222, "velocity": 91}, {"time": 136559, "pitch": 50, "duration": 161, "velocity": 83}, {"time": 136559, "pitch": 57, "duration": 161, "velocity": 93}, {"time": 136569, "pitch": 62, "duration": 151, "velocity": 101}, {"time": 136579, "pitch": 66, "duration": 141, "velocity": 86}, {"time": 136720, "pitch": 57, "duration": 80, "velocity": 79}, {"time": 136720, "pitch": 62, "duration": 80, "velocity": 91}, {"time": 136720, "pitch": 66, "duration": 80, "velocity": 83}, {"time": 136730, "pitch": 50, "duration": 70, "velocity": 75}, {"time": 136800, "pitch": 55, "duration": 239, "velocity": 88}, {"time": 136800, "pitch": 59, "duration": 239, "velocity": 98}, {"time": 136810, "pitch": 62, "duration": 229, "velocity": 106}, {"time": 136820, "pitch": 67, "duration": 219, "velocity": 91}, {"time": 137039, "pitch": 59, "duration": 238, "velocity": 81}, {"time": 137039, "pitch": 62, "duration": 238, "velocity": 93}, {"time": 137039, "pitch": 67, "duration": 238, "velocity": 85}, {"time": 137049, "pitch": 55, "duration": 228, "velocity": 77}, {"time": 137277, "pitch": 55, "duration": 242, "velocity": 88}, {"time": 137277, "pitch": 59, "duration": 242, "velocity": 98}, {"time": 137287, "pitch": 62, "duration": 232, "velocity": 106}, {"time": 137297, "pitch": 67, "duration": 222, "velocity": 91}, {"time": 137519, "pitch": 55, "duration": 161, "velocity": 83}, {"time": 137519, "pitch": 59, "duration": 161, "velocity": 93}, {"time": 137529, "pitch": 62, "duration": 151, "velocity": 101}, {"time": 137539, "pitch": 67, "duration": 141, "velocity": 86}, {"time": 137680, "pitch": 59, "duration": 80, "velocity": 79}, {"time": 137680, "pitch": 62, "duration": 80, "velocity": 91}, {"time": 137680, "pitch": 67, "duration": 80, "velocity": 83}, {"time": 137690, "pitch": 55, "duration": 70, "velocity": 75}, {"time": 137760, "pitch": 55, "duration": 159, "velocity": 68}, {"time": 137760, "pitch": 59, "duration": 159, "velocity": 78}, {"time": 137770, "pitch": 62, "duration": 149, "velocity": 86}, {"time": 137780, "pitch": 67, "duration": 139, "velocity": 71}, {"time": 137919, "pitch": 59, "duration": 80, "velocity": 78}, {"time": 137919, "pitch": 62, "duration": 80, "velocity": 90}, {"time": 137919, "pitch": 67, "duration": 80, "velocity": 82}, {"time": 137929, "pitch": 55, "duration": 70, "velocity": 74}, {"time": 137999, "pitch": 55, "duration": 238, "velocity": 73}, {"time": 137999, "pitch": 59, "duration": 238, "velocity": 83}, {"time": 138009, "pitch": 62, "duration": 228, "velocity": 91}, {"time": 138019, "pitch": 67, "duration": 218, "velocity": 76}, {"time": 138237, "pitch": 55, "duration": 242, "velocity": 88}, {"time": 138237, "pitch": 59, "duration": 242, "velocity": 98}, {"time": 138247, "pitch": 62, "duration": 232, "velocity": 106}, {"time": 138257, "pitch": 67, "duration": 222, "velocity": 91}, {"time": 138479, "pitch": 55, "duration": 161, "velocity": 83}, {"time": 138479, "pitch": 59, "duration": 161, "velocity": 93}, {"time": 138489, "pitch": 62, "duration": 151, "velocity": 101}, {"time": 138499, "pitch": 67, "duration": 141, "velocity": 86}, {"time": 138640, "pitch": 59, "duration": 80, "velocity": 79}, {"time": 138640, "pitch": 62, "duration": 80, "velocity": 91}, {"time": 138640, "pitch": 67, "duration": 80, "velocity": 83}, {"time": 138650, "pitch": 55, "duration": 70, "velocity": 75}, {"time": 138720, "pitch": 50, "duration": 239, "velocity": 88}, {"time": 138720, "pitch": 57, "duration": 239, "velocity": 98}, {"time": 138730, "pitch": 62, "duration": 229, "velocity": 106}, {"time": 138740, "pitch": 66, "duration": 219, "velocity": 91}, {"time": 138959, "pitch": 57, "duration": 238, "velocity": 81}, {"time": 138959, "pitch": 62, "duration": 238, "velocity": 93}, {"time": 138959, "pitch": 66, "duration": 238, "velocity": 85}, {"time": 138969, "pitch": 50, "duration": 228, "velocity": 77}, {"time": 139197, "pitch": 50, "duration": 242, "velocity": 88}, {"time": 139197, "pitch": 57, "duration": 242, "velocity": 98}, {"time": 139207, "pitch": 62, "duration": 232, "velocity": 106}, {"time": 139218, "pitch": 66, "duration": 221, "velocity": 91}, {"time": 139439, "pitch": 50, "duration": 161, "velocity": 83}, {"time": 139439, "pitch": 57, "duration": 161, "velocity": 93}, {"time": 139449, "pitch": 62, "duration": 151, "velocity": 101}, {"time": 139459, "pitch": 66, "duration": 141, "velocity": 86}, {"time": 139600, "pitch": 57, "duration": 80, "velocity": 79}, {"time": 139600, "pitch": 62, "duration": 80, "velocity": 91}, {"time": 139600, "pitch": 66, "duration": 80, "velocity": 83}, {"time": 139610, "pitch": 50, "duration": 70, "velocity": 75}, {"time": 139680, "pitch": 50, "duration": 159, "velocity": 68}, {"time": 139680, "pitch": 57, "duration": 159, "velocity": 78}, {"time": 139690, "pitch": 62, "duration": 149, "velocity": 86}, {"time": 139700, "pitch": 66, "duration": 139, "velocity": 71}, {"time": 139839, "pitch": 57, "duration": 80, "velocity": 78}, {"time": 139839, "pitch": 62, "duration": 80, "velocity": 90}, {"time": 139839, "pitch": 66, "duration": 80, "velocity": 82}, {"time": 139849, "pitch": 50, "duration": 70, "velocity": 74}, {"time": 139919, "pitch": 50, "duration": 239, "velocity": 73}, {"time": 139919, "pitch": 57, "duration": 239, "velocity": 83}, {"time": 139929, "pitch": 62, "duration": 229, "velocity": 91}, {"time": 139939, "pitch": 66, "duration": 219, "velocity": 76}, {"time": 140158, "pitch": 50, "duration": 241, "velocity": 88}, {"time": 140158, "pitch": 57, "duration": 241, "velocity": 98}, {"time": 140168, "pitch": 62, "duration": 231, "velocity": 106}, {"time": 140178, "pitch": 66, "duration": 221, "velocity": 91}, {"time": 140399, "pitch": 50, "duration": 161, "velocity": 83}, {"time": 140399, "pitch": 57, "duration": 161, "velocity": 93}, {"time": 140409, "pitch": 62, "duration": 151, "velocity": 101}, {"time": 140419, "pitch": 66, "duration": 141, "velocity": 86}, {"time": 140560, "pitch": 57, "duration": 80, "velocity": 79}, {"time": 140560, "pitch": 62, "duration": 80, "velocity": 91}, {"time": 140560, "pitch": 66, "duration": 80, "velocity": 83}, {"time": 140570, "pitch": 50, "duration": 70, "velocity": 75}, {"time": 140640, "pitch": 52, "duration": 239, "velocity": 88}, {"time": 140640, "pitch": 55, "duration": 239, "velocity": 98}, {"time": 140650, "pitch": 59, "duration": 229, "velocity": 106}, {"time": 140660, "pitch": 64, "duration": 219, "velocity": 91}, {"time": 140879, "pitch": 55, "duration": 239, "velocity": 81}, {"time": 140879, "pitch": 59, "duration": 239, "velocity": 93}, {"time": 140879, "pitch": 64, "duration": 239, "velocity": 85}, {"time": 140889, "pitch": 52, "duration": 229, "velocity": 77}, {"time": 141118, "pitch": 52, "duration": 241, "velocity": 88}, {"time": 141118, "pitch": 55, "duration": 241, "velocity": 98}, {"time": 141128, "pitch": 59, "duration": 231, "velocity": 106}, {"time": 141138, "pitch": 64, "duration": 221, "velocity": 91}, {"time": 141359, "pitch": 52, "duration": 161, "velocity": 83}, {"time": 141359, "pitch": 55, "duration": 161, "velocity": 93}, {"time": 141369, "pitch": 59, "duration": 151, "velocity": 101}, {"time": 141379, "pitch": 64, "duration": 141, "velocity": 86}, {"time": 141520, "pitch": 55, "duration": 80, "velocity": 79}, {"time": 141520, "pitch": 59, "duration": 80, "velocity": 91}, {"time": 141520, "pitch": 64, "duration": 80, "velocity": 83}, {"time": 141530, "pitch": 52, "duration": 70, "velocity": 75}, {"time": 141600, "pitch": 52, "duration": 160, "velocity": 68}, {"time": 141600, "pitch": 55, "duration": 160, "velocity": 78}, {"time": 141610, "pitch": 59, "duration": 150, "velocity": 86}, {"time": 141620, "pitch": 64, "duration": 140, "velocity": 71}, {"time": 141760, "pitch": 55, "duration": 79, "velocity": 78}, {"time": 141760, "pitch": 59, "duration": 79, "velocity": 90}, {"time": 141760, "pitch": 64, "duration": 79, "velocity": 82}, {"time": 141769, "pitch": 52, "duration": 70, "velocity": 74}, {"time": 141839, "pitch": 52, "duration": 239, "velocity": 73}, {"time": 141839, "pitch": 55, "duration": 239, "velocity": 83}, {"time": 141849, "pitch": 59, "duration": 229, "velocity": 91}, {"time": 141859, "pitch": 64, "duration": 219, "velocity": 76}, {"time": 142078, "pitch": 52, "duration": 241, "velocity": 88}, {"time": 142078, "pitch": 55, "duration": 241, "velocity": 98}, {"time": 142088, "pitch": 59, "duration": 231, "velocity": 106}, {"time": 142098, "pitch": 64, "duration": 221, "velocity": 91}, {"time": 142319, "pitch": 52, "duration": 161, "velocity": 83}, {"time": 142319, "pitch": 55, "duration": 161, "velocity": 93}, {"time": 142329, "pitch": 59, "duration": 151, "velocity": 101}, {"time": 142339, "pitch": 64, "duration": 141, "velocity": 86}, {"time": 142480, "pitch": 55, "duration": 81, "velocity": 79}, {"time": 142480, "pitch": 59, "duration": 81, "velocity": 91}, {"time": 142480, "pitch": 64, "duration": 81, "velocity": 83}, {"time": 142490, "pitch": 52, "duration": 71, "velocity": 75}, {"time": 142561, "pitch": 48, "duration": 238, "velocity": 88}, {"time": 142561, "pitch": 55, "duration": 238, "velocity": 98}, {"time": 142571, "pitch": 60, "duration": 228, "velocity": 106}, {"time": 142580, "pitch": 64, "duration": 219, "velocity": 91}, {"time": 142799, "pitch": 55, "duration": 239, "velocity": 81}, {"time": 142799, "pitch": 60, "duration": 239, "velocity": 93}, {"time": 142799, "pitch": 64, "duration": 239, "velocity": 85}, {"time": 142809, "pitch": 48, "duration": 229, "velocity": 77}, {"time": 143038, "pitch": 48, "duration": 241, "velocity": 88}, {"time": 143038, "pitch": 55, "duration": 241, "velocity": 98}, {"time": 143048, "pitch": 60, "duration": 231, "velocity": 106}, {"time": 143058, "pitch": 64, "duration": 221, "velocity": 91}, {"time": 143279, "pitch": 48, "duration": 161, "velocity": 83}, {"time": 143279, "pitch": 55, "duration": 161, "velocity": 93}, {"time": 143289, "pitch": 60, "duration": 151, "velocity": 101}, {"time": 143299, "pitch": 64, "duration": 141, "velocity": 86}, {"time": 143440, "pitch": 55, "duration": 81, "velocity": 79}, {"time": 143440, "pitch": 60, "duration": 81, "velocity": 91}, {"time": 143440, "pitch": 64, "duration": 81, "velocity": 83}, {"time": 143450, "pitch": 48, "duration": 71, "velocity": 75}, {"time": 143521, "pitch": 50, "duration": 159, "velocity": 68}, {"time": 143521, "pitch": 57, "duration": 159, "velocity": 78}, {"time": 143531, "pitch": 62, "duration": 149, "velocity": 86}, {"time": 143541, "pitch": 66, "duration": 139, "velocity": 71}, {"time": 143680, "pitch": 57, "duration": 79, "velocity": 78}, {"time": 143680, "pitch": 62, "duration": 79, "velocity": 90}, {"time": 143680, "pitch": 66, "duration": 79, "velocity": 82}, {"time": 143690, "pitch": 50, "duration": 69, "velocity": 74}, {"time": 143759, "pitch": 50, "duration": 239, "velocity": 73}, {"time": 143759, "pitch": 57, "duration": 239, "velocity": 83}, {"time": 143769, "pitch": 62, "duration": 229, "velocity": 91}, {"time": 143779, "pitch": 66, "duration": 219, "velocity": 76}, {"time": 143998, "pitch": 51, "duration": 241, "velocity": 88}, {"time": 143998, "pitch": 57, "duration": 241, "velocity": 98}, {"time": 144008, "pitch": 63, "duration": 231, "velocity": 106}, {"time": 144018, "pitch": 66, "duration": 221, "velocity": 91}, {"time": 144239, "pitch": 51, "duration": 161, "velocity": 83}, {"time": 144239, "pitch": 57, "duration": 161, "velocity": 93}, {"time": 144249, "pitch": 63, "duration": 151, "velocity": 101}, {"time": 144259, "pitch": 66, "duration": 141, "velocity": 86}, {"time": 144400, "pitch": 57, "duration": 81, "velocity": 79}, {"time": 144400, "pitch": 63, "duration": 81, "velocity": 91}, {"time": 144400, "pitch": 66, "duration": 81, "velocity": 83}, {"time": 144410, "pitch": 51, "duration": 71, "velocity": 75}, {"time": 144481, "pitch": 40, "duration": 980, "velocity": 117}, {"time": 144958, "pitch": 52, "duration": 483, "velocity": 98}, {"time": 144968, "pitch": 55, "duration": 483, "velocity": 104}, {"time": 144978, "pitch": 59, "duration": 463, "velocity": 109}, {"time": 144988, "pitch": 64, "duration": 483, "velocity": 113}, {"time": 145441, "pitch": 50, "duration": 238, "velocity": 120}, {"time": 145679, "pitch": 45, "duration": 239, "velocity": 113}, {"time": 145918, "pitch": 43, "duration": 161, "velocity": 119}, {"time": 146079, "pitch": 42, "duration": 322, "velocity": 115}, {"time": 146401, "pitch": 40, "duration": 980, "velocity": 117}, {"time": 146639, "pitch": 47, "duration": 722, "velocity": 97}, {"time": 146878, "pitch": 52, "duration": 483, "velocity": 98}, {"time": 146888, "pitch": 55, "duration": 483, "velocity": 104}, {"time": 146898, "pitch": 59, "duration": 463, "velocity": 109}, {"time": 146908, "pitch": 64, "duration": 483, "velocity": 113}, {"time": 147361, "pitch": 50, "duration": 239, "velocity": 120}, {"time": 147600, "pitch": 45, "duration": 238, "velocity": 113}, {"time": 147838, "pitch": 43, "duration": 161, "velocity": 119}, {"time": 147999, "pitch": 42, "duration": 322, "velocity": 115}, {"time": 148321, "pitch": 40, "duration": 980, "velocity": 117}, {"time": 148798, "pitch": 52, "duration": 483, "velocity": 98}, {"time": 148808, "pitch": 55, "duration": 483, "velocity": 104}, {"time": 148818, "pitch": 59, "duration": 463, "velocity": 109}, {"time": 148828, "pitch": 64, "duration": 483, "velocity": 113}, {"time": 149281, "pitch": 50, "duration": 239, "velocity": 120}, {"time": 149520, "pitch": 45, "duration": 238, "velocity": 113}, {"time": 149758, "pitch": 43, "duration": 161, "velocity": 119}, {"time": 149919, "pitch": 42, "duration": 322, "velocity": 115}, {"time": 150241, "pitch": 40, "duration": 980, "velocity": 117}, {"time": 150480, "pitch": 47, "duration": 721, "velocity": 97}, {"time": 150718, "pitch": 52, "duration": 483, "velocity": 98}, {"time": 150728, "pitch": 55, "duration": 483, "velocity": 104}, {"time": 150739, "pitch": 59, "duration": 462, "velocity": 109}, {"time": 150749, "pitch": 64, "duration": 482, "velocity": 113}, {"time": 151201, "pitch": 50, "duration": 239, "velocity": 120}, {"time": 151440, "pitch": 45, "duration": 238, "velocity": 113}, {"time": 151678, "pitch": 43, "duration": 161, "velocity": 119}, {"time": 151839, "pitch": 42, "duration": 81, "velocity": 115}, {"time": 9519, "pitch": 33, "duration": 210, "velocity": 108}, {"time": 9759, "pitch": 38, "duration": 322, "velocity": 117}, {"time": 10081, "pitch": 28, "duration": 477, "velocity": 113}, {"time": 10558, "pitch": 40, "duration": 483, "velocity": 107}, {"time": 11041, "pitch": 38, "duration": 20, "velocity": 81}, {"time": 11200, "pitch": 38, "duration": 80, "velocity": 114}, {"time": 11439, "pitch": 33, "duration": 79, "velocity": 105}, {"time": 11518, "pitch": 35, "duration": 161, "velocity": 115}, {"time": 11679, "pitch": 38, "duration": 322, "velocity": 110}, {"time": 12001, "pitch": 28, "duration": 239, "velocity": 113}, {"time": 12240, "pitch": 28, "duration": 238, "velocity": 109}, {"time": 12478, "pitch": 40, "duration": 483, "velocity": 107}, {"time": 12961, "pitch": 38, "duration": 20, "velocity": 81}, {"time": 13120, "pitch": 38, "duration": 80, "velocity": 114}, {"time": 13359, "pitch": 33, "duration": 210, "velocity": 108}, {"time": 13599, "pitch": 38, "duration": 322, "velocity": 117}, {"time": 13921, "pitch": 28, "duration": 477, "velocity": 113}, {"time": 14398, "pitch": 40, "duration": 483, "velocity": 107}, {"time": 14881, "pitch": 38, "duration": 20, "velocity": 81}, {"time": 15040, "pitch": 38, "duration": 80, "velocity": 114}, {"time": 15279, "pitch": 35, "duration": 80, "velocity": 105}, {"time": 15359, "pitch": 40, "duration": 161, "velocity": 115}, {"time": 15520, "pitch": 38, "duration": 321, "velocity": 110}, {"time": 15841, "pitch": 28, "duration": 478, "velocity": 113}, {"time": 16319, "pitch": 40, "duration": 483, "velocity": 107}, {"time": 16802, "pitch": 37, "duration": 19, "velocity": 81}, {"time": 16961, "pitch": 37, "duration": 79, "velocity": 114}, {"time": 17199, "pitch": 35, "duration": 80, "velocity": 105}, {"time": 17279, "pitch": 40, "duration": 161, "velocity": 115}, {"time": 17440, "pitch": 37, "duration": 322, "velocity": 110}, {"time": 17762, "pitch": 28, "duration": 477, "velocity": 113}, {"time": 18239, "pitch": 40, "duration": 483, "velocity": 107}, {"time": 18722, "pitch": 38, "duration": 20, "velocity": 81}, {"time": 18881, "pitch": 38, "duration": 79, "velocity": 114}, {"time": 19119, "pitch": 35, "duration": 80, "velocity": 105}, {"time": 19199, "pitch": 40, "duration": 161, "velocity": 115}, {"time": 19360, "pitch": 38, "duration": 322, "velocity": 110}, {"time": 19682, "pitch": 28, "duration": 477, "velocity": 113}, {"time": 20159, "pitch": 40, "duration": 483, "velocity": 107}, {"time": 20642, "pitch": 37, "duration": 20, "velocity": 81}, {"time": 20801, "pitch": 37, "duration": 79, "velocity": 114}, {"time": 21039, "pitch": 35, "duration": 80, "velocity": 105}, {"time": 21119, "pitch": 40, "duration": 161, "velocity": 115}, {"time": 21280, "pitch": 37, "duration": 322, "velocity": 110}, {"time": 21602, "pitch": 28, "duration": 477, "velocity": 113}, {"time": 22079, "pitch": 40, "duration": 483, "velocity": 107}, {"time": 22562, "pitch": 38, "duration": 20, "velocity": 81}, {"time": 22721, "pitch": 38, "duration": 80, "velocity": 114}, {"time": 22960, "pitch": 35, "duration": 79, "velocity": 105}, {"time": 23039, "pitch": 40, "duration": 161, "velocity": 115}, {"time": 23200, "pitch": 38, "duration": 322, "velocity": 110}, {"time": 23522, "pitch": 28, "duration": 477, "velocity": 113}, {"time": 23999, "pitch": 40, "duration": 483, "velocity": 107}, {"time": 24482, "pitch": 37, "duration": 20, "velocity": 81}, {"time": 24641, "pitch": 37, "duration": 80, "velocity": 114}, {"time": 24880, "pitch": 35, "duration": 79, "velocity": 105}, {"time": 24959, "pitch": 40, "duration": 161, "velocity": 115}, {"time": 25120, "pitch": 37, "duration": 322, "velocity": 110}, {"time": 25442, "pitch": 28, "duration": 477, "velocity": 113}, {"time": 25919, "pitch": 40, "duration": 483, "velocity": 107}, {"time": 26402, "pitch": 38, "duration": 20, "velocity": 81}, {"time": 26561, "pitch": 38, "duration": 80, "velocity": 114}, {"time": 26800, "pitch": 35, "duration": 80, "velocity": 105}, {"time": 26880, "pitch": 40, "duration": 160, "velocity": 115}, {"time": 27040, "pitch": 38, "duration": 322, "velocity": 110}, {"time": 27362, "pitch": 28, "duration": 478, "velocity": 113}, {"time": 27840, "pitch": 40, "duration": 482, "velocity": 107}, {"time": 28322, "pitch": 37, "duration": 20, "velocity": 81}, {"time": 28482, "pitch": 37, "duration": 79, "velocity": 114}, {"time": 28720, "pitch": 35, "duration": 80, "velocity": 105}, {"time": 28800, "pitch": 40, "duration": 161, "velocity": 115}, {"time": 28961, "pitch": 33, "duration": 231, "velocity": 110}, {"time": 29202, "pitch": 35, "duration": 81, "velocity": 100}, {"time": 29283, "pitch": 36, "duration": 347, "velocity": 110}, {"time": 29760, "pitch": 36, "duration": 332, "velocity": 106}, {"time": 30243, "pitch": 36, "duration": 308, "velocity": 110}, {"time": 30640, "pitch": 31, "duration": 60, "velocity": 100}, {"time": 30720, "pitch": 36, "duration": 241, "velocity": 108}, {"time": 30961, "pitch": 38, "duration": 242, "velocity": 110}, {"time": 31203, "pitch": 31, "duration": 298, "velocity": 112}, {"time": 31600, "pitch": 31, "duration": 40, "velocity": 92}, {"time": 31680, "pitch": 38, "duration": 302, "velocity": 108}, {"time": 32082, "pitch": 38, "duration": 41, "velocity": 90}, {"time": 32163, "pitch": 42, "duration": 238, "velocity": 111}, {"time": 32401, "pitch": 42, "duration": 239, "velocity": 106}, {"time": 32640, "pitch": 38, "duration": 239, "velocity": 110}, {"time": 32879, "pitch": 38, "duration": 238, "velocity": 105}, {"time": 33117, "pitch": 33, "duration": 242, "velocity": 113}, {"time": 33359, "pitch": 33, "duration": 241, "velocity": 108}, {"time": 33839, "pitch": 28, "duration": 238, "velocity": 108}, {"time": 34077, "pitch": 33, "duration": 242, "velocity": 113}, {"time": 34319, "pitch": 33, "duration": 241, "velocity": 108}, {"time": 34799, "pitch": 28, "duration": 238, "velocity": 108}, {"time": 35037, "pitch": 33, "duration": 242, "velocity": 111}, {"time": 35279, "pitch": 33, "duration": 241, "velocity": 107}, {"time": 35520, "pitch": 35, "duration": 239, "velocity": 110}, {"time": 35759, "pitch": 35, "duration": 238, "velocity": 106}, {"time": 35997, "pitch": 36, "duration": 242, "velocity": 110}, {"time": 36239, "pitch": 36, "duration": 241, "velocity": 107}, {"time": 36480, "pitch": 38, "duration": 239, "velocity": 110}, {"time": 36719, "pitch": 38, "duration": 239, "velocity": 108}, {"time": 36958, "pitch": 31, "duration": 241, "velocity": 112}, {"time": 37199, "pitch": 31, "duration": 241, "velocity": 105}, {"time": 37440, "pitch": 31, "duration": 239, "velocity": 112}, {"time": 37679, "pitch": 31, "duration": 159, "velocity": 108}, {"time": 37838, "pitch": 31, "duration": 80, "velocity": 102}, {"time": 37918, "pitch": 31, "duration": 241, "velocity": 112}, {"time": 38159, "pitch": 31, "duration": 241, "velocity": 105}, {"time": 38400, "pitch": 31, "duration": 239, "velocity": 112}, {"time": 38639, "pitch": 31, "duration": 149, "velocity": 108}, {"time": 38788, "pitch": 31, "duration": 90, "velocity": 102}, {"time": 38878, "pitch": 38, "duration": 241, "velocity": 112}, {"time": 39119, "pitch": 38, "duration": 242, "velocity": 105}, {"time": 39361, "pitch": 38, "duration": 238, "velocity": 112}, {"time": 39599, "pitch": 38, "duration": 159, "velocity": 108}, {"time": 39758, "pitch": 38, "duration": 80, "velocity": 102}, {"time": 39838, "pitch": 38, "duration": 241, "velocity": 112}, {"time": 40079, "pitch": 38, "duration": 242, "velocity": 105}, {"time": 40321, "pitch": 38, "duration": 238, "velocity": 112}, {"time": 40559, "pitch": 38, "duration": 149, "velocity": 108}, {"time": 40708, "pitch": 38, "duration": 90, "velocity": 102}, {"time": 40798, "pitch": 40, "duration": 241, "velocity": 112}, {"time": 41039, "pitch": 40, "duration": 242, "velocity": 105}, {"time": 41281, "pitch": 40, "duration": 238, "velocity": 112}, {"time": 41519, "pitch": 40, "duration": 159, "velocity": 108}, {"time": 41678, "pitch": 40, "duration": 80, "velocity": 102}, {"time": 41758, "pitch": 40, "duration": 241, "velocity": 112}, {"time": 41999, "pitch": 40, "duration": 242, "velocity": 105}, {"time": 42241, "pitch": 35, "duration": 238, "velocity": 112}, {"time": 42479, "pitch": 35, "duration": 159, "velocity": 108}, {"time": 42638, "pitch": 35, "duration": 80, "velocity": 102}, {"time": 42718, "pitch": 36, "duration": 221, "velocity": 107}, {"time": 42959, "pitch": 36, "duration": 222, "velocity": 102}, {"time": 43201, "pitch": 36, "duration": 219, "velocity": 107}, {"time": 43439, "pitch": 36, "duration": 160, "velocity": 105}, {"time": 43599, "pitch": 36, "duration": 79, "velocity": 101}, {"time": 43678, "pitch": 29, "duration": 221, "velocity": 105}, {"time": 43919, "pitch": 29, "duration": 222, "velocity": 101}, {"time": 44161, "pitch": 38, "duration": 219, "velocity": 105}, {"time": 44400, "pitch": 38, "duration": 218, "velocity": 99}, {"time": 44638, "pitch": 31, "duration": 242, "velocity": 112}, {"time": 44880, "pitch": 31, "duration": 241, "velocity": 105}, {"time": 45121, "pitch": 31, "duration": 239, "velocity": 112}, {"time": 45360, "pitch": 31, "duration": 159, "velocity": 108}, {"time": 45519, "pitch": 31, "duration": 79, "velocity": 102}, {"time": 45598, "pitch": 31, "duration": 242, "velocity": 112}, {"time": 45840, "pitch": 31, "duration": 241, "velocity": 105}, {"time": 46081, "pitch": 31, "duration": 239, "velocity": 112}, {"time": 46320, "pitch": 31, "duration": 149, "velocity": 108}, {"time": 46469, "pitch": 31, "duration": 89, "velocity": 102}, {"time": 46558, "pitch": 38, "duration": 242, "velocity": 112}, {"time": 46800, "pitch": 38, "duration": 241, "velocity": 105}, {"time": 47041, "pitch": 38, "duration": 239, "velocity": 112}, {"time": 47280, "pitch": 38, "duration": 159, "velocity": 108}, {"time": 47439, "pitch": 38, "duration": 79, "velocity": 102}, {"time": 47518, "pitch": 38, "duration": 242, "velocity": 112}, {"time": 47760, "pitch": 38, "duration": 241, "velocity": 105}, {"time": 48001, "pitch": 38, "duration": 239, "velocity": 112}, {"time": 48240, "pitch": 38, "duration": 149, "velocity": 108}, {"time": 48389, "pitch": 38, "duration": 89, "velocity": 102}, {"time": 48478, "pitch": 28, "duration": 242, "velocity": 112}, {"time": 48720, "pitch": 28, "duration": 241, "velocity": 105}, {"time": 48961, "pitch": 30, "duration": 239, "velocity": 112}, {"time": 49200, "pitch": 30, "duration": 159, "velocity": 108}, {"time": 49359, "pitch": 30, "duration": 80, "velocity": 102}, {"time": 49439, "pitch": 31, "duration": 241, "velocity": 112}, {"time": 49680, "pitch": 31, "duration": 241, "velocity": 105}, {"time": 49921, "pitch": 35, "duration": 239, "velocity": 112}, {"time": 50160, "pitch": 35, "duration": 159, "velocity": 108}, {"time": 50319, "pitch": 35, "duration": 80, "velocity": 102}, {"time": 50399, "pitch": 36, "duration": 221, "velocity": 107}, {"time": 50640, "pitch": 36, "duration": 221, "velocity": 102}, {"time": 50881, "pitch": 36, "duration": 219, "velocity": 107}, {"time": 51120, "pitch": 36, "duration": 159, "velocity": 105}, {"time": 51279, "pitch": 36, "duration": 80, "velocity": 101}, {"time": 51359, "pitch": 38, "duration": 221, "velocity": 105}, {"time": 51600, "pitch": 38, "duration": 221, "velocity": 101}, {"time": 51842, "pitch": 39, "duration": 49, "velocity": 75}, {"time": 52001, "pitch": 39, "duration": 318, "velocity": 117}, {"time": 52319, "pitch": 28, "duration": 483, "velocity": 113}, {"time": 52802, "pitch": 40, "duration": 477, "velocity": 107}, {"time": 53279, "pitch": 38, "duration": 20, "velocity": 81}, {"time": 53440, "pitch": 38, "duration": 80, "velocity": 114}, {"time": 53681, "pitch": 33, "duration": 81, "velocity": 105}, {"time": 53762, "pitch": 35, "duration": 159, "velocity": 115}, {"time": 53921, "pitch": 38, "duration": 318, "velocity": 110}, {"time": 54239, "pitch": 28, "duration": 241, "velocity": 113}, {"time": 54480, "pitch": 28, "duration": 242, "velocity": 109}, {"time": 54722, "pitch": 40, "duration": 477, "velocity": 107}, {"time": 55199, "pitch": 38, "duration": 20, "velocity": 81}, {"time": 55360, "pitch": 38, "duration": 80, "velocity": 114}, {"time": 55601, "pitch": 33, "duration": 210, "velocity": 108}, {"time": 55841, "pitch": 38, "duration": 318, "velocity": 117}, {"time": 56159, "pitch": 28, "duration": 483, "velocity": 113}, {"time": 56642, "pitch": 40, "duration": 477, "velocity": 107}, {"time": 57119, "pitch": 38, "duration": 20, "velocity": 81}, {"time": 57280, "pitch": 38, "duration": 81, "velocity": 114}, {"time": 57522, "pitch": 35, "duration": 80, "velocity": 105}, {"time": 57602, "pitch": 40, "duration": 159, "velocity": 115}, {"time": 57761, "pitch": 38, "duration": 318, "velocity": 110}, {"time": 58079, "pitch": 28, "duration": 483, "velocity": 113}, {"time": 58562, "pitch": 40, "duration": 477, "velocity": 107}, {"time": 59039, "pitch": 37, "duration": 20, "velocity": 81}, {"time": 59200, "pitch": 37, "duration": 81, "velocity": 114}, {"time": 59442, "pitch": 35, "duration": 80, "velocity": 105}, {"time": 59522, "pitch": 40, "duration": 159, "velocity": 115}, {"time": 59681, "pitch": 37, "duration": 318, "velocity": 110}, {"time": 59999, "pitch": 28, "duration": 483, "velocity": 113}, {"time": 60482, "pitch": 40, "duration": 477, "velocity": 107}, {"time": 60959, "pitch": 38, "duration": 21, "velocity": 81}, {"time": 61120, "pitch": 38, "duration": 81, "velocity": 114}, {"time": 61362, "pitch": 35, "duration": 80, "velocity": 105}, {"time": 61442, "pitch": 40, "duration": 159, "velocity": 115}, {"time": 61601, "pitch": 38, "duration": 319, "velocity": 110}, {"time": 61920, "pitch": 28, "duration": 482, "velocity": 113}, {"time": 62402, "pitch": 40, "duration": 478, "velocity": 107}, {"time": 62880, "pitch": 37, "duration": 20, "velocity": 81}, {"time": 63041, "pitch": 37, "duration": 80, "velocity": 114}, {"time": 63282, "pitch": 35, "duration": 81, "velocity": 105}, {"time": 63363, "pitch": 40, "duration": 159, "velocity": 115}, {"time": 63522, "pitch": 37, "duration": 318, "velocity": 110}, {"time": 63840, "pitch": 28, "duration": 483, "velocity": 113}, {"time": 64323, "pitch": 40, "duration": 477, "velocity": 107}, {"time": 64800, "pitch": 38, "duration": 20, "velocity": 81}, {"time": 64961, "pitch": 38, "duration": 80, "velocity": 114}, {"time": 65202, "pitch": 35, "duration": 81, "velocity": 105}, {"time": 65283, "pitch": 40, "duration": 159, "velocity": 115}, {"time": 65442, "pitch": 38, "duration": 318, "velocity": 110}, {"time": 65760, "pitch": 28, "duration": 483, "velocity": 113}, {"time": 66243, "pitch": 40, "duration": 477, "velocity": 107}, {"time": 66720, "pitch": 37, "duration": 20, "velocity": 81}, {"time": 66879, "pitch": 37, "duration": 80, "velocity": 114}, {"time": 67118, "pitch": 35, "duration": 79, "velocity": 105}, {"time": 67197, "pitch": 40, "duration": 161, "velocity": 115}, {"time": 67358, "pitch": 37, "duration": 322, "velocity": 110}, {"time": 67680, "pitch": 28, "duration": 477, "velocity": 113}, {"time": 68157, "pitch": 40, "duration": 483, "velocity": 107}, {"time": 68640, "pitch": 38, "duration": 20, "velocity": 81}, {"time": 68799, "pitch": 38, "duration": 80, "velocity": 114}, {"time": 69038, "pitch": 35, "duration": 79, "velocity": 105}, {"time": 69117, "pitch": 40, "duration": 161, "velocity": 115}, {"time": 69278, "pitch": 38, "duration": 322, "velocity": 110}, {"time": 69600, "pitch": 28, "duration": 477, "velocity": 113}, {"time": 70077, "pitch": 40, "duration": 483, "velocity": 107}, {"time": 70560, "pitch": 37, "duration": 20, "velocity": 81}, {"time": 70719, "pitch": 37, "duration": 80, "velocity": 114}, {"time": 70958, "pitch": 35, "duration": 79, "velocity": 105}, {"time": 71037, "pitch": 40, "duration": 161, "velocity": 115}, {"time": 71198, "pitch": 33, "duration": 232, "velocity": 110}, {"time": 71440, "pitch": 35, "duration": 80, "velocity": 100}, {"time": 71520, "pitch": 36, "duration": 348, "velocity": 110}, {"time": 71998, "pitch": 36, "duration": 332, "velocity": 106}, {"time": 72480, "pitch": 36, "duration": 309, "velocity": 110}, {"time": 72878, "pitch": 31, "duration": 60, "velocity": 100}, {"time": 72958, "pitch": 36, "duration": 241, "velocity": 108}, {"time": 73199, "pitch": 38, "duration": 242, "velocity": 110}, {"time": 73441, "pitch": 31, "duration": 298, "velocity": 112}, {"time": 73838, "pitch": 31, "duration": 40, "velocity": 92}, {"time": 73918, "pitch": 38, "duration": 302, "velocity": 108}, {"time": 74320, "pitch": 31, "duration": 40, "velocity": 90}, {"time": 74401, "pitch": 42, "duration": 238, "velocity": 111}, {"time": 74639, "pitch": 42, "duration": 239, "velocity": 106}, {"time": 74878, "pitch": 38, "duration": 241, "velocity": 110}, {"time": 75119, "pitch": 38, "duration": 242, "velocity": 105}, {"time": 75361, "pitch": 33, "duration": 238, "velocity": 113}, {"time": 75599, "pitch": 33, "duration": 239, "velocity": 108}, {"time": 76079, "pitch": 28, "duration": 242, "velocity": 108}, {"time": 76321, "pitch": 33, "duration": 238, "velocity": 113}, {"time": 76559, "pitch": 33, "duration": 239, "velocity": 108}, {"time": 77039, "pitch": 28, "duration": 242, "velocity": 108}, {"time": 77281, "pitch": 33, "duration": 238, "velocity": 111}, {"time": 77519, "pitch": 33, "duration": 239, "velocity": 107}, {"time": 77758, "pitch": 35, "duration": 241, "velocity": 110}, {"time": 77999, "pitch": 35, "duration": 242, "velocity": 106}, {"time": 78241, "pitch": 36, "duration": 239, "velocity": 110}, {"time": 78480, "pitch": 36, "duration": 238, "velocity": 107}, {"time": 78718, "pitch": 38, "duration": 242, "velocity": 110}, {"time": 78960, "pitch": 38, "duration": 241, "velocity": 108}, {"time": 79201, "pitch": 31, "duration": 239, "velocity": 112}, {"time": 79440, "pitch": 31, "duration": 238, "velocity": 105}, {"time": 79678, "pitch": 31, "duration": 242, "velocity": 112}, {"time": 79920, "pitch": 31, "duration": 161, "velocity": 108}, {"time": 80081, "pitch": 31, "duration": 80, "velocity": 102}, {"time": 80161, "pitch": 31, "duration": 239, "velocity": 112}, {"time": 80400, "pitch": 31, "duration": 238, "velocity": 105}, {"time": 80638, "pitch": 31, "duration": 242, "velocity": 112}, {"time": 80880, "pitch": 31, "duration": 151, "velocity": 108}, {"time": 81031, "pitch": 31, "duration": 90, "velocity": 102}, {"time": 81121, "pitch": 38, "duration": 239, "velocity": 112}, {"time": 81360, "pitch": 38, "duration": 238, "velocity": 105}, {"time": 81598, "pitch": 38, "duration": 242, "velocity": 112}, {"time": 81840, "pitch": 38, "duration": 161, "velocity": 108}, {"time": 82001, "pitch": 38, "duration": 80, "velocity": 102}, {"time": 82081, "pitch": 38, "duration": 239, "velocity": 112}, {"time": 82320, "pitch": 38, "duration": 238, "velocity": 105}, {"time": 82558, "pitch": 38, "duration": 242, "velocity": 112}, {"time": 82800, "pitch": 38, "duration": 151, "velocity": 108}, {"time": 82951, "pitch": 38, "duration": 90, "velocity": 102}, {"time": 83041, "pitch": 40, "duration": 239, "velocity": 112}, {"time": 83280, "pitch": 40, "duration": 239, "velocity": 105}, {"time": 83519, "pitch": 40, "duration": 241, "velocity": 112}, {"time": 83760, "pitch": 40, "duration": 161, "velocity": 108}, {"time": 83921, "pitch": 40, "duration": 80, "velocity": 102}, {"time": 84001, "pitch": 40, "duration": 239, "velocity": 112}, {"time": 84240, "pitch": 40, "duration": 239, "velocity": 105}, {"time": 84479, "pitch": 35, "duration": 241, "velocity": 112}, {"time": 84720, "pitch": 35, "duration": 161, "velocity": 108}, {"time": 84881, "pitch": 35, "duration": 80, "velocity": 102}, {"time": 84961, "pitch": 36, "duration": 219, "velocity": 107}, {"time": 85200, "pitch": 36, "duration": 219, "velocity": 102}, {"time": 85439, "pitch": 36, "duration": 221, "velocity": 107}, {"time": 85680, "pitch": 36, "duration": 161, "velocity": 105}, {"time": 85841, "pitch": 36, "duration": 81, "velocity": 101}, {"time": 85922, "pitch": 29, "duration": 218, "velocity": 105}, {"time": 86160, "pitch": 29, "duration": 219, "velocity": 101}, {"time": 86399, "pitch": 38, "duration": 221, "velocity": 105}, {"time": 86640, "pitch": 38, "duration": 222, "velocity": 99}, {"time": 86882, "pitch": 31, "duration": 238, "velocity": 112}, {"time": 87120, "pitch": 31, "duration": 239, "velocity": 105}, {"time": 87359, "pitch": 31, "duration": 241, "velocity": 112}, {"time": 87600, "pitch": 31, "duration": 161, "velocity": 108}, {"time": 87761, "pitch": 31, "duration": 81, "velocity": 102}, {"time": 87842, "pitch": 31, "duration": 238, "velocity": 112}, {"time": 88080, "pitch": 31, "duration": 239, "velocity": 105}, {"time": 88319, "pitch": 31, "duration": 241, "velocity": 112}, {"time": 88560, "pitch": 31, "duration": 151, "velocity": 108}, {"time": 88711, "pitch": 31, "duration": 91, "velocity": 102}, {"time": 88802, "pitch": 38, "duration": 238, "velocity": 112}, {"time": 89040, "pitch": 38, "duration": 239, "velocity": 105}, {"time": 89279, "pitch": 38, "duration": 241, "velocity": 112}, {"time": 89520, "pitch": 38, "duration": 161, "velocity": 108}, {"time": 89681, "pitch": 38, "duration": 81, "velocity": 102}, {"time": 89762, "pitch": 38, "duration": 238, "velocity": 112}, {"time": 90000, "pitch": 38, "duration": 239, "velocity": 105}, {"time": 90239, "pitch": 38, "duration": 242, "velocity": 112}, {"time": 90481, "pitch": 38, "duration": 150, "velocity": 108}, {"time": 90631, "pitch": 38, "duration": 91, "velocity": 102}, {"time": 90722, "pitch": 28, "duration": 239, "velocity": 112}, {"time": 90961, "pitch": 28, "duration": 238, "velocity": 105}, {"time": 91199, "pitch": 30, "duration": 242, "velocity": 112}, {"time": 91441, "pitch": 30, "duration": 161, "velocity": 108}, {"time": 91602, "pitch": 30, "duration": 80, "velocity": 102}, {"time": 91682, "pitch": 31, "duration": 239, "velocity": 112}, {"time": 91921, "pitch": 31, "duration": 238, "velocity": 105}, {"time": 92159, "pitch": 35, "duration": 242, "velocity": 112}, {"time": 92401, "pitch": 35, "duration": 161, "velocity": 108}, {"time": 92562, "pitch": 35, "duration": 80, "velocity": 102}, {"time": 92642, "pitch": 36, "duration": 219, "velocity": 107}, {"time": 92881, "pitch": 36, "duration": 218, "velocity": 102}, {"time": 93119, "pitch": 36, "duration": 222, "velocity": 107}, {"time": 93361, "pitch": 36, "duration": 161, "velocity": 105}, {"time": 93522, "pitch": 36, "duration": 80, "velocity": 101}, {"time": 93602, "pitch": 38, "duration": 219, "velocity": 105}, {"time": 93841, "pitch": 38, "duration": 219, "velocity": 101}, {"time": 94079, "pitch": 35, "duration": 222, "velocity": 105}, {"time": 94321, "pitch": 35, "duration": 221, "velocity": 99}, {"time": 94562, "pitch": 33, "duration": 229, "velocity": 105}, {"time": 94801, "pitch": 33, "duration": 229, "velocity": 101}, {"time": 95039, "pitch": 33, "duration": 232, "velocity": 105}, {"time": 95281, "pitch": 33, "duration": 231, "velocity": 101}, {"time": 95522, "pitch": 33, "duration": 229, "velocity": 105}, {"time": 95761, "pitch": 33, "duration": 229, "velocity": 101}, {"time": 96000, "pitch": 33, "duration": 231, "velocity": 105}, {"time": 96241, "pitch": 33, "duration": 231, "velocity": 101}, {"time": 96482, "pitch": 36, "duration": 229, "velocity": 105}, {"time": 96721, "pitch": 36, "duration": 229, "velocity": 101}, {"time": 96960, "pitch": 36, "duration": 231, "velocity": 105}, {"time": 97201, "pitch": 36, "duration": 231, "velocity": 101}, {"time": 97442, "pitch": 36, "duration": 229, "velocity": 105}, {"time": 97681, "pitch": 36, "duration": 229, "velocity": 101}, {"time": 97920, "pitch": 36, "duration": 231, "velocity": 105}, {"time": 98161, "pitch": 36, "duration": 232, "velocity": 101}, {"time": 98403, "pitch": 31, "duration": 447, "velocity": 104}, {"time": 98880, "pitch": 31, "duration": 60, "velocity": 81}, {"time": 99121, "pitch": 31, "duration": 649, "velocity": 103}, {"time": 99840, "pitch": 38, "duration": 121, "velocity": 98}, {"time": 99961, "pitch": 43, "duration": 342, "velocity": 103}, {"time": 100323, "pitch": 31, "duration": 447, "velocity": 104}, {"time": 100800, "pitch": 31, "duration": 60, "velocity": 81}, {"time": 101041, "pitch": 31, "duration": 480, "velocity": 104}, {"time": 101521, "pitch": 31, "duration": 120, "velocity": 105}, {"time": 101760, "pitch": 31, "duration": 20, "velocity": 99}, {"time": 101879, "pitch": 29, "duration": 338, "velocity": 102}, {"time": 102237, "pitch": 39, "duration": 232, "velocity": 105}, {"time": 102479, "pitch": 39, "duration": 231, "velocity": 101}, {"time": 102720, "pitch": 39, "duration": 229, "velocity": 105}, {"time": 102959, "pitch": 39, "duration": 159, "velocity": 101}, {"time": 103118, "pitch": 39, "duration": 69, "velocity": 91}, {"time": 103197, "pitch": 31, "duration": 161, "velocity": 105}, {"time": 103358, "pitch": 31, "duration": 81, "velocity": 85}, {"time": 103439, "pitch": 34, "duration": 231, "velocity": 101}, {"time": 103680, "pitch": 39, "duration": 229, "velocity": 105}, {"time": 103919, "pitch": 43, "duration": 159, "velocity": 101}, {"time": 104078, "pitch": 39, "duration": 69, "velocity": 97}, {"time": 104157, "pitch": 38, "duration": 232, "velocity": 105}, {"time": 104399, "pitch": 38, "duration": 231, "velocity": 101}, {"time": 104640, "pitch": 38, "duration": 229, "velocity": 105}, {"time": 104879, "pitch": 38, "duration": 159, "velocity": 101}, {"time": 105038, "pitch": 38, "duration": 70, "velocity": 95}, {"time": 105117, "pitch": 31, "duration": 161, "velocity": 106}, {"time": 105278, "pitch": 31, "duration": 71, "velocity": 101}, {"time": 105359, "pitch": 31, "duration": 231, "velocity": 103}, {"time": 105600, "pitch": 38, "duration": 229, "velocity": 105}, {"time": 105839, "pitch": 31, "duration": 229, "velocity": 101}, {"time": 106078, "pitch": 36, "duration": 231, "velocity": 106}, {"time": 106319, "pitch": 36, "duration": 161, "velocity": 102}, {"time": 106480, "pitch": 36, "duration": 70, "velocity": 94}, {"time": 106560, "pitch": 38, "duration": 229, "velocity": 107}, {"time": 106799, "pitch": 38, "duration": 159, "velocity": 103}, {"time": 106958, "pitch": 38, "duration": 70, "velocity": 91}, {"time": 107038, "pitch": 39, "duration": 231, "velocity": 104}, {"time": 107279, "pitch": 39, "duration": 231, "velocity": 101}, {"time": 107521, "pitch": 39, "duration": 228, "velocity": 105}, {"time": 107759, "pitch": 39, "duration": 239, "velocity": 100}, {"time": 107998, "pitch": 36, "duration": 231, "velocity": 106}, {"time": 108239, "pitch": 36, "duration": 161, "velocity": 102}, {"time": 108400, "pitch": 36, "duration": 71, "velocity": 94}, {"time": 108481, "pitch": 38, "duration": 228, "velocity": 107}, {"time": 108719, "pitch": 38, "duration": 159, "velocity": 103}, {"time": 108878, "pitch": 38, "duration": 70, "velocity": 91}, {"time": 108958, "pitch": 39, "duration": 231, "velocity": 104}, {"time": 109199, "pitch": 39, "duration": 232, "velocity": 101}, {"time": 109441, "pitch": 39, "duration": 59, "velocity": 105}, {"time": 109679, "pitch": 38, "duration": 460, "velocity": 104}, {"time": 110159, "pitch": 38, "duration": 222, "velocity": 99}, {"time": 110401, "pitch": 38, "duration": 218, "velocity": 102}, {"time": 110639, "pitch": 38, "duration": 219, "velocity": 99}, {"time": 110878, "pitch": 38, "duration": 221, "velocity": 102}, {"time": 111119, "pitch": 38, "duration": 222, "velocity": 99}, {"time": 111361, "pitch": 38, "duration": 219, "velocity": 102}, {"time": 111599, "pitch": 38, "duration": 219, "velocity": 99}, {"time": 111838, "pitch": 38, "duration": 231, "velocity": 104}, {"time": 112079, "pitch": 38, "duration": 111, "velocity": 102}, {"time": 112200, "pitch": 38, "duration": 101, "velocity": 98}, {"time": 112321, "pitch": 40, "duration": 229, "velocity": 104}, {"time": 112560, "pitch": 40, "duration": 109, "velocity": 102}, {"time": 112679, "pitch": 40, "duration": 99, "velocity": 98}, {"time": 112798, "pitch": 42, "duration": 231, "velocity": 104}, {"time": 113040, "pitch": 42, "duration": 110, "velocity": 102}, {"time": 113160, "pitch": 42, "duration": 101, "velocity": 98}, {"time": 113281, "pitch": 43, "duration": 229, "velocity": 104}, {"time": 113520, "pitch": 45, "duration": 218, "velocity": 102}, {"time": 113758, "pitch": 31, "duration": 242, "velocity": 112}, {"time": 114000, "pitch": 31, "duration": 241, "velocity": 105}, {"time": 114241, "pitch": 31, "duration": 239, "velocity": 112}, {"time": 114480, "pitch": 31, "duration": 159, "velocity": 108}, {"time": 114639, "pitch": 31, "duration": 79, "velocity": 102}, {"time": 114718, "pitch": 31, "duration": 242, "velocity": 112}, {"time": 114960, "pitch": 31, "duration": 241, "velocity": 105}, {"time": 115201, "pitch": 31, "duration": 239, "velocity": 112}, {"time": 115440, "pitch": 31, "duration": 149, "velocity": 108}, {"time": 115589, "pitch": 31, "duration": 89, "velocity": 102}, {"time": 115678, "pitch": 38, "duration": 242, "velocity": 112}, {"time": 115920, "pitch": 38, "duration": 241, "velocity": 105}, {"time": 116161, "pitch": 38, "duration": 239, "velocity": 112}, {"time": 116400, "pitch": 38, "duration": 159, "velocity": 108}, {"time": 116559, "pitch": 38, "duration": 79, "velocity": 102}, {"time": 116638, "pitch": 38, "duration": 242, "velocity": 112}, {"time": 116880, "pitch": 38, "duration": 241, "velocity": 105}, {"time": 117121, "pitch": 38, "duration": 239, "velocity": 112}, {"time": 117360, "pitch": 38, "duration": 149, "velocity": 108}, {"time": 117509, "pitch": 38, "duration": 90, "velocity": 102}, {"time": 117599, "pitch": 40, "duration": 241, "velocity": 112}, {"time": 117840, "pitch": 40, "duration": 241, "velocity": 105}, {"time": 118081, "pitch": 40, "duration": 239, "velocity": 112}, {"time": 118320, "pitch": 40, "duration": 159, "velocity": 108}, {"time": 118479, "pitch": 40, "duration": 80, "velocity": 102}, {"time": 118559, "pitch": 40, "duration": 241, "velocity": 112}, {"time": 118800, "pitch": 40, "duration": 241, "velocity": 105}, {"time": 119041, "pitch": 35, "duration": 239, "velocity": 112}, {"time": 119280, "pitch": 35, "duration": 159, "velocity": 108}, {"time": 119439, "pitch": 35, "duration": 80, "velocity": 102}, {"time": 119519, "pitch": 36, "duration": 221, "velocity": 107}, {"time": 119760, "pitch": 36, "duration": 221, "velocity": 102}, {"time": 120002, "pitch": 36, "duration": 218, "velocity": 107}, {"time": 120240, "pitch": 36, "duration": 159, "velocity": 105}, {"time": 120399, "pitch": 36, "duration": 80, "velocity": 101}, {"time": 120479, "pitch": 29, "duration": 221, "velocity": 105}, {"time": 120720, "pitch": 29, "duration": 222, "velocity": 101}, {"time": 120962, "pitch": 38, "duration": 218, "velocity": 105}, {"time": 121200, "pitch": 38, "duration": 219, "velocity": 99}, {"time": 121439, "pitch": 31, "duration": 241, "velocity": 112}, {"time": 121680, "pitch": 31, "duration": 242, "velocity": 105}, {"time": 121922, "pitch": 31, "duration": 238, "velocity": 112}, {"time": 122160, "pitch": 31, "duration": 159, "velocity": 108}, {"time": 122319, "pitch": 31, "duration": 80, "velocity": 102}, {"time": 122399, "pitch": 31, "duration": 241, "velocity": 112}, {"time": 122640, "pitch": 31, "duration": 242, "velocity": 105}, {"time": 122882, "pitch": 31, "duration": 238, "velocity": 112}, {"time": 123120, "pitch": 31, "duration": 150, "velocity": 108}, {"time": 123270, "pitch": 31, "duration": 89, "velocity": 102}, {"time": 123359, "pitch": 38, "duration": 241, "velocity": 112}, {"time": 123600, "pitch": 38, "duration": 242, "velocity": 105}, {"time": 123842, "pitch": 38, "duration": 238, "velocity": 112}, {"time": 124080, "pitch": 38, "duration": 160, "velocity": 108}, {"time": 124240, "pitch": 38, "duration": 79, "velocity": 102}, {"time": 124319, "pitch": 38, "duration": 242, "velocity": 112}, {"time": 124561, "pitch": 38, "duration": 241, "velocity": 105}, {"time": 124802, "pitch": 38, "duration": 239, "velocity": 112}, {"time": 125041, "pitch": 38, "duration": 149, "velocity": 108}, {"time": 125190, "pitch": 38, "duration": 89, "velocity": 102}, {"time": 125279, "pitch": 28, "duration": 242, "velocity": 112}, {"time": 125521, "pitch": 28, "duration": 241, "velocity": 105}, {"time": 125762, "pitch": 30, "duration": 239, "velocity": 112}, {"time": 126001, "pitch": 30, "duration": 159, "velocity": 108}, {"time": 126160, "pitch": 30, "duration": 79, "velocity": 102}, {"time": 126239, "pitch": 31, "duration": 242, "velocity": 112}, {"time": 126481, "pitch": 31, "duration": 241, "velocity": 105}, {"time": 126722, "pitch": 35, "duration": 239, "velocity": 112}, {"time": 126961, "pitch": 35, "duration": 159, "velocity": 108}, {"time": 127120, "pitch": 35, "duration": 79, "velocity": 102}, {"time": 127199, "pitch": 36, "duration": 222, "velocity": 107}, {"time": 127441, "pitch": 36, "duration": 221, "velocity": 102}, {"time": 127682, "pitch": 36, "duration": 219, "velocity": 107}, {"time": 127921, "pitch": 36, "duration": 159, "velocity": 105}, {"time": 128080, "pitch": 36, "duration": 79, "velocity": 101}, {"time": 128159, "pitch": 38, "duration": 222, "velocity": 105}, {"time": 128401, "pitch": 38, "duration": 221, "velocity": 99}, {"time": 128642, "pitch": 38, "duration": 229, "velocity": 104}, {"time": 128881, "pitch": 38, "duration": 229, "velocity": 101}, {"time": 129119, "pitch": 31, "duration": 242, "velocity": 112}, {"time": 129361, "pitch": 31, "duration": 241, "velocity": 105}, {"time": 129602, "pitch": 31, "duration": 239, "velocity": 112}, {"time": 129841, "pitch": 31, "duration": 159, "velocity": 108}, {"time": 130000, "pitch": 31, "duration": 80, "velocity": 102}, {"time": 130080, "pitch": 31, "duration": 241, "velocity": 112}, {"time": 130321, "pitch": 31, "duration": 241, "velocity": 105}, {"time": 130562, "pitch": 31, "duration": 239, "velocity": 112}, {"time": 130801, "pitch": 31, "duration": 149, "velocity": 108}, {"time": 130950, "pitch": 31, "duration": 90, "velocity": 102}, {"time": 131040, "pitch": 38, "duration": 241, "velocity": 112}, {"time": 131281, "pitch": 38, "duration": 241, "velocity": 105}, {"time": 131522, "pitch": 38, "duration": 239, "velocity": 112}, {"time": 131761, "pitch": 38, "duration": 159, "velocity": 108}, {"time": 131920, "pitch": 38, "duration": 80, "velocity": 102}, {"time": 132000, "pitch": 38, "duration": 241, "velocity": 112}, {"time": 132241, "pitch": 38, "duration": 242, "velocity": 105}, {"time": 132483, "pitch": 38, "duration": 238, "velocity": 112}, {"time": 132721, "pitch": 38, "duration": 149, "velocity": 108}, {"time": 132870, "pitch": 38, "duration": 90, "velocity": 102}, {"time": 132960, "pitch": 40, "duration": 241, "velocity": 112}, {"time": 133201, "pitch": 40, "duration": 242, "velocity": 105}, {"time": 133443, "pitch": 40, "duration": 238, "velocity": 112}, {"time": 133681, "pitch": 40, "duration": 159, "velocity": 108}, {"time": 133840, "pitch": 40, "duration": 80, "velocity": 102}, {"time": 133920, "pitch": 40, "duration": 241, "velocity": 112}, {"time": 134161, "pitch": 40, "duration": 242, "velocity": 105}, {"time": 134403, "pitch": 35, "duration": 238, "velocity": 112}, {"time": 134641, "pitch": 35, "duration": 159, "velocity": 108}, {"time": 134800, "pitch": 35, "duration": 80, "velocity": 102}, {"time": 134880, "pitch": 36, "duration": 221, "velocity": 107}, {"time": 135121, "pitch": 36, "duration": 222, "velocity": 102}, {"time": 135363, "pitch": 36, "duration": 219, "velocity": 107}, {"time": 135601, "pitch": 36, "duration": 159, "velocity": 105}, {"time": 135760, "pitch": 36, "duration": 80, "velocity": 101}, {"time": 135840, "pitch": 29, "duration": 219, "velocity": 105}, {"time": 136079, "pitch": 29, "duration": 218, "velocity": 101}, {"time": 136317, "pitch": 38, "duration": 222, "velocity": 105}, {"time": 136559, "pitch": 38, "duration": 221, "velocity": 99}, {"time": 136800, "pitch": 31, "duration": 239, "velocity": 112}, {"time": 137039, "pitch": 31, "duration": 238, "velocity": 105}, {"time": 137277, "pitch": 31, "duration": 242, "velocity": 112}, {"time": 137519, "pitch": 31, "duration": 161, "velocity": 108}, {"time": 137680, "pitch": 31, "duration": 80, "velocity": 102}, {"time": 137760, "pitch": 31, "duration": 239, "velocity": 112}, {"time": 137999, "pitch": 31, "duration": 238, "velocity": 105}, {"time": 138237, "pitch": 31, "duration": 242, "velocity": 112}, {"time": 138479, "pitch": 31, "duration": 151, "velocity": 108}, {"time": 138630, "pitch": 31, "duration": 90, "velocity": 102}, {"time": 138720, "pitch": 38, "duration": 239, "velocity": 112}, {"time": 138959, "pitch": 38, "duration": 238, "velocity": 105}, {"time": 139197, "pitch": 38, "duration": 242, "velocity": 112}, {"time": 139439, "pitch": 38, "duration": 161, "velocity": 108}, {"time": 139600, "pitch": 38, "duration": 80, "velocity": 102}, {"time": 139680, "pitch": 38, "duration": 239, "velocity": 112}, {"time": 139919, "pitch": 38, "duration": 239, "velocity": 105}, {"time": 140158, "pitch": 38, "duration": 241, "velocity": 112}, {"time": 140399, "pitch": 38, "duration": 151, "velocity": 108}, {"time": 140550, "pitch": 38, "duration": 90, "velocity": 102}, {"time": 140640, "pitch": 28, "duration": 239, "velocity": 112}, {"time": 140879, "pitch": 28, "duration": 239, "velocity": 105}, {"time": 141118, "pitch": 30, "duration": 241, "velocity": 112}, {"time": 141359, "pitch": 30, "duration": 161, "velocity": 108}, {"time": 141520, "pitch": 30, "duration": 80, "velocity": 102}, {"time": 141600, "pitch": 31, "duration": 239, "velocity": 112}, {"time": 141839, "pitch": 31, "duration": 239, "velocity": 105}, {"time": 142078, "pitch": 35, "duration": 241, "velocity": 112}, {"time": 142319, "pitch": 35, "duration": 161, "velocity": 108}, {"time": 142480, "pitch": 35, "duration": 81, "velocity": 102}, {"time": 142561, "pitch": 36, "duration": 218, "velocity": 107}, {"time": 142799, "pitch": 36, "duration": 219, "velocity": 102}, {"time": 143038, "pitch": 36, "duration": 221, "velocity": 107}, {"time": 143279, "pitch": 36, "duration": 161, "velocity": 105}, {"time": 143440, "pitch": 36, "duration": 81, "velocity": 101}, {"time": 143521, "pitch": 38, "duration": 218, "velocity": 105}, {"time": 143759, "pitch": 38, "duration": 219, "velocity": 101}, {"time": 143998, "pitch": 39, "duration": 50, "velocity": 77}, {"time": 144159, "pitch": 39, "duration": 322, "velocity": 117}, {"time": 144481, "pitch": 28, "duration": 477, "velocity": 113}, {"time": 144958, "pitch": 40, "duration": 483, "velocity": 107}, {"time": 145441, "pitch": 38, "duration": 20, "velocity": 81}, {"time": 145600, "pitch": 38, "duration": 79, "velocity": 114}, {"time": 145838, "pitch": 33, "duration": 80, "velocity": 105}, {"time": 145918, "pitch": 35, "duration": 161, "velocity": 115}, {"time": 146079, "pitch": 38, "duration": 322, "velocity": 110}, {"time": 146401, "pitch": 28, "duration": 238, "velocity": 113}, {"time": 146639, "pitch": 28, "duration": 239, "velocity": 109}, {"time": 146878, "pitch": 40, "duration": 483, "velocity": 107}, {"time": 147361, "pitch": 38, "duration": 20, "velocity": 81}, {"time": 147520, "pitch": 38, "duration": 80, "velocity": 114}, {"time": 147759, "pitch": 33, "duration": 210, "velocity": 108}, {"time": 147999, "pitch": 38, "duration": 322, "velocity": 117}, {"time": 148321, "pitch": 28, "duration": 477, "velocity": 113}, {"time": 148798, "pitch": 40, "duration": 483, "velocity": 107}, {"time": 149281, "pitch": 38, "duration": 20, "velocity": 81}, {"time": 149440, "pitch": 38, "duration": 80, "velocity": 114}, {"time": 149679, "pitch": 33, "duration": 79, "velocity": 105}, {"time": 149758, "pitch": 35, "duration": 161, "velocity": 115}, {"time": 149919, "pitch": 38, "duration": 322, "velocity": 110}, {"time": 150241, "pitch": 28, "duration": 239, "velocity": 113}, {"time": 150480, "pitch": 28, "duration": 238, "velocity": 109}, {"time": 150718, "pitch": 40, "duration": 483, "velocity": 107}, {"time": 151201, "pitch": 38, "duration": 20, "velocity": 81}, {"time": 151360, "pitch": 38, "duration": 80, "velocity": 114}, {"time": 151599, "pitch": 33, "duration": 210, "velocity": 108}, {"time": 151839, "pitch": 38, "duration": 81, "velocity": 117}, {"time": 29192, "pitch": 71, "duration": 1991, "velocity": 115}, {"time": 29222, "pitch": 67, "duration": 1961, "velocity": 110}, {"time": 29252, "pitch": 64, "duration": 1931, "velocity": 105}, {"time": 29283, "pitch": 36, "duration": 1900, "velocity": 87}, {"time": 29283, "pitch": 60, "duration": 1900, "velocity": 100}, {"time": 31162, "pitch": 62, "duration": 1896, "velocity": 107}, {"time": 31183, "pitch": 66, "duration": 1894, "velocity": 99}, {"time": 31203, "pitch": 43, "duration": 1894, "velocity": 87}, {"time": 31203, "pitch": 67, "duration": 1894, "velocity": 97}, {"time": 31223, "pitch": 71, "duration": 1218, "velocity": 95}, {"time": 32272, "pitch": 86, "duration": 517, "velocity": 111}, {"time": 32451, "pitch": 83, "duration": 517, "velocity": 107}, {"time": 32630, "pitch": 78, "duration": 418, "velocity": 103}, {"time": 32799, "pitch": 74, "duration": 239, "velocity": 100}, {"time": 32968, "pitch": 71, "duration": 139, "velocity": 95}, {"time": 33117, "pitch": 45, "duration": 221, "velocity": 81}, {"time": 33117, "pitch": 69, "duration": 221, "velocity": 101}, {"time": 33117, "pitch": 74, "duration": 221, "velocity": 98}, {"time": 33127, "pitch": 64, "duration": 222, "velocity": 96}, {"time": 33359, "pitch": 45, "duration": 221, "velocity": 79}, {"time": 33359, "pitch": 69, "duration": 221, "velocity": 99}, {"time": 33359, "pitch": 74, "duration": 221, "velocity": 97}, {"time": 33369, "pitch": 64, "duration": 221, "velocity": 94}, {"time": 34077, "pitch": 45, "duration": 222, "velocity": 81}, {"time": 34077, "pitch": 69, "duration": 222, "velocity": 101}, {"time": 34077, "pitch": 73, "duration": 222, "velocity": 98}, {"time": 34087, "pitch": 64, "duration": 222, "velocity": 96}, {"time": 34319, "pitch": 45, "duration": 221, "velocity": 79}, {"time": 34319, "pitch": 69, "duration": 221, "velocity": 99}, {"time": 34319, "pitch": 73, "duration": 221, "velocity": 96}, {"time": 34329, "pitch": 64, "duration": 221, "velocity": 94}, {"time": 35037, "pitch": 45, "duration": 453, "velocity": 81}, {"time": 35037, "pitch": 69, "duration": 453, "velocity": 101}, {"time": 35037, "pitch": 72, "duration": 453, "velocity": 98}, {"time": 35047, "pitch": 64, "duration": 453, "velocity": 96}, {"time": 35520, "pitch": 47, "duration": 448, "velocity": 79}, {"time": 35520, "pitch": 71, "duration": 448, "velocity": 99}, {"time": 35520, "pitch": 74, "duration": 448, "velocity": 96}, {"time": 35530, "pitch": 66, "duration": 448, "velocity": 94}, {"time": 35997, "pitch": 48, "duration": 453, "velocity": 81}, {"time": 35997, "pitch": 67, "duration": 453, "velocity": 101}, {"time": 35997, "pitch": 72, "duration": 453, "velocity": 98}, {"time": 36007, "pitch": 76, "duration": 453, "velocity": 96}, {"time": 36480, "pitch": 50, "duration": 448, "velocity": 79}, {"time": 36480, "pitch": 69, "duration": 448, "velocity": 99}, {"time": 36480, "pitch": 74, "duration": 448, "velocity": 96}, {"time": 36490, "pitch": 78, "duration": 448, "velocity": 94}, {"time": 36958, "pitch": 43, "duration": 1900, "velocity": 94}, {"time": 36958, "pitch": 59, "duration": 482, "velocity": 98}, {"time": 36958, "pitch": 62, "duration": 482, "velocity": 92}, {"time": 37199, "pitch": 55, "duration": 221, "velocity": 104}, {"time": 37440, "pitch": 59, "duration": 478, "velocity": 94}, {"time": 37440, "pitch": 62, "duration": 478, "velocity": 89}, {"time": 37679, "pitch": 55, "duration": 219, "velocity": 100}, {"time": 37918, "pitch": 59, "duration": 482, "velocity": 98}, {"time": 37918, "pitch": 62, "duration": 482, "velocity": 92}, {"time": 38159, "pitch": 55, "duration": 221, "velocity": 103}, {"time": 38400, "pitch": 59, "duration": 478, "velocity": 96}, {"time": 38400, "pitch": 62, "duration": 478, "velocity": 89}, {"time": 38639, "pitch": 55, "duration": 219, "velocity": 99}, {"time": 38878, "pitch": 38, "duration": 1900, "velocity": 94}, {"time": 38878, "pitch": 57, "duration": 483, "velocity": 98}, {"time": 38878, "pitch": 62, "duration": 483, "velocity": 92}, {"time": 39119, "pitch": 54, "duration": 221, "velocity": 104}, {"time": 39361, "pitch": 57, "duration": 477, "velocity": 94}, {"time": 39361, "pitch": 62, "duration": 477, "velocity": 89}, {"time": 39599, "pitch": 54, "duration": 219, "velocity": 100}, {"time": 39838, "pitch": 57, "duration": 483, "velocity": 98}, {"time": 39838, "pitch": 62, "duration": 483, "velocity": 92}, {"time": 40079, "pitch": 54, "duration": 222, "velocity": 103}, {"time": 40321, "pitch": 57, "duration": 477, "velocity": 96}, {"time": 40321, "pitch": 62, "duration": 477, "velocity": 89}, {"time": 40559, "pitch": 54, "duration": 219, "velocity": 99}, {"time": 40798, "pitch": 40, "duration": 1900, "velocity": 94}, {"time": 40798, "pitch": 59, "duration": 483, "velocity": 98}, {"time": 40798, "pitch": 62, "duration": 483, "velocity": 92}, {"time": 40798, "pitch": 64, "duration": 483, "velocity": 92}, {"time": 41039, "pitch": 55, "duration": 222, "velocity": 104}, {"time": 41281, "pitch": 59, "duration": 477, "velocity": 94}, {"time": 41281, "pitch": 64, "duration": 477, "velocity": 89}, {"time": 41519, "pitch": 55, "duration": 219, "velocity": 100}, {"time": 41758, "pitch": 59, "duration": 483, "velocity": 98}, {"time": 41758, "pitch": 62, "duration": 483, "velocity": 92}, {"time": 41758, "pitch": 64, "duration": 483, "velocity": 92}, {"time": 41999, "pitch": 55, "duration": 222, "velocity": 103}, {"time": 42241, "pitch": 59, "duration": 477, "velocity": 96}, {"time": 42241, "pitch": 64, "duration": 477, "velocity": 89}, {"time": 42479, "pitch": 55, "duration": 219, "velocity": 99}, {"time": 42718, "pitch": 36, "duration": 960, "velocity": 94}, {"time": 42718, "pitch": 55, "duration": 483, "velocity": 98}, {"time": 42718, "pitch": 60, "duration": 483, "velocity": 92}, {"time": 42959, "pitch": 52, "duration": 222, "velocity": 104}, {"time": 43201, "pitch": 55, "duration": 477, "velocity": 94}, {"time": 43201, "pitch": 60, "duration": 477, "velocity": 89}, {"time": 43439, "pitch": 52, "duration": 219, "velocity": 100}, {"time": 43678, "pitch": 41, "duration": 960, "velocity": 94}, {"time": 43678, "pitch": 56, "duration": 483, "velocity": 98}, {"time": 43678, "pitch": 60, "duration": 483, "velocity": 92}, {"time": 43919, "pitch": 53, "duration": 222, "velocity": 104}, {"time": 44161, "pitch": 38, "duration": 477, "velocity": 94}, {"time": 44161, "pitch": 50, "duration": 477, "velocity": 89}, {"time": 44161, "pitch": 57, "duration": 477, "velocity": 94}, {"time": 44400, "pitch": 54, "duration": 218, "velocity": 100}, {"time": 44638, "pitch": 43, "duration": 1900, "velocity": 94}, {"time": 44638, "pitch": 59, "duration": 483, "velocity": 98}, {"time": 44638, "pitch": 62, "duration": 483, "velocity": 92}, {"time": 44880, "pitch": 55, "duration": 221, "velocity": 104}, {"time": 45121, "pitch": 59, "duration": 477, "velocity": 94}, {"time": 45121, "pitch": 62, "duration": 477, "velocity": 89}, {"time": 45360, "pitch": 55, "duration": 218, "velocity": 100}, {"time": 45598, "pitch": 59, "duration": 483, "velocity": 98}, {"time": 45598, "pitch": 62, "duration": 483, "velocity": 92}, {"time": 45840, "pitch": 55, "duration": 221, "velocity": 103}, {"time": 46081, "pitch": 59, "duration": 477, "velocity": 96}, {"time": 46081, "pitch": 62, "duration": 477, "velocity": 89}, {"time": 46320, "pitch": 55, "duration": 218, "velocity": 99}, {"time": 46558, "pitch": 38, "duration": 1901, "velocity": 94}, {"time": 46558, "pitch": 57, "duration": 483, "velocity": 98}, {"time": 46558, "pitch": 62, "duration": 483, "velocity": 92}, {"time": 46800, "pitch": 54, "duration": 221, "velocity": 104}, {"time": 47041, "pitch": 57, "duration": 477, "velocity": 94}, {"time": 47041, "pitch": 62, "duration": 477, "velocity": 89}, {"time": 47280, "pitch": 54, "duration": 219, "velocity": 100}, {"time": 47518, "pitch": 57, "duration": 483, "velocity": 98}, {"time": 47518, "pitch": 62, "duration": 483, "velocity": 92}, {"time": 47760, "pitch": 54, "duration": 221, "velocity": 103}, {"time": 48001, "pitch": 57, "duration": 477, "velocity": 96}, {"time": 48001, "pitch": 62, "duration": 477, "velocity": 89}, {"time": 48240, "pitch": 54, "duration": 219, "velocity": 99}, {"time": 48478, "pitch": 40, "duration": 1901, "velocity": 94}, {"time": 48478, "pitch": 59, "duration": 483, "velocity": 98}, {"time": 48478, "pitch": 64, "duration": 483, "velocity": 92}, {"time": 48720, "pitch": 55, "duration": 221, "velocity": 104}, {"time": 48961, "pitch": 59, "duration": 478, "velocity": 94}, {"time": 48961, "pitch": 64, "duration": 478, "velocity": 89}, {"time": 49200, "pitch": 55, "duration": 219, "velocity": 100}, {"time": 49439, "pitch": 59, "duration": 482, "velocity": 98}, {"time": 49439, "pitch": 64, "duration": 482, "velocity": 92}, {"time": 49680, "pitch": 55, "duration": 221, "velocity": 103}, {"time": 49921, "pitch": 59, "duration": 478, "velocity": 96}, {"time": 49921, "pitch": 64, "duration": 478, "velocity": 89}, {"time": 50160, "pitch": 55, "duration": 219, "velocity": 99}, {"time": 50399, "pitch": 36, "duration": 960, "velocity": 94}, {"time": 50399, "pitch": 55, "duration": 482, "velocity": 98}, {"time": 50399, "pitch": 60, "duration": 482, "velocity": 92}, {"time": 50640, "pitch": 52, "duration": 221, "velocity": 104}, {"time": 50881, "pitch": 55, "duration": 478, "velocity": 94}, {"time": 50881, "pitch": 60, "duration": 478, "velocity": 89}, {"time": 51120, "pitch": 52, "duration": 219, "velocity": 100}, {"time": 51359, "pitch": 38, "duration": 960, "velocity": 94}, {"time": 51359, "pitch": 57, "duration": 483, "velocity": 94}, {"time": 51359, "pitch": 62, "duration": 483, "velocity": 89}, {"time": 51600, "pitch": 54, "duration": 221, "velocity": 100}, {"time": 51842, "pitch": 57, "duration": 477, "velocity": 94}, {"time": 51842, "pitch": 63, "duration": 477, "velocity": 89}, {"time": 52080, "pitch": 54, "duration": 219, "velocity": 100}, {"time": 70520, "pitch": 71, "duration": 140, "velocity": 80}, {"time": 70540, "pitch": 76, "duration": 140, "velocity": 84}, {"time": 70560, "pitch": 79, "duration": 139, "velocity": 97}, {"time": 70560, "pitch": 91, "duration": 139, "velocity": 87}, {"time": 70719, "pitch": 78, "duration": 140, "velocity": 92}, {"time": 70719, "pitch": 90, "duration": 140, "velocity": 82}, {"time": 70878, "pitch": 79, "duration": 140, "velocity": 99}, {"time": 70878, "pitch": 91, "duration": 140, "velocity": 89}, {"time": 71037, "pitch": 81, "duration": 141, "velocity": 102}, {"time": 71037, "pitch": 93, "duration": 141, "velocity": 92}, {"time": 71198, "pitch": 79, "duration": 141, "velocity": 97}, {"time": 71198, "pitch": 91, "duration": 141, "velocity": 87}, {"time": 71359, "pitch": 78, "duration": 141, "velocity": 91}, {"time": 71359, "pitch": 90, "duration": 141, "velocity": 81}, {"time": 71520, "pitch": 36, "duration": 1900, "velocity": 87}, {"time": 71520, "pitch": 71, "duration": 1900, "velocity": 115}, {"time": 71520, "pitch": 72, "duration": 1900, "velocity": 100}, {"time": 71520, "pitch": 76, "duration": 1900, "velocity": 105}, {"time": 71520, "pitch": 79, "duration": 1900, "velocity": 110}, {"time": 73400, "pitch": 62, "duration": 1279, "velocity": 107}, {"time": 73420, "pitch": 66, "duration": 1259, "velocity": 99}, {"time": 73441, "pitch": 43, "duration": 919, "velocity": 87}, {"time": 73441, "pitch": 67, "duration": 919, "velocity": 97}, {"time": 73460, "pitch": 71, "duration": 920, "velocity": 95}, {"time": 74520, "pitch": 67, "duration": 219, "velocity": 68}, {"time": 74580, "pitch": 71, "duration": 218, "velocity": 73}, {"time": 74639, "pitch": 74, "duration": 219, "velocity": 76}, {"time": 74699, "pitch": 78, "duration": 219, "velocity": 79}, {"time": 74759, "pitch": 79, "duration": 219, "velocity": 82}, {"time": 74818, "pitch": 83, "duration": 221, "velocity": 84}, {"time": 74878, "pitch": 86, "duration": 422, "velocity": 87}, {"time": 74918, "pitch": 90, "duration": 121, "velocity": 90}, {"time": 74958, "pitch": 91, "duration": 121, "velocity": 92}, {"time": 74999, "pitch": 95, "duration": 120, "velocity": 95}, {"time": 75039, "pitch": 98, "duration": 120, "velocity": 97}, {"time": 75079, "pitch": 102, "duration": 121, "velocity": 90}, {"time": 75119, "pitch": 103, "duration": 121, "velocity": 88}, {"time": 75159, "pitch": 107, "duration": 61, "velocity": 83}, {"time": 75200, "pitch": 110, "duration": 60, "velocity": 79}, {"time": 75240, "pitch": 114, "duration": 60, "velocity": 76}, {"time": 75280, "pitch": 115, "duration": 61, "velocity": 68}, {"time": 75361, "pitch": 45, "duration": 218, "velocity": 81}, {"time": 75361, "pitch": 69, "duration": 218, "velocity": 101}, {"time": 75361, "pitch": 74, "duration": 218, "velocity": 98}, {"time": 75371, "pitch": 64, "duration": 218, "velocity": 96}, {"time": 75599, "pitch": 45, "duration": 219, "velocity": 79}, {"time": 75599, "pitch": 69, "duration": 219, "velocity": 99}, {"time": 75599, "pitch": 74, "duration": 219, "velocity": 97}, {"time": 75609, "pitch": 64, "duration": 219, "velocity": 94}, {"time": 76321, "pitch": 45, "duration": 218, "velocity": 81}, {"time": 76321, "pitch": 69, "duration": 218, "velocity": 101}, {"time": 76321, "pitch": 73, "duration": 218, "velocity": 98}, {"time": 76331, "pitch": 64, "duration": 218, "velocity": 96}, {"time": 76559, "pitch": 45, "duration": 219, "velocity": 79}, {"time": 76559, "pitch": 69, "duration": 219, "velocity": 99}, {"time": 76559, "pitch": 73, "duration": 219, "velocity": 96}, {"time": 76569, "pitch": 64, "duration": 219, "velocity": 94}, {"time": 77281, "pitch": 45, "duration": 447, "velocity": 81}, {"time": 77281, "pitch": 69, "duration": 447, "velocity": 101}, {"time": 77281, "pitch": 72, "duration": 447, "velocity": 98}, {"time": 77291, "pitch": 64, "duration": 447, "velocity": 96}, {"time": 77758, "pitch": 47, "duration": 453, "velocity": 79}, {"time": 77758, "pitch": 71, "duration": 453, "velocity": 99}, {"time": 77758, "pitch": 74, "duration": 453, "velocity": 96}, {"time": 77768, "pitch": 66, "duration": 453, "velocity": 94}, {"time": 78241, "pitch": 48, "duration": 447, "velocity": 81}, {"time": 78241, "pitch": 67, "duration": 447, "velocity": 101}, {"time": 78241, "pitch": 72, "duration": 447, "velocity": 98}, {"time": 78251, "pitch": 76, "duration": 447, "velocity": 96}, {"time": 78718, "pitch": 50, "duration": 453, "velocity": 79}, {"time": 78718, "pitch": 69, "duration": 453, "velocity": 99}, {"time": 78718, "pitch": 74, "duration": 453, "velocity": 96}, {"time": 78728, "pitch": 78, "duration": 453, "velocity": 94}, {"time": 79201, "pitch": 43, "duration": 1900, "velocity": 94}, {"time": 79201, "pitch": 59, "duration": 477, "velocity": 98}, {"time": 79201, "pitch": 62, "duration": 477, "velocity": 92}, {"time": 79440, "pitch": 55, "duration": 218, "velocity": 104}, {"time": 79678, "pitch": 59, "duration": 483, "velocity": 94}, {"time": 79678, "pitch": 62, "duration": 483, "velocity": 89}, {"time": 79920, "pitch": 55, "duration": 221, "velocity": 100}, {"time": 80161, "pitch": 59, "duration": 477, "velocity": 98}, {"time": 80161, "pitch": 62, "duration": 477, "velocity": 92}, {"time": 80400, "pitch": 55, "duration": 218, "velocity": 103}, {"time": 80638, "pitch": 59, "duration": 483, "velocity": 96}, {"time": 80638, "pitch": 62, "duration": 483, "velocity": 89}, {"time": 80880, "pitch": 55, "duration": 221, "velocity": 99}, {"time": 81121, "pitch": 38, "duration": 1900, "velocity": 94}, {"time": 81121, "pitch": 57, "duration": 477, "velocity": 98}, {"time": 81121, "pitch": 62, "duration": 477, "velocity": 92}, {"time": 81360, "pitch": 54, "duration": 218, "velocity": 104}, {"time": 81598, "pitch": 57, "duration": 483, "velocity": 94}, {"time": 81598, "pitch": 62, "duration": 483, "velocity": 89}, {"time": 81840, "pitch": 54, "duration": 221, "velocity": 100}, {"time": 82081, "pitch": 57, "duration": 477, "velocity": 98}, {"time": 82081, "pitch": 62, "duration": 477, "velocity": 92}, {"time": 82320, "pitch": 54, "duration": 219, "velocity": 103}, {"time": 82558, "pitch": 57, "duration": 483, "velocity": 96}, {"time": 82558, "pitch": 62, "duration": 483, "velocity": 89}, {"time": 82800, "pitch": 54, "duration": 221, "velocity": 99}, {"time": 83041, "pitch": 40, "duration": 1900, "velocity": 94}, {"time": 83041, "pitch": 59, "duration": 478, "velocity": 98}, {"time": 83041, "pitch": 62, "duration": 478, "velocity": 92}, {"time": 83041, "pitch": 64, "duration": 478, "velocity": 92}, {"time": 83280, "pitch": 55, "duration": 219, "velocity": 104}, {"time": 83519, "pitch": 59, "duration": 482, "velocity": 94}, {"time": 83519, "pitch": 64, "duration": 482, "velocity": 89}, {"time": 83760, "pitch": 55, "duration": 221, "velocity": 100}, {"time": 84001, "pitch": 59, "duration": 478, "velocity": 98}, {"time": 84001, "pitch": 62, "duration": 478, "velocity": 92}, {"time": 84001, "pitch": 64, "duration": 478, "velocity": 92}, {"time": 84240, "pitch": 55, "duration": 219, "velocity": 103}, {"time": 84479, "pitch": 59, "duration": 482, "velocity": 96}, {"time": 84479, "pitch": 64, "duration": 482, "velocity": 89}, {"time": 84720, "pitch": 55, "duration": 221, "velocity": 99}, {"time": 84961, "pitch": 36, "duration": 961, "velocity": 94}, {"time": 84961, "pitch": 55, "duration": 478, "velocity": 98}, {"time": 84961, "pitch": 60, "duration": 478, "velocity": 92}, {"time": 85200, "pitch": 52, "duration": 219, "velocity": 104}, {"time": 85439, "pitch": 55, "duration": 483, "velocity": 94}, {"time": 85439, "pitch": 60, "duration": 483, "velocity": 89}, {"time": 85680, "pitch": 52, "duration": 221, "velocity": 100}, {"time": 85922, "pitch": 41, "duration": 960, "velocity": 94}, {"time": 85922, "pitch": 56, "duration": 477, "velocity": 98}, {"time": 85922, "pitch": 60, "duration": 477, "velocity": 92}, {"time": 86160, "pitch": 53, "duration": 219, "velocity": 104}, {"time": 86399, "pitch": 38, "duration": 483, "velocity": 94}, {"time": 86399, "pitch": 50, "duration": 483, "velocity": 89}, {"time": 86399, "pitch": 57, "duration": 483, "velocity": 94}, {"time": 86640, "pitch": 54, "duration": 222, "velocity": 100}, {"time": 86882, "pitch": 43, "duration": 1900, "velocity": 94}, {"time": 86882, "pitch": 59, "duration": 477, "velocity": 98}, {"time": 86882, "pitch": 62, "duration": 477, "velocity": 92}, {"time": 87120, "pitch": 55, "duration": 219, "velocity": 104}, {"time": 87359, "pitch": 59, "duration": 483, "velocity": 94}, {"time": 87359, "pitch": 62, "duration": 483, "velocity": 89}, {"time": 87600, "pitch": 55, "duration": 222, "velocity": 100}, {"time": 87842, "pitch": 59, "duration": 477, "velocity": 98}, {"time": 87842, "pitch": 62, "duration": 477, "velocity": 92}, {"time": 88080, "pitch": 55, "duration": 219, "velocity": 103}, {"time": 88319, "pitch": 59, "duration": 483, "velocity": 96}, {"time": 88319, "pitch": 62, "duration": 483, "velocity": 89}, {"time": 88560, "pitch": 55, "duration": 222, "velocity": 99}, {"time": 88802, "pitch": 38, "duration": 1900, "velocity": 94}, {"time": 88802, "pitch": 57, "duration": 477, "velocity": 98}, {"time": 88802, "pitch": 62, "duration": 477, "velocity": 92}, {"time": 89040, "pitch": 54, "duration": 219, "velocity": 104}, {"time": 89279, "pitch": 57, "duration": 483, "velocity": 94}, {"time": 89279, "pitch": 62, "duration": 483, "velocity": 89}, {"time": 89520, "pitch": 54, "duration": 222, "velocity": 100}, {"time": 89762, "pitch": 57, "duration": 477, "velocity": 98}, {"time": 89762, "pitch": 62, "duration": 477, "velocity": 92}, {"time": 90000, "pitch": 54, "duration": 219, "velocity": 103}, {"time": 90239, "pitch": 57, "duration": 483, "velocity": 96}, {"time": 90239, "pitch": 62, "duration": 483, "velocity": 89}, {"time": 90481, "pitch": 54, "duration": 221, "velocity": 99}, {"time": 90722, "pitch": 40, "duration": 1900, "velocity": 94}, {"time": 90722, "pitch": 59, "duration": 477, "velocity": 98}, {"time": 90722, "pitch": 64, "duration": 477, "velocity": 92}, {"time": 90961, "pitch": 55, "duration": 218, "velocity": 104}, {"time": 91199, "pitch": 59, "duration": 483, "velocity": 94}, {"time": 91199, "pitch": 64, "duration": 483, "velocity": 89}, {"time": 91441, "pitch": 55, "duration": 221, "velocity": 100}, {"time": 91682, "pitch": 59, "duration": 477, "velocity": 98}, {"time": 91682, "pitch": 64, "duration": 477, "velocity": 92}, {"time": 91921, "pitch": 55, "duration": 218, "velocity": 103}, {"time": 92159, "pitch": 59, "duration": 483, "velocity": 96}, {"time": 92159, "pitch": 64, "duration": 483, "velocity": 89}, {"time": 92401, "pitch": 55, "duration": 221, "velocity": 99}, {"time": 92642, "pitch": 36, "duration": 960, "velocity": 94}, {"time": 92642, "pitch": 55, "duration": 477, "velocity": 98}, {"time": 92642, "pitch": 60, "duration": 477, "velocity": 92}, {"time": 92881, "pitch": 52, "duration": 218, "velocity": 104}, {"time": 93119, "pitch": 55, "duration": 483, "velocity": 94}, {"time": 93119, "pitch": 60, "duration": 483, "velocity": 89}, {"time": 93361, "pitch": 52, "duration": 221, "velocity": 100}, {"time": 93602, "pitch": 38, "duration": 477, "velocity": 94}, {"time": 93602, "pitch": 57, "duration": 477, "velocity": 94}, {"time": 93602, "pitch": 62, "duration": 477, "velocity": 89}, {"time": 93841, "pitch": 54, "duration": 219, "velocity": 100}, {"time": 94079, "pitch": 35, "duration": 483, "velocity": 89}, {"time": 94079, "pitch": 59, "duration": 483, "velocity": 94}, {"time": 94079, "pitch": 63, "duration": 483, "velocity": 89}, {"time": 94321, "pitch": 54, "duration": 221, "velocity": 100}, {"time": 94562, "pitch": 45, "duration": 1900, "velocity": 94}, {"time": 94562, "pitch": 60, "duration": 477, "velocity": 98}, {"time": 94562, "pitch": 64, "duration": 477, "velocity": 92}, {"time": 94801, "pitch": 57, "duration": 219, "velocity": 104}, {"time": 95039, "pitch": 60, "duration": 483, "velocity": 94}, {"time": 95039, "pitch": 64, "duration": 483, "velocity": 89}, {"time": 95281, "pitch": 57, "duration": 221, "velocity": 100}, {"time": 95522, "pitch": 60, "duration": 478, "velocity": 98}, {"time": 95522, "pitch": 64, "duration": 478, "velocity": 92}, {"time": 95761, "pitch": 57, "duration": 219, "velocity": 103}, {"time": 96000, "pitch": 60, "duration": 482, "velocity": 96}, {"time": 96000, "pitch": 64, "duration": 482, "velocity": 89}, {"time": 96241, "pitch": 57, "duration": 221, "velocity": 99}, {"time": 96482, "pitch": 36, "duration": 1900, "velocity": 94}, {"time": 96482, "pitch": 55, "duration": 478, "velocity": 98}, {"time": 96482, "pitch": 60, "duration": 478, "velocity": 92}, {"time": 96721, "pitch": 52, "duration": 219, "velocity": 104}, {"time": 96960, "pitch": 55, "duration": 482, "velocity": 94}, {"time": 96960, "pitch": 60, "duration": 482, "velocity": 89}, {"time": 97201, "pitch": 52, "duration": 221, "velocity": 100}, {"time": 97442, "pitch": 55, "duration": 478, "velocity": 98}, {"time": 97442, "pitch": 60, "duration": 478, "velocity": 92}, {"time": 97681, "pitch": 52, "duration": 219, "velocity": 103}, {"time": 97920, "pitch": 55, "duration": 483, "velocity": 96}, {"time": 97920, "pitch": 60, "duration": 483, "velocity": 89}, {"time": 98161, "pitch": 52, "duration": 221, "velocity": 99}, {"time": 98403, "pitch": 43, "duration": 447, "velocity": 94}, {"time": 98403, "pitch": 55, "duration": 447, "velocity": 104}, {"time": 98403, "pitch": 59, "duration": 447, "velocity": 98}, {"time": 98403, "pitch": 62, "duration": 447, "velocity": 92}, {"time": 99121, "pitch": 43, "duration": 1182, "velocity": 94}, {"time": 99121, "pitch": 55, "duration": 1182, "velocity": 104}, {"time": 99121, "pitch": 59, "duration": 1182, "velocity": 98}, {"time": 99121, "pitch": 62, "duration": 1182, "velocity": 92}, {"time": 100323, "pitch": 43, "duration": 447, "velocity": 94}, {"time": 100323, "pitch": 55, "duration": 447, "velocity": 104}, {"time": 100323, "pitch": 59, "duration": 447, "velocity": 98}, {"time": 100323, "pitch": 62, "duration": 447, "velocity": 92}, {"time": 101041, "pitch": 43, "duration": 699, "velocity": 94}, {"time": 101041, "pitch": 55, "duration": 699, "velocity": 104}, {"time": 101041, "pitch": 59, "duration": 699, "velocity": 98}, {"time": 101041, "pitch": 62, "duration": 699, "velocity": 92}, {"time": 101879, "pitch": 41, "duration": 338, "velocity": 94}, {"time": 101879, "pitch": 53, "duration": 338, "velocity": 104}, {"time": 101879, "pitch": 57, "duration": 338, "velocity": 98}, {"time": 101879, "pitch": 60, "duration": 338, "velocity": 92}, {"time": 102237, "pitch": 51, "duration": 1901, "velocity": 94}, {"time": 102237, "pitch": 63, "duration": 483, "velocity": 98}, {"time": 102237, "pitch": 67, "duration": 483, "velocity": 92}, {"time": 102479, "pitch": 58, "duration": 221, "velocity": 104}, {"time": 102720, "pitch": 63, "duration": 477, "velocity": 94}, {"time": 102720, "pitch": 67, "duration": 477, "velocity": 89}, {"time": 102959, "pitch": 58, "duration": 218, "velocity": 100}, {"time": 103197, "pitch": 63, "duration": 483, "velocity": 98}, {"time": 103197, "pitch": 67, "duration": 483, "velocity": 92}, {"time": 103439, "pitch": 58, "duration": 221, "velocity": 103}, {"time": 103680, "pitch": 63, "duration": 477, "velocity": 96}, {"time": 103680, "pitch": 67, "duration": 477, "velocity": 89}, {"time": 103919, "pitch": 58, "duration": 219, "velocity": 99}, {"time": 104157, "pitch": 50, "duration": 1901, "velocity": 94}, {"time": 104157, "pitch": 65, "duration": 483, "velocity": 98}, {"time": 104157, "pitch": 69, "duration": 483, "velocity": 92}, {"time": 104399, "pitch": 62, "duration": 221, "velocity": 104}, {"time": 104640, "pitch": 65, "duration": 477, "velocity": 94}, {"time": 104640, "pitch": 69, "duration": 477, "velocity": 89}, {"time": 104879, "pitch": 62, "duration": 219, "velocity": 100}, {"time": 105117, "pitch": 55, "duration": 961, "velocity": 94}, {"time": 105117, "pitch": 67, "duration": 483, "velocity": 98}, {"time": 105117, "pitch": 70, "duration": 483, "velocity": 92}, {"time": 105359, "pitch": 62, "duration": 221, "velocity": 104}, {"time": 105600, "pitch": 67, "duration": 478, "velocity": 94}, {"time": 105600, "pitch": 70, "duration": 478, "velocity": 89}, {"time": 105839, "pitch": 62, "duration": 219, "velocity": 100}, {"time": 106078, "pitch": 48, "duration": 452, "velocity": 100}, {"time": 106078, "pitch": 60, "duration": 452, "velocity": 100}, {"time": 106078, "pitch": 63, "duration": 452, "velocity": 92}, {"time": 106078, "pitch": 67, "duration": 452, "velocity": 86}, {"time": 106560, "pitch": 50, "duration": 448, "velocity": 96}, {"time": 106560, "pitch": 62, "duration": 448, "velocity": 96}, {"time": 106560, "pitch": 65, "duration": 448, "velocity": 88}, {"time": 106560, "pitch": 69, "duration": 448, "velocity": 82}, {"time": 107038, "pitch": 51, "duration": 920, "velocity": 100}, {"time": 107038, "pitch": 63, "duration": 920, "velocity": 100}, {"time": 107038, "pitch": 67, "duration": 920, "velocity": 92}, {"time": 107038, "pitch": 70, "duration": 920, "velocity": 86}, {"time": 107998, "pitch": 48, "duration": 452, "velocity": 100}, {"time": 107998, "pitch": 60, "duration": 452, "velocity": 100}, {"time": 107998, "pitch": 63, "duration": 452, "velocity": 92}, {"time": 107998, "pitch": 67, "duration": 452, "velocity": 86}, {"time": 108481, "pitch": 50, "duration": 447, "velocity": 96}, {"time": 108481, "pitch": 62, "duration": 447, "velocity": 96}, {"time": 108481, "pitch": 65, "duration": 447, "velocity": 88}, {"time": 108481, "pitch": 69, "duration": 447, "velocity": 82}, {"time": 108958, "pitch": 51, "duration": 452, "velocity": 100}, {"time": 108958, "pitch": 63, "duration": 452, "velocity": 100}, {"time": 108958, "pitch": 67, "duration": 452, "velocity": 92}, {"time": 108958, "pitch": 70, "duration": 452, "velocity": 86}, {"time": 109679, "pitch": 50, "duration": 460, "velocity": 100}, {"time": 109679, "pitch": 62, "duration": 460, "velocity": 100}, {"time": 109679, "pitch": 66, "duration": 460, "velocity": 92}, {"time": 109679, "pitch": 69, "duration": 460, "velocity": 86}, {"time": 110159, "pitch": 50, "duration": 222, "velocity": 97}, {"time": 110159, "pitch": 62, "duration": 222, "velocity": 97}, {"time": 110159, "pitch": 66, "duration": 222, "velocity": 90}, {"time": 110159, "pitch": 69, "duration": 222, "velocity": 84}, {"time": 110401, "pitch": 50, "duration": 218, "velocity": 100}, {"time": 110401, "pitch": 62, "duration": 218, "velocity": 100}, {"time": 110401, "pitch": 66, "duration": 218, "velocity": 92}, {"time": 110401, "pitch": 69, "duration": 218, "velocity": 86}, {"time": 110639, "pitch": 50, "duration": 219, "velocity": 97}, {"time": 110639, "pitch": 62, "duration": 219, "velocity": 97}, {"time": 110639, "pitch": 66, "duration": 219, "velocity": 90}, {"time": 110639, "pitch": 69, "duration": 219, "velocity": 84}, {"time": 110878, "pitch": 50, "duration": 221, "velocity": 100}, {"time": 110878, "pitch": 62, "duration": 221, "velocity": 100}, {"time": 110878, "pitch": 66, "duration": 221, "velocity": 92}, {"time": 110878, "pitch": 69, "duration": 221, "velocity": 86}, {"time": 111119, "pitch": 50, "duration": 222, "velocity": 97}, {"time": 111119, "pitch": 62, "duration": 222, "velocity": 97}, {"time": 111119, "pitch": 66, "duration": 222, "velocity": 90}, {"time": 111119, "pitch": 69, "duration": 222, "velocity": 84}, {"time": 111361, "pitch": 50, "duration": 219, "velocity": 100}, {"time": 111361, "pitch": 62, "duration": 219, "velocity": 100}, {"time": 111361, "pitch": 66, "duration": 219, "velocity": 92}, {"time": 111361, "pitch": 69, "duration": 219, "velocity": 86}, {"time": 111599, "pitch": 50, "duration": 219, "velocity": 97}, {"time": 111599, "pitch": 62, "duration": 219, "velocity": 97}, {"time": 111599, "pitch": 66, "duration": 219, "velocity": 90}, {"time": 111599, "pitch": 69, "duration": 219, "velocity": 84}, {"time": 111838, "pitch": 38, "duration": 1900, "velocity": 97}, {"time": 111838, "pitch": 74, "duration": 141, "velocity": 97}, {"time": 111838, "pitch": 86, "duration": 141, "velocity": 107}, {"time": 111999, "pitch": 72, "duration": 141, "velocity": 95}, {"time": 111999, "pitch": 84, "duration": 141, "velocity": 105}, {"time": 112160, "pitch": 71, "duration": 141, "velocity": 91}, {"time": 112160, "pitch": 83, "duration": 141, "velocity": 103}, {"time": 112321, "pitch": 69, "duration": 139, "velocity": 97}, {"time": 112321, "pitch": 81, "duration": 139, "velocity": 107}, {"time": 112480, "pitch": 67, "duration": 139, "velocity": 93}, {"time": 112480, "pitch": 79, "duration": 139, "velocity": 103}, {"time": 112639, "pitch": 66, "duration": 139, "velocity": 90}, {"time": 112639, "pitch": 78, "duration": 139, "velocity": 100}, {"time": 112798, "pitch": 62, "duration": 141, "velocity": 97}, {"time": 112798, "pitch": 74, "duration": 141, "velocity": 107}, {"time": 112959, "pitch": 60, "duration": 141, "velocity": 95}, {"time": 112959, "pitch": 72, "duration": 141, "velocity": 105}, {"time": 113120, "pitch": 59, "duration": 141, "velocity": 91}, {"time": 113120, "pitch": 71, "duration": 141, "velocity": 103}, {"time": 113281, "pitch": 57, "duration": 139, "velocity": 97}, {"time": 113281, "pitch": 69, "duration": 139, "velocity": 107}, {"time": 113440, "pitch": 55, "duration": 139, "velocity": 93}, {"time": 113440, "pitch": 67, "duration": 139, "velocity": 103}, {"time": 113599, "pitch": 54, "duration": 139, "velocity": 90}, {"time": 113599, "pitch": 66, "duration": 139, "velocity": 100}, {"time": 113758, "pitch": 43, "duration": 1900, "velocity": 94}, {"time": 113758, "pitch": 59, "duration": 483, "velocity": 98}, {"time": 113758, "pitch": 62, "duration": 483, "velocity": 92}, {"time": 114000, "pitch": 55, "duration": 221, "velocity": 104}, {"time": 114241, "pitch": 59, "duration": 477, "velocity": 94}, {"time": 114241, "pitch": 62, "duration": 477, "velocity": 89}, {"time": 114480, "pitch": 55, "duration": 218, "velocity": 100}, {"time": 114718, "pitch": 59, "duration": 483, "velocity": 98}, {"time": 114718, "pitch": 62, "duration": 483, "velocity": 92}, {"time": 114960, "pitch": 55, "duration": 221, "velocity": 103}, {"time": 115201, "pitch": 59, "duration": 477, "velocity": 96}, {"time": 115201, "pitch": 62, "duration": 477, "velocity": 89}, {"time": 115440, "pitch": 55, "duration": 218, "velocity": 99}, {"time": 115678, "pitch": 38, "duration": 1901, "velocity": 94}, {"time": 115678, "pitch": 57, "duration": 483, "velocity": 98}, {"time": 115678, "pitch": 62, "duration": 483, "velocity": 92}, {"time": 115920, "pitch": 54, "duration": 221, "velocity": 104}, {"time": 116161, "pitch": 57, "duration": 477, "velocity": 94}, {"time": 116161, "pitch": 62, "duration": 477, "velocity": 89}, {"time": 116400, "pitch": 54, "duration": 219, "velocity": 100}, {"time": 116638, "pitch": 57, "duration": 483, "velocity": 98}, {"time": 116638, "pitch": 62, "duration": 483, "velocity": 92}, {"time": 116880, "pitch": 54, "duration": 221, "velocity": 103}, {"time": 117121, "pitch": 57, "duration": 478, "velocity": 96}, {"time": 117121, "pitch": 62, "duration": 478, "velocity": 89}, {"time": 117360, "pitch": 54, "duration": 219, "velocity": 99}, {"time": 117599, "pitch": 40, "duration": 1900, "velocity": 94}, {"time": 117599, "pitch": 59, "duration": 482, "velocity": 98}, {"time": 117599, "pitch": 62, "duration": 482, "velocity": 92}, {"time": 117599, "pitch": 64, "duration": 482, "velocity": 92}, {"time": 117840, "pitch": 55, "duration": 221, "velocity": 104}, {"time": 118081, "pitch": 59, "duration": 478, "velocity": 94}, {"time": 118081, "pitch": 64, "duration": 478, "velocity": 89}, {"time": 118320, "pitch": 55, "duration": 219, "velocity": 100}, {"time": 118559, "pitch": 59, "duration": 482, "velocity": 98}, {"time": 118559, "pitch": 62, "duration": 482, "velocity": 92}, {"time": 118559, "pitch": 64, "duration": 482, "velocity": 92}, {"time": 118800, "pitch": 55, "duration": 221, "velocity": 103}, {"time": 119041, "pitch": 59, "duration": 478, "velocity": 96}, {"time": 119041, "pitch": 64, "duration": 478, "velocity": 89}, {"time": 119280, "pitch": 55, "duration": 219, "velocity": 99}, {"time": 119519, "pitch": 36, "duration": 960, "velocity": 94}, {"time": 119519, "pitch": 55, "duration": 483, "velocity": 98}, {"time": 119519, "pitch": 60, "duration": 483, "velocity": 92}, {"time": 119760, "pitch": 52, "duration": 221, "velocity": 104}, {"time": 120002, "pitch": 55, "duration": 477, "velocity": 94}, {"time": 120002, "pitch": 60, "duration": 477, "velocity": 89}, {"time": 120240, "pitch": 52, "duration": 219, "velocity": 100}, {"time": 120479, "pitch": 41, "duration": 960, "velocity": 94}, {"time": 120479, "pitch": 56, "duration": 483, "velocity": 98}, {"time": 120479, "pitch": 60, "duration": 483, "velocity": 92}, {"time": 120720, "pitch": 53, "duration": 222, "velocity": 104}, {"time": 120962, "pitch": 38, "duration": 477, "velocity": 94}, {"time": 120962, "pitch": 50, "duration": 477, "velocity": 89}, {"time": 120962, "pitch": 57, "duration": 477, "velocity": 94}, {"time": 121200, "pitch": 54, "duration": 219, "velocity": 100}, {"time": 121439, "pitch": 43, "duration": 1900, "velocity": 94}, {"time": 121439, "pitch": 59, "duration": 483, "velocity": 98}, {"time": 121439, "pitch": 62, "duration": 483, "velocity": 92}, {"time": 121680, "pitch": 55, "duration": 222, "velocity": 104}, {"time": 121922, "pitch": 59, "duration": 477, "velocity": 94}, {"time": 121922, "pitch": 62, "duration": 477, "velocity": 89}, {"time": 122160, "pitch": 55, "duration": 219, "velocity": 100}, {"time": 122399, "pitch": 59, "duration": 483, "velocity": 98}, {"time": 122399, "pitch": 62, "duration": 483, "velocity": 92}, {"time": 122640, "pitch": 55, "duration": 222, "velocity": 103}, {"time": 122882, "pitch": 59, "duration": 477, "velocity": 96}, {"time": 122882, "pitch": 62, "duration": 477, "velocity": 89}, {"time": 123120, "pitch": 55, "duration": 219, "velocity": 99}, {"time": 123359, "pitch": 38, "duration": 1900, "velocity": 94}, {"time": 123359, "pitch": 57, "duration": 483, "velocity": 98}, {"time": 123359, "pitch": 62, "duration": 483, "velocity": 92}, {"time": 123600, "pitch": 54, "duration": 222, "velocity": 104}, {"time": 123842, "pitch": 57, "duration": 477, "velocity": 94}, {"time": 123842, "pitch": 62, "duration": 477, "velocity": 89}, {"time": 124080, "pitch": 54, "duration": 219, "velocity": 100}, {"time": 124319, "pitch": 57, "duration": 483, "velocity": 98}, {"time": 124319, "pitch": 62, "duration": 483, "velocity": 92}, {"time": 124561, "pitch": 54, "duration": 221, "velocity": 103}, {"time": 124802, "pitch": 57, "duration": 477, "velocity": 96}, {"time": 124802, "pitch": 62, "duration": 477, "velocity": 89}, {"time": 125041, "pitch": 54, "duration": 218, "velocity": 99}, {"time": 125279, "pitch": 40, "duration": 1900, "velocity": 94}, {"time": 125279, "pitch": 59, "duration": 483, "velocity": 98}, {"time": 125279, "pitch": 64, "duration": 483, "velocity": 92}, {"time": 125521, "pitch": 55, "duration": 221, "velocity": 104}, {"time": 125762, "pitch": 59, "duration": 477, "velocity": 94}, {"time": 125762, "pitch": 64, "duration": 477, "velocity": 89}, {"time": 126001, "pitch": 55, "duration": 218, "velocity": 100}, {"time": 126239, "pitch": 59, "duration": 483, "velocity": 98}, {"time": 126239, "pitch": 64, "duration": 483, "velocity": 92}, {"time": 126481, "pitch": 55, "duration": 221, "velocity": 103}, {"time": 126722, "pitch": 59, "duration": 477, "velocity": 96}, {"time": 126722, "pitch": 64, "duration": 477, "velocity": 89}, {"time": 126961, "pitch": 55, "duration": 218, "velocity": 99}, {"time": 127199, "pitch": 36, "duration": 960, "velocity": 94}, {"time": 127199, "pitch": 55, "duration": 483, "velocity": 98}, {"time": 127199, "pitch": 60, "duration": 483, "velocity": 92}, {"time": 127441, "pitch": 52, "duration": 221, "velocity": 104}, {"time": 127682, "pitch": 55, "duration": 477, "velocity": 94}, {"time": 127682, "pitch": 60, "duration": 477, "velocity": 89}, {"time": 127921, "pitch": 52, "duration": 218, "velocity": 100}, {"time": 128159, "pitch": 38, "duration": 960, "velocity": 94}, {"time": 128159, "pitch": 57, "duration": 483, "velocity": 94}, {"time": 128159, "pitch": 62, "duration": 483, "velocity": 89}, {"time": 128401, "pitch": 54, "duration": 221, "velocity": 100}, {"time": 128642, "pitch": 57, "duration": 477, "velocity": 94}, {"time": 128642, "pitch": 62, "duration": 477, "velocity": 89}, {"time": 128881, "pitch": 54, "duration": 219, "velocity": 100}, {"time": 129119, "pitch": 43, "duration": 1901, "velocity": 94}, {"time": 129119, "pitch": 59, "duration": 483, "velocity": 98}, {"time": 129119, "pitch": 62, "duration": 483, "velocity": 92}, {"time": 129361, "pitch": 55, "duration": 221, "velocity": 104}, {"time": 129602, "pitch": 59, "duration": 478, "velocity": 94}, {"time": 129602, "pitch": 62, "duration": 478, "velocity": 89}, {"time": 129841, "pitch": 55, "duration": 219, "velocity": 100}, {"time": 130080, "pitch": 59, "duration": 482, "velocity": 98}, {"time": 130080, "pitch": 62, "duration": 482, "velocity": 92}, {"time": 130321, "pitch": 55, "duration": 221, "velocity": 103}, {"time": 130562, "pitch": 59, "duration": 478, "velocity": 96}, {"time": 130562, "pitch": 62, "duration": 478, "velocity": 89}, {"time": 130801, "pitch": 55, "duration": 219, "velocity": 99}, {"time": 131040, "pitch": 38, "duration": 1900, "velocity": 94}, {"time": 131040, "pitch": 57, "duration": 482, "velocity": 98}, {"time": 131040, "pitch": 62, "duration": 482, "velocity": 92}, {"time": 131281, "pitch": 54, "duration": 221, "velocity": 104}, {"time": 131522, "pitch": 57, "duration": 478, "velocity": 94}, {"time": 131522, "pitch": 62, "duration": 478, "velocity": 89}, {"time": 131761, "pitch": 54, "duration": 219, "velocity": 100}, {"time": 132000, "pitch": 57, "duration": 483, "velocity": 98}, {"time": 132000, "pitch": 62, "duration": 483, "velocity": 92}, {"time": 132241, "pitch": 54, "duration": 221, "velocity": 103}, {"time": 132483, "pitch": 57, "duration": 477, "velocity": 96}, {"time": 132483, "pitch": 62, "duration": 477, "velocity": 89}, {"time": 132721, "pitch": 54, "duration": 219, "velocity": 99}, {"time": 132960, "pitch": 40, "duration": 1900, "velocity": 94}, {"time": 132960, "pitch": 59, "duration": 483, "velocity": 98}, {"time": 132960, "pitch": 62, "duration": 483, "velocity": 92}, {"time": 132960, "pitch": 64, "duration": 483, "velocity": 92}, {"time": 133201, "pitch": 55, "duration": 222, "velocity": 104}, {"time": 133443, "pitch": 59, "duration": 477, "velocity": 94}, {"time": 133443, "pitch": 64, "duration": 477, "velocity": 89}, {"time": 133681, "pitch": 55, "duration": 219, "velocity": 100}, {"time": 133920, "pitch": 59, "duration": 483, "velocity": 98}, {"time": 133920, "pitch": 62, "duration": 483, "velocity": 92}, {"time": 133920, "pitch": 64, "duration": 483, "velocity": 92}, {"time": 134161, "pitch": 55, "duration": 222, "velocity": 103}, {"time": 134403, "pitch": 59, "duration": 477, "velocity": 96}, {"time": 134403, "pitch": 64, "duration": 477, "velocity": 89}, {"time": 134641, "pitch": 55, "duration": 219, "velocity": 99}, {"time": 134880, "pitch": 36, "duration": 960, "velocity": 94}, {"time": 134880, "pitch": 55, "duration": 483, "velocity": 98}, {"time": 134880, "pitch": 60, "duration": 483, "velocity": 92}, {"time": 135121, "pitch": 52, "duration": 222, "velocity": 104}, {"time": 135363, "pitch": 55, "duration": 477, "velocity": 94}, {"time": 135363, "pitch": 60, "duration": 477, "velocity": 89}, {"time": 135601, "pitch": 52, "duration": 219, "velocity": 100}, {"time": 135840, "pitch": 41, "duration": 960, "velocity": 94}, {"time": 135840, "pitch": 56, "duration": 477, "velocity": 98}, {"time": 135840, "pitch": 60, "duration": 477, "velocity": 92}, {"time": 136079, "pitch": 53, "duration": 218, "velocity": 104}, {"time": 136317, "pitch": 38, "duration": 483, "velocity": 94}, {"time": 136317, "pitch": 50, "duration": 483, "velocity": 89}, {"time": 136317, "pitch": 57, "duration": 483, "velocity": 94}, {"time": 136559, "pitch": 54, "duration": 221, "velocity": 100}, {"time": 136800, "pitch": 43, "duration": 1900, "velocity": 94}, {"time": 136800, "pitch": 59, "duration": 477, "velocity": 98}, {"time": 136800, "pitch": 62, "duration": 477, "velocity": 92}, {"time": 137039, "pitch": 55, "duration": 218, "velocity": 104}, {"time": 137277, "pitch": 59, "duration": 483, "velocity": 94}, {"time": 137277, "pitch": 62, "duration": 483, "velocity": 89}, {"time": 137519, "pitch": 55, "duration": 221, "velocity": 100}, {"time": 137760, "pitch": 59, "duration": 477, "velocity": 98}, {"time": 137760, "pitch": 62, "duration": 477, "velocity": 92}, {"time": 137999, "pitch": 55, "duration": 219, "velocity": 103}, {"time": 138237, "pitch": 59, "duration": 483, "velocity": 96}, {"time": 138237, "pitch": 62, "duration": 483, "velocity": 89}, {"time": 138479, "pitch": 55, "duration": 221, "velocity": 99}, {"time": 138720, "pitch": 38, "duration": 1900, "velocity": 94}, {"time": 138720, "pitch": 57, "duration": 477, "velocity": 98}, {"time": 138720, "pitch": 62, "duration": 477, "velocity": 92}, {"time": 138959, "pitch": 54, "duration": 219, "velocity": 104}, {"time": 139197, "pitch": 57, "duration": 483, "velocity": 94}, {"time": 139197, "pitch": 62, "duration": 483, "velocity": 89}, {"time": 139439, "pitch": 54, "duration": 221, "velocity": 100}, {"time": 139680, "pitch": 57, "duration": 478, "velocity": 98}, {"time": 139680, "pitch": 62, "duration": 478, "velocity": 92}, {"time": 139919, "pitch": 54, "duration": 219, "velocity": 103}, {"time": 140158, "pitch": 57, "duration": 482, "velocity": 96}, {"time": 140158, "pitch": 62, "duration": 482, "velocity": 89}, {"time": 140399, "pitch": 54, "duration": 221, "velocity": 99}, {"time": 140640, "pitch": 40, "duration": 1900, "velocity": 94}, {"time": 140640, "pitch": 59, "duration": 478, "velocity": 98}, {"time": 140640, "pitch": 64, "duration": 478, "velocity": 92}, {"time": 140879, "pitch": 55, "duration": 219, "velocity": 104}, {"time": 141118, "pitch": 59, "duration": 482, "velocity": 94}, {"time": 141118, "pitch": 64, "duration": 482, "velocity": 89}, {"time": 141359, "pitch": 55, "duration": 221, "velocity": 100}, {"time": 141600, "pitch": 59, "duration": 478, "velocity": 98}, {"time": 141600, "pitch": 64, "duration": 478, "velocity": 92}, {"time": 141839, "pitch": 55, "duration": 219, "velocity": 103}, {"time": 142078, "pitch": 59, "duration": 483, "velocity": 96}, {"time": 142078, "pitch": 64, "duration": 483, "velocity": 89}, {"time": 142319, "pitch": 55, "duration": 221, "velocity": 99}, {"time": 142561, "pitch": 36, "duration": 960, "velocity": 94}, {"time": 142561, "pitch": 55, "duration": 477, "velocity": 98}, {"time": 142561, "pitch": 60, "duration": 477, "velocity": 92}, {"time": 142799, "pitch": 52, "duration": 219, "velocity": 104}, {"time": 143038, "pitch": 55, "duration": 483, "velocity": 94}, {"time": 143038, "pitch": 60, "duration": 483, "velocity": 89}, {"time": 143279, "pitch": 52, "duration": 222, "velocity": 100}, {"time": 143521, "pitch": 38, "duration": 960, "velocity": 94}, {"time": 143521, "pitch": 57, "duration": 477, "velocity": 94}, {"time": 143521, "pitch": 62, "duration": 477, "velocity": 89}, {"time": 143759, "pitch": 54, "duration": 219, "velocity": 100}, {"time": 143998, "pitch": 57, "duration": 483, "velocity": 94}, {"time": 143998, "pitch": 63, "duration": 483, "velocity": 89}, {"time": 144239, "pitch": 54, "duration": 222, "velocity": 100}, {"time": 144481, "pitch": 40, "duration": 960, "velocity": 80}, {"time": 144481, "pitch": 55, "duration": 960, "velocity": 88}, {"time": 144481, "pitch": 59, "duration": 960, "velocity": 100}, {"time": 144481, "pitch": 64, "duration": 960, "velocity": 97}, {"time": 145441, "pitch": 66, "duration": 960, "velocity": 98}, {"time": 145441, "pitch": 78, "duration": 960, "velocity": 98}, {"time": 146401, "pitch": 62, "duration": 960, "velocity": 91}, {"time": 146401, "pitch": 74, "duration": 960, "velocity": 91}, {"time": 147361, "pitch": 64, "duration": 960, "velocity": 95}, {"time": 147361, "pitch": 76, "duration": 960, "velocity": 95}, {"time": 148321, "pitch": 62, "duration": 960, "velocity": 93}, {"time": 148321, "pitch": 74, "duration": 960, "velocity": 93}, {"time": 149281, "pitch": 61, "duration": 960, "velocity": 95}, {"time": 149281, "pitch": 73, "duration": 960, "velocity": 95}, {"time": 150241, "pitch": 69, "duration": 960, "velocity": 91}, {"time": 150241, "pitch": 81, "duration": 960, "velocity": 91}, {"time": 13831, "pitch": 59, "duration": 80, "velocity": 115}, {"time": 13921, "pitch": 71, "duration": 159, "velocity": 115}, {"time": 14080, "pitch": 69, "duration": 80, "velocity": 115}, {"time": 14160, "pitch": 67, "duration": 159, "velocity": 115}, {"time": 14319, "pitch": 69, "duration": 240, "velocity": 115}, {"time": 14559, "pitch": 71, "duration": 242, "velocity": 115}, {"time": 15751, "pitch": 59, "duration": 80, "velocity": 115}, {"time": 15841, "pitch": 71, "duration": 159, "velocity": 115}, {"time": 16000, "pitch": 69, "duration": 80, "velocity": 115}, {"time": 16080, "pitch": 67, "duration": 159, "velocity": 115}, {"time": 16239, "pitch": 69, "duration": 241, "velocity": 115}, {"time": 16480, "pitch": 64, "duration": 241, "velocity": 115}, {"time": 17762, "pitch": 71, "duration": 159, "velocity": 115}, {"time": 17921, "pitch": 69, "duration": 79, "velocity": 115}, {"time": 18000, "pitch": 67, "duration": 159, "velocity": 115}, {"time": 18159, "pitch": 67, "duration": 80, "velocity": 115}, {"time": 18239, "pitch": 69, "duration": 161, "velocity": 115}, {"time": 18400, "pitch": 71, "duration": 191, "velocity": 115}, {"time": 18641, "pitch": 67, "duration": 240, "velocity": 115}, {"time": 18881, "pitch": 64, "duration": 479, "velocity": 115}, {"time": 21511, "pitch": 59, "duration": 81, "velocity": 115}, {"time": 21602, "pitch": 71, "duration": 159, "velocity": 115}, {"time": 21761, "pitch": 69, "duration": 80, "velocity": 115}, {"time": 21841, "pitch": 67, "duration": 79, "velocity": 115}, {"time": 21920, "pitch": 67, "duration": 80, "velocity": 115}, {"time": 22000, "pitch": 67, "duration": 79, "velocity": 115}, {"time": 22079, "pitch": 69, "duration": 161, "velocity": 115}, {"time": 22240, "pitch": 71, "duration": 242, "velocity": 115}, {"time": 23432, "pitch": 59, "duration": 80, "velocity": 115}, {"time": 23522, "pitch": 71, "duration": 159, "velocity": 115}, {"time": 23681, "pitch": 69, "duration": 80, "velocity": 115}, {"time": 23761, "pitch": 67, "duration": 159, "velocity": 115}, {"time": 23920, "pitch": 69, "duration": 240, "velocity": 115}, {"time": 24160, "pitch": 74, "duration": 81, "velocity": 115}, {"time": 24241, "pitch": 71, "duration": 480, "velocity": 115}, {"time": 25442, "pitch": 71, "duration": 159, "velocity": 115}, {"time": 25601, "pitch": 69, "duration": 80, "velocity": 115}, {"time": 25681, "pitch": 67, "duration": 159, "velocity": 115}, {"time": 25840, "pitch": 67, "duration": 79, "velocity": 115}, {"time": 25919, "pitch": 69, "duration": 161, "velocity": 115}, {"time": 26080, "pitch": 71, "duration": 242, "velocity": 115}, {"time": 26322, "pitch": 67, "duration": 239, "velocity": 115}, {"time": 26561, "pitch": 64, "duration": 479, "velocity": 115}, {"time": 29283, "pitch": 67, "duration": 238, "velocity": 115}, {"time": 29680, "pitch": 64, "duration": 80, "velocity": 115}, {"time": 29760, "pitch": 67, "duration": 161, "velocity": 115}, {"time": 29921, "pitch": 64, "duration": 80, "velocity": 115}, {"time": 30001, "pitch": 67, "duration": 161, "velocity": 115}, {"time": 30162, "pitch": 67, "duration": 81, "velocity": 115}, {"time": 30243, "pitch": 69, "duration": 159, "velocity": 115}, {"time": 30402, "pitch": 67, "duration": 238, "velocity": 115}, {"time": 30881, "pitch": 67, "duration": 80, "velocity": 115}, {"time": 30961, "pitch": 67, "duration": 161, "velocity": 115}, {"time": 31122, "pitch": 69, "duration": 81, "velocity": 115}, {"time": 31203, "pitch": 72, "duration": 238, "velocity": 115}, {"time": 31441, "pitch": 71, "duration": 159, "velocity": 115}, {"time": 31600, "pitch": 67, "duration": 241, "velocity": 115}, {"time": 31841, "pitch": 62, "duration": 80, "velocity": 115}, {"time": 31921, "pitch": 62, "duration": 242, "velocity": 115}, {"time": 32879, "pitch": 71, "duration": 159, "velocity": 115}, {"time": 33038, "pitch": 73, "duration": 79, "velocity": 115}, {"time": 33117, "pitch": 74, "duration": 161, "velocity": 115}, {"time": 33278, "pitch": 74, "duration": 242, "velocity": 115}, {"time": 33520, "pitch": 74, "duration": 80, "velocity": 115}, {"time": 33600, "pitch": 74, "duration": 159, "velocity": 115}, {"time": 33759, "pitch": 74, "duration": 80, "velocity": 115}, {"time": 33839, "pitch": 74, "duration": 159, "velocity": 115}, {"time": 33998, "pitch": 74, "duration": 79, "velocity": 115}, {"time": 34077, "pitch": 73, "duration": 161, "velocity": 115}, {"time": 34238, "pitch": 73, "duration": 81, "velocity": 115}, {"time": 34319, "pitch": 71, "duration": 161, "velocity": 115}, {"time": 34480, "pitch": 71, "duration": 80, "velocity": 115}, {"time": 34560, "pitch": 69, "duration": 159, "velocity": 115}, {"time": 34719, "pitch": 69, "duration": 80, "velocity": 115}, {"time": 34799, "pitch": 71, "duration": 159, "velocity": 115}, {"time": 34958, "pitch": 72, "duration": 220, "velocity": 115}, {"time": 35440, "pitch": 71, "duration": 80, "velocity": 115}, {"time": 35520, "pitch": 72, "duration": 159, "velocity": 115}, {"time": 35679, "pitch": 74, "duration": 239, "velocity": 115}, {"time": 35918, "pitch": 76, "duration": 240, "velocity": 115}, {"time": 36158, "pitch": 74, "duration": 242, "velocity": 115}, {"time": 36400, "pitch": 74, "duration": 80, "velocity": 115}, {"time": 36480, "pitch": 72, "duration": 159, "velocity": 115}, {"time": 36639, "pitch": 74, "duration": 319, "velocity": 115}, {"time": 37199, "pitch": 74, "duration": 241, "velocity": 115}, {"time": 37440, "pitch": 74, "duration": 239, "velocity": 115}, {"time": 37679, "pitch": 74, "duration": 239, "velocity": 115}, {"time": 37918, "pitch": 67, "duration": 241, "velocity": 115}, {"time": 38159, "pitch": 66, "duration": 241, "velocity": 115}, {"time": 38400, "pitch": 67, "duration": 239, "velocity": 115}, {"time": 38639, "pitch": 74, "duration": 239, "velocity": 115}, {"time": 39119, "pitch": 74, "duration": 242, "velocity": 115}, {"time": 39361, "pitch": 74, "duration": 238, "velocity": 115}, {"time": 39599, "pitch": 74, "duration": 159, "velocity": 115}, {"time": 39758, "pitch": 67, "duration": 321, "velocity": 115}, {"time": 40079, "pitch": 66, "duration": 242, "velocity": 115}, {"time": 40321, "pitch": 67, "duration": 238, "velocity": 115}, {"time": 40559, "pitch": 76, "duration": 239, "velocity": 115}, {"time": 41039, "pitch": 76, "duration": 242, "velocity": 115}, {"time": 41281, "pitch": 76, "duration": 238, "velocity": 115}, {"time": 41519, "pitch": 76, "duration": 239, "velocity": 115}, {"time": 41758, "pitch": 74, "duration": 241, "velocity": 115}, {"time": 41999, "pitch": 72, "duration": 242, "velocity": 115}, {"time": 42241, "pitch": 71, "duration": 159, "velocity": 115}, {"time": 42400, "pitch": 74, "duration": 238, "velocity": 115}, {"time": 42718, "pitch": 72, "duration": 241, "velocity": 115}, {"time": 42959, "pitch": 71, "duration": 242, "velocity": 115}, {"time": 43201, "pitch": 69, "duration": 238, "velocity": 115}, {"time": 43439, "pitch": 67, "duration": 160, "velocity": 115}, {"time": 43599, "pitch": 71, "duration": 240, "velocity": 115}, {"time": 43839, "pitch": 72, "duration": 80, "velocity": 115}, {"time": 43919, "pitch": 71, "duration": 161, "velocity": 115}, {"time": 44080, "pitch": 69, "duration": 300, "velocity": 115}, {"time": 44880, "pitch": 74, "duration": 241, "velocity": 115}, {"time": 45121, "pitch": 74, "duration": 239, "velocity": 115}, {"time": 45360, "pitch": 74, "duration": 238, "velocity": 115}, {"time": 45598, "pitch": 67, "duration": 242, "velocity": 115}, {"time": 45840, "pitch": 66, "duration": 241, "velocity": 115}, {"time": 46081, "pitch": 67, "duration": 239, "velocity": 115}, {"time": 46320, "pitch": 74, "duration": 238, "velocity": 115}, {"time": 46800, "pitch": 74, "duration": 241, "velocity": 115}, {"time": 47041, "pitch": 74, "duration": 239, "velocity": 115}, {"time": 47280, "pitch": 74, "duration": 238, "velocity": 115}, {"time": 47518, "pitch": 67, "duration": 242, "velocity": 115}, {"time": 47760, "pitch": 66, "duration": 241, "velocity": 115}, {"time": 48001, "pitch": 67, "duration": 239, "velocity": 115}, {"time": 48240, "pitch": 76, "duration": 238, "velocity": 115}, {"time": 48961, "pitch": 79, "duration": 239, "velocity": 115}, {"time": 49200, "pitch": 78, "duration": 239, "velocity": 115}, {"time": 49680, "pitch": 76, "duration": 241, "velocity": 115}, {"time": 49921, "pitch": 74, "duration": 239, "velocity": 115}, {"time": 50160, "pitch": 71, "duration": 239, "velocity": 115}, {"time": 50399, "pitch": 72, "duration": 221, "velocity": 115}, {"time": 50640, "pitch": 71, "duration": 141, "velocity": 115}, {"time": 50801, "pitch": 72, "duration": 528, "velocity": 115}, {"time": 51600, "pitch": 69, "duration": 141, "velocity": 115}, {"time": 51761, "pitch": 69, "duration": 60, "velocity": 115}, {"time": 51842, "pitch": 69, "duration": 119, "velocity": 115}, {"time": 52080, "pitch": 72, "duration": 139, "velocity": 115}, {"time": 52239, "pitch": 71, "duration": 1000, "velocity": 115}, {"time": 56070, "pitch": 59, "duration": 79, "velocity": 115}, {"time": 56159, "pitch": 71, "duration": 161, "velocity": 115}, {"time": 56320, "pitch": 69, "duration": 81, "velocity": 115}, {"time": 56401, "pitch": 67, "duration": 160, "velocity": 115}, {"time": 56561, "pitch": 69, "duration": 240, "velocity": 115}, {"time": 56801, "pitch": 71, "duration": 239, "velocity": 115}, {"time": 57990, "pitch": 59, "duration": 79, "velocity": 115}, {"time": 58079, "pitch": 71, "duration": 161, "velocity": 115}, {"time": 58240, "pitch": 69, "duration": 81, "velocity": 115}, {"time": 58321, "pitch": 67, "duration": 161, "velocity": 115}, {"time": 58482, "pitch": 69, "duration": 239, "velocity": 115}, {"time": 58721, "pitch": 64, "duration": 239, "velocity": 115}, {"time": 59999, "pitch": 71, "duration": 161, "velocity": 115}, {"time": 60160, "pitch": 69, "duration": 81, "velocity": 115}, {"time": 60241, "pitch": 67, "duration": 161, "velocity": 115}, {"time": 60402, "pitch": 67, "duration": 80, "velocity": 115}, {"time": 60482, "pitch": 69, "duration": 159, "velocity": 115}, {"time": 60641, "pitch": 71, "duration": 140, "velocity": 115}, {"time": 60880, "pitch": 67, "duration": 240, "velocity": 115}, {"time": 61120, "pitch": 64, "duration": 481, "velocity": 115}, {"time": 63750, "pitch": 59, "duration": 80, "velocity": 115}, {"time": 63840, "pitch": 71, "duration": 161, "velocity": 115}, {"time": 64001, "pitch": 69, "duration": 80, "velocity": 115}, {"time": 64081, "pitch": 67, "duration": 161, "velocity": 115}, {"time": 64242, "pitch": 67, "duration": 81, "velocity": 105}, {"time": 64323, "pitch": 69, "duration": 159, "velocity": 115}, {"time": 64482, "pitch": 71, "duration": 238, "velocity": 115}, {"time": 65521, "pitch": 59, "duration": 159, "velocity": 115}, {"time": 65680, "pitch": 59, "duration": 80, "velocity": 115}, {"time": 65760, "pitch": 71, "duration": 161, "velocity": 115}, {"time": 65921, "pitch": 69, "duration": 161, "velocity": 115}, {"time": 66082, "pitch": 67, "duration": 161, "velocity": 115}, {"time": 66243, "pitch": 69, "duration": 159, "velocity": 115}, {"time": 66402, "pitch": 74, "duration": 159, "velocity": 115}, {"time": 66561, "pitch": 71, "duration": 477, "velocity": 115}, {"time": 67680, "pitch": 71, "duration": 159, "velocity": 115}, {"time": 67839, "pitch": 69, "duration": 80, "velocity": 115}, {"time": 67919, "pitch": 67, "duration": 159, "velocity": 115}, {"time": 68078, "pitch": 67, "duration": 79, "velocity": 115}, {"time": 68157, "pitch": 69, "duration": 161, "velocity": 115}, {"time": 68318, "pitch": 71, "duration": 141, "velocity": 115}, {"time": 68560, "pitch": 67, "duration": 239, "velocity": 115}, {"time": 68799, "pitch": 64, "duration": 479, "velocity": 115}, {"time": 71520, "pitch": 67, "duration": 239, "velocity": 115}, {"time": 71918, "pitch": 64, "duration": 80, "velocity": 115}, {"time": 71998, "pitch": 67, "duration": 161, "velocity": 115}, {"time": 72159, "pitch": 64, "duration": 80, "velocity": 115}, {"time": 72239, "pitch": 67, "duration": 161, "velocity": 115}, {"time": 72400, "pitch": 69, "duration": 240, "velocity": 115}, {"time": 72640, "pitch": 67, "duration": 238, "velocity": 115}, {"time": 73199, "pitch": 67, "duration": 161, "velocity": 115}, {"time": 73360, "pitch": 69, "duration": 81, "velocity": 115}, {"time": 73441, "pitch": 72, "duration": 238, "velocity": 115}, {"time": 73679, "pitch": 71, "duration": 159, "velocity": 115}, {"time": 73838, "pitch": 67, "duration": 241, "velocity": 115}, {"time": 74079, "pitch": 62, "duration": 80, "velocity": 115}, {"time": 74159, "pitch": 62, "duration": 242, "velocity": 115}, {"time": 75119, "pitch": 71, "duration": 161, "velocity": 115}, {"time": 75280, "pitch": 73, "duration": 81, "velocity": 115}, {"time": 75361, "pitch": 74, "duration": 159, "velocity": 115}, {"time": 75520, "pitch": 74, "duration": 79, "velocity": 115}, {"time": 75599, "pitch": 74, "duration": 159, "velocity": 115}, {"time": 75758, "pitch": 66, "duration": 80, "velocity": 115}, {"time": 75838, "pitch": 74, "duration": 161, "velocity": 115}, {"time": 75999, "pitch": 74, "duration": 241, "velocity": 115}, {"time": 76240, "pitch": 74, "duration": 81, "velocity": 115}, {"time": 76321, "pitch": 73, "duration": 159, "velocity": 115}, {"time": 76480, "pitch": 73, "duration": 79, "velocity": 115}, {"time": 76559, "pitch": 71, "duration": 159, "velocity": 115}, {"time": 76718, "pitch": 71, "duration": 80, "velocity": 115}, {"time": 76798, "pitch": 69, "duration": 161, "velocity": 115}, {"time": 76959, "pitch": 69, "duration": 80, "velocity": 115}, {"time": 77039, "pitch": 71, "duration": 161, "velocity": 115}, {"time": 77200, "pitch": 71, "duration": 81, "velocity": 115}, {"time": 77281, "pitch": 72, "duration": 79, "velocity": 115}, {"time": 77360, "pitch": 71, "duration": 80, "velocity": 115}, {"time": 77440, "pitch": 72, "duration": 239, "velocity": 115}, {"time": 77679, "pitch": 71, "duration": 79, "velocity": 115}, {"time": 77758, "pitch": 72, "duration": 161, "velocity": 115}, {"time": 77919, "pitch": 74, "duration": 241, "velocity": 115}, {"time": 78160, "pitch": 76, "duration": 310, "velocity": 115}, {"time": 78480, "pitch": 74, "duration": 238, "velocity": 115}, {"time": 78718, "pitch": 72, "duration": 242, "velocity": 115}, {"time": 78960, "pitch": 74, "duration": 241, "velocity": 115}, {"time": 79440, "pitch": 74, "duration": 238, "velocity": 115}, {"time": 79678, "pitch": 74, "duration": 242, "velocity": 115}, {"time": 79920, "pitch": 74, "duration": 241, "velocity": 115}, {"time": 80161, "pitch": 67, "duration": 239, "velocity": 115}, {"time": 80400, "pitch": 66, "duration": 238, "velocity": 115}, {"time": 80638, "pitch": 67, "duration": 242, "velocity": 115}, {"time": 80880, "pitch": 74, "duration": 241, "velocity": 115}, {"time": 81360, "pitch": 74, "duration": 238, "velocity": 115}, {"time": 81598, "pitch": 74, "duration": 242, "velocity": 115}, {"time": 81840, "pitch": 74, "duration": 241, "velocity": 115}, {"time": 82081, "pitch": 67, "duration": 239, "velocity": 115}, {"time": 82320, "pitch": 66, "duration": 238, "velocity": 115}, {"time": 82558, "pitch": 67, "duration": 242, "velocity": 115}, {"time": 82800, "pitch": 76, "duration": 241, "velocity": 115}, {"time": 83280, "pitch": 76, "duration": 239, "velocity": 115}, {"time": 83519, "pitch": 76, "duration": 241, "velocity": 115}, {"time": 83760, "pitch": 76, "duration": 241, "velocity": 115}, {"time": 84001, "pitch": 74, "duration": 239, "velocity": 115}, {"time": 84240, "pitch": 72, "duration": 239, "velocity": 115}, {"time": 84479, "pitch": 71, "duration": 161, "velocity": 115}, {"time": 84640, "pitch": 74, "duration": 241, "velocity": 115}, {"time": 84961, "pitch": 72, "duration": 239, "velocity": 115}, {"time": 85200, "pitch": 71, "duration": 239, "velocity": 115}, {"time": 85439, "pitch": 69, "duration": 161, "velocity": 115}, {"time": 85600, "pitch": 67, "duration": 241, "velocity": 115}, {"time": 85841, "pitch": 67, "duration": 81, "velocity": 115}, {"time": 85922, "pitch": 71, "duration": 159, "velocity": 115}, {"time": 86081, "pitch": 72, "duration": 79, "velocity": 115}, {"time": 86160, "pitch": 71, "duration": 159, "velocity": 115}, {"time": 86319, "pitch": 69, "duration": 301, "velocity": 115}, {"time": 87120, "pitch": 74, "duration": 239, "velocity": 115}, {"time": 87359, "pitch": 74, "duration": 241, "velocity": 115}, {"time": 87600, "pitch": 74, "duration": 242, "velocity": 115}, {"time": 87842, "pitch": 67, "duration": 238, "velocity": 115}, {"time": 88080, "pitch": 66, "duration": 239, "velocity": 115}, {"time": 88319, "pitch": 67, "duration": 241, "velocity": 115}, {"time": 88560, "pitch": 74, "duration": 242, "velocity": 115}, {"time": 89040, "pitch": 74, "duration": 239, "velocity": 115}, {"time": 89279, "pitch": 74, "duration": 241, "velocity": 115}, {"time": 89520, "pitch": 74, "duration": 242, "velocity": 115}, {"time": 89762, "pitch": 67, "duration": 238, "velocity": 115}, {"time": 90000, "pitch": 66, "duration": 239, "velocity": 115}, {"time": 90239, "pitch": 67, "duration": 242, "velocity": 115}, {"time": 90481, "pitch": 76, "duration": 241, "velocity": 115}, {"time": 91199, "pitch": 79, "duration": 242, "velocity": 115}, {"time": 91441, "pitch": 78, "duration": 241, "velocity": 115}, {"time": 91921, "pitch": 76, "duration": 238, "velocity": 115}, {"time": 92159, "pitch": 74, "duration": 242, "velocity": 115}, {"time": 92401, "pitch": 71, "duration": 241, "velocity": 115}, {"time": 92642, "pitch": 72, "duration": 219, "velocity": 115}, {"time": 92881, "pitch": 71, "duration": 139, "velocity": 115}, {"time": 93040, "pitch": 72, "duration": 532, "velocity": 115}, {"time": 93841, "pitch": 69, "duration": 139, "velocity": 115}, {"time": 94000, "pitch": 69, "duration": 60, "velocity": 115}, {"time": 94079, "pitch": 69, "duration": 161, "velocity": 115}, {"time": 94240, "pitch": 69, "duration": 81, "velocity": 115}, {"time": 94321, "pitch": 71, "duration": 141, "velocity": 115}, {"time": 94482, "pitch": 72, "duration": 1000, "velocity": 115}, {"time": 114000, "pitch": 74, "duration": 241, "velocity": 115}, {"time": 114241, "pitch": 74, "duration": 239, "velocity": 115}, {"time": 114480, "pitch": 74, "duration": 238, "velocity": 115}, {"time": 114718, "pitch": 67, "duration": 242, "velocity": 115}, {"time": 114960, "pitch": 66, "duration": 241, "velocity": 115}, {"time": 115201, "pitch": 67, "duration": 239, "velocity": 115}, {"time": 115440, "pitch": 74, "duration": 238, "velocity": 115}, {"time": 115920, "pitch": 74, "duration": 241, "velocity": 115}, {"time": 116161, "pitch": 74, "duration": 239, "velocity": 115}, {"time": 116400, "pitch": 74, "duration": 238, "velocity": 115}, {"time": 116638, "pitch": 67, "duration": 242, "velocity": 115}, {"time": 116880, "pitch": 66, "duration": 241, "velocity": 115}, {"time": 117121, "pitch": 67, "duration": 239, "velocity": 115}, {"time": 117360, "pitch": 76, "duration": 239, "velocity": 115}, {"time": 117840, "pitch": 76, "duration": 241, "velocity": 115}, {"time": 118081, "pitch": 76, "duration": 239, "velocity": 115}, {"time": 118320, "pitch": 76, "duration": 239, "velocity": 115}, {"time": 118559, "pitch": 74, "duration": 241, "velocity": 115}, {"time": 118800, "pitch": 72, "duration": 241, "velocity": 115}, {"time": 119041, "pitch": 71, "duration": 160, "velocity": 115}, {"time": 119201, "pitch": 74, "duration": 238, "velocity": 115}, {"time": 119519, "pitch": 72, "duration": 241, "velocity": 115}, {"time": 119760, "pitch": 71, "duration": 242, "velocity": 115}, {"time": 120002, "pitch": 69, "duration": 159, "velocity": 115}, {"time": 120161, "pitch": 67, "duration": 238, "velocity": 115}, {"time": 120399, "pitch": 67, "duration": 80, "velocity": 115}, {"time": 120479, "pitch": 71, "duration": 161, "velocity": 115}, {"time": 120640, "pitch": 72, "duration": 80, "velocity": 115}, {"time": 120720, "pitch": 71, "duration": 161, "velocity": 115}, {"time": 120881, "pitch": 69, "duration": 299, "velocity": 115}, {"time": 121680, "pitch": 74, "duration": 242, "velocity": 115}, {"time": 121922, "pitch": 74, "duration": 238, "velocity": 115}, {"time": 122160, "pitch": 74, "duration": 239, "velocity": 115}, {"time": 122399, "pitch": 67, "duration": 241, "velocity": 115}, {"time": 122640, "pitch": 66, "duration": 242, "velocity": 115}, {"time": 122882, "pitch": 67, "duration": 238, "velocity": 115}, {"time": 123120, "pitch": 74, "duration": 239, "velocity": 115}, {"time": 123600, "pitch": 74, "duration": 242, "velocity": 115}, {"time": 123842, "pitch": 74, "duration": 238, "velocity": 115}, {"time": 124080, "pitch": 74, "duration": 239, "velocity": 115}, {"time": 124319, "pitch": 67, "duration": 242, "velocity": 115}, {"time": 124561, "pitch": 66, "duration": 241, "velocity": 115}, {"time": 124802, "pitch": 67, "duration": 239, "velocity": 115}, {"time": 125041, "pitch": 76, "duration": 238, "velocity": 115}, {"time": 125762, "pitch": 79, "duration": 239, "velocity": 115}, {"time": 126001, "pitch": 78, "duration": 238, "velocity": 115}, {"time": 126481, "pitch": 76, "duration": 241, "velocity": 115}, {"time": 126722, "pitch": 74, "duration": 239, "velocity": 115}, {"time": 126961, "pitch": 71, "duration": 238, "velocity": 115}, {"time": 127199, "pitch": 76, "duration": 222, "velocity": 115}, {"time": 127441, "pitch": 74, "duration": 141, "velocity": 115}, {"time": 127602, "pitch": 76, "duration": 528, "velocity": 115}, {"time": 128320, "pitch": 79, "duration": 242, "velocity": 115}, {"time": 128562, "pitch": 79, "duration": 80, "velocity": 115}, {"time": 128642, "pitch": 78, "duration": 477, "velocity": 115}, {"time": 129361, "pitch": 74, "duration": 241, "velocity": 115}, {"time": 129602, "pitch": 74, "duration": 239, "velocity": 115}, {"time": 129841, "pitch": 74, "duration": 239, "velocity": 115}, {"time": 130080, "pitch": 67, "duration": 241, "velocity": 115}, {"time": 130321, "pitch": 66, "duration": 241, "velocity": 115}, {"time": 130562, "pitch": 67, "duration": 239, "velocity": 115}, {"time": 130801, "pitch": 74, "duration": 239, "velocity": 115}, {"time": 131281, "pitch": 74, "duration": 241, "velocity": 115}, {"time": 131522, "pitch": 74, "duration": 239, "velocity": 115}, {"time": 131761, "pitch": 74, "duration": 159, "velocity": 115}, {"time": 131920, "pitch": 67, "duration": 321, "velocity": 115}, {"time": 132241, "pitch": 66, "duration": 242, "velocity": 115}, {"time": 132483, "pitch": 67, "duration": 238, "velocity": 115}, {"time": 132721, "pitch": 76, "duration": 239, "velocity": 115}, {"time": 133201, "pitch": 76, "duration": 242, "velocity": 115}, {"time": 133443, "pitch": 76, "duration": 238, "velocity": 115}, {"time": 133681, "pitch": 76, "duration": 239, "velocity": 115}, {"time": 133920, "pitch": 74, "duration": 241, "velocity": 115}, {"time": 134161, "pitch": 72, "duration": 242, "velocity": 115}, {"time": 134403, "pitch": 71, "duration": 159, "velocity": 115}, {"time": 134562, "pitch": 74, "duration": 238, "velocity": 115}, {"time": 134880, "pitch": 72, "duration": 241, "velocity": 115}, {"time": 135121, "pitch": 71, "duration": 242, "velocity": 115}, {"time": 135363, "pitch": 69, "duration": 238, "velocity": 115}, {"time": 135601, "pitch": 67, "duration": 159, "velocity": 115}, {"time": 135760, "pitch": 71, "duration": 239, "velocity": 115}, {"time": 135999, "pitch": 72, "duration": 80, "velocity": 115}, {"time": 136079, "pitch": 71, "duration": 159, "velocity": 115}, {"time": 136238, "pitch": 69, "duration": 301, "velocity": 115}, {"time": 137039, "pitch": 74, "duration": 238, "velocity": 115}, {"time": 137277, "pitch": 74, "duration": 242, "velocity": 115}, {"time": 137519, "pitch": 74, "duration": 241, "velocity": 115}, {"time": 137760, "pitch": 67, "duration": 239, "velocity": 115}, {"time": 137999, "pitch": 66, "duration": 238, "velocity": 115}, {"time": 138237, "pitch": 67, "duration": 242, "velocity": 115}, {"time": 138479, "pitch": 74, "duration": 241, "velocity": 115}, {"time": 138959, "pitch": 74, "duration": 238, "velocity": 115}, {"time": 139197, "pitch": 74, "duration": 242, "velocity": 115}, {"time": 139439, "pitch": 74, "duration": 241, "velocity": 115}, {"time": 139680, "pitch": 67, "duration": 239, "velocity": 115}, {"time": 139919, "pitch": 66, "duration": 239, "velocity": 115}, {"time": 140158, "pitch": 67, "duration": 241, "velocity": 115}, {"time": 140399, "pitch": 76, "duration": 241, "velocity": 115}, {"time": 141118, "pitch": 79, "duration": 241, "velocity": 115}, {"time": 141359, "pitch": 78, "duration": 241, "velocity": 115}, {"time": 141839, "pitch": 76, "duration": 239, "velocity": 115}, {"time": 142078, "pitch": 74, "duration": 241, "velocity": 115}, {"time": 142319, "pitch": 71, "duration": 242, "velocity": 115}, {"time": 142561, "pitch": 72, "duration": 218, "velocity": 115}, {"time": 142799, "pitch": 71, "duration": 139, "velocity": 115}, {"time": 142958, "pitch": 72, "duration": 532, "velocity": 115}, {"time": 143759, "pitch": 69, "duration": 139, "velocity": 115}, {"time": 143918, "pitch": 69, "duration": 60, "velocity": 115}, {"time": 143998, "pitch": 69, "duration": 121, "velocity": 115}, {"time": 144239, "pitch": 72, "duration": 141, "velocity": 115}, {"time": 144400, "pitch": 71, "duration": 3901, "velocity": 115}, {"time": 36958, "pitch": 55, "duration": 721, "velocity": 98}, {"time": 37199, "pitch": 50, "duration": 719, "velocity": 100}, {"time": 37440, "pitch": 59, "duration": 719, "velocity": 106}, {"time": 37679, "pitch": 55, "duration": 721, "velocity": 98}, {"time": 37918, "pitch": 62, "duration": 721, "velocity": 109}, {"time": 38159, "pitch": 59, "duration": 719, "velocity": 104}, {"time": 38400, "pitch": 67, "duration": 478, "velocity": 114}, {"time": 38639, "pitch": 62, "duration": 239, "velocity": 103}, {"time": 38878, "pitch": 54, "duration": 721, "velocity": 98}, {"time": 39119, "pitch": 50, "duration": 719, "velocity": 100}, {"time": 39361, "pitch": 57, "duration": 718, "velocity": 106}, {"time": 39599, "pitch": 54, "duration": 722, "velocity": 98}, {"time": 39838, "pitch": 62, "duration": 721, "velocity": 109}, {"time": 40079, "pitch": 57, "duration": 719, "velocity": 104}, {"time": 40321, "pitch": 66, "duration": 477, "velocity": 114}, {"time": 40559, "pitch": 62, "duration": 239, "velocity": 103}, {"time": 40798, "pitch": 52, "duration": 721, "velocity": 98}, {"time": 41039, "pitch": 47, "duration": 719, "velocity": 100}, {"time": 41281, "pitch": 55, "duration": 718, "velocity": 106}, {"time": 41519, "pitch": 50, "duration": 722, "velocity": 98}, {"time": 41758, "pitch": 59, "duration": 721, "velocity": 109}, {"time": 41999, "pitch": 55, "duration": 719, "velocity": 104}, {"time": 42241, "pitch": 64, "duration": 477, "velocity": 114}, {"time": 42479, "pitch": 59, "duration": 239, "velocity": 103}, {"time": 42718, "pitch": 40, "duration": 721, "velocity": 98}, {"time": 42959, "pitch": 48, "duration": 719, "velocity": 100}, {"time": 43201, "pitch": 52, "duration": 477, "velocity": 106}, {"time": 43439, "pitch": 55, "duration": 239, "velocity": 98}, {"time": 43678, "pitch": 53, "duration": 483, "velocity": 109}, {"time": 43919, "pitch": 56, "duration": 242, "velocity": 104}, {"time": 44161, "pitch": 66, "duration": 477, "velocity": 114}, {"time": 44400, "pitch": 62, "duration": 238, "velocity": 103}, {"time": 44638, "pitch": 55, "duration": 722, "velocity": 98}, {"time": 44880, "pitch": 50, "duration": 718, "velocity": 100}, {"time": 45121, "pitch": 59, "duration": 719, "velocity": 106}, {"time": 45360, "pitch": 55, "duration": 721, "velocity": 98}, {"time": 45598, "pitch": 62, "duration": 722, "velocity": 109}, {"time": 45840, "pitch": 59, "duration": 718, "velocity": 104}, {"time": 46081, "pitch": 67, "duration": 477, "velocity": 114}, {"time": 46320, "pitch": 62, "duration": 238, "velocity": 103}, {"time": 46558, "pitch": 54, "duration": 722, "velocity": 98}, {"time": 46800, "pitch": 50, "duration": 718, "velocity": 100}, {"time": 47041, "pitch": 57, "duration": 719, "velocity": 106}, {"time": 47280, "pitch": 54, "duration": 721, "velocity": 98}, {"time": 47518, "pitch": 62, "duration": 722, "velocity": 109}, {"time": 47760, "pitch": 57, "duration": 718, "velocity": 104}, {"time": 48001, "pitch": 66, "duration": 477, "velocity": 114}, {"time": 48240, "pitch": 62, "duration": 238, "velocity": 103}, {"time": 48478, "pitch": 52, "duration": 722, "velocity": 98}, {"time": 48720, "pitch": 47, "duration": 719, "velocity": 100}, {"time": 48961, "pitch": 55, "duration": 719, "velocity": 106}, {"time": 49200, "pitch": 50, "duration": 721, "velocity": 98}, {"time": 49439, "pitch": 59, "duration": 721, "velocity": 109}, {"time": 49680, "pitch": 55, "duration": 719, "velocity": 104}, {"time": 49921, "pitch": 64, "duration": 478, "velocity": 114}, {"time": 50160, "pitch": 59, "duration": 239, "velocity": 103}, {"time": 50399, "pitch": 40, "duration": 721, "velocity": 98}, {"time": 50640, "pitch": 48, "duration": 719, "velocity": 100}, {"time": 50881, "pitch": 52, "duration": 478, "velocity": 106}, {"time": 51120, "pitch": 55, "duration": 239, "velocity": 98}, {"time": 51359, "pitch": 54, "duration": 483, "velocity": 109}, {"time": 51600, "pitch": 57, "duration": 242, "velocity": 104}, {"time": 51842, "pitch": 66, "duration": 477, "velocity": 114}, {"time": 52080, "pitch": 63, "duration": 239, "velocity": 103}, {"time": 79201, "pitch": 55, "duration": 719, "velocity": 98}, {"time": 79440, "pitch": 50, "duration": 721, "velocity": 100}, {"time": 79678, "pitch": 59, "duration": 722, "velocity": 106}, {"time": 79920, "pitch": 55, "duration": 718, "velocity": 98}, {"time": 80161, "pitch": 62, "duration": 719, "velocity": 109}, {"time": 80400, "pitch": 59, "duration": 721, "velocity": 104}, {"time": 80638, "pitch": 67, "duration": 483, "velocity": 114}, {"time": 80880, "pitch": 62, "duration": 241, "velocity": 103}, {"time": 81121, "pitch": 54, "duration": 719, "velocity": 98}, {"time": 81360, "pitch": 50, "duration": 721, "velocity": 100}, {"time": 81598, "pitch": 57, "duration": 722, "velocity": 106}, {"time": 81840, "pitch": 54, "duration": 718, "velocity": 98}, {"time": 82081, "pitch": 62, "duration": 719, "velocity": 109}, {"time": 82320, "pitch": 57, "duration": 721, "velocity": 104}, {"time": 82558, "pitch": 66, "duration": 483, "velocity": 114}, {"time": 82800, "pitch": 62, "duration": 241, "velocity": 103}, {"time": 83041, "pitch": 52, "duration": 719, "velocity": 98}, {"time": 83280, "pitch": 47, "duration": 721, "velocity": 100}, {"time": 83519, "pitch": 55, "duration": 721, "velocity": 106}, {"time": 83760, "pitch": 50, "duration": 719, "velocity": 98}, {"time": 84001, "pitch": 59, "duration": 719, "velocity": 109}, {"time": 84240, "pitch": 55, "duration": 721, "velocity": 104}, {"time": 84479, "pitch": 64, "duration": 482, "velocity": 114}, {"time": 84720, "pitch": 59, "duration": 241, "velocity": 103}, {"time": 84961, "pitch": 40, "duration": 719, "velocity": 98}, {"time": 85200, "pitch": 48, "duration": 722, "velocity": 100}, {"time": 85439, "pitch": 52, "duration": 483, "velocity": 106}, {"time": 85680, "pitch": 55, "duration": 242, "velocity": 98}, {"time": 85922, "pitch": 53, "duration": 477, "velocity": 109}, {"time": 86160, "pitch": 56, "duration": 239, "velocity": 104}, {"time": 86399, "pitch": 66, "duration": 483, "velocity": 114}, {"time": 86640, "pitch": 62, "duration": 242, "velocity": 103}, {"time": 86882, "pitch": 55, "duration": 718, "velocity": 98}, {"time": 87120, "pitch": 50, "duration": 722, "velocity": 100}, {"time": 87359, "pitch": 59, "duration": 721, "velocity": 106}, {"time": 87600, "pitch": 55, "duration": 719, "velocity": 98}, {"time": 87842, "pitch": 62, "duration": 718, "velocity": 109}, {"time": 88080, "pitch": 59, "duration": 722, "velocity": 104}, {"time": 88319, "pitch": 67, "duration": 483, "velocity": 114}, {"time": 88560, "pitch": 62, "duration": 242, "velocity": 103}, {"time": 88802, "pitch": 54, "duration": 718, "velocity": 98}, {"time": 89040, "pitch": 50, "duration": 722, "velocity": 100}, {"time": 89279, "pitch": 57, "duration": 721, "velocity": 106}, {"time": 89520, "pitch": 54, "duration": 719, "velocity": 98}, {"time": 89762, "pitch": 62, "duration": 719, "velocity": 109}, {"time": 90000, "pitch": 57, "duration": 722, "velocity": 104}, {"time": 90239, "pitch": 66, "duration": 483, "velocity": 114}, {"time": 90481, "pitch": 62, "duration": 241, "velocity": 103}, {"time": 90722, "pitch": 52, "duration": 719, "velocity": 98}, {"time": 90961, "pitch": 47, "duration": 721, "velocity": 100}, {"time": 91199, "pitch": 55, "duration": 722, "velocity": 106}, {"time": 91441, "pitch": 50, "duration": 718, "velocity": 98}, {"time": 91682, "pitch": 59, "duration": 719, "velocity": 109}, {"time": 91921, "pitch": 55, "duration": 721, "velocity": 104}, {"time": 92159, "pitch": 64, "duration": 483, "velocity": 114}, {"time": 92401, "pitch": 59, "duration": 241, "velocity": 103}, {"time": 92642, "pitch": 40, "duration": 719, "velocity": 98}, {"time": 92881, "pitch": 48, "duration": 721, "velocity": 100}, {"time": 93119, "pitch": 52, "duration": 483, "velocity": 106}, {"time": 93361, "pitch": 55, "duration": 241, "velocity": 98}, {"time": 93602, "pitch": 54, "duration": 477, "velocity": 109}, {"time": 93841, "pitch": 57, "duration": 238, "velocity": 104}, {"time": 94079, "pitch": 66, "duration": 483, "velocity": 114}, {"time": 94321, "pitch": 63, "duration": 241, "velocity": 103}, {"time": 102237, "pitch": 51, "duration": 242, "velocity": 98}, {"time": 102479, "pitch": 55, "duration": 241, "velocity": 89}, {"time": 102720, "pitch": 58, "duration": 239, "velocity": 101}, {"time": 102959, "pitch": 55, "duration": 238, "velocity": 97}, {"time": 103197, "pitch": 63, "duration": 242, "velocity": 104}, {"time": 103439, "pitch": 58, "duration": 241, "velocity": 100}, {"time": 103680, "pitch": 67, "duration": 239, "velocity": 105}, {"time": 103919, "pitch": 63, "duration": 238, "velocity": 98}, {"time": 104157, "pitch": 50, "duration": 242, "velocity": 98}, {"time": 104399, "pitch": 53, "duration": 241, "velocity": 89}, {"time": 104640, "pitch": 57, "duration": 239, "velocity": 101}, {"time": 104879, "pitch": 53, "duration": 238, "velocity": 97}, {"time": 105117, "pitch": 43, "duration": 242, "velocity": 104}, {"time": 105359, "pitch": 46, "duration": 241, "velocity": 100}, {"time": 105600, "pitch": 50, "duration": 239, "velocity": 105}, {"time": 105839, "pitch": 55, "duration": 239, "velocity": 98}, {"time": 106078, "pitch": 48, "duration": 452, "velocity": 106}, {"time": 106560, "pitch": 50, "duration": 448, "velocity": 103}, {"time": 107038, "pitch": 51, "duration": 920, "velocity": 115}, {"time": 107998, "pitch": 48, "duration": 452, "velocity": 115}, {"time": 107998, "pitch": 51, "duration": 452, "velocity": 115}, {"time": 108481, "pitch": 50, "duration": 447, "velocity": 115}, {"time": 108481, "pitch": 53, "duration": 447, "velocity": 115}, {"time": 108958, "pitch": 51, "duration": 452, "velocity": 115}, {"time": 108958, "pitch": 55, "duration": 452, "velocity": 115}, {"time": 109679, "pitch": 62, "duration": 2139, "velocity": 115}, {"time": 111838, "pitch": 74, "duration": 1900, "velocity": 115}, {"time": 113758, "pitch": 55, "duration": 722, "velocity": 98}, {"time": 114000, "pitch": 50, "duration": 718, "velocity": 100}, {"time": 114241, "pitch": 59, "duration": 719, "velocity": 106}, {"time": 114480, "pitch": 55, "duration": 721, "velocity": 98}, {"time": 114718, "pitch": 62, "duration": 722, "velocity": 109}, {"time": 114960, "pitch": 59, "duration": 718, "velocity": 104}, {"time": 115201, "pitch": 67, "duration": 477, "velocity": 114}, {"time": 115440, "pitch": 62, "duration": 238, "velocity": 103}, {"time": 115678, "pitch": 54, "duration": 722, "velocity": 98}, {"time": 115920, "pitch": 50, "duration": 718, "velocity": 100}, {"time": 116161, "pitch": 57, "duration": 719, "velocity": 106}, {"time": 116400, "pitch": 54, "duration": 721, "velocity": 98}, {"time": 116638, "pitch": 62, "duration": 722, "velocity": 109}, {"time": 116880, "pitch": 57, "duration": 719, "velocity": 104}, {"time": 117121, "pitch": 66, "duration": 478, "velocity": 114}, {"time": 117360, "pitch": 62, "duration": 239, "velocity": 103}, {"time": 117599, "pitch": 52, "duration": 721, "velocity": 98}, {"time": 117840, "pitch": 47, "duration": 719, "velocity": 100}, {"time": 118081, "pitch": 55, "duration": 719, "velocity": 106}, {"time": 118320, "pitch": 50, "duration": 721, "velocity": 98}, {"time": 118559, "pitch": 59, "duration": 721, "velocity": 109}, {"time": 118800, "pitch": 55, "duration": 719, "velocity": 104}, {"time": 119041, "pitch": 64, "duration": 478, "velocity": 114}, {"time": 119280, "pitch": 59, "duration": 239, "velocity": 103}, {"time": 119519, "pitch": 40, "duration": 721, "velocity": 98}, {"time": 119760, "pitch": 48, "duration": 719, "velocity": 100}, {"time": 120002, "pitch": 52, "duration": 477, "velocity": 106}, {"time": 120240, "pitch": 55, "duration": 239, "velocity": 98}, {"time": 120479, "pitch": 53, "duration": 483, "velocity": 109}, {"time": 120720, "pitch": 56, "duration": 242, "velocity": 104}, {"time": 120962, "pitch": 66, "duration": 477, "velocity": 114}, {"time": 121200, "pitch": 62, "duration": 239, "velocity": 103}, {"time": 121439, "pitch": 55, "duration": 721, "velocity": 98}, {"time": 121680, "pitch": 50, "duration": 719, "velocity": 100}, {"time": 121922, "pitch": 59, "duration": 718, "velocity": 106}, {"time": 122160, "pitch": 55, "duration": 722, "velocity": 98}, {"time": 122399, "pitch": 62, "duration": 721, "velocity": 109}, {"time": 122640, "pitch": 59, "duration": 719, "velocity": 104}, {"time": 122882, "pitch": 67, "duration": 477, "velocity": 114}, {"time": 123120, "pitch": 62, "duration": 239, "velocity": 103}, {"time": 123359, "pitch": 54, "duration": 721, "velocity": 98}, {"time": 123600, "pitch": 50, "duration": 719, "velocity": 100}, {"time": 123842, "pitch": 57, "duration": 719, "velocity": 106}, {"time": 124080, "pitch": 54, "duration": 722, "velocity": 98}, {"time": 124319, "pitch": 62, "duration": 722, "velocity": 109}, {"time": 124561, "pitch": 57, "duration": 718, "velocity": 104}, {"time": 124802, "pitch": 66, "duration": 477, "velocity": 114}, {"time": 125041, "pitch": 62, "duration": 238, "velocity": 103}, {"time": 125279, "pitch": 52, "duration": 722, "velocity": 98}, {"time": 125521, "pitch": 47, "duration": 718, "velocity": 100}, {"time": 125762, "pitch": 55, "duration": 719, "velocity": 106}, {"time": 126001, "pitch": 50, "duration": 721, "velocity": 98}, {"time": 126239, "pitch": 59, "duration": 722, "velocity": 109}, {"time": 126481, "pitch": 55, "duration": 718, "velocity": 104}, {"time": 126722, "pitch": 64, "duration": 477, "velocity": 114}, {"time": 126961, "pitch": 59, "duration": 238, "velocity": 103}, {"time": 127199, "pitch": 40, "duration": 722, "velocity": 98}, {"time": 127441, "pitch": 48, "duration": 718, "velocity": 100}, {"time": 127682, "pitch": 52, "duration": 477, "velocity": 106}, {"time": 127921, "pitch": 55, "duration": 238, "velocity": 98}, {"time": 128159, "pitch": 54, "duration": 483, "velocity": 109}, {"time": 128401, "pitch": 57, "duration": 241, "velocity": 104}, {"time": 128642, "pitch": 66, "duration": 477, "velocity": 114}, {"time": 128881, "pitch": 62, "duration": 238, "velocity": 103}, {"time": 129119, "pitch": 55, "duration": 722, "velocity": 98}, {"time": 129361, "pitch": 50, "duration": 719, "velocity": 100}, {"time": 129602, "pitch": 59, "duration": 719, "velocity": 106}, {"time": 129841, "pitch": 55, "duration": 721, "velocity": 98}, {"time": 130080, "pitch": 62, "duration": 721, "velocity": 109}, {"time": 130321, "pitch": 59, "duration": 719, "velocity": 104}, {"time": 130562, "pitch": 67, "duration": 478, "velocity": 114}, {"time": 130801, "pitch": 62, "duration": 239, "velocity": 103}, {"time": 131040, "pitch": 54, "duration": 721, "velocity": 98}, {"time": 131281, "pitch": 50, "duration": 719, "velocity": 100}, {"time": 131522, "pitch": 57, "duration": 719, "velocity": 106}, {"time": 131761, "pitch": 54, "duration": 722, "velocity": 98}, {"time": 132000, "pitch": 62, "duration": 721, "velocity": 109}, {"time": 132241, "pitch": 57, "duration": 719, "velocity": 104}, {"time": 132483, "pitch": 66, "duration": 477, "velocity": 114}, {"time": 132721, "pitch": 62, "duration": 239, "velocity": 103}, {"time": 132960, "pitch": 52, "duration": 721, "velocity": 98}, {"time": 133201, "pitch": 47, "duration": 719, "velocity": 100}, {"time": 133443, "pitch": 55, "duration": 718, "velocity": 106}, {"time": 133681, "pitch": 50, "duration": 722, "velocity": 98}, {"time": 133920, "pitch": 59, "duration": 721, "velocity": 109}, {"time": 134161, "pitch": 55, "duration": 719, "velocity": 104}, {"time": 134403, "pitch": 64, "duration": 477, "velocity": 114}, {"time": 134641, "pitch": 59, "duration": 239, "velocity": 103}, {"time": 134880, "pitch": 40, "duration": 721, "velocity": 98}, {"time": 135121, "pitch": 48, "duration": 719, "velocity": 100}, {"time": 135363, "pitch": 52, "duration": 477, "velocity": 106}, {"time": 135601, "pitch": 55, "duration": 239, "velocity": 98}, {"time": 135840, "pitch": 53, "duration": 477, "velocity": 109}, {"time": 136079, "pitch": 56, "duration": 238, "velocity": 104}, {"time": 136317, "pitch": 66, "duration": 483, "velocity": 114}, {"time": 136559, "pitch": 62, "duration": 241, "velocity": 103}, {"time": 136800, "pitch": 55, "duration": 719, "velocity": 98}, {"time": 137039, "pitch": 50, "duration": 721, "velocity": 100}, {"time": 137277, "pitch": 59, "duration": 722, "velocity": 106}, {"time": 137519, "pitch": 55, "duration": 718, "velocity": 98}, {"time": 137760, "pitch": 62, "duration": 719, "velocity": 109}, {"time": 137999, "pitch": 59, "duration": 721, "velocity": 104}, {"time": 138237, "pitch": 67, "duration": 483, "velocity": 114}, {"time": 138479, "pitch": 62, "duration": 241, "velocity": 103}, {"time": 138720, "pitch": 54, "duration": 719, "velocity": 98}, {"time": 138959, "pitch": 50, "duration": 721, "velocity": 100}, {"time": 139197, "pitch": 57, "duration": 722, "velocity": 106}, {"time": 139439, "pitch": 54, "duration": 719, "velocity": 98}, {"time": 139680, "pitch": 62, "duration": 719, "velocity": 109}, {"time": 139919, "pitch": 57, "duration": 721, "velocity": 104}, {"time": 140158, "pitch": 66, "duration": 482, "velocity": 114}, {"time": 140399, "pitch": 62, "duration": 241, "velocity": 103}, {"time": 140640, "pitch": 52, "duration": 719, "velocity": 98}, {"time": 140879, "pitch": 47, "duration": 721, "velocity": 100}, {"time": 141118, "pitch": 55, "duration": 721, "velocity": 106}, {"time": 141359, "pitch": 50, "duration": 719, "velocity": 98}, {"time": 141600, "pitch": 59, "duration": 719, "velocity": 109}, {"time": 141839, "pitch": 55, "duration": 722, "velocity": 104}, {"time": 142078, "pitch": 64, "duration": 483, "velocity": 114}, {"time": 142319, "pitch": 59, "duration": 242, "velocity": 103}, {"time": 142561, "pitch": 40, "duration": 718, "velocity": 98}, {"time": 142799, "pitch": 48, "duration": 722, "velocity": 100}, {"time": 143038, "pitch": 52, "duration": 483, "velocity": 106}, {"time": 143279, "pitch": 55, "duration": 242, "velocity": 98}, {"time": 143521, "pitch": 54, "duration": 477, "velocity": 109}, {"time": 143759, "pitch": 57, "duration": 239, "velocity": 104}, {"time": 143998, "pitch": 66, "duration": 493, "velocity": 114}, {"time": 144239, "pitch": 63, "duration": 252, "velocity": 103}, {"time": 144481, "pitch": 64, "duration": 3840, "velocity": 100}, {"time": 36958, "pitch": 43, "duration": 1900, "velocity": 104}, {"time": 36958, "pitch": 50, "duration": 1900, "velocity": 84}, {"time": 36968, "pitch": 55, "duration": 1900, "velocity": 81}, {"time": 38878, "pitch": 50, "duration": 1900, "velocity": 104}, {"time": 38878, "pitch": 57, "duration": 1900, "velocity": 84}, {"time": 38888, "pitch": 62, "duration": 1900, "velocity": 81}, {"time": 40798, "pitch": 40, "duration": 1900, "velocity": 104}, {"time": 40798, "pitch": 47, "duration": 1900, "velocity": 84}, {"time": 40808, "pitch": 52, "duration": 1900, "velocity": 81}, {"time": 42718, "pitch": 48, "duration": 920, "velocity": 104}, {"time": 42718, "pitch": 55, "duration": 920, "velocity": 84}, {"time": 42728, "pitch": 60, "duration": 920, "velocity": 81}, {"time": 43678, "pitch": 41, "duration": 453, "velocity": 104}, {"time": 43678, "pitch": 48, "duration": 453, "velocity": 84}, {"time": 43688, "pitch": 53, "duration": 453, "velocity": 81}, {"time": 44161, "pitch": 50, "duration": 447, "velocity": 104}, {"time": 44161, "pitch": 57, "duration": 447, "velocity": 84}, {"time": 44171, "pitch": 62, "duration": 447, "velocity": 81}, {"time": 44638, "pitch": 43, "duration": 1900, "velocity": 104}, {"time": 44638, "pitch": 50, "duration": 1900, "velocity": 84}, {"time": 44648, "pitch": 55, "duration": 1900, "velocity": 81}, {"time": 46558, "pitch": 50, "duration": 1901, "velocity": 104}, {"time": 46558, "pitch": 57, "duration": 1901, "velocity": 84}, {"time": 46568, "pitch": 62, "duration": 1901, "velocity": 81}, {"time": 48478, "pitch": 40, "duration": 1901, "velocity": 104}, {"time": 48478, "pitch": 47, "duration": 1901, "velocity": 84}, {"time": 48489, "pitch": 52, "duration": 1900, "velocity": 81}, {"time": 50399, "pitch": 48, "duration": 920, "velocity": 104}, {"time": 50399, "pitch": 55, "duration": 920, "velocity": 84}, {"time": 50409, "pitch": 60, "duration": 920, "velocity": 81}, {"time": 51359, "pitch": 50, "duration": 483, "velocity": 104}, {"time": 51359, "pitch": 57, "duration": 483, "velocity": 84}, {"time": 51369, "pitch": 62, "duration": 483, "velocity": 81}, {"time": 51842, "pitch": 51, "duration": 477, "velocity": 104}, {"time": 51842, "pitch": 57, "duration": 477, "velocity": 84}, {"time": 51852, "pitch": 63, "duration": 467, "velocity": 81}, {"time": 52319, "pitch": 40, "duration": 980, "velocity": 116}, {"time": 52802, "pitch": 52, "duration": 477, "velocity": 97}, {"time": 52812, "pitch": 55, "duration": 477, "velocity": 103}, {"time": 52822, "pitch": 59, "duration": 457, "velocity": 108}, {"time": 52831, "pitch": 64, "duration": 478, "velocity": 112}, {"time": 53279, "pitch": 50, "duration": 241, "velocity": 119}, {"time": 53520, "pitch": 45, "duration": 242, "velocity": 112}, {"time": 53762, "pitch": 43, "duration": 159, "velocity": 118}, {"time": 53921, "pitch": 42, "duration": 318, "velocity": 114}, {"time": 54239, "pitch": 40, "duration": 980, "velocity": 116}, {"time": 54480, "pitch": 47, "duration": 719, "velocity": 96}, {"time": 54722, "pitch": 52, "duration": 477, "velocity": 97}, {"time": 54732, "pitch": 55, "duration": 477, "velocity": 103}, {"time": 54742, "pitch": 59, "duration": 457, "velocity": 108}, {"time": 54752, "pitch": 64, "duration": 477, "velocity": 112}, {"time": 55199, "pitch": 50, "duration": 241, "velocity": 119}, {"time": 55440, "pitch": 45, "duration": 242, "velocity": 112}, {"time": 55682, "pitch": 43, "duration": 159, "velocity": 118}, {"time": 55841, "pitch": 42, "duration": 318, "velocity": 114}, {"time": 56159, "pitch": 40, "duration": 980, "velocity": 114}, {"time": 56642, "pitch": 52, "duration": 477, "velocity": 95}, {"time": 56652, "pitch": 55, "duration": 477, "velocity": 101}, {"time": 56662, "pitch": 59, "duration": 457, "velocity": 106}, {"time": 56672, "pitch": 64, "duration": 477, "velocity": 110}, {"time": 57280, "pitch": 52, "duration": 779, "velocity": 90}, {"time": 57280, "pitch": 55, "duration": 779, "velocity": 96}, {"time": 57280, "pitch": 62, "duration": 779, "velocity": 101}, {"time": 57290, "pitch": 64, "duration": 779, "velocity": 105}, {"time": 58079, "pitch": 40, "duration": 980, "velocity": 114}, {"time": 58562, "pitch": 52, "duration": 477, "velocity": 95}, {"time": 58572, "pitch": 55, "duration": 477, "velocity": 101}, {"time": 58582, "pitch": 59, "duration": 457, "velocity": 106}, {"time": 58592, "pitch": 64, "duration": 478, "velocity": 110}, {"time": 59200, "pitch": 52, "duration": 780, "velocity": 90}, {"time": 59200, "pitch": 55, "duration": 780, "velocity": 96}, {"time": 59200, "pitch": 61, "duration": 780, "velocity": 101}, {"time": 59210, "pitch": 64, "duration": 779, "velocity": 105}, {"time": 59999, "pitch": 40, "duration": 981, "velocity": 114}, {"time": 60482, "pitch": 52, "duration": 477, "velocity": 95}, {"time": 60492, "pitch": 55, "duration": 478, "velocity": 101}, {"time": 60502, "pitch": 59, "duration": 457, "velocity": 106}, {"time": 60512, "pitch": 64, "duration": 478, "velocity": 110}, {"time": 61120, "pitch": 52, "duration": 780, "velocity": 90}, {"time": 61120, "pitch": 55, "duration": 780, "velocity": 96}, {"time": 61120, "pitch": 62, "duration": 780, "velocity": 101}, {"time": 61131, "pitch": 64, "duration": 779, "velocity": 105}, {"time": 61920, "pitch": 40, "duration": 980, "velocity": 114}, {"time": 62402, "pitch": 52, "duration": 478, "velocity": 95}, {"time": 62412, "pitch": 55, "duration": 478, "velocity": 101}, {"time": 62422, "pitch": 59, "duration": 458, "velocity": 106}, {"time": 62432, "pitch": 64, "duration": 478, "velocity": 110}, {"time": 63041, "pitch": 52, "duration": 779, "velocity": 90}, {"time": 63041, "pitch": 55, "duration": 779, "velocity": 96}, {"time": 63041, "pitch": 61, "duration": 779, "velocity": 101}, {"time": 63051, "pitch": 64, "duration": 779, "velocity": 105}, {"time": 63840, "pitch": 40, "duration": 980, "velocity": 114}, {"time": 64323, "pitch": 52, "duration": 477, "velocity": 95}, {"time": 64333, "pitch": 55, "duration": 477, "velocity": 101}, {"time": 64342, "pitch": 59, "duration": 458, "velocity": 106}, {"time": 64352, "pitch": 64, "duration": 478, "velocity": 110}, {"time": 64961, "pitch": 52, "duration": 779, "velocity": 90}, {"time": 64961, "pitch": 55, "duration": 779, "velocity": 96}, {"time": 64961, "pitch": 62, "duration": 779, "velocity": 101}, {"time": 64971, "pitch": 64, "duration": 779, "velocity": 105}, {"time": 65760, "pitch": 40, "duration": 980, "velocity": 114}, {"time": 66243, "pitch": 52, "duration": 477, "velocity": 95}, {"time": 66253, "pitch": 55, "duration": 477, "velocity": 101}, {"time": 66263, "pitch": 59, "duration": 457, "velocity": 106}, {"time": 66273, "pitch": 64, "duration": 477, "velocity": 110}, {"time": 66879, "pitch": 52, "duration": 781, "velocity": 90}, {"time": 66879, "pitch": 55, "duration": 781, "velocity": 96}, {"time": 66879, "pitch": 61, "duration": 781, "velocity": 101}, {"time": 66889, "pitch": 64, "duration": 781, "velocity": 105}, {"time": 67680, "pitch": 40, "duration": 980, "velocity": 114}, {"time": 68157, "pitch": 52, "duration": 483, "velocity": 95}, {"time": 68167, "pitch": 55, "duration": 483, "velocity": 101}, {"time": 68177, "pitch": 59, "duration": 463, "velocity": 106}, {"time": 68187, "pitch": 64, "duration": 483, "velocity": 110}, {"time": 68799, "pitch": 52, "duration": 781, "velocity": 90}, {"time": 68799, "pitch": 55, "duration": 781, "velocity": 96}, {"time": 68799, "pitch": 62, "duration": 781, "velocity": 101}, {"time": 68809, "pitch": 64, "duration": 781, "velocity": 105}, {"time": 69600, "pitch": 40, "duration": 980, "velocity": 114}, {"time": 70077, "pitch": 52, "duration": 483, "velocity": 95}, {"time": 70087, "pitch": 55, "duration": 483, "velocity": 101}, {"time": 70098, "pitch": 59, "duration": 462, "velocity": 106}, {"time": 70108, "pitch": 64, "duration": 482, "velocity": 110}, {"time": 70719, "pitch": 52, "duration": 781, "velocity": 90}, {"time": 70719, "pitch": 55, "duration": 781, "velocity": 96}, {"time": 70719, "pitch": 61, "duration": 781, "velocity": 101}, {"time": 70729, "pitch": 64, "duration": 781, "velocity": 105}, {"time": 75361, "pitch": 45, "duration": 218, "velocity": 108}, {"time": 75361, "pitch": 52, "duration": 218, "velocity": 107}, {"time": 75361, "pitch": 57, "duration": 218, "velocity": 105}, {"time": 75371, "pitch": 62, "duration": 218, "velocity": 108}, {"time": 75381, "pitch": 64, "duration": 218, "velocity": 111}, {"time": 75599, "pitch": 45, "duration": 219, "velocity": 108}, {"time": 75599, "pitch": 52, "duration": 219, "velocity": 107}, {"time": 75599, "pitch": 57, "duration": 219, "velocity": 105}, {"time": 75609, "pitch": 62, "duration": 219, "velocity": 108}, {"time": 75619, "pitch": 64, "duration": 219, "velocity": 111}, {"time": 76321, "pitch": 45, "duration": 218, "velocity": 108}, {"time": 76321, "pitch": 52, "duration": 218, "velocity": 107}, {"time": 76321, "pitch": 57, "duration": 218, "velocity": 105}, {"time": 76331, "pitch": 61, "duration": 218, "velocity": 108}, {"time": 76341, "pitch": 64, "duration": 218, "velocity": 111}, {"time": 76559, "pitch": 45, "duration": 219, "velocity": 108}, {"time": 76559, "pitch": 52, "duration": 219, "velocity": 107}, {"time": 76559, "pitch": 57, "duration": 219, "velocity": 105}, {"time": 76569, "pitch": 61, "duration": 219, "velocity": 108}, {"time": 76579, "pitch": 64, "duration": 219, "velocity": 111}, {"time": 77281, "pitch": 45, "duration": 477, "velocity": 125}, {"time": 77758, "pitch": 47, "duration": 483, "velocity": 124}, {"time": 78241, "pitch": 48, "duration": 477, "velocity": 124}, {"time": 78718, "pitch": 50, "duration": 483, "velocity": 124}, {"time": 79201, "pitch": 43, "duration": 1900, "velocity": 104}, {"time": 79201, "pitch": 50, "duration": 1900, "velocity": 84}, {"time": 79211, "pitch": 55, "duration": 1900, "velocity": 81}, {"time": 81121, "pitch": 50, "duration": 1900, "velocity": 104}, {"time": 81121, "pitch": 57, "duration": 1900, "velocity": 84}, {"time": 81131, "pitch": 62, "duration": 1900, "velocity": 81}, {"time": 83041, "pitch": 40, "duration": 1900, "velocity": 104}, {"time": 83041, "pitch": 47, "duration": 1900, "velocity": 84}, {"time": 83051, "pitch": 52, "duration": 1900, "velocity": 81}, {"time": 84961, "pitch": 48, "duration": 920, "velocity": 104}, {"time": 84961, "pitch": 55, "duration": 920, "velocity": 84}, {"time": 84971, "pitch": 60, "duration": 920, "velocity": 81}, {"time": 85922, "pitch": 41, "duration": 447, "velocity": 104}, {"time": 85922, "pitch": 48, "duration": 447, "velocity": 84}, {"time": 85931, "pitch": 53, "duration": 448, "velocity": 81}, {"time": 86399, "pitch": 50, "duration": 452, "velocity": 104}, {"time": 86399, "pitch": 57, "duration": 452, "velocity": 84}, {"time": 86409, "pitch": 62, "duration": 453, "velocity": 81}, {"time": 86882, "pitch": 43, "duration": 1900, "velocity": 104}, {"time": 86882, "pitch": 50, "duration": 1900, "velocity": 84}, {"time": 86892, "pitch": 55, "duration": 1900, "velocity": 81}, {"time": 88802, "pitch": 50, "duration": 1900, "velocity": 104}, {"time": 88802, "pitch": 57, "duration": 1900, "velocity": 84}, {"time": 88812, "pitch": 62, "duration": 1900, "velocity": 81}, {"time": 90722, "pitch": 40, "duration": 1900, "velocity": 104}, {"time": 90722, "pitch": 47, "duration": 1900, "velocity": 84}, {"time": 90732, "pitch": 52, "duration": 1900, "velocity": 81}, {"time": 92642, "pitch": 48, "duration": 920, "velocity": 104}, {"time": 92642, "pitch": 55, "duration": 920, "velocity": 84}, {"time": 92652, "pitch": 60, "duration": 920, "velocity": 81}, {"time": 93602, "pitch": 50, "duration": 477, "velocity": 104}, {"time": 93602, "pitch": 57, "duration": 477, "velocity": 84}, {"time": 93612, "pitch": 62, "duration": 467, "velocity": 81}, {"time": 94079, "pitch": 47, "duration": 473, "velocity": 101}, {"time": 94079, "pitch": 54, "duration": 473, "velocity": 82}, {"time": 94089, "pitch": 59, "duration": 473, "velocity": 78}, {"time": 94562, "pitch": 45, "duration": 1900, "velocity": 111}, {"time": 94562, "pitch": 52, "duration": 1900, "velocity": 91}, {"time": 96482, "pitch": 48, "duration": 1900, "velocity": 111}, {"time": 96482, "pitch": 55, "duration": 1900, "velocity": 91}, {"time": 98403, "pitch": 43, "duration": 447, "velocity": 121}, {"time": 98403, "pitch": 50, "duration": 447, "velocity": 111}, {"time": 99121, "pitch": 43, "duration": 1182, "velocity": 121}, {"time": 99121, "pitch": 50, "duration": 1182, "velocity": 111}, {"time": 100323, "pitch": 43, "duration": 447, "velocity": 121}, {"time": 100323, "pitch": 50, "duration": 447, "velocity": 111}, {"time": 101041, "pitch": 43, "duration": 679, "velocity": 121}, {"time": 101041, "pitch": 50, "duration": 679, "velocity": 111}, {"time": 101879, "pitch": 41, "duration": 338, "velocity": 127}, {"time": 102237, "pitch": 51, "duration": 1901, "velocity": 111}, {"time": 102237, "pitch": 58, "duration": 1901, "velocity": 100}, {"time": 104157, "pitch": 50, "duration": 921, "velocity": 111}, {"time": 104157, "pitch": 57, "duration": 921, "velocity": 100}, {"time": 105117, "pitch": 43, "duration": 921, "velocity": 111}, {"time": 105117, "pitch": 50, "duration": 921, "velocity": 100}, {"time": 106078, "pitch": 48, "duration": 452, "velocity": 120}, {"time": 106560, "pitch": 50, "duration": 448, "velocity": 117}, {"time": 107038, "pitch": 51, "duration": 920, "velocity": 127}, {"time": 107998, "pitch": 48, "duration": 452, "velocity": 127}, {"time": 107998, "pitch": 51, "duration": 452, "velocity": 127}, {"time": 108481, "pitch": 50, "duration": 447, "velocity": 127}, {"time": 108481, "pitch": 53, "duration": 447, "velocity": 127}, {"time": 108958, "pitch": 51, "duration": 452, "velocity": 127}, {"time": 108958, "pitch": 55, "duration": 452, "velocity": 127}, {"time": 109679, "pitch": 50, "duration": 2159, "velocity": 127}, {"time": 109679, "pitch": 54, "duration": 2159, "velocity": 127}, {"time": 111838, "pitch": 50, "duration": 483, "velocity": 127}, {"time": 112321, "pitch": 52, "duration": 477, "velocity": 127}, {"time": 112798, "pitch": 54, "duration": 483, "velocity": 127}, {"time": 113281, "pitch": 57, "duration": 477, "velocity": 127}, {"time": 113758, "pitch": 43, "duration": 1900, "velocity": 104}, {"time": 113758, "pitch": 50, "duration": 1900, "velocity": 84}, {"time": 113768, "pitch": 55, "duration": 1900, "velocity": 81}, {"time": 115678, "pitch": 50, "duration": 1901, "velocity": 104}, {"time": 115678, "pitch": 57, "duration": 1901, "velocity": 84}, {"time": 115688, "pitch": 62, "duration": 1901, "velocity": 81}, {"time": 117599, "pitch": 40, "duration": 1900, "velocity": 104}, {"time": 117599, "pitch": 47, "duration": 1900, "velocity": 84}, {"time": 117609, "pitch": 52, "duration": 1900, "velocity": 81}, {"time": 119519, "pitch": 48, "duration": 920, "velocity": 104}, {"time": 119519, "pitch": 55, "duration": 920, "velocity": 84}, {"time": 119529, "pitch": 60, "duration": 920, "velocity": 81}, {"time": 120479, "pitch": 41, "duration": 452, "velocity": 104}, {"time": 120479, "pitch": 48, "duration": 452, "velocity": 84}, {"time": 120489, "pitch": 53, "duration": 453, "velocity": 81}, {"time": 120962, "pitch": 50, "duration": 447, "velocity": 104}, {"time": 120962, "pitch": 57, "duration": 447, "velocity": 84}, {"time": 120972, "pitch": 62, "duration": 447, "velocity": 81}, {"time": 121439, "pitch": 43, "duration": 1900, "velocity": 104}, {"time": 121439, "pitch": 50, "duration": 1900, "velocity": 84}, {"time": 121449, "pitch": 55, "duration": 1900, "velocity": 81}, {"time": 123359, "pitch": 50, "duration": 1900, "velocity": 104}, {"time": 123359, "pitch": 57, "duration": 1900, "velocity": 84}, {"time": 123369, "pitch": 62, "duration": 1900, "velocity": 81}, {"time": 125279, "pitch": 40, "duration": 1900, "velocity": 104}, {"time": 125279, "pitch": 47, "duration": 1900, "velocity": 84}, {"time": 125289, "pitch": 52, "duration": 1900, "velocity": 81}, {"time": 127199, "pitch": 48, "duration": 921, "velocity": 104}, {"time": 127199, "pitch": 55, "duration": 921, "velocity": 84}, {"time": 127209, "pitch": 60, "duration": 921, "velocity": 81}, {"time": 128159, "pitch": 50, "duration": 921, "velocity": 104}, {"time": 128159, "pitch": 57, "duration": 921, "velocity": 84}, {"time": 128169, "pitch": 62, "duration": 921, "velocity": 81}, {"time": 129119, "pitch": 43, "duration": 1901, "velocity": 104}, {"time": 129119, "pitch": 50, "duration": 1901, "velocity": 84}, {"time": 129130, "pitch": 55, "duration": 1900, "velocity": 81}, {"time": 131040, "pitch": 50, "duration": 1900, "velocity": 104}, {"time": 131040, "pitch": 57, "duration": 1900, "velocity": 84}, {"time": 131050, "pitch": 62, "duration": 1900, "velocity": 81}, {"time": 132960, "pitch": 40, "duration": 1900, "velocity": 104}, {"time": 132960, "pitch": 47, "duration": 1900, "velocity": 84}, {"time": 132970, "pitch": 52, "duration": 1900, "velocity": 81}, {"time": 134880, "pitch": 48, "duration": 920, "velocity": 104}, {"time": 134880, "pitch": 55, "duration": 920, "velocity": 84}, {"time": 134890, "pitch": 60, "duration": 920, "velocity": 81}, {"time": 135840, "pitch": 41, "duration": 447, "velocity": 104}, {"time": 135840, "pitch": 48, "duration": 447, "velocity": 84}, {"time": 135850, "pitch": 53, "duration": 447, "velocity": 81}, {"time": 136317, "pitch": 50, "duration": 453, "velocity": 104}, {"time": 136317, "pitch": 57, "duration": 453, "velocity": 84}, {"time": 136327, "pitch": 62, "duration": 453, "velocity": 81}, {"time": 136800, "pitch": 43, "duration": 1900, "velocity": 104}, {"time": 136800, "pitch": 50, "duration": 1900, "velocity": 84}, {"time": 136810, "pitch": 55, "duration": 1900, "velocity": 81}, {"time": 138720, "pitch": 50, "duration": 1900, "velocity": 104}, {"time": 138720, "pitch": 57, "duration": 1900, "velocity": 84}, {"time": 138730, "pitch": 62, "duration": 1900, "velocity": 81}, {"time": 140640, "pitch": 40, "duration": 1900, "velocity": 104}, {"time": 140640, "pitch": 47, "duration": 1900, "velocity": 84}, {"time": 140650, "pitch": 52, "duration": 1901, "velocity": 81}, {"time": 142561, "pitch": 48, "duration": 919, "velocity": 104}, {"time": 142561, "pitch": 55, "duration": 919, "velocity": 84}, {"time": 142571, "pitch": 60, "duration": 919, "velocity": 81}, {"time": 143521, "pitch": 50, "duration": 477, "velocity": 104}, {"time": 143521, "pitch": 57, "duration": 477, "velocity": 84}, {"time": 143531, "pitch": 62, "duration": 467, "velocity": 81}, {"time": 143998, "pitch": 51, "duration": 483, "velocity": 104}, {"time": 143998, "pitch": 57, "duration": 483, "velocity": 84}, {"time": 144008, "pitch": 63, "duration": 473, "velocity": 81}, {"time": 144481, "pitch": 40, "duration": 980, "velocity": 116}, {"time": 144958, "pitch": 52, "duration": 483, "velocity": 97}, {"time": 144968, "pitch": 55, "duration": 483, "velocity": 103}, {"time": 144978, "pitch": 59, "duration": 463, "velocity": 108}, {"time": 144988, "pitch": 64, "duration": 483, "velocity": 112}, {"time": 145441, "pitch": 50, "duration": 238, "velocity": 119}, {"time": 145679, "pitch": 45, "duration": 239, "velocity": 112}, {"time": 145918, "pitch": 43, "duration": 161, "velocity": 118}, {"time": 146079, "pitch": 42, "duration": 322, "velocity": 114}, {"time": 146401, "pitch": 40, "duration": 980, "velocity": 116}, {"time": 146639, "pitch": 47, "duration": 722, "velocity": 96}, {"time": 146878, "pitch": 52, "duration": 483, "velocity": 97}, {"time": 146888, "pitch": 55, "duration": 483, "velocity": 103}, {"time": 146898, "pitch": 59, "duration": 463, "velocity": 108}, {"time": 146908, "pitch": 64, "duration": 483, "velocity": 112}, {"time": 147361, "pitch": 50, "duration": 239, "velocity": 119}, {"time": 147600, "pitch": 45, "duration": 238, "velocity": 112}, {"time": 147838, "pitch": 43, "duration": 161, "velocity": 118}, {"time": 147999, "pitch": 42, "duration": 322, "velocity": 114}, {"time": 148321, "pitch": 40, "duration": 980, "velocity": 116}, {"time": 148798, "pitch": 52, "duration": 483, "velocity": 97}, {"time": 148808, "pitch": 55, "duration": 483, "velocity": 103}, {"time": 148818, "pitch": 59, "duration": 463, "velocity": 108}, {"time": 148828, "pitch": 64, "duration": 483, "velocity": 112}, {"time": 149281, "pitch": 50, "duration": 239, "velocity": 119}, {"time": 149520, "pitch": 45, "duration": 238, "velocity": 112}, {"time": 149758, "pitch": 43, "duration": 161, "velocity": 118}, {"time": 149919, "pitch": 42, "duration": 322, "velocity": 114}, {"time": 150241, "pitch": 40, "duration": 980, "velocity": 116}, {"time": 150480, "pitch": 47, "duration": 721, "velocity": 96}, {"time": 150718, "pitch": 52, "duration": 483, "velocity": 97}, {"time": 150728, "pitch": 55, "duration": 483, "velocity": 103}, {"time": 150739, "pitch": 59, "duration": 462, "velocity": 108}, {"time": 150749, "pitch": 64, "duration": 482, "velocity": 112}, {"time": 151201, "pitch": 50, "duration": 239, "velocity": 119}, {"time": 151440, "pitch": 45, "duration": 238, "velocity": 112}, {"time": 151678, "pitch": 43, "duration": 161, "velocity": 118}, {"time": 151839, "pitch": 42, "duration": 81, "velocity": 114}, {"time": 35997, "pitch": 74, "duration": 141, "velocity": 110}, {"time": 36158, "pitch": 72, "duration": 141, "velocity": 106}, {"time": 36319, "pitch": 71, "duration": 141, "velocity": 110}, {"time": 36480, "pitch": 69, "duration": 139, "velocity": 106}, {"time": 36639, "pitch": 67, "duration": 140, "velocity": 110}, {"time": 36798, "pitch": 66, "duration": 140, "velocity": 105}, {"time": 36958, "pitch": 67, "duration": 960, "velocity": 110}, {"time": 37918, "pitch": 74, "duration": 960, "velocity": 90}, {"time": 38878, "pitch": 66, "duration": 960, "velocity": 105}, {"time": 39838, "pitch": 74, "duration": 960, "velocity": 87}, {"time": 40798, "pitch": 64, "duration": 960, "velocity": 105}, {"time": 41758, "pitch": 74, "duration": 960, "velocity": 90}, {"time": 42718, "pitch": 72, "duration": 241, "velocity": 103}, {"time": 42959, "pitch": 64, "duration": 242, "velocity": 94}, {"time": 43201, "pitch": 66, "duration": 238, "velocity": 98}, {"time": 43439, "pitch": 67, "duration": 219, "velocity": 107}, {"time": 43678, "pitch": 68, "duration": 161, "velocity": 120}, {"time": 43839, "pitch": 70, "duration": 80, "velocity": 120}, {"time": 43919, "pitch": 72, "duration": 121, "velocity": 120}, {"time": 44161, "pitch": 66, "duration": 159, "velocity": 120}, {"time": 44320, "pitch": 67, "duration": 80, "velocity": 120}, {"time": 44400, "pitch": 69, "duration": 119, "velocity": 120}, {"time": 44638, "pitch": 67, "duration": 960, "velocity": 110}, {"time": 45598, "pitch": 74, "duration": 960, "velocity": 90}, {"time": 46558, "pitch": 66, "duration": 960, "velocity": 105}, {"time": 47518, "pitch": 74, "duration": 960, "velocity": 87}, {"time": 48478, "pitch": 64, "duration": 483, "velocity": 105}, {"time": 48961, "pitch": 79, "duration": 239, "velocity": 90}, {"time": 49200, "pitch": 78, "duration": 480, "velocity": 88}, {"time": 49680, "pitch": 76, "duration": 241, "velocity": 84}, {"time": 49921, "pitch": 74, "duration": 239, "velocity": 81}, {"time": 50160, "pitch": 71, "duration": 239, "velocity": 84}, {"time": 50399, "pitch": 72, "duration": 241, "velocity": 103}, {"time": 50640, "pitch": 64, "duration": 241, "velocity": 94}, {"time": 50881, "pitch": 66, "duration": 239, "velocity": 98}, {"time": 51120, "pitch": 67, "duration": 219, "velocity": 107}, {"time": 51359, "pitch": 66, "duration": 483, "velocity": 104}, {"time": 51842, "pitch": 69, "duration": 477, "velocity": 111}, {"time": 52319, "pitch": 71, "duration": 3840, "velocity": 88}, {"time": 78241, "pitch": 74, "duration": 139, "velocity": 110}, {"time": 78400, "pitch": 72, "duration": 139, "velocity": 106}, {"time": 78559, "pitch": 71, "duration": 139, "velocity": 110}, {"time": 78718, "pitch": 69, "duration": 141, "velocity": 106}, {"time": 78879, "pitch": 67, "duration": 141, "velocity": 110}, {"time": 79040, "pitch": 66, "duration": 141, "velocity": 105}, {"time": 79201, "pitch": 67, "duration": 960, "velocity": 110}, {"time": 80161, "pitch": 74, "duration": 960, "velocity": 90}, {"time": 81121, "pitch": 66, "duration": 960, "velocity": 105}, {"time": 82081, "pitch": 74, "duration": 960, "velocity": 87}, {"time": 83041, "pitch": 64, "duration": 960, "velocity": 105}, {"time": 84001, "pitch": 74, "duration": 960, "velocity": 90}, {"time": 84961, "pitch": 72, "duration": 239, "velocity": 103}, {"time": 85200, "pitch": 64, "duration": 239, "velocity": 94}, {"time": 85439, "pitch": 66, "duration": 241, "velocity": 98}, {"time": 85680, "pitch": 67, "duration": 221, "velocity": 107}, {"time": 85922, "pitch": 68, "duration": 159, "velocity": 120}, {"time": 86081, "pitch": 70, "duration": 79, "velocity": 120}, {"time": 86160, "pitch": 72, "duration": 119, "velocity": 120}, {"time": 86399, "pitch": 66, "duration": 161, "velocity": 120}, {"time": 86560, "pitch": 67, "duration": 80, "velocity": 120}, {"time": 86640, "pitch": 69, "duration": 121, "velocity": 120}, {"time": 86882, "pitch": 67, "duration": 960, "velocity": 110}, {"time": 87842, "pitch": 74, "duration": 960, "velocity": 90}, {"time": 88802, "pitch": 66, "duration": 960, "velocity": 105}, {"time": 89762, "pitch": 74, "duration": 960, "velocity": 87}, {"time": 90722, "pitch": 64, "duration": 477, "velocity": 105}, {"time": 91199, "pitch": 79, "duration": 242, "velocity": 90}, {"time": 91441, "pitch": 78, "duration": 480, "velocity": 88}, {"time": 91921, "pitch": 76, "duration": 238, "velocity": 84}, {"time": 92159, "pitch": 74, "duration": 242, "velocity": 81}, {"time": 92401, "pitch": 71, "duration": 241, "velocity": 84}, {"time": 92642, "pitch": 72, "duration": 239, "velocity": 103}, {"time": 92881, "pitch": 64, "duration": 238, "velocity": 94}, {"time": 93119, "pitch": 66, "duration": 242, "velocity": 98}, {"time": 93361, "pitch": 67, "duration": 221, "velocity": 107}, {"time": 93602, "pitch": 66, "duration": 477, "velocity": 104}, {"time": 94079, "pitch": 71, "duration": 483, "velocity": 111}, {"time": 94562, "pitch": 72, "duration": 1920, "velocity": 111}, {"time": 96482, "pitch": 72, "duration": 960, "velocity": 111}, {"time": 97442, "pitch": 74, "duration": 478, "velocity": 115}, {"time": 97920, "pitch": 72, "duration": 483, "velocity": 104}, {"time": 98403, "pitch": 71, "duration": 447, "velocity": 106}, {"time": 98880, "pitch": 71, "duration": 50, "velocity": 60}, {"time": 99121, "pitch": 71, "duration": 1182, "velocity": 116}, {"time": 100323, "pitch": 71, "duration": 447, "velocity": 106}, {"time": 100800, "pitch": 71, "duration": 50, "velocity": 60}, {"time": 101041, "pitch": 71, "duration": 818, "velocity": 116}, {"time": 101879, "pitch": 69, "duration": 338, "velocity": 112}, {"time": 102237, "pitch": 70, "duration": 483, "velocity": 99}, {"time": 102720, "pitch": 67, "duration": 477, "velocity": 91}, {"time": 103197, "pitch": 70, "duration": 483, "velocity": 95}, {"time": 103680, "pitch": 74, "duration": 477, "velocity": 99}, {"time": 104157, "pitch": 72, "duration": 242, "velocity": 97}, {"time": 104399, "pitch": 69, "duration": 241, "velocity": 92}, {"time": 104640, "pitch": 70, "duration": 239, "velocity": 95}, {"time": 104879, "pitch": 72, "duration": 238, "velocity": 97}, {"time": 105117, "pitch": 74, "duration": 242, "velocity": 102}, {"time": 105359, "pitch": 72, "duration": 241, "velocity": 95}, {"time": 105600, "pitch": 70, "duration": 239, "velocity": 99}, {"time": 105839, "pitch": 69, "duration": 239, "velocity": 95}, {"time": 106078, "pitch": 67, "duration": 452, "velocity": 98}, {"time": 106560, "pitch": 69, "duration": 448, "velocity": 101}, {"time": 107038, "pitch": 70, "duration": 920, "velocity": 104}, {"time": 107998, "pitch": 70, "duration": 452, "velocity": 98}, {"time": 108481, "pitch": 72, "duration": 447, "velocity": 100}, {"time": 108958, "pitch": 74, "duration": 452, "velocity": 104}, {"time": 109679, "pitch": 74, "duration": 3119, "velocity": 101}, {"time": 112798, "pitch": 74, "duration": 141, "velocity": 110}, {"time": 112959, "pitch": 72, "duration": 141, "velocity": 106}, {"time": 113120, "pitch": 71, "duration": 141, "velocity": 110}, {"time": 113281, "pitch": 69, "duration": 139, "velocity": 106}, {"time": 113440, "pitch": 67, "duration": 139, "velocity": 110}, {"time": 113599, "pitch": 66, "duration": 139, "velocity": 105}, {"time": 113758, "pitch": 67, "duration": 960, "velocity": 110}, {"time": 114718, "pitch": 74, "duration": 960, "velocity": 90}, {"time": 115678, "pitch": 66, "duration": 960, "velocity": 105}, {"time": 116638, "pitch": 74, "duration": 961, "velocity": 87}, {"time": 117599, "pitch": 64, "duration": 960, "velocity": 105}, {"time": 118559, "pitch": 74, "duration": 960, "velocity": 90}, {"time": 119519, "pitch": 72, "duration": 241, "velocity": 103}, {"time": 119760, "pitch": 64, "duration": 242, "velocity": 94}, {"time": 120002, "pitch": 66, "duration": 238, "velocity": 98}, {"time": 120240, "pitch": 67, "duration": 219, "velocity": 107}, {"time": 120479, "pitch": 68, "duration": 161, "velocity": 120}, {"time": 120640, "pitch": 70, "duration": 80, "velocity": 120}, {"time": 120720, "pitch": 72, "duration": 121, "velocity": 120}, {"time": 120962, "pitch": 66, "duration": 159, "velocity": 120}, {"time": 121121, "pitch": 67, "duration": 79, "velocity": 120}, {"time": 121200, "pitch": 69, "duration": 120, "velocity": 120}, {"time": 121439, "pitch": 67, "duration": 960, "velocity": 110}, {"time": 122399, "pitch": 74, "duration": 960, "velocity": 90}, {"time": 123359, "pitch": 66, "duration": 960, "velocity": 105}, {"time": 124319, "pitch": 74, "duration": 960, "velocity": 87}, {"time": 125279, "pitch": 64, "duration": 483, "velocity": 105}, {"time": 125762, "pitch": 79, "duration": 239, "velocity": 90}, {"time": 126001, "pitch": 78, "duration": 480, "velocity": 88}, {"time": 126481, "pitch": 76, "duration": 241, "velocity": 84}, {"time": 126722, "pitch": 74, "duration": 239, "velocity": 81}, {"time": 126961, "pitch": 71, "duration": 238, "velocity": 84}, {"time": 127199, "pitch": 72, "duration": 242, "velocity": 103}, {"time": 127441, "pitch": 64, "duration": 241, "velocity": 94}, {"time": 127682, "pitch": 66, "duration": 239, "velocity": 98}, {"time": 127921, "pitch": 67, "duration": 218, "velocity": 107}, {"time": 128159, "pitch": 69, "duration": 141, "velocity": 99}, {"time": 128320, "pitch": 71, "duration": 141, "velocity": 104}, {"time": 128481, "pitch": 72, "duration": 141, "velocity": 97}, {"time": 128642, "pitch": 74, "duration": 139, "velocity": 107}, {"time": 128801, "pitch": 76, "duration": 140, "velocity": 107}, {"time": 128960, "pitch": 78, "duration": 140, "velocity": 107}, {"time": 129119, "pitch": 67, "duration": 961, "velocity": 110}, {"time": 129119, "pitch": 79, "duration": 961, "velocity": 90}, {"time": 130080, "pitch": 74, "duration": 960, "velocity": 90}, {"time": 130080, "pitch": 86, "duration": 960, "velocity": 70}, {"time": 131040, "pitch": 66, "duration": 960, "velocity": 105}, {"time": 131040, "pitch": 78, "duration": 960, "velocity": 85}, {"time": 132000, "pitch": 74, "duration": 960, "velocity": 87}, {"time": 132000, "pitch": 86, "duration": 960, "velocity": 67}, {"time": 132960, "pitch": 64, "duration": 960, "velocity": 105}, {"time": 132960, "pitch": 76, "duration": 960, "velocity": 85}, {"time": 133920, "pitch": 74, "duration": 960, "velocity": 90}, {"time": 133920, "pitch": 86, "duration": 960, "velocity": 70}, {"time": 134880, "pitch": 72, "duration": 241, "velocity": 103}, {"time": 135121, "pitch": 64, "duration": 242, "velocity": 94}, {"time": 135363, "pitch": 66, "duration": 238, "velocity": 98}, {"time": 135601, "pitch": 67, "duration": 219, "velocity": 107}, {"time": 135840, "pitch": 68, "duration": 159, "velocity": 120}, {"time": 135999, "pitch": 70, "duration": 80, "velocity": 120}, {"time": 136079, "pitch": 72, "duration": 119, "velocity": 120}, {"time": 136317, "pitch": 66, "duration": 161, "velocity": 120}, {"time": 136478, "pitch": 67, "duration": 81, "velocity": 120}, {"time": 136559, "pitch": 69, "duration": 120, "velocity": 120}, {"time": 136800, "pitch": 67, "duration": 960, "velocity": 110}, {"time": 136800, "pitch": 79, "duration": 960, "velocity": 90}, {"time": 137760, "pitch": 74, "duration": 960, "velocity": 90}, {"time": 137760, "pitch": 86, "duration": 960, "velocity": 70}, {"time": 138720, "pitch": 66, "duration": 960, "velocity": 105}, {"time": 138720, "pitch": 78, "duration": 960, "velocity": 85}, {"time": 139680, "pitch": 74, "duration": 960, "velocity": 87}, {"time": 139680, "pitch": 86, "duration": 960, "velocity": 67}, {"time": 140640, "pitch": 64, "duration": 1900, "velocity": 97}, {"time": 140640, "pitch": 76, "duration": 478, "velocity": 85}, {"time": 141118, "pitch": 79, "duration": 241, "velocity": 90}, {"time": 141359, "pitch": 78, "duration": 480, "velocity": 88}, {"time": 141839, "pitch": 76, "duration": 239, "velocity": 84}, {"time": 142078, "pitch": 74, "duration": 241, "velocity": 81}, {"time": 142319, "pitch": 71, "duration": 242, "velocity": 84}, {"time": 142561, "pitch": 72, "duration": 238, "velocity": 103}, {"time": 142799, "pitch": 64, "duration": 239, "velocity": 94}, {"time": 143038, "pitch": 66, "duration": 241, "velocity": 98}, {"time": 143279, "pitch": 67, "duration": 222, "velocity": 107}, {"time": 143521, "pitch": 66, "duration": 477, "velocity": 104}, {"time": 143998, "pitch": 69, "duration": 483, "velocity": 111}, {"time": 144481, "pitch": 71, "duration": 1920, "velocity": 111}, {"time": 146401, "pitch": 88, "duration": 69, "velocity": 108}, {"time": 146560, "pitch": 83, "duration": 70, "velocity": 100}, {"time": 146719, "pitch": 81, "duration": 70, "velocity": 92}, {"time": 146878, "pitch": 86, "duration": 70, "velocity": 105}, {"time": 147039, "pitch": 78, "duration": 70, "velocity": 92}, {"time": 147200, "pitch": 79, "duration": 70, "velocity": 98}, {"time": 147361, "pitch": 84, "duration": 70, "velocity": 106}, {"time": 147520, "pitch": 78, "duration": 70, "velocity": 93}, {"time": 147679, "pitch": 79, "duration": 70, "velocity": 99}, {"time": 147838, "pitch": 83, "duration": 71, "velocity": 108}, {"time": 147999, "pitch": 78, "duration": 71, "velocity": 89}, {"time": 148160, "pitch": 79, "duration": 71, "velocity": 97}, {"time": 148321, "pitch": 78, "duration": 70, "velocity": 98}, {"time": 148480, "pitch": 79, "duration": 70, "velocity": 106}, {"time": 148639, "pitch": 78, "duration": 70, "velocity": 100}, {"time": 148798, "pitch": 76, "duration": 71, "velocity": 95}, {"time": 148959, "pitch": 74, "duration": 71, "velocity": 99}, {"time": 149120, "pitch": 71, "duration": 71, "velocity": 96}, {"time": 149281, "pitch": 69, "duration": 70, "velocity": 95}, {"time": 149440, "pitch": 74, "duration": 70, "velocity": 103}, {"time": 149599, "pitch": 71, "duration": 70, "velocity": 99}, {"time": 149758, "pitch": 69, "duration": 71, "velocity": 95}, {"time": 149919, "pitch": 67, "duration": 71, "velocity": 103}, {"time": 150080, "pitch": 66, "duration": 71, "velocity": 96}, {"time": 150241, "pitch": 67, "duration": 70, "velocity": 94}, {"time": 150400, "pitch": 69, "duration": 70, "velocity": 97}, {"time": 150559, "pitch": 71, "duration": 70, "velocity": 100}, {"time": 150718, "pitch": 74, "duration": 71, "velocity": 107}, {"time": 150879, "pitch": 73, "duration": 71, "velocity": 100}, {"time": 151040, "pitch": 69, "duration": 71, "velocity": 95}, {"time": 151201, "pitch": 73, "duration": 70, "velocity": 103}, {"time": 151360, "pitch": 71, "duration": 70, "velocity": 98}, {"time": 151519, "pitch": 67, "duration": 70, "velocity": 95}, {"time": 151678, "pitch": 71, "duration": 71, "velocity": 105}, {"time": 151839, "pitch": 69, "duration": 71, "velocity": 97}, {"time": 35997, "pitch": 62, "duration": 141, "velocity": 110}, {"time": 36158, "pitch": 60, "duration": 141, "velocity": 106}, {"time": 36319, "pitch": 59, "duration": 141, "velocity": 110}, {"time": 36480, "pitch": 57, "duration": 139, "velocity": 106}, {"time": 36639, "pitch": 55, "duration": 140, "velocity": 110}, {"time": 36798, "pitch": 54, "duration": 140, "velocity": 105}, {"time": 36958, "pitch": 55, "duration": 1900, "velocity": 110}, {"time": 38878, "pitch": 54, "duration": 1900, "velocity": 105}, {"time": 40798, "pitch": 52, "duration": 1910, "velocity": 105}, {"time": 42718, "pitch": 60, "duration": 241, "velocity": 103}, {"time": 42959, "pitch": 52, "duration": 242, "velocity": 94}, {"time": 43201, "pitch": 54, "duration": 238, "velocity": 98}, {"time": 43439, "pitch": 55, "duration": 219, "velocity": 107}, {"time": 43678, "pitch": 56, "duration": 161, "velocity": 120}, {"time": 43839, "pitch": 58, "duration": 80, "velocity": 120}, {"time": 43919, "pitch": 60, "duration": 121, "velocity": 120}, {"time": 44161, "pitch": 54, "duration": 159, "velocity": 120}, {"time": 44320, "pitch": 55, "duration": 80, "velocity": 120}, {"time": 44400, "pitch": 57, "duration": 119, "velocity": 120}, {"time": 44638, "pitch": 55, "duration": 1900, "velocity": 110}, {"time": 46558, "pitch": 54, "duration": 1901, "velocity": 105}, {"time": 48478, "pitch": 52, "duration": 1901, "velocity": 105}, {"time": 50399, "pitch": 60, "duration": 241, "velocity": 103}, {"time": 50640, "pitch": 52, "duration": 241, "velocity": 94}, {"time": 50881, "pitch": 54, "duration": 239, "velocity": 98}, {"time": 51120, "pitch": 55, "duration": 219, "velocity": 107}, {"time": 51359, "pitch": 54, "duration": 483, "velocity": 104}, {"time": 51842, "pitch": 63, "duration": 477, "velocity": 111}, {"time": 52319, "pitch": 64, "duration": 3840, "velocity": 88}, {"time": 78241, "pitch": 62, "duration": 139, "velocity": 110}, {"time": 78400, "pitch": 60, "duration": 139, "velocity": 106}, {"time": 78559, "pitch": 59, "duration": 139, "velocity": 110}, {"time": 78718, "pitch": 57, "duration": 141, "velocity": 106}, {"time": 78879, "pitch": 55, "duration": 141, "velocity": 110}, {"time": 79040, "pitch": 54, "duration": 141, "velocity": 105}, {"time": 79201, "pitch": 55, "duration": 1900, "velocity": 110}, {"time": 81121, "pitch": 54, "duration": 1900, "velocity": 105}, {"time": 83041, "pitch": 52, "duration": 1910, "velocity": 105}, {"time": 84961, "pitch": 60, "duration": 239, "velocity": 103}, {"time": 85200, "pitch": 52, "duration": 239, "velocity": 94}, {"time": 85439, "pitch": 54, "duration": 241, "velocity": 98}, {"time": 85680, "pitch": 55, "duration": 221, "velocity": 107}, {"time": 85922, "pitch": 56, "duration": 159, "velocity": 120}, {"time": 86081, "pitch": 58, "duration": 79, "velocity": 120}, {"time": 86160, "pitch": 60, "duration": 119, "velocity": 120}, {"time": 86399, "pitch": 54, "duration": 161, "velocity": 120}, {"time": 86560, "pitch": 55, "duration": 80, "velocity": 120}, {"time": 86640, "pitch": 57, "duration": 121, "velocity": 120}, {"time": 86882, "pitch": 55, "duration": 1900, "velocity": 110}, {"time": 88802, "pitch": 54, "duration": 1900, "velocity": 105}, {"time": 90722, "pitch": 52, "duration": 1900, "velocity": 105}, {"time": 92642, "pitch": 60, "duration": 239, "velocity": 103}, {"time": 92881, "pitch": 52, "duration": 238, "velocity": 94}, {"time": 93119, "pitch": 54, "duration": 242, "velocity": 98}, {"time": 93361, "pitch": 55, "duration": 221, "velocity": 107}, {"time": 93602, "pitch": 54, "duration": 477, "velocity": 104}, {"time": 94079, "pitch": 63, "duration": 483, "velocity": 111}, {"time": 94562, "pitch": 57, "duration": 1920, "velocity": 111}, {"time": 96482, "pitch": 55, "duration": 1921, "velocity": 111}, {"time": 98403, "pitch": 55, "duration": 447, "velocity": 106}, {"time": 98880, "pitch": 55, "duration": 50, "velocity": 60}, {"time": 99121, "pitch": 55, "duration": 1182, "velocity": 116}, {"time": 100323, "pitch": 62, "duration": 447, "velocity": 106}, {"time": 100800, "pitch": 62, "duration": 50, "velocity": 60}, {"time": 101041, "pitch": 62, "duration": 838, "velocity": 116}, {"time": 101879, "pitch": 60, "duration": 338, "velocity": 113}, {"time": 102237, "pitch": 67, "duration": 483, "velocity": 99}, {"time": 102720, "pitch": 63, "duration": 477, "velocity": 91}, {"time": 103197, "pitch": 67, "duration": 483, "velocity": 95}, {"time": 103680, "pitch": 70, "duration": 477, "velocity": 99}, {"time": 104157, "pitch": 69, "duration": 242, "velocity": 97}, {"time": 104399, "pitch": 65, "duration": 241, "velocity": 92}, {"time": 104640, "pitch": 67, "duration": 239, "velocity": 95}, {"time": 104879, "pitch": 69, "duration": 238, "velocity": 97}, {"time": 105117, "pitch": 70, "duration": 242, "velocity": 102}, {"time": 105359, "pitch": 69, "duration": 241, "velocity": 95}, {"time": 105600, "pitch": 67, "duration": 239, "velocity": 99}, {"time": 105839, "pitch": 65, "duration": 239, "velocity": 95}, {"time": 106078, "pitch": 63, "duration": 452, "velocity": 92}, {"time": 106560, "pitch": 65, "duration": 448, "velocity": 97}, {"time": 107038, "pitch": 67, "duration": 920, "velocity": 99}, {"time": 107998, "pitch": 67, "duration": 452, "velocity": 96}, {"time": 108481, "pitch": 69, "duration": 447, "velocity": 101}, {"time": 108958, "pitch": 70, "duration": 452, "velocity": 103}, {"time": 109679, "pitch": 69, "duration": 3119, "velocity": 103}, {"time": 112798, "pitch": 62, "duration": 141, "velocity": 110}, {"time": 112959, "pitch": 60, "duration": 141, "velocity": 106}, {"time": 113120, "pitch": 59, "duration": 141, "velocity": 110}, {"time": 113281, "pitch": 57, "duration": 139, "velocity": 106}, {"time": 113440, "pitch": 55, "duration": 139, "velocity": 110}, {"time": 113599, "pitch": 54, "duration": 139, "velocity": 105}, {"time": 113758, "pitch": 55, "duration": 1900, "velocity": 110}, {"time": 115678, "pitch": 54, "duration": 1901, "velocity": 105}, {"time": 117599, "pitch": 52, "duration": 1910, "velocity": 105}, {"time": 119519, "pitch": 60, "duration": 241, "velocity": 103}, {"time": 119760, "pitch": 52, "duration": 242, "velocity": 94}, {"time": 120002, "pitch": 54, "duration": 238, "velocity": 98}, {"time": 120240, "pitch": 55, "duration": 219, "velocity": 107}, {"time": 120479, "pitch": 56, "duration": 161, "velocity": 120}, {"time": 120640, "pitch": 58, "duration": 80, "velocity": 120}, {"time": 120720, "pitch": 60, "duration": 121, "velocity": 120}, {"time": 120962, "pitch": 54, "duration": 159, "velocity": 120}, {"time": 121121, "pitch": 55, "duration": 79, "velocity": 120}, {"time": 121200, "pitch": 57, "duration": 120, "velocity": 120}, {"time": 121439, "pitch": 55, "duration": 1900, "velocity": 110}, {"time": 123359, "pitch": 54, "duration": 1900, "velocity": 105}, {"time": 125279, "pitch": 52, "duration": 1900, "velocity": 105}, {"time": 127199, "pitch": 60, "duration": 242, "velocity": 103}, {"time": 127441, "pitch": 52, "duration": 241, "velocity": 94}, {"time": 127682, "pitch": 54, "duration": 239, "velocity": 98}, {"time": 127921, "pitch": 55, "duration": 218, "velocity": 107}, {"time": 128159, "pitch": 62, "duration": 141, "velocity": 99}, {"time": 128320, "pitch": 64, "duration": 141, "velocity": 104}, {"time": 128481, "pitch": 66, "duration": 141, "velocity": 97}, {"time": 128642, "pitch": 66, "duration": 139, "velocity": 107}, {"time": 128801, "pitch": 67, "duration": 140, "velocity": 107}, {"time": 128960, "pitch": 69, "duration": 140, "velocity": 107}, {"time": 129119, "pitch": 71, "duration": 1901, "velocity": 110}, {"time": 131040, "pitch": 69, "duration": 1900, "velocity": 105}, {"time": 132960, "pitch": 71, "duration": 1910, "velocity": 105}, {"time": 134880, "pitch": 60, "duration": 241, "velocity": 103}, {"time": 135121, "pitch": 52, "duration": 242, "velocity": 94}, {"time": 135363, "pitch": 54, "duration": 238, "velocity": 98}, {"time": 135601, "pitch": 55, "duration": 219, "velocity": 107}, {"time": 135840, "pitch": 56, "duration": 159, "velocity": 120}, {"time": 135999, "pitch": 58, "duration": 80, "velocity": 120}, {"time": 136079, "pitch": 60, "duration": 119, "velocity": 120}, {"time": 136317, "pitch": 54, "duration": 161, "velocity": 120}, {"time": 136478, "pitch": 55, "duration": 81, "velocity": 120}, {"time": 136559, "pitch": 57, "duration": 120, "velocity": 120}, {"time": 136800, "pitch": 71, "duration": 1900, "velocity": 110}, {"time": 138720, "pitch": 69, "duration": 1900, "velocity": 105}, {"time": 140640, "pitch": 71, "duration": 1900, "velocity": 105}, {"time": 142561, "pitch": 60, "duration": 238, "velocity": 103}, {"time": 142799, "pitch": 52, "duration": 239, "velocity": 94}, {"time": 143038, "pitch": 54, "duration": 241, "velocity": 98}, {"time": 143279, "pitch": 55, "duration": 222, "velocity": 107}, {"time": 143521, "pitch": 54, "duration": 477, "velocity": 104}, {"time": 143998, "pitch": 63, "duration": 483, "velocity": 111}, {"time": 144481, "pitch": 64, "duration": 1920, "velocity": 111}, {"time": 146401, "pitch": 76, "duration": 69, "velocity": 108}, {"time": 146560, "pitch": 71, "duration": 70, "velocity": 100}, {"time": 146719, "pitch": 69, "duration": 70, "velocity": 92}, {"time": 146878, "pitch": 74, "duration": 70, "velocity": 105}, {"time": 147039, "pitch": 66, "duration": 70, "velocity": 92}, {"time": 147200, "pitch": 67, "duration": 70, "velocity": 98}, {"time": 147361, "pitch": 72, "duration": 70, "velocity": 106}, {"time": 147520, "pitch": 66, "duration": 70, "velocity": 93}, {"time": 147679, "pitch": 67, "duration": 70, "velocity": 99}, {"time": 147838, "pitch": 71, "duration": 71, "velocity": 108}, {"time": 147999, "pitch": 66, "duration": 71, "velocity": 89}, {"time": 148160, "pitch": 67, "duration": 71, "velocity": 97}, {"time": 148321, "pitch": 66, "duration": 70, "velocity": 98}, {"time": 148480, "pitch": 67, "duration": 70, "velocity": 106}, {"time": 148639, "pitch": 66, "duration": 70, "velocity": 100}, {"time": 148798, "pitch": 64, "duration": 71, "velocity": 95}, {"time": 148959, "pitch": 62, "duration": 71, "velocity": 99}, {"time": 149120, "pitch": 59, "duration": 71, "velocity": 96}, {"time": 149281, "pitch": 57, "duration": 70, "velocity": 95}, {"time": 149440, "pitch": 62, "duration": 70, "velocity": 103}, {"time": 149599, "pitch": 59, "duration": 70, "velocity": 99}, {"time": 149758, "pitch": 57, "duration": 71, "velocity": 95}, {"time": 149919, "pitch": 55, "duration": 71, "velocity": 103}, {"time": 150080, "pitch": 54, "duration": 71, "velocity": 96}, {"time": 150241, "pitch": 55, "duration": 70, "velocity": 94}, {"time": 150400, "pitch": 57, "duration": 70, "velocity": 97}, {"time": 150559, "pitch": 59, "duration": 70, "velocity": 100}, {"time": 150718, "pitch": 62, "duration": 71, "velocity": 107}, {"time": 150879, "pitch": 61, "duration": 71, "velocity": 100}, {"time": 151040, "pitch": 57, "duration": 71, "velocity": 95}, {"time": 151201, "pitch": 61, "duration": 70, "velocity": 103}, {"time": 151360, "pitch": 59, "duration": 70, "velocity": 98}, {"time": 151519, "pitch": 55, "duration": 70, "velocity": 95}, {"time": 151678, "pitch": 59, "duration": 71, "velocity": 105}, {"time": 151839, "pitch": 57, "duration": 71, "velocity": 97}, {"time": 63363, "pitch": 76, "duration": 8157, "velocity": 105}, {"time": 63363, "pitch": 88, "duration": 8157, "velocity": 105}, {"time": 99601, "pitch": 79, "duration": 60, "velocity": 120}, {"time": 99601, "pitch": 91, "duration": 60, "velocity": 120}, {"time": 99840, "pitch": 77, "duration": 60, "velocity": 117}, {"time": 99840, "pitch": 89, "duration": 60, "velocity": 117}, {"time": 99961, "pitch": 74, "duration": 60, "velocity": 114}, {"time": 99961, "pitch": 86, "duration": 60, "velocity": 114}, {"time": 100081, "pitch": 72, "duration": 61, "velocity": 118}, {"time": 100081, "pitch": 84, "duration": 61, "velocity": 118}, {"time": 100202, "pitch": 70, "duration": 60, "velocity": 114}, {"time": 100202, "pitch": 82, "duration": 60, "velocity": 114}, {"time": 100323, "pitch": 71, "duration": 99, "velocity": 118}, {"time": 100323, "pitch": 83, "duration": 99, "velocity": 118}, {"time": 100442, "pitch": 79, "duration": 358, "velocity": 115}, {"time": 100442, "pitch": 91, "duration": 358, "velocity": 115}, {"time": 101041, "pitch": 67, "duration": 81, "velocity": 105}, {"time": 101041, "pitch": 79, "duration": 81, "velocity": 105}, {"time": 101162, "pitch": 69, "duration": 81, "velocity": 108}, {"time": 101162, "pitch": 81, "duration": 81, "velocity": 108}, {"time": 101283, "pitch": 71, "duration": 79, "velocity": 102}, {"time": 101283, "pitch": 83, "duration": 79, "velocity": 102}, {"time": 101402, "pitch": 72, "duration": 100, "velocity": 106}, {"time": 101402, "pitch": 84, "duration": 80, "velocity": 106}, {"time": 101521, "pitch": 74, "duration": 80, "velocity": 109}, {"time": 101521, "pitch": 86, "duration": 80, "velocity": 109}, {"time": 101641, "pitch": 76, "duration": 79, "velocity": 110}, {"time": 101641, "pitch": 88, "duration": 79, "velocity": 110}, {"time": 101760, "pitch": 79, "duration": 99, "velocity": 114}, {"time": 101760, "pitch": 91, "duration": 99, "velocity": 114}, {"time": 101879, "pitch": 77, "duration": 338, "velocity": 106}, {"time": 101879, "pitch": 89, "duration": 338, "velocity": 106}, {"time": 102237, "pitch": 75, "duration": 1433, "velocity": 100}, {"time": 102237, "pitch": 87, "duration": 1433, "velocity": 100}, {"time": 103680, "pitch": 79, "duration": 458, "velocity": 104}, {"time": 103680, "pitch": 91, "duration": 458, "velocity": 104}, {"time": 104157, "pitch": 77, "duration": 941, "velocity": 99}, {"time": 104157, "pitch": 89, "duration": 941, "velocity": 99}, {"time": 105117, "pitch": 79, "duration": 941, "velocity": 102}, {"time": 105117, "pitch": 91, "duration": 941, "velocity": 102}, {"time": 106078, "pitch": 72, "duration": 452, "velocity": 93}, {"time": 106078, "pitch": 84, "duration": 452, "velocity": 93}, {"time": 106560, "pitch": 74, "duration": 448, "velocity": 100}, {"time": 106560, "pitch": 86, "duration": 448, "velocity": 100}, {"time": 107038, "pitch": 75, "duration": 920, "velocity": 104}, {"time": 107038, "pitch": 87, "duration": 920, "velocity": 104}, {"time": 107998, "pitch": 75, "duration": 452, "velocity": 93}, {"time": 107998, "pitch": 87, "duration": 452, "velocity": 93}, {"time": 108481, "pitch": 77, "duration": 447, "velocity": 100}, {"time": 108481, "pitch": 89, "duration": 447, "velocity": 100}, {"time": 108958, "pitch": 79, "duration": 452, "velocity": 104}, {"time": 108958, "pitch": 91, "duration": 452, "velocity": 104}, {"time": 109679, "pitch": 86, "duration": 90, "velocity": 107}, {"time": 109799, "pitch": 78, "duration": 89, "velocity": 102}, {"time": 109918, "pitch": 81, "duration": 90, "velocity": 104}, {"time": 110039, "pitch": 74, "duration": 90, "velocity": 99}, {"time": 110159, "pitch": 86, "duration": 91, "velocity": 107}, {"time": 110280, "pitch": 78, "duration": 91, "velocity": 101}, {"time": 110401, "pitch": 81, "duration": 89, "velocity": 104}, {"time": 110520, "pitch": 74, "duration": 90, "velocity": 99}, {"time": 110639, "pitch": 86, "duration": 90, "velocity": 107}, {"time": 110759, "pitch": 78, "duration": 89, "velocity": 101}, {"time": 110878, "pitch": 81, "duration": 90, "velocity": 104}, {"time": 110999, "pitch": 74, "duration": 90, "velocity": 99}, {"time": 111119, "pitch": 86, "duration": 91, "velocity": 110}, {"time": 111240, "pitch": 78, "duration": 91, "velocity": 101}, {"time": 111361, "pitch": 81, "duration": 89, "velocity": 105}, {"time": 111480, "pitch": 74, "duration": 90, "velocity": 98}, {"time": 111599, "pitch": 86, "duration": 90, "velocity": 108}, {"time": 111719, "pitch": 78, "duration": 89, "velocity": 100}, {"time": 111838, "pitch": 81, "duration": 91, "velocity": 105}, {"time": 111959, "pitch": 74, "duration": 90, "velocity": 99}, {"time": 112079, "pitch": 86, "duration": 91, "velocity": 107}, {"time": 112200, "pitch": 78, "duration": 91, "velocity": 101}, {"time": 112321, "pitch": 81, "duration": 89, "velocity": 105}, {"time": 112440, "pitch": 74, "duration": 90, "velocity": 99}, {"time": 112560, "pitch": 86, "duration": 89, "velocity": 107}, {"time": 112679, "pitch": 78, "duration": 89, "velocity": 101}, {"time": 112798, "pitch": 81, "duration": 91, "velocity": 105}, {"time": 112919, "pitch": 74, "duration": 90, "velocity": 99}, {"time": 113040, "pitch": 86, "duration": 90, "velocity": 107}, {"time": 113160, "pitch": 78, "duration": 91, "velocity": 100}, {"time": 113281, "pitch": 81, "duration": 89, "velocity": 106}, {"time": 113400, "pitch": 74, "duration": 90, "velocity": 99}, {"time": 113520, "pitch": 86, "duration": 89, "velocity": 106}, {"time": 113639, "pitch": 78, "duration": 89, "velocity": 98}, {"time": 129119, "pitch": 50, "duration": 3841, "velocity": 88}, {"time": 129119, "pitch": 86, "duration": 3841, "velocity": 88}, {"time": 132960, "pitch": 55, "duration": 2880, "velocity": 88}, {"time": 132960, "pitch": 91, "duration": 2880, "velocity": 88}, {"time": 135840, "pitch": 77, "duration": 80, "velocity": 103}, {"time": 135840, "pitch": 89, "duration": 80, "velocity": 103}, {"time": 136079, "pitch": 72, "duration": 79, "velocity": 96}, {"time": 136079, "pitch": 84, "duration": 79, "velocity": 96}, {"time": 136317, "pitch": 74, "duration": 61, "velocity": 102}, {"time": 136317, "pitch": 86, "duration": 61, "velocity": 102}, {"time": 136438, "pitch": 69, "duration": 60, "velocity": 96}, {"time": 136438, "pitch": 81, "duration": 60, "velocity": 96}, {"time": 136559, "pitch": 62, "duration": 60, "velocity": 94}, {"time": 136559, "pitch": 74, "duration": 60, "velocity": 94}, {"time": 136679, "pitch": 66, "duration": 61, "velocity": 100}, {"time": 136679, "pitch": 78, "duration": 61, "velocity": 100}, {"time": 136800, "pitch": 50, "duration": 3840, "velocity": 88}, {"time": 136800, "pitch": 86, "duration": 3840, "velocity": 88}, {"time": 140640, "pitch": 55, "duration": 2881, "velocity": 88}, {"time": 140640, "pitch": 91, "duration": 2881, "velocity": 88}, {"time": 143521, "pitch": 54, "duration": 960, "velocity": 86}, {"time": 143521, "pitch": 90, "duration": 960, "velocity": 86}, {"time": 144481, "pitch": 47, "duration": 7439, "velocity": 89}, {"time": 144481, "pitch": 83, "duration": 7439, "velocity": 95}, {"time": 480, "pitch": 35, "duration": 10, "velocity": 96}, {"time": 480, "pitch": 38, "duration": 10, "velocity": 106}, {"time": 520, "pitch": 38, "duration": 10, "velocity": 86}, {"time": 560, "pitch": 38, "duration": 10, "velocity": 93}, {"time": 639, "pitch": 47, "duration": 10, "velocity": 96}, {"time": 798, "pitch": 43, "duration": 10, "velocity": 84}, {"time": 957, "pitch": 35, "duration": 10, "velocity": 92}, {"time": 957, "pitch": 38, "duration": 10, "velocity": 105}, {"time": 1118, "pitch": 43, "duration": 10, "velocity": 98}, {"time": 1279, "pitch": 41, "duration": 10, "velocity": 79}, {"time": 1279, "pitch": 46, "duration": 10, "velocity": 99}, {"time": 1440, "pitch": 35, "duration": 10, "velocity": 93}, {"time": 1440, "pitch": 38, "duration": 10, "velocity": 98}, {"time": 1440, "pitch": 41, "duration": 10, "velocity": 88}, {"time": 1480, "pitch": 38, "duration": 10, "velocity": 88}, {"time": 1520, "pitch": 38, "duration": 10, "velocity": 98}, {"time": 1599, "pitch": 38, "duration": 10, "velocity": 92}, {"time": 1679, "pitch": 38, "duration": 10, "velocity": 89}, {"time": 1758, "pitch": 38, "duration": 10, "velocity": 99}, {"time": 1838, "pitch": 47, "duration": 10, "velocity": 96}, {"time": 1917, "pitch": 35, "duration": 10, "velocity": 98}, {"time": 1917, "pitch": 47, "duration": 10, "velocity": 84}, {"time": 1998, "pitch": 45, "duration": 10, "velocity": 96}, {"time": 2078, "pitch": 45, "duration": 10, "velocity": 91}, {"time": 2159, "pitch": 43, "duration": 10, "velocity": 86}, {"time": 2239, "pitch": 41, "duration": 10, "velocity": 94}, {"time": 2320, "pitch": 41, "duration": 10, "velocity": 84}, {"time": 2400, "pitch": 35, "duration": 10, "velocity": 95}, {"time": 2400, "pitch": 57, "duration": 10, "velocity": 87}, {"time": 2639, "pitch": 42, "duration": 10, "velocity": 69}, {"time": 2788, "pitch": 35, "duration": 10, "velocity": 59}, {"time": 2878, "pitch": 38, "duration": 10, "velocity": 106}, {"time": 2878, "pitch": 42, "duration": 10, "velocity": 97}, {"time": 3119, "pitch": 42, "duration": 10, "velocity": 69}, {"time": 3270, "pitch": 38, "duration": 10, "velocity": 78}, {"time": 3300, "pitch": 38, "duration": 10, "velocity": 48}, {"time": 3330, "pitch": 38, "duration": 10, "velocity": 43}, {"time": 3360, "pitch": 35, "duration": 10, "velocity": 90}, {"time": 3360, "pitch": 42, "duration": 10, "velocity": 83}, {"time": 3510, "pitch": 38, "duration": 9, "velocity": 64}, {"time": 3599, "pitch": 35, "duration": 10, "velocity": 81}, {"time": 3599, "pitch": 42, "duration": 10, "velocity": 69}, {"time": 3758, "pitch": 38, "duration": 10, "velocity": 39}, {"time": 3798, "pitch": 38, "duration": 10, "velocity": 29}, {"time": 3838, "pitch": 38, "duration": 10, "velocity": 106}, {"time": 3838, "pitch": 42, "duration": 10, "velocity": 87}, {"time": 4079, "pitch": 42, "duration": 10, "velocity": 73}, {"time": 4230, "pitch": 38, "duration": 10, "velocity": 69}, {"time": 4320, "pitch": 35, "duration": 10, "velocity": 95}, {"time": 4320, "pitch": 42, "duration": 10, "velocity": 90}, {"time": 4559, "pitch": 42, "duration": 10, "velocity": 69}, {"time": 4708, "pitch": 35, "duration": 10, "velocity": 59}, {"time": 4798, "pitch": 38, "duration": 10, "velocity": 106}, {"time": 4798, "pitch": 42, "duration": 10, "velocity": 97}, {"time": 5039, "pitch": 42, "duration": 10, "velocity": 69}, {"time": 5190, "pitch": 38, "duration": 10, "velocity": 78}, {"time": 5220, "pitch": 38, "duration": 10, "velocity": 47}, {"time": 5250, "pitch": 38, "duration": 10, "velocity": 44}, {"time": 5281, "pitch": 35, "duration": 9, "velocity": 90}, {"time": 5281, "pitch": 42, "duration": 9, "velocity": 83}, {"time": 5430, "pitch": 38, "duration": 10, "velocity": 64}, {"time": 5519, "pitch": 35, "duration": 10, "velocity": 85}, {"time": 5519, "pitch": 42, "duration": 10, "velocity": 69}, {"time": 5668, "pitch": 38, "duration": 10, "velocity": 49}, {"time": 5758, "pitch": 38, "duration": 10, "velocity": 106}, {"time": 5758, "pitch": 46, "duration": 10, "velocity": 92}, {"time": 5838, "pitch": 38, "duration": 10, "velocity": 83}, {"time": 5919, "pitch": 38, "duration": 10, "velocity": 67}, {"time": 5999, "pitch": 38, "duration": 10, "velocity": 89}, {"time": 6080, "pitch": 45, "duration": 10, "velocity": 79}, {"time": 6150, "pitch": 38, "duration": 10, "velocity": 87}, {"time": 6241, "pitch": 35, "duration": 10, "velocity": 95}, {"time": 6241, "pitch": 57, "duration": 10, "velocity": 92}, {"time": 6479, "pitch": 42, "duration": 10, "velocity": 69}, {"time": 6628, "pitch": 35, "duration": 10, "velocity": 59}, {"time": 6718, "pitch": 38, "duration": 10, "velocity": 106}, {"time": 6718, "pitch": 42, "duration": 10, "velocity": 97}, {"time": 6959, "pitch": 42, "duration": 10, "velocity": 69}, {"time": 7110, "pitch": 38, "duration": 10, "velocity": 78}, {"time": 7201, "pitch": 35, "duration": 10, "velocity": 95}, {"time": 7201, "pitch": 42, "duration": 10, "velocity": 83}, {"time": 7350, "pitch": 38, "duration": 10, "velocity": 64}, {"time": 7439, "pitch": 35, "duration": 10, "velocity": 82}, {"time": 7439, "pitch": 46, "duration": 10, "velocity": 89}, {"time": 7678, "pitch": 38, "duration": 10, "velocity": 106}, {"time": 7678, "pitch": 42, "duration": 10, "velocity": 87}, {"time": 7758, "pitch": 38, "duration": 10, "velocity": 67}, {"time": 7839, "pitch": 38, "duration": 10, "velocity": 40}, {"time": 7919, "pitch": 42, "duration": 10, "velocity": 73}, {"time": 8080, "pitch": 35, "duration": 10, "velocity": 69}, {"time": 8080, "pitch": 42, "duration": 10, "velocity": 65}, {"time": 8161, "pitch": 35, "duration": 10, "velocity": 95}, {"time": 8161, "pitch": 42, "duration": 10, "velocity": 84}, {"time": 8399, "pitch": 35, "duration": 10, "velocity": 73}, {"time": 8399, "pitch": 42, "duration": 10, "velocity": 69}, {"time": 8638, "pitch": 38, "duration": 10, "velocity": 106}, {"time": 8638, "pitch": 42, "duration": 10, "velocity": 97}, {"time": 8879, "pitch": 42, "duration": 10, "velocity": 69}, {"time": 9030, "pitch": 38, "duration": 10, "velocity": 78}, {"time": 9121, "pitch": 35, "duration": 10, "velocity": 90}, {"time": 9121, "pitch": 42, "duration": 10, "velocity": 83}, {"time": 9270, "pitch": 38, "duration": 10, "velocity": 64}, {"time": 9359, "pitch": 35, "duration": 10, "velocity": 82}, {"time": 9359, "pitch": 42, "duration": 10, "velocity": 69}, {"time": 9519, "pitch": 35, "duration": 9, "velocity": 59}, {"time": 9598, "pitch": 38, "duration": 10, "velocity": 106}, {"time": 9598, "pitch": 42, "duration": 10, "velocity": 87}, {"time": 9749, "pitch": 35, "duration": 10, "velocity": 83}, {"time": 9749, "pitch": 49, "duration": 10, "velocity": 83}, {"time": 9840, "pitch": 42, "duration": 10, "velocity": 73}, {"time": 10000, "pitch": 38, "duration": 11, "velocity": 93}, {"time": 10041, "pitch": 38, "duration": 10, "velocity": 71}, {"time": 10081, "pitch": 35, "duration": 10, "velocity": 95}, {"time": 10081, "pitch": 57, "duration": 10, "velocity": 64}, {"time": 10320, "pitch": 42, "duration": 9, "velocity": 69}, {"time": 10469, "pitch": 35, "duration": 10, "velocity": 59}, {"time": 10558, "pitch": 38, "duration": 10, "velocity": 106}, {"time": 10558, "pitch": 42, "duration": 10, "velocity": 97}, {"time": 10800, "pitch": 42, "duration": 10, "velocity": 69}, {"time": 10950, "pitch": 38, "duration": 11, "velocity": 78}, {"time": 11041, "pitch": 35, "duration": 10, "velocity": 90}, {"time": 11041, "pitch": 42, "duration": 10, "velocity": 83}, {"time": 11190, "pitch": 38, "duration": 10, "velocity": 64}, {"time": 11280, "pitch": 35, "duration": 10, "velocity": 82}, {"time": 11280, "pitch": 42, "duration": 10, "velocity": 71}, {"time": 11439, "pitch": 42, "duration": 10, "velocity": 59}, {"time": 11518, "pitch": 38, "duration": 10, "velocity": 106}, {"time": 11518, "pitch": 42, "duration": 10, "velocity": 87}, {"time": 11760, "pitch": 42, "duration": 10, "velocity": 73}, {"time": 11911, "pitch": 35, "duration": 10, "velocity": 69}, {"time": 12001, "pitch": 35, "duration": 10, "velocity": 95}, {"time": 12001, "pitch": 42, "duration": 10, "velocity": 90}, {"time": 12240, "pitch": 35, "duration": 10, "velocity": 59}, {"time": 12240, "pitch": 42, "duration": 10, "velocity": 69}, {"time": 12478, "pitch": 38, "duration": 10, "velocity": 106}, {"time": 12478, "pitch": 42, "duration": 10, "velocity": 97}, {"time": 12720, "pitch": 42, "duration": 10, "velocity": 69}, {"time": 12871, "pitch": 38, "duration": 10, "velocity": 78}, {"time": 12961, "pitch": 35, "duration": 10, "velocity": 90}, {"time": 12961, "pitch": 42, "duration": 10, "velocity": 83}, {"time": 13110, "pitch": 38, "duration": 10, "velocity": 64}, {"time": 13200, "pitch": 35, "duration": 10, "velocity": 82}, {"time": 13200, "pitch": 42, "duration": 10, "velocity": 69}, {"time": 13349, "pitch": 38, "duration": 10, "velocity": 39}, {"time": 13399, "pitch": 38, "duration": 10, "velocity": 34}, {"time": 13438, "pitch": 38, "duration": 10, "velocity": 106}, {"time": 13438, "pitch": 46, "duration": 10, "velocity": 87}, {"time": 13519, "pitch": 38, "duration": 10, "velocity": 73}, {"time": 13589, "pitch": 38, "duration": 10, "velocity": 89}, {"time": 13589, "pitch": 49, "duration": 10, "velocity": 92}, {"time": 13831, "pitch": 35, "duration": 10, "velocity": 80}, {"time": 13921, "pitch": 35, "duration": 10, "velocity": 95}, {"time": 13921, "pitch": 57, "duration": 10, "velocity": 64}, {"time": 14160, "pitch": 42, "duration": 10, "velocity": 69}, {"time": 14309, "pitch": 35, "duration": 10, "velocity": 29}, {"time": 14398, "pitch": 38, "duration": 11, "velocity": 106}, {"time": 14398, "pitch": 42, "duration": 11, "velocity": 97}, {"time": 14640, "pitch": 42, "duration": 10, "velocity": 69}, {"time": 14791, "pitch": 38, "duration": 10, "velocity": 53}, {"time": 14881, "pitch": 35, "duration": 10, "velocity": 90}, {"time": 14881, "pitch": 42, "duration": 10, "velocity": 83}, {"time": 15030, "pitch": 38, "duration": 10, "velocity": 45}, {"time": 15120, "pitch": 35, "duration": 10, "velocity": 82}, {"time": 15120, "pitch": 42, "duration": 10, "velocity": 69}, {"time": 15359, "pitch": 38, "duration": 10, "velocity": 106}, {"time": 15359, "pitch": 42, "duration": 10, "velocity": 87}, {"time": 15600, "pitch": 42, "duration": 10, "velocity": 73}, {"time": 15751, "pitch": 35, "duration": 10, "velocity": 69}, {"time": 15841, "pitch": 35, "duration": 10, "velocity": 95}, {"time": 15841, "pitch": 42, "duration": 10, "velocity": 90}, {"time": 16080, "pitch": 35, "duration": 10, "velocity": 59}, {"time": 16080, "pitch": 42, "duration": 10, "velocity": 69}, {"time": 16319, "pitch": 38, "duration": 10, "velocity": 106}, {"time": 16319, "pitch": 42, "duration": 10, "velocity": 97}, {"time": 16560, "pitch": 42, "duration": 10, "velocity": 69}, {"time": 16711, "pitch": 38, "duration": 10, "velocity": 45}, {"time": 16802, "pitch": 35, "duration": 9, "velocity": 90}, {"time": 16802, "pitch": 42, "duration": 9, "velocity": 83}, {"time": 16951, "pitch": 38, "duration": 10, "velocity": 42}, {"time": 17040, "pitch": 35, "duration": 10, "velocity": 82}, {"time": 17040, "pitch": 42, "duration": 10, "velocity": 69}, {"time": 17279, "pitch": 38, "duration": 10, "velocity": 106}, {"time": 17279, "pitch": 42, "duration": 10, "velocity": 87}, {"time": 17430, "pitch": 42, "duration": 10, "velocity": 59}, {"time": 17520, "pitch": 46, "duration": 10, "velocity": 99}, {"time": 17762, "pitch": 35, "duration": 10, "velocity": 95}, {"time": 17762, "pitch": 42, "duration": 10, "velocity": 64}, {"time": 18000, "pitch": 42, "duration": 10, "velocity": 69}, {"time": 18149, "pitch": 35, "duration": 10, "velocity": 29}, {"time": 18239, "pitch": 38, "duration": 10, "velocity": 106}, {"time": 18239, "pitch": 42, "duration": 10, "velocity": 97}, {"time": 18480, "pitch": 42, "duration": 10, "velocity": 69}, {"time": 18631, "pitch": 38, "duration": 10, "velocity": 53}, {"time": 18722, "pitch": 35, "duration": 10, "velocity": 90}, {"time": 18722, "pitch": 42, "duration": 10, "velocity": 83}, {"time": 18871, "pitch": 38, "duration": 10, "velocity": 45}, {"time": 18960, "pitch": 35, "duration": 10, "velocity": 82}, {"time": 18960, "pitch": 42, "duration": 10, "velocity": 69}, {"time": 19199, "pitch": 38, "duration": 10, "velocity": 106}, {"time": 19199, "pitch": 46, "duration": 10, "velocity": 87}, {"time": 19440, "pitch": 38, "duration": 10, "velocity": 73}, {"time": 19591, "pitch": 38, "duration": 10, "velocity": 69}, {"time": 19682, "pitch": 35, "duration": 10, "velocity": 95}, {"time": 19682, "pitch": 42, "duration": 10, "velocity": 90}, {"time": 19920, "pitch": 42, "duration": 10, "velocity": 69}, {"time": 20069, "pitch": 35, "duration": 10, "velocity": 59}, {"time": 20159, "pitch": 38, "duration": 10, "velocity": 106}, {"time": 20159, "pitch": 42, "duration": 10, "velocity": 97}, {"time": 20400, "pitch": 42, "duration": 10, "velocity": 69}, {"time": 20551, "pitch": 38, "duration": 10, "velocity": 78}, {"time": 20581, "pitch": 38, "duration": 11, "velocity": 47}, {"time": 20612, "pitch": 38, "duration": 10, "velocity": 44}, {"time": 20642, "pitch": 35, "duration": 10, "velocity": 90}, {"time": 20642, "pitch": 42, "duration": 10, "velocity": 83}, {"time": 20791, "pitch": 38, "duration": 10, "velocity": 64}, {"time": 20880, "pitch": 35, "duration": 10, "velocity": 82}, {"time": 20880, "pitch": 46, "duration": 10, "velocity": 69}, {"time": 21119, "pitch": 38, "duration": 10, "velocity": 106}, {"time": 21119, "pitch": 42, "duration": 10, "velocity": 87}, {"time": 21270, "pitch": 35, "duration": 10, "velocity": 79}, {"time": 21270, "pitch": 57, "duration": 10, "velocity": 99}, {"time": 21602, "pitch": 35, "duration": 10, "velocity": 95}, {"time": 21602, "pitch": 57, "duration": 10, "velocity": 64}, {"time": 21841, "pitch": 42, "duration": 9, "velocity": 69}, {"time": 21990, "pitch": 35, "duration": 10, "velocity": 29}, {"time": 22079, "pitch": 38, "duration": 10, "velocity": 106}, {"time": 22079, "pitch": 42, "duration": 10, "velocity": 97}, {"time": 22321, "pitch": 42, "duration": 10, "velocity": 69}, {"time": 22471, "pitch": 38, "duration": 11, "velocity": 53}, {"time": 22562, "pitch": 35, "duration": 10, "velocity": 90}, {"time": 22562, "pitch": 42, "duration": 10, "velocity": 83}, {"time": 22711, "pitch": 38, "duration": 10, "velocity": 45}, {"time": 22801, "pitch": 35, "duration": 10, "velocity": 82}, {"time": 22801, "pitch": 42, "duration": 10, "velocity": 69}, {"time": 22960, "pitch": 42, "duration": 10, "velocity": 49}, {"time": 23039, "pitch": 38, "duration": 10, "velocity": 106}, {"time": 23039, "pitch": 42, "duration": 10, "velocity": 87}, {"time": 23200, "pitch": 42, "duration": 10, "velocity": 27}, {"time": 23281, "pitch": 42, "duration": 10, "velocity": 73}, {"time": 23442, "pitch": 35, "duration": 10, "velocity": 69}, {"time": 23442, "pitch": 42, "duration": 10, "velocity": 39}, {"time": 23522, "pitch": 35, "duration": 10, "velocity": 95}, {"time": 23522, "pitch": 42, "duration": 10, "velocity": 90}, {"time": 23761, "pitch": 35, "duration": 10, "velocity": 59}, {"time": 23761, "pitch": 42, "duration": 10, "velocity": 69}, {"time": 23999, "pitch": 38, "duration": 10, "velocity": 106}, {"time": 23999, "pitch": 42, "duration": 10, "velocity": 97}, {"time": 24241, "pitch": 42, "duration": 10, "velocity": 69}, {"time": 24392, "pitch": 38, "duration": 10, "velocity": 45}, {"time": 24482, "pitch": 35, "duration": 10, "velocity": 90}, {"time": 24482, "pitch": 42, "duration": 10, "velocity": 83}, {"time": 24631, "pitch": 38, "duration": 10, "velocity": 42}, {"time": 24721, "pitch": 35, "duration": 10, "velocity": 82}, {"time": 24721, "pitch": 42, "duration": 10, "velocity": 69}, {"time": 24959, "pitch": 38, "duration": 10, "velocity": 106}, {"time": 24959, "pitch": 42, "duration": 10, "velocity": 87}, {"time": 25110, "pitch": 42, "duration": 10, "velocity": 59}, {"time": 25201, "pitch": 46, "duration": 10, "velocity": 99}, {"time": 25442, "pitch": 35, "duration": 10, "velocity": 95}, {"time": 25442, "pitch": 42, "duration": 10, "velocity": 64}, {"time": 25681, "pitch": 42, "duration": 10, "velocity": 69}, {"time": 25830, "pitch": 35, "duration": 10, "velocity": 29}, {"time": 25919, "pitch": 38, "duration": 10, "velocity": 106}, {"time": 25919, "pitch": 42, "duration": 10, "velocity": 97}, {"time": 26161, "pitch": 42, "duration": 10, "velocity": 69}, {"time": 26312, "pitch": 38, "duration": 10, "velocity": 53}, {"time": 26402, "pitch": 35, "duration": 10, "velocity": 90}, {"time": 26402, "pitch": 42, "duration": 10, "velocity": 83}, {"time": 26551, "pitch": 38, "duration": 10, "velocity": 45}, {"time": 26641, "pitch": 35, "duration": 10, "velocity": 82}, {"time": 26641, "pitch": 42, "duration": 10, "velocity": 69}, {"time": 26880, "pitch": 38, "duration": 10, "velocity": 106}, {"time": 26880, "pitch": 46, "duration": 10, "velocity": 87}, {"time": 27121, "pitch": 38, "duration": 10, "velocity": 73}, {"time": 27272, "pitch": 38, "duration": 10, "velocity": 69}, {"time": 27362, "pitch": 35, "duration": 10, "velocity": 95}, {"time": 27362, "pitch": 42, "duration": 10, "velocity": 90}, {"time": 27601, "pitch": 42, "duration": 10, "velocity": 69}, {"time": 27750, "pitch": 35, "duration": 10, "velocity": 59}, {"time": 27840, "pitch": 38, "duration": 10, "velocity": 106}, {"time": 27840, "pitch": 42, "duration": 10, "velocity": 97}, {"time": 28081, "pitch": 42, "duration": 10, "velocity": 69}, {"time": 28232, "pitch": 38, "duration": 10, "velocity": 78}, {"time": 28262, "pitch": 38, "duration": 10, "velocity": 47}, {"time": 28292, "pitch": 38, "duration": 10, "velocity": 44}, {"time": 28322, "pitch": 35, "duration": 10, "velocity": 90}, {"time": 28322, "pitch": 42, "duration": 10, "velocity": 83}, {"time": 28472, "pitch": 38, "duration": 10, "velocity": 64}, {"time": 28561, "pitch": 35, "duration": 10, "velocity": 82}, {"time": 28561, "pitch": 46, "duration": 10, "velocity": 69}, {"time": 28800, "pitch": 38, "duration": 10, "velocity": 106}, {"time": 28800, "pitch": 42, "duration": 10, "velocity": 87}, {"time": 28880, "pitch": 38, "duration": 10, "velocity": 89}, {"time": 28961, "pitch": 35, "duration": 10, "velocity": 79}, {"time": 28961, "pitch": 57, "duration": 10, "velocity": 99}, {"time": 29041, "pitch": 38, "duration": 10, "velocity": 99}, {"time": 29122, "pitch": 48, "duration": 10, "velocity": 99}, {"time": 29202, "pitch": 47, "duration": 10, "velocity": 96}, {"time": 29283, "pitch": 35, "duration": 9, "velocity": 98}, {"time": 29283, "pitch": 49, "duration": 9, "velocity": 78}, {"time": 29521, "pitch": 42, "duration": 10, "velocity": 69}, {"time": 29760, "pitch": 38, "duration": 10, "velocity": 106}, {"time": 29760, "pitch": 42, "duration": 10, "velocity": 97}, {"time": 30001, "pitch": 42, "duration": 10, "velocity": 69}, {"time": 30162, "pitch": 36, "duration": 10, "velocity": 50}, {"time": 30243, "pitch": 35, "duration": 10, "velocity": 98}, {"time": 30243, "pitch": 42, "duration": 10, "velocity": 74}, {"time": 30481, "pitch": 42, "duration": 10, "velocity": 79}, {"time": 30720, "pitch": 38, "duration": 10, "velocity": 106}, {"time": 30720, "pitch": 42, "duration": 10, "velocity": 97}, {"time": 30961, "pitch": 42, "duration": 10, "velocity": 69}, {"time": 31203, "pitch": 35, "duration": 10, "velocity": 99}, {"time": 31203, "pitch": 42, "duration": 10, "velocity": 83}, {"time": 31441, "pitch": 42, "duration": 10, "velocity": 69}, {"time": 31680, "pitch": 38, "duration": 10, "velocity": 106}, {"time": 31680, "pitch": 42, "duration": 10, "velocity": 97}, {"time": 31921, "pitch": 42, "duration": 10, "velocity": 69}, {"time": 32082, "pitch": 36, "duration": 10, "velocity": 49}, {"time": 32163, "pitch": 35, "duration": 10, "velocity": 96}, {"time": 32163, "pitch": 42, "duration": 10, "velocity": 83}, {"time": 32401, "pitch": 35, "duration": 10, "velocity": 70}, {"time": 32401, "pitch": 42, "duration": 10, "velocity": 69}, {"time": 32640, "pitch": 38, "duration": 10, "velocity": 106}, {"time": 32640, "pitch": 42, "duration": 10, "velocity": 97}, {"time": 32789, "pitch": 35, "duration": 10, "velocity": 63}, {"time": 32879, "pitch": 45, "duration": 10, "velocity": 94}, {"time": 32879, "pitch": 46, "duration": 10, "velocity": 93}, {"time": 33117, "pitch": 35, "duration": 10, "velocity": 99}, {"time": 33117, "pitch": 57, "duration": 10, "velocity": 86}, {"time": 33359, "pitch": 35, "duration": 10, "velocity": 96}, {"time": 33359, "pitch": 42, "duration": 10, "velocity": 69}, {"time": 33600, "pitch": 38, "duration": 10, "velocity": 106}, {"time": 33600, "pitch": 42, "duration": 10, "velocity": 97}, {"time": 33839, "pitch": 42, "duration": 10, "velocity": 69}, {"time": 33998, "pitch": 42, "duration": 10, "velocity": 38}, {"time": 34077, "pitch": 35, "duration": 10, "velocity": 99}, {"time": 34077, "pitch": 42, "duration": 10, "velocity": 74}, {"time": 34319, "pitch": 35, "duration": 10, "velocity": 95}, {"time": 34319, "pitch": 42, "duration": 10, "velocity": 69}, {"time": 34560, "pitch": 38, "duration": 10, "velocity": 106}, {"time": 34560, "pitch": 42, "duration": 10, "velocity": 97}, {"time": 34799, "pitch": 42, "duration": 10, "velocity": 69}, {"time": 34958, "pitch": 42, "duration": 10, "velocity": 49}, {"time": 35037, "pitch": 35, "duration": 10, "velocity": 99}, {"time": 35037, "pitch": 46, "duration": 10, "velocity": 89}, {"time": 35279, "pitch": 35, "duration": 10, "velocity": 92}, {"time": 35279, "pitch": 42, "duration": 10, "velocity": 69}, {"time": 35440, "pitch": 42, "duration": 10, "velocity": 42}, {"time": 35520, "pitch": 38, "duration": 10, "velocity": 106}, {"time": 35520, "pitch": 49, "duration": 10, "velocity": 87}, {"time": 35759, "pitch": 42, "duration": 10, "velocity": 69}, {"time": 35918, "pitch": 35, "duration": 10, "velocity": 67}, {"time": 35918, "pitch": 38, "duration": 10, "velocity": 57}, {"time": 35958, "pitch": 38, "duration": 10, "velocity": 43}, {"time": 35997, "pitch": 35, "duration": 10, "velocity": 98}, {"time": 35997, "pitch": 42, "duration": 10, "velocity": 83}, {"time": 36078, "pitch": 42, "duration": 10, "velocity": 53}, {"time": 36158, "pitch": 42, "duration": 10, "velocity": 73}, {"time": 36239, "pitch": 35, "duration": 10, "velocity": 92}, {"time": 36239, "pitch": 42, "duration": 10, "velocity": 69}, {"time": 36400, "pitch": 38, "duration": 10, "velocity": 71}, {"time": 36480, "pitch": 38, "duration": 10, "velocity": 106}, {"time": 36480, "pitch": 42, "duration": 10, "velocity": 97}, {"time": 36560, "pitch": 38, "duration": 10, "velocity": 87}, {"time": 36639, "pitch": 38, "duration": 10, "velocity": 100}, {"time": 36719, "pitch": 47, "duration": 10, "velocity": 88}, {"time": 36798, "pitch": 47, "duration": 10, "velocity": 87}, {"time": 36878, "pitch": 47, "duration": 10, "velocity": 79}, {"time": 36958, "pitch": 35, "duration": 10, "velocity": 100}, {"time": 36958, "pitch": 57, "duration": 10, "velocity": 85}, {"time": 37199, "pitch": 51, "duration": 10, "velocity": 69}, {"time": 37350, "pitch": 35, "duration": 10, "velocity": 59}, {"time": 37440, "pitch": 38, "duration": 10, "velocity": 106}, {"time": 37440, "pitch": 51, "duration": 10, "velocity": 97}, {"time": 37679, "pitch": 51, "duration": 10, "velocity": 69}, {"time": 37828, "pitch": 38, "duration": 10, "velocity": 78}, {"time": 37878, "pitch": 38, "duration": 10, "velocity": 48}, {"time": 37918, "pitch": 35, "duration": 10, "velocity": 98}, {"time": 37918, "pitch": 51, "duration": 10, "velocity": 83}, {"time": 38068, "pitch": 38, "duration": 11, "velocity": 64}, {"time": 38159, "pitch": 35, "duration": 10, "velocity": 92}, {"time": 38159, "pitch": 51, "duration": 10, "velocity": 69}, {"time": 38320, "pitch": 35, "duration": 10, "velocity": 49}, {"time": 38400, "pitch": 38, "duration": 10, "velocity": 106}, {"time": 38400, "pitch": 51, "duration": 10, "velocity": 87}, {"time": 38639, "pitch": 42, "duration": 10, "velocity": 73}, {"time": 38798, "pitch": 35, "duration": 10, "velocity": 69}, {"time": 38878, "pitch": 35, "duration": 10, "velocity": 100}, {"time": 38878, "pitch": 51, "duration": 10, "velocity": 94}, {"time": 39119, "pitch": 51, "duration": 10, "velocity": 69}, {"time": 39270, "pitch": 35, "duration": 10, "velocity": 59}, {"time": 39361, "pitch": 38, "duration": 9, "velocity": 106}, {"time": 39361, "pitch": 51, "duration": 9, "velocity": 97}, {"time": 39599, "pitch": 51, "duration": 10, "velocity": 69}, {"time": 39748, "pitch": 38, "duration": 10, "velocity": 78}, {"time": 39838, "pitch": 35, "duration": 10, "velocity": 98}, {"time": 39838, "pitch": 51, "duration": 10, "velocity": 83}, {"time": 39989, "pitch": 38, "duration": 10, "velocity": 64}, {"time": 40079, "pitch": 35, "duration": 10, "velocity": 92}, {"time": 40079, "pitch": 51, "duration": 10, "velocity": 69}, {"time": 40240, "pitch": 35, "duration": 10, "velocity": 59}, {"time": 40321, "pitch": 38, "duration": 10, "velocity": 106}, {"time": 40321, "pitch": 51, "duration": 10, "velocity": 87}, {"time": 40480, "pitch": 38, "duration": 10, "velocity": 77}, {"time": 40559, "pitch": 51, "duration": 10, "velocity": 73}, {"time": 40718, "pitch": 35, "duration": 10, "velocity": 69}, {"time": 40718, "pitch": 51, "duration": 10, "velocity": 49}, {"time": 40798, "pitch": 35, "duration": 10, "velocity": 100}, {"time": 40798, "pitch": 51, "duration": 10, "velocity": 94}, {"time": 41039, "pitch": 51, "duration": 10, "velocity": 69}, {"time": 41190, "pitch": 35, "duration": 10, "velocity": 59}, {"time": 41281, "pitch": 38, "duration": 10, "velocity": 106}, {"time": 41281, "pitch": 51, "duration": 10, "velocity": 97}, {"time": 41519, "pitch": 51, "duration": 10, "velocity": 69}, {"time": 41668, "pitch": 38, "duration": 10, "velocity": 78}, {"time": 41758, "pitch": 35, "duration": 10, "velocity": 98}, {"time": 41758, "pitch": 51, "duration": 10, "velocity": 83}, {"time": 41909, "pitch": 38, "duration": 10, "velocity": 64}, {"time": 41999, "pitch": 35, "duration": 10, "velocity": 92}, {"time": 41999, "pitch": 51, "duration": 10, "velocity": 69}, {"time": 42080, "pitch": 35, "duration": 10, "velocity": 42}, {"time": 42160, "pitch": 38, "duration": 10, "velocity": 48}, {"time": 42201, "pitch": 38, "duration": 10, "velocity": 39}, {"time": 42241, "pitch": 38, "duration": 10, "velocity": 106}, {"time": 42241, "pitch": 51, "duration": 10, "velocity": 87}, {"time": 42400, "pitch": 51, "duration": 10, "velocity": 67}, {"time": 42479, "pitch": 51, "duration": 10, "velocity": 73}, {"time": 42638, "pitch": 35, "duration": 10, "velocity": 69}, {"time": 42718, "pitch": 35, "duration": 10, "velocity": 100}, {"time": 42718, "pitch": 51, "duration": 10, "velocity": 94}, {"time": 42959, "pitch": 51, "duration": 10, "velocity": 69}, {"time": 43110, "pitch": 35, "duration": 10, "velocity": 59}, {"time": 43201, "pitch": 38, "duration": 10, "velocity": 106}, {"time": 43201, "pitch": 51, "duration": 10, "velocity": 97}, {"time": 43439, "pitch": 51, "duration": 10, "velocity": 69}, {"time": 43589, "pitch": 38, "duration": 10, "velocity": 78}, {"time": 43638, "pitch": 38, "duration": 10, "velocity": 48}, {"time": 43678, "pitch": 35, "duration": 10, "velocity": 98}, {"time": 43678, "pitch": 57, "duration": 10, "velocity": 63}, {"time": 43829, "pitch": 38, "duration": 10, "velocity": 64}, {"time": 43919, "pitch": 35, "duration": 11, "velocity": 92}, {"time": 43919, "pitch": 46, "duration": 11, "velocity": 96}, {"time": 44161, "pitch": 38, "duration": 10, "velocity": 108}, {"time": 44161, "pitch": 44, "duration": 10, "velocity": 96}, {"time": 44161, "pitch": 51, "duration": 10, "velocity": 87}, {"time": 44201, "pitch": 38, "duration": 10, "velocity": 70}, {"time": 44240, "pitch": 38, "duration": 10, "velocity": 104}, {"time": 44320, "pitch": 38, "duration": 10, "velocity": 90}, {"time": 44400, "pitch": 45, "duration": 9, "velocity": 107}, {"time": 44479, "pitch": 45, "duration": 10, "velocity": 103}, {"time": 44559, "pitch": 35, "duration": 10, "velocity": 69}, {"time": 44559, "pitch": 45, "duration": 10, "velocity": 79}, {"time": 44638, "pitch": 35, "duration": 10, "velocity": 100}, {"time": 44638, "pitch": 49, "duration": 10, "velocity": 84}, {"time": 44880, "pitch": 51, "duration": 10, "velocity": 69}, {"time": 45030, "pitch": 35, "duration": 11, "velocity": 59}, {"time": 45121, "pitch": 38, "duration": 10, "velocity": 106}, {"time": 45121, "pitch": 51, "duration": 10, "velocity": 97}, {"time": 45360, "pitch": 51, "duration": 10, "velocity": 69}, {"time": 45509, "pitch": 38, "duration": 10, "velocity": 78}, {"time": 45598, "pitch": 35, "duration": 10, "velocity": 98}, {"time": 45598, "pitch": 38, "duration": 10, "velocity": 53}, {"time": 45598, "pitch": 51, "duration": 10, "velocity": 83}, {"time": 45679, "pitch": 38, "duration": 10, "velocity": 43}, {"time": 45759, "pitch": 38, "duration": 10, "velocity": 64}, {"time": 45840, "pitch": 35, "duration": 10, "velocity": 92}, {"time": 45840, "pitch": 51, "duration": 10, "velocity": 69}, {"time": 46001, "pitch": 35, "duration": 10, "velocity": 49}, {"time": 46081, "pitch": 38, "duration": 10, "velocity": 106}, {"time": 46081, "pitch": 51, "duration": 10, "velocity": 87}, {"time": 46240, "pitch": 51, "duration": 10, "velocity": 57}, {"time": 46320, "pitch": 51, "duration": 10, "velocity": 73}, {"time": 46479, "pitch": 35, "duration": 10, "velocity": 69}, {"time": 46558, "pitch": 35, "duration": 10, "velocity": 100}, {"time": 46558, "pitch": 51, "duration": 10, "velocity": 94}, {"time": 46800, "pitch": 51, "duration": 10, "velocity": 79}, {"time": 46951, "pitch": 35, "duration": 10, "velocity": 59}, {"time": 46961, "pitch": 51, "duration": 10, "velocity": 49}, {"time": 47041, "pitch": 38, "duration": 10, "velocity": 106}, {"time": 47041, "pitch": 51, "duration": 10, "velocity": 97}, {"time": 47280, "pitch": 51, "duration": 10, "velocity": 69}, {"time": 47429, "pitch": 38, "duration": 10, "velocity": 78}, {"time": 47518, "pitch": 35, "duration": 10, "velocity": 98}, {"time": 47518, "pitch": 51, "duration": 10, "velocity": 83}, {"time": 47669, "pitch": 38, "duration": 10, "velocity": 64}, {"time": 47760, "pitch": 35, "duration": 10, "velocity": 92}, {"time": 47760, "pitch": 38, "duration": 10, "velocity": 52}, {"time": 47760, "pitch": 51, "duration": 10, "velocity": 69}, {"time": 47840, "pitch": 35, "duration": 10, "velocity": 49}, {"time": 48001, "pitch": 38, "duration": 10, "velocity": 106}, {"time": 48001, "pitch": 51, "duration": 10, "velocity": 87}, {"time": 48240, "pitch": 51, "duration": 10, "velocity": 73}, {"time": 48389, "pitch": 35, "duration": 10, "velocity": 69}, {"time": 48478, "pitch": 35, "duration": 11, "velocity": 100}, {"time": 48478, "pitch": 57, "duration": 11, "velocity": 82}, {"time": 48720, "pitch": 51, "duration": 10, "velocity": 69}, {"time": 48871, "pitch": 35, "duration": 10, "velocity": 59}, {"time": 48961, "pitch": 38, "duration": 10, "velocity": 106}, {"time": 48961, "pitch": 51, "duration": 10, "velocity": 97}, {"time": 49200, "pitch": 51, "duration": 10, "velocity": 69}, {"time": 49349, "pitch": 38, "duration": 10, "velocity": 78}, {"time": 49399, "pitch": 38, "duration": 10, "velocity": 58}, {"time": 49439, "pitch": 35, "duration": 10, "velocity": 98}, {"time": 49439, "pitch": 51, "duration": 10, "velocity": 83}, {"time": 49589, "pitch": 38, "duration": 10, "velocity": 64}, {"time": 49680, "pitch": 35, "duration": 10, "velocity": 92}, {"time": 49680, "pitch": 51, "duration": 10, "velocity": 69}, {"time": 49760, "pitch": 43, "duration": 11, "velocity": 49}, {"time": 49841, "pitch": 38, "duration": 10, "velocity": 39}, {"time": 49921, "pitch": 38, "duration": 10, "velocity": 106}, {"time": 49921, "pitch": 51, "duration": 10, "velocity": 87}, {"time": 50160, "pitch": 51, "duration": 10, "velocity": 73}, {"time": 50319, "pitch": 35, "duration": 10, "velocity": 69}, {"time": 50399, "pitch": 35, "duration": 10, "velocity": 100}, {"time": 50399, "pitch": 49, "duration": 10, "velocity": 84}, {"time": 50640, "pitch": 51, "duration": 10, "velocity": 69}, {"time": 50791, "pitch": 35, "duration": 10, "velocity": 59}, {"time": 50881, "pitch": 38, "duration": 10, "velocity": 106}, {"time": 50881, "pitch": 51, "duration": 10, "velocity": 97}, {"time": 51120, "pitch": 51, "duration": 10, "velocity": 69}, {"time": 51269, "pitch": 38, "duration": 10, "velocity": 78}, {"time": 51359, "pitch": 35, "duration": 10, "velocity": 98}, {"time": 51359, "pitch": 57, "duration": 10, "velocity": 83}, {"time": 51510, "pitch": 38, "duration": 10, "velocity": 64}, {"time": 51600, "pitch": 35, "duration": 10, "velocity": 92}, {"time": 51600, "pitch": 46, "duration": 10, "velocity": 89}, {"time": 51681, "pitch": 38, "duration": 10, "velocity": 106}, {"time": 51681, "pitch": 51, "duration": 10, "velocity": 87}, {"time": 51761, "pitch": 38, "duration": 10, "velocity": 100}, {"time": 51842, "pitch": 38, "duration": 10, "velocity": 85}, {"time": 51921, "pitch": 47, "duration": 10, "velocity": 103}, {"time": 52001, "pitch": 47, "duration": 10, "velocity": 99}, {"time": 52080, "pitch": 47, "duration": 10, "velocity": 93}, {"time": 52160, "pitch": 43, "duration": 10, "velocity": 89}, {"time": 52239, "pitch": 43, "duration": 10, "velocity": 86}, {"time": 52319, "pitch": 35, "duration": 10, "velocity": 95}, {"time": 52319, "pitch": 57, "duration": 10, "velocity": 84}, {"time": 52560, "pitch": 42, "duration": 10, "velocity": 69}, {"time": 52711, "pitch": 35, "duration": 10, "velocity": 59}, {"time": 52802, "pitch": 38, "duration": 10, "velocity": 106}, {"time": 52802, "pitch": 42, "duration": 10, "velocity": 97}, {"time": 53040, "pitch": 42, "duration": 10, "velocity": 69}, {"time": 53189, "pitch": 38, "duration": 10, "velocity": 78}, {"time": 53239, "pitch": 38, "duration": 10, "velocity": 48}, {"time": 53279, "pitch": 35, "duration": 10, "velocity": 90}, {"time": 53279, "pitch": 42, "duration": 10, "velocity": 83}, {"time": 53430, "pitch": 38, "duration": 10, "velocity": 64}, {"time": 53520, "pitch": 35, "duration": 10, "velocity": 82}, {"time": 53520, "pitch": 46, "duration": 10, "velocity": 89}, {"time": 53601, "pitch": 42, "duration": 10, "velocity": 69}, {"time": 53681, "pitch": 42, "duration": 10, "velocity": 89}, {"time": 53762, "pitch": 38, "duration": 10, "velocity": 106}, {"time": 53762, "pitch": 42, "duration": 10, "velocity": 87}, {"time": 53921, "pitch": 42, "duration": 10, "velocity": 57}, {"time": 54000, "pitch": 46, "duration": 10, "velocity": 93}, {"time": 54159, "pitch": 35, "duration": 10, "velocity": 69}, {"time": 54239, "pitch": 35, "duration": 10, "velocity": 95}, {"time": 54239, "pitch": 42, "duration": 10, "velocity": 90}, {"time": 54480, "pitch": 35, "duration": 10, "velocity": 59}, {"time": 54480, "pitch": 42, "duration": 10, "velocity": 69}, {"time": 54722, "pitch": 38, "duration": 10, "velocity": 106}, {"time": 54722, "pitch": 42, "duration": 10, "velocity": 97}, {"time": 54960, "pitch": 42, "duration": 10, "velocity": 69}, {"time": 55110, "pitch": 38, "duration": 9, "velocity": 78}, {"time": 55159, "pitch": 38, "duration": 10, "velocity": 48}, {"time": 55199, "pitch": 35, "duration": 10, "velocity": 90}, {"time": 55199, "pitch": 42, "duration": 10, "velocity": 83}, {"time": 55350, "pitch": 38, "duration": 10, "velocity": 64}, {"time": 55440, "pitch": 35, "duration": 11, "velocity": 82}, {"time": 55440, "pitch": 42, "duration": 11, "velocity": 69}, {"time": 55591, "pitch": 38, "duration": 10, "velocity": 39}, {"time": 55642, "pitch": 38, "duration": 10, "velocity": 34}, {"time": 55682, "pitch": 38, "duration": 10, "velocity": 106}, {"time": 55682, "pitch": 46, "duration": 10, "velocity": 87}, {"time": 55761, "pitch": 38, "duration": 10, "velocity": 73}, {"time": 55831, "pitch": 38, "duration": 10, "velocity": 89}, {"time": 55831, "pitch": 49, "duration": 10, "velocity": 92}, {"time": 56070, "pitch": 35, "duration": 10, "velocity": 80}, {"time": 56159, "pitch": 35, "duration": 10, "velocity": 95}, {"time": 56159, "pitch": 57, "duration": 10, "velocity": 64}, {"time": 56401, "pitch": 42, "duration": 10, "velocity": 69}, {"time": 56551, "pitch": 35, "duration": 10, "velocity": 29}, {"time": 56642, "pitch": 38, "duration": 10, "velocity": 106}, {"time": 56642, "pitch": 42, "duration": 10, "velocity": 97}, {"time": 56881, "pitch": 42, "duration": 10, "velocity": 69}, {"time": 57030, "pitch": 38, "duration": 10, "velocity": 53}, {"time": 57119, "pitch": 35, "duration": 10, "velocity": 90}, {"time": 57119, "pitch": 42, "duration": 10, "velocity": 83}, {"time": 57270, "pitch": 38, "duration": 10, "velocity": 45}, {"time": 57361, "pitch": 35, "duration": 10, "velocity": 82}, {"time": 57361, "pitch": 42, "duration": 10, "velocity": 69}, {"time": 57602, "pitch": 38, "duration": 10, "velocity": 106}, {"time": 57602, "pitch": 42, "duration": 10, "velocity": 87}, {"time": 57841, "pitch": 42, "duration": 10, "velocity": 73}, {"time": 57990, "pitch": 35, "duration": 10, "velocity": 69}, {"time": 58079, "pitch": 35, "duration": 10, "velocity": 95}, {"time": 58079, "pitch": 42, "duration": 10, "velocity": 90}, {"time": 58321, "pitch": 35, "duration": 10, "velocity": 59}, {"time": 58321, "pitch": 42, "duration": 10, "velocity": 69}, {"time": 58562, "pitch": 38, "duration": 10, "velocity": 106}, {"time": 58562, "pitch": 42, "duration": 10, "velocity": 97}, {"time": 58801, "pitch": 42, "duration": 10, "velocity": 69}, {"time": 58950, "pitch": 38, "duration": 10, "velocity": 45}, {"time": 59039, "pitch": 35, "duration": 10, "velocity": 90}, {"time": 59039, "pitch": 42, "duration": 10, "velocity": 83}, {"time": 59190, "pitch": 38, "duration": 10, "velocity": 42}, {"time": 59281, "pitch": 35, "duration": 10, "velocity": 82}, {"time": 59281, "pitch": 42, "duration": 10, "velocity": 69}, {"time": 59522, "pitch": 38, "duration": 10, "velocity": 106}, {"time": 59522, "pitch": 42, "duration": 10, "velocity": 87}, {"time": 59671, "pitch": 42, "duration": 10, "velocity": 59}, {"time": 59761, "pitch": 46, "duration": 10, "velocity": 99}, {"time": 59999, "pitch": 35, "duration": 10, "velocity": 95}, {"time": 59999, "pitch": 42, "duration": 10, "velocity": 64}, {"time": 60241, "pitch": 42, "duration": 10, "velocity": 69}, {"time": 60392, "pitch": 35, "duration": 10, "velocity": 29}, {"time": 60482, "pitch": 38, "duration": 10, "velocity": 106}, {"time": 60482, "pitch": 42, "duration": 10, "velocity": 97}, {"time": 60721, "pitch": 42, "duration": 10, "velocity": 69}, {"time": 60870, "pitch": 38, "duration": 10, "velocity": 53}, {"time": 60959, "pitch": 35, "duration": 11, "velocity": 90}, {"time": 60959, "pitch": 42, "duration": 11, "velocity": 83}, {"time": 61110, "pitch": 38, "duration": 10, "velocity": 45}, {"time": 61201, "pitch": 35, "duration": 10, "velocity": 82}, {"time": 61201, "pitch": 42, "duration": 10, "velocity": 69}, {"time": 61442, "pitch": 38, "duration": 10, "velocity": 106}, {"time": 61442, "pitch": 46, "duration": 10, "velocity": 87}, {"time": 61681, "pitch": 38, "duration": 10, "velocity": 73}, {"time": 61830, "pitch": 38, "duration": 10, "velocity": 69}, {"time": 61920, "pitch": 35, "duration": 10, "velocity": 95}, {"time": 61920, "pitch": 42, "duration": 10, "velocity": 90}, {"time": 62161, "pitch": 42, "duration": 10, "velocity": 69}, {"time": 62312, "pitch": 35, "duration": 10, "velocity": 59}, {"time": 62402, "pitch": 38, "duration": 10, "velocity": 106}, {"time": 62402, "pitch": 42, "duration": 10, "velocity": 97}, {"time": 62641, "pitch": 42, "duration": 10, "velocity": 69}, {"time": 62790, "pitch": 38, "duration": 10, "velocity": 78}, {"time": 62820, "pitch": 38, "duration": 10, "velocity": 47}, {"time": 62850, "pitch": 38, "duration": 10, "velocity": 44}, {"time": 62880, "pitch": 35, "duration": 10, "velocity": 90}, {"time": 62880, "pitch": 42, "duration": 10, "velocity": 83}, {"time": 63031, "pitch": 38, "duration": 10, "velocity": 64}, {"time": 63121, "pitch": 35, "duration": 10, "velocity": 82}, {"time": 63121, "pitch": 46, "duration": 10, "velocity": 69}, {"time": 63363, "pitch": 38, "duration": 9, "velocity": 106}, {"time": 63363, "pitch": 42, "duration": 9, "velocity": 87}, {"time": 63512, "pitch": 35, "duration": 10, "velocity": 79}, {"time": 63512, "pitch": 57, "duration": 10, "velocity": 99}, {"time": 63840, "pitch": 35, "duration": 10, "velocity": 95}, {"time": 63840, "pitch": 57, "duration": 10, "velocity": 64}, {"time": 64081, "pitch": 42, "duration": 10, "velocity": 69}, {"time": 64232, "pitch": 35, "duration": 10, "velocity": 29}, {"time": 64323, "pitch": 38, "duration": 10, "velocity": 106}, {"time": 64323, "pitch": 42, "duration": 10, "velocity": 97}, {"time": 64561, "pitch": 42, "duration": 10, "velocity": 69}, {"time": 64710, "pitch": 38, "duration": 10, "velocity": 53}, {"time": 64800, "pitch": 35, "duration": 10, "velocity": 90}, {"time": 64800, "pitch": 42, "duration": 10, "velocity": 83}, {"time": 64951, "pitch": 38, "duration": 10, "velocity": 45}, {"time": 65041, "pitch": 35, "duration": 10, "velocity": 82}, {"time": 65041, "pitch": 42, "duration": 10, "velocity": 69}, {"time": 65283, "pitch": 38, "duration": 10, "velocity": 106}, {"time": 65283, "pitch": 42, "duration": 10, "velocity": 87}, {"time": 65521, "pitch": 42, "duration": 10, "velocity": 73}, {"time": 65670, "pitch": 35, "duration": 10, "velocity": 69}, {"time": 65760, "pitch": 35, "duration": 10, "velocity": 95}, {"time": 65760, "pitch": 42, "duration": 10, "velocity": 90}, {"time": 66001, "pitch": 35, "duration": 10, "velocity": 59}, {"time": 66001, "pitch": 42, "duration": 10, "velocity": 69}, {"time": 66243, "pitch": 38, "duration": 10, "velocity": 106}, {"time": 66243, "pitch": 42, "duration": 10, "velocity": 97}, {"time": 66481, "pitch": 42, "duration": 10, "velocity": 69}, {"time": 66630, "pitch": 38, "duration": 10, "velocity": 45}, {"time": 66720, "pitch": 35, "duration": 10, "velocity": 90}, {"time": 66720, "pitch": 42, "duration": 10, "velocity": 83}, {"time": 66869, "pitch": 38, "duration": 10, "velocity": 42}, {"time": 66959, "pitch": 35, "duration": 10, "velocity": 82}, {"time": 66959, "pitch": 42, "duration": 10, "velocity": 69}, {"time": 67197, "pitch": 38, "duration": 10, "velocity": 106}, {"time": 67197, "pitch": 42, "duration": 10, "velocity": 87}, {"time": 67348, "pitch": 42, "duration": 10, "velocity": 59}, {"time": 67439, "pitch": 46, "duration": 10, "velocity": 99}, {"time": 67680, "pitch": 35, "duration": 10, "velocity": 95}, {"time": 67680, "pitch": 42, "duration": 10, "velocity": 64}, {"time": 67919, "pitch": 42, "duration": 10, "velocity": 69}, {"time": 68068, "pitch": 35, "duration": 10, "velocity": 29}, {"time": 68157, "pitch": 38, "duration": 10, "velocity": 106}, {"time": 68157, "pitch": 42, "duration": 10, "velocity": 97}, {"time": 68399, "pitch": 42, "duration": 10, "velocity": 69}, {"time": 68550, "pitch": 38, "duration": 10, "velocity": 53}, {"time": 68640, "pitch": 35, "duration": 10, "velocity": 90}, {"time": 68640, "pitch": 42, "duration": 10, "velocity": 83}, {"time": 68789, "pitch": 38, "duration": 10, "velocity": 45}, {"time": 68879, "pitch": 35, "duration": 10, "velocity": 82}, {"time": 68879, "pitch": 42, "duration": 10, "velocity": 69}, {"time": 69117, "pitch": 38, "duration": 10, "velocity": 106}, {"time": 69117, "pitch": 46, "duration": 10, "velocity": 87}, {"time": 69359, "pitch": 38, "duration": 10, "velocity": 73}, {"time": 69510, "pitch": 38, "duration": 10, "velocity": 69}, {"time": 69600, "pitch": 35, "duration": 10, "velocity": 95}, {"time": 69600, "pitch": 42, "duration": 10, "velocity": 90}, {"time": 69839, "pitch": 42, "duration": 10, "velocity": 69}, {"time": 69988, "pitch": 35, "duration": 10, "velocity": 59}, {"time": 70077, "pitch": 38, "duration": 10, "velocity": 106}, {"time": 70077, "pitch": 42, "duration": 10, "velocity": 97}, {"time": 70319, "pitch": 42, "duration": 10, "velocity": 69}, {"time": 70470, "pitch": 38, "duration": 10, "velocity": 78}, {"time": 70500, "pitch": 38, "duration": 10, "velocity": 47}, {"time": 70530, "pitch": 38, "duration": 10, "velocity": 44}, {"time": 70560, "pitch": 35, "duration": 10, "velocity": 90}, {"time": 70560, "pitch": 42, "duration": 10, "velocity": 83}, {"time": 70709, "pitch": 38, "duration": 10, "velocity": 64}, {"time": 70799, "pitch": 35, "duration": 10, "velocity": 82}, {"time": 70799, "pitch": 46, "duration": 10, "velocity": 69}, {"time": 71037, "pitch": 38, "duration": 11, "velocity": 106}, {"time": 71037, "pitch": 42, "duration": 11, "velocity": 87}, {"time": 71118, "pitch": 38, "duration": 10, "velocity": 89}, {"time": 71198, "pitch": 35, "duration": 10, "velocity": 79}, {"time": 71198, "pitch": 57, "duration": 10, "velocity": 99}, {"time": 71279, "pitch": 38, "duration": 10, "velocity": 99}, {"time": 71359, "pitch": 48, "duration": 10, "velocity": 99}, {"time": 71440, "pitch": 47, "duration": 10, "velocity": 96}, {"time": 71520, "pitch": 35, "duration": 10, "velocity": 95}, {"time": 71520, "pitch": 49, "duration": 10, "velocity": 78}, {"time": 71759, "pitch": 42, "duration": 10, "velocity": 69}, {"time": 71998, "pitch": 38, "duration": 10, "velocity": 106}, {"time": 71998, "pitch": 42, "duration": 10, "velocity": 97}, {"time": 72239, "pitch": 42, "duration": 10, "velocity": 69}, {"time": 72400, "pitch": 36, "duration": 10, "velocity": 49}, {"time": 72480, "pitch": 35, "duration": 10, "velocity": 95}, {"time": 72480, "pitch": 42, "duration": 10, "velocity": 74}, {"time": 72719, "pitch": 42, "duration": 10, "velocity": 79}, {"time": 72958, "pitch": 38, "duration": 10, "velocity": 106}, {"time": 72958, "pitch": 42, "duration": 10, "velocity": 97}, {"time": 73199, "pitch": 42, "duration": 10, "velocity": 69}, {"time": 73441, "pitch": 35, "duration": 9, "velocity": 95}, {"time": 73441, "pitch": 42, "duration": 9, "velocity": 83}, {"time": 73679, "pitch": 42, "duration": 10, "velocity": 69}, {"time": 73918, "pitch": 38, "duration": 10, "velocity": 106}, {"time": 73918, "pitch": 42, "duration": 10, "velocity": 97}, {"time": 74159, "pitch": 42, "duration": 10, "velocity": 69}, {"time": 74320, "pitch": 36, "duration": 10, "velocity": 49}, {"time": 74401, "pitch": 35, "duration": 10, "velocity": 91}, {"time": 74401, "pitch": 42, "duration": 10, "velocity": 83}, {"time": 74639, "pitch": 35, "duration": 10, "velocity": 59}, {"time": 74639, "pitch": 42, "duration": 10, "velocity": 69}, {"time": 74878, "pitch": 38, "duration": 10, "velocity": 106}, {"time": 74878, "pitch": 42, "duration": 10, "velocity": 97}, {"time": 75029, "pitch": 35, "duration": 10, "velocity": 63}, {"time": 75119, "pitch": 45, "duration": 10, "velocity": 94}, {"time": 75119, "pitch": 46, "duration": 10, "velocity": 93}, {"time": 75361, "pitch": 35, "duration": 10, "velocity": 97}, {"time": 75361, "pitch": 57, "duration": 10, "velocity": 86}, {"time": 75599, "pitch": 35, "duration": 10, "velocity": 94}, {"time": 75599, "pitch": 42, "duration": 10, "velocity": 69}, {"time": 75838, "pitch": 38, "duration": 10, "velocity": 106}, {"time": 75838, "pitch": 42, "duration": 10, "velocity": 97}, {"time": 76079, "pitch": 42, "duration": 10, "velocity": 69}, {"time": 76321, "pitch": 35, "duration": 10, "velocity": 95}, {"time": 76321, "pitch": 42, "duration": 10, "velocity": 74}, {"time": 76559, "pitch": 35, "duration": 10, "velocity": 90}, {"time": 76559, "pitch": 42, "duration": 10, "velocity": 69}, {"time": 76798, "pitch": 38, "duration": 10, "velocity": 106}, {"time": 76798, "pitch": 42, "duration": 10, "velocity": 97}, {"time": 77039, "pitch": 42, "duration": 10, "velocity": 69}, {"time": 77281, "pitch": 35, "duration": 10, "velocity": 98}, {"time": 77281, "pitch": 42, "duration": 10, "velocity": 83}, {"time": 77519, "pitch": 35, "duration": 10, "velocity": 94}, {"time": 77519, "pitch": 42, "duration": 10, "velocity": 69}, {"time": 77758, "pitch": 38, "duration": 10, "velocity": 106}, {"time": 77758, "pitch": 49, "duration": 10, "velocity": 87}, {"time": 77999, "pitch": 42, "duration": 11, "velocity": 69}, {"time": 78160, "pitch": 35, "duration": 11, "velocity": 67}, {"time": 78241, "pitch": 35, "duration": 10, "velocity": 97}, {"time": 78241, "pitch": 42, "duration": 10, "velocity": 83}, {"time": 78400, "pitch": 42, "duration": 10, "velocity": 76}, {"time": 78480, "pitch": 35, "duration": 9, "velocity": 93}, {"time": 78480, "pitch": 46, "duration": 9, "velocity": 69}, {"time": 78718, "pitch": 38, "duration": 10, "velocity": 106}, {"time": 78799, "pitch": 38, "duration": 10, "velocity": 87}, {"time": 78879, "pitch": 38, "duration": 10, "velocity": 100}, {"time": 78960, "pitch": 47, "duration": 10, "velocity": 88}, {"time": 79040, "pitch": 47, "duration": 10, "velocity": 87}, {"time": 79121, "pitch": 47, "duration": 10, "velocity": 79}, {"time": 79201, "pitch": 35, "duration": 10, "velocity": 100}, {"time": 79201, "pitch": 57, "duration": 10, "velocity": 85}, {"time": 79440, "pitch": 51, "duration": 10, "velocity": 69}, {"time": 79589, "pitch": 35, "duration": 10, "velocity": 59}, {"time": 79678, "pitch": 38, "duration": 10, "velocity": 106}, {"time": 79678, "pitch": 51, "duration": 10, "velocity": 97}, {"time": 79920, "pitch": 51, "duration": 10, "velocity": 69}, {"time": 80071, "pitch": 38, "duration": 10, "velocity": 78}, {"time": 80161, "pitch": 35, "duration": 10, "velocity": 98}, {"time": 80161, "pitch": 51, "duration": 10, "velocity": 83}, {"time": 80310, "pitch": 38, "duration": 10, "velocity": 59}, {"time": 80400, "pitch": 35, "duration": 10, "velocity": 92}, {"time": 80400, "pitch": 51, "duration": 10, "velocity": 69}, {"time": 80638, "pitch": 38, "duration": 10, "velocity": 106}, {"time": 80638, "pitch": 51, "duration": 10, "velocity": 87}, {"time": 80880, "pitch": 42, "duration": 10, "velocity": 73}, {"time": 81031, "pitch": 35, "duration": 10, "velocity": 69}, {"time": 81121, "pitch": 35, "duration": 10, "velocity": 100}, {"time": 81121, "pitch": 51, "duration": 10, "velocity": 94}, {"time": 81360, "pitch": 51, "duration": 10, "velocity": 69}, {"time": 81509, "pitch": 35, "duration": 10, "velocity": 59}, {"time": 81598, "pitch": 38, "duration": 10, "velocity": 106}, {"time": 81598, "pitch": 51, "duration": 10, "velocity": 97}, {"time": 81840, "pitch": 51, "duration": 10, "velocity": 69}, {"time": 81991, "pitch": 38, "duration": 10, "velocity": 78}, {"time": 82081, "pitch": 35, "duration": 10, "velocity": 98}, {"time": 82081, "pitch": 51, "duration": 10, "velocity": 83}, {"time": 82230, "pitch": 38, "duration": 10, "velocity": 64}, {"time": 82320, "pitch": 35, "duration": 10, "velocity": 92}, {"time": 82320, "pitch": 51, "duration": 10, "velocity": 69}, {"time": 82558, "pitch": 38, "duration": 10, "velocity": 106}, {"time": 82558, "pitch": 51, "duration": 10, "velocity": 87}, {"time": 82800, "pitch": 51, "duration": 10, "velocity": 73}, {"time": 82951, "pitch": 35, "duration": 10, "velocity": 69}, {"time": 83041, "pitch": 35, "duration": 10, "velocity": 100}, {"time": 83041, "pitch": 51, "duration": 10, "velocity": 94}, {"time": 83280, "pitch": 51, "duration": 10, "velocity": 69}, {"time": 83429, "pitch": 35, "duration": 10, "velocity": 59}, {"time": 83519, "pitch": 38, "duration": 10, "velocity": 106}, {"time": 83519, "pitch": 51, "duration": 10, "velocity": 97}, {"time": 83760, "pitch": 51, "duration": 10, "velocity": 69}, {"time": 83911, "pitch": 38, "duration": 10, "velocity": 78}, {"time": 84001, "pitch": 35, "duration": 10, "velocity": 98}, {"time": 84001, "pitch": 51, "duration": 10, "velocity": 83}, {"time": 84151, "pitch": 38, "duration": 9, "velocity": 64}, {"time": 84240, "pitch": 35, "duration": 10, "velocity": 92}, {"time": 84240, "pitch": 51, "duration": 10, "velocity": 69}, {"time": 84479, "pitch": 38, "duration": 10, "velocity": 106}, {"time": 84479, "pitch": 51, "duration": 10, "velocity": 87}, {"time": 84720, "pitch": 51, "duration": 10, "velocity": 73}, {"time": 84871, "pitch": 35, "duration": 10, "velocity": 69}, {"time": 84961, "pitch": 35, "duration": 10, "velocity": 100}, {"time": 84961, "pitch": 51, "duration": 10, "velocity": 94}, {"time": 85200, "pitch": 51, "duration": 10, "velocity": 69}, {"time": 85349, "pitch": 35, "duration": 10, "velocity": 59}, {"time": 85439, "pitch": 38, "duration": 10, "velocity": 106}, {"time": 85439, "pitch": 51, "duration": 10, "velocity": 97}, {"time": 85680, "pitch": 51, "duration": 10, "velocity": 69}, {"time": 85831, "pitch": 38, "duration": 10, "velocity": 78}, {"time": 85922, "pitch": 35, "duration": 9, "velocity": 98}, {"time": 85922, "pitch": 57, "duration": 9, "velocity": 63}, {"time": 86071, "pitch": 38, "duration": 10, "velocity": 64}, {"time": 86160, "pitch": 35, "duration": 10, "velocity": 92}, {"time": 86160, "pitch": 46, "duration": 10, "velocity": 89}, {"time": 86399, "pitch": 38, "duration": 10, "velocity": 106}, {"time": 86399, "pitch": 44, "duration": 10, "velocity": 96}, {"time": 86399, "pitch": 51, "duration": 10, "velocity": 87}, {"time": 86479, "pitch": 38, "duration": 10, "velocity": 100}, {"time": 86560, "pitch": 38, "duration": 10, "velocity": 85}, {"time": 86640, "pitch": 45, "duration": 10, "velocity": 105}, {"time": 86721, "pitch": 45, "duration": 10, "velocity": 102}, {"time": 86801, "pitch": 35, "duration": 10, "velocity": 69}, {"time": 86801, "pitch": 45, "duration": 10, "velocity": 69}, {"time": 86882, "pitch": 35, "duration": 10, "velocity": 100}, {"time": 86882, "pitch": 49, "duration": 10, "velocity": 84}, {"time": 87120, "pitch": 51, "duration": 10, "velocity": 69}, {"time": 87269, "pitch": 35, "duration": 10, "velocity": 59}, {"time": 87359, "pitch": 38, "duration": 10, "velocity": 106}, {"time": 87359, "pitch": 51, "duration": 10, "velocity": 97}, {"time": 87600, "pitch": 51, "duration": 10, "velocity": 69}, {"time": 87751, "pitch": 38, "duration": 10, "velocity": 78}, {"time": 87842, "pitch": 35, "duration": 10, "velocity": 98}, {"time": 87842, "pitch": 51, "duration": 10, "velocity": 83}, {"time": 87991, "pitch": 38, "duration": 10, "velocity": 64}, {"time": 88080, "pitch": 35, "duration": 10, "velocity": 92}, {"time": 88080, "pitch": 51, "duration": 10, "velocity": 69}, {"time": 88319, "pitch": 38, "duration": 10, "velocity": 106}, {"time": 88319, "pitch": 51, "duration": 10, "velocity": 87}, {"time": 88560, "pitch": 51, "duration": 10, "velocity": 73}, {"time": 88711, "pitch": 35, "duration": 10, "velocity": 69}, {"time": 88802, "pitch": 35, "duration": 10, "velocity": 100}, {"time": 88802, "pitch": 51, "duration": 10, "velocity": 94}, {"time": 89040, "pitch": 51, "duration": 10, "velocity": 69}, {"time": 89190, "pitch": 35, "duration": 9, "velocity": 59}, {"time": 89279, "pitch": 38, "duration": 10, "velocity": 106}, {"time": 89279, "pitch": 51, "duration": 10, "velocity": 97}, {"time": 89520, "pitch": 51, "duration": 10, "velocity": 69}, {"time": 89671, "pitch": 38, "duration": 10, "velocity": 78}, {"time": 89762, "pitch": 35, "duration": 10, "velocity": 98}, {"time": 89762, "pitch": 51, "duration": 10, "velocity": 83}, {"time": 89911, "pitch": 38, "duration": 10, "velocity": 64}, {"time": 90000, "pitch": 35, "duration": 10, "velocity": 92}, {"time": 90000, "pitch": 51, "duration": 10, "velocity": 69}, {"time": 90239, "pitch": 38, "duration": 10, "velocity": 106}, {"time": 90239, "pitch": 51, "duration": 10, "velocity": 87}, {"time": 90481, "pitch": 51, "duration": 10, "velocity": 73}, {"time": 90631, "pitch": 35, "duration": 10, "velocity": 69}, {"time": 90722, "pitch": 35, "duration": 10, "velocity": 95}, {"time": 90722, "pitch": 57, "duration": 10, "velocity": 82}, {"time": 90961, "pitch": 51, "duration": 9, "velocity": 69}, {"time": 91110, "pitch": 35, "duration": 10, "velocity": 59}, {"time": 91199, "pitch": 38, "duration": 10, "velocity": 106}, {"time": 91199, "pitch": 51, "duration": 10, "velocity": 97}, {"time": 91441, "pitch": 51, "duration": 10, "velocity": 69}, {"time": 91592, "pitch": 38, "duration": 10, "velocity": 78}, {"time": 91682, "pitch": 35, "duration": 10, "velocity": 98}, {"time": 91682, "pitch": 51, "duration": 10, "velocity": 83}, {"time": 91831, "pitch": 38, "duration": 10, "velocity": 64}, {"time": 91921, "pitch": 35, "duration": 10, "velocity": 92}, {"time": 91921, "pitch": 51, "duration": 10, "velocity": 69}, {"time": 92159, "pitch": 38, "duration": 10, "velocity": 106}, {"time": 92159, "pitch": 51, "duration": 10, "velocity": 87}, {"time": 92401, "pitch": 51, "duration": 10, "velocity": 73}, {"time": 92552, "pitch": 35, "duration": 10, "velocity": 69}, {"time": 92642, "pitch": 35, "duration": 10, "velocity": 100}, {"time": 92642, "pitch": 49, "duration": 10, "velocity": 74}, {"time": 92881, "pitch": 51, "duration": 10, "velocity": 69}, {"time": 93030, "pitch": 35, "duration": 10, "velocity": 59}, {"time": 93119, "pitch": 38, "duration": 10, "velocity": 106}, {"time": 93119, "pitch": 51, "duration": 10, "velocity": 97}, {"time": 93361, "pitch": 51, "duration": 10, "velocity": 69}, {"time": 93512, "pitch": 38, "duration": 10, "velocity": 78}, {"time": 93602, "pitch": 35, "duration": 10, "velocity": 98}, {"time": 93602, "pitch": 57, "duration": 10, "velocity": 63}, {"time": 93751, "pitch": 38, "duration": 10, "velocity": 64}, {"time": 93841, "pitch": 35, "duration": 10, "velocity": 95}, {"time": 93841, "pitch": 46, "duration": 10, "velocity": 89}, {"time": 93920, "pitch": 38, "duration": 10, "velocity": 106}, {"time": 93920, "pitch": 44, "duration": 10, "velocity": 96}, {"time": 93920, "pitch": 51, "duration": 10, "velocity": 87}, {"time": 94000, "pitch": 38, "duration": 10, "velocity": 100}, {"time": 94079, "pitch": 38, "duration": 10, "velocity": 85}, {"time": 94160, "pitch": 47, "duration": 10, "velocity": 103}, {"time": 94240, "pitch": 47, "duration": 10, "velocity": 99}, {"time": 94321, "pitch": 47, "duration": 10, "velocity": 93}, {"time": 94401, "pitch": 45, "duration": 10, "velocity": 89}, {"time": 94482, "pitch": 45, "duration": 10, "velocity": 86}, {"time": 94562, "pitch": 35, "duration": 10, "velocity": 100}, {"time": 94562, "pitch": 57, "duration": 10, "velocity": 84}, {"time": 94801, "pitch": 51, "duration": 10, "velocity": 69}, {"time": 94950, "pitch": 35, "duration": 10, "velocity": 59}, {"time": 95039, "pitch": 38, "duration": 11, "velocity": 106}, {"time": 95039, "pitch": 51, "duration": 11, "velocity": 97}, {"time": 95281, "pitch": 51, "duration": 10, "velocity": 69}, {"time": 95432, "pitch": 38, "duration": 10, "velocity": 68}, {"time": 95522, "pitch": 35, "duration": 10, "velocity": 98}, {"time": 95522, "pitch": 51, "duration": 10, "velocity": 83}, {"time": 95671, "pitch": 38, "duration": 10, "velocity": 64}, {"time": 95761, "pitch": 35, "duration": 10, "velocity": 92}, {"time": 95761, "pitch": 51, "duration": 10, "velocity": 69}, {"time": 96000, "pitch": 38, "duration": 10, "velocity": 106}, {"time": 96000, "pitch": 51, "duration": 10, "velocity": 87}, {"time": 96241, "pitch": 51, "duration": 10, "velocity": 73}, {"time": 96392, "pitch": 35, "duration": 10, "velocity": 69}, {"time": 96482, "pitch": 35, "duration": 10, "velocity": 100}, {"time": 96482, "pitch": 51, "duration": 10, "velocity": 84}, {"time": 96721, "pitch": 51, "duration": 10, "velocity": 69}, {"time": 96870, "pitch": 35, "duration": 10, "velocity": 59}, {"time": 96960, "pitch": 35, "duration": 10, "velocity": 97}, {"time": 96960, "pitch": 38, "duration": 10, "velocity": 106}, {"time": 97201, "pitch": 51, "duration": 10, "velocity": 69}, {"time": 97352, "pitch": 38, "duration": 10, "velocity": 78}, {"time": 97442, "pitch": 35, "duration": 10, "velocity": 98}, {"time": 97442, "pitch": 51, "duration": 10, "velocity": 83}, {"time": 97592, "pitch": 38, "duration": 10, "velocity": 64}, {"time": 97681, "pitch": 35, "duration": 10, "velocity": 92}, {"time": 97681, "pitch": 51, "duration": 10, "velocity": 69}, {"time": 97920, "pitch": 38, "duration": 10, "velocity": 106}, {"time": 97920, "pitch": 51, "duration": 10, "velocity": 87}, {"time": 98161, "pitch": 38, "duration": 10, "velocity": 78}, {"time": 98161, "pitch": 51, "duration": 10, "velocity": 73}, {"time": 98312, "pitch": 47, "duration": 10, "velocity": 88}, {"time": 98403, "pitch": 35, "duration": 10, "velocity": 100}, {"time": 98403, "pitch": 49, "duration": 10, "velocity": 84}, {"time": 98641, "pitch": 51, "duration": 10, "velocity": 71}, {"time": 98880, "pitch": 38, "duration": 10, "velocity": 106}, {"time": 98900, "pitch": 38, "duration": 10, "velocity": 87}, {"time": 99121, "pitch": 35, "duration": 10, "velocity": 100}, {"time": 99121, "pitch": 57, "duration": 10, "velocity": 94}, {"time": 99512, "pitch": 38, "duration": 10, "velocity": 50}, {"time": 99601, "pitch": 35, "duration": 10, "velocity": 75}, {"time": 99601, "pitch": 47, "duration": 10, "velocity": 102}, {"time": 99840, "pitch": 38, "duration": 10, "velocity": 103}, {"time": 99840, "pitch": 49, "duration": 10, "velocity": 88}, {"time": 99961, "pitch": 45, "duration": 10, "velocity": 102}, {"time": 100081, "pitch": 45, "duration": 10, "velocity": 94}, {"time": 100202, "pitch": 43, "duration": 10, "velocity": 93}, {"time": 100323, "pitch": 35, "duration": 10, "velocity": 100}, {"time": 100323, "pitch": 57, "duration": 10, "velocity": 84}, {"time": 100561, "pitch": 51, "duration": 10, "velocity": 71}, {"time": 100800, "pitch": 38, "duration": 10, "velocity": 106}, {"time": 100820, "pitch": 38, "duration": 10, "velocity": 87}, {"time": 101041, "pitch": 35, "duration": 10, "velocity": 100}, {"time": 101041, "pitch": 49, "duration": 10, "velocity": 94}, {"time": 101283, "pitch": 45, "duration": 10, "velocity": 80}, {"time": 101402, "pitch": 45, "duration": 10, "velocity": 60}, {"time": 101521, "pitch": 38, "duration": 10, "velocity": 75}, {"time": 101641, "pitch": 38, "duration": 10, "velocity": 95}, {"time": 101760, "pitch": 38, "duration": 10, "velocity": 105}, {"time": 101879, "pitch": 35, "duration": 10, "velocity": 100}, {"time": 101879, "pitch": 57, "duration": 10, "velocity": 88}, {"time": 102118, "pitch": 38, "duration": 10, "velocity": 88}, {"time": 102148, "pitch": 38, "duration": 10, "velocity": 65}, {"time": 102178, "pitch": 38, "duration": 10, "velocity": 76}, {"time": 102237, "pitch": 35, "duration": 10, "velocity": 100}, {"time": 102237, "pitch": 57, "duration": 10, "velocity": 84}, {"time": 102479, "pitch": 51, "duration": 10, "velocity": 69}, {"time": 102630, "pitch": 35, "duration": 10, "velocity": 59}, {"time": 102720, "pitch": 38, "duration": 10, "velocity": 106}, {"time": 102720, "pitch": 51, "duration": 10, "velocity": 97}, {"time": 102959, "pitch": 51, "duration": 10, "velocity": 69}, {"time": 103108, "pitch": 38, "duration": 10, "velocity": 78}, {"time": 103197, "pitch": 35, "duration": 10, "velocity": 98}, {"time": 103197, "pitch": 51, "duration": 10, "velocity": 83}, {"time": 103348, "pitch": 38, "duration": 10, "velocity": 64}, {"time": 103439, "pitch": 35, "duration": 10, "velocity": 92}, {"time": 103439, "pitch": 51, "duration": 10, "velocity": 69}, {"time": 103680, "pitch": 38, "duration": 10, "velocity": 106}, {"time": 103680, "pitch": 51, "duration": 10, "velocity": 87}, {"time": 103919, "pitch": 51, "duration": 10, "velocity": 73}, {"time": 104068, "pitch": 35, "duration": 10, "velocity": 69}, {"time": 104157, "pitch": 35, "duration": 10, "velocity": 100}, {"time": 104157, "pitch": 51, "duration": 10, "velocity": 84}, {"time": 104399, "pitch": 51, "duration": 10, "velocity": 69}, {"time": 104550, "pitch": 35, "duration": 10, "velocity": 59}, {"time": 104640, "pitch": 38, "duration": 10, "velocity": 106}, {"time": 104640, "pitch": 51, "duration": 10, "velocity": 97}, {"time": 104879, "pitch": 51, "duration": 10, "velocity": 69}, {"time": 105028, "pitch": 38, "duration": 10, "velocity": 78}, {"time": 105117, "pitch": 35, "duration": 11, "velocity": 98}, {"time": 105117, "pitch": 51, "duration": 11, "velocity": 83}, {"time": 105268, "pitch": 38, "duration": 10, "velocity": 64}, {"time": 105359, "pitch": 35, "duration": 10, "velocity": 61}, {"time": 105359, "pitch": 51, "duration": 10, "velocity": 69}, {"time": 105510, "pitch": 38, "duration": 10, "velocity": 47}, {"time": 105600, "pitch": 38, "duration": 10, "velocity": 106}, {"time": 105600, "pitch": 51, "duration": 10, "velocity": 87}, {"time": 105749, "pitch": 35, "duration": 10, "velocity": 67}, {"time": 105839, "pitch": 38, "duration": 10, "velocity": 78}, {"time": 105839, "pitch": 51, "duration": 10, "velocity": 73}, {"time": 105918, "pitch": 38, "duration": 10, "velocity": 96}, {"time": 105998, "pitch": 45, "duration": 10, "velocity": 96}, {"time": 106078, "pitch": 35, "duration": 10, "velocity": 100}, {"time": 106078, "pitch": 49, "duration": 10, "velocity": 84}, {"time": 106319, "pitch": 51, "duration": 10, "velocity": 69}, {"time": 106470, "pitch": 35, "duration": 10, "velocity": 59}, {"time": 106560, "pitch": 38, "duration": 10, "velocity": 106}, {"time": 106560, "pitch": 51, "duration": 10, "velocity": 97}, {"time": 106799, "pitch": 51, "duration": 10, "velocity": 69}, {"time": 106948, "pitch": 38, "duration": 10, "velocity": 78}, {"time": 107038, "pitch": 35, "duration": 10, "velocity": 97}, {"time": 107038, "pitch": 57, "duration": 10, "velocity": 83}, {"time": 107118, "pitch": 38, "duration": 10, "velocity": 47}, {"time": 107199, "pitch": 38, "duration": 10, "velocity": 64}, {"time": 107279, "pitch": 35, "duration": 10, "velocity": 61}, {"time": 107279, "pitch": 51, "duration": 10, "velocity": 69}, {"time": 107440, "pitch": 35, "duration": 10, "velocity": 65}, {"time": 107521, "pitch": 38, "duration": 9, "velocity": 106}, {"time": 107521, "pitch": 46, "duration": 9, "velocity": 87}, {"time": 107600, "pitch": 38, "duration": 10, "velocity": 79}, {"time": 107630, "pitch": 38, "duration": 10, "velocity": 92}, {"time": 107680, "pitch": 47, "duration": 10, "velocity": 97}, {"time": 107759, "pitch": 47, "duration": 10, "velocity": 87}, {"time": 107839, "pitch": 47, "duration": 10, "velocity": 81}, {"time": 107918, "pitch": 45, "duration": 10, "velocity": 93}, {"time": 107998, "pitch": 35, "duration": 10, "velocity": 97}, {"time": 107998, "pitch": 57, "duration": 10, "velocity": 84}, {"time": 108239, "pitch": 47, "duration": 10, "velocity": 107}, {"time": 108481, "pitch": 38, "duration": 10, "velocity": 98}, {"time": 108481, "pitch": 49, "duration": 10, "velocity": 93}, {"time": 108600, "pitch": 38, "duration": 10, "velocity": 90}, {"time": 108719, "pitch": 45, "duration": 10, "velocity": 87}, {"time": 108958, "pitch": 35, "duration": 10, "velocity": 95}, {"time": 108958, "pitch": 38, "duration": 10, "velocity": 101}, {"time": 109078, "pitch": 38, "duration": 11, "velocity": 88}, {"time": 109199, "pitch": 45, "duration": 10, "velocity": 94}, {"time": 109320, "pitch": 45, "duration": 10, "velocity": 94}, {"time": 109441, "pitch": 47, "duration": 10, "velocity": 102}, {"time": 109560, "pitch": 43, "duration": 10, "velocity": 90}, {"time": 109679, "pitch": 35, "duration": 10, "velocity": 95}, {"time": 109679, "pitch": 38, "duration": 10, "velocity": 92}, {"time": 109679, "pitch": 49, "duration": 10, "velocity": 92}, {"time": 109918, "pitch": 35, "duration": 10, "velocity": 60}, {"time": 110159, "pitch": 35, "duration": 10, "velocity": 89}, {"time": 110159, "pitch": 51, "duration": 10, "velocity": 69}, {"time": 110401, "pitch": 38, "duration": 10, "velocity": 106}, {"time": 110401, "pitch": 51, "duration": 10, "velocity": 97}, {"time": 110639, "pitch": 51, "duration": 10, "velocity": 69}, {"time": 110788, "pitch": 38, "duration": 10, "velocity": 78}, {"time": 110878, "pitch": 35, "duration": 10, "velocity": 97}, {"time": 110878, "pitch": 57, "duration": 10, "velocity": 84}, {"time": 111119, "pitch": 51, "duration": 10, "velocity": 84}, {"time": 111280, "pitch": 35, "duration": 10, "velocity": 74}, {"time": 111361, "pitch": 35, "duration": 10, "velocity": 95}, {"time": 111361, "pitch": 57, "duration": 10, "velocity": 90}, {"time": 111440, "pitch": 38, "duration": 10, "velocity": 40}, {"time": 111520, "pitch": 35, "duration": 10, "velocity": 98}, {"time": 111520, "pitch": 51, "duration": 10, "velocity": 98}, {"time": 111599, "pitch": 38, "duration": 10, "velocity": 94}, {"time": 111679, "pitch": 35, "duration": 10, "velocity": 92}, {"time": 111679, "pitch": 51, "duration": 10, "velocity": 98}, {"time": 111758, "pitch": 38, "duration": 10, "velocity": 50}, {"time": 111838, "pitch": 35, "duration": 10, "velocity": 95}, {"time": 111838, "pitch": 49, "duration": 10, "velocity": 88}, {"time": 111918, "pitch": 38, "duration": 11, "velocity": 42}, {"time": 111999, "pitch": 51, "duration": 10, "velocity": 98}, {"time": 112079, "pitch": 35, "duration": 11, "velocity": 90}, {"time": 112079, "pitch": 38, "duration": 11, "velocity": 98}, {"time": 112160, "pitch": 51, "duration": 10, "velocity": 92}, {"time": 112240, "pitch": 38, "duration": 10, "velocity": 46}, {"time": 112321, "pitch": 35, "duration": 10, "velocity": 100}, {"time": 112321, "pitch": 57, "duration": 10, "velocity": 96}, {"time": 112400, "pitch": 47, "duration": 10, "velocity": 98}, {"time": 112480, "pitch": 43, "duration": 10, "velocity": 95}, {"time": 112560, "pitch": 38, "duration": 9, "velocity": 102}, {"time": 112589, "pitch": 38, "duration": 10, "velocity": 80}, {"time": 112639, "pitch": 38, "duration": 10, "velocity": 95}, {"time": 112719, "pitch": 38, "duration": 10, "velocity": 100}, {"time": 112798, "pitch": 47, "duration": 10, "velocity": 92}, {"time": 112879, "pitch": 47, "duration": 10, "velocity": 90}, {"time": 112959, "pitch": 45, "duration": 10, "velocity": 96}, {"time": 113040, "pitch": 45, "duration": 10, "velocity": 93}, {"time": 113120, "pitch": 43, "duration": 10, "velocity": 95}, {"time": 113201, "pitch": 43, "duration": 10, "velocity": 86}, {"time": 113281, "pitch": 38, "duration": 10, "velocity": 106}, {"time": 113281, "pitch": 57, "duration": 10, "velocity": 93}, {"time": 113361, "pitch": 47, "duration": 9, "velocity": 93}, {"time": 113440, "pitch": 43, "duration": 10, "velocity": 91}, {"time": 113520, "pitch": 38, "duration": 10, "velocity": 101}, {"time": 113520, "pitch": 49, "duration": 10, "velocity": 69}, {"time": 113599, "pitch": 45, "duration": 10, "velocity": 98}, {"time": 113679, "pitch": 45, "duration": 10, "velocity": 77}, {"time": 113758, "pitch": 35, "duration": 10, "velocity": 100}, {"time": 113758, "pitch": 57, "duration": 10, "velocity": 85}, {"time": 114000, "pitch": 51, "duration": 10, "velocity": 69}, {"time": 114151, "pitch": 35, "duration": 10, "velocity": 59}, {"time": 114241, "pitch": 38, "duration": 10, "velocity": 106}, {"time": 114241, "pitch": 51, "duration": 10, "velocity": 97}, {"time": 114321, "pitch": 38, "duration": 10, "velocity": 77}, {"time": 114400, "pitch": 38, "duration": 10, "velocity": 41}, {"time": 114480, "pitch": 51, "duration": 10, "velocity": 69}, {"time": 114629, "pitch": 38, "duration": 10, "velocity": 78}, {"time": 114718, "pitch": 35, "duration": 10, "velocity": 98}, {"time": 114718, "pitch": 51, "duration": 10, "velocity": 83}, {"time": 114869, "pitch": 38, "duration": 10, "velocity": 64}, {"time": 114960, "pitch": 35, "duration": 10, "velocity": 92}, {"time": 114960, "pitch": 51, "duration": 10, "velocity": 69}, {"time": 115111, "pitch": 35, "duration": 10, "velocity": 62}, {"time": 115201, "pitch": 38, "duration": 10, "velocity": 106}, {"time": 115201, "pitch": 51, "duration": 10, "velocity": 87}, {"time": 115350, "pitch": 38, "duration": 10, "velocity": 67}, {"time": 115440, "pitch": 51, "duration": 10, "velocity": 73}, {"time": 115589, "pitch": 35, "duration": 10, "velocity": 69}, {"time": 115678, "pitch": 35, "duration": 10, "velocity": 100}, {"time": 115678, "pitch": 51, "duration": 10, "velocity": 94}, {"time": 115920, "pitch": 51, "duration": 10, "velocity": 69}, {"time": 116071, "pitch": 35, "duration": 10, "velocity": 59}, {"time": 116161, "pitch": 38, "duration": 10, "velocity": 106}, {"time": 116161, "pitch": 57, "duration": 10, "velocity": 77}, {"time": 116400, "pitch": 51, "duration": 10, "velocity": 69}, {"time": 116549, "pitch": 38, "duration": 10, "velocity": 78}, {"time": 116638, "pitch": 35, "duration": 10, "velocity": 98}, {"time": 116638, "pitch": 51, "duration": 10, "velocity": 83}, {"time": 116789, "pitch": 38, "duration": 10, "velocity": 64}, {"time": 116880, "pitch": 35, "duration": 10, "velocity": 92}, {"time": 116880, "pitch": 51, "duration": 10, "velocity": 69}, {"time": 117031, "pitch": 35, "duration": 10, "velocity": 69}, {"time": 117121, "pitch": 38, "duration": 10, "velocity": 106}, {"time": 117121, "pitch": 51, "duration": 10, "velocity": 87}, {"time": 117270, "pitch": 38, "duration": 10, "velocity": 77}, {"time": 117360, "pitch": 51, "duration": 10, "velocity": 73}, {"time": 117509, "pitch": 35, "duration": 10, "velocity": 69}, {"time": 117599, "pitch": 35, "duration": 10, "velocity": 100}, {"time": 117599, "pitch": 51, "duration": 10, "velocity": 94}, {"time": 117840, "pitch": 51, "duration": 10, "velocity": 69}, {"time": 117991, "pitch": 35, "duration": 10, "velocity": 59}, {"time": 118081, "pitch": 38, "duration": 10, "velocity": 106}, {"time": 118081, "pitch": 51, "duration": 10, "velocity": 97}, {"time": 118320, "pitch": 51, "duration": 10, "velocity": 69}, {"time": 118469, "pitch": 38, "duration": 10, "velocity": 78}, {"time": 118559, "pitch": 35, "duration": 10, "velocity": 98}, {"time": 118559, "pitch": 51, "duration": 10, "velocity": 83}, {"time": 118709, "pitch": 38, "duration": 11, "velocity": 64}, {"time": 118800, "pitch": 35, "duration": 10, "velocity": 92}, {"time": 118800, "pitch": 51, "duration": 10, "velocity": 69}, {"time": 118951, "pitch": 35, "duration": 10, "velocity": 69}, {"time": 119041, "pitch": 38, "duration": 10, "velocity": 106}, {"time": 119041, "pitch": 51, "duration": 10, "velocity": 87}, {"time": 119121, "pitch": 35, "duration": 10, "velocity": 87}, {"time": 119201, "pitch": 38, "duration": 9, "velocity": 57}, {"time": 119280, "pitch": 51, "duration": 10, "velocity": 73}, {"time": 119429, "pitch": 35, "duration": 10, "velocity": 69}, {"time": 119519, "pitch": 35, "duration": 10, "velocity": 100}, {"time": 119519, "pitch": 51, "duration": 10, "velocity": 94}, {"time": 119760, "pitch": 51, "duration": 10, "velocity": 69}, {"time": 119911, "pitch": 35, "duration": 10, "velocity": 59}, {"time": 120002, "pitch": 38, "duration": 9, "velocity": 106}, {"time": 120002, "pitch": 51, "duration": 9, "velocity": 97}, {"time": 120240, "pitch": 51, "duration": 10, "velocity": 69}, {"time": 120389, "pitch": 38, "duration": 10, "velocity": 78}, {"time": 120479, "pitch": 35, "duration": 10, "velocity": 98}, {"time": 120479, "pitch": 38, "duration": 10, "velocity": 63}, {"time": 120479, "pitch": 57, "duration": 10, "velocity": 63}, {"time": 120559, "pitch": 38, "duration": 10, "velocity": 94}, {"time": 120640, "pitch": 45, "duration": 10, "velocity": 94}, {"time": 120720, "pitch": 35, "duration": 10, "velocity": 92}, {"time": 120720, "pitch": 45, "duration": 10, "velocity": 89}, {"time": 120962, "pitch": 38, "duration": 10, "velocity": 106}, {"time": 120962, "pitch": 49, "duration": 10, "velocity": 79}, {"time": 121041, "pitch": 49, "duration": 10, "velocity": 39}, {"time": 121121, "pitch": 45, "duration": 10, "velocity": 80}, {"time": 121200, "pitch": 45, "duration": 10, "velocity": 105}, {"time": 121359, "pitch": 35, "duration": 10, "velocity": 69}, {"time": 121439, "pitch": 35, "duration": 10, "velocity": 100}, {"time": 121439, "pitch": 49, "duration": 10, "velocity": 84}, {"time": 121680, "pitch": 51, "duration": 10, "velocity": 69}, {"time": 121831, "pitch": 35, "duration": 10, "velocity": 59}, {"time": 121922, "pitch": 38, "duration": 10, "velocity": 106}, {"time": 121922, "pitch": 51, "duration": 10, "velocity": 97}, {"time": 122160, "pitch": 51, "duration": 10, "velocity": 69}, {"time": 122309, "pitch": 38, "duration": 10, "velocity": 78}, {"time": 122359, "pitch": 38, "duration": 10, "velocity": 58}, {"time": 122399, "pitch": 35, "duration": 10, "velocity": 98}, {"time": 122399, "pitch": 51, "duration": 10, "velocity": 83}, {"time": 122550, "pitch": 38, "duration": 10, "velocity": 64}, {"time": 122640, "pitch": 35, "duration": 10, "velocity": 92}, {"time": 122640, "pitch": 51, "duration": 10, "velocity": 69}, {"time": 122882, "pitch": 38, "duration": 10, "velocity": 106}, {"time": 122882, "pitch": 51, "duration": 10, "velocity": 87}, {"time": 123031, "pitch": 47, "duration": 10, "velocity": 87}, {"time": 123120, "pitch": 38, "duration": 10, "velocity": 73}, {"time": 123120, "pitch": 49, "duration": 10, "velocity": 63}, {"time": 123279, "pitch": 35, "duration": 10, "velocity": 69}, {"time": 123359, "pitch": 35, "duration": 10, "velocity": 100}, {"time": 123359, "pitch": 51, "duration": 10, "velocity": 94}, {"time": 123600, "pitch": 51, "duration": 10, "velocity": 69}, {"time": 123751, "pitch": 35, "duration": 10, "velocity": 59}, {"time": 123842, "pitch": 38, "duration": 10, "velocity": 106}, {"time": 123842, "pitch": 51, "duration": 10, "velocity": 97}, {"time": 124080, "pitch": 51, "duration": 10, "velocity": 69}, {"time": 124230, "pitch": 38, "duration": 10, "velocity": 78}, {"time": 124319, "pitch": 35, "duration": 10, "velocity": 98}, {"time": 124319, "pitch": 51, "duration": 10, "velocity": 83}, {"time": 124400, "pitch": 51, "duration": 10, "velocity": 53}, {"time": 124480, "pitch": 38, "duration": 10, "velocity": 64}, {"time": 124561, "pitch": 35, "duration": 10, "velocity": 92}, {"time": 124561, "pitch": 51, "duration": 10, "velocity": 69}, {"time": 124641, "pitch": 38, "duration": 10, "velocity": 49}, {"time": 124721, "pitch": 51, "duration": 11, "velocity": 89}, {"time": 124802, "pitch": 38, "duration": 10, "velocity": 106}, {"time": 124802, "pitch": 51, "duration": 10, "velocity": 87}, {"time": 124961, "pitch": 45, "duration": 10, "velocity": 87}, {"time": 125041, "pitch": 51, "duration": 9, "velocity": 73}, {"time": 125190, "pitch": 35, "duration": 10, "velocity": 69}, {"time": 125279, "pitch": 35, "duration": 10, "velocity": 100}, {"time": 125279, "pitch": 57, "duration": 10, "velocity": 82}, {"time": 125521, "pitch": 51, "duration": 10, "velocity": 69}, {"time": 125671, "pitch": 35, "duration": 11, "velocity": 59}, {"time": 125762, "pitch": 38, "duration": 10, "velocity": 106}, {"time": 125762, "pitch": 51, "duration": 10, "velocity": 97}, {"time": 126001, "pitch": 51, "duration": 10, "velocity": 69}, {"time": 126150, "pitch": 38, "duration": 10, "velocity": 78}, {"time": 126239, "pitch": 35, "duration": 10, "velocity": 98}, {"time": 126239, "pitch": 51, "duration": 10, "velocity": 83}, {"time": 126320, "pitch": 38, "duration": 10, "velocity": 33}, {"time": 126400, "pitch": 38, "duration": 10, "velocity": 64}, {"time": 126481, "pitch": 35, "duration": 10, "velocity": 92}, {"time": 126481, "pitch": 51, "duration": 10, "velocity": 69}, {"time": 126561, "pitch": 38, "duration": 10, "velocity": 51}, {"time": 126642, "pitch": 45, "duration": 10, "velocity": 49}, {"time": 126722, "pitch": 38, "duration": 10, "velocity": 106}, {"time": 126722, "pitch": 51, "duration": 10, "velocity": 87}, {"time": 126881, "pitch": 43, "duration": 10, "velocity": 67}, {"time": 126961, "pitch": 51, "duration": 10, "velocity": 73}, {"time": 127120, "pitch": 35, "duration": 10, "velocity": 69}, {"time": 127120, "pitch": 38, "duration": 10, "velocity": 88}, {"time": 127160, "pitch": 38, "duration": 9, "velocity": 70}, {"time": 127199, "pitch": 35, "duration": 10, "velocity": 100}, {"time": 127199, "pitch": 49, "duration": 10, "velocity": 74}, {"time": 127441, "pitch": 51, "duration": 10, "velocity": 69}, {"time": 127592, "pitch": 35, "duration": 10, "velocity": 59}, {"time": 127682, "pitch": 38, "duration": 10, "velocity": 106}, {"time": 127682, "pitch": 51, "duration": 10, "velocity": 97}, {"time": 127921, "pitch": 51, "duration": 10, "velocity": 69}, {"time": 128070, "pitch": 38, "duration": 10, "velocity": 78}, {"time": 128159, "pitch": 35, "duration": 10, "velocity": 98}, {"time": 128159, "pitch": 57, "duration": 10, "velocity": 63}, {"time": 128240, "pitch": 38, "duration": 10, "velocity": 54}, {"time": 128280, "pitch": 38, "duration": 10, "velocity": 84}, {"time": 128320, "pitch": 38, "duration": 10, "velocity": 104}, {"time": 128401, "pitch": 35, "duration": 10, "velocity": 92}, {"time": 128401, "pitch": 46, "duration": 10, "velocity": 89}, {"time": 128481, "pitch": 38, "duration": 10, "velocity": 106}, {"time": 128481, "pitch": 44, "duration": 10, "velocity": 96}, {"time": 128481, "pitch": 51, "duration": 10, "velocity": 87}, {"time": 128562, "pitch": 38, "duration": 10, "velocity": 100}, {"time": 128642, "pitch": 38, "duration": 10, "velocity": 85}, {"time": 128722, "pitch": 47, "duration": 10, "velocity": 103}, {"time": 128801, "pitch": 47, "duration": 10, "velocity": 99}, {"time": 128881, "pitch": 47, "duration": 10, "velocity": 93}, {"time": 128960, "pitch": 45, "duration": 10, "velocity": 89}, {"time": 129040, "pitch": 43, "duration": 10, "velocity": 86}, {"time": 129040, "pitch": 49, "duration": 10, "velocity": 76}, {"time": 129119, "pitch": 35, "duration": 11, "velocity": 100}, {"time": 129119, "pitch": 57, "duration": 11, "velocity": 86}, {"time": 129361, "pitch": 51, "duration": 10, "velocity": 69}, {"time": 129512, "pitch": 35, "duration": 10, "velocity": 59}, {"time": 129602, "pitch": 38, "duration": 10, "velocity": 106}, {"time": 129602, "pitch": 49, "duration": 10, "velocity": 87}, {"time": 129841, "pitch": 51, "duration": 10, "velocity": 69}, {"time": 129990, "pitch": 38, "duration": 10, "velocity": 78}, {"time": 130080, "pitch": 35, "duration": 10, "velocity": 98}, {"time": 130080, "pitch": 51, "duration": 10, "velocity": 83}, {"time": 130160, "pitch": 35, "duration": 10, "velocity": 64}, {"time": 130240, "pitch": 38, "duration": 11, "velocity": 64}, {"time": 130321, "pitch": 35, "duration": 10, "velocity": 92}, {"time": 130321, "pitch": 51, "duration": 10, "velocity": 69}, {"time": 130482, "pitch": 35, "duration": 10, "velocity": 49}, {"time": 130562, "pitch": 38, "duration": 10, "velocity": 106}, {"time": 130562, "pitch": 51, "duration": 10, "velocity": 87}, {"time": 130721, "pitch": 38, "duration": 10, "velocity": 87}, {"time": 130801, "pitch": 47, "duration": 10, "velocity": 86}, {"time": 130881, "pitch": 47, "duration": 9, "velocity": 73}, {"time": 130960, "pitch": 35, "duration": 10, "velocity": 69}, {"time": 130960, "pitch": 45, "duration": 10, "velocity": 69}, {"time": 131040, "pitch": 35, "duration": 10, "velocity": 100}, {"time": 131040, "pitch": 51, "duration": 10, "velocity": 94}, {"time": 131201, "pitch": 38, "duration": 10, "velocity": 54}, {"time": 131281, "pitch": 51, "duration": 10, "velocity": 69}, {"time": 131432, "pitch": 35, "duration": 10, "velocity": 59}, {"time": 131522, "pitch": 38, "duration": 10, "velocity": 106}, {"time": 131522, "pitch": 51, "duration": 10, "velocity": 97}, {"time": 131761, "pitch": 51, "duration": 10, "velocity": 69}, {"time": 131910, "pitch": 38, "duration": 10, "velocity": 78}, {"time": 132000, "pitch": 35, "duration": 10, "velocity": 98}, {"time": 132000, "pitch": 51, "duration": 10, "velocity": 83}, {"time": 132151, "pitch": 38, "duration": 10, "velocity": 44}, {"time": 132241, "pitch": 35, "duration": 10, "velocity": 92}, {"time": 132241, "pitch": 38, "duration": 10, "velocity": 92}, {"time": 132241, "pitch": 49, "duration": 10, "velocity": 69}, {"time": 132402, "pitch": 35, "duration": 10, "velocity": 69}, {"time": 132483, "pitch": 38, "duration": 10, "velocity": 106}, {"time": 132483, "pitch": 57, "duration": 10, "velocity": 87}, {"time": 132522, "pitch": 38, "duration": 10, "velocity": 67}, {"time": 132562, "pitch": 38, "duration": 10, "velocity": 90}, {"time": 132602, "pitch": 38, "duration": 10, "velocity": 60}, {"time": 132642, "pitch": 47, "duration": 10, "velocity": 85}, {"time": 132681, "pitch": 47, "duration": 10, "velocity": 55}, {"time": 132721, "pitch": 43, "duration": 10, "velocity": 73}, {"time": 132721, "pitch": 51, "duration": 10, "velocity": 73}, {"time": 132880, "pitch": 35, "duration": 10, "velocity": 69}, {"time": 132960, "pitch": 35, "duration": 10, "velocity": 100}, {"time": 132960, "pitch": 49, "duration": 10, "velocity": 89}, {"time": 133201, "pitch": 51, "duration": 10, "velocity": 69}, {"time": 133352, "pitch": 35, "duration": 10, "velocity": 59}, {"time": 133443, "pitch": 38, "duration": 10, "velocity": 106}, {"time": 133443, "pitch": 51, "duration": 10, "velocity": 97}, {"time": 133681, "pitch": 51, "duration": 10, "velocity": 69}, {"time": 133830, "pitch": 38, "duration": 10, "velocity": 78}, {"time": 133920, "pitch": 35, "duration": 10, "velocity": 98}, {"time": 133920, "pitch": 51, "duration": 10, "velocity": 83}, {"time": 134071, "pitch": 38, "duration": 10, "velocity": 64}, {"time": 134161, "pitch": 35, "duration": 10, "velocity": 92}, {"time": 134161, "pitch": 51, "duration": 10, "velocity": 69}, {"time": 134403, "pitch": 38, "duration": 10, "velocity": 106}, {"time": 134403, "pitch": 51, "duration": 10, "velocity": 87}, {"time": 134641, "pitch": 51, "duration": 10, "velocity": 73}, {"time": 134800, "pitch": 35, "duration": 10, "velocity": 69}, {"time": 134880, "pitch": 35, "duration": 10, "velocity": 100}, {"time": 134880, "pitch": 51, "duration": 10, "velocity": 94}, {"time": 135121, "pitch": 51, "duration": 10, "velocity": 69}, {"time": 135272, "pitch": 35, "duration": 10, "velocity": 59}, {"time": 135363, "pitch": 38, "duration": 10, "velocity": 106}, {"time": 135363, "pitch": 51, "duration": 10, "velocity": 97}, {"time": 135601, "pitch": 51, "duration": 10, "velocity": 69}, {"time": 135751, "pitch": 38, "duration": 9, "velocity": 78}, {"time": 135840, "pitch": 35, "duration": 10, "velocity": 98}, {"time": 135840, "pitch": 57, "duration": 10, "velocity": 63}, {"time": 135989, "pitch": 38, "duration": 10, "velocity": 64}, {"time": 136079, "pitch": 35, "duration": 10, "velocity": 92}, {"time": 136079, "pitch": 46, "duration": 10, "velocity": 89}, {"time": 136238, "pitch": 38, "duration": 10, "velocity": 79}, {"time": 136277, "pitch": 38, "duration": 10, "velocity": 57}, {"time": 136317, "pitch": 38, "duration": 10, "velocity": 106}, {"time": 136317, "pitch": 44, "duration": 10, "velocity": 96}, {"time": 136317, "pitch": 51, "duration": 10, "velocity": 87}, {"time": 136398, "pitch": 38, "duration": 10, "velocity": 100}, {"time": 136478, "pitch": 38, "duration": 10, "velocity": 85}, {"time": 136559, "pitch": 45, "duration": 10, "velocity": 105}, {"time": 136639, "pitch": 45, "duration": 10, "velocity": 102}, {"time": 136720, "pitch": 35, "duration": 10, "velocity": 69}, {"time": 136720, "pitch": 43, "duration": 10, "velocity": 69}, {"time": 136800, "pitch": 35, "duration": 10, "velocity": 100}, {"time": 136800, "pitch": 49, "duration": 10, "velocity": 84}, {"time": 137039, "pitch": 51, "duration": 10, "velocity": 69}, {"time": 137188, "pitch": 35, "duration": 10, "velocity": 59}, {"time": 137277, "pitch": 38, "duration": 10, "velocity": 106}, {"time": 137277, "pitch": 57, "duration": 10, "velocity": 88}, {"time": 137519, "pitch": 51, "duration": 10, "velocity": 69}, {"time": 137680, "pitch": 38, "duration": 10, "velocity": 78}, {"time": 137720, "pitch": 38, "duration": 10, "velocity": 52}, {"time": 137760, "pitch": 35, "duration": 10, "velocity": 98}, {"time": 137760, "pitch": 51, "duration": 10, "velocity": 83}, {"time": 137909, "pitch": 38, "duration": 10, "velocity": 64}, {"time": 137999, "pitch": 35, "duration": 10, "velocity": 92}, {"time": 137999, "pitch": 51, "duration": 10, "velocity": 69}, {"time": 138078, "pitch": 47, "duration": 10, "velocity": 79}, {"time": 138158, "pitch": 43, "duration": 10, "velocity": 65}, {"time": 138237, "pitch": 38, "duration": 10, "velocity": 106}, {"time": 138237, "pitch": 57, "duration": 10, "velocity": 84}, {"time": 138408, "pitch": 38, "duration": 10, "velocity": 103}, {"time": 138408, "pitch": 49, "duration": 10, "velocity": 89}, {"time": 138579, "pitch": 38, "duration": 10, "velocity": 99}, {"time": 138620, "pitch": 38, "duration": 10, "velocity": 62}, {"time": 138650, "pitch": 38, "duration": 10, "velocity": 72}, {"time": 138720, "pitch": 35, "duration": 10, "velocity": 100}, {"time": 138720, "pitch": 57, "duration": 10, "velocity": 87}, {"time": 138959, "pitch": 51, "duration": 10, "velocity": 69}, {"time": 139108, "pitch": 35, "duration": 10, "velocity": 59}, {"time": 139197, "pitch": 38, "duration": 10, "velocity": 106}, {"time": 139197, "pitch": 51, "duration": 10, "velocity": 97}, {"time": 139439, "pitch": 51, "duration": 10, "velocity": 69}, {"time": 139590, "pitch": 38, "duration": 10, "velocity": 78}, {"time": 139680, "pitch": 35, "duration": 10, "velocity": 98}, {"time": 139680, "pitch": 38, "duration": 10, "velocity": 101}, {"time": 139680, "pitch": 49, "duration": 10, "velocity": 83}, {"time": 139720, "pitch": 38, "duration": 10, "velocity": 72}, {"time": 139760, "pitch": 38, "duration": 10, "velocity": 92}, {"time": 139800, "pitch": 38, "duration": 10, "velocity": 64}, {"time": 139839, "pitch": 38, "duration": 10, "velocity": 69}, {"time": 139879, "pitch": 38, "duration": 10, "velocity": 47}, {"time": 139919, "pitch": 47, "duration": 10, "velocity": 96}, {"time": 139959, "pitch": 47, "duration": 10, "velocity": 71}, {"time": 139998, "pitch": 47, "duration": 10, "velocity": 91}, {"time": 140038, "pitch": 47, "duration": 10, "velocity": 67}, {"time": 140078, "pitch": 35, "duration": 10, "velocity": 61}, {"time": 140078, "pitch": 47, "duration": 10, "velocity": 64}, {"time": 140118, "pitch": 47, "duration": 10, "velocity": 53}, {"time": 140158, "pitch": 35, "duration": 10, "velocity": 78}, {"time": 140158, "pitch": 45, "duration": 10, "velocity": 101}, {"time": 140198, "pitch": 45, "duration": 10, "velocity": 72}, {"time": 140238, "pitch": 45, "duration": 10, "velocity": 92}, {"time": 140278, "pitch": 45, "duration": 10, "velocity": 67}, {"time": 140318, "pitch": 45, "duration": 11, "velocity": 60}, {"time": 140318, "pitch": 49, "duration": 11, "velocity": 80}, {"time": 140359, "pitch": 45, "duration": 10, "velocity": 54}, {"time": 140399, "pitch": 43, "duration": 10, "velocity": 96}, {"time": 140439, "pitch": 43, "duration": 10, "velocity": 71}, {"time": 140479, "pitch": 43, "duration": 11, "velocity": 91}, {"time": 140520, "pitch": 47, "duration": 10, "velocity": 67}, {"time": 140560, "pitch": 47, "duration": 10, "velocity": 60}, {"time": 140600, "pitch": 47, "duration": 10, "velocity": 50}, {"time": 140640, "pitch": 35, "duration": 10, "velocity": 100}, {"time": 140640, "pitch": 57, "duration": 10, "velocity": 82}, {"time": 140879, "pitch": 51, "duration": 10, "velocity": 69}, {"time": 141028, "pitch": 35, "duration": 10, "velocity": 59}, {"time": 141118, "pitch": 38, "duration": 10, "velocity": 106}, {"time": 141118, "pitch": 51, "duration": 10, "velocity": 97}, {"time": 141359, "pitch": 51, "duration": 10, "velocity": 69}, {"time": 141510, "pitch": 38, "duration": 10, "velocity": 78}, {"time": 141600, "pitch": 35, "duration": 10, "velocity": 98}, {"time": 141600, "pitch": 51, "duration": 10, "velocity": 83}, {"time": 141680, "pitch": 38, "duration": 10, "velocity": 33}, {"time": 141760, "pitch": 38, "duration": 9, "velocity": 64}, {"time": 141839, "pitch": 35, "duration": 10, "velocity": 92}, {"time": 141839, "pitch": 51, "duration": 10, "velocity": 69}, {"time": 141919, "pitch": 38, "duration": 10, "velocity": 51}, {"time": 141998, "pitch": 45, "duration": 10, "velocity": 49}, {"time": 142078, "pitch": 38, "duration": 10, "velocity": 106}, {"time": 142078, "pitch": 51, "duration": 10, "velocity": 87}, {"time": 142158, "pitch": 47, "duration": 10, "velocity": 97}, {"time": 142239, "pitch": 43, "duration": 10, "velocity": 67}, {"time": 142319, "pitch": 51, "duration": 10, "velocity": 73}, {"time": 142400, "pitch": 45, "duration": 10, "velocity": 73}, {"time": 142480, "pitch": 35, "duration": 10, "velocity": 69}, {"time": 142480, "pitch": 38, "duration": 10, "velocity": 88}, {"time": 142520, "pitch": 38, "duration": 10, "velocity": 70}, {"time": 142561, "pitch": 35, "duration": 10, "velocity": 100}, {"time": 142561, "pitch": 49, "duration": 10, "velocity": 74}, {"time": 142799, "pitch": 51, "duration": 10, "velocity": 69}, {"time": 142948, "pitch": 35, "duration": 10, "velocity": 59}, {"time": 143038, "pitch": 38, "duration": 10, "velocity": 106}, {"time": 143038, "pitch": 51, "duration": 10, "velocity": 97}, {"time": 143279, "pitch": 57, "duration": 10, "velocity": 88}, {"time": 143430, "pitch": 38, "duration": 10, "velocity": 78}, {"time": 143480, "pitch": 38, "duration": 10, "velocity": 48}, {"time": 143521, "pitch": 35, "duration": 10, "velocity": 95}, {"time": 143521, "pitch": 38, "duration": 10, "velocity": 76}, {"time": 143600, "pitch": 38, "duration": 10, "velocity": 87}, {"time": 143680, "pitch": 38, "duration": 10, "velocity": 97}, {"time": 143759, "pitch": 38, "duration": 10, "velocity": 110}, {"time": 143839, "pitch": 45, "duration": 10, "velocity": 110}, {"time": 143918, "pitch": 45, "duration": 10, "velocity": 105}, {"time": 143998, "pitch": 35, "duration": 10, "velocity": 97}, {"time": 143998, "pitch": 43, "duration": 10, "velocity": 107}, {"time": 144078, "pitch": 43, "duration": 10, "velocity": 89}, {"time": 144119, "pitch": 43, "duration": 10, "velocity": 68}, {"time": 144159, "pitch": 38, "duration": 10, "velocity": 111}, {"time": 144239, "pitch": 47, "duration": 10, "velocity": 106}, {"time": 144320, "pitch": 47, "duration": 10, "velocity": 97}, {"time": 144400, "pitch": 43, "duration": 10, "velocity": 107}, {"time": 144481, "pitch": 35, "duration": 10, "velocity": 95}, {"time": 144481, "pitch": 57, "duration": 10, "velocity": 93}, {"time": 144719, "pitch": 51, "duration": 10, "velocity": 93}, {"time": 144878, "pitch": 35, "duration": 10, "velocity": 59}, {"time": 144878, "pitch": 51, "duration": 10, "velocity": 65}, {"time": 144958, "pitch": 38, "duration": 10, "velocity": 106}, {"time": 144958, "pitch": 51, "duration": 10, "velocity": 97}, {"time": 145199, "pitch": 51, "duration": 10, "velocity": 69}, {"time": 145350, "pitch": 38, "duration": 10, "velocity": 78}, {"time": 145441, "pitch": 35, "duration": 10, "velocity": 95}, {"time": 145441, "pitch": 51, "duration": 10, "velocity": 83}, {"time": 145590, "pitch": 38, "duration": 10, "velocity": 64}, {"time": 145679, "pitch": 35, "duration": 10, "velocity": 82}, {"time": 145679, "pitch": 51, "duration": 10, "velocity": 89}, {"time": 145918, "pitch": 38, "duration": 10, "velocity": 106}, {"time": 145918, "pitch": 51, "duration": 10, "velocity": 87}, {"time": 145998, "pitch": 38, "duration": 11, "velocity": 67}, {"time": 146079, "pitch": 38, "duration": 10, "velocity": 40}, {"time": 146159, "pitch": 51, "duration": 11, "velocity": 73}, {"time": 146320, "pitch": 35, "duration": 10, "velocity": 69}, {"time": 146320, "pitch": 51, "duration": 10, "velocity": 65}, {"time": 146401, "pitch": 35, "duration": 10, "velocity": 95}, {"time": 146401, "pitch": 49, "duration": 10, "velocity": 93}, {"time": 146639, "pitch": 51, "duration": 10, "velocity": 93}, {"time": 146799, "pitch": 35, "duration": 10, "velocity": 59}, {"time": 146799, "pitch": 51, "duration": 10, "velocity": 65}, {"time": 146878, "pitch": 38, "duration": 10, "velocity": 106}, {"time": 146878, "pitch": 51, "duration": 10, "velocity": 97}, {"time": 147120, "pitch": 51, "duration": 10, "velocity": 69}, {"time": 147270, "pitch": 38, "duration": 10, "velocity": 78}, {"time": 147361, "pitch": 35, "duration": 10, "velocity": 95}, {"time": 147361, "pitch": 51, "duration": 10, "velocity": 83}, {"time": 147510, "pitch": 38, "duration": 10, "velocity": 64}, {"time": 147600, "pitch": 35, "duration": 10, "velocity": 82}, {"time": 147600, "pitch": 51, "duration": 10, "velocity": 89}, {"time": 147838, "pitch": 38, "duration": 10, "velocity": 106}, {"time": 147838, "pitch": 51, "duration": 10, "velocity": 87}, {"time": 147999, "pitch": 38, "duration": 10, "velocity": 78}, {"time": 147999, "pitch": 57, "duration": 10, "velocity": 78}, {"time": 148080, "pitch": 51, "duration": 10, "velocity": 73}, {"time": 148160, "pitch": 45, "duration": 10, "velocity": 93}, {"time": 148241, "pitch": 45, "duration": 10, "velocity": 89}, {"time": 148321, "pitch": 35, "duration": 10, "velocity": 95}, {"time": 148321, "pitch": 57, "duration": 10, "velocity": 93}, {"time": 148560, "pitch": 51, "duration": 10, "velocity": 93}, {"time": 148719, "pitch": 35, "duration": 10, "velocity": 59}, {"time": 148719, "pitch": 51, "duration": 10, "velocity": 65}, {"time": 148798, "pitch": 38, "duration": 10, "velocity": 106}, {"time": 148798, "pitch": 51, "duration": 10, "velocity": 97}, {"time": 149040, "pitch": 51, "duration": 10, "velocity": 69}, {"time": 149191, "pitch": 38, "duration": 10, "velocity": 78}, {"time": 149281, "pitch": 35, "duration": 10, "velocity": 95}, {"time": 149281, "pitch": 51, "duration": 10, "velocity": 83}, {"time": 149430, "pitch": 38, "duration": 10, "velocity": 64}, {"time": 149520, "pitch": 35, "duration": 10, "velocity": 82}, {"time": 149520, "pitch": 51, "duration": 10, "velocity": 89}, {"time": 149758, "pitch": 38, "duration": 10, "velocity": 106}, {"time": 149758, "pitch": 51, "duration": 10, "velocity": 87}, {"time": 149839, "pitch": 38, "duration": 10, "velocity": 67}, {"time": 149919, "pitch": 38, "duration": 10, "velocity": 40}, {"time": 150000, "pitch": 51, "duration": 10, "velocity": 73}, {"time": 150161, "pitch": 35, "duration": 10, "velocity": 69}, {"time": 150161, "pitch": 51, "duration": 10, "velocity": 65}, {"time": 150241, "pitch": 35, "duration": 10, "velocity": 95}, {"time": 150241, "pitch": 49, "duration": 10, "velocity": 93}, {"time": 150480, "pitch": 51, "duration": 10, "velocity": 93}, {"time": 150639, "pitch": 35, "duration": 10, "velocity": 59}, {"time": 150639, "pitch": 51, "duration": 10, "velocity": 65}, {"time": 150718, "pitch": 38, "duration": 10, "velocity": 106}, {"time": 150718, "pitch": 51, "duration": 10, "velocity": 97}, {"time": 150960, "pitch": 51, "duration": 10, "velocity": 69}, {"time": 151111, "pitch": 38, "duration": 10, "velocity": 78}, {"time": 151201, "pitch": 35, "duration": 10, "velocity": 95}, {"time": 151201, "pitch": 49, "duration": 10, "velocity": 93}, {"time": 151241, "pitch": 38, "duration": 10, "velocity": 73}, {"time": 151281, "pitch": 38, "duration": 10, "velocity": 93}, {"time": 151360, "pitch": 38, "duration": 10, "velocity": 73}, {"time": 151440, "pitch": 47, "duration": 10, "velocity": 93}, {"time": 151440, "pitch": 57, "duration": 10, "velocity": 93}, {"time": 151480, "pitch": 47, "duration": 10, "velocity": 73}, {"time": 151519, "pitch": 43, "duration": 10, "velocity": 93}, {"time": 151599, "pitch": 35, "duration": 10, "velocity": 59}, {"time": 151678, "pitch": 35, "duration": 11, "velocity": 100}, {"time": 151839, "pitch": 38, "duration": 11, "velocity": 123}, {"time": 9759, "pitch": 68, "duration": 322, "velocity": 120}, {"time": 10081, "pitch": 76, "duration": 1179, "velocity": 120}, {"time": 11439, "pitch": 66, "duration": 240, "velocity": 100}, {"time": 11679, "pitch": 71, "duration": 292, "velocity": 117}, {"time": 11760, "pitch": 67, "duration": 241, "velocity": 108}, {"time": 12001, "pitch": 71, "duration": 880, "velocity": 114}, {"time": 12881, "pitch": 66, "duration": 239, "velocity": 104}, {"time": 13120, "pitch": 67, "duration": 199, "velocity": 107}, {"time": 13438, "pitch": 64, "duration": 463, "velocity": 107}, {"time": 13921, "pitch": 62, "duration": 1920, "velocity": 107}, {"time": 19119, "pitch": 76, "duration": 241, "velocity": 104}, {"time": 19360, "pitch": 79, "duration": 201, "velocity": 107}, {"time": 19682, "pitch": 71, "duration": 477, "velocity": 104}, {"time": 20079, "pitch": 76, "duration": 482, "velocity": 108}, {"time": 20561, "pitch": 66, "duration": 300, "velocity": 104}, {"time": 20801, "pitch": 70, "duration": 278, "velocity": 104}, {"time": 20880, "pitch": 66, "duration": 239, "velocity": 101}, {"time": 21119, "pitch": 63, "duration": 483, "velocity": 104}, {"time": 27040, "pitch": 64, "duration": 141, "velocity": 108}, {"time": 27201, "pitch": 64, "duration": 141, "velocity": 107}, {"time": 27362, "pitch": 64, "duration": 358, "velocity": 110}, {"time": 27750, "pitch": 64, "duration": 240, "velocity": 105}, {"time": 27990, "pitch": 66, "duration": 212, "velocity": 109}, {"time": 28232, "pitch": 70, "duration": 240, "velocity": 111}, {"time": 28472, "pitch": 70, "duration": 208, "velocity": 109}, {"time": 28710, "pitch": 75, "duration": 522, "velocity": 111}, {"time": 61601, "pitch": 71, "duration": 80, "velocity": 80}, {"time": 61681, "pitch": 76, "duration": 79, "velocity": 110}, {"time": 61760, "pitch": 71, "duration": 80, "velocity": 106}, {"time": 61840, "pitch": 67, "duration": 80, "velocity": 90}, {"time": 61920, "pitch": 64, "duration": 241, "velocity": 98}, {"time": 62161, "pitch": 67, "duration": 241, "velocity": 101}, {"time": 62562, "pitch": 64, "duration": 79, "velocity": 89}, {"time": 62641, "pitch": 67, "duration": 80, "velocity": 97}, {"time": 62721, "pitch": 64, "duration": 79, "velocity": 94}, {"time": 62800, "pitch": 62, "duration": 80, "velocity": 91}, {"time": 62880, "pitch": 57, "duration": 241, "velocity": 94}, {"time": 63121, "pitch": 55, "duration": 81, "velocity": 80}, {"time": 63202, "pitch": 55, "duration": 80, "velocity": 83}, {"time": 63282, "pitch": 57, "duration": 81, "velocity": 89}, {"time": 63363, "pitch": 52, "duration": 79, "velocity": 92}, {"time": 63442, "pitch": 52, "duration": 80, "velocity": 88}, {"time": 63522, "pitch": 55, "duration": 79, "velocity": 92}, {"time": 63601, "pitch": 57, "duration": 159, "velocity": 96}, {"time": 63760, "pitch": 62, "duration": 321, "velocity": 100}, {"time": 69359, "pitch": 62, "duration": 161, "velocity": 93}, {"time": 69520, "pitch": 67, "duration": 80, "velocity": 87}, {"time": 69600, "pitch": 62, "duration": 159, "velocity": 93}, {"time": 69759, "pitch": 67, "duration": 80, "velocity": 87}, {"time": 69839, "pitch": 62, "duration": 159, "velocity": 93}, {"time": 69998, "pitch": 67, "duration": 79, "velocity": 87}, {"time": 70077, "pitch": 69, "duration": 242, "velocity": 94}, {"time": 70319, "pitch": 67, "duration": 161, "velocity": 89}, {"time": 70480, "pitch": 67, "duration": 80, "velocity": 84}, {"time": 70560, "pitch": 69, "duration": 239, "velocity": 95}, {"time": 70799, "pitch": 69, "duration": 119, "velocity": 88}, {"time": 70958, "pitch": 69, "duration": 240, "velocity": 91}, {"time": 71198, "pitch": 67, "duration": 81, "velocity": 89}, {"time": 71279, "pitch": 64, "duration": 241, "velocity": 85}, {"time": 94562, "pitch": 74, "duration": 458, "velocity": 119}, {"time": 95039, "pitch": 74, "duration": 702, "velocity": 115}, {"time": 95761, "pitch": 74, "duration": 99, "velocity": 107}, {"time": 95880, "pitch": 71, "duration": 100, "velocity": 103}, {"time": 96000, "pitch": 69, "duration": 100, "velocity": 104}, {"time": 96120, "pitch": 67, "duration": 101, "velocity": 101}, {"time": 96362, "pitch": 74, "duration": 120, "velocity": 110}, {"time": 96482, "pitch": 74, "duration": 229, "velocity": 108}, {"time": 96721, "pitch": 67, "duration": 219, "velocity": 102}, {"time": 97080, "pitch": 71, "duration": 121, "velocity": 102}, {"time": 97322, "pitch": 71, "duration": 120, "velocity": 102}, {"time": 97562, "pitch": 67, "duration": 238, "velocity": 108}, {"time": 97800, "pitch": 64, "duration": 120, "velocity": 97}, {"time": 97920, "pitch": 67, "duration": 241, "velocity": 108}, {"time": 98282, "pitch": 64, "duration": 121, "velocity": 98}, {"time": 98403, "pitch": 67, "duration": 119, "velocity": 97}, {"time": 98522, "pitch": 69, "duration": 119, "velocity": 102}, {"time": 98641, "pitch": 69, "duration": 239, "velocity": 108}, {"time": 98880, "pitch": 69, "duration": 110, "velocity": 111}, {"time": 99001, "pitch": 67, "duration": 231, "velocity": 107}, {"time": 99242, "pitch": 71, "duration": 121, "velocity": 104}, {"time": 99363, "pitch": 71, "duration": 119, "velocity": 100}, {"time": 99482, "pitch": 76, "duration": 119, "velocity": 109}, {"time": 99601, "pitch": 74, "duration": 120, "velocity": 107}, {"time": 99721, "pitch": 71, "duration": 119, "velocity": 99}, {"time": 99840, "pitch": 76, "duration": 483, "velocity": 104}, {"time": 100442, "pitch": 74, "duration": 119, "velocity": 97}, {"time": 100561, "pitch": 74, "duration": 120, "velocity": 91}, {"time": 100681, "pitch": 79, "duration": 119, "velocity": 109}, {"time": 100800, "pitch": 77, "duration": 121, "velocity": 105}, {"time": 100921, "pitch": 74, "duration": 120, "velocity": 100}, {"time": 101041, "pitch": 79, "duration": 242, "velocity": 107}, {"time": 101283, "pitch": 79, "duration": 477, "velocity": 112}, {"time": 101879, "pitch": 77, "duration": 479, "velocity": 113}, {"time": 102118, "pitch": 80, "duration": 119, "velocity": 109}, {"time": 102237, "pitch": 80, "duration": 121, "velocity": 105}, {"time": 102358, "pitch": 77, "duration": 352, "velocity": 113}, {"time": 102479, "pitch": 80, "duration": 120, "velocity": 109}, {"time": 102599, "pitch": 80, "duration": 121, "velocity": 105}, {"time": 102720, "pitch": 77, "duration": 348, "velocity": 113}, {"time": 102839, "pitch": 80, "duration": 120, "velocity": 109}, {"time": 102959, "pitch": 80, "duration": 119, "velocity": 105}, {"time": 103078, "pitch": 77, "duration": 351, "velocity": 113}, {"time": 103197, "pitch": 80, "duration": 121, "velocity": 109}, {"time": 103318, "pitch": 80, "duration": 121, "velocity": 105}, {"time": 103439, "pitch": 77, "duration": 231, "velocity": 113}, {"time": 103559, "pitch": 80, "duration": 121, "velocity": 109}, {"time": 103680, "pitch": 77, "duration": 239, "velocity": 105}, {"time": 103919, "pitch": 77, "duration": 89, "velocity": 100}, {"time": 104038, "pitch": 74, "duration": 90, "velocity": 93}, {"time": 104157, "pitch": 77, "duration": 242, "velocity": 106}, {"time": 104399, "pitch": 79, "duration": 100, "velocity": 111}, {"time": 104760, "pitch": 67, "duration": 119, "velocity": 107}, {"time": 104879, "pitch": 70, "duration": 119, "velocity": 104}, {"time": 104998, "pitch": 72, "duration": 119, "velocity": 108}, {"time": 105117, "pitch": 72, "duration": 242, "velocity": 105}, {"time": 105359, "pitch": 72, "duration": 90, "velocity": 100}, {"time": 105480, "pitch": 70, "duration": 240, "velocity": 106}, {"time": 105720, "pitch": 67, "duration": 208, "velocity": 101}, {"time": 106198, "pitch": 61, "duration": 212, "velocity": 104}, {"time": 106319, "pitch": 70, "duration": 171, "velocity": 108}, {"time": 106560, "pitch": 63, "duration": 209, "velocity": 104}, {"time": 106680, "pitch": 72, "duration": 169, "velocity": 108}, {"time": 106918, "pitch": 65, "duration": 331, "velocity": 104}, {"time": 107038, "pitch": 73, "duration": 231, "velocity": 108}, {"time": 107279, "pitch": 65, "duration": 291, "velocity": 104}, {"time": 107400, "pitch": 73, "duration": 230, "velocity": 108}, {"time": 107640, "pitch": 65, "duration": 328, "velocity": 94}, {"time": 107759, "pitch": 73, "duration": 229, "velocity": 100}, {"time": 108118, "pitch": 65, "duration": 212, "velocity": 104}, {"time": 108239, "pitch": 73, "duration": 171, "velocity": 108}, {"time": 108481, "pitch": 68, "duration": 208, "velocity": 104}, {"time": 108600, "pitch": 75, "duration": 169, "velocity": 108}, {"time": 108838, "pitch": 68, "duration": 230, "velocity": 104}, {"time": 108958, "pitch": 77, "duration": 110, "velocity": 108}, {"time": 109078, "pitch": 68, "duration": 222, "velocity": 104}, {"time": 109199, "pitch": 77, "duration": 111, "velocity": 108}, {"time": 109320, "pitch": 68, "duration": 220, "velocity": 104}, {"time": 109441, "pitch": 77, "duration": 119, "velocity": 108}, {"time": 109679, "pitch": 78, "duration": 460, "velocity": 103}, {"time": 110039, "pitch": 69, "duration": 140, "velocity": 99}, {"time": 110159, "pitch": 78, "duration": 141, "velocity": 103}, {"time": 110280, "pitch": 69, "duration": 141, "velocity": 100}, {"time": 110401, "pitch": 78, "duration": 139, "velocity": 103}, {"time": 110520, "pitch": 69, "duration": 139, "velocity": 100}, {"time": 110639, "pitch": 78, "duration": 140, "velocity": 103}, {"time": 110759, "pitch": 69, "duration": 139, "velocity": 100}, {"time": 110878, "pitch": 78, "duration": 141, "velocity": 103}, {"time": 110999, "pitch": 69, "duration": 141, "velocity": 100}, {"time": 111119, "pitch": 78, "duration": 141, "velocity": 103}, {"time": 111240, "pitch": 69, "duration": 190, "velocity": 100}, {"time": 111520, "pitch": 69, "duration": 109, "velocity": 100}, {"time": 111599, "pitch": 78, "duration": 120, "velocity": 105}, {"time": 111679, "pitch": 69, "duration": 119, "velocity": 98}, {"time": 111758, "pitch": 78, "duration": 60, "velocity": 102}, {"time": 111838, "pitch": 78, "duration": 161, "velocity": 99}, {"time": 111999, "pitch": 79, "duration": 80, "velocity": 103}, {"time": 112079, "pitch": 79, "duration": 81, "velocity": 102}, {"time": 112160, "pitch": 79, "duration": 80, "velocity": 102}, {"time": 112240, "pitch": 80, "duration": 81, "velocity": 102}, {"time": 112321, "pitch": 80, "duration": 159, "velocity": 99}, {"time": 112480, "pitch": 81, "duration": 80, "velocity": 103}, {"time": 112560, "pitch": 81, "duration": 79, "velocity": 102}, {"time": 112639, "pitch": 81, "duration": 80, "velocity": 102}, {"time": 112719, "pitch": 83, "duration": 79, "velocity": 95}, {"time": 112798, "pitch": 84, "duration": 81, "velocity": 97}, {"time": 112879, "pitch": 84, "duration": 80, "velocity": 95}, {"time": 112959, "pitch": 84, "duration": 81, "velocity": 92}, {"time": 113040, "pitch": 84, "duration": 80, "velocity": 97}, {"time": 113120, "pitch": 84, "duration": 81, "velocity": 95}, {"time": 113201, "pitch": 84, "duration": 80, "velocity": 92}, {"time": 113281, "pitch": 84, "duration": 477, "velocity": 96}, {"time": 128881, "pitch": 71, "duration": 99, "velocity": 100}, {"time": 129040, "pitch": 71, "duration": 321, "velocity": 97}, {"time": 129361, "pitch": 71, "duration": 121, "velocity": 97}, {"time": 130801, "pitch": 74, "duration": 169, "velocity": 100}, {"time": 131040, "pitch": 74, "duration": 241, "velocity": 99}, {"time": 132241, "pitch": 79, "duration": 470, "velocity": 101}, {"time": 132721, "pitch": 78, "duration": 159, "velocity": 99}, {"time": 132880, "pitch": 71, "duration": 80, "velocity": 99}, {"time": 132960, "pitch": 67, "duration": 483, "velocity": 93}, {"time": 135840, "pitch": 77, "duration": 159, "velocity": 90}, {"time": 136009, "pitch": 76, "duration": 159, "velocity": 85}, {"time": 136178, "pitch": 77, "duration": 139, "velocity": 88}, {"time": 136317, "pitch": 78, "duration": 161, "velocity": 90}, {"time": 136488, "pitch": 77, "duration": 161, "velocity": 85}, {"time": 136659, "pitch": 78, "duration": 141, "velocity": 88}, {"time": 136800, "pitch": 79, "duration": 477, "velocity": 90}, {"time": 138237, "pitch": 83, "duration": 403, "velocity": 95}, {"time": 138640, "pitch": 83, "duration": 1040, "velocity": 93}, {"time": 140399, "pitch": 79, "duration": 241, "velocity": 93}, {"time": 140640, "pitch": 79, "duration": 239, "velocity": 91}, {"time": 140879, "pitch": 76, "duration": 99, "velocity": 85}, {"time": 141359, "pitch": 79, "duration": 241, "velocity": 93}, {"time": 141600, "pitch": 79, "duration": 239, "velocity": 91}, {"time": 141839, "pitch": 76, "duration": 100, "velocity": 85}, {"time": 142078, "pitch": 81, "duration": 161, "velocity": 92}, {"time": 142239, "pitch": 81, "duration": 80, "velocity": 87}, {"time": 142319, "pitch": 79, "duration": 242, "velocity": 91}, {"time": 142561, "pitch": 76, "duration": 99, "velocity": 85}, {"time": 142799, "pitch": 81, "duration": 159, "velocity": 92}, {"time": 142958, "pitch": 81, "duration": 80, "velocity": 87}, {"time": 143038, "pitch": 79, "duration": 241, "velocity": 91}, {"time": 143279, "pitch": 76, "duration": 121, "velocity": 91}, {"time": 143521, "pitch": 81, "duration": 79, "velocity": 97}, {"time": 143600, "pitch": 81, "duration": 80, "velocity": 94}, {"time": 143680, "pitch": 79, "duration": 79, "velocity": 90}, {"time": 143759, "pitch": 76, "duration": 80, "velocity": 93}, {"time": 143839, "pitch": 74, "duration": 79, "velocity": 89}, {"time": 143918, "pitch": 76, "duration": 80, "velocity": 95}, {"time": 143998, "pitch": 74, "duration": 80, "velocity": 92}, {"time": 144078, "pitch": 72, "duration": 81, "velocity": 90}, {"time": 144159, "pitch": 69, "duration": 80, "velocity": 87}, {"time": 144239, "pitch": 72, "duration": 242, "velocity": 92}, {"time": 144481, "pitch": 71, "duration": 1437, "velocity": 87}, {"time": 94562, "pitch": 76, "duration": 458, "velocity": 119}, {"time": 95039, "pitch": 76, "duration": 702, "velocity": 115}, {"time": 36958, "pitch": 55, "duration": 241, "velocity": 88}, {"time": 36958, "pitch": 59, "duration": 241, "velocity": 98}, {"time": 36968, "pitch": 62, "duration": 231, "velocity": 106}, {"time": 36978, "pitch": 67, "duration": 221, "velocity": 91}, {"time": 37199, "pitch": 59, "duration": 241, "velocity": 81}, {"time": 37199, "pitch": 62, "duration": 241, "velocity": 93}, {"time": 37199, "pitch": 67, "duration": 241, "velocity": 85}, {"time": 37209, "pitch": 55, "duration": 231, "velocity": 77}, {"time": 37440, "pitch": 55, "duration": 239, "velocity": 88}, {"time": 37440, "pitch": 59, "duration": 239, "velocity": 98}, {"time": 37450, "pitch": 62, "duration": 229, "velocity": 106}, {"time": 37460, "pitch": 67, "duration": 219, "velocity": 91}, {"time": 37679, "pitch": 55, "duration": 159, "velocity": 83}, {"time": 37679, "pitch": 59, "duration": 159, "velocity": 93}, {"time": 37689, "pitch": 62, "duration": 149, "velocity": 101}, {"time": 37699, "pitch": 67, "duration": 139, "velocity": 86}, {"time": 37838, "pitch": 59, "duration": 80, "velocity": 79}, {"time": 37838, "pitch": 62, "duration": 80, "velocity": 91}, {"time": 37838, "pitch": 67, "duration": 80, "velocity": 83}, {"time": 37848, "pitch": 55, "duration": 70, "velocity": 75}, {"time": 37918, "pitch": 55, "duration": 161, "velocity": 68}, {"time": 37918, "pitch": 59, "duration": 161, "velocity": 78}, {"time": 37928, "pitch": 62, "duration": 151, "velocity": 86}, {"time": 37938, "pitch": 67, "duration": 141, "velocity": 71}, {"time": 38079, "pitch": 59, "duration": 80, "velocity": 78}, {"time": 38079, "pitch": 62, "duration": 80, "velocity": 90}, {"time": 38079, "pitch": 67, "duration": 80, "velocity": 82}, {"time": 38089, "pitch": 55, "duration": 70, "velocity": 74}, {"time": 38159, "pitch": 55, "duration": 241, "velocity": 73}, {"time": 38159, "pitch": 59, "duration": 241, "velocity": 83}, {"time": 38169, "pitch": 62, "duration": 231, "velocity": 91}, {"time": 38179, "pitch": 67, "duration": 221, "velocity": 76}, {"time": 38400, "pitch": 55, "duration": 239, "velocity": 88}, {"time": 38400, "pitch": 59, "duration": 239, "velocity": 98}, {"time": 38410, "pitch": 62, "duration": 229, "velocity": 106}, {"time": 38420, "pitch": 67, "duration": 219, "velocity": 91}, {"time": 38639, "pitch": 55, "duration": 159, "velocity": 83}, {"time": 38639, "pitch": 59, "duration": 159, "velocity": 93}, {"time": 38649, "pitch": 62, "duration": 149, "velocity": 101}, {"time": 38659, "pitch": 67, "duration": 139, "velocity": 86}, {"time": 38798, "pitch": 59, "duration": 80, "velocity": 79}, {"time": 38798, "pitch": 62, "duration": 80, "velocity": 91}, {"time": 38798, "pitch": 67, "duration": 80, "velocity": 83}, {"time": 38808, "pitch": 55, "duration": 70, "velocity": 75}, {"time": 38878, "pitch": 50, "duration": 241, "velocity": 88}, {"time": 38878, "pitch": 57, "duration": 241, "velocity": 98}, {"time": 38888, "pitch": 62, "duration": 231, "velocity": 106}, {"time": 38898, "pitch": 66, "duration": 221, "velocity": 91}, {"time": 39119, "pitch": 57, "duration": 242, "velocity": 81}, {"time": 39119, "pitch": 62, "duration": 242, "velocity": 93}, {"time": 39119, "pitch": 66, "duration": 242, "velocity": 85}, {"time": 39129, "pitch": 50, "duration": 232, "velocity": 77}, {"time": 39361, "pitch": 50, "duration": 238, "velocity": 88}, {"time": 39361, "pitch": 57, "duration": 238, "velocity": 98}, {"time": 39370, "pitch": 62, "duration": 229, "velocity": 106}, {"time": 39380, "pitch": 66, "duration": 219, "velocity": 91}, {"time": 39599, "pitch": 50, "duration": 159, "velocity": 83}, {"time": 39599, "pitch": 57, "duration": 159, "velocity": 93}, {"time": 39609, "pitch": 62, "duration": 149, "velocity": 101}, {"time": 39619, "pitch": 66, "duration": 139, "velocity": 86}, {"time": 39758, "pitch": 57, "duration": 80, "velocity": 79}, {"time": 39758, "pitch": 62, "duration": 80, "velocity": 91}, {"time": 39758, "pitch": 66, "duration": 80, "velocity": 83}, {"time": 39768, "pitch": 50, "duration": 70, "velocity": 75}, {"time": 39838, "pitch": 50, "duration": 161, "velocity": 68}, {"time": 39838, "pitch": 57, "duration": 161, "velocity": 78}, {"time": 39848, "pitch": 62, "duration": 151, "velocity": 86}, {"time": 39858, "pitch": 66, "duration": 141, "velocity": 71}, {"time": 39999, "pitch": 57, "duration": 80, "velocity": 78}, {"time": 39999, "pitch": 62, "duration": 80, "velocity": 90}, {"time": 39999, "pitch": 66, "duration": 80, "velocity": 82}, {"time": 40009, "pitch": 50, "duration": 70, "velocity": 74}, {"time": 40079, "pitch": 50, "duration": 242, "velocity": 73}, {"time": 40079, "pitch": 57, "duration": 242, "velocity": 83}, {"time": 40089, "pitch": 62, "duration": 232, "velocity": 91}, {"time": 40099, "pitch": 66, "duration": 222, "velocity": 76}, {"time": 40321, "pitch": 50, "duration": 238, "velocity": 88}, {"time": 40321, "pitch": 57, "duration": 238, "velocity": 98}, {"time": 40331, "pitch": 62, "duration": 228, "velocity": 106}, {"time": 40340, "pitch": 66, "duration": 219, "velocity": 91}, {"time": 40559, "pitch": 50, "duration": 159, "velocity": 83}, {"time": 40559, "pitch": 57, "duration": 159, "velocity": 93}, {"time": 40569, "pitch": 62, "duration": 149, "velocity": 101}, {"time": 40579, "pitch": 66, "duration": 139, "velocity": 86}, {"time": 40718, "pitch": 57, "duration": 80, "velocity": 79}, {"time": 40718, "pitch": 62, "duration": 80, "velocity": 91}, {"time": 40718, "pitch": 66, "duration": 80, "velocity": 83}, {"time": 40728, "pitch": 50, "duration": 70, "velocity": 75}, {"time": 40798, "pitch": 52, "duration": 241, "velocity": 88}, {"time": 40798, "pitch": 55, "duration": 241, "velocity": 98}, {"time": 40808, "pitch": 59, "duration": 231, "velocity": 106}, {"time": 40818, "pitch": 64, "duration": 221, "velocity": 91}, {"time": 41039, "pitch": 55, "duration": 242, "velocity": 81}, {"time": 41039, "pitch": 59, "duration": 242, "velocity": 93}, {"time": 41039, "pitch": 64, "duration": 242, "velocity": 85}, {"time": 41049, "pitch": 52, "duration": 232, "velocity": 77}, {"time": 41281, "pitch": 52, "duration": 238, "velocity": 88}, {"time": 41281, "pitch": 55, "duration": 238, "velocity": 98}, {"time": 41291, "pitch": 59, "duration": 228, "velocity": 106}, {"time": 41301, "pitch": 64, "duration": 218, "velocity": 91}, {"time": 41519, "pitch": 52, "duration": 159, "velocity": 83}, {"time": 41519, "pitch": 55, "duration": 159, "velocity": 93}, {"time": 41529, "pitch": 59, "duration": 149, "velocity": 101}, {"time": 41539, "pitch": 64, "duration": 139, "velocity": 86}, {"time": 41678, "pitch": 55, "duration": 80, "velocity": 79}, {"time": 41678, "pitch": 59, "duration": 80, "velocity": 91}, {"time": 41678, "pitch": 64, "duration": 80, "velocity": 83}, {"time": 41688, "pitch": 52, "duration": 70, "velocity": 75}, {"time": 41758, "pitch": 52, "duration": 161, "velocity": 68}, {"time": 41758, "pitch": 55, "duration": 161, "velocity": 78}, {"time": 41768, "pitch": 59, "duration": 151, "velocity": 86}, {"time": 41778, "pitch": 64, "duration": 141, "velocity": 71}, {"time": 41919, "pitch": 55, "duration": 80, "velocity": 78}, {"time": 41919, "pitch": 59, "duration": 80, "velocity": 90}, {"time": 41919, "pitch": 64, "duration": 80, "velocity": 82}, {"time": 41929, "pitch": 52, "duration": 70, "velocity": 74}, {"time": 41999, "pitch": 52, "duration": 242, "velocity": 73}, {"time": 41999, "pitch": 55, "duration": 242, "velocity": 83}, {"time": 42009, "pitch": 59, "duration": 232, "velocity": 91}, {"time": 42019, "pitch": 64, "duration": 222, "velocity": 76}, {"time": 42241, "pitch": 52, "duration": 238, "velocity": 88}, {"time": 42241, "pitch": 55, "duration": 238, "velocity": 98}, {"time": 42251, "pitch": 59, "duration": 228, "velocity": 106}, {"time": 42261, "pitch": 64, "duration": 218, "velocity": 91}, {"time": 42479, "pitch": 52, "duration": 159, "velocity": 83}, {"time": 42479, "pitch": 55, "duration": 159, "velocity": 93}, {"time": 42489, "pitch": 59, "duration": 149, "velocity": 101}, {"time": 42499, "pitch": 64, "duration": 139, "velocity": 86}, {"time": 42638, "pitch": 55, "duration": 80, "velocity": 79}, {"time": 42638, "pitch": 59, "duration": 80, "velocity": 91}, {"time": 42638, "pitch": 64, "duration": 80, "velocity": 83}, {"time": 42648, "pitch": 52, "duration": 70, "velocity": 75}, {"time": 42718, "pitch": 48, "duration": 241, "velocity": 88}, {"time": 42718, "pitch": 55, "duration": 241, "velocity": 98}, {"time": 42728, "pitch": 60, "duration": 231, "velocity": 106}, {"time": 42738, "pitch": 64, "duration": 221, "velocity": 91}, {"time": 42959, "pitch": 55, "duration": 242, "velocity": 81}, {"time": 42959, "pitch": 60, "duration": 242, "velocity": 93}, {"time": 42959, "pitch": 64, "duration": 242, "velocity": 85}, {"time": 42969, "pitch": 48, "duration": 232, "velocity": 77}, {"time": 43201, "pitch": 48, "duration": 238, "velocity": 88}, {"time": 43201, "pitch": 55, "duration": 238, "velocity": 98}, {"time": 43211, "pitch": 60, "duration": 228, "velocity": 106}, {"time": 43221, "pitch": 64, "duration": 218, "velocity": 91}, {"time": 43439, "pitch": 48, "duration": 160, "velocity": 83}, {"time": 43439, "pitch": 55, "duration": 160, "velocity": 93}, {"time": 43449, "pitch": 60, "duration": 150, "velocity": 101}, {"time": 43459, "pitch": 64, "duration": 140, "velocity": 86}, {"time": 43599, "pitch": 55, "duration": 79, "velocity": 79}, {"time": 43599, "pitch": 60, "duration": 79, "velocity": 91}, {"time": 43599, "pitch": 64, "duration": 79, "velocity": 83}, {"time": 43608, "pitch": 48, "duration": 70, "velocity": 75}, {"time": 43678, "pitch": 53, "duration": 161, "velocity": 68}, {"time": 43678, "pitch": 56, "duration": 161, "velocity": 78}, {"time": 43688, "pitch": 60, "duration": 151, "velocity": 86}, {"time": 43698, "pitch": 65, "duration": 141, "velocity": 71}, {"time": 43839, "pitch": 56, "duration": 80, "velocity": 78}, {"time": 43839, "pitch": 60, "duration": 80, "velocity": 90}, {"time": 43839, "pitch": 65, "duration": 80, "velocity": 82}, {"time": 43849, "pitch": 53, "duration": 70, "velocity": 74}, {"time": 43919, "pitch": 53, "duration": 242, "velocity": 73}, {"time": 43919, "pitch": 56, "duration": 242, "velocity": 83}, {"time": 43930, "pitch": 60, "duration": 231, "velocity": 91}, {"time": 43940, "pitch": 65, "duration": 221, "velocity": 76}, {"time": 44161, "pitch": 50, "duration": 239, "velocity": 88}, {"time": 44161, "pitch": 57, "duration": 239, "velocity": 98}, {"time": 44171, "pitch": 62, "duration": 229, "velocity": 106}, {"time": 44181, "pitch": 66, "duration": 219, "velocity": 91}, {"time": 44400, "pitch": 50, "duration": 159, "velocity": 83}, {"time": 44400, "pitch": 57, "duration": 159, "velocity": 93}, {"time": 44409, "pitch": 62, "duration": 150, "velocity": 101}, {"time": 44419, "pitch": 66, "duration": 140, "velocity": 86}, {"time": 44559, "pitch": 57, "duration": 79, "velocity": 79}, {"time": 44559, "pitch": 62, "duration": 79, "velocity": 91}, {"time": 44559, "pitch": 66, "duration": 79, "velocity": 83}, {"time": 44569, "pitch": 50, "duration": 69, "velocity": 75}, {"time": 44638, "pitch": 55, "duration": 242, "velocity": 88}, {"time": 44638, "pitch": 59, "duration": 242, "velocity": 98}, {"time": 44648, "pitch": 62, "duration": 232, "velocity": 106}, {"time": 44658, "pitch": 67, "duration": 222, "velocity": 91}, {"time": 44880, "pitch": 59, "duration": 241, "velocity": 81}, {"time": 44880, "pitch": 62, "duration": 241, "velocity": 93}, {"time": 44880, "pitch": 67, "duration": 241, "velocity": 85}, {"time": 44890, "pitch": 55, "duration": 231, "velocity": 77}, {"time": 45121, "pitch": 55, "duration": 239, "velocity": 88}, {"time": 45121, "pitch": 59, "duration": 239, "velocity": 98}, {"time": 45131, "pitch": 62, "duration": 229, "velocity": 106}, {"time": 45141, "pitch": 67, "duration": 219, "velocity": 91}, {"time": 45360, "pitch": 55, "duration": 159, "velocity": 83}, {"time": 45360, "pitch": 59, "duration": 159, "velocity": 93}, {"time": 45370, "pitch": 62, "duration": 149, "velocity": 101}, {"time": 45380, "pitch": 67, "duration": 139, "velocity": 86}, {"time": 45519, "pitch": 59, "duration": 79, "velocity": 79}, {"time": 45519, "pitch": 62, "duration": 79, "velocity": 91}, {"time": 45519, "pitch": 67, "duration": 79, "velocity": 83}, {"time": 45529, "pitch": 55, "duration": 69, "velocity": 75}, {"time": 45598, "pitch": 55, "duration": 161, "velocity": 68}, {"time": 45598, "pitch": 59, "duration": 161, "velocity": 78}, {"time": 45608, "pitch": 62, "duration": 151, "velocity": 86}, {"time": 45618, "pitch": 67, "duration": 141, "velocity": 71}, {"time": 45759, "pitch": 59, "duration": 81, "velocity": 78}, {"time": 45759, "pitch": 62, "duration": 81, "velocity": 90}, {"time": 45759, "pitch": 67, "duration": 81, "velocity": 82}, {"time": 45769, "pitch": 55, "duration": 71, "velocity": 74}, {"time": 45840, "pitch": 55, "duration": 241, "velocity": 73}, {"time": 45840, "pitch": 59, "duration": 241, "velocity": 83}, {"time": 45850, "pitch": 62, "duration": 231, "velocity": 91}, {"time": 45860, "pitch": 67, "duration": 221, "velocity": 76}, {"time": 46081, "pitch": 55, "duration": 239, "velocity": 88}, {"time": 46081, "pitch": 59, "duration": 239, "velocity": 98}, {"time": 46091, "pitch": 62, "duration": 229, "velocity": 106}, {"time": 46101, "pitch": 67, "duration": 219, "velocity": 91}, {"time": 46320, "pitch": 55, "duration": 159, "velocity": 83}, {"time": 46320, "pitch": 59, "duration": 159, "velocity": 93}, {"time": 46330, "pitch": 62, "duration": 149, "velocity": 101}, {"time": 46340, "pitch": 67, "duration": 139, "velocity": 86}, {"time": 46479, "pitch": 59, "duration": 79, "velocity": 79}, {"time": 46479, "pitch": 62, "duration": 79, "velocity": 91}, {"time": 46479, "pitch": 67, "duration": 79, "velocity": 83}, {"time": 46489, "pitch": 55, "duration": 69, "velocity": 75}, {"time": 46558, "pitch": 50, "duration": 242, "velocity": 88}, {"time": 46558, "pitch": 57, "duration": 242, "velocity": 98}, {"time": 46568, "pitch": 62, "duration": 232, "velocity": 106}, {"time": 46578, "pitch": 66, "duration": 222, "velocity": 91}, {"time": 46800, "pitch": 57, "duration": 241, "velocity": 81}, {"time": 46800, "pitch": 62, "duration": 241, "velocity": 93}, {"time": 46800, "pitch": 66, "duration": 241, "velocity": 85}, {"time": 46810, "pitch": 50, "duration": 231, "velocity": 77}, {"time": 47041, "pitch": 50, "duration": 239, "velocity": 88}, {"time": 47041, "pitch": 57, "duration": 239, "velocity": 98}, {"time": 47051, "pitch": 62, "duration": 229, "velocity": 106}, {"time": 47061, "pitch": 66, "duration": 219, "velocity": 91}, {"time": 47280, "pitch": 50, "duration": 159, "velocity": 83}, {"time": 47280, "pitch": 57, "duration": 159, "velocity": 93}, {"time": 47290, "pitch": 62, "duration": 149, "velocity": 101}, {"time": 47300, "pitch": 66, "duration": 139, "velocity": 86}, {"time": 47439, "pitch": 57, "duration": 79, "velocity": 79}, {"time": 47439, "pitch": 62, "duration": 79, "velocity": 91}, {"time": 47439, "pitch": 66, "duration": 79, "velocity": 83}, {"time": 47449, "pitch": 50, "duration": 69, "velocity": 75}, {"time": 47518, "pitch": 50, "duration": 161, "velocity": 68}, {"time": 47518, "pitch": 57, "duration": 161, "velocity": 78}, {"time": 47528, "pitch": 62, "duration": 151, "velocity": 86}, {"time": 47538, "pitch": 66, "duration": 141, "velocity": 71}, {"time": 47679, "pitch": 57, "duration": 81, "velocity": 78}, {"time": 47679, "pitch": 62, "duration": 81, "velocity": 90}, {"time": 47679, "pitch": 66, "duration": 81, "velocity": 82}, {"time": 47689, "pitch": 50, "duration": 71, "velocity": 74}, {"time": 47760, "pitch": 50, "duration": 241, "velocity": 73}, {"time": 47760, "pitch": 57, "duration": 241, "velocity": 83}, {"time": 47770, "pitch": 62, "duration": 231, "velocity": 91}, {"time": 47780, "pitch": 66, "duration": 221, "velocity": 76}, {"time": 48001, "pitch": 50, "duration": 239, "velocity": 88}, {"time": 48001, "pitch": 57, "duration": 239, "velocity": 98}, {"time": 48011, "pitch": 62, "duration": 229, "velocity": 106}, {"time": 48021, "pitch": 66, "duration": 219, "velocity": 91}, {"time": 48240, "pitch": 50, "duration": 159, "velocity": 83}, {"time": 48240, "pitch": 57, "duration": 159, "velocity": 93}, {"time": 48250, "pitch": 62, "duration": 149, "velocity": 101}, {"time": 48260, "pitch": 66, "duration": 139, "velocity": 86}, {"time": 48399, "pitch": 57, "duration": 79, "velocity": 79}, {"time": 48399, "pitch": 62, "duration": 79, "velocity": 91}, {"time": 48399, "pitch": 66, "duration": 79, "velocity": 83}, {"time": 48409, "pitch": 50, "duration": 69, "velocity": 75}, {"time": 48478, "pitch": 52, "duration": 242, "velocity": 88}, {"time": 48478, "pitch": 55, "duration": 242, "velocity": 98}, {"time": 48489, "pitch": 59, "duration": 231, "velocity": 106}, {"time": 48499, "pitch": 64, "duration": 221, "velocity": 91}, {"time": 48720, "pitch": 55, "duration": 241, "velocity": 81}, {"time": 48720, "pitch": 59, "duration": 241, "velocity": 93}, {"time": 48720, "pitch": 64, "duration": 241, "velocity": 85}, {"time": 48730, "pitch": 52, "duration": 231, "velocity": 77}, {"time": 48961, "pitch": 52, "duration": 239, "velocity": 88}, {"time": 48961, "pitch": 55, "duration": 239, "velocity": 98}, {"time": 48971, "pitch": 59, "duration": 229, "velocity": 106}, {"time": 48981, "pitch": 64, "duration": 219, "velocity": 91}, {"time": 49200, "pitch": 52, "duration": 159, "velocity": 83}, {"time": 49200, "pitch": 55, "duration": 159, "velocity": 93}, {"time": 49210, "pitch": 59, "duration": 149, "velocity": 101}, {"time": 49220, "pitch": 64, "duration": 139, "velocity": 86}, {"time": 49359, "pitch": 55, "duration": 80, "velocity": 79}, {"time": 49359, "pitch": 59, "duration": 80, "velocity": 91}, {"time": 49359, "pitch": 64, "duration": 80, "velocity": 83}, {"time": 49369, "pitch": 52, "duration": 70, "velocity": 75}, {"time": 49439, "pitch": 52, "duration": 160, "velocity": 68}, {"time": 49439, "pitch": 55, "duration": 160, "velocity": 78}, {"time": 49449, "pitch": 59, "duration": 150, "velocity": 86}, {"time": 49459, "pitch": 64, "duration": 140, "velocity": 71}, {"time": 49599, "pitch": 55, "duration": 81, "velocity": 78}, {"time": 49599, "pitch": 59, "duration": 81, "velocity": 90}, {"time": 49599, "pitch": 64, "duration": 81, "velocity": 82}, {"time": 49610, "pitch": 52, "duration": 70, "velocity": 74}, {"time": 49680, "pitch": 52, "duration": 241, "velocity": 73}, {"time": 49680, "pitch": 55, "duration": 241, "velocity": 83}, {"time": 49690, "pitch": 59, "duration": 231, "velocity": 91}, {"time": 49700, "pitch": 64, "duration": 221, "velocity": 76}, {"time": 49921, "pitch": 52, "duration": 239, "velocity": 88}, {"time": 49921, "pitch": 55, "duration": 239, "velocity": 98}, {"time": 49931, "pitch": 59, "duration": 229, "velocity": 106}, {"time": 49941, "pitch": 64, "duration": 219, "velocity": 91}, {"time": 50160, "pitch": 52, "duration": 159, "velocity": 83}, {"time": 50160, "pitch": 55, "duration": 159, "velocity": 93}, {"time": 50170, "pitch": 59, "duration": 149, "velocity": 101}, {"time": 50180, "pitch": 64, "duration": 139, "velocity": 86}, {"time": 50319, "pitch": 55, "duration": 80, "velocity": 79}, {"time": 50319, "pitch": 59, "duration": 80, "velocity": 91}, {"time": 50319, "pitch": 64, "duration": 80, "velocity": 83}, {"time": 50329, "pitch": 52, "duration": 70, "velocity": 75}, {"time": 50399, "pitch": 48, "duration": 241, "velocity": 88}, {"time": 50399, "pitch": 55, "duration": 241, "velocity": 98}, {"time": 50409, "pitch": 60, "duration": 231, "velocity": 106}, {"time": 50419, "pitch": 64, "duration": 221, "velocity": 91}, {"time": 50640, "pitch": 55, "duration": 241, "velocity": 81}, {"time": 50640, "pitch": 60, "duration": 241, "velocity": 93}, {"time": 50640, "pitch": 64, "duration": 241, "velocity": 85}, {"time": 50650, "pitch": 48, "duration": 231, "velocity": 77}, {"time": 50881, "pitch": 48, "duration": 239, "velocity": 88}, {"time": 50881, "pitch": 55, "duration": 239, "velocity": 98}, {"time": 50891, "pitch": 60, "duration": 229, "velocity": 106}, {"time": 50901, "pitch": 64, "duration": 219, "velocity": 91}, {"time": 51120, "pitch": 48, "duration": 159, "velocity": 83}, {"time": 51120, "pitch": 55, "duration": 159, "velocity": 93}, {"time": 51130, "pitch": 60, "duration": 149, "velocity": 101}, {"time": 51140, "pitch": 64, "duration": 139, "velocity": 86}, {"time": 51279, "pitch": 55, "duration": 80, "velocity": 79}, {"time": 51279, "pitch": 60, "duration": 80, "velocity": 91}, {"time": 51279, "pitch": 64, "duration": 80, "velocity": 83}, {"time": 51289, "pitch": 48, "duration": 70, "velocity": 75}, {"time": 51359, "pitch": 50, "duration": 161, "velocity": 68}, {"time": 51359, "pitch": 57, "duration": 161, "velocity": 78}, {"time": 51369, "pitch": 62, "duration": 151, "velocity": 86}, {"time": 51379, "pitch": 66, "duration": 141, "velocity": 71}, {"time": 51520, "pitch": 57, "duration": 80, "velocity": 78}, {"time": 51520, "pitch": 62, "duration": 80, "velocity": 90}, {"time": 51520, "pitch": 66, "duration": 80, "velocity": 82}, {"time": 51530, "pitch": 50, "duration": 70, "velocity": 74}, {"time": 51600, "pitch": 50, "duration": 242, "velocity": 73}, {"time": 51600, "pitch": 57, "duration": 242, "velocity": 83}, {"time": 51610, "pitch": 62, "duration": 232, "velocity": 91}, {"time": 51620, "pitch": 66, "duration": 222, "velocity": 76}, {"time": 51842, "pitch": 51, "duration": 238, "velocity": 88}, {"time": 51842, "pitch": 57, "duration": 238, "velocity": 98}, {"time": 51852, "pitch": 63, "duration": 228, "velocity": 106}, {"time": 51861, "pitch": 66, "duration": 219, "velocity": 91}, {"time": 52080, "pitch": 51, "duration": 159, "velocity": 83}, {"time": 52080, "pitch": 57, "duration": 159, "velocity": 93}, {"time": 52090, "pitch": 63, "duration": 149, "velocity": 101}, {"time": 52100, "pitch": 66, "duration": 139, "velocity": 86}, {"time": 52239, "pitch": 57, "duration": 80, "velocity": 79}, {"time": 52239, "pitch": 63, "duration": 80, "velocity": 91}, {"time": 52239, "pitch": 66, "duration": 80, "velocity": 83}, {"time": 52249, "pitch": 51, "duration": 70, "velocity": 75}, {"time": 79201, "pitch": 55, "duration": 239, "velocity": 88}, {"time": 79201, "pitch": 59, "duration": 239, "velocity": 98}, {"time": 79211, "pitch": 62, "duration": 229, "velocity": 106}, {"time": 79221, "pitch": 67, "duration": 219, "velocity": 91}, {"time": 79440, "pitch": 59, "duration": 238, "velocity": 81}, {"time": 79440, "pitch": 62, "duration": 238, "velocity": 93}, {"time": 79440, "pitch": 67, "duration": 238, "velocity": 85}, {"time": 79450, "pitch": 55, "duration": 228, "velocity": 77}, {"time": 79678, "pitch": 55, "duration": 242, "velocity": 88}, {"time": 79678, "pitch": 59, "duration": 242, "velocity": 98}, {"time": 79688, "pitch": 62, "duration": 232, "velocity": 106}, {"time": 79698, "pitch": 67, "duration": 222, "velocity": 91}, {"time": 79920, "pitch": 55, "duration": 161, "velocity": 83}, {"time": 79920, "pitch": 59, "duration": 161, "velocity": 93}, {"time": 79930, "pitch": 62, "duration": 151, "velocity": 101}, {"time": 79940, "pitch": 67, "duration": 141, "velocity": 86}, {"time": 80081, "pitch": 59, "duration": 80, "velocity": 79}, {"time": 80081, "pitch": 62, "duration": 80, "velocity": 91}, {"time": 80081, "pitch": 67, "duration": 80, "velocity": 83}, {"time": 80091, "pitch": 55, "duration": 70, "velocity": 75}, {"time": 80161, "pitch": 55, "duration": 159, "velocity": 68}, {"time": 80161, "pitch": 59, "duration": 159, "velocity": 78}, {"time": 80171, "pitch": 62, "duration": 149, "velocity": 86}, {"time": 80181, "pitch": 67, "duration": 139, "velocity": 71}, {"time": 80320, "pitch": 59, "duration": 80, "velocity": 78}, {"time": 80320, "pitch": 62, "duration": 80, "velocity": 90}, {"time": 80320, "pitch": 67, "duration": 80, "velocity": 82}, {"time": 80330, "pitch": 55, "duration": 70, "velocity": 74}, {"time": 80400, "pitch": 55, "duration": 238, "velocity": 73}, {"time": 80400, "pitch": 59, "duration": 238, "velocity": 83}, {"time": 80410, "pitch": 62, "duration": 228, "velocity": 91}, {"time": 80420, "pitch": 67, "duration": 218, "velocity": 76}, {"time": 80638, "pitch": 55, "duration": 242, "velocity": 88}, {"time": 80638, "pitch": 59, "duration": 242, "velocity": 98}, {"time": 80648, "pitch": 62, "duration": 232, "velocity": 106}, {"time": 80658, "pitch": 67, "duration": 222, "velocity": 91}, {"time": 80880, "pitch": 55, "duration": 161, "velocity": 83}, {"time": 80880, "pitch": 59, "duration": 161, "velocity": 93}, {"time": 80890, "pitch": 62, "duration": 151, "velocity": 101}, {"time": 80900, "pitch": 67, "duration": 141, "velocity": 86}, {"time": 81041, "pitch": 59, "duration": 80, "velocity": 79}, {"time": 81041, "pitch": 62, "duration": 80, "velocity": 91}, {"time": 81041, "pitch": 67, "duration": 80, "velocity": 83}, {"time": 81051, "pitch": 55, "duration": 70, "velocity": 75}, {"time": 81121, "pitch": 50, "duration": 239, "velocity": 88}, {"time": 81121, "pitch": 57, "duration": 239, "velocity": 98}, {"time": 81131, "pitch": 62, "duration": 229, "velocity": 106}, {"time": 81141, "pitch": 66, "duration": 219, "velocity": 91}, {"time": 81360, "pitch": 57, "duration": 238, "velocity": 81}, {"time": 81360, "pitch": 62, "duration": 238, "velocity": 93}, {"time": 81360, "pitch": 66, "duration": 238, "velocity": 85}, {"time": 81370, "pitch": 50, "duration": 228, "velocity": 77}, {"time": 81598, "pitch": 50, "duration": 242, "velocity": 88}, {"time": 81598, "pitch": 57, "duration": 242, "velocity": 98}, {"time": 81608, "pitch": 62, "duration": 232, "velocity": 106}, {"time": 81618, "pitch": 66, "duration": 222, "velocity": 91}, {"time": 81840, "pitch": 50, "duration": 161, "velocity": 83}, {"time": 81840, "pitch": 57, "duration": 161, "velocity": 93}, {"time": 81850, "pitch": 62, "duration": 151, "velocity": 101}, {"time": 81860, "pitch": 66, "duration": 141, "velocity": 86}, {"time": 82001, "pitch": 57, "duration": 80, "velocity": 79}, {"time": 82001, "pitch": 62, "duration": 80, "velocity": 91}, {"time": 82001, "pitch": 66, "duration": 80, "velocity": 83}, {"time": 82011, "pitch": 50, "duration": 70, "velocity": 75}, {"time": 82081, "pitch": 50, "duration": 159, "velocity": 68}, {"time": 82081, "pitch": 57, "duration": 159, "velocity": 78}, {"time": 82091, "pitch": 62, "duration": 149, "velocity": 86}, {"time": 82101, "pitch": 66, "duration": 139, "velocity": 71}, {"time": 82240, "pitch": 57, "duration": 80, "velocity": 78}, {"time": 82240, "pitch": 62, "duration": 80, "velocity": 90}, {"time": 82240, "pitch": 66, "duration": 80, "velocity": 82}, {"time": 82250, "pitch": 50, "duration": 70, "velocity": 74}, {"time": 82320, "pitch": 50, "duration": 238, "velocity": 73}, {"time": 82320, "pitch": 57, "duration": 238, "velocity": 83}, {"time": 82330, "pitch": 62, "duration": 228, "velocity": 91}, {"time": 82340, "pitch": 66, "duration": 218, "velocity": 76}, {"time": 82558, "pitch": 50, "duration": 242, "velocity": 88}, {"time": 82558, "pitch": 57, "duration": 242, "velocity": 98}, {"time": 82568, "pitch": 62, "duration": 232, "velocity": 106}, {"time": 82579, "pitch": 66, "duration": 221, "velocity": 91}, {"time": 82800, "pitch": 50, "duration": 161, "velocity": 83}, {"time": 82800, "pitch": 57, "duration": 161, "velocity": 93}, {"time": 82810, "pitch": 62, "duration": 151, "velocity": 101}, {"time": 82820, "pitch": 66, "duration": 141, "velocity": 86}, {"time": 82961, "pitch": 57, "duration": 80, "velocity": 79}, {"time": 82961, "pitch": 62, "duration": 80, "velocity": 91}, {"time": 82961, "pitch": 66, "duration": 80, "velocity": 83}, {"time": 82971, "pitch": 50, "duration": 70, "velocity": 75}, {"time": 83041, "pitch": 52, "duration": 239, "velocity": 88}, {"time": 83041, "pitch": 55, "duration": 239, "velocity": 98}, {"time": 83051, "pitch": 59, "duration": 229, "velocity": 106}, {"time": 83061, "pitch": 64, "duration": 219, "velocity": 91}, {"time": 83280, "pitch": 55, "duration": 239, "velocity": 81}, {"time": 83280, "pitch": 59, "duration": 239, "velocity": 93}, {"time": 83280, "pitch": 64, "duration": 239, "velocity": 85}, {"time": 83290, "pitch": 52, "duration": 229, "velocity": 77}, {"time": 83519, "pitch": 52, "duration": 241, "velocity": 88}, {"time": 83519, "pitch": 55, "duration": 241, "velocity": 98}, {"time": 83529, "pitch": 59, "duration": 231, "velocity": 106}, {"time": 83539, "pitch": 64, "duration": 221, "velocity": 91}, {"time": 83760, "pitch": 52, "duration": 161, "velocity": 83}, {"time": 83760, "pitch": 55, "duration": 161, "velocity": 93}, {"time": 83770, "pitch": 59, "duration": 151, "velocity": 101}, {"time": 83780, "pitch": 64, "duration": 141, "velocity": 86}, {"time": 83921, "pitch": 55, "duration": 80, "velocity": 79}, {"time": 83921, "pitch": 59, "duration": 80, "velocity": 91}, {"time": 83921, "pitch": 64, "duration": 80, "velocity": 83}, {"time": 83931, "pitch": 52, "duration": 70, "velocity": 75}, {"time": 84001, "pitch": 52, "duration": 159, "velocity": 68}, {"time": 84001, "pitch": 55, "duration": 159, "velocity": 78}, {"time": 84011, "pitch": 59, "duration": 149, "velocity": 86}, {"time": 84021, "pitch": 64, "duration": 139, "velocity": 71}, {"time": 84160, "pitch": 55, "duration": 80, "velocity": 78}, {"time": 84160, "pitch": 59, "duration": 80, "velocity": 90}, {"time": 84160, "pitch": 64, "duration": 80, "velocity": 82}, {"time": 84170, "pitch": 52, "duration": 70, "velocity": 74}, {"time": 84240, "pitch": 52, "duration": 239, "velocity": 73}, {"time": 84240, "pitch": 55, "duration": 239, "velocity": 83}, {"time": 84250, "pitch": 59, "duration": 229, "velocity": 91}, {"time": 84260, "pitch": 64, "duration": 219, "velocity": 76}, {"time": 84479, "pitch": 52, "duration": 241, "velocity": 88}, {"time": 84479, "pitch": 55, "duration": 241, "velocity": 98}, {"time": 84489, "pitch": 59, "duration": 231, "velocity": 106}, {"time": 84499, "pitch": 64, "duration": 221, "velocity": 91}, {"time": 84720, "pitch": 52, "duration": 161, "velocity": 83}, {"time": 84720, "pitch": 55, "duration": 161, "velocity": 93}, {"time": 84730, "pitch": 59, "duration": 151, "velocity": 101}, {"time": 84740, "pitch": 64, "duration": 141, "velocity": 86}, {"time": 84881, "pitch": 55, "duration": 80, "velocity": 79}, {"time": 84881, "pitch": 59, "duration": 80, "velocity": 91}, {"time": 84881, "pitch": 64, "duration": 80, "velocity": 83}, {"time": 84891, "pitch": 52, "duration": 70, "velocity": 75}, {"time": 84961, "pitch": 48, "duration": 239, "velocity": 88}, {"time": 84961, "pitch": 55, "duration": 239, "velocity": 98}, {"time": 84971, "pitch": 60, "duration": 229, "velocity": 106}, {"time": 84981, "pitch": 64, "duration": 219, "velocity": 91}, {"time": 85200, "pitch": 55, "duration": 239, "velocity": 81}, {"time": 85200, "pitch": 60, "duration": 239, "velocity": 93}, {"time": 85200, "pitch": 64, "duration": 239, "velocity": 85}, {"time": 85210, "pitch": 48, "duration": 229, "velocity": 77}, {"time": 85439, "pitch": 48, "duration": 241, "velocity": 88}, {"time": 85439, "pitch": 55, "duration": 241, "velocity": 98}, {"time": 85449, "pitch": 60, "duration": 231, "velocity": 106}, {"time": 85459, "pitch": 64, "duration": 221, "velocity": 91}, {"time": 85680, "pitch": 48, "duration": 161, "velocity": 83}, {"time": 85680, "pitch": 55, "duration": 161, "velocity": 93}, {"time": 85690, "pitch": 60, "duration": 151, "velocity": 101}, {"time": 85700, "pitch": 64, "duration": 141, "velocity": 86}, {"time": 85841, "pitch": 55, "duration": 81, "velocity": 79}, {"time": 85841, "pitch": 60, "duration": 81, "velocity": 91}, {"time": 85841, "pitch": 64, "duration": 81, "velocity": 83}, {"time": 85851, "pitch": 48, "duration": 71, "velocity": 75}, {"time": 85922, "pitch": 53, "duration": 159, "velocity": 68}, {"time": 85922, "pitch": 56, "duration": 159, "velocity": 78}, {"time": 85931, "pitch": 60, "duration": 150, "velocity": 86}, {"time": 85941, "pitch": 65, "duration": 140, "velocity": 71}, {"time": 86081, "pitch": 56, "duration": 79, "velocity": 78}, {"time": 86081, "pitch": 60, "duration": 79, "velocity": 90}, {"time": 86081, "pitch": 65, "duration": 79, "velocity": 82}, {"time": 86091, "pitch": 53, "duration": 69, "velocity": 74}, {"time": 86160, "pitch": 53, "duration": 239, "velocity": 73}, {"time": 86160, "pitch": 56, "duration": 239, "velocity": 83}, {"time": 86170, "pitch": 60, "duration": 229, "velocity": 91}, {"time": 86180, "pitch": 65, "duration": 219, "velocity": 76}, {"time": 86399, "pitch": 50, "duration": 241, "velocity": 88}, {"time": 86399, "pitch": 57, "duration": 241, "velocity": 98}, {"time": 86409, "pitch": 62, "duration": 231, "velocity": 106}, {"time": 86419, "pitch": 66, "duration": 221, "velocity": 91}, {"time": 86640, "pitch": 50, "duration": 161, "velocity": 83}, {"time": 86640, "pitch": 57, "duration": 161, "velocity": 93}, {"time": 86650, "pitch": 62, "duration": 151, "velocity": 101}, {"time": 86660, "pitch": 66, "duration": 141, "velocity": 86}, {"time": 86801, "pitch": 57, "duration": 81, "velocity": 79}, {"time": 86801, "pitch": 62, "duration": 81, "velocity": 91}, {"time": 86801, "pitch": 66, "duration": 81, "velocity": 83}, {"time": 86811, "pitch": 50, "duration": 71, "velocity": 75}, {"time": 86882, "pitch": 55, "duration": 238, "velocity": 88}, {"time": 86882, "pitch": 59, "duration": 238, "velocity": 98}, {"time": 86892, "pitch": 62, "duration": 228, "velocity": 106}, {"time": 86902, "pitch": 67, "duration": 218, "velocity": 91}, {"time": 87120, "pitch": 59, "duration": 239, "velocity": 81}, {"time": 87120, "pitch": 62, "duration": 239, "velocity": 93}, {"time": 87120, "pitch": 67, "duration": 239, "velocity": 85}, {"time": 87130, "pitch": 55, "duration": 229, "velocity": 77}, {"time": 87359, "pitch": 55, "duration": 241, "velocity": 88}, {"time": 87359, "pitch": 59, "duration": 241, "velocity": 98}, {"time": 87369, "pitch": 62, "duration": 231, "velocity": 106}, {"time": 87379, "pitch": 67, "duration": 221, "velocity": 91}, {"time": 87600, "pitch": 55, "duration": 161, "velocity": 83}, {"time": 87600, "pitch": 59, "duration": 161, "velocity": 93}, {"time": 87610, "pitch": 62, "duration": 151, "velocity": 101}, {"time": 87620, "pitch": 67, "duration": 141, "velocity": 86}, {"time": 87761, "pitch": 59, "duration": 81, "velocity": 79}, {"time": 87761, "pitch": 62, "duration": 81, "velocity": 91}, {"time": 87761, "pitch": 67, "duration": 81, "velocity": 83}, {"time": 87771, "pitch": 55, "duration": 71, "velocity": 75}, {"time": 87842, "pitch": 55, "duration": 159, "velocity": 68}, {"time": 87842, "pitch": 59, "duration": 159, "velocity": 78}, {"time": 87852, "pitch": 62, "duration": 149, "velocity": 86}, {"time": 87862, "pitch": 67, "duration": 139, "velocity": 71}, {"time": 88001, "pitch": 59, "duration": 79, "velocity": 78}, {"time": 88001, "pitch": 62, "duration": 79, "velocity": 90}, {"time": 88001, "pitch": 67, "duration": 79, "velocity": 82}, {"time": 88011, "pitch": 55, "duration": 69, "velocity": 74}, {"time": 88080, "pitch": 55, "duration": 239, "velocity": 73}, {"time": 88080, "pitch": 59, "duration": 239, "velocity": 83}, {"time": 88090, "pitch": 62, "duration": 229, "velocity": 91}, {"time": 88100, "pitch": 67, "duration": 219, "velocity": 76}, {"time": 88319, "pitch": 55, "duration": 241, "velocity": 88}, {"time": 88319, "pitch": 59, "duration": 241, "velocity": 98}, {"time": 88329, "pitch": 62, "duration": 231, "velocity": 106}, {"time": 88339, "pitch": 67, "duration": 221, "velocity": 91}, {"time": 88560, "pitch": 55, "duration": 161, "velocity": 83}, {"time": 88560, "pitch": 59, "duration": 161, "velocity": 93}, {"time": 88570, "pitch": 62, "duration": 151, "velocity": 101}, {"time": 88580, "pitch": 67, "duration": 141, "velocity": 86}, {"time": 88721, "pitch": 59, "duration": 81, "velocity": 79}, {"time": 88721, "pitch": 62, "duration": 81, "velocity": 91}, {"time": 88721, "pitch": 67, "duration": 81, "velocity": 83}, {"time": 88731, "pitch": 55, "duration": 71, "velocity": 75}, {"time": 88802, "pitch": 50, "duration": 238, "velocity": 88}, {"time": 88802, "pitch": 57, "duration": 238, "velocity": 98}, {"time": 88812, "pitch": 62, "duration": 228, "velocity": 106}, {"time": 88822, "pitch": 66, "duration": 218, "velocity": 91}, {"time": 89040, "pitch": 57, "duration": 239, "velocity": 81}, {"time": 89040, "pitch": 62, "duration": 239, "velocity": 93}, {"time": 89040, "pitch": 66, "duration": 239, "velocity": 85}, {"time": 89050, "pitch": 50, "duration": 229, "velocity": 77}, {"time": 89279, "pitch": 50, "duration": 241, "velocity": 88}, {"time": 89279, "pitch": 57, "duration": 241, "velocity": 98}, {"time": 89289, "pitch": 62, "duration": 231, "velocity": 106}, {"time": 89299, "pitch": 66, "duration": 221, "velocity": 91}, {"time": 89520, "pitch": 50, "duration": 161, "velocity": 83}, {"time": 89520, "pitch": 57, "duration": 161, "velocity": 93}, {"time": 89530, "pitch": 62, "duration": 151, "velocity": 101}, {"time": 89541, "pitch": 66, "duration": 140, "velocity": 86}, {"time": 89681, "pitch": 57, "duration": 81, "velocity": 79}, {"time": 89681, "pitch": 62, "duration": 81, "velocity": 91}, {"time": 89681, "pitch": 66, "duration": 81, "velocity": 83}, {"time": 89691, "pitch": 50, "duration": 71, "velocity": 75}, {"time": 89762, "pitch": 50, "duration": 159, "velocity": 68}, {"time": 89762, "pitch": 57, "duration": 159, "velocity": 78}, {"time": 89772, "pitch": 62, "duration": 149, "velocity": 86}, {"time": 89782, "pitch": 66, "duration": 139, "velocity": 71}, {"time": 89921, "pitch": 57, "duration": 79, "velocity": 78}, {"time": 89921, "pitch": 62, "duration": 79, "velocity": 90}, {"time": 89921, "pitch": 66, "duration": 79, "velocity": 82}, {"time": 89931, "pitch": 50, "duration": 69, "velocity": 74}, {"time": 90000, "pitch": 50, "duration": 239, "velocity": 73}, {"time": 90000, "pitch": 57, "duration": 239, "velocity": 83}, {"time": 90010, "pitch": 62, "duration": 229, "velocity": 91}, {"time": 90020, "pitch": 66, "duration": 219, "velocity": 76}, {"time": 90239, "pitch": 50, "duration": 242, "velocity": 88}, {"time": 90239, "pitch": 57, "duration": 242, "velocity": 98}, {"time": 90249, "pitch": 62, "duration": 232, "velocity": 106}, {"time": 90259, "pitch": 66, "duration": 222, "velocity": 91}, {"time": 90481, "pitch": 50, "duration": 160, "velocity": 83}, {"time": 90481, "pitch": 57, "duration": 160, "velocity": 93}, {"time": 90491, "pitch": 62, "duration": 150, "velocity": 101}, {"time": 90501, "pitch": 66, "duration": 140, "velocity": 86}, {"time": 90641, "pitch": 57, "duration": 81, "velocity": 79}, {"time": 90641, "pitch": 62, "duration": 81, "velocity": 91}, {"time": 90641, "pitch": 66, "duration": 81, "velocity": 83}, {"time": 90652, "pitch": 50, "duration": 70, "velocity": 75}, {"time": 90722, "pitch": 52, "duration": 239, "velocity": 88}, {"time": 90722, "pitch": 55, "duration": 239, "velocity": 98}, {"time": 90732, "pitch": 59, "duration": 229, "velocity": 106}, {"time": 90742, "pitch": 64, "duration": 219, "velocity": 91}, {"time": 90961, "pitch": 55, "duration": 238, "velocity": 81}, {"time": 90961, "pitch": 59, "duration": 238, "velocity": 93}, {"time": 90961, "pitch": 64, "duration": 238, "velocity": 85}, {"time": 90970, "pitch": 52, "duration": 229, "velocity": 77}, {"time": 91199, "pitch": 52, "duration": 242, "velocity": 88}, {"time": 91199, "pitch": 55, "duration": 242, "velocity": 98}, {"time": 91209, "pitch": 59, "duration": 232, "velocity": 106}, {"time": 91219, "pitch": 64, "duration": 222, "velocity": 91}, {"time": 91441, "pitch": 52, "duration": 161, "velocity": 83}, {"time": 91441, "pitch": 55, "duration": 161, "velocity": 93}, {"time": 91451, "pitch": 59, "duration": 151, "velocity": 101}, {"time": 91461, "pitch": 64, "duration": 141, "velocity": 86}, {"time": 91602, "pitch": 55, "duration": 80, "velocity": 79}, {"time": 91602, "pitch": 59, "duration": 80, "velocity": 91}, {"time": 91602, "pitch": 64, "duration": 80, "velocity": 83}, {"time": 91612, "pitch": 52, "duration": 70, "velocity": 75}, {"time": 91682, "pitch": 52, "duration": 159, "velocity": 68}, {"time": 91682, "pitch": 55, "duration": 159, "velocity": 78}, {"time": 91692, "pitch": 59, "duration": 149, "velocity": 86}, {"time": 91702, "pitch": 64, "duration": 139, "velocity": 71}, {"time": 91841, "pitch": 55, "duration": 80, "velocity": 78}, {"time": 91841, "pitch": 59, "duration": 80, "velocity": 90}, {"time": 91841, "pitch": 64, "duration": 80, "velocity": 82}, {"time": 91851, "pitch": 52, "duration": 70, "velocity": 74}, {"time": 91921, "pitch": 52, "duration": 238, "velocity": 73}, {"time": 91921, "pitch": 55, "duration": 238, "velocity": 83}, {"time": 91931, "pitch": 59, "duration": 228, "velocity": 91}, {"time": 91941, "pitch": 64, "duration": 218, "velocity": 76}, {"time": 92159, "pitch": 52, "duration": 242, "velocity": 88}, {"time": 92159, "pitch": 55, "duration": 242, "velocity": 98}, {"time": 92169, "pitch": 59, "duration": 232, "velocity": 106}, {"time": 92179, "pitch": 64, "duration": 222, "velocity": 91}, {"time": 92401, "pitch": 52, "duration": 161, "velocity": 83}, {"time": 92401, "pitch": 55, "duration": 161, "velocity": 93}, {"time": 92411, "pitch": 59, "duration": 151, "velocity": 101}, {"time": 92421, "pitch": 64, "duration": 141, "velocity": 86}, {"time": 92562, "pitch": 55, "duration": 80, "velocity": 79}, {"time": 92562, "pitch": 59, "duration": 80, "velocity": 91}, {"time": 92562, "pitch": 64, "duration": 80, "velocity": 83}, {"time": 92572, "pitch": 52, "duration": 70, "velocity": 75}, {"time": 92642, "pitch": 48, "duration": 239, "velocity": 88}, {"time": 92642, "pitch": 55, "duration": 239, "velocity": 98}, {"time": 92652, "pitch": 60, "duration": 229, "velocity": 106}, {"time": 92662, "pitch": 64, "duration": 219, "velocity": 91}, {"time": 92881, "pitch": 55, "duration": 238, "velocity": 81}, {"time": 92881, "pitch": 60, "duration": 238, "velocity": 93}, {"time": 92881, "pitch": 64, "duration": 238, "velocity": 85}, {"time": 92891, "pitch": 48, "duration": 228, "velocity": 77}, {"time": 93119, "pitch": 48, "duration": 242, "velocity": 88}, {"time": 93119, "pitch": 55, "duration": 242, "velocity": 98}, {"time": 93129, "pitch": 60, "duration": 232, "velocity": 106}, {"time": 93139, "pitch": 64, "duration": 222, "velocity": 91}, {"time": 93361, "pitch": 48, "duration": 161, "velocity": 83}, {"time": 93361, "pitch": 55, "duration": 161, "velocity": 93}, {"time": 93371, "pitch": 60, "duration": 151, "velocity": 101}, {"time": 93381, "pitch": 64, "duration": 141, "velocity": 86}, {"time": 93522, "pitch": 55, "duration": 80, "velocity": 79}, {"time": 93522, "pitch": 60, "duration": 80, "velocity": 91}, {"time": 93522, "pitch": 64, "duration": 80, "velocity": 83}, {"time": 93532, "pitch": 48, "duration": 70, "velocity": 75}, {"time": 93602, "pitch": 50, "duration": 159, "velocity": 68}, {"time": 93602, "pitch": 57, "duration": 159, "velocity": 78}, {"time": 93612, "pitch": 62, "duration": 149, "velocity": 86}, {"time": 93622, "pitch": 66, "duration": 139, "velocity": 71}, {"time": 93761, "pitch": 57, "duration": 80, "velocity": 78}, {"time": 93761, "pitch": 62, "duration": 80, "velocity": 90}, {"time": 93761, "pitch": 66, "duration": 80, "velocity": 82}, {"time": 93771, "pitch": 50, "duration": 70, "velocity": 74}, {"time": 93841, "pitch": 50, "duration": 238, "velocity": 73}, {"time": 93841, "pitch": 57, "duration": 238, "velocity": 83}, {"time": 93851, "pitch": 62, "duration": 228, "velocity": 91}, {"time": 93861, "pitch": 66, "duration": 218, "velocity": 76}, {"time": 94079, "pitch": 51, "duration": 242, "velocity": 88}, {"time": 94079, "pitch": 59, "duration": 242, "velocity": 98}, {"time": 94089, "pitch": 63, "duration": 232, "velocity": 106}, {"time": 94100, "pitch": 66, "duration": 221, "velocity": 91}, {"time": 94321, "pitch": 51, "duration": 161, "velocity": 83}, {"time": 94321, "pitch": 59, "duration": 161, "velocity": 93}, {"time": 94331, "pitch": 63, "duration": 151, "velocity": 101}, {"time": 94341, "pitch": 66, "duration": 141, "velocity": 86}, {"time": 94482, "pitch": 59, "duration": 80, "velocity": 79}, {"time": 94482, "pitch": 63, "duration": 80, "velocity": 91}, {"time": 94482, "pitch": 66, "duration": 80, "velocity": 83}, {"time": 94492, "pitch": 51, "duration": 70, "velocity": 75}, {"time": 113758, "pitch": 55, "duration": 242, "velocity": 88}, {"time": 113758, "pitch": 59, "duration": 242, "velocity": 98}, {"time": 113768, "pitch": 62, "duration": 232, "velocity": 106}, {"time": 113778, "pitch": 67, "duration": 222, "velocity": 91}, {"time": 114000, "pitch": 59, "duration": 241, "velocity": 81}, {"time": 114000, "pitch": 62, "duration": 241, "velocity": 93}, {"time": 114000, "pitch": 67, "duration": 241, "velocity": 85}, {"time": 114010, "pitch": 55, "duration": 231, "velocity": 77}, {"time": 114241, "pitch": 55, "duration": 239, "velocity": 88}, {"time": 114241, "pitch": 59, "duration": 239, "velocity": 98}, {"time": 114251, "pitch": 62, "duration": 229, "velocity": 106}, {"time": 114261, "pitch": 67, "duration": 219, "velocity": 91}, {"time": 114480, "pitch": 55, "duration": 159, "velocity": 83}, {"time": 114480, "pitch": 59, "duration": 159, "velocity": 93}, {"time": 114490, "pitch": 62, "duration": 149, "velocity": 101}, {"time": 114500, "pitch": 67, "duration": 139, "velocity": 86}, {"time": 114639, "pitch": 59, "duration": 79, "velocity": 79}, {"time": 114639, "pitch": 62, "duration": 79, "velocity": 91}, {"time": 114639, "pitch": 67, "duration": 79, "velocity": 83}, {"time": 114649, "pitch": 55, "duration": 69, "velocity": 75}, {"time": 114718, "pitch": 55, "duration": 161, "velocity": 68}, {"time": 114718, "pitch": 59, "duration": 161, "velocity": 78}, {"time": 114728, "pitch": 62, "duration": 151, "velocity": 86}, {"time": 114738, "pitch": 67, "duration": 141, "velocity": 71}, {"time": 114879, "pitch": 59, "duration": 81, "velocity": 78}, {"time": 114879, "pitch": 62, "duration": 81, "velocity": 90}, {"time": 114879, "pitch": 67, "duration": 81, "velocity": 82}, {"time": 114889, "pitch": 55, "duration": 71, "velocity": 74}, {"time": 114960, "pitch": 55, "duration": 241, "velocity": 73}, {"time": 114960, "pitch": 59, "duration": 241, "velocity": 83}, {"time": 114970, "pitch": 62, "duration": 231, "velocity": 91}, {"time": 114980, "pitch": 67, "duration": 221, "velocity": 76}, {"time": 115201, "pitch": 55, "duration": 239, "velocity": 88}, {"time": 115201, "pitch": 59, "duration": 239, "velocity": 98}, {"time": 115211, "pitch": 62, "duration": 229, "velocity": 106}, {"time": 115221, "pitch": 67, "duration": 219, "velocity": 91}, {"time": 115440, "pitch": 55, "duration": 159, "velocity": 83}, {"time": 115440, "pitch": 59, "duration": 159, "velocity": 93}, {"time": 115450, "pitch": 62, "duration": 149, "velocity": 101}, {"time": 115460, "pitch": 67, "duration": 139, "velocity": 86}, {"time": 115599, "pitch": 59, "duration": 79, "velocity": 79}, {"time": 115599, "pitch": 62, "duration": 79, "velocity": 91}, {"time": 115599, "pitch": 67, "duration": 79, "velocity": 83}, {"time": 115609, "pitch": 55, "duration": 69, "velocity": 75}, {"time": 115678, "pitch": 50, "duration": 242, "velocity": 88}, {"time": 115678, "pitch": 57, "duration": 242, "velocity": 98}, {"time": 115688, "pitch": 62, "duration": 232, "velocity": 106}, {"time": 115698, "pitch": 66, "duration": 222, "velocity": 91}, {"time": 115920, "pitch": 57, "duration": 241, "velocity": 81}, {"time": 115920, "pitch": 62, "duration": 241, "velocity": 93}, {"time": 115920, "pitch": 66, "duration": 241, "velocity": 85}, {"time": 115930, "pitch": 50, "duration": 231, "velocity": 77}, {"time": 116161, "pitch": 50, "duration": 239, "velocity": 88}, {"time": 116161, "pitch": 57, "duration": 239, "velocity": 98}, {"time": 116171, "pitch": 62, "duration": 229, "velocity": 106}, {"time": 116181, "pitch": 66, "duration": 219, "velocity": 91}, {"time": 116400, "pitch": 50, "duration": 159, "velocity": 83}, {"time": 116400, "pitch": 57, "duration": 159, "velocity": 93}, {"time": 116410, "pitch": 62, "duration": 149, "velocity": 101}, {"time": 116420, "pitch": 66, "duration": 139, "velocity": 86}, {"time": 116559, "pitch": 57, "duration": 79, "velocity": 79}, {"time": 116559, "pitch": 62, "duration": 79, "velocity": 91}, {"time": 116559, "pitch": 66, "duration": 79, "velocity": 83}, {"time": 116569, "pitch": 50, "duration": 69, "velocity": 75}, {"time": 116638, "pitch": 50, "duration": 161, "velocity": 68}, {"time": 116638, "pitch": 57, "duration": 161, "velocity": 78}, {"time": 116648, "pitch": 62, "duration": 151, "velocity": 86}, {"time": 116659, "pitch": 66, "duration": 140, "velocity": 71}, {"time": 116799, "pitch": 57, "duration": 81, "velocity": 78}, {"time": 116799, "pitch": 62, "duration": 81, "velocity": 90}, {"time": 116799, "pitch": 66, "duration": 81, "velocity": 82}, {"time": 116809, "pitch": 50, "duration": 71, "velocity": 74}, {"time": 116880, "pitch": 50, "duration": 241, "velocity": 73}, {"time": 116880, "pitch": 57, "duration": 241, "velocity": 83}, {"time": 116890, "pitch": 62, "duration": 231, "velocity": 91}, {"time": 116900, "pitch": 66, "duration": 221, "velocity": 76}, {"time": 117121, "pitch": 50, "duration": 239, "velocity": 88}, {"time": 117121, "pitch": 57, "duration": 239, "velocity": 98}, {"time": 117131, "pitch": 62, "duration": 229, "velocity": 106}, {"time": 117141, "pitch": 66, "duration": 219, "velocity": 91}, {"time": 117360, "pitch": 50, "duration": 159, "velocity": 83}, {"time": 117360, "pitch": 57, "duration": 159, "velocity": 93}, {"time": 117370, "pitch": 62, "duration": 149, "velocity": 101}, {"time": 117380, "pitch": 66, "duration": 139, "velocity": 86}, {"time": 117519, "pitch": 57, "duration": 80, "velocity": 79}, {"time": 117519, "pitch": 62, "duration": 80, "velocity": 91}, {"time": 117519, "pitch": 66, "duration": 80, "velocity": 83}, {"time": 117529, "pitch": 50, "duration": 70, "velocity": 75}, {"time": 117599, "pitch": 52, "duration": 241, "velocity": 88}, {"time": 117599, "pitch": 55, "duration": 241, "velocity": 98}, {"time": 117609, "pitch": 59, "duration": 231, "velocity": 106}, {"time": 117619, "pitch": 64, "duration": 221, "velocity": 91}, {"time": 117840, "pitch": 55, "duration": 241, "velocity": 81}, {"time": 117840, "pitch": 59, "duration": 241, "velocity": 93}, {"time": 117840, "pitch": 64, "duration": 241, "velocity": 85}, {"time": 117850, "pitch": 52, "duration": 231, "velocity": 77}, {"time": 118081, "pitch": 52, "duration": 239, "velocity": 88}, {"time": 118081, "pitch": 55, "duration": 239, "velocity": 98}, {"time": 118091, "pitch": 59, "duration": 229, "velocity": 106}, {"time": 118101, "pitch": 64, "duration": 219, "velocity": 91}, {"time": 118320, "pitch": 52, "duration": 159, "velocity": 83}, {"time": 118320, "pitch": 55, "duration": 159, "velocity": 93}, {"time": 118330, "pitch": 59, "duration": 149, "velocity": 101}, {"time": 118340, "pitch": 64, "duration": 139, "velocity": 86}, {"time": 118479, "pitch": 55, "duration": 80, "velocity": 79}, {"time": 118479, "pitch": 59, "duration": 80, "velocity": 91}, {"time": 118479, "pitch": 64, "duration": 80, "velocity": 83}, {"time": 118489, "pitch": 52, "duration": 70, "velocity": 75}, {"time": 118559, "pitch": 52, "duration": 161, "velocity": 68}, {"time": 118559, "pitch": 55, "duration": 161, "velocity": 78}, {"time": 118569, "pitch": 59, "duration": 151, "velocity": 86}, {"time": 118579, "pitch": 64, "duration": 141, "velocity": 71}, {"time": 118720, "pitch": 55, "duration": 80, "velocity": 78}, {"time": 118720, "pitch": 59, "duration": 80, "velocity": 90}, {"time": 118720, "pitch": 64, "duration": 80, "velocity": 82}, {"time": 118730, "pitch": 52, "duration": 70, "velocity": 74}, {"time": 118800, "pitch": 52, "duration": 241, "velocity": 73}, {"time": 118800, "pitch": 55, "duration": 241, "velocity": 83}, {"time": 118810, "pitch": 59, "duration": 231, "velocity": 91}, {"time": 118820, "pitch": 64, "duration": 221, "velocity": 76}, {"time": 119041, "pitch": 52, "duration": 239, "velocity": 88}, {"time": 119041, "pitch": 55, "duration": 239, "velocity": 98}, {"time": 119051, "pitch": 59, "duration": 229, "velocity": 106}, {"time": 119061, "pitch": 64, "duration": 219, "velocity": 91}, {"time": 119280, "pitch": 52, "duration": 159, "velocity": 83}, {"time": 119280, "pitch": 55, "duration": 159, "velocity": 93}, {"time": 119290, "pitch": 59, "duration": 149, "velocity": 101}, {"time": 119300, "pitch": 64, "duration": 139, "velocity": 86}, {"time": 119439, "pitch": 55, "duration": 80, "velocity": 79}, {"time": 119439, "pitch": 59, "duration": 80, "velocity": 91}, {"time": 119439, "pitch": 64, "duration": 80, "velocity": 83}, {"time": 119449, "pitch": 52, "duration": 70, "velocity": 75}, {"time": 119519, "pitch": 48, "duration": 241, "velocity": 88}, {"time": 119519, "pitch": 55, "duration": 241, "velocity": 98}, {"time": 119529, "pitch": 60, "duration": 231, "velocity": 106}, {"time": 119539, "pitch": 64, "duration": 221, "velocity": 91}, {"time": 119760, "pitch": 55, "duration": 242, "velocity": 81}, {"time": 119760, "pitch": 60, "duration": 242, "velocity": 93}, {"time": 119760, "pitch": 64, "duration": 242, "velocity": 85}, {"time": 119770, "pitch": 48, "duration": 232, "velocity": 77}, {"time": 120002, "pitch": 48, "duration": 238, "velocity": 88}, {"time": 120002, "pitch": 55, "duration": 238, "velocity": 98}, {"time": 120011, "pitch": 60, "duration": 229, "velocity": 106}, {"time": 120021, "pitch": 64, "duration": 219, "velocity": 91}, {"time": 120240, "pitch": 48, "duration": 159, "velocity": 83}, {"time": 120240, "pitch": 55, "duration": 159, "velocity": 93}, {"time": 120250, "pitch": 60, "duration": 149, "velocity": 101}, {"time": 120260, "pitch": 64, "duration": 139, "velocity": 86}, {"time": 120399, "pitch": 55, "duration": 80, "velocity": 79}, {"time": 120399, "pitch": 60, "duration": 80, "velocity": 91}, {"time": 120399, "pitch": 64, "duration": 80, "velocity": 83}, {"time": 120409, "pitch": 48, "duration": 70, "velocity": 75}, {"time": 120479, "pitch": 53, "duration": 161, "velocity": 68}, {"time": 120479, "pitch": 56, "duration": 161, "velocity": 78}, {"time": 120489, "pitch": 60, "duration": 151, "velocity": 86}, {"time": 120499, "pitch": 65, "duration": 141, "velocity": 71}, {"time": 120640, "pitch": 56, "duration": 80, "velocity": 78}, {"time": 120640, "pitch": 60, "duration": 80, "velocity": 90}, {"time": 120640, "pitch": 65, "duration": 80, "velocity": 82}, {"time": 120650, "pitch": 53, "duration": 70, "velocity": 74}, {"time": 120720, "pitch": 53, "duration": 242, "velocity": 73}, {"time": 120720, "pitch": 56, "duration": 242, "velocity": 83}, {"time": 120730, "pitch": 60, "duration": 232, "velocity": 91}, {"time": 120740, "pitch": 65, "duration": 222, "velocity": 76}, {"time": 120962, "pitch": 50, "duration": 238, "velocity": 88}, {"time": 120962, "pitch": 57, "duration": 238, "velocity": 98}, {"time": 120972, "pitch": 62, "duration": 228, "velocity": 106}, {"time": 120981, "pitch": 66, "duration": 219, "velocity": 91}, {"time": 121200, "pitch": 50, "duration": 159, "velocity": 83}, {"time": 121200, "pitch": 57, "duration": 159, "velocity": 93}, {"time": 121210, "pitch": 62, "duration": 149, "velocity": 101}, {"time": 121220, "pitch": 66, "duration": 139, "velocity": 86}, {"time": 121359, "pitch": 57, "duration": 80, "velocity": 79}, {"time": 121359, "pitch": 62, "duration": 80, "velocity": 91}, {"time": 121359, "pitch": 66, "duration": 80, "velocity": 83}, {"time": 121369, "pitch": 50, "duration": 70, "velocity": 75}, {"time": 121439, "pitch": 55, "duration": 241, "velocity": 88}, {"time": 121439, "pitch": 59, "duration": 241, "velocity": 98}, {"time": 121449, "pitch": 62, "duration": 231, "velocity": 106}, {"time": 121459, "pitch": 67, "duration": 221, "velocity": 91}, {"time": 121680, "pitch": 59, "duration": 242, "velocity": 81}, {"time": 121680, "pitch": 62, "duration": 242, "velocity": 93}, {"time": 121680, "pitch": 67, "duration": 242, "velocity": 85}, {"time": 121690, "pitch": 55, "duration": 232, "velocity": 77}, {"time": 121922, "pitch": 55, "duration": 238, "velocity": 88}, {"time": 121922, "pitch": 59, "duration": 238, "velocity": 98}, {"time": 121932, "pitch": 62, "duration": 228, "velocity": 106}, {"time": 121942, "pitch": 67, "duration": 218, "velocity": 91}, {"time": 122160, "pitch": 55, "duration": 159, "velocity": 83}, {"time": 122160, "pitch": 59, "duration": 159, "velocity": 93}, {"time": 122170, "pitch": 62, "duration": 149, "velocity": 101}, {"time": 122180, "pitch": 67, "duration": 139, "velocity": 86}, {"time": 122319, "pitch": 59, "duration": 80, "velocity": 79}, {"time": 122319, "pitch": 62, "duration": 80, "velocity": 91}, {"time": 122319, "pitch": 67, "duration": 80, "velocity": 83}, {"time": 122329, "pitch": 55, "duration": 70, "velocity": 75}, {"time": 122399, "pitch": 55, "duration": 161, "velocity": 68}, {"time": 122399, "pitch": 59, "duration": 161, "velocity": 78}, {"time": 122409, "pitch": 62, "duration": 151, "velocity": 86}, {"time": 122419, "pitch": 67, "duration": 141, "velocity": 71}, {"time": 122560, "pitch": 59, "duration": 80, "velocity": 78}, {"time": 122560, "pitch": 62, "duration": 80, "velocity": 90}, {"time": 122560, "pitch": 67, "duration": 80, "velocity": 82}, {"time": 122570, "pitch": 55, "duration": 70, "velocity": 74}, {"time": 122640, "pitch": 55, "duration": 242, "velocity": 73}, {"time": 122640, "pitch": 59, "duration": 242, "velocity": 83}, {"time": 122650, "pitch": 62, "duration": 232, "velocity": 91}, {"time": 122660, "pitch": 67, "duration": 222, "velocity": 76}, {"time": 122882, "pitch": 55, "duration": 238, "velocity": 88}, {"time": 122882, "pitch": 59, "duration": 238, "velocity": 98}, {"time": 122892, "pitch": 62, "duration": 228, "velocity": 106}, {"time": 122902, "pitch": 67, "duration": 218, "velocity": 91}, {"time": 123120, "pitch": 55, "duration": 159, "velocity": 83}, {"time": 123120, "pitch": 59, "duration": 159, "velocity": 93}, {"time": 123130, "pitch": 62, "duration": 149, "velocity": 101}, {"time": 123140, "pitch": 67, "duration": 139, "velocity": 86}, {"time": 123279, "pitch": 59, "duration": 80, "velocity": 79}, {"time": 123279, "pitch": 62, "duration": 80, "velocity": 91}, {"time": 123279, "pitch": 67, "duration": 80, "velocity": 83}, {"time": 123289, "pitch": 55, "duration": 70, "velocity": 75}, {"time": 123359, "pitch": 50, "duration": 241, "velocity": 88}, {"time": 123359, "pitch": 57, "duration": 241, "velocity": 98}, {"time": 123369, "pitch": 62, "duration": 231, "velocity": 106}, {"time": 123379, "pitch": 66, "duration": 221, "velocity": 91}, {"time": 123600, "pitch": 57, "duration": 242, "velocity": 81}, {"time": 123600, "pitch": 62, "duration": 242, "velocity": 93}, {"time": 123600, "pitch": 66, "duration": 242, "velocity": 85}, {"time": 123610, "pitch": 50, "duration": 232, "velocity": 77}, {"time": 123842, "pitch": 50, "duration": 238, "velocity": 88}, {"time": 123842, "pitch": 57, "duration": 238, "velocity": 98}, {"time": 123852, "pitch": 62, "duration": 228, "velocity": 106}, {"time": 123862, "pitch": 66, "duration": 218, "velocity": 91}, {"time": 124080, "pitch": 50, "duration": 160, "velocity": 83}, {"time": 124080, "pitch": 57, "duration": 160, "velocity": 93}, {"time": 124090, "pitch": 62, "duration": 150, "velocity": 101}, {"time": 124100, "pitch": 66, "duration": 140, "velocity": 86}, {"time": 124240, "pitch": 57, "duration": 79, "velocity": 79}, {"time": 124240, "pitch": 62, "duration": 79, "velocity": 91}, {"time": 124240, "pitch": 66, "duration": 79, "velocity": 83}, {"time": 124249, "pitch": 50, "duration": 70, "velocity": 75}, {"time": 124319, "pitch": 50, "duration": 161, "velocity": 68}, {"time": 124319, "pitch": 57, "duration": 161, "velocity": 78}, {"time": 124329, "pitch": 62, "duration": 151, "velocity": 86}, {"time": 124339, "pitch": 66, "duration": 141, "velocity": 71}, {"time": 124480, "pitch": 57, "duration": 81, "velocity": 78}, {"time": 124480, "pitch": 62, "duration": 81, "velocity": 90}, {"time": 124480, "pitch": 66, "duration": 81, "velocity": 82}, {"time": 124490, "pitch": 50, "duration": 71, "velocity": 74}, {"time": 124561, "pitch": 50, "duration": 241, "velocity": 73}, {"time": 124561, "pitch": 57, "duration": 241, "velocity": 83}, {"time": 124571, "pitch": 62, "duration": 231, "velocity": 91}, {"time": 124581, "pitch": 66, "duration": 221, "velocity": 76}, {"time": 124802, "pitch": 50, "duration": 239, "velocity": 88}, {"time": 124802, "pitch": 57, "duration": 239, "velocity": 98}, {"time": 124812, "pitch": 62, "duration": 229, "velocity": 106}, {"time": 124822, "pitch": 66, "duration": 219, "velocity": 91}, {"time": 125041, "pitch": 50, "duration": 159, "velocity": 83}, {"time": 125041, "pitch": 57, "duration": 159, "velocity": 93}, {"time": 125050, "pitch": 62, "duration": 150, "velocity": 101}, {"time": 125060, "pitch": 66, "duration": 140, "velocity": 86}, {"time": 125200, "pitch": 57, "duration": 79, "velocity": 79}, {"time": 125200, "pitch": 62, "duration": 79, "velocity": 91}, {"time": 125200, "pitch": 66, "duration": 79, "velocity": 83}, {"time": 125210, "pitch": 50, "duration": 69, "velocity": 75}, {"time": 125279, "pitch": 52, "duration": 242, "velocity": 88}, {"time": 125279, "pitch": 55, "duration": 242, "velocity": 98}, {"time": 125289, "pitch": 59, "duration": 232, "velocity": 106}, {"time": 125299, "pitch": 64, "duration": 222, "velocity": 91}, {"time": 125521, "pitch": 55, "duration": 241, "velocity": 81}, {"time": 125521, "pitch": 59, "duration": 241, "velocity": 93}, {"time": 125521, "pitch": 64, "duration": 241, "velocity": 85}, {"time": 125531, "pitch": 52, "duration": 231, "velocity": 77}, {"time": 125762, "pitch": 52, "duration": 239, "velocity": 88}, {"time": 125762, "pitch": 55, "duration": 239, "velocity": 98}, {"time": 125772, "pitch": 59, "duration": 229, "velocity": 106}, {"time": 125782, "pitch": 64, "duration": 219, "velocity": 91}, {"time": 126001, "pitch": 52, "duration": 159, "velocity": 83}, {"time": 126001, "pitch": 55, "duration": 159, "velocity": 93}, {"time": 126011, "pitch": 59, "duration": 149, "velocity": 101}, {"time": 126020, "pitch": 64, "duration": 140, "velocity": 86}, {"time": 126160, "pitch": 55, "duration": 79, "velocity": 79}, {"time": 126160, "pitch": 59, "duration": 79, "velocity": 91}, {"time": 126160, "pitch": 64, "duration": 79, "velocity": 83}, {"time": 126170, "pitch": 52, "duration": 69, "velocity": 75}, {"time": 126239, "pitch": 52, "duration": 161, "velocity": 68}, {"time": 126239, "pitch": 55, "duration": 161, "velocity": 78}, {"time": 126249, "pitch": 59, "duration": 151, "velocity": 86}, {"time": 126259, "pitch": 64, "duration": 141, "velocity": 71}, {"time": 126400, "pitch": 55, "duration": 81, "velocity": 78}, {"time": 126400, "pitch": 59, "duration": 81, "velocity": 90}, {"time": 126400, "pitch": 64, "duration": 81, "velocity": 82}, {"time": 126410, "pitch": 52, "duration": 71, "velocity": 74}, {"time": 126481, "pitch": 52, "duration": 241, "velocity": 73}, {"time": 126481, "pitch": 55, "duration": 241, "velocity": 83}, {"time": 126491, "pitch": 59, "duration": 231, "velocity": 91}, {"time": 126501, "pitch": 64, "duration": 221, "velocity": 76}, {"time": 126722, "pitch": 52, "duration": 239, "velocity": 88}, {"time": 126722, "pitch": 55, "duration": 239, "velocity": 98}, {"time": 126732, "pitch": 59, "duration": 229, "velocity": 106}, {"time": 126742, "pitch": 64, "duration": 219, "velocity": 91}, {"time": 126961, "pitch": 52, "duration": 159, "velocity": 83}, {"time": 126961, "pitch": 55, "duration": 159, "velocity": 93}, {"time": 126971, "pitch": 59, "duration": 149, "velocity": 101}, {"time": 126981, "pitch": 64, "duration": 139, "velocity": 86}, {"time": 127120, "pitch": 55, "duration": 79, "velocity": 79}, {"time": 127120, "pitch": 59, "duration": 79, "velocity": 91}, {"time": 127120, "pitch": 64, "duration": 79, "velocity": 83}, {"time": 127130, "pitch": 52, "duration": 69, "velocity": 75}, {"time": 127199, "pitch": 48, "duration": 242, "velocity": 88}, {"time": 127199, "pitch": 55, "duration": 242, "velocity": 98}, {"time": 127209, "pitch": 60, "duration": 232, "velocity": 106}, {"time": 127219, "pitch": 64, "duration": 222, "velocity": 91}, {"time": 127441, "pitch": 55, "duration": 241, "velocity": 81}, {"time": 127441, "pitch": 60, "duration": 241, "velocity": 93}, {"time": 127441, "pitch": 64, "duration": 241, "velocity": 85}, {"time": 127451, "pitch": 48, "duration": 231, "velocity": 77}, {"time": 127682, "pitch": 48, "duration": 239, "velocity": 88}, {"time": 127682, "pitch": 55, "duration": 239, "velocity": 98}, {"time": 127692, "pitch": 60, "duration": 229, "velocity": 106}, {"time": 127702, "pitch": 64, "duration": 219, "velocity": 91}, {"time": 127921, "pitch": 48, "duration": 159, "velocity": 83}, {"time": 127921, "pitch": 55, "duration": 159, "velocity": 93}, {"time": 127931, "pitch": 60, "duration": 149, "velocity": 101}, {"time": 127941, "pitch": 64, "duration": 139, "velocity": 86}, {"time": 128080, "pitch": 55, "duration": 79, "velocity": 79}, {"time": 128080, "pitch": 60, "duration": 79, "velocity": 91}, {"time": 128080, "pitch": 64, "duration": 79, "velocity": 83}, {"time": 128090, "pitch": 48, "duration": 69, "velocity": 75}, {"time": 128159, "pitch": 50, "duration": 161, "velocity": 68}, {"time": 128159, "pitch": 57, "duration": 161, "velocity": 78}, {"time": 128169, "pitch": 62, "duration": 151, "velocity": 86}, {"time": 128179, "pitch": 66, "duration": 141, "velocity": 71}, {"time": 128320, "pitch": 57, "duration": 81, "velocity": 78}, {"time": 128320, "pitch": 62, "duration": 81, "velocity": 90}, {"time": 128320, "pitch": 66, "duration": 81, "velocity": 82}, {"time": 128330, "pitch": 50, "duration": 71, "velocity": 74}, {"time": 128401, "pitch": 50, "duration": 241, "velocity": 73}, {"time": 128401, "pitch": 57, "duration": 241, "velocity": 83}, {"time": 128411, "pitch": 62, "duration": 231, "velocity": 91}, {"time": 128421, "pitch": 66, "duration": 221, "velocity": 76}, {"time": 128642, "pitch": 50, "duration": 239, "velocity": 88}, {"time": 128642, "pitch": 57, "duration": 239, "velocity": 98}, {"time": 128652, "pitch": 62, "duration": 229, "velocity": 106}, {"time": 128662, "pitch": 66, "duration": 219, "velocity": 91}, {"time": 128881, "pitch": 50, "duration": 159, "velocity": 83}, {"time": 128881, "pitch": 57, "duration": 159, "velocity": 93}, {"time": 128891, "pitch": 62, "duration": 149, "velocity": 101}, {"time": 128901, "pitch": 66, "duration": 139, "velocity": 86}, {"time": 129040, "pitch": 57, "duration": 79, "velocity": 79}, {"time": 129040, "pitch": 62, "duration": 79, "velocity": 91}, {"time": 129040, "pitch": 66, "duration": 79, "velocity": 83}, {"time": 129050, "pitch": 50, "duration": 69, "velocity": 75}, {"time": 129119, "pitch": 55, "duration": 242, "velocity": 88}, {"time": 129119, "pitch": 59, "duration": 242, "velocity": 98}, {"time": 129130, "pitch": 62, "duration": 231, "velocity": 106}, {"time": 129140, "pitch": 67, "duration": 221, "velocity": 91}, {"time": 129361, "pitch": 59, "duration": 241, "velocity": 81}, {"time": 129361, "pitch": 62, "duration": 241, "velocity": 93}, {"time": 129361, "pitch": 67, "duration": 241, "velocity": 85}, {"time": 129371, "pitch": 55, "duration": 231, "velocity": 77}, {"time": 129602, "pitch": 55, "duration": 239, "velocity": 88}, {"time": 129602, "pitch": 59, "duration": 239, "velocity": 98}, {"time": 129612, "pitch": 62, "duration": 229, "velocity": 106}, {"time": 129622, "pitch": 67, "duration": 219, "velocity": 91}, {"time": 129841, "pitch": 55, "duration": 159, "velocity": 83}, {"time": 129841, "pitch": 59, "duration": 159, "velocity": 93}, {"time": 129851, "pitch": 62, "duration": 149, "velocity": 101}, {"time": 129861, "pitch": 67, "duration": 139, "velocity": 86}, {"time": 130000, "pitch": 59, "duration": 80, "velocity": 79}, {"time": 130000, "pitch": 62, "duration": 80, "velocity": 91}, {"time": 130000, "pitch": 67, "duration": 80, "velocity": 83}, {"time": 130010, "pitch": 55, "duration": 70, "velocity": 75}, {"time": 130080, "pitch": 55, "duration": 160, "velocity": 68}, {"time": 130080, "pitch": 59, "duration": 160, "velocity": 78}, {"time": 130090, "pitch": 62, "duration": 150, "velocity": 86}, {"time": 130100, "pitch": 67, "duration": 140, "velocity": 71}, {"time": 130240, "pitch": 59, "duration": 81, "velocity": 78}, {"time": 130240, "pitch": 62, "duration": 81, "velocity": 90}, {"time": 130240, "pitch": 67, "duration": 81, "velocity": 82}, {"time": 130251, "pitch": 55, "duration": 70, "velocity": 74}, {"time": 130321, "pitch": 55, "duration": 241, "velocity": 73}, {"time": 130321, "pitch": 59, "duration": 241, "velocity": 83}, {"time": 130331, "pitch": 62, "duration": 231, "velocity": 91}, {"time": 130341, "pitch": 67, "duration": 221, "velocity": 76}, {"time": 130562, "pitch": 55, "duration": 239, "velocity": 88}, {"time": 130562, "pitch": 59, "duration": 239, "velocity": 98}, {"time": 130572, "pitch": 62, "duration": 229, "velocity": 106}, {"time": 130582, "pitch": 67, "duration": 219, "velocity": 91}, {"time": 130801, "pitch": 55, "duration": 159, "velocity": 83}, {"time": 130801, "pitch": 59, "duration": 159, "velocity": 93}, {"time": 130811, "pitch": 62, "duration": 149, "velocity": 101}, {"time": 130821, "pitch": 67, "duration": 139, "velocity": 86}, {"time": 130960, "pitch": 59, "duration": 80, "velocity": 79}, {"time": 130960, "pitch": 62, "duration": 80, "velocity": 91}, {"time": 130960, "pitch": 67, "duration": 80, "velocity": 83}, {"time": 130970, "pitch": 55, "duration": 70, "velocity": 75}, {"time": 131040, "pitch": 50, "duration": 241, "velocity": 88}, {"time": 131040, "pitch": 57, "duration": 241, "velocity": 98}, {"time": 131050, "pitch": 62, "duration": 231, "velocity": 106}, {"time": 131060, "pitch": 66, "duration": 221, "velocity": 91}, {"time": 131281, "pitch": 57, "duration": 241, "velocity": 81}, {"time": 131281, "pitch": 62, "duration": 241, "velocity": 93}, {"time": 131281, "pitch": 66, "duration": 241, "velocity": 85}, {"time": 131291, "pitch": 50, "duration": 231, "velocity": 77}, {"time": 131522, "pitch": 50, "duration": 239, "velocity": 88}, {"time": 131522, "pitch": 57, "duration": 239, "velocity": 98}, {"time": 131532, "pitch": 62, "duration": 229, "velocity": 106}, {"time": 131542, "pitch": 66, "duration": 219, "velocity": 91}, {"time": 131761, "pitch": 50, "duration": 159, "velocity": 83}, {"time": 131761, "pitch": 57, "duration": 159, "velocity": 93}, {"time": 131771, "pitch": 62, "duration": 149, "velocity": 101}, {"time": 131781, "pitch": 66, "duration": 139, "velocity": 86}, {"time": 131920, "pitch": 57, "duration": 80, "velocity": 79}, {"time": 131920, "pitch": 62, "duration": 80, "velocity": 91}, {"time": 131920, "pitch": 66, "duration": 80, "velocity": 83}, {"time": 131930, "pitch": 50, "duration": 70, "velocity": 75}, {"time": 132000, "pitch": 50, "duration": 161, "velocity": 68}, {"time": 132000, "pitch": 57, "duration": 161, "velocity": 78}, {"time": 132010, "pitch": 62, "duration": 151, "velocity": 86}, {"time": 132020, "pitch": 66, "duration": 141, "velocity": 71}, {"time": 132161, "pitch": 57, "duration": 80, "velocity": 78}, {"time": 132161, "pitch": 62, "duration": 80, "velocity": 90}, {"time": 132161, "pitch": 66, "duration": 80, "velocity": 82}, {"time": 132171, "pitch": 50, "duration": 70, "velocity": 74}, {"time": 132241, "pitch": 50, "duration": 242, "velocity": 73}, {"time": 132241, "pitch": 57, "duration": 242, "velocity": 83}, {"time": 132251, "pitch": 62, "duration": 232, "velocity": 91}, {"time": 132261, "pitch": 66, "duration": 222, "velocity": 76}, {"time": 132483, "pitch": 50, "duration": 238, "velocity": 88}, {"time": 132483, "pitch": 57, "duration": 238, "velocity": 98}, {"time": 132493, "pitch": 62, "duration": 228, "velocity": 106}, {"time": 132502, "pitch": 66, "duration": 219, "velocity": 91}, {"time": 132721, "pitch": 50, "duration": 159, "velocity": 83}, {"time": 132721, "pitch": 57, "duration": 159, "velocity": 93}, {"time": 132731, "pitch": 62, "duration": 149, "velocity": 101}, {"time": 132741, "pitch": 66, "duration": 139, "velocity": 86}, {"time": 132880, "pitch": 57, "duration": 80, "velocity": 79}, {"time": 132880, "pitch": 62, "duration": 80, "velocity": 91}, {"time": 132880, "pitch": 66, "duration": 80, "velocity": 83}, {"time": 132890, "pitch": 50, "duration": 70, "velocity": 75}, {"time": 132960, "pitch": 52, "duration": 241, "velocity": 88}, {"time": 132960, "pitch": 55, "duration": 241, "velocity": 98}, {"time": 132970, "pitch": 59, "duration": 231, "velocity": 106}, {"time": 132980, "pitch": 64, "duration": 221, "velocity": 91}, {"time": 133201, "pitch": 55, "duration": 242, "velocity": 81}, {"time": 133201, "pitch": 59, "duration": 242, "velocity": 93}, {"time": 133201, "pitch": 64, "duration": 242, "velocity": 85}, {"time": 133211, "pitch": 52, "duration": 232, "velocity": 77}, {"time": 133443, "pitch": 52, "duration": 238, "velocity": 88}, {"time": 133443, "pitch": 55, "duration": 238, "velocity": 98}, {"time": 133453, "pitch": 59, "duration": 228, "velocity": 106}, {"time": 133463, "pitch": 64, "duration": 218, "velocity": 91}, {"time": 133681, "pitch": 52, "duration": 159, "velocity": 83}, {"time": 133681, "pitch": 55, "duration": 159, "velocity": 93}, {"time": 133691, "pitch": 59, "duration": 149, "velocity": 101}, {"time": 133701, "pitch": 64, "duration": 139, "velocity": 86}, {"time": 133840, "pitch": 55, "duration": 80, "velocity": 79}, {"time": 133840, "pitch": 59, "duration": 80, "velocity": 91}, {"time": 133840, "pitch": 64, "duration": 80, "velocity": 83}, {"time": 133850, "pitch": 52, "duration": 70, "velocity": 75}, {"time": 133920, "pitch": 52, "duration": 161, "velocity": 68}, {"time": 133920, "pitch": 55, "duration": 161, "velocity": 78}, {"time": 133930, "pitch": 59, "duration": 151, "velocity": 86}, {"time": 133940, "pitch": 64, "duration": 141, "velocity": 71}, {"time": 134081, "pitch": 55, "duration": 80, "velocity": 78}, {"time": 134081, "pitch": 59, "duration": 80, "velocity": 90}, {"time": 134081, "pitch": 64, "duration": 80, "velocity": 82}, {"time": 134091, "pitch": 52, "duration": 70, "velocity": 74}, {"time": 134161, "pitch": 52, "duration": 242, "velocity": 73}, {"time": 134161, "pitch": 55, "duration": 242, "velocity": 83}, {"time": 134171, "pitch": 59, "duration": 232, "velocity": 91}, {"time": 134181, "pitch": 64, "duration": 222, "velocity": 76}, {"time": 134403, "pitch": 52, "duration": 238, "velocity": 88}, {"time": 134403, "pitch": 55, "duration": 238, "velocity": 98}, {"time": 134413, "pitch": 59, "duration": 228, "velocity": 106}, {"time": 134423, "pitch": 64, "duration": 218, "velocity": 91}, {"time": 134641, "pitch": 52, "duration": 159, "velocity": 83}, {"time": 134641, "pitch": 55, "duration": 159, "velocity": 93}, {"time": 134651, "pitch": 59, "duration": 149, "velocity": 101}, {"time": 134661, "pitch": 64, "duration": 139, "velocity": 86}, {"time": 134800, "pitch": 55, "duration": 80, "velocity": 79}, {"time": 134800, "pitch": 59, "duration": 80, "velocity": 91}, {"time": 134800, "pitch": 64, "duration": 80, "velocity": 83}, {"time": 134810, "pitch": 52, "duration": 70, "velocity": 75}, {"time": 134880, "pitch": 48, "duration": 241, "velocity": 88}, {"time": 134880, "pitch": 55, "duration": 241, "velocity": 98}, {"time": 134890, "pitch": 60, "duration": 231, "velocity": 106}, {"time": 134900, "pitch": 64, "duration": 221, "velocity": 91}, {"time": 135121, "pitch": 55, "duration": 242, "velocity": 81}, {"time": 135121, "pitch": 60, "duration": 242, "velocity": 93}, {"time": 135121, "pitch": 64, "duration": 242, "velocity": 85}, {"time": 135131, "pitch": 48, "duration": 232, "velocity": 77}, {"time": 135363, "pitch": 48, "duration": 238, "velocity": 88}, {"time": 135363, "pitch": 55, "duration": 238, "velocity": 98}, {"time": 135373, "pitch": 60, "duration": 228, "velocity": 106}, {"time": 135383, "pitch": 64, "duration": 218, "velocity": 91}, {"time": 135601, "pitch": 48, "duration": 159, "velocity": 83}, {"time": 135601, "pitch": 55, "duration": 159, "velocity": 93}, {"time": 135611, "pitch": 60, "duration": 149, "velocity": 101}, {"time": 135621, "pitch": 64, "duration": 139, "velocity": 86}, {"time": 135760, "pitch": 55, "duration": 80, "velocity": 79}, {"time": 135760, "pitch": 60, "duration": 80, "velocity": 91}, {"time": 135760, "pitch": 64, "duration": 80, "velocity": 83}, {"time": 135770, "pitch": 48, "duration": 70, "velocity": 75}, {"time": 135840, "pitch": 53, "duration": 159, "velocity": 68}, {"time": 135840, "pitch": 56, "duration": 159, "velocity": 78}, {"time": 135850, "pitch": 60, "duration": 149, "velocity": 86}, {"time": 135860, "pitch": 65, "duration": 139, "velocity": 71}, {"time": 135999, "pitch": 56, "duration": 80, "velocity": 78}, {"time": 135999, "pitch": 60, "duration": 80, "velocity": 90}, {"time": 135999, "pitch": 65, "duration": 80, "velocity": 82}, {"time": 136009, "pitch": 53, "duration": 70, "velocity": 74}, {"time": 136079, "pitch": 53, "duration": 238, "velocity": 73}, {"time": 136079, "pitch": 56, "duration": 238, "velocity": 83}, {"time": 136089, "pitch": 60, "duration": 228, "velocity": 91}, {"time": 136099, "pitch": 65, "duration": 218, "velocity": 76}, {"time": 136317, "pitch": 50, "duration": 242, "velocity": 88}, {"time": 136317, "pitch": 57, "duration": 242, "velocity": 98}, {"time": 136327, "pitch": 62, "duration": 232, "velocity": 106}, {"time": 136337, "pitch": 66, "duration": 222, "velocity": 91}, {"time": 136559, "pitch": 50, "duration": 161, "velocity": 83}, {"time": 136559, "pitch": 57, "duration": 161, "velocity": 93}, {"time": 136569, "pitch": 62, "duration": 151, "velocity": 101}, {"time": 136579, "pitch": 66, "duration": 141, "velocity": 86}, {"time": 136720, "pitch": 57, "duration": 80, "velocity": 79}, {"time": 136720, "pitch": 62, "duration": 80, "velocity": 91}, {"time": 136720, "pitch": 66, "duration": 80, "velocity": 83}, {"time": 136730, "pitch": 50, "duration": 70, "velocity": 75}, {"time": 136800, "pitch": 55, "duration": 239, "velocity": 88}, {"time": 136800, "pitch": 59, "duration": 239, "velocity": 98}, {"time": 136810, "pitch": 62, "duration": 229, "velocity": 106}, {"time": 136820, "pitch": 67, "duration": 219, "velocity": 91}, {"time": 137039, "pitch": 59, "duration": 238, "velocity": 81}, {"time": 137039, "pitch": 62, "duration": 238, "velocity": 93}, {"time": 137039, "pitch": 67, "duration": 238, "velocity": 85}, {"time": 137049, "pitch": 55, "duration": 228, "velocity": 77}, {"time": 137277, "pitch": 55, "duration": 242, "velocity": 88}, {"time": 137277, "pitch": 59, "duration": 242, "velocity": 98}, {"time": 137287, "pitch": 62, "duration": 232, "velocity": 106}, {"time": 137297, "pitch": 67, "duration": 222, "velocity": 91}, {"time": 137519, "pitch": 55, "duration": 161, "velocity": 83}, {"time": 137519, "pitch": 59, "duration": 161, "velocity": 93}, {"time": 137529, "pitch": 62, "duration": 151, "velocity": 101}, {"time": 137539, "pitch": 67, "duration": 141, "velocity": 86}, {"time": 137680, "pitch": 59, "duration": 80, "velocity": 79}, {"time": 137680, "pitch": 62, "duration": 80, "velocity": 91}, {"time": 137680, "pitch": 67, "duration": 80, "velocity": 83}, {"time": 137690, "pitch": 55, "duration": 70, "velocity": 75}, {"time": 137760, "pitch": 55, "duration": 159, "velocity": 68}, {"time": 137760, "pitch": 59, "duration": 159, "velocity": 78}, {"time": 137770, "pitch": 62, "duration": 149, "velocity": 86}, {"time": 137780, "pitch": 67, "duration": 139, "velocity": 71}, {"time": 137919, "pitch": 59, "duration": 80, "velocity": 78}, {"time": 137919, "pitch": 62, "duration": 80, "velocity": 90}, {"time": 137919, "pitch": 67, "duration": 80, "velocity": 82}, {"time": 137929, "pitch": 55, "duration": 70, "velocity": 74}, {"time": 137999, "pitch": 55, "duration": 238, "velocity": 73}, {"time": 137999, "pitch": 59, "duration": 238, "velocity": 83}, {"time": 138009, "pitch": 62, "duration": 228, "velocity": 91}, {"time": 138019, "pitch": 67, "duration": 218, "velocity": 76}, {"time": 138237, "pitch": 55, "duration": 242, "velocity": 88}, {"time": 138237, "pitch": 59, "duration": 242, "velocity": 98}, {"time": 138247, "pitch": 62, "duration": 232, "velocity": 106}, {"time": 138257, "pitch": 67, "duration": 222, "velocity": 91}, {"time": 138479, "pitch": 55, "duration": 161, "velocity": 83}, {"time": 138479, "pitch": 59, "duration": 161, "velocity": 93}, {"time": 138489, "pitch": 62, "duration": 151, "velocity": 101}, {"time": 138499, "pitch": 67, "duration": 141, "velocity": 86}, {"time": 138640, "pitch": 59, "duration": 80, "velocity": 79}, {"time": 138640, "pitch": 62, "duration": 80, "velocity": 91}, {"time": 138640, "pitch": 67, "duration": 80, "velocity": 83}, {"time": 138650, "pitch": 55, "duration": 70, "velocity": 75}, {"time": 138720, "pitch": 50, "duration": 239, "velocity": 88}, {"time": 138720, "pitch": 57, "duration": 239, "velocity": 98}, {"time": 138730, "pitch": 62, "duration": 229, "velocity": 106}, {"time": 138740, "pitch": 66, "duration": 219, "velocity": 91}, {"time": 138959, "pitch": 57, "duration": 238, "velocity": 81}, {"time": 138959, "pitch": 62, "duration": 238, "velocity": 93}, {"time": 138959, "pitch": 66, "duration": 238, "velocity": 85}, {"time": 138969, "pitch": 50, "duration": 228, "velocity": 77}, {"time": 139197, "pitch": 50, "duration": 242, "velocity": 88}, {"time": 139197, "pitch": 57, "duration": 242, "velocity": 98}, {"time": 139207, "pitch": 62, "duration": 232, "velocity": 106}, {"time": 139218, "pitch": 66, "duration": 221, "velocity": 91}, {"time": 139439, "pitch": 50, "duration": 161, "velocity": 83}, {"time": 139439, "pitch": 57, "duration": 161, "velocity": 93}, {"time": 139449, "pitch": 62, "duration": 151, "velocity": 101}, {"time": 139459, "pitch": 66, "duration": 141, "velocity": 86}, {"time": 139600, "pitch": 57, "duration": 80, "velocity": 79}, {"time": 139600, "pitch": 62, "duration": 80, "velocity": 91}, {"time": 139600, "pitch": 66, "duration": 80, "velocity": 83}, {"time": 139610, "pitch": 50, "duration": 70, "velocity": 75}, {"time": 139680, "pitch": 50, "duration": 159, "velocity": 68}, {"time": 139680, "pitch": 57, "duration": 159, "velocity": 78}, {"time": 139690, "pitch": 62, "duration": 149, "velocity": 86}, {"time": 139700, "pitch": 66, "duration": 139, "velocity": 71}, {"time": 139839, "pitch": 57, "duration": 80, "velocity": 78}, {"time": 139839, "pitch": 62, "duration": 80, "velocity": 90}, {"time": 139839, "pitch": 66, "duration": 80, "velocity": 82}, {"time": 139849, "pitch": 50, "duration": 70, "velocity": 74}, {"time": 139919, "pitch": 50, "duration": 239, "velocity": 73}, {"time": 139919, "pitch": 57, "duration": 239, "velocity": 83}, {"time": 139929, "pitch": 62, "duration": 229, "velocity": 91}, {"time": 139939, "pitch": 66, "duration": 219, "velocity": 76}, {"time": 140158, "pitch": 50, "duration": 241, "velocity": 88}, {"time": 140158, "pitch": 57, "duration": 241, "velocity": 98}, {"time": 140168, "pitch": 62, "duration": 231, "velocity": 106}, {"time": 140178, "pitch": 66, "duration": 221, "velocity": 91}, {"time": 140399, "pitch": 50, "duration": 161, "velocity": 83}, {"time": 140399, "pitch": 57, "duration": 161, "velocity": 93}, {"time": 140409, "pitch": 62, "duration": 151, "velocity": 101}, {"time": 140419, "pitch": 66, "duration": 141, "velocity": 86}, {"time": 140560, "pitch": 57, "duration": 80, "velocity": 79}, {"time": 140560, "pitch": 62, "duration": 80, "velocity": 91}, {"time": 140560, "pitch": 66, "duration": 80, "velocity": 83}, {"time": 140570, "pitch": 50, "duration": 70, "velocity": 75}, {"time": 140640, "pitch": 52, "duration": 239, "velocity": 88}, {"time": 140640, "pitch": 55, "duration": 239, "velocity": 98}, {"time": 140650, "pitch": 59, "duration": 229, "velocity": 106}, {"time": 140660, "pitch": 64, "duration": 219, "velocity": 91}, {"time": 140879, "pitch": 55, "duration": 239, "velocity": 81}, {"time": 140879, "pitch": 59, "duration": 239, "velocity": 93}, {"time": 140879, "pitch": 64, "duration": 239, "velocity": 85}, {"time": 140889, "pitch": 52, "duration": 229, "velocity": 77}, {"time": 141118, "pitch": 52, "duration": 241, "velocity": 88}, {"time": 141118, "pitch": 55, "duration": 241, "velocity": 98}, {"time": 141128, "pitch": 59, "duration": 231, "velocity": 106}, {"time": 141138, "pitch": 64, "duration": 221, "velocity": 91}, {"time": 141359, "pitch": 52, "duration": 161, "velocity": 83}, {"time": 141359, "pitch": 55, "duration": 161, "velocity": 93}, {"time": 141369, "pitch": 59, "duration": 151, "velocity": 101}, {"time": 141379, "pitch": 64, "duration": 141, "velocity": 86}, {"time": 141520, "pitch": 55, "duration": 80, "velocity": 79}, {"time": 141520, "pitch": 59, "duration": 80, "velocity": 91}, {"time": 141520, "pitch": 64, "duration": 80, "velocity": 83}, {"time": 141530, "pitch": 52, "duration": 70, "velocity": 75}, {"time": 141600, "pitch": 52, "duration": 160, "velocity": 68}, {"time": 141600, "pitch": 55, "duration": 160, "velocity": 78}, {"time": 141610, "pitch": 59, "duration": 150, "velocity": 86}, {"time": 141620, "pitch": 64, "duration": 140, "velocity": 71}, {"time": 141760, "pitch": 55, "duration": 79, "velocity": 78}, {"time": 141760, "pitch": 59, "duration": 79, "velocity": 90}, {"time": 141760, "pitch": 64, "duration": 79, "velocity": 82}, {"time": 141769, "pitch": 52, "duration": 70, "velocity": 74}, {"time": 141839, "pitch": 52, "duration": 239, "velocity": 73}, {"time": 141839, "pitch": 55, "duration": 239, "velocity": 83}, {"time": 141849, "pitch": 59, "duration": 229, "velocity": 91}, {"time": 141859, "pitch": 64, "duration": 219, "velocity": 76}, {"time": 142078, "pitch": 52, "duration": 241, "velocity": 88}, {"time": 142078, "pitch": 55, "duration": 241, "velocity": 98}, {"time": 142088, "pitch": 59, "duration": 231, "velocity": 106}, {"time": 142098, "pitch": 64, "duration": 221, "velocity": 91}, {"time": 142319, "pitch": 52, "duration": 161, "velocity": 83}, {"time": 142319, "pitch": 55, "duration": 161, "velocity": 93}, {"time": 142329, "pitch": 59, "duration": 151, "velocity": 101}, {"time": 142339, "pitch": 64, "duration": 141, "velocity": 86}, {"time": 142480, "pitch": 55, "duration": 81, "velocity": 79}, {"time": 142480, "pitch": 59, "duration": 81, "velocity": 91}, {"time": 142480, "pitch": 64, "duration": 81, "velocity": 83}, {"time": 142490, "pitch": 52, "duration": 71, "velocity": 75}, {"time": 142561, "pitch": 48, "duration": 238, "velocity": 88}, {"time": 142561, "pitch": 55, "duration": 238, "velocity": 98}, {"time": 142571, "pitch": 60, "duration": 228, "velocity": 106}, {"time": 142580, "pitch": 64, "duration": 219, "velocity": 91}, {"time": 142799, "pitch": 55, "duration": 239, "velocity": 81}, {"time": 142799, "pitch": 60, "duration": 239, "velocity": 93}, {"time": 142799, "pitch": 64, "duration": 239, "velocity": 85}, {"time": 142809, "pitch": 48, "duration": 229, "velocity": 77}, {"time": 143038, "pitch": 48, "duration": 241, "velocity": 88}, {"time": 143038, "pitch": 55, "duration": 241, "velocity": 98}, {"time": 143048, "pitch": 60, "duration": 231, "velocity": 106}, {"time": 143058, "pitch": 64, "duration": 221, "velocity": 91}, {"time": 143279, "pitch": 48, "duration": 161, "velocity": 83}, {"time": 143279, "pitch": 55, "duration": 161, "velocity": 93}, {"time": 143289, "pitch": 60, "duration": 151, "velocity": 101}, {"time": 143299, "pitch": 64, "duration": 141, "velocity": 86}, {"time": 143440, "pitch": 55, "duration": 81, "velocity": 79}, {"time": 143440, "pitch": 60, "duration": 81, "velocity": 91}, {"time": 143440, "pitch": 64, "duration": 81, "velocity": 83}, {"time": 143450, "pitch": 48, "duration": 71, "velocity": 75}, {"time": 143521, "pitch": 50, "duration": 159, "velocity": 68}, {"time": 143521, "pitch": 57, "duration": 159, "velocity": 78}, {"time": 143531, "pitch": 62, "duration": 149, "velocity": 86}, {"time": 143541, "pitch": 66, "duration": 139, "velocity": 71}, {"time": 143680, "pitch": 57, "duration": 79, "velocity": 78}, {"time": 143680, "pitch": 62, "duration": 79, "velocity": 90}, {"time": 143680, "pitch": 66, "duration": 79, "velocity": 82}, {"time": 143690, "pitch": 50, "duration": 69, "velocity": 74}, {"time": 143759, "pitch": 50, "duration": 239, "velocity": 73}, {"time": 143759, "pitch": 57, "duration": 239, "velocity": 83}, {"time": 143769, "pitch": 62, "duration": 229, "velocity": 91}, {"time": 143779, "pitch": 66, "duration": 219, "velocity": 76}, {"time": 143998, "pitch": 51, "duration": 241, "velocity": 88}, {"time": 143998, "pitch": 57, "duration": 241, "velocity": 98}, {"time": 144008, "pitch": 63, "duration": 231, "velocity": 106}, {"time": 144018, "pitch": 66, "duration": 221, "velocity": 91}, {"time": 144239, "pitch": 51, "duration": 161, "velocity": 83}, {"time": 144239, "pitch": 57, "duration": 161, "velocity": 93}, {"time": 144249, "pitch": 63, "duration": 151, "velocity": 101}, {"time": 144259, "pitch": 66, "duration": 141, "velocity": 86}, {"time": 144400, "pitch": 57, "duration": 81, "velocity": 79}, {"time": 144400, "pitch": 63, "duration": 81, "velocity": 91}, {"time": 144400, "pitch": 66, "duration": 81, "velocity": 83}, {"time": 144410, "pitch": 51, "duration": 71, "velocity": 75}, {"time": 144481, "pitch": 40, "duration": 980, "velocity": 117}, {"time": 144958, "pitch": 52, "duration": 483, "velocity": 98}, {"time": 144968, "pitch": 55, "duration": 483, "velocity": 104}, {"time": 144978, "pitch": 59, "duration": 463, "velocity": 109}, {"time": 144988, "pitch": 64, "duration": 483, "velocity": 113}, {"time": 145441, "pitch": 50, "duration": 238, "velocity": 120}, {"time": 145679, "pitch": 45, "duration": 239, "velocity": 113}, {"time": 145918, "pitch": 43, "duration": 161, "velocity": 119}, {"time": 146079, "pitch": 42, "duration": 322, "velocity": 115}, {"time": 146401, "pitch": 40, "duration": 980, "velocity": 117}, {"time": 146639, "pitch": 47, "duration": 722, "velocity": 97}, {"time": 146878, "pitch": 52, "duration": 483, "velocity": 98}, {"time": 146888, "pitch": 55, "duration": 483, "velocity": 104}, {"time": 146898, "pitch": 59, "duration": 463, "velocity": 109}, {"time": 146908, "pitch": 64, "duration": 483, "velocity": 113}, {"time": 147361, "pitch": 50, "duration": 239, "velocity": 120}, {"time": 147600, "pitch": 45, "duration": 238, "velocity": 113}, {"time": 147838, "pitch": 43, "duration": 161, "velocity": 119}, {"time": 147999, "pitch": 42, "duration": 322, "velocity": 115}, {"time": 148321, "pitch": 40, "duration": 980, "velocity": 117}, {"time": 148798, "pitch": 52, "duration": 483, "velocity": 98}, {"time": 148808, "pitch": 55, "duration": 483, "velocity": 104}, {"time": 148818, "pitch": 59, "duration": 463, "velocity": 109}, {"time": 148828, "pitch": 64, "duration": 483, "velocity": 113}, {"time": 149281, "pitch": 50, "duration": 239, "velocity": 120}, {"time": 149520, "pitch": 45, "duration": 238, "velocity": 113}, {"time": 149758, "pitch": 43, "duration": 161, "velocity": 119}, {"time": 149919, "pitch": 42, "duration": 322, "velocity": 115}, {"time": 150241, "pitch": 40, "duration": 980, "velocity": 117}, {"time": 150480, "pitch": 47, "duration": 721, "velocity": 97}, {"time": 150718, "pitch": 52, "duration": 483, "velocity": 98}, {"time": 150728, "pitch": 55, "duration": 483, "velocity": 104}, {"time": 150739, "pitch": 59, "duration": 462, "velocity": 109}, {"time": 150749, "pitch": 64, "duration": 482, "velocity": 113}, {"time": 151201, "pitch": 50, "duration": 239, "velocity": 120}, {"time": 151440, "pitch": 45, "duration": 238, "velocity": 113}, {"time": 151678, "pitch": 43, "duration": 161, "velocity": 119}, {"time": 151839, "pitch": 42, "duration": 81, "velocity": 115}]}]}