{"metadata": {"schema_version": "0.1", "title": "RWC-MDB-P-2001 No. 97: Don't Lie To Me / Donna Burke", "copyright": "RWC Music Database. Copyright (C) 2001 Real World Computing Partnership (contact: Masataka GOTO <m.goto@aist.go.jp>)", "source_filename": "RM-P097.SMF_SYNC.MID", "source_format": "midi"}, "resolution": 480, "tempos": [{"time": 0, "qpm": 58.8235294117647}, {"time": 480, "qpm": 93.75}, {"time": 2880, "qpm": 95.23809523809524}, {"time": 3360, "qpm": 93.75}, {"time": 5760, "qpm": 95.23809523809524}, {"time": 6240, "qpm": 93.75}, {"time": 8160, "qpm": 95.23809523809524}, {"time": 8640, "qpm": 93.75}, {"time": 11520, "qpm": 95.23809523809524}, {"time": 12000, "qpm": 93.75}, {"time": 13920, "qpm": 95.23809523809524}, {"time": 14400, "qpm": 93.75}, {"time": 16800, "qpm": 95.23809523809524}, {"time": 17280, "qpm": 93.75}, {"time": 19680, "qpm": 95.23809523809524}, {"time": 20160, "qpm": 93.75}, {"time": 22560, "qpm": 95.23809523809524}, {"time": 23040, "qpm": 93.75}, {"time": 24960, "qpm": 95.23809523809524}, {"time": 25440, "qpm": 93.75}, {"time": 27840, "qpm": 95.23809523809524}, {"time": 28320, "qpm": 93.75}, {"time": 30720, "qpm": 95.23809523809524}, {"time": 31200, "qpm": 93.75}, {"time": 33600, "qpm": 95.23809523809524}, {"time": 34080, "qpm": 93.75}, {"time": 36000, "qpm": 95.23809523809524}, {"time": 36480, "qpm": 93.75}, {"time": 39360, "qpm": 95.23809523809524}, {"time": 39840, "qpm": 93.75}, {"time": 41760, "qpm": 95.23809523809524}, {"time": 42240, "qpm": 93.75}, {"time": 45120, "qpm": 95.23809523809524}, {"time": 45600, "qpm": 93.75}, {"time": 47520, "qpm": 95.23809523809524}, {"time": 48000, "qpm": 93.75}, {"time": 49920, "qpm": 95.23809523809524}, {"time": 50400, "qpm": 93.75}, {"time": 53280, "qpm": 95.23809523809524}, {"time": 53760, "qpm": 93.75}, {"time": 56160, "qpm": 95.23809523809524}, {"time": 56640, "qpm": 93.75}, {"time": 59040, "qpm": 95.23809523809524}, {"time": 59520, "qpm": 93.75}, {"time": 61440, "qpm": 95.23809523809524}, {"time": 61920, "qpm": 93.75}, {"time": 64320, "qpm": 95.23809523809524}, {"time": 64800, "qpm": 93.75}, {"time": 66720, "qpm": 95.23809523809524}, {"time": 67200, "qpm": 93.75}, {"time": 69600, "qpm": 95.23809523809524}, {"time": 70080, "qpm": 93.75}, {"time": 72480, "qpm": 95.23809523809524}, {"time": 72960, "qpm": 93.75}, {"time": 75360, "qpm": 95.23809523809524}, {"time": 75840, "qpm": 93.75}, {"time": 77760, "qpm": 95.23809523809524}, {"time": 78240, "qpm": 93.75}, {"time": 81120, "qpm": 95.23809523809524}, {"time": 81600, "qpm": 93.75}, {"time": 83520, "qpm": 95.23809523809524}, {"time": 84000, "qpm": 93.75}, {"time": 86400, "qpm": 95.23809523809524}, {"time": 86880, "qpm": 93.75}, {"time": 89280, "qpm": 95.23809523809524}, {"time": 89760, "qpm": 93.75}, {"time": 91680, "qpm": 95.23809523809524}, {"time": 92160, "qpm": 93.75}, {"time": 94560, "qpm": 95.23809523809524}, {"time": 95040, "qpm": 93.75}, {"time": 97440, "qpm": 95.23809523809524}, {"time": 97920, "qpm": 93.75}, {"time": 100800, "qpm": 95.23809523809524}, {"time": 101280, "qpm": 93.75}, {"time": 103200, "qpm": 95.23809523809524}, {"time": 103680, "qpm": 93.75}, {"time": 106080, "qpm": 95.23809523809524}, {"time": 106560, "qpm": 93.75}, {"time": 108960, "qpm": 95.23809523809524}, {"time": 109440, "qpm": 93.75}, {"time": 111840, "qpm": 95.23809523809524}, {"time": 112320, "qpm": 93.75}, {"time": 114720, "qpm": 95.23809523809524}, {"time": 115200, "qpm": 93.75}, {"time": 117600, "qpm": 95.23809523809524}, {"time": 118080, "qpm": 93.75}, {"time": 119520, "qpm": 95.23809523809524}, {"time": 120000, "qpm": 93.75}, {"time": 122400, "qpm": 95.23809523809524}, {"time": 122880, "qpm": 93.75}, {"time": 125280, "qpm": 95.23809523809524}, {"time": 125760, "qpm": 93.75}, {"time": 128160, "qpm": 95.23809523809524}, {"time": 128640, "qpm": 93.75}, {"time": 131040, "qpm": 95.23809523809524}, {"time": 131520, "qpm": 93.75}, {"time": 133440, "qpm": 95.23809523809524}, {"time": 133920, "qpm": 93.75}, {"time": 136800, "qpm": 95.23809523809524}, {"time": 137280, "qpm": 93.75}, {"time": 139680, "qpm": 95.23809523809524}, {"time": 140160, "qpm": 93.75}, {"time": 142560, "qpm": 95.23809523809524}, {"time": 143040, "qpm": 93.75}, {"time": 145440, "qpm": 95.23809523809524}, {"time": 145920, "qpm": 93.75}, {"time": 147840, "qpm": 95.23809523809524}, {"time": 148320, "qpm": 93.75}, {"time": 151200, "qpm": 95.23809523809524}, {"time": 151680, "qpm": 93.75}, {"time": 153600, "qpm": 95.23809523809524}, {"time": 154080, "qpm": 93.75}, {"time": 156000, "qpm": 95.23809523809524}, {"time": 156480, "qpm": 93.75}, {"time": 158880, "qpm": 95.23809523809524}, {"time": 159360, "qpm": 93.75}, {"time": 161760, "qpm": 95.23809523809524}, {"time": 162240, "qpm": 93.75}, {"time": 164640, "qpm": 95.23809523809524}, {"time": 165120, "qpm": 93.75}, {"time": 167520, "qpm": 95.23809523809524}, {"time": 168000, "qpm": 93.75}, {"time": 169920, "qpm": 95.23809523809524}, {"time": 170400, "qpm": 93.75}, {"time": 173280, "qpm": 95.23809523809524}, {"time": 173760, "qpm": 93.75}, {"time": 175680, "qpm": 95.23809523809524}, {"time": 176160, "qpm": 93.75}], "key_signatures": [{"time": 0, "root": 0, "mode": "major"}], "time_signatures": [{"time": 0, "numerator": 1, "denominator": 4}, {"time": 480, "numerator": 4, "denominator": 4}], "tracks": [{"program": 0, "is_drum": false, "name": "Piano", "notes": [{"time": 482, "pitch": 69, "duration": 140, "velocity": 106}, {"time": 722, "pitch": 64, "duration": 109, "velocity": 97}, {"time": 961, "pitch": 67, "duration": 169, "velocity": 83}, {"time": 1200, "pitch": 62, "duration": 140, "velocity": 83}, {"time": 1440, "pitch": 64, "duration": 179, "velocity": 83}, {"time": 1679, "pitch": 67, "duration": 169, "velocity": 77}, {"time": 2397, "pitch": 69, "duration": 132, "velocity": 106}, {"time": 2640, "pitch": 64, "duration": 132, "velocity": 97}, {"time": 2883, "pitch": 67, "duration": 170, "velocity": 81}, {"time": 3122, "pitch": 62, "duration": 140, "velocity": 83}, {"time": 3362, "pitch": 64, "duration": 149, "velocity": 95}, {"time": 3601, "pitch": 60, "duration": 170, "velocity": 83}, {"time": 4319, "pitch": 69, "duration": 140, "velocity": 106}, {"time": 4558, "pitch": 64, "duration": 110, "velocity": 97}, {"time": 4798, "pitch": 67, "duration": 169, "velocity": 83}, {"time": 5037, "pitch": 62, "duration": 140, "velocity": 83}, {"time": 5276, "pitch": 64, "duration": 183, "velocity": 83}, {"time": 5520, "pitch": 67, "duration": 172, "velocity": 77}, {"time": 6241, "pitch": 69, "duration": 130, "velocity": 106}, {"time": 6481, "pitch": 64, "duration": 129, "velocity": 97}, {"time": 6720, "pitch": 67, "duration": 170, "velocity": 81}, {"time": 6959, "pitch": 62, "duration": 140, "velocity": 83}, {"time": 7199, "pitch": 64, "duration": 149, "velocity": 95}, {"time": 7438, "pitch": 60, "duration": 170, "velocity": 83}, {"time": 23519, "pitch": 64, "duration": 99, "velocity": 97}, {"time": 23758, "pitch": 67, "duration": 100, "velocity": 83}, {"time": 23997, "pitch": 69, "duration": 112, "velocity": 97}, {"time": 24241, "pitch": 62, "duration": 101, "velocity": 97}, {"time": 24484, "pitch": 64, "duration": 139, "velocity": 89}, {"time": 24723, "pitch": 67, "duration": 110, "velocity": 71}, {"time": 24962, "pitch": 69, "duration": 120, "velocity": 106}, {"time": 25202, "pitch": 62, "duration": 89, "velocity": 83}, {"time": 25441, "pitch": 64, "duration": 130, "velocity": 97}, {"time": 25680, "pitch": 67, "duration": 130, "velocity": 83}, {"time": 25920, "pitch": 69, "duration": 119, "velocity": 103}, {"time": 26159, "pitch": 62, "duration": 130, "velocity": 83}, {"time": 26398, "pitch": 64, "duration": 140, "velocity": 106}, {"time": 26638, "pitch": 67, "duration": 129, "velocity": 71}, {"time": 26877, "pitch": 69, "duration": 142, "velocity": 114}, {"time": 27120, "pitch": 62, "duration": 132, "velocity": 83}, {"time": 27363, "pitch": 64, "duration": 140, "velocity": 97}, {"time": 27603, "pitch": 67, "duration": 129, "velocity": 83}, {"time": 27842, "pitch": 69, "duration": 129, "velocity": 106}, {"time": 28081, "pitch": 62, "duration": 140, "velocity": 89}, {"time": 28321, "pitch": 64, "duration": 169, "velocity": 97}, {"time": 28560, "pitch": 67, "duration": 139, "velocity": 83}, {"time": 28799, "pitch": 69, "duration": 130, "velocity": 106}, {"time": 29039, "pitch": 62, "duration": 119, "velocity": 89}, {"time": 29278, "pitch": 64, "duration": 159, "velocity": 95}, {"time": 29517, "pitch": 67, "duration": 140, "velocity": 75}, {"time": 29757, "pitch": 69, "duration": 141, "velocity": 103}, {"time": 30000, "pitch": 62, "duration": 121, "velocity": 77}, {"time": 30243, "pitch": 64, "duration": 139, "velocity": 89}, {"time": 30482, "pitch": 67, "duration": 120, "velocity": 71}, {"time": 30721, "pitch": 69, "duration": 140, "velocity": 97}, {"time": 30961, "pitch": 62, "duration": 99, "velocity": 77}, {"time": 31200, "pitch": 64, "duration": 150, "velocity": 97}, {"time": 31439, "pitch": 67, "duration": 130, "velocity": 77}, {"time": 31679, "pitch": 69, "duration": 119, "velocity": 106}, {"time": 31918, "pitch": 62, "duration": 130, "velocity": 83}, {"time": 32157, "pitch": 64, "duration": 142, "velocity": 89}, {"time": 32401, "pitch": 67, "duration": 162, "velocity": 77}, {"time": 32644, "pitch": 69, "duration": 129, "velocity": 106}, {"time": 32883, "pitch": 62, "duration": 120, "velocity": 89}, {"time": 33122, "pitch": 64, "duration": 150, "velocity": 97}, {"time": 33362, "pitch": 67, "duration": 139, "velocity": 83}, {"time": 33601, "pitch": 69, "duration": 120, "velocity": 95}, {"time": 33840, "pitch": 62, "duration": 150, "velocity": 89}, {"time": 34080, "pitch": 64, "duration": 129, "velocity": 97}, {"time": 34319, "pitch": 67, "duration": 130, "velocity": 83}, {"time": 34558, "pitch": 69, "duration": 130, "velocity": 97}, {"time": 34798, "pitch": 62, "duration": 139, "velocity": 89}, {"time": 38881, "pitch": 57, "duration": 110, "velocity": 100}, {"time": 39121, "pitch": 64, "duration": 139, "velocity": 100}, {"time": 39360, "pitch": 62, "duration": 110, "velocity": 100}, {"time": 39599, "pitch": 67, "duration": 120, "velocity": 100}, {"time": 39839, "pitch": 69, "duration": 149, "velocity": 100}, {"time": 40078, "pitch": 57, "duration": 130, "velocity": 100}, {"time": 42718, "pitch": 55, "duration": 120, "velocity": 100}, {"time": 42958, "pitch": 64, "duration": 159, "velocity": 100}, {"time": 43197, "pitch": 62, "duration": 122, "velocity": 100}, {"time": 43440, "pitch": 67, "duration": 132, "velocity": 100}, {"time": 43683, "pitch": 69, "duration": 130, "velocity": 100}, {"time": 43923, "pitch": 62, "duration": 129, "velocity": 100}, {"time": 44401, "pitch": 64, "duration": 130, "velocity": 100}, {"time": 46563, "pitch": 57, "duration": 139, "velocity": 100}, {"time": 46802, "pitch": 64, "duration": 150, "velocity": 100}, {"time": 47041, "pitch": 62, "duration": 70, "velocity": 100}, {"time": 47041, "pitch": 64, "duration": 10, "velocity": 100}, {"time": 47281, "pitch": 67, "duration": 100, "velocity": 100}, {"time": 47520, "pitch": 69, "duration": 130, "velocity": 100}, {"time": 47759, "pitch": 64, "duration": 130, "velocity": 100}, {"time": 50400, "pitch": 55, "duration": 129, "velocity": 100}, {"time": 50639, "pitch": 62, "duration": 140, "velocity": 100}, {"time": 50878, "pitch": 59, "duration": 140, "velocity": 100}, {"time": 51118, "pitch": 67, "duration": 129, "velocity": 100}, {"time": 51357, "pitch": 69, "duration": 132, "velocity": 100}, {"time": 51600, "pitch": 62, "duration": 122, "velocity": 100}, {"time": 52083, "pitch": 64, "duration": 109, "velocity": 100}, {"time": 54723, "pitch": 69, "duration": 119, "velocity": 100}, {"time": 54962, "pitch": 64, "duration": 110, "velocity": 100}, {"time": 55201, "pitch": 62, "duration": 120, "velocity": 100}, {"time": 55441, "pitch": 64, "duration": 110, "velocity": 100}, {"time": 55680, "pitch": 57, "duration": 100, "velocity": 100}, {"time": 56638, "pitch": 67, "duration": 111, "velocity": 100}, {"time": 56881, "pitch": 62, "duration": 121, "velocity": 100}, {"time": 57124, "pitch": 59, "duration": 109, "velocity": 100}, {"time": 57363, "pitch": 62, "duration": 130, "velocity": 100}, {"time": 57602, "pitch": 55, "duration": 120, "velocity": 100}, {"time": 60003, "pitch": 69, "duration": 140, "velocity": 106}, {"time": 60243, "pitch": 64, "duration": 109, "velocity": 97}, {"time": 60482, "pitch": 67, "duration": 169, "velocity": 83}, {"time": 60721, "pitch": 62, "duration": 140, "velocity": 83}, {"time": 60961, "pitch": 64, "duration": 179, "velocity": 83}, {"time": 61200, "pitch": 67, "duration": 169, "velocity": 77}, {"time": 61918, "pitch": 69, "duration": 130, "velocity": 106}, {"time": 62157, "pitch": 64, "duration": 130, "velocity": 97}, {"time": 62397, "pitch": 67, "duration": 172, "velocity": 81}, {"time": 62640, "pitch": 62, "duration": 142, "velocity": 83}, {"time": 62883, "pitch": 64, "duration": 149, "velocity": 95}, {"time": 63122, "pitch": 60, "duration": 170, "velocity": 83}, {"time": 63840, "pitch": 69, "duration": 140, "velocity": 106}, {"time": 64080, "pitch": 64, "duration": 109, "velocity": 97}, {"time": 64319, "pitch": 67, "duration": 169, "velocity": 83}, {"time": 64558, "pitch": 62, "duration": 140, "velocity": 83}, {"time": 64798, "pitch": 64, "duration": 182, "velocity": 83}, {"time": 65041, "pitch": 67, "duration": 172, "velocity": 77}, {"time": 65762, "pitch": 69, "duration": 130, "velocity": 106}, {"time": 66002, "pitch": 64, "duration": 129, "velocity": 97}, {"time": 66241, "pitch": 67, "duration": 170, "velocity": 81}, {"time": 66480, "pitch": 62, "duration": 140, "velocity": 83}, {"time": 66720, "pitch": 64, "duration": 149, "velocity": 95}, {"time": 66959, "pitch": 60, "duration": 170, "velocity": 83}, {"time": 83040, "pitch": 64, "duration": 100, "velocity": 97}, {"time": 83279, "pitch": 67, "duration": 100, "velocity": 83}, {"time": 83518, "pitch": 69, "duration": 110, "velocity": 97}, {"time": 83758, "pitch": 62, "duration": 100, "velocity": 97}, {"time": 83997, "pitch": 64, "duration": 142, "velocity": 89}, {"time": 84240, "pitch": 67, "duration": 112, "velocity": 71}, {"time": 84483, "pitch": 69, "duration": 120, "velocity": 106}, {"time": 84723, "pitch": 62, "duration": 89, "velocity": 83}, {"time": 84962, "pitch": 64, "duration": 130, "velocity": 97}, {"time": 85201, "pitch": 67, "duration": 130, "velocity": 83}, {"time": 85441, "pitch": 69, "duration": 119, "velocity": 103}, {"time": 85680, "pitch": 62, "duration": 130, "velocity": 83}, {"time": 85919, "pitch": 64, "duration": 140, "velocity": 106}, {"time": 86159, "pitch": 67, "duration": 129, "velocity": 71}, {"time": 86398, "pitch": 69, "duration": 140, "velocity": 114}, {"time": 86637, "pitch": 62, "duration": 130, "velocity": 83}, {"time": 86877, "pitch": 64, "duration": 141, "velocity": 97}, {"time": 87120, "pitch": 67, "duration": 131, "velocity": 83}, {"time": 87363, "pitch": 69, "duration": 130, "velocity": 106}, {"time": 87602, "pitch": 62, "duration": 140, "velocity": 89}, {"time": 87842, "pitch": 64, "duration": 169, "velocity": 97}, {"time": 88081, "pitch": 67, "duration": 140, "velocity": 83}, {"time": 88320, "pitch": 69, "duration": 130, "velocity": 106}, {"time": 88560, "pitch": 62, "duration": 119, "velocity": 89}, {"time": 88799, "pitch": 64, "duration": 159, "velocity": 95}, {"time": 89038, "pitch": 67, "duration": 140, "velocity": 75}, {"time": 89278, "pitch": 69, "duration": 139, "velocity": 103}, {"time": 89517, "pitch": 62, "duration": 120, "velocity": 77}, {"time": 89756, "pitch": 64, "duration": 142, "velocity": 89}, {"time": 89999, "pitch": 67, "duration": 122, "velocity": 71}, {"time": 90242, "pitch": 69, "duration": 140, "velocity": 97}, {"time": 90482, "pitch": 62, "duration": 100, "velocity": 77}, {"time": 90721, "pitch": 64, "duration": 150, "velocity": 97}, {"time": 90960, "pitch": 67, "duration": 130, "velocity": 77}, {"time": 91200, "pitch": 69, "duration": 119, "velocity": 106}, {"time": 91439, "pitch": 62, "duration": 130, "velocity": 83}, {"time": 91678, "pitch": 64, "duration": 140, "velocity": 89}, {"time": 91918, "pitch": 67, "duration": 159, "velocity": 77}, {"time": 92157, "pitch": 69, "duration": 132, "velocity": 106}, {"time": 92400, "pitch": 62, "duration": 122, "velocity": 89}, {"time": 92643, "pitch": 64, "duration": 150, "velocity": 97}, {"time": 92883, "pitch": 67, "duration": 139, "velocity": 83}, {"time": 93122, "pitch": 69, "duration": 120, "velocity": 95}, {"time": 93361, "pitch": 62, "duration": 150, "velocity": 89}, {"time": 93601, "pitch": 64, "duration": 129, "velocity": 97}, {"time": 93840, "pitch": 67, "duration": 130, "velocity": 83}, {"time": 94079, "pitch": 69, "duration": 130, "velocity": 97}, {"time": 94319, "pitch": 62, "duration": 139, "velocity": 89}, {"time": 98402, "pitch": 57, "duration": 110, "velocity": 100}, {"time": 98642, "pitch": 64, "duration": 139, "velocity": 100}, {"time": 98881, "pitch": 62, "duration": 110, "velocity": 100}, {"time": 99120, "pitch": 67, "duration": 120, "velocity": 100}, {"time": 99360, "pitch": 69, "duration": 149, "velocity": 100}, {"time": 99599, "pitch": 57, "duration": 130, "velocity": 100}, {"time": 102239, "pitch": 55, "duration": 120, "velocity": 100}, {"time": 102479, "pitch": 64, "duration": 159, "velocity": 100}, {"time": 102718, "pitch": 62, "duration": 120, "velocity": 100}, {"time": 102957, "pitch": 67, "duration": 130, "velocity": 100}, {"time": 103197, "pitch": 69, "duration": 131, "velocity": 100}, {"time": 103440, "pitch": 62, "duration": 132, "velocity": 100}, {"time": 103922, "pitch": 64, "duration": 130, "velocity": 100}, {"time": 106076, "pitch": 57, "duration": 142, "velocity": 100}, {"time": 106319, "pitch": 64, "duration": 152, "velocity": 100}, {"time": 106562, "pitch": 62, "duration": 70, "velocity": 100}, {"time": 106562, "pitch": 64, "duration": 10, "velocity": 100}, {"time": 106802, "pitch": 67, "duration": 100, "velocity": 100}, {"time": 107041, "pitch": 69, "duration": 130, "velocity": 100}, {"time": 107281, "pitch": 64, "duration": 129, "velocity": 100}, {"time": 109921, "pitch": 55, "duration": 129, "velocity": 100}, {"time": 110160, "pitch": 62, "duration": 140, "velocity": 100}, {"time": 110399, "pitch": 59, "duration": 140, "velocity": 100}, {"time": 110639, "pitch": 67, "duration": 129, "velocity": 100}, {"time": 110878, "pitch": 69, "duration": 130, "velocity": 100}, {"time": 111117, "pitch": 62, "duration": 120, "velocity": 100}, {"time": 111600, "pitch": 64, "duration": 111, "velocity": 100}, {"time": 114236, "pitch": 69, "duration": 122, "velocity": 100}, {"time": 114479, "pitch": 64, "duration": 112, "velocity": 100}, {"time": 114723, "pitch": 62, "duration": 119, "velocity": 100}, {"time": 114962, "pitch": 64, "duration": 110, "velocity": 100}, {"time": 115201, "pitch": 57, "duration": 100, "velocity": 100}, {"time": 116159, "pitch": 67, "duration": 109, "velocity": 100}, {"time": 116398, "pitch": 62, "duration": 120, "velocity": 100}, {"time": 116637, "pitch": 59, "duration": 112, "velocity": 100}, {"time": 116880, "pitch": 62, "duration": 132, "velocity": 100}, {"time": 117123, "pitch": 55, "duration": 120, "velocity": 100}, {"time": 136802, "pitch": 57, "duration": 109, "velocity": 100}, {"time": 137041, "pitch": 64, "duration": 140, "velocity": 100}, {"time": 137280, "pitch": 62, "duration": 110, "velocity": 100}, {"time": 137520, "pitch": 67, "duration": 119, "velocity": 100}, {"time": 137759, "pitch": 69, "duration": 150, "velocity": 100}, {"time": 137998, "pitch": 57, "duration": 130, "velocity": 100}, {"time": 140639, "pitch": 55, "duration": 119, "velocity": 100}, {"time": 140878, "pitch": 64, "duration": 160, "velocity": 100}, {"time": 141117, "pitch": 62, "duration": 122, "velocity": 100}, {"time": 141360, "pitch": 67, "duration": 132, "velocity": 100}, {"time": 141603, "pitch": 69, "duration": 130, "velocity": 100}, {"time": 141843, "pitch": 62, "duration": 129, "velocity": 100}, {"time": 142321, "pitch": 64, "duration": 130, "velocity": 100}, {"time": 144483, "pitch": 57, "duration": 140, "velocity": 100}, {"time": 144722, "pitch": 64, "duration": 150, "velocity": 100}, {"time": 144962, "pitch": 62, "duration": 70, "velocity": 100}, {"time": 144962, "pitch": 64, "duration": 10, "velocity": 100}, {"time": 145201, "pitch": 67, "duration": 100, "velocity": 100}, {"time": 145440, "pitch": 69, "duration": 130, "velocity": 100}, {"time": 145680, "pitch": 64, "duration": 129, "velocity": 100}, {"time": 148320, "pitch": 55, "duration": 130, "velocity": 100}, {"time": 148559, "pitch": 62, "duration": 140, "velocity": 100}, {"time": 148799, "pitch": 59, "duration": 139, "velocity": 100}, {"time": 149038, "pitch": 67, "duration": 130, "velocity": 100}, {"time": 149277, "pitch": 69, "duration": 132, "velocity": 100}, {"time": 149520, "pitch": 62, "duration": 122, "velocity": 100}, {"time": 150003, "pitch": 64, "duration": 110, "velocity": 100}, {"time": 152643, "pitch": 69, "duration": 120, "velocity": 100}, {"time": 152882, "pitch": 64, "duration": 110, "velocity": 100}, {"time": 153122, "pitch": 62, "duration": 119, "velocity": 100}, {"time": 153361, "pitch": 64, "duration": 110, "velocity": 100}, {"time": 153600, "pitch": 57, "duration": 100, "velocity": 100}, {"time": 154558, "pitch": 67, "duration": 109, "velocity": 100}, {"time": 154797, "pitch": 62, "duration": 120, "velocity": 100}, {"time": 155036, "pitch": 59, "duration": 112, "velocity": 100}, {"time": 155280, "pitch": 62, "duration": 131, "velocity": 100}, {"time": 155523, "pitch": 55, "duration": 119, "velocity": 100}, {"time": 157924, "pitch": 69, "duration": 139, "velocity": 106}, {"time": 158163, "pitch": 64, "duration": 110, "velocity": 97}, {"time": 158402, "pitch": 67, "duration": 170, "velocity": 83}, {"time": 158642, "pitch": 62, "duration": 139, "velocity": 83}, {"time": 158881, "pitch": 64, "duration": 179, "velocity": 83}, {"time": 159120, "pitch": 67, "duration": 170, "velocity": 77}, {"time": 159838, "pitch": 69, "duration": 130, "velocity": 106}, {"time": 160078, "pitch": 64, "duration": 129, "velocity": 97}, {"time": 160317, "pitch": 67, "duration": 172, "velocity": 81}, {"time": 160560, "pitch": 62, "duration": 142, "velocity": 83}, {"time": 160803, "pitch": 64, "duration": 150, "velocity": 95}, {"time": 161042, "pitch": 60, "duration": 170, "velocity": 83}, {"time": 161760, "pitch": 69, "duration": 140, "velocity": 106}, {"time": 162000, "pitch": 64, "duration": 109, "velocity": 97}, {"time": 162239, "pitch": 67, "duration": 170, "velocity": 83}, {"time": 162478, "pitch": 62, "duration": 140, "velocity": 83}, {"time": 162718, "pitch": 64, "duration": 179, "velocity": 83}, {"time": 162957, "pitch": 67, "duration": 170, "velocity": 77}, {"time": 163683, "pitch": 69, "duration": 129, "velocity": 106}, {"time": 163922, "pitch": 64, "duration": 130, "velocity": 97}, {"time": 164161, "pitch": 67, "duration": 170, "velocity": 81}, {"time": 164401, "pitch": 62, "duration": 139, "velocity": 83}, {"time": 164640, "pitch": 64, "duration": 150, "velocity": 95}, {"time": 164879, "pitch": 60, "duration": 170, "velocity": 83}, {"time": 165597, "pitch": 69, "duration": 142, "velocity": 106}, {"time": 165840, "pitch": 64, "duration": 112, "velocity": 97}, {"time": 166084, "pitch": 67, "duration": 169, "velocity": 83}, {"time": 166323, "pitch": 62, "duration": 139, "velocity": 83}, {"time": 166562, "pitch": 64, "duration": 180, "velocity": 83}, {"time": 166802, "pitch": 67, "duration": 169, "velocity": 77}, {"time": 167520, "pitch": 69, "duration": 129, "velocity": 106}, {"time": 167759, "pitch": 64, "duration": 130, "velocity": 97}, {"time": 167998, "pitch": 67, "duration": 170, "velocity": 81}, {"time": 168238, "pitch": 62, "duration": 139, "velocity": 83}, {"time": 168477, "pitch": 64, "duration": 152, "velocity": 95}, {"time": 168720, "pitch": 60, "duration": 172, "velocity": 83}, {"time": 169442, "pitch": 69, "duration": 139, "velocity": 106}, {"time": 169681, "pitch": 64, "duration": 110, "velocity": 97}, {"time": 169920, "pitch": 67, "duration": 170, "velocity": 83}, {"time": 170160, "pitch": 62, "duration": 139, "velocity": 83}, {"time": 170399, "pitch": 64, "duration": 180, "velocity": 83}, {"time": 170638, "pitch": 67, "duration": 170, "velocity": 77}, {"time": 171356, "pitch": 69, "duration": 132, "velocity": 106}, {"time": 171600, "pitch": 64, "duration": 131, "velocity": 97}, {"time": 171843, "pitch": 67, "duration": 169, "velocity": 81}, {"time": 172082, "pitch": 62, "duration": 140, "velocity": 83}, {"time": 172321, "pitch": 64, "duration": 150, "velocity": 95}, {"time": 172561, "pitch": 60, "duration": 169, "velocity": 83}, {"time": 173279, "pitch": 69, "duration": 139, "velocity": 106}, {"time": 173518, "pitch": 64, "duration": 110, "velocity": 97}, {"time": 173757, "pitch": 67, "duration": 173, "velocity": 83}, {"time": 174000, "pitch": 62, "duration": 142, "velocity": 83}, {"time": 174244, "pitch": 64, "duration": 179, "velocity": 83}, {"time": 174483, "pitch": 67, "duration": 169, "velocity": 77}, {"time": 175201, "pitch": 69, "duration": 130, "velocity": 106}, {"time": 175440, "pitch": 64, "duration": 130, "velocity": 97}, {"time": 175680, "pitch": 67, "duration": 169, "velocity": 81}, {"time": 175919, "pitch": 62, "duration": 140, "velocity": 83}, {"time": 176158, "pitch": 64, "duration": 150, "velocity": 95}, {"time": 176398, "pitch": 60, "duration": 169, "velocity": 83}, {"time": 177123, "pitch": 69, "duration": 140, "velocity": 106}, {"time": 177362, "pitch": 64, "duration": 110, "velocity": 97}, {"time": 177602, "pitch": 67, "duration": 169, "velocity": 83}, {"time": 177841, "pitch": 62, "duration": 140, "velocity": 83}, {"time": 178080, "pitch": 64, "duration": 180, "velocity": 83}, {"time": 178320, "pitch": 67, "duration": 169, "velocity": 77}, {"time": 179038, "pitch": 69, "duration": 129, "velocity": 106}, {"time": 179277, "pitch": 64, "duration": 130, "velocity": 97}, {"time": 179517, "pitch": 67, "duration": 169, "velocity": 81}, {"time": 179756, "pitch": 62, "duration": 139, "velocity": 83}, {"time": 179995, "pitch": 64, "duration": 150, "velocity": 95}, {"time": 180235, "pitch": 60, "duration": 169, "velocity": 83}, {"time": 120960, "pitch": 57, "duration": 240, "velocity": 117}, {"time": 121200, "pitch": 60, "duration": 239, "velocity": 117}, {"time": 121439, "pitch": 62, "duration": 141, "velocity": 112}, {"time": 121580, "pitch": 62, "duration": 98, "velocity": 110}, {"time": 121678, "pitch": 64, "duration": 141, "velocity": 110}, {"time": 121819, "pitch": 57, "duration": 1064, "velocity": 112}, {"time": 122883, "pitch": 57, "duration": 239, "velocity": 117}, {"time": 123122, "pitch": 60, "duration": 239, "velocity": 117}, {"time": 123361, "pitch": 62, "duration": 141, "velocity": 112}, {"time": 123502, "pitch": 62, "duration": 99, "velocity": 110}, {"time": 123601, "pitch": 60, "duration": 140, "velocity": 112}, {"time": 123741, "pitch": 62, "duration": 240, "velocity": 110}, {"time": 123981, "pitch": 60, "duration": 98, "velocity": 110}, {"time": 124079, "pitch": 64, "duration": 718, "velocity": 118}, {"time": 124797, "pitch": 57, "duration": 243, "velocity": 121}, {"time": 125040, "pitch": 60, "duration": 243, "velocity": 110}, {"time": 125283, "pitch": 62, "duration": 141, "velocity": 110}, {"time": 125424, "pitch": 62, "duration": 99, "velocity": 110}, {"time": 125523, "pitch": 60, "duration": 140, "velocity": 110}, {"time": 125663, "pitch": 62, "duration": 240, "velocity": 121}, {"time": 125903, "pitch": 64, "duration": 98, "velocity": 112}, {"time": 126001, "pitch": 57, "duration": 958, "velocity": 110}, {"time": 126959, "pitch": 57, "duration": 239, "velocity": 110}, {"time": 127198, "pitch": 56, "duration": 380, "velocity": 112}, {"time": 127578, "pitch": 59, "duration": 342, "velocity": 110}, {"time": 127920, "pitch": 64, "duration": 243, "velocity": 112}, {"time": 128163, "pitch": 62, "duration": 239, "velocity": 110}, {"time": 128402, "pitch": 67, "duration": 479, "velocity": 127}, {"time": 128881, "pitch": 64, "duration": 239, "velocity": 112}, {"time": 129120, "pitch": 62, "duration": 141, "velocity": 110}, {"time": 129261, "pitch": 62, "duration": 99, "velocity": 110}, {"time": 129360, "pitch": 64, "duration": 140, "velocity": 110}, {"time": 129500, "pitch": 57, "duration": 1056, "velocity": 112}, {"time": 130556, "pitch": 57, "duration": 243, "velocity": 110}, {"time": 130799, "pitch": 60, "duration": 244, "velocity": 110}, {"time": 131043, "pitch": 62, "duration": 140, "velocity": 110}, {"time": 131183, "pitch": 62, "duration": 99, "velocity": 112}, {"time": 131282, "pitch": 60, "duration": 141, "velocity": 110}, {"time": 131423, "pitch": 62, "duration": 239, "velocity": 110}, {"time": 131662, "pitch": 60, "duration": 99, "velocity": 110}, {"time": 131761, "pitch": 64, "duration": 718, "velocity": 110}, {"time": 132479, "pitch": 57, "duration": 239, "velocity": 118}, {"time": 132718, "pitch": 60, "duration": 239, "velocity": 110}, {"time": 132957, "pitch": 62, "duration": 143, "velocity": 112}, {"time": 133100, "pitch": 62, "duration": 100, "velocity": 110}, {"time": 133200, "pitch": 60, "duration": 143, "velocity": 110}, {"time": 133343, "pitch": 62, "duration": 241, "velocity": 110}, {"time": 133584, "pitch": 64, "duration": 99, "velocity": 112}, {"time": 133683, "pitch": 57, "duration": 718, "velocity": 127}, {"time": 134401, "pitch": 57, "duration": 239, "velocity": 127}, {"time": 134640, "pitch": 60, "duration": 239, "velocity": 112}, {"time": 134879, "pitch": 59, "duration": 240, "velocity": 124}, {"time": 135119, "pitch": 67, "duration": 189, "velocity": 95}, {"time": 135597, "pitch": 67, "duration": 180, "velocity": 114}, {"time": 136080, "pitch": 65, "duration": 552, "velocity": 118}, {"time": 482, "pitch": 33, "duration": 210, "velocity": 97}, {"time": 722, "pitch": 33, "duration": 139, "velocity": 97}, {"time": 961, "pitch": 45, "duration": 130, "velocity": 86}, {"time": 1120, "pitch": 47, "duration": 90, "velocity": 81}, {"time": 1200, "pitch": 43, "duration": 140, "velocity": 81}, {"time": 1360, "pitch": 40, "duration": 199, "velocity": 77}, {"time": 1599, "pitch": 43, "duration": 90, "velocity": 77}, {"time": 1679, "pitch": 40, "duration": 120, "velocity": 97}, {"time": 1838, "pitch": 38, "duration": 230, "velocity": 83}, {"time": 2078, "pitch": 40, "duration": 70, "velocity": 83}, {"time": 2158, "pitch": 36, "duration": 209, "velocity": 97}, {"time": 2397, "pitch": 33, "duration": 202, "velocity": 106}, {"time": 2640, "pitch": 33, "duration": 213, "velocity": 95}, {"time": 3122, "pitch": 33, "duration": 230, "velocity": 98}, {"time": 3601, "pitch": 31, "duration": 469, "velocity": 99}, {"time": 4080, "pitch": 31, "duration": 139, "velocity": 81}, {"time": 4239, "pitch": 32, "duration": 70, "velocity": 77}, {"time": 4319, "pitch": 33, "duration": 210, "velocity": 97}, {"time": 4558, "pitch": 33, "duration": 140, "velocity": 97}, {"time": 4798, "pitch": 45, "duration": 129, "velocity": 86}, {"time": 4957, "pitch": 47, "duration": 90, "velocity": 81}, {"time": 5037, "pitch": 43, "duration": 140, "velocity": 81}, {"time": 5197, "pitch": 40, "duration": 201, "velocity": 77}, {"time": 5439, "pitch": 43, "duration": 91, "velocity": 77}, {"time": 5520, "pitch": 40, "duration": 121, "velocity": 97}, {"time": 5682, "pitch": 38, "duration": 230, "velocity": 83}, {"time": 5922, "pitch": 40, "duration": 70, "velocity": 83}, {"time": 6002, "pitch": 36, "duration": 209, "velocity": 97}, {"time": 6241, "pitch": 33, "duration": 200, "velocity": 106}, {"time": 6481, "pitch": 33, "duration": 209, "velocity": 95}, {"time": 6959, "pitch": 33, "duration": 230, "velocity": 98}, {"time": 7438, "pitch": 31, "duration": 472, "velocity": 99}, {"time": 7920, "pitch": 31, "duration": 142, "velocity": 81}, {"time": 8083, "pitch": 32, "duration": 70, "velocity": 77}, {"time": 8164, "pitch": 33, "duration": 209, "velocity": 97}, {"time": 8403, "pitch": 33, "duration": 140, "velocity": 97}, {"time": 8642, "pitch": 45, "duration": 130, "velocity": 86}, {"time": 8802, "pitch": 47, "duration": 90, "velocity": 81}, {"time": 8882, "pitch": 43, "duration": 139, "velocity": 81}, {"time": 9041, "pitch": 40, "duration": 200, "velocity": 77}, {"time": 9280, "pitch": 43, "duration": 90, "velocity": 77}, {"time": 9360, "pitch": 40, "duration": 120, "velocity": 97}, {"time": 9520, "pitch": 38, "duration": 229, "velocity": 83}, {"time": 9759, "pitch": 40, "duration": 70, "velocity": 83}, {"time": 9839, "pitch": 36, "duration": 209, "velocity": 97}, {"time": 10078, "pitch": 33, "duration": 200, "velocity": 106}, {"time": 10318, "pitch": 33, "duration": 209, "velocity": 95}, {"time": 10800, "pitch": 33, "duration": 233, "velocity": 98}, {"time": 11282, "pitch": 31, "duration": 469, "velocity": 99}, {"time": 11761, "pitch": 31, "duration": 140, "velocity": 81}, {"time": 11921, "pitch": 32, "duration": 70, "velocity": 77}, {"time": 12000, "pitch": 33, "duration": 210, "velocity": 97}, {"time": 12240, "pitch": 33, "duration": 139, "velocity": 97}, {"time": 12479, "pitch": 45, "duration": 130, "velocity": 86}, {"time": 12639, "pitch": 47, "duration": 89, "velocity": 81}, {"time": 12718, "pitch": 43, "duration": 140, "velocity": 81}, {"time": 12878, "pitch": 40, "duration": 200, "velocity": 77}, {"time": 13117, "pitch": 43, "duration": 90, "velocity": 77}, {"time": 13197, "pitch": 40, "duration": 120, "velocity": 97}, {"time": 13357, "pitch": 38, "duration": 231, "velocity": 83}, {"time": 13599, "pitch": 40, "duration": 70, "velocity": 83}, {"time": 13680, "pitch": 36, "duration": 212, "velocity": 97}, {"time": 13923, "pitch": 33, "duration": 199, "velocity": 106}, {"time": 14162, "pitch": 33, "duration": 209, "velocity": 95}, {"time": 14641, "pitch": 33, "duration": 229, "velocity": 98}, {"time": 15119, "pitch": 31, "duration": 469, "velocity": 99}, {"time": 15598, "pitch": 31, "duration": 140, "velocity": 81}, {"time": 15758, "pitch": 32, "duration": 69, "velocity": 77}, {"time": 15837, "pitch": 29, "duration": 213, "velocity": 97}, {"time": 16080, "pitch": 29, "duration": 142, "velocity": 97}, {"time": 16324, "pitch": 48, "duration": 129, "velocity": 103}, {"time": 16483, "pitch": 50, "duration": 70, "velocity": 81}, {"time": 16563, "pitch": 43, "duration": 140, "velocity": 81}, {"time": 16722, "pitch": 41, "duration": 70, "velocity": 77}, {"time": 16802, "pitch": 28, "duration": 180, "velocity": 97}, {"time": 17042, "pitch": 35, "duration": 139, "velocity": 97}, {"time": 17281, "pitch": 40, "duration": 130, "velocity": 103}, {"time": 17440, "pitch": 47, "duration": 70, "velocity": 81}, {"time": 17520, "pitch": 40, "duration": 140, "velocity": 81}, {"time": 17680, "pitch": 35, "duration": 70, "velocity": 77}, {"time": 17760, "pitch": 33, "duration": 199, "velocity": 106}, {"time": 17999, "pitch": 32, "duration": 209, "velocity": 95}, {"time": 18238, "pitch": 31, "duration": 210, "velocity": 95}, {"time": 18478, "pitch": 38, "duration": 401, "velocity": 106}, {"time": 18960, "pitch": 38, "duration": 473, "velocity": 99}, {"time": 19442, "pitch": 45, "duration": 140, "velocity": 81}, {"time": 19602, "pitch": 50, "duration": 70, "velocity": 77}, {"time": 19682, "pitch": 38, "duration": 179, "velocity": 97}, {"time": 19921, "pitch": 38, "duration": 100, "velocity": 97}, {"time": 20160, "pitch": 48, "duration": 130, "velocity": 103}, {"time": 20320, "pitch": 50, "duration": 90, "velocity": 81}, {"time": 20400, "pitch": 45, "duration": 139, "velocity": 81}, {"time": 20559, "pitch": 38, "duration": 70, "velocity": 77}, {"time": 20639, "pitch": 28, "duration": 180, "velocity": 97}, {"time": 20879, "pitch": 35, "duration": 99, "velocity": 97}, {"time": 21118, "pitch": 40, "duration": 129, "velocity": 103}, {"time": 21277, "pitch": 47, "duration": 70, "velocity": 81}, {"time": 21357, "pitch": 40, "duration": 140, "velocity": 81}, {"time": 21517, "pitch": 35, "duration": 70, "velocity": 77}, {"time": 21597, "pitch": 33, "duration": 202, "velocity": 106}, {"time": 21840, "pitch": 28, "duration": 212, "velocity": 95}, {"time": 22083, "pitch": 33, "duration": 209, "velocity": 95}, {"time": 22322, "pitch": 45, "duration": 399, "velocity": 106}, {"time": 22801, "pitch": 33, "duration": 468, "velocity": 99}, {"time": 23279, "pitch": 45, "duration": 140, "velocity": 81}, {"time": 23439, "pitch": 40, "duration": 70, "velocity": 77}, {"time": 23519, "pitch": 41, "duration": 189, "velocity": 99}, {"time": 23758, "pitch": 41, "duration": 210, "velocity": 95}, {"time": 24484, "pitch": 43, "duration": 179, "velocity": 103}, {"time": 24723, "pitch": 43, "duration": 209, "velocity": 81}, {"time": 25441, "pitch": 45, "duration": 160, "velocity": 99}, {"time": 25680, "pitch": 45, "duration": 170, "velocity": 89}, {"time": 25920, "pitch": 47, "duration": 169, "velocity": 77}, {"time": 26159, "pitch": 47, "duration": 209, "velocity": 86}, {"time": 26398, "pitch": 48, "duration": 200, "velocity": 83}, {"time": 26638, "pitch": 47, "duration": 139, "velocity": 80}, {"time": 26797, "pitch": 45, "duration": 242, "velocity": 77}, {"time": 27039, "pitch": 43, "duration": 61, "velocity": 86}, {"time": 27120, "pitch": 45, "duration": 162, "velocity": 92}, {"time": 27363, "pitch": 41, "duration": 190, "velocity": 99}, {"time": 27603, "pitch": 41, "duration": 209, "velocity": 95}, {"time": 28321, "pitch": 43, "duration": 209, "velocity": 97}, {"time": 28560, "pitch": 43, "duration": 209, "velocity": 97}, {"time": 29039, "pitch": 45, "duration": 229, "velocity": 89}, {"time": 29517, "pitch": 43, "duration": 240, "velocity": 97}, {"time": 30000, "pitch": 41, "duration": 263, "velocity": 106}, {"time": 30482, "pitch": 43, "duration": 569, "velocity": 97}, {"time": 31200, "pitch": 41, "duration": 190, "velocity": 99}, {"time": 31439, "pitch": 41, "duration": 210, "velocity": 95}, {"time": 32157, "pitch": 43, "duration": 183, "velocity": 103}, {"time": 32401, "pitch": 43, "duration": 172, "velocity": 77}, {"time": 33122, "pitch": 33, "duration": 180, "velocity": 89}, {"time": 33362, "pitch": 33, "duration": 189, "velocity": 97}, {"time": 33601, "pitch": 35, "duration": 189, "velocity": 97}, {"time": 33840, "pitch": 35, "duration": 180, "velocity": 83}, {"time": 34080, "pitch": 36, "duration": 139, "velocity": 89}, {"time": 34239, "pitch": 38, "duration": 90, "velocity": 83}, {"time": 34319, "pitch": 40, "duration": 150, "velocity": 89}, {"time": 34479, "pitch": 33, "duration": 319, "velocity": 89}, {"time": 34798, "pitch": 33, "duration": 139, "velocity": 96}, {"time": 35037, "pitch": 38, "duration": 182, "velocity": 89}, {"time": 35280, "pitch": 38, "duration": 213, "velocity": 91}, {"time": 35523, "pitch": 33, "duration": 200, "velocity": 97}, {"time": 35763, "pitch": 38, "duration": 339, "velocity": 77}, {"time": 36241, "pitch": 38, "duration": 200, "velocity": 97}, {"time": 36481, "pitch": 38, "duration": 229, "velocity": 89}, {"time": 36720, "pitch": 40, "duration": 239, "velocity": 97}, {"time": 37199, "pitch": 40, "duration": 219, "velocity": 97}, {"time": 37677, "pitch": 40, "duration": 220, "velocity": 96}, {"time": 38403, "pitch": 40, "duration": 229, "velocity": 100}, {"time": 38627, "pitch": 52, "duration": 229, "velocity": 92}, {"time": 38881, "pitch": 33, "duration": 210, "velocity": 97}, {"time": 39121, "pitch": 33, "duration": 209, "velocity": 97}, {"time": 39360, "pitch": 45, "duration": 130, "velocity": 103}, {"time": 39520, "pitch": 47, "duration": 89, "velocity": 81}, {"time": 39599, "pitch": 43, "duration": 140, "velocity": 81}, {"time": 39759, "pitch": 40, "duration": 199, "velocity": 77}, {"time": 39998, "pitch": 43, "duration": 90, "velocity": 77}, {"time": 40078, "pitch": 40, "duration": 120, "velocity": 97}, {"time": 40238, "pitch": 38, "duration": 231, "velocity": 83}, {"time": 40480, "pitch": 40, "duration": 70, "velocity": 83}, {"time": 40561, "pitch": 36, "duration": 212, "velocity": 97}, {"time": 40804, "pitch": 33, "duration": 199, "velocity": 106}, {"time": 41043, "pitch": 33, "duration": 209, "velocity": 95}, {"time": 41522, "pitch": 33, "duration": 229, "velocity": 98}, {"time": 42000, "pitch": 33, "duration": 479, "velocity": 99}, {"time": 42479, "pitch": 31, "duration": 140, "velocity": 81}, {"time": 42639, "pitch": 32, "duration": 69, "velocity": 77}, {"time": 42718, "pitch": 40, "duration": 180, "velocity": 97}, {"time": 42958, "pitch": 40, "duration": 99, "velocity": 97}, {"time": 43197, "pitch": 45, "duration": 132, "velocity": 103}, {"time": 43359, "pitch": 47, "duration": 91, "velocity": 81}, {"time": 43440, "pitch": 43, "duration": 142, "velocity": 81}, {"time": 43602, "pitch": 40, "duration": 201, "velocity": 77}, {"time": 43843, "pitch": 43, "duration": 90, "velocity": 77}, {"time": 43923, "pitch": 40, "duration": 119, "velocity": 97}, {"time": 44082, "pitch": 38, "duration": 229, "velocity": 83}, {"time": 44321, "pitch": 40, "duration": 90, "velocity": 83}, {"time": 44401, "pitch": 36, "duration": 210, "velocity": 97}, {"time": 44641, "pitch": 33, "duration": 199, "velocity": 106}, {"time": 44880, "pitch": 33, "duration": 209, "velocity": 95}, {"time": 45359, "pitch": 33, "duration": 229, "velocity": 98}, {"time": 45837, "pitch": 33, "duration": 483, "velocity": 99}, {"time": 46320, "pitch": 31, "duration": 142, "velocity": 81}, {"time": 46482, "pitch": 32, "duration": 71, "velocity": 77}, {"time": 46563, "pitch": 33, "duration": 209, "velocity": 97}, {"time": 46802, "pitch": 33, "duration": 210, "velocity": 97}, {"time": 47041, "pitch": 45, "duration": 130, "velocity": 103}, {"time": 47201, "pitch": 47, "duration": 90, "velocity": 81}, {"time": 47281, "pitch": 43, "duration": 139, "velocity": 81}, {"time": 47440, "pitch": 40, "duration": 200, "velocity": 77}, {"time": 47680, "pitch": 43, "duration": 89, "velocity": 77}, {"time": 47759, "pitch": 40, "duration": 120, "velocity": 97}, {"time": 47919, "pitch": 38, "duration": 229, "velocity": 83}, {"time": 48158, "pitch": 40, "duration": 90, "velocity": 83}, {"time": 48238, "pitch": 36, "duration": 210, "velocity": 97}, {"time": 48477, "pitch": 33, "duration": 203, "velocity": 106}, {"time": 48721, "pitch": 33, "duration": 212, "velocity": 95}, {"time": 49203, "pitch": 33, "duration": 229, "velocity": 98}, {"time": 49682, "pitch": 33, "duration": 478, "velocity": 99}, {"time": 50160, "pitch": 31, "duration": 140, "velocity": 81}, {"time": 50320, "pitch": 32, "duration": 70, "velocity": 77}, {"time": 50400, "pitch": 40, "duration": 209, "velocity": 97}, {"time": 50639, "pitch": 40, "duration": 209, "velocity": 97}, {"time": 50878, "pitch": 45, "duration": 130, "velocity": 85}, {"time": 51038, "pitch": 47, "duration": 90, "velocity": 81}, {"time": 51118, "pitch": 43, "duration": 139, "velocity": 81}, {"time": 51277, "pitch": 40, "duration": 202, "velocity": 77}, {"time": 51519, "pitch": 43, "duration": 91, "velocity": 77}, {"time": 51600, "pitch": 40, "duration": 122, "velocity": 97}, {"time": 51762, "pitch": 38, "duration": 231, "velocity": 83}, {"time": 52003, "pitch": 40, "duration": 90, "velocity": 83}, {"time": 52083, "pitch": 36, "duration": 209, "velocity": 97}, {"time": 52322, "pitch": 33, "duration": 199, "velocity": 93}, {"time": 52561, "pitch": 33, "duration": 210, "velocity": 95}, {"time": 53040, "pitch": 33, "duration": 229, "velocity": 98}, {"time": 53519, "pitch": 33, "duration": 478, "velocity": 99}, {"time": 53997, "pitch": 43, "duration": 140, "velocity": 81}, {"time": 54157, "pitch": 42, "duration": 70, "velocity": 77}, {"time": 54237, "pitch": 41, "duration": 1593, "velocity": 86}, {"time": 55919, "pitch": 41, "duration": 220, "velocity": 86}, {"time": 56159, "pitch": 40, "duration": 1294, "velocity": 94}, {"time": 57602, "pitch": 40, "duration": 439, "velocity": 86}, {"time": 58081, "pitch": 33, "duration": 209, "velocity": 97}, {"time": 58320, "pitch": 33, "duration": 210, "velocity": 97}, {"time": 60003, "pitch": 33, "duration": 210, "velocity": 97}, {"time": 60243, "pitch": 33, "duration": 139, "velocity": 97}, {"time": 60482, "pitch": 45, "duration": 130, "velocity": 86}, {"time": 60641, "pitch": 47, "duration": 90, "velocity": 81}, {"time": 60721, "pitch": 43, "duration": 140, "velocity": 81}, {"time": 60881, "pitch": 40, "duration": 199, "velocity": 77}, {"time": 61120, "pitch": 43, "duration": 90, "velocity": 77}, {"time": 61200, "pitch": 40, "duration": 120, "velocity": 97}, {"time": 61360, "pitch": 38, "duration": 229, "velocity": 83}, {"time": 61599, "pitch": 40, "duration": 70, "velocity": 83}, {"time": 61679, "pitch": 36, "duration": 209, "velocity": 97}, {"time": 61918, "pitch": 33, "duration": 199, "velocity": 106}, {"time": 62157, "pitch": 33, "duration": 210, "velocity": 95}, {"time": 62640, "pitch": 33, "duration": 233, "velocity": 98}, {"time": 63122, "pitch": 31, "duration": 469, "velocity": 99}, {"time": 63601, "pitch": 31, "duration": 139, "velocity": 81}, {"time": 63760, "pitch": 32, "duration": 70, "velocity": 77}, {"time": 63840, "pitch": 33, "duration": 210, "velocity": 97}, {"time": 64080, "pitch": 33, "duration": 139, "velocity": 97}, {"time": 64319, "pitch": 45, "duration": 129, "velocity": 86}, {"time": 64478, "pitch": 47, "duration": 90, "velocity": 81}, {"time": 64558, "pitch": 43, "duration": 140, "velocity": 81}, {"time": 64718, "pitch": 40, "duration": 201, "velocity": 77}, {"time": 64960, "pitch": 43, "duration": 91, "velocity": 77}, {"time": 65041, "pitch": 40, "duration": 121, "velocity": 97}, {"time": 65203, "pitch": 38, "duration": 230, "velocity": 83}, {"time": 65443, "pitch": 40, "duration": 70, "velocity": 83}, {"time": 65523, "pitch": 36, "duration": 209, "velocity": 97}, {"time": 65762, "pitch": 33, "duration": 200, "velocity": 106}, {"time": 66002, "pitch": 33, "duration": 209, "velocity": 95}, {"time": 66480, "pitch": 33, "duration": 230, "velocity": 98}, {"time": 66959, "pitch": 31, "duration": 469, "velocity": 99}, {"time": 67438, "pitch": 31, "duration": 139, "velocity": 81}, {"time": 67597, "pitch": 32, "duration": 70, "velocity": 77}, {"time": 67677, "pitch": 33, "duration": 213, "velocity": 97}, {"time": 67920, "pitch": 33, "duration": 142, "velocity": 97}, {"time": 68163, "pitch": 45, "duration": 130, "velocity": 86}, {"time": 68323, "pitch": 47, "duration": 90, "velocity": 81}, {"time": 68403, "pitch": 43, "duration": 139, "velocity": 81}, {"time": 68562, "pitch": 40, "duration": 200, "velocity": 77}, {"time": 68802, "pitch": 43, "duration": 89, "velocity": 77}, {"time": 68881, "pitch": 40, "duration": 120, "velocity": 97}, {"time": 69041, "pitch": 38, "duration": 229, "velocity": 83}, {"time": 69280, "pitch": 40, "duration": 70, "velocity": 83}, {"time": 69360, "pitch": 36, "duration": 209, "velocity": 97}, {"time": 69599, "pitch": 33, "duration": 200, "velocity": 106}, {"time": 69839, "pitch": 33, "duration": 209, "velocity": 95}, {"time": 70317, "pitch": 33, "duration": 230, "velocity": 98}, {"time": 70800, "pitch": 31, "duration": 472, "velocity": 99}, {"time": 71282, "pitch": 31, "duration": 140, "velocity": 81}, {"time": 71442, "pitch": 32, "duration": 70, "velocity": 77}, {"time": 71522, "pitch": 33, "duration": 209, "velocity": 97}, {"time": 71761, "pitch": 33, "duration": 139, "velocity": 97}, {"time": 72000, "pitch": 45, "duration": 130, "velocity": 86}, {"time": 72160, "pitch": 47, "duration": 90, "velocity": 81}, {"time": 72240, "pitch": 43, "duration": 139, "velocity": 81}, {"time": 72399, "pitch": 40, "duration": 200, "velocity": 77}, {"time": 72638, "pitch": 43, "duration": 90, "velocity": 77}, {"time": 72718, "pitch": 40, "duration": 120, "velocity": 97}, {"time": 72878, "pitch": 38, "duration": 231, "velocity": 83}, {"time": 73120, "pitch": 40, "duration": 71, "velocity": 83}, {"time": 73201, "pitch": 36, "duration": 212, "velocity": 97}, {"time": 73444, "pitch": 33, "duration": 199, "velocity": 106}, {"time": 73683, "pitch": 33, "duration": 209, "velocity": 95}, {"time": 74162, "pitch": 33, "duration": 229, "velocity": 98}, {"time": 74640, "pitch": 31, "duration": 469, "velocity": 99}, {"time": 75119, "pitch": 31, "duration": 140, "velocity": 81}, {"time": 75279, "pitch": 32, "duration": 69, "velocity": 77}, {"time": 75358, "pitch": 29, "duration": 210, "velocity": 97}, {"time": 75598, "pitch": 29, "duration": 139, "velocity": 97}, {"time": 75837, "pitch": 48, "duration": 132, "velocity": 103}, {"time": 75999, "pitch": 50, "duration": 71, "velocity": 81}, {"time": 76080, "pitch": 43, "duration": 142, "velocity": 81}, {"time": 76242, "pitch": 41, "duration": 71, "velocity": 77}, {"time": 76323, "pitch": 28, "duration": 180, "velocity": 97}, {"time": 76563, "pitch": 35, "duration": 139, "velocity": 97}, {"time": 76802, "pitch": 40, "duration": 130, "velocity": 103}, {"time": 76962, "pitch": 47, "duration": 69, "velocity": 81}, {"time": 77041, "pitch": 40, "duration": 140, "velocity": 81}, {"time": 77201, "pitch": 35, "duration": 70, "velocity": 77}, {"time": 77281, "pitch": 33, "duration": 199, "velocity": 106}, {"time": 77520, "pitch": 32, "duration": 209, "velocity": 95}, {"time": 77759, "pitch": 31, "duration": 210, "velocity": 95}, {"time": 77999, "pitch": 38, "duration": 399, "velocity": 106}, {"time": 78477, "pitch": 38, "duration": 473, "velocity": 99}, {"time": 78960, "pitch": 45, "duration": 142, "velocity": 81}, {"time": 79122, "pitch": 50, "duration": 71, "velocity": 77}, {"time": 79203, "pitch": 38, "duration": 179, "velocity": 97}, {"time": 79442, "pitch": 38, "duration": 100, "velocity": 97}, {"time": 79682, "pitch": 48, "duration": 129, "velocity": 103}, {"time": 79841, "pitch": 50, "duration": 90, "velocity": 81}, {"time": 79921, "pitch": 45, "duration": 139, "velocity": 81}, {"time": 80080, "pitch": 38, "duration": 70, "velocity": 77}, {"time": 80160, "pitch": 28, "duration": 180, "velocity": 97}, {"time": 80400, "pitch": 35, "duration": 99, "velocity": 97}, {"time": 80639, "pitch": 40, "duration": 130, "velocity": 103}, {"time": 80798, "pitch": 47, "duration": 70, "velocity": 81}, {"time": 80878, "pitch": 40, "duration": 140, "velocity": 81}, {"time": 81038, "pitch": 35, "duration": 70, "velocity": 77}, {"time": 81118, "pitch": 33, "duration": 199, "velocity": 106}, {"time": 81357, "pitch": 28, "duration": 209, "velocity": 95}, {"time": 81596, "pitch": 33, "duration": 213, "velocity": 95}, {"time": 81839, "pitch": 45, "duration": 403, "velocity": 106}, {"time": 82322, "pitch": 33, "duration": 468, "velocity": 99}, {"time": 82800, "pitch": 45, "duration": 140, "velocity": 81}, {"time": 82960, "pitch": 40, "duration": 70, "velocity": 77}, {"time": 83040, "pitch": 41, "duration": 189, "velocity": 99}, {"time": 83279, "pitch": 41, "duration": 210, "velocity": 95}, {"time": 83997, "pitch": 43, "duration": 182, "velocity": 103}, {"time": 84240, "pitch": 43, "duration": 213, "velocity": 81}, {"time": 84962, "pitch": 45, "duration": 160, "velocity": 99}, {"time": 85201, "pitch": 45, "duration": 170, "velocity": 89}, {"time": 85441, "pitch": 47, "duration": 169, "velocity": 77}, {"time": 85680, "pitch": 47, "duration": 209, "velocity": 86}, {"time": 85919, "pitch": 48, "duration": 200, "velocity": 83}, {"time": 86159, "pitch": 47, "duration": 139, "velocity": 80}, {"time": 86318, "pitch": 45, "duration": 240, "velocity": 77}, {"time": 86558, "pitch": 43, "duration": 59, "velocity": 86}, {"time": 86637, "pitch": 45, "duration": 160, "velocity": 92}, {"time": 86877, "pitch": 41, "duration": 192, "velocity": 99}, {"time": 87120, "pitch": 41, "duration": 213, "velocity": 95}, {"time": 87842, "pitch": 43, "duration": 209, "velocity": 97}, {"time": 88081, "pitch": 43, "duration": 209, "velocity": 97}, {"time": 88560, "pitch": 45, "duration": 229, "velocity": 89}, {"time": 89038, "pitch": 43, "duration": 240, "velocity": 97}, {"time": 89517, "pitch": 41, "duration": 259, "velocity": 106}, {"time": 89999, "pitch": 43, "duration": 573, "velocity": 97}, {"time": 90721, "pitch": 41, "duration": 190, "velocity": 99}, {"time": 90960, "pitch": 41, "duration": 210, "velocity": 95}, {"time": 91678, "pitch": 43, "duration": 180, "velocity": 103}, {"time": 91918, "pitch": 43, "duration": 169, "velocity": 77}, {"time": 92643, "pitch": 33, "duration": 180, "velocity": 89}, {"time": 92883, "pitch": 33, "duration": 189, "velocity": 97}, {"time": 93122, "pitch": 35, "duration": 189, "velocity": 97}, {"time": 93361, "pitch": 35, "duration": 180, "velocity": 83}, {"time": 93601, "pitch": 36, "duration": 139, "velocity": 89}, {"time": 93760, "pitch": 38, "duration": 90, "velocity": 83}, {"time": 93840, "pitch": 40, "duration": 150, "velocity": 89}, {"time": 94000, "pitch": 33, "duration": 319, "velocity": 89}, {"time": 94319, "pitch": 33, "duration": 139, "velocity": 96}, {"time": 94558, "pitch": 38, "duration": 180, "velocity": 89}, {"time": 94797, "pitch": 38, "duration": 210, "velocity": 91}, {"time": 95037, "pitch": 33, "duration": 202, "velocity": 97}, {"time": 95280, "pitch": 38, "duration": 343, "velocity": 77}, {"time": 95762, "pitch": 38, "duration": 200, "velocity": 97}, {"time": 96002, "pitch": 38, "duration": 229, "velocity": 89}, {"time": 96241, "pitch": 40, "duration": 239, "velocity": 97}, {"time": 96720, "pitch": 40, "duration": 219, "velocity": 97}, {"time": 97198, "pitch": 40, "duration": 220, "velocity": 96}, {"time": 97916, "pitch": 40, "duration": 233, "velocity": 100}, {"time": 98144, "pitch": 52, "duration": 233, "velocity": 92}, {"time": 98402, "pitch": 33, "duration": 210, "velocity": 97}, {"time": 98642, "pitch": 33, "duration": 209, "velocity": 97}, {"time": 98881, "pitch": 45, "duration": 130, "velocity": 103}, {"time": 99041, "pitch": 47, "duration": 89, "velocity": 81}, {"time": 99120, "pitch": 43, "duration": 140, "velocity": 81}, {"time": 99280, "pitch": 40, "duration": 199, "velocity": 77}, {"time": 99519, "pitch": 43, "duration": 90, "velocity": 77}, {"time": 99599, "pitch": 40, "duration": 120, "velocity": 97}, {"time": 99759, "pitch": 38, "duration": 229, "velocity": 83}, {"time": 99998, "pitch": 40, "duration": 70, "velocity": 83}, {"time": 100078, "pitch": 36, "duration": 209, "velocity": 97}, {"time": 100317, "pitch": 33, "duration": 203, "velocity": 106}, {"time": 100560, "pitch": 33, "duration": 213, "velocity": 95}, {"time": 101043, "pitch": 33, "duration": 229, "velocity": 98}, {"time": 101521, "pitch": 33, "duration": 479, "velocity": 99}, {"time": 102000, "pitch": 31, "duration": 140, "velocity": 81}, {"time": 102160, "pitch": 32, "duration": 69, "velocity": 77}, {"time": 102239, "pitch": 40, "duration": 180, "velocity": 97}, {"time": 102479, "pitch": 40, "duration": 99, "velocity": 97}, {"time": 102718, "pitch": 45, "duration": 130, "velocity": 103}, {"time": 102878, "pitch": 47, "duration": 89, "velocity": 81}, {"time": 102957, "pitch": 43, "duration": 140, "velocity": 81}, {"time": 103117, "pitch": 40, "duration": 201, "velocity": 77}, {"time": 103359, "pitch": 43, "duration": 91, "velocity": 77}, {"time": 103440, "pitch": 40, "duration": 121, "velocity": 97}, {"time": 103602, "pitch": 38, "duration": 231, "velocity": 83}, {"time": 103842, "pitch": 40, "duration": 90, "velocity": 83}, {"time": 103922, "pitch": 36, "duration": 210, "velocity": 97}, {"time": 104162, "pitch": 33, "duration": 199, "velocity": 106}, {"time": 104401, "pitch": 33, "duration": 209, "velocity": 95}, {"time": 104880, "pitch": 33, "duration": 229, "velocity": 98}, {"time": 105358, "pitch": 33, "duration": 479, "velocity": 99}, {"time": 105837, "pitch": 31, "duration": 140, "velocity": 81}, {"time": 105997, "pitch": 32, "duration": 69, "velocity": 77}, {"time": 106076, "pitch": 33, "duration": 213, "velocity": 97}, {"time": 106319, "pitch": 33, "duration": 213, "velocity": 97}, {"time": 106562, "pitch": 45, "duration": 130, "velocity": 103}, {"time": 106722, "pitch": 47, "duration": 90, "velocity": 81}, {"time": 106802, "pitch": 43, "duration": 139, "velocity": 81}, {"time": 106961, "pitch": 40, "duration": 200, "velocity": 77}, {"time": 107201, "pitch": 43, "duration": 89, "velocity": 77}, {"time": 107281, "pitch": 40, "duration": 119, "velocity": 97}, {"time": 107440, "pitch": 38, "duration": 229, "velocity": 83}, {"time": 107679, "pitch": 40, "duration": 90, "velocity": 83}, {"time": 107759, "pitch": 36, "duration": 210, "velocity": 97}, {"time": 107999, "pitch": 33, "duration": 199, "velocity": 106}, {"time": 108238, "pitch": 33, "duration": 209, "velocity": 95}, {"time": 108720, "pitch": 33, "duration": 233, "velocity": 98}, {"time": 109203, "pitch": 33, "duration": 478, "velocity": 99}, {"time": 109681, "pitch": 31, "duration": 140, "velocity": 81}, {"time": 109841, "pitch": 32, "duration": 70, "velocity": 77}, {"time": 109921, "pitch": 40, "duration": 209, "velocity": 97}, {"time": 110160, "pitch": 40, "duration": 209, "velocity": 97}, {"time": 110399, "pitch": 45, "duration": 130, "velocity": 85}, {"time": 110559, "pitch": 47, "duration": 90, "velocity": 81}, {"time": 110639, "pitch": 43, "duration": 139, "velocity": 81}, {"time": 110798, "pitch": 40, "duration": 200, "velocity": 77}, {"time": 111038, "pitch": 43, "duration": 89, "velocity": 77}, {"time": 111117, "pitch": 40, "duration": 120, "velocity": 97}, {"time": 111277, "pitch": 38, "duration": 232, "velocity": 83}, {"time": 111519, "pitch": 40, "duration": 91, "velocity": 83}, {"time": 111600, "pitch": 36, "duration": 213, "velocity": 97}, {"time": 111843, "pitch": 33, "duration": 199, "velocity": 93}, {"time": 112082, "pitch": 33, "duration": 210, "velocity": 95}, {"time": 112561, "pitch": 33, "duration": 229, "velocity": 98}, {"time": 113040, "pitch": 33, "duration": 478, "velocity": 99}, {"time": 113518, "pitch": 43, "duration": 140, "velocity": 81}, {"time": 113678, "pitch": 42, "duration": 70, "velocity": 77}, {"time": 113758, "pitch": 41, "duration": 1593, "velocity": 86}, {"time": 115441, "pitch": 41, "duration": 219, "velocity": 86}, {"time": 115680, "pitch": 40, "duration": 1291, "velocity": 94}, {"time": 117123, "pitch": 40, "duration": 439, "velocity": 86}, {"time": 117602, "pitch": 33, "duration": 210, "velocity": 97}, {"time": 117841, "pitch": 33, "duration": 210, "velocity": 97}, {"time": 119517, "pitch": 33, "duration": 192, "velocity": 127}, {"time": 119760, "pitch": 32, "duration": 172, "velocity": 127}, {"time": 120003, "pitch": 31, "duration": 179, "velocity": 127}, {"time": 120242, "pitch": 30, "duration": 40, "velocity": 127}, {"time": 120282, "pitch": 29, "duration": 90, "velocity": 114}, {"time": 120960, "pitch": 52, "duration": 469, "velocity": 115}, {"time": 121439, "pitch": 33, "duration": 180, "velocity": 94}, {"time": 121678, "pitch": 45, "duration": 170, "velocity": 94}, {"time": 121918, "pitch": 45, "duration": 159, "velocity": 94}, {"time": 122058, "pitch": 40, "duration": 80, "velocity": 86}, {"time": 122157, "pitch": 43, "duration": 140, "velocity": 86}, {"time": 122298, "pitch": 45, "duration": 150, "velocity": 92}, {"time": 123023, "pitch": 33, "duration": 160, "velocity": 86}, {"time": 123122, "pitch": 35, "duration": 179, "velocity": 86}, {"time": 123361, "pitch": 36, "duration": 190, "velocity": 77}, {"time": 123601, "pitch": 36, "duration": 139, "velocity": 86}, {"time": 123840, "pitch": 36, "duration": 130, "velocity": 92}, {"time": 123981, "pitch": 31, "duration": 79, "velocity": 69}, {"time": 124079, "pitch": 33, "duration": 110, "velocity": 105}, {"time": 124220, "pitch": 36, "duration": 179, "velocity": 94}, {"time": 124797, "pitch": 36, "duration": 426, "velocity": 105}, {"time": 125283, "pitch": 29, "duration": 160, "velocity": 105}, {"time": 125523, "pitch": 29, "duration": 169, "velocity": 94}, {"time": 125762, "pitch": 29, "duration": 140, "velocity": 83}, {"time": 125903, "pitch": 36, "duration": 99, "velocity": 83}, {"time": 126001, "pitch": 41, "duration": 140, "velocity": 94}, {"time": 126142, "pitch": 29, "duration": 190, "velocity": 69}, {"time": 126719, "pitch": 36, "duration": 220, "velocity": 92}, {"time": 126959, "pitch": 29, "duration": 219, "velocity": 94}, {"time": 127198, "pitch": 28, "duration": 180, "velocity": 105}, {"time": 127437, "pitch": 28, "duration": 150, "velocity": 75}, {"time": 127677, "pitch": 28, "duration": 91, "velocity": 69}, {"time": 127820, "pitch": 35, "duration": 71, "velocity": 86}, {"time": 127920, "pitch": 40, "duration": 243, "velocity": 92}, {"time": 128402, "pitch": 28, "duration": 190, "velocity": 94}, {"time": 128881, "pitch": 28, "duration": 189, "velocity": 105}, {"time": 129120, "pitch": 33, "duration": 180, "velocity": 94}, {"time": 129360, "pitch": 45, "duration": 169, "velocity": 94}, {"time": 129599, "pitch": 45, "duration": 160, "velocity": 94}, {"time": 129740, "pitch": 40, "duration": 79, "velocity": 86}, {"time": 129838, "pitch": 43, "duration": 140, "velocity": 86}, {"time": 129979, "pitch": 45, "duration": 150, "velocity": 92}, {"time": 130699, "pitch": 33, "duration": 162, "velocity": 86}, {"time": 130799, "pitch": 35, "duration": 183, "velocity": 86}, {"time": 131043, "pitch": 36, "duration": 189, "velocity": 77}, {"time": 131282, "pitch": 36, "duration": 140, "velocity": 86}, {"time": 131521, "pitch": 36, "duration": 130, "velocity": 92}, {"time": 131662, "pitch": 31, "duration": 80, "velocity": 69}, {"time": 131761, "pitch": 33, "duration": 109, "velocity": 105}, {"time": 131901, "pitch": 36, "duration": 180, "velocity": 94}, {"time": 132479, "pitch": 36, "duration": 418, "velocity": 105}, {"time": 132957, "pitch": 29, "duration": 162, "velocity": 105}, {"time": 133200, "pitch": 29, "duration": 173, "velocity": 94}, {"time": 133443, "pitch": 29, "duration": 140, "velocity": 83}, {"time": 133584, "pitch": 36, "duration": 100, "velocity": 83}, {"time": 133683, "pitch": 41, "duration": 139, "velocity": 94}, {"time": 133823, "pitch": 29, "duration": 190, "velocity": 69}, {"time": 134401, "pitch": 36, "duration": 219, "velocity": 92}, {"time": 134640, "pitch": 29, "duration": 220, "velocity": 94}, {"time": 134879, "pitch": 28, "duration": 210, "velocity": 105}, {"time": 135119, "pitch": 40, "duration": 149, "velocity": 75}, {"time": 135597, "pitch": 40, "duration": 240, "velocity": 92}, {"time": 136080, "pitch": 28, "duration": 712, "velocity": 94}, {"time": 136802, "pitch": 33, "duration": 209, "velocity": 97}, {"time": 137041, "pitch": 33, "duration": 209, "velocity": 97}, {"time": 137280, "pitch": 45, "duration": 130, "velocity": 103}, {"time": 137440, "pitch": 47, "duration": 90, "velocity": 81}, {"time": 137520, "pitch": 43, "duration": 139, "velocity": 81}, {"time": 137679, "pitch": 40, "duration": 200, "velocity": 77}, {"time": 137919, "pitch": 43, "duration": 89, "velocity": 77}, {"time": 137998, "pitch": 40, "duration": 120, "velocity": 97}, {"time": 138158, "pitch": 38, "duration": 229, "velocity": 83}, {"time": 138397, "pitch": 40, "duration": 70, "velocity": 83}, {"time": 138477, "pitch": 36, "duration": 209, "velocity": 97}, {"time": 138716, "pitch": 33, "duration": 203, "velocity": 106}, {"time": 138959, "pitch": 33, "duration": 213, "velocity": 95}, {"time": 139442, "pitch": 33, "duration": 229, "velocity": 98}, {"time": 139921, "pitch": 33, "duration": 478, "velocity": 99}, {"time": 140399, "pitch": 31, "duration": 140, "velocity": 81}, {"time": 140559, "pitch": 32, "duration": 70, "velocity": 77}, {"time": 140639, "pitch": 40, "duration": 179, "velocity": 97}, {"time": 140878, "pitch": 40, "duration": 100, "velocity": 97}, {"time": 141117, "pitch": 45, "duration": 132, "velocity": 103}, {"time": 141279, "pitch": 47, "duration": 92, "velocity": 81}, {"time": 141360, "pitch": 43, "duration": 142, "velocity": 81}, {"time": 141522, "pitch": 40, "duration": 201, "velocity": 77}, {"time": 141763, "pitch": 43, "duration": 90, "velocity": 77}, {"time": 141843, "pitch": 40, "duration": 119, "velocity": 97}, {"time": 142002, "pitch": 38, "duration": 230, "velocity": 83}, {"time": 142242, "pitch": 40, "duration": 89, "velocity": 83}, {"time": 142321, "pitch": 36, "duration": 210, "velocity": 97}, {"time": 142561, "pitch": 33, "duration": 199, "velocity": 106}, {"time": 142800, "pitch": 33, "duration": 210, "velocity": 95}, {"time": 143279, "pitch": 33, "duration": 229, "velocity": 98}, {"time": 143758, "pitch": 33, "duration": 482, "velocity": 99}, {"time": 144240, "pitch": 31, "duration": 142, "velocity": 81}, {"time": 144402, "pitch": 32, "duration": 71, "velocity": 77}, {"time": 144483, "pitch": 33, "duration": 209, "velocity": 97}, {"time": 144722, "pitch": 33, "duration": 210, "velocity": 97}, {"time": 144962, "pitch": 45, "duration": 129, "velocity": 103}, {"time": 145121, "pitch": 47, "duration": 90, "velocity": 81}, {"time": 145201, "pitch": 43, "duration": 140, "velocity": 81}, {"time": 145361, "pitch": 40, "duration": 199, "velocity": 77}, {"time": 145600, "pitch": 43, "duration": 90, "velocity": 77}, {"time": 145680, "pitch": 40, "duration": 119, "velocity": 97}, {"time": 145839, "pitch": 38, "duration": 230, "velocity": 83}, {"time": 146079, "pitch": 40, "duration": 89, "velocity": 83}, {"time": 146158, "pitch": 36, "duration": 210, "velocity": 97}, {"time": 146398, "pitch": 33, "duration": 199, "velocity": 106}, {"time": 146637, "pitch": 33, "duration": 210, "velocity": 95}, {"time": 147120, "pitch": 33, "duration": 233, "velocity": 98}, {"time": 147602, "pitch": 33, "duration": 479, "velocity": 99}, {"time": 148081, "pitch": 31, "duration": 139, "velocity": 81}, {"time": 148240, "pitch": 32, "duration": 70, "velocity": 77}, {"time": 148320, "pitch": 40, "duration": 209, "velocity": 97}, {"time": 148559, "pitch": 40, "duration": 210, "velocity": 97}, {"time": 148799, "pitch": 45, "duration": 129, "velocity": 85}, {"time": 148958, "pitch": 47, "duration": 90, "velocity": 81}, {"time": 149038, "pitch": 43, "duration": 140, "velocity": 81}, {"time": 149198, "pitch": 40, "duration": 201, "velocity": 77}, {"time": 149439, "pitch": 43, "duration": 92, "velocity": 77}, {"time": 149520, "pitch": 40, "duration": 122, "velocity": 97}, {"time": 149683, "pitch": 38, "duration": 230, "velocity": 83}, {"time": 149923, "pitch": 40, "duration": 90, "velocity": 83}, {"time": 150003, "pitch": 36, "duration": 209, "velocity": 97}, {"time": 150242, "pitch": 33, "duration": 200, "velocity": 93}, {"time": 150482, "pitch": 33, "duration": 209, "velocity": 95}, {"time": 150960, "pitch": 33, "duration": 230, "velocity": 98}, {"time": 151439, "pitch": 33, "duration": 479, "velocity": 99}, {"time": 151918, "pitch": 43, "duration": 139, "velocity": 81}, {"time": 152077, "pitch": 42, "duration": 70, "velocity": 77}, {"time": 152157, "pitch": 41, "duration": 1593, "velocity": 86}, {"time": 153840, "pitch": 41, "duration": 219, "velocity": 86}, {"time": 154079, "pitch": 40, "duration": 1292, "velocity": 94}, {"time": 155523, "pitch": 40, "duration": 438, "velocity": 86}, {"time": 156001, "pitch": 33, "duration": 210, "velocity": 97}, {"time": 156241, "pitch": 33, "duration": 209, "velocity": 97}, {"time": 157924, "pitch": 33, "duration": 209, "velocity": 97}, {"time": 158163, "pitch": 33, "duration": 139, "velocity": 97}, {"time": 158402, "pitch": 45, "duration": 130, "velocity": 86}, {"time": 158562, "pitch": 47, "duration": 90, "velocity": 81}, {"time": 158642, "pitch": 43, "duration": 139, "velocity": 81}, {"time": 158801, "pitch": 40, "duration": 200, "velocity": 77}, {"time": 159040, "pitch": 43, "duration": 90, "velocity": 77}, {"time": 159120, "pitch": 40, "duration": 120, "velocity": 97}, {"time": 159280, "pitch": 38, "duration": 229, "velocity": 83}, {"time": 159519, "pitch": 40, "duration": 70, "velocity": 83}, {"time": 159599, "pitch": 36, "duration": 209, "velocity": 97}, {"time": 159838, "pitch": 33, "duration": 200, "velocity": 106}, {"time": 160078, "pitch": 33, "duration": 209, "velocity": 95}, {"time": 160560, "pitch": 33, "duration": 233, "velocity": 98}, {"time": 161042, "pitch": 31, "duration": 469, "velocity": 99}, {"time": 161521, "pitch": 31, "duration": 140, "velocity": 81}, {"time": 161681, "pitch": 32, "duration": 69, "velocity": 77}, {"time": 161760, "pitch": 33, "duration": 210, "velocity": 97}, {"time": 162000, "pitch": 33, "duration": 139, "velocity": 97}, {"time": 162239, "pitch": 45, "duration": 130, "velocity": 86}, {"time": 162399, "pitch": 47, "duration": 89, "velocity": 81}, {"time": 162478, "pitch": 43, "duration": 140, "velocity": 81}, {"time": 162638, "pitch": 40, "duration": 199, "velocity": 77}, {"time": 162877, "pitch": 43, "duration": 90, "velocity": 77}, {"time": 162957, "pitch": 40, "duration": 120, "velocity": 97}, {"time": 163117, "pitch": 38, "duration": 231, "velocity": 83}, {"time": 163359, "pitch": 40, "duration": 70, "velocity": 83}, {"time": 163440, "pitch": 36, "duration": 212, "velocity": 97}, {"time": 163683, "pitch": 33, "duration": 199, "velocity": 106}, {"time": 163922, "pitch": 33, "duration": 209, "velocity": 95}, {"time": 164401, "pitch": 33, "duration": 229, "velocity": 98}, {"time": 164879, "pitch": 31, "duration": 469, "velocity": 99}, {"time": 165358, "pitch": 31, "duration": 140, "velocity": 81}, {"time": 165518, "pitch": 32, "duration": 69, "velocity": 77}, {"time": 165597, "pitch": 33, "duration": 213, "velocity": 97}, {"time": 165840, "pitch": 33, "duration": 142, "velocity": 97}, {"time": 166084, "pitch": 45, "duration": 129, "velocity": 86}, {"time": 166243, "pitch": 47, "duration": 90, "velocity": 81}, {"time": 166323, "pitch": 43, "duration": 139, "velocity": 81}, {"time": 166482, "pitch": 40, "duration": 200, "velocity": 77}, {"time": 166722, "pitch": 43, "duration": 90, "velocity": 77}, {"time": 166802, "pitch": 40, "duration": 119, "velocity": 97}, {"time": 166961, "pitch": 38, "duration": 229, "velocity": 83}, {"time": 167200, "pitch": 40, "duration": 70, "velocity": 83}, {"time": 167280, "pitch": 36, "duration": 210, "velocity": 97}, {"time": 167520, "pitch": 33, "duration": 199, "velocity": 106}, {"time": 167759, "pitch": 33, "duration": 209, "velocity": 95}, {"time": 168238, "pitch": 33, "duration": 229, "velocity": 98}, {"time": 168720, "pitch": 31, "duration": 472, "velocity": 99}, {"time": 169202, "pitch": 31, "duration": 140, "velocity": 81}, {"time": 169362, "pitch": 32, "duration": 70, "velocity": 77}, {"time": 169442, "pitch": 33, "duration": 209, "velocity": 97}, {"time": 169681, "pitch": 33, "duration": 140, "velocity": 97}, {"time": 169920, "pitch": 45, "duration": 130, "velocity": 86}, {"time": 170080, "pitch": 47, "duration": 90, "velocity": 81}, {"time": 170160, "pitch": 43, "duration": 139, "velocity": 81}, {"time": 170319, "pitch": 40, "duration": 200, "velocity": 77}, {"time": 170559, "pitch": 43, "duration": 89, "velocity": 77}, {"time": 170638, "pitch": 40, "duration": 120, "velocity": 97}, {"time": 170798, "pitch": 38, "duration": 229, "velocity": 83}, {"time": 171037, "pitch": 40, "duration": 70, "velocity": 83}, {"time": 171117, "pitch": 36, "duration": 210, "velocity": 97}, {"time": 171356, "pitch": 33, "duration": 203, "velocity": 106}, {"time": 171600, "pitch": 33, "duration": 212, "velocity": 95}, {"time": 172082, "pitch": 33, "duration": 229, "velocity": 98}, {"time": 172561, "pitch": 31, "duration": 468, "velocity": 99}, {"time": 173039, "pitch": 31, "duration": 140, "velocity": 81}, {"time": 173199, "pitch": 32, "duration": 70, "velocity": 77}, {"time": 173279, "pitch": 33, "duration": 209, "velocity": 97}, {"time": 173518, "pitch": 33, "duration": 140, "velocity": 97}, {"time": 173757, "pitch": 45, "duration": 132, "velocity": 86}, {"time": 173919, "pitch": 47, "duration": 92, "velocity": 81}, {"time": 174000, "pitch": 43, "duration": 142, "velocity": 81}, {"time": 174163, "pitch": 40, "duration": 200, "velocity": 77}, {"time": 174403, "pitch": 43, "duration": 90, "velocity": 77}, {"time": 174483, "pitch": 40, "duration": 120, "velocity": 97}, {"time": 174642, "pitch": 38, "duration": 230, "velocity": 83}, {"time": 174882, "pitch": 40, "duration": 70, "velocity": 83}, {"time": 174962, "pitch": 36, "duration": 209, "velocity": 97}, {"time": 175201, "pitch": 33, "duration": 199, "velocity": 106}, {"time": 175440, "pitch": 33, "duration": 210, "velocity": 95}, {"time": 175919, "pitch": 33, "duration": 229, "velocity": 98}, {"time": 176398, "pitch": 31, "duration": 472, "velocity": 99}, {"time": 176880, "pitch": 31, "duration": 142, "velocity": 81}, {"time": 177042, "pitch": 32, "duration": 71, "velocity": 77}, {"time": 177123, "pitch": 33, "duration": 210, "velocity": 97}, {"time": 177362, "pitch": 33, "duration": 140, "velocity": 97}, {"time": 177602, "pitch": 45, "duration": 129, "velocity": 86}, {"time": 177761, "pitch": 47, "duration": 90, "velocity": 81}, {"time": 177841, "pitch": 43, "duration": 140, "velocity": 81}, {"time": 178001, "pitch": 40, "duration": 199, "velocity": 77}, {"time": 178240, "pitch": 43, "duration": 90, "velocity": 77}, {"time": 178320, "pitch": 40, "duration": 119, "velocity": 97}, {"time": 178479, "pitch": 38, "duration": 230, "velocity": 83}, {"time": 178719, "pitch": 40, "duration": 70, "velocity": 83}, {"time": 178798, "pitch": 36, "duration": 210, "velocity": 97}, {"time": 179038, "pitch": 33, "duration": 199, "velocity": 106}, {"time": 179277, "pitch": 33, "duration": 210, "velocity": 95}, {"time": 179756, "pitch": 33, "duration": 229, "velocity": 98}, {"time": 180235, "pitch": 31, "duration": 468, "velocity": 99}, {"time": 180713, "pitch": 31, "duration": 140, "velocity": 81}, {"time": 180873, "pitch": 32, "duration": 70, "velocity": 77}, {"time": 482, "pitch": 57, "duration": 1915, "velocity": 89}, {"time": 482, "pitch": 60, "duration": 1915, "velocity": 86}, {"time": 482, "pitch": 64, "duration": 1915, "velocity": 90}, {"time": 482, "pitch": 71, "duration": 1915, "velocity": 93}, {"time": 2397, "pitch": 57, "duration": 1922, "velocity": 89}, {"time": 2397, "pitch": 60, "duration": 1922, "velocity": 89}, {"time": 2397, "pitch": 62, "duration": 1922, "velocity": 90}, {"time": 2397, "pitch": 65, "duration": 1922, "velocity": 86}, {"time": 2397, "pitch": 69, "duration": 1922, "velocity": 93}, {"time": 4319, "pitch": 57, "duration": 1922, "velocity": 89}, {"time": 4319, "pitch": 60, "duration": 1922, "velocity": 86}, {"time": 4319, "pitch": 64, "duration": 1922, "velocity": 90}, {"time": 4319, "pitch": 71, "duration": 1922, "velocity": 93}, {"time": 6241, "pitch": 57, "duration": 1923, "velocity": 89}, {"time": 6241, "pitch": 60, "duration": 1923, "velocity": 89}, {"time": 6241, "pitch": 62, "duration": 1923, "velocity": 90}, {"time": 6241, "pitch": 65, "duration": 1923, "velocity": 86}, {"time": 6241, "pitch": 69, "duration": 1923, "velocity": 93}, {"time": 8164, "pitch": 57, "duration": 1904, "velocity": 89}, {"time": 8164, "pitch": 60, "duration": 1904, "velocity": 86}, {"time": 8164, "pitch": 64, "duration": 1904, "velocity": 90}, {"time": 8164, "pitch": 67, "duration": 1904, "velocity": 72}, {"time": 8164, "pitch": 71, "duration": 1904, "velocity": 86}, {"time": 10078, "pitch": 57, "duration": 230, "velocity": 80}, {"time": 10078, "pitch": 60, "duration": 230, "velocity": 78}, {"time": 10078, "pitch": 62, "duration": 230, "velocity": 83}, {"time": 10078, "pitch": 65, "duration": 230, "velocity": 77}, {"time": 10078, "pitch": 69, "duration": 230, "velocity": 87}, {"time": 10318, "pitch": 57, "duration": 229, "velocity": 72}, {"time": 10318, "pitch": 60, "duration": 229, "velocity": 74}, {"time": 10318, "pitch": 62, "duration": 239, "velocity": 80}, {"time": 10318, "pitch": 65, "duration": 239, "velocity": 84}, {"time": 10318, "pitch": 69, "duration": 239, "velocity": 89}, {"time": 10800, "pitch": 57, "duration": 223, "velocity": 85}, {"time": 10800, "pitch": 60, "duration": 243, "velocity": 82}, {"time": 10800, "pitch": 62, "duration": 233, "velocity": 84}, {"time": 10800, "pitch": 65, "duration": 233, "velocity": 86}, {"time": 10800, "pitch": 69, "duration": 223, "velocity": 89}, {"time": 11282, "pitch": 55, "duration": 709, "velocity": 81}, {"time": 11282, "pitch": 59, "duration": 709, "velocity": 91}, {"time": 11282, "pitch": 62, "duration": 709, "velocity": 97}, {"time": 11282, "pitch": 64, "duration": 709, "velocity": 91}, {"time": 11282, "pitch": 67, "duration": 709, "velocity": 95}, {"time": 12000, "pitch": 57, "duration": 1913, "velocity": 89}, {"time": 12000, "pitch": 60, "duration": 1913, "velocity": 86}, {"time": 12000, "pitch": 64, "duration": 1913, "velocity": 90}, {"time": 12000, "pitch": 67, "duration": 1913, "velocity": 72}, {"time": 12000, "pitch": 71, "duration": 1913, "velocity": 86}, {"time": 13923, "pitch": 57, "duration": 229, "velocity": 80}, {"time": 13923, "pitch": 60, "duration": 229, "velocity": 78}, {"time": 13923, "pitch": 62, "duration": 229, "velocity": 83}, {"time": 13923, "pitch": 65, "duration": 229, "velocity": 77}, {"time": 13923, "pitch": 69, "duration": 229, "velocity": 87}, {"time": 14162, "pitch": 57, "duration": 229, "velocity": 72}, {"time": 14162, "pitch": 60, "duration": 229, "velocity": 74}, {"time": 14162, "pitch": 62, "duration": 239, "velocity": 80}, {"time": 14162, "pitch": 65, "duration": 239, "velocity": 84}, {"time": 14162, "pitch": 69, "duration": 239, "velocity": 89}, {"time": 14641, "pitch": 57, "duration": 219, "velocity": 85}, {"time": 14641, "pitch": 60, "duration": 239, "velocity": 82}, {"time": 14641, "pitch": 62, "duration": 229, "velocity": 84}, {"time": 14641, "pitch": 65, "duration": 229, "velocity": 86}, {"time": 14641, "pitch": 69, "duration": 219, "velocity": 89}, {"time": 15119, "pitch": 55, "duration": 708, "velocity": 81}, {"time": 15119, "pitch": 59, "duration": 708, "velocity": 91}, {"time": 15119, "pitch": 62, "duration": 708, "velocity": 97}, {"time": 15119, "pitch": 64, "duration": 708, "velocity": 91}, {"time": 15119, "pitch": 67, "duration": 708, "velocity": 95}, {"time": 15837, "pitch": 53, "duration": 965, "velocity": 89}, {"time": 15837, "pitch": 60, "duration": 965, "velocity": 76}, {"time": 15837, "pitch": 65, "duration": 965, "velocity": 94}, {"time": 15837, "pitch": 69, "duration": 965, "velocity": 94}, {"time": 16802, "pitch": 52, "duration": 958, "velocity": 87}, {"time": 16802, "pitch": 62, "duration": 958, "velocity": 87}, {"time": 16802, "pitch": 65, "duration": 958, "velocity": 90}, {"time": 16802, "pitch": 68, "duration": 958, "velocity": 94}, {"time": 16802, "pitch": 71, "duration": 958, "velocity": 94}, {"time": 17760, "pitch": 57, "duration": 229, "velocity": 83}, {"time": 17760, "pitch": 69, "duration": 229, "velocity": 88}, {"time": 17760, "pitch": 72, "duration": 229, "velocity": 98}, {"time": 17999, "pitch": 56, "duration": 229, "velocity": 88}, {"time": 17999, "pitch": 71, "duration": 229, "velocity": 77}, {"time": 17999, "pitch": 74, "duration": 229, "velocity": 81}, {"time": 18238, "pitch": 55, "duration": 230, "velocity": 78}, {"time": 18238, "pitch": 67, "duration": 230, "velocity": 71}, {"time": 18238, "pitch": 72, "duration": 230, "velocity": 98}, {"time": 18238, "pitch": 76, "duration": 230, "velocity": 84}, {"time": 18478, "pitch": 54, "duration": 1194, "velocity": 92}, {"time": 18478, "pitch": 60, "duration": 715, "velocity": 80}, {"time": 18478, "pitch": 64, "duration": 715, "velocity": 80}, {"time": 18478, "pitch": 66, "duration": 715, "velocity": 91}, {"time": 18478, "pitch": 69, "duration": 715, "velocity": 80}, {"time": 19203, "pitch": 64, "duration": 479, "velocity": 95}, {"time": 19203, "pitch": 66, "duration": 479, "velocity": 95}, {"time": 19203, "pitch": 69, "duration": 479, "velocity": 89}, {"time": 19682, "pitch": 50, "duration": 957, "velocity": 70}, {"time": 19682, "pitch": 60, "duration": 957, "velocity": 91}, {"time": 19682, "pitch": 62, "duration": 957, "velocity": 89}, {"time": 19682, "pitch": 65, "duration": 957, "velocity": 89}, {"time": 19682, "pitch": 69, "duration": 957, "velocity": 89}, {"time": 20639, "pitch": 52, "duration": 958, "velocity": 75}, {"time": 20639, "pitch": 62, "duration": 958, "velocity": 77}, {"time": 20639, "pitch": 64, "duration": 958, "velocity": 88}, {"time": 20639, "pitch": 67, "duration": 958, "velocity": 80}, {"time": 20639, "pitch": 71, "duration": 958, "velocity": 89}, {"time": 21597, "pitch": 45, "duration": 715, "velocity": 60}, {"time": 21597, "pitch": 57, "duration": 715, "velocity": 74}, {"time": 21597, "pitch": 62, "duration": 715, "velocity": 92}, {"time": 21597, "pitch": 64, "duration": 715, "velocity": 84}, {"time": 21597, "pitch": 69, "duration": 715, "velocity": 94}, {"time": 22322, "pitch": 45, "duration": 1187, "velocity": 60}, {"time": 22322, "pitch": 57, "duration": 1187, "velocity": 84}, {"time": 22322, "pitch": 61, "duration": 1187, "velocity": 84}, {"time": 22322, "pitch": 64, "duration": 1187, "velocity": 87}, {"time": 22322, "pitch": 69, "duration": 1187, "velocity": 79}, {"time": 23519, "pitch": 41, "duration": 965, "velocity": 65}, {"time": 23519, "pitch": 57, "duration": 965, "velocity": 74}, {"time": 23519, "pitch": 60, "duration": 965, "velocity": 85}, {"time": 23519, "pitch": 64, "duration": 965, "velocity": 92}, {"time": 23519, "pitch": 67, "duration": 965, "velocity": 90}, {"time": 24484, "pitch": 43, "duration": 957, "velocity": 66}, {"time": 24484, "pitch": 59, "duration": 957, "velocity": 77}, {"time": 24484, "pitch": 62, "duration": 957, "velocity": 86}, {"time": 24484, "pitch": 67, "duration": 957, "velocity": 88}, {"time": 25441, "pitch": 45, "duration": 1436, "velocity": 64}, {"time": 25441, "pitch": 57, "duration": 1436, "velocity": 77}, {"time": 25441, "pitch": 60, "duration": 1436, "velocity": 90}, {"time": 25441, "pitch": 64, "duration": 1436, "velocity": 87}, {"time": 26877, "pitch": 57, "duration": 486, "velocity": 74}, {"time": 26877, "pitch": 60, "duration": 486, "velocity": 83}, {"time": 26877, "pitch": 64, "duration": 486, "velocity": 81}, {"time": 26877, "pitch": 69, "duration": 486, "velocity": 86}, {"time": 27363, "pitch": 41, "duration": 958, "velocity": 68}, {"time": 27363, "pitch": 57, "duration": 958, "velocity": 71}, {"time": 27363, "pitch": 60, "duration": 958, "velocity": 92}, {"time": 27363, "pitch": 64, "duration": 958, "velocity": 77}, {"time": 27363, "pitch": 67, "duration": 958, "velocity": 80}, {"time": 28321, "pitch": 43, "duration": 708, "velocity": 66}, {"time": 28321, "pitch": 59, "duration": 708, "velocity": 77}, {"time": 28321, "pitch": 62, "duration": 708, "velocity": 86}, {"time": 28321, "pitch": 67, "duration": 708, "velocity": 98}, {"time": 29039, "pitch": 45, "duration": 159, "velocity": 75}, {"time": 29039, "pitch": 64, "duration": 159, "velocity": 92}, {"time": 29039, "pitch": 69, "duration": 159, "velocity": 95}, {"time": 29039, "pitch": 72, "duration": 159, "velocity": 102}, {"time": 29517, "pitch": 43, "duration": 160, "velocity": 65}, {"time": 29517, "pitch": 62, "duration": 160, "velocity": 85}, {"time": 29517, "pitch": 67, "duration": 160, "velocity": 91}, {"time": 29517, "pitch": 71, "duration": 160, "velocity": 100}, {"time": 30000, "pitch": 41, "duration": 162, "velocity": 71}, {"time": 30000, "pitch": 60, "duration": 162, "velocity": 85}, {"time": 30000, "pitch": 65, "duration": 162, "velocity": 97}, {"time": 30000, "pitch": 69, "duration": 162, "velocity": 97}, {"time": 30482, "pitch": 43, "duration": 708, "velocity": 74}, {"time": 30482, "pitch": 59, "duration": 708, "velocity": 86}, {"time": 30482, "pitch": 62, "duration": 708, "velocity": 95}, {"time": 30482, "pitch": 67, "duration": 708, "velocity": 91}, {"time": 31200, "pitch": 41, "duration": 957, "velocity": 74}, {"time": 31200, "pitch": 60, "duration": 957, "velocity": 84}, {"time": 31200, "pitch": 64, "duration": 957, "velocity": 85}, {"time": 31200, "pitch": 69, "duration": 957, "velocity": 89}, {"time": 32157, "pitch": 43, "duration": 487, "velocity": 60}, {"time": 32157, "pitch": 59, "duration": 487, "velocity": 77}, {"time": 32157, "pitch": 62, "duration": 487, "velocity": 82}, {"time": 32157, "pitch": 67, "duration": 487, "velocity": 88}, {"time": 32644, "pitch": 59, "duration": 478, "velocity": 78}, {"time": 32644, "pitch": 62, "duration": 478, "velocity": 84}, {"time": 32644, "pitch": 67, "duration": 239, "velocity": 88}, {"time": 32883, "pitch": 65, "duration": 229, "velocity": 88}, {"time": 33122, "pitch": 45, "duration": 1915, "velocity": 60}, {"time": 33122, "pitch": 57, "duration": 1915, "velocity": 97}, {"time": 33122, "pitch": 60, "duration": 1915, "velocity": 88}, {"time": 33122, "pitch": 64, "duration": 1915, "velocity": 94}, {"time": 35037, "pitch": 50, "duration": 965, "velocity": 77}, {"time": 35037, "pitch": 54, "duration": 965, "velocity": 86}, {"time": 35037, "pitch": 57, "duration": 965, "velocity": 83}, {"time": 35037, "pitch": 62, "duration": 965, "velocity": 79}, {"time": 36002, "pitch": 50, "duration": 718, "velocity": 76}, {"time": 36002, "pitch": 53, "duration": 718, "velocity": 82}, {"time": 36002, "pitch": 57, "duration": 718, "velocity": 85}, {"time": 36002, "pitch": 62, "duration": 718, "velocity": 83}, {"time": 36720, "pitch": 52, "duration": 229, "velocity": 75}, {"time": 36720, "pitch": 56, "duration": 229, "velocity": 84}, {"time": 36720, "pitch": 59, "duration": 229, "velocity": 84}, {"time": 36720, "pitch": 64, "duration": 229, "velocity": 90}, {"time": 37199, "pitch": 52, "duration": 199, "velocity": 78}, {"time": 37199, "pitch": 56, "duration": 229, "velocity": 92}, {"time": 37199, "pitch": 62, "duration": 199, "velocity": 93}, {"time": 37199, "pitch": 67, "duration": 219, "velocity": 97}, {"time": 37677, "pitch": 52, "duration": 200, "velocity": 84}, {"time": 37677, "pitch": 56, "duration": 200, "velocity": 89}, {"time": 37677, "pitch": 62, "duration": 200, "velocity": 93}, {"time": 37677, "pitch": 67, "duration": 200, "velocity": 93}, {"time": 38881, "pitch": 45, "duration": 639, "velocity": 69}, {"time": 38881, "pitch": 57, "duration": 659, "velocity": 89}, {"time": 38881, "pitch": 60, "duration": 639, "velocity": 93}, {"time": 38881, "pitch": 64, "duration": 639, "velocity": 89}, {"time": 39599, "pitch": 45, "duration": 1205, "velocity": 66}, {"time": 39599, "pitch": 57, "duration": 1205, "velocity": 78}, {"time": 39599, "pitch": 60, "duration": 1205, "velocity": 82}, {"time": 39599, "pitch": 64, "duration": 1205, "velocity": 86}, {"time": 40804, "pitch": 69, "duration": 1665, "velocity": 84}, {"time": 40834, "pitch": 71, "duration": 1625, "velocity": 76}, {"time": 40863, "pitch": 74, "duration": 1616, "velocity": 83}, {"time": 41522, "pitch": 57, "duration": 1196, "velocity": 89}, {"time": 41522, "pitch": 59, "duration": 1196, "velocity": 66}, {"time": 41522, "pitch": 62, "duration": 1196, "velocity": 87}, {"time": 41522, "pitch": 67, "duration": 1196, "velocity": 86}, {"time": 42718, "pitch": 52, "duration": 965, "velocity": 91}, {"time": 42718, "pitch": 55, "duration": 965, "velocity": 74}, {"time": 42718, "pitch": 59, "duration": 965, "velocity": 89}, {"time": 42718, "pitch": 62, "duration": 965, "velocity": 90}, {"time": 43683, "pitch": 52, "duration": 958, "velocity": 83}, {"time": 43683, "pitch": 55, "duration": 958, "velocity": 69}, {"time": 43683, "pitch": 59, "duration": 958, "velocity": 81}, {"time": 43683, "pitch": 62, "duration": 958, "velocity": 84}, {"time": 44641, "pitch": 57, "duration": 1922, "velocity": 89}, {"time": 44641, "pitch": 60, "duration": 1922, "velocity": 83}, {"time": 44641, "pitch": 64, "duration": 1922, "velocity": 79}, {"time": 45598, "pitch": 71, "duration": 965, "velocity": 93}, {"time": 45598, "pitch": 76, "duration": 120, "velocity": 87}, {"time": 46563, "pitch": 45, "duration": 638, "velocity": 69}, {"time": 46563, "pitch": 57, "duration": 658, "velocity": 89}, {"time": 46563, "pitch": 60, "duration": 638, "velocity": 93}, {"time": 46563, "pitch": 64, "duration": 638, "velocity": 86}, {"time": 47281, "pitch": 45, "duration": 1196, "velocity": 66}, {"time": 47281, "pitch": 57, "duration": 1196, "velocity": 89}, {"time": 47281, "pitch": 60, "duration": 1196, "velocity": 85}, {"time": 47281, "pitch": 64, "duration": 1196, "velocity": 98}, {"time": 48477, "pitch": 69, "duration": 1673, "velocity": 84}, {"time": 48508, "pitch": 71, "duration": 1632, "velocity": 76}, {"time": 48538, "pitch": 74, "duration": 1622, "velocity": 83}, {"time": 50400, "pitch": 52, "duration": 957, "velocity": 91}, {"time": 50400, "pitch": 55, "duration": 957, "velocity": 74}, {"time": 50400, "pitch": 59, "duration": 957, "velocity": 89}, {"time": 50400, "pitch": 62, "duration": 957, "velocity": 90}, {"time": 51357, "pitch": 52, "duration": 965, "velocity": 83}, {"time": 51357, "pitch": 55, "duration": 965, "velocity": 69}, {"time": 51357, "pitch": 59, "duration": 965, "velocity": 81}, {"time": 51357, "pitch": 62, "duration": 965, "velocity": 84}, {"time": 52322, "pitch": 57, "duration": 1915, "velocity": 89}, {"time": 52322, "pitch": 60, "duration": 1915, "velocity": 83}, {"time": 52322, "pitch": 64, "duration": 1915, "velocity": 79}, {"time": 54237, "pitch": 53, "duration": 1922, "velocity": 64}, {"time": 54237, "pitch": 57, "duration": 1922, "velocity": 98}, {"time": 54237, "pitch": 60, "duration": 1922, "velocity": 94}, {"time": 54237, "pitch": 64, "duration": 964, "velocity": 76}, {"time": 54480, "pitch": 76, "duration": 1539, "velocity": 85}, {"time": 54723, "pitch": 72, "duration": 1346, "velocity": 79}, {"time": 54962, "pitch": 69, "duration": 1107, "velocity": 74}, {"time": 55201, "pitch": 64, "duration": 958, "velocity": 71}, {"time": 56159, "pitch": 52, "duration": 1922, "velocity": 46}, {"time": 56159, "pitch": 55, "duration": 1922, "velocity": 94}, {"time": 56159, "pitch": 59, "duration": 1922, "velocity": 42}, {"time": 56159, "pitch": 62, "duration": 1922, "velocity": 52}, {"time": 56398, "pitch": 74, "duration": 1563, "velocity": 94}, {"time": 56638, "pitch": 71, "duration": 1353, "velocity": 89}, {"time": 56881, "pitch": 67, "duration": 1090, "velocity": 80}, {"time": 57124, "pitch": 64, "duration": 957, "velocity": 71}, {"time": 58081, "pitch": 57, "duration": 1922, "velocity": 91}, {"time": 58081, "pitch": 60, "duration": 1922, "velocity": 83}, {"time": 58081, "pitch": 64, "duration": 1922, "velocity": 72}, {"time": 58779, "pitch": 69, "duration": 1204, "velocity": 88}, {"time": 58799, "pitch": 71, "duration": 1204, "velocity": 90}, {"time": 58799, "pitch": 76, "duration": 1204, "velocity": 94}, {"time": 60003, "pitch": 57, "duration": 1915, "velocity": 89}, {"time": 60003, "pitch": 60, "duration": 1915, "velocity": 86}, {"time": 60003, "pitch": 64, "duration": 1915, "velocity": 90}, {"time": 60003, "pitch": 71, "duration": 1915, "velocity": 93}, {"time": 61918, "pitch": 57, "duration": 1922, "velocity": 89}, {"time": 61918, "pitch": 60, "duration": 1922, "velocity": 89}, {"time": 61918, "pitch": 62, "duration": 1922, "velocity": 90}, {"time": 61918, "pitch": 65, "duration": 1922, "velocity": 86}, {"time": 61918, "pitch": 69, "duration": 1922, "velocity": 93}, {"time": 63840, "pitch": 57, "duration": 1922, "velocity": 89}, {"time": 63840, "pitch": 60, "duration": 1922, "velocity": 86}, {"time": 63840, "pitch": 64, "duration": 1922, "velocity": 90}, {"time": 63840, "pitch": 71, "duration": 1922, "velocity": 93}, {"time": 65762, "pitch": 57, "duration": 1915, "velocity": 89}, {"time": 65762, "pitch": 60, "duration": 1915, "velocity": 89}, {"time": 65762, "pitch": 62, "duration": 1915, "velocity": 90}, {"time": 65762, "pitch": 65, "duration": 1915, "velocity": 86}, {"time": 65762, "pitch": 69, "duration": 1915, "velocity": 93}, {"time": 67677, "pitch": 57, "duration": 1912, "velocity": 89}, {"time": 67677, "pitch": 60, "duration": 1912, "velocity": 86}, {"time": 67677, "pitch": 64, "duration": 1912, "velocity": 90}, {"time": 67677, "pitch": 67, "duration": 1912, "velocity": 72}, {"time": 67677, "pitch": 71, "duration": 1912, "velocity": 86}, {"time": 69599, "pitch": 57, "duration": 230, "velocity": 80}, {"time": 69599, "pitch": 60, "duration": 230, "velocity": 78}, {"time": 69599, "pitch": 62, "duration": 230, "velocity": 83}, {"time": 69599, "pitch": 65, "duration": 230, "velocity": 77}, {"time": 69599, "pitch": 69, "duration": 230, "velocity": 87}, {"time": 69839, "pitch": 57, "duration": 229, "velocity": 72}, {"time": 69839, "pitch": 60, "duration": 229, "velocity": 74}, {"time": 69839, "pitch": 62, "duration": 239, "velocity": 80}, {"time": 69839, "pitch": 65, "duration": 239, "velocity": 84}, {"time": 69839, "pitch": 69, "duration": 239, "velocity": 89}, {"time": 70317, "pitch": 57, "duration": 220, "velocity": 85}, {"time": 70317, "pitch": 60, "duration": 240, "velocity": 82}, {"time": 70317, "pitch": 62, "duration": 230, "velocity": 84}, {"time": 70317, "pitch": 65, "duration": 230, "velocity": 86}, {"time": 70317, "pitch": 69, "duration": 220, "velocity": 89}, {"time": 70800, "pitch": 55, "duration": 712, "velocity": 81}, {"time": 70800, "pitch": 59, "duration": 712, "velocity": 91}, {"time": 70800, "pitch": 62, "duration": 712, "velocity": 97}, {"time": 70800, "pitch": 64, "duration": 712, "velocity": 91}, {"time": 70800, "pitch": 67, "duration": 712, "velocity": 95}, {"time": 71522, "pitch": 57, "duration": 1912, "velocity": 89}, {"time": 71522, "pitch": 60, "duration": 1912, "velocity": 86}, {"time": 71522, "pitch": 64, "duration": 1912, "velocity": 90}, {"time": 71522, "pitch": 67, "duration": 1912, "velocity": 72}, {"time": 71522, "pitch": 71, "duration": 1912, "velocity": 86}, {"time": 73444, "pitch": 57, "duration": 229, "velocity": 80}, {"time": 73444, "pitch": 60, "duration": 229, "velocity": 78}, {"time": 73444, "pitch": 62, "duration": 229, "velocity": 83}, {"time": 73444, "pitch": 65, "duration": 229, "velocity": 77}, {"time": 73444, "pitch": 69, "duration": 229, "velocity": 87}, {"time": 73683, "pitch": 57, "duration": 229, "velocity": 72}, {"time": 73683, "pitch": 60, "duration": 229, "velocity": 74}, {"time": 73683, "pitch": 62, "duration": 239, "velocity": 80}, {"time": 73683, "pitch": 65, "duration": 239, "velocity": 84}, {"time": 73683, "pitch": 69, "duration": 239, "velocity": 89}, {"time": 74162, "pitch": 57, "duration": 219, "velocity": 85}, {"time": 74162, "pitch": 60, "duration": 239, "velocity": 82}, {"time": 74162, "pitch": 62, "duration": 229, "velocity": 84}, {"time": 74162, "pitch": 65, "duration": 229, "velocity": 86}, {"time": 74162, "pitch": 69, "duration": 219, "velocity": 89}, {"time": 74640, "pitch": 55, "duration": 708, "velocity": 81}, {"time": 74640, "pitch": 59, "duration": 708, "velocity": 91}, {"time": 74640, "pitch": 62, "duration": 708, "velocity": 97}, {"time": 74640, "pitch": 64, "duration": 708, "velocity": 91}, {"time": 74640, "pitch": 67, "duration": 708, "velocity": 95}, {"time": 75358, "pitch": 53, "duration": 965, "velocity": 89}, {"time": 75358, "pitch": 60, "duration": 965, "velocity": 76}, {"time": 75358, "pitch": 65, "duration": 965, "velocity": 94}, {"time": 75358, "pitch": 69, "duration": 965, "velocity": 94}, {"time": 76323, "pitch": 52, "duration": 958, "velocity": 87}, {"time": 76323, "pitch": 62, "duration": 958, "velocity": 87}, {"time": 76323, "pitch": 65, "duration": 958, "velocity": 90}, {"time": 76323, "pitch": 68, "duration": 958, "velocity": 94}, {"time": 76323, "pitch": 71, "duration": 958, "velocity": 94}, {"time": 77281, "pitch": 57, "duration": 229, "velocity": 83}, {"time": 77281, "pitch": 69, "duration": 229, "velocity": 88}, {"time": 77281, "pitch": 72, "duration": 229, "velocity": 98}, {"time": 77520, "pitch": 56, "duration": 229, "velocity": 88}, {"time": 77520, "pitch": 71, "duration": 229, "velocity": 77}, {"time": 77520, "pitch": 74, "duration": 229, "velocity": 81}, {"time": 77759, "pitch": 55, "duration": 230, "velocity": 78}, {"time": 77759, "pitch": 67, "duration": 230, "velocity": 71}, {"time": 77759, "pitch": 72, "duration": 230, "velocity": 98}, {"time": 77759, "pitch": 76, "duration": 230, "velocity": 84}, {"time": 77999, "pitch": 54, "duration": 1194, "velocity": 92}, {"time": 77999, "pitch": 60, "duration": 708, "velocity": 80}, {"time": 77999, "pitch": 64, "duration": 708, "velocity": 80}, {"time": 77999, "pitch": 66, "duration": 708, "velocity": 91}, {"time": 77999, "pitch": 69, "duration": 708, "velocity": 80}, {"time": 78717, "pitch": 64, "duration": 486, "velocity": 95}, {"time": 78717, "pitch": 66, "duration": 486, "velocity": 95}, {"time": 78717, "pitch": 69, "duration": 486, "velocity": 89}, {"time": 79203, "pitch": 50, "duration": 957, "velocity": 70}, {"time": 79203, "pitch": 60, "duration": 957, "velocity": 91}, {"time": 79203, "pitch": 62, "duration": 957, "velocity": 89}, {"time": 79203, "pitch": 65, "duration": 957, "velocity": 89}, {"time": 79203, "pitch": 69, "duration": 957, "velocity": 89}, {"time": 80160, "pitch": 52, "duration": 958, "velocity": 75}, {"time": 80160, "pitch": 62, "duration": 958, "velocity": 77}, {"time": 80160, "pitch": 64, "duration": 958, "velocity": 88}, {"time": 80160, "pitch": 67, "duration": 958, "velocity": 80}, {"time": 80160, "pitch": 71, "duration": 958, "velocity": 89}, {"time": 81118, "pitch": 45, "duration": 711, "velocity": 60}, {"time": 81118, "pitch": 57, "duration": 711, "velocity": 74}, {"time": 81118, "pitch": 62, "duration": 711, "velocity": 92}, {"time": 81118, "pitch": 64, "duration": 711, "velocity": 84}, {"time": 81118, "pitch": 69, "duration": 711, "velocity": 94}, {"time": 81839, "pitch": 45, "duration": 1191, "velocity": 60}, {"time": 81839, "pitch": 57, "duration": 1191, "velocity": 84}, {"time": 81839, "pitch": 61, "duration": 1191, "velocity": 84}, {"time": 81839, "pitch": 64, "duration": 1191, "velocity": 87}, {"time": 81839, "pitch": 69, "duration": 1191, "velocity": 79}, {"time": 83040, "pitch": 41, "duration": 957, "velocity": 65}, {"time": 83040, "pitch": 57, "duration": 957, "velocity": 74}, {"time": 83040, "pitch": 60, "duration": 957, "velocity": 85}, {"time": 83040, "pitch": 64, "duration": 957, "velocity": 92}, {"time": 83040, "pitch": 67, "duration": 957, "velocity": 90}, {"time": 83997, "pitch": 43, "duration": 965, "velocity": 66}, {"time": 83997, "pitch": 59, "duration": 965, "velocity": 77}, {"time": 83997, "pitch": 62, "duration": 965, "velocity": 86}, {"time": 83997, "pitch": 67, "duration": 965, "velocity": 88}, {"time": 84962, "pitch": 45, "duration": 1436, "velocity": 64}, {"time": 84962, "pitch": 57, "duration": 1436, "velocity": 77}, {"time": 84962, "pitch": 60, "duration": 1436, "velocity": 90}, {"time": 84962, "pitch": 64, "duration": 1436, "velocity": 87}, {"time": 86398, "pitch": 57, "duration": 479, "velocity": 74}, {"time": 86398, "pitch": 60, "duration": 479, "velocity": 83}, {"time": 86398, "pitch": 64, "duration": 479, "velocity": 81}, {"time": 86398, "pitch": 69, "duration": 479, "velocity": 86}, {"time": 86877, "pitch": 41, "duration": 965, "velocity": 68}, {"time": 86877, "pitch": 57, "duration": 965, "velocity": 71}, {"time": 86877, "pitch": 60, "duration": 965, "velocity": 92}, {"time": 86877, "pitch": 64, "duration": 965, "velocity": 77}, {"time": 86877, "pitch": 67, "duration": 965, "velocity": 80}, {"time": 87842, "pitch": 43, "duration": 708, "velocity": 66}, {"time": 87842, "pitch": 59, "duration": 708, "velocity": 77}, {"time": 87842, "pitch": 62, "duration": 708, "velocity": 86}, {"time": 87842, "pitch": 67, "duration": 708, "velocity": 98}, {"time": 88560, "pitch": 45, "duration": 159, "velocity": 75}, {"time": 88560, "pitch": 64, "duration": 159, "velocity": 92}, {"time": 88560, "pitch": 69, "duration": 159, "velocity": 95}, {"time": 88560, "pitch": 72, "duration": 159, "velocity": 102}, {"time": 89038, "pitch": 43, "duration": 160, "velocity": 65}, {"time": 89038, "pitch": 62, "duration": 160, "velocity": 85}, {"time": 89038, "pitch": 67, "duration": 160, "velocity": 91}, {"time": 89038, "pitch": 71, "duration": 160, "velocity": 100}, {"time": 89517, "pitch": 41, "duration": 159, "velocity": 71}, {"time": 89517, "pitch": 60, "duration": 159, "velocity": 85}, {"time": 89517, "pitch": 65, "duration": 159, "velocity": 97}, {"time": 89517, "pitch": 69, "duration": 159, "velocity": 97}, {"time": 89999, "pitch": 43, "duration": 712, "velocity": 74}, {"time": 89999, "pitch": 59, "duration": 712, "velocity": 86}, {"time": 89999, "pitch": 62, "duration": 712, "velocity": 95}, {"time": 89999, "pitch": 67, "duration": 712, "velocity": 91}, {"time": 90721, "pitch": 41, "duration": 957, "velocity": 74}, {"time": 90721, "pitch": 60, "duration": 957, "velocity": 84}, {"time": 90721, "pitch": 64, "duration": 957, "velocity": 85}, {"time": 90721, "pitch": 69, "duration": 957, "velocity": 89}, {"time": 91678, "pitch": 43, "duration": 479, "velocity": 60}, {"time": 91678, "pitch": 59, "duration": 479, "velocity": 77}, {"time": 91678, "pitch": 62, "duration": 479, "velocity": 82}, {"time": 91678, "pitch": 67, "duration": 479, "velocity": 88}, {"time": 92157, "pitch": 59, "duration": 486, "velocity": 78}, {"time": 92157, "pitch": 62, "duration": 486, "velocity": 84}, {"time": 92157, "pitch": 67, "duration": 243, "velocity": 88}, {"time": 92400, "pitch": 65, "duration": 233, "velocity": 88}, {"time": 92643, "pitch": 45, "duration": 1915, "velocity": 60}, {"time": 92643, "pitch": 57, "duration": 1915, "velocity": 97}, {"time": 92643, "pitch": 60, "duration": 1915, "velocity": 88}, {"time": 92643, "pitch": 64, "duration": 1915, "velocity": 94}, {"time": 94558, "pitch": 50, "duration": 965, "velocity": 77}, {"time": 94558, "pitch": 54, "duration": 965, "velocity": 86}, {"time": 94558, "pitch": 57, "duration": 965, "velocity": 83}, {"time": 94558, "pitch": 62, "duration": 965, "velocity": 79}, {"time": 95523, "pitch": 50, "duration": 718, "velocity": 76}, {"time": 95523, "pitch": 53, "duration": 718, "velocity": 82}, {"time": 95523, "pitch": 57, "duration": 718, "velocity": 85}, {"time": 95523, "pitch": 62, "duration": 718, "velocity": 83}, {"time": 96241, "pitch": 52, "duration": 229, "velocity": 75}, {"time": 96241, "pitch": 56, "duration": 229, "velocity": 84}, {"time": 96241, "pitch": 59, "duration": 229, "velocity": 84}, {"time": 96241, "pitch": 64, "duration": 229, "velocity": 90}, {"time": 96720, "pitch": 52, "duration": 199, "velocity": 78}, {"time": 96720, "pitch": 56, "duration": 229, "velocity": 92}, {"time": 96720, "pitch": 62, "duration": 199, "velocity": 93}, {"time": 96720, "pitch": 67, "duration": 219, "velocity": 97}, {"time": 97198, "pitch": 52, "duration": 200, "velocity": 84}, {"time": 97198, "pitch": 56, "duration": 200, "velocity": 89}, {"time": 97198, "pitch": 62, "duration": 200, "velocity": 93}, {"time": 97198, "pitch": 67, "duration": 200, "velocity": 93}, {"time": 98402, "pitch": 45, "duration": 639, "velocity": 69}, {"time": 98402, "pitch": 57, "duration": 659, "velocity": 89}, {"time": 98402, "pitch": 60, "duration": 639, "velocity": 93}, {"time": 98402, "pitch": 64, "duration": 639, "velocity": 89}, {"time": 99120, "pitch": 45, "duration": 1197, "velocity": 66}, {"time": 99120, "pitch": 57, "duration": 1197, "velocity": 78}, {"time": 99120, "pitch": 60, "duration": 1197, "velocity": 82}, {"time": 99120, "pitch": 64, "duration": 1197, "velocity": 86}, {"time": 100317, "pitch": 69, "duration": 1673, "velocity": 84}, {"time": 100348, "pitch": 71, "duration": 1632, "velocity": 76}, {"time": 100378, "pitch": 74, "duration": 1622, "velocity": 83}, {"time": 101043, "pitch": 57, "duration": 1196, "velocity": 89}, {"time": 101043, "pitch": 59, "duration": 1196, "velocity": 66}, {"time": 101043, "pitch": 62, "duration": 1196, "velocity": 87}, {"time": 101043, "pitch": 67, "duration": 1196, "velocity": 86}, {"time": 102239, "pitch": 52, "duration": 958, "velocity": 91}, {"time": 102239, "pitch": 55, "duration": 958, "velocity": 74}, {"time": 102239, "pitch": 59, "duration": 958, "velocity": 89}, {"time": 102239, "pitch": 62, "duration": 958, "velocity": 90}, {"time": 103197, "pitch": 52, "duration": 965, "velocity": 83}, {"time": 103197, "pitch": 55, "duration": 965, "velocity": 69}, {"time": 103197, "pitch": 59, "duration": 965, "velocity": 81}, {"time": 103197, "pitch": 62, "duration": 965, "velocity": 84}, {"time": 104162, "pitch": 57, "duration": 1914, "velocity": 89}, {"time": 104162, "pitch": 60, "duration": 1914, "velocity": 83}, {"time": 104162, "pitch": 64, "duration": 1914, "velocity": 79}, {"time": 105119, "pitch": 71, "duration": 957, "velocity": 93}, {"time": 105119, "pitch": 76, "duration": 120, "velocity": 87}, {"time": 106076, "pitch": 45, "duration": 646, "velocity": 69}, {"time": 106076, "pitch": 57, "duration": 666, "velocity": 89}, {"time": 106076, "pitch": 60, "duration": 646, "velocity": 93}, {"time": 106076, "pitch": 64, "duration": 646, "velocity": 86}, {"time": 106802, "pitch": 45, "duration": 1197, "velocity": 66}, {"time": 106802, "pitch": 57, "duration": 1197, "velocity": 89}, {"time": 106802, "pitch": 60, "duration": 1197, "velocity": 85}, {"time": 106802, "pitch": 64, "duration": 1197, "velocity": 98}, {"time": 107999, "pitch": 69, "duration": 1672, "velocity": 84}, {"time": 108028, "pitch": 71, "duration": 1633, "velocity": 76}, {"time": 108058, "pitch": 74, "duration": 1623, "velocity": 83}, {"time": 109921, "pitch": 52, "duration": 957, "velocity": 91}, {"time": 109921, "pitch": 55, "duration": 957, "velocity": 74}, {"time": 109921, "pitch": 59, "duration": 957, "velocity": 89}, {"time": 109921, "pitch": 62, "duration": 957, "velocity": 90}, {"time": 110878, "pitch": 52, "duration": 965, "velocity": 83}, {"time": 110878, "pitch": 55, "duration": 965, "velocity": 69}, {"time": 110878, "pitch": 59, "duration": 965, "velocity": 81}, {"time": 110878, "pitch": 62, "duration": 965, "velocity": 84}, {"time": 111843, "pitch": 57, "duration": 1915, "velocity": 89}, {"time": 111843, "pitch": 60, "duration": 1915, "velocity": 83}, {"time": 111843, "pitch": 64, "duration": 1915, "velocity": 79}, {"time": 113758, "pitch": 53, "duration": 1922, "velocity": 64}, {"time": 113758, "pitch": 57, "duration": 1922, "velocity": 98}, {"time": 113758, "pitch": 60, "duration": 1922, "velocity": 94}, {"time": 113758, "pitch": 64, "duration": 965, "velocity": 76}, {"time": 113997, "pitch": 76, "duration": 1543, "velocity": 85}, {"time": 114236, "pitch": 72, "duration": 1354, "velocity": 79}, {"time": 114479, "pitch": 69, "duration": 1111, "velocity": 74}, {"time": 114723, "pitch": 64, "duration": 957, "velocity": 71}, {"time": 115680, "pitch": 52, "duration": 1922, "velocity": 46}, {"time": 115680, "pitch": 55, "duration": 1922, "velocity": 94}, {"time": 115680, "pitch": 59, "duration": 1922, "velocity": 42}, {"time": 115680, "pitch": 62, "duration": 1922, "velocity": 52}, {"time": 115919, "pitch": 74, "duration": 1563, "velocity": 94}, {"time": 116159, "pitch": 71, "duration": 1353, "velocity": 89}, {"time": 116398, "pitch": 67, "duration": 1094, "velocity": 80}, {"time": 116637, "pitch": 64, "duration": 965, "velocity": 71}, {"time": 117602, "pitch": 57, "duration": 1915, "velocity": 91}, {"time": 117602, "pitch": 60, "duration": 1915, "velocity": 83}, {"time": 117602, "pitch": 64, "duration": 1915, "velocity": 72}, {"time": 118300, "pitch": 69, "duration": 1197, "velocity": 88}, {"time": 118320, "pitch": 71, "duration": 1197, "velocity": 90}, {"time": 118320, "pitch": 76, "duration": 1197, "velocity": 94}, {"time": 120960, "pitch": 57, "duration": 240, "velocity": 117}, {"time": 121200, "pitch": 60, "duration": 239, "velocity": 117}, {"time": 121439, "pitch": 45, "duration": 379, "velocity": 71}, {"time": 121439, "pitch": 62, "duration": 70, "velocity": 82}, {"time": 121580, "pitch": 62, "duration": 98, "velocity": 110}, {"time": 121678, "pitch": 64, "duration": 141, "velocity": 110}, {"time": 121819, "pitch": 57, "duration": 1064, "velocity": 112}, {"time": 121918, "pitch": 45, "duration": 409, "velocity": 82}, {"time": 122396, "pitch": 45, "duration": 406, "velocity": 74}, {"time": 122883, "pitch": 45, "duration": 518, "velocity": 68}, {"time": 122883, "pitch": 57, "duration": 239, "velocity": 117}, {"time": 123122, "pitch": 60, "duration": 239, "velocity": 117}, {"time": 123361, "pitch": 48, "duration": 409, "velocity": 79}, {"time": 123361, "pitch": 62, "duration": 141, "velocity": 112}, {"time": 123502, "pitch": 62, "duration": 99, "velocity": 110}, {"time": 123601, "pitch": 60, "duration": 140, "velocity": 112}, {"time": 123741, "pitch": 62, "duration": 240, "velocity": 110}, {"time": 123840, "pitch": 48, "duration": 439, "velocity": 74}, {"time": 123981, "pitch": 60, "duration": 98, "velocity": 110}, {"time": 124079, "pitch": 64, "duration": 718, "velocity": 118}, {"time": 124319, "pitch": 48, "duration": 359, "velocity": 74}, {"time": 124797, "pitch": 48, "duration": 345, "velocity": 85}, {"time": 124797, "pitch": 57, "duration": 243, "velocity": 121}, {"time": 125040, "pitch": 60, "duration": 243, "velocity": 110}, {"time": 125283, "pitch": 41, "duration": 349, "velocity": 68}, {"time": 125283, "pitch": 62, "duration": 141, "velocity": 110}, {"time": 125424, "pitch": 62, "duration": 99, "velocity": 110}, {"time": 125523, "pitch": 60, "duration": 140, "velocity": 110}, {"time": 125663, "pitch": 62, "duration": 240, "velocity": 121}, {"time": 125762, "pitch": 41, "duration": 419, "velocity": 69}, {"time": 125903, "pitch": 64, "duration": 98, "velocity": 112}, {"time": 126001, "pitch": 57, "duration": 958, "velocity": 110}, {"time": 126241, "pitch": 41, "duration": 449, "velocity": 68}, {"time": 126719, "pitch": 41, "duration": 369, "velocity": 68}, {"time": 126959, "pitch": 57, "duration": 239, "velocity": 110}, {"time": 127198, "pitch": 40, "duration": 389, "velocity": 35}, {"time": 127198, "pitch": 56, "duration": 380, "velocity": 112}, {"time": 127578, "pitch": 59, "duration": 342, "velocity": 110}, {"time": 127677, "pitch": 40, "duration": 364, "velocity": 56}, {"time": 127920, "pitch": 64, "duration": 243, "velocity": 112}, {"time": 128163, "pitch": 40, "duration": 369, "velocity": 39}, {"time": 128163, "pitch": 62, "duration": 239, "velocity": 110}, {"time": 128402, "pitch": 67, "duration": 479, "velocity": 127}, {"time": 128642, "pitch": 40, "duration": 458, "velocity": 68}, {"time": 128881, "pitch": 64, "duration": 239, "velocity": 112}, {"time": 129120, "pitch": 45, "duration": 290, "velocity": 34}, {"time": 129120, "pitch": 62, "duration": 141, "velocity": 110}, {"time": 129261, "pitch": 62, "duration": 99, "velocity": 110}, {"time": 129360, "pitch": 64, "duration": 140, "velocity": 110}, {"time": 129500, "pitch": 57, "duration": 1056, "velocity": 112}, {"time": 129599, "pitch": 45, "duration": 449, "velocity": 62}, {"time": 130078, "pitch": 45, "duration": 359, "velocity": 62}, {"time": 130556, "pitch": 45, "duration": 487, "velocity": 62}, {"time": 130556, "pitch": 57, "duration": 243, "velocity": 110}, {"time": 130799, "pitch": 60, "duration": 244, "velocity": 110}, {"time": 131043, "pitch": 48, "duration": 379, "velocity": 60}, {"time": 131043, "pitch": 62, "duration": 140, "velocity": 110}, {"time": 131183, "pitch": 62, "duration": 99, "velocity": 112}, {"time": 131282, "pitch": 60, "duration": 141, "velocity": 110}, {"time": 131423, "pitch": 62, "duration": 239, "velocity": 110}, {"time": 131521, "pitch": 48, "duration": 439, "velocity": 56}, {"time": 131662, "pitch": 60, "duration": 99, "velocity": 110}, {"time": 131761, "pitch": 64, "duration": 718, "velocity": 110}, {"time": 132000, "pitch": 48, "duration": 409, "velocity": 62}, {"time": 132479, "pitch": 48, "duration": 418, "velocity": 56}, {"time": 132479, "pitch": 57, "duration": 239, "velocity": 118}, {"time": 132718, "pitch": 60, "duration": 239, "velocity": 110}, {"time": 132957, "pitch": 41, "duration": 385, "velocity": 33}, {"time": 132957, "pitch": 62, "duration": 143, "velocity": 112}, {"time": 133100, "pitch": 62, "duration": 100, "velocity": 110}, {"time": 133200, "pitch": 60, "duration": 143, "velocity": 110}, {"time": 133343, "pitch": 62, "duration": 241, "velocity": 110}, {"time": 133443, "pitch": 41, "duration": 449, "velocity": 62}, {"time": 133584, "pitch": 64, "duration": 99, "velocity": 112}, {"time": 133683, "pitch": 57, "duration": 718, "velocity": 127}, {"time": 133922, "pitch": 41, "duration": 399, "velocity": 56}, {"time": 134401, "pitch": 41, "duration": 389, "velocity": 71}, {"time": 134401, "pitch": 57, "duration": 239, "velocity": 127}, {"time": 134640, "pitch": 60, "duration": 239, "velocity": 112}, {"time": 134879, "pitch": 52, "duration": 200, "velocity": 92}, {"time": 134879, "pitch": 59, "duration": 240, "velocity": 124}, {"time": 135119, "pitch": 52, "duration": 169, "velocity": 94}, {"time": 135119, "pitch": 56, "duration": 179, "velocity": 105}, {"time": 135119, "pitch": 62, "duration": 159, "velocity": 94}, {"time": 135119, "pitch": 67, "duration": 179, "velocity": 95}, {"time": 135597, "pitch": 52, "duration": 170, "velocity": 92}, {"time": 135597, "pitch": 56, "duration": 180, "velocity": 102}, {"time": 135597, "pitch": 62, "duration": 150, "velocity": 100}, {"time": 135597, "pitch": 67, "duration": 150, "velocity": 114}, {"time": 136080, "pitch": 52, "duration": 552, "velocity": 100}, {"time": 136080, "pitch": 56, "duration": 542, "velocity": 107}, {"time": 136080, "pitch": 62, "duration": 522, "velocity": 98}, {"time": 136080, "pitch": 65, "duration": 532, "velocity": 118}, {"time": 136802, "pitch": 45, "duration": 638, "velocity": 69}, {"time": 136802, "pitch": 57, "duration": 658, "velocity": 89}, {"time": 136802, "pitch": 60, "duration": 638, "velocity": 93}, {"time": 136802, "pitch": 64, "duration": 638, "velocity": 89}, {"time": 137520, "pitch": 45, "duration": 1196, "velocity": 66}, {"time": 137520, "pitch": 57, "duration": 1196, "velocity": 78}, {"time": 137520, "pitch": 60, "duration": 1196, "velocity": 82}, {"time": 137520, "pitch": 64, "duration": 1196, "velocity": 86}, {"time": 138716, "pitch": 69, "duration": 1673, "velocity": 84}, {"time": 138747, "pitch": 71, "duration": 1632, "velocity": 76}, {"time": 138777, "pitch": 74, "duration": 1622, "velocity": 83}, {"time": 139442, "pitch": 57, "duration": 1197, "velocity": 89}, {"time": 139442, "pitch": 59, "duration": 1197, "velocity": 66}, {"time": 139442, "pitch": 62, "duration": 1197, "velocity": 87}, {"time": 139442, "pitch": 67, "duration": 1197, "velocity": 86}, {"time": 140639, "pitch": 52, "duration": 964, "velocity": 91}, {"time": 140639, "pitch": 55, "duration": 964, "velocity": 74}, {"time": 140639, "pitch": 59, "duration": 964, "velocity": 89}, {"time": 140639, "pitch": 62, "duration": 964, "velocity": 90}, {"time": 141603, "pitch": 52, "duration": 958, "velocity": 83}, {"time": 141603, "pitch": 55, "duration": 958, "velocity": 69}, {"time": 141603, "pitch": 59, "duration": 958, "velocity": 81}, {"time": 141603, "pitch": 62, "duration": 958, "velocity": 84}, {"time": 142561, "pitch": 57, "duration": 1922, "velocity": 89}, {"time": 142561, "pitch": 60, "duration": 1922, "velocity": 83}, {"time": 142561, "pitch": 64, "duration": 1922, "velocity": 79}, {"time": 143518, "pitch": 71, "duration": 965, "velocity": 93}, {"time": 143518, "pitch": 76, "duration": 120, "velocity": 87}, {"time": 144483, "pitch": 45, "duration": 638, "velocity": 69}, {"time": 144483, "pitch": 57, "duration": 658, "velocity": 89}, {"time": 144483, "pitch": 60, "duration": 638, "velocity": 93}, {"time": 144483, "pitch": 64, "duration": 638, "velocity": 86}, {"time": 145201, "pitch": 45, "duration": 1197, "velocity": 66}, {"time": 145201, "pitch": 57, "duration": 1197, "velocity": 89}, {"time": 145201, "pitch": 60, "duration": 1197, "velocity": 85}, {"time": 145201, "pitch": 64, "duration": 1197, "velocity": 98}, {"time": 146398, "pitch": 69, "duration": 1673, "velocity": 84}, {"time": 146428, "pitch": 71, "duration": 1633, "velocity": 76}, {"time": 146458, "pitch": 74, "duration": 1623, "velocity": 83}, {"time": 148320, "pitch": 52, "duration": 957, "velocity": 91}, {"time": 148320, "pitch": 55, "duration": 957, "velocity": 74}, {"time": 148320, "pitch": 59, "duration": 957, "velocity": 89}, {"time": 148320, "pitch": 62, "duration": 957, "velocity": 90}, {"time": 149277, "pitch": 52, "duration": 965, "velocity": 83}, {"time": 149277, "pitch": 55, "duration": 965, "velocity": 69}, {"time": 149277, "pitch": 59, "duration": 965, "velocity": 81}, {"time": 149277, "pitch": 62, "duration": 965, "velocity": 84}, {"time": 150242, "pitch": 57, "duration": 1915, "velocity": 89}, {"time": 150242, "pitch": 60, "duration": 1915, "velocity": 83}, {"time": 150242, "pitch": 64, "duration": 1915, "velocity": 79}, {"time": 152157, "pitch": 53, "duration": 1922, "velocity": 64}, {"time": 152157, "pitch": 57, "duration": 1922, "velocity": 98}, {"time": 152157, "pitch": 60, "duration": 1922, "velocity": 94}, {"time": 152157, "pitch": 64, "duration": 965, "velocity": 76}, {"time": 152400, "pitch": 76, "duration": 1539, "velocity": 85}, {"time": 152643, "pitch": 72, "duration": 1346, "velocity": 79}, {"time": 152882, "pitch": 69, "duration": 1107, "velocity": 74}, {"time": 153122, "pitch": 64, "duration": 957, "velocity": 71}, {"time": 154079, "pitch": 52, "duration": 1922, "velocity": 46}, {"time": 154079, "pitch": 55, "duration": 1922, "velocity": 94}, {"time": 154079, "pitch": 59, "duration": 1922, "velocity": 42}, {"time": 154079, "pitch": 62, "duration": 1922, "velocity": 52}, {"time": 154318, "pitch": 74, "duration": 1564, "velocity": 94}, {"time": 154558, "pitch": 71, "duration": 1354, "velocity": 89}, {"time": 154797, "pitch": 67, "duration": 1095, "velocity": 80}, {"time": 155036, "pitch": 64, "duration": 965, "velocity": 71}, {"time": 156001, "pitch": 57, "duration": 1923, "velocity": 91}, {"time": 156001, "pitch": 60, "duration": 1923, "velocity": 83}, {"time": 156001, "pitch": 64, "duration": 1923, "velocity": 72}, {"time": 156699, "pitch": 69, "duration": 1204, "velocity": 88}, {"time": 156719, "pitch": 71, "duration": 1205, "velocity": 90}, {"time": 156719, "pitch": 76, "duration": 1205, "velocity": 94}, {"time": 157924, "pitch": 57, "duration": 1914, "velocity": 89}, {"time": 157924, "pitch": 60, "duration": 1914, "velocity": 86}, {"time": 157924, "pitch": 64, "duration": 1914, "velocity": 90}, {"time": 157924, "pitch": 71, "duration": 1914, "velocity": 93}, {"time": 159838, "pitch": 57, "duration": 1922, "velocity": 89}, {"time": 159838, "pitch": 60, "duration": 1922, "velocity": 89}, {"time": 159838, "pitch": 62, "duration": 1922, "velocity": 90}, {"time": 159838, "pitch": 65, "duration": 1922, "velocity": 86}, {"time": 159838, "pitch": 69, "duration": 1922, "velocity": 93}, {"time": 161760, "pitch": 57, "duration": 1923, "velocity": 89}, {"time": 161760, "pitch": 60, "duration": 1923, "velocity": 86}, {"time": 161760, "pitch": 64, "duration": 1923, "velocity": 90}, {"time": 161760, "pitch": 71, "duration": 1923, "velocity": 93}, {"time": 163683, "pitch": 57, "duration": 1914, "velocity": 89}, {"time": 163683, "pitch": 60, "duration": 1914, "velocity": 89}, {"time": 163683, "pitch": 62, "duration": 1914, "velocity": 90}, {"time": 163683, "pitch": 65, "duration": 1914, "velocity": 86}, {"time": 163683, "pitch": 69, "duration": 1914, "velocity": 93}, {"time": 165597, "pitch": 57, "duration": 1923, "velocity": 89}, {"time": 165597, "pitch": 60, "duration": 1923, "velocity": 86}, {"time": 165597, "pitch": 64, "duration": 1923, "velocity": 90}, {"time": 165597, "pitch": 71, "duration": 1923, "velocity": 93}, {"time": 167520, "pitch": 57, "duration": 1922, "velocity": 89}, {"time": 167520, "pitch": 60, "duration": 1922, "velocity": 89}, {"time": 167520, "pitch": 62, "duration": 1922, "velocity": 90}, {"time": 167520, "pitch": 65, "duration": 1922, "velocity": 86}, {"time": 167520, "pitch": 69, "duration": 1922, "velocity": 93}, {"time": 169442, "pitch": 57, "duration": 1914, "velocity": 89}, {"time": 169442, "pitch": 60, "duration": 1914, "velocity": 86}, {"time": 169442, "pitch": 64, "duration": 1914, "velocity": 90}, {"time": 169442, "pitch": 71, "duration": 1914, "velocity": 93}, {"time": 171356, "pitch": 57, "duration": 1923, "velocity": 89}, {"time": 171356, "pitch": 60, "duration": 1923, "velocity": 89}, {"time": 171356, "pitch": 62, "duration": 1923, "velocity": 90}, {"time": 171356, "pitch": 65, "duration": 1923, "velocity": 86}, {"time": 171356, "pitch": 69, "duration": 1923, "velocity": 93}, {"time": 173279, "pitch": 57, "duration": 1922, "velocity": 89}, {"time": 173279, "pitch": 60, "duration": 1922, "velocity": 86}, {"time": 173279, "pitch": 64, "duration": 1922, "velocity": 90}, {"time": 173279, "pitch": 71, "duration": 1922, "velocity": 93}, {"time": 175201, "pitch": 57, "duration": 1922, "velocity": 89}, {"time": 175201, "pitch": 60, "duration": 1922, "velocity": 89}, {"time": 175201, "pitch": 62, "duration": 1922, "velocity": 90}, {"time": 175201, "pitch": 65, "duration": 1922, "velocity": 86}, {"time": 175201, "pitch": 69, "duration": 1922, "velocity": 93}, {"time": 177123, "pitch": 57, "duration": 1915, "velocity": 89}, {"time": 177123, "pitch": 60, "duration": 1915, "velocity": 86}, {"time": 177123, "pitch": 64, "duration": 1915, "velocity": 90}, {"time": 177123, "pitch": 71, "duration": 1915, "velocity": 93}, {"time": 179038, "pitch": 57, "duration": 1915, "velocity": 89}, {"time": 179038, "pitch": 60, "duration": 1915, "velocity": 89}, {"time": 179038, "pitch": 62, "duration": 1915, "velocity": 90}, {"time": 179038, "pitch": 65, "duration": 1915, "velocity": 86}, {"time": 179038, "pitch": 69, "duration": 1915, "velocity": 93}, {"time": 8164, "pitch": 81, "duration": 229, "velocity": 90}, {"time": 8403, "pitch": 79, "duration": 229, "velocity": 90}, {"time": 8642, "pitch": 79, "duration": 230, "velocity": 90}, {"time": 8882, "pitch": 76, "duration": 149, "velocity": 85}, {"time": 9041, "pitch": 79, "duration": 549, "velocity": 90}, {"time": 9839, "pitch": 79, "duration": 229, "velocity": 90}, {"time": 10078, "pitch": 83, "duration": 230, "velocity": 90}, {"time": 10318, "pitch": 84, "duration": 229, "velocity": 95}, {"time": 10557, "pitch": 83, "duration": 233, "velocity": 90}, {"time": 10800, "pitch": 79, "duration": 152, "velocity": 90}, {"time": 10962, "pitch": 81, "duration": 550, "velocity": 90}, {"time": 12000, "pitch": 81, "duration": 230, "velocity": 90}, {"time": 12240, "pitch": 79, "duration": 229, "velocity": 90}, {"time": 12479, "pitch": 79, "duration": 150, "velocity": 90}, {"time": 12639, "pitch": 76, "duration": 229, "velocity": 85}, {"time": 12878, "pitch": 79, "duration": 549, "velocity": 90}, {"time": 13437, "pitch": 76, "duration": 232, "velocity": 85}, {"time": 13680, "pitch": 77, "duration": 233, "velocity": 90}, {"time": 13923, "pitch": 83, "duration": 468, "velocity": 90}, {"time": 14401, "pitch": 84, "duration": 230, "velocity": 95}, {"time": 14641, "pitch": 86, "duration": 468, "velocity": 90}, {"time": 15119, "pitch": 83, "duration": 708, "velocity": 90}, {"time": 15837, "pitch": 84, "duration": 233, "velocity": 95}, {"time": 16324, "pitch": 83, "duration": 229, "velocity": 90}, {"time": 16802, "pitch": 81, "duration": 230, "velocity": 90}, {"time": 17281, "pitch": 80, "duration": 229, "velocity": 90}, {"time": 17760, "pitch": 81, "duration": 468, "velocity": 90}, {"time": 18238, "pitch": 76, "duration": 150, "velocity": 85}, {"time": 18398, "pitch": 74, "duration": 229, "velocity": 90}, {"time": 18637, "pitch": 74, "duration": 556, "velocity": 90}, {"time": 19442, "pitch": 72, "duration": 230, "velocity": 80}, {"time": 19682, "pitch": 74, "duration": 229, "velocity": 90}, {"time": 19921, "pitch": 72, "duration": 230, "velocity": 80}, {"time": 20160, "pitch": 74, "duration": 230, "velocity": 90}, {"time": 20400, "pitch": 72, "duration": 229, "velocity": 80}, {"time": 20639, "pitch": 74, "duration": 708, "velocity": 90}, {"time": 21357, "pitch": 72, "duration": 230, "velocity": 80}, {"time": 21597, "pitch": 71, "duration": 715, "velocity": 90}, {"time": 22322, "pitch": 69, "duration": 150, "velocity": 90}, {"time": 22482, "pitch": 67, "duration": 69, "velocity": 90}, {"time": 22561, "pitch": 69, "duration": 469, "velocity": 90}, {"time": 23519, "pitch": 79, "duration": 1433, "velocity": 90}, {"time": 24962, "pitch": 81, "duration": 469, "velocity": 90}, {"time": 25441, "pitch": 76, "duration": 229, "velocity": 85}, {"time": 25680, "pitch": 74, "duration": 150, "velocity": 90}, {"time": 25840, "pitch": 76, "duration": 229, "velocity": 85}, {"time": 26079, "pitch": 74, "duration": 70, "velocity": 90}, {"time": 26159, "pitch": 76, "duration": 951, "velocity": 85}, {"time": 27363, "pitch": 79, "duration": 948, "velocity": 90}, {"time": 28321, "pitch": 81, "duration": 229, "velocity": 90}, {"time": 28560, "pitch": 83, "duration": 469, "velocity": 90}, {"time": 29039, "pitch": 84, "duration": 468, "velocity": 95}, {"time": 29517, "pitch": 83, "duration": 473, "velocity": 90}, {"time": 30000, "pitch": 81, "duration": 472, "velocity": 90}, {"time": 30482, "pitch": 79, "duration": 469, "velocity": 90}, {"time": 31200, "pitch": 79, "duration": 1434, "velocity": 90}, {"time": 32644, "pitch": 81, "duration": 468, "velocity": 90}, {"time": 33122, "pitch": 76, "duration": 150, "velocity": 85}, {"time": 33282, "pitch": 74, "duration": 149, "velocity": 90}, {"time": 33441, "pitch": 76, "duration": 230, "velocity": 85}, {"time": 33681, "pitch": 74, "duration": 149, "velocity": 90}, {"time": 33840, "pitch": 76, "duration": 469, "velocity": 85}, {"time": 34558, "pitch": 69, "duration": 230, "velocity": 90}, {"time": 34798, "pitch": 72, "duration": 229, "velocity": 80}, {"time": 35037, "pitch": 76, "duration": 233, "velocity": 85}, {"time": 35280, "pitch": 74, "duration": 152, "velocity": 90}, {"time": 35442, "pitch": 74, "duration": 231, "velocity": 90}, {"time": 35683, "pitch": 72, "duration": 70, "velocity": 80}, {"time": 35763, "pitch": 76, "duration": 468, "velocity": 85}, {"time": 36241, "pitch": 74, "duration": 230, "velocity": 90}, {"time": 36481, "pitch": 72, "duration": 229, "velocity": 80}, {"time": 36720, "pitch": 76, "duration": 469, "velocity": 85}, {"time": 37199, "pitch": 79, "duration": 468, "velocity": 90}, {"time": 37677, "pitch": 81, "duration": 473, "velocity": 90}, {"time": 38160, "pitch": 81, "duration": 233, "velocity": 90}, {"time": 38403, "pitch": 81, "duration": 468, "velocity": 90}, {"time": 38881, "pitch": 84, "duration": 230, "velocity": 95}, {"time": 39121, "pitch": 81, "duration": 229, "velocity": 90}, {"time": 39360, "pitch": 83, "duration": 229, "velocity": 90}, {"time": 39599, "pitch": 84, "duration": 469, "velocity": 95}, {"time": 40078, "pitch": 81, "duration": 229, "velocity": 90}, {"time": 40317, "pitch": 83, "duration": 233, "velocity": 90}, {"time": 40561, "pitch": 84, "duration": 233, "velocity": 95}, {"time": 40804, "pitch": 84, "duration": 229, "velocity": 95}, {"time": 41043, "pitch": 83, "duration": 469, "velocity": 90}, {"time": 41522, "pitch": 79, "duration": 468, "velocity": 90}, {"time": 42000, "pitch": 76, "duration": 469, "velocity": 85}, {"time": 42718, "pitch": 83, "duration": 230, "velocity": 90}, {"time": 42958, "pitch": 79, "duration": 229, "velocity": 90}, {"time": 43197, "pitch": 81, "duration": 233, "velocity": 90}, {"time": 43440, "pitch": 83, "duration": 473, "velocity": 90}, {"time": 43923, "pitch": 79, "duration": 229, "velocity": 90}, {"time": 44162, "pitch": 81, "duration": 229, "velocity": 90}, {"time": 44401, "pitch": 83, "duration": 230, "velocity": 90}, {"time": 44641, "pitch": 84, "duration": 229, "velocity": 95}, {"time": 44880, "pitch": 83, "duration": 469, "velocity": 90}, {"time": 45359, "pitch": 81, "duration": 149, "velocity": 90}, {"time": 45518, "pitch": 79, "duration": 70, "velocity": 90}, {"time": 45598, "pitch": 81, "duration": 469, "velocity": 90}, {"time": 46563, "pitch": 84, "duration": 229, "velocity": 95}, {"time": 46802, "pitch": 81, "duration": 229, "velocity": 90}, {"time": 47041, "pitch": 83, "duration": 230, "velocity": 90}, {"time": 47281, "pitch": 84, "duration": 468, "velocity": 95}, {"time": 47759, "pitch": 81, "duration": 230, "velocity": 90}, {"time": 47999, "pitch": 83, "duration": 229, "velocity": 90}, {"time": 48238, "pitch": 84, "duration": 230, "velocity": 95}, {"time": 48477, "pitch": 84, "duration": 233, "velocity": 95}, {"time": 48721, "pitch": 83, "duration": 472, "velocity": 90}, {"time": 49203, "pitch": 79, "duration": 469, "velocity": 90}, {"time": 49682, "pitch": 76, "duration": 468, "velocity": 85}, {"time": 50400, "pitch": 83, "duration": 229, "velocity": 90}, {"time": 50639, "pitch": 79, "duration": 229, "velocity": 90}, {"time": 50878, "pitch": 81, "duration": 230, "velocity": 90}, {"time": 51118, "pitch": 83, "duration": 472, "velocity": 90}, {"time": 51600, "pitch": 84, "duration": 233, "velocity": 95}, {"time": 51843, "pitch": 83, "duration": 230, "velocity": 90}, {"time": 52083, "pitch": 81, "duration": 149, "velocity": 90}, {"time": 52242, "pitch": 83, "duration": 70, "velocity": 90}, {"time": 52322, "pitch": 81, "duration": 1426, "velocity": 90}, {"time": 54237, "pitch": 81, "duration": 1433, "velocity": 90}, {"time": 55919, "pitch": 79, "duration": 150, "velocity": 90}, {"time": 56079, "pitch": 77, "duration": 549, "velocity": 85}, {"time": 56638, "pitch": 79, "duration": 954, "velocity": 90}, {"time": 57602, "pitch": 76, "duration": 230, "velocity": 85}, {"time": 57842, "pitch": 81, "duration": 1665, "velocity": 90}, {"time": 67597, "pitch": 69, "duration": 70, "velocity": 60}, {"time": 67677, "pitch": 81, "duration": 233, "velocity": 90}, {"time": 67920, "pitch": 79, "duration": 233, "velocity": 90}, {"time": 68163, "pitch": 79, "duration": 230, "velocity": 90}, {"time": 68403, "pitch": 76, "duration": 149, "velocity": 85}, {"time": 68562, "pitch": 79, "duration": 309, "velocity": 90}, {"time": 68881, "pitch": 81, "duration": 230, "velocity": 90}, {"time": 69360, "pitch": 79, "duration": 229, "velocity": 90}, {"time": 69599, "pitch": 83, "duration": 230, "velocity": 90}, {"time": 69839, "pitch": 84, "duration": 229, "velocity": 95}, {"time": 70078, "pitch": 83, "duration": 229, "velocity": 90}, {"time": 70317, "pitch": 79, "duration": 473, "velocity": 90}, {"time": 70800, "pitch": 81, "duration": 233, "velocity": 90}, {"time": 71442, "pitch": 69, "duration": 70, "velocity": 60}, {"time": 71522, "pitch": 81, "duration": 229, "velocity": 90}, {"time": 71761, "pitch": 79, "duration": 229, "velocity": 90}, {"time": 72000, "pitch": 79, "duration": 230, "velocity": 90}, {"time": 72240, "pitch": 76, "duration": 149, "velocity": 85}, {"time": 72399, "pitch": 79, "duration": 309, "velocity": 90}, {"time": 72718, "pitch": 81, "duration": 230, "velocity": 90}, {"time": 73444, "pitch": 83, "duration": 229, "velocity": 90}, {"time": 73683, "pitch": 84, "duration": 229, "velocity": 90}, {"time": 73922, "pitch": 84, "duration": 230, "velocity": 95}, {"time": 74162, "pitch": 86, "duration": 468, "velocity": 90}, {"time": 74640, "pitch": 83, "duration": 469, "velocity": 90}, {"time": 75358, "pitch": 84, "duration": 230, "velocity": 95}, {"time": 75837, "pitch": 83, "duration": 233, "velocity": 90}, {"time": 76323, "pitch": 81, "duration": 230, "velocity": 90}, {"time": 76802, "pitch": 80, "duration": 229, "velocity": 90}, {"time": 77281, "pitch": 81, "duration": 468, "velocity": 90}, {"time": 77759, "pitch": 76, "duration": 150, "velocity": 85}, {"time": 77919, "pitch": 74, "duration": 229, "velocity": 90}, {"time": 78158, "pitch": 74, "duration": 549, "velocity": 90}, {"time": 79203, "pitch": 74, "duration": 708, "velocity": 90}, {"time": 79921, "pitch": 72, "duration": 229, "velocity": 80}, {"time": 80160, "pitch": 74, "duration": 708, "velocity": 90}, {"time": 80878, "pitch": 72, "duration": 230, "velocity": 80}, {"time": 81118, "pitch": 71, "duration": 711, "velocity": 90}, {"time": 81839, "pitch": 69, "duration": 152, "velocity": 90}, {"time": 82001, "pitch": 67, "duration": 71, "velocity": 90}, {"time": 82082, "pitch": 69, "duration": 469, "velocity": 90}, {"time": 83040, "pitch": 79, "duration": 1433, "velocity": 90}, {"time": 84483, "pitch": 81, "duration": 469, "velocity": 90}, {"time": 84962, "pitch": 76, "duration": 229, "velocity": 85}, {"time": 85201, "pitch": 74, "duration": 150, "velocity": 90}, {"time": 85361, "pitch": 76, "duration": 229, "velocity": 85}, {"time": 85600, "pitch": 74, "duration": 70, "velocity": 90}, {"time": 85680, "pitch": 76, "duration": 947, "velocity": 85}, {"time": 86877, "pitch": 79, "duration": 955, "velocity": 90}, {"time": 87842, "pitch": 81, "duration": 229, "velocity": 90}, {"time": 88081, "pitch": 83, "duration": 469, "velocity": 90}, {"time": 88560, "pitch": 84, "duration": 468, "velocity": 95}, {"time": 89038, "pitch": 83, "duration": 469, "velocity": 90}, {"time": 89517, "pitch": 81, "duration": 472, "velocity": 90}, {"time": 89999, "pitch": 79, "duration": 473, "velocity": 90}, {"time": 90721, "pitch": 79, "duration": 1426, "velocity": 90}, {"time": 92157, "pitch": 81, "duration": 476, "velocity": 90}, {"time": 92643, "pitch": 76, "duration": 150, "velocity": 85}, {"time": 92803, "pitch": 74, "duration": 149, "velocity": 90}, {"time": 92962, "pitch": 76, "duration": 230, "velocity": 85}, {"time": 93202, "pitch": 74, "duration": 149, "velocity": 90}, {"time": 93361, "pitch": 76, "duration": 469, "velocity": 85}, {"time": 94079, "pitch": 69, "duration": 230, "velocity": 90}, {"time": 94319, "pitch": 72, "duration": 229, "velocity": 80}, {"time": 94558, "pitch": 76, "duration": 229, "velocity": 85}, {"time": 94797, "pitch": 74, "duration": 150, "velocity": 90}, {"time": 94957, "pitch": 74, "duration": 232, "velocity": 90}, {"time": 95199, "pitch": 72, "duration": 71, "velocity": 80}, {"time": 95280, "pitch": 76, "duration": 472, "velocity": 85}, {"time": 95762, "pitch": 74, "duration": 230, "velocity": 90}, {"time": 96002, "pitch": 72, "duration": 229, "velocity": 80}, {"time": 96241, "pitch": 76, "duration": 469, "velocity": 85}, {"time": 96720, "pitch": 79, "duration": 468, "velocity": 90}, {"time": 97198, "pitch": 81, "duration": 469, "velocity": 90}, {"time": 97677, "pitch": 81, "duration": 229, "velocity": 90}, {"time": 97916, "pitch": 81, "duration": 476, "velocity": 90}, {"time": 98402, "pitch": 84, "duration": 230, "velocity": 95}, {"time": 98642, "pitch": 81, "duration": 229, "velocity": 90}, {"time": 98881, "pitch": 83, "duration": 230, "velocity": 90}, {"time": 99120, "pitch": 84, "duration": 469, "velocity": 95}, {"time": 99599, "pitch": 81, "duration": 230, "velocity": 90}, {"time": 99839, "pitch": 83, "duration": 229, "velocity": 90}, {"time": 100078, "pitch": 84, "duration": 229, "velocity": 95}, {"time": 100317, "pitch": 84, "duration": 233, "velocity": 95}, {"time": 100560, "pitch": 83, "duration": 473, "velocity": 90}, {"time": 101043, "pitch": 79, "duration": 468, "velocity": 90}, {"time": 101521, "pitch": 76, "duration": 469, "velocity": 85}, {"time": 102239, "pitch": 83, "duration": 230, "velocity": 90}, {"time": 102479, "pitch": 79, "duration": 229, "velocity": 90}, {"time": 102718, "pitch": 81, "duration": 229, "velocity": 90}, {"time": 102957, "pitch": 83, "duration": 473, "velocity": 90}, {"time": 103440, "pitch": 79, "duration": 233, "velocity": 90}, {"time": 103683, "pitch": 81, "duration": 229, "velocity": 90}, {"time": 103922, "pitch": 83, "duration": 230, "velocity": 90}, {"time": 104162, "pitch": 84, "duration": 229, "velocity": 95}, {"time": 104401, "pitch": 83, "duration": 469, "velocity": 90}, {"time": 104880, "pitch": 81, "duration": 149, "velocity": 90}, {"time": 105039, "pitch": 79, "duration": 70, "velocity": 90}, {"time": 105119, "pitch": 81, "duration": 469, "velocity": 90}, {"time": 106076, "pitch": 84, "duration": 233, "velocity": 95}, {"time": 106319, "pitch": 81, "duration": 233, "velocity": 90}, {"time": 106562, "pitch": 83, "duration": 230, "velocity": 90}, {"time": 106802, "pitch": 84, "duration": 469, "velocity": 95}, {"time": 107281, "pitch": 81, "duration": 229, "velocity": 90}, {"time": 107520, "pitch": 83, "duration": 229, "velocity": 90}, {"time": 107759, "pitch": 84, "duration": 230, "velocity": 95}, {"time": 107999, "pitch": 84, "duration": 229, "velocity": 95}, {"time": 108238, "pitch": 83, "duration": 472, "velocity": 90}, {"time": 108720, "pitch": 79, "duration": 473, "velocity": 90}, {"time": 109203, "pitch": 76, "duration": 708, "velocity": 85}, {"time": 109921, "pitch": 83, "duration": 229, "velocity": 90}, {"time": 110160, "pitch": 79, "duration": 229, "velocity": 90}, {"time": 110399, "pitch": 81, "duration": 230, "velocity": 90}, {"time": 110639, "pitch": 83, "duration": 468, "velocity": 90}, {"time": 111117, "pitch": 84, "duration": 230, "velocity": 95}, {"time": 111357, "pitch": 83, "duration": 233, "velocity": 90}, {"time": 111600, "pitch": 81, "duration": 152, "velocity": 90}, {"time": 111762, "pitch": 83, "duration": 71, "velocity": 90}, {"time": 111843, "pitch": 81, "duration": 1426, "velocity": 90}, {"time": 113758, "pitch": 81, "duration": 1433, "velocity": 90}, {"time": 115201, "pitch": 79, "duration": 150, "velocity": 90}, {"time": 115361, "pitch": 77, "duration": 229, "velocity": 90}, {"time": 115600, "pitch": 76, "duration": 309, "velocity": 90}, {"time": 115919, "pitch": 79, "duration": 951, "velocity": 85}, {"time": 117123, "pitch": 76, "duration": 230, "velocity": 85}, {"time": 117363, "pitch": 81, "duration": 1665, "velocity": 90}, {"time": 136802, "pitch": 84, "duration": 229, "velocity": 95}, {"time": 137041, "pitch": 81, "duration": 229, "velocity": 90}, {"time": 137280, "pitch": 83, "duration": 230, "velocity": 90}, {"time": 137520, "pitch": 84, "duration": 468, "velocity": 95}, {"time": 137998, "pitch": 81, "duration": 230, "velocity": 90}, {"time": 138238, "pitch": 83, "duration": 229, "velocity": 90}, {"time": 138477, "pitch": 84, "duration": 229, "velocity": 95}, {"time": 138716, "pitch": 84, "duration": 233, "velocity": 95}, {"time": 138959, "pitch": 83, "duration": 473, "velocity": 90}, {"time": 139442, "pitch": 79, "duration": 469, "velocity": 90}, {"time": 139921, "pitch": 76, "duration": 468, "velocity": 85}, {"time": 140639, "pitch": 83, "duration": 229, "velocity": 90}, {"time": 140878, "pitch": 79, "duration": 229, "velocity": 90}, {"time": 141117, "pitch": 81, "duration": 233, "velocity": 90}, {"time": 141360, "pitch": 83, "duration": 473, "velocity": 90}, {"time": 141843, "pitch": 79, "duration": 229, "velocity": 90}, {"time": 142082, "pitch": 81, "duration": 230, "velocity": 90}, {"time": 142321, "pitch": 83, "duration": 230, "velocity": 90}, {"time": 142561, "pitch": 84, "duration": 229, "velocity": 95}, {"time": 142800, "pitch": 83, "duration": 469, "velocity": 90}, {"time": 143279, "pitch": 81, "duration": 149, "velocity": 90}, {"time": 143438, "pitch": 79, "duration": 70, "velocity": 90}, {"time": 143518, "pitch": 81, "duration": 469, "velocity": 90}, {"time": 144483, "pitch": 84, "duration": 229, "velocity": 95}, {"time": 144722, "pitch": 81, "duration": 230, "velocity": 90}, {"time": 144962, "pitch": 83, "duration": 229, "velocity": 90}, {"time": 145201, "pitch": 84, "duration": 469, "velocity": 95}, {"time": 145680, "pitch": 81, "duration": 229, "velocity": 90}, {"time": 145919, "pitch": 83, "duration": 229, "velocity": 90}, {"time": 146158, "pitch": 84, "duration": 230, "velocity": 95}, {"time": 146398, "pitch": 84, "duration": 229, "velocity": 95}, {"time": 146637, "pitch": 83, "duration": 472, "velocity": 90}, {"time": 147120, "pitch": 79, "duration": 472, "velocity": 90}, {"time": 147602, "pitch": 76, "duration": 469, "velocity": 85}, {"time": 148320, "pitch": 83, "duration": 229, "velocity": 90}, {"time": 148559, "pitch": 79, "duration": 230, "velocity": 90}, {"time": 148799, "pitch": 81, "duration": 229, "velocity": 90}, {"time": 149038, "pitch": 83, "duration": 472, "velocity": 90}, {"time": 149520, "pitch": 84, "duration": 233, "velocity": 95}, {"time": 149763, "pitch": 83, "duration": 230, "velocity": 90}, {"time": 150003, "pitch": 81, "duration": 149, "velocity": 90}, {"time": 150162, "pitch": 83, "duration": 70, "velocity": 90}, {"time": 150242, "pitch": 81, "duration": 1426, "velocity": 90}, {"time": 151678, "pitch": 81, "duration": 469, "velocity": 90}, {"time": 152157, "pitch": 81, "duration": 1433, "velocity": 90}, {"time": 153600, "pitch": 79, "duration": 150, "velocity": 90}, {"time": 153760, "pitch": 77, "duration": 229, "velocity": 90}, {"time": 153999, "pitch": 76, "duration": 309, "velocity": 90}, {"time": 154318, "pitch": 79, "duration": 469, "velocity": 85}, {"time": 155523, "pitch": 76, "duration": 229, "velocity": 85}, {"time": 155762, "pitch": 83, "duration": 947, "velocity": 90}, {"time": 156640, "pitch": 84, "duration": 149, "velocity": 90}, {"time": 156799, "pitch": 86, "duration": 150, "velocity": 90}, {"time": 156959, "pitch": 84, "duration": 149, "velocity": 90}, {"time": 157118, "pitch": 83, "duration": 150, "velocity": 90}, {"time": 157278, "pitch": 81, "duration": 1832, "velocity": 90}, {"time": 159120, "pitch": 81, "duration": 230, "velocity": 85}, {"time": 159360, "pitch": 79, "duration": 229, "velocity": 85}, {"time": 159599, "pitch": 76, "duration": 229, "velocity": 85}, {"time": 159838, "pitch": 74, "duration": 230, "velocity": 85}, {"time": 160078, "pitch": 72, "duration": 715, "velocity": 85}, {"time": 161042, "pitch": 72, "duration": 230, "velocity": 85}, {"time": 161282, "pitch": 74, "duration": 149, "velocity": 85}, {"time": 161441, "pitch": 76, "duration": 230, "velocity": 85}, {"time": 161681, "pitch": 81, "duration": 389, "velocity": 85}, {"time": 162000, "pitch": 79, "duration": 708, "velocity": 85}, {"time": 163196, "pitch": 76, "duration": 233, "velocity": 85}, {"time": 163440, "pitch": 74, "duration": 711, "velocity": 85}, {"time": 164161, "pitch": 76, "duration": 230, "velocity": 85}, {"time": 164401, "pitch": 72, "duration": 708, "velocity": 85}, {"time": 165840, "pitch": 69, "duration": 233, "velocity": 85}, {"time": 166084, "pitch": 72, "duration": 229, "velocity": 85}, {"time": 166323, "pitch": 72, "duration": 708, "velocity": 85}, {"time": 167041, "pitch": 74, "duration": 229, "velocity": 85}, {"time": 167280, "pitch": 76, "duration": 708, "velocity": 85}, {"time": 167998, "pitch": 79, "duration": 150, "velocity": 85}, {"time": 168158, "pitch": 76, "duration": 149, "velocity": 85}, {"time": 168317, "pitch": 81, "duration": 636, "velocity": 85}, {"time": 168963, "pitch": 84, "duration": 229, "velocity": 85}, {"time": 169202, "pitch": 83, "duration": 708, "velocity": 85}, {"time": 169920, "pitch": 84, "duration": 230, "velocity": 85}, {"time": 170160, "pitch": 81, "duration": 229, "velocity": 85}, {"time": 170399, "pitch": 81, "duration": 469, "velocity": 85}, {"time": 170878, "pitch": 76, "duration": 149, "velocity": 85}, {"time": 171037, "pitch": 74, "duration": 150, "velocity": 85}, {"time": 171197, "pitch": 72, "duration": 636, "velocity": 85}, {"time": 171843, "pitch": 76, "duration": 149, "velocity": 85}, {"time": 172002, "pitch": 74, "duration": 150, "velocity": 85}, {"time": 172162, "pitch": 72, "duration": 628, "velocity": 85}, {"time": 40078, "pitch": 57, "duration": 120, "velocity": 90}, {"time": 40198, "pitch": 60, "duration": 119, "velocity": 100}, {"time": 40317, "pitch": 62, "duration": 122, "velocity": 110}, {"time": 40439, "pitch": 64, "duration": 122, "velocity": 110}, {"time": 40561, "pitch": 65, "duration": 121, "velocity": 110}, {"time": 40682, "pitch": 64, "duration": 123, "velocity": 110}, {"time": 40804, "pitch": 62, "duration": 1915, "velocity": 100}, {"time": 42958, "pitch": 57, "duration": 119, "velocity": 90}, {"time": 43077, "pitch": 59, "duration": 120, "velocity": 100}, {"time": 43197, "pitch": 60, "duration": 162, "velocity": 110}, {"time": 43359, "pitch": 62, "duration": 162, "velocity": 110}, {"time": 43521, "pitch": 64, "duration": 162, "velocity": 110}, {"time": 43683, "pitch": 65, "duration": 160, "velocity": 120}, {"time": 43843, "pitch": 64, "duration": 159, "velocity": 110}, {"time": 44002, "pitch": 62, "duration": 160, "velocity": 110}, {"time": 44162, "pitch": 60, "duration": 159, "velocity": 110}, {"time": 44321, "pitch": 62, "duration": 160, "velocity": 100}, {"time": 44481, "pitch": 60, "duration": 160, "velocity": 100}, {"time": 44641, "pitch": 59, "duration": 718, "velocity": 110}, {"time": 45359, "pitch": 60, "duration": 119, "velocity": 120}, {"time": 45478, "pitch": 59, "duration": 120, "velocity": 120}, {"time": 45598, "pitch": 57, "duration": 966, "velocity": 100}, {"time": 47759, "pitch": 69, "duration": 80, "velocity": 90}, {"time": 47839, "pitch": 69, "duration": 80, "velocity": 100}, {"time": 47919, "pitch": 69, "duration": 80, "velocity": 110}, {"time": 47999, "pitch": 71, "duration": 239, "velocity": 110}, {"time": 48238, "pitch": 72, "duration": 239, "velocity": 100}, {"time": 48477, "pitch": 71, "duration": 244, "velocity": 90}, {"time": 48721, "pitch": 69, "duration": 721, "velocity": 90}, {"time": 51519, "pitch": 57, "duration": 162, "velocity": 80}, {"time": 51681, "pitch": 59, "duration": 162, "velocity": 90}, {"time": 51843, "pitch": 60, "duration": 160, "velocity": 110}, {"time": 52003, "pitch": 62, "duration": 159, "velocity": 100}, {"time": 52162, "pitch": 60, "duration": 160, "velocity": 100}, {"time": 52322, "pitch": 59, "duration": 159, "velocity": 100}, {"time": 52481, "pitch": 60, "duration": 160, "velocity": 80}, {"time": 52641, "pitch": 57, "duration": 1117, "velocity": 80}, {"time": 55361, "pitch": 48, "duration": 160, "velocity": 80}, {"time": 55521, "pitch": 50, "duration": 159, "velocity": 90}, {"time": 55680, "pitch": 52, "duration": 160, "velocity": 100}, {"time": 55840, "pitch": 55, "duration": 159, "velocity": 110}, {"time": 55999, "pitch": 57, "duration": 161, "velocity": 105}, {"time": 56159, "pitch": 55, "duration": 965, "velocity": 70}, {"time": 57363, "pitch": 59, "duration": 80, "velocity": 90}, {"time": 57443, "pitch": 60, "duration": 80, "velocity": 100}, {"time": 57523, "pitch": 59, "duration": 79, "velocity": 100}, {"time": 57602, "pitch": 57, "duration": 80, "velocity": 80}, {"time": 57682, "pitch": 59, "duration": 80, "velocity": 90}, {"time": 57762, "pitch": 57, "duration": 80, "velocity": 90}, {"time": 57842, "pitch": 55, "duration": 239, "velocity": 70}, {"time": 58081, "pitch": 57, "duration": 120, "velocity": 90}, {"time": 58201, "pitch": 59, "duration": 119, "velocity": 100}, {"time": 58320, "pitch": 60, "duration": 120, "velocity": 90}, {"time": 58440, "pitch": 62, "duration": 120, "velocity": 100}, {"time": 58560, "pitch": 65, "duration": 159, "velocity": 100}, {"time": 58719, "pitch": 64, "duration": 160, "velocity": 110}, {"time": 58879, "pitch": 62, "duration": 159, "velocity": 105}, {"time": 59038, "pitch": 64, "duration": 160, "velocity": 100}, {"time": 59198, "pitch": 62, "duration": 160, "velocity": 100}, {"time": 59358, "pitch": 60, "duration": 159, "velocity": 85}, {"time": 59517, "pitch": 62, "duration": 162, "velocity": 90}, {"time": 59679, "pitch": 60, "duration": 162, "velocity": 100}, {"time": 59841, "pitch": 59, "duration": 162, "velocity": 95}, {"time": 60003, "pitch": 60, "duration": 80, "velocity": 90}, {"time": 60083, "pitch": 59, "duration": 80, "velocity": 90}, {"time": 60163, "pitch": 57, "duration": 1755, "velocity": 75}, {"time": 99599, "pitch": 57, "duration": 120, "velocity": 90}, {"time": 99719, "pitch": 59, "duration": 120, "velocity": 100}, {"time": 99839, "pitch": 60, "duration": 119, "velocity": 110}, {"time": 99958, "pitch": 62, "duration": 120, "velocity": 110}, {"time": 100078, "pitch": 60, "duration": 120, "velocity": 100}, {"time": 100198, "pitch": 59, "duration": 2042, "velocity": 90}, {"time": 102479, "pitch": 55, "duration": 119, "velocity": 90}, {"time": 102598, "pitch": 57, "duration": 120, "velocity": 100}, {"time": 102718, "pitch": 60, "duration": 160, "velocity": 110}, {"time": 102878, "pitch": 62, "duration": 159, "velocity": 110}, {"time": 103037, "pitch": 64, "duration": 160, "velocity": 110}, {"time": 103197, "pitch": 65, "duration": 162, "velocity": 120}, {"time": 103359, "pitch": 64, "duration": 162, "velocity": 110}, {"time": 103521, "pitch": 62, "duration": 162, "velocity": 110}, {"time": 103683, "pitch": 60, "duration": 159, "velocity": 110}, {"time": 103842, "pitch": 62, "duration": 160, "velocity": 100}, {"time": 104002, "pitch": 60, "duration": 160, "velocity": 100}, {"time": 104162, "pitch": 59, "duration": 718, "velocity": 110}, {"time": 104880, "pitch": 60, "duration": 119, "velocity": 120}, {"time": 104999, "pitch": 59, "duration": 120, "velocity": 120}, {"time": 105119, "pitch": 57, "duration": 958, "velocity": 100}, {"time": 107281, "pitch": 57, "duration": 119, "velocity": 90}, {"time": 107400, "pitch": 59, "duration": 120, "velocity": 100}, {"time": 107520, "pitch": 60, "duration": 120, "velocity": 100}, {"time": 107640, "pitch": 62, "duration": 119, "velocity": 100}, {"time": 107759, "pitch": 64, "duration": 120, "velocity": 120}, {"time": 107879, "pitch": 65, "duration": 121, "velocity": 110}, {"time": 107999, "pitch": 64, "duration": 1923, "velocity": 90}, {"time": 111038, "pitch": 57, "duration": 159, "velocity": 80}, {"time": 111197, "pitch": 59, "duration": 160, "velocity": 90}, {"time": 111357, "pitch": 60, "duration": 162, "velocity": 110}, {"time": 111519, "pitch": 62, "duration": 162, "velocity": 100}, {"time": 111681, "pitch": 60, "duration": 162, "velocity": 100}, {"time": 111843, "pitch": 59, "duration": 160, "velocity": 100}, {"time": 112003, "pitch": 60, "duration": 159, "velocity": 80}, {"time": 112162, "pitch": 57, "duration": 1117, "velocity": 80}, {"time": 113518, "pitch": 69, "duration": 80, "velocity": 110}, {"time": 113598, "pitch": 69, "duration": 80, "velocity": 120}, {"time": 113678, "pitch": 69, "duration": 1045, "velocity": 127}, {"time": 115839, "pitch": 71, "duration": 160, "velocity": 110}, {"time": 115999, "pitch": 72, "duration": 160, "velocity": 105}, {"time": 116159, "pitch": 71, "duration": 159, "velocity": 100}, {"time": 116318, "pitch": 72, "duration": 160, "velocity": 110}, {"time": 116478, "pitch": 71, "duration": 159, "velocity": 105}, {"time": 116637, "pitch": 69, "duration": 162, "velocity": 100}, {"time": 116799, "pitch": 71, "duration": 162, "velocity": 110}, {"time": 116961, "pitch": 67, "duration": 641, "velocity": 105}, {"time": 117602, "pitch": 60, "duration": 718, "velocity": 90}, {"time": 118320, "pitch": 59, "duration": 120, "velocity": 90}, {"time": 118440, "pitch": 60, "duration": 119, "velocity": 90}, {"time": 118559, "pitch": 57, "duration": 958, "velocity": 75}, {"time": 137998, "pitch": 57, "duration": 120, "velocity": 90}, {"time": 138118, "pitch": 60, "duration": 120, "velocity": 100}, {"time": 138238, "pitch": 62, "duration": 119, "velocity": 110}, {"time": 138357, "pitch": 64, "duration": 120, "velocity": 110}, {"time": 138477, "pitch": 65, "duration": 120, "velocity": 110}, {"time": 138597, "pitch": 64, "duration": 120, "velocity": 110}, {"time": 138716, "pitch": 62, "duration": 1924, "velocity": 100}, {"time": 140878, "pitch": 57, "duration": 120, "velocity": 90}, {"time": 140998, "pitch": 59, "duration": 119, "velocity": 100}, {"time": 141117, "pitch": 60, "duration": 162, "velocity": 110}, {"time": 141279, "pitch": 62, "duration": 162, "velocity": 110}, {"time": 141441, "pitch": 64, "duration": 162, "velocity": 110}, {"time": 141603, "pitch": 65, "duration": 160, "velocity": 120}, {"time": 141763, "pitch": 64, "duration": 160, "velocity": 110}, {"time": 141923, "pitch": 62, "duration": 159, "velocity": 110}, {"time": 142082, "pitch": 60, "duration": 160, "velocity": 110}, {"time": 142242, "pitch": 62, "duration": 159, "velocity": 100}, {"time": 142401, "pitch": 60, "duration": 160, "velocity": 100}, {"time": 142561, "pitch": 60, "duration": 718, "velocity": 110}, {"time": 143279, "pitch": 59, "duration": 120, "velocity": 120}, {"time": 143399, "pitch": 60, "duration": 119, "velocity": 120}, {"time": 143518, "pitch": 57, "duration": 966, "velocity": 100}, {"time": 145680, "pitch": 69, "duration": 80, "velocity": 90}, {"time": 145760, "pitch": 69, "duration": 79, "velocity": 100}, {"time": 145839, "pitch": 69, "duration": 80, "velocity": 110}, {"time": 145919, "pitch": 71, "duration": 239, "velocity": 110}, {"time": 146158, "pitch": 72, "duration": 240, "velocity": 100}, {"time": 146398, "pitch": 71, "duration": 239, "velocity": 90}, {"time": 146637, "pitch": 69, "duration": 726, "velocity": 90}, {"time": 149439, "pitch": 57, "duration": 162, "velocity": 80}, {"time": 149601, "pitch": 59, "duration": 162, "velocity": 90}, {"time": 149763, "pitch": 60, "duration": 160, "velocity": 110}, {"time": 149923, "pitch": 62, "duration": 160, "velocity": 100}, {"time": 150083, "pitch": 60, "duration": 159, "velocity": 100}, {"time": 150242, "pitch": 59, "duration": 160, "velocity": 100}, {"time": 150402, "pitch": 60, "duration": 159, "velocity": 80}, {"time": 150561, "pitch": 57, "duration": 1117, "velocity": 80}, {"time": 151918, "pitch": 69, "duration": 79, "velocity": 110}, {"time": 151997, "pitch": 69, "duration": 80, "velocity": 120}, {"time": 152077, "pitch": 69, "duration": 1045, "velocity": 127}, {"time": 154239, "pitch": 71, "duration": 159, "velocity": 110}, {"time": 154398, "pitch": 72, "duration": 160, "velocity": 105}, {"time": 154558, "pitch": 71, "duration": 159, "velocity": 100}, {"time": 154717, "pitch": 72, "duration": 160, "velocity": 110}, {"time": 154877, "pitch": 71, "duration": 159, "velocity": 105}, {"time": 155036, "pitch": 69, "duration": 162, "velocity": 100}, {"time": 155198, "pitch": 71, "duration": 163, "velocity": 110}, {"time": 155361, "pitch": 67, "duration": 640, "velocity": 105}, {"time": 156001, "pitch": 60, "duration": 718, "velocity": 90}, {"time": 156719, "pitch": 59, "duration": 120, "velocity": 90}, {"time": 156839, "pitch": 60, "duration": 120, "velocity": 90}, {"time": 156959, "pitch": 57, "duration": 965, "velocity": 75}, {"time": 722, "pitch": 55, "duration": 59, "velocity": 114}, {"time": 961, "pitch": 55, "duration": 130, "velocity": 118}, {"time": 1120, "pitch": 57, "duration": 20, "velocity": 78}, {"time": 1360, "pitch": 55, "duration": 70, "velocity": 112}, {"time": 1599, "pitch": 55, "duration": 80, "velocity": 114}, {"time": 1679, "pitch": 57, "duration": 60, "velocity": 71}, {"time": 1918, "pitch": 60, "duration": 240, "velocity": 112}, {"time": 2158, "pitch": 57, "duration": 159, "velocity": 78}, {"time": 2317, "pitch": 55, "duration": 70, "velocity": 60}, {"time": 2640, "pitch": 55, "duration": 61, "velocity": 114}, {"time": 2883, "pitch": 55, "duration": 130, "velocity": 118}, {"time": 3043, "pitch": 57, "duration": 20, "velocity": 78}, {"time": 3282, "pitch": 55, "duration": 70, "velocity": 112}, {"time": 3521, "pitch": 55, "duration": 80, "velocity": 114}, {"time": 3601, "pitch": 57, "duration": 60, "velocity": 71}, {"time": 3840, "pitch": 60, "duration": 240, "velocity": 112}, {"time": 4080, "pitch": 57, "duration": 159, "velocity": 78}, {"time": 4239, "pitch": 55, "duration": 70, "velocity": 60}, {"time": 4558, "pitch": 55, "duration": 60, "velocity": 114}, {"time": 4798, "pitch": 55, "duration": 129, "velocity": 118}, {"time": 4957, "pitch": 57, "duration": 20, "velocity": 78}, {"time": 5197, "pitch": 55, "duration": 70, "velocity": 112}, {"time": 5439, "pitch": 55, "duration": 81, "velocity": 114}, {"time": 5520, "pitch": 57, "duration": 60, "velocity": 71}, {"time": 5763, "pitch": 60, "duration": 239, "velocity": 112}, {"time": 6002, "pitch": 57, "duration": 160, "velocity": 78}, {"time": 6162, "pitch": 55, "duration": 69, "velocity": 60}, {"time": 6481, "pitch": 55, "duration": 60, "velocity": 114}, {"time": 6720, "pitch": 55, "duration": 130, "velocity": 118}, {"time": 6880, "pitch": 57, "duration": 20, "velocity": 78}, {"time": 7119, "pitch": 55, "duration": 70, "velocity": 112}, {"time": 7358, "pitch": 55, "duration": 80, "velocity": 114}, {"time": 7438, "pitch": 57, "duration": 60, "velocity": 71}, {"time": 7677, "pitch": 60, "duration": 243, "velocity": 112}, {"time": 7920, "pitch": 57, "duration": 163, "velocity": 78}, {"time": 8083, "pitch": 55, "duration": 70, "velocity": 60}, {"time": 8403, "pitch": 55, "duration": 60, "velocity": 114}, {"time": 8642, "pitch": 55, "duration": 130, "velocity": 118}, {"time": 8802, "pitch": 57, "duration": 20, "velocity": 78}, {"time": 9041, "pitch": 55, "duration": 70, "velocity": 112}, {"time": 9280, "pitch": 55, "duration": 80, "velocity": 114}, {"time": 9360, "pitch": 57, "duration": 60, "velocity": 71}, {"time": 9600, "pitch": 60, "duration": 239, "velocity": 112}, {"time": 9839, "pitch": 57, "duration": 159, "velocity": 78}, {"time": 9998, "pitch": 55, "duration": 70, "velocity": 60}, {"time": 10318, "pitch": 55, "duration": 59, "velocity": 114}, {"time": 10557, "pitch": 55, "duration": 132, "velocity": 118}, {"time": 10719, "pitch": 57, "duration": 20, "velocity": 78}, {"time": 10962, "pitch": 55, "duration": 71, "velocity": 112}, {"time": 11203, "pitch": 55, "duration": 79, "velocity": 114}, {"time": 11282, "pitch": 57, "duration": 60, "velocity": 71}, {"time": 11522, "pitch": 60, "duration": 239, "velocity": 112}, {"time": 11761, "pitch": 57, "duration": 160, "velocity": 78}, {"time": 11921, "pitch": 55, "duration": 70, "velocity": 60}, {"time": 12240, "pitch": 55, "duration": 60, "velocity": 114}, {"time": 12479, "pitch": 55, "duration": 130, "velocity": 118}, {"time": 12639, "pitch": 57, "duration": 20, "velocity": 78}, {"time": 12878, "pitch": 55, "duration": 70, "velocity": 112}, {"time": 13117, "pitch": 55, "duration": 80, "velocity": 114}, {"time": 13197, "pitch": 57, "duration": 60, "velocity": 71}, {"time": 13437, "pitch": 60, "duration": 243, "velocity": 112}, {"time": 13680, "pitch": 57, "duration": 162, "velocity": 78}, {"time": 13842, "pitch": 55, "duration": 71, "velocity": 60}, {"time": 14162, "pitch": 55, "duration": 60, "velocity": 114}, {"time": 14401, "pitch": 55, "duration": 130, "velocity": 118}, {"time": 14561, "pitch": 57, "duration": 20, "velocity": 78}, {"time": 14800, "pitch": 55, "duration": 70, "velocity": 112}, {"time": 15040, "pitch": 55, "duration": 79, "velocity": 114}, {"time": 15119, "pitch": 57, "duration": 60, "velocity": 71}, {"time": 15359, "pitch": 60, "duration": 239, "velocity": 112}, {"time": 15598, "pitch": 57, "duration": 160, "velocity": 78}, {"time": 15758, "pitch": 55, "duration": 69, "velocity": 60}, {"time": 16080, "pitch": 55, "duration": 61, "velocity": 114}, {"time": 16324, "pitch": 55, "duration": 129, "velocity": 118}, {"time": 16483, "pitch": 57, "duration": 20, "velocity": 78}, {"time": 16722, "pitch": 55, "duration": 70, "velocity": 112}, {"time": 16962, "pitch": 55, "duration": 80, "velocity": 114}, {"time": 17042, "pitch": 57, "duration": 59, "velocity": 71}, {"time": 17281, "pitch": 60, "duration": 239, "velocity": 112}, {"time": 17520, "pitch": 57, "duration": 160, "velocity": 78}, {"time": 17680, "pitch": 55, "duration": 70, "velocity": 60}, {"time": 17999, "pitch": 55, "duration": 60, "velocity": 114}, {"time": 18238, "pitch": 55, "duration": 130, "velocity": 118}, {"time": 18398, "pitch": 57, "duration": 20, "velocity": 78}, {"time": 18637, "pitch": 55, "duration": 70, "velocity": 112}, {"time": 18717, "pitch": 60, "duration": 243, "velocity": 112}, {"time": 18960, "pitch": 57, "duration": 162, "velocity": 78}, {"time": 19122, "pitch": 55, "duration": 71, "velocity": 60}, {"time": 19203, "pitch": 55, "duration": 130, "velocity": 118}, {"time": 19363, "pitch": 57, "duration": 20, "velocity": 78}, {"time": 19602, "pitch": 55, "duration": 70, "velocity": 60}, {"time": 19921, "pitch": 55, "duration": 60, "velocity": 114}, {"time": 20160, "pitch": 55, "duration": 130, "velocity": 118}, {"time": 20320, "pitch": 57, "duration": 20, "velocity": 78}, {"time": 20559, "pitch": 55, "duration": 70, "velocity": 112}, {"time": 20799, "pitch": 55, "duration": 80, "velocity": 114}, {"time": 20879, "pitch": 57, "duration": 59, "velocity": 71}, {"time": 21118, "pitch": 60, "duration": 239, "velocity": 112}, {"time": 21357, "pitch": 57, "duration": 160, "velocity": 78}, {"time": 21517, "pitch": 55, "duration": 70, "velocity": 60}, {"time": 21840, "pitch": 55, "duration": 60, "velocity": 114}, {"time": 22083, "pitch": 55, "duration": 129, "velocity": 118}, {"time": 22242, "pitch": 57, "duration": 20, "velocity": 78}, {"time": 22482, "pitch": 55, "duration": 69, "velocity": 112}, {"time": 22721, "pitch": 55, "duration": 80, "velocity": 114}, {"time": 22801, "pitch": 57, "duration": 60, "velocity": 71}, {"time": 23040, "pitch": 60, "duration": 239, "velocity": 112}, {"time": 23279, "pitch": 57, "duration": 160, "velocity": 78}, {"time": 23439, "pitch": 55, "duration": 70, "velocity": 60}, {"time": 23758, "pitch": 55, "duration": 60, "velocity": 114}, {"time": 23997, "pitch": 55, "duration": 132, "velocity": 118}, {"time": 24159, "pitch": 57, "duration": 21, "velocity": 78}, {"time": 24403, "pitch": 55, "duration": 71, "velocity": 112}, {"time": 24643, "pitch": 55, "duration": 80, "velocity": 114}, {"time": 24723, "pitch": 57, "duration": 60, "velocity": 71}, {"time": 24962, "pitch": 60, "duration": 240, "velocity": 112}, {"time": 25202, "pitch": 57, "duration": 159, "velocity": 78}, {"time": 25361, "pitch": 55, "duration": 70, "velocity": 60}, {"time": 25680, "pitch": 55, "duration": 60, "velocity": 114}, {"time": 25920, "pitch": 55, "duration": 129, "velocity": 118}, {"time": 26079, "pitch": 57, "duration": 20, "velocity": 78}, {"time": 26319, "pitch": 55, "duration": 69, "velocity": 112}, {"time": 26558, "pitch": 55, "duration": 80, "velocity": 114}, {"time": 26638, "pitch": 57, "duration": 59, "velocity": 71}, {"time": 26877, "pitch": 60, "duration": 243, "velocity": 112}, {"time": 27120, "pitch": 57, "duration": 162, "velocity": 78}, {"time": 27282, "pitch": 55, "duration": 71, "velocity": 60}, {"time": 27603, "pitch": 55, "duration": 59, "velocity": 114}, {"time": 27842, "pitch": 55, "duration": 129, "velocity": 118}, {"time": 28001, "pitch": 57, "duration": 20, "velocity": 78}, {"time": 28241, "pitch": 55, "duration": 70, "velocity": 112}, {"time": 28480, "pitch": 55, "duration": 80, "velocity": 114}, {"time": 28560, "pitch": 57, "duration": 60, "velocity": 71}, {"time": 28799, "pitch": 60, "duration": 240, "velocity": 112}, {"time": 29039, "pitch": 57, "duration": 159, "velocity": 78}, {"time": 29198, "pitch": 55, "duration": 70, "velocity": 60}, {"time": 29517, "pitch": 55, "duration": 60, "velocity": 114}, {"time": 29757, "pitch": 55, "duration": 131, "velocity": 118}, {"time": 29919, "pitch": 57, "duration": 20, "velocity": 78}, {"time": 30162, "pitch": 55, "duration": 71, "velocity": 112}, {"time": 30402, "pitch": 55, "duration": 80, "velocity": 114}, {"time": 30482, "pitch": 57, "duration": 60, "velocity": 71}, {"time": 30721, "pitch": 60, "duration": 240, "velocity": 112}, {"time": 30961, "pitch": 57, "duration": 159, "velocity": 78}, {"time": 31120, "pitch": 55, "duration": 70, "velocity": 60}, {"time": 31439, "pitch": 55, "duration": 60, "velocity": 114}, {"time": 31679, "pitch": 55, "duration": 129, "velocity": 118}, {"time": 31838, "pitch": 57, "duration": 20, "velocity": 78}, {"time": 32078, "pitch": 55, "duration": 69, "velocity": 112}, {"time": 32319, "pitch": 55, "duration": 82, "velocity": 114}, {"time": 32401, "pitch": 57, "duration": 60, "velocity": 71}, {"time": 32644, "pitch": 60, "duration": 239, "velocity": 112}, {"time": 32883, "pitch": 57, "duration": 160, "velocity": 78}, {"time": 33043, "pitch": 55, "duration": 69, "velocity": 60}, {"time": 33362, "pitch": 55, "duration": 59, "velocity": 114}, {"time": 33601, "pitch": 55, "duration": 130, "velocity": 118}, {"time": 33761, "pitch": 57, "duration": 19, "velocity": 78}, {"time": 34000, "pitch": 55, "duration": 70, "velocity": 112}, {"time": 34239, "pitch": 55, "duration": 80, "velocity": 114}, {"time": 34319, "pitch": 57, "duration": 60, "velocity": 71}, {"time": 34558, "pitch": 60, "duration": 240, "velocity": 112}, {"time": 34798, "pitch": 57, "duration": 159, "velocity": 78}, {"time": 34957, "pitch": 55, "duration": 70, "velocity": 60}, {"time": 35280, "pitch": 55, "duration": 61, "velocity": 114}, {"time": 35523, "pitch": 55, "duration": 130, "velocity": 118}, {"time": 35683, "pitch": 57, "duration": 20, "velocity": 78}, {"time": 35922, "pitch": 55, "duration": 70, "velocity": 112}, {"time": 36161, "pitch": 55, "duration": 80, "velocity": 114}, {"time": 36241, "pitch": 57, "duration": 60, "velocity": 71}, {"time": 36481, "pitch": 60, "duration": 239, "velocity": 112}, {"time": 36720, "pitch": 57, "duration": 159, "velocity": 78}, {"time": 36879, "pitch": 55, "duration": 70, "velocity": 60}, {"time": 37199, "pitch": 64, "duration": 59, "velocity": 114}, {"time": 37677, "pitch": 64, "duration": 60, "velocity": 114}, {"time": 60243, "pitch": 55, "duration": 59, "velocity": 114}, {"time": 60482, "pitch": 55, "duration": 130, "velocity": 118}, {"time": 60641, "pitch": 57, "duration": 20, "velocity": 78}, {"time": 60881, "pitch": 55, "duration": 70, "velocity": 112}, {"time": 61120, "pitch": 55, "duration": 80, "velocity": 114}, {"time": 61200, "pitch": 57, "duration": 60, "velocity": 71}, {"time": 61439, "pitch": 60, "duration": 240, "velocity": 112}, {"time": 61679, "pitch": 57, "duration": 159, "velocity": 78}, {"time": 61838, "pitch": 55, "duration": 70, "velocity": 60}, {"time": 62157, "pitch": 55, "duration": 60, "velocity": 114}, {"time": 62397, "pitch": 55, "duration": 131, "velocity": 118}, {"time": 62559, "pitch": 57, "duration": 20, "velocity": 78}, {"time": 62802, "pitch": 55, "duration": 71, "velocity": 112}, {"time": 63042, "pitch": 55, "duration": 80, "velocity": 114}, {"time": 63122, "pitch": 57, "duration": 60, "velocity": 71}, {"time": 63361, "pitch": 60, "duration": 240, "velocity": 112}, {"time": 63601, "pitch": 57, "duration": 159, "velocity": 78}, {"time": 63760, "pitch": 55, "duration": 70, "velocity": 60}, {"time": 64080, "pitch": 55, "duration": 59, "velocity": 114}, {"time": 64319, "pitch": 55, "duration": 129, "velocity": 118}, {"time": 64478, "pitch": 57, "duration": 20, "velocity": 78}, {"time": 64718, "pitch": 55, "duration": 70, "velocity": 112}, {"time": 64960, "pitch": 55, "duration": 81, "velocity": 114}, {"time": 65041, "pitch": 57, "duration": 60, "velocity": 71}, {"time": 65284, "pitch": 60, "duration": 239, "velocity": 112}, {"time": 65523, "pitch": 57, "duration": 160, "velocity": 78}, {"time": 65683, "pitch": 55, "duration": 69, "velocity": 60}, {"time": 66002, "pitch": 55, "duration": 60, "velocity": 114}, {"time": 66241, "pitch": 55, "duration": 130, "velocity": 118}, {"time": 66401, "pitch": 57, "duration": 20, "velocity": 78}, {"time": 66640, "pitch": 55, "duration": 70, "velocity": 112}, {"time": 66879, "pitch": 55, "duration": 80, "velocity": 114}, {"time": 66959, "pitch": 57, "duration": 60, "velocity": 71}, {"time": 67198, "pitch": 60, "duration": 240, "velocity": 112}, {"time": 67438, "pitch": 57, "duration": 159, "velocity": 78}, {"time": 67597, "pitch": 55, "duration": 70, "velocity": 60}, {"time": 67920, "pitch": 55, "duration": 61, "velocity": 114}, {"time": 68163, "pitch": 55, "duration": 130, "velocity": 118}, {"time": 68323, "pitch": 57, "duration": 20, "velocity": 78}, {"time": 68562, "pitch": 55, "duration": 70, "velocity": 112}, {"time": 68802, "pitch": 55, "duration": 79, "velocity": 114}, {"time": 68881, "pitch": 57, "duration": 60, "velocity": 71}, {"time": 69121, "pitch": 60, "duration": 239, "velocity": 112}, {"time": 69360, "pitch": 57, "duration": 160, "velocity": 78}, {"time": 69520, "pitch": 55, "duration": 69, "velocity": 60}, {"time": 69839, "pitch": 55, "duration": 59, "velocity": 114}, {"time": 70078, "pitch": 55, "duration": 130, "velocity": 118}, {"time": 70238, "pitch": 57, "duration": 19, "velocity": 78}, {"time": 70477, "pitch": 55, "duration": 70, "velocity": 112}, {"time": 70557, "pitch": 60, "duration": 243, "velocity": 112}, {"time": 70800, "pitch": 57, "duration": 162, "velocity": 78}, {"time": 70962, "pitch": 55, "duration": 71, "velocity": 60}, {"time": 71043, "pitch": 55, "duration": 129, "velocity": 118}, {"time": 71202, "pitch": 57, "duration": 20, "velocity": 78}, {"time": 71442, "pitch": 55, "duration": 70, "velocity": 60}, {"time": 71761, "pitch": 55, "duration": 60, "velocity": 114}, {"time": 72000, "pitch": 55, "duration": 130, "velocity": 118}, {"time": 72160, "pitch": 57, "duration": 20, "velocity": 78}, {"time": 72399, "pitch": 55, "duration": 70, "velocity": 112}, {"time": 72638, "pitch": 55, "duration": 80, "velocity": 114}, {"time": 72718, "pitch": 57, "duration": 60, "velocity": 71}, {"time": 72958, "pitch": 60, "duration": 243, "velocity": 112}, {"time": 73201, "pitch": 57, "duration": 162, "velocity": 78}, {"time": 73363, "pitch": 55, "duration": 71, "velocity": 60}, {"time": 73683, "pitch": 55, "duration": 60, "velocity": 114}, {"time": 73922, "pitch": 55, "duration": 130, "velocity": 118}, {"time": 74082, "pitch": 57, "duration": 20, "velocity": 78}, {"time": 74321, "pitch": 55, "duration": 70, "velocity": 112}, {"time": 74561, "pitch": 55, "duration": 79, "velocity": 114}, {"time": 74640, "pitch": 57, "duration": 60, "velocity": 71}, {"time": 74880, "pitch": 60, "duration": 239, "velocity": 112}, {"time": 75119, "pitch": 57, "duration": 160, "velocity": 78}, {"time": 75279, "pitch": 55, "duration": 69, "velocity": 60}, {"time": 75598, "pitch": 55, "duration": 60, "velocity": 114}, {"time": 75837, "pitch": 55, "duration": 132, "velocity": 118}, {"time": 75999, "pitch": 57, "duration": 20, "velocity": 78}, {"time": 76242, "pitch": 55, "duration": 71, "velocity": 112}, {"time": 76483, "pitch": 55, "duration": 80, "velocity": 114}, {"time": 76563, "pitch": 57, "duration": 59, "velocity": 71}, {"time": 76802, "pitch": 60, "duration": 239, "velocity": 112}, {"time": 77041, "pitch": 57, "duration": 160, "velocity": 78}, {"time": 77201, "pitch": 55, "duration": 70, "velocity": 60}, {"time": 77520, "pitch": 55, "duration": 60, "velocity": 114}, {"time": 77759, "pitch": 55, "duration": 130, "velocity": 118}, {"time": 77919, "pitch": 57, "duration": 20, "velocity": 78}, {"time": 78158, "pitch": 55, "duration": 70, "velocity": 112}, {"time": 78398, "pitch": 55, "duration": 79, "velocity": 114}, {"time": 78477, "pitch": 57, "duration": 60, "velocity": 71}, {"time": 78717, "pitch": 60, "duration": 243, "velocity": 112}, {"time": 78960, "pitch": 57, "duration": 162, "velocity": 78}, {"time": 79122, "pitch": 55, "duration": 71, "velocity": 60}, {"time": 79442, "pitch": 55, "duration": 60, "velocity": 114}, {"time": 79682, "pitch": 55, "duration": 129, "velocity": 118}, {"time": 79841, "pitch": 57, "duration": 20, "velocity": 78}, {"time": 80080, "pitch": 55, "duration": 70, "velocity": 112}, {"time": 80320, "pitch": 55, "duration": 80, "velocity": 114}, {"time": 80400, "pitch": 57, "duration": 59, "velocity": 71}, {"time": 80639, "pitch": 60, "duration": 239, "velocity": 112}, {"time": 80878, "pitch": 57, "duration": 160, "velocity": 78}, {"time": 81038, "pitch": 55, "duration": 70, "velocity": 60}, {"time": 81357, "pitch": 55, "duration": 60, "velocity": 114}, {"time": 81596, "pitch": 55, "duration": 132, "velocity": 118}, {"time": 81758, "pitch": 57, "duration": 21, "velocity": 78}, {"time": 82001, "pitch": 55, "duration": 71, "velocity": 112}, {"time": 82242, "pitch": 55, "duration": 80, "velocity": 114}, {"time": 82322, "pitch": 57, "duration": 60, "velocity": 71}, {"time": 82561, "pitch": 60, "duration": 239, "velocity": 112}, {"time": 82800, "pitch": 57, "duration": 160, "velocity": 78}, {"time": 82960, "pitch": 55, "duration": 70, "velocity": 60}, {"time": 83279, "pitch": 55, "duration": 60, "velocity": 114}, {"time": 83518, "pitch": 55, "duration": 130, "velocity": 118}, {"time": 83678, "pitch": 57, "duration": 20, "velocity": 78}, {"time": 83917, "pitch": 55, "duration": 70, "velocity": 112}, {"time": 84159, "pitch": 55, "duration": 81, "velocity": 114}, {"time": 84240, "pitch": 57, "duration": 61, "velocity": 71}, {"time": 84483, "pitch": 60, "duration": 240, "velocity": 112}, {"time": 84723, "pitch": 57, "duration": 159, "velocity": 78}, {"time": 84882, "pitch": 55, "duration": 70, "velocity": 60}, {"time": 85201, "pitch": 55, "duration": 60, "velocity": 114}, {"time": 85441, "pitch": 55, "duration": 129, "velocity": 118}, {"time": 85600, "pitch": 57, "duration": 20, "velocity": 78}, {"time": 85840, "pitch": 55, "duration": 69, "velocity": 112}, {"time": 86079, "pitch": 55, "duration": 80, "velocity": 114}, {"time": 86159, "pitch": 57, "duration": 60, "velocity": 71}, {"time": 86398, "pitch": 60, "duration": 239, "velocity": 112}, {"time": 86637, "pitch": 57, "duration": 160, "velocity": 78}, {"time": 86797, "pitch": 55, "duration": 70, "velocity": 60}, {"time": 87120, "pitch": 55, "duration": 61, "velocity": 114}, {"time": 87363, "pitch": 55, "duration": 130, "velocity": 118}, {"time": 87522, "pitch": 57, "duration": 20, "velocity": 78}, {"time": 87762, "pitch": 55, "duration": 70, "velocity": 112}, {"time": 88001, "pitch": 55, "duration": 80, "velocity": 114}, {"time": 88081, "pitch": 57, "duration": 60, "velocity": 71}, {"time": 88320, "pitch": 60, "duration": 240, "velocity": 112}, {"time": 88560, "pitch": 57, "duration": 159, "velocity": 78}, {"time": 88719, "pitch": 55, "duration": 70, "velocity": 60}, {"time": 89038, "pitch": 64, "duration": 60, "velocity": 114}, {"time": 89517, "pitch": 64, "duration": 60, "velocity": 114}, {"time": 121678, "pitch": 55, "duration": 60, "velocity": 114}, {"time": 121918, "pitch": 55, "duration": 129, "velocity": 118}, {"time": 122077, "pitch": 57, "duration": 20, "velocity": 78}, {"time": 122317, "pitch": 55, "duration": 69, "velocity": 112}, {"time": 122558, "pitch": 55, "duration": 81, "velocity": 114}, {"time": 122639, "pitch": 57, "duration": 61, "velocity": 71}, {"time": 122883, "pitch": 60, "duration": 239, "velocity": 112}, {"time": 123122, "pitch": 57, "duration": 159, "velocity": 78}, {"time": 123281, "pitch": 55, "duration": 70, "velocity": 60}, {"time": 123601, "pitch": 55, "duration": 59, "velocity": 114}, {"time": 123840, "pitch": 55, "duration": 130, "velocity": 118}, {"time": 123999, "pitch": 57, "duration": 20, "velocity": 78}, {"time": 124239, "pitch": 55, "duration": 70, "velocity": 112}, {"time": 124478, "pitch": 55, "duration": 80, "velocity": 114}, {"time": 124558, "pitch": 57, "duration": 60, "velocity": 71}, {"time": 124797, "pitch": 60, "duration": 243, "velocity": 112}, {"time": 125040, "pitch": 57, "duration": 162, "velocity": 78}, {"time": 125202, "pitch": 55, "duration": 71, "velocity": 60}, {"time": 125523, "pitch": 55, "duration": 60, "velocity": 114}, {"time": 125762, "pitch": 55, "duration": 130, "velocity": 118}, {"time": 125922, "pitch": 57, "duration": 20, "velocity": 78}, {"time": 126161, "pitch": 55, "duration": 70, "velocity": 112}, {"time": 126400, "pitch": 55, "duration": 80, "velocity": 114}, {"time": 126480, "pitch": 57, "duration": 60, "velocity": 71}, {"time": 126719, "pitch": 60, "duration": 240, "velocity": 112}, {"time": 126959, "pitch": 57, "duration": 159, "velocity": 78}, {"time": 127118, "pitch": 55, "duration": 70, "velocity": 60}, {"time": 127437, "pitch": 55, "duration": 60, "velocity": 114}, {"time": 127677, "pitch": 55, "duration": 131, "velocity": 118}, {"time": 127839, "pitch": 57, "duration": 20, "velocity": 78}, {"time": 128082, "pitch": 55, "duration": 71, "velocity": 112}, {"time": 128323, "pitch": 55, "duration": 79, "velocity": 114}, {"time": 128402, "pitch": 57, "duration": 60, "velocity": 71}, {"time": 128642, "pitch": 60, "duration": 239, "velocity": 112}, {"time": 128881, "pitch": 57, "duration": 160, "velocity": 78}, {"time": 129041, "pitch": 55, "duration": 69, "velocity": 60}, {"time": 129360, "pitch": 55, "duration": 60, "velocity": 114}, {"time": 129599, "pitch": 55, "duration": 130, "velocity": 118}, {"time": 129759, "pitch": 57, "duration": 20, "velocity": 78}, {"time": 129998, "pitch": 55, "duration": 70, "velocity": 112}, {"time": 130237, "pitch": 55, "duration": 80, "velocity": 114}, {"time": 130317, "pitch": 57, "duration": 60, "velocity": 71}, {"time": 130556, "pitch": 60, "duration": 243, "velocity": 112}, {"time": 130799, "pitch": 57, "duration": 163, "velocity": 78}, {"time": 130962, "pitch": 55, "duration": 70, "velocity": 60}, {"time": 131282, "pitch": 55, "duration": 60, "velocity": 114}, {"time": 131521, "pitch": 55, "duration": 130, "velocity": 118}, {"time": 131681, "pitch": 57, "duration": 20, "velocity": 78}, {"time": 131920, "pitch": 55, "duration": 70, "velocity": 112}, {"time": 132159, "pitch": 55, "duration": 80, "velocity": 114}, {"time": 132239, "pitch": 57, "duration": 60, "velocity": 71}, {"time": 132479, "pitch": 60, "duration": 239, "velocity": 112}, {"time": 132718, "pitch": 57, "duration": 159, "velocity": 78}, {"time": 132877, "pitch": 55, "duration": 70, "velocity": 60}, {"time": 133200, "pitch": 55, "duration": 61, "velocity": 114}, {"time": 133443, "pitch": 55, "duration": 130, "velocity": 118}, {"time": 133603, "pitch": 57, "duration": 20, "velocity": 78}, {"time": 133842, "pitch": 55, "duration": 70, "velocity": 112}, {"time": 134082, "pitch": 55, "duration": 79, "velocity": 114}, {"time": 134161, "pitch": 57, "duration": 60, "velocity": 71}, {"time": 134401, "pitch": 60, "duration": 239, "velocity": 112}, {"time": 134640, "pitch": 57, "duration": 160, "velocity": 78}, {"time": 134800, "pitch": 55, "duration": 70, "velocity": 60}, {"time": 135119, "pitch": 55, "duration": 60, "velocity": 114}, {"time": 135358, "pitch": 55, "duration": 130, "velocity": 118}, {"time": 135518, "pitch": 57, "duration": 20, "velocity": 78}, {"time": 135757, "pitch": 55, "duration": 70, "velocity": 112}, {"time": 135999, "pitch": 55, "duration": 81, "velocity": 114}, {"time": 136080, "pitch": 57, "duration": 61, "velocity": 71}, {"time": 136323, "pitch": 60, "duration": 239, "velocity": 112}, {"time": 136562, "pitch": 57, "duration": 160, "velocity": 78}, {"time": 136722, "pitch": 55, "duration": 70, "velocity": 60}, {"time": 137041, "pitch": 55, "duration": 60, "velocity": 114}, {"time": 137280, "pitch": 55, "duration": 130, "velocity": 118}, {"time": 137440, "pitch": 57, "duration": 20, "velocity": 78}, {"time": 137679, "pitch": 55, "duration": 70, "velocity": 112}, {"time": 137919, "pitch": 55, "duration": 79, "velocity": 114}, {"time": 137998, "pitch": 57, "duration": 60, "velocity": 71}, {"time": 138238, "pitch": 60, "duration": 239, "velocity": 112}, {"time": 138477, "pitch": 57, "duration": 160, "velocity": 78}, {"time": 138637, "pitch": 55, "duration": 69, "velocity": 60}, {"time": 138959, "pitch": 55, "duration": 61, "velocity": 114}, {"time": 139203, "pitch": 55, "duration": 129, "velocity": 118}, {"time": 139362, "pitch": 57, "duration": 20, "velocity": 78}, {"time": 139601, "pitch": 55, "duration": 70, "velocity": 112}, {"time": 139841, "pitch": 55, "duration": 80, "velocity": 114}, {"time": 139921, "pitch": 57, "duration": 59, "velocity": 71}, {"time": 140160, "pitch": 60, "duration": 239, "velocity": 112}, {"time": 140399, "pitch": 57, "duration": 160, "velocity": 78}, {"time": 140559, "pitch": 55, "duration": 70, "velocity": 60}, {"time": 140878, "pitch": 55, "duration": 60, "velocity": 114}, {"time": 141117, "pitch": 55, "duration": 132, "velocity": 118}, {"time": 141279, "pitch": 57, "duration": 21, "velocity": 78}, {"time": 141522, "pitch": 55, "duration": 71, "velocity": 112}, {"time": 141763, "pitch": 55, "duration": 80, "velocity": 114}, {"time": 141843, "pitch": 57, "duration": 60, "velocity": 71}, {"time": 142082, "pitch": 60, "duration": 239, "velocity": 112}, {"time": 142321, "pitch": 57, "duration": 160, "velocity": 78}, {"time": 142481, "pitch": 55, "duration": 70, "velocity": 60}, {"time": 142800, "pitch": 55, "duration": 60, "velocity": 114}, {"time": 143040, "pitch": 55, "duration": 129, "velocity": 118}, {"time": 143199, "pitch": 57, "duration": 20, "velocity": 78}, {"time": 143438, "pitch": 55, "duration": 70, "velocity": 112}, {"time": 143678, "pitch": 55, "duration": 80, "velocity": 114}, {"time": 143758, "pitch": 57, "duration": 59, "velocity": 71}, {"time": 143997, "pitch": 60, "duration": 243, "velocity": 112}, {"time": 144240, "pitch": 57, "duration": 162, "velocity": 78}, {"time": 144402, "pitch": 55, "duration": 71, "velocity": 60}, {"time": 144722, "pitch": 55, "duration": 60, "velocity": 114}, {"time": 144962, "pitch": 55, "duration": 129, "velocity": 118}, {"time": 145121, "pitch": 57, "duration": 20, "velocity": 78}, {"time": 145361, "pitch": 55, "duration": 69, "velocity": 112}, {"time": 145600, "pitch": 55, "duration": 80, "velocity": 114}, {"time": 145680, "pitch": 57, "duration": 60, "velocity": 71}, {"time": 145919, "pitch": 60, "duration": 239, "velocity": 112}, {"time": 146158, "pitch": 57, "duration": 160, "velocity": 78}, {"time": 146318, "pitch": 55, "duration": 70, "velocity": 60}, {"time": 146637, "pitch": 55, "duration": 60, "velocity": 114}, {"time": 146876, "pitch": 55, "duration": 132, "velocity": 118}, {"time": 147038, "pitch": 57, "duration": 21, "velocity": 78}, {"time": 147282, "pitch": 55, "duration": 71, "velocity": 112}, {"time": 147522, "pitch": 55, "duration": 80, "velocity": 114}, {"time": 147602, "pitch": 57, "duration": 60, "velocity": 71}, {"time": 147841, "pitch": 60, "duration": 240, "velocity": 112}, {"time": 148081, "pitch": 57, "duration": 159, "velocity": 78}, {"time": 148240, "pitch": 55, "duration": 70, "velocity": 60}, {"time": 148559, "pitch": 55, "duration": 60, "velocity": 114}, {"time": 148799, "pitch": 55, "duration": 129, "velocity": 118}, {"time": 148958, "pitch": 57, "duration": 20, "velocity": 78}, {"time": 149198, "pitch": 55, "duration": 69, "velocity": 112}, {"time": 149439, "pitch": 55, "duration": 81, "velocity": 114}, {"time": 149520, "pitch": 57, "duration": 61, "velocity": 71}, {"time": 149763, "pitch": 60, "duration": 240, "velocity": 112}, {"time": 150003, "pitch": 57, "duration": 159, "velocity": 78}, {"time": 150162, "pitch": 55, "duration": 70, "velocity": 60}, {"time": 150482, "pitch": 55, "duration": 59, "velocity": 114}, {"time": 150721, "pitch": 55, "duration": 129, "velocity": 118}, {"time": 150880, "pitch": 57, "duration": 20, "velocity": 78}, {"time": 151120, "pitch": 55, "duration": 70, "velocity": 112}, {"time": 151359, "pitch": 55, "duration": 80, "velocity": 114}, {"time": 151439, "pitch": 57, "duration": 60, "velocity": 71}, {"time": 151678, "pitch": 60, "duration": 240, "velocity": 112}, {"time": 151918, "pitch": 57, "duration": 159, "velocity": 78}, {"time": 152077, "pitch": 55, "duration": 70, "velocity": 60}, {"time": 152400, "pitch": 55, "duration": 61, "velocity": 114}, {"time": 152643, "pitch": 55, "duration": 130, "velocity": 118}, {"time": 152803, "pitch": 57, "duration": 20, "velocity": 78}, {"time": 153042, "pitch": 55, "duration": 70, "velocity": 112}, {"time": 153281, "pitch": 55, "duration": 80, "velocity": 114}, {"time": 153361, "pitch": 57, "duration": 60, "velocity": 71}, {"time": 153600, "pitch": 60, "duration": 240, "velocity": 112}, {"time": 153840, "pitch": 57, "duration": 159, "velocity": 78}, {"time": 153999, "pitch": 55, "duration": 70, "velocity": 60}, {"time": 154318, "pitch": 55, "duration": 60, "velocity": 114}, {"time": 154558, "pitch": 55, "duration": 129, "velocity": 118}, {"time": 154717, "pitch": 57, "duration": 20, "velocity": 78}, {"time": 154957, "pitch": 55, "duration": 69, "velocity": 112}, {"time": 155198, "pitch": 55, "duration": 82, "velocity": 114}, {"time": 155280, "pitch": 57, "duration": 60, "velocity": 71}, {"time": 155523, "pitch": 60, "duration": 239, "velocity": 112}, {"time": 155762, "pitch": 57, "duration": 160, "velocity": 78}, {"time": 155922, "pitch": 55, "duration": 69, "velocity": 60}, {"time": 156241, "pitch": 55, "duration": 59, "velocity": 114}, {"time": 156480, "pitch": 55, "duration": 130, "velocity": 118}, {"time": 156640, "pitch": 57, "duration": 19, "velocity": 78}, {"time": 156879, "pitch": 55, "duration": 70, "velocity": 112}, {"time": 157118, "pitch": 55, "duration": 80, "velocity": 114}, {"time": 157198, "pitch": 57, "duration": 60, "velocity": 71}, {"time": 157437, "pitch": 60, "duration": 243, "velocity": 112}, {"time": 157680, "pitch": 57, "duration": 163, "velocity": 78}, {"time": 157843, "pitch": 55, "duration": 70, "velocity": 60}, {"time": 158163, "pitch": 55, "duration": 60, "velocity": 114}, {"time": 158402, "pitch": 55, "duration": 130, "velocity": 118}, {"time": 158562, "pitch": 57, "duration": 20, "velocity": 78}, {"time": 158801, "pitch": 55, "duration": 70, "velocity": 112}, {"time": 159040, "pitch": 55, "duration": 80, "velocity": 114}, {"time": 159120, "pitch": 57, "duration": 60, "velocity": 71}, {"time": 159360, "pitch": 60, "duration": 239, "velocity": 112}, {"time": 159599, "pitch": 57, "duration": 159, "velocity": 78}, {"time": 159758, "pitch": 55, "duration": 70, "velocity": 60}, {"time": 160078, "pitch": 55, "duration": 59, "velocity": 114}, {"time": 160317, "pitch": 55, "duration": 132, "velocity": 118}, {"time": 160479, "pitch": 57, "duration": 20, "velocity": 78}, {"time": 160722, "pitch": 55, "duration": 71, "velocity": 112}, {"time": 160963, "pitch": 55, "duration": 79, "velocity": 114}, {"time": 161042, "pitch": 57, "duration": 60, "velocity": 71}, {"time": 161282, "pitch": 60, "duration": 239, "velocity": 112}, {"time": 161521, "pitch": 57, "duration": 160, "velocity": 78}, {"time": 161681, "pitch": 55, "duration": 69, "velocity": 60}, {"time": 162000, "pitch": 55, "duration": 60, "velocity": 114}, {"time": 162239, "pitch": 55, "duration": 130, "velocity": 118}, {"time": 162399, "pitch": 57, "duration": 20, "velocity": 78}, {"time": 162638, "pitch": 55, "duration": 70, "velocity": 112}, {"time": 162877, "pitch": 55, "duration": 80, "velocity": 114}, {"time": 162957, "pitch": 57, "duration": 60, "velocity": 71}, {"time": 163196, "pitch": 60, "duration": 244, "velocity": 112}, {"time": 163440, "pitch": 57, "duration": 162, "velocity": 78}, {"time": 163602, "pitch": 55, "duration": 71, "velocity": 60}, {"time": 163922, "pitch": 55, "duration": 60, "velocity": 114}, {"time": 164161, "pitch": 55, "duration": 130, "velocity": 118}, {"time": 164321, "pitch": 57, "duration": 20, "velocity": 78}, {"time": 164560, "pitch": 55, "duration": 70, "velocity": 112}, {"time": 164800, "pitch": 55, "duration": 79, "velocity": 114}, {"time": 164879, "pitch": 57, "duration": 60, "velocity": 71}, {"time": 165119, "pitch": 60, "duration": 239, "velocity": 112}, {"time": 165358, "pitch": 57, "duration": 160, "velocity": 78}, {"time": 165518, "pitch": 55, "duration": 69, "velocity": 60}, {"time": 165840, "pitch": 55, "duration": 61, "velocity": 114}, {"time": 166084, "pitch": 55, "duration": 129, "velocity": 118}, {"time": 166243, "pitch": 57, "duration": 20, "velocity": 78}, {"time": 166482, "pitch": 55, "duration": 70, "velocity": 112}, {"time": 166722, "pitch": 55, "duration": 80, "velocity": 114}, {"time": 166802, "pitch": 57, "duration": 59, "velocity": 71}, {"time": 167041, "pitch": 60, "duration": 239, "velocity": 112}, {"time": 167280, "pitch": 57, "duration": 160, "velocity": 78}, {"time": 167440, "pitch": 55, "duration": 70, "velocity": 60}, {"time": 167759, "pitch": 55, "duration": 60, "velocity": 114}, {"time": 167998, "pitch": 55, "duration": 130, "velocity": 118}, {"time": 168158, "pitch": 57, "duration": 20, "velocity": 78}, {"time": 168397, "pitch": 55, "duration": 70, "velocity": 112}, {"time": 168639, "pitch": 55, "duration": 81, "velocity": 114}, {"time": 168720, "pitch": 57, "duration": 61, "velocity": 71}, {"time": 168963, "pitch": 60, "duration": 239, "velocity": 112}, {"time": 169202, "pitch": 57, "duration": 160, "velocity": 78}, {"time": 169362, "pitch": 55, "duration": 70, "velocity": 60}, {"time": 169681, "pitch": 55, "duration": 60, "velocity": 114}, {"time": 169920, "pitch": 55, "duration": 130, "velocity": 118}, {"time": 170080, "pitch": 57, "duration": 20, "velocity": 78}, {"time": 170319, "pitch": 55, "duration": 70, "velocity": 112}, {"time": 170559, "pitch": 55, "duration": 79, "velocity": 114}, {"time": 170638, "pitch": 57, "duration": 60, "velocity": 71}, {"time": 170878, "pitch": 60, "duration": 239, "velocity": 112}, {"time": 171117, "pitch": 57, "duration": 160, "velocity": 78}, {"time": 171277, "pitch": 55, "duration": 70, "velocity": 60}, {"time": 171600, "pitch": 55, "duration": 60, "velocity": 114}, {"time": 171843, "pitch": 55, "duration": 129, "velocity": 118}, {"time": 172002, "pitch": 57, "duration": 20, "velocity": 78}, {"time": 172242, "pitch": 55, "duration": 69, "velocity": 112}, {"time": 172481, "pitch": 55, "duration": 80, "velocity": 114}, {"time": 172561, "pitch": 57, "duration": 60, "velocity": 71}, {"time": 172800, "pitch": 60, "duration": 239, "velocity": 112}, {"time": 173039, "pitch": 57, "duration": 160, "velocity": 78}, {"time": 173199, "pitch": 55, "duration": 70, "velocity": 60}, {"time": 173518, "pitch": 55, "duration": 60, "velocity": 114}, {"time": 173757, "pitch": 55, "duration": 132, "velocity": 118}, {"time": 173919, "pitch": 57, "duration": 21, "velocity": 78}, {"time": 174163, "pitch": 55, "duration": 70, "velocity": 112}, {"time": 174403, "pitch": 55, "duration": 80, "velocity": 114}, {"time": 174483, "pitch": 57, "duration": 60, "velocity": 71}, {"time": 174722, "pitch": 60, "duration": 240, "velocity": 112}, {"time": 174962, "pitch": 57, "duration": 159, "velocity": 78}, {"time": 175121, "pitch": 55, "duration": 70, "velocity": 60}, {"time": 175440, "pitch": 55, "duration": 60, "velocity": 114}, {"time": 175680, "pitch": 55, "duration": 129, "velocity": 118}, {"time": 175839, "pitch": 57, "duration": 20, "velocity": 78}, {"time": 176078, "pitch": 55, "duration": 70, "velocity": 112}, {"time": 176318, "pitch": 55, "duration": 80, "velocity": 114}, {"time": 176398, "pitch": 57, "duration": 59, "velocity": 71}, {"time": 176637, "pitch": 60, "duration": 243, "velocity": 112}, {"time": 176880, "pitch": 57, "duration": 162, "velocity": 78}, {"time": 177042, "pitch": 55, "duration": 71, "velocity": 60}, {"time": 177362, "pitch": 55, "duration": 60, "velocity": 114}, {"time": 177602, "pitch": 55, "duration": 129, "velocity": 118}, {"time": 177761, "pitch": 57, "duration": 20, "velocity": 78}, {"time": 178001, "pitch": 55, "duration": 70, "velocity": 112}, {"time": 178240, "pitch": 55, "duration": 80, "velocity": 114}, {"time": 178320, "pitch": 57, "duration": 60, "velocity": 71}, {"time": 178559, "pitch": 60, "duration": 239, "velocity": 112}, {"time": 178798, "pitch": 57, "duration": 160, "velocity": 78}, {"time": 178958, "pitch": 55, "duration": 70, "velocity": 60}, {"time": 179277, "pitch": 55, "duration": 60, "velocity": 114}, {"time": 179517, "pitch": 55, "duration": 129, "velocity": 118}, {"time": 179676, "pitch": 57, "duration": 20, "velocity": 78}, {"time": 179915, "pitch": 55, "duration": 70, "velocity": 112}, {"time": 180155, "pitch": 55, "duration": 80, "velocity": 114}, {"time": 180235, "pitch": 57, "duration": 59, "velocity": 71}, {"time": 180474, "pitch": 60, "duration": 239, "velocity": 112}, {"time": 180713, "pitch": 57, "duration": 160, "velocity": 78}, {"time": 180873, "pitch": 55, "duration": 70, "velocity": 60}, {"time": 38881, "pitch": 57, "duration": 150, "velocity": 102}, {"time": 38881, "pitch": 69, "duration": 150, "velocity": 112}, {"time": 39041, "pitch": 57, "duration": 80, "velocity": 92}, {"time": 39041, "pitch": 69, "duration": 80, "velocity": 102}, {"time": 39121, "pitch": 57, "duration": 80, "velocity": 67}, {"time": 39121, "pitch": 69, "duration": 80, "velocity": 77}, {"time": 39280, "pitch": 57, "duration": 80, "velocity": 71}, {"time": 39280, "pitch": 69, "duration": 80, "velocity": 81}, {"time": 39360, "pitch": 57, "duration": 150, "velocity": 102}, {"time": 39360, "pitch": 69, "duration": 150, "velocity": 112}, {"time": 39520, "pitch": 57, "duration": 79, "velocity": 92}, {"time": 39520, "pitch": 69, "duration": 79, "velocity": 102}, {"time": 39599, "pitch": 57, "duration": 80, "velocity": 67}, {"time": 39599, "pitch": 69, "duration": 80, "velocity": 77}, {"time": 39759, "pitch": 57, "duration": 80, "velocity": 71}, {"time": 39759, "pitch": 69, "duration": 80, "velocity": 81}, {"time": 39839, "pitch": 57, "duration": 149, "velocity": 102}, {"time": 39839, "pitch": 69, "duration": 149, "velocity": 112}, {"time": 39998, "pitch": 57, "duration": 80, "velocity": 92}, {"time": 39998, "pitch": 69, "duration": 80, "velocity": 102}, {"time": 40078, "pitch": 57, "duration": 80, "velocity": 67}, {"time": 40078, "pitch": 69, "duration": 80, "velocity": 77}, {"time": 40238, "pitch": 57, "duration": 79, "velocity": 71}, {"time": 40238, "pitch": 69, "duration": 79, "velocity": 81}, {"time": 40317, "pitch": 57, "duration": 152, "velocity": 102}, {"time": 40317, "pitch": 69, "duration": 152, "velocity": 112}, {"time": 40480, "pitch": 57, "duration": 81, "velocity": 92}, {"time": 40480, "pitch": 69, "duration": 81, "velocity": 102}, {"time": 40561, "pitch": 57, "duration": 81, "velocity": 67}, {"time": 40561, "pitch": 69, "duration": 81, "velocity": 77}, {"time": 40723, "pitch": 57, "duration": 81, "velocity": 71}, {"time": 40723, "pitch": 69, "duration": 81, "velocity": 81}, {"time": 40804, "pitch": 57, "duration": 149, "velocity": 102}, {"time": 40804, "pitch": 69, "duration": 149, "velocity": 112}, {"time": 40963, "pitch": 57, "duration": 80, "velocity": 92}, {"time": 40963, "pitch": 69, "duration": 80, "velocity": 102}, {"time": 41043, "pitch": 57, "duration": 80, "velocity": 67}, {"time": 41043, "pitch": 69, "duration": 80, "velocity": 77}, {"time": 41203, "pitch": 57, "duration": 79, "velocity": 71}, {"time": 41203, "pitch": 69, "duration": 79, "velocity": 81}, {"time": 41282, "pitch": 57, "duration": 150, "velocity": 102}, {"time": 41282, "pitch": 69, "duration": 150, "velocity": 112}, {"time": 41442, "pitch": 57, "duration": 80, "velocity": 92}, {"time": 41442, "pitch": 69, "duration": 80, "velocity": 102}, {"time": 41522, "pitch": 57, "duration": 79, "velocity": 67}, {"time": 41522, "pitch": 69, "duration": 79, "velocity": 77}, {"time": 41681, "pitch": 57, "duration": 80, "velocity": 71}, {"time": 41681, "pitch": 69, "duration": 80, "velocity": 81}, {"time": 41761, "pitch": 57, "duration": 150, "velocity": 102}, {"time": 41761, "pitch": 69, "duration": 150, "velocity": 112}, {"time": 41921, "pitch": 57, "duration": 79, "velocity": 92}, {"time": 41921, "pitch": 69, "duration": 79, "velocity": 102}, {"time": 42000, "pitch": 57, "duration": 80, "velocity": 67}, {"time": 42000, "pitch": 69, "duration": 80, "velocity": 77}, {"time": 42160, "pitch": 57, "duration": 80, "velocity": 71}, {"time": 42160, "pitch": 69, "duration": 80, "velocity": 81}, {"time": 42240, "pitch": 57, "duration": 149, "velocity": 102}, {"time": 42240, "pitch": 69, "duration": 149, "velocity": 112}, {"time": 42399, "pitch": 57, "duration": 80, "velocity": 92}, {"time": 42399, "pitch": 69, "duration": 80, "velocity": 102}, {"time": 42479, "pitch": 57, "duration": 80, "velocity": 67}, {"time": 42479, "pitch": 69, "duration": 80, "velocity": 77}, {"time": 42639, "pitch": 57, "duration": 79, "velocity": 71}, {"time": 42639, "pitch": 69, "duration": 79, "velocity": 81}, {"time": 42718, "pitch": 57, "duration": 150, "velocity": 102}, {"time": 42718, "pitch": 69, "duration": 150, "velocity": 112}, {"time": 42878, "pitch": 57, "duration": 80, "velocity": 92}, {"time": 42878, "pitch": 69, "duration": 80, "velocity": 102}, {"time": 42958, "pitch": 57, "duration": 79, "velocity": 67}, {"time": 42958, "pitch": 69, "duration": 79, "velocity": 77}, {"time": 43117, "pitch": 57, "duration": 80, "velocity": 71}, {"time": 43117, "pitch": 69, "duration": 80, "velocity": 81}, {"time": 43197, "pitch": 57, "duration": 152, "velocity": 102}, {"time": 43197, "pitch": 69, "duration": 152, "velocity": 112}, {"time": 43359, "pitch": 57, "duration": 81, "velocity": 92}, {"time": 43359, "pitch": 69, "duration": 81, "velocity": 102}, {"time": 43440, "pitch": 57, "duration": 81, "velocity": 67}, {"time": 43440, "pitch": 69, "duration": 81, "velocity": 77}, {"time": 43602, "pitch": 57, "duration": 81, "velocity": 71}, {"time": 43602, "pitch": 69, "duration": 81, "velocity": 81}, {"time": 43683, "pitch": 57, "duration": 150, "velocity": 102}, {"time": 43683, "pitch": 69, "duration": 150, "velocity": 112}, {"time": 43843, "pitch": 57, "duration": 80, "velocity": 92}, {"time": 43843, "pitch": 69, "duration": 80, "velocity": 102}, {"time": 43923, "pitch": 57, "duration": 79, "velocity": 67}, {"time": 43923, "pitch": 69, "duration": 79, "velocity": 77}, {"time": 44082, "pitch": 57, "duration": 80, "velocity": 71}, {"time": 44082, "pitch": 69, "duration": 80, "velocity": 81}, {"time": 44162, "pitch": 57, "duration": 149, "velocity": 102}, {"time": 44162, "pitch": 69, "duration": 149, "velocity": 112}, {"time": 44321, "pitch": 57, "duration": 80, "velocity": 92}, {"time": 44321, "pitch": 69, "duration": 80, "velocity": 102}, {"time": 44401, "pitch": 57, "duration": 80, "velocity": 67}, {"time": 44401, "pitch": 69, "duration": 80, "velocity": 77}, {"time": 44561, "pitch": 57, "duration": 80, "velocity": 71}, {"time": 44561, "pitch": 69, "duration": 80, "velocity": 81}, {"time": 44641, "pitch": 57, "duration": 149, "velocity": 102}, {"time": 44641, "pitch": 69, "duration": 149, "velocity": 112}, {"time": 44800, "pitch": 57, "duration": 80, "velocity": 92}, {"time": 44800, "pitch": 69, "duration": 80, "velocity": 102}, {"time": 44880, "pitch": 57, "duration": 80, "velocity": 67}, {"time": 44880, "pitch": 69, "duration": 80, "velocity": 77}, {"time": 45039, "pitch": 57, "duration": 80, "velocity": 71}, {"time": 45039, "pitch": 69, "duration": 80, "velocity": 81}, {"time": 45119, "pitch": 57, "duration": 150, "velocity": 102}, {"time": 45119, "pitch": 69, "duration": 150, "velocity": 112}, {"time": 45279, "pitch": 57, "duration": 80, "velocity": 92}, {"time": 45279, "pitch": 69, "duration": 80, "velocity": 102}, {"time": 45359, "pitch": 57, "duration": 79, "velocity": 67}, {"time": 45359, "pitch": 69, "duration": 79, "velocity": 77}, {"time": 45518, "pitch": 57, "duration": 80, "velocity": 71}, {"time": 45518, "pitch": 69, "duration": 80, "velocity": 81}, {"time": 45598, "pitch": 57, "duration": 150, "velocity": 102}, {"time": 45598, "pitch": 69, "duration": 150, "velocity": 112}, {"time": 45757, "pitch": 57, "duration": 80, "velocity": 92}, {"time": 45757, "pitch": 69, "duration": 80, "velocity": 102}, {"time": 45837, "pitch": 57, "duration": 80, "velocity": 67}, {"time": 45837, "pitch": 69, "duration": 80, "velocity": 77}, {"time": 45997, "pitch": 57, "duration": 80, "velocity": 71}, {"time": 45997, "pitch": 69, "duration": 80, "velocity": 81}, {"time": 46077, "pitch": 57, "duration": 152, "velocity": 102}, {"time": 46077, "pitch": 69, "duration": 152, "velocity": 112}, {"time": 46239, "pitch": 57, "duration": 81, "velocity": 92}, {"time": 46239, "pitch": 69, "duration": 81, "velocity": 102}, {"time": 46320, "pitch": 57, "duration": 81, "velocity": 67}, {"time": 46320, "pitch": 69, "duration": 81, "velocity": 77}, {"time": 46482, "pitch": 57, "duration": 81, "velocity": 71}, {"time": 46482, "pitch": 69, "duration": 81, "velocity": 81}, {"time": 46563, "pitch": 57, "duration": 149, "velocity": 102}, {"time": 46563, "pitch": 69, "duration": 149, "velocity": 112}, {"time": 46722, "pitch": 57, "duration": 80, "velocity": 92}, {"time": 46722, "pitch": 69, "duration": 80, "velocity": 102}, {"time": 46802, "pitch": 57, "duration": 80, "velocity": 67}, {"time": 46802, "pitch": 69, "duration": 80, "velocity": 77}, {"time": 46962, "pitch": 57, "duration": 79, "velocity": 71}, {"time": 46962, "pitch": 69, "duration": 79, "velocity": 81}, {"time": 47041, "pitch": 57, "duration": 150, "velocity": 102}, {"time": 47041, "pitch": 69, "duration": 150, "velocity": 112}, {"time": 47201, "pitch": 57, "duration": 80, "velocity": 92}, {"time": 47201, "pitch": 69, "duration": 80, "velocity": 102}, {"time": 47281, "pitch": 57, "duration": 80, "velocity": 67}, {"time": 47281, "pitch": 69, "duration": 80, "velocity": 77}, {"time": 47440, "pitch": 57, "duration": 80, "velocity": 71}, {"time": 47440, "pitch": 69, "duration": 80, "velocity": 81}, {"time": 47520, "pitch": 57, "duration": 150, "velocity": 102}, {"time": 47520, "pitch": 69, "duration": 150, "velocity": 112}, {"time": 47680, "pitch": 57, "duration": 79, "velocity": 92}, {"time": 47680, "pitch": 69, "duration": 79, "velocity": 102}, {"time": 47759, "pitch": 57, "duration": 80, "velocity": 67}, {"time": 47759, "pitch": 69, "duration": 80, "velocity": 77}, {"time": 47919, "pitch": 57, "duration": 80, "velocity": 71}, {"time": 47919, "pitch": 69, "duration": 80, "velocity": 81}, {"time": 47999, "pitch": 57, "duration": 149, "velocity": 102}, {"time": 47999, "pitch": 69, "duration": 149, "velocity": 112}, {"time": 48158, "pitch": 57, "duration": 80, "velocity": 92}, {"time": 48158, "pitch": 69, "duration": 80, "velocity": 102}, {"time": 48238, "pitch": 57, "duration": 80, "velocity": 67}, {"time": 48238, "pitch": 69, "duration": 80, "velocity": 77}, {"time": 48398, "pitch": 57, "duration": 79, "velocity": 71}, {"time": 48398, "pitch": 69, "duration": 79, "velocity": 81}, {"time": 48477, "pitch": 57, "duration": 152, "velocity": 102}, {"time": 48477, "pitch": 69, "duration": 152, "velocity": 112}, {"time": 48640, "pitch": 57, "duration": 81, "velocity": 92}, {"time": 48640, "pitch": 69, "duration": 81, "velocity": 102}, {"time": 48721, "pitch": 57, "duration": 81, "velocity": 67}, {"time": 48721, "pitch": 69, "duration": 81, "velocity": 77}, {"time": 48883, "pitch": 57, "duration": 81, "velocity": 71}, {"time": 48883, "pitch": 69, "duration": 81, "velocity": 81}, {"time": 48964, "pitch": 57, "duration": 149, "velocity": 102}, {"time": 48964, "pitch": 69, "duration": 149, "velocity": 112}, {"time": 49123, "pitch": 57, "duration": 80, "velocity": 92}, {"time": 49123, "pitch": 69, "duration": 80, "velocity": 102}, {"time": 49203, "pitch": 57, "duration": 80, "velocity": 67}, {"time": 49203, "pitch": 69, "duration": 80, "velocity": 77}, {"time": 49363, "pitch": 57, "duration": 79, "velocity": 71}, {"time": 49363, "pitch": 69, "duration": 79, "velocity": 81}, {"time": 49442, "pitch": 57, "duration": 150, "velocity": 102}, {"time": 49442, "pitch": 69, "duration": 150, "velocity": 112}, {"time": 49602, "pitch": 57, "duration": 80, "velocity": 92}, {"time": 49602, "pitch": 69, "duration": 80, "velocity": 102}, {"time": 49682, "pitch": 57, "duration": 79, "velocity": 67}, {"time": 49682, "pitch": 69, "duration": 79, "velocity": 77}, {"time": 49841, "pitch": 57, "duration": 80, "velocity": 71}, {"time": 49841, "pitch": 69, "duration": 80, "velocity": 81}, {"time": 49921, "pitch": 57, "duration": 150, "velocity": 102}, {"time": 49921, "pitch": 69, "duration": 150, "velocity": 112}, {"time": 50081, "pitch": 57, "duration": 79, "velocity": 92}, {"time": 50081, "pitch": 69, "duration": 79, "velocity": 102}, {"time": 50160, "pitch": 57, "duration": 80, "velocity": 67}, {"time": 50160, "pitch": 69, "duration": 80, "velocity": 77}, {"time": 50320, "pitch": 57, "duration": 80, "velocity": 71}, {"time": 50320, "pitch": 69, "duration": 80, "velocity": 81}, {"time": 50400, "pitch": 57, "duration": 149, "velocity": 102}, {"time": 50400, "pitch": 69, "duration": 149, "velocity": 112}, {"time": 50559, "pitch": 57, "duration": 80, "velocity": 92}, {"time": 50559, "pitch": 69, "duration": 80, "velocity": 102}, {"time": 50639, "pitch": 57, "duration": 80, "velocity": 67}, {"time": 50639, "pitch": 69, "duration": 80, "velocity": 77}, {"time": 50799, "pitch": 57, "duration": 79, "velocity": 71}, {"time": 50799, "pitch": 69, "duration": 79, "velocity": 81}, {"time": 50878, "pitch": 57, "duration": 150, "velocity": 102}, {"time": 50878, "pitch": 69, "duration": 150, "velocity": 112}, {"time": 51038, "pitch": 57, "duration": 80, "velocity": 92}, {"time": 51038, "pitch": 69, "duration": 80, "velocity": 102}, {"time": 51118, "pitch": 57, "duration": 79, "velocity": 67}, {"time": 51118, "pitch": 69, "duration": 79, "velocity": 77}, {"time": 51277, "pitch": 57, "duration": 80, "velocity": 71}, {"time": 51277, "pitch": 69, "duration": 80, "velocity": 81}, {"time": 51357, "pitch": 57, "duration": 152, "velocity": 102}, {"time": 51357, "pitch": 69, "duration": 152, "velocity": 112}, {"time": 51519, "pitch": 57, "duration": 81, "velocity": 92}, {"time": 51519, "pitch": 69, "duration": 81, "velocity": 102}, {"time": 51600, "pitch": 57, "duration": 81, "velocity": 67}, {"time": 51600, "pitch": 69, "duration": 81, "velocity": 77}, {"time": 51762, "pitch": 57, "duration": 81, "velocity": 71}, {"time": 51762, "pitch": 69, "duration": 81, "velocity": 81}, {"time": 51843, "pitch": 57, "duration": 150, "velocity": 102}, {"time": 51843, "pitch": 69, "duration": 150, "velocity": 112}, {"time": 52003, "pitch": 57, "duration": 80, "velocity": 92}, {"time": 52003, "pitch": 69, "duration": 80, "velocity": 102}, {"time": 52083, "pitch": 57, "duration": 79, "velocity": 67}, {"time": 52083, "pitch": 69, "duration": 79, "velocity": 77}, {"time": 52242, "pitch": 57, "duration": 80, "velocity": 71}, {"time": 52242, "pitch": 69, "duration": 80, "velocity": 81}, {"time": 52322, "pitch": 57, "duration": 149, "velocity": 102}, {"time": 52322, "pitch": 69, "duration": 149, "velocity": 112}, {"time": 52481, "pitch": 57, "duration": 80, "velocity": 92}, {"time": 52481, "pitch": 69, "duration": 80, "velocity": 102}, {"time": 52561, "pitch": 57, "duration": 80, "velocity": 67}, {"time": 52561, "pitch": 69, "duration": 80, "velocity": 77}, {"time": 52721, "pitch": 57, "duration": 80, "velocity": 71}, {"time": 52721, "pitch": 69, "duration": 80, "velocity": 81}, {"time": 52801, "pitch": 57, "duration": 149, "velocity": 102}, {"time": 52801, "pitch": 69, "duration": 149, "velocity": 112}, {"time": 52960, "pitch": 57, "duration": 80, "velocity": 92}, {"time": 52960, "pitch": 69, "duration": 80, "velocity": 102}, {"time": 53040, "pitch": 57, "duration": 80, "velocity": 67}, {"time": 53040, "pitch": 69, "duration": 80, "velocity": 77}, {"time": 53199, "pitch": 57, "duration": 80, "velocity": 71}, {"time": 53199, "pitch": 69, "duration": 80, "velocity": 81}, {"time": 53279, "pitch": 57, "duration": 150, "velocity": 102}, {"time": 53279, "pitch": 69, "duration": 150, "velocity": 112}, {"time": 53439, "pitch": 57, "duration": 80, "velocity": 92}, {"time": 53439, "pitch": 69, "duration": 80, "velocity": 102}, {"time": 53519, "pitch": 57, "duration": 79, "velocity": 67}, {"time": 53519, "pitch": 69, "duration": 79, "velocity": 77}, {"time": 53678, "pitch": 57, "duration": 80, "velocity": 71}, {"time": 53678, "pitch": 69, "duration": 80, "velocity": 81}, {"time": 53758, "pitch": 57, "duration": 150, "velocity": 102}, {"time": 53758, "pitch": 69, "duration": 150, "velocity": 112}, {"time": 53918, "pitch": 57, "duration": 79, "velocity": 92}, {"time": 53918, "pitch": 69, "duration": 79, "velocity": 102}, {"time": 53997, "pitch": 57, "duration": 80, "velocity": 67}, {"time": 53997, "pitch": 69, "duration": 80, "velocity": 77}, {"time": 54157, "pitch": 57, "duration": 80, "velocity": 71}, {"time": 54157, "pitch": 69, "duration": 80, "velocity": 81}, {"time": 54237, "pitch": 57, "duration": 152, "velocity": 102}, {"time": 54237, "pitch": 69, "duration": 152, "velocity": 112}, {"time": 54399, "pitch": 57, "duration": 81, "velocity": 92}, {"time": 54399, "pitch": 69, "duration": 81, "velocity": 102}, {"time": 54480, "pitch": 57, "duration": 81, "velocity": 67}, {"time": 54480, "pitch": 69, "duration": 81, "velocity": 77}, {"time": 54642, "pitch": 57, "duration": 81, "velocity": 71}, {"time": 54642, "pitch": 69, "duration": 81, "velocity": 81}, {"time": 54723, "pitch": 57, "duration": 149, "velocity": 102}, {"time": 54723, "pitch": 69, "duration": 149, "velocity": 112}, {"time": 54882, "pitch": 57, "duration": 80, "velocity": 92}, {"time": 54882, "pitch": 69, "duration": 80, "velocity": 102}, {"time": 54962, "pitch": 57, "duration": 80, "velocity": 67}, {"time": 54962, "pitch": 69, "duration": 80, "velocity": 77}, {"time": 55122, "pitch": 57, "duration": 79, "velocity": 71}, {"time": 55122, "pitch": 69, "duration": 79, "velocity": 81}, {"time": 55201, "pitch": 57, "duration": 150, "velocity": 102}, {"time": 55201, "pitch": 69, "duration": 150, "velocity": 112}, {"time": 55361, "pitch": 57, "duration": 80, "velocity": 92}, {"time": 55361, "pitch": 69, "duration": 80, "velocity": 102}, {"time": 55441, "pitch": 57, "duration": 80, "velocity": 67}, {"time": 55441, "pitch": 69, "duration": 80, "velocity": 77}, {"time": 55600, "pitch": 57, "duration": 80, "velocity": 71}, {"time": 55600, "pitch": 69, "duration": 80, "velocity": 81}, {"time": 55680, "pitch": 57, "duration": 150, "velocity": 102}, {"time": 55680, "pitch": 69, "duration": 150, "velocity": 112}, {"time": 55840, "pitch": 57, "duration": 79, "velocity": 92}, {"time": 55840, "pitch": 69, "duration": 79, "velocity": 102}, {"time": 55919, "pitch": 57, "duration": 80, "velocity": 67}, {"time": 55919, "pitch": 69, "duration": 80, "velocity": 77}, {"time": 56079, "pitch": 57, "duration": 80, "velocity": 71}, {"time": 56079, "pitch": 69, "duration": 80, "velocity": 81}, {"time": 56159, "pitch": 57, "duration": 149, "velocity": 102}, {"time": 56159, "pitch": 69, "duration": 149, "velocity": 112}, {"time": 56318, "pitch": 57, "duration": 80, "velocity": 92}, {"time": 56318, "pitch": 69, "duration": 80, "velocity": 102}, {"time": 56398, "pitch": 57, "duration": 80, "velocity": 67}, {"time": 56398, "pitch": 69, "duration": 80, "velocity": 77}, {"time": 56558, "pitch": 57, "duration": 80, "velocity": 71}, {"time": 56558, "pitch": 69, "duration": 80, "velocity": 81}, {"time": 56638, "pitch": 57, "duration": 151, "velocity": 102}, {"time": 56638, "pitch": 69, "duration": 151, "velocity": 112}, {"time": 56800, "pitch": 57, "duration": 81, "velocity": 92}, {"time": 56800, "pitch": 69, "duration": 81, "velocity": 102}, {"time": 56881, "pitch": 57, "duration": 81, "velocity": 67}, {"time": 56881, "pitch": 69, "duration": 81, "velocity": 77}, {"time": 57043, "pitch": 57, "duration": 81, "velocity": 71}, {"time": 57043, "pitch": 69, "duration": 81, "velocity": 81}, {"time": 57124, "pitch": 57, "duration": 149, "velocity": 102}, {"time": 57124, "pitch": 69, "duration": 149, "velocity": 112}, {"time": 57283, "pitch": 57, "duration": 80, "velocity": 92}, {"time": 57283, "pitch": 69, "duration": 80, "velocity": 102}, {"time": 57363, "pitch": 57, "duration": 80, "velocity": 67}, {"time": 57363, "pitch": 69, "duration": 80, "velocity": 77}, {"time": 57523, "pitch": 57, "duration": 79, "velocity": 71}, {"time": 57523, "pitch": 69, "duration": 79, "velocity": 81}, {"time": 57602, "pitch": 57, "duration": 150, "velocity": 102}, {"time": 57602, "pitch": 69, "duration": 150, "velocity": 112}, {"time": 57762, "pitch": 57, "duration": 80, "velocity": 92}, {"time": 57762, "pitch": 69, "duration": 80, "velocity": 102}, {"time": 57842, "pitch": 57, "duration": 79, "velocity": 67}, {"time": 57842, "pitch": 69, "duration": 79, "velocity": 77}, {"time": 58001, "pitch": 57, "duration": 80, "velocity": 71}, {"time": 58001, "pitch": 69, "duration": 80, "velocity": 81}, {"time": 58081, "pitch": 57, "duration": 150, "velocity": 102}, {"time": 58081, "pitch": 69, "duration": 150, "velocity": 112}, {"time": 58241, "pitch": 57, "duration": 79, "velocity": 92}, {"time": 58241, "pitch": 69, "duration": 79, "velocity": 102}, {"time": 58320, "pitch": 57, "duration": 80, "velocity": 67}, {"time": 58320, "pitch": 69, "duration": 80, "velocity": 77}, {"time": 58480, "pitch": 57, "duration": 80, "velocity": 71}, {"time": 58480, "pitch": 69, "duration": 80, "velocity": 81}, {"time": 58560, "pitch": 57, "duration": 149, "velocity": 102}, {"time": 58560, "pitch": 69, "duration": 149, "velocity": 112}, {"time": 58719, "pitch": 57, "duration": 80, "velocity": 92}, {"time": 58719, "pitch": 69, "duration": 80, "velocity": 102}, {"time": 58799, "pitch": 57, "duration": 80, "velocity": 67}, {"time": 58799, "pitch": 69, "duration": 80, "velocity": 77}, {"time": 58959, "pitch": 57, "duration": 79, "velocity": 71}, {"time": 58959, "pitch": 69, "duration": 79, "velocity": 81}, {"time": 59038, "pitch": 57, "duration": 150, "velocity": 102}, {"time": 59038, "pitch": 69, "duration": 150, "velocity": 112}, {"time": 59198, "pitch": 57, "duration": 80, "velocity": 92}, {"time": 59198, "pitch": 69, "duration": 80, "velocity": 102}, {"time": 59278, "pitch": 57, "duration": 80, "velocity": 67}, {"time": 59278, "pitch": 69, "duration": 80, "velocity": 77}, {"time": 59437, "pitch": 57, "duration": 80, "velocity": 71}, {"time": 59437, "pitch": 69, "duration": 80, "velocity": 81}, {"time": 59517, "pitch": 57, "duration": 152, "velocity": 102}, {"time": 59517, "pitch": 69, "duration": 152, "velocity": 112}, {"time": 59679, "pitch": 57, "duration": 81, "velocity": 92}, {"time": 59679, "pitch": 69, "duration": 81, "velocity": 102}, {"time": 59760, "pitch": 57, "duration": 81, "velocity": 67}, {"time": 59760, "pitch": 69, "duration": 81, "velocity": 77}, {"time": 59922, "pitch": 57, "duration": 81, "velocity": 71}, {"time": 59922, "pitch": 69, "duration": 81, "velocity": 81}, {"time": 98402, "pitch": 57, "duration": 150, "velocity": 102}, {"time": 98402, "pitch": 69, "duration": 150, "velocity": 112}, {"time": 98562, "pitch": 57, "duration": 80, "velocity": 92}, {"time": 98562, "pitch": 69, "duration": 80, "velocity": 102}, {"time": 98642, "pitch": 57, "duration": 80, "velocity": 67}, {"time": 98642, "pitch": 69, "duration": 80, "velocity": 77}, {"time": 98801, "pitch": 57, "duration": 80, "velocity": 71}, {"time": 98801, "pitch": 69, "duration": 80, "velocity": 81}, {"time": 98881, "pitch": 57, "duration": 150, "velocity": 102}, {"time": 98881, "pitch": 69, "duration": 150, "velocity": 112}, {"time": 99041, "pitch": 57, "duration": 79, "velocity": 92}, {"time": 99041, "pitch": 69, "duration": 79, "velocity": 102}, {"time": 99120, "pitch": 57, "duration": 80, "velocity": 67}, {"time": 99120, "pitch": 69, "duration": 80, "velocity": 77}, {"time": 99280, "pitch": 57, "duration": 80, "velocity": 71}, {"time": 99280, "pitch": 69, "duration": 80, "velocity": 81}, {"time": 99360, "pitch": 57, "duration": 149, "velocity": 102}, {"time": 99360, "pitch": 69, "duration": 149, "velocity": 112}, {"time": 99519, "pitch": 57, "duration": 80, "velocity": 92}, {"time": 99519, "pitch": 69, "duration": 80, "velocity": 102}, {"time": 99599, "pitch": 57, "duration": 80, "velocity": 67}, {"time": 99599, "pitch": 69, "duration": 80, "velocity": 77}, {"time": 99759, "pitch": 57, "duration": 80, "velocity": 71}, {"time": 99759, "pitch": 69, "duration": 80, "velocity": 81}, {"time": 99839, "pitch": 57, "duration": 149, "velocity": 102}, {"time": 99839, "pitch": 69, "duration": 149, "velocity": 112}, {"time": 99998, "pitch": 57, "duration": 80, "velocity": 92}, {"time": 99998, "pitch": 69, "duration": 80, "velocity": 102}, {"time": 100078, "pitch": 57, "duration": 80, "velocity": 67}, {"time": 100078, "pitch": 69, "duration": 80, "velocity": 77}, {"time": 100237, "pitch": 57, "duration": 80, "velocity": 71}, {"time": 100237, "pitch": 69, "duration": 80, "velocity": 81}, {"time": 100317, "pitch": 57, "duration": 152, "velocity": 102}, {"time": 100317, "pitch": 69, "duration": 152, "velocity": 112}, {"time": 100479, "pitch": 57, "duration": 81, "velocity": 92}, {"time": 100479, "pitch": 69, "duration": 81, "velocity": 102}, {"time": 100560, "pitch": 57, "duration": 81, "velocity": 67}, {"time": 100560, "pitch": 69, "duration": 81, "velocity": 77}, {"time": 100722, "pitch": 57, "duration": 81, "velocity": 71}, {"time": 100722, "pitch": 69, "duration": 81, "velocity": 81}, {"time": 100803, "pitch": 57, "duration": 150, "velocity": 102}, {"time": 100803, "pitch": 69, "duration": 150, "velocity": 112}, {"time": 100963, "pitch": 57, "duration": 80, "velocity": 92}, {"time": 100963, "pitch": 69, "duration": 80, "velocity": 102}, {"time": 101043, "pitch": 57, "duration": 79, "velocity": 67}, {"time": 101043, "pitch": 69, "duration": 79, "velocity": 77}, {"time": 101202, "pitch": 57, "duration": 80, "velocity": 71}, {"time": 101202, "pitch": 69, "duration": 80, "velocity": 81}, {"time": 101282, "pitch": 57, "duration": 150, "velocity": 102}, {"time": 101282, "pitch": 69, "duration": 150, "velocity": 112}, {"time": 101442, "pitch": 57, "duration": 79, "velocity": 92}, {"time": 101442, "pitch": 69, "duration": 79, "velocity": 102}, {"time": 101521, "pitch": 57, "duration": 80, "velocity": 67}, {"time": 101521, "pitch": 69, "duration": 80, "velocity": 77}, {"time": 101681, "pitch": 57, "duration": 80, "velocity": 71}, {"time": 101681, "pitch": 69, "duration": 80, "velocity": 81}, {"time": 101761, "pitch": 57, "duration": 149, "velocity": 102}, {"time": 101761, "pitch": 69, "duration": 149, "velocity": 112}, {"time": 101920, "pitch": 57, "duration": 80, "velocity": 92}, {"time": 101920, "pitch": 69, "duration": 80, "velocity": 102}, {"time": 102000, "pitch": 57, "duration": 80, "velocity": 67}, {"time": 102000, "pitch": 69, "duration": 80, "velocity": 77}, {"time": 102160, "pitch": 57, "duration": 79, "velocity": 71}, {"time": 102160, "pitch": 69, "duration": 79, "velocity": 81}, {"time": 102239, "pitch": 57, "duration": 150, "velocity": 102}, {"time": 102239, "pitch": 69, "duration": 150, "velocity": 112}, {"time": 102399, "pitch": 57, "duration": 80, "velocity": 92}, {"time": 102399, "pitch": 69, "duration": 80, "velocity": 102}, {"time": 102479, "pitch": 57, "duration": 80, "velocity": 67}, {"time": 102479, "pitch": 69, "duration": 80, "velocity": 77}, {"time": 102638, "pitch": 57, "duration": 80, "velocity": 71}, {"time": 102638, "pitch": 69, "duration": 80, "velocity": 81}, {"time": 102718, "pitch": 57, "duration": 150, "velocity": 102}, {"time": 102718, "pitch": 69, "duration": 150, "velocity": 112}, {"time": 102878, "pitch": 57, "duration": 79, "velocity": 92}, {"time": 102878, "pitch": 69, "duration": 79, "velocity": 102}, {"time": 102957, "pitch": 57, "duration": 80, "velocity": 67}, {"time": 102957, "pitch": 69, "duration": 80, "velocity": 77}, {"time": 103117, "pitch": 57, "duration": 80, "velocity": 71}, {"time": 103117, "pitch": 69, "duration": 80, "velocity": 81}, {"time": 103197, "pitch": 57, "duration": 152, "velocity": 102}, {"time": 103197, "pitch": 69, "duration": 152, "velocity": 112}, {"time": 103359, "pitch": 57, "duration": 81, "velocity": 92}, {"time": 103359, "pitch": 69, "duration": 81, "velocity": 102}, {"time": 103440, "pitch": 57, "duration": 81, "velocity": 67}, {"time": 103440, "pitch": 69, "duration": 81, "velocity": 77}, {"time": 103602, "pitch": 57, "duration": 81, "velocity": 71}, {"time": 103602, "pitch": 69, "duration": 81, "velocity": 81}, {"time": 103683, "pitch": 57, "duration": 150, "velocity": 102}, {"time": 103683, "pitch": 69, "duration": 150, "velocity": 112}, {"time": 103842, "pitch": 57, "duration": 80, "velocity": 92}, {"time": 103842, "pitch": 69, "duration": 80, "velocity": 102}, {"time": 103922, "pitch": 57, "duration": 80, "velocity": 67}, {"time": 103922, "pitch": 69, "duration": 80, "velocity": 77}, {"time": 104082, "pitch": 57, "duration": 80, "velocity": 71}, {"time": 104082, "pitch": 69, "duration": 80, "velocity": 81}, {"time": 104162, "pitch": 57, "duration": 149, "velocity": 102}, {"time": 104162, "pitch": 69, "duration": 149, "velocity": 112}, {"time": 104321, "pitch": 57, "duration": 80, "velocity": 92}, {"time": 104321, "pitch": 69, "duration": 80, "velocity": 102}, {"time": 104401, "pitch": 57, "duration": 80, "velocity": 67}, {"time": 104401, "pitch": 69, "duration": 80, "velocity": 77}, {"time": 104561, "pitch": 57, "duration": 79, "velocity": 71}, {"time": 104561, "pitch": 69, "duration": 79, "velocity": 81}, {"time": 104640, "pitch": 57, "duration": 150, "velocity": 102}, {"time": 104640, "pitch": 69, "duration": 150, "velocity": 112}, {"time": 104800, "pitch": 57, "duration": 80, "velocity": 92}, {"time": 104800, "pitch": 69, "duration": 80, "velocity": 102}, {"time": 104880, "pitch": 57, "duration": 79, "velocity": 67}, {"time": 104880, "pitch": 69, "duration": 79, "velocity": 77}, {"time": 105039, "pitch": 57, "duration": 80, "velocity": 71}, {"time": 105039, "pitch": 69, "duration": 80, "velocity": 81}, {"time": 105119, "pitch": 57, "duration": 150, "velocity": 102}, {"time": 105119, "pitch": 69, "duration": 150, "velocity": 112}, {"time": 105279, "pitch": 57, "duration": 79, "velocity": 92}, {"time": 105279, "pitch": 69, "duration": 79, "velocity": 102}, {"time": 105358, "pitch": 57, "duration": 80, "velocity": 67}, {"time": 105358, "pitch": 69, "duration": 80, "velocity": 77}, {"time": 105518, "pitch": 57, "duration": 80, "velocity": 71}, {"time": 105518, "pitch": 69, "duration": 80, "velocity": 81}, {"time": 105598, "pitch": 57, "duration": 149, "velocity": 102}, {"time": 105598, "pitch": 69, "duration": 149, "velocity": 112}, {"time": 105757, "pitch": 57, "duration": 80, "velocity": 92}, {"time": 105757, "pitch": 69, "duration": 80, "velocity": 102}, {"time": 105837, "pitch": 57, "duration": 80, "velocity": 67}, {"time": 105837, "pitch": 69, "duration": 80, "velocity": 77}, {"time": 105997, "pitch": 57, "duration": 79, "velocity": 71}, {"time": 105997, "pitch": 69, "duration": 79, "velocity": 81}, {"time": 106076, "pitch": 57, "duration": 152, "velocity": 102}, {"time": 106076, "pitch": 69, "duration": 152, "velocity": 112}, {"time": 106238, "pitch": 57, "duration": 81, "velocity": 92}, {"time": 106238, "pitch": 69, "duration": 81, "velocity": 102}, {"time": 106319, "pitch": 57, "duration": 81, "velocity": 67}, {"time": 106319, "pitch": 69, "duration": 81, "velocity": 77}, {"time": 106481, "pitch": 57, "duration": 81, "velocity": 71}, {"time": 106481, "pitch": 69, "duration": 81, "velocity": 81}, {"time": 106562, "pitch": 57, "duration": 150, "velocity": 102}, {"time": 106562, "pitch": 69, "duration": 150, "velocity": 112}, {"time": 106722, "pitch": 57, "duration": 80, "velocity": 92}, {"time": 106722, "pitch": 69, "duration": 80, "velocity": 102}, {"time": 106802, "pitch": 57, "duration": 80, "velocity": 67}, {"time": 106802, "pitch": 69, "duration": 80, "velocity": 77}, {"time": 106961, "pitch": 57, "duration": 80, "velocity": 71}, {"time": 106961, "pitch": 69, "duration": 80, "velocity": 81}, {"time": 107041, "pitch": 57, "duration": 150, "velocity": 102}, {"time": 107041, "pitch": 69, "duration": 150, "velocity": 112}, {"time": 107201, "pitch": 57, "duration": 80, "velocity": 92}, {"time": 107201, "pitch": 69, "duration": 80, "velocity": 102}, {"time": 107281, "pitch": 57, "duration": 79, "velocity": 67}, {"time": 107281, "pitch": 69, "duration": 79, "velocity": 77}, {"time": 107440, "pitch": 57, "duration": 80, "velocity": 71}, {"time": 107440, "pitch": 69, "duration": 80, "velocity": 81}, {"time": 107520, "pitch": 57, "duration": 149, "velocity": 102}, {"time": 107520, "pitch": 69, "duration": 149, "velocity": 112}, {"time": 107679, "pitch": 57, "duration": 80, "velocity": 92}, {"time": 107679, "pitch": 69, "duration": 80, "velocity": 102}, {"time": 107759, "pitch": 57, "duration": 80, "velocity": 67}, {"time": 107759, "pitch": 69, "duration": 80, "velocity": 77}, {"time": 107919, "pitch": 57, "duration": 80, "velocity": 71}, {"time": 107919, "pitch": 69, "duration": 80, "velocity": 81}, {"time": 107999, "pitch": 57, "duration": 149, "velocity": 102}, {"time": 107999, "pitch": 69, "duration": 149, "velocity": 112}, {"time": 108158, "pitch": 57, "duration": 80, "velocity": 92}, {"time": 108158, "pitch": 69, "duration": 80, "velocity": 102}, {"time": 108238, "pitch": 57, "duration": 80, "velocity": 67}, {"time": 108238, "pitch": 69, "duration": 80, "velocity": 77}, {"time": 108397, "pitch": 57, "duration": 80, "velocity": 71}, {"time": 108397, "pitch": 69, "duration": 80, "velocity": 81}, {"time": 108477, "pitch": 57, "duration": 152, "velocity": 102}, {"time": 108477, "pitch": 69, "duration": 152, "velocity": 112}, {"time": 108639, "pitch": 57, "duration": 81, "velocity": 92}, {"time": 108639, "pitch": 69, "duration": 81, "velocity": 102}, {"time": 108720, "pitch": 57, "duration": 81, "velocity": 67}, {"time": 108720, "pitch": 69, "duration": 81, "velocity": 77}, {"time": 108882, "pitch": 57, "duration": 81, "velocity": 71}, {"time": 108882, "pitch": 69, "duration": 81, "velocity": 81}, {"time": 108963, "pitch": 57, "duration": 150, "velocity": 102}, {"time": 108963, "pitch": 69, "duration": 150, "velocity": 112}, {"time": 109123, "pitch": 57, "duration": 80, "velocity": 92}, {"time": 109123, "pitch": 69, "duration": 80, "velocity": 102}, {"time": 109203, "pitch": 57, "duration": 80, "velocity": 67}, {"time": 109203, "pitch": 69, "duration": 80, "velocity": 77}, {"time": 109362, "pitch": 57, "duration": 80, "velocity": 71}, {"time": 109362, "pitch": 69, "duration": 80, "velocity": 81}, {"time": 109442, "pitch": 57, "duration": 150, "velocity": 102}, {"time": 109442, "pitch": 69, "duration": 150, "velocity": 112}, {"time": 109602, "pitch": 57, "duration": 79, "velocity": 92}, {"time": 109602, "pitch": 69, "duration": 79, "velocity": 102}, {"time": 109681, "pitch": 57, "duration": 80, "velocity": 67}, {"time": 109681, "pitch": 69, "duration": 80, "velocity": 77}, {"time": 109841, "pitch": 57, "duration": 80, "velocity": 71}, {"time": 109841, "pitch": 69, "duration": 80, "velocity": 81}, {"time": 109921, "pitch": 57, "duration": 149, "velocity": 102}, {"time": 109921, "pitch": 69, "duration": 149, "velocity": 112}, {"time": 110080, "pitch": 57, "duration": 80, "velocity": 92}, {"time": 110080, "pitch": 69, "duration": 80, "velocity": 102}, {"time": 110160, "pitch": 57, "duration": 80, "velocity": 67}, {"time": 110160, "pitch": 69, "duration": 80, "velocity": 77}, {"time": 110320, "pitch": 57, "duration": 79, "velocity": 71}, {"time": 110320, "pitch": 69, "duration": 79, "velocity": 81}, {"time": 110399, "pitch": 57, "duration": 150, "velocity": 102}, {"time": 110399, "pitch": 69, "duration": 150, "velocity": 112}, {"time": 110559, "pitch": 57, "duration": 80, "velocity": 92}, {"time": 110559, "pitch": 69, "duration": 80, "velocity": 102}, {"time": 110639, "pitch": 57, "duration": 80, "velocity": 67}, {"time": 110639, "pitch": 69, "duration": 80, "velocity": 77}, {"time": 110798, "pitch": 57, "duration": 80, "velocity": 71}, {"time": 110798, "pitch": 69, "duration": 80, "velocity": 81}, {"time": 110878, "pitch": 57, "duration": 150, "velocity": 102}, {"time": 110878, "pitch": 69, "duration": 150, "velocity": 112}, {"time": 111038, "pitch": 57, "duration": 79, "velocity": 92}, {"time": 111038, "pitch": 69, "duration": 79, "velocity": 102}, {"time": 111117, "pitch": 57, "duration": 80, "velocity": 67}, {"time": 111117, "pitch": 69, "duration": 80, "velocity": 77}, {"time": 111277, "pitch": 57, "duration": 80, "velocity": 71}, {"time": 111277, "pitch": 69, "duration": 80, "velocity": 81}, {"time": 111357, "pitch": 57, "duration": 152, "velocity": 102}, {"time": 111357, "pitch": 69, "duration": 152, "velocity": 112}, {"time": 111519, "pitch": 57, "duration": 81, "velocity": 92}, {"time": 111519, "pitch": 69, "duration": 81, "velocity": 102}, {"time": 111600, "pitch": 57, "duration": 81, "velocity": 67}, {"time": 111600, "pitch": 69, "duration": 81, "velocity": 77}, {"time": 111762, "pitch": 57, "duration": 81, "velocity": 71}, {"time": 111762, "pitch": 69, "duration": 81, "velocity": 81}, {"time": 111843, "pitch": 57, "duration": 150, "velocity": 102}, {"time": 111843, "pitch": 69, "duration": 150, "velocity": 112}, {"time": 112003, "pitch": 57, "duration": 79, "velocity": 92}, {"time": 112003, "pitch": 69, "duration": 79, "velocity": 102}, {"time": 112082, "pitch": 57, "duration": 80, "velocity": 67}, {"time": 112082, "pitch": 69, "duration": 80, "velocity": 77}, {"time": 112242, "pitch": 57, "duration": 80, "velocity": 71}, {"time": 112242, "pitch": 69, "duration": 80, "velocity": 81}, {"time": 112322, "pitch": 57, "duration": 149, "velocity": 102}, {"time": 112322, "pitch": 69, "duration": 149, "velocity": 112}, {"time": 112481, "pitch": 57, "duration": 80, "velocity": 92}, {"time": 112481, "pitch": 69, "duration": 80, "velocity": 102}, {"time": 112561, "pitch": 57, "duration": 80, "velocity": 67}, {"time": 112561, "pitch": 69, "duration": 80, "velocity": 77}, {"time": 112721, "pitch": 57, "duration": 79, "velocity": 71}, {"time": 112721, "pitch": 69, "duration": 79, "velocity": 81}, {"time": 112800, "pitch": 57, "duration": 150, "velocity": 102}, {"time": 112800, "pitch": 69, "duration": 150, "velocity": 112}, {"time": 112960, "pitch": 57, "duration": 80, "velocity": 92}, {"time": 112960, "pitch": 69, "duration": 80, "velocity": 102}, {"time": 113040, "pitch": 57, "duration": 79, "velocity": 67}, {"time": 113040, "pitch": 69, "duration": 79, "velocity": 77}, {"time": 113199, "pitch": 57, "duration": 80, "velocity": 71}, {"time": 113199, "pitch": 69, "duration": 80, "velocity": 81}, {"time": 113279, "pitch": 57, "duration": 150, "velocity": 102}, {"time": 113279, "pitch": 69, "duration": 150, "velocity": 112}, {"time": 113439, "pitch": 57, "duration": 79, "velocity": 92}, {"time": 113439, "pitch": 69, "duration": 79, "velocity": 102}, {"time": 113518, "pitch": 57, "duration": 80, "velocity": 67}, {"time": 113518, "pitch": 69, "duration": 80, "velocity": 77}, {"time": 113678, "pitch": 57, "duration": 80, "velocity": 71}, {"time": 113678, "pitch": 69, "duration": 80, "velocity": 81}, {"time": 113758, "pitch": 57, "duration": 149, "velocity": 102}, {"time": 113758, "pitch": 69, "duration": 149, "velocity": 112}, {"time": 113917, "pitch": 57, "duration": 80, "velocity": 92}, {"time": 113917, "pitch": 69, "duration": 80, "velocity": 102}, {"time": 113997, "pitch": 57, "duration": 80, "velocity": 67}, {"time": 113997, "pitch": 69, "duration": 80, "velocity": 77}, {"time": 114157, "pitch": 57, "duration": 79, "velocity": 71}, {"time": 114157, "pitch": 69, "duration": 79, "velocity": 81}, {"time": 114236, "pitch": 57, "duration": 152, "velocity": 102}, {"time": 114236, "pitch": 69, "duration": 152, "velocity": 112}, {"time": 114398, "pitch": 57, "duration": 81, "velocity": 92}, {"time": 114398, "pitch": 69, "duration": 81, "velocity": 102}, {"time": 114479, "pitch": 57, "duration": 81, "velocity": 67}, {"time": 114479, "pitch": 69, "duration": 81, "velocity": 77}, {"time": 114642, "pitch": 57, "duration": 81, "velocity": 71}, {"time": 114642, "pitch": 69, "duration": 81, "velocity": 81}, {"time": 114723, "pitch": 57, "duration": 149, "velocity": 102}, {"time": 114723, "pitch": 69, "duration": 149, "velocity": 112}, {"time": 114882, "pitch": 57, "duration": 80, "velocity": 92}, {"time": 114882, "pitch": 69, "duration": 80, "velocity": 102}, {"time": 114962, "pitch": 57, "duration": 80, "velocity": 67}, {"time": 114962, "pitch": 69, "duration": 80, "velocity": 77}, {"time": 115121, "pitch": 57, "duration": 80, "velocity": 71}, {"time": 115121, "pitch": 69, "duration": 80, "velocity": 81}, {"time": 115201, "pitch": 57, "duration": 150, "velocity": 102}, {"time": 115201, "pitch": 69, "duration": 150, "velocity": 112}, {"time": 115361, "pitch": 57, "duration": 80, "velocity": 92}, {"time": 115361, "pitch": 69, "duration": 80, "velocity": 102}, {"time": 115441, "pitch": 57, "duration": 79, "velocity": 67}, {"time": 115441, "pitch": 69, "duration": 79, "velocity": 77}, {"time": 115600, "pitch": 57, "duration": 80, "velocity": 71}, {"time": 115600, "pitch": 69, "duration": 80, "velocity": 81}, {"time": 115680, "pitch": 57, "duration": 149, "velocity": 102}, {"time": 115680, "pitch": 69, "duration": 149, "velocity": 112}, {"time": 115839, "pitch": 57, "duration": 80, "velocity": 92}, {"time": 115839, "pitch": 69, "duration": 80, "velocity": 102}, {"time": 115919, "pitch": 57, "duration": 80, "velocity": 67}, {"time": 115919, "pitch": 69, "duration": 80, "velocity": 77}, {"time": 116079, "pitch": 57, "duration": 80, "velocity": 71}, {"time": 116079, "pitch": 69, "duration": 80, "velocity": 81}, {"time": 116159, "pitch": 57, "duration": 149, "velocity": 102}, {"time": 116159, "pitch": 69, "duration": 149, "velocity": 112}, {"time": 116318, "pitch": 57, "duration": 80, "velocity": 92}, {"time": 116318, "pitch": 69, "duration": 80, "velocity": 102}, {"time": 116398, "pitch": 57, "duration": 80, "velocity": 67}, {"time": 116398, "pitch": 69, "duration": 80, "velocity": 77}, {"time": 116557, "pitch": 57, "duration": 80, "velocity": 71}, {"time": 116557, "pitch": 69, "duration": 80, "velocity": 81}, {"time": 116637, "pitch": 57, "duration": 152, "velocity": 102}, {"time": 116637, "pitch": 69, "duration": 152, "velocity": 112}, {"time": 116799, "pitch": 57, "duration": 81, "velocity": 92}, {"time": 116799, "pitch": 69, "duration": 81, "velocity": 102}, {"time": 116880, "pitch": 57, "duration": 81, "velocity": 67}, {"time": 116880, "pitch": 69, "duration": 81, "velocity": 77}, {"time": 117042, "pitch": 57, "duration": 81, "velocity": 71}, {"time": 117042, "pitch": 69, "duration": 81, "velocity": 81}, {"time": 117123, "pitch": 57, "duration": 150, "velocity": 102}, {"time": 117123, "pitch": 69, "duration": 150, "velocity": 112}, {"time": 117283, "pitch": 57, "duration": 80, "velocity": 92}, {"time": 117283, "pitch": 69, "duration": 80, "velocity": 102}, {"time": 117363, "pitch": 57, "duration": 80, "velocity": 67}, {"time": 117363, "pitch": 69, "duration": 80, "velocity": 77}, {"time": 117522, "pitch": 57, "duration": 80, "velocity": 71}, {"time": 117522, "pitch": 69, "duration": 80, "velocity": 81}, {"time": 117602, "pitch": 57, "duration": 150, "velocity": 102}, {"time": 117602, "pitch": 69, "duration": 150, "velocity": 112}, {"time": 117762, "pitch": 57, "duration": 79, "velocity": 92}, {"time": 117762, "pitch": 69, "duration": 79, "velocity": 102}, {"time": 117841, "pitch": 57, "duration": 80, "velocity": 67}, {"time": 117841, "pitch": 69, "duration": 80, "velocity": 77}, {"time": 118001, "pitch": 57, "duration": 80, "velocity": 71}, {"time": 118001, "pitch": 69, "duration": 80, "velocity": 81}, {"time": 118081, "pitch": 57, "duration": 149, "velocity": 102}, {"time": 118081, "pitch": 69, "duration": 149, "velocity": 112}, {"time": 118240, "pitch": 57, "duration": 80, "velocity": 92}, {"time": 118240, "pitch": 69, "duration": 80, "velocity": 102}, {"time": 118320, "pitch": 57, "duration": 80, "velocity": 67}, {"time": 118320, "pitch": 69, "duration": 80, "velocity": 77}, {"time": 118480, "pitch": 57, "duration": 79, "velocity": 71}, {"time": 118480, "pitch": 69, "duration": 79, "velocity": 81}, {"time": 118559, "pitch": 57, "duration": 150, "velocity": 102}, {"time": 118559, "pitch": 69, "duration": 150, "velocity": 112}, {"time": 118719, "pitch": 57, "duration": 80, "velocity": 92}, {"time": 118719, "pitch": 69, "duration": 80, "velocity": 102}, {"time": 118799, "pitch": 57, "duration": 80, "velocity": 67}, {"time": 118799, "pitch": 69, "duration": 80, "velocity": 77}, {"time": 118958, "pitch": 57, "duration": 80, "velocity": 71}, {"time": 118958, "pitch": 69, "duration": 80, "velocity": 81}, {"time": 119038, "pitch": 57, "duration": 150, "velocity": 102}, {"time": 119038, "pitch": 69, "duration": 150, "velocity": 112}, {"time": 119198, "pitch": 57, "duration": 79, "velocity": 92}, {"time": 119198, "pitch": 69, "duration": 79, "velocity": 102}, {"time": 119277, "pitch": 57, "duration": 80, "velocity": 67}, {"time": 119277, "pitch": 69, "duration": 80, "velocity": 77}, {"time": 119437, "pitch": 57, "duration": 80, "velocity": 71}, {"time": 119437, "pitch": 69, "duration": 80, "velocity": 81}, {"time": 136802, "pitch": 57, "duration": 149, "velocity": 102}, {"time": 136802, "pitch": 69, "duration": 149, "velocity": 112}, {"time": 136961, "pitch": 57, "duration": 80, "velocity": 92}, {"time": 136961, "pitch": 69, "duration": 80, "velocity": 102}, {"time": 137041, "pitch": 57, "duration": 80, "velocity": 67}, {"time": 137041, "pitch": 69, "duration": 80, "velocity": 77}, {"time": 137201, "pitch": 57, "duration": 79, "velocity": 71}, {"time": 137201, "pitch": 69, "duration": 79, "velocity": 81}, {"time": 137280, "pitch": 57, "duration": 150, "velocity": 102}, {"time": 137280, "pitch": 69, "duration": 150, "velocity": 112}, {"time": 137440, "pitch": 57, "duration": 80, "velocity": 92}, {"time": 137440, "pitch": 69, "duration": 80, "velocity": 102}, {"time": 137520, "pitch": 57, "duration": 79, "velocity": 67}, {"time": 137520, "pitch": 69, "duration": 79, "velocity": 77}, {"time": 137679, "pitch": 57, "duration": 80, "velocity": 71}, {"time": 137679, "pitch": 69, "duration": 80, "velocity": 81}, {"time": 137759, "pitch": 57, "duration": 150, "velocity": 102}, {"time": 137759, "pitch": 69, "duration": 150, "velocity": 112}, {"time": 137919, "pitch": 57, "duration": 79, "velocity": 92}, {"time": 137919, "pitch": 69, "duration": 79, "velocity": 102}, {"time": 137998, "pitch": 57, "duration": 80, "velocity": 67}, {"time": 137998, "pitch": 69, "duration": 80, "velocity": 77}, {"time": 138158, "pitch": 57, "duration": 80, "velocity": 71}, {"time": 138158, "pitch": 69, "duration": 80, "velocity": 81}, {"time": 138238, "pitch": 57, "duration": 149, "velocity": 102}, {"time": 138238, "pitch": 69, "duration": 149, "velocity": 112}, {"time": 138397, "pitch": 57, "duration": 80, "velocity": 92}, {"time": 138397, "pitch": 69, "duration": 80, "velocity": 102}, {"time": 138477, "pitch": 57, "duration": 80, "velocity": 67}, {"time": 138477, "pitch": 69, "duration": 80, "velocity": 77}, {"time": 138637, "pitch": 57, "duration": 79, "velocity": 71}, {"time": 138637, "pitch": 69, "duration": 79, "velocity": 81}, {"time": 138716, "pitch": 57, "duration": 152, "velocity": 102}, {"time": 138716, "pitch": 69, "duration": 152, "velocity": 112}, {"time": 138878, "pitch": 57, "duration": 81, "velocity": 92}, {"time": 138878, "pitch": 69, "duration": 81, "velocity": 102}, {"time": 138959, "pitch": 57, "duration": 82, "velocity": 67}, {"time": 138959, "pitch": 69, "duration": 82, "velocity": 77}, {"time": 139122, "pitch": 57, "duration": 81, "velocity": 71}, {"time": 139122, "pitch": 69, "duration": 81, "velocity": 81}, {"time": 139203, "pitch": 57, "duration": 149, "velocity": 102}, {"time": 139203, "pitch": 69, "duration": 149, "velocity": 112}, {"time": 139362, "pitch": 57, "duration": 80, "velocity": 92}, {"time": 139362, "pitch": 69, "duration": 80, "velocity": 102}, {"time": 139442, "pitch": 57, "duration": 80, "velocity": 67}, {"time": 139442, "pitch": 69, "duration": 80, "velocity": 77}, {"time": 139601, "pitch": 57, "duration": 80, "velocity": 71}, {"time": 139601, "pitch": 69, "duration": 80, "velocity": 81}, {"time": 139681, "pitch": 57, "duration": 150, "velocity": 102}, {"time": 139681, "pitch": 69, "duration": 150, "velocity": 112}, {"time": 139841, "pitch": 57, "duration": 80, "velocity": 92}, {"time": 139841, "pitch": 69, "duration": 80, "velocity": 102}, {"time": 139921, "pitch": 57, "duration": 79, "velocity": 67}, {"time": 139921, "pitch": 69, "duration": 79, "velocity": 77}, {"time": 140080, "pitch": 57, "duration": 80, "velocity": 71}, {"time": 140080, "pitch": 69, "duration": 80, "velocity": 81}, {"time": 140160, "pitch": 57, "duration": 150, "velocity": 102}, {"time": 140160, "pitch": 69, "duration": 150, "velocity": 112}, {"time": 140319, "pitch": 57, "duration": 80, "velocity": 92}, {"time": 140319, "pitch": 69, "duration": 80, "velocity": 102}, {"time": 140399, "pitch": 57, "duration": 80, "velocity": 67}, {"time": 140399, "pitch": 69, "duration": 80, "velocity": 77}, {"time": 140559, "pitch": 57, "duration": 80, "velocity": 71}, {"time": 140559, "pitch": 69, "duration": 80, "velocity": 81}, {"time": 140639, "pitch": 57, "duration": 149, "velocity": 102}, {"time": 140639, "pitch": 69, "duration": 149, "velocity": 112}, {"time": 140798, "pitch": 57, "duration": 80, "velocity": 92}, {"time": 140798, "pitch": 69, "duration": 80, "velocity": 102}, {"time": 140878, "pitch": 57, "duration": 80, "velocity": 67}, {"time": 140878, "pitch": 69, "duration": 80, "velocity": 77}, {"time": 141038, "pitch": 57, "duration": 79, "velocity": 71}, {"time": 141038, "pitch": 69, "duration": 79, "velocity": 81}, {"time": 141117, "pitch": 57, "duration": 152, "velocity": 102}, {"time": 141117, "pitch": 69, "duration": 152, "velocity": 112}, {"time": 141279, "pitch": 57, "duration": 81, "velocity": 92}, {"time": 141279, "pitch": 69, "duration": 81, "velocity": 102}, {"time": 141360, "pitch": 57, "duration": 81, "velocity": 67}, {"time": 141360, "pitch": 69, "duration": 81, "velocity": 77}, {"time": 141522, "pitch": 57, "duration": 81, "velocity": 71}, {"time": 141522, "pitch": 69, "duration": 81, "velocity": 81}, {"time": 141603, "pitch": 57, "duration": 150, "velocity": 102}, {"time": 141603, "pitch": 69, "duration": 150, "velocity": 112}, {"time": 141763, "pitch": 57, "duration": 80, "velocity": 92}, {"time": 141763, "pitch": 69, "duration": 80, "velocity": 102}, {"time": 141843, "pitch": 57, "duration": 80, "velocity": 67}, {"time": 141843, "pitch": 69, "duration": 80, "velocity": 77}, {"time": 142002, "pitch": 57, "duration": 80, "velocity": 71}, {"time": 142002, "pitch": 69, "duration": 80, "velocity": 81}, {"time": 142082, "pitch": 57, "duration": 150, "velocity": 102}, {"time": 142082, "pitch": 69, "duration": 150, "velocity": 112}, {"time": 142242, "pitch": 57, "duration": 79, "velocity": 92}, {"time": 142242, "pitch": 69, "duration": 79, "velocity": 102}, {"time": 142321, "pitch": 57, "duration": 80, "velocity": 67}, {"time": 142321, "pitch": 69, "duration": 80, "velocity": 77}, {"time": 142481, "pitch": 57, "duration": 80, "velocity": 71}, {"time": 142481, "pitch": 69, "duration": 80, "velocity": 81}, {"time": 142561, "pitch": 57, "duration": 149, "velocity": 102}, {"time": 142561, "pitch": 69, "duration": 149, "velocity": 112}, {"time": 142720, "pitch": 57, "duration": 80, "velocity": 92}, {"time": 142720, "pitch": 69, "duration": 80, "velocity": 102}, {"time": 142800, "pitch": 57, "duration": 80, "velocity": 67}, {"time": 142800, "pitch": 69, "duration": 80, "velocity": 77}, {"time": 142960, "pitch": 57, "duration": 80, "velocity": 71}, {"time": 142960, "pitch": 69, "duration": 80, "velocity": 81}, {"time": 143040, "pitch": 57, "duration": 149, "velocity": 102}, {"time": 143040, "pitch": 69, "duration": 149, "velocity": 112}, {"time": 143199, "pitch": 57, "duration": 80, "velocity": 92}, {"time": 143199, "pitch": 69, "duration": 80, "velocity": 102}, {"time": 143279, "pitch": 57, "duration": 80, "velocity": 67}, {"time": 143279, "pitch": 69, "duration": 80, "velocity": 77}, {"time": 143438, "pitch": 57, "duration": 80, "velocity": 71}, {"time": 143438, "pitch": 69, "duration": 80, "velocity": 81}, {"time": 143518, "pitch": 57, "duration": 150, "velocity": 102}, {"time": 143518, "pitch": 69, "duration": 150, "velocity": 112}, {"time": 143678, "pitch": 57, "duration": 80, "velocity": 92}, {"time": 143678, "pitch": 69, "duration": 80, "velocity": 102}, {"time": 143758, "pitch": 57, "duration": 79, "velocity": 67}, {"time": 143758, "pitch": 69, "duration": 79, "velocity": 77}, {"time": 143917, "pitch": 57, "duration": 80, "velocity": 71}, {"time": 143917, "pitch": 69, "duration": 80, "velocity": 81}, {"time": 143997, "pitch": 57, "duration": 152, "velocity": 102}, {"time": 143997, "pitch": 69, "duration": 152, "velocity": 112}, {"time": 144159, "pitch": 57, "duration": 81, "velocity": 92}, {"time": 144159, "pitch": 69, "duration": 81, "velocity": 102}, {"time": 144240, "pitch": 57, "duration": 81, "velocity": 67}, {"time": 144240, "pitch": 69, "duration": 81, "velocity": 77}, {"time": 144402, "pitch": 57, "duration": 81, "velocity": 71}, {"time": 144402, "pitch": 69, "duration": 81, "velocity": 81}, {"time": 144483, "pitch": 57, "duration": 150, "velocity": 102}, {"time": 144483, "pitch": 69, "duration": 150, "velocity": 112}, {"time": 144643, "pitch": 57, "duration": 79, "velocity": 92}, {"time": 144643, "pitch": 69, "duration": 79, "velocity": 102}, {"time": 144722, "pitch": 57, "duration": 80, "velocity": 67}, {"time": 144722, "pitch": 69, "duration": 80, "velocity": 77}, {"time": 144882, "pitch": 57, "duration": 80, "velocity": 71}, {"time": 144882, "pitch": 69, "duration": 80, "velocity": 81}, {"time": 144962, "pitch": 57, "duration": 149, "velocity": 102}, {"time": 144962, "pitch": 69, "duration": 149, "velocity": 112}, {"time": 145121, "pitch": 57, "duration": 80, "velocity": 92}, {"time": 145121, "pitch": 69, "duration": 80, "velocity": 102}, {"time": 145201, "pitch": 57, "duration": 80, "velocity": 67}, {"time": 145201, "pitch": 69, "duration": 80, "velocity": 77}, {"time": 145361, "pitch": 57, "duration": 79, "velocity": 71}, {"time": 145361, "pitch": 69, "duration": 79, "velocity": 81}, {"time": 145440, "pitch": 57, "duration": 150, "velocity": 102}, {"time": 145440, "pitch": 69, "duration": 150, "velocity": 112}, {"time": 145600, "pitch": 57, "duration": 80, "velocity": 92}, {"time": 145600, "pitch": 69, "duration": 80, "velocity": 102}, {"time": 145680, "pitch": 57, "duration": 80, "velocity": 67}, {"time": 145680, "pitch": 69, "duration": 80, "velocity": 77}, {"time": 145839, "pitch": 57, "duration": 80, "velocity": 71}, {"time": 145839, "pitch": 69, "duration": 80, "velocity": 81}, {"time": 145919, "pitch": 57, "duration": 150, "velocity": 102}, {"time": 145919, "pitch": 69, "duration": 150, "velocity": 112}, {"time": 146079, "pitch": 57, "duration": 79, "velocity": 92}, {"time": 146079, "pitch": 69, "duration": 79, "velocity": 102}, {"time": 146158, "pitch": 57, "duration": 80, "velocity": 67}, {"time": 146158, "pitch": 69, "duration": 80, "velocity": 77}, {"time": 146318, "pitch": 57, "duration": 80, "velocity": 71}, {"time": 146318, "pitch": 69, "duration": 80, "velocity": 81}, {"time": 146398, "pitch": 57, "duration": 149, "velocity": 102}, {"time": 146398, "pitch": 69, "duration": 149, "velocity": 112}, {"time": 146557, "pitch": 57, "duration": 80, "velocity": 92}, {"time": 146557, "pitch": 69, "duration": 80, "velocity": 102}, {"time": 146637, "pitch": 57, "duration": 80, "velocity": 67}, {"time": 146637, "pitch": 69, "duration": 80, "velocity": 77}, {"time": 146797, "pitch": 57, "duration": 79, "velocity": 71}, {"time": 146797, "pitch": 69, "duration": 79, "velocity": 81}, {"time": 146876, "pitch": 57, "duration": 152, "velocity": 102}, {"time": 146876, "pitch": 69, "duration": 152, "velocity": 112}, {"time": 147038, "pitch": 57, "duration": 82, "velocity": 92}, {"time": 147038, "pitch": 69, "duration": 82, "velocity": 102}, {"time": 147120, "pitch": 57, "duration": 81, "velocity": 67}, {"time": 147120, "pitch": 69, "duration": 81, "velocity": 77}, {"time": 147282, "pitch": 57, "duration": 81, "velocity": 71}, {"time": 147282, "pitch": 69, "duration": 81, "velocity": 81}, {"time": 147363, "pitch": 57, "duration": 149, "velocity": 102}, {"time": 147363, "pitch": 69, "duration": 149, "velocity": 112}, {"time": 147522, "pitch": 57, "duration": 80, "velocity": 92}, {"time": 147522, "pitch": 69, "duration": 80, "velocity": 102}, {"time": 147602, "pitch": 57, "duration": 80, "velocity": 67}, {"time": 147602, "pitch": 69, "duration": 80, "velocity": 77}, {"time": 147762, "pitch": 57, "duration": 79, "velocity": 71}, {"time": 147762, "pitch": 69, "duration": 79, "velocity": 81}, {"time": 147841, "pitch": 57, "duration": 150, "velocity": 102}, {"time": 147841, "pitch": 69, "duration": 150, "velocity": 112}, {"time": 148001, "pitch": 57, "duration": 80, "velocity": 92}, {"time": 148001, "pitch": 69, "duration": 80, "velocity": 102}, {"time": 148081, "pitch": 57, "duration": 79, "velocity": 67}, {"time": 148081, "pitch": 69, "duration": 79, "velocity": 77}, {"time": 148240, "pitch": 57, "duration": 80, "velocity": 71}, {"time": 148240, "pitch": 69, "duration": 80, "velocity": 81}, {"time": 148320, "pitch": 57, "duration": 150, "velocity": 102}, {"time": 148320, "pitch": 69, "duration": 150, "velocity": 112}, {"time": 148480, "pitch": 57, "duration": 79, "velocity": 92}, {"time": 148480, "pitch": 69, "duration": 79, "velocity": 102}, {"time": 148559, "pitch": 57, "duration": 80, "velocity": 67}, {"time": 148559, "pitch": 69, "duration": 80, "velocity": 77}, {"time": 148719, "pitch": 57, "duration": 80, "velocity": 71}, {"time": 148719, "pitch": 69, "duration": 80, "velocity": 81}, {"time": 148799, "pitch": 57, "duration": 149, "velocity": 102}, {"time": 148799, "pitch": 69, "duration": 149, "velocity": 112}, {"time": 148958, "pitch": 57, "duration": 80, "velocity": 92}, {"time": 148958, "pitch": 69, "duration": 80, "velocity": 102}, {"time": 149038, "pitch": 57, "duration": 80, "velocity": 67}, {"time": 149038, "pitch": 69, "duration": 80, "velocity": 77}, {"time": 149198, "pitch": 57, "duration": 79, "velocity": 71}, {"time": 149198, "pitch": 69, "duration": 79, "velocity": 81}, {"time": 149277, "pitch": 57, "duration": 152, "velocity": 102}, {"time": 149277, "pitch": 69, "duration": 152, "velocity": 112}, {"time": 149439, "pitch": 57, "duration": 81, "velocity": 92}, {"time": 149439, "pitch": 69, "duration": 81, "velocity": 102}, {"time": 149520, "pitch": 57, "duration": 81, "velocity": 67}, {"time": 149520, "pitch": 69, "duration": 81, "velocity": 77}, {"time": 149683, "pitch": 57, "duration": 80, "velocity": 71}, {"time": 149683, "pitch": 69, "duration": 80, "velocity": 81}, {"time": 149763, "pitch": 57, "duration": 150, "velocity": 102}, {"time": 149763, "pitch": 69, "duration": 150, "velocity": 112}, {"time": 149923, "pitch": 57, "duration": 80, "velocity": 92}, {"time": 149923, "pitch": 69, "duration": 80, "velocity": 102}, {"time": 150003, "pitch": 57, "duration": 80, "velocity": 67}, {"time": 150003, "pitch": 69, "duration": 80, "velocity": 77}, {"time": 150162, "pitch": 57, "duration": 80, "velocity": 71}, {"time": 150162, "pitch": 69, "duration": 80, "velocity": 81}, {"time": 150242, "pitch": 57, "duration": 150, "velocity": 102}, {"time": 150242, "pitch": 69, "duration": 150, "velocity": 112}, {"time": 150402, "pitch": 57, "duration": 80, "velocity": 92}, {"time": 150402, "pitch": 69, "duration": 80, "velocity": 102}, {"time": 150482, "pitch": 57, "duration": 79, "velocity": 67}, {"time": 150482, "pitch": 69, "duration": 79, "velocity": 77}, {"time": 150641, "pitch": 57, "duration": 80, "velocity": 71}, {"time": 150641, "pitch": 69, "duration": 80, "velocity": 81}, {"time": 150721, "pitch": 57, "duration": 149, "velocity": 102}, {"time": 150721, "pitch": 69, "duration": 149, "velocity": 112}, {"time": 150880, "pitch": 57, "duration": 80, "velocity": 92}, {"time": 150880, "pitch": 69, "duration": 80, "velocity": 102}, {"time": 150960, "pitch": 57, "duration": 80, "velocity": 67}, {"time": 150960, "pitch": 69, "duration": 80, "velocity": 77}, {"time": 151120, "pitch": 57, "duration": 80, "velocity": 71}, {"time": 151120, "pitch": 69, "duration": 80, "velocity": 81}, {"time": 151200, "pitch": 57, "duration": 149, "velocity": 102}, {"time": 151200, "pitch": 69, "duration": 149, "velocity": 112}, {"time": 151359, "pitch": 57, "duration": 80, "velocity": 92}, {"time": 151359, "pitch": 69, "duration": 80, "velocity": 102}, {"time": 151439, "pitch": 57, "duration": 80, "velocity": 67}, {"time": 151439, "pitch": 69, "duration": 80, "velocity": 77}, {"time": 151598, "pitch": 57, "duration": 80, "velocity": 71}, {"time": 151598, "pitch": 69, "duration": 80, "velocity": 81}, {"time": 151678, "pitch": 57, "duration": 150, "velocity": 102}, {"time": 151678, "pitch": 69, "duration": 150, "velocity": 112}, {"time": 151838, "pitch": 57, "duration": 80, "velocity": 92}, {"time": 151838, "pitch": 69, "duration": 80, "velocity": 102}, {"time": 151918, "pitch": 57, "duration": 79, "velocity": 67}, {"time": 151918, "pitch": 69, "duration": 79, "velocity": 77}, {"time": 152077, "pitch": 57, "duration": 80, "velocity": 71}, {"time": 152077, "pitch": 69, "duration": 80, "velocity": 81}, {"time": 152157, "pitch": 57, "duration": 152, "velocity": 102}, {"time": 152157, "pitch": 69, "duration": 152, "velocity": 112}, {"time": 152319, "pitch": 57, "duration": 81, "velocity": 92}, {"time": 152319, "pitch": 69, "duration": 81, "velocity": 102}, {"time": 152400, "pitch": 57, "duration": 81, "velocity": 67}, {"time": 152400, "pitch": 69, "duration": 81, "velocity": 77}, {"time": 152562, "pitch": 57, "duration": 81, "velocity": 71}, {"time": 152562, "pitch": 69, "duration": 81, "velocity": 81}, {"time": 152643, "pitch": 57, "duration": 150, "velocity": 102}, {"time": 152643, "pitch": 69, "duration": 150, "velocity": 112}, {"time": 152803, "pitch": 57, "duration": 79, "velocity": 92}, {"time": 152803, "pitch": 69, "duration": 79, "velocity": 102}, {"time": 152882, "pitch": 57, "duration": 80, "velocity": 67}, {"time": 152882, "pitch": 69, "duration": 80, "velocity": 77}, {"time": 153042, "pitch": 57, "duration": 80, "velocity": 71}, {"time": 153042, "pitch": 69, "duration": 80, "velocity": 81}, {"time": 153122, "pitch": 57, "duration": 149, "velocity": 102}, {"time": 153122, "pitch": 69, "duration": 149, "velocity": 112}, {"time": 153281, "pitch": 57, "duration": 80, "velocity": 92}, {"time": 153281, "pitch": 69, "duration": 80, "velocity": 102}, {"time": 153361, "pitch": 57, "duration": 80, "velocity": 67}, {"time": 153361, "pitch": 69, "duration": 80, "velocity": 77}, {"time": 153521, "pitch": 57, "duration": 79, "velocity": 71}, {"time": 153521, "pitch": 69, "duration": 79, "velocity": 81}, {"time": 153600, "pitch": 57, "duration": 150, "velocity": 102}, {"time": 153600, "pitch": 69, "duration": 150, "velocity": 112}, {"time": 153760, "pitch": 57, "duration": 80, "velocity": 92}, {"time": 153760, "pitch": 69, "duration": 80, "velocity": 102}, {"time": 153840, "pitch": 57, "duration": 80, "velocity": 67}, {"time": 153840, "pitch": 69, "duration": 80, "velocity": 77}, {"time": 153999, "pitch": 57, "duration": 80, "velocity": 71}, {"time": 153999, "pitch": 69, "duration": 80, "velocity": 81}, {"time": 154079, "pitch": 57, "duration": 150, "velocity": 102}, {"time": 154079, "pitch": 69, "duration": 150, "velocity": 112}, {"time": 154239, "pitch": 57, "duration": 79, "velocity": 92}, {"time": 154239, "pitch": 69, "duration": 79, "velocity": 102}, {"time": 154318, "pitch": 57, "duration": 80, "velocity": 67}, {"time": 154318, "pitch": 69, "duration": 80, "velocity": 77}, {"time": 154478, "pitch": 57, "duration": 80, "velocity": 71}, {"time": 154478, "pitch": 69, "duration": 80, "velocity": 81}, {"time": 154558, "pitch": 57, "duration": 149, "velocity": 102}, {"time": 154558, "pitch": 69, "duration": 149, "velocity": 112}, {"time": 154717, "pitch": 57, "duration": 80, "velocity": 92}, {"time": 154717, "pitch": 69, "duration": 80, "velocity": 102}, {"time": 154797, "pitch": 57, "duration": 80, "velocity": 67}, {"time": 154797, "pitch": 69, "duration": 80, "velocity": 77}, {"time": 154957, "pitch": 57, "duration": 79, "velocity": 71}, {"time": 154957, "pitch": 69, "duration": 79, "velocity": 81}, {"time": 155036, "pitch": 57, "duration": 152, "velocity": 102}, {"time": 155036, "pitch": 69, "duration": 152, "velocity": 112}, {"time": 155198, "pitch": 57, "duration": 82, "velocity": 92}, {"time": 155198, "pitch": 69, "duration": 82, "velocity": 102}, {"time": 155280, "pitch": 57, "duration": 81, "velocity": 67}, {"time": 155280, "pitch": 69, "duration": 81, "velocity": 77}, {"time": 155442, "pitch": 57, "duration": 81, "velocity": 71}, {"time": 155442, "pitch": 69, "duration": 81, "velocity": 81}, {"time": 155523, "pitch": 57, "duration": 149, "velocity": 102}, {"time": 155523, "pitch": 69, "duration": 149, "velocity": 112}, {"time": 155682, "pitch": 57, "duration": 80, "velocity": 92}, {"time": 155682, "pitch": 69, "duration": 80, "velocity": 102}, {"time": 155762, "pitch": 57, "duration": 80, "velocity": 67}, {"time": 155762, "pitch": 69, "duration": 80, "velocity": 77}, {"time": 155922, "pitch": 57, "duration": 79, "velocity": 71}, {"time": 155922, "pitch": 69, "duration": 79, "velocity": 81}, {"time": 156001, "pitch": 57, "duration": 150, "velocity": 102}, {"time": 156001, "pitch": 69, "duration": 150, "velocity": 112}, {"time": 156161, "pitch": 57, "duration": 80, "velocity": 92}, {"time": 156161, "pitch": 69, "duration": 80, "velocity": 102}, {"time": 156241, "pitch": 57, "duration": 79, "velocity": 67}, {"time": 156241, "pitch": 69, "duration": 79, "velocity": 77}, {"time": 156400, "pitch": 57, "duration": 80, "velocity": 71}, {"time": 156400, "pitch": 69, "duration": 80, "velocity": 81}, {"time": 156480, "pitch": 57, "duration": 150, "velocity": 102}, {"time": 156480, "pitch": 69, "duration": 150, "velocity": 112}, {"time": 156640, "pitch": 57, "duration": 79, "velocity": 92}, {"time": 156640, "pitch": 69, "duration": 79, "velocity": 102}, {"time": 156719, "pitch": 57, "duration": 80, "velocity": 67}, {"time": 156719, "pitch": 69, "duration": 80, "velocity": 77}, {"time": 156879, "pitch": 57, "duration": 80, "velocity": 71}, {"time": 156879, "pitch": 69, "duration": 80, "velocity": 81}, {"time": 156959, "pitch": 57, "duration": 149, "velocity": 102}, {"time": 156959, "pitch": 69, "duration": 149, "velocity": 112}, {"time": 157118, "pitch": 57, "duration": 80, "velocity": 92}, {"time": 157118, "pitch": 69, "duration": 80, "velocity": 102}, {"time": 157198, "pitch": 57, "duration": 80, "velocity": 67}, {"time": 157198, "pitch": 69, "duration": 80, "velocity": 77}, {"time": 157358, "pitch": 57, "duration": 79, "velocity": 71}, {"time": 157358, "pitch": 69, "duration": 79, "velocity": 81}, {"time": 157437, "pitch": 57, "duration": 152, "velocity": 102}, {"time": 157437, "pitch": 69, "duration": 152, "velocity": 112}, {"time": 157599, "pitch": 57, "duration": 81, "velocity": 92}, {"time": 157599, "pitch": 69, "duration": 81, "velocity": 102}, {"time": 157680, "pitch": 57, "duration": 81, "velocity": 67}, {"time": 157680, "pitch": 69, "duration": 81, "velocity": 77}, {"time": 157843, "pitch": 57, "duration": 81, "velocity": 71}, {"time": 157843, "pitch": 69, "duration": 81, "velocity": 81}, {"time": 38881, "pitch": 45, "duration": 1882, "velocity": 97}, {"time": 39001, "pitch": 52, "duration": 1803, "velocity": 106}, {"time": 39121, "pitch": 60, "duration": 139, "velocity": 106}, {"time": 39240, "pitch": 59, "duration": 320, "velocity": 89}, {"time": 39599, "pitch": 60, "duration": 90, "velocity": 83}, {"time": 39719, "pitch": 57, "duration": 1144, "velocity": 61}, {"time": 40804, "pitch": 43, "duration": 1835, "velocity": 94}, {"time": 40923, "pitch": 50, "duration": 1785, "velocity": 89}, {"time": 41043, "pitch": 55, "duration": 120, "velocity": 97}, {"time": 41282, "pitch": 60, "duration": 309, "velocity": 97}, {"time": 41522, "pitch": 59, "duration": 1206, "velocity": 89}, {"time": 42718, "pitch": 43, "duration": 1853, "velocity": 114}, {"time": 42838, "pitch": 50, "duration": 1743, "velocity": 89}, {"time": 42958, "pitch": 55, "duration": 109, "velocity": 89}, {"time": 43077, "pitch": 59, "duration": 353, "velocity": 64}, {"time": 43077, "pitch": 60, "duration": 110, "velocity": 66}, {"time": 43440, "pitch": 60, "duration": 152, "velocity": 97}, {"time": 43562, "pitch": 59, "duration": 1128, "velocity": 97}, {"time": 44641, "pitch": 45, "duration": 1790, "velocity": 106}, {"time": 44880, "pitch": 52, "duration": 1693, "velocity": 97}, {"time": 45119, "pitch": 60, "duration": 260, "velocity": 106}, {"time": 45359, "pitch": 59, "duration": 408, "velocity": 83}, {"time": 45837, "pitch": 60, "duration": 130, "velocity": 97}, {"time": 45957, "pitch": 57, "duration": 686, "velocity": 83}, {"time": 46563, "pitch": 45, "duration": 1875, "velocity": 114}, {"time": 46802, "pitch": 52, "duration": 1756, "velocity": 97}, {"time": 47041, "pitch": 57, "duration": 220, "velocity": 89}, {"time": 47281, "pitch": 60, "duration": 498, "velocity": 106}, {"time": 47759, "pitch": 59, "duration": 290, "velocity": 71}, {"time": 47999, "pitch": 60, "duration": 289, "velocity": 97}, {"time": 48238, "pitch": 57, "duration": 230, "velocity": 83}, {"time": 48477, "pitch": 43, "duration": 1923, "velocity": 91}, {"time": 48721, "pitch": 50, "duration": 1529, "velocity": 89}, {"time": 48964, "pitch": 59, "duration": 269, "velocity": 89}, {"time": 49203, "pitch": 57, "duration": 479, "velocity": 106}, {"time": 49682, "pitch": 59, "duration": 658, "velocity": 89}, {"time": 50400, "pitch": 52, "duration": 1892, "velocity": 112}, {"time": 50639, "pitch": 55, "duration": 1663, "velocity": 89}, {"time": 50759, "pitch": 59, "duration": 359, "velocity": 97}, {"time": 51118, "pitch": 62, "duration": 280, "velocity": 83}, {"time": 51357, "pitch": 59, "duration": 995, "velocity": 91}, {"time": 52322, "pitch": 45, "duration": 1825, "velocity": 91}, {"time": 52561, "pitch": 52, "duration": 1586, "velocity": 89}, {"time": 52801, "pitch": 59, "duration": 229, "velocity": 106}, {"time": 53040, "pitch": 60, "duration": 169, "velocity": 89}, {"time": 53160, "pitch": 57, "duration": 937, "velocity": 97}, {"time": 54237, "pitch": 53, "duration": 1892, "velocity": 89}, {"time": 54257, "pitch": 57, "duration": 1014, "velocity": 95}, {"time": 54267, "pitch": 60, "duration": 1054, "velocity": 100}, {"time": 54277, "pitch": 64, "duration": 1054, "velocity": 105}, {"time": 55441, "pitch": 57, "duration": 778, "velocity": 106}, {"time": 55680, "pitch": 60, "duration": 529, "velocity": 106}, {"time": 55919, "pitch": 64, "duration": 290, "velocity": 106}, {"time": 56159, "pitch": 52, "duration": 1802, "velocity": 125}, {"time": 56638, "pitch": 55, "duration": 1283, "velocity": 125}, {"time": 56881, "pitch": 59, "duration": 1220, "velocity": 114}, {"time": 57363, "pitch": 62, "duration": 808, "velocity": 114}, {"time": 58081, "pitch": 45, "duration": 1710, "velocity": 97}, {"time": 58320, "pitch": 52, "duration": 1501, "velocity": 106}, {"time": 58560, "pitch": 57, "duration": 1220, "velocity": 50}, {"time": 58799, "pitch": 59, "duration": 499, "velocity": 127}, {"time": 59278, "pitch": 60, "duration": 725, "velocity": 97}, {"time": 98402, "pitch": 45, "duration": 1875, "velocity": 97}, {"time": 98522, "pitch": 52, "duration": 1795, "velocity": 106}, {"time": 98642, "pitch": 60, "duration": 139, "velocity": 106}, {"time": 98761, "pitch": 59, "duration": 320, "velocity": 89}, {"time": 99120, "pitch": 60, "duration": 90, "velocity": 83}, {"time": 99240, "pitch": 57, "duration": 1138, "velocity": 61}, {"time": 100317, "pitch": 43, "duration": 1843, "velocity": 94}, {"time": 100439, "pitch": 50, "duration": 1790, "velocity": 89}, {"time": 100560, "pitch": 55, "duration": 122, "velocity": 97}, {"time": 100803, "pitch": 60, "duration": 310, "velocity": 97}, {"time": 101043, "pitch": 59, "duration": 1206, "velocity": 89}, {"time": 102239, "pitch": 43, "duration": 1853, "velocity": 114}, {"time": 102359, "pitch": 50, "duration": 1743, "velocity": 89}, {"time": 102479, "pitch": 55, "duration": 109, "velocity": 89}, {"time": 102598, "pitch": 59, "duration": 349, "velocity": 64}, {"time": 102598, "pitch": 60, "duration": 110, "velocity": 66}, {"time": 102957, "pitch": 60, "duration": 150, "velocity": 97}, {"time": 103077, "pitch": 59, "duration": 1134, "velocity": 97}, {"time": 104162, "pitch": 45, "duration": 1785, "velocity": 106}, {"time": 104401, "pitch": 52, "duration": 1685, "velocity": 97}, {"time": 104640, "pitch": 60, "duration": 260, "velocity": 106}, {"time": 104880, "pitch": 59, "duration": 408, "velocity": 83}, {"time": 105358, "pitch": 60, "duration": 130, "velocity": 97}, {"time": 105478, "pitch": 57, "duration": 679, "velocity": 83}, {"time": 106076, "pitch": 45, "duration": 1883, "velocity": 114}, {"time": 106319, "pitch": 52, "duration": 1759, "velocity": 97}, {"time": 106562, "pitch": 57, "duration": 220, "velocity": 89}, {"time": 106802, "pitch": 60, "duration": 498, "velocity": 106}, {"time": 107281, "pitch": 59, "duration": 289, "velocity": 71}, {"time": 107520, "pitch": 60, "duration": 289, "velocity": 97}, {"time": 107759, "pitch": 57, "duration": 230, "velocity": 83}, {"time": 107999, "pitch": 43, "duration": 1922, "velocity": 91}, {"time": 108238, "pitch": 50, "duration": 1533, "velocity": 89}, {"time": 108477, "pitch": 59, "duration": 274, "velocity": 89}, {"time": 108720, "pitch": 57, "duration": 483, "velocity": 106}, {"time": 109203, "pitch": 59, "duration": 658, "velocity": 89}, {"time": 109921, "pitch": 52, "duration": 1892, "velocity": 112}, {"time": 110160, "pitch": 55, "duration": 1663, "velocity": 89}, {"time": 110280, "pitch": 59, "duration": 359, "velocity": 97}, {"time": 110639, "pitch": 62, "duration": 279, "velocity": 83}, {"time": 110878, "pitch": 59, "duration": 995, "velocity": 91}, {"time": 111843, "pitch": 45, "duration": 1825, "velocity": 91}, {"time": 112082, "pitch": 52, "duration": 1586, "velocity": 89}, {"time": 112322, "pitch": 59, "duration": 229, "velocity": 106}, {"time": 112561, "pitch": 60, "duration": 169, "velocity": 89}, {"time": 112681, "pitch": 57, "duration": 937, "velocity": 97}, {"time": 113758, "pitch": 53, "duration": 1892, "velocity": 89}, {"time": 113778, "pitch": 57, "duration": 1014, "velocity": 95}, {"time": 113788, "pitch": 60, "duration": 1054, "velocity": 100}, {"time": 113798, "pitch": 64, "duration": 1054, "velocity": 105}, {"time": 114962, "pitch": 57, "duration": 778, "velocity": 106}, {"time": 115201, "pitch": 60, "duration": 529, "velocity": 106}, {"time": 115441, "pitch": 64, "duration": 289, "velocity": 106}, {"time": 115680, "pitch": 52, "duration": 1802, "velocity": 125}, {"time": 116159, "pitch": 55, "duration": 1284, "velocity": 125}, {"time": 116398, "pitch": 59, "duration": 1224, "velocity": 114}, {"time": 116880, "pitch": 62, "duration": 812, "velocity": 114}, {"time": 117602, "pitch": 45, "duration": 1705, "velocity": 97}, {"time": 117841, "pitch": 52, "duration": 1496, "velocity": 106}, {"time": 118081, "pitch": 57, "duration": 1216, "velocity": 50}, {"time": 118320, "pitch": 59, "duration": 499, "velocity": 127}, {"time": 118799, "pitch": 60, "duration": 718, "velocity": 97}, {"time": 136802, "pitch": 45, "duration": 1875, "velocity": 97}, {"time": 136921, "pitch": 52, "duration": 1795, "velocity": 106}, {"time": 137041, "pitch": 60, "duration": 140, "velocity": 106}, {"time": 137161, "pitch": 59, "duration": 319, "velocity": 89}, {"time": 137520, "pitch": 60, "duration": 89, "velocity": 83}, {"time": 137639, "pitch": 57, "duration": 1138, "velocity": 61}, {"time": 138716, "pitch": 43, "duration": 1843, "velocity": 94}, {"time": 138838, "pitch": 50, "duration": 1791, "velocity": 89}, {"time": 138959, "pitch": 55, "duration": 122, "velocity": 97}, {"time": 139203, "pitch": 60, "duration": 309, "velocity": 97}, {"time": 139442, "pitch": 59, "duration": 1207, "velocity": 89}, {"time": 140639, "pitch": 43, "duration": 1852, "velocity": 114}, {"time": 140758, "pitch": 50, "duration": 1743, "velocity": 89}, {"time": 140878, "pitch": 55, "duration": 110, "velocity": 89}, {"time": 140998, "pitch": 59, "duration": 352, "velocity": 64}, {"time": 140998, "pitch": 60, "duration": 109, "velocity": 66}, {"time": 141360, "pitch": 60, "duration": 152, "velocity": 97}, {"time": 141482, "pitch": 59, "duration": 1129, "velocity": 97}, {"time": 142561, "pitch": 45, "duration": 1790, "velocity": 106}, {"time": 142800, "pitch": 52, "duration": 1693, "velocity": 97}, {"time": 143040, "pitch": 60, "duration": 259, "velocity": 106}, {"time": 143279, "pitch": 59, "duration": 409, "velocity": 83}, {"time": 143758, "pitch": 60, "duration": 129, "velocity": 97}, {"time": 143877, "pitch": 57, "duration": 686, "velocity": 83}, {"time": 144483, "pitch": 45, "duration": 1875, "velocity": 114}, {"time": 144722, "pitch": 52, "duration": 1756, "velocity": 97}, {"time": 144962, "pitch": 57, "duration": 219, "velocity": 89}, {"time": 145201, "pitch": 60, "duration": 499, "velocity": 106}, {"time": 145680, "pitch": 59, "duration": 289, "velocity": 71}, {"time": 145919, "pitch": 60, "duration": 289, "velocity": 97}, {"time": 146158, "pitch": 57, "duration": 230, "velocity": 83}, {"time": 146398, "pitch": 43, "duration": 1922, "velocity": 91}, {"time": 146637, "pitch": 50, "duration": 1533, "velocity": 89}, {"time": 146876, "pitch": 59, "duration": 274, "velocity": 89}, {"time": 147120, "pitch": 57, "duration": 482, "velocity": 106}, {"time": 147602, "pitch": 59, "duration": 658, "velocity": 89}, {"time": 148320, "pitch": 52, "duration": 1892, "velocity": 112}, {"time": 148559, "pitch": 55, "duration": 1663, "velocity": 89}, {"time": 148679, "pitch": 59, "duration": 359, "velocity": 97}, {"time": 149038, "pitch": 62, "duration": 280, "velocity": 83}, {"time": 149277, "pitch": 59, "duration": 995, "velocity": 91}, {"time": 150242, "pitch": 45, "duration": 1825, "velocity": 91}, {"time": 150482, "pitch": 52, "duration": 1585, "velocity": 89}, {"time": 150721, "pitch": 59, "duration": 229, "velocity": 106}, {"time": 150960, "pitch": 60, "duration": 170, "velocity": 89}, {"time": 151080, "pitch": 57, "duration": 937, "velocity": 97}, {"time": 152157, "pitch": 53, "duration": 1892, "velocity": 89}, {"time": 152177, "pitch": 57, "duration": 1015, "velocity": 95}, {"time": 152187, "pitch": 60, "duration": 1054, "velocity": 100}, {"time": 152197, "pitch": 64, "duration": 1054, "velocity": 105}, {"time": 153361, "pitch": 57, "duration": 778, "velocity": 106}, {"time": 153600, "pitch": 60, "duration": 529, "velocity": 106}, {"time": 153840, "pitch": 64, "duration": 289, "velocity": 106}, {"time": 154079, "pitch": 52, "duration": 1803, "velocity": 125}, {"time": 154558, "pitch": 55, "duration": 1284, "velocity": 125}, {"time": 154797, "pitch": 59, "duration": 1224, "velocity": 114}, {"time": 155280, "pitch": 62, "duration": 811, "velocity": 114}, {"time": 156001, "pitch": 45, "duration": 1710, "velocity": 97}, {"time": 156241, "pitch": 52, "duration": 1500, "velocity": 106}, {"time": 156480, "pitch": 57, "duration": 1221, "velocity": 50}, {"time": 156719, "pitch": 59, "duration": 499, "velocity": 127}, {"time": 157198, "pitch": 60, "duration": 726, "velocity": 97}, {"time": 482, "pitch": 52, "duration": 210, "velocity": 95}, {"time": 482, "pitch": 69, "duration": 210, "velocity": 100}, {"time": 492, "pitch": 60, "duration": 200, "velocity": 105}, {"time": 502, "pitch": 64, "duration": 190, "velocity": 110}, {"time": 712, "pitch": 64, "duration": 169, "velocity": 94}, {"time": 722, "pitch": 60, "duration": 159, "velocity": 89}, {"time": 732, "pitch": 69, "duration": 149, "velocity": 84}, {"time": 741, "pitch": 52, "duration": 140, "velocity": 79}, {"time": 961, "pitch": 52, "duration": 209, "velocity": 95}, {"time": 961, "pitch": 69, "duration": 209, "velocity": 100}, {"time": 971, "pitch": 60, "duration": 199, "velocity": 105}, {"time": 981, "pitch": 64, "duration": 189, "velocity": 110}, {"time": 1200, "pitch": 52, "duration": 70, "velocity": 65}, {"time": 1200, "pitch": 69, "duration": 70, "velocity": 70}, {"time": 1210, "pitch": 60, "duration": 60, "velocity": 75}, {"time": 1210, "pitch": 64, "duration": 60, "velocity": 80}, {"time": 1360, "pitch": 52, "duration": 209, "velocity": 95}, {"time": 1360, "pitch": 69, "duration": 209, "velocity": 100}, {"time": 1370, "pitch": 60, "duration": 199, "velocity": 105}, {"time": 1380, "pitch": 64, "duration": 189, "velocity": 110}, {"time": 1599, "pitch": 52, "duration": 70, "velocity": 100}, {"time": 1599, "pitch": 60, "duration": 60, "velocity": 110}, {"time": 1599, "pitch": 64, "duration": 60, "velocity": 115}, {"time": 1599, "pitch": 69, "duration": 70, "velocity": 105}, {"time": 1679, "pitch": 52, "duration": 80, "velocity": 60}, {"time": 1679, "pitch": 60, "duration": 90, "velocity": 80}, {"time": 1679, "pitch": 64, "duration": 90, "velocity": 85}, {"time": 1679, "pitch": 69, "duration": 80, "velocity": 75}, {"time": 1838, "pitch": 60, "duration": 60, "velocity": 70}, {"time": 1838, "pitch": 64, "duration": 50, "velocity": 75}, {"time": 1838, "pitch": 69, "duration": 80, "velocity": 65}, {"time": 1918, "pitch": 52, "duration": 150, "velocity": 100}, {"time": 1918, "pitch": 69, "duration": 150, "velocity": 105}, {"time": 1928, "pitch": 60, "duration": 140, "velocity": 110}, {"time": 1928, "pitch": 64, "duration": 140, "velocity": 115}, {"time": 2078, "pitch": 52, "duration": 80, "velocity": 75}, {"time": 2078, "pitch": 60, "duration": 70, "velocity": 85}, {"time": 2078, "pitch": 69, "duration": 60, "velocity": 80}, {"time": 2158, "pitch": 52, "duration": 59, "velocity": 65}, {"time": 2158, "pitch": 60, "duration": 69, "velocity": 55}, {"time": 2158, "pitch": 64, "duration": 69, "velocity": 50}, {"time": 2158, "pitch": 69, "duration": 59, "velocity": 60}, {"time": 2317, "pitch": 52, "duration": 70, "velocity": 90}, {"time": 2317, "pitch": 60, "duration": 60, "velocity": 100}, {"time": 2317, "pitch": 64, "duration": 60, "velocity": 105}, {"time": 2317, "pitch": 69, "duration": 70, "velocity": 95}, {"time": 2397, "pitch": 50, "duration": 213, "velocity": 95}, {"time": 2397, "pitch": 69, "duration": 213, "velocity": 100}, {"time": 2407, "pitch": 60, "duration": 203, "velocity": 105}, {"time": 2417, "pitch": 65, "duration": 193, "velocity": 110}, {"time": 2630, "pitch": 65, "duration": 172, "velocity": 94}, {"time": 2640, "pitch": 60, "duration": 162, "velocity": 89}, {"time": 2650, "pitch": 69, "duration": 152, "velocity": 84}, {"time": 2660, "pitch": 50, "duration": 142, "velocity": 79}, {"time": 2883, "pitch": 50, "duration": 210, "velocity": 95}, {"time": 2883, "pitch": 69, "duration": 210, "velocity": 100}, {"time": 2893, "pitch": 60, "duration": 200, "velocity": 105}, {"time": 2903, "pitch": 65, "duration": 190, "velocity": 110}, {"time": 3122, "pitch": 50, "duration": 70, "velocity": 65}, {"time": 3122, "pitch": 69, "duration": 70, "velocity": 70}, {"time": 3132, "pitch": 60, "duration": 60, "velocity": 75}, {"time": 3132, "pitch": 65, "duration": 60, "velocity": 80}, {"time": 3282, "pitch": 50, "duration": 209, "velocity": 95}, {"time": 3282, "pitch": 69, "duration": 209, "velocity": 100}, {"time": 3292, "pitch": 60, "duration": 199, "velocity": 105}, {"time": 3302, "pitch": 65, "duration": 189, "velocity": 110}, {"time": 3521, "pitch": 50, "duration": 70, "velocity": 100}, {"time": 3521, "pitch": 60, "duration": 60, "velocity": 110}, {"time": 3521, "pitch": 65, "duration": 60, "velocity": 115}, {"time": 3521, "pitch": 69, "duration": 70, "velocity": 105}, {"time": 3601, "pitch": 50, "duration": 80, "velocity": 60}, {"time": 3601, "pitch": 60, "duration": 90, "velocity": 80}, {"time": 3601, "pitch": 65, "duration": 90, "velocity": 85}, {"time": 3601, "pitch": 69, "duration": 80, "velocity": 75}, {"time": 3761, "pitch": 60, "duration": 60, "velocity": 70}, {"time": 3761, "pitch": 65, "duration": 50, "velocity": 75}, {"time": 3761, "pitch": 69, "duration": 79, "velocity": 65}, {"time": 3840, "pitch": 50, "duration": 150, "velocity": 100}, {"time": 3840, "pitch": 69, "duration": 150, "velocity": 105}, {"time": 3850, "pitch": 60, "duration": 140, "velocity": 110}, {"time": 3850, "pitch": 65, "duration": 140, "velocity": 115}, {"time": 4000, "pitch": 50, "duration": 80, "velocity": 75}, {"time": 4000, "pitch": 60, "duration": 70, "velocity": 85}, {"time": 4000, "pitch": 69, "duration": 60, "velocity": 80}, {"time": 4080, "pitch": 50, "duration": 60, "velocity": 65}, {"time": 4080, "pitch": 60, "duration": 70, "velocity": 55}, {"time": 4080, "pitch": 65, "duration": 70, "velocity": 50}, {"time": 4080, "pitch": 69, "duration": 60, "velocity": 60}, {"time": 4239, "pitch": 50, "duration": 70, "velocity": 90}, {"time": 4239, "pitch": 60, "duration": 60, "velocity": 100}, {"time": 4239, "pitch": 65, "duration": 60, "velocity": 105}, {"time": 4239, "pitch": 69, "duration": 70, "velocity": 95}, {"time": 4319, "pitch": 52, "duration": 210, "velocity": 95}, {"time": 4319, "pitch": 69, "duration": 210, "velocity": 100}, {"time": 4329, "pitch": 60, "duration": 200, "velocity": 105}, {"time": 4339, "pitch": 64, "duration": 190, "velocity": 110}, {"time": 4548, "pitch": 64, "duration": 170, "velocity": 94}, {"time": 4558, "pitch": 60, "duration": 160, "velocity": 89}, {"time": 4568, "pitch": 69, "duration": 150, "velocity": 84}, {"time": 4578, "pitch": 52, "duration": 140, "velocity": 79}, {"time": 4798, "pitch": 52, "duration": 209, "velocity": 95}, {"time": 4798, "pitch": 69, "duration": 209, "velocity": 100}, {"time": 4808, "pitch": 60, "duration": 199, "velocity": 105}, {"time": 4818, "pitch": 64, "duration": 189, "velocity": 110}, {"time": 5037, "pitch": 52, "duration": 70, "velocity": 65}, {"time": 5037, "pitch": 69, "duration": 70, "velocity": 70}, {"time": 5047, "pitch": 60, "duration": 60, "velocity": 75}, {"time": 5047, "pitch": 64, "duration": 60, "velocity": 80}, {"time": 5197, "pitch": 52, "duration": 211, "velocity": 95}, {"time": 5197, "pitch": 69, "duration": 211, "velocity": 100}, {"time": 5207, "pitch": 60, "duration": 201, "velocity": 105}, {"time": 5217, "pitch": 64, "duration": 191, "velocity": 110}, {"time": 5439, "pitch": 52, "duration": 70, "velocity": 100}, {"time": 5439, "pitch": 60, "duration": 60, "velocity": 110}, {"time": 5439, "pitch": 64, "duration": 60, "velocity": 115}, {"time": 5439, "pitch": 69, "duration": 70, "velocity": 105}, {"time": 5520, "pitch": 52, "duration": 81, "velocity": 60}, {"time": 5520, "pitch": 60, "duration": 91, "velocity": 80}, {"time": 5520, "pitch": 64, "duration": 91, "velocity": 85}, {"time": 5520, "pitch": 69, "duration": 81, "velocity": 75}, {"time": 5682, "pitch": 60, "duration": 60, "velocity": 70}, {"time": 5682, "pitch": 64, "duration": 50, "velocity": 75}, {"time": 5682, "pitch": 69, "duration": 81, "velocity": 65}, {"time": 5763, "pitch": 52, "duration": 149, "velocity": 100}, {"time": 5763, "pitch": 69, "duration": 149, "velocity": 105}, {"time": 5773, "pitch": 60, "duration": 139, "velocity": 110}, {"time": 5773, "pitch": 64, "duration": 139, "velocity": 115}, {"time": 5922, "pitch": 52, "duration": 80, "velocity": 75}, {"time": 5922, "pitch": 60, "duration": 70, "velocity": 85}, {"time": 5922, "pitch": 69, "duration": 60, "velocity": 80}, {"time": 6002, "pitch": 52, "duration": 60, "velocity": 65}, {"time": 6002, "pitch": 60, "duration": 70, "velocity": 55}, {"time": 6002, "pitch": 64, "duration": 70, "velocity": 50}, {"time": 6002, "pitch": 69, "duration": 60, "velocity": 60}, {"time": 6162, "pitch": 52, "duration": 69, "velocity": 90}, {"time": 6162, "pitch": 60, "duration": 59, "velocity": 100}, {"time": 6162, "pitch": 64, "duration": 59, "velocity": 105}, {"time": 6162, "pitch": 69, "duration": 69, "velocity": 95}, {"time": 6241, "pitch": 50, "duration": 210, "velocity": 95}, {"time": 6241, "pitch": 69, "duration": 210, "velocity": 100}, {"time": 6251, "pitch": 60, "duration": 200, "velocity": 105}, {"time": 6261, "pitch": 65, "duration": 190, "velocity": 110}, {"time": 6471, "pitch": 65, "duration": 169, "velocity": 94}, {"time": 6481, "pitch": 60, "duration": 159, "velocity": 89}, {"time": 6491, "pitch": 69, "duration": 149, "velocity": 84}, {"time": 6501, "pitch": 50, "duration": 139, "velocity": 79}, {"time": 6720, "pitch": 50, "duration": 209, "velocity": 95}, {"time": 6720, "pitch": 69, "duration": 209, "velocity": 100}, {"time": 6730, "pitch": 60, "duration": 199, "velocity": 105}, {"time": 6740, "pitch": 65, "duration": 189, "velocity": 110}, {"time": 6959, "pitch": 50, "duration": 70, "velocity": 65}, {"time": 6959, "pitch": 69, "duration": 70, "velocity": 70}, {"time": 6969, "pitch": 60, "duration": 60, "velocity": 75}, {"time": 6969, "pitch": 65, "duration": 60, "velocity": 80}, {"time": 7119, "pitch": 50, "duration": 209, "velocity": 95}, {"time": 7119, "pitch": 69, "duration": 209, "velocity": 100}, {"time": 7129, "pitch": 60, "duration": 199, "velocity": 105}, {"time": 7139, "pitch": 65, "duration": 189, "velocity": 110}, {"time": 7358, "pitch": 50, "duration": 70, "velocity": 100}, {"time": 7358, "pitch": 60, "duration": 60, "velocity": 110}, {"time": 7358, "pitch": 65, "duration": 60, "velocity": 115}, {"time": 7358, "pitch": 69, "duration": 70, "velocity": 105}, {"time": 7438, "pitch": 50, "duration": 80, "velocity": 60}, {"time": 7438, "pitch": 60, "duration": 90, "velocity": 80}, {"time": 7438, "pitch": 65, "duration": 90, "velocity": 85}, {"time": 7438, "pitch": 69, "duration": 80, "velocity": 75}, {"time": 7598, "pitch": 60, "duration": 59, "velocity": 70}, {"time": 7598, "pitch": 65, "duration": 49, "velocity": 75}, {"time": 7598, "pitch": 69, "duration": 79, "velocity": 65}, {"time": 7677, "pitch": 50, "duration": 152, "velocity": 100}, {"time": 7677, "pitch": 69, "duration": 152, "velocity": 105}, {"time": 7687, "pitch": 60, "duration": 142, "velocity": 110}, {"time": 7687, "pitch": 65, "duration": 142, "velocity": 115}, {"time": 7839, "pitch": 50, "duration": 81, "velocity": 75}, {"time": 7839, "pitch": 60, "duration": 71, "velocity": 85}, {"time": 7839, "pitch": 69, "duration": 61, "velocity": 80}, {"time": 7920, "pitch": 50, "duration": 61, "velocity": 65}, {"time": 7920, "pitch": 60, "duration": 71, "velocity": 55}, {"time": 7920, "pitch": 65, "duration": 71, "velocity": 50}, {"time": 7920, "pitch": 69, "duration": 61, "velocity": 60}, {"time": 8083, "pitch": 50, "duration": 70, "velocity": 90}, {"time": 8083, "pitch": 60, "duration": 60, "velocity": 100}, {"time": 8083, "pitch": 65, "duration": 60, "velocity": 105}, {"time": 8083, "pitch": 69, "duration": 70, "velocity": 95}, {"time": 8164, "pitch": 52, "duration": 209, "velocity": 95}, {"time": 8164, "pitch": 69, "duration": 209, "velocity": 100}, {"time": 8174, "pitch": 60, "duration": 199, "velocity": 105}, {"time": 8183, "pitch": 64, "duration": 190, "velocity": 110}, {"time": 8393, "pitch": 64, "duration": 169, "velocity": 94}, {"time": 8403, "pitch": 60, "duration": 159, "velocity": 89}, {"time": 8413, "pitch": 69, "duration": 149, "velocity": 84}, {"time": 8423, "pitch": 52, "duration": 139, "velocity": 79}, {"time": 8642, "pitch": 52, "duration": 210, "velocity": 95}, {"time": 8642, "pitch": 69, "duration": 210, "velocity": 100}, {"time": 8652, "pitch": 60, "duration": 200, "velocity": 105}, {"time": 8662, "pitch": 64, "duration": 190, "velocity": 110}, {"time": 8882, "pitch": 52, "duration": 69, "velocity": 65}, {"time": 8882, "pitch": 69, "duration": 69, "velocity": 70}, {"time": 8892, "pitch": 60, "duration": 59, "velocity": 75}, {"time": 8892, "pitch": 64, "duration": 59, "velocity": 80}, {"time": 9041, "pitch": 52, "duration": 210, "velocity": 95}, {"time": 9041, "pitch": 69, "duration": 210, "velocity": 100}, {"time": 9051, "pitch": 60, "duration": 200, "velocity": 105}, {"time": 9061, "pitch": 64, "duration": 190, "velocity": 110}, {"time": 9280, "pitch": 52, "duration": 70, "velocity": 100}, {"time": 9280, "pitch": 60, "duration": 60, "velocity": 110}, {"time": 9280, "pitch": 64, "duration": 60, "velocity": 115}, {"time": 9280, "pitch": 69, "duration": 70, "velocity": 105}, {"time": 9360, "pitch": 52, "duration": 80, "velocity": 60}, {"time": 9360, "pitch": 60, "duration": 90, "velocity": 80}, {"time": 9360, "pitch": 64, "duration": 90, "velocity": 85}, {"time": 9360, "pitch": 69, "duration": 80, "velocity": 75}, {"time": 9520, "pitch": 60, "duration": 60, "velocity": 70}, {"time": 9520, "pitch": 64, "duration": 50, "velocity": 75}, {"time": 9520, "pitch": 69, "duration": 80, "velocity": 65}, {"time": 9600, "pitch": 52, "duration": 149, "velocity": 100}, {"time": 9600, "pitch": 69, "duration": 149, "velocity": 105}, {"time": 9610, "pitch": 60, "duration": 139, "velocity": 110}, {"time": 9610, "pitch": 64, "duration": 139, "velocity": 115}, {"time": 9759, "pitch": 52, "duration": 80, "velocity": 75}, {"time": 9759, "pitch": 60, "duration": 70, "velocity": 85}, {"time": 9759, "pitch": 69, "duration": 60, "velocity": 80}, {"time": 9839, "pitch": 52, "duration": 60, "velocity": 65}, {"time": 9839, "pitch": 60, "duration": 70, "velocity": 55}, {"time": 9839, "pitch": 64, "duration": 70, "velocity": 50}, {"time": 9839, "pitch": 69, "duration": 60, "velocity": 60}, {"time": 9998, "pitch": 52, "duration": 70, "velocity": 90}, {"time": 9998, "pitch": 60, "duration": 60, "velocity": 100}, {"time": 9998, "pitch": 64, "duration": 60, "velocity": 105}, {"time": 9998, "pitch": 69, "duration": 70, "velocity": 95}, {"time": 10078, "pitch": 50, "duration": 210, "velocity": 95}, {"time": 10078, "pitch": 69, "duration": 210, "velocity": 100}, {"time": 10088, "pitch": 60, "duration": 200, "velocity": 105}, {"time": 10098, "pitch": 65, "duration": 190, "velocity": 110}, {"time": 10308, "pitch": 65, "duration": 169, "velocity": 94}, {"time": 10318, "pitch": 60, "duration": 159, "velocity": 89}, {"time": 10328, "pitch": 69, "duration": 149, "velocity": 84}, {"time": 10338, "pitch": 50, "duration": 139, "velocity": 79}, {"time": 10557, "pitch": 50, "duration": 10, "velocity": 95}, {"time": 10557, "pitch": 60, "duration": 10, "velocity": 105}, {"time": 10557, "pitch": 65, "duration": 10, "velocity": 110}, {"time": 10557, "pitch": 69, "duration": 10, "velocity": 100}, {"time": 10800, "pitch": 50, "duration": 213, "velocity": 95}, {"time": 10800, "pitch": 69, "duration": 213, "velocity": 100}, {"time": 10810, "pitch": 60, "duration": 203, "velocity": 105}, {"time": 10820, "pitch": 65, "duration": 193, "velocity": 110}, {"time": 11282, "pitch": 52, "duration": 210, "velocity": 95}, {"time": 11282, "pitch": 59, "duration": 210, "velocity": 100}, {"time": 11292, "pitch": 62, "duration": 200, "velocity": 105}, {"time": 11302, "pitch": 67, "duration": 190, "velocity": 110}, {"time": 11522, "pitch": 52, "duration": 149, "velocity": 80}, {"time": 11522, "pitch": 59, "duration": 149, "velocity": 85}, {"time": 11532, "pitch": 62, "duration": 139, "velocity": 90}, {"time": 11532, "pitch": 67, "duration": 139, "velocity": 95}, {"time": 11681, "pitch": 52, "duration": 80, "velocity": 75}, {"time": 11681, "pitch": 59, "duration": 60, "velocity": 80}, {"time": 11681, "pitch": 62, "duration": 70, "velocity": 85}, {"time": 11761, "pitch": 52, "duration": 60, "velocity": 65}, {"time": 11761, "pitch": 59, "duration": 60, "velocity": 60}, {"time": 11761, "pitch": 62, "duration": 70, "velocity": 55}, {"time": 11761, "pitch": 67, "duration": 70, "velocity": 50}, {"time": 11921, "pitch": 52, "duration": 70, "velocity": 90}, {"time": 11921, "pitch": 59, "duration": 70, "velocity": 95}, {"time": 11921, "pitch": 62, "duration": 60, "velocity": 100}, {"time": 11921, "pitch": 67, "duration": 60, "velocity": 105}, {"time": 12000, "pitch": 52, "duration": 210, "velocity": 95}, {"time": 12000, "pitch": 69, "duration": 210, "velocity": 100}, {"time": 12010, "pitch": 60, "duration": 200, "velocity": 105}, {"time": 12020, "pitch": 64, "duration": 190, "velocity": 110}, {"time": 12230, "pitch": 64, "duration": 169, "velocity": 94}, {"time": 12240, "pitch": 60, "duration": 159, "velocity": 89}, {"time": 12250, "pitch": 69, "duration": 149, "velocity": 84}, {"time": 12260, "pitch": 52, "duration": 139, "velocity": 79}, {"time": 12479, "pitch": 52, "duration": 210, "velocity": 95}, {"time": 12479, "pitch": 69, "duration": 210, "velocity": 100}, {"time": 12489, "pitch": 60, "duration": 200, "velocity": 105}, {"time": 12499, "pitch": 64, "duration": 190, "velocity": 110}, {"time": 12718, "pitch": 52, "duration": 70, "velocity": 65}, {"time": 12718, "pitch": 69, "duration": 70, "velocity": 70}, {"time": 12728, "pitch": 60, "duration": 60, "velocity": 75}, {"time": 12728, "pitch": 64, "duration": 60, "velocity": 80}, {"time": 12878, "pitch": 52, "duration": 209, "velocity": 95}, {"time": 12878, "pitch": 69, "duration": 209, "velocity": 100}, {"time": 12888, "pitch": 60, "duration": 199, "velocity": 105}, {"time": 12898, "pitch": 64, "duration": 189, "velocity": 110}, {"time": 13117, "pitch": 52, "duration": 70, "velocity": 100}, {"time": 13117, "pitch": 60, "duration": 60, "velocity": 110}, {"time": 13117, "pitch": 64, "duration": 60, "velocity": 115}, {"time": 13117, "pitch": 69, "duration": 70, "velocity": 105}, {"time": 13197, "pitch": 52, "duration": 80, "velocity": 60}, {"time": 13197, "pitch": 60, "duration": 90, "velocity": 80}, {"time": 13197, "pitch": 64, "duration": 90, "velocity": 85}, {"time": 13197, "pitch": 69, "duration": 80, "velocity": 75}, {"time": 13357, "pitch": 60, "duration": 60, "velocity": 70}, {"time": 13357, "pitch": 64, "duration": 50, "velocity": 75}, {"time": 13357, "pitch": 69, "duration": 80, "velocity": 65}, {"time": 13437, "pitch": 52, "duration": 151, "velocity": 100}, {"time": 13437, "pitch": 69, "duration": 151, "velocity": 105}, {"time": 13447, "pitch": 60, "duration": 141, "velocity": 110}, {"time": 13447, "pitch": 64, "duration": 141, "velocity": 115}, {"time": 13599, "pitch": 52, "duration": 81, "velocity": 75}, {"time": 13599, "pitch": 60, "duration": 70, "velocity": 85}, {"time": 13599, "pitch": 69, "duration": 60, "velocity": 80}, {"time": 13680, "pitch": 52, "duration": 60, "velocity": 65}, {"time": 13680, "pitch": 60, "duration": 71, "velocity": 55}, {"time": 13680, "pitch": 64, "duration": 71, "velocity": 50}, {"time": 13680, "pitch": 69, "duration": 60, "velocity": 60}, {"time": 13842, "pitch": 52, "duration": 71, "velocity": 90}, {"time": 13842, "pitch": 60, "duration": 60, "velocity": 100}, {"time": 13842, "pitch": 64, "duration": 60, "velocity": 105}, {"time": 13842, "pitch": 69, "duration": 71, "velocity": 95}, {"time": 13923, "pitch": 50, "duration": 209, "velocity": 95}, {"time": 13923, "pitch": 69, "duration": 209, "velocity": 100}, {"time": 13933, "pitch": 60, "duration": 199, "velocity": 105}, {"time": 13943, "pitch": 65, "duration": 189, "velocity": 110}, {"time": 14152, "pitch": 65, "duration": 170, "velocity": 94}, {"time": 14162, "pitch": 60, "duration": 160, "velocity": 89}, {"time": 14172, "pitch": 69, "duration": 150, "velocity": 84}, {"time": 14182, "pitch": 50, "duration": 140, "velocity": 79}, {"time": 14401, "pitch": 50, "duration": 10, "velocity": 95}, {"time": 14401, "pitch": 60, "duration": 10, "velocity": 105}, {"time": 14401, "pitch": 65, "duration": 10, "velocity": 110}, {"time": 14401, "pitch": 69, "duration": 10, "velocity": 100}, {"time": 14641, "pitch": 50, "duration": 209, "velocity": 95}, {"time": 14641, "pitch": 69, "duration": 209, "velocity": 100}, {"time": 14651, "pitch": 60, "duration": 199, "velocity": 105}, {"time": 14661, "pitch": 65, "duration": 189, "velocity": 110}, {"time": 15119, "pitch": 52, "duration": 210, "velocity": 95}, {"time": 15119, "pitch": 59, "duration": 210, "velocity": 100}, {"time": 15129, "pitch": 62, "duration": 200, "velocity": 105}, {"time": 15139, "pitch": 67, "duration": 190, "velocity": 110}, {"time": 15359, "pitch": 52, "duration": 149, "velocity": 80}, {"time": 15359, "pitch": 59, "duration": 149, "velocity": 85}, {"time": 15369, "pitch": 62, "duration": 139, "velocity": 90}, {"time": 15369, "pitch": 67, "duration": 139, "velocity": 95}, {"time": 15518, "pitch": 52, "duration": 80, "velocity": 75}, {"time": 15518, "pitch": 59, "duration": 60, "velocity": 80}, {"time": 15518, "pitch": 62, "duration": 70, "velocity": 85}, {"time": 15598, "pitch": 52, "duration": 60, "velocity": 65}, {"time": 15598, "pitch": 59, "duration": 60, "velocity": 60}, {"time": 15598, "pitch": 62, "duration": 70, "velocity": 55}, {"time": 15598, "pitch": 67, "duration": 70, "velocity": 50}, {"time": 15758, "pitch": 52, "duration": 69, "velocity": 90}, {"time": 15758, "pitch": 59, "duration": 69, "velocity": 95}, {"time": 15758, "pitch": 62, "duration": 59, "velocity": 100}, {"time": 15758, "pitch": 67, "duration": 59, "velocity": 105}, {"time": 15837, "pitch": 64, "duration": 213, "velocity": 95}, {"time": 15837, "pitch": 69, "duration": 213, "velocity": 100}, {"time": 15847, "pitch": 72, "duration": 203, "velocity": 105}, {"time": 15858, "pitch": 76, "duration": 192, "velocity": 110}, {"time": 16070, "pitch": 76, "duration": 173, "velocity": 94}, {"time": 16080, "pitch": 72, "duration": 163, "velocity": 89}, {"time": 16091, "pitch": 69, "duration": 152, "velocity": 84}, {"time": 16101, "pitch": 64, "duration": 142, "velocity": 79}, {"time": 16324, "pitch": 64, "duration": 149, "velocity": 95}, {"time": 16324, "pitch": 69, "duration": 149, "velocity": 100}, {"time": 16334, "pitch": 72, "duration": 139, "velocity": 105}, {"time": 16344, "pitch": 76, "duration": 139, "velocity": 110}, {"time": 16483, "pitch": 64, "duration": 70, "velocity": 75}, {"time": 16483, "pitch": 69, "duration": 70, "velocity": 80}, {"time": 16493, "pitch": 72, "duration": 60, "velocity": 85}, {"time": 16493, "pitch": 76, "duration": 60, "velocity": 90}, {"time": 16563, "pitch": 64, "duration": 140, "velocity": 70}, {"time": 16563, "pitch": 69, "duration": 140, "velocity": 75}, {"time": 16573, "pitch": 72, "duration": 130, "velocity": 80}, {"time": 16573, "pitch": 76, "duration": 130, "velocity": 85}, {"time": 16722, "pitch": 64, "duration": 70, "velocity": 95}, {"time": 16722, "pitch": 69, "duration": 70, "velocity": 100}, {"time": 16732, "pitch": 72, "duration": 60, "velocity": 105}, {"time": 16742, "pitch": 76, "duration": 60, "velocity": 110}, {"time": 16962, "pitch": 64, "duration": 70, "velocity": 100}, {"time": 16962, "pitch": 68, "duration": 70, "velocity": 105}, {"time": 16962, "pitch": 71, "duration": 60, "velocity": 110}, {"time": 16962, "pitch": 76, "duration": 60, "velocity": 115}, {"time": 17042, "pitch": 64, "duration": 79, "velocity": 60}, {"time": 17042, "pitch": 68, "duration": 79, "velocity": 75}, {"time": 17042, "pitch": 71, "duration": 89, "velocity": 80}, {"time": 17042, "pitch": 76, "duration": 89, "velocity": 85}, {"time": 17201, "pitch": 68, "duration": 80, "velocity": 65}, {"time": 17201, "pitch": 71, "duration": 60, "velocity": 70}, {"time": 17201, "pitch": 76, "duration": 50, "velocity": 75}, {"time": 17281, "pitch": 64, "duration": 150, "velocity": 100}, {"time": 17281, "pitch": 68, "duration": 150, "velocity": 105}, {"time": 17291, "pitch": 71, "duration": 140, "velocity": 110}, {"time": 17291, "pitch": 76, "duration": 140, "velocity": 115}, {"time": 17440, "pitch": 64, "duration": 80, "velocity": 70}, {"time": 17440, "pitch": 68, "duration": 80, "velocity": 85}, {"time": 17520, "pitch": 64, "duration": 140, "velocity": 85}, {"time": 17520, "pitch": 68, "duration": 140, "velocity": 80}, {"time": 17520, "pitch": 71, "duration": 10, "velocity": 75}, {"time": 17520, "pitch": 76, "duration": 10, "velocity": 70}, {"time": 17680, "pitch": 64, "duration": 70, "velocity": 80}, {"time": 17680, "pitch": 68, "duration": 70, "velocity": 85}, {"time": 17680, "pitch": 71, "duration": 60, "velocity": 90}, {"time": 17680, "pitch": 76, "duration": 60, "velocity": 95}, {"time": 17760, "pitch": 64, "duration": 209, "velocity": 95}, {"time": 17760, "pitch": 69, "duration": 209, "velocity": 100}, {"time": 17770, "pitch": 72, "duration": 199, "velocity": 105}, {"time": 17999, "pitch": 64, "duration": 209, "velocity": 95}, {"time": 17999, "pitch": 68, "duration": 209, "velocity": 100}, {"time": 18009, "pitch": 71, "duration": 199, "velocity": 105}, {"time": 18019, "pitch": 74, "duration": 189, "velocity": 110}, {"time": 18238, "pitch": 64, "duration": 10, "velocity": 95}, {"time": 18238, "pitch": 69, "duration": 10, "velocity": 100}, {"time": 18238, "pitch": 72, "duration": 10, "velocity": 105}, {"time": 18478, "pitch": 66, "duration": 452, "velocity": 95}, {"time": 18478, "pitch": 69, "duration": 452, "velocity": 100}, {"time": 18488, "pitch": 72, "duration": 442, "velocity": 105}, {"time": 18498, "pitch": 76, "duration": 432, "velocity": 110}, {"time": 18960, "pitch": 66, "duration": 213, "velocity": 95}, {"time": 18960, "pitch": 69, "duration": 213, "velocity": 100}, {"time": 18970, "pitch": 72, "duration": 203, "velocity": 105}, {"time": 18980, "pitch": 76, "duration": 193, "velocity": 110}, {"time": 19203, "pitch": 66, "duration": 150, "velocity": 90}, {"time": 19203, "pitch": 69, "duration": 150, "velocity": 95}, {"time": 19213, "pitch": 72, "duration": 140, "velocity": 100}, {"time": 19213, "pitch": 76, "duration": 140, "velocity": 105}, {"time": 19363, "pitch": 66, "duration": 79, "velocity": 75}, {"time": 19363, "pitch": 69, "duration": 60, "velocity": 80}, {"time": 19363, "pitch": 72, "duration": 70, "velocity": 85}, {"time": 19442, "pitch": 66, "duration": 60, "velocity": 65}, {"time": 19442, "pitch": 69, "duration": 60, "velocity": 60}, {"time": 19442, "pitch": 72, "duration": 70, "velocity": 55}, {"time": 19442, "pitch": 76, "duration": 70, "velocity": 50}, {"time": 19602, "pitch": 66, "duration": 70, "velocity": 90}, {"time": 19602, "pitch": 69, "duration": 70, "velocity": 95}, {"time": 19602, "pitch": 72, "duration": 60, "velocity": 100}, {"time": 19602, "pitch": 76, "duration": 60, "velocity": 105}, {"time": 19682, "pitch": 53, "duration": 209, "velocity": 95}, {"time": 19682, "pitch": 57, "duration": 209, "velocity": 100}, {"time": 19692, "pitch": 60, "duration": 199, "velocity": 105}, {"time": 19702, "pitch": 65, "duration": 189, "velocity": 110}, {"time": 19911, "pitch": 65, "duration": 170, "velocity": 94}, {"time": 19921, "pitch": 60, "duration": 160, "velocity": 89}, {"time": 19931, "pitch": 57, "duration": 150, "velocity": 84}, {"time": 19941, "pitch": 53, "duration": 140, "velocity": 79}, {"time": 20160, "pitch": 53, "duration": 210, "velocity": 95}, {"time": 20160, "pitch": 57, "duration": 210, "velocity": 100}, {"time": 20170, "pitch": 60, "duration": 200, "velocity": 105}, {"time": 20180, "pitch": 65, "duration": 190, "velocity": 110}, {"time": 20400, "pitch": 53, "duration": 70, "velocity": 65}, {"time": 20400, "pitch": 57, "duration": 70, "velocity": 70}, {"time": 20410, "pitch": 60, "duration": 60, "velocity": 75}, {"time": 20410, "pitch": 65, "duration": 60, "velocity": 80}, {"time": 20559, "pitch": 53, "duration": 80, "velocity": 95}, {"time": 20559, "pitch": 57, "duration": 80, "velocity": 100}, {"time": 20569, "pitch": 60, "duration": 70, "velocity": 105}, {"time": 20579, "pitch": 65, "duration": 60, "velocity": 110}, {"time": 20799, "pitch": 52, "duration": 70, "velocity": 100}, {"time": 20799, "pitch": 55, "duration": 70, "velocity": 105}, {"time": 20799, "pitch": 59, "duration": 60, "velocity": 110}, {"time": 20799, "pitch": 64, "duration": 60, "velocity": 115}, {"time": 20879, "pitch": 52, "duration": 79, "velocity": 60}, {"time": 20879, "pitch": 55, "duration": 79, "velocity": 75}, {"time": 20879, "pitch": 59, "duration": 89, "velocity": 80}, {"time": 20879, "pitch": 64, "duration": 89, "velocity": 85}, {"time": 21038, "pitch": 55, "duration": 80, "velocity": 65}, {"time": 21038, "pitch": 59, "duration": 60, "velocity": 70}, {"time": 21038, "pitch": 64, "duration": 50, "velocity": 75}, {"time": 21118, "pitch": 52, "duration": 149, "velocity": 100}, {"time": 21118, "pitch": 55, "duration": 149, "velocity": 105}, {"time": 21128, "pitch": 59, "duration": 139, "velocity": 110}, {"time": 21128, "pitch": 64, "duration": 139, "velocity": 115}, {"time": 21277, "pitch": 52, "duration": 80, "velocity": 75}, {"time": 21277, "pitch": 55, "duration": 60, "velocity": 80}, {"time": 21277, "pitch": 59, "duration": 70, "velocity": 85}, {"time": 21357, "pitch": 52, "duration": 60, "velocity": 65}, {"time": 21357, "pitch": 55, "duration": 60, "velocity": 60}, {"time": 21357, "pitch": 59, "duration": 70, "velocity": 55}, {"time": 21357, "pitch": 64, "duration": 70, "velocity": 50}, {"time": 21517, "pitch": 52, "duration": 70, "velocity": 90}, {"time": 21517, "pitch": 55, "duration": 70, "velocity": 95}, {"time": 21517, "pitch": 59, "duration": 60, "velocity": 100}, {"time": 21517, "pitch": 64, "duration": 60, "velocity": 105}, {"time": 21597, "pitch": 57, "duration": 212, "velocity": 95}, {"time": 21597, "pitch": 62, "duration": 212, "velocity": 100}, {"time": 21607, "pitch": 64, "duration": 202, "velocity": 105}, {"time": 21617, "pitch": 69, "duration": 192, "velocity": 110}, {"time": 21829, "pitch": 69, "duration": 173, "velocity": 94}, {"time": 21840, "pitch": 64, "duration": 162, "velocity": 89}, {"time": 21850, "pitch": 62, "duration": 152, "velocity": 84}, {"time": 21860, "pitch": 57, "duration": 142, "velocity": 79}, {"time": 22083, "pitch": 57, "duration": 209, "velocity": 95}, {"time": 22083, "pitch": 62, "duration": 209, "velocity": 100}, {"time": 22093, "pitch": 64, "duration": 199, "velocity": 105}, {"time": 22103, "pitch": 69, "duration": 189, "velocity": 110}, {"time": 22322, "pitch": 57, "duration": 70, "velocity": 65}, {"time": 22322, "pitch": 61, "duration": 70, "velocity": 70}, {"time": 22332, "pitch": 64, "duration": 60, "velocity": 75}, {"time": 22332, "pitch": 69, "duration": 60, "velocity": 80}, {"time": 22482, "pitch": 57, "duration": 209, "velocity": 95}, {"time": 22482, "pitch": 61, "duration": 209, "velocity": 100}, {"time": 22492, "pitch": 64, "duration": 199, "velocity": 105}, {"time": 22502, "pitch": 69, "duration": 189, "velocity": 110}, {"time": 22721, "pitch": 57, "duration": 70, "velocity": 100}, {"time": 22721, "pitch": 61, "duration": 70, "velocity": 105}, {"time": 22721, "pitch": 64, "duration": 60, "velocity": 110}, {"time": 22721, "pitch": 69, "duration": 60, "velocity": 115}, {"time": 22801, "pitch": 57, "duration": 80, "velocity": 60}, {"time": 22801, "pitch": 61, "duration": 80, "velocity": 75}, {"time": 22801, "pitch": 64, "duration": 89, "velocity": 80}, {"time": 22801, "pitch": 69, "duration": 89, "velocity": 85}, {"time": 22960, "pitch": 61, "duration": 80, "velocity": 65}, {"time": 22960, "pitch": 64, "duration": 60, "velocity": 70}, {"time": 22960, "pitch": 69, "duration": 50, "velocity": 75}, {"time": 23040, "pitch": 57, "duration": 150, "velocity": 100}, {"time": 23040, "pitch": 61, "duration": 150, "velocity": 105}, {"time": 23050, "pitch": 64, "duration": 140, "velocity": 110}, {"time": 23050, "pitch": 69, "duration": 140, "velocity": 115}, {"time": 23200, "pitch": 57, "duration": 79, "velocity": 75}, {"time": 23200, "pitch": 61, "duration": 59, "velocity": 80}, {"time": 23200, "pitch": 64, "duration": 69, "velocity": 85}, {"time": 23279, "pitch": 57, "duration": 60, "velocity": 65}, {"time": 23279, "pitch": 61, "duration": 60, "velocity": 60}, {"time": 23279, "pitch": 64, "duration": 70, "velocity": 55}, {"time": 23279, "pitch": 69, "duration": 70, "velocity": 50}, {"time": 23439, "pitch": 57, "duration": 70, "velocity": 90}, {"time": 23439, "pitch": 61, "duration": 70, "velocity": 95}, {"time": 23439, "pitch": 64, "duration": 60, "velocity": 100}, {"time": 23439, "pitch": 69, "duration": 60, "velocity": 105}, {"time": 23519, "pitch": 52, "duration": 209, "velocity": 95}, {"time": 23519, "pitch": 69, "duration": 209, "velocity": 100}, {"time": 23529, "pitch": 60, "duration": 199, "velocity": 105}, {"time": 23539, "pitch": 64, "duration": 189, "velocity": 110}, {"time": 23748, "pitch": 64, "duration": 170, "velocity": 94}, {"time": 23758, "pitch": 60, "duration": 160, "velocity": 89}, {"time": 23768, "pitch": 69, "duration": 150, "velocity": 84}, {"time": 23778, "pitch": 52, "duration": 140, "velocity": 79}, {"time": 23997, "pitch": 52, "duration": 213, "velocity": 95}, {"time": 23997, "pitch": 69, "duration": 213, "velocity": 100}, {"time": 24008, "pitch": 60, "duration": 202, "velocity": 105}, {"time": 24018, "pitch": 64, "duration": 192, "velocity": 110}, {"time": 24241, "pitch": 52, "duration": 70, "velocity": 65}, {"time": 24241, "pitch": 69, "duration": 70, "velocity": 70}, {"time": 24251, "pitch": 60, "duration": 60, "velocity": 75}, {"time": 24251, "pitch": 64, "duration": 60, "velocity": 80}, {"time": 24403, "pitch": 52, "duration": 210, "velocity": 95}, {"time": 24403, "pitch": 69, "duration": 210, "velocity": 100}, {"time": 24413, "pitch": 59, "duration": 200, "velocity": 105}, {"time": 24423, "pitch": 62, "duration": 190, "velocity": 110}, {"time": 24643, "pitch": 52, "duration": 70, "velocity": 100}, {"time": 24643, "pitch": 59, "duration": 60, "velocity": 110}, {"time": 24643, "pitch": 62, "duration": 60, "velocity": 115}, {"time": 24643, "pitch": 69, "duration": 70, "velocity": 105}, {"time": 24723, "pitch": 52, "duration": 80, "velocity": 60}, {"time": 24723, "pitch": 59, "duration": 90, "velocity": 80}, {"time": 24723, "pitch": 62, "duration": 90, "velocity": 85}, {"time": 24723, "pitch": 69, "duration": 80, "velocity": 75}, {"time": 24882, "pitch": 59, "duration": 60, "velocity": 70}, {"time": 24882, "pitch": 62, "duration": 50, "velocity": 75}, {"time": 24882, "pitch": 69, "duration": 80, "velocity": 65}, {"time": 24962, "pitch": 52, "duration": 150, "velocity": 100}, {"time": 24962, "pitch": 69, "duration": 150, "velocity": 105}, {"time": 24972, "pitch": 59, "duration": 140, "velocity": 110}, {"time": 24972, "pitch": 62, "duration": 140, "velocity": 115}, {"time": 25122, "pitch": 52, "duration": 80, "velocity": 75}, {"time": 25122, "pitch": 59, "duration": 70, "velocity": 85}, {"time": 25122, "pitch": 69, "duration": 60, "velocity": 80}, {"time": 25202, "pitch": 52, "duration": 59, "velocity": 65}, {"time": 25202, "pitch": 59, "duration": 69, "velocity": 55}, {"time": 25202, "pitch": 62, "duration": 69, "velocity": 50}, {"time": 25202, "pitch": 69, "duration": 59, "velocity": 60}, {"time": 25361, "pitch": 52, "duration": 70, "velocity": 90}, {"time": 25361, "pitch": 59, "duration": 60, "velocity": 100}, {"time": 25361, "pitch": 62, "duration": 60, "velocity": 105}, {"time": 25361, "pitch": 69, "duration": 70, "velocity": 95}, {"time": 25441, "pitch": 52, "duration": 209, "velocity": 95}, {"time": 25441, "pitch": 69, "duration": 209, "velocity": 100}, {"time": 25451, "pitch": 60, "duration": 199, "velocity": 105}, {"time": 25461, "pitch": 64, "duration": 189, "velocity": 110}, {"time": 25670, "pitch": 64, "duration": 170, "velocity": 94}, {"time": 25680, "pitch": 60, "duration": 160, "velocity": 89}, {"time": 25690, "pitch": 69, "duration": 150, "velocity": 84}, {"time": 25700, "pitch": 52, "duration": 140, "velocity": 79}, {"time": 25920, "pitch": 52, "duration": 209, "velocity": 95}, {"time": 25920, "pitch": 69, "duration": 209, "velocity": 100}, {"time": 25930, "pitch": 60, "duration": 199, "velocity": 105}, {"time": 25940, "pitch": 64, "duration": 189, "velocity": 110}, {"time": 26159, "pitch": 52, "duration": 70, "velocity": 65}, {"time": 26159, "pitch": 69, "duration": 70, "velocity": 70}, {"time": 26169, "pitch": 60, "duration": 60, "velocity": 75}, {"time": 26169, "pitch": 64, "duration": 60, "velocity": 80}, {"time": 26319, "pitch": 52, "duration": 209, "velocity": 95}, {"time": 26319, "pitch": 69, "duration": 209, "velocity": 100}, {"time": 26329, "pitch": 60, "duration": 199, "velocity": 105}, {"time": 26338, "pitch": 64, "duration": 190, "velocity": 110}, {"time": 26558, "pitch": 52, "duration": 70, "velocity": 100}, {"time": 26558, "pitch": 60, "duration": 60, "velocity": 110}, {"time": 26558, "pitch": 64, "duration": 60, "velocity": 115}, {"time": 26558, "pitch": 69, "duration": 70, "velocity": 105}, {"time": 26638, "pitch": 52, "duration": 79, "velocity": 60}, {"time": 26638, "pitch": 60, "duration": 89, "velocity": 80}, {"time": 26638, "pitch": 64, "duration": 89, "velocity": 85}, {"time": 26638, "pitch": 69, "duration": 79, "velocity": 75}, {"time": 26797, "pitch": 60, "duration": 60, "velocity": 70}, {"time": 26797, "pitch": 64, "duration": 50, "velocity": 75}, {"time": 26797, "pitch": 69, "duration": 80, "velocity": 65}, {"time": 26877, "pitch": 52, "duration": 152, "velocity": 100}, {"time": 26877, "pitch": 69, "duration": 152, "velocity": 105}, {"time": 26887, "pitch": 60, "duration": 142, "velocity": 110}, {"time": 26887, "pitch": 64, "duration": 142, "velocity": 115}, {"time": 27039, "pitch": 52, "duration": 81, "velocity": 75}, {"time": 27039, "pitch": 60, "duration": 71, "velocity": 85}, {"time": 27039, "pitch": 69, "duration": 61, "velocity": 80}, {"time": 27120, "pitch": 52, "duration": 61, "velocity": 65}, {"time": 27120, "pitch": 60, "duration": 71, "velocity": 55}, {"time": 27120, "pitch": 64, "duration": 71, "velocity": 50}, {"time": 27120, "pitch": 69, "duration": 61, "velocity": 60}, {"time": 27282, "pitch": 52, "duration": 71, "velocity": 90}, {"time": 27282, "pitch": 60, "duration": 61, "velocity": 100}, {"time": 27282, "pitch": 64, "duration": 61, "velocity": 105}, {"time": 27282, "pitch": 69, "duration": 71, "velocity": 95}, {"time": 27363, "pitch": 52, "duration": 210, "velocity": 95}, {"time": 27363, "pitch": 69, "duration": 210, "velocity": 100}, {"time": 27373, "pitch": 60, "duration": 200, "velocity": 105}, {"time": 27383, "pitch": 64, "duration": 190, "velocity": 110}, {"time": 27593, "pitch": 64, "duration": 169, "velocity": 94}, {"time": 27603, "pitch": 60, "duration": 159, "velocity": 89}, {"time": 27612, "pitch": 69, "duration": 150, "velocity": 84}, {"time": 27622, "pitch": 52, "duration": 140, "velocity": 79}, {"time": 27842, "pitch": 52, "duration": 209, "velocity": 95}, {"time": 27842, "pitch": 69, "duration": 209, "velocity": 100}, {"time": 27852, "pitch": 60, "duration": 199, "velocity": 105}, {"time": 27862, "pitch": 64, "duration": 189, "velocity": 110}, {"time": 28081, "pitch": 52, "duration": 70, "velocity": 65}, {"time": 28081, "pitch": 69, "duration": 70, "velocity": 70}, {"time": 28091, "pitch": 60, "duration": 60, "velocity": 75}, {"time": 28091, "pitch": 64, "duration": 60, "velocity": 80}, {"time": 28241, "pitch": 52, "duration": 209, "velocity": 95}, {"time": 28241, "pitch": 69, "duration": 209, "velocity": 100}, {"time": 28251, "pitch": 59, "duration": 199, "velocity": 105}, {"time": 28261, "pitch": 62, "duration": 189, "velocity": 110}, {"time": 28480, "pitch": 52, "duration": 70, "velocity": 100}, {"time": 28480, "pitch": 59, "duration": 60, "velocity": 110}, {"time": 28480, "pitch": 62, "duration": 60, "velocity": 115}, {"time": 28480, "pitch": 69, "duration": 70, "velocity": 105}, {"time": 28560, "pitch": 52, "duration": 80, "velocity": 60}, {"time": 28560, "pitch": 59, "duration": 90, "velocity": 80}, {"time": 28560, "pitch": 62, "duration": 90, "velocity": 85}, {"time": 28560, "pitch": 69, "duration": 80, "velocity": 75}, {"time": 28719, "pitch": 59, "duration": 60, "velocity": 70}, {"time": 28719, "pitch": 62, "duration": 50, "velocity": 75}, {"time": 28719, "pitch": 69, "duration": 80, "velocity": 65}, {"time": 28799, "pitch": 52, "duration": 150, "velocity": 100}, {"time": 28799, "pitch": 69, "duration": 150, "velocity": 105}, {"time": 28809, "pitch": 59, "duration": 140, "velocity": 110}, {"time": 28809, "pitch": 62, "duration": 140, "velocity": 115}, {"time": 28959, "pitch": 52, "duration": 80, "velocity": 75}, {"time": 28959, "pitch": 59, "duration": 70, "velocity": 85}, {"time": 28959, "pitch": 69, "duration": 60, "velocity": 80}, {"time": 31200, "pitch": 52, "duration": 210, "velocity": 95}, {"time": 31200, "pitch": 69, "duration": 210, "velocity": 100}, {"time": 31210, "pitch": 60, "duration": 200, "velocity": 105}, {"time": 31220, "pitch": 64, "duration": 190, "velocity": 110}, {"time": 31429, "pitch": 64, "duration": 170, "velocity": 94}, {"time": 31439, "pitch": 60, "duration": 160, "velocity": 89}, {"time": 31449, "pitch": 69, "duration": 150, "velocity": 84}, {"time": 31459, "pitch": 52, "duration": 140, "velocity": 79}, {"time": 31679, "pitch": 52, "duration": 209, "velocity": 95}, {"time": 31679, "pitch": 69, "duration": 209, "velocity": 100}, {"time": 31689, "pitch": 60, "duration": 199, "velocity": 105}, {"time": 31699, "pitch": 64, "duration": 189, "velocity": 110}, {"time": 31918, "pitch": 52, "duration": 70, "velocity": 65}, {"time": 31918, "pitch": 69, "duration": 70, "velocity": 70}, {"time": 31928, "pitch": 60, "duration": 60, "velocity": 75}, {"time": 31928, "pitch": 64, "duration": 60, "velocity": 80}, {"time": 32078, "pitch": 52, "duration": 211, "velocity": 95}, {"time": 32078, "pitch": 69, "duration": 211, "velocity": 100}, {"time": 32088, "pitch": 59, "duration": 201, "velocity": 105}, {"time": 32098, "pitch": 62, "duration": 191, "velocity": 110}, {"time": 32319, "pitch": 52, "duration": 71, "velocity": 100}, {"time": 32319, "pitch": 59, "duration": 61, "velocity": 110}, {"time": 32319, "pitch": 62, "duration": 61, "velocity": 115}, {"time": 32319, "pitch": 69, "duration": 71, "velocity": 105}, {"time": 32401, "pitch": 52, "duration": 81, "velocity": 60}, {"time": 32401, "pitch": 59, "duration": 91, "velocity": 80}, {"time": 32401, "pitch": 62, "duration": 91, "velocity": 85}, {"time": 32401, "pitch": 69, "duration": 81, "velocity": 75}, {"time": 32563, "pitch": 59, "duration": 60, "velocity": 70}, {"time": 32563, "pitch": 62, "duration": 50, "velocity": 75}, {"time": 32563, "pitch": 69, "duration": 81, "velocity": 65}, {"time": 32644, "pitch": 52, "duration": 149, "velocity": 100}, {"time": 32644, "pitch": 69, "duration": 149, "velocity": 105}, {"time": 32654, "pitch": 59, "duration": 139, "velocity": 110}, {"time": 32654, "pitch": 62, "duration": 139, "velocity": 115}, {"time": 32803, "pitch": 52, "duration": 80, "velocity": 75}, {"time": 32803, "pitch": 59, "duration": 70, "velocity": 85}, {"time": 32803, "pitch": 69, "duration": 60, "velocity": 80}, {"time": 32883, "pitch": 52, "duration": 60, "velocity": 65}, {"time": 32883, "pitch": 59, "duration": 70, "velocity": 55}, {"time": 32883, "pitch": 62, "duration": 70, "velocity": 50}, {"time": 32883, "pitch": 69, "duration": 60, "velocity": 60}, {"time": 33043, "pitch": 52, "duration": 69, "velocity": 90}, {"time": 33043, "pitch": 59, "duration": 59, "velocity": 100}, {"time": 33043, "pitch": 62, "duration": 59, "velocity": 105}, {"time": 33043, "pitch": 69, "duration": 69, "velocity": 95}, {"time": 33122, "pitch": 52, "duration": 210, "velocity": 95}, {"time": 33122, "pitch": 69, "duration": 210, "velocity": 100}, {"time": 33132, "pitch": 60, "duration": 200, "velocity": 105}, {"time": 33142, "pitch": 64, "duration": 190, "velocity": 110}, {"time": 33352, "pitch": 64, "duration": 169, "velocity": 94}, {"time": 33362, "pitch": 60, "duration": 159, "velocity": 89}, {"time": 33372, "pitch": 69, "duration": 149, "velocity": 84}, {"time": 33382, "pitch": 52, "duration": 139, "velocity": 79}, {"time": 33601, "pitch": 52, "duration": 209, "velocity": 95}, {"time": 33601, "pitch": 69, "duration": 209, "velocity": 100}, {"time": 33611, "pitch": 60, "duration": 199, "velocity": 105}, {"time": 33621, "pitch": 64, "duration": 189, "velocity": 110}, {"time": 33840, "pitch": 52, "duration": 70, "velocity": 65}, {"time": 33840, "pitch": 69, "duration": 70, "velocity": 70}, {"time": 33850, "pitch": 60, "duration": 60, "velocity": 75}, {"time": 33850, "pitch": 64, "duration": 60, "velocity": 80}, {"time": 34000, "pitch": 52, "duration": 209, "velocity": 95}, {"time": 34000, "pitch": 69, "duration": 209, "velocity": 100}, {"time": 34010, "pitch": 60, "duration": 199, "velocity": 105}, {"time": 34020, "pitch": 64, "duration": 189, "velocity": 110}, {"time": 34239, "pitch": 52, "duration": 70, "velocity": 100}, {"time": 34239, "pitch": 60, "duration": 60, "velocity": 110}, {"time": 34239, "pitch": 64, "duration": 60, "velocity": 115}, {"time": 34239, "pitch": 69, "duration": 70, "velocity": 105}, {"time": 34319, "pitch": 52, "duration": 80, "velocity": 60}, {"time": 34319, "pitch": 60, "duration": 90, "velocity": 80}, {"time": 34319, "pitch": 64, "duration": 90, "velocity": 85}, {"time": 34319, "pitch": 69, "duration": 80, "velocity": 75}, {"time": 34479, "pitch": 60, "duration": 59, "velocity": 70}, {"time": 34479, "pitch": 64, "duration": 49, "velocity": 75}, {"time": 34479, "pitch": 69, "duration": 79, "velocity": 65}, {"time": 34558, "pitch": 52, "duration": 150, "velocity": 100}, {"time": 34558, "pitch": 69, "duration": 150, "velocity": 105}, {"time": 34568, "pitch": 60, "duration": 140, "velocity": 110}, {"time": 34568, "pitch": 64, "duration": 140, "velocity": 115}, {"time": 34718, "pitch": 52, "duration": 80, "velocity": 75}, {"time": 34718, "pitch": 60, "duration": 70, "velocity": 85}, {"time": 34718, "pitch": 69, "duration": 60, "velocity": 80}, {"time": 34798, "pitch": 52, "duration": 60, "velocity": 65}, {"time": 34798, "pitch": 60, "duration": 69, "velocity": 55}, {"time": 34798, "pitch": 64, "duration": 69, "velocity": 50}, {"time": 34798, "pitch": 69, "duration": 60, "velocity": 60}, {"time": 34957, "pitch": 52, "duration": 70, "velocity": 90}, {"time": 34957, "pitch": 60, "duration": 60, "velocity": 100}, {"time": 34957, "pitch": 64, "duration": 60, "velocity": 105}, {"time": 34957, "pitch": 69, "duration": 70, "velocity": 95}, {"time": 35037, "pitch": 52, "duration": 213, "velocity": 95}, {"time": 35037, "pitch": 69, "duration": 213, "velocity": 100}, {"time": 35047, "pitch": 57, "duration": 203, "velocity": 105}, {"time": 35057, "pitch": 62, "duration": 193, "velocity": 110}, {"time": 35270, "pitch": 62, "duration": 172, "velocity": 94}, {"time": 35280, "pitch": 57, "duration": 162, "velocity": 89}, {"time": 35290, "pitch": 69, "duration": 152, "velocity": 84}, {"time": 35300, "pitch": 52, "duration": 142, "velocity": 79}, {"time": 35523, "pitch": 52, "duration": 210, "velocity": 95}, {"time": 35523, "pitch": 69, "duration": 210, "velocity": 100}, {"time": 35533, "pitch": 57, "duration": 200, "velocity": 105}, {"time": 35543, "pitch": 62, "duration": 190, "velocity": 110}, {"time": 35763, "pitch": 52, "duration": 69, "velocity": 65}, {"time": 35763, "pitch": 69, "duration": 69, "velocity": 70}, {"time": 35772, "pitch": 57, "duration": 60, "velocity": 75}, {"time": 35772, "pitch": 62, "duration": 60, "velocity": 80}, {"time": 35922, "pitch": 52, "duration": 210, "velocity": 95}, {"time": 35922, "pitch": 69, "duration": 210, "velocity": 100}, {"time": 35932, "pitch": 57, "duration": 200, "velocity": 105}, {"time": 35942, "pitch": 62, "duration": 190, "velocity": 110}, {"time": 36161, "pitch": 52, "duration": 70, "velocity": 100}, {"time": 36161, "pitch": 57, "duration": 60, "velocity": 110}, {"time": 36161, "pitch": 62, "duration": 60, "velocity": 115}, {"time": 36161, "pitch": 69, "duration": 70, "velocity": 105}, {"time": 36241, "pitch": 52, "duration": 80, "velocity": 60}, {"time": 36241, "pitch": 57, "duration": 90, "velocity": 80}, {"time": 36241, "pitch": 62, "duration": 90, "velocity": 85}, {"time": 36241, "pitch": 69, "duration": 80, "velocity": 75}, {"time": 36401, "pitch": 57, "duration": 60, "velocity": 70}, {"time": 36401, "pitch": 62, "duration": 50, "velocity": 75}, {"time": 36401, "pitch": 69, "duration": 80, "velocity": 65}, {"time": 36481, "pitch": 52, "duration": 149, "velocity": 100}, {"time": 36481, "pitch": 69, "duration": 149, "velocity": 105}, {"time": 36491, "pitch": 57, "duration": 139, "velocity": 110}, {"time": 36491, "pitch": 62, "duration": 139, "velocity": 115}, {"time": 36640, "pitch": 52, "duration": 80, "velocity": 75}, {"time": 36640, "pitch": 57, "duration": 70, "velocity": 85}, {"time": 36640, "pitch": 69, "duration": 60, "velocity": 80}, {"time": 36720, "pitch": 52, "duration": 239, "velocity": 65}, {"time": 36720, "pitch": 59, "duration": 239, "velocity": 55}, {"time": 36720, "pitch": 64, "duration": 239, "velocity": 50}, {"time": 36720, "pitch": 68, "duration": 239, "velocity": 60}, {"time": 37199, "pitch": 52, "duration": 239, "velocity": 65}, {"time": 37199, "pitch": 59, "duration": 239, "velocity": 55}, {"time": 37199, "pitch": 64, "duration": 239, "velocity": 50}, {"time": 37199, "pitch": 68, "duration": 239, "velocity": 60}, {"time": 37677, "pitch": 52, "duration": 240, "velocity": 65}, {"time": 37677, "pitch": 59, "duration": 240, "velocity": 55}, {"time": 37677, "pitch": 64, "duration": 240, "velocity": 50}, {"time": 37677, "pitch": 68, "duration": 240, "velocity": 60}, {"time": 38881, "pitch": 52, "duration": 210, "velocity": 95}, {"time": 38881, "pitch": 69, "duration": 210, "velocity": 100}, {"time": 38891, "pitch": 60, "duration": 200, "velocity": 105}, {"time": 38901, "pitch": 64, "duration": 190, "velocity": 110}, {"time": 39111, "pitch": 64, "duration": 169, "velocity": 94}, {"time": 39121, "pitch": 60, "duration": 159, "velocity": 89}, {"time": 39131, "pitch": 69, "duration": 149, "velocity": 84}, {"time": 39141, "pitch": 52, "duration": 139, "velocity": 79}, {"time": 39360, "pitch": 52, "duration": 210, "velocity": 95}, {"time": 39360, "pitch": 69, "duration": 210, "velocity": 100}, {"time": 39370, "pitch": 60, "duration": 200, "velocity": 105}, {"time": 39380, "pitch": 64, "duration": 190, "velocity": 110}, {"time": 39599, "pitch": 52, "duration": 70, "velocity": 65}, {"time": 39599, "pitch": 69, "duration": 70, "velocity": 70}, {"time": 39609, "pitch": 60, "duration": 60, "velocity": 75}, {"time": 39609, "pitch": 64, "duration": 60, "velocity": 80}, {"time": 39759, "pitch": 52, "duration": 209, "velocity": 95}, {"time": 39759, "pitch": 69, "duration": 209, "velocity": 100}, {"time": 39769, "pitch": 60, "duration": 199, "velocity": 105}, {"time": 39779, "pitch": 64, "duration": 189, "velocity": 110}, {"time": 39998, "pitch": 52, "duration": 70, "velocity": 100}, {"time": 39998, "pitch": 60, "duration": 60, "velocity": 110}, {"time": 39998, "pitch": 64, "duration": 60, "velocity": 115}, {"time": 39998, "pitch": 69, "duration": 70, "velocity": 105}, {"time": 40078, "pitch": 52, "duration": 80, "velocity": 60}, {"time": 40078, "pitch": 60, "duration": 90, "velocity": 80}, {"time": 40078, "pitch": 64, "duration": 90, "velocity": 85}, {"time": 40078, "pitch": 69, "duration": 80, "velocity": 75}, {"time": 40238, "pitch": 60, "duration": 60, "velocity": 70}, {"time": 40238, "pitch": 64, "duration": 50, "velocity": 75}, {"time": 40238, "pitch": 69, "duration": 79, "velocity": 65}, {"time": 40317, "pitch": 52, "duration": 152, "velocity": 100}, {"time": 40317, "pitch": 69, "duration": 152, "velocity": 105}, {"time": 40328, "pitch": 60, "duration": 141, "velocity": 110}, {"time": 40328, "pitch": 64, "duration": 141, "velocity": 115}, {"time": 40480, "pitch": 52, "duration": 81, "velocity": 75}, {"time": 40480, "pitch": 60, "duration": 70, "velocity": 85}, {"time": 40480, "pitch": 69, "duration": 60, "velocity": 80}, {"time": 40561, "pitch": 52, "duration": 60, "velocity": 65}, {"time": 40561, "pitch": 60, "duration": 70, "velocity": 55}, {"time": 40561, "pitch": 64, "duration": 70, "velocity": 50}, {"time": 40561, "pitch": 69, "duration": 60, "velocity": 60}, {"time": 40723, "pitch": 52, "duration": 71, "velocity": 90}, {"time": 40723, "pitch": 60, "duration": 60, "velocity": 100}, {"time": 40723, "pitch": 64, "duration": 60, "velocity": 105}, {"time": 40723, "pitch": 69, "duration": 71, "velocity": 95}, {"time": 40804, "pitch": 50, "duration": 209, "velocity": 95}, {"time": 40804, "pitch": 69, "duration": 209, "velocity": 100}, {"time": 40814, "pitch": 62, "duration": 199, "velocity": 105}, {"time": 40824, "pitch": 65, "duration": 189, "velocity": 110}, {"time": 41033, "pitch": 65, "duration": 170, "velocity": 94}, {"time": 41043, "pitch": 62, "duration": 160, "velocity": 89}, {"time": 41053, "pitch": 69, "duration": 150, "velocity": 84}, {"time": 41063, "pitch": 50, "duration": 140, "velocity": 79}, {"time": 41282, "pitch": 50, "duration": 210, "velocity": 95}, {"time": 41282, "pitch": 69, "duration": 210, "velocity": 100}, {"time": 41292, "pitch": 62, "duration": 200, "velocity": 105}, {"time": 41302, "pitch": 65, "duration": 190, "velocity": 110}, {"time": 41522, "pitch": 50, "duration": 69, "velocity": 65}, {"time": 41522, "pitch": 69, "duration": 69, "velocity": 70}, {"time": 41532, "pitch": 62, "duration": 59, "velocity": 75}, {"time": 41532, "pitch": 65, "duration": 59, "velocity": 80}, {"time": 41681, "pitch": 50, "duration": 210, "velocity": 95}, {"time": 41681, "pitch": 69, "duration": 210, "velocity": 100}, {"time": 41691, "pitch": 62, "duration": 200, "velocity": 105}, {"time": 41701, "pitch": 65, "duration": 190, "velocity": 110}, {"time": 41921, "pitch": 50, "duration": 69, "velocity": 100}, {"time": 41921, "pitch": 62, "duration": 59, "velocity": 110}, {"time": 41921, "pitch": 65, "duration": 59, "velocity": 115}, {"time": 41921, "pitch": 69, "duration": 69, "velocity": 105}, {"time": 42000, "pitch": 50, "duration": 80, "velocity": 60}, {"time": 42000, "pitch": 62, "duration": 90, "velocity": 80}, {"time": 42000, "pitch": 65, "duration": 90, "velocity": 85}, {"time": 42000, "pitch": 69, "duration": 80, "velocity": 75}, {"time": 42160, "pitch": 62, "duration": 60, "velocity": 70}, {"time": 42160, "pitch": 65, "duration": 50, "velocity": 75}, {"time": 42160, "pitch": 69, "duration": 80, "velocity": 65}, {"time": 42240, "pitch": 50, "duration": 149, "velocity": 100}, {"time": 42240, "pitch": 69, "duration": 149, "velocity": 105}, {"time": 42250, "pitch": 62, "duration": 139, "velocity": 110}, {"time": 42250, "pitch": 65, "duration": 139, "velocity": 115}, {"time": 42399, "pitch": 50, "duration": 80, "velocity": 75}, {"time": 42399, "pitch": 62, "duration": 70, "velocity": 85}, {"time": 42399, "pitch": 69, "duration": 60, "velocity": 80}, {"time": 42479, "pitch": 50, "duration": 60, "velocity": 65}, {"time": 42479, "pitch": 62, "duration": 70, "velocity": 55}, {"time": 42479, "pitch": 65, "duration": 70, "velocity": 50}, {"time": 42479, "pitch": 69, "duration": 60, "velocity": 60}, {"time": 42639, "pitch": 50, "duration": 69, "velocity": 90}, {"time": 42639, "pitch": 62, "duration": 59, "velocity": 100}, {"time": 42639, "pitch": 65, "duration": 59, "velocity": 105}, {"time": 42639, "pitch": 69, "duration": 69, "velocity": 95}, {"time": 42718, "pitch": 52, "duration": 210, "velocity": 95}, {"time": 42718, "pitch": 69, "duration": 210, "velocity": 100}, {"time": 42728, "pitch": 59, "duration": 200, "velocity": 105}, {"time": 42738, "pitch": 64, "duration": 190, "velocity": 110}, {"time": 42948, "pitch": 64, "duration": 169, "velocity": 94}, {"time": 42958, "pitch": 59, "duration": 159, "velocity": 89}, {"time": 42968, "pitch": 69, "duration": 149, "velocity": 84}, {"time": 42978, "pitch": 52, "duration": 139, "velocity": 79}, {"time": 43197, "pitch": 52, "duration": 213, "velocity": 95}, {"time": 43197, "pitch": 69, "duration": 213, "velocity": 100}, {"time": 43207, "pitch": 59, "duration": 203, "velocity": 105}, {"time": 43217, "pitch": 64, "duration": 193, "velocity": 110}, {"time": 43440, "pitch": 52, "duration": 71, "velocity": 65}, {"time": 43440, "pitch": 69, "duration": 71, "velocity": 70}, {"time": 43450, "pitch": 59, "duration": 61, "velocity": 75}, {"time": 43450, "pitch": 64, "duration": 61, "velocity": 80}, {"time": 43602, "pitch": 52, "duration": 211, "velocity": 95}, {"time": 43602, "pitch": 69, "duration": 211, "velocity": 100}, {"time": 43612, "pitch": 59, "duration": 201, "velocity": 105}, {"time": 43622, "pitch": 64, "duration": 191, "velocity": 110}, {"time": 43843, "pitch": 52, "duration": 70, "velocity": 100}, {"time": 43843, "pitch": 59, "duration": 60, "velocity": 110}, {"time": 43843, "pitch": 64, "duration": 60, "velocity": 115}, {"time": 43843, "pitch": 69, "duration": 70, "velocity": 105}, {"time": 43923, "pitch": 52, "duration": 79, "velocity": 60}, {"time": 43923, "pitch": 59, "duration": 89, "velocity": 80}, {"time": 43923, "pitch": 64, "duration": 89, "velocity": 85}, {"time": 43923, "pitch": 69, "duration": 79, "velocity": 75}, {"time": 44082, "pitch": 59, "duration": 60, "velocity": 70}, {"time": 44082, "pitch": 64, "duration": 50, "velocity": 75}, {"time": 44082, "pitch": 69, "duration": 80, "velocity": 65}, {"time": 44162, "pitch": 52, "duration": 149, "velocity": 100}, {"time": 44162, "pitch": 69, "duration": 149, "velocity": 105}, {"time": 44172, "pitch": 59, "duration": 139, "velocity": 110}, {"time": 44172, "pitch": 64, "duration": 139, "velocity": 115}, {"time": 44321, "pitch": 52, "duration": 80, "velocity": 75}, {"time": 44321, "pitch": 59, "duration": 70, "velocity": 85}, {"time": 44321, "pitch": 69, "duration": 60, "velocity": 80}, {"time": 44401, "pitch": 52, "duration": 60, "velocity": 65}, {"time": 44401, "pitch": 59, "duration": 70, "velocity": 55}, {"time": 44401, "pitch": 64, "duration": 70, "velocity": 50}, {"time": 44401, "pitch": 69, "duration": 60, "velocity": 60}, {"time": 44561, "pitch": 52, "duration": 70, "velocity": 90}, {"time": 44561, "pitch": 59, "duration": 60, "velocity": 100}, {"time": 44561, "pitch": 64, "duration": 60, "velocity": 105}, {"time": 44561, "pitch": 69, "duration": 70, "velocity": 95}, {"time": 44641, "pitch": 52, "duration": 209, "velocity": 95}, {"time": 44641, "pitch": 69, "duration": 209, "velocity": 100}, {"time": 44651, "pitch": 60, "duration": 199, "velocity": 105}, {"time": 44661, "pitch": 64, "duration": 189, "velocity": 110}, {"time": 44870, "pitch": 64, "duration": 169, "velocity": 94}, {"time": 44880, "pitch": 60, "duration": 159, "velocity": 89}, {"time": 44890, "pitch": 69, "duration": 149, "velocity": 84}, {"time": 44900, "pitch": 52, "duration": 139, "velocity": 79}, {"time": 45119, "pitch": 52, "duration": 210, "velocity": 95}, {"time": 45119, "pitch": 69, "duration": 210, "velocity": 100}, {"time": 45129, "pitch": 60, "duration": 200, "velocity": 105}, {"time": 45139, "pitch": 64, "duration": 190, "velocity": 110}, {"time": 45359, "pitch": 52, "duration": 69, "velocity": 65}, {"time": 45359, "pitch": 69, "duration": 69, "velocity": 70}, {"time": 45369, "pitch": 60, "duration": 59, "velocity": 75}, {"time": 45369, "pitch": 64, "duration": 59, "velocity": 80}, {"time": 45518, "pitch": 52, "duration": 210, "velocity": 95}, {"time": 45518, "pitch": 69, "duration": 210, "velocity": 100}, {"time": 45528, "pitch": 60, "duration": 200, "velocity": 105}, {"time": 45538, "pitch": 64, "duration": 190, "velocity": 110}, {"time": 45757, "pitch": 52, "duration": 70, "velocity": 100}, {"time": 45757, "pitch": 60, "duration": 60, "velocity": 110}, {"time": 45757, "pitch": 64, "duration": 60, "velocity": 115}, {"time": 45757, "pitch": 69, "duration": 70, "velocity": 105}, {"time": 45837, "pitch": 52, "duration": 80, "velocity": 60}, {"time": 45837, "pitch": 60, "duration": 90, "velocity": 80}, {"time": 45837, "pitch": 64, "duration": 90, "velocity": 85}, {"time": 45837, "pitch": 69, "duration": 80, "velocity": 75}, {"time": 45997, "pitch": 60, "duration": 60, "velocity": 70}, {"time": 45997, "pitch": 64, "duration": 50, "velocity": 75}, {"time": 45997, "pitch": 69, "duration": 80, "velocity": 65}, {"time": 46077, "pitch": 52, "duration": 152, "velocity": 100}, {"time": 46077, "pitch": 69, "duration": 152, "velocity": 105}, {"time": 46087, "pitch": 60, "duration": 142, "velocity": 110}, {"time": 46087, "pitch": 64, "duration": 142, "velocity": 115}, {"time": 46239, "pitch": 52, "duration": 81, "velocity": 75}, {"time": 46239, "pitch": 60, "duration": 71, "velocity": 85}, {"time": 46239, "pitch": 69, "duration": 60, "velocity": 80}, {"time": 46320, "pitch": 52, "duration": 60, "velocity": 65}, {"time": 46320, "pitch": 60, "duration": 71, "velocity": 55}, {"time": 46320, "pitch": 64, "duration": 71, "velocity": 50}, {"time": 46320, "pitch": 69, "duration": 60, "velocity": 60}, {"time": 46482, "pitch": 52, "duration": 71, "velocity": 90}, {"time": 46482, "pitch": 60, "duration": 61, "velocity": 100}, {"time": 46482, "pitch": 64, "duration": 61, "velocity": 105}, {"time": 46482, "pitch": 69, "duration": 71, "velocity": 95}, {"time": 46563, "pitch": 52, "duration": 209, "velocity": 95}, {"time": 46563, "pitch": 69, "duration": 209, "velocity": 100}, {"time": 46573, "pitch": 60, "duration": 199, "velocity": 105}, {"time": 46583, "pitch": 64, "duration": 189, "velocity": 110}, {"time": 46792, "pitch": 64, "duration": 170, "velocity": 94}, {"time": 46802, "pitch": 60, "duration": 160, "velocity": 89}, {"time": 46812, "pitch": 69, "duration": 150, "velocity": 84}, {"time": 46822, "pitch": 52, "duration": 140, "velocity": 79}, {"time": 47041, "pitch": 52, "duration": 210, "velocity": 95}, {"time": 47041, "pitch": 69, "duration": 210, "velocity": 100}, {"time": 47051, "pitch": 60, "duration": 200, "velocity": 105}, {"time": 47061, "pitch": 64, "duration": 190, "velocity": 110}, {"time": 47281, "pitch": 52, "duration": 70, "velocity": 65}, {"time": 47281, "pitch": 69, "duration": 70, "velocity": 70}, {"time": 47291, "pitch": 60, "duration": 60, "velocity": 75}, {"time": 47291, "pitch": 64, "duration": 60, "velocity": 80}, {"time": 47440, "pitch": 52, "duration": 210, "velocity": 95}, {"time": 47440, "pitch": 69, "duration": 210, "velocity": 100}, {"time": 47450, "pitch": 60, "duration": 200, "velocity": 105}, {"time": 47460, "pitch": 64, "duration": 190, "velocity": 110}, {"time": 47680, "pitch": 52, "duration": 69, "velocity": 100}, {"time": 47680, "pitch": 60, "duration": 60, "velocity": 110}, {"time": 47680, "pitch": 64, "duration": 60, "velocity": 115}, {"time": 47680, "pitch": 69, "duration": 69, "velocity": 105}, {"time": 47759, "pitch": 52, "duration": 80, "velocity": 60}, {"time": 47759, "pitch": 60, "duration": 90, "velocity": 80}, {"time": 47759, "pitch": 64, "duration": 90, "velocity": 85}, {"time": 47759, "pitch": 69, "duration": 80, "velocity": 75}, {"time": 47919, "pitch": 60, "duration": 60, "velocity": 70}, {"time": 47919, "pitch": 64, "duration": 50, "velocity": 75}, {"time": 47919, "pitch": 69, "duration": 80, "velocity": 65}, {"time": 47999, "pitch": 52, "duration": 149, "velocity": 100}, {"time": 47999, "pitch": 69, "duration": 149, "velocity": 105}, {"time": 48009, "pitch": 60, "duration": 139, "velocity": 110}, {"time": 48009, "pitch": 64, "duration": 139, "velocity": 115}, {"time": 48158, "pitch": 52, "duration": 80, "velocity": 75}, {"time": 48158, "pitch": 60, "duration": 70, "velocity": 85}, {"time": 48158, "pitch": 69, "duration": 60, "velocity": 80}, {"time": 48238, "pitch": 52, "duration": 60, "velocity": 65}, {"time": 48238, "pitch": 60, "duration": 70, "velocity": 55}, {"time": 48238, "pitch": 64, "duration": 70, "velocity": 50}, {"time": 48238, "pitch": 69, "duration": 60, "velocity": 60}, {"time": 48398, "pitch": 52, "duration": 70, "velocity": 90}, {"time": 48398, "pitch": 60, "duration": 60, "velocity": 100}, {"time": 48398, "pitch": 64, "duration": 60, "velocity": 105}, {"time": 48398, "pitch": 69, "duration": 70, "velocity": 95}, {"time": 48477, "pitch": 50, "duration": 213, "velocity": 95}, {"time": 48477, "pitch": 69, "duration": 213, "velocity": 100}, {"time": 48488, "pitch": 62, "duration": 202, "velocity": 105}, {"time": 48498, "pitch": 65, "duration": 192, "velocity": 110}, {"time": 48710, "pitch": 65, "duration": 173, "velocity": 94}, {"time": 48721, "pitch": 62, "duration": 162, "velocity": 89}, {"time": 48731, "pitch": 69, "duration": 152, "velocity": 84}, {"time": 48741, "pitch": 50, "duration": 142, "velocity": 79}, {"time": 48964, "pitch": 50, "duration": 209, "velocity": 95}, {"time": 48964, "pitch": 69, "duration": 209, "velocity": 100}, {"time": 48974, "pitch": 62, "duration": 199, "velocity": 105}, {"time": 48984, "pitch": 65, "duration": 189, "velocity": 110}, {"time": 49203, "pitch": 50, "duration": 70, "velocity": 65}, {"time": 49203, "pitch": 69, "duration": 70, "velocity": 70}, {"time": 49213, "pitch": 62, "duration": 60, "velocity": 75}, {"time": 49213, "pitch": 65, "duration": 60, "velocity": 80}, {"time": 49363, "pitch": 50, "duration": 209, "velocity": 95}, {"time": 49363, "pitch": 69, "duration": 209, "velocity": 100}, {"time": 49373, "pitch": 62, "duration": 199, "velocity": 105}, {"time": 49383, "pitch": 65, "duration": 189, "velocity": 110}, {"time": 49602, "pitch": 50, "duration": 70, "velocity": 100}, {"time": 49602, "pitch": 62, "duration": 60, "velocity": 110}, {"time": 49602, "pitch": 65, "duration": 60, "velocity": 115}, {"time": 49602, "pitch": 69, "duration": 70, "velocity": 105}, {"time": 49682, "pitch": 50, "duration": 79, "velocity": 60}, {"time": 49682, "pitch": 62, "duration": 89, "velocity": 80}, {"time": 49682, "pitch": 65, "duration": 89, "velocity": 85}, {"time": 49682, "pitch": 69, "duration": 79, "velocity": 75}, {"time": 49841, "pitch": 62, "duration": 60, "velocity": 70}, {"time": 49841, "pitch": 65, "duration": 50, "velocity": 75}, {"time": 49841, "pitch": 69, "duration": 80, "velocity": 65}, {"time": 49921, "pitch": 50, "duration": 150, "velocity": 100}, {"time": 49921, "pitch": 69, "duration": 150, "velocity": 105}, {"time": 49931, "pitch": 62, "duration": 140, "velocity": 110}, {"time": 49931, "pitch": 65, "duration": 140, "velocity": 115}, {"time": 50081, "pitch": 50, "duration": 79, "velocity": 75}, {"time": 50081, "pitch": 62, "duration": 69, "velocity": 85}, {"time": 50081, "pitch": 69, "duration": 59, "velocity": 80}, {"time": 50160, "pitch": 50, "duration": 60, "velocity": 65}, {"time": 50160, "pitch": 62, "duration": 70, "velocity": 55}, {"time": 50160, "pitch": 65, "duration": 70, "velocity": 50}, {"time": 50160, "pitch": 69, "duration": 60, "velocity": 60}, {"time": 50320, "pitch": 50, "duration": 70, "velocity": 90}, {"time": 50320, "pitch": 62, "duration": 60, "velocity": 100}, {"time": 50320, "pitch": 65, "duration": 60, "velocity": 105}, {"time": 50320, "pitch": 69, "duration": 70, "velocity": 95}, {"time": 50400, "pitch": 52, "duration": 209, "velocity": 95}, {"time": 50400, "pitch": 69, "duration": 209, "velocity": 100}, {"time": 50410, "pitch": 59, "duration": 199, "velocity": 105}, {"time": 50420, "pitch": 62, "duration": 189, "velocity": 110}, {"time": 50629, "pitch": 62, "duration": 170, "velocity": 94}, {"time": 50639, "pitch": 59, "duration": 160, "velocity": 89}, {"time": 50649, "pitch": 69, "duration": 150, "velocity": 84}, {"time": 50659, "pitch": 52, "duration": 140, "velocity": 79}, {"time": 50878, "pitch": 52, "duration": 210, "velocity": 95}, {"time": 50878, "pitch": 69, "duration": 210, "velocity": 100}, {"time": 50888, "pitch": 59, "duration": 200, "velocity": 105}, {"time": 50898, "pitch": 62, "duration": 190, "velocity": 110}, {"time": 51118, "pitch": 52, "duration": 70, "velocity": 65}, {"time": 51118, "pitch": 69, "duration": 70, "velocity": 70}, {"time": 51128, "pitch": 59, "duration": 60, "velocity": 75}, {"time": 51128, "pitch": 62, "duration": 60, "velocity": 80}, {"time": 51277, "pitch": 52, "duration": 212, "velocity": 95}, {"time": 51277, "pitch": 69, "duration": 212, "velocity": 100}, {"time": 51287, "pitch": 59, "duration": 202, "velocity": 105}, {"time": 51297, "pitch": 62, "duration": 192, "velocity": 110}, {"time": 51519, "pitch": 52, "duration": 71, "velocity": 100}, {"time": 51519, "pitch": 59, "duration": 61, "velocity": 110}, {"time": 51519, "pitch": 62, "duration": 61, "velocity": 115}, {"time": 51519, "pitch": 69, "duration": 71, "velocity": 105}, {"time": 51600, "pitch": 52, "duration": 81, "velocity": 60}, {"time": 51600, "pitch": 59, "duration": 91, "velocity": 80}, {"time": 51600, "pitch": 62, "duration": 91, "velocity": 85}, {"time": 51600, "pitch": 69, "duration": 81, "velocity": 75}, {"time": 51762, "pitch": 59, "duration": 61, "velocity": 70}, {"time": 51762, "pitch": 62, "duration": 51, "velocity": 75}, {"time": 51762, "pitch": 69, "duration": 81, "velocity": 65}, {"time": 51843, "pitch": 52, "duration": 150, "velocity": 100}, {"time": 51843, "pitch": 69, "duration": 150, "velocity": 105}, {"time": 51853, "pitch": 59, "duration": 140, "velocity": 110}, {"time": 51853, "pitch": 62, "duration": 140, "velocity": 115}, {"time": 52003, "pitch": 52, "duration": 80, "velocity": 75}, {"time": 52003, "pitch": 59, "duration": 70, "velocity": 85}, {"time": 52003, "pitch": 69, "duration": 60, "velocity": 80}, {"time": 52083, "pitch": 52, "duration": 59, "velocity": 65}, {"time": 52083, "pitch": 59, "duration": 69, "velocity": 55}, {"time": 52083, "pitch": 62, "duration": 69, "velocity": 50}, {"time": 52083, "pitch": 69, "duration": 59, "velocity": 60}, {"time": 52242, "pitch": 52, "duration": 70, "velocity": 90}, {"time": 52242, "pitch": 59, "duration": 60, "velocity": 100}, {"time": 52242, "pitch": 62, "duration": 60, "velocity": 105}, {"time": 52242, "pitch": 69, "duration": 70, "velocity": 95}, {"time": 52322, "pitch": 52, "duration": 209, "velocity": 95}, {"time": 52322, "pitch": 69, "duration": 209, "velocity": 100}, {"time": 52332, "pitch": 60, "duration": 199, "velocity": 105}, {"time": 52342, "pitch": 64, "duration": 189, "velocity": 110}, {"time": 52551, "pitch": 64, "duration": 170, "velocity": 94}, {"time": 52561, "pitch": 60, "duration": 160, "velocity": 89}, {"time": 52571, "pitch": 69, "duration": 150, "velocity": 84}, {"time": 52581, "pitch": 52, "duration": 140, "velocity": 79}, {"time": 52801, "pitch": 52, "duration": 209, "velocity": 95}, {"time": 52801, "pitch": 69, "duration": 209, "velocity": 100}, {"time": 52811, "pitch": 60, "duration": 199, "velocity": 105}, {"time": 52821, "pitch": 64, "duration": 189, "velocity": 110}, {"time": 53040, "pitch": 52, "duration": 70, "velocity": 65}, {"time": 53040, "pitch": 69, "duration": 70, "velocity": 70}, {"time": 53050, "pitch": 60, "duration": 60, "velocity": 75}, {"time": 53050, "pitch": 64, "duration": 60, "velocity": 80}, {"time": 53199, "pitch": 52, "duration": 210, "velocity": 95}, {"time": 53199, "pitch": 69, "duration": 210, "velocity": 100}, {"time": 53209, "pitch": 60, "duration": 200, "velocity": 105}, {"time": 53219, "pitch": 64, "duration": 190, "velocity": 110}, {"time": 53439, "pitch": 52, "duration": 70, "velocity": 100}, {"time": 53439, "pitch": 60, "duration": 60, "velocity": 110}, {"time": 53439, "pitch": 64, "duration": 60, "velocity": 115}, {"time": 53439, "pitch": 69, "duration": 70, "velocity": 105}, {"time": 53519, "pitch": 52, "duration": 79, "velocity": 60}, {"time": 53519, "pitch": 60, "duration": 89, "velocity": 80}, {"time": 53519, "pitch": 64, "duration": 89, "velocity": 85}, {"time": 53519, "pitch": 69, "duration": 79, "velocity": 75}, {"time": 53678, "pitch": 60, "duration": 60, "velocity": 70}, {"time": 53678, "pitch": 64, "duration": 50, "velocity": 75}, {"time": 53678, "pitch": 69, "duration": 80, "velocity": 65}, {"time": 53758, "pitch": 52, "duration": 150, "velocity": 100}, {"time": 53758, "pitch": 69, "duration": 150, "velocity": 105}, {"time": 53768, "pitch": 60, "duration": 140, "velocity": 110}, {"time": 53768, "pitch": 64, "duration": 140, "velocity": 115}, {"time": 53918, "pitch": 52, "duration": 79, "velocity": 75}, {"time": 53918, "pitch": 60, "duration": 69, "velocity": 85}, {"time": 53918, "pitch": 69, "duration": 59, "velocity": 80}, {"time": 53997, "pitch": 52, "duration": 60, "velocity": 65}, {"time": 53997, "pitch": 60, "duration": 70, "velocity": 55}, {"time": 53997, "pitch": 64, "duration": 70, "velocity": 50}, {"time": 53997, "pitch": 69, "duration": 60, "velocity": 60}, {"time": 54157, "pitch": 52, "duration": 70, "velocity": 90}, {"time": 54157, "pitch": 60, "duration": 60, "velocity": 100}, {"time": 54157, "pitch": 64, "duration": 60, "velocity": 105}, {"time": 54157, "pitch": 69, "duration": 70, "velocity": 95}, {"time": 54237, "pitch": 50, "duration": 212, "velocity": 95}, {"time": 54237, "pitch": 69, "duration": 212, "velocity": 100}, {"time": 54247, "pitch": 60, "duration": 202, "velocity": 105}, {"time": 54257, "pitch": 64, "duration": 192, "velocity": 110}, {"time": 54470, "pitch": 64, "duration": 172, "velocity": 94}, {"time": 54480, "pitch": 60, "duration": 162, "velocity": 89}, {"time": 54490, "pitch": 69, "duration": 152, "velocity": 84}, {"time": 54500, "pitch": 50, "duration": 142, "velocity": 79}, {"time": 54723, "pitch": 50, "duration": 209, "velocity": 95}, {"time": 54723, "pitch": 69, "duration": 209, "velocity": 100}, {"time": 54733, "pitch": 60, "duration": 199, "velocity": 105}, {"time": 54743, "pitch": 64, "duration": 189, "velocity": 110}, {"time": 54962, "pitch": 50, "duration": 70, "velocity": 65}, {"time": 54962, "pitch": 69, "duration": 70, "velocity": 70}, {"time": 54972, "pitch": 60, "duration": 60, "velocity": 75}, {"time": 54972, "pitch": 64, "duration": 60, "velocity": 80}, {"time": 55122, "pitch": 50, "duration": 209, "velocity": 95}, {"time": 55122, "pitch": 69, "duration": 209, "velocity": 100}, {"time": 55132, "pitch": 60, "duration": 199, "velocity": 105}, {"time": 55142, "pitch": 64, "duration": 189, "velocity": 110}, {"time": 55361, "pitch": 50, "duration": 70, "velocity": 100}, {"time": 55361, "pitch": 60, "duration": 60, "velocity": 110}, {"time": 55361, "pitch": 64, "duration": 60, "velocity": 115}, {"time": 55361, "pitch": 69, "duration": 70, "velocity": 105}, {"time": 55441, "pitch": 50, "duration": 80, "velocity": 60}, {"time": 55441, "pitch": 60, "duration": 90, "velocity": 80}, {"time": 55441, "pitch": 64, "duration": 90, "velocity": 85}, {"time": 55441, "pitch": 69, "duration": 80, "velocity": 75}, {"time": 55600, "pitch": 60, "duration": 60, "velocity": 70}, {"time": 55600, "pitch": 64, "duration": 50, "velocity": 75}, {"time": 55600, "pitch": 69, "duration": 80, "velocity": 65}, {"time": 55680, "pitch": 50, "duration": 150, "velocity": 100}, {"time": 55680, "pitch": 69, "duration": 150, "velocity": 105}, {"time": 55690, "pitch": 60, "duration": 140, "velocity": 110}, {"time": 55690, "pitch": 64, "duration": 140, "velocity": 115}, {"time": 55840, "pitch": 50, "duration": 79, "velocity": 75}, {"time": 55840, "pitch": 60, "duration": 70, "velocity": 85}, {"time": 55840, "pitch": 69, "duration": 60, "velocity": 80}, {"time": 55919, "pitch": 50, "duration": 60, "velocity": 65}, {"time": 55919, "pitch": 60, "duration": 70, "velocity": 55}, {"time": 55919, "pitch": 64, "duration": 70, "velocity": 50}, {"time": 55919, "pitch": 69, "duration": 60, "velocity": 60}, {"time": 56079, "pitch": 50, "duration": 70, "velocity": 90}, {"time": 56079, "pitch": 60, "duration": 60, "velocity": 100}, {"time": 56079, "pitch": 64, "duration": 60, "velocity": 105}, {"time": 56079, "pitch": 69, "duration": 70, "velocity": 95}, {"time": 56159, "pitch": 50, "duration": 209, "velocity": 95}, {"time": 56159, "pitch": 69, "duration": 209, "velocity": 100}, {"time": 56169, "pitch": 59, "duration": 199, "velocity": 105}, {"time": 56179, "pitch": 62, "duration": 189, "velocity": 110}, {"time": 56388, "pitch": 62, "duration": 170, "velocity": 94}, {"time": 56398, "pitch": 59, "duration": 160, "velocity": 89}, {"time": 56408, "pitch": 69, "duration": 150, "velocity": 84}, {"time": 56418, "pitch": 50, "duration": 140, "velocity": 79}, {"time": 56638, "pitch": 50, "duration": 212, "velocity": 95}, {"time": 56638, "pitch": 69, "duration": 212, "velocity": 100}, {"time": 56648, "pitch": 59, "duration": 202, "velocity": 105}, {"time": 56658, "pitch": 62, "duration": 192, "velocity": 110}, {"time": 56881, "pitch": 50, "duration": 71, "velocity": 65}, {"time": 56881, "pitch": 69, "duration": 71, "velocity": 70}, {"time": 56891, "pitch": 59, "duration": 61, "velocity": 75}, {"time": 56891, "pitch": 62, "duration": 61, "velocity": 80}, {"time": 57043, "pitch": 50, "duration": 210, "velocity": 95}, {"time": 57043, "pitch": 69, "duration": 210, "velocity": 100}, {"time": 57053, "pitch": 59, "duration": 200, "velocity": 105}, {"time": 57063, "pitch": 62, "duration": 190, "velocity": 110}, {"time": 57283, "pitch": 50, "duration": 70, "velocity": 100}, {"time": 57283, "pitch": 59, "duration": 60, "velocity": 110}, {"time": 57283, "pitch": 62, "duration": 60, "velocity": 115}, {"time": 57283, "pitch": 69, "duration": 70, "velocity": 105}, {"time": 57363, "pitch": 50, "duration": 80, "velocity": 60}, {"time": 57363, "pitch": 59, "duration": 90, "velocity": 80}, {"time": 57363, "pitch": 62, "duration": 90, "velocity": 85}, {"time": 57363, "pitch": 69, "duration": 80, "velocity": 75}, {"time": 57523, "pitch": 59, "duration": 59, "velocity": 70}, {"time": 57523, "pitch": 62, "duration": 49, "velocity": 75}, {"time": 57523, "pitch": 69, "duration": 79, "velocity": 65}, {"time": 57602, "pitch": 50, "duration": 150, "velocity": 100}, {"time": 57602, "pitch": 69, "duration": 150, "velocity": 105}, {"time": 57612, "pitch": 59, "duration": 140, "velocity": 110}, {"time": 57612, "pitch": 62, "duration": 140, "velocity": 115}, {"time": 57762, "pitch": 50, "duration": 80, "velocity": 75}, {"time": 57762, "pitch": 59, "duration": 70, "velocity": 85}, {"time": 57762, "pitch": 69, "duration": 60, "velocity": 80}, {"time": 57842, "pitch": 50, "duration": 60, "velocity": 65}, {"time": 57842, "pitch": 59, "duration": 70, "velocity": 55}, {"time": 57842, "pitch": 62, "duration": 70, "velocity": 50}, {"time": 57842, "pitch": 69, "duration": 60, "velocity": 60}, {"time": 58001, "pitch": 50, "duration": 70, "velocity": 90}, {"time": 58001, "pitch": 59, "duration": 60, "velocity": 100}, {"time": 58001, "pitch": 62, "duration": 60, "velocity": 105}, {"time": 58001, "pitch": 69, "duration": 70, "velocity": 95}, {"time": 58081, "pitch": 52, "duration": 209, "velocity": 95}, {"time": 58081, "pitch": 69, "duration": 209, "velocity": 100}, {"time": 58091, "pitch": 60, "duration": 199, "velocity": 105}, {"time": 58101, "pitch": 64, "duration": 189, "velocity": 110}, {"time": 58310, "pitch": 64, "duration": 170, "velocity": 94}, {"time": 58320, "pitch": 60, "duration": 160, "velocity": 89}, {"time": 58330, "pitch": 69, "duration": 150, "velocity": 84}, {"time": 58340, "pitch": 52, "duration": 140, "velocity": 79}, {"time": 58560, "pitch": 52, "duration": 209, "velocity": 95}, {"time": 58560, "pitch": 69, "duration": 209, "velocity": 100}, {"time": 58570, "pitch": 60, "duration": 199, "velocity": 105}, {"time": 58580, "pitch": 64, "duration": 189, "velocity": 110}, {"time": 58799, "pitch": 52, "duration": 70, "velocity": 65}, {"time": 58799, "pitch": 69, "duration": 70, "velocity": 70}, {"time": 58809, "pitch": 60, "duration": 60, "velocity": 75}, {"time": 58809, "pitch": 64, "duration": 60, "velocity": 80}, {"time": 58959, "pitch": 52, "duration": 209, "velocity": 95}, {"time": 58959, "pitch": 69, "duration": 209, "velocity": 100}, {"time": 58969, "pitch": 60, "duration": 199, "velocity": 105}, {"time": 58979, "pitch": 64, "duration": 189, "velocity": 110}, {"time": 59198, "pitch": 52, "duration": 70, "velocity": 100}, {"time": 59198, "pitch": 60, "duration": 60, "velocity": 110}, {"time": 59198, "pitch": 64, "duration": 60, "velocity": 115}, {"time": 59198, "pitch": 69, "duration": 70, "velocity": 105}, {"time": 59278, "pitch": 52, "duration": 80, "velocity": 60}, {"time": 59278, "pitch": 60, "duration": 89, "velocity": 80}, {"time": 59278, "pitch": 64, "duration": 89, "velocity": 85}, {"time": 59278, "pitch": 69, "duration": 80, "velocity": 75}, {"time": 59437, "pitch": 60, "duration": 60, "velocity": 70}, {"time": 59437, "pitch": 64, "duration": 50, "velocity": 75}, {"time": 59437, "pitch": 69, "duration": 80, "velocity": 65}, {"time": 59517, "pitch": 52, "duration": 152, "velocity": 100}, {"time": 59517, "pitch": 69, "duration": 152, "velocity": 105}, {"time": 59527, "pitch": 60, "duration": 142, "velocity": 110}, {"time": 59527, "pitch": 64, "duration": 142, "velocity": 115}, {"time": 59679, "pitch": 52, "duration": 81, "velocity": 75}, {"time": 59679, "pitch": 60, "duration": 71, "velocity": 85}, {"time": 59679, "pitch": 69, "duration": 61, "velocity": 80}, {"time": 59760, "pitch": 52, "duration": 61, "velocity": 65}, {"time": 59760, "pitch": 60, "duration": 71, "velocity": 55}, {"time": 59760, "pitch": 64, "duration": 71, "velocity": 50}, {"time": 59760, "pitch": 69, "duration": 61, "velocity": 60}, {"time": 59922, "pitch": 52, "duration": 71, "velocity": 90}, {"time": 59922, "pitch": 60, "duration": 61, "velocity": 100}, {"time": 59922, "pitch": 64, "duration": 61, "velocity": 105}, {"time": 59922, "pitch": 69, "duration": 71, "velocity": 95}, {"time": 60003, "pitch": 52, "duration": 210, "velocity": 95}, {"time": 60003, "pitch": 69, "duration": 210, "velocity": 100}, {"time": 60013, "pitch": 60, "duration": 200, "velocity": 105}, {"time": 60023, "pitch": 64, "duration": 190, "velocity": 110}, {"time": 60233, "pitch": 64, "duration": 169, "velocity": 94}, {"time": 60243, "pitch": 60, "duration": 159, "velocity": 89}, {"time": 60253, "pitch": 69, "duration": 149, "velocity": 84}, {"time": 60263, "pitch": 52, "duration": 139, "velocity": 79}, {"time": 60482, "pitch": 52, "duration": 209, "velocity": 95}, {"time": 60482, "pitch": 69, "duration": 209, "velocity": 100}, {"time": 60492, "pitch": 60, "duration": 199, "velocity": 105}, {"time": 60502, "pitch": 64, "duration": 189, "velocity": 110}, {"time": 60721, "pitch": 52, "duration": 70, "velocity": 65}, {"time": 60721, "pitch": 69, "duration": 70, "velocity": 70}, {"time": 60731, "pitch": 60, "duration": 60, "velocity": 75}, {"time": 60731, "pitch": 64, "duration": 60, "velocity": 80}, {"time": 60881, "pitch": 52, "duration": 209, "velocity": 95}, {"time": 60881, "pitch": 69, "duration": 209, "velocity": 100}, {"time": 60891, "pitch": 60, "duration": 199, "velocity": 105}, {"time": 60901, "pitch": 64, "duration": 189, "velocity": 110}, {"time": 61120, "pitch": 52, "duration": 70, "velocity": 100}, {"time": 61120, "pitch": 60, "duration": 60, "velocity": 110}, {"time": 61120, "pitch": 64, "duration": 60, "velocity": 115}, {"time": 61120, "pitch": 69, "duration": 70, "velocity": 105}, {"time": 61200, "pitch": 52, "duration": 80, "velocity": 60}, {"time": 61200, "pitch": 60, "duration": 90, "velocity": 80}, {"time": 61200, "pitch": 64, "duration": 90, "velocity": 85}, {"time": 61200, "pitch": 69, "duration": 80, "velocity": 75}, {"time": 61360, "pitch": 60, "duration": 59, "velocity": 70}, {"time": 61360, "pitch": 64, "duration": 49, "velocity": 75}, {"time": 61360, "pitch": 69, "duration": 79, "velocity": 65}, {"time": 61439, "pitch": 52, "duration": 150, "velocity": 100}, {"time": 61439, "pitch": 69, "duration": 150, "velocity": 105}, {"time": 61449, "pitch": 60, "duration": 140, "velocity": 110}, {"time": 61449, "pitch": 64, "duration": 140, "velocity": 115}, {"time": 61599, "pitch": 52, "duration": 80, "velocity": 75}, {"time": 61599, "pitch": 60, "duration": 70, "velocity": 85}, {"time": 61599, "pitch": 69, "duration": 60, "velocity": 80}, {"time": 61679, "pitch": 52, "duration": 59, "velocity": 65}, {"time": 61679, "pitch": 60, "duration": 69, "velocity": 55}, {"time": 61679, "pitch": 64, "duration": 69, "velocity": 50}, {"time": 61679, "pitch": 69, "duration": 59, "velocity": 60}, {"time": 61838, "pitch": 52, "duration": 70, "velocity": 90}, {"time": 61838, "pitch": 60, "duration": 60, "velocity": 100}, {"time": 61838, "pitch": 64, "duration": 60, "velocity": 105}, {"time": 61838, "pitch": 69, "duration": 70, "velocity": 95}, {"time": 61918, "pitch": 50, "duration": 209, "velocity": 95}, {"time": 61918, "pitch": 69, "duration": 209, "velocity": 100}, {"time": 61928, "pitch": 60, "duration": 199, "velocity": 105}, {"time": 61938, "pitch": 65, "duration": 189, "velocity": 110}, {"time": 62147, "pitch": 65, "duration": 170, "velocity": 94}, {"time": 62157, "pitch": 60, "duration": 160, "velocity": 89}, {"time": 62167, "pitch": 69, "duration": 150, "velocity": 84}, {"time": 62177, "pitch": 50, "duration": 140, "velocity": 79}, {"time": 62397, "pitch": 50, "duration": 10, "velocity": 95}, {"time": 62397, "pitch": 60, "duration": 10, "velocity": 105}, {"time": 62397, "pitch": 65, "duration": 10, "velocity": 110}, {"time": 62397, "pitch": 69, "duration": 10, "velocity": 100}, {"time": 62640, "pitch": 50, "duration": 212, "velocity": 95}, {"time": 62640, "pitch": 69, "duration": 212, "velocity": 100}, {"time": 62650, "pitch": 60, "duration": 202, "velocity": 105}, {"time": 62660, "pitch": 65, "duration": 192, "velocity": 110}, {"time": 63122, "pitch": 52, "duration": 210, "velocity": 95}, {"time": 63122, "pitch": 59, "duration": 210, "velocity": 100}, {"time": 63132, "pitch": 62, "duration": 200, "velocity": 105}, {"time": 63142, "pitch": 67, "duration": 190, "velocity": 110}, {"time": 63361, "pitch": 52, "duration": 150, "velocity": 80}, {"time": 63361, "pitch": 59, "duration": 150, "velocity": 85}, {"time": 63371, "pitch": 62, "duration": 140, "velocity": 90}, {"time": 63371, "pitch": 67, "duration": 140, "velocity": 95}, {"time": 63521, "pitch": 52, "duration": 80, "velocity": 75}, {"time": 63521, "pitch": 59, "duration": 60, "velocity": 80}, {"time": 63521, "pitch": 62, "duration": 70, "velocity": 85}, {"time": 63601, "pitch": 52, "duration": 60, "velocity": 65}, {"time": 63601, "pitch": 59, "duration": 60, "velocity": 60}, {"time": 63601, "pitch": 62, "duration": 70, "velocity": 55}, {"time": 63601, "pitch": 67, "duration": 70, "velocity": 50}, {"time": 63760, "pitch": 52, "duration": 70, "velocity": 90}, {"time": 63760, "pitch": 59, "duration": 70, "velocity": 95}, {"time": 63760, "pitch": 62, "duration": 60, "velocity": 100}, {"time": 63760, "pitch": 67, "duration": 60, "velocity": 105}, {"time": 63840, "pitch": 52, "duration": 210, "velocity": 95}, {"time": 63840, "pitch": 69, "duration": 210, "velocity": 100}, {"time": 63850, "pitch": 60, "duration": 200, "velocity": 105}, {"time": 63860, "pitch": 64, "duration": 190, "velocity": 110}, {"time": 64070, "pitch": 64, "duration": 169, "velocity": 94}, {"time": 64080, "pitch": 60, "duration": 159, "velocity": 89}, {"time": 64089, "pitch": 69, "duration": 150, "velocity": 84}, {"time": 64099, "pitch": 52, "duration": 140, "velocity": 79}, {"time": 64319, "pitch": 52, "duration": 209, "velocity": 95}, {"time": 64319, "pitch": 69, "duration": 209, "velocity": 100}, {"time": 64329, "pitch": 60, "duration": 199, "velocity": 105}, {"time": 64339, "pitch": 64, "duration": 189, "velocity": 110}, {"time": 64558, "pitch": 52, "duration": 70, "velocity": 65}, {"time": 64558, "pitch": 69, "duration": 70, "velocity": 70}, {"time": 64568, "pitch": 60, "duration": 60, "velocity": 75}, {"time": 64568, "pitch": 64, "duration": 60, "velocity": 80}, {"time": 64718, "pitch": 52, "duration": 211, "velocity": 95}, {"time": 64718, "pitch": 69, "duration": 211, "velocity": 100}, {"time": 64728, "pitch": 60, "duration": 201, "velocity": 105}, {"time": 64738, "pitch": 64, "duration": 191, "velocity": 110}, {"time": 64960, "pitch": 52, "duration": 70, "velocity": 100}, {"time": 64960, "pitch": 60, "duration": 60, "velocity": 110}, {"time": 64960, "pitch": 64, "duration": 60, "velocity": 115}, {"time": 64960, "pitch": 69, "duration": 70, "velocity": 105}, {"time": 65041, "pitch": 52, "duration": 81, "velocity": 60}, {"time": 65041, "pitch": 60, "duration": 91, "velocity": 80}, {"time": 65041, "pitch": 64, "duration": 91, "velocity": 85}, {"time": 65041, "pitch": 69, "duration": 81, "velocity": 75}, {"time": 65203, "pitch": 60, "duration": 61, "velocity": 70}, {"time": 65203, "pitch": 64, "duration": 50, "velocity": 75}, {"time": 65203, "pitch": 69, "duration": 81, "velocity": 65}, {"time": 65284, "pitch": 52, "duration": 149, "velocity": 100}, {"time": 65284, "pitch": 69, "duration": 149, "velocity": 105}, {"time": 65294, "pitch": 60, "duration": 139, "velocity": 110}, {"time": 65294, "pitch": 64, "duration": 139, "velocity": 115}, {"time": 65443, "pitch": 52, "duration": 80, "velocity": 75}, {"time": 65443, "pitch": 60, "duration": 70, "velocity": 85}, {"time": 65443, "pitch": 69, "duration": 60, "velocity": 80}, {"time": 65523, "pitch": 52, "duration": 60, "velocity": 65}, {"time": 65523, "pitch": 60, "duration": 70, "velocity": 55}, {"time": 65523, "pitch": 64, "duration": 70, "velocity": 50}, {"time": 65523, "pitch": 69, "duration": 60, "velocity": 60}, {"time": 65683, "pitch": 52, "duration": 69, "velocity": 90}, {"time": 65683, "pitch": 60, "duration": 59, "velocity": 100}, {"time": 65683, "pitch": 64, "duration": 59, "velocity": 105}, {"time": 65683, "pitch": 69, "duration": 69, "velocity": 95}, {"time": 65762, "pitch": 50, "duration": 210, "velocity": 95}, {"time": 65762, "pitch": 69, "duration": 210, "velocity": 100}, {"time": 65772, "pitch": 60, "duration": 200, "velocity": 105}, {"time": 65782, "pitch": 65, "duration": 190, "velocity": 110}, {"time": 65992, "pitch": 65, "duration": 169, "velocity": 94}, {"time": 66002, "pitch": 60, "duration": 159, "velocity": 89}, {"time": 66012, "pitch": 69, "duration": 149, "velocity": 84}, {"time": 66022, "pitch": 50, "duration": 139, "velocity": 79}, {"time": 66241, "pitch": 50, "duration": 10, "velocity": 95}, {"time": 66241, "pitch": 60, "duration": 10, "velocity": 105}, {"time": 66241, "pitch": 65, "duration": 10, "velocity": 110}, {"time": 66241, "pitch": 69, "duration": 10, "velocity": 100}, {"time": 66480, "pitch": 50, "duration": 210, "velocity": 95}, {"time": 66480, "pitch": 69, "duration": 210, "velocity": 100}, {"time": 66490, "pitch": 60, "duration": 200, "velocity": 105}, {"time": 66500, "pitch": 65, "duration": 190, "velocity": 110}, {"time": 66959, "pitch": 52, "duration": 210, "velocity": 95}, {"time": 66959, "pitch": 59, "duration": 210, "velocity": 100}, {"time": 66969, "pitch": 62, "duration": 200, "velocity": 105}, {"time": 66979, "pitch": 67, "duration": 190, "velocity": 110}, {"time": 67198, "pitch": 52, "duration": 150, "velocity": 80}, {"time": 67198, "pitch": 59, "duration": 150, "velocity": 85}, {"time": 67208, "pitch": 62, "duration": 140, "velocity": 90}, {"time": 67208, "pitch": 67, "duration": 140, "velocity": 95}, {"time": 67358, "pitch": 52, "duration": 80, "velocity": 75}, {"time": 67358, "pitch": 59, "duration": 60, "velocity": 80}, {"time": 67358, "pitch": 62, "duration": 70, "velocity": 85}, {"time": 67438, "pitch": 52, "duration": 60, "velocity": 65}, {"time": 67438, "pitch": 59, "duration": 60, "velocity": 60}, {"time": 67438, "pitch": 62, "duration": 70, "velocity": 55}, {"time": 67438, "pitch": 67, "duration": 70, "velocity": 50}, {"time": 67597, "pitch": 52, "duration": 70, "velocity": 90}, {"time": 67597, "pitch": 59, "duration": 70, "velocity": 95}, {"time": 67597, "pitch": 62, "duration": 60, "velocity": 100}, {"time": 67597, "pitch": 67, "duration": 60, "velocity": 105}, {"time": 67677, "pitch": 52, "duration": 213, "velocity": 95}, {"time": 67677, "pitch": 69, "duration": 213, "velocity": 100}, {"time": 67687, "pitch": 60, "duration": 203, "velocity": 105}, {"time": 67697, "pitch": 64, "duration": 193, "velocity": 110}, {"time": 67910, "pitch": 64, "duration": 172, "velocity": 94}, {"time": 67920, "pitch": 60, "duration": 162, "velocity": 89}, {"time": 67930, "pitch": 69, "duration": 152, "velocity": 84}, {"time": 67940, "pitch": 52, "duration": 142, "velocity": 79}, {"time": 68163, "pitch": 52, "duration": 210, "velocity": 95}, {"time": 68163, "pitch": 69, "duration": 210, "velocity": 100}, {"time": 68173, "pitch": 60, "duration": 200, "velocity": 105}, {"time": 68183, "pitch": 64, "duration": 190, "velocity": 110}, {"time": 68403, "pitch": 52, "duration": 69, "velocity": 65}, {"time": 68403, "pitch": 69, "duration": 69, "velocity": 70}, {"time": 68413, "pitch": 60, "duration": 59, "velocity": 75}, {"time": 68413, "pitch": 64, "duration": 59, "velocity": 80}, {"time": 68562, "pitch": 52, "duration": 210, "velocity": 95}, {"time": 68562, "pitch": 69, "duration": 210, "velocity": 100}, {"time": 68572, "pitch": 60, "duration": 200, "velocity": 105}, {"time": 68582, "pitch": 64, "duration": 190, "velocity": 110}, {"time": 68802, "pitch": 52, "duration": 69, "velocity": 100}, {"time": 68802, "pitch": 60, "duration": 59, "velocity": 110}, {"time": 68802, "pitch": 64, "duration": 59, "velocity": 115}, {"time": 68802, "pitch": 69, "duration": 69, "velocity": 105}, {"time": 68881, "pitch": 52, "duration": 80, "velocity": 60}, {"time": 68881, "pitch": 60, "duration": 90, "velocity": 80}, {"time": 68881, "pitch": 64, "duration": 90, "velocity": 85}, {"time": 68881, "pitch": 69, "duration": 80, "velocity": 75}, {"time": 69041, "pitch": 60, "duration": 60, "velocity": 70}, {"time": 69041, "pitch": 64, "duration": 50, "velocity": 75}, {"time": 69041, "pitch": 69, "duration": 80, "velocity": 65}, {"time": 69121, "pitch": 52, "duration": 149, "velocity": 100}, {"time": 69121, "pitch": 69, "duration": 149, "velocity": 105}, {"time": 69131, "pitch": 60, "duration": 139, "velocity": 110}, {"time": 69131, "pitch": 64, "duration": 139, "velocity": 115}, {"time": 69280, "pitch": 52, "duration": 80, "velocity": 75}, {"time": 69280, "pitch": 60, "duration": 70, "velocity": 85}, {"time": 69280, "pitch": 69, "duration": 60, "velocity": 80}, {"time": 69360, "pitch": 52, "duration": 60, "velocity": 65}, {"time": 69360, "pitch": 60, "duration": 70, "velocity": 55}, {"time": 69360, "pitch": 64, "duration": 70, "velocity": 50}, {"time": 69360, "pitch": 69, "duration": 60, "velocity": 60}, {"time": 69520, "pitch": 52, "duration": 69, "velocity": 90}, {"time": 69520, "pitch": 60, "duration": 59, "velocity": 100}, {"time": 69520, "pitch": 64, "duration": 59, "velocity": 105}, {"time": 69520, "pitch": 69, "duration": 69, "velocity": 95}, {"time": 69599, "pitch": 50, "duration": 210, "velocity": 95}, {"time": 69599, "pitch": 69, "duration": 210, "velocity": 100}, {"time": 69609, "pitch": 60, "duration": 200, "velocity": 105}, {"time": 69619, "pitch": 65, "duration": 190, "velocity": 110}, {"time": 69829, "pitch": 65, "duration": 169, "velocity": 94}, {"time": 69839, "pitch": 60, "duration": 159, "velocity": 89}, {"time": 69849, "pitch": 69, "duration": 149, "velocity": 84}, {"time": 69859, "pitch": 50, "duration": 139, "velocity": 79}, {"time": 70078, "pitch": 50, "duration": 10, "velocity": 95}, {"time": 70078, "pitch": 60, "duration": 10, "velocity": 105}, {"time": 70078, "pitch": 65, "duration": 10, "velocity": 110}, {"time": 70078, "pitch": 69, "duration": 10, "velocity": 100}, {"time": 70317, "pitch": 50, "duration": 210, "velocity": 95}, {"time": 70317, "pitch": 69, "duration": 210, "velocity": 100}, {"time": 70327, "pitch": 60, "duration": 200, "velocity": 105}, {"time": 70337, "pitch": 65, "duration": 190, "velocity": 110}, {"time": 70800, "pitch": 52, "duration": 212, "velocity": 95}, {"time": 70800, "pitch": 59, "duration": 212, "velocity": 100}, {"time": 70810, "pitch": 62, "duration": 202, "velocity": 105}, {"time": 70820, "pitch": 67, "duration": 192, "velocity": 110}, {"time": 71043, "pitch": 52, "duration": 149, "velocity": 80}, {"time": 71043, "pitch": 59, "duration": 149, "velocity": 85}, {"time": 71053, "pitch": 62, "duration": 139, "velocity": 90}, {"time": 71053, "pitch": 67, "duration": 139, "velocity": 95}, {"time": 71202, "pitch": 52, "duration": 80, "velocity": 75}, {"time": 71202, "pitch": 59, "duration": 60, "velocity": 80}, {"time": 71202, "pitch": 62, "duration": 70, "velocity": 85}, {"time": 71282, "pitch": 52, "duration": 60, "velocity": 65}, {"time": 71282, "pitch": 59, "duration": 60, "velocity": 60}, {"time": 71282, "pitch": 62, "duration": 70, "velocity": 55}, {"time": 71282, "pitch": 67, "duration": 70, "velocity": 50}, {"time": 71442, "pitch": 52, "duration": 70, "velocity": 90}, {"time": 71442, "pitch": 59, "duration": 70, "velocity": 95}, {"time": 71442, "pitch": 62, "duration": 60, "velocity": 100}, {"time": 71442, "pitch": 67, "duration": 60, "velocity": 105}, {"time": 71522, "pitch": 52, "duration": 209, "velocity": 95}, {"time": 71522, "pitch": 69, "duration": 209, "velocity": 100}, {"time": 71531, "pitch": 60, "duration": 200, "velocity": 105}, {"time": 71541, "pitch": 64, "duration": 190, "velocity": 110}, {"time": 71751, "pitch": 64, "duration": 169, "velocity": 94}, {"time": 71761, "pitch": 60, "duration": 159, "velocity": 89}, {"time": 71771, "pitch": 69, "duration": 149, "velocity": 84}, {"time": 71781, "pitch": 52, "duration": 139, "velocity": 79}, {"time": 72000, "pitch": 52, "duration": 210, "velocity": 95}, {"time": 72000, "pitch": 69, "duration": 210, "velocity": 100}, {"time": 72010, "pitch": 60, "duration": 200, "velocity": 105}, {"time": 72020, "pitch": 64, "duration": 190, "velocity": 110}, {"time": 72240, "pitch": 52, "duration": 69, "velocity": 65}, {"time": 72240, "pitch": 69, "duration": 69, "velocity": 70}, {"time": 72250, "pitch": 60, "duration": 59, "velocity": 75}, {"time": 72250, "pitch": 64, "duration": 59, "velocity": 80}, {"time": 72399, "pitch": 52, "duration": 210, "velocity": 95}, {"time": 72399, "pitch": 69, "duration": 210, "velocity": 100}, {"time": 72409, "pitch": 60, "duration": 200, "velocity": 105}, {"time": 72419, "pitch": 64, "duration": 190, "velocity": 110}, {"time": 72638, "pitch": 52, "duration": 70, "velocity": 100}, {"time": 72638, "pitch": 60, "duration": 60, "velocity": 110}, {"time": 72638, "pitch": 64, "duration": 60, "velocity": 115}, {"time": 72638, "pitch": 69, "duration": 70, "velocity": 105}, {"time": 72718, "pitch": 52, "duration": 80, "velocity": 60}, {"time": 72718, "pitch": 60, "duration": 90, "velocity": 80}, {"time": 72718, "pitch": 64, "duration": 90, "velocity": 85}, {"time": 72718, "pitch": 69, "duration": 80, "velocity": 75}, {"time": 72878, "pitch": 60, "duration": 60, "velocity": 70}, {"time": 72878, "pitch": 64, "duration": 50, "velocity": 75}, {"time": 72878, "pitch": 69, "duration": 80, "velocity": 65}, {"time": 72958, "pitch": 52, "duration": 151, "velocity": 100}, {"time": 72958, "pitch": 69, "duration": 151, "velocity": 105}, {"time": 72968, "pitch": 60, "duration": 141, "velocity": 110}, {"time": 72968, "pitch": 64, "duration": 141, "velocity": 115}, {"time": 73120, "pitch": 52, "duration": 81, "velocity": 75}, {"time": 73120, "pitch": 60, "duration": 71, "velocity": 85}, {"time": 73120, "pitch": 69, "duration": 60, "velocity": 80}, {"time": 73201, "pitch": 52, "duration": 60, "velocity": 65}, {"time": 73201, "pitch": 60, "duration": 71, "velocity": 55}, {"time": 73201, "pitch": 64, "duration": 71, "velocity": 50}, {"time": 73201, "pitch": 69, "duration": 60, "velocity": 60}, {"time": 73363, "pitch": 52, "duration": 71, "velocity": 90}, {"time": 73363, "pitch": 60, "duration": 61, "velocity": 100}, {"time": 73363, "pitch": 64, "duration": 61, "velocity": 105}, {"time": 73363, "pitch": 69, "duration": 71, "velocity": 95}, {"time": 73444, "pitch": 50, "duration": 209, "velocity": 95}, {"time": 73444, "pitch": 69, "duration": 209, "velocity": 100}, {"time": 73454, "pitch": 60, "duration": 199, "velocity": 105}, {"time": 73464, "pitch": 65, "duration": 189, "velocity": 110}, {"time": 73673, "pitch": 65, "duration": 170, "velocity": 94}, {"time": 73683, "pitch": 60, "duration": 160, "velocity": 89}, {"time": 73693, "pitch": 69, "duration": 150, "velocity": 84}, {"time": 73703, "pitch": 50, "duration": 140, "velocity": 79}, {"time": 73922, "pitch": 50, "duration": 10, "velocity": 95}, {"time": 73922, "pitch": 60, "duration": 10, "velocity": 105}, {"time": 73922, "pitch": 65, "duration": 10, "velocity": 110}, {"time": 73922, "pitch": 69, "duration": 10, "velocity": 100}, {"time": 74162, "pitch": 50, "duration": 209, "velocity": 95}, {"time": 74162, "pitch": 69, "duration": 209, "velocity": 100}, {"time": 74172, "pitch": 60, "duration": 199, "velocity": 105}, {"time": 74182, "pitch": 65, "duration": 189, "velocity": 110}, {"time": 74640, "pitch": 52, "duration": 210, "velocity": 95}, {"time": 74640, "pitch": 59, "duration": 210, "velocity": 100}, {"time": 74650, "pitch": 62, "duration": 200, "velocity": 105}, {"time": 74660, "pitch": 67, "duration": 190, "velocity": 110}, {"time": 74880, "pitch": 52, "duration": 149, "velocity": 80}, {"time": 74880, "pitch": 59, "duration": 149, "velocity": 85}, {"time": 74890, "pitch": 62, "duration": 139, "velocity": 90}, {"time": 74890, "pitch": 67, "duration": 139, "velocity": 95}, {"time": 75039, "pitch": 52, "duration": 80, "velocity": 75}, {"time": 75039, "pitch": 59, "duration": 60, "velocity": 80}, {"time": 75039, "pitch": 62, "duration": 70, "velocity": 85}, {"time": 75119, "pitch": 52, "duration": 60, "velocity": 65}, {"time": 75119, "pitch": 59, "duration": 60, "velocity": 60}, {"time": 75119, "pitch": 62, "duration": 70, "velocity": 55}, {"time": 75119, "pitch": 67, "duration": 70, "velocity": 50}, {"time": 75279, "pitch": 52, "duration": 69, "velocity": 90}, {"time": 75279, "pitch": 59, "duration": 69, "velocity": 95}, {"time": 75279, "pitch": 62, "duration": 59, "velocity": 100}, {"time": 75279, "pitch": 67, "duration": 59, "velocity": 105}, {"time": 75358, "pitch": 64, "duration": 210, "velocity": 95}, {"time": 75358, "pitch": 69, "duration": 210, "velocity": 100}, {"time": 75368, "pitch": 72, "duration": 200, "velocity": 105}, {"time": 75378, "pitch": 76, "duration": 190, "velocity": 110}, {"time": 75588, "pitch": 76, "duration": 169, "velocity": 94}, {"time": 75598, "pitch": 72, "duration": 159, "velocity": 89}, {"time": 75608, "pitch": 69, "duration": 149, "velocity": 84}, {"time": 75618, "pitch": 64, "duration": 139, "velocity": 79}, {"time": 75837, "pitch": 64, "duration": 152, "velocity": 95}, {"time": 75837, "pitch": 69, "duration": 152, "velocity": 100}, {"time": 75847, "pitch": 72, "duration": 142, "velocity": 105}, {"time": 75857, "pitch": 76, "duration": 142, "velocity": 110}, {"time": 75999, "pitch": 64, "duration": 71, "velocity": 75}, {"time": 75999, "pitch": 69, "duration": 71, "velocity": 80}, {"time": 76009, "pitch": 72, "duration": 61, "velocity": 85}, {"time": 76009, "pitch": 76, "duration": 61, "velocity": 90}, {"time": 76080, "pitch": 64, "duration": 142, "velocity": 70}, {"time": 76080, "pitch": 69, "duration": 142, "velocity": 75}, {"time": 76090, "pitch": 72, "duration": 132, "velocity": 80}, {"time": 76090, "pitch": 76, "duration": 132, "velocity": 85}, {"time": 76242, "pitch": 64, "duration": 71, "velocity": 95}, {"time": 76242, "pitch": 69, "duration": 71, "velocity": 100}, {"time": 76252, "pitch": 72, "duration": 61, "velocity": 105}, {"time": 76263, "pitch": 76, "duration": 60, "velocity": 110}, {"time": 76483, "pitch": 64, "duration": 70, "velocity": 100}, {"time": 76483, "pitch": 68, "duration": 70, "velocity": 105}, {"time": 76483, "pitch": 71, "duration": 60, "velocity": 110}, {"time": 76483, "pitch": 76, "duration": 60, "velocity": 115}, {"time": 76563, "pitch": 64, "duration": 79, "velocity": 60}, {"time": 76563, "pitch": 68, "duration": 79, "velocity": 75}, {"time": 76563, "pitch": 71, "duration": 89, "velocity": 80}, {"time": 76563, "pitch": 76, "duration": 89, "velocity": 85}, {"time": 76722, "pitch": 68, "duration": 80, "velocity": 65}, {"time": 76722, "pitch": 71, "duration": 60, "velocity": 70}, {"time": 76722, "pitch": 76, "duration": 50, "velocity": 75}, {"time": 76802, "pitch": 64, "duration": 150, "velocity": 100}, {"time": 76802, "pitch": 68, "duration": 150, "velocity": 105}, {"time": 76812, "pitch": 71, "duration": 140, "velocity": 110}, {"time": 76812, "pitch": 76, "duration": 140, "velocity": 115}, {"time": 76962, "pitch": 64, "duration": 79, "velocity": 70}, {"time": 76962, "pitch": 68, "duration": 79, "velocity": 85}, {"time": 77041, "pitch": 64, "duration": 140, "velocity": 85}, {"time": 77041, "pitch": 68, "duration": 140, "velocity": 80}, {"time": 77041, "pitch": 71, "duration": 10, "velocity": 75}, {"time": 77041, "pitch": 76, "duration": 10, "velocity": 70}, {"time": 77201, "pitch": 64, "duration": 70, "velocity": 80}, {"time": 77201, "pitch": 68, "duration": 70, "velocity": 85}, {"time": 77201, "pitch": 71, "duration": 60, "velocity": 90}, {"time": 77201, "pitch": 76, "duration": 60, "velocity": 95}, {"time": 77281, "pitch": 64, "duration": 209, "velocity": 95}, {"time": 77281, "pitch": 69, "duration": 209, "velocity": 100}, {"time": 77291, "pitch": 72, "duration": 199, "velocity": 105}, {"time": 77520, "pitch": 64, "duration": 209, "velocity": 95}, {"time": 77520, "pitch": 68, "duration": 209, "velocity": 100}, {"time": 77530, "pitch": 71, "duration": 199, "velocity": 105}, {"time": 77540, "pitch": 74, "duration": 189, "velocity": 110}, {"time": 77759, "pitch": 64, "duration": 10, "velocity": 95}, {"time": 77759, "pitch": 69, "duration": 10, "velocity": 100}, {"time": 77759, "pitch": 72, "duration": 10, "velocity": 105}, {"time": 77999, "pitch": 66, "duration": 448, "velocity": 95}, {"time": 77999, "pitch": 69, "duration": 448, "velocity": 100}, {"time": 78009, "pitch": 72, "duration": 438, "velocity": 105}, {"time": 78019, "pitch": 76, "duration": 428, "velocity": 110}, {"time": 78477, "pitch": 66, "duration": 210, "velocity": 95}, {"time": 78477, "pitch": 69, "duration": 210, "velocity": 100}, {"time": 78487, "pitch": 72, "duration": 200, "velocity": 105}, {"time": 78497, "pitch": 76, "duration": 190, "velocity": 110}, {"time": 78717, "pitch": 66, "duration": 152, "velocity": 90}, {"time": 78717, "pitch": 69, "duration": 152, "velocity": 95}, {"time": 78727, "pitch": 72, "duration": 142, "velocity": 100}, {"time": 78727, "pitch": 76, "duration": 142, "velocity": 105}, {"time": 78879, "pitch": 66, "duration": 81, "velocity": 75}, {"time": 78879, "pitch": 69, "duration": 61, "velocity": 80}, {"time": 78879, "pitch": 72, "duration": 71, "velocity": 85}, {"time": 78960, "pitch": 66, "duration": 61, "velocity": 65}, {"time": 78960, "pitch": 69, "duration": 61, "velocity": 60}, {"time": 78960, "pitch": 72, "duration": 71, "velocity": 55}, {"time": 78960, "pitch": 76, "duration": 71, "velocity": 50}, {"time": 79122, "pitch": 66, "duration": 71, "velocity": 90}, {"time": 79122, "pitch": 69, "duration": 71, "velocity": 95}, {"time": 79122, "pitch": 72, "duration": 61, "velocity": 100}, {"time": 79122, "pitch": 76, "duration": 61, "velocity": 105}, {"time": 79203, "pitch": 53, "duration": 209, "velocity": 95}, {"time": 79203, "pitch": 57, "duration": 209, "velocity": 100}, {"time": 79213, "pitch": 60, "duration": 199, "velocity": 105}, {"time": 79223, "pitch": 65, "duration": 189, "velocity": 110}, {"time": 79432, "pitch": 65, "duration": 170, "velocity": 94}, {"time": 79442, "pitch": 60, "duration": 160, "velocity": 89}, {"time": 79452, "pitch": 57, "duration": 150, "velocity": 84}, {"time": 79462, "pitch": 53, "duration": 140, "velocity": 79}, {"time": 79682, "pitch": 53, "duration": 209, "velocity": 95}, {"time": 79682, "pitch": 57, "duration": 209, "velocity": 100}, {"time": 79692, "pitch": 60, "duration": 199, "velocity": 105}, {"time": 79701, "pitch": 65, "duration": 190, "velocity": 110}, {"time": 79921, "pitch": 53, "duration": 70, "velocity": 65}, {"time": 79921, "pitch": 57, "duration": 70, "velocity": 70}, {"time": 79931, "pitch": 60, "duration": 60, "velocity": 75}, {"time": 79931, "pitch": 65, "duration": 60, "velocity": 80}, {"time": 80080, "pitch": 53, "duration": 80, "velocity": 95}, {"time": 80080, "pitch": 57, "duration": 80, "velocity": 100}, {"time": 80090, "pitch": 60, "duration": 70, "velocity": 105}, {"time": 80100, "pitch": 65, "duration": 60, "velocity": 110}, {"time": 80320, "pitch": 52, "duration": 70, "velocity": 100}, {"time": 80320, "pitch": 55, "duration": 70, "velocity": 105}, {"time": 80320, "pitch": 59, "duration": 60, "velocity": 110}, {"time": 80320, "pitch": 64, "duration": 60, "velocity": 115}, {"time": 80400, "pitch": 52, "duration": 79, "velocity": 60}, {"time": 80400, "pitch": 55, "duration": 79, "velocity": 75}, {"time": 80400, "pitch": 59, "duration": 89, "velocity": 80}, {"time": 80400, "pitch": 64, "duration": 89, "velocity": 85}, {"time": 80559, "pitch": 55, "duration": 80, "velocity": 65}, {"time": 80559, "pitch": 59, "duration": 60, "velocity": 70}, {"time": 80559, "pitch": 64, "duration": 50, "velocity": 75}, {"time": 80639, "pitch": 52, "duration": 149, "velocity": 100}, {"time": 80639, "pitch": 55, "duration": 149, "velocity": 105}, {"time": 80649, "pitch": 59, "duration": 139, "velocity": 110}, {"time": 80649, "pitch": 64, "duration": 139, "velocity": 115}, {"time": 80798, "pitch": 52, "duration": 80, "velocity": 75}, {"time": 80798, "pitch": 55, "duration": 60, "velocity": 80}, {"time": 80798, "pitch": 59, "duration": 70, "velocity": 85}, {"time": 80878, "pitch": 52, "duration": 60, "velocity": 65}, {"time": 80878, "pitch": 55, "duration": 60, "velocity": 60}, {"time": 80878, "pitch": 59, "duration": 70, "velocity": 55}, {"time": 80878, "pitch": 64, "duration": 70, "velocity": 50}, {"time": 81038, "pitch": 52, "duration": 70, "velocity": 90}, {"time": 81038, "pitch": 55, "duration": 70, "velocity": 95}, {"time": 81038, "pitch": 59, "duration": 60, "velocity": 100}, {"time": 81038, "pitch": 64, "duration": 60, "velocity": 105}, {"time": 81118, "pitch": 57, "duration": 209, "velocity": 95}, {"time": 81118, "pitch": 62, "duration": 209, "velocity": 100}, {"time": 81128, "pitch": 64, "duration": 199, "velocity": 105}, {"time": 81138, "pitch": 69, "duration": 189, "velocity": 110}, {"time": 81347, "pitch": 69, "duration": 169, "velocity": 94}, {"time": 81357, "pitch": 64, "duration": 159, "velocity": 89}, {"time": 81367, "pitch": 62, "duration": 149, "velocity": 84}, {"time": 81377, "pitch": 57, "duration": 139, "velocity": 79}, {"time": 81596, "pitch": 57, "duration": 213, "velocity": 95}, {"time": 81596, "pitch": 62, "duration": 213, "velocity": 100}, {"time": 81606, "pitch": 64, "duration": 203, "velocity": 105}, {"time": 81616, "pitch": 69, "duration": 193, "velocity": 110}, {"time": 81839, "pitch": 57, "duration": 71, "velocity": 65}, {"time": 81839, "pitch": 61, "duration": 71, "velocity": 70}, {"time": 81849, "pitch": 64, "duration": 61, "velocity": 75}, {"time": 81849, "pitch": 69, "duration": 61, "velocity": 80}, {"time": 82001, "pitch": 57, "duration": 211, "velocity": 95}, {"time": 82001, "pitch": 61, "duration": 211, "velocity": 100}, {"time": 82012, "pitch": 64, "duration": 200, "velocity": 105}, {"time": 82022, "pitch": 69, "duration": 190, "velocity": 110}, {"time": 82242, "pitch": 57, "duration": 70, "velocity": 100}, {"time": 82242, "pitch": 61, "duration": 70, "velocity": 105}, {"time": 82242, "pitch": 64, "duration": 60, "velocity": 110}, {"time": 82242, "pitch": 69, "duration": 60, "velocity": 115}, {"time": 82322, "pitch": 57, "duration": 80, "velocity": 60}, {"time": 82322, "pitch": 61, "duration": 80, "velocity": 75}, {"time": 82322, "pitch": 64, "duration": 90, "velocity": 80}, {"time": 82322, "pitch": 69, "duration": 90, "velocity": 85}, {"time": 82481, "pitch": 61, "duration": 80, "velocity": 65}, {"time": 82481, "pitch": 64, "duration": 60, "velocity": 70}, {"time": 82481, "pitch": 69, "duration": 50, "velocity": 75}, {"time": 82561, "pitch": 57, "duration": 150, "velocity": 100}, {"time": 82561, "pitch": 61, "duration": 150, "velocity": 105}, {"time": 82571, "pitch": 64, "duration": 140, "velocity": 110}, {"time": 82571, "pitch": 69, "duration": 140, "velocity": 115}, {"time": 82721, "pitch": 57, "duration": 79, "velocity": 75}, {"time": 82721, "pitch": 61, "duration": 59, "velocity": 80}, {"time": 82721, "pitch": 64, "duration": 69, "velocity": 85}, {"time": 82800, "pitch": 57, "duration": 60, "velocity": 65}, {"time": 82800, "pitch": 61, "duration": 60, "velocity": 60}, {"time": 82800, "pitch": 64, "duration": 70, "velocity": 55}, {"time": 82800, "pitch": 69, "duration": 70, "velocity": 50}, {"time": 82960, "pitch": 57, "duration": 70, "velocity": 90}, {"time": 82960, "pitch": 61, "duration": 70, "velocity": 95}, {"time": 82960, "pitch": 64, "duration": 60, "velocity": 100}, {"time": 82960, "pitch": 69, "duration": 60, "velocity": 105}, {"time": 83040, "pitch": 52, "duration": 209, "velocity": 95}, {"time": 83040, "pitch": 69, "duration": 209, "velocity": 100}, {"time": 83050, "pitch": 60, "duration": 199, "velocity": 105}, {"time": 83060, "pitch": 64, "duration": 189, "velocity": 110}, {"time": 83269, "pitch": 64, "duration": 170, "velocity": 94}, {"time": 83279, "pitch": 60, "duration": 160, "velocity": 89}, {"time": 83289, "pitch": 69, "duration": 150, "velocity": 84}, {"time": 83299, "pitch": 52, "duration": 140, "velocity": 79}, {"time": 83518, "pitch": 52, "duration": 210, "velocity": 95}, {"time": 83518, "pitch": 69, "duration": 210, "velocity": 100}, {"time": 83528, "pitch": 60, "duration": 200, "velocity": 105}, {"time": 83538, "pitch": 64, "duration": 190, "velocity": 110}, {"time": 83758, "pitch": 52, "duration": 70, "velocity": 65}, {"time": 83758, "pitch": 69, "duration": 70, "velocity": 70}, {"time": 83768, "pitch": 60, "duration": 60, "velocity": 75}, {"time": 83768, "pitch": 64, "duration": 60, "velocity": 80}, {"time": 83917, "pitch": 52, "duration": 212, "velocity": 95}, {"time": 83917, "pitch": 69, "duration": 212, "velocity": 100}, {"time": 83927, "pitch": 59, "duration": 202, "velocity": 105}, {"time": 83937, "pitch": 62, "duration": 192, "velocity": 110}, {"time": 84159, "pitch": 52, "duration": 71, "velocity": 100}, {"time": 84159, "pitch": 59, "duration": 61, "velocity": 110}, {"time": 84159, "pitch": 62, "duration": 61, "velocity": 115}, {"time": 84159, "pitch": 69, "duration": 71, "velocity": 105}, {"time": 84240, "pitch": 52, "duration": 81, "velocity": 60}, {"time": 84240, "pitch": 59, "duration": 91, "velocity": 80}, {"time": 84240, "pitch": 62, "duration": 91, "velocity": 85}, {"time": 84240, "pitch": 69, "duration": 81, "velocity": 75}, {"time": 84402, "pitch": 59, "duration": 61, "velocity": 70}, {"time": 84402, "pitch": 62, "duration": 51, "velocity": 75}, {"time": 84402, "pitch": 69, "duration": 81, "velocity": 65}, {"time": 84483, "pitch": 52, "duration": 150, "velocity": 100}, {"time": 84483, "pitch": 69, "duration": 150, "velocity": 105}, {"time": 84493, "pitch": 59, "duration": 140, "velocity": 110}, {"time": 84493, "pitch": 62, "duration": 140, "velocity": 115}, {"time": 84643, "pitch": 52, "duration": 80, "velocity": 75}, {"time": 84643, "pitch": 59, "duration": 70, "velocity": 85}, {"time": 84643, "pitch": 69, "duration": 60, "velocity": 80}, {"time": 84723, "pitch": 52, "duration": 59, "velocity": 65}, {"time": 84723, "pitch": 59, "duration": 69, "velocity": 55}, {"time": 84723, "pitch": 62, "duration": 69, "velocity": 50}, {"time": 84723, "pitch": 69, "duration": 59, "velocity": 60}, {"time": 84882, "pitch": 52, "duration": 70, "velocity": 90}, {"time": 84882, "pitch": 59, "duration": 60, "velocity": 100}, {"time": 84882, "pitch": 62, "duration": 60, "velocity": 105}, {"time": 84882, "pitch": 69, "duration": 70, "velocity": 95}, {"time": 84962, "pitch": 52, "duration": 209, "velocity": 95}, {"time": 84962, "pitch": 69, "duration": 209, "velocity": 100}, {"time": 84972, "pitch": 60, "duration": 199, "velocity": 105}, {"time": 84982, "pitch": 64, "duration": 189, "velocity": 110}, {"time": 85191, "pitch": 64, "duration": 170, "velocity": 94}, {"time": 85201, "pitch": 60, "duration": 160, "velocity": 89}, {"time": 85211, "pitch": 69, "duration": 150, "velocity": 84}, {"time": 85221, "pitch": 52, "duration": 140, "velocity": 79}, {"time": 85441, "pitch": 52, "duration": 209, "velocity": 95}, {"time": 85441, "pitch": 69, "duration": 209, "velocity": 100}, {"time": 85451, "pitch": 60, "duration": 199, "velocity": 105}, {"time": 85461, "pitch": 64, "duration": 189, "velocity": 110}, {"time": 85680, "pitch": 52, "duration": 70, "velocity": 65}, {"time": 85680, "pitch": 69, "duration": 70, "velocity": 70}, {"time": 85690, "pitch": 60, "duration": 60, "velocity": 75}, {"time": 85690, "pitch": 64, "duration": 60, "velocity": 80}, {"time": 85840, "pitch": 52, "duration": 209, "velocity": 95}, {"time": 85840, "pitch": 69, "duration": 209, "velocity": 100}, {"time": 85850, "pitch": 60, "duration": 199, "velocity": 105}, {"time": 85860, "pitch": 64, "duration": 189, "velocity": 110}, {"time": 86079, "pitch": 52, "duration": 70, "velocity": 100}, {"time": 86079, "pitch": 60, "duration": 60, "velocity": 110}, {"time": 86079, "pitch": 64, "duration": 60, "velocity": 115}, {"time": 86079, "pitch": 69, "duration": 70, "velocity": 105}, {"time": 86159, "pitch": 52, "duration": 79, "velocity": 60}, {"time": 86159, "pitch": 60, "duration": 89, "velocity": 80}, {"time": 86159, "pitch": 64, "duration": 89, "velocity": 85}, {"time": 86159, "pitch": 69, "duration": 79, "velocity": 75}, {"time": 86318, "pitch": 60, "duration": 60, "velocity": 70}, {"time": 86318, "pitch": 64, "duration": 50, "velocity": 75}, {"time": 86318, "pitch": 69, "duration": 80, "velocity": 65}, {"time": 86398, "pitch": 52, "duration": 150, "velocity": 100}, {"time": 86398, "pitch": 69, "duration": 150, "velocity": 105}, {"time": 86408, "pitch": 60, "duration": 140, "velocity": 110}, {"time": 86408, "pitch": 64, "duration": 140, "velocity": 115}, {"time": 86558, "pitch": 52, "duration": 79, "velocity": 75}, {"time": 86558, "pitch": 60, "duration": 69, "velocity": 85}, {"time": 86558, "pitch": 69, "duration": 59, "velocity": 80}, {"time": 86637, "pitch": 52, "duration": 60, "velocity": 65}, {"time": 86637, "pitch": 60, "duration": 70, "velocity": 55}, {"time": 86637, "pitch": 64, "duration": 70, "velocity": 50}, {"time": 86637, "pitch": 69, "duration": 60, "velocity": 60}, {"time": 86797, "pitch": 52, "duration": 70, "velocity": 90}, {"time": 86797, "pitch": 60, "duration": 60, "velocity": 100}, {"time": 86797, "pitch": 64, "duration": 60, "velocity": 105}, {"time": 86797, "pitch": 69, "duration": 70, "velocity": 95}, {"time": 86877, "pitch": 52, "duration": 212, "velocity": 95}, {"time": 86877, "pitch": 69, "duration": 212, "velocity": 100}, {"time": 86887, "pitch": 60, "duration": 202, "velocity": 105}, {"time": 86897, "pitch": 64, "duration": 192, "velocity": 110}, {"time": 87110, "pitch": 64, "duration": 172, "velocity": 94}, {"time": 87120, "pitch": 60, "duration": 162, "velocity": 89}, {"time": 87130, "pitch": 69, "duration": 152, "velocity": 84}, {"time": 87140, "pitch": 52, "duration": 142, "velocity": 79}, {"time": 87363, "pitch": 52, "duration": 209, "velocity": 95}, {"time": 87363, "pitch": 69, "duration": 209, "velocity": 100}, {"time": 87373, "pitch": 60, "duration": 199, "velocity": 105}, {"time": 87383, "pitch": 64, "duration": 189, "velocity": 110}, {"time": 87602, "pitch": 52, "duration": 70, "velocity": 65}, {"time": 87602, "pitch": 69, "duration": 70, "velocity": 70}, {"time": 87612, "pitch": 60, "duration": 60, "velocity": 75}, {"time": 87612, "pitch": 64, "duration": 60, "velocity": 80}, {"time": 87762, "pitch": 52, "duration": 209, "velocity": 95}, {"time": 87762, "pitch": 69, "duration": 209, "velocity": 100}, {"time": 87772, "pitch": 59, "duration": 199, "velocity": 105}, {"time": 87782, "pitch": 62, "duration": 189, "velocity": 110}, {"time": 88001, "pitch": 52, "duration": 70, "velocity": 100}, {"time": 88001, "pitch": 59, "duration": 60, "velocity": 110}, {"time": 88001, "pitch": 62, "duration": 60, "velocity": 115}, {"time": 88001, "pitch": 69, "duration": 70, "velocity": 105}, {"time": 88081, "pitch": 52, "duration": 80, "velocity": 60}, {"time": 88081, "pitch": 59, "duration": 90, "velocity": 80}, {"time": 88081, "pitch": 62, "duration": 90, "velocity": 85}, {"time": 88081, "pitch": 69, "duration": 80, "velocity": 75}, {"time": 88240, "pitch": 59, "duration": 60, "velocity": 70}, {"time": 88240, "pitch": 62, "duration": 50, "velocity": 75}, {"time": 88240, "pitch": 69, "duration": 80, "velocity": 65}, {"time": 88320, "pitch": 52, "duration": 150, "velocity": 100}, {"time": 88320, "pitch": 69, "duration": 150, "velocity": 105}, {"time": 88330, "pitch": 59, "duration": 140, "velocity": 110}, {"time": 88330, "pitch": 62, "duration": 140, "velocity": 115}, {"time": 88480, "pitch": 52, "duration": 80, "velocity": 75}, {"time": 88480, "pitch": 59, "duration": 70, "velocity": 85}, {"time": 88480, "pitch": 69, "duration": 60, "velocity": 80}, {"time": 90721, "pitch": 52, "duration": 210, "velocity": 95}, {"time": 90721, "pitch": 69, "duration": 210, "velocity": 100}, {"time": 90731, "pitch": 60, "duration": 200, "velocity": 105}, {"time": 90741, "pitch": 64, "duration": 190, "velocity": 110}, {"time": 90950, "pitch": 64, "duration": 170, "velocity": 94}, {"time": 90960, "pitch": 60, "duration": 160, "velocity": 89}, {"time": 90970, "pitch": 69, "duration": 150, "velocity": 84}, {"time": 90980, "pitch": 52, "duration": 140, "velocity": 79}, {"time": 91200, "pitch": 52, "duration": 209, "velocity": 95}, {"time": 91200, "pitch": 69, "duration": 209, "velocity": 100}, {"time": 91210, "pitch": 60, "duration": 199, "velocity": 105}, {"time": 91220, "pitch": 64, "duration": 189, "velocity": 110}, {"time": 91439, "pitch": 52, "duration": 70, "velocity": 65}, {"time": 91439, "pitch": 69, "duration": 70, "velocity": 70}, {"time": 91449, "pitch": 60, "duration": 60, "velocity": 75}, {"time": 91449, "pitch": 64, "duration": 60, "velocity": 80}, {"time": 91599, "pitch": 52, "duration": 209, "velocity": 95}, {"time": 91599, "pitch": 69, "duration": 209, "velocity": 100}, {"time": 91609, "pitch": 59, "duration": 199, "velocity": 105}, {"time": 91619, "pitch": 62, "duration": 189, "velocity": 110}, {"time": 91838, "pitch": 52, "duration": 70, "velocity": 100}, {"time": 91838, "pitch": 59, "duration": 60, "velocity": 110}, {"time": 91838, "pitch": 62, "duration": 60, "velocity": 115}, {"time": 91838, "pitch": 69, "duration": 70, "velocity": 105}, {"time": 91918, "pitch": 52, "duration": 80, "velocity": 60}, {"time": 91918, "pitch": 59, "duration": 90, "velocity": 80}, {"time": 91918, "pitch": 62, "duration": 90, "velocity": 85}, {"time": 91918, "pitch": 69, "duration": 80, "velocity": 75}, {"time": 92077, "pitch": 59, "duration": 60, "velocity": 70}, {"time": 92077, "pitch": 62, "duration": 50, "velocity": 75}, {"time": 92077, "pitch": 69, "duration": 80, "velocity": 65}, {"time": 92157, "pitch": 52, "duration": 152, "velocity": 100}, {"time": 92157, "pitch": 69, "duration": 152, "velocity": 105}, {"time": 92167, "pitch": 59, "duration": 142, "velocity": 110}, {"time": 92167, "pitch": 62, "duration": 142, "velocity": 115}, {"time": 92319, "pitch": 52, "duration": 81, "velocity": 75}, {"time": 92319, "pitch": 59, "duration": 71, "velocity": 85}, {"time": 92319, "pitch": 69, "duration": 61, "velocity": 80}, {"time": 92400, "pitch": 52, "duration": 61, "velocity": 65}, {"time": 92400, "pitch": 59, "duration": 71, "velocity": 55}, {"time": 92400, "pitch": 62, "duration": 71, "velocity": 50}, {"time": 92400, "pitch": 69, "duration": 61, "velocity": 60}, {"time": 92562, "pitch": 52, "duration": 71, "velocity": 90}, {"time": 92562, "pitch": 59, "duration": 61, "velocity": 100}, {"time": 92562, "pitch": 62, "duration": 61, "velocity": 105}, {"time": 92562, "pitch": 69, "duration": 71, "velocity": 95}, {"time": 92643, "pitch": 52, "duration": 210, "velocity": 95}, {"time": 92643, "pitch": 69, "duration": 210, "velocity": 100}, {"time": 92653, "pitch": 60, "duration": 200, "velocity": 105}, {"time": 92663, "pitch": 64, "duration": 190, "velocity": 110}, {"time": 92873, "pitch": 64, "duration": 169, "velocity": 94}, {"time": 92883, "pitch": 60, "duration": 159, "velocity": 89}, {"time": 92893, "pitch": 69, "duration": 149, "velocity": 84}, {"time": 92903, "pitch": 52, "duration": 139, "velocity": 79}, {"time": 93122, "pitch": 52, "duration": 209, "velocity": 95}, {"time": 93122, "pitch": 69, "duration": 209, "velocity": 100}, {"time": 93132, "pitch": 60, "duration": 199, "velocity": 105}, {"time": 93142, "pitch": 64, "duration": 189, "velocity": 110}, {"time": 93361, "pitch": 52, "duration": 70, "velocity": 65}, {"time": 93361, "pitch": 69, "duration": 70, "velocity": 70}, {"time": 93371, "pitch": 60, "duration": 60, "velocity": 75}, {"time": 93371, "pitch": 64, "duration": 60, "velocity": 80}, {"time": 93521, "pitch": 52, "duration": 209, "velocity": 95}, {"time": 93521, "pitch": 69, "duration": 209, "velocity": 100}, {"time": 93531, "pitch": 60, "duration": 199, "velocity": 105}, {"time": 93541, "pitch": 64, "duration": 189, "velocity": 110}, {"time": 93760, "pitch": 52, "duration": 70, "velocity": 100}, {"time": 93760, "pitch": 60, "duration": 60, "velocity": 110}, {"time": 93760, "pitch": 64, "duration": 60, "velocity": 115}, {"time": 93760, "pitch": 69, "duration": 70, "velocity": 105}, {"time": 93840, "pitch": 52, "duration": 80, "velocity": 60}, {"time": 93840, "pitch": 60, "duration": 90, "velocity": 80}, {"time": 93840, "pitch": 64, "duration": 90, "velocity": 85}, {"time": 93840, "pitch": 69, "duration": 80, "velocity": 75}, {"time": 94000, "pitch": 60, "duration": 59, "velocity": 70}, {"time": 94000, "pitch": 64, "duration": 49, "velocity": 75}, {"time": 94000, "pitch": 69, "duration": 79, "velocity": 65}, {"time": 94079, "pitch": 52, "duration": 150, "velocity": 100}, {"time": 94079, "pitch": 69, "duration": 150, "velocity": 105}, {"time": 94089, "pitch": 60, "duration": 140, "velocity": 110}, {"time": 94089, "pitch": 64, "duration": 140, "velocity": 115}, {"time": 94239, "pitch": 52, "duration": 80, "velocity": 75}, {"time": 94239, "pitch": 60, "duration": 70, "velocity": 85}, {"time": 94239, "pitch": 69, "duration": 60, "velocity": 80}, {"time": 94319, "pitch": 52, "duration": 60, "velocity": 65}, {"time": 94319, "pitch": 60, "duration": 70, "velocity": 55}, {"time": 94319, "pitch": 64, "duration": 70, "velocity": 50}, {"time": 94319, "pitch": 69, "duration": 60, "velocity": 60}, {"time": 94478, "pitch": 52, "duration": 70, "velocity": 90}, {"time": 94478, "pitch": 60, "duration": 60, "velocity": 100}, {"time": 94478, "pitch": 64, "duration": 60, "velocity": 105}, {"time": 94478, "pitch": 69, "duration": 70, "velocity": 95}, {"time": 94558, "pitch": 52, "duration": 209, "velocity": 95}, {"time": 94558, "pitch": 69, "duration": 209, "velocity": 100}, {"time": 94568, "pitch": 57, "duration": 199, "velocity": 105}, {"time": 94578, "pitch": 62, "duration": 189, "velocity": 110}, {"time": 94787, "pitch": 62, "duration": 170, "velocity": 94}, {"time": 94797, "pitch": 57, "duration": 160, "velocity": 89}, {"time": 94807, "pitch": 69, "duration": 150, "velocity": 84}, {"time": 94817, "pitch": 52, "duration": 140, "velocity": 79}, {"time": 95037, "pitch": 52, "duration": 212, "velocity": 95}, {"time": 95037, "pitch": 69, "duration": 212, "velocity": 100}, {"time": 95047, "pitch": 57, "duration": 202, "velocity": 105}, {"time": 95057, "pitch": 62, "duration": 192, "velocity": 110}, {"time": 95280, "pitch": 52, "duration": 71, "velocity": 65}, {"time": 95280, "pitch": 69, "duration": 71, "velocity": 70}, {"time": 95290, "pitch": 57, "duration": 61, "velocity": 75}, {"time": 95290, "pitch": 62, "duration": 61, "velocity": 80}, {"time": 95442, "pitch": 52, "duration": 211, "velocity": 95}, {"time": 95442, "pitch": 69, "duration": 211, "velocity": 100}, {"time": 95452, "pitch": 57, "duration": 201, "velocity": 105}, {"time": 95462, "pitch": 62, "duration": 191, "velocity": 110}, {"time": 95682, "pitch": 52, "duration": 70, "velocity": 100}, {"time": 95682, "pitch": 57, "duration": 60, "velocity": 110}, {"time": 95682, "pitch": 62, "duration": 60, "velocity": 115}, {"time": 95682, "pitch": 69, "duration": 70, "velocity": 105}, {"time": 95762, "pitch": 52, "duration": 80, "velocity": 60}, {"time": 95762, "pitch": 57, "duration": 90, "velocity": 80}, {"time": 95762, "pitch": 62, "duration": 90, "velocity": 85}, {"time": 95762, "pitch": 69, "duration": 80, "velocity": 75}, {"time": 95922, "pitch": 57, "duration": 60, "velocity": 70}, {"time": 95922, "pitch": 62, "duration": 50, "velocity": 75}, {"time": 95922, "pitch": 69, "duration": 80, "velocity": 65}, {"time": 96002, "pitch": 52, "duration": 149, "velocity": 100}, {"time": 96002, "pitch": 69, "duration": 149, "velocity": 105}, {"time": 96012, "pitch": 57, "duration": 139, "velocity": 110}, {"time": 96012, "pitch": 62, "duration": 139, "velocity": 115}, {"time": 96161, "pitch": 52, "duration": 80, "velocity": 75}, {"time": 96161, "pitch": 57, "duration": 70, "velocity": 85}, {"time": 96161, "pitch": 69, "duration": 60, "velocity": 80}, {"time": 96241, "pitch": 52, "duration": 239, "velocity": 65}, {"time": 96241, "pitch": 59, "duration": 239, "velocity": 55}, {"time": 96241, "pitch": 64, "duration": 239, "velocity": 50}, {"time": 96241, "pitch": 68, "duration": 239, "velocity": 60}, {"time": 96720, "pitch": 52, "duration": 239, "velocity": 65}, {"time": 96720, "pitch": 59, "duration": 239, "velocity": 55}, {"time": 96720, "pitch": 64, "duration": 239, "velocity": 50}, {"time": 96720, "pitch": 68, "duration": 239, "velocity": 60}, {"time": 97198, "pitch": 52, "duration": 240, "velocity": 65}, {"time": 97198, "pitch": 59, "duration": 240, "velocity": 55}, {"time": 97198, "pitch": 64, "duration": 240, "velocity": 50}, {"time": 97198, "pitch": 68, "duration": 240, "velocity": 60}, {"time": 98402, "pitch": 52, "duration": 210, "velocity": 95}, {"time": 98402, "pitch": 69, "duration": 210, "velocity": 100}, {"time": 98412, "pitch": 60, "duration": 200, "velocity": 105}, {"time": 98422, "pitch": 64, "duration": 190, "velocity": 110}, {"time": 98632, "pitch": 64, "duration": 169, "velocity": 94}, {"time": 98642, "pitch": 60, "duration": 159, "velocity": 89}, {"time": 98652, "pitch": 69, "duration": 149, "velocity": 84}, {"time": 98662, "pitch": 52, "duration": 139, "velocity": 79}, {"time": 98881, "pitch": 52, "duration": 210, "velocity": 95}, {"time": 98881, "pitch": 69, "duration": 210, "velocity": 100}, {"time": 98891, "pitch": 60, "duration": 200, "velocity": 105}, {"time": 98901, "pitch": 64, "duration": 190, "velocity": 110}, {"time": 99120, "pitch": 52, "duration": 70, "velocity": 65}, {"time": 99120, "pitch": 69, "duration": 70, "velocity": 70}, {"time": 99130, "pitch": 60, "duration": 60, "velocity": 75}, {"time": 99130, "pitch": 64, "duration": 60, "velocity": 80}, {"time": 99280, "pitch": 52, "duration": 209, "velocity": 95}, {"time": 99280, "pitch": 69, "duration": 209, "velocity": 100}, {"time": 99290, "pitch": 60, "duration": 199, "velocity": 105}, {"time": 99300, "pitch": 64, "duration": 189, "velocity": 110}, {"time": 99519, "pitch": 52, "duration": 70, "velocity": 100}, {"time": 99519, "pitch": 60, "duration": 60, "velocity": 110}, {"time": 99519, "pitch": 64, "duration": 60, "velocity": 115}, {"time": 99519, "pitch": 69, "duration": 70, "velocity": 105}, {"time": 99599, "pitch": 52, "duration": 80, "velocity": 60}, {"time": 99599, "pitch": 60, "duration": 90, "velocity": 80}, {"time": 99599, "pitch": 64, "duration": 90, "velocity": 85}, {"time": 99599, "pitch": 69, "duration": 80, "velocity": 75}, {"time": 99759, "pitch": 60, "duration": 60, "velocity": 70}, {"time": 99759, "pitch": 64, "duration": 50, "velocity": 75}, {"time": 99759, "pitch": 69, "duration": 80, "velocity": 65}, {"time": 99839, "pitch": 52, "duration": 149, "velocity": 100}, {"time": 99839, "pitch": 69, "duration": 149, "velocity": 105}, {"time": 99848, "pitch": 60, "duration": 140, "velocity": 110}, {"time": 99848, "pitch": 64, "duration": 140, "velocity": 115}, {"time": 99998, "pitch": 52, "duration": 80, "velocity": 75}, {"time": 99998, "pitch": 60, "duration": 70, "velocity": 85}, {"time": 99998, "pitch": 69, "duration": 60, "velocity": 80}, {"time": 100078, "pitch": 52, "duration": 60, "velocity": 65}, {"time": 100078, "pitch": 60, "duration": 70, "velocity": 55}, {"time": 100078, "pitch": 64, "duration": 70, "velocity": 50}, {"time": 100078, "pitch": 69, "duration": 60, "velocity": 60}, {"time": 100237, "pitch": 52, "duration": 70, "velocity": 90}, {"time": 100237, "pitch": 60, "duration": 60, "velocity": 100}, {"time": 100237, "pitch": 64, "duration": 60, "velocity": 105}, {"time": 100237, "pitch": 69, "duration": 70, "velocity": 95}, {"time": 100317, "pitch": 50, "duration": 213, "velocity": 95}, {"time": 100317, "pitch": 69, "duration": 213, "velocity": 100}, {"time": 100327, "pitch": 62, "duration": 203, "velocity": 105}, {"time": 100337, "pitch": 65, "duration": 193, "velocity": 110}, {"time": 100550, "pitch": 65, "duration": 172, "velocity": 94}, {"time": 100560, "pitch": 62, "duration": 162, "velocity": 89}, {"time": 100570, "pitch": 69, "duration": 152, "velocity": 84}, {"time": 100581, "pitch": 50, "duration": 141, "velocity": 79}, {"time": 100803, "pitch": 50, "duration": 210, "velocity": 95}, {"time": 100803, "pitch": 69, "duration": 210, "velocity": 100}, {"time": 100813, "pitch": 62, "duration": 200, "velocity": 105}, {"time": 100823, "pitch": 65, "duration": 190, "velocity": 110}, {"time": 101043, "pitch": 50, "duration": 70, "velocity": 65}, {"time": 101043, "pitch": 69, "duration": 70, "velocity": 70}, {"time": 101053, "pitch": 62, "duration": 60, "velocity": 75}, {"time": 101053, "pitch": 65, "duration": 60, "velocity": 80}, {"time": 101202, "pitch": 50, "duration": 210, "velocity": 95}, {"time": 101202, "pitch": 69, "duration": 210, "velocity": 100}, {"time": 101212, "pitch": 62, "duration": 200, "velocity": 105}, {"time": 101222, "pitch": 65, "duration": 190, "velocity": 110}, {"time": 101442, "pitch": 50, "duration": 69, "velocity": 100}, {"time": 101442, "pitch": 62, "duration": 59, "velocity": 110}, {"time": 101442, "pitch": 65, "duration": 59, "velocity": 115}, {"time": 101442, "pitch": 69, "duration": 69, "velocity": 105}, {"time": 101521, "pitch": 50, "duration": 80, "velocity": 60}, {"time": 101521, "pitch": 62, "duration": 90, "velocity": 80}, {"time": 101521, "pitch": 65, "duration": 90, "velocity": 85}, {"time": 101521, "pitch": 69, "duration": 80, "velocity": 75}, {"time": 101681, "pitch": 62, "duration": 60, "velocity": 70}, {"time": 101681, "pitch": 65, "duration": 50, "velocity": 75}, {"time": 101681, "pitch": 69, "duration": 80, "velocity": 65}, {"time": 101761, "pitch": 50, "duration": 149, "velocity": 100}, {"time": 101761, "pitch": 69, "duration": 149, "velocity": 105}, {"time": 101771, "pitch": 62, "duration": 139, "velocity": 110}, {"time": 101771, "pitch": 65, "duration": 139, "velocity": 115}, {"time": 101920, "pitch": 50, "duration": 80, "velocity": 75}, {"time": 101920, "pitch": 62, "duration": 70, "velocity": 85}, {"time": 101920, "pitch": 69, "duration": 60, "velocity": 80}, {"time": 102000, "pitch": 50, "duration": 60, "velocity": 65}, {"time": 102000, "pitch": 62, "duration": 70, "velocity": 55}, {"time": 102000, "pitch": 65, "duration": 70, "velocity": 50}, {"time": 102000, "pitch": 69, "duration": 60, "velocity": 60}, {"time": 102160, "pitch": 50, "duration": 69, "velocity": 90}, {"time": 102160, "pitch": 62, "duration": 59, "velocity": 100}, {"time": 102160, "pitch": 65, "duration": 59, "velocity": 105}, {"time": 102160, "pitch": 69, "duration": 69, "velocity": 95}, {"time": 102239, "pitch": 52, "duration": 210, "velocity": 95}, {"time": 102239, "pitch": 69, "duration": 210, "velocity": 100}, {"time": 102249, "pitch": 59, "duration": 200, "velocity": 105}, {"time": 102259, "pitch": 64, "duration": 190, "velocity": 110}, {"time": 102469, "pitch": 64, "duration": 169, "velocity": 94}, {"time": 102479, "pitch": 59, "duration": 159, "velocity": 89}, {"time": 102489, "pitch": 69, "duration": 149, "velocity": 84}, {"time": 102499, "pitch": 52, "duration": 139, "velocity": 79}, {"time": 102718, "pitch": 52, "duration": 209, "velocity": 95}, {"time": 102718, "pitch": 69, "duration": 209, "velocity": 100}, {"time": 102728, "pitch": 59, "duration": 199, "velocity": 105}, {"time": 102738, "pitch": 64, "duration": 189, "velocity": 110}, {"time": 102957, "pitch": 52, "duration": 70, "velocity": 65}, {"time": 102957, "pitch": 69, "duration": 70, "velocity": 70}, {"time": 102967, "pitch": 59, "duration": 60, "velocity": 75}, {"time": 102967, "pitch": 64, "duration": 60, "velocity": 80}, {"time": 103117, "pitch": 52, "duration": 211, "velocity": 95}, {"time": 103117, "pitch": 69, "duration": 211, "velocity": 100}, {"time": 103127, "pitch": 59, "duration": 201, "velocity": 105}, {"time": 103137, "pitch": 64, "duration": 191, "velocity": 110}, {"time": 103359, "pitch": 52, "duration": 71, "velocity": 100}, {"time": 103359, "pitch": 59, "duration": 61, "velocity": 110}, {"time": 103359, "pitch": 64, "duration": 61, "velocity": 115}, {"time": 103359, "pitch": 69, "duration": 71, "velocity": 105}, {"time": 103440, "pitch": 52, "duration": 81, "velocity": 60}, {"time": 103440, "pitch": 59, "duration": 91, "velocity": 80}, {"time": 103440, "pitch": 64, "duration": 91, "velocity": 85}, {"time": 103440, "pitch": 69, "duration": 81, "velocity": 75}, {"time": 103602, "pitch": 59, "duration": 61, "velocity": 70}, {"time": 103602, "pitch": 64, "duration": 51, "velocity": 75}, {"time": 103602, "pitch": 69, "duration": 81, "velocity": 65}, {"time": 103683, "pitch": 52, "duration": 150, "velocity": 100}, {"time": 103683, "pitch": 69, "duration": 150, "velocity": 105}, {"time": 103693, "pitch": 59, "duration": 140, "velocity": 110}, {"time": 103693, "pitch": 64, "duration": 140, "velocity": 115}, {"time": 103842, "pitch": 52, "duration": 80, "velocity": 75}, {"time": 103842, "pitch": 59, "duration": 70, "velocity": 85}, {"time": 103842, "pitch": 69, "duration": 60, "velocity": 80}, {"time": 103922, "pitch": 52, "duration": 60, "velocity": 65}, {"time": 103922, "pitch": 59, "duration": 70, "velocity": 55}, {"time": 103922, "pitch": 64, "duration": 70, "velocity": 50}, {"time": 103922, "pitch": 69, "duration": 60, "velocity": 60}, {"time": 104082, "pitch": 52, "duration": 70, "velocity": 90}, {"time": 104082, "pitch": 59, "duration": 60, "velocity": 100}, {"time": 104082, "pitch": 64, "duration": 60, "velocity": 105}, {"time": 104082, "pitch": 69, "duration": 70, "velocity": 95}, {"time": 104162, "pitch": 52, "duration": 209, "velocity": 95}, {"time": 104162, "pitch": 69, "duration": 209, "velocity": 100}, {"time": 104172, "pitch": 60, "duration": 199, "velocity": 105}, {"time": 104182, "pitch": 64, "duration": 189, "velocity": 110}, {"time": 104391, "pitch": 64, "duration": 170, "velocity": 94}, {"time": 104401, "pitch": 60, "duration": 160, "velocity": 89}, {"time": 104411, "pitch": 69, "duration": 150, "velocity": 84}, {"time": 104421, "pitch": 52, "duration": 140, "velocity": 79}, {"time": 104640, "pitch": 52, "duration": 210, "velocity": 95}, {"time": 104640, "pitch": 69, "duration": 210, "velocity": 100}, {"time": 104650, "pitch": 60, "duration": 200, "velocity": 105}, {"time": 104660, "pitch": 64, "duration": 190, "velocity": 110}, {"time": 104880, "pitch": 52, "duration": 69, "velocity": 65}, {"time": 104880, "pitch": 69, "duration": 69, "velocity": 70}, {"time": 104890, "pitch": 60, "duration": 59, "velocity": 75}, {"time": 104890, "pitch": 64, "duration": 59, "velocity": 80}, {"time": 105039, "pitch": 52, "duration": 210, "velocity": 95}, {"time": 105039, "pitch": 69, "duration": 210, "velocity": 100}, {"time": 105049, "pitch": 60, "duration": 200, "velocity": 105}, {"time": 105059, "pitch": 64, "duration": 190, "velocity": 110}, {"time": 105279, "pitch": 52, "duration": 69, "velocity": 100}, {"time": 105279, "pitch": 60, "duration": 59, "velocity": 110}, {"time": 105279, "pitch": 64, "duration": 59, "velocity": 115}, {"time": 105279, "pitch": 69, "duration": 69, "velocity": 105}, {"time": 105358, "pitch": 52, "duration": 80, "velocity": 60}, {"time": 105358, "pitch": 60, "duration": 90, "velocity": 80}, {"time": 105358, "pitch": 64, "duration": 90, "velocity": 85}, {"time": 105358, "pitch": 69, "duration": 80, "velocity": 75}, {"time": 105518, "pitch": 60, "duration": 60, "velocity": 70}, {"time": 105518, "pitch": 64, "duration": 50, "velocity": 75}, {"time": 105518, "pitch": 69, "duration": 80, "velocity": 65}, {"time": 105598, "pitch": 52, "duration": 149, "velocity": 100}, {"time": 105598, "pitch": 69, "duration": 149, "velocity": 105}, {"time": 105608, "pitch": 60, "duration": 139, "velocity": 110}, {"time": 105608, "pitch": 64, "duration": 139, "velocity": 115}, {"time": 105757, "pitch": 52, "duration": 80, "velocity": 75}, {"time": 105757, "pitch": 60, "duration": 70, "velocity": 85}, {"time": 105757, "pitch": 69, "duration": 60, "velocity": 80}, {"time": 105837, "pitch": 52, "duration": 60, "velocity": 65}, {"time": 105837, "pitch": 60, "duration": 70, "velocity": 55}, {"time": 105837, "pitch": 64, "duration": 70, "velocity": 50}, {"time": 105837, "pitch": 69, "duration": 60, "velocity": 60}, {"time": 105997, "pitch": 52, "duration": 69, "velocity": 90}, {"time": 105997, "pitch": 60, "duration": 59, "velocity": 100}, {"time": 105997, "pitch": 64, "duration": 59, "velocity": 105}, {"time": 105997, "pitch": 69, "duration": 69, "velocity": 95}, {"time": 106076, "pitch": 52, "duration": 213, "velocity": 95}, {"time": 106076, "pitch": 69, "duration": 213, "velocity": 100}, {"time": 106086, "pitch": 60, "duration": 203, "velocity": 105}, {"time": 106097, "pitch": 64, "duration": 192, "velocity": 110}, {"time": 106309, "pitch": 64, "duration": 172, "velocity": 94}, {"time": 106319, "pitch": 60, "duration": 162, "velocity": 89}, {"time": 106330, "pitch": 69, "duration": 151, "velocity": 84}, {"time": 106340, "pitch": 52, "duration": 141, "velocity": 79}, {"time": 106562, "pitch": 52, "duration": 210, "velocity": 95}, {"time": 106562, "pitch": 69, "duration": 210, "velocity": 100}, {"time": 106572, "pitch": 60, "duration": 200, "velocity": 105}, {"time": 106582, "pitch": 64, "duration": 190, "velocity": 110}, {"time": 106802, "pitch": 52, "duration": 70, "velocity": 65}, {"time": 106802, "pitch": 69, "duration": 70, "velocity": 70}, {"time": 106812, "pitch": 60, "duration": 60, "velocity": 75}, {"time": 106812, "pitch": 64, "duration": 60, "velocity": 80}, {"time": 106961, "pitch": 52, "duration": 210, "velocity": 95}, {"time": 106961, "pitch": 69, "duration": 210, "velocity": 100}, {"time": 106971, "pitch": 60, "duration": 200, "velocity": 105}, {"time": 106981, "pitch": 64, "duration": 190, "velocity": 110}, {"time": 107201, "pitch": 52, "duration": 70, "velocity": 100}, {"time": 107201, "pitch": 60, "duration": 60, "velocity": 110}, {"time": 107201, "pitch": 64, "duration": 60, "velocity": 115}, {"time": 107201, "pitch": 69, "duration": 70, "velocity": 105}, {"time": 107281, "pitch": 52, "duration": 79, "velocity": 60}, {"time": 107281, "pitch": 60, "duration": 89, "velocity": 80}, {"time": 107281, "pitch": 64, "duration": 89, "velocity": 85}, {"time": 107281, "pitch": 69, "duration": 79, "velocity": 75}, {"time": 107440, "pitch": 60, "duration": 60, "velocity": 70}, {"time": 107440, "pitch": 64, "duration": 50, "velocity": 75}, {"time": 107440, "pitch": 69, "duration": 80, "velocity": 65}, {"time": 107520, "pitch": 52, "duration": 149, "velocity": 100}, {"time": 107520, "pitch": 69, "duration": 149, "velocity": 105}, {"time": 107530, "pitch": 60, "duration": 139, "velocity": 110}, {"time": 107530, "pitch": 64, "duration": 139, "velocity": 115}, {"time": 107679, "pitch": 52, "duration": 80, "velocity": 75}, {"time": 107679, "pitch": 60, "duration": 70, "velocity": 85}, {"time": 107679, "pitch": 69, "duration": 60, "velocity": 80}, {"time": 107759, "pitch": 52, "duration": 60, "velocity": 65}, {"time": 107759, "pitch": 60, "duration": 70, "velocity": 55}, {"time": 107759, "pitch": 64, "duration": 70, "velocity": 50}, {"time": 107759, "pitch": 69, "duration": 60, "velocity": 60}, {"time": 107919, "pitch": 52, "duration": 70, "velocity": 90}, {"time": 107919, "pitch": 60, "duration": 60, "velocity": 100}, {"time": 107919, "pitch": 64, "duration": 60, "velocity": 105}, {"time": 107919, "pitch": 69, "duration": 70, "velocity": 95}, {"time": 107999, "pitch": 50, "duration": 209, "velocity": 95}, {"time": 107999, "pitch": 69, "duration": 209, "velocity": 100}, {"time": 108008, "pitch": 62, "duration": 200, "velocity": 105}, {"time": 108018, "pitch": 65, "duration": 190, "velocity": 110}, {"time": 108228, "pitch": 65, "duration": 169, "velocity": 94}, {"time": 108238, "pitch": 62, "duration": 159, "velocity": 89}, {"time": 108248, "pitch": 69, "duration": 149, "velocity": 84}, {"time": 108258, "pitch": 50, "duration": 139, "velocity": 79}, {"time": 108477, "pitch": 50, "duration": 213, "velocity": 95}, {"time": 108477, "pitch": 69, "duration": 213, "velocity": 100}, {"time": 108487, "pitch": 62, "duration": 203, "velocity": 105}, {"time": 108497, "pitch": 65, "duration": 193, "velocity": 110}, {"time": 108720, "pitch": 50, "duration": 71, "velocity": 65}, {"time": 108720, "pitch": 69, "duration": 71, "velocity": 70}, {"time": 108730, "pitch": 62, "duration": 61, "velocity": 75}, {"time": 108730, "pitch": 65, "duration": 61, "velocity": 80}, {"time": 108882, "pitch": 50, "duration": 211, "velocity": 95}, {"time": 108882, "pitch": 69, "duration": 211, "velocity": 100}, {"time": 108893, "pitch": 62, "duration": 200, "velocity": 105}, {"time": 108903, "pitch": 65, "duration": 190, "velocity": 110}, {"time": 109123, "pitch": 50, "duration": 70, "velocity": 100}, {"time": 109123, "pitch": 62, "duration": 60, "velocity": 110}, {"time": 109123, "pitch": 65, "duration": 60, "velocity": 115}, {"time": 109123, "pitch": 69, "duration": 70, "velocity": 105}, {"time": 109203, "pitch": 50, "duration": 80, "velocity": 60}, {"time": 109203, "pitch": 62, "duration": 89, "velocity": 80}, {"time": 109203, "pitch": 65, "duration": 89, "velocity": 85}, {"time": 109203, "pitch": 69, "duration": 80, "velocity": 75}, {"time": 109362, "pitch": 62, "duration": 60, "velocity": 70}, {"time": 109362, "pitch": 65, "duration": 50, "velocity": 75}, {"time": 109362, "pitch": 69, "duration": 80, "velocity": 65}, {"time": 109442, "pitch": 50, "duration": 150, "velocity": 100}, {"time": 109442, "pitch": 69, "duration": 150, "velocity": 105}, {"time": 109452, "pitch": 62, "duration": 140, "velocity": 110}, {"time": 109452, "pitch": 65, "duration": 140, "velocity": 115}, {"time": 109602, "pitch": 50, "duration": 79, "velocity": 75}, {"time": 109602, "pitch": 62, "duration": 69, "velocity": 85}, {"time": 109602, "pitch": 69, "duration": 59, "velocity": 80}, {"time": 109681, "pitch": 50, "duration": 60, "velocity": 65}, {"time": 109681, "pitch": 62, "duration": 70, "velocity": 55}, {"time": 109681, "pitch": 65, "duration": 70, "velocity": 50}, {"time": 109681, "pitch": 69, "duration": 60, "velocity": 60}, {"time": 109841, "pitch": 50, "duration": 70, "velocity": 90}, {"time": 109841, "pitch": 62, "duration": 60, "velocity": 100}, {"time": 109841, "pitch": 65, "duration": 60, "velocity": 105}, {"time": 109841, "pitch": 69, "duration": 70, "velocity": 95}, {"time": 109921, "pitch": 52, "duration": 209, "velocity": 95}, {"time": 109921, "pitch": 69, "duration": 209, "velocity": 100}, {"time": 109931, "pitch": 59, "duration": 199, "velocity": 105}, {"time": 109941, "pitch": 62, "duration": 189, "velocity": 110}, {"time": 110150, "pitch": 62, "duration": 170, "velocity": 94}, {"time": 110160, "pitch": 59, "duration": 160, "velocity": 89}, {"time": 110170, "pitch": 69, "duration": 150, "velocity": 84}, {"time": 110180, "pitch": 52, "duration": 140, "velocity": 79}, {"time": 110399, "pitch": 52, "duration": 210, "velocity": 95}, {"time": 110399, "pitch": 69, "duration": 210, "velocity": 100}, {"time": 110409, "pitch": 59, "duration": 200, "velocity": 105}, {"time": 110419, "pitch": 62, "duration": 190, "velocity": 110}, {"time": 110639, "pitch": 52, "duration": 70, "velocity": 65}, {"time": 110639, "pitch": 69, "duration": 70, "velocity": 70}, {"time": 110649, "pitch": 59, "duration": 60, "velocity": 75}, {"time": 110649, "pitch": 62, "duration": 60, "velocity": 80}, {"time": 110798, "pitch": 52, "duration": 210, "velocity": 95}, {"time": 110798, "pitch": 69, "duration": 210, "velocity": 100}, {"time": 110808, "pitch": 59, "duration": 200, "velocity": 105}, {"time": 110818, "pitch": 62, "duration": 190, "velocity": 110}, {"time": 111038, "pitch": 52, "duration": 69, "velocity": 100}, {"time": 111038, "pitch": 59, "duration": 59, "velocity": 110}, {"time": 111038, "pitch": 62, "duration": 59, "velocity": 115}, {"time": 111038, "pitch": 69, "duration": 69, "velocity": 105}, {"time": 111117, "pitch": 52, "duration": 80, "velocity": 60}, {"time": 111117, "pitch": 59, "duration": 90, "velocity": 80}, {"time": 111117, "pitch": 62, "duration": 90, "velocity": 85}, {"time": 111117, "pitch": 69, "duration": 80, "velocity": 75}, {"time": 111277, "pitch": 59, "duration": 60, "velocity": 70}, {"time": 111277, "pitch": 62, "duration": 50, "velocity": 75}, {"time": 111277, "pitch": 69, "duration": 80, "velocity": 65}, {"time": 111357, "pitch": 52, "duration": 152, "velocity": 100}, {"time": 111357, "pitch": 69, "duration": 152, "velocity": 105}, {"time": 111367, "pitch": 59, "duration": 142, "velocity": 110}, {"time": 111367, "pitch": 62, "duration": 142, "velocity": 115}, {"time": 111519, "pitch": 52, "duration": 81, "velocity": 75}, {"time": 111519, "pitch": 59, "duration": 71, "velocity": 85}, {"time": 111519, "pitch": 69, "duration": 61, "velocity": 80}, {"time": 111600, "pitch": 52, "duration": 61, "velocity": 65}, {"time": 111600, "pitch": 59, "duration": 71, "velocity": 55}, {"time": 111600, "pitch": 62, "duration": 71, "velocity": 50}, {"time": 111600, "pitch": 69, "duration": 61, "velocity": 60}, {"time": 111762, "pitch": 52, "duration": 71, "velocity": 90}, {"time": 111762, "pitch": 59, "duration": 61, "velocity": 100}, {"time": 111762, "pitch": 62, "duration": 61, "velocity": 105}, {"time": 111762, "pitch": 69, "duration": 71, "velocity": 95}, {"time": 111843, "pitch": 52, "duration": 209, "velocity": 95}, {"time": 111843, "pitch": 69, "duration": 209, "velocity": 100}, {"time": 111853, "pitch": 60, "duration": 199, "velocity": 105}, {"time": 111863, "pitch": 64, "duration": 189, "velocity": 110}, {"time": 112072, "pitch": 64, "duration": 170, "velocity": 94}, {"time": 112082, "pitch": 60, "duration": 160, "velocity": 89}, {"time": 112092, "pitch": 69, "duration": 150, "velocity": 84}, {"time": 112102, "pitch": 52, "duration": 140, "velocity": 79}, {"time": 112322, "pitch": 52, "duration": 209, "velocity": 95}, {"time": 112322, "pitch": 69, "duration": 209, "velocity": 100}, {"time": 112332, "pitch": 60, "duration": 199, "velocity": 105}, {"time": 112342, "pitch": 64, "duration": 189, "velocity": 110}, {"time": 112561, "pitch": 52, "duration": 70, "velocity": 65}, {"time": 112561, "pitch": 69, "duration": 70, "velocity": 70}, {"time": 112571, "pitch": 60, "duration": 60, "velocity": 75}, {"time": 112571, "pitch": 64, "duration": 60, "velocity": 80}, {"time": 112721, "pitch": 52, "duration": 209, "velocity": 95}, {"time": 112721, "pitch": 69, "duration": 209, "velocity": 100}, {"time": 112730, "pitch": 60, "duration": 200, "velocity": 105}, {"time": 112740, "pitch": 64, "duration": 190, "velocity": 110}, {"time": 112960, "pitch": 52, "duration": 70, "velocity": 100}, {"time": 112960, "pitch": 60, "duration": 60, "velocity": 110}, {"time": 112960, "pitch": 64, "duration": 60, "velocity": 115}, {"time": 112960, "pitch": 69, "duration": 70, "velocity": 105}, {"time": 113040, "pitch": 52, "duration": 79, "velocity": 60}, {"time": 113040, "pitch": 60, "duration": 89, "velocity": 80}, {"time": 113040, "pitch": 64, "duration": 89, "velocity": 85}, {"time": 113040, "pitch": 69, "duration": 79, "velocity": 75}, {"time": 113199, "pitch": 60, "duration": 60, "velocity": 70}, {"time": 113199, "pitch": 64, "duration": 50, "velocity": 75}, {"time": 113199, "pitch": 69, "duration": 80, "velocity": 65}, {"time": 113279, "pitch": 52, "duration": 150, "velocity": 100}, {"time": 113279, "pitch": 69, "duration": 150, "velocity": 105}, {"time": 113289, "pitch": 60, "duration": 140, "velocity": 110}, {"time": 113289, "pitch": 64, "duration": 140, "velocity": 115}, {"time": 113439, "pitch": 52, "duration": 79, "velocity": 75}, {"time": 113439, "pitch": 60, "duration": 69, "velocity": 85}, {"time": 113439, "pitch": 69, "duration": 59, "velocity": 80}, {"time": 113518, "pitch": 52, "duration": 60, "velocity": 65}, {"time": 113518, "pitch": 60, "duration": 70, "velocity": 55}, {"time": 113518, "pitch": 64, "duration": 70, "velocity": 50}, {"time": 113518, "pitch": 69, "duration": 60, "velocity": 60}, {"time": 113678, "pitch": 52, "duration": 70, "velocity": 90}, {"time": 113678, "pitch": 60, "duration": 60, "velocity": 100}, {"time": 113678, "pitch": 64, "duration": 60, "velocity": 105}, {"time": 113678, "pitch": 69, "duration": 70, "velocity": 95}, {"time": 113758, "pitch": 50, "duration": 209, "velocity": 95}, {"time": 113758, "pitch": 69, "duration": 209, "velocity": 100}, {"time": 113768, "pitch": 60, "duration": 199, "velocity": 105}, {"time": 113778, "pitch": 64, "duration": 189, "velocity": 110}, {"time": 113987, "pitch": 64, "duration": 170, "velocity": 94}, {"time": 113997, "pitch": 60, "duration": 160, "velocity": 89}, {"time": 114007, "pitch": 69, "duration": 150, "velocity": 84}, {"time": 114017, "pitch": 50, "duration": 140, "velocity": 79}, {"time": 114236, "pitch": 50, "duration": 213, "velocity": 95}, {"time": 114236, "pitch": 69, "duration": 213, "velocity": 100}, {"time": 114246, "pitch": 60, "duration": 203, "velocity": 105}, {"time": 114257, "pitch": 64, "duration": 192, "velocity": 110}, {"time": 114479, "pitch": 50, "duration": 71, "velocity": 65}, {"time": 114479, "pitch": 69, "duration": 71, "velocity": 70}, {"time": 114490, "pitch": 60, "duration": 60, "velocity": 75}, {"time": 114490, "pitch": 64, "duration": 60, "velocity": 80}, {"time": 114642, "pitch": 50, "duration": 210, "velocity": 95}, {"time": 114642, "pitch": 69, "duration": 210, "velocity": 100}, {"time": 114652, "pitch": 60, "duration": 200, "velocity": 105}, {"time": 114662, "pitch": 64, "duration": 190, "velocity": 110}, {"time": 114882, "pitch": 50, "duration": 70, "velocity": 100}, {"time": 114882, "pitch": 60, "duration": 60, "velocity": 110}, {"time": 114882, "pitch": 64, "duration": 60, "velocity": 115}, {"time": 114882, "pitch": 69, "duration": 70, "velocity": 105}, {"time": 114962, "pitch": 50, "duration": 80, "velocity": 60}, {"time": 114962, "pitch": 60, "duration": 90, "velocity": 80}, {"time": 114962, "pitch": 64, "duration": 90, "velocity": 85}, {"time": 114962, "pitch": 69, "duration": 80, "velocity": 75}, {"time": 115121, "pitch": 60, "duration": 60, "velocity": 70}, {"time": 115121, "pitch": 64, "duration": 50, "velocity": 75}, {"time": 115121, "pitch": 69, "duration": 80, "velocity": 65}, {"time": 115201, "pitch": 50, "duration": 150, "velocity": 100}, {"time": 115201, "pitch": 69, "duration": 150, "velocity": 105}, {"time": 115211, "pitch": 60, "duration": 140, "velocity": 110}, {"time": 115211, "pitch": 64, "duration": 140, "velocity": 115}, {"time": 115361, "pitch": 50, "duration": 80, "velocity": 75}, {"time": 115361, "pitch": 60, "duration": 70, "velocity": 85}, {"time": 115361, "pitch": 69, "duration": 60, "velocity": 80}, {"time": 115441, "pitch": 50, "duration": 59, "velocity": 65}, {"time": 115441, "pitch": 60, "duration": 69, "velocity": 55}, {"time": 115441, "pitch": 64, "duration": 69, "velocity": 50}, {"time": 115441, "pitch": 69, "duration": 59, "velocity": 60}, {"time": 115600, "pitch": 50, "duration": 70, "velocity": 90}, {"time": 115600, "pitch": 60, "duration": 60, "velocity": 100}, {"time": 115600, "pitch": 64, "duration": 60, "velocity": 105}, {"time": 115600, "pitch": 69, "duration": 70, "velocity": 95}, {"time": 115680, "pitch": 50, "duration": 209, "velocity": 95}, {"time": 115680, "pitch": 69, "duration": 209, "velocity": 100}, {"time": 115690, "pitch": 59, "duration": 199, "velocity": 105}, {"time": 115700, "pitch": 62, "duration": 189, "velocity": 110}, {"time": 115909, "pitch": 62, "duration": 170, "velocity": 94}, {"time": 115919, "pitch": 59, "duration": 160, "velocity": 89}, {"time": 115929, "pitch": 69, "duration": 150, "velocity": 84}, {"time": 115939, "pitch": 50, "duration": 140, "velocity": 79}, {"time": 116159, "pitch": 50, "duration": 209, "velocity": 95}, {"time": 116159, "pitch": 69, "duration": 209, "velocity": 100}, {"time": 116169, "pitch": 59, "duration": 199, "velocity": 105}, {"time": 116178, "pitch": 62, "duration": 190, "velocity": 110}, {"time": 116398, "pitch": 50, "duration": 70, "velocity": 65}, {"time": 116398, "pitch": 69, "duration": 70, "velocity": 70}, {"time": 116408, "pitch": 59, "duration": 60, "velocity": 75}, {"time": 116408, "pitch": 62, "duration": 60, "velocity": 80}, {"time": 116557, "pitch": 50, "duration": 212, "velocity": 95}, {"time": 116557, "pitch": 69, "duration": 212, "velocity": 100}, {"time": 116567, "pitch": 59, "duration": 202, "velocity": 105}, {"time": 116577, "pitch": 62, "duration": 192, "velocity": 110}, {"time": 116799, "pitch": 50, "duration": 71, "velocity": 100}, {"time": 116799, "pitch": 59, "duration": 61, "velocity": 110}, {"time": 116799, "pitch": 62, "duration": 61, "velocity": 115}, {"time": 116799, "pitch": 69, "duration": 71, "velocity": 105}, {"time": 116880, "pitch": 50, "duration": 81, "velocity": 60}, {"time": 116880, "pitch": 59, "duration": 91, "velocity": 80}, {"time": 116880, "pitch": 62, "duration": 91, "velocity": 85}, {"time": 116880, "pitch": 69, "duration": 81, "velocity": 75}, {"time": 117042, "pitch": 59, "duration": 61, "velocity": 70}, {"time": 117042, "pitch": 62, "duration": 51, "velocity": 75}, {"time": 117042, "pitch": 69, "duration": 81, "velocity": 65}, {"time": 117123, "pitch": 50, "duration": 150, "velocity": 100}, {"time": 117123, "pitch": 69, "duration": 150, "velocity": 105}, {"time": 117133, "pitch": 59, "duration": 140, "velocity": 110}, {"time": 117133, "pitch": 62, "duration": 140, "velocity": 115}, {"time": 117283, "pitch": 50, "duration": 80, "velocity": 75}, {"time": 117283, "pitch": 59, "duration": 70, "velocity": 85}, {"time": 117283, "pitch": 69, "duration": 60, "velocity": 80}, {"time": 117363, "pitch": 50, "duration": 60, "velocity": 65}, {"time": 117363, "pitch": 59, "duration": 70, "velocity": 55}, {"time": 117363, "pitch": 62, "duration": 70, "velocity": 50}, {"time": 117363, "pitch": 69, "duration": 60, "velocity": 60}, {"time": 117522, "pitch": 50, "duration": 70, "velocity": 90}, {"time": 117522, "pitch": 59, "duration": 60, "velocity": 100}, {"time": 117522, "pitch": 62, "duration": 60, "velocity": 105}, {"time": 117522, "pitch": 69, "duration": 70, "velocity": 95}, {"time": 117602, "pitch": 52, "duration": 210, "velocity": 95}, {"time": 117602, "pitch": 69, "duration": 210, "velocity": 100}, {"time": 117612, "pitch": 60, "duration": 200, "velocity": 105}, {"time": 117622, "pitch": 64, "duration": 190, "velocity": 110}, {"time": 117831, "pitch": 64, "duration": 170, "velocity": 94}, {"time": 117841, "pitch": 60, "duration": 160, "velocity": 89}, {"time": 117851, "pitch": 69, "duration": 150, "velocity": 84}, {"time": 117861, "pitch": 52, "duration": 140, "velocity": 79}, {"time": 118081, "pitch": 52, "duration": 209, "velocity": 95}, {"time": 118081, "pitch": 69, "duration": 209, "velocity": 100}, {"time": 118091, "pitch": 60, "duration": 199, "velocity": 105}, {"time": 118101, "pitch": 64, "duration": 189, "velocity": 110}, {"time": 118320, "pitch": 52, "duration": 70, "velocity": 65}, {"time": 118320, "pitch": 69, "duration": 70, "velocity": 70}, {"time": 118330, "pitch": 60, "duration": 60, "velocity": 75}, {"time": 118330, "pitch": 64, "duration": 60, "velocity": 80}, {"time": 118480, "pitch": 52, "duration": 209, "velocity": 95}, {"time": 118480, "pitch": 69, "duration": 209, "velocity": 100}, {"time": 118490, "pitch": 60, "duration": 199, "velocity": 105}, {"time": 118500, "pitch": 64, "duration": 189, "velocity": 110}, {"time": 118719, "pitch": 52, "duration": 70, "velocity": 100}, {"time": 118719, "pitch": 60, "duration": 60, "velocity": 110}, {"time": 118719, "pitch": 64, "duration": 60, "velocity": 115}, {"time": 118719, "pitch": 69, "duration": 70, "velocity": 105}, {"time": 118799, "pitch": 52, "duration": 80, "velocity": 60}, {"time": 118799, "pitch": 60, "duration": 90, "velocity": 80}, {"time": 118799, "pitch": 64, "duration": 90, "velocity": 85}, {"time": 118799, "pitch": 69, "duration": 80, "velocity": 75}, {"time": 118958, "pitch": 60, "duration": 60, "velocity": 70}, {"time": 118958, "pitch": 64, "duration": 50, "velocity": 75}, {"time": 118958, "pitch": 69, "duration": 80, "velocity": 65}, {"time": 119038, "pitch": 52, "duration": 150, "velocity": 100}, {"time": 119038, "pitch": 69, "duration": 150, "velocity": 105}, {"time": 119048, "pitch": 60, "duration": 140, "velocity": 110}, {"time": 119048, "pitch": 64, "duration": 140, "velocity": 115}, {"time": 119198, "pitch": 52, "duration": 79, "velocity": 75}, {"time": 119198, "pitch": 60, "duration": 69, "velocity": 85}, {"time": 119198, "pitch": 69, "duration": 60, "velocity": 80}, {"time": 119277, "pitch": 52, "duration": 60, "velocity": 65}, {"time": 119277, "pitch": 60, "duration": 70, "velocity": 55}, {"time": 119277, "pitch": 64, "duration": 70, "velocity": 50}, {"time": 119277, "pitch": 69, "duration": 60, "velocity": 60}, {"time": 119437, "pitch": 52, "duration": 70, "velocity": 90}, {"time": 119437, "pitch": 60, "duration": 60, "velocity": 100}, {"time": 119437, "pitch": 64, "duration": 60, "velocity": 105}, {"time": 119437, "pitch": 69, "duration": 70, "velocity": 95}, {"time": 121439, "pitch": 52, "duration": 209, "velocity": 95}, {"time": 121439, "pitch": 69, "duration": 209, "velocity": 100}, {"time": 121449, "pitch": 60, "duration": 199, "velocity": 105}, {"time": 121459, "pitch": 64, "duration": 189, "velocity": 110}, {"time": 121668, "pitch": 64, "duration": 170, "velocity": 94}, {"time": 121678, "pitch": 60, "duration": 160, "velocity": 89}, {"time": 121688, "pitch": 69, "duration": 150, "velocity": 84}, {"time": 121698, "pitch": 52, "duration": 140, "velocity": 79}, {"time": 121918, "pitch": 52, "duration": 209, "velocity": 95}, {"time": 121918, "pitch": 69, "duration": 209, "velocity": 100}, {"time": 121928, "pitch": 60, "duration": 199, "velocity": 105}, {"time": 121938, "pitch": 64, "duration": 189, "velocity": 110}, {"time": 122157, "pitch": 52, "duration": 70, "velocity": 65}, {"time": 122157, "pitch": 69, "duration": 70, "velocity": 70}, {"time": 122167, "pitch": 60, "duration": 60, "velocity": 75}, {"time": 122167, "pitch": 64, "duration": 60, "velocity": 80}, {"time": 122317, "pitch": 52, "duration": 211, "velocity": 95}, {"time": 122317, "pitch": 69, "duration": 211, "velocity": 100}, {"time": 122327, "pitch": 60, "duration": 201, "velocity": 105}, {"time": 122337, "pitch": 64, "duration": 191, "velocity": 110}, {"time": 122558, "pitch": 52, "duration": 71, "velocity": 100}, {"time": 122558, "pitch": 60, "duration": 61, "velocity": 110}, {"time": 122558, "pitch": 64, "duration": 61, "velocity": 115}, {"time": 122558, "pitch": 69, "duration": 71, "velocity": 105}, {"time": 122639, "pitch": 52, "duration": 81, "velocity": 60}, {"time": 122639, "pitch": 60, "duration": 92, "velocity": 80}, {"time": 122639, "pitch": 64, "duration": 92, "velocity": 85}, {"time": 122639, "pitch": 69, "duration": 81, "velocity": 75}, {"time": 122802, "pitch": 60, "duration": 60, "velocity": 70}, {"time": 122802, "pitch": 64, "duration": 50, "velocity": 75}, {"time": 122802, "pitch": 69, "duration": 81, "velocity": 65}, {"time": 122883, "pitch": 52, "duration": 149, "velocity": 100}, {"time": 122883, "pitch": 69, "duration": 149, "velocity": 105}, {"time": 122893, "pitch": 60, "duration": 139, "velocity": 110}, {"time": 122893, "pitch": 64, "duration": 139, "velocity": 115}, {"time": 123042, "pitch": 52, "duration": 80, "velocity": 75}, {"time": 123042, "pitch": 60, "duration": 70, "velocity": 85}, {"time": 123042, "pitch": 69, "duration": 60, "velocity": 80}, {"time": 123122, "pitch": 52, "duration": 60, "velocity": 65}, {"time": 123122, "pitch": 60, "duration": 70, "velocity": 55}, {"time": 123122, "pitch": 64, "duration": 70, "velocity": 50}, {"time": 123122, "pitch": 69, "duration": 60, "velocity": 60}, {"time": 123281, "pitch": 52, "duration": 70, "velocity": 90}, {"time": 123281, "pitch": 60, "duration": 60, "velocity": 100}, {"time": 123281, "pitch": 64, "duration": 60, "velocity": 105}, {"time": 123281, "pitch": 69, "duration": 70, "velocity": 95}, {"time": 123361, "pitch": 52, "duration": 210, "velocity": 95}, {"time": 123361, "pitch": 67, "duration": 210, "velocity": 100}, {"time": 123371, "pitch": 60, "duration": 200, "velocity": 105}, {"time": 123381, "pitch": 64, "duration": 190, "velocity": 110}, {"time": 123591, "pitch": 64, "duration": 169, "velocity": 94}, {"time": 123601, "pitch": 60, "duration": 159, "velocity": 89}, {"time": 123611, "pitch": 67, "duration": 149, "velocity": 84}, {"time": 123620, "pitch": 52, "duration": 140, "velocity": 79}, {"time": 123840, "pitch": 52, "duration": 209, "velocity": 95}, {"time": 123840, "pitch": 67, "duration": 209, "velocity": 100}, {"time": 123850, "pitch": 60, "duration": 199, "velocity": 105}, {"time": 123860, "pitch": 64, "duration": 189, "velocity": 110}, {"time": 124079, "pitch": 52, "duration": 70, "velocity": 65}, {"time": 124079, "pitch": 67, "duration": 70, "velocity": 70}, {"time": 124089, "pitch": 60, "duration": 60, "velocity": 75}, {"time": 124089, "pitch": 64, "duration": 60, "velocity": 80}, {"time": 124239, "pitch": 52, "duration": 209, "velocity": 95}, {"time": 124239, "pitch": 67, "duration": 209, "velocity": 100}, {"time": 124249, "pitch": 60, "duration": 199, "velocity": 105}, {"time": 124259, "pitch": 64, "duration": 189, "velocity": 110}, {"time": 124478, "pitch": 52, "duration": 70, "velocity": 100}, {"time": 124478, "pitch": 60, "duration": 60, "velocity": 110}, {"time": 124478, "pitch": 64, "duration": 60, "velocity": 115}, {"time": 124478, "pitch": 67, "duration": 70, "velocity": 105}, {"time": 124558, "pitch": 52, "duration": 80, "velocity": 60}, {"time": 124558, "pitch": 60, "duration": 90, "velocity": 80}, {"time": 124558, "pitch": 64, "duration": 90, "velocity": 85}, {"time": 124558, "pitch": 67, "duration": 80, "velocity": 75}, {"time": 124717, "pitch": 60, "duration": 60, "velocity": 70}, {"time": 124717, "pitch": 64, "duration": 50, "velocity": 75}, {"time": 124717, "pitch": 67, "duration": 80, "velocity": 65}, {"time": 124797, "pitch": 52, "duration": 152, "velocity": 100}, {"time": 124797, "pitch": 67, "duration": 152, "velocity": 105}, {"time": 124807, "pitch": 60, "duration": 142, "velocity": 110}, {"time": 124807, "pitch": 64, "duration": 142, "velocity": 115}, {"time": 124959, "pitch": 52, "duration": 81, "velocity": 75}, {"time": 124959, "pitch": 60, "duration": 71, "velocity": 85}, {"time": 124959, "pitch": 67, "duration": 61, "velocity": 80}, {"time": 125040, "pitch": 52, "duration": 61, "velocity": 65}, {"time": 125040, "pitch": 60, "duration": 71, "velocity": 55}, {"time": 125040, "pitch": 64, "duration": 71, "velocity": 50}, {"time": 125040, "pitch": 67, "duration": 61, "velocity": 60}, {"time": 125202, "pitch": 52, "duration": 71, "velocity": 90}, {"time": 125202, "pitch": 60, "duration": 61, "velocity": 100}, {"time": 125202, "pitch": 64, "duration": 61, "velocity": 105}, {"time": 125202, "pitch": 67, "duration": 71, "velocity": 95}, {"time": 125283, "pitch": 50, "duration": 210, "velocity": 95}, {"time": 125283, "pitch": 57, "duration": 210, "velocity": 100}, {"time": 125293, "pitch": 60, "duration": 200, "velocity": 105}, {"time": 125303, "pitch": 65, "duration": 190, "velocity": 110}, {"time": 125513, "pitch": 65, "duration": 169, "velocity": 94}, {"time": 125523, "pitch": 60, "duration": 159, "velocity": 89}, {"time": 125533, "pitch": 57, "duration": 149, "velocity": 84}, {"time": 125543, "pitch": 50, "duration": 139, "velocity": 79}, {"time": 125762, "pitch": 50, "duration": 210, "velocity": 95}, {"time": 125762, "pitch": 57, "duration": 210, "velocity": 100}, {"time": 125772, "pitch": 60, "duration": 200, "velocity": 105}, {"time": 125782, "pitch": 65, "duration": 190, "velocity": 110}, {"time": 126001, "pitch": 50, "duration": 70, "velocity": 65}, {"time": 126001, "pitch": 57, "duration": 70, "velocity": 70}, {"time": 126011, "pitch": 60, "duration": 60, "velocity": 75}, {"time": 126011, "pitch": 65, "duration": 60, "velocity": 80}, {"time": 126161, "pitch": 50, "duration": 209, "velocity": 95}, {"time": 126161, "pitch": 57, "duration": 209, "velocity": 100}, {"time": 126171, "pitch": 60, "duration": 199, "velocity": 105}, {"time": 126181, "pitch": 65, "duration": 189, "velocity": 110}, {"time": 126400, "pitch": 50, "duration": 70, "velocity": 100}, {"time": 126400, "pitch": 57, "duration": 70, "velocity": 105}, {"time": 126400, "pitch": 60, "duration": 60, "velocity": 110}, {"time": 126400, "pitch": 65, "duration": 60, "velocity": 115}, {"time": 126480, "pitch": 50, "duration": 80, "velocity": 60}, {"time": 126480, "pitch": 57, "duration": 80, "velocity": 75}, {"time": 126480, "pitch": 60, "duration": 90, "velocity": 80}, {"time": 126480, "pitch": 65, "duration": 90, "velocity": 85}, {"time": 126640, "pitch": 57, "duration": 79, "velocity": 65}, {"time": 126640, "pitch": 60, "duration": 60, "velocity": 70}, {"time": 126640, "pitch": 65, "duration": 50, "velocity": 75}, {"time": 126719, "pitch": 50, "duration": 150, "velocity": 100}, {"time": 126719, "pitch": 57, "duration": 150, "velocity": 105}, {"time": 126729, "pitch": 60, "duration": 140, "velocity": 110}, {"time": 126729, "pitch": 65, "duration": 140, "velocity": 115}, {"time": 126879, "pitch": 50, "duration": 80, "velocity": 75}, {"time": 126879, "pitch": 57, "duration": 60, "velocity": 80}, {"time": 126879, "pitch": 60, "duration": 70, "velocity": 85}, {"time": 126959, "pitch": 50, "duration": 60, "velocity": 65}, {"time": 126959, "pitch": 57, "duration": 60, "velocity": 60}, {"time": 126959, "pitch": 60, "duration": 70, "velocity": 55}, {"time": 126959, "pitch": 65, "duration": 70, "velocity": 50}, {"time": 127118, "pitch": 50, "duration": 70, "velocity": 90}, {"time": 127118, "pitch": 57, "duration": 70, "velocity": 95}, {"time": 127118, "pitch": 60, "duration": 60, "velocity": 100}, {"time": 127118, "pitch": 65, "duration": 60, "velocity": 105}, {"time": 127198, "pitch": 52, "duration": 210, "velocity": 95}, {"time": 127198, "pitch": 56, "duration": 210, "velocity": 100}, {"time": 127208, "pitch": 60, "duration": 200, "velocity": 105}, {"time": 127218, "pitch": 64, "duration": 190, "velocity": 110}, {"time": 127428, "pitch": 64, "duration": 169, "velocity": 94}, {"time": 127437, "pitch": 60, "duration": 160, "velocity": 89}, {"time": 127447, "pitch": 56, "duration": 150, "velocity": 84}, {"time": 127457, "pitch": 52, "duration": 140, "velocity": 79}, {"time": 127677, "pitch": 52, "duration": 213, "velocity": 95}, {"time": 127677, "pitch": 56, "duration": 213, "velocity": 100}, {"time": 127687, "pitch": 60, "duration": 203, "velocity": 105}, {"time": 127697, "pitch": 64, "duration": 193, "velocity": 110}, {"time": 127920, "pitch": 52, "duration": 71, "velocity": 65}, {"time": 127920, "pitch": 56, "duration": 71, "velocity": 70}, {"time": 127930, "pitch": 60, "duration": 61, "velocity": 75}, {"time": 127930, "pitch": 64, "duration": 61, "velocity": 80}, {"time": 128082, "pitch": 52, "duration": 211, "velocity": 95}, {"time": 128082, "pitch": 56, "duration": 211, "velocity": 100}, {"time": 128092, "pitch": 60, "duration": 201, "velocity": 105}, {"time": 128102, "pitch": 64, "duration": 191, "velocity": 110}, {"time": 128323, "pitch": 52, "duration": 69, "velocity": 100}, {"time": 128323, "pitch": 56, "duration": 69, "velocity": 105}, {"time": 128323, "pitch": 60, "duration": 59, "velocity": 110}, {"time": 128323, "pitch": 64, "duration": 59, "velocity": 115}, {"time": 128402, "pitch": 52, "duration": 80, "velocity": 60}, {"time": 128402, "pitch": 56, "duration": 80, "velocity": 75}, {"time": 128402, "pitch": 60, "duration": 90, "velocity": 80}, {"time": 128402, "pitch": 64, "duration": 90, "velocity": 85}, {"time": 128562, "pitch": 56, "duration": 80, "velocity": 65}, {"time": 128562, "pitch": 60, "duration": 60, "velocity": 70}, {"time": 128562, "pitch": 64, "duration": 50, "velocity": 75}, {"time": 128642, "pitch": 52, "duration": 149, "velocity": 100}, {"time": 128642, "pitch": 56, "duration": 149, "velocity": 105}, {"time": 128652, "pitch": 60, "duration": 139, "velocity": 110}, {"time": 128652, "pitch": 64, "duration": 139, "velocity": 115}, {"time": 128801, "pitch": 52, "duration": 80, "velocity": 75}, {"time": 128801, "pitch": 56, "duration": 60, "velocity": 80}, {"time": 128801, "pitch": 60, "duration": 70, "velocity": 85}, {"time": 128881, "pitch": 52, "duration": 60, "velocity": 65}, {"time": 128881, "pitch": 56, "duration": 60, "velocity": 60}, {"time": 128881, "pitch": 60, "duration": 70, "velocity": 55}, {"time": 128881, "pitch": 64, "duration": 70, "velocity": 50}, {"time": 129041, "pitch": 52, "duration": 69, "velocity": 90}, {"time": 129041, "pitch": 56, "duration": 69, "velocity": 95}, {"time": 129041, "pitch": 60, "duration": 59, "velocity": 100}, {"time": 129041, "pitch": 64, "duration": 59, "velocity": 105}, {"time": 129120, "pitch": 52, "duration": 210, "velocity": 95}, {"time": 129120, "pitch": 69, "duration": 210, "velocity": 100}, {"time": 129130, "pitch": 60, "duration": 200, "velocity": 105}, {"time": 129140, "pitch": 64, "duration": 190, "velocity": 110}, {"time": 129350, "pitch": 64, "duration": 169, "velocity": 94}, {"time": 129360, "pitch": 60, "duration": 159, "velocity": 89}, {"time": 129370, "pitch": 69, "duration": 149, "velocity": 84}, {"time": 129380, "pitch": 52, "duration": 139, "velocity": 79}, {"time": 129599, "pitch": 52, "duration": 209, "velocity": 95}, {"time": 129599, "pitch": 69, "duration": 209, "velocity": 100}, {"time": 129609, "pitch": 60, "duration": 199, "velocity": 105}, {"time": 129619, "pitch": 64, "duration": 189, "velocity": 110}, {"time": 129838, "pitch": 52, "duration": 70, "velocity": 65}, {"time": 129838, "pitch": 69, "duration": 70, "velocity": 70}, {"time": 129848, "pitch": 60, "duration": 60, "velocity": 75}, {"time": 129848, "pitch": 64, "duration": 60, "velocity": 80}, {"time": 129998, "pitch": 52, "duration": 209, "velocity": 95}, {"time": 129998, "pitch": 69, "duration": 209, "velocity": 100}, {"time": 130008, "pitch": 60, "duration": 199, "velocity": 105}, {"time": 130018, "pitch": 64, "duration": 189, "velocity": 110}, {"time": 130237, "pitch": 52, "duration": 70, "velocity": 100}, {"time": 130237, "pitch": 60, "duration": 60, "velocity": 110}, {"time": 130237, "pitch": 64, "duration": 60, "velocity": 115}, {"time": 130237, "pitch": 69, "duration": 70, "velocity": 105}, {"time": 130317, "pitch": 52, "duration": 80, "velocity": 60}, {"time": 130317, "pitch": 60, "duration": 90, "velocity": 80}, {"time": 130317, "pitch": 64, "duration": 90, "velocity": 85}, {"time": 130317, "pitch": 69, "duration": 80, "velocity": 75}, {"time": 130477, "pitch": 60, "duration": 59, "velocity": 70}, {"time": 130477, "pitch": 64, "duration": 49, "velocity": 75}, {"time": 130477, "pitch": 69, "duration": 79, "velocity": 65}, {"time": 130556, "pitch": 52, "duration": 152, "velocity": 100}, {"time": 130556, "pitch": 69, "duration": 152, "velocity": 105}, {"time": 130566, "pitch": 60, "duration": 142, "velocity": 110}, {"time": 130566, "pitch": 64, "duration": 142, "velocity": 115}, {"time": 130718, "pitch": 52, "duration": 81, "velocity": 75}, {"time": 130718, "pitch": 60, "duration": 71, "velocity": 85}, {"time": 130718, "pitch": 69, "duration": 61, "velocity": 80}, {"time": 130799, "pitch": 52, "duration": 61, "velocity": 65}, {"time": 130799, "pitch": 60, "duration": 71, "velocity": 55}, {"time": 130799, "pitch": 64, "duration": 71, "velocity": 50}, {"time": 130799, "pitch": 69, "duration": 61, "velocity": 60}, {"time": 130962, "pitch": 52, "duration": 70, "velocity": 90}, {"time": 130962, "pitch": 60, "duration": 60, "velocity": 100}, {"time": 130962, "pitch": 64, "duration": 60, "velocity": 105}, {"time": 130962, "pitch": 69, "duration": 70, "velocity": 95}, {"time": 131043, "pitch": 52, "duration": 209, "velocity": 95}, {"time": 131043, "pitch": 67, "duration": 209, "velocity": 100}, {"time": 131053, "pitch": 60, "duration": 199, "velocity": 105}, {"time": 131063, "pitch": 64, "duration": 189, "velocity": 110}, {"time": 131272, "pitch": 64, "duration": 169, "velocity": 94}, {"time": 131282, "pitch": 60, "duration": 159, "velocity": 89}, {"time": 131292, "pitch": 67, "duration": 149, "velocity": 84}, {"time": 131302, "pitch": 52, "duration": 139, "velocity": 79}, {"time": 131521, "pitch": 52, "duration": 210, "velocity": 95}, {"time": 131521, "pitch": 67, "duration": 210, "velocity": 100}, {"time": 131531, "pitch": 60, "duration": 200, "velocity": 105}, {"time": 131541, "pitch": 64, "duration": 190, "velocity": 110}, {"time": 131761, "pitch": 52, "duration": 69, "velocity": 65}, {"time": 131761, "pitch": 67, "duration": 69, "velocity": 70}, {"time": 131771, "pitch": 60, "duration": 59, "velocity": 75}, {"time": 131771, "pitch": 64, "duration": 59, "velocity": 80}, {"time": 131920, "pitch": 52, "duration": 210, "velocity": 95}, {"time": 131920, "pitch": 67, "duration": 210, "velocity": 100}, {"time": 131930, "pitch": 60, "duration": 200, "velocity": 105}, {"time": 131940, "pitch": 64, "duration": 190, "velocity": 110}, {"time": 132159, "pitch": 52, "duration": 70, "velocity": 100}, {"time": 132159, "pitch": 60, "duration": 60, "velocity": 110}, {"time": 132159, "pitch": 64, "duration": 60, "velocity": 115}, {"time": 132159, "pitch": 67, "duration": 70, "velocity": 105}, {"time": 132239, "pitch": 52, "duration": 80, "velocity": 60}, {"time": 132239, "pitch": 60, "duration": 90, "velocity": 80}, {"time": 132239, "pitch": 64, "duration": 90, "velocity": 85}, {"time": 132239, "pitch": 67, "duration": 80, "velocity": 75}, {"time": 132399, "pitch": 60, "duration": 60, "velocity": 70}, {"time": 132399, "pitch": 64, "duration": 50, "velocity": 75}, {"time": 132399, "pitch": 67, "duration": 80, "velocity": 65}, {"time": 132479, "pitch": 52, "duration": 149, "velocity": 100}, {"time": 132479, "pitch": 67, "duration": 149, "velocity": 105}, {"time": 132489, "pitch": 60, "duration": 139, "velocity": 110}, {"time": 132489, "pitch": 64, "duration": 139, "velocity": 115}, {"time": 132638, "pitch": 52, "duration": 80, "velocity": 75}, {"time": 132638, "pitch": 60, "duration": 70, "velocity": 85}, {"time": 132638, "pitch": 67, "duration": 60, "velocity": 80}, {"time": 132718, "pitch": 52, "duration": 60, "velocity": 65}, {"time": 132718, "pitch": 60, "duration": 70, "velocity": 55}, {"time": 132718, "pitch": 64, "duration": 70, "velocity": 50}, {"time": 132718, "pitch": 67, "duration": 60, "velocity": 60}, {"time": 132877, "pitch": 52, "duration": 70, "velocity": 90}, {"time": 132877, "pitch": 60, "duration": 60, "velocity": 100}, {"time": 132877, "pitch": 64, "duration": 60, "velocity": 105}, {"time": 132877, "pitch": 67, "duration": 70, "velocity": 95}, {"time": 132957, "pitch": 50, "duration": 213, "velocity": 95}, {"time": 132957, "pitch": 57, "duration": 213, "velocity": 100}, {"time": 132967, "pitch": 60, "duration": 203, "velocity": 105}, {"time": 132977, "pitch": 65, "duration": 193, "velocity": 110}, {"time": 133190, "pitch": 65, "duration": 172, "velocity": 94}, {"time": 133200, "pitch": 60, "duration": 162, "velocity": 89}, {"time": 133210, "pitch": 57, "duration": 152, "velocity": 84}, {"time": 133221, "pitch": 50, "duration": 141, "velocity": 79}, {"time": 133443, "pitch": 50, "duration": 210, "velocity": 95}, {"time": 133443, "pitch": 57, "duration": 210, "velocity": 100}, {"time": 133453, "pitch": 60, "duration": 200, "velocity": 105}, {"time": 133463, "pitch": 65, "duration": 190, "velocity": 110}, {"time": 133683, "pitch": 50, "duration": 70, "velocity": 65}, {"time": 133683, "pitch": 57, "duration": 70, "velocity": 70}, {"time": 133693, "pitch": 60, "duration": 60, "velocity": 75}, {"time": 133693, "pitch": 65, "duration": 60, "velocity": 80}, {"time": 133842, "pitch": 50, "duration": 210, "velocity": 95}, {"time": 133842, "pitch": 57, "duration": 210, "velocity": 100}, {"time": 133852, "pitch": 60, "duration": 200, "velocity": 105}, {"time": 133862, "pitch": 65, "duration": 190, "velocity": 110}, {"time": 134082, "pitch": 50, "duration": 69, "velocity": 100}, {"time": 134082, "pitch": 57, "duration": 69, "velocity": 105}, {"time": 134082, "pitch": 60, "duration": 60, "velocity": 110}, {"time": 134082, "pitch": 65, "duration": 60, "velocity": 115}, {"time": 134161, "pitch": 50, "duration": 80, "velocity": 60}, {"time": 134161, "pitch": 57, "duration": 80, "velocity": 75}, {"time": 134161, "pitch": 60, "duration": 90, "velocity": 80}, {"time": 134161, "pitch": 65, "duration": 90, "velocity": 85}, {"time": 134321, "pitch": 57, "duration": 80, "velocity": 65}, {"time": 134321, "pitch": 60, "duration": 60, "velocity": 70}, {"time": 134321, "pitch": 65, "duration": 50, "velocity": 75}, {"time": 134401, "pitch": 50, "duration": 149, "velocity": 100}, {"time": 134401, "pitch": 57, "duration": 149, "velocity": 105}, {"time": 134411, "pitch": 60, "duration": 139, "velocity": 110}, {"time": 134411, "pitch": 65, "duration": 139, "velocity": 115}, {"time": 134560, "pitch": 50, "duration": 80, "velocity": 75}, {"time": 134560, "pitch": 57, "duration": 60, "velocity": 80}, {"time": 134560, "pitch": 60, "duration": 70, "velocity": 85}, {"time": 134640, "pitch": 50, "duration": 60, "velocity": 65}, {"time": 134640, "pitch": 57, "duration": 60, "velocity": 60}, {"time": 134640, "pitch": 60, "duration": 70, "velocity": 55}, {"time": 134640, "pitch": 65, "duration": 70, "velocity": 50}, {"time": 134800, "pitch": 50, "duration": 70, "velocity": 90}, {"time": 134800, "pitch": 57, "duration": 70, "velocity": 95}, {"time": 134800, "pitch": 60, "duration": 60, "velocity": 100}, {"time": 134800, "pitch": 65, "duration": 60, "velocity": 105}, {"time": 134879, "pitch": 52, "duration": 210, "velocity": 95}, {"time": 134879, "pitch": 56, "duration": 210, "velocity": 100}, {"time": 134889, "pitch": 60, "duration": 200, "velocity": 105}, {"time": 134899, "pitch": 64, "duration": 190, "velocity": 110}, {"time": 135119, "pitch": 52, "duration": 209, "velocity": 95}, {"time": 135119, "pitch": 56, "duration": 209, "velocity": 100}, {"time": 135129, "pitch": 60, "duration": 199, "velocity": 105}, {"time": 135139, "pitch": 64, "duration": 189, "velocity": 110}, {"time": 135597, "pitch": 52, "duration": 210, "velocity": 95}, {"time": 135597, "pitch": 56, "duration": 210, "velocity": 100}, {"time": 135607, "pitch": 60, "duration": 200, "velocity": 105}, {"time": 135617, "pitch": 64, "duration": 190, "velocity": 110}, {"time": 136080, "pitch": 52, "duration": 482, "velocity": 95}, {"time": 136080, "pitch": 56, "duration": 482, "velocity": 100}, {"time": 136090, "pitch": 59, "duration": 482, "velocity": 105}, {"time": 136100, "pitch": 62, "duration": 482, "velocity": 110}, {"time": 136802, "pitch": 52, "duration": 209, "velocity": 95}, {"time": 136802, "pitch": 69, "duration": 209, "velocity": 100}, {"time": 136812, "pitch": 60, "duration": 199, "velocity": 105}, {"time": 136822, "pitch": 64, "duration": 189, "velocity": 110}, {"time": 137031, "pitch": 64, "duration": 170, "velocity": 94}, {"time": 137041, "pitch": 60, "duration": 160, "velocity": 89}, {"time": 137051, "pitch": 69, "duration": 150, "velocity": 84}, {"time": 137061, "pitch": 52, "duration": 140, "velocity": 79}, {"time": 137280, "pitch": 52, "duration": 210, "velocity": 95}, {"time": 137280, "pitch": 69, "duration": 210, "velocity": 100}, {"time": 137290, "pitch": 60, "duration": 200, "velocity": 105}, {"time": 137300, "pitch": 64, "duration": 190, "velocity": 110}, {"time": 137520, "pitch": 52, "duration": 70, "velocity": 65}, {"time": 137520, "pitch": 69, "duration": 70, "velocity": 70}, {"time": 137530, "pitch": 60, "duration": 60, "velocity": 75}, {"time": 137530, "pitch": 64, "duration": 60, "velocity": 80}, {"time": 137679, "pitch": 52, "duration": 210, "velocity": 95}, {"time": 137679, "pitch": 69, "duration": 210, "velocity": 100}, {"time": 137689, "pitch": 60, "duration": 200, "velocity": 105}, {"time": 137699, "pitch": 64, "duration": 190, "velocity": 110}, {"time": 137919, "pitch": 52, "duration": 69, "velocity": 100}, {"time": 137919, "pitch": 60, "duration": 59, "velocity": 110}, {"time": 137919, "pitch": 64, "duration": 59, "velocity": 115}, {"time": 137919, "pitch": 69, "duration": 69, "velocity": 105}, {"time": 137998, "pitch": 52, "duration": 80, "velocity": 60}, {"time": 137998, "pitch": 60, "duration": 90, "velocity": 80}, {"time": 137998, "pitch": 64, "duration": 90, "velocity": 85}, {"time": 137998, "pitch": 69, "duration": 80, "velocity": 75}, {"time": 138158, "pitch": 60, "duration": 60, "velocity": 70}, {"time": 138158, "pitch": 64, "duration": 50, "velocity": 75}, {"time": 138158, "pitch": 69, "duration": 80, "velocity": 65}, {"time": 138238, "pitch": 52, "duration": 149, "velocity": 100}, {"time": 138238, "pitch": 69, "duration": 149, "velocity": 105}, {"time": 138248, "pitch": 60, "duration": 139, "velocity": 110}, {"time": 138248, "pitch": 64, "duration": 139, "velocity": 115}, {"time": 138397, "pitch": 52, "duration": 80, "velocity": 75}, {"time": 138397, "pitch": 60, "duration": 70, "velocity": 85}, {"time": 138397, "pitch": 69, "duration": 60, "velocity": 80}, {"time": 138477, "pitch": 52, "duration": 60, "velocity": 65}, {"time": 138477, "pitch": 60, "duration": 70, "velocity": 55}, {"time": 138477, "pitch": 64, "duration": 70, "velocity": 50}, {"time": 138477, "pitch": 69, "duration": 60, "velocity": 60}, {"time": 138637, "pitch": 52, "duration": 69, "velocity": 90}, {"time": 138637, "pitch": 60, "duration": 59, "velocity": 100}, {"time": 138637, "pitch": 64, "duration": 59, "velocity": 105}, {"time": 138637, "pitch": 69, "duration": 69, "velocity": 95}, {"time": 138716, "pitch": 50, "duration": 213, "velocity": 95}, {"time": 138716, "pitch": 69, "duration": 213, "velocity": 100}, {"time": 138726, "pitch": 62, "duration": 203, "velocity": 105}, {"time": 138737, "pitch": 65, "duration": 192, "velocity": 110}, {"time": 138949, "pitch": 65, "duration": 173, "velocity": 94}, {"time": 138959, "pitch": 62, "duration": 163, "velocity": 89}, {"time": 138970, "pitch": 69, "duration": 152, "velocity": 84}, {"time": 138980, "pitch": 50, "duration": 142, "velocity": 79}, {"time": 139203, "pitch": 50, "duration": 209, "velocity": 95}, {"time": 139203, "pitch": 69, "duration": 209, "velocity": 100}, {"time": 139213, "pitch": 62, "duration": 199, "velocity": 105}, {"time": 139223, "pitch": 65, "duration": 189, "velocity": 110}, {"time": 139442, "pitch": 50, "duration": 70, "velocity": 65}, {"time": 139442, "pitch": 69, "duration": 70, "velocity": 70}, {"time": 139452, "pitch": 62, "duration": 60, "velocity": 75}, {"time": 139452, "pitch": 65, "duration": 60, "velocity": 80}, {"time": 139601, "pitch": 50, "duration": 210, "velocity": 95}, {"time": 139601, "pitch": 69, "duration": 210, "velocity": 100}, {"time": 139611, "pitch": 62, "duration": 200, "velocity": 105}, {"time": 139621, "pitch": 65, "duration": 190, "velocity": 110}, {"time": 139841, "pitch": 50, "duration": 70, "velocity": 100}, {"time": 139841, "pitch": 62, "duration": 60, "velocity": 110}, {"time": 139841, "pitch": 65, "duration": 60, "velocity": 115}, {"time": 139841, "pitch": 69, "duration": 70, "velocity": 105}, {"time": 139921, "pitch": 50, "duration": 79, "velocity": 60}, {"time": 139921, "pitch": 62, "duration": 89, "velocity": 80}, {"time": 139921, "pitch": 65, "duration": 89, "velocity": 85}, {"time": 139921, "pitch": 69, "duration": 79, "velocity": 75}, {"time": 140080, "pitch": 62, "duration": 60, "velocity": 70}, {"time": 140080, "pitch": 65, "duration": 50, "velocity": 75}, {"time": 140080, "pitch": 69, "duration": 80, "velocity": 65}, {"time": 140160, "pitch": 50, "duration": 150, "velocity": 100}, {"time": 140160, "pitch": 69, "duration": 150, "velocity": 105}, {"time": 140170, "pitch": 62, "duration": 140, "velocity": 110}, {"time": 140170, "pitch": 65, "duration": 140, "velocity": 115}, {"time": 140319, "pitch": 50, "duration": 80, "velocity": 75}, {"time": 140319, "pitch": 62, "duration": 70, "velocity": 85}, {"time": 140319, "pitch": 69, "duration": 60, "velocity": 80}, {"time": 140399, "pitch": 50, "duration": 60, "velocity": 65}, {"time": 140399, "pitch": 62, "duration": 70, "velocity": 55}, {"time": 140399, "pitch": 65, "duration": 70, "velocity": 50}, {"time": 140399, "pitch": 69, "duration": 60, "velocity": 60}, {"time": 140559, "pitch": 50, "duration": 70, "velocity": 90}, {"time": 140559, "pitch": 62, "duration": 60, "velocity": 100}, {"time": 140559, "pitch": 65, "duration": 60, "velocity": 105}, {"time": 140559, "pitch": 69, "duration": 70, "velocity": 95}, {"time": 140639, "pitch": 52, "duration": 209, "velocity": 95}, {"time": 140639, "pitch": 69, "duration": 209, "velocity": 100}, {"time": 140649, "pitch": 59, "duration": 199, "velocity": 105}, {"time": 140659, "pitch": 64, "duration": 189, "velocity": 110}, {"time": 140868, "pitch": 64, "duration": 170, "velocity": 94}, {"time": 140878, "pitch": 59, "duration": 160, "velocity": 89}, {"time": 140888, "pitch": 69, "duration": 150, "velocity": 84}, {"time": 140898, "pitch": 52, "duration": 140, "velocity": 79}, {"time": 141117, "pitch": 52, "duration": 213, "velocity": 95}, {"time": 141117, "pitch": 69, "duration": 213, "velocity": 100}, {"time": 141127, "pitch": 59, "duration": 203, "velocity": 105}, {"time": 141138, "pitch": 64, "duration": 192, "velocity": 110}, {"time": 141360, "pitch": 52, "duration": 71, "velocity": 65}, {"time": 141360, "pitch": 69, "duration": 71, "velocity": 70}, {"time": 141371, "pitch": 59, "duration": 60, "velocity": 75}, {"time": 141371, "pitch": 64, "duration": 60, "velocity": 80}, {"time": 141522, "pitch": 52, "duration": 211, "velocity": 95}, {"time": 141522, "pitch": 69, "duration": 211, "velocity": 100}, {"time": 141533, "pitch": 59, "duration": 200, "velocity": 105}, {"time": 141543, "pitch": 64, "duration": 190, "velocity": 110}, {"time": 141763, "pitch": 52, "duration": 70, "velocity": 100}, {"time": 141763, "pitch": 59, "duration": 60, "velocity": 110}, {"time": 141763, "pitch": 64, "duration": 60, "velocity": 115}, {"time": 141763, "pitch": 69, "duration": 70, "velocity": 105}, {"time": 141843, "pitch": 52, "duration": 80, "velocity": 60}, {"time": 141843, "pitch": 59, "duration": 90, "velocity": 80}, {"time": 141843, "pitch": 64, "duration": 90, "velocity": 85}, {"time": 141843, "pitch": 69, "duration": 80, "velocity": 75}, {"time": 142002, "pitch": 59, "duration": 60, "velocity": 70}, {"time": 142002, "pitch": 64, "duration": 50, "velocity": 75}, {"time": 142002, "pitch": 69, "duration": 80, "velocity": 65}, {"time": 142082, "pitch": 52, "duration": 150, "velocity": 100}, {"time": 142082, "pitch": 69, "duration": 150, "velocity": 105}, {"time": 142092, "pitch": 59, "duration": 140, "velocity": 110}, {"time": 142092, "pitch": 64, "duration": 140, "velocity": 115}, {"time": 142242, "pitch": 52, "duration": 79, "velocity": 75}, {"time": 142242, "pitch": 59, "duration": 70, "velocity": 85}, {"time": 142242, "pitch": 69, "duration": 60, "velocity": 80}, {"time": 142321, "pitch": 52, "duration": 60, "velocity": 65}, {"time": 142321, "pitch": 59, "duration": 70, "velocity": 55}, {"time": 142321, "pitch": 64, "duration": 70, "velocity": 50}, {"time": 142321, "pitch": 69, "duration": 60, "velocity": 60}, {"time": 142481, "pitch": 52, "duration": 70, "velocity": 90}, {"time": 142481, "pitch": 59, "duration": 60, "velocity": 100}, {"time": 142481, "pitch": 64, "duration": 60, "velocity": 105}, {"time": 142481, "pitch": 69, "duration": 70, "velocity": 95}, {"time": 142561, "pitch": 52, "duration": 209, "velocity": 95}, {"time": 142561, "pitch": 69, "duration": 209, "velocity": 100}, {"time": 142571, "pitch": 60, "duration": 199, "velocity": 105}, {"time": 142581, "pitch": 64, "duration": 189, "velocity": 110}, {"time": 142790, "pitch": 64, "duration": 170, "velocity": 94}, {"time": 142800, "pitch": 60, "duration": 160, "velocity": 89}, {"time": 142810, "pitch": 69, "duration": 150, "velocity": 84}, {"time": 142820, "pitch": 52, "duration": 140, "velocity": 79}, {"time": 143040, "pitch": 52, "duration": 209, "velocity": 95}, {"time": 143040, "pitch": 69, "duration": 209, "velocity": 100}, {"time": 143049, "pitch": 60, "duration": 200, "velocity": 105}, {"time": 143059, "pitch": 64, "duration": 190, "velocity": 110}, {"time": 143279, "pitch": 52, "duration": 70, "velocity": 65}, {"time": 143279, "pitch": 69, "duration": 70, "velocity": 70}, {"time": 143289, "pitch": 60, "duration": 60, "velocity": 75}, {"time": 143289, "pitch": 64, "duration": 60, "velocity": 80}, {"time": 143438, "pitch": 52, "duration": 210, "velocity": 95}, {"time": 143438, "pitch": 69, "duration": 210, "velocity": 100}, {"time": 143448, "pitch": 60, "duration": 200, "velocity": 105}, {"time": 143458, "pitch": 64, "duration": 190, "velocity": 110}, {"time": 143678, "pitch": 52, "duration": 70, "velocity": 100}, {"time": 143678, "pitch": 60, "duration": 60, "velocity": 110}, {"time": 143678, "pitch": 64, "duration": 60, "velocity": 115}, {"time": 143678, "pitch": 69, "duration": 70, "velocity": 105}, {"time": 143758, "pitch": 52, "duration": 79, "velocity": 60}, {"time": 143758, "pitch": 60, "duration": 89, "velocity": 80}, {"time": 143758, "pitch": 64, "duration": 89, "velocity": 85}, {"time": 143758, "pitch": 69, "duration": 79, "velocity": 75}, {"time": 143917, "pitch": 60, "duration": 60, "velocity": 70}, {"time": 143917, "pitch": 64, "duration": 50, "velocity": 75}, {"time": 143917, "pitch": 69, "duration": 80, "velocity": 65}, {"time": 143997, "pitch": 52, "duration": 152, "velocity": 100}, {"time": 143997, "pitch": 69, "duration": 152, "velocity": 105}, {"time": 144007, "pitch": 60, "duration": 142, "velocity": 110}, {"time": 144007, "pitch": 64, "duration": 142, "velocity": 115}, {"time": 144159, "pitch": 52, "duration": 81, "velocity": 75}, {"time": 144159, "pitch": 60, "duration": 71, "velocity": 85}, {"time": 144159, "pitch": 69, "duration": 61, "velocity": 80}, {"time": 144240, "pitch": 52, "duration": 61, "velocity": 65}, {"time": 144240, "pitch": 60, "duration": 71, "velocity": 55}, {"time": 144240, "pitch": 64, "duration": 71, "velocity": 50}, {"time": 144240, "pitch": 69, "duration": 61, "velocity": 60}, {"time": 144402, "pitch": 52, "duration": 71, "velocity": 90}, {"time": 144402, "pitch": 60, "duration": 61, "velocity": 100}, {"time": 144402, "pitch": 64, "duration": 61, "velocity": 105}, {"time": 144402, "pitch": 69, "duration": 71, "velocity": 95}, {"time": 144483, "pitch": 52, "duration": 209, "velocity": 95}, {"time": 144483, "pitch": 69, "duration": 209, "velocity": 100}, {"time": 144493, "pitch": 60, "duration": 199, "velocity": 105}, {"time": 144503, "pitch": 64, "duration": 189, "velocity": 110}, {"time": 144712, "pitch": 64, "duration": 170, "velocity": 94}, {"time": 144722, "pitch": 60, "duration": 160, "velocity": 89}, {"time": 144732, "pitch": 69, "duration": 150, "velocity": 84}, {"time": 144742, "pitch": 52, "duration": 140, "velocity": 79}, {"time": 144962, "pitch": 52, "duration": 209, "velocity": 95}, {"time": 144962, "pitch": 69, "duration": 209, "velocity": 100}, {"time": 144972, "pitch": 60, "duration": 199, "velocity": 105}, {"time": 144982, "pitch": 64, "duration": 189, "velocity": 110}, {"time": 145201, "pitch": 52, "duration": 70, "velocity": 65}, {"time": 145201, "pitch": 69, "duration": 70, "velocity": 70}, {"time": 145211, "pitch": 60, "duration": 60, "velocity": 75}, {"time": 145211, "pitch": 64, "duration": 60, "velocity": 80}, {"time": 145361, "pitch": 52, "duration": 209, "velocity": 95}, {"time": 145361, "pitch": 69, "duration": 209, "velocity": 100}, {"time": 145371, "pitch": 60, "duration": 199, "velocity": 105}, {"time": 145381, "pitch": 64, "duration": 189, "velocity": 110}, {"time": 145600, "pitch": 52, "duration": 70, "velocity": 100}, {"time": 145600, "pitch": 60, "duration": 60, "velocity": 110}, {"time": 145600, "pitch": 64, "duration": 60, "velocity": 115}, {"time": 145600, "pitch": 69, "duration": 70, "velocity": 105}, {"time": 145680, "pitch": 52, "duration": 80, "velocity": 60}, {"time": 145680, "pitch": 60, "duration": 89, "velocity": 80}, {"time": 145680, "pitch": 64, "duration": 89, "velocity": 85}, {"time": 145680, "pitch": 69, "duration": 80, "velocity": 75}, {"time": 145839, "pitch": 60, "duration": 60, "velocity": 70}, {"time": 145839, "pitch": 64, "duration": 50, "velocity": 75}, {"time": 145839, "pitch": 69, "duration": 80, "velocity": 65}, {"time": 145919, "pitch": 52, "duration": 150, "velocity": 100}, {"time": 145919, "pitch": 69, "duration": 150, "velocity": 105}, {"time": 145929, "pitch": 60, "duration": 140, "velocity": 110}, {"time": 145929, "pitch": 64, "duration": 140, "velocity": 115}, {"time": 146079, "pitch": 52, "duration": 79, "velocity": 75}, {"time": 146079, "pitch": 60, "duration": 69, "velocity": 85}, {"time": 146079, "pitch": 69, "duration": 59, "velocity": 80}, {"time": 146158, "pitch": 52, "duration": 60, "velocity": 65}, {"time": 146158, "pitch": 60, "duration": 70, "velocity": 55}, {"time": 146158, "pitch": 64, "duration": 70, "velocity": 50}, {"time": 146158, "pitch": 69, "duration": 60, "velocity": 60}, {"time": 146318, "pitch": 52, "duration": 70, "velocity": 90}, {"time": 146318, "pitch": 60, "duration": 60, "velocity": 100}, {"time": 146318, "pitch": 64, "duration": 60, "velocity": 105}, {"time": 146318, "pitch": 69, "duration": 70, "velocity": 95}, {"time": 146398, "pitch": 50, "duration": 209, "velocity": 95}, {"time": 146398, "pitch": 69, "duration": 209, "velocity": 100}, {"time": 146408, "pitch": 62, "duration": 199, "velocity": 105}, {"time": 146418, "pitch": 65, "duration": 189, "velocity": 110}, {"time": 146627, "pitch": 65, "duration": 170, "velocity": 94}, {"time": 146637, "pitch": 62, "duration": 160, "velocity": 89}, {"time": 146647, "pitch": 69, "duration": 150, "velocity": 84}, {"time": 146657, "pitch": 50, "duration": 140, "velocity": 79}, {"time": 146876, "pitch": 50, "duration": 213, "velocity": 95}, {"time": 146876, "pitch": 69, "duration": 213, "velocity": 100}, {"time": 146886, "pitch": 62, "duration": 203, "velocity": 105}, {"time": 146897, "pitch": 65, "duration": 192, "velocity": 110}, {"time": 147120, "pitch": 50, "duration": 70, "velocity": 65}, {"time": 147120, "pitch": 69, "duration": 70, "velocity": 70}, {"time": 147130, "pitch": 62, "duration": 60, "velocity": 75}, {"time": 147130, "pitch": 65, "duration": 60, "velocity": 80}, {"time": 147282, "pitch": 50, "duration": 210, "velocity": 95}, {"time": 147282, "pitch": 69, "duration": 210, "velocity": 100}, {"time": 147292, "pitch": 62, "duration": 200, "velocity": 105}, {"time": 147302, "pitch": 65, "duration": 190, "velocity": 110}, {"time": 147522, "pitch": 50, "duration": 70, "velocity": 100}, {"time": 147522, "pitch": 62, "duration": 60, "velocity": 110}, {"time": 147522, "pitch": 65, "duration": 60, "velocity": 115}, {"time": 147522, "pitch": 69, "duration": 70, "velocity": 105}, {"time": 147602, "pitch": 50, "duration": 80, "velocity": 60}, {"time": 147602, "pitch": 62, "duration": 90, "velocity": 80}, {"time": 147602, "pitch": 65, "duration": 90, "velocity": 85}, {"time": 147602, "pitch": 69, "duration": 80, "velocity": 75}, {"time": 147762, "pitch": 62, "duration": 59, "velocity": 70}, {"time": 147762, "pitch": 65, "duration": 49, "velocity": 75}, {"time": 147762, "pitch": 69, "duration": 79, "velocity": 65}, {"time": 147841, "pitch": 50, "duration": 150, "velocity": 100}, {"time": 147841, "pitch": 69, "duration": 150, "velocity": 105}, {"time": 147851, "pitch": 62, "duration": 140, "velocity": 110}, {"time": 147851, "pitch": 65, "duration": 140, "velocity": 115}, {"time": 148001, "pitch": 50, "duration": 80, "velocity": 75}, {"time": 148001, "pitch": 62, "duration": 70, "velocity": 85}, {"time": 148001, "pitch": 69, "duration": 60, "velocity": 80}, {"time": 148081, "pitch": 50, "duration": 59, "velocity": 65}, {"time": 148081, "pitch": 62, "duration": 69, "velocity": 55}, {"time": 148081, "pitch": 65, "duration": 69, "velocity": 50}, {"time": 148081, "pitch": 69, "duration": 59, "velocity": 60}, {"time": 148240, "pitch": 50, "duration": 70, "velocity": 90}, {"time": 148240, "pitch": 62, "duration": 60, "velocity": 100}, {"time": 148240, "pitch": 65, "duration": 60, "velocity": 105}, {"time": 148240, "pitch": 69, "duration": 70, "velocity": 95}, {"time": 148320, "pitch": 52, "duration": 209, "velocity": 95}, {"time": 148320, "pitch": 69, "duration": 209, "velocity": 100}, {"time": 148330, "pitch": 59, "duration": 199, "velocity": 105}, {"time": 148340, "pitch": 62, "duration": 189, "velocity": 110}, {"time": 148549, "pitch": 62, "duration": 170, "velocity": 94}, {"time": 148559, "pitch": 59, "duration": 160, "velocity": 89}, {"time": 148569, "pitch": 69, "duration": 150, "velocity": 84}, {"time": 148579, "pitch": 52, "duration": 140, "velocity": 79}, {"time": 148799, "pitch": 52, "duration": 209, "velocity": 95}, {"time": 148799, "pitch": 69, "duration": 209, "velocity": 100}, {"time": 148809, "pitch": 59, "duration": 199, "velocity": 105}, {"time": 148819, "pitch": 62, "duration": 189, "velocity": 110}, {"time": 149038, "pitch": 52, "duration": 70, "velocity": 65}, {"time": 149038, "pitch": 69, "duration": 70, "velocity": 70}, {"time": 149048, "pitch": 59, "duration": 60, "velocity": 75}, {"time": 149048, "pitch": 62, "duration": 60, "velocity": 80}, {"time": 149198, "pitch": 52, "duration": 211, "velocity": 95}, {"time": 149198, "pitch": 69, "duration": 211, "velocity": 100}, {"time": 149208, "pitch": 59, "duration": 201, "velocity": 105}, {"time": 149217, "pitch": 62, "duration": 192, "velocity": 110}, {"time": 149439, "pitch": 52, "duration": 71, "velocity": 100}, {"time": 149439, "pitch": 59, "duration": 61, "velocity": 110}, {"time": 149439, "pitch": 62, "duration": 61, "velocity": 115}, {"time": 149439, "pitch": 69, "duration": 71, "velocity": 105}, {"time": 149520, "pitch": 52, "duration": 81, "velocity": 60}, {"time": 149520, "pitch": 59, "duration": 92, "velocity": 80}, {"time": 149520, "pitch": 62, "duration": 92, "velocity": 85}, {"time": 149520, "pitch": 69, "duration": 81, "velocity": 75}, {"time": 149683, "pitch": 59, "duration": 60, "velocity": 70}, {"time": 149683, "pitch": 62, "duration": 50, "velocity": 75}, {"time": 149683, "pitch": 69, "duration": 80, "velocity": 65}, {"time": 149763, "pitch": 52, "duration": 150, "velocity": 100}, {"time": 149763, "pitch": 69, "duration": 150, "velocity": 105}, {"time": 149773, "pitch": 59, "duration": 140, "velocity": 110}, {"time": 149773, "pitch": 62, "duration": 140, "velocity": 115}, {"time": 149923, "pitch": 52, "duration": 80, "velocity": 75}, {"time": 149923, "pitch": 59, "duration": 70, "velocity": 85}, {"time": 149923, "pitch": 69, "duration": 60, "velocity": 80}, {"time": 150003, "pitch": 52, "duration": 60, "velocity": 65}, {"time": 150003, "pitch": 59, "duration": 70, "velocity": 55}, {"time": 150003, "pitch": 62, "duration": 70, "velocity": 50}, {"time": 150003, "pitch": 69, "duration": 60, "velocity": 60}, {"time": 150162, "pitch": 52, "duration": 70, "velocity": 90}, {"time": 150162, "pitch": 59, "duration": 60, "velocity": 100}, {"time": 150162, "pitch": 62, "duration": 60, "velocity": 105}, {"time": 150162, "pitch": 69, "duration": 70, "velocity": 95}, {"time": 150242, "pitch": 52, "duration": 210, "velocity": 95}, {"time": 150242, "pitch": 69, "duration": 210, "velocity": 100}, {"time": 150252, "pitch": 60, "duration": 200, "velocity": 105}, {"time": 150262, "pitch": 64, "duration": 190, "velocity": 110}, {"time": 150472, "pitch": 64, "duration": 169, "velocity": 94}, {"time": 150482, "pitch": 60, "duration": 159, "velocity": 89}, {"time": 150491, "pitch": 69, "duration": 150, "velocity": 84}, {"time": 150501, "pitch": 52, "duration": 140, "velocity": 79}, {"time": 150721, "pitch": 52, "duration": 209, "velocity": 95}, {"time": 150721, "pitch": 69, "duration": 209, "velocity": 100}, {"time": 150731, "pitch": 60, "duration": 199, "velocity": 105}, {"time": 150741, "pitch": 64, "duration": 189, "velocity": 110}, {"time": 150960, "pitch": 52, "duration": 70, "velocity": 65}, {"time": 150960, "pitch": 69, "duration": 70, "velocity": 70}, {"time": 150970, "pitch": 60, "duration": 60, "velocity": 75}, {"time": 150970, "pitch": 64, "duration": 60, "velocity": 80}, {"time": 151120, "pitch": 52, "duration": 209, "velocity": 95}, {"time": 151120, "pitch": 69, "duration": 209, "velocity": 100}, {"time": 151130, "pitch": 60, "duration": 199, "velocity": 105}, {"time": 151140, "pitch": 64, "duration": 189, "velocity": 110}, {"time": 151359, "pitch": 52, "duration": 70, "velocity": 100}, {"time": 151359, "pitch": 60, "duration": 60, "velocity": 110}, {"time": 151359, "pitch": 64, "duration": 60, "velocity": 115}, {"time": 151359, "pitch": 69, "duration": 70, "velocity": 105}, {"time": 151439, "pitch": 52, "duration": 80, "velocity": 60}, {"time": 151439, "pitch": 60, "duration": 90, "velocity": 80}, {"time": 151439, "pitch": 64, "duration": 90, "velocity": 85}, {"time": 151439, "pitch": 69, "duration": 80, "velocity": 75}, {"time": 151598, "pitch": 60, "duration": 60, "velocity": 70}, {"time": 151598, "pitch": 64, "duration": 50, "velocity": 75}, {"time": 151598, "pitch": 69, "duration": 80, "velocity": 65}, {"time": 151678, "pitch": 52, "duration": 150, "velocity": 100}, {"time": 151678, "pitch": 69, "duration": 150, "velocity": 105}, {"time": 151688, "pitch": 60, "duration": 140, "velocity": 110}, {"time": 151688, "pitch": 64, "duration": 140, "velocity": 115}, {"time": 151838, "pitch": 52, "duration": 80, "velocity": 75}, {"time": 151838, "pitch": 60, "duration": 70, "velocity": 85}, {"time": 151838, "pitch": 69, "duration": 60, "velocity": 80}, {"time": 151918, "pitch": 52, "duration": 59, "velocity": 65}, {"time": 151918, "pitch": 60, "duration": 69, "velocity": 55}, {"time": 151918, "pitch": 64, "duration": 69, "velocity": 50}, {"time": 151918, "pitch": 69, "duration": 59, "velocity": 60}, {"time": 152077, "pitch": 52, "duration": 70, "velocity": 90}, {"time": 152077, "pitch": 60, "duration": 60, "velocity": 100}, {"time": 152077, "pitch": 64, "duration": 60, "velocity": 105}, {"time": 152077, "pitch": 69, "duration": 70, "velocity": 95}, {"time": 152157, "pitch": 50, "duration": 213, "velocity": 95}, {"time": 152157, "pitch": 69, "duration": 213, "velocity": 100}, {"time": 152167, "pitch": 60, "duration": 203, "velocity": 105}, {"time": 152177, "pitch": 64, "duration": 193, "velocity": 110}, {"time": 152390, "pitch": 64, "duration": 172, "velocity": 94}, {"time": 152400, "pitch": 60, "duration": 162, "velocity": 89}, {"time": 152410, "pitch": 69, "duration": 152, "velocity": 84}, {"time": 152420, "pitch": 50, "duration": 142, "velocity": 79}, {"time": 152643, "pitch": 50, "duration": 209, "velocity": 95}, {"time": 152643, "pitch": 69, "duration": 209, "velocity": 100}, {"time": 152653, "pitch": 60, "duration": 199, "velocity": 105}, {"time": 152663, "pitch": 64, "duration": 189, "velocity": 110}, {"time": 152882, "pitch": 50, "duration": 70, "velocity": 65}, {"time": 152882, "pitch": 69, "duration": 70, "velocity": 70}, {"time": 152892, "pitch": 60, "duration": 60, "velocity": 75}, {"time": 152892, "pitch": 64, "duration": 60, "velocity": 80}, {"time": 153042, "pitch": 50, "duration": 209, "velocity": 95}, {"time": 153042, "pitch": 69, "duration": 209, "velocity": 100}, {"time": 153052, "pitch": 60, "duration": 199, "velocity": 105}, {"time": 153062, "pitch": 64, "duration": 189, "velocity": 110}, {"time": 153281, "pitch": 50, "duration": 70, "velocity": 100}, {"time": 153281, "pitch": 60, "duration": 60, "velocity": 110}, {"time": 153281, "pitch": 64, "duration": 60, "velocity": 115}, {"time": 153281, "pitch": 69, "duration": 70, "velocity": 105}, {"time": 153361, "pitch": 50, "duration": 80, "velocity": 60}, {"time": 153361, "pitch": 60, "duration": 90, "velocity": 80}, {"time": 153361, "pitch": 64, "duration": 90, "velocity": 85}, {"time": 153361, "pitch": 69, "duration": 80, "velocity": 75}, {"time": 153521, "pitch": 60, "duration": 59, "velocity": 70}, {"time": 153521, "pitch": 64, "duration": 49, "velocity": 75}, {"time": 153521, "pitch": 69, "duration": 79, "velocity": 65}, {"time": 153600, "pitch": 50, "duration": 150, "velocity": 100}, {"time": 153600, "pitch": 69, "duration": 150, "velocity": 105}, {"time": 153610, "pitch": 60, "duration": 140, "velocity": 110}, {"time": 153610, "pitch": 64, "duration": 140, "velocity": 115}, {"time": 153760, "pitch": 50, "duration": 80, "velocity": 75}, {"time": 153760, "pitch": 60, "duration": 70, "velocity": 85}, {"time": 153760, "pitch": 69, "duration": 60, "velocity": 80}, {"time": 153840, "pitch": 50, "duration": 60, "velocity": 65}, {"time": 153840, "pitch": 60, "duration": 70, "velocity": 55}, {"time": 153840, "pitch": 64, "duration": 70, "velocity": 50}, {"time": 153840, "pitch": 69, "duration": 60, "velocity": 60}, {"time": 153999, "pitch": 50, "duration": 70, "velocity": 90}, {"time": 153999, "pitch": 60, "duration": 60, "velocity": 100}, {"time": 153999, "pitch": 64, "duration": 60, "velocity": 105}, {"time": 153999, "pitch": 69, "duration": 70, "velocity": 95}, {"time": 154079, "pitch": 50, "duration": 210, "velocity": 95}, {"time": 154079, "pitch": 69, "duration": 210, "velocity": 100}, {"time": 154089, "pitch": 59, "duration": 200, "velocity": 105}, {"time": 154099, "pitch": 62, "duration": 190, "velocity": 110}, {"time": 154308, "pitch": 62, "duration": 170, "velocity": 94}, {"time": 154318, "pitch": 59, "duration": 160, "velocity": 89}, {"time": 154328, "pitch": 69, "duration": 150, "velocity": 84}, {"time": 154338, "pitch": 50, "duration": 140, "velocity": 79}, {"time": 154558, "pitch": 50, "duration": 209, "velocity": 95}, {"time": 154558, "pitch": 69, "duration": 209, "velocity": 100}, {"time": 154568, "pitch": 59, "duration": 199, "velocity": 105}, {"time": 154578, "pitch": 62, "duration": 189, "velocity": 110}, {"time": 154797, "pitch": 50, "duration": 70, "velocity": 65}, {"time": 154797, "pitch": 69, "duration": 70, "velocity": 70}, {"time": 154807, "pitch": 59, "duration": 60, "velocity": 75}, {"time": 154807, "pitch": 62, "duration": 60, "velocity": 80}, {"time": 154957, "pitch": 50, "duration": 211, "velocity": 95}, {"time": 154957, "pitch": 69, "duration": 211, "velocity": 100}, {"time": 154967, "pitch": 59, "duration": 201, "velocity": 105}, {"time": 154977, "pitch": 62, "duration": 191, "velocity": 110}, {"time": 155198, "pitch": 50, "duration": 71, "velocity": 100}, {"time": 155198, "pitch": 59, "duration": 61, "velocity": 110}, {"time": 155198, "pitch": 62, "duration": 61, "velocity": 115}, {"time": 155198, "pitch": 69, "duration": 71, "velocity": 105}, {"time": 155280, "pitch": 50, "duration": 81, "velocity": 60}, {"time": 155280, "pitch": 59, "duration": 91, "velocity": 80}, {"time": 155280, "pitch": 62, "duration": 91, "velocity": 85}, {"time": 155280, "pitch": 69, "duration": 81, "velocity": 75}, {"time": 155442, "pitch": 59, "duration": 60, "velocity": 70}, {"time": 155442, "pitch": 62, "duration": 50, "velocity": 75}, {"time": 155442, "pitch": 69, "duration": 81, "velocity": 65}, {"time": 155523, "pitch": 50, "duration": 149, "velocity": 100}, {"time": 155523, "pitch": 69, "duration": 149, "velocity": 105}, {"time": 155533, "pitch": 59, "duration": 139, "velocity": 110}, {"time": 155533, "pitch": 62, "duration": 139, "velocity": 115}, {"time": 155682, "pitch": 50, "duration": 80, "velocity": 75}, {"time": 155682, "pitch": 59, "duration": 70, "velocity": 85}, {"time": 155682, "pitch": 69, "duration": 60, "velocity": 80}, {"time": 155762, "pitch": 50, "duration": 60, "velocity": 65}, {"time": 155762, "pitch": 59, "duration": 70, "velocity": 55}, {"time": 155762, "pitch": 62, "duration": 70, "velocity": 50}, {"time": 155762, "pitch": 69, "duration": 60, "velocity": 60}, {"time": 155922, "pitch": 50, "duration": 69, "velocity": 90}, {"time": 155922, "pitch": 59, "duration": 59, "velocity": 100}, {"time": 155922, "pitch": 62, "duration": 59, "velocity": 105}, {"time": 155922, "pitch": 69, "duration": 69, "velocity": 95}, {"time": 156001, "pitch": 52, "duration": 210, "velocity": 95}, {"time": 156001, "pitch": 69, "duration": 210, "velocity": 100}, {"time": 156011, "pitch": 60, "duration": 200, "velocity": 105}, {"time": 156021, "pitch": 64, "duration": 190, "velocity": 110}, {"time": 156231, "pitch": 64, "duration": 169, "velocity": 94}, {"time": 156241, "pitch": 60, "duration": 159, "velocity": 89}, {"time": 156251, "pitch": 69, "duration": 149, "velocity": 84}, {"time": 156261, "pitch": 52, "duration": 139, "velocity": 79}, {"time": 156480, "pitch": 52, "duration": 209, "velocity": 95}, {"time": 156480, "pitch": 69, "duration": 209, "velocity": 100}, {"time": 156490, "pitch": 60, "duration": 199, "velocity": 105}, {"time": 156500, "pitch": 64, "duration": 189, "velocity": 110}, {"time": 156719, "pitch": 52, "duration": 70, "velocity": 65}, {"time": 156719, "pitch": 69, "duration": 70, "velocity": 70}, {"time": 156729, "pitch": 60, "duration": 60, "velocity": 75}, {"time": 156729, "pitch": 64, "duration": 60, "velocity": 80}, {"time": 156879, "pitch": 52, "duration": 209, "velocity": 95}, {"time": 156879, "pitch": 69, "duration": 209, "velocity": 100}, {"time": 156889, "pitch": 60, "duration": 199, "velocity": 105}, {"time": 156899, "pitch": 64, "duration": 189, "velocity": 110}, {"time": 157118, "pitch": 52, "duration": 70, "velocity": 100}, {"time": 157118, "pitch": 60, "duration": 60, "velocity": 110}, {"time": 157118, "pitch": 64, "duration": 60, "velocity": 115}, {"time": 157118, "pitch": 69, "duration": 70, "velocity": 105}, {"time": 157198, "pitch": 52, "duration": 80, "velocity": 60}, {"time": 157198, "pitch": 60, "duration": 90, "velocity": 80}, {"time": 157198, "pitch": 64, "duration": 90, "velocity": 85}, {"time": 157198, "pitch": 69, "duration": 80, "velocity": 75}, {"time": 157358, "pitch": 60, "duration": 59, "velocity": 70}, {"time": 157358, "pitch": 64, "duration": 49, "velocity": 75}, {"time": 157358, "pitch": 69, "duration": 79, "velocity": 65}, {"time": 157437, "pitch": 52, "duration": 152, "velocity": 100}, {"time": 157437, "pitch": 69, "duration": 152, "velocity": 105}, {"time": 157447, "pitch": 60, "duration": 142, "velocity": 110}, {"time": 157447, "pitch": 64, "duration": 142, "velocity": 115}, {"time": 157599, "pitch": 52, "duration": 81, "velocity": 75}, {"time": 157599, "pitch": 60, "duration": 71, "velocity": 85}, {"time": 157599, "pitch": 69, "duration": 61, "velocity": 80}, {"time": 157680, "pitch": 52, "duration": 61, "velocity": 65}, {"time": 157680, "pitch": 60, "duration": 71, "velocity": 55}, {"time": 157680, "pitch": 64, "duration": 71, "velocity": 50}, {"time": 157680, "pitch": 69, "duration": 61, "velocity": 60}, {"time": 157843, "pitch": 52, "duration": 70, "velocity": 90}, {"time": 157843, "pitch": 60, "duration": 60, "velocity": 100}, {"time": 157843, "pitch": 64, "duration": 60, "velocity": 105}, {"time": 157843, "pitch": 69, "duration": 70, "velocity": 95}, {"time": 157924, "pitch": 52, "duration": 209, "velocity": 95}, {"time": 157924, "pitch": 57, "duration": 209, "velocity": 100}, {"time": 157933, "pitch": 60, "duration": 200, "velocity": 105}, {"time": 157943, "pitch": 64, "duration": 190, "velocity": 110}, {"time": 158153, "pitch": 64, "duration": 169, "velocity": 94}, {"time": 158163, "pitch": 60, "duration": 159, "velocity": 89}, {"time": 158173, "pitch": 57, "duration": 149, "velocity": 84}, {"time": 158183, "pitch": 52, "duration": 139, "velocity": 79}, {"time": 158402, "pitch": 52, "duration": 210, "velocity": 95}, {"time": 158402, "pitch": 57, "duration": 210, "velocity": 100}, {"time": 158412, "pitch": 60, "duration": 200, "velocity": 105}, {"time": 158422, "pitch": 64, "duration": 190, "velocity": 110}, {"time": 158642, "pitch": 52, "duration": 69, "velocity": 65}, {"time": 158642, "pitch": 57, "duration": 69, "velocity": 70}, {"time": 158652, "pitch": 60, "duration": 59, "velocity": 75}, {"time": 158652, "pitch": 64, "duration": 59, "velocity": 80}, {"time": 158801, "pitch": 52, "duration": 210, "velocity": 95}, {"time": 158801, "pitch": 57, "duration": 210, "velocity": 100}, {"time": 158811, "pitch": 60, "duration": 200, "velocity": 105}, {"time": 158821, "pitch": 64, "duration": 190, "velocity": 110}, {"time": 159040, "pitch": 52, "duration": 70, "velocity": 100}, {"time": 159040, "pitch": 57, "duration": 70, "velocity": 105}, {"time": 159040, "pitch": 60, "duration": 60, "velocity": 110}, {"time": 159040, "pitch": 64, "duration": 60, "velocity": 115}, {"time": 159120, "pitch": 52, "duration": 80, "velocity": 60}, {"time": 159120, "pitch": 57, "duration": 80, "velocity": 75}, {"time": 159120, "pitch": 60, "duration": 90, "velocity": 80}, {"time": 159120, "pitch": 64, "duration": 90, "velocity": 85}, {"time": 159280, "pitch": 57, "duration": 80, "velocity": 65}, {"time": 159280, "pitch": 60, "duration": 60, "velocity": 70}, {"time": 159280, "pitch": 64, "duration": 50, "velocity": 75}, {"time": 159360, "pitch": 52, "duration": 149, "velocity": 100}, {"time": 159360, "pitch": 57, "duration": 149, "velocity": 105}, {"time": 159370, "pitch": 60, "duration": 139, "velocity": 110}, {"time": 159370, "pitch": 64, "duration": 139, "velocity": 115}, {"time": 159519, "pitch": 52, "duration": 80, "velocity": 75}, {"time": 159519, "pitch": 57, "duration": 60, "velocity": 80}, {"time": 159519, "pitch": 60, "duration": 70, "velocity": 85}, {"time": 159599, "pitch": 52, "duration": 60, "velocity": 65}, {"time": 159599, "pitch": 57, "duration": 60, "velocity": 60}, {"time": 159599, "pitch": 60, "duration": 70, "velocity": 55}, {"time": 159599, "pitch": 64, "duration": 70, "velocity": 50}, {"time": 159758, "pitch": 52, "duration": 70, "velocity": 90}, {"time": 159758, "pitch": 57, "duration": 70, "velocity": 95}, {"time": 159758, "pitch": 60, "duration": 60, "velocity": 100}, {"time": 159758, "pitch": 64, "duration": 60, "velocity": 105}, {"time": 159838, "pitch": 50, "duration": 210, "velocity": 95}, {"time": 159838, "pitch": 57, "duration": 210, "velocity": 100}, {"time": 159848, "pitch": 60, "duration": 200, "velocity": 105}, {"time": 159858, "pitch": 65, "duration": 190, "velocity": 110}, {"time": 160068, "pitch": 65, "duration": 169, "velocity": 94}, {"time": 160078, "pitch": 60, "duration": 159, "velocity": 89}, {"time": 160088, "pitch": 57, "duration": 149, "velocity": 84}, {"time": 160098, "pitch": 50, "duration": 139, "velocity": 79}, {"time": 160317, "pitch": 50, "duration": 213, "velocity": 95}, {"time": 160317, "pitch": 57, "duration": 213, "velocity": 100}, {"time": 160327, "pitch": 60, "duration": 203, "velocity": 105}, {"time": 160337, "pitch": 65, "duration": 193, "velocity": 110}, {"time": 160560, "pitch": 50, "duration": 71, "velocity": 65}, {"time": 160560, "pitch": 57, "duration": 71, "velocity": 70}, {"time": 160570, "pitch": 60, "duration": 61, "velocity": 75}, {"time": 160570, "pitch": 65, "duration": 61, "velocity": 80}, {"time": 160722, "pitch": 50, "duration": 211, "velocity": 95}, {"time": 160722, "pitch": 57, "duration": 211, "velocity": 100}, {"time": 160732, "pitch": 60, "duration": 201, "velocity": 105}, {"time": 160742, "pitch": 65, "duration": 191, "velocity": 110}, {"time": 160963, "pitch": 50, "duration": 69, "velocity": 100}, {"time": 160963, "pitch": 57, "duration": 69, "velocity": 105}, {"time": 160963, "pitch": 60, "duration": 59, "velocity": 110}, {"time": 160963, "pitch": 65, "duration": 59, "velocity": 115}, {"time": 161042, "pitch": 50, "duration": 80, "velocity": 60}, {"time": 161042, "pitch": 57, "duration": 80, "velocity": 75}, {"time": 161042, "pitch": 60, "duration": 90, "velocity": 80}, {"time": 161042, "pitch": 65, "duration": 90, "velocity": 85}, {"time": 161202, "pitch": 57, "duration": 80, "velocity": 65}, {"time": 161202, "pitch": 60, "duration": 60, "velocity": 70}, {"time": 161202, "pitch": 65, "duration": 50, "velocity": 75}, {"time": 161282, "pitch": 50, "duration": 149, "velocity": 100}, {"time": 161282, "pitch": 57, "duration": 149, "velocity": 105}, {"time": 161292, "pitch": 60, "duration": 139, "velocity": 110}, {"time": 161292, "pitch": 65, "duration": 139, "velocity": 115}, {"time": 161441, "pitch": 50, "duration": 80, "velocity": 75}, {"time": 161441, "pitch": 57, "duration": 60, "velocity": 80}, {"time": 161441, "pitch": 60, "duration": 70, "velocity": 85}, {"time": 161521, "pitch": 50, "duration": 60, "velocity": 65}, {"time": 161521, "pitch": 57, "duration": 60, "velocity": 60}, {"time": 161521, "pitch": 60, "duration": 70, "velocity": 55}, {"time": 161521, "pitch": 65, "duration": 70, "velocity": 50}, {"time": 161681, "pitch": 50, "duration": 69, "velocity": 90}, {"time": 161681, "pitch": 57, "duration": 69, "velocity": 95}, {"time": 161681, "pitch": 60, "duration": 59, "velocity": 100}, {"time": 161681, "pitch": 65, "duration": 59, "velocity": 105}, {"time": 161760, "pitch": 52, "duration": 210, "velocity": 95}, {"time": 161760, "pitch": 57, "duration": 210, "velocity": 100}, {"time": 161770, "pitch": 60, "duration": 200, "velocity": 105}, {"time": 161780, "pitch": 64, "duration": 190, "velocity": 110}, {"time": 161990, "pitch": 64, "duration": 169, "velocity": 94}, {"time": 162000, "pitch": 60, "duration": 159, "velocity": 89}, {"time": 162010, "pitch": 57, "duration": 149, "velocity": 84}, {"time": 162020, "pitch": 52, "duration": 139, "velocity": 79}, {"time": 162239, "pitch": 52, "duration": 210, "velocity": 95}, {"time": 162239, "pitch": 57, "duration": 210, "velocity": 100}, {"time": 162249, "pitch": 60, "duration": 200, "velocity": 105}, {"time": 162259, "pitch": 64, "duration": 190, "velocity": 110}, {"time": 162478, "pitch": 52, "duration": 70, "velocity": 65}, {"time": 162478, "pitch": 57, "duration": 70, "velocity": 70}, {"time": 162488, "pitch": 60, "duration": 60, "velocity": 75}, {"time": 162488, "pitch": 64, "duration": 60, "velocity": 80}, {"time": 162638, "pitch": 52, "duration": 209, "velocity": 95}, {"time": 162638, "pitch": 57, "duration": 209, "velocity": 100}, {"time": 162648, "pitch": 60, "duration": 199, "velocity": 105}, {"time": 162658, "pitch": 64, "duration": 189, "velocity": 110}, {"time": 162877, "pitch": 52, "duration": 70, "velocity": 100}, {"time": 162877, "pitch": 57, "duration": 70, "velocity": 105}, {"time": 162877, "pitch": 60, "duration": 60, "velocity": 110}, {"time": 162877, "pitch": 64, "duration": 60, "velocity": 115}, {"time": 162957, "pitch": 52, "duration": 80, "velocity": 60}, {"time": 162957, "pitch": 57, "duration": 80, "velocity": 75}, {"time": 162957, "pitch": 60, "duration": 90, "velocity": 80}, {"time": 162957, "pitch": 64, "duration": 90, "velocity": 85}, {"time": 163117, "pitch": 57, "duration": 79, "velocity": 65}, {"time": 163117, "pitch": 60, "duration": 60, "velocity": 70}, {"time": 163117, "pitch": 64, "duration": 50, "velocity": 75}, {"time": 163196, "pitch": 52, "duration": 152, "velocity": 100}, {"time": 163196, "pitch": 57, "duration": 152, "velocity": 105}, {"time": 163207, "pitch": 60, "duration": 141, "velocity": 110}, {"time": 163207, "pitch": 64, "duration": 141, "velocity": 115}, {"time": 163359, "pitch": 52, "duration": 81, "velocity": 75}, {"time": 163359, "pitch": 57, "duration": 60, "velocity": 80}, {"time": 163359, "pitch": 60, "duration": 70, "velocity": 85}, {"time": 163440, "pitch": 52, "duration": 60, "velocity": 65}, {"time": 163440, "pitch": 57, "duration": 60, "velocity": 60}, {"time": 163440, "pitch": 60, "duration": 70, "velocity": 55}, {"time": 163440, "pitch": 64, "duration": 70, "velocity": 50}, {"time": 163602, "pitch": 52, "duration": 71, "velocity": 90}, {"time": 163602, "pitch": 57, "duration": 71, "velocity": 95}, {"time": 163602, "pitch": 60, "duration": 60, "velocity": 100}, {"time": 163602, "pitch": 64, "duration": 60, "velocity": 105}, {"time": 163683, "pitch": 50, "duration": 209, "velocity": 95}, {"time": 163683, "pitch": 57, "duration": 209, "velocity": 100}, {"time": 163693, "pitch": 60, "duration": 199, "velocity": 105}, {"time": 163703, "pitch": 65, "duration": 189, "velocity": 110}, {"time": 163912, "pitch": 65, "duration": 170, "velocity": 94}, {"time": 163922, "pitch": 60, "duration": 160, "velocity": 89}, {"time": 163932, "pitch": 57, "duration": 150, "velocity": 84}, {"time": 163942, "pitch": 50, "duration": 140, "velocity": 79}, {"time": 164161, "pitch": 50, "duration": 210, "velocity": 95}, {"time": 164161, "pitch": 57, "duration": 210, "velocity": 100}, {"time": 164171, "pitch": 60, "duration": 200, "velocity": 105}, {"time": 164181, "pitch": 65, "duration": 190, "velocity": 110}, {"time": 164401, "pitch": 50, "duration": 69, "velocity": 65}, {"time": 164401, "pitch": 57, "duration": 69, "velocity": 70}, {"time": 164411, "pitch": 60, "duration": 59, "velocity": 75}, {"time": 164411, "pitch": 65, "duration": 59, "velocity": 80}, {"time": 164560, "pitch": 50, "duration": 210, "velocity": 95}, {"time": 164560, "pitch": 57, "duration": 210, "velocity": 100}, {"time": 164570, "pitch": 60, "duration": 200, "velocity": 105}, {"time": 164580, "pitch": 65, "duration": 190, "velocity": 110}, {"time": 164800, "pitch": 50, "duration": 69, "velocity": 100}, {"time": 164800, "pitch": 57, "duration": 69, "velocity": 105}, {"time": 164800, "pitch": 60, "duration": 59, "velocity": 110}, {"time": 164800, "pitch": 65, "duration": 59, "velocity": 115}, {"time": 164879, "pitch": 50, "duration": 80, "velocity": 60}, {"time": 164879, "pitch": 57, "duration": 80, "velocity": 75}, {"time": 164879, "pitch": 60, "duration": 90, "velocity": 80}, {"time": 164879, "pitch": 65, "duration": 90, "velocity": 85}, {"time": 165039, "pitch": 57, "duration": 80, "velocity": 65}, {"time": 165039, "pitch": 60, "duration": 60, "velocity": 70}, {"time": 165039, "pitch": 65, "duration": 50, "velocity": 75}, {"time": 165119, "pitch": 50, "duration": 149, "velocity": 100}, {"time": 165119, "pitch": 57, "duration": 149, "velocity": 105}, {"time": 165129, "pitch": 60, "duration": 139, "velocity": 110}, {"time": 165129, "pitch": 65, "duration": 139, "velocity": 115}, {"time": 165278, "pitch": 50, "duration": 80, "velocity": 75}, {"time": 165278, "pitch": 57, "duration": 60, "velocity": 80}, {"time": 165278, "pitch": 60, "duration": 70, "velocity": 85}, {"time": 165358, "pitch": 50, "duration": 60, "velocity": 65}, {"time": 165358, "pitch": 57, "duration": 60, "velocity": 60}, {"time": 165358, "pitch": 60, "duration": 70, "velocity": 55}, {"time": 165358, "pitch": 65, "duration": 70, "velocity": 50}, {"time": 165518, "pitch": 50, "duration": 69, "velocity": 90}, {"time": 165518, "pitch": 57, "duration": 69, "velocity": 95}, {"time": 165518, "pitch": 60, "duration": 59, "velocity": 100}, {"time": 165518, "pitch": 65, "duration": 59, "velocity": 105}, {"time": 165597, "pitch": 52, "duration": 213, "velocity": 95}, {"time": 165597, "pitch": 57, "duration": 213, "velocity": 100}, {"time": 165607, "pitch": 60, "duration": 203, "velocity": 105}, {"time": 165618, "pitch": 64, "duration": 192, "velocity": 110}, {"time": 165830, "pitch": 64, "duration": 173, "velocity": 94}, {"time": 165840, "pitch": 60, "duration": 163, "velocity": 89}, {"time": 165851, "pitch": 57, "duration": 152, "velocity": 84}, {"time": 165861, "pitch": 52, "duration": 142, "velocity": 79}, {"time": 166084, "pitch": 52, "duration": 209, "velocity": 95}, {"time": 166084, "pitch": 57, "duration": 209, "velocity": 100}, {"time": 166094, "pitch": 60, "duration": 199, "velocity": 105}, {"time": 166103, "pitch": 64, "duration": 190, "velocity": 110}, {"time": 166323, "pitch": 52, "duration": 70, "velocity": 65}, {"time": 166323, "pitch": 57, "duration": 70, "velocity": 70}, {"time": 166333, "pitch": 60, "duration": 60, "velocity": 75}, {"time": 166333, "pitch": 64, "duration": 60, "velocity": 80}, {"time": 166482, "pitch": 52, "duration": 210, "velocity": 95}, {"time": 166482, "pitch": 57, "duration": 210, "velocity": 100}, {"time": 166492, "pitch": 60, "duration": 200, "velocity": 105}, {"time": 166502, "pitch": 64, "duration": 190, "velocity": 110}, {"time": 166722, "pitch": 52, "duration": 70, "velocity": 100}, {"time": 166722, "pitch": 57, "duration": 70, "velocity": 105}, {"time": 166722, "pitch": 60, "duration": 60, "velocity": 110}, {"time": 166722, "pitch": 64, "duration": 60, "velocity": 115}, {"time": 166802, "pitch": 52, "duration": 79, "velocity": 60}, {"time": 166802, "pitch": 57, "duration": 79, "velocity": 75}, {"time": 166802, "pitch": 60, "duration": 89, "velocity": 80}, {"time": 166802, "pitch": 64, "duration": 89, "velocity": 85}, {"time": 166961, "pitch": 57, "duration": 80, "velocity": 65}, {"time": 166961, "pitch": 60, "duration": 60, "velocity": 70}, {"time": 166961, "pitch": 64, "duration": 50, "velocity": 75}, {"time": 167041, "pitch": 52, "duration": 149, "velocity": 100}, {"time": 167041, "pitch": 57, "duration": 149, "velocity": 105}, {"time": 167051, "pitch": 60, "duration": 139, "velocity": 110}, {"time": 167051, "pitch": 64, "duration": 139, "velocity": 115}, {"time": 167200, "pitch": 52, "duration": 80, "velocity": 75}, {"time": 167200, "pitch": 57, "duration": 60, "velocity": 80}, {"time": 167200, "pitch": 60, "duration": 70, "velocity": 85}, {"time": 167280, "pitch": 52, "duration": 60, "velocity": 65}, {"time": 167280, "pitch": 57, "duration": 60, "velocity": 60}, {"time": 167280, "pitch": 60, "duration": 70, "velocity": 55}, {"time": 167280, "pitch": 64, "duration": 70, "velocity": 50}, {"time": 167440, "pitch": 52, "duration": 70, "velocity": 90}, {"time": 167440, "pitch": 57, "duration": 70, "velocity": 95}, {"time": 167440, "pitch": 60, "duration": 60, "velocity": 100}, {"time": 167440, "pitch": 64, "duration": 60, "velocity": 105}, {"time": 167520, "pitch": 50, "duration": 209, "velocity": 95}, {"time": 167520, "pitch": 57, "duration": 209, "velocity": 100}, {"time": 167530, "pitch": 60, "duration": 199, "velocity": 105}, {"time": 167540, "pitch": 65, "duration": 189, "velocity": 110}, {"time": 167749, "pitch": 65, "duration": 169, "velocity": 94}, {"time": 167759, "pitch": 60, "duration": 159, "velocity": 89}, {"time": 167769, "pitch": 57, "duration": 149, "velocity": 84}, {"time": 167779, "pitch": 50, "duration": 139, "velocity": 79}, {"time": 167998, "pitch": 50, "duration": 210, "velocity": 95}, {"time": 167998, "pitch": 57, "duration": 210, "velocity": 100}, {"time": 168008, "pitch": 60, "duration": 200, "velocity": 105}, {"time": 168018, "pitch": 65, "duration": 190, "velocity": 110}, {"time": 168238, "pitch": 50, "duration": 69, "velocity": 65}, {"time": 168238, "pitch": 57, "duration": 69, "velocity": 70}, {"time": 168248, "pitch": 60, "duration": 59, "velocity": 75}, {"time": 168248, "pitch": 65, "duration": 59, "velocity": 80}, {"time": 168397, "pitch": 50, "duration": 212, "velocity": 95}, {"time": 168397, "pitch": 57, "duration": 212, "velocity": 100}, {"time": 168407, "pitch": 60, "duration": 202, "velocity": 105}, {"time": 168417, "pitch": 65, "duration": 192, "velocity": 110}, {"time": 168639, "pitch": 50, "duration": 71, "velocity": 100}, {"time": 168639, "pitch": 57, "duration": 71, "velocity": 105}, {"time": 168639, "pitch": 60, "duration": 61, "velocity": 110}, {"time": 168639, "pitch": 65, "duration": 61, "velocity": 115}, {"time": 168720, "pitch": 50, "duration": 81, "velocity": 60}, {"time": 168720, "pitch": 57, "duration": 81, "velocity": 75}, {"time": 168720, "pitch": 60, "duration": 91, "velocity": 80}, {"time": 168720, "pitch": 65, "duration": 91, "velocity": 85}, {"time": 168882, "pitch": 57, "duration": 81, "velocity": 65}, {"time": 168882, "pitch": 60, "duration": 61, "velocity": 70}, {"time": 168882, "pitch": 65, "duration": 51, "velocity": 75}, {"time": 168963, "pitch": 50, "duration": 150, "velocity": 100}, {"time": 168963, "pitch": 57, "duration": 150, "velocity": 105}, {"time": 168973, "pitch": 60, "duration": 140, "velocity": 110}, {"time": 168973, "pitch": 65, "duration": 140, "velocity": 115}, {"time": 169123, "pitch": 50, "duration": 79, "velocity": 75}, {"time": 169123, "pitch": 57, "duration": 59, "velocity": 80}, {"time": 169123, "pitch": 60, "duration": 69, "velocity": 85}, {"time": 169202, "pitch": 50, "duration": 60, "velocity": 65}, {"time": 169202, "pitch": 57, "duration": 60, "velocity": 60}, {"time": 169202, "pitch": 60, "duration": 70, "velocity": 55}, {"time": 169202, "pitch": 65, "duration": 70, "velocity": 50}, {"time": 169362, "pitch": 50, "duration": 70, "velocity": 90}, {"time": 169362, "pitch": 57, "duration": 70, "velocity": 95}, {"time": 169362, "pitch": 60, "duration": 60, "velocity": 100}, {"time": 169362, "pitch": 65, "duration": 60, "velocity": 105}, {"time": 169442, "pitch": 52, "duration": 209, "velocity": 95}, {"time": 169442, "pitch": 57, "duration": 209, "velocity": 100}, {"time": 169452, "pitch": 60, "duration": 199, "velocity": 105}, {"time": 169462, "pitch": 64, "duration": 189, "velocity": 110}, {"time": 169671, "pitch": 64, "duration": 170, "velocity": 94}, {"time": 169681, "pitch": 60, "duration": 160, "velocity": 89}, {"time": 169691, "pitch": 57, "duration": 150, "velocity": 84}, {"time": 169701, "pitch": 52, "duration": 140, "velocity": 79}, {"time": 169920, "pitch": 52, "duration": 210, "velocity": 95}, {"time": 169920, "pitch": 57, "duration": 210, "velocity": 100}, {"time": 169930, "pitch": 60, "duration": 200, "velocity": 105}, {"time": 169940, "pitch": 64, "duration": 190, "velocity": 110}, {"time": 170160, "pitch": 52, "duration": 70, "velocity": 65}, {"time": 170160, "pitch": 57, "duration": 70, "velocity": 70}, {"time": 170170, "pitch": 60, "duration": 60, "velocity": 75}, {"time": 170170, "pitch": 64, "duration": 60, "velocity": 80}, {"time": 170319, "pitch": 52, "duration": 210, "velocity": 95}, {"time": 170319, "pitch": 57, "duration": 210, "velocity": 100}, {"time": 170329, "pitch": 60, "duration": 200, "velocity": 105}, {"time": 170339, "pitch": 64, "duration": 190, "velocity": 110}, {"time": 170559, "pitch": 52, "duration": 70, "velocity": 100}, {"time": 170559, "pitch": 57, "duration": 70, "velocity": 105}, {"time": 170559, "pitch": 60, "duration": 60, "velocity": 110}, {"time": 170559, "pitch": 64, "duration": 60, "velocity": 115}, {"time": 170638, "pitch": 52, "duration": 80, "velocity": 60}, {"time": 170638, "pitch": 57, "duration": 80, "velocity": 75}, {"time": 170638, "pitch": 60, "duration": 90, "velocity": 80}, {"time": 170638, "pitch": 64, "duration": 90, "velocity": 85}, {"time": 170798, "pitch": 57, "duration": 80, "velocity": 65}, {"time": 170798, "pitch": 60, "duration": 60, "velocity": 70}, {"time": 170798, "pitch": 64, "duration": 50, "velocity": 75}, {"time": 170878, "pitch": 52, "duration": 149, "velocity": 100}, {"time": 170878, "pitch": 57, "duration": 149, "velocity": 105}, {"time": 170888, "pitch": 60, "duration": 139, "velocity": 110}, {"time": 170888, "pitch": 64, "duration": 139, "velocity": 115}, {"time": 171037, "pitch": 52, "duration": 80, "velocity": 75}, {"time": 171037, "pitch": 57, "duration": 60, "velocity": 80}, {"time": 171037, "pitch": 60, "duration": 70, "velocity": 85}, {"time": 171117, "pitch": 52, "duration": 60, "velocity": 65}, {"time": 171117, "pitch": 57, "duration": 60, "velocity": 60}, {"time": 171117, "pitch": 60, "duration": 70, "velocity": 55}, {"time": 171117, "pitch": 64, "duration": 70, "velocity": 50}, {"time": 171277, "pitch": 52, "duration": 70, "velocity": 90}, {"time": 171277, "pitch": 57, "duration": 70, "velocity": 95}, {"time": 171277, "pitch": 60, "duration": 60, "velocity": 100}, {"time": 171277, "pitch": 64, "duration": 60, "velocity": 105}, {"time": 171356, "pitch": 50, "duration": 213, "velocity": 95}, {"time": 171356, "pitch": 57, "duration": 213, "velocity": 100}, {"time": 171367, "pitch": 60, "duration": 202, "velocity": 105}, {"time": 171377, "pitch": 65, "duration": 192, "velocity": 110}, {"time": 171589, "pitch": 65, "duration": 173, "velocity": 94}, {"time": 171600, "pitch": 60, "duration": 162, "velocity": 89}, {"time": 171610, "pitch": 57, "duration": 152, "velocity": 84}, {"time": 171620, "pitch": 50, "duration": 142, "velocity": 79}, {"time": 171843, "pitch": 50, "duration": 209, "velocity": 95}, {"time": 171843, "pitch": 57, "duration": 209, "velocity": 100}, {"time": 171853, "pitch": 60, "duration": 199, "velocity": 105}, {"time": 171863, "pitch": 65, "duration": 189, "velocity": 110}, {"time": 172082, "pitch": 50, "duration": 70, "velocity": 65}, {"time": 172082, "pitch": 57, "duration": 70, "velocity": 70}, {"time": 172092, "pitch": 60, "duration": 60, "velocity": 75}, {"time": 172092, "pitch": 65, "duration": 60, "velocity": 80}, {"time": 172242, "pitch": 50, "duration": 209, "velocity": 95}, {"time": 172242, "pitch": 57, "duration": 209, "velocity": 100}, {"time": 172252, "pitch": 60, "duration": 199, "velocity": 105}, {"time": 172262, "pitch": 65, "duration": 189, "velocity": 110}, {"time": 172481, "pitch": 50, "duration": 70, "velocity": 100}, {"time": 172481, "pitch": 57, "duration": 70, "velocity": 105}, {"time": 172481, "pitch": 60, "duration": 60, "velocity": 110}, {"time": 172481, "pitch": 65, "duration": 60, "velocity": 115}, {"time": 172561, "pitch": 50, "duration": 79, "velocity": 60}, {"time": 172561, "pitch": 57, "duration": 79, "velocity": 75}, {"time": 172561, "pitch": 60, "duration": 89, "velocity": 80}, {"time": 172561, "pitch": 65, "duration": 89, "velocity": 85}, {"time": 172720, "pitch": 57, "duration": 80, "velocity": 65}, {"time": 172720, "pitch": 60, "duration": 60, "velocity": 70}, {"time": 172720, "pitch": 65, "duration": 50, "velocity": 75}, {"time": 172800, "pitch": 50, "duration": 150, "velocity": 100}, {"time": 172800, "pitch": 57, "duration": 150, "velocity": 105}, {"time": 172810, "pitch": 60, "duration": 140, "velocity": 110}, {"time": 172810, "pitch": 65, "duration": 140, "velocity": 115}, {"time": 172960, "pitch": 50, "duration": 79, "velocity": 75}, {"time": 172960, "pitch": 57, "duration": 59, "velocity": 80}, {"time": 172960, "pitch": 60, "duration": 69, "velocity": 85}, {"time": 173039, "pitch": 50, "duration": 60, "velocity": 65}, {"time": 173039, "pitch": 57, "duration": 60, "velocity": 60}, {"time": 173039, "pitch": 60, "duration": 70, "velocity": 55}, {"time": 173039, "pitch": 65, "duration": 70, "velocity": 50}, {"time": 173199, "pitch": 50, "duration": 70, "velocity": 90}, {"time": 173199, "pitch": 57, "duration": 70, "velocity": 95}, {"time": 173199, "pitch": 60, "duration": 60, "velocity": 100}, {"time": 173199, "pitch": 65, "duration": 60, "velocity": 105}, {"time": 173279, "pitch": 52, "duration": 209, "velocity": 95}, {"time": 173279, "pitch": 57, "duration": 209, "velocity": 100}, {"time": 173289, "pitch": 60, "duration": 199, "velocity": 105}, {"time": 173299, "pitch": 64, "duration": 189, "velocity": 110}, {"time": 173508, "pitch": 64, "duration": 170, "velocity": 94}, {"time": 173518, "pitch": 60, "duration": 160, "velocity": 89}, {"time": 173528, "pitch": 57, "duration": 150, "velocity": 84}, {"time": 173538, "pitch": 52, "duration": 140, "velocity": 79}, {"time": 173757, "pitch": 52, "duration": 213, "velocity": 95}, {"time": 173757, "pitch": 57, "duration": 213, "velocity": 100}, {"time": 173767, "pitch": 60, "duration": 203, "velocity": 105}, {"time": 173778, "pitch": 64, "duration": 192, "velocity": 110}, {"time": 174000, "pitch": 52, "duration": 71, "velocity": 65}, {"time": 174000, "pitch": 57, "duration": 71, "velocity": 70}, {"time": 174011, "pitch": 60, "duration": 60, "velocity": 75}, {"time": 174011, "pitch": 64, "duration": 60, "velocity": 80}, {"time": 174163, "pitch": 52, "duration": 210, "velocity": 95}, {"time": 174163, "pitch": 57, "duration": 210, "velocity": 100}, {"time": 174173, "pitch": 60, "duration": 200, "velocity": 105}, {"time": 174183, "pitch": 64, "duration": 190, "velocity": 110}, {"time": 174403, "pitch": 52, "duration": 70, "velocity": 100}, {"time": 174403, "pitch": 57, "duration": 70, "velocity": 105}, {"time": 174403, "pitch": 60, "duration": 60, "velocity": 110}, {"time": 174403, "pitch": 64, "duration": 60, "velocity": 115}, {"time": 174483, "pitch": 52, "duration": 80, "velocity": 60}, {"time": 174483, "pitch": 57, "duration": 80, "velocity": 75}, {"time": 174483, "pitch": 60, "duration": 90, "velocity": 80}, {"time": 174483, "pitch": 64, "duration": 90, "velocity": 85}, {"time": 174642, "pitch": 57, "duration": 80, "velocity": 65}, {"time": 174642, "pitch": 60, "duration": 60, "velocity": 70}, {"time": 174642, "pitch": 64, "duration": 50, "velocity": 75}, {"time": 174722, "pitch": 52, "duration": 150, "velocity": 100}, {"time": 174722, "pitch": 57, "duration": 150, "velocity": 105}, {"time": 174732, "pitch": 60, "duration": 140, "velocity": 110}, {"time": 174732, "pitch": 64, "duration": 140, "velocity": 115}, {"time": 174882, "pitch": 52, "duration": 80, "velocity": 75}, {"time": 174882, "pitch": 57, "duration": 60, "velocity": 80}, {"time": 174882, "pitch": 60, "duration": 70, "velocity": 85}, {"time": 174962, "pitch": 52, "duration": 59, "velocity": 65}, {"time": 174962, "pitch": 57, "duration": 59, "velocity": 60}, {"time": 174962, "pitch": 60, "duration": 69, "velocity": 55}, {"time": 174962, "pitch": 64, "duration": 69, "velocity": 50}, {"time": 175121, "pitch": 52, "duration": 70, "velocity": 90}, {"time": 175121, "pitch": 57, "duration": 70, "velocity": 95}, {"time": 175121, "pitch": 60, "duration": 60, "velocity": 100}, {"time": 175121, "pitch": 64, "duration": 60, "velocity": 105}, {"time": 175201, "pitch": 50, "duration": 209, "velocity": 95}, {"time": 175201, "pitch": 57, "duration": 209, "velocity": 100}, {"time": 175211, "pitch": 60, "duration": 199, "velocity": 105}, {"time": 175221, "pitch": 65, "duration": 189, "velocity": 110}, {"time": 175430, "pitch": 65, "duration": 170, "velocity": 94}, {"time": 175440, "pitch": 60, "duration": 160, "velocity": 89}, {"time": 175450, "pitch": 57, "duration": 150, "velocity": 84}, {"time": 175460, "pitch": 50, "duration": 140, "velocity": 79}, {"time": 175680, "pitch": 50, "duration": 209, "velocity": 95}, {"time": 175680, "pitch": 57, "duration": 209, "velocity": 100}, {"time": 175690, "pitch": 60, "duration": 199, "velocity": 105}, {"time": 175700, "pitch": 65, "duration": 189, "velocity": 110}, {"time": 175919, "pitch": 50, "duration": 70, "velocity": 65}, {"time": 175919, "pitch": 57, "duration": 70, "velocity": 70}, {"time": 175929, "pitch": 60, "duration": 60, "velocity": 75}, {"time": 175929, "pitch": 65, "duration": 60, "velocity": 80}, {"time": 176078, "pitch": 50, "duration": 210, "velocity": 95}, {"time": 176078, "pitch": 57, "duration": 210, "velocity": 100}, {"time": 176088, "pitch": 60, "duration": 200, "velocity": 105}, {"time": 176098, "pitch": 65, "duration": 190, "velocity": 110}, {"time": 176318, "pitch": 50, "duration": 70, "velocity": 100}, {"time": 176318, "pitch": 57, "duration": 70, "velocity": 105}, {"time": 176318, "pitch": 60, "duration": 60, "velocity": 110}, {"time": 176318, "pitch": 65, "duration": 60, "velocity": 115}, {"time": 176398, "pitch": 50, "duration": 79, "velocity": 60}, {"time": 176398, "pitch": 57, "duration": 79, "velocity": 75}, {"time": 176398, "pitch": 60, "duration": 89, "velocity": 80}, {"time": 176398, "pitch": 65, "duration": 89, "velocity": 85}, {"time": 176557, "pitch": 57, "duration": 80, "velocity": 65}, {"time": 176557, "pitch": 60, "duration": 60, "velocity": 70}, {"time": 176557, "pitch": 65, "duration": 50, "velocity": 75}, {"time": 176637, "pitch": 50, "duration": 152, "velocity": 100}, {"time": 176637, "pitch": 57, "duration": 152, "velocity": 105}, {"time": 176647, "pitch": 60, "duration": 142, "velocity": 110}, {"time": 176647, "pitch": 65, "duration": 142, "velocity": 115}, {"time": 176799, "pitch": 50, "duration": 81, "velocity": 75}, {"time": 176799, "pitch": 57, "duration": 61, "velocity": 80}, {"time": 176799, "pitch": 60, "duration": 71, "velocity": 85}, {"time": 176880, "pitch": 50, "duration": 61, "velocity": 65}, {"time": 176880, "pitch": 57, "duration": 61, "velocity": 60}, {"time": 176880, "pitch": 60, "duration": 71, "velocity": 55}, {"time": 176880, "pitch": 65, "duration": 71, "velocity": 50}, {"time": 177042, "pitch": 50, "duration": 71, "velocity": 90}, {"time": 177042, "pitch": 57, "duration": 71, "velocity": 95}, {"time": 177042, "pitch": 60, "duration": 61, "velocity": 100}, {"time": 177042, "pitch": 65, "duration": 61, "velocity": 105}, {"time": 177123, "pitch": 52, "duration": 210, "velocity": 95}, {"time": 177123, "pitch": 57, "duration": 210, "velocity": 100}, {"time": 177133, "pitch": 60, "duration": 200, "velocity": 105}, {"time": 177143, "pitch": 64, "duration": 190, "velocity": 110}, {"time": 177352, "pitch": 64, "duration": 170, "velocity": 94}, {"time": 177362, "pitch": 60, "duration": 160, "velocity": 89}, {"time": 177372, "pitch": 57, "duration": 150, "velocity": 84}, {"time": 177382, "pitch": 52, "duration": 140, "velocity": 79}, {"time": 177602, "pitch": 52, "duration": 209, "velocity": 95}, {"time": 177602, "pitch": 57, "duration": 209, "velocity": 100}, {"time": 177612, "pitch": 60, "duration": 199, "velocity": 105}, {"time": 177622, "pitch": 64, "duration": 189, "velocity": 110}, {"time": 177841, "pitch": 52, "duration": 70, "velocity": 65}, {"time": 177841, "pitch": 57, "duration": 70, "velocity": 70}, {"time": 177851, "pitch": 60, "duration": 60, "velocity": 75}, {"time": 177851, "pitch": 64, "duration": 60, "velocity": 80}, {"time": 178001, "pitch": 52, "duration": 209, "velocity": 95}, {"time": 178001, "pitch": 57, "duration": 209, "velocity": 100}, {"time": 178011, "pitch": 60, "duration": 199, "velocity": 105}, {"time": 178021, "pitch": 64, "duration": 189, "velocity": 110}, {"time": 178240, "pitch": 52, "duration": 70, "velocity": 100}, {"time": 178240, "pitch": 57, "duration": 70, "velocity": 105}, {"time": 178240, "pitch": 60, "duration": 60, "velocity": 110}, {"time": 178240, "pitch": 64, "duration": 60, "velocity": 115}, {"time": 178320, "pitch": 52, "duration": 80, "velocity": 60}, {"time": 178320, "pitch": 57, "duration": 80, "velocity": 75}, {"time": 178320, "pitch": 60, "duration": 90, "velocity": 80}, {"time": 178320, "pitch": 64, "duration": 90, "velocity": 85}, {"time": 178479, "pitch": 57, "duration": 80, "velocity": 65}, {"time": 178479, "pitch": 60, "duration": 60, "velocity": 70}, {"time": 178479, "pitch": 64, "duration": 50, "velocity": 75}, {"time": 178559, "pitch": 52, "duration": 150, "velocity": 100}, {"time": 178559, "pitch": 57, "duration": 150, "velocity": 105}, {"time": 178569, "pitch": 60, "duration": 140, "velocity": 110}, {"time": 178569, "pitch": 64, "duration": 140, "velocity": 115}, {"time": 178719, "pitch": 52, "duration": 79, "velocity": 75}, {"time": 178719, "pitch": 57, "duration": 60, "velocity": 80}, {"time": 178719, "pitch": 60, "duration": 70, "velocity": 85}, {"time": 178798, "pitch": 52, "duration": 60, "velocity": 65}, {"time": 178798, "pitch": 57, "duration": 60, "velocity": 60}, {"time": 178798, "pitch": 60, "duration": 70, "velocity": 55}, {"time": 178798, "pitch": 64, "duration": 70, "velocity": 50}, {"time": 178958, "pitch": 52, "duration": 70, "velocity": 90}, {"time": 178958, "pitch": 57, "duration": 70, "velocity": 95}, {"time": 178958, "pitch": 60, "duration": 60, "velocity": 100}, {"time": 178958, "pitch": 64, "duration": 60, "velocity": 105}, {"time": 179038, "pitch": 50, "duration": 209, "velocity": 95}, {"time": 179038, "pitch": 57, "duration": 209, "velocity": 100}, {"time": 179048, "pitch": 60, "duration": 199, "velocity": 105}, {"time": 179058, "pitch": 65, "duration": 189, "velocity": 110}, {"time": 179267, "pitch": 65, "duration": 170, "velocity": 94}, {"time": 179277, "pitch": 60, "duration": 160, "velocity": 89}, {"time": 179287, "pitch": 57, "duration": 150, "velocity": 84}, {"time": 179297, "pitch": 50, "duration": 140, "velocity": 79}, {"time": 179517, "pitch": 50, "duration": 209, "velocity": 95}, {"time": 179517, "pitch": 57, "duration": 209, "velocity": 100}, {"time": 179526, "pitch": 60, "duration": 200, "velocity": 105}, {"time": 179536, "pitch": 65, "duration": 190, "velocity": 110}, {"time": 179756, "pitch": 50, "duration": 70, "velocity": 65}, {"time": 179756, "pitch": 57, "duration": 70, "velocity": 70}, {"time": 179766, "pitch": 60, "duration": 60, "velocity": 75}, {"time": 179766, "pitch": 65, "duration": 60, "velocity": 80}, {"time": 179915, "pitch": 50, "duration": 210, "velocity": 95}, {"time": 179915, "pitch": 57, "duration": 210, "velocity": 100}, {"time": 179925, "pitch": 60, "duration": 200, "velocity": 105}, {"time": 179935, "pitch": 65, "duration": 190, "velocity": 110}, {"time": 180155, "pitch": 50, "duration": 70, "velocity": 100}, {"time": 180155, "pitch": 57, "duration": 70, "velocity": 105}, {"time": 180155, "pitch": 60, "duration": 60, "velocity": 110}, {"time": 180155, "pitch": 65, "duration": 60, "velocity": 115}, {"time": 180235, "pitch": 50, "duration": 79, "velocity": 60}, {"time": 180235, "pitch": 57, "duration": 79, "velocity": 75}, {"time": 180235, "pitch": 60, "duration": 89, "velocity": 80}, {"time": 180235, "pitch": 65, "duration": 89, "velocity": 85}, {"time": 180394, "pitch": 57, "duration": 80, "velocity": 65}, {"time": 180394, "pitch": 60, "duration": 60, "velocity": 70}, {"time": 180394, "pitch": 65, "duration": 50, "velocity": 75}, {"time": 180474, "pitch": 50, "duration": 149, "velocity": 100}, {"time": 180474, "pitch": 57, "duration": 149, "velocity": 105}, {"time": 180484, "pitch": 60, "duration": 139, "velocity": 110}, {"time": 180484, "pitch": 65, "duration": 139, "velocity": 115}, {"time": 180633, "pitch": 50, "duration": 80, "velocity": 75}, {"time": 180633, "pitch": 57, "duration": 60, "velocity": 80}, {"time": 180633, "pitch": 60, "duration": 70, "velocity": 85}, {"time": 180713, "pitch": 50, "duration": 60, "velocity": 65}, {"time": 180713, "pitch": 57, "duration": 60, "velocity": 60}, {"time": 180713, "pitch": 60, "duration": 70, "velocity": 55}, {"time": 180713, "pitch": 65, "duration": 70, "velocity": 50}, {"time": 180873, "pitch": 50, "duration": 70, "velocity": 90}, {"time": 180873, "pitch": 57, "duration": 70, "velocity": 95}, {"time": 180873, "pitch": 60, "duration": 60, "velocity": 100}, {"time": 180873, "pitch": 65, "duration": 60, "velocity": 105}, {"time": 482, "pitch": 36, "duration": 10, "velocity": 121}, {"time": 482, "pitch": 42, "duration": 10, "velocity": 78}, {"time": 722, "pitch": 36, "duration": 10, "velocity": 119}, {"time": 722, "pitch": 42, "duration": 10, "velocity": 25}, {"time": 881, "pitch": 42, "duration": 10, "velocity": 52}, {"time": 961, "pitch": 38, "duration": 10, "velocity": 94}, {"time": 961, "pitch": 42, "duration": 10, "velocity": 80}, {"time": 1120, "pitch": 42, "duration": 10, "velocity": 64}, {"time": 1200, "pitch": 36, "duration": 10, "velocity": 77}, {"time": 1200, "pitch": 42, "duration": 10, "velocity": 46}, {"time": 1200, "pitch": 70, "duration": 10, "velocity": 50}, {"time": 1360, "pitch": 38, "duration": 10, "velocity": 46}, {"time": 1360, "pitch": 70, "duration": 10, "velocity": 30}, {"time": 1440, "pitch": 36, "duration": 10, "velocity": 65}, {"time": 1440, "pitch": 42, "duration": 10, "velocity": 79}, {"time": 1440, "pitch": 70, "duration": 10, "velocity": 47}, {"time": 1599, "pitch": 38, "duration": 10, "velocity": 54}, {"time": 1679, "pitch": 36, "duration": 10, "velocity": 100}, {"time": 1679, "pitch": 42, "duration": 10, "velocity": 58}, {"time": 1679, "pitch": 46, "duration": 10, "velocity": 46}, {"time": 1918, "pitch": 38, "duration": 10, "velocity": 92}, {"time": 1918, "pitch": 42, "duration": 10, "velocity": 89}, {"time": 2158, "pitch": 36, "duration": 10, "velocity": 77}, {"time": 2158, "pitch": 42, "duration": 10, "velocity": 46}, {"time": 2317, "pitch": 38, "duration": 10, "velocity": 32}, {"time": 2357, "pitch": 38, "duration": 10, "velocity": 34}, {"time": 2397, "pitch": 36, "duration": 10, "velocity": 121}, {"time": 2397, "pitch": 42, "duration": 10, "velocity": 64}, {"time": 2559, "pitch": 42, "duration": 10, "velocity": 58}, {"time": 2640, "pitch": 36, "duration": 10, "velocity": 119}, {"time": 2640, "pitch": 42, "duration": 10, "velocity": 58}, {"time": 2640, "pitch": 70, "duration": 10, "velocity": 70}, {"time": 2802, "pitch": 42, "duration": 10, "velocity": 52}, {"time": 2883, "pitch": 38, "duration": 10, "velocity": 94}, {"time": 2883, "pitch": 42, "duration": 10, "velocity": 87}, {"time": 3043, "pitch": 42, "duration": 10, "velocity": 52}, {"time": 3122, "pitch": 36, "duration": 10, "velocity": 77}, {"time": 3122, "pitch": 42, "duration": 10, "velocity": 29}, {"time": 3282, "pitch": 38, "duration": 10, "velocity": 46}, {"time": 3282, "pitch": 42, "duration": 10, "velocity": 66}, {"time": 3362, "pitch": 36, "duration": 10, "velocity": 65}, {"time": 3362, "pitch": 42, "duration": 10, "velocity": 89}, {"time": 3362, "pitch": 70, "duration": 10, "velocity": 58}, {"time": 3521, "pitch": 38, "duration": 10, "velocity": 54}, {"time": 3521, "pitch": 70, "duration": 10, "velocity": 54}, {"time": 3601, "pitch": 36, "duration": 10, "velocity": 100}, {"time": 3601, "pitch": 46, "duration": 10, "velocity": 39}, {"time": 3601, "pitch": 62, "duration": 10, "velocity": 66}, {"time": 3840, "pitch": 38, "duration": 10, "velocity": 92}, {"time": 3840, "pitch": 42, "duration": 10, "velocity": 58}, {"time": 3840, "pitch": 63, "duration": 10, "velocity": 60}, {"time": 4000, "pitch": 42, "duration": 10, "velocity": 64}, {"time": 4080, "pitch": 36, "duration": 10, "velocity": 77}, {"time": 4080, "pitch": 46, "duration": 10, "velocity": 28}, {"time": 4080, "pitch": 64, "duration": 10, "velocity": 55}, {"time": 4239, "pitch": 38, "duration": 10, "velocity": 32}, {"time": 4279, "pitch": 38, "duration": 10, "velocity": 34}, {"time": 4319, "pitch": 36, "duration": 10, "velocity": 121}, {"time": 4319, "pitch": 42, "duration": 10, "velocity": 78}, {"time": 4558, "pitch": 36, "duration": 10, "velocity": 119}, {"time": 4558, "pitch": 42, "duration": 10, "velocity": 25}, {"time": 4718, "pitch": 42, "duration": 10, "velocity": 52}, {"time": 4798, "pitch": 38, "duration": 10, "velocity": 94}, {"time": 4798, "pitch": 42, "duration": 10, "velocity": 80}, {"time": 4957, "pitch": 42, "duration": 10, "velocity": 64}, {"time": 5037, "pitch": 36, "duration": 10, "velocity": 77}, {"time": 5037, "pitch": 42, "duration": 10, "velocity": 46}, {"time": 5037, "pitch": 70, "duration": 10, "velocity": 50}, {"time": 5197, "pitch": 38, "duration": 10, "velocity": 46}, {"time": 5197, "pitch": 70, "duration": 10, "velocity": 30}, {"time": 5276, "pitch": 36, "duration": 11, "velocity": 65}, {"time": 5276, "pitch": 42, "duration": 11, "velocity": 79}, {"time": 5276, "pitch": 70, "duration": 11, "velocity": 47}, {"time": 5439, "pitch": 38, "duration": 10, "velocity": 54}, {"time": 5520, "pitch": 36, "duration": 10, "velocity": 100}, {"time": 5520, "pitch": 42, "duration": 10, "velocity": 58}, {"time": 5520, "pitch": 46, "duration": 10, "velocity": 46}, {"time": 5763, "pitch": 38, "duration": 10, "velocity": 92}, {"time": 5763, "pitch": 42, "duration": 10, "velocity": 89}, {"time": 6002, "pitch": 36, "duration": 10, "velocity": 77}, {"time": 6002, "pitch": 42, "duration": 10, "velocity": 46}, {"time": 6162, "pitch": 38, "duration": 10, "velocity": 32}, {"time": 6201, "pitch": 38, "duration": 10, "velocity": 34}, {"time": 6241, "pitch": 36, "duration": 10, "velocity": 121}, {"time": 6241, "pitch": 42, "duration": 10, "velocity": 64}, {"time": 6401, "pitch": 42, "duration": 10, "velocity": 58}, {"time": 6481, "pitch": 36, "duration": 10, "velocity": 119}, {"time": 6481, "pitch": 42, "duration": 10, "velocity": 58}, {"time": 6481, "pitch": 70, "duration": 10, "velocity": 70}, {"time": 6640, "pitch": 42, "duration": 10, "velocity": 52}, {"time": 6720, "pitch": 38, "duration": 10, "velocity": 94}, {"time": 6720, "pitch": 42, "duration": 10, "velocity": 87}, {"time": 6880, "pitch": 42, "duration": 10, "velocity": 52}, {"time": 6959, "pitch": 36, "duration": 10, "velocity": 77}, {"time": 6959, "pitch": 42, "duration": 10, "velocity": 29}, {"time": 7119, "pitch": 38, "duration": 10, "velocity": 46}, {"time": 7119, "pitch": 42, "duration": 10, "velocity": 66}, {"time": 7199, "pitch": 36, "duration": 10, "velocity": 65}, {"time": 7199, "pitch": 42, "duration": 10, "velocity": 89}, {"time": 7199, "pitch": 70, "duration": 10, "velocity": 58}, {"time": 7358, "pitch": 38, "duration": 10, "velocity": 54}, {"time": 7358, "pitch": 70, "duration": 10, "velocity": 54}, {"time": 7438, "pitch": 36, "duration": 10, "velocity": 100}, {"time": 7438, "pitch": 46, "duration": 10, "velocity": 39}, {"time": 7438, "pitch": 62, "duration": 10, "velocity": 66}, {"time": 7677, "pitch": 38, "duration": 10, "velocity": 92}, {"time": 7677, "pitch": 42, "duration": 10, "velocity": 58}, {"time": 7677, "pitch": 63, "duration": 10, "velocity": 60}, {"time": 7839, "pitch": 42, "duration": 11, "velocity": 64}, {"time": 7920, "pitch": 36, "duration": 11, "velocity": 77}, {"time": 7920, "pitch": 46, "duration": 11, "velocity": 28}, {"time": 7920, "pitch": 64, "duration": 11, "velocity": 55}, {"time": 8083, "pitch": 38, "duration": 10, "velocity": 32}, {"time": 8123, "pitch": 38, "duration": 10, "velocity": 34}, {"time": 8164, "pitch": 36, "duration": 10, "velocity": 121}, {"time": 8164, "pitch": 42, "duration": 10, "velocity": 78}, {"time": 8403, "pitch": 36, "duration": 10, "velocity": 119}, {"time": 8403, "pitch": 42, "duration": 10, "velocity": 25}, {"time": 8642, "pitch": 38, "duration": 10, "velocity": 94}, {"time": 8642, "pitch": 42, "duration": 10, "velocity": 80}, {"time": 8882, "pitch": 36, "duration": 10, "velocity": 77}, {"time": 8882, "pitch": 42, "duration": 10, "velocity": 46}, {"time": 8882, "pitch": 70, "duration": 10, "velocity": 50}, {"time": 9041, "pitch": 38, "duration": 10, "velocity": 46}, {"time": 9041, "pitch": 70, "duration": 10, "velocity": 30}, {"time": 9121, "pitch": 36, "duration": 10, "velocity": 65}, {"time": 9121, "pitch": 42, "duration": 10, "velocity": 79}, {"time": 9121, "pitch": 70, "duration": 10, "velocity": 47}, {"time": 9280, "pitch": 38, "duration": 10, "velocity": 54}, {"time": 9360, "pitch": 36, "duration": 10, "velocity": 100}, {"time": 9360, "pitch": 46, "duration": 10, "velocity": 46}, {"time": 9600, "pitch": 38, "duration": 10, "velocity": 92}, {"time": 9600, "pitch": 42, "duration": 10, "velocity": 89}, {"time": 9839, "pitch": 36, "duration": 10, "velocity": 77}, {"time": 9839, "pitch": 42, "duration": 10, "velocity": 46}, {"time": 9998, "pitch": 38, "duration": 10, "velocity": 32}, {"time": 10038, "pitch": 38, "duration": 10, "velocity": 34}, {"time": 10078, "pitch": 36, "duration": 10, "velocity": 121}, {"time": 10078, "pitch": 42, "duration": 10, "velocity": 64}, {"time": 10318, "pitch": 36, "duration": 10, "velocity": 119}, {"time": 10318, "pitch": 42, "duration": 10, "velocity": 58}, {"time": 10318, "pitch": 70, "duration": 10, "velocity": 70}, {"time": 10557, "pitch": 38, "duration": 10, "velocity": 94}, {"time": 10557, "pitch": 42, "duration": 10, "velocity": 87}, {"time": 10800, "pitch": 36, "duration": 10, "velocity": 77}, {"time": 10800, "pitch": 42, "duration": 10, "velocity": 29}, {"time": 10962, "pitch": 38, "duration": 10, "velocity": 46}, {"time": 11043, "pitch": 36, "duration": 10, "velocity": 65}, {"time": 11043, "pitch": 42, "duration": 10, "velocity": 89}, {"time": 11043, "pitch": 70, "duration": 10, "velocity": 58}, {"time": 11203, "pitch": 38, "duration": 10, "velocity": 54}, {"time": 11203, "pitch": 70, "duration": 10, "velocity": 54}, {"time": 11282, "pitch": 36, "duration": 10, "velocity": 100}, {"time": 11282, "pitch": 46, "duration": 10, "velocity": 39}, {"time": 11282, "pitch": 62, "duration": 10, "velocity": 66}, {"time": 11522, "pitch": 38, "duration": 10, "velocity": 92}, {"time": 11522, "pitch": 42, "duration": 10, "velocity": 58}, {"time": 11522, "pitch": 63, "duration": 10, "velocity": 60}, {"time": 11761, "pitch": 36, "duration": 10, "velocity": 77}, {"time": 11761, "pitch": 64, "duration": 10, "velocity": 55}, {"time": 11921, "pitch": 38, "duration": 10, "velocity": 32}, {"time": 11961, "pitch": 38, "duration": 10, "velocity": 34}, {"time": 12000, "pitch": 36, "duration": 10, "velocity": 121}, {"time": 12000, "pitch": 42, "duration": 10, "velocity": 78}, {"time": 12240, "pitch": 36, "duration": 10, "velocity": 119}, {"time": 12240, "pitch": 42, "duration": 10, "velocity": 25}, {"time": 12479, "pitch": 38, "duration": 10, "velocity": 94}, {"time": 12479, "pitch": 42, "duration": 10, "velocity": 80}, {"time": 12718, "pitch": 36, "duration": 10, "velocity": 77}, {"time": 12718, "pitch": 42, "duration": 10, "velocity": 46}, {"time": 12718, "pitch": 70, "duration": 10, "velocity": 50}, {"time": 12878, "pitch": 38, "duration": 10, "velocity": 46}, {"time": 12878, "pitch": 70, "duration": 10, "velocity": 30}, {"time": 12958, "pitch": 36, "duration": 10, "velocity": 65}, {"time": 12958, "pitch": 42, "duration": 10, "velocity": 79}, {"time": 12958, "pitch": 70, "duration": 10, "velocity": 47}, {"time": 13117, "pitch": 38, "duration": 10, "velocity": 54}, {"time": 13197, "pitch": 36, "duration": 10, "velocity": 100}, {"time": 13197, "pitch": 46, "duration": 10, "velocity": 46}, {"time": 13437, "pitch": 38, "duration": 10, "velocity": 92}, {"time": 13437, "pitch": 42, "duration": 10, "velocity": 89}, {"time": 13680, "pitch": 36, "duration": 10, "velocity": 77}, {"time": 13680, "pitch": 42, "duration": 10, "velocity": 46}, {"time": 13842, "pitch": 38, "duration": 10, "velocity": 32}, {"time": 13882, "pitch": 38, "duration": 10, "velocity": 34}, {"time": 13923, "pitch": 36, "duration": 10, "velocity": 121}, {"time": 13923, "pitch": 42, "duration": 10, "velocity": 64}, {"time": 14162, "pitch": 36, "duration": 10, "velocity": 119}, {"time": 14162, "pitch": 42, "duration": 10, "velocity": 58}, {"time": 14162, "pitch": 70, "duration": 10, "velocity": 70}, {"time": 14401, "pitch": 38, "duration": 10, "velocity": 94}, {"time": 14401, "pitch": 42, "duration": 10, "velocity": 87}, {"time": 14641, "pitch": 36, "duration": 10, "velocity": 77}, {"time": 14641, "pitch": 42, "duration": 10, "velocity": 29}, {"time": 14800, "pitch": 38, "duration": 10, "velocity": 46}, {"time": 14880, "pitch": 36, "duration": 10, "velocity": 65}, {"time": 14880, "pitch": 42, "duration": 10, "velocity": 89}, {"time": 14880, "pitch": 70, "duration": 10, "velocity": 58}, {"time": 15040, "pitch": 38, "duration": 10, "velocity": 54}, {"time": 15040, "pitch": 70, "duration": 10, "velocity": 54}, {"time": 15119, "pitch": 36, "duration": 10, "velocity": 100}, {"time": 15119, "pitch": 46, "duration": 10, "velocity": 39}, {"time": 15119, "pitch": 62, "duration": 10, "velocity": 66}, {"time": 15359, "pitch": 38, "duration": 10, "velocity": 92}, {"time": 15359, "pitch": 42, "duration": 10, "velocity": 58}, {"time": 15359, "pitch": 63, "duration": 10, "velocity": 60}, {"time": 15598, "pitch": 36, "duration": 10, "velocity": 77}, {"time": 15598, "pitch": 64, "duration": 10, "velocity": 55}, {"time": 15758, "pitch": 38, "duration": 10, "velocity": 32}, {"time": 15798, "pitch": 38, "duration": 9, "velocity": 34}, {"time": 15837, "pitch": 36, "duration": 10, "velocity": 121}, {"time": 15837, "pitch": 42, "duration": 10, "velocity": 78}, {"time": 16080, "pitch": 36, "duration": 11, "velocity": 119}, {"time": 16080, "pitch": 42, "duration": 11, "velocity": 25}, {"time": 16324, "pitch": 38, "duration": 10, "velocity": 94}, {"time": 16324, "pitch": 42, "duration": 10, "velocity": 80}, {"time": 16563, "pitch": 36, "duration": 10, "velocity": 77}, {"time": 16563, "pitch": 42, "duration": 10, "velocity": 46}, {"time": 16563, "pitch": 70, "duration": 10, "velocity": 50}, {"time": 16722, "pitch": 38, "duration": 10, "velocity": 46}, {"time": 16722, "pitch": 70, "duration": 10, "velocity": 30}, {"time": 16802, "pitch": 36, "duration": 10, "velocity": 65}, {"time": 16802, "pitch": 42, "duration": 10, "velocity": 79}, {"time": 16802, "pitch": 70, "duration": 10, "velocity": 47}, {"time": 16962, "pitch": 38, "duration": 10, "velocity": 54}, {"time": 17042, "pitch": 36, "duration": 10, "velocity": 100}, {"time": 17042, "pitch": 46, "duration": 10, "velocity": 46}, {"time": 17281, "pitch": 38, "duration": 10, "velocity": 92}, {"time": 17281, "pitch": 42, "duration": 10, "velocity": 89}, {"time": 17520, "pitch": 36, "duration": 10, "velocity": 77}, {"time": 17520, "pitch": 42, "duration": 10, "velocity": 46}, {"time": 17680, "pitch": 38, "duration": 10, "velocity": 55}, {"time": 17760, "pitch": 36, "duration": 10, "velocity": 121}, {"time": 17760, "pitch": 42, "duration": 10, "velocity": 64}, {"time": 17999, "pitch": 36, "duration": 10, "velocity": 119}, {"time": 17999, "pitch": 42, "duration": 10, "velocity": 58}, {"time": 17999, "pitch": 70, "duration": 10, "velocity": 70}, {"time": 18238, "pitch": 38, "duration": 10, "velocity": 94}, {"time": 18238, "pitch": 42, "duration": 10, "velocity": 87}, {"time": 18478, "pitch": 36, "duration": 10, "velocity": 77}, {"time": 18478, "pitch": 42, "duration": 10, "velocity": 29}, {"time": 18637, "pitch": 38, "duration": 10, "velocity": 46}, {"time": 18717, "pitch": 36, "duration": 10, "velocity": 65}, {"time": 18717, "pitch": 42, "duration": 10, "velocity": 89}, {"time": 18717, "pitch": 70, "duration": 10, "velocity": 58}, {"time": 18879, "pitch": 38, "duration": 10, "velocity": 54}, {"time": 18879, "pitch": 70, "duration": 10, "velocity": 54}, {"time": 18960, "pitch": 36, "duration": 10, "velocity": 100}, {"time": 18960, "pitch": 46, "duration": 10, "velocity": 39}, {"time": 18960, "pitch": 62, "duration": 10, "velocity": 66}, {"time": 19203, "pitch": 38, "duration": 10, "velocity": 92}, {"time": 19203, "pitch": 42, "duration": 10, "velocity": 58}, {"time": 19203, "pitch": 63, "duration": 10, "velocity": 60}, {"time": 19442, "pitch": 36, "duration": 10, "velocity": 77}, {"time": 19442, "pitch": 64, "duration": 10, "velocity": 55}, {"time": 19602, "pitch": 38, "duration": 10, "velocity": 32}, {"time": 19642, "pitch": 38, "duration": 10, "velocity": 34}, {"time": 19682, "pitch": 36, "duration": 10, "velocity": 121}, {"time": 19682, "pitch": 42, "duration": 10, "velocity": 78}, {"time": 19921, "pitch": 36, "duration": 10, "velocity": 119}, {"time": 19921, "pitch": 42, "duration": 10, "velocity": 25}, {"time": 20160, "pitch": 38, "duration": 10, "velocity": 94}, {"time": 20160, "pitch": 42, "duration": 10, "velocity": 80}, {"time": 20400, "pitch": 36, "duration": 10, "velocity": 77}, {"time": 20400, "pitch": 42, "duration": 10, "velocity": 46}, {"time": 20400, "pitch": 70, "duration": 10, "velocity": 50}, {"time": 20559, "pitch": 38, "duration": 10, "velocity": 46}, {"time": 20559, "pitch": 70, "duration": 10, "velocity": 30}, {"time": 20639, "pitch": 36, "duration": 10, "velocity": 65}, {"time": 20639, "pitch": 42, "duration": 10, "velocity": 79}, {"time": 20639, "pitch": 70, "duration": 10, "velocity": 47}, {"time": 20799, "pitch": 38, "duration": 10, "velocity": 54}, {"time": 20879, "pitch": 36, "duration": 9, "velocity": 100}, {"time": 20879, "pitch": 46, "duration": 9, "velocity": 46}, {"time": 21118, "pitch": 38, "duration": 10, "velocity": 92}, {"time": 21118, "pitch": 42, "duration": 10, "velocity": 89}, {"time": 21357, "pitch": 36, "duration": 10, "velocity": 77}, {"time": 21357, "pitch": 42, "duration": 10, "velocity": 46}, {"time": 21517, "pitch": 38, "duration": 10, "velocity": 55}, {"time": 21597, "pitch": 36, "duration": 10, "velocity": 121}, {"time": 21597, "pitch": 42, "duration": 10, "velocity": 64}, {"time": 21840, "pitch": 36, "duration": 10, "velocity": 119}, {"time": 21840, "pitch": 42, "duration": 10, "velocity": 58}, {"time": 21840, "pitch": 70, "duration": 10, "velocity": 70}, {"time": 22083, "pitch": 38, "duration": 10, "velocity": 94}, {"time": 22083, "pitch": 42, "duration": 10, "velocity": 87}, {"time": 22322, "pitch": 36, "duration": 10, "velocity": 77}, {"time": 22322, "pitch": 42, "duration": 10, "velocity": 29}, {"time": 22482, "pitch": 38, "duration": 10, "velocity": 46}, {"time": 22561, "pitch": 36, "duration": 10, "velocity": 65}, {"time": 22561, "pitch": 42, "duration": 10, "velocity": 89}, {"time": 22561, "pitch": 70, "duration": 10, "velocity": 58}, {"time": 22721, "pitch": 38, "duration": 10, "velocity": 54}, {"time": 22721, "pitch": 70, "duration": 10, "velocity": 54}, {"time": 22801, "pitch": 36, "duration": 10, "velocity": 100}, {"time": 22801, "pitch": 46, "duration": 10, "velocity": 39}, {"time": 22801, "pitch": 62, "duration": 10, "velocity": 66}, {"time": 23040, "pitch": 38, "duration": 10, "velocity": 92}, {"time": 23040, "pitch": 42, "duration": 10, "velocity": 58}, {"time": 23040, "pitch": 63, "duration": 10, "velocity": 60}, {"time": 23279, "pitch": 36, "duration": 10, "velocity": 77}, {"time": 23279, "pitch": 64, "duration": 10, "velocity": 55}, {"time": 23439, "pitch": 38, "duration": 10, "velocity": 32}, {"time": 23479, "pitch": 38, "duration": 10, "velocity": 34}, {"time": 23519, "pitch": 36, "duration": 10, "velocity": 121}, {"time": 23519, "pitch": 42, "duration": 10, "velocity": 78}, {"time": 23758, "pitch": 36, "duration": 10, "velocity": 119}, {"time": 23758, "pitch": 42, "duration": 10, "velocity": 25}, {"time": 23918, "pitch": 42, "duration": 10, "velocity": 52}, {"time": 23997, "pitch": 38, "duration": 11, "velocity": 94}, {"time": 23997, "pitch": 42, "duration": 11, "velocity": 80}, {"time": 24159, "pitch": 42, "duration": 11, "velocity": 64}, {"time": 24241, "pitch": 36, "duration": 10, "velocity": 77}, {"time": 24241, "pitch": 42, "duration": 10, "velocity": 46}, {"time": 24241, "pitch": 70, "duration": 10, "velocity": 50}, {"time": 24403, "pitch": 38, "duration": 10, "velocity": 46}, {"time": 24403, "pitch": 70, "duration": 10, "velocity": 30}, {"time": 24484, "pitch": 36, "duration": 10, "velocity": 65}, {"time": 24484, "pitch": 42, "duration": 10, "velocity": 79}, {"time": 24484, "pitch": 70, "duration": 10, "velocity": 47}, {"time": 24643, "pitch": 38, "duration": 10, "velocity": 54}, {"time": 24723, "pitch": 36, "duration": 10, "velocity": 100}, {"time": 24723, "pitch": 46, "duration": 10, "velocity": 46}, {"time": 24962, "pitch": 38, "duration": 10, "velocity": 92}, {"time": 24962, "pitch": 42, "duration": 10, "velocity": 89}, {"time": 25202, "pitch": 36, "duration": 10, "velocity": 77}, {"time": 25202, "pitch": 42, "duration": 10, "velocity": 46}, {"time": 25361, "pitch": 38, "duration": 10, "velocity": 55}, {"time": 25441, "pitch": 36, "duration": 10, "velocity": 121}, {"time": 25441, "pitch": 42, "duration": 10, "velocity": 64}, {"time": 25601, "pitch": 42, "duration": 9, "velocity": 58}, {"time": 25680, "pitch": 36, "duration": 10, "velocity": 119}, {"time": 25680, "pitch": 42, "duration": 10, "velocity": 58}, {"time": 25680, "pitch": 70, "duration": 10, "velocity": 70}, {"time": 25840, "pitch": 42, "duration": 10, "velocity": 52}, {"time": 25920, "pitch": 38, "duration": 10, "velocity": 94}, {"time": 25920, "pitch": 42, "duration": 10, "velocity": 87}, {"time": 26079, "pitch": 42, "duration": 10, "velocity": 52}, {"time": 26159, "pitch": 36, "duration": 10, "velocity": 77}, {"time": 26159, "pitch": 42, "duration": 10, "velocity": 29}, {"time": 26319, "pitch": 38, "duration": 10, "velocity": 46}, {"time": 26319, "pitch": 42, "duration": 10, "velocity": 66}, {"time": 26398, "pitch": 36, "duration": 10, "velocity": 65}, {"time": 26398, "pitch": 42, "duration": 10, "velocity": 89}, {"time": 26398, "pitch": 70, "duration": 10, "velocity": 58}, {"time": 26558, "pitch": 38, "duration": 10, "velocity": 54}, {"time": 26558, "pitch": 70, "duration": 10, "velocity": 54}, {"time": 26638, "pitch": 36, "duration": 10, "velocity": 100}, {"time": 26638, "pitch": 46, "duration": 10, "velocity": 39}, {"time": 26638, "pitch": 62, "duration": 10, "velocity": 66}, {"time": 26877, "pitch": 38, "duration": 10, "velocity": 92}, {"time": 26877, "pitch": 42, "duration": 10, "velocity": 58}, {"time": 26877, "pitch": 63, "duration": 10, "velocity": 60}, {"time": 27039, "pitch": 42, "duration": 10, "velocity": 64}, {"time": 27120, "pitch": 36, "duration": 10, "velocity": 77}, {"time": 27120, "pitch": 64, "duration": 10, "velocity": 55}, {"time": 27282, "pitch": 38, "duration": 10, "velocity": 55}, {"time": 27363, "pitch": 36, "duration": 10, "velocity": 121}, {"time": 27363, "pitch": 42, "duration": 10, "velocity": 78}, {"time": 27603, "pitch": 36, "duration": 9, "velocity": 119}, {"time": 27603, "pitch": 42, "duration": 9, "velocity": 25}, {"time": 27762, "pitch": 42, "duration": 10, "velocity": 52}, {"time": 27842, "pitch": 38, "duration": 10, "velocity": 94}, {"time": 27842, "pitch": 42, "duration": 10, "velocity": 80}, {"time": 28001, "pitch": 42, "duration": 10, "velocity": 64}, {"time": 28081, "pitch": 36, "duration": 10, "velocity": 77}, {"time": 28081, "pitch": 42, "duration": 10, "velocity": 46}, {"time": 28081, "pitch": 70, "duration": 10, "velocity": 50}, {"time": 28241, "pitch": 38, "duration": 10, "velocity": 46}, {"time": 28241, "pitch": 70, "duration": 10, "velocity": 30}, {"time": 28321, "pitch": 36, "duration": 9, "velocity": 65}, {"time": 28321, "pitch": 42, "duration": 9, "velocity": 79}, {"time": 28321, "pitch": 70, "duration": 9, "velocity": 47}, {"time": 28480, "pitch": 38, "duration": 10, "velocity": 54}, {"time": 28560, "pitch": 36, "duration": 10, "velocity": 100}, {"time": 28560, "pitch": 46, "duration": 10, "velocity": 46}, {"time": 28799, "pitch": 38, "duration": 10, "velocity": 92}, {"time": 28799, "pitch": 42, "duration": 10, "velocity": 89}, {"time": 29039, "pitch": 36, "duration": 10, "velocity": 77}, {"time": 29039, "pitch": 42, "duration": 10, "velocity": 46}, {"time": 29198, "pitch": 38, "duration": 10, "velocity": 55}, {"time": 29278, "pitch": 36, "duration": 10, "velocity": 121}, {"time": 29278, "pitch": 42, "duration": 10, "velocity": 64}, {"time": 29437, "pitch": 42, "duration": 10, "velocity": 58}, {"time": 29517, "pitch": 36, "duration": 10, "velocity": 119}, {"time": 29517, "pitch": 42, "duration": 10, "velocity": 58}, {"time": 29517, "pitch": 70, "duration": 10, "velocity": 70}, {"time": 29677, "pitch": 42, "duration": 10, "velocity": 52}, {"time": 29757, "pitch": 38, "duration": 10, "velocity": 94}, {"time": 29757, "pitch": 42, "duration": 10, "velocity": 87}, {"time": 29919, "pitch": 42, "duration": 10, "velocity": 52}, {"time": 30000, "pitch": 36, "duration": 10, "velocity": 77}, {"time": 30000, "pitch": 42, "duration": 10, "velocity": 29}, {"time": 30162, "pitch": 38, "duration": 10, "velocity": 46}, {"time": 30162, "pitch": 42, "duration": 10, "velocity": 66}, {"time": 30243, "pitch": 36, "duration": 10, "velocity": 65}, {"time": 30243, "pitch": 42, "duration": 10, "velocity": 89}, {"time": 30243, "pitch": 70, "duration": 10, "velocity": 58}, {"time": 30402, "pitch": 38, "duration": 10, "velocity": 54}, {"time": 30402, "pitch": 70, "duration": 10, "velocity": 54}, {"time": 30482, "pitch": 36, "duration": 10, "velocity": 100}, {"time": 30482, "pitch": 46, "duration": 10, "velocity": 39}, {"time": 30482, "pitch": 62, "duration": 10, "velocity": 66}, {"time": 30721, "pitch": 38, "duration": 10, "velocity": 92}, {"time": 30721, "pitch": 42, "duration": 10, "velocity": 58}, {"time": 30721, "pitch": 63, "duration": 10, "velocity": 60}, {"time": 30881, "pitch": 42, "duration": 10, "velocity": 64}, {"time": 30961, "pitch": 36, "duration": 10, "velocity": 77}, {"time": 30961, "pitch": 64, "duration": 10, "velocity": 55}, {"time": 31120, "pitch": 38, "duration": 10, "velocity": 55}, {"time": 31200, "pitch": 36, "duration": 10, "velocity": 121}, {"time": 31200, "pitch": 42, "duration": 10, "velocity": 78}, {"time": 31439, "pitch": 36, "duration": 10, "velocity": 119}, {"time": 31439, "pitch": 42, "duration": 10, "velocity": 25}, {"time": 31599, "pitch": 42, "duration": 10, "velocity": 52}, {"time": 31679, "pitch": 38, "duration": 10, "velocity": 94}, {"time": 31679, "pitch": 42, "duration": 10, "velocity": 80}, {"time": 31838, "pitch": 42, "duration": 10, "velocity": 64}, {"time": 31918, "pitch": 36, "duration": 10, "velocity": 77}, {"time": 31918, "pitch": 42, "duration": 10, "velocity": 46}, {"time": 31918, "pitch": 70, "duration": 10, "velocity": 50}, {"time": 32078, "pitch": 38, "duration": 10, "velocity": 46}, {"time": 32078, "pitch": 70, "duration": 10, "velocity": 30}, {"time": 32157, "pitch": 36, "duration": 11, "velocity": 65}, {"time": 32157, "pitch": 42, "duration": 11, "velocity": 79}, {"time": 32157, "pitch": 70, "duration": 11, "velocity": 47}, {"time": 32319, "pitch": 38, "duration": 11, "velocity": 54}, {"time": 32401, "pitch": 36, "duration": 10, "velocity": 100}, {"time": 32401, "pitch": 46, "duration": 10, "velocity": 46}, {"time": 32644, "pitch": 38, "duration": 10, "velocity": 92}, {"time": 32644, "pitch": 42, "duration": 10, "velocity": 89}, {"time": 32883, "pitch": 36, "duration": 10, "velocity": 77}, {"time": 32883, "pitch": 42, "duration": 10, "velocity": 46}, {"time": 33043, "pitch": 38, "duration": 9, "velocity": 55}, {"time": 33122, "pitch": 36, "duration": 10, "velocity": 121}, {"time": 33122, "pitch": 42, "duration": 10, "velocity": 64}, {"time": 33282, "pitch": 42, "duration": 10, "velocity": 58}, {"time": 33362, "pitch": 36, "duration": 10, "velocity": 119}, {"time": 33362, "pitch": 42, "duration": 10, "velocity": 58}, {"time": 33362, "pitch": 70, "duration": 10, "velocity": 70}, {"time": 33521, "pitch": 42, "duration": 10, "velocity": 52}, {"time": 33601, "pitch": 38, "duration": 10, "velocity": 94}, {"time": 33601, "pitch": 42, "duration": 10, "velocity": 87}, {"time": 33761, "pitch": 42, "duration": 10, "velocity": 52}, {"time": 33840, "pitch": 36, "duration": 10, "velocity": 77}, {"time": 33840, "pitch": 42, "duration": 10, "velocity": 29}, {"time": 34000, "pitch": 38, "duration": 10, "velocity": 46}, {"time": 34000, "pitch": 42, "duration": 10, "velocity": 66}, {"time": 34080, "pitch": 36, "duration": 10, "velocity": 65}, {"time": 34080, "pitch": 42, "duration": 10, "velocity": 89}, {"time": 34080, "pitch": 70, "duration": 10, "velocity": 58}, {"time": 34239, "pitch": 38, "duration": 10, "velocity": 54}, {"time": 34239, "pitch": 70, "duration": 10, "velocity": 54}, {"time": 34319, "pitch": 36, "duration": 10, "velocity": 100}, {"time": 34319, "pitch": 46, "duration": 10, "velocity": 39}, {"time": 34319, "pitch": 62, "duration": 10, "velocity": 66}, {"time": 34558, "pitch": 38, "duration": 10, "velocity": 92}, {"time": 34558, "pitch": 42, "duration": 10, "velocity": 58}, {"time": 34558, "pitch": 63, "duration": 10, "velocity": 60}, {"time": 34718, "pitch": 42, "duration": 10, "velocity": 64}, {"time": 34798, "pitch": 36, "duration": 10, "velocity": 77}, {"time": 34798, "pitch": 64, "duration": 10, "velocity": 55}, {"time": 34957, "pitch": 38, "duration": 10, "velocity": 32}, {"time": 34997, "pitch": 38, "duration": 10, "velocity": 34}, {"time": 35037, "pitch": 36, "duration": 10, "velocity": 121}, {"time": 35037, "pitch": 42, "duration": 10, "velocity": 78}, {"time": 35280, "pitch": 36, "duration": 10, "velocity": 119}, {"time": 35280, "pitch": 42, "duration": 10, "velocity": 25}, {"time": 35442, "pitch": 42, "duration": 10, "velocity": 52}, {"time": 35523, "pitch": 38, "duration": 10, "velocity": 94}, {"time": 35523, "pitch": 42, "duration": 10, "velocity": 80}, {"time": 35683, "pitch": 42, "duration": 10, "velocity": 64}, {"time": 35763, "pitch": 36, "duration": 9, "velocity": 77}, {"time": 35763, "pitch": 42, "duration": 9, "velocity": 46}, {"time": 35763, "pitch": 70, "duration": 9, "velocity": 50}, {"time": 35922, "pitch": 38, "duration": 10, "velocity": 46}, {"time": 35922, "pitch": 70, "duration": 10, "velocity": 30}, {"time": 36002, "pitch": 36, "duration": 10, "velocity": 65}, {"time": 36002, "pitch": 42, "duration": 10, "velocity": 79}, {"time": 36002, "pitch": 70, "duration": 10, "velocity": 47}, {"time": 36161, "pitch": 38, "duration": 10, "velocity": 54}, {"time": 36241, "pitch": 36, "duration": 10, "velocity": 100}, {"time": 36241, "pitch": 46, "duration": 10, "velocity": 46}, {"time": 36481, "pitch": 38, "duration": 10, "velocity": 92}, {"time": 36481, "pitch": 42, "duration": 10, "velocity": 89}, {"time": 36720, "pitch": 36, "duration": 10, "velocity": 121}, {"time": 36720, "pitch": 42, "duration": 10, "velocity": 46}, {"time": 36959, "pitch": 38, "duration": 10, "velocity": 104}, {"time": 36959, "pitch": 42, "duration": 10, "velocity": 64}, {"time": 37119, "pitch": 42, "duration": 10, "velocity": 58}, {"time": 37199, "pitch": 36, "duration": 10, "velocity": 119}, {"time": 37199, "pitch": 46, "duration": 10, "velocity": 46}, {"time": 37199, "pitch": 70, "duration": 10, "velocity": 70}, {"time": 37378, "pitch": 42, "duration": 10, "velocity": 1}, {"time": 37438, "pitch": 38, "duration": 10, "velocity": 104}, {"time": 37438, "pitch": 42, "duration": 10, "velocity": 87}, {"time": 37597, "pitch": 42, "duration": 10, "velocity": 52}, {"time": 37677, "pitch": 36, "duration": 10, "velocity": 121}, {"time": 37677, "pitch": 46, "duration": 10, "velocity": 46}, {"time": 37837, "pitch": 38, "duration": 10, "velocity": 54}, {"time": 37857, "pitch": 42, "duration": 10, "velocity": 1}, {"time": 37877, "pitch": 38, "duration": 10, "velocity": 74}, {"time": 37917, "pitch": 38, "duration": 10, "velocity": 104}, {"time": 37917, "pitch": 70, "duration": 10, "velocity": 58}, {"time": 38079, "pitch": 38, "duration": 10, "velocity": 54}, {"time": 38079, "pitch": 70, "duration": 10, "velocity": 54}, {"time": 38160, "pitch": 36, "duration": 10, "velocity": 121}, {"time": 38160, "pitch": 62, "duration": 10, "velocity": 66}, {"time": 38281, "pitch": 40, "duration": 10, "velocity": 38}, {"time": 38322, "pitch": 40, "duration": 10, "velocity": 57}, {"time": 38362, "pitch": 40, "duration": 10, "velocity": 74}, {"time": 38403, "pitch": 40, "duration": 10, "velocity": 102}, {"time": 38403, "pitch": 63, "duration": 10, "velocity": 60}, {"time": 38562, "pitch": 40, "duration": 10, "velocity": 82}, {"time": 38562, "pitch": 42, "duration": 10, "velocity": 64}, {"time": 38642, "pitch": 64, "duration": 10, "velocity": 55}, {"time": 38762, "pitch": 40, "duration": 10, "velocity": 38}, {"time": 38802, "pitch": 40, "duration": 10, "velocity": 57}, {"time": 38842, "pitch": 40, "duration": 10, "velocity": 74}, {"time": 38881, "pitch": 36, "duration": 10, "velocity": 121}, {"time": 38881, "pitch": 42, "duration": 10, "velocity": 58}, {"time": 38881, "pitch": 57, "duration": 10, "velocity": 76}, {"time": 39121, "pitch": 36, "duration": 10, "velocity": 119}, {"time": 39121, "pitch": 42, "duration": 10, "velocity": 58}, {"time": 39280, "pitch": 36, "duration": 10, "velocity": 121}, {"time": 39280, "pitch": 42, "duration": 10, "velocity": 52}, {"time": 39360, "pitch": 38, "duration": 10, "velocity": 94}, {"time": 39360, "pitch": 40, "duration": 10, "velocity": 83}, {"time": 39520, "pitch": 42, "duration": 10, "velocity": 64}, {"time": 39599, "pitch": 36, "duration": 10, "velocity": 77}, {"time": 39599, "pitch": 70, "duration": 10, "velocity": 50}, {"time": 39759, "pitch": 38, "duration": 10, "velocity": 46}, {"time": 39759, "pitch": 70, "duration": 10, "velocity": 30}, {"time": 39839, "pitch": 36, "duration": 10, "velocity": 65}, {"time": 39839, "pitch": 70, "duration": 10, "velocity": 47}, {"time": 39998, "pitch": 38, "duration": 10, "velocity": 54}, {"time": 40078, "pitch": 36, "duration": 10, "velocity": 100}, {"time": 40078, "pitch": 42, "duration": 10, "velocity": 58}, {"time": 40317, "pitch": 38, "duration": 11, "velocity": 92}, {"time": 40317, "pitch": 40, "duration": 11, "velocity": 91}, {"time": 40317, "pitch": 46, "duration": 11, "velocity": 25}, {"time": 40561, "pitch": 36, "duration": 10, "velocity": 77}, {"time": 40561, "pitch": 42, "duration": 10, "velocity": 64}, {"time": 40723, "pitch": 38, "duration": 10, "velocity": 55}, {"time": 40804, "pitch": 36, "duration": 10, "velocity": 121}, {"time": 40804, "pitch": 42, "duration": 10, "velocity": 64}, {"time": 40963, "pitch": 42, "duration": 10, "velocity": 58}, {"time": 41043, "pitch": 36, "duration": 10, "velocity": 119}, {"time": 41043, "pitch": 70, "duration": 10, "velocity": 70}, {"time": 41203, "pitch": 36, "duration": 10, "velocity": 121}, {"time": 41203, "pitch": 42, "duration": 10, "velocity": 52}, {"time": 41282, "pitch": 38, "duration": 10, "velocity": 94}, {"time": 41282, "pitch": 40, "duration": 10, "velocity": 91}, {"time": 41442, "pitch": 42, "duration": 10, "velocity": 52}, {"time": 41522, "pitch": 36, "duration": 10, "velocity": 77}, {"time": 41681, "pitch": 38, "duration": 10, "velocity": 46}, {"time": 41681, "pitch": 42, "duration": 10, "velocity": 66}, {"time": 41761, "pitch": 36, "duration": 10, "velocity": 65}, {"time": 41761, "pitch": 70, "duration": 10, "velocity": 58}, {"time": 41921, "pitch": 38, "duration": 10, "velocity": 54}, {"time": 41921, "pitch": 70, "duration": 10, "velocity": 54}, {"time": 42000, "pitch": 36, "duration": 10, "velocity": 100}, {"time": 42000, "pitch": 42, "duration": 10, "velocity": 72}, {"time": 42000, "pitch": 62, "duration": 10, "velocity": 66}, {"time": 42240, "pitch": 38, "duration": 10, "velocity": 92}, {"time": 42240, "pitch": 40, "duration": 10, "velocity": 77}, {"time": 42240, "pitch": 42, "duration": 10, "velocity": 76}, {"time": 42240, "pitch": 63, "duration": 10, "velocity": 60}, {"time": 42399, "pitch": 42, "duration": 10, "velocity": 64}, {"time": 42479, "pitch": 36, "duration": 10, "velocity": 77}, {"time": 42479, "pitch": 46, "duration": 10, "velocity": 28}, {"time": 42479, "pitch": 64, "duration": 10, "velocity": 55}, {"time": 42639, "pitch": 38, "duration": 10, "velocity": 55}, {"time": 42718, "pitch": 36, "duration": 10, "velocity": 121}, {"time": 42718, "pitch": 42, "duration": 10, "velocity": 58}, {"time": 42958, "pitch": 36, "duration": 10, "velocity": 119}, {"time": 42958, "pitch": 42, "duration": 10, "velocity": 58}, {"time": 43117, "pitch": 36, "duration": 10, "velocity": 121}, {"time": 43117, "pitch": 42, "duration": 10, "velocity": 52}, {"time": 43197, "pitch": 38, "duration": 10, "velocity": 94}, {"time": 43197, "pitch": 40, "duration": 10, "velocity": 83}, {"time": 43359, "pitch": 42, "duration": 10, "velocity": 64}, {"time": 43440, "pitch": 36, "duration": 10, "velocity": 77}, {"time": 43440, "pitch": 70, "duration": 10, "velocity": 50}, {"time": 43602, "pitch": 38, "duration": 10, "velocity": 46}, {"time": 43602, "pitch": 70, "duration": 10, "velocity": 30}, {"time": 43683, "pitch": 36, "duration": 10, "velocity": 65}, {"time": 43683, "pitch": 70, "duration": 10, "velocity": 47}, {"time": 43843, "pitch": 38, "duration": 10, "velocity": 54}, {"time": 43923, "pitch": 36, "duration": 10, "velocity": 100}, {"time": 43923, "pitch": 42, "duration": 10, "velocity": 58}, {"time": 44162, "pitch": 38, "duration": 10, "velocity": 92}, {"time": 44162, "pitch": 40, "duration": 10, "velocity": 91}, {"time": 44162, "pitch": 46, "duration": 10, "velocity": 25}, {"time": 44401, "pitch": 36, "duration": 10, "velocity": 77}, {"time": 44401, "pitch": 42, "duration": 10, "velocity": 64}, {"time": 44561, "pitch": 38, "duration": 10, "velocity": 55}, {"time": 44641, "pitch": 36, "duration": 10, "velocity": 121}, {"time": 44641, "pitch": 42, "duration": 10, "velocity": 64}, {"time": 44800, "pitch": 42, "duration": 10, "velocity": 58}, {"time": 44880, "pitch": 36, "duration": 10, "velocity": 119}, {"time": 44880, "pitch": 70, "duration": 10, "velocity": 70}, {"time": 45039, "pitch": 36, "duration": 10, "velocity": 121}, {"time": 45039, "pitch": 42, "duration": 10, "velocity": 52}, {"time": 45119, "pitch": 38, "duration": 10, "velocity": 94}, {"time": 45119, "pitch": 40, "duration": 10, "velocity": 91}, {"time": 45279, "pitch": 42, "duration": 10, "velocity": 52}, {"time": 45359, "pitch": 36, "duration": 10, "velocity": 77}, {"time": 45518, "pitch": 38, "duration": 10, "velocity": 46}, {"time": 45518, "pitch": 42, "duration": 10, "velocity": 66}, {"time": 45598, "pitch": 36, "duration": 10, "velocity": 65}, {"time": 45598, "pitch": 70, "duration": 10, "velocity": 58}, {"time": 45757, "pitch": 38, "duration": 10, "velocity": 54}, {"time": 45757, "pitch": 70, "duration": 10, "velocity": 54}, {"time": 45837, "pitch": 36, "duration": 10, "velocity": 100}, {"time": 45837, "pitch": 42, "duration": 10, "velocity": 72}, {"time": 45837, "pitch": 62, "duration": 10, "velocity": 66}, {"time": 46077, "pitch": 38, "duration": 10, "velocity": 92}, {"time": 46077, "pitch": 40, "duration": 10, "velocity": 77}, {"time": 46077, "pitch": 42, "duration": 10, "velocity": 76}, {"time": 46077, "pitch": 63, "duration": 10, "velocity": 60}, {"time": 46239, "pitch": 42, "duration": 10, "velocity": 64}, {"time": 46320, "pitch": 36, "duration": 10, "velocity": 77}, {"time": 46320, "pitch": 46, "duration": 10, "velocity": 28}, {"time": 46320, "pitch": 64, "duration": 10, "velocity": 55}, {"time": 46482, "pitch": 38, "duration": 10, "velocity": 55}, {"time": 46563, "pitch": 36, "duration": 10, "velocity": 121}, {"time": 46563, "pitch": 42, "duration": 10, "velocity": 58}, {"time": 46802, "pitch": 36, "duration": 10, "velocity": 119}, {"time": 46802, "pitch": 42, "duration": 10, "velocity": 58}, {"time": 46962, "pitch": 36, "duration": 10, "velocity": 121}, {"time": 46962, "pitch": 42, "duration": 10, "velocity": 52}, {"time": 47041, "pitch": 38, "duration": 10, "velocity": 94}, {"time": 47041, "pitch": 40, "duration": 10, "velocity": 83}, {"time": 47201, "pitch": 42, "duration": 10, "velocity": 64}, {"time": 47281, "pitch": 36, "duration": 10, "velocity": 77}, {"time": 47281, "pitch": 70, "duration": 10, "velocity": 50}, {"time": 47440, "pitch": 38, "duration": 10, "velocity": 46}, {"time": 47440, "pitch": 70, "duration": 10, "velocity": 30}, {"time": 47520, "pitch": 36, "duration": 10, "velocity": 65}, {"time": 47520, "pitch": 70, "duration": 10, "velocity": 47}, {"time": 47680, "pitch": 38, "duration": 10, "velocity": 54}, {"time": 47759, "pitch": 36, "duration": 10, "velocity": 100}, {"time": 47759, "pitch": 42, "duration": 10, "velocity": 58}, {"time": 47999, "pitch": 38, "duration": 10, "velocity": 92}, {"time": 47999, "pitch": 40, "duration": 10, "velocity": 91}, {"time": 47999, "pitch": 46, "duration": 10, "velocity": 25}, {"time": 48238, "pitch": 36, "duration": 10, "velocity": 77}, {"time": 48238, "pitch": 42, "duration": 10, "velocity": 64}, {"time": 48398, "pitch": 38, "duration": 10, "velocity": 55}, {"time": 48477, "pitch": 36, "duration": 11, "velocity": 121}, {"time": 48477, "pitch": 42, "duration": 11, "velocity": 64}, {"time": 48640, "pitch": 42, "duration": 10, "velocity": 58}, {"time": 48721, "pitch": 36, "duration": 10, "velocity": 119}, {"time": 48721, "pitch": 70, "duration": 10, "velocity": 70}, {"time": 48883, "pitch": 36, "duration": 10, "velocity": 121}, {"time": 48883, "pitch": 42, "duration": 10, "velocity": 52}, {"time": 48964, "pitch": 38, "duration": 10, "velocity": 94}, {"time": 48964, "pitch": 40, "duration": 10, "velocity": 91}, {"time": 49123, "pitch": 42, "duration": 10, "velocity": 52}, {"time": 49203, "pitch": 36, "duration": 10, "velocity": 77}, {"time": 49363, "pitch": 38, "duration": 10, "velocity": 46}, {"time": 49363, "pitch": 42, "duration": 10, "velocity": 66}, {"time": 49442, "pitch": 36, "duration": 10, "velocity": 65}, {"time": 49442, "pitch": 70, "duration": 10, "velocity": 58}, {"time": 49602, "pitch": 38, "duration": 10, "velocity": 54}, {"time": 49602, "pitch": 70, "duration": 10, "velocity": 54}, {"time": 49682, "pitch": 36, "duration": 10, "velocity": 100}, {"time": 49682, "pitch": 42, "duration": 10, "velocity": 72}, {"time": 49682, "pitch": 62, "duration": 10, "velocity": 66}, {"time": 49921, "pitch": 38, "duration": 10, "velocity": 92}, {"time": 49921, "pitch": 40, "duration": 10, "velocity": 77}, {"time": 49921, "pitch": 42, "duration": 10, "velocity": 76}, {"time": 49921, "pitch": 63, "duration": 10, "velocity": 60}, {"time": 50081, "pitch": 42, "duration": 10, "velocity": 64}, {"time": 50160, "pitch": 36, "duration": 10, "velocity": 77}, {"time": 50160, "pitch": 46, "duration": 10, "velocity": 28}, {"time": 50160, "pitch": 64, "duration": 10, "velocity": 55}, {"time": 50320, "pitch": 38, "duration": 10, "velocity": 55}, {"time": 50400, "pitch": 36, "duration": 10, "velocity": 121}, {"time": 50400, "pitch": 42, "duration": 10, "velocity": 58}, {"time": 50639, "pitch": 36, "duration": 10, "velocity": 119}, {"time": 50639, "pitch": 42, "duration": 10, "velocity": 58}, {"time": 50799, "pitch": 36, "duration": 10, "velocity": 121}, {"time": 50799, "pitch": 42, "duration": 10, "velocity": 52}, {"time": 50878, "pitch": 38, "duration": 10, "velocity": 94}, {"time": 50878, "pitch": 40, "duration": 10, "velocity": 83}, {"time": 51038, "pitch": 42, "duration": 10, "velocity": 64}, {"time": 51118, "pitch": 36, "duration": 10, "velocity": 77}, {"time": 51118, "pitch": 70, "duration": 10, "velocity": 50}, {"time": 51277, "pitch": 38, "duration": 10, "velocity": 46}, {"time": 51277, "pitch": 70, "duration": 10, "velocity": 30}, {"time": 51357, "pitch": 36, "duration": 10, "velocity": 65}, {"time": 51357, "pitch": 70, "duration": 10, "velocity": 47}, {"time": 51519, "pitch": 38, "duration": 10, "velocity": 54}, {"time": 51600, "pitch": 36, "duration": 10, "velocity": 100}, {"time": 51600, "pitch": 42, "duration": 10, "velocity": 58}, {"time": 51843, "pitch": 38, "duration": 10, "velocity": 92}, {"time": 51843, "pitch": 40, "duration": 10, "velocity": 91}, {"time": 51843, "pitch": 46, "duration": 10, "velocity": 25}, {"time": 52083, "pitch": 36, "duration": 10, "velocity": 77}, {"time": 52083, "pitch": 42, "duration": 10, "velocity": 64}, {"time": 52242, "pitch": 38, "duration": 10, "velocity": 55}, {"time": 52322, "pitch": 36, "duration": 10, "velocity": 121}, {"time": 52322, "pitch": 42, "duration": 10, "velocity": 64}, {"time": 52481, "pitch": 42, "duration": 10, "velocity": 58}, {"time": 52561, "pitch": 36, "duration": 10, "velocity": 119}, {"time": 52561, "pitch": 70, "duration": 10, "velocity": 70}, {"time": 52721, "pitch": 36, "duration": 10, "velocity": 121}, {"time": 52721, "pitch": 42, "duration": 10, "velocity": 52}, {"time": 52801, "pitch": 38, "duration": 10, "velocity": 94}, {"time": 52801, "pitch": 40, "duration": 10, "velocity": 91}, {"time": 52960, "pitch": 42, "duration": 10, "velocity": 52}, {"time": 53040, "pitch": 36, "duration": 10, "velocity": 77}, {"time": 53199, "pitch": 38, "duration": 10, "velocity": 46}, {"time": 53199, "pitch": 42, "duration": 10, "velocity": 66}, {"time": 53279, "pitch": 36, "duration": 10, "velocity": 65}, {"time": 53279, "pitch": 70, "duration": 10, "velocity": 58}, {"time": 53439, "pitch": 38, "duration": 10, "velocity": 54}, {"time": 53439, "pitch": 70, "duration": 10, "velocity": 54}, {"time": 53519, "pitch": 36, "duration": 10, "velocity": 100}, {"time": 53519, "pitch": 42, "duration": 10, "velocity": 72}, {"time": 53519, "pitch": 62, "duration": 10, "velocity": 66}, {"time": 53758, "pitch": 38, "duration": 10, "velocity": 92}, {"time": 53758, "pitch": 40, "duration": 10, "velocity": 77}, {"time": 53758, "pitch": 42, "duration": 10, "velocity": 76}, {"time": 53758, "pitch": 63, "duration": 10, "velocity": 60}, {"time": 53918, "pitch": 42, "duration": 9, "velocity": 64}, {"time": 53997, "pitch": 36, "duration": 10, "velocity": 77}, {"time": 53997, "pitch": 46, "duration": 10, "velocity": 28}, {"time": 53997, "pitch": 64, "duration": 10, "velocity": 55}, {"time": 54157, "pitch": 38, "duration": 10, "velocity": 55}, {"time": 54237, "pitch": 36, "duration": 10, "velocity": 121}, {"time": 54237, "pitch": 42, "duration": 10, "velocity": 58}, {"time": 54480, "pitch": 36, "duration": 10, "velocity": 119}, {"time": 54480, "pitch": 42, "duration": 10, "velocity": 58}, {"time": 54642, "pitch": 36, "duration": 10, "velocity": 121}, {"time": 54642, "pitch": 42, "duration": 10, "velocity": 52}, {"time": 54723, "pitch": 38, "duration": 10, "velocity": 94}, {"time": 54723, "pitch": 40, "duration": 10, "velocity": 83}, {"time": 54882, "pitch": 42, "duration": 10, "velocity": 64}, {"time": 54962, "pitch": 36, "duration": 10, "velocity": 77}, {"time": 54962, "pitch": 70, "duration": 10, "velocity": 50}, {"time": 55122, "pitch": 38, "duration": 10, "velocity": 46}, {"time": 55122, "pitch": 70, "duration": 10, "velocity": 30}, {"time": 55201, "pitch": 36, "duration": 10, "velocity": 65}, {"time": 55201, "pitch": 70, "duration": 10, "velocity": 47}, {"time": 55361, "pitch": 38, "duration": 10, "velocity": 54}, {"time": 55441, "pitch": 36, "duration": 10, "velocity": 100}, {"time": 55441, "pitch": 42, "duration": 10, "velocity": 58}, {"time": 55680, "pitch": 38, "duration": 10, "velocity": 92}, {"time": 55680, "pitch": 40, "duration": 10, "velocity": 91}, {"time": 55680, "pitch": 46, "duration": 10, "velocity": 25}, {"time": 55919, "pitch": 36, "duration": 10, "velocity": 77}, {"time": 55919, "pitch": 42, "duration": 10, "velocity": 64}, {"time": 56079, "pitch": 38, "duration": 10, "velocity": 55}, {"time": 56159, "pitch": 36, "duration": 10, "velocity": 121}, {"time": 56159, "pitch": 42, "duration": 10, "velocity": 64}, {"time": 56318, "pitch": 42, "duration": 10, "velocity": 58}, {"time": 56398, "pitch": 36, "duration": 10, "velocity": 119}, {"time": 56398, "pitch": 70, "duration": 10, "velocity": 70}, {"time": 56558, "pitch": 36, "duration": 10, "velocity": 121}, {"time": 56558, "pitch": 42, "duration": 10, "velocity": 52}, {"time": 56638, "pitch": 38, "duration": 10, "velocity": 94}, {"time": 56638, "pitch": 40, "duration": 10, "velocity": 91}, {"time": 56800, "pitch": 42, "duration": 10, "velocity": 52}, {"time": 56881, "pitch": 36, "duration": 10, "velocity": 77}, {"time": 57043, "pitch": 38, "duration": 10, "velocity": 46}, {"time": 57043, "pitch": 42, "duration": 10, "velocity": 66}, {"time": 57124, "pitch": 36, "duration": 10, "velocity": 65}, {"time": 57124, "pitch": 70, "duration": 10, "velocity": 58}, {"time": 57283, "pitch": 38, "duration": 10, "velocity": 54}, {"time": 57283, "pitch": 70, "duration": 10, "velocity": 54}, {"time": 57363, "pitch": 36, "duration": 10, "velocity": 100}, {"time": 57363, "pitch": 42, "duration": 10, "velocity": 72}, {"time": 57363, "pitch": 62, "duration": 10, "velocity": 66}, {"time": 57602, "pitch": 38, "duration": 10, "velocity": 92}, {"time": 57602, "pitch": 40, "duration": 10, "velocity": 77}, {"time": 57602, "pitch": 42, "duration": 10, "velocity": 76}, {"time": 57602, "pitch": 63, "duration": 10, "velocity": 60}, {"time": 57762, "pitch": 42, "duration": 10, "velocity": 64}, {"time": 57842, "pitch": 36, "duration": 10, "velocity": 77}, {"time": 57842, "pitch": 46, "duration": 10, "velocity": 28}, {"time": 57842, "pitch": 64, "duration": 10, "velocity": 55}, {"time": 58001, "pitch": 38, "duration": 10, "velocity": 55}, {"time": 58081, "pitch": 36, "duration": 10, "velocity": 121}, {"time": 58081, "pitch": 42, "duration": 10, "velocity": 58}, {"time": 58320, "pitch": 36, "duration": 10, "velocity": 119}, {"time": 58320, "pitch": 42, "duration": 10, "velocity": 58}, {"time": 58480, "pitch": 36, "duration": 10, "velocity": 121}, {"time": 58480, "pitch": 42, "duration": 10, "velocity": 52}, {"time": 58560, "pitch": 38, "duration": 10, "velocity": 94}, {"time": 58560, "pitch": 40, "duration": 10, "velocity": 83}, {"time": 58719, "pitch": 42, "duration": 10, "velocity": 64}, {"time": 58799, "pitch": 36, "duration": 10, "velocity": 77}, {"time": 58799, "pitch": 70, "duration": 10, "velocity": 50}, {"time": 58959, "pitch": 38, "duration": 10, "velocity": 46}, {"time": 58959, "pitch": 70, "duration": 10, "velocity": 30}, {"time": 59038, "pitch": 36, "duration": 10, "velocity": 65}, {"time": 59038, "pitch": 70, "duration": 10, "velocity": 47}, {"time": 59198, "pitch": 38, "duration": 10, "velocity": 54}, {"time": 59278, "pitch": 36, "duration": 10, "velocity": 100}, {"time": 59278, "pitch": 42, "duration": 10, "velocity": 58}, {"time": 59517, "pitch": 38, "duration": 10, "velocity": 92}, {"time": 59517, "pitch": 40, "duration": 10, "velocity": 91}, {"time": 59517, "pitch": 46, "duration": 10, "velocity": 25}, {"time": 59760, "pitch": 36, "duration": 10, "velocity": 77}, {"time": 59760, "pitch": 42, "duration": 10, "velocity": 64}, {"time": 59922, "pitch": 38, "duration": 10, "velocity": 55}, {"time": 60003, "pitch": 36, "duration": 10, "velocity": 121}, {"time": 60003, "pitch": 42, "duration": 10, "velocity": 78}, {"time": 60243, "pitch": 36, "duration": 10, "velocity": 119}, {"time": 60243, "pitch": 42, "duration": 10, "velocity": 25}, {"time": 60402, "pitch": 42, "duration": 10, "velocity": 52}, {"time": 60482, "pitch": 38, "duration": 10, "velocity": 94}, {"time": 60482, "pitch": 42, "duration": 10, "velocity": 80}, {"time": 60641, "pitch": 42, "duration": 10, "velocity": 64}, {"time": 60721, "pitch": 36, "duration": 10, "velocity": 77}, {"time": 60721, "pitch": 42, "duration": 10, "velocity": 46}, {"time": 60721, "pitch": 70, "duration": 10, "velocity": 50}, {"time": 60881, "pitch": 38, "duration": 10, "velocity": 46}, {"time": 60881, "pitch": 70, "duration": 10, "velocity": 30}, {"time": 60961, "pitch": 36, "duration": 10, "velocity": 65}, {"time": 60961, "pitch": 42, "duration": 10, "velocity": 79}, {"time": 60961, "pitch": 70, "duration": 10, "velocity": 47}, {"time": 61120, "pitch": 38, "duration": 10, "velocity": 54}, {"time": 61200, "pitch": 36, "duration": 10, "velocity": 100}, {"time": 61200, "pitch": 42, "duration": 10, "velocity": 58}, {"time": 61200, "pitch": 46, "duration": 10, "velocity": 46}, {"time": 61439, "pitch": 38, "duration": 10, "velocity": 92}, {"time": 61439, "pitch": 42, "duration": 10, "velocity": 89}, {"time": 61679, "pitch": 36, "duration": 10, "velocity": 77}, {"time": 61679, "pitch": 42, "duration": 10, "velocity": 46}, {"time": 61838, "pitch": 38, "duration": 10, "velocity": 32}, {"time": 61878, "pitch": 38, "duration": 10, "velocity": 34}, {"time": 61918, "pitch": 36, "duration": 10, "velocity": 121}, {"time": 61918, "pitch": 42, "duration": 10, "velocity": 64}, {"time": 62078, "pitch": 42, "duration": 9, "velocity": 58}, {"time": 62157, "pitch": 36, "duration": 10, "velocity": 119}, {"time": 62157, "pitch": 42, "duration": 10, "velocity": 58}, {"time": 62157, "pitch": 70, "duration": 10, "velocity": 70}, {"time": 62317, "pitch": 42, "duration": 10, "velocity": 52}, {"time": 62397, "pitch": 38, "duration": 10, "velocity": 94}, {"time": 62397, "pitch": 42, "duration": 10, "velocity": 87}, {"time": 62559, "pitch": 42, "duration": 10, "velocity": 52}, {"time": 62640, "pitch": 36, "duration": 10, "velocity": 77}, {"time": 62640, "pitch": 42, "duration": 10, "velocity": 29}, {"time": 62802, "pitch": 38, "duration": 10, "velocity": 46}, {"time": 62802, "pitch": 42, "duration": 10, "velocity": 66}, {"time": 62883, "pitch": 36, "duration": 10, "velocity": 65}, {"time": 62883, "pitch": 42, "duration": 10, "velocity": 89}, {"time": 62883, "pitch": 70, "duration": 10, "velocity": 58}, {"time": 63042, "pitch": 38, "duration": 10, "velocity": 54}, {"time": 63042, "pitch": 70, "duration": 10, "velocity": 54}, {"time": 63122, "pitch": 36, "duration": 10, "velocity": 100}, {"time": 63122, "pitch": 46, "duration": 10, "velocity": 39}, {"time": 63122, "pitch": 62, "duration": 10, "velocity": 66}, {"time": 63361, "pitch": 38, "duration": 10, "velocity": 92}, {"time": 63361, "pitch": 42, "duration": 10, "velocity": 58}, {"time": 63361, "pitch": 63, "duration": 10, "velocity": 60}, {"time": 63521, "pitch": 42, "duration": 10, "velocity": 64}, {"time": 63601, "pitch": 36, "duration": 10, "velocity": 77}, {"time": 63601, "pitch": 46, "duration": 10, "velocity": 28}, {"time": 63601, "pitch": 64, "duration": 10, "velocity": 55}, {"time": 63760, "pitch": 38, "duration": 10, "velocity": 32}, {"time": 63800, "pitch": 38, "duration": 10, "velocity": 34}, {"time": 63840, "pitch": 36, "duration": 10, "velocity": 121}, {"time": 63840, "pitch": 42, "duration": 10, "velocity": 78}, {"time": 64080, "pitch": 36, "duration": 9, "velocity": 119}, {"time": 64080, "pitch": 42, "duration": 9, "velocity": 25}, {"time": 64239, "pitch": 42, "duration": 10, "velocity": 52}, {"time": 64319, "pitch": 38, "duration": 10, "velocity": 94}, {"time": 64319, "pitch": 42, "duration": 10, "velocity": 80}, {"time": 64478, "pitch": 42, "duration": 10, "velocity": 64}, {"time": 64558, "pitch": 36, "duration": 10, "velocity": 77}, {"time": 64558, "pitch": 42, "duration": 10, "velocity": 46}, {"time": 64558, "pitch": 70, "duration": 10, "velocity": 50}, {"time": 64718, "pitch": 38, "duration": 10, "velocity": 46}, {"time": 64718, "pitch": 70, "duration": 10, "velocity": 30}, {"time": 64798, "pitch": 36, "duration": 10, "velocity": 65}, {"time": 64798, "pitch": 42, "duration": 10, "velocity": 79}, {"time": 64798, "pitch": 70, "duration": 10, "velocity": 47}, {"time": 64960, "pitch": 38, "duration": 10, "velocity": 54}, {"time": 65041, "pitch": 36, "duration": 10, "velocity": 100}, {"time": 65041, "pitch": 42, "duration": 10, "velocity": 58}, {"time": 65041, "pitch": 46, "duration": 10, "velocity": 46}, {"time": 65284, "pitch": 38, "duration": 10, "velocity": 92}, {"time": 65284, "pitch": 42, "duration": 10, "velocity": 89}, {"time": 65523, "pitch": 36, "duration": 10, "velocity": 77}, {"time": 65523, "pitch": 42, "duration": 10, "velocity": 46}, {"time": 65683, "pitch": 38, "duration": 10, "velocity": 32}, {"time": 65722, "pitch": 38, "duration": 10, "velocity": 34}, {"time": 65762, "pitch": 36, "duration": 10, "velocity": 121}, {"time": 65762, "pitch": 42, "duration": 10, "velocity": 64}, {"time": 65922, "pitch": 42, "duration": 10, "velocity": 58}, {"time": 66002, "pitch": 36, "duration": 10, "velocity": 119}, {"time": 66002, "pitch": 42, "duration": 10, "velocity": 58}, {"time": 66002, "pitch": 70, "duration": 10, "velocity": 70}, {"time": 66161, "pitch": 42, "duration": 10, "velocity": 52}, {"time": 66241, "pitch": 38, "duration": 10, "velocity": 94}, {"time": 66241, "pitch": 42, "duration": 10, "velocity": 87}, {"time": 66401, "pitch": 42, "duration": 10, "velocity": 52}, {"time": 66480, "pitch": 36, "duration": 10, "velocity": 77}, {"time": 66480, "pitch": 42, "duration": 10, "velocity": 29}, {"time": 66640, "pitch": 38, "duration": 10, "velocity": 46}, {"time": 66640, "pitch": 42, "duration": 10, "velocity": 66}, {"time": 66720, "pitch": 36, "duration": 10, "velocity": 65}, {"time": 66720, "pitch": 42, "duration": 10, "velocity": 89}, {"time": 66720, "pitch": 70, "duration": 10, "velocity": 58}, {"time": 66879, "pitch": 38, "duration": 10, "velocity": 54}, {"time": 66879, "pitch": 70, "duration": 10, "velocity": 54}, {"time": 66959, "pitch": 36, "duration": 10, "velocity": 100}, {"time": 66959, "pitch": 46, "duration": 10, "velocity": 39}, {"time": 66959, "pitch": 62, "duration": 10, "velocity": 66}, {"time": 67198, "pitch": 38, "duration": 10, "velocity": 92}, {"time": 67198, "pitch": 42, "duration": 10, "velocity": 58}, {"time": 67198, "pitch": 63, "duration": 10, "velocity": 60}, {"time": 67358, "pitch": 42, "duration": 10, "velocity": 64}, {"time": 67438, "pitch": 36, "duration": 10, "velocity": 77}, {"time": 67438, "pitch": 46, "duration": 10, "velocity": 28}, {"time": 67438, "pitch": 64, "duration": 10, "velocity": 55}, {"time": 67597, "pitch": 38, "duration": 10, "velocity": 32}, {"time": 67637, "pitch": 38, "duration": 10, "velocity": 34}, {"time": 67677, "pitch": 36, "duration": 10, "velocity": 121}, {"time": 67677, "pitch": 42, "duration": 10, "velocity": 78}, {"time": 67920, "pitch": 36, "duration": 10, "velocity": 119}, {"time": 67920, "pitch": 42, "duration": 10, "velocity": 25}, {"time": 68163, "pitch": 38, "duration": 10, "velocity": 94}, {"time": 68163, "pitch": 42, "duration": 10, "velocity": 80}, {"time": 68403, "pitch": 36, "duration": 10, "velocity": 77}, {"time": 68403, "pitch": 42, "duration": 10, "velocity": 46}, {"time": 68403, "pitch": 70, "duration": 10, "velocity": 50}, {"time": 68562, "pitch": 38, "duration": 10, "velocity": 46}, {"time": 68562, "pitch": 70, "duration": 10, "velocity": 30}, {"time": 68642, "pitch": 36, "duration": 10, "velocity": 65}, {"time": 68642, "pitch": 42, "duration": 10, "velocity": 79}, {"time": 68642, "pitch": 70, "duration": 10, "velocity": 47}, {"time": 68802, "pitch": 38, "duration": 9, "velocity": 54}, {"time": 68881, "pitch": 36, "duration": 10, "velocity": 100}, {"time": 68881, "pitch": 46, "duration": 10, "velocity": 46}, {"time": 69121, "pitch": 38, "duration": 10, "velocity": 92}, {"time": 69121, "pitch": 42, "duration": 10, "velocity": 89}, {"time": 69360, "pitch": 36, "duration": 10, "velocity": 77}, {"time": 69360, "pitch": 42, "duration": 10, "velocity": 46}, {"time": 69520, "pitch": 38, "duration": 9, "velocity": 32}, {"time": 69559, "pitch": 38, "duration": 10, "velocity": 34}, {"time": 69599, "pitch": 36, "duration": 10, "velocity": 121}, {"time": 69599, "pitch": 42, "duration": 10, "velocity": 64}, {"time": 69839, "pitch": 36, "duration": 10, "velocity": 119}, {"time": 69839, "pitch": 42, "duration": 10, "velocity": 58}, {"time": 69839, "pitch": 70, "duration": 10, "velocity": 70}, {"time": 70078, "pitch": 38, "duration": 10, "velocity": 94}, {"time": 70078, "pitch": 42, "duration": 10, "velocity": 87}, {"time": 70317, "pitch": 36, "duration": 10, "velocity": 77}, {"time": 70317, "pitch": 42, "duration": 10, "velocity": 29}, {"time": 70477, "pitch": 38, "duration": 10, "velocity": 46}, {"time": 70557, "pitch": 36, "duration": 10, "velocity": 65}, {"time": 70557, "pitch": 42, "duration": 10, "velocity": 89}, {"time": 70557, "pitch": 70, "duration": 10, "velocity": 58}, {"time": 70719, "pitch": 38, "duration": 10, "velocity": 54}, {"time": 70719, "pitch": 70, "duration": 10, "velocity": 54}, {"time": 70800, "pitch": 36, "duration": 10, "velocity": 100}, {"time": 70800, "pitch": 46, "duration": 10, "velocity": 39}, {"time": 70800, "pitch": 62, "duration": 10, "velocity": 66}, {"time": 71043, "pitch": 38, "duration": 10, "velocity": 92}, {"time": 71043, "pitch": 42, "duration": 10, "velocity": 58}, {"time": 71043, "pitch": 63, "duration": 10, "velocity": 60}, {"time": 71282, "pitch": 36, "duration": 10, "velocity": 77}, {"time": 71282, "pitch": 64, "duration": 10, "velocity": 55}, {"time": 71442, "pitch": 38, "duration": 10, "velocity": 32}, {"time": 71482, "pitch": 38, "duration": 10, "velocity": 34}, {"time": 71522, "pitch": 36, "duration": 9, "velocity": 121}, {"time": 71522, "pitch": 42, "duration": 9, "velocity": 78}, {"time": 71761, "pitch": 36, "duration": 10, "velocity": 119}, {"time": 71761, "pitch": 42, "duration": 10, "velocity": 25}, {"time": 72000, "pitch": 38, "duration": 10, "velocity": 94}, {"time": 72000, "pitch": 42, "duration": 10, "velocity": 80}, {"time": 72240, "pitch": 36, "duration": 10, "velocity": 77}, {"time": 72240, "pitch": 42, "duration": 10, "velocity": 46}, {"time": 72240, "pitch": 70, "duration": 10, "velocity": 50}, {"time": 72399, "pitch": 38, "duration": 10, "velocity": 46}, {"time": 72399, "pitch": 70, "duration": 10, "velocity": 30}, {"time": 72479, "pitch": 36, "duration": 10, "velocity": 65}, {"time": 72479, "pitch": 42, "duration": 10, "velocity": 79}, {"time": 72479, "pitch": 70, "duration": 10, "velocity": 47}, {"time": 72638, "pitch": 38, "duration": 10, "velocity": 54}, {"time": 72718, "pitch": 36, "duration": 10, "velocity": 100}, {"time": 72718, "pitch": 46, "duration": 10, "velocity": 46}, {"time": 72958, "pitch": 38, "duration": 10, "velocity": 92}, {"time": 72958, "pitch": 42, "duration": 10, "velocity": 89}, {"time": 73201, "pitch": 36, "duration": 10, "velocity": 77}, {"time": 73201, "pitch": 42, "duration": 10, "velocity": 46}, {"time": 73363, "pitch": 38, "duration": 10, "velocity": 32}, {"time": 73403, "pitch": 38, "duration": 10, "velocity": 34}, {"time": 73444, "pitch": 36, "duration": 10, "velocity": 121}, {"time": 73444, "pitch": 42, "duration": 10, "velocity": 64}, {"time": 73683, "pitch": 36, "duration": 10, "velocity": 119}, {"time": 73683, "pitch": 42, "duration": 10, "velocity": 58}, {"time": 73683, "pitch": 70, "duration": 10, "velocity": 70}, {"time": 73922, "pitch": 38, "duration": 10, "velocity": 94}, {"time": 73922, "pitch": 42, "duration": 10, "velocity": 87}, {"time": 74162, "pitch": 36, "duration": 10, "velocity": 77}, {"time": 74162, "pitch": 42, "duration": 10, "velocity": 29}, {"time": 74321, "pitch": 38, "duration": 10, "velocity": 46}, {"time": 74401, "pitch": 36, "duration": 10, "velocity": 65}, {"time": 74401, "pitch": 42, "duration": 10, "velocity": 89}, {"time": 74401, "pitch": 70, "duration": 10, "velocity": 58}, {"time": 74561, "pitch": 38, "duration": 10, "velocity": 54}, {"time": 74561, "pitch": 70, "duration": 10, "velocity": 54}, {"time": 74640, "pitch": 36, "duration": 10, "velocity": 100}, {"time": 74640, "pitch": 46, "duration": 10, "velocity": 39}, {"time": 74640, "pitch": 62, "duration": 10, "velocity": 66}, {"time": 74880, "pitch": 38, "duration": 10, "velocity": 92}, {"time": 74880, "pitch": 42, "duration": 10, "velocity": 58}, {"time": 74880, "pitch": 63, "duration": 10, "velocity": 60}, {"time": 75119, "pitch": 36, "duration": 10, "velocity": 77}, {"time": 75119, "pitch": 64, "duration": 10, "velocity": 55}, {"time": 75279, "pitch": 38, "duration": 10, "velocity": 32}, {"time": 75319, "pitch": 38, "duration": 10, "velocity": 34}, {"time": 75358, "pitch": 36, "duration": 10, "velocity": 121}, {"time": 75358, "pitch": 42, "duration": 10, "velocity": 78}, {"time": 75598, "pitch": 36, "duration": 10, "velocity": 119}, {"time": 75598, "pitch": 42, "duration": 10, "velocity": 25}, {"time": 75837, "pitch": 38, "duration": 10, "velocity": 94}, {"time": 75837, "pitch": 42, "duration": 10, "velocity": 80}, {"time": 76080, "pitch": 36, "duration": 10, "velocity": 77}, {"time": 76080, "pitch": 42, "duration": 10, "velocity": 46}, {"time": 76080, "pitch": 70, "duration": 10, "velocity": 50}, {"time": 76242, "pitch": 38, "duration": 10, "velocity": 46}, {"time": 76242, "pitch": 70, "duration": 10, "velocity": 30}, {"time": 76323, "pitch": 36, "duration": 10, "velocity": 65}, {"time": 76323, "pitch": 42, "duration": 10, "velocity": 79}, {"time": 76323, "pitch": 70, "duration": 10, "velocity": 47}, {"time": 76483, "pitch": 38, "duration": 10, "velocity": 54}, {"time": 76563, "pitch": 36, "duration": 10, "velocity": 100}, {"time": 76563, "pitch": 46, "duration": 10, "velocity": 46}, {"time": 76802, "pitch": 38, "duration": 10, "velocity": 92}, {"time": 76802, "pitch": 42, "duration": 10, "velocity": 89}, {"time": 77041, "pitch": 36, "duration": 10, "velocity": 77}, {"time": 77041, "pitch": 42, "duration": 10, "velocity": 46}, {"time": 77201, "pitch": 38, "duration": 10, "velocity": 55}, {"time": 77281, "pitch": 36, "duration": 10, "velocity": 121}, {"time": 77281, "pitch": 42, "duration": 10, "velocity": 64}, {"time": 77520, "pitch": 36, "duration": 10, "velocity": 119}, {"time": 77520, "pitch": 42, "duration": 10, "velocity": 58}, {"time": 77520, "pitch": 70, "duration": 10, "velocity": 70}, {"time": 77759, "pitch": 38, "duration": 10, "velocity": 94}, {"time": 77759, "pitch": 42, "duration": 10, "velocity": 87}, {"time": 77999, "pitch": 36, "duration": 10, "velocity": 77}, {"time": 77999, "pitch": 42, "duration": 10, "velocity": 29}, {"time": 78158, "pitch": 38, "duration": 10, "velocity": 46}, {"time": 78238, "pitch": 36, "duration": 10, "velocity": 65}, {"time": 78238, "pitch": 42, "duration": 10, "velocity": 89}, {"time": 78238, "pitch": 70, "duration": 10, "velocity": 58}, {"time": 78398, "pitch": 38, "duration": 10, "velocity": 54}, {"time": 78398, "pitch": 70, "duration": 10, "velocity": 54}, {"time": 78477, "pitch": 36, "duration": 10, "velocity": 100}, {"time": 78477, "pitch": 46, "duration": 10, "velocity": 39}, {"time": 78477, "pitch": 62, "duration": 10, "velocity": 66}, {"time": 78717, "pitch": 38, "duration": 10, "velocity": 92}, {"time": 78717, "pitch": 42, "duration": 10, "velocity": 58}, {"time": 78717, "pitch": 63, "duration": 10, "velocity": 60}, {"time": 78960, "pitch": 36, "duration": 10, "velocity": 77}, {"time": 78960, "pitch": 64, "duration": 10, "velocity": 55}, {"time": 79122, "pitch": 38, "duration": 10, "velocity": 32}, {"time": 79162, "pitch": 38, "duration": 11, "velocity": 34}, {"time": 79203, "pitch": 36, "duration": 10, "velocity": 121}, {"time": 79203, "pitch": 42, "duration": 10, "velocity": 78}, {"time": 79442, "pitch": 36, "duration": 10, "velocity": 119}, {"time": 79442, "pitch": 42, "duration": 10, "velocity": 25}, {"time": 79682, "pitch": 38, "duration": 10, "velocity": 94}, {"time": 79682, "pitch": 42, "duration": 10, "velocity": 80}, {"time": 79921, "pitch": 36, "duration": 10, "velocity": 77}, {"time": 79921, "pitch": 42, "duration": 10, "velocity": 46}, {"time": 79921, "pitch": 70, "duration": 10, "velocity": 50}, {"time": 80080, "pitch": 38, "duration": 10, "velocity": 46}, {"time": 80080, "pitch": 70, "duration": 10, "velocity": 30}, {"time": 80160, "pitch": 36, "duration": 10, "velocity": 65}, {"time": 80160, "pitch": 42, "duration": 10, "velocity": 79}, {"time": 80160, "pitch": 70, "duration": 10, "velocity": 47}, {"time": 80320, "pitch": 38, "duration": 10, "velocity": 54}, {"time": 80400, "pitch": 36, "duration": 10, "velocity": 100}, {"time": 80400, "pitch": 46, "duration": 10, "velocity": 46}, {"time": 80639, "pitch": 38, "duration": 10, "velocity": 92}, {"time": 80639, "pitch": 42, "duration": 10, "velocity": 89}, {"time": 80878, "pitch": 36, "duration": 10, "velocity": 77}, {"time": 80878, "pitch": 42, "duration": 10, "velocity": 46}, {"time": 81038, "pitch": 38, "duration": 10, "velocity": 55}, {"time": 81118, "pitch": 36, "duration": 10, "velocity": 121}, {"time": 81118, "pitch": 42, "duration": 10, "velocity": 64}, {"time": 81357, "pitch": 36, "duration": 10, "velocity": 119}, {"time": 81357, "pitch": 42, "duration": 10, "velocity": 58}, {"time": 81357, "pitch": 70, "duration": 10, "velocity": 70}, {"time": 81596, "pitch": 38, "duration": 10, "velocity": 94}, {"time": 81596, "pitch": 42, "duration": 10, "velocity": 87}, {"time": 81839, "pitch": 36, "duration": 10, "velocity": 77}, {"time": 81839, "pitch": 42, "duration": 10, "velocity": 29}, {"time": 82001, "pitch": 38, "duration": 11, "velocity": 46}, {"time": 82082, "pitch": 36, "duration": 10, "velocity": 65}, {"time": 82082, "pitch": 42, "duration": 10, "velocity": 89}, {"time": 82082, "pitch": 70, "duration": 10, "velocity": 58}, {"time": 82242, "pitch": 38, "duration": 10, "velocity": 54}, {"time": 82242, "pitch": 70, "duration": 10, "velocity": 54}, {"time": 82322, "pitch": 36, "duration": 10, "velocity": 100}, {"time": 82322, "pitch": 46, "duration": 10, "velocity": 39}, {"time": 82322, "pitch": 62, "duration": 10, "velocity": 66}, {"time": 82561, "pitch": 38, "duration": 10, "velocity": 92}, {"time": 82561, "pitch": 42, "duration": 10, "velocity": 58}, {"time": 82561, "pitch": 63, "duration": 10, "velocity": 60}, {"time": 82800, "pitch": 36, "duration": 10, "velocity": 77}, {"time": 82800, "pitch": 64, "duration": 10, "velocity": 55}, {"time": 82960, "pitch": 38, "duration": 10, "velocity": 32}, {"time": 83000, "pitch": 38, "duration": 10, "velocity": 34}, {"time": 83040, "pitch": 36, "duration": 10, "velocity": 121}, {"time": 83040, "pitch": 42, "duration": 10, "velocity": 78}, {"time": 83279, "pitch": 36, "duration": 10, "velocity": 119}, {"time": 83279, "pitch": 42, "duration": 10, "velocity": 25}, {"time": 83439, "pitch": 42, "duration": 10, "velocity": 52}, {"time": 83518, "pitch": 38, "duration": 10, "velocity": 94}, {"time": 83518, "pitch": 42, "duration": 10, "velocity": 80}, {"time": 83678, "pitch": 42, "duration": 10, "velocity": 64}, {"time": 83758, "pitch": 36, "duration": 10, "velocity": 77}, {"time": 83758, "pitch": 42, "duration": 10, "velocity": 46}, {"time": 83758, "pitch": 70, "duration": 10, "velocity": 50}, {"time": 83917, "pitch": 38, "duration": 10, "velocity": 46}, {"time": 83917, "pitch": 70, "duration": 10, "velocity": 30}, {"time": 83997, "pitch": 36, "duration": 10, "velocity": 65}, {"time": 83997, "pitch": 42, "duration": 10, "velocity": 79}, {"time": 83997, "pitch": 70, "duration": 10, "velocity": 47}, {"time": 84159, "pitch": 38, "duration": 10, "velocity": 54}, {"time": 84240, "pitch": 36, "duration": 10, "velocity": 100}, {"time": 84240, "pitch": 46, "duration": 10, "velocity": 46}, {"time": 84483, "pitch": 38, "duration": 10, "velocity": 92}, {"time": 84483, "pitch": 42, "duration": 10, "velocity": 89}, {"time": 84723, "pitch": 36, "duration": 10, "velocity": 77}, {"time": 84723, "pitch": 42, "duration": 10, "velocity": 46}, {"time": 84882, "pitch": 38, "duration": 10, "velocity": 55}, {"time": 84962, "pitch": 36, "duration": 10, "velocity": 121}, {"time": 84962, "pitch": 42, "duration": 10, "velocity": 64}, {"time": 85122, "pitch": 42, "duration": 10, "velocity": 58}, {"time": 85201, "pitch": 36, "duration": 10, "velocity": 119}, {"time": 85201, "pitch": 42, "duration": 10, "velocity": 58}, {"time": 85201, "pitch": 70, "duration": 10, "velocity": 70}, {"time": 85361, "pitch": 42, "duration": 10, "velocity": 52}, {"time": 85441, "pitch": 38, "duration": 10, "velocity": 94}, {"time": 85441, "pitch": 42, "duration": 10, "velocity": 87}, {"time": 85600, "pitch": 42, "duration": 10, "velocity": 52}, {"time": 85680, "pitch": 36, "duration": 10, "velocity": 77}, {"time": 85680, "pitch": 42, "duration": 10, "velocity": 29}, {"time": 85840, "pitch": 38, "duration": 10, "velocity": 46}, {"time": 85840, "pitch": 42, "duration": 10, "velocity": 66}, {"time": 85919, "pitch": 36, "duration": 10, "velocity": 65}, {"time": 85919, "pitch": 42, "duration": 10, "velocity": 89}, {"time": 85919, "pitch": 70, "duration": 10, "velocity": 58}, {"time": 86079, "pitch": 38, "duration": 10, "velocity": 54}, {"time": 86079, "pitch": 70, "duration": 10, "velocity": 54}, {"time": 86159, "pitch": 36, "duration": 10, "velocity": 100}, {"time": 86159, "pitch": 46, "duration": 10, "velocity": 39}, {"time": 86159, "pitch": 62, "duration": 10, "velocity": 66}, {"time": 86398, "pitch": 38, "duration": 10, "velocity": 92}, {"time": 86398, "pitch": 42, "duration": 10, "velocity": 58}, {"time": 86398, "pitch": 63, "duration": 10, "velocity": 60}, {"time": 86558, "pitch": 42, "duration": 10, "velocity": 64}, {"time": 86637, "pitch": 36, "duration": 10, "velocity": 77}, {"time": 86637, "pitch": 64, "duration": 10, "velocity": 55}, {"time": 86797, "pitch": 38, "duration": 10, "velocity": 55}, {"time": 86877, "pitch": 36, "duration": 10, "velocity": 121}, {"time": 86877, "pitch": 42, "duration": 10, "velocity": 78}, {"time": 87120, "pitch": 36, "duration": 10, "velocity": 119}, {"time": 87120, "pitch": 42, "duration": 10, "velocity": 25}, {"time": 87282, "pitch": 42, "duration": 10, "velocity": 52}, {"time": 87363, "pitch": 38, "duration": 10, "velocity": 94}, {"time": 87363, "pitch": 42, "duration": 10, "velocity": 80}, {"time": 87522, "pitch": 42, "duration": 10, "velocity": 64}, {"time": 87602, "pitch": 36, "duration": 10, "velocity": 77}, {"time": 87602, "pitch": 42, "duration": 10, "velocity": 46}, {"time": 87602, "pitch": 70, "duration": 10, "velocity": 50}, {"time": 87762, "pitch": 38, "duration": 10, "velocity": 46}, {"time": 87762, "pitch": 70, "duration": 10, "velocity": 30}, {"time": 87842, "pitch": 36, "duration": 10, "velocity": 65}, {"time": 87842, "pitch": 42, "duration": 10, "velocity": 79}, {"time": 87842, "pitch": 70, "duration": 10, "velocity": 47}, {"time": 88001, "pitch": 38, "duration": 10, "velocity": 54}, {"time": 88081, "pitch": 36, "duration": 10, "velocity": 100}, {"time": 88081, "pitch": 46, "duration": 10, "velocity": 46}, {"time": 88320, "pitch": 38, "duration": 10, "velocity": 92}, {"time": 88320, "pitch": 42, "duration": 10, "velocity": 89}, {"time": 88560, "pitch": 36, "duration": 10, "velocity": 77}, {"time": 88560, "pitch": 42, "duration": 10, "velocity": 46}, {"time": 88719, "pitch": 38, "duration": 10, "velocity": 55}, {"time": 88799, "pitch": 36, "duration": 10, "velocity": 121}, {"time": 88799, "pitch": 42, "duration": 10, "velocity": 64}, {"time": 88958, "pitch": 42, "duration": 10, "velocity": 58}, {"time": 89038, "pitch": 36, "duration": 10, "velocity": 119}, {"time": 89038, "pitch": 42, "duration": 10, "velocity": 58}, {"time": 89038, "pitch": 70, "duration": 10, "velocity": 70}, {"time": 89198, "pitch": 42, "duration": 10, "velocity": 52}, {"time": 89278, "pitch": 38, "duration": 10, "velocity": 94}, {"time": 89278, "pitch": 42, "duration": 10, "velocity": 87}, {"time": 89437, "pitch": 42, "duration": 10, "velocity": 52}, {"time": 89517, "pitch": 36, "duration": 10, "velocity": 77}, {"time": 89517, "pitch": 42, "duration": 10, "velocity": 29}, {"time": 89676, "pitch": 38, "duration": 10, "velocity": 46}, {"time": 89676, "pitch": 42, "duration": 10, "velocity": 66}, {"time": 89756, "pitch": 36, "duration": 10, "velocity": 65}, {"time": 89756, "pitch": 42, "duration": 10, "velocity": 89}, {"time": 89756, "pitch": 70, "duration": 10, "velocity": 58}, {"time": 89918, "pitch": 38, "duration": 10, "velocity": 54}, {"time": 89918, "pitch": 70, "duration": 10, "velocity": 54}, {"time": 89999, "pitch": 36, "duration": 10, "velocity": 100}, {"time": 89999, "pitch": 46, "duration": 10, "velocity": 39}, {"time": 89999, "pitch": 62, "duration": 10, "velocity": 66}, {"time": 90242, "pitch": 38, "duration": 10, "velocity": 92}, {"time": 90242, "pitch": 42, "duration": 10, "velocity": 58}, {"time": 90242, "pitch": 63, "duration": 10, "velocity": 60}, {"time": 90402, "pitch": 42, "duration": 10, "velocity": 64}, {"time": 90482, "pitch": 36, "duration": 10, "velocity": 77}, {"time": 90482, "pitch": 64, "duration": 10, "velocity": 55}, {"time": 90641, "pitch": 38, "duration": 10, "velocity": 55}, {"time": 90721, "pitch": 36, "duration": 10, "velocity": 121}, {"time": 90721, "pitch": 42, "duration": 10, "velocity": 78}, {"time": 90960, "pitch": 36, "duration": 10, "velocity": 119}, {"time": 90960, "pitch": 42, "duration": 10, "velocity": 25}, {"time": 91120, "pitch": 42, "duration": 10, "velocity": 52}, {"time": 91200, "pitch": 38, "duration": 10, "velocity": 94}, {"time": 91200, "pitch": 42, "duration": 10, "velocity": 80}, {"time": 91359, "pitch": 42, "duration": 10, "velocity": 64}, {"time": 91439, "pitch": 36, "duration": 10, "velocity": 77}, {"time": 91439, "pitch": 42, "duration": 10, "velocity": 46}, {"time": 91439, "pitch": 70, "duration": 10, "velocity": 50}, {"time": 91599, "pitch": 38, "duration": 10, "velocity": 46}, {"time": 91599, "pitch": 70, "duration": 10, "velocity": 30}, {"time": 91678, "pitch": 36, "duration": 10, "velocity": 65}, {"time": 91678, "pitch": 42, "duration": 10, "velocity": 79}, {"time": 91678, "pitch": 70, "duration": 10, "velocity": 47}, {"time": 91838, "pitch": 38, "duration": 10, "velocity": 54}, {"time": 91918, "pitch": 36, "duration": 10, "velocity": 100}, {"time": 91918, "pitch": 46, "duration": 10, "velocity": 46}, {"time": 92157, "pitch": 38, "duration": 10, "velocity": 92}, {"time": 92157, "pitch": 42, "duration": 10, "velocity": 89}, {"time": 92400, "pitch": 36, "duration": 10, "velocity": 77}, {"time": 92400, "pitch": 42, "duration": 10, "velocity": 46}, {"time": 92562, "pitch": 38, "duration": 10, "velocity": 55}, {"time": 92643, "pitch": 36, "duration": 10, "velocity": 121}, {"time": 92643, "pitch": 42, "duration": 10, "velocity": 64}, {"time": 92803, "pitch": 42, "duration": 10, "velocity": 58}, {"time": 92883, "pitch": 36, "duration": 10, "velocity": 119}, {"time": 92883, "pitch": 42, "duration": 10, "velocity": 58}, {"time": 92883, "pitch": 70, "duration": 10, "velocity": 70}, {"time": 93042, "pitch": 42, "duration": 10, "velocity": 52}, {"time": 93122, "pitch": 38, "duration": 10, "velocity": 94}, {"time": 93122, "pitch": 42, "duration": 10, "velocity": 87}, {"time": 93282, "pitch": 42, "duration": 10, "velocity": 52}, {"time": 93361, "pitch": 36, "duration": 10, "velocity": 77}, {"time": 93361, "pitch": 42, "duration": 10, "velocity": 29}, {"time": 93521, "pitch": 38, "duration": 10, "velocity": 46}, {"time": 93521, "pitch": 42, "duration": 10, "velocity": 66}, {"time": 93601, "pitch": 36, "duration": 10, "velocity": 65}, {"time": 93601, "pitch": 42, "duration": 10, "velocity": 89}, {"time": 93601, "pitch": 70, "duration": 10, "velocity": 58}, {"time": 93760, "pitch": 38, "duration": 10, "velocity": 54}, {"time": 93760, "pitch": 70, "duration": 10, "velocity": 54}, {"time": 93840, "pitch": 36, "duration": 10, "velocity": 100}, {"time": 93840, "pitch": 46, "duration": 10, "velocity": 39}, {"time": 93840, "pitch": 62, "duration": 10, "velocity": 66}, {"time": 94079, "pitch": 38, "duration": 10, "velocity": 92}, {"time": 94079, "pitch": 42, "duration": 10, "velocity": 58}, {"time": 94079, "pitch": 63, "duration": 10, "velocity": 60}, {"time": 94239, "pitch": 42, "duration": 10, "velocity": 64}, {"time": 94319, "pitch": 36, "duration": 10, "velocity": 77}, {"time": 94319, "pitch": 64, "duration": 10, "velocity": 55}, {"time": 94478, "pitch": 38, "duration": 10, "velocity": 32}, {"time": 94518, "pitch": 38, "duration": 10, "velocity": 34}, {"time": 94558, "pitch": 36, "duration": 10, "velocity": 121}, {"time": 94558, "pitch": 42, "duration": 10, "velocity": 78}, {"time": 94797, "pitch": 36, "duration": 10, "velocity": 119}, {"time": 94797, "pitch": 42, "duration": 10, "velocity": 25}, {"time": 94957, "pitch": 42, "duration": 10, "velocity": 52}, {"time": 95037, "pitch": 38, "duration": 10, "velocity": 94}, {"time": 95037, "pitch": 42, "duration": 10, "velocity": 80}, {"time": 95199, "pitch": 42, "duration": 10, "velocity": 64}, {"time": 95280, "pitch": 36, "duration": 10, "velocity": 77}, {"time": 95280, "pitch": 42, "duration": 10, "velocity": 46}, {"time": 95280, "pitch": 70, "duration": 10, "velocity": 50}, {"time": 95442, "pitch": 38, "duration": 10, "velocity": 46}, {"time": 95442, "pitch": 70, "duration": 10, "velocity": 30}, {"time": 95523, "pitch": 36, "duration": 10, "velocity": 65}, {"time": 95523, "pitch": 42, "duration": 10, "velocity": 79}, {"time": 95523, "pitch": 70, "duration": 10, "velocity": 47}, {"time": 95682, "pitch": 38, "duration": 10, "velocity": 54}, {"time": 95762, "pitch": 36, "duration": 10, "velocity": 100}, {"time": 95762, "pitch": 46, "duration": 10, "velocity": 46}, {"time": 96002, "pitch": 38, "duration": 10, "velocity": 92}, {"time": 96002, "pitch": 42, "duration": 10, "velocity": 89}, {"time": 96241, "pitch": 36, "duration": 10, "velocity": 121}, {"time": 96241, "pitch": 42, "duration": 10, "velocity": 46}, {"time": 96480, "pitch": 38, "duration": 10, "velocity": 104}, {"time": 96480, "pitch": 42, "duration": 10, "velocity": 64}, {"time": 96640, "pitch": 42, "duration": 10, "velocity": 58}, {"time": 96720, "pitch": 36, "duration": 10, "velocity": 119}, {"time": 96720, "pitch": 46, "duration": 10, "velocity": 46}, {"time": 96720, "pitch": 70, "duration": 10, "velocity": 70}, {"time": 96899, "pitch": 42, "duration": 10, "velocity": 1}, {"time": 96959, "pitch": 38, "duration": 10, "velocity": 104}, {"time": 96959, "pitch": 42, "duration": 10, "velocity": 87}, {"time": 97118, "pitch": 42, "duration": 10, "velocity": 52}, {"time": 97198, "pitch": 36, "duration": 10, "velocity": 121}, {"time": 97198, "pitch": 46, "duration": 10, "velocity": 46}, {"time": 97358, "pitch": 38, "duration": 10, "velocity": 54}, {"time": 97378, "pitch": 42, "duration": 10, "velocity": 1}, {"time": 97398, "pitch": 38, "duration": 10, "velocity": 74}, {"time": 97438, "pitch": 38, "duration": 10, "velocity": 104}, {"time": 97438, "pitch": 70, "duration": 10, "velocity": 58}, {"time": 97597, "pitch": 38, "duration": 10, "velocity": 54}, {"time": 97597, "pitch": 70, "duration": 10, "velocity": 54}, {"time": 97677, "pitch": 36, "duration": 10, "velocity": 121}, {"time": 97677, "pitch": 62, "duration": 10, "velocity": 66}, {"time": 97797, "pitch": 40, "duration": 10, "velocity": 38}, {"time": 97837, "pitch": 40, "duration": 9, "velocity": 57}, {"time": 97876, "pitch": 40, "duration": 10, "velocity": 74}, {"time": 97916, "pitch": 40, "duration": 10, "velocity": 102}, {"time": 97916, "pitch": 63, "duration": 10, "velocity": 60}, {"time": 98078, "pitch": 40, "duration": 10, "velocity": 82}, {"time": 98078, "pitch": 42, "duration": 10, "velocity": 64}, {"time": 98159, "pitch": 64, "duration": 11, "velocity": 55}, {"time": 98281, "pitch": 40, "duration": 10, "velocity": 38}, {"time": 98321, "pitch": 40, "duration": 11, "velocity": 57}, {"time": 98362, "pitch": 40, "duration": 10, "velocity": 74}, {"time": 98402, "pitch": 36, "duration": 10, "velocity": 121}, {"time": 98402, "pitch": 42, "duration": 10, "velocity": 58}, {"time": 98402, "pitch": 57, "duration": 10, "velocity": 76}, {"time": 98642, "pitch": 36, "duration": 10, "velocity": 119}, {"time": 98642, "pitch": 42, "duration": 10, "velocity": 58}, {"time": 98801, "pitch": 36, "duration": 10, "velocity": 121}, {"time": 98801, "pitch": 42, "duration": 10, "velocity": 52}, {"time": 98881, "pitch": 38, "duration": 10, "velocity": 94}, {"time": 98881, "pitch": 40, "duration": 10, "velocity": 83}, {"time": 99041, "pitch": 42, "duration": 10, "velocity": 64}, {"time": 99120, "pitch": 36, "duration": 10, "velocity": 77}, {"time": 99120, "pitch": 70, "duration": 10, "velocity": 50}, {"time": 99280, "pitch": 38, "duration": 10, "velocity": 46}, {"time": 99280, "pitch": 70, "duration": 10, "velocity": 30}, {"time": 99360, "pitch": 36, "duration": 10, "velocity": 65}, {"time": 99360, "pitch": 70, "duration": 10, "velocity": 47}, {"time": 99519, "pitch": 38, "duration": 10, "velocity": 54}, {"time": 99599, "pitch": 36, "duration": 10, "velocity": 100}, {"time": 99599, "pitch": 42, "duration": 10, "velocity": 58}, {"time": 99839, "pitch": 38, "duration": 9, "velocity": 92}, {"time": 99839, "pitch": 40, "duration": 9, "velocity": 91}, {"time": 99839, "pitch": 46, "duration": 9, "velocity": 25}, {"time": 100078, "pitch": 36, "duration": 10, "velocity": 77}, {"time": 100078, "pitch": 42, "duration": 10, "velocity": 64}, {"time": 100237, "pitch": 38, "duration": 10, "velocity": 55}, {"time": 100317, "pitch": 36, "duration": 10, "velocity": 121}, {"time": 100317, "pitch": 42, "duration": 10, "velocity": 64}, {"time": 100479, "pitch": 42, "duration": 10, "velocity": 58}, {"time": 100560, "pitch": 36, "duration": 10, "velocity": 119}, {"time": 100560, "pitch": 70, "duration": 10, "velocity": 70}, {"time": 100722, "pitch": 36, "duration": 10, "velocity": 121}, {"time": 100722, "pitch": 42, "duration": 10, "velocity": 52}, {"time": 100803, "pitch": 38, "duration": 10, "velocity": 94}, {"time": 100803, "pitch": 40, "duration": 10, "velocity": 91}, {"time": 100963, "pitch": 42, "duration": 10, "velocity": 52}, {"time": 101043, "pitch": 36, "duration": 10, "velocity": 77}, {"time": 101202, "pitch": 38, "duration": 10, "velocity": 46}, {"time": 101202, "pitch": 42, "duration": 10, "velocity": 66}, {"time": 101282, "pitch": 36, "duration": 10, "velocity": 65}, {"time": 101282, "pitch": 70, "duration": 10, "velocity": 58}, {"time": 101442, "pitch": 38, "duration": 10, "velocity": 54}, {"time": 101442, "pitch": 70, "duration": 10, "velocity": 54}, {"time": 101521, "pitch": 36, "duration": 10, "velocity": 100}, {"time": 101521, "pitch": 42, "duration": 10, "velocity": 72}, {"time": 101521, "pitch": 62, "duration": 10, "velocity": 66}, {"time": 101761, "pitch": 38, "duration": 10, "velocity": 92}, {"time": 101761, "pitch": 40, "duration": 10, "velocity": 77}, {"time": 101761, "pitch": 42, "duration": 10, "velocity": 76}, {"time": 101761, "pitch": 63, "duration": 10, "velocity": 60}, {"time": 101920, "pitch": 42, "duration": 10, "velocity": 64}, {"time": 102000, "pitch": 36, "duration": 10, "velocity": 77}, {"time": 102000, "pitch": 46, "duration": 10, "velocity": 28}, {"time": 102000, "pitch": 64, "duration": 10, "velocity": 55}, {"time": 102160, "pitch": 38, "duration": 10, "velocity": 55}, {"time": 102239, "pitch": 36, "duration": 10, "velocity": 121}, {"time": 102239, "pitch": 42, "duration": 10, "velocity": 58}, {"time": 102479, "pitch": 36, "duration": 10, "velocity": 119}, {"time": 102479, "pitch": 42, "duration": 10, "velocity": 58}, {"time": 102638, "pitch": 36, "duration": 10, "velocity": 121}, {"time": 102638, "pitch": 42, "duration": 10, "velocity": 52}, {"time": 102718, "pitch": 38, "duration": 10, "velocity": 94}, {"time": 102718, "pitch": 40, "duration": 10, "velocity": 83}, {"time": 102878, "pitch": 42, "duration": 10, "velocity": 64}, {"time": 102957, "pitch": 36, "duration": 10, "velocity": 77}, {"time": 102957, "pitch": 70, "duration": 10, "velocity": 50}, {"time": 103117, "pitch": 38, "duration": 10, "velocity": 46}, {"time": 103117, "pitch": 70, "duration": 10, "velocity": 30}, {"time": 103197, "pitch": 36, "duration": 10, "velocity": 65}, {"time": 103197, "pitch": 70, "duration": 10, "velocity": 47}, {"time": 103359, "pitch": 38, "duration": 10, "velocity": 54}, {"time": 103440, "pitch": 36, "duration": 10, "velocity": 100}, {"time": 103440, "pitch": 42, "duration": 10, "velocity": 58}, {"time": 103683, "pitch": 38, "duration": 10, "velocity": 92}, {"time": 103683, "pitch": 40, "duration": 10, "velocity": 91}, {"time": 103683, "pitch": 46, "duration": 10, "velocity": 25}, {"time": 103922, "pitch": 36, "duration": 10, "velocity": 77}, {"time": 103922, "pitch": 42, "duration": 10, "velocity": 64}, {"time": 104082, "pitch": 38, "duration": 10, "velocity": 55}, {"time": 104162, "pitch": 36, "duration": 10, "velocity": 121}, {"time": 104162, "pitch": 42, "duration": 10, "velocity": 64}, {"time": 104321, "pitch": 42, "duration": 10, "velocity": 58}, {"time": 104401, "pitch": 36, "duration": 10, "velocity": 119}, {"time": 104401, "pitch": 70, "duration": 10, "velocity": 70}, {"time": 104561, "pitch": 36, "duration": 9, "velocity": 121}, {"time": 104561, "pitch": 42, "duration": 9, "velocity": 52}, {"time": 104640, "pitch": 38, "duration": 10, "velocity": 94}, {"time": 104640, "pitch": 40, "duration": 10, "velocity": 91}, {"time": 104800, "pitch": 42, "duration": 10, "velocity": 52}, {"time": 104880, "pitch": 36, "duration": 10, "velocity": 77}, {"time": 105039, "pitch": 38, "duration": 10, "velocity": 46}, {"time": 105039, "pitch": 42, "duration": 10, "velocity": 66}, {"time": 105119, "pitch": 36, "duration": 10, "velocity": 65}, {"time": 105119, "pitch": 70, "duration": 10, "velocity": 58}, {"time": 105279, "pitch": 38, "duration": 9, "velocity": 54}, {"time": 105279, "pitch": 70, "duration": 9, "velocity": 54}, {"time": 105358, "pitch": 36, "duration": 10, "velocity": 100}, {"time": 105358, "pitch": 42, "duration": 10, "velocity": 72}, {"time": 105358, "pitch": 62, "duration": 10, "velocity": 66}, {"time": 105598, "pitch": 38, "duration": 10, "velocity": 92}, {"time": 105598, "pitch": 40, "duration": 10, "velocity": 77}, {"time": 105598, "pitch": 42, "duration": 10, "velocity": 76}, {"time": 105598, "pitch": 63, "duration": 10, "velocity": 60}, {"time": 105757, "pitch": 42, "duration": 10, "velocity": 64}, {"time": 105837, "pitch": 36, "duration": 10, "velocity": 77}, {"time": 105837, "pitch": 46, "duration": 10, "velocity": 28}, {"time": 105837, "pitch": 64, "duration": 10, "velocity": 55}, {"time": 105997, "pitch": 38, "duration": 10, "velocity": 55}, {"time": 106076, "pitch": 36, "duration": 10, "velocity": 121}, {"time": 106076, "pitch": 42, "duration": 10, "velocity": 58}, {"time": 106319, "pitch": 36, "duration": 11, "velocity": 119}, {"time": 106319, "pitch": 42, "duration": 11, "velocity": 58}, {"time": 106481, "pitch": 36, "duration": 11, "velocity": 121}, {"time": 106481, "pitch": 42, "duration": 11, "velocity": 52}, {"time": 106562, "pitch": 38, "duration": 10, "velocity": 94}, {"time": 106562, "pitch": 40, "duration": 10, "velocity": 83}, {"time": 106722, "pitch": 42, "duration": 10, "velocity": 64}, {"time": 106802, "pitch": 36, "duration": 10, "velocity": 77}, {"time": 106802, "pitch": 70, "duration": 10, "velocity": 50}, {"time": 106961, "pitch": 38, "duration": 10, "velocity": 46}, {"time": 106961, "pitch": 70, "duration": 10, "velocity": 30}, {"time": 107041, "pitch": 36, "duration": 10, "velocity": 65}, {"time": 107041, "pitch": 70, "duration": 10, "velocity": 47}, {"time": 107201, "pitch": 38, "duration": 10, "velocity": 54}, {"time": 107281, "pitch": 36, "duration": 9, "velocity": 100}, {"time": 107281, "pitch": 42, "duration": 9, "velocity": 58}, {"time": 107520, "pitch": 38, "duration": 10, "velocity": 92}, {"time": 107520, "pitch": 40, "duration": 10, "velocity": 91}, {"time": 107520, "pitch": 46, "duration": 10, "velocity": 25}, {"time": 107759, "pitch": 36, "duration": 10, "velocity": 77}, {"time": 107759, "pitch": 42, "duration": 10, "velocity": 64}, {"time": 107919, "pitch": 38, "duration": 10, "velocity": 55}, {"time": 107999, "pitch": 36, "duration": 9, "velocity": 121}, {"time": 107999, "pitch": 42, "duration": 9, "velocity": 64}, {"time": 108158, "pitch": 42, "duration": 10, "velocity": 58}, {"time": 108238, "pitch": 36, "duration": 10, "velocity": 119}, {"time": 108238, "pitch": 70, "duration": 10, "velocity": 70}, {"time": 108397, "pitch": 36, "duration": 10, "velocity": 121}, {"time": 108397, "pitch": 42, "duration": 10, "velocity": 52}, {"time": 108477, "pitch": 38, "duration": 10, "velocity": 94}, {"time": 108477, "pitch": 40, "duration": 10, "velocity": 91}, {"time": 108639, "pitch": 42, "duration": 10, "velocity": 52}, {"time": 108720, "pitch": 36, "duration": 10, "velocity": 77}, {"time": 108882, "pitch": 38, "duration": 11, "velocity": 46}, {"time": 108882, "pitch": 42, "duration": 11, "velocity": 66}, {"time": 108963, "pitch": 36, "duration": 10, "velocity": 65}, {"time": 108963, "pitch": 70, "duration": 10, "velocity": 58}, {"time": 109123, "pitch": 38, "duration": 10, "velocity": 54}, {"time": 109123, "pitch": 70, "duration": 10, "velocity": 54}, {"time": 109203, "pitch": 36, "duration": 10, "velocity": 100}, {"time": 109203, "pitch": 42, "duration": 10, "velocity": 72}, {"time": 109203, "pitch": 62, "duration": 10, "velocity": 66}, {"time": 109442, "pitch": 38, "duration": 10, "velocity": 92}, {"time": 109442, "pitch": 40, "duration": 10, "velocity": 77}, {"time": 109442, "pitch": 42, "duration": 10, "velocity": 76}, {"time": 109442, "pitch": 63, "duration": 10, "velocity": 60}, {"time": 109602, "pitch": 42, "duration": 10, "velocity": 64}, {"time": 109681, "pitch": 36, "duration": 10, "velocity": 77}, {"time": 109681, "pitch": 46, "duration": 10, "velocity": 28}, {"time": 109681, "pitch": 64, "duration": 10, "velocity": 55}, {"time": 109841, "pitch": 38, "duration": 10, "velocity": 55}, {"time": 109921, "pitch": 36, "duration": 10, "velocity": 121}, {"time": 109921, "pitch": 42, "duration": 10, "velocity": 58}, {"time": 110160, "pitch": 36, "duration": 10, "velocity": 119}, {"time": 110160, "pitch": 42, "duration": 10, "velocity": 58}, {"time": 110320, "pitch": 36, "duration": 10, "velocity": 121}, {"time": 110320, "pitch": 42, "duration": 10, "velocity": 52}, {"time": 110399, "pitch": 38, "duration": 10, "velocity": 94}, {"time": 110399, "pitch": 40, "duration": 10, "velocity": 83}, {"time": 110559, "pitch": 42, "duration": 10, "velocity": 64}, {"time": 110639, "pitch": 36, "duration": 10, "velocity": 77}, {"time": 110639, "pitch": 70, "duration": 10, "velocity": 50}, {"time": 110798, "pitch": 38, "duration": 10, "velocity": 46}, {"time": 110798, "pitch": 70, "duration": 10, "velocity": 30}, {"time": 110878, "pitch": 36, "duration": 10, "velocity": 65}, {"time": 110878, "pitch": 70, "duration": 10, "velocity": 47}, {"time": 111038, "pitch": 38, "duration": 10, "velocity": 54}, {"time": 111117, "pitch": 36, "duration": 10, "velocity": 100}, {"time": 111117, "pitch": 42, "duration": 10, "velocity": 58}, {"time": 111357, "pitch": 38, "duration": 10, "velocity": 92}, {"time": 111357, "pitch": 40, "duration": 10, "velocity": 91}, {"time": 111357, "pitch": 46, "duration": 10, "velocity": 25}, {"time": 111600, "pitch": 36, "duration": 10, "velocity": 77}, {"time": 111600, "pitch": 42, "duration": 10, "velocity": 64}, {"time": 111762, "pitch": 38, "duration": 10, "velocity": 55}, {"time": 111843, "pitch": 36, "duration": 10, "velocity": 121}, {"time": 111843, "pitch": 42, "duration": 10, "velocity": 64}, {"time": 112003, "pitch": 42, "duration": 9, "velocity": 58}, {"time": 112082, "pitch": 36, "duration": 10, "velocity": 119}, {"time": 112082, "pitch": 70, "duration": 10, "velocity": 70}, {"time": 112242, "pitch": 36, "duration": 10, "velocity": 121}, {"time": 112242, "pitch": 42, "duration": 10, "velocity": 52}, {"time": 112322, "pitch": 38, "duration": 10, "velocity": 94}, {"time": 112322, "pitch": 40, "duration": 10, "velocity": 91}, {"time": 112481, "pitch": 42, "duration": 10, "velocity": 52}, {"time": 112561, "pitch": 36, "duration": 10, "velocity": 77}, {"time": 112721, "pitch": 38, "duration": 9, "velocity": 46}, {"time": 112721, "pitch": 42, "duration": 9, "velocity": 66}, {"time": 112800, "pitch": 36, "duration": 10, "velocity": 65}, {"time": 112800, "pitch": 70, "duration": 10, "velocity": 58}, {"time": 112960, "pitch": 38, "duration": 10, "velocity": 54}, {"time": 112960, "pitch": 70, "duration": 10, "velocity": 54}, {"time": 113040, "pitch": 36, "duration": 10, "velocity": 100}, {"time": 113040, "pitch": 42, "duration": 10, "velocity": 72}, {"time": 113040, "pitch": 62, "duration": 10, "velocity": 66}, {"time": 113279, "pitch": 38, "duration": 10, "velocity": 92}, {"time": 113279, "pitch": 40, "duration": 10, "velocity": 77}, {"time": 113279, "pitch": 42, "duration": 10, "velocity": 76}, {"time": 113279, "pitch": 63, "duration": 10, "velocity": 60}, {"time": 113439, "pitch": 42, "duration": 10, "velocity": 64}, {"time": 113518, "pitch": 36, "duration": 10, "velocity": 77}, {"time": 113518, "pitch": 46, "duration": 10, "velocity": 28}, {"time": 113518, "pitch": 64, "duration": 10, "velocity": 55}, {"time": 113678, "pitch": 38, "duration": 10, "velocity": 55}, {"time": 113758, "pitch": 36, "duration": 10, "velocity": 121}, {"time": 113758, "pitch": 42, "duration": 10, "velocity": 58}, {"time": 113997, "pitch": 36, "duration": 10, "velocity": 119}, {"time": 113997, "pitch": 42, "duration": 10, "velocity": 58}, {"time": 114157, "pitch": 36, "duration": 10, "velocity": 121}, {"time": 114157, "pitch": 42, "duration": 10, "velocity": 52}, {"time": 114236, "pitch": 38, "duration": 10, "velocity": 94}, {"time": 114236, "pitch": 40, "duration": 10, "velocity": 83}, {"time": 114398, "pitch": 42, "duration": 11, "velocity": 64}, {"time": 114479, "pitch": 36, "duration": 11, "velocity": 77}, {"time": 114479, "pitch": 70, "duration": 11, "velocity": 50}, {"time": 114642, "pitch": 38, "duration": 10, "velocity": 46}, {"time": 114642, "pitch": 70, "duration": 10, "velocity": 30}, {"time": 114723, "pitch": 36, "duration": 9, "velocity": 65}, {"time": 114723, "pitch": 70, "duration": 9, "velocity": 47}, {"time": 114882, "pitch": 38, "duration": 10, "velocity": 54}, {"time": 114962, "pitch": 36, "duration": 10, "velocity": 100}, {"time": 114962, "pitch": 42, "duration": 10, "velocity": 58}, {"time": 115201, "pitch": 38, "duration": 10, "velocity": 92}, {"time": 115201, "pitch": 40, "duration": 10, "velocity": 91}, {"time": 115201, "pitch": 46, "duration": 10, "velocity": 25}, {"time": 115441, "pitch": 36, "duration": 10, "velocity": 77}, {"time": 115441, "pitch": 42, "duration": 10, "velocity": 64}, {"time": 115600, "pitch": 38, "duration": 10, "velocity": 55}, {"time": 115680, "pitch": 36, "duration": 10, "velocity": 121}, {"time": 115680, "pitch": 42, "duration": 10, "velocity": 64}, {"time": 115839, "pitch": 42, "duration": 10, "velocity": 58}, {"time": 115919, "pitch": 36, "duration": 10, "velocity": 119}, {"time": 115919, "pitch": 70, "duration": 10, "velocity": 70}, {"time": 116079, "pitch": 36, "duration": 10, "velocity": 121}, {"time": 116079, "pitch": 42, "duration": 10, "velocity": 52}, {"time": 116159, "pitch": 38, "duration": 10, "velocity": 94}, {"time": 116159, "pitch": 40, "duration": 10, "velocity": 91}, {"time": 116318, "pitch": 42, "duration": 10, "velocity": 52}, {"time": 116398, "pitch": 36, "duration": 10, "velocity": 77}, {"time": 116557, "pitch": 38, "duration": 10, "velocity": 46}, {"time": 116557, "pitch": 42, "duration": 10, "velocity": 66}, {"time": 116637, "pitch": 36, "duration": 10, "velocity": 65}, {"time": 116637, "pitch": 70, "duration": 10, "velocity": 58}, {"time": 116799, "pitch": 38, "duration": 10, "velocity": 54}, {"time": 116799, "pitch": 70, "duration": 10, "velocity": 54}, {"time": 116880, "pitch": 36, "duration": 10, "velocity": 100}, {"time": 116880, "pitch": 42, "duration": 10, "velocity": 72}, {"time": 116880, "pitch": 62, "duration": 10, "velocity": 66}, {"time": 117123, "pitch": 38, "duration": 10, "velocity": 92}, {"time": 117123, "pitch": 40, "duration": 10, "velocity": 77}, {"time": 117123, "pitch": 42, "duration": 10, "velocity": 76}, {"time": 117123, "pitch": 63, "duration": 10, "velocity": 60}, {"time": 117283, "pitch": 42, "duration": 10, "velocity": 64}, {"time": 117363, "pitch": 36, "duration": 10, "velocity": 77}, {"time": 117363, "pitch": 46, "duration": 10, "velocity": 28}, {"time": 117363, "pitch": 64, "duration": 10, "velocity": 55}, {"time": 117522, "pitch": 38, "duration": 10, "velocity": 55}, {"time": 117602, "pitch": 36, "duration": 10, "velocity": 121}, {"time": 117602, "pitch": 42, "duration": 10, "velocity": 58}, {"time": 117841, "pitch": 36, "duration": 10, "velocity": 119}, {"time": 117841, "pitch": 42, "duration": 10, "velocity": 58}, {"time": 118001, "pitch": 36, "duration": 10, "velocity": 121}, {"time": 118001, "pitch": 42, "duration": 10, "velocity": 52}, {"time": 118081, "pitch": 38, "duration": 10, "velocity": 94}, {"time": 118081, "pitch": 40, "duration": 10, "velocity": 83}, {"time": 118240, "pitch": 42, "duration": 10, "velocity": 64}, {"time": 118320, "pitch": 36, "duration": 10, "velocity": 77}, {"time": 118320, "pitch": 70, "duration": 10, "velocity": 50}, {"time": 118480, "pitch": 38, "duration": 10, "velocity": 46}, {"time": 118480, "pitch": 70, "duration": 10, "velocity": 30}, {"time": 118559, "pitch": 36, "duration": 10, "velocity": 65}, {"time": 118559, "pitch": 70, "duration": 10, "velocity": 47}, {"time": 118719, "pitch": 38, "duration": 10, "velocity": 54}, {"time": 118799, "pitch": 36, "duration": 10, "velocity": 100}, {"time": 118799, "pitch": 42, "duration": 10, "velocity": 58}, {"time": 119038, "pitch": 38, "duration": 10, "velocity": 92}, {"time": 119038, "pitch": 40, "duration": 10, "velocity": 91}, {"time": 119038, "pitch": 46, "duration": 10, "velocity": 25}, {"time": 119277, "pitch": 36, "duration": 10, "velocity": 77}, {"time": 119277, "pitch": 42, "duration": 10, "velocity": 64}, {"time": 119437, "pitch": 38, "duration": 10, "velocity": 55}, {"time": 119517, "pitch": 36, "duration": 10, "velocity": 121}, {"time": 119517, "pitch": 40, "duration": 10, "velocity": 104}, {"time": 119760, "pitch": 36, "duration": 10, "velocity": 121}, {"time": 119760, "pitch": 40, "duration": 10, "velocity": 119}, {"time": 120003, "pitch": 36, "duration": 10, "velocity": 121}, {"time": 120003, "pitch": 40, "duration": 10, "velocity": 104}, {"time": 120242, "pitch": 36, "duration": 10, "velocity": 121}, {"time": 120242, "pitch": 40, "duration": 10, "velocity": 121}, {"time": 120402, "pitch": 38, "duration": 10, "velocity": 54}, {"time": 120442, "pitch": 38, "duration": 10, "velocity": 74}, {"time": 120482, "pitch": 38, "duration": 10, "velocity": 104}, {"time": 120641, "pitch": 38, "duration": 10, "velocity": 54}, {"time": 120721, "pitch": 36, "duration": 10, "velocity": 121}, {"time": 120841, "pitch": 40, "duration": 10, "velocity": 38}, {"time": 120881, "pitch": 40, "duration": 10, "velocity": 57}, {"time": 120920, "pitch": 40, "duration": 10, "velocity": 74}, {"time": 120960, "pitch": 40, "duration": 10, "velocity": 102}, {"time": 121120, "pitch": 40, "duration": 10, "velocity": 82}, {"time": 121319, "pitch": 38, "duration": 10, "velocity": 38}, {"time": 121359, "pitch": 38, "duration": 10, "velocity": 57}, {"time": 121399, "pitch": 38, "duration": 10, "velocity": 74}, {"time": 121439, "pitch": 36, "duration": 10, "velocity": 119}, {"time": 121439, "pitch": 42, "duration": 10, "velocity": 78}, {"time": 121439, "pitch": 57, "duration": 10, "velocity": 83}, {"time": 121678, "pitch": 36, "duration": 10, "velocity": 119}, {"time": 121678, "pitch": 42, "duration": 10, "velocity": 25}, {"time": 121678, "pitch": 53, "duration": 10, "velocity": 80}, {"time": 121838, "pitch": 36, "duration": 10, "velocity": 121}, {"time": 121838, "pitch": 42, "duration": 10, "velocity": 52}, {"time": 121918, "pitch": 38, "duration": 10, "velocity": 94}, {"time": 121918, "pitch": 40, "duration": 10, "velocity": 83}, {"time": 121918, "pitch": 42, "duration": 10, "velocity": 80}, {"time": 121918, "pitch": 54, "duration": 10, "velocity": 100}, {"time": 122077, "pitch": 42, "duration": 10, "velocity": 64}, {"time": 122157, "pitch": 36, "duration": 10, "velocity": 77}, {"time": 122157, "pitch": 42, "duration": 10, "velocity": 46}, {"time": 122157, "pitch": 53, "duration": 10, "velocity": 80}, {"time": 122157, "pitch": 70, "duration": 10, "velocity": 50}, {"time": 122317, "pitch": 38, "duration": 10, "velocity": 46}, {"time": 122317, "pitch": 70, "duration": 10, "velocity": 30}, {"time": 122396, "pitch": 36, "duration": 10, "velocity": 65}, {"time": 122396, "pitch": 42, "duration": 10, "velocity": 79}, {"time": 122396, "pitch": 70, "duration": 10, "velocity": 47}, {"time": 122558, "pitch": 38, "duration": 11, "velocity": 54}, {"time": 122639, "pitch": 36, "duration": 11, "velocity": 100}, {"time": 122639, "pitch": 42, "duration": 11, "velocity": 58}, {"time": 122639, "pitch": 46, "duration": 11, "velocity": 46}, {"time": 122639, "pitch": 53, "duration": 11, "velocity": 80}, {"time": 122883, "pitch": 38, "duration": 10, "velocity": 92}, {"time": 122883, "pitch": 39, "duration": 10, "velocity": 96}, {"time": 122883, "pitch": 40, "duration": 10, "velocity": 91}, {"time": 122883, "pitch": 42, "duration": 10, "velocity": 89}, {"time": 123122, "pitch": 36, "duration": 10, "velocity": 77}, {"time": 123122, "pitch": 42, "duration": 10, "velocity": 46}, {"time": 123122, "pitch": 53, "duration": 10, "velocity": 80}, {"time": 123281, "pitch": 38, "duration": 10, "velocity": 55}, {"time": 123361, "pitch": 36, "duration": 10, "velocity": 121}, {"time": 123361, "pitch": 42, "duration": 10, "velocity": 64}, {"time": 123521, "pitch": 42, "duration": 10, "velocity": 58}, {"time": 123601, "pitch": 36, "duration": 10, "velocity": 119}, {"time": 123601, "pitch": 42, "duration": 10, "velocity": 58}, {"time": 123601, "pitch": 53, "duration": 10, "velocity": 80}, {"time": 123601, "pitch": 70, "duration": 10, "velocity": 70}, {"time": 123760, "pitch": 36, "duration": 10, "velocity": 121}, {"time": 123760, "pitch": 42, "duration": 10, "velocity": 52}, {"time": 123840, "pitch": 38, "duration": 10, "velocity": 94}, {"time": 123840, "pitch": 40, "duration": 10, "velocity": 91}, {"time": 123840, "pitch": 42, "duration": 10, "velocity": 87}, {"time": 123840, "pitch": 54, "duration": 10, "velocity": 100}, {"time": 123999, "pitch": 42, "duration": 10, "velocity": 52}, {"time": 124079, "pitch": 36, "duration": 10, "velocity": 77}, {"time": 124079, "pitch": 42, "duration": 10, "velocity": 29}, {"time": 124079, "pitch": 53, "duration": 10, "velocity": 80}, {"time": 124239, "pitch": 38, "duration": 10, "velocity": 46}, {"time": 124239, "pitch": 42, "duration": 10, "velocity": 66}, {"time": 124319, "pitch": 36, "duration": 10, "velocity": 65}, {"time": 124319, "pitch": 42, "duration": 10, "velocity": 89}, {"time": 124319, "pitch": 70, "duration": 10, "velocity": 58}, {"time": 124478, "pitch": 38, "duration": 10, "velocity": 54}, {"time": 124478, "pitch": 70, "duration": 10, "velocity": 54}, {"time": 124558, "pitch": 36, "duration": 10, "velocity": 100}, {"time": 124558, "pitch": 46, "duration": 10, "velocity": 39}, {"time": 124558, "pitch": 53, "duration": 10, "velocity": 80}, {"time": 124558, "pitch": 62, "duration": 10, "velocity": 66}, {"time": 124797, "pitch": 38, "duration": 10, "velocity": 92}, {"time": 124797, "pitch": 39, "duration": 10, "velocity": 96}, {"time": 124797, "pitch": 40, "duration": 10, "velocity": 77}, {"time": 124797, "pitch": 42, "duration": 10, "velocity": 58}, {"time": 124797, "pitch": 63, "duration": 10, "velocity": 60}, {"time": 124959, "pitch": 42, "duration": 10, "velocity": 64}, {"time": 125040, "pitch": 36, "duration": 10, "velocity": 77}, {"time": 125040, "pitch": 46, "duration": 10, "velocity": 28}, {"time": 125040, "pitch": 53, "duration": 10, "velocity": 80}, {"time": 125040, "pitch": 64, "duration": 10, "velocity": 55}, {"time": 125202, "pitch": 38, "duration": 11, "velocity": 55}, {"time": 125283, "pitch": 36, "duration": 10, "velocity": 119}, {"time": 125283, "pitch": 42, "duration": 10, "velocity": 78}, {"time": 125523, "pitch": 36, "duration": 10, "velocity": 119}, {"time": 125523, "pitch": 42, "duration": 10, "velocity": 25}, {"time": 125523, "pitch": 53, "duration": 10, "velocity": 80}, {"time": 125682, "pitch": 36, "duration": 10, "velocity": 121}, {"time": 125682, "pitch": 42, "duration": 10, "velocity": 52}, {"time": 125762, "pitch": 38, "duration": 10, "velocity": 94}, {"time": 125762, "pitch": 40, "duration": 10, "velocity": 83}, {"time": 125762, "pitch": 42, "duration": 10, "velocity": 80}, {"time": 125762, "pitch": 54, "duration": 10, "velocity": 100}, {"time": 125922, "pitch": 42, "duration": 10, "velocity": 64}, {"time": 126001, "pitch": 36, "duration": 10, "velocity": 77}, {"time": 126001, "pitch": 42, "duration": 10, "velocity": 46}, {"time": 126001, "pitch": 53, "duration": 10, "velocity": 80}, {"time": 126001, "pitch": 70, "duration": 10, "velocity": 50}, {"time": 126161, "pitch": 38, "duration": 10, "velocity": 46}, {"time": 126161, "pitch": 70, "duration": 10, "velocity": 30}, {"time": 126241, "pitch": 36, "duration": 10, "velocity": 65}, {"time": 126241, "pitch": 42, "duration": 10, "velocity": 79}, {"time": 126241, "pitch": 70, "duration": 10, "velocity": 47}, {"time": 126400, "pitch": 38, "duration": 10, "velocity": 54}, {"time": 126480, "pitch": 36, "duration": 10, "velocity": 100}, {"time": 126480, "pitch": 42, "duration": 10, "velocity": 58}, {"time": 126480, "pitch": 46, "duration": 10, "velocity": 46}, {"time": 126480, "pitch": 53, "duration": 10, "velocity": 80}, {"time": 126719, "pitch": 38, "duration": 10, "velocity": 92}, {"time": 126719, "pitch": 39, "duration": 10, "velocity": 96}, {"time": 126719, "pitch": 40, "duration": 10, "velocity": 91}, {"time": 126719, "pitch": 42, "duration": 10, "velocity": 89}, {"time": 126959, "pitch": 36, "duration": 10, "velocity": 77}, {"time": 126959, "pitch": 42, "duration": 10, "velocity": 46}, {"time": 126959, "pitch": 53, "duration": 10, "velocity": 80}, {"time": 127118, "pitch": 38, "duration": 10, "velocity": 55}, {"time": 127198, "pitch": 36, "duration": 10, "velocity": 121}, {"time": 127198, "pitch": 42, "duration": 10, "velocity": 64}, {"time": 127358, "pitch": 42, "duration": 10, "velocity": 58}, {"time": 127437, "pitch": 36, "duration": 10, "velocity": 119}, {"time": 127437, "pitch": 42, "duration": 10, "velocity": 58}, {"time": 127437, "pitch": 53, "duration": 10, "velocity": 80}, {"time": 127437, "pitch": 70, "duration": 10, "velocity": 70}, {"time": 127597, "pitch": 36, "duration": 10, "velocity": 121}, {"time": 127597, "pitch": 42, "duration": 10, "velocity": 52}, {"time": 127677, "pitch": 38, "duration": 10, "velocity": 94}, {"time": 127677, "pitch": 40, "duration": 10, "velocity": 91}, {"time": 127677, "pitch": 42, "duration": 10, "velocity": 87}, {"time": 127677, "pitch": 54, "duration": 10, "velocity": 100}, {"time": 127839, "pitch": 42, "duration": 10, "velocity": 52}, {"time": 127920, "pitch": 36, "duration": 10, "velocity": 77}, {"time": 127920, "pitch": 42, "duration": 10, "velocity": 29}, {"time": 127920, "pitch": 53, "duration": 10, "velocity": 80}, {"time": 128082, "pitch": 38, "duration": 10, "velocity": 46}, {"time": 128082, "pitch": 42, "duration": 10, "velocity": 66}, {"time": 128163, "pitch": 36, "duration": 10, "velocity": 65}, {"time": 128163, "pitch": 42, "duration": 10, "velocity": 89}, {"time": 128163, "pitch": 70, "duration": 10, "velocity": 58}, {"time": 128323, "pitch": 38, "duration": 10, "velocity": 54}, {"time": 128323, "pitch": 70, "duration": 10, "velocity": 54}, {"time": 128402, "pitch": 36, "duration": 10, "velocity": 100}, {"time": 128402, "pitch": 46, "duration": 10, "velocity": 39}, {"time": 128402, "pitch": 53, "duration": 10, "velocity": 80}, {"time": 128402, "pitch": 62, "duration": 10, "velocity": 66}, {"time": 128642, "pitch": 38, "duration": 10, "velocity": 92}, {"time": 128642, "pitch": 39, "duration": 10, "velocity": 96}, {"time": 128642, "pitch": 40, "duration": 10, "velocity": 77}, {"time": 128642, "pitch": 42, "duration": 10, "velocity": 58}, {"time": 128642, "pitch": 63, "duration": 10, "velocity": 60}, {"time": 128801, "pitch": 42, "duration": 10, "velocity": 64}, {"time": 128881, "pitch": 36, "duration": 10, "velocity": 77}, {"time": 128881, "pitch": 46, "duration": 10, "velocity": 28}, {"time": 128881, "pitch": 53, "duration": 10, "velocity": 80}, {"time": 128881, "pitch": 64, "duration": 10, "velocity": 55}, {"time": 129041, "pitch": 38, "duration": 10, "velocity": 55}, {"time": 129120, "pitch": 36, "duration": 10, "velocity": 119}, {"time": 129120, "pitch": 42, "duration": 10, "velocity": 78}, {"time": 129360, "pitch": 36, "duration": 10, "velocity": 119}, {"time": 129360, "pitch": 42, "duration": 10, "velocity": 25}, {"time": 129360, "pitch": 53, "duration": 10, "velocity": 80}, {"time": 129519, "pitch": 36, "duration": 10, "velocity": 121}, {"time": 129519, "pitch": 42, "duration": 10, "velocity": 52}, {"time": 129599, "pitch": 38, "duration": 10, "velocity": 94}, {"time": 129599, "pitch": 40, "duration": 10, "velocity": 83}, {"time": 129599, "pitch": 42, "duration": 10, "velocity": 80}, {"time": 129599, "pitch": 54, "duration": 10, "velocity": 100}, {"time": 129759, "pitch": 42, "duration": 10, "velocity": 64}, {"time": 129838, "pitch": 36, "duration": 10, "velocity": 77}, {"time": 129838, "pitch": 42, "duration": 10, "velocity": 46}, {"time": 129838, "pitch": 53, "duration": 10, "velocity": 80}, {"time": 129838, "pitch": 70, "duration": 10, "velocity": 50}, {"time": 129998, "pitch": 38, "duration": 10, "velocity": 46}, {"time": 129998, "pitch": 70, "duration": 10, "velocity": 30}, {"time": 130078, "pitch": 36, "duration": 10, "velocity": 65}, {"time": 130078, "pitch": 42, "duration": 10, "velocity": 79}, {"time": 130078, "pitch": 70, "duration": 10, "velocity": 47}, {"time": 130237, "pitch": 38, "duration": 10, "velocity": 54}, {"time": 130317, "pitch": 36, "duration": 10, "velocity": 100}, {"time": 130317, "pitch": 42, "duration": 10, "velocity": 58}, {"time": 130317, "pitch": 46, "duration": 10, "velocity": 46}, {"time": 130317, "pitch": 53, "duration": 10, "velocity": 80}, {"time": 130556, "pitch": 38, "duration": 10, "velocity": 92}, {"time": 130556, "pitch": 39, "duration": 10, "velocity": 96}, {"time": 130556, "pitch": 40, "duration": 10, "velocity": 91}, {"time": 130556, "pitch": 42, "duration": 10, "velocity": 89}, {"time": 130799, "pitch": 36, "duration": 11, "velocity": 77}, {"time": 130799, "pitch": 42, "duration": 11, "velocity": 46}, {"time": 130799, "pitch": 53, "duration": 11, "velocity": 80}, {"time": 130962, "pitch": 38, "duration": 10, "velocity": 55}, {"time": 131043, "pitch": 36, "duration": 10, "velocity": 121}, {"time": 131043, "pitch": 42, "duration": 10, "velocity": 64}, {"time": 131202, "pitch": 42, "duration": 10, "velocity": 58}, {"time": 131282, "pitch": 36, "duration": 10, "velocity": 119}, {"time": 131282, "pitch": 42, "duration": 10, "velocity": 58}, {"time": 131282, "pitch": 53, "duration": 10, "velocity": 80}, {"time": 131282, "pitch": 70, "duration": 10, "velocity": 70}, {"time": 131441, "pitch": 36, "duration": 10, "velocity": 121}, {"time": 131441, "pitch": 42, "duration": 10, "velocity": 52}, {"time": 131521, "pitch": 38, "duration": 10, "velocity": 94}, {"time": 131521, "pitch": 40, "duration": 10, "velocity": 91}, {"time": 131521, "pitch": 42, "duration": 10, "velocity": 87}, {"time": 131521, "pitch": 54, "duration": 10, "velocity": 100}, {"time": 131681, "pitch": 42, "duration": 10, "velocity": 52}, {"time": 131761, "pitch": 36, "duration": 10, "velocity": 77}, {"time": 131761, "pitch": 42, "duration": 10, "velocity": 29}, {"time": 131761, "pitch": 53, "duration": 10, "velocity": 80}, {"time": 131920, "pitch": 38, "duration": 10, "velocity": 46}, {"time": 131920, "pitch": 42, "duration": 10, "velocity": 66}, {"time": 132000, "pitch": 36, "duration": 10, "velocity": 65}, {"time": 132000, "pitch": 42, "duration": 10, "velocity": 89}, {"time": 132000, "pitch": 70, "duration": 10, "velocity": 58}, {"time": 132159, "pitch": 38, "duration": 10, "velocity": 54}, {"time": 132159, "pitch": 70, "duration": 10, "velocity": 54}, {"time": 132239, "pitch": 36, "duration": 10, "velocity": 100}, {"time": 132239, "pitch": 46, "duration": 10, "velocity": 39}, {"time": 132239, "pitch": 53, "duration": 10, "velocity": 80}, {"time": 132239, "pitch": 62, "duration": 10, "velocity": 66}, {"time": 132479, "pitch": 38, "duration": 10, "velocity": 92}, {"time": 132479, "pitch": 39, "duration": 10, "velocity": 96}, {"time": 132479, "pitch": 40, "duration": 10, "velocity": 77}, {"time": 132479, "pitch": 42, "duration": 10, "velocity": 58}, {"time": 132479, "pitch": 63, "duration": 10, "velocity": 60}, {"time": 132638, "pitch": 42, "duration": 10, "velocity": 64}, {"time": 132718, "pitch": 36, "duration": 10, "velocity": 77}, {"time": 132718, "pitch": 46, "duration": 10, "velocity": 28}, {"time": 132718, "pitch": 53, "duration": 10, "velocity": 80}, {"time": 132718, "pitch": 64, "duration": 10, "velocity": 55}, {"time": 132877, "pitch": 38, "duration": 10, "velocity": 55}, {"time": 132957, "pitch": 36, "duration": 10, "velocity": 119}, {"time": 132957, "pitch": 42, "duration": 10, "velocity": 78}, {"time": 133200, "pitch": 36, "duration": 10, "velocity": 119}, {"time": 133200, "pitch": 42, "duration": 10, "velocity": 25}, {"time": 133200, "pitch": 53, "duration": 10, "velocity": 80}, {"time": 133362, "pitch": 36, "duration": 11, "velocity": 121}, {"time": 133362, "pitch": 42, "duration": 11, "velocity": 52}, {"time": 133443, "pitch": 38, "duration": 10, "velocity": 94}, {"time": 133443, "pitch": 40, "duration": 10, "velocity": 83}, {"time": 133443, "pitch": 42, "duration": 10, "velocity": 80}, {"time": 133443, "pitch": 54, "duration": 10, "velocity": 100}, {"time": 133603, "pitch": 42, "duration": 10, "velocity": 64}, {"time": 133683, "pitch": 36, "duration": 10, "velocity": 77}, {"time": 133683, "pitch": 42, "duration": 10, "velocity": 46}, {"time": 133683, "pitch": 53, "duration": 10, "velocity": 80}, {"time": 133683, "pitch": 70, "duration": 10, "velocity": 50}, {"time": 133842, "pitch": 38, "duration": 10, "velocity": 46}, {"time": 133842, "pitch": 70, "duration": 10, "velocity": 30}, {"time": 133922, "pitch": 36, "duration": 10, "velocity": 65}, {"time": 133922, "pitch": 42, "duration": 10, "velocity": 79}, {"time": 133922, "pitch": 70, "duration": 10, "velocity": 47}, {"time": 134082, "pitch": 38, "duration": 10, "velocity": 54}, {"time": 134161, "pitch": 36, "duration": 10, "velocity": 100}, {"time": 134161, "pitch": 42, "duration": 10, "velocity": 58}, {"time": 134161, "pitch": 46, "duration": 10, "velocity": 46}, {"time": 134161, "pitch": 53, "duration": 10, "velocity": 80}, {"time": 134401, "pitch": 38, "duration": 10, "velocity": 92}, {"time": 134401, "pitch": 39, "duration": 10, "velocity": 96}, {"time": 134401, "pitch": 40, "duration": 10, "velocity": 91}, {"time": 134401, "pitch": 42, "duration": 10, "velocity": 89}, {"time": 134640, "pitch": 36, "duration": 10, "velocity": 77}, {"time": 134640, "pitch": 42, "duration": 10, "velocity": 46}, {"time": 134640, "pitch": 53, "duration": 10, "velocity": 80}, {"time": 134800, "pitch": 38, "duration": 10, "velocity": 55}, {"time": 134879, "pitch": 36, "duration": 10, "velocity": 121}, {"time": 134879, "pitch": 42, "duration": 10, "velocity": 64}, {"time": 135039, "pitch": 42, "duration": 10, "velocity": 58}, {"time": 135119, "pitch": 36, "duration": 10, "velocity": 119}, {"time": 135119, "pitch": 42, "duration": 10, "velocity": 58}, {"time": 135119, "pitch": 53, "duration": 10, "velocity": 80}, {"time": 135119, "pitch": 70, "duration": 10, "velocity": 70}, {"time": 135278, "pitch": 36, "duration": 10, "velocity": 121}, {"time": 135278, "pitch": 42, "duration": 10, "velocity": 52}, {"time": 135358, "pitch": 38, "duration": 10, "velocity": 94}, {"time": 135358, "pitch": 40, "duration": 10, "velocity": 91}, {"time": 135358, "pitch": 42, "duration": 10, "velocity": 87}, {"time": 135358, "pitch": 54, "duration": 10, "velocity": 100}, {"time": 135518, "pitch": 42, "duration": 10, "velocity": 52}, {"time": 135597, "pitch": 36, "duration": 10, "velocity": 77}, {"time": 135597, "pitch": 42, "duration": 10, "velocity": 29}, {"time": 135597, "pitch": 53, "duration": 10, "velocity": 80}, {"time": 135757, "pitch": 38, "duration": 10, "velocity": 46}, {"time": 135757, "pitch": 42, "duration": 10, "velocity": 66}, {"time": 135837, "pitch": 36, "duration": 10, "velocity": 65}, {"time": 135837, "pitch": 42, "duration": 10, "velocity": 89}, {"time": 135837, "pitch": 70, "duration": 10, "velocity": 58}, {"time": 135999, "pitch": 38, "duration": 10, "velocity": 54}, {"time": 135999, "pitch": 70, "duration": 10, "velocity": 54}, {"time": 136080, "pitch": 36, "duration": 10, "velocity": 108}, {"time": 136080, "pitch": 46, "duration": 10, "velocity": 39}, {"time": 136080, "pitch": 53, "duration": 10, "velocity": 80}, {"time": 136080, "pitch": 62, "duration": 10, "velocity": 66}, {"time": 136323, "pitch": 38, "duration": 10, "velocity": 92}, {"time": 136323, "pitch": 39, "duration": 10, "velocity": 96}, {"time": 136323, "pitch": 40, "duration": 10, "velocity": 77}, {"time": 136323, "pitch": 42, "duration": 10, "velocity": 58}, {"time": 136323, "pitch": 63, "duration": 10, "velocity": 60}, {"time": 136483, "pitch": 42, "duration": 10, "velocity": 64}, {"time": 136562, "pitch": 36, "duration": 10, "velocity": 77}, {"time": 136562, "pitch": 46, "duration": 10, "velocity": 28}, {"time": 136562, "pitch": 64, "duration": 10, "velocity": 55}, {"time": 136622, "pitch": 40, "duration": 10, "velocity": 46}, {"time": 136682, "pitch": 40, "duration": 10, "velocity": 49}, {"time": 136722, "pitch": 38, "duration": 10, "velocity": 55}, {"time": 136742, "pitch": 40, "duration": 10, "velocity": 77}, {"time": 136802, "pitch": 36, "duration": 10, "velocity": 121}, {"time": 136802, "pitch": 42, "duration": 10, "velocity": 58}, {"time": 136802, "pitch": 57, "duration": 10, "velocity": 76}, {"time": 137041, "pitch": 36, "duration": 10, "velocity": 119}, {"time": 137041, "pitch": 42, "duration": 10, "velocity": 58}, {"time": 137201, "pitch": 36, "duration": 10, "velocity": 121}, {"time": 137201, "pitch": 42, "duration": 10, "velocity": 52}, {"time": 137280, "pitch": 38, "duration": 10, "velocity": 94}, {"time": 137280, "pitch": 40, "duration": 10, "velocity": 83}, {"time": 137440, "pitch": 42, "duration": 10, "velocity": 64}, {"time": 137520, "pitch": 36, "duration": 10, "velocity": 77}, {"time": 137520, "pitch": 70, "duration": 10, "velocity": 50}, {"time": 137679, "pitch": 38, "duration": 10, "velocity": 46}, {"time": 137679, "pitch": 70, "duration": 10, "velocity": 30}, {"time": 137759, "pitch": 36, "duration": 10, "velocity": 65}, {"time": 137759, "pitch": 70, "duration": 10, "velocity": 47}, {"time": 137919, "pitch": 38, "duration": 10, "velocity": 54}, {"time": 137998, "pitch": 36, "duration": 10, "velocity": 100}, {"time": 137998, "pitch": 42, "duration": 10, "velocity": 58}, {"time": 138238, "pitch": 38, "duration": 10, "velocity": 92}, {"time": 138238, "pitch": 40, "duration": 10, "velocity": 91}, {"time": 138238, "pitch": 46, "duration": 10, "velocity": 25}, {"time": 138477, "pitch": 36, "duration": 10, "velocity": 77}, {"time": 138477, "pitch": 42, "duration": 10, "velocity": 64}, {"time": 138637, "pitch": 38, "duration": 10, "velocity": 55}, {"time": 138716, "pitch": 36, "duration": 10, "velocity": 121}, {"time": 138716, "pitch": 42, "duration": 10, "velocity": 64}, {"time": 138878, "pitch": 42, "duration": 11, "velocity": 58}, {"time": 138959, "pitch": 36, "duration": 11, "velocity": 119}, {"time": 138959, "pitch": 70, "duration": 11, "velocity": 70}, {"time": 139122, "pitch": 36, "duration": 10, "velocity": 121}, {"time": 139122, "pitch": 42, "duration": 10, "velocity": 52}, {"time": 139203, "pitch": 38, "duration": 10, "velocity": 94}, {"time": 139203, "pitch": 40, "duration": 10, "velocity": 91}, {"time": 139362, "pitch": 42, "duration": 10, "velocity": 52}, {"time": 139442, "pitch": 36, "duration": 10, "velocity": 77}, {"time": 139601, "pitch": 38, "duration": 10, "velocity": 46}, {"time": 139601, "pitch": 42, "duration": 10, "velocity": 66}, {"time": 139681, "pitch": 36, "duration": 10, "velocity": 65}, {"time": 139681, "pitch": 70, "duration": 10, "velocity": 58}, {"time": 139841, "pitch": 38, "duration": 10, "velocity": 54}, {"time": 139841, "pitch": 70, "duration": 10, "velocity": 54}, {"time": 139921, "pitch": 36, "duration": 10, "velocity": 100}, {"time": 139921, "pitch": 42, "duration": 10, "velocity": 72}, {"time": 139921, "pitch": 62, "duration": 10, "velocity": 66}, {"time": 140160, "pitch": 38, "duration": 10, "velocity": 92}, {"time": 140160, "pitch": 40, "duration": 10, "velocity": 77}, {"time": 140160, "pitch": 42, "duration": 10, "velocity": 76}, {"time": 140160, "pitch": 63, "duration": 10, "velocity": 60}, {"time": 140319, "pitch": 42, "duration": 10, "velocity": 64}, {"time": 140399, "pitch": 36, "duration": 10, "velocity": 77}, {"time": 140399, "pitch": 46, "duration": 10, "velocity": 28}, {"time": 140399, "pitch": 64, "duration": 10, "velocity": 55}, {"time": 140559, "pitch": 38, "duration": 10, "velocity": 55}, {"time": 140639, "pitch": 36, "duration": 10, "velocity": 121}, {"time": 140639, "pitch": 42, "duration": 10, "velocity": 58}, {"time": 140878, "pitch": 36, "duration": 10, "velocity": 119}, {"time": 140878, "pitch": 42, "duration": 10, "velocity": 58}, {"time": 141038, "pitch": 36, "duration": 9, "velocity": 121}, {"time": 141038, "pitch": 42, "duration": 9, "velocity": 52}, {"time": 141117, "pitch": 38, "duration": 10, "velocity": 94}, {"time": 141117, "pitch": 40, "duration": 10, "velocity": 83}, {"time": 141279, "pitch": 42, "duration": 10, "velocity": 64}, {"time": 141360, "pitch": 36, "duration": 11, "velocity": 77}, {"time": 141360, "pitch": 70, "duration": 11, "velocity": 50}, {"time": 141522, "pitch": 38, "duration": 11, "velocity": 46}, {"time": 141522, "pitch": 70, "duration": 11, "velocity": 30}, {"time": 141603, "pitch": 36, "duration": 10, "velocity": 65}, {"time": 141603, "pitch": 70, "duration": 10, "velocity": 47}, {"time": 141763, "pitch": 38, "duration": 10, "velocity": 54}, {"time": 141843, "pitch": 36, "duration": 10, "velocity": 100}, {"time": 141843, "pitch": 42, "duration": 10, "velocity": 58}, {"time": 142082, "pitch": 38, "duration": 10, "velocity": 92}, {"time": 142082, "pitch": 40, "duration": 10, "velocity": 91}, {"time": 142082, "pitch": 46, "duration": 10, "velocity": 25}, {"time": 142321, "pitch": 36, "duration": 10, "velocity": 77}, {"time": 142321, "pitch": 42, "duration": 10, "velocity": 64}, {"time": 142481, "pitch": 38, "duration": 10, "velocity": 55}, {"time": 142561, "pitch": 36, "duration": 10, "velocity": 121}, {"time": 142561, "pitch": 42, "duration": 10, "velocity": 64}, {"time": 142720, "pitch": 42, "duration": 10, "velocity": 58}, {"time": 142800, "pitch": 36, "duration": 10, "velocity": 119}, {"time": 142800, "pitch": 70, "duration": 10, "velocity": 70}, {"time": 142960, "pitch": 36, "duration": 10, "velocity": 121}, {"time": 142960, "pitch": 42, "duration": 10, "velocity": 52}, {"time": 143040, "pitch": 38, "duration": 9, "velocity": 94}, {"time": 143040, "pitch": 40, "duration": 9, "velocity": 91}, {"time": 143199, "pitch": 42, "duration": 10, "velocity": 52}, {"time": 143279, "pitch": 36, "duration": 10, "velocity": 77}, {"time": 143438, "pitch": 38, "duration": 10, "velocity": 46}, {"time": 143438, "pitch": 42, "duration": 10, "velocity": 66}, {"time": 143518, "pitch": 36, "duration": 10, "velocity": 65}, {"time": 143518, "pitch": 70, "duration": 10, "velocity": 58}, {"time": 143678, "pitch": 38, "duration": 10, "velocity": 54}, {"time": 143678, "pitch": 70, "duration": 10, "velocity": 54}, {"time": 143758, "pitch": 36, "duration": 9, "velocity": 100}, {"time": 143758, "pitch": 42, "duration": 9, "velocity": 72}, {"time": 143758, "pitch": 62, "duration": 9, "velocity": 66}, {"time": 143997, "pitch": 38, "duration": 10, "velocity": 92}, {"time": 143997, "pitch": 40, "duration": 10, "velocity": 77}, {"time": 143997, "pitch": 42, "duration": 10, "velocity": 76}, {"time": 143997, "pitch": 63, "duration": 10, "velocity": 60}, {"time": 144159, "pitch": 42, "duration": 10, "velocity": 64}, {"time": 144240, "pitch": 36, "duration": 10, "velocity": 77}, {"time": 144240, "pitch": 46, "duration": 10, "velocity": 28}, {"time": 144240, "pitch": 64, "duration": 10, "velocity": 55}, {"time": 144402, "pitch": 38, "duration": 10, "velocity": 55}, {"time": 144483, "pitch": 36, "duration": 10, "velocity": 121}, {"time": 144483, "pitch": 42, "duration": 10, "velocity": 58}, {"time": 144722, "pitch": 36, "duration": 10, "velocity": 119}, {"time": 144722, "pitch": 42, "duration": 10, "velocity": 58}, {"time": 144882, "pitch": 36, "duration": 10, "velocity": 121}, {"time": 144882, "pitch": 42, "duration": 10, "velocity": 52}, {"time": 144962, "pitch": 38, "duration": 10, "velocity": 94}, {"time": 144962, "pitch": 40, "duration": 10, "velocity": 83}, {"time": 145121, "pitch": 42, "duration": 10, "velocity": 64}, {"time": 145201, "pitch": 36, "duration": 10, "velocity": 77}, {"time": 145201, "pitch": 70, "duration": 10, "velocity": 50}, {"time": 145361, "pitch": 38, "duration": 10, "velocity": 46}, {"time": 145361, "pitch": 70, "duration": 10, "velocity": 30}, {"time": 145440, "pitch": 36, "duration": 10, "velocity": 65}, {"time": 145440, "pitch": 70, "duration": 10, "velocity": 47}, {"time": 145600, "pitch": 38, "duration": 10, "velocity": 54}, {"time": 145680, "pitch": 36, "duration": 10, "velocity": 100}, {"time": 145680, "pitch": 42, "duration": 10, "velocity": 58}, {"time": 145919, "pitch": 38, "duration": 10, "velocity": 92}, {"time": 145919, "pitch": 40, "duration": 10, "velocity": 91}, {"time": 145919, "pitch": 46, "duration": 10, "velocity": 25}, {"time": 146158, "pitch": 36, "duration": 10, "velocity": 77}, {"time": 146158, "pitch": 42, "duration": 10, "velocity": 64}, {"time": 146318, "pitch": 38, "duration": 10, "velocity": 55}, {"time": 146398, "pitch": 36, "duration": 10, "velocity": 121}, {"time": 146398, "pitch": 42, "duration": 10, "velocity": 64}, {"time": 146557, "pitch": 42, "duration": 10, "velocity": 58}, {"time": 146637, "pitch": 36, "duration": 10, "velocity": 119}, {"time": 146637, "pitch": 70, "duration": 10, "velocity": 70}, {"time": 146797, "pitch": 36, "duration": 10, "velocity": 121}, {"time": 146797, "pitch": 42, "duration": 10, "velocity": 52}, {"time": 146876, "pitch": 38, "duration": 10, "velocity": 94}, {"time": 146876, "pitch": 40, "duration": 10, "velocity": 91}, {"time": 147038, "pitch": 42, "duration": 11, "velocity": 52}, {"time": 147120, "pitch": 36, "duration": 10, "velocity": 77}, {"time": 147282, "pitch": 38, "duration": 10, "velocity": 46}, {"time": 147282, "pitch": 42, "duration": 10, "velocity": 66}, {"time": 147363, "pitch": 36, "duration": 10, "velocity": 65}, {"time": 147363, "pitch": 70, "duration": 10, "velocity": 58}, {"time": 147522, "pitch": 38, "duration": 10, "velocity": 54}, {"time": 147522, "pitch": 70, "duration": 10, "velocity": 54}, {"time": 147602, "pitch": 36, "duration": 10, "velocity": 100}, {"time": 147602, "pitch": 42, "duration": 10, "velocity": 72}, {"time": 147602, "pitch": 62, "duration": 10, "velocity": 66}, {"time": 147841, "pitch": 38, "duration": 10, "velocity": 92}, {"time": 147841, "pitch": 40, "duration": 10, "velocity": 77}, {"time": 147841, "pitch": 42, "duration": 10, "velocity": 76}, {"time": 147841, "pitch": 63, "duration": 10, "velocity": 60}, {"time": 148001, "pitch": 42, "duration": 10, "velocity": 64}, {"time": 148081, "pitch": 36, "duration": 10, "velocity": 77}, {"time": 148081, "pitch": 46, "duration": 10, "velocity": 28}, {"time": 148081, "pitch": 64, "duration": 10, "velocity": 55}, {"time": 148240, "pitch": 38, "duration": 10, "velocity": 55}, {"time": 148320, "pitch": 36, "duration": 10, "velocity": 121}, {"time": 148320, "pitch": 42, "duration": 10, "velocity": 58}, {"time": 148559, "pitch": 36, "duration": 10, "velocity": 119}, {"time": 148559, "pitch": 42, "duration": 10, "velocity": 58}, {"time": 148719, "pitch": 36, "duration": 10, "velocity": 121}, {"time": 148719, "pitch": 42, "duration": 10, "velocity": 52}, {"time": 148799, "pitch": 38, "duration": 10, "velocity": 94}, {"time": 148799, "pitch": 40, "duration": 10, "velocity": 83}, {"time": 148958, "pitch": 42, "duration": 10, "velocity": 64}, {"time": 149038, "pitch": 36, "duration": 10, "velocity": 77}, {"time": 149038, "pitch": 70, "duration": 10, "velocity": 50}, {"time": 149198, "pitch": 38, "duration": 10, "velocity": 46}, {"time": 149198, "pitch": 70, "duration": 10, "velocity": 30}, {"time": 149277, "pitch": 36, "duration": 10, "velocity": 65}, {"time": 149277, "pitch": 70, "duration": 10, "velocity": 47}, {"time": 149439, "pitch": 38, "duration": 10, "velocity": 54}, {"time": 149520, "pitch": 36, "duration": 11, "velocity": 100}, {"time": 149520, "pitch": 42, "duration": 11, "velocity": 58}, {"time": 149763, "pitch": 38, "duration": 10, "velocity": 92}, {"time": 149763, "pitch": 40, "duration": 10, "velocity": 91}, {"time": 149763, "pitch": 46, "duration": 10, "velocity": 25}, {"time": 150003, "pitch": 36, "duration": 10, "velocity": 77}, {"time": 150003, "pitch": 42, "duration": 10, "velocity": 64}, {"time": 150162, "pitch": 38, "duration": 10, "velocity": 55}, {"time": 150242, "pitch": 36, "duration": 10, "velocity": 121}, {"time": 150242, "pitch": 42, "duration": 10, "velocity": 64}, {"time": 150402, "pitch": 42, "duration": 10, "velocity": 58}, {"time": 150482, "pitch": 36, "duration": 9, "velocity": 119}, {"time": 150482, "pitch": 70, "duration": 9, "velocity": 70}, {"time": 150641, "pitch": 36, "duration": 10, "velocity": 121}, {"time": 150641, "pitch": 42, "duration": 10, "velocity": 52}, {"time": 150721, "pitch": 38, "duration": 10, "velocity": 94}, {"time": 150721, "pitch": 40, "duration": 10, "velocity": 91}, {"time": 150880, "pitch": 42, "duration": 10, "velocity": 52}, {"time": 150960, "pitch": 36, "duration": 10, "velocity": 77}, {"time": 151120, "pitch": 38, "duration": 10, "velocity": 46}, {"time": 151120, "pitch": 42, "duration": 10, "velocity": 66}, {"time": 151200, "pitch": 36, "duration": 9, "velocity": 65}, {"time": 151200, "pitch": 70, "duration": 9, "velocity": 58}, {"time": 151359, "pitch": 38, "duration": 10, "velocity": 54}, {"time": 151359, "pitch": 70, "duration": 10, "velocity": 54}, {"time": 151439, "pitch": 36, "duration": 10, "velocity": 100}, {"time": 151439, "pitch": 42, "duration": 10, "velocity": 72}, {"time": 151439, "pitch": 62, "duration": 10, "velocity": 66}, {"time": 151678, "pitch": 38, "duration": 10, "velocity": 92}, {"time": 151678, "pitch": 40, "duration": 10, "velocity": 77}, {"time": 151678, "pitch": 42, "duration": 10, "velocity": 76}, {"time": 151678, "pitch": 63, "duration": 10, "velocity": 60}, {"time": 151838, "pitch": 42, "duration": 10, "velocity": 64}, {"time": 151918, "pitch": 36, "duration": 10, "velocity": 77}, {"time": 151918, "pitch": 46, "duration": 10, "velocity": 28}, {"time": 151918, "pitch": 64, "duration": 10, "velocity": 55}, {"time": 152077, "pitch": 38, "duration": 10, "velocity": 55}, {"time": 152157, "pitch": 36, "duration": 10, "velocity": 121}, {"time": 152157, "pitch": 42, "duration": 10, "velocity": 58}, {"time": 152400, "pitch": 36, "duration": 10, "velocity": 119}, {"time": 152400, "pitch": 42, "duration": 10, "velocity": 58}, {"time": 152562, "pitch": 36, "duration": 10, "velocity": 121}, {"time": 152562, "pitch": 42, "duration": 10, "velocity": 52}, {"time": 152643, "pitch": 38, "duration": 10, "velocity": 94}, {"time": 152643, "pitch": 40, "duration": 10, "velocity": 83}, {"time": 152803, "pitch": 42, "duration": 10, "velocity": 64}, {"time": 152882, "pitch": 36, "duration": 10, "velocity": 77}, {"time": 152882, "pitch": 70, "duration": 10, "velocity": 50}, {"time": 153042, "pitch": 38, "duration": 10, "velocity": 46}, {"time": 153042, "pitch": 70, "duration": 10, "velocity": 30}, {"time": 153122, "pitch": 36, "duration": 10, "velocity": 65}, {"time": 153122, "pitch": 70, "duration": 10, "velocity": 47}, {"time": 153281, "pitch": 38, "duration": 10, "velocity": 54}, {"time": 153361, "pitch": 36, "duration": 10, "velocity": 100}, {"time": 153361, "pitch": 42, "duration": 10, "velocity": 58}, {"time": 153600, "pitch": 38, "duration": 10, "velocity": 92}, {"time": 153600, "pitch": 40, "duration": 10, "velocity": 91}, {"time": 153600, "pitch": 46, "duration": 10, "velocity": 25}, {"time": 153840, "pitch": 36, "duration": 10, "velocity": 77}, {"time": 153840, "pitch": 42, "duration": 10, "velocity": 64}, {"time": 153999, "pitch": 38, "duration": 10, "velocity": 55}, {"time": 154079, "pitch": 36, "duration": 10, "velocity": 121}, {"time": 154079, "pitch": 42, "duration": 10, "velocity": 64}, {"time": 154239, "pitch": 42, "duration": 10, "velocity": 58}, {"time": 154318, "pitch": 36, "duration": 10, "velocity": 119}, {"time": 154318, "pitch": 70, "duration": 10, "velocity": 70}, {"time": 154478, "pitch": 36, "duration": 10, "velocity": 121}, {"time": 154478, "pitch": 42, "duration": 10, "velocity": 52}, {"time": 154558, "pitch": 38, "duration": 10, "velocity": 94}, {"time": 154558, "pitch": 40, "duration": 10, "velocity": 91}, {"time": 154717, "pitch": 42, "duration": 10, "velocity": 52}, {"time": 154797, "pitch": 36, "duration": 10, "velocity": 77}, {"time": 154957, "pitch": 38, "duration": 10, "velocity": 46}, {"time": 154957, "pitch": 42, "duration": 10, "velocity": 66}, {"time": 155036, "pitch": 36, "duration": 11, "velocity": 65}, {"time": 155036, "pitch": 70, "duration": 11, "velocity": 58}, {"time": 155198, "pitch": 38, "duration": 11, "velocity": 54}, {"time": 155198, "pitch": 70, "duration": 11, "velocity": 54}, {"time": 155280, "pitch": 36, "duration": 10, "velocity": 100}, {"time": 155280, "pitch": 42, "duration": 10, "velocity": 72}, {"time": 155280, "pitch": 62, "duration": 10, "velocity": 66}, {"time": 155523, "pitch": 38, "duration": 10, "velocity": 92}, {"time": 155523, "pitch": 40, "duration": 10, "velocity": 77}, {"time": 155523, "pitch": 42, "duration": 10, "velocity": 76}, {"time": 155523, "pitch": 63, "duration": 10, "velocity": 60}, {"time": 155682, "pitch": 42, "duration": 10, "velocity": 64}, {"time": 155762, "pitch": 36, "duration": 10, "velocity": 77}, {"time": 155762, "pitch": 46, "duration": 10, "velocity": 28}, {"time": 155762, "pitch": 64, "duration": 10, "velocity": 55}, {"time": 155922, "pitch": 38, "duration": 9, "velocity": 55}, {"time": 156001, "pitch": 36, "duration": 10, "velocity": 121}, {"time": 156001, "pitch": 42, "duration": 10, "velocity": 58}, {"time": 156241, "pitch": 36, "duration": 10, "velocity": 119}, {"time": 156241, "pitch": 42, "duration": 10, "velocity": 58}, {"time": 156400, "pitch": 36, "duration": 10, "velocity": 121}, {"time": 156400, "pitch": 42, "duration": 10, "velocity": 52}, {"time": 156480, "pitch": 38, "duration": 10, "velocity": 94}, {"time": 156480, "pitch": 40, "duration": 10, "velocity": 83}, {"time": 156640, "pitch": 42, "duration": 10, "velocity": 64}, {"time": 156719, "pitch": 36, "duration": 10, "velocity": 77}, {"time": 156719, "pitch": 70, "duration": 10, "velocity": 50}, {"time": 156879, "pitch": 38, "duration": 10, "velocity": 46}, {"time": 156879, "pitch": 70, "duration": 10, "velocity": 30}, {"time": 156959, "pitch": 36, "duration": 10, "velocity": 65}, {"time": 156959, "pitch": 70, "duration": 10, "velocity": 47}, {"time": 157118, "pitch": 38, "duration": 10, "velocity": 54}, {"time": 157198, "pitch": 36, "duration": 10, "velocity": 100}, {"time": 157198, "pitch": 42, "duration": 10, "velocity": 58}, {"time": 157437, "pitch": 38, "duration": 10, "velocity": 92}, {"time": 157437, "pitch": 40, "duration": 10, "velocity": 91}, {"time": 157437, "pitch": 46, "duration": 10, "velocity": 25}, {"time": 157680, "pitch": 36, "duration": 11, "velocity": 77}, {"time": 157680, "pitch": 42, "duration": 11, "velocity": 64}, {"time": 157843, "pitch": 38, "duration": 10, "velocity": 55}, {"time": 157924, "pitch": 36, "duration": 9, "velocity": 121}, {"time": 157924, "pitch": 42, "duration": 9, "velocity": 78}, {"time": 158163, "pitch": 36, "duration": 10, "velocity": 119}, {"time": 158163, "pitch": 42, "duration": 10, "velocity": 25}, {"time": 158322, "pitch": 42, "duration": 10, "velocity": 52}, {"time": 158402, "pitch": 38, "duration": 10, "velocity": 94}, {"time": 158402, "pitch": 42, "duration": 10, "velocity": 80}, {"time": 158562, "pitch": 42, "duration": 10, "velocity": 64}, {"time": 158642, "pitch": 36, "duration": 10, "velocity": 77}, {"time": 158642, "pitch": 42, "duration": 10, "velocity": 46}, {"time": 158642, "pitch": 70, "duration": 10, "velocity": 50}, {"time": 158801, "pitch": 38, "duration": 10, "velocity": 46}, {"time": 158801, "pitch": 70, "duration": 10, "velocity": 30}, {"time": 158881, "pitch": 36, "duration": 10, "velocity": 65}, {"time": 158881, "pitch": 42, "duration": 10, "velocity": 79}, {"time": 158881, "pitch": 70, "duration": 10, "velocity": 47}, {"time": 159040, "pitch": 38, "duration": 10, "velocity": 54}, {"time": 159120, "pitch": 36, "duration": 10, "velocity": 100}, {"time": 159120, "pitch": 42, "duration": 10, "velocity": 58}, {"time": 159120, "pitch": 46, "duration": 10, "velocity": 46}, {"time": 159360, "pitch": 38, "duration": 10, "velocity": 92}, {"time": 159360, "pitch": 42, "duration": 10, "velocity": 89}, {"time": 159599, "pitch": 36, "duration": 10, "velocity": 77}, {"time": 159599, "pitch": 42, "duration": 10, "velocity": 46}, {"time": 159758, "pitch": 38, "duration": 10, "velocity": 32}, {"time": 159798, "pitch": 38, "duration": 10, "velocity": 34}, {"time": 159838, "pitch": 36, "duration": 10, "velocity": 121}, {"time": 159838, "pitch": 42, "duration": 10, "velocity": 64}, {"time": 159998, "pitch": 42, "duration": 10, "velocity": 58}, {"time": 160078, "pitch": 36, "duration": 10, "velocity": 119}, {"time": 160078, "pitch": 42, "duration": 10, "velocity": 58}, {"time": 160078, "pitch": 70, "duration": 10, "velocity": 70}, {"time": 160237, "pitch": 42, "duration": 10, "velocity": 52}, {"time": 160317, "pitch": 38, "duration": 10, "velocity": 94}, {"time": 160317, "pitch": 42, "duration": 10, "velocity": 87}, {"time": 160479, "pitch": 42, "duration": 10, "velocity": 52}, {"time": 160560, "pitch": 36, "duration": 10, "velocity": 77}, {"time": 160560, "pitch": 42, "duration": 10, "velocity": 29}, {"time": 160722, "pitch": 38, "duration": 10, "velocity": 46}, {"time": 160722, "pitch": 42, "duration": 10, "velocity": 66}, {"time": 160803, "pitch": 36, "duration": 10, "velocity": 65}, {"time": 160803, "pitch": 42, "duration": 10, "velocity": 89}, {"time": 160803, "pitch": 70, "duration": 10, "velocity": 58}, {"time": 160963, "pitch": 38, "duration": 10, "velocity": 54}, {"time": 160963, "pitch": 70, "duration": 10, "velocity": 54}, {"time": 161042, "pitch": 36, "duration": 10, "velocity": 100}, {"time": 161042, "pitch": 46, "duration": 10, "velocity": 39}, {"time": 161042, "pitch": 62, "duration": 10, "velocity": 66}, {"time": 161282, "pitch": 38, "duration": 10, "velocity": 92}, {"time": 161282, "pitch": 42, "duration": 10, "velocity": 58}, {"time": 161282, "pitch": 63, "duration": 10, "velocity": 60}, {"time": 161441, "pitch": 42, "duration": 10, "velocity": 64}, {"time": 161521, "pitch": 36, "duration": 10, "velocity": 77}, {"time": 161521, "pitch": 46, "duration": 10, "velocity": 28}, {"time": 161521, "pitch": 64, "duration": 10, "velocity": 55}, {"time": 161681, "pitch": 38, "duration": 10, "velocity": 32}, {"time": 161721, "pitch": 38, "duration": 10, "velocity": 34}, {"time": 161760, "pitch": 36, "duration": 10, "velocity": 121}, {"time": 161760, "pitch": 42, "duration": 10, "velocity": 78}, {"time": 162000, "pitch": 36, "duration": 10, "velocity": 119}, {"time": 162000, "pitch": 42, "duration": 10, "velocity": 25}, {"time": 162159, "pitch": 42, "duration": 10, "velocity": 52}, {"time": 162239, "pitch": 38, "duration": 10, "velocity": 94}, {"time": 162239, "pitch": 42, "duration": 10, "velocity": 80}, {"time": 162399, "pitch": 42, "duration": 10, "velocity": 64}, {"time": 162478, "pitch": 36, "duration": 10, "velocity": 77}, {"time": 162478, "pitch": 42, "duration": 10, "velocity": 46}, {"time": 162478, "pitch": 70, "duration": 10, "velocity": 50}, {"time": 162638, "pitch": 38, "duration": 10, "velocity": 46}, {"time": 162638, "pitch": 70, "duration": 10, "velocity": 30}, {"time": 162718, "pitch": 36, "duration": 10, "velocity": 65}, {"time": 162718, "pitch": 42, "duration": 10, "velocity": 79}, {"time": 162718, "pitch": 70, "duration": 10, "velocity": 47}, {"time": 162877, "pitch": 38, "duration": 10, "velocity": 54}, {"time": 162957, "pitch": 36, "duration": 10, "velocity": 100}, {"time": 162957, "pitch": 42, "duration": 10, "velocity": 58}, {"time": 162957, "pitch": 46, "duration": 10, "velocity": 46}, {"time": 163196, "pitch": 38, "duration": 11, "velocity": 92}, {"time": 163196, "pitch": 42, "duration": 11, "velocity": 89}, {"time": 163440, "pitch": 36, "duration": 10, "velocity": 77}, {"time": 163440, "pitch": 42, "duration": 10, "velocity": 46}, {"time": 163602, "pitch": 38, "duration": 10, "velocity": 32}, {"time": 163642, "pitch": 38, "duration": 10, "velocity": 34}, {"time": 163683, "pitch": 36, "duration": 10, "velocity": 121}, {"time": 163683, "pitch": 42, "duration": 10, "velocity": 64}, {"time": 163842, "pitch": 42, "duration": 10, "velocity": 58}, {"time": 163922, "pitch": 36, "duration": 10, "velocity": 119}, {"time": 163922, "pitch": 42, "duration": 10, "velocity": 58}, {"time": 163922, "pitch": 70, "duration": 10, "velocity": 70}, {"time": 164082, "pitch": 42, "duration": 10, "velocity": 52}, {"time": 164161, "pitch": 38, "duration": 10, "velocity": 94}, {"time": 164161, "pitch": 42, "duration": 10, "velocity": 87}, {"time": 164321, "pitch": 42, "duration": 10, "velocity": 52}, {"time": 164401, "pitch": 36, "duration": 10, "velocity": 77}, {"time": 164401, "pitch": 42, "duration": 10, "velocity": 29}, {"time": 164560, "pitch": 38, "duration": 10, "velocity": 46}, {"time": 164560, "pitch": 42, "duration": 10, "velocity": 66}, {"time": 164640, "pitch": 36, "duration": 10, "velocity": 65}, {"time": 164640, "pitch": 42, "duration": 10, "velocity": 89}, {"time": 164640, "pitch": 70, "duration": 10, "velocity": 58}, {"time": 164800, "pitch": 38, "duration": 10, "velocity": 54}, {"time": 164800, "pitch": 70, "duration": 10, "velocity": 54}, {"time": 164879, "pitch": 36, "duration": 10, "velocity": 100}, {"time": 164879, "pitch": 46, "duration": 10, "velocity": 39}, {"time": 164879, "pitch": 62, "duration": 10, "velocity": 66}, {"time": 165119, "pitch": 38, "duration": 10, "velocity": 92}, {"time": 165119, "pitch": 42, "duration": 10, "velocity": 58}, {"time": 165119, "pitch": 63, "duration": 10, "velocity": 60}, {"time": 165278, "pitch": 42, "duration": 10, "velocity": 64}, {"time": 165358, "pitch": 36, "duration": 10, "velocity": 77}, {"time": 165358, "pitch": 46, "duration": 10, "velocity": 28}, {"time": 165358, "pitch": 64, "duration": 10, "velocity": 55}, {"time": 165518, "pitch": 38, "duration": 10, "velocity": 32}, {"time": 165557, "pitch": 38, "duration": 10, "velocity": 34}, {"time": 165597, "pitch": 36, "duration": 10, "velocity": 121}, {"time": 165597, "pitch": 42, "duration": 10, "velocity": 78}, {"time": 165840, "pitch": 36, "duration": 11, "velocity": 119}, {"time": 165840, "pitch": 42, "duration": 11, "velocity": 25}, {"time": 166003, "pitch": 42, "duration": 10, "velocity": 52}, {"time": 166084, "pitch": 38, "duration": 10, "velocity": 94}, {"time": 166084, "pitch": 42, "duration": 10, "velocity": 80}, {"time": 166243, "pitch": 42, "duration": 10, "velocity": 64}, {"time": 166323, "pitch": 36, "duration": 10, "velocity": 77}, {"time": 166323, "pitch": 42, "duration": 10, "velocity": 46}, {"time": 166323, "pitch": 70, "duration": 10, "velocity": 50}, {"time": 166482, "pitch": 38, "duration": 10, "velocity": 46}, {"time": 166482, "pitch": 70, "duration": 10, "velocity": 30}, {"time": 166562, "pitch": 36, "duration": 10, "velocity": 65}, {"time": 166562, "pitch": 42, "duration": 10, "velocity": 79}, {"time": 166562, "pitch": 70, "duration": 10, "velocity": 47}, {"time": 166722, "pitch": 38, "duration": 10, "velocity": 54}, {"time": 166802, "pitch": 36, "duration": 10, "velocity": 100}, {"time": 166802, "pitch": 42, "duration": 10, "velocity": 58}, {"time": 166802, "pitch": 46, "duration": 10, "velocity": 46}, {"time": 167041, "pitch": 38, "duration": 10, "velocity": 92}, {"time": 167041, "pitch": 42, "duration": 10, "velocity": 89}, {"time": 167280, "pitch": 36, "duration": 10, "velocity": 77}, {"time": 167280, "pitch": 42, "duration": 10, "velocity": 46}, {"time": 167440, "pitch": 38, "duration": 10, "velocity": 32}, {"time": 167480, "pitch": 38, "duration": 10, "velocity": 34}, {"time": 167520, "pitch": 36, "duration": 10, "velocity": 121}, {"time": 167520, "pitch": 42, "duration": 10, "velocity": 64}, {"time": 167679, "pitch": 42, "duration": 10, "velocity": 58}, {"time": 167759, "pitch": 36, "duration": 10, "velocity": 119}, {"time": 167759, "pitch": 42, "duration": 10, "velocity": 58}, {"time": 167759, "pitch": 70, "duration": 10, "velocity": 70}, {"time": 167918, "pitch": 42, "duration": 10, "velocity": 52}, {"time": 167998, "pitch": 38, "duration": 10, "velocity": 94}, {"time": 167998, "pitch": 42, "duration": 10, "velocity": 87}, {"time": 168158, "pitch": 42, "duration": 10, "velocity": 52}, {"time": 168238, "pitch": 36, "duration": 10, "velocity": 77}, {"time": 168238, "pitch": 42, "duration": 10, "velocity": 29}, {"time": 168397, "pitch": 38, "duration": 10, "velocity": 46}, {"time": 168397, "pitch": 42, "duration": 10, "velocity": 66}, {"time": 168477, "pitch": 36, "duration": 10, "velocity": 65}, {"time": 168477, "pitch": 42, "duration": 10, "velocity": 89}, {"time": 168477, "pitch": 70, "duration": 10, "velocity": 58}, {"time": 168639, "pitch": 38, "duration": 10, "velocity": 54}, {"time": 168639, "pitch": 70, "duration": 10, "velocity": 54}, {"time": 168720, "pitch": 36, "duration": 10, "velocity": 100}, {"time": 168720, "pitch": 46, "duration": 10, "velocity": 39}, {"time": 168720, "pitch": 62, "duration": 10, "velocity": 66}, {"time": 168963, "pitch": 38, "duration": 10, "velocity": 92}, {"time": 168963, "pitch": 42, "duration": 10, "velocity": 58}, {"time": 168963, "pitch": 63, "duration": 10, "velocity": 60}, {"time": 169123, "pitch": 42, "duration": 10, "velocity": 64}, {"time": 169202, "pitch": 36, "duration": 10, "velocity": 77}, {"time": 169202, "pitch": 46, "duration": 10, "velocity": 28}, {"time": 169202, "pitch": 64, "duration": 10, "velocity": 55}, {"time": 169362, "pitch": 38, "duration": 10, "velocity": 32}, {"time": 169402, "pitch": 38, "duration": 10, "velocity": 34}, {"time": 169442, "pitch": 36, "duration": 10, "velocity": 121}, {"time": 169442, "pitch": 42, "duration": 10, "velocity": 78}, {"time": 169681, "pitch": 36, "duration": 10, "velocity": 119}, {"time": 169681, "pitch": 42, "duration": 10, "velocity": 25}, {"time": 169841, "pitch": 42, "duration": 10, "velocity": 52}, {"time": 169920, "pitch": 38, "duration": 10, "velocity": 94}, {"time": 169920, "pitch": 42, "duration": 10, "velocity": 80}, {"time": 170080, "pitch": 42, "duration": 10, "velocity": 64}, {"time": 170160, "pitch": 36, "duration": 10, "velocity": 77}, {"time": 170160, "pitch": 42, "duration": 10, "velocity": 46}, {"time": 170160, "pitch": 70, "duration": 10, "velocity": 50}, {"time": 170319, "pitch": 38, "duration": 10, "velocity": 46}, {"time": 170319, "pitch": 70, "duration": 10, "velocity": 30}, {"time": 170399, "pitch": 36, "duration": 10, "velocity": 65}, {"time": 170399, "pitch": 42, "duration": 10, "velocity": 79}, {"time": 170399, "pitch": 70, "duration": 10, "velocity": 47}, {"time": 170559, "pitch": 38, "duration": 10, "velocity": 54}, {"time": 170638, "pitch": 36, "duration": 10, "velocity": 100}, {"time": 170638, "pitch": 42, "duration": 10, "velocity": 58}, {"time": 170638, "pitch": 46, "duration": 10, "velocity": 46}, {"time": 170878, "pitch": 38, "duration": 10, "velocity": 92}, {"time": 170878, "pitch": 42, "duration": 10, "velocity": 89}, {"time": 171117, "pitch": 36, "duration": 10, "velocity": 77}, {"time": 171117, "pitch": 42, "duration": 10, "velocity": 46}, {"time": 171277, "pitch": 38, "duration": 10, "velocity": 32}, {"time": 171317, "pitch": 38, "duration": 10, "velocity": 34}, {"time": 171356, "pitch": 36, "duration": 11, "velocity": 121}, {"time": 171356, "pitch": 42, "duration": 11, "velocity": 64}, {"time": 171519, "pitch": 42, "duration": 10, "velocity": 58}, {"time": 171600, "pitch": 36, "duration": 10, "velocity": 119}, {"time": 171600, "pitch": 42, "duration": 10, "velocity": 58}, {"time": 171600, "pitch": 70, "duration": 10, "velocity": 70}, {"time": 171762, "pitch": 42, "duration": 10, "velocity": 52}, {"time": 171843, "pitch": 38, "duration": 10, "velocity": 94}, {"time": 171843, "pitch": 42, "duration": 10, "velocity": 87}, {"time": 172002, "pitch": 42, "duration": 10, "velocity": 52}, {"time": 172082, "pitch": 36, "duration": 10, "velocity": 77}, {"time": 172082, "pitch": 42, "duration": 10, "velocity": 29}, {"time": 172242, "pitch": 38, "duration": 10, "velocity": 46}, {"time": 172242, "pitch": 42, "duration": 10, "velocity": 66}, {"time": 172321, "pitch": 36, "duration": 10, "velocity": 65}, {"time": 172321, "pitch": 42, "duration": 10, "velocity": 89}, {"time": 172321, "pitch": 70, "duration": 10, "velocity": 58}, {"time": 172481, "pitch": 38, "duration": 10, "velocity": 54}, {"time": 172481, "pitch": 70, "duration": 10, "velocity": 54}, {"time": 172561, "pitch": 36, "duration": 10, "velocity": 100}, {"time": 172561, "pitch": 46, "duration": 10, "velocity": 39}, {"time": 172561, "pitch": 62, "duration": 10, "velocity": 66}, {"time": 172800, "pitch": 38, "duration": 10, "velocity": 92}, {"time": 172800, "pitch": 42, "duration": 10, "velocity": 58}, {"time": 172800, "pitch": 63, "duration": 10, "velocity": 60}, {"time": 172960, "pitch": 42, "duration": 10, "velocity": 64}, {"time": 173039, "pitch": 36, "duration": 10, "velocity": 77}, {"time": 173039, "pitch": 46, "duration": 10, "velocity": 28}, {"time": 173039, "pitch": 64, "duration": 10, "velocity": 55}, {"time": 173199, "pitch": 38, "duration": 10, "velocity": 32}, {"time": 173239, "pitch": 38, "duration": 10, "velocity": 34}, {"time": 173279, "pitch": 36, "duration": 10, "velocity": 121}, {"time": 173279, "pitch": 42, "duration": 10, "velocity": 78}, {"time": 173518, "pitch": 36, "duration": 10, "velocity": 119}, {"time": 173518, "pitch": 42, "duration": 10, "velocity": 25}, {"time": 173678, "pitch": 42, "duration": 10, "velocity": 52}, {"time": 173757, "pitch": 38, "duration": 10, "velocity": 94}, {"time": 173757, "pitch": 42, "duration": 10, "velocity": 80}, {"time": 173919, "pitch": 42, "duration": 11, "velocity": 64}, {"time": 174000, "pitch": 36, "duration": 11, "velocity": 77}, {"time": 174000, "pitch": 42, "duration": 11, "velocity": 46}, {"time": 174000, "pitch": 70, "duration": 11, "velocity": 50}, {"time": 174163, "pitch": 38, "duration": 10, "velocity": 46}, {"time": 174163, "pitch": 70, "duration": 10, "velocity": 30}, {"time": 174244, "pitch": 36, "duration": 10, "velocity": 65}, {"time": 174244, "pitch": 42, "duration": 10, "velocity": 79}, {"time": 174244, "pitch": 70, "duration": 10, "velocity": 47}, {"time": 174403, "pitch": 38, "duration": 10, "velocity": 54}, {"time": 174483, "pitch": 36, "duration": 10, "velocity": 100}, {"time": 174483, "pitch": 42, "duration": 10, "velocity": 58}, {"time": 174483, "pitch": 46, "duration": 10, "velocity": 46}, {"time": 174722, "pitch": 38, "duration": 10, "velocity": 92}, {"time": 174722, "pitch": 42, "duration": 10, "velocity": 89}, {"time": 174962, "pitch": 36, "duration": 10, "velocity": 77}, {"time": 174962, "pitch": 42, "duration": 10, "velocity": 46}, {"time": 175121, "pitch": 38, "duration": 10, "velocity": 32}, {"time": 175161, "pitch": 38, "duration": 10, "velocity": 34}, {"time": 175201, "pitch": 36, "duration": 10, "velocity": 121}, {"time": 175201, "pitch": 42, "duration": 10, "velocity": 64}, {"time": 175360, "pitch": 42, "duration": 10, "velocity": 58}, {"time": 175440, "pitch": 36, "duration": 10, "velocity": 119}, {"time": 175440, "pitch": 42, "duration": 10, "velocity": 58}, {"time": 175440, "pitch": 70, "duration": 10, "velocity": 70}, {"time": 175600, "pitch": 42, "duration": 10, "velocity": 52}, {"time": 175680, "pitch": 38, "duration": 10, "velocity": 94}, {"time": 175680, "pitch": 42, "duration": 10, "velocity": 87}, {"time": 175839, "pitch": 42, "duration": 10, "velocity": 52}, {"time": 175919, "pitch": 36, "duration": 10, "velocity": 77}, {"time": 175919, "pitch": 42, "duration": 10, "velocity": 29}, {"time": 176078, "pitch": 38, "duration": 10, "velocity": 46}, {"time": 176078, "pitch": 42, "duration": 10, "velocity": 66}, {"time": 176158, "pitch": 36, "duration": 10, "velocity": 65}, {"time": 176158, "pitch": 42, "duration": 10, "velocity": 89}, {"time": 176158, "pitch": 70, "duration": 10, "velocity": 58}, {"time": 176318, "pitch": 38, "duration": 10, "velocity": 54}, {"time": 176318, "pitch": 70, "duration": 10, "velocity": 54}, {"time": 176398, "pitch": 36, "duration": 10, "velocity": 100}, {"time": 176398, "pitch": 46, "duration": 10, "velocity": 39}, {"time": 176398, "pitch": 62, "duration": 10, "velocity": 66}, {"time": 176637, "pitch": 38, "duration": 10, "velocity": 92}, {"time": 176637, "pitch": 42, "duration": 10, "velocity": 58}, {"time": 176637, "pitch": 63, "duration": 10, "velocity": 60}, {"time": 176799, "pitch": 42, "duration": 10, "velocity": 64}, {"time": 176880, "pitch": 36, "duration": 10, "velocity": 77}, {"time": 176880, "pitch": 46, "duration": 10, "velocity": 28}, {"time": 176880, "pitch": 64, "duration": 10, "velocity": 55}, {"time": 177042, "pitch": 38, "duration": 10, "velocity": 32}, {"time": 177083, "pitch": 38, "duration": 10, "velocity": 34}, {"time": 177123, "pitch": 36, "duration": 10, "velocity": 121}, {"time": 177123, "pitch": 42, "duration": 10, "velocity": 78}, {"time": 177362, "pitch": 36, "duration": 10, "velocity": 119}, {"time": 177362, "pitch": 42, "duration": 10, "velocity": 25}, {"time": 177522, "pitch": 42, "duration": 10, "velocity": 52}, {"time": 177602, "pitch": 38, "duration": 10, "velocity": 94}, {"time": 177602, "pitch": 42, "duration": 10, "velocity": 80}, {"time": 177761, "pitch": 42, "duration": 10, "velocity": 64}, {"time": 177841, "pitch": 36, "duration": 10, "velocity": 77}, {"time": 177841, "pitch": 42, "duration": 10, "velocity": 46}, {"time": 177841, "pitch": 70, "duration": 10, "velocity": 50}, {"time": 178001, "pitch": 38, "duration": 10, "velocity": 46}, {"time": 178001, "pitch": 70, "duration": 10, "velocity": 30}, {"time": 178080, "pitch": 36, "duration": 10, "velocity": 65}, {"time": 178080, "pitch": 42, "duration": 10, "velocity": 79}, {"time": 178080, "pitch": 70, "duration": 10, "velocity": 47}, {"time": 178240, "pitch": 38, "duration": 10, "velocity": 54}, {"time": 178320, "pitch": 36, "duration": 10, "velocity": 100}, {"time": 178320, "pitch": 42, "duration": 10, "velocity": 58}, {"time": 178320, "pitch": 46, "duration": 10, "velocity": 46}, {"time": 178559, "pitch": 38, "duration": 10, "velocity": 92}, {"time": 178559, "pitch": 42, "duration": 10, "velocity": 89}, {"time": 178798, "pitch": 36, "duration": 10, "velocity": 77}, {"time": 178798, "pitch": 42, "duration": 10, "velocity": 46}, {"time": 178958, "pitch": 38, "duration": 10, "velocity": 32}, {"time": 178998, "pitch": 38, "duration": 10, "velocity": 34}, {"time": 179038, "pitch": 36, "duration": 10, "velocity": 121}, {"time": 179038, "pitch": 42, "duration": 10, "velocity": 64}, {"time": 179197, "pitch": 42, "duration": 10, "velocity": 58}, {"time": 179277, "pitch": 36, "duration": 10, "velocity": 119}, {"time": 179277, "pitch": 42, "duration": 10, "velocity": 58}, {"time": 179277, "pitch": 70, "duration": 10, "velocity": 70}, {"time": 179437, "pitch": 42, "duration": 10, "velocity": 52}, {"time": 179517, "pitch": 38, "duration": 9, "velocity": 94}, {"time": 179517, "pitch": 42, "duration": 9, "velocity": 87}, {"time": 179676, "pitch": 42, "duration": 10, "velocity": 52}, {"time": 179756, "pitch": 36, "duration": 10, "velocity": 77}, {"time": 179756, "pitch": 42, "duration": 10, "velocity": 29}, {"time": 179915, "pitch": 38, "duration": 10, "velocity": 46}, {"time": 179915, "pitch": 42, "duration": 10, "velocity": 66}, {"time": 179995, "pitch": 36, "duration": 10, "velocity": 65}, {"time": 179995, "pitch": 42, "duration": 10, "velocity": 89}, {"time": 179995, "pitch": 70, "duration": 10, "velocity": 58}, {"time": 180155, "pitch": 38, "duration": 10, "velocity": 54}, {"time": 180155, "pitch": 70, "duration": 10, "velocity": 54}, {"time": 180235, "pitch": 36, "duration": 10, "velocity": 100}, {"time": 180235, "pitch": 46, "duration": 10, "velocity": 39}, {"time": 180235, "pitch": 62, "duration": 10, "velocity": 66}, {"time": 180474, "pitch": 38, "duration": 10, "velocity": 92}, {"time": 180474, "pitch": 42, "duration": 10, "velocity": 58}, {"time": 180474, "pitch": 63, "duration": 10, "velocity": 60}, {"time": 180633, "pitch": 42, "duration": 10, "velocity": 64}, {"time": 180713, "pitch": 36, "duration": 10, "velocity": 77}, {"time": 180713, "pitch": 46, "duration": 10, "velocity": 28}, {"time": 180713, "pitch": 64, "duration": 10, "velocity": 55}, {"time": 180873, "pitch": 38, "duration": 10, "velocity": 32}, {"time": 180913, "pitch": 38, "duration": 10, "velocity": 34}, {"time": 482, "pitch": 57, "duration": 1915, "velocity": 80}, {"time": 482, "pitch": 60, "duration": 1915, "velocity": 80}, {"time": 482, "pitch": 64, "duration": 1915, "velocity": 80}, {"time": 482, "pitch": 67, "duration": 1915, "velocity": 80}, {"time": 2397, "pitch": 57, "duration": 1922, "velocity": 80}, {"time": 2397, "pitch": 60, "duration": 1922, "velocity": 80}, {"time": 2397, "pitch": 65, "duration": 1922, "velocity": 80}, {"time": 2397, "pitch": 69, "duration": 1922, "velocity": 80}, {"time": 4319, "pitch": 57, "duration": 1922, "velocity": 80}, {"time": 4319, "pitch": 60, "duration": 1922, "velocity": 80}, {"time": 4319, "pitch": 64, "duration": 1922, "velocity": 80}, {"time": 4319, "pitch": 67, "duration": 1922, "velocity": 80}, {"time": 6241, "pitch": 57, "duration": 1923, "velocity": 80}, {"time": 6241, "pitch": 60, "duration": 1923, "velocity": 80}, {"time": 6241, "pitch": 65, "duration": 1923, "velocity": 80}, {"time": 6241, "pitch": 69, "duration": 1923, "velocity": 80}, {"time": 8164, "pitch": 57, "duration": 1914, "velocity": 80}, {"time": 8164, "pitch": 60, "duration": 1914, "velocity": 80}, {"time": 8164, "pitch": 64, "duration": 1914, "velocity": 80}, {"time": 8164, "pitch": 67, "duration": 1914, "velocity": 80}, {"time": 10078, "pitch": 57, "duration": 210, "velocity": 80}, {"time": 10078, "pitch": 60, "duration": 210, "velocity": 80}, {"time": 10078, "pitch": 62, "duration": 210, "velocity": 80}, {"time": 10078, "pitch": 65, "duration": 210, "velocity": 80}, {"time": 10078, "pitch": 69, "duration": 210, "velocity": 80}, {"time": 10318, "pitch": 57, "duration": 239, "velocity": 80}, {"time": 10318, "pitch": 60, "duration": 239, "velocity": 80}, {"time": 10318, "pitch": 62, "duration": 239, "velocity": 80}, {"time": 10318, "pitch": 65, "duration": 239, "velocity": 80}, {"time": 10318, "pitch": 69, "duration": 239, "velocity": 80}, {"time": 10800, "pitch": 57, "duration": 243, "velocity": 80}, {"time": 10800, "pitch": 60, "duration": 243, "velocity": 80}, {"time": 10800, "pitch": 62, "duration": 243, "velocity": 80}, {"time": 10800, "pitch": 65, "duration": 243, "velocity": 80}, {"time": 10800, "pitch": 69, "duration": 243, "velocity": 80}, {"time": 11282, "pitch": 55, "duration": 709, "velocity": 80}, {"time": 11282, "pitch": 59, "duration": 709, "velocity": 80}, {"time": 11282, "pitch": 62, "duration": 709, "velocity": 80}, {"time": 11282, "pitch": 64, "duration": 709, "velocity": 80}, {"time": 11282, "pitch": 67, "duration": 709, "velocity": 80}, {"time": 12000, "pitch": 57, "duration": 1923, "velocity": 80}, {"time": 12000, "pitch": 60, "duration": 1923, "velocity": 80}, {"time": 12000, "pitch": 64, "duration": 1923, "velocity": 80}, {"time": 12000, "pitch": 67, "duration": 1923, "velocity": 80}, {"time": 13923, "pitch": 57, "duration": 209, "velocity": 80}, {"time": 13923, "pitch": 60, "duration": 209, "velocity": 80}, {"time": 13923, "pitch": 62, "duration": 209, "velocity": 80}, {"time": 13923, "pitch": 65, "duration": 209, "velocity": 80}, {"time": 13923, "pitch": 69, "duration": 209, "velocity": 80}, {"time": 14162, "pitch": 57, "duration": 239, "velocity": 80}, {"time": 14162, "pitch": 60, "duration": 239, "velocity": 80}, {"time": 14162, "pitch": 62, "duration": 239, "velocity": 80}, {"time": 14162, "pitch": 65, "duration": 239, "velocity": 80}, {"time": 14162, "pitch": 69, "duration": 239, "velocity": 80}, {"time": 14641, "pitch": 57, "duration": 239, "velocity": 80}, {"time": 14641, "pitch": 60, "duration": 239, "velocity": 80}, {"time": 14641, "pitch": 62, "duration": 239, "velocity": 80}, {"time": 14641, "pitch": 65, "duration": 239, "velocity": 80}, {"time": 14641, "pitch": 69, "duration": 239, "velocity": 80}, {"time": 15119, "pitch": 55, "duration": 708, "velocity": 80}, {"time": 15119, "pitch": 59, "duration": 708, "velocity": 80}, {"time": 15119, "pitch": 62, "duration": 708, "velocity": 80}, {"time": 15119, "pitch": 64, "duration": 708, "velocity": 80}, {"time": 15119, "pitch": 67, "duration": 708, "velocity": 80}, {"time": 15837, "pitch": 53, "duration": 965, "velocity": 80}, {"time": 15837, "pitch": 60, "duration": 965, "velocity": 80}, {"time": 15837, "pitch": 65, "duration": 965, "velocity": 80}, {"time": 15837, "pitch": 69, "duration": 965, "velocity": 80}, {"time": 16802, "pitch": 52, "duration": 958, "velocity": 80}, {"time": 16802, "pitch": 59, "duration": 958, "velocity": 80}, {"time": 16802, "pitch": 62, "duration": 958, "velocity": 80}, {"time": 16802, "pitch": 65, "duration": 958, "velocity": 80}, {"time": 16802, "pitch": 68, "duration": 958, "velocity": 80}, {"time": 17760, "pitch": 57, "duration": 229, "velocity": 80}, {"time": 17760, "pitch": 60, "duration": 229, "velocity": 80}, {"time": 17760, "pitch": 64, "duration": 229, "velocity": 80}, {"time": 17760, "pitch": 69, "duration": 229, "velocity": 80}, {"time": 17999, "pitch": 56, "duration": 229, "velocity": 80}, {"time": 17999, "pitch": 59, "duration": 229, "velocity": 80}, {"time": 17999, "pitch": 62, "duration": 229, "velocity": 80}, {"time": 17999, "pitch": 68, "duration": 229, "velocity": 80}, {"time": 18238, "pitch": 55, "duration": 230, "velocity": 80}, {"time": 18238, "pitch": 60, "duration": 230, "velocity": 80}, {"time": 18238, "pitch": 64, "duration": 230, "velocity": 80}, {"time": 18238, "pitch": 67, "duration": 230, "velocity": 80}, {"time": 18478, "pitch": 54, "duration": 1194, "velocity": 80}, {"time": 18478, "pitch": 60, "duration": 1194, "velocity": 80}, {"time": 18478, "pitch": 64, "duration": 1194, "velocity": 80}, {"time": 18478, "pitch": 66, "duration": 1194, "velocity": 80}, {"time": 18478, "pitch": 69, "duration": 1194, "velocity": 80}, {"time": 19682, "pitch": 50, "duration": 957, "velocity": 80}, {"time": 19682, "pitch": 60, "duration": 957, "velocity": 80}, {"time": 19682, "pitch": 62, "duration": 957, "velocity": 80}, {"time": 19682, "pitch": 65, "duration": 957, "velocity": 80}, {"time": 19682, "pitch": 69, "duration": 957, "velocity": 80}, {"time": 20639, "pitch": 52, "duration": 958, "velocity": 80}, {"time": 20639, "pitch": 62, "duration": 958, "velocity": 80}, {"time": 20639, "pitch": 64, "duration": 958, "velocity": 80}, {"time": 20639, "pitch": 67, "duration": 958, "velocity": 80}, {"time": 20639, "pitch": 71, "duration": 958, "velocity": 80}, {"time": 21597, "pitch": 45, "duration": 715, "velocity": 64}, {"time": 21597, "pitch": 57, "duration": 715, "velocity": 80}, {"time": 21597, "pitch": 62, "duration": 715, "velocity": 80}, {"time": 21597, "pitch": 64, "duration": 715, "velocity": 80}, {"time": 21597, "pitch": 69, "duration": 715, "velocity": 80}, {"time": 22322, "pitch": 45, "duration": 1187, "velocity": 64}, {"time": 22322, "pitch": 57, "duration": 1187, "velocity": 80}, {"time": 22322, "pitch": 61, "duration": 1187, "velocity": 80}, {"time": 22322, "pitch": 64, "duration": 1187, "velocity": 80}, {"time": 22322, "pitch": 69, "duration": 1187, "velocity": 80}, {"time": 23519, "pitch": 53, "duration": 965, "velocity": 80}, {"time": 23519, "pitch": 57, "duration": 965, "velocity": 80}, {"time": 23519, "pitch": 60, "duration": 965, "velocity": 80}, {"time": 23519, "pitch": 64, "duration": 965, "velocity": 80}, {"time": 23519, "pitch": 67, "duration": 965, "velocity": 80}, {"time": 24484, "pitch": 55, "duration": 957, "velocity": 80}, {"time": 24484, "pitch": 59, "duration": 957, "velocity": 80}, {"time": 24484, "pitch": 62, "duration": 957, "velocity": 80}, {"time": 24484, "pitch": 67, "duration": 957, "velocity": 80}, {"time": 25441, "pitch": 57, "duration": 1922, "velocity": 80}, {"time": 25441, "pitch": 60, "duration": 1922, "velocity": 80}, {"time": 25441, "pitch": 64, "duration": 1922, "velocity": 80}, {"time": 25441, "pitch": 69, "duration": 1922, "velocity": 80}, {"time": 27363, "pitch": 53, "duration": 958, "velocity": 80}, {"time": 27363, "pitch": 57, "duration": 958, "velocity": 80}, {"time": 27363, "pitch": 60, "duration": 958, "velocity": 80}, {"time": 27363, "pitch": 64, "duration": 958, "velocity": 80}, {"time": 27363, "pitch": 67, "duration": 958, "velocity": 80}, {"time": 28321, "pitch": 55, "duration": 708, "velocity": 80}, {"time": 28321, "pitch": 59, "duration": 708, "velocity": 80}, {"time": 28321, "pitch": 62, "duration": 708, "velocity": 80}, {"time": 28321, "pitch": 67, "duration": 708, "velocity": 80}, {"time": 29039, "pitch": 57, "duration": 159, "velocity": 80}, {"time": 29039, "pitch": 64, "duration": 159, "velocity": 80}, {"time": 29039, "pitch": 69, "duration": 159, "velocity": 80}, {"time": 29039, "pitch": 72, "duration": 159, "velocity": 80}, {"time": 29517, "pitch": 55, "duration": 160, "velocity": 80}, {"time": 29517, "pitch": 62, "duration": 160, "velocity": 80}, {"time": 29517, "pitch": 67, "duration": 160, "velocity": 80}, {"time": 29517, "pitch": 71, "duration": 160, "velocity": 80}, {"time": 30000, "pitch": 53, "duration": 162, "velocity": 80}, {"time": 30000, "pitch": 60, "duration": 162, "velocity": 80}, {"time": 30000, "pitch": 65, "duration": 162, "velocity": 80}, {"time": 30000, "pitch": 69, "duration": 162, "velocity": 80}, {"time": 30482, "pitch": 55, "duration": 708, "velocity": 80}, {"time": 30482, "pitch": 59, "duration": 708, "velocity": 80}, {"time": 30482, "pitch": 62, "duration": 708, "velocity": 80}, {"time": 30482, "pitch": 67, "duration": 708, "velocity": 80}, {"time": 31200, "pitch": 53, "duration": 957, "velocity": 80}, {"time": 31200, "pitch": 60, "duration": 957, "velocity": 80}, {"time": 31200, "pitch": 64, "duration": 957, "velocity": 80}, {"time": 31200, "pitch": 69, "duration": 957, "velocity": 80}, {"time": 32157, "pitch": 43, "duration": 965, "velocity": 80}, {"time": 32157, "pitch": 59, "duration": 965, "velocity": 80}, {"time": 32157, "pitch": 62, "duration": 965, "velocity": 80}, {"time": 32157, "pitch": 67, "duration": 965, "velocity": 80}, {"time": 33122, "pitch": 57, "duration": 1915, "velocity": 80}, {"time": 33122, "pitch": 60, "duration": 1915, "velocity": 80}, {"time": 33122, "pitch": 64, "duration": 1915, "velocity": 80}, {"time": 35037, "pitch": 50, "duration": 965, "velocity": 80}, {"time": 35037, "pitch": 54, "duration": 965, "velocity": 80}, {"time": 35037, "pitch": 57, "duration": 965, "velocity": 80}, {"time": 35037, "pitch": 62, "duration": 965, "velocity": 80}, {"time": 36002, "pitch": 50, "duration": 718, "velocity": 80}, {"time": 36002, "pitch": 53, "duration": 718, "velocity": 80}, {"time": 36002, "pitch": 57, "duration": 718, "velocity": 80}, {"time": 36002, "pitch": 62, "duration": 718, "velocity": 80}, {"time": 36720, "pitch": 52, "duration": 229, "velocity": 80}, {"time": 36720, "pitch": 56, "duration": 229, "velocity": 80}, {"time": 36720, "pitch": 59, "duration": 229, "velocity": 80}, {"time": 36720, "pitch": 64, "duration": 229, "velocity": 80}, {"time": 37199, "pitch": 52, "duration": 199, "velocity": 80}, {"time": 37199, "pitch": 56, "duration": 199, "velocity": 80}, {"time": 37199, "pitch": 62, "duration": 199, "velocity": 80}, {"time": 37199, "pitch": 67, "duration": 199, "velocity": 80}, {"time": 37677, "pitch": 52, "duration": 200, "velocity": 80}, {"time": 37677, "pitch": 56, "duration": 200, "velocity": 80}, {"time": 37677, "pitch": 62, "duration": 200, "velocity": 80}, {"time": 37677, "pitch": 67, "duration": 200, "velocity": 80}, {"time": 38881, "pitch": 57, "duration": 1923, "velocity": 80}, {"time": 38881, "pitch": 60, "duration": 1923, "velocity": 80}, {"time": 38881, "pitch": 64, "duration": 1923, "velocity": 80}, {"time": 40804, "pitch": 55, "duration": 1914, "velocity": 80}, {"time": 40804, "pitch": 59, "duration": 1914, "velocity": 80}, {"time": 40804, "pitch": 62, "duration": 1914, "velocity": 80}, {"time": 42718, "pitch": 52, "duration": 1923, "velocity": 80}, {"time": 42718, "pitch": 55, "duration": 1923, "velocity": 80}, {"time": 42718, "pitch": 59, "duration": 1923, "velocity": 80}, {"time": 42718, "pitch": 62, "duration": 1923, "velocity": 80}, {"time": 44641, "pitch": 57, "duration": 1922, "velocity": 80}, {"time": 44641, "pitch": 60, "duration": 1922, "velocity": 80}, {"time": 44641, "pitch": 64, "duration": 1922, "velocity": 80}, {"time": 46563, "pitch": 57, "duration": 1914, "velocity": 80}, {"time": 46563, "pitch": 60, "duration": 1914, "velocity": 80}, {"time": 46563, "pitch": 64, "duration": 1914, "velocity": 80}, {"time": 48477, "pitch": 55, "duration": 1923, "velocity": 80}, {"time": 48477, "pitch": 59, "duration": 1923, "velocity": 80}, {"time": 48477, "pitch": 62, "duration": 1923, "velocity": 80}, {"time": 50400, "pitch": 52, "duration": 1922, "velocity": 80}, {"time": 50400, "pitch": 55, "duration": 1922, "velocity": 80}, {"time": 50400, "pitch": 59, "duration": 1922, "velocity": 80}, {"time": 50400, "pitch": 62, "duration": 1922, "velocity": 80}, {"time": 52322, "pitch": 57, "duration": 1915, "velocity": 80}, {"time": 52322, "pitch": 60, "duration": 1915, "velocity": 80}, {"time": 52322, "pitch": 64, "duration": 1915, "velocity": 80}, {"time": 54237, "pitch": 53, "duration": 1922, "velocity": 80}, {"time": 54237, "pitch": 57, "duration": 1922, "velocity": 80}, {"time": 54237, "pitch": 60, "duration": 1922, "velocity": 80}, {"time": 54237, "pitch": 64, "duration": 1922, "velocity": 80}, {"time": 56159, "pitch": 52, "duration": 1922, "velocity": 80}, {"time": 56159, "pitch": 55, "duration": 1922, "velocity": 80}, {"time": 56159, "pitch": 59, "duration": 1922, "velocity": 80}, {"time": 56159, "pitch": 62, "duration": 1922, "velocity": 80}, {"time": 58081, "pitch": 57, "duration": 1922, "velocity": 80}, {"time": 58081, "pitch": 60, "duration": 1922, "velocity": 80}, {"time": 58081, "pitch": 64, "duration": 1922, "velocity": 80}, {"time": 60003, "pitch": 57, "duration": 1915, "velocity": 80}, {"time": 60003, "pitch": 60, "duration": 1915, "velocity": 80}, {"time": 60003, "pitch": 64, "duration": 1915, "velocity": 80}, {"time": 60003, "pitch": 67, "duration": 1915, "velocity": 80}, {"time": 61918, "pitch": 57, "duration": 1922, "velocity": 80}, {"time": 61918, "pitch": 60, "duration": 1922, "velocity": 80}, {"time": 61918, "pitch": 65, "duration": 1922, "velocity": 80}, {"time": 61918, "pitch": 69, "duration": 1922, "velocity": 80}, {"time": 63840, "pitch": 57, "duration": 1922, "velocity": 80}, {"time": 63840, "pitch": 60, "duration": 1922, "velocity": 80}, {"time": 63840, "pitch": 64, "duration": 1922, "velocity": 80}, {"time": 63840, "pitch": 67, "duration": 1922, "velocity": 80}, {"time": 65762, "pitch": 57, "duration": 1915, "velocity": 80}, {"time": 65762, "pitch": 60, "duration": 1915, "velocity": 80}, {"time": 65762, "pitch": 65, "duration": 1915, "velocity": 80}, {"time": 65762, "pitch": 69, "duration": 1915, "velocity": 80}, {"time": 67677, "pitch": 57, "duration": 1922, "velocity": 80}, {"time": 67677, "pitch": 60, "duration": 1922, "velocity": 80}, {"time": 67677, "pitch": 64, "duration": 1922, "velocity": 80}, {"time": 67677, "pitch": 67, "duration": 1922, "velocity": 80}, {"time": 69599, "pitch": 57, "duration": 210, "velocity": 80}, {"time": 69599, "pitch": 60, "duration": 210, "velocity": 80}, {"time": 69599, "pitch": 62, "duration": 210, "velocity": 80}, {"time": 69599, "pitch": 65, "duration": 210, "velocity": 80}, {"time": 69599, "pitch": 69, "duration": 210, "velocity": 80}, {"time": 69839, "pitch": 57, "duration": 239, "velocity": 80}, {"time": 69839, "pitch": 60, "duration": 239, "velocity": 80}, {"time": 69839, "pitch": 62, "duration": 239, "velocity": 80}, {"time": 69839, "pitch": 65, "duration": 239, "velocity": 80}, {"time": 69839, "pitch": 69, "duration": 239, "velocity": 80}, {"time": 70317, "pitch": 57, "duration": 240, "velocity": 80}, {"time": 70317, "pitch": 60, "duration": 240, "velocity": 80}, {"time": 70317, "pitch": 62, "duration": 240, "velocity": 80}, {"time": 70317, "pitch": 65, "duration": 240, "velocity": 80}, {"time": 70317, "pitch": 69, "duration": 240, "velocity": 80}, {"time": 70800, "pitch": 55, "duration": 712, "velocity": 80}, {"time": 70800, "pitch": 59, "duration": 712, "velocity": 80}, {"time": 70800, "pitch": 62, "duration": 712, "velocity": 80}, {"time": 70800, "pitch": 64, "duration": 712, "velocity": 80}, {"time": 70800, "pitch": 67, "duration": 712, "velocity": 80}, {"time": 71522, "pitch": 57, "duration": 1922, "velocity": 80}, {"time": 71522, "pitch": 60, "duration": 1922, "velocity": 80}, {"time": 71522, "pitch": 64, "duration": 1922, "velocity": 80}, {"time": 71522, "pitch": 67, "duration": 1922, "velocity": 80}, {"time": 73444, "pitch": 57, "duration": 209, "velocity": 80}, {"time": 73444, "pitch": 60, "duration": 209, "velocity": 80}, {"time": 73444, "pitch": 62, "duration": 209, "velocity": 80}, {"time": 73444, "pitch": 65, "duration": 209, "velocity": 80}, {"time": 73444, "pitch": 69, "duration": 209, "velocity": 80}, {"time": 73683, "pitch": 57, "duration": 239, "velocity": 80}, {"time": 73683, "pitch": 60, "duration": 239, "velocity": 80}, {"time": 73683, "pitch": 62, "duration": 239, "velocity": 80}, {"time": 73683, "pitch": 65, "duration": 239, "velocity": 80}, {"time": 73683, "pitch": 69, "duration": 239, "velocity": 80}, {"time": 74162, "pitch": 57, "duration": 239, "velocity": 80}, {"time": 74162, "pitch": 60, "duration": 239, "velocity": 80}, {"time": 74162, "pitch": 62, "duration": 239, "velocity": 80}, {"time": 74162, "pitch": 65, "duration": 239, "velocity": 80}, {"time": 74162, "pitch": 69, "duration": 239, "velocity": 80}, {"time": 74640, "pitch": 55, "duration": 708, "velocity": 80}, {"time": 74640, "pitch": 59, "duration": 708, "velocity": 80}, {"time": 74640, "pitch": 62, "duration": 708, "velocity": 80}, {"time": 74640, "pitch": 64, "duration": 708, "velocity": 80}, {"time": 74640, "pitch": 67, "duration": 708, "velocity": 80}, {"time": 75358, "pitch": 53, "duration": 965, "velocity": 80}, {"time": 75358, "pitch": 60, "duration": 965, "velocity": 80}, {"time": 75358, "pitch": 65, "duration": 965, "velocity": 80}, {"time": 75358, "pitch": 69, "duration": 965, "velocity": 80}, {"time": 76323, "pitch": 52, "duration": 958, "velocity": 80}, {"time": 76323, "pitch": 59, "duration": 958, "velocity": 80}, {"time": 76323, "pitch": 62, "duration": 958, "velocity": 80}, {"time": 76323, "pitch": 65, "duration": 958, "velocity": 80}, {"time": 76323, "pitch": 68, "duration": 958, "velocity": 80}, {"time": 77281, "pitch": 57, "duration": 229, "velocity": 80}, {"time": 77281, "pitch": 60, "duration": 229, "velocity": 80}, {"time": 77281, "pitch": 64, "duration": 229, "velocity": 80}, {"time": 77281, "pitch": 69, "duration": 229, "velocity": 80}, {"time": 77520, "pitch": 56, "duration": 229, "velocity": 80}, {"time": 77520, "pitch": 59, "duration": 229, "velocity": 80}, {"time": 77520, "pitch": 62, "duration": 229, "velocity": 80}, {"time": 77520, "pitch": 68, "duration": 229, "velocity": 80}, {"time": 77759, "pitch": 55, "duration": 230, "velocity": 80}, {"time": 77759, "pitch": 60, "duration": 230, "velocity": 80}, {"time": 77759, "pitch": 64, "duration": 230, "velocity": 80}, {"time": 77759, "pitch": 67, "duration": 230, "velocity": 80}, {"time": 77999, "pitch": 54, "duration": 1194, "velocity": 80}, {"time": 77999, "pitch": 60, "duration": 1194, "velocity": 80}, {"time": 77999, "pitch": 64, "duration": 1194, "velocity": 80}, {"time": 77999, "pitch": 66, "duration": 1194, "velocity": 80}, {"time": 77999, "pitch": 69, "duration": 1194, "velocity": 80}, {"time": 79203, "pitch": 50, "duration": 957, "velocity": 80}, {"time": 79203, "pitch": 60, "duration": 957, "velocity": 80}, {"time": 79203, "pitch": 62, "duration": 957, "velocity": 80}, {"time": 79203, "pitch": 65, "duration": 957, "velocity": 80}, {"time": 79203, "pitch": 69, "duration": 957, "velocity": 80}, {"time": 80160, "pitch": 52, "duration": 958, "velocity": 80}, {"time": 80160, "pitch": 62, "duration": 958, "velocity": 80}, {"time": 80160, "pitch": 64, "duration": 958, "velocity": 80}, {"time": 80160, "pitch": 67, "duration": 958, "velocity": 80}, {"time": 80160, "pitch": 71, "duration": 958, "velocity": 80}, {"time": 81118, "pitch": 45, "duration": 711, "velocity": 64}, {"time": 81118, "pitch": 57, "duration": 711, "velocity": 80}, {"time": 81118, "pitch": 62, "duration": 711, "velocity": 80}, {"time": 81118, "pitch": 64, "duration": 711, "velocity": 80}, {"time": 81118, "pitch": 69, "duration": 711, "velocity": 80}, {"time": 81839, "pitch": 45, "duration": 1191, "velocity": 64}, {"time": 81839, "pitch": 57, "duration": 1191, "velocity": 80}, {"time": 81839, "pitch": 61, "duration": 1191, "velocity": 80}, {"time": 81839, "pitch": 64, "duration": 1191, "velocity": 80}, {"time": 81839, "pitch": 69, "duration": 1191, "velocity": 80}, {"time": 83040, "pitch": 53, "duration": 957, "velocity": 80}, {"time": 83040, "pitch": 57, "duration": 957, "velocity": 80}, {"time": 83040, "pitch": 60, "duration": 957, "velocity": 80}, {"time": 83040, "pitch": 64, "duration": 957, "velocity": 80}, {"time": 83040, "pitch": 67, "duration": 957, "velocity": 80}, {"time": 83997, "pitch": 55, "duration": 965, "velocity": 80}, {"time": 83997, "pitch": 59, "duration": 965, "velocity": 80}, {"time": 83997, "pitch": 62, "duration": 965, "velocity": 80}, {"time": 83997, "pitch": 67, "duration": 965, "velocity": 80}, {"time": 84962, "pitch": 57, "duration": 1915, "velocity": 80}, {"time": 84962, "pitch": 60, "duration": 1915, "velocity": 80}, {"time": 84962, "pitch": 64, "duration": 1915, "velocity": 80}, {"time": 84962, "pitch": 69, "duration": 1915, "velocity": 80}, {"time": 86877, "pitch": 53, "duration": 965, "velocity": 80}, {"time": 86877, "pitch": 57, "duration": 965, "velocity": 80}, {"time": 86877, "pitch": 60, "duration": 965, "velocity": 80}, {"time": 86877, "pitch": 64, "duration": 965, "velocity": 80}, {"time": 86877, "pitch": 67, "duration": 965, "velocity": 80}, {"time": 87842, "pitch": 55, "duration": 708, "velocity": 80}, {"time": 87842, "pitch": 59, "duration": 708, "velocity": 80}, {"time": 87842, "pitch": 62, "duration": 708, "velocity": 80}, {"time": 87842, "pitch": 67, "duration": 708, "velocity": 80}, {"time": 88560, "pitch": 57, "duration": 159, "velocity": 80}, {"time": 88560, "pitch": 64, "duration": 159, "velocity": 80}, {"time": 88560, "pitch": 69, "duration": 159, "velocity": 80}, {"time": 88560, "pitch": 72, "duration": 159, "velocity": 80}, {"time": 89038, "pitch": 55, "duration": 160, "velocity": 80}, {"time": 89038, "pitch": 62, "duration": 160, "velocity": 80}, {"time": 89038, "pitch": 67, "duration": 160, "velocity": 80}, {"time": 89038, "pitch": 71, "duration": 160, "velocity": 80}, {"time": 89517, "pitch": 53, "duration": 159, "velocity": 80}, {"time": 89517, "pitch": 60, "duration": 159, "velocity": 80}, {"time": 89517, "pitch": 65, "duration": 159, "velocity": 80}, {"time": 89517, "pitch": 69, "duration": 159, "velocity": 80}, {"time": 89999, "pitch": 55, "duration": 712, "velocity": 80}, {"time": 89999, "pitch": 59, "duration": 712, "velocity": 80}, {"time": 89999, "pitch": 62, "duration": 712, "velocity": 80}, {"time": 89999, "pitch": 67, "duration": 712, "velocity": 80}, {"time": 90721, "pitch": 53, "duration": 957, "velocity": 80}, {"time": 90721, "pitch": 60, "duration": 957, "velocity": 80}, {"time": 90721, "pitch": 64, "duration": 957, "velocity": 80}, {"time": 90721, "pitch": 69, "duration": 957, "velocity": 80}, {"time": 91678, "pitch": 43, "duration": 965, "velocity": 80}, {"time": 91678, "pitch": 59, "duration": 965, "velocity": 80}, {"time": 91678, "pitch": 62, "duration": 965, "velocity": 80}, {"time": 91678, "pitch": 67, "duration": 965, "velocity": 80}, {"time": 92643, "pitch": 57, "duration": 1915, "velocity": 80}, {"time": 92643, "pitch": 60, "duration": 1915, "velocity": 80}, {"time": 92643, "pitch": 64, "duration": 1915, "velocity": 80}, {"time": 94558, "pitch": 50, "duration": 965, "velocity": 80}, {"time": 94558, "pitch": 54, "duration": 965, "velocity": 80}, {"time": 94558, "pitch": 57, "duration": 965, "velocity": 80}, {"time": 94558, "pitch": 62, "duration": 965, "velocity": 80}, {"time": 95523, "pitch": 50, "duration": 718, "velocity": 80}, {"time": 95523, "pitch": 53, "duration": 718, "velocity": 80}, {"time": 95523, "pitch": 57, "duration": 718, "velocity": 80}, {"time": 95523, "pitch": 62, "duration": 718, "velocity": 80}, {"time": 96241, "pitch": 52, "duration": 229, "velocity": 80}, {"time": 96241, "pitch": 56, "duration": 229, "velocity": 80}, {"time": 96241, "pitch": 59, "duration": 229, "velocity": 80}, {"time": 96241, "pitch": 64, "duration": 229, "velocity": 80}, {"time": 96720, "pitch": 52, "duration": 199, "velocity": 80}, {"time": 96720, "pitch": 56, "duration": 199, "velocity": 80}, {"time": 96720, "pitch": 62, "duration": 199, "velocity": 80}, {"time": 96720, "pitch": 67, "duration": 199, "velocity": 80}, {"time": 97198, "pitch": 52, "duration": 200, "velocity": 80}, {"time": 97198, "pitch": 56, "duration": 200, "velocity": 80}, {"time": 97198, "pitch": 62, "duration": 200, "velocity": 80}, {"time": 97198, "pitch": 67, "duration": 200, "velocity": 80}, {"time": 98402, "pitch": 57, "duration": 1915, "velocity": 80}, {"time": 98402, "pitch": 60, "duration": 1915, "velocity": 80}, {"time": 98402, "pitch": 64, "duration": 1915, "velocity": 80}, {"time": 100317, "pitch": 55, "duration": 1922, "velocity": 80}, {"time": 100317, "pitch": 59, "duration": 1922, "velocity": 80}, {"time": 100317, "pitch": 62, "duration": 1922, "velocity": 80}, {"time": 102239, "pitch": 52, "duration": 1923, "velocity": 80}, {"time": 102239, "pitch": 55, "duration": 1923, "velocity": 80}, {"time": 102239, "pitch": 59, "duration": 1923, "velocity": 80}, {"time": 102239, "pitch": 62, "duration": 1923, "velocity": 80}, {"time": 104162, "pitch": 57, "duration": 1914, "velocity": 80}, {"time": 104162, "pitch": 60, "duration": 1914, "velocity": 80}, {"time": 104162, "pitch": 64, "duration": 1914, "velocity": 80}, {"time": 106076, "pitch": 57, "duration": 1923, "velocity": 80}, {"time": 106076, "pitch": 60, "duration": 1923, "velocity": 80}, {"time": 106076, "pitch": 64, "duration": 1923, "velocity": 80}, {"time": 107999, "pitch": 55, "duration": 1922, "velocity": 80}, {"time": 107999, "pitch": 59, "duration": 1922, "velocity": 80}, {"time": 107999, "pitch": 62, "duration": 1922, "velocity": 80}, {"time": 109921, "pitch": 52, "duration": 1922, "velocity": 80}, {"time": 109921, "pitch": 55, "duration": 1922, "velocity": 80}, {"time": 109921, "pitch": 59, "duration": 1922, "velocity": 80}, {"time": 109921, "pitch": 62, "duration": 1922, "velocity": 80}, {"time": 111843, "pitch": 57, "duration": 1915, "velocity": 80}, {"time": 111843, "pitch": 60, "duration": 1915, "velocity": 80}, {"time": 111843, "pitch": 64, "duration": 1915, "velocity": 80}, {"time": 113758, "pitch": 53, "duration": 1922, "velocity": 80}, {"time": 113758, "pitch": 57, "duration": 1922, "velocity": 80}, {"time": 113758, "pitch": 60, "duration": 1922, "velocity": 80}, {"time": 113758, "pitch": 64, "duration": 1922, "velocity": 80}, {"time": 115680, "pitch": 52, "duration": 1922, "velocity": 80}, {"time": 115680, "pitch": 55, "duration": 1922, "velocity": 80}, {"time": 115680, "pitch": 59, "duration": 1922, "velocity": 80}, {"time": 115680, "pitch": 62, "duration": 1922, "velocity": 80}, {"time": 117602, "pitch": 57, "duration": 1915, "velocity": 80}, {"time": 117602, "pitch": 60, "duration": 1915, "velocity": 80}, {"time": 117602, "pitch": 64, "duration": 1915, "velocity": 80}, {"time": 121439, "pitch": 60, "duration": 1922, "velocity": 90}, {"time": 121439, "pitch": 64, "duration": 1922, "velocity": 90}, {"time": 121439, "pitch": 69, "duration": 1922, "velocity": 90}, {"time": 123361, "pitch": 60, "duration": 1922, "velocity": 90}, {"time": 123361, "pitch": 64, "duration": 1922, "velocity": 90}, {"time": 123361, "pitch": 67, "duration": 1922, "velocity": 90}, {"time": 125283, "pitch": 60, "duration": 1915, "velocity": 90}, {"time": 125283, "pitch": 65, "duration": 1915, "velocity": 90}, {"time": 125283, "pitch": 69, "duration": 1915, "velocity": 90}, {"time": 127198, "pitch": 56, "duration": 1922, "velocity": 90}, {"time": 127198, "pitch": 62, "duration": 1922, "velocity": 90}, {"time": 127198, "pitch": 67, "duration": 1922, "velocity": 90}, {"time": 129120, "pitch": 60, "duration": 1923, "velocity": 90}, {"time": 129120, "pitch": 64, "duration": 1923, "velocity": 90}, {"time": 129120, "pitch": 69, "duration": 1923, "velocity": 90}, {"time": 131043, "pitch": 60, "duration": 1914, "velocity": 90}, {"time": 131043, "pitch": 64, "duration": 1914, "velocity": 90}, {"time": 131043, "pitch": 67, "duration": 1914, "velocity": 90}, {"time": 132957, "pitch": 60, "duration": 1922, "velocity": 90}, {"time": 132957, "pitch": 65, "duration": 1922, "velocity": 90}, {"time": 132957, "pitch": 69, "duration": 1922, "velocity": 90}, {"time": 134879, "pitch": 56, "duration": 1923, "velocity": 90}, {"time": 134879, "pitch": 62, "duration": 1923, "velocity": 90}, {"time": 134879, "pitch": 67, "duration": 1923, "velocity": 90}, {"time": 136802, "pitch": 57, "duration": 1914, "velocity": 80}, {"time": 136802, "pitch": 60, "duration": 1914, "velocity": 80}, {"time": 136802, "pitch": 64, "duration": 1914, "velocity": 80}, {"time": 138716, "pitch": 55, "duration": 1923, "velocity": 80}, {"time": 138716, "pitch": 59, "duration": 1923, "velocity": 80}, {"time": 138716, "pitch": 62, "duration": 1923, "velocity": 80}, {"time": 140639, "pitch": 52, "duration": 1922, "velocity": 80}, {"time": 140639, "pitch": 55, "duration": 1922, "velocity": 80}, {"time": 140639, "pitch": 59, "duration": 1922, "velocity": 80}, {"time": 140639, "pitch": 62, "duration": 1922, "velocity": 80}, {"time": 142561, "pitch": 57, "duration": 1922, "velocity": 80}, {"time": 142561, "pitch": 60, "duration": 1922, "velocity": 80}, {"time": 142561, "pitch": 64, "duration": 1922, "velocity": 80}, {"time": 144483, "pitch": 57, "duration": 1915, "velocity": 80}, {"time": 144483, "pitch": 60, "duration": 1915, "velocity": 80}, {"time": 144483, "pitch": 64, "duration": 1915, "velocity": 80}, {"time": 146398, "pitch": 55, "duration": 1922, "velocity": 80}, {"time": 146398, "pitch": 59, "duration": 1922, "velocity": 80}, {"time": 146398, "pitch": 62, "duration": 1922, "velocity": 80}, {"time": 148320, "pitch": 52, "duration": 1922, "velocity": 80}, {"time": 148320, "pitch": 55, "duration": 1922, "velocity": 80}, {"time": 148320, "pitch": 59, "duration": 1922, "velocity": 80}, {"time": 148320, "pitch": 62, "duration": 1922, "velocity": 80}, {"time": 150242, "pitch": 57, "duration": 1915, "velocity": 80}, {"time": 150242, "pitch": 60, "duration": 1915, "velocity": 80}, {"time": 150242, "pitch": 64, "duration": 1915, "velocity": 80}, {"time": 152157, "pitch": 53, "duration": 1922, "velocity": 80}, {"time": 152157, "pitch": 57, "duration": 1922, "velocity": 80}, {"time": 152157, "pitch": 60, "duration": 1922, "velocity": 80}, {"time": 152157, "pitch": 64, "duration": 1922, "velocity": 80}, {"time": 154079, "pitch": 52, "duration": 1922, "velocity": 80}, {"time": 154079, "pitch": 55, "duration": 1922, "velocity": 80}, {"time": 154079, "pitch": 59, "duration": 1922, "velocity": 80}, {"time": 154079, "pitch": 62, "duration": 1922, "velocity": 80}, {"time": 156001, "pitch": 57, "duration": 1923, "velocity": 80}, {"time": 156001, "pitch": 60, "duration": 1923, "velocity": 80}, {"time": 156001, "pitch": 64, "duration": 1923, "velocity": 80}, {"time": 157924, "pitch": 57, "duration": 1914, "velocity": 80}, {"time": 157924, "pitch": 60, "duration": 1914, "velocity": 80}, {"time": 157924, "pitch": 64, "duration": 1914, "velocity": 80}, {"time": 157924, "pitch": 67, "duration": 1914, "velocity": 80}, {"time": 159838, "pitch": 57, "duration": 1922, "velocity": 80}, {"time": 159838, "pitch": 60, "duration": 1922, "velocity": 80}, {"time": 159838, "pitch": 65, "duration": 1922, "velocity": 80}, {"time": 159838, "pitch": 69, "duration": 1922, "velocity": 80}, {"time": 161760, "pitch": 57, "duration": 1923, "velocity": 80}, {"time": 161760, "pitch": 60, "duration": 1923, "velocity": 80}, {"time": 161760, "pitch": 64, "duration": 1923, "velocity": 80}, {"time": 161760, "pitch": 67, "duration": 1923, "velocity": 80}, {"time": 163683, "pitch": 57, "duration": 1914, "velocity": 80}, {"time": 163683, "pitch": 60, "duration": 1914, "velocity": 80}, {"time": 163683, "pitch": 65, "duration": 1914, "velocity": 80}, {"time": 163683, "pitch": 69, "duration": 1914, "velocity": 80}, {"time": 165597, "pitch": 57, "duration": 1923, "velocity": 80}, {"time": 165597, "pitch": 60, "duration": 1923, "velocity": 80}, {"time": 165597, "pitch": 64, "duration": 1923, "velocity": 80}, {"time": 165597, "pitch": 67, "duration": 1923, "velocity": 80}, {"time": 167520, "pitch": 57, "duration": 1922, "velocity": 80}, {"time": 167520, "pitch": 60, "duration": 1922, "velocity": 80}, {"time": 167520, "pitch": 65, "duration": 1922, "velocity": 80}, {"time": 167520, "pitch": 69, "duration": 1922, "velocity": 80}, {"time": 169442, "pitch": 57, "duration": 1914, "velocity": 80}, {"time": 169442, "pitch": 60, "duration": 1914, "velocity": 80}, {"time": 169442, "pitch": 64, "duration": 1914, "velocity": 80}, {"time": 169442, "pitch": 67, "duration": 1914, "velocity": 80}, {"time": 171356, "pitch": 57, "duration": 1923, "velocity": 80}, {"time": 171356, "pitch": 60, "duration": 1923, "velocity": 80}, {"time": 171356, "pitch": 65, "duration": 1923, "velocity": 80}, {"time": 171356, "pitch": 69, "duration": 1923, "velocity": 80}, {"time": 173279, "pitch": 57, "duration": 1922, "velocity": 80}, {"time": 173279, "pitch": 60, "duration": 1922, "velocity": 80}, {"time": 173279, "pitch": 64, "duration": 1922, "velocity": 80}, {"time": 173279, "pitch": 67, "duration": 1922, "velocity": 80}, {"time": 175201, "pitch": 57, "duration": 1922, "velocity": 80}, {"time": 175201, "pitch": 60, "duration": 1922, "velocity": 80}, {"time": 175201, "pitch": 65, "duration": 1922, "velocity": 80}, {"time": 175201, "pitch": 69, "duration": 1922, "velocity": 80}, {"time": 177123, "pitch": 57, "duration": 1915, "velocity": 80}, {"time": 177123, "pitch": 60, "duration": 1915, "velocity": 80}, {"time": 177123, "pitch": 64, "duration": 1915, "velocity": 80}, {"time": 177123, "pitch": 67, "duration": 1915, "velocity": 80}, {"time": 179038, "pitch": 57, "duration": 1915, "velocity": 80}, {"time": 179038, "pitch": 60, "duration": 1915, "velocity": 80}, {"time": 179038, "pitch": 65, "duration": 1915, "velocity": 80}, {"time": 179038, "pitch": 69, "duration": 1915, "velocity": 80}, {"time": 23519, "pitch": 53, "duration": 965, "velocity": 80}, {"time": 23519, "pitch": 57, "duration": 965, "velocity": 80}, {"time": 23519, "pitch": 60, "duration": 965, "velocity": 80}, {"time": 23519, "pitch": 64, "duration": 965, "velocity": 80}, {"time": 23519, "pitch": 67, "duration": 965, "velocity": 80}, {"time": 24484, "pitch": 55, "duration": 957, "velocity": 80}, {"time": 24484, "pitch": 59, "duration": 957, "velocity": 80}, {"time": 24484, "pitch": 62, "duration": 957, "velocity": 80}, {"time": 24484, "pitch": 67, "duration": 957, "velocity": 80}, {"time": 25441, "pitch": 57, "duration": 1922, "velocity": 80}, {"time": 25441, "pitch": 60, "duration": 1922, "velocity": 80}, {"time": 25441, "pitch": 64, "duration": 1922, "velocity": 80}, {"time": 27363, "pitch": 53, "duration": 958, "velocity": 80}, {"time": 27363, "pitch": 57, "duration": 958, "velocity": 80}, {"time": 27363, "pitch": 60, "duration": 958, "velocity": 80}, {"time": 27363, "pitch": 64, "duration": 958, "velocity": 80}, {"time": 27363, "pitch": 67, "duration": 958, "velocity": 80}, {"time": 28321, "pitch": 55, "duration": 708, "velocity": 80}, {"time": 28321, "pitch": 59, "duration": 708, "velocity": 80}, {"time": 28321, "pitch": 62, "duration": 708, "velocity": 80}, {"time": 28321, "pitch": 67, "duration": 708, "velocity": 80}, {"time": 29039, "pitch": 57, "duration": 159, "velocity": 80}, {"time": 29039, "pitch": 64, "duration": 159, "velocity": 80}, {"time": 29039, "pitch": 69, "duration": 159, "velocity": 80}, {"time": 29039, "pitch": 72, "duration": 159, "velocity": 80}, {"time": 29517, "pitch": 55, "duration": 160, "velocity": 80}, {"time": 29517, "pitch": 62, "duration": 160, "velocity": 80}, {"time": 29517, "pitch": 67, "duration": 160, "velocity": 80}, {"time": 29517, "pitch": 71, "duration": 160, "velocity": 80}, {"time": 30000, "pitch": 53, "duration": 162, "velocity": 80}, {"time": 30000, "pitch": 60, "duration": 162, "velocity": 80}, {"time": 30000, "pitch": 65, "duration": 162, "velocity": 80}, {"time": 30000, "pitch": 69, "duration": 162, "velocity": 80}, {"time": 30482, "pitch": 55, "duration": 708, "velocity": 80}, {"time": 30482, "pitch": 59, "duration": 708, "velocity": 80}, {"time": 30482, "pitch": 62, "duration": 708, "velocity": 80}, {"time": 30482, "pitch": 67, "duration": 708, "velocity": 80}, {"time": 31200, "pitch": 53, "duration": 957, "velocity": 80}, {"time": 31200, "pitch": 60, "duration": 957, "velocity": 80}, {"time": 31200, "pitch": 64, "duration": 957, "velocity": 80}, {"time": 31200, "pitch": 69, "duration": 957, "velocity": 80}, {"time": 32157, "pitch": 43, "duration": 965, "velocity": 80}, {"time": 32157, "pitch": 59, "duration": 965, "velocity": 80}, {"time": 32157, "pitch": 62, "duration": 965, "velocity": 80}, {"time": 32157, "pitch": 67, "duration": 965, "velocity": 80}, {"time": 33122, "pitch": 57, "duration": 1915, "velocity": 80}, {"time": 33122, "pitch": 60, "duration": 1915, "velocity": 80}, {"time": 33122, "pitch": 64, "duration": 1915, "velocity": 80}, {"time": 35037, "pitch": 50, "duration": 965, "velocity": 80}, {"time": 35037, "pitch": 54, "duration": 965, "velocity": 80}, {"time": 35037, "pitch": 57, "duration": 965, "velocity": 80}, {"time": 35037, "pitch": 62, "duration": 965, "velocity": 80}, {"time": 36002, "pitch": 50, "duration": 718, "velocity": 80}, {"time": 36002, "pitch": 53, "duration": 718, "velocity": 80}, {"time": 36002, "pitch": 57, "duration": 718, "velocity": 80}, {"time": 36002, "pitch": 62, "duration": 718, "velocity": 80}, {"time": 36720, "pitch": 52, "duration": 229, "velocity": 80}, {"time": 36720, "pitch": 56, "duration": 229, "velocity": 80}, {"time": 36720, "pitch": 59, "duration": 229, "velocity": 80}, {"time": 36720, "pitch": 64, "duration": 229, "velocity": 80}, {"time": 37199, "pitch": 52, "duration": 199, "velocity": 80}, {"time": 37199, "pitch": 56, "duration": 199, "velocity": 80}, {"time": 37199, "pitch": 62, "duration": 199, "velocity": 80}, {"time": 37199, "pitch": 67, "duration": 199, "velocity": 80}, {"time": 37677, "pitch": 52, "duration": 200, "velocity": 80}, {"time": 37677, "pitch": 56, "duration": 200, "velocity": 80}, {"time": 37677, "pitch": 62, "duration": 200, "velocity": 80}, {"time": 37677, "pitch": 67, "duration": 200, "velocity": 80}, {"time": 38881, "pitch": 57, "duration": 1923, "velocity": 80}, {"time": 38881, "pitch": 60, "duration": 1923, "velocity": 80}, {"time": 38881, "pitch": 64, "duration": 958, "velocity": 80}, {"time": 39839, "pitch": 69, "duration": 965, "velocity": 80}, {"time": 40804, "pitch": 59, "duration": 1914, "velocity": 80}, {"time": 40804, "pitch": 62, "duration": 1914, "velocity": 80}, {"time": 40804, "pitch": 67, "duration": 1914, "velocity": 80}, {"time": 42718, "pitch": 52, "duration": 1923, "velocity": 80}, {"time": 42718, "pitch": 59, "duration": 1923, "velocity": 80}, {"time": 42718, "pitch": 62, "duration": 1923, "velocity": 80}, {"time": 42718, "pitch": 67, "duration": 1923, "velocity": 80}, {"time": 44641, "pitch": 60, "duration": 1922, "velocity": 80}, {"time": 44641, "pitch": 64, "duration": 1922, "velocity": 80}, {"time": 44641, "pitch": 69, "duration": 1922, "velocity": 80}, {"time": 46563, "pitch": 57, "duration": 1914, "velocity": 80}, {"time": 46563, "pitch": 60, "duration": 1914, "velocity": 80}, {"time": 46563, "pitch": 64, "duration": 957, "velocity": 80}, {"time": 47520, "pitch": 69, "duration": 957, "velocity": 80}, {"time": 48477, "pitch": 62, "duration": 1923, "velocity": 80}, {"time": 48477, "pitch": 67, "duration": 1923, "velocity": 80}, {"time": 48477, "pitch": 71, "duration": 1923, "velocity": 80}, {"time": 50400, "pitch": 55, "duration": 1922, "velocity": 80}, {"time": 50400, "pitch": 59, "duration": 1922, "velocity": 80}, {"time": 50400, "pitch": 62, "duration": 1922, "velocity": 80}, {"time": 50400, "pitch": 67, "duration": 1922, "velocity": 80}, {"time": 52322, "pitch": 60, "duration": 1915, "velocity": 80}, {"time": 52322, "pitch": 64, "duration": 1915, "velocity": 80}, {"time": 52322, "pitch": 69, "duration": 1915, "velocity": 80}, {"time": 54237, "pitch": 53, "duration": 1922, "velocity": 80}, {"time": 54237, "pitch": 60, "duration": 1922, "velocity": 80}, {"time": 54237, "pitch": 64, "duration": 1922, "velocity": 80}, {"time": 54237, "pitch": 69, "duration": 1922, "velocity": 80}, {"time": 56159, "pitch": 52, "duration": 1922, "velocity": 80}, {"time": 56159, "pitch": 59, "duration": 1922, "velocity": 80}, {"time": 56159, "pitch": 62, "duration": 1922, "velocity": 80}, {"time": 56159, "pitch": 67, "duration": 1922, "velocity": 80}, {"time": 58081, "pitch": 60, "duration": 1922, "velocity": 80}, {"time": 58081, "pitch": 64, "duration": 1922, "velocity": 80}, {"time": 58081, "pitch": 69, "duration": 1922, "velocity": 80}, {"time": 83040, "pitch": 53, "duration": 957, "velocity": 80}, {"time": 83040, "pitch": 57, "duration": 957, "velocity": 80}, {"time": 83040, "pitch": 60, "duration": 957, "velocity": 80}, {"time": 83040, "pitch": 64, "duration": 957, "velocity": 80}, {"time": 83040, "pitch": 67, "duration": 957, "velocity": 80}, {"time": 83997, "pitch": 55, "duration": 965, "velocity": 80}, {"time": 83997, "pitch": 59, "duration": 965, "velocity": 80}, {"time": 83997, "pitch": 62, "duration": 965, "velocity": 80}, {"time": 83997, "pitch": 67, "duration": 965, "velocity": 80}, {"time": 84962, "pitch": 57, "duration": 1915, "velocity": 80}, {"time": 84962, "pitch": 60, "duration": 1915, "velocity": 80}, {"time": 84962, "pitch": 64, "duration": 1915, "velocity": 80}, {"time": 86877, "pitch": 53, "duration": 965, "velocity": 80}, {"time": 86877, "pitch": 57, "duration": 965, "velocity": 80}, {"time": 86877, "pitch": 60, "duration": 965, "velocity": 80}, {"time": 86877, "pitch": 64, "duration": 965, "velocity": 80}, {"time": 86877, "pitch": 67, "duration": 965, "velocity": 80}, {"time": 87842, "pitch": 55, "duration": 708, "velocity": 80}, {"time": 87842, "pitch": 59, "duration": 708, "velocity": 80}, {"time": 87842, "pitch": 62, "duration": 708, "velocity": 80}, {"time": 87842, "pitch": 67, "duration": 708, "velocity": 80}, {"time": 88560, "pitch": 57, "duration": 159, "velocity": 80}, {"time": 88560, "pitch": 64, "duration": 159, "velocity": 80}, {"time": 88560, "pitch": 69, "duration": 159, "velocity": 80}, {"time": 88560, "pitch": 72, "duration": 159, "velocity": 80}, {"time": 89038, "pitch": 55, "duration": 160, "velocity": 80}, {"time": 89038, "pitch": 62, "duration": 160, "velocity": 80}, {"time": 89038, "pitch": 67, "duration": 160, "velocity": 80}, {"time": 89038, "pitch": 71, "duration": 160, "velocity": 80}, {"time": 89517, "pitch": 53, "duration": 159, "velocity": 80}, {"time": 89517, "pitch": 60, "duration": 159, "velocity": 80}, {"time": 89517, "pitch": 65, "duration": 159, "velocity": 80}, {"time": 89517, "pitch": 69, "duration": 159, "velocity": 80}, {"time": 89999, "pitch": 55, "duration": 712, "velocity": 80}, {"time": 89999, "pitch": 59, "duration": 712, "velocity": 80}, {"time": 89999, "pitch": 62, "duration": 712, "velocity": 80}, {"time": 89999, "pitch": 67, "duration": 712, "velocity": 80}, {"time": 90721, "pitch": 53, "duration": 957, "velocity": 80}, {"time": 90721, "pitch": 60, "duration": 957, "velocity": 80}, {"time": 90721, "pitch": 64, "duration": 957, "velocity": 80}, {"time": 90721, "pitch": 69, "duration": 957, "velocity": 80}, {"time": 91678, "pitch": 43, "duration": 965, "velocity": 80}, {"time": 91678, "pitch": 59, "duration": 965, "velocity": 80}, {"time": 91678, "pitch": 62, "duration": 965, "velocity": 80}, {"time": 91678, "pitch": 67, "duration": 965, "velocity": 80}, {"time": 92643, "pitch": 57, "duration": 1915, "velocity": 80}, {"time": 92643, "pitch": 60, "duration": 1915, "velocity": 80}, {"time": 92643, "pitch": 64, "duration": 1915, "velocity": 80}, {"time": 94558, "pitch": 50, "duration": 965, "velocity": 80}, {"time": 94558, "pitch": 54, "duration": 965, "velocity": 80}, {"time": 94558, "pitch": 57, "duration": 965, "velocity": 80}, {"time": 94558, "pitch": 62, "duration": 965, "velocity": 80}, {"time": 95523, "pitch": 50, "duration": 718, "velocity": 80}, {"time": 95523, "pitch": 53, "duration": 718, "velocity": 80}, {"time": 95523, "pitch": 57, "duration": 718, "velocity": 80}, {"time": 95523, "pitch": 62, "duration": 718, "velocity": 80}, {"time": 96241, "pitch": 52, "duration": 229, "velocity": 80}, {"time": 96241, "pitch": 56, "duration": 229, "velocity": 80}, {"time": 96241, "pitch": 59, "duration": 229, "velocity": 80}, {"time": 96241, "pitch": 64, "duration": 229, "velocity": 80}, {"time": 96720, "pitch": 52, "duration": 199, "velocity": 80}, {"time": 96720, "pitch": 56, "duration": 199, "velocity": 80}, {"time": 96720, "pitch": 62, "duration": 199, "velocity": 80}, {"time": 96720, "pitch": 67, "duration": 199, "velocity": 80}, {"time": 97198, "pitch": 52, "duration": 200, "velocity": 80}, {"time": 97198, "pitch": 56, "duration": 200, "velocity": 80}, {"time": 97198, "pitch": 62, "duration": 200, "velocity": 80}, {"time": 97198, "pitch": 67, "duration": 200, "velocity": 80}, {"time": 98402, "pitch": 57, "duration": 1915, "velocity": 80}, {"time": 98402, "pitch": 60, "duration": 1915, "velocity": 80}, {"time": 98402, "pitch": 64, "duration": 958, "velocity": 80}, {"time": 99360, "pitch": 69, "duration": 957, "velocity": 80}, {"time": 100317, "pitch": 59, "duration": 1922, "velocity": 80}, {"time": 100317, "pitch": 62, "duration": 1922, "velocity": 80}, {"time": 100317, "pitch": 67, "duration": 1922, "velocity": 80}, {"time": 102239, "pitch": 52, "duration": 1923, "velocity": 80}, {"time": 102239, "pitch": 59, "duration": 1923, "velocity": 80}, {"time": 102239, "pitch": 62, "duration": 1923, "velocity": 80}, {"time": 102239, "pitch": 67, "duration": 1923, "velocity": 80}, {"time": 104162, "pitch": 60, "duration": 1914, "velocity": 80}, {"time": 104162, "pitch": 64, "duration": 1914, "velocity": 80}, {"time": 104162, "pitch": 69, "duration": 1914, "velocity": 80}, {"time": 106076, "pitch": 57, "duration": 1923, "velocity": 80}, {"time": 106076, "pitch": 60, "duration": 1923, "velocity": 80}, {"time": 106076, "pitch": 64, "duration": 965, "velocity": 80}, {"time": 107041, "pitch": 69, "duration": 958, "velocity": 80}, {"time": 107999, "pitch": 62, "duration": 1922, "velocity": 80}, {"time": 107999, "pitch": 67, "duration": 1922, "velocity": 80}, {"time": 107999, "pitch": 71, "duration": 1922, "velocity": 80}, {"time": 109921, "pitch": 55, "duration": 1922, "velocity": 80}, {"time": 109921, "pitch": 59, "duration": 1922, "velocity": 80}, {"time": 109921, "pitch": 62, "duration": 1922, "velocity": 80}, {"time": 109921, "pitch": 67, "duration": 1922, "velocity": 80}, {"time": 111843, "pitch": 60, "duration": 1915, "velocity": 80}, {"time": 111843, "pitch": 64, "duration": 1915, "velocity": 80}, {"time": 111843, "pitch": 69, "duration": 1915, "velocity": 80}, {"time": 113758, "pitch": 53, "duration": 1922, "velocity": 80}, {"time": 113758, "pitch": 60, "duration": 1922, "velocity": 80}, {"time": 113758, "pitch": 64, "duration": 1922, "velocity": 80}, {"time": 113758, "pitch": 69, "duration": 1922, "velocity": 80}, {"time": 115680, "pitch": 52, "duration": 1922, "velocity": 80}, {"time": 115680, "pitch": 59, "duration": 1922, "velocity": 80}, {"time": 115680, "pitch": 62, "duration": 1922, "velocity": 80}, {"time": 115680, "pitch": 67, "duration": 1922, "velocity": 80}, {"time": 117602, "pitch": 60, "duration": 1915, "velocity": 80}, {"time": 117602, "pitch": 64, "duration": 1915, "velocity": 80}, {"time": 117602, "pitch": 69, "duration": 1915, "velocity": 80}, {"time": 121439, "pitch": 60, "duration": 60, "velocity": 103}, {"time": 121439, "pitch": 64, "duration": 60, "velocity": 110}, {"time": 121678, "pitch": 57, "duration": 70, "velocity": 100}, {"time": 121918, "pitch": 60, "duration": 60, "velocity": 103}, {"time": 121918, "pitch": 64, "duration": 60, "velocity": 110}, {"time": 122157, "pitch": 57, "duration": 70, "velocity": 100}, {"time": 122396, "pitch": 60, "duration": 61, "velocity": 103}, {"time": 122396, "pitch": 64, "duration": 61, "velocity": 110}, {"time": 122639, "pitch": 57, "duration": 71, "velocity": 100}, {"time": 122883, "pitch": 60, "duration": 59, "velocity": 103}, {"time": 122883, "pitch": 64, "duration": 59, "velocity": 110}, {"time": 123122, "pitch": 57, "duration": 70, "velocity": 100}, {"time": 123361, "pitch": 60, "duration": 60, "velocity": 103}, {"time": 123361, "pitch": 64, "duration": 60, "velocity": 110}, {"time": 123601, "pitch": 52, "duration": 69, "velocity": 100}, {"time": 123840, "pitch": 60, "duration": 60, "velocity": 103}, {"time": 123840, "pitch": 64, "duration": 60, "velocity": 110}, {"time": 124079, "pitch": 52, "duration": 70, "velocity": 100}, {"time": 124319, "pitch": 60, "duration": 59, "velocity": 103}, {"time": 124319, "pitch": 64, "duration": 59, "velocity": 110}, {"time": 124558, "pitch": 52, "duration": 70, "velocity": 100}, {"time": 124797, "pitch": 60, "duration": 61, "velocity": 103}, {"time": 124797, "pitch": 64, "duration": 61, "velocity": 110}, {"time": 125040, "pitch": 52, "duration": 71, "velocity": 100}, {"time": 125283, "pitch": 60, "duration": 60, "velocity": 103}, {"time": 125283, "pitch": 64, "duration": 60, "velocity": 110}, {"time": 125523, "pitch": 57, "duration": 70, "velocity": 100}, {"time": 125762, "pitch": 60, "duration": 60, "velocity": 103}, {"time": 125762, "pitch": 64, "duration": 60, "velocity": 110}, {"time": 126001, "pitch": 57, "duration": 70, "velocity": 100}, {"time": 126241, "pitch": 60, "duration": 60, "velocity": 103}, {"time": 126241, "pitch": 64, "duration": 60, "velocity": 110}, {"time": 126480, "pitch": 57, "duration": 70, "velocity": 100}, {"time": 126719, "pitch": 60, "duration": 60, "velocity": 103}, {"time": 126719, "pitch": 64, "duration": 60, "velocity": 110}, {"time": 126959, "pitch": 57, "duration": 70, "velocity": 100}, {"time": 127198, "pitch": 62, "duration": 60, "velocity": 103}, {"time": 127198, "pitch": 67, "duration": 60, "velocity": 110}, {"time": 127437, "pitch": 52, "duration": 70, "velocity": 100}, {"time": 127677, "pitch": 62, "duration": 61, "velocity": 103}, {"time": 127677, "pitch": 67, "duration": 61, "velocity": 110}, {"time": 127920, "pitch": 52, "duration": 71, "velocity": 100}, {"time": 128163, "pitch": 62, "duration": 60, "velocity": 103}, {"time": 128163, "pitch": 67, "duration": 60, "velocity": 110}, {"time": 128402, "pitch": 52, "duration": 70, "velocity": 100}, {"time": 128642, "pitch": 62, "duration": 60, "velocity": 103}, {"time": 128642, "pitch": 67, "duration": 60, "velocity": 110}, {"time": 128881, "pitch": 52, "duration": 70, "velocity": 100}, {"time": 129120, "pitch": 60, "duration": 60, "velocity": 103}, {"time": 129120, "pitch": 64, "duration": 60, "velocity": 110}, {"time": 129360, "pitch": 57, "duration": 69, "velocity": 100}, {"time": 129599, "pitch": 60, "duration": 60, "velocity": 103}, {"time": 129599, "pitch": 64, "duration": 60, "velocity": 110}, {"time": 129838, "pitch": 57, "duration": 70, "velocity": 100}, {"time": 130078, "pitch": 60, "duration": 60, "velocity": 103}, {"time": 130078, "pitch": 64, "duration": 60, "velocity": 110}, {"time": 130317, "pitch": 57, "duration": 70, "velocity": 100}, {"time": 130556, "pitch": 60, "duration": 61, "velocity": 103}, {"time": 130556, "pitch": 64, "duration": 61, "velocity": 110}, {"time": 130799, "pitch": 57, "duration": 71, "velocity": 100}, {"time": 131043, "pitch": 60, "duration": 59, "velocity": 103}, {"time": 131043, "pitch": 64, "duration": 59, "velocity": 110}, {"time": 131282, "pitch": 52, "duration": 70, "velocity": 100}, {"time": 131521, "pitch": 60, "duration": 60, "velocity": 103}, {"time": 131521, "pitch": 64, "duration": 60, "velocity": 110}, {"time": 131761, "pitch": 52, "duration": 69, "velocity": 100}, {"time": 132000, "pitch": 60, "duration": 60, "velocity": 103}, {"time": 132000, "pitch": 64, "duration": 60, "velocity": 110}, {"time": 132239, "pitch": 52, "duration": 70, "velocity": 100}, {"time": 132479, "pitch": 60, "duration": 59, "velocity": 103}, {"time": 132479, "pitch": 64, "duration": 59, "velocity": 110}, {"time": 132718, "pitch": 52, "duration": 70, "velocity": 100}, {"time": 132957, "pitch": 60, "duration": 61, "velocity": 103}, {"time": 132957, "pitch": 64, "duration": 61, "velocity": 110}, {"time": 133200, "pitch": 57, "duration": 71, "velocity": 100}, {"time": 133443, "pitch": 60, "duration": 60, "velocity": 103}, {"time": 133443, "pitch": 64, "duration": 60, "velocity": 110}, {"time": 133683, "pitch": 57, "duration": 70, "velocity": 100}, {"time": 133922, "pitch": 60, "duration": 60, "velocity": 103}, {"time": 133922, "pitch": 64, "duration": 60, "velocity": 110}, {"time": 134161, "pitch": 57, "duration": 70, "velocity": 100}, {"time": 134401, "pitch": 60, "duration": 60, "velocity": 103}, {"time": 134401, "pitch": 64, "duration": 60, "velocity": 110}, {"time": 134640, "pitch": 57, "duration": 70, "velocity": 100}, {"time": 134879, "pitch": 52, "duration": 70, "velocity": 100}, {"time": 135119, "pitch": 62, "duration": 60, "velocity": 103}, {"time": 135119, "pitch": 67, "duration": 60, "velocity": 110}, {"time": 135358, "pitch": 52, "duration": 70, "velocity": 100}, {"time": 135597, "pitch": 62, "duration": 60, "velocity": 103}, {"time": 135597, "pitch": 67, "duration": 60, "velocity": 110}, {"time": 135837, "pitch": 52, "duration": 71, "velocity": 100}, {"time": 136080, "pitch": 62, "duration": 712, "velocity": 103}, {"time": 136080, "pitch": 65, "duration": 712, "velocity": 110}, {"time": 136802, "pitch": 57, "duration": 1914, "velocity": 80}, {"time": 136802, "pitch": 60, "duration": 1914, "velocity": 80}, {"time": 136802, "pitch": 64, "duration": 957, "velocity": 80}, {"time": 137759, "pitch": 69, "duration": 957, "velocity": 80}, {"time": 138716, "pitch": 59, "duration": 1923, "velocity": 80}, {"time": 138716, "pitch": 62, "duration": 1923, "velocity": 80}, {"time": 138716, "pitch": 67, "duration": 1923, "velocity": 80}, {"time": 140639, "pitch": 52, "duration": 1922, "velocity": 80}, {"time": 140639, "pitch": 59, "duration": 1922, "velocity": 80}, {"time": 140639, "pitch": 62, "duration": 1922, "velocity": 80}, {"time": 140639, "pitch": 67, "duration": 1922, "velocity": 80}, {"time": 142561, "pitch": 60, "duration": 1922, "velocity": 80}, {"time": 142561, "pitch": 64, "duration": 1922, "velocity": 80}, {"time": 142561, "pitch": 69, "duration": 1922, "velocity": 80}, {"time": 144483, "pitch": 57, "duration": 1915, "velocity": 80}, {"time": 144483, "pitch": 60, "duration": 1915, "velocity": 80}, {"time": 144483, "pitch": 64, "duration": 957, "velocity": 80}, {"time": 145440, "pitch": 69, "duration": 958, "velocity": 80}, {"time": 146398, "pitch": 62, "duration": 1922, "velocity": 80}, {"time": 146398, "pitch": 67, "duration": 1922, "velocity": 80}, {"time": 146398, "pitch": 71, "duration": 1922, "velocity": 80}, {"time": 148320, "pitch": 55, "duration": 1922, "velocity": 80}, {"time": 148320, "pitch": 59, "duration": 1922, "velocity": 80}, {"time": 148320, "pitch": 62, "duration": 1922, "velocity": 80}, {"time": 148320, "pitch": 67, "duration": 1922, "velocity": 80}, {"time": 150242, "pitch": 60, "duration": 1915, "velocity": 80}, {"time": 150242, "pitch": 64, "duration": 1915, "velocity": 80}, {"time": 150242, "pitch": 69, "duration": 1915, "velocity": 80}, {"time": 152157, "pitch": 53, "duration": 1922, "velocity": 80}, {"time": 152157, "pitch": 60, "duration": 1922, "velocity": 80}, {"time": 152157, "pitch": 64, "duration": 1922, "velocity": 80}, {"time": 152157, "pitch": 69, "duration": 1922, "velocity": 80}, {"time": 154079, "pitch": 52, "duration": 1922, "velocity": 80}, {"time": 154079, "pitch": 59, "duration": 1922, "velocity": 80}, {"time": 154079, "pitch": 62, "duration": 1922, "velocity": 80}, {"time": 154079, "pitch": 67, "duration": 1922, "velocity": 80}, {"time": 156001, "pitch": 60, "duration": 1923, "velocity": 80}, {"time": 156001, "pitch": 64, "duration": 1923, "velocity": 80}, {"time": 156001, "pitch": 69, "duration": 1923, "velocity": 80}, {"time": 482, "pitch": 69, "duration": 60, "velocity": 115}, {"time": 482, "pitch": 81, "duration": 60, "velocity": 115}, {"time": 961, "pitch": 69, "duration": 60, "velocity": 115}, {"time": 961, "pitch": 81, "duration": 60, "velocity": 115}, {"time": 1440, "pitch": 69, "duration": 59, "velocity": 115}, {"time": 1440, "pitch": 81, "duration": 59, "velocity": 115}, {"time": 1918, "pitch": 69, "duration": 60, "velocity": 115}, {"time": 1918, "pitch": 81, "duration": 60, "velocity": 115}, {"time": 2397, "pitch": 69, "duration": 61, "velocity": 115}, {"time": 2397, "pitch": 81, "duration": 61, "velocity": 115}, {"time": 2883, "pitch": 69, "duration": 60, "velocity": 115}, {"time": 2883, "pitch": 81, "duration": 60, "velocity": 115}, {"time": 3362, "pitch": 69, "duration": 60, "velocity": 115}, {"time": 3362, "pitch": 81, "duration": 60, "velocity": 115}, {"time": 3840, "pitch": 69, "duration": 60, "velocity": 115}, {"time": 3840, "pitch": 81, "duration": 60, "velocity": 115}, {"time": 4319, "pitch": 69, "duration": 60, "velocity": 115}, {"time": 4319, "pitch": 81, "duration": 60, "velocity": 115}, {"time": 4798, "pitch": 69, "duration": 60, "velocity": 117}, {"time": 4798, "pitch": 81, "duration": 60, "velocity": 117}, {"time": 5276, "pitch": 69, "duration": 61, "velocity": 112}, {"time": 5276, "pitch": 81, "duration": 61, "velocity": 112}, {"time": 5763, "pitch": 69, "duration": 60, "velocity": 115}, {"time": 5763, "pitch": 81, "duration": 60, "velocity": 115}, {"time": 6241, "pitch": 69, "duration": 60, "velocity": 115}, {"time": 6241, "pitch": 81, "duration": 60, "velocity": 115}, {"time": 6720, "pitch": 69, "duration": 60, "velocity": 104}, {"time": 6720, "pitch": 81, "duration": 60, "velocity": 104}, {"time": 7199, "pitch": 69, "duration": 60, "velocity": 115}, {"time": 7199, "pitch": 81, "duration": 60, "velocity": 115}, {"time": 7677, "pitch": 69, "duration": 61, "velocity": 112}, {"time": 7677, "pitch": 81, "duration": 61, "velocity": 112}, {"time": 60003, "pitch": 69, "duration": 60, "velocity": 115}, {"time": 60003, "pitch": 81, "duration": 60, "velocity": 115}, {"time": 60482, "pitch": 69, "duration": 60, "velocity": 115}, {"time": 60482, "pitch": 81, "duration": 60, "velocity": 115}, {"time": 60961, "pitch": 69, "duration": 59, "velocity": 115}, {"time": 60961, "pitch": 81, "duration": 59, "velocity": 115}, {"time": 61439, "pitch": 69, "duration": 60, "velocity": 115}, {"time": 61439, "pitch": 81, "duration": 60, "velocity": 115}, {"time": 61918, "pitch": 69, "duration": 60, "velocity": 115}, {"time": 61918, "pitch": 81, "duration": 60, "velocity": 115}, {"time": 62397, "pitch": 69, "duration": 60, "velocity": 115}, {"time": 62397, "pitch": 81, "duration": 60, "velocity": 115}, {"time": 62883, "pitch": 69, "duration": 60, "velocity": 115}, {"time": 62883, "pitch": 81, "duration": 60, "velocity": 115}, {"time": 63361, "pitch": 69, "duration": 60, "velocity": 115}, {"time": 63361, "pitch": 81, "duration": 60, "velocity": 115}, {"time": 63840, "pitch": 69, "duration": 60, "velocity": 115}, {"time": 63840, "pitch": 81, "duration": 60, "velocity": 115}, {"time": 64319, "pitch": 69, "duration": 60, "velocity": 117}, {"time": 64319, "pitch": 81, "duration": 60, "velocity": 117}, {"time": 64798, "pitch": 69, "duration": 60, "velocity": 112}, {"time": 64798, "pitch": 81, "duration": 60, "velocity": 112}, {"time": 65284, "pitch": 69, "duration": 60, "velocity": 115}, {"time": 65284, "pitch": 81, "duration": 60, "velocity": 115}, {"time": 65762, "pitch": 69, "duration": 60, "velocity": 115}, {"time": 65762, "pitch": 81, "duration": 60, "velocity": 115}, {"time": 66241, "pitch": 69, "duration": 60, "velocity": 104}, {"time": 66241, "pitch": 81, "duration": 60, "velocity": 104}, {"time": 66720, "pitch": 69, "duration": 60, "velocity": 115}, {"time": 66720, "pitch": 81, "duration": 60, "velocity": 115}, {"time": 67198, "pitch": 69, "duration": 60, "velocity": 112}, {"time": 67198, "pitch": 81, "duration": 60, "velocity": 112}, {"time": 120960, "pitch": 56, "duration": 60, "velocity": 110}, {"time": 120960, "pitch": 68, "duration": 60, "velocity": 110}, {"time": 121020, "pitch": 57, "duration": 60, "velocity": 110}, {"time": 121020, "pitch": 69, "duration": 60, "velocity": 110}, {"time": 121080, "pitch": 59, "duration": 60, "velocity": 110}, {"time": 121080, "pitch": 71, "duration": 60, "velocity": 110}, {"time": 121140, "pitch": 60, "duration": 60, "velocity": 110}, {"time": 121140, "pitch": 72, "duration": 60, "velocity": 110}, {"time": 121200, "pitch": 62, "duration": 59, "velocity": 110}, {"time": 121200, "pitch": 74, "duration": 59, "velocity": 110}, {"time": 121259, "pitch": 64, "duration": 60, "velocity": 110}, {"time": 121259, "pitch": 76, "duration": 60, "velocity": 110}, {"time": 121319, "pitch": 66, "duration": 60, "velocity": 110}, {"time": 121319, "pitch": 78, "duration": 60, "velocity": 110}, {"time": 121379, "pitch": 68, "duration": 60, "velocity": 110}, {"time": 121379, "pitch": 80, "duration": 60, "velocity": 110}, {"time": 121439, "pitch": 69, "duration": 90, "velocity": 125}, {"time": 121439, "pitch": 81, "duration": 90, "velocity": 125}, {"time": 121918, "pitch": 69, "duration": 79, "velocity": 125}, {"time": 121918, "pitch": 81, "duration": 79, "velocity": 125}, {"time": 122396, "pitch": 69, "duration": 81, "velocity": 125}, {"time": 122396, "pitch": 81, "duration": 81, "velocity": 125}, {"time": 122883, "pitch": 69, "duration": 69, "velocity": 125}, {"time": 122883, "pitch": 81, "duration": 69, "velocity": 125}, {"time": 123361, "pitch": 69, "duration": 90, "velocity": 125}, {"time": 123361, "pitch": 81, "duration": 90, "velocity": 125}, {"time": 123840, "pitch": 69, "duration": 80, "velocity": 125}, {"time": 123840, "pitch": 81, "duration": 80, "velocity": 125}, {"time": 124319, "pitch": 69, "duration": 79, "velocity": 125}, {"time": 124319, "pitch": 81, "duration": 79, "velocity": 125}, {"time": 124797, "pitch": 69, "duration": 71, "velocity": 125}, {"time": 124797, "pitch": 81, "duration": 71, "velocity": 125}, {"time": 125283, "pitch": 69, "duration": 60, "velocity": 125}, {"time": 125283, "pitch": 81, "duration": 60, "velocity": 125}, {"time": 125762, "pitch": 69, "duration": 60, "velocity": 127}, {"time": 125762, "pitch": 81, "duration": 60, "velocity": 127}, {"time": 126241, "pitch": 69, "duration": 70, "velocity": 122}, {"time": 126241, "pitch": 81, "duration": 70, "velocity": 122}, {"time": 126719, "pitch": 69, "duration": 60, "velocity": 125}, {"time": 126719, "pitch": 81, "duration": 60, "velocity": 125}, {"time": 127198, "pitch": 69, "duration": 70, "velocity": 125}, {"time": 127198, "pitch": 81, "duration": 70, "velocity": 125}, {"time": 127677, "pitch": 69, "duration": 81, "velocity": 114}, {"time": 127677, "pitch": 81, "duration": 81, "velocity": 114}, {"time": 128163, "pitch": 69, "duration": 70, "velocity": 125}, {"time": 128163, "pitch": 81, "duration": 70, "velocity": 125}, {"time": 128642, "pitch": 69, "duration": 60, "velocity": 122}, {"time": 128642, "pitch": 81, "duration": 60, "velocity": 122}, {"time": 129120, "pitch": 69, "duration": 90, "velocity": 125}, {"time": 129120, "pitch": 81, "duration": 90, "velocity": 125}, {"time": 129599, "pitch": 69, "duration": 80, "velocity": 125}, {"time": 129599, "pitch": 81, "duration": 80, "velocity": 125}, {"time": 130078, "pitch": 69, "duration": 79, "velocity": 125}, {"time": 130078, "pitch": 81, "duration": 79, "velocity": 125}, {"time": 130556, "pitch": 69, "duration": 71, "velocity": 125}, {"time": 130556, "pitch": 81, "duration": 71, "velocity": 125}, {"time": 131043, "pitch": 69, "duration": 89, "velocity": 125}, {"time": 131043, "pitch": 81, "duration": 89, "velocity": 125}, {"time": 131521, "pitch": 69, "duration": 80, "velocity": 125}, {"time": 131521, "pitch": 81, "duration": 80, "velocity": 125}, {"time": 132000, "pitch": 69, "duration": 80, "velocity": 125}, {"time": 132000, "pitch": 81, "duration": 80, "velocity": 125}, {"time": 132479, "pitch": 69, "duration": 69, "velocity": 125}, {"time": 132479, "pitch": 81, "duration": 69, "velocity": 125}, {"time": 132957, "pitch": 69, "duration": 61, "velocity": 125}, {"time": 132957, "pitch": 81, "duration": 61, "velocity": 125}, {"time": 133443, "pitch": 69, "duration": 60, "velocity": 127}, {"time": 133443, "pitch": 81, "duration": 60, "velocity": 127}, {"time": 133922, "pitch": 69, "duration": 70, "velocity": 122}, {"time": 133922, "pitch": 81, "duration": 70, "velocity": 122}, {"time": 134401, "pitch": 69, "duration": 60, "velocity": 125}, {"time": 134401, "pitch": 81, "duration": 60, "velocity": 125}, {"time": 136323, "pitch": 56, "duration": 60, "velocity": 110}, {"time": 136323, "pitch": 68, "duration": 60, "velocity": 110}, {"time": 136383, "pitch": 57, "duration": 60, "velocity": 110}, {"time": 136383, "pitch": 69, "duration": 60, "velocity": 110}, {"time": 136443, "pitch": 59, "duration": 60, "velocity": 110}, {"time": 136443, "pitch": 71, "duration": 60, "velocity": 110}, {"time": 136503, "pitch": 60, "duration": 59, "velocity": 110}, {"time": 136503, "pitch": 72, "duration": 59, "velocity": 110}, {"time": 136562, "pitch": 62, "duration": 60, "velocity": 110}, {"time": 136562, "pitch": 74, "duration": 60, "velocity": 110}, {"time": 136622, "pitch": 64, "duration": 60, "velocity": 110}, {"time": 136622, "pitch": 76, "duration": 60, "velocity": 110}, {"time": 136682, "pitch": 66, "duration": 60, "velocity": 110}, {"time": 136682, "pitch": 78, "duration": 60, "velocity": 110}, {"time": 136742, "pitch": 68, "duration": 60, "velocity": 110}, {"time": 136742, "pitch": 80, "duration": 60, "velocity": 110}, {"time": 136802, "pitch": 69, "duration": 1914, "velocity": 83}, {"time": 136802, "pitch": 81, "duration": 1914, "velocity": 83}, {"time": 138716, "pitch": 71, "duration": 3586, "velocity": 83}, {"time": 138716, "pitch": 83, "duration": 3586, "velocity": 83}, {"time": 142321, "pitch": 72, "duration": 120, "velocity": 83}, {"time": 142321, "pitch": 84, "duration": 120, "velocity": 83}, {"time": 142441, "pitch": 74, "duration": 90, "velocity": 81}, {"time": 142441, "pitch": 86, "duration": 90, "velocity": 81}, {"time": 142561, "pitch": 76, "duration": 1436, "velocity": 97}, {"time": 142561, "pitch": 88, "duration": 1436, "velocity": 97}, {"time": 143997, "pitch": 69, "duration": 466, "velocity": 83}, {"time": 143997, "pitch": 81, "duration": 466, "velocity": 83}, {"time": 144483, "pitch": 76, "duration": 1436, "velocity": 106}, {"time": 144483, "pitch": 88, "duration": 1436, "velocity": 106}, {"time": 145919, "pitch": 81, "duration": 449, "velocity": 97}, {"time": 145919, "pitch": 93, "duration": 449, "velocity": 97}, {"time": 146398, "pitch": 79, "duration": 1443, "velocity": 80}, {"time": 146398, "pitch": 91, "duration": 1443, "velocity": 80}, {"time": 147841, "pitch": 74, "duration": 479, "velocity": 90}, {"time": 147841, "pitch": 86, "duration": 479, "velocity": 90}, {"time": 148320, "pitch": 76, "duration": 957, "velocity": 79}, {"time": 148320, "pitch": 88, "duration": 957, "velocity": 79}, {"time": 149277, "pitch": 71, "duration": 726, "velocity": 89}, {"time": 149277, "pitch": 83, "duration": 726, "velocity": 89}, {"time": 150003, "pitch": 72, "duration": 119, "velocity": 97}, {"time": 150003, "pitch": 84, "duration": 119, "velocity": 97}, {"time": 150122, "pitch": 71, "duration": 120, "velocity": 90}, {"time": 150122, "pitch": 83, "duration": 120, "velocity": 90}, {"time": 150242, "pitch": 69, "duration": 1915, "velocity": 81}, {"time": 150242, "pitch": 81, "duration": 1915, "velocity": 81}, {"time": 152157, "pitch": 93, "duration": 1922, "velocity": 70}, {"time": 154079, "pitch": 91, "duration": 1872, "velocity": 66}, {"time": 156001, "pitch": 93, "duration": 1923, "velocity": 70}, {"time": 157924, "pitch": 69, "duration": 59, "velocity": 115}, {"time": 157924, "pitch": 81, "duration": 59, "velocity": 115}, {"time": 158402, "pitch": 69, "duration": 60, "velocity": 115}, {"time": 158402, "pitch": 81, "duration": 60, "velocity": 115}, {"time": 158881, "pitch": 69, "duration": 60, "velocity": 115}, {"time": 158881, "pitch": 81, "duration": 60, "velocity": 115}, {"time": 159360, "pitch": 69, "duration": 59, "velocity": 115}, {"time": 159360, "pitch": 81, "duration": 59, "velocity": 115}, {"time": 159838, "pitch": 69, "duration": 60, "velocity": 115}, {"time": 159838, "pitch": 81, "duration": 60, "velocity": 115}, {"time": 160317, "pitch": 69, "duration": 61, "velocity": 115}, {"time": 160317, "pitch": 81, "duration": 61, "velocity": 115}, {"time": 160803, "pitch": 69, "duration": 60, "velocity": 115}, {"time": 160803, "pitch": 81, "duration": 60, "velocity": 115}, {"time": 161282, "pitch": 69, "duration": 60, "velocity": 115}, {"time": 161282, "pitch": 81, "duration": 60, "velocity": 115}, {"time": 161760, "pitch": 69, "duration": 60, "velocity": 115}, {"time": 161760, "pitch": 81, "duration": 60, "velocity": 115}, {"time": 162239, "pitch": 69, "duration": 60, "velocity": 117}, {"time": 162239, "pitch": 81, "duration": 60, "velocity": 117}, {"time": 162718, "pitch": 69, "duration": 60, "velocity": 112}, {"time": 162718, "pitch": 81, "duration": 60, "velocity": 112}, {"time": 163196, "pitch": 69, "duration": 61, "velocity": 115}, {"time": 163196, "pitch": 81, "duration": 61, "velocity": 115}, {"time": 163683, "pitch": 69, "duration": 59, "velocity": 115}, {"time": 163683, "pitch": 81, "duration": 59, "velocity": 115}, {"time": 164161, "pitch": 69, "duration": 60, "velocity": 104}, {"time": 164161, "pitch": 81, "duration": 60, "velocity": 104}, {"time": 164640, "pitch": 69, "duration": 60, "velocity": 115}, {"time": 164640, "pitch": 81, "duration": 60, "velocity": 115}, {"time": 165119, "pitch": 69, "duration": 60, "velocity": 112}, {"time": 165119, "pitch": 81, "duration": 60, "velocity": 112}, {"time": 165597, "pitch": 69, "duration": 61, "velocity": 115}, {"time": 165597, "pitch": 81, "duration": 61, "velocity": 115}, {"time": 166084, "pitch": 69, "duration": 59, "velocity": 115}, {"time": 166084, "pitch": 81, "duration": 59, "velocity": 115}, {"time": 166562, "pitch": 69, "duration": 60, "velocity": 115}, {"time": 166562, "pitch": 81, "duration": 60, "velocity": 115}, {"time": 167041, "pitch": 69, "duration": 60, "velocity": 115}, {"time": 167041, "pitch": 81, "duration": 60, "velocity": 115}, {"time": 167520, "pitch": 69, "duration": 59, "velocity": 115}, {"time": 167520, "pitch": 81, "duration": 59, "velocity": 115}, {"time": 167998, "pitch": 69, "duration": 60, "velocity": 115}, {"time": 167998, "pitch": 81, "duration": 60, "velocity": 115}, {"time": 168477, "pitch": 69, "duration": 61, "velocity": 115}, {"time": 168477, "pitch": 81, "duration": 61, "velocity": 115}, {"time": 168963, "pitch": 69, "duration": 60, "velocity": 115}, {"time": 168963, "pitch": 81, "duration": 60, "velocity": 115}, {"time": 169442, "pitch": 69, "duration": 60, "velocity": 115}, {"time": 169442, "pitch": 81, "duration": 60, "velocity": 115}, {"time": 169920, "pitch": 69, "duration": 60, "velocity": 117}, {"time": 169920, "pitch": 81, "duration": 60, "velocity": 117}, {"time": 170399, "pitch": 69, "duration": 60, "velocity": 112}, {"time": 170399, "pitch": 81, "duration": 60, "velocity": 112}, {"time": 170878, "pitch": 69, "duration": 60, "velocity": 115}, {"time": 170878, "pitch": 81, "duration": 60, "velocity": 115}, {"time": 171356, "pitch": 69, "duration": 61, "velocity": 115}, {"time": 171356, "pitch": 81, "duration": 61, "velocity": 115}, {"time": 171843, "pitch": 69, "duration": 60, "velocity": 104}, {"time": 171843, "pitch": 81, "duration": 60, "velocity": 104}, {"time": 172321, "pitch": 69, "duration": 60, "velocity": 115}, {"time": 172321, "pitch": 81, "duration": 60, "velocity": 115}, {"time": 172800, "pitch": 69, "duration": 60, "velocity": 112}, {"time": 172800, "pitch": 81, "duration": 60, "velocity": 112}, {"time": 173279, "pitch": 69, "duration": 60, "velocity": 115}, {"time": 173279, "pitch": 81, "duration": 60, "velocity": 115}, {"time": 173757, "pitch": 69, "duration": 61, "velocity": 115}, {"time": 173757, "pitch": 81, "duration": 61, "velocity": 115}, {"time": 174244, "pitch": 69, "duration": 59, "velocity": 115}, {"time": 174244, "pitch": 81, "duration": 59, "velocity": 115}, {"time": 174722, "pitch": 69, "duration": 60, "velocity": 115}, {"time": 174722, "pitch": 81, "duration": 60, "velocity": 115}, {"time": 175201, "pitch": 69, "duration": 60, "velocity": 115}, {"time": 175201, "pitch": 81, "duration": 60, "velocity": 115}, {"time": 175680, "pitch": 69, "duration": 59, "velocity": 115}, {"time": 175680, "pitch": 81, "duration": 59, "velocity": 115}, {"time": 176158, "pitch": 69, "duration": 60, "velocity": 115}, {"time": 176158, "pitch": 81, "duration": 60, "velocity": 115}, {"time": 176637, "pitch": 69, "duration": 61, "velocity": 115}, {"time": 176637, "pitch": 81, "duration": 61, "velocity": 115}, {"time": 177123, "pitch": 69, "duration": 60, "velocity": 115}, {"time": 177123, "pitch": 81, "duration": 60, "velocity": 115}, {"time": 177602, "pitch": 69, "duration": 60, "velocity": 117}, {"time": 177602, "pitch": 81, "duration": 60, "velocity": 117}, {"time": 178080, "pitch": 69, "duration": 60, "velocity": 112}, {"time": 178080, "pitch": 81, "duration": 60, "velocity": 112}, {"time": 178559, "pitch": 69, "duration": 60, "velocity": 115}, {"time": 178559, "pitch": 81, "duration": 60, "velocity": 115}, {"time": 179038, "pitch": 69, "duration": 60, "velocity": 115}, {"time": 179038, "pitch": 81, "duration": 60, "velocity": 115}, {"time": 179517, "pitch": 69, "duration": 59, "velocity": 104}, {"time": 179517, "pitch": 81, "duration": 59, "velocity": 104}, {"time": 179995, "pitch": 69, "duration": 60, "velocity": 115}, {"time": 179995, "pitch": 81, "duration": 60, "velocity": 115}, {"time": 180474, "pitch": 69, "duration": 60, "velocity": 112}, {"time": 180474, "pitch": 81, "duration": 60, "velocity": 112}, {"time": 30482, "pitch": 55, "duration": 718, "velocity": 106}, {"time": 30482, "pitch": 67, "duration": 718, "velocity": 102}, {"time": 35037, "pitch": 54, "duration": 965, "velocity": 118}, {"time": 35037, "pitch": 66, "duration": 945, "velocity": 114}, {"time": 36002, "pitch": 53, "duration": 708, "velocity": 104}, {"time": 36002, "pitch": 65, "duration": 698, "velocity": 100}, {"time": 36720, "pitch": 52, "duration": 120, "velocity": 103}, {"time": 36720, "pitch": 64, "duration": 120, "velocity": 94}, {"time": 37199, "pitch": 52, "duration": 209, "velocity": 114}, {"time": 37199, "pitch": 59, "duration": 209, "velocity": 120}, {"time": 37199, "pitch": 64, "duration": 209, "velocity": 125}, {"time": 37677, "pitch": 52, "duration": 220, "velocity": 125}, {"time": 37677, "pitch": 59, "duration": 240, "velocity": 122}, {"time": 37677, "pitch": 64, "duration": 260, "velocity": 127}, {"time": 89999, "pitch": 55, "duration": 722, "velocity": 106}, {"time": 89999, "pitch": 67, "duration": 722, "velocity": 102}, {"time": 94558, "pitch": 54, "duration": 965, "velocity": 118}, {"time": 94558, "pitch": 66, "duration": 945, "velocity": 114}, {"time": 95523, "pitch": 53, "duration": 708, "velocity": 104}, {"time": 95523, "pitch": 65, "duration": 698, "velocity": 100}, {"time": 96241, "pitch": 52, "duration": 120, "velocity": 103}, {"time": 96241, "pitch": 64, "duration": 120, "velocity": 94}, {"time": 96720, "pitch": 52, "duration": 209, "velocity": 114}, {"time": 96720, "pitch": 59, "duration": 209, "velocity": 120}, {"time": 96720, "pitch": 64, "duration": 209, "velocity": 125}, {"time": 97198, "pitch": 52, "duration": 220, "velocity": 125}, {"time": 97198, "pitch": 59, "duration": 240, "velocity": 122}, {"time": 97198, "pitch": 64, "duration": 260, "velocity": 127}, {"time": 482, "pitch": 81, "duration": 329, "velocity": 99}, {"time": 881, "pitch": 76, "duration": 369, "velocity": 83}, {"time": 1200, "pitch": 79, "duration": 409, "velocity": 106}, {"time": 1599, "pitch": 74, "duration": 329, "velocity": 83}, {"time": 1918, "pitch": 76, "duration": 439, "velocity": 83}, {"time": 2397, "pitch": 72, "duration": 1104, "velocity": 83}, {"time": 3521, "pitch": 69, "duration": 818, "velocity": 67}, {"time": 4319, "pitch": 81, "duration": 349, "velocity": 112}, {"time": 4718, "pitch": 76, "duration": 299, "velocity": 95}, {"time": 5037, "pitch": 79, "duration": 442, "velocity": 71}, {"time": 5439, "pitch": 74, "duration": 293, "velocity": 81}, {"time": 5763, "pitch": 76, "duration": 448, "velocity": 83}, {"time": 6241, "pitch": 72, "duration": 738, "velocity": 89}, {"time": 6959, "pitch": 69, "duration": 850, "velocity": 81}, {"time": 60003, "pitch": 81, "duration": 329, "velocity": 99}, {"time": 60402, "pitch": 76, "duration": 369, "velocity": 83}, {"time": 60721, "pitch": 79, "duration": 409, "velocity": 106}, {"time": 61120, "pitch": 74, "duration": 329, "velocity": 83}, {"time": 61439, "pitch": 76, "duration": 439, "velocity": 83}, {"time": 61918, "pitch": 72, "duration": 1104, "velocity": 83}, {"time": 63042, "pitch": 69, "duration": 818, "velocity": 67}, {"time": 63840, "pitch": 81, "duration": 349, "velocity": 112}, {"time": 64239, "pitch": 76, "duration": 299, "velocity": 95}, {"time": 64558, "pitch": 79, "duration": 442, "velocity": 71}, {"time": 64960, "pitch": 74, "duration": 293, "velocity": 81}, {"time": 65284, "pitch": 76, "duration": 448, "velocity": 83}, {"time": 65762, "pitch": 72, "duration": 738, "velocity": 89}, {"time": 66480, "pitch": 69, "duration": 848, "velocity": 81}, {"time": 121439, "pitch": 81, "duration": 329, "velocity": 99}, {"time": 121838, "pitch": 76, "duration": 369, "velocity": 83}, {"time": 122157, "pitch": 79, "duration": 412, "velocity": 106}, {"time": 122558, "pitch": 74, "duration": 335, "velocity": 83}, {"time": 122883, "pitch": 76, "duration": 438, "velocity": 83}, {"time": 123361, "pitch": 72, "duration": 1436, "velocity": 83}, {"time": 125283, "pitch": 81, "duration": 349, "velocity": 112}, {"time": 125682, "pitch": 76, "duration": 299, "velocity": 95}, {"time": 126001, "pitch": 79, "duration": 439, "velocity": 71}, {"time": 126400, "pitch": 74, "duration": 290, "velocity": 81}, {"time": 126719, "pitch": 76, "duration": 449, "velocity": 83}, {"time": 127198, "pitch": 72, "duration": 742, "velocity": 89}, {"time": 127920, "pitch": 71, "duration": 851, "velocity": 81}, {"time": 129120, "pitch": 81, "duration": 329, "velocity": 99}, {"time": 129519, "pitch": 76, "duration": 369, "velocity": 83}, {"time": 129838, "pitch": 79, "duration": 409, "velocity": 106}, {"time": 130237, "pitch": 74, "duration": 329, "velocity": 83}, {"time": 130556, "pitch": 76, "duration": 446, "velocity": 83}, {"time": 131043, "pitch": 72, "duration": 1436, "velocity": 83}, {"time": 157924, "pitch": 81, "duration": 329, "velocity": 99}, {"time": 158322, "pitch": 76, "duration": 369, "velocity": 83}, {"time": 158642, "pitch": 79, "duration": 408, "velocity": 106}, {"time": 159040, "pitch": 74, "duration": 330, "velocity": 83}, {"time": 159360, "pitch": 76, "duration": 438, "velocity": 83}, {"time": 159838, "pitch": 72, "duration": 1105, "velocity": 83}, {"time": 160963, "pitch": 69, "duration": 817, "velocity": 67}, {"time": 161760, "pitch": 81, "duration": 349, "velocity": 112}, {"time": 162159, "pitch": 76, "duration": 300, "velocity": 95}, {"time": 162478, "pitch": 79, "duration": 439, "velocity": 71}, {"time": 162877, "pitch": 74, "duration": 290, "velocity": 81}, {"time": 163196, "pitch": 76, "duration": 456, "velocity": 83}, {"time": 163683, "pitch": 72, "duration": 738, "velocity": 89}, {"time": 164401, "pitch": 69, "duration": 847, "velocity": 81}, {"time": 165597, "pitch": 81, "duration": 335, "velocity": 99}, {"time": 166003, "pitch": 76, "duration": 370, "velocity": 83}, {"time": 166323, "pitch": 79, "duration": 409, "velocity": 106}, {"time": 166722, "pitch": 74, "duration": 329, "velocity": 83}, {"time": 167041, "pitch": 76, "duration": 439, "velocity": 83}, {"time": 167520, "pitch": 72, "duration": 1099, "velocity": 83}, {"time": 168639, "pitch": 69, "duration": 823, "velocity": 67}, {"time": 169442, "pitch": 81, "duration": 349, "velocity": 112}, {"time": 169841, "pitch": 76, "duration": 299, "velocity": 95}, {"time": 170160, "pitch": 79, "duration": 439, "velocity": 71}, {"time": 170559, "pitch": 74, "duration": 289, "velocity": 81}, {"time": 170878, "pitch": 76, "duration": 449, "velocity": 83}, {"time": 171356, "pitch": 72, "duration": 746, "velocity": 89}, {"time": 172082, "pitch": 69, "duration": 848, "velocity": 81}, {"time": 173279, "pitch": 81, "duration": 329, "velocity": 99}, {"time": 173678, "pitch": 76, "duration": 373, "velocity": 83}, {"time": 174000, "pitch": 79, "duration": 413, "velocity": 106}, {"time": 174403, "pitch": 74, "duration": 329, "velocity": 83}, {"time": 174722, "pitch": 76, "duration": 439, "velocity": 83}, {"time": 175201, "pitch": 72, "duration": 1097, "velocity": 83}, {"time": 176318, "pitch": 69, "duration": 825, "velocity": 67}, {"time": 177123, "pitch": 81, "duration": 349, "velocity": 112}, {"time": 177522, "pitch": 76, "duration": 299, "velocity": 95}, {"time": 177841, "pitch": 79, "duration": 439, "velocity": 71}, {"time": 178240, "pitch": 74, "duration": 289, "velocity": 81}, {"time": 178559, "pitch": 76, "duration": 449, "velocity": 83}, {"time": 179038, "pitch": 72, "duration": 738, "velocity": 89}, {"time": 179756, "pitch": 69, "duration": 848, "velocity": 81}, {"time": 23519, "pitch": 93, "duration": 70, "velocity": 88}, {"time": 23758, "pitch": 100, "duration": 60, "velocity": 95}, {"time": 23997, "pitch": 96, "duration": 92, "velocity": 89}, {"time": 24241, "pitch": 103, "duration": 81, "velocity": 94}, {"time": 31200, "pitch": 93, "duration": 70, "velocity": 88}, {"time": 31439, "pitch": 100, "duration": 60, "velocity": 95}, {"time": 31679, "pitch": 96, "duration": 90, "velocity": 89}, {"time": 31918, "pitch": 103, "duration": 80, "velocity": 94}, {"time": 39360, "pitch": 88, "duration": 80, "velocity": 97}, {"time": 39839, "pitch": 93, "duration": 90, "velocity": 89}, {"time": 40804, "pitch": 93, "duration": 99, "velocity": 100}, {"time": 41522, "pitch": 91, "duration": 79, "velocity": 88}, {"time": 43197, "pitch": 88, "duration": 101, "velocity": 85}, {"time": 43683, "pitch": 95, "duration": 100, "velocity": 89}, {"time": 44641, "pitch": 93, "duration": 109, "velocity": 106}, {"time": 47041, "pitch": 88, "duration": 80, "velocity": 97}, {"time": 47520, "pitch": 93, "duration": 90, "velocity": 89}, {"time": 48477, "pitch": 93, "duration": 102, "velocity": 100}, {"time": 49203, "pitch": 91, "duration": 80, "velocity": 88}, {"time": 50878, "pitch": 88, "duration": 100, "velocity": 85}, {"time": 51357, "pitch": 95, "duration": 101, "velocity": 89}, {"time": 52322, "pitch": 93, "duration": 110, "velocity": 106}, {"time": 83040, "pitch": 93, "duration": 70, "velocity": 88}, {"time": 83279, "pitch": 100, "duration": 60, "velocity": 95}, {"time": 83518, "pitch": 96, "duration": 90, "velocity": 89}, {"time": 83758, "pitch": 103, "duration": 80, "velocity": 94}, {"time": 90721, "pitch": 93, "duration": 70, "velocity": 88}, {"time": 90960, "pitch": 100, "duration": 60, "velocity": 95}, {"time": 91200, "pitch": 96, "duration": 90, "velocity": 89}, {"time": 91439, "pitch": 103, "duration": 80, "velocity": 94}, {"time": 98881, "pitch": 88, "duration": 80, "velocity": 97}, {"time": 99360, "pitch": 93, "duration": 90, "velocity": 89}, {"time": 100317, "pitch": 93, "duration": 101, "velocity": 100}, {"time": 101043, "pitch": 91, "duration": 79, "velocity": 88}, {"time": 102718, "pitch": 88, "duration": 100, "velocity": 85}, {"time": 103197, "pitch": 95, "duration": 101, "velocity": 89}, {"time": 104162, "pitch": 93, "duration": 109, "velocity": 106}, {"time": 106562, "pitch": 88, "duration": 80, "velocity": 97}, {"time": 107041, "pitch": 93, "duration": 90, "velocity": 89}, {"time": 107999, "pitch": 93, "duration": 99, "velocity": 100}, {"time": 108720, "pitch": 91, "duration": 81, "velocity": 88}, {"time": 110399, "pitch": 88, "duration": 100, "velocity": 85}, {"time": 110878, "pitch": 95, "duration": 100, "velocity": 89}, {"time": 111843, "pitch": 93, "duration": 110, "velocity": 106}, {"time": 137280, "pitch": 88, "duration": 80, "velocity": 97}, {"time": 137759, "pitch": 93, "duration": 90, "velocity": 89}, {"time": 138716, "pitch": 93, "duration": 102, "velocity": 100}, {"time": 139442, "pitch": 91, "duration": 80, "velocity": 88}, {"time": 141117, "pitch": 88, "duration": 102, "velocity": 85}, {"time": 141603, "pitch": 95, "duration": 100, "velocity": 89}, {"time": 142561, "pitch": 93, "duration": 110, "velocity": 106}, {"time": 144962, "pitch": 88, "duration": 79, "velocity": 97}, {"time": 145440, "pitch": 93, "duration": 90, "velocity": 89}, {"time": 146398, "pitch": 93, "duration": 99, "velocity": 100}, {"time": 147120, "pitch": 91, "duration": 81, "velocity": 88}, {"time": 148799, "pitch": 88, "duration": 99, "velocity": 85}, {"time": 149277, "pitch": 95, "duration": 102, "velocity": 89}, {"time": 150242, "pitch": 93, "duration": 110, "velocity": 106}, {"time": 29039, "pitch": 72, "duration": 79, "velocity": 127}, {"time": 29039, "pitch": 76, "duration": 79, "velocity": 118}, {"time": 29039, "pitch": 81, "duration": 79, "velocity": 118}, {"time": 29039, "pitch": 84, "duration": 79, "velocity": 127}, {"time": 29517, "pitch": 71, "duration": 80, "velocity": 127}, {"time": 29517, "pitch": 74, "duration": 80, "velocity": 122}, {"time": 29517, "pitch": 79, "duration": 80, "velocity": 120}, {"time": 29517, "pitch": 83, "duration": 80, "velocity": 127}, {"time": 30000, "pitch": 69, "duration": 81, "velocity": 110}, {"time": 30000, "pitch": 72, "duration": 81, "velocity": 119}, {"time": 30000, "pitch": 77, "duration": 81, "velocity": 121}, {"time": 30000, "pitch": 81, "duration": 81, "velocity": 127}, {"time": 35037, "pitch": 69, "duration": 945, "velocity": 114}, {"time": 35037, "pitch": 74, "duration": 965, "velocity": 118}, {"time": 36002, "pitch": 69, "duration": 698, "velocity": 100}, {"time": 36002, "pitch": 74, "duration": 708, "velocity": 104}, {"time": 36720, "pitch": 68, "duration": 120, "velocity": 94}, {"time": 36720, "pitch": 76, "duration": 120, "velocity": 103}, {"time": 37199, "pitch": 67, "duration": 189, "velocity": 127}, {"time": 37199, "pitch": 74, "duration": 189, "velocity": 122}, {"time": 37199, "pitch": 80, "duration": 199, "velocity": 127}, {"time": 37199, "pitch": 88, "duration": 169, "velocity": 127}, {"time": 37677, "pitch": 67, "duration": 220, "velocity": 127}, {"time": 37677, "pitch": 74, "duration": 200, "velocity": 127}, {"time": 37677, "pitch": 80, "duration": 280, "velocity": 127}, {"time": 37677, "pitch": 88, "duration": 270, "velocity": 127}, {"time": 37847, "pitch": 86, "duration": 70, "velocity": 88}, {"time": 37857, "pitch": 84, "duration": 80, "velocity": 86}, {"time": 37867, "pitch": 83, "duration": 90, "velocity": 84}, {"time": 37897, "pitch": 81, "duration": 80, "velocity": 78}, {"time": 37927, "pitch": 79, "duration": 60, "velocity": 72}, {"time": 37947, "pitch": 77, "duration": 61, "velocity": 68}, {"time": 37957, "pitch": 76, "duration": 61, "velocity": 66}, {"time": 37967, "pitch": 74, "duration": 61, "velocity": 64}, {"time": 37987, "pitch": 72, "duration": 51, "velocity": 60}, {"time": 38018, "pitch": 71, "duration": 40, "velocity": 54}, {"time": 38038, "pitch": 69, "duration": 30, "velocity": 50}, {"time": 38048, "pitch": 67, "duration": 31, "velocity": 48}, {"time": 38058, "pitch": 65, "duration": 31, "velocity": 46}, {"time": 38068, "pitch": 64, "duration": 41, "velocity": 44}, {"time": 38089, "pitch": 62, "duration": 30, "velocity": 40}, {"time": 88560, "pitch": 72, "duration": 79, "velocity": 127}, {"time": 88560, "pitch": 76, "duration": 79, "velocity": 118}, {"time": 88560, "pitch": 81, "duration": 79, "velocity": 118}, {"time": 88560, "pitch": 84, "duration": 79, "velocity": 127}, {"time": 89038, "pitch": 71, "duration": 80, "velocity": 127}, {"time": 89038, "pitch": 74, "duration": 80, "velocity": 122}, {"time": 89038, "pitch": 79, "duration": 80, "velocity": 120}, {"time": 89038, "pitch": 83, "duration": 80, "velocity": 127}, {"time": 89517, "pitch": 69, "duration": 80, "velocity": 110}, {"time": 89517, "pitch": 72, "duration": 80, "velocity": 119}, {"time": 89517, "pitch": 77, "duration": 80, "velocity": 121}, {"time": 89517, "pitch": 81, "duration": 80, "velocity": 127}, {"time": 94558, "pitch": 69, "duration": 945, "velocity": 114}, {"time": 94558, "pitch": 74, "duration": 965, "velocity": 118}, {"time": 95523, "pitch": 69, "duration": 698, "velocity": 100}, {"time": 95523, "pitch": 74, "duration": 708, "velocity": 104}, {"time": 96241, "pitch": 68, "duration": 120, "velocity": 94}, {"time": 96241, "pitch": 76, "duration": 120, "velocity": 103}, {"time": 96720, "pitch": 67, "duration": 189, "velocity": 127}, {"time": 96720, "pitch": 74, "duration": 189, "velocity": 122}, {"time": 96720, "pitch": 80, "duration": 199, "velocity": 127}, {"time": 96720, "pitch": 88, "duration": 169, "velocity": 127}, {"time": 97198, "pitch": 67, "duration": 220, "velocity": 127}, {"time": 97198, "pitch": 74, "duration": 200, "velocity": 127}, {"time": 97198, "pitch": 80, "duration": 280, "velocity": 127}, {"time": 97198, "pitch": 88, "duration": 270, "velocity": 127}, {"time": 97368, "pitch": 86, "duration": 70, "velocity": 88}, {"time": 97378, "pitch": 84, "duration": 80, "velocity": 86}, {"time": 97388, "pitch": 83, "duration": 90, "velocity": 84}, {"time": 97418, "pitch": 81, "duration": 79, "velocity": 78}, {"time": 97448, "pitch": 79, "duration": 59, "velocity": 72}, {"time": 97468, "pitch": 77, "duration": 59, "velocity": 68}, {"time": 97478, "pitch": 76, "duration": 59, "velocity": 66}, {"time": 97487, "pitch": 74, "duration": 60, "velocity": 64}, {"time": 97507, "pitch": 72, "duration": 50, "velocity": 60}, {"time": 97537, "pitch": 71, "duration": 40, "velocity": 54}, {"time": 97557, "pitch": 69, "duration": 30, "velocity": 50}, {"time": 97567, "pitch": 67, "duration": 30, "velocity": 48}, {"time": 97577, "pitch": 65, "duration": 30, "velocity": 46}, {"time": 97587, "pitch": 64, "duration": 40, "velocity": 44}, {"time": 97607, "pitch": 62, "duration": 30, "velocity": 40}, {"time": 135119, "pitch": 68, "duration": 189, "velocity": 127}, {"time": 135119, "pitch": 74, "duration": 189, "velocity": 122}, {"time": 135119, "pitch": 79, "duration": 199, "velocity": 127}, {"time": 135119, "pitch": 91, "duration": 169, "velocity": 127}, {"time": 135597, "pitch": 68, "duration": 220, "velocity": 127}, {"time": 135597, "pitch": 74, "duration": 200, "velocity": 127}, {"time": 135597, "pitch": 79, "duration": 280, "velocity": 127}, {"time": 135597, "pitch": 91, "duration": 270, "velocity": 127}, {"time": 136080, "pitch": 68, "duration": 223, "velocity": 127}, {"time": 136080, "pitch": 74, "duration": 203, "velocity": 127}, {"time": 136080, "pitch": 89, "duration": 273, "velocity": 127}, {"time": 136252, "pitch": 86, "duration": 71, "velocity": 88}, {"time": 136262, "pitch": 84, "duration": 81, "velocity": 86}, {"time": 136272, "pitch": 83, "duration": 91, "velocity": 84}, {"time": 136303, "pitch": 81, "duration": 80, "velocity": 78}, {"time": 136333, "pitch": 79, "duration": 30, "velocity": 72}, {"time": 136353, "pitch": 77, "duration": 60, "velocity": 68}, {"time": 136363, "pitch": 76, "duration": 60, "velocity": 66}, {"time": 136373, "pitch": 74, "duration": 60, "velocity": 64}, {"time": 136393, "pitch": 72, "duration": 50, "velocity": 60}, {"time": 136423, "pitch": 71, "duration": 40, "velocity": 54}, {"time": 136443, "pitch": 69, "duration": 30, "velocity": 50}, {"time": 136453, "pitch": 67, "duration": 30, "velocity": 48}, {"time": 136463, "pitch": 65, "duration": 30, "velocity": 46}, {"time": 136473, "pitch": 64, "duration": 39, "velocity": 44}, {"time": 136493, "pitch": 62, "duration": 29, "velocity": 40}, {"time": 3362, "pitch": 57, "duration": 159, "velocity": 113}, {"time": 3521, "pitch": 55, "duration": 80, "velocity": 98}, {"time": 3601, "pitch": 52, "duration": 140, "velocity": 97}, {"time": 3761, "pitch": 55, "duration": 319, "velocity": 101}, {"time": 4080, "pitch": 57, "duration": 70, "velocity": 115}, {"time": 6002, "pitch": 55, "duration": 140, "velocity": 104}, {"time": 6162, "pitch": 57, "duration": 80, "velocity": 103}, {"time": 6241, "pitch": 60, "duration": 110, "velocity": 125}, {"time": 6481, "pitch": 60, "duration": 109, "velocity": 112}, {"time": 6640, "pitch": 59, "duration": 130, "velocity": 106}, {"time": 6880, "pitch": 59, "duration": 69, "velocity": 125}, {"time": 6959, "pitch": 57, "duration": 369, "velocity": 106}, {"time": 7438, "pitch": 55, "duration": 482, "velocity": 118}, {"time": 7920, "pitch": 57, "duration": 142, "velocity": 97}, {"time": 62883, "pitch": 57, "duration": 159, "velocity": 113}, {"time": 63042, "pitch": 55, "duration": 80, "velocity": 98}, {"time": 63122, "pitch": 52, "duration": 140, "velocity": 97}, {"time": 63282, "pitch": 55, "duration": 319, "velocity": 101}, {"time": 63601, "pitch": 57, "duration": 70, "velocity": 115}, {"time": 65523, "pitch": 55, "duration": 140, "velocity": 104}, {"time": 65683, "pitch": 57, "duration": 80, "velocity": 103}, {"time": 65762, "pitch": 60, "duration": 110, "velocity": 125}, {"time": 66002, "pitch": 60, "duration": 109, "velocity": 112}, {"time": 66161, "pitch": 59, "duration": 130, "velocity": 106}, {"time": 66401, "pitch": 59, "duration": 69, "velocity": 125}, {"time": 66480, "pitch": 57, "duration": 369, "velocity": 106}, {"time": 66959, "pitch": 55, "duration": 479, "velocity": 118}, {"time": 67438, "pitch": 57, "duration": 139, "velocity": 97}, {"time": 124319, "pitch": 57, "duration": 139, "velocity": 108}, {"time": 124478, "pitch": 55, "duration": 60, "velocity": 95}, {"time": 124558, "pitch": 52, "duration": 140, "velocity": 111}, {"time": 124717, "pitch": 55, "duration": 283, "velocity": 101}, {"time": 125040, "pitch": 57, "duration": 71, "velocity": 115}, {"time": 126959, "pitch": 55, "duration": 139, "velocity": 104}, {"time": 127118, "pitch": 52, "duration": 80, "velocity": 103}, {"time": 127198, "pitch": 59, "duration": 379, "velocity": 109}, {"time": 127597, "pitch": 59, "duration": 100, "velocity": 116}, {"time": 127839, "pitch": 60, "duration": 51, "velocity": 111}, {"time": 127920, "pitch": 62, "duration": 462, "velocity": 115}, {"time": 128402, "pitch": 59, "duration": 499, "velocity": 101}, {"time": 132000, "pitch": 57, "duration": 140, "velocity": 108}, {"time": 132159, "pitch": 55, "duration": 60, "velocity": 95}, {"time": 132239, "pitch": 52, "duration": 140, "velocity": 111}, {"time": 132399, "pitch": 55, "duration": 279, "velocity": 101}, {"time": 132718, "pitch": 57, "duration": 70, "velocity": 115}, {"time": 160803, "pitch": 57, "duration": 160, "velocity": 113}, {"time": 160963, "pitch": 55, "duration": 79, "velocity": 98}, {"time": 161042, "pitch": 52, "duration": 140, "velocity": 97}, {"time": 161202, "pitch": 55, "duration": 319, "velocity": 101}, {"time": 161521, "pitch": 57, "duration": 70, "velocity": 115}, {"time": 163440, "pitch": 55, "duration": 141, "velocity": 104}, {"time": 163602, "pitch": 57, "duration": 82, "velocity": 103}, {"time": 163683, "pitch": 60, "duration": 109, "velocity": 125}, {"time": 163922, "pitch": 60, "duration": 110, "velocity": 112}, {"time": 164082, "pitch": 59, "duration": 129, "velocity": 106}, {"time": 164321, "pitch": 59, "duration": 70, "velocity": 125}, {"time": 164401, "pitch": 57, "duration": 369, "velocity": 106}, {"time": 164879, "pitch": 55, "duration": 479, "velocity": 118}, {"time": 165358, "pitch": 57, "duration": 140, "velocity": 97}, {"time": 168477, "pitch": 57, "duration": 162, "velocity": 113}, {"time": 168639, "pitch": 55, "duration": 81, "velocity": 98}, {"time": 168720, "pitch": 52, "duration": 142, "velocity": 97}, {"time": 168882, "pitch": 55, "duration": 320, "velocity": 101}, {"time": 169202, "pitch": 57, "duration": 70, "velocity": 115}, {"time": 171117, "pitch": 55, "duration": 140, "velocity": 104}, {"time": 171277, "pitch": 57, "duration": 80, "velocity": 103}, {"time": 171356, "pitch": 60, "duration": 112, "velocity": 125}, {"time": 171600, "pitch": 60, "duration": 111, "velocity": 112}, {"time": 171762, "pitch": 59, "duration": 131, "velocity": 106}, {"time": 172002, "pitch": 59, "duration": 70, "velocity": 125}, {"time": 172082, "pitch": 57, "duration": 369, "velocity": 106}, {"time": 172561, "pitch": 55, "duration": 478, "velocity": 118}, {"time": 173039, "pitch": 57, "duration": 140, "velocity": 97}, {"time": 176158, "pitch": 57, "duration": 160, "velocity": 113}, {"time": 176318, "pitch": 55, "duration": 80, "velocity": 98}, {"time": 176398, "pitch": 52, "duration": 139, "velocity": 97}, {"time": 176557, "pitch": 55, "duration": 323, "velocity": 101}, {"time": 176880, "pitch": 57, "duration": 71, "velocity": 115}, {"time": 178798, "pitch": 55, "duration": 140, "velocity": 104}, {"time": 178958, "pitch": 57, "duration": 81, "velocity": 103}, {"time": 179038, "pitch": 60, "duration": 110, "velocity": 125}, {"time": 179277, "pitch": 60, "duration": 110, "velocity": 112}, {"time": 179437, "pitch": 59, "duration": 129, "velocity": 106}, {"time": 179676, "pitch": 59, "duration": 70, "velocity": 125}, {"time": 179756, "pitch": 57, "duration": 369, "velocity": 106}, {"time": 180235, "pitch": 55, "duration": 478, "velocity": 118}, {"time": 180713, "pitch": 57, "duration": 140, "velocity": 97}, {"time": 23519, "pitch": 69, "duration": 965, "velocity": 112}, {"time": 23519, "pitch": 72, "duration": 965, "velocity": 118}, {"time": 23519, "pitch": 76, "duration": 965, "velocity": 122}, {"time": 31200, "pitch": 69, "duration": 957, "velocity": 112}, {"time": 31200, "pitch": 72, "duration": 957, "velocity": 118}, {"time": 31200, "pitch": 76, "duration": 957, "velocity": 122}, {"time": 83040, "pitch": 69, "duration": 957, "velocity": 112}, {"time": 83040, "pitch": 72, "duration": 957, "velocity": 118}, {"time": 83040, "pitch": 76, "duration": 957, "velocity": 122}, {"time": 90721, "pitch": 69, "duration": 957, "velocity": 112}, {"time": 90721, "pitch": 72, "duration": 957, "velocity": 118}, {"time": 90721, "pitch": 76, "duration": 957, "velocity": 122}, {"time": 38403, "pitch": 60, "duration": 80, "velocity": 106}, {"time": 38642, "pitch": 40, "duration": 70, "velocity": 102}, {"time": 97916, "pitch": 60, "duration": 81, "velocity": 106}, {"time": 98159, "pitch": 40, "duration": 71, "velocity": 102}, {"time": 119517, "pitch": 69, "duration": 192, "velocity": 122}, {"time": 119517, "pitch": 81, "duration": 182, "velocity": 127}, {"time": 119760, "pitch": 68, "duration": 162, "velocity": 127}, {"time": 119760, "pitch": 80, "duration": 162, "velocity": 127}, {"time": 120003, "pitch": 67, "duration": 170, "velocity": 127}, {"time": 120003, "pitch": 79, "duration": 179, "velocity": 127}, {"time": 120242, "pitch": 66, "duration": 40, "velocity": 127}, {"time": 120242, "pitch": 78, "duration": 40, "velocity": 127}, {"time": 120282, "pitch": 65, "duration": 80, "velocity": 116}, {"time": 120282, "pitch": 77, "duration": 70, "velocity": 110}, {"time": 135119, "pitch": 67, "duration": 60, "velocity": 110}, {"time": 135119, "pitch": 79, "duration": 60, "velocity": 110}, {"time": 135597, "pitch": 67, "duration": 60, "velocity": 110}, {"time": 135597, "pitch": 79, "duration": 60, "velocity": 110}, {"time": 136080, "pitch": 52, "duration": 722, "velocity": 118}, {"time": 136080, "pitch": 64, "duration": 722, "velocity": 125}, {"time": 136802, "pitch": 57, "duration": 1914, "velocity": 89}, {"time": 138716, "pitch": 55, "duration": 1873, "velocity": 95}, {"time": 140639, "pitch": 55, "duration": 1922, "velocity": 97}, {"time": 142561, "pitch": 57, "duration": 1197, "velocity": 95}, {"time": 143758, "pitch": 59, "duration": 239, "velocity": 83}, {"time": 143997, "pitch": 60, "duration": 233, "velocity": 89}, {"time": 144240, "pitch": 62, "duration": 243, "velocity": 97}, {"time": 144483, "pitch": 64, "duration": 1426, "velocity": 114}, {"time": 145919, "pitch": 62, "duration": 229, "velocity": 106}, {"time": 146158, "pitch": 60, "duration": 220, "velocity": 89}, {"time": 146398, "pitch": 59, "duration": 965, "velocity": 89}, {"time": 147363, "pitch": 55, "duration": 957, "velocity": 71}, {"time": 148320, "pitch": 52, "duration": 957, "velocity": 106}, {"time": 149277, "pitch": 55, "duration": 965, "velocity": 91}, {"time": 150242, "pitch": 57, "duration": 1845, "velocity": 89}]}]}