{"metadata": {"schema_version": "0.1", "title": "RWC-MDB-P-2001 No. 69: Gin no sora / Hiromi Yoshii", "copyright": "RWC Music Database. Copyright (C) 2001 Real World Computing Partnership (contact: Masataka GOTO <m.goto@aist.go.jp>)", "source_filename": "RM-P069.SMF_SYNC.MID", "source_format": "midi"}, "resolution": 480, "tempos": [{"time": 0, "qpm": 58.25242718446602}, {"time": 480, "qpm": 61.855670103092784}, {"time": 1920, "qpm": 62.5}, {"time": 2400, "qpm": 61.855670103092784}, {"time": 3840, "qpm": 62.5}, {"time": 4320, "qpm": 61.855670103092784}, {"time": 6240, "qpm": 62.5}, {"time": 6720, "qpm": 61.855670103092784}, {"time": 8160, "qpm": 62.5}, {"time": 8640, "qpm": 61.855670103092784}, {"time": 10560, "qpm": 62.5}, {"time": 11040, "qpm": 61.855670103092784}, {"time": 12480, "qpm": 62.5}, {"time": 12960, "qpm": 61.855670103092784}, {"time": 14400, "qpm": 62.5}, {"time": 14880, "qpm": 61.855670103092784}, {"time": 16800, "qpm": 62.5}, {"time": 17280, "qpm": 61.855670103092784}, {"time": 18720, "qpm": 62.5}, {"time": 19200, "qpm": 61.855670103092784}, {"time": 21120, "qpm": 62.5}, {"time": 21600, "qpm": 61.855670103092784}, {"time": 23040, "qpm": 62.5}, {"time": 23520, "qpm": 61.855670103092784}, {"time": 25440, "qpm": 62.5}, {"time": 25920, "qpm": 61.855670103092784}, {"time": 27360, "qpm": 62.5}, {"time": 27840, "qpm": 61.855670103092784}, {"time": 29280, "qpm": 62.5}, {"time": 29760, "qpm": 61.855670103092784}, {"time": 31680, "qpm": 62.5}, {"time": 32160, "qpm": 61.855670103092784}, {"time": 33600, "qpm": 62.5}, {"time": 34080, "qpm": 61.855670103092784}, {"time": 36000, "qpm": 62.5}, {"time": 36480, "qpm": 61.855670103092784}, {"time": 37920, "qpm": 62.5}, {"time": 38400, "qpm": 61.855670103092784}, {"time": 39840, "qpm": 62.5}, {"time": 40320, "qpm": 61.855670103092784}, {"time": 42240, "qpm": 62.5}, {"time": 42720, "qpm": 61.855670103092784}, {"time": 44640, "qpm": 62.5}, {"time": 45120, "qpm": 61.855670103092784}, {"time": 47040, "qpm": 62.5}, {"time": 47520, "qpm": 61.855670103092784}, {"time": 48960, "qpm": 62.5}, {"time": 49440, "qpm": 61.855670103092784}, {"time": 50880, "qpm": 62.5}, {"time": 51360, "qpm": 61.855670103092784}, {"time": 52800, "qpm": 62.5}, {"time": 53280, "qpm": 61.855670103092784}, {"time": 55200, "qpm": 62.5}, {"time": 55680, "qpm": 61.855670103092784}, {"time": 57120, "qpm": 62.5}, {"time": 57600, "qpm": 61.855670103092784}, {"time": 59040, "qpm": 62.5}, {"time": 59520, "qpm": 61.855670103092784}, {"time": 61440, "qpm": 62.5}, {"time": 61920, "qpm": 61.855670103092784}, {"time": 63840, "qpm": 62.5}, {"time": 64320, "qpm": 61.855670103092784}, {"time": 65760, "qpm": 62.5}, {"time": 66240, "qpm": 61.855670103092784}, {"time": 67680, "qpm": 62.5}, {"time": 68160, "qpm": 61.855670103092784}, {"time": 69600, "qpm": 62.5}, {"time": 70080, "qpm": 61.855670103092784}, {"time": 71520, "qpm": 62.5}, {"time": 72000, "qpm": 61.855670103092784}, {"time": 73920, "qpm": 62.5}, {"time": 74400, "qpm": 61.855670103092784}, {"time": 76320, "qpm": 62.5}, {"time": 76800, "qpm": 61.855670103092784}, {"time": 78240, "qpm": 62.5}, {"time": 78720, "qpm": 61.855670103092784}, {"time": 80640, "qpm": 62.5}, {"time": 81120, "qpm": 61.855670103092784}, {"time": 82560, "qpm": 62.5}, {"time": 83040, "qpm": 61.855670103092784}, {"time": 84960, "qpm": 62.5}, {"time": 85440, "qpm": 61.855670103092784}, {"time": 86880, "qpm": 62.5}, {"time": 87360, "qpm": 61.855670103092784}, {"time": 88800, "qpm": 62.5}, {"time": 89280, "qpm": 61.855670103092784}, {"time": 91200, "qpm": 62.5}, {"time": 91680, "qpm": 61.855670103092784}, {"time": 93120, "qpm": 62.5}, {"time": 93600, "qpm": 61.855670103092784}, {"time": 95520, "qpm": 62.5}, {"time": 96000, "qpm": 61.855670103092784}, {"time": 97440, "qpm": 62.5}, {"time": 97920, "qpm": 61.855670103092784}, {"time": 99360, "qpm": 62.5}, {"time": 99840, "qpm": 61.855670103092784}, {"time": 101280, "qpm": 62.5}, {"time": 101760, "qpm": 61.855670103092784}, {"time": 103680, "qpm": 62.5}, {"time": 104160, "qpm": 61.855670103092784}, {"time": 106080, "qpm": 62.5}, {"time": 106560, "qpm": 61.855670103092784}, {"time": 108000, "qpm": 62.5}, {"time": 108480, "qpm": 61.855670103092784}, {"time": 110400, "qpm": 62.5}, {"time": 110880, "qpm": 61.855670103092784}, {"time": 112320, "qpm": 62.5}, {"time": 112800, "qpm": 61.855670103092784}, {"time": 114240, "qpm": 62.5}, {"time": 114720, "qpm": 61.855670103092784}, {"time": 116640, "qpm": 62.5}, {"time": 117120, "qpm": 61.855670103092784}, {"time": 118560, "qpm": 62.5}, {"time": 119040, "qpm": 61.855670103092784}, {"time": 120480, "qpm": 62.5}, {"time": 120960, "qpm": 61.855670103092784}, {"time": 122880, "qpm": 62.5}, {"time": 123360, "qpm": 61.855670103092784}, {"time": 125280, "qpm": 62.5}, {"time": 125760, "qpm": 61.855670103092784}, {"time": 127200, "qpm": 62.5}, {"time": 127680, "qpm": 61.855670103092784}, {"time": 129120, "qpm": 62.5}, {"time": 129600, "qpm": 61.855670103092784}, {"time": 131520, "qpm": 62.5}, {"time": 132000, "qpm": 61.855670103092784}, {"time": 133920, "qpm": 62.5}, {"time": 134400, "qpm": 61.855670103092784}, {"time": 135840, "qpm": 62.5}, {"time": 136320, "qpm": 61.855670103092784}, {"time": 138240, "qpm": 62.5}, {"time": 138720, "qpm": 61.855670103092784}, {"time": 140160, "qpm": 62.5}, {"time": 140640, "qpm": 61.855670103092784}, {"time": 142560, "qpm": 62.5}, {"time": 143040, "qpm": 61.855670103092784}, {"time": 144480, "qpm": 62.5}, {"time": 144960, "qpm": 61.855670103092784}, {"time": 146400, "qpm": 62.5}, {"time": 146880, "qpm": 61.855670103092784}, {"time": 148800, "qpm": 62.5}, {"time": 149280, "qpm": 61.855670103092784}, {"time": 150240, "qpm": 62.5}, {"time": 150720, "qpm": 61.855670103092784}, {"time": 152160, "qpm": 62.5}, {"time": 152640, "qpm": 61.855670103092784}, {"time": 155040, "qpm": 62.5}, {"time": 155520, "qpm": 61.855670103092784}, {"time": 156960, "qpm": 62.5}, {"time": 157440, "qpm": 61.855670103092784}, {"time": 158880, "qpm": 62.5}, {"time": 159360, "qpm": 61.855670103092784}, {"time": 160800, "qpm": 62.5}, {"time": 161280, "qpm": 61.855670103092784}, {"time": 163200, "qpm": 62.5}, {"time": 163680, "qpm": 61.855670103092784}, {"time": 165600, "qpm": 62.5}, {"time": 166080, "qpm": 61.855670103092784}, {"time": 167040, "qpm": 62.5}, {"time": 167520, "qpm": 61.855670103092784}, {"time": 169920, "qpm": 62.5}, {"time": 170400, "qpm": 61.855670103092784}, {"time": 171840, "qpm": 62.5}, {"time": 172320, "qpm": 40.0}, {"time": 173280, "qpm": 61.855670103092784}, {"time": 174720, "qpm": 62.5}, {"time": 175200, "qpm": 61.855670103092784}], "key_signatures": [{"time": 0, "root": 10, "mode": "major"}], "time_signatures": [{"time": 0, "numerator": 1, "denominator": 4}, {"time": 480, "numerator": 4, "denominator": 4}], "tracks": [{"program": 0, "is_drum": false, "name": "Piano", "notes": [{"time": 34558, "pitch": 56, "duration": 484, "velocity": 100}, {"time": 35042, "pitch": 51, "duration": 957, "velocity": 104}, {"time": 35999, "pitch": 50, "duration": 963, "velocity": 103}, {"time": 36962, "pitch": 48, "duration": 958, "velocity": 114}, {"time": 37920, "pitch": 46, "duration": 912, "velocity": 112}, {"time": 38882, "pitch": 45, "duration": 1916, "velocity": 115}, {"time": 40798, "pitch": 50, "duration": 1870, "velocity": 103}, {"time": 122879, "pitch": 56, "duration": 479, "velocity": 100}, {"time": 123358, "pitch": 51, "duration": 962, "velocity": 104}, {"time": 124320, "pitch": 50, "duration": 958, "velocity": 103}, {"time": 125278, "pitch": 48, "duration": 963, "velocity": 114}, {"time": 126241, "pitch": 46, "duration": 908, "velocity": 112}, {"time": 127198, "pitch": 45, "duration": 1921, "velocity": 115}, {"time": 129119, "pitch": 50, "duration": 1870, "velocity": 103}, {"time": 163321, "pitch": 48, "duration": 100, "velocity": 86}, {"time": 163441, "pitch": 50, "duration": 109, "velocity": 92}, {"time": 163560, "pitch": 51, "duration": 90, "velocity": 91}, {"time": 163680, "pitch": 53, "duration": 339, "velocity": 97}, {"time": 164039, "pitch": 53, "duration": 300, "velocity": 98}, {"time": 164398, "pitch": 53, "duration": 100, "velocity": 94}, {"time": 164398, "pitch": 60, "duration": 100, "velocity": 100}, {"time": 164398, "pitch": 65, "duration": 100, "velocity": 127}, {"time": 164518, "pitch": 53, "duration": 60, "velocity": 95}, {"time": 164518, "pitch": 60, "duration": 60, "velocity": 100}, {"time": 164518, "pitch": 65, "duration": 60, "velocity": 125}, {"time": 8162, "pitch": 34, "duration": 708, "velocity": 100}, {"time": 8880, "pitch": 31, "duration": 229, "velocity": 100}, {"time": 9119, "pitch": 36, "duration": 685, "velocity": 100}, {"time": 9840, "pitch": 31, "duration": 230, "velocity": 100}, {"time": 10082, "pitch": 36, "duration": 455, "velocity": 100}, {"time": 10561, "pitch": 29, "duration": 455, "velocity": 100}, {"time": 11040, "pitch": 34, "duration": 684, "velocity": 100}, {"time": 11761, "pitch": 34, "duration": 114, "velocity": 100}, {"time": 11881, "pitch": 36, "duration": 115, "velocity": 100}, {"time": 12002, "pitch": 38, "duration": 683, "velocity": 100}, {"time": 12721, "pitch": 38, "duration": 227, "velocity": 100}, {"time": 12960, "pitch": 31, "duration": 682, "velocity": 100}, {"time": 13678, "pitch": 31, "duration": 228, "velocity": 100}, {"time": 13918, "pitch": 29, "duration": 459, "velocity": 100}, {"time": 14402, "pitch": 29, "duration": 455, "velocity": 100}, {"time": 14880, "pitch": 41, "duration": 455, "velocity": 100}, {"time": 15359, "pitch": 39, "duration": 455, "velocity": 100}, {"time": 15838, "pitch": 38, "duration": 460, "velocity": 100}, {"time": 16322, "pitch": 32, "duration": 455, "velocity": 100}, {"time": 16801, "pitch": 31, "duration": 455, "velocity": 100}, {"time": 17280, "pitch": 35, "duration": 455, "velocity": 100}, {"time": 17759, "pitch": 36, "duration": 687, "velocity": 100}, {"time": 18482, "pitch": 36, "duration": 227, "velocity": 100}, {"time": 18721, "pitch": 29, "duration": 455, "velocity": 100}, {"time": 19200, "pitch": 40, "duration": 455, "velocity": 100}, {"time": 19679, "pitch": 39, "duration": 684, "velocity": 100}, {"time": 20400, "pitch": 39, "duration": 229, "velocity": 100}, {"time": 20642, "pitch": 36, "duration": 454, "velocity": 100}, {"time": 21120, "pitch": 36, "duration": 455, "velocity": 100}, {"time": 21599, "pitch": 41, "duration": 685, "velocity": 100}, {"time": 22320, "pitch": 36, "duration": 230, "velocity": 100}, {"time": 22562, "pitch": 41, "duration": 455, "velocity": 100}, {"time": 23041, "pitch": 29, "duration": 455, "velocity": 100}, {"time": 23520, "pitch": 38, "duration": 454, "velocity": 100}, {"time": 23998, "pitch": 31, "duration": 460, "velocity": 100}, {"time": 24482, "pitch": 36, "duration": 683, "velocity": 100}, {"time": 25200, "pitch": 36, "duration": 228, "velocity": 100}, {"time": 25440, "pitch": 36, "duration": 455, "velocity": 100}, {"time": 25919, "pitch": 29, "duration": 455, "velocity": 100}, {"time": 26398, "pitch": 34, "duration": 687, "velocity": 100}, {"time": 27121, "pitch": 34, "duration": 227, "velocity": 100}, {"time": 27360, "pitch": 39, "duration": 683, "velocity": 100}, {"time": 28079, "pitch": 39, "duration": 227, "velocity": 100}, {"time": 28318, "pitch": 39, "duration": 687, "velocity": 100}, {"time": 29041, "pitch": 39, "duration": 228, "velocity": 100}, {"time": 29281, "pitch": 38, "duration": 682, "velocity": 100}, {"time": 29999, "pitch": 38, "duration": 227, "velocity": 100}, {"time": 30238, "pitch": 31, "duration": 460, "velocity": 100}, {"time": 30722, "pitch": 41, "duration": 455, "velocity": 100}, {"time": 31201, "pitch": 40, "duration": 682, "velocity": 100}, {"time": 31919, "pitch": 40, "duration": 228, "velocity": 100}, {"time": 32159, "pitch": 39, "duration": 687, "velocity": 100}, {"time": 32882, "pitch": 39, "duration": 227, "velocity": 100}, {"time": 33121, "pitch": 38, "duration": 683, "velocity": 100}, {"time": 33840, "pitch": 38, "duration": 227, "velocity": 100}, {"time": 34079, "pitch": 31, "duration": 684, "velocity": 100}, {"time": 34800, "pitch": 31, "duration": 201, "velocity": 100}, {"time": 35042, "pitch": 39, "duration": 339, "velocity": 105}, {"time": 35401, "pitch": 39, "duration": 289, "velocity": 102}, {"time": 35760, "pitch": 39, "duration": 219, "velocity": 107}, {"time": 35999, "pitch": 38, "duration": 671, "velocity": 94}, {"time": 36720, "pitch": 38, "duration": 222, "velocity": 94}, {"time": 36962, "pitch": 36, "duration": 319, "velocity": 94}, {"time": 37321, "pitch": 36, "duration": 309, "velocity": 86}, {"time": 37680, "pitch": 36, "duration": 190, "velocity": 94}, {"time": 37920, "pitch": 34, "duration": 710, "velocity": 107}, {"time": 38640, "pitch": 34, "duration": 242, "velocity": 107}, {"time": 38882, "pitch": 33, "duration": 349, "velocity": 94}, {"time": 39241, "pitch": 33, "duration": 270, "velocity": 94}, {"time": 39601, "pitch": 33, "duration": 349, "velocity": 105}, {"time": 39960, "pitch": 45, "duration": 329, "velocity": 96}, {"time": 40319, "pitch": 40, "duration": 199, "velocity": 94}, {"time": 40558, "pitch": 33, "duration": 210, "velocity": 95}, {"time": 40798, "pitch": 38, "duration": 322, "velocity": 112}, {"time": 41161, "pitch": 38, "duration": 210, "velocity": 104}, {"time": 41401, "pitch": 33, "duration": 70, "velocity": 97}, {"time": 41521, "pitch": 38, "duration": 110, "velocity": 110}, {"time": 41641, "pitch": 33, "duration": 109, "velocity": 81}, {"time": 41760, "pitch": 38, "duration": 419, "velocity": 101}, {"time": 42239, "pitch": 38, "duration": 220, "velocity": 100}, {"time": 42479, "pitch": 33, "duration": 209, "velocity": 71}, {"time": 42718, "pitch": 34, "duration": 333, "velocity": 107}, {"time": 43081, "pitch": 34, "duration": 60, "velocity": 107}, {"time": 43441, "pitch": 34, "duration": 349, "velocity": 107}, {"time": 43800, "pitch": 34, "duration": 40, "velocity": 107}, {"time": 43920, "pitch": 41, "duration": 120, "velocity": 94}, {"time": 44040, "pitch": 43, "duration": 60, "velocity": 80}, {"time": 44160, "pitch": 41, "duration": 89, "velocity": 105}, {"time": 44279, "pitch": 34, "duration": 80, "velocity": 105}, {"time": 44399, "pitch": 29, "duration": 100, "velocity": 89}, {"time": 44519, "pitch": 34, "duration": 89, "velocity": 91}, {"time": 44638, "pitch": 33, "duration": 283, "velocity": 108}, {"time": 45001, "pitch": 33, "duration": 41, "velocity": 94}, {"time": 45362, "pitch": 33, "duration": 618, "velocity": 105}, {"time": 46080, "pitch": 43, "duration": 110, "velocity": 92}, {"time": 46200, "pitch": 40, "duration": 69, "velocity": 89}, {"time": 46319, "pitch": 33, "duration": 230, "velocity": 90}, {"time": 46559, "pitch": 31, "duration": 329, "velocity": 103}, {"time": 46918, "pitch": 31, "duration": 70, "velocity": 97}, {"time": 47280, "pitch": 31, "duration": 221, "velocity": 99}, {"time": 47521, "pitch": 36, "duration": 539, "velocity": 105}, {"time": 48120, "pitch": 43, "duration": 110, "velocity": 97}, {"time": 48240, "pitch": 36, "duration": 99, "velocity": 96}, {"time": 48359, "pitch": 31, "duration": 90, "velocity": 97}, {"time": 48479, "pitch": 29, "duration": 329, "velocity": 103}, {"time": 48838, "pitch": 29, "duration": 40, "velocity": 109}, {"time": 49079, "pitch": 29, "duration": 81, "velocity": 56}, {"time": 49200, "pitch": 36, "duration": 222, "velocity": 104}, {"time": 49442, "pitch": 29, "duration": 449, "velocity": 102}, {"time": 49921, "pitch": 41, "duration": 229, "velocity": 100}, {"time": 50160, "pitch": 40, "duration": 229, "velocity": 97}, {"time": 50399, "pitch": 39, "duration": 320, "velocity": 103}, {"time": 50759, "pitch": 39, "duration": 39, "velocity": 102}, {"time": 50999, "pitch": 34, "duration": 71, "velocity": 83}, {"time": 51120, "pitch": 39, "duration": 362, "velocity": 104}, {"time": 51482, "pitch": 39, "duration": 50, "velocity": 94}, {"time": 51841, "pitch": 39, "duration": 229, "velocity": 103}, {"time": 52080, "pitch": 34, "duration": 230, "velocity": 97}, {"time": 52320, "pitch": 32, "duration": 349, "velocity": 106}, {"time": 52679, "pitch": 32, "duration": 50, "velocity": 98}, {"time": 52920, "pitch": 39, "duration": 100, "velocity": 97}, {"time": 53041, "pitch": 32, "duration": 341, "velocity": 105}, {"time": 53402, "pitch": 32, "duration": 349, "velocity": 94}, {"time": 53761, "pitch": 44, "duration": 190, "velocity": 105}, {"time": 54001, "pitch": 32, "duration": 239, "velocity": 92}, {"time": 54240, "pitch": 33, "duration": 329, "velocity": 105}, {"time": 54599, "pitch": 33, "duration": 70, "velocity": 86}, {"time": 54839, "pitch": 33, "duration": 80, "velocity": 99}, {"time": 54958, "pitch": 31, "duration": 180, "velocity": 79}, {"time": 55198, "pitch": 36, "duration": 443, "velocity": 104}, {"time": 55682, "pitch": 36, "duration": 449, "velocity": 102}, {"time": 56160, "pitch": 29, "duration": 340, "velocity": 108}, {"time": 56520, "pitch": 29, "duration": 79, "velocity": 107}, {"time": 56759, "pitch": 29, "duration": 70, "velocity": 61}, {"time": 56879, "pitch": 29, "duration": 431, "velocity": 101}, {"time": 57360, "pitch": 41, "duration": 71, "velocity": 100}, {"time": 57441, "pitch": 43, "duration": 60, "velocity": 85}, {"time": 57521, "pitch": 29, "duration": 300, "velocity": 71}, {"time": 57841, "pitch": 29, "duration": 230, "velocity": 97}, {"time": 58081, "pitch": 38, "duration": 455, "velocity": 100}, {"time": 58560, "pitch": 31, "duration": 455, "velocity": 100}, {"time": 59039, "pitch": 36, "duration": 687, "velocity": 100}, {"time": 59762, "pitch": 36, "duration": 227, "velocity": 100}, {"time": 60001, "pitch": 36, "duration": 455, "velocity": 100}, {"time": 60480, "pitch": 29, "duration": 455, "velocity": 100}, {"time": 60959, "pitch": 34, "duration": 684, "velocity": 100}, {"time": 61680, "pitch": 34, "duration": 229, "velocity": 100}, {"time": 61922, "pitch": 39, "duration": 682, "velocity": 100}, {"time": 62640, "pitch": 39, "duration": 227, "velocity": 100}, {"time": 62879, "pitch": 40, "duration": 685, "velocity": 100}, {"time": 63600, "pitch": 40, "duration": 230, "velocity": 100}, {"time": 63842, "pitch": 41, "duration": 682, "velocity": 100}, {"time": 64560, "pitch": 38, "duration": 228, "velocity": 100}, {"time": 64800, "pitch": 31, "duration": 454, "velocity": 100}, {"time": 65278, "pitch": 41, "duration": 460, "velocity": 100}, {"time": 65762, "pitch": 40, "duration": 683, "velocity": 100}, {"time": 66481, "pitch": 40, "duration": 227, "velocity": 100}, {"time": 66720, "pitch": 39, "duration": 682, "velocity": 100}, {"time": 67438, "pitch": 39, "duration": 228, "velocity": 100}, {"time": 67678, "pitch": 38, "duration": 687, "velocity": 100}, {"time": 68401, "pitch": 38, "duration": 227, "velocity": 100}, {"time": 68640, "pitch": 31, "duration": 683, "velocity": 100}, {"time": 69359, "pitch": 31, "duration": 199, "velocity": 100}, {"time": 69598, "pitch": 40, "duration": 343, "velocity": 105}, {"time": 69961, "pitch": 40, "duration": 340, "velocity": 102}, {"time": 70321, "pitch": 40, "duration": 220, "velocity": 107}, {"time": 70561, "pitch": 39, "duration": 668, "velocity": 94}, {"time": 71279, "pitch": 39, "duration": 219, "velocity": 94}, {"time": 71518, "pitch": 38, "duration": 323, "velocity": 94}, {"time": 71881, "pitch": 38, "duration": 311, "velocity": 86}, {"time": 72242, "pitch": 38, "duration": 189, "velocity": 94}, {"time": 72481, "pitch": 43, "duration": 708, "velocity": 94}, {"time": 73199, "pitch": 43, "duration": 240, "velocity": 90}, {"time": 73439, "pitch": 36, "duration": 342, "velocity": 100}, {"time": 73802, "pitch": 36, "duration": 310, "velocity": 93}, {"time": 74162, "pitch": 36, "duration": 90, "velocity": 96}, {"time": 74282, "pitch": 31, "duration": 99, "velocity": 97}, {"time": 74401, "pitch": 36, "duration": 559, "velocity": 100}, {"time": 75000, "pitch": 36, "duration": 90, "velocity": 97}, {"time": 75120, "pitch": 38, "duration": 89, "velocity": 94}, {"time": 75239, "pitch": 39, "duration": 100, "velocity": 97}, {"time": 75359, "pitch": 41, "duration": 349, "velocity": 102}, {"time": 75718, "pitch": 41, "duration": 321, "velocity": 97}, {"time": 76080, "pitch": 36, "duration": 232, "velocity": 96}, {"time": 76322, "pitch": 29, "duration": 937, "velocity": 100}, {"time": 77279, "pitch": 34, "duration": 359, "velocity": 104}, {"time": 77638, "pitch": 34, "duration": 312, "velocity": 94}, {"time": 78000, "pitch": 29, "duration": 242, "velocity": 89}, {"time": 78242, "pitch": 34, "duration": 698, "velocity": 100}, {"time": 78960, "pitch": 36, "duration": 110, "velocity": 92}, {"time": 79080, "pitch": 34, "duration": 90, "velocity": 97}, {"time": 79559, "pitch": 34, "duration": 10, "velocity": 95}, {"time": 79920, "pitch": 29, "duration": 222, "velocity": 83}, {"time": 80162, "pitch": 34, "duration": 938, "velocity": 97}, {"time": 81120, "pitch": 37, "duration": 329, "velocity": 107}, {"time": 81479, "pitch": 37, "duration": 60, "velocity": 107}, {"time": 81838, "pitch": 37, "duration": 351, "velocity": 107}, {"time": 82199, "pitch": 37, "duration": 40, "velocity": 107}, {"time": 82320, "pitch": 44, "duration": 121, "velocity": 94}, {"time": 82441, "pitch": 46, "duration": 60, "velocity": 80}, {"time": 82562, "pitch": 44, "duration": 89, "velocity": 105}, {"time": 82681, "pitch": 37, "duration": 80, "velocity": 105}, {"time": 82801, "pitch": 32, "duration": 100, "velocity": 89}, {"time": 82921, "pitch": 37, "duration": 89, "velocity": 91}, {"time": 83040, "pitch": 36, "duration": 280, "velocity": 108}, {"time": 83400, "pitch": 36, "duration": 39, "velocity": 94}, {"time": 83759, "pitch": 36, "duration": 622, "velocity": 105}, {"time": 84482, "pitch": 46, "duration": 110, "velocity": 92}, {"time": 84602, "pitch": 43, "duration": 69, "velocity": 89}, {"time": 84721, "pitch": 36, "duration": 230, "velocity": 90}, {"time": 84961, "pitch": 34, "duration": 329, "velocity": 103}, {"time": 85320, "pitch": 34, "duration": 70, "velocity": 97}, {"time": 85679, "pitch": 34, "duration": 219, "velocity": 99}, {"time": 85918, "pitch": 39, "duration": 544, "velocity": 105}, {"time": 86522, "pitch": 46, "duration": 110, "velocity": 97}, {"time": 86642, "pitch": 39, "duration": 99, "velocity": 96}, {"time": 86761, "pitch": 34, "duration": 90, "velocity": 97}, {"time": 86881, "pitch": 32, "duration": 329, "velocity": 103}, {"time": 87240, "pitch": 32, "duration": 40, "velocity": 109}, {"time": 87480, "pitch": 32, "duration": 79, "velocity": 56}, {"time": 87599, "pitch": 39, "duration": 220, "velocity": 104}, {"time": 87839, "pitch": 32, "duration": 449, "velocity": 102}, {"time": 88318, "pitch": 44, "duration": 231, "velocity": 100}, {"time": 88560, "pitch": 43, "duration": 231, "velocity": 97}, {"time": 88801, "pitch": 42, "duration": 320, "velocity": 103}, {"time": 89161, "pitch": 42, "duration": 39, "velocity": 102}, {"time": 89400, "pitch": 37, "duration": 70, "velocity": 83}, {"time": 89520, "pitch": 42, "duration": 359, "velocity": 104}, {"time": 89879, "pitch": 42, "duration": 50, "velocity": 94}, {"time": 90238, "pitch": 42, "duration": 232, "velocity": 103}, {"time": 90480, "pitch": 37, "duration": 232, "velocity": 97}, {"time": 90722, "pitch": 35, "duration": 349, "velocity": 106}, {"time": 91081, "pitch": 35, "duration": 50, "velocity": 98}, {"time": 91320, "pitch": 42, "duration": 100, "velocity": 97}, {"time": 91440, "pitch": 35, "duration": 339, "velocity": 105}, {"time": 91799, "pitch": 35, "duration": 349, "velocity": 94}, {"time": 92158, "pitch": 47, "duration": 192, "velocity": 105}, {"time": 92400, "pitch": 35, "duration": 242, "velocity": 92}, {"time": 92642, "pitch": 36, "duration": 329, "velocity": 105}, {"time": 93001, "pitch": 36, "duration": 70, "velocity": 86}, {"time": 93241, "pitch": 36, "duration": 79, "velocity": 99}, {"time": 93360, "pitch": 34, "duration": 180, "velocity": 79}, {"time": 93600, "pitch": 36, "duration": 439, "velocity": 104}, {"time": 94079, "pitch": 36, "duration": 449, "velocity": 102}, {"time": 94558, "pitch": 41, "duration": 342, "velocity": 108}, {"time": 94920, "pitch": 41, "duration": 81, "velocity": 107}, {"time": 95161, "pitch": 41, "duration": 70, "velocity": 61}, {"time": 95281, "pitch": 41, "duration": 429, "velocity": 101}, {"time": 95760, "pitch": 53, "duration": 69, "velocity": 100}, {"time": 95839, "pitch": 55, "duration": 60, "velocity": 85}, {"time": 95919, "pitch": 53, "duration": 299, "velocity": 71}, {"time": 96238, "pitch": 41, "duration": 230, "velocity": 97}, {"time": 96478, "pitch": 38, "duration": 459, "velocity": 100}, {"time": 96962, "pitch": 31, "duration": 455, "velocity": 100}, {"time": 97441, "pitch": 36, "duration": 682, "velocity": 100}, {"time": 98159, "pitch": 31, "duration": 227, "velocity": 100}, {"time": 98398, "pitch": 36, "duration": 460, "velocity": 100}, {"time": 98882, "pitch": 29, "duration": 455, "velocity": 100}, {"time": 99361, "pitch": 34, "duration": 682, "velocity": 100}, {"time": 100079, "pitch": 34, "duration": 114, "velocity": 100}, {"time": 100199, "pitch": 36, "duration": 114, "velocity": 100}, {"time": 100319, "pitch": 38, "duration": 687, "velocity": 100}, {"time": 101042, "pitch": 38, "duration": 227, "velocity": 100}, {"time": 101281, "pitch": 31, "duration": 683, "velocity": 100}, {"time": 101999, "pitch": 31, "duration": 228, "velocity": 100}, {"time": 102239, "pitch": 29, "duration": 455, "velocity": 100}, {"time": 102718, "pitch": 29, "duration": 459, "velocity": 100}, {"time": 103202, "pitch": 41, "duration": 454, "velocity": 100}, {"time": 103680, "pitch": 39, "duration": 455, "velocity": 100}, {"time": 104159, "pitch": 38, "duration": 455, "velocity": 100}, {"time": 104638, "pitch": 32, "duration": 460, "velocity": 100}, {"time": 105122, "pitch": 31, "duration": 455, "velocity": 100}, {"time": 105601, "pitch": 35, "duration": 455, "velocity": 100}, {"time": 106080, "pitch": 36, "duration": 684, "velocity": 100}, {"time": 106800, "pitch": 36, "duration": 230, "velocity": 100}, {"time": 107042, "pitch": 29, "duration": 455, "velocity": 100}, {"time": 107521, "pitch": 40, "duration": 455, "velocity": 100}, {"time": 108000, "pitch": 39, "duration": 682, "velocity": 100}, {"time": 108718, "pitch": 39, "duration": 228, "velocity": 100}, {"time": 108958, "pitch": 36, "duration": 459, "velocity": 100}, {"time": 109441, "pitch": 36, "duration": 455, "velocity": 100}, {"time": 109920, "pitch": 41, "duration": 683, "velocity": 100}, {"time": 110639, "pitch": 36, "duration": 227, "velocity": 100}, {"time": 110878, "pitch": 41, "duration": 460, "velocity": 100}, {"time": 111362, "pitch": 29, "duration": 455, "velocity": 100}, {"time": 111841, "pitch": 38, "duration": 455, "velocity": 100}, {"time": 112319, "pitch": 31, "duration": 455, "velocity": 100}, {"time": 112798, "pitch": 36, "duration": 688, "velocity": 100}, {"time": 113522, "pitch": 36, "duration": 227, "velocity": 100}, {"time": 113761, "pitch": 36, "duration": 455, "velocity": 100}, {"time": 114240, "pitch": 29, "duration": 455, "velocity": 100}, {"time": 114719, "pitch": 34, "duration": 684, "velocity": 100}, {"time": 115439, "pitch": 34, "duration": 230, "velocity": 100}, {"time": 115681, "pitch": 39, "duration": 683, "velocity": 100}, {"time": 116400, "pitch": 39, "duration": 227, "velocity": 100}, {"time": 116639, "pitch": 39, "duration": 684, "velocity": 100}, {"time": 117360, "pitch": 39, "duration": 230, "velocity": 100}, {"time": 117602, "pitch": 38, "duration": 682, "velocity": 100}, {"time": 118320, "pitch": 38, "duration": 227, "velocity": 100}, {"time": 118559, "pitch": 31, "duration": 455, "velocity": 100}, {"time": 119038, "pitch": 41, "duration": 460, "velocity": 100}, {"time": 119522, "pitch": 40, "duration": 682, "velocity": 100}, {"time": 120240, "pitch": 40, "duration": 228, "velocity": 100}, {"time": 120480, "pitch": 39, "duration": 684, "velocity": 100}, {"time": 121200, "pitch": 39, "duration": 230, "velocity": 100}, {"time": 121442, "pitch": 38, "duration": 683, "velocity": 100}, {"time": 122161, "pitch": 38, "duration": 227, "velocity": 100}, {"time": 122400, "pitch": 31, "duration": 682, "velocity": 100}, {"time": 123118, "pitch": 31, "duration": 200, "velocity": 100}, {"time": 123358, "pitch": 39, "duration": 342, "velocity": 105}, {"time": 123721, "pitch": 39, "duration": 290, "velocity": 102}, {"time": 124081, "pitch": 39, "duration": 219, "velocity": 107}, {"time": 124320, "pitch": 38, "duration": 669, "velocity": 94}, {"time": 125039, "pitch": 38, "duration": 219, "velocity": 94}, {"time": 125278, "pitch": 36, "duration": 323, "velocity": 94}, {"time": 125641, "pitch": 36, "duration": 310, "velocity": 86}, {"time": 126001, "pitch": 36, "duration": 190, "velocity": 94}, {"time": 126241, "pitch": 34, "duration": 708, "velocity": 107}, {"time": 126959, "pitch": 34, "duration": 239, "velocity": 107}, {"time": 127198, "pitch": 33, "duration": 353, "velocity": 94}, {"time": 127561, "pitch": 33, "duration": 271, "velocity": 94}, {"time": 127922, "pitch": 33, "duration": 349, "velocity": 105}, {"time": 128281, "pitch": 45, "duration": 329, "velocity": 96}, {"time": 128640, "pitch": 40, "duration": 199, "velocity": 94}, {"time": 128879, "pitch": 33, "duration": 210, "velocity": 95}, {"time": 129119, "pitch": 38, "duration": 319, "velocity": 112}, {"time": 129478, "pitch": 38, "duration": 210, "velocity": 104}, {"time": 129719, "pitch": 33, "duration": 70, "velocity": 97}, {"time": 129840, "pitch": 38, "duration": 110, "velocity": 110}, {"time": 129961, "pitch": 33, "duration": 110, "velocity": 81}, {"time": 130081, "pitch": 38, "duration": 419, "velocity": 101}, {"time": 130560, "pitch": 38, "duration": 220, "velocity": 100}, {"time": 130800, "pitch": 33, "duration": 209, "velocity": 71}, {"time": 131039, "pitch": 34, "duration": 329, "velocity": 107}, {"time": 131398, "pitch": 34, "duration": 60, "velocity": 107}, {"time": 131760, "pitch": 34, "duration": 352, "velocity": 107}, {"time": 132122, "pitch": 34, "duration": 39, "velocity": 107}, {"time": 132241, "pitch": 41, "duration": 120, "velocity": 94}, {"time": 132361, "pitch": 43, "duration": 60, "velocity": 80}, {"time": 132481, "pitch": 41, "duration": 89, "velocity": 105}, {"time": 132600, "pitch": 34, "duration": 80, "velocity": 105}, {"time": 132720, "pitch": 29, "duration": 100, "velocity": 89}, {"time": 132840, "pitch": 34, "duration": 90, "velocity": 91}, {"time": 132960, "pitch": 33, "duration": 279, "velocity": 108}, {"time": 133319, "pitch": 33, "duration": 40, "velocity": 94}, {"time": 133680, "pitch": 33, "duration": 621, "velocity": 105}, {"time": 134401, "pitch": 43, "duration": 110, "velocity": 92}, {"time": 134521, "pitch": 40, "duration": 70, "velocity": 89}, {"time": 134640, "pitch": 33, "duration": 230, "velocity": 90}, {"time": 134880, "pitch": 31, "duration": 329, "velocity": 103}, {"time": 135239, "pitch": 31, "duration": 70, "velocity": 97}, {"time": 135598, "pitch": 31, "duration": 220, "velocity": 99}, {"time": 135838, "pitch": 36, "duration": 543, "velocity": 105}, {"time": 136441, "pitch": 43, "duration": 110, "velocity": 97}, {"time": 136561, "pitch": 36, "duration": 100, "velocity": 96}, {"time": 136680, "pitch": 31, "duration": 90, "velocity": 97}, {"time": 136800, "pitch": 29, "duration": 329, "velocity": 103}, {"time": 137159, "pitch": 29, "duration": 40, "velocity": 109}, {"time": 137399, "pitch": 29, "duration": 80, "velocity": 56}, {"time": 137518, "pitch": 36, "duration": 220, "velocity": 104}, {"time": 137758, "pitch": 29, "duration": 453, "velocity": 102}, {"time": 138242, "pitch": 41, "duration": 229, "velocity": 100}, {"time": 138481, "pitch": 40, "duration": 230, "velocity": 97}, {"time": 138721, "pitch": 39, "duration": 319, "velocity": 103}, {"time": 139080, "pitch": 39, "duration": 40, "velocity": 102}, {"time": 139319, "pitch": 34, "duration": 70, "velocity": 83}, {"time": 139439, "pitch": 39, "duration": 360, "velocity": 104}, {"time": 139799, "pitch": 39, "duration": 51, "velocity": 94}, {"time": 140162, "pitch": 39, "duration": 229, "velocity": 103}, {"time": 140401, "pitch": 34, "duration": 230, "velocity": 97}, {"time": 140641, "pitch": 32, "duration": 349, "velocity": 106}, {"time": 141000, "pitch": 32, "duration": 50, "velocity": 98}, {"time": 141239, "pitch": 39, "duration": 100, "velocity": 97}, {"time": 141359, "pitch": 32, "duration": 340, "velocity": 105}, {"time": 141720, "pitch": 32, "duration": 352, "velocity": 94}, {"time": 142082, "pitch": 44, "duration": 190, "velocity": 105}, {"time": 142322, "pitch": 32, "duration": 239, "velocity": 92}, {"time": 142561, "pitch": 33, "duration": 329, "velocity": 105}, {"time": 142920, "pitch": 33, "duration": 70, "velocity": 86}, {"time": 143160, "pitch": 33, "duration": 80, "velocity": 99}, {"time": 143280, "pitch": 31, "duration": 179, "velocity": 79}, {"time": 143519, "pitch": 36, "duration": 439, "velocity": 104}, {"time": 143998, "pitch": 36, "duration": 453, "velocity": 102}, {"time": 144482, "pitch": 29, "duration": 339, "velocity": 108}, {"time": 144841, "pitch": 29, "duration": 80, "velocity": 107}, {"time": 145080, "pitch": 29, "duration": 70, "velocity": 61}, {"time": 145200, "pitch": 29, "duration": 429, "velocity": 101}, {"time": 145679, "pitch": 41, "duration": 70, "velocity": 100}, {"time": 145759, "pitch": 43, "duration": 59, "velocity": 85}, {"time": 145838, "pitch": 29, "duration": 302, "velocity": 71}, {"time": 146160, "pitch": 29, "duration": 232, "velocity": 97}, {"time": 146402, "pitch": 38, "duration": 455, "velocity": 100}, {"time": 146881, "pitch": 31, "duration": 455, "velocity": 100}, {"time": 147360, "pitch": 36, "duration": 684, "velocity": 100}, {"time": 148080, "pitch": 36, "duration": 230, "velocity": 100}, {"time": 148322, "pitch": 36, "duration": 455, "velocity": 100}, {"time": 148801, "pitch": 29, "duration": 455, "velocity": 100}, {"time": 149280, "pitch": 34, "duration": 682, "velocity": 100}, {"time": 149998, "pitch": 34, "duration": 228, "velocity": 100}, {"time": 150238, "pitch": 39, "duration": 687, "velocity": 100}, {"time": 150961, "pitch": 39, "duration": 227, "velocity": 100}, {"time": 151200, "pitch": 40, "duration": 683, "velocity": 100}, {"time": 151919, "pitch": 40, "duration": 227, "velocity": 100}, {"time": 152158, "pitch": 41, "duration": 687, "velocity": 100}, {"time": 152881, "pitch": 38, "duration": 228, "velocity": 100}, {"time": 153121, "pitch": 31, "duration": 455, "velocity": 100}, {"time": 153600, "pitch": 41, "duration": 454, "velocity": 100}, {"time": 154078, "pitch": 40, "duration": 688, "velocity": 100}, {"time": 154802, "pitch": 40, "duration": 227, "velocity": 100}, {"time": 155041, "pitch": 39, "duration": 682, "velocity": 100}, {"time": 155759, "pitch": 39, "duration": 228, "velocity": 100}, {"time": 155999, "pitch": 38, "duration": 684, "velocity": 100}, {"time": 156719, "pitch": 38, "duration": 230, "velocity": 100}, {"time": 156961, "pitch": 31, "duration": 683, "velocity": 100}, {"time": 157680, "pitch": 31, "duration": 199, "velocity": 100}, {"time": 157919, "pitch": 40, "duration": 339, "velocity": 105}, {"time": 158278, "pitch": 40, "duration": 342, "velocity": 102}, {"time": 158640, "pitch": 40, "duration": 222, "velocity": 107}, {"time": 158882, "pitch": 39, "duration": 668, "velocity": 94}, {"time": 159600, "pitch": 39, "duration": 219, "velocity": 94}, {"time": 159839, "pitch": 38, "duration": 320, "velocity": 94}, {"time": 160199, "pitch": 38, "duration": 311, "velocity": 86}, {"time": 160560, "pitch": 38, "duration": 192, "velocity": 94}, {"time": 160802, "pitch": 43, "duration": 708, "velocity": 94}, {"time": 161520, "pitch": 43, "duration": 240, "velocity": 90}, {"time": 161760, "pitch": 36, "duration": 339, "velocity": 100}, {"time": 162119, "pitch": 36, "duration": 311, "velocity": 93}, {"time": 162481, "pitch": 36, "duration": 90, "velocity": 96}, {"time": 162601, "pitch": 31, "duration": 101, "velocity": 97}, {"time": 162722, "pitch": 36, "duration": 559, "velocity": 100}, {"time": 163321, "pitch": 36, "duration": 90, "velocity": 97}, {"time": 163441, "pitch": 38, "duration": 89, "velocity": 94}, {"time": 163560, "pitch": 39, "duration": 100, "velocity": 97}, {"time": 163680, "pitch": 41, "duration": 349, "velocity": 102}, {"time": 164039, "pitch": 41, "duration": 319, "velocity": 97}, {"time": 164398, "pitch": 41, "duration": 80, "velocity": 96}, {"time": 164518, "pitch": 41, "duration": 80, "velocity": 100}, {"time": 81120, "pitch": 60, "duration": 110, "velocity": 105}, {"time": 81240, "pitch": 61, "duration": 100, "velocity": 100}, {"time": 81359, "pitch": 65, "duration": 120, "velocity": 94}, {"time": 81469, "pitch": 68, "duration": 100, "velocity": 111}, {"time": 81599, "pitch": 72, "duration": 379, "velocity": 114}, {"time": 81938, "pitch": 71, "duration": 50, "velocity": 86}, {"time": 81978, "pitch": 70, "duration": 50, "velocity": 89}, {"time": 82028, "pitch": 69, "duration": 50, "velocity": 89}, {"time": 82088, "pitch": 68, "duration": 211, "velocity": 120}, {"time": 82310, "pitch": 72, "duration": 100, "velocity": 101}, {"time": 82431, "pitch": 75, "duration": 110, "velocity": 114}, {"time": 82681, "pitch": 77, "duration": 90, "velocity": 125}, {"time": 82801, "pitch": 79, "duration": 90, "velocity": 111}, {"time": 82911, "pitch": 80, "duration": 99, "velocity": 127}, {"time": 83020, "pitch": 82, "duration": 200, "velocity": 127}, {"time": 83250, "pitch": 82, "duration": 130, "velocity": 122}, {"time": 83390, "pitch": 79, "duration": 149, "velocity": 100}, {"time": 83629, "pitch": 79, "duration": 100, "velocity": 103}, {"time": 83759, "pitch": 75, "duration": 883, "velocity": 118}, {"time": 84711, "pitch": 77, "duration": 200, "velocity": 121}, {"time": 84961, "pitch": 80, "duration": 149, "velocity": 122}, {"time": 85090, "pitch": 77, "duration": 70, "velocity": 83}, {"time": 85200, "pitch": 77, "duration": 100, "velocity": 114}, {"time": 85330, "pitch": 75, "duration": 219, "velocity": 127}, {"time": 85579, "pitch": 77, "duration": 110, "velocity": 106}, {"time": 86039, "pitch": 70, "duration": 101, "velocity": 127}, {"time": 86160, "pitch": 72, "duration": 111, "velocity": 89}, {"time": 86281, "pitch": 73, "duration": 91, "velocity": 125}, {"time": 86392, "pitch": 75, "duration": 100, "velocity": 127}, {"time": 86522, "pitch": 77, "duration": 90, "velocity": 106}, {"time": 86642, "pitch": 79, "duration": 79, "velocity": 112}, {"time": 86751, "pitch": 80, "duration": 110, "velocity": 127}, {"time": 86881, "pitch": 79, "duration": 190, "velocity": 106}, {"time": 87121, "pitch": 79, "duration": 99, "velocity": 114}, {"time": 87250, "pitch": 75, "duration": 200, "velocity": 127}, {"time": 87490, "pitch": 70, "duration": 99, "velocity": 127}, {"time": 87609, "pitch": 72, "duration": 1033, "velocity": 125}, {"time": 88721, "pitch": 61, "duration": 60, "velocity": 106}, {"time": 88761, "pitch": 63, "duration": 40, "velocity": 122}, {"time": 88801, "pitch": 65, "duration": 190, "velocity": 97}, {"time": 89041, "pitch": 65, "duration": 100, "velocity": 122}, {"time": 89161, "pitch": 68, "duration": 279, "velocity": 127}, {"time": 89440, "pitch": 67, "duration": 40, "velocity": 106}, {"time": 89480, "pitch": 66, "duration": 40, "velocity": 122}, {"time": 89520, "pitch": 65, "duration": 119, "velocity": 125}, {"time": 89639, "pitch": 66, "duration": 120, "velocity": 127}, {"time": 89759, "pitch": 68, "duration": 120, "velocity": 127}, {"time": 89879, "pitch": 70, "duration": 120, "velocity": 112}, {"time": 89999, "pitch": 68, "duration": 119, "velocity": 118}, {"time": 90118, "pitch": 70, "duration": 120, "velocity": 112}, {"time": 90238, "pitch": 72, "duration": 121, "velocity": 114}, {"time": 90359, "pitch": 73, "duration": 121, "velocity": 127}, {"time": 90480, "pitch": 75, "duration": 121, "velocity": 127}, {"time": 90601, "pitch": 77, "duration": 121, "velocity": 125}, {"time": 90722, "pitch": 78, "duration": 50, "velocity": 127}, {"time": 90782, "pitch": 80, "duration": 119, "velocity": 97}, {"time": 90841, "pitch": 78, "duration": 230, "velocity": 114}, {"time": 91081, "pitch": 75, "duration": 60, "velocity": 110}, {"time": 91141, "pitch": 71, "duration": 60, "velocity": 105}, {"time": 91201, "pitch": 70, "duration": 119, "velocity": 118}, {"time": 91320, "pitch": 66, "duration": 120, "velocity": 110}, {"time": 91440, "pitch": 63, "duration": 120, "velocity": 105}, {"time": 91560, "pitch": 59, "duration": 119, "velocity": 111}, {"time": 91679, "pitch": 58, "duration": 953, "velocity": 109}, {"time": 92642, "pitch": 60, "duration": 60, "velocity": 106}, {"time": 92702, "pitch": 62, "duration": 60, "velocity": 97}, {"time": 92762, "pitch": 63, "duration": 60, "velocity": 106}, {"time": 92822, "pitch": 67, "duration": 60, "velocity": 89}, {"time": 92882, "pitch": 70, "duration": 59, "velocity": 106}, {"time": 92941, "pitch": 74, "duration": 60, "velocity": 106}, {"time": 93001, "pitch": 75, "duration": 60, "velocity": 114}, {"time": 93061, "pitch": 79, "duration": 60, "velocity": 106}, {"time": 93121, "pitch": 82, "duration": 120, "velocity": 114}, {"time": 93241, "pitch": 79, "duration": 60, "velocity": 106}, {"time": 93360, "pitch": 79, "duration": 100, "velocity": 97}, {"time": 93480, "pitch": 75, "duration": 90, "velocity": 122}, {"time": 93600, "pitch": 75, "duration": 110, "velocity": 118}, {"time": 93720, "pitch": 79, "duration": 99, "velocity": 97}, {"time": 93839, "pitch": 86, "duration": 469, "velocity": 122}, {"time": 94318, "pitch": 84, "duration": 441, "velocity": 114}, {"time": 94799, "pitch": 84, "duration": 482, "velocity": 112}, {"time": 95281, "pitch": 77, "duration": 1177, "velocity": 106}, {"time": 8162, "pitch": 65, "duration": 718, "velocity": 90}, {"time": 8880, "pitch": 67, "duration": 239, "velocity": 80}, {"time": 9119, "pitch": 63, "duration": 479, "velocity": 80}, {"time": 9840, "pitch": 55, "duration": 111, "velocity": 109}, {"time": 9961, "pitch": 63, "duration": 839, "velocity": 95}, {"time": 10800, "pitch": 65, "duration": 110, "velocity": 81}, {"time": 10920, "pitch": 62, "duration": 810, "velocity": 75}, {"time": 12002, "pitch": 62, "duration": 240, "velocity": 98}, {"time": 12242, "pitch": 61, "duration": 239, "velocity": 95}, {"time": 12481, "pitch": 62, "duration": 220, "velocity": 89}, {"time": 12721, "pitch": 67, "duration": 409, "velocity": 80}, {"time": 13200, "pitch": 55, "duration": 239, "velocity": 97}, {"time": 13439, "pitch": 57, "duration": 239, "velocity": 83}, {"time": 13678, "pitch": 58, "duration": 220, "velocity": 101}, {"time": 13918, "pitch": 62, "duration": 484, "velocity": 108}, {"time": 14402, "pitch": 60, "duration": 449, "velocity": 106}, {"time": 14880, "pitch": 62, "duration": 449, "velocity": 97}, {"time": 15359, "pitch": 63, "duration": 449, "velocity": 102}, {"time": 15838, "pitch": 65, "duration": 212, "velocity": 97}, {"time": 16080, "pitch": 65, "duration": 232, "velocity": 106}, {"time": 16322, "pitch": 63, "duration": 219, "velocity": 103}, {"time": 16561, "pitch": 65, "duration": 120, "velocity": 89}, {"time": 16681, "pitch": 62, "duration": 479, "velocity": 81}, {"time": 17639, "pitch": 55, "duration": 110, "velocity": 89}, {"time": 17759, "pitch": 63, "duration": 221, "velocity": 110}, {"time": 18000, "pitch": 63, "duration": 222, "velocity": 114}, {"time": 18242, "pitch": 62, "duration": 220, "velocity": 89}, {"time": 18482, "pitch": 63, "duration": 119, "velocity": 106}, {"time": 18601, "pitch": 60, "duration": 589, "velocity": 83}, {"time": 19679, "pitch": 70, "duration": 239, "velocity": 107}, {"time": 19918, "pitch": 67, "duration": 240, "velocity": 97}, {"time": 20158, "pitch": 69, "duration": 221, "velocity": 89}, {"time": 20400, "pitch": 70, "duration": 451, "velocity": 114}, {"time": 20881, "pitch": 67, "duration": 209, "velocity": 103}, {"time": 21120, "pitch": 67, "duration": 240, "velocity": 106}, {"time": 21360, "pitch": 60, "duration": 209, "velocity": 103}, {"time": 21599, "pitch": 65, "duration": 1352, "velocity": 106}, {"time": 23280, "pitch": 57, "duration": 100, "velocity": 89}, {"time": 23400, "pitch": 65, "duration": 830, "velocity": 97}, {"time": 24240, "pitch": 67, "duration": 232, "velocity": 97}, {"time": 24482, "pitch": 63, "duration": 459, "velocity": 80}, {"time": 25200, "pitch": 55, "duration": 110, "velocity": 97}, {"time": 25320, "pitch": 63, "duration": 838, "velocity": 89}, {"time": 26158, "pitch": 65, "duration": 120, "velocity": 97}, {"time": 26278, "pitch": 62, "duration": 583, "velocity": 83}, {"time": 27121, "pitch": 58, "duration": 239, "velocity": 112}, {"time": 27360, "pitch": 70, "duration": 240, "velocity": 111}, {"time": 27600, "pitch": 67, "duration": 229, "velocity": 97}, {"time": 27839, "pitch": 69, "duration": 240, "velocity": 97}, {"time": 28079, "pitch": 70, "duration": 481, "velocity": 112}, {"time": 28560, "pitch": 67, "duration": 242, "velocity": 106}, {"time": 28802, "pitch": 69, "duration": 209, "velocity": 97}, {"time": 29041, "pitch": 70, "duration": 240, "velocity": 106}, {"time": 29281, "pitch": 72, "duration": 588, "velocity": 103}, {"time": 29879, "pitch": 69, "duration": 110, "velocity": 89}, {"time": 29999, "pitch": 67, "duration": 120, "velocity": 89}, {"time": 30119, "pitch": 69, "duration": 109, "velocity": 81}, {"time": 30238, "pitch": 65, "duration": 544, "velocity": 89}, {"time": 30962, "pitch": 58, "duration": 209, "velocity": 125}, {"time": 31201, "pitch": 70, "duration": 239, "velocity": 122}, {"time": 31440, "pitch": 67, "duration": 220, "velocity": 94}, {"time": 31680, "pitch": 69, "duration": 239, "velocity": 106}, {"time": 31919, "pitch": 70, "duration": 482, "velocity": 95}, {"time": 32401, "pitch": 67, "duration": 241, "velocity": 89}, {"time": 32642, "pitch": 69, "duration": 230, "velocity": 89}, {"time": 32882, "pitch": 70, "duration": 239, "velocity": 89}, {"time": 33121, "pitch": 65, "duration": 1679, "velocity": 106}, {"time": 35042, "pitch": 67, "duration": 229, "velocity": 122}, {"time": 35281, "pitch": 63, "duration": 230, "velocity": 125}, {"time": 35520, "pitch": 65, "duration": 240, "velocity": 106}, {"time": 35760, "pitch": 67, "duration": 479, "velocity": 125}, {"time": 36239, "pitch": 65, "duration": 229, "velocity": 112}, {"time": 36478, "pitch": 67, "duration": 222, "velocity": 112}, {"time": 36720, "pitch": 69, "duration": 242, "velocity": 104}, {"time": 36962, "pitch": 70, "duration": 229, "velocity": 125}, {"time": 37201, "pitch": 67, "duration": 220, "velocity": 125}, {"time": 37441, "pitch": 69, "duration": 219, "velocity": 112}, {"time": 37680, "pitch": 70, "duration": 479, "velocity": 122}, {"time": 38159, "pitch": 69, "duration": 220, "velocity": 114}, {"time": 38399, "pitch": 70, "duration": 221, "velocity": 111}, {"time": 38640, "pitch": 72, "duration": 222, "velocity": 110}, {"time": 38882, "pitch": 74, "duration": 2878, "velocity": 114}, {"time": 42718, "pitch": 69, "duration": 232, "velocity": 106}, {"time": 42960, "pitch": 72, "duration": 920, "velocity": 125}, {"time": 43920, "pitch": 69, "duration": 230, "velocity": 106}, {"time": 44160, "pitch": 65, "duration": 159, "velocity": 122}, {"time": 44319, "pitch": 62, "duration": 160, "velocity": 97}, {"time": 44479, "pitch": 69, "duration": 149, "velocity": 103}, {"time": 44638, "pitch": 67, "duration": 1442, "velocity": 94}, {"time": 46559, "pitch": 69, "duration": 239, "velocity": 106}, {"time": 46798, "pitch": 72, "duration": 893, "velocity": 114}, {"time": 47761, "pitch": 62, "duration": 209, "velocity": 106}, {"time": 48000, "pitch": 62, "duration": 160, "velocity": 106}, {"time": 48160, "pitch": 65, "duration": 140, "velocity": 112}, {"time": 48319, "pitch": 67, "duration": 140, "velocity": 103}, {"time": 48479, "pitch": 69, "duration": 1442, "velocity": 90}, {"time": 50399, "pitch": 74, "duration": 210, "velocity": 111}, {"time": 50639, "pitch": 74, "duration": 883, "velocity": 95}, {"time": 51602, "pitch": 74, "duration": 239, "velocity": 97}, {"time": 51841, "pitch": 70, "duration": 160, "velocity": 112}, {"time": 52001, "pitch": 67, "duration": 159, "velocity": 114}, {"time": 52160, "pitch": 74, "duration": 160, "velocity": 97}, {"time": 52320, "pitch": 72, "duration": 1391, "velocity": 93}, {"time": 53761, "pitch": 75, "duration": 240, "velocity": 97}, {"time": 54001, "pitch": 74, "duration": 119, "velocity": 88}, {"time": 54120, "pitch": 73, "duration": 120, "velocity": 82}, {"time": 54240, "pitch": 72, "duration": 1521, "velocity": 95}, {"time": 55921, "pitch": 72, "duration": 120, "velocity": 112}, {"time": 56041, "pitch": 70, "duration": 119, "velocity": 107}, {"time": 56160, "pitch": 72, "duration": 1371, "velocity": 97}, {"time": 57961, "pitch": 57, "duration": 110, "velocity": 95}, {"time": 58081, "pitch": 65, "duration": 189, "velocity": 106}, {"time": 58320, "pitch": 65, "duration": 190, "velocity": 103}, {"time": 58560, "pitch": 65, "duration": 239, "velocity": 103}, {"time": 58799, "pitch": 67, "duration": 120, "velocity": 95}, {"time": 58919, "pitch": 63, "duration": 583, "velocity": 90}, {"time": 60001, "pitch": 63, "duration": 220, "velocity": 125}, {"time": 60241, "pitch": 63, "duration": 219, "velocity": 112}, {"time": 60480, "pitch": 63, "duration": 210, "velocity": 125}, {"time": 60719, "pitch": 65, "duration": 240, "velocity": 97}, {"time": 60959, "pitch": 62, "duration": 479, "velocity": 95}, {"time": 61922, "pitch": 70, "duration": 239, "velocity": 112}, {"time": 62161, "pitch": 67, "duration": 219, "velocity": 112}, {"time": 62400, "pitch": 69, "duration": 210, "velocity": 106}, {"time": 62640, "pitch": 70, "duration": 479, "velocity": 95}, {"time": 63119, "pitch": 67, "duration": 229, "velocity": 97}, {"time": 63358, "pitch": 69, "duration": 222, "velocity": 106}, {"time": 63600, "pitch": 70, "duration": 242, "velocity": 106}, {"time": 63842, "pitch": 72, "duration": 718, "velocity": 106}, {"time": 64560, "pitch": 69, "duration": 120, "velocity": 97}, {"time": 64680, "pitch": 67, "duration": 100, "velocity": 89}, {"time": 64800, "pitch": 65, "duration": 710, "velocity": 89}, {"time": 65762, "pitch": 70, "duration": 240, "velocity": 122}, {"time": 66002, "pitch": 67, "duration": 239, "velocity": 106}, {"time": 66241, "pitch": 69, "duration": 230, "velocity": 97}, {"time": 66481, "pitch": 70, "duration": 478, "velocity": 102}, {"time": 66959, "pitch": 67, "duration": 240, "velocity": 95}, {"time": 67199, "pitch": 69, "duration": 219, "velocity": 106}, {"time": 67438, "pitch": 70, "duration": 240, "velocity": 106}, {"time": 67678, "pitch": 65, "duration": 1441, "velocity": 97}, {"time": 69598, "pitch": 70, "duration": 232, "velocity": 110}, {"time": 69840, "pitch": 67, "duration": 222, "velocity": 99}, {"time": 70082, "pitch": 69, "duration": 229, "velocity": 106}, {"time": 70321, "pitch": 70, "duration": 479, "velocity": 113}, {"time": 70800, "pitch": 67, "duration": 229, "velocity": 103}, {"time": 71039, "pitch": 69, "duration": 210, "velocity": 106}, {"time": 71279, "pitch": 70, "duration": 239, "velocity": 109}, {"time": 71518, "pitch": 65, "duration": 724, "velocity": 106}, {"time": 72242, "pitch": 77, "duration": 219, "velocity": 105}, {"time": 72481, "pitch": 74, "duration": 479, "velocity": 97}, {"time": 73199, "pitch": 74, "duration": 220, "velocity": 97}, {"time": 73439, "pitch": 75, "duration": 1192, "velocity": 110}, {"time": 74880, "pitch": 75, "duration": 120, "velocity": 107}, {"time": 75000, "pitch": 74, "duration": 120, "velocity": 97}, {"time": 75120, "pitch": 70, "duration": 109, "velocity": 96}, {"time": 75239, "pitch": 67, "duration": 120, "velocity": 101}, {"time": 75359, "pitch": 70, "duration": 943, "velocity": 119}, {"time": 76322, "pitch": 72, "duration": 937, "velocity": 106}, {"time": 77279, "pitch": 70, "duration": 1921, "velocity": 90}, {"time": 96478, "pitch": 65, "duration": 80, "velocity": 90}, {"time": 96599, "pitch": 65, "duration": 602, "velocity": 90}, {"time": 97201, "pitch": 67, "duration": 240, "velocity": 80}, {"time": 97441, "pitch": 63, "duration": 478, "velocity": 80}, {"time": 98159, "pitch": 55, "duration": 110, "velocity": 109}, {"time": 98279, "pitch": 63, "duration": 842, "velocity": 95}, {"time": 99121, "pitch": 65, "duration": 110, "velocity": 81}, {"time": 99241, "pitch": 62, "duration": 808, "velocity": 75}, {"time": 100319, "pitch": 62, "duration": 241, "velocity": 98}, {"time": 100560, "pitch": 61, "duration": 242, "velocity": 95}, {"time": 100802, "pitch": 62, "duration": 220, "velocity": 89}, {"time": 101042, "pitch": 67, "duration": 409, "velocity": 80}, {"time": 101521, "pitch": 55, "duration": 239, "velocity": 97}, {"time": 101760, "pitch": 57, "duration": 239, "velocity": 83}, {"time": 101999, "pitch": 58, "duration": 220, "velocity": 101}, {"time": 102239, "pitch": 62, "duration": 479, "velocity": 108}, {"time": 102718, "pitch": 60, "duration": 453, "velocity": 106}, {"time": 103202, "pitch": 62, "duration": 448, "velocity": 97}, {"time": 103680, "pitch": 63, "duration": 449, "velocity": 102}, {"time": 104159, "pitch": 65, "duration": 210, "velocity": 97}, {"time": 104399, "pitch": 65, "duration": 229, "velocity": 106}, {"time": 104638, "pitch": 63, "duration": 222, "velocity": 103}, {"time": 104880, "pitch": 65, "duration": 121, "velocity": 89}, {"time": 105001, "pitch": 62, "duration": 480, "velocity": 81}, {"time": 105960, "pitch": 55, "duration": 110, "velocity": 89}, {"time": 106080, "pitch": 63, "duration": 219, "velocity": 110}, {"time": 106319, "pitch": 63, "duration": 220, "velocity": 114}, {"time": 106558, "pitch": 62, "duration": 222, "velocity": 89}, {"time": 106800, "pitch": 63, "duration": 121, "velocity": 106}, {"time": 106921, "pitch": 60, "duration": 590, "velocity": 83}, {"time": 108000, "pitch": 70, "duration": 239, "velocity": 107}, {"time": 108239, "pitch": 67, "duration": 240, "velocity": 97}, {"time": 108479, "pitch": 69, "duration": 219, "velocity": 89}, {"time": 108718, "pitch": 70, "duration": 451, "velocity": 114}, {"time": 109200, "pitch": 67, "duration": 211, "velocity": 103}, {"time": 109441, "pitch": 67, "duration": 240, "velocity": 106}, {"time": 109681, "pitch": 60, "duration": 209, "velocity": 103}, {"time": 109920, "pitch": 65, "duration": 1351, "velocity": 106}, {"time": 111601, "pitch": 57, "duration": 100, "velocity": 89}, {"time": 111721, "pitch": 65, "duration": 828, "velocity": 97}, {"time": 112559, "pitch": 67, "duration": 229, "velocity": 97}, {"time": 112798, "pitch": 63, "duration": 464, "velocity": 80}, {"time": 113522, "pitch": 55, "duration": 109, "velocity": 97}, {"time": 113641, "pitch": 63, "duration": 838, "velocity": 89}, {"time": 114479, "pitch": 65, "duration": 120, "velocity": 97}, {"time": 114599, "pitch": 62, "duration": 579, "velocity": 83}, {"time": 115681, "pitch": 70, "duration": 240, "velocity": 111}, {"time": 115921, "pitch": 67, "duration": 229, "velocity": 97}, {"time": 116160, "pitch": 69, "duration": 240, "velocity": 97}, {"time": 116400, "pitch": 70, "duration": 478, "velocity": 112}, {"time": 116878, "pitch": 67, "duration": 240, "velocity": 106}, {"time": 117118, "pitch": 69, "duration": 212, "velocity": 97}, {"time": 117360, "pitch": 70, "duration": 242, "velocity": 106}, {"time": 117602, "pitch": 72, "duration": 588, "velocity": 103}, {"time": 118200, "pitch": 69, "duration": 110, "velocity": 89}, {"time": 118320, "pitch": 67, "duration": 120, "velocity": 89}, {"time": 118440, "pitch": 69, "duration": 109, "velocity": 81}, {"time": 118559, "pitch": 65, "duration": 540, "velocity": 89}, {"time": 119522, "pitch": 70, "duration": 239, "velocity": 122}, {"time": 119761, "pitch": 67, "duration": 220, "velocity": 94}, {"time": 120001, "pitch": 69, "duration": 239, "velocity": 106}, {"time": 120240, "pitch": 70, "duration": 479, "velocity": 95}, {"time": 120719, "pitch": 67, "duration": 240, "velocity": 89}, {"time": 120959, "pitch": 69, "duration": 231, "velocity": 89}, {"time": 121200, "pitch": 70, "duration": 242, "velocity": 89}, {"time": 121442, "pitch": 65, "duration": 1676, "velocity": 106}, {"time": 123358, "pitch": 67, "duration": 232, "velocity": 122}, {"time": 123600, "pitch": 63, "duration": 232, "velocity": 125}, {"time": 123842, "pitch": 65, "duration": 239, "velocity": 106}, {"time": 124081, "pitch": 67, "duration": 479, "velocity": 125}, {"time": 124560, "pitch": 65, "duration": 229, "velocity": 112}, {"time": 124799, "pitch": 67, "duration": 220, "velocity": 112}, {"time": 125039, "pitch": 69, "duration": 239, "velocity": 104}, {"time": 125278, "pitch": 70, "duration": 232, "velocity": 125}, {"time": 125520, "pitch": 67, "duration": 222, "velocity": 125}, {"time": 125762, "pitch": 69, "duration": 219, "velocity": 112}, {"time": 126001, "pitch": 70, "duration": 479, "velocity": 122}, {"time": 126480, "pitch": 69, "duration": 220, "velocity": 114}, {"time": 126720, "pitch": 70, "duration": 219, "velocity": 111}, {"time": 126959, "pitch": 72, "duration": 220, "velocity": 110}, {"time": 127198, "pitch": 74, "duration": 2883, "velocity": 114}, {"time": 131039, "pitch": 69, "duration": 230, "velocity": 106}, {"time": 131279, "pitch": 72, "duration": 922, "velocity": 125}, {"time": 132241, "pitch": 69, "duration": 230, "velocity": 106}, {"time": 132481, "pitch": 65, "duration": 159, "velocity": 122}, {"time": 132640, "pitch": 62, "duration": 160, "velocity": 97}, {"time": 132800, "pitch": 69, "duration": 150, "velocity": 103}, {"time": 132960, "pitch": 67, "duration": 1441, "velocity": 94}, {"time": 134880, "pitch": 69, "duration": 239, "velocity": 106}, {"time": 135119, "pitch": 72, "duration": 890, "velocity": 114}, {"time": 136079, "pitch": 62, "duration": 212, "velocity": 106}, {"time": 136321, "pitch": 62, "duration": 160, "velocity": 106}, {"time": 136481, "pitch": 65, "duration": 140, "velocity": 112}, {"time": 136641, "pitch": 67, "duration": 139, "velocity": 103}, {"time": 136800, "pitch": 69, "duration": 1442, "velocity": 90}, {"time": 138721, "pitch": 74, "duration": 209, "velocity": 111}, {"time": 138960, "pitch": 74, "duration": 880, "velocity": 95}, {"time": 139920, "pitch": 74, "duration": 242, "velocity": 97}, {"time": 140162, "pitch": 70, "duration": 160, "velocity": 112}, {"time": 140322, "pitch": 67, "duration": 159, "velocity": 114}, {"time": 140481, "pitch": 74, "duration": 160, "velocity": 97}, {"time": 140641, "pitch": 72, "duration": 1391, "velocity": 93}, {"time": 142082, "pitch": 75, "duration": 240, "velocity": 97}, {"time": 142322, "pitch": 74, "duration": 120, "velocity": 88}, {"time": 142442, "pitch": 73, "duration": 119, "velocity": 82}, {"time": 142561, "pitch": 72, "duration": 1517, "velocity": 95}, {"time": 144240, "pitch": 72, "duration": 121, "velocity": 112}, {"time": 144361, "pitch": 70, "duration": 121, "velocity": 107}, {"time": 144482, "pitch": 72, "duration": 1366, "velocity": 97}, {"time": 146281, "pitch": 57, "duration": 111, "velocity": 95}, {"time": 146402, "pitch": 65, "duration": 718, "velocity": 106}, {"time": 147120, "pitch": 67, "duration": 120, "velocity": 95}, {"time": 147240, "pitch": 63, "duration": 579, "velocity": 90}, {"time": 148322, "pitch": 63, "duration": 220, "velocity": 125}, {"time": 148562, "pitch": 63, "duration": 479, "velocity": 112}, {"time": 149041, "pitch": 65, "duration": 239, "velocity": 97}, {"time": 149280, "pitch": 62, "duration": 479, "velocity": 95}, {"time": 150238, "pitch": 70, "duration": 242, "velocity": 112}, {"time": 150480, "pitch": 67, "duration": 221, "velocity": 112}, {"time": 150721, "pitch": 69, "duration": 210, "velocity": 106}, {"time": 150961, "pitch": 70, "duration": 479, "velocity": 95}, {"time": 151440, "pitch": 67, "duration": 229, "velocity": 97}, {"time": 151679, "pitch": 69, "duration": 220, "velocity": 106}, {"time": 151919, "pitch": 70, "duration": 239, "velocity": 106}, {"time": 152158, "pitch": 72, "duration": 723, "velocity": 106}, {"time": 152881, "pitch": 69, "duration": 120, "velocity": 97}, {"time": 153001, "pitch": 67, "duration": 100, "velocity": 89}, {"time": 153121, "pitch": 65, "duration": 708, "velocity": 89}, {"time": 154078, "pitch": 70, "duration": 242, "velocity": 122}, {"time": 154320, "pitch": 67, "duration": 242, "velocity": 106}, {"time": 154562, "pitch": 69, "duration": 230, "velocity": 97}, {"time": 154802, "pitch": 70, "duration": 478, "velocity": 102}, {"time": 155280, "pitch": 67, "duration": 240, "velocity": 95}, {"time": 155520, "pitch": 69, "duration": 219, "velocity": 106}, {"time": 155759, "pitch": 70, "duration": 240, "velocity": 106}, {"time": 155999, "pitch": 65, "duration": 1441, "velocity": 97}, {"time": 157919, "pitch": 70, "duration": 230, "velocity": 110}, {"time": 158158, "pitch": 67, "duration": 220, "velocity": 99}, {"time": 158398, "pitch": 69, "duration": 232, "velocity": 106}, {"time": 158640, "pitch": 70, "duration": 481, "velocity": 113}, {"time": 159121, "pitch": 67, "duration": 230, "velocity": 103}, {"time": 159361, "pitch": 69, "duration": 209, "velocity": 106}, {"time": 159600, "pitch": 70, "duration": 239, "velocity": 109}, {"time": 159839, "pitch": 65, "duration": 721, "velocity": 106}, {"time": 160560, "pitch": 77, "duration": 222, "velocity": 105}, {"time": 160802, "pitch": 74, "duration": 479, "velocity": 97}, {"time": 161520, "pitch": 74, "duration": 220, "velocity": 97}, {"time": 161760, "pitch": 75, "duration": 1192, "velocity": 110}, {"time": 163201, "pitch": 75, "duration": 120, "velocity": 107}, {"time": 163321, "pitch": 74, "duration": 120, "velocity": 97}, {"time": 163441, "pitch": 70, "duration": 109, "velocity": 96}, {"time": 163560, "pitch": 67, "duration": 120, "velocity": 101}, {"time": 163680, "pitch": 70, "duration": 938, "velocity": 100}, {"time": 164638, "pitch": 72, "duration": 942, "velocity": 80}, {"time": 165600, "pitch": 70, "duration": 1921, "velocity": 70}, {"time": 35042, "pitch": 63, "duration": 957, "velocity": 80}, {"time": 35042, "pitch": 67, "duration": 957, "velocity": 80}, {"time": 35999, "pitch": 65, "duration": 963, "velocity": 83}, {"time": 35999, "pitch": 69, "duration": 963, "velocity": 85}, {"time": 36962, "pitch": 67, "duration": 958, "velocity": 80}, {"time": 36962, "pitch": 70, "duration": 958, "velocity": 86}, {"time": 37920, "pitch": 69, "duration": 962, "velocity": 80}, {"time": 37920, "pitch": 72, "duration": 962, "velocity": 90}, {"time": 38882, "pitch": 67, "duration": 1916, "velocity": 90}, {"time": 38882, "pitch": 74, "duration": 3836, "velocity": 100}, {"time": 40798, "pitch": 66, "duration": 1920, "velocity": 90}, {"time": 61922, "pitch": 70, "duration": 957, "velocity": 80}, {"time": 61922, "pitch": 74, "duration": 957, "velocity": 80}, {"time": 62879, "pitch": 70, "duration": 963, "velocity": 80}, {"time": 62879, "pitch": 74, "duration": 963, "velocity": 80}, {"time": 63842, "pitch": 69, "duration": 958, "velocity": 80}, {"time": 63842, "pitch": 72, "duration": 958, "velocity": 80}, {"time": 64800, "pitch": 70, "duration": 478, "velocity": 80}, {"time": 64800, "pitch": 74, "duration": 478, "velocity": 80}, {"time": 65278, "pitch": 72, "duration": 484, "velocity": 80}, {"time": 65278, "pitch": 75, "duration": 484, "velocity": 80}, {"time": 65762, "pitch": 70, "duration": 958, "velocity": 80}, {"time": 65762, "pitch": 74, "duration": 958, "velocity": 80}, {"time": 66720, "pitch": 70, "duration": 958, "velocity": 80}, {"time": 66720, "pitch": 73, "duration": 958, "velocity": 80}, {"time": 67678, "pitch": 69, "duration": 962, "velocity": 80}, {"time": 67678, "pitch": 72, "duration": 962, "velocity": 80}, {"time": 68640, "pitch": 67, "duration": 958, "velocity": 80}, {"time": 68640, "pitch": 70, "duration": 958, "velocity": 80}, {"time": 69598, "pitch": 70, "duration": 963, "velocity": 80}, {"time": 69598, "pitch": 79, "duration": 963, "velocity": 80}, {"time": 70561, "pitch": 73, "duration": 957, "velocity": 80}, {"time": 70561, "pitch": 82, "duration": 957, "velocity": 80}, {"time": 71518, "pitch": 72, "duration": 963, "velocity": 80}, {"time": 71518, "pitch": 81, "duration": 963, "velocity": 80}, {"time": 72481, "pitch": 74, "duration": 958, "velocity": 80}, {"time": 72481, "pitch": 82, "duration": 958, "velocity": 80}, {"time": 73439, "pitch": 75, "duration": 962, "velocity": 80}, {"time": 73439, "pitch": 82, "duration": 962, "velocity": 80}, {"time": 74401, "pitch": 67, "duration": 958, "velocity": 80}, {"time": 74401, "pitch": 75, "duration": 958, "velocity": 80}, {"time": 75359, "pitch": 70, "duration": 963, "velocity": 80}, {"time": 75359, "pitch": 79, "duration": 963, "velocity": 80}, {"time": 76322, "pitch": 69, "duration": 957, "velocity": 80}, {"time": 76322, "pitch": 77, "duration": 957, "velocity": 80}, {"time": 77279, "pitch": 72, "duration": 963, "velocity": 80}, {"time": 77279, "pitch": 77, "duration": 3841, "velocity": 80}, {"time": 78242, "pitch": 70, "duration": 958, "velocity": 80}, {"time": 79200, "pitch": 65, "duration": 962, "velocity": 80}, {"time": 80162, "pitch": 65, "duration": 958, "velocity": 80}, {"time": 92642, "pitch": 67, "duration": 479, "velocity": 106}, {"time": 92642, "pitch": 84, "duration": 1916, "velocity": 106}, {"time": 93121, "pitch": 77, "duration": 339, "velocity": 114}, {"time": 93480, "pitch": 75, "duration": 60, "velocity": 114}, {"time": 93540, "pitch": 74, "duration": 60, "velocity": 113}, {"time": 93600, "pitch": 75, "duration": 928, "velocity": 119}, {"time": 94558, "pitch": 69, "duration": 483, "velocity": 114}, {"time": 94558, "pitch": 89, "duration": 1920, "velocity": 100}, {"time": 95041, "pitch": 79, "duration": 349, "velocity": 106}, {"time": 95400, "pitch": 77, "duration": 60, "velocity": 108}, {"time": 95460, "pitch": 76, "duration": 60, "velocity": 102}, {"time": 95520, "pitch": 77, "duration": 958, "velocity": 104}, {"time": 115198, "pitch": 65, "duration": 60, "velocity": 96}, {"time": 115198, "pitch": 77, "duration": 60, "velocity": 96}, {"time": 115258, "pitch": 67, "duration": 60, "velocity": 95}, {"time": 115258, "pitch": 79, "duration": 60, "velocity": 95}, {"time": 115318, "pitch": 69, "duration": 61, "velocity": 93}, {"time": 115318, "pitch": 81, "duration": 61, "velocity": 93}, {"time": 115379, "pitch": 70, "duration": 60, "velocity": 92}, {"time": 115379, "pitch": 82, "duration": 60, "velocity": 92}, {"time": 115439, "pitch": 72, "duration": 61, "velocity": 91}, {"time": 115439, "pitch": 84, "duration": 61, "velocity": 91}, {"time": 115500, "pitch": 74, "duration": 60, "velocity": 93}, {"time": 115500, "pitch": 86, "duration": 60, "velocity": 93}, {"time": 115560, "pitch": 75, "duration": 61, "velocity": 95}, {"time": 115560, "pitch": 87, "duration": 61, "velocity": 95}, {"time": 115621, "pitch": 77, "duration": 60, "velocity": 97}, {"time": 115621, "pitch": 89, "duration": 60, "velocity": 97}, {"time": 115681, "pitch": 79, "duration": 948, "velocity": 100}, {"time": 115681, "pitch": 91, "duration": 948, "velocity": 100}, {"time": 116639, "pitch": 78, "duration": 963, "velocity": 95}, {"time": 116639, "pitch": 90, "duration": 963, "velocity": 95}, {"time": 117602, "pitch": 77, "duration": 1077, "velocity": 95}, {"time": 117602, "pitch": 89, "duration": 1077, "velocity": 95}, {"time": 118679, "pitch": 75, "duration": 120, "velocity": 97}, {"time": 118679, "pitch": 87, "duration": 120, "velocity": 97}, {"time": 118799, "pitch": 74, "duration": 120, "velocity": 97}, {"time": 118799, "pitch": 86, "duration": 120, "velocity": 97}, {"time": 118919, "pitch": 72, "duration": 119, "velocity": 80}, {"time": 118919, "pitch": 84, "duration": 119, "velocity": 80}, {"time": 119038, "pitch": 70, "duration": 121, "velocity": 89}, {"time": 119038, "pitch": 82, "duration": 121, "velocity": 89}, {"time": 119159, "pitch": 68, "duration": 121, "velocity": 89}, {"time": 119159, "pitch": 80, "duration": 121, "velocity": 89}, {"time": 119280, "pitch": 72, "duration": 121, "velocity": 92}, {"time": 119280, "pitch": 84, "duration": 121, "velocity": 92}, {"time": 119401, "pitch": 70, "duration": 121, "velocity": 96}, {"time": 119401, "pitch": 82, "duration": 121, "velocity": 96}, {"time": 119522, "pitch": 74, "duration": 918, "velocity": 87}, {"time": 119522, "pitch": 86, "duration": 918, "velocity": 87}, {"time": 120480, "pitch": 73, "duration": 962, "velocity": 82}, {"time": 120480, "pitch": 85, "duration": 962, "velocity": 82}, {"time": 121442, "pitch": 72, "duration": 719, "velocity": 84}, {"time": 121442, "pitch": 84, "duration": 719, "velocity": 84}, {"time": 122161, "pitch": 77, "duration": 229, "velocity": 76}, {"time": 122161, "pitch": 89, "duration": 229, "velocity": 76}, {"time": 122400, "pitch": 74, "duration": 958, "velocity": 70}, {"time": 122400, "pitch": 86, "duration": 958, "velocity": 70}, {"time": 123358, "pitch": 63, "duration": 962, "velocity": 80}, {"time": 123358, "pitch": 67, "duration": 962, "velocity": 80}, {"time": 124320, "pitch": 65, "duration": 958, "velocity": 83}, {"time": 124320, "pitch": 69, "duration": 958, "velocity": 85}, {"time": 125278, "pitch": 67, "duration": 963, "velocity": 80}, {"time": 125278, "pitch": 70, "duration": 963, "velocity": 86}, {"time": 126241, "pitch": 69, "duration": 957, "velocity": 80}, {"time": 126241, "pitch": 72, "duration": 957, "velocity": 90}, {"time": 127198, "pitch": 67, "duration": 1921, "velocity": 90}, {"time": 127198, "pitch": 74, "duration": 3841, "velocity": 100}, {"time": 129119, "pitch": 66, "duration": 1920, "velocity": 90}, {"time": 131039, "pitch": 62, "duration": 1921, "velocity": 80}, {"time": 131279, "pitch": 81, "duration": 119, "velocity": 114}, {"time": 131398, "pitch": 82, "duration": 120, "velocity": 110}, {"time": 131518, "pitch": 81, "duration": 111, "velocity": 106}, {"time": 131639, "pitch": 77, "duration": 101, "velocity": 97}, {"time": 131760, "pitch": 74, "duration": 1180, "velocity": 97}, {"time": 132960, "pitch": 64, "duration": 1920, "velocity": 80}, {"time": 132960, "pitch": 72, "duration": 962, "velocity": 90}, {"time": 133922, "pitch": 79, "duration": 479, "velocity": 82}, {"time": 134401, "pitch": 76, "duration": 479, "velocity": 84}, {"time": 134880, "pitch": 65, "duration": 958, "velocity": 80}, {"time": 134880, "pitch": 77, "duration": 120, "velocity": 97}, {"time": 135000, "pitch": 79, "duration": 119, "velocity": 103}, {"time": 135119, "pitch": 77, "duration": 120, "velocity": 95}, {"time": 135239, "pitch": 74, "duration": 120, "velocity": 106}, {"time": 135359, "pitch": 70, "duration": 720, "velocity": 90}, {"time": 135838, "pitch": 64, "duration": 962, "velocity": 80}, {"time": 136079, "pitch": 67, "duration": 242, "velocity": 90}, {"time": 136321, "pitch": 70, "duration": 240, "velocity": 114}, {"time": 136561, "pitch": 76, "duration": 229, "velocity": 100}, {"time": 136800, "pitch": 65, "duration": 1921, "velocity": 80}, {"time": 136800, "pitch": 74, "duration": 958, "velocity": 97}, {"time": 137758, "pitch": 72, "duration": 813, "velocity": 89}, {"time": 138721, "pitch": 65, "duration": 1920, "velocity": 80}, {"time": 138721, "pitch": 79, "duration": 109, "velocity": 97}, {"time": 138840, "pitch": 82, "duration": 90, "velocity": 101}, {"time": 138960, "pitch": 89, "duration": 1441, "velocity": 96}, {"time": 140401, "pitch": 91, "duration": 240, "velocity": 95}, {"time": 140641, "pitch": 63, "duration": 1920, "velocity": 80}, {"time": 140641, "pitch": 92, "duration": 958, "velocity": 103}, {"time": 141599, "pitch": 87, "duration": 962, "velocity": 89}, {"time": 142561, "pitch": 67, "duration": 958, "velocity": 80}, {"time": 142561, "pitch": 87, "duration": 1921, "velocity": 90}, {"time": 143519, "pitch": 63, "duration": 963, "velocity": 80}, {"time": 144482, "pitch": 65, "duration": 957, "velocity": 80}, {"time": 144482, "pitch": 89, "duration": 1839, "velocity": 81}, {"time": 145439, "pitch": 65, "duration": 963, "velocity": 80}, {"time": 150238, "pitch": 70, "duration": 962, "velocity": 80}, {"time": 150238, "pitch": 74, "duration": 962, "velocity": 80}, {"time": 151200, "pitch": 70, "duration": 958, "velocity": 80}, {"time": 151200, "pitch": 74, "duration": 958, "velocity": 80}, {"time": 152158, "pitch": 69, "duration": 963, "velocity": 80}, {"time": 152158, "pitch": 72, "duration": 963, "velocity": 80}, {"time": 153121, "pitch": 70, "duration": 479, "velocity": 80}, {"time": 153121, "pitch": 74, "duration": 479, "velocity": 80}, {"time": 153600, "pitch": 72, "duration": 478, "velocity": 80}, {"time": 153600, "pitch": 75, "duration": 478, "velocity": 80}, {"time": 154078, "pitch": 70, "duration": 963, "velocity": 80}, {"time": 154078, "pitch": 74, "duration": 963, "velocity": 80}, {"time": 155041, "pitch": 70, "duration": 958, "velocity": 80}, {"time": 155041, "pitch": 73, "duration": 958, "velocity": 80}, {"time": 155999, "pitch": 69, "duration": 962, "velocity": 80}, {"time": 155999, "pitch": 72, "duration": 962, "velocity": 80}, {"time": 156961, "pitch": 67, "duration": 958, "velocity": 80}, {"time": 156961, "pitch": 70, "duration": 958, "velocity": 80}, {"time": 157919, "pitch": 70, "duration": 963, "velocity": 80}, {"time": 157919, "pitch": 79, "duration": 963, "velocity": 80}, {"time": 158882, "pitch": 73, "duration": 957, "velocity": 80}, {"time": 158882, "pitch": 82, "duration": 957, "velocity": 80}, {"time": 159839, "pitch": 72, "duration": 963, "velocity": 80}, {"time": 159839, "pitch": 81, "duration": 963, "velocity": 80}, {"time": 160802, "pitch": 74, "duration": 958, "velocity": 80}, {"time": 160802, "pitch": 82, "duration": 958, "velocity": 80}, {"time": 161760, "pitch": 75, "duration": 962, "velocity": 80}, {"time": 161760, "pitch": 82, "duration": 962, "velocity": 80}, {"time": 162722, "pitch": 67, "duration": 958, "velocity": 80}, {"time": 162722, "pitch": 75, "duration": 958, "velocity": 80}, {"time": 163680, "pitch": 70, "duration": 708, "velocity": 80}, {"time": 163680, "pitch": 79, "duration": 708, "velocity": 80}, {"time": 164398, "pitch": 69, "duration": 80, "velocity": 100}, {"time": 164398, "pitch": 77, "duration": 80, "velocity": 100}, {"time": 164518, "pitch": 69, "duration": 80, "velocity": 100}, {"time": 164518, "pitch": 77, "duration": 80, "velocity": 100}, {"time": 173279, "pitch": 62, "duration": 3841, "velocity": 80}, {"time": 173279, "pitch": 65, "duration": 3841, "velocity": 80}, {"time": 35042, "pitch": 51, "duration": 957, "velocity": 65}, {"time": 35042, "pitch": 58, "duration": 957, "velocity": 75}, {"time": 35999, "pitch": 50, "duration": 963, "velocity": 65}, {"time": 35999, "pitch": 60, "duration": 479, "velocity": 75}, {"time": 36478, "pitch": 62, "duration": 484, "velocity": 75}, {"time": 36962, "pitch": 48, "duration": 958, "velocity": 65}, {"time": 36962, "pitch": 63, "duration": 958, "velocity": 75}, {"time": 37920, "pitch": 46, "duration": 962, "velocity": 65}, {"time": 37920, "pitch": 65, "duration": 962, "velocity": 75}, {"time": 38882, "pitch": 45, "duration": 958, "velocity": 65}, {"time": 38882, "pitch": 62, "duration": 958, "velocity": 75}, {"time": 39840, "pitch": 45, "duration": 958, "velocity": 65}, {"time": 39840, "pitch": 62, "duration": 958, "velocity": 75}, {"time": 40798, "pitch": 50, "duration": 962, "velocity": 65}, {"time": 40798, "pitch": 62, "duration": 962, "velocity": 75}, {"time": 41760, "pitch": 50, "duration": 958, "velocity": 65}, {"time": 41760, "pitch": 62, "duration": 958, "velocity": 75}, {"time": 61922, "pitch": 51, "duration": 957, "velocity": 80}, {"time": 61922, "pitch": 58, "duration": 957, "velocity": 80}, {"time": 62879, "pitch": 52, "duration": 963, "velocity": 80}, {"time": 62879, "pitch": 62, "duration": 963, "velocity": 80}, {"time": 63842, "pitch": 53, "duration": 958, "velocity": 65}, {"time": 63842, "pitch": 60, "duration": 958, "velocity": 65}, {"time": 64800, "pitch": 55, "duration": 478, "velocity": 65}, {"time": 64800, "pitch": 62, "duration": 478, "velocity": 65}, {"time": 65278, "pitch": 53, "duration": 484, "velocity": 65}, {"time": 65278, "pitch": 63, "duration": 484, "velocity": 65}, {"time": 65762, "pitch": 52, "duration": 958, "velocity": 65}, {"time": 65762, "pitch": 62, "duration": 958, "velocity": 65}, {"time": 66720, "pitch": 51, "duration": 958, "velocity": 65}, {"time": 66720, "pitch": 61, "duration": 958, "velocity": 65}, {"time": 67678, "pitch": 50, "duration": 962, "velocity": 65}, {"time": 67678, "pitch": 60, "duration": 962, "velocity": 65}, {"time": 68640, "pitch": 55, "duration": 958, "velocity": 65}, {"time": 68640, "pitch": 58, "duration": 958, "velocity": 65}, {"time": 69598, "pitch": 52, "duration": 963, "velocity": 65}, {"time": 69598, "pitch": 62, "duration": 963, "velocity": 65}, {"time": 70561, "pitch": 51, "duration": 957, "velocity": 65}, {"time": 70561, "pitch": 61, "duration": 957, "velocity": 65}, {"time": 71518, "pitch": 50, "duration": 963, "velocity": 65}, {"time": 71518, "pitch": 60, "duration": 963, "velocity": 65}, {"time": 72481, "pitch": 55, "duration": 958, "velocity": 65}, {"time": 72481, "pitch": 58, "duration": 958, "velocity": 65}, {"time": 73439, "pitch": 48, "duration": 962, "velocity": 65}, {"time": 73439, "pitch": 58, "duration": 962, "velocity": 65}, {"time": 74401, "pitch": 48, "duration": 958, "velocity": 65}, {"time": 74401, "pitch": 58, "duration": 958, "velocity": 65}, {"time": 75359, "pitch": 53, "duration": 963, "velocity": 65}, {"time": 75359, "pitch": 58, "duration": 963, "velocity": 65}, {"time": 76322, "pitch": 53, "duration": 957, "velocity": 65}, {"time": 76322, "pitch": 60, "duration": 957, "velocity": 65}, {"time": 77279, "pitch": 58, "duration": 963, "velocity": 65}, {"time": 77279, "pitch": 60, "duration": 963, "velocity": 65}, {"time": 78242, "pitch": 53, "duration": 958, "velocity": 65}, {"time": 78242, "pitch": 62, "duration": 958, "velocity": 65}, {"time": 79200, "pitch": 46, "duration": 962, "velocity": 65}, {"time": 79200, "pitch": 53, "duration": 962, "velocity": 65}, {"time": 80162, "pitch": 62, "duration": 958, "velocity": 65}, {"time": 92642, "pitch": 63, "duration": 688, "velocity": 104}, {"time": 93360, "pitch": 62, "duration": 240, "velocity": 89}, {"time": 93600, "pitch": 60, "duration": 2878, "velocity": 103}, {"time": 93959, "pitch": 48, "duration": 100, "velocity": 81}, {"time": 94079, "pitch": 48, "duration": 119, "velocity": 94}, {"time": 94198, "pitch": 50, "duration": 120, "velocity": 114}, {"time": 94318, "pitch": 51, "duration": 120, "velocity": 106}, {"time": 94438, "pitch": 55, "duration": 120, "velocity": 100}, {"time": 94558, "pitch": 53, "duration": 1920, "velocity": 106}, {"time": 123358, "pitch": 51, "duration": 962, "velocity": 65}, {"time": 123358, "pitch": 58, "duration": 962, "velocity": 75}, {"time": 124320, "pitch": 50, "duration": 958, "velocity": 65}, {"time": 124320, "pitch": 60, "duration": 479, "velocity": 75}, {"time": 124799, "pitch": 62, "duration": 479, "velocity": 75}, {"time": 125278, "pitch": 48, "duration": 963, "velocity": 65}, {"time": 125278, "pitch": 63, "duration": 963, "velocity": 75}, {"time": 126241, "pitch": 46, "duration": 957, "velocity": 65}, {"time": 126241, "pitch": 65, "duration": 957, "velocity": 75}, {"time": 127198, "pitch": 45, "duration": 963, "velocity": 65}, {"time": 127198, "pitch": 62, "duration": 963, "velocity": 75}, {"time": 128161, "pitch": 45, "duration": 958, "velocity": 65}, {"time": 128161, "pitch": 62, "duration": 958, "velocity": 75}, {"time": 129119, "pitch": 50, "duration": 962, "velocity": 65}, {"time": 129119, "pitch": 62, "duration": 962, "velocity": 75}, {"time": 130081, "pitch": 50, "duration": 958, "velocity": 65}, {"time": 130081, "pitch": 62, "duration": 958, "velocity": 75}, {"time": 131039, "pitch": 53, "duration": 1921, "velocity": 80}, {"time": 131039, "pitch": 58, "duration": 1921, "velocity": 80}, {"time": 132960, "pitch": 55, "duration": 1920, "velocity": 80}, {"time": 132960, "pitch": 60, "duration": 1920, "velocity": 80}, {"time": 134880, "pitch": 58, "duration": 958, "velocity": 80}, {"time": 134880, "pitch": 62, "duration": 958, "velocity": 80}, {"time": 135838, "pitch": 55, "duration": 962, "velocity": 80}, {"time": 135838, "pitch": 60, "duration": 962, "velocity": 80}, {"time": 136800, "pitch": 57, "duration": 1921, "velocity": 80}, {"time": 136800, "pitch": 60, "duration": 1921, "velocity": 80}, {"time": 138721, "pitch": 62, "duration": 1920, "velocity": 80}, {"time": 139199, "pitch": 58, "duration": 721, "velocity": 106}, {"time": 139920, "pitch": 55, "duration": 242, "velocity": 97}, {"time": 140162, "pitch": 51, "duration": 239, "velocity": 89}, {"time": 140401, "pitch": 53, "duration": 240, "velocity": 77}, {"time": 140641, "pitch": 55, "duration": 958, "velocity": 84}, {"time": 140641, "pitch": 60, "duration": 1920, "velocity": 80}, {"time": 141599, "pitch": 56, "duration": 962, "velocity": 83}, {"time": 142561, "pitch": 57, "duration": 958, "velocity": 83}, {"time": 142561, "pitch": 63, "duration": 958, "velocity": 80}, {"time": 143519, "pitch": 54, "duration": 963, "velocity": 80}, {"time": 143519, "pitch": 58, "duration": 1920, "velocity": 77}, {"time": 144482, "pitch": 53, "duration": 957, "velocity": 80}, {"time": 145439, "pitch": 53, "duration": 963, "velocity": 80}, {"time": 145439, "pitch": 57, "duration": 963, "velocity": 70}, {"time": 150238, "pitch": 51, "duration": 962, "velocity": 80}, {"time": 150238, "pitch": 58, "duration": 962, "velocity": 80}, {"time": 151200, "pitch": 52, "duration": 958, "velocity": 80}, {"time": 151200, "pitch": 62, "duration": 958, "velocity": 80}, {"time": 152158, "pitch": 53, "duration": 963, "velocity": 65}, {"time": 152158, "pitch": 60, "duration": 963, "velocity": 65}, {"time": 153121, "pitch": 55, "duration": 479, "velocity": 65}, {"time": 153121, "pitch": 62, "duration": 479, "velocity": 65}, {"time": 153600, "pitch": 53, "duration": 478, "velocity": 65}, {"time": 153600, "pitch": 63, "duration": 478, "velocity": 65}, {"time": 154078, "pitch": 52, "duration": 963, "velocity": 65}, {"time": 154078, "pitch": 62, "duration": 963, "velocity": 65}, {"time": 155041, "pitch": 51, "duration": 958, "velocity": 65}, {"time": 155041, "pitch": 61, "duration": 958, "velocity": 65}, {"time": 155999, "pitch": 50, "duration": 962, "velocity": 65}, {"time": 155999, "pitch": 60, "duration": 962, "velocity": 65}, {"time": 156961, "pitch": 55, "duration": 958, "velocity": 65}, {"time": 156961, "pitch": 58, "duration": 958, "velocity": 65}, {"time": 157919, "pitch": 52, "duration": 963, "velocity": 65}, {"time": 157919, "pitch": 62, "duration": 963, "velocity": 65}, {"time": 158882, "pitch": 51, "duration": 957, "velocity": 65}, {"time": 158882, "pitch": 61, "duration": 957, "velocity": 65}, {"time": 159839, "pitch": 50, "duration": 963, "velocity": 65}, {"time": 159839, "pitch": 60, "duration": 963, "velocity": 65}, {"time": 160802, "pitch": 55, "duration": 958, "velocity": 65}, {"time": 160802, "pitch": 58, "duration": 958, "velocity": 65}, {"time": 161760, "pitch": 48, "duration": 962, "velocity": 65}, {"time": 161760, "pitch": 58, "duration": 962, "velocity": 65}, {"time": 162722, "pitch": 48, "duration": 599, "velocity": 65}, {"time": 162722, "pitch": 58, "duration": 958, "velocity": 65}, {"time": 163321, "pitch": 48, "duration": 100, "velocity": 86}, {"time": 163441, "pitch": 50, "duration": 109, "velocity": 92}, {"time": 163560, "pitch": 51, "duration": 90, "velocity": 91}, {"time": 163680, "pitch": 53, "duration": 718, "velocity": 90}, {"time": 163680, "pitch": 58, "duration": 718, "velocity": 80}, {"time": 164398, "pitch": 53, "duration": 80, "velocity": 96}, {"time": 164398, "pitch": 60, "duration": 80, "velocity": 90}, {"time": 164518, "pitch": 53, "duration": 80, "velocity": 96}, {"time": 164518, "pitch": 60, "duration": 80, "velocity": 90}, {"time": 173279, "pitch": 46, "duration": 3841, "velocity": 64}, {"time": 173279, "pitch": 58, "duration": 3841, "velocity": 64}, {"time": 22562, "pitch": 60, "duration": 958, "velocity": 110}, {"time": 22562, "pitch": 65, "duration": 958, "velocity": 110}, {"time": 22562, "pitch": 69, "duration": 958, "velocity": 110}, {"time": 23520, "pitch": 53, "duration": 39, "velocity": 80}, {"time": 23639, "pitch": 53, "duration": 80, "velocity": 60}, {"time": 23759, "pitch": 57, "duration": 40, "velocity": 80}, {"time": 23879, "pitch": 60, "duration": 60, "velocity": 60}, {"time": 23998, "pitch": 65, "duration": 41, "velocity": 90}, {"time": 24119, "pitch": 60, "duration": 41, "velocity": 80}, {"time": 24240, "pitch": 57, "duration": 51, "velocity": 60}, {"time": 24361, "pitch": 53, "duration": 41, "velocity": 40}, {"time": 24482, "pitch": 51, "duration": 40, "velocity": 80}, {"time": 24602, "pitch": 51, "duration": 50, "velocity": 50}, {"time": 24722, "pitch": 55, "duration": 40, "velocity": 80}, {"time": 24841, "pitch": 58, "duration": 40, "velocity": 60}, {"time": 24961, "pitch": 63, "duration": 40, "velocity": 90}, {"time": 25081, "pitch": 58, "duration": 50, "velocity": 80}, {"time": 25200, "pitch": 55, "duration": 40, "velocity": 60}, {"time": 25320, "pitch": 51, "duration": 40, "velocity": 80}, {"time": 25440, "pitch": 51, "duration": 40, "velocity": 80}, {"time": 25560, "pitch": 51, "duration": 49, "velocity": 50}, {"time": 25679, "pitch": 54, "duration": 40, "velocity": 80}, {"time": 25799, "pitch": 58, "duration": 40, "velocity": 60}, {"time": 25919, "pitch": 63, "duration": 40, "velocity": 90}, {"time": 26038, "pitch": 58, "duration": 50, "velocity": 80}, {"time": 26158, "pitch": 54, "duration": 40, "velocity": 60}, {"time": 26278, "pitch": 51, "duration": 40, "velocity": 80}, {"time": 26398, "pitch": 62, "duration": 241, "velocity": 90}, {"time": 26639, "pitch": 62, "duration": 101, "velocity": 70}, {"time": 26760, "pitch": 58, "duration": 81, "velocity": 60}, {"time": 26881, "pitch": 60, "duration": 80, "velocity": 70}, {"time": 27001, "pitch": 58, "duration": 240, "velocity": 80}, {"time": 42718, "pitch": 58, "duration": 81, "velocity": 80}, {"time": 42718, "pitch": 62, "duration": 20, "velocity": 60}, {"time": 42718, "pitch": 65, "duration": 81, "velocity": 80}, {"time": 42839, "pitch": 58, "duration": 20, "velocity": 60}, {"time": 42839, "pitch": 62, "duration": 20, "velocity": 60}, {"time": 42839, "pitch": 65, "duration": 20, "velocity": 60}, {"time": 42960, "pitch": 58, "duration": 20, "velocity": 60}, {"time": 42960, "pitch": 62, "duration": 20, "velocity": 60}, {"time": 42960, "pitch": 65, "duration": 20, "velocity": 60}, {"time": 43081, "pitch": 58, "duration": 20, "velocity": 60}, {"time": 43081, "pitch": 62, "duration": 20, "velocity": 60}, {"time": 43081, "pitch": 65, "duration": 20, "velocity": 60}, {"time": 43202, "pitch": 58, "duration": 50, "velocity": 100}, {"time": 43202, "pitch": 62, "duration": 50, "velocity": 100}, {"time": 43202, "pitch": 65, "duration": 50, "velocity": 100}, {"time": 43262, "pitch": 62, "duration": 10, "velocity": 60}, {"time": 43262, "pitch": 65, "duration": 10, "velocity": 60}, {"time": 43322, "pitch": 58, "duration": 10, "velocity": 90}, {"time": 43322, "pitch": 62, "duration": 10, "velocity": 90}, {"time": 43322, "pitch": 65, "duration": 10, "velocity": 90}, {"time": 43381, "pitch": 62, "duration": 160, "velocity": 60}, {"time": 43381, "pitch": 65, "duration": 160, "velocity": 60}, {"time": 43561, "pitch": 62, "duration": 20, "velocity": 60}, {"time": 43561, "pitch": 65, "duration": 20, "velocity": 60}, {"time": 43681, "pitch": 58, "duration": 80, "velocity": 80}, {"time": 43681, "pitch": 62, "duration": 20, "velocity": 60}, {"time": 43681, "pitch": 65, "duration": 80, "velocity": 80}, {"time": 43800, "pitch": 58, "duration": 20, "velocity": 60}, {"time": 43800, "pitch": 62, "duration": 20, "velocity": 60}, {"time": 43800, "pitch": 65, "duration": 20, "velocity": 60}, {"time": 43920, "pitch": 58, "duration": 20, "velocity": 60}, {"time": 43920, "pitch": 62, "duration": 20, "velocity": 60}, {"time": 43920, "pitch": 65, "duration": 20, "velocity": 60}, {"time": 44040, "pitch": 58, "duration": 20, "velocity": 60}, {"time": 44040, "pitch": 62, "duration": 20, "velocity": 60}, {"time": 44040, "pitch": 65, "duration": 20, "velocity": 60}, {"time": 44160, "pitch": 58, "duration": 49, "velocity": 100}, {"time": 44160, "pitch": 62, "duration": 49, "velocity": 100}, {"time": 44160, "pitch": 65, "duration": 49, "velocity": 100}, {"time": 44219, "pitch": 62, "duration": 10, "velocity": 60}, {"time": 44219, "pitch": 65, "duration": 10, "velocity": 60}, {"time": 44279, "pitch": 58, "duration": 10, "velocity": 90}, {"time": 44279, "pitch": 62, "duration": 10, "velocity": 90}, {"time": 44279, "pitch": 65, "duration": 10, "velocity": 90}, {"time": 44339, "pitch": 62, "duration": 160, "velocity": 60}, {"time": 44339, "pitch": 65, "duration": 160, "velocity": 60}, {"time": 44519, "pitch": 62, "duration": 20, "velocity": 60}, {"time": 44519, "pitch": 65, "duration": 20, "velocity": 60}, {"time": 44638, "pitch": 57, "duration": 81, "velocity": 80}, {"time": 44638, "pitch": 60, "duration": 81, "velocity": 80}, {"time": 44638, "pitch": 64, "duration": 21, "velocity": 60}, {"time": 44759, "pitch": 57, "duration": 21, "velocity": 60}, {"time": 44759, "pitch": 60, "duration": 21, "velocity": 60}, {"time": 44759, "pitch": 64, "duration": 21, "velocity": 60}, {"time": 44880, "pitch": 57, "duration": 20, "velocity": 60}, {"time": 44880, "pitch": 60, "duration": 20, "velocity": 60}, {"time": 44880, "pitch": 64, "duration": 20, "velocity": 60}, {"time": 45001, "pitch": 57, "duration": 20, "velocity": 60}, {"time": 45001, "pitch": 60, "duration": 20, "velocity": 60}, {"time": 45001, "pitch": 64, "duration": 20, "velocity": 60}, {"time": 45122, "pitch": 57, "duration": 50, "velocity": 100}, {"time": 45122, "pitch": 60, "duration": 50, "velocity": 100}, {"time": 45122, "pitch": 64, "duration": 50, "velocity": 100}, {"time": 45182, "pitch": 60, "duration": 10, "velocity": 60}, {"time": 45182, "pitch": 64, "duration": 10, "velocity": 60}, {"time": 45242, "pitch": 57, "duration": 10, "velocity": 90}, {"time": 45242, "pitch": 60, "duration": 10, "velocity": 90}, {"time": 45242, "pitch": 64, "duration": 10, "velocity": 90}, {"time": 45302, "pitch": 60, "duration": 159, "velocity": 60}, {"time": 45302, "pitch": 64, "duration": 159, "velocity": 60}, {"time": 45481, "pitch": 60, "duration": 20, "velocity": 60}, {"time": 45481, "pitch": 64, "duration": 20, "velocity": 60}, {"time": 45601, "pitch": 57, "duration": 80, "velocity": 80}, {"time": 45601, "pitch": 60, "duration": 20, "velocity": 60}, {"time": 45601, "pitch": 64, "duration": 80, "velocity": 80}, {"time": 45721, "pitch": 57, "duration": 20, "velocity": 60}, {"time": 45721, "pitch": 60, "duration": 20, "velocity": 60}, {"time": 45721, "pitch": 64, "duration": 20, "velocity": 60}, {"time": 45840, "pitch": 57, "duration": 20, "velocity": 60}, {"time": 45840, "pitch": 60, "duration": 20, "velocity": 60}, {"time": 45840, "pitch": 64, "duration": 20, "velocity": 60}, {"time": 45960, "pitch": 57, "duration": 20, "velocity": 60}, {"time": 45960, "pitch": 60, "duration": 20, "velocity": 60}, {"time": 45960, "pitch": 64, "duration": 20, "velocity": 60}, {"time": 46080, "pitch": 57, "duration": 50, "velocity": 100}, {"time": 46080, "pitch": 60, "duration": 50, "velocity": 100}, {"time": 46080, "pitch": 64, "duration": 50, "velocity": 100}, {"time": 46140, "pitch": 60, "duration": 10, "velocity": 60}, {"time": 46140, "pitch": 64, "duration": 10, "velocity": 60}, {"time": 46200, "pitch": 57, "duration": 10, "velocity": 90}, {"time": 46200, "pitch": 60, "duration": 10, "velocity": 90}, {"time": 46200, "pitch": 64, "duration": 10, "velocity": 90}, {"time": 46259, "pitch": 60, "duration": 160, "velocity": 60}, {"time": 46259, "pitch": 64, "duration": 160, "velocity": 60}, {"time": 46439, "pitch": 60, "duration": 20, "velocity": 60}, {"time": 46439, "pitch": 64, "duration": 20, "velocity": 60}, {"time": 46559, "pitch": 58, "duration": 80, "velocity": 80}, {"time": 46559, "pitch": 62, "duration": 80, "velocity": 80}, {"time": 46559, "pitch": 65, "duration": 20, "velocity": 60}, {"time": 46678, "pitch": 58, "duration": 20, "velocity": 60}, {"time": 46678, "pitch": 62, "duration": 20, "velocity": 60}, {"time": 46678, "pitch": 65, "duration": 20, "velocity": 60}, {"time": 46798, "pitch": 58, "duration": 20, "velocity": 60}, {"time": 46798, "pitch": 62, "duration": 20, "velocity": 60}, {"time": 46798, "pitch": 65, "duration": 20, "velocity": 60}, {"time": 46918, "pitch": 58, "duration": 20, "velocity": 60}, {"time": 46918, "pitch": 62, "duration": 20, "velocity": 60}, {"time": 46918, "pitch": 65, "duration": 20, "velocity": 60}, {"time": 47038, "pitch": 58, "duration": 50, "velocity": 100}, {"time": 47038, "pitch": 62, "duration": 50, "velocity": 100}, {"time": 47038, "pitch": 65, "duration": 50, "velocity": 100}, {"time": 47098, "pitch": 62, "duration": 10, "velocity": 60}, {"time": 47098, "pitch": 65, "duration": 10, "velocity": 60}, {"time": 47159, "pitch": 58, "duration": 10, "velocity": 90}, {"time": 47159, "pitch": 62, "duration": 10, "velocity": 90}, {"time": 47159, "pitch": 65, "duration": 10, "velocity": 90}, {"time": 47219, "pitch": 62, "duration": 161, "velocity": 60}, {"time": 47219, "pitch": 65, "duration": 161, "velocity": 60}, {"time": 47400, "pitch": 62, "duration": 21, "velocity": 60}, {"time": 47400, "pitch": 65, "duration": 21, "velocity": 60}, {"time": 47521, "pitch": 60, "duration": 80, "velocity": 80}, {"time": 47521, "pitch": 64, "duration": 20, "velocity": 60}, {"time": 47521, "pitch": 67, "duration": 80, "velocity": 80}, {"time": 47641, "pitch": 60, "duration": 20, "velocity": 60}, {"time": 47641, "pitch": 64, "duration": 20, "velocity": 60}, {"time": 47641, "pitch": 67, "duration": 20, "velocity": 60}, {"time": 47761, "pitch": 60, "duration": 20, "velocity": 60}, {"time": 47761, "pitch": 64, "duration": 20, "velocity": 60}, {"time": 47761, "pitch": 67, "duration": 20, "velocity": 60}, {"time": 47881, "pitch": 60, "duration": 19, "velocity": 60}, {"time": 47881, "pitch": 64, "duration": 19, "velocity": 60}, {"time": 47881, "pitch": 67, "duration": 19, "velocity": 60}, {"time": 48000, "pitch": 60, "duration": 50, "velocity": 100}, {"time": 48000, "pitch": 64, "duration": 50, "velocity": 100}, {"time": 48000, "pitch": 67, "duration": 50, "velocity": 100}, {"time": 48060, "pitch": 60, "duration": 10, "velocity": 60}, {"time": 48060, "pitch": 64, "duration": 10, "velocity": 60}, {"time": 48120, "pitch": 60, "duration": 10, "velocity": 90}, {"time": 48120, "pitch": 64, "duration": 10, "velocity": 90}, {"time": 48120, "pitch": 67, "duration": 10, "velocity": 90}, {"time": 48180, "pitch": 60, "duration": 159, "velocity": 60}, {"time": 48180, "pitch": 64, "duration": 159, "velocity": 60}, {"time": 48359, "pitch": 60, "duration": 20, "velocity": 60}, {"time": 48359, "pitch": 64, "duration": 20, "velocity": 60}, {"time": 48479, "pitch": 60, "duration": 80, "velocity": 80}, {"time": 48479, "pitch": 65, "duration": 80, "velocity": 80}, {"time": 48479, "pitch": 69, "duration": 20, "velocity": 60}, {"time": 48599, "pitch": 60, "duration": 20, "velocity": 60}, {"time": 48599, "pitch": 65, "duration": 20, "velocity": 60}, {"time": 48599, "pitch": 69, "duration": 20, "velocity": 60}, {"time": 48719, "pitch": 60, "duration": 19, "velocity": 60}, {"time": 48719, "pitch": 65, "duration": 19, "velocity": 60}, {"time": 48719, "pitch": 69, "duration": 19, "velocity": 60}, {"time": 48838, "pitch": 60, "duration": 20, "velocity": 60}, {"time": 48838, "pitch": 65, "duration": 20, "velocity": 60}, {"time": 48838, "pitch": 69, "duration": 20, "velocity": 60}, {"time": 48958, "pitch": 60, "duration": 50, "velocity": 100}, {"time": 48958, "pitch": 65, "duration": 50, "velocity": 100}, {"time": 48958, "pitch": 69, "duration": 50, "velocity": 100}, {"time": 49018, "pitch": 65, "duration": 10, "velocity": 60}, {"time": 49018, "pitch": 69, "duration": 10, "velocity": 60}, {"time": 49079, "pitch": 60, "duration": 10, "velocity": 90}, {"time": 49079, "pitch": 65, "duration": 10, "velocity": 90}, {"time": 49079, "pitch": 69, "duration": 10, "velocity": 90}, {"time": 49139, "pitch": 65, "duration": 162, "velocity": 60}, {"time": 49139, "pitch": 69, "duration": 162, "velocity": 60}, {"time": 49321, "pitch": 65, "duration": 20, "velocity": 60}, {"time": 49321, "pitch": 69, "duration": 20, "velocity": 60}, {"time": 49442, "pitch": 60, "duration": 80, "velocity": 80}, {"time": 49442, "pitch": 65, "duration": 80, "velocity": 80}, {"time": 49442, "pitch": 69, "duration": 20, "velocity": 60}, {"time": 49561, "pitch": 60, "duration": 20, "velocity": 60}, {"time": 49561, "pitch": 65, "duration": 20, "velocity": 60}, {"time": 49561, "pitch": 69, "duration": 20, "velocity": 60}, {"time": 49681, "pitch": 60, "duration": 20, "velocity": 60}, {"time": 49681, "pitch": 65, "duration": 20, "velocity": 60}, {"time": 49681, "pitch": 69, "duration": 20, "velocity": 60}, {"time": 49801, "pitch": 60, "duration": 20, "velocity": 60}, {"time": 49801, "pitch": 65, "duration": 20, "velocity": 60}, {"time": 49801, "pitch": 69, "duration": 20, "velocity": 60}, {"time": 49921, "pitch": 60, "duration": 49, "velocity": 100}, {"time": 49921, "pitch": 65, "duration": 49, "velocity": 100}, {"time": 49921, "pitch": 69, "duration": 49, "velocity": 100}, {"time": 49980, "pitch": 65, "duration": 10, "velocity": 60}, {"time": 49980, "pitch": 69, "duration": 10, "velocity": 60}, {"time": 50040, "pitch": 60, "duration": 10, "velocity": 90}, {"time": 50040, "pitch": 65, "duration": 10, "velocity": 90}, {"time": 50040, "pitch": 69, "duration": 10, "velocity": 90}, {"time": 50100, "pitch": 65, "duration": 160, "velocity": 60}, {"time": 50100, "pitch": 69, "duration": 160, "velocity": 60}, {"time": 50280, "pitch": 65, "duration": 20, "velocity": 60}, {"time": 50280, "pitch": 69, "duration": 20, "velocity": 60}, {"time": 50399, "pitch": 58, "duration": 80, "velocity": 80}, {"time": 50399, "pitch": 62, "duration": 80, "velocity": 80}, {"time": 50399, "pitch": 67, "duration": 20, "velocity": 60}, {"time": 50519, "pitch": 58, "duration": 20, "velocity": 60}, {"time": 50519, "pitch": 62, "duration": 20, "velocity": 60}, {"time": 50519, "pitch": 67, "duration": 20, "velocity": 60}, {"time": 50639, "pitch": 58, "duration": 20, "velocity": 60}, {"time": 50639, "pitch": 62, "duration": 20, "velocity": 60}, {"time": 50639, "pitch": 67, "duration": 20, "velocity": 60}, {"time": 50759, "pitch": 58, "duration": 20, "velocity": 60}, {"time": 50759, "pitch": 62, "duration": 20, "velocity": 60}, {"time": 50759, "pitch": 67, "duration": 20, "velocity": 60}, {"time": 50878, "pitch": 58, "duration": 51, "velocity": 100}, {"time": 50878, "pitch": 62, "duration": 51, "velocity": 100}, {"time": 50878, "pitch": 67, "duration": 51, "velocity": 100}, {"time": 50939, "pitch": 62, "duration": 10, "velocity": 60}, {"time": 50939, "pitch": 67, "duration": 10, "velocity": 60}, {"time": 50999, "pitch": 58, "duration": 10, "velocity": 90}, {"time": 50999, "pitch": 62, "duration": 10, "velocity": 90}, {"time": 50999, "pitch": 67, "duration": 10, "velocity": 90}, {"time": 51060, "pitch": 58, "duration": 161, "velocity": 60}, {"time": 51060, "pitch": 67, "duration": 161, "velocity": 60}, {"time": 51241, "pitch": 58, "duration": 81, "velocity": 80}, {"time": 51241, "pitch": 62, "duration": 81, "velocity": 80}, {"time": 51241, "pitch": 67, "duration": 20, "velocity": 60}, {"time": 51241, "pitch": 70, "duration": 20, "velocity": 60}, {"time": 51362, "pitch": 58, "duration": 20, "velocity": 60}, {"time": 51362, "pitch": 62, "duration": 20, "velocity": 60}, {"time": 51362, "pitch": 67, "duration": 20, "velocity": 60}, {"time": 51482, "pitch": 58, "duration": 20, "velocity": 60}, {"time": 51482, "pitch": 62, "duration": 20, "velocity": 60}, {"time": 51482, "pitch": 67, "duration": 20, "velocity": 60}, {"time": 51602, "pitch": 58, "duration": 19, "velocity": 60}, {"time": 51602, "pitch": 62, "duration": 19, "velocity": 60}, {"time": 51602, "pitch": 67, "duration": 19, "velocity": 60}, {"time": 51721, "pitch": 58, "duration": 20, "velocity": 60}, {"time": 51721, "pitch": 62, "duration": 20, "velocity": 60}, {"time": 51721, "pitch": 67, "duration": 20, "velocity": 60}, {"time": 51841, "pitch": 58, "duration": 50, "velocity": 100}, {"time": 51841, "pitch": 62, "duration": 50, "velocity": 100}, {"time": 51841, "pitch": 67, "duration": 50, "velocity": 100}, {"time": 51901, "pitch": 58, "duration": 10, "velocity": 60}, {"time": 51901, "pitch": 67, "duration": 10, "velocity": 60}, {"time": 51961, "pitch": 58, "duration": 10, "velocity": 90}, {"time": 51961, "pitch": 62, "duration": 10, "velocity": 90}, {"time": 51961, "pitch": 67, "duration": 10, "velocity": 90}, {"time": 52021, "pitch": 58, "duration": 159, "velocity": 60}, {"time": 52021, "pitch": 67, "duration": 159, "velocity": 60}, {"time": 52200, "pitch": 58, "duration": 20, "velocity": 60}, {"time": 52200, "pitch": 67, "duration": 20, "velocity": 60}, {"time": 52320, "pitch": 60, "duration": 80, "velocity": 80}, {"time": 52320, "pitch": 63, "duration": 80, "velocity": 80}, {"time": 52320, "pitch": 67, "duration": 20, "velocity": 60}, {"time": 52440, "pitch": 60, "duration": 19, "velocity": 60}, {"time": 52440, "pitch": 63, "duration": 19, "velocity": 60}, {"time": 52440, "pitch": 67, "duration": 19, "velocity": 60}, {"time": 52559, "pitch": 60, "duration": 20, "velocity": 60}, {"time": 52559, "pitch": 63, "duration": 20, "velocity": 60}, {"time": 52559, "pitch": 67, "duration": 20, "velocity": 60}, {"time": 52679, "pitch": 60, "duration": 20, "velocity": 60}, {"time": 52679, "pitch": 63, "duration": 20, "velocity": 60}, {"time": 52679, "pitch": 67, "duration": 20, "velocity": 60}, {"time": 52799, "pitch": 60, "duration": 50, "velocity": 100}, {"time": 52799, "pitch": 63, "duration": 50, "velocity": 100}, {"time": 52799, "pitch": 67, "duration": 50, "velocity": 100}, {"time": 52859, "pitch": 60, "duration": 10, "velocity": 60}, {"time": 52859, "pitch": 63, "duration": 10, "velocity": 60}, {"time": 52920, "pitch": 60, "duration": 10, "velocity": 90}, {"time": 52920, "pitch": 63, "duration": 10, "velocity": 90}, {"time": 52920, "pitch": 67, "duration": 10, "velocity": 90}, {"time": 52980, "pitch": 60, "duration": 161, "velocity": 60}, {"time": 52980, "pitch": 63, "duration": 161, "velocity": 60}, {"time": 53162, "pitch": 60, "duration": 20, "velocity": 60}, {"time": 53162, "pitch": 63, "duration": 80, "velocity": 80}, {"time": 53162, "pitch": 67, "duration": 80, "velocity": 80}, {"time": 53162, "pitch": 72, "duration": 20, "velocity": 60}, {"time": 53282, "pitch": 60, "duration": 20, "velocity": 60}, {"time": 53282, "pitch": 63, "duration": 20, "velocity": 60}, {"time": 53282, "pitch": 67, "duration": 20, "velocity": 60}, {"time": 53402, "pitch": 60, "duration": 20, "velocity": 60}, {"time": 53402, "pitch": 63, "duration": 20, "velocity": 60}, {"time": 53402, "pitch": 67, "duration": 20, "velocity": 60}, {"time": 53522, "pitch": 60, "duration": 20, "velocity": 60}, {"time": 53522, "pitch": 63, "duration": 20, "velocity": 60}, {"time": 53522, "pitch": 67, "duration": 20, "velocity": 60}, {"time": 53642, "pitch": 60, "duration": 20, "velocity": 60}, {"time": 53642, "pitch": 63, "duration": 20, "velocity": 60}, {"time": 53642, "pitch": 67, "duration": 20, "velocity": 60}, {"time": 53761, "pitch": 60, "duration": 50, "velocity": 100}, {"time": 53761, "pitch": 63, "duration": 50, "velocity": 100}, {"time": 53761, "pitch": 67, "duration": 50, "velocity": 100}, {"time": 53821, "pitch": 60, "duration": 10, "velocity": 60}, {"time": 53821, "pitch": 63, "duration": 10, "velocity": 60}, {"time": 53881, "pitch": 60, "duration": 10, "velocity": 90}, {"time": 53881, "pitch": 63, "duration": 10, "velocity": 90}, {"time": 53881, "pitch": 67, "duration": 10, "velocity": 90}, {"time": 53941, "pitch": 60, "duration": 159, "velocity": 60}, {"time": 53941, "pitch": 63, "duration": 159, "velocity": 60}, {"time": 54120, "pitch": 60, "duration": 20, "velocity": 60}, {"time": 54120, "pitch": 63, "duration": 20, "velocity": 60}, {"time": 54240, "pitch": 60, "duration": 80, "velocity": 80}, {"time": 54240, "pitch": 63, "duration": 80, "velocity": 80}, {"time": 54240, "pitch": 67, "duration": 20, "velocity": 60}, {"time": 54360, "pitch": 60, "duration": 20, "velocity": 60}, {"time": 54360, "pitch": 63, "duration": 20, "velocity": 60}, {"time": 54360, "pitch": 67, "duration": 20, "velocity": 60}, {"time": 54480, "pitch": 60, "duration": 20, "velocity": 60}, {"time": 54480, "pitch": 63, "duration": 20, "velocity": 60}, {"time": 54480, "pitch": 67, "duration": 20, "velocity": 60}, {"time": 54599, "pitch": 60, "duration": 20, "velocity": 60}, {"time": 54599, "pitch": 63, "duration": 20, "velocity": 60}, {"time": 54599, "pitch": 67, "duration": 20, "velocity": 60}, {"time": 54719, "pitch": 60, "duration": 50, "velocity": 100}, {"time": 54719, "pitch": 63, "duration": 50, "velocity": 100}, {"time": 54719, "pitch": 67, "duration": 50, "velocity": 100}, {"time": 54779, "pitch": 60, "duration": 10, "velocity": 60}, {"time": 54779, "pitch": 63, "duration": 10, "velocity": 60}, {"time": 54839, "pitch": 60, "duration": 10, "velocity": 90}, {"time": 54839, "pitch": 63, "duration": 10, "velocity": 90}, {"time": 54839, "pitch": 67, "duration": 10, "velocity": 90}, {"time": 54899, "pitch": 60, "duration": 159, "velocity": 60}, {"time": 54899, "pitch": 63, "duration": 159, "velocity": 60}, {"time": 55078, "pitch": 60, "duration": 20, "velocity": 60}, {"time": 55078, "pitch": 63, "duration": 80, "velocity": 80}, {"time": 55078, "pitch": 67, "duration": 80, "velocity": 80}, {"time": 55078, "pitch": 72, "duration": 20, "velocity": 60}, {"time": 55198, "pitch": 60, "duration": 20, "velocity": 60}, {"time": 55198, "pitch": 63, "duration": 20, "velocity": 60}, {"time": 55198, "pitch": 66, "duration": 20, "velocity": 60}, {"time": 55319, "pitch": 60, "duration": 20, "velocity": 60}, {"time": 55319, "pitch": 63, "duration": 20, "velocity": 60}, {"time": 55319, "pitch": 66, "duration": 20, "velocity": 60}, {"time": 55440, "pitch": 60, "duration": 20, "velocity": 60}, {"time": 55440, "pitch": 63, "duration": 20, "velocity": 60}, {"time": 55440, "pitch": 66, "duration": 20, "velocity": 60}, {"time": 55561, "pitch": 60, "duration": 20, "velocity": 60}, {"time": 55561, "pitch": 63, "duration": 20, "velocity": 60}, {"time": 55561, "pitch": 66, "duration": 20, "velocity": 60}, {"time": 55682, "pitch": 60, "duration": 50, "velocity": 100}, {"time": 55682, "pitch": 63, "duration": 50, "velocity": 100}, {"time": 55682, "pitch": 66, "duration": 50, "velocity": 100}, {"time": 55742, "pitch": 60, "duration": 9, "velocity": 60}, {"time": 55742, "pitch": 63, "duration": 9, "velocity": 60}, {"time": 55801, "pitch": 60, "duration": 10, "velocity": 90}, {"time": 55801, "pitch": 63, "duration": 10, "velocity": 90}, {"time": 55801, "pitch": 66, "duration": 10, "velocity": 90}, {"time": 55861, "pitch": 60, "duration": 160, "velocity": 60}, {"time": 55861, "pitch": 63, "duration": 160, "velocity": 60}, {"time": 56041, "pitch": 60, "duration": 20, "velocity": 60}, {"time": 56041, "pitch": 63, "duration": 20, "velocity": 60}, {"time": 56160, "pitch": 60, "duration": 80, "velocity": 80}, {"time": 56160, "pitch": 65, "duration": 80, "velocity": 80}, {"time": 56160, "pitch": 70, "duration": 20, "velocity": 60}, {"time": 56280, "pitch": 60, "duration": 20, "velocity": 60}, {"time": 56280, "pitch": 65, "duration": 20, "velocity": 60}, {"time": 56280, "pitch": 70, "duration": 20, "velocity": 60}, {"time": 56400, "pitch": 60, "duration": 20, "velocity": 60}, {"time": 56400, "pitch": 65, "duration": 20, "velocity": 60}, {"time": 56400, "pitch": 70, "duration": 20, "velocity": 60}, {"time": 56520, "pitch": 60, "duration": 20, "velocity": 60}, {"time": 56520, "pitch": 65, "duration": 20, "velocity": 60}, {"time": 56520, "pitch": 70, "duration": 20, "velocity": 60}, {"time": 56639, "pitch": 60, "duration": 50, "velocity": 100}, {"time": 56639, "pitch": 65, "duration": 50, "velocity": 100}, {"time": 56639, "pitch": 70, "duration": 50, "velocity": 100}, {"time": 56699, "pitch": 65, "duration": 10, "velocity": 60}, {"time": 56699, "pitch": 70, "duration": 10, "velocity": 60}, {"time": 56759, "pitch": 60, "duration": 10, "velocity": 90}, {"time": 56759, "pitch": 65, "duration": 10, "velocity": 90}, {"time": 56759, "pitch": 70, "duration": 10, "velocity": 90}, {"time": 56819, "pitch": 65, "duration": 160, "velocity": 60}, {"time": 56819, "pitch": 70, "duration": 160, "velocity": 60}, {"time": 56998, "pitch": 65, "duration": 20, "velocity": 60}, {"time": 56998, "pitch": 70, "duration": 20, "velocity": 60}, {"time": 57118, "pitch": 60, "duration": 81, "velocity": 80}, {"time": 57118, "pitch": 65, "duration": 81, "velocity": 80}, {"time": 57118, "pitch": 69, "duration": 20, "velocity": 60}, {"time": 57239, "pitch": 60, "duration": 20, "velocity": 60}, {"time": 57239, "pitch": 65, "duration": 20, "velocity": 60}, {"time": 57239, "pitch": 69, "duration": 20, "velocity": 60}, {"time": 57360, "pitch": 60, "duration": 20, "velocity": 60}, {"time": 57360, "pitch": 65, "duration": 20, "velocity": 60}, {"time": 57360, "pitch": 69, "duration": 20, "velocity": 60}, {"time": 57481, "pitch": 60, "duration": 20, "velocity": 60}, {"time": 57481, "pitch": 65, "duration": 20, "velocity": 60}, {"time": 57481, "pitch": 69, "duration": 20, "velocity": 60}, {"time": 57602, "pitch": 60, "duration": 50, "velocity": 100}, {"time": 57602, "pitch": 65, "duration": 50, "velocity": 100}, {"time": 57602, "pitch": 69, "duration": 50, "velocity": 100}, {"time": 57662, "pitch": 65, "duration": 10, "velocity": 60}, {"time": 57662, "pitch": 69, "duration": 10, "velocity": 60}, {"time": 57722, "pitch": 60, "duration": 10, "velocity": 90}, {"time": 57722, "pitch": 65, "duration": 10, "velocity": 90}, {"time": 57722, "pitch": 69, "duration": 10, "velocity": 90}, {"time": 57782, "pitch": 65, "duration": 159, "velocity": 60}, {"time": 57782, "pitch": 69, "duration": 159, "velocity": 60}, {"time": 57961, "pitch": 65, "duration": 20, "velocity": 60}, {"time": 57961, "pitch": 69, "duration": 20, "velocity": 60}, {"time": 58081, "pitch": 53, "duration": 40, "velocity": 80}, {"time": 58201, "pitch": 53, "duration": 79, "velocity": 60}, {"time": 58320, "pitch": 57, "duration": 40, "velocity": 80}, {"time": 58440, "pitch": 60, "duration": 60, "velocity": 60}, {"time": 58560, "pitch": 65, "duration": 40, "velocity": 90}, {"time": 58679, "pitch": 60, "duration": 40, "velocity": 80}, {"time": 58799, "pitch": 57, "duration": 50, "velocity": 60}, {"time": 58919, "pitch": 53, "duration": 40, "velocity": 40}, {"time": 59039, "pitch": 51, "duration": 40, "velocity": 80}, {"time": 59159, "pitch": 51, "duration": 51, "velocity": 50}, {"time": 59280, "pitch": 55, "duration": 41, "velocity": 80}, {"time": 59401, "pitch": 58, "duration": 41, "velocity": 60}, {"time": 59522, "pitch": 63, "duration": 40, "velocity": 90}, {"time": 59642, "pitch": 58, "duration": 50, "velocity": 80}, {"time": 59762, "pitch": 55, "duration": 40, "velocity": 60}, {"time": 59881, "pitch": 51, "duration": 40, "velocity": 80}, {"time": 60001, "pitch": 51, "duration": 40, "velocity": 80}, {"time": 60121, "pitch": 51, "duration": 50, "velocity": 50}, {"time": 60241, "pitch": 54, "duration": 40, "velocity": 80}, {"time": 60360, "pitch": 58, "duration": 40, "velocity": 60}, {"time": 60480, "pitch": 63, "duration": 40, "velocity": 90}, {"time": 60600, "pitch": 58, "duration": 50, "velocity": 80}, {"time": 60719, "pitch": 54, "duration": 40, "velocity": 60}, {"time": 60839, "pitch": 51, "duration": 40, "velocity": 80}, {"time": 60959, "pitch": 62, "duration": 239, "velocity": 90}, {"time": 61198, "pitch": 62, "duration": 100, "velocity": 70}, {"time": 61318, "pitch": 58, "duration": 80, "velocity": 60}, {"time": 61438, "pitch": 60, "duration": 80, "velocity": 70}, {"time": 61559, "pitch": 58, "duration": 242, "velocity": 80}, {"time": 81120, "pitch": 61, "duration": 80, "velocity": 80}, {"time": 81120, "pitch": 65, "duration": 80, "velocity": 80}, {"time": 81120, "pitch": 68, "duration": 20, "velocity": 60}, {"time": 81240, "pitch": 61, "duration": 20, "velocity": 60}, {"time": 81240, "pitch": 65, "duration": 20, "velocity": 60}, {"time": 81240, "pitch": 68, "duration": 20, "velocity": 60}, {"time": 81359, "pitch": 61, "duration": 20, "velocity": 60}, {"time": 81359, "pitch": 65, "duration": 20, "velocity": 60}, {"time": 81359, "pitch": 68, "duration": 20, "velocity": 60}, {"time": 81479, "pitch": 61, "duration": 20, "velocity": 60}, {"time": 81479, "pitch": 65, "duration": 20, "velocity": 60}, {"time": 81479, "pitch": 68, "duration": 20, "velocity": 60}, {"time": 81599, "pitch": 61, "duration": 50, "velocity": 100}, {"time": 81599, "pitch": 65, "duration": 50, "velocity": 100}, {"time": 81599, "pitch": 68, "duration": 50, "velocity": 100}, {"time": 81659, "pitch": 61, "duration": 10, "velocity": 60}, {"time": 81659, "pitch": 65, "duration": 10, "velocity": 60}, {"time": 81719, "pitch": 61, "duration": 10, "velocity": 90}, {"time": 81719, "pitch": 65, "duration": 10, "velocity": 90}, {"time": 81719, "pitch": 68, "duration": 10, "velocity": 90}, {"time": 81778, "pitch": 61, "duration": 160, "velocity": 60}, {"time": 81778, "pitch": 65, "duration": 160, "velocity": 60}, {"time": 81958, "pitch": 61, "duration": 20, "velocity": 60}, {"time": 81958, "pitch": 65, "duration": 20, "velocity": 60}, {"time": 82078, "pitch": 61, "duration": 80, "velocity": 80}, {"time": 82078, "pitch": 65, "duration": 80, "velocity": 80}, {"time": 82078, "pitch": 68, "duration": 20, "velocity": 60}, {"time": 82199, "pitch": 61, "duration": 20, "velocity": 60}, {"time": 82199, "pitch": 65, "duration": 20, "velocity": 60}, {"time": 82199, "pitch": 68, "duration": 20, "velocity": 60}, {"time": 82320, "pitch": 61, "duration": 20, "velocity": 60}, {"time": 82320, "pitch": 65, "duration": 20, "velocity": 60}, {"time": 82320, "pitch": 68, "duration": 20, "velocity": 60}, {"time": 82441, "pitch": 61, "duration": 20, "velocity": 60}, {"time": 82441, "pitch": 65, "duration": 20, "velocity": 60}, {"time": 82441, "pitch": 68, "duration": 20, "velocity": 60}, {"time": 82562, "pitch": 61, "duration": 49, "velocity": 100}, {"time": 82562, "pitch": 65, "duration": 49, "velocity": 100}, {"time": 82562, "pitch": 68, "duration": 49, "velocity": 100}, {"time": 82621, "pitch": 61, "duration": 10, "velocity": 60}, {"time": 82621, "pitch": 65, "duration": 10, "velocity": 60}, {"time": 82681, "pitch": 61, "duration": 10, "velocity": 90}, {"time": 82681, "pitch": 65, "duration": 10, "velocity": 90}, {"time": 82681, "pitch": 68, "duration": 10, "velocity": 90}, {"time": 82741, "pitch": 61, "duration": 160, "velocity": 60}, {"time": 82741, "pitch": 65, "duration": 160, "velocity": 60}, {"time": 82921, "pitch": 61, "duration": 20, "velocity": 60}, {"time": 82921, "pitch": 65, "duration": 20, "velocity": 60}, {"time": 83040, "pitch": 60, "duration": 80, "velocity": 80}, {"time": 83040, "pitch": 63, "duration": 80, "velocity": 80}, {"time": 83040, "pitch": 67, "duration": 20, "velocity": 60}, {"time": 83160, "pitch": 60, "duration": 20, "velocity": 60}, {"time": 83160, "pitch": 63, "duration": 20, "velocity": 60}, {"time": 83160, "pitch": 67, "duration": 20, "velocity": 60}, {"time": 83280, "pitch": 60, "duration": 20, "velocity": 60}, {"time": 83280, "pitch": 63, "duration": 20, "velocity": 60}, {"time": 83280, "pitch": 67, "duration": 20, "velocity": 60}, {"time": 83400, "pitch": 60, "duration": 19, "velocity": 60}, {"time": 83400, "pitch": 63, "duration": 19, "velocity": 60}, {"time": 83400, "pitch": 67, "duration": 19, "velocity": 60}, {"time": 83519, "pitch": 60, "duration": 50, "velocity": 100}, {"time": 83519, "pitch": 63, "duration": 50, "velocity": 100}, {"time": 83519, "pitch": 67, "duration": 50, "velocity": 100}, {"time": 83579, "pitch": 60, "duration": 10, "velocity": 60}, {"time": 83579, "pitch": 63, "duration": 10, "velocity": 60}, {"time": 83639, "pitch": 60, "duration": 10, "velocity": 90}, {"time": 83639, "pitch": 63, "duration": 10, "velocity": 90}, {"time": 83639, "pitch": 67, "duration": 10, "velocity": 90}, {"time": 83699, "pitch": 60, "duration": 159, "velocity": 60}, {"time": 83699, "pitch": 63, "duration": 159, "velocity": 60}, {"time": 83878, "pitch": 60, "duration": 20, "velocity": 60}, {"time": 83878, "pitch": 63, "duration": 20, "velocity": 60}, {"time": 83998, "pitch": 60, "duration": 81, "velocity": 80}, {"time": 83998, "pitch": 63, "duration": 81, "velocity": 80}, {"time": 83998, "pitch": 67, "duration": 20, "velocity": 60}, {"time": 84119, "pitch": 60, "duration": 20, "velocity": 60}, {"time": 84119, "pitch": 63, "duration": 20, "velocity": 60}, {"time": 84119, "pitch": 67, "duration": 20, "velocity": 60}, {"time": 84240, "pitch": 60, "duration": 20, "velocity": 60}, {"time": 84240, "pitch": 63, "duration": 20, "velocity": 60}, {"time": 84240, "pitch": 67, "duration": 20, "velocity": 60}, {"time": 84361, "pitch": 60, "duration": 20, "velocity": 60}, {"time": 84361, "pitch": 63, "duration": 20, "velocity": 60}, {"time": 84361, "pitch": 67, "duration": 20, "velocity": 60}, {"time": 84482, "pitch": 60, "duration": 50, "velocity": 100}, {"time": 84482, "pitch": 63, "duration": 50, "velocity": 100}, {"time": 84482, "pitch": 67, "duration": 50, "velocity": 100}, {"time": 84542, "pitch": 60, "duration": 10, "velocity": 60}, {"time": 84542, "pitch": 63, "duration": 10, "velocity": 60}, {"time": 84602, "pitch": 60, "duration": 10, "velocity": 90}, {"time": 84602, "pitch": 63, "duration": 10, "velocity": 90}, {"time": 84602, "pitch": 67, "duration": 10, "velocity": 90}, {"time": 84661, "pitch": 60, "duration": 160, "velocity": 60}, {"time": 84661, "pitch": 63, "duration": 160, "velocity": 60}, {"time": 84841, "pitch": 60, "duration": 20, "velocity": 60}, {"time": 84841, "pitch": 63, "duration": 20, "velocity": 60}, {"time": 84961, "pitch": 61, "duration": 80, "velocity": 80}, {"time": 84961, "pitch": 65, "duration": 80, "velocity": 80}, {"time": 84961, "pitch": 68, "duration": 20, "velocity": 60}, {"time": 85080, "pitch": 61, "duration": 20, "velocity": 60}, {"time": 85080, "pitch": 65, "duration": 20, "velocity": 60}, {"time": 85080, "pitch": 68, "duration": 20, "velocity": 60}, {"time": 85200, "pitch": 61, "duration": 20, "velocity": 60}, {"time": 85200, "pitch": 65, "duration": 20, "velocity": 60}, {"time": 85200, "pitch": 68, "duration": 20, "velocity": 60}, {"time": 85320, "pitch": 61, "duration": 20, "velocity": 60}, {"time": 85320, "pitch": 65, "duration": 20, "velocity": 60}, {"time": 85320, "pitch": 68, "duration": 20, "velocity": 60}, {"time": 85440, "pitch": 61, "duration": 49, "velocity": 100}, {"time": 85440, "pitch": 65, "duration": 49, "velocity": 100}, {"time": 85440, "pitch": 68, "duration": 49, "velocity": 100}, {"time": 85499, "pitch": 61, "duration": 10, "velocity": 60}, {"time": 85499, "pitch": 65, "duration": 10, "velocity": 60}, {"time": 85559, "pitch": 61, "duration": 10, "velocity": 90}, {"time": 85559, "pitch": 65, "duration": 10, "velocity": 90}, {"time": 85559, "pitch": 68, "duration": 10, "velocity": 90}, {"time": 85619, "pitch": 61, "duration": 160, "velocity": 60}, {"time": 85619, "pitch": 65, "duration": 160, "velocity": 60}, {"time": 85799, "pitch": 61, "duration": 20, "velocity": 60}, {"time": 85799, "pitch": 65, "duration": 20, "velocity": 60}, {"time": 85918, "pitch": 60, "duration": 81, "velocity": 80}, {"time": 85918, "pitch": 63, "duration": 81, "velocity": 80}, {"time": 85918, "pitch": 67, "duration": 21, "velocity": 60}, {"time": 86039, "pitch": 60, "duration": 21, "velocity": 60}, {"time": 86039, "pitch": 63, "duration": 21, "velocity": 60}, {"time": 86039, "pitch": 67, "duration": 21, "velocity": 60}, {"time": 86160, "pitch": 60, "duration": 21, "velocity": 60}, {"time": 86160, "pitch": 63, "duration": 21, "velocity": 60}, {"time": 86160, "pitch": 67, "duration": 21, "velocity": 60}, {"time": 86281, "pitch": 60, "duration": 20, "velocity": 60}, {"time": 86281, "pitch": 63, "duration": 20, "velocity": 60}, {"time": 86281, "pitch": 67, "duration": 20, "velocity": 60}, {"time": 86402, "pitch": 60, "duration": 50, "velocity": 100}, {"time": 86402, "pitch": 63, "duration": 50, "velocity": 100}, {"time": 86402, "pitch": 67, "duration": 50, "velocity": 100}, {"time": 86462, "pitch": 60, "duration": 10, "velocity": 60}, {"time": 86462, "pitch": 63, "duration": 10, "velocity": 60}, {"time": 86522, "pitch": 60, "duration": 10, "velocity": 90}, {"time": 86522, "pitch": 63, "duration": 10, "velocity": 90}, {"time": 86522, "pitch": 67, "duration": 10, "velocity": 90}, {"time": 86582, "pitch": 60, "duration": 159, "velocity": 60}, {"time": 86582, "pitch": 63, "duration": 159, "velocity": 60}, {"time": 86761, "pitch": 60, "duration": 20, "velocity": 60}, {"time": 86761, "pitch": 63, "duration": 20, "velocity": 60}, {"time": 86881, "pitch": 60, "duration": 80, "velocity": 80}, {"time": 86881, "pitch": 63, "duration": 80, "velocity": 80}, {"time": 86881, "pitch": 68, "duration": 20, "velocity": 60}, {"time": 87001, "pitch": 60, "duration": 20, "velocity": 60}, {"time": 87001, "pitch": 63, "duration": 20, "velocity": 60}, {"time": 87001, "pitch": 68, "duration": 20, "velocity": 60}, {"time": 87121, "pitch": 60, "duration": 19, "velocity": 60}, {"time": 87121, "pitch": 63, "duration": 19, "velocity": 60}, {"time": 87121, "pitch": 68, "duration": 19, "velocity": 60}, {"time": 87240, "pitch": 60, "duration": 20, "velocity": 60}, {"time": 87240, "pitch": 63, "duration": 20, "velocity": 60}, {"time": 87240, "pitch": 68, "duration": 20, "velocity": 60}, {"time": 87360, "pitch": 60, "duration": 50, "velocity": 100}, {"time": 87360, "pitch": 63, "duration": 50, "velocity": 100}, {"time": 87360, "pitch": 68, "duration": 50, "velocity": 100}, {"time": 87420, "pitch": 60, "duration": 10, "velocity": 60}, {"time": 87420, "pitch": 63, "duration": 10, "velocity": 60}, {"time": 87480, "pitch": 60, "duration": 10, "velocity": 90}, {"time": 87480, "pitch": 63, "duration": 10, "velocity": 90}, {"time": 87480, "pitch": 68, "duration": 10, "velocity": 90}, {"time": 87540, "pitch": 60, "duration": 159, "velocity": 60}, {"time": 87540, "pitch": 63, "duration": 159, "velocity": 60}, {"time": 87719, "pitch": 60, "duration": 20, "velocity": 60}, {"time": 87719, "pitch": 63, "duration": 20, "velocity": 60}, {"time": 87839, "pitch": 60, "duration": 80, "velocity": 80}, {"time": 87839, "pitch": 63, "duration": 80, "velocity": 80}, {"time": 87839, "pitch": 68, "duration": 20, "velocity": 60}, {"time": 87959, "pitch": 60, "duration": 19, "velocity": 60}, {"time": 87959, "pitch": 63, "duration": 19, "velocity": 60}, {"time": 87959, "pitch": 68, "duration": 19, "velocity": 60}, {"time": 88078, "pitch": 60, "duration": 20, "velocity": 60}, {"time": 88078, "pitch": 63, "duration": 20, "velocity": 60}, {"time": 88078, "pitch": 68, "duration": 20, "velocity": 60}, {"time": 88198, "pitch": 60, "duration": 20, "velocity": 60}, {"time": 88198, "pitch": 63, "duration": 20, "velocity": 60}, {"time": 88198, "pitch": 68, "duration": 20, "velocity": 60}, {"time": 88318, "pitch": 60, "duration": 50, "velocity": 100}, {"time": 88318, "pitch": 63, "duration": 50, "velocity": 100}, {"time": 88318, "pitch": 68, "duration": 50, "velocity": 100}, {"time": 88378, "pitch": 60, "duration": 10, "velocity": 60}, {"time": 88378, "pitch": 63, "duration": 10, "velocity": 60}, {"time": 88439, "pitch": 60, "duration": 10, "velocity": 90}, {"time": 88439, "pitch": 63, "duration": 10, "velocity": 90}, {"time": 88439, "pitch": 68, "duration": 10, "velocity": 90}, {"time": 88499, "pitch": 60, "duration": 161, "velocity": 60}, {"time": 88499, "pitch": 63, "duration": 161, "velocity": 60}, {"time": 88680, "pitch": 60, "duration": 21, "velocity": 60}, {"time": 88680, "pitch": 63, "duration": 21, "velocity": 60}, {"time": 88801, "pitch": 58, "duration": 80, "velocity": 80}, {"time": 88801, "pitch": 61, "duration": 80, "velocity": 80}, {"time": 88801, "pitch": 66, "duration": 20, "velocity": 60}, {"time": 88921, "pitch": 58, "duration": 20, "velocity": 60}, {"time": 88921, "pitch": 61, "duration": 20, "velocity": 60}, {"time": 88921, "pitch": 66, "duration": 20, "velocity": 60}, {"time": 89041, "pitch": 58, "duration": 20, "velocity": 60}, {"time": 89041, "pitch": 61, "duration": 20, "velocity": 60}, {"time": 89041, "pitch": 66, "duration": 20, "velocity": 60}, {"time": 89161, "pitch": 58, "duration": 20, "velocity": 60}, {"time": 89161, "pitch": 61, "duration": 20, "velocity": 60}, {"time": 89161, "pitch": 66, "duration": 20, "velocity": 60}, {"time": 89280, "pitch": 58, "duration": 50, "velocity": 100}, {"time": 89280, "pitch": 61, "duration": 50, "velocity": 100}, {"time": 89280, "pitch": 66, "duration": 50, "velocity": 100}, {"time": 89340, "pitch": 58, "duration": 10, "velocity": 60}, {"time": 89340, "pitch": 61, "duration": 10, "velocity": 60}, {"time": 89400, "pitch": 58, "duration": 10, "velocity": 90}, {"time": 89400, "pitch": 61, "duration": 10, "velocity": 90}, {"time": 89400, "pitch": 66, "duration": 10, "velocity": 90}, {"time": 89460, "pitch": 58, "duration": 159, "velocity": 60}, {"time": 89460, "pitch": 61, "duration": 159, "velocity": 60}, {"time": 89639, "pitch": 58, "duration": 20, "velocity": 60}, {"time": 89639, "pitch": 61, "duration": 80, "velocity": 80}, {"time": 89639, "pitch": 66, "duration": 80, "velocity": 80}, {"time": 89639, "pitch": 70, "duration": 20, "velocity": 60}, {"time": 89759, "pitch": 58, "duration": 20, "velocity": 60}, {"time": 89759, "pitch": 61, "duration": 20, "velocity": 60}, {"time": 89759, "pitch": 66, "duration": 20, "velocity": 60}, {"time": 89879, "pitch": 58, "duration": 20, "velocity": 60}, {"time": 89879, "pitch": 61, "duration": 20, "velocity": 60}, {"time": 89879, "pitch": 66, "duration": 20, "velocity": 60}, {"time": 89999, "pitch": 58, "duration": 20, "velocity": 60}, {"time": 89999, "pitch": 61, "duration": 20, "velocity": 60}, {"time": 89999, "pitch": 66, "duration": 20, "velocity": 60}, {"time": 90118, "pitch": 58, "duration": 20, "velocity": 60}, {"time": 90118, "pitch": 61, "duration": 20, "velocity": 60}, {"time": 90118, "pitch": 66, "duration": 20, "velocity": 60}, {"time": 90238, "pitch": 58, "duration": 50, "velocity": 100}, {"time": 90238, "pitch": 61, "duration": 50, "velocity": 100}, {"time": 90238, "pitch": 66, "duration": 50, "velocity": 100}, {"time": 90298, "pitch": 58, "duration": 11, "velocity": 60}, {"time": 90298, "pitch": 61, "duration": 11, "velocity": 60}, {"time": 90359, "pitch": 58, "duration": 10, "velocity": 90}, {"time": 90359, "pitch": 61, "duration": 10, "velocity": 90}, {"time": 90359, "pitch": 66, "duration": 10, "velocity": 90}, {"time": 90419, "pitch": 58, "duration": 162, "velocity": 60}, {"time": 90419, "pitch": 61, "duration": 162, "velocity": 60}, {"time": 90601, "pitch": 58, "duration": 20, "velocity": 60}, {"time": 90601, "pitch": 61, "duration": 20, "velocity": 60}, {"time": 90722, "pitch": 58, "duration": 80, "velocity": 80}, {"time": 90722, "pitch": 63, "duration": 80, "velocity": 80}, {"time": 90722, "pitch": 66, "duration": 20, "velocity": 60}, {"time": 90841, "pitch": 58, "duration": 20, "velocity": 60}, {"time": 90841, "pitch": 63, "duration": 20, "velocity": 60}, {"time": 90841, "pitch": 66, "duration": 20, "velocity": 60}, {"time": 90961, "pitch": 58, "duration": 20, "velocity": 60}, {"time": 90961, "pitch": 63, "duration": 20, "velocity": 60}, {"time": 90961, "pitch": 66, "duration": 20, "velocity": 60}, {"time": 91081, "pitch": 58, "duration": 20, "velocity": 60}, {"time": 91081, "pitch": 63, "duration": 20, "velocity": 60}, {"time": 91081, "pitch": 66, "duration": 20, "velocity": 60}, {"time": 91201, "pitch": 58, "duration": 50, "velocity": 100}, {"time": 91201, "pitch": 63, "duration": 50, "velocity": 100}, {"time": 91201, "pitch": 66, "duration": 50, "velocity": 100}, {"time": 91260, "pitch": 58, "duration": 10, "velocity": 60}, {"time": 91260, "pitch": 63, "duration": 10, "velocity": 60}, {"time": 91320, "pitch": 58, "duration": 10, "velocity": 90}, {"time": 91320, "pitch": 63, "duration": 10, "velocity": 90}, {"time": 91320, "pitch": 66, "duration": 10, "velocity": 90}, {"time": 91380, "pitch": 58, "duration": 160, "velocity": 60}, {"time": 91380, "pitch": 63, "duration": 160, "velocity": 60}, {"time": 91560, "pitch": 58, "duration": 20, "velocity": 60}, {"time": 91560, "pitch": 63, "duration": 80, "velocity": 80}, {"time": 91560, "pitch": 66, "duration": 80, "velocity": 80}, {"time": 91560, "pitch": 70, "duration": 20, "velocity": 60}, {"time": 91679, "pitch": 58, "duration": 20, "velocity": 60}, {"time": 91679, "pitch": 63, "duration": 20, "velocity": 60}, {"time": 91679, "pitch": 66, "duration": 20, "velocity": 60}, {"time": 91799, "pitch": 58, "duration": 20, "velocity": 60}, {"time": 91799, "pitch": 63, "duration": 20, "velocity": 60}, {"time": 91799, "pitch": 66, "duration": 20, "velocity": 60}, {"time": 91919, "pitch": 58, "duration": 20, "velocity": 60}, {"time": 91919, "pitch": 63, "duration": 20, "velocity": 60}, {"time": 91919, "pitch": 66, "duration": 20, "velocity": 60}, {"time": 92039, "pitch": 58, "duration": 20, "velocity": 60}, {"time": 92039, "pitch": 63, "duration": 20, "velocity": 60}, {"time": 92039, "pitch": 66, "duration": 20, "velocity": 60}, {"time": 92158, "pitch": 58, "duration": 51, "velocity": 100}, {"time": 92158, "pitch": 63, "duration": 51, "velocity": 100}, {"time": 92158, "pitch": 66, "duration": 51, "velocity": 100}, {"time": 92219, "pitch": 58, "duration": 10, "velocity": 60}, {"time": 92219, "pitch": 63, "duration": 10, "velocity": 60}, {"time": 92279, "pitch": 58, "duration": 10, "velocity": 90}, {"time": 92279, "pitch": 63, "duration": 10, "velocity": 90}, {"time": 92279, "pitch": 66, "duration": 10, "velocity": 90}, {"time": 92340, "pitch": 58, "duration": 161, "velocity": 60}, {"time": 92340, "pitch": 63, "duration": 161, "velocity": 60}, {"time": 92521, "pitch": 58, "duration": 20, "velocity": 60}, {"time": 92521, "pitch": 63, "duration": 20, "velocity": 60}, {"time": 92642, "pitch": 58, "duration": 80, "velocity": 80}, {"time": 92642, "pitch": 63, "duration": 80, "velocity": 80}, {"time": 92642, "pitch": 67, "duration": 20, "velocity": 60}, {"time": 92762, "pitch": 58, "duration": 20, "velocity": 60}, {"time": 92762, "pitch": 63, "duration": 20, "velocity": 60}, {"time": 92762, "pitch": 67, "duration": 20, "velocity": 60}, {"time": 92882, "pitch": 58, "duration": 20, "velocity": 60}, {"time": 92882, "pitch": 63, "duration": 20, "velocity": 60}, {"time": 92882, "pitch": 67, "duration": 20, "velocity": 60}, {"time": 93001, "pitch": 58, "duration": 20, "velocity": 60}, {"time": 93001, "pitch": 63, "duration": 20, "velocity": 60}, {"time": 93001, "pitch": 67, "duration": 20, "velocity": 60}, {"time": 93121, "pitch": 58, "duration": 50, "velocity": 100}, {"time": 93121, "pitch": 63, "duration": 50, "velocity": 100}, {"time": 93121, "pitch": 67, "duration": 50, "velocity": 100}, {"time": 93181, "pitch": 58, "duration": 10, "velocity": 60}, {"time": 93181, "pitch": 63, "duration": 10, "velocity": 60}, {"time": 93241, "pitch": 58, "duration": 10, "velocity": 90}, {"time": 93241, "pitch": 63, "duration": 10, "velocity": 90}, {"time": 93241, "pitch": 67, "duration": 10, "velocity": 90}, {"time": 93301, "pitch": 58, "duration": 159, "velocity": 60}, {"time": 93301, "pitch": 63, "duration": 159, "velocity": 60}, {"time": 93480, "pitch": 58, "duration": 20, "velocity": 60}, {"time": 93480, "pitch": 63, "duration": 80, "velocity": 80}, {"time": 93480, "pitch": 67, "duration": 80, "velocity": 80}, {"time": 93480, "pitch": 70, "duration": 20, "velocity": 60}, {"time": 93600, "pitch": 58, "duration": 20, "velocity": 60}, {"time": 93600, "pitch": 63, "duration": 20, "velocity": 60}, {"time": 93600, "pitch": 67, "duration": 20, "velocity": 60}, {"time": 93720, "pitch": 58, "duration": 19, "velocity": 60}, {"time": 93720, "pitch": 63, "duration": 19, "velocity": 60}, {"time": 93720, "pitch": 67, "duration": 19, "velocity": 60}, {"time": 93839, "pitch": 58, "duration": 20, "velocity": 60}, {"time": 93839, "pitch": 63, "duration": 20, "velocity": 60}, {"time": 93839, "pitch": 67, "duration": 20, "velocity": 60}, {"time": 93959, "pitch": 58, "duration": 20, "velocity": 60}, {"time": 93959, "pitch": 63, "duration": 20, "velocity": 60}, {"time": 93959, "pitch": 67, "duration": 20, "velocity": 60}, {"time": 94079, "pitch": 58, "duration": 50, "velocity": 100}, {"time": 94079, "pitch": 63, "duration": 50, "velocity": 100}, {"time": 94079, "pitch": 67, "duration": 50, "velocity": 100}, {"time": 94139, "pitch": 58, "duration": 10, "velocity": 60}, {"time": 94139, "pitch": 63, "duration": 10, "velocity": 60}, {"time": 94198, "pitch": 58, "duration": 10, "velocity": 90}, {"time": 94198, "pitch": 63, "duration": 10, "velocity": 90}, {"time": 94198, "pitch": 67, "duration": 10, "velocity": 90}, {"time": 94258, "pitch": 58, "duration": 160, "velocity": 60}, {"time": 94258, "pitch": 63, "duration": 160, "velocity": 60}, {"time": 94438, "pitch": 58, "duration": 20, "velocity": 60}, {"time": 94438, "pitch": 63, "duration": 20, "velocity": 60}, {"time": 94558, "pitch": 60, "duration": 80, "velocity": 80}, {"time": 94558, "pitch": 65, "duration": 80, "velocity": 80}, {"time": 94558, "pitch": 69, "duration": 20, "velocity": 60}, {"time": 94678, "pitch": 60, "duration": 21, "velocity": 60}, {"time": 94678, "pitch": 65, "duration": 21, "velocity": 60}, {"time": 94678, "pitch": 69, "duration": 21, "velocity": 60}, {"time": 94799, "pitch": 60, "duration": 21, "velocity": 60}, {"time": 94799, "pitch": 65, "duration": 21, "velocity": 60}, {"time": 94799, "pitch": 69, "duration": 21, "velocity": 60}, {"time": 94920, "pitch": 60, "duration": 21, "velocity": 60}, {"time": 94920, "pitch": 65, "duration": 21, "velocity": 60}, {"time": 94920, "pitch": 69, "duration": 21, "velocity": 60}, {"time": 95041, "pitch": 60, "duration": 50, "velocity": 100}, {"time": 95041, "pitch": 65, "duration": 50, "velocity": 100}, {"time": 95041, "pitch": 69, "duration": 50, "velocity": 100}, {"time": 95101, "pitch": 60, "duration": 10, "velocity": 60}, {"time": 95101, "pitch": 65, "duration": 10, "velocity": 60}, {"time": 95161, "pitch": 60, "duration": 10, "velocity": 90}, {"time": 95161, "pitch": 65, "duration": 10, "velocity": 90}, {"time": 95161, "pitch": 69, "duration": 10, "velocity": 90}, {"time": 95221, "pitch": 60, "duration": 160, "velocity": 60}, {"time": 95221, "pitch": 65, "duration": 160, "velocity": 60}, {"time": 95400, "pitch": 60, "duration": 20, "velocity": 60}, {"time": 95400, "pitch": 65, "duration": 20, "velocity": 60}, {"time": 95520, "pitch": 60, "duration": 80, "velocity": 80}, {"time": 95520, "pitch": 65, "duration": 80, "velocity": 80}, {"time": 95520, "pitch": 69, "duration": 20, "velocity": 60}, {"time": 95640, "pitch": 60, "duration": 20, "velocity": 60}, {"time": 95640, "pitch": 65, "duration": 20, "velocity": 60}, {"time": 95640, "pitch": 69, "duration": 20, "velocity": 60}, {"time": 95760, "pitch": 60, "duration": 20, "velocity": 60}, {"time": 95760, "pitch": 65, "duration": 20, "velocity": 60}, {"time": 95760, "pitch": 69, "duration": 20, "velocity": 60}, {"time": 95879, "pitch": 60, "duration": 20, "velocity": 60}, {"time": 95879, "pitch": 65, "duration": 20, "velocity": 60}, {"time": 95879, "pitch": 69, "duration": 20, "velocity": 60}, {"time": 95999, "pitch": 60, "duration": 50, "velocity": 100}, {"time": 95999, "pitch": 65, "duration": 50, "velocity": 100}, {"time": 95999, "pitch": 69, "duration": 50, "velocity": 100}, {"time": 96059, "pitch": 60, "duration": 10, "velocity": 60}, {"time": 96059, "pitch": 65, "duration": 10, "velocity": 60}, {"time": 96119, "pitch": 60, "duration": 10, "velocity": 90}, {"time": 96119, "pitch": 65, "duration": 10, "velocity": 90}, {"time": 96119, "pitch": 69, "duration": 10, "velocity": 90}, {"time": 96179, "pitch": 60, "duration": 159, "velocity": 60}, {"time": 96179, "pitch": 65, "duration": 159, "velocity": 60}, {"time": 96358, "pitch": 60, "duration": 20, "velocity": 60}, {"time": 96358, "pitch": 65, "duration": 20, "velocity": 60}, {"time": 110878, "pitch": 60, "duration": 1441, "velocity": 110}, {"time": 110878, "pitch": 65, "duration": 1441, "velocity": 110}, {"time": 110878, "pitch": 69, "duration": 1441, "velocity": 110}, {"time": 131039, "pitch": 58, "duration": 80, "velocity": 80}, {"time": 131039, "pitch": 62, "duration": 20, "velocity": 60}, {"time": 131039, "pitch": 65, "duration": 80, "velocity": 80}, {"time": 131159, "pitch": 58, "duration": 20, "velocity": 60}, {"time": 131159, "pitch": 62, "duration": 20, "velocity": 60}, {"time": 131159, "pitch": 65, "duration": 20, "velocity": 60}, {"time": 131279, "pitch": 58, "duration": 20, "velocity": 60}, {"time": 131279, "pitch": 62, "duration": 20, "velocity": 60}, {"time": 131279, "pitch": 65, "duration": 20, "velocity": 60}, {"time": 131398, "pitch": 58, "duration": 20, "velocity": 60}, {"time": 131398, "pitch": 62, "duration": 20, "velocity": 60}, {"time": 131398, "pitch": 65, "duration": 20, "velocity": 60}, {"time": 131518, "pitch": 58, "duration": 50, "velocity": 100}, {"time": 131518, "pitch": 62, "duration": 50, "velocity": 100}, {"time": 131518, "pitch": 65, "duration": 50, "velocity": 100}, {"time": 131578, "pitch": 62, "duration": 11, "velocity": 60}, {"time": 131578, "pitch": 65, "duration": 11, "velocity": 60}, {"time": 131639, "pitch": 58, "duration": 10, "velocity": 90}, {"time": 131639, "pitch": 62, "duration": 10, "velocity": 90}, {"time": 131639, "pitch": 65, "duration": 10, "velocity": 90}, {"time": 131699, "pitch": 62, "duration": 162, "velocity": 60}, {"time": 131699, "pitch": 65, "duration": 162, "velocity": 60}, {"time": 131881, "pitch": 62, "duration": 20, "velocity": 60}, {"time": 131881, "pitch": 65, "duration": 20, "velocity": 60}, {"time": 132002, "pitch": 58, "duration": 80, "velocity": 80}, {"time": 132002, "pitch": 62, "duration": 20, "velocity": 60}, {"time": 132002, "pitch": 65, "duration": 80, "velocity": 80}, {"time": 132122, "pitch": 58, "duration": 19, "velocity": 60}, {"time": 132122, "pitch": 62, "duration": 19, "velocity": 60}, {"time": 132122, "pitch": 65, "duration": 19, "velocity": 60}, {"time": 132241, "pitch": 58, "duration": 20, "velocity": 60}, {"time": 132241, "pitch": 62, "duration": 20, "velocity": 60}, {"time": 132241, "pitch": 65, "duration": 20, "velocity": 60}, {"time": 132361, "pitch": 58, "duration": 20, "velocity": 60}, {"time": 132361, "pitch": 62, "duration": 20, "velocity": 60}, {"time": 132361, "pitch": 65, "duration": 20, "velocity": 60}, {"time": 132481, "pitch": 58, "duration": 50, "velocity": 100}, {"time": 132481, "pitch": 62, "duration": 50, "velocity": 100}, {"time": 132481, "pitch": 65, "duration": 50, "velocity": 100}, {"time": 132541, "pitch": 62, "duration": 9, "velocity": 60}, {"time": 132541, "pitch": 65, "duration": 9, "velocity": 60}, {"time": 132600, "pitch": 58, "duration": 10, "velocity": 90}, {"time": 132600, "pitch": 62, "duration": 10, "velocity": 90}, {"time": 132600, "pitch": 65, "duration": 10, "velocity": 90}, {"time": 132660, "pitch": 62, "duration": 160, "velocity": 60}, {"time": 132660, "pitch": 65, "duration": 160, "velocity": 60}, {"time": 132840, "pitch": 62, "duration": 20, "velocity": 60}, {"time": 132840, "pitch": 65, "duration": 20, "velocity": 60}, {"time": 132960, "pitch": 57, "duration": 79, "velocity": 80}, {"time": 132960, "pitch": 60, "duration": 79, "velocity": 80}, {"time": 132960, "pitch": 64, "duration": 19, "velocity": 60}, {"time": 133079, "pitch": 57, "duration": 20, "velocity": 60}, {"time": 133079, "pitch": 60, "duration": 20, "velocity": 60}, {"time": 133079, "pitch": 64, "duration": 20, "velocity": 60}, {"time": 133199, "pitch": 57, "duration": 20, "velocity": 60}, {"time": 133199, "pitch": 60, "duration": 20, "velocity": 60}, {"time": 133199, "pitch": 64, "duration": 20, "velocity": 60}, {"time": 133319, "pitch": 57, "duration": 20, "velocity": 60}, {"time": 133319, "pitch": 60, "duration": 20, "velocity": 60}, {"time": 133319, "pitch": 64, "duration": 20, "velocity": 60}, {"time": 133438, "pitch": 57, "duration": 51, "velocity": 100}, {"time": 133438, "pitch": 60, "duration": 51, "velocity": 100}, {"time": 133438, "pitch": 64, "duration": 51, "velocity": 100}, {"time": 133499, "pitch": 60, "duration": 10, "velocity": 60}, {"time": 133499, "pitch": 64, "duration": 10, "velocity": 60}, {"time": 133559, "pitch": 57, "duration": 10, "velocity": 90}, {"time": 133559, "pitch": 60, "duration": 10, "velocity": 90}, {"time": 133559, "pitch": 64, "duration": 10, "velocity": 90}, {"time": 133620, "pitch": 60, "duration": 161, "velocity": 60}, {"time": 133620, "pitch": 64, "duration": 161, "velocity": 60}, {"time": 133801, "pitch": 60, "duration": 20, "velocity": 60}, {"time": 133801, "pitch": 64, "duration": 20, "velocity": 60}, {"time": 133922, "pitch": 57, "duration": 80, "velocity": 80}, {"time": 133922, "pitch": 60, "duration": 20, "velocity": 60}, {"time": 133922, "pitch": 64, "duration": 80, "velocity": 80}, {"time": 134042, "pitch": 57, "duration": 20, "velocity": 60}, {"time": 134042, "pitch": 60, "duration": 20, "velocity": 60}, {"time": 134042, "pitch": 64, "duration": 20, "velocity": 60}, {"time": 134162, "pitch": 57, "duration": 20, "velocity": 60}, {"time": 134162, "pitch": 60, "duration": 20, "velocity": 60}, {"time": 134162, "pitch": 64, "duration": 20, "velocity": 60}, {"time": 134281, "pitch": 57, "duration": 20, "velocity": 60}, {"time": 134281, "pitch": 60, "duration": 20, "velocity": 60}, {"time": 134281, "pitch": 64, "duration": 20, "velocity": 60}, {"time": 134401, "pitch": 57, "duration": 50, "velocity": 100}, {"time": 134401, "pitch": 60, "duration": 50, "velocity": 100}, {"time": 134401, "pitch": 64, "duration": 50, "velocity": 100}, {"time": 134461, "pitch": 60, "duration": 10, "velocity": 60}, {"time": 134461, "pitch": 64, "duration": 10, "velocity": 60}, {"time": 134521, "pitch": 57, "duration": 10, "velocity": 90}, {"time": 134521, "pitch": 60, "duration": 10, "velocity": 90}, {"time": 134521, "pitch": 64, "duration": 10, "velocity": 90}, {"time": 134581, "pitch": 60, "duration": 159, "velocity": 60}, {"time": 134581, "pitch": 64, "duration": 159, "velocity": 60}, {"time": 134760, "pitch": 60, "duration": 20, "velocity": 60}, {"time": 134760, "pitch": 64, "duration": 20, "velocity": 60}, {"time": 134880, "pitch": 58, "duration": 80, "velocity": 80}, {"time": 134880, "pitch": 62, "duration": 80, "velocity": 80}, {"time": 134880, "pitch": 65, "duration": 20, "velocity": 60}, {"time": 135000, "pitch": 58, "duration": 20, "velocity": 60}, {"time": 135000, "pitch": 62, "duration": 20, "velocity": 60}, {"time": 135000, "pitch": 65, "duration": 20, "velocity": 60}, {"time": 135119, "pitch": 58, "duration": 20, "velocity": 60}, {"time": 135119, "pitch": 62, "duration": 20, "velocity": 60}, {"time": 135119, "pitch": 65, "duration": 20, "velocity": 60}, {"time": 135239, "pitch": 58, "duration": 20, "velocity": 60}, {"time": 135239, "pitch": 62, "duration": 20, "velocity": 60}, {"time": 135239, "pitch": 65, "duration": 20, "velocity": 60}, {"time": 135359, "pitch": 58, "duration": 50, "velocity": 100}, {"time": 135359, "pitch": 62, "duration": 50, "velocity": 100}, {"time": 135359, "pitch": 65, "duration": 50, "velocity": 100}, {"time": 135419, "pitch": 62, "duration": 10, "velocity": 60}, {"time": 135419, "pitch": 65, "duration": 10, "velocity": 60}, {"time": 135478, "pitch": 58, "duration": 10, "velocity": 90}, {"time": 135478, "pitch": 62, "duration": 10, "velocity": 90}, {"time": 135478, "pitch": 65, "duration": 10, "velocity": 90}, {"time": 135538, "pitch": 62, "duration": 160, "velocity": 60}, {"time": 135538, "pitch": 65, "duration": 160, "velocity": 60}, {"time": 135718, "pitch": 62, "duration": 20, "velocity": 60}, {"time": 135718, "pitch": 65, "duration": 20, "velocity": 60}, {"time": 135838, "pitch": 60, "duration": 80, "velocity": 80}, {"time": 135838, "pitch": 64, "duration": 20, "velocity": 60}, {"time": 135838, "pitch": 67, "duration": 80, "velocity": 80}, {"time": 135958, "pitch": 60, "duration": 21, "velocity": 60}, {"time": 135958, "pitch": 64, "duration": 21, "velocity": 60}, {"time": 135958, "pitch": 67, "duration": 21, "velocity": 60}, {"time": 136079, "pitch": 60, "duration": 21, "velocity": 60}, {"time": 136079, "pitch": 64, "duration": 21, "velocity": 60}, {"time": 136079, "pitch": 67, "duration": 21, "velocity": 60}, {"time": 136200, "pitch": 60, "duration": 21, "velocity": 60}, {"time": 136200, "pitch": 64, "duration": 21, "velocity": 60}, {"time": 136200, "pitch": 67, "duration": 21, "velocity": 60}, {"time": 136321, "pitch": 60, "duration": 50, "velocity": 100}, {"time": 136321, "pitch": 64, "duration": 50, "velocity": 100}, {"time": 136321, "pitch": 67, "duration": 50, "velocity": 100}, {"time": 136381, "pitch": 60, "duration": 10, "velocity": 60}, {"time": 136381, "pitch": 64, "duration": 10, "velocity": 60}, {"time": 136441, "pitch": 60, "duration": 10, "velocity": 90}, {"time": 136441, "pitch": 64, "duration": 10, "velocity": 90}, {"time": 136441, "pitch": 67, "duration": 10, "velocity": 90}, {"time": 136501, "pitch": 60, "duration": 160, "velocity": 60}, {"time": 136501, "pitch": 64, "duration": 160, "velocity": 60}, {"time": 136680, "pitch": 60, "duration": 20, "velocity": 60}, {"time": 136680, "pitch": 64, "duration": 20, "velocity": 60}, {"time": 136800, "pitch": 60, "duration": 80, "velocity": 80}, {"time": 136800, "pitch": 65, "duration": 80, "velocity": 80}, {"time": 136800, "pitch": 69, "duration": 20, "velocity": 60}, {"time": 136920, "pitch": 60, "duration": 20, "velocity": 60}, {"time": 136920, "pitch": 65, "duration": 20, "velocity": 60}, {"time": 136920, "pitch": 69, "duration": 20, "velocity": 60}, {"time": 137040, "pitch": 60, "duration": 20, "velocity": 60}, {"time": 137040, "pitch": 65, "duration": 20, "velocity": 60}, {"time": 137040, "pitch": 69, "duration": 20, "velocity": 60}, {"time": 137159, "pitch": 60, "duration": 20, "velocity": 60}, {"time": 137159, "pitch": 65, "duration": 20, "velocity": 60}, {"time": 137159, "pitch": 69, "duration": 20, "velocity": 60}, {"time": 137279, "pitch": 60, "duration": 50, "velocity": 100}, {"time": 137279, "pitch": 65, "duration": 50, "velocity": 100}, {"time": 137279, "pitch": 69, "duration": 50, "velocity": 100}, {"time": 137339, "pitch": 65, "duration": 10, "velocity": 60}, {"time": 137339, "pitch": 69, "duration": 10, "velocity": 60}, {"time": 137399, "pitch": 60, "duration": 10, "velocity": 90}, {"time": 137399, "pitch": 65, "duration": 10, "velocity": 90}, {"time": 137399, "pitch": 69, "duration": 10, "velocity": 90}, {"time": 137459, "pitch": 65, "duration": 159, "velocity": 60}, {"time": 137459, "pitch": 69, "duration": 159, "velocity": 60}, {"time": 137638, "pitch": 65, "duration": 20, "velocity": 60}, {"time": 137638, "pitch": 69, "duration": 20, "velocity": 60}, {"time": 137758, "pitch": 60, "duration": 81, "velocity": 80}, {"time": 137758, "pitch": 65, "duration": 81, "velocity": 80}, {"time": 137758, "pitch": 69, "duration": 20, "velocity": 60}, {"time": 137879, "pitch": 60, "duration": 20, "velocity": 60}, {"time": 137879, "pitch": 65, "duration": 20, "velocity": 60}, {"time": 137879, "pitch": 69, "duration": 20, "velocity": 60}, {"time": 138000, "pitch": 60, "duration": 20, "velocity": 60}, {"time": 138000, "pitch": 65, "duration": 20, "velocity": 60}, {"time": 138000, "pitch": 69, "duration": 20, "velocity": 60}, {"time": 138121, "pitch": 60, "duration": 20, "velocity": 60}, {"time": 138121, "pitch": 65, "duration": 20, "velocity": 60}, {"time": 138121, "pitch": 69, "duration": 20, "velocity": 60}, {"time": 138242, "pitch": 60, "duration": 50, "velocity": 100}, {"time": 138242, "pitch": 65, "duration": 50, "velocity": 100}, {"time": 138242, "pitch": 69, "duration": 50, "velocity": 100}, {"time": 138302, "pitch": 65, "duration": 10, "velocity": 60}, {"time": 138302, "pitch": 69, "duration": 10, "velocity": 60}, {"time": 138361, "pitch": 60, "duration": 10, "velocity": 90}, {"time": 138361, "pitch": 65, "duration": 10, "velocity": 90}, {"time": 138361, "pitch": 69, "duration": 10, "velocity": 90}, {"time": 138421, "pitch": 65, "duration": 160, "velocity": 60}, {"time": 138421, "pitch": 69, "duration": 160, "velocity": 60}, {"time": 138601, "pitch": 65, "duration": 20, "velocity": 60}, {"time": 138601, "pitch": 69, "duration": 20, "velocity": 60}, {"time": 138721, "pitch": 58, "duration": 79, "velocity": 80}, {"time": 138721, "pitch": 62, "duration": 79, "velocity": 80}, {"time": 138721, "pitch": 67, "duration": 19, "velocity": 60}, {"time": 138840, "pitch": 58, "duration": 20, "velocity": 60}, {"time": 138840, "pitch": 62, "duration": 20, "velocity": 60}, {"time": 138840, "pitch": 67, "duration": 20, "velocity": 60}, {"time": 138960, "pitch": 58, "duration": 20, "velocity": 60}, {"time": 138960, "pitch": 62, "duration": 20, "velocity": 60}, {"time": 138960, "pitch": 67, "duration": 20, "velocity": 60}, {"time": 139080, "pitch": 58, "duration": 20, "velocity": 60}, {"time": 139080, "pitch": 62, "duration": 20, "velocity": 60}, {"time": 139080, "pitch": 67, "duration": 20, "velocity": 60}, {"time": 139199, "pitch": 58, "duration": 50, "velocity": 100}, {"time": 139199, "pitch": 62, "duration": 50, "velocity": 100}, {"time": 139199, "pitch": 67, "duration": 50, "velocity": 100}, {"time": 139259, "pitch": 62, "duration": 10, "velocity": 60}, {"time": 139259, "pitch": 67, "duration": 10, "velocity": 60}, {"time": 139319, "pitch": 58, "duration": 10, "velocity": 90}, {"time": 139319, "pitch": 62, "duration": 10, "velocity": 90}, {"time": 139319, "pitch": 67, "duration": 10, "velocity": 90}, {"time": 139379, "pitch": 58, "duration": 160, "velocity": 60}, {"time": 139379, "pitch": 67, "duration": 160, "velocity": 60}, {"time": 139559, "pitch": 58, "duration": 79, "velocity": 80}, {"time": 139559, "pitch": 62, "duration": 79, "velocity": 80}, {"time": 139559, "pitch": 67, "duration": 19, "velocity": 60}, {"time": 139559, "pitch": 70, "duration": 19, "velocity": 60}, {"time": 139678, "pitch": 58, "duration": 20, "velocity": 60}, {"time": 139678, "pitch": 62, "duration": 20, "velocity": 60}, {"time": 139678, "pitch": 67, "duration": 20, "velocity": 60}, {"time": 139799, "pitch": 58, "duration": 20, "velocity": 60}, {"time": 139799, "pitch": 62, "duration": 20, "velocity": 60}, {"time": 139799, "pitch": 67, "duration": 20, "velocity": 60}, {"time": 139920, "pitch": 58, "duration": 20, "velocity": 60}, {"time": 139920, "pitch": 62, "duration": 20, "velocity": 60}, {"time": 139920, "pitch": 67, "duration": 20, "velocity": 60}, {"time": 140041, "pitch": 58, "duration": 20, "velocity": 60}, {"time": 140041, "pitch": 62, "duration": 20, "velocity": 60}, {"time": 140041, "pitch": 67, "duration": 20, "velocity": 60}, {"time": 140162, "pitch": 58, "duration": 50, "velocity": 100}, {"time": 140162, "pitch": 62, "duration": 50, "velocity": 100}, {"time": 140162, "pitch": 67, "duration": 50, "velocity": 100}, {"time": 140222, "pitch": 58, "duration": 10, "velocity": 60}, {"time": 140222, "pitch": 67, "duration": 10, "velocity": 60}, {"time": 140282, "pitch": 58, "duration": 10, "velocity": 90}, {"time": 140282, "pitch": 62, "duration": 10, "velocity": 90}, {"time": 140282, "pitch": 67, "duration": 10, "velocity": 90}, {"time": 140342, "pitch": 58, "duration": 159, "velocity": 60}, {"time": 140342, "pitch": 67, "duration": 159, "velocity": 60}, {"time": 140521, "pitch": 58, "duration": 20, "velocity": 60}, {"time": 140521, "pitch": 67, "duration": 20, "velocity": 60}, {"time": 140641, "pitch": 60, "duration": 80, "velocity": 80}, {"time": 140641, "pitch": 63, "duration": 80, "velocity": 80}, {"time": 140641, "pitch": 67, "duration": 20, "velocity": 60}, {"time": 140761, "pitch": 60, "duration": 20, "velocity": 60}, {"time": 140761, "pitch": 63, "duration": 20, "velocity": 60}, {"time": 140761, "pitch": 67, "duration": 20, "velocity": 60}, {"time": 140880, "pitch": 60, "duration": 20, "velocity": 60}, {"time": 140880, "pitch": 63, "duration": 20, "velocity": 60}, {"time": 140880, "pitch": 67, "duration": 20, "velocity": 60}, {"time": 141000, "pitch": 60, "duration": 20, "velocity": 60}, {"time": 141000, "pitch": 63, "duration": 20, "velocity": 60}, {"time": 141000, "pitch": 67, "duration": 20, "velocity": 60}, {"time": 141120, "pitch": 60, "duration": 50, "velocity": 100}, {"time": 141120, "pitch": 63, "duration": 50, "velocity": 100}, {"time": 141120, "pitch": 67, "duration": 50, "velocity": 100}, {"time": 141180, "pitch": 60, "duration": 10, "velocity": 60}, {"time": 141180, "pitch": 63, "duration": 10, "velocity": 60}, {"time": 141239, "pitch": 60, "duration": 10, "velocity": 90}, {"time": 141239, "pitch": 63, "duration": 10, "velocity": 90}, {"time": 141239, "pitch": 67, "duration": 10, "velocity": 90}, {"time": 141299, "pitch": 60, "duration": 160, "velocity": 60}, {"time": 141299, "pitch": 63, "duration": 160, "velocity": 60}, {"time": 141479, "pitch": 60, "duration": 20, "velocity": 60}, {"time": 141479, "pitch": 63, "duration": 80, "velocity": 80}, {"time": 141479, "pitch": 67, "duration": 80, "velocity": 80}, {"time": 141479, "pitch": 72, "duration": 20, "velocity": 60}, {"time": 141599, "pitch": 60, "duration": 20, "velocity": 60}, {"time": 141599, "pitch": 63, "duration": 20, "velocity": 60}, {"time": 141599, "pitch": 67, "duration": 20, "velocity": 60}, {"time": 141720, "pitch": 60, "duration": 20, "velocity": 60}, {"time": 141720, "pitch": 63, "duration": 20, "velocity": 60}, {"time": 141720, "pitch": 67, "duration": 20, "velocity": 60}, {"time": 141840, "pitch": 60, "duration": 21, "velocity": 60}, {"time": 141840, "pitch": 63, "duration": 21, "velocity": 60}, {"time": 141840, "pitch": 67, "duration": 21, "velocity": 60}, {"time": 141961, "pitch": 60, "duration": 21, "velocity": 60}, {"time": 141961, "pitch": 63, "duration": 21, "velocity": 60}, {"time": 141961, "pitch": 67, "duration": 21, "velocity": 60}, {"time": 142082, "pitch": 60, "duration": 50, "velocity": 100}, {"time": 142082, "pitch": 63, "duration": 50, "velocity": 100}, {"time": 142082, "pitch": 67, "duration": 50, "velocity": 100}, {"time": 142142, "pitch": 60, "duration": 10, "velocity": 60}, {"time": 142142, "pitch": 63, "duration": 10, "velocity": 60}, {"time": 142202, "pitch": 60, "duration": 10, "velocity": 90}, {"time": 142202, "pitch": 63, "duration": 10, "velocity": 90}, {"time": 142202, "pitch": 67, "duration": 10, "velocity": 90}, {"time": 142262, "pitch": 60, "duration": 160, "velocity": 60}, {"time": 142262, "pitch": 63, "duration": 160, "velocity": 60}, {"time": 142442, "pitch": 60, "duration": 19, "velocity": 60}, {"time": 142442, "pitch": 63, "duration": 19, "velocity": 60}, {"time": 142561, "pitch": 60, "duration": 80, "velocity": 80}, {"time": 142561, "pitch": 63, "duration": 80, "velocity": 80}, {"time": 142561, "pitch": 67, "duration": 20, "velocity": 60}, {"time": 142681, "pitch": 60, "duration": 20, "velocity": 60}, {"time": 142681, "pitch": 63, "duration": 20, "velocity": 60}, {"time": 142681, "pitch": 67, "duration": 20, "velocity": 60}, {"time": 142801, "pitch": 60, "duration": 20, "velocity": 60}, {"time": 142801, "pitch": 63, "duration": 20, "velocity": 60}, {"time": 142801, "pitch": 67, "duration": 20, "velocity": 60}, {"time": 142920, "pitch": 60, "duration": 20, "velocity": 60}, {"time": 142920, "pitch": 63, "duration": 20, "velocity": 60}, {"time": 142920, "pitch": 67, "duration": 20, "velocity": 60}, {"time": 143040, "pitch": 60, "duration": 50, "velocity": 100}, {"time": 143040, "pitch": 63, "duration": 50, "velocity": 100}, {"time": 143040, "pitch": 67, "duration": 50, "velocity": 100}, {"time": 143100, "pitch": 60, "duration": 10, "velocity": 60}, {"time": 143100, "pitch": 63, "duration": 10, "velocity": 60}, {"time": 143160, "pitch": 60, "duration": 10, "velocity": 90}, {"time": 143160, "pitch": 63, "duration": 10, "velocity": 90}, {"time": 143160, "pitch": 67, "duration": 10, "velocity": 90}, {"time": 143220, "pitch": 60, "duration": 159, "velocity": 60}, {"time": 143220, "pitch": 63, "duration": 159, "velocity": 60}, {"time": 143399, "pitch": 60, "duration": 20, "velocity": 60}, {"time": 143399, "pitch": 63, "duration": 80, "velocity": 80}, {"time": 143399, "pitch": 67, "duration": 80, "velocity": 80}, {"time": 143399, "pitch": 72, "duration": 20, "velocity": 60}, {"time": 143519, "pitch": 60, "duration": 20, "velocity": 60}, {"time": 143519, "pitch": 63, "duration": 20, "velocity": 60}, {"time": 143519, "pitch": 66, "duration": 20, "velocity": 60}, {"time": 143639, "pitch": 60, "duration": 20, "velocity": 60}, {"time": 143639, "pitch": 63, "duration": 20, "velocity": 60}, {"time": 143639, "pitch": 66, "duration": 20, "velocity": 60}, {"time": 143758, "pitch": 60, "duration": 20, "velocity": 60}, {"time": 143758, "pitch": 63, "duration": 20, "velocity": 60}, {"time": 143758, "pitch": 66, "duration": 20, "velocity": 60}, {"time": 143878, "pitch": 60, "duration": 20, "velocity": 60}, {"time": 143878, "pitch": 63, "duration": 20, "velocity": 60}, {"time": 143878, "pitch": 66, "duration": 20, "velocity": 60}, {"time": 143998, "pitch": 60, "duration": 50, "velocity": 100}, {"time": 143998, "pitch": 63, "duration": 50, "velocity": 100}, {"time": 143998, "pitch": 66, "duration": 50, "velocity": 100}, {"time": 144058, "pitch": 60, "duration": 10, "velocity": 60}, {"time": 144058, "pitch": 63, "duration": 10, "velocity": 60}, {"time": 144119, "pitch": 60, "duration": 10, "velocity": 90}, {"time": 144119, "pitch": 63, "duration": 10, "velocity": 90}, {"time": 144119, "pitch": 66, "duration": 10, "velocity": 90}, {"time": 144179, "pitch": 60, "duration": 161, "velocity": 60}, {"time": 144179, "pitch": 63, "duration": 161, "velocity": 60}, {"time": 144361, "pitch": 60, "duration": 20, "velocity": 60}, {"time": 144361, "pitch": 63, "duration": 20, "velocity": 60}, {"time": 144482, "pitch": 60, "duration": 79, "velocity": 80}, {"time": 144482, "pitch": 65, "duration": 79, "velocity": 80}, {"time": 144482, "pitch": 70, "duration": 20, "velocity": 60}, {"time": 144601, "pitch": 60, "duration": 20, "velocity": 60}, {"time": 144601, "pitch": 65, "duration": 20, "velocity": 60}, {"time": 144601, "pitch": 70, "duration": 20, "velocity": 60}, {"time": 144721, "pitch": 60, "duration": 20, "velocity": 60}, {"time": 144721, "pitch": 65, "duration": 20, "velocity": 60}, {"time": 144721, "pitch": 70, "duration": 20, "velocity": 60}, {"time": 144841, "pitch": 60, "duration": 20, "velocity": 60}, {"time": 144841, "pitch": 65, "duration": 20, "velocity": 60}, {"time": 144841, "pitch": 70, "duration": 20, "velocity": 60}, {"time": 144960, "pitch": 60, "duration": 50, "velocity": 100}, {"time": 144960, "pitch": 65, "duration": 50, "velocity": 100}, {"time": 144960, "pitch": 70, "duration": 50, "velocity": 100}, {"time": 145020, "pitch": 65, "duration": 10, "velocity": 60}, {"time": 145020, "pitch": 70, "duration": 10, "velocity": 60}, {"time": 145080, "pitch": 60, "duration": 10, "velocity": 90}, {"time": 145080, "pitch": 65, "duration": 10, "velocity": 90}, {"time": 145080, "pitch": 70, "duration": 10, "velocity": 90}, {"time": 145140, "pitch": 65, "duration": 160, "velocity": 60}, {"time": 145140, "pitch": 70, "duration": 160, "velocity": 60}, {"time": 145320, "pitch": 65, "duration": 20, "velocity": 60}, {"time": 145320, "pitch": 70, "duration": 20, "velocity": 60}, {"time": 145439, "pitch": 60, "duration": 80, "velocity": 80}, {"time": 145439, "pitch": 65, "duration": 80, "velocity": 80}, {"time": 145439, "pitch": 69, "duration": 20, "velocity": 60}, {"time": 145559, "pitch": 60, "duration": 20, "velocity": 60}, {"time": 145559, "pitch": 65, "duration": 20, "velocity": 60}, {"time": 145559, "pitch": 69, "duration": 20, "velocity": 60}, {"time": 145679, "pitch": 60, "duration": 20, "velocity": 60}, {"time": 145679, "pitch": 65, "duration": 20, "velocity": 60}, {"time": 145679, "pitch": 69, "duration": 20, "velocity": 60}, {"time": 145798, "pitch": 60, "duration": 20, "velocity": 60}, {"time": 145798, "pitch": 65, "duration": 20, "velocity": 60}, {"time": 145798, "pitch": 69, "duration": 20, "velocity": 60}, {"time": 145918, "pitch": 60, "duration": 51, "velocity": 100}, {"time": 145918, "pitch": 65, "duration": 51, "velocity": 100}, {"time": 145918, "pitch": 69, "duration": 51, "velocity": 100}, {"time": 145979, "pitch": 65, "duration": 10, "velocity": 60}, {"time": 145979, "pitch": 69, "duration": 10, "velocity": 60}, {"time": 146039, "pitch": 60, "duration": 10, "velocity": 90}, {"time": 146039, "pitch": 65, "duration": 10, "velocity": 90}, {"time": 146039, "pitch": 69, "duration": 10, "velocity": 90}, {"time": 146100, "pitch": 65, "duration": 161, "velocity": 60}, {"time": 146100, "pitch": 69, "duration": 161, "velocity": 60}, {"time": 146281, "pitch": 65, "duration": 20, "velocity": 60}, {"time": 146281, "pitch": 69, "duration": 20, "velocity": 60}, {"time": 146402, "pitch": 53, "duration": 40, "velocity": 80}, {"time": 146522, "pitch": 53, "duration": 79, "velocity": 60}, {"time": 146641, "pitch": 57, "duration": 40, "velocity": 80}, {"time": 146761, "pitch": 60, "duration": 60, "velocity": 60}, {"time": 146881, "pitch": 65, "duration": 40, "velocity": 90}, {"time": 147000, "pitch": 60, "duration": 40, "velocity": 80}, {"time": 147120, "pitch": 57, "duration": 50, "velocity": 60}, {"time": 147240, "pitch": 53, "duration": 40, "velocity": 40}, {"time": 147360, "pitch": 51, "duration": 40, "velocity": 80}, {"time": 147479, "pitch": 51, "duration": 50, "velocity": 50}, {"time": 147599, "pitch": 55, "duration": 40, "velocity": 80}, {"time": 147719, "pitch": 58, "duration": 40, "velocity": 60}, {"time": 147838, "pitch": 63, "duration": 41, "velocity": 90}, {"time": 147959, "pitch": 58, "duration": 51, "velocity": 80}, {"time": 148080, "pitch": 55, "duration": 41, "velocity": 60}, {"time": 148201, "pitch": 51, "duration": 41, "velocity": 80}, {"time": 148322, "pitch": 51, "duration": 40, "velocity": 80}, {"time": 148442, "pitch": 51, "duration": 50, "velocity": 50}, {"time": 148562, "pitch": 54, "duration": 40, "velocity": 80}, {"time": 148681, "pitch": 58, "duration": 40, "velocity": 60}, {"time": 148801, "pitch": 63, "duration": 40, "velocity": 90}, {"time": 148921, "pitch": 58, "duration": 50, "velocity": 80}, {"time": 149041, "pitch": 54, "duration": 39, "velocity": 60}, {"time": 149160, "pitch": 51, "duration": 40, "velocity": 80}, {"time": 149280, "pitch": 62, "duration": 239, "velocity": 90}, {"time": 149519, "pitch": 62, "duration": 100, "velocity": 70}, {"time": 149639, "pitch": 58, "duration": 80, "velocity": 60}, {"time": 149759, "pitch": 60, "duration": 80, "velocity": 70}, {"time": 149879, "pitch": 58, "duration": 239, "velocity": 80}, {"time": 23520, "pitch": 69, "duration": 99, "velocity": 100}, {"time": 23520, "pitch": 72, "duration": 99, "velocity": 100}, {"time": 23520, "pitch": 77, "duration": 99, "velocity": 100}, {"time": 23639, "pitch": 69, "duration": 100, "velocity": 80}, {"time": 23639, "pitch": 72, "duration": 100, "velocity": 80}, {"time": 23639, "pitch": 77, "duration": 100, "velocity": 80}, {"time": 23759, "pitch": 69, "duration": 100, "velocity": 64}, {"time": 23759, "pitch": 72, "duration": 100, "velocity": 64}, {"time": 23759, "pitch": 77, "duration": 100, "velocity": 64}, {"time": 23879, "pitch": 69, "duration": 99, "velocity": 45}, {"time": 23879, "pitch": 72, "duration": 99, "velocity": 45}, {"time": 23879, "pitch": 77, "duration": 99, "velocity": 45}, {"time": 25440, "pitch": 66, "duration": 100, "velocity": 100}, {"time": 25440, "pitch": 70, "duration": 100, "velocity": 100}, {"time": 25440, "pitch": 75, "duration": 100, "velocity": 100}, {"time": 25560, "pitch": 66, "duration": 99, "velocity": 80}, {"time": 25560, "pitch": 70, "duration": 99, "velocity": 80}, {"time": 25560, "pitch": 75, "duration": 99, "velocity": 80}, {"time": 25679, "pitch": 66, "duration": 100, "velocity": 64}, {"time": 25679, "pitch": 70, "duration": 100, "velocity": 64}, {"time": 25679, "pitch": 75, "duration": 100, "velocity": 64}, {"time": 25799, "pitch": 66, "duration": 100, "velocity": 45}, {"time": 25799, "pitch": 70, "duration": 100, "velocity": 45}, {"time": 25799, "pitch": 75, "duration": 100, "velocity": 45}, {"time": 111841, "pitch": 69, "duration": 99, "velocity": 100}, {"time": 111841, "pitch": 72, "duration": 99, "velocity": 100}, {"time": 111841, "pitch": 77, "duration": 99, "velocity": 100}, {"time": 111960, "pitch": 69, "duration": 100, "velocity": 80}, {"time": 111960, "pitch": 72, "duration": 100, "velocity": 80}, {"time": 111960, "pitch": 77, "duration": 100, "velocity": 80}, {"time": 112080, "pitch": 69, "duration": 100, "velocity": 64}, {"time": 112080, "pitch": 72, "duration": 100, "velocity": 64}, {"time": 112080, "pitch": 77, "duration": 100, "velocity": 64}, {"time": 112200, "pitch": 69, "duration": 100, "velocity": 45}, {"time": 112200, "pitch": 72, "duration": 100, "velocity": 45}, {"time": 112200, "pitch": 77, "duration": 100, "velocity": 45}, {"time": 113761, "pitch": 66, "duration": 100, "velocity": 100}, {"time": 113761, "pitch": 70, "duration": 100, "velocity": 100}, {"time": 113761, "pitch": 75, "duration": 100, "velocity": 100}, {"time": 113881, "pitch": 66, "duration": 99, "velocity": 80}, {"time": 113881, "pitch": 70, "duration": 99, "velocity": 80}, {"time": 113881, "pitch": 75, "duration": 99, "velocity": 80}, {"time": 114000, "pitch": 66, "duration": 100, "velocity": 64}, {"time": 114000, "pitch": 70, "duration": 100, "velocity": 64}, {"time": 114000, "pitch": 75, "duration": 100, "velocity": 64}, {"time": 114120, "pitch": 66, "duration": 100, "velocity": 45}, {"time": 114120, "pitch": 70, "duration": 100, "velocity": 45}, {"time": 114120, "pitch": 75, "duration": 100, "velocity": 45}, {"time": 42718, "pitch": 58, "duration": 353, "velocity": 115}, {"time": 42718, "pitch": 62, "duration": 353, "velocity": 115}, {"time": 42718, "pitch": 65, "duration": 353, "velocity": 115}, {"time": 42718, "pitch": 69, "duration": 353, "velocity": 115}, {"time": 43081, "pitch": 62, "duration": 81, "velocity": 125}, {"time": 43081, "pitch": 65, "duration": 81, "velocity": 125}, {"time": 43081, "pitch": 69, "duration": 81, "velocity": 125}, {"time": 43202, "pitch": 65, "duration": 20, "velocity": 75}, {"time": 43202, "pitch": 69, "duration": 20, "velocity": 75}, {"time": 43322, "pitch": 65, "duration": 20, "velocity": 75}, {"time": 43322, "pitch": 69, "duration": 20, "velocity": 75}, {"time": 43441, "pitch": 65, "duration": 20, "velocity": 75}, {"time": 43441, "pitch": 69, "duration": 20, "velocity": 75}, {"time": 43561, "pitch": 62, "duration": 80, "velocity": 115}, {"time": 43561, "pitch": 65, "duration": 80, "velocity": 115}, {"time": 43561, "pitch": 69, "duration": 80, "velocity": 115}, {"time": 43681, "pitch": 65, "duration": 30, "velocity": 75}, {"time": 43681, "pitch": 69, "duration": 30, "velocity": 75}, {"time": 43800, "pitch": 58, "duration": 220, "velocity": 75}, {"time": 43800, "pitch": 62, "duration": 220, "velocity": 105}, {"time": 43800, "pitch": 65, "duration": 220, "velocity": 105}, {"time": 43800, "pitch": 69, "duration": 220, "velocity": 105}, {"time": 44040, "pitch": 62, "duration": 120, "velocity": 65}, {"time": 44040, "pitch": 65, "duration": 120, "velocity": 65}, {"time": 44040, "pitch": 69, "duration": 120, "velocity": 65}, {"time": 44160, "pitch": 62, "duration": 119, "velocity": 115}, {"time": 44160, "pitch": 65, "duration": 119, "velocity": 115}, {"time": 44160, "pitch": 69, "duration": 119, "velocity": 115}, {"time": 44399, "pitch": 65, "duration": 20, "velocity": 75}, {"time": 44399, "pitch": 69, "duration": 20, "velocity": 75}, {"time": 44519, "pitch": 65, "duration": 20, "velocity": 75}, {"time": 44519, "pitch": 69, "duration": 20, "velocity": 75}, {"time": 44638, "pitch": 57, "duration": 353, "velocity": 115}, {"time": 44638, "pitch": 60, "duration": 353, "velocity": 115}, {"time": 44638, "pitch": 64, "duration": 353, "velocity": 115}, {"time": 44638, "pitch": 67, "duration": 353, "velocity": 115}, {"time": 45001, "pitch": 60, "duration": 81, "velocity": 125}, {"time": 45001, "pitch": 64, "duration": 81, "velocity": 125}, {"time": 45001, "pitch": 67, "duration": 81, "velocity": 125}, {"time": 45122, "pitch": 64, "duration": 20, "velocity": 75}, {"time": 45122, "pitch": 67, "duration": 20, "velocity": 75}, {"time": 45242, "pitch": 64, "duration": 20, "velocity": 75}, {"time": 45242, "pitch": 67, "duration": 20, "velocity": 75}, {"time": 45362, "pitch": 64, "duration": 20, "velocity": 75}, {"time": 45362, "pitch": 67, "duration": 20, "velocity": 75}, {"time": 45481, "pitch": 60, "duration": 80, "velocity": 115}, {"time": 45481, "pitch": 64, "duration": 80, "velocity": 115}, {"time": 45481, "pitch": 67, "duration": 80, "velocity": 115}, {"time": 45601, "pitch": 64, "duration": 30, "velocity": 75}, {"time": 45601, "pitch": 67, "duration": 30, "velocity": 75}, {"time": 45721, "pitch": 57, "duration": 219, "velocity": 75}, {"time": 45721, "pitch": 60, "duration": 219, "velocity": 105}, {"time": 45721, "pitch": 64, "duration": 219, "velocity": 105}, {"time": 45721, "pitch": 67, "duration": 219, "velocity": 105}, {"time": 45960, "pitch": 60, "duration": 120, "velocity": 65}, {"time": 45960, "pitch": 64, "duration": 120, "velocity": 65}, {"time": 45960, "pitch": 67, "duration": 120, "velocity": 65}, {"time": 46080, "pitch": 60, "duration": 120, "velocity": 115}, {"time": 46080, "pitch": 64, "duration": 120, "velocity": 115}, {"time": 46080, "pitch": 67, "duration": 120, "velocity": 115}, {"time": 46319, "pitch": 64, "duration": 20, "velocity": 75}, {"time": 46319, "pitch": 67, "duration": 20, "velocity": 75}, {"time": 46439, "pitch": 64, "duration": 20, "velocity": 75}, {"time": 46439, "pitch": 67, "duration": 20, "velocity": 75}, {"time": 46559, "pitch": 58, "duration": 349, "velocity": 115}, {"time": 46559, "pitch": 62, "duration": 349, "velocity": 115}, {"time": 46559, "pitch": 65, "duration": 349, "velocity": 115}, {"time": 46559, "pitch": 69, "duration": 349, "velocity": 115}, {"time": 46918, "pitch": 62, "duration": 80, "velocity": 125}, {"time": 46918, "pitch": 65, "duration": 80, "velocity": 125}, {"time": 46918, "pitch": 69, "duration": 80, "velocity": 125}, {"time": 47038, "pitch": 65, "duration": 20, "velocity": 75}, {"time": 47038, "pitch": 69, "duration": 20, "velocity": 75}, {"time": 47159, "pitch": 65, "duration": 20, "velocity": 75}, {"time": 47159, "pitch": 69, "duration": 20, "velocity": 75}, {"time": 47280, "pitch": 65, "duration": 20, "velocity": 75}, {"time": 47280, "pitch": 69, "duration": 20, "velocity": 75}, {"time": 47400, "pitch": 62, "duration": 81, "velocity": 115}, {"time": 47400, "pitch": 65, "duration": 81, "velocity": 115}, {"time": 47400, "pitch": 69, "duration": 81, "velocity": 115}, {"time": 47521, "pitch": 64, "duration": 30, "velocity": 75}, {"time": 47521, "pitch": 67, "duration": 30, "velocity": 75}, {"time": 47641, "pitch": 57, "duration": 220, "velocity": 75}, {"time": 47641, "pitch": 60, "duration": 220, "velocity": 105}, {"time": 47641, "pitch": 64, "duration": 220, "velocity": 105}, {"time": 47641, "pitch": 67, "duration": 220, "velocity": 105}, {"time": 47881, "pitch": 60, "duration": 119, "velocity": 65}, {"time": 47881, "pitch": 64, "duration": 119, "velocity": 65}, {"time": 47881, "pitch": 67, "duration": 119, "velocity": 65}, {"time": 48000, "pitch": 60, "duration": 120, "velocity": 115}, {"time": 48000, "pitch": 64, "duration": 120, "velocity": 115}, {"time": 48000, "pitch": 67, "duration": 120, "velocity": 115}, {"time": 48240, "pitch": 64, "duration": 20, "velocity": 75}, {"time": 48240, "pitch": 67, "duration": 20, "velocity": 75}, {"time": 48359, "pitch": 64, "duration": 20, "velocity": 75}, {"time": 48359, "pitch": 67, "duration": 20, "velocity": 75}, {"time": 48479, "pitch": 57, "duration": 349, "velocity": 115}, {"time": 48479, "pitch": 60, "duration": 349, "velocity": 115}, {"time": 48479, "pitch": 65, "duration": 349, "velocity": 115}, {"time": 48479, "pitch": 69, "duration": 349, "velocity": 115}, {"time": 48838, "pitch": 60, "duration": 80, "velocity": 125}, {"time": 48838, "pitch": 65, "duration": 80, "velocity": 125}, {"time": 48838, "pitch": 69, "duration": 80, "velocity": 125}, {"time": 48958, "pitch": 65, "duration": 20, "velocity": 75}, {"time": 48958, "pitch": 69, "duration": 20, "velocity": 75}, {"time": 49079, "pitch": 65, "duration": 20, "velocity": 75}, {"time": 49079, "pitch": 69, "duration": 20, "velocity": 75}, {"time": 49200, "pitch": 65, "duration": 20, "velocity": 75}, {"time": 49200, "pitch": 69, "duration": 20, "velocity": 75}, {"time": 49321, "pitch": 60, "duration": 80, "velocity": 115}, {"time": 49321, "pitch": 65, "duration": 80, "velocity": 115}, {"time": 49321, "pitch": 69, "duration": 80, "velocity": 115}, {"time": 49442, "pitch": 65, "duration": 30, "velocity": 75}, {"time": 49442, "pitch": 69, "duration": 30, "velocity": 75}, {"time": 49561, "pitch": 57, "duration": 220, "velocity": 75}, {"time": 49561, "pitch": 60, "duration": 220, "velocity": 105}, {"time": 49561, "pitch": 65, "duration": 220, "velocity": 105}, {"time": 49561, "pitch": 69, "duration": 220, "velocity": 105}, {"time": 49801, "pitch": 60, "duration": 120, "velocity": 65}, {"time": 49801, "pitch": 65, "duration": 120, "velocity": 65}, {"time": 49801, "pitch": 69, "duration": 120, "velocity": 65}, {"time": 49921, "pitch": 60, "duration": 119, "velocity": 115}, {"time": 49921, "pitch": 65, "duration": 119, "velocity": 115}, {"time": 49921, "pitch": 69, "duration": 119, "velocity": 115}, {"time": 50160, "pitch": 65, "duration": 20, "velocity": 75}, {"time": 50160, "pitch": 69, "duration": 20, "velocity": 75}, {"time": 50280, "pitch": 65, "duration": 20, "velocity": 75}, {"time": 50280, "pitch": 69, "duration": 20, "velocity": 75}, {"time": 50399, "pitch": 58, "duration": 350, "velocity": 115}, {"time": 50399, "pitch": 62, "duration": 350, "velocity": 115}, {"time": 50399, "pitch": 67, "duration": 350, "velocity": 115}, {"time": 50399, "pitch": 70, "duration": 350, "velocity": 115}, {"time": 50759, "pitch": 62, "duration": 79, "velocity": 125}, {"time": 50759, "pitch": 67, "duration": 79, "velocity": 125}, {"time": 50759, "pitch": 70, "duration": 79, "velocity": 125}, {"time": 50878, "pitch": 67, "duration": 20, "velocity": 75}, {"time": 50878, "pitch": 70, "duration": 20, "velocity": 75}, {"time": 50999, "pitch": 67, "duration": 20, "velocity": 75}, {"time": 50999, "pitch": 70, "duration": 20, "velocity": 75}, {"time": 51120, "pitch": 67, "duration": 20, "velocity": 75}, {"time": 51120, "pitch": 70, "duration": 20, "velocity": 75}, {"time": 51241, "pitch": 62, "duration": 81, "velocity": 115}, {"time": 51241, "pitch": 67, "duration": 81, "velocity": 115}, {"time": 51241, "pitch": 70, "duration": 81, "velocity": 115}, {"time": 51362, "pitch": 67, "duration": 30, "velocity": 75}, {"time": 51362, "pitch": 70, "duration": 30, "velocity": 75}, {"time": 51482, "pitch": 58, "duration": 219, "velocity": 75}, {"time": 51482, "pitch": 62, "duration": 219, "velocity": 105}, {"time": 51482, "pitch": 67, "duration": 219, "velocity": 105}, {"time": 51482, "pitch": 70, "duration": 219, "velocity": 105}, {"time": 51721, "pitch": 62, "duration": 120, "velocity": 65}, {"time": 51721, "pitch": 67, "duration": 120, "velocity": 65}, {"time": 51721, "pitch": 70, "duration": 120, "velocity": 65}, {"time": 51841, "pitch": 62, "duration": 120, "velocity": 115}, {"time": 51841, "pitch": 67, "duration": 120, "velocity": 115}, {"time": 51841, "pitch": 70, "duration": 120, "velocity": 115}, {"time": 52080, "pitch": 67, "duration": 20, "velocity": 75}, {"time": 52080, "pitch": 70, "duration": 20, "velocity": 75}, {"time": 52200, "pitch": 67, "duration": 20, "velocity": 75}, {"time": 52200, "pitch": 70, "duration": 20, "velocity": 75}, {"time": 52320, "pitch": 60, "duration": 349, "velocity": 115}, {"time": 52320, "pitch": 63, "duration": 349, "velocity": 115}, {"time": 52320, "pitch": 67, "duration": 349, "velocity": 115}, {"time": 52320, "pitch": 72, "duration": 349, "velocity": 115}, {"time": 52679, "pitch": 63, "duration": 80, "velocity": 125}, {"time": 52679, "pitch": 67, "duration": 80, "velocity": 125}, {"time": 52679, "pitch": 72, "duration": 80, "velocity": 125}, {"time": 52799, "pitch": 67, "duration": 20, "velocity": 75}, {"time": 52799, "pitch": 72, "duration": 20, "velocity": 75}, {"time": 52920, "pitch": 67, "duration": 20, "velocity": 75}, {"time": 52920, "pitch": 72, "duration": 20, "velocity": 75}, {"time": 53041, "pitch": 67, "duration": 20, "velocity": 75}, {"time": 53041, "pitch": 72, "duration": 20, "velocity": 75}, {"time": 53162, "pitch": 63, "duration": 80, "velocity": 115}, {"time": 53162, "pitch": 67, "duration": 80, "velocity": 115}, {"time": 53162, "pitch": 72, "duration": 80, "velocity": 115}, {"time": 53282, "pitch": 67, "duration": 30, "velocity": 75}, {"time": 53282, "pitch": 72, "duration": 30, "velocity": 75}, {"time": 53402, "pitch": 60, "duration": 220, "velocity": 75}, {"time": 53402, "pitch": 63, "duration": 220, "velocity": 105}, {"time": 53402, "pitch": 67, "duration": 220, "velocity": 105}, {"time": 53402, "pitch": 72, "duration": 220, "velocity": 105}, {"time": 53642, "pitch": 63, "duration": 119, "velocity": 65}, {"time": 53642, "pitch": 67, "duration": 119, "velocity": 65}, {"time": 53642, "pitch": 72, "duration": 119, "velocity": 65}, {"time": 53761, "pitch": 63, "duration": 120, "velocity": 115}, {"time": 53761, "pitch": 67, "duration": 120, "velocity": 115}, {"time": 53761, "pitch": 72, "duration": 120, "velocity": 115}, {"time": 54001, "pitch": 67, "duration": 20, "velocity": 75}, {"time": 54001, "pitch": 72, "duration": 20, "velocity": 75}, {"time": 54120, "pitch": 67, "duration": 20, "velocity": 75}, {"time": 54120, "pitch": 72, "duration": 20, "velocity": 75}, {"time": 54240, "pitch": 60, "duration": 349, "velocity": 115}, {"time": 54240, "pitch": 63, "duration": 349, "velocity": 115}, {"time": 54240, "pitch": 67, "duration": 349, "velocity": 115}, {"time": 54240, "pitch": 72, "duration": 349, "velocity": 115}, {"time": 54599, "pitch": 63, "duration": 80, "velocity": 125}, {"time": 54599, "pitch": 67, "duration": 80, "velocity": 125}, {"time": 54599, "pitch": 72, "duration": 80, "velocity": 125}, {"time": 54719, "pitch": 67, "duration": 20, "velocity": 75}, {"time": 54719, "pitch": 72, "duration": 20, "velocity": 75}, {"time": 54839, "pitch": 67, "duration": 20, "velocity": 75}, {"time": 54839, "pitch": 72, "duration": 20, "velocity": 75}, {"time": 54958, "pitch": 67, "duration": 20, "velocity": 75}, {"time": 54958, "pitch": 72, "duration": 20, "velocity": 75}, {"time": 55078, "pitch": 63, "duration": 80, "velocity": 115}, {"time": 55078, "pitch": 67, "duration": 80, "velocity": 115}, {"time": 55078, "pitch": 72, "duration": 80, "velocity": 115}, {"time": 55198, "pitch": 66, "duration": 30, "velocity": 75}, {"time": 55198, "pitch": 72, "duration": 30, "velocity": 75}, {"time": 55319, "pitch": 60, "duration": 222, "velocity": 75}, {"time": 55319, "pitch": 63, "duration": 222, "velocity": 105}, {"time": 55319, "pitch": 66, "duration": 222, "velocity": 105}, {"time": 55319, "pitch": 72, "duration": 222, "velocity": 105}, {"time": 55561, "pitch": 63, "duration": 121, "velocity": 65}, {"time": 55561, "pitch": 66, "duration": 121, "velocity": 65}, {"time": 55561, "pitch": 72, "duration": 121, "velocity": 65}, {"time": 55682, "pitch": 63, "duration": 119, "velocity": 115}, {"time": 55682, "pitch": 66, "duration": 119, "velocity": 115}, {"time": 55682, "pitch": 72, "duration": 119, "velocity": 115}, {"time": 55921, "pitch": 66, "duration": 20, "velocity": 75}, {"time": 55921, "pitch": 72, "duration": 20, "velocity": 75}, {"time": 56041, "pitch": 66, "duration": 20, "velocity": 75}, {"time": 56041, "pitch": 72, "duration": 20, "velocity": 75}, {"time": 56160, "pitch": 60, "duration": 350, "velocity": 115}, {"time": 56160, "pitch": 65, "duration": 350, "velocity": 115}, {"time": 56160, "pitch": 70, "duration": 350, "velocity": 115}, {"time": 56160, "pitch": 72, "duration": 350, "velocity": 115}, {"time": 56520, "pitch": 65, "duration": 79, "velocity": 125}, {"time": 56520, "pitch": 70, "duration": 79, "velocity": 125}, {"time": 56520, "pitch": 72, "duration": 79, "velocity": 125}, {"time": 56639, "pitch": 70, "duration": 20, "velocity": 75}, {"time": 56639, "pitch": 72, "duration": 20, "velocity": 75}, {"time": 56759, "pitch": 70, "duration": 20, "velocity": 75}, {"time": 56759, "pitch": 72, "duration": 20, "velocity": 75}, {"time": 56879, "pitch": 70, "duration": 20, "velocity": 75}, {"time": 56879, "pitch": 72, "duration": 20, "velocity": 75}, {"time": 56998, "pitch": 65, "duration": 80, "velocity": 115}, {"time": 56998, "pitch": 70, "duration": 80, "velocity": 115}, {"time": 56998, "pitch": 72, "duration": 80, "velocity": 115}, {"time": 57118, "pitch": 69, "duration": 30, "velocity": 75}, {"time": 57118, "pitch": 72, "duration": 30, "velocity": 75}, {"time": 57239, "pitch": 60, "duration": 222, "velocity": 75}, {"time": 57239, "pitch": 65, "duration": 222, "velocity": 105}, {"time": 57239, "pitch": 69, "duration": 222, "velocity": 105}, {"time": 57239, "pitch": 72, "duration": 222, "velocity": 105}, {"time": 57481, "pitch": 65, "duration": 121, "velocity": 65}, {"time": 57481, "pitch": 69, "duration": 121, "velocity": 65}, {"time": 57481, "pitch": 72, "duration": 121, "velocity": 65}, {"time": 57602, "pitch": 65, "duration": 120, "velocity": 115}, {"time": 57602, "pitch": 69, "duration": 120, "velocity": 115}, {"time": 57602, "pitch": 72, "duration": 120, "velocity": 115}, {"time": 57841, "pitch": 69, "duration": 20, "velocity": 75}, {"time": 57841, "pitch": 72, "duration": 20, "velocity": 75}, {"time": 57961, "pitch": 69, "duration": 20, "velocity": 75}, {"time": 57961, "pitch": 72, "duration": 20, "velocity": 75}, {"time": 81120, "pitch": 61, "duration": 349, "velocity": 115}, {"time": 81120, "pitch": 65, "duration": 349, "velocity": 115}, {"time": 81120, "pitch": 68, "duration": 349, "velocity": 115}, {"time": 81120, "pitch": 72, "duration": 349, "velocity": 115}, {"time": 81479, "pitch": 65, "duration": 80, "velocity": 125}, {"time": 81479, "pitch": 68, "duration": 80, "velocity": 125}, {"time": 81479, "pitch": 72, "duration": 80, "velocity": 125}, {"time": 81599, "pitch": 68, "duration": 20, "velocity": 75}, {"time": 81599, "pitch": 72, "duration": 20, "velocity": 75}, {"time": 81719, "pitch": 68, "duration": 20, "velocity": 75}, {"time": 81719, "pitch": 72, "duration": 20, "velocity": 75}, {"time": 81838, "pitch": 68, "duration": 20, "velocity": 75}, {"time": 81838, "pitch": 72, "duration": 20, "velocity": 75}, {"time": 81958, "pitch": 65, "duration": 80, "velocity": 115}, {"time": 81958, "pitch": 68, "duration": 80, "velocity": 115}, {"time": 81958, "pitch": 72, "duration": 80, "velocity": 115}, {"time": 82078, "pitch": 68, "duration": 30, "velocity": 75}, {"time": 82078, "pitch": 72, "duration": 30, "velocity": 75}, {"time": 82199, "pitch": 61, "duration": 221, "velocity": 75}, {"time": 82199, "pitch": 65, "duration": 221, "velocity": 105}, {"time": 82199, "pitch": 68, "duration": 221, "velocity": 105}, {"time": 82199, "pitch": 72, "duration": 221, "velocity": 105}, {"time": 82441, "pitch": 65, "duration": 121, "velocity": 65}, {"time": 82441, "pitch": 68, "duration": 121, "velocity": 65}, {"time": 82441, "pitch": 72, "duration": 121, "velocity": 65}, {"time": 82562, "pitch": 65, "duration": 119, "velocity": 115}, {"time": 82562, "pitch": 68, "duration": 119, "velocity": 115}, {"time": 82562, "pitch": 72, "duration": 119, "velocity": 115}, {"time": 82801, "pitch": 68, "duration": 20, "velocity": 75}, {"time": 82801, "pitch": 72, "duration": 20, "velocity": 75}, {"time": 82921, "pitch": 68, "duration": 20, "velocity": 75}, {"time": 82921, "pitch": 72, "duration": 20, "velocity": 75}, {"time": 83040, "pitch": 60, "duration": 350, "velocity": 115}, {"time": 83040, "pitch": 63, "duration": 350, "velocity": 115}, {"time": 83040, "pitch": 67, "duration": 350, "velocity": 115}, {"time": 83040, "pitch": 70, "duration": 350, "velocity": 115}, {"time": 83400, "pitch": 63, "duration": 79, "velocity": 125}, {"time": 83400, "pitch": 67, "duration": 79, "velocity": 125}, {"time": 83400, "pitch": 70, "duration": 79, "velocity": 125}, {"time": 83519, "pitch": 67, "duration": 20, "velocity": 75}, {"time": 83519, "pitch": 70, "duration": 20, "velocity": 75}, {"time": 83639, "pitch": 67, "duration": 20, "velocity": 75}, {"time": 83639, "pitch": 70, "duration": 20, "velocity": 75}, {"time": 83759, "pitch": 67, "duration": 20, "velocity": 75}, {"time": 83759, "pitch": 70, "duration": 20, "velocity": 75}, {"time": 83878, "pitch": 63, "duration": 80, "velocity": 115}, {"time": 83878, "pitch": 67, "duration": 80, "velocity": 115}, {"time": 83878, "pitch": 70, "duration": 80, "velocity": 115}, {"time": 83998, "pitch": 67, "duration": 30, "velocity": 75}, {"time": 83998, "pitch": 70, "duration": 30, "velocity": 75}, {"time": 84119, "pitch": 60, "duration": 222, "velocity": 75}, {"time": 84119, "pitch": 63, "duration": 222, "velocity": 105}, {"time": 84119, "pitch": 67, "duration": 222, "velocity": 105}, {"time": 84119, "pitch": 70, "duration": 222, "velocity": 105}, {"time": 84361, "pitch": 63, "duration": 121, "velocity": 65}, {"time": 84361, "pitch": 67, "duration": 121, "velocity": 65}, {"time": 84361, "pitch": 70, "duration": 121, "velocity": 65}, {"time": 84482, "pitch": 63, "duration": 120, "velocity": 115}, {"time": 84482, "pitch": 67, "duration": 120, "velocity": 115}, {"time": 84482, "pitch": 70, "duration": 120, "velocity": 115}, {"time": 84721, "pitch": 67, "duration": 20, "velocity": 75}, {"time": 84721, "pitch": 70, "duration": 20, "velocity": 75}, {"time": 84841, "pitch": 67, "duration": 20, "velocity": 75}, {"time": 84841, "pitch": 70, "duration": 20, "velocity": 75}, {"time": 84961, "pitch": 61, "duration": 349, "velocity": 115}, {"time": 84961, "pitch": 65, "duration": 349, "velocity": 115}, {"time": 84961, "pitch": 68, "duration": 349, "velocity": 115}, {"time": 84961, "pitch": 72, "duration": 349, "velocity": 115}, {"time": 85320, "pitch": 65, "duration": 80, "velocity": 125}, {"time": 85320, "pitch": 68, "duration": 80, "velocity": 125}, {"time": 85320, "pitch": 72, "duration": 80, "velocity": 125}, {"time": 85440, "pitch": 68, "duration": 20, "velocity": 75}, {"time": 85440, "pitch": 72, "duration": 20, "velocity": 75}, {"time": 85559, "pitch": 68, "duration": 20, "velocity": 75}, {"time": 85559, "pitch": 72, "duration": 20, "velocity": 75}, {"time": 85679, "pitch": 68, "duration": 20, "velocity": 75}, {"time": 85679, "pitch": 72, "duration": 20, "velocity": 75}, {"time": 85799, "pitch": 65, "duration": 80, "velocity": 115}, {"time": 85799, "pitch": 68, "duration": 80, "velocity": 115}, {"time": 85799, "pitch": 72, "duration": 80, "velocity": 115}, {"time": 85918, "pitch": 67, "duration": 31, "velocity": 75}, {"time": 85918, "pitch": 70, "duration": 31, "velocity": 75}, {"time": 86039, "pitch": 60, "duration": 222, "velocity": 75}, {"time": 86039, "pitch": 63, "duration": 222, "velocity": 105}, {"time": 86039, "pitch": 67, "duration": 222, "velocity": 105}, {"time": 86039, "pitch": 70, "duration": 222, "velocity": 105}, {"time": 86281, "pitch": 63, "duration": 121, "velocity": 65}, {"time": 86281, "pitch": 67, "duration": 121, "velocity": 65}, {"time": 86281, "pitch": 70, "duration": 121, "velocity": 65}, {"time": 86402, "pitch": 63, "duration": 120, "velocity": 115}, {"time": 86402, "pitch": 67, "duration": 120, "velocity": 115}, {"time": 86402, "pitch": 70, "duration": 120, "velocity": 115}, {"time": 86642, "pitch": 67, "duration": 20, "velocity": 75}, {"time": 86642, "pitch": 70, "duration": 20, "velocity": 75}, {"time": 86761, "pitch": 67, "duration": 20, "velocity": 75}, {"time": 86761, "pitch": 70, "duration": 20, "velocity": 75}, {"time": 86881, "pitch": 60, "duration": 349, "velocity": 115}, {"time": 86881, "pitch": 63, "duration": 349, "velocity": 115}, {"time": 86881, "pitch": 68, "duration": 349, "velocity": 115}, {"time": 86881, "pitch": 72, "duration": 349, "velocity": 115}, {"time": 87240, "pitch": 63, "duration": 80, "velocity": 125}, {"time": 87240, "pitch": 68, "duration": 80, "velocity": 125}, {"time": 87240, "pitch": 72, "duration": 80, "velocity": 125}, {"time": 87360, "pitch": 68, "duration": 20, "velocity": 75}, {"time": 87360, "pitch": 72, "duration": 20, "velocity": 75}, {"time": 87480, "pitch": 68, "duration": 20, "velocity": 75}, {"time": 87480, "pitch": 72, "duration": 20, "velocity": 75}, {"time": 87599, "pitch": 68, "duration": 20, "velocity": 75}, {"time": 87599, "pitch": 72, "duration": 20, "velocity": 75}, {"time": 87719, "pitch": 63, "duration": 80, "velocity": 115}, {"time": 87719, "pitch": 68, "duration": 80, "velocity": 115}, {"time": 87719, "pitch": 72, "duration": 80, "velocity": 115}, {"time": 87839, "pitch": 68, "duration": 30, "velocity": 75}, {"time": 87839, "pitch": 72, "duration": 30, "velocity": 75}, {"time": 87959, "pitch": 60, "duration": 219, "velocity": 75}, {"time": 87959, "pitch": 63, "duration": 219, "velocity": 105}, {"time": 87959, "pitch": 68, "duration": 219, "velocity": 105}, {"time": 87959, "pitch": 72, "duration": 219, "velocity": 105}, {"time": 88198, "pitch": 63, "duration": 120, "velocity": 65}, {"time": 88198, "pitch": 68, "duration": 120, "velocity": 65}, {"time": 88198, "pitch": 72, "duration": 120, "velocity": 65}, {"time": 88318, "pitch": 63, "duration": 121, "velocity": 115}, {"time": 88318, "pitch": 68, "duration": 121, "velocity": 115}, {"time": 88318, "pitch": 72, "duration": 121, "velocity": 115}, {"time": 88560, "pitch": 68, "duration": 20, "velocity": 75}, {"time": 88560, "pitch": 72, "duration": 20, "velocity": 75}, {"time": 88680, "pitch": 68, "duration": 21, "velocity": 75}, {"time": 88680, "pitch": 72, "duration": 21, "velocity": 75}, {"time": 88801, "pitch": 61, "duration": 350, "velocity": 115}, {"time": 88801, "pitch": 65, "duration": 350, "velocity": 115}, {"time": 88801, "pitch": 70, "duration": 350, "velocity": 115}, {"time": 88801, "pitch": 73, "duration": 350, "velocity": 115}, {"time": 89161, "pitch": 65, "duration": 79, "velocity": 125}, {"time": 89161, "pitch": 70, "duration": 79, "velocity": 125}, {"time": 89161, "pitch": 73, "duration": 79, "velocity": 125}, {"time": 89280, "pitch": 70, "duration": 20, "velocity": 75}, {"time": 89280, "pitch": 73, "duration": 20, "velocity": 75}, {"time": 89400, "pitch": 70, "duration": 20, "velocity": 75}, {"time": 89400, "pitch": 73, "duration": 20, "velocity": 75}, {"time": 89520, "pitch": 70, "duration": 20, "velocity": 75}, {"time": 89520, "pitch": 73, "duration": 20, "velocity": 75}, {"time": 89639, "pitch": 65, "duration": 80, "velocity": 115}, {"time": 89639, "pitch": 70, "duration": 80, "velocity": 115}, {"time": 89639, "pitch": 73, "duration": 80, "velocity": 115}, {"time": 89759, "pitch": 70, "duration": 30, "velocity": 75}, {"time": 89759, "pitch": 73, "duration": 30, "velocity": 75}, {"time": 89879, "pitch": 61, "duration": 219, "velocity": 75}, {"time": 89879, "pitch": 65, "duration": 219, "velocity": 105}, {"time": 89879, "pitch": 70, "duration": 219, "velocity": 105}, {"time": 89879, "pitch": 73, "duration": 219, "velocity": 105}, {"time": 90118, "pitch": 65, "duration": 120, "velocity": 65}, {"time": 90118, "pitch": 70, "duration": 120, "velocity": 65}, {"time": 90118, "pitch": 73, "duration": 120, "velocity": 65}, {"time": 90238, "pitch": 65, "duration": 121, "velocity": 115}, {"time": 90238, "pitch": 70, "duration": 121, "velocity": 115}, {"time": 90238, "pitch": 73, "duration": 121, "velocity": 115}, {"time": 90480, "pitch": 70, "duration": 20, "velocity": 75}, {"time": 90480, "pitch": 73, "duration": 20, "velocity": 75}, {"time": 90601, "pitch": 70, "duration": 20, "velocity": 75}, {"time": 90601, "pitch": 73, "duration": 20, "velocity": 75}, {"time": 90722, "pitch": 63, "duration": 349, "velocity": 115}, {"time": 90722, "pitch": 66, "duration": 349, "velocity": 115}, {"time": 90722, "pitch": 70, "duration": 349, "velocity": 115}, {"time": 90722, "pitch": 75, "duration": 349, "velocity": 115}, {"time": 91081, "pitch": 66, "duration": 80, "velocity": 125}, {"time": 91081, "pitch": 70, "duration": 80, "velocity": 125}, {"time": 91081, "pitch": 75, "duration": 80, "velocity": 125}, {"time": 91201, "pitch": 70, "duration": 20, "velocity": 75}, {"time": 91201, "pitch": 75, "duration": 20, "velocity": 75}, {"time": 91320, "pitch": 70, "duration": 20, "velocity": 75}, {"time": 91320, "pitch": 75, "duration": 20, "velocity": 75}, {"time": 91440, "pitch": 70, "duration": 20, "velocity": 75}, {"time": 91440, "pitch": 75, "duration": 20, "velocity": 75}, {"time": 91560, "pitch": 66, "duration": 80, "velocity": 115}, {"time": 91560, "pitch": 70, "duration": 80, "velocity": 115}, {"time": 91560, "pitch": 75, "duration": 80, "velocity": 115}, {"time": 91679, "pitch": 70, "duration": 30, "velocity": 75}, {"time": 91679, "pitch": 75, "duration": 30, "velocity": 75}, {"time": 91799, "pitch": 63, "duration": 220, "velocity": 75}, {"time": 91799, "pitch": 66, "duration": 220, "velocity": 105}, {"time": 91799, "pitch": 70, "duration": 220, "velocity": 105}, {"time": 91799, "pitch": 75, "duration": 220, "velocity": 105}, {"time": 92039, "pitch": 66, "duration": 119, "velocity": 65}, {"time": 92039, "pitch": 70, "duration": 119, "velocity": 65}, {"time": 92039, "pitch": 75, "duration": 119, "velocity": 65}, {"time": 92158, "pitch": 66, "duration": 121, "velocity": 115}, {"time": 92158, "pitch": 70, "duration": 121, "velocity": 115}, {"time": 92158, "pitch": 75, "duration": 121, "velocity": 115}, {"time": 92400, "pitch": 70, "duration": 20, "velocity": 75}, {"time": 92400, "pitch": 75, "duration": 20, "velocity": 75}, {"time": 92521, "pitch": 70, "duration": 20, "velocity": 75}, {"time": 92521, "pitch": 75, "duration": 20, "velocity": 75}, {"time": 92642, "pitch": 63, "duration": 349, "velocity": 115}, {"time": 92642, "pitch": 67, "duration": 349, "velocity": 115}, {"time": 92642, "pitch": 70, "duration": 349, "velocity": 115}, {"time": 92642, "pitch": 75, "duration": 349, "velocity": 115}, {"time": 93001, "pitch": 67, "duration": 80, "velocity": 125}, {"time": 93001, "pitch": 70, "duration": 80, "velocity": 125}, {"time": 93001, "pitch": 75, "duration": 80, "velocity": 125}, {"time": 93121, "pitch": 70, "duration": 20, "velocity": 75}, {"time": 93121, "pitch": 75, "duration": 20, "velocity": 75}, {"time": 93241, "pitch": 70, "duration": 20, "velocity": 75}, {"time": 93241, "pitch": 75, "duration": 20, "velocity": 75}, {"time": 93360, "pitch": 70, "duration": 20, "velocity": 75}, {"time": 93360, "pitch": 75, "duration": 20, "velocity": 75}, {"time": 93480, "pitch": 67, "duration": 80, "velocity": 115}, {"time": 93480, "pitch": 70, "duration": 80, "velocity": 115}, {"time": 93480, "pitch": 75, "duration": 80, "velocity": 115}, {"time": 93600, "pitch": 70, "duration": 30, "velocity": 75}, {"time": 93600, "pitch": 75, "duration": 30, "velocity": 75}, {"time": 93720, "pitch": 63, "duration": 219, "velocity": 75}, {"time": 93720, "pitch": 67, "duration": 219, "velocity": 105}, {"time": 93720, "pitch": 70, "duration": 219, "velocity": 105}, {"time": 93720, "pitch": 75, "duration": 219, "velocity": 105}, {"time": 93959, "pitch": 67, "duration": 120, "velocity": 65}, {"time": 93959, "pitch": 70, "duration": 120, "velocity": 65}, {"time": 93959, "pitch": 75, "duration": 120, "velocity": 65}, {"time": 94079, "pitch": 67, "duration": 119, "velocity": 115}, {"time": 94079, "pitch": 70, "duration": 119, "velocity": 115}, {"time": 94079, "pitch": 75, "duration": 119, "velocity": 115}, {"time": 94318, "pitch": 70, "duration": 20, "velocity": 75}, {"time": 94318, "pitch": 75, "duration": 20, "velocity": 75}, {"time": 94438, "pitch": 70, "duration": 20, "velocity": 75}, {"time": 94438, "pitch": 75, "duration": 20, "velocity": 75}, {"time": 94558, "pitch": 65, "duration": 352, "velocity": 115}, {"time": 94558, "pitch": 69, "duration": 352, "velocity": 115}, {"time": 94558, "pitch": 72, "duration": 352, "velocity": 115}, {"time": 94558, "pitch": 77, "duration": 352, "velocity": 115}, {"time": 94920, "pitch": 69, "duration": 81, "velocity": 125}, {"time": 94920, "pitch": 72, "duration": 81, "velocity": 125}, {"time": 94920, "pitch": 77, "duration": 81, "velocity": 125}, {"time": 95041, "pitch": 72, "duration": 20, "velocity": 75}, {"time": 95041, "pitch": 77, "duration": 20, "velocity": 75}, {"time": 95161, "pitch": 72, "duration": 20, "velocity": 75}, {"time": 95161, "pitch": 77, "duration": 20, "velocity": 75}, {"time": 95281, "pitch": 72, "duration": 20, "velocity": 75}, {"time": 95281, "pitch": 77, "duration": 20, "velocity": 75}, {"time": 95400, "pitch": 69, "duration": 80, "velocity": 115}, {"time": 95400, "pitch": 72, "duration": 80, "velocity": 115}, {"time": 95400, "pitch": 77, "duration": 80, "velocity": 115}, {"time": 95520, "pitch": 72, "duration": 30, "velocity": 75}, {"time": 95520, "pitch": 77, "duration": 30, "velocity": 75}, {"time": 95640, "pitch": 65, "duration": 219, "velocity": 75}, {"time": 95640, "pitch": 69, "duration": 219, "velocity": 105}, {"time": 95640, "pitch": 72, "duration": 219, "velocity": 105}, {"time": 95640, "pitch": 77, "duration": 219, "velocity": 105}, {"time": 95879, "pitch": 69, "duration": 120, "velocity": 65}, {"time": 95879, "pitch": 72, "duration": 120, "velocity": 65}, {"time": 95879, "pitch": 77, "duration": 120, "velocity": 65}, {"time": 95999, "pitch": 69, "duration": 120, "velocity": 115}, {"time": 95999, "pitch": 72, "duration": 120, "velocity": 115}, {"time": 95999, "pitch": 77, "duration": 120, "velocity": 115}, {"time": 96238, "pitch": 72, "duration": 20, "velocity": 75}, {"time": 96238, "pitch": 77, "duration": 20, "velocity": 75}, {"time": 96358, "pitch": 72, "duration": 20, "velocity": 75}, {"time": 96358, "pitch": 77, "duration": 20, "velocity": 75}, {"time": 131039, "pitch": 58, "duration": 349, "velocity": 115}, {"time": 131039, "pitch": 62, "duration": 349, "velocity": 115}, {"time": 131039, "pitch": 65, "duration": 349, "velocity": 115}, {"time": 131039, "pitch": 69, "duration": 349, "velocity": 115}, {"time": 131398, "pitch": 62, "duration": 80, "velocity": 125}, {"time": 131398, "pitch": 65, "duration": 80, "velocity": 125}, {"time": 131398, "pitch": 69, "duration": 80, "velocity": 125}, {"time": 131518, "pitch": 65, "duration": 20, "velocity": 75}, {"time": 131518, "pitch": 69, "duration": 20, "velocity": 75}, {"time": 131639, "pitch": 65, "duration": 20, "velocity": 75}, {"time": 131639, "pitch": 69, "duration": 20, "velocity": 75}, {"time": 131760, "pitch": 65, "duration": 20, "velocity": 75}, {"time": 131760, "pitch": 69, "duration": 20, "velocity": 75}, {"time": 131881, "pitch": 62, "duration": 81, "velocity": 115}, {"time": 131881, "pitch": 65, "duration": 81, "velocity": 115}, {"time": 131881, "pitch": 69, "duration": 81, "velocity": 115}, {"time": 132002, "pitch": 65, "duration": 30, "velocity": 75}, {"time": 132002, "pitch": 69, "duration": 30, "velocity": 75}, {"time": 132122, "pitch": 58, "duration": 219, "velocity": 75}, {"time": 132122, "pitch": 62, "duration": 219, "velocity": 105}, {"time": 132122, "pitch": 65, "duration": 219, "velocity": 105}, {"time": 132122, "pitch": 69, "duration": 219, "velocity": 105}, {"time": 132361, "pitch": 62, "duration": 120, "velocity": 65}, {"time": 132361, "pitch": 65, "duration": 120, "velocity": 65}, {"time": 132361, "pitch": 69, "duration": 120, "velocity": 65}, {"time": 132481, "pitch": 62, "duration": 119, "velocity": 115}, {"time": 132481, "pitch": 65, "duration": 119, "velocity": 115}, {"time": 132481, "pitch": 69, "duration": 119, "velocity": 115}, {"time": 132720, "pitch": 65, "duration": 20, "velocity": 75}, {"time": 132720, "pitch": 69, "duration": 20, "velocity": 75}, {"time": 132840, "pitch": 65, "duration": 20, "velocity": 75}, {"time": 132840, "pitch": 69, "duration": 20, "velocity": 75}, {"time": 132960, "pitch": 57, "duration": 349, "velocity": 115}, {"time": 132960, "pitch": 60, "duration": 349, "velocity": 115}, {"time": 132960, "pitch": 64, "duration": 349, "velocity": 115}, {"time": 132960, "pitch": 67, "duration": 349, "velocity": 115}, {"time": 133319, "pitch": 60, "duration": 79, "velocity": 125}, {"time": 133319, "pitch": 64, "duration": 79, "velocity": 125}, {"time": 133319, "pitch": 67, "duration": 79, "velocity": 125}, {"time": 133438, "pitch": 64, "duration": 20, "velocity": 75}, {"time": 133438, "pitch": 67, "duration": 20, "velocity": 75}, {"time": 133559, "pitch": 64, "duration": 20, "velocity": 75}, {"time": 133559, "pitch": 67, "duration": 20, "velocity": 75}, {"time": 133680, "pitch": 64, "duration": 20, "velocity": 75}, {"time": 133680, "pitch": 67, "duration": 20, "velocity": 75}, {"time": 133801, "pitch": 60, "duration": 81, "velocity": 115}, {"time": 133801, "pitch": 64, "duration": 81, "velocity": 115}, {"time": 133801, "pitch": 67, "duration": 81, "velocity": 115}, {"time": 133922, "pitch": 64, "duration": 30, "velocity": 75}, {"time": 133922, "pitch": 67, "duration": 30, "velocity": 75}, {"time": 134042, "pitch": 57, "duration": 219, "velocity": 75}, {"time": 134042, "pitch": 60, "duration": 219, "velocity": 105}, {"time": 134042, "pitch": 64, "duration": 219, "velocity": 105}, {"time": 134042, "pitch": 67, "duration": 219, "velocity": 105}, {"time": 134281, "pitch": 60, "duration": 120, "velocity": 65}, {"time": 134281, "pitch": 64, "duration": 120, "velocity": 65}, {"time": 134281, "pitch": 67, "duration": 120, "velocity": 65}, {"time": 134401, "pitch": 60, "duration": 120, "velocity": 115}, {"time": 134401, "pitch": 64, "duration": 120, "velocity": 115}, {"time": 134401, "pitch": 67, "duration": 120, "velocity": 115}, {"time": 134640, "pitch": 64, "duration": 20, "velocity": 75}, {"time": 134640, "pitch": 67, "duration": 20, "velocity": 75}, {"time": 134760, "pitch": 64, "duration": 20, "velocity": 75}, {"time": 134760, "pitch": 67, "duration": 20, "velocity": 75}, {"time": 134880, "pitch": 58, "duration": 349, "velocity": 115}, {"time": 134880, "pitch": 62, "duration": 349, "velocity": 115}, {"time": 134880, "pitch": 65, "duration": 349, "velocity": 115}, {"time": 134880, "pitch": 69, "duration": 349, "velocity": 115}, {"time": 135239, "pitch": 62, "duration": 80, "velocity": 125}, {"time": 135239, "pitch": 65, "duration": 80, "velocity": 125}, {"time": 135239, "pitch": 69, "duration": 80, "velocity": 125}, {"time": 135359, "pitch": 65, "duration": 20, "velocity": 75}, {"time": 135359, "pitch": 69, "duration": 20, "velocity": 75}, {"time": 135478, "pitch": 65, "duration": 20, "velocity": 75}, {"time": 135478, "pitch": 69, "duration": 20, "velocity": 75}, {"time": 135598, "pitch": 65, "duration": 20, "velocity": 75}, {"time": 135598, "pitch": 69, "duration": 20, "velocity": 75}, {"time": 135718, "pitch": 62, "duration": 80, "velocity": 115}, {"time": 135718, "pitch": 65, "duration": 80, "velocity": 115}, {"time": 135718, "pitch": 69, "duration": 80, "velocity": 115}, {"time": 135838, "pitch": 64, "duration": 30, "velocity": 75}, {"time": 135838, "pitch": 67, "duration": 30, "velocity": 75}, {"time": 135958, "pitch": 57, "duration": 222, "velocity": 75}, {"time": 135958, "pitch": 60, "duration": 222, "velocity": 105}, {"time": 135958, "pitch": 64, "duration": 222, "velocity": 105}, {"time": 135958, "pitch": 67, "duration": 222, "velocity": 105}, {"time": 136200, "pitch": 60, "duration": 121, "velocity": 65}, {"time": 136200, "pitch": 64, "duration": 121, "velocity": 65}, {"time": 136200, "pitch": 67, "duration": 121, "velocity": 65}, {"time": 136321, "pitch": 60, "duration": 120, "velocity": 115}, {"time": 136321, "pitch": 64, "duration": 120, "velocity": 115}, {"time": 136321, "pitch": 67, "duration": 120, "velocity": 115}, {"time": 136561, "pitch": 64, "duration": 20, "velocity": 75}, {"time": 136561, "pitch": 67, "duration": 20, "velocity": 75}, {"time": 136680, "pitch": 64, "duration": 20, "velocity": 75}, {"time": 136680, "pitch": 67, "duration": 20, "velocity": 75}, {"time": 136800, "pitch": 57, "duration": 349, "velocity": 115}, {"time": 136800, "pitch": 60, "duration": 349, "velocity": 115}, {"time": 136800, "pitch": 65, "duration": 349, "velocity": 115}, {"time": 136800, "pitch": 69, "duration": 349, "velocity": 115}, {"time": 137159, "pitch": 60, "duration": 80, "velocity": 125}, {"time": 137159, "pitch": 65, "duration": 80, "velocity": 125}, {"time": 137159, "pitch": 69, "duration": 80, "velocity": 125}, {"time": 137279, "pitch": 65, "duration": 20, "velocity": 75}, {"time": 137279, "pitch": 69, "duration": 20, "velocity": 75}, {"time": 137399, "pitch": 65, "duration": 20, "velocity": 75}, {"time": 137399, "pitch": 69, "duration": 20, "velocity": 75}, {"time": 137518, "pitch": 65, "duration": 20, "velocity": 75}, {"time": 137518, "pitch": 69, "duration": 20, "velocity": 75}, {"time": 137638, "pitch": 60, "duration": 80, "velocity": 115}, {"time": 137638, "pitch": 65, "duration": 80, "velocity": 115}, {"time": 137638, "pitch": 69, "duration": 80, "velocity": 115}, {"time": 137758, "pitch": 65, "duration": 30, "velocity": 75}, {"time": 137758, "pitch": 69, "duration": 30, "velocity": 75}, {"time": 137879, "pitch": 57, "duration": 222, "velocity": 75}, {"time": 137879, "pitch": 60, "duration": 222, "velocity": 105}, {"time": 137879, "pitch": 65, "duration": 222, "velocity": 105}, {"time": 137879, "pitch": 69, "duration": 222, "velocity": 105}, {"time": 138121, "pitch": 60, "duration": 121, "velocity": 65}, {"time": 138121, "pitch": 65, "duration": 121, "velocity": 65}, {"time": 138121, "pitch": 69, "duration": 121, "velocity": 65}, {"time": 138242, "pitch": 60, "duration": 119, "velocity": 115}, {"time": 138242, "pitch": 65, "duration": 119, "velocity": 115}, {"time": 138242, "pitch": 69, "duration": 119, "velocity": 115}, {"time": 138481, "pitch": 65, "duration": 20, "velocity": 75}, {"time": 138481, "pitch": 69, "duration": 20, "velocity": 75}, {"time": 138601, "pitch": 65, "duration": 20, "velocity": 75}, {"time": 138601, "pitch": 69, "duration": 20, "velocity": 75}, {"time": 138721, "pitch": 58, "duration": 349, "velocity": 115}, {"time": 138721, "pitch": 62, "duration": 349, "velocity": 115}, {"time": 138721, "pitch": 67, "duration": 349, "velocity": 115}, {"time": 138721, "pitch": 70, "duration": 349, "velocity": 115}, {"time": 139080, "pitch": 62, "duration": 79, "velocity": 125}, {"time": 139080, "pitch": 67, "duration": 79, "velocity": 125}, {"time": 139080, "pitch": 70, "duration": 79, "velocity": 125}, {"time": 139199, "pitch": 67, "duration": 20, "velocity": 75}, {"time": 139199, "pitch": 70, "duration": 20, "velocity": 75}, {"time": 139319, "pitch": 67, "duration": 20, "velocity": 75}, {"time": 139319, "pitch": 70, "duration": 20, "velocity": 75}, {"time": 139439, "pitch": 67, "duration": 20, "velocity": 75}, {"time": 139439, "pitch": 70, "duration": 20, "velocity": 75}, {"time": 139559, "pitch": 62, "duration": 79, "velocity": 115}, {"time": 139559, "pitch": 67, "duration": 79, "velocity": 115}, {"time": 139559, "pitch": 70, "duration": 79, "velocity": 115}, {"time": 139678, "pitch": 67, "duration": 30, "velocity": 75}, {"time": 139678, "pitch": 70, "duration": 30, "velocity": 75}, {"time": 139799, "pitch": 58, "duration": 222, "velocity": 75}, {"time": 139799, "pitch": 62, "duration": 222, "velocity": 105}, {"time": 139799, "pitch": 67, "duration": 222, "velocity": 105}, {"time": 139799, "pitch": 70, "duration": 222, "velocity": 105}, {"time": 140041, "pitch": 62, "duration": 121, "velocity": 65}, {"time": 140041, "pitch": 67, "duration": 121, "velocity": 65}, {"time": 140041, "pitch": 70, "duration": 121, "velocity": 65}, {"time": 140162, "pitch": 62, "duration": 120, "velocity": 115}, {"time": 140162, "pitch": 67, "duration": 120, "velocity": 115}, {"time": 140162, "pitch": 70, "duration": 120, "velocity": 115}, {"time": 140401, "pitch": 67, "duration": 20, "velocity": 75}, {"time": 140401, "pitch": 70, "duration": 20, "velocity": 75}, {"time": 140521, "pitch": 67, "duration": 20, "velocity": 75}, {"time": 140521, "pitch": 70, "duration": 20, "velocity": 75}, {"time": 140641, "pitch": 60, "duration": 349, "velocity": 115}, {"time": 140641, "pitch": 63, "duration": 349, "velocity": 115}, {"time": 140641, "pitch": 67, "duration": 349, "velocity": 115}, {"time": 140641, "pitch": 72, "duration": 349, "velocity": 115}, {"time": 141000, "pitch": 63, "duration": 80, "velocity": 125}, {"time": 141000, "pitch": 67, "duration": 80, "velocity": 125}, {"time": 141000, "pitch": 72, "duration": 80, "velocity": 125}, {"time": 141120, "pitch": 67, "duration": 20, "velocity": 75}, {"time": 141120, "pitch": 72, "duration": 20, "velocity": 75}, {"time": 141239, "pitch": 67, "duration": 20, "velocity": 75}, {"time": 141239, "pitch": 72, "duration": 20, "velocity": 75}, {"time": 141359, "pitch": 67, "duration": 20, "velocity": 75}, {"time": 141359, "pitch": 72, "duration": 20, "velocity": 75}, {"time": 141479, "pitch": 63, "duration": 80, "velocity": 115}, {"time": 141479, "pitch": 67, "duration": 80, "velocity": 115}, {"time": 141479, "pitch": 72, "duration": 80, "velocity": 115}, {"time": 141599, "pitch": 67, "duration": 30, "velocity": 75}, {"time": 141599, "pitch": 72, "duration": 30, "velocity": 75}, {"time": 141720, "pitch": 60, "duration": 221, "velocity": 75}, {"time": 141720, "pitch": 63, "duration": 221, "velocity": 105}, {"time": 141720, "pitch": 67, "duration": 221, "velocity": 105}, {"time": 141720, "pitch": 72, "duration": 221, "velocity": 105}, {"time": 141961, "pitch": 63, "duration": 121, "velocity": 65}, {"time": 141961, "pitch": 67, "duration": 121, "velocity": 65}, {"time": 141961, "pitch": 72, "duration": 121, "velocity": 65}, {"time": 142082, "pitch": 63, "duration": 120, "velocity": 115}, {"time": 142082, "pitch": 67, "duration": 120, "velocity": 115}, {"time": 142082, "pitch": 72, "duration": 120, "velocity": 115}, {"time": 142322, "pitch": 67, "duration": 20, "velocity": 75}, {"time": 142322, "pitch": 72, "duration": 20, "velocity": 75}, {"time": 142442, "pitch": 67, "duration": 19, "velocity": 75}, {"time": 142442, "pitch": 72, "duration": 19, "velocity": 75}, {"time": 142561, "pitch": 60, "duration": 349, "velocity": 115}, {"time": 142561, "pitch": 63, "duration": 349, "velocity": 115}, {"time": 142561, "pitch": 67, "duration": 349, "velocity": 115}, {"time": 142561, "pitch": 72, "duration": 349, "velocity": 115}, {"time": 142920, "pitch": 63, "duration": 80, "velocity": 125}, {"time": 142920, "pitch": 67, "duration": 80, "velocity": 125}, {"time": 142920, "pitch": 72, "duration": 80, "velocity": 125}, {"time": 143040, "pitch": 67, "duration": 20, "velocity": 75}, {"time": 143040, "pitch": 72, "duration": 20, "velocity": 75}, {"time": 143160, "pitch": 67, "duration": 20, "velocity": 75}, {"time": 143160, "pitch": 72, "duration": 20, "velocity": 75}, {"time": 143280, "pitch": 67, "duration": 19, "velocity": 75}, {"time": 143280, "pitch": 72, "duration": 19, "velocity": 75}, {"time": 143399, "pitch": 63, "duration": 80, "velocity": 115}, {"time": 143399, "pitch": 67, "duration": 80, "velocity": 115}, {"time": 143399, "pitch": 72, "duration": 80, "velocity": 115}, {"time": 143519, "pitch": 66, "duration": 30, "velocity": 75}, {"time": 143519, "pitch": 72, "duration": 30, "velocity": 75}, {"time": 143639, "pitch": 60, "duration": 219, "velocity": 75}, {"time": 143639, "pitch": 63, "duration": 219, "velocity": 105}, {"time": 143639, "pitch": 66, "duration": 219, "velocity": 105}, {"time": 143639, "pitch": 72, "duration": 219, "velocity": 105}, {"time": 143878, "pitch": 63, "duration": 120, "velocity": 65}, {"time": 143878, "pitch": 66, "duration": 120, "velocity": 65}, {"time": 143878, "pitch": 72, "duration": 120, "velocity": 65}, {"time": 143998, "pitch": 63, "duration": 121, "velocity": 115}, {"time": 143998, "pitch": 66, "duration": 121, "velocity": 115}, {"time": 143998, "pitch": 72, "duration": 121, "velocity": 115}, {"time": 144240, "pitch": 66, "duration": 20, "velocity": 75}, {"time": 144240, "pitch": 72, "duration": 20, "velocity": 75}, {"time": 144361, "pitch": 66, "duration": 20, "velocity": 75}, {"time": 144361, "pitch": 72, "duration": 20, "velocity": 75}, {"time": 144482, "pitch": 60, "duration": 349, "velocity": 115}, {"time": 144482, "pitch": 65, "duration": 349, "velocity": 115}, {"time": 144482, "pitch": 70, "duration": 349, "velocity": 115}, {"time": 144482, "pitch": 72, "duration": 349, "velocity": 115}, {"time": 144841, "pitch": 65, "duration": 80, "velocity": 125}, {"time": 144841, "pitch": 70, "duration": 80, "velocity": 125}, {"time": 144841, "pitch": 72, "duration": 80, "velocity": 125}, {"time": 144960, "pitch": 70, "duration": 20, "velocity": 75}, {"time": 144960, "pitch": 72, "duration": 20, "velocity": 75}, {"time": 145080, "pitch": 70, "duration": 20, "velocity": 75}, {"time": 145080, "pitch": 72, "duration": 20, "velocity": 75}, {"time": 145200, "pitch": 70, "duration": 20, "velocity": 75}, {"time": 145200, "pitch": 72, "duration": 20, "velocity": 75}, {"time": 145320, "pitch": 65, "duration": 79, "velocity": 115}, {"time": 145320, "pitch": 70, "duration": 79, "velocity": 115}, {"time": 145320, "pitch": 72, "duration": 79, "velocity": 115}, {"time": 145439, "pitch": 69, "duration": 30, "velocity": 75}, {"time": 145439, "pitch": 72, "duration": 30, "velocity": 75}, {"time": 145559, "pitch": 60, "duration": 219, "velocity": 75}, {"time": 145559, "pitch": 65, "duration": 219, "velocity": 105}, {"time": 145559, "pitch": 69, "duration": 219, "velocity": 105}, {"time": 145559, "pitch": 72, "duration": 219, "velocity": 105}, {"time": 145798, "pitch": 65, "duration": 120, "velocity": 65}, {"time": 145798, "pitch": 69, "duration": 120, "velocity": 65}, {"time": 145798, "pitch": 72, "duration": 120, "velocity": 65}, {"time": 145918, "pitch": 65, "duration": 121, "velocity": 115}, {"time": 145918, "pitch": 69, "duration": 121, "velocity": 115}, {"time": 145918, "pitch": 72, "duration": 121, "velocity": 115}, {"time": 146160, "pitch": 69, "duration": 20, "velocity": 75}, {"time": 146160, "pitch": 72, "duration": 20, "velocity": 75}, {"time": 146281, "pitch": 69, "duration": 20, "velocity": 75}, {"time": 146281, "pitch": 72, "duration": 20, "velocity": 75}, {"time": 480, "pitch": 80, "duration": 50, "velocity": 77}, {"time": 600, "pitch": 80, "duration": 60, "velocity": 66}, {"time": 720, "pitch": 81, "duration": 80, "velocity": 50}, {"time": 839, "pitch": 80, "duration": 70, "velocity": 52}, {"time": 1079, "pitch": 81, "duration": 450, "velocity": 45}, {"time": 1922, "pitch": 54, "duration": 60, "velocity": 83}, {"time": 3479, "pitch": 80, "duration": 61, "velocity": 83}, {"time": 3600, "pitch": 81, "duration": 61, "velocity": 58}, {"time": 3721, "pitch": 80, "duration": 61, "velocity": 77}, {"time": 3962, "pitch": 81, "duration": 70, "velocity": 58}, {"time": 4321, "pitch": 80, "duration": 50, "velocity": 77}, {"time": 4441, "pitch": 80, "duration": 60, "velocity": 66}, {"time": 4560, "pitch": 81, "duration": 80, "velocity": 50}, {"time": 4680, "pitch": 80, "duration": 70, "velocity": 52}, {"time": 4920, "pitch": 81, "duration": 449, "velocity": 45}, {"time": 5758, "pitch": 54, "duration": 60, "velocity": 83}, {"time": 6840, "pitch": 80, "duration": 60, "velocity": 83}, {"time": 6960, "pitch": 81, "duration": 60, "velocity": 58}, {"time": 7079, "pitch": 80, "duration": 60, "velocity": 77}, {"time": 7319, "pitch": 81, "duration": 70, "velocity": 58}, {"time": 7920, "pitch": 46, "duration": 201, "velocity": 89}, {"time": 7920, "pitch": 69, "duration": 10, "velocity": 36}, {"time": 8041, "pitch": 69, "duration": 10, "velocity": 12}, {"time": 8101, "pitch": 69, "duration": 10, "velocity": 47}, {"time": 8162, "pitch": 35, "duration": 10, "velocity": 101}, {"time": 8162, "pitch": 42, "duration": 10, "velocity": 106}, {"time": 8162, "pitch": 69, "duration": 10, "velocity": 84}, {"time": 8281, "pitch": 42, "duration": 10, "velocity": 53}, {"time": 8401, "pitch": 42, "duration": 10, "velocity": 66}, {"time": 8401, "pitch": 69, "duration": 10, "velocity": 31}, {"time": 8461, "pitch": 69, "duration": 10, "velocity": 20}, {"time": 8521, "pitch": 42, "duration": 10, "velocity": 82}, {"time": 8521, "pitch": 69, "duration": 10, "velocity": 24}, {"time": 8581, "pitch": 69, "duration": 10, "velocity": 24}, {"time": 8641, "pitch": 37, "duration": 10, "velocity": 127}, {"time": 8641, "pitch": 42, "duration": 10, "velocity": 52}, {"time": 8641, "pitch": 69, "duration": 10, "velocity": 59}, {"time": 8760, "pitch": 42, "duration": 10, "velocity": 77}, {"time": 8760, "pitch": 69, "duration": 10, "velocity": 17}, {"time": 8820, "pitch": 69, "duration": 10, "velocity": 53}, {"time": 8880, "pitch": 42, "duration": 10, "velocity": 114}, {"time": 9000, "pitch": 35, "duration": 10, "velocity": 84}, {"time": 9000, "pitch": 42, "duration": 10, "velocity": 77}, {"time": 9000, "pitch": 69, "duration": 10, "velocity": 47}, {"time": 9060, "pitch": 69, "duration": 10, "velocity": 6}, {"time": 9119, "pitch": 42, "duration": 10, "velocity": 97}, {"time": 9119, "pitch": 69, "duration": 10, "velocity": 53}, {"time": 9239, "pitch": 42, "duration": 10, "velocity": 58}, {"time": 9239, "pitch": 69, "duration": 10, "velocity": 12}, {"time": 9299, "pitch": 69, "duration": 10, "velocity": 59}, {"time": 9359, "pitch": 35, "duration": 10, "velocity": 101}, {"time": 9359, "pitch": 42, "duration": 10, "velocity": 125}, {"time": 9359, "pitch": 69, "duration": 10, "velocity": 47}, {"time": 9479, "pitch": 42, "duration": 10, "velocity": 54}, {"time": 9479, "pitch": 69, "duration": 10, "velocity": 13}, {"time": 9598, "pitch": 37, "duration": 10, "velocity": 127}, {"time": 9598, "pitch": 42, "duration": 10, "velocity": 104}, {"time": 9598, "pitch": 69, "duration": 10, "velocity": 53}, {"time": 9659, "pitch": 42, "duration": 10, "velocity": 51}, {"time": 9659, "pitch": 69, "duration": 10, "velocity": 14}, {"time": 9719, "pitch": 42, "duration": 10, "velocity": 37}, {"time": 9719, "pitch": 69, "duration": 10, "velocity": 28}, {"time": 9780, "pitch": 42, "duration": 10, "velocity": 42}, {"time": 9780, "pitch": 69, "duration": 10, "velocity": 59}, {"time": 9840, "pitch": 42, "duration": 10, "velocity": 77}, {"time": 9840, "pitch": 69, "duration": 10, "velocity": 36}, {"time": 9961, "pitch": 46, "duration": 10, "velocity": 64}, {"time": 9961, "pitch": 69, "duration": 10, "velocity": 12}, {"time": 10022, "pitch": 69, "duration": 10, "velocity": 47}, {"time": 10082, "pitch": 35, "duration": 10, "velocity": 92}, {"time": 10082, "pitch": 42, "duration": 10, "velocity": 114}, {"time": 10082, "pitch": 69, "duration": 10, "velocity": 84}, {"time": 10202, "pitch": 42, "duration": 10, "velocity": 58}, {"time": 10322, "pitch": 35, "duration": 9, "velocity": 92}, {"time": 10322, "pitch": 42, "duration": 9, "velocity": 81}, {"time": 10322, "pitch": 69, "duration": 9, "velocity": 31}, {"time": 10381, "pitch": 69, "duration": 10, "velocity": 20}, {"time": 10441, "pitch": 42, "duration": 10, "velocity": 43}, {"time": 10441, "pitch": 69, "duration": 10, "velocity": 24}, {"time": 10501, "pitch": 69, "duration": 10, "velocity": 24}, {"time": 10561, "pitch": 37, "duration": 10, "velocity": 127}, {"time": 10561, "pitch": 42, "duration": 10, "velocity": 61}, {"time": 10561, "pitch": 69, "duration": 10, "velocity": 59}, {"time": 10681, "pitch": 42, "duration": 10, "velocity": 58}, {"time": 10681, "pitch": 69, "duration": 10, "velocity": 17}, {"time": 10740, "pitch": 69, "duration": 10, "velocity": 53}, {"time": 10800, "pitch": 42, "duration": 10, "velocity": 61}, {"time": 10920, "pitch": 42, "duration": 10, "velocity": 58}, {"time": 10920, "pitch": 69, "duration": 10, "velocity": 47}, {"time": 10980, "pitch": 69, "duration": 10, "velocity": 6}, {"time": 11040, "pitch": 35, "duration": 10, "velocity": 101}, {"time": 11040, "pitch": 42, "duration": 10, "velocity": 104}, {"time": 11040, "pitch": 69, "duration": 10, "velocity": 53}, {"time": 11100, "pitch": 42, "duration": 10, "velocity": 51}, {"time": 11159, "pitch": 42, "duration": 10, "velocity": 37}, {"time": 11159, "pitch": 69, "duration": 10, "velocity": 12}, {"time": 11219, "pitch": 42, "duration": 10, "velocity": 42}, {"time": 11219, "pitch": 69, "duration": 10, "velocity": 59}, {"time": 11279, "pitch": 42, "duration": 10, "velocity": 58}, {"time": 11279, "pitch": 69, "duration": 10, "velocity": 47}, {"time": 11399, "pitch": 42, "duration": 10, "velocity": 89}, {"time": 11399, "pitch": 69, "duration": 10, "velocity": 13}, {"time": 11519, "pitch": 37, "duration": 10, "velocity": 127}, {"time": 11519, "pitch": 42, "duration": 10, "velocity": 46}, {"time": 11519, "pitch": 69, "duration": 10, "velocity": 53}, {"time": 11519, "pitch": 70, "duration": 10, "velocity": 63}, {"time": 11579, "pitch": 69, "duration": 10, "velocity": 14}, {"time": 11579, "pitch": 70, "duration": 10, "velocity": 78}, {"time": 11640, "pitch": 42, "duration": 10, "velocity": 66}, {"time": 11640, "pitch": 69, "duration": 10, "velocity": 28}, {"time": 11640, "pitch": 70, "duration": 10, "velocity": 86}, {"time": 11700, "pitch": 69, "duration": 10, "velocity": 59}, {"time": 11700, "pitch": 70, "duration": 10, "velocity": 93}, {"time": 11761, "pitch": 35, "duration": 10, "velocity": 92}, {"time": 11761, "pitch": 46, "duration": 10, "velocity": 50}, {"time": 11761, "pitch": 69, "duration": 10, "velocity": 36}, {"time": 11761, "pitch": 70, "duration": 10, "velocity": 70}, {"time": 11881, "pitch": 69, "duration": 11, "velocity": 12}, {"time": 11942, "pitch": 69, "duration": 10, "velocity": 47}, {"time": 12002, "pitch": 35, "duration": 10, "velocity": 101}, {"time": 12002, "pitch": 42, "duration": 10, "velocity": 106}, {"time": 12002, "pitch": 69, "duration": 10, "velocity": 84}, {"time": 12122, "pitch": 42, "duration": 10, "velocity": 53}, {"time": 12242, "pitch": 42, "duration": 10, "velocity": 66}, {"time": 12242, "pitch": 69, "duration": 10, "velocity": 31}, {"time": 12302, "pitch": 69, "duration": 10, "velocity": 20}, {"time": 12362, "pitch": 42, "duration": 10, "velocity": 82}, {"time": 12362, "pitch": 69, "duration": 10, "velocity": 24}, {"time": 12421, "pitch": 69, "duration": 10, "velocity": 24}, {"time": 12481, "pitch": 37, "duration": 10, "velocity": 125}, {"time": 12481, "pitch": 42, "duration": 10, "velocity": 52}, {"time": 12481, "pitch": 69, "duration": 10, "velocity": 59}, {"time": 12601, "pitch": 42, "duration": 10, "velocity": 77}, {"time": 12601, "pitch": 69, "duration": 10, "velocity": 17}, {"time": 12661, "pitch": 69, "duration": 10, "velocity": 53}, {"time": 12721, "pitch": 42, "duration": 10, "velocity": 114}, {"time": 12840, "pitch": 35, "duration": 10, "velocity": 84}, {"time": 12840, "pitch": 42, "duration": 10, "velocity": 77}, {"time": 12840, "pitch": 69, "duration": 10, "velocity": 47}, {"time": 12900, "pitch": 69, "duration": 10, "velocity": 6}, {"time": 12960, "pitch": 42, "duration": 10, "velocity": 97}, {"time": 12960, "pitch": 69, "duration": 10, "velocity": 53}, {"time": 13080, "pitch": 42, "duration": 10, "velocity": 58}, {"time": 13080, "pitch": 69, "duration": 10, "velocity": 12}, {"time": 13140, "pitch": 69, "duration": 10, "velocity": 59}, {"time": 13200, "pitch": 35, "duration": 10, "velocity": 101}, {"time": 13200, "pitch": 42, "duration": 10, "velocity": 125}, {"time": 13200, "pitch": 69, "duration": 10, "velocity": 47}, {"time": 13319, "pitch": 42, "duration": 10, "velocity": 54}, {"time": 13319, "pitch": 69, "duration": 10, "velocity": 13}, {"time": 13439, "pitch": 37, "duration": 10, "velocity": 127}, {"time": 13439, "pitch": 42, "duration": 10, "velocity": 104}, {"time": 13439, "pitch": 69, "duration": 10, "velocity": 53}, {"time": 13499, "pitch": 42, "duration": 10, "velocity": 51}, {"time": 13499, "pitch": 69, "duration": 10, "velocity": 14}, {"time": 13559, "pitch": 42, "duration": 10, "velocity": 37}, {"time": 13559, "pitch": 69, "duration": 10, "velocity": 28}, {"time": 13619, "pitch": 42, "duration": 10, "velocity": 42}, {"time": 13619, "pitch": 69, "duration": 10, "velocity": 59}, {"time": 13678, "pitch": 42, "duration": 10, "velocity": 77}, {"time": 13678, "pitch": 69, "duration": 10, "velocity": 36}, {"time": 13798, "pitch": 46, "duration": 10, "velocity": 64}, {"time": 13798, "pitch": 69, "duration": 10, "velocity": 12}, {"time": 13858, "pitch": 69, "duration": 10, "velocity": 47}, {"time": 13918, "pitch": 35, "duration": 10, "velocity": 92}, {"time": 13918, "pitch": 42, "duration": 10, "velocity": 114}, {"time": 13918, "pitch": 69, "duration": 10, "velocity": 84}, {"time": 14039, "pitch": 42, "duration": 10, "velocity": 58}, {"time": 14160, "pitch": 35, "duration": 10, "velocity": 92}, {"time": 14160, "pitch": 42, "duration": 10, "velocity": 81}, {"time": 14160, "pitch": 69, "duration": 10, "velocity": 31}, {"time": 14220, "pitch": 69, "duration": 10, "velocity": 20}, {"time": 14281, "pitch": 42, "duration": 10, "velocity": 43}, {"time": 14281, "pitch": 69, "duration": 10, "velocity": 24}, {"time": 14341, "pitch": 69, "duration": 10, "velocity": 24}, {"time": 14402, "pitch": 37, "duration": 10, "velocity": 127}, {"time": 14402, "pitch": 42, "duration": 10, "velocity": 61}, {"time": 14402, "pitch": 69, "duration": 10, "velocity": 59}, {"time": 14521, "pitch": 42, "duration": 10, "velocity": 58}, {"time": 14521, "pitch": 69, "duration": 10, "velocity": 17}, {"time": 14581, "pitch": 69, "duration": 10, "velocity": 53}, {"time": 14641, "pitch": 42, "duration": 10, "velocity": 61}, {"time": 14761, "pitch": 42, "duration": 10, "velocity": 58}, {"time": 14761, "pitch": 69, "duration": 10, "velocity": 47}, {"time": 14821, "pitch": 69, "duration": 10, "velocity": 6}, {"time": 14880, "pitch": 35, "duration": 10, "velocity": 101}, {"time": 14880, "pitch": 42, "duration": 10, "velocity": 104}, {"time": 14880, "pitch": 69, "duration": 10, "velocity": 53}, {"time": 14940, "pitch": 42, "duration": 10, "velocity": 51}, {"time": 15000, "pitch": 42, "duration": 10, "velocity": 37}, {"time": 15000, "pitch": 69, "duration": 10, "velocity": 12}, {"time": 15060, "pitch": 42, "duration": 10, "velocity": 42}, {"time": 15060, "pitch": 69, "duration": 10, "velocity": 59}, {"time": 15120, "pitch": 42, "duration": 10, "velocity": 58}, {"time": 15120, "pitch": 69, "duration": 10, "velocity": 47}, {"time": 15240, "pitch": 42, "duration": 10, "velocity": 89}, {"time": 15240, "pitch": 69, "duration": 10, "velocity": 13}, {"time": 15359, "pitch": 37, "duration": 10, "velocity": 127}, {"time": 15359, "pitch": 42, "duration": 10, "velocity": 46}, {"time": 15359, "pitch": 69, "duration": 10, "velocity": 53}, {"time": 15359, "pitch": 70, "duration": 10, "velocity": 63}, {"time": 15419, "pitch": 69, "duration": 10, "velocity": 14}, {"time": 15419, "pitch": 70, "duration": 10, "velocity": 78}, {"time": 15479, "pitch": 42, "duration": 10, "velocity": 66}, {"time": 15479, "pitch": 69, "duration": 10, "velocity": 28}, {"time": 15479, "pitch": 70, "duration": 10, "velocity": 86}, {"time": 15539, "pitch": 69, "duration": 10, "velocity": 59}, {"time": 15539, "pitch": 70, "duration": 10, "velocity": 93}, {"time": 15599, "pitch": 35, "duration": 10, "velocity": 92}, {"time": 15599, "pitch": 46, "duration": 10, "velocity": 64}, {"time": 15599, "pitch": 69, "duration": 10, "velocity": 36}, {"time": 15599, "pitch": 70, "duration": 10, "velocity": 70}, {"time": 15718, "pitch": 69, "duration": 10, "velocity": 12}, {"time": 15778, "pitch": 69, "duration": 10, "velocity": 47}, {"time": 15838, "pitch": 35, "duration": 10, "velocity": 101}, {"time": 15838, "pitch": 42, "duration": 10, "velocity": 106}, {"time": 15838, "pitch": 69, "duration": 10, "velocity": 84}, {"time": 15959, "pitch": 42, "duration": 10, "velocity": 53}, {"time": 16080, "pitch": 42, "duration": 10, "velocity": 66}, {"time": 16080, "pitch": 69, "duration": 10, "velocity": 31}, {"time": 16141, "pitch": 69, "duration": 10, "velocity": 20}, {"time": 16201, "pitch": 42, "duration": 10, "velocity": 82}, {"time": 16201, "pitch": 69, "duration": 10, "velocity": 24}, {"time": 16262, "pitch": 69, "duration": 10, "velocity": 24}, {"time": 16322, "pitch": 37, "duration": 10, "velocity": 127}, {"time": 16322, "pitch": 42, "duration": 10, "velocity": 52}, {"time": 16322, "pitch": 69, "duration": 10, "velocity": 59}, {"time": 16442, "pitch": 42, "duration": 10, "velocity": 77}, {"time": 16442, "pitch": 69, "duration": 10, "velocity": 17}, {"time": 16502, "pitch": 69, "duration": 10, "velocity": 53}, {"time": 16561, "pitch": 42, "duration": 10, "velocity": 114}, {"time": 16681, "pitch": 35, "duration": 10, "velocity": 84}, {"time": 16681, "pitch": 42, "duration": 10, "velocity": 77}, {"time": 16681, "pitch": 69, "duration": 10, "velocity": 47}, {"time": 16741, "pitch": 69, "duration": 10, "velocity": 6}, {"time": 16801, "pitch": 42, "duration": 10, "velocity": 97}, {"time": 16801, "pitch": 69, "duration": 10, "velocity": 53}, {"time": 16921, "pitch": 42, "duration": 10, "velocity": 58}, {"time": 16921, "pitch": 69, "duration": 10, "velocity": 12}, {"time": 16980, "pitch": 69, "duration": 10, "velocity": 59}, {"time": 17040, "pitch": 35, "duration": 10, "velocity": 101}, {"time": 17040, "pitch": 42, "duration": 10, "velocity": 125}, {"time": 17040, "pitch": 69, "duration": 10, "velocity": 47}, {"time": 17160, "pitch": 42, "duration": 10, "velocity": 54}, {"time": 17160, "pitch": 69, "duration": 10, "velocity": 13}, {"time": 17280, "pitch": 37, "duration": 10, "velocity": 127}, {"time": 17280, "pitch": 42, "duration": 10, "velocity": 104}, {"time": 17280, "pitch": 69, "duration": 10, "velocity": 53}, {"time": 17340, "pitch": 42, "duration": 9, "velocity": 51}, {"time": 17340, "pitch": 69, "duration": 9, "velocity": 14}, {"time": 17399, "pitch": 42, "duration": 10, "velocity": 37}, {"time": 17399, "pitch": 69, "duration": 10, "velocity": 28}, {"time": 17459, "pitch": 42, "duration": 10, "velocity": 42}, {"time": 17459, "pitch": 69, "duration": 10, "velocity": 59}, {"time": 17519, "pitch": 42, "duration": 10, "velocity": 77}, {"time": 17519, "pitch": 69, "duration": 10, "velocity": 36}, {"time": 17639, "pitch": 46, "duration": 10, "velocity": 64}, {"time": 17639, "pitch": 69, "duration": 10, "velocity": 12}, {"time": 17699, "pitch": 69, "duration": 10, "velocity": 47}, {"time": 17759, "pitch": 35, "duration": 10, "velocity": 92}, {"time": 17759, "pitch": 42, "duration": 10, "velocity": 114}, {"time": 17759, "pitch": 69, "duration": 10, "velocity": 84}, {"time": 17879, "pitch": 42, "duration": 11, "velocity": 58}, {"time": 18000, "pitch": 35, "duration": 10, "velocity": 92}, {"time": 18000, "pitch": 42, "duration": 10, "velocity": 81}, {"time": 18000, "pitch": 69, "duration": 10, "velocity": 31}, {"time": 18061, "pitch": 69, "duration": 10, "velocity": 20}, {"time": 18121, "pitch": 42, "duration": 10, "velocity": 43}, {"time": 18121, "pitch": 69, "duration": 10, "velocity": 24}, {"time": 18182, "pitch": 69, "duration": 10, "velocity": 24}, {"time": 18242, "pitch": 37, "duration": 10, "velocity": 127}, {"time": 18242, "pitch": 42, "duration": 10, "velocity": 61}, {"time": 18242, "pitch": 69, "duration": 10, "velocity": 59}, {"time": 18362, "pitch": 42, "duration": 10, "velocity": 58}, {"time": 18362, "pitch": 69, "duration": 10, "velocity": 17}, {"time": 18422, "pitch": 69, "duration": 10, "velocity": 53}, {"time": 18482, "pitch": 42, "duration": 10, "velocity": 61}, {"time": 18601, "pitch": 42, "duration": 10, "velocity": 58}, {"time": 18601, "pitch": 69, "duration": 10, "velocity": 47}, {"time": 18661, "pitch": 69, "duration": 10, "velocity": 6}, {"time": 18721, "pitch": 35, "duration": 10, "velocity": 101}, {"time": 18721, "pitch": 42, "duration": 10, "velocity": 104}, {"time": 18721, "pitch": 69, "duration": 10, "velocity": 53}, {"time": 18781, "pitch": 42, "duration": 10, "velocity": 51}, {"time": 18841, "pitch": 42, "duration": 10, "velocity": 37}, {"time": 18841, "pitch": 69, "duration": 10, "velocity": 12}, {"time": 18901, "pitch": 42, "duration": 10, "velocity": 42}, {"time": 18901, "pitch": 69, "duration": 10, "velocity": 59}, {"time": 18961, "pitch": 42, "duration": 10, "velocity": 58}, {"time": 18961, "pitch": 69, "duration": 10, "velocity": 47}, {"time": 19080, "pitch": 42, "duration": 10, "velocity": 89}, {"time": 19080, "pitch": 69, "duration": 10, "velocity": 13}, {"time": 19200, "pitch": 37, "duration": 10, "velocity": 125}, {"time": 19200, "pitch": 42, "duration": 10, "velocity": 46}, {"time": 19200, "pitch": 69, "duration": 10, "velocity": 53}, {"time": 19200, "pitch": 70, "duration": 10, "velocity": 63}, {"time": 19260, "pitch": 69, "duration": 10, "velocity": 14}, {"time": 19260, "pitch": 70, "duration": 10, "velocity": 78}, {"time": 19320, "pitch": 42, "duration": 10, "velocity": 66}, {"time": 19320, "pitch": 69, "duration": 10, "velocity": 28}, {"time": 19320, "pitch": 70, "duration": 10, "velocity": 86}, {"time": 19380, "pitch": 69, "duration": 10, "velocity": 59}, {"time": 19380, "pitch": 70, "duration": 10, "velocity": 93}, {"time": 19439, "pitch": 35, "duration": 10, "velocity": 92}, {"time": 19439, "pitch": 46, "duration": 10, "velocity": 50}, {"time": 19439, "pitch": 69, "duration": 10, "velocity": 36}, {"time": 19439, "pitch": 70, "duration": 10, "velocity": 70}, {"time": 19559, "pitch": 69, "duration": 10, "velocity": 12}, {"time": 19619, "pitch": 69, "duration": 10, "velocity": 47}, {"time": 19679, "pitch": 35, "duration": 10, "velocity": 101}, {"time": 19679, "pitch": 42, "duration": 10, "velocity": 106}, {"time": 19679, "pitch": 69, "duration": 10, "velocity": 84}, {"time": 19799, "pitch": 42, "duration": 10, "velocity": 53}, {"time": 19918, "pitch": 42, "duration": 10, "velocity": 66}, {"time": 19918, "pitch": 69, "duration": 10, "velocity": 31}, {"time": 19978, "pitch": 69, "duration": 10, "velocity": 20}, {"time": 20038, "pitch": 42, "duration": 10, "velocity": 82}, {"time": 20038, "pitch": 69, "duration": 10, "velocity": 24}, {"time": 20098, "pitch": 69, "duration": 10, "velocity": 24}, {"time": 20158, "pitch": 37, "duration": 10, "velocity": 127}, {"time": 20158, "pitch": 42, "duration": 10, "velocity": 52}, {"time": 20158, "pitch": 69, "duration": 10, "velocity": 59}, {"time": 20279, "pitch": 42, "duration": 10, "velocity": 77}, {"time": 20279, "pitch": 69, "duration": 10, "velocity": 17}, {"time": 20339, "pitch": 69, "duration": 10, "velocity": 53}, {"time": 20400, "pitch": 42, "duration": 10, "velocity": 114}, {"time": 20521, "pitch": 35, "duration": 10, "velocity": 84}, {"time": 20521, "pitch": 42, "duration": 10, "velocity": 77}, {"time": 20521, "pitch": 69, "duration": 10, "velocity": 47}, {"time": 20581, "pitch": 69, "duration": 10, "velocity": 6}, {"time": 20642, "pitch": 42, "duration": 9, "velocity": 97}, {"time": 20642, "pitch": 69, "duration": 9, "velocity": 53}, {"time": 20761, "pitch": 42, "duration": 10, "velocity": 58}, {"time": 20761, "pitch": 69, "duration": 10, "velocity": 12}, {"time": 20821, "pitch": 69, "duration": 10, "velocity": 59}, {"time": 20881, "pitch": 35, "duration": 10, "velocity": 101}, {"time": 20881, "pitch": 42, "duration": 10, "velocity": 125}, {"time": 20881, "pitch": 69, "duration": 10, "velocity": 47}, {"time": 21001, "pitch": 42, "duration": 10, "velocity": 54}, {"time": 21001, "pitch": 69, "duration": 10, "velocity": 13}, {"time": 21120, "pitch": 37, "duration": 10, "velocity": 127}, {"time": 21120, "pitch": 42, "duration": 10, "velocity": 104}, {"time": 21120, "pitch": 69, "duration": 10, "velocity": 53}, {"time": 21180, "pitch": 42, "duration": 10, "velocity": 51}, {"time": 21180, "pitch": 69, "duration": 10, "velocity": 14}, {"time": 21240, "pitch": 42, "duration": 10, "velocity": 37}, {"time": 21240, "pitch": 69, "duration": 10, "velocity": 28}, {"time": 21300, "pitch": 42, "duration": 10, "velocity": 42}, {"time": 21300, "pitch": 69, "duration": 10, "velocity": 59}, {"time": 21360, "pitch": 42, "duration": 10, "velocity": 77}, {"time": 21360, "pitch": 69, "duration": 10, "velocity": 36}, {"time": 21479, "pitch": 46, "duration": 10, "velocity": 64}, {"time": 21479, "pitch": 69, "duration": 10, "velocity": 12}, {"time": 21539, "pitch": 69, "duration": 10, "velocity": 47}, {"time": 21599, "pitch": 35, "duration": 10, "velocity": 92}, {"time": 21599, "pitch": 42, "duration": 10, "velocity": 114}, {"time": 21599, "pitch": 69, "duration": 10, "velocity": 84}, {"time": 21719, "pitch": 42, "duration": 10, "velocity": 58}, {"time": 21839, "pitch": 35, "duration": 10, "velocity": 92}, {"time": 21839, "pitch": 42, "duration": 10, "velocity": 81}, {"time": 21839, "pitch": 69, "duration": 10, "velocity": 31}, {"time": 21898, "pitch": 69, "duration": 10, "velocity": 20}, {"time": 21958, "pitch": 42, "duration": 10, "velocity": 43}, {"time": 21958, "pitch": 69, "duration": 10, "velocity": 24}, {"time": 22018, "pitch": 69, "duration": 10, "velocity": 24}, {"time": 22078, "pitch": 37, "duration": 10, "velocity": 127}, {"time": 22078, "pitch": 42, "duration": 10, "velocity": 61}, {"time": 22078, "pitch": 69, "duration": 10, "velocity": 59}, {"time": 22199, "pitch": 42, "duration": 10, "velocity": 58}, {"time": 22199, "pitch": 69, "duration": 10, "velocity": 17}, {"time": 22259, "pitch": 69, "duration": 11, "velocity": 53}, {"time": 22320, "pitch": 42, "duration": 10, "velocity": 61}, {"time": 22441, "pitch": 42, "duration": 10, "velocity": 58}, {"time": 22441, "pitch": 69, "duration": 10, "velocity": 47}, {"time": 22501, "pitch": 69, "duration": 10, "velocity": 6}, {"time": 22562, "pitch": 35, "duration": 10, "velocity": 101}, {"time": 22562, "pitch": 42, "duration": 10, "velocity": 104}, {"time": 22562, "pitch": 69, "duration": 10, "velocity": 53}, {"time": 22622, "pitch": 42, "duration": 10, "velocity": 51}, {"time": 22682, "pitch": 42, "duration": 10, "velocity": 37}, {"time": 22682, "pitch": 69, "duration": 10, "velocity": 12}, {"time": 22741, "pitch": 42, "duration": 10, "velocity": 42}, {"time": 22741, "pitch": 69, "duration": 10, "velocity": 59}, {"time": 22801, "pitch": 42, "duration": 10, "velocity": 58}, {"time": 22801, "pitch": 69, "duration": 10, "velocity": 47}, {"time": 22921, "pitch": 42, "duration": 10, "velocity": 89}, {"time": 22921, "pitch": 69, "duration": 10, "velocity": 13}, {"time": 23041, "pitch": 37, "duration": 10, "velocity": 125}, {"time": 23041, "pitch": 42, "duration": 10, "velocity": 46}, {"time": 23041, "pitch": 69, "duration": 10, "velocity": 53}, {"time": 23041, "pitch": 70, "duration": 10, "velocity": 63}, {"time": 23101, "pitch": 69, "duration": 10, "velocity": 14}, {"time": 23101, "pitch": 70, "duration": 10, "velocity": 78}, {"time": 23160, "pitch": 42, "duration": 10, "velocity": 66}, {"time": 23160, "pitch": 69, "duration": 10, "velocity": 28}, {"time": 23160, "pitch": 70, "duration": 10, "velocity": 86}, {"time": 23220, "pitch": 69, "duration": 10, "velocity": 59}, {"time": 23220, "pitch": 70, "duration": 10, "velocity": 93}, {"time": 23280, "pitch": 35, "duration": 10, "velocity": 92}, {"time": 23280, "pitch": 46, "duration": 10, "velocity": 50}, {"time": 23280, "pitch": 69, "duration": 10, "velocity": 36}, {"time": 23280, "pitch": 70, "duration": 10, "velocity": 70}, {"time": 23400, "pitch": 69, "duration": 10, "velocity": 12}, {"time": 23460, "pitch": 69, "duration": 10, "velocity": 47}, {"time": 23520, "pitch": 35, "duration": 10, "velocity": 101}, {"time": 23520, "pitch": 42, "duration": 10, "velocity": 106}, {"time": 23520, "pitch": 69, "duration": 10, "velocity": 84}, {"time": 23639, "pitch": 42, "duration": 10, "velocity": 53}, {"time": 23759, "pitch": 42, "duration": 10, "velocity": 66}, {"time": 23759, "pitch": 69, "duration": 10, "velocity": 31}, {"time": 23819, "pitch": 69, "duration": 10, "velocity": 20}, {"time": 23879, "pitch": 42, "duration": 10, "velocity": 82}, {"time": 23879, "pitch": 69, "duration": 10, "velocity": 24}, {"time": 23939, "pitch": 69, "duration": 10, "velocity": 24}, {"time": 23998, "pitch": 37, "duration": 10, "velocity": 125}, {"time": 23998, "pitch": 42, "duration": 10, "velocity": 52}, {"time": 23998, "pitch": 69, "duration": 10, "velocity": 59}, {"time": 24119, "pitch": 42, "duration": 10, "velocity": 77}, {"time": 24119, "pitch": 69, "duration": 10, "velocity": 17}, {"time": 24180, "pitch": 69, "duration": 10, "velocity": 53}, {"time": 24240, "pitch": 42, "duration": 10, "velocity": 114}, {"time": 24361, "pitch": 35, "duration": 10, "velocity": 84}, {"time": 24361, "pitch": 42, "duration": 10, "velocity": 77}, {"time": 24361, "pitch": 69, "duration": 10, "velocity": 47}, {"time": 24422, "pitch": 69, "duration": 10, "velocity": 6}, {"time": 24482, "pitch": 42, "duration": 10, "velocity": 97}, {"time": 24482, "pitch": 69, "duration": 10, "velocity": 53}, {"time": 24602, "pitch": 42, "duration": 10, "velocity": 58}, {"time": 24602, "pitch": 69, "duration": 10, "velocity": 12}, {"time": 24662, "pitch": 69, "duration": 10, "velocity": 59}, {"time": 24722, "pitch": 35, "duration": 10, "velocity": 101}, {"time": 24722, "pitch": 42, "duration": 10, "velocity": 125}, {"time": 24722, "pitch": 69, "duration": 10, "velocity": 47}, {"time": 24841, "pitch": 42, "duration": 10, "velocity": 54}, {"time": 24841, "pitch": 69, "duration": 10, "velocity": 13}, {"time": 24961, "pitch": 37, "duration": 10, "velocity": 127}, {"time": 24961, "pitch": 42, "duration": 10, "velocity": 104}, {"time": 24961, "pitch": 69, "duration": 10, "velocity": 53}, {"time": 25021, "pitch": 42, "duration": 10, "velocity": 51}, {"time": 25021, "pitch": 69, "duration": 10, "velocity": 14}, {"time": 25081, "pitch": 42, "duration": 10, "velocity": 37}, {"time": 25081, "pitch": 69, "duration": 10, "velocity": 28}, {"time": 25141, "pitch": 42, "duration": 10, "velocity": 42}, {"time": 25141, "pitch": 69, "duration": 10, "velocity": 59}, {"time": 25200, "pitch": 42, "duration": 10, "velocity": 77}, {"time": 25200, "pitch": 69, "duration": 10, "velocity": 36}, {"time": 25320, "pitch": 46, "duration": 10, "velocity": 64}, {"time": 25320, "pitch": 69, "duration": 10, "velocity": 12}, {"time": 25380, "pitch": 69, "duration": 10, "velocity": 47}, {"time": 25440, "pitch": 35, "duration": 10, "velocity": 92}, {"time": 25440, "pitch": 42, "duration": 10, "velocity": 114}, {"time": 25440, "pitch": 69, "duration": 10, "velocity": 84}, {"time": 25560, "pitch": 42, "duration": 10, "velocity": 58}, {"time": 25679, "pitch": 35, "duration": 10, "velocity": 92}, {"time": 25679, "pitch": 42, "duration": 10, "velocity": 81}, {"time": 25679, "pitch": 69, "duration": 10, "velocity": 31}, {"time": 25739, "pitch": 69, "duration": 10, "velocity": 20}, {"time": 25799, "pitch": 42, "duration": 10, "velocity": 43}, {"time": 25799, "pitch": 69, "duration": 10, "velocity": 24}, {"time": 25859, "pitch": 69, "duration": 10, "velocity": 24}, {"time": 25919, "pitch": 37, "duration": 10, "velocity": 122}, {"time": 25919, "pitch": 42, "duration": 10, "velocity": 61}, {"time": 25919, "pitch": 69, "duration": 10, "velocity": 59}, {"time": 26038, "pitch": 42, "duration": 10, "velocity": 58}, {"time": 26038, "pitch": 69, "duration": 10, "velocity": 17}, {"time": 26098, "pitch": 69, "duration": 10, "velocity": 53}, {"time": 26158, "pitch": 42, "duration": 10, "velocity": 61}, {"time": 26278, "pitch": 42, "duration": 10, "velocity": 58}, {"time": 26278, "pitch": 69, "duration": 10, "velocity": 47}, {"time": 26338, "pitch": 69, "duration": 10, "velocity": 6}, {"time": 26398, "pitch": 35, "duration": 10, "velocity": 101}, {"time": 26398, "pitch": 42, "duration": 10, "velocity": 104}, {"time": 26398, "pitch": 69, "duration": 10, "velocity": 53}, {"time": 26458, "pitch": 42, "duration": 10, "velocity": 51}, {"time": 26519, "pitch": 42, "duration": 10, "velocity": 37}, {"time": 26519, "pitch": 69, "duration": 10, "velocity": 12}, {"time": 26579, "pitch": 42, "duration": 10, "velocity": 42}, {"time": 26579, "pitch": 69, "duration": 10, "velocity": 59}, {"time": 26639, "pitch": 42, "duration": 11, "velocity": 58}, {"time": 26639, "pitch": 69, "duration": 11, "velocity": 47}, {"time": 26760, "pitch": 42, "duration": 11, "velocity": 89}, {"time": 26760, "pitch": 69, "duration": 11, "velocity": 13}, {"time": 26881, "pitch": 37, "duration": 10, "velocity": 122}, {"time": 26881, "pitch": 42, "duration": 10, "velocity": 46}, {"time": 26881, "pitch": 69, "duration": 10, "velocity": 53}, {"time": 26881, "pitch": 70, "duration": 10, "velocity": 63}, {"time": 26941, "pitch": 69, "duration": 10, "velocity": 14}, {"time": 26941, "pitch": 70, "duration": 10, "velocity": 78}, {"time": 27001, "pitch": 42, "duration": 10, "velocity": 66}, {"time": 27001, "pitch": 69, "duration": 10, "velocity": 28}, {"time": 27001, "pitch": 70, "duration": 10, "velocity": 86}, {"time": 27061, "pitch": 69, "duration": 10, "velocity": 59}, {"time": 27061, "pitch": 70, "duration": 10, "velocity": 93}, {"time": 27121, "pitch": 35, "duration": 10, "velocity": 92}, {"time": 27121, "pitch": 46, "duration": 10, "velocity": 50}, {"time": 27121, "pitch": 69, "duration": 10, "velocity": 36}, {"time": 27121, "pitch": 70, "duration": 10, "velocity": 70}, {"time": 27241, "pitch": 69, "duration": 10, "velocity": 12}, {"time": 27300, "pitch": 69, "duration": 10, "velocity": 47}, {"time": 27360, "pitch": 35, "duration": 10, "velocity": 101}, {"time": 27360, "pitch": 42, "duration": 10, "velocity": 106}, {"time": 27360, "pitch": 69, "duration": 10, "velocity": 84}, {"time": 27480, "pitch": 42, "duration": 10, "velocity": 53}, {"time": 27600, "pitch": 42, "duration": 10, "velocity": 66}, {"time": 27600, "pitch": 69, "duration": 10, "velocity": 31}, {"time": 27660, "pitch": 69, "duration": 10, "velocity": 20}, {"time": 27719, "pitch": 42, "duration": 10, "velocity": 82}, {"time": 27719, "pitch": 69, "duration": 10, "velocity": 24}, {"time": 27779, "pitch": 69, "duration": 10, "velocity": 24}, {"time": 27839, "pitch": 37, "duration": 10, "velocity": 114}, {"time": 27839, "pitch": 42, "duration": 10, "velocity": 52}, {"time": 27839, "pitch": 69, "duration": 10, "velocity": 59}, {"time": 27959, "pitch": 42, "duration": 10, "velocity": 77}, {"time": 27959, "pitch": 69, "duration": 10, "velocity": 17}, {"time": 28019, "pitch": 69, "duration": 10, "velocity": 53}, {"time": 28079, "pitch": 42, "duration": 9, "velocity": 114}, {"time": 28198, "pitch": 35, "duration": 10, "velocity": 84}, {"time": 28198, "pitch": 42, "duration": 10, "velocity": 77}, {"time": 28198, "pitch": 69, "duration": 10, "velocity": 47}, {"time": 28258, "pitch": 69, "duration": 10, "velocity": 6}, {"time": 28318, "pitch": 42, "duration": 10, "velocity": 97}, {"time": 28318, "pitch": 69, "duration": 10, "velocity": 53}, {"time": 28439, "pitch": 42, "duration": 10, "velocity": 58}, {"time": 28439, "pitch": 69, "duration": 10, "velocity": 12}, {"time": 28499, "pitch": 69, "duration": 10, "velocity": 59}, {"time": 28560, "pitch": 35, "duration": 10, "velocity": 101}, {"time": 28560, "pitch": 42, "duration": 10, "velocity": 125}, {"time": 28560, "pitch": 69, "duration": 10, "velocity": 47}, {"time": 28681, "pitch": 42, "duration": 10, "velocity": 54}, {"time": 28681, "pitch": 69, "duration": 10, "velocity": 13}, {"time": 28802, "pitch": 37, "duration": 10, "velocity": 127}, {"time": 28802, "pitch": 42, "duration": 10, "velocity": 104}, {"time": 28802, "pitch": 69, "duration": 10, "velocity": 53}, {"time": 28862, "pitch": 42, "duration": 10, "velocity": 51}, {"time": 28862, "pitch": 69, "duration": 10, "velocity": 14}, {"time": 28921, "pitch": 42, "duration": 10, "velocity": 37}, {"time": 28921, "pitch": 69, "duration": 10, "velocity": 28}, {"time": 28981, "pitch": 42, "duration": 10, "velocity": 42}, {"time": 28981, "pitch": 69, "duration": 10, "velocity": 59}, {"time": 29041, "pitch": 42, "duration": 10, "velocity": 77}, {"time": 29041, "pitch": 69, "duration": 10, "velocity": 36}, {"time": 29161, "pitch": 46, "duration": 10, "velocity": 64}, {"time": 29161, "pitch": 69, "duration": 10, "velocity": 12}, {"time": 29221, "pitch": 69, "duration": 10, "velocity": 47}, {"time": 29281, "pitch": 35, "duration": 10, "velocity": 92}, {"time": 29281, "pitch": 42, "duration": 10, "velocity": 114}, {"time": 29281, "pitch": 69, "duration": 10, "velocity": 84}, {"time": 29400, "pitch": 42, "duration": 10, "velocity": 58}, {"time": 29520, "pitch": 35, "duration": 10, "velocity": 92}, {"time": 29520, "pitch": 42, "duration": 10, "velocity": 81}, {"time": 29520, "pitch": 69, "duration": 10, "velocity": 31}, {"time": 29580, "pitch": 69, "duration": 10, "velocity": 20}, {"time": 29640, "pitch": 42, "duration": 10, "velocity": 43}, {"time": 29640, "pitch": 69, "duration": 10, "velocity": 24}, {"time": 29700, "pitch": 69, "duration": 10, "velocity": 24}, {"time": 29759, "pitch": 37, "duration": 10, "velocity": 127}, {"time": 29759, "pitch": 42, "duration": 10, "velocity": 61}, {"time": 29759, "pitch": 69, "duration": 10, "velocity": 59}, {"time": 29879, "pitch": 42, "duration": 10, "velocity": 58}, {"time": 29879, "pitch": 69, "duration": 10, "velocity": 17}, {"time": 29939, "pitch": 69, "duration": 10, "velocity": 53}, {"time": 29999, "pitch": 42, "duration": 10, "velocity": 61}, {"time": 30119, "pitch": 42, "duration": 10, "velocity": 58}, {"time": 30119, "pitch": 69, "duration": 10, "velocity": 47}, {"time": 30178, "pitch": 69, "duration": 10, "velocity": 6}, {"time": 30238, "pitch": 35, "duration": 10, "velocity": 101}, {"time": 30238, "pitch": 42, "duration": 10, "velocity": 104}, {"time": 30238, "pitch": 69, "duration": 10, "velocity": 53}, {"time": 30299, "pitch": 42, "duration": 10, "velocity": 51}, {"time": 30359, "pitch": 42, "duration": 10, "velocity": 37}, {"time": 30359, "pitch": 69, "duration": 10, "velocity": 12}, {"time": 30420, "pitch": 42, "duration": 10, "velocity": 42}, {"time": 30420, "pitch": 69, "duration": 10, "velocity": 59}, {"time": 30480, "pitch": 42, "duration": 10, "velocity": 58}, {"time": 30480, "pitch": 69, "duration": 10, "velocity": 47}, {"time": 30601, "pitch": 42, "duration": 10, "velocity": 89}, {"time": 30601, "pitch": 69, "duration": 10, "velocity": 13}, {"time": 30722, "pitch": 37, "duration": 10, "velocity": 127}, {"time": 30722, "pitch": 42, "duration": 10, "velocity": 46}, {"time": 30722, "pitch": 69, "duration": 10, "velocity": 53}, {"time": 30722, "pitch": 70, "duration": 10, "velocity": 63}, {"time": 30782, "pitch": 69, "duration": 10, "velocity": 14}, {"time": 30782, "pitch": 70, "duration": 10, "velocity": 78}, {"time": 30842, "pitch": 42, "duration": 10, "velocity": 66}, {"time": 30842, "pitch": 69, "duration": 10, "velocity": 28}, {"time": 30842, "pitch": 70, "duration": 10, "velocity": 86}, {"time": 30902, "pitch": 69, "duration": 10, "velocity": 59}, {"time": 30902, "pitch": 70, "duration": 10, "velocity": 93}, {"time": 30962, "pitch": 35, "duration": 9, "velocity": 92}, {"time": 30962, "pitch": 46, "duration": 9, "velocity": 50}, {"time": 30962, "pitch": 69, "duration": 9, "velocity": 36}, {"time": 30962, "pitch": 70, "duration": 9, "velocity": 70}, {"time": 31081, "pitch": 69, "duration": 10, "velocity": 12}, {"time": 31141, "pitch": 69, "duration": 10, "velocity": 47}, {"time": 31201, "pitch": 35, "duration": 10, "velocity": 101}, {"time": 31201, "pitch": 42, "duration": 10, "velocity": 106}, {"time": 31201, "pitch": 69, "duration": 10, "velocity": 84}, {"time": 31321, "pitch": 42, "duration": 10, "velocity": 53}, {"time": 31440, "pitch": 42, "duration": 10, "velocity": 66}, {"time": 31440, "pitch": 69, "duration": 10, "velocity": 31}, {"time": 31500, "pitch": 69, "duration": 10, "velocity": 20}, {"time": 31560, "pitch": 42, "duration": 10, "velocity": 82}, {"time": 31560, "pitch": 69, "duration": 10, "velocity": 24}, {"time": 31620, "pitch": 69, "duration": 10, "velocity": 24}, {"time": 31680, "pitch": 37, "duration": 10, "velocity": 125}, {"time": 31680, "pitch": 42, "duration": 10, "velocity": 52}, {"time": 31680, "pitch": 69, "duration": 10, "velocity": 59}, {"time": 31800, "pitch": 42, "duration": 9, "velocity": 77}, {"time": 31800, "pitch": 69, "duration": 9, "velocity": 17}, {"time": 31859, "pitch": 69, "duration": 10, "velocity": 53}, {"time": 31919, "pitch": 42, "duration": 10, "velocity": 114}, {"time": 32039, "pitch": 35, "duration": 10, "velocity": 84}, {"time": 32039, "pitch": 42, "duration": 10, "velocity": 77}, {"time": 32039, "pitch": 69, "duration": 10, "velocity": 47}, {"time": 32099, "pitch": 69, "duration": 10, "velocity": 6}, {"time": 32159, "pitch": 42, "duration": 10, "velocity": 97}, {"time": 32159, "pitch": 69, "duration": 10, "velocity": 53}, {"time": 32280, "pitch": 42, "duration": 10, "velocity": 58}, {"time": 32280, "pitch": 69, "duration": 10, "velocity": 12}, {"time": 32340, "pitch": 69, "duration": 10, "velocity": 59}, {"time": 32401, "pitch": 35, "duration": 10, "velocity": 101}, {"time": 32401, "pitch": 42, "duration": 10, "velocity": 125}, {"time": 32401, "pitch": 69, "duration": 10, "velocity": 47}, {"time": 32522, "pitch": 42, "duration": 10, "velocity": 54}, {"time": 32522, "pitch": 69, "duration": 10, "velocity": 13}, {"time": 32642, "pitch": 37, "duration": 10, "velocity": 127}, {"time": 32642, "pitch": 42, "duration": 10, "velocity": 104}, {"time": 32642, "pitch": 69, "duration": 10, "velocity": 53}, {"time": 32702, "pitch": 42, "duration": 10, "velocity": 51}, {"time": 32702, "pitch": 69, "duration": 10, "velocity": 14}, {"time": 32762, "pitch": 42, "duration": 10, "velocity": 37}, {"time": 32762, "pitch": 69, "duration": 10, "velocity": 28}, {"time": 32822, "pitch": 42, "duration": 10, "velocity": 42}, {"time": 32822, "pitch": 69, "duration": 10, "velocity": 59}, {"time": 32882, "pitch": 42, "duration": 10, "velocity": 77}, {"time": 32882, "pitch": 69, "duration": 10, "velocity": 36}, {"time": 33002, "pitch": 46, "duration": 10, "velocity": 64}, {"time": 33002, "pitch": 69, "duration": 10, "velocity": 12}, {"time": 33061, "pitch": 69, "duration": 10, "velocity": 47}, {"time": 33121, "pitch": 35, "duration": 10, "velocity": 92}, {"time": 33121, "pitch": 42, "duration": 10, "velocity": 114}, {"time": 33121, "pitch": 69, "duration": 10, "velocity": 84}, {"time": 33241, "pitch": 42, "duration": 10, "velocity": 58}, {"time": 33361, "pitch": 35, "duration": 10, "velocity": 92}, {"time": 33361, "pitch": 42, "duration": 10, "velocity": 81}, {"time": 33361, "pitch": 69, "duration": 10, "velocity": 31}, {"time": 33421, "pitch": 69, "duration": 10, "velocity": 20}, {"time": 33480, "pitch": 42, "duration": 10, "velocity": 43}, {"time": 33480, "pitch": 69, "duration": 10, "velocity": 24}, {"time": 33540, "pitch": 69, "duration": 10, "velocity": 24}, {"time": 33600, "pitch": 37, "duration": 10, "velocity": 127}, {"time": 33600, "pitch": 42, "duration": 10, "velocity": 61}, {"time": 33600, "pitch": 69, "duration": 10, "velocity": 59}, {"time": 33720, "pitch": 42, "duration": 10, "velocity": 58}, {"time": 33720, "pitch": 69, "duration": 10, "velocity": 17}, {"time": 33780, "pitch": 69, "duration": 10, "velocity": 53}, {"time": 33840, "pitch": 42, "duration": 10, "velocity": 61}, {"time": 33959, "pitch": 42, "duration": 10, "velocity": 58}, {"time": 33959, "pitch": 69, "duration": 10, "velocity": 47}, {"time": 34019, "pitch": 69, "duration": 10, "velocity": 6}, {"time": 34079, "pitch": 35, "duration": 10, "velocity": 101}, {"time": 34079, "pitch": 42, "duration": 10, "velocity": 104}, {"time": 34079, "pitch": 69, "duration": 10, "velocity": 53}, {"time": 34139, "pitch": 42, "duration": 10, "velocity": 51}, {"time": 34199, "pitch": 42, "duration": 10, "velocity": 37}, {"time": 34199, "pitch": 69, "duration": 10, "velocity": 12}, {"time": 34259, "pitch": 42, "duration": 10, "velocity": 42}, {"time": 34259, "pitch": 69, "duration": 10, "velocity": 59}, {"time": 34318, "pitch": 42, "duration": 10, "velocity": 58}, {"time": 34318, "pitch": 69, "duration": 10, "velocity": 47}, {"time": 34438, "pitch": 42, "duration": 10, "velocity": 89}, {"time": 34438, "pitch": 69, "duration": 10, "velocity": 13}, {"time": 34558, "pitch": 37, "duration": 10, "velocity": 125}, {"time": 34558, "pitch": 42, "duration": 10, "velocity": 46}, {"time": 34558, "pitch": 69, "duration": 10, "velocity": 53}, {"time": 34558, "pitch": 70, "duration": 10, "velocity": 63}, {"time": 34618, "pitch": 69, "duration": 10, "velocity": 14}, {"time": 34618, "pitch": 70, "duration": 10, "velocity": 78}, {"time": 34679, "pitch": 42, "duration": 10, "velocity": 66}, {"time": 34679, "pitch": 69, "duration": 10, "velocity": 28}, {"time": 34679, "pitch": 70, "duration": 10, "velocity": 86}, {"time": 34739, "pitch": 69, "duration": 10, "velocity": 59}, {"time": 34739, "pitch": 70, "duration": 10, "velocity": 93}, {"time": 34800, "pitch": 35, "duration": 10, "velocity": 92}, {"time": 34800, "pitch": 38, "duration": 10, "velocity": 105}, {"time": 34800, "pitch": 46, "duration": 10, "velocity": 50}, {"time": 34800, "pitch": 69, "duration": 10, "velocity": 36}, {"time": 34800, "pitch": 70, "duration": 10, "velocity": 70}, {"time": 34921, "pitch": 38, "duration": 10, "velocity": 75}, {"time": 34921, "pitch": 69, "duration": 10, "velocity": 12}, {"time": 34981, "pitch": 69, "duration": 10, "velocity": 47}, {"time": 35042, "pitch": 35, "duration": 10, "velocity": 101}, {"time": 35042, "pitch": 36, "duration": 10, "velocity": 75}, {"time": 35042, "pitch": 42, "duration": 10, "velocity": 106}, {"time": 35042, "pitch": 57, "duration": 10, "velocity": 78}, {"time": 35042, "pitch": 69, "duration": 10, "velocity": 84}, {"time": 35161, "pitch": 42, "duration": 10, "velocity": 53}, {"time": 35281, "pitch": 42, "duration": 10, "velocity": 66}, {"time": 35281, "pitch": 69, "duration": 10, "velocity": 31}, {"time": 35341, "pitch": 69, "duration": 10, "velocity": 20}, {"time": 35401, "pitch": 36, "duration": 10, "velocity": 67}, {"time": 35401, "pitch": 42, "duration": 10, "velocity": 82}, {"time": 35401, "pitch": 69, "duration": 10, "velocity": 24}, {"time": 35461, "pitch": 69, "duration": 10, "velocity": 24}, {"time": 35520, "pitch": 38, "duration": 10, "velocity": 109}, {"time": 35520, "pitch": 42, "duration": 10, "velocity": 52}, {"time": 35520, "pitch": 69, "duration": 10, "velocity": 59}, {"time": 35640, "pitch": 42, "duration": 10, "velocity": 77}, {"time": 35640, "pitch": 69, "duration": 10, "velocity": 17}, {"time": 35700, "pitch": 69, "duration": 10, "velocity": 53}, {"time": 35760, "pitch": 42, "duration": 10, "velocity": 114}, {"time": 35880, "pitch": 35, "duration": 10, "velocity": 84}, {"time": 35880, "pitch": 42, "duration": 10, "velocity": 77}, {"time": 35880, "pitch": 69, "duration": 10, "velocity": 47}, {"time": 35939, "pitch": 69, "duration": 10, "velocity": 6}, {"time": 35999, "pitch": 42, "duration": 10, "velocity": 97}, {"time": 35999, "pitch": 69, "duration": 10, "velocity": 53}, {"time": 36119, "pitch": 42, "duration": 10, "velocity": 58}, {"time": 36119, "pitch": 69, "duration": 10, "velocity": 12}, {"time": 36179, "pitch": 69, "duration": 10, "velocity": 59}, {"time": 36239, "pitch": 35, "duration": 10, "velocity": 101}, {"time": 36239, "pitch": 42, "duration": 10, "velocity": 125}, {"time": 36239, "pitch": 69, "duration": 10, "velocity": 47}, {"time": 36358, "pitch": 42, "duration": 10, "velocity": 54}, {"time": 36358, "pitch": 69, "duration": 10, "velocity": 13}, {"time": 36478, "pitch": 38, "duration": 10, "velocity": 120}, {"time": 36478, "pitch": 42, "duration": 10, "velocity": 104}, {"time": 36478, "pitch": 69, "duration": 10, "velocity": 53}, {"time": 36539, "pitch": 42, "duration": 10, "velocity": 51}, {"time": 36539, "pitch": 69, "duration": 10, "velocity": 14}, {"time": 36599, "pitch": 42, "duration": 10, "velocity": 37}, {"time": 36599, "pitch": 69, "duration": 10, "velocity": 28}, {"time": 36660, "pitch": 42, "duration": 10, "velocity": 42}, {"time": 36660, "pitch": 69, "duration": 10, "velocity": 59}, {"time": 36720, "pitch": 42, "duration": 10, "velocity": 77}, {"time": 36720, "pitch": 69, "duration": 10, "velocity": 36}, {"time": 36841, "pitch": 46, "duration": 10, "velocity": 64}, {"time": 36841, "pitch": 69, "duration": 10, "velocity": 12}, {"time": 36902, "pitch": 69, "duration": 10, "velocity": 47}, {"time": 36962, "pitch": 35, "duration": 10, "velocity": 92}, {"time": 36962, "pitch": 36, "duration": 10, "velocity": 64}, {"time": 36962, "pitch": 42, "duration": 10, "velocity": 114}, {"time": 36962, "pitch": 69, "duration": 10, "velocity": 84}, {"time": 37082, "pitch": 42, "duration": 10, "velocity": 58}, {"time": 37201, "pitch": 35, "duration": 10, "velocity": 92}, {"time": 37201, "pitch": 42, "duration": 10, "velocity": 81}, {"time": 37201, "pitch": 69, "duration": 10, "velocity": 31}, {"time": 37261, "pitch": 69, "duration": 10, "velocity": 20}, {"time": 37321, "pitch": 36, "duration": 10, "velocity": 67}, {"time": 37321, "pitch": 42, "duration": 10, "velocity": 43}, {"time": 37321, "pitch": 69, "duration": 10, "velocity": 24}, {"time": 37381, "pitch": 69, "duration": 10, "velocity": 24}, {"time": 37441, "pitch": 38, "duration": 10, "velocity": 120}, {"time": 37441, "pitch": 42, "duration": 10, "velocity": 61}, {"time": 37441, "pitch": 69, "duration": 10, "velocity": 59}, {"time": 37561, "pitch": 36, "duration": 10, "velocity": 65}, {"time": 37561, "pitch": 42, "duration": 10, "velocity": 58}, {"time": 37561, "pitch": 69, "duration": 10, "velocity": 17}, {"time": 37620, "pitch": 69, "duration": 10, "velocity": 53}, {"time": 37680, "pitch": 42, "duration": 10, "velocity": 61}, {"time": 37800, "pitch": 42, "duration": 10, "velocity": 58}, {"time": 37800, "pitch": 69, "duration": 10, "velocity": 47}, {"time": 37860, "pitch": 69, "duration": 10, "velocity": 6}, {"time": 37920, "pitch": 35, "duration": 10, "velocity": 101}, {"time": 37920, "pitch": 42, "duration": 10, "velocity": 104}, {"time": 37920, "pitch": 69, "duration": 10, "velocity": 53}, {"time": 37980, "pitch": 42, "duration": 10, "velocity": 51}, {"time": 38039, "pitch": 42, "duration": 10, "velocity": 37}, {"time": 38039, "pitch": 69, "duration": 10, "velocity": 12}, {"time": 38099, "pitch": 42, "duration": 10, "velocity": 42}, {"time": 38099, "pitch": 69, "duration": 10, "velocity": 59}, {"time": 38159, "pitch": 42, "duration": 10, "velocity": 58}, {"time": 38159, "pitch": 69, "duration": 10, "velocity": 47}, {"time": 38279, "pitch": 42, "duration": 10, "velocity": 89}, {"time": 38279, "pitch": 69, "duration": 10, "velocity": 13}, {"time": 38399, "pitch": 38, "duration": 10, "velocity": 120}, {"time": 38399, "pitch": 42, "duration": 10, "velocity": 46}, {"time": 38399, "pitch": 69, "duration": 10, "velocity": 53}, {"time": 38399, "pitch": 70, "duration": 10, "velocity": 63}, {"time": 38459, "pitch": 69, "duration": 10, "velocity": 14}, {"time": 38459, "pitch": 70, "duration": 10, "velocity": 78}, {"time": 38519, "pitch": 42, "duration": 11, "velocity": 66}, {"time": 38519, "pitch": 69, "duration": 11, "velocity": 28}, {"time": 38519, "pitch": 70, "duration": 11, "velocity": 86}, {"time": 38580, "pitch": 69, "duration": 10, "velocity": 59}, {"time": 38580, "pitch": 70, "duration": 10, "velocity": 93}, {"time": 38640, "pitch": 35, "duration": 11, "velocity": 92}, {"time": 38640, "pitch": 46, "duration": 11, "velocity": 50}, {"time": 38640, "pitch": 69, "duration": 11, "velocity": 36}, {"time": 38640, "pitch": 70, "duration": 11, "velocity": 70}, {"time": 38761, "pitch": 69, "duration": 10, "velocity": 12}, {"time": 38822, "pitch": 69, "duration": 10, "velocity": 47}, {"time": 38882, "pitch": 35, "duration": 10, "velocity": 101}, {"time": 38882, "pitch": 36, "duration": 10, "velocity": 75}, {"time": 38882, "pitch": 42, "duration": 10, "velocity": 106}, {"time": 38882, "pitch": 49, "duration": 10, "velocity": 66}, {"time": 38882, "pitch": 69, "duration": 10, "velocity": 84}, {"time": 39002, "pitch": 42, "duration": 10, "velocity": 53}, {"time": 39122, "pitch": 42, "duration": 10, "velocity": 66}, {"time": 39122, "pitch": 69, "duration": 10, "velocity": 31}, {"time": 39182, "pitch": 69, "duration": 10, "velocity": 20}, {"time": 39241, "pitch": 36, "duration": 10, "velocity": 67}, {"time": 39241, "pitch": 38, "duration": 10, "velocity": 109}, {"time": 39241, "pitch": 42, "duration": 10, "velocity": 82}, {"time": 39241, "pitch": 69, "duration": 10, "velocity": 24}, {"time": 39301, "pitch": 69, "duration": 10, "velocity": 24}, {"time": 39361, "pitch": 42, "duration": 10, "velocity": 52}, {"time": 39361, "pitch": 69, "duration": 10, "velocity": 59}, {"time": 39481, "pitch": 42, "duration": 10, "velocity": 77}, {"time": 39481, "pitch": 69, "duration": 10, "velocity": 17}, {"time": 39541, "pitch": 69, "duration": 10, "velocity": 53}, {"time": 39601, "pitch": 38, "duration": 10, "velocity": 113}, {"time": 39601, "pitch": 42, "duration": 10, "velocity": 114}, {"time": 39720, "pitch": 35, "duration": 10, "velocity": 84}, {"time": 39720, "pitch": 42, "duration": 10, "velocity": 77}, {"time": 39720, "pitch": 69, "duration": 10, "velocity": 47}, {"time": 39780, "pitch": 69, "duration": 10, "velocity": 6}, {"time": 39840, "pitch": 42, "duration": 10, "velocity": 97}, {"time": 39840, "pitch": 69, "duration": 10, "velocity": 53}, {"time": 39960, "pitch": 38, "duration": 10, "velocity": 109}, {"time": 39960, "pitch": 42, "duration": 10, "velocity": 58}, {"time": 39960, "pitch": 69, "duration": 10, "velocity": 12}, {"time": 40020, "pitch": 69, "duration": 10, "velocity": 59}, {"time": 40079, "pitch": 35, "duration": 10, "velocity": 101}, {"time": 40079, "pitch": 42, "duration": 10, "velocity": 125}, {"time": 40079, "pitch": 69, "duration": 10, "velocity": 47}, {"time": 40199, "pitch": 42, "duration": 10, "velocity": 54}, {"time": 40199, "pitch": 69, "duration": 10, "velocity": 13}, {"time": 40319, "pitch": 42, "duration": 10, "velocity": 104}, {"time": 40319, "pitch": 69, "duration": 10, "velocity": 53}, {"time": 40379, "pitch": 42, "duration": 10, "velocity": 51}, {"time": 40379, "pitch": 69, "duration": 10, "velocity": 14}, {"time": 40439, "pitch": 42, "duration": 10, "velocity": 37}, {"time": 40439, "pitch": 48, "duration": 10, "velocity": 83}, {"time": 40439, "pitch": 69, "duration": 10, "velocity": 28}, {"time": 40498, "pitch": 42, "duration": 10, "velocity": 42}, {"time": 40498, "pitch": 69, "duration": 10, "velocity": 59}, {"time": 40558, "pitch": 42, "duration": 10, "velocity": 77}, {"time": 40558, "pitch": 45, "duration": 10, "velocity": 89}, {"time": 40558, "pitch": 69, "duration": 10, "velocity": 36}, {"time": 40678, "pitch": 41, "duration": 10, "velocity": 71}, {"time": 40678, "pitch": 46, "duration": 10, "velocity": 64}, {"time": 40678, "pitch": 69, "duration": 10, "velocity": 12}, {"time": 40738, "pitch": 69, "duration": 10, "velocity": 47}, {"time": 40798, "pitch": 35, "duration": 10, "velocity": 92}, {"time": 40798, "pitch": 36, "duration": 10, "velocity": 64}, {"time": 40798, "pitch": 42, "duration": 10, "velocity": 114}, {"time": 40798, "pitch": 57, "duration": 10, "velocity": 96}, {"time": 40798, "pitch": 69, "duration": 10, "velocity": 84}, {"time": 40919, "pitch": 42, "duration": 10, "velocity": 58}, {"time": 41040, "pitch": 35, "duration": 10, "velocity": 92}, {"time": 41040, "pitch": 42, "duration": 10, "velocity": 81}, {"time": 41040, "pitch": 69, "duration": 10, "velocity": 31}, {"time": 41100, "pitch": 69, "duration": 10, "velocity": 20}, {"time": 41161, "pitch": 36, "duration": 10, "velocity": 67}, {"time": 41161, "pitch": 38, "duration": 10, "velocity": 109}, {"time": 41161, "pitch": 42, "duration": 10, "velocity": 43}, {"time": 41161, "pitch": 69, "duration": 10, "velocity": 24}, {"time": 41221, "pitch": 69, "duration": 10, "velocity": 24}, {"time": 41282, "pitch": 42, "duration": 9, "velocity": 61}, {"time": 41282, "pitch": 69, "duration": 9, "velocity": 59}, {"time": 41401, "pitch": 36, "duration": 10, "velocity": 65}, {"time": 41401, "pitch": 42, "duration": 10, "velocity": 58}, {"time": 41401, "pitch": 69, "duration": 10, "velocity": 17}, {"time": 41461, "pitch": 69, "duration": 10, "velocity": 53}, {"time": 41521, "pitch": 38, "duration": 10, "velocity": 122}, {"time": 41521, "pitch": 42, "duration": 10, "velocity": 61}, {"time": 41641, "pitch": 38, "duration": 10, "velocity": 92}, {"time": 41641, "pitch": 42, "duration": 10, "velocity": 58}, {"time": 41641, "pitch": 69, "duration": 10, "velocity": 47}, {"time": 41701, "pitch": 69, "duration": 9, "velocity": 6}, {"time": 41760, "pitch": 35, "duration": 10, "velocity": 101}, {"time": 41760, "pitch": 42, "duration": 10, "velocity": 104}, {"time": 41760, "pitch": 69, "duration": 10, "velocity": 53}, {"time": 41820, "pitch": 42, "duration": 10, "velocity": 51}, {"time": 41880, "pitch": 38, "duration": 10, "velocity": 117}, {"time": 41880, "pitch": 42, "duration": 10, "velocity": 37}, {"time": 41880, "pitch": 69, "duration": 10, "velocity": 12}, {"time": 41940, "pitch": 42, "duration": 10, "velocity": 42}, {"time": 41940, "pitch": 69, "duration": 10, "velocity": 59}, {"time": 42000, "pitch": 42, "duration": 10, "velocity": 58}, {"time": 42000, "pitch": 69, "duration": 10, "velocity": 47}, {"time": 42120, "pitch": 42, "duration": 9, "velocity": 89}, {"time": 42120, "pitch": 48, "duration": 9, "velocity": 80}, {"time": 42120, "pitch": 69, "duration": 9, "velocity": 13}, {"time": 42239, "pitch": 38, "duration": 10, "velocity": 122}, {"time": 42239, "pitch": 42, "duration": 10, "velocity": 46}, {"time": 42239, "pitch": 69, "duration": 10, "velocity": 53}, {"time": 42239, "pitch": 70, "duration": 10, "velocity": 63}, {"time": 42299, "pitch": 69, "duration": 10, "velocity": 14}, {"time": 42299, "pitch": 70, "duration": 10, "velocity": 78}, {"time": 42359, "pitch": 42, "duration": 10, "velocity": 66}, {"time": 42359, "pitch": 69, "duration": 10, "velocity": 28}, {"time": 42359, "pitch": 70, "duration": 10, "velocity": 86}, {"time": 42419, "pitch": 69, "duration": 10, "velocity": 59}, {"time": 42419, "pitch": 70, "duration": 10, "velocity": 93}, {"time": 42479, "pitch": 35, "duration": 10, "velocity": 92}, {"time": 42479, "pitch": 40, "duration": 10, "velocity": 109}, {"time": 42479, "pitch": 41, "duration": 10, "velocity": 84}, {"time": 42479, "pitch": 46, "duration": 10, "velocity": 50}, {"time": 42479, "pitch": 69, "duration": 10, "velocity": 36}, {"time": 42479, "pitch": 70, "duration": 10, "velocity": 70}, {"time": 42598, "pitch": 69, "duration": 10, "velocity": 12}, {"time": 42658, "pitch": 69, "duration": 10, "velocity": 47}, {"time": 42718, "pitch": 35, "duration": 10, "velocity": 101}, {"time": 42718, "pitch": 36, "duration": 10, "velocity": 75}, {"time": 42718, "pitch": 42, "duration": 10, "velocity": 106}, {"time": 42718, "pitch": 49, "duration": 10, "velocity": 66}, {"time": 42718, "pitch": 54, "duration": 10, "velocity": 67}, {"time": 42718, "pitch": 69, "duration": 10, "velocity": 84}, {"time": 42779, "pitch": 54, "duration": 10, "velocity": 50}, {"time": 42839, "pitch": 42, "duration": 10, "velocity": 53}, {"time": 42839, "pitch": 54, "duration": 10, "velocity": 44}, {"time": 42899, "pitch": 54, "duration": 11, "velocity": 42}, {"time": 42960, "pitch": 42, "duration": 10, "velocity": 66}, {"time": 42960, "pitch": 54, "duration": 10, "velocity": 58}, {"time": 42960, "pitch": 69, "duration": 10, "velocity": 31}, {"time": 43020, "pitch": 69, "duration": 11, "velocity": 20}, {"time": 43081, "pitch": 36, "duration": 10, "velocity": 67}, {"time": 43081, "pitch": 42, "duration": 10, "velocity": 82}, {"time": 43081, "pitch": 54, "duration": 10, "velocity": 54}, {"time": 43081, "pitch": 69, "duration": 10, "velocity": 24}, {"time": 43141, "pitch": 69, "duration": 10, "velocity": 24}, {"time": 43202, "pitch": 38, "duration": 10, "velocity": 109}, {"time": 43202, "pitch": 42, "duration": 10, "velocity": 52}, {"time": 43202, "pitch": 54, "duration": 10, "velocity": 89}, {"time": 43202, "pitch": 69, "duration": 10, "velocity": 59}, {"time": 43322, "pitch": 42, "duration": 10, "velocity": 77}, {"time": 43322, "pitch": 54, "duration": 10, "velocity": 51}, {"time": 43322, "pitch": 69, "duration": 10, "velocity": 17}, {"time": 43381, "pitch": 69, "duration": 10, "velocity": 53}, {"time": 43441, "pitch": 42, "duration": 10, "velocity": 114}, {"time": 43441, "pitch": 54, "duration": 10, "velocity": 38}, {"time": 43561, "pitch": 35, "duration": 10, "velocity": 84}, {"time": 43561, "pitch": 42, "duration": 10, "velocity": 77}, {"time": 43561, "pitch": 54, "duration": 10, "velocity": 42}, {"time": 43561, "pitch": 69, "duration": 10, "velocity": 47}, {"time": 43621, "pitch": 69, "duration": 10, "velocity": 6}, {"time": 43681, "pitch": 42, "duration": 10, "velocity": 97}, {"time": 43681, "pitch": 54, "duration": 10, "velocity": 43}, {"time": 43681, "pitch": 69, "duration": 10, "velocity": 53}, {"time": 43741, "pitch": 54, "duration": 10, "velocity": 42}, {"time": 43800, "pitch": 42, "duration": 10, "velocity": 58}, {"time": 43800, "pitch": 54, "duration": 10, "velocity": 54}, {"time": 43800, "pitch": 69, "duration": 10, "velocity": 12}, {"time": 43860, "pitch": 69, "duration": 10, "velocity": 59}, {"time": 43920, "pitch": 35, "duration": 10, "velocity": 101}, {"time": 43920, "pitch": 42, "duration": 10, "velocity": 125}, {"time": 43920, "pitch": 54, "duration": 10, "velocity": 47}, {"time": 43920, "pitch": 69, "duration": 10, "velocity": 47}, {"time": 44040, "pitch": 42, "duration": 10, "velocity": 54}, {"time": 44040, "pitch": 54, "duration": 10, "velocity": 49}, {"time": 44040, "pitch": 69, "duration": 10, "velocity": 13}, {"time": 44160, "pitch": 38, "duration": 10, "velocity": 117}, {"time": 44160, "pitch": 42, "duration": 10, "velocity": 104}, {"time": 44160, "pitch": 54, "duration": 10, "velocity": 71}, {"time": 44160, "pitch": 69, "duration": 10, "velocity": 53}, {"time": 44219, "pitch": 42, "duration": 10, "velocity": 51}, {"time": 44219, "pitch": 54, "duration": 10, "velocity": 44}, {"time": 44219, "pitch": 69, "duration": 10, "velocity": 14}, {"time": 44279, "pitch": 42, "duration": 10, "velocity": 37}, {"time": 44279, "pitch": 54, "duration": 10, "velocity": 48}, {"time": 44279, "pitch": 69, "duration": 10, "velocity": 28}, {"time": 44339, "pitch": 42, "duration": 10, "velocity": 42}, {"time": 44339, "pitch": 54, "duration": 10, "velocity": 52}, {"time": 44339, "pitch": 69, "duration": 10, "velocity": 59}, {"time": 44399, "pitch": 42, "duration": 10, "velocity": 77}, {"time": 44399, "pitch": 54, "duration": 10, "velocity": 52}, {"time": 44399, "pitch": 69, "duration": 10, "velocity": 36}, {"time": 44519, "pitch": 46, "duration": 10, "velocity": 64}, {"time": 44519, "pitch": 54, "duration": 10, "velocity": 67}, {"time": 44519, "pitch": 69, "duration": 10, "velocity": 12}, {"time": 44579, "pitch": 69, "duration": 10, "velocity": 47}, {"time": 44638, "pitch": 35, "duration": 10, "velocity": 92}, {"time": 44638, "pitch": 36, "duration": 10, "velocity": 64}, {"time": 44638, "pitch": 42, "duration": 10, "velocity": 114}, {"time": 44638, "pitch": 54, "duration": 10, "velocity": 61}, {"time": 44638, "pitch": 69, "duration": 10, "velocity": 84}, {"time": 44759, "pitch": 42, "duration": 10, "velocity": 58}, {"time": 44759, "pitch": 54, "duration": 10, "velocity": 32}, {"time": 44880, "pitch": 35, "duration": 10, "velocity": 92}, {"time": 44880, "pitch": 42, "duration": 10, "velocity": 81}, {"time": 44880, "pitch": 54, "duration": 10, "velocity": 71}, {"time": 44880, "pitch": 69, "duration": 10, "velocity": 31}, {"time": 44941, "pitch": 69, "duration": 10, "velocity": 20}, {"time": 45001, "pitch": 36, "duration": 10, "velocity": 67}, {"time": 45001, "pitch": 42, "duration": 10, "velocity": 43}, {"time": 45001, "pitch": 54, "duration": 10, "velocity": 47}, {"time": 45001, "pitch": 69, "duration": 10, "velocity": 24}, {"time": 45062, "pitch": 69, "duration": 10, "velocity": 24}, {"time": 45122, "pitch": 38, "duration": 10, "velocity": 120}, {"time": 45122, "pitch": 42, "duration": 10, "velocity": 61}, {"time": 45122, "pitch": 54, "duration": 10, "velocity": 77}, {"time": 45122, "pitch": 69, "duration": 10, "velocity": 59}, {"time": 45182, "pitch": 54, "duration": 10, "velocity": 55}, {"time": 45242, "pitch": 36, "duration": 10, "velocity": 65}, {"time": 45242, "pitch": 42, "duration": 10, "velocity": 58}, {"time": 45242, "pitch": 54, "duration": 10, "velocity": 54}, {"time": 45242, "pitch": 69, "duration": 10, "velocity": 17}, {"time": 45302, "pitch": 54, "duration": 10, "velocity": 40}, {"time": 45302, "pitch": 69, "duration": 10, "velocity": 53}, {"time": 45362, "pitch": 42, "duration": 10, "velocity": 61}, {"time": 45362, "pitch": 54, "duration": 10, "velocity": 65}, {"time": 45481, "pitch": 42, "duration": 10, "velocity": 58}, {"time": 45481, "pitch": 54, "duration": 10, "velocity": 36}, {"time": 45481, "pitch": 69, "duration": 10, "velocity": 47}, {"time": 45541, "pitch": 69, "duration": 10, "velocity": 6}, {"time": 45601, "pitch": 35, "duration": 10, "velocity": 101}, {"time": 45601, "pitch": 42, "duration": 10, "velocity": 104}, {"time": 45601, "pitch": 54, "duration": 10, "velocity": 61}, {"time": 45601, "pitch": 69, "duration": 10, "velocity": 53}, {"time": 45661, "pitch": 42, "duration": 10, "velocity": 51}, {"time": 45721, "pitch": 42, "duration": 10, "velocity": 37}, {"time": 45721, "pitch": 54, "duration": 10, "velocity": 52}, {"time": 45721, "pitch": 69, "duration": 10, "velocity": 12}, {"time": 45781, "pitch": 42, "duration": 10, "velocity": 42}, {"time": 45781, "pitch": 69, "duration": 10, "velocity": 59}, {"time": 45840, "pitch": 42, "duration": 10, "velocity": 58}, {"time": 45840, "pitch": 54, "duration": 10, "velocity": 50}, {"time": 45840, "pitch": 69, "duration": 10, "velocity": 47}, {"time": 45960, "pitch": 42, "duration": 10, "velocity": 89}, {"time": 45960, "pitch": 54, "duration": 10, "velocity": 44}, {"time": 45960, "pitch": 69, "duration": 10, "velocity": 13}, {"time": 46080, "pitch": 38, "duration": 10, "velocity": 122}, {"time": 46080, "pitch": 42, "duration": 10, "velocity": 46}, {"time": 46080, "pitch": 54, "duration": 10, "velocity": 56}, {"time": 46080, "pitch": 69, "duration": 10, "velocity": 53}, {"time": 46080, "pitch": 70, "duration": 10, "velocity": 63}, {"time": 46140, "pitch": 69, "duration": 10, "velocity": 14}, {"time": 46140, "pitch": 70, "duration": 10, "velocity": 78}, {"time": 46200, "pitch": 42, "duration": 10, "velocity": 66}, {"time": 46200, "pitch": 54, "duration": 10, "velocity": 66}, {"time": 46200, "pitch": 69, "duration": 10, "velocity": 28}, {"time": 46200, "pitch": 70, "duration": 10, "velocity": 86}, {"time": 46259, "pitch": 54, "duration": 10, "velocity": 58}, {"time": 46259, "pitch": 69, "duration": 10, "velocity": 59}, {"time": 46259, "pitch": 70, "duration": 10, "velocity": 93}, {"time": 46319, "pitch": 35, "duration": 10, "velocity": 92}, {"time": 46319, "pitch": 46, "duration": 10, "velocity": 50}, {"time": 46319, "pitch": 69, "duration": 10, "velocity": 36}, {"time": 46319, "pitch": 70, "duration": 10, "velocity": 70}, {"time": 46379, "pitch": 54, "duration": 10, "velocity": 43}, {"time": 46439, "pitch": 69, "duration": 10, "velocity": 12}, {"time": 46499, "pitch": 69, "duration": 10, "velocity": 47}, {"time": 46559, "pitch": 35, "duration": 10, "velocity": 101}, {"time": 46559, "pitch": 36, "duration": 10, "velocity": 75}, {"time": 46559, "pitch": 42, "duration": 10, "velocity": 106}, {"time": 46559, "pitch": 54, "duration": 10, "velocity": 67}, {"time": 46559, "pitch": 69, "duration": 10, "velocity": 84}, {"time": 46619, "pitch": 54, "duration": 10, "velocity": 50}, {"time": 46678, "pitch": 42, "duration": 10, "velocity": 53}, {"time": 46678, "pitch": 54, "duration": 10, "velocity": 44}, {"time": 46738, "pitch": 54, "duration": 10, "velocity": 42}, {"time": 46798, "pitch": 42, "duration": 10, "velocity": 66}, {"time": 46798, "pitch": 54, "duration": 10, "velocity": 58}, {"time": 46798, "pitch": 69, "duration": 10, "velocity": 31}, {"time": 46858, "pitch": 69, "duration": 10, "velocity": 20}, {"time": 46918, "pitch": 36, "duration": 10, "velocity": 67}, {"time": 46918, "pitch": 42, "duration": 10, "velocity": 82}, {"time": 46918, "pitch": 54, "duration": 10, "velocity": 54}, {"time": 46918, "pitch": 69, "duration": 10, "velocity": 24}, {"time": 46978, "pitch": 69, "duration": 10, "velocity": 24}, {"time": 47038, "pitch": 38, "duration": 10, "velocity": 120}, {"time": 47038, "pitch": 42, "duration": 10, "velocity": 52}, {"time": 47038, "pitch": 54, "duration": 10, "velocity": 89}, {"time": 47038, "pitch": 69, "duration": 10, "velocity": 59}, {"time": 47159, "pitch": 42, "duration": 10, "velocity": 77}, {"time": 47159, "pitch": 54, "duration": 10, "velocity": 51}, {"time": 47159, "pitch": 69, "duration": 10, "velocity": 17}, {"time": 47219, "pitch": 69, "duration": 10, "velocity": 53}, {"time": 47280, "pitch": 42, "duration": 10, "velocity": 114}, {"time": 47280, "pitch": 54, "duration": 10, "velocity": 38}, {"time": 47400, "pitch": 35, "duration": 11, "velocity": 84}, {"time": 47400, "pitch": 42, "duration": 11, "velocity": 77}, {"time": 47400, "pitch": 54, "duration": 11, "velocity": 42}, {"time": 47400, "pitch": 69, "duration": 11, "velocity": 47}, {"time": 47461, "pitch": 69, "duration": 10, "velocity": 6}, {"time": 47521, "pitch": 42, "duration": 10, "velocity": 97}, {"time": 47521, "pitch": 54, "duration": 10, "velocity": 43}, {"time": 47521, "pitch": 69, "duration": 10, "velocity": 53}, {"time": 47581, "pitch": 54, "duration": 10, "velocity": 42}, {"time": 47641, "pitch": 42, "duration": 10, "velocity": 58}, {"time": 47641, "pitch": 54, "duration": 10, "velocity": 54}, {"time": 47641, "pitch": 69, "duration": 10, "velocity": 12}, {"time": 47701, "pitch": 69, "duration": 10, "velocity": 59}, {"time": 47761, "pitch": 35, "duration": 10, "velocity": 101}, {"time": 47761, "pitch": 42, "duration": 10, "velocity": 125}, {"time": 47761, "pitch": 54, "duration": 10, "velocity": 47}, {"time": 47761, "pitch": 69, "duration": 10, "velocity": 47}, {"time": 47881, "pitch": 42, "duration": 10, "velocity": 54}, {"time": 47881, "pitch": 54, "duration": 10, "velocity": 49}, {"time": 47881, "pitch": 69, "duration": 10, "velocity": 13}, {"time": 48000, "pitch": 38, "duration": 10, "velocity": 120}, {"time": 48000, "pitch": 42, "duration": 10, "velocity": 104}, {"time": 48000, "pitch": 54, "duration": 10, "velocity": 71}, {"time": 48000, "pitch": 69, "duration": 10, "velocity": 53}, {"time": 48060, "pitch": 42, "duration": 10, "velocity": 51}, {"time": 48060, "pitch": 54, "duration": 10, "velocity": 44}, {"time": 48060, "pitch": 69, "duration": 10, "velocity": 14}, {"time": 48120, "pitch": 42, "duration": 10, "velocity": 37}, {"time": 48120, "pitch": 54, "duration": 10, "velocity": 48}, {"time": 48120, "pitch": 69, "duration": 10, "velocity": 28}, {"time": 48180, "pitch": 42, "duration": 10, "velocity": 42}, {"time": 48180, "pitch": 54, "duration": 10, "velocity": 52}, {"time": 48180, "pitch": 69, "duration": 10, "velocity": 59}, {"time": 48240, "pitch": 42, "duration": 10, "velocity": 77}, {"time": 48240, "pitch": 54, "duration": 10, "velocity": 52}, {"time": 48240, "pitch": 69, "duration": 10, "velocity": 36}, {"time": 48359, "pitch": 46, "duration": 10, "velocity": 64}, {"time": 48359, "pitch": 54, "duration": 10, "velocity": 67}, {"time": 48359, "pitch": 69, "duration": 10, "velocity": 12}, {"time": 48419, "pitch": 69, "duration": 10, "velocity": 47}, {"time": 48479, "pitch": 35, "duration": 10, "velocity": 92}, {"time": 48479, "pitch": 36, "duration": 10, "velocity": 64}, {"time": 48479, "pitch": 42, "duration": 10, "velocity": 114}, {"time": 48479, "pitch": 54, "duration": 10, "velocity": 61}, {"time": 48479, "pitch": 69, "duration": 10, "velocity": 84}, {"time": 48599, "pitch": 42, "duration": 10, "velocity": 58}, {"time": 48599, "pitch": 54, "duration": 10, "velocity": 32}, {"time": 48719, "pitch": 35, "duration": 10, "velocity": 92}, {"time": 48719, "pitch": 42, "duration": 10, "velocity": 81}, {"time": 48719, "pitch": 54, "duration": 10, "velocity": 71}, {"time": 48719, "pitch": 69, "duration": 10, "velocity": 31}, {"time": 48778, "pitch": 69, "duration": 10, "velocity": 20}, {"time": 48838, "pitch": 36, "duration": 10, "velocity": 67}, {"time": 48838, "pitch": 42, "duration": 10, "velocity": 43}, {"time": 48838, "pitch": 54, "duration": 10, "velocity": 47}, {"time": 48838, "pitch": 69, "duration": 10, "velocity": 24}, {"time": 48898, "pitch": 69, "duration": 10, "velocity": 24}, {"time": 48958, "pitch": 38, "duration": 10, "velocity": 120}, {"time": 48958, "pitch": 42, "duration": 10, "velocity": 61}, {"time": 48958, "pitch": 54, "duration": 10, "velocity": 77}, {"time": 48958, "pitch": 69, "duration": 10, "velocity": 59}, {"time": 49018, "pitch": 54, "duration": 10, "velocity": 55}, {"time": 49079, "pitch": 36, "duration": 10, "velocity": 65}, {"time": 49079, "pitch": 42, "duration": 10, "velocity": 58}, {"time": 49079, "pitch": 54, "duration": 10, "velocity": 54}, {"time": 49079, "pitch": 69, "duration": 10, "velocity": 17}, {"time": 49139, "pitch": 54, "duration": 10, "velocity": 40}, {"time": 49139, "pitch": 69, "duration": 10, "velocity": 53}, {"time": 49200, "pitch": 42, "duration": 10, "velocity": 61}, {"time": 49200, "pitch": 54, "duration": 10, "velocity": 65}, {"time": 49321, "pitch": 42, "duration": 10, "velocity": 58}, {"time": 49321, "pitch": 54, "duration": 10, "velocity": 36}, {"time": 49321, "pitch": 69, "duration": 10, "velocity": 47}, {"time": 49381, "pitch": 69, "duration": 10, "velocity": 6}, {"time": 49442, "pitch": 35, "duration": 10, "velocity": 101}, {"time": 49442, "pitch": 42, "duration": 10, "velocity": 104}, {"time": 49442, "pitch": 54, "duration": 10, "velocity": 61}, {"time": 49442, "pitch": 69, "duration": 10, "velocity": 53}, {"time": 49502, "pitch": 42, "duration": 10, "velocity": 51}, {"time": 49561, "pitch": 42, "duration": 10, "velocity": 37}, {"time": 49561, "pitch": 54, "duration": 10, "velocity": 52}, {"time": 49561, "pitch": 69, "duration": 10, "velocity": 12}, {"time": 49621, "pitch": 42, "duration": 10, "velocity": 42}, {"time": 49621, "pitch": 69, "duration": 10, "velocity": 59}, {"time": 49681, "pitch": 42, "duration": 10, "velocity": 58}, {"time": 49681, "pitch": 54, "duration": 10, "velocity": 50}, {"time": 49681, "pitch": 69, "duration": 10, "velocity": 47}, {"time": 49801, "pitch": 42, "duration": 10, "velocity": 89}, {"time": 49801, "pitch": 54, "duration": 10, "velocity": 44}, {"time": 49801, "pitch": 69, "duration": 10, "velocity": 13}, {"time": 49921, "pitch": 38, "duration": 10, "velocity": 117}, {"time": 49921, "pitch": 42, "duration": 10, "velocity": 46}, {"time": 49921, "pitch": 54, "duration": 10, "velocity": 56}, {"time": 49921, "pitch": 69, "duration": 10, "velocity": 53}, {"time": 49921, "pitch": 70, "duration": 10, "velocity": 63}, {"time": 49980, "pitch": 69, "duration": 10, "velocity": 14}, {"time": 49980, "pitch": 70, "duration": 10, "velocity": 78}, {"time": 50040, "pitch": 42, "duration": 10, "velocity": 66}, {"time": 50040, "pitch": 54, "duration": 10, "velocity": 66}, {"time": 50040, "pitch": 69, "duration": 10, "velocity": 28}, {"time": 50040, "pitch": 70, "duration": 10, "velocity": 86}, {"time": 50100, "pitch": 54, "duration": 10, "velocity": 58}, {"time": 50100, "pitch": 69, "duration": 10, "velocity": 59}, {"time": 50100, "pitch": 70, "duration": 10, "velocity": 93}, {"time": 50160, "pitch": 35, "duration": 10, "velocity": 92}, {"time": 50160, "pitch": 46, "duration": 10, "velocity": 50}, {"time": 50160, "pitch": 69, "duration": 10, "velocity": 36}, {"time": 50160, "pitch": 70, "duration": 10, "velocity": 70}, {"time": 50220, "pitch": 54, "duration": 10, "velocity": 43}, {"time": 50280, "pitch": 69, "duration": 10, "velocity": 12}, {"time": 50340, "pitch": 69, "duration": 10, "velocity": 47}, {"time": 50399, "pitch": 35, "duration": 10, "velocity": 101}, {"time": 50399, "pitch": 36, "duration": 10, "velocity": 75}, {"time": 50399, "pitch": 42, "duration": 10, "velocity": 106}, {"time": 50399, "pitch": 54, "duration": 10, "velocity": 67}, {"time": 50399, "pitch": 69, "duration": 10, "velocity": 84}, {"time": 50459, "pitch": 54, "duration": 10, "velocity": 50}, {"time": 50519, "pitch": 42, "duration": 10, "velocity": 53}, {"time": 50519, "pitch": 54, "duration": 10, "velocity": 44}, {"time": 50579, "pitch": 54, "duration": 10, "velocity": 42}, {"time": 50639, "pitch": 42, "duration": 10, "velocity": 66}, {"time": 50639, "pitch": 54, "duration": 10, "velocity": 58}, {"time": 50639, "pitch": 69, "duration": 10, "velocity": 31}, {"time": 50699, "pitch": 69, "duration": 10, "velocity": 20}, {"time": 50759, "pitch": 36, "duration": 10, "velocity": 67}, {"time": 50759, "pitch": 42, "duration": 10, "velocity": 82}, {"time": 50759, "pitch": 54, "duration": 10, "velocity": 54}, {"time": 50759, "pitch": 69, "duration": 10, "velocity": 24}, {"time": 50818, "pitch": 69, "duration": 10, "velocity": 24}, {"time": 50878, "pitch": 38, "duration": 10, "velocity": 107}, {"time": 50878, "pitch": 42, "duration": 10, "velocity": 52}, {"time": 50878, "pitch": 54, "duration": 10, "velocity": 89}, {"time": 50878, "pitch": 69, "duration": 10, "velocity": 59}, {"time": 50999, "pitch": 42, "duration": 10, "velocity": 77}, {"time": 50999, "pitch": 54, "duration": 10, "velocity": 51}, {"time": 50999, "pitch": 69, "duration": 10, "velocity": 17}, {"time": 51060, "pitch": 69, "duration": 10, "velocity": 53}, {"time": 51120, "pitch": 42, "duration": 10, "velocity": 114}, {"time": 51120, "pitch": 54, "duration": 10, "velocity": 38}, {"time": 51241, "pitch": 35, "duration": 10, "velocity": 84}, {"time": 51241, "pitch": 42, "duration": 10, "velocity": 77}, {"time": 51241, "pitch": 54, "duration": 10, "velocity": 42}, {"time": 51241, "pitch": 69, "duration": 10, "velocity": 47}, {"time": 51302, "pitch": 69, "duration": 10, "velocity": 6}, {"time": 51362, "pitch": 42, "duration": 10, "velocity": 97}, {"time": 51362, "pitch": 54, "duration": 10, "velocity": 43}, {"time": 51362, "pitch": 69, "duration": 10, "velocity": 53}, {"time": 51422, "pitch": 54, "duration": 10, "velocity": 42}, {"time": 51482, "pitch": 42, "duration": 10, "velocity": 58}, {"time": 51482, "pitch": 54, "duration": 10, "velocity": 54}, {"time": 51482, "pitch": 69, "duration": 10, "velocity": 12}, {"time": 51542, "pitch": 69, "duration": 10, "velocity": 59}, {"time": 51602, "pitch": 35, "duration": 10, "velocity": 101}, {"time": 51602, "pitch": 42, "duration": 10, "velocity": 125}, {"time": 51602, "pitch": 54, "duration": 10, "velocity": 47}, {"time": 51602, "pitch": 69, "duration": 10, "velocity": 47}, {"time": 51721, "pitch": 42, "duration": 10, "velocity": 54}, {"time": 51721, "pitch": 54, "duration": 10, "velocity": 49}, {"time": 51721, "pitch": 69, "duration": 10, "velocity": 13}, {"time": 51841, "pitch": 38, "duration": 10, "velocity": 107}, {"time": 51841, "pitch": 42, "duration": 10, "velocity": 104}, {"time": 51841, "pitch": 54, "duration": 10, "velocity": 71}, {"time": 51841, "pitch": 69, "duration": 10, "velocity": 53}, {"time": 51901, "pitch": 42, "duration": 10, "velocity": 51}, {"time": 51901, "pitch": 54, "duration": 10, "velocity": 44}, {"time": 51901, "pitch": 69, "duration": 10, "velocity": 14}, {"time": 51961, "pitch": 42, "duration": 10, "velocity": 37}, {"time": 51961, "pitch": 54, "duration": 10, "velocity": 48}, {"time": 51961, "pitch": 69, "duration": 10, "velocity": 28}, {"time": 52021, "pitch": 42, "duration": 9, "velocity": 42}, {"time": 52021, "pitch": 54, "duration": 9, "velocity": 52}, {"time": 52021, "pitch": 69, "duration": 9, "velocity": 59}, {"time": 52080, "pitch": 42, "duration": 10, "velocity": 77}, {"time": 52080, "pitch": 54, "duration": 10, "velocity": 52}, {"time": 52080, "pitch": 69, "duration": 10, "velocity": 36}, {"time": 52200, "pitch": 46, "duration": 10, "velocity": 64}, {"time": 52200, "pitch": 54, "duration": 10, "velocity": 67}, {"time": 52200, "pitch": 69, "duration": 10, "velocity": 12}, {"time": 52260, "pitch": 69, "duration": 10, "velocity": 47}, {"time": 52320, "pitch": 35, "duration": 10, "velocity": 92}, {"time": 52320, "pitch": 36, "duration": 10, "velocity": 64}, {"time": 52320, "pitch": 42, "duration": 10, "velocity": 114}, {"time": 52320, "pitch": 54, "duration": 10, "velocity": 61}, {"time": 52320, "pitch": 69, "duration": 10, "velocity": 84}, {"time": 52440, "pitch": 42, "duration": 9, "velocity": 58}, {"time": 52440, "pitch": 54, "duration": 9, "velocity": 32}, {"time": 52559, "pitch": 35, "duration": 10, "velocity": 92}, {"time": 52559, "pitch": 42, "duration": 10, "velocity": 81}, {"time": 52559, "pitch": 54, "duration": 10, "velocity": 71}, {"time": 52559, "pitch": 69, "duration": 10, "velocity": 31}, {"time": 52619, "pitch": 69, "duration": 10, "velocity": 20}, {"time": 52679, "pitch": 36, "duration": 10, "velocity": 67}, {"time": 52679, "pitch": 42, "duration": 10, "velocity": 43}, {"time": 52679, "pitch": 54, "duration": 10, "velocity": 47}, {"time": 52679, "pitch": 69, "duration": 10, "velocity": 24}, {"time": 52739, "pitch": 69, "duration": 10, "velocity": 24}, {"time": 52799, "pitch": 38, "duration": 10, "velocity": 109}, {"time": 52799, "pitch": 42, "duration": 10, "velocity": 61}, {"time": 52799, "pitch": 54, "duration": 10, "velocity": 77}, {"time": 52799, "pitch": 69, "duration": 10, "velocity": 59}, {"time": 52859, "pitch": 54, "duration": 10, "velocity": 55}, {"time": 52920, "pitch": 36, "duration": 10, "velocity": 65}, {"time": 52920, "pitch": 42, "duration": 10, "velocity": 58}, {"time": 52920, "pitch": 54, "duration": 10, "velocity": 54}, {"time": 52920, "pitch": 69, "duration": 10, "velocity": 17}, {"time": 52980, "pitch": 54, "duration": 10, "velocity": 40}, {"time": 52980, "pitch": 69, "duration": 10, "velocity": 53}, {"time": 53041, "pitch": 42, "duration": 10, "velocity": 61}, {"time": 53041, "pitch": 54, "duration": 10, "velocity": 65}, {"time": 53162, "pitch": 42, "duration": 10, "velocity": 58}, {"time": 53162, "pitch": 54, "duration": 10, "velocity": 36}, {"time": 53162, "pitch": 69, "duration": 10, "velocity": 47}, {"time": 53222, "pitch": 69, "duration": 10, "velocity": 6}, {"time": 53282, "pitch": 35, "duration": 10, "velocity": 101}, {"time": 53282, "pitch": 42, "duration": 10, "velocity": 104}, {"time": 53282, "pitch": 54, "duration": 10, "velocity": 61}, {"time": 53282, "pitch": 69, "duration": 10, "velocity": 53}, {"time": 53342, "pitch": 42, "duration": 10, "velocity": 51}, {"time": 53402, "pitch": 42, "duration": 10, "velocity": 37}, {"time": 53402, "pitch": 54, "duration": 10, "velocity": 52}, {"time": 53402, "pitch": 69, "duration": 10, "velocity": 12}, {"time": 53462, "pitch": 42, "duration": 10, "velocity": 42}, {"time": 53462, "pitch": 69, "duration": 10, "velocity": 59}, {"time": 53522, "pitch": 42, "duration": 10, "velocity": 58}, {"time": 53522, "pitch": 54, "duration": 10, "velocity": 50}, {"time": 53522, "pitch": 69, "duration": 10, "velocity": 47}, {"time": 53642, "pitch": 42, "duration": 10, "velocity": 89}, {"time": 53642, "pitch": 54, "duration": 10, "velocity": 44}, {"time": 53642, "pitch": 69, "duration": 10, "velocity": 13}, {"time": 53761, "pitch": 38, "duration": 10, "velocity": 117}, {"time": 53761, "pitch": 42, "duration": 10, "velocity": 46}, {"time": 53761, "pitch": 54, "duration": 10, "velocity": 56}, {"time": 53761, "pitch": 69, "duration": 10, "velocity": 53}, {"time": 53761, "pitch": 70, "duration": 10, "velocity": 63}, {"time": 53821, "pitch": 69, "duration": 10, "velocity": 14}, {"time": 53821, "pitch": 70, "duration": 10, "velocity": 78}, {"time": 53881, "pitch": 42, "duration": 10, "velocity": 66}, {"time": 53881, "pitch": 54, "duration": 10, "velocity": 66}, {"time": 53881, "pitch": 69, "duration": 10, "velocity": 28}, {"time": 53881, "pitch": 70, "duration": 10, "velocity": 86}, {"time": 53941, "pitch": 54, "duration": 10, "velocity": 58}, {"time": 53941, "pitch": 69, "duration": 10, "velocity": 59}, {"time": 53941, "pitch": 70, "duration": 10, "velocity": 93}, {"time": 54001, "pitch": 35, "duration": 10, "velocity": 92}, {"time": 54001, "pitch": 46, "duration": 10, "velocity": 50}, {"time": 54001, "pitch": 69, "duration": 10, "velocity": 36}, {"time": 54001, "pitch": 70, "duration": 10, "velocity": 70}, {"time": 54061, "pitch": 54, "duration": 10, "velocity": 43}, {"time": 54120, "pitch": 69, "duration": 10, "velocity": 12}, {"time": 54180, "pitch": 69, "duration": 10, "velocity": 47}, {"time": 54240, "pitch": 35, "duration": 10, "velocity": 101}, {"time": 54240, "pitch": 36, "duration": 10, "velocity": 75}, {"time": 54240, "pitch": 42, "duration": 10, "velocity": 106}, {"time": 54240, "pitch": 54, "duration": 10, "velocity": 67}, {"time": 54240, "pitch": 69, "duration": 10, "velocity": 84}, {"time": 54300, "pitch": 54, "duration": 10, "velocity": 50}, {"time": 54360, "pitch": 42, "duration": 10, "velocity": 53}, {"time": 54360, "pitch": 54, "duration": 10, "velocity": 44}, {"time": 54420, "pitch": 54, "duration": 10, "velocity": 42}, {"time": 54480, "pitch": 42, "duration": 10, "velocity": 66}, {"time": 54480, "pitch": 54, "duration": 10, "velocity": 58}, {"time": 54480, "pitch": 69, "duration": 10, "velocity": 31}, {"time": 54539, "pitch": 69, "duration": 10, "velocity": 20}, {"time": 54599, "pitch": 36, "duration": 10, "velocity": 67}, {"time": 54599, "pitch": 42, "duration": 10, "velocity": 82}, {"time": 54599, "pitch": 54, "duration": 10, "velocity": 54}, {"time": 54599, "pitch": 69, "duration": 10, "velocity": 24}, {"time": 54659, "pitch": 69, "duration": 10, "velocity": 24}, {"time": 54719, "pitch": 38, "duration": 10, "velocity": 117}, {"time": 54719, "pitch": 42, "duration": 10, "velocity": 52}, {"time": 54719, "pitch": 54, "duration": 10, "velocity": 89}, {"time": 54719, "pitch": 69, "duration": 10, "velocity": 59}, {"time": 54839, "pitch": 42, "duration": 10, "velocity": 77}, {"time": 54839, "pitch": 54, "duration": 10, "velocity": 51}, {"time": 54839, "pitch": 69, "duration": 10, "velocity": 17}, {"time": 54899, "pitch": 69, "duration": 10, "velocity": 53}, {"time": 54958, "pitch": 42, "duration": 10, "velocity": 114}, {"time": 54958, "pitch": 54, "duration": 10, "velocity": 38}, {"time": 55078, "pitch": 35, "duration": 10, "velocity": 84}, {"time": 55078, "pitch": 42, "duration": 10, "velocity": 77}, {"time": 55078, "pitch": 54, "duration": 10, "velocity": 42}, {"time": 55078, "pitch": 69, "duration": 10, "velocity": 47}, {"time": 55138, "pitch": 69, "duration": 10, "velocity": 6}, {"time": 55198, "pitch": 42, "duration": 10, "velocity": 97}, {"time": 55198, "pitch": 54, "duration": 10, "velocity": 43}, {"time": 55198, "pitch": 69, "duration": 10, "velocity": 53}, {"time": 55258, "pitch": 54, "duration": 10, "velocity": 42}, {"time": 55319, "pitch": 42, "duration": 10, "velocity": 58}, {"time": 55319, "pitch": 54, "duration": 10, "velocity": 54}, {"time": 55319, "pitch": 69, "duration": 10, "velocity": 12}, {"time": 55379, "pitch": 69, "duration": 10, "velocity": 59}, {"time": 55440, "pitch": 35, "duration": 10, "velocity": 101}, {"time": 55440, "pitch": 42, "duration": 10, "velocity": 125}, {"time": 55440, "pitch": 54, "duration": 10, "velocity": 47}, {"time": 55440, "pitch": 69, "duration": 10, "velocity": 47}, {"time": 55561, "pitch": 42, "duration": 10, "velocity": 54}, {"time": 55561, "pitch": 54, "duration": 10, "velocity": 49}, {"time": 55561, "pitch": 69, "duration": 10, "velocity": 13}, {"time": 55682, "pitch": 38, "duration": 10, "velocity": 120}, {"time": 55682, "pitch": 42, "duration": 10, "velocity": 104}, {"time": 55682, "pitch": 54, "duration": 10, "velocity": 71}, {"time": 55682, "pitch": 69, "duration": 10, "velocity": 53}, {"time": 55742, "pitch": 42, "duration": 9, "velocity": 51}, {"time": 55742, "pitch": 54, "duration": 9, "velocity": 44}, {"time": 55742, "pitch": 69, "duration": 9, "velocity": 14}, {"time": 55801, "pitch": 42, "duration": 10, "velocity": 37}, {"time": 55801, "pitch": 54, "duration": 10, "velocity": 48}, {"time": 55801, "pitch": 69, "duration": 10, "velocity": 28}, {"time": 55861, "pitch": 42, "duration": 10, "velocity": 42}, {"time": 55861, "pitch": 54, "duration": 10, "velocity": 52}, {"time": 55861, "pitch": 69, "duration": 10, "velocity": 59}, {"time": 55921, "pitch": 42, "duration": 10, "velocity": 77}, {"time": 55921, "pitch": 54, "duration": 10, "velocity": 52}, {"time": 55921, "pitch": 69, "duration": 10, "velocity": 36}, {"time": 56041, "pitch": 46, "duration": 10, "velocity": 64}, {"time": 56041, "pitch": 54, "duration": 10, "velocity": 67}, {"time": 56041, "pitch": 69, "duration": 10, "velocity": 12}, {"time": 56101, "pitch": 69, "duration": 10, "velocity": 47}, {"time": 56160, "pitch": 35, "duration": 10, "velocity": 92}, {"time": 56160, "pitch": 36, "duration": 10, "velocity": 64}, {"time": 56160, "pitch": 42, "duration": 10, "velocity": 114}, {"time": 56160, "pitch": 54, "duration": 10, "velocity": 61}, {"time": 56160, "pitch": 69, "duration": 10, "velocity": 84}, {"time": 56280, "pitch": 42, "duration": 10, "velocity": 58}, {"time": 56280, "pitch": 54, "duration": 10, "velocity": 32}, {"time": 56400, "pitch": 35, "duration": 10, "velocity": 92}, {"time": 56400, "pitch": 42, "duration": 10, "velocity": 81}, {"time": 56400, "pitch": 54, "duration": 10, "velocity": 71}, {"time": 56400, "pitch": 69, "duration": 10, "velocity": 31}, {"time": 56460, "pitch": 69, "duration": 10, "velocity": 20}, {"time": 56520, "pitch": 36, "duration": 10, "velocity": 67}, {"time": 56520, "pitch": 42, "duration": 10, "velocity": 43}, {"time": 56520, "pitch": 54, "duration": 10, "velocity": 47}, {"time": 56520, "pitch": 69, "duration": 10, "velocity": 24}, {"time": 56579, "pitch": 69, "duration": 10, "velocity": 24}, {"time": 56639, "pitch": 38, "duration": 10, "velocity": 120}, {"time": 56639, "pitch": 42, "duration": 10, "velocity": 61}, {"time": 56639, "pitch": 54, "duration": 10, "velocity": 77}, {"time": 56639, "pitch": 69, "duration": 10, "velocity": 59}, {"time": 56699, "pitch": 54, "duration": 10, "velocity": 55}, {"time": 56759, "pitch": 36, "duration": 10, "velocity": 65}, {"time": 56759, "pitch": 42, "duration": 10, "velocity": 58}, {"time": 56759, "pitch": 54, "duration": 10, "velocity": 54}, {"time": 56759, "pitch": 69, "duration": 10, "velocity": 17}, {"time": 56819, "pitch": 54, "duration": 10, "velocity": 40}, {"time": 56819, "pitch": 69, "duration": 10, "velocity": 53}, {"time": 56879, "pitch": 42, "duration": 10, "velocity": 61}, {"time": 56879, "pitch": 54, "duration": 10, "velocity": 65}, {"time": 56998, "pitch": 42, "duration": 10, "velocity": 58}, {"time": 56998, "pitch": 54, "duration": 10, "velocity": 36}, {"time": 56998, "pitch": 69, "duration": 10, "velocity": 47}, {"time": 57058, "pitch": 69, "duration": 10, "velocity": 6}, {"time": 57118, "pitch": 35, "duration": 10, "velocity": 101}, {"time": 57118, "pitch": 42, "duration": 10, "velocity": 104}, {"time": 57118, "pitch": 54, "duration": 10, "velocity": 61}, {"time": 57118, "pitch": 69, "duration": 10, "velocity": 53}, {"time": 57179, "pitch": 42, "duration": 10, "velocity": 51}, {"time": 57239, "pitch": 42, "duration": 10, "velocity": 37}, {"time": 57239, "pitch": 54, "duration": 10, "velocity": 52}, {"time": 57239, "pitch": 69, "duration": 10, "velocity": 12}, {"time": 57300, "pitch": 42, "duration": 10, "velocity": 42}, {"time": 57300, "pitch": 69, "duration": 10, "velocity": 59}, {"time": 57360, "pitch": 42, "duration": 10, "velocity": 58}, {"time": 57360, "pitch": 54, "duration": 10, "velocity": 50}, {"time": 57360, "pitch": 69, "duration": 10, "velocity": 47}, {"time": 57481, "pitch": 42, "duration": 10, "velocity": 89}, {"time": 57481, "pitch": 54, "duration": 10, "velocity": 44}, {"time": 57481, "pitch": 69, "duration": 10, "velocity": 13}, {"time": 57602, "pitch": 38, "duration": 10, "velocity": 120}, {"time": 57602, "pitch": 42, "duration": 10, "velocity": 46}, {"time": 57602, "pitch": 54, "duration": 10, "velocity": 56}, {"time": 57602, "pitch": 69, "duration": 10, "velocity": 53}, {"time": 57602, "pitch": 70, "duration": 10, "velocity": 63}, {"time": 57662, "pitch": 69, "duration": 10, "velocity": 14}, {"time": 57662, "pitch": 70, "duration": 10, "velocity": 78}, {"time": 57722, "pitch": 42, "duration": 10, "velocity": 66}, {"time": 57722, "pitch": 54, "duration": 10, "velocity": 66}, {"time": 57722, "pitch": 69, "duration": 10, "velocity": 28}, {"time": 57722, "pitch": 70, "duration": 10, "velocity": 86}, {"time": 57782, "pitch": 54, "duration": 10, "velocity": 58}, {"time": 57782, "pitch": 69, "duration": 10, "velocity": 59}, {"time": 57782, "pitch": 70, "duration": 10, "velocity": 93}, {"time": 57841, "pitch": 35, "duration": 10, "velocity": 92}, {"time": 57841, "pitch": 46, "duration": 10, "velocity": 50}, {"time": 57841, "pitch": 69, "duration": 10, "velocity": 36}, {"time": 57841, "pitch": 70, "duration": 10, "velocity": 70}, {"time": 57901, "pitch": 54, "duration": 10, "velocity": 43}, {"time": 57961, "pitch": 69, "duration": 10, "velocity": 12}, {"time": 58021, "pitch": 69, "duration": 10, "velocity": 47}, {"time": 58081, "pitch": 35, "duration": 10, "velocity": 101}, {"time": 58081, "pitch": 42, "duration": 10, "velocity": 106}, {"time": 58081, "pitch": 51, "duration": 10, "velocity": 90}, {"time": 58081, "pitch": 69, "duration": 10, "velocity": 84}, {"time": 58201, "pitch": 42, "duration": 10, "velocity": 53}, {"time": 58320, "pitch": 42, "duration": 10, "velocity": 66}, {"time": 58320, "pitch": 69, "duration": 10, "velocity": 31}, {"time": 58380, "pitch": 69, "duration": 10, "velocity": 20}, {"time": 58440, "pitch": 42, "duration": 10, "velocity": 82}, {"time": 58440, "pitch": 69, "duration": 10, "velocity": 24}, {"time": 58500, "pitch": 69, "duration": 10, "velocity": 24}, {"time": 58560, "pitch": 38, "duration": 10, "velocity": 90}, {"time": 58560, "pitch": 42, "duration": 10, "velocity": 52}, {"time": 58560, "pitch": 69, "duration": 10, "velocity": 59}, {"time": 58679, "pitch": 42, "duration": 10, "velocity": 77}, {"time": 58679, "pitch": 69, "duration": 10, "velocity": 17}, {"time": 58739, "pitch": 69, "duration": 10, "velocity": 53}, {"time": 58799, "pitch": 42, "duration": 10, "velocity": 114}, {"time": 58919, "pitch": 35, "duration": 10, "velocity": 84}, {"time": 58919, "pitch": 42, "duration": 10, "velocity": 77}, {"time": 58919, "pitch": 69, "duration": 10, "velocity": 47}, {"time": 58979, "pitch": 69, "duration": 10, "velocity": 6}, {"time": 59039, "pitch": 42, "duration": 10, "velocity": 97}, {"time": 59039, "pitch": 69, "duration": 10, "velocity": 53}, {"time": 59159, "pitch": 42, "duration": 11, "velocity": 58}, {"time": 59159, "pitch": 69, "duration": 11, "velocity": 12}, {"time": 59220, "pitch": 69, "duration": 10, "velocity": 59}, {"time": 59280, "pitch": 35, "duration": 11, "velocity": 101}, {"time": 59280, "pitch": 42, "duration": 11, "velocity": 125}, {"time": 59280, "pitch": 69, "duration": 11, "velocity": 47}, {"time": 59401, "pitch": 42, "duration": 10, "velocity": 54}, {"time": 59401, "pitch": 69, "duration": 10, "velocity": 13}, {"time": 59522, "pitch": 38, "duration": 10, "velocity": 120}, {"time": 59522, "pitch": 42, "duration": 10, "velocity": 104}, {"time": 59522, "pitch": 69, "duration": 10, "velocity": 53}, {"time": 59582, "pitch": 42, "duration": 10, "velocity": 51}, {"time": 59582, "pitch": 69, "duration": 10, "velocity": 14}, {"time": 59642, "pitch": 42, "duration": 10, "velocity": 37}, {"time": 59642, "pitch": 69, "duration": 10, "velocity": 28}, {"time": 59702, "pitch": 42, "duration": 10, "velocity": 42}, {"time": 59702, "pitch": 69, "duration": 10, "velocity": 59}, {"time": 59762, "pitch": 42, "duration": 10, "velocity": 77}, {"time": 59762, "pitch": 69, "duration": 10, "velocity": 36}, {"time": 59881, "pitch": 46, "duration": 10, "velocity": 64}, {"time": 59881, "pitch": 69, "duration": 10, "velocity": 12}, {"time": 59941, "pitch": 69, "duration": 10, "velocity": 47}, {"time": 60001, "pitch": 35, "duration": 10, "velocity": 92}, {"time": 60001, "pitch": 42, "duration": 10, "velocity": 114}, {"time": 60001, "pitch": 69, "duration": 10, "velocity": 84}, {"time": 60121, "pitch": 42, "duration": 10, "velocity": 58}, {"time": 60241, "pitch": 35, "duration": 10, "velocity": 92}, {"time": 60241, "pitch": 42, "duration": 10, "velocity": 81}, {"time": 60241, "pitch": 69, "duration": 10, "velocity": 31}, {"time": 60300, "pitch": 69, "duration": 10, "velocity": 20}, {"time": 60360, "pitch": 42, "duration": 10, "velocity": 43}, {"time": 60360, "pitch": 69, "duration": 10, "velocity": 24}, {"time": 60420, "pitch": 69, "duration": 10, "velocity": 24}, {"time": 60480, "pitch": 38, "duration": 10, "velocity": 120}, {"time": 60480, "pitch": 42, "duration": 10, "velocity": 61}, {"time": 60480, "pitch": 69, "duration": 10, "velocity": 59}, {"time": 60600, "pitch": 42, "duration": 10, "velocity": 58}, {"time": 60600, "pitch": 69, "duration": 10, "velocity": 17}, {"time": 60660, "pitch": 69, "duration": 10, "velocity": 53}, {"time": 60719, "pitch": 42, "duration": 10, "velocity": 61}, {"time": 60839, "pitch": 42, "duration": 10, "velocity": 58}, {"time": 60839, "pitch": 69, "duration": 10, "velocity": 47}, {"time": 60899, "pitch": 69, "duration": 10, "velocity": 6}, {"time": 60959, "pitch": 35, "duration": 10, "velocity": 101}, {"time": 60959, "pitch": 42, "duration": 10, "velocity": 104}, {"time": 60959, "pitch": 69, "duration": 10, "velocity": 53}, {"time": 61019, "pitch": 42, "duration": 10, "velocity": 51}, {"time": 61079, "pitch": 42, "duration": 10, "velocity": 37}, {"time": 61079, "pitch": 69, "duration": 10, "velocity": 12}, {"time": 61138, "pitch": 42, "duration": 10, "velocity": 42}, {"time": 61138, "pitch": 69, "duration": 10, "velocity": 59}, {"time": 61198, "pitch": 42, "duration": 10, "velocity": 58}, {"time": 61198, "pitch": 69, "duration": 10, "velocity": 47}, {"time": 61318, "pitch": 42, "duration": 10, "velocity": 89}, {"time": 61318, "pitch": 69, "duration": 10, "velocity": 13}, {"time": 61438, "pitch": 38, "duration": 10, "velocity": 109}, {"time": 61438, "pitch": 42, "duration": 10, "velocity": 46}, {"time": 61438, "pitch": 69, "duration": 10, "velocity": 53}, {"time": 61438, "pitch": 70, "duration": 10, "velocity": 63}, {"time": 61498, "pitch": 69, "duration": 10, "velocity": 14}, {"time": 61498, "pitch": 70, "duration": 10, "velocity": 78}, {"time": 61559, "pitch": 42, "duration": 10, "velocity": 66}, {"time": 61559, "pitch": 69, "duration": 10, "velocity": 28}, {"time": 61559, "pitch": 70, "duration": 10, "velocity": 86}, {"time": 61619, "pitch": 69, "duration": 10, "velocity": 59}, {"time": 61619, "pitch": 70, "duration": 10, "velocity": 93}, {"time": 61680, "pitch": 35, "duration": 10, "velocity": 92}, {"time": 61680, "pitch": 46, "duration": 10, "velocity": 50}, {"time": 61680, "pitch": 69, "duration": 10, "velocity": 36}, {"time": 61680, "pitch": 70, "duration": 10, "velocity": 70}, {"time": 61801, "pitch": 69, "duration": 10, "velocity": 12}, {"time": 61861, "pitch": 69, "duration": 10, "velocity": 47}, {"time": 61922, "pitch": 35, "duration": 10, "velocity": 101}, {"time": 61922, "pitch": 42, "duration": 10, "velocity": 106}, {"time": 61922, "pitch": 69, "duration": 10, "velocity": 84}, {"time": 62041, "pitch": 42, "duration": 10, "velocity": 53}, {"time": 62161, "pitch": 42, "duration": 10, "velocity": 66}, {"time": 62161, "pitch": 69, "duration": 10, "velocity": 31}, {"time": 62221, "pitch": 69, "duration": 10, "velocity": 20}, {"time": 62281, "pitch": 42, "duration": 10, "velocity": 82}, {"time": 62281, "pitch": 69, "duration": 10, "velocity": 24}, {"time": 62341, "pitch": 69, "duration": 10, "velocity": 24}, {"time": 62400, "pitch": 38, "duration": 10, "velocity": 117}, {"time": 62400, "pitch": 42, "duration": 10, "velocity": 52}, {"time": 62400, "pitch": 69, "duration": 10, "velocity": 59}, {"time": 62520, "pitch": 42, "duration": 10, "velocity": 77}, {"time": 62520, "pitch": 69, "duration": 10, "velocity": 17}, {"time": 62580, "pitch": 69, "duration": 10, "velocity": 53}, {"time": 62640, "pitch": 42, "duration": 10, "velocity": 114}, {"time": 62760, "pitch": 35, "duration": 9, "velocity": 84}, {"time": 62760, "pitch": 42, "duration": 9, "velocity": 77}, {"time": 62760, "pitch": 69, "duration": 9, "velocity": 47}, {"time": 62819, "pitch": 69, "duration": 10, "velocity": 6}, {"time": 62879, "pitch": 42, "duration": 10, "velocity": 97}, {"time": 62879, "pitch": 69, "duration": 10, "velocity": 53}, {"time": 62999, "pitch": 42, "duration": 10, "velocity": 58}, {"time": 62999, "pitch": 69, "duration": 10, "velocity": 12}, {"time": 63059, "pitch": 69, "duration": 10, "velocity": 59}, {"time": 63119, "pitch": 35, "duration": 10, "velocity": 101}, {"time": 63119, "pitch": 42, "duration": 10, "velocity": 125}, {"time": 63119, "pitch": 69, "duration": 10, "velocity": 47}, {"time": 63238, "pitch": 42, "duration": 10, "velocity": 54}, {"time": 63238, "pitch": 69, "duration": 10, "velocity": 13}, {"time": 63358, "pitch": 38, "duration": 10, "velocity": 109}, {"time": 63358, "pitch": 42, "duration": 10, "velocity": 104}, {"time": 63358, "pitch": 69, "duration": 10, "velocity": 53}, {"time": 63419, "pitch": 42, "duration": 10, "velocity": 51}, {"time": 63419, "pitch": 69, "duration": 10, "velocity": 14}, {"time": 63479, "pitch": 42, "duration": 10, "velocity": 37}, {"time": 63479, "pitch": 69, "duration": 10, "velocity": 28}, {"time": 63540, "pitch": 42, "duration": 10, "velocity": 42}, {"time": 63540, "pitch": 69, "duration": 10, "velocity": 59}, {"time": 63600, "pitch": 42, "duration": 10, "velocity": 77}, {"time": 63600, "pitch": 69, "duration": 10, "velocity": 36}, {"time": 63721, "pitch": 46, "duration": 10, "velocity": 64}, {"time": 63721, "pitch": 69, "duration": 10, "velocity": 12}, {"time": 63781, "pitch": 69, "duration": 11, "velocity": 47}, {"time": 63842, "pitch": 35, "duration": 10, "velocity": 92}, {"time": 63842, "pitch": 42, "duration": 10, "velocity": 114}, {"time": 63842, "pitch": 69, "duration": 10, "velocity": 84}, {"time": 63962, "pitch": 42, "duration": 10, "velocity": 58}, {"time": 64081, "pitch": 35, "duration": 10, "velocity": 92}, {"time": 64081, "pitch": 42, "duration": 10, "velocity": 81}, {"time": 64081, "pitch": 69, "duration": 10, "velocity": 31}, {"time": 64141, "pitch": 69, "duration": 10, "velocity": 20}, {"time": 64201, "pitch": 42, "duration": 10, "velocity": 43}, {"time": 64201, "pitch": 69, "duration": 10, "velocity": 24}, {"time": 64261, "pitch": 69, "duration": 10, "velocity": 24}, {"time": 64321, "pitch": 38, "duration": 10, "velocity": 109}, {"time": 64321, "pitch": 42, "duration": 10, "velocity": 61}, {"time": 64321, "pitch": 69, "duration": 10, "velocity": 59}, {"time": 64440, "pitch": 42, "duration": 10, "velocity": 58}, {"time": 64440, "pitch": 69, "duration": 10, "velocity": 17}, {"time": 64500, "pitch": 69, "duration": 10, "velocity": 53}, {"time": 64560, "pitch": 42, "duration": 10, "velocity": 61}, {"time": 64680, "pitch": 42, "duration": 10, "velocity": 58}, {"time": 64680, "pitch": 69, "duration": 10, "velocity": 47}, {"time": 64740, "pitch": 69, "duration": 10, "velocity": 6}, {"time": 64800, "pitch": 35, "duration": 10, "velocity": 101}, {"time": 64800, "pitch": 42, "duration": 10, "velocity": 104}, {"time": 64800, "pitch": 69, "duration": 10, "velocity": 53}, {"time": 64859, "pitch": 42, "duration": 10, "velocity": 51}, {"time": 64919, "pitch": 42, "duration": 10, "velocity": 37}, {"time": 64919, "pitch": 69, "duration": 10, "velocity": 12}, {"time": 64979, "pitch": 42, "duration": 10, "velocity": 42}, {"time": 64979, "pitch": 69, "duration": 10, "velocity": 59}, {"time": 65039, "pitch": 42, "duration": 10, "velocity": 58}, {"time": 65039, "pitch": 69, "duration": 10, "velocity": 47}, {"time": 65159, "pitch": 42, "duration": 10, "velocity": 89}, {"time": 65159, "pitch": 69, "duration": 10, "velocity": 13}, {"time": 65278, "pitch": 38, "duration": 10, "velocity": 101}, {"time": 65278, "pitch": 42, "duration": 10, "velocity": 46}, {"time": 65278, "pitch": 69, "duration": 10, "velocity": 53}, {"time": 65278, "pitch": 70, "duration": 10, "velocity": 63}, {"time": 65339, "pitch": 69, "duration": 10, "velocity": 14}, {"time": 65339, "pitch": 70, "duration": 10, "velocity": 78}, {"time": 65399, "pitch": 42, "duration": 10, "velocity": 66}, {"time": 65399, "pitch": 69, "duration": 10, "velocity": 28}, {"time": 65399, "pitch": 70, "duration": 10, "velocity": 86}, {"time": 65460, "pitch": 69, "duration": 10, "velocity": 59}, {"time": 65460, "pitch": 70, "duration": 10, "velocity": 93}, {"time": 65520, "pitch": 35, "duration": 10, "velocity": 92}, {"time": 65520, "pitch": 46, "duration": 10, "velocity": 50}, {"time": 65520, "pitch": 69, "duration": 10, "velocity": 36}, {"time": 65520, "pitch": 70, "duration": 10, "velocity": 70}, {"time": 65641, "pitch": 69, "duration": 10, "velocity": 12}, {"time": 65702, "pitch": 69, "duration": 10, "velocity": 47}, {"time": 65762, "pitch": 35, "duration": 10, "velocity": 101}, {"time": 65762, "pitch": 42, "duration": 10, "velocity": 106}, {"time": 65762, "pitch": 69, "duration": 10, "velocity": 84}, {"time": 65882, "pitch": 42, "duration": 10, "velocity": 53}, {"time": 66002, "pitch": 42, "duration": 10, "velocity": 66}, {"time": 66002, "pitch": 69, "duration": 10, "velocity": 31}, {"time": 66062, "pitch": 69, "duration": 9, "velocity": 20}, {"time": 66121, "pitch": 42, "duration": 10, "velocity": 82}, {"time": 66121, "pitch": 69, "duration": 10, "velocity": 24}, {"time": 66181, "pitch": 69, "duration": 10, "velocity": 24}, {"time": 66241, "pitch": 38, "duration": 10, "velocity": 109}, {"time": 66241, "pitch": 42, "duration": 10, "velocity": 52}, {"time": 66241, "pitch": 69, "duration": 10, "velocity": 59}, {"time": 66361, "pitch": 42, "duration": 10, "velocity": 77}, {"time": 66361, "pitch": 69, "duration": 10, "velocity": 17}, {"time": 66421, "pitch": 69, "duration": 10, "velocity": 53}, {"time": 66481, "pitch": 42, "duration": 9, "velocity": 114}, {"time": 66600, "pitch": 35, "duration": 10, "velocity": 84}, {"time": 66600, "pitch": 42, "duration": 10, "velocity": 77}, {"time": 66600, "pitch": 69, "duration": 10, "velocity": 47}, {"time": 66660, "pitch": 69, "duration": 10, "velocity": 6}, {"time": 66720, "pitch": 42, "duration": 10, "velocity": 97}, {"time": 66720, "pitch": 69, "duration": 10, "velocity": 53}, {"time": 66840, "pitch": 42, "duration": 10, "velocity": 58}, {"time": 66840, "pitch": 69, "duration": 10, "velocity": 12}, {"time": 66899, "pitch": 69, "duration": 10, "velocity": 59}, {"time": 66959, "pitch": 35, "duration": 10, "velocity": 101}, {"time": 66959, "pitch": 42, "duration": 10, "velocity": 125}, {"time": 66959, "pitch": 69, "duration": 10, "velocity": 47}, {"time": 67079, "pitch": 42, "duration": 10, "velocity": 54}, {"time": 67079, "pitch": 69, "duration": 10, "velocity": 13}, {"time": 67199, "pitch": 38, "duration": 10, "velocity": 109}, {"time": 67199, "pitch": 42, "duration": 10, "velocity": 104}, {"time": 67199, "pitch": 69, "duration": 10, "velocity": 53}, {"time": 67259, "pitch": 42, "duration": 10, "velocity": 51}, {"time": 67259, "pitch": 69, "duration": 10, "velocity": 14}, {"time": 67318, "pitch": 42, "duration": 10, "velocity": 37}, {"time": 67318, "pitch": 69, "duration": 10, "velocity": 28}, {"time": 67378, "pitch": 42, "duration": 10, "velocity": 42}, {"time": 67378, "pitch": 69, "duration": 10, "velocity": 59}, {"time": 67438, "pitch": 42, "duration": 10, "velocity": 77}, {"time": 67438, "pitch": 69, "duration": 10, "velocity": 36}, {"time": 67558, "pitch": 46, "duration": 10, "velocity": 64}, {"time": 67558, "pitch": 69, "duration": 10, "velocity": 12}, {"time": 67618, "pitch": 69, "duration": 10, "velocity": 47}, {"time": 67678, "pitch": 35, "duration": 10, "velocity": 92}, {"time": 67678, "pitch": 42, "duration": 10, "velocity": 114}, {"time": 67678, "pitch": 69, "duration": 10, "velocity": 84}, {"time": 67799, "pitch": 42, "duration": 10, "velocity": 58}, {"time": 67920, "pitch": 35, "duration": 10, "velocity": 92}, {"time": 67920, "pitch": 42, "duration": 10, "velocity": 81}, {"time": 67920, "pitch": 69, "duration": 10, "velocity": 31}, {"time": 67980, "pitch": 69, "duration": 10, "velocity": 20}, {"time": 68040, "pitch": 42, "duration": 11, "velocity": 43}, {"time": 68040, "pitch": 69, "duration": 11, "velocity": 24}, {"time": 68101, "pitch": 69, "duration": 10, "velocity": 24}, {"time": 68161, "pitch": 38, "duration": 10, "velocity": 109}, {"time": 68161, "pitch": 42, "duration": 10, "velocity": 61}, {"time": 68161, "pitch": 69, "duration": 10, "velocity": 59}, {"time": 68281, "pitch": 42, "duration": 10, "velocity": 58}, {"time": 68281, "pitch": 69, "duration": 10, "velocity": 17}, {"time": 68341, "pitch": 69, "duration": 10, "velocity": 53}, {"time": 68401, "pitch": 42, "duration": 10, "velocity": 61}, {"time": 68521, "pitch": 42, "duration": 10, "velocity": 58}, {"time": 68521, "pitch": 69, "duration": 10, "velocity": 47}, {"time": 68580, "pitch": 69, "duration": 10, "velocity": 6}, {"time": 68640, "pitch": 35, "duration": 10, "velocity": 101}, {"time": 68640, "pitch": 42, "duration": 10, "velocity": 104}, {"time": 68640, "pitch": 69, "duration": 10, "velocity": 53}, {"time": 68700, "pitch": 42, "duration": 10, "velocity": 51}, {"time": 68760, "pitch": 42, "duration": 10, "velocity": 37}, {"time": 68760, "pitch": 69, "duration": 10, "velocity": 12}, {"time": 68820, "pitch": 42, "duration": 10, "velocity": 42}, {"time": 68820, "pitch": 69, "duration": 10, "velocity": 59}, {"time": 68880, "pitch": 42, "duration": 10, "velocity": 58}, {"time": 68880, "pitch": 69, "duration": 10, "velocity": 47}, {"time": 68999, "pitch": 42, "duration": 10, "velocity": 89}, {"time": 68999, "pitch": 69, "duration": 10, "velocity": 13}, {"time": 69119, "pitch": 38, "duration": 10, "velocity": 107}, {"time": 69119, "pitch": 42, "duration": 10, "velocity": 46}, {"time": 69119, "pitch": 69, "duration": 10, "velocity": 53}, {"time": 69119, "pitch": 70, "duration": 10, "velocity": 63}, {"time": 69179, "pitch": 69, "duration": 10, "velocity": 14}, {"time": 69179, "pitch": 70, "duration": 10, "velocity": 78}, {"time": 69239, "pitch": 42, "duration": 10, "velocity": 66}, {"time": 69239, "pitch": 69, "duration": 10, "velocity": 28}, {"time": 69239, "pitch": 70, "duration": 10, "velocity": 86}, {"time": 69299, "pitch": 69, "duration": 10, "velocity": 59}, {"time": 69299, "pitch": 70, "duration": 10, "velocity": 93}, {"time": 69359, "pitch": 35, "duration": 10, "velocity": 92}, {"time": 69359, "pitch": 46, "duration": 10, "velocity": 50}, {"time": 69359, "pitch": 69, "duration": 10, "velocity": 36}, {"time": 69359, "pitch": 70, "duration": 10, "velocity": 70}, {"time": 69478, "pitch": 69, "duration": 10, "velocity": 12}, {"time": 69538, "pitch": 69, "duration": 10, "velocity": 47}, {"time": 69598, "pitch": 35, "duration": 10, "velocity": 101}, {"time": 69598, "pitch": 42, "duration": 10, "velocity": 106}, {"time": 69598, "pitch": 69, "duration": 10, "velocity": 84}, {"time": 69719, "pitch": 42, "duration": 10, "velocity": 53}, {"time": 69840, "pitch": 42, "duration": 10, "velocity": 66}, {"time": 69840, "pitch": 69, "duration": 10, "velocity": 31}, {"time": 69900, "pitch": 69, "duration": 10, "velocity": 20}, {"time": 69961, "pitch": 42, "duration": 10, "velocity": 82}, {"time": 69961, "pitch": 69, "duration": 10, "velocity": 24}, {"time": 70021, "pitch": 69, "duration": 10, "velocity": 24}, {"time": 70082, "pitch": 38, "duration": 10, "velocity": 98}, {"time": 70082, "pitch": 42, "duration": 10, "velocity": 52}, {"time": 70082, "pitch": 69, "duration": 10, "velocity": 59}, {"time": 70201, "pitch": 42, "duration": 10, "velocity": 77}, {"time": 70201, "pitch": 69, "duration": 10, "velocity": 17}, {"time": 70261, "pitch": 69, "duration": 10, "velocity": 53}, {"time": 70321, "pitch": 42, "duration": 10, "velocity": 114}, {"time": 70441, "pitch": 35, "duration": 10, "velocity": 84}, {"time": 70441, "pitch": 42, "duration": 10, "velocity": 77}, {"time": 70441, "pitch": 69, "duration": 10, "velocity": 47}, {"time": 70501, "pitch": 69, "duration": 10, "velocity": 6}, {"time": 70561, "pitch": 42, "duration": 10, "velocity": 97}, {"time": 70561, "pitch": 69, "duration": 10, "velocity": 53}, {"time": 70680, "pitch": 42, "duration": 10, "velocity": 58}, {"time": 70680, "pitch": 69, "duration": 10, "velocity": 12}, {"time": 70740, "pitch": 69, "duration": 10, "velocity": 59}, {"time": 70800, "pitch": 35, "duration": 10, "velocity": 101}, {"time": 70800, "pitch": 42, "duration": 10, "velocity": 125}, {"time": 70800, "pitch": 69, "duration": 10, "velocity": 47}, {"time": 70920, "pitch": 42, "duration": 10, "velocity": 54}, {"time": 70920, "pitch": 69, "duration": 10, "velocity": 13}, {"time": 71039, "pitch": 38, "duration": 10, "velocity": 109}, {"time": 71039, "pitch": 42, "duration": 10, "velocity": 104}, {"time": 71039, "pitch": 69, "duration": 10, "velocity": 53}, {"time": 71099, "pitch": 42, "duration": 10, "velocity": 51}, {"time": 71099, "pitch": 69, "duration": 10, "velocity": 14}, {"time": 71159, "pitch": 42, "duration": 10, "velocity": 37}, {"time": 71159, "pitch": 69, "duration": 10, "velocity": 28}, {"time": 71219, "pitch": 42, "duration": 10, "velocity": 42}, {"time": 71219, "pitch": 69, "duration": 10, "velocity": 59}, {"time": 71279, "pitch": 42, "duration": 10, "velocity": 77}, {"time": 71279, "pitch": 69, "duration": 10, "velocity": 36}, {"time": 71399, "pitch": 46, "duration": 10, "velocity": 64}, {"time": 71399, "pitch": 69, "duration": 10, "velocity": 12}, {"time": 71458, "pitch": 69, "duration": 10, "velocity": 47}, {"time": 71518, "pitch": 35, "duration": 10, "velocity": 92}, {"time": 71518, "pitch": 42, "duration": 10, "velocity": 114}, {"time": 71518, "pitch": 69, "duration": 10, "velocity": 84}, {"time": 71639, "pitch": 42, "duration": 10, "velocity": 58}, {"time": 71760, "pitch": 35, "duration": 10, "velocity": 92}, {"time": 71760, "pitch": 42, "duration": 10, "velocity": 81}, {"time": 71760, "pitch": 69, "duration": 10, "velocity": 31}, {"time": 71821, "pitch": 69, "duration": 10, "velocity": 20}, {"time": 71881, "pitch": 42, "duration": 10, "velocity": 43}, {"time": 71881, "pitch": 69, "duration": 10, "velocity": 24}, {"time": 71942, "pitch": 69, "duration": 10, "velocity": 24}, {"time": 72002, "pitch": 38, "duration": 10, "velocity": 109}, {"time": 72002, "pitch": 42, "duration": 10, "velocity": 61}, {"time": 72002, "pitch": 69, "duration": 10, "velocity": 59}, {"time": 72122, "pitch": 42, "duration": 10, "velocity": 58}, {"time": 72122, "pitch": 69, "duration": 10, "velocity": 17}, {"time": 72182, "pitch": 69, "duration": 10, "velocity": 53}, {"time": 72242, "pitch": 42, "duration": 10, "velocity": 61}, {"time": 72361, "pitch": 42, "duration": 10, "velocity": 58}, {"time": 72361, "pitch": 69, "duration": 10, "velocity": 47}, {"time": 72421, "pitch": 69, "duration": 10, "velocity": 6}, {"time": 72481, "pitch": 35, "duration": 10, "velocity": 101}, {"time": 72481, "pitch": 42, "duration": 10, "velocity": 104}, {"time": 72481, "pitch": 69, "duration": 10, "velocity": 53}, {"time": 72541, "pitch": 42, "duration": 10, "velocity": 51}, {"time": 72601, "pitch": 42, "duration": 10, "velocity": 37}, {"time": 72601, "pitch": 69, "duration": 10, "velocity": 12}, {"time": 72661, "pitch": 42, "duration": 10, "velocity": 42}, {"time": 72661, "pitch": 69, "duration": 10, "velocity": 59}, {"time": 72720, "pitch": 42, "duration": 10, "velocity": 58}, {"time": 72720, "pitch": 69, "duration": 10, "velocity": 47}, {"time": 72840, "pitch": 42, "duration": 10, "velocity": 89}, {"time": 72840, "pitch": 69, "duration": 10, "velocity": 13}, {"time": 72960, "pitch": 38, "duration": 10, "velocity": 107}, {"time": 72960, "pitch": 42, "duration": 10, "velocity": 46}, {"time": 72960, "pitch": 69, "duration": 10, "velocity": 53}, {"time": 72960, "pitch": 70, "duration": 10, "velocity": 63}, {"time": 73020, "pitch": 69, "duration": 10, "velocity": 14}, {"time": 73020, "pitch": 70, "duration": 10, "velocity": 78}, {"time": 73080, "pitch": 42, "duration": 10, "velocity": 66}, {"time": 73080, "pitch": 69, "duration": 10, "velocity": 28}, {"time": 73080, "pitch": 70, "duration": 10, "velocity": 86}, {"time": 73139, "pitch": 69, "duration": 10, "velocity": 59}, {"time": 73139, "pitch": 70, "duration": 10, "velocity": 93}, {"time": 73199, "pitch": 35, "duration": 10, "velocity": 92}, {"time": 73199, "pitch": 46, "duration": 10, "velocity": 50}, {"time": 73199, "pitch": 69, "duration": 10, "velocity": 36}, {"time": 73199, "pitch": 70, "duration": 10, "velocity": 70}, {"time": 73319, "pitch": 69, "duration": 10, "velocity": 12}, {"time": 73379, "pitch": 69, "duration": 10, "velocity": 47}, {"time": 73439, "pitch": 35, "duration": 10, "velocity": 101}, {"time": 73439, "pitch": 42, "duration": 10, "velocity": 106}, {"time": 73439, "pitch": 69, "duration": 10, "velocity": 84}, {"time": 73560, "pitch": 42, "duration": 10, "velocity": 53}, {"time": 73681, "pitch": 42, "duration": 10, "velocity": 66}, {"time": 73681, "pitch": 69, "duration": 10, "velocity": 31}, {"time": 73741, "pitch": 69, "duration": 10, "velocity": 20}, {"time": 73802, "pitch": 42, "duration": 10, "velocity": 82}, {"time": 73802, "pitch": 69, "duration": 10, "velocity": 24}, {"time": 73862, "pitch": 69, "duration": 10, "velocity": 24}, {"time": 73922, "pitch": 38, "duration": 10, "velocity": 109}, {"time": 73922, "pitch": 42, "duration": 10, "velocity": 52}, {"time": 73922, "pitch": 69, "duration": 10, "velocity": 59}, {"time": 74042, "pitch": 42, "duration": 10, "velocity": 77}, {"time": 74042, "pitch": 69, "duration": 10, "velocity": 17}, {"time": 74102, "pitch": 69, "duration": 10, "velocity": 53}, {"time": 74162, "pitch": 42, "duration": 10, "velocity": 114}, {"time": 74282, "pitch": 35, "duration": 10, "velocity": 84}, {"time": 74282, "pitch": 42, "duration": 10, "velocity": 77}, {"time": 74282, "pitch": 69, "duration": 10, "velocity": 47}, {"time": 74341, "pitch": 69, "duration": 10, "velocity": 6}, {"time": 74401, "pitch": 42, "duration": 10, "velocity": 97}, {"time": 74401, "pitch": 69, "duration": 10, "velocity": 53}, {"time": 74521, "pitch": 42, "duration": 10, "velocity": 58}, {"time": 74521, "pitch": 69, "duration": 10, "velocity": 12}, {"time": 74581, "pitch": 69, "duration": 10, "velocity": 59}, {"time": 74641, "pitch": 35, "duration": 10, "velocity": 101}, {"time": 74641, "pitch": 42, "duration": 10, "velocity": 125}, {"time": 74641, "pitch": 69, "duration": 10, "velocity": 47}, {"time": 74760, "pitch": 42, "duration": 10, "velocity": 54}, {"time": 74760, "pitch": 69, "duration": 10, "velocity": 13}, {"time": 74880, "pitch": 38, "duration": 10, "velocity": 107}, {"time": 74880, "pitch": 42, "duration": 10, "velocity": 104}, {"time": 74880, "pitch": 69, "duration": 10, "velocity": 53}, {"time": 74940, "pitch": 42, "duration": 10, "velocity": 51}, {"time": 74940, "pitch": 69, "duration": 10, "velocity": 14}, {"time": 75000, "pitch": 42, "duration": 10, "velocity": 37}, {"time": 75000, "pitch": 69, "duration": 10, "velocity": 28}, {"time": 75060, "pitch": 42, "duration": 10, "velocity": 42}, {"time": 75060, "pitch": 69, "duration": 10, "velocity": 59}, {"time": 75120, "pitch": 42, "duration": 10, "velocity": 77}, {"time": 75120, "pitch": 69, "duration": 10, "velocity": 36}, {"time": 75239, "pitch": 46, "duration": 10, "velocity": 64}, {"time": 75239, "pitch": 69, "duration": 10, "velocity": 12}, {"time": 75299, "pitch": 69, "duration": 10, "velocity": 47}, {"time": 75359, "pitch": 35, "duration": 10, "velocity": 92}, {"time": 75359, "pitch": 42, "duration": 10, "velocity": 114}, {"time": 75359, "pitch": 69, "duration": 10, "velocity": 84}, {"time": 75479, "pitch": 42, "duration": 10, "velocity": 58}, {"time": 75598, "pitch": 35, "duration": 10, "velocity": 92}, {"time": 75598, "pitch": 42, "duration": 10, "velocity": 81}, {"time": 75598, "pitch": 69, "duration": 10, "velocity": 31}, {"time": 75658, "pitch": 69, "duration": 10, "velocity": 20}, {"time": 75718, "pitch": 42, "duration": 10, "velocity": 43}, {"time": 75718, "pitch": 69, "duration": 10, "velocity": 24}, {"time": 75778, "pitch": 69, "duration": 10, "velocity": 24}, {"time": 75838, "pitch": 38, "duration": 10, "velocity": 120}, {"time": 75838, "pitch": 42, "duration": 10, "velocity": 61}, {"time": 75838, "pitch": 69, "duration": 10, "velocity": 59}, {"time": 75959, "pitch": 42, "duration": 10, "velocity": 58}, {"time": 75959, "pitch": 69, "duration": 10, "velocity": 17}, {"time": 76019, "pitch": 69, "duration": 10, "velocity": 53}, {"time": 76080, "pitch": 42, "duration": 10, "velocity": 61}, {"time": 76201, "pitch": 42, "duration": 10, "velocity": 58}, {"time": 76201, "pitch": 69, "duration": 10, "velocity": 47}, {"time": 76261, "pitch": 69, "duration": 10, "velocity": 6}, {"time": 76322, "pitch": 35, "duration": 10, "velocity": 101}, {"time": 76322, "pitch": 42, "duration": 10, "velocity": 104}, {"time": 76322, "pitch": 69, "duration": 10, "velocity": 53}, {"time": 76382, "pitch": 42, "duration": 9, "velocity": 51}, {"time": 76441, "pitch": 42, "duration": 10, "velocity": 37}, {"time": 76441, "pitch": 69, "duration": 10, "velocity": 12}, {"time": 76501, "pitch": 42, "duration": 10, "velocity": 42}, {"time": 76501, "pitch": 69, "duration": 10, "velocity": 59}, {"time": 76561, "pitch": 42, "duration": 10, "velocity": 58}, {"time": 76561, "pitch": 69, "duration": 10, "velocity": 47}, {"time": 76681, "pitch": 42, "duration": 10, "velocity": 89}, {"time": 76681, "pitch": 69, "duration": 10, "velocity": 13}, {"time": 76801, "pitch": 38, "duration": 9, "velocity": 120}, {"time": 76801, "pitch": 42, "duration": 9, "velocity": 46}, {"time": 76801, "pitch": 69, "duration": 9, "velocity": 53}, {"time": 76801, "pitch": 70, "duration": 9, "velocity": 63}, {"time": 76860, "pitch": 69, "duration": 10, "velocity": 14}, {"time": 76860, "pitch": 70, "duration": 10, "velocity": 78}, {"time": 76920, "pitch": 42, "duration": 10, "velocity": 66}, {"time": 76920, "pitch": 69, "duration": 10, "velocity": 28}, {"time": 76920, "pitch": 70, "duration": 10, "velocity": 86}, {"time": 76980, "pitch": 69, "duration": 10, "velocity": 59}, {"time": 76980, "pitch": 70, "duration": 10, "velocity": 93}, {"time": 77040, "pitch": 35, "duration": 10, "velocity": 92}, {"time": 77040, "pitch": 46, "duration": 10, "velocity": 50}, {"time": 77040, "pitch": 69, "duration": 10, "velocity": 36}, {"time": 77040, "pitch": 70, "duration": 10, "velocity": 70}, {"time": 77160, "pitch": 69, "duration": 10, "velocity": 12}, {"time": 77220, "pitch": 69, "duration": 9, "velocity": 47}, {"time": 77279, "pitch": 35, "duration": 10, "velocity": 101}, {"time": 77279, "pitch": 42, "duration": 10, "velocity": 106}, {"time": 77279, "pitch": 69, "duration": 10, "velocity": 84}, {"time": 77279, "pitch": 80, "duration": 10, "velocity": 77}, {"time": 77399, "pitch": 42, "duration": 10, "velocity": 53}, {"time": 77399, "pitch": 80, "duration": 10, "velocity": 66}, {"time": 77519, "pitch": 42, "duration": 10, "velocity": 66}, {"time": 77519, "pitch": 69, "duration": 10, "velocity": 31}, {"time": 77519, "pitch": 81, "duration": 10, "velocity": 50}, {"time": 77579, "pitch": 69, "duration": 10, "velocity": 20}, {"time": 77638, "pitch": 42, "duration": 10, "velocity": 82}, {"time": 77638, "pitch": 69, "duration": 10, "velocity": 24}, {"time": 77638, "pitch": 80, "duration": 10, "velocity": 52}, {"time": 77698, "pitch": 69, "duration": 10, "velocity": 24}, {"time": 77758, "pitch": 38, "duration": 10, "velocity": 109}, {"time": 77758, "pitch": 42, "duration": 10, "velocity": 52}, {"time": 77758, "pitch": 69, "duration": 10, "velocity": 59}, {"time": 77879, "pitch": 42, "duration": 10, "velocity": 77}, {"time": 77879, "pitch": 69, "duration": 10, "velocity": 17}, {"time": 77879, "pitch": 81, "duration": 10, "velocity": 45}, {"time": 77940, "pitch": 69, "duration": 10, "velocity": 53}, {"time": 78000, "pitch": 42, "duration": 10, "velocity": 114}, {"time": 78121, "pitch": 35, "duration": 10, "velocity": 84}, {"time": 78121, "pitch": 42, "duration": 10, "velocity": 77}, {"time": 78121, "pitch": 69, "duration": 10, "velocity": 47}, {"time": 78182, "pitch": 69, "duration": 10, "velocity": 6}, {"time": 78242, "pitch": 42, "duration": 10, "velocity": 97}, {"time": 78242, "pitch": 69, "duration": 10, "velocity": 53}, {"time": 78362, "pitch": 42, "duration": 10, "velocity": 58}, {"time": 78362, "pitch": 69, "duration": 10, "velocity": 12}, {"time": 78422, "pitch": 69, "duration": 10, "velocity": 59}, {"time": 78481, "pitch": 35, "duration": 10, "velocity": 101}, {"time": 78481, "pitch": 42, "duration": 10, "velocity": 125}, {"time": 78481, "pitch": 69, "duration": 10, "velocity": 47}, {"time": 78601, "pitch": 42, "duration": 10, "velocity": 54}, {"time": 78601, "pitch": 69, "duration": 10, "velocity": 13}, {"time": 78721, "pitch": 38, "duration": 10, "velocity": 90}, {"time": 78721, "pitch": 42, "duration": 10, "velocity": 104}, {"time": 78721, "pitch": 69, "duration": 10, "velocity": 53}, {"time": 78781, "pitch": 42, "duration": 10, "velocity": 51}, {"time": 78781, "pitch": 69, "duration": 10, "velocity": 14}, {"time": 78841, "pitch": 42, "duration": 10, "velocity": 37}, {"time": 78841, "pitch": 69, "duration": 10, "velocity": 28}, {"time": 78900, "pitch": 42, "duration": 10, "velocity": 42}, {"time": 78900, "pitch": 69, "duration": 10, "velocity": 59}, {"time": 78960, "pitch": 42, "duration": 10, "velocity": 77}, {"time": 78960, "pitch": 69, "duration": 10, "velocity": 36}, {"time": 79080, "pitch": 46, "duration": 10, "velocity": 64}, {"time": 79080, "pitch": 69, "duration": 10, "velocity": 12}, {"time": 79140, "pitch": 69, "duration": 10, "velocity": 47}, {"time": 79200, "pitch": 35, "duration": 10, "velocity": 92}, {"time": 79200, "pitch": 42, "duration": 10, "velocity": 114}, {"time": 79200, "pitch": 69, "duration": 10, "velocity": 84}, {"time": 79319, "pitch": 42, "duration": 10, "velocity": 58}, {"time": 79439, "pitch": 35, "duration": 10, "velocity": 92}, {"time": 79439, "pitch": 42, "duration": 10, "velocity": 81}, {"time": 79439, "pitch": 69, "duration": 10, "velocity": 31}, {"time": 79499, "pitch": 69, "duration": 10, "velocity": 20}, {"time": 79559, "pitch": 42, "duration": 10, "velocity": 43}, {"time": 79559, "pitch": 69, "duration": 10, "velocity": 24}, {"time": 79619, "pitch": 69, "duration": 10, "velocity": 24}, {"time": 79679, "pitch": 38, "duration": 10, "velocity": 109}, {"time": 79679, "pitch": 42, "duration": 10, "velocity": 61}, {"time": 79679, "pitch": 69, "duration": 10, "velocity": 59}, {"time": 79799, "pitch": 42, "duration": 11, "velocity": 58}, {"time": 79799, "pitch": 69, "duration": 11, "velocity": 17}, {"time": 79799, "pitch": 80, "duration": 11, "velocity": 83}, {"time": 79860, "pitch": 69, "duration": 10, "velocity": 53}, {"time": 79920, "pitch": 42, "duration": 11, "velocity": 61}, {"time": 79920, "pitch": 81, "duration": 11, "velocity": 58}, {"time": 80041, "pitch": 42, "duration": 10, "velocity": 58}, {"time": 80041, "pitch": 69, "duration": 10, "velocity": 47}, {"time": 80041, "pitch": 80, "duration": 10, "velocity": 77}, {"time": 80102, "pitch": 69, "duration": 10, "velocity": 6}, {"time": 80162, "pitch": 35, "duration": 10, "velocity": 101}, {"time": 80162, "pitch": 38, "duration": 10, "velocity": 120}, {"time": 80162, "pitch": 42, "duration": 10, "velocity": 104}, {"time": 80162, "pitch": 69, "duration": 10, "velocity": 53}, {"time": 80222, "pitch": 42, "duration": 10, "velocity": 51}, {"time": 80282, "pitch": 38, "duration": 10, "velocity": 101}, {"time": 80282, "pitch": 42, "duration": 10, "velocity": 37}, {"time": 80282, "pitch": 69, "duration": 10, "velocity": 12}, {"time": 80282, "pitch": 81, "duration": 10, "velocity": 58}, {"time": 80342, "pitch": 42, "duration": 10, "velocity": 42}, {"time": 80342, "pitch": 69, "duration": 10, "velocity": 59}, {"time": 80402, "pitch": 42, "duration": 10, "velocity": 58}, {"time": 80402, "pitch": 69, "duration": 10, "velocity": 47}, {"time": 80521, "pitch": 42, "duration": 10, "velocity": 89}, {"time": 80521, "pitch": 50, "duration": 10, "velocity": 83}, {"time": 80521, "pitch": 69, "duration": 10, "velocity": 13}, {"time": 80641, "pitch": 42, "duration": 10, "velocity": 46}, {"time": 80641, "pitch": 69, "duration": 10, "velocity": 53}, {"time": 80641, "pitch": 70, "duration": 10, "velocity": 63}, {"time": 80701, "pitch": 69, "duration": 10, "velocity": 14}, {"time": 80701, "pitch": 70, "duration": 10, "velocity": 78}, {"time": 80761, "pitch": 42, "duration": 10, "velocity": 66}, {"time": 80761, "pitch": 48, "duration": 10, "velocity": 83}, {"time": 80761, "pitch": 69, "duration": 10, "velocity": 28}, {"time": 80761, "pitch": 70, "duration": 10, "velocity": 86}, {"time": 80821, "pitch": 69, "duration": 10, "velocity": 59}, {"time": 80821, "pitch": 70, "duration": 10, "velocity": 93}, {"time": 80881, "pitch": 35, "duration": 10, "velocity": 92}, {"time": 80881, "pitch": 45, "duration": 10, "velocity": 89}, {"time": 80881, "pitch": 46, "duration": 10, "velocity": 50}, {"time": 80881, "pitch": 69, "duration": 10, "velocity": 36}, {"time": 80881, "pitch": 70, "duration": 10, "velocity": 70}, {"time": 81000, "pitch": 41, "duration": 10, "velocity": 71}, {"time": 81000, "pitch": 69, "duration": 10, "velocity": 12}, {"time": 81060, "pitch": 69, "duration": 10, "velocity": 47}, {"time": 81120, "pitch": 35, "duration": 10, "velocity": 101}, {"time": 81120, "pitch": 36, "duration": 10, "velocity": 75}, {"time": 81120, "pitch": 42, "duration": 10, "velocity": 106}, {"time": 81120, "pitch": 49, "duration": 120, "velocity": 66}, {"time": 81120, "pitch": 54, "duration": 10, "velocity": 67}, {"time": 81120, "pitch": 69, "duration": 10, "velocity": 84}, {"time": 81180, "pitch": 54, "duration": 10, "velocity": 50}, {"time": 81240, "pitch": 42, "duration": 10, "velocity": 53}, {"time": 81240, "pitch": 54, "duration": 10, "velocity": 44}, {"time": 81300, "pitch": 54, "duration": 10, "velocity": 42}, {"time": 81359, "pitch": 42, "duration": 10, "velocity": 66}, {"time": 81359, "pitch": 54, "duration": 10, "velocity": 58}, {"time": 81359, "pitch": 69, "duration": 10, "velocity": 31}, {"time": 81419, "pitch": 69, "duration": 10, "velocity": 20}, {"time": 81479, "pitch": 36, "duration": 10, "velocity": 67}, {"time": 81479, "pitch": 42, "duration": 10, "velocity": 82}, {"time": 81479, "pitch": 54, "duration": 10, "velocity": 54}, {"time": 81479, "pitch": 69, "duration": 10, "velocity": 24}, {"time": 81539, "pitch": 69, "duration": 10, "velocity": 24}, {"time": 81599, "pitch": 38, "duration": 10, "velocity": 109}, {"time": 81599, "pitch": 42, "duration": 10, "velocity": 52}, {"time": 81599, "pitch": 54, "duration": 10, "velocity": 89}, {"time": 81599, "pitch": 69, "duration": 10, "velocity": 59}, {"time": 81719, "pitch": 42, "duration": 10, "velocity": 77}, {"time": 81719, "pitch": 54, "duration": 10, "velocity": 51}, {"time": 81719, "pitch": 69, "duration": 10, "velocity": 17}, {"time": 81778, "pitch": 69, "duration": 10, "velocity": 53}, {"time": 81838, "pitch": 42, "duration": 10, "velocity": 114}, {"time": 81838, "pitch": 54, "duration": 10, "velocity": 38}, {"time": 81958, "pitch": 35, "duration": 10, "velocity": 84}, {"time": 81958, "pitch": 42, "duration": 10, "velocity": 77}, {"time": 81958, "pitch": 54, "duration": 10, "velocity": 42}, {"time": 81958, "pitch": 69, "duration": 10, "velocity": 47}, {"time": 82018, "pitch": 69, "duration": 10, "velocity": 6}, {"time": 82078, "pitch": 42, "duration": 10, "velocity": 97}, {"time": 82078, "pitch": 54, "duration": 10, "velocity": 43}, {"time": 82078, "pitch": 69, "duration": 10, "velocity": 53}, {"time": 82138, "pitch": 54, "duration": 10, "velocity": 42}, {"time": 82199, "pitch": 42, "duration": 10, "velocity": 58}, {"time": 82199, "pitch": 54, "duration": 10, "velocity": 54}, {"time": 82199, "pitch": 69, "duration": 10, "velocity": 12}, {"time": 82259, "pitch": 69, "duration": 10, "velocity": 59}, {"time": 82320, "pitch": 35, "duration": 10, "velocity": 101}, {"time": 82320, "pitch": 42, "duration": 10, "velocity": 125}, {"time": 82320, "pitch": 54, "duration": 10, "velocity": 47}, {"time": 82320, "pitch": 69, "duration": 10, "velocity": 47}, {"time": 82441, "pitch": 42, "duration": 10, "velocity": 54}, {"time": 82441, "pitch": 54, "duration": 10, "velocity": 49}, {"time": 82441, "pitch": 69, "duration": 10, "velocity": 13}, {"time": 82562, "pitch": 38, "duration": 10, "velocity": 117}, {"time": 82562, "pitch": 42, "duration": 10, "velocity": 104}, {"time": 82562, "pitch": 54, "duration": 10, "velocity": 71}, {"time": 82562, "pitch": 69, "duration": 10, "velocity": 53}, {"time": 82621, "pitch": 42, "duration": 10, "velocity": 51}, {"time": 82621, "pitch": 54, "duration": 10, "velocity": 44}, {"time": 82621, "pitch": 69, "duration": 10, "velocity": 14}, {"time": 82681, "pitch": 42, "duration": 10, "velocity": 37}, {"time": 82681, "pitch": 54, "duration": 10, "velocity": 48}, {"time": 82681, "pitch": 69, "duration": 10, "velocity": 28}, {"time": 82741, "pitch": 42, "duration": 10, "velocity": 42}, {"time": 82741, "pitch": 54, "duration": 10, "velocity": 52}, {"time": 82741, "pitch": 69, "duration": 10, "velocity": 59}, {"time": 82801, "pitch": 42, "duration": 10, "velocity": 77}, {"time": 82801, "pitch": 54, "duration": 10, "velocity": 52}, {"time": 82801, "pitch": 69, "duration": 10, "velocity": 36}, {"time": 82921, "pitch": 46, "duration": 40, "velocity": 64}, {"time": 82921, "pitch": 54, "duration": 10, "velocity": 67}, {"time": 82921, "pitch": 69, "duration": 10, "velocity": 12}, {"time": 82981, "pitch": 69, "duration": 10, "velocity": 47}, {"time": 83040, "pitch": 35, "duration": 10, "velocity": 92}, {"time": 83040, "pitch": 36, "duration": 10, "velocity": 64}, {"time": 83040, "pitch": 42, "duration": 10, "velocity": 114}, {"time": 83040, "pitch": 54, "duration": 10, "velocity": 61}, {"time": 83040, "pitch": 69, "duration": 10, "velocity": 84}, {"time": 83160, "pitch": 42, "duration": 10, "velocity": 58}, {"time": 83160, "pitch": 54, "duration": 10, "velocity": 32}, {"time": 83280, "pitch": 35, "duration": 10, "velocity": 92}, {"time": 83280, "pitch": 42, "duration": 10, "velocity": 81}, {"time": 83280, "pitch": 54, "duration": 10, "velocity": 71}, {"time": 83280, "pitch": 69, "duration": 10, "velocity": 31}, {"time": 83340, "pitch": 69, "duration": 10, "velocity": 20}, {"time": 83400, "pitch": 36, "duration": 10, "velocity": 67}, {"time": 83400, "pitch": 42, "duration": 10, "velocity": 43}, {"time": 83400, "pitch": 54, "duration": 10, "velocity": 47}, {"time": 83400, "pitch": 69, "duration": 10, "velocity": 24}, {"time": 83459, "pitch": 69, "duration": 10, "velocity": 24}, {"time": 83519, "pitch": 38, "duration": 10, "velocity": 120}, {"time": 83519, "pitch": 42, "duration": 10, "velocity": 61}, {"time": 83519, "pitch": 54, "duration": 10, "velocity": 77}, {"time": 83519, "pitch": 69, "duration": 10, "velocity": 59}, {"time": 83579, "pitch": 54, "duration": 10, "velocity": 55}, {"time": 83639, "pitch": 36, "duration": 10, "velocity": 65}, {"time": 83639, "pitch": 42, "duration": 10, "velocity": 58}, {"time": 83639, "pitch": 54, "duration": 10, "velocity": 54}, {"time": 83639, "pitch": 69, "duration": 10, "velocity": 17}, {"time": 83699, "pitch": 54, "duration": 10, "velocity": 40}, {"time": 83699, "pitch": 69, "duration": 10, "velocity": 53}, {"time": 83759, "pitch": 42, "duration": 10, "velocity": 61}, {"time": 83759, "pitch": 54, "duration": 10, "velocity": 65}, {"time": 83878, "pitch": 42, "duration": 10, "velocity": 58}, {"time": 83878, "pitch": 54, "duration": 10, "velocity": 36}, {"time": 83878, "pitch": 69, "duration": 10, "velocity": 47}, {"time": 83938, "pitch": 69, "duration": 10, "velocity": 6}, {"time": 83998, "pitch": 35, "duration": 10, "velocity": 101}, {"time": 83998, "pitch": 42, "duration": 10, "velocity": 104}, {"time": 83998, "pitch": 54, "duration": 10, "velocity": 61}, {"time": 83998, "pitch": 69, "duration": 10, "velocity": 53}, {"time": 84059, "pitch": 42, "duration": 10, "velocity": 51}, {"time": 84119, "pitch": 42, "duration": 10, "velocity": 37}, {"time": 84119, "pitch": 54, "duration": 10, "velocity": 52}, {"time": 84119, "pitch": 69, "duration": 10, "velocity": 12}, {"time": 84180, "pitch": 42, "duration": 10, "velocity": 42}, {"time": 84180, "pitch": 69, "duration": 10, "velocity": 59}, {"time": 84240, "pitch": 42, "duration": 10, "velocity": 58}, {"time": 84240, "pitch": 54, "duration": 10, "velocity": 50}, {"time": 84240, "pitch": 69, "duration": 10, "velocity": 47}, {"time": 84361, "pitch": 42, "duration": 10, "velocity": 89}, {"time": 84361, "pitch": 54, "duration": 10, "velocity": 44}, {"time": 84361, "pitch": 69, "duration": 10, "velocity": 13}, {"time": 84482, "pitch": 38, "duration": 10, "velocity": 122}, {"time": 84482, "pitch": 42, "duration": 10, "velocity": 46}, {"time": 84482, "pitch": 54, "duration": 10, "velocity": 56}, {"time": 84482, "pitch": 69, "duration": 10, "velocity": 53}, {"time": 84482, "pitch": 70, "duration": 10, "velocity": 63}, {"time": 84542, "pitch": 69, "duration": 10, "velocity": 14}, {"time": 84542, "pitch": 70, "duration": 10, "velocity": 78}, {"time": 84602, "pitch": 42, "duration": 10, "velocity": 66}, {"time": 84602, "pitch": 54, "duration": 10, "velocity": 66}, {"time": 84602, "pitch": 69, "duration": 10, "velocity": 28}, {"time": 84602, "pitch": 70, "duration": 10, "velocity": 86}, {"time": 84661, "pitch": 54, "duration": 10, "velocity": 58}, {"time": 84661, "pitch": 69, "duration": 10, "velocity": 59}, {"time": 84661, "pitch": 70, "duration": 10, "velocity": 93}, {"time": 84721, "pitch": 35, "duration": 10, "velocity": 92}, {"time": 84721, "pitch": 46, "duration": 10, "velocity": 50}, {"time": 84721, "pitch": 69, "duration": 10, "velocity": 36}, {"time": 84721, "pitch": 70, "duration": 10, "velocity": 70}, {"time": 84781, "pitch": 54, "duration": 10, "velocity": 43}, {"time": 84841, "pitch": 69, "duration": 10, "velocity": 12}, {"time": 84901, "pitch": 69, "duration": 10, "velocity": 47}, {"time": 84961, "pitch": 35, "duration": 10, "velocity": 101}, {"time": 84961, "pitch": 36, "duration": 10, "velocity": 75}, {"time": 84961, "pitch": 42, "duration": 10, "velocity": 106}, {"time": 84961, "pitch": 54, "duration": 10, "velocity": 67}, {"time": 84961, "pitch": 69, "duration": 10, "velocity": 84}, {"time": 85021, "pitch": 54, "duration": 10, "velocity": 50}, {"time": 85080, "pitch": 42, "duration": 10, "velocity": 53}, {"time": 85080, "pitch": 54, "duration": 10, "velocity": 44}, {"time": 85140, "pitch": 54, "duration": 10, "velocity": 42}, {"time": 85200, "pitch": 42, "duration": 10, "velocity": 66}, {"time": 85200, "pitch": 54, "duration": 10, "velocity": 58}, {"time": 85200, "pitch": 69, "duration": 10, "velocity": 31}, {"time": 85260, "pitch": 69, "duration": 10, "velocity": 20}, {"time": 85320, "pitch": 36, "duration": 10, "velocity": 67}, {"time": 85320, "pitch": 42, "duration": 10, "velocity": 82}, {"time": 85320, "pitch": 54, "duration": 10, "velocity": 54}, {"time": 85320, "pitch": 69, "duration": 10, "velocity": 24}, {"time": 85380, "pitch": 69, "duration": 10, "velocity": 24}, {"time": 85440, "pitch": 38, "duration": 10, "velocity": 120}, {"time": 85440, "pitch": 42, "duration": 10, "velocity": 52}, {"time": 85440, "pitch": 54, "duration": 10, "velocity": 89}, {"time": 85440, "pitch": 69, "duration": 10, "velocity": 59}, {"time": 85559, "pitch": 42, "duration": 10, "velocity": 77}, {"time": 85559, "pitch": 54, "duration": 10, "velocity": 51}, {"time": 85559, "pitch": 69, "duration": 10, "velocity": 17}, {"time": 85619, "pitch": 69, "duration": 10, "velocity": 53}, {"time": 85679, "pitch": 42, "duration": 10, "velocity": 114}, {"time": 85679, "pitch": 54, "duration": 10, "velocity": 38}, {"time": 85799, "pitch": 35, "duration": 10, "velocity": 84}, {"time": 85799, "pitch": 42, "duration": 10, "velocity": 77}, {"time": 85799, "pitch": 54, "duration": 10, "velocity": 42}, {"time": 85799, "pitch": 69, "duration": 10, "velocity": 47}, {"time": 85859, "pitch": 69, "duration": 10, "velocity": 6}, {"time": 85918, "pitch": 42, "duration": 11, "velocity": 97}, {"time": 85918, "pitch": 54, "duration": 11, "velocity": 43}, {"time": 85918, "pitch": 69, "duration": 11, "velocity": 53}, {"time": 85979, "pitch": 54, "duration": 10, "velocity": 42}, {"time": 86039, "pitch": 42, "duration": 10, "velocity": 58}, {"time": 86039, "pitch": 54, "duration": 10, "velocity": 54}, {"time": 86039, "pitch": 69, "duration": 10, "velocity": 12}, {"time": 86100, "pitch": 69, "duration": 10, "velocity": 59}, {"time": 86160, "pitch": 35, "duration": 10, "velocity": 101}, {"time": 86160, "pitch": 42, "duration": 10, "velocity": 125}, {"time": 86160, "pitch": 54, "duration": 10, "velocity": 47}, {"time": 86160, "pitch": 69, "duration": 10, "velocity": 47}, {"time": 86281, "pitch": 42, "duration": 10, "velocity": 54}, {"time": 86281, "pitch": 54, "duration": 10, "velocity": 49}, {"time": 86281, "pitch": 69, "duration": 10, "velocity": 13}, {"time": 86402, "pitch": 38, "duration": 10, "velocity": 120}, {"time": 86402, "pitch": 42, "duration": 10, "velocity": 104}, {"time": 86402, "pitch": 54, "duration": 10, "velocity": 71}, {"time": 86402, "pitch": 69, "duration": 10, "velocity": 53}, {"time": 86462, "pitch": 42, "duration": 10, "velocity": 51}, {"time": 86462, "pitch": 54, "duration": 10, "velocity": 44}, {"time": 86462, "pitch": 69, "duration": 10, "velocity": 14}, {"time": 86522, "pitch": 42, "duration": 10, "velocity": 37}, {"time": 86522, "pitch": 54, "duration": 10, "velocity": 48}, {"time": 86522, "pitch": 69, "duration": 10, "velocity": 28}, {"time": 86582, "pitch": 42, "duration": 10, "velocity": 42}, {"time": 86582, "pitch": 54, "duration": 10, "velocity": 52}, {"time": 86582, "pitch": 69, "duration": 10, "velocity": 59}, {"time": 86642, "pitch": 42, "duration": 10, "velocity": 77}, {"time": 86642, "pitch": 54, "duration": 10, "velocity": 52}, {"time": 86642, "pitch": 69, "duration": 10, "velocity": 36}, {"time": 86761, "pitch": 46, "duration": 40, "velocity": 64}, {"time": 86761, "pitch": 54, "duration": 10, "velocity": 67}, {"time": 86761, "pitch": 69, "duration": 10, "velocity": 12}, {"time": 86821, "pitch": 69, "duration": 10, "velocity": 47}, {"time": 86881, "pitch": 35, "duration": 10, "velocity": 92}, {"time": 86881, "pitch": 36, "duration": 10, "velocity": 64}, {"time": 86881, "pitch": 42, "duration": 10, "velocity": 114}, {"time": 86881, "pitch": 54, "duration": 10, "velocity": 61}, {"time": 86881, "pitch": 69, "duration": 10, "velocity": 84}, {"time": 87001, "pitch": 42, "duration": 10, "velocity": 58}, {"time": 87001, "pitch": 54, "duration": 10, "velocity": 32}, {"time": 87121, "pitch": 35, "duration": 9, "velocity": 92}, {"time": 87121, "pitch": 42, "duration": 9, "velocity": 81}, {"time": 87121, "pitch": 54, "duration": 9, "velocity": 71}, {"time": 87121, "pitch": 69, "duration": 9, "velocity": 31}, {"time": 87180, "pitch": 69, "duration": 10, "velocity": 20}, {"time": 87240, "pitch": 36, "duration": 10, "velocity": 67}, {"time": 87240, "pitch": 42, "duration": 10, "velocity": 43}, {"time": 87240, "pitch": 54, "duration": 10, "velocity": 47}, {"time": 87240, "pitch": 69, "duration": 10, "velocity": 24}, {"time": 87300, "pitch": 69, "duration": 10, "velocity": 24}, {"time": 87360, "pitch": 38, "duration": 10, "velocity": 120}, {"time": 87360, "pitch": 42, "duration": 10, "velocity": 61}, {"time": 87360, "pitch": 54, "duration": 10, "velocity": 77}, {"time": 87360, "pitch": 69, "duration": 10, "velocity": 59}, {"time": 87420, "pitch": 54, "duration": 10, "velocity": 55}, {"time": 87480, "pitch": 36, "duration": 10, "velocity": 65}, {"time": 87480, "pitch": 42, "duration": 10, "velocity": 58}, {"time": 87480, "pitch": 54, "duration": 10, "velocity": 54}, {"time": 87480, "pitch": 69, "duration": 10, "velocity": 17}, {"time": 87540, "pitch": 54, "duration": 9, "velocity": 40}, {"time": 87540, "pitch": 69, "duration": 9, "velocity": 53}, {"time": 87599, "pitch": 42, "duration": 10, "velocity": 61}, {"time": 87599, "pitch": 54, "duration": 10, "velocity": 65}, {"time": 87719, "pitch": 42, "duration": 10, "velocity": 58}, {"time": 87719, "pitch": 54, "duration": 10, "velocity": 36}, {"time": 87719, "pitch": 69, "duration": 10, "velocity": 47}, {"time": 87779, "pitch": 69, "duration": 10, "velocity": 6}, {"time": 87839, "pitch": 35, "duration": 10, "velocity": 101}, {"time": 87839, "pitch": 42, "duration": 10, "velocity": 104}, {"time": 87839, "pitch": 54, "duration": 10, "velocity": 61}, {"time": 87839, "pitch": 69, "duration": 10, "velocity": 53}, {"time": 87899, "pitch": 42, "duration": 10, "velocity": 51}, {"time": 87959, "pitch": 42, "duration": 9, "velocity": 37}, {"time": 87959, "pitch": 54, "duration": 9, "velocity": 52}, {"time": 87959, "pitch": 69, "duration": 9, "velocity": 12}, {"time": 88018, "pitch": 42, "duration": 10, "velocity": 42}, {"time": 88018, "pitch": 69, "duration": 10, "velocity": 59}, {"time": 88078, "pitch": 42, "duration": 10, "velocity": 58}, {"time": 88078, "pitch": 54, "duration": 10, "velocity": 50}, {"time": 88078, "pitch": 69, "duration": 10, "velocity": 47}, {"time": 88198, "pitch": 42, "duration": 10, "velocity": 89}, {"time": 88198, "pitch": 54, "duration": 10, "velocity": 44}, {"time": 88198, "pitch": 69, "duration": 10, "velocity": 13}, {"time": 88318, "pitch": 38, "duration": 10, "velocity": 117}, {"time": 88318, "pitch": 42, "duration": 10, "velocity": 46}, {"time": 88318, "pitch": 54, "duration": 10, "velocity": 56}, {"time": 88318, "pitch": 69, "duration": 10, "velocity": 53}, {"time": 88318, "pitch": 70, "duration": 10, "velocity": 63}, {"time": 88378, "pitch": 69, "duration": 10, "velocity": 14}, {"time": 88378, "pitch": 70, "duration": 10, "velocity": 78}, {"time": 88439, "pitch": 42, "duration": 10, "velocity": 66}, {"time": 88439, "pitch": 54, "duration": 10, "velocity": 66}, {"time": 88439, "pitch": 69, "duration": 10, "velocity": 28}, {"time": 88439, "pitch": 70, "duration": 10, "velocity": 86}, {"time": 88499, "pitch": 54, "duration": 10, "velocity": 58}, {"time": 88499, "pitch": 69, "duration": 10, "velocity": 59}, {"time": 88499, "pitch": 70, "duration": 10, "velocity": 93}, {"time": 88560, "pitch": 35, "duration": 10, "velocity": 92}, {"time": 88560, "pitch": 46, "duration": 10, "velocity": 50}, {"time": 88560, "pitch": 69, "duration": 10, "velocity": 36}, {"time": 88560, "pitch": 70, "duration": 10, "velocity": 70}, {"time": 88620, "pitch": 54, "duration": 10, "velocity": 43}, {"time": 88680, "pitch": 69, "duration": 11, "velocity": 12}, {"time": 88741, "pitch": 69, "duration": 10, "velocity": 47}, {"time": 88801, "pitch": 35, "duration": 10, "velocity": 101}, {"time": 88801, "pitch": 36, "duration": 10, "velocity": 75}, {"time": 88801, "pitch": 42, "duration": 10, "velocity": 106}, {"time": 88801, "pitch": 54, "duration": 10, "velocity": 67}, {"time": 88801, "pitch": 69, "duration": 10, "velocity": 84}, {"time": 88861, "pitch": 54, "duration": 10, "velocity": 50}, {"time": 88921, "pitch": 42, "duration": 10, "velocity": 53}, {"time": 88921, "pitch": 54, "duration": 10, "velocity": 44}, {"time": 88981, "pitch": 54, "duration": 10, "velocity": 42}, {"time": 89041, "pitch": 42, "duration": 10, "velocity": 66}, {"time": 89041, "pitch": 54, "duration": 10, "velocity": 58}, {"time": 89041, "pitch": 69, "duration": 10, "velocity": 31}, {"time": 89101, "pitch": 69, "duration": 10, "velocity": 20}, {"time": 89161, "pitch": 36, "duration": 10, "velocity": 67}, {"time": 89161, "pitch": 42, "duration": 10, "velocity": 82}, {"time": 89161, "pitch": 54, "duration": 10, "velocity": 54}, {"time": 89161, "pitch": 69, "duration": 10, "velocity": 24}, {"time": 89220, "pitch": 69, "duration": 10, "velocity": 24}, {"time": 89280, "pitch": 38, "duration": 10, "velocity": 107}, {"time": 89280, "pitch": 42, "duration": 10, "velocity": 52}, {"time": 89280, "pitch": 54, "duration": 10, "velocity": 89}, {"time": 89280, "pitch": 69, "duration": 10, "velocity": 59}, {"time": 89400, "pitch": 42, "duration": 10, "velocity": 77}, {"time": 89400, "pitch": 54, "duration": 10, "velocity": 51}, {"time": 89400, "pitch": 69, "duration": 10, "velocity": 17}, {"time": 89460, "pitch": 69, "duration": 10, "velocity": 53}, {"time": 89520, "pitch": 42, "duration": 10, "velocity": 114}, {"time": 89520, "pitch": 54, "duration": 10, "velocity": 38}, {"time": 89639, "pitch": 35, "duration": 10, "velocity": 84}, {"time": 89639, "pitch": 42, "duration": 10, "velocity": 77}, {"time": 89639, "pitch": 54, "duration": 10, "velocity": 42}, {"time": 89639, "pitch": 69, "duration": 10, "velocity": 47}, {"time": 89699, "pitch": 69, "duration": 10, "velocity": 6}, {"time": 89759, "pitch": 42, "duration": 10, "velocity": 97}, {"time": 89759, "pitch": 54, "duration": 10, "velocity": 43}, {"time": 89759, "pitch": 69, "duration": 10, "velocity": 53}, {"time": 89819, "pitch": 54, "duration": 10, "velocity": 42}, {"time": 89879, "pitch": 42, "duration": 10, "velocity": 58}, {"time": 89879, "pitch": 54, "duration": 10, "velocity": 54}, {"time": 89879, "pitch": 69, "duration": 10, "velocity": 12}, {"time": 89939, "pitch": 69, "duration": 10, "velocity": 59}, {"time": 89999, "pitch": 35, "duration": 10, "velocity": 101}, {"time": 89999, "pitch": 42, "duration": 10, "velocity": 125}, {"time": 89999, "pitch": 54, "duration": 10, "velocity": 47}, {"time": 89999, "pitch": 69, "duration": 10, "velocity": 47}, {"time": 90118, "pitch": 42, "duration": 10, "velocity": 54}, {"time": 90118, "pitch": 54, "duration": 10, "velocity": 49}, {"time": 90118, "pitch": 69, "duration": 10, "velocity": 13}, {"time": 90238, "pitch": 38, "duration": 10, "velocity": 107}, {"time": 90238, "pitch": 42, "duration": 10, "velocity": 104}, {"time": 90238, "pitch": 54, "duration": 10, "velocity": 71}, {"time": 90238, "pitch": 69, "duration": 10, "velocity": 53}, {"time": 90298, "pitch": 42, "duration": 11, "velocity": 51}, {"time": 90298, "pitch": 54, "duration": 11, "velocity": 44}, {"time": 90298, "pitch": 69, "duration": 11, "velocity": 14}, {"time": 90359, "pitch": 42, "duration": 10, "velocity": 37}, {"time": 90359, "pitch": 54, "duration": 10, "velocity": 48}, {"time": 90359, "pitch": 69, "duration": 10, "velocity": 28}, {"time": 90419, "pitch": 42, "duration": 10, "velocity": 42}, {"time": 90419, "pitch": 54, "duration": 10, "velocity": 52}, {"time": 90419, "pitch": 69, "duration": 10, "velocity": 59}, {"time": 90480, "pitch": 42, "duration": 10, "velocity": 77}, {"time": 90480, "pitch": 54, "duration": 10, "velocity": 52}, {"time": 90480, "pitch": 69, "duration": 10, "velocity": 36}, {"time": 90601, "pitch": 46, "duration": 40, "velocity": 64}, {"time": 90601, "pitch": 54, "duration": 10, "velocity": 67}, {"time": 90601, "pitch": 69, "duration": 10, "velocity": 12}, {"time": 90661, "pitch": 69, "duration": 10, "velocity": 47}, {"time": 90722, "pitch": 35, "duration": 10, "velocity": 92}, {"time": 90722, "pitch": 36, "duration": 10, "velocity": 64}, {"time": 90722, "pitch": 42, "duration": 10, "velocity": 114}, {"time": 90722, "pitch": 54, "duration": 10, "velocity": 61}, {"time": 90722, "pitch": 69, "duration": 10, "velocity": 84}, {"time": 90841, "pitch": 42, "duration": 10, "velocity": 58}, {"time": 90841, "pitch": 54, "duration": 10, "velocity": 32}, {"time": 90961, "pitch": 35, "duration": 10, "velocity": 92}, {"time": 90961, "pitch": 42, "duration": 10, "velocity": 81}, {"time": 90961, "pitch": 54, "duration": 10, "velocity": 71}, {"time": 90961, "pitch": 69, "duration": 10, "velocity": 31}, {"time": 91021, "pitch": 69, "duration": 10, "velocity": 20}, {"time": 91081, "pitch": 36, "duration": 10, "velocity": 67}, {"time": 91081, "pitch": 42, "duration": 10, "velocity": 43}, {"time": 91081, "pitch": 54, "duration": 10, "velocity": 47}, {"time": 91081, "pitch": 69, "duration": 10, "velocity": 24}, {"time": 91141, "pitch": 69, "duration": 10, "velocity": 24}, {"time": 91201, "pitch": 38, "duration": 10, "velocity": 109}, {"time": 91201, "pitch": 42, "duration": 10, "velocity": 61}, {"time": 91201, "pitch": 54, "duration": 10, "velocity": 77}, {"time": 91201, "pitch": 69, "duration": 10, "velocity": 59}, {"time": 91260, "pitch": 54, "duration": 10, "velocity": 55}, {"time": 91320, "pitch": 36, "duration": 10, "velocity": 65}, {"time": 91320, "pitch": 42, "duration": 10, "velocity": 58}, {"time": 91320, "pitch": 54, "duration": 10, "velocity": 54}, {"time": 91320, "pitch": 69, "duration": 10, "velocity": 17}, {"time": 91380, "pitch": 54, "duration": 10, "velocity": 40}, {"time": 91380, "pitch": 69, "duration": 10, "velocity": 53}, {"time": 91440, "pitch": 42, "duration": 10, "velocity": 61}, {"time": 91440, "pitch": 54, "duration": 10, "velocity": 65}, {"time": 91560, "pitch": 42, "duration": 10, "velocity": 58}, {"time": 91560, "pitch": 54, "duration": 10, "velocity": 36}, {"time": 91560, "pitch": 69, "duration": 10, "velocity": 47}, {"time": 91620, "pitch": 69, "duration": 10, "velocity": 6}, {"time": 91679, "pitch": 35, "duration": 10, "velocity": 101}, {"time": 91679, "pitch": 42, "duration": 10, "velocity": 104}, {"time": 91679, "pitch": 54, "duration": 10, "velocity": 61}, {"time": 91679, "pitch": 69, "duration": 10, "velocity": 53}, {"time": 91739, "pitch": 42, "duration": 10, "velocity": 51}, {"time": 91799, "pitch": 42, "duration": 10, "velocity": 37}, {"time": 91799, "pitch": 54, "duration": 10, "velocity": 52}, {"time": 91799, "pitch": 69, "duration": 10, "velocity": 12}, {"time": 91859, "pitch": 42, "duration": 10, "velocity": 42}, {"time": 91859, "pitch": 69, "duration": 10, "velocity": 59}, {"time": 91919, "pitch": 42, "duration": 10, "velocity": 58}, {"time": 91919, "pitch": 54, "duration": 10, "velocity": 50}, {"time": 91919, "pitch": 69, "duration": 10, "velocity": 47}, {"time": 92039, "pitch": 42, "duration": 10, "velocity": 89}, {"time": 92039, "pitch": 54, "duration": 10, "velocity": 44}, {"time": 92039, "pitch": 69, "duration": 10, "velocity": 13}, {"time": 92158, "pitch": 38, "duration": 10, "velocity": 117}, {"time": 92158, "pitch": 42, "duration": 10, "velocity": 46}, {"time": 92158, "pitch": 54, "duration": 10, "velocity": 56}, {"time": 92158, "pitch": 69, "duration": 10, "velocity": 53}, {"time": 92158, "pitch": 70, "duration": 10, "velocity": 63}, {"time": 92219, "pitch": 69, "duration": 10, "velocity": 14}, {"time": 92219, "pitch": 70, "duration": 10, "velocity": 78}, {"time": 92279, "pitch": 42, "duration": 10, "velocity": 66}, {"time": 92279, "pitch": 54, "duration": 10, "velocity": 66}, {"time": 92279, "pitch": 69, "duration": 10, "velocity": 28}, {"time": 92279, "pitch": 70, "duration": 10, "velocity": 86}, {"time": 92340, "pitch": 54, "duration": 10, "velocity": 58}, {"time": 92340, "pitch": 69, "duration": 10, "velocity": 59}, {"time": 92340, "pitch": 70, "duration": 10, "velocity": 93}, {"time": 92400, "pitch": 35, "duration": 10, "velocity": 92}, {"time": 92400, "pitch": 46, "duration": 10, "velocity": 50}, {"time": 92400, "pitch": 69, "duration": 10, "velocity": 36}, {"time": 92400, "pitch": 70, "duration": 10, "velocity": 70}, {"time": 92461, "pitch": 54, "duration": 10, "velocity": 43}, {"time": 92521, "pitch": 69, "duration": 10, "velocity": 12}, {"time": 92582, "pitch": 69, "duration": 10, "velocity": 47}, {"time": 92642, "pitch": 35, "duration": 10, "velocity": 101}, {"time": 92642, "pitch": 36, "duration": 10, "velocity": 75}, {"time": 92642, "pitch": 42, "duration": 10, "velocity": 106}, {"time": 92642, "pitch": 54, "duration": 10, "velocity": 67}, {"time": 92642, "pitch": 69, "duration": 10, "velocity": 84}, {"time": 92702, "pitch": 54, "duration": 10, "velocity": 50}, {"time": 92762, "pitch": 42, "duration": 10, "velocity": 53}, {"time": 92762, "pitch": 54, "duration": 10, "velocity": 44}, {"time": 92822, "pitch": 54, "duration": 10, "velocity": 42}, {"time": 92882, "pitch": 42, "duration": 10, "velocity": 66}, {"time": 92882, "pitch": 54, "duration": 10, "velocity": 58}, {"time": 92882, "pitch": 69, "duration": 10, "velocity": 31}, {"time": 92941, "pitch": 69, "duration": 10, "velocity": 20}, {"time": 93001, "pitch": 36, "duration": 10, "velocity": 67}, {"time": 93001, "pitch": 42, "duration": 10, "velocity": 82}, {"time": 93001, "pitch": 54, "duration": 10, "velocity": 54}, {"time": 93001, "pitch": 69, "duration": 10, "velocity": 24}, {"time": 93061, "pitch": 69, "duration": 10, "velocity": 24}, {"time": 93121, "pitch": 38, "duration": 10, "velocity": 117}, {"time": 93121, "pitch": 42, "duration": 10, "velocity": 52}, {"time": 93121, "pitch": 54, "duration": 10, "velocity": 89}, {"time": 93121, "pitch": 69, "duration": 10, "velocity": 59}, {"time": 93241, "pitch": 42, "duration": 10, "velocity": 77}, {"time": 93241, "pitch": 54, "duration": 10, "velocity": 51}, {"time": 93241, "pitch": 69, "duration": 10, "velocity": 17}, {"time": 93301, "pitch": 69, "duration": 10, "velocity": 53}, {"time": 93360, "pitch": 42, "duration": 10, "velocity": 114}, {"time": 93360, "pitch": 54, "duration": 10, "velocity": 38}, {"time": 93480, "pitch": 35, "duration": 10, "velocity": 84}, {"time": 93480, "pitch": 42, "duration": 10, "velocity": 77}, {"time": 93480, "pitch": 54, "duration": 10, "velocity": 42}, {"time": 93480, "pitch": 69, "duration": 10, "velocity": 47}, {"time": 93540, "pitch": 69, "duration": 10, "velocity": 6}, {"time": 93600, "pitch": 42, "duration": 10, "velocity": 97}, {"time": 93600, "pitch": 54, "duration": 10, "velocity": 43}, {"time": 93600, "pitch": 69, "duration": 10, "velocity": 53}, {"time": 93660, "pitch": 54, "duration": 10, "velocity": 42}, {"time": 93720, "pitch": 42, "duration": 10, "velocity": 58}, {"time": 93720, "pitch": 54, "duration": 10, "velocity": 54}, {"time": 93720, "pitch": 69, "duration": 10, "velocity": 12}, {"time": 93779, "pitch": 69, "duration": 10, "velocity": 59}, {"time": 93839, "pitch": 35, "duration": 10, "velocity": 101}, {"time": 93839, "pitch": 42, "duration": 10, "velocity": 125}, {"time": 93839, "pitch": 54, "duration": 10, "velocity": 47}, {"time": 93839, "pitch": 69, "duration": 10, "velocity": 47}, {"time": 93959, "pitch": 42, "duration": 10, "velocity": 54}, {"time": 93959, "pitch": 54, "duration": 10, "velocity": 49}, {"time": 93959, "pitch": 69, "duration": 10, "velocity": 13}, {"time": 94079, "pitch": 38, "duration": 10, "velocity": 120}, {"time": 94079, "pitch": 42, "duration": 10, "velocity": 104}, {"time": 94079, "pitch": 54, "duration": 10, "velocity": 71}, {"time": 94079, "pitch": 69, "duration": 10, "velocity": 53}, {"time": 94139, "pitch": 42, "duration": 10, "velocity": 51}, {"time": 94139, "pitch": 54, "duration": 10, "velocity": 44}, {"time": 94139, "pitch": 69, "duration": 10, "velocity": 14}, {"time": 94198, "pitch": 42, "duration": 10, "velocity": 37}, {"time": 94198, "pitch": 54, "duration": 10, "velocity": 48}, {"time": 94198, "pitch": 69, "duration": 10, "velocity": 28}, {"time": 94258, "pitch": 42, "duration": 10, "velocity": 42}, {"time": 94258, "pitch": 54, "duration": 10, "velocity": 52}, {"time": 94258, "pitch": 69, "duration": 10, "velocity": 59}, {"time": 94318, "pitch": 42, "duration": 10, "velocity": 77}, {"time": 94318, "pitch": 54, "duration": 10, "velocity": 52}, {"time": 94318, "pitch": 69, "duration": 10, "velocity": 36}, {"time": 94438, "pitch": 46, "duration": 40, "velocity": 64}, {"time": 94438, "pitch": 54, "duration": 10, "velocity": 67}, {"time": 94438, "pitch": 69, "duration": 10, "velocity": 12}, {"time": 94498, "pitch": 69, "duration": 10, "velocity": 47}, {"time": 94558, "pitch": 35, "duration": 10, "velocity": 92}, {"time": 94558, "pitch": 36, "duration": 10, "velocity": 64}, {"time": 94558, "pitch": 42, "duration": 10, "velocity": 114}, {"time": 94558, "pitch": 54, "duration": 10, "velocity": 61}, {"time": 94558, "pitch": 69, "duration": 10, "velocity": 84}, {"time": 94678, "pitch": 42, "duration": 11, "velocity": 58}, {"time": 94678, "pitch": 54, "duration": 11, "velocity": 32}, {"time": 94799, "pitch": 35, "duration": 10, "velocity": 92}, {"time": 94799, "pitch": 42, "duration": 10, "velocity": 81}, {"time": 94799, "pitch": 54, "duration": 10, "velocity": 71}, {"time": 94799, "pitch": 69, "duration": 10, "velocity": 31}, {"time": 94860, "pitch": 69, "duration": 10, "velocity": 20}, {"time": 94920, "pitch": 36, "duration": 10, "velocity": 67}, {"time": 94920, "pitch": 42, "duration": 10, "velocity": 43}, {"time": 94920, "pitch": 54, "duration": 10, "velocity": 47}, {"time": 94920, "pitch": 69, "duration": 10, "velocity": 24}, {"time": 94981, "pitch": 69, "duration": 10, "velocity": 24}, {"time": 95041, "pitch": 38, "duration": 10, "velocity": 120}, {"time": 95041, "pitch": 42, "duration": 10, "velocity": 61}, {"time": 95041, "pitch": 54, "duration": 10, "velocity": 77}, {"time": 95041, "pitch": 69, "duration": 10, "velocity": 59}, {"time": 95101, "pitch": 54, "duration": 10, "velocity": 55}, {"time": 95161, "pitch": 36, "duration": 10, "velocity": 65}, {"time": 95161, "pitch": 42, "duration": 10, "velocity": 58}, {"time": 95161, "pitch": 54, "duration": 10, "velocity": 54}, {"time": 95161, "pitch": 69, "duration": 10, "velocity": 17}, {"time": 95221, "pitch": 54, "duration": 10, "velocity": 40}, {"time": 95221, "pitch": 69, "duration": 10, "velocity": 53}, {"time": 95281, "pitch": 42, "duration": 10, "velocity": 61}, {"time": 95281, "pitch": 54, "duration": 10, "velocity": 65}, {"time": 95400, "pitch": 42, "duration": 10, "velocity": 58}, {"time": 95400, "pitch": 54, "duration": 10, "velocity": 36}, {"time": 95400, "pitch": 69, "duration": 10, "velocity": 47}, {"time": 95460, "pitch": 69, "duration": 10, "velocity": 6}, {"time": 95520, "pitch": 35, "duration": 10, "velocity": 101}, {"time": 95520, "pitch": 42, "duration": 10, "velocity": 104}, {"time": 95520, "pitch": 54, "duration": 10, "velocity": 61}, {"time": 95520, "pitch": 69, "duration": 10, "velocity": 53}, {"time": 95580, "pitch": 42, "duration": 10, "velocity": 51}, {"time": 95640, "pitch": 42, "duration": 10, "velocity": 37}, {"time": 95640, "pitch": 54, "duration": 10, "velocity": 52}, {"time": 95640, "pitch": 69, "duration": 10, "velocity": 12}, {"time": 95700, "pitch": 42, "duration": 10, "velocity": 42}, {"time": 95700, "pitch": 69, "duration": 10, "velocity": 59}, {"time": 95760, "pitch": 42, "duration": 10, "velocity": 58}, {"time": 95760, "pitch": 54, "duration": 10, "velocity": 50}, {"time": 95760, "pitch": 69, "duration": 10, "velocity": 47}, {"time": 95879, "pitch": 42, "duration": 10, "velocity": 89}, {"time": 95879, "pitch": 54, "duration": 10, "velocity": 44}, {"time": 95879, "pitch": 69, "duration": 10, "velocity": 13}, {"time": 95999, "pitch": 38, "duration": 10, "velocity": 120}, {"time": 95999, "pitch": 42, "duration": 10, "velocity": 46}, {"time": 95999, "pitch": 54, "duration": 10, "velocity": 56}, {"time": 95999, "pitch": 69, "duration": 10, "velocity": 53}, {"time": 95999, "pitch": 70, "duration": 10, "velocity": 63}, {"time": 96059, "pitch": 69, "duration": 10, "velocity": 14}, {"time": 96059, "pitch": 70, "duration": 10, "velocity": 78}, {"time": 96119, "pitch": 42, "duration": 10, "velocity": 66}, {"time": 96119, "pitch": 45, "duration": 10, "velocity": 70}, {"time": 96119, "pitch": 54, "duration": 10, "velocity": 66}, {"time": 96119, "pitch": 69, "duration": 10, "velocity": 28}, {"time": 96119, "pitch": 70, "duration": 10, "velocity": 86}, {"time": 96179, "pitch": 54, "duration": 10, "velocity": 58}, {"time": 96179, "pitch": 69, "duration": 10, "velocity": 59}, {"time": 96179, "pitch": 70, "duration": 10, "velocity": 93}, {"time": 96238, "pitch": 35, "duration": 10, "velocity": 92}, {"time": 96238, "pitch": 41, "duration": 10, "velocity": 70}, {"time": 96238, "pitch": 46, "duration": 10, "velocity": 50}, {"time": 96238, "pitch": 69, "duration": 10, "velocity": 36}, {"time": 96238, "pitch": 70, "duration": 10, "velocity": 70}, {"time": 96298, "pitch": 54, "duration": 10, "velocity": 43}, {"time": 96358, "pitch": 69, "duration": 10, "velocity": 12}, {"time": 96418, "pitch": 69, "duration": 10, "velocity": 47}, {"time": 96478, "pitch": 35, "duration": 10, "velocity": 101}, {"time": 96478, "pitch": 42, "duration": 10, "velocity": 106}, {"time": 96478, "pitch": 69, "duration": 10, "velocity": 84}, {"time": 96599, "pitch": 42, "duration": 10, "velocity": 53}, {"time": 96720, "pitch": 42, "duration": 10, "velocity": 66}, {"time": 96720, "pitch": 69, "duration": 10, "velocity": 31}, {"time": 96780, "pitch": 69, "duration": 10, "velocity": 20}, {"time": 96841, "pitch": 42, "duration": 10, "velocity": 82}, {"time": 96841, "pitch": 69, "duration": 10, "velocity": 24}, {"time": 96901, "pitch": 69, "duration": 10, "velocity": 24}, {"time": 96962, "pitch": 37, "duration": 10, "velocity": 127}, {"time": 96962, "pitch": 42, "duration": 10, "velocity": 52}, {"time": 96962, "pitch": 69, "duration": 10, "velocity": 59}, {"time": 97081, "pitch": 42, "duration": 10, "velocity": 77}, {"time": 97081, "pitch": 69, "duration": 10, "velocity": 17}, {"time": 97141, "pitch": 69, "duration": 10, "velocity": 53}, {"time": 97201, "pitch": 42, "duration": 10, "velocity": 114}, {"time": 97321, "pitch": 35, "duration": 10, "velocity": 84}, {"time": 97321, "pitch": 42, "duration": 10, "velocity": 77}, {"time": 97321, "pitch": 69, "duration": 10, "velocity": 47}, {"time": 97381, "pitch": 69, "duration": 10, "velocity": 6}, {"time": 97441, "pitch": 42, "duration": 9, "velocity": 97}, {"time": 97441, "pitch": 69, "duration": 9, "velocity": 53}, {"time": 97560, "pitch": 42, "duration": 10, "velocity": 58}, {"time": 97560, "pitch": 69, "duration": 10, "velocity": 12}, {"time": 97620, "pitch": 69, "duration": 10, "velocity": 59}, {"time": 97680, "pitch": 35, "duration": 10, "velocity": 101}, {"time": 97680, "pitch": 42, "duration": 10, "velocity": 125}, {"time": 97680, "pitch": 69, "duration": 10, "velocity": 47}, {"time": 97800, "pitch": 42, "duration": 10, "velocity": 54}, {"time": 97800, "pitch": 69, "duration": 10, "velocity": 13}, {"time": 97919, "pitch": 37, "duration": 10, "velocity": 127}, {"time": 97919, "pitch": 42, "duration": 10, "velocity": 104}, {"time": 97919, "pitch": 69, "duration": 10, "velocity": 53}, {"time": 97979, "pitch": 42, "duration": 10, "velocity": 51}, {"time": 97979, "pitch": 69, "duration": 10, "velocity": 14}, {"time": 98039, "pitch": 42, "duration": 10, "velocity": 37}, {"time": 98039, "pitch": 69, "duration": 10, "velocity": 28}, {"time": 98099, "pitch": 42, "duration": 10, "velocity": 42}, {"time": 98099, "pitch": 69, "duration": 10, "velocity": 59}, {"time": 98159, "pitch": 42, "duration": 10, "velocity": 77}, {"time": 98159, "pitch": 69, "duration": 10, "velocity": 36}, {"time": 98279, "pitch": 46, "duration": 9, "velocity": 64}, {"time": 98279, "pitch": 69, "duration": 9, "velocity": 12}, {"time": 98338, "pitch": 69, "duration": 10, "velocity": 47}, {"time": 98398, "pitch": 35, "duration": 10, "velocity": 92}, {"time": 98398, "pitch": 42, "duration": 10, "velocity": 114}, {"time": 98398, "pitch": 69, "duration": 10, "velocity": 84}, {"time": 98519, "pitch": 42, "duration": 10, "velocity": 58}, {"time": 98640, "pitch": 35, "duration": 10, "velocity": 92}, {"time": 98640, "pitch": 42, "duration": 10, "velocity": 81}, {"time": 98640, "pitch": 69, "duration": 10, "velocity": 31}, {"time": 98701, "pitch": 69, "duration": 10, "velocity": 20}, {"time": 98761, "pitch": 42, "duration": 10, "velocity": 43}, {"time": 98761, "pitch": 69, "duration": 10, "velocity": 24}, {"time": 98822, "pitch": 69, "duration": 10, "velocity": 24}, {"time": 98882, "pitch": 37, "duration": 10, "velocity": 127}, {"time": 98882, "pitch": 42, "duration": 10, "velocity": 61}, {"time": 98882, "pitch": 69, "duration": 10, "velocity": 59}, {"time": 99002, "pitch": 42, "duration": 10, "velocity": 58}, {"time": 99002, "pitch": 69, "duration": 10, "velocity": 17}, {"time": 99062, "pitch": 69, "duration": 10, "velocity": 53}, {"time": 99121, "pitch": 42, "duration": 10, "velocity": 61}, {"time": 99241, "pitch": 42, "duration": 10, "velocity": 58}, {"time": 99241, "pitch": 69, "duration": 10, "velocity": 47}, {"time": 99301, "pitch": 69, "duration": 10, "velocity": 6}, {"time": 99361, "pitch": 35, "duration": 10, "velocity": 101}, {"time": 99361, "pitch": 42, "duration": 10, "velocity": 104}, {"time": 99361, "pitch": 69, "duration": 10, "velocity": 53}, {"time": 99421, "pitch": 42, "duration": 10, "velocity": 51}, {"time": 99481, "pitch": 42, "duration": 10, "velocity": 37}, {"time": 99481, "pitch": 69, "duration": 10, "velocity": 12}, {"time": 99540, "pitch": 42, "duration": 10, "velocity": 42}, {"time": 99540, "pitch": 69, "duration": 10, "velocity": 59}, {"time": 99600, "pitch": 42, "duration": 10, "velocity": 58}, {"time": 99600, "pitch": 69, "duration": 10, "velocity": 47}, {"time": 99720, "pitch": 42, "duration": 10, "velocity": 89}, {"time": 99720, "pitch": 69, "duration": 10, "velocity": 13}, {"time": 99840, "pitch": 37, "duration": 10, "velocity": 127}, {"time": 99840, "pitch": 42, "duration": 10, "velocity": 46}, {"time": 99840, "pitch": 69, "duration": 10, "velocity": 53}, {"time": 99840, "pitch": 70, "duration": 10, "velocity": 63}, {"time": 99900, "pitch": 69, "duration": 10, "velocity": 14}, {"time": 99900, "pitch": 70, "duration": 10, "velocity": 78}, {"time": 99959, "pitch": 42, "duration": 10, "velocity": 66}, {"time": 99959, "pitch": 69, "duration": 10, "velocity": 28}, {"time": 99959, "pitch": 70, "duration": 10, "velocity": 86}, {"time": 100019, "pitch": 69, "duration": 10, "velocity": 59}, {"time": 100019, "pitch": 70, "duration": 10, "velocity": 93}, {"time": 100079, "pitch": 35, "duration": 10, "velocity": 92}, {"time": 100079, "pitch": 46, "duration": 10, "velocity": 50}, {"time": 100079, "pitch": 69, "duration": 10, "velocity": 36}, {"time": 100079, "pitch": 70, "duration": 10, "velocity": 70}, {"time": 100199, "pitch": 69, "duration": 10, "velocity": 12}, {"time": 100259, "pitch": 69, "duration": 10, "velocity": 47}, {"time": 100319, "pitch": 35, "duration": 10, "velocity": 101}, {"time": 100319, "pitch": 42, "duration": 10, "velocity": 106}, {"time": 100319, "pitch": 69, "duration": 10, "velocity": 84}, {"time": 100440, "pitch": 42, "duration": 10, "velocity": 53}, {"time": 100560, "pitch": 42, "duration": 11, "velocity": 66}, {"time": 100560, "pitch": 69, "duration": 11, "velocity": 31}, {"time": 100621, "pitch": 69, "duration": 10, "velocity": 20}, {"time": 100681, "pitch": 42, "duration": 11, "velocity": 82}, {"time": 100681, "pitch": 69, "duration": 11, "velocity": 24}, {"time": 100742, "pitch": 69, "duration": 10, "velocity": 24}, {"time": 100802, "pitch": 37, "duration": 10, "velocity": 125}, {"time": 100802, "pitch": 42, "duration": 10, "velocity": 52}, {"time": 100802, "pitch": 69, "duration": 10, "velocity": 59}, {"time": 100922, "pitch": 42, "duration": 10, "velocity": 77}, {"time": 100922, "pitch": 69, "duration": 10, "velocity": 17}, {"time": 100982, "pitch": 69, "duration": 10, "velocity": 53}, {"time": 101042, "pitch": 42, "duration": 10, "velocity": 114}, {"time": 101161, "pitch": 35, "duration": 10, "velocity": 84}, {"time": 101161, "pitch": 42, "duration": 10, "velocity": 77}, {"time": 101161, "pitch": 69, "duration": 10, "velocity": 47}, {"time": 101221, "pitch": 69, "duration": 10, "velocity": 6}, {"time": 101281, "pitch": 42, "duration": 10, "velocity": 97}, {"time": 101281, "pitch": 69, "duration": 10, "velocity": 53}, {"time": 101401, "pitch": 42, "duration": 10, "velocity": 58}, {"time": 101401, "pitch": 69, "duration": 10, "velocity": 12}, {"time": 101461, "pitch": 69, "duration": 10, "velocity": 59}, {"time": 101521, "pitch": 35, "duration": 10, "velocity": 101}, {"time": 101521, "pitch": 42, "duration": 10, "velocity": 125}, {"time": 101521, "pitch": 69, "duration": 10, "velocity": 47}, {"time": 101640, "pitch": 42, "duration": 10, "velocity": 54}, {"time": 101640, "pitch": 69, "duration": 10, "velocity": 13}, {"time": 101760, "pitch": 37, "duration": 10, "velocity": 127}, {"time": 101760, "pitch": 42, "duration": 10, "velocity": 104}, {"time": 101760, "pitch": 69, "duration": 10, "velocity": 53}, {"time": 101820, "pitch": 42, "duration": 10, "velocity": 51}, {"time": 101820, "pitch": 69, "duration": 10, "velocity": 14}, {"time": 101880, "pitch": 42, "duration": 10, "velocity": 37}, {"time": 101880, "pitch": 69, "duration": 10, "velocity": 28}, {"time": 101940, "pitch": 42, "duration": 10, "velocity": 42}, {"time": 101940, "pitch": 69, "duration": 10, "velocity": 59}, {"time": 101999, "pitch": 42, "duration": 10, "velocity": 77}, {"time": 101999, "pitch": 69, "duration": 10, "velocity": 36}, {"time": 102119, "pitch": 46, "duration": 10, "velocity": 64}, {"time": 102119, "pitch": 69, "duration": 10, "velocity": 12}, {"time": 102179, "pitch": 69, "duration": 10, "velocity": 47}, {"time": 102239, "pitch": 35, "duration": 10, "velocity": 92}, {"time": 102239, "pitch": 42, "duration": 10, "velocity": 114}, {"time": 102239, "pitch": 69, "duration": 10, "velocity": 84}, {"time": 102359, "pitch": 42, "duration": 10, "velocity": 58}, {"time": 102478, "pitch": 35, "duration": 10, "velocity": 92}, {"time": 102478, "pitch": 42, "duration": 10, "velocity": 81}, {"time": 102478, "pitch": 69, "duration": 10, "velocity": 31}, {"time": 102538, "pitch": 69, "duration": 10, "velocity": 20}, {"time": 102598, "pitch": 42, "duration": 10, "velocity": 43}, {"time": 102598, "pitch": 69, "duration": 10, "velocity": 24}, {"time": 102658, "pitch": 69, "duration": 10, "velocity": 24}, {"time": 102718, "pitch": 37, "duration": 10, "velocity": 127}, {"time": 102718, "pitch": 42, "duration": 10, "velocity": 61}, {"time": 102718, "pitch": 69, "duration": 10, "velocity": 59}, {"time": 102839, "pitch": 42, "duration": 10, "velocity": 58}, {"time": 102839, "pitch": 69, "duration": 10, "velocity": 17}, {"time": 102899, "pitch": 69, "duration": 10, "velocity": 53}, {"time": 102960, "pitch": 42, "duration": 10, "velocity": 61}, {"time": 103081, "pitch": 42, "duration": 10, "velocity": 58}, {"time": 103081, "pitch": 69, "duration": 10, "velocity": 47}, {"time": 103141, "pitch": 69, "duration": 10, "velocity": 6}, {"time": 103202, "pitch": 35, "duration": 10, "velocity": 101}, {"time": 103202, "pitch": 42, "duration": 10, "velocity": 104}, {"time": 103202, "pitch": 69, "duration": 10, "velocity": 53}, {"time": 103261, "pitch": 42, "duration": 10, "velocity": 51}, {"time": 103321, "pitch": 42, "duration": 10, "velocity": 37}, {"time": 103321, "pitch": 69, "duration": 10, "velocity": 12}, {"time": 103381, "pitch": 42, "duration": 10, "velocity": 42}, {"time": 103381, "pitch": 69, "duration": 10, "velocity": 59}, {"time": 103441, "pitch": 42, "duration": 10, "velocity": 58}, {"time": 103441, "pitch": 69, "duration": 10, "velocity": 47}, {"time": 103561, "pitch": 42, "duration": 10, "velocity": 89}, {"time": 103561, "pitch": 69, "duration": 10, "velocity": 13}, {"time": 103680, "pitch": 37, "duration": 10, "velocity": 127}, {"time": 103680, "pitch": 42, "duration": 10, "velocity": 46}, {"time": 103680, "pitch": 69, "duration": 10, "velocity": 53}, {"time": 103680, "pitch": 70, "duration": 10, "velocity": 63}, {"time": 103740, "pitch": 69, "duration": 10, "velocity": 14}, {"time": 103740, "pitch": 70, "duration": 10, "velocity": 78}, {"time": 103800, "pitch": 42, "duration": 10, "velocity": 66}, {"time": 103800, "pitch": 69, "duration": 10, "velocity": 28}, {"time": 103800, "pitch": 70, "duration": 10, "velocity": 86}, {"time": 103860, "pitch": 69, "duration": 10, "velocity": 59}, {"time": 103860, "pitch": 70, "duration": 10, "velocity": 93}, {"time": 103920, "pitch": 35, "duration": 10, "velocity": 92}, {"time": 103920, "pitch": 46, "duration": 10, "velocity": 50}, {"time": 103920, "pitch": 69, "duration": 10, "velocity": 36}, {"time": 103920, "pitch": 70, "duration": 10, "velocity": 70}, {"time": 104040, "pitch": 69, "duration": 10, "velocity": 12}, {"time": 104099, "pitch": 69, "duration": 10, "velocity": 47}, {"time": 104159, "pitch": 35, "duration": 10, "velocity": 101}, {"time": 104159, "pitch": 42, "duration": 10, "velocity": 106}, {"time": 104159, "pitch": 69, "duration": 10, "velocity": 84}, {"time": 104279, "pitch": 42, "duration": 10, "velocity": 53}, {"time": 104399, "pitch": 42, "duration": 10, "velocity": 66}, {"time": 104399, "pitch": 69, "duration": 10, "velocity": 31}, {"time": 104459, "pitch": 69, "duration": 10, "velocity": 20}, {"time": 104518, "pitch": 42, "duration": 10, "velocity": 82}, {"time": 104518, "pitch": 69, "duration": 10, "velocity": 24}, {"time": 104578, "pitch": 69, "duration": 10, "velocity": 24}, {"time": 104638, "pitch": 37, "duration": 10, "velocity": 127}, {"time": 104638, "pitch": 42, "duration": 10, "velocity": 52}, {"time": 104638, "pitch": 69, "duration": 10, "velocity": 59}, {"time": 104759, "pitch": 42, "duration": 10, "velocity": 77}, {"time": 104759, "pitch": 69, "duration": 10, "velocity": 17}, {"time": 104820, "pitch": 69, "duration": 10, "velocity": 53}, {"time": 104880, "pitch": 42, "duration": 10, "velocity": 114}, {"time": 105001, "pitch": 35, "duration": 10, "velocity": 84}, {"time": 105001, "pitch": 42, "duration": 10, "velocity": 77}, {"time": 105001, "pitch": 69, "duration": 10, "velocity": 47}, {"time": 105061, "pitch": 69, "duration": 11, "velocity": 6}, {"time": 105122, "pitch": 42, "duration": 10, "velocity": 97}, {"time": 105122, "pitch": 69, "duration": 10, "velocity": 53}, {"time": 105242, "pitch": 42, "duration": 10, "velocity": 58}, {"time": 105242, "pitch": 69, "duration": 10, "velocity": 12}, {"time": 105301, "pitch": 69, "duration": 10, "velocity": 59}, {"time": 105361, "pitch": 35, "duration": 10, "velocity": 101}, {"time": 105361, "pitch": 42, "duration": 10, "velocity": 125}, {"time": 105361, "pitch": 69, "duration": 10, "velocity": 47}, {"time": 105481, "pitch": 42, "duration": 10, "velocity": 54}, {"time": 105481, "pitch": 69, "duration": 10, "velocity": 13}, {"time": 105601, "pitch": 37, "duration": 10, "velocity": 127}, {"time": 105601, "pitch": 42, "duration": 10, "velocity": 104}, {"time": 105601, "pitch": 69, "duration": 10, "velocity": 53}, {"time": 105661, "pitch": 42, "duration": 10, "velocity": 51}, {"time": 105661, "pitch": 69, "duration": 10, "velocity": 14}, {"time": 105720, "pitch": 42, "duration": 10, "velocity": 37}, {"time": 105720, "pitch": 69, "duration": 10, "velocity": 28}, {"time": 105780, "pitch": 42, "duration": 10, "velocity": 42}, {"time": 105780, "pitch": 69, "duration": 10, "velocity": 59}, {"time": 105840, "pitch": 42, "duration": 10, "velocity": 77}, {"time": 105840, "pitch": 69, "duration": 10, "velocity": 36}, {"time": 105960, "pitch": 46, "duration": 10, "velocity": 64}, {"time": 105960, "pitch": 69, "duration": 10, "velocity": 12}, {"time": 106020, "pitch": 69, "duration": 10, "velocity": 47}, {"time": 106080, "pitch": 35, "duration": 10, "velocity": 92}, {"time": 106080, "pitch": 42, "duration": 10, "velocity": 114}, {"time": 106080, "pitch": 69, "duration": 10, "velocity": 84}, {"time": 106199, "pitch": 42, "duration": 10, "velocity": 58}, {"time": 106319, "pitch": 35, "duration": 10, "velocity": 92}, {"time": 106319, "pitch": 42, "duration": 10, "velocity": 81}, {"time": 106319, "pitch": 69, "duration": 10, "velocity": 31}, {"time": 106379, "pitch": 69, "duration": 10, "velocity": 20}, {"time": 106439, "pitch": 42, "duration": 10, "velocity": 43}, {"time": 106439, "pitch": 69, "duration": 10, "velocity": 24}, {"time": 106499, "pitch": 69, "duration": 10, "velocity": 24}, {"time": 106558, "pitch": 37, "duration": 11, "velocity": 127}, {"time": 106558, "pitch": 42, "duration": 11, "velocity": 61}, {"time": 106558, "pitch": 69, "duration": 11, "velocity": 59}, {"time": 106679, "pitch": 42, "duration": 10, "velocity": 58}, {"time": 106679, "pitch": 69, "duration": 10, "velocity": 17}, {"time": 106740, "pitch": 69, "duration": 10, "velocity": 53}, {"time": 106800, "pitch": 42, "duration": 10, "velocity": 61}, {"time": 106921, "pitch": 42, "duration": 10, "velocity": 58}, {"time": 106921, "pitch": 69, "duration": 10, "velocity": 47}, {"time": 106982, "pitch": 69, "duration": 10, "velocity": 6}, {"time": 107042, "pitch": 35, "duration": 10, "velocity": 101}, {"time": 107042, "pitch": 42, "duration": 10, "velocity": 104}, {"time": 107042, "pitch": 69, "duration": 10, "velocity": 53}, {"time": 107102, "pitch": 42, "duration": 10, "velocity": 51}, {"time": 107162, "pitch": 42, "duration": 10, "velocity": 37}, {"time": 107162, "pitch": 69, "duration": 10, "velocity": 12}, {"time": 107222, "pitch": 42, "duration": 10, "velocity": 42}, {"time": 107222, "pitch": 69, "duration": 10, "velocity": 59}, {"time": 107282, "pitch": 42, "duration": 10, "velocity": 58}, {"time": 107282, "pitch": 69, "duration": 10, "velocity": 47}, {"time": 107401, "pitch": 42, "duration": 10, "velocity": 89}, {"time": 107401, "pitch": 69, "duration": 10, "velocity": 13}, {"time": 107521, "pitch": 37, "duration": 10, "velocity": 125}, {"time": 107521, "pitch": 42, "duration": 10, "velocity": 46}, {"time": 107521, "pitch": 69, "duration": 10, "velocity": 53}, {"time": 107521, "pitch": 70, "duration": 10, "velocity": 63}, {"time": 107581, "pitch": 69, "duration": 10, "velocity": 14}, {"time": 107581, "pitch": 70, "duration": 10, "velocity": 78}, {"time": 107641, "pitch": 42, "duration": 10, "velocity": 66}, {"time": 107641, "pitch": 69, "duration": 10, "velocity": 28}, {"time": 107641, "pitch": 70, "duration": 10, "velocity": 86}, {"time": 107701, "pitch": 69, "duration": 10, "velocity": 59}, {"time": 107701, "pitch": 70, "duration": 10, "velocity": 93}, {"time": 107761, "pitch": 35, "duration": 10, "velocity": 92}, {"time": 107761, "pitch": 46, "duration": 10, "velocity": 50}, {"time": 107761, "pitch": 69, "duration": 10, "velocity": 36}, {"time": 107761, "pitch": 70, "duration": 10, "velocity": 70}, {"time": 107880, "pitch": 69, "duration": 10, "velocity": 12}, {"time": 107940, "pitch": 69, "duration": 10, "velocity": 47}, {"time": 108000, "pitch": 35, "duration": 10, "velocity": 101}, {"time": 108000, "pitch": 42, "duration": 10, "velocity": 106}, {"time": 108000, "pitch": 69, "duration": 10, "velocity": 84}, {"time": 108120, "pitch": 42, "duration": 10, "velocity": 53}, {"time": 108239, "pitch": 42, "duration": 10, "velocity": 66}, {"time": 108239, "pitch": 69, "duration": 10, "velocity": 31}, {"time": 108299, "pitch": 69, "duration": 10, "velocity": 20}, {"time": 108359, "pitch": 42, "duration": 10, "velocity": 82}, {"time": 108359, "pitch": 69, "duration": 10, "velocity": 24}, {"time": 108419, "pitch": 69, "duration": 10, "velocity": 24}, {"time": 108479, "pitch": 37, "duration": 10, "velocity": 127}, {"time": 108479, "pitch": 42, "duration": 10, "velocity": 52}, {"time": 108479, "pitch": 69, "duration": 10, "velocity": 59}, {"time": 108599, "pitch": 42, "duration": 9, "velocity": 77}, {"time": 108599, "pitch": 69, "duration": 9, "velocity": 17}, {"time": 108658, "pitch": 69, "duration": 10, "velocity": 53}, {"time": 108718, "pitch": 42, "duration": 10, "velocity": 114}, {"time": 108838, "pitch": 35, "duration": 10, "velocity": 84}, {"time": 108838, "pitch": 42, "duration": 10, "velocity": 77}, {"time": 108838, "pitch": 69, "duration": 10, "velocity": 47}, {"time": 108898, "pitch": 69, "duration": 10, "velocity": 6}, {"time": 108958, "pitch": 42, "duration": 10, "velocity": 97}, {"time": 108958, "pitch": 69, "duration": 10, "velocity": 53}, {"time": 109079, "pitch": 42, "duration": 10, "velocity": 58}, {"time": 109079, "pitch": 69, "duration": 10, "velocity": 12}, {"time": 109139, "pitch": 69, "duration": 10, "velocity": 59}, {"time": 109200, "pitch": 35, "duration": 10, "velocity": 101}, {"time": 109200, "pitch": 42, "duration": 10, "velocity": 125}, {"time": 109200, "pitch": 69, "duration": 10, "velocity": 47}, {"time": 109321, "pitch": 42, "duration": 10, "velocity": 54}, {"time": 109321, "pitch": 69, "duration": 10, "velocity": 13}, {"time": 109441, "pitch": 37, "duration": 10, "velocity": 127}, {"time": 109441, "pitch": 42, "duration": 10, "velocity": 104}, {"time": 109441, "pitch": 69, "duration": 10, "velocity": 53}, {"time": 109501, "pitch": 42, "duration": 10, "velocity": 51}, {"time": 109501, "pitch": 69, "duration": 10, "velocity": 14}, {"time": 109561, "pitch": 42, "duration": 10, "velocity": 37}, {"time": 109561, "pitch": 69, "duration": 10, "velocity": 28}, {"time": 109621, "pitch": 42, "duration": 10, "velocity": 42}, {"time": 109621, "pitch": 69, "duration": 10, "velocity": 59}, {"time": 109681, "pitch": 42, "duration": 10, "velocity": 77}, {"time": 109681, "pitch": 69, "duration": 10, "velocity": 36}, {"time": 109801, "pitch": 46, "duration": 10, "velocity": 64}, {"time": 109801, "pitch": 69, "duration": 10, "velocity": 12}, {"time": 109860, "pitch": 69, "duration": 10, "velocity": 47}, {"time": 109920, "pitch": 35, "duration": 10, "velocity": 92}, {"time": 109920, "pitch": 42, "duration": 10, "velocity": 114}, {"time": 109920, "pitch": 69, "duration": 10, "velocity": 84}, {"time": 110040, "pitch": 42, "duration": 10, "velocity": 58}, {"time": 110160, "pitch": 35, "duration": 10, "velocity": 92}, {"time": 110160, "pitch": 42, "duration": 10, "velocity": 81}, {"time": 110160, "pitch": 69, "duration": 10, "velocity": 31}, {"time": 110220, "pitch": 69, "duration": 10, "velocity": 20}, {"time": 110279, "pitch": 42, "duration": 10, "velocity": 43}, {"time": 110279, "pitch": 69, "duration": 10, "velocity": 24}, {"time": 110339, "pitch": 69, "duration": 10, "velocity": 24}, {"time": 110399, "pitch": 37, "duration": 10, "velocity": 127}, {"time": 110399, "pitch": 42, "duration": 10, "velocity": 61}, {"time": 110399, "pitch": 69, "duration": 10, "velocity": 59}, {"time": 110519, "pitch": 42, "duration": 10, "velocity": 58}, {"time": 110519, "pitch": 69, "duration": 10, "velocity": 17}, {"time": 110579, "pitch": 69, "duration": 10, "velocity": 53}, {"time": 110639, "pitch": 42, "duration": 10, "velocity": 61}, {"time": 110758, "pitch": 42, "duration": 10, "velocity": 58}, {"time": 110758, "pitch": 69, "duration": 10, "velocity": 47}, {"time": 110818, "pitch": 69, "duration": 10, "velocity": 6}, {"time": 110878, "pitch": 35, "duration": 10, "velocity": 101}, {"time": 110878, "pitch": 42, "duration": 10, "velocity": 104}, {"time": 110878, "pitch": 69, "duration": 10, "velocity": 53}, {"time": 110938, "pitch": 42, "duration": 11, "velocity": 51}, {"time": 110999, "pitch": 42, "duration": 10, "velocity": 37}, {"time": 110999, "pitch": 69, "duration": 10, "velocity": 12}, {"time": 111059, "pitch": 42, "duration": 10, "velocity": 42}, {"time": 111059, "pitch": 69, "duration": 10, "velocity": 59}, {"time": 111120, "pitch": 42, "duration": 10, "velocity": 58}, {"time": 111120, "pitch": 69, "duration": 10, "velocity": 47}, {"time": 111241, "pitch": 42, "duration": 10, "velocity": 89}, {"time": 111241, "pitch": 69, "duration": 10, "velocity": 13}, {"time": 111362, "pitch": 37, "duration": 10, "velocity": 125}, {"time": 111362, "pitch": 42, "duration": 10, "velocity": 46}, {"time": 111362, "pitch": 69, "duration": 10, "velocity": 53}, {"time": 111362, "pitch": 70, "duration": 10, "velocity": 63}, {"time": 111422, "pitch": 69, "duration": 10, "velocity": 14}, {"time": 111422, "pitch": 70, "duration": 10, "velocity": 78}, {"time": 111482, "pitch": 42, "duration": 9, "velocity": 66}, {"time": 111482, "pitch": 69, "duration": 9, "velocity": 28}, {"time": 111482, "pitch": 70, "duration": 9, "velocity": 86}, {"time": 111541, "pitch": 69, "duration": 10, "velocity": 59}, {"time": 111541, "pitch": 70, "duration": 10, "velocity": 93}, {"time": 111601, "pitch": 35, "duration": 10, "velocity": 92}, {"time": 111601, "pitch": 46, "duration": 10, "velocity": 50}, {"time": 111601, "pitch": 69, "duration": 10, "velocity": 36}, {"time": 111601, "pitch": 70, "duration": 10, "velocity": 70}, {"time": 111721, "pitch": 69, "duration": 10, "velocity": 12}, {"time": 111781, "pitch": 69, "duration": 10, "velocity": 47}, {"time": 111841, "pitch": 35, "duration": 10, "velocity": 101}, {"time": 111841, "pitch": 42, "duration": 10, "velocity": 106}, {"time": 111841, "pitch": 69, "duration": 10, "velocity": 84}, {"time": 111960, "pitch": 42, "duration": 10, "velocity": 53}, {"time": 112080, "pitch": 42, "duration": 10, "velocity": 66}, {"time": 112080, "pitch": 69, "duration": 10, "velocity": 31}, {"time": 112140, "pitch": 69, "duration": 10, "velocity": 20}, {"time": 112200, "pitch": 42, "duration": 10, "velocity": 82}, {"time": 112200, "pitch": 69, "duration": 10, "velocity": 24}, {"time": 112260, "pitch": 69, "duration": 10, "velocity": 24}, {"time": 112319, "pitch": 37, "duration": 10, "velocity": 125}, {"time": 112319, "pitch": 42, "duration": 10, "velocity": 52}, {"time": 112319, "pitch": 69, "duration": 10, "velocity": 59}, {"time": 112439, "pitch": 42, "duration": 10, "velocity": 77}, {"time": 112439, "pitch": 69, "duration": 10, "velocity": 17}, {"time": 112499, "pitch": 69, "duration": 10, "velocity": 53}, {"time": 112559, "pitch": 42, "duration": 10, "velocity": 114}, {"time": 112679, "pitch": 35, "duration": 10, "velocity": 84}, {"time": 112679, "pitch": 42, "duration": 10, "velocity": 77}, {"time": 112679, "pitch": 69, "duration": 10, "velocity": 47}, {"time": 112738, "pitch": 69, "duration": 10, "velocity": 6}, {"time": 112798, "pitch": 42, "duration": 10, "velocity": 97}, {"time": 112798, "pitch": 69, "duration": 10, "velocity": 53}, {"time": 112919, "pitch": 42, "duration": 10, "velocity": 58}, {"time": 112919, "pitch": 69, "duration": 10, "velocity": 12}, {"time": 112980, "pitch": 69, "duration": 10, "velocity": 59}, {"time": 113040, "pitch": 35, "duration": 10, "velocity": 101}, {"time": 113040, "pitch": 42, "duration": 10, "velocity": 125}, {"time": 113040, "pitch": 69, "duration": 10, "velocity": 47}, {"time": 113161, "pitch": 42, "duration": 10, "velocity": 54}, {"time": 113161, "pitch": 69, "duration": 10, "velocity": 13}, {"time": 113282, "pitch": 37, "duration": 10, "velocity": 127}, {"time": 113282, "pitch": 42, "duration": 10, "velocity": 104}, {"time": 113282, "pitch": 69, "duration": 10, "velocity": 53}, {"time": 113342, "pitch": 42, "duration": 10, "velocity": 51}, {"time": 113342, "pitch": 69, "duration": 10, "velocity": 14}, {"time": 113402, "pitch": 42, "duration": 10, "velocity": 37}, {"time": 113402, "pitch": 69, "duration": 10, "velocity": 28}, {"time": 113462, "pitch": 42, "duration": 10, "velocity": 42}, {"time": 113462, "pitch": 69, "duration": 10, "velocity": 59}, {"time": 113522, "pitch": 42, "duration": 10, "velocity": 77}, {"time": 113522, "pitch": 69, "duration": 10, "velocity": 36}, {"time": 113641, "pitch": 46, "duration": 10, "velocity": 64}, {"time": 113641, "pitch": 69, "duration": 10, "velocity": 12}, {"time": 113701, "pitch": 69, "duration": 10, "velocity": 47}, {"time": 113761, "pitch": 35, "duration": 10, "velocity": 92}, {"time": 113761, "pitch": 42, "duration": 10, "velocity": 114}, {"time": 113761, "pitch": 69, "duration": 10, "velocity": 84}, {"time": 113881, "pitch": 42, "duration": 10, "velocity": 58}, {"time": 114000, "pitch": 35, "duration": 10, "velocity": 92}, {"time": 114000, "pitch": 42, "duration": 10, "velocity": 81}, {"time": 114000, "pitch": 69, "duration": 10, "velocity": 31}, {"time": 114060, "pitch": 69, "duration": 10, "velocity": 20}, {"time": 114120, "pitch": 42, "duration": 10, "velocity": 43}, {"time": 114120, "pitch": 69, "duration": 10, "velocity": 24}, {"time": 114180, "pitch": 69, "duration": 10, "velocity": 24}, {"time": 114240, "pitch": 37, "duration": 10, "velocity": 122}, {"time": 114240, "pitch": 42, "duration": 10, "velocity": 61}, {"time": 114240, "pitch": 69, "duration": 10, "velocity": 59}, {"time": 114360, "pitch": 42, "duration": 10, "velocity": 58}, {"time": 114360, "pitch": 69, "duration": 10, "velocity": 17}, {"time": 114419, "pitch": 69, "duration": 10, "velocity": 53}, {"time": 114479, "pitch": 42, "duration": 10, "velocity": 61}, {"time": 114599, "pitch": 42, "duration": 10, "velocity": 58}, {"time": 114599, "pitch": 69, "duration": 10, "velocity": 47}, {"time": 114659, "pitch": 69, "duration": 10, "velocity": 6}, {"time": 114719, "pitch": 35, "duration": 10, "velocity": 101}, {"time": 114719, "pitch": 42, "duration": 10, "velocity": 104}, {"time": 114719, "pitch": 69, "duration": 10, "velocity": 53}, {"time": 114779, "pitch": 42, "duration": 10, "velocity": 51}, {"time": 114838, "pitch": 42, "duration": 10, "velocity": 37}, {"time": 114838, "pitch": 69, "duration": 10, "velocity": 12}, {"time": 114898, "pitch": 42, "duration": 10, "velocity": 42}, {"time": 114898, "pitch": 69, "duration": 10, "velocity": 59}, {"time": 114958, "pitch": 42, "duration": 10, "velocity": 58}, {"time": 114958, "pitch": 69, "duration": 10, "velocity": 47}, {"time": 115078, "pitch": 42, "duration": 10, "velocity": 89}, {"time": 115078, "pitch": 69, "duration": 10, "velocity": 13}, {"time": 115198, "pitch": 37, "duration": 10, "velocity": 122}, {"time": 115198, "pitch": 42, "duration": 10, "velocity": 46}, {"time": 115198, "pitch": 69, "duration": 10, "velocity": 53}, {"time": 115198, "pitch": 70, "duration": 10, "velocity": 63}, {"time": 115258, "pitch": 69, "duration": 10, "velocity": 14}, {"time": 115258, "pitch": 70, "duration": 10, "velocity": 78}, {"time": 115318, "pitch": 42, "duration": 11, "velocity": 66}, {"time": 115318, "pitch": 69, "duration": 11, "velocity": 28}, {"time": 115318, "pitch": 70, "duration": 11, "velocity": 86}, {"time": 115379, "pitch": 69, "duration": 10, "velocity": 59}, {"time": 115379, "pitch": 70, "duration": 10, "velocity": 93}, {"time": 115439, "pitch": 35, "duration": 11, "velocity": 92}, {"time": 115439, "pitch": 46, "duration": 11, "velocity": 50}, {"time": 115439, "pitch": 69, "duration": 11, "velocity": 36}, {"time": 115439, "pitch": 70, "duration": 11, "velocity": 70}, {"time": 115560, "pitch": 69, "duration": 10, "velocity": 12}, {"time": 115621, "pitch": 69, "duration": 10, "velocity": 47}, {"time": 115681, "pitch": 35, "duration": 10, "velocity": 101}, {"time": 115681, "pitch": 42, "duration": 10, "velocity": 106}, {"time": 115681, "pitch": 69, "duration": 10, "velocity": 84}, {"time": 115801, "pitch": 42, "duration": 10, "velocity": 53}, {"time": 115921, "pitch": 42, "duration": 10, "velocity": 66}, {"time": 115921, "pitch": 69, "duration": 10, "velocity": 31}, {"time": 115981, "pitch": 69, "duration": 10, "velocity": 20}, {"time": 116040, "pitch": 42, "duration": 10, "velocity": 82}, {"time": 116040, "pitch": 69, "duration": 10, "velocity": 24}, {"time": 116100, "pitch": 69, "duration": 10, "velocity": 24}, {"time": 116160, "pitch": 37, "duration": 10, "velocity": 114}, {"time": 116160, "pitch": 42, "duration": 10, "velocity": 52}, {"time": 116160, "pitch": 69, "duration": 10, "velocity": 59}, {"time": 116280, "pitch": 42, "duration": 10, "velocity": 77}, {"time": 116280, "pitch": 69, "duration": 10, "velocity": 17}, {"time": 116340, "pitch": 69, "duration": 10, "velocity": 53}, {"time": 116400, "pitch": 42, "duration": 10, "velocity": 114}, {"time": 116519, "pitch": 35, "duration": 10, "velocity": 84}, {"time": 116519, "pitch": 42, "duration": 10, "velocity": 77}, {"time": 116519, "pitch": 69, "duration": 10, "velocity": 47}, {"time": 116579, "pitch": 69, "duration": 10, "velocity": 6}, {"time": 116639, "pitch": 42, "duration": 10, "velocity": 97}, {"time": 116639, "pitch": 69, "duration": 10, "velocity": 53}, {"time": 116759, "pitch": 42, "duration": 10, "velocity": 58}, {"time": 116759, "pitch": 69, "duration": 10, "velocity": 12}, {"time": 116819, "pitch": 69, "duration": 10, "velocity": 59}, {"time": 116878, "pitch": 35, "duration": 10, "velocity": 101}, {"time": 116878, "pitch": 42, "duration": 10, "velocity": 125}, {"time": 116878, "pitch": 69, "duration": 10, "velocity": 47}, {"time": 116998, "pitch": 42, "duration": 10, "velocity": 54}, {"time": 116998, "pitch": 69, "duration": 10, "velocity": 13}, {"time": 117118, "pitch": 37, "duration": 10, "velocity": 127}, {"time": 117118, "pitch": 42, "duration": 10, "velocity": 104}, {"time": 117118, "pitch": 69, "duration": 10, "velocity": 53}, {"time": 117178, "pitch": 42, "duration": 10, "velocity": 51}, {"time": 117178, "pitch": 69, "duration": 10, "velocity": 14}, {"time": 117239, "pitch": 42, "duration": 10, "velocity": 37}, {"time": 117239, "pitch": 69, "duration": 10, "velocity": 28}, {"time": 117299, "pitch": 42, "duration": 10, "velocity": 42}, {"time": 117299, "pitch": 69, "duration": 10, "velocity": 59}, {"time": 117360, "pitch": 42, "duration": 10, "velocity": 77}, {"time": 117360, "pitch": 69, "duration": 10, "velocity": 36}, {"time": 117481, "pitch": 46, "duration": 10, "velocity": 64}, {"time": 117481, "pitch": 69, "duration": 10, "velocity": 12}, {"time": 117541, "pitch": 69, "duration": 10, "velocity": 47}, {"time": 117602, "pitch": 35, "duration": 10, "velocity": 92}, {"time": 117602, "pitch": 42, "duration": 10, "velocity": 114}, {"time": 117602, "pitch": 69, "duration": 10, "velocity": 84}, {"time": 117721, "pitch": 42, "duration": 10, "velocity": 58}, {"time": 117841, "pitch": 35, "duration": 10, "velocity": 92}, {"time": 117841, "pitch": 42, "duration": 10, "velocity": 81}, {"time": 117841, "pitch": 69, "duration": 10, "velocity": 31}, {"time": 117901, "pitch": 69, "duration": 10, "velocity": 20}, {"time": 117961, "pitch": 42, "duration": 10, "velocity": 43}, {"time": 117961, "pitch": 69, "duration": 10, "velocity": 24}, {"time": 118021, "pitch": 69, "duration": 10, "velocity": 24}, {"time": 118081, "pitch": 37, "duration": 10, "velocity": 127}, {"time": 118081, "pitch": 42, "duration": 10, "velocity": 61}, {"time": 118081, "pitch": 69, "duration": 10, "velocity": 59}, {"time": 118200, "pitch": 42, "duration": 10, "velocity": 58}, {"time": 118200, "pitch": 69, "duration": 10, "velocity": 17}, {"time": 118260, "pitch": 69, "duration": 10, "velocity": 53}, {"time": 118320, "pitch": 42, "duration": 10, "velocity": 61}, {"time": 118440, "pitch": 42, "duration": 10, "velocity": 58}, {"time": 118440, "pitch": 69, "duration": 10, "velocity": 47}, {"time": 118500, "pitch": 69, "duration": 10, "velocity": 6}, {"time": 118559, "pitch": 35, "duration": 10, "velocity": 101}, {"time": 118559, "pitch": 42, "duration": 10, "velocity": 104}, {"time": 118559, "pitch": 69, "duration": 10, "velocity": 53}, {"time": 118619, "pitch": 42, "duration": 10, "velocity": 51}, {"time": 118679, "pitch": 42, "duration": 10, "velocity": 37}, {"time": 118679, "pitch": 69, "duration": 10, "velocity": 12}, {"time": 118739, "pitch": 42, "duration": 10, "velocity": 42}, {"time": 118739, "pitch": 69, "duration": 10, "velocity": 59}, {"time": 118799, "pitch": 42, "duration": 10, "velocity": 58}, {"time": 118799, "pitch": 69, "duration": 10, "velocity": 47}, {"time": 118919, "pitch": 42, "duration": 9, "velocity": 89}, {"time": 118919, "pitch": 69, "duration": 9, "velocity": 13}, {"time": 119038, "pitch": 37, "duration": 10, "velocity": 127}, {"time": 119038, "pitch": 42, "duration": 10, "velocity": 46}, {"time": 119038, "pitch": 69, "duration": 10, "velocity": 53}, {"time": 119038, "pitch": 70, "duration": 10, "velocity": 63}, {"time": 119099, "pitch": 69, "duration": 10, "velocity": 14}, {"time": 119099, "pitch": 70, "duration": 10, "velocity": 78}, {"time": 119159, "pitch": 42, "duration": 10, "velocity": 66}, {"time": 119159, "pitch": 69, "duration": 10, "velocity": 28}, {"time": 119159, "pitch": 70, "duration": 10, "velocity": 86}, {"time": 119220, "pitch": 69, "duration": 10, "velocity": 59}, {"time": 119220, "pitch": 70, "duration": 10, "velocity": 93}, {"time": 119280, "pitch": 35, "duration": 10, "velocity": 92}, {"time": 119280, "pitch": 46, "duration": 10, "velocity": 50}, {"time": 119280, "pitch": 69, "duration": 10, "velocity": 36}, {"time": 119280, "pitch": 70, "duration": 10, "velocity": 70}, {"time": 119401, "pitch": 69, "duration": 10, "velocity": 12}, {"time": 119462, "pitch": 69, "duration": 10, "velocity": 47}, {"time": 119522, "pitch": 35, "duration": 10, "velocity": 101}, {"time": 119522, "pitch": 42, "duration": 10, "velocity": 106}, {"time": 119522, "pitch": 69, "duration": 10, "velocity": 84}, {"time": 119642, "pitch": 42, "duration": 10, "velocity": 53}, {"time": 119761, "pitch": 42, "duration": 10, "velocity": 66}, {"time": 119761, "pitch": 69, "duration": 10, "velocity": 31}, {"time": 119821, "pitch": 69, "duration": 10, "velocity": 20}, {"time": 119881, "pitch": 42, "duration": 10, "velocity": 82}, {"time": 119881, "pitch": 69, "duration": 10, "velocity": 24}, {"time": 119941, "pitch": 69, "duration": 10, "velocity": 24}, {"time": 120001, "pitch": 37, "duration": 10, "velocity": 125}, {"time": 120001, "pitch": 42, "duration": 10, "velocity": 52}, {"time": 120001, "pitch": 69, "duration": 10, "velocity": 59}, {"time": 120121, "pitch": 42, "duration": 10, "velocity": 77}, {"time": 120121, "pitch": 69, "duration": 10, "velocity": 17}, {"time": 120180, "pitch": 69, "duration": 10, "velocity": 53}, {"time": 120240, "pitch": 42, "duration": 10, "velocity": 114}, {"time": 120360, "pitch": 35, "duration": 10, "velocity": 84}, {"time": 120360, "pitch": 42, "duration": 10, "velocity": 77}, {"time": 120360, "pitch": 69, "duration": 10, "velocity": 47}, {"time": 120420, "pitch": 69, "duration": 10, "velocity": 6}, {"time": 120480, "pitch": 42, "duration": 10, "velocity": 97}, {"time": 120480, "pitch": 69, "duration": 10, "velocity": 53}, {"time": 120599, "pitch": 42, "duration": 10, "velocity": 58}, {"time": 120599, "pitch": 69, "duration": 10, "velocity": 12}, {"time": 120659, "pitch": 69, "duration": 10, "velocity": 59}, {"time": 120719, "pitch": 35, "duration": 10, "velocity": 101}, {"time": 120719, "pitch": 42, "duration": 10, "velocity": 125}, {"time": 120719, "pitch": 69, "duration": 10, "velocity": 47}, {"time": 120839, "pitch": 42, "duration": 10, "velocity": 54}, {"time": 120839, "pitch": 69, "duration": 10, "velocity": 13}, {"time": 120959, "pitch": 37, "duration": 10, "velocity": 127}, {"time": 120959, "pitch": 42, "duration": 10, "velocity": 104}, {"time": 120959, "pitch": 69, "duration": 10, "velocity": 53}, {"time": 121019, "pitch": 42, "duration": 10, "velocity": 51}, {"time": 121019, "pitch": 69, "duration": 10, "velocity": 14}, {"time": 121080, "pitch": 42, "duration": 10, "velocity": 37}, {"time": 121080, "pitch": 69, "duration": 10, "velocity": 28}, {"time": 121140, "pitch": 42, "duration": 10, "velocity": 42}, {"time": 121140, "pitch": 69, "duration": 10, "velocity": 59}, {"time": 121200, "pitch": 42, "duration": 11, "velocity": 77}, {"time": 121200, "pitch": 69, "duration": 11, "velocity": 36}, {"time": 121321, "pitch": 46, "duration": 11, "velocity": 64}, {"time": 121321, "pitch": 69, "duration": 11, "velocity": 12}, {"time": 121382, "pitch": 69, "duration": 10, "velocity": 47}, {"time": 121442, "pitch": 35, "duration": 10, "velocity": 92}, {"time": 121442, "pitch": 42, "duration": 10, "velocity": 114}, {"time": 121442, "pitch": 69, "duration": 10, "velocity": 84}, {"time": 121562, "pitch": 42, "duration": 10, "velocity": 58}, {"time": 121682, "pitch": 35, "duration": 10, "velocity": 92}, {"time": 121682, "pitch": 42, "duration": 10, "velocity": 81}, {"time": 121682, "pitch": 69, "duration": 10, "velocity": 31}, {"time": 121742, "pitch": 69, "duration": 10, "velocity": 20}, {"time": 121802, "pitch": 42, "duration": 9, "velocity": 43}, {"time": 121802, "pitch": 69, "duration": 9, "velocity": 24}, {"time": 121861, "pitch": 69, "duration": 10, "velocity": 24}, {"time": 121921, "pitch": 37, "duration": 10, "velocity": 127}, {"time": 121921, "pitch": 42, "duration": 10, "velocity": 61}, {"time": 121921, "pitch": 69, "duration": 10, "velocity": 59}, {"time": 122041, "pitch": 42, "duration": 10, "velocity": 58}, {"time": 122041, "pitch": 69, "duration": 10, "velocity": 17}, {"time": 122101, "pitch": 69, "duration": 10, "velocity": 53}, {"time": 122161, "pitch": 42, "duration": 10, "velocity": 61}, {"time": 122280, "pitch": 42, "duration": 10, "velocity": 58}, {"time": 122280, "pitch": 69, "duration": 10, "velocity": 47}, {"time": 122340, "pitch": 69, "duration": 10, "velocity": 6}, {"time": 122400, "pitch": 35, "duration": 10, "velocity": 101}, {"time": 122400, "pitch": 42, "duration": 10, "velocity": 104}, {"time": 122400, "pitch": 69, "duration": 10, "velocity": 53}, {"time": 122460, "pitch": 42, "duration": 10, "velocity": 51}, {"time": 122520, "pitch": 42, "duration": 10, "velocity": 37}, {"time": 122520, "pitch": 69, "duration": 10, "velocity": 12}, {"time": 122580, "pitch": 42, "duration": 10, "velocity": 42}, {"time": 122580, "pitch": 69, "duration": 10, "velocity": 59}, {"time": 122639, "pitch": 42, "duration": 10, "velocity": 58}, {"time": 122639, "pitch": 69, "duration": 10, "velocity": 47}, {"time": 122759, "pitch": 42, "duration": 10, "velocity": 89}, {"time": 122759, "pitch": 69, "duration": 10, "velocity": 13}, {"time": 122879, "pitch": 37, "duration": 10, "velocity": 125}, {"time": 122879, "pitch": 42, "duration": 10, "velocity": 46}, {"time": 122879, "pitch": 69, "duration": 10, "velocity": 53}, {"time": 122879, "pitch": 70, "duration": 10, "velocity": 63}, {"time": 122939, "pitch": 69, "duration": 10, "velocity": 14}, {"time": 122939, "pitch": 70, "duration": 10, "velocity": 78}, {"time": 122999, "pitch": 42, "duration": 10, "velocity": 66}, {"time": 122999, "pitch": 69, "duration": 10, "velocity": 28}, {"time": 122999, "pitch": 70, "duration": 10, "velocity": 86}, {"time": 123058, "pitch": 69, "duration": 10, "velocity": 59}, {"time": 123058, "pitch": 70, "duration": 10, "velocity": 93}, {"time": 123118, "pitch": 35, "duration": 10, "velocity": 92}, {"time": 123118, "pitch": 38, "duration": 10, "velocity": 105}, {"time": 123118, "pitch": 46, "duration": 10, "velocity": 50}, {"time": 123118, "pitch": 69, "duration": 10, "velocity": 36}, {"time": 123118, "pitch": 70, "duration": 10, "velocity": 70}, {"time": 123238, "pitch": 38, "duration": 10, "velocity": 75}, {"time": 123238, "pitch": 69, "duration": 10, "velocity": 12}, {"time": 123298, "pitch": 69, "duration": 10, "velocity": 47}, {"time": 123358, "pitch": 35, "duration": 10, "velocity": 101}, {"time": 123358, "pitch": 36, "duration": 10, "velocity": 75}, {"time": 123358, "pitch": 42, "duration": 10, "velocity": 106}, {"time": 123358, "pitch": 57, "duration": 10, "velocity": 78}, {"time": 123358, "pitch": 69, "duration": 10, "velocity": 84}, {"time": 123479, "pitch": 42, "duration": 10, "velocity": 53}, {"time": 123600, "pitch": 42, "duration": 10, "velocity": 66}, {"time": 123600, "pitch": 69, "duration": 10, "velocity": 31}, {"time": 123660, "pitch": 69, "duration": 10, "velocity": 20}, {"time": 123721, "pitch": 36, "duration": 10, "velocity": 67}, {"time": 123721, "pitch": 42, "duration": 10, "velocity": 82}, {"time": 123721, "pitch": 69, "duration": 10, "velocity": 24}, {"time": 123781, "pitch": 69, "duration": 10, "velocity": 24}, {"time": 123842, "pitch": 38, "duration": 10, "velocity": 109}, {"time": 123842, "pitch": 42, "duration": 10, "velocity": 52}, {"time": 123842, "pitch": 69, "duration": 10, "velocity": 59}, {"time": 123961, "pitch": 42, "duration": 10, "velocity": 77}, {"time": 123961, "pitch": 69, "duration": 10, "velocity": 17}, {"time": 124021, "pitch": 69, "duration": 10, "velocity": 53}, {"time": 124081, "pitch": 42, "duration": 10, "velocity": 114}, {"time": 124201, "pitch": 35, "duration": 10, "velocity": 84}, {"time": 124201, "pitch": 42, "duration": 10, "velocity": 77}, {"time": 124201, "pitch": 69, "duration": 10, "velocity": 47}, {"time": 124261, "pitch": 69, "duration": 10, "velocity": 6}, {"time": 124320, "pitch": 42, "duration": 10, "velocity": 97}, {"time": 124320, "pitch": 69, "duration": 10, "velocity": 53}, {"time": 124440, "pitch": 42, "duration": 10, "velocity": 58}, {"time": 124440, "pitch": 69, "duration": 10, "velocity": 12}, {"time": 124500, "pitch": 69, "duration": 10, "velocity": 59}, {"time": 124560, "pitch": 35, "duration": 10, "velocity": 101}, {"time": 124560, "pitch": 42, "duration": 10, "velocity": 125}, {"time": 124560, "pitch": 69, "duration": 10, "velocity": 47}, {"time": 124680, "pitch": 42, "duration": 10, "velocity": 54}, {"time": 124680, "pitch": 69, "duration": 10, "velocity": 13}, {"time": 124799, "pitch": 38, "duration": 10, "velocity": 120}, {"time": 124799, "pitch": 42, "duration": 10, "velocity": 104}, {"time": 124799, "pitch": 69, "duration": 10, "velocity": 53}, {"time": 124859, "pitch": 42, "duration": 10, "velocity": 51}, {"time": 124859, "pitch": 69, "duration": 10, "velocity": 14}, {"time": 124919, "pitch": 42, "duration": 10, "velocity": 37}, {"time": 124919, "pitch": 69, "duration": 10, "velocity": 28}, {"time": 124979, "pitch": 42, "duration": 10, "velocity": 42}, {"time": 124979, "pitch": 69, "duration": 10, "velocity": 59}, {"time": 125039, "pitch": 42, "duration": 10, "velocity": 77}, {"time": 125039, "pitch": 69, "duration": 10, "velocity": 36}, {"time": 125158, "pitch": 46, "duration": 10, "velocity": 64}, {"time": 125158, "pitch": 69, "duration": 10, "velocity": 12}, {"time": 125218, "pitch": 69, "duration": 10, "velocity": 47}, {"time": 125278, "pitch": 35, "duration": 10, "velocity": 92}, {"time": 125278, "pitch": 36, "duration": 10, "velocity": 64}, {"time": 125278, "pitch": 42, "duration": 10, "velocity": 114}, {"time": 125278, "pitch": 69, "duration": 10, "velocity": 84}, {"time": 125399, "pitch": 42, "duration": 10, "velocity": 58}, {"time": 125520, "pitch": 35, "duration": 10, "velocity": 92}, {"time": 125520, "pitch": 42, "duration": 10, "velocity": 81}, {"time": 125520, "pitch": 69, "duration": 10, "velocity": 31}, {"time": 125580, "pitch": 69, "duration": 11, "velocity": 20}, {"time": 125641, "pitch": 36, "duration": 10, "velocity": 67}, {"time": 125641, "pitch": 42, "duration": 10, "velocity": 43}, {"time": 125641, "pitch": 69, "duration": 10, "velocity": 24}, {"time": 125701, "pitch": 69, "duration": 11, "velocity": 24}, {"time": 125762, "pitch": 38, "duration": 10, "velocity": 120}, {"time": 125762, "pitch": 42, "duration": 10, "velocity": 61}, {"time": 125762, "pitch": 69, "duration": 10, "velocity": 59}, {"time": 125882, "pitch": 36, "duration": 10, "velocity": 65}, {"time": 125882, "pitch": 42, "duration": 10, "velocity": 58}, {"time": 125882, "pitch": 69, "duration": 10, "velocity": 17}, {"time": 125941, "pitch": 69, "duration": 10, "velocity": 53}, {"time": 126001, "pitch": 42, "duration": 10, "velocity": 61}, {"time": 126121, "pitch": 42, "duration": 10, "velocity": 58}, {"time": 126121, "pitch": 69, "duration": 10, "velocity": 47}, {"time": 126181, "pitch": 69, "duration": 10, "velocity": 6}, {"time": 126241, "pitch": 35, "duration": 10, "velocity": 101}, {"time": 126241, "pitch": 42, "duration": 10, "velocity": 104}, {"time": 126241, "pitch": 69, "duration": 10, "velocity": 53}, {"time": 126301, "pitch": 42, "duration": 10, "velocity": 51}, {"time": 126360, "pitch": 42, "duration": 10, "velocity": 37}, {"time": 126360, "pitch": 69, "duration": 10, "velocity": 12}, {"time": 126420, "pitch": 42, "duration": 10, "velocity": 42}, {"time": 126420, "pitch": 69, "duration": 10, "velocity": 59}, {"time": 126480, "pitch": 42, "duration": 10, "velocity": 58}, {"time": 126480, "pitch": 69, "duration": 10, "velocity": 47}, {"time": 126600, "pitch": 42, "duration": 10, "velocity": 89}, {"time": 126600, "pitch": 69, "duration": 10, "velocity": 13}, {"time": 126720, "pitch": 38, "duration": 10, "velocity": 120}, {"time": 126720, "pitch": 42, "duration": 10, "velocity": 46}, {"time": 126720, "pitch": 69, "duration": 10, "velocity": 53}, {"time": 126720, "pitch": 70, "duration": 10, "velocity": 63}, {"time": 126779, "pitch": 69, "duration": 10, "velocity": 14}, {"time": 126779, "pitch": 70, "duration": 10, "velocity": 78}, {"time": 126839, "pitch": 42, "duration": 10, "velocity": 66}, {"time": 126839, "pitch": 69, "duration": 10, "velocity": 28}, {"time": 126839, "pitch": 70, "duration": 10, "velocity": 86}, {"time": 126899, "pitch": 69, "duration": 10, "velocity": 59}, {"time": 126899, "pitch": 70, "duration": 10, "velocity": 93}, {"time": 126959, "pitch": 35, "duration": 10, "velocity": 92}, {"time": 126959, "pitch": 46, "duration": 10, "velocity": 50}, {"time": 126959, "pitch": 69, "duration": 10, "velocity": 36}, {"time": 126959, "pitch": 70, "duration": 10, "velocity": 70}, {"time": 127079, "pitch": 69, "duration": 10, "velocity": 12}, {"time": 127139, "pitch": 69, "duration": 10, "velocity": 47}, {"time": 127198, "pitch": 35, "duration": 11, "velocity": 101}, {"time": 127198, "pitch": 36, "duration": 11, "velocity": 75}, {"time": 127198, "pitch": 42, "duration": 11, "velocity": 106}, {"time": 127198, "pitch": 49, "duration": 11, "velocity": 66}, {"time": 127198, "pitch": 69, "duration": 11, "velocity": 84}, {"time": 127319, "pitch": 42, "duration": 10, "velocity": 53}, {"time": 127440, "pitch": 42, "duration": 10, "velocity": 66}, {"time": 127440, "pitch": 69, "duration": 10, "velocity": 31}, {"time": 127501, "pitch": 69, "duration": 10, "velocity": 20}, {"time": 127561, "pitch": 36, "duration": 10, "velocity": 67}, {"time": 127561, "pitch": 38, "duration": 10, "velocity": 109}, {"time": 127561, "pitch": 42, "duration": 10, "velocity": 82}, {"time": 127561, "pitch": 69, "duration": 10, "velocity": 24}, {"time": 127622, "pitch": 69, "duration": 10, "velocity": 24}, {"time": 127682, "pitch": 42, "duration": 10, "velocity": 52}, {"time": 127682, "pitch": 69, "duration": 10, "velocity": 59}, {"time": 127802, "pitch": 42, "duration": 10, "velocity": 77}, {"time": 127802, "pitch": 69, "duration": 10, "velocity": 17}, {"time": 127862, "pitch": 69, "duration": 10, "velocity": 53}, {"time": 127922, "pitch": 38, "duration": 10, "velocity": 113}, {"time": 127922, "pitch": 42, "duration": 10, "velocity": 114}, {"time": 128041, "pitch": 35, "duration": 10, "velocity": 84}, {"time": 128041, "pitch": 42, "duration": 10, "velocity": 77}, {"time": 128041, "pitch": 69, "duration": 10, "velocity": 47}, {"time": 128101, "pitch": 69, "duration": 10, "velocity": 6}, {"time": 128161, "pitch": 42, "duration": 10, "velocity": 97}, {"time": 128161, "pitch": 69, "duration": 10, "velocity": 53}, {"time": 128281, "pitch": 38, "duration": 10, "velocity": 109}, {"time": 128281, "pitch": 42, "duration": 10, "velocity": 58}, {"time": 128281, "pitch": 69, "duration": 10, "velocity": 12}, {"time": 128341, "pitch": 69, "duration": 10, "velocity": 59}, {"time": 128401, "pitch": 35, "duration": 10, "velocity": 101}, {"time": 128401, "pitch": 42, "duration": 10, "velocity": 125}, {"time": 128401, "pitch": 69, "duration": 10, "velocity": 47}, {"time": 128520, "pitch": 42, "duration": 10, "velocity": 54}, {"time": 128520, "pitch": 69, "duration": 10, "velocity": 13}, {"time": 128640, "pitch": 42, "duration": 10, "velocity": 104}, {"time": 128640, "pitch": 69, "duration": 10, "velocity": 53}, {"time": 128700, "pitch": 42, "duration": 10, "velocity": 51}, {"time": 128700, "pitch": 69, "duration": 10, "velocity": 14}, {"time": 128760, "pitch": 42, "duration": 10, "velocity": 37}, {"time": 128760, "pitch": 48, "duration": 10, "velocity": 83}, {"time": 128760, "pitch": 69, "duration": 10, "velocity": 28}, {"time": 128820, "pitch": 42, "duration": 10, "velocity": 42}, {"time": 128820, "pitch": 69, "duration": 10, "velocity": 59}, {"time": 128879, "pitch": 42, "duration": 10, "velocity": 77}, {"time": 128879, "pitch": 45, "duration": 10, "velocity": 89}, {"time": 128879, "pitch": 69, "duration": 10, "velocity": 36}, {"time": 128999, "pitch": 41, "duration": 10, "velocity": 71}, {"time": 128999, "pitch": 46, "duration": 10, "velocity": 64}, {"time": 128999, "pitch": 69, "duration": 10, "velocity": 12}, {"time": 129059, "pitch": 69, "duration": 10, "velocity": 47}, {"time": 129119, "pitch": 35, "duration": 10, "velocity": 92}, {"time": 129119, "pitch": 36, "duration": 10, "velocity": 64}, {"time": 129119, "pitch": 42, "duration": 10, "velocity": 114}, {"time": 129119, "pitch": 57, "duration": 10, "velocity": 96}, {"time": 129119, "pitch": 69, "duration": 10, "velocity": 84}, {"time": 129239, "pitch": 42, "duration": 10, "velocity": 58}, {"time": 129358, "pitch": 35, "duration": 10, "velocity": 92}, {"time": 129358, "pitch": 42, "duration": 10, "velocity": 81}, {"time": 129358, "pitch": 69, "duration": 10, "velocity": 31}, {"time": 129418, "pitch": 69, "duration": 10, "velocity": 20}, {"time": 129478, "pitch": 36, "duration": 10, "velocity": 67}, {"time": 129478, "pitch": 38, "duration": 10, "velocity": 109}, {"time": 129478, "pitch": 42, "duration": 10, "velocity": 43}, {"time": 129478, "pitch": 69, "duration": 10, "velocity": 24}, {"time": 129538, "pitch": 69, "duration": 10, "velocity": 24}, {"time": 129598, "pitch": 42, "duration": 10, "velocity": 61}, {"time": 129598, "pitch": 69, "duration": 10, "velocity": 59}, {"time": 129719, "pitch": 36, "duration": 10, "velocity": 65}, {"time": 129719, "pitch": 42, "duration": 10, "velocity": 58}, {"time": 129719, "pitch": 69, "duration": 10, "velocity": 17}, {"time": 129779, "pitch": 69, "duration": 10, "velocity": 53}, {"time": 129840, "pitch": 38, "duration": 10, "velocity": 122}, {"time": 129840, "pitch": 42, "duration": 10, "velocity": 61}, {"time": 129961, "pitch": 38, "duration": 10, "velocity": 92}, {"time": 129961, "pitch": 42, "duration": 10, "velocity": 58}, {"time": 129961, "pitch": 69, "duration": 10, "velocity": 47}, {"time": 130021, "pitch": 69, "duration": 10, "velocity": 6}, {"time": 130081, "pitch": 35, "duration": 10, "velocity": 101}, {"time": 130081, "pitch": 42, "duration": 10, "velocity": 104}, {"time": 130081, "pitch": 69, "duration": 10, "velocity": 53}, {"time": 130141, "pitch": 42, "duration": 10, "velocity": 51}, {"time": 130201, "pitch": 38, "duration": 10, "velocity": 117}, {"time": 130201, "pitch": 42, "duration": 10, "velocity": 37}, {"time": 130201, "pitch": 69, "duration": 10, "velocity": 12}, {"time": 130261, "pitch": 42, "duration": 10, "velocity": 42}, {"time": 130261, "pitch": 69, "duration": 10, "velocity": 59}, {"time": 130321, "pitch": 42, "duration": 10, "velocity": 58}, {"time": 130321, "pitch": 69, "duration": 10, "velocity": 47}, {"time": 130441, "pitch": 42, "duration": 10, "velocity": 89}, {"time": 130441, "pitch": 48, "duration": 10, "velocity": 80}, {"time": 130441, "pitch": 69, "duration": 10, "velocity": 13}, {"time": 130560, "pitch": 38, "duration": 10, "velocity": 122}, {"time": 130560, "pitch": 42, "duration": 10, "velocity": 46}, {"time": 130560, "pitch": 69, "duration": 10, "velocity": 53}, {"time": 130560, "pitch": 70, "duration": 10, "velocity": 63}, {"time": 130620, "pitch": 69, "duration": 10, "velocity": 14}, {"time": 130620, "pitch": 70, "duration": 10, "velocity": 78}, {"time": 130680, "pitch": 42, "duration": 10, "velocity": 66}, {"time": 130680, "pitch": 69, "duration": 10, "velocity": 28}, {"time": 130680, "pitch": 70, "duration": 10, "velocity": 86}, {"time": 130740, "pitch": 69, "duration": 10, "velocity": 59}, {"time": 130740, "pitch": 70, "duration": 10, "velocity": 93}, {"time": 130800, "pitch": 35, "duration": 10, "velocity": 92}, {"time": 130800, "pitch": 40, "duration": 10, "velocity": 109}, {"time": 130800, "pitch": 41, "duration": 10, "velocity": 84}, {"time": 130800, "pitch": 46, "duration": 10, "velocity": 50}, {"time": 130800, "pitch": 69, "duration": 10, "velocity": 36}, {"time": 130800, "pitch": 70, "duration": 10, "velocity": 70}, {"time": 130919, "pitch": 69, "duration": 10, "velocity": 12}, {"time": 130979, "pitch": 69, "duration": 10, "velocity": 47}, {"time": 131039, "pitch": 35, "duration": 10, "velocity": 101}, {"time": 131039, "pitch": 36, "duration": 10, "velocity": 75}, {"time": 131039, "pitch": 42, "duration": 10, "velocity": 106}, {"time": 131039, "pitch": 49, "duration": 10, "velocity": 66}, {"time": 131039, "pitch": 54, "duration": 10, "velocity": 67}, {"time": 131039, "pitch": 69, "duration": 10, "velocity": 84}, {"time": 131099, "pitch": 54, "duration": 10, "velocity": 50}, {"time": 131159, "pitch": 42, "duration": 10, "velocity": 53}, {"time": 131159, "pitch": 54, "duration": 10, "velocity": 44}, {"time": 131219, "pitch": 54, "duration": 10, "velocity": 42}, {"time": 131279, "pitch": 42, "duration": 10, "velocity": 66}, {"time": 131279, "pitch": 54, "duration": 10, "velocity": 58}, {"time": 131279, "pitch": 69, "duration": 10, "velocity": 31}, {"time": 131338, "pitch": 69, "duration": 10, "velocity": 20}, {"time": 131398, "pitch": 36, "duration": 10, "velocity": 67}, {"time": 131398, "pitch": 42, "duration": 10, "velocity": 82}, {"time": 131398, "pitch": 54, "duration": 10, "velocity": 54}, {"time": 131398, "pitch": 69, "duration": 10, "velocity": 24}, {"time": 131458, "pitch": 69, "duration": 10, "velocity": 24}, {"time": 131518, "pitch": 38, "duration": 10, "velocity": 109}, {"time": 131518, "pitch": 42, "duration": 10, "velocity": 52}, {"time": 131518, "pitch": 54, "duration": 10, "velocity": 89}, {"time": 131518, "pitch": 69, "duration": 10, "velocity": 59}, {"time": 131639, "pitch": 42, "duration": 10, "velocity": 77}, {"time": 131639, "pitch": 54, "duration": 10, "velocity": 51}, {"time": 131639, "pitch": 69, "duration": 10, "velocity": 17}, {"time": 131699, "pitch": 69, "duration": 11, "velocity": 53}, {"time": 131760, "pitch": 42, "duration": 10, "velocity": 114}, {"time": 131760, "pitch": 54, "duration": 10, "velocity": 38}, {"time": 131881, "pitch": 35, "duration": 10, "velocity": 84}, {"time": 131881, "pitch": 42, "duration": 10, "velocity": 77}, {"time": 131881, "pitch": 54, "duration": 10, "velocity": 42}, {"time": 131881, "pitch": 69, "duration": 10, "velocity": 47}, {"time": 131941, "pitch": 69, "duration": 10, "velocity": 6}, {"time": 132002, "pitch": 42, "duration": 10, "velocity": 97}, {"time": 132002, "pitch": 54, "duration": 10, "velocity": 43}, {"time": 132002, "pitch": 69, "duration": 10, "velocity": 53}, {"time": 132062, "pitch": 54, "duration": 10, "velocity": 42}, {"time": 132122, "pitch": 42, "duration": 9, "velocity": 58}, {"time": 132122, "pitch": 54, "duration": 9, "velocity": 54}, {"time": 132122, "pitch": 69, "duration": 9, "velocity": 12}, {"time": 132181, "pitch": 69, "duration": 10, "velocity": 59}, {"time": 132241, "pitch": 35, "duration": 10, "velocity": 101}, {"time": 132241, "pitch": 42, "duration": 10, "velocity": 125}, {"time": 132241, "pitch": 54, "duration": 10, "velocity": 47}, {"time": 132241, "pitch": 69, "duration": 10, "velocity": 47}, {"time": 132361, "pitch": 42, "duration": 10, "velocity": 54}, {"time": 132361, "pitch": 54, "duration": 10, "velocity": 49}, {"time": 132361, "pitch": 69, "duration": 10, "velocity": 13}, {"time": 132481, "pitch": 38, "duration": 10, "velocity": 117}, {"time": 132481, "pitch": 42, "duration": 10, "velocity": 104}, {"time": 132481, "pitch": 54, "duration": 10, "velocity": 71}, {"time": 132481, "pitch": 69, "duration": 10, "velocity": 53}, {"time": 132541, "pitch": 42, "duration": 9, "velocity": 51}, {"time": 132541, "pitch": 54, "duration": 9, "velocity": 44}, {"time": 132541, "pitch": 69, "duration": 9, "velocity": 14}, {"time": 132600, "pitch": 42, "duration": 10, "velocity": 37}, {"time": 132600, "pitch": 54, "duration": 10, "velocity": 48}, {"time": 132600, "pitch": 69, "duration": 10, "velocity": 28}, {"time": 132660, "pitch": 42, "duration": 10, "velocity": 42}, {"time": 132660, "pitch": 54, "duration": 10, "velocity": 52}, {"time": 132660, "pitch": 69, "duration": 10, "velocity": 59}, {"time": 132720, "pitch": 42, "duration": 10, "velocity": 77}, {"time": 132720, "pitch": 54, "duration": 10, "velocity": 52}, {"time": 132720, "pitch": 69, "duration": 10, "velocity": 36}, {"time": 132840, "pitch": 46, "duration": 10, "velocity": 64}, {"time": 132840, "pitch": 54, "duration": 10, "velocity": 67}, {"time": 132840, "pitch": 69, "duration": 10, "velocity": 12}, {"time": 132900, "pitch": 69, "duration": 10, "velocity": 47}, {"time": 132960, "pitch": 35, "duration": 9, "velocity": 92}, {"time": 132960, "pitch": 36, "duration": 9, "velocity": 64}, {"time": 132960, "pitch": 42, "duration": 9, "velocity": 114}, {"time": 132960, "pitch": 54, "duration": 9, "velocity": 61}, {"time": 132960, "pitch": 69, "duration": 9, "velocity": 84}, {"time": 133079, "pitch": 42, "duration": 10, "velocity": 58}, {"time": 133079, "pitch": 54, "duration": 10, "velocity": 32}, {"time": 133199, "pitch": 35, "duration": 10, "velocity": 92}, {"time": 133199, "pitch": 42, "duration": 10, "velocity": 81}, {"time": 133199, "pitch": 54, "duration": 10, "velocity": 71}, {"time": 133199, "pitch": 69, "duration": 10, "velocity": 31}, {"time": 133259, "pitch": 69, "duration": 10, "velocity": 20}, {"time": 133319, "pitch": 36, "duration": 10, "velocity": 67}, {"time": 133319, "pitch": 42, "duration": 10, "velocity": 43}, {"time": 133319, "pitch": 54, "duration": 10, "velocity": 47}, {"time": 133319, "pitch": 69, "duration": 10, "velocity": 24}, {"time": 133378, "pitch": 69, "duration": 10, "velocity": 24}, {"time": 133438, "pitch": 38, "duration": 10, "velocity": 120}, {"time": 133438, "pitch": 42, "duration": 10, "velocity": 61}, {"time": 133438, "pitch": 54, "duration": 10, "velocity": 77}, {"time": 133438, "pitch": 69, "duration": 10, "velocity": 59}, {"time": 133499, "pitch": 54, "duration": 10, "velocity": 55}, {"time": 133559, "pitch": 36, "duration": 10, "velocity": 65}, {"time": 133559, "pitch": 42, "duration": 10, "velocity": 58}, {"time": 133559, "pitch": 54, "duration": 10, "velocity": 54}, {"time": 133559, "pitch": 69, "duration": 10, "velocity": 17}, {"time": 133620, "pitch": 54, "duration": 10, "velocity": 40}, {"time": 133620, "pitch": 69, "duration": 10, "velocity": 53}, {"time": 133680, "pitch": 42, "duration": 10, "velocity": 61}, {"time": 133680, "pitch": 54, "duration": 10, "velocity": 65}, {"time": 133801, "pitch": 42, "duration": 10, "velocity": 58}, {"time": 133801, "pitch": 54, "duration": 10, "velocity": 36}, {"time": 133801, "pitch": 69, "duration": 10, "velocity": 47}, {"time": 133862, "pitch": 69, "duration": 10, "velocity": 6}, {"time": 133922, "pitch": 35, "duration": 10, "velocity": 101}, {"time": 133922, "pitch": 42, "duration": 10, "velocity": 104}, {"time": 133922, "pitch": 54, "duration": 10, "velocity": 61}, {"time": 133922, "pitch": 69, "duration": 10, "velocity": 53}, {"time": 133982, "pitch": 42, "duration": 10, "velocity": 51}, {"time": 134042, "pitch": 42, "duration": 10, "velocity": 37}, {"time": 134042, "pitch": 54, "duration": 10, "velocity": 52}, {"time": 134042, "pitch": 69, "duration": 10, "velocity": 12}, {"time": 134102, "pitch": 42, "duration": 10, "velocity": 42}, {"time": 134102, "pitch": 69, "duration": 10, "velocity": 59}, {"time": 134162, "pitch": 42, "duration": 10, "velocity": 58}, {"time": 134162, "pitch": 54, "duration": 10, "velocity": 50}, {"time": 134162, "pitch": 69, "duration": 10, "velocity": 47}, {"time": 134281, "pitch": 42, "duration": 10, "velocity": 89}, {"time": 134281, "pitch": 54, "duration": 10, "velocity": 44}, {"time": 134281, "pitch": 69, "duration": 10, "velocity": 13}, {"time": 134401, "pitch": 38, "duration": 10, "velocity": 122}, {"time": 134401, "pitch": 42, "duration": 10, "velocity": 46}, {"time": 134401, "pitch": 54, "duration": 10, "velocity": 56}, {"time": 134401, "pitch": 69, "duration": 10, "velocity": 53}, {"time": 134401, "pitch": 70, "duration": 10, "velocity": 63}, {"time": 134461, "pitch": 69, "duration": 10, "velocity": 14}, {"time": 134461, "pitch": 70, "duration": 10, "velocity": 78}, {"time": 134521, "pitch": 42, "duration": 10, "velocity": 66}, {"time": 134521, "pitch": 54, "duration": 10, "velocity": 66}, {"time": 134521, "pitch": 69, "duration": 10, "velocity": 28}, {"time": 134521, "pitch": 70, "duration": 10, "velocity": 86}, {"time": 134581, "pitch": 54, "duration": 10, "velocity": 58}, {"time": 134581, "pitch": 69, "duration": 10, "velocity": 59}, {"time": 134581, "pitch": 70, "duration": 10, "velocity": 93}, {"time": 134640, "pitch": 35, "duration": 10, "velocity": 92}, {"time": 134640, "pitch": 46, "duration": 10, "velocity": 50}, {"time": 134640, "pitch": 69, "duration": 10, "velocity": 36}, {"time": 134640, "pitch": 70, "duration": 10, "velocity": 70}, {"time": 134700, "pitch": 54, "duration": 10, "velocity": 43}, {"time": 134760, "pitch": 69, "duration": 10, "velocity": 12}, {"time": 134820, "pitch": 69, "duration": 10, "velocity": 47}, {"time": 134880, "pitch": 35, "duration": 10, "velocity": 101}, {"time": 134880, "pitch": 36, "duration": 10, "velocity": 75}, {"time": 134880, "pitch": 42, "duration": 10, "velocity": 106}, {"time": 134880, "pitch": 54, "duration": 10, "velocity": 67}, {"time": 134880, "pitch": 69, "duration": 10, "velocity": 84}, {"time": 134940, "pitch": 54, "duration": 10, "velocity": 50}, {"time": 135000, "pitch": 42, "duration": 10, "velocity": 53}, {"time": 135000, "pitch": 54, "duration": 10, "velocity": 44}, {"time": 135059, "pitch": 54, "duration": 10, "velocity": 42}, {"time": 135119, "pitch": 42, "duration": 10, "velocity": 66}, {"time": 135119, "pitch": 54, "duration": 10, "velocity": 58}, {"time": 135119, "pitch": 69, "duration": 10, "velocity": 31}, {"time": 135179, "pitch": 69, "duration": 10, "velocity": 20}, {"time": 135239, "pitch": 36, "duration": 10, "velocity": 67}, {"time": 135239, "pitch": 42, "duration": 10, "velocity": 82}, {"time": 135239, "pitch": 54, "duration": 10, "velocity": 54}, {"time": 135239, "pitch": 69, "duration": 10, "velocity": 24}, {"time": 135299, "pitch": 69, "duration": 10, "velocity": 24}, {"time": 135359, "pitch": 38, "duration": 10, "velocity": 120}, {"time": 135359, "pitch": 42, "duration": 10, "velocity": 52}, {"time": 135359, "pitch": 54, "duration": 10, "velocity": 89}, {"time": 135359, "pitch": 69, "duration": 10, "velocity": 59}, {"time": 135478, "pitch": 42, "duration": 10, "velocity": 77}, {"time": 135478, "pitch": 54, "duration": 10, "velocity": 51}, {"time": 135478, "pitch": 69, "duration": 10, "velocity": 17}, {"time": 135538, "pitch": 69, "duration": 10, "velocity": 53}, {"time": 135598, "pitch": 42, "duration": 10, "velocity": 114}, {"time": 135598, "pitch": 54, "duration": 10, "velocity": 38}, {"time": 135718, "pitch": 35, "duration": 10, "velocity": 84}, {"time": 135718, "pitch": 42, "duration": 10, "velocity": 77}, {"time": 135718, "pitch": 54, "duration": 10, "velocity": 42}, {"time": 135718, "pitch": 69, "duration": 10, "velocity": 47}, {"time": 135778, "pitch": 69, "duration": 10, "velocity": 6}, {"time": 135838, "pitch": 42, "duration": 10, "velocity": 97}, {"time": 135838, "pitch": 54, "duration": 10, "velocity": 43}, {"time": 135838, "pitch": 69, "duration": 10, "velocity": 53}, {"time": 135898, "pitch": 54, "duration": 10, "velocity": 42}, {"time": 135958, "pitch": 42, "duration": 11, "velocity": 58}, {"time": 135958, "pitch": 54, "duration": 11, "velocity": 54}, {"time": 135958, "pitch": 69, "duration": 11, "velocity": 12}, {"time": 136019, "pitch": 69, "duration": 10, "velocity": 59}, {"time": 136079, "pitch": 35, "duration": 11, "velocity": 101}, {"time": 136079, "pitch": 42, "duration": 11, "velocity": 125}, {"time": 136079, "pitch": 54, "duration": 11, "velocity": 47}, {"time": 136079, "pitch": 69, "duration": 11, "velocity": 47}, {"time": 136200, "pitch": 42, "duration": 10, "velocity": 54}, {"time": 136200, "pitch": 54, "duration": 10, "velocity": 49}, {"time": 136200, "pitch": 69, "duration": 10, "velocity": 13}, {"time": 136321, "pitch": 38, "duration": 10, "velocity": 120}, {"time": 136321, "pitch": 42, "duration": 10, "velocity": 104}, {"time": 136321, "pitch": 54, "duration": 10, "velocity": 71}, {"time": 136321, "pitch": 69, "duration": 10, "velocity": 53}, {"time": 136381, "pitch": 42, "duration": 10, "velocity": 51}, {"time": 136381, "pitch": 54, "duration": 10, "velocity": 44}, {"time": 136381, "pitch": 69, "duration": 10, "velocity": 14}, {"time": 136441, "pitch": 42, "duration": 10, "velocity": 37}, {"time": 136441, "pitch": 54, "duration": 10, "velocity": 48}, {"time": 136441, "pitch": 69, "duration": 10, "velocity": 28}, {"time": 136501, "pitch": 42, "duration": 10, "velocity": 42}, {"time": 136501, "pitch": 54, "duration": 10, "velocity": 52}, {"time": 136501, "pitch": 69, "duration": 10, "velocity": 59}, {"time": 136561, "pitch": 42, "duration": 10, "velocity": 77}, {"time": 136561, "pitch": 54, "duration": 10, "velocity": 52}, {"time": 136561, "pitch": 69, "duration": 10, "velocity": 36}, {"time": 136680, "pitch": 46, "duration": 10, "velocity": 64}, {"time": 136680, "pitch": 54, "duration": 10, "velocity": 67}, {"time": 136680, "pitch": 69, "duration": 10, "velocity": 12}, {"time": 136740, "pitch": 69, "duration": 10, "velocity": 47}, {"time": 136800, "pitch": 35, "duration": 10, "velocity": 92}, {"time": 136800, "pitch": 36, "duration": 10, "velocity": 64}, {"time": 136800, "pitch": 42, "duration": 10, "velocity": 114}, {"time": 136800, "pitch": 54, "duration": 10, "velocity": 61}, {"time": 136800, "pitch": 69, "duration": 10, "velocity": 84}, {"time": 136920, "pitch": 42, "duration": 10, "velocity": 58}, {"time": 136920, "pitch": 54, "duration": 10, "velocity": 32}, {"time": 137040, "pitch": 35, "duration": 10, "velocity": 92}, {"time": 137040, "pitch": 42, "duration": 10, "velocity": 81}, {"time": 137040, "pitch": 54, "duration": 10, "velocity": 71}, {"time": 137040, "pitch": 69, "duration": 10, "velocity": 31}, {"time": 137099, "pitch": 69, "duration": 10, "velocity": 20}, {"time": 137159, "pitch": 36, "duration": 10, "velocity": 67}, {"time": 137159, "pitch": 42, "duration": 10, "velocity": 43}, {"time": 137159, "pitch": 54, "duration": 10, "velocity": 47}, {"time": 137159, "pitch": 69, "duration": 10, "velocity": 24}, {"time": 137219, "pitch": 69, "duration": 10, "velocity": 24}, {"time": 137279, "pitch": 38, "duration": 10, "velocity": 120}, {"time": 137279, "pitch": 42, "duration": 10, "velocity": 61}, {"time": 137279, "pitch": 54, "duration": 10, "velocity": 77}, {"time": 137279, "pitch": 69, "duration": 10, "velocity": 59}, {"time": 137339, "pitch": 54, "duration": 10, "velocity": 55}, {"time": 137399, "pitch": 36, "duration": 10, "velocity": 65}, {"time": 137399, "pitch": 42, "duration": 10, "velocity": 58}, {"time": 137399, "pitch": 54, "duration": 10, "velocity": 54}, {"time": 137399, "pitch": 69, "duration": 10, "velocity": 17}, {"time": 137459, "pitch": 54, "duration": 10, "velocity": 40}, {"time": 137459, "pitch": 69, "duration": 10, "velocity": 53}, {"time": 137518, "pitch": 42, "duration": 10, "velocity": 61}, {"time": 137518, "pitch": 54, "duration": 10, "velocity": 65}, {"time": 137638, "pitch": 42, "duration": 10, "velocity": 58}, {"time": 137638, "pitch": 54, "duration": 10, "velocity": 36}, {"time": 137638, "pitch": 69, "duration": 10, "velocity": 47}, {"time": 137698, "pitch": 69, "duration": 10, "velocity": 6}, {"time": 137758, "pitch": 35, "duration": 10, "velocity": 101}, {"time": 137758, "pitch": 42, "duration": 10, "velocity": 104}, {"time": 137758, "pitch": 54, "duration": 10, "velocity": 61}, {"time": 137758, "pitch": 69, "duration": 10, "velocity": 53}, {"time": 137818, "pitch": 42, "duration": 10, "velocity": 51}, {"time": 137879, "pitch": 42, "duration": 10, "velocity": 37}, {"time": 137879, "pitch": 54, "duration": 10, "velocity": 52}, {"time": 137879, "pitch": 69, "duration": 10, "velocity": 12}, {"time": 137939, "pitch": 42, "duration": 10, "velocity": 42}, {"time": 137939, "pitch": 69, "duration": 10, "velocity": 59}, {"time": 138000, "pitch": 42, "duration": 10, "velocity": 58}, {"time": 138000, "pitch": 54, "duration": 10, "velocity": 50}, {"time": 138000, "pitch": 69, "duration": 10, "velocity": 47}, {"time": 138121, "pitch": 42, "duration": 10, "velocity": 89}, {"time": 138121, "pitch": 54, "duration": 10, "velocity": 44}, {"time": 138121, "pitch": 69, "duration": 10, "velocity": 13}, {"time": 138242, "pitch": 38, "duration": 10, "velocity": 117}, {"time": 138242, "pitch": 42, "duration": 10, "velocity": 46}, {"time": 138242, "pitch": 54, "duration": 10, "velocity": 56}, {"time": 138242, "pitch": 69, "duration": 10, "velocity": 53}, {"time": 138242, "pitch": 70, "duration": 10, "velocity": 63}, {"time": 138302, "pitch": 69, "duration": 10, "velocity": 14}, {"time": 138302, "pitch": 70, "duration": 10, "velocity": 78}, {"time": 138361, "pitch": 42, "duration": 10, "velocity": 66}, {"time": 138361, "pitch": 54, "duration": 10, "velocity": 66}, {"time": 138361, "pitch": 69, "duration": 10, "velocity": 28}, {"time": 138361, "pitch": 70, "duration": 10, "velocity": 86}, {"time": 138421, "pitch": 54, "duration": 10, "velocity": 58}, {"time": 138421, "pitch": 69, "duration": 10, "velocity": 59}, {"time": 138421, "pitch": 70, "duration": 10, "velocity": 93}, {"time": 138481, "pitch": 35, "duration": 10, "velocity": 92}, {"time": 138481, "pitch": 46, "duration": 10, "velocity": 50}, {"time": 138481, "pitch": 69, "duration": 10, "velocity": 36}, {"time": 138481, "pitch": 70, "duration": 10, "velocity": 70}, {"time": 138541, "pitch": 54, "duration": 10, "velocity": 43}, {"time": 138601, "pitch": 69, "duration": 10, "velocity": 12}, {"time": 138661, "pitch": 69, "duration": 10, "velocity": 47}, {"time": 138721, "pitch": 35, "duration": 10, "velocity": 101}, {"time": 138721, "pitch": 36, "duration": 10, "velocity": 75}, {"time": 138721, "pitch": 42, "duration": 10, "velocity": 106}, {"time": 138721, "pitch": 54, "duration": 10, "velocity": 67}, {"time": 138721, "pitch": 69, "duration": 10, "velocity": 84}, {"time": 138780, "pitch": 54, "duration": 10, "velocity": 50}, {"time": 138840, "pitch": 42, "duration": 10, "velocity": 53}, {"time": 138840, "pitch": 54, "duration": 10, "velocity": 44}, {"time": 138900, "pitch": 54, "duration": 10, "velocity": 42}, {"time": 138960, "pitch": 42, "duration": 10, "velocity": 66}, {"time": 138960, "pitch": 54, "duration": 10, "velocity": 58}, {"time": 138960, "pitch": 69, "duration": 10, "velocity": 31}, {"time": 139020, "pitch": 69, "duration": 10, "velocity": 20}, {"time": 139080, "pitch": 36, "duration": 10, "velocity": 67}, {"time": 139080, "pitch": 42, "duration": 10, "velocity": 82}, {"time": 139080, "pitch": 54, "duration": 10, "velocity": 54}, {"time": 139080, "pitch": 69, "duration": 10, "velocity": 24}, {"time": 139140, "pitch": 69, "duration": 10, "velocity": 24}, {"time": 139199, "pitch": 38, "duration": 10, "velocity": 107}, {"time": 139199, "pitch": 42, "duration": 10, "velocity": 52}, {"time": 139199, "pitch": 54, "duration": 10, "velocity": 89}, {"time": 139199, "pitch": 69, "duration": 10, "velocity": 59}, {"time": 139319, "pitch": 42, "duration": 10, "velocity": 77}, {"time": 139319, "pitch": 54, "duration": 10, "velocity": 51}, {"time": 139319, "pitch": 69, "duration": 10, "velocity": 17}, {"time": 139379, "pitch": 69, "duration": 10, "velocity": 53}, {"time": 139439, "pitch": 42, "duration": 10, "velocity": 114}, {"time": 139439, "pitch": 54, "duration": 10, "velocity": 38}, {"time": 139559, "pitch": 35, "duration": 10, "velocity": 84}, {"time": 139559, "pitch": 42, "duration": 10, "velocity": 77}, {"time": 139559, "pitch": 54, "duration": 10, "velocity": 42}, {"time": 139559, "pitch": 69, "duration": 10, "velocity": 47}, {"time": 139618, "pitch": 69, "duration": 10, "velocity": 6}, {"time": 139678, "pitch": 42, "duration": 10, "velocity": 97}, {"time": 139678, "pitch": 54, "duration": 10, "velocity": 43}, {"time": 139678, "pitch": 69, "duration": 10, "velocity": 53}, {"time": 139739, "pitch": 54, "duration": 10, "velocity": 42}, {"time": 139799, "pitch": 42, "duration": 10, "velocity": 58}, {"time": 139799, "pitch": 54, "duration": 10, "velocity": 54}, {"time": 139799, "pitch": 69, "duration": 10, "velocity": 12}, {"time": 139860, "pitch": 69, "duration": 10, "velocity": 59}, {"time": 139920, "pitch": 35, "duration": 10, "velocity": 101}, {"time": 139920, "pitch": 42, "duration": 10, "velocity": 125}, {"time": 139920, "pitch": 54, "duration": 10, "velocity": 47}, {"time": 139920, "pitch": 69, "duration": 10, "velocity": 47}, {"time": 140041, "pitch": 42, "duration": 10, "velocity": 54}, {"time": 140041, "pitch": 54, "duration": 10, "velocity": 49}, {"time": 140041, "pitch": 69, "duration": 10, "velocity": 13}, {"time": 140162, "pitch": 38, "duration": 10, "velocity": 107}, {"time": 140162, "pitch": 42, "duration": 10, "velocity": 104}, {"time": 140162, "pitch": 54, "duration": 10, "velocity": 71}, {"time": 140162, "pitch": 69, "duration": 10, "velocity": 53}, {"time": 140222, "pitch": 42, "duration": 10, "velocity": 51}, {"time": 140222, "pitch": 54, "duration": 10, "velocity": 44}, {"time": 140222, "pitch": 69, "duration": 10, "velocity": 14}, {"time": 140282, "pitch": 42, "duration": 10, "velocity": 37}, {"time": 140282, "pitch": 54, "duration": 10, "velocity": 48}, {"time": 140282, "pitch": 69, "duration": 10, "velocity": 28}, {"time": 140342, "pitch": 42, "duration": 10, "velocity": 42}, {"time": 140342, "pitch": 54, "duration": 10, "velocity": 52}, {"time": 140342, "pitch": 69, "duration": 10, "velocity": 59}, {"time": 140401, "pitch": 42, "duration": 10, "velocity": 77}, {"time": 140401, "pitch": 54, "duration": 10, "velocity": 52}, {"time": 140401, "pitch": 69, "duration": 10, "velocity": 36}, {"time": 140521, "pitch": 46, "duration": 10, "velocity": 64}, {"time": 140521, "pitch": 54, "duration": 10, "velocity": 67}, {"time": 140521, "pitch": 69, "duration": 10, "velocity": 12}, {"time": 140581, "pitch": 69, "duration": 10, "velocity": 47}, {"time": 140641, "pitch": 35, "duration": 10, "velocity": 92}, {"time": 140641, "pitch": 36, "duration": 10, "velocity": 64}, {"time": 140641, "pitch": 42, "duration": 10, "velocity": 114}, {"time": 140641, "pitch": 54, "duration": 10, "velocity": 61}, {"time": 140641, "pitch": 69, "duration": 10, "velocity": 84}, {"time": 140761, "pitch": 42, "duration": 10, "velocity": 58}, {"time": 140761, "pitch": 54, "duration": 10, "velocity": 32}, {"time": 140880, "pitch": 35, "duration": 10, "velocity": 92}, {"time": 140880, "pitch": 42, "duration": 10, "velocity": 81}, {"time": 140880, "pitch": 54, "duration": 10, "velocity": 71}, {"time": 140880, "pitch": 69, "duration": 10, "velocity": 31}, {"time": 140940, "pitch": 69, "duration": 10, "velocity": 20}, {"time": 141000, "pitch": 36, "duration": 10, "velocity": 67}, {"time": 141000, "pitch": 42, "duration": 10, "velocity": 43}, {"time": 141000, "pitch": 54, "duration": 10, "velocity": 47}, {"time": 141000, "pitch": 69, "duration": 10, "velocity": 24}, {"time": 141060, "pitch": 69, "duration": 10, "velocity": 24}, {"time": 141120, "pitch": 38, "duration": 10, "velocity": 109}, {"time": 141120, "pitch": 42, "duration": 10, "velocity": 61}, {"time": 141120, "pitch": 54, "duration": 10, "velocity": 77}, {"time": 141120, "pitch": 69, "duration": 10, "velocity": 59}, {"time": 141180, "pitch": 54, "duration": 10, "velocity": 55}, {"time": 141239, "pitch": 36, "duration": 10, "velocity": 65}, {"time": 141239, "pitch": 42, "duration": 10, "velocity": 58}, {"time": 141239, "pitch": 54, "duration": 10, "velocity": 54}, {"time": 141239, "pitch": 69, "duration": 10, "velocity": 17}, {"time": 141299, "pitch": 54, "duration": 10, "velocity": 40}, {"time": 141299, "pitch": 69, "duration": 10, "velocity": 53}, {"time": 141359, "pitch": 42, "duration": 10, "velocity": 61}, {"time": 141359, "pitch": 54, "duration": 10, "velocity": 65}, {"time": 141479, "pitch": 42, "duration": 10, "velocity": 58}, {"time": 141479, "pitch": 54, "duration": 10, "velocity": 36}, {"time": 141479, "pitch": 69, "duration": 10, "velocity": 47}, {"time": 141539, "pitch": 69, "duration": 10, "velocity": 6}, {"time": 141599, "pitch": 35, "duration": 10, "velocity": 101}, {"time": 141599, "pitch": 42, "duration": 10, "velocity": 104}, {"time": 141599, "pitch": 54, "duration": 10, "velocity": 61}, {"time": 141599, "pitch": 69, "duration": 10, "velocity": 53}, {"time": 141659, "pitch": 42, "duration": 10, "velocity": 51}, {"time": 141720, "pitch": 42, "duration": 10, "velocity": 37}, {"time": 141720, "pitch": 54, "duration": 10, "velocity": 52}, {"time": 141720, "pitch": 69, "duration": 10, "velocity": 12}, {"time": 141780, "pitch": 42, "duration": 10, "velocity": 42}, {"time": 141780, "pitch": 69, "duration": 10, "velocity": 59}, {"time": 141840, "pitch": 42, "duration": 11, "velocity": 58}, {"time": 141840, "pitch": 54, "duration": 11, "velocity": 50}, {"time": 141840, "pitch": 69, "duration": 11, "velocity": 47}, {"time": 141961, "pitch": 42, "duration": 11, "velocity": 89}, {"time": 141961, "pitch": 54, "duration": 11, "velocity": 44}, {"time": 141961, "pitch": 69, "duration": 11, "velocity": 13}, {"time": 142082, "pitch": 38, "duration": 10, "velocity": 117}, {"time": 142082, "pitch": 42, "duration": 10, "velocity": 46}, {"time": 142082, "pitch": 54, "duration": 10, "velocity": 56}, {"time": 142082, "pitch": 69, "duration": 10, "velocity": 53}, {"time": 142082, "pitch": 70, "duration": 10, "velocity": 63}, {"time": 142142, "pitch": 69, "duration": 10, "velocity": 14}, {"time": 142142, "pitch": 70, "duration": 10, "velocity": 78}, {"time": 142202, "pitch": 42, "duration": 10, "velocity": 66}, {"time": 142202, "pitch": 54, "duration": 10, "velocity": 66}, {"time": 142202, "pitch": 69, "duration": 10, "velocity": 28}, {"time": 142202, "pitch": 70, "duration": 10, "velocity": 86}, {"time": 142262, "pitch": 54, "duration": 10, "velocity": 58}, {"time": 142262, "pitch": 69, "duration": 10, "velocity": 59}, {"time": 142262, "pitch": 70, "duration": 10, "velocity": 93}, {"time": 142322, "pitch": 35, "duration": 10, "velocity": 92}, {"time": 142322, "pitch": 46, "duration": 10, "velocity": 50}, {"time": 142322, "pitch": 69, "duration": 10, "velocity": 36}, {"time": 142322, "pitch": 70, "duration": 10, "velocity": 70}, {"time": 142382, "pitch": 54, "duration": 10, "velocity": 43}, {"time": 142442, "pitch": 69, "duration": 10, "velocity": 12}, {"time": 142501, "pitch": 69, "duration": 10, "velocity": 47}, {"time": 142561, "pitch": 35, "duration": 10, "velocity": 101}, {"time": 142561, "pitch": 36, "duration": 10, "velocity": 75}, {"time": 142561, "pitch": 42, "duration": 10, "velocity": 106}, {"time": 142561, "pitch": 54, "duration": 10, "velocity": 67}, {"time": 142561, "pitch": 69, "duration": 10, "velocity": 84}, {"time": 142621, "pitch": 54, "duration": 10, "velocity": 50}, {"time": 142681, "pitch": 42, "duration": 10, "velocity": 53}, {"time": 142681, "pitch": 54, "duration": 10, "velocity": 44}, {"time": 142741, "pitch": 54, "duration": 10, "velocity": 42}, {"time": 142801, "pitch": 42, "duration": 10, "velocity": 66}, {"time": 142801, "pitch": 54, "duration": 10, "velocity": 58}, {"time": 142801, "pitch": 69, "duration": 10, "velocity": 31}, {"time": 142861, "pitch": 69, "duration": 9, "velocity": 20}, {"time": 142920, "pitch": 36, "duration": 10, "velocity": 67}, {"time": 142920, "pitch": 42, "duration": 10, "velocity": 82}, {"time": 142920, "pitch": 54, "duration": 10, "velocity": 54}, {"time": 142920, "pitch": 69, "duration": 10, "velocity": 24}, {"time": 142980, "pitch": 69, "duration": 10, "velocity": 24}, {"time": 143040, "pitch": 38, "duration": 10, "velocity": 117}, {"time": 143040, "pitch": 42, "duration": 10, "velocity": 52}, {"time": 143040, "pitch": 54, "duration": 10, "velocity": 89}, {"time": 143040, "pitch": 69, "duration": 10, "velocity": 59}, {"time": 143160, "pitch": 42, "duration": 10, "velocity": 77}, {"time": 143160, "pitch": 54, "duration": 10, "velocity": 51}, {"time": 143160, "pitch": 69, "duration": 10, "velocity": 17}, {"time": 143220, "pitch": 69, "duration": 10, "velocity": 53}, {"time": 143280, "pitch": 42, "duration": 9, "velocity": 114}, {"time": 143280, "pitch": 54, "duration": 9, "velocity": 38}, {"time": 143399, "pitch": 35, "duration": 10, "velocity": 84}, {"time": 143399, "pitch": 42, "duration": 10, "velocity": 77}, {"time": 143399, "pitch": 54, "duration": 10, "velocity": 42}, {"time": 143399, "pitch": 69, "duration": 10, "velocity": 47}, {"time": 143459, "pitch": 69, "duration": 10, "velocity": 6}, {"time": 143519, "pitch": 42, "duration": 10, "velocity": 97}, {"time": 143519, "pitch": 54, "duration": 10, "velocity": 43}, {"time": 143519, "pitch": 69, "duration": 10, "velocity": 53}, {"time": 143579, "pitch": 54, "duration": 10, "velocity": 42}, {"time": 143639, "pitch": 42, "duration": 10, "velocity": 58}, {"time": 143639, "pitch": 54, "duration": 10, "velocity": 54}, {"time": 143639, "pitch": 69, "duration": 10, "velocity": 12}, {"time": 143699, "pitch": 69, "duration": 9, "velocity": 59}, {"time": 143758, "pitch": 35, "duration": 10, "velocity": 101}, {"time": 143758, "pitch": 42, "duration": 10, "velocity": 125}, {"time": 143758, "pitch": 54, "duration": 10, "velocity": 47}, {"time": 143758, "pitch": 69, "duration": 10, "velocity": 47}, {"time": 143878, "pitch": 42, "duration": 10, "velocity": 54}, {"time": 143878, "pitch": 54, "duration": 10, "velocity": 49}, {"time": 143878, "pitch": 69, "duration": 10, "velocity": 13}, {"time": 143998, "pitch": 38, "duration": 10, "velocity": 120}, {"time": 143998, "pitch": 42, "duration": 10, "velocity": 104}, {"time": 143998, "pitch": 54, "duration": 10, "velocity": 71}, {"time": 143998, "pitch": 69, "duration": 10, "velocity": 53}, {"time": 144058, "pitch": 42, "duration": 10, "velocity": 51}, {"time": 144058, "pitch": 54, "duration": 10, "velocity": 44}, {"time": 144058, "pitch": 69, "duration": 10, "velocity": 14}, {"time": 144119, "pitch": 42, "duration": 10, "velocity": 37}, {"time": 144119, "pitch": 54, "duration": 10, "velocity": 48}, {"time": 144119, "pitch": 69, "duration": 10, "velocity": 28}, {"time": 144179, "pitch": 42, "duration": 10, "velocity": 42}, {"time": 144179, "pitch": 54, "duration": 10, "velocity": 52}, {"time": 144179, "pitch": 69, "duration": 10, "velocity": 59}, {"time": 144240, "pitch": 42, "duration": 10, "velocity": 77}, {"time": 144240, "pitch": 54, "duration": 10, "velocity": 52}, {"time": 144240, "pitch": 69, "duration": 10, "velocity": 36}, {"time": 144361, "pitch": 46, "duration": 10, "velocity": 64}, {"time": 144361, "pitch": 54, "duration": 10, "velocity": 67}, {"time": 144361, "pitch": 69, "duration": 10, "velocity": 12}, {"time": 144421, "pitch": 69, "duration": 10, "velocity": 47}, {"time": 144482, "pitch": 35, "duration": 10, "velocity": 92}, {"time": 144482, "pitch": 36, "duration": 10, "velocity": 64}, {"time": 144482, "pitch": 42, "duration": 10, "velocity": 114}, {"time": 144482, "pitch": 54, "duration": 10, "velocity": 61}, {"time": 144482, "pitch": 69, "duration": 10, "velocity": 84}, {"time": 144601, "pitch": 42, "duration": 10, "velocity": 58}, {"time": 144601, "pitch": 54, "duration": 10, "velocity": 32}, {"time": 144721, "pitch": 35, "duration": 10, "velocity": 92}, {"time": 144721, "pitch": 42, "duration": 10, "velocity": 81}, {"time": 144721, "pitch": 54, "duration": 10, "velocity": 71}, {"time": 144721, "pitch": 69, "duration": 10, "velocity": 31}, {"time": 144781, "pitch": 69, "duration": 10, "velocity": 20}, {"time": 144841, "pitch": 36, "duration": 10, "velocity": 67}, {"time": 144841, "pitch": 42, "duration": 10, "velocity": 43}, {"time": 144841, "pitch": 54, "duration": 10, "velocity": 47}, {"time": 144841, "pitch": 69, "duration": 10, "velocity": 24}, {"time": 144901, "pitch": 69, "duration": 10, "velocity": 24}, {"time": 144960, "pitch": 38, "duration": 10, "velocity": 120}, {"time": 144960, "pitch": 42, "duration": 10, "velocity": 61}, {"time": 144960, "pitch": 54, "duration": 10, "velocity": 77}, {"time": 144960, "pitch": 69, "duration": 10, "velocity": 59}, {"time": 145020, "pitch": 54, "duration": 10, "velocity": 55}, {"time": 145080, "pitch": 36, "duration": 10, "velocity": 65}, {"time": 145080, "pitch": 42, "duration": 10, "velocity": 58}, {"time": 145080, "pitch": 54, "duration": 10, "velocity": 54}, {"time": 145080, "pitch": 69, "duration": 10, "velocity": 17}, {"time": 145140, "pitch": 54, "duration": 10, "velocity": 40}, {"time": 145140, "pitch": 69, "duration": 10, "velocity": 53}, {"time": 145200, "pitch": 42, "duration": 10, "velocity": 61}, {"time": 145200, "pitch": 54, "duration": 10, "velocity": 65}, {"time": 145320, "pitch": 42, "duration": 10, "velocity": 58}, {"time": 145320, "pitch": 54, "duration": 10, "velocity": 36}, {"time": 145320, "pitch": 69, "duration": 10, "velocity": 47}, {"time": 145379, "pitch": 69, "duration": 10, "velocity": 6}, {"time": 145439, "pitch": 35, "duration": 10, "velocity": 101}, {"time": 145439, "pitch": 42, "duration": 10, "velocity": 104}, {"time": 145439, "pitch": 54, "duration": 10, "velocity": 61}, {"time": 145439, "pitch": 69, "duration": 10, "velocity": 53}, {"time": 145499, "pitch": 42, "duration": 10, "velocity": 51}, {"time": 145559, "pitch": 42, "duration": 10, "velocity": 37}, {"time": 145559, "pitch": 54, "duration": 10, "velocity": 52}, {"time": 145559, "pitch": 69, "duration": 10, "velocity": 12}, {"time": 145619, "pitch": 42, "duration": 10, "velocity": 42}, {"time": 145619, "pitch": 69, "duration": 10, "velocity": 59}, {"time": 145679, "pitch": 42, "duration": 10, "velocity": 58}, {"time": 145679, "pitch": 54, "duration": 10, "velocity": 50}, {"time": 145679, "pitch": 69, "duration": 10, "velocity": 47}, {"time": 145798, "pitch": 42, "duration": 10, "velocity": 89}, {"time": 145798, "pitch": 54, "duration": 10, "velocity": 44}, {"time": 145798, "pitch": 69, "duration": 10, "velocity": 13}, {"time": 145918, "pitch": 38, "duration": 10, "velocity": 120}, {"time": 145918, "pitch": 42, "duration": 10, "velocity": 46}, {"time": 145918, "pitch": 54, "duration": 10, "velocity": 56}, {"time": 145918, "pitch": 69, "duration": 10, "velocity": 53}, {"time": 145918, "pitch": 70, "duration": 10, "velocity": 63}, {"time": 145979, "pitch": 69, "duration": 10, "velocity": 14}, {"time": 145979, "pitch": 70, "duration": 10, "velocity": 78}, {"time": 146039, "pitch": 42, "duration": 10, "velocity": 66}, {"time": 146039, "pitch": 54, "duration": 10, "velocity": 66}, {"time": 146039, "pitch": 69, "duration": 10, "velocity": 28}, {"time": 146039, "pitch": 70, "duration": 10, "velocity": 86}, {"time": 146100, "pitch": 54, "duration": 10, "velocity": 58}, {"time": 146100, "pitch": 69, "duration": 10, "velocity": 59}, {"time": 146100, "pitch": 70, "duration": 10, "velocity": 93}, {"time": 146160, "pitch": 35, "duration": 10, "velocity": 92}, {"time": 146160, "pitch": 46, "duration": 10, "velocity": 50}, {"time": 146160, "pitch": 69, "duration": 10, "velocity": 36}, {"time": 146160, "pitch": 70, "duration": 10, "velocity": 70}, {"time": 146221, "pitch": 54, "duration": 10, "velocity": 43}, {"time": 146281, "pitch": 69, "duration": 10, "velocity": 12}, {"time": 146341, "pitch": 69, "duration": 11, "velocity": 47}, {"time": 146402, "pitch": 35, "duration": 10, "velocity": 101}, {"time": 146402, "pitch": 42, "duration": 10, "velocity": 106}, {"time": 146402, "pitch": 51, "duration": 10, "velocity": 90}, {"time": 146402, "pitch": 69, "duration": 10, "velocity": 84}, {"time": 146522, "pitch": 42, "duration": 10, "velocity": 53}, {"time": 146641, "pitch": 42, "duration": 10, "velocity": 66}, {"time": 146641, "pitch": 69, "duration": 10, "velocity": 31}, {"time": 146701, "pitch": 69, "duration": 10, "velocity": 20}, {"time": 146761, "pitch": 42, "duration": 10, "velocity": 82}, {"time": 146761, "pitch": 69, "duration": 10, "velocity": 24}, {"time": 146821, "pitch": 69, "duration": 10, "velocity": 24}, {"time": 146881, "pitch": 38, "duration": 10, "velocity": 90}, {"time": 146881, "pitch": 42, "duration": 10, "velocity": 52}, {"time": 146881, "pitch": 69, "duration": 10, "velocity": 59}, {"time": 147000, "pitch": 42, "duration": 10, "velocity": 77}, {"time": 147000, "pitch": 69, "duration": 10, "velocity": 17}, {"time": 147060, "pitch": 69, "duration": 10, "velocity": 53}, {"time": 147120, "pitch": 42, "duration": 10, "velocity": 114}, {"time": 147240, "pitch": 35, "duration": 10, "velocity": 84}, {"time": 147240, "pitch": 42, "duration": 10, "velocity": 77}, {"time": 147240, "pitch": 69, "duration": 10, "velocity": 47}, {"time": 147300, "pitch": 69, "duration": 10, "velocity": 6}, {"time": 147360, "pitch": 42, "duration": 10, "velocity": 97}, {"time": 147360, "pitch": 69, "duration": 10, "velocity": 53}, {"time": 147479, "pitch": 42, "duration": 10, "velocity": 58}, {"time": 147479, "pitch": 69, "duration": 10, "velocity": 12}, {"time": 147539, "pitch": 69, "duration": 10, "velocity": 59}, {"time": 147599, "pitch": 35, "duration": 10, "velocity": 101}, {"time": 147599, "pitch": 42, "duration": 10, "velocity": 125}, {"time": 147599, "pitch": 69, "duration": 10, "velocity": 47}, {"time": 147719, "pitch": 42, "duration": 10, "velocity": 54}, {"time": 147719, "pitch": 69, "duration": 10, "velocity": 13}, {"time": 147838, "pitch": 38, "duration": 11, "velocity": 120}, {"time": 147838, "pitch": 42, "duration": 11, "velocity": 104}, {"time": 147838, "pitch": 69, "duration": 11, "velocity": 53}, {"time": 147899, "pitch": 42, "duration": 10, "velocity": 51}, {"time": 147899, "pitch": 69, "duration": 10, "velocity": 14}, {"time": 147959, "pitch": 42, "duration": 11, "velocity": 37}, {"time": 147959, "pitch": 69, "duration": 11, "velocity": 28}, {"time": 148020, "pitch": 42, "duration": 10, "velocity": 42}, {"time": 148020, "pitch": 69, "duration": 10, "velocity": 59}, {"time": 148080, "pitch": 42, "duration": 10, "velocity": 77}, {"time": 148080, "pitch": 69, "duration": 10, "velocity": 36}, {"time": 148201, "pitch": 46, "duration": 10, "velocity": 64}, {"time": 148201, "pitch": 69, "duration": 10, "velocity": 12}, {"time": 148262, "pitch": 69, "duration": 10, "velocity": 47}, {"time": 148322, "pitch": 35, "duration": 10, "velocity": 92}, {"time": 148322, "pitch": 42, "duration": 10, "velocity": 114}, {"time": 148322, "pitch": 69, "duration": 10, "velocity": 84}, {"time": 148442, "pitch": 42, "duration": 10, "velocity": 58}, {"time": 148562, "pitch": 35, "duration": 10, "velocity": 92}, {"time": 148562, "pitch": 42, "duration": 10, "velocity": 81}, {"time": 148562, "pitch": 69, "duration": 10, "velocity": 31}, {"time": 148622, "pitch": 69, "duration": 10, "velocity": 20}, {"time": 148681, "pitch": 42, "duration": 10, "velocity": 43}, {"time": 148681, "pitch": 69, "duration": 10, "velocity": 24}, {"time": 148741, "pitch": 69, "duration": 10, "velocity": 24}, {"time": 148801, "pitch": 38, "duration": 10, "velocity": 120}, {"time": 148801, "pitch": 42, "duration": 10, "velocity": 61}, {"time": 148801, "pitch": 69, "duration": 10, "velocity": 59}, {"time": 148921, "pitch": 42, "duration": 10, "velocity": 58}, {"time": 148921, "pitch": 69, "duration": 10, "velocity": 17}, {"time": 148981, "pitch": 69, "duration": 10, "velocity": 53}, {"time": 149041, "pitch": 42, "duration": 10, "velocity": 61}, {"time": 149160, "pitch": 42, "duration": 10, "velocity": 58}, {"time": 149160, "pitch": 69, "duration": 10, "velocity": 47}, {"time": 149220, "pitch": 69, "duration": 10, "velocity": 6}, {"time": 149280, "pitch": 35, "duration": 10, "velocity": 101}, {"time": 149280, "pitch": 42, "duration": 10, "velocity": 104}, {"time": 149280, "pitch": 69, "duration": 10, "velocity": 53}, {"time": 149340, "pitch": 42, "duration": 10, "velocity": 51}, {"time": 149400, "pitch": 42, "duration": 10, "velocity": 37}, {"time": 149400, "pitch": 69, "duration": 10, "velocity": 12}, {"time": 149460, "pitch": 42, "duration": 10, "velocity": 42}, {"time": 149460, "pitch": 69, "duration": 10, "velocity": 59}, {"time": 149519, "pitch": 42, "duration": 10, "velocity": 58}, {"time": 149519, "pitch": 69, "duration": 10, "velocity": 47}, {"time": 149639, "pitch": 42, "duration": 10, "velocity": 89}, {"time": 149639, "pitch": 69, "duration": 10, "velocity": 13}, {"time": 149759, "pitch": 38, "duration": 10, "velocity": 109}, {"time": 149759, "pitch": 42, "duration": 10, "velocity": 46}, {"time": 149759, "pitch": 69, "duration": 10, "velocity": 53}, {"time": 149759, "pitch": 70, "duration": 10, "velocity": 63}, {"time": 149819, "pitch": 69, "duration": 10, "velocity": 14}, {"time": 149819, "pitch": 70, "duration": 10, "velocity": 78}, {"time": 149879, "pitch": 42, "duration": 10, "velocity": 66}, {"time": 149879, "pitch": 69, "duration": 10, "velocity": 28}, {"time": 149879, "pitch": 70, "duration": 10, "velocity": 86}, {"time": 149938, "pitch": 69, "duration": 10, "velocity": 59}, {"time": 149938, "pitch": 70, "duration": 10, "velocity": 93}, {"time": 149998, "pitch": 35, "duration": 10, "velocity": 92}, {"time": 149998, "pitch": 46, "duration": 10, "velocity": 50}, {"time": 149998, "pitch": 69, "duration": 10, "velocity": 36}, {"time": 149998, "pitch": 70, "duration": 10, "velocity": 70}, {"time": 150118, "pitch": 69, "duration": 10, "velocity": 12}, {"time": 150178, "pitch": 69, "duration": 10, "velocity": 47}, {"time": 150238, "pitch": 35, "duration": 10, "velocity": 101}, {"time": 150238, "pitch": 42, "duration": 10, "velocity": 106}, {"time": 150238, "pitch": 69, "duration": 10, "velocity": 84}, {"time": 150359, "pitch": 42, "duration": 10, "velocity": 53}, {"time": 150480, "pitch": 42, "duration": 10, "velocity": 66}, {"time": 150480, "pitch": 69, "duration": 10, "velocity": 31}, {"time": 150540, "pitch": 69, "duration": 10, "velocity": 20}, {"time": 150601, "pitch": 42, "duration": 10, "velocity": 82}, {"time": 150601, "pitch": 69, "duration": 10, "velocity": 24}, {"time": 150661, "pitch": 69, "duration": 10, "velocity": 24}, {"time": 150721, "pitch": 38, "duration": 10, "velocity": 117}, {"time": 150721, "pitch": 42, "duration": 10, "velocity": 52}, {"time": 150721, "pitch": 69, "duration": 10, "velocity": 59}, {"time": 150841, "pitch": 42, "duration": 10, "velocity": 77}, {"time": 150841, "pitch": 69, "duration": 10, "velocity": 17}, {"time": 150901, "pitch": 69, "duration": 10, "velocity": 53}, {"time": 150961, "pitch": 42, "duration": 10, "velocity": 114}, {"time": 151081, "pitch": 35, "duration": 10, "velocity": 84}, {"time": 151081, "pitch": 42, "duration": 10, "velocity": 77}, {"time": 151081, "pitch": 69, "duration": 10, "velocity": 47}, {"time": 151140, "pitch": 69, "duration": 10, "velocity": 6}, {"time": 151200, "pitch": 42, "duration": 10, "velocity": 97}, {"time": 151200, "pitch": 69, "duration": 10, "velocity": 53}, {"time": 151320, "pitch": 42, "duration": 10, "velocity": 58}, {"time": 151320, "pitch": 69, "duration": 10, "velocity": 12}, {"time": 151380, "pitch": 69, "duration": 10, "velocity": 59}, {"time": 151440, "pitch": 35, "duration": 10, "velocity": 101}, {"time": 151440, "pitch": 42, "duration": 10, "velocity": 125}, {"time": 151440, "pitch": 69, "duration": 10, "velocity": 47}, {"time": 151559, "pitch": 42, "duration": 10, "velocity": 54}, {"time": 151559, "pitch": 69, "duration": 10, "velocity": 13}, {"time": 151679, "pitch": 38, "duration": 10, "velocity": 109}, {"time": 151679, "pitch": 42, "duration": 10, "velocity": 104}, {"time": 151679, "pitch": 69, "duration": 10, "velocity": 53}, {"time": 151739, "pitch": 42, "duration": 10, "velocity": 51}, {"time": 151739, "pitch": 69, "duration": 10, "velocity": 14}, {"time": 151799, "pitch": 42, "duration": 10, "velocity": 37}, {"time": 151799, "pitch": 69, "duration": 10, "velocity": 28}, {"time": 151859, "pitch": 42, "duration": 10, "velocity": 42}, {"time": 151859, "pitch": 69, "duration": 10, "velocity": 59}, {"time": 151919, "pitch": 42, "duration": 10, "velocity": 77}, {"time": 151919, "pitch": 69, "duration": 10, "velocity": 36}, {"time": 152038, "pitch": 46, "duration": 10, "velocity": 64}, {"time": 152038, "pitch": 69, "duration": 10, "velocity": 12}, {"time": 152098, "pitch": 69, "duration": 10, "velocity": 47}, {"time": 152158, "pitch": 35, "duration": 10, "velocity": 92}, {"time": 152158, "pitch": 42, "duration": 10, "velocity": 114}, {"time": 152158, "pitch": 69, "duration": 10, "velocity": 84}, {"time": 152279, "pitch": 42, "duration": 10, "velocity": 58}, {"time": 152400, "pitch": 35, "duration": 10, "velocity": 92}, {"time": 152400, "pitch": 42, "duration": 10, "velocity": 81}, {"time": 152400, "pitch": 69, "duration": 10, "velocity": 31}, {"time": 152460, "pitch": 69, "duration": 10, "velocity": 20}, {"time": 152521, "pitch": 42, "duration": 10, "velocity": 43}, {"time": 152521, "pitch": 69, "duration": 10, "velocity": 24}, {"time": 152581, "pitch": 69, "duration": 10, "velocity": 24}, {"time": 152642, "pitch": 38, "duration": 10, "velocity": 109}, {"time": 152642, "pitch": 42, "duration": 10, "velocity": 61}, {"time": 152642, "pitch": 69, "duration": 10, "velocity": 59}, {"time": 152762, "pitch": 42, "duration": 10, "velocity": 58}, {"time": 152762, "pitch": 69, "duration": 10, "velocity": 17}, {"time": 152821, "pitch": 69, "duration": 10, "velocity": 53}, {"time": 152881, "pitch": 42, "duration": 10, "velocity": 61}, {"time": 153001, "pitch": 42, "duration": 10, "velocity": 58}, {"time": 153001, "pitch": 69, "duration": 10, "velocity": 47}, {"time": 153061, "pitch": 69, "duration": 10, "velocity": 6}, {"time": 153121, "pitch": 35, "duration": 10, "velocity": 101}, {"time": 153121, "pitch": 42, "duration": 10, "velocity": 104}, {"time": 153121, "pitch": 69, "duration": 10, "velocity": 53}, {"time": 153181, "pitch": 42, "duration": 10, "velocity": 51}, {"time": 153240, "pitch": 42, "duration": 10, "velocity": 37}, {"time": 153240, "pitch": 69, "duration": 10, "velocity": 12}, {"time": 153300, "pitch": 42, "duration": 10, "velocity": 42}, {"time": 153300, "pitch": 69, "duration": 10, "velocity": 59}, {"time": 153360, "pitch": 42, "duration": 10, "velocity": 58}, {"time": 153360, "pitch": 69, "duration": 10, "velocity": 47}, {"time": 153480, "pitch": 42, "duration": 10, "velocity": 89}, {"time": 153480, "pitch": 69, "duration": 10, "velocity": 13}, {"time": 153600, "pitch": 38, "duration": 9, "velocity": 101}, {"time": 153600, "pitch": 42, "duration": 9, "velocity": 46}, {"time": 153600, "pitch": 69, "duration": 9, "velocity": 53}, {"time": 153600, "pitch": 70, "duration": 9, "velocity": 63}, {"time": 153659, "pitch": 69, "duration": 10, "velocity": 14}, {"time": 153659, "pitch": 70, "duration": 10, "velocity": 78}, {"time": 153719, "pitch": 42, "duration": 10, "velocity": 66}, {"time": 153719, "pitch": 69, "duration": 10, "velocity": 28}, {"time": 153719, "pitch": 70, "duration": 10, "velocity": 86}, {"time": 153779, "pitch": 69, "duration": 10, "velocity": 59}, {"time": 153779, "pitch": 70, "duration": 10, "velocity": 93}, {"time": 153839, "pitch": 35, "duration": 10, "velocity": 92}, {"time": 153839, "pitch": 46, "duration": 10, "velocity": 50}, {"time": 153839, "pitch": 69, "duration": 10, "velocity": 36}, {"time": 153839, "pitch": 70, "duration": 10, "velocity": 70}, {"time": 153959, "pitch": 69, "duration": 10, "velocity": 12}, {"time": 154019, "pitch": 69, "duration": 9, "velocity": 47}, {"time": 154078, "pitch": 35, "duration": 10, "velocity": 101}, {"time": 154078, "pitch": 42, "duration": 10, "velocity": 106}, {"time": 154078, "pitch": 69, "duration": 10, "velocity": 84}, {"time": 154199, "pitch": 42, "duration": 10, "velocity": 53}, {"time": 154320, "pitch": 42, "duration": 10, "velocity": 66}, {"time": 154320, "pitch": 69, "duration": 10, "velocity": 31}, {"time": 154381, "pitch": 69, "duration": 10, "velocity": 20}, {"time": 154441, "pitch": 42, "duration": 10, "velocity": 82}, {"time": 154441, "pitch": 69, "duration": 10, "velocity": 24}, {"time": 154502, "pitch": 69, "duration": 10, "velocity": 24}, {"time": 154562, "pitch": 38, "duration": 10, "velocity": 109}, {"time": 154562, "pitch": 42, "duration": 10, "velocity": 52}, {"time": 154562, "pitch": 69, "duration": 10, "velocity": 59}, {"time": 154682, "pitch": 42, "duration": 10, "velocity": 77}, {"time": 154682, "pitch": 69, "duration": 10, "velocity": 17}, {"time": 154742, "pitch": 69, "duration": 10, "velocity": 53}, {"time": 154802, "pitch": 42, "duration": 10, "velocity": 114}, {"time": 154921, "pitch": 35, "duration": 10, "velocity": 84}, {"time": 154921, "pitch": 42, "duration": 10, "velocity": 77}, {"time": 154921, "pitch": 69, "duration": 10, "velocity": 47}, {"time": 154981, "pitch": 69, "duration": 10, "velocity": 6}, {"time": 155041, "pitch": 42, "duration": 10, "velocity": 97}, {"time": 155041, "pitch": 69, "duration": 10, "velocity": 53}, {"time": 155161, "pitch": 42, "duration": 10, "velocity": 58}, {"time": 155161, "pitch": 69, "duration": 10, "velocity": 12}, {"time": 155221, "pitch": 69, "duration": 10, "velocity": 59}, {"time": 155280, "pitch": 35, "duration": 10, "velocity": 101}, {"time": 155280, "pitch": 42, "duration": 10, "velocity": 125}, {"time": 155280, "pitch": 69, "duration": 10, "velocity": 47}, {"time": 155400, "pitch": 42, "duration": 10, "velocity": 54}, {"time": 155400, "pitch": 69, "duration": 10, "velocity": 13}, {"time": 155520, "pitch": 38, "duration": 10, "velocity": 109}, {"time": 155520, "pitch": 42, "duration": 10, "velocity": 104}, {"time": 155520, "pitch": 69, "duration": 10, "velocity": 53}, {"time": 155580, "pitch": 42, "duration": 10, "velocity": 51}, {"time": 155580, "pitch": 69, "duration": 10, "velocity": 14}, {"time": 155640, "pitch": 42, "duration": 10, "velocity": 37}, {"time": 155640, "pitch": 69, "duration": 10, "velocity": 28}, {"time": 155699, "pitch": 42, "duration": 10, "velocity": 42}, {"time": 155699, "pitch": 69, "duration": 10, "velocity": 59}, {"time": 155759, "pitch": 42, "duration": 10, "velocity": 77}, {"time": 155759, "pitch": 69, "duration": 10, "velocity": 36}, {"time": 155879, "pitch": 46, "duration": 10, "velocity": 64}, {"time": 155879, "pitch": 69, "duration": 10, "velocity": 12}, {"time": 155939, "pitch": 69, "duration": 10, "velocity": 47}, {"time": 155999, "pitch": 35, "duration": 10, "velocity": 92}, {"time": 155999, "pitch": 42, "duration": 10, "velocity": 114}, {"time": 155999, "pitch": 69, "duration": 10, "velocity": 84}, {"time": 156118, "pitch": 42, "duration": 10, "velocity": 58}, {"time": 156238, "pitch": 35, "duration": 10, "velocity": 92}, {"time": 156238, "pitch": 42, "duration": 10, "velocity": 81}, {"time": 156238, "pitch": 69, "duration": 10, "velocity": 31}, {"time": 156298, "pitch": 69, "duration": 10, "velocity": 20}, {"time": 156358, "pitch": 42, "duration": 10, "velocity": 43}, {"time": 156358, "pitch": 69, "duration": 10, "velocity": 24}, {"time": 156418, "pitch": 69, "duration": 10, "velocity": 24}, {"time": 156478, "pitch": 38, "duration": 10, "velocity": 109}, {"time": 156478, "pitch": 42, "duration": 10, "velocity": 61}, {"time": 156478, "pitch": 69, "duration": 10, "velocity": 59}, {"time": 156598, "pitch": 42, "duration": 11, "velocity": 58}, {"time": 156598, "pitch": 69, "duration": 11, "velocity": 17}, {"time": 156659, "pitch": 69, "duration": 10, "velocity": 53}, {"time": 156719, "pitch": 42, "duration": 11, "velocity": 61}, {"time": 156840, "pitch": 42, "duration": 10, "velocity": 58}, {"time": 156840, "pitch": 69, "duration": 10, "velocity": 47}, {"time": 156901, "pitch": 69, "duration": 10, "velocity": 6}, {"time": 156961, "pitch": 35, "duration": 10, "velocity": 101}, {"time": 156961, "pitch": 42, "duration": 10, "velocity": 104}, {"time": 156961, "pitch": 69, "duration": 10, "velocity": 53}, {"time": 157021, "pitch": 42, "duration": 10, "velocity": 51}, {"time": 157081, "pitch": 42, "duration": 10, "velocity": 37}, {"time": 157081, "pitch": 69, "duration": 10, "velocity": 12}, {"time": 157141, "pitch": 42, "duration": 10, "velocity": 42}, {"time": 157141, "pitch": 69, "duration": 10, "velocity": 59}, {"time": 157201, "pitch": 42, "duration": 10, "velocity": 58}, {"time": 157201, "pitch": 69, "duration": 10, "velocity": 47}, {"time": 157320, "pitch": 42, "duration": 10, "velocity": 89}, {"time": 157320, "pitch": 69, "duration": 10, "velocity": 13}, {"time": 157440, "pitch": 38, "duration": 10, "velocity": 107}, {"time": 157440, "pitch": 42, "duration": 10, "velocity": 46}, {"time": 157440, "pitch": 69, "duration": 10, "velocity": 53}, {"time": 157440, "pitch": 70, "duration": 10, "velocity": 63}, {"time": 157500, "pitch": 69, "duration": 10, "velocity": 14}, {"time": 157500, "pitch": 70, "duration": 10, "velocity": 78}, {"time": 157560, "pitch": 42, "duration": 10, "velocity": 66}, {"time": 157560, "pitch": 69, "duration": 10, "velocity": 28}, {"time": 157560, "pitch": 70, "duration": 10, "velocity": 86}, {"time": 157620, "pitch": 69, "duration": 10, "velocity": 59}, {"time": 157620, "pitch": 70, "duration": 10, "velocity": 93}, {"time": 157680, "pitch": 35, "duration": 10, "velocity": 92}, {"time": 157680, "pitch": 46, "duration": 10, "velocity": 50}, {"time": 157680, "pitch": 69, "duration": 10, "velocity": 36}, {"time": 157680, "pitch": 70, "duration": 10, "velocity": 70}, {"time": 157799, "pitch": 69, "duration": 10, "velocity": 12}, {"time": 157859, "pitch": 69, "duration": 10, "velocity": 47}, {"time": 157919, "pitch": 35, "duration": 10, "velocity": 101}, {"time": 157919, "pitch": 42, "duration": 10, "velocity": 106}, {"time": 157919, "pitch": 69, "duration": 10, "velocity": 84}, {"time": 158039, "pitch": 42, "duration": 10, "velocity": 53}, {"time": 158158, "pitch": 42, "duration": 10, "velocity": 66}, {"time": 158158, "pitch": 69, "duration": 10, "velocity": 31}, {"time": 158218, "pitch": 69, "duration": 10, "velocity": 20}, {"time": 158278, "pitch": 42, "duration": 10, "velocity": 82}, {"time": 158278, "pitch": 69, "duration": 10, "velocity": 24}, {"time": 158338, "pitch": 69, "duration": 10, "velocity": 24}, {"time": 158398, "pitch": 38, "duration": 10, "velocity": 98}, {"time": 158398, "pitch": 42, "duration": 10, "velocity": 52}, {"time": 158398, "pitch": 69, "duration": 10, "velocity": 59}, {"time": 158519, "pitch": 42, "duration": 10, "velocity": 77}, {"time": 158519, "pitch": 69, "duration": 10, "velocity": 17}, {"time": 158579, "pitch": 69, "duration": 10, "velocity": 53}, {"time": 158640, "pitch": 42, "duration": 10, "velocity": 114}, {"time": 158761, "pitch": 35, "duration": 10, "velocity": 84}, {"time": 158761, "pitch": 42, "duration": 10, "velocity": 77}, {"time": 158761, "pitch": 69, "duration": 10, "velocity": 47}, {"time": 158821, "pitch": 69, "duration": 10, "velocity": 6}, {"time": 158882, "pitch": 42, "duration": 10, "velocity": 97}, {"time": 158882, "pitch": 69, "duration": 10, "velocity": 53}, {"time": 159001, "pitch": 42, "duration": 10, "velocity": 58}, {"time": 159001, "pitch": 69, "duration": 10, "velocity": 12}, {"time": 159061, "pitch": 69, "duration": 10, "velocity": 59}, {"time": 159121, "pitch": 35, "duration": 10, "velocity": 101}, {"time": 159121, "pitch": 42, "duration": 10, "velocity": 125}, {"time": 159121, "pitch": 69, "duration": 10, "velocity": 47}, {"time": 159241, "pitch": 42, "duration": 10, "velocity": 54}, {"time": 159241, "pitch": 69, "duration": 10, "velocity": 13}, {"time": 159361, "pitch": 38, "duration": 10, "velocity": 109}, {"time": 159361, "pitch": 42, "duration": 10, "velocity": 104}, {"time": 159361, "pitch": 69, "duration": 10, "velocity": 53}, {"time": 159420, "pitch": 42, "duration": 10, "velocity": 51}, {"time": 159420, "pitch": 69, "duration": 10, "velocity": 14}, {"time": 159480, "pitch": 42, "duration": 10, "velocity": 37}, {"time": 159480, "pitch": 69, "duration": 10, "velocity": 28}, {"time": 159540, "pitch": 42, "duration": 10, "velocity": 42}, {"time": 159540, "pitch": 69, "duration": 10, "velocity": 59}, {"time": 159600, "pitch": 42, "duration": 10, "velocity": 77}, {"time": 159600, "pitch": 69, "duration": 10, "velocity": 36}, {"time": 159720, "pitch": 46, "duration": 10, "velocity": 64}, {"time": 159720, "pitch": 69, "duration": 10, "velocity": 12}, {"time": 159780, "pitch": 69, "duration": 10, "velocity": 47}, {"time": 159839, "pitch": 35, "duration": 10, "velocity": 92}, {"time": 159839, "pitch": 42, "duration": 10, "velocity": 114}, {"time": 159839, "pitch": 69, "duration": 10, "velocity": 84}, {"time": 159959, "pitch": 42, "duration": 10, "velocity": 58}, {"time": 160079, "pitch": 35, "duration": 10, "velocity": 92}, {"time": 160079, "pitch": 42, "duration": 10, "velocity": 81}, {"time": 160079, "pitch": 69, "duration": 10, "velocity": 31}, {"time": 160139, "pitch": 69, "duration": 10, "velocity": 20}, {"time": 160199, "pitch": 42, "duration": 10, "velocity": 43}, {"time": 160199, "pitch": 69, "duration": 10, "velocity": 24}, {"time": 160258, "pitch": 69, "duration": 10, "velocity": 24}, {"time": 160318, "pitch": 38, "duration": 10, "velocity": 109}, {"time": 160318, "pitch": 42, "duration": 10, "velocity": 61}, {"time": 160318, "pitch": 69, "duration": 10, "velocity": 59}, {"time": 160439, "pitch": 42, "duration": 10, "velocity": 58}, {"time": 160439, "pitch": 69, "duration": 10, "velocity": 17}, {"time": 160500, "pitch": 69, "duration": 10, "velocity": 53}, {"time": 160560, "pitch": 42, "duration": 10, "velocity": 61}, {"time": 160681, "pitch": 42, "duration": 10, "velocity": 58}, {"time": 160681, "pitch": 69, "duration": 10, "velocity": 47}, {"time": 160742, "pitch": 69, "duration": 10, "velocity": 6}, {"time": 160802, "pitch": 35, "duration": 10, "velocity": 101}, {"time": 160802, "pitch": 42, "duration": 10, "velocity": 104}, {"time": 160802, "pitch": 69, "duration": 10, "velocity": 53}, {"time": 160862, "pitch": 42, "duration": 10, "velocity": 51}, {"time": 160922, "pitch": 42, "duration": 10, "velocity": 37}, {"time": 160922, "pitch": 69, "duration": 10, "velocity": 12}, {"time": 160982, "pitch": 42, "duration": 10, "velocity": 42}, {"time": 160982, "pitch": 69, "duration": 10, "velocity": 59}, {"time": 161041, "pitch": 42, "duration": 10, "velocity": 58}, {"time": 161041, "pitch": 69, "duration": 10, "velocity": 47}, {"time": 161161, "pitch": 42, "duration": 10, "velocity": 89}, {"time": 161161, "pitch": 69, "duration": 10, "velocity": 13}, {"time": 161281, "pitch": 38, "duration": 10, "velocity": 107}, {"time": 161281, "pitch": 42, "duration": 10, "velocity": 46}, {"time": 161281, "pitch": 69, "duration": 10, "velocity": 53}, {"time": 161281, "pitch": 70, "duration": 10, "velocity": 63}, {"time": 161341, "pitch": 69, "duration": 10, "velocity": 14}, {"time": 161341, "pitch": 70, "duration": 10, "velocity": 78}, {"time": 161401, "pitch": 42, "duration": 10, "velocity": 66}, {"time": 161401, "pitch": 69, "duration": 10, "velocity": 28}, {"time": 161401, "pitch": 70, "duration": 10, "velocity": 86}, {"time": 161460, "pitch": 69, "duration": 10, "velocity": 59}, {"time": 161460, "pitch": 70, "duration": 10, "velocity": 93}, {"time": 161520, "pitch": 35, "duration": 10, "velocity": 92}, {"time": 161520, "pitch": 46, "duration": 10, "velocity": 50}, {"time": 161520, "pitch": 69, "duration": 10, "velocity": 36}, {"time": 161520, "pitch": 70, "duration": 10, "velocity": 70}, {"time": 161640, "pitch": 69, "duration": 10, "velocity": 12}, {"time": 161700, "pitch": 69, "duration": 10, "velocity": 47}, {"time": 161760, "pitch": 35, "duration": 10, "velocity": 101}, {"time": 161760, "pitch": 42, "duration": 10, "velocity": 106}, {"time": 161760, "pitch": 69, "duration": 10, "velocity": 84}, {"time": 161879, "pitch": 42, "duration": 10, "velocity": 53}, {"time": 161999, "pitch": 42, "duration": 10, "velocity": 66}, {"time": 161999, "pitch": 69, "duration": 10, "velocity": 31}, {"time": 162059, "pitch": 69, "duration": 10, "velocity": 20}, {"time": 162119, "pitch": 42, "duration": 10, "velocity": 82}, {"time": 162119, "pitch": 69, "duration": 10, "velocity": 24}, {"time": 162179, "pitch": 69, "duration": 10, "velocity": 24}, {"time": 162239, "pitch": 38, "duration": 10, "velocity": 109}, {"time": 162239, "pitch": 42, "duration": 10, "velocity": 52}, {"time": 162239, "pitch": 69, "duration": 10, "velocity": 59}, {"time": 162360, "pitch": 42, "duration": 10, "velocity": 77}, {"time": 162360, "pitch": 69, "duration": 10, "velocity": 17}, {"time": 162420, "pitch": 69, "duration": 10, "velocity": 53}, {"time": 162481, "pitch": 42, "duration": 10, "velocity": 114}, {"time": 162601, "pitch": 35, "duration": 11, "velocity": 84}, {"time": 162601, "pitch": 42, "duration": 11, "velocity": 77}, {"time": 162601, "pitch": 69, "duration": 11, "velocity": 47}, {"time": 162722, "pitch": 42, "duration": 10, "velocity": 97}, {"time": 162842, "pitch": 42, "duration": 10, "velocity": 58}, {"time": 162962, "pitch": 35, "duration": 10, "velocity": 101}, {"time": 162962, "pitch": 42, "duration": 10, "velocity": 125}, {"time": 163082, "pitch": 42, "duration": 10, "velocity": 54}, {"time": 163201, "pitch": 38, "duration": 10, "velocity": 107}, {"time": 163201, "pitch": 42, "duration": 10, "velocity": 104}, {"time": 163261, "pitch": 42, "duration": 10, "velocity": 51}, {"time": 163321, "pitch": 42, "duration": 10, "velocity": 37}, {"time": 163381, "pitch": 42, "duration": 10, "velocity": 42}, {"time": 163441, "pitch": 42, "duration": 10, "velocity": 77}, {"time": 163560, "pitch": 42, "duration": 10, "velocity": 40}, {"time": 163680, "pitch": 35, "duration": 10, "velocity": 92}, {"time": 163680, "pitch": 42, "duration": 10, "velocity": 114}, {"time": 163800, "pitch": 42, "duration": 10, "velocity": 58}, {"time": 163920, "pitch": 35, "duration": 9, "velocity": 92}, {"time": 163920, "pitch": 42, "duration": 9, "velocity": 81}, {"time": 164039, "pitch": 42, "duration": 10, "velocity": 43}, {"time": 164159, "pitch": 38, "duration": 10, "velocity": 120}, {"time": 164159, "pitch": 42, "duration": 10, "velocity": 61}, {"time": 164279, "pitch": 42, "duration": 10, "velocity": 58}, {"time": 164398, "pitch": 35, "duration": 10, "velocity": 101}, {"time": 164398, "pitch": 38, "duration": 10, "velocity": 120}, {"time": 164398, "pitch": 42, "duration": 10, "velocity": 61}, {"time": 164518, "pitch": 38, "duration": 10, "velocity": 109}, {"time": 164518, "pitch": 42, "duration": 10, "velocity": 58}, {"time": 165481, "pitch": 51, "duration": 10, "velocity": 33}, {"time": 165521, "pitch": 51, "duration": 10, "velocity": 36}, {"time": 165561, "pitch": 51, "duration": 10, "velocity": 52}, {"time": 165600, "pitch": 80, "duration": 50, "velocity": 77}, {"time": 165720, "pitch": 80, "duration": 60, "velocity": 66}, {"time": 165840, "pitch": 81, "duration": 80, "velocity": 50}, {"time": 165960, "pitch": 80, "duration": 69, "velocity": 52}, {"time": 166199, "pitch": 81, "duration": 450, "velocity": 45}, {"time": 167042, "pitch": 54, "duration": 60, "velocity": 83}, {"time": 168599, "pitch": 80, "duration": 61, "velocity": 83}, {"time": 168720, "pitch": 81, "duration": 61, "velocity": 58}, {"time": 168841, "pitch": 80, "duration": 61, "velocity": 77}, {"time": 169082, "pitch": 81, "duration": 70, "velocity": 58}, {"time": 169441, "pitch": 80, "duration": 50, "velocity": 77}, {"time": 169561, "pitch": 80, "duration": 60, "velocity": 66}, {"time": 169681, "pitch": 81, "duration": 79, "velocity": 50}, {"time": 169800, "pitch": 80, "duration": 70, "velocity": 52}, {"time": 170040, "pitch": 81, "duration": 449, "velocity": 45}, {"time": 480, "pitch": 46, "duration": 1921, "velocity": 80}, {"time": 480, "pitch": 58, "duration": 1921, "velocity": 80}, {"time": 480, "pitch": 62, "duration": 1921, "velocity": 80}, {"time": 480, "pitch": 65, "duration": 1921, "velocity": 80}, {"time": 2401, "pitch": 51, "duration": 1920, "velocity": 80}, {"time": 2401, "pitch": 55, "duration": 1920, "velocity": 80}, {"time": 2401, "pitch": 58, "duration": 1920, "velocity": 80}, {"time": 2401, "pitch": 62, "duration": 957, "velocity": 80}, {"time": 4321, "pitch": 46, "duration": 1920, "velocity": 80}, {"time": 4321, "pitch": 58, "duration": 1920, "velocity": 80}, {"time": 4321, "pitch": 62, "duration": 1920, "velocity": 80}, {"time": 4321, "pitch": 65, "duration": 1920, "velocity": 80}, {"time": 6241, "pitch": 51, "duration": 719, "velocity": 80}, {"time": 6241, "pitch": 55, "duration": 719, "velocity": 80}, {"time": 6241, "pitch": 58, "duration": 719, "velocity": 80}, {"time": 6241, "pitch": 62, "duration": 340, "velocity": 80}, {"time": 6960, "pitch": 41, "duration": 1182, "velocity": 64}, {"time": 6960, "pitch": 51, "duration": 1182, "velocity": 80}, {"time": 6960, "pitch": 55, "duration": 1182, "velocity": 80}, {"time": 6960, "pitch": 58, "duration": 1182, "velocity": 80}, {"time": 8162, "pitch": 34, "duration": 718, "velocity": 82}, {"time": 8162, "pitch": 53, "duration": 479, "velocity": 80}, {"time": 8162, "pitch": 60, "duration": 479, "velocity": 80}, {"time": 8162, "pitch": 62, "duration": 479, "velocity": 80}, {"time": 8162, "pitch": 65, "duration": 479, "velocity": 80}, {"time": 8641, "pitch": 58, "duration": 478, "velocity": 80}, {"time": 8641, "pitch": 62, "duration": 478, "velocity": 80}, {"time": 8641, "pitch": 65, "duration": 478, "velocity": 80}, {"time": 8880, "pitch": 31, "duration": 239, "velocity": 82}, {"time": 8880, "pitch": 55, "duration": 239, "velocity": 80}, {"time": 9119, "pitch": 36, "duration": 479, "velocity": 82}, {"time": 9119, "pitch": 55, "duration": 479, "velocity": 80}, {"time": 9119, "pitch": 58, "duration": 479, "velocity": 80}, {"time": 9119, "pitch": 62, "duration": 479, "velocity": 80}, {"time": 9119, "pitch": 63, "duration": 479, "velocity": 80}, {"time": 9598, "pitch": 36, "duration": 484, "velocity": 82}, {"time": 9598, "pitch": 55, "duration": 484, "velocity": 80}, {"time": 9598, "pitch": 58, "duration": 484, "velocity": 80}, {"time": 9598, "pitch": 60, "duration": 484, "velocity": 80}, {"time": 9598, "pitch": 63, "duration": 484, "velocity": 80}, {"time": 10082, "pitch": 36, "duration": 479, "velocity": 82}, {"time": 10082, "pitch": 54, "duration": 479, "velocity": 80}, {"time": 10082, "pitch": 58, "duration": 479, "velocity": 80}, {"time": 10082, "pitch": 60, "duration": 479, "velocity": 80}, {"time": 10082, "pitch": 63, "duration": 479, "velocity": 80}, {"time": 10561, "pitch": 29, "duration": 479, "velocity": 82}, {"time": 10561, "pitch": 53, "duration": 479, "velocity": 80}, {"time": 10561, "pitch": 57, "duration": 479, "velocity": 80}, {"time": 10561, "pitch": 60, "duration": 479, "velocity": 80}, {"time": 10561, "pitch": 63, "duration": 479, "velocity": 80}, {"time": 11040, "pitch": 34, "duration": 479, "velocity": 82}, {"time": 11040, "pitch": 53, "duration": 479, "velocity": 80}, {"time": 11040, "pitch": 55, "duration": 479, "velocity": 80}, {"time": 11040, "pitch": 60, "duration": 479, "velocity": 80}, {"time": 11040, "pitch": 62, "duration": 479, "velocity": 80}, {"time": 11519, "pitch": 34, "duration": 483, "velocity": 82}, {"time": 11519, "pitch": 53, "duration": 483, "velocity": 80}, {"time": 11519, "pitch": 55, "duration": 483, "velocity": 80}, {"time": 11519, "pitch": 58, "duration": 483, "velocity": 80}, {"time": 11519, "pitch": 62, "duration": 483, "velocity": 80}, {"time": 12002, "pitch": 38, "duration": 479, "velocity": 82}, {"time": 12002, "pitch": 53, "duration": 479, "velocity": 80}, {"time": 12002, "pitch": 57, "duration": 479, "velocity": 80}, {"time": 12002, "pitch": 60, "duration": 479, "velocity": 80}, {"time": 12002, "pitch": 62, "duration": 479, "velocity": 80}, {"time": 12481, "pitch": 38, "duration": 479, "velocity": 82}, {"time": 12481, "pitch": 57, "duration": 479, "velocity": 80}, {"time": 12481, "pitch": 60, "duration": 479, "velocity": 80}, {"time": 12481, "pitch": 62, "duration": 479, "velocity": 80}, {"time": 12481, "pitch": 65, "duration": 479, "velocity": 80}, {"time": 12960, "pitch": 31, "duration": 479, "velocity": 82}, {"time": 12960, "pitch": 55, "duration": 479, "velocity": 80}, {"time": 12960, "pitch": 58, "duration": 479, "velocity": 80}, {"time": 12960, "pitch": 62, "duration": 479, "velocity": 80}, {"time": 12960, "pitch": 65, "duration": 479, "velocity": 80}, {"time": 13439, "pitch": 31, "duration": 479, "velocity": 82}, {"time": 13439, "pitch": 58, "duration": 479, "velocity": 80}, {"time": 13439, "pitch": 62, "duration": 479, "velocity": 80}, {"time": 13439, "pitch": 65, "duration": 479, "velocity": 80}, {"time": 13439, "pitch": 67, "duration": 479, "velocity": 80}, {"time": 13918, "pitch": 29, "duration": 484, "velocity": 82}, {"time": 13918, "pitch": 51, "duration": 484, "velocity": 80}, {"time": 13918, "pitch": 55, "duration": 484, "velocity": 80}, {"time": 13918, "pitch": 58, "duration": 484, "velocity": 80}, {"time": 13918, "pitch": 62, "duration": 484, "velocity": 80}, {"time": 14402, "pitch": 29, "duration": 478, "velocity": 82}, {"time": 14402, "pitch": 51, "duration": 478, "velocity": 80}, {"time": 14402, "pitch": 55, "duration": 478, "velocity": 80}, {"time": 14402, "pitch": 58, "duration": 478, "velocity": 80}, {"time": 14402, "pitch": 60, "duration": 478, "velocity": 80}, {"time": 14880, "pitch": 29, "duration": 479, "velocity": 82}, {"time": 14880, "pitch": 51, "duration": 479, "velocity": 80}, {"time": 14880, "pitch": 55, "duration": 479, "velocity": 80}, {"time": 14880, "pitch": 58, "duration": 479, "velocity": 80}, {"time": 14880, "pitch": 62, "duration": 479, "velocity": 80}, {"time": 15359, "pitch": 39, "duration": 479, "velocity": 82}, {"time": 15359, "pitch": 51, "duration": 479, "velocity": 80}, {"time": 15359, "pitch": 54, "duration": 479, "velocity": 80}, {"time": 15359, "pitch": 58, "duration": 479, "velocity": 80}, {"time": 15359, "pitch": 60, "duration": 479, "velocity": 80}, {"time": 15359, "pitch": 63, "duration": 479, "velocity": 80}, {"time": 15838, "pitch": 38, "duration": 484, "velocity": 82}, {"time": 15838, "pitch": 53, "duration": 484, "velocity": 80}, {"time": 15838, "pitch": 56, "duration": 484, "velocity": 80}, {"time": 15838, "pitch": 60, "duration": 484, "velocity": 80}, {"time": 15838, "pitch": 62, "duration": 484, "velocity": 80}, {"time": 16322, "pitch": 38, "duration": 479, "velocity": 82}, {"time": 16322, "pitch": 56, "duration": 479, "velocity": 80}, {"time": 16322, "pitch": 60, "duration": 479, "velocity": 80}, {"time": 16322, "pitch": 62, "duration": 479, "velocity": 80}, {"time": 16322, "pitch": 65, "duration": 479, "velocity": 80}, {"time": 16801, "pitch": 31, "duration": 479, "velocity": 82}, {"time": 16801, "pitch": 56, "duration": 479, "velocity": 80}, {"time": 16801, "pitch": 59, "duration": 479, "velocity": 80}, {"time": 16801, "pitch": 62, "duration": 479, "velocity": 80}, {"time": 16801, "pitch": 65, "duration": 479, "velocity": 80}, {"time": 17280, "pitch": 31, "duration": 479, "velocity": 82}, {"time": 17280, "pitch": 53, "duration": 479, "velocity": 80}, {"time": 17280, "pitch": 55, "duration": 479, "velocity": 80}, {"time": 17280, "pitch": 59, "duration": 479, "velocity": 80}, {"time": 17280, "pitch": 62, "duration": 479, "velocity": 80}, {"time": 17759, "pitch": 36, "duration": 483, "velocity": 82}, {"time": 17759, "pitch": 54, "duration": 962, "velocity": 80}, {"time": 17759, "pitch": 58, "duration": 962, "velocity": 80}, {"time": 17759, "pitch": 60, "duration": 962, "velocity": 80}, {"time": 17759, "pitch": 63, "duration": 962, "velocity": 80}, {"time": 18242, "pitch": 36, "duration": 479, "velocity": 82}, {"time": 18721, "pitch": 29, "duration": 479, "velocity": 82}, {"time": 18721, "pitch": 53, "duration": 479, "velocity": 80}, {"time": 18721, "pitch": 57, "duration": 479, "velocity": 80}, {"time": 18721, "pitch": 60, "duration": 479, "velocity": 80}, {"time": 18721, "pitch": 63, "duration": 479, "velocity": 80}, {"time": 19200, "pitch": 28, "duration": 479, "velocity": 82}, {"time": 19200, "pitch": 52, "duration": 479, "velocity": 80}, {"time": 19200, "pitch": 56, "duration": 479, "velocity": 80}, {"time": 19200, "pitch": 59, "duration": 479, "velocity": 80}, {"time": 19200, "pitch": 62, "duration": 479, "velocity": 80}, {"time": 19679, "pitch": 27, "duration": 479, "velocity": 82}, {"time": 19679, "pitch": 51, "duration": 479, "velocity": 80}, {"time": 19679, "pitch": 55, "duration": 479, "velocity": 80}, {"time": 19679, "pitch": 58, "duration": 479, "velocity": 80}, {"time": 19679, "pitch": 62, "duration": 479, "velocity": 80}, {"time": 20158, "pitch": 27, "duration": 484, "velocity": 82}, {"time": 20158, "pitch": 51, "duration": 484, "velocity": 80}, {"time": 20158, "pitch": 55, "duration": 484, "velocity": 80}, {"time": 20158, "pitch": 58, "duration": 484, "velocity": 80}, {"time": 20158, "pitch": 62, "duration": 484, "velocity": 80}, {"time": 20642, "pitch": 24, "duration": 478, "velocity": 82}, {"time": 20642, "pitch": 52, "duration": 478, "velocity": 80}, {"time": 20642, "pitch": 55, "duration": 478, "velocity": 80}, {"time": 20642, "pitch": 58, "duration": 478, "velocity": 80}, {"time": 20642, "pitch": 62, "duration": 478, "velocity": 80}, {"time": 21120, "pitch": 28, "duration": 479, "velocity": 82}, {"time": 21120, "pitch": 52, "duration": 479, "velocity": 80}, {"time": 21120, "pitch": 55, "duration": 479, "velocity": 80}, {"time": 21120, "pitch": 58, "duration": 479, "velocity": 80}, {"time": 21120, "pitch": 60, "duration": 479, "velocity": 80}, {"time": 21599, "pitch": 29, "duration": 479, "velocity": 82}, {"time": 21599, "pitch": 51, "duration": 479, "velocity": 80}, {"time": 21599, "pitch": 55, "duration": 479, "velocity": 80}, {"time": 21599, "pitch": 58, "duration": 479, "velocity": 80}, {"time": 21599, "pitch": 60, "duration": 479, "velocity": 80}, {"time": 22078, "pitch": 29, "duration": 484, "velocity": 82}, {"time": 22078, "pitch": 55, "duration": 484, "velocity": 80}, {"time": 22078, "pitch": 58, "duration": 484, "velocity": 80}, {"time": 22078, "pitch": 60, "duration": 484, "velocity": 80}, {"time": 22078, "pitch": 63, "duration": 484, "velocity": 80}, {"time": 22562, "pitch": 29, "duration": 479, "velocity": 82}, {"time": 22562, "pitch": 53, "duration": 958, "velocity": 80}, {"time": 22562, "pitch": 57, "duration": 958, "velocity": 80}, {"time": 22562, "pitch": 60, "duration": 958, "velocity": 80}, {"time": 22562, "pitch": 63, "duration": 958, "velocity": 80}, {"time": 23041, "pitch": 29, "duration": 479, "velocity": 82}, {"time": 23520, "pitch": 26, "duration": 478, "velocity": 82}, {"time": 23520, "pitch": 57, "duration": 478, "velocity": 80}, {"time": 23520, "pitch": 60, "duration": 478, "velocity": 80}, {"time": 23520, "pitch": 62, "duration": 478, "velocity": 80}, {"time": 23520, "pitch": 65, "duration": 478, "velocity": 80}, {"time": 23998, "pitch": 31, "duration": 484, "velocity": 82}, {"time": 23998, "pitch": 55, "duration": 484, "velocity": 80}, {"time": 23998, "pitch": 58, "duration": 484, "velocity": 80}, {"time": 23998, "pitch": 62, "duration": 484, "velocity": 80}, {"time": 23998, "pitch": 65, "duration": 484, "velocity": 80}, {"time": 24482, "pitch": 24, "duration": 479, "velocity": 82}, {"time": 24482, "pitch": 55, "duration": 479, "velocity": 80}, {"time": 24482, "pitch": 58, "duration": 479, "velocity": 80}, {"time": 24482, "pitch": 62, "duration": 479, "velocity": 80}, {"time": 24482, "pitch": 63, "duration": 479, "velocity": 80}, {"time": 24961, "pitch": 24, "duration": 479, "velocity": 82}, {"time": 24961, "pitch": 55, "duration": 479, "velocity": 80}, {"time": 24961, "pitch": 58, "duration": 479, "velocity": 80}, {"time": 24961, "pitch": 60, "duration": 479, "velocity": 80}, {"time": 24961, "pitch": 63, "duration": 479, "velocity": 80}, {"time": 25440, "pitch": 27, "duration": 479, "velocity": 82}, {"time": 25440, "pitch": 54, "duration": 479, "velocity": 80}, {"time": 25440, "pitch": 58, "duration": 479, "velocity": 80}, {"time": 25440, "pitch": 60, "duration": 479, "velocity": 80}, {"time": 25440, "pitch": 63, "duration": 479, "velocity": 80}, {"time": 25919, "pitch": 29, "duration": 479, "velocity": 82}, {"time": 25919, "pitch": 53, "duration": 479, "velocity": 80}, {"time": 25919, "pitch": 57, "duration": 479, "velocity": 80}, {"time": 25919, "pitch": 60, "duration": 479, "velocity": 80}, {"time": 25919, "pitch": 63, "duration": 479, "velocity": 80}, {"time": 26398, "pitch": 22, "duration": 483, "velocity": 82}, {"time": 26398, "pitch": 53, "duration": 483, "velocity": 80}, {"time": 26398, "pitch": 55, "duration": 483, "velocity": 80}, {"time": 26398, "pitch": 60, "duration": 483, "velocity": 80}, {"time": 26398, "pitch": 62, "duration": 483, "velocity": 80}, {"time": 26881, "pitch": 22, "duration": 479, "velocity": 82}, {"time": 26881, "pitch": 53, "duration": 479, "velocity": 80}, {"time": 26881, "pitch": 55, "duration": 479, "velocity": 80}, {"time": 26881, "pitch": 58, "duration": 479, "velocity": 80}, {"time": 26881, "pitch": 62, "duration": 479, "velocity": 80}, {"time": 27360, "pitch": 27, "duration": 479, "velocity": 82}, {"time": 27360, "pitch": 51, "duration": 958, "velocity": 80}, {"time": 27360, "pitch": 58, "duration": 958, "velocity": 80}, {"time": 27360, "pitch": 62, "duration": 958, "velocity": 80}, {"time": 27360, "pitch": 67, "duration": 958, "velocity": 80}, {"time": 27839, "pitch": 27, "duration": 479, "velocity": 82}, {"time": 28318, "pitch": 27, "duration": 484, "velocity": 82}, {"time": 28318, "pitch": 51, "duration": 963, "velocity": 80}, {"time": 28318, "pitch": 57, "duration": 963, "velocity": 80}, {"time": 28318, "pitch": 61, "duration": 963, "velocity": 80}, {"time": 28318, "pitch": 66, "duration": 963, "velocity": 80}, {"time": 28802, "pitch": 27, "duration": 479, "velocity": 82}, {"time": 29281, "pitch": 26, "duration": 478, "velocity": 82}, {"time": 29281, "pitch": 50, "duration": 957, "velocity": 80}, {"time": 29281, "pitch": 57, "duration": 957, "velocity": 80}, {"time": 29281, "pitch": 60, "duration": 957, "velocity": 80}, {"time": 29281, "pitch": 65, "duration": 957, "velocity": 80}, {"time": 29759, "pitch": 26, "duration": 479, "velocity": 82}, {"time": 30238, "pitch": 31, "duration": 484, "velocity": 82}, {"time": 30238, "pitch": 55, "duration": 484, "velocity": 80}, {"time": 30238, "pitch": 58, "duration": 484, "velocity": 80}, {"time": 30238, "pitch": 62, "duration": 484, "velocity": 80}, {"time": 30238, "pitch": 65, "duration": 484, "velocity": 80}, {"time": 30722, "pitch": 29, "duration": 479, "velocity": 82}, {"time": 30722, "pitch": 53, "duration": 479, "velocity": 80}, {"time": 30722, "pitch": 56, "duration": 479, "velocity": 80}, {"time": 30722, "pitch": 60, "duration": 479, "velocity": 80}, {"time": 30722, "pitch": 63, "duration": 479, "velocity": 80}, {"time": 31201, "pitch": 28, "duration": 479, "velocity": 82}, {"time": 31201, "pitch": 52, "duration": 958, "velocity": 80}, {"time": 31201, "pitch": 58, "duration": 958, "velocity": 80}, {"time": 31201, "pitch": 62, "duration": 958, "velocity": 80}, {"time": 31201, "pitch": 67, "duration": 958, "velocity": 80}, {"time": 31680, "pitch": 28, "duration": 479, "velocity": 82}, {"time": 32159, "pitch": 27, "duration": 483, "velocity": 82}, {"time": 32159, "pitch": 51, "duration": 962, "velocity": 80}, {"time": 32159, "pitch": 58, "duration": 962, "velocity": 80}, {"time": 32159, "pitch": 61, "duration": 962, "velocity": 80}, {"time": 32159, "pitch": 67, "duration": 962, "velocity": 80}, {"time": 32642, "pitch": 27, "duration": 479, "velocity": 82}, {"time": 33121, "pitch": 26, "duration": 479, "velocity": 82}, {"time": 33121, "pitch": 50, "duration": 958, "velocity": 80}, {"time": 33121, "pitch": 57, "duration": 958, "velocity": 80}, {"time": 33121, "pitch": 60, "duration": 958, "velocity": 80}, {"time": 33121, "pitch": 65, "duration": 958, "velocity": 80}, {"time": 33600, "pitch": 26, "duration": 479, "velocity": 82}, {"time": 34079, "pitch": 31, "duration": 479, "velocity": 82}, {"time": 34079, "pitch": 55, "duration": 963, "velocity": 80}, {"time": 34079, "pitch": 58, "duration": 963, "velocity": 80}, {"time": 34079, "pitch": 62, "duration": 963, "velocity": 80}, {"time": 34079, "pitch": 65, "duration": 963, "velocity": 80}, {"time": 34558, "pitch": 31, "duration": 484, "velocity": 82}, {"time": 35042, "pitch": 27, "duration": 478, "velocity": 82}, {"time": 35042, "pitch": 51, "duration": 957, "velocity": 80}, {"time": 35042, "pitch": 55, "duration": 957, "velocity": 80}, {"time": 35042, "pitch": 58, "duration": 957, "velocity": 80}, {"time": 35042, "pitch": 62, "duration": 957, "velocity": 80}, {"time": 35520, "pitch": 27, "duration": 479, "velocity": 82}, {"time": 35999, "pitch": 26, "duration": 479, "velocity": 82}, {"time": 35999, "pitch": 50, "duration": 963, "velocity": 80}, {"time": 35999, "pitch": 53, "duration": 963, "velocity": 80}, {"time": 35999, "pitch": 57, "duration": 963, "velocity": 80}, {"time": 35999, "pitch": 60, "duration": 963, "velocity": 80}, {"time": 36478, "pitch": 26, "duration": 484, "velocity": 82}, {"time": 36962, "pitch": 24, "duration": 479, "velocity": 82}, {"time": 36962, "pitch": 48, "duration": 958, "velocity": 80}, {"time": 36962, "pitch": 51, "duration": 958, "velocity": 80}, {"time": 36962, "pitch": 55, "duration": 958, "velocity": 80}, {"time": 36962, "pitch": 58, "duration": 958, "velocity": 80}, {"time": 37441, "pitch": 24, "duration": 479, "velocity": 82}, {"time": 37920, "pitch": 22, "duration": 479, "velocity": 82}, {"time": 37920, "pitch": 46, "duration": 962, "velocity": 80}, {"time": 37920, "pitch": 50, "duration": 962, "velocity": 80}, {"time": 37920, "pitch": 53, "duration": 962, "velocity": 80}, {"time": 37920, "pitch": 57, "duration": 962, "velocity": 80}, {"time": 37920, "pitch": 60, "duration": 962, "velocity": 80}, {"time": 38399, "pitch": 22, "duration": 483, "velocity": 82}, {"time": 38882, "pitch": 21, "duration": 479, "velocity": 82}, {"time": 38882, "pitch": 45, "duration": 1916, "velocity": 80}, {"time": 38882, "pitch": 52, "duration": 1916, "velocity": 80}, {"time": 38882, "pitch": 55, "duration": 1916, "velocity": 80}, {"time": 38882, "pitch": 57, "duration": 1916, "velocity": 80}, {"time": 38882, "pitch": 62, "duration": 1916, "velocity": 80}, {"time": 39361, "pitch": 21, "duration": 479, "velocity": 82}, {"time": 39840, "pitch": 21, "duration": 479, "velocity": 82}, {"time": 40319, "pitch": 21, "duration": 479, "velocity": 82}, {"time": 40798, "pitch": 26, "duration": 484, "velocity": 82}, {"time": 40798, "pitch": 50, "duration": 1920, "velocity": 80}, {"time": 40798, "pitch": 54, "duration": 1920, "velocity": 80}, {"time": 40798, "pitch": 57, "duration": 1920, "velocity": 80}, {"time": 40798, "pitch": 62, "duration": 1920, "velocity": 80}, {"time": 41282, "pitch": 26, "duration": 478, "velocity": 82}, {"time": 41760, "pitch": 26, "duration": 479, "velocity": 82}, {"time": 42239, "pitch": 26, "duration": 479, "velocity": 82}, {"time": 42718, "pitch": 22, "duration": 484, "velocity": 82}, {"time": 42718, "pitch": 46, "duration": 1920, "velocity": 80}, {"time": 42718, "pitch": 53, "duration": 1920, "velocity": 80}, {"time": 42718, "pitch": 57, "duration": 1920, "velocity": 80}, {"time": 42718, "pitch": 60, "duration": 1920, "velocity": 80}, {"time": 42718, "pitch": 62, "duration": 1920, "velocity": 80}, {"time": 43202, "pitch": 22, "duration": 479, "velocity": 82}, {"time": 43681, "pitch": 22, "duration": 479, "velocity": 82}, {"time": 44160, "pitch": 22, "duration": 478, "velocity": 82}, {"time": 44638, "pitch": 21, "duration": 484, "velocity": 82}, {"time": 44638, "pitch": 45, "duration": 1921, "velocity": 80}, {"time": 44638, "pitch": 52, "duration": 1921, "velocity": 80}, {"time": 44638, "pitch": 55, "duration": 1921, "velocity": 80}, {"time": 44638, "pitch": 60, "duration": 1921, "velocity": 80}, {"time": 45122, "pitch": 21, "duration": 479, "velocity": 82}, {"time": 45601, "pitch": 21, "duration": 479, "velocity": 82}, {"time": 46080, "pitch": 21, "duration": 479, "velocity": 82}, {"time": 46559, "pitch": 31, "duration": 479, "velocity": 82}, {"time": 46559, "pitch": 43, "duration": 962, "velocity": 80}, {"time": 46559, "pitch": 53, "duration": 962, "velocity": 80}, {"time": 46559, "pitch": 57, "duration": 962, "velocity": 80}, {"time": 46559, "pitch": 62, "duration": 962, "velocity": 80}, {"time": 47038, "pitch": 31, "duration": 483, "velocity": 82}, {"time": 47521, "pitch": 24, "duration": 479, "velocity": 82}, {"time": 47521, "pitch": 48, "duration": 958, "velocity": 80}, {"time": 47521, "pitch": 55, "duration": 958, "velocity": 80}, {"time": 47521, "pitch": 58, "duration": 958, "velocity": 80}, {"time": 47521, "pitch": 64, "duration": 958, "velocity": 80}, {"time": 48000, "pitch": 24, "duration": 479, "velocity": 82}, {"time": 48479, "pitch": 29, "duration": 479, "velocity": 82}, {"time": 48479, "pitch": 53, "duration": 1920, "velocity": 80}, {"time": 48479, "pitch": 57, "duration": 1920, "velocity": 80}, {"time": 48479, "pitch": 60, "duration": 1920, "velocity": 80}, {"time": 48479, "pitch": 62, "duration": 1920, "velocity": 80}, {"time": 48479, "pitch": 65, "duration": 1920, "velocity": 80}, {"time": 48958, "pitch": 29, "duration": 484, "velocity": 82}, {"time": 49442, "pitch": 29, "duration": 479, "velocity": 82}, {"time": 49921, "pitch": 29, "duration": 478, "velocity": 82}, {"time": 50399, "pitch": 27, "duration": 479, "velocity": 82}, {"time": 50399, "pitch": 51, "duration": 1921, "velocity": 80}, {"time": 50399, "pitch": 55, "duration": 1921, "velocity": 80}, {"time": 50399, "pitch": 58, "duration": 1921, "velocity": 80}, {"time": 50399, "pitch": 62, "duration": 1921, "velocity": 80}, {"time": 50878, "pitch": 27, "duration": 484, "velocity": 82}, {"time": 51362, "pitch": 27, "duration": 479, "velocity": 82}, {"time": 51841, "pitch": 27, "duration": 479, "velocity": 82}, {"time": 52320, "pitch": 32, "duration": 479, "velocity": 82}, {"time": 52320, "pitch": 44, "duration": 1920, "velocity": 80}, {"time": 52320, "pitch": 55, "duration": 1920, "velocity": 80}, {"time": 52320, "pitch": 60, "duration": 1920, "velocity": 80}, {"time": 52320, "pitch": 63, "duration": 1920, "velocity": 80}, {"time": 52799, "pitch": 32, "duration": 483, "velocity": 82}, {"time": 53282, "pitch": 32, "duration": 479, "velocity": 82}, {"time": 53761, "pitch": 32, "duration": 479, "velocity": 82}, {"time": 54240, "pitch": 33, "duration": 479, "velocity": 82}, {"time": 54240, "pitch": 45, "duration": 958, "velocity": 80}, {"time": 54240, "pitch": 55, "duration": 958, "velocity": 80}, {"time": 54240, "pitch": 60, "duration": 958, "velocity": 80}, {"time": 54240, "pitch": 63, "duration": 958, "velocity": 80}, {"time": 54719, "pitch": 33, "duration": 479, "velocity": 82}, {"time": 55198, "pitch": 36, "duration": 484, "velocity": 82}, {"time": 55198, "pitch": 48, "duration": 962, "velocity": 80}, {"time": 55198, "pitch": 54, "duration": 962, "velocity": 80}, {"time": 55198, "pitch": 60, "duration": 962, "velocity": 80}, {"time": 55198, "pitch": 63, "duration": 962, "velocity": 80}, {"time": 55682, "pitch": 36, "duration": 478, "velocity": 82}, {"time": 56160, "pitch": 29, "duration": 479, "velocity": 82}, {"time": 56160, "pitch": 41, "duration": 958, "velocity": 80}, {"time": 56160, "pitch": 53, "duration": 958, "velocity": 80}, {"time": 56160, "pitch": 58, "duration": 958, "velocity": 80}, {"time": 56160, "pitch": 63, "duration": 958, "velocity": 80}, {"time": 56639, "pitch": 29, "duration": 479, "velocity": 82}, {"time": 57118, "pitch": 29, "duration": 484, "velocity": 82}, {"time": 57118, "pitch": 41, "duration": 963, "velocity": 80}, {"time": 57118, "pitch": 53, "duration": 963, "velocity": 80}, {"time": 57118, "pitch": 57, "duration": 963, "velocity": 80}, {"time": 57118, "pitch": 63, "duration": 963, "velocity": 80}, {"time": 57602, "pitch": 29, "duration": 479, "velocity": 82}, {"time": 58081, "pitch": 38, "duration": 479, "velocity": 82}, {"time": 58081, "pitch": 57, "duration": 479, "velocity": 80}, {"time": 58081, "pitch": 60, "duration": 479, "velocity": 80}, {"time": 58081, "pitch": 62, "duration": 479, "velocity": 80}, {"time": 58081, "pitch": 65, "duration": 479, "velocity": 80}, {"time": 58560, "pitch": 31, "duration": 479, "velocity": 82}, {"time": 58560, "pitch": 55, "duration": 479, "velocity": 80}, {"time": 58560, "pitch": 58, "duration": 479, "velocity": 80}, {"time": 58560, "pitch": 62, "duration": 479, "velocity": 80}, {"time": 58560, "pitch": 65, "duration": 479, "velocity": 80}, {"time": 59039, "pitch": 36, "duration": 483, "velocity": 82}, {"time": 59039, "pitch": 55, "duration": 483, "velocity": 80}, {"time": 59039, "pitch": 58, "duration": 483, "velocity": 80}, {"time": 59039, "pitch": 62, "duration": 483, "velocity": 80}, {"time": 59039, "pitch": 63, "duration": 483, "velocity": 80}, {"time": 59522, "pitch": 36, "duration": 479, "velocity": 82}, {"time": 59522, "pitch": 55, "duration": 479, "velocity": 80}, {"time": 59522, "pitch": 58, "duration": 479, "velocity": 80}, {"time": 59522, "pitch": 60, "duration": 479, "velocity": 80}, {"time": 59522, "pitch": 63, "duration": 479, "velocity": 80}, {"time": 60001, "pitch": 36, "duration": 479, "velocity": 82}, {"time": 60001, "pitch": 54, "duration": 479, "velocity": 80}, {"time": 60001, "pitch": 58, "duration": 479, "velocity": 80}, {"time": 60001, "pitch": 60, "duration": 479, "velocity": 80}, {"time": 60001, "pitch": 63, "duration": 479, "velocity": 80}, {"time": 60480, "pitch": 29, "duration": 479, "velocity": 82}, {"time": 60480, "pitch": 53, "duration": 479, "velocity": 80}, {"time": 60480, "pitch": 57, "duration": 479, "velocity": 80}, {"time": 60480, "pitch": 60, "duration": 479, "velocity": 80}, {"time": 60480, "pitch": 63, "duration": 479, "velocity": 80}, {"time": 60959, "pitch": 34, "duration": 479, "velocity": 82}, {"time": 60959, "pitch": 53, "duration": 479, "velocity": 80}, {"time": 60959, "pitch": 55, "duration": 479, "velocity": 80}, {"time": 60959, "pitch": 60, "duration": 479, "velocity": 80}, {"time": 60959, "pitch": 62, "duration": 479, "velocity": 80}, {"time": 61438, "pitch": 34, "duration": 484, "velocity": 82}, {"time": 61438, "pitch": 53, "duration": 484, "velocity": 80}, {"time": 61438, "pitch": 55, "duration": 484, "velocity": 80}, {"time": 61438, "pitch": 58, "duration": 484, "velocity": 80}, {"time": 61438, "pitch": 62, "duration": 484, "velocity": 80}, {"time": 61922, "pitch": 27, "duration": 478, "velocity": 82}, {"time": 61922, "pitch": 51, "duration": 957, "velocity": 80}, {"time": 61922, "pitch": 58, "duration": 957, "velocity": 80}, {"time": 61922, "pitch": 62, "duration": 957, "velocity": 80}, {"time": 61922, "pitch": 67, "duration": 957, "velocity": 80}, {"time": 62400, "pitch": 27, "duration": 479, "velocity": 82}, {"time": 62879, "pitch": 28, "duration": 479, "velocity": 82}, {"time": 62879, "pitch": 52, "duration": 963, "velocity": 80}, {"time": 62879, "pitch": 58, "duration": 963, "velocity": 80}, {"time": 62879, "pitch": 62, "duration": 963, "velocity": 80}, {"time": 62879, "pitch": 67, "duration": 963, "velocity": 80}, {"time": 63358, "pitch": 28, "duration": 484, "velocity": 82}, {"time": 63842, "pitch": 26, "duration": 479, "velocity": 82}, {"time": 63842, "pitch": 50, "duration": 958, "velocity": 80}, {"time": 63842, "pitch": 57, "duration": 958, "velocity": 80}, {"time": 63842, "pitch": 60, "duration": 958, "velocity": 80}, {"time": 63842, "pitch": 65, "duration": 958, "velocity": 80}, {"time": 64321, "pitch": 26, "duration": 479, "velocity": 82}, {"time": 64800, "pitch": 31, "duration": 478, "velocity": 82}, {"time": 64800, "pitch": 55, "duration": 478, "velocity": 80}, {"time": 64800, "pitch": 58, "duration": 478, "velocity": 80}, {"time": 64800, "pitch": 62, "duration": 478, "velocity": 80}, {"time": 64800, "pitch": 65, "duration": 478, "velocity": 80}, {"time": 65278, "pitch": 29, "duration": 484, "velocity": 82}, {"time": 65278, "pitch": 53, "duration": 484, "velocity": 80}, {"time": 65278, "pitch": 56, "duration": 484, "velocity": 80}, {"time": 65278, "pitch": 60, "duration": 484, "velocity": 80}, {"time": 65278, "pitch": 63, "duration": 484, "velocity": 80}, {"time": 65762, "pitch": 28, "duration": 479, "velocity": 82}, {"time": 65762, "pitch": 52, "duration": 958, "velocity": 80}, {"time": 65762, "pitch": 58, "duration": 958, "velocity": 80}, {"time": 65762, "pitch": 62, "duration": 958, "velocity": 80}, {"time": 65762, "pitch": 67, "duration": 958, "velocity": 80}, {"time": 66241, "pitch": 28, "duration": 479, "velocity": 82}, {"time": 66720, "pitch": 27, "duration": 479, "velocity": 82}, {"time": 66720, "pitch": 51, "duration": 958, "velocity": 80}, {"time": 66720, "pitch": 58, "duration": 958, "velocity": 80}, {"time": 66720, "pitch": 61, "duration": 958, "velocity": 80}, {"time": 66720, "pitch": 67, "duration": 958, "velocity": 80}, {"time": 67199, "pitch": 27, "duration": 479, "velocity": 82}, {"time": 67678, "pitch": 26, "duration": 483, "velocity": 82}, {"time": 67678, "pitch": 50, "duration": 962, "velocity": 80}, {"time": 67678, "pitch": 57, "duration": 962, "velocity": 80}, {"time": 67678, "pitch": 60, "duration": 962, "velocity": 80}, {"time": 67678, "pitch": 65, "duration": 962, "velocity": 80}, {"time": 68161, "pitch": 29, "duration": 479, "velocity": 82}, {"time": 68640, "pitch": 31, "duration": 479, "velocity": 82}, {"time": 68640, "pitch": 55, "duration": 958, "velocity": 80}, {"time": 68640, "pitch": 58, "duration": 958, "velocity": 80}, {"time": 68640, "pitch": 62, "duration": 958, "velocity": 80}, {"time": 68640, "pitch": 65, "duration": 958, "velocity": 80}, {"time": 69119, "pitch": 31, "duration": 479, "velocity": 82}, {"time": 69598, "pitch": 28, "duration": 484, "velocity": 82}, {"time": 69598, "pitch": 52, "duration": 963, "velocity": 80}, {"time": 69598, "pitch": 58, "duration": 963, "velocity": 80}, {"time": 69598, "pitch": 62, "duration": 963, "velocity": 80}, {"time": 69598, "pitch": 67, "duration": 963, "velocity": 80}, {"time": 70082, "pitch": 28, "duration": 479, "velocity": 82}, {"time": 70561, "pitch": 27, "duration": 478, "velocity": 82}, {"time": 70561, "pitch": 51, "duration": 957, "velocity": 80}, {"time": 70561, "pitch": 58, "duration": 957, "velocity": 80}, {"time": 70561, "pitch": 61, "duration": 957, "velocity": 80}, {"time": 70561, "pitch": 67, "duration": 957, "velocity": 80}, {"time": 71039, "pitch": 27, "duration": 479, "velocity": 82}, {"time": 71518, "pitch": 26, "duration": 484, "velocity": 82}, {"time": 71518, "pitch": 50, "duration": 963, "velocity": 80}, {"time": 71518, "pitch": 57, "duration": 963, "velocity": 80}, {"time": 71518, "pitch": 60, "duration": 963, "velocity": 80}, {"time": 71518, "pitch": 65, "duration": 963, "velocity": 80}, {"time": 72002, "pitch": 26, "duration": 479, "velocity": 82}, {"time": 72481, "pitch": 31, "duration": 479, "velocity": 82}, {"time": 72481, "pitch": 55, "duration": 958, "velocity": 80}, {"time": 72481, "pitch": 58, "duration": 958, "velocity": 80}, {"time": 72481, "pitch": 62, "duration": 958, "velocity": 80}, {"time": 72481, "pitch": 65, "duration": 958, "velocity": 80}, {"time": 72960, "pitch": 31, "duration": 479, "velocity": 82}, {"time": 73439, "pitch": 36, "duration": 483, "velocity": 82}, {"time": 73439, "pitch": 48, "duration": 1920, "velocity": 80}, {"time": 73439, "pitch": 55, "duration": 1920, "velocity": 80}, {"time": 73439, "pitch": 58, "duration": 1920, "velocity": 80}, {"time": 73439, "pitch": 63, "duration": 1920, "velocity": 80}, {"time": 73922, "pitch": 36, "duration": 479, "velocity": 82}, {"time": 74401, "pitch": 36, "duration": 479, "velocity": 82}, {"time": 74880, "pitch": 36, "duration": 479, "velocity": 82}, {"time": 75359, "pitch": 29, "duration": 479, "velocity": 82}, {"time": 75359, "pitch": 53, "duration": 963, "velocity": 80}, {"time": 75359, "pitch": 58, "duration": 963, "velocity": 80}, {"time": 75359, "pitch": 63, "duration": 963, "velocity": 80}, {"time": 75359, "pitch": 67, "duration": 963, "velocity": 80}, {"time": 75838, "pitch": 29, "duration": 484, "velocity": 82}, {"time": 76322, "pitch": 29, "duration": 479, "velocity": 82}, {"time": 76322, "pitch": 53, "duration": 957, "velocity": 80}, {"time": 76322, "pitch": 57, "duration": 957, "velocity": 80}, {"time": 76322, "pitch": 60, "duration": 957, "velocity": 80}, {"time": 76322, "pitch": 65, "duration": 957, "velocity": 80}, {"time": 76801, "pitch": 29, "duration": 478, "velocity": 82}, {"time": 77279, "pitch": 34, "duration": 479, "velocity": 82}, {"time": 77279, "pitch": 46, "duration": 963, "velocity": 80}, {"time": 77279, "pitch": 53, "duration": 963, "velocity": 80}, {"time": 77279, "pitch": 60, "duration": 963, "velocity": 80}, {"time": 77279, "pitch": 62, "duration": 963, "velocity": 80}, {"time": 77758, "pitch": 34, "duration": 484, "velocity": 82}, {"time": 78242, "pitch": 34, "duration": 479, "velocity": 82}, {"time": 78242, "pitch": 46, "duration": 958, "velocity": 80}, {"time": 78242, "pitch": 53, "duration": 958, "velocity": 80}, {"time": 78242, "pitch": 58, "duration": 958, "velocity": 80}, {"time": 78242, "pitch": 62, "duration": 958, "velocity": 80}, {"time": 78721, "pitch": 34, "duration": 479, "velocity": 82}, {"time": 79200, "pitch": 34, "duration": 479, "velocity": 82}, {"time": 79200, "pitch": 46, "duration": 962, "velocity": 80}, {"time": 79200, "pitch": 53, "duration": 962, "velocity": 80}, {"time": 79200, "pitch": 60, "duration": 962, "velocity": 80}, {"time": 79200, "pitch": 62, "duration": 962, "velocity": 80}, {"time": 79679, "pitch": 34, "duration": 483, "velocity": 82}, {"time": 80162, "pitch": 34, "duration": 479, "velocity": 82}, {"time": 80162, "pitch": 46, "duration": 958, "velocity": 80}, {"time": 80162, "pitch": 53, "duration": 958, "velocity": 80}, {"time": 80162, "pitch": 58, "duration": 958, "velocity": 80}, {"time": 80162, "pitch": 62, "duration": 958, "velocity": 80}, {"time": 80641, "pitch": 34, "duration": 479, "velocity": 82}, {"time": 81120, "pitch": 25, "duration": 479, "velocity": 82}, {"time": 81120, "pitch": 49, "duration": 1920, "velocity": 80}, {"time": 81120, "pitch": 56, "duration": 1920, "velocity": 80}, {"time": 81120, "pitch": 60, "duration": 1920, "velocity": 80}, {"time": 81120, "pitch": 63, "duration": 1920, "velocity": 80}, {"time": 81120, "pitch": 65, "duration": 1920, "velocity": 80}, {"time": 81599, "pitch": 25, "duration": 479, "velocity": 82}, {"time": 82078, "pitch": 25, "duration": 484, "velocity": 82}, {"time": 82562, "pitch": 25, "duration": 478, "velocity": 82}, {"time": 83040, "pitch": 24, "duration": 479, "velocity": 82}, {"time": 83040, "pitch": 48, "duration": 1921, "velocity": 80}, {"time": 83040, "pitch": 55, "duration": 1921, "velocity": 80}, {"time": 83040, "pitch": 58, "duration": 1921, "velocity": 80}, {"time": 83040, "pitch": 63, "duration": 1921, "velocity": 80}, {"time": 83519, "pitch": 24, "duration": 479, "velocity": 82}, {"time": 83998, "pitch": 24, "duration": 484, "velocity": 82}, {"time": 84482, "pitch": 24, "duration": 479, "velocity": 82}, {"time": 84961, "pitch": 34, "duration": 479, "velocity": 82}, {"time": 84961, "pitch": 46, "duration": 957, "velocity": 80}, {"time": 84961, "pitch": 56, "duration": 957, "velocity": 80}, {"time": 84961, "pitch": 60, "duration": 957, "velocity": 80}, {"time": 84961, "pitch": 65, "duration": 957, "velocity": 80}, {"time": 85440, "pitch": 34, "duration": 478, "velocity": 82}, {"time": 85918, "pitch": 27, "duration": 484, "velocity": 82}, {"time": 85918, "pitch": 51, "duration": 963, "velocity": 80}, {"time": 85918, "pitch": 58, "duration": 963, "velocity": 80}, {"time": 85918, "pitch": 61, "duration": 963, "velocity": 80}, {"time": 85918, "pitch": 67, "duration": 963, "velocity": 80}, {"time": 86402, "pitch": 27, "duration": 479, "velocity": 82}, {"time": 86881, "pitch": 32, "duration": 479, "velocity": 82}, {"time": 86881, "pitch": 56, "duration": 1920, "velocity": 80}, {"time": 86881, "pitch": 60, "duration": 1920, "velocity": 80}, {"time": 86881, "pitch": 63, "duration": 1920, "velocity": 80}, {"time": 86881, "pitch": 65, "duration": 1920, "velocity": 80}, {"time": 86881, "pitch": 68, "duration": 1920, "velocity": 80}, {"time": 87360, "pitch": 32, "duration": 479, "velocity": 82}, {"time": 87839, "pitch": 32, "duration": 479, "velocity": 82}, {"time": 88318, "pitch": 32, "duration": 483, "velocity": 82}, {"time": 88801, "pitch": 30, "duration": 479, "velocity": 82}, {"time": 88801, "pitch": 54, "duration": 1921, "velocity": 80}, {"time": 88801, "pitch": 58, "duration": 1921, "velocity": 80}, {"time": 88801, "pitch": 61, "duration": 1921, "velocity": 80}, {"time": 88801, "pitch": 65, "duration": 1921, "velocity": 80}, {"time": 89280, "pitch": 30, "duration": 479, "velocity": 82}, {"time": 89759, "pitch": 30, "duration": 479, "velocity": 82}, {"time": 90238, "pitch": 30, "duration": 484, "velocity": 82}, {"time": 90722, "pitch": 35, "duration": 479, "velocity": 82}, {"time": 90722, "pitch": 47, "duration": 1920, "velocity": 80}, {"time": 90722, "pitch": 58, "duration": 1920, "velocity": 80}, {"time": 90722, "pitch": 63, "duration": 1920, "velocity": 80}, {"time": 90722, "pitch": 66, "duration": 1920, "velocity": 80}, {"time": 91201, "pitch": 35, "duration": 478, "velocity": 82}, {"time": 91679, "pitch": 35, "duration": 479, "velocity": 82}, {"time": 92158, "pitch": 35, "duration": 484, "velocity": 82}, {"time": 92642, "pitch": 36, "duration": 479, "velocity": 82}, {"time": 92642, "pitch": 48, "duration": 1916, "velocity": 80}, {"time": 92642, "pitch": 58, "duration": 1916, "velocity": 80}, {"time": 92642, "pitch": 63, "duration": 1916, "velocity": 80}, {"time": 92642, "pitch": 67, "duration": 1916, "velocity": 80}, {"time": 93121, "pitch": 36, "duration": 479, "velocity": 82}, {"time": 93600, "pitch": 36, "duration": 479, "velocity": 82}, {"time": 94079, "pitch": 36, "duration": 479, "velocity": 82}, {"time": 94558, "pitch": 29, "duration": 483, "velocity": 82}, {"time": 94558, "pitch": 41, "duration": 1920, "velocity": 80}, {"time": 94558, "pitch": 57, "duration": 1920, "velocity": 80}, {"time": 94558, "pitch": 60, "duration": 1920, "velocity": 80}, {"time": 94558, "pitch": 65, "duration": 1920, "velocity": 80}, {"time": 95041, "pitch": 29, "duration": 479, "velocity": 82}, {"time": 95520, "pitch": 29, "duration": 479, "velocity": 82}, {"time": 95999, "pitch": 29, "duration": 479, "velocity": 82}, {"time": 96478, "pitch": 38, "duration": 484, "velocity": 82}, {"time": 96478, "pitch": 57, "duration": 484, "velocity": 80}, {"time": 96478, "pitch": 60, "duration": 484, "velocity": 80}, {"time": 96478, "pitch": 62, "duration": 484, "velocity": 80}, {"time": 96478, "pitch": 65, "duration": 484, "velocity": 80}, {"time": 96962, "pitch": 31, "duration": 479, "velocity": 82}, {"time": 96962, "pitch": 55, "duration": 479, "velocity": 80}, {"time": 96962, "pitch": 58, "duration": 479, "velocity": 80}, {"time": 96962, "pitch": 62, "duration": 479, "velocity": 80}, {"time": 96962, "pitch": 65, "duration": 479, "velocity": 80}, {"time": 97441, "pitch": 36, "duration": 478, "velocity": 82}, {"time": 97441, "pitch": 55, "duration": 478, "velocity": 80}, {"time": 97441, "pitch": 58, "duration": 478, "velocity": 80}, {"time": 97441, "pitch": 62, "duration": 478, "velocity": 80}, {"time": 97441, "pitch": 63, "duration": 478, "velocity": 80}, {"time": 97919, "pitch": 36, "duration": 479, "velocity": 82}, {"time": 97919, "pitch": 55, "duration": 479, "velocity": 80}, {"time": 97919, "pitch": 58, "duration": 479, "velocity": 80}, {"time": 97919, "pitch": 60, "duration": 479, "velocity": 80}, {"time": 97919, "pitch": 63, "duration": 479, "velocity": 80}, {"time": 98398, "pitch": 36, "duration": 484, "velocity": 82}, {"time": 98398, "pitch": 54, "duration": 484, "velocity": 80}, {"time": 98398, "pitch": 58, "duration": 484, "velocity": 80}, {"time": 98398, "pitch": 60, "duration": 484, "velocity": 80}, {"time": 98398, "pitch": 63, "duration": 484, "velocity": 80}, {"time": 98882, "pitch": 29, "duration": 479, "velocity": 82}, {"time": 98882, "pitch": 53, "duration": 479, "velocity": 80}, {"time": 98882, "pitch": 57, "duration": 479, "velocity": 80}, {"time": 98882, "pitch": 60, "duration": 479, "velocity": 80}, {"time": 98882, "pitch": 63, "duration": 479, "velocity": 80}, {"time": 99361, "pitch": 34, "duration": 479, "velocity": 82}, {"time": 99361, "pitch": 53, "duration": 479, "velocity": 80}, {"time": 99361, "pitch": 55, "duration": 479, "velocity": 80}, {"time": 99361, "pitch": 60, "duration": 479, "velocity": 80}, {"time": 99361, "pitch": 62, "duration": 479, "velocity": 80}, {"time": 99840, "pitch": 34, "duration": 479, "velocity": 82}, {"time": 99840, "pitch": 53, "duration": 479, "velocity": 80}, {"time": 99840, "pitch": 55, "duration": 479, "velocity": 80}, {"time": 99840, "pitch": 58, "duration": 479, "velocity": 80}, {"time": 99840, "pitch": 62, "duration": 479, "velocity": 80}, {"time": 100319, "pitch": 38, "duration": 483, "velocity": 82}, {"time": 100319, "pitch": 53, "duration": 483, "velocity": 80}, {"time": 100319, "pitch": 57, "duration": 483, "velocity": 80}, {"time": 100319, "pitch": 60, "duration": 483, "velocity": 80}, {"time": 100319, "pitch": 62, "duration": 483, "velocity": 80}, {"time": 100802, "pitch": 38, "duration": 479, "velocity": 82}, {"time": 100802, "pitch": 57, "duration": 479, "velocity": 80}, {"time": 100802, "pitch": 60, "duration": 479, "velocity": 80}, {"time": 100802, "pitch": 62, "duration": 479, "velocity": 80}, {"time": 100802, "pitch": 65, "duration": 479, "velocity": 80}, {"time": 101281, "pitch": 31, "duration": 479, "velocity": 82}, {"time": 101281, "pitch": 55, "duration": 479, "velocity": 80}, {"time": 101281, "pitch": 58, "duration": 479, "velocity": 80}, {"time": 101281, "pitch": 62, "duration": 479, "velocity": 80}, {"time": 101281, "pitch": 65, "duration": 479, "velocity": 80}, {"time": 101760, "pitch": 31, "duration": 479, "velocity": 82}, {"time": 101760, "pitch": 58, "duration": 479, "velocity": 80}, {"time": 101760, "pitch": 62, "duration": 479, "velocity": 80}, {"time": 101760, "pitch": 65, "duration": 479, "velocity": 80}, {"time": 101760, "pitch": 67, "duration": 479, "velocity": 80}, {"time": 102239, "pitch": 29, "duration": 479, "velocity": 82}, {"time": 102239, "pitch": 51, "duration": 479, "velocity": 80}, {"time": 102239, "pitch": 55, "duration": 479, "velocity": 80}, {"time": 102239, "pitch": 58, "duration": 479, "velocity": 80}, {"time": 102239, "pitch": 62, "duration": 479, "velocity": 80}, {"time": 102718, "pitch": 29, "duration": 484, "velocity": 82}, {"time": 102718, "pitch": 51, "duration": 484, "velocity": 80}, {"time": 102718, "pitch": 55, "duration": 484, "velocity": 80}, {"time": 102718, "pitch": 58, "duration": 484, "velocity": 80}, {"time": 102718, "pitch": 60, "duration": 484, "velocity": 80}, {"time": 103202, "pitch": 29, "duration": 478, "velocity": 82}, {"time": 103202, "pitch": 51, "duration": 478, "velocity": 80}, {"time": 103202, "pitch": 55, "duration": 478, "velocity": 80}, {"time": 103202, "pitch": 58, "duration": 478, "velocity": 80}, {"time": 103202, "pitch": 62, "duration": 478, "velocity": 80}, {"time": 103680, "pitch": 39, "duration": 479, "velocity": 82}, {"time": 103680, "pitch": 51, "duration": 479, "velocity": 80}, {"time": 103680, "pitch": 54, "duration": 479, "velocity": 80}, {"time": 103680, "pitch": 58, "duration": 479, "velocity": 80}, {"time": 103680, "pitch": 60, "duration": 479, "velocity": 80}, {"time": 103680, "pitch": 63, "duration": 479, "velocity": 80}, {"time": 104159, "pitch": 38, "duration": 479, "velocity": 82}, {"time": 104159, "pitch": 53, "duration": 479, "velocity": 80}, {"time": 104159, "pitch": 56, "duration": 479, "velocity": 80}, {"time": 104159, "pitch": 60, "duration": 479, "velocity": 80}, {"time": 104159, "pitch": 62, "duration": 479, "velocity": 80}, {"time": 104638, "pitch": 38, "duration": 484, "velocity": 82}, {"time": 104638, "pitch": 56, "duration": 484, "velocity": 80}, {"time": 104638, "pitch": 60, "duration": 484, "velocity": 80}, {"time": 104638, "pitch": 62, "duration": 484, "velocity": 80}, {"time": 104638, "pitch": 65, "duration": 484, "velocity": 80}, {"time": 105122, "pitch": 31, "duration": 479, "velocity": 82}, {"time": 105122, "pitch": 56, "duration": 479, "velocity": 80}, {"time": 105122, "pitch": 59, "duration": 479, "velocity": 80}, {"time": 105122, "pitch": 62, "duration": 479, "velocity": 80}, {"time": 105122, "pitch": 65, "duration": 479, "velocity": 80}, {"time": 105601, "pitch": 31, "duration": 479, "velocity": 82}, {"time": 105601, "pitch": 53, "duration": 479, "velocity": 80}, {"time": 105601, "pitch": 55, "duration": 479, "velocity": 80}, {"time": 105601, "pitch": 59, "duration": 479, "velocity": 80}, {"time": 105601, "pitch": 62, "duration": 479, "velocity": 80}, {"time": 106080, "pitch": 36, "duration": 478, "velocity": 82}, {"time": 106080, "pitch": 54, "duration": 962, "velocity": 80}, {"time": 106080, "pitch": 58, "duration": 962, "velocity": 80}, {"time": 106080, "pitch": 60, "duration": 962, "velocity": 80}, {"time": 106080, "pitch": 63, "duration": 962, "velocity": 80}, {"time": 106558, "pitch": 36, "duration": 484, "velocity": 82}, {"time": 107042, "pitch": 29, "duration": 479, "velocity": 82}, {"time": 107042, "pitch": 53, "duration": 479, "velocity": 80}, {"time": 107042, "pitch": 57, "duration": 479, "velocity": 80}, {"time": 107042, "pitch": 60, "duration": 479, "velocity": 80}, {"time": 107042, "pitch": 63, "duration": 479, "velocity": 80}, {"time": 107521, "pitch": 28, "duration": 479, "velocity": 82}, {"time": 107521, "pitch": 52, "duration": 479, "velocity": 80}, {"time": 107521, "pitch": 56, "duration": 479, "velocity": 80}, {"time": 107521, "pitch": 59, "duration": 479, "velocity": 80}, {"time": 107521, "pitch": 62, "duration": 479, "velocity": 80}, {"time": 108000, "pitch": 27, "duration": 479, "velocity": 82}, {"time": 108000, "pitch": 51, "duration": 479, "velocity": 80}, {"time": 108000, "pitch": 55, "duration": 479, "velocity": 80}, {"time": 108000, "pitch": 58, "duration": 479, "velocity": 80}, {"time": 108000, "pitch": 62, "duration": 479, "velocity": 80}, {"time": 108479, "pitch": 27, "duration": 479, "velocity": 82}, {"time": 108479, "pitch": 51, "duration": 479, "velocity": 80}, {"time": 108479, "pitch": 55, "duration": 479, "velocity": 80}, {"time": 108479, "pitch": 58, "duration": 479, "velocity": 80}, {"time": 108479, "pitch": 62, "duration": 479, "velocity": 80}, {"time": 108958, "pitch": 24, "duration": 483, "velocity": 82}, {"time": 108958, "pitch": 52, "duration": 483, "velocity": 80}, {"time": 108958, "pitch": 55, "duration": 483, "velocity": 80}, {"time": 108958, "pitch": 58, "duration": 483, "velocity": 80}, {"time": 108958, "pitch": 62, "duration": 483, "velocity": 80}, {"time": 109441, "pitch": 28, "duration": 479, "velocity": 82}, {"time": 109441, "pitch": 52, "duration": 479, "velocity": 80}, {"time": 109441, "pitch": 55, "duration": 479, "velocity": 80}, {"time": 109441, "pitch": 58, "duration": 479, "velocity": 80}, {"time": 109441, "pitch": 60, "duration": 479, "velocity": 80}, {"time": 109920, "pitch": 29, "duration": 479, "velocity": 82}, {"time": 109920, "pitch": 51, "duration": 479, "velocity": 80}, {"time": 109920, "pitch": 55, "duration": 479, "velocity": 80}, {"time": 109920, "pitch": 58, "duration": 479, "velocity": 80}, {"time": 109920, "pitch": 60, "duration": 479, "velocity": 80}, {"time": 110399, "pitch": 29, "duration": 479, "velocity": 82}, {"time": 110399, "pitch": 55, "duration": 479, "velocity": 80}, {"time": 110399, "pitch": 58, "duration": 479, "velocity": 80}, {"time": 110399, "pitch": 60, "duration": 479, "velocity": 80}, {"time": 110399, "pitch": 63, "duration": 479, "velocity": 80}, {"time": 110878, "pitch": 29, "duration": 484, "velocity": 82}, {"time": 110878, "pitch": 53, "duration": 963, "velocity": 80}, {"time": 110878, "pitch": 57, "duration": 963, "velocity": 80}, {"time": 110878, "pitch": 60, "duration": 963, "velocity": 80}, {"time": 110878, "pitch": 63, "duration": 963, "velocity": 80}, {"time": 111362, "pitch": 29, "duration": 479, "velocity": 82}, {"time": 111841, "pitch": 26, "duration": 478, "velocity": 82}, {"time": 111841, "pitch": 57, "duration": 478, "velocity": 80}, {"time": 111841, "pitch": 60, "duration": 478, "velocity": 80}, {"time": 111841, "pitch": 62, "duration": 478, "velocity": 80}, {"time": 111841, "pitch": 65, "duration": 478, "velocity": 80}, {"time": 112319, "pitch": 31, "duration": 479, "velocity": 82}, {"time": 112319, "pitch": 55, "duration": 479, "velocity": 80}, {"time": 112319, "pitch": 58, "duration": 479, "velocity": 80}, {"time": 112319, "pitch": 62, "duration": 479, "velocity": 80}, {"time": 112319, "pitch": 65, "duration": 479, "velocity": 80}, {"time": 112798, "pitch": 24, "duration": 484, "velocity": 82}, {"time": 112798, "pitch": 55, "duration": 484, "velocity": 80}, {"time": 112798, "pitch": 58, "duration": 484, "velocity": 80}, {"time": 112798, "pitch": 62, "duration": 484, "velocity": 80}, {"time": 112798, "pitch": 63, "duration": 484, "velocity": 80}, {"time": 113282, "pitch": 24, "duration": 479, "velocity": 82}, {"time": 113282, "pitch": 55, "duration": 479, "velocity": 80}, {"time": 113282, "pitch": 58, "duration": 479, "velocity": 80}, {"time": 113282, "pitch": 60, "duration": 479, "velocity": 80}, {"time": 113282, "pitch": 63, "duration": 479, "velocity": 80}, {"time": 113761, "pitch": 27, "duration": 479, "velocity": 82}, {"time": 113761, "pitch": 54, "duration": 479, "velocity": 80}, {"time": 113761, "pitch": 58, "duration": 479, "velocity": 80}, {"time": 113761, "pitch": 60, "duration": 479, "velocity": 80}, {"time": 113761, "pitch": 63, "duration": 479, "velocity": 80}, {"time": 114240, "pitch": 29, "duration": 479, "velocity": 82}, {"time": 114240, "pitch": 53, "duration": 479, "velocity": 80}, {"time": 114240, "pitch": 57, "duration": 479, "velocity": 80}, {"time": 114240, "pitch": 60, "duration": 479, "velocity": 80}, {"time": 114240, "pitch": 63, "duration": 479, "velocity": 80}, {"time": 114719, "pitch": 22, "duration": 479, "velocity": 82}, {"time": 114719, "pitch": 53, "duration": 479, "velocity": 80}, {"time": 114719, "pitch": 55, "duration": 479, "velocity": 80}, {"time": 114719, "pitch": 60, "duration": 479, "velocity": 80}, {"time": 114719, "pitch": 62, "duration": 479, "velocity": 80}, {"time": 115198, "pitch": 22, "duration": 483, "velocity": 82}, {"time": 115198, "pitch": 53, "duration": 483, "velocity": 80}, {"time": 115198, "pitch": 55, "duration": 483, "velocity": 80}, {"time": 115198, "pitch": 58, "duration": 483, "velocity": 80}, {"time": 115198, "pitch": 62, "duration": 483, "velocity": 80}, {"time": 115681, "pitch": 27, "duration": 479, "velocity": 82}, {"time": 115681, "pitch": 51, "duration": 958, "velocity": 80}, {"time": 115681, "pitch": 58, "duration": 958, "velocity": 80}, {"time": 115681, "pitch": 62, "duration": 958, "velocity": 80}, {"time": 115681, "pitch": 67, "duration": 958, "velocity": 80}, {"time": 116160, "pitch": 27, "duration": 479, "velocity": 82}, {"time": 116639, "pitch": 27, "duration": 479, "velocity": 82}, {"time": 116639, "pitch": 51, "duration": 963, "velocity": 80}, {"time": 116639, "pitch": 57, "duration": 963, "velocity": 80}, {"time": 116639, "pitch": 61, "duration": 963, "velocity": 80}, {"time": 116639, "pitch": 66, "duration": 963, "velocity": 80}, {"time": 117118, "pitch": 27, "duration": 484, "velocity": 82}, {"time": 117602, "pitch": 26, "duration": 479, "velocity": 82}, {"time": 117602, "pitch": 50, "duration": 957, "velocity": 80}, {"time": 117602, "pitch": 57, "duration": 957, "velocity": 80}, {"time": 117602, "pitch": 60, "duration": 957, "velocity": 80}, {"time": 117602, "pitch": 65, "duration": 957, "velocity": 80}, {"time": 118081, "pitch": 26, "duration": 478, "velocity": 82}, {"time": 118559, "pitch": 31, "duration": 479, "velocity": 82}, {"time": 118559, "pitch": 55, "duration": 479, "velocity": 80}, {"time": 118559, "pitch": 58, "duration": 479, "velocity": 80}, {"time": 118559, "pitch": 62, "duration": 479, "velocity": 80}, {"time": 118559, "pitch": 65, "duration": 479, "velocity": 80}, {"time": 119038, "pitch": 29, "duration": 484, "velocity": 82}, {"time": 119038, "pitch": 53, "duration": 484, "velocity": 80}, {"time": 119038, "pitch": 56, "duration": 484, "velocity": 80}, {"time": 119038, "pitch": 60, "duration": 484, "velocity": 80}, {"time": 119038, "pitch": 63, "duration": 484, "velocity": 80}, {"time": 119522, "pitch": 28, "duration": 479, "velocity": 82}, {"time": 119522, "pitch": 52, "duration": 958, "velocity": 80}, {"time": 119522, "pitch": 58, "duration": 958, "velocity": 80}, {"time": 119522, "pitch": 62, "duration": 958, "velocity": 80}, {"time": 119522, "pitch": 67, "duration": 958, "velocity": 80}, {"time": 120001, "pitch": 28, "duration": 479, "velocity": 82}, {"time": 120480, "pitch": 27, "duration": 479, "velocity": 82}, {"time": 120480, "pitch": 51, "duration": 962, "velocity": 80}, {"time": 120480, "pitch": 58, "duration": 962, "velocity": 80}, {"time": 120480, "pitch": 61, "duration": 962, "velocity": 80}, {"time": 120480, "pitch": 67, "duration": 962, "velocity": 80}, {"time": 120959, "pitch": 27, "duration": 483, "velocity": 82}, {"time": 121442, "pitch": 26, "duration": 479, "velocity": 82}, {"time": 121442, "pitch": 50, "duration": 958, "velocity": 80}, {"time": 121442, "pitch": 57, "duration": 958, "velocity": 80}, {"time": 121442, "pitch": 60, "duration": 958, "velocity": 80}, {"time": 121442, "pitch": 65, "duration": 958, "velocity": 80}, {"time": 121921, "pitch": 26, "duration": 479, "velocity": 82}, {"time": 122400, "pitch": 31, "duration": 479, "velocity": 82}, {"time": 122400, "pitch": 55, "duration": 958, "velocity": 80}, {"time": 122400, "pitch": 58, "duration": 958, "velocity": 80}, {"time": 122400, "pitch": 62, "duration": 958, "velocity": 80}, {"time": 122400, "pitch": 65, "duration": 958, "velocity": 80}, {"time": 122879, "pitch": 31, "duration": 479, "velocity": 82}, {"time": 123358, "pitch": 27, "duration": 484, "velocity": 82}, {"time": 123358, "pitch": 51, "duration": 962, "velocity": 80}, {"time": 123358, "pitch": 55, "duration": 962, "velocity": 80}, {"time": 123358, "pitch": 58, "duration": 962, "velocity": 80}, {"time": 123358, "pitch": 62, "duration": 962, "velocity": 80}, {"time": 123842, "pitch": 27, "duration": 478, "velocity": 82}, {"time": 124320, "pitch": 26, "duration": 479, "velocity": 82}, {"time": 124320, "pitch": 50, "duration": 958, "velocity": 80}, {"time": 124320, "pitch": 53, "duration": 958, "velocity": 80}, {"time": 124320, "pitch": 57, "duration": 958, "velocity": 80}, {"time": 124320, "pitch": 60, "duration": 958, "velocity": 80}, {"time": 124799, "pitch": 26, "duration": 479, "velocity": 82}, {"time": 125278, "pitch": 24, "duration": 484, "velocity": 82}, {"time": 125278, "pitch": 48, "duration": 963, "velocity": 80}, {"time": 125278, "pitch": 51, "duration": 963, "velocity": 80}, {"time": 125278, "pitch": 55, "duration": 963, "velocity": 80}, {"time": 125278, "pitch": 58, "duration": 963, "velocity": 80}, {"time": 125762, "pitch": 24, "duration": 479, "velocity": 82}, {"time": 126241, "pitch": 22, "duration": 479, "velocity": 82}, {"time": 126241, "pitch": 46, "duration": 957, "velocity": 80}, {"time": 126241, "pitch": 50, "duration": 957, "velocity": 80}, {"time": 126241, "pitch": 53, "duration": 957, "velocity": 80}, {"time": 126241, "pitch": 57, "duration": 957, "velocity": 80}, {"time": 126241, "pitch": 60, "duration": 957, "velocity": 80}, {"time": 126720, "pitch": 22, "duration": 478, "velocity": 82}, {"time": 127198, "pitch": 21, "duration": 484, "velocity": 82}, {"time": 127198, "pitch": 45, "duration": 1921, "velocity": 80}, {"time": 127198, "pitch": 52, "duration": 1921, "velocity": 80}, {"time": 127198, "pitch": 55, "duration": 1921, "velocity": 80}, {"time": 127198, "pitch": 57, "duration": 1921, "velocity": 80}, {"time": 127198, "pitch": 62, "duration": 1921, "velocity": 80}, {"time": 127682, "pitch": 21, "duration": 479, "velocity": 82}, {"time": 128161, "pitch": 21, "duration": 479, "velocity": 82}, {"time": 128640, "pitch": 21, "duration": 479, "velocity": 82}, {"time": 129119, "pitch": 26, "duration": 479, "velocity": 82}, {"time": 129119, "pitch": 50, "duration": 1920, "velocity": 80}, {"time": 129119, "pitch": 54, "duration": 1920, "velocity": 80}, {"time": 129119, "pitch": 57, "duration": 1920, "velocity": 80}, {"time": 129119, "pitch": 62, "duration": 1920, "velocity": 80}, {"time": 129598, "pitch": 26, "duration": 483, "velocity": 82}, {"time": 130081, "pitch": 26, "duration": 479, "velocity": 82}, {"time": 130560, "pitch": 26, "duration": 479, "velocity": 82}, {"time": 131039, "pitch": 22, "duration": 479, "velocity": 82}, {"time": 131039, "pitch": 46, "duration": 1921, "velocity": 80}, {"time": 131039, "pitch": 53, "duration": 1921, "velocity": 80}, {"time": 131039, "pitch": 57, "duration": 1921, "velocity": 80}, {"time": 131039, "pitch": 60, "duration": 1921, "velocity": 80}, {"time": 131039, "pitch": 62, "duration": 1921, "velocity": 80}, {"time": 131518, "pitch": 22, "duration": 484, "velocity": 82}, {"time": 132002, "pitch": 22, "duration": 479, "velocity": 82}, {"time": 132481, "pitch": 22, "duration": 479, "velocity": 82}, {"time": 132960, "pitch": 21, "duration": 478, "velocity": 82}, {"time": 132960, "pitch": 45, "duration": 1920, "velocity": 80}, {"time": 132960, "pitch": 52, "duration": 1920, "velocity": 80}, {"time": 132960, "pitch": 55, "duration": 1920, "velocity": 80}, {"time": 132960, "pitch": 60, "duration": 1920, "velocity": 80}, {"time": 133438, "pitch": 21, "duration": 484, "velocity": 82}, {"time": 133922, "pitch": 21, "duration": 479, "velocity": 82}, {"time": 134401, "pitch": 21, "duration": 479, "velocity": 82}, {"time": 134880, "pitch": 31, "duration": 479, "velocity": 82}, {"time": 134880, "pitch": 43, "duration": 958, "velocity": 80}, {"time": 134880, "pitch": 53, "duration": 958, "velocity": 80}, {"time": 134880, "pitch": 57, "duration": 958, "velocity": 80}, {"time": 134880, "pitch": 62, "duration": 958, "velocity": 80}, {"time": 135359, "pitch": 31, "duration": 479, "velocity": 82}, {"time": 135838, "pitch": 24, "duration": 483, "velocity": 82}, {"time": 135838, "pitch": 48, "duration": 962, "velocity": 80}, {"time": 135838, "pitch": 55, "duration": 962, "velocity": 80}, {"time": 135838, "pitch": 58, "duration": 962, "velocity": 80}, {"time": 135838, "pitch": 64, "duration": 962, "velocity": 80}, {"time": 136321, "pitch": 24, "duration": 479, "velocity": 82}, {"time": 136800, "pitch": 29, "duration": 479, "velocity": 82}, {"time": 136800, "pitch": 53, "duration": 1921, "velocity": 80}, {"time": 136800, "pitch": 57, "duration": 1921, "velocity": 80}, {"time": 136800, "pitch": 60, "duration": 1921, "velocity": 80}, {"time": 136800, "pitch": 62, "duration": 1921, "velocity": 80}, {"time": 136800, "pitch": 65, "duration": 1921, "velocity": 80}, {"time": 137279, "pitch": 29, "duration": 479, "velocity": 82}, {"time": 137758, "pitch": 29, "duration": 484, "velocity": 82}, {"time": 138242, "pitch": 29, "duration": 479, "velocity": 82}, {"time": 138721, "pitch": 27, "duration": 478, "velocity": 82}, {"time": 138721, "pitch": 51, "duration": 1920, "velocity": 80}, {"time": 138721, "pitch": 55, "duration": 1920, "velocity": 80}, {"time": 138721, "pitch": 58, "duration": 1920, "velocity": 80}, {"time": 138721, "pitch": 62, "duration": 1920, "velocity": 80}, {"time": 139199, "pitch": 27, "duration": 479, "velocity": 82}, {"time": 139678, "pitch": 27, "duration": 484, "velocity": 82}, {"time": 140162, "pitch": 27, "duration": 479, "velocity": 82}, {"time": 140641, "pitch": 32, "duration": 479, "velocity": 82}, {"time": 140641, "pitch": 44, "duration": 1920, "velocity": 80}, {"time": 140641, "pitch": 55, "duration": 1920, "velocity": 80}, {"time": 140641, "pitch": 60, "duration": 1920, "velocity": 80}, {"time": 140641, "pitch": 63, "duration": 1920, "velocity": 80}, {"time": 141120, "pitch": 32, "duration": 479, "velocity": 82}, {"time": 141599, "pitch": 32, "duration": 483, "velocity": 82}, {"time": 142082, "pitch": 32, "duration": 479, "velocity": 82}, {"time": 142561, "pitch": 33, "duration": 479, "velocity": 82}, {"time": 142561, "pitch": 45, "duration": 958, "velocity": 80}, {"time": 142561, "pitch": 55, "duration": 958, "velocity": 80}, {"time": 142561, "pitch": 60, "duration": 958, "velocity": 80}, {"time": 142561, "pitch": 63, "duration": 958, "velocity": 80}, {"time": 143040, "pitch": 33, "duration": 479, "velocity": 82}, {"time": 143519, "pitch": 36, "duration": 479, "velocity": 82}, {"time": 143519, "pitch": 48, "duration": 963, "velocity": 80}, {"time": 143519, "pitch": 54, "duration": 963, "velocity": 80}, {"time": 143519, "pitch": 60, "duration": 963, "velocity": 80}, {"time": 143519, "pitch": 63, "duration": 963, "velocity": 80}, {"time": 143998, "pitch": 36, "duration": 484, "velocity": 82}, {"time": 144482, "pitch": 29, "duration": 478, "velocity": 82}, {"time": 144482, "pitch": 41, "duration": 957, "velocity": 80}, {"time": 144482, "pitch": 53, "duration": 957, "velocity": 80}, {"time": 144482, "pitch": 58, "duration": 957, "velocity": 80}, {"time": 144482, "pitch": 63, "duration": 957, "velocity": 80}, {"time": 144960, "pitch": 29, "duration": 479, "velocity": 82}, {"time": 145439, "pitch": 29, "duration": 479, "velocity": 82}, {"time": 145439, "pitch": 41, "duration": 963, "velocity": 80}, {"time": 145439, "pitch": 53, "duration": 963, "velocity": 80}, {"time": 145439, "pitch": 57, "duration": 963, "velocity": 80}, {"time": 145439, "pitch": 63, "duration": 963, "velocity": 80}, {"time": 145918, "pitch": 29, "duration": 484, "velocity": 82}, {"time": 146402, "pitch": 38, "duration": 479, "velocity": 82}, {"time": 146402, "pitch": 57, "duration": 479, "velocity": 80}, {"time": 146402, "pitch": 60, "duration": 479, "velocity": 80}, {"time": 146402, "pitch": 62, "duration": 479, "velocity": 80}, {"time": 146402, "pitch": 65, "duration": 479, "velocity": 80}, {"time": 146881, "pitch": 31, "duration": 479, "velocity": 82}, {"time": 146881, "pitch": 55, "duration": 479, "velocity": 80}, {"time": 146881, "pitch": 58, "duration": 479, "velocity": 80}, {"time": 146881, "pitch": 62, "duration": 479, "velocity": 80}, {"time": 146881, "pitch": 65, "duration": 479, "velocity": 80}, {"time": 147360, "pitch": 36, "duration": 478, "velocity": 82}, {"time": 147360, "pitch": 55, "duration": 478, "velocity": 80}, {"time": 147360, "pitch": 58, "duration": 478, "velocity": 80}, {"time": 147360, "pitch": 62, "duration": 478, "velocity": 80}, {"time": 147360, "pitch": 63, "duration": 478, "velocity": 80}, {"time": 147838, "pitch": 36, "duration": 484, "velocity": 82}, {"time": 147838, "pitch": 55, "duration": 484, "velocity": 80}, {"time": 147838, "pitch": 58, "duration": 484, "velocity": 80}, {"time": 147838, "pitch": 60, "duration": 484, "velocity": 80}, {"time": 147838, "pitch": 63, "duration": 484, "velocity": 80}, {"time": 148322, "pitch": 36, "duration": 479, "velocity": 82}, {"time": 148322, "pitch": 54, "duration": 479, "velocity": 80}, {"time": 148322, "pitch": 58, "duration": 479, "velocity": 80}, {"time": 148322, "pitch": 60, "duration": 479, "velocity": 80}, {"time": 148322, "pitch": 63, "duration": 479, "velocity": 80}, {"time": 148801, "pitch": 29, "duration": 479, "velocity": 82}, {"time": 148801, "pitch": 53, "duration": 479, "velocity": 80}, {"time": 148801, "pitch": 57, "duration": 479, "velocity": 80}, {"time": 148801, "pitch": 60, "duration": 479, "velocity": 80}, {"time": 148801, "pitch": 63, "duration": 479, "velocity": 80}, {"time": 149280, "pitch": 34, "duration": 479, "velocity": 82}, {"time": 149280, "pitch": 53, "duration": 479, "velocity": 80}, {"time": 149280, "pitch": 55, "duration": 479, "velocity": 80}, {"time": 149280, "pitch": 60, "duration": 479, "velocity": 80}, {"time": 149280, "pitch": 62, "duration": 479, "velocity": 80}, {"time": 149759, "pitch": 34, "duration": 479, "velocity": 82}, {"time": 149759, "pitch": 53, "duration": 479, "velocity": 80}, {"time": 149759, "pitch": 55, "duration": 479, "velocity": 80}, {"time": 149759, "pitch": 58, "duration": 479, "velocity": 80}, {"time": 149759, "pitch": 62, "duration": 479, "velocity": 80}, {"time": 150238, "pitch": 27, "duration": 483, "velocity": 82}, {"time": 150238, "pitch": 51, "duration": 962, "velocity": 80}, {"time": 150238, "pitch": 58, "duration": 962, "velocity": 80}, {"time": 150238, "pitch": 62, "duration": 962, "velocity": 80}, {"time": 150238, "pitch": 67, "duration": 962, "velocity": 80}, {"time": 150721, "pitch": 27, "duration": 479, "velocity": 82}, {"time": 151200, "pitch": 28, "duration": 479, "velocity": 82}, {"time": 151200, "pitch": 52, "duration": 958, "velocity": 80}, {"time": 151200, "pitch": 58, "duration": 958, "velocity": 80}, {"time": 151200, "pitch": 62, "duration": 958, "velocity": 80}, {"time": 151200, "pitch": 67, "duration": 958, "velocity": 80}, {"time": 151679, "pitch": 28, "duration": 479, "velocity": 82}, {"time": 152158, "pitch": 26, "duration": 484, "velocity": 82}, {"time": 152158, "pitch": 50, "duration": 963, "velocity": 80}, {"time": 152158, "pitch": 57, "duration": 963, "velocity": 80}, {"time": 152158, "pitch": 60, "duration": 963, "velocity": 80}, {"time": 152158, "pitch": 65, "duration": 963, "velocity": 80}, {"time": 152642, "pitch": 26, "duration": 479, "velocity": 82}, {"time": 153121, "pitch": 31, "duration": 479, "velocity": 82}, {"time": 153121, "pitch": 55, "duration": 479, "velocity": 80}, {"time": 153121, "pitch": 58, "duration": 479, "velocity": 80}, {"time": 153121, "pitch": 62, "duration": 479, "velocity": 80}, {"time": 153121, "pitch": 65, "duration": 479, "velocity": 80}, {"time": 153600, "pitch": 29, "duration": 478, "velocity": 82}, {"time": 153600, "pitch": 53, "duration": 478, "velocity": 80}, {"time": 153600, "pitch": 56, "duration": 478, "velocity": 80}, {"time": 153600, "pitch": 60, "duration": 478, "velocity": 80}, {"time": 153600, "pitch": 63, "duration": 478, "velocity": 80}, {"time": 154078, "pitch": 28, "duration": 484, "velocity": 82}, {"time": 154078, "pitch": 52, "duration": 963, "velocity": 80}, {"time": 154078, "pitch": 58, "duration": 963, "velocity": 80}, {"time": 154078, "pitch": 62, "duration": 963, "velocity": 80}, {"time": 154078, "pitch": 67, "duration": 963, "velocity": 80}, {"time": 154562, "pitch": 28, "duration": 479, "velocity": 82}, {"time": 155041, "pitch": 27, "duration": 479, "velocity": 82}, {"time": 155041, "pitch": 51, "duration": 958, "velocity": 80}, {"time": 155041, "pitch": 58, "duration": 958, "velocity": 80}, {"time": 155041, "pitch": 61, "duration": 958, "velocity": 80}, {"time": 155041, "pitch": 67, "duration": 958, "velocity": 80}, {"time": 155520, "pitch": 27, "duration": 479, "velocity": 82}, {"time": 155999, "pitch": 26, "duration": 479, "velocity": 82}, {"time": 155999, "pitch": 50, "duration": 962, "velocity": 80}, {"time": 155999, "pitch": 57, "duration": 962, "velocity": 80}, {"time": 155999, "pitch": 60, "duration": 962, "velocity": 80}, {"time": 155999, "pitch": 65, "duration": 962, "velocity": 80}, {"time": 156478, "pitch": 29, "duration": 483, "velocity": 82}, {"time": 156961, "pitch": 31, "duration": 479, "velocity": 82}, {"time": 156961, "pitch": 55, "duration": 958, "velocity": 80}, {"time": 156961, "pitch": 58, "duration": 958, "velocity": 80}, {"time": 156961, "pitch": 62, "duration": 958, "velocity": 80}, {"time": 156961, "pitch": 65, "duration": 958, "velocity": 80}, {"time": 157440, "pitch": 31, "duration": 479, "velocity": 82}, {"time": 157919, "pitch": 28, "duration": 479, "velocity": 82}, {"time": 157919, "pitch": 52, "duration": 963, "velocity": 80}, {"time": 157919, "pitch": 58, "duration": 963, "velocity": 80}, {"time": 157919, "pitch": 62, "duration": 963, "velocity": 80}, {"time": 157919, "pitch": 67, "duration": 963, "velocity": 80}, {"time": 158398, "pitch": 28, "duration": 484, "velocity": 82}, {"time": 158882, "pitch": 27, "duration": 479, "velocity": 82}, {"time": 158882, "pitch": 51, "duration": 957, "velocity": 80}, {"time": 158882, "pitch": 58, "duration": 957, "velocity": 80}, {"time": 158882, "pitch": 61, "duration": 957, "velocity": 80}, {"time": 158882, "pitch": 67, "duration": 957, "velocity": 80}, {"time": 159361, "pitch": 27, "duration": 478, "velocity": 82}, {"time": 159839, "pitch": 26, "duration": 479, "velocity": 82}, {"time": 159839, "pitch": 50, "duration": 963, "velocity": 80}, {"time": 159839, "pitch": 57, "duration": 963, "velocity": 80}, {"time": 159839, "pitch": 60, "duration": 963, "velocity": 80}, {"time": 159839, "pitch": 65, "duration": 963, "velocity": 80}, {"time": 160318, "pitch": 26, "duration": 484, "velocity": 82}, {"time": 160802, "pitch": 31, "duration": 479, "velocity": 82}, {"time": 160802, "pitch": 55, "duration": 958, "velocity": 80}, {"time": 160802, "pitch": 58, "duration": 958, "velocity": 80}, {"time": 160802, "pitch": 62, "duration": 958, "velocity": 80}, {"time": 160802, "pitch": 65, "duration": 958, "velocity": 80}, {"time": 161281, "pitch": 31, "duration": 479, "velocity": 82}, {"time": 161760, "pitch": 36, "duration": 479, "velocity": 82}, {"time": 161760, "pitch": 48, "duration": 1920, "velocity": 80}, {"time": 161760, "pitch": 55, "duration": 1920, "velocity": 80}, {"time": 161760, "pitch": 58, "duration": 1920, "velocity": 80}, {"time": 161760, "pitch": 63, "duration": 1920, "velocity": 80}, {"time": 162239, "pitch": 36, "duration": 483, "velocity": 82}, {"time": 162722, "pitch": 36, "duration": 479, "velocity": 82}, {"time": 163201, "pitch": 36, "duration": 479, "velocity": 82}, {"time": 163680, "pitch": 29, "duration": 708, "velocity": 82}, {"time": 163680, "pitch": 53, "duration": 718, "velocity": 80}, {"time": 163680, "pitch": 58, "duration": 718, "velocity": 80}, {"time": 163680, "pitch": 63, "duration": 718, "velocity": 80}, {"time": 163680, "pitch": 67, "duration": 718, "velocity": 80}, {"time": 164398, "pitch": 29, "duration": 80, "velocity": 82}, {"time": 164398, "pitch": 53, "duration": 80, "velocity": 80}, {"time": 164398, "pitch": 57, "duration": 80, "velocity": 80}, {"time": 164398, "pitch": 60, "duration": 80, "velocity": 80}, {"time": 164398, "pitch": 65, "duration": 80, "velocity": 80}, {"time": 164518, "pitch": 29, "duration": 80, "velocity": 82}, {"time": 164518, "pitch": 53, "duration": 80, "velocity": 80}, {"time": 164518, "pitch": 57, "duration": 80, "velocity": 80}, {"time": 164518, "pitch": 60, "duration": 80, "velocity": 80}, {"time": 164518, "pitch": 65, "duration": 80, "velocity": 80}, {"time": 165600, "pitch": 46, "duration": 1921, "velocity": 80}, {"time": 165600, "pitch": 58, "duration": 1921, "velocity": 80}, {"time": 165600, "pitch": 62, "duration": 1921, "velocity": 80}, {"time": 165600, "pitch": 65, "duration": 1921, "velocity": 80}, {"time": 167521, "pitch": 51, "duration": 1920, "velocity": 80}, {"time": 167521, "pitch": 55, "duration": 1920, "velocity": 80}, {"time": 167521, "pitch": 58, "duration": 1920, "velocity": 80}, {"time": 167521, "pitch": 62, "duration": 957, "velocity": 80}, {"time": 169441, "pitch": 46, "duration": 1920, "velocity": 80}, {"time": 169441, "pitch": 58, "duration": 1920, "velocity": 80}, {"time": 169441, "pitch": 62, "duration": 1920, "velocity": 80}, {"time": 169441, "pitch": 65, "duration": 1920, "velocity": 80}, {"time": 171361, "pitch": 51, "duration": 719, "velocity": 80}, {"time": 171361, "pitch": 55, "duration": 719, "velocity": 80}, {"time": 171361, "pitch": 58, "duration": 719, "velocity": 80}, {"time": 171361, "pitch": 62, "duration": 340, "velocity": 80}, {"time": 172080, "pitch": 41, "duration": 1179, "velocity": 64}, {"time": 172080, "pitch": 51, "duration": 1179, "velocity": 80}, {"time": 172080, "pitch": 55, "duration": 1179, "velocity": 80}, {"time": 172080, "pitch": 58, "duration": 1179, "velocity": 80}, {"time": 173279, "pitch": 46, "duration": 3841, "velocity": 80}, {"time": 173279, "pitch": 58, "duration": 3841, "velocity": 80}, {"time": 173279, "pitch": 62, "duration": 3841, "velocity": 80}, {"time": 173279, "pitch": 65, "duration": 3841, "velocity": 80}, {"time": 40798, "pitch": 48, "duration": 80, "velocity": 72}, {"time": 40858, "pitch": 49, "duration": 81, "velocity": 74}, {"time": 40919, "pitch": 50, "duration": 80, "velocity": 77}, {"time": 40979, "pitch": 51, "duration": 81, "velocity": 79}, {"time": 41040, "pitch": 52, "duration": 80, "velocity": 82}, {"time": 41100, "pitch": 53, "duration": 81, "velocity": 84}, {"time": 41161, "pitch": 54, "duration": 80, "velocity": 87}, {"time": 41221, "pitch": 55, "duration": 80, "velocity": 89}, {"time": 41282, "pitch": 56, "duration": 79, "velocity": 92}, {"time": 41341, "pitch": 57, "duration": 80, "velocity": 94}, {"time": 41401, "pitch": 58, "duration": 80, "velocity": 97}, {"time": 41461, "pitch": 59, "duration": 80, "velocity": 99}, {"time": 41521, "pitch": 60, "duration": 80, "velocity": 102}, {"time": 41581, "pitch": 61, "duration": 80, "velocity": 103}, {"time": 41641, "pitch": 62, "duration": 79, "velocity": 100}, {"time": 41701, "pitch": 63, "duration": 79, "velocity": 97}, {"time": 41760, "pitch": 64, "duration": 80, "velocity": 93}, {"time": 41820, "pitch": 65, "duration": 80, "velocity": 90}, {"time": 41880, "pitch": 66, "duration": 80, "velocity": 87}, {"time": 41940, "pitch": 67, "duration": 80, "velocity": 84}, {"time": 42000, "pitch": 68, "duration": 80, "velocity": 81}, {"time": 42060, "pitch": 69, "duration": 79, "velocity": 77}, {"time": 42120, "pitch": 70, "duration": 79, "velocity": 74}, {"time": 42179, "pitch": 71, "duration": 80, "velocity": 71}, {"time": 42239, "pitch": 72, "duration": 80, "velocity": 68}, {"time": 42299, "pitch": 73, "duration": 80, "velocity": 65}, {"time": 42359, "pitch": 74, "duration": 80, "velocity": 62}, {"time": 42419, "pitch": 75, "duration": 80, "velocity": 58}, {"time": 56639, "pitch": 96, "duration": 50, "velocity": 38}, {"time": 56689, "pitch": 95, "duration": 50, "velocity": 43}, {"time": 56739, "pitch": 94, "duration": 50, "velocity": 49}, {"time": 56789, "pitch": 93, "duration": 50, "velocity": 54}, {"time": 56839, "pitch": 92, "duration": 50, "velocity": 60}, {"time": 56889, "pitch": 91, "duration": 50, "velocity": 66}, {"time": 56939, "pitch": 90, "duration": 50, "velocity": 71}, {"time": 56989, "pitch": 89, "duration": 49, "velocity": 77}, {"time": 57038, "pitch": 88, "duration": 50, "velocity": 83}, {"time": 57088, "pitch": 87, "duration": 50, "velocity": 80}, {"time": 57138, "pitch": 86, "duration": 51, "velocity": 80}, {"time": 57189, "pitch": 85, "duration": 50, "velocity": 80}, {"time": 57239, "pitch": 84, "duration": 51, "velocity": 80}, {"time": 57290, "pitch": 83, "duration": 50, "velocity": 80}, {"time": 57340, "pitch": 82, "duration": 50, "velocity": 80}, {"time": 57390, "pitch": 81, "duration": 51, "velocity": 80}, {"time": 57441, "pitch": 80, "duration": 50, "velocity": 80}, {"time": 57491, "pitch": 79, "duration": 51, "velocity": 80}, {"time": 57542, "pitch": 78, "duration": 50, "velocity": 80}, {"time": 57592, "pitch": 77, "duration": 50, "velocity": 82}, {"time": 57642, "pitch": 76, "duration": 50, "velocity": 77}, {"time": 57692, "pitch": 75, "duration": 50, "velocity": 72}, {"time": 57742, "pitch": 74, "duration": 50, "velocity": 68}, {"time": 57792, "pitch": 73, "duration": 49, "velocity": 63}, {"time": 57841, "pitch": 72, "duration": 50, "velocity": 59}, {"time": 57891, "pitch": 71, "duration": 50, "velocity": 54}, {"time": 57941, "pitch": 70, "duration": 50, "velocity": 50}, {"time": 57991, "pitch": 69, "duration": 50, "velocity": 45}, {"time": 58041, "pitch": 68, "duration": 50, "velocity": 41}, {"time": 79679, "pitch": 96, "duration": 50, "velocity": 38}, {"time": 79729, "pitch": 95, "duration": 50, "velocity": 43}, {"time": 79779, "pitch": 94, "duration": 51, "velocity": 49}, {"time": 79830, "pitch": 93, "duration": 50, "velocity": 54}, {"time": 79880, "pitch": 92, "duration": 51, "velocity": 60}, {"time": 79931, "pitch": 91, "duration": 50, "velocity": 66}, {"time": 79981, "pitch": 90, "duration": 50, "velocity": 71}, {"time": 80031, "pitch": 89, "duration": 51, "velocity": 77}, {"time": 80082, "pitch": 88, "duration": 50, "velocity": 83}, {"time": 80132, "pitch": 87, "duration": 50, "velocity": 80}, {"time": 80182, "pitch": 86, "duration": 50, "velocity": 80}, {"time": 80232, "pitch": 85, "duration": 50, "velocity": 80}, {"time": 80282, "pitch": 84, "duration": 50, "velocity": 80}, {"time": 80332, "pitch": 83, "duration": 50, "velocity": 80}, {"time": 80382, "pitch": 82, "duration": 50, "velocity": 80}, {"time": 80432, "pitch": 81, "duration": 50, "velocity": 80}, {"time": 80482, "pitch": 80, "duration": 49, "velocity": 80}, {"time": 80531, "pitch": 79, "duration": 50, "velocity": 80}, {"time": 80581, "pitch": 78, "duration": 50, "velocity": 80}, {"time": 80631, "pitch": 77, "duration": 50, "velocity": 82}, {"time": 80681, "pitch": 76, "duration": 50, "velocity": 77}, {"time": 80731, "pitch": 75, "duration": 50, "velocity": 72}, {"time": 80781, "pitch": 74, "duration": 50, "velocity": 68}, {"time": 80831, "pitch": 73, "duration": 50, "velocity": 63}, {"time": 80881, "pitch": 72, "duration": 50, "velocity": 59}, {"time": 80931, "pitch": 71, "duration": 49, "velocity": 54}, {"time": 80980, "pitch": 70, "duration": 50, "velocity": 50}, {"time": 81030, "pitch": 69, "duration": 50, "velocity": 45}, {"time": 81080, "pitch": 68, "duration": 50, "velocity": 41}, {"time": 95041, "pitch": 96, "duration": 50, "velocity": 38}, {"time": 95091, "pitch": 95, "duration": 50, "velocity": 43}, {"time": 95141, "pitch": 94, "duration": 50, "velocity": 49}, {"time": 95191, "pitch": 93, "duration": 50, "velocity": 54}, {"time": 95241, "pitch": 92, "duration": 50, "velocity": 60}, {"time": 95291, "pitch": 91, "duration": 50, "velocity": 66}, {"time": 95341, "pitch": 90, "duration": 49, "velocity": 71}, {"time": 95390, "pitch": 89, "duration": 50, "velocity": 77}, {"time": 95440, "pitch": 88, "duration": 50, "velocity": 83}, {"time": 95490, "pitch": 87, "duration": 50, "velocity": 80}, {"time": 95540, "pitch": 86, "duration": 50, "velocity": 80}, {"time": 95590, "pitch": 85, "duration": 50, "velocity": 80}, {"time": 95640, "pitch": 84, "duration": 50, "velocity": 80}, {"time": 95690, "pitch": 83, "duration": 50, "velocity": 80}, {"time": 95740, "pitch": 82, "duration": 50, "velocity": 80}, {"time": 95790, "pitch": 81, "duration": 49, "velocity": 80}, {"time": 95839, "pitch": 80, "duration": 50, "velocity": 80}, {"time": 95889, "pitch": 79, "duration": 50, "velocity": 80}, {"time": 95939, "pitch": 78, "duration": 50, "velocity": 80}, {"time": 95989, "pitch": 77, "duration": 50, "velocity": 82}, {"time": 96039, "pitch": 76, "duration": 50, "velocity": 77}, {"time": 96089, "pitch": 75, "duration": 50, "velocity": 72}, {"time": 96139, "pitch": 74, "duration": 50, "velocity": 68}, {"time": 96189, "pitch": 73, "duration": 49, "velocity": 63}, {"time": 96238, "pitch": 72, "duration": 50, "velocity": 59}, {"time": 96288, "pitch": 71, "duration": 50, "velocity": 54}, {"time": 96338, "pitch": 70, "duration": 50, "velocity": 50}, {"time": 96388, "pitch": 69, "duration": 50, "velocity": 45}, {"time": 96438, "pitch": 68, "duration": 40, "velocity": 41}, {"time": 129119, "pitch": 48, "duration": 80, "velocity": 72}, {"time": 129179, "pitch": 49, "duration": 79, "velocity": 74}, {"time": 129239, "pitch": 50, "duration": 79, "velocity": 77}, {"time": 129298, "pitch": 51, "duration": 80, "velocity": 79}, {"time": 129358, "pitch": 52, "duration": 80, "velocity": 82}, {"time": 129418, "pitch": 53, "duration": 80, "velocity": 84}, {"time": 129478, "pitch": 54, "duration": 80, "velocity": 87}, {"time": 129538, "pitch": 55, "duration": 80, "velocity": 89}, {"time": 129598, "pitch": 56, "duration": 80, "velocity": 92}, {"time": 129658, "pitch": 57, "duration": 81, "velocity": 94}, {"time": 129719, "pitch": 58, "duration": 80, "velocity": 97}, {"time": 129779, "pitch": 59, "duration": 81, "velocity": 99}, {"time": 129840, "pitch": 60, "duration": 80, "velocity": 102}, {"time": 129900, "pitch": 61, "duration": 81, "velocity": 103}, {"time": 129961, "pitch": 62, "duration": 80, "velocity": 100}, {"time": 130021, "pitch": 63, "duration": 80, "velocity": 97}, {"time": 130081, "pitch": 64, "duration": 80, "velocity": 93}, {"time": 130141, "pitch": 65, "duration": 80, "velocity": 90}, {"time": 130201, "pitch": 66, "duration": 80, "velocity": 87}, {"time": 130261, "pitch": 67, "duration": 80, "velocity": 84}, {"time": 130321, "pitch": 68, "duration": 80, "velocity": 81}, {"time": 130381, "pitch": 69, "duration": 80, "velocity": 77}, {"time": 130441, "pitch": 70, "duration": 79, "velocity": 74}, {"time": 130500, "pitch": 71, "duration": 80, "velocity": 71}, {"time": 130560, "pitch": 72, "duration": 80, "velocity": 68}, {"time": 130620, "pitch": 73, "duration": 80, "velocity": 65}, {"time": 130680, "pitch": 74, "duration": 80, "velocity": 62}, {"time": 130740, "pitch": 75, "duration": 80, "velocity": 58}, {"time": 144960, "pitch": 96, "duration": 50, "velocity": 38}, {"time": 145010, "pitch": 95, "duration": 50, "velocity": 43}, {"time": 145060, "pitch": 94, "duration": 50, "velocity": 49}, {"time": 145110, "pitch": 93, "duration": 50, "velocity": 54}, {"time": 145160, "pitch": 92, "duration": 50, "velocity": 60}, {"time": 145210, "pitch": 91, "duration": 50, "velocity": 66}, {"time": 145260, "pitch": 90, "duration": 50, "velocity": 71}, {"time": 145310, "pitch": 89, "duration": 49, "velocity": 77}, {"time": 145359, "pitch": 88, "duration": 50, "velocity": 83}, {"time": 145409, "pitch": 87, "duration": 50, "velocity": 80}, {"time": 145459, "pitch": 86, "duration": 50, "velocity": 80}, {"time": 145509, "pitch": 85, "duration": 50, "velocity": 80}, {"time": 145559, "pitch": 84, "duration": 50, "velocity": 80}, {"time": 145609, "pitch": 83, "duration": 50, "velocity": 80}, {"time": 145659, "pitch": 82, "duration": 50, "velocity": 80}, {"time": 145709, "pitch": 81, "duration": 50, "velocity": 80}, {"time": 145759, "pitch": 80, "duration": 49, "velocity": 80}, {"time": 145808, "pitch": 79, "duration": 50, "velocity": 80}, {"time": 145858, "pitch": 78, "duration": 50, "velocity": 80}, {"time": 145908, "pitch": 77, "duration": 50, "velocity": 82}, {"time": 145958, "pitch": 76, "duration": 51, "velocity": 77}, {"time": 146009, "pitch": 75, "duration": 50, "velocity": 72}, {"time": 146059, "pitch": 74, "duration": 51, "velocity": 68}, {"time": 146110, "pitch": 73, "duration": 50, "velocity": 63}, {"time": 146160, "pitch": 72, "duration": 50, "velocity": 59}, {"time": 146210, "pitch": 71, "duration": 51, "velocity": 54}, {"time": 146261, "pitch": 70, "duration": 50, "velocity": 50}, {"time": 146311, "pitch": 69, "duration": 51, "velocity": 45}, {"time": 146362, "pitch": 68, "duration": 50, "velocity": 41}, {"time": 480, "pitch": 46, "duration": 1921, "velocity": 60}, {"time": 480, "pitch": 53, "duration": 1921, "velocity": 70}, {"time": 480, "pitch": 58, "duration": 1921, "velocity": 70}, {"time": 480, "pitch": 60, "duration": 1921, "velocity": 70}, {"time": 480, "pitch": 72, "duration": 200, "velocity": 81}, {"time": 480, "pitch": 81, "duration": 200, "velocity": 100}, {"time": 720, "pitch": 74, "duration": 110, "velocity": 80}, {"time": 720, "pitch": 82, "duration": 110, "velocity": 95}, {"time": 839, "pitch": 72, "duration": 240, "velocity": 80}, {"time": 839, "pitch": 81, "duration": 240, "velocity": 100}, {"time": 1079, "pitch": 69, "duration": 120, "velocity": 75}, {"time": 1079, "pitch": 77, "duration": 120, "velocity": 95}, {"time": 1199, "pitch": 65, "duration": 1202, "velocity": 75}, {"time": 1199, "pitch": 74, "duration": 842, "velocity": 95}, {"time": 2042, "pitch": 72, "duration": 119, "velocity": 100}, {"time": 2161, "pitch": 74, "duration": 120, "velocity": 89}, {"time": 2281, "pitch": 77, "duration": 120, "velocity": 95}, {"time": 2401, "pitch": 51, "duration": 957, "velocity": 85}, {"time": 2401, "pitch": 58, "duration": 957, "velocity": 75}, {"time": 2401, "pitch": 67, "duration": 957, "velocity": 80}, {"time": 2401, "pitch": 70, "duration": 957, "velocity": 80}, {"time": 2401, "pitch": 74, "duration": 957, "velocity": 90}, {"time": 3358, "pitch": 51, "duration": 963, "velocity": 70}, {"time": 3358, "pitch": 58, "duration": 963, "velocity": 70}, {"time": 3358, "pitch": 63, "duration": 963, "velocity": 70}, {"time": 3358, "pitch": 67, "duration": 963, "velocity": 70}, {"time": 3358, "pitch": 70, "duration": 963, "velocity": 70}, {"time": 4321, "pitch": 46, "duration": 1920, "velocity": 60}, {"time": 4321, "pitch": 53, "duration": 1920, "velocity": 70}, {"time": 4321, "pitch": 58, "duration": 1920, "velocity": 70}, {"time": 4321, "pitch": 60, "duration": 1920, "velocity": 70}, {"time": 4321, "pitch": 72, "duration": 200, "velocity": 81}, {"time": 4321, "pitch": 81, "duration": 200, "velocity": 100}, {"time": 4560, "pitch": 74, "duration": 110, "velocity": 80}, {"time": 4560, "pitch": 82, "duration": 110, "velocity": 95}, {"time": 4680, "pitch": 72, "duration": 240, "velocity": 80}, {"time": 4680, "pitch": 81, "duration": 240, "velocity": 100}, {"time": 4920, "pitch": 69, "duration": 119, "velocity": 75}, {"time": 4920, "pitch": 77, "duration": 119, "velocity": 95}, {"time": 5039, "pitch": 65, "duration": 1202, "velocity": 75}, {"time": 5039, "pitch": 74, "duration": 839, "velocity": 95}, {"time": 5879, "pitch": 72, "duration": 120, "velocity": 100}, {"time": 5999, "pitch": 74, "duration": 121, "velocity": 89}, {"time": 6120, "pitch": 77, "duration": 121, "velocity": 95}, {"time": 6241, "pitch": 51, "duration": 340, "velocity": 85}, {"time": 6241, "pitch": 58, "duration": 340, "velocity": 75}, {"time": 6241, "pitch": 67, "duration": 340, "velocity": 80}, {"time": 6241, "pitch": 70, "duration": 340, "velocity": 80}, {"time": 6241, "pitch": 74, "duration": 340, "velocity": 90}, {"time": 6601, "pitch": 51, "duration": 99, "velocity": 70}, {"time": 6601, "pitch": 58, "duration": 99, "velocity": 70}, {"time": 6601, "pitch": 63, "duration": 109, "velocity": 70}, {"time": 6601, "pitch": 67, "duration": 99, "velocity": 80}, {"time": 6601, "pitch": 70, "duration": 79, "velocity": 85}, {"time": 6960, "pitch": 53, "duration": 1182, "velocity": 70}, {"time": 6960, "pitch": 58, "duration": 1182, "velocity": 70}, {"time": 6960, "pitch": 63, "duration": 1182, "velocity": 70}, {"time": 6960, "pitch": 67, "duration": 1182, "velocity": 80}, {"time": 6960, "pitch": 70, "duration": 1182, "velocity": 85}, {"time": 8162, "pitch": 46, "duration": 479, "velocity": 64}, {"time": 8162, "pitch": 65, "duration": 239, "velocity": 64}, {"time": 8162, "pitch": 70, "duration": 479, "velocity": 64}, {"time": 8162, "pitch": 77, "duration": 239, "velocity": 64}, {"time": 8401, "pitch": 65, "duration": 240, "velocity": 64}, {"time": 8641, "pitch": 62, "duration": 478, "velocity": 64}, {"time": 8641, "pitch": 65, "duration": 239, "velocity": 64}, {"time": 8641, "pitch": 67, "duration": 478, "velocity": 64}, {"time": 8880, "pitch": 55, "duration": 239, "velocity": 64}, {"time": 8880, "pitch": 70, "duration": 239, "velocity": 64}, {"time": 9000, "pitch": 74, "duration": 119, "velocity": 64}, {"time": 9119, "pitch": 48, "duration": 479, "velocity": 64}, {"time": 9119, "pitch": 60, "duration": 479, "velocity": 64}, {"time": 9119, "pitch": 63, "duration": 479, "velocity": 64}, {"time": 9119, "pitch": 67, "duration": 240, "velocity": 64}, {"time": 9119, "pitch": 74, "duration": 240, "velocity": 64}, {"time": 9359, "pitch": 67, "duration": 239, "velocity": 64}, {"time": 9598, "pitch": 48, "duration": 484, "velocity": 64}, {"time": 9598, "pitch": 58, "duration": 484, "velocity": 64}, {"time": 9598, "pitch": 63, "duration": 484, "velocity": 64}, {"time": 9598, "pitch": 67, "duration": 484, "velocity": 64}, {"time": 9598, "pitch": 72, "duration": 484, "velocity": 64}, {"time": 10082, "pitch": 48, "duration": 479, "velocity": 64}, {"time": 10082, "pitch": 58, "duration": 479, "velocity": 64}, {"time": 10082, "pitch": 66, "duration": 240, "velocity": 64}, {"time": 10082, "pitch": 70, "duration": 479, "velocity": 64}, {"time": 10082, "pitch": 75, "duration": 240, "velocity": 64}, {"time": 10322, "pitch": 66, "duration": 239, "velocity": 64}, {"time": 10561, "pitch": 53, "duration": 479, "velocity": 64}, {"time": 10561, "pitch": 57, "duration": 479, "velocity": 64}, {"time": 10561, "pitch": 60, "duration": 479, "velocity": 64}, {"time": 10561, "pitch": 65, "duration": 479, "velocity": 64}, {"time": 10800, "pitch": 69, "duration": 240, "velocity": 64}, {"time": 10920, "pitch": 72, "duration": 120, "velocity": 64}, {"time": 11040, "pitch": 58, "duration": 962, "velocity": 64}, {"time": 11040, "pitch": 62, "duration": 479, "velocity": 64}, {"time": 11040, "pitch": 65, "duration": 479, "velocity": 64}, {"time": 11040, "pitch": 72, "duration": 479, "velocity": 64}, {"time": 11279, "pitch": 53, "duration": 240, "velocity": 64}, {"time": 11519, "pitch": 46, "duration": 483, "velocity": 64}, {"time": 11519, "pitch": 62, "duration": 483, "velocity": 64}, {"time": 11519, "pitch": 65, "duration": 483, "velocity": 64}, {"time": 11519, "pitch": 70, "duration": 483, "velocity": 64}, {"time": 12002, "pitch": 50, "duration": 958, "velocity": 64}, {"time": 12002, "pitch": 57, "duration": 958, "velocity": 64}, {"time": 12002, "pitch": 60, "duration": 958, "velocity": 64}, {"time": 12002, "pitch": 65, "duration": 240, "velocity": 64}, {"time": 12242, "pitch": 69, "duration": 239, "velocity": 64}, {"time": 12481, "pitch": 72, "duration": 240, "velocity": 64}, {"time": 12721, "pitch": 69, "duration": 239, "velocity": 64}, {"time": 12960, "pitch": 55, "duration": 479, "velocity": 64}, {"time": 12960, "pitch": 62, "duration": 479, "velocity": 64}, {"time": 12960, "pitch": 65, "duration": 479, "velocity": 64}, {"time": 12960, "pitch": 70, "duration": 958, "velocity": 64}, {"time": 13439, "pitch": 79, "duration": 479, "velocity": 64}, {"time": 13678, "pitch": 74, "duration": 240, "velocity": 64}, {"time": 13918, "pitch": 53, "duration": 484, "velocity": 64}, {"time": 13918, "pitch": 55, "duration": 484, "velocity": 64}, {"time": 13918, "pitch": 58, "duration": 484, "velocity": 64}, {"time": 13918, "pitch": 62, "duration": 484, "velocity": 64}, {"time": 13918, "pitch": 70, "duration": 242, "velocity": 64}, {"time": 14160, "pitch": 67, "duration": 242, "velocity": 64}, {"time": 14402, "pitch": 53, "duration": 478, "velocity": 64}, {"time": 14402, "pitch": 55, "duration": 478, "velocity": 64}, {"time": 14402, "pitch": 58, "duration": 478, "velocity": 64}, {"time": 14402, "pitch": 60, "duration": 478, "velocity": 64}, {"time": 14402, "pitch": 69, "duration": 239, "velocity": 64}, {"time": 14641, "pitch": 70, "duration": 479, "velocity": 64}, {"time": 14880, "pitch": 53, "duration": 479, "velocity": 64}, {"time": 14880, "pitch": 55, "duration": 479, "velocity": 64}, {"time": 14880, "pitch": 58, "duration": 479, "velocity": 64}, {"time": 14880, "pitch": 62, "duration": 479, "velocity": 64}, {"time": 15120, "pitch": 69, "duration": 239, "velocity": 64}, {"time": 15359, "pitch": 51, "duration": 479, "velocity": 64}, {"time": 15359, "pitch": 54, "duration": 479, "velocity": 64}, {"time": 15359, "pitch": 60, "duration": 479, "velocity": 64}, {"time": 15359, "pitch": 63, "duration": 479, "velocity": 64}, {"time": 15359, "pitch": 70, "duration": 240, "velocity": 64}, {"time": 15599, "pitch": 72, "duration": 239, "velocity": 64}, {"time": 15838, "pitch": 50, "duration": 963, "velocity": 64}, {"time": 15838, "pitch": 56, "duration": 963, "velocity": 64}, {"time": 15838, "pitch": 60, "duration": 963, "velocity": 64}, {"time": 15838, "pitch": 65, "duration": 963, "velocity": 64}, {"time": 15838, "pitch": 68, "duration": 484, "velocity": 64}, {"time": 16322, "pitch": 77, "duration": 239, "velocity": 64}, {"time": 16561, "pitch": 68, "duration": 240, "velocity": 64}, {"time": 16801, "pitch": 55, "duration": 958, "velocity": 64}, {"time": 16801, "pitch": 59, "duration": 958, "velocity": 64}, {"time": 16801, "pitch": 62, "duration": 958, "velocity": 64}, {"time": 16801, "pitch": 65, "duration": 958, "velocity": 64}, {"time": 16801, "pitch": 67, "duration": 239, "velocity": 64}, {"time": 17040, "pitch": 71, "duration": 240, "velocity": 64}, {"time": 17280, "pitch": 77, "duration": 479, "velocity": 64}, {"time": 17759, "pitch": 48, "duration": 962, "velocity": 64}, {"time": 17759, "pitch": 54, "duration": 962, "velocity": 64}, {"time": 17759, "pitch": 58, "duration": 962, "velocity": 64}, {"time": 17759, "pitch": 63, "duration": 962, "velocity": 64}, {"time": 17759, "pitch": 66, "duration": 483, "velocity": 64}, {"time": 18242, "pitch": 75, "duration": 240, "velocity": 64}, {"time": 18482, "pitch": 66, "duration": 239, "velocity": 64}, {"time": 18721, "pitch": 53, "duration": 479, "velocity": 64}, {"time": 18721, "pitch": 57, "duration": 479, "velocity": 64}, {"time": 18721, "pitch": 60, "duration": 479, "velocity": 64}, {"time": 18721, "pitch": 65, "duration": 479, "velocity": 64}, {"time": 19200, "pitch": 52, "duration": 479, "velocity": 64}, {"time": 19200, "pitch": 64, "duration": 479, "velocity": 64}, {"time": 19200, "pitch": 68, "duration": 479, "velocity": 64}, {"time": 19200, "pitch": 71, "duration": 479, "velocity": 64}, {"time": 19200, "pitch": 74, "duration": 479, "velocity": 64}, {"time": 19659, "pitch": 67, "duration": 729, "velocity": 64}, {"time": 19679, "pitch": 51, "duration": 963, "velocity": 64}, {"time": 19679, "pitch": 70, "duration": 479, "velocity": 64}, {"time": 19699, "pitch": 74, "duration": 201, "velocity": 64}, {"time": 19719, "pitch": 79, "duration": 923, "velocity": 64}, {"time": 19918, "pitch": 74, "duration": 724, "velocity": 64}, {"time": 20158, "pitch": 70, "duration": 484, "velocity": 64}, {"time": 20400, "pitch": 67, "duration": 242, "velocity": 64}, {"time": 20642, "pitch": 64, "duration": 957, "velocity": 64}, {"time": 20642, "pitch": 67, "duration": 957, "velocity": 64}, {"time": 20642, "pitch": 70, "duration": 957, "velocity": 64}, {"time": 20642, "pitch": 79, "duration": 957, "velocity": 64}, {"time": 21120, "pitch": 48, "duration": 479, "velocity": 64}, {"time": 21599, "pitch": 53, "duration": 963, "velocity": 64}, {"time": 21599, "pitch": 67, "duration": 240, "velocity": 64}, {"time": 21599, "pitch": 70, "duration": 479, "velocity": 64}, {"time": 21599, "pitch": 75, "duration": 721, "velocity": 64}, {"time": 21839, "pitch": 67, "duration": 723, "velocity": 64}, {"time": 22078, "pitch": 70, "duration": 484, "velocity": 64}, {"time": 22320, "pitch": 75, "duration": 242, "velocity": 64}, {"time": 22542, "pitch": 69, "duration": 958, "velocity": 64}, {"time": 22562, "pitch": 53, "duration": 958, "velocity": 64}, {"time": 22562, "pitch": 72, "duration": 958, "velocity": 64}, {"time": 22582, "pitch": 77, "duration": 938, "velocity": 64}, {"time": 23041, "pitch": 41, "duration": 479, "velocity": 64}, {"time": 23041, "pitch": 57, "duration": 479, "velocity": 64}, {"time": 23041, "pitch": 60, "duration": 479, "velocity": 64}, {"time": 23041, "pitch": 65, "duration": 479, "velocity": 64}, {"time": 23520, "pitch": 50, "duration": 478, "velocity": 64}, {"time": 23520, "pitch": 65, "duration": 239, "velocity": 64}, {"time": 23520, "pitch": 69, "duration": 478, "velocity": 64}, {"time": 23520, "pitch": 72, "duration": 478, "velocity": 64}, {"time": 23520, "pitch": 77, "duration": 239, "velocity": 64}, {"time": 23759, "pitch": 65, "duration": 239, "velocity": 64}, {"time": 23998, "pitch": 55, "duration": 484, "velocity": 64}, {"time": 23998, "pitch": 62, "duration": 484, "velocity": 64}, {"time": 23998, "pitch": 65, "duration": 484, "velocity": 64}, {"time": 23998, "pitch": 67, "duration": 484, "velocity": 64}, {"time": 23998, "pitch": 70, "duration": 242, "velocity": 64}, {"time": 24240, "pitch": 74, "duration": 242, "velocity": 64}, {"time": 24482, "pitch": 48, "duration": 479, "velocity": 64}, {"time": 24482, "pitch": 60, "duration": 479, "velocity": 64}, {"time": 24482, "pitch": 63, "duration": 479, "velocity": 64}, {"time": 24482, "pitch": 67, "duration": 240, "velocity": 64}, {"time": 24482, "pitch": 74, "duration": 479, "velocity": 64}, {"time": 24722, "pitch": 67, "duration": 239, "velocity": 64}, {"time": 24961, "pitch": 48, "duration": 479, "velocity": 64}, {"time": 24961, "pitch": 58, "duration": 479, "velocity": 64}, {"time": 24961, "pitch": 63, "duration": 479, "velocity": 64}, {"time": 24961, "pitch": 67, "duration": 479, "velocity": 64}, {"time": 24961, "pitch": 72, "duration": 479, "velocity": 64}, {"time": 25440, "pitch": 48, "duration": 479, "velocity": 64}, {"time": 25440, "pitch": 58, "duration": 479, "velocity": 64}, {"time": 25440, "pitch": 63, "duration": 479, "velocity": 64}, {"time": 25440, "pitch": 66, "duration": 479, "velocity": 64}, {"time": 25919, "pitch": 53, "duration": 479, "velocity": 64}, {"time": 25919, "pitch": 57, "duration": 479, "velocity": 64}, {"time": 25919, "pitch": 60, "duration": 479, "velocity": 64}, {"time": 25919, "pitch": 65, "duration": 479, "velocity": 64}, {"time": 25919, "pitch": 77, "duration": 479, "velocity": 64}, {"time": 26398, "pitch": 58, "duration": 483, "velocity": 64}, {"time": 26398, "pitch": 62, "duration": 483, "velocity": 64}, {"time": 26398, "pitch": 65, "duration": 483, "velocity": 64}, {"time": 26398, "pitch": 72, "duration": 483, "velocity": 64}, {"time": 26881, "pitch": 46, "duration": 479, "velocity": 64}, {"time": 26881, "pitch": 53, "duration": 479, "velocity": 64}, {"time": 26881, "pitch": 58, "duration": 479, "velocity": 64}, {"time": 26881, "pitch": 62, "duration": 479, "velocity": 64}, {"time": 26901, "pitch": 74, "duration": 459, "velocity": 64}, {"time": 27360, "pitch": 51, "duration": 958, "velocity": 64}, {"time": 27360, "pitch": 58, "duration": 958, "velocity": 64}, {"time": 27360, "pitch": 62, "duration": 958, "velocity": 64}, {"time": 27360, "pitch": 67, "duration": 719, "velocity": 64}, {"time": 27360, "pitch": 79, "duration": 958, "velocity": 64}, {"time": 27600, "pitch": 70, "duration": 239, "velocity": 64}, {"time": 27839, "pitch": 74, "duration": 240, "velocity": 64}, {"time": 28079, "pitch": 67, "duration": 239, "velocity": 64}, {"time": 28318, "pitch": 51, "duration": 963, "velocity": 64}, {"time": 28318, "pitch": 57, "duration": 963, "velocity": 64}, {"time": 28318, "pitch": 61, "duration": 963, "velocity": 64}, {"time": 28318, "pitch": 66, "duration": 963, "velocity": 64}, {"time": 28560, "pitch": 69, "duration": 242, "velocity": 64}, {"time": 28802, "pitch": 73, "duration": 239, "velocity": 64}, {"time": 29041, "pitch": 78, "duration": 240, "velocity": 64}, {"time": 29281, "pitch": 50, "duration": 957, "velocity": 64}, {"time": 29281, "pitch": 57, "duration": 957, "velocity": 64}, {"time": 29281, "pitch": 60, "duration": 957, "velocity": 64}, {"time": 29281, "pitch": 65, "duration": 957, "velocity": 64}, {"time": 29301, "pitch": 77, "duration": 937, "velocity": 64}, {"time": 29520, "pitch": 69, "duration": 239, "velocity": 64}, {"time": 29759, "pitch": 72, "duration": 479, "velocity": 64}, {"time": 30238, "pitch": 55, "duration": 484, "velocity": 64}, {"time": 30238, "pitch": 58, "duration": 484, "velocity": 64}, {"time": 30238, "pitch": 62, "duration": 484, "velocity": 64}, {"time": 30238, "pitch": 65, "duration": 484, "velocity": 64}, {"time": 30480, "pitch": 70, "duration": 242, "velocity": 64}, {"time": 30722, "pitch": 53, "duration": 479, "velocity": 64}, {"time": 30722, "pitch": 56, "duration": 479, "velocity": 64}, {"time": 30722, "pitch": 60, "duration": 479, "velocity": 64}, {"time": 30722, "pitch": 63, "duration": 479, "velocity": 64}, {"time": 30752, "pitch": 75, "duration": 449, "velocity": 64}, {"time": 31201, "pitch": 52, "duration": 958, "velocity": 64}, {"time": 31201, "pitch": 58, "duration": 958, "velocity": 64}, {"time": 31201, "pitch": 62, "duration": 958, "velocity": 64}, {"time": 31201, "pitch": 79, "duration": 718, "velocity": 64}, {"time": 31440, "pitch": 70, "duration": 719, "velocity": 64}, {"time": 31680, "pitch": 74, "duration": 479, "velocity": 64}, {"time": 31919, "pitch": 79, "duration": 240, "velocity": 64}, {"time": 32159, "pitch": 51, "duration": 962, "velocity": 64}, {"time": 32159, "pitch": 58, "duration": 962, "velocity": 64}, {"time": 32159, "pitch": 61, "duration": 962, "velocity": 64}, {"time": 32159, "pitch": 67, "duration": 723, "velocity": 64}, {"time": 32401, "pitch": 70, "duration": 241, "velocity": 64}, {"time": 32642, "pitch": 73, "duration": 240, "velocity": 64}, {"time": 32882, "pitch": 67, "duration": 239, "velocity": 64}, {"time": 33121, "pitch": 50, "duration": 958, "velocity": 64}, {"time": 33121, "pitch": 57, "duration": 958, "velocity": 64}, {"time": 33121, "pitch": 60, "duration": 958, "velocity": 64}, {"time": 33121, "pitch": 65, "duration": 240, "velocity": 64}, {"time": 33361, "pitch": 69, "duration": 239, "velocity": 64}, {"time": 33600, "pitch": 72, "duration": 240, "velocity": 64}, {"time": 33840, "pitch": 77, "duration": 239, "velocity": 64}, {"time": 34079, "pitch": 55, "duration": 963, "velocity": 64}, {"time": 34079, "pitch": 58, "duration": 963, "velocity": 64}, {"time": 34079, "pitch": 62, "duration": 963, "velocity": 64}, {"time": 34079, "pitch": 65, "duration": 963, "velocity": 64}, {"time": 34318, "pitch": 67, "duration": 240, "velocity": 64}, {"time": 34558, "pitch": 70, "duration": 242, "velocity": 64}, {"time": 34800, "pitch": 77, "duration": 242, "velocity": 64}, {"time": 35042, "pitch": 51, "duration": 957, "velocity": 70}, {"time": 35042, "pitch": 62, "duration": 957, "velocity": 70}, {"time": 35042, "pitch": 67, "duration": 548, "velocity": 85}, {"time": 35042, "pitch": 70, "duration": 608, "velocity": 80}, {"time": 35042, "pitch": 74, "duration": 608, "velocity": 90}, {"time": 35640, "pitch": 67, "duration": 339, "velocity": 83}, {"time": 35760, "pitch": 70, "duration": 229, "velocity": 90}, {"time": 35880, "pitch": 74, "duration": 99, "velocity": 97}, {"time": 35999, "pitch": 50, "duration": 963, "velocity": 70}, {"time": 35999, "pitch": 60, "duration": 963, "velocity": 70}, {"time": 35999, "pitch": 65, "duration": 963, "velocity": 90}, {"time": 35999, "pitch": 69, "duration": 963, "velocity": 80}, {"time": 35999, "pitch": 72, "duration": 963, "velocity": 95}, {"time": 36962, "pitch": 48, "duration": 958, "velocity": 70}, {"time": 36962, "pitch": 58, "duration": 958, "velocity": 70}, {"time": 36962, "pitch": 63, "duration": 569, "velocity": 85}, {"time": 36962, "pitch": 67, "duration": 688, "velocity": 90}, {"time": 36962, "pitch": 70, "duration": 728, "velocity": 95}, {"time": 37561, "pitch": 63, "duration": 329, "velocity": 95}, {"time": 37680, "pitch": 67, "duration": 180, "velocity": 89}, {"time": 37800, "pitch": 70, "duration": 90, "velocity": 77}, {"time": 37920, "pitch": 46, "duration": 962, "velocity": 70}, {"time": 37920, "pitch": 57, "duration": 962, "velocity": 70}, {"time": 37920, "pitch": 60, "duration": 710, "velocity": 80}, {"time": 37920, "pitch": 65, "duration": 710, "velocity": 85}, {"time": 37920, "pitch": 69, "duration": 710, "velocity": 90}, {"time": 38640, "pitch": 65, "duration": 232, "velocity": 80}, {"time": 38640, "pitch": 69, "duration": 232, "velocity": 80}, {"time": 38640, "pitch": 72, "duration": 232, "velocity": 80}, {"time": 38882, "pitch": 45, "duration": 958, "velocity": 70}, {"time": 38882, "pitch": 57, "duration": 958, "velocity": 70}, {"time": 38882, "pitch": 62, "duration": 709, "velocity": 80}, {"time": 38882, "pitch": 64, "duration": 709, "velocity": 85}, {"time": 38882, "pitch": 69, "duration": 709, "velocity": 90}, {"time": 39601, "pitch": 62, "duration": 349, "velocity": 85}, {"time": 39601, "pitch": 64, "duration": 349, "velocity": 85}, {"time": 39601, "pitch": 69, "duration": 349, "velocity": 85}, {"time": 39840, "pitch": 45, "duration": 958, "velocity": 70}, {"time": 39840, "pitch": 57, "duration": 958, "velocity": 70}, {"time": 39960, "pitch": 62, "duration": 828, "velocity": 85}, {"time": 39960, "pitch": 64, "duration": 828, "velocity": 85}, {"time": 39960, "pitch": 69, "duration": 828, "velocity": 85}, {"time": 40798, "pitch": 50, "duration": 962, "velocity": 70}, {"time": 40798, "pitch": 57, "duration": 342, "velocity": 80}, {"time": 40798, "pitch": 62, "duration": 342, "velocity": 70}, {"time": 40798, "pitch": 66, "duration": 352, "velocity": 80}, {"time": 40798, "pitch": 69, "duration": 342, "velocity": 90}, {"time": 41161, "pitch": 57, "duration": 70, "velocity": 80}, {"time": 41161, "pitch": 62, "duration": 70, "velocity": 80}, {"time": 41161, "pitch": 66, "duration": 90, "velocity": 85}, {"time": 41161, "pitch": 69, "duration": 80, "velocity": 90}, {"time": 41521, "pitch": 57, "duration": 1187, "velocity": 80}, {"time": 41521, "pitch": 62, "duration": 239, "velocity": 80}, {"time": 41521, "pitch": 66, "duration": 1187, "velocity": 90}, {"time": 41521, "pitch": 69, "duration": 1187, "velocity": 95}, {"time": 41760, "pitch": 50, "duration": 958, "velocity": 70}, {"time": 41760, "pitch": 62, "duration": 948, "velocity": 70}, {"time": 42718, "pitch": 58, "duration": 1890, "velocity": 82}, {"time": 42718, "pitch": 62, "duration": 1890, "velocity": 82}, {"time": 42718, "pitch": 65, "duration": 1881, "velocity": 86}, {"time": 42718, "pitch": 69, "duration": 1890, "velocity": 82}, {"time": 43920, "pitch": 86, "duration": 679, "velocity": 83}, {"time": 44160, "pitch": 81, "duration": 448, "velocity": 86}, {"time": 44399, "pitch": 74, "duration": 229, "velocity": 71}, {"time": 44638, "pitch": 57, "duration": 1891, "velocity": 82}, {"time": 44638, "pitch": 60, "duration": 1891, "velocity": 82}, {"time": 44638, "pitch": 64, "duration": 1881, "velocity": 86}, {"time": 44638, "pitch": 67, "duration": 1891, "velocity": 82}, {"time": 44638, "pitch": 72, "duration": 1891, "velocity": 82}, {"time": 45122, "pitch": 84, "duration": 1437, "velocity": 82}, {"time": 46559, "pitch": 43, "duration": 962, "velocity": 70}, {"time": 46559, "pitch": 58, "duration": 962, "velocity": 70}, {"time": 46559, "pitch": 62, "duration": 962, "velocity": 70}, {"time": 46559, "pitch": 65, "duration": 962, "velocity": 70}, {"time": 46798, "pitch": 70, "duration": 713, "velocity": 90}, {"time": 46918, "pitch": 77, "duration": 603, "velocity": 89}, {"time": 47521, "pitch": 48, "duration": 958, "velocity": 70}, {"time": 47521, "pitch": 58, "duration": 958, "velocity": 70}, {"time": 47521, "pitch": 64, "duration": 958, "velocity": 70}, {"time": 47521, "pitch": 67, "duration": 958, "velocity": 70}, {"time": 48000, "pitch": 76, "duration": 479, "velocity": 89}, {"time": 48240, "pitch": 72, "duration": 1441, "velocity": 80}, {"time": 48479, "pitch": 53, "duration": 963, "velocity": 70}, {"time": 48479, "pitch": 60, "duration": 963, "velocity": 70}, {"time": 48479, "pitch": 65, "duration": 963, "velocity": 70}, {"time": 49200, "pitch": 69, "duration": 242, "velocity": 83}, {"time": 49442, "pitch": 53, "duration": 957, "velocity": 70}, {"time": 49442, "pitch": 57, "duration": 957, "velocity": 70}, {"time": 49442, "pitch": 60, "duration": 957, "velocity": 70}, {"time": 49442, "pitch": 65, "duration": 957, "velocity": 70}, {"time": 49442, "pitch": 81, "duration": 957, "velocity": 80}, {"time": 50399, "pitch": 51, "duration": 1891, "velocity": 82}, {"time": 50399, "pitch": 58, "duration": 1891, "velocity": 82}, {"time": 50399, "pitch": 62, "duration": 1881, "velocity": 86}, {"time": 50399, "pitch": 65, "duration": 1891, "velocity": 82}, {"time": 51602, "pitch": 82, "duration": 678, "velocity": 83}, {"time": 51841, "pitch": 79, "duration": 449, "velocity": 86}, {"time": 52080, "pitch": 74, "duration": 230, "velocity": 71}, {"time": 52320, "pitch": 56, "duration": 1890, "velocity": 82}, {"time": 52320, "pitch": 60, "duration": 1890, "velocity": 82}, {"time": 52320, "pitch": 63, "duration": 1880, "velocity": 86}, {"time": 52320, "pitch": 67, "duration": 1890, "velocity": 82}, {"time": 52320, "pitch": 72, "duration": 1890, "velocity": 82}, {"time": 52799, "pitch": 84, "duration": 1441, "velocity": 82}, {"time": 54240, "pitch": 45, "duration": 958, "velocity": 70}, {"time": 54240, "pitch": 57, "duration": 958, "velocity": 70}, {"time": 54240, "pitch": 60, "duration": 958, "velocity": 70}, {"time": 54240, "pitch": 63, "duration": 958, "velocity": 70}, {"time": 54240, "pitch": 67, "duration": 958, "velocity": 70}, {"time": 55198, "pitch": 48, "duration": 962, "velocity": 70}, {"time": 55198, "pitch": 58, "duration": 962, "velocity": 70}, {"time": 55198, "pitch": 60, "duration": 962, "velocity": 70}, {"time": 55198, "pitch": 63, "duration": 962, "velocity": 70}, {"time": 55198, "pitch": 66, "duration": 962, "velocity": 70}, {"time": 56160, "pitch": 41, "duration": 958, "velocity": 70}, {"time": 56160, "pitch": 58, "duration": 958, "velocity": 70}, {"time": 56160, "pitch": 60, "duration": 958, "velocity": 70}, {"time": 56160, "pitch": 63, "duration": 958, "velocity": 70}, {"time": 56160, "pitch": 65, "duration": 958, "velocity": 70}, {"time": 57118, "pitch": 41, "duration": 963, "velocity": 70}, {"time": 57118, "pitch": 57, "duration": 963, "velocity": 70}, {"time": 57118, "pitch": 60, "duration": 963, "velocity": 70}, {"time": 57118, "pitch": 63, "duration": 963, "velocity": 70}, {"time": 57118, "pitch": 65, "duration": 963, "velocity": 70}, {"time": 58081, "pitch": 50, "duration": 479, "velocity": 64}, {"time": 58081, "pitch": 65, "duration": 239, "velocity": 64}, {"time": 58081, "pitch": 69, "duration": 479, "velocity": 64}, {"time": 58081, "pitch": 72, "duration": 479, "velocity": 64}, {"time": 58081, "pitch": 77, "duration": 239, "velocity": 64}, {"time": 58320, "pitch": 65, "duration": 240, "velocity": 64}, {"time": 58560, "pitch": 55, "duration": 479, "velocity": 64}, {"time": 58560, "pitch": 62, "duration": 479, "velocity": 64}, {"time": 58560, "pitch": 65, "duration": 479, "velocity": 64}, {"time": 58560, "pitch": 67, "duration": 479, "velocity": 64}, {"time": 58560, "pitch": 70, "duration": 239, "velocity": 64}, {"time": 58799, "pitch": 74, "duration": 240, "velocity": 64}, {"time": 59039, "pitch": 48, "duration": 483, "velocity": 64}, {"time": 59039, "pitch": 60, "duration": 483, "velocity": 64}, {"time": 59039, "pitch": 63, "duration": 483, "velocity": 64}, {"time": 59039, "pitch": 67, "duration": 241, "velocity": 64}, {"time": 59039, "pitch": 74, "duration": 483, "velocity": 64}, {"time": 59280, "pitch": 67, "duration": 242, "velocity": 64}, {"time": 59522, "pitch": 48, "duration": 479, "velocity": 64}, {"time": 59522, "pitch": 58, "duration": 479, "velocity": 64}, {"time": 59522, "pitch": 63, "duration": 479, "velocity": 64}, {"time": 59522, "pitch": 67, "duration": 479, "velocity": 64}, {"time": 59522, "pitch": 72, "duration": 479, "velocity": 64}, {"time": 60001, "pitch": 48, "duration": 479, "velocity": 64}, {"time": 60001, "pitch": 58, "duration": 479, "velocity": 64}, {"time": 60001, "pitch": 63, "duration": 479, "velocity": 64}, {"time": 60001, "pitch": 66, "duration": 479, "velocity": 64}, {"time": 60480, "pitch": 53, "duration": 479, "velocity": 64}, {"time": 60480, "pitch": 57, "duration": 479, "velocity": 64}, {"time": 60480, "pitch": 60, "duration": 479, "velocity": 64}, {"time": 60480, "pitch": 65, "duration": 479, "velocity": 64}, {"time": 60480, "pitch": 77, "duration": 479, "velocity": 64}, {"time": 60959, "pitch": 58, "duration": 479, "velocity": 64}, {"time": 60959, "pitch": 62, "duration": 479, "velocity": 64}, {"time": 60959, "pitch": 65, "duration": 479, "velocity": 64}, {"time": 60959, "pitch": 72, "duration": 479, "velocity": 64}, {"time": 61438, "pitch": 46, "duration": 484, "velocity": 64}, {"time": 61438, "pitch": 53, "duration": 484, "velocity": 64}, {"time": 61438, "pitch": 58, "duration": 484, "velocity": 64}, {"time": 61438, "pitch": 62, "duration": 484, "velocity": 64}, {"time": 61458, "pitch": 74, "duration": 464, "velocity": 64}, {"time": 61922, "pitch": 51, "duration": 957, "velocity": 64}, {"time": 61922, "pitch": 58, "duration": 957, "velocity": 64}, {"time": 61922, "pitch": 62, "duration": 957, "velocity": 64}, {"time": 61922, "pitch": 67, "duration": 718, "velocity": 64}, {"time": 61922, "pitch": 79, "duration": 957, "velocity": 64}, {"time": 62161, "pitch": 70, "duration": 239, "velocity": 64}, {"time": 62400, "pitch": 74, "duration": 240, "velocity": 64}, {"time": 62640, "pitch": 67, "duration": 239, "velocity": 64}, {"time": 62879, "pitch": 52, "duration": 963, "velocity": 64}, {"time": 62879, "pitch": 58, "duration": 963, "velocity": 64}, {"time": 62879, "pitch": 62, "duration": 963, "velocity": 64}, {"time": 62879, "pitch": 67, "duration": 963, "velocity": 64}, {"time": 63119, "pitch": 70, "duration": 239, "velocity": 64}, {"time": 63358, "pitch": 74, "duration": 242, "velocity": 64}, {"time": 63600, "pitch": 79, "duration": 242, "velocity": 64}, {"time": 63842, "pitch": 50, "duration": 958, "velocity": 64}, {"time": 63842, "pitch": 57, "duration": 958, "velocity": 64}, {"time": 63842, "pitch": 60, "duration": 958, "velocity": 64}, {"time": 63842, "pitch": 65, "duration": 958, "velocity": 64}, {"time": 63862, "pitch": 77, "duration": 938, "velocity": 64}, {"time": 64081, "pitch": 69, "duration": 240, "velocity": 64}, {"time": 64321, "pitch": 72, "duration": 479, "velocity": 64}, {"time": 64800, "pitch": 55, "duration": 478, "velocity": 64}, {"time": 64800, "pitch": 58, "duration": 478, "velocity": 64}, {"time": 64800, "pitch": 62, "duration": 478, "velocity": 64}, {"time": 64800, "pitch": 65, "duration": 478, "velocity": 64}, {"time": 65039, "pitch": 70, "duration": 239, "velocity": 64}, {"time": 65278, "pitch": 53, "duration": 484, "velocity": 64}, {"time": 65278, "pitch": 56, "duration": 484, "velocity": 64}, {"time": 65278, "pitch": 60, "duration": 484, "velocity": 64}, {"time": 65278, "pitch": 63, "duration": 484, "velocity": 64}, {"time": 65309, "pitch": 75, "duration": 453, "velocity": 64}, {"time": 65762, "pitch": 52, "duration": 958, "velocity": 64}, {"time": 65762, "pitch": 58, "duration": 958, "velocity": 64}, {"time": 65762, "pitch": 62, "duration": 958, "velocity": 64}, {"time": 65762, "pitch": 79, "duration": 719, "velocity": 64}, {"time": 66002, "pitch": 70, "duration": 718, "velocity": 64}, {"time": 66241, "pitch": 74, "duration": 479, "velocity": 64}, {"time": 66481, "pitch": 79, "duration": 239, "velocity": 64}, {"time": 66720, "pitch": 51, "duration": 958, "velocity": 64}, {"time": 66720, "pitch": 58, "duration": 958, "velocity": 64}, {"time": 66720, "pitch": 61, "duration": 958, "velocity": 64}, {"time": 66720, "pitch": 67, "duration": 718, "velocity": 64}, {"time": 66959, "pitch": 70, "duration": 240, "velocity": 64}, {"time": 67199, "pitch": 73, "duration": 239, "velocity": 64}, {"time": 67438, "pitch": 67, "duration": 240, "velocity": 64}, {"time": 67678, "pitch": 50, "duration": 962, "velocity": 64}, {"time": 67678, "pitch": 57, "duration": 962, "velocity": 64}, {"time": 67678, "pitch": 60, "duration": 962, "velocity": 64}, {"time": 67678, "pitch": 65, "duration": 242, "velocity": 64}, {"time": 67920, "pitch": 69, "duration": 241, "velocity": 64}, {"time": 68161, "pitch": 72, "duration": 240, "velocity": 64}, {"time": 68401, "pitch": 77, "duration": 239, "velocity": 64}, {"time": 68640, "pitch": 55, "duration": 958, "velocity": 64}, {"time": 68640, "pitch": 58, "duration": 958, "velocity": 64}, {"time": 68640, "pitch": 62, "duration": 958, "velocity": 64}, {"time": 68640, "pitch": 65, "duration": 958, "velocity": 64}, {"time": 68880, "pitch": 67, "duration": 239, "velocity": 64}, {"time": 69119, "pitch": 70, "duration": 240, "velocity": 64}, {"time": 69359, "pitch": 77, "duration": 239, "velocity": 64}, {"time": 69598, "pitch": 52, "duration": 963, "velocity": 64}, {"time": 69598, "pitch": 58, "duration": 963, "velocity": 64}, {"time": 69598, "pitch": 62, "duration": 963, "velocity": 64}, {"time": 69598, "pitch": 79, "duration": 723, "velocity": 64}, {"time": 69840, "pitch": 70, "duration": 721, "velocity": 64}, {"time": 70082, "pitch": 74, "duration": 479, "velocity": 64}, {"time": 70321, "pitch": 79, "duration": 240, "velocity": 64}, {"time": 70561, "pitch": 51, "duration": 957, "velocity": 64}, {"time": 70561, "pitch": 58, "duration": 957, "velocity": 64}, {"time": 70561, "pitch": 61, "duration": 957, "velocity": 64}, {"time": 70561, "pitch": 67, "duration": 718, "velocity": 64}, {"time": 70800, "pitch": 70, "duration": 239, "velocity": 64}, {"time": 71039, "pitch": 73, "duration": 240, "velocity": 64}, {"time": 71279, "pitch": 67, "duration": 239, "velocity": 64}, {"time": 71518, "pitch": 50, "duration": 963, "velocity": 64}, {"time": 71518, "pitch": 57, "duration": 963, "velocity": 64}, {"time": 71518, "pitch": 60, "duration": 963, "velocity": 64}, {"time": 71518, "pitch": 65, "duration": 242, "velocity": 64}, {"time": 71760, "pitch": 69, "duration": 242, "velocity": 64}, {"time": 72002, "pitch": 72, "duration": 240, "velocity": 64}, {"time": 72242, "pitch": 77, "duration": 239, "velocity": 64}, {"time": 72481, "pitch": 55, "duration": 958, "velocity": 64}, {"time": 72481, "pitch": 58, "duration": 958, "velocity": 64}, {"time": 72481, "pitch": 62, "duration": 958, "velocity": 64}, {"time": 72481, "pitch": 65, "duration": 958, "velocity": 64}, {"time": 72720, "pitch": 67, "duration": 240, "velocity": 64}, {"time": 72960, "pitch": 70, "duration": 239, "velocity": 64}, {"time": 73199, "pitch": 77, "duration": 240, "velocity": 64}, {"time": 73439, "pitch": 48, "duration": 1920, "velocity": 70}, {"time": 73439, "pitch": 55, "duration": 1920, "velocity": 70}, {"time": 73439, "pitch": 58, "duration": 1920, "velocity": 70}, {"time": 73439, "pitch": 63, "duration": 1920, "velocity": 70}, {"time": 74401, "pitch": 67, "duration": 958, "velocity": 81}, {"time": 74421, "pitch": 70, "duration": 938, "velocity": 87}, {"time": 74441, "pitch": 75, "duration": 918, "velocity": 90}, {"time": 75359, "pitch": 53, "duration": 963, "velocity": 70}, {"time": 75359, "pitch": 55, "duration": 963, "velocity": 70}, {"time": 75359, "pitch": 58, "duration": 963, "velocity": 70}, {"time": 75359, "pitch": 63, "duration": 963, "velocity": 70}, {"time": 76322, "pitch": 41, "duration": 957, "velocity": 70}, {"time": 76322, "pitch": 57, "duration": 957, "velocity": 70}, {"time": 76322, "pitch": 60, "duration": 957, "velocity": 70}, {"time": 76322, "pitch": 65, "duration": 957, "velocity": 70}, {"time": 77279, "pitch": 46, "duration": 1921, "velocity": 70}, {"time": 77279, "pitch": 53, "duration": 1921, "velocity": 70}, {"time": 77279, "pitch": 60, "duration": 963, "velocity": 70}, {"time": 77279, "pitch": 62, "duration": 1921, "velocity": 70}, {"time": 77279, "pitch": 72, "duration": 200, "velocity": 81}, {"time": 77279, "pitch": 81, "duration": 200, "velocity": 100}, {"time": 77519, "pitch": 74, "duration": 110, "velocity": 80}, {"time": 77519, "pitch": 82, "duration": 110, "velocity": 95}, {"time": 77638, "pitch": 72, "duration": 241, "velocity": 80}, {"time": 77638, "pitch": 81, "duration": 241, "velocity": 100}, {"time": 77879, "pitch": 69, "duration": 121, "velocity": 75}, {"time": 77879, "pitch": 77, "duration": 121, "velocity": 95}, {"time": 78000, "pitch": 65, "duration": 1200, "velocity": 75}, {"time": 78000, "pitch": 74, "duration": 840, "velocity": 95}, {"time": 78242, "pitch": 58, "duration": 958, "velocity": 70}, {"time": 78841, "pitch": 72, "duration": 119, "velocity": 100}, {"time": 78960, "pitch": 74, "duration": 120, "velocity": 89}, {"time": 79080, "pitch": 77, "duration": 120, "velocity": 95}, {"time": 79200, "pitch": 58, "duration": 1920, "velocity": 75}, {"time": 79200, "pitch": 65, "duration": 1920, "velocity": 80}, {"time": 79200, "pitch": 70, "duration": 1920, "velocity": 80}, {"time": 79200, "pitch": 74, "duration": 1920, "velocity": 90}, {"time": 81120, "pitch": 61, "duration": 1890, "velocity": 82}, {"time": 81120, "pitch": 65, "duration": 1890, "velocity": 82}, {"time": 81120, "pitch": 68, "duration": 1880, "velocity": 86}, {"time": 81120, "pitch": 72, "duration": 1890, "velocity": 82}, {"time": 82320, "pitch": 89, "duration": 680, "velocity": 83}, {"time": 82562, "pitch": 84, "duration": 448, "velocity": 86}, {"time": 82801, "pitch": 77, "duration": 229, "velocity": 71}, {"time": 83040, "pitch": 60, "duration": 1891, "velocity": 82}, {"time": 83040, "pitch": 63, "duration": 1891, "velocity": 82}, {"time": 83040, "pitch": 67, "duration": 1881, "velocity": 86}, {"time": 83040, "pitch": 70, "duration": 1891, "velocity": 82}, {"time": 83040, "pitch": 75, "duration": 1891, "velocity": 82}, {"time": 83519, "pitch": 87, "duration": 1442, "velocity": 82}, {"time": 84961, "pitch": 46, "duration": 957, "velocity": 70}, {"time": 84961, "pitch": 61, "duration": 957, "velocity": 70}, {"time": 84961, "pitch": 65, "duration": 957, "velocity": 70}, {"time": 84961, "pitch": 68, "duration": 957, "velocity": 70}, {"time": 85200, "pitch": 73, "duration": 708, "velocity": 90}, {"time": 85320, "pitch": 80, "duration": 598, "velocity": 89}, {"time": 85918, "pitch": 51, "duration": 963, "velocity": 70}, {"time": 85918, "pitch": 61, "duration": 963, "velocity": 70}, {"time": 85918, "pitch": 67, "duration": 963, "velocity": 70}, {"time": 85918, "pitch": 70, "duration": 963, "velocity": 70}, {"time": 86402, "pitch": 79, "duration": 479, "velocity": 89}, {"time": 86642, "pitch": 75, "duration": 1436, "velocity": 80}, {"time": 86881, "pitch": 56, "duration": 958, "velocity": 70}, {"time": 86881, "pitch": 63, "duration": 958, "velocity": 70}, {"time": 86881, "pitch": 68, "duration": 958, "velocity": 70}, {"time": 87599, "pitch": 72, "duration": 240, "velocity": 83}, {"time": 87839, "pitch": 56, "duration": 962, "velocity": 70}, {"time": 87839, "pitch": 60, "duration": 962, "velocity": 70}, {"time": 87839, "pitch": 63, "duration": 962, "velocity": 70}, {"time": 87839, "pitch": 68, "duration": 962, "velocity": 70}, {"time": 87839, "pitch": 84, "duration": 962, "velocity": 80}, {"time": 88801, "pitch": 54, "duration": 1891, "velocity": 82}, {"time": 88801, "pitch": 61, "duration": 1891, "velocity": 82}, {"time": 88801, "pitch": 65, "duration": 1880, "velocity": 86}, {"time": 88801, "pitch": 68, "duration": 1891, "velocity": 82}, {"time": 89999, "pitch": 85, "duration": 682, "velocity": 83}, {"time": 90238, "pitch": 82, "duration": 454, "velocity": 86}, {"time": 90480, "pitch": 77, "duration": 232, "velocity": 71}, {"time": 90722, "pitch": 59, "duration": 1890, "velocity": 82}, {"time": 90722, "pitch": 63, "duration": 1890, "velocity": 82}, {"time": 90722, "pitch": 66, "duration": 1880, "velocity": 86}, {"time": 90722, "pitch": 70, "duration": 1890, "velocity": 82}, {"time": 90722, "pitch": 75, "duration": 1890, "velocity": 82}, {"time": 91201, "pitch": 87, "duration": 1441, "velocity": 82}, {"time": 92642, "pitch": 48, "duration": 1916, "velocity": 70}, {"time": 92642, "pitch": 60, "duration": 1916, "velocity": 70}, {"time": 92642, "pitch": 63, "duration": 1916, "velocity": 70}, {"time": 92642, "pitch": 67, "duration": 1916, "velocity": 70}, {"time": 92642, "pitch": 70, "duration": 1916, "velocity": 70}, {"time": 94558, "pitch": 41, "duration": 1920, "velocity": 70}, {"time": 94558, "pitch": 60, "duration": 1920, "velocity": 70}, {"time": 94558, "pitch": 63, "duration": 1920, "velocity": 70}, {"time": 94558, "pitch": 65, "duration": 1920, "velocity": 70}, {"time": 94558, "pitch": 69, "duration": 1920, "velocity": 70}, {"time": 96478, "pitch": 50, "duration": 484, "velocity": 64}, {"time": 96478, "pitch": 65, "duration": 242, "velocity": 64}, {"time": 96478, "pitch": 69, "duration": 484, "velocity": 64}, {"time": 96478, "pitch": 72, "duration": 484, "velocity": 64}, {"time": 96478, "pitch": 77, "duration": 242, "velocity": 64}, {"time": 96720, "pitch": 65, "duration": 242, "velocity": 64}, {"time": 96962, "pitch": 55, "duration": 479, "velocity": 64}, {"time": 96962, "pitch": 62, "duration": 479, "velocity": 64}, {"time": 96962, "pitch": 65, "duration": 239, "velocity": 64}, {"time": 96962, "pitch": 67, "duration": 479, "velocity": 64}, {"time": 97201, "pitch": 70, "duration": 240, "velocity": 64}, {"time": 97321, "pitch": 74, "duration": 120, "velocity": 64}, {"time": 97441, "pitch": 48, "duration": 478, "velocity": 64}, {"time": 97441, "pitch": 60, "duration": 478, "velocity": 64}, {"time": 97441, "pitch": 63, "duration": 478, "velocity": 64}, {"time": 97441, "pitch": 67, "duration": 239, "velocity": 64}, {"time": 97441, "pitch": 74, "duration": 239, "velocity": 64}, {"time": 97680, "pitch": 67, "duration": 239, "velocity": 64}, {"time": 97919, "pitch": 48, "duration": 479, "velocity": 64}, {"time": 97919, "pitch": 58, "duration": 479, "velocity": 64}, {"time": 97919, "pitch": 63, "duration": 479, "velocity": 64}, {"time": 97919, "pitch": 67, "duration": 479, "velocity": 64}, {"time": 97919, "pitch": 72, "duration": 479, "velocity": 64}, {"time": 98398, "pitch": 48, "duration": 484, "velocity": 64}, {"time": 98398, "pitch": 58, "duration": 484, "velocity": 64}, {"time": 98398, "pitch": 66, "duration": 242, "velocity": 64}, {"time": 98398, "pitch": 70, "duration": 484, "velocity": 64}, {"time": 98398, "pitch": 75, "duration": 242, "velocity": 64}, {"time": 98640, "pitch": 66, "duration": 242, "velocity": 64}, {"time": 98882, "pitch": 53, "duration": 479, "velocity": 64}, {"time": 98882, "pitch": 57, "duration": 479, "velocity": 64}, {"time": 98882, "pitch": 60, "duration": 479, "velocity": 64}, {"time": 98882, "pitch": 65, "duration": 479, "velocity": 64}, {"time": 99121, "pitch": 69, "duration": 240, "velocity": 64}, {"time": 99241, "pitch": 72, "duration": 120, "velocity": 64}, {"time": 99361, "pitch": 58, "duration": 958, "velocity": 64}, {"time": 99361, "pitch": 62, "duration": 479, "velocity": 64}, {"time": 99361, "pitch": 65, "duration": 479, "velocity": 64}, {"time": 99361, "pitch": 72, "duration": 479, "velocity": 64}, {"time": 99600, "pitch": 53, "duration": 240, "velocity": 64}, {"time": 99840, "pitch": 46, "duration": 479, "velocity": 64}, {"time": 99840, "pitch": 62, "duration": 479, "velocity": 64}, {"time": 99840, "pitch": 65, "duration": 479, "velocity": 64}, {"time": 99840, "pitch": 70, "duration": 479, "velocity": 64}, {"time": 100319, "pitch": 50, "duration": 962, "velocity": 64}, {"time": 100319, "pitch": 57, "duration": 962, "velocity": 64}, {"time": 100319, "pitch": 60, "duration": 962, "velocity": 64}, {"time": 100319, "pitch": 65, "duration": 241, "velocity": 64}, {"time": 100560, "pitch": 69, "duration": 242, "velocity": 64}, {"time": 100802, "pitch": 72, "duration": 240, "velocity": 64}, {"time": 101042, "pitch": 69, "duration": 239, "velocity": 64}, {"time": 101281, "pitch": 55, "duration": 479, "velocity": 64}, {"time": 101281, "pitch": 62, "duration": 479, "velocity": 64}, {"time": 101281, "pitch": 65, "duration": 479, "velocity": 64}, {"time": 101281, "pitch": 70, "duration": 958, "velocity": 64}, {"time": 101760, "pitch": 79, "duration": 479, "velocity": 64}, {"time": 101999, "pitch": 74, "duration": 240, "velocity": 64}, {"time": 102239, "pitch": 53, "duration": 479, "velocity": 64}, {"time": 102239, "pitch": 55, "duration": 479, "velocity": 64}, {"time": 102239, "pitch": 58, "duration": 479, "velocity": 64}, {"time": 102239, "pitch": 62, "duration": 479, "velocity": 64}, {"time": 102239, "pitch": 70, "duration": 239, "velocity": 64}, {"time": 102478, "pitch": 67, "duration": 240, "velocity": 64}, {"time": 102718, "pitch": 53, "duration": 484, "velocity": 64}, {"time": 102718, "pitch": 55, "duration": 484, "velocity": 64}, {"time": 102718, "pitch": 58, "duration": 484, "velocity": 64}, {"time": 102718, "pitch": 60, "duration": 484, "velocity": 64}, {"time": 102718, "pitch": 69, "duration": 242, "velocity": 64}, {"time": 102960, "pitch": 70, "duration": 481, "velocity": 64}, {"time": 103202, "pitch": 53, "duration": 478, "velocity": 64}, {"time": 103202, "pitch": 55, "duration": 478, "velocity": 64}, {"time": 103202, "pitch": 58, "duration": 478, "velocity": 64}, {"time": 103202, "pitch": 62, "duration": 478, "velocity": 64}, {"time": 103441, "pitch": 69, "duration": 239, "velocity": 64}, {"time": 103680, "pitch": 51, "duration": 479, "velocity": 64}, {"time": 103680, "pitch": 54, "duration": 479, "velocity": 64}, {"time": 103680, "pitch": 60, "duration": 479, "velocity": 64}, {"time": 103680, "pitch": 63, "duration": 479, "velocity": 64}, {"time": 103680, "pitch": 70, "duration": 240, "velocity": 64}, {"time": 103920, "pitch": 72, "duration": 239, "velocity": 64}, {"time": 104159, "pitch": 50, "duration": 963, "velocity": 64}, {"time": 104159, "pitch": 56, "duration": 963, "velocity": 64}, {"time": 104159, "pitch": 60, "duration": 963, "velocity": 64}, {"time": 104159, "pitch": 65, "duration": 963, "velocity": 64}, {"time": 104159, "pitch": 68, "duration": 479, "velocity": 64}, {"time": 104638, "pitch": 77, "duration": 242, "velocity": 64}, {"time": 104880, "pitch": 68, "duration": 242, "velocity": 64}, {"time": 105122, "pitch": 55, "duration": 958, "velocity": 64}, {"time": 105122, "pitch": 59, "duration": 958, "velocity": 64}, {"time": 105122, "pitch": 62, "duration": 958, "velocity": 64}, {"time": 105122, "pitch": 65, "duration": 958, "velocity": 64}, {"time": 105122, "pitch": 67, "duration": 239, "velocity": 64}, {"time": 105361, "pitch": 71, "duration": 240, "velocity": 64}, {"time": 105601, "pitch": 77, "duration": 479, "velocity": 64}, {"time": 106080, "pitch": 48, "duration": 962, "velocity": 64}, {"time": 106080, "pitch": 54, "duration": 962, "velocity": 64}, {"time": 106080, "pitch": 58, "duration": 962, "velocity": 64}, {"time": 106080, "pitch": 63, "duration": 962, "velocity": 64}, {"time": 106080, "pitch": 66, "duration": 478, "velocity": 64}, {"time": 106558, "pitch": 75, "duration": 242, "velocity": 64}, {"time": 106800, "pitch": 66, "duration": 242, "velocity": 64}, {"time": 107042, "pitch": 53, "duration": 479, "velocity": 64}, {"time": 107042, "pitch": 57, "duration": 479, "velocity": 64}, {"time": 107042, "pitch": 60, "duration": 479, "velocity": 64}, {"time": 107042, "pitch": 65, "duration": 479, "velocity": 64}, {"time": 107521, "pitch": 52, "duration": 479, "velocity": 64}, {"time": 107521, "pitch": 64, "duration": 479, "velocity": 64}, {"time": 107521, "pitch": 68, "duration": 479, "velocity": 64}, {"time": 107521, "pitch": 71, "duration": 479, "velocity": 64}, {"time": 107521, "pitch": 74, "duration": 479, "velocity": 64}, {"time": 107980, "pitch": 67, "duration": 726, "velocity": 64}, {"time": 108000, "pitch": 51, "duration": 958, "velocity": 64}, {"time": 108000, "pitch": 70, "duration": 479, "velocity": 64}, {"time": 108020, "pitch": 74, "duration": 201, "velocity": 64}, {"time": 108040, "pitch": 79, "duration": 918, "velocity": 64}, {"time": 108239, "pitch": 74, "duration": 719, "velocity": 64}, {"time": 108479, "pitch": 70, "duration": 479, "velocity": 64}, {"time": 108718, "pitch": 67, "duration": 240, "velocity": 64}, {"time": 108958, "pitch": 64, "duration": 962, "velocity": 64}, {"time": 108958, "pitch": 67, "duration": 962, "velocity": 64}, {"time": 108958, "pitch": 70, "duration": 962, "velocity": 64}, {"time": 108958, "pitch": 79, "duration": 962, "velocity": 64}, {"time": 109441, "pitch": 48, "duration": 479, "velocity": 64}, {"time": 109920, "pitch": 53, "duration": 958, "velocity": 64}, {"time": 109920, "pitch": 67, "duration": 240, "velocity": 64}, {"time": 109920, "pitch": 70, "duration": 479, "velocity": 64}, {"time": 109920, "pitch": 75, "duration": 719, "velocity": 64}, {"time": 110160, "pitch": 67, "duration": 718, "velocity": 64}, {"time": 110399, "pitch": 70, "duration": 479, "velocity": 64}, {"time": 110639, "pitch": 75, "duration": 239, "velocity": 64}, {"time": 110858, "pitch": 69, "duration": 963, "velocity": 64}, {"time": 110878, "pitch": 53, "duration": 963, "velocity": 64}, {"time": 110878, "pitch": 72, "duration": 963, "velocity": 64}, {"time": 110898, "pitch": 77, "duration": 943, "velocity": 64}, {"time": 111362, "pitch": 41, "duration": 479, "velocity": 64}, {"time": 111362, "pitch": 57, "duration": 479, "velocity": 64}, {"time": 111362, "pitch": 60, "duration": 479, "velocity": 64}, {"time": 111362, "pitch": 65, "duration": 479, "velocity": 64}, {"time": 111841, "pitch": 50, "duration": 478, "velocity": 64}, {"time": 111841, "pitch": 65, "duration": 239, "velocity": 64}, {"time": 111841, "pitch": 69, "duration": 478, "velocity": 64}, {"time": 111841, "pitch": 72, "duration": 478, "velocity": 64}, {"time": 111841, "pitch": 77, "duration": 239, "velocity": 64}, {"time": 112080, "pitch": 65, "duration": 239, "velocity": 64}, {"time": 112319, "pitch": 55, "duration": 479, "velocity": 64}, {"time": 112319, "pitch": 62, "duration": 479, "velocity": 64}, {"time": 112319, "pitch": 65, "duration": 479, "velocity": 64}, {"time": 112319, "pitch": 67, "duration": 479, "velocity": 64}, {"time": 112319, "pitch": 70, "duration": 240, "velocity": 64}, {"time": 112559, "pitch": 74, "duration": 239, "velocity": 64}, {"time": 112798, "pitch": 48, "duration": 484, "velocity": 64}, {"time": 112798, "pitch": 60, "duration": 484, "velocity": 64}, {"time": 112798, "pitch": 63, "duration": 484, "velocity": 64}, {"time": 112798, "pitch": 67, "duration": 242, "velocity": 64}, {"time": 112798, "pitch": 74, "duration": 484, "velocity": 64}, {"time": 113040, "pitch": 67, "duration": 242, "velocity": 64}, {"time": 113282, "pitch": 48, "duration": 479, "velocity": 64}, {"time": 113282, "pitch": 58, "duration": 479, "velocity": 64}, {"time": 113282, "pitch": 63, "duration": 479, "velocity": 64}, {"time": 113282, "pitch": 67, "duration": 479, "velocity": 64}, {"time": 113282, "pitch": 72, "duration": 479, "velocity": 64}, {"time": 113761, "pitch": 48, "duration": 479, "velocity": 64}, {"time": 113761, "pitch": 58, "duration": 479, "velocity": 64}, {"time": 113761, "pitch": 63, "duration": 479, "velocity": 64}, {"time": 113761, "pitch": 66, "duration": 479, "velocity": 64}, {"time": 114240, "pitch": 53, "duration": 479, "velocity": 64}, {"time": 114240, "pitch": 57, "duration": 479, "velocity": 64}, {"time": 114240, "pitch": 60, "duration": 479, "velocity": 64}, {"time": 114240, "pitch": 65, "duration": 479, "velocity": 64}, {"time": 114240, "pitch": 77, "duration": 479, "velocity": 64}, {"time": 114719, "pitch": 58, "duration": 479, "velocity": 64}, {"time": 114719, "pitch": 62, "duration": 479, "velocity": 64}, {"time": 114719, "pitch": 65, "duration": 479, "velocity": 64}, {"time": 114719, "pitch": 72, "duration": 479, "velocity": 64}, {"time": 115198, "pitch": 46, "duration": 483, "velocity": 64}, {"time": 115198, "pitch": 53, "duration": 483, "velocity": 64}, {"time": 115198, "pitch": 58, "duration": 483, "velocity": 64}, {"time": 115198, "pitch": 62, "duration": 483, "velocity": 64}, {"time": 115218, "pitch": 74, "duration": 463, "velocity": 64}, {"time": 115681, "pitch": 51, "duration": 958, "velocity": 64}, {"time": 115681, "pitch": 58, "duration": 958, "velocity": 64}, {"time": 115681, "pitch": 62, "duration": 958, "velocity": 64}, {"time": 115681, "pitch": 67, "duration": 719, "velocity": 64}, {"time": 115681, "pitch": 79, "duration": 958, "velocity": 64}, {"time": 115921, "pitch": 70, "duration": 239, "velocity": 64}, {"time": 116160, "pitch": 74, "duration": 240, "velocity": 64}, {"time": 116400, "pitch": 67, "duration": 239, "velocity": 64}, {"time": 116639, "pitch": 51, "duration": 963, "velocity": 64}, {"time": 116639, "pitch": 57, "duration": 963, "velocity": 64}, {"time": 116639, "pitch": 61, "duration": 963, "velocity": 64}, {"time": 116639, "pitch": 66, "duration": 963, "velocity": 64}, {"time": 116878, "pitch": 69, "duration": 240, "velocity": 64}, {"time": 117118, "pitch": 73, "duration": 242, "velocity": 64}, {"time": 117360, "pitch": 78, "duration": 242, "velocity": 64}, {"time": 117602, "pitch": 50, "duration": 957, "velocity": 64}, {"time": 117602, "pitch": 57, "duration": 957, "velocity": 64}, {"time": 117602, "pitch": 60, "duration": 957, "velocity": 64}, {"time": 117602, "pitch": 65, "duration": 957, "velocity": 64}, {"time": 117622, "pitch": 77, "duration": 937, "velocity": 64}, {"time": 117841, "pitch": 69, "duration": 240, "velocity": 64}, {"time": 118081, "pitch": 72, "duration": 478, "velocity": 64}, {"time": 118559, "pitch": 55, "duration": 479, "velocity": 64}, {"time": 118559, "pitch": 58, "duration": 479, "velocity": 64}, {"time": 118559, "pitch": 62, "duration": 479, "velocity": 64}, {"time": 118559, "pitch": 65, "duration": 479, "velocity": 64}, {"time": 118799, "pitch": 70, "duration": 239, "velocity": 64}, {"time": 119038, "pitch": 53, "duration": 484, "velocity": 64}, {"time": 119038, "pitch": 56, "duration": 484, "velocity": 64}, {"time": 119038, "pitch": 60, "duration": 484, "velocity": 64}, {"time": 119038, "pitch": 63, "duration": 484, "velocity": 64}, {"time": 119068, "pitch": 75, "duration": 454, "velocity": 64}, {"time": 119522, "pitch": 52, "duration": 958, "velocity": 64}, {"time": 119522, "pitch": 58, "duration": 958, "velocity": 64}, {"time": 119522, "pitch": 62, "duration": 958, "velocity": 64}, {"time": 119522, "pitch": 79, "duration": 718, "velocity": 64}, {"time": 119761, "pitch": 70, "duration": 719, "velocity": 64}, {"time": 120001, "pitch": 74, "duration": 479, "velocity": 64}, {"time": 120240, "pitch": 79, "duration": 240, "velocity": 64}, {"time": 120480, "pitch": 51, "duration": 962, "velocity": 64}, {"time": 120480, "pitch": 58, "duration": 962, "velocity": 64}, {"time": 120480, "pitch": 61, "duration": 962, "velocity": 64}, {"time": 120480, "pitch": 67, "duration": 720, "velocity": 64}, {"time": 120719, "pitch": 70, "duration": 240, "velocity": 64}, {"time": 120959, "pitch": 73, "duration": 241, "velocity": 64}, {"time": 121200, "pitch": 67, "duration": 242, "velocity": 64}, {"time": 121442, "pitch": 50, "duration": 958, "velocity": 64}, {"time": 121442, "pitch": 57, "duration": 958, "velocity": 64}, {"time": 121442, "pitch": 60, "duration": 958, "velocity": 64}, {"time": 121442, "pitch": 65, "duration": 240, "velocity": 64}, {"time": 121682, "pitch": 69, "duration": 239, "velocity": 64}, {"time": 121921, "pitch": 72, "duration": 240, "velocity": 64}, {"time": 122161, "pitch": 77, "duration": 239, "velocity": 64}, {"time": 122400, "pitch": 55, "duration": 958, "velocity": 64}, {"time": 122400, "pitch": 58, "duration": 958, "velocity": 64}, {"time": 122400, "pitch": 62, "duration": 958, "velocity": 64}, {"time": 122400, "pitch": 65, "duration": 958, "velocity": 64}, {"time": 122639, "pitch": 67, "duration": 240, "velocity": 64}, {"time": 122879, "pitch": 70, "duration": 239, "velocity": 64}, {"time": 123118, "pitch": 77, "duration": 240, "velocity": 64}, {"time": 123358, "pitch": 51, "duration": 962, "velocity": 70}, {"time": 123358, "pitch": 62, "duration": 962, "velocity": 70}, {"time": 123358, "pitch": 67, "duration": 553, "velocity": 85}, {"time": 123358, "pitch": 70, "duration": 613, "velocity": 80}, {"time": 123358, "pitch": 74, "duration": 613, "velocity": 90}, {"time": 123961, "pitch": 67, "duration": 339, "velocity": 83}, {"time": 124081, "pitch": 70, "duration": 229, "velocity": 90}, {"time": 124201, "pitch": 74, "duration": 99, "velocity": 97}, {"time": 124320, "pitch": 50, "duration": 958, "velocity": 70}, {"time": 124320, "pitch": 60, "duration": 958, "velocity": 70}, {"time": 124320, "pitch": 65, "duration": 958, "velocity": 90}, {"time": 124320, "pitch": 69, "duration": 958, "velocity": 80}, {"time": 124320, "pitch": 72, "duration": 958, "velocity": 95}, {"time": 125278, "pitch": 48, "duration": 963, "velocity": 70}, {"time": 125278, "pitch": 58, "duration": 963, "velocity": 70}, {"time": 125278, "pitch": 63, "duration": 574, "velocity": 85}, {"time": 125278, "pitch": 67, "duration": 693, "velocity": 90}, {"time": 125278, "pitch": 70, "duration": 733, "velocity": 95}, {"time": 125882, "pitch": 63, "duration": 329, "velocity": 95}, {"time": 126001, "pitch": 67, "duration": 180, "velocity": 89}, {"time": 126121, "pitch": 70, "duration": 90, "velocity": 77}, {"time": 126241, "pitch": 46, "duration": 957, "velocity": 70}, {"time": 126241, "pitch": 57, "duration": 957, "velocity": 70}, {"time": 126241, "pitch": 60, "duration": 708, "velocity": 80}, {"time": 126241, "pitch": 65, "duration": 708, "velocity": 85}, {"time": 126241, "pitch": 69, "duration": 708, "velocity": 90}, {"time": 126959, "pitch": 65, "duration": 229, "velocity": 80}, {"time": 126959, "pitch": 69, "duration": 229, "velocity": 80}, {"time": 126959, "pitch": 72, "duration": 229, "velocity": 80}, {"time": 127198, "pitch": 45, "duration": 963, "velocity": 70}, {"time": 127198, "pitch": 57, "duration": 963, "velocity": 70}, {"time": 127198, "pitch": 62, "duration": 714, "velocity": 80}, {"time": 127198, "pitch": 64, "duration": 714, "velocity": 85}, {"time": 127198, "pitch": 69, "duration": 714, "velocity": 90}, {"time": 127922, "pitch": 62, "duration": 349, "velocity": 85}, {"time": 127922, "pitch": 64, "duration": 349, "velocity": 85}, {"time": 127922, "pitch": 69, "duration": 349, "velocity": 85}, {"time": 128161, "pitch": 45, "duration": 958, "velocity": 70}, {"time": 128161, "pitch": 57, "duration": 958, "velocity": 70}, {"time": 128281, "pitch": 62, "duration": 828, "velocity": 85}, {"time": 128281, "pitch": 64, "duration": 828, "velocity": 85}, {"time": 128281, "pitch": 69, "duration": 828, "velocity": 85}, {"time": 129119, "pitch": 50, "duration": 962, "velocity": 70}, {"time": 129119, "pitch": 57, "duration": 339, "velocity": 80}, {"time": 129119, "pitch": 62, "duration": 339, "velocity": 70}, {"time": 129119, "pitch": 66, "duration": 349, "velocity": 80}, {"time": 129119, "pitch": 69, "duration": 339, "velocity": 90}, {"time": 129478, "pitch": 57, "duration": 70, "velocity": 80}, {"time": 129478, "pitch": 62, "duration": 70, "velocity": 80}, {"time": 129478, "pitch": 66, "duration": 90, "velocity": 85}, {"time": 129478, "pitch": 69, "duration": 80, "velocity": 90}, {"time": 129840, "pitch": 57, "duration": 1189, "velocity": 80}, {"time": 129840, "pitch": 62, "duration": 241, "velocity": 80}, {"time": 129840, "pitch": 66, "duration": 1189, "velocity": 90}, {"time": 129840, "pitch": 69, "duration": 1189, "velocity": 95}, {"time": 130081, "pitch": 50, "duration": 958, "velocity": 70}, {"time": 130081, "pitch": 62, "duration": 948, "velocity": 70}, {"time": 131039, "pitch": 58, "duration": 1891, "velocity": 82}, {"time": 131039, "pitch": 62, "duration": 1891, "velocity": 82}, {"time": 131039, "pitch": 65, "duration": 1881, "velocity": 86}, {"time": 131039, "pitch": 69, "duration": 1891, "velocity": 82}, {"time": 132241, "pitch": 86, "duration": 679, "velocity": 83}, {"time": 132481, "pitch": 81, "duration": 449, "velocity": 86}, {"time": 132720, "pitch": 74, "duration": 230, "velocity": 71}, {"time": 132960, "pitch": 57, "duration": 1890, "velocity": 82}, {"time": 132960, "pitch": 60, "duration": 1890, "velocity": 82}, {"time": 132960, "pitch": 64, "duration": 1880, "velocity": 86}, {"time": 132960, "pitch": 67, "duration": 1890, "velocity": 82}, {"time": 132960, "pitch": 72, "duration": 1890, "velocity": 82}, {"time": 133438, "pitch": 84, "duration": 1442, "velocity": 82}, {"time": 134880, "pitch": 43, "duration": 958, "velocity": 70}, {"time": 134880, "pitch": 58, "duration": 958, "velocity": 70}, {"time": 134880, "pitch": 62, "duration": 958, "velocity": 70}, {"time": 134880, "pitch": 65, "duration": 958, "velocity": 70}, {"time": 135119, "pitch": 70, "duration": 709, "velocity": 90}, {"time": 135239, "pitch": 77, "duration": 599, "velocity": 89}, {"time": 135838, "pitch": 48, "duration": 962, "velocity": 70}, {"time": 135838, "pitch": 58, "duration": 962, "velocity": 70}, {"time": 135838, "pitch": 64, "duration": 962, "velocity": 70}, {"time": 135838, "pitch": 67, "duration": 962, "velocity": 70}, {"time": 136321, "pitch": 76, "duration": 479, "velocity": 89}, {"time": 136561, "pitch": 72, "duration": 1439, "velocity": 80}, {"time": 136800, "pitch": 53, "duration": 958, "velocity": 70}, {"time": 136800, "pitch": 60, "duration": 958, "velocity": 70}, {"time": 136800, "pitch": 65, "duration": 958, "velocity": 70}, {"time": 137518, "pitch": 69, "duration": 240, "velocity": 83}, {"time": 137758, "pitch": 53, "duration": 963, "velocity": 70}, {"time": 137758, "pitch": 57, "duration": 963, "velocity": 70}, {"time": 137758, "pitch": 60, "duration": 963, "velocity": 70}, {"time": 137758, "pitch": 65, "duration": 963, "velocity": 70}, {"time": 137758, "pitch": 81, "duration": 963, "velocity": 80}, {"time": 138721, "pitch": 51, "duration": 1890, "velocity": 82}, {"time": 138721, "pitch": 58, "duration": 1890, "velocity": 82}, {"time": 138721, "pitch": 62, "duration": 1880, "velocity": 86}, {"time": 138721, "pitch": 65, "duration": 1890, "velocity": 82}, {"time": 139920, "pitch": 82, "duration": 681, "velocity": 83}, {"time": 140162, "pitch": 79, "duration": 449, "velocity": 86}, {"time": 140401, "pitch": 74, "duration": 230, "velocity": 71}, {"time": 140641, "pitch": 56, "duration": 1890, "velocity": 82}, {"time": 140641, "pitch": 60, "duration": 1890, "velocity": 82}, {"time": 140641, "pitch": 63, "duration": 1880, "velocity": 86}, {"time": 140641, "pitch": 67, "duration": 1890, "velocity": 82}, {"time": 140641, "pitch": 72, "duration": 1890, "velocity": 82}, {"time": 141120, "pitch": 84, "duration": 1441, "velocity": 82}, {"time": 142561, "pitch": 45, "duration": 958, "velocity": 70}, {"time": 142561, "pitch": 57, "duration": 958, "velocity": 70}, {"time": 142561, "pitch": 60, "duration": 958, "velocity": 70}, {"time": 142561, "pitch": 63, "duration": 958, "velocity": 70}, {"time": 142561, "pitch": 67, "duration": 958, "velocity": 70}, {"time": 143519, "pitch": 48, "duration": 963, "velocity": 70}, {"time": 143519, "pitch": 58, "duration": 963, "velocity": 70}, {"time": 143519, "pitch": 60, "duration": 963, "velocity": 70}, {"time": 143519, "pitch": 63, "duration": 963, "velocity": 70}, {"time": 143519, "pitch": 66, "duration": 963, "velocity": 70}, {"time": 144482, "pitch": 41, "duration": 957, "velocity": 70}, {"time": 144482, "pitch": 58, "duration": 957, "velocity": 70}, {"time": 144482, "pitch": 60, "duration": 957, "velocity": 70}, {"time": 144482, "pitch": 63, "duration": 957, "velocity": 70}, {"time": 144482, "pitch": 65, "duration": 957, "velocity": 70}, {"time": 145439, "pitch": 41, "duration": 963, "velocity": 70}, {"time": 145439, "pitch": 57, "duration": 963, "velocity": 70}, {"time": 145439, "pitch": 60, "duration": 963, "velocity": 70}, {"time": 145439, "pitch": 63, "duration": 963, "velocity": 70}, {"time": 145439, "pitch": 65, "duration": 963, "velocity": 70}, {"time": 146402, "pitch": 50, "duration": 479, "velocity": 64}, {"time": 146402, "pitch": 65, "duration": 239, "velocity": 64}, {"time": 146402, "pitch": 69, "duration": 479, "velocity": 64}, {"time": 146402, "pitch": 72, "duration": 479, "velocity": 64}, {"time": 146402, "pitch": 77, "duration": 239, "velocity": 64}, {"time": 146641, "pitch": 65, "duration": 240, "velocity": 64}, {"time": 146881, "pitch": 55, "duration": 479, "velocity": 64}, {"time": 146881, "pitch": 62, "duration": 479, "velocity": 64}, {"time": 146881, "pitch": 65, "duration": 479, "velocity": 64}, {"time": 146881, "pitch": 67, "duration": 479, "velocity": 64}, {"time": 146881, "pitch": 70, "duration": 239, "velocity": 64}, {"time": 147120, "pitch": 74, "duration": 240, "velocity": 64}, {"time": 147360, "pitch": 48, "duration": 478, "velocity": 64}, {"time": 147360, "pitch": 60, "duration": 478, "velocity": 64}, {"time": 147360, "pitch": 63, "duration": 478, "velocity": 64}, {"time": 147360, "pitch": 67, "duration": 239, "velocity": 64}, {"time": 147360, "pitch": 74, "duration": 478, "velocity": 64}, {"time": 147599, "pitch": 67, "duration": 239, "velocity": 64}, {"time": 147838, "pitch": 48, "duration": 484, "velocity": 64}, {"time": 147838, "pitch": 58, "duration": 484, "velocity": 64}, {"time": 147838, "pitch": 63, "duration": 484, "velocity": 64}, {"time": 147838, "pitch": 67, "duration": 484, "velocity": 64}, {"time": 147838, "pitch": 72, "duration": 484, "velocity": 64}, {"time": 148322, "pitch": 48, "duration": 479, "velocity": 64}, {"time": 148322, "pitch": 58, "duration": 479, "velocity": 64}, {"time": 148322, "pitch": 63, "duration": 479, "velocity": 64}, {"time": 148322, "pitch": 66, "duration": 479, "velocity": 64}, {"time": 148801, "pitch": 53, "duration": 479, "velocity": 64}, {"time": 148801, "pitch": 57, "duration": 479, "velocity": 64}, {"time": 148801, "pitch": 60, "duration": 479, "velocity": 64}, {"time": 148801, "pitch": 65, "duration": 479, "velocity": 64}, {"time": 148801, "pitch": 77, "duration": 479, "velocity": 64}, {"time": 149280, "pitch": 58, "duration": 479, "velocity": 64}, {"time": 149280, "pitch": 62, "duration": 479, "velocity": 64}, {"time": 149280, "pitch": 65, "duration": 479, "velocity": 64}, {"time": 149280, "pitch": 72, "duration": 479, "velocity": 64}, {"time": 149759, "pitch": 46, "duration": 479, "velocity": 64}, {"time": 149759, "pitch": 53, "duration": 479, "velocity": 64}, {"time": 149759, "pitch": 58, "duration": 479, "velocity": 64}, {"time": 149759, "pitch": 62, "duration": 479, "velocity": 64}, {"time": 149779, "pitch": 74, "duration": 459, "velocity": 64}, {"time": 150238, "pitch": 51, "duration": 962, "velocity": 64}, {"time": 150238, "pitch": 58, "duration": 962, "velocity": 64}, {"time": 150238, "pitch": 62, "duration": 962, "velocity": 64}, {"time": 150238, "pitch": 67, "duration": 723, "velocity": 64}, {"time": 150238, "pitch": 79, "duration": 962, "velocity": 64}, {"time": 150480, "pitch": 70, "duration": 241, "velocity": 64}, {"time": 150721, "pitch": 74, "duration": 240, "velocity": 64}, {"time": 150961, "pitch": 67, "duration": 239, "velocity": 64}, {"time": 151200, "pitch": 52, "duration": 958, "velocity": 64}, {"time": 151200, "pitch": 58, "duration": 958, "velocity": 64}, {"time": 151200, "pitch": 62, "duration": 958, "velocity": 64}, {"time": 151200, "pitch": 67, "duration": 958, "velocity": 64}, {"time": 151440, "pitch": 70, "duration": 239, "velocity": 64}, {"time": 151679, "pitch": 74, "duration": 240, "velocity": 64}, {"time": 151919, "pitch": 79, "duration": 239, "velocity": 64}, {"time": 152158, "pitch": 50, "duration": 963, "velocity": 64}, {"time": 152158, "pitch": 57, "duration": 963, "velocity": 64}, {"time": 152158, "pitch": 60, "duration": 963, "velocity": 64}, {"time": 152158, "pitch": 65, "duration": 963, "velocity": 64}, {"time": 152178, "pitch": 77, "duration": 943, "velocity": 64}, {"time": 152400, "pitch": 69, "duration": 242, "velocity": 64}, {"time": 152642, "pitch": 72, "duration": 479, "velocity": 64}, {"time": 153121, "pitch": 55, "duration": 479, "velocity": 64}, {"time": 153121, "pitch": 58, "duration": 479, "velocity": 64}, {"time": 153121, "pitch": 62, "duration": 479, "velocity": 64}, {"time": 153121, "pitch": 65, "duration": 479, "velocity": 64}, {"time": 153360, "pitch": 70, "duration": 240, "velocity": 64}, {"time": 153600, "pitch": 53, "duration": 478, "velocity": 64}, {"time": 153600, "pitch": 56, "duration": 478, "velocity": 64}, {"time": 153600, "pitch": 60, "duration": 478, "velocity": 64}, {"time": 153600, "pitch": 63, "duration": 478, "velocity": 64}, {"time": 153629, "pitch": 75, "duration": 449, "velocity": 64}, {"time": 154078, "pitch": 52, "duration": 963, "velocity": 64}, {"time": 154078, "pitch": 58, "duration": 963, "velocity": 64}, {"time": 154078, "pitch": 62, "duration": 963, "velocity": 64}, {"time": 154078, "pitch": 79, "duration": 724, "velocity": 64}, {"time": 154320, "pitch": 70, "duration": 721, "velocity": 64}, {"time": 154562, "pitch": 74, "duration": 479, "velocity": 64}, {"time": 154802, "pitch": 79, "duration": 239, "velocity": 64}, {"time": 155041, "pitch": 51, "duration": 958, "velocity": 64}, {"time": 155041, "pitch": 58, "duration": 958, "velocity": 64}, {"time": 155041, "pitch": 61, "duration": 958, "velocity": 64}, {"time": 155041, "pitch": 67, "duration": 718, "velocity": 64}, {"time": 155280, "pitch": 70, "duration": 240, "velocity": 64}, {"time": 155520, "pitch": 73, "duration": 239, "velocity": 64}, {"time": 155759, "pitch": 67, "duration": 240, "velocity": 64}, {"time": 155999, "pitch": 50, "duration": 962, "velocity": 64}, {"time": 155999, "pitch": 57, "duration": 962, "velocity": 64}, {"time": 155999, "pitch": 60, "duration": 962, "velocity": 64}, {"time": 155999, "pitch": 65, "duration": 239, "velocity": 64}, {"time": 156238, "pitch": 69, "duration": 240, "velocity": 64}, {"time": 156478, "pitch": 72, "duration": 241, "velocity": 64}, {"time": 156719, "pitch": 77, "duration": 242, "velocity": 64}, {"time": 156961, "pitch": 55, "duration": 958, "velocity": 64}, {"time": 156961, "pitch": 58, "duration": 958, "velocity": 64}, {"time": 156961, "pitch": 62, "duration": 958, "velocity": 64}, {"time": 156961, "pitch": 65, "duration": 958, "velocity": 64}, {"time": 157201, "pitch": 67, "duration": 239, "velocity": 64}, {"time": 157440, "pitch": 70, "duration": 240, "velocity": 64}, {"time": 157680, "pitch": 77, "duration": 239, "velocity": 64}, {"time": 157919, "pitch": 52, "duration": 963, "velocity": 64}, {"time": 157919, "pitch": 58, "duration": 963, "velocity": 64}, {"time": 157919, "pitch": 62, "duration": 963, "velocity": 64}, {"time": 157919, "pitch": 79, "duration": 721, "velocity": 64}, {"time": 158158, "pitch": 70, "duration": 724, "velocity": 64}, {"time": 158398, "pitch": 74, "duration": 484, "velocity": 64}, {"time": 158640, "pitch": 79, "duration": 242, "velocity": 64}, {"time": 158882, "pitch": 51, "duration": 957, "velocity": 64}, {"time": 158882, "pitch": 58, "duration": 957, "velocity": 64}, {"time": 158882, "pitch": 61, "duration": 957, "velocity": 64}, {"time": 158882, "pitch": 67, "duration": 718, "velocity": 64}, {"time": 159121, "pitch": 70, "duration": 240, "velocity": 64}, {"time": 159361, "pitch": 73, "duration": 239, "velocity": 64}, {"time": 159600, "pitch": 67, "duration": 239, "velocity": 64}, {"time": 159839, "pitch": 50, "duration": 963, "velocity": 64}, {"time": 159839, "pitch": 57, "duration": 963, "velocity": 64}, {"time": 159839, "pitch": 60, "duration": 963, "velocity": 64}, {"time": 159839, "pitch": 65, "duration": 240, "velocity": 64}, {"time": 160079, "pitch": 69, "duration": 239, "velocity": 64}, {"time": 160318, "pitch": 72, "duration": 242, "velocity": 64}, {"time": 160560, "pitch": 77, "duration": 242, "velocity": 64}, {"time": 160802, "pitch": 55, "duration": 958, "velocity": 64}, {"time": 160802, "pitch": 58, "duration": 958, "velocity": 64}, {"time": 160802, "pitch": 62, "duration": 958, "velocity": 64}, {"time": 160802, "pitch": 65, "duration": 958, "velocity": 64}, {"time": 161041, "pitch": 67, "duration": 240, "velocity": 64}, {"time": 161281, "pitch": 70, "duration": 239, "velocity": 64}, {"time": 161520, "pitch": 77, "duration": 240, "velocity": 64}, {"time": 161760, "pitch": 48, "duration": 1920, "velocity": 70}, {"time": 161760, "pitch": 55, "duration": 1920, "velocity": 70}, {"time": 161760, "pitch": 58, "duration": 1920, "velocity": 70}, {"time": 161760, "pitch": 63, "duration": 1920, "velocity": 70}, {"time": 162722, "pitch": 67, "duration": 958, "velocity": 81}, {"time": 162742, "pitch": 70, "duration": 938, "velocity": 87}, {"time": 162762, "pitch": 75, "duration": 918, "velocity": 90}, {"time": 163680, "pitch": 53, "duration": 708, "velocity": 70}, {"time": 163680, "pitch": 55, "duration": 708, "velocity": 70}, {"time": 163680, "pitch": 58, "duration": 708, "velocity": 70}, {"time": 163680, "pitch": 63, "duration": 708, "velocity": 70}, {"time": 164398, "pitch": 41, "duration": 80, "velocity": 70}, {"time": 164398, "pitch": 57, "duration": 80, "velocity": 70}, {"time": 164398, "pitch": 60, "duration": 80, "velocity": 70}, {"time": 164398, "pitch": 65, "duration": 80, "velocity": 70}, {"time": 164518, "pitch": 41, "duration": 80, "velocity": 70}, {"time": 164518, "pitch": 57, "duration": 80, "velocity": 70}, {"time": 164518, "pitch": 60, "duration": 80, "velocity": 70}, {"time": 164518, "pitch": 65, "duration": 80, "velocity": 70}, {"time": 165600, "pitch": 46, "duration": 1921, "velocity": 60}, {"time": 165600, "pitch": 53, "duration": 1921, "velocity": 70}, {"time": 165600, "pitch": 58, "duration": 1921, "velocity": 70}, {"time": 165600, "pitch": 60, "duration": 1921, "velocity": 70}, {"time": 165600, "pitch": 72, "duration": 200, "velocity": 81}, {"time": 165600, "pitch": 81, "duration": 200, "velocity": 100}, {"time": 165840, "pitch": 74, "duration": 110, "velocity": 80}, {"time": 165840, "pitch": 82, "duration": 110, "velocity": 95}, {"time": 165960, "pitch": 72, "duration": 239, "velocity": 80}, {"time": 165960, "pitch": 81, "duration": 239, "velocity": 100}, {"time": 166199, "pitch": 69, "duration": 120, "velocity": 75}, {"time": 166199, "pitch": 77, "duration": 120, "velocity": 95}, {"time": 166319, "pitch": 65, "duration": 1202, "velocity": 75}, {"time": 166319, "pitch": 74, "duration": 842, "velocity": 95}, {"time": 167162, "pitch": 72, "duration": 119, "velocity": 100}, {"time": 167281, "pitch": 74, "duration": 120, "velocity": 89}, {"time": 167401, "pitch": 77, "duration": 120, "velocity": 95}, {"time": 167521, "pitch": 51, "duration": 957, "velocity": 85}, {"time": 167521, "pitch": 58, "duration": 957, "velocity": 75}, {"time": 167521, "pitch": 67, "duration": 957, "velocity": 80}, {"time": 167521, "pitch": 70, "duration": 957, "velocity": 80}, {"time": 167521, "pitch": 74, "duration": 957, "velocity": 90}, {"time": 168478, "pitch": 51, "duration": 963, "velocity": 70}, {"time": 168478, "pitch": 58, "duration": 963, "velocity": 70}, {"time": 168478, "pitch": 63, "duration": 963, "velocity": 70}, {"time": 168478, "pitch": 67, "duration": 963, "velocity": 70}, {"time": 168478, "pitch": 70, "duration": 963, "velocity": 70}, {"time": 169441, "pitch": 46, "duration": 1920, "velocity": 60}, {"time": 169441, "pitch": 53, "duration": 1920, "velocity": 70}, {"time": 169441, "pitch": 58, "duration": 1920, "velocity": 70}, {"time": 169441, "pitch": 60, "duration": 1920, "velocity": 70}, {"time": 169441, "pitch": 72, "duration": 200, "velocity": 81}, {"time": 169441, "pitch": 81, "duration": 200, "velocity": 100}, {"time": 169681, "pitch": 74, "duration": 109, "velocity": 80}, {"time": 169681, "pitch": 82, "duration": 109, "velocity": 95}, {"time": 169800, "pitch": 72, "duration": 240, "velocity": 80}, {"time": 169800, "pitch": 81, "duration": 240, "velocity": 100}, {"time": 170040, "pitch": 69, "duration": 119, "velocity": 75}, {"time": 170040, "pitch": 77, "duration": 119, "velocity": 95}, {"time": 170159, "pitch": 65, "duration": 1202, "velocity": 75}, {"time": 170159, "pitch": 74, "duration": 839, "velocity": 95}, {"time": 170999, "pitch": 72, "duration": 121, "velocity": 100}, {"time": 171120, "pitch": 74, "duration": 121, "velocity": 89}, {"time": 171241, "pitch": 77, "duration": 120, "velocity": 95}, {"time": 171361, "pitch": 51, "duration": 340, "velocity": 85}, {"time": 171361, "pitch": 58, "duration": 340, "velocity": 75}, {"time": 171361, "pitch": 67, "duration": 340, "velocity": 80}, {"time": 171361, "pitch": 70, "duration": 340, "velocity": 80}, {"time": 171361, "pitch": 74, "duration": 340, "velocity": 90}, {"time": 171721, "pitch": 51, "duration": 99, "velocity": 70}, {"time": 171721, "pitch": 58, "duration": 99, "velocity": 70}, {"time": 171721, "pitch": 63, "duration": 109, "velocity": 70}, {"time": 171721, "pitch": 67, "duration": 99, "velocity": 80}, {"time": 171721, "pitch": 70, "duration": 79, "velocity": 85}, {"time": 172080, "pitch": 53, "duration": 1179, "velocity": 70}, {"time": 172080, "pitch": 58, "duration": 1179, "velocity": 70}, {"time": 172080, "pitch": 63, "duration": 1179, "velocity": 70}, {"time": 172080, "pitch": 67, "duration": 1179, "velocity": 80}, {"time": 172080, "pitch": 70, "duration": 1179, "velocity": 85}, {"time": 173279, "pitch": 46, "duration": 3771, "velocity": 62}, {"time": 173279, "pitch": 53, "duration": 3771, "velocity": 69}, {"time": 173279, "pitch": 60, "duration": 3831, "velocity": 72}, {"time": 173499, "pitch": 62, "duration": 3607, "velocity": 89}, {"time": 173708, "pitch": 65, "duration": 3398, "velocity": 77}, {"time": 173939, "pitch": 72, "duration": 3165, "velocity": 57}, {"time": 174151, "pitch": 74, "duration": 2943, "velocity": 66}, {"time": 174391, "pitch": 77, "duration": 2689, "velocity": 71}, {"time": 174631, "pitch": 84, "duration": 2409, "velocity": 71}, {"time": 175289, "pitch": 86, "duration": 1761, "velocity": 58}, {"time": 480, "pitch": 93, "duration": 50, "velocity": 97}, {"time": 720, "pitch": 94, "duration": 70, "velocity": 77}, {"time": 839, "pitch": 93, "duration": 60, "velocity": 83}, {"time": 1079, "pitch": 89, "duration": 60, "velocity": 61}, {"time": 1199, "pitch": 86, "duration": 119, "velocity": 66}, {"time": 3600, "pitch": 87, "duration": 61, "velocity": 81}, {"time": 3842, "pitch": 82, "duration": 60, "velocity": 81}, {"time": 4082, "pitch": 94, "duration": 89, "velocity": 71}, {"time": 4321, "pitch": 93, "duration": 50, "velocity": 97}, {"time": 4560, "pitch": 94, "duration": 70, "velocity": 77}, {"time": 4680, "pitch": 93, "duration": 60, "velocity": 83}, {"time": 4920, "pitch": 89, "duration": 59, "velocity": 61}, {"time": 5039, "pitch": 86, "duration": 120, "velocity": 66}, {"time": 7439, "pitch": 89, "duration": 59, "velocity": 81}, {"time": 7678, "pitch": 82, "duration": 60, "velocity": 81}, {"time": 7920, "pitch": 101, "duration": 91, "velocity": 71}, {"time": 27360, "pitch": 98, "duration": 60, "velocity": 80}, {"time": 28318, "pitch": 97, "duration": 60, "velocity": 80}, {"time": 29281, "pitch": 96, "duration": 59, "velocity": 80}, {"time": 30238, "pitch": 94, "duration": 61, "velocity": 90}, {"time": 30722, "pitch": 96, "duration": 60, "velocity": 80}, {"time": 31201, "pitch": 98, "duration": 60, "velocity": 80}, {"time": 32159, "pitch": 97, "duration": 60, "velocity": 80}, {"time": 33121, "pitch": 96, "duration": 60, "velocity": 80}, {"time": 34079, "pitch": 94, "duration": 60, "velocity": 90}, {"time": 77279, "pitch": 93, "duration": 50, "velocity": 97}, {"time": 77519, "pitch": 94, "duration": 70, "velocity": 77}, {"time": 77638, "pitch": 93, "duration": 60, "velocity": 83}, {"time": 77879, "pitch": 89, "duration": 61, "velocity": 61}, {"time": 78000, "pitch": 86, "duration": 121, "velocity": 66}, {"time": 110160, "pitch": 91, "duration": 80, "velocity": 83}, {"time": 110399, "pitch": 94, "duration": 60, "velocity": 114}, {"time": 110639, "pitch": 99, "duration": 79, "velocity": 97}, {"time": 110878, "pitch": 103, "duration": 111, "velocity": 97}, {"time": 111362, "pitch": 101, "duration": 110, "velocity": 81}, {"time": 115681, "pitch": 98, "duration": 60, "velocity": 80}, {"time": 116639, "pitch": 97, "duration": 60, "velocity": 80}, {"time": 117602, "pitch": 96, "duration": 60, "velocity": 80}, {"time": 118559, "pitch": 94, "duration": 60, "velocity": 90}, {"time": 119038, "pitch": 96, "duration": 61, "velocity": 80}, {"time": 119522, "pitch": 98, "duration": 60, "velocity": 80}, {"time": 120480, "pitch": 97, "duration": 60, "velocity": 80}, {"time": 121442, "pitch": 96, "duration": 60, "velocity": 80}, {"time": 122400, "pitch": 94, "duration": 60, "velocity": 90}, {"time": 165600, "pitch": 93, "duration": 50, "velocity": 97}, {"time": 165840, "pitch": 94, "duration": 70, "velocity": 77}, {"time": 165960, "pitch": 93, "duration": 59, "velocity": 83}, {"time": 166199, "pitch": 89, "duration": 60, "velocity": 61}, {"time": 166319, "pitch": 86, "duration": 119, "velocity": 66}, {"time": 168720, "pitch": 87, "duration": 61, "velocity": 81}, {"time": 168962, "pitch": 82, "duration": 60, "velocity": 81}, {"time": 169202, "pitch": 94, "duration": 89, "velocity": 71}, {"time": 169441, "pitch": 93, "duration": 50, "velocity": 97}, {"time": 169681, "pitch": 94, "duration": 69, "velocity": 77}, {"time": 169800, "pitch": 93, "duration": 60, "velocity": 83}, {"time": 170040, "pitch": 89, "duration": 60, "velocity": 61}, {"time": 170159, "pitch": 86, "duration": 120, "velocity": 66}, {"time": 1559, "pitch": 86, "duration": 121, "velocity": 54}, {"time": 1680, "pitch": 67, "duration": 121, "velocity": 61}, {"time": 1801, "pitch": 62, "duration": 121, "velocity": 50}, {"time": 5398, "pitch": 86, "duration": 120, "velocity": 54}, {"time": 5518, "pitch": 67, "duration": 120, "velocity": 61}, {"time": 5638, "pitch": 62, "duration": 120, "velocity": 50}, {"time": 9239, "pitch": 86, "duration": 120, "velocity": 54}, {"time": 9359, "pitch": 67, "duration": 120, "velocity": 71}, {"time": 9479, "pitch": 62, "duration": 119, "velocity": 52}, {"time": 11159, "pitch": 86, "duration": 120, "velocity": 59}, {"time": 11399, "pitch": 67, "duration": 120, "velocity": 75}, {"time": 11761, "pitch": 62, "duration": 120, "velocity": 60}, {"time": 11881, "pitch": 62, "duration": 121, "velocity": 46}, {"time": 13080, "pitch": 86, "duration": 120, "velocity": 54}, {"time": 13200, "pitch": 67, "duration": 119, "velocity": 71}, {"time": 13319, "pitch": 62, "duration": 120, "velocity": 52}, {"time": 15000, "pitch": 86, "duration": 120, "velocity": 59}, {"time": 15240, "pitch": 67, "duration": 119, "velocity": 75}, {"time": 15599, "pitch": 62, "duration": 119, "velocity": 60}, {"time": 15718, "pitch": 62, "duration": 120, "velocity": 46}, {"time": 16921, "pitch": 86, "duration": 119, "velocity": 54}, {"time": 17040, "pitch": 67, "duration": 120, "velocity": 71}, {"time": 17160, "pitch": 62, "duration": 120, "velocity": 52}, {"time": 18841, "pitch": 86, "duration": 120, "velocity": 59}, {"time": 19080, "pitch": 67, "duration": 120, "velocity": 75}, {"time": 19439, "pitch": 62, "duration": 120, "velocity": 60}, {"time": 19559, "pitch": 62, "duration": 120, "velocity": 46}, {"time": 20761, "pitch": 86, "duration": 120, "velocity": 54}, {"time": 20881, "pitch": 67, "duration": 120, "velocity": 71}, {"time": 21001, "pitch": 62, "duration": 119, "velocity": 52}, {"time": 22682, "pitch": 86, "duration": 119, "velocity": 59}, {"time": 22921, "pitch": 67, "duration": 120, "velocity": 75}, {"time": 23280, "pitch": 62, "duration": 120, "velocity": 60}, {"time": 23400, "pitch": 62, "duration": 120, "velocity": 46}, {"time": 24602, "pitch": 86, "duration": 120, "velocity": 54}, {"time": 24722, "pitch": 67, "duration": 119, "velocity": 71}, {"time": 24841, "pitch": 62, "duration": 120, "velocity": 52}, {"time": 26519, "pitch": 86, "duration": 120, "velocity": 59}, {"time": 26760, "pitch": 67, "duration": 121, "velocity": 75}, {"time": 27121, "pitch": 62, "duration": 120, "velocity": 60}, {"time": 27241, "pitch": 62, "duration": 119, "velocity": 46}, {"time": 28439, "pitch": 86, "duration": 121, "velocity": 54}, {"time": 28560, "pitch": 67, "duration": 121, "velocity": 71}, {"time": 28681, "pitch": 62, "duration": 121, "velocity": 52}, {"time": 30359, "pitch": 86, "duration": 121, "velocity": 59}, {"time": 30601, "pitch": 67, "duration": 121, "velocity": 75}, {"time": 30962, "pitch": 62, "duration": 119, "velocity": 60}, {"time": 31081, "pitch": 62, "duration": 120, "velocity": 46}, {"time": 32280, "pitch": 86, "duration": 121, "velocity": 54}, {"time": 32401, "pitch": 67, "duration": 121, "velocity": 71}, {"time": 32522, "pitch": 62, "duration": 120, "velocity": 52}, {"time": 34199, "pitch": 86, "duration": 119, "velocity": 59}, {"time": 34438, "pitch": 67, "duration": 120, "velocity": 75}, {"time": 34800, "pitch": 62, "duration": 121, "velocity": 60}, {"time": 34921, "pitch": 62, "duration": 121, "velocity": 46}, {"time": 36119, "pitch": 86, "duration": 120, "velocity": 54}, {"time": 36239, "pitch": 67, "duration": 119, "velocity": 71}, {"time": 36358, "pitch": 62, "duration": 120, "velocity": 52}, {"time": 38039, "pitch": 86, "duration": 120, "velocity": 59}, {"time": 38279, "pitch": 67, "duration": 120, "velocity": 75}, {"time": 38640, "pitch": 62, "duration": 121, "velocity": 60}, {"time": 38761, "pitch": 62, "duration": 121, "velocity": 46}, {"time": 39960, "pitch": 86, "duration": 119, "velocity": 54}, {"time": 40079, "pitch": 67, "duration": 120, "velocity": 71}, {"time": 40199, "pitch": 62, "duration": 120, "velocity": 52}, {"time": 41880, "pitch": 86, "duration": 120, "velocity": 59}, {"time": 42120, "pitch": 67, "duration": 119, "velocity": 75}, {"time": 42479, "pitch": 62, "duration": 119, "velocity": 60}, {"time": 42598, "pitch": 62, "duration": 120, "velocity": 46}, {"time": 43800, "pitch": 86, "duration": 120, "velocity": 54}, {"time": 43920, "pitch": 67, "duration": 120, "velocity": 71}, {"time": 44040, "pitch": 62, "duration": 120, "velocity": 52}, {"time": 45721, "pitch": 86, "duration": 119, "velocity": 59}, {"time": 45960, "pitch": 67, "duration": 120, "velocity": 75}, {"time": 46319, "pitch": 62, "duration": 120, "velocity": 60}, {"time": 46439, "pitch": 62, "duration": 120, "velocity": 46}, {"time": 47641, "pitch": 86, "duration": 120, "velocity": 54}, {"time": 47761, "pitch": 67, "duration": 120, "velocity": 71}, {"time": 47881, "pitch": 62, "duration": 119, "velocity": 52}, {"time": 49561, "pitch": 86, "duration": 120, "velocity": 59}, {"time": 49801, "pitch": 67, "duration": 120, "velocity": 75}, {"time": 50160, "pitch": 62, "duration": 120, "velocity": 60}, {"time": 50280, "pitch": 62, "duration": 119, "velocity": 46}, {"time": 51482, "pitch": 86, "duration": 120, "velocity": 54}, {"time": 51602, "pitch": 67, "duration": 119, "velocity": 71}, {"time": 51721, "pitch": 62, "duration": 120, "velocity": 52}, {"time": 53402, "pitch": 86, "duration": 120, "velocity": 59}, {"time": 53642, "pitch": 67, "duration": 119, "velocity": 75}, {"time": 54001, "pitch": 62, "duration": 119, "velocity": 60}, {"time": 54120, "pitch": 62, "duration": 120, "velocity": 46}, {"time": 55319, "pitch": 86, "duration": 121, "velocity": 54}, {"time": 55440, "pitch": 67, "duration": 121, "velocity": 71}, {"time": 55561, "pitch": 62, "duration": 121, "velocity": 52}, {"time": 57239, "pitch": 86, "duration": 121, "velocity": 59}, {"time": 57481, "pitch": 67, "duration": 121, "velocity": 75}, {"time": 57841, "pitch": 62, "duration": 120, "velocity": 60}, {"time": 57961, "pitch": 62, "duration": 120, "velocity": 46}, {"time": 59159, "pitch": 86, "duration": 121, "velocity": 54}, {"time": 59280, "pitch": 67, "duration": 121, "velocity": 71}, {"time": 59401, "pitch": 62, "duration": 121, "velocity": 52}, {"time": 61079, "pitch": 86, "duration": 119, "velocity": 59}, {"time": 61318, "pitch": 67, "duration": 120, "velocity": 75}, {"time": 61680, "pitch": 62, "duration": 121, "velocity": 60}, {"time": 61801, "pitch": 62, "duration": 121, "velocity": 46}, {"time": 62999, "pitch": 86, "duration": 120, "velocity": 54}, {"time": 63119, "pitch": 67, "duration": 119, "velocity": 71}, {"time": 63238, "pitch": 62, "duration": 120, "velocity": 52}, {"time": 64919, "pitch": 86, "duration": 120, "velocity": 59}, {"time": 65159, "pitch": 67, "duration": 119, "velocity": 75}, {"time": 65520, "pitch": 62, "duration": 121, "velocity": 60}, {"time": 65641, "pitch": 62, "duration": 121, "velocity": 46}, {"time": 66840, "pitch": 86, "duration": 119, "velocity": 54}, {"time": 66959, "pitch": 67, "duration": 120, "velocity": 71}, {"time": 67079, "pitch": 62, "duration": 120, "velocity": 52}, {"time": 68760, "pitch": 86, "duration": 120, "velocity": 59}, {"time": 68999, "pitch": 67, "duration": 120, "velocity": 75}, {"time": 69359, "pitch": 62, "duration": 119, "velocity": 60}, {"time": 69478, "pitch": 62, "duration": 120, "velocity": 46}, {"time": 70680, "pitch": 86, "duration": 120, "velocity": 54}, {"time": 70800, "pitch": 67, "duration": 120, "velocity": 71}, {"time": 70920, "pitch": 62, "duration": 119, "velocity": 52}, {"time": 72601, "pitch": 86, "duration": 119, "velocity": 59}, {"time": 72840, "pitch": 67, "duration": 120, "velocity": 75}, {"time": 73199, "pitch": 62, "duration": 120, "velocity": 60}, {"time": 73319, "pitch": 62, "duration": 120, "velocity": 46}, {"time": 74521, "pitch": 86, "duration": 120, "velocity": 54}, {"time": 74641, "pitch": 67, "duration": 119, "velocity": 71}, {"time": 74760, "pitch": 62, "duration": 120, "velocity": 52}, {"time": 76441, "pitch": 86, "duration": 120, "velocity": 59}, {"time": 76681, "pitch": 67, "duration": 120, "velocity": 75}, {"time": 77040, "pitch": 62, "duration": 120, "velocity": 60}, {"time": 77160, "pitch": 62, "duration": 119, "velocity": 46}, {"time": 78362, "pitch": 86, "duration": 119, "velocity": 54}, {"time": 78481, "pitch": 67, "duration": 120, "velocity": 71}, {"time": 78601, "pitch": 62, "duration": 120, "velocity": 52}, {"time": 80282, "pitch": 86, "duration": 120, "velocity": 59}, {"time": 80521, "pitch": 67, "duration": 120, "velocity": 75}, {"time": 80881, "pitch": 62, "duration": 119, "velocity": 60}, {"time": 81000, "pitch": 62, "duration": 120, "velocity": 46}, {"time": 82199, "pitch": 86, "duration": 121, "velocity": 54}, {"time": 82320, "pitch": 67, "duration": 121, "velocity": 71}, {"time": 82441, "pitch": 62, "duration": 121, "velocity": 52}, {"time": 84119, "pitch": 86, "duration": 121, "velocity": 59}, {"time": 84361, "pitch": 67, "duration": 121, "velocity": 75}, {"time": 84721, "pitch": 62, "duration": 120, "velocity": 60}, {"time": 84841, "pitch": 62, "duration": 120, "velocity": 46}, {"time": 86039, "pitch": 86, "duration": 121, "velocity": 54}, {"time": 86160, "pitch": 67, "duration": 121, "velocity": 71}, {"time": 86281, "pitch": 62, "duration": 121, "velocity": 52}, {"time": 87959, "pitch": 86, "duration": 119, "velocity": 59}, {"time": 88198, "pitch": 67, "duration": 120, "velocity": 75}, {"time": 88560, "pitch": 62, "duration": 120, "velocity": 60}, {"time": 88680, "pitch": 62, "duration": 121, "velocity": 46}, {"time": 89879, "pitch": 86, "duration": 120, "velocity": 54}, {"time": 89999, "pitch": 67, "duration": 119, "velocity": 71}, {"time": 90118, "pitch": 62, "duration": 120, "velocity": 52}, {"time": 91799, "pitch": 86, "duration": 120, "velocity": 59}, {"time": 92039, "pitch": 67, "duration": 119, "velocity": 75}, {"time": 92400, "pitch": 62, "duration": 121, "velocity": 60}, {"time": 92521, "pitch": 62, "duration": 121, "velocity": 46}, {"time": 93720, "pitch": 86, "duration": 119, "velocity": 54}, {"time": 93839, "pitch": 67, "duration": 120, "velocity": 71}, {"time": 93959, "pitch": 62, "duration": 120, "velocity": 52}, {"time": 95640, "pitch": 86, "duration": 120, "velocity": 59}, {"time": 95879, "pitch": 67, "duration": 120, "velocity": 75}, {"time": 96238, "pitch": 62, "duration": 120, "velocity": 60}, {"time": 96358, "pitch": 62, "duration": 120, "velocity": 46}, {"time": 97560, "pitch": 86, "duration": 120, "velocity": 54}, {"time": 97680, "pitch": 67, "duration": 120, "velocity": 71}, {"time": 97800, "pitch": 62, "duration": 119, "velocity": 52}, {"time": 99481, "pitch": 86, "duration": 119, "velocity": 59}, {"time": 99720, "pitch": 67, "duration": 120, "velocity": 75}, {"time": 100079, "pitch": 62, "duration": 120, "velocity": 60}, {"time": 100199, "pitch": 62, "duration": 120, "velocity": 46}, {"time": 101401, "pitch": 86, "duration": 120, "velocity": 54}, {"time": 101521, "pitch": 67, "duration": 119, "velocity": 71}, {"time": 101640, "pitch": 62, "duration": 120, "velocity": 52}, {"time": 103321, "pitch": 86, "duration": 120, "velocity": 59}, {"time": 103561, "pitch": 67, "duration": 119, "velocity": 75}, {"time": 103920, "pitch": 62, "duration": 120, "velocity": 60}, {"time": 104040, "pitch": 62, "duration": 119, "velocity": 46}, {"time": 105242, "pitch": 86, "duration": 119, "velocity": 54}, {"time": 105361, "pitch": 67, "duration": 120, "velocity": 71}, {"time": 105481, "pitch": 62, "duration": 120, "velocity": 52}, {"time": 107162, "pitch": 86, "duration": 120, "velocity": 59}, {"time": 107401, "pitch": 67, "duration": 120, "velocity": 75}, {"time": 107761, "pitch": 62, "duration": 119, "velocity": 60}, {"time": 107880, "pitch": 62, "duration": 120, "velocity": 46}, {"time": 109079, "pitch": 86, "duration": 121, "velocity": 54}, {"time": 109200, "pitch": 67, "duration": 121, "velocity": 71}, {"time": 109321, "pitch": 62, "duration": 120, "velocity": 52}, {"time": 110999, "pitch": 86, "duration": 121, "velocity": 59}, {"time": 111241, "pitch": 67, "duration": 121, "velocity": 75}, {"time": 111601, "pitch": 62, "duration": 120, "velocity": 60}, {"time": 111721, "pitch": 62, "duration": 120, "velocity": 46}, {"time": 112919, "pitch": 86, "duration": 121, "velocity": 54}, {"time": 113040, "pitch": 67, "duration": 121, "velocity": 71}, {"time": 113161, "pitch": 62, "duration": 121, "velocity": 52}, {"time": 114838, "pitch": 86, "duration": 120, "velocity": 59}, {"time": 115078, "pitch": 67, "duration": 120, "velocity": 75}, {"time": 115439, "pitch": 62, "duration": 121, "velocity": 60}, {"time": 115560, "pitch": 62, "duration": 121, "velocity": 46}, {"time": 116759, "pitch": 86, "duration": 119, "velocity": 54}, {"time": 116878, "pitch": 67, "duration": 120, "velocity": 71}, {"time": 116998, "pitch": 62, "duration": 120, "velocity": 52}, {"time": 118679, "pitch": 86, "duration": 120, "velocity": 59}, {"time": 118919, "pitch": 67, "duration": 119, "velocity": 75}, {"time": 119280, "pitch": 62, "duration": 121, "velocity": 60}, {"time": 119401, "pitch": 62, "duration": 121, "velocity": 46}, {"time": 120599, "pitch": 86, "duration": 120, "velocity": 54}, {"time": 120719, "pitch": 67, "duration": 120, "velocity": 71}, {"time": 120839, "pitch": 62, "duration": 120, "velocity": 52}, {"time": 122520, "pitch": 86, "duration": 119, "velocity": 59}, {"time": 122759, "pitch": 67, "duration": 120, "velocity": 75}, {"time": 123118, "pitch": 62, "duration": 120, "velocity": 60}, {"time": 123238, "pitch": 62, "duration": 120, "velocity": 46}, {"time": 124440, "pitch": 86, "duration": 120, "velocity": 54}, {"time": 124560, "pitch": 67, "duration": 120, "velocity": 71}, {"time": 124680, "pitch": 62, "duration": 119, "velocity": 52}, {"time": 126360, "pitch": 86, "duration": 120, "velocity": 59}, {"time": 126600, "pitch": 67, "duration": 120, "velocity": 75}, {"time": 126959, "pitch": 62, "duration": 120, "velocity": 60}, {"time": 127079, "pitch": 62, "duration": 119, "velocity": 46}, {"time": 128281, "pitch": 86, "duration": 120, "velocity": 54}, {"time": 128401, "pitch": 67, "duration": 119, "velocity": 71}, {"time": 128520, "pitch": 62, "duration": 120, "velocity": 52}, {"time": 130201, "pitch": 86, "duration": 120, "velocity": 59}, {"time": 130441, "pitch": 67, "duration": 119, "velocity": 75}, {"time": 130800, "pitch": 62, "duration": 119, "velocity": 60}, {"time": 130919, "pitch": 62, "duration": 120, "velocity": 46}, {"time": 132122, "pitch": 86, "duration": 119, "velocity": 54}, {"time": 132241, "pitch": 67, "duration": 120, "velocity": 71}, {"time": 132361, "pitch": 62, "duration": 120, "velocity": 52}, {"time": 134042, "pitch": 86, "duration": 120, "velocity": 59}, {"time": 134281, "pitch": 67, "duration": 120, "velocity": 75}, {"time": 134640, "pitch": 62, "duration": 120, "velocity": 60}, {"time": 134760, "pitch": 62, "duration": 120, "velocity": 46}, {"time": 135958, "pitch": 86, "duration": 121, "velocity": 54}, {"time": 136079, "pitch": 67, "duration": 121, "velocity": 71}, {"time": 136200, "pitch": 62, "duration": 121, "velocity": 52}, {"time": 137879, "pitch": 86, "duration": 121, "velocity": 59}, {"time": 138121, "pitch": 67, "duration": 121, "velocity": 75}, {"time": 138481, "pitch": 62, "duration": 120, "velocity": 60}, {"time": 138601, "pitch": 62, "duration": 120, "velocity": 46}, {"time": 139799, "pitch": 86, "duration": 121, "velocity": 54}, {"time": 139920, "pitch": 67, "duration": 121, "velocity": 71}, {"time": 140041, "pitch": 62, "duration": 121, "velocity": 52}, {"time": 141720, "pitch": 86, "duration": 120, "velocity": 59}, {"time": 141961, "pitch": 67, "duration": 121, "velocity": 75}, {"time": 142322, "pitch": 62, "duration": 120, "velocity": 60}, {"time": 142442, "pitch": 62, "duration": 119, "velocity": 46}, {"time": 143639, "pitch": 86, "duration": 119, "velocity": 54}, {"time": 143758, "pitch": 67, "duration": 120, "velocity": 71}, {"time": 143878, "pitch": 62, "duration": 120, "velocity": 52}, {"time": 145559, "pitch": 86, "duration": 120, "velocity": 59}, {"time": 145798, "pitch": 67, "duration": 120, "velocity": 75}, {"time": 146160, "pitch": 62, "duration": 121, "velocity": 60}, {"time": 146281, "pitch": 62, "duration": 121, "velocity": 46}, {"time": 147479, "pitch": 86, "duration": 120, "velocity": 54}, {"time": 147599, "pitch": 67, "duration": 120, "velocity": 71}, {"time": 147719, "pitch": 62, "duration": 119, "velocity": 52}, {"time": 149400, "pitch": 86, "duration": 119, "velocity": 59}, {"time": 149639, "pitch": 67, "duration": 120, "velocity": 75}, {"time": 149998, "pitch": 62, "duration": 120, "velocity": 60}, {"time": 150118, "pitch": 62, "duration": 120, "velocity": 46}, {"time": 151320, "pitch": 86, "duration": 120, "velocity": 54}, {"time": 151440, "pitch": 67, "duration": 119, "velocity": 71}, {"time": 151559, "pitch": 62, "duration": 120, "velocity": 52}, {"time": 153240, "pitch": 86, "duration": 120, "velocity": 59}, {"time": 153480, "pitch": 67, "duration": 120, "velocity": 75}, {"time": 153839, "pitch": 62, "duration": 120, "velocity": 60}, {"time": 153959, "pitch": 62, "duration": 119, "velocity": 46}, {"time": 155161, "pitch": 86, "duration": 119, "velocity": 54}, {"time": 155280, "pitch": 67, "duration": 120, "velocity": 71}, {"time": 155400, "pitch": 62, "duration": 120, "velocity": 52}, {"time": 157081, "pitch": 86, "duration": 120, "velocity": 59}, {"time": 157320, "pitch": 67, "duration": 120, "velocity": 75}, {"time": 157680, "pitch": 62, "duration": 119, "velocity": 60}, {"time": 157799, "pitch": 62, "duration": 120, "velocity": 46}, {"time": 159001, "pitch": 86, "duration": 120, "velocity": 54}, {"time": 159121, "pitch": 67, "duration": 120, "velocity": 71}, {"time": 159241, "pitch": 62, "duration": 120, "velocity": 52}, {"time": 160922, "pitch": 86, "duration": 119, "velocity": 59}, {"time": 161161, "pitch": 67, "duration": 120, "velocity": 75}, {"time": 161520, "pitch": 62, "duration": 120, "velocity": 60}, {"time": 161640, "pitch": 62, "duration": 120, "velocity": 46}, {"time": 166679, "pitch": 86, "duration": 121, "velocity": 54}, {"time": 166800, "pitch": 67, "duration": 121, "velocity": 61}, {"time": 166921, "pitch": 62, "duration": 121, "velocity": 50}]}]}