{"metadata": {"schema_version": "0.1", "title": "RWC-MDB-P-2001 No. 89: Life Is What You Make It To Be / Donna Burke", "copyright": "RWC Music Database. Copyright (C) 2001 Real World Computing Partnership (contact: Masataka GOTO <m.goto@aist.go.jp>)", "source_filename": "RM-P089.SMF_SYNC.MID", "source_format": "midi"}, "resolution": 480, "tempos": [{"time": 0, "qpm": 48.78048780487805}, {"time": 480, "qpm": 133.33333333333334}, {"time": 1920, "qpm": 136.36363636363637}, {"time": 2400, "qpm": 133.33333333333334}, {"time": 4320, "qpm": 136.36363636363637}, {"time": 4800, "qpm": 133.33333333333334}, {"time": 6240, "qpm": 136.36363636363637}, {"time": 6720, "qpm": 133.33333333333334}, {"time": 8640, "qpm": 136.36363636363637}, {"time": 9120, "qpm": 133.33333333333334}, {"time": 10560, "qpm": 136.36363636363637}, {"time": 11040, "qpm": 133.33333333333334}, {"time": 12960, "qpm": 136.36363636363637}, {"time": 13440, "qpm": 133.33333333333334}, {"time": 14880, "qpm": 136.36363636363637}, {"time": 15360, "qpm": 133.33333333333334}, {"time": 16800, "qpm": 136.36363636363637}, {"time": 17280, "qpm": 133.33333333333334}, {"time": 19200, "qpm": 136.36363636363637}, {"time": 19680, "qpm": 133.33333333333334}, {"time": 21120, "qpm": 136.36363636363637}, {"time": 21600, "qpm": 133.33333333333334}, {"time": 23520, "qpm": 136.36363636363637}, {"time": 24000, "qpm": 133.33333333333334}, {"time": 25440, "qpm": 136.36363636363637}, {"time": 25920, "qpm": 133.33333333333334}, {"time": 27840, "qpm": 136.36363636363637}, {"time": 28320, "qpm": 133.33333333333334}, {"time": 29760, "qpm": 136.36363636363637}, {"time": 30240, "qpm": 133.33333333333334}, {"time": 32160, "qpm": 136.36363636363637}, {"time": 32640, "qpm": 133.33333333333334}, {"time": 34080, "qpm": 136.36363636363637}, {"time": 34560, "qpm": 133.33333333333334}, {"time": 36480, "qpm": 136.36363636363637}, {"time": 36960, "qpm": 133.33333333333334}, {"time": 38400, "qpm": 136.36363636363637}, {"time": 38880, "qpm": 133.33333333333334}, {"time": 40800, "qpm": 136.36363636363637}, {"time": 41280, "qpm": 133.33333333333334}, {"time": 42720, "qpm": 136.36363636363637}, {"time": 43200, "qpm": 133.33333333333334}, {"time": 44640, "qpm": 136.36363636363637}, {"time": 45120, "qpm": 133.33333333333334}, {"time": 47040, "qpm": 136.36363636363637}, {"time": 47520, "qpm": 133.33333333333334}, {"time": 49440, "qpm": 136.36363636363637}, {"time": 49920, "qpm": 133.33333333333334}, {"time": 51360, "qpm": 136.36363636363637}, {"time": 51840, "qpm": 133.33333333333334}, {"time": 53280, "qpm": 136.36363636363637}, {"time": 53760, "qpm": 133.33333333333334}, {"time": 55680, "qpm": 136.36363636363637}, {"time": 56160, "qpm": 133.33333333333334}, {"time": 57600, "qpm": 136.36363636363637}, {"time": 58080, "qpm": 133.33333333333334}, {"time": 60000, "qpm": 136.36363636363637}, {"time": 60480, "qpm": 133.33333333333334}, {"time": 61920, "qpm": 136.36363636363637}, {"time": 62400, "qpm": 133.33333333333334}, {"time": 64320, "qpm": 136.36363636363637}, {"time": 64800, "qpm": 133.33333333333334}, {"time": 66240, "qpm": 136.36363636363637}, {"time": 66720, "qpm": 133.33333333333334}, {"time": 68160, "qpm": 136.36363636363637}, {"time": 68640, "qpm": 133.33333333333334}, {"time": 70560, "qpm": 136.36363636363637}, {"time": 71040, "qpm": 133.33333333333334}, {"time": 72960, "qpm": 136.36363636363637}, {"time": 73440, "qpm": 133.33333333333334}, {"time": 74880, "qpm": 136.36363636363637}, {"time": 75360, "qpm": 133.33333333333334}, {"time": 76800, "qpm": 136.36363636363637}, {"time": 77280, "qpm": 133.33333333333334}, {"time": 79200, "qpm": 136.36363636363637}, {"time": 79680, "qpm": 133.33333333333334}, {"time": 81120, "qpm": 136.36363636363637}, {"time": 81600, "qpm": 133.33333333333334}, {"time": 83520, "qpm": 136.36363636363637}, {"time": 84000, "qpm": 133.33333333333334}, {"time": 85920, "qpm": 136.36363636363637}, {"time": 86400, "qpm": 133.33333333333334}, {"time": 87840, "qpm": 136.36363636363637}, {"time": 88320, "qpm": 133.33333333333334}, {"time": 90240, "qpm": 136.36363636363637}, {"time": 90720, "qpm": 133.33333333333334}, {"time": 92160, "qpm": 136.36363636363637}, {"time": 92640, "qpm": 133.33333333333334}, {"time": 94080, "qpm": 136.36363636363637}, {"time": 94560, "qpm": 133.33333333333334}, {"time": 96480, "qpm": 136.36363636363637}, {"time": 96960, "qpm": 133.33333333333334}, {"time": 98400, "qpm": 136.36363636363637}, {"time": 98880, "qpm": 133.33333333333334}, {"time": 100800, "qpm": 136.36363636363637}, {"time": 101280, "qpm": 133.33333333333334}, {"time": 102720, "qpm": 136.36363636363637}, {"time": 103200, "qpm": 133.33333333333334}, {"time": 105120, "qpm": 136.36363636363637}, {"time": 105600, "qpm": 133.33333333333334}, {"time": 107040, "qpm": 136.36363636363637}, {"time": 107520, "qpm": 133.33333333333334}, {"time": 108960, "qpm": 136.36363636363637}, {"time": 109440, "qpm": 133.33333333333334}, {"time": 111360, "qpm": 136.36363636363637}, {"time": 111840, "qpm": 133.33333333333334}, {"time": 113280, "qpm": 136.36363636363637}, {"time": 113760, "qpm": 133.33333333333334}, {"time": 115680, "qpm": 136.36363636363637}, {"time": 116160, "qpm": 133.33333333333334}, {"time": 117600, "qpm": 136.36363636363637}, {"time": 118080, "qpm": 133.33333333333334}, {"time": 120000, "qpm": 136.36363636363637}, {"time": 120480, "qpm": 133.33333333333334}, {"time": 121920, "qpm": 136.36363636363637}, {"time": 122400, "qpm": 133.33333333333334}, {"time": 124320, "qpm": 136.36363636363637}, {"time": 124800, "qpm": 133.33333333333334}, {"time": 126240, "qpm": 136.36363636363637}, {"time": 126720, "qpm": 133.33333333333334}, {"time": 128160, "qpm": 136.36363636363637}, {"time": 128640, "qpm": 133.33333333333334}, {"time": 130560, "qpm": 136.36363636363637}, {"time": 131040, "qpm": 133.33333333333334}, {"time": 132960, "qpm": 136.36363636363637}, {"time": 133440, "qpm": 133.33333333333334}, {"time": 135360, "qpm": 136.36363636363637}, {"time": 135840, "qpm": 133.33333333333334}, {"time": 136800, "qpm": 136.36363636363637}, {"time": 137280, "qpm": 133.33333333333334}, {"time": 139200, "qpm": 136.36363636363637}, {"time": 139680, "qpm": 133.33333333333334}, {"time": 141120, "qpm": 136.36363636363637}, {"time": 141600, "qpm": 133.33333333333334}, {"time": 143520, "qpm": 136.36363636363637}, {"time": 144000, "qpm": 133.33333333333334}, {"time": 145440, "qpm": 136.36363636363637}, {"time": 145920, "qpm": 133.33333333333334}, {"time": 147840, "qpm": 136.36363636363637}, {"time": 148320, "qpm": 133.33333333333334}, {"time": 150240, "qpm": 136.36363636363637}, {"time": 150720, "qpm": 133.33333333333334}, {"time": 152160, "qpm": 136.36363636363637}, {"time": 152640, "qpm": 133.33333333333334}, {"time": 154080, "qpm": 136.36363636363637}, {"time": 154560, "qpm": 133.33333333333334}, {"time": 156480, "qpm": 136.36363636363637}, {"time": 156960, "qpm": 133.33333333333334}, {"time": 158400, "qpm": 136.36363636363637}, {"time": 158880, "qpm": 133.33333333333334}, {"time": 160800, "qpm": 136.36363636363637}, {"time": 161280, "qpm": 133.33333333333334}, {"time": 162720, "qpm": 136.36363636363637}, {"time": 163200, "qpm": 133.33333333333334}, {"time": 165120, "qpm": 136.36363636363637}, {"time": 165600, "qpm": 133.33333333333334}, {"time": 167040, "qpm": 136.36363636363637}, {"time": 167520, "qpm": 133.33333333333334}, {"time": 169440, "qpm": 136.36363636363637}, {"time": 169920, "qpm": 133.33333333333334}, {"time": 171360, "qpm": 136.36363636363637}, {"time": 171840, "qpm": 133.33333333333334}, {"time": 173760, "qpm": 136.36363636363637}, {"time": 174240, "qpm": 133.33333333333334}, {"time": 175680, "qpm": 136.36363636363637}, {"time": 176160, "qpm": 133.33333333333334}, {"time": 177600, "qpm": 136.36363636363637}, {"time": 178080, "qpm": 133.33333333333334}, {"time": 180000, "qpm": 136.36363636363637}, {"time": 180480, "qpm": 133.33333333333334}, {"time": 181920, "qpm": 136.36363636363637}, {"time": 182400, "qpm": 133.33333333333334}, {"time": 184320, "qpm": 136.36363636363637}, {"time": 184800, "qpm": 133.33333333333334}, {"time": 186240, "qpm": 136.36363636363637}, {"time": 186720, "qpm": 133.33333333333334}, {"time": 188640, "qpm": 136.36363636363637}, {"time": 189120, "qpm": 133.33333333333334}, {"time": 191040, "qpm": 136.36363636363637}, {"time": 191520, "qpm": 133.33333333333334}, {"time": 192480, "qpm": 136.36363636363637}, {"time": 192960, "qpm": 133.33333333333334}, {"time": 194880, "qpm": 136.36363636363637}, {"time": 195360, "qpm": 133.33333333333334}, {"time": 197280, "qpm": 136.36363636363637}, {"time": 197760, "qpm": 133.33333333333334}, {"time": 199200, "qpm": 136.36363636363637}, {"time": 199680, "qpm": 133.33333333333334}, {"time": 201600, "qpm": 136.36363636363637}, {"time": 202080, "qpm": 133.33333333333334}, {"time": 203520, "qpm": 136.36363636363637}, {"time": 204000, "qpm": 133.33333333333334}, {"time": 205440, "qpm": 136.36363636363637}, {"time": 205920, "qpm": 133.33333333333334}, {"time": 207360, "qpm": 136.36363636363637}, {"time": 207840, "qpm": 133.33333333333334}, {"time": 210240, "qpm": 136.36363636363637}, {"time": 210720, "qpm": 133.33333333333334}, {"time": 212160, "qpm": 136.36363636363637}, {"time": 212640, "qpm": 133.33333333333334}, {"time": 214080, "qpm": 136.36363636363637}, {"time": 214560, "qpm": 133.33333333333334}, {"time": 216480, "qpm": 136.36363636363637}, {"time": 216960, "qpm": 133.33333333333334}, {"time": 218400, "qpm": 136.36363636363637}, {"time": 218880, "qpm": 133.33333333333334}, {"time": 220320, "qpm": 136.36363636363637}, {"time": 220800, "qpm": 133.33333333333334}, {"time": 222720, "qpm": 136.36363636363637}, {"time": 223200, "qpm": 133.33333333333334}, {"time": 225120, "qpm": 136.36363636363637}, {"time": 225600, "qpm": 133.33333333333334}, {"time": 227040, "qpm": 136.36363636363637}, {"time": 227520, "qpm": 133.33333333333334}, {"time": 228960, "qpm": 136.36363636363637}, {"time": 229440, "qpm": 133.33333333333334}, {"time": 231360, "qpm": 136.36363636363637}, {"time": 231840, "qpm": 133.33333333333334}, {"time": 233280, "qpm": 136.36363636363637}, {"time": 233760, "qpm": 133.33333333333334}], "key_signatures": [{"time": 0, "root": 10, "mode": "major"}], "tracks": [{"program": 0, "is_drum": false, "name": "Piano", "notes": [{"time": 2256, "pitch": 75, "duration": 114, "velocity": 120}, {"time": 2266, "pitch": 70, "duration": 89, "velocity": 122}, {"time": 2270, "pitch": 63, "duration": 80, "velocity": 116}, {"time": 2728, "pitch": 63, "duration": 95, "velocity": 112}, {"time": 2728, "pitch": 67, "duration": 85, "velocity": 110}, {"time": 2728, "pitch": 70, "duration": 75, "velocity": 108}, {"time": 2733, "pitch": 75, "duration": 90, "velocity": 112}, {"time": 3206, "pitch": 63, "duration": 302, "velocity": 102}, {"time": 3360, "pitch": 66, "duration": 336, "velocity": 112}, {"time": 3365, "pitch": 69, "duration": 331, "velocity": 112}, {"time": 3691, "pitch": 67, "duration": 56, "velocity": 112}, {"time": 3691, "pitch": 70, "duration": 56, "velocity": 112}, {"time": 4331, "pitch": 62, "duration": 1362, "velocity": 110}, {"time": 4331, "pitch": 70, "duration": 1378, "velocity": 112}, {"time": 4336, "pitch": 58, "duration": 1357, "velocity": 112}, {"time": 4336, "pitch": 65, "duration": 1357, "velocity": 108}, {"time": 5769, "pitch": 75, "duration": 85, "velocity": 112}, {"time": 5774, "pitch": 67, "duration": 80, "velocity": 110}, {"time": 5779, "pitch": 63, "duration": 115, "velocity": 110}, {"time": 5779, "pitch": 70, "duration": 80, "velocity": 110}, {"time": 6093, "pitch": 75, "duration": 303, "velocity": 102}, {"time": 6247, "pitch": 78, "duration": 323, "velocity": 112}, {"time": 6252, "pitch": 81, "duration": 323, "velocity": 112}, {"time": 6570, "pitch": 79, "duration": 204, "velocity": 112}, {"time": 6570, "pitch": 82, "duration": 209, "velocity": 112}, {"time": 6720, "pitch": 75, "duration": 303, "velocity": 102}, {"time": 7048, "pitch": 63, "duration": 129, "velocity": 112}, {"time": 7053, "pitch": 67, "duration": 100, "velocity": 106}, {"time": 7053, "pitch": 75, "duration": 104, "velocity": 112}, {"time": 7058, "pitch": 70, "duration": 95, "velocity": 110}, {"time": 7526, "pitch": 63, "duration": 129, "velocity": 112}, {"time": 7526, "pitch": 67, "duration": 104, "velocity": 106}, {"time": 7531, "pitch": 70, "duration": 99, "velocity": 110}, {"time": 7531, "pitch": 75, "duration": 99, "velocity": 112}, {"time": 7675, "pitch": 77, "duration": 127, "velocity": 116}, {"time": 7675, "pitch": 89, "duration": 127, "velocity": 116}, {"time": 7838, "pitch": 75, "duration": 173, "velocity": 103}, {"time": 7838, "pitch": 87, "duration": 173, "velocity": 103}, {"time": 8000, "pitch": 74, "duration": 143, "velocity": 100}, {"time": 8000, "pitch": 86, "duration": 143, "velocity": 100}, {"time": 8163, "pitch": 73, "duration": 149, "velocity": 119}, {"time": 8163, "pitch": 85, "duration": 149, "velocity": 119}, {"time": 8322, "pitch": 72, "duration": 140, "velocity": 100}, {"time": 8322, "pitch": 84, "duration": 140, "velocity": 100}, {"time": 8482, "pitch": 70, "duration": 139, "velocity": 109}, {"time": 8482, "pitch": 82, "duration": 139, "velocity": 109}, {"time": 8641, "pitch": 68, "duration": 139, "velocity": 116}, {"time": 8641, "pitch": 80, "duration": 139, "velocity": 116}, {"time": 8800, "pitch": 67, "duration": 144, "velocity": 105}, {"time": 8800, "pitch": 79, "duration": 144, "velocity": 105}, {"time": 8959, "pitch": 65, "duration": 140, "velocity": 106}, {"time": 8959, "pitch": 77, "duration": 140, "velocity": 106}, {"time": 9118, "pitch": 63, "duration": 155, "velocity": 108}, {"time": 9118, "pitch": 75, "duration": 155, "velocity": 108}, {"time": 9278, "pitch": 62, "duration": 139, "velocity": 108}, {"time": 9278, "pitch": 74, "duration": 139, "velocity": 108}, {"time": 9437, "pitch": 61, "duration": 174, "velocity": 100}, {"time": 9437, "pitch": 73, "duration": 174, "velocity": 100}, {"time": 9937, "pitch": 75, "duration": 117, "velocity": 120}, {"time": 9947, "pitch": 70, "duration": 97, "velocity": 122}, {"time": 9952, "pitch": 63, "duration": 82, "velocity": 116}, {"time": 10423, "pitch": 69, "duration": 159, "velocity": 120}, {"time": 10433, "pitch": 75, "duration": 467, "velocity": 118}, {"time": 10438, "pitch": 63, "duration": 358, "velocity": 116}, {"time": 10552, "pitch": 70, "duration": 353, "velocity": 118}, {"time": 10885, "pitch": 63, "duration": 304, "velocity": 102}, {"time": 11044, "pitch": 66, "duration": 329, "velocity": 112}, {"time": 11049, "pitch": 69, "duration": 324, "velocity": 112}, {"time": 11368, "pitch": 67, "duration": 55, "velocity": 112}, {"time": 11368, "pitch": 70, "duration": 55, "velocity": 112}, {"time": 11841, "pitch": 70, "duration": 89, "velocity": 114}, {"time": 11850, "pitch": 65, "duration": 70, "velocity": 120}, {"time": 11855, "pitch": 58, "duration": 70, "velocity": 116}, {"time": 12341, "pitch": 58, "duration": 361, "velocity": 116}, {"time": 12341, "pitch": 64, "duration": 137, "velocity": 118}, {"time": 12346, "pitch": 70, "duration": 480, "velocity": 116}, {"time": 12463, "pitch": 65, "duration": 388, "velocity": 114}, {"time": 12831, "pitch": 58, "duration": 538, "velocity": 106}, {"time": 12966, "pitch": 67, "duration": 238, "velocity": 120}, {"time": 12971, "pitch": 63, "duration": 194, "velocity": 120}, {"time": 13284, "pitch": 62, "duration": 85, "velocity": 118}, {"time": 13284, "pitch": 65, "duration": 114, "velocity": 120}, {"time": 13762, "pitch": 78, "duration": 39, "velocity": 120}, {"time": 13772, "pitch": 84, "duration": 99, "velocity": 116}, {"time": 13777, "pitch": 72, "duration": 99, "velocity": 110}, {"time": 13791, "pitch": 79, "duration": 50, "velocity": 118}, {"time": 13931, "pitch": 72, "duration": 193, "velocity": 118}, {"time": 13941, "pitch": 77, "duration": 229, "velocity": 120}, {"time": 13946, "pitch": 81, "duration": 245, "velocity": 122}, {"time": 14252, "pitch": 72, "duration": 96, "velocity": 102}, {"time": 14414, "pitch": 75, "duration": 40, "velocity": 122}, {"time": 14419, "pitch": 72, "duration": 209, "velocity": 102}, {"time": 14419, "pitch": 79, "duration": 299, "velocity": 118}, {"time": 14449, "pitch": 76, "duration": 254, "velocity": 120}, {"time": 14742, "pitch": 72, "duration": 100, "velocity": 106}, {"time": 14882, "pitch": 77, "duration": 219, "velocity": 118}, {"time": 14887, "pitch": 81, "duration": 224, "velocity": 116}, {"time": 14897, "pitch": 72, "duration": 209, "velocity": 114}, {"time": 15190, "pitch": 72, "duration": 120, "velocity": 116}, {"time": 15190, "pitch": 76, "duration": 125, "velocity": 120}, {"time": 15195, "pitch": 79, "duration": 149, "velocity": 118}, {"time": 15369, "pitch": 89, "duration": 55, "velocity": 114}, {"time": 15374, "pitch": 84, "duration": 40, "velocity": 121}, {"time": 15519, "pitch": 84, "duration": 44, "velocity": 118}, {"time": 15519, "pitch": 89, "duration": 59, "velocity": 114}, {"time": 15678, "pitch": 84, "duration": 50, "velocity": 121}, {"time": 15678, "pitch": 89, "duration": 50, "velocity": 114}, {"time": 15832, "pitch": 84, "duration": 66, "velocity": 123}, {"time": 15837, "pitch": 89, "duration": 66, "velocity": 121}, {"time": 15995, "pitch": 84, "duration": 51, "velocity": 127}, {"time": 15995, "pitch": 89, "duration": 66, "velocity": 114}, {"time": 16168, "pitch": 89, "duration": 61, "velocity": 112}, {"time": 16173, "pitch": 84, "duration": 46, "velocity": 118}, {"time": 16330, "pitch": 84, "duration": 55, "velocity": 114}, {"time": 16330, "pitch": 89, "duration": 65, "velocity": 102}, {"time": 16793, "pitch": 89, "duration": 50, "velocity": 98}, {"time": 16818, "pitch": 88, "duration": 45, "velocity": 111}, {"time": 16843, "pitch": 86, "duration": 44, "velocity": 114}, {"time": 16863, "pitch": 84, "duration": 49, "velocity": 112}, {"time": 16882, "pitch": 82, "duration": 50, "velocity": 114}, {"time": 16907, "pitch": 81, "duration": 45, "velocity": 111}, {"time": 16932, "pitch": 79, "duration": 50, "velocity": 111}, {"time": 16947, "pitch": 77, "duration": 65, "velocity": 112}, {"time": 16977, "pitch": 76, "duration": 65, "velocity": 107}, {"time": 16997, "pitch": 74, "duration": 65, "velocity": 105}, {"time": 17032, "pitch": 72, "duration": 54, "velocity": 104}, {"time": 17057, "pitch": 70, "duration": 54, "velocity": 101}, {"time": 17081, "pitch": 69, "duration": 55, "velocity": 109}, {"time": 17111, "pitch": 67, "duration": 40, "velocity": 105}, {"time": 17136, "pitch": 65, "duration": 20, "velocity": 91}, {"time": 17604, "pitch": 70, "duration": 89, "velocity": 106}, {"time": 17768, "pitch": 77, "duration": 95, "velocity": 116}, {"time": 17873, "pitch": 80, "duration": 134, "velocity": 106}, {"time": 17932, "pitch": 77, "duration": 120, "velocity": 98}, {"time": 18081, "pitch": 70, "duration": 55, "velocity": 72}, {"time": 18241, "pitch": 75, "duration": 178, "velocity": 118}, {"time": 18251, "pitch": 79, "duration": 153, "velocity": 116}, {"time": 18571, "pitch": 70, "duration": 72, "velocity": 110}, {"time": 18739, "pitch": 73, "duration": 144, "velocity": 118}, {"time": 18739, "pitch": 77, "duration": 254, "velocity": 106}, {"time": 18868, "pitch": 74, "duration": 179, "velocity": 102}, {"time": 19062, "pitch": 70, "duration": 95, "velocity": 116}, {"time": 19525, "pitch": 70, "duration": 90, "velocity": 114}, {"time": 19535, "pitch": 58, "duration": 75, "velocity": 116}, {"time": 19535, "pitch": 65, "duration": 70, "velocity": 120}, {"time": 20018, "pitch": 64, "duration": 144, "velocity": 118}, {"time": 20022, "pitch": 58, "duration": 359, "velocity": 116}, {"time": 20022, "pitch": 70, "duration": 486, "velocity": 116}, {"time": 20147, "pitch": 65, "duration": 386, "velocity": 114}, {"time": 20513, "pitch": 58, "duration": 540, "velocity": 106}, {"time": 20650, "pitch": 67, "duration": 239, "velocity": 120}, {"time": 20655, "pitch": 63, "duration": 194, "velocity": 120}, {"time": 20968, "pitch": 65, "duration": 115, "velocity": 120}, {"time": 20973, "pitch": 62, "duration": 80, "velocity": 118}, {"time": 21456, "pitch": 75, "duration": 114, "velocity": 120}, {"time": 21466, "pitch": 70, "duration": 90, "velocity": 122}, {"time": 21471, "pitch": 63, "duration": 80, "velocity": 116}, {"time": 21939, "pitch": 69, "duration": 159, "velocity": 120}, {"time": 21944, "pitch": 75, "duration": 472, "velocity": 118}, {"time": 21949, "pitch": 63, "duration": 363, "velocity": 116}, {"time": 22068, "pitch": 70, "duration": 353, "velocity": 118}, {"time": 22401, "pitch": 63, "duration": 307, "velocity": 102}, {"time": 22561, "pitch": 66, "duration": 335, "velocity": 112}, {"time": 22561, "pitch": 69, "duration": 335, "velocity": 112}, {"time": 22891, "pitch": 67, "duration": 56, "velocity": 112}, {"time": 22891, "pitch": 70, "duration": 56, "velocity": 112}, {"time": 23054, "pitch": 60, "duration": 847, "velocity": 112}, {"time": 23059, "pitch": 72, "duration": 827, "velocity": 112}, {"time": 23064, "pitch": 63, "duration": 812, "velocity": 112}, {"time": 23064, "pitch": 67, "duration": 802, "velocity": 110}, {"time": 24009, "pitch": 63, "duration": 884, "velocity": 112}, {"time": 24014, "pitch": 65, "duration": 896, "velocity": 112}, {"time": 24019, "pitch": 69, "duration": 881, "velocity": 112}, {"time": 24019, "pitch": 72, "duration": 871, "velocity": 110}, {"time": 25288, "pitch": 70, "duration": 90, "velocity": 106}, {"time": 25452, "pitch": 77, "duration": 95, "velocity": 116}, {"time": 25557, "pitch": 80, "duration": 134, "velocity": 106}, {"time": 25617, "pitch": 77, "duration": 119, "velocity": 98}, {"time": 25766, "pitch": 70, "duration": 55, "velocity": 72}, {"time": 25925, "pitch": 75, "duration": 174, "velocity": 118}, {"time": 25935, "pitch": 79, "duration": 149, "velocity": 116}, {"time": 26249, "pitch": 70, "duration": 69, "velocity": 110}, {"time": 26413, "pitch": 73, "duration": 144, "velocity": 118}, {"time": 26413, "pitch": 77, "duration": 253, "velocity": 106}, {"time": 26542, "pitch": 74, "duration": 179, "velocity": 102}, {"time": 26736, "pitch": 70, "duration": 95, "velocity": 116}, {"time": 27206, "pitch": 70, "duration": 92, "velocity": 114}, {"time": 27216, "pitch": 58, "duration": 76, "velocity": 116}, {"time": 27216, "pitch": 65, "duration": 71, "velocity": 120}, {"time": 27702, "pitch": 64, "duration": 144, "velocity": 118}, {"time": 27707, "pitch": 58, "duration": 353, "velocity": 116}, {"time": 27707, "pitch": 70, "duration": 478, "velocity": 116}, {"time": 27831, "pitch": 65, "duration": 378, "velocity": 114}, {"time": 28190, "pitch": 58, "duration": 537, "velocity": 106}, {"time": 28324, "pitch": 67, "duration": 239, "velocity": 120}, {"time": 28329, "pitch": 63, "duration": 194, "velocity": 120}, {"time": 28642, "pitch": 65, "duration": 115, "velocity": 120}, {"time": 28647, "pitch": 62, "duration": 80, "velocity": 118}, {"time": 28807, "pitch": 63, "duration": 929, "velocity": 112}, {"time": 28812, "pitch": 75, "duration": 909, "velocity": 112}, {"time": 28817, "pitch": 67, "duration": 894, "velocity": 112}, {"time": 28817, "pitch": 70, "duration": 884, "velocity": 110}, {"time": 29772, "pitch": 64, "duration": 919, "velocity": 112}, {"time": 29777, "pitch": 76, "duration": 899, "velocity": 112}, {"time": 29782, "pitch": 67, "duration": 884, "velocity": 112}, {"time": 29782, "pitch": 70, "duration": 874, "velocity": 110}, {"time": 31041, "pitch": 77, "duration": 90, "velocity": 114}, {"time": 31051, "pitch": 72, "duration": 70, "velocity": 120}, {"time": 31056, "pitch": 65, "duration": 70, "velocity": 116}, {"time": 31541, "pitch": 71, "duration": 147, "velocity": 118}, {"time": 31551, "pitch": 65, "duration": 351, "velocity": 116}, {"time": 31556, "pitch": 77, "duration": 471, "velocity": 116}, {"time": 31673, "pitch": 72, "duration": 379, "velocity": 114}, {"time": 32032, "pitch": 65, "duration": 537, "velocity": 106}, {"time": 32166, "pitch": 70, "duration": 199, "velocity": 120}, {"time": 32166, "pitch": 74, "duration": 239, "velocity": 120}, {"time": 32489, "pitch": 69, "duration": 75, "velocity": 118}, {"time": 32489, "pitch": 72, "duration": 110, "velocity": 120}, {"time": 32649, "pitch": 60, "duration": 1844, "velocity": 112}, {"time": 32654, "pitch": 72, "duration": 1824, "velocity": 112}, {"time": 32659, "pitch": 63, "duration": 1809, "velocity": 112}, {"time": 32659, "pitch": 67, "duration": 1799, "velocity": 110}, {"time": 34560, "pitch": 53, "duration": 895, "velocity": 112}, {"time": 34560, "pitch": 60, "duration": 905, "velocity": 110}, {"time": 34560, "pitch": 63, "duration": 895, "velocity": 108}, {"time": 34560, "pitch": 69, "duration": 910, "velocity": 112}, {"time": 35515, "pitch": 58, "duration": 906, "velocity": 112}, {"time": 35515, "pitch": 62, "duration": 916, "velocity": 110}, {"time": 35515, "pitch": 65, "duration": 906, "velocity": 108}, {"time": 35515, "pitch": 70, "duration": 921, "velocity": 112}, {"time": 36491, "pitch": 63, "duration": 1968, "velocity": 112}, {"time": 36496, "pitch": 75, "duration": 1948, "velocity": 112}, {"time": 36501, "pitch": 67, "duration": 1933, "velocity": 112}, {"time": 36501, "pitch": 70, "duration": 1923, "velocity": 110}, {"time": 38412, "pitch": 60, "duration": 847, "velocity": 112}, {"time": 38417, "pitch": 72, "duration": 827, "velocity": 112}, {"time": 38422, "pitch": 63, "duration": 37, "velocity": 112}, {"time": 38422, "pitch": 67, "duration": 12, "velocity": 110}, {"time": 39367, "pitch": 63, "duration": 884, "velocity": 112}, {"time": 39372, "pitch": 65, "duration": 896, "velocity": 112}, {"time": 39377, "pitch": 69, "duration": 881, "velocity": 112}, {"time": 39377, "pitch": 72, "duration": 871, "velocity": 110}, {"time": 40323, "pitch": 65, "duration": 314, "velocity": 114}, {"time": 40328, "pitch": 70, "duration": 309, "velocity": 123}, {"time": 40333, "pitch": 74, "duration": 319, "velocity": 112}, {"time": 42558, "pitch": 69, "duration": 89, "velocity": 109}, {"time": 42563, "pitch": 72, "duration": 84, "velocity": 111}, {"time": 42568, "pitch": 65, "duration": 64, "velocity": 105}, {"time": 42742, "pitch": 65, "duration": 139, "velocity": 114}, {"time": 42742, "pitch": 69, "duration": 144, "velocity": 112}, {"time": 42742, "pitch": 72, "duration": 149, "velocity": 118}, {"time": 43035, "pitch": 65, "duration": 244, "velocity": 121}, {"time": 43035, "pitch": 70, "duration": 269, "velocity": 127}, {"time": 43035, "pitch": 74, "duration": 309, "velocity": 121}, {"time": 44496, "pitch": 75, "duration": 117, "velocity": 120}, {"time": 44506, "pitch": 70, "duration": 91, "velocity": 122}, {"time": 44511, "pitch": 63, "duration": 81, "velocity": 116}, {"time": 44971, "pitch": 63, "duration": 95, "velocity": 112}, {"time": 44971, "pitch": 67, "duration": 85, "velocity": 110}, {"time": 44971, "pitch": 70, "duration": 75, "velocity": 108}, {"time": 44976, "pitch": 75, "duration": 90, "velocity": 112}, {"time": 45449, "pitch": 63, "duration": 298, "velocity": 102}, {"time": 45603, "pitch": 66, "duration": 329, "velocity": 112}, {"time": 45608, "pitch": 69, "duration": 324, "velocity": 112}, {"time": 45927, "pitch": 67, "duration": 54, "velocity": 112}, {"time": 45927, "pitch": 70, "duration": 54, "velocity": 112}, {"time": 46574, "pitch": 62, "duration": 1353, "velocity": 110}, {"time": 46574, "pitch": 70, "duration": 1368, "velocity": 112}, {"time": 46579, "pitch": 58, "duration": 1348, "velocity": 112}, {"time": 46579, "pitch": 65, "duration": 1348, "velocity": 108}, {"time": 48002, "pitch": 75, "duration": 86, "velocity": 112}, {"time": 48007, "pitch": 67, "duration": 81, "velocity": 110}, {"time": 48012, "pitch": 63, "duration": 117, "velocity": 110}, {"time": 48012, "pitch": 70, "duration": 82, "velocity": 110}, {"time": 48333, "pitch": 75, "duration": 306, "velocity": 102}, {"time": 48490, "pitch": 78, "duration": 324, "velocity": 112}, {"time": 48495, "pitch": 81, "duration": 324, "velocity": 112}, {"time": 48814, "pitch": 79, "duration": 204, "velocity": 112}, {"time": 48814, "pitch": 82, "duration": 209, "velocity": 112}, {"time": 48963, "pitch": 75, "duration": 303, "velocity": 102}, {"time": 49291, "pitch": 63, "duration": 130, "velocity": 112}, {"time": 49296, "pitch": 67, "duration": 100, "velocity": 106}, {"time": 49296, "pitch": 75, "duration": 105, "velocity": 112}, {"time": 49301, "pitch": 70, "duration": 95, "velocity": 110}, {"time": 49769, "pitch": 63, "duration": 129, "velocity": 112}, {"time": 49769, "pitch": 67, "duration": 104, "velocity": 106}, {"time": 49774, "pitch": 70, "duration": 99, "velocity": 110}, {"time": 49774, "pitch": 75, "duration": 99, "velocity": 112}, {"time": 50742, "pitch": 58, "duration": 356, "velocity": 116}, {"time": 50742, "pitch": 64, "duration": 147, "velocity": 118}, {"time": 50747, "pitch": 70, "duration": 480, "velocity": 116}, {"time": 50874, "pitch": 65, "duration": 378, "velocity": 114}, {"time": 51232, "pitch": 58, "duration": 538, "velocity": 106}, {"time": 51367, "pitch": 63, "duration": 199, "velocity": 120}, {"time": 51367, "pitch": 67, "duration": 238, "velocity": 120}, {"time": 51680, "pitch": 65, "duration": 119, "velocity": 120}, {"time": 51685, "pitch": 62, "duration": 80, "velocity": 118}, {"time": 52173, "pitch": 75, "duration": 114, "velocity": 120}, {"time": 52182, "pitch": 70, "duration": 95, "velocity": 122}, {"time": 52187, "pitch": 63, "duration": 80, "velocity": 116}, {"time": 52663, "pitch": 69, "duration": 162, "velocity": 120}, {"time": 52673, "pitch": 75, "duration": 470, "velocity": 118}, {"time": 52678, "pitch": 63, "duration": 361, "velocity": 116}, {"time": 52795, "pitch": 70, "duration": 353, "velocity": 118}, {"time": 53128, "pitch": 63, "duration": 304, "velocity": 102}, {"time": 53288, "pitch": 66, "duration": 328, "velocity": 112}, {"time": 53293, "pitch": 69, "duration": 323, "velocity": 112}, {"time": 53611, "pitch": 67, "duration": 55, "velocity": 112}, {"time": 53611, "pitch": 70, "duration": 55, "velocity": 112}, {"time": 54084, "pitch": 70, "duration": 89, "velocity": 114}, {"time": 54094, "pitch": 65, "duration": 69, "velocity": 120}, {"time": 54099, "pitch": 58, "duration": 69, "velocity": 116}, {"time": 54576, "pitch": 58, "duration": 363, "velocity": 116}, {"time": 54576, "pitch": 64, "duration": 135, "velocity": 118}, {"time": 54581, "pitch": 70, "duration": 486, "velocity": 116}, {"time": 54696, "pitch": 65, "duration": 396, "velocity": 114}, {"time": 55072, "pitch": 58, "duration": 540, "velocity": 106}, {"time": 55209, "pitch": 67, "duration": 239, "velocity": 120}, {"time": 55214, "pitch": 63, "duration": 194, "velocity": 120}, {"time": 55527, "pitch": 62, "duration": 85, "velocity": 118}, {"time": 55527, "pitch": 65, "duration": 115, "velocity": 120}, {"time": 56005, "pitch": 78, "duration": 40, "velocity": 120}, {"time": 56015, "pitch": 84, "duration": 99, "velocity": 116}, {"time": 56020, "pitch": 72, "duration": 99, "velocity": 110}, {"time": 56035, "pitch": 79, "duration": 49, "velocity": 118}, {"time": 56174, "pitch": 72, "duration": 189, "velocity": 118}, {"time": 56184, "pitch": 77, "duration": 224, "velocity": 120}, {"time": 56189, "pitch": 81, "duration": 239, "velocity": 122}, {"time": 56487, "pitch": 72, "duration": 95, "velocity": 102}, {"time": 56647, "pitch": 75, "duration": 40, "velocity": 122}, {"time": 56652, "pitch": 72, "duration": 214, "velocity": 102}, {"time": 56652, "pitch": 79, "duration": 305, "velocity": 118}, {"time": 56682, "pitch": 76, "duration": 260, "velocity": 120}, {"time": 56983, "pitch": 72, "duration": 101, "velocity": 106}, {"time": 57125, "pitch": 77, "duration": 219, "velocity": 118}, {"time": 57130, "pitch": 81, "duration": 224, "velocity": 116}, {"time": 57140, "pitch": 72, "duration": 209, "velocity": 114}, {"time": 57433, "pitch": 72, "duration": 120, "velocity": 116}, {"time": 57433, "pitch": 76, "duration": 125, "velocity": 120}, {"time": 57438, "pitch": 79, "duration": 150, "velocity": 118}, {"time": 57612, "pitch": 89, "duration": 55, "velocity": 114}, {"time": 57617, "pitch": 84, "duration": 40, "velocity": 121}, {"time": 57762, "pitch": 84, "duration": 45, "velocity": 118}, {"time": 57762, "pitch": 89, "duration": 59, "velocity": 114}, {"time": 57921, "pitch": 84, "duration": 50, "velocity": 121}, {"time": 57921, "pitch": 89, "duration": 50, "velocity": 114}, {"time": 58075, "pitch": 84, "duration": 65, "velocity": 123}, {"time": 58080, "pitch": 89, "duration": 65, "velocity": 121}, {"time": 58234, "pitch": 84, "duration": 50, "velocity": 127}, {"time": 58234, "pitch": 89, "duration": 65, "velocity": 114}, {"time": 58404, "pitch": 89, "duration": 59, "velocity": 112}, {"time": 58408, "pitch": 84, "duration": 45, "velocity": 118}, {"time": 58563, "pitch": 84, "duration": 54, "velocity": 114}, {"time": 58563, "pitch": 89, "duration": 64, "velocity": 102}, {"time": 58727, "pitch": 89, "duration": 65, "velocity": 102}, {"time": 58732, "pitch": 84, "duration": 50, "velocity": 118}, {"time": 58871, "pitch": 89, "duration": 85, "velocity": 104}, {"time": 58876, "pitch": 84, "duration": 60, "velocity": 112}, {"time": 59040, "pitch": 84, "duration": 56, "velocity": 112}, {"time": 59045, "pitch": 89, "duration": 67, "velocity": 104}, {"time": 59086, "pitch": 88, "duration": 56, "velocity": 118}, {"time": 59106, "pitch": 86, "duration": 87, "velocity": 121}, {"time": 59142, "pitch": 84, "duration": 87, "velocity": 111}, {"time": 59183, "pitch": 82, "duration": 81, "velocity": 94}, {"time": 59229, "pitch": 81, "duration": 66, "velocity": 109}, {"time": 59259, "pitch": 79, "duration": 61, "velocity": 111}, {"time": 59290, "pitch": 77, "duration": 51, "velocity": 111}, {"time": 59320, "pitch": 76, "duration": 41, "velocity": 105}, {"time": 59346, "pitch": 74, "duration": 35, "velocity": 100}, {"time": 59376, "pitch": 72, "duration": 10, "velocity": 97}, {"time": 59397, "pitch": 70, "duration": 10, "velocity": 78}, {"time": 59847, "pitch": 70, "duration": 90, "velocity": 106}, {"time": 60011, "pitch": 77, "duration": 95, "velocity": 116}, {"time": 60116, "pitch": 80, "duration": 134, "velocity": 106}, {"time": 60175, "pitch": 77, "duration": 120, "velocity": 98}, {"time": 60325, "pitch": 70, "duration": 54, "velocity": 72}, {"time": 60484, "pitch": 75, "duration": 174, "velocity": 118}, {"time": 60494, "pitch": 79, "duration": 149, "velocity": 116}, {"time": 60807, "pitch": 70, "duration": 70, "velocity": 110}, {"time": 60972, "pitch": 73, "duration": 147, "velocity": 118}, {"time": 60972, "pitch": 77, "duration": 259, "velocity": 106}, {"time": 61104, "pitch": 74, "duration": 183, "velocity": 102}, {"time": 61302, "pitch": 70, "duration": 97, "velocity": 116}, {"time": 61768, "pitch": 70, "duration": 90, "velocity": 114}, {"time": 61778, "pitch": 58, "duration": 75, "velocity": 116}, {"time": 61778, "pitch": 65, "duration": 70, "velocity": 120}, {"time": 62261, "pitch": 64, "duration": 144, "velocity": 118}, {"time": 62266, "pitch": 58, "duration": 353, "velocity": 116}, {"time": 62266, "pitch": 70, "duration": 477, "velocity": 116}, {"time": 62390, "pitch": 65, "duration": 378, "velocity": 114}, {"time": 62748, "pitch": 58, "duration": 538, "velocity": 106}, {"time": 62883, "pitch": 67, "duration": 238, "velocity": 120}, {"time": 62888, "pitch": 63, "duration": 194, "velocity": 120}, {"time": 63201, "pitch": 65, "duration": 114, "velocity": 120}, {"time": 63206, "pitch": 62, "duration": 80, "velocity": 118}, {"time": 63696, "pitch": 75, "duration": 117, "velocity": 120}, {"time": 63706, "pitch": 70, "duration": 92, "velocity": 122}, {"time": 63711, "pitch": 63, "duration": 82, "velocity": 116}, {"time": 64182, "pitch": 69, "duration": 159, "velocity": 120}, {"time": 64187, "pitch": 75, "duration": 472, "velocity": 118}, {"time": 64192, "pitch": 63, "duration": 363, "velocity": 116}, {"time": 64311, "pitch": 70, "duration": 353, "velocity": 118}, {"time": 64644, "pitch": 63, "duration": 304, "velocity": 102}, {"time": 64804, "pitch": 66, "duration": 328, "velocity": 112}, {"time": 64804, "pitch": 69, "duration": 328, "velocity": 112}, {"time": 65127, "pitch": 67, "duration": 55, "velocity": 112}, {"time": 65127, "pitch": 70, "duration": 55, "velocity": 112}, {"time": 65286, "pitch": 60, "duration": 858, "velocity": 112}, {"time": 65291, "pitch": 72, "duration": 838, "velocity": 112}, {"time": 65297, "pitch": 63, "duration": 822, "velocity": 112}, {"time": 65297, "pitch": 67, "duration": 812, "velocity": 110}, {"time": 66252, "pitch": 63, "duration": 875, "velocity": 112}, {"time": 66257, "pitch": 65, "duration": 887, "velocity": 112}, {"time": 66262, "pitch": 69, "duration": 872, "velocity": 112}, {"time": 66262, "pitch": 72, "duration": 862, "velocity": 110}, {"time": 67521, "pitch": 70, "duration": 89, "velocity": 106}, {"time": 67685, "pitch": 77, "duration": 97, "velocity": 116}, {"time": 67792, "pitch": 80, "duration": 137, "velocity": 106}, {"time": 67853, "pitch": 77, "duration": 122, "velocity": 98}, {"time": 68006, "pitch": 70, "duration": 56, "velocity": 72}, {"time": 68168, "pitch": 75, "duration": 174, "velocity": 118}, {"time": 68178, "pitch": 79, "duration": 149, "velocity": 116}, {"time": 68492, "pitch": 70, "duration": 69, "velocity": 110}, {"time": 68656, "pitch": 73, "duration": 144, "velocity": 118}, {"time": 68656, "pitch": 77, "duration": 254, "velocity": 106}, {"time": 68785, "pitch": 74, "duration": 179, "velocity": 102}, {"time": 68979, "pitch": 70, "duration": 95, "velocity": 116}, {"time": 69442, "pitch": 70, "duration": 89, "velocity": 114}, {"time": 69452, "pitch": 58, "duration": 74, "velocity": 116}, {"time": 69452, "pitch": 65, "duration": 70, "velocity": 120}, {"time": 69942, "pitch": 64, "duration": 147, "velocity": 118}, {"time": 69947, "pitch": 58, "duration": 356, "velocity": 116}, {"time": 69947, "pitch": 70, "duration": 481, "velocity": 116}, {"time": 70074, "pitch": 65, "duration": 379, "velocity": 114}, {"time": 70433, "pitch": 58, "duration": 537, "velocity": 106}, {"time": 70567, "pitch": 67, "duration": 239, "velocity": 120}, {"time": 70572, "pitch": 63, "duration": 194, "velocity": 120}, {"time": 70885, "pitch": 65, "duration": 115, "velocity": 120}, {"time": 70890, "pitch": 62, "duration": 80, "velocity": 118}, {"time": 71050, "pitch": 63, "duration": 918, "velocity": 112}, {"time": 71055, "pitch": 75, "duration": 898, "velocity": 112}, {"time": 71060, "pitch": 67, "duration": 883, "velocity": 112}, {"time": 71060, "pitch": 70, "duration": 873, "velocity": 110}, {"time": 72005, "pitch": 64, "duration": 929, "velocity": 112}, {"time": 72010, "pitch": 76, "duration": 909, "velocity": 112}, {"time": 72015, "pitch": 67, "duration": 894, "velocity": 112}, {"time": 72015, "pitch": 70, "duration": 884, "velocity": 110}, {"time": 73284, "pitch": 77, "duration": 90, "velocity": 114}, {"time": 73294, "pitch": 72, "duration": 70, "velocity": 120}, {"time": 73299, "pitch": 65, "duration": 70, "velocity": 116}, {"time": 73777, "pitch": 71, "duration": 144, "velocity": 118}, {"time": 73787, "pitch": 65, "duration": 353, "velocity": 116}, {"time": 73792, "pitch": 77, "duration": 475, "velocity": 116}, {"time": 73906, "pitch": 72, "duration": 386, "velocity": 114}, {"time": 74272, "pitch": 65, "duration": 540, "velocity": 106}, {"time": 74409, "pitch": 70, "duration": 199, "velocity": 120}, {"time": 74409, "pitch": 74, "duration": 239, "velocity": 120}, {"time": 74733, "pitch": 69, "duration": 74, "velocity": 118}, {"time": 74733, "pitch": 72, "duration": 109, "velocity": 120}, {"time": 74892, "pitch": 60, "duration": 1843, "velocity": 112}, {"time": 74897, "pitch": 72, "duration": 1823, "velocity": 112}, {"time": 74902, "pitch": 63, "duration": 1807, "velocity": 112}, {"time": 74902, "pitch": 67, "duration": 1797, "velocity": 110}, {"time": 76803, "pitch": 53, "duration": 896, "velocity": 112}, {"time": 76803, "pitch": 60, "duration": 905, "velocity": 110}, {"time": 76803, "pitch": 63, "duration": 896, "velocity": 108}, {"time": 76803, "pitch": 69, "duration": 910, "velocity": 112}, {"time": 77758, "pitch": 58, "duration": 905, "velocity": 112}, {"time": 77758, "pitch": 62, "duration": 915, "velocity": 110}, {"time": 77758, "pitch": 65, "duration": 905, "velocity": 108}, {"time": 77758, "pitch": 70, "duration": 920, "velocity": 112}, {"time": 78734, "pitch": 63, "duration": 1968, "velocity": 112}, {"time": 78739, "pitch": 75, "duration": 1948, "velocity": 112}, {"time": 78744, "pitch": 67, "duration": 1933, "velocity": 112}, {"time": 78744, "pitch": 70, "duration": 1923, "velocity": 110}, {"time": 80655, "pitch": 60, "duration": 847, "velocity": 112}, {"time": 80660, "pitch": 72, "duration": 827, "velocity": 112}, {"time": 80665, "pitch": 63, "duration": 37, "velocity": 112}, {"time": 80665, "pitch": 67, "duration": 12, "velocity": 110}, {"time": 81610, "pitch": 63, "duration": 875, "velocity": 112}, {"time": 81615, "pitch": 65, "duration": 887, "velocity": 112}, {"time": 81620, "pitch": 69, "duration": 872, "velocity": 112}, {"time": 81620, "pitch": 72, "duration": 862, "velocity": 110}, {"time": 82556, "pitch": 65, "duration": 320, "velocity": 114}, {"time": 82561, "pitch": 70, "duration": 315, "velocity": 123}, {"time": 82566, "pitch": 74, "duration": 325, "velocity": 112}, {"time": 84797, "pitch": 69, "duration": 92, "velocity": 109}, {"time": 84802, "pitch": 72, "duration": 87, "velocity": 111}, {"time": 84807, "pitch": 65, "duration": 67, "velocity": 105}, {"time": 84985, "pitch": 65, "duration": 139, "velocity": 114}, {"time": 84985, "pitch": 69, "duration": 144, "velocity": 112}, {"time": 84985, "pitch": 72, "duration": 149, "velocity": 118}, {"time": 85278, "pitch": 65, "duration": 244, "velocity": 121}, {"time": 85278, "pitch": 70, "duration": 269, "velocity": 127}, {"time": 85278, "pitch": 74, "duration": 309, "velocity": 121}, {"time": 86731, "pitch": 77, "duration": 115, "velocity": 120}, {"time": 86741, "pitch": 72, "duration": 90, "velocity": 122}, {"time": 86746, "pitch": 65, "duration": 80, "velocity": 116}, {"time": 87211, "pitch": 65, "duration": 97, "velocity": 112}, {"time": 87211, "pitch": 69, "duration": 87, "velocity": 110}, {"time": 87211, "pitch": 72, "duration": 77, "velocity": 108}, {"time": 87216, "pitch": 77, "duration": 92, "velocity": 112}, {"time": 87692, "pitch": 65, "duration": 299, "velocity": 102}, {"time": 87846, "pitch": 68, "duration": 329, "velocity": 112}, {"time": 87851, "pitch": 71, "duration": 324, "velocity": 112}, {"time": 88170, "pitch": 69, "duration": 54, "velocity": 112}, {"time": 88170, "pitch": 72, "duration": 54, "velocity": 112}, {"time": 88807, "pitch": 64, "duration": 1363, "velocity": 110}, {"time": 88807, "pitch": 72, "duration": 1378, "velocity": 112}, {"time": 88812, "pitch": 60, "duration": 1358, "velocity": 112}, {"time": 88812, "pitch": 67, "duration": 1358, "velocity": 108}, {"time": 90245, "pitch": 77, "duration": 85, "velocity": 112}, {"time": 90250, "pitch": 69, "duration": 80, "velocity": 110}, {"time": 90255, "pitch": 65, "duration": 114, "velocity": 110}, {"time": 90255, "pitch": 72, "duration": 80, "velocity": 110}, {"time": 90568, "pitch": 77, "duration": 304, "velocity": 102}, {"time": 90723, "pitch": 80, "duration": 323, "velocity": 112}, {"time": 90728, "pitch": 83, "duration": 323, "velocity": 112}, {"time": 91046, "pitch": 81, "duration": 205, "velocity": 112}, {"time": 91046, "pitch": 84, "duration": 210, "velocity": 112}, {"time": 91195, "pitch": 77, "duration": 311, "velocity": 102}, {"time": 91531, "pitch": 65, "duration": 132, "velocity": 112}, {"time": 91536, "pitch": 69, "duration": 102, "velocity": 106}, {"time": 91536, "pitch": 77, "duration": 107, "velocity": 112}, {"time": 91541, "pitch": 72, "duration": 97, "velocity": 110}, {"time": 92012, "pitch": 65, "duration": 129, "velocity": 112}, {"time": 92012, "pitch": 69, "duration": 104, "velocity": 106}, {"time": 92017, "pitch": 72, "duration": 99, "velocity": 110}, {"time": 92017, "pitch": 77, "duration": 99, "velocity": 112}, {"time": 92977, "pitch": 60, "duration": 358, "velocity": 116}, {"time": 92977, "pitch": 66, "duration": 144, "velocity": 118}, {"time": 92982, "pitch": 72, "duration": 485, "velocity": 116}, {"time": 93107, "pitch": 67, "duration": 386, "velocity": 114}, {"time": 93473, "pitch": 60, "duration": 540, "velocity": 106}, {"time": 93610, "pitch": 65, "duration": 199, "velocity": 120}, {"time": 93610, "pitch": 69, "duration": 239, "velocity": 120}, {"time": 93923, "pitch": 67, "duration": 120, "velocity": 120}, {"time": 93928, "pitch": 64, "duration": 80, "velocity": 118}, {"time": 94416, "pitch": 77, "duration": 114, "velocity": 120}, {"time": 94426, "pitch": 72, "duration": 94, "velocity": 122}, {"time": 94431, "pitch": 65, "duration": 79, "velocity": 116}, {"time": 94898, "pitch": 71, "duration": 159, "velocity": 120}, {"time": 94908, "pitch": 77, "duration": 468, "velocity": 118}, {"time": 94913, "pitch": 65, "duration": 358, "velocity": 116}, {"time": 95028, "pitch": 72, "duration": 353, "velocity": 118}, {"time": 95361, "pitch": 65, "duration": 307, "velocity": 102}, {"time": 95520, "pitch": 68, "duration": 336, "velocity": 112}, {"time": 95525, "pitch": 71, "duration": 331, "velocity": 112}, {"time": 95851, "pitch": 69, "duration": 56, "velocity": 112}, {"time": 95851, "pitch": 72, "duration": 56, "velocity": 112}, {"time": 96327, "pitch": 72, "duration": 89, "velocity": 114}, {"time": 96337, "pitch": 67, "duration": 69, "velocity": 120}, {"time": 96342, "pitch": 60, "duration": 69, "velocity": 116}, {"time": 96819, "pitch": 60, "duration": 359, "velocity": 116}, {"time": 96819, "pitch": 66, "duration": 135, "velocity": 118}, {"time": 96824, "pitch": 72, "duration": 478, "velocity": 116}, {"time": 96939, "pitch": 67, "duration": 388, "velocity": 114}, {"time": 97307, "pitch": 60, "duration": 546, "velocity": 106}, {"time": 97441, "pitch": 69, "duration": 245, "velocity": 120}, {"time": 97446, "pitch": 65, "duration": 199, "velocity": 120}, {"time": 97767, "pitch": 64, "duration": 86, "velocity": 118}, {"time": 97767, "pitch": 67, "duration": 117, "velocity": 120}, {"time": 98248, "pitch": 80, "duration": 40, "velocity": 120}, {"time": 98258, "pitch": 86, "duration": 99, "velocity": 116}, {"time": 98263, "pitch": 74, "duration": 99, "velocity": 110}, {"time": 98278, "pitch": 81, "duration": 50, "velocity": 118}, {"time": 98417, "pitch": 74, "duration": 189, "velocity": 118}, {"time": 98427, "pitch": 79, "duration": 224, "velocity": 120}, {"time": 98432, "pitch": 83, "duration": 239, "velocity": 122}, {"time": 98731, "pitch": 74, "duration": 94, "velocity": 102}, {"time": 98890, "pitch": 77, "duration": 40, "velocity": 122}, {"time": 98895, "pitch": 74, "duration": 209, "velocity": 102}, {"time": 98895, "pitch": 81, "duration": 298, "velocity": 118}, {"time": 98925, "pitch": 78, "duration": 253, "velocity": 120}, {"time": 99218, "pitch": 74, "duration": 100, "velocity": 106}, {"time": 99357, "pitch": 79, "duration": 219, "velocity": 118}, {"time": 99362, "pitch": 83, "duration": 224, "velocity": 116}, {"time": 99372, "pitch": 74, "duration": 209, "velocity": 114}, {"time": 99666, "pitch": 74, "duration": 119, "velocity": 116}, {"time": 99666, "pitch": 78, "duration": 124, "velocity": 120}, {"time": 99671, "pitch": 81, "duration": 149, "velocity": 118}, {"time": 99845, "pitch": 91, "duration": 56, "velocity": 114}, {"time": 99850, "pitch": 86, "duration": 41, "velocity": 121}, {"time": 99998, "pitch": 86, "duration": 46, "velocity": 118}, {"time": 99998, "pitch": 91, "duration": 61, "velocity": 114}, {"time": 100161, "pitch": 86, "duration": 50, "velocity": 121}, {"time": 100161, "pitch": 91, "duration": 50, "velocity": 114}, {"time": 100318, "pitch": 86, "duration": 65, "velocity": 123}, {"time": 100323, "pitch": 91, "duration": 65, "velocity": 121}, {"time": 100478, "pitch": 86, "duration": 49, "velocity": 127}, {"time": 100478, "pitch": 91, "duration": 64, "velocity": 114}, {"time": 100647, "pitch": 91, "duration": 59, "velocity": 112}, {"time": 100652, "pitch": 86, "duration": 44, "velocity": 118}, {"time": 100806, "pitch": 86, "duration": 55, "velocity": 114}, {"time": 100806, "pitch": 91, "duration": 65, "velocity": 102}, {"time": 100970, "pitch": 91, "duration": 65, "velocity": 102}, {"time": 100975, "pitch": 86, "duration": 50, "velocity": 118}, {"time": 101114, "pitch": 91, "duration": 85, "velocity": 104}, {"time": 101119, "pitch": 86, "duration": 60, "velocity": 112}, {"time": 101283, "pitch": 86, "duration": 55, "velocity": 112}, {"time": 101288, "pitch": 91, "duration": 65, "velocity": 104}, {"time": 101328, "pitch": 90, "duration": 55, "velocity": 118}, {"time": 101348, "pitch": 88, "duration": 85, "velocity": 121}, {"time": 101383, "pitch": 86, "duration": 85, "velocity": 111}, {"time": 101423, "pitch": 84, "duration": 79, "velocity": 94}, {"time": 101468, "pitch": 83, "duration": 64, "velocity": 109}, {"time": 101497, "pitch": 81, "duration": 60, "velocity": 111}, {"time": 101527, "pitch": 79, "duration": 50, "velocity": 111}, {"time": 101557, "pitch": 78, "duration": 40, "velocity": 105}, {"time": 101582, "pitch": 76, "duration": 35, "velocity": 100}, {"time": 101612, "pitch": 74, "duration": 10, "velocity": 97}, {"time": 101632, "pitch": 72, "duration": 10, "velocity": 78}, {"time": 102097, "pitch": 75, "duration": 117, "velocity": 120}, {"time": 102107, "pitch": 70, "duration": 92, "velocity": 122}, {"time": 102112, "pitch": 63, "duration": 82, "velocity": 116}, {"time": 102573, "pitch": 63, "duration": 94, "velocity": 112}, {"time": 102573, "pitch": 67, "duration": 84, "velocity": 110}, {"time": 102573, "pitch": 70, "duration": 74, "velocity": 108}, {"time": 102578, "pitch": 75, "duration": 89, "velocity": 112}, {"time": 103050, "pitch": 63, "duration": 299, "velocity": 102}, {"time": 103205, "pitch": 66, "duration": 328, "velocity": 112}, {"time": 103210, "pitch": 69, "duration": 323, "velocity": 112}, {"time": 103528, "pitch": 67, "duration": 55, "velocity": 112}, {"time": 103528, "pitch": 70, "duration": 55, "velocity": 112}, {"time": 104165, "pitch": 62, "duration": 1364, "velocity": 110}, {"time": 104165, "pitch": 70, "duration": 1379, "velocity": 112}, {"time": 104170, "pitch": 58, "duration": 1359, "velocity": 112}, {"time": 104170, "pitch": 65, "duration": 1359, "velocity": 108}, {"time": 105603, "pitch": 75, "duration": 85, "velocity": 112}, {"time": 105608, "pitch": 67, "duration": 80, "velocity": 110}, {"time": 105613, "pitch": 63, "duration": 115, "velocity": 110}, {"time": 105613, "pitch": 70, "duration": 80, "velocity": 110}, {"time": 105927, "pitch": 75, "duration": 307, "velocity": 102}, {"time": 106081, "pitch": 78, "duration": 331, "velocity": 112}, {"time": 106086, "pitch": 81, "duration": 331, "velocity": 112}, {"time": 106412, "pitch": 79, "duration": 207, "velocity": 112}, {"time": 106412, "pitch": 82, "duration": 212, "velocity": 112}, {"time": 106564, "pitch": 75, "duration": 304, "velocity": 102}, {"time": 106893, "pitch": 63, "duration": 129, "velocity": 112}, {"time": 106898, "pitch": 67, "duration": 99, "velocity": 106}, {"time": 106898, "pitch": 75, "duration": 104, "velocity": 112}, {"time": 106903, "pitch": 70, "duration": 94, "velocity": 110}, {"time": 107370, "pitch": 63, "duration": 130, "velocity": 112}, {"time": 107370, "pitch": 67, "duration": 105, "velocity": 106}, {"time": 107375, "pitch": 70, "duration": 100, "velocity": 110}, {"time": 107375, "pitch": 75, "duration": 100, "velocity": 112}, {"time": 107519, "pitch": 77, "duration": 125, "velocity": 116}, {"time": 107519, "pitch": 89, "duration": 125, "velocity": 116}, {"time": 107679, "pitch": 75, "duration": 169, "velocity": 103}, {"time": 107679, "pitch": 87, "duration": 169, "velocity": 103}, {"time": 107838, "pitch": 74, "duration": 139, "velocity": 100}, {"time": 107838, "pitch": 86, "duration": 139, "velocity": 100}, {"time": 107997, "pitch": 73, "duration": 149, "velocity": 119}, {"time": 107997, "pitch": 85, "duration": 149, "velocity": 119}, {"time": 108156, "pitch": 72, "duration": 140, "velocity": 100}, {"time": 108156, "pitch": 84, "duration": 140, "velocity": 100}, {"time": 108315, "pitch": 70, "duration": 140, "velocity": 109}, {"time": 108315, "pitch": 82, "duration": 140, "velocity": 109}, {"time": 108475, "pitch": 68, "duration": 142, "velocity": 116}, {"time": 108475, "pitch": 80, "duration": 142, "velocity": 116}, {"time": 108637, "pitch": 67, "duration": 148, "velocity": 105}, {"time": 108637, "pitch": 79, "duration": 148, "velocity": 105}, {"time": 108800, "pitch": 65, "duration": 143, "velocity": 106}, {"time": 108800, "pitch": 77, "duration": 143, "velocity": 106}, {"time": 108963, "pitch": 63, "duration": 154, "velocity": 108}, {"time": 108963, "pitch": 75, "duration": 154, "velocity": 108}, {"time": 109122, "pitch": 62, "duration": 139, "velocity": 108}, {"time": 109122, "pitch": 74, "duration": 139, "velocity": 108}, {"time": 109281, "pitch": 61, "duration": 175, "velocity": 100}, {"time": 109281, "pitch": 73, "duration": 175, "velocity": 100}, {"time": 109774, "pitch": 75, "duration": 114, "velocity": 120}, {"time": 109784, "pitch": 70, "duration": 94, "velocity": 122}, {"time": 109789, "pitch": 63, "duration": 79, "velocity": 116}, {"time": 110257, "pitch": 69, "duration": 159, "velocity": 120}, {"time": 110266, "pitch": 75, "duration": 476, "velocity": 118}, {"time": 110271, "pitch": 63, "duration": 364, "velocity": 116}, {"time": 110386, "pitch": 70, "duration": 361, "velocity": 118}, {"time": 110726, "pitch": 63, "duration": 307, "velocity": 102}, {"time": 110889, "pitch": 66, "duration": 328, "velocity": 112}, {"time": 110894, "pitch": 69, "duration": 323, "velocity": 112}, {"time": 111212, "pitch": 67, "duration": 55, "velocity": 112}, {"time": 111212, "pitch": 70, "duration": 55, "velocity": 112}, {"time": 111685, "pitch": 70, "duration": 90, "velocity": 114}, {"time": 111695, "pitch": 65, "duration": 70, "velocity": 120}, {"time": 111700, "pitch": 58, "duration": 70, "velocity": 116}, {"time": 112178, "pitch": 58, "duration": 363, "velocity": 116}, {"time": 112178, "pitch": 64, "duration": 134, "velocity": 118}, {"time": 112183, "pitch": 70, "duration": 485, "velocity": 116}, {"time": 112297, "pitch": 65, "duration": 396, "velocity": 114}, {"time": 112673, "pitch": 58, "duration": 540, "velocity": 106}, {"time": 112810, "pitch": 67, "duration": 239, "velocity": 120}, {"time": 112815, "pitch": 63, "duration": 194, "velocity": 120}, {"time": 113129, "pitch": 62, "duration": 84, "velocity": 118}, {"time": 113129, "pitch": 65, "duration": 114, "velocity": 120}, {"time": 113606, "pitch": 78, "duration": 40, "velocity": 120}, {"time": 113616, "pitch": 84, "duration": 100, "velocity": 116}, {"time": 113621, "pitch": 72, "duration": 100, "velocity": 110}, {"time": 113636, "pitch": 79, "duration": 50, "velocity": 118}, {"time": 113775, "pitch": 72, "duration": 189, "velocity": 118}, {"time": 113785, "pitch": 77, "duration": 224, "velocity": 120}, {"time": 113790, "pitch": 81, "duration": 239, "velocity": 122}, {"time": 114089, "pitch": 72, "duration": 94, "velocity": 102}, {"time": 114248, "pitch": 75, "duration": 40, "velocity": 122}, {"time": 114253, "pitch": 72, "duration": 209, "velocity": 102}, {"time": 114253, "pitch": 79, "duration": 298, "velocity": 118}, {"time": 114283, "pitch": 76, "duration": 254, "velocity": 120}, {"time": 114576, "pitch": 72, "duration": 100, "velocity": 106}, {"time": 114716, "pitch": 77, "duration": 223, "velocity": 118}, {"time": 114721, "pitch": 81, "duration": 229, "velocity": 116}, {"time": 114731, "pitch": 72, "duration": 214, "velocity": 114}, {"time": 115031, "pitch": 72, "duration": 122, "velocity": 116}, {"time": 115031, "pitch": 76, "duration": 127, "velocity": 120}, {"time": 115036, "pitch": 79, "duration": 153, "velocity": 118}, {"time": 115214, "pitch": 89, "duration": 55, "velocity": 114}, {"time": 115219, "pitch": 84, "duration": 40, "velocity": 121}, {"time": 115363, "pitch": 84, "duration": 45, "velocity": 118}, {"time": 115363, "pitch": 89, "duration": 60, "velocity": 114}, {"time": 115522, "pitch": 84, "duration": 50, "velocity": 121}, {"time": 115522, "pitch": 89, "duration": 50, "velocity": 114}, {"time": 115677, "pitch": 84, "duration": 64, "velocity": 123}, {"time": 115682, "pitch": 89, "duration": 64, "velocity": 121}, {"time": 115836, "pitch": 84, "duration": 50, "velocity": 127}, {"time": 115836, "pitch": 89, "duration": 64, "velocity": 114}, {"time": 116005, "pitch": 89, "duration": 60, "velocity": 112}, {"time": 116010, "pitch": 84, "duration": 45, "velocity": 118}, {"time": 116164, "pitch": 84, "duration": 55, "velocity": 114}, {"time": 116164, "pitch": 89, "duration": 65, "velocity": 102}, {"time": 116627, "pitch": 89, "duration": 50, "velocity": 98}, {"time": 116652, "pitch": 88, "duration": 46, "velocity": 111}, {"time": 116677, "pitch": 86, "duration": 46, "velocity": 114}, {"time": 116698, "pitch": 84, "duration": 51, "velocity": 112}, {"time": 116718, "pitch": 82, "duration": 51, "velocity": 114}, {"time": 116744, "pitch": 81, "duration": 45, "velocity": 111}, {"time": 116769, "pitch": 79, "duration": 51, "velocity": 111}, {"time": 116784, "pitch": 77, "duration": 66, "velocity": 112}, {"time": 116815, "pitch": 76, "duration": 66, "velocity": 107}, {"time": 116835, "pitch": 74, "duration": 66, "velocity": 105}, {"time": 116871, "pitch": 72, "duration": 56, "velocity": 104}, {"time": 116896, "pitch": 70, "duration": 56, "velocity": 101}, {"time": 116922, "pitch": 69, "duration": 56, "velocity": 109}, {"time": 116952, "pitch": 67, "duration": 41, "velocity": 105}, {"time": 116978, "pitch": 65, "duration": 20, "velocity": 91}, {"time": 117448, "pitch": 70, "duration": 90, "velocity": 106}, {"time": 117613, "pitch": 77, "duration": 94, "velocity": 116}, {"time": 117717, "pitch": 80, "duration": 134, "velocity": 106}, {"time": 117777, "pitch": 77, "duration": 119, "velocity": 98}, {"time": 117926, "pitch": 70, "duration": 55, "velocity": 72}, {"time": 118085, "pitch": 75, "duration": 174, "velocity": 118}, {"time": 118095, "pitch": 79, "duration": 149, "velocity": 116}, {"time": 118409, "pitch": 70, "duration": 69, "velocity": 110}, {"time": 118573, "pitch": 73, "duration": 144, "velocity": 118}, {"time": 118573, "pitch": 77, "duration": 254, "velocity": 106}, {"time": 118702, "pitch": 74, "duration": 179, "velocity": 102}, {"time": 118896, "pitch": 70, "duration": 95, "velocity": 116}, {"time": 119366, "pitch": 70, "duration": 92, "velocity": 114}, {"time": 119376, "pitch": 58, "duration": 77, "velocity": 116}, {"time": 119376, "pitch": 65, "duration": 72, "velocity": 120}, {"time": 119862, "pitch": 64, "duration": 144, "velocity": 118}, {"time": 119867, "pitch": 58, "duration": 353, "velocity": 116}, {"time": 119867, "pitch": 70, "duration": 478, "velocity": 116}, {"time": 119991, "pitch": 65, "duration": 379, "velocity": 114}, {"time": 120350, "pitch": 58, "duration": 537, "velocity": 106}, {"time": 120484, "pitch": 67, "duration": 239, "velocity": 120}, {"time": 120489, "pitch": 63, "duration": 194, "velocity": 120}, {"time": 120802, "pitch": 65, "duration": 115, "velocity": 120}, {"time": 120807, "pitch": 62, "duration": 80, "velocity": 118}, {"time": 121297, "pitch": 75, "duration": 117, "velocity": 120}, {"time": 121308, "pitch": 70, "duration": 91, "velocity": 122}, {"time": 121313, "pitch": 63, "duration": 81, "velocity": 116}, {"time": 121783, "pitch": 69, "duration": 159, "velocity": 120}, {"time": 121788, "pitch": 75, "duration": 473, "velocity": 118}, {"time": 121793, "pitch": 63, "duration": 363, "velocity": 116}, {"time": 121913, "pitch": 70, "duration": 353, "velocity": 118}, {"time": 122246, "pitch": 63, "duration": 303, "velocity": 102}, {"time": 122405, "pitch": 66, "duration": 328, "velocity": 112}, {"time": 122405, "pitch": 69, "duration": 328, "velocity": 112}, {"time": 122728, "pitch": 67, "duration": 55, "velocity": 112}, {"time": 122728, "pitch": 70, "duration": 55, "velocity": 112}, {"time": 122888, "pitch": 60, "duration": 855, "velocity": 112}, {"time": 122893, "pitch": 72, "duration": 835, "velocity": 112}, {"time": 122898, "pitch": 63, "duration": 820, "velocity": 112}, {"time": 122898, "pitch": 67, "duration": 809, "velocity": 110}, {"time": 123854, "pitch": 63, "duration": 874, "velocity": 112}, {"time": 123859, "pitch": 65, "duration": 886, "velocity": 112}, {"time": 123864, "pitch": 69, "duration": 871, "velocity": 112}, {"time": 123864, "pitch": 72, "duration": 861, "velocity": 110}, {"time": 125122, "pitch": 70, "duration": 90, "velocity": 106}, {"time": 125287, "pitch": 77, "duration": 96, "velocity": 116}, {"time": 125393, "pitch": 80, "duration": 138, "velocity": 106}, {"time": 125454, "pitch": 77, "duration": 123, "velocity": 98}, {"time": 125607, "pitch": 70, "duration": 56, "velocity": 72}, {"time": 125770, "pitch": 75, "duration": 174, "velocity": 118}, {"time": 125780, "pitch": 79, "duration": 149, "velocity": 116}, {"time": 126093, "pitch": 70, "duration": 70, "velocity": 110}, {"time": 126257, "pitch": 73, "duration": 145, "velocity": 118}, {"time": 126257, "pitch": 77, "duration": 254, "velocity": 106}, {"time": 126387, "pitch": 74, "duration": 179, "velocity": 102}, {"time": 126581, "pitch": 70, "duration": 94, "velocity": 116}, {"time": 127043, "pitch": 70, "duration": 90, "velocity": 114}, {"time": 127053, "pitch": 58, "duration": 75, "velocity": 116}, {"time": 127053, "pitch": 65, "duration": 70, "velocity": 120}, {"time": 127536, "pitch": 64, "duration": 144, "velocity": 118}, {"time": 127541, "pitch": 58, "duration": 358, "velocity": 116}, {"time": 127541, "pitch": 70, "duration": 485, "velocity": 116}, {"time": 127665, "pitch": 65, "duration": 387, "velocity": 114}, {"time": 128031, "pitch": 58, "duration": 540, "velocity": 106}, {"time": 128168, "pitch": 67, "duration": 239, "velocity": 120}, {"time": 128173, "pitch": 63, "duration": 194, "velocity": 120}, {"time": 128487, "pitch": 65, "duration": 114, "velocity": 120}, {"time": 128492, "pitch": 62, "duration": 79, "velocity": 118}, {"time": 128651, "pitch": 63, "duration": 918, "velocity": 112}, {"time": 128656, "pitch": 75, "duration": 898, "velocity": 112}, {"time": 128661, "pitch": 67, "duration": 884, "velocity": 112}, {"time": 128661, "pitch": 70, "duration": 874, "velocity": 110}, {"time": 129606, "pitch": 64, "duration": 929, "velocity": 112}, {"time": 129611, "pitch": 76, "duration": 909, "velocity": 112}, {"time": 129617, "pitch": 67, "duration": 893, "velocity": 112}, {"time": 129617, "pitch": 70, "duration": 883, "velocity": 110}, {"time": 130886, "pitch": 77, "duration": 89, "velocity": 114}, {"time": 130896, "pitch": 72, "duration": 69, "velocity": 120}, {"time": 130900, "pitch": 65, "duration": 70, "velocity": 116}, {"time": 131378, "pitch": 71, "duration": 144, "velocity": 118}, {"time": 131388, "pitch": 65, "duration": 348, "velocity": 116}, {"time": 131393, "pitch": 77, "duration": 468, "velocity": 116}, {"time": 131507, "pitch": 72, "duration": 379, "velocity": 114}, {"time": 131866, "pitch": 65, "duration": 546, "velocity": 106}, {"time": 132000, "pitch": 70, "duration": 204, "velocity": 120}, {"time": 132000, "pitch": 74, "duration": 244, "velocity": 120}, {"time": 132331, "pitch": 69, "duration": 76, "velocity": 118}, {"time": 132331, "pitch": 72, "duration": 112, "velocity": 120}, {"time": 132493, "pitch": 60, "duration": 1843, "velocity": 112}, {"time": 132498, "pitch": 72, "duration": 1823, "velocity": 112}, {"time": 132503, "pitch": 63, "duration": 1808, "velocity": 112}, {"time": 132503, "pitch": 67, "duration": 1798, "velocity": 110}, {"time": 134404, "pitch": 53, "duration": 896, "velocity": 112}, {"time": 134404, "pitch": 60, "duration": 906, "velocity": 110}, {"time": 134404, "pitch": 63, "duration": 896, "velocity": 108}, {"time": 134404, "pitch": 69, "duration": 911, "velocity": 112}, {"time": 135360, "pitch": 58, "duration": 895, "velocity": 112}, {"time": 135360, "pitch": 62, "duration": 905, "velocity": 110}, {"time": 135360, "pitch": 65, "duration": 895, "velocity": 108}, {"time": 135360, "pitch": 70, "duration": 910, "velocity": 112}, {"time": 136325, "pitch": 63, "duration": 1969, "velocity": 112}, {"time": 136330, "pitch": 75, "duration": 1949, "velocity": 112}, {"time": 136335, "pitch": 67, "duration": 1933, "velocity": 112}, {"time": 136335, "pitch": 70, "duration": 1923, "velocity": 110}, {"time": 138246, "pitch": 60, "duration": 857, "velocity": 112}, {"time": 138251, "pitch": 72, "duration": 837, "velocity": 112}, {"time": 138256, "pitch": 63, "duration": 38, "velocity": 112}, {"time": 138256, "pitch": 67, "duration": 12, "velocity": 110}, {"time": 139212, "pitch": 63, "duration": 874, "velocity": 112}, {"time": 139217, "pitch": 65, "duration": 886, "velocity": 112}, {"time": 139222, "pitch": 69, "duration": 871, "velocity": 112}, {"time": 139222, "pitch": 72, "duration": 861, "velocity": 110}, {"time": 140157, "pitch": 65, "duration": 314, "velocity": 114}, {"time": 140162, "pitch": 70, "duration": 309, "velocity": 123}, {"time": 140167, "pitch": 74, "duration": 318, "velocity": 112}, {"time": 142392, "pitch": 69, "duration": 89, "velocity": 109}, {"time": 142397, "pitch": 72, "duration": 84, "velocity": 111}, {"time": 142402, "pitch": 65, "duration": 64, "velocity": 105}, {"time": 142576, "pitch": 65, "duration": 143, "velocity": 114}, {"time": 142576, "pitch": 69, "duration": 148, "velocity": 112}, {"time": 142576, "pitch": 72, "duration": 153, "velocity": 118}, {"time": 142876, "pitch": 65, "duration": 248, "velocity": 121}, {"time": 142876, "pitch": 70, "duration": 273, "velocity": 127}, {"time": 142876, "pitch": 74, "duration": 312, "velocity": 121}, {"time": 144333, "pitch": 75, "duration": 114, "velocity": 120}, {"time": 144343, "pitch": 70, "duration": 89, "velocity": 122}, {"time": 144348, "pitch": 63, "duration": 79, "velocity": 116}, {"time": 144813, "pitch": 63, "duration": 96, "velocity": 112}, {"time": 144813, "pitch": 67, "duration": 86, "velocity": 110}, {"time": 144813, "pitch": 70, "duration": 76, "velocity": 108}, {"time": 144818, "pitch": 75, "duration": 91, "velocity": 112}, {"time": 145294, "pitch": 63, "duration": 298, "velocity": 102}, {"time": 145448, "pitch": 66, "duration": 328, "velocity": 112}, {"time": 145453, "pitch": 69, "duration": 323, "velocity": 112}, {"time": 145771, "pitch": 67, "duration": 55, "velocity": 112}, {"time": 145771, "pitch": 70, "duration": 55, "velocity": 112}, {"time": 146408, "pitch": 62, "duration": 1364, "velocity": 110}, {"time": 146408, "pitch": 70, "duration": 1379, "velocity": 112}, {"time": 146413, "pitch": 58, "duration": 1359, "velocity": 112}, {"time": 146413, "pitch": 65, "duration": 1359, "velocity": 108}, {"time": 147847, "pitch": 75, "duration": 84, "velocity": 112}, {"time": 147851, "pitch": 67, "duration": 80, "velocity": 110}, {"time": 147856, "pitch": 63, "duration": 115, "velocity": 110}, {"time": 147856, "pitch": 70, "duration": 80, "velocity": 110}, {"time": 148170, "pitch": 75, "duration": 303, "velocity": 102}, {"time": 148324, "pitch": 78, "duration": 323, "velocity": 112}, {"time": 148329, "pitch": 81, "duration": 323, "velocity": 112}, {"time": 148647, "pitch": 79, "duration": 206, "velocity": 112}, {"time": 148647, "pitch": 82, "duration": 211, "velocity": 112}, {"time": 148797, "pitch": 75, "duration": 310, "velocity": 102}, {"time": 149132, "pitch": 63, "duration": 133, "velocity": 112}, {"time": 149138, "pitch": 67, "duration": 101, "velocity": 106}, {"time": 149138, "pitch": 75, "duration": 106, "velocity": 112}, {"time": 149143, "pitch": 70, "duration": 96, "velocity": 110}, {"time": 149613, "pitch": 63, "duration": 130, "velocity": 112}, {"time": 149613, "pitch": 67, "duration": 105, "velocity": 106}, {"time": 149618, "pitch": 70, "duration": 100, "velocity": 110}, {"time": 149618, "pitch": 75, "duration": 100, "velocity": 112}, {"time": 150579, "pitch": 58, "duration": 353, "velocity": 116}, {"time": 150579, "pitch": 64, "duration": 144, "velocity": 118}, {"time": 150584, "pitch": 70, "duration": 477, "velocity": 116}, {"time": 150708, "pitch": 65, "duration": 378, "velocity": 114}, {"time": 151066, "pitch": 58, "duration": 547, "velocity": 106}, {"time": 151200, "pitch": 63, "duration": 204, "velocity": 120}, {"time": 151200, "pitch": 67, "duration": 245, "velocity": 120}, {"time": 151521, "pitch": 65, "duration": 122, "velocity": 120}, {"time": 151526, "pitch": 62, "duration": 82, "velocity": 118}, {"time": 152017, "pitch": 75, "duration": 115, "velocity": 120}, {"time": 152027, "pitch": 70, "duration": 95, "velocity": 122}, {"time": 152032, "pitch": 63, "duration": 80, "velocity": 116}, {"time": 152500, "pitch": 69, "duration": 159, "velocity": 120}, {"time": 152510, "pitch": 75, "duration": 467, "velocity": 118}, {"time": 152515, "pitch": 63, "duration": 358, "velocity": 116}, {"time": 152629, "pitch": 70, "duration": 353, "velocity": 118}, {"time": 152962, "pitch": 63, "duration": 307, "velocity": 102}, {"time": 153122, "pitch": 66, "duration": 335, "velocity": 112}, {"time": 153127, "pitch": 69, "duration": 330, "velocity": 112}, {"time": 153452, "pitch": 67, "duration": 56, "velocity": 112}, {"time": 153452, "pitch": 70, "duration": 56, "velocity": 112}, {"time": 153928, "pitch": 70, "duration": 90, "velocity": 114}, {"time": 153938, "pitch": 65, "duration": 70, "velocity": 120}, {"time": 153943, "pitch": 58, "duration": 70, "velocity": 116}, {"time": 154421, "pitch": 58, "duration": 358, "velocity": 116}, {"time": 154421, "pitch": 64, "duration": 134, "velocity": 118}, {"time": 154426, "pitch": 70, "duration": 477, "velocity": 116}, {"time": 154540, "pitch": 65, "duration": 388, "velocity": 114}, {"time": 154908, "pitch": 58, "duration": 538, "velocity": 106}, {"time": 155043, "pitch": 67, "duration": 238, "velocity": 120}, {"time": 155048, "pitch": 63, "duration": 194, "velocity": 120}, {"time": 155361, "pitch": 62, "duration": 85, "velocity": 118}, {"time": 155361, "pitch": 65, "duration": 115, "velocity": 120}, {"time": 155846, "pitch": 78, "duration": 41, "velocity": 120}, {"time": 155856, "pitch": 84, "duration": 102, "velocity": 116}, {"time": 155861, "pitch": 72, "duration": 102, "velocity": 110}, {"time": 155876, "pitch": 79, "duration": 51, "velocity": 118}, {"time": 156019, "pitch": 72, "duration": 189, "velocity": 118}, {"time": 156028, "pitch": 77, "duration": 224, "velocity": 120}, {"time": 156033, "pitch": 81, "duration": 239, "velocity": 122}, {"time": 156332, "pitch": 72, "duration": 94, "velocity": 102}, {"time": 156491, "pitch": 75, "duration": 40, "velocity": 122}, {"time": 156496, "pitch": 72, "duration": 209, "velocity": 102}, {"time": 156496, "pitch": 79, "duration": 299, "velocity": 118}, {"time": 156526, "pitch": 76, "duration": 254, "velocity": 120}, {"time": 156820, "pitch": 72, "duration": 99, "velocity": 106}, {"time": 156959, "pitch": 77, "duration": 219, "velocity": 118}, {"time": 156964, "pitch": 81, "duration": 224, "velocity": 116}, {"time": 156974, "pitch": 72, "duration": 209, "velocity": 114}, {"time": 157267, "pitch": 72, "duration": 120, "velocity": 116}, {"time": 157267, "pitch": 76, "duration": 125, "velocity": 120}, {"time": 157272, "pitch": 79, "duration": 150, "velocity": 118}, {"time": 157447, "pitch": 89, "duration": 55, "velocity": 114}, {"time": 157452, "pitch": 84, "duration": 40, "velocity": 121}, {"time": 157599, "pitch": 84, "duration": 46, "velocity": 118}, {"time": 157599, "pitch": 89, "duration": 61, "velocity": 114}, {"time": 157762, "pitch": 84, "duration": 51, "velocity": 121}, {"time": 157762, "pitch": 89, "duration": 51, "velocity": 114}, {"time": 157920, "pitch": 84, "duration": 64, "velocity": 123}, {"time": 157925, "pitch": 89, "duration": 64, "velocity": 121}, {"time": 158079, "pitch": 84, "duration": 50, "velocity": 127}, {"time": 158079, "pitch": 89, "duration": 65, "velocity": 114}, {"time": 158248, "pitch": 89, "duration": 60, "velocity": 112}, {"time": 158253, "pitch": 84, "duration": 45, "velocity": 118}, {"time": 158407, "pitch": 84, "duration": 55, "velocity": 114}, {"time": 158407, "pitch": 89, "duration": 65, "velocity": 102}, {"time": 158571, "pitch": 89, "duration": 65, "velocity": 102}, {"time": 158576, "pitch": 84, "duration": 50, "velocity": 118}, {"time": 158716, "pitch": 89, "duration": 84, "velocity": 104}, {"time": 158721, "pitch": 84, "duration": 59, "velocity": 112}, {"time": 158885, "pitch": 84, "duration": 55, "velocity": 112}, {"time": 158890, "pitch": 89, "duration": 65, "velocity": 104}, {"time": 158930, "pitch": 88, "duration": 54, "velocity": 118}, {"time": 158950, "pitch": 86, "duration": 84, "velocity": 121}, {"time": 158984, "pitch": 84, "duration": 85, "velocity": 111}, {"time": 159024, "pitch": 82, "duration": 80, "velocity": 94}, {"time": 159069, "pitch": 81, "duration": 65, "velocity": 109}, {"time": 159099, "pitch": 79, "duration": 60, "velocity": 111}, {"time": 159129, "pitch": 77, "duration": 49, "velocity": 111}, {"time": 159159, "pitch": 76, "duration": 39, "velocity": 105}, {"time": 159183, "pitch": 74, "duration": 35, "velocity": 100}, {"time": 159213, "pitch": 72, "duration": 10, "velocity": 97}, {"time": 159233, "pitch": 70, "duration": 10, "velocity": 78}, {"time": 159681, "pitch": 70, "duration": 89, "velocity": 106}, {"time": 159845, "pitch": 77, "duration": 97, "velocity": 116}, {"time": 159952, "pitch": 80, "duration": 137, "velocity": 106}, {"time": 160013, "pitch": 77, "duration": 122, "velocity": 98}, {"time": 160166, "pitch": 70, "duration": 56, "velocity": 72}, {"time": 160328, "pitch": 75, "duration": 175, "velocity": 118}, {"time": 160338, "pitch": 79, "duration": 150, "velocity": 116}, {"time": 160652, "pitch": 70, "duration": 69, "velocity": 110}, {"time": 160816, "pitch": 73, "duration": 144, "velocity": 118}, {"time": 160816, "pitch": 77, "duration": 254, "velocity": 106}, {"time": 160945, "pitch": 74, "duration": 179, "velocity": 102}, {"time": 161139, "pitch": 70, "duration": 95, "velocity": 116}, {"time": 161602, "pitch": 70, "duration": 90, "velocity": 114}, {"time": 161612, "pitch": 58, "duration": 75, "velocity": 116}, {"time": 161612, "pitch": 65, "duration": 70, "velocity": 120}, {"time": 162102, "pitch": 64, "duration": 148, "velocity": 118}, {"time": 162107, "pitch": 58, "duration": 356, "velocity": 116}, {"time": 162107, "pitch": 70, "duration": 481, "velocity": 116}, {"time": 162234, "pitch": 65, "duration": 379, "velocity": 114}, {"time": 162593, "pitch": 58, "duration": 537, "velocity": 106}, {"time": 162727, "pitch": 67, "duration": 239, "velocity": 120}, {"time": 162732, "pitch": 63, "duration": 194, "velocity": 120}, {"time": 163046, "pitch": 65, "duration": 114, "velocity": 120}, {"time": 163051, "pitch": 62, "duration": 79, "velocity": 118}, {"time": 163533, "pitch": 75, "duration": 115, "velocity": 120}, {"time": 163543, "pitch": 70, "duration": 90, "velocity": 122}, {"time": 163548, "pitch": 63, "duration": 80, "velocity": 116}, {"time": 164016, "pitch": 69, "duration": 159, "velocity": 120}, {"time": 164021, "pitch": 75, "duration": 480, "velocity": 118}, {"time": 164026, "pitch": 63, "duration": 368, "velocity": 116}, {"time": 164145, "pitch": 70, "duration": 361, "velocity": 118}, {"time": 164486, "pitch": 63, "duration": 307, "velocity": 102}, {"time": 164648, "pitch": 66, "duration": 329, "velocity": 112}, {"time": 164648, "pitch": 69, "duration": 329, "velocity": 112}, {"time": 164972, "pitch": 67, "duration": 54, "velocity": 112}, {"time": 164972, "pitch": 70, "duration": 54, "velocity": 112}, {"time": 165131, "pitch": 60, "duration": 847, "velocity": 112}, {"time": 165136, "pitch": 72, "duration": 827, "velocity": 112}, {"time": 165141, "pitch": 63, "duration": 812, "velocity": 112}, {"time": 165141, "pitch": 67, "duration": 802, "velocity": 110}, {"time": 166086, "pitch": 63, "duration": 885, "velocity": 112}, {"time": 166091, "pitch": 65, "duration": 897, "velocity": 112}, {"time": 166096, "pitch": 69, "duration": 882, "velocity": 112}, {"time": 166096, "pitch": 72, "duration": 872, "velocity": 110}, {"time": 167365, "pitch": 70, "duration": 90, "velocity": 106}, {"time": 167530, "pitch": 77, "duration": 94, "velocity": 116}, {"time": 167634, "pitch": 80, "duration": 134, "velocity": 106}, {"time": 167694, "pitch": 77, "duration": 119, "velocity": 98}, {"time": 167843, "pitch": 70, "duration": 55, "velocity": 72}, {"time": 168002, "pitch": 75, "duration": 174, "velocity": 118}, {"time": 168012, "pitch": 79, "duration": 149, "velocity": 116}, {"time": 168326, "pitch": 70, "duration": 69, "velocity": 110}, {"time": 168490, "pitch": 73, "duration": 148, "velocity": 118}, {"time": 168490, "pitch": 77, "duration": 259, "velocity": 106}, {"time": 168622, "pitch": 74, "duration": 183, "velocity": 102}, {"time": 168821, "pitch": 70, "duration": 96, "velocity": 116}, {"time": 169286, "pitch": 70, "duration": 90, "velocity": 114}, {"time": 169296, "pitch": 58, "duration": 75, "velocity": 116}, {"time": 169296, "pitch": 65, "duration": 70, "velocity": 120}, {"time": 169779, "pitch": 64, "duration": 144, "velocity": 118}, {"time": 169784, "pitch": 58, "duration": 353, "velocity": 116}, {"time": 169784, "pitch": 70, "duration": 478, "velocity": 116}, {"time": 169908, "pitch": 65, "duration": 378, "velocity": 114}, {"time": 170267, "pitch": 58, "duration": 546, "velocity": 106}, {"time": 170401, "pitch": 67, "duration": 244, "velocity": 120}, {"time": 170406, "pitch": 63, "duration": 198, "velocity": 120}, {"time": 170727, "pitch": 65, "duration": 117, "velocity": 120}, {"time": 170732, "pitch": 62, "duration": 81, "velocity": 118}, {"time": 170894, "pitch": 63, "duration": 919, "velocity": 112}, {"time": 170899, "pitch": 75, "duration": 899, "velocity": 112}, {"time": 170904, "pitch": 67, "duration": 884, "velocity": 112}, {"time": 170904, "pitch": 70, "duration": 874, "velocity": 110}, {"time": 171849, "pitch": 64, "duration": 919, "velocity": 112}, {"time": 171854, "pitch": 76, "duration": 899, "velocity": 112}, {"time": 171859, "pitch": 67, "duration": 884, "velocity": 112}, {"time": 171859, "pitch": 70, "duration": 874, "velocity": 110}, {"time": 173125, "pitch": 77, "duration": 92, "velocity": 114}, {"time": 173135, "pitch": 72, "duration": 72, "velocity": 120}, {"time": 173141, "pitch": 65, "duration": 71, "velocity": 116}, {"time": 173621, "pitch": 71, "duration": 145, "velocity": 118}, {"time": 173631, "pitch": 65, "duration": 348, "velocity": 116}, {"time": 173636, "pitch": 77, "duration": 468, "velocity": 116}, {"time": 173751, "pitch": 72, "duration": 378, "velocity": 114}, {"time": 174109, "pitch": 65, "duration": 537, "velocity": 106}, {"time": 174243, "pitch": 70, "duration": 199, "velocity": 120}, {"time": 174243, "pitch": 74, "duration": 239, "velocity": 120}, {"time": 174567, "pitch": 69, "duration": 74, "velocity": 118}, {"time": 174567, "pitch": 72, "duration": 109, "velocity": 120}, {"time": 174726, "pitch": 60, "duration": 1844, "velocity": 112}, {"time": 174731, "pitch": 72, "duration": 1824, "velocity": 112}, {"time": 174736, "pitch": 63, "duration": 1809, "velocity": 112}, {"time": 174736, "pitch": 67, "duration": 1799, "velocity": 110}, {"time": 176637, "pitch": 53, "duration": 906, "velocity": 112}, {"time": 176637, "pitch": 60, "duration": 916, "velocity": 110}, {"time": 176637, "pitch": 63, "duration": 906, "velocity": 108}, {"time": 176637, "pitch": 69, "duration": 921, "velocity": 112}, {"time": 177603, "pitch": 58, "duration": 895, "velocity": 112}, {"time": 177603, "pitch": 62, "duration": 905, "velocity": 110}, {"time": 177603, "pitch": 65, "duration": 895, "velocity": 108}, {"time": 177603, "pitch": 70, "duration": 910, "velocity": 112}, {"time": 178568, "pitch": 63, "duration": 1968, "velocity": 112}, {"time": 178573, "pitch": 75, "duration": 1948, "velocity": 112}, {"time": 178578, "pitch": 67, "duration": 1933, "velocity": 112}, {"time": 178578, "pitch": 70, "duration": 1923, "velocity": 110}, {"time": 180489, "pitch": 60, "duration": 855, "velocity": 112}, {"time": 180494, "pitch": 72, "duration": 835, "velocity": 112}, {"time": 180499, "pitch": 63, "duration": 37, "velocity": 112}, {"time": 180499, "pitch": 67, "duration": 12, "velocity": 110}, {"time": 181455, "pitch": 63, "duration": 875, "velocity": 112}, {"time": 181460, "pitch": 65, "duration": 887, "velocity": 112}, {"time": 181465, "pitch": 69, "duration": 872, "velocity": 112}, {"time": 181465, "pitch": 72, "duration": 862, "velocity": 110}, {"time": 182400, "pitch": 65, "duration": 314, "velocity": 114}, {"time": 182405, "pitch": 70, "duration": 309, "velocity": 123}, {"time": 182410, "pitch": 74, "duration": 319, "velocity": 112}, {"time": 184635, "pitch": 69, "duration": 89, "velocity": 109}, {"time": 184640, "pitch": 72, "duration": 84, "velocity": 111}, {"time": 184645, "pitch": 65, "duration": 64, "velocity": 105}, {"time": 184819, "pitch": 65, "duration": 139, "velocity": 114}, {"time": 184819, "pitch": 69, "duration": 144, "velocity": 112}, {"time": 184819, "pitch": 72, "duration": 149, "velocity": 118}, {"time": 185112, "pitch": 65, "duration": 246, "velocity": 121}, {"time": 185112, "pitch": 70, "duration": 271, "velocity": 127}, {"time": 185112, "pitch": 74, "duration": 312, "velocity": 121}, {"time": 186576, "pitch": 77, "duration": 114, "velocity": 120}, {"time": 186586, "pitch": 72, "duration": 89, "velocity": 122}, {"time": 186591, "pitch": 65, "duration": 79, "velocity": 116}, {"time": 187048, "pitch": 65, "duration": 95, "velocity": 112}, {"time": 187048, "pitch": 69, "duration": 85, "velocity": 110}, {"time": 187048, "pitch": 72, "duration": 75, "velocity": 108}, {"time": 187053, "pitch": 77, "duration": 90, "velocity": 112}, {"time": 187526, "pitch": 65, "duration": 302, "velocity": 102}, {"time": 187680, "pitch": 68, "duration": 336, "velocity": 112}, {"time": 187685, "pitch": 71, "duration": 331, "velocity": 112}, {"time": 188011, "pitch": 69, "duration": 56, "velocity": 112}, {"time": 188011, "pitch": 72, "duration": 56, "velocity": 112}, {"time": 188651, "pitch": 64, "duration": 1363, "velocity": 110}, {"time": 188651, "pitch": 72, "duration": 1378, "velocity": 112}, {"time": 188656, "pitch": 60, "duration": 1358, "velocity": 112}, {"time": 188656, "pitch": 67, "duration": 1358, "velocity": 108}, {"time": 190090, "pitch": 77, "duration": 84, "velocity": 112}, {"time": 190095, "pitch": 69, "duration": 79, "velocity": 110}, {"time": 190100, "pitch": 65, "duration": 114, "velocity": 110}, {"time": 190100, "pitch": 72, "duration": 79, "velocity": 110}, {"time": 190413, "pitch": 77, "duration": 304, "velocity": 102}, {"time": 190567, "pitch": 80, "duration": 324, "velocity": 112}, {"time": 190572, "pitch": 83, "duration": 324, "velocity": 112}, {"time": 190891, "pitch": 81, "duration": 204, "velocity": 112}, {"time": 190891, "pitch": 84, "duration": 209, "velocity": 112}, {"time": 191040, "pitch": 77, "duration": 303, "velocity": 102}, {"time": 191368, "pitch": 65, "duration": 130, "velocity": 112}, {"time": 191373, "pitch": 69, "duration": 100, "velocity": 106}, {"time": 191373, "pitch": 77, "duration": 105, "velocity": 112}, {"time": 191378, "pitch": 72, "duration": 95, "velocity": 110}, {"time": 191846, "pitch": 65, "duration": 129, "velocity": 112}, {"time": 191846, "pitch": 69, "duration": 104, "velocity": 106}, {"time": 191851, "pitch": 72, "duration": 99, "velocity": 110}, {"time": 191851, "pitch": 77, "duration": 99, "velocity": 112}, {"time": 191995, "pitch": 79, "duration": 127, "velocity": 116}, {"time": 191995, "pitch": 91, "duration": 127, "velocity": 116}, {"time": 192158, "pitch": 77, "duration": 173, "velocity": 103}, {"time": 192158, "pitch": 89, "duration": 173, "velocity": 103}, {"time": 192321, "pitch": 76, "duration": 142, "velocity": 100}, {"time": 192321, "pitch": 88, "duration": 142, "velocity": 100}, {"time": 192483, "pitch": 75, "duration": 150, "velocity": 119}, {"time": 192483, "pitch": 87, "duration": 150, "velocity": 119}, {"time": 192643, "pitch": 74, "duration": 139, "velocity": 100}, {"time": 192643, "pitch": 86, "duration": 139, "velocity": 100}, {"time": 192802, "pitch": 72, "duration": 139, "velocity": 109}, {"time": 192802, "pitch": 84, "duration": 139, "velocity": 109}, {"time": 192961, "pitch": 70, "duration": 139, "velocity": 116}, {"time": 192961, "pitch": 82, "duration": 139, "velocity": 116}, {"time": 193120, "pitch": 69, "duration": 145, "velocity": 105}, {"time": 193120, "pitch": 81, "duration": 145, "velocity": 105}, {"time": 193279, "pitch": 67, "duration": 140, "velocity": 106}, {"time": 193279, "pitch": 79, "duration": 140, "velocity": 106}, {"time": 193439, "pitch": 65, "duration": 154, "velocity": 108}, {"time": 193439, "pitch": 77, "duration": 154, "velocity": 108}, {"time": 193598, "pitch": 64, "duration": 139, "velocity": 108}, {"time": 193598, "pitch": 76, "duration": 139, "velocity": 108}, {"time": 193757, "pitch": 63, "duration": 174, "velocity": 100}, {"time": 193757, "pitch": 75, "duration": 174, "velocity": 100}, {"time": 194257, "pitch": 77, "duration": 117, "velocity": 120}, {"time": 194267, "pitch": 72, "duration": 97, "velocity": 122}, {"time": 194272, "pitch": 65, "duration": 82, "velocity": 116}, {"time": 194743, "pitch": 71, "duration": 159, "velocity": 120}, {"time": 194753, "pitch": 77, "duration": 467, "velocity": 118}, {"time": 194758, "pitch": 65, "duration": 358, "velocity": 116}, {"time": 194872, "pitch": 72, "duration": 353, "velocity": 118}, {"time": 195206, "pitch": 65, "duration": 303, "velocity": 102}, {"time": 195365, "pitch": 68, "duration": 328, "velocity": 112}, {"time": 195370, "pitch": 71, "duration": 323, "velocity": 112}, {"time": 195688, "pitch": 69, "duration": 55, "velocity": 112}, {"time": 195688, "pitch": 72, "duration": 55, "velocity": 112}, {"time": 196161, "pitch": 72, "duration": 89, "velocity": 114}, {"time": 196171, "pitch": 67, "duration": 69, "velocity": 120}, {"time": 196176, "pitch": 60, "duration": 69, "velocity": 116}, {"time": 196661, "pitch": 60, "duration": 361, "velocity": 116}, {"time": 196661, "pitch": 66, "duration": 137, "velocity": 118}, {"time": 196666, "pitch": 72, "duration": 481, "velocity": 116}, {"time": 196783, "pitch": 67, "duration": 388, "velocity": 114}, {"time": 197152, "pitch": 60, "duration": 537, "velocity": 106}, {"time": 197286, "pitch": 69, "duration": 239, "velocity": 120}, {"time": 197291, "pitch": 65, "duration": 194, "velocity": 120}, {"time": 197604, "pitch": 64, "duration": 85, "velocity": 118}, {"time": 197604, "pitch": 67, "duration": 115, "velocity": 120}, {"time": 198082, "pitch": 80, "duration": 40, "velocity": 120}, {"time": 198092, "pitch": 86, "duration": 99, "velocity": 116}, {"time": 198097, "pitch": 74, "duration": 99, "velocity": 110}, {"time": 198112, "pitch": 81, "duration": 49, "velocity": 118}, {"time": 198251, "pitch": 74, "duration": 194, "velocity": 118}, {"time": 198261, "pitch": 79, "duration": 229, "velocity": 120}, {"time": 198267, "pitch": 83, "duration": 244, "velocity": 122}, {"time": 198572, "pitch": 74, "duration": 97, "velocity": 102}, {"time": 198734, "pitch": 77, "duration": 40, "velocity": 122}, {"time": 198739, "pitch": 74, "duration": 209, "velocity": 102}, {"time": 198739, "pitch": 81, "duration": 299, "velocity": 118}, {"time": 198769, "pitch": 78, "duration": 254, "velocity": 120}, {"time": 199063, "pitch": 74, "duration": 99, "velocity": 106}, {"time": 199202, "pitch": 79, "duration": 219, "velocity": 118}, {"time": 199207, "pitch": 83, "duration": 224, "velocity": 116}, {"time": 199217, "pitch": 74, "duration": 209, "velocity": 114}, {"time": 199510, "pitch": 74, "duration": 120, "velocity": 116}, {"time": 199510, "pitch": 78, "duration": 125, "velocity": 120}, {"time": 199515, "pitch": 81, "duration": 150, "velocity": 118}, {"time": 199690, "pitch": 91, "duration": 54, "velocity": 114}, {"time": 199695, "pitch": 86, "duration": 39, "velocity": 121}, {"time": 199839, "pitch": 86, "duration": 45, "velocity": 118}, {"time": 199839, "pitch": 91, "duration": 60, "velocity": 114}, {"time": 199998, "pitch": 86, "duration": 50, "velocity": 121}, {"time": 199998, "pitch": 91, "duration": 50, "velocity": 114}, {"time": 200152, "pitch": 86, "duration": 65, "velocity": 123}, {"time": 200157, "pitch": 91, "duration": 65, "velocity": 121}, {"time": 200311, "pitch": 86, "duration": 50, "velocity": 127}, {"time": 200311, "pitch": 91, "duration": 65, "velocity": 114}, {"time": 200481, "pitch": 91, "duration": 59, "velocity": 112}, {"time": 200486, "pitch": 86, "duration": 44, "velocity": 118}, {"time": 200640, "pitch": 86, "duration": 56, "velocity": 114}, {"time": 200640, "pitch": 91, "duration": 66, "velocity": 102}, {"time": 201113, "pitch": 89, "duration": 50, "velocity": 98}, {"time": 201138, "pitch": 88, "duration": 45, "velocity": 111}, {"time": 201163, "pitch": 86, "duration": 45, "velocity": 114}, {"time": 201183, "pitch": 84, "duration": 50, "velocity": 112}, {"time": 201203, "pitch": 82, "duration": 49, "velocity": 114}, {"time": 201228, "pitch": 81, "duration": 44, "velocity": 111}, {"time": 201252, "pitch": 79, "duration": 50, "velocity": 111}, {"time": 201267, "pitch": 77, "duration": 65, "velocity": 112}, {"time": 201297, "pitch": 76, "duration": 65, "velocity": 107}, {"time": 201317, "pitch": 74, "duration": 65, "velocity": 105}, {"time": 201352, "pitch": 72, "duration": 55, "velocity": 104}, {"time": 201377, "pitch": 70, "duration": 55, "velocity": 101}, {"time": 201402, "pitch": 69, "duration": 54, "velocity": 109}, {"time": 201432, "pitch": 67, "duration": 39, "velocity": 105}, {"time": 201456, "pitch": 65, "duration": 20, "velocity": 91}, {"time": 201924, "pitch": 72, "duration": 90, "velocity": 106}, {"time": 202088, "pitch": 79, "duration": 95, "velocity": 116}, {"time": 202193, "pitch": 82, "duration": 134, "velocity": 106}, {"time": 202252, "pitch": 79, "duration": 120, "velocity": 98}, {"time": 202402, "pitch": 72, "duration": 54, "velocity": 72}, {"time": 202561, "pitch": 77, "duration": 178, "velocity": 118}, {"time": 202571, "pitch": 81, "duration": 153, "velocity": 116}, {"time": 202892, "pitch": 72, "duration": 71, "velocity": 110}, {"time": 203059, "pitch": 75, "duration": 144, "velocity": 118}, {"time": 203059, "pitch": 79, "duration": 254, "velocity": 106}, {"time": 203188, "pitch": 76, "duration": 180, "velocity": 102}, {"time": 203383, "pitch": 72, "duration": 94, "velocity": 116}, {"time": 203845, "pitch": 72, "duration": 90, "velocity": 114}, {"time": 203855, "pitch": 60, "duration": 75, "velocity": 116}, {"time": 203855, "pitch": 67, "duration": 70, "velocity": 120}, {"time": 204338, "pitch": 66, "duration": 144, "velocity": 118}, {"time": 204343, "pitch": 60, "duration": 358, "velocity": 116}, {"time": 204343, "pitch": 72, "duration": 485, "velocity": 116}, {"time": 204467, "pitch": 67, "duration": 387, "velocity": 114}, {"time": 204833, "pitch": 60, "duration": 540, "velocity": 106}, {"time": 204970, "pitch": 69, "duration": 239, "velocity": 120}, {"time": 204975, "pitch": 65, "duration": 194, "velocity": 120}, {"time": 205289, "pitch": 67, "duration": 114, "velocity": 120}, {"time": 205294, "pitch": 64, "duration": 79, "velocity": 118}, {"time": 205776, "pitch": 77, "duration": 115, "velocity": 120}, {"time": 205786, "pitch": 72, "duration": 90, "velocity": 122}, {"time": 205791, "pitch": 65, "duration": 80, "velocity": 116}, {"time": 206259, "pitch": 71, "duration": 159, "velocity": 120}, {"time": 206264, "pitch": 77, "duration": 472, "velocity": 118}, {"time": 206269, "pitch": 65, "duration": 363, "velocity": 116}, {"time": 206388, "pitch": 72, "duration": 353, "velocity": 118}, {"time": 206722, "pitch": 65, "duration": 306, "velocity": 102}, {"time": 206881, "pitch": 68, "duration": 336, "velocity": 112}, {"time": 206881, "pitch": 71, "duration": 336, "velocity": 112}, {"time": 207211, "pitch": 69, "duration": 56, "velocity": 112}, {"time": 207211, "pitch": 72, "duration": 56, "velocity": 112}, {"time": 207374, "pitch": 62, "duration": 847, "velocity": 112}, {"time": 207379, "pitch": 74, "duration": 827, "velocity": 112}, {"time": 207384, "pitch": 65, "duration": 812, "velocity": 112}, {"time": 207384, "pitch": 69, "duration": 802, "velocity": 110}, {"time": 208329, "pitch": 65, "duration": 884, "velocity": 112}, {"time": 208334, "pitch": 67, "duration": 896, "velocity": 112}, {"time": 208339, "pitch": 71, "duration": 881, "velocity": 112}, {"time": 208339, "pitch": 74, "duration": 871, "velocity": 110}, {"time": 209609, "pitch": 72, "duration": 89, "velocity": 106}, {"time": 209773, "pitch": 79, "duration": 94, "velocity": 116}, {"time": 209877, "pitch": 82, "duration": 135, "velocity": 106}, {"time": 209937, "pitch": 79, "duration": 119, "velocity": 98}, {"time": 210086, "pitch": 72, "duration": 55, "velocity": 72}, {"time": 210245, "pitch": 77, "duration": 174, "velocity": 118}, {"time": 210255, "pitch": 81, "duration": 150, "velocity": 116}, {"time": 210569, "pitch": 72, "duration": 69, "velocity": 110}, {"time": 210733, "pitch": 75, "duration": 144, "velocity": 118}, {"time": 210733, "pitch": 79, "duration": 254, "velocity": 106}, {"time": 210862, "pitch": 76, "duration": 179, "velocity": 102}, {"time": 211056, "pitch": 72, "duration": 95, "velocity": 116}, {"time": 211526, "pitch": 72, "duration": 92, "velocity": 114}, {"time": 211536, "pitch": 60, "duration": 77, "velocity": 116}, {"time": 211536, "pitch": 67, "duration": 72, "velocity": 120}, {"time": 212022, "pitch": 66, "duration": 144, "velocity": 118}, {"time": 212027, "pitch": 60, "duration": 353, "velocity": 116}, {"time": 212027, "pitch": 72, "duration": 478, "velocity": 116}, {"time": 212152, "pitch": 67, "duration": 378, "velocity": 114}, {"time": 212510, "pitch": 60, "duration": 537, "velocity": 106}, {"time": 212644, "pitch": 69, "duration": 239, "velocity": 120}, {"time": 212649, "pitch": 65, "duration": 194, "velocity": 120}, {"time": 212962, "pitch": 67, "duration": 115, "velocity": 120}, {"time": 212967, "pitch": 64, "duration": 80, "velocity": 118}, {"time": 213127, "pitch": 65, "duration": 929, "velocity": 112}, {"time": 213132, "pitch": 77, "duration": 909, "velocity": 112}, {"time": 213137, "pitch": 69, "duration": 894, "velocity": 112}, {"time": 213137, "pitch": 72, "duration": 884, "velocity": 110}, {"time": 214093, "pitch": 66, "duration": 918, "velocity": 112}, {"time": 214098, "pitch": 78, "duration": 898, "velocity": 112}, {"time": 214103, "pitch": 69, "duration": 883, "velocity": 112}, {"time": 214103, "pitch": 72, "duration": 873, "velocity": 110}, {"time": 215361, "pitch": 79, "duration": 90, "velocity": 114}, {"time": 215371, "pitch": 74, "duration": 70, "velocity": 120}, {"time": 215376, "pitch": 67, "duration": 70, "velocity": 116}, {"time": 215861, "pitch": 73, "duration": 148, "velocity": 118}, {"time": 215872, "pitch": 67, "duration": 351, "velocity": 116}, {"time": 215877, "pitch": 79, "duration": 470, "velocity": 116}, {"time": 215994, "pitch": 74, "duration": 378, "velocity": 114}, {"time": 216352, "pitch": 67, "duration": 537, "velocity": 106}, {"time": 216486, "pitch": 72, "duration": 199, "velocity": 120}, {"time": 216486, "pitch": 76, "duration": 239, "velocity": 120}, {"time": 216810, "pitch": 71, "duration": 74, "velocity": 118}, {"time": 216810, "pitch": 74, "duration": 109, "velocity": 120}, {"time": 216969, "pitch": 62, "duration": 1844, "velocity": 112}, {"time": 216974, "pitch": 74, "duration": 1824, "velocity": 112}, {"time": 216979, "pitch": 65, "duration": 1810, "velocity": 112}, {"time": 216979, "pitch": 69, "duration": 1800, "velocity": 110}, {"time": 218880, "pitch": 55, "duration": 896, "velocity": 112}, {"time": 218880, "pitch": 62, "duration": 906, "velocity": 110}, {"time": 218880, "pitch": 65, "duration": 896, "velocity": 108}, {"time": 218880, "pitch": 71, "duration": 911, "velocity": 112}, {"time": 219835, "pitch": 60, "duration": 906, "velocity": 112}, {"time": 219835, "pitch": 64, "duration": 916, "velocity": 110}, {"time": 219835, "pitch": 67, "duration": 906, "velocity": 108}, {"time": 219835, "pitch": 72, "duration": 921, "velocity": 112}, {"time": 220811, "pitch": 65, "duration": 1968, "velocity": 112}, {"time": 220816, "pitch": 77, "duration": 1948, "velocity": 112}, {"time": 220821, "pitch": 69, "duration": 1933, "velocity": 112}, {"time": 220821, "pitch": 72, "duration": 1923, "velocity": 110}, {"time": 222732, "pitch": 62, "duration": 847, "velocity": 112}, {"time": 222737, "pitch": 74, "duration": 827, "velocity": 112}, {"time": 222742, "pitch": 65, "duration": 37, "velocity": 112}, {"time": 222742, "pitch": 69, "duration": 12, "velocity": 110}, {"time": 223687, "pitch": 65, "duration": 884, "velocity": 112}, {"time": 223692, "pitch": 67, "duration": 897, "velocity": 112}, {"time": 223697, "pitch": 71, "duration": 881, "velocity": 112}, {"time": 223697, "pitch": 74, "duration": 871, "velocity": 110}, {"time": 224643, "pitch": 67, "duration": 314, "velocity": 114}, {"time": 224648, "pitch": 72, "duration": 309, "velocity": 123}, {"time": 224653, "pitch": 76, "duration": 319, "velocity": 112}, {"time": 226878, "pitch": 71, "duration": 90, "velocity": 109}, {"time": 226883, "pitch": 74, "duration": 85, "velocity": 111}, {"time": 226888, "pitch": 67, "duration": 65, "velocity": 105}, {"time": 227062, "pitch": 67, "duration": 139, "velocity": 114}, {"time": 227062, "pitch": 71, "duration": 144, "velocity": 112}, {"time": 227062, "pitch": 74, "duration": 149, "velocity": 118}, {"time": 227356, "pitch": 67, "duration": 243, "velocity": 121}, {"time": 227356, "pitch": 72, "duration": 268, "velocity": 127}, {"time": 227356, "pitch": 76, "duration": 308, "velocity": 121}, {"time": 227948, "pitch": 91, "duration": 49, "velocity": 98}, {"time": 227972, "pitch": 90, "duration": 45, "velocity": 111}, {"time": 227997, "pitch": 88, "duration": 45, "velocity": 114}, {"time": 228017, "pitch": 86, "duration": 50, "velocity": 112}, {"time": 228037, "pitch": 84, "duration": 50, "velocity": 114}, {"time": 228062, "pitch": 83, "duration": 45, "velocity": 111}, {"time": 228087, "pitch": 81, "duration": 50, "velocity": 111}, {"time": 228102, "pitch": 79, "duration": 65, "velocity": 112}, {"time": 228132, "pitch": 78, "duration": 64, "velocity": 107}, {"time": 228152, "pitch": 76, "duration": 64, "velocity": 105}, {"time": 228186, "pitch": 74, "duration": 55, "velocity": 104}, {"time": 228211, "pitch": 72, "duration": 55, "velocity": 101}, {"time": 228236, "pitch": 71, "duration": 55, "velocity": 109}, {"time": 228266, "pitch": 69, "duration": 40, "velocity": 105}, {"time": 228291, "pitch": 67, "duration": 20, "velocity": 91}, {"time": 228475, "pitch": 79, "duration": 127, "velocity": 116}, {"time": 228475, "pitch": 91, "duration": 127, "velocity": 116}, {"time": 228638, "pitch": 77, "duration": 173, "velocity": 103}, {"time": 228638, "pitch": 89, "duration": 173, "velocity": 103}, {"time": 228800, "pitch": 76, "duration": 143, "velocity": 100}, {"time": 228800, "pitch": 88, "duration": 143, "velocity": 100}, {"time": 228963, "pitch": 75, "duration": 149, "velocity": 119}, {"time": 228963, "pitch": 87, "duration": 149, "velocity": 119}, {"time": 229122, "pitch": 74, "duration": 140, "velocity": 100}, {"time": 229122, "pitch": 86, "duration": 140, "velocity": 100}, {"time": 229282, "pitch": 72, "duration": 139, "velocity": 109}, {"time": 229282, "pitch": 84, "duration": 139, "velocity": 109}, {"time": 229441, "pitch": 70, "duration": 139, "velocity": 116}, {"time": 229441, "pitch": 82, "duration": 139, "velocity": 116}, {"time": 229600, "pitch": 69, "duration": 144, "velocity": 105}, {"time": 229600, "pitch": 81, "duration": 144, "velocity": 105}, {"time": 229759, "pitch": 67, "duration": 140, "velocity": 106}, {"time": 229759, "pitch": 79, "duration": 140, "velocity": 106}, {"time": 229918, "pitch": 65, "duration": 155, "velocity": 108}, {"time": 229918, "pitch": 77, "duration": 155, "velocity": 108}, {"time": 230078, "pitch": 64, "duration": 139, "velocity": 108}, {"time": 230078, "pitch": 76, "duration": 139, "velocity": 108}, {"time": 230237, "pitch": 63, "duration": 174, "velocity": 100}, {"time": 230237, "pitch": 75, "duration": 174, "velocity": 100}, {"time": 230732, "pitch": 67, "duration": 66, "velocity": 111}, {"time": 230732, "pitch": 71, "duration": 71, "velocity": 111}, {"time": 230732, "pitch": 74, "duration": 91, "velocity": 118}, {"time": 230898, "pitch": 67, "duration": 160, "velocity": 112}, {"time": 230898, "pitch": 71, "duration": 175, "velocity": 112}, {"time": 230898, "pitch": 74, "duration": 180, "velocity": 109}, {"time": 231204, "pitch": 72, "duration": 2603, "velocity": 127}, {"time": 231209, "pitch": 67, "duration": 2593, "velocity": 127}, {"time": 231209, "pitch": 76, "duration": 2608, "velocity": 121}, {"time": 1922, "pitch": 39, "duration": 239, "velocity": 96}, {"time": 2241, "pitch": 46, "duration": 107, "velocity": 121}, {"time": 2400, "pitch": 48, "duration": 251, "velocity": 116}, {"time": 2718, "pitch": 46, "duration": 108, "velocity": 121}, {"time": 2877, "pitch": 48, "duration": 263, "velocity": 118}, {"time": 3196, "pitch": 46, "duration": 77, "velocity": 116}, {"time": 3355, "pitch": 48, "duration": 269, "velocity": 118}, {"time": 3681, "pitch": 46, "duration": 110, "velocity": 112}, {"time": 3843, "pitch": 34, "duration": 239, "velocity": 96}, {"time": 4162, "pitch": 41, "duration": 107, "velocity": 121}, {"time": 4321, "pitch": 43, "duration": 251, "velocity": 116}, {"time": 4639, "pitch": 44, "duration": 508, "velocity": 116}, {"time": 5117, "pitch": 41, "duration": 78, "velocity": 116}, {"time": 5276, "pitch": 43, "duration": 269, "velocity": 118}, {"time": 5602, "pitch": 41, "duration": 110, "velocity": 112}, {"time": 5764, "pitch": 39, "duration": 239, "velocity": 96}, {"time": 6083, "pitch": 46, "duration": 107, "velocity": 121}, {"time": 6242, "pitch": 48, "duration": 251, "velocity": 116}, {"time": 6560, "pitch": 46, "duration": 108, "velocity": 121}, {"time": 6720, "pitch": 48, "duration": 262, "velocity": 118}, {"time": 7038, "pitch": 46, "duration": 78, "velocity": 116}, {"time": 7197, "pitch": 48, "duration": 263, "velocity": 118}, {"time": 7516, "pitch": 46, "duration": 107, "velocity": 112}, {"time": 7675, "pitch": 53, "duration": 104, "velocity": 121}, {"time": 7838, "pitch": 51, "duration": 158, "velocity": 108}, {"time": 8000, "pitch": 50, "duration": 123, "velocity": 105}, {"time": 8163, "pitch": 49, "duration": 132, "velocity": 124}, {"time": 8322, "pitch": 48, "duration": 120, "velocity": 105}, {"time": 8482, "pitch": 46, "duration": 119, "velocity": 114}, {"time": 8641, "pitch": 44, "duration": 119, "velocity": 121}, {"time": 8800, "pitch": 43, "duration": 125, "velocity": 110}, {"time": 8959, "pitch": 41, "duration": 120, "velocity": 111}, {"time": 9118, "pitch": 39, "duration": 138, "velocity": 113}, {"time": 9278, "pitch": 38, "duration": 119, "velocity": 113}, {"time": 9437, "pitch": 37, "duration": 161, "velocity": 105}, {"time": 9596, "pitch": 39, "duration": 244, "velocity": 96}, {"time": 9922, "pitch": 46, "duration": 109, "velocity": 121}, {"time": 10084, "pitch": 48, "duration": 251, "velocity": 116}, {"time": 10403, "pitch": 46, "duration": 107, "velocity": 121}, {"time": 10562, "pitch": 48, "duration": 263, "velocity": 118}, {"time": 10880, "pitch": 46, "duration": 78, "velocity": 116}, {"time": 11040, "pitch": 48, "duration": 262, "velocity": 118}, {"time": 11358, "pitch": 46, "duration": 107, "velocity": 112}, {"time": 11517, "pitch": 34, "duration": 239, "velocity": 96}, {"time": 11836, "pitch": 41, "duration": 107, "velocity": 121}, {"time": 11995, "pitch": 43, "duration": 256, "velocity": 116}, {"time": 12320, "pitch": 44, "duration": 511, "velocity": 116}, {"time": 12801, "pitch": 41, "duration": 78, "velocity": 116}, {"time": 12961, "pitch": 43, "duration": 262, "velocity": 118}, {"time": 13279, "pitch": 41, "duration": 108, "velocity": 112}, {"time": 13438, "pitch": 36, "duration": 239, "velocity": 96}, {"time": 13757, "pitch": 43, "duration": 107, "velocity": 121}, {"time": 13916, "pitch": 45, "duration": 256, "velocity": 116}, {"time": 14241, "pitch": 43, "duration": 110, "velocity": 121}, {"time": 14404, "pitch": 45, "duration": 263, "velocity": 118}, {"time": 14723, "pitch": 43, "duration": 77, "velocity": 116}, {"time": 14882, "pitch": 45, "duration": 262, "velocity": 118}, {"time": 15200, "pitch": 43, "duration": 108, "velocity": 112}, {"time": 15359, "pitch": 41, "duration": 269, "velocity": 125}, {"time": 15678, "pitch": 41, "duration": 95, "velocity": 125}, {"time": 15837, "pitch": 41, "duration": 238, "velocity": 125}, {"time": 16163, "pitch": 41, "duration": 79, "velocity": 121}, {"time": 16325, "pitch": 41, "duration": 209, "velocity": 127}, {"time": 17280, "pitch": 34, "duration": 239, "velocity": 96}, {"time": 17599, "pitch": 41, "duration": 107, "velocity": 121}, {"time": 17758, "pitch": 43, "duration": 251, "velocity": 116}, {"time": 18076, "pitch": 41, "duration": 108, "velocity": 121}, {"time": 18236, "pitch": 43, "duration": 268, "velocity": 118}, {"time": 18561, "pitch": 41, "duration": 80, "velocity": 116}, {"time": 18724, "pitch": 37, "duration": 263, "velocity": 118}, {"time": 19042, "pitch": 38, "duration": 108, "velocity": 112}, {"time": 19202, "pitch": 34, "duration": 238, "velocity": 96}, {"time": 19520, "pitch": 41, "duration": 107, "velocity": 121}, {"time": 19679, "pitch": 43, "duration": 251, "velocity": 116}, {"time": 19998, "pitch": 41, "duration": 107, "velocity": 121}, {"time": 20157, "pitch": 43, "duration": 268, "velocity": 118}, {"time": 20482, "pitch": 41, "duration": 80, "velocity": 116}, {"time": 20645, "pitch": 37, "duration": 263, "velocity": 118}, {"time": 20963, "pitch": 38, "duration": 108, "velocity": 112}, {"time": 21123, "pitch": 39, "duration": 268, "velocity": 112}, {"time": 21441, "pitch": 39, "duration": 114, "velocity": 108}, {"time": 21600, "pitch": 39, "duration": 233, "velocity": 104}, {"time": 21919, "pitch": 39, "duration": 95, "velocity": 106}, {"time": 22078, "pitch": 39, "duration": 298, "velocity": 106}, {"time": 22396, "pitch": 39, "duration": 102, "velocity": 112}, {"time": 22556, "pitch": 39, "duration": 238, "velocity": 104}, {"time": 22881, "pitch": 39, "duration": 98, "velocity": 112}, {"time": 23044, "pitch": 36, "duration": 268, "velocity": 125}, {"time": 23362, "pitch": 36, "duration": 96, "velocity": 125}, {"time": 23521, "pitch": 36, "duration": 257, "velocity": 125}, {"time": 23840, "pitch": 36, "duration": 77, "velocity": 121}, {"time": 23999, "pitch": 41, "duration": 239, "velocity": 127}, {"time": 24317, "pitch": 41, "duration": 126, "velocity": 118}, {"time": 24477, "pitch": 36, "duration": 311, "velocity": 127}, {"time": 24802, "pitch": 41, "duration": 116, "velocity": 102}, {"time": 24965, "pitch": 34, "duration": 239, "velocity": 96}, {"time": 25283, "pitch": 41, "duration": 108, "velocity": 121}, {"time": 25443, "pitch": 43, "duration": 250, "velocity": 116}, {"time": 25761, "pitch": 41, "duration": 107, "velocity": 121}, {"time": 25920, "pitch": 43, "duration": 263, "velocity": 118}, {"time": 26239, "pitch": 41, "duration": 77, "velocity": 116}, {"time": 26398, "pitch": 37, "duration": 262, "velocity": 118}, {"time": 26716, "pitch": 38, "duration": 108, "velocity": 112}, {"time": 26875, "pitch": 34, "duration": 244, "velocity": 96}, {"time": 27201, "pitch": 41, "duration": 110, "velocity": 121}, {"time": 27364, "pitch": 43, "duration": 250, "velocity": 116}, {"time": 27682, "pitch": 41, "duration": 108, "velocity": 121}, {"time": 27841, "pitch": 43, "duration": 263, "velocity": 118}, {"time": 28160, "pitch": 41, "duration": 77, "velocity": 116}, {"time": 28319, "pitch": 37, "duration": 263, "velocity": 118}, {"time": 28637, "pitch": 38, "duration": 108, "velocity": 112}, {"time": 28796, "pitch": 39, "duration": 257, "velocity": 127}, {"time": 29122, "pitch": 39, "duration": 110, "velocity": 116}, {"time": 29285, "pitch": 39, "duration": 245, "velocity": 123}, {"time": 29603, "pitch": 39, "duration": 84, "velocity": 116}, {"time": 29762, "pitch": 40, "duration": 227, "velocity": 118}, {"time": 30081, "pitch": 40, "duration": 95, "velocity": 114}, {"time": 30240, "pitch": 40, "duration": 251, "velocity": 109}, {"time": 30558, "pitch": 40, "duration": 108, "velocity": 116}, {"time": 30718, "pitch": 41, "duration": 268, "velocity": 125}, {"time": 31036, "pitch": 41, "duration": 96, "velocity": 125}, {"time": 31195, "pitch": 41, "duration": 263, "velocity": 125}, {"time": 31521, "pitch": 41, "duration": 79, "velocity": 121}, {"time": 31683, "pitch": 41, "duration": 239, "velocity": 127}, {"time": 32002, "pitch": 41, "duration": 125, "velocity": 118}, {"time": 32161, "pitch": 36, "duration": 305, "velocity": 127}, {"time": 32480, "pitch": 41, "duration": 113, "velocity": 102}, {"time": 32639, "pitch": 36, "duration": 250, "velocity": 108}, {"time": 32957, "pitch": 36, "duration": 78, "velocity": 108}, {"time": 33116, "pitch": 36, "duration": 238, "velocity": 112}, {"time": 33442, "pitch": 36, "duration": 104, "velocity": 114}, {"time": 33605, "pitch": 36, "duration": 250, "velocity": 106}, {"time": 33923, "pitch": 36, "duration": 96, "velocity": 119}, {"time": 34082, "pitch": 36, "duration": 257, "velocity": 96}, {"time": 34401, "pitch": 36, "duration": 113, "velocity": 117}, {"time": 34560, "pitch": 41, "duration": 239, "velocity": 96}, {"time": 34878, "pitch": 41, "duration": 108, "velocity": 121}, {"time": 35037, "pitch": 41, "duration": 245, "velocity": 116}, {"time": 35356, "pitch": 41, "duration": 77, "velocity": 116}, {"time": 35515, "pitch": 46, "duration": 299, "velocity": 121}, {"time": 35841, "pitch": 46, "duration": 79, "velocity": 116}, {"time": 36003, "pitch": 46, "duration": 263, "velocity": 118}, {"time": 36322, "pitch": 41, "duration": 107, "velocity": 112}, {"time": 36481, "pitch": 39, "duration": 251, "velocity": 127}, {"time": 36799, "pitch": 39, "duration": 108, "velocity": 116}, {"time": 36959, "pitch": 39, "duration": 244, "velocity": 123}, {"time": 37277, "pitch": 39, "duration": 84, "velocity": 116}, {"time": 37436, "pitch": 39, "duration": 232, "velocity": 118}, {"time": 37762, "pitch": 39, "duration": 97, "velocity": 114}, {"time": 37924, "pitch": 39, "duration": 251, "velocity": 109}, {"time": 38243, "pitch": 39, "duration": 107, "velocity": 116}, {"time": 38402, "pitch": 48, "duration": 269, "velocity": 125}, {"time": 38720, "pitch": 48, "duration": 96, "velocity": 125}, {"time": 38880, "pitch": 46, "duration": 256, "velocity": 125}, {"time": 39198, "pitch": 46, "duration": 78, "velocity": 121}, {"time": 39357, "pitch": 45, "duration": 239, "velocity": 127}, {"time": 39676, "pitch": 45, "duration": 125, "velocity": 118}, {"time": 39835, "pitch": 43, "duration": 311, "velocity": 127}, {"time": 40160, "pitch": 43, "duration": 116, "velocity": 102}, {"time": 40323, "pitch": 34, "duration": 287, "velocity": 118}, {"time": 42563, "pitch": 41, "duration": 113, "velocity": 127}, {"time": 42722, "pitch": 41, "duration": 257, "velocity": 111}, {"time": 43040, "pitch": 46, "duration": 370, "velocity": 127}, {"time": 44155, "pitch": 39, "duration": 244, "velocity": 96}, {"time": 44480, "pitch": 46, "duration": 110, "velocity": 121}, {"time": 44643, "pitch": 48, "duration": 251, "velocity": 116}, {"time": 44961, "pitch": 46, "duration": 108, "velocity": 121}, {"time": 45121, "pitch": 48, "duration": 262, "velocity": 118}, {"time": 45439, "pitch": 46, "duration": 78, "velocity": 116}, {"time": 45598, "pitch": 48, "duration": 263, "velocity": 118}, {"time": 45917, "pitch": 46, "duration": 107, "velocity": 112}, {"time": 46076, "pitch": 34, "duration": 244, "velocity": 96}, {"time": 46401, "pitch": 41, "duration": 110, "velocity": 121}, {"time": 46564, "pitch": 43, "duration": 251, "velocity": 116}, {"time": 46883, "pitch": 44, "duration": 507, "velocity": 116}, {"time": 47360, "pitch": 41, "duration": 78, "velocity": 116}, {"time": 47519, "pitch": 43, "duration": 263, "velocity": 118}, {"time": 47838, "pitch": 41, "duration": 107, "velocity": 112}, {"time": 47997, "pitch": 39, "duration": 244, "velocity": 96}, {"time": 48323, "pitch": 46, "duration": 109, "velocity": 121}, {"time": 48485, "pitch": 48, "duration": 251, "velocity": 116}, {"time": 48804, "pitch": 46, "duration": 107, "velocity": 121}, {"time": 48963, "pitch": 48, "duration": 263, "velocity": 118}, {"time": 49281, "pitch": 46, "duration": 78, "velocity": 116}, {"time": 49440, "pitch": 48, "duration": 263, "velocity": 118}, {"time": 49759, "pitch": 46, "duration": 107, "velocity": 112}, {"time": 49918, "pitch": 34, "duration": 239, "velocity": 96}, {"time": 50236, "pitch": 41, "duration": 108, "velocity": 121}, {"time": 50396, "pitch": 43, "duration": 256, "velocity": 116}, {"time": 50721, "pitch": 44, "duration": 511, "velocity": 116}, {"time": 51202, "pitch": 41, "duration": 78, "velocity": 116}, {"time": 51362, "pitch": 43, "duration": 262, "velocity": 118}, {"time": 51680, "pitch": 41, "duration": 107, "velocity": 112}, {"time": 51839, "pitch": 39, "duration": 239, "velocity": 96}, {"time": 52158, "pitch": 46, "duration": 107, "velocity": 121}, {"time": 52317, "pitch": 48, "duration": 256, "velocity": 116}, {"time": 52642, "pitch": 46, "duration": 110, "velocity": 121}, {"time": 52805, "pitch": 48, "duration": 263, "velocity": 118}, {"time": 53123, "pitch": 46, "duration": 78, "velocity": 116}, {"time": 53283, "pitch": 48, "duration": 262, "velocity": 118}, {"time": 53601, "pitch": 46, "duration": 108, "velocity": 112}, {"time": 53760, "pitch": 34, "duration": 239, "velocity": 96}, {"time": 54079, "pitch": 41, "duration": 107, "velocity": 121}, {"time": 54238, "pitch": 43, "duration": 251, "velocity": 116}, {"time": 54556, "pitch": 44, "duration": 516, "velocity": 116}, {"time": 55041, "pitch": 41, "duration": 79, "velocity": 116}, {"time": 55204, "pitch": 43, "duration": 262, "velocity": 118}, {"time": 55522, "pitch": 41, "duration": 108, "velocity": 112}, {"time": 55681, "pitch": 36, "duration": 239, "velocity": 96}, {"time": 56000, "pitch": 43, "duration": 107, "velocity": 121}, {"time": 56159, "pitch": 45, "duration": 251, "velocity": 116}, {"time": 56477, "pitch": 43, "duration": 108, "velocity": 121}, {"time": 56637, "pitch": 45, "duration": 268, "velocity": 118}, {"time": 56962, "pitch": 43, "duration": 80, "velocity": 116}, {"time": 57125, "pitch": 45, "duration": 263, "velocity": 118}, {"time": 57443, "pitch": 43, "duration": 108, "velocity": 112}, {"time": 57603, "pitch": 41, "duration": 268, "velocity": 125}, {"time": 57921, "pitch": 41, "duration": 95, "velocity": 125}, {"time": 58080, "pitch": 41, "duration": 233, "velocity": 125}, {"time": 58399, "pitch": 41, "duration": 77, "velocity": 121}, {"time": 58558, "pitch": 41, "duration": 209, "velocity": 127}, {"time": 58876, "pitch": 41, "duration": 126, "velocity": 118}, {"time": 59035, "pitch": 36, "duration": 312, "velocity": 127}, {"time": 59361, "pitch": 41, "duration": 122, "velocity": 102}, {"time": 59524, "pitch": 34, "duration": 238, "velocity": 96}, {"time": 59842, "pitch": 41, "duration": 108, "velocity": 121}, {"time": 60001, "pitch": 43, "duration": 251, "velocity": 116}, {"time": 60320, "pitch": 41, "duration": 107, "velocity": 121}, {"time": 60479, "pitch": 43, "duration": 263, "velocity": 118}, {"time": 60797, "pitch": 41, "duration": 78, "velocity": 116}, {"time": 60956, "pitch": 37, "duration": 269, "velocity": 118}, {"time": 61282, "pitch": 38, "duration": 110, "velocity": 112}, {"time": 61445, "pitch": 34, "duration": 239, "velocity": 96}, {"time": 61763, "pitch": 41, "duration": 108, "velocity": 121}, {"time": 61922, "pitch": 43, "duration": 251, "velocity": 116}, {"time": 62241, "pitch": 41, "duration": 107, "velocity": 121}, {"time": 62400, "pitch": 43, "duration": 263, "velocity": 118}, {"time": 62718, "pitch": 41, "duration": 78, "velocity": 116}, {"time": 62878, "pitch": 37, "duration": 262, "velocity": 118}, {"time": 63196, "pitch": 38, "duration": 107, "velocity": 112}, {"time": 63355, "pitch": 39, "duration": 275, "velocity": 112}, {"time": 63681, "pitch": 39, "duration": 116, "velocity": 108}, {"time": 63843, "pitch": 39, "duration": 233, "velocity": 104}, {"time": 64162, "pitch": 39, "duration": 95, "velocity": 106}, {"time": 64321, "pitch": 39, "duration": 299, "velocity": 106}, {"time": 64639, "pitch": 39, "duration": 102, "velocity": 112}, {"time": 64799, "pitch": 39, "duration": 233, "velocity": 104}, {"time": 65117, "pitch": 39, "duration": 96, "velocity": 112}, {"time": 65276, "pitch": 36, "duration": 275, "velocity": 125}, {"time": 65602, "pitch": 36, "duration": 98, "velocity": 125}, {"time": 65765, "pitch": 36, "duration": 256, "velocity": 125}, {"time": 66083, "pitch": 36, "duration": 78, "velocity": 121}, {"time": 66242, "pitch": 41, "duration": 239, "velocity": 127}, {"time": 66561, "pitch": 41, "duration": 125, "velocity": 118}, {"time": 66720, "pitch": 36, "duration": 304, "velocity": 127}, {"time": 67038, "pitch": 41, "duration": 114, "velocity": 102}, {"time": 67197, "pitch": 34, "duration": 239, "velocity": 96}, {"time": 67516, "pitch": 41, "duration": 107, "velocity": 121}, {"time": 67675, "pitch": 43, "duration": 256, "velocity": 116}, {"time": 68001, "pitch": 41, "duration": 109, "velocity": 121}, {"time": 68163, "pitch": 43, "duration": 263, "velocity": 118}, {"time": 68482, "pitch": 41, "duration": 77, "velocity": 116}, {"time": 68641, "pitch": 37, "duration": 263, "velocity": 118}, {"time": 68959, "pitch": 38, "duration": 108, "velocity": 112}, {"time": 69119, "pitch": 34, "duration": 238, "velocity": 96}, {"time": 69437, "pitch": 41, "duration": 107, "velocity": 121}, {"time": 69596, "pitch": 43, "duration": 257, "velocity": 116}, {"time": 69922, "pitch": 41, "duration": 110, "velocity": 121}, {"time": 70084, "pitch": 43, "duration": 263, "velocity": 118}, {"time": 70403, "pitch": 41, "duration": 77, "velocity": 116}, {"time": 70562, "pitch": 37, "duration": 263, "velocity": 118}, {"time": 70880, "pitch": 38, "duration": 108, "velocity": 112}, {"time": 71040, "pitch": 39, "duration": 250, "velocity": 127}, {"time": 71358, "pitch": 39, "duration": 108, "velocity": 116}, {"time": 71517, "pitch": 39, "duration": 245, "velocity": 123}, {"time": 71836, "pitch": 39, "duration": 83, "velocity": 116}, {"time": 71995, "pitch": 40, "duration": 232, "velocity": 118}, {"time": 72320, "pitch": 40, "duration": 98, "velocity": 114}, {"time": 72483, "pitch": 40, "duration": 251, "velocity": 109}, {"time": 72802, "pitch": 40, "duration": 107, "velocity": 116}, {"time": 72961, "pitch": 41, "duration": 268, "velocity": 125}, {"time": 73279, "pitch": 41, "duration": 96, "velocity": 125}, {"time": 73438, "pitch": 41, "duration": 257, "velocity": 125}, {"time": 73757, "pitch": 41, "duration": 77, "velocity": 121}, {"time": 73916, "pitch": 41, "duration": 244, "velocity": 127}, {"time": 74242, "pitch": 41, "duration": 128, "velocity": 118}, {"time": 74404, "pitch": 36, "duration": 305, "velocity": 127}, {"time": 74723, "pitch": 41, "duration": 113, "velocity": 102}, {"time": 74882, "pitch": 36, "duration": 251, "velocity": 108}, {"time": 75200, "pitch": 36, "duration": 78, "velocity": 108}, {"time": 75359, "pitch": 36, "duration": 233, "velocity": 112}, {"time": 75678, "pitch": 36, "duration": 101, "velocity": 114}, {"time": 75837, "pitch": 36, "duration": 251, "velocity": 106}, {"time": 76156, "pitch": 36, "duration": 95, "velocity": 119}, {"time": 76315, "pitch": 36, "duration": 262, "velocity": 96}, {"time": 76640, "pitch": 36, "duration": 116, "velocity": 117}, {"time": 76803, "pitch": 41, "duration": 239, "velocity": 96}, {"time": 77121, "pitch": 41, "duration": 108, "velocity": 121}, {"time": 77281, "pitch": 41, "duration": 244, "velocity": 116}, {"time": 77599, "pitch": 41, "duration": 78, "velocity": 116}, {"time": 77758, "pitch": 46, "duration": 293, "velocity": 121}, {"time": 78077, "pitch": 46, "duration": 77, "velocity": 116}, {"time": 78236, "pitch": 46, "duration": 268, "velocity": 118}, {"time": 78561, "pitch": 41, "duration": 110, "velocity": 112}, {"time": 78724, "pitch": 39, "duration": 251, "velocity": 127}, {"time": 79043, "pitch": 39, "duration": 107, "velocity": 116}, {"time": 79202, "pitch": 39, "duration": 244, "velocity": 123}, {"time": 79520, "pitch": 39, "duration": 84, "velocity": 116}, {"time": 79679, "pitch": 39, "duration": 227, "velocity": 118}, {"time": 79998, "pitch": 39, "duration": 95, "velocity": 114}, {"time": 80157, "pitch": 39, "duration": 256, "velocity": 109}, {"time": 80483, "pitch": 39, "duration": 109, "velocity": 116}, {"time": 80645, "pitch": 48, "duration": 269, "velocity": 125}, {"time": 80964, "pitch": 48, "duration": 95, "velocity": 125}, {"time": 81123, "pitch": 46, "duration": 257, "velocity": 125}, {"time": 81441, "pitch": 46, "duration": 78, "velocity": 121}, {"time": 81600, "pitch": 45, "duration": 239, "velocity": 127}, {"time": 81919, "pitch": 45, "duration": 125, "velocity": 118}, {"time": 82078, "pitch": 43, "duration": 305, "velocity": 127}, {"time": 82396, "pitch": 43, "duration": 114, "velocity": 102}, {"time": 82556, "pitch": 34, "duration": 293, "velocity": 118}, {"time": 84802, "pitch": 41, "duration": 116, "velocity": 127}, {"time": 84965, "pitch": 41, "duration": 257, "velocity": 111}, {"time": 85283, "pitch": 46, "duration": 371, "velocity": 127}, {"time": 86398, "pitch": 41, "duration": 239, "velocity": 96}, {"time": 86716, "pitch": 48, "duration": 108, "velocity": 121}, {"time": 86876, "pitch": 50, "duration": 256, "velocity": 116}, {"time": 87201, "pitch": 48, "duration": 110, "velocity": 121}, {"time": 87364, "pitch": 50, "duration": 262, "velocity": 118}, {"time": 87682, "pitch": 48, "duration": 78, "velocity": 116}, {"time": 87841, "pitch": 50, "duration": 263, "velocity": 118}, {"time": 88160, "pitch": 48, "duration": 107, "velocity": 112}, {"time": 88319, "pitch": 36, "duration": 239, "velocity": 96}, {"time": 88637, "pitch": 43, "duration": 108, "velocity": 121}, {"time": 88797, "pitch": 45, "duration": 256, "velocity": 116}, {"time": 89122, "pitch": 46, "duration": 511, "velocity": 116}, {"time": 89603, "pitch": 43, "duration": 78, "velocity": 116}, {"time": 89763, "pitch": 45, "duration": 262, "velocity": 118}, {"time": 90081, "pitch": 43, "duration": 107, "velocity": 112}, {"time": 90240, "pitch": 41, "duration": 239, "velocity": 96}, {"time": 90559, "pitch": 48, "duration": 107, "velocity": 121}, {"time": 90718, "pitch": 50, "duration": 250, "velocity": 116}, {"time": 91036, "pitch": 48, "duration": 108, "velocity": 121}, {"time": 91195, "pitch": 50, "duration": 269, "velocity": 118}, {"time": 91521, "pitch": 48, "duration": 79, "velocity": 116}, {"time": 91684, "pitch": 50, "duration": 262, "velocity": 118}, {"time": 92002, "pitch": 48, "duration": 107, "velocity": 112}, {"time": 92161, "pitch": 36, "duration": 239, "velocity": 96}, {"time": 92480, "pitch": 43, "duration": 107, "velocity": 121}, {"time": 92639, "pitch": 45, "duration": 251, "velocity": 116}, {"time": 92957, "pitch": 46, "duration": 516, "velocity": 116}, {"time": 93442, "pitch": 43, "duration": 79, "velocity": 116}, {"time": 93605, "pitch": 45, "duration": 262, "velocity": 118}, {"time": 93923, "pitch": 43, "duration": 108, "velocity": 112}, {"time": 94082, "pitch": 41, "duration": 239, "velocity": 96}, {"time": 94401, "pitch": 48, "duration": 107, "velocity": 121}, {"time": 94560, "pitch": 50, "duration": 251, "velocity": 116}, {"time": 94878, "pitch": 48, "duration": 108, "velocity": 121}, {"time": 95038, "pitch": 50, "duration": 262, "velocity": 118}, {"time": 95356, "pitch": 48, "duration": 78, "velocity": 116}, {"time": 95515, "pitch": 50, "duration": 269, "velocity": 118}, {"time": 95841, "pitch": 48, "duration": 110, "velocity": 112}, {"time": 96003, "pitch": 36, "duration": 239, "velocity": 96}, {"time": 96322, "pitch": 43, "duration": 107, "velocity": 121}, {"time": 96481, "pitch": 45, "duration": 251, "velocity": 116}, {"time": 96799, "pitch": 46, "duration": 508, "velocity": 116}, {"time": 97277, "pitch": 43, "duration": 78, "velocity": 116}, {"time": 97436, "pitch": 45, "duration": 269, "velocity": 118}, {"time": 97762, "pitch": 43, "duration": 110, "velocity": 112}, {"time": 97925, "pitch": 38, "duration": 238, "velocity": 96}, {"time": 98243, "pitch": 45, "duration": 107, "velocity": 121}, {"time": 98402, "pitch": 47, "duration": 251, "velocity": 116}, {"time": 98721, "pitch": 45, "duration": 107, "velocity": 121}, {"time": 98880, "pitch": 47, "duration": 262, "velocity": 118}, {"time": 99198, "pitch": 45, "duration": 78, "velocity": 116}, {"time": 99357, "pitch": 47, "duration": 263, "velocity": 118}, {"time": 99676, "pitch": 45, "duration": 107, "velocity": 112}, {"time": 99835, "pitch": 43, "duration": 275, "velocity": 125}, {"time": 100161, "pitch": 43, "duration": 97, "velocity": 125}, {"time": 100323, "pitch": 43, "duration": 233, "velocity": 125}, {"time": 100642, "pitch": 43, "duration": 77, "velocity": 121}, {"time": 100801, "pitch": 43, "duration": 209, "velocity": 127}, {"time": 101119, "pitch": 43, "duration": 126, "velocity": 118}, {"time": 101279, "pitch": 38, "duration": 304, "velocity": 127}, {"time": 101597, "pitch": 43, "duration": 119, "velocity": 102}, {"time": 101756, "pitch": 39, "duration": 244, "velocity": 96}, {"time": 102082, "pitch": 46, "duration": 110, "velocity": 121}, {"time": 102244, "pitch": 48, "duration": 251, "velocity": 116}, {"time": 102563, "pitch": 46, "duration": 107, "velocity": 121}, {"time": 102722, "pitch": 48, "duration": 263, "velocity": 118}, {"time": 103040, "pitch": 46, "duration": 78, "velocity": 116}, {"time": 103200, "pitch": 48, "duration": 262, "velocity": 118}, {"time": 103518, "pitch": 46, "duration": 108, "velocity": 112}, {"time": 103677, "pitch": 34, "duration": 239, "velocity": 96}, {"time": 103996, "pitch": 41, "duration": 107, "velocity": 121}, {"time": 104155, "pitch": 43, "duration": 256, "velocity": 116}, {"time": 104480, "pitch": 44, "duration": 511, "velocity": 116}, {"time": 104962, "pitch": 41, "duration": 77, "velocity": 116}, {"time": 105121, "pitch": 43, "duration": 262, "velocity": 118}, {"time": 105439, "pitch": 41, "duration": 108, "velocity": 112}, {"time": 105598, "pitch": 39, "duration": 239, "velocity": 96}, {"time": 105917, "pitch": 46, "duration": 107, "velocity": 121}, {"time": 106076, "pitch": 48, "duration": 256, "velocity": 116}, {"time": 106402, "pitch": 46, "duration": 109, "velocity": 121}, {"time": 106564, "pitch": 48, "duration": 263, "velocity": 118}, {"time": 106883, "pitch": 46, "duration": 77, "velocity": 116}, {"time": 107042, "pitch": 48, "duration": 263, "velocity": 118}, {"time": 107360, "pitch": 46, "duration": 108, "velocity": 112}, {"time": 107519, "pitch": 53, "duration": 93, "velocity": 121}, {"time": 107679, "pitch": 51, "duration": 134, "velocity": 108}, {"time": 107838, "pitch": 50, "duration": 116, "velocity": 105}, {"time": 107997, "pitch": 49, "duration": 122, "velocity": 124}, {"time": 108156, "pitch": 48, "duration": 117, "velocity": 105}, {"time": 108315, "pitch": 46, "duration": 105, "velocity": 114}, {"time": 108475, "pitch": 44, "duration": 113, "velocity": 121}, {"time": 108637, "pitch": 43, "duration": 119, "velocity": 110}, {"time": 108800, "pitch": 41, "duration": 113, "velocity": 111}, {"time": 108963, "pitch": 39, "duration": 134, "velocity": 113}, {"time": 109122, "pitch": 38, "duration": 105, "velocity": 113}, {"time": 109281, "pitch": 37, "duration": 147, "velocity": 105}, {"time": 109441, "pitch": 39, "duration": 238, "velocity": 96}, {"time": 109759, "pitch": 46, "duration": 107, "velocity": 121}, {"time": 109918, "pitch": 48, "duration": 251, "velocity": 116}, {"time": 110237, "pitch": 46, "duration": 107, "velocity": 121}, {"time": 110396, "pitch": 48, "duration": 268, "velocity": 118}, {"time": 110721, "pitch": 46, "duration": 80, "velocity": 116}, {"time": 110884, "pitch": 48, "duration": 263, "velocity": 118}, {"time": 111202, "pitch": 46, "duration": 108, "velocity": 112}, {"time": 111362, "pitch": 34, "duration": 239, "velocity": 96}, {"time": 111680, "pitch": 41, "duration": 108, "velocity": 121}, {"time": 111839, "pitch": 43, "duration": 251, "velocity": 116}, {"time": 112158, "pitch": 44, "duration": 515, "velocity": 116}, {"time": 112642, "pitch": 41, "duration": 80, "velocity": 116}, {"time": 112805, "pitch": 43, "duration": 263, "velocity": 118}, {"time": 113124, "pitch": 41, "duration": 107, "velocity": 112}, {"time": 113283, "pitch": 36, "duration": 239, "velocity": 96}, {"time": 113601, "pitch": 43, "duration": 108, "velocity": 121}, {"time": 113760, "pitch": 45, "duration": 251, "velocity": 116}, {"time": 114079, "pitch": 43, "duration": 107, "velocity": 121}, {"time": 114238, "pitch": 45, "duration": 263, "velocity": 118}, {"time": 114556, "pitch": 43, "duration": 78, "velocity": 116}, {"time": 114716, "pitch": 45, "duration": 268, "velocity": 118}, {"time": 115041, "pitch": 43, "duration": 110, "velocity": 112}, {"time": 115204, "pitch": 41, "duration": 269, "velocity": 125}, {"time": 115522, "pitch": 41, "duration": 96, "velocity": 125}, {"time": 115682, "pitch": 41, "duration": 232, "velocity": 125}, {"time": 116000, "pitch": 41, "duration": 78, "velocity": 121}, {"time": 116159, "pitch": 41, "duration": 209, "velocity": 127}, {"time": 117125, "pitch": 34, "duration": 239, "velocity": 96}, {"time": 117443, "pitch": 41, "duration": 108, "velocity": 121}, {"time": 117603, "pitch": 43, "duration": 250, "velocity": 116}, {"time": 117921, "pitch": 41, "duration": 108, "velocity": 121}, {"time": 118080, "pitch": 43, "duration": 263, "velocity": 118}, {"time": 118399, "pitch": 41, "duration": 77, "velocity": 116}, {"time": 118558, "pitch": 37, "duration": 263, "velocity": 118}, {"time": 118876, "pitch": 38, "duration": 108, "velocity": 112}, {"time": 119035, "pitch": 34, "duration": 245, "velocity": 96}, {"time": 119361, "pitch": 41, "duration": 110, "velocity": 121}, {"time": 119524, "pitch": 43, "duration": 251, "velocity": 116}, {"time": 119842, "pitch": 41, "duration": 108, "velocity": 121}, {"time": 120001, "pitch": 43, "duration": 263, "velocity": 118}, {"time": 120320, "pitch": 41, "duration": 77, "velocity": 116}, {"time": 120479, "pitch": 37, "duration": 263, "velocity": 118}, {"time": 120797, "pitch": 38, "duration": 108, "velocity": 112}, {"time": 120957, "pitch": 39, "duration": 274, "velocity": 112}, {"time": 121282, "pitch": 39, "duration": 116, "velocity": 108}, {"time": 121445, "pitch": 39, "duration": 233, "velocity": 104}, {"time": 121763, "pitch": 39, "duration": 96, "velocity": 106}, {"time": 121922, "pitch": 39, "duration": 299, "velocity": 106}, {"time": 122241, "pitch": 39, "duration": 101, "velocity": 112}, {"time": 122400, "pitch": 39, "duration": 233, "velocity": 104}, {"time": 122719, "pitch": 39, "duration": 95, "velocity": 112}, {"time": 122878, "pitch": 36, "duration": 268, "velocity": 125}, {"time": 123196, "pitch": 36, "duration": 96, "velocity": 125}, {"time": 123355, "pitch": 36, "duration": 263, "velocity": 125}, {"time": 123681, "pitch": 36, "duration": 79, "velocity": 121}, {"time": 123844, "pitch": 41, "duration": 238, "velocity": 127}, {"time": 124162, "pitch": 41, "duration": 125, "velocity": 118}, {"time": 124321, "pitch": 36, "duration": 305, "velocity": 127}, {"time": 124640, "pitch": 41, "duration": 113, "velocity": 102}, {"time": 124799, "pitch": 34, "duration": 239, "velocity": 96}, {"time": 125117, "pitch": 41, "duration": 108, "velocity": 121}, {"time": 125276, "pitch": 43, "duration": 257, "velocity": 116}, {"time": 125602, "pitch": 41, "duration": 110, "velocity": 121}, {"time": 125765, "pitch": 43, "duration": 262, "velocity": 118}, {"time": 126083, "pitch": 41, "duration": 78, "velocity": 116}, {"time": 126242, "pitch": 37, "duration": 263, "velocity": 118}, {"time": 126561, "pitch": 38, "duration": 107, "velocity": 112}, {"time": 126720, "pitch": 34, "duration": 239, "velocity": 96}, {"time": 127038, "pitch": 41, "duration": 108, "velocity": 121}, {"time": 127198, "pitch": 43, "duration": 250, "velocity": 116}, {"time": 127516, "pitch": 41, "duration": 107, "velocity": 121}, {"time": 127675, "pitch": 43, "duration": 269, "velocity": 118}, {"time": 128001, "pitch": 41, "duration": 79, "velocity": 116}, {"time": 128163, "pitch": 37, "duration": 263, "velocity": 118}, {"time": 128482, "pitch": 38, "duration": 107, "velocity": 112}, {"time": 128641, "pitch": 39, "duration": 251, "velocity": 127}, {"time": 128959, "pitch": 39, "duration": 108, "velocity": 116}, {"time": 129119, "pitch": 39, "duration": 244, "velocity": 123}, {"time": 129437, "pitch": 39, "duration": 84, "velocity": 116}, {"time": 129596, "pitch": 40, "duration": 232, "velocity": 118}, {"time": 129922, "pitch": 40, "duration": 98, "velocity": 114}, {"time": 130085, "pitch": 40, "duration": 250, "velocity": 109}, {"time": 130403, "pitch": 40, "duration": 107, "velocity": 116}, {"time": 130562, "pitch": 41, "duration": 269, "velocity": 125}, {"time": 130881, "pitch": 41, "duration": 95, "velocity": 125}, {"time": 131040, "pitch": 41, "duration": 257, "velocity": 125}, {"time": 131358, "pitch": 41, "duration": 78, "velocity": 121}, {"time": 131517, "pitch": 41, "duration": 239, "velocity": 127}, {"time": 131836, "pitch": 41, "duration": 125, "velocity": 118}, {"time": 131995, "pitch": 36, "duration": 311, "velocity": 127}, {"time": 132321, "pitch": 41, "duration": 116, "velocity": 102}, {"time": 132483, "pitch": 36, "duration": 251, "velocity": 108}, {"time": 132802, "pitch": 36, "duration": 77, "velocity": 108}, {"time": 132961, "pitch": 36, "duration": 233, "velocity": 112}, {"time": 133279, "pitch": 36, "duration": 102, "velocity": 114}, {"time": 133439, "pitch": 36, "duration": 250, "velocity": 106}, {"time": 133757, "pitch": 36, "duration": 95, "velocity": 119}, {"time": 133916, "pitch": 36, "duration": 263, "velocity": 96}, {"time": 134242, "pitch": 36, "duration": 116, "velocity": 117}, {"time": 134404, "pitch": 41, "duration": 239, "velocity": 96}, {"time": 134723, "pitch": 41, "duration": 107, "velocity": 121}, {"time": 134882, "pitch": 41, "duration": 245, "velocity": 116}, {"time": 135200, "pitch": 41, "duration": 78, "velocity": 116}, {"time": 135360, "pitch": 46, "duration": 292, "velocity": 121}, {"time": 135678, "pitch": 46, "duration": 78, "velocity": 116}, {"time": 135837, "pitch": 46, "duration": 263, "velocity": 118}, {"time": 136156, "pitch": 41, "duration": 107, "velocity": 112}, {"time": 136315, "pitch": 39, "duration": 256, "velocity": 127}, {"time": 136640, "pitch": 39, "duration": 110, "velocity": 116}, {"time": 136803, "pitch": 39, "duration": 245, "velocity": 123}, {"time": 137122, "pitch": 39, "duration": 83, "velocity": 116}, {"time": 137281, "pitch": 39, "duration": 227, "velocity": 118}, {"time": 137599, "pitch": 39, "duration": 96, "velocity": 114}, {"time": 137758, "pitch": 39, "duration": 251, "velocity": 109}, {"time": 138077, "pitch": 39, "duration": 107, "velocity": 116}, {"time": 138236, "pitch": 48, "duration": 275, "velocity": 125}, {"time": 138562, "pitch": 48, "duration": 97, "velocity": 125}, {"time": 138724, "pitch": 46, "duration": 257, "velocity": 125}, {"time": 139043, "pitch": 46, "duration": 77, "velocity": 121}, {"time": 139202, "pitch": 45, "duration": 239, "velocity": 127}, {"time": 139520, "pitch": 45, "duration": 126, "velocity": 118}, {"time": 139679, "pitch": 43, "duration": 305, "velocity": 127}, {"time": 139998, "pitch": 43, "duration": 113, "velocity": 102}, {"time": 140157, "pitch": 34, "duration": 287, "velocity": 118}, {"time": 142397, "pitch": 41, "duration": 113, "velocity": 127}, {"time": 142556, "pitch": 41, "duration": 262, "velocity": 111}, {"time": 142881, "pitch": 46, "duration": 374, "velocity": 127}, {"time": 143999, "pitch": 39, "duration": 239, "velocity": 96}, {"time": 144318, "pitch": 46, "duration": 107, "velocity": 121}, {"time": 144477, "pitch": 48, "duration": 256, "velocity": 116}, {"time": 144802, "pitch": 46, "duration": 110, "velocity": 121}, {"time": 144965, "pitch": 48, "duration": 263, "velocity": 118}, {"time": 145284, "pitch": 46, "duration": 77, "velocity": 116}, {"time": 145443, "pitch": 48, "duration": 262, "velocity": 118}, {"time": 145761, "pitch": 46, "duration": 108, "velocity": 112}, {"time": 145920, "pitch": 34, "duration": 239, "velocity": 96}, {"time": 146239, "pitch": 41, "duration": 107, "velocity": 121}, {"time": 146398, "pitch": 43, "duration": 251, "velocity": 116}, {"time": 146716, "pitch": 44, "duration": 516, "velocity": 116}, {"time": 147201, "pitch": 41, "duration": 80, "velocity": 116}, {"time": 147364, "pitch": 43, "duration": 263, "velocity": 118}, {"time": 147682, "pitch": 41, "duration": 108, "velocity": 112}, {"time": 147842, "pitch": 39, "duration": 238, "velocity": 96}, {"time": 148160, "pitch": 46, "duration": 107, "velocity": 121}, {"time": 148319, "pitch": 48, "duration": 251, "velocity": 116}, {"time": 148638, "pitch": 46, "duration": 107, "velocity": 121}, {"time": 148797, "pitch": 48, "duration": 268, "velocity": 118}, {"time": 149122, "pitch": 46, "duration": 80, "velocity": 116}, {"time": 149285, "pitch": 48, "duration": 263, "velocity": 118}, {"time": 149603, "pitch": 46, "duration": 108, "velocity": 112}, {"time": 149763, "pitch": 34, "duration": 238, "velocity": 96}, {"time": 150081, "pitch": 41, "duration": 108, "velocity": 121}, {"time": 150240, "pitch": 43, "duration": 251, "velocity": 116}, {"time": 150559, "pitch": 44, "duration": 507, "velocity": 116}, {"time": 151036, "pitch": 41, "duration": 78, "velocity": 116}, {"time": 151195, "pitch": 43, "duration": 269, "velocity": 118}, {"time": 151521, "pitch": 41, "duration": 110, "velocity": 112}, {"time": 151684, "pitch": 39, "duration": 239, "velocity": 96}, {"time": 152002, "pitch": 46, "duration": 108, "velocity": 121}, {"time": 152161, "pitch": 48, "duration": 251, "velocity": 116}, {"time": 152480, "pitch": 46, "duration": 107, "velocity": 121}, {"time": 152639, "pitch": 48, "duration": 263, "velocity": 118}, {"time": 152957, "pitch": 46, "duration": 78, "velocity": 116}, {"time": 153117, "pitch": 48, "duration": 268, "velocity": 118}, {"time": 153442, "pitch": 46, "duration": 110, "velocity": 112}, {"time": 153605, "pitch": 34, "duration": 239, "velocity": 96}, {"time": 153923, "pitch": 41, "duration": 108, "velocity": 121}, {"time": 154082, "pitch": 43, "duration": 251, "velocity": 116}, {"time": 154401, "pitch": 44, "duration": 507, "velocity": 116}, {"time": 154878, "pitch": 41, "duration": 78, "velocity": 116}, {"time": 155038, "pitch": 43, "duration": 262, "velocity": 118}, {"time": 155356, "pitch": 41, "duration": 108, "velocity": 112}, {"time": 155515, "pitch": 36, "duration": 244, "velocity": 96}, {"time": 155841, "pitch": 43, "duration": 110, "velocity": 121}, {"time": 156004, "pitch": 45, "duration": 250, "velocity": 116}, {"time": 156322, "pitch": 43, "duration": 107, "velocity": 121}, {"time": 156481, "pitch": 45, "duration": 263, "velocity": 118}, {"time": 156800, "pitch": 43, "duration": 77, "velocity": 116}, {"time": 156959, "pitch": 45, "duration": 263, "velocity": 118}, {"time": 157277, "pitch": 43, "duration": 108, "velocity": 112}, {"time": 157436, "pitch": 41, "duration": 275, "velocity": 125}, {"time": 157762, "pitch": 41, "duration": 98, "velocity": 125}, {"time": 157925, "pitch": 41, "duration": 233, "velocity": 125}, {"time": 158243, "pitch": 41, "duration": 78, "velocity": 121}, {"time": 158402, "pitch": 41, "duration": 209, "velocity": 127}, {"time": 158721, "pitch": 41, "duration": 125, "velocity": 118}, {"time": 158880, "pitch": 36, "duration": 304, "velocity": 127}, {"time": 159198, "pitch": 41, "duration": 120, "velocity": 102}, {"time": 159358, "pitch": 34, "duration": 238, "velocity": 96}, {"time": 159676, "pitch": 41, "duration": 107, "velocity": 121}, {"time": 159835, "pitch": 43, "duration": 256, "velocity": 116}, {"time": 160161, "pitch": 41, "duration": 110, "velocity": 121}, {"time": 160323, "pitch": 43, "duration": 263, "velocity": 118}, {"time": 160642, "pitch": 41, "duration": 77, "velocity": 116}, {"time": 160801, "pitch": 37, "duration": 263, "velocity": 118}, {"time": 161119, "pitch": 38, "duration": 108, "velocity": 112}, {"time": 161279, "pitch": 34, "duration": 238, "velocity": 96}, {"time": 161597, "pitch": 41, "duration": 108, "velocity": 121}, {"time": 161756, "pitch": 43, "duration": 257, "velocity": 116}, {"time": 162082, "pitch": 41, "duration": 110, "velocity": 121}, {"time": 162245, "pitch": 43, "duration": 262, "velocity": 118}, {"time": 162563, "pitch": 41, "duration": 78, "velocity": 116}, {"time": 162722, "pitch": 37, "duration": 263, "velocity": 118}, {"time": 163041, "pitch": 38, "duration": 107, "velocity": 112}, {"time": 163200, "pitch": 39, "duration": 268, "velocity": 112}, {"time": 163518, "pitch": 39, "duration": 114, "velocity": 108}, {"time": 163677, "pitch": 39, "duration": 233, "velocity": 104}, {"time": 163996, "pitch": 39, "duration": 95, "velocity": 106}, {"time": 164155, "pitch": 39, "duration": 305, "velocity": 106}, {"time": 164481, "pitch": 39, "duration": 103, "velocity": 112}, {"time": 164643, "pitch": 39, "duration": 233, "velocity": 104}, {"time": 164962, "pitch": 39, "duration": 95, "velocity": 112}, {"time": 165121, "pitch": 36, "duration": 269, "velocity": 125}, {"time": 165439, "pitch": 36, "duration": 96, "velocity": 125}, {"time": 165598, "pitch": 36, "duration": 257, "velocity": 125}, {"time": 165917, "pitch": 36, "duration": 78, "velocity": 121}, {"time": 166076, "pitch": 41, "duration": 244, "velocity": 127}, {"time": 166402, "pitch": 41, "duration": 128, "velocity": 118}, {"time": 166564, "pitch": 36, "duration": 305, "velocity": 127}, {"time": 166883, "pitch": 41, "duration": 113, "velocity": 102}, {"time": 167042, "pitch": 34, "duration": 239, "velocity": 96}, {"time": 167360, "pitch": 41, "duration": 108, "velocity": 121}, {"time": 167520, "pitch": 43, "duration": 250, "velocity": 116}, {"time": 167838, "pitch": 41, "duration": 107, "velocity": 121}, {"time": 167997, "pitch": 43, "duration": 263, "velocity": 118}, {"time": 168316, "pitch": 41, "duration": 77, "velocity": 116}, {"time": 168475, "pitch": 37, "duration": 268, "velocity": 118}, {"time": 168800, "pitch": 38, "duration": 110, "velocity": 112}, {"time": 168963, "pitch": 34, "duration": 239, "velocity": 96}, {"time": 169282, "pitch": 41, "duration": 107, "velocity": 121}, {"time": 169441, "pitch": 43, "duration": 250, "velocity": 116}, {"time": 169759, "pitch": 41, "duration": 108, "velocity": 121}, {"time": 169918, "pitch": 43, "duration": 263, "velocity": 118}, {"time": 170237, "pitch": 41, "duration": 77, "velocity": 116}, {"time": 170396, "pitch": 37, "duration": 269, "velocity": 118}, {"time": 170721, "pitch": 38, "duration": 110, "velocity": 112}, {"time": 170884, "pitch": 39, "duration": 251, "velocity": 127}, {"time": 171203, "pitch": 39, "duration": 107, "velocity": 116}, {"time": 171362, "pitch": 39, "duration": 245, "velocity": 123}, {"time": 171680, "pitch": 39, "duration": 84, "velocity": 116}, {"time": 171839, "pitch": 40, "duration": 227, "velocity": 118}, {"time": 172158, "pitch": 40, "duration": 95, "velocity": 114}, {"time": 172317, "pitch": 40, "duration": 251, "velocity": 109}, {"time": 172635, "pitch": 40, "duration": 108, "velocity": 116}, {"time": 172795, "pitch": 41, "duration": 274, "velocity": 125}, {"time": 173120, "pitch": 41, "duration": 98, "velocity": 125}, {"time": 173283, "pitch": 41, "duration": 257, "velocity": 125}, {"time": 173601, "pitch": 41, "duration": 78, "velocity": 121}, {"time": 173761, "pitch": 41, "duration": 238, "velocity": 127}, {"time": 174079, "pitch": 41, "duration": 125, "velocity": 118}, {"time": 174238, "pitch": 36, "duration": 305, "velocity": 127}, {"time": 174557, "pitch": 41, "duration": 113, "velocity": 102}, {"time": 174716, "pitch": 36, "duration": 256, "velocity": 108}, {"time": 175041, "pitch": 36, "duration": 80, "velocity": 108}, {"time": 175204, "pitch": 36, "duration": 233, "velocity": 112}, {"time": 175522, "pitch": 36, "duration": 102, "velocity": 114}, {"time": 175682, "pitch": 36, "duration": 250, "velocity": 106}, {"time": 176000, "pitch": 36, "duration": 96, "velocity": 119}, {"time": 176159, "pitch": 36, "duration": 257, "velocity": 96}, {"time": 176478, "pitch": 36, "duration": 113, "velocity": 117}, {"time": 176637, "pitch": 41, "duration": 244, "velocity": 96}, {"time": 176962, "pitch": 41, "duration": 110, "velocity": 121}, {"time": 177125, "pitch": 41, "duration": 245, "velocity": 116}, {"time": 177444, "pitch": 41, "duration": 77, "velocity": 116}, {"time": 177603, "pitch": 46, "duration": 292, "velocity": 121}, {"time": 177921, "pitch": 46, "duration": 78, "velocity": 116}, {"time": 178080, "pitch": 46, "duration": 263, "velocity": 118}, {"time": 178399, "pitch": 41, "duration": 107, "velocity": 112}, {"time": 178558, "pitch": 39, "duration": 251, "velocity": 127}, {"time": 178876, "pitch": 39, "duration": 108, "velocity": 116}, {"time": 179036, "pitch": 39, "duration": 250, "velocity": 123}, {"time": 179361, "pitch": 39, "duration": 86, "velocity": 116}, {"time": 179524, "pitch": 39, "duration": 227, "velocity": 118}, {"time": 179842, "pitch": 39, "duration": 96, "velocity": 114}, {"time": 180002, "pitch": 39, "duration": 250, "velocity": 109}, {"time": 180320, "pitch": 39, "duration": 107, "velocity": 116}, {"time": 180479, "pitch": 48, "duration": 269, "velocity": 125}, {"time": 180798, "pitch": 48, "duration": 95, "velocity": 125}, {"time": 180957, "pitch": 46, "duration": 262, "velocity": 125}, {"time": 181282, "pitch": 46, "duration": 80, "velocity": 121}, {"time": 181445, "pitch": 45, "duration": 239, "velocity": 127}, {"time": 181763, "pitch": 45, "duration": 126, "velocity": 118}, {"time": 181923, "pitch": 43, "duration": 304, "velocity": 127}, {"time": 182241, "pitch": 43, "duration": 113, "velocity": 102}, {"time": 182400, "pitch": 34, "duration": 287, "velocity": 118}, {"time": 184640, "pitch": 41, "duration": 113, "velocity": 127}, {"time": 184799, "pitch": 41, "duration": 257, "velocity": 111}, {"time": 185117, "pitch": 46, "duration": 375, "velocity": 127}, {"time": 186242, "pitch": 41, "duration": 239, "velocity": 96}, {"time": 186561, "pitch": 48, "duration": 107, "velocity": 121}, {"time": 186720, "pitch": 50, "duration": 251, "velocity": 116}, {"time": 187038, "pitch": 48, "duration": 108, "velocity": 121}, {"time": 187198, "pitch": 50, "duration": 262, "velocity": 118}, {"time": 187516, "pitch": 48, "duration": 78, "velocity": 116}, {"time": 187675, "pitch": 50, "duration": 269, "velocity": 118}, {"time": 188001, "pitch": 48, "duration": 110, "velocity": 112}, {"time": 188164, "pitch": 36, "duration": 238, "velocity": 96}, {"time": 188482, "pitch": 43, "duration": 107, "velocity": 121}, {"time": 188641, "pitch": 45, "duration": 251, "velocity": 116}, {"time": 188960, "pitch": 46, "duration": 507, "velocity": 116}, {"time": 189437, "pitch": 43, "duration": 78, "velocity": 116}, {"time": 189596, "pitch": 45, "duration": 269, "velocity": 118}, {"time": 189922, "pitch": 43, "duration": 110, "velocity": 112}, {"time": 190085, "pitch": 41, "duration": 238, "velocity": 96}, {"time": 190403, "pitch": 48, "duration": 108, "velocity": 121}, {"time": 190562, "pitch": 50, "duration": 251, "velocity": 116}, {"time": 190881, "pitch": 48, "duration": 107, "velocity": 121}, {"time": 191040, "pitch": 50, "duration": 263, "velocity": 118}, {"time": 191358, "pitch": 48, "duration": 78, "velocity": 116}, {"time": 191518, "pitch": 50, "duration": 262, "velocity": 118}, {"time": 191836, "pitch": 48, "duration": 107, "velocity": 112}, {"time": 191995, "pitch": 55, "duration": 153, "velocity": 127}, {"time": 192158, "pitch": 53, "duration": 142, "velocity": 118}, {"time": 192321, "pitch": 52, "duration": 106, "velocity": 115}, {"time": 192483, "pitch": 51, "duration": 116, "velocity": 127}, {"time": 192643, "pitch": 50, "duration": 103, "velocity": 115}, {"time": 192802, "pitch": 48, "duration": 103, "velocity": 124}, {"time": 192961, "pitch": 46, "duration": 104, "velocity": 127}, {"time": 193120, "pitch": 45, "duration": 110, "velocity": 120}, {"time": 193279, "pitch": 43, "duration": 104, "velocity": 121}, {"time": 193439, "pitch": 41, "duration": 121, "velocity": 123}, {"time": 193598, "pitch": 40, "duration": 103, "velocity": 123}, {"time": 193757, "pitch": 39, "duration": 145, "velocity": 115}, {"time": 193916, "pitch": 41, "duration": 244, "velocity": 96}, {"time": 194242, "pitch": 48, "duration": 110, "velocity": 121}, {"time": 194405, "pitch": 50, "duration": 250, "velocity": 116}, {"time": 194723, "pitch": 48, "duration": 107, "velocity": 121}, {"time": 194882, "pitch": 50, "duration": 263, "velocity": 118}, {"time": 195201, "pitch": 48, "duration": 77, "velocity": 116}, {"time": 195360, "pitch": 50, "duration": 262, "velocity": 118}, {"time": 195678, "pitch": 48, "duration": 108, "velocity": 112}, {"time": 195837, "pitch": 36, "duration": 239, "velocity": 96}, {"time": 196156, "pitch": 43, "duration": 107, "velocity": 121}, {"time": 196315, "pitch": 45, "duration": 256, "velocity": 116}, {"time": 196641, "pitch": 46, "duration": 511, "velocity": 116}, {"time": 197122, "pitch": 43, "duration": 77, "velocity": 116}, {"time": 197281, "pitch": 45, "duration": 263, "velocity": 118}, {"time": 197599, "pitch": 43, "duration": 108, "velocity": 112}, {"time": 197758, "pitch": 38, "duration": 239, "velocity": 96}, {"time": 198077, "pitch": 45, "duration": 107, "velocity": 121}, {"time": 198236, "pitch": 47, "duration": 256, "velocity": 116}, {"time": 198562, "pitch": 45, "duration": 110, "velocity": 121}, {"time": 198724, "pitch": 47, "duration": 263, "velocity": 118}, {"time": 199043, "pitch": 45, "duration": 77, "velocity": 116}, {"time": 199202, "pitch": 47, "duration": 263, "velocity": 118}, {"time": 199520, "pitch": 45, "duration": 108, "velocity": 112}, {"time": 199680, "pitch": 43, "duration": 268, "velocity": 125}, {"time": 199998, "pitch": 43, "duration": 96, "velocity": 125}, {"time": 200157, "pitch": 43, "duration": 233, "velocity": 125}, {"time": 200476, "pitch": 43, "duration": 77, "velocity": 121}, {"time": 200635, "pitch": 43, "duration": 213, "velocity": 127}, {"time": 201601, "pitch": 36, "duration": 239, "velocity": 96}, {"time": 201919, "pitch": 43, "duration": 108, "velocity": 121}, {"time": 202078, "pitch": 45, "duration": 251, "velocity": 116}, {"time": 202397, "pitch": 43, "duration": 107, "velocity": 121}, {"time": 202556, "pitch": 45, "duration": 268, "velocity": 118}, {"time": 202881, "pitch": 43, "duration": 80, "velocity": 116}, {"time": 203044, "pitch": 39, "duration": 263, "velocity": 118}, {"time": 203363, "pitch": 40, "duration": 107, "velocity": 112}, {"time": 203522, "pitch": 36, "duration": 239, "velocity": 96}, {"time": 203840, "pitch": 43, "duration": 108, "velocity": 121}, {"time": 203999, "pitch": 45, "duration": 251, "velocity": 116}, {"time": 204318, "pitch": 43, "duration": 107, "velocity": 121}, {"time": 204477, "pitch": 45, "duration": 269, "velocity": 118}, {"time": 204803, "pitch": 43, "duration": 79, "velocity": 116}, {"time": 204965, "pitch": 39, "duration": 263, "velocity": 118}, {"time": 205284, "pitch": 40, "duration": 107, "velocity": 112}, {"time": 205443, "pitch": 41, "duration": 269, "velocity": 112}, {"time": 205761, "pitch": 41, "duration": 114, "velocity": 108}, {"time": 205921, "pitch": 41, "duration": 232, "velocity": 104}, {"time": 206239, "pitch": 41, "duration": 95, "velocity": 106}, {"time": 206398, "pitch": 41, "duration": 299, "velocity": 106}, {"time": 206717, "pitch": 41, "duration": 101, "velocity": 112}, {"time": 206876, "pitch": 41, "duration": 238, "velocity": 104}, {"time": 207201, "pitch": 41, "duration": 98, "velocity": 112}, {"time": 207364, "pitch": 38, "duration": 269, "velocity": 125}, {"time": 207682, "pitch": 38, "duration": 96, "velocity": 125}, {"time": 207842, "pitch": 38, "duration": 256, "velocity": 125}, {"time": 208160, "pitch": 38, "duration": 78, "velocity": 121}, {"time": 208319, "pitch": 43, "duration": 239, "velocity": 127}, {"time": 208638, "pitch": 43, "duration": 125, "velocity": 118}, {"time": 208797, "pitch": 38, "duration": 311, "velocity": 127}, {"time": 209122, "pitch": 43, "duration": 116, "velocity": 102}, {"time": 209285, "pitch": 36, "duration": 239, "velocity": 96}, {"time": 209604, "pitch": 43, "duration": 107, "velocity": 121}, {"time": 209763, "pitch": 45, "duration": 251, "velocity": 116}, {"time": 210081, "pitch": 43, "duration": 108, "velocity": 121}, {"time": 210240, "pitch": 45, "duration": 263, "velocity": 118}, {"time": 210559, "pitch": 43, "duration": 77, "velocity": 116}, {"time": 210718, "pitch": 39, "duration": 263, "velocity": 118}, {"time": 211036, "pitch": 40, "duration": 108, "velocity": 112}, {"time": 211196, "pitch": 36, "duration": 244, "velocity": 96}, {"time": 211521, "pitch": 43, "duration": 110, "velocity": 121}, {"time": 211684, "pitch": 45, "duration": 251, "velocity": 116}, {"time": 212002, "pitch": 43, "duration": 108, "velocity": 121}, {"time": 212161, "pitch": 45, "duration": 263, "velocity": 118}, {"time": 212480, "pitch": 43, "duration": 78, "velocity": 116}, {"time": 212639, "pitch": 39, "duration": 263, "velocity": 118}, {"time": 212958, "pitch": 40, "duration": 107, "velocity": 112}, {"time": 213117, "pitch": 41, "duration": 256, "velocity": 127}, {"time": 213442, "pitch": 41, "duration": 110, "velocity": 116}, {"time": 213605, "pitch": 41, "duration": 245, "velocity": 123}, {"time": 213923, "pitch": 41, "duration": 84, "velocity": 116}, {"time": 214083, "pitch": 42, "duration": 226, "velocity": 118}, {"time": 214401, "pitch": 42, "duration": 96, "velocity": 114}, {"time": 214560, "pitch": 42, "duration": 251, "velocity": 109}, {"time": 214879, "pitch": 42, "duration": 107, "velocity": 116}, {"time": 215038, "pitch": 43, "duration": 268, "velocity": 125}, {"time": 215356, "pitch": 43, "duration": 96, "velocity": 125}, {"time": 215515, "pitch": 43, "duration": 263, "velocity": 125}, {"time": 215841, "pitch": 43, "duration": 79, "velocity": 121}, {"time": 216004, "pitch": 43, "duration": 239, "velocity": 127}, {"time": 216322, "pitch": 43, "duration": 126, "velocity": 118}, {"time": 216481, "pitch": 38, "duration": 305, "velocity": 127}, {"time": 216800, "pitch": 43, "duration": 113, "velocity": 102}, {"time": 216959, "pitch": 38, "duration": 251, "velocity": 108}, {"time": 217277, "pitch": 38, "duration": 78, "velocity": 108}, {"time": 217437, "pitch": 38, "duration": 238, "velocity": 112}, {"time": 217762, "pitch": 38, "duration": 104, "velocity": 114}, {"time": 217925, "pitch": 38, "duration": 251, "velocity": 106}, {"time": 218243, "pitch": 38, "duration": 96, "velocity": 119}, {"time": 218402, "pitch": 38, "duration": 257, "velocity": 96}, {"time": 218721, "pitch": 38, "duration": 113, "velocity": 117}, {"time": 218880, "pitch": 43, "duration": 239, "velocity": 96}, {"time": 219198, "pitch": 43, "duration": 108, "velocity": 121}, {"time": 219358, "pitch": 43, "duration": 244, "velocity": 116}, {"time": 219676, "pitch": 43, "duration": 78, "velocity": 116}, {"time": 219835, "pitch": 48, "duration": 299, "velocity": 121}, {"time": 220161, "pitch": 48, "duration": 79, "velocity": 116}, {"time": 220324, "pitch": 48, "duration": 262, "velocity": 118}, {"time": 220642, "pitch": 43, "duration": 107, "velocity": 112}, {"time": 220801, "pitch": 41, "duration": 251, "velocity": 127}, {"time": 221120, "pitch": 41, "duration": 107, "velocity": 116}, {"time": 221279, "pitch": 41, "duration": 245, "velocity": 123}, {"time": 221597, "pitch": 41, "duration": 84, "velocity": 116}, {"time": 221756, "pitch": 41, "duration": 232, "velocity": 118}, {"time": 222082, "pitch": 41, "duration": 98, "velocity": 114}, {"time": 222245, "pitch": 41, "duration": 250, "velocity": 109}, {"time": 222563, "pitch": 41, "duration": 108, "velocity": 116}, {"time": 222722, "pitch": 50, "duration": 269, "velocity": 125}, {"time": 223041, "pitch": 50, "duration": 95, "velocity": 125}, {"time": 223200, "pitch": 48, "duration": 257, "velocity": 125}, {"time": 223518, "pitch": 48, "duration": 78, "velocity": 121}, {"time": 223678, "pitch": 47, "duration": 238, "velocity": 127}, {"time": 223996, "pitch": 47, "duration": 125, "velocity": 118}, {"time": 224155, "pitch": 45, "duration": 311, "velocity": 127}, {"time": 224481, "pitch": 45, "duration": 116, "velocity": 102}, {"time": 224643, "pitch": 36, "duration": 287, "velocity": 118}, {"time": 226883, "pitch": 43, "duration": 113, "velocity": 127}, {"time": 227042, "pitch": 43, "duration": 257, "velocity": 111}, {"time": 227361, "pitch": 48, "duration": 370, "velocity": 127}, {"time": 228475, "pitch": 55, "duration": 183, "velocity": 98}, {"time": 228638, "pitch": 53, "duration": 161, "velocity": 87}, {"time": 228800, "pitch": 52, "duration": 144, "velocity": 84}, {"time": 228963, "pitch": 51, "duration": 141, "velocity": 101}, {"time": 229122, "pitch": 50, "duration": 123, "velocity": 84}, {"time": 229282, "pitch": 48, "duration": 152, "velocity": 92}, {"time": 229441, "pitch": 46, "duration": 140, "velocity": 98}, {"time": 229600, "pitch": 45, "duration": 134, "velocity": 88}, {"time": 229759, "pitch": 43, "duration": 135, "velocity": 89}, {"time": 229918, "pitch": 41, "duration": 147, "velocity": 91}, {"time": 230078, "pitch": 40, "duration": 122, "velocity": 91}, {"time": 230237, "pitch": 39, "duration": 158, "velocity": 84}, {"time": 230396, "pitch": 36, "duration": 187, "velocity": 97}, {"time": 230717, "pitch": 39, "duration": 578, "velocity": 112}, {"time": 231199, "pitch": 36, "duration": 2981, "velocity": 127}, {"time": 983, "pitch": 40, "duration": 131, "velocity": 111}, {"time": 991, "pitch": 42, "duration": 159, "velocity": 111}, {"time": 995, "pitch": 38, "duration": 52, "velocity": 111}, {"time": 1031, "pitch": 44, "duration": 169, "velocity": 111}, {"time": 1087, "pitch": 45, "duration": 138, "velocity": 111}, {"time": 1133, "pitch": 47, "duration": 131, "velocity": 112}, {"time": 1169, "pitch": 49, "duration": 130, "velocity": 112}, {"time": 1205, "pitch": 50, "duration": 146, "velocity": 113}, {"time": 1236, "pitch": 52, "duration": 134, "velocity": 113}, {"time": 1272, "pitch": 54, "duration": 127, "velocity": 113}, {"time": 1307, "pitch": 56, "duration": 135, "velocity": 114}, {"time": 1347, "pitch": 57, "duration": 133, "velocity": 114}, {"time": 1383, "pitch": 59, "duration": 132, "velocity": 114}, {"time": 1418, "pitch": 61, "duration": 144, "velocity": 115}, {"time": 1458, "pitch": 62, "duration": 139, "velocity": 115}, {"time": 1492, "pitch": 64, "duration": 144, "velocity": 115}, {"time": 1535, "pitch": 66, "duration": 132, "velocity": 116}, {"time": 1573, "pitch": 68, "duration": 128, "velocity": 116}, {"time": 1620, "pitch": 69, "duration": 131, "velocity": 117}, {"time": 1659, "pitch": 71, "duration": 115, "velocity": 117}, {"time": 1697, "pitch": 73, "duration": 105, "velocity": 117}, {"time": 1736, "pitch": 74, "duration": 89, "velocity": 118}, {"time": 1771, "pitch": 76, "duration": 77, "velocity": 118}, {"time": 1806, "pitch": 78, "duration": 107, "velocity": 118}, {"time": 1848, "pitch": 80, "duration": 46, "velocity": 119}, {"time": 1886, "pitch": 81, "duration": 51, "velocity": 119}, {"time": 1922, "pitch": 75, "duration": 1789, "velocity": 104}, {"time": 1922, "pitch": 79, "duration": 1815, "velocity": 102}, {"time": 1922, "pitch": 82, "duration": 11397, "velocity": 97}, {"time": 3843, "pitch": 74, "duration": 1805, "velocity": 105}, {"time": 3843, "pitch": 77, "duration": 1820, "velocity": 112}, {"time": 5764, "pitch": 75, "duration": 1747, "velocity": 104}, {"time": 5764, "pitch": 79, "duration": 1752, "velocity": 100}, {"time": 7675, "pitch": 74, "duration": 1737, "velocity": 100}, {"time": 7675, "pitch": 77, "duration": 1727, "velocity": 101}, {"time": 8667, "pitch": 40, "duration": 128, "velocity": 111}, {"time": 8675, "pitch": 42, "duration": 155, "velocity": 111}, {"time": 8679, "pitch": 38, "duration": 50, "velocity": 111}, {"time": 8713, "pitch": 44, "duration": 167, "velocity": 111}, {"time": 8768, "pitch": 45, "duration": 135, "velocity": 111}, {"time": 8814, "pitch": 47, "duration": 127, "velocity": 112}, {"time": 8849, "pitch": 49, "duration": 127, "velocity": 112}, {"time": 8884, "pitch": 50, "duration": 143, "velocity": 113}, {"time": 8914, "pitch": 52, "duration": 132, "velocity": 113}, {"time": 8949, "pitch": 54, "duration": 125, "velocity": 113}, {"time": 8984, "pitch": 56, "duration": 131, "velocity": 114}, {"time": 9023, "pitch": 57, "duration": 131, "velocity": 114}, {"time": 9058, "pitch": 59, "duration": 131, "velocity": 114}, {"time": 9093, "pitch": 61, "duration": 143, "velocity": 115}, {"time": 9131, "pitch": 62, "duration": 140, "velocity": 115}, {"time": 9166, "pitch": 64, "duration": 143, "velocity": 115}, {"time": 9209, "pitch": 66, "duration": 131, "velocity": 116}, {"time": 9247, "pitch": 68, "duration": 128, "velocity": 116}, {"time": 9294, "pitch": 69, "duration": 131, "velocity": 117}, {"time": 9332, "pitch": 71, "duration": 116, "velocity": 117}, {"time": 9371, "pitch": 73, "duration": 105, "velocity": 117}, {"time": 9410, "pitch": 74, "duration": 2, "velocity": 118}, {"time": 9445, "pitch": 76, "duration": 76, "velocity": 118}, {"time": 9480, "pitch": 78, "duration": 107, "velocity": 118}, {"time": 9521, "pitch": 80, "duration": 47, "velocity": 119}, {"time": 9560, "pitch": 81, "duration": 51, "velocity": 119}, {"time": 9596, "pitch": 75, "duration": 1802, "velocity": 112}, {"time": 9596, "pitch": 79, "duration": 1812, "velocity": 104}, {"time": 11517, "pitch": 74, "duration": 1827, "velocity": 102}, {"time": 11517, "pitch": 77, "duration": 1797, "velocity": 111}, {"time": 13438, "pitch": 72, "duration": 1787, "velocity": 111}, {"time": 13438, "pitch": 76, "duration": 1792, "velocity": 111}, {"time": 13438, "pitch": 79, "duration": 1797, "velocity": 111}, {"time": 15359, "pitch": 72, "duration": 991, "velocity": 82}, {"time": 15359, "pitch": 75, "duration": 971, "velocity": 114}, {"time": 15359, "pitch": 77, "duration": 986, "velocity": 104}, {"time": 15359, "pitch": 81, "duration": 1031, "velocity": 109}, {"time": 17280, "pitch": 70, "duration": 3683, "velocity": 105}, {"time": 17280, "pitch": 70, "duration": 3683, "velocity": 109}, {"time": 17280, "pitch": 74, "duration": 3644, "velocity": 104}, {"time": 17280, "pitch": 77, "duration": 3644, "velocity": 116}, {"time": 21123, "pitch": 67, "duration": 1819, "velocity": 104}, {"time": 21123, "pitch": 70, "duration": 1804, "velocity": 94}, {"time": 21123, "pitch": 75, "duration": 1819, "velocity": 119}, {"time": 23044, "pitch": 67, "duration": 900, "velocity": 117}, {"time": 23044, "pitch": 72, "duration": 900, "velocity": 109}, {"time": 23044, "pitch": 75, "duration": 905, "velocity": 90}, {"time": 23999, "pitch": 69, "duration": 834, "velocity": 109}, {"time": 23999, "pitch": 72, "duration": 793, "velocity": 82}, {"time": 23999, "pitch": 75, "duration": 773, "velocity": 114}, {"time": 23999, "pitch": 77, "duration": 788, "velocity": 104}, {"time": 24965, "pitch": 70, "duration": 3672, "velocity": 105}, {"time": 24965, "pitch": 70, "duration": 3672, "velocity": 109}, {"time": 24965, "pitch": 74, "duration": 3632, "velocity": 104}, {"time": 24965, "pitch": 77, "duration": 3632, "velocity": 116}, {"time": 28796, "pitch": 67, "duration": 897, "velocity": 112}, {"time": 28796, "pitch": 70, "duration": 892, "velocity": 118}, {"time": 28796, "pitch": 75, "duration": 897, "velocity": 107}, {"time": 29762, "pitch": 67, "duration": 886, "velocity": 112}, {"time": 29762, "pitch": 70, "duration": 881, "velocity": 118}, {"time": 29762, "pitch": 76, "duration": 886, "velocity": 107}, {"time": 30718, "pitch": 69, "duration": 1806, "velocity": 98}, {"time": 30718, "pitch": 72, "duration": 1776, "velocity": 97}, {"time": 30718, "pitch": 75, "duration": 1786, "velocity": 106}, {"time": 30718, "pitch": 77, "duration": 1796, "velocity": 109}, {"time": 32639, "pitch": 67, "duration": 1866, "velocity": 117}, {"time": 32639, "pitch": 72, "duration": 1866, "velocity": 109}, {"time": 32639, "pitch": 75, "duration": 1871, "velocity": 90}, {"time": 34560, "pitch": 65, "duration": 831, "velocity": 109}, {"time": 34560, "pitch": 69, "duration": 841, "velocity": 98}, {"time": 34560, "pitch": 72, "duration": 811, "velocity": 97}, {"time": 34560, "pitch": 75, "duration": 821, "velocity": 106}, {"time": 35515, "pitch": 65, "duration": 911, "velocity": 114}, {"time": 35515, "pitch": 70, "duration": 941, "velocity": 101}, {"time": 35515, "pitch": 74, "duration": 936, "velocity": 107}, {"time": 36481, "pitch": 67, "duration": 1822, "velocity": 104}, {"time": 36481, "pitch": 70, "duration": 1807, "velocity": 94}, {"time": 36481, "pitch": 75, "duration": 1822, "velocity": 119}, {"time": 38402, "pitch": 67, "duration": 901, "velocity": 117}, {"time": 38402, "pitch": 72, "duration": 901, "velocity": 109}, {"time": 38402, "pitch": 75, "duration": 906, "velocity": 90}, {"time": 39357, "pitch": 65, "duration": 788, "velocity": 104}, {"time": 39357, "pitch": 69, "duration": 834, "velocity": 109}, {"time": 39357, "pitch": 72, "duration": 793, "velocity": 82}, {"time": 39357, "pitch": 75, "duration": 773, "velocity": 114}, {"time": 40323, "pitch": 65, "duration": 279, "velocity": 121}, {"time": 40323, "pitch": 70, "duration": 299, "velocity": 116}, {"time": 40323, "pitch": 74, "duration": 284, "velocity": 109}, {"time": 42563, "pitch": 65, "duration": 383, "velocity": 114}, {"time": 42563, "pitch": 69, "duration": 348, "velocity": 112}, {"time": 42563, "pitch": 72, "duration": 353, "velocity": 105}, {"time": 43040, "pitch": 65, "duration": 388, "velocity": 112}, {"time": 43040, "pitch": 70, "duration": 373, "velocity": 114}, {"time": 43040, "pitch": 74, "duration": 393, "velocity": 107}, {"time": 43690, "pitch": 62, "duration": 139, "velocity": 109}, {"time": 43725, "pitch": 64, "duration": 143, "velocity": 109}, {"time": 43768, "pitch": 66, "duration": 131, "velocity": 110}, {"time": 43805, "pitch": 68, "duration": 129, "velocity": 110}, {"time": 43852, "pitch": 69, "duration": 132, "velocity": 111}, {"time": 43891, "pitch": 71, "duration": 115, "velocity": 112}, {"time": 43930, "pitch": 73, "duration": 104, "velocity": 112}, {"time": 43969, "pitch": 74, "duration": 88, "velocity": 113}, {"time": 44003, "pitch": 76, "duration": 77, "velocity": 113}, {"time": 44038, "pitch": 78, "duration": 108, "velocity": 114}, {"time": 44080, "pitch": 80, "duration": 47, "velocity": 114}, {"time": 44119, "pitch": 81, "duration": 51, "velocity": 115}, {"time": 44155, "pitch": 75, "duration": 1791, "velocity": 104}, {"time": 44155, "pitch": 79, "duration": 1816, "velocity": 102}, {"time": 44155, "pitch": 82, "duration": 11407, "velocity": 97}, {"time": 46076, "pitch": 74, "duration": 1807, "velocity": 105}, {"time": 46076, "pitch": 77, "duration": 1821, "velocity": 112}, {"time": 47997, "pitch": 75, "duration": 1757, "velocity": 104}, {"time": 47997, "pitch": 79, "duration": 1762, "velocity": 100}, {"time": 49918, "pitch": 74, "duration": 1737, "velocity": 100}, {"time": 49918, "pitch": 77, "duration": 1727, "velocity": 101}, {"time": 51839, "pitch": 75, "duration": 1802, "velocity": 112}, {"time": 51839, "pitch": 79, "duration": 1812, "velocity": 104}, {"time": 53760, "pitch": 74, "duration": 1827, "velocity": 102}, {"time": 53760, "pitch": 77, "duration": 1797, "velocity": 111}, {"time": 55681, "pitch": 72, "duration": 1787, "velocity": 111}, {"time": 55681, "pitch": 76, "duration": 1792, "velocity": 111}, {"time": 55681, "pitch": 79, "duration": 1797, "velocity": 111}, {"time": 57603, "pitch": 72, "duration": 980, "velocity": 82}, {"time": 57603, "pitch": 75, "duration": 960, "velocity": 114}, {"time": 57603, "pitch": 77, "duration": 975, "velocity": 104}, {"time": 57603, "pitch": 81, "duration": 1019, "velocity": 109}, {"time": 59524, "pitch": 70, "duration": 3672, "velocity": 105}, {"time": 59524, "pitch": 70, "duration": 3672, "velocity": 109}, {"time": 59524, "pitch": 74, "duration": 3632, "velocity": 104}, {"time": 59524, "pitch": 77, "duration": 3632, "velocity": 116}, {"time": 63355, "pitch": 67, "duration": 1822, "velocity": 104}, {"time": 63355, "pitch": 70, "duration": 1807, "velocity": 94}, {"time": 63355, "pitch": 75, "duration": 1822, "velocity": 119}, {"time": 65276, "pitch": 67, "duration": 911, "velocity": 117}, {"time": 65276, "pitch": 72, "duration": 911, "velocity": 109}, {"time": 65276, "pitch": 75, "duration": 916, "velocity": 90}, {"time": 66242, "pitch": 69, "duration": 826, "velocity": 109}, {"time": 66242, "pitch": 72, "duration": 786, "velocity": 82}, {"time": 66242, "pitch": 75, "duration": 766, "velocity": 114}, {"time": 66242, "pitch": 77, "duration": 781, "velocity": 104}, {"time": 67197, "pitch": 70, "duration": 3683, "velocity": 105}, {"time": 67197, "pitch": 70, "duration": 3683, "velocity": 109}, {"time": 67197, "pitch": 74, "duration": 3644, "velocity": 104}, {"time": 67197, "pitch": 77, "duration": 3644, "velocity": 116}, {"time": 71040, "pitch": 67, "duration": 885, "velocity": 112}, {"time": 71040, "pitch": 70, "duration": 880, "velocity": 118}, {"time": 71040, "pitch": 75, "duration": 885, "velocity": 107}, {"time": 71995, "pitch": 67, "duration": 896, "velocity": 112}, {"time": 71995, "pitch": 70, "duration": 891, "velocity": 118}, {"time": 71995, "pitch": 76, "duration": 896, "velocity": 107}, {"time": 72961, "pitch": 69, "duration": 1806, "velocity": 98}, {"time": 72961, "pitch": 72, "duration": 1777, "velocity": 97}, {"time": 72961, "pitch": 75, "duration": 1787, "velocity": 106}, {"time": 72961, "pitch": 77, "duration": 1796, "velocity": 109}, {"time": 74882, "pitch": 67, "duration": 1865, "velocity": 117}, {"time": 74882, "pitch": 72, "duration": 1865, "velocity": 109}, {"time": 74882, "pitch": 75, "duration": 1870, "velocity": 90}, {"time": 76803, "pitch": 65, "duration": 831, "velocity": 109}, {"time": 76803, "pitch": 69, "duration": 841, "velocity": 98}, {"time": 76803, "pitch": 72, "duration": 811, "velocity": 97}, {"time": 76803, "pitch": 75, "duration": 821, "velocity": 106}, {"time": 77758, "pitch": 65, "duration": 910, "velocity": 114}, {"time": 77758, "pitch": 70, "duration": 941, "velocity": 101}, {"time": 77758, "pitch": 74, "duration": 936, "velocity": 107}, {"time": 78724, "pitch": 67, "duration": 1820, "velocity": 104}, {"time": 78724, "pitch": 70, "duration": 1804, "velocity": 94}, {"time": 78724, "pitch": 75, "duration": 1820, "velocity": 119}, {"time": 80645, "pitch": 67, "duration": 901, "velocity": 117}, {"time": 80645, "pitch": 72, "duration": 901, "velocity": 109}, {"time": 80645, "pitch": 75, "duration": 906, "velocity": 90}, {"time": 81600, "pitch": 65, "duration": 782, "velocity": 104}, {"time": 81600, "pitch": 69, "duration": 826, "velocity": 109}, {"time": 81600, "pitch": 72, "duration": 787, "velocity": 82}, {"time": 81600, "pitch": 75, "duration": 767, "velocity": 114}, {"time": 82556, "pitch": 65, "duration": 285, "velocity": 121}, {"time": 82556, "pitch": 70, "duration": 305, "velocity": 116}, {"time": 82556, "pitch": 74, "duration": 290, "velocity": 109}, {"time": 84802, "pitch": 65, "duration": 387, "velocity": 114}, {"time": 84802, "pitch": 69, "duration": 352, "velocity": 112}, {"time": 84802, "pitch": 72, "duration": 357, "velocity": 105}, {"time": 85283, "pitch": 65, "duration": 389, "velocity": 112}, {"time": 85283, "pitch": 70, "duration": 374, "velocity": 114}, {"time": 85283, "pitch": 74, "duration": 393, "velocity": 107}, {"time": 85933, "pitch": 64, "duration": 140, "velocity": 109}, {"time": 85968, "pitch": 66, "duration": 143, "velocity": 109}, {"time": 86011, "pitch": 68, "duration": 131, "velocity": 110}, {"time": 86049, "pitch": 70, "duration": 128, "velocity": 110}, {"time": 86095, "pitch": 71, "duration": 132, "velocity": 111}, {"time": 86134, "pitch": 73, "duration": 116, "velocity": 112}, {"time": 86173, "pitch": 75, "duration": 104, "velocity": 112}, {"time": 86212, "pitch": 76, "duration": 88, "velocity": 113}, {"time": 86247, "pitch": 78, "duration": 76, "velocity": 113}, {"time": 86281, "pitch": 80, "duration": 108, "velocity": 114}, {"time": 86323, "pitch": 82, "duration": 47, "velocity": 114}, {"time": 86362, "pitch": 83, "duration": 51, "velocity": 115}, {"time": 86398, "pitch": 77, "duration": 1792, "velocity": 104}, {"time": 86398, "pitch": 81, "duration": 1817, "velocity": 102}, {"time": 86398, "pitch": 84, "duration": 11405, "velocity": 97}, {"time": 88319, "pitch": 76, "duration": 1807, "velocity": 105}, {"time": 88319, "pitch": 79, "duration": 1822, "velocity": 112}, {"time": 90240, "pitch": 77, "duration": 1757, "velocity": 104}, {"time": 90240, "pitch": 81, "duration": 1762, "velocity": 100}, {"time": 92161, "pitch": 76, "duration": 1737, "velocity": 100}, {"time": 92161, "pitch": 79, "duration": 1727, "velocity": 101}, {"time": 94082, "pitch": 77, "duration": 1799, "velocity": 112}, {"time": 94082, "pitch": 81, "duration": 1810, "velocity": 104}, {"time": 96003, "pitch": 76, "duration": 1825, "velocity": 102}, {"time": 96003, "pitch": 79, "duration": 1794, "velocity": 111}, {"time": 97925, "pitch": 74, "duration": 1776, "velocity": 111}, {"time": 97925, "pitch": 78, "duration": 1781, "velocity": 111}, {"time": 97925, "pitch": 81, "duration": 1786, "velocity": 111}, {"time": 99835, "pitch": 74, "duration": 1683, "velocity": 82}, {"time": 99835, "pitch": 77, "duration": 1663, "velocity": 114}, {"time": 99835, "pitch": 79, "duration": 1678, "velocity": 104}, {"time": 99835, "pitch": 83, "duration": 1723, "velocity": 109}, {"time": 101756, "pitch": 75, "duration": 1792, "velocity": 104}, {"time": 101756, "pitch": 79, "duration": 1817, "velocity": 102}, {"time": 101756, "pitch": 82, "duration": 11407, "velocity": 97}, {"time": 103677, "pitch": 74, "duration": 1807, "velocity": 105}, {"time": 103677, "pitch": 77, "duration": 1822, "velocity": 112}, {"time": 105598, "pitch": 75, "duration": 1757, "velocity": 104}, {"time": 105598, "pitch": 79, "duration": 1762, "velocity": 100}, {"time": 107519, "pitch": 74, "duration": 1738, "velocity": 100}, {"time": 107519, "pitch": 77, "duration": 1728, "velocity": 101}, {"time": 108501, "pitch": 40, "duration": 131, "velocity": 111}, {"time": 108509, "pitch": 42, "duration": 159, "velocity": 111}, {"time": 108513, "pitch": 38, "duration": 52, "velocity": 111}, {"time": 108549, "pitch": 44, "duration": 170, "velocity": 111}, {"time": 108605, "pitch": 45, "duration": 138, "velocity": 111}, {"time": 108652, "pitch": 47, "duration": 130, "velocity": 112}, {"time": 108687, "pitch": 49, "duration": 131, "velocity": 112}, {"time": 108723, "pitch": 50, "duration": 146, "velocity": 113}, {"time": 108754, "pitch": 52, "duration": 135, "velocity": 113}, {"time": 108790, "pitch": 54, "duration": 127, "velocity": 113}, {"time": 108826, "pitch": 56, "duration": 134, "velocity": 114}, {"time": 108865, "pitch": 57, "duration": 134, "velocity": 114}, {"time": 108901, "pitch": 59, "duration": 133, "velocity": 114}, {"time": 108937, "pitch": 61, "duration": 143, "velocity": 115}, {"time": 108976, "pitch": 62, "duration": 139, "velocity": 115}, {"time": 109011, "pitch": 64, "duration": 143, "velocity": 115}, {"time": 109054, "pitch": 66, "duration": 131, "velocity": 116}, {"time": 109091, "pitch": 68, "duration": 129, "velocity": 116}, {"time": 109138, "pitch": 69, "duration": 131, "velocity": 117}, {"time": 109177, "pitch": 71, "duration": 115, "velocity": 117}, {"time": 109216, "pitch": 73, "duration": 104, "velocity": 117}, {"time": 109255, "pitch": 74, "duration": 2, "velocity": 118}, {"time": 109289, "pitch": 76, "duration": 77, "velocity": 118}, {"time": 109324, "pitch": 78, "duration": 108, "velocity": 118}, {"time": 109366, "pitch": 80, "duration": 47, "velocity": 119}, {"time": 109405, "pitch": 81, "duration": 51, "velocity": 119}, {"time": 109441, "pitch": 75, "duration": 1801, "velocity": 112}, {"time": 109441, "pitch": 79, "duration": 1811, "velocity": 104}, {"time": 111362, "pitch": 74, "duration": 1826, "velocity": 102}, {"time": 111362, "pitch": 77, "duration": 1796, "velocity": 111}, {"time": 113283, "pitch": 72, "duration": 1784, "velocity": 111}, {"time": 113283, "pitch": 76, "duration": 1789, "velocity": 111}, {"time": 113283, "pitch": 79, "duration": 1794, "velocity": 111}, {"time": 115204, "pitch": 72, "duration": 980, "velocity": 82}, {"time": 115204, "pitch": 75, "duration": 960, "velocity": 114}, {"time": 115204, "pitch": 77, "duration": 975, "velocity": 104}, {"time": 115204, "pitch": 81, "duration": 1020, "velocity": 109}, {"time": 117125, "pitch": 70, "duration": 3672, "velocity": 105}, {"time": 117125, "pitch": 70, "duration": 3672, "velocity": 109}, {"time": 117125, "pitch": 74, "duration": 3633, "velocity": 104}, {"time": 117125, "pitch": 77, "duration": 3633, "velocity": 116}, {"time": 120957, "pitch": 67, "duration": 1821, "velocity": 104}, {"time": 120957, "pitch": 70, "duration": 1806, "velocity": 94}, {"time": 120957, "pitch": 75, "duration": 1821, "velocity": 119}, {"time": 122878, "pitch": 67, "duration": 910, "velocity": 117}, {"time": 122878, "pitch": 72, "duration": 910, "velocity": 109}, {"time": 122878, "pitch": 75, "duration": 915, "velocity": 90}, {"time": 123844, "pitch": 69, "duration": 825, "velocity": 109}, {"time": 123844, "pitch": 72, "duration": 786, "velocity": 82}, {"time": 123844, "pitch": 75, "duration": 766, "velocity": 114}, {"time": 123844, "pitch": 77, "duration": 781, "velocity": 104}, {"time": 124799, "pitch": 70, "duration": 3683, "velocity": 105}, {"time": 124799, "pitch": 70, "duration": 3683, "velocity": 109}, {"time": 124799, "pitch": 74, "duration": 3643, "velocity": 104}, {"time": 124799, "pitch": 77, "duration": 3643, "velocity": 116}, {"time": 128641, "pitch": 67, "duration": 886, "velocity": 112}, {"time": 128641, "pitch": 70, "duration": 881, "velocity": 118}, {"time": 128641, "pitch": 75, "duration": 886, "velocity": 107}, {"time": 129596, "pitch": 67, "duration": 897, "velocity": 112}, {"time": 129596, "pitch": 70, "duration": 892, "velocity": 118}, {"time": 129596, "pitch": 76, "duration": 897, "velocity": 107}, {"time": 130562, "pitch": 69, "duration": 1804, "velocity": 98}, {"time": 130562, "pitch": 72, "duration": 1774, "velocity": 97}, {"time": 130562, "pitch": 75, "duration": 1784, "velocity": 106}, {"time": 130562, "pitch": 77, "duration": 1794, "velocity": 109}, {"time": 132483, "pitch": 67, "duration": 1866, "velocity": 117}, {"time": 132483, "pitch": 72, "duration": 1866, "velocity": 109}, {"time": 132483, "pitch": 75, "duration": 1871, "velocity": 90}, {"time": 134404, "pitch": 65, "duration": 831, "velocity": 109}, {"time": 134404, "pitch": 69, "duration": 841, "velocity": 98}, {"time": 134404, "pitch": 72, "duration": 811, "velocity": 97}, {"time": 134404, "pitch": 75, "duration": 821, "velocity": 106}, {"time": 135360, "pitch": 65, "duration": 900, "velocity": 114}, {"time": 135360, "pitch": 70, "duration": 930, "velocity": 101}, {"time": 135360, "pitch": 74, "duration": 925, "velocity": 107}, {"time": 136315, "pitch": 67, "duration": 1821, "velocity": 104}, {"time": 136315, "pitch": 70, "duration": 1807, "velocity": 94}, {"time": 136315, "pitch": 75, "duration": 1821, "velocity": 119}, {"time": 138236, "pitch": 67, "duration": 911, "velocity": 117}, {"time": 138236, "pitch": 72, "duration": 911, "velocity": 109}, {"time": 138236, "pitch": 75, "duration": 916, "velocity": 90}, {"time": 139202, "pitch": 65, "duration": 781, "velocity": 104}, {"time": 139202, "pitch": 69, "duration": 826, "velocity": 109}, {"time": 139202, "pitch": 72, "duration": 786, "velocity": 82}, {"time": 139202, "pitch": 75, "duration": 766, "velocity": 114}, {"time": 140157, "pitch": 65, "duration": 279, "velocity": 121}, {"time": 140157, "pitch": 70, "duration": 299, "velocity": 116}, {"time": 140157, "pitch": 74, "duration": 284, "velocity": 109}, {"time": 142397, "pitch": 65, "duration": 388, "velocity": 114}, {"time": 142397, "pitch": 69, "duration": 352, "velocity": 112}, {"time": 142397, "pitch": 72, "duration": 357, "velocity": 105}, {"time": 142881, "pitch": 65, "duration": 392, "velocity": 112}, {"time": 142881, "pitch": 70, "duration": 377, "velocity": 114}, {"time": 142881, "pitch": 74, "duration": 397, "velocity": 107}, {"time": 143535, "pitch": 62, "duration": 139, "velocity": 109}, {"time": 143569, "pitch": 64, "duration": 144, "velocity": 109}, {"time": 143612, "pitch": 66, "duration": 132, "velocity": 110}, {"time": 143650, "pitch": 68, "duration": 128, "velocity": 110}, {"time": 143697, "pitch": 69, "duration": 131, "velocity": 111}, {"time": 143736, "pitch": 71, "duration": 115, "velocity": 112}, {"time": 143774, "pitch": 73, "duration": 105, "velocity": 112}, {"time": 143813, "pitch": 74, "duration": 89, "velocity": 113}, {"time": 143848, "pitch": 76, "duration": 77, "velocity": 113}, {"time": 143883, "pitch": 78, "duration": 107, "velocity": 114}, {"time": 143925, "pitch": 80, "duration": 46, "velocity": 114}, {"time": 143963, "pitch": 81, "duration": 51, "velocity": 115}, {"time": 143999, "pitch": 75, "duration": 1792, "velocity": 104}, {"time": 143999, "pitch": 79, "duration": 1817, "velocity": 102}, {"time": 143999, "pitch": 82, "duration": 11397, "velocity": 97}, {"time": 145920, "pitch": 74, "duration": 1807, "velocity": 105}, {"time": 145920, "pitch": 77, "duration": 1822, "velocity": 112}, {"time": 147842, "pitch": 75, "duration": 1756, "velocity": 104}, {"time": 147842, "pitch": 79, "duration": 1761, "velocity": 100}, {"time": 149763, "pitch": 74, "duration": 1733, "velocity": 100}, {"time": 149763, "pitch": 77, "duration": 1722, "velocity": 101}, {"time": 151684, "pitch": 75, "duration": 1799, "velocity": 112}, {"time": 151684, "pitch": 79, "duration": 1809, "velocity": 104}, {"time": 153605, "pitch": 74, "duration": 1816, "velocity": 102}, {"time": 153605, "pitch": 77, "duration": 1786, "velocity": 111}, {"time": 155515, "pitch": 72, "duration": 1787, "velocity": 111}, {"time": 155515, "pitch": 76, "duration": 1792, "velocity": 111}, {"time": 155515, "pitch": 79, "duration": 1797, "velocity": 111}, {"time": 157436, "pitch": 72, "duration": 991, "velocity": 82}, {"time": 157436, "pitch": 75, "duration": 971, "velocity": 114}, {"time": 157436, "pitch": 77, "duration": 986, "velocity": 104}, {"time": 157436, "pitch": 81, "duration": 1031, "velocity": 109}, {"time": 159358, "pitch": 70, "duration": 3683, "velocity": 105}, {"time": 159358, "pitch": 70, "duration": 3683, "velocity": 109}, {"time": 159358, "pitch": 74, "duration": 3643, "velocity": 104}, {"time": 159358, "pitch": 77, "duration": 3643, "velocity": 116}, {"time": 163200, "pitch": 67, "duration": 1821, "velocity": 104}, {"time": 163200, "pitch": 70, "duration": 1806, "velocity": 94}, {"time": 163200, "pitch": 75, "duration": 1821, "velocity": 119}, {"time": 165121, "pitch": 67, "duration": 900, "velocity": 117}, {"time": 165121, "pitch": 72, "duration": 900, "velocity": 109}, {"time": 165121, "pitch": 75, "duration": 905, "velocity": 90}, {"time": 166076, "pitch": 69, "duration": 837, "velocity": 109}, {"time": 166076, "pitch": 72, "duration": 797, "velocity": 82}, {"time": 166076, "pitch": 75, "duration": 777, "velocity": 114}, {"time": 166076, "pitch": 77, "duration": 792, "velocity": 104}, {"time": 167042, "pitch": 70, "duration": 3679, "velocity": 105}, {"time": 167042, "pitch": 70, "duration": 3679, "velocity": 109}, {"time": 167042, "pitch": 74, "duration": 3639, "velocity": 104}, {"time": 167042, "pitch": 77, "duration": 3639, "velocity": 116}, {"time": 170884, "pitch": 67, "duration": 886, "velocity": 112}, {"time": 170884, "pitch": 70, "duration": 881, "velocity": 118}, {"time": 170884, "pitch": 75, "duration": 886, "velocity": 107}, {"time": 171839, "pitch": 67, "duration": 886, "velocity": 112}, {"time": 171839, "pitch": 70, "duration": 881, "velocity": 118}, {"time": 171839, "pitch": 76, "duration": 886, "velocity": 107}, {"time": 172795, "pitch": 69, "duration": 1806, "velocity": 98}, {"time": 172795, "pitch": 72, "duration": 1777, "velocity": 97}, {"time": 172795, "pitch": 75, "duration": 1786, "velocity": 106}, {"time": 172795, "pitch": 77, "duration": 1796, "velocity": 109}, {"time": 174716, "pitch": 67, "duration": 1866, "velocity": 117}, {"time": 174716, "pitch": 72, "duration": 1866, "velocity": 109}, {"time": 174716, "pitch": 75, "duration": 1871, "velocity": 90}, {"time": 176637, "pitch": 65, "duration": 841, "velocity": 109}, {"time": 176637, "pitch": 69, "duration": 851, "velocity": 98}, {"time": 176637, "pitch": 72, "duration": 822, "velocity": 97}, {"time": 176637, "pitch": 75, "duration": 831, "velocity": 106}, {"time": 177603, "pitch": 65, "duration": 900, "velocity": 114}, {"time": 177603, "pitch": 70, "duration": 930, "velocity": 101}, {"time": 177603, "pitch": 74, "duration": 925, "velocity": 107}, {"time": 178558, "pitch": 67, "duration": 1822, "velocity": 104}, {"time": 178558, "pitch": 70, "duration": 1807, "velocity": 94}, {"time": 178558, "pitch": 75, "duration": 1822, "velocity": 119}, {"time": 180479, "pitch": 67, "duration": 910, "velocity": 117}, {"time": 180479, "pitch": 72, "duration": 910, "velocity": 109}, {"time": 180479, "pitch": 75, "duration": 915, "velocity": 90}, {"time": 181445, "pitch": 65, "duration": 781, "velocity": 104}, {"time": 181445, "pitch": 69, "duration": 826, "velocity": 109}, {"time": 181445, "pitch": 72, "duration": 786, "velocity": 82}, {"time": 181445, "pitch": 75, "duration": 766, "velocity": 114}, {"time": 182400, "pitch": 65, "duration": 279, "velocity": 121}, {"time": 182400, "pitch": 70, "duration": 299, "velocity": 116}, {"time": 182400, "pitch": 74, "duration": 284, "velocity": 109}, {"time": 184640, "pitch": 65, "duration": 383, "velocity": 114}, {"time": 184640, "pitch": 69, "duration": 348, "velocity": 112}, {"time": 184640, "pitch": 72, "duration": 353, "velocity": 105}, {"time": 185117, "pitch": 65, "duration": 394, "velocity": 112}, {"time": 185117, "pitch": 70, "duration": 378, "velocity": 114}, {"time": 185117, "pitch": 74, "duration": 399, "velocity": 107}, {"time": 185778, "pitch": 64, "duration": 139, "velocity": 109}, {"time": 185813, "pitch": 66, "duration": 143, "velocity": 109}, {"time": 185855, "pitch": 68, "duration": 132, "velocity": 110}, {"time": 185893, "pitch": 70, "duration": 129, "velocity": 110}, {"time": 185940, "pitch": 71, "duration": 131, "velocity": 111}, {"time": 185979, "pitch": 73, "duration": 115, "velocity": 112}, {"time": 186018, "pitch": 75, "duration": 104, "velocity": 112}, {"time": 186056, "pitch": 76, "duration": 89, "velocity": 113}, {"time": 186091, "pitch": 78, "duration": 77, "velocity": 113}, {"time": 186126, "pitch": 80, "duration": 108, "velocity": 114}, {"time": 186168, "pitch": 82, "duration": 47, "velocity": 114}, {"time": 186207, "pitch": 83, "duration": 50, "velocity": 115}, {"time": 186242, "pitch": 77, "duration": 1789, "velocity": 104}, {"time": 186242, "pitch": 81, "duration": 1815, "velocity": 102}, {"time": 186242, "pitch": 84, "duration": 11397, "velocity": 97}, {"time": 188164, "pitch": 76, "duration": 1804, "velocity": 105}, {"time": 188164, "pitch": 79, "duration": 1819, "velocity": 112}, {"time": 190085, "pitch": 77, "duration": 1746, "velocity": 104}, {"time": 190085, "pitch": 81, "duration": 1751, "velocity": 100}, {"time": 191995, "pitch": 76, "duration": 1737, "velocity": 100}, {"time": 191995, "pitch": 79, "duration": 1727, "velocity": 101}, {"time": 192987, "pitch": 42, "duration": 128, "velocity": 111}, {"time": 192995, "pitch": 44, "duration": 155, "velocity": 111}, {"time": 192999, "pitch": 40, "duration": 51, "velocity": 111}, {"time": 193034, "pitch": 46, "duration": 166, "velocity": 111}, {"time": 193088, "pitch": 47, "duration": 136, "velocity": 111}, {"time": 193134, "pitch": 49, "duration": 128, "velocity": 112}, {"time": 193169, "pitch": 51, "duration": 127, "velocity": 112}, {"time": 193204, "pitch": 52, "duration": 143, "velocity": 113}, {"time": 193235, "pitch": 54, "duration": 131, "velocity": 113}, {"time": 193269, "pitch": 56, "duration": 125, "velocity": 113}, {"time": 193304, "pitch": 58, "duration": 132, "velocity": 114}, {"time": 193343, "pitch": 59, "duration": 131, "velocity": 114}, {"time": 193378, "pitch": 61, "duration": 131, "velocity": 114}, {"time": 193413, "pitch": 63, "duration": 143, "velocity": 115}, {"time": 193452, "pitch": 64, "duration": 139, "velocity": 115}, {"time": 193486, "pitch": 66, "duration": 144, "velocity": 115}, {"time": 193529, "pitch": 68, "duration": 132, "velocity": 116}, {"time": 193567, "pitch": 70, "duration": 128, "velocity": 116}, {"time": 193614, "pitch": 71, "duration": 131, "velocity": 117}, {"time": 193653, "pitch": 73, "duration": 115, "velocity": 117}, {"time": 193691, "pitch": 75, "duration": 105, "velocity": 117}, {"time": 193730, "pitch": 76, "duration": 2, "velocity": 118}, {"time": 193765, "pitch": 78, "duration": 77, "velocity": 118}, {"time": 193800, "pitch": 80, "duration": 107, "velocity": 118}, {"time": 193842, "pitch": 82, "duration": 46, "velocity": 119}, {"time": 193880, "pitch": 83, "duration": 51, "velocity": 119}, {"time": 193916, "pitch": 77, "duration": 1802, "velocity": 112}, {"time": 193916, "pitch": 81, "duration": 1812, "velocity": 104}, {"time": 195837, "pitch": 76, "duration": 1827, "velocity": 102}, {"time": 195837, "pitch": 79, "duration": 1797, "velocity": 111}, {"time": 197758, "pitch": 74, "duration": 1787, "velocity": 111}, {"time": 197758, "pitch": 78, "duration": 1792, "velocity": 111}, {"time": 197758, "pitch": 81, "duration": 1797, "velocity": 111}, {"time": 199680, "pitch": 74, "duration": 980, "velocity": 82}, {"time": 199680, "pitch": 77, "duration": 960, "velocity": 114}, {"time": 199680, "pitch": 79, "duration": 975, "velocity": 104}, {"time": 199680, "pitch": 83, "duration": 1021, "velocity": 109}, {"time": 201601, "pitch": 72, "duration": 3683, "velocity": 105}, {"time": 201601, "pitch": 72, "duration": 3683, "velocity": 109}, {"time": 201601, "pitch": 76, "duration": 3643, "velocity": 104}, {"time": 201601, "pitch": 79, "duration": 3643, "velocity": 116}, {"time": 205443, "pitch": 69, "duration": 1819, "velocity": 104}, {"time": 205443, "pitch": 72, "duration": 1804, "velocity": 94}, {"time": 205443, "pitch": 77, "duration": 1819, "velocity": 119}, {"time": 207364, "pitch": 69, "duration": 901, "velocity": 117}, {"time": 207364, "pitch": 74, "duration": 901, "velocity": 109}, {"time": 207364, "pitch": 77, "duration": 906, "velocity": 90}, {"time": 208319, "pitch": 71, "duration": 834, "velocity": 109}, {"time": 208319, "pitch": 74, "duration": 793, "velocity": 82}, {"time": 208319, "pitch": 77, "duration": 773, "velocity": 114}, {"time": 208319, "pitch": 79, "duration": 788, "velocity": 104}, {"time": 209285, "pitch": 72, "duration": 3673, "velocity": 105}, {"time": 209285, "pitch": 72, "duration": 3673, "velocity": 109}, {"time": 209285, "pitch": 76, "duration": 3633, "velocity": 104}, {"time": 209285, "pitch": 79, "duration": 3633, "velocity": 116}, {"time": 213117, "pitch": 69, "duration": 896, "velocity": 112}, {"time": 213117, "pitch": 72, "duration": 891, "velocity": 118}, {"time": 213117, "pitch": 77, "duration": 896, "velocity": 107}, {"time": 214083, "pitch": 69, "duration": 885, "velocity": 112}, {"time": 214083, "pitch": 72, "duration": 880, "velocity": 118}, {"time": 214083, "pitch": 78, "duration": 885, "velocity": 107}, {"time": 215038, "pitch": 71, "duration": 1807, "velocity": 98}, {"time": 215038, "pitch": 74, "duration": 1777, "velocity": 97}, {"time": 215038, "pitch": 77, "duration": 1787, "velocity": 106}, {"time": 215038, "pitch": 79, "duration": 1797, "velocity": 109}, {"time": 216959, "pitch": 69, "duration": 1866, "velocity": 117}, {"time": 216959, "pitch": 74, "duration": 1866, "velocity": 109}, {"time": 216959, "pitch": 77, "duration": 1871, "velocity": 90}, {"time": 218880, "pitch": 67, "duration": 831, "velocity": 109}, {"time": 218880, "pitch": 71, "duration": 841, "velocity": 98}, {"time": 218880, "pitch": 74, "duration": 811, "velocity": 97}, {"time": 218880, "pitch": 77, "duration": 821, "velocity": 106}, {"time": 219835, "pitch": 67, "duration": 911, "velocity": 114}, {"time": 219835, "pitch": 72, "duration": 941, "velocity": 101}, {"time": 219835, "pitch": 76, "duration": 936, "velocity": 107}, {"time": 220801, "pitch": 69, "duration": 1822, "velocity": 104}, {"time": 220801, "pitch": 72, "duration": 1807, "velocity": 94}, {"time": 220801, "pitch": 77, "duration": 1822, "velocity": 119}, {"time": 222722, "pitch": 69, "duration": 901, "velocity": 117}, {"time": 222722, "pitch": 74, "duration": 901, "velocity": 109}, {"time": 222722, "pitch": 77, "duration": 906, "velocity": 90}, {"time": 223678, "pitch": 67, "duration": 787, "velocity": 104}, {"time": 223678, "pitch": 71, "duration": 833, "velocity": 109}, {"time": 223678, "pitch": 74, "duration": 792, "velocity": 82}, {"time": 223678, "pitch": 77, "duration": 772, "velocity": 114}, {"time": 224643, "pitch": 67, "duration": 279, "velocity": 121}, {"time": 224643, "pitch": 72, "duration": 299, "velocity": 116}, {"time": 224643, "pitch": 76, "duration": 284, "velocity": 109}, {"time": 226883, "pitch": 67, "duration": 383, "velocity": 114}, {"time": 226883, "pitch": 71, "duration": 348, "velocity": 112}, {"time": 226883, "pitch": 74, "duration": 353, "velocity": 105}, {"time": 227361, "pitch": 67, "duration": 388, "velocity": 112}, {"time": 227361, "pitch": 72, "duration": 373, "velocity": 114}, {"time": 227361, "pitch": 76, "duration": 393, "velocity": 107}, {"time": 228475, "pitch": 79, "duration": 127, "velocity": 116}, {"time": 228475, "pitch": 91, "duration": 127, "velocity": 116}, {"time": 228638, "pitch": 77, "duration": 173, "velocity": 103}, {"time": 228638, "pitch": 89, "duration": 173, "velocity": 103}, {"time": 228800, "pitch": 76, "duration": 143, "velocity": 100}, {"time": 228800, "pitch": 88, "duration": 143, "velocity": 100}, {"time": 228963, "pitch": 75, "duration": 149, "velocity": 119}, {"time": 228963, "pitch": 87, "duration": 149, "velocity": 119}, {"time": 229122, "pitch": 74, "duration": 140, "velocity": 100}, {"time": 229122, "pitch": 86, "duration": 140, "velocity": 100}, {"time": 229282, "pitch": 72, "duration": 139, "velocity": 109}, {"time": 229282, "pitch": 84, "duration": 139, "velocity": 109}, {"time": 229441, "pitch": 70, "duration": 139, "velocity": 116}, {"time": 229441, "pitch": 82, "duration": 139, "velocity": 116}, {"time": 229600, "pitch": 69, "duration": 144, "velocity": 105}, {"time": 229600, "pitch": 81, "duration": 144, "velocity": 105}, {"time": 229759, "pitch": 67, "duration": 140, "velocity": 106}, {"time": 229759, "pitch": 79, "duration": 140, "velocity": 106}, {"time": 229918, "pitch": 65, "duration": 155, "velocity": 108}, {"time": 229918, "pitch": 77, "duration": 155, "velocity": 108}, {"time": 230078, "pitch": 64, "duration": 139, "velocity": 108}, {"time": 230078, "pitch": 76, "duration": 139, "velocity": 108}, {"time": 230237, "pitch": 63, "duration": 174, "velocity": 100}, {"time": 230237, "pitch": 75, "duration": 174, "velocity": 100}, {"time": 230732, "pitch": 67, "duration": 66, "velocity": 111}, {"time": 230732, "pitch": 71, "duration": 71, "velocity": 111}, {"time": 230732, "pitch": 74, "duration": 91, "velocity": 118}, {"time": 230898, "pitch": 67, "duration": 160, "velocity": 112}, {"time": 230898, "pitch": 71, "duration": 175, "velocity": 112}, {"time": 230898, "pitch": 74, "duration": 180, "velocity": 109}, {"time": 231204, "pitch": 72, "duration": 2603, "velocity": 127}, {"time": 231209, "pitch": 67, "duration": 2593, "velocity": 127}, {"time": 231209, "pitch": 76, "duration": 2608, "velocity": 121}, {"time": 17280, "pitch": 68, "duration": 271, "velocity": 110}, {"time": 17599, "pitch": 68, "duration": 151, "velocity": 110}, {"time": 17758, "pitch": 67, "duration": 406, "velocity": 105}, {"time": 18236, "pitch": 65, "duration": 812, "velocity": 110}, {"time": 19202, "pitch": 61, "duration": 212, "velocity": 110}, {"time": 19520, "pitch": 62, "duration": 126, "velocity": 106}, {"time": 19679, "pitch": 65, "duration": 206, "velocity": 102}, {"time": 19998, "pitch": 58, "duration": 642, "velocity": 110}, {"time": 21123, "pitch": 63, "duration": 291, "velocity": 107}, {"time": 21441, "pitch": 63, "duration": 142, "velocity": 107}, {"time": 21600, "pitch": 60, "duration": 333, "velocity": 107}, {"time": 21919, "pitch": 58, "duration": 149, "velocity": 108}, {"time": 22078, "pitch": 63, "duration": 291, "velocity": 107}, {"time": 22396, "pitch": 63, "duration": 143, "velocity": 107}, {"time": 22556, "pitch": 60, "duration": 339, "velocity": 107}, {"time": 22881, "pitch": 58, "duration": 153, "velocity": 108}, {"time": 23044, "pitch": 63, "duration": 205, "velocity": 110}, {"time": 23362, "pitch": 63, "duration": 302, "velocity": 110}, {"time": 23840, "pitch": 65, "duration": 608, "velocity": 102}, {"time": 24965, "pitch": 68, "duration": 271, "velocity": 110}, {"time": 25443, "pitch": 67, "duration": 406, "velocity": 105}, {"time": 25920, "pitch": 65, "duration": 444, "velocity": 110}, {"time": 26398, "pitch": 63, "duration": 264, "velocity": 110}, {"time": 26875, "pitch": 61, "duration": 217, "velocity": 110}, {"time": 27201, "pitch": 62, "duration": 129, "velocity": 106}, {"time": 27364, "pitch": 65, "duration": 206, "velocity": 102}, {"time": 27682, "pitch": 58, "duration": 632, "velocity": 110}, {"time": 28796, "pitch": 63, "duration": 299, "velocity": 107}, {"time": 29122, "pitch": 63, "duration": 146, "velocity": 107}, {"time": 29285, "pitch": 60, "duration": 332, "velocity": 107}, {"time": 29603, "pitch": 58, "duration": 149, "velocity": 108}, {"time": 29762, "pitch": 64, "duration": 273, "velocity": 110}, {"time": 30081, "pitch": 60, "duration": 283, "velocity": 101}, {"time": 30598, "pitch": 65, "duration": 1410, "velocity": 110}, {"time": 32957, "pitch": 60, "duration": 151, "velocity": 110}, {"time": 33116, "pitch": 63, "duration": 277, "velocity": 110}, {"time": 33442, "pitch": 63, "duration": 155, "velocity": 110}, {"time": 33605, "pitch": 67, "duration": 279, "velocity": 110}, {"time": 34401, "pitch": 67, "duration": 113, "velocity": 103}, {"time": 34560, "pitch": 69, "duration": 251, "velocity": 111}, {"time": 34878, "pitch": 65, "duration": 155, "velocity": 100}, {"time": 35037, "pitch": 69, "duration": 246, "velocity": 111}, {"time": 35356, "pitch": 70, "duration": 636, "velocity": 99}, {"time": 36959, "pitch": 63, "duration": 270, "velocity": 110}, {"time": 37277, "pitch": 63, "duration": 151, "velocity": 110}, {"time": 37436, "pitch": 67, "duration": 347, "velocity": 110}, {"time": 37924, "pitch": 63, "duration": 316, "velocity": 106}, {"time": 38402, "pitch": 67, "duration": 430, "velocity": 111}, {"time": 38880, "pitch": 67, "duration": 245, "velocity": 111}, {"time": 39198, "pitch": 65, "duration": 626, "velocity": 99}, {"time": 40323, "pitch": 70, "duration": 271, "velocity": 110}, {"time": 40801, "pitch": 68, "duration": 441, "velocity": 103}, {"time": 41278, "pitch": 67, "duration": 441, "velocity": 103}, {"time": 41756, "pitch": 65, "duration": 451, "velocity": 103}, {"time": 42244, "pitch": 61, "duration": 235, "velocity": 98}, {"time": 42563, "pitch": 62, "duration": 182, "velocity": 103}, {"time": 42722, "pitch": 65, "duration": 313, "velocity": 105}, {"time": 43040, "pitch": 58, "duration": 625, "velocity": 106}, {"time": 44155, "pitch": 68, "duration": 456, "velocity": 111}, {"time": 44643, "pitch": 70, "duration": 237, "velocity": 99}, {"time": 45121, "pitch": 68, "duration": 320, "velocity": 111}, {"time": 45479, "pitch": 70, "duration": 189, "velocity": 99}, {"time": 45917, "pitch": 73, "duration": 570, "velocity": 116}, {"time": 46564, "pitch": 70, "duration": 406, "velocity": 99}, {"time": 47042, "pitch": 68, "duration": 720, "velocity": 93}, {"time": 47997, "pitch": 68, "duration": 456, "velocity": 111}, {"time": 48485, "pitch": 70, "duration": 237, "velocity": 99}, {"time": 48963, "pitch": 68, "duration": 440, "velocity": 111}, {"time": 49440, "pitch": 70, "duration": 190, "velocity": 99}, {"time": 49759, "pitch": 73, "duration": 561, "velocity": 116}, {"time": 50396, "pitch": 70, "duration": 455, "velocity": 99}, {"time": 50884, "pitch": 68, "duration": 780, "velocity": 93}, {"time": 51839, "pitch": 67, "duration": 233, "velocity": 113}, {"time": 52158, "pitch": 61, "duration": 415, "velocity": 117}, {"time": 52642, "pitch": 67, "duration": 155, "velocity": 105}, {"time": 52805, "pitch": 61, "duration": 386, "velocity": 117}, {"time": 53283, "pitch": 67, "duration": 197, "velocity": 113}, {"time": 53601, "pitch": 61, "duration": 402, "velocity": 117}, {"time": 54079, "pitch": 67, "duration": 169, "velocity": 111}, {"time": 54238, "pitch": 61, "duration": 929, "velocity": 115}, {"time": 55681, "pitch": 67, "duration": 239, "velocity": 103}, {"time": 56159, "pitch": 67, "duration": 418, "velocity": 103}, {"time": 56637, "pitch": 67, "duration": 427, "velocity": 103}, {"time": 57125, "pitch": 65, "duration": 173, "velocity": 111}, {"time": 57364, "pitch": 69, "duration": 1694, "velocity": 116}, {"time": 59524, "pitch": 68, "duration": 449, "velocity": 110}, {"time": 60001, "pitch": 67, "duration": 406, "velocity": 105}, {"time": 60479, "pitch": 65, "duration": 809, "velocity": 110}, {"time": 61445, "pitch": 61, "duration": 212, "velocity": 110}, {"time": 61763, "pitch": 62, "duration": 127, "velocity": 106}, {"time": 61922, "pitch": 65, "duration": 206, "velocity": 102}, {"time": 62241, "pitch": 58, "duration": 632, "velocity": 110}, {"time": 63355, "pitch": 63, "duration": 298, "velocity": 107}, {"time": 63843, "pitch": 60, "duration": 333, "velocity": 107}, {"time": 64162, "pitch": 58, "duration": 149, "velocity": 108}, {"time": 64321, "pitch": 63, "duration": 292, "velocity": 107}, {"time": 64799, "pitch": 60, "duration": 332, "velocity": 107}, {"time": 65117, "pitch": 58, "duration": 149, "velocity": 108}, {"time": 65276, "pitch": 63, "duration": 210, "velocity": 110}, {"time": 65602, "pitch": 63, "duration": 305, "velocity": 110}, {"time": 66083, "pitch": 65, "duration": 608, "velocity": 102}, {"time": 67197, "pitch": 68, "duration": 390, "velocity": 110}, {"time": 67675, "pitch": 67, "duration": 415, "velocity": 105}, {"time": 68163, "pitch": 65, "duration": 802, "velocity": 110}, {"time": 69119, "pitch": 61, "duration": 211, "velocity": 110}, {"time": 69437, "pitch": 62, "duration": 126, "velocity": 106}, {"time": 69596, "pitch": 65, "duration": 211, "velocity": 102}, {"time": 69922, "pitch": 58, "duration": 695, "velocity": 110}, {"time": 71040, "pitch": 63, "duration": 656, "velocity": 107}, {"time": 71995, "pitch": 64, "duration": 427, "velocity": 110}, {"time": 72483, "pitch": 64, "duration": 219, "velocity": 106}, {"time": 72742, "pitch": 65, "duration": 1587, "velocity": 110}, {"time": 75200, "pitch": 63, "duration": 152, "velocity": 110}, {"time": 75359, "pitch": 63, "duration": 271, "velocity": 110}, {"time": 75678, "pitch": 63, "duration": 151, "velocity": 110}, {"time": 75837, "pitch": 67, "duration": 339, "velocity": 110}, {"time": 76315, "pitch": 67, "duration": 285, "velocity": 106}, {"time": 76640, "pitch": 67, "duration": 153, "velocity": 106}, {"time": 76803, "pitch": 69, "duration": 251, "velocity": 111}, {"time": 77121, "pitch": 69, "duration": 335, "velocity": 100}, {"time": 77599, "pitch": 70, "duration": 748, "velocity": 99}, {"time": 78724, "pitch": 63, "duration": 269, "velocity": 100}, {"time": 79202, "pitch": 63, "duration": 270, "velocity": 110}, {"time": 79679, "pitch": 67, "duration": 764, "velocity": 110}, {"time": 80483, "pitch": 63, "duration": 116, "velocity": 103}, {"time": 80645, "pitch": 67, "duration": 251, "velocity": 111}, {"time": 80964, "pitch": 67, "duration": 334, "velocity": 100}, {"time": 81441, "pitch": 65, "duration": 507, "velocity": 99}, {"time": 82098, "pitch": 69, "duration": 279, "velocity": 99}, {"time": 82436, "pitch": 70, "duration": 405, "velocity": 110}, {"time": 82881, "pitch": 70, "duration": 155, "velocity": 110}, {"time": 83044, "pitch": 68, "duration": 262, "velocity": 103}, {"time": 83522, "pitch": 67, "duration": 261, "velocity": 103}, {"time": 83999, "pitch": 65, "duration": 262, "velocity": 103}, {"time": 84477, "pitch": 61, "duration": 240, "velocity": 98}, {"time": 84802, "pitch": 62, "duration": 186, "velocity": 103}, {"time": 84965, "pitch": 65, "duration": 313, "velocity": 105}, {"time": 85283, "pitch": 58, "duration": 864, "velocity": 106}, {"time": 117125, "pitch": 68, "duration": 271, "velocity": 110}, {"time": 117443, "pitch": 68, "duration": 152, "velocity": 110}, {"time": 117603, "pitch": 67, "duration": 406, "velocity": 105}, {"time": 118080, "pitch": 65, "duration": 802, "velocity": 110}, {"time": 119035, "pitch": 61, "duration": 217, "velocity": 110}, {"time": 119361, "pitch": 62, "duration": 129, "velocity": 106}, {"time": 119524, "pitch": 65, "duration": 206, "velocity": 102}, {"time": 119842, "pitch": 58, "duration": 632, "velocity": 110}, {"time": 120957, "pitch": 63, "duration": 298, "velocity": 107}, {"time": 121282, "pitch": 63, "duration": 146, "velocity": 107}, {"time": 121445, "pitch": 60, "duration": 332, "velocity": 107}, {"time": 121763, "pitch": 58, "duration": 150, "velocity": 108}, {"time": 121922, "pitch": 63, "duration": 292, "velocity": 107}, {"time": 122241, "pitch": 63, "duration": 142, "velocity": 107}, {"time": 122400, "pitch": 60, "duration": 332, "velocity": 107}, {"time": 122719, "pitch": 58, "duration": 149, "velocity": 108}, {"time": 122878, "pitch": 63, "duration": 205, "velocity": 110}, {"time": 123196, "pitch": 63, "duration": 305, "velocity": 110}, {"time": 123681, "pitch": 65, "duration": 611, "velocity": 102}, {"time": 124799, "pitch": 68, "duration": 270, "velocity": 110}, {"time": 125276, "pitch": 67, "duration": 416, "velocity": 105}, {"time": 125765, "pitch": 65, "duration": 444, "velocity": 110}, {"time": 126242, "pitch": 63, "duration": 265, "velocity": 110}, {"time": 126720, "pitch": 61, "duration": 212, "velocity": 110}, {"time": 127038, "pitch": 62, "duration": 127, "velocity": 106}, {"time": 127198, "pitch": 65, "duration": 206, "velocity": 102}, {"time": 127516, "pitch": 58, "duration": 642, "velocity": 110}, {"time": 128641, "pitch": 63, "duration": 292, "velocity": 107}, {"time": 128959, "pitch": 63, "duration": 143, "velocity": 107}, {"time": 129119, "pitch": 60, "duration": 332, "velocity": 107}, {"time": 129437, "pitch": 58, "duration": 149, "velocity": 108}, {"time": 129596, "pitch": 64, "duration": 279, "velocity": 110}, {"time": 129922, "pitch": 60, "duration": 287, "velocity": 101}, {"time": 130443, "pitch": 65, "duration": 1399, "velocity": 110}, {"time": 132802, "pitch": 60, "duration": 151, "velocity": 110}, {"time": 132961, "pitch": 63, "duration": 271, "velocity": 110}, {"time": 133279, "pitch": 63, "duration": 152, "velocity": 110}, {"time": 133439, "pitch": 67, "duration": 279, "velocity": 110}, {"time": 134242, "pitch": 67, "duration": 116, "velocity": 103}, {"time": 134404, "pitch": 69, "duration": 251, "velocity": 111}, {"time": 134723, "pitch": 65, "duration": 155, "velocity": 100}, {"time": 134882, "pitch": 69, "duration": 246, "velocity": 111}, {"time": 135200, "pitch": 70, "duration": 626, "velocity": 99}, {"time": 136803, "pitch": 63, "duration": 271, "velocity": 110}, {"time": 137122, "pitch": 63, "duration": 151, "velocity": 110}, {"time": 137281, "pitch": 67, "duration": 339, "velocity": 110}, {"time": 137758, "pitch": 63, "duration": 316, "velocity": 106}, {"time": 138236, "pitch": 67, "duration": 439, "velocity": 111}, {"time": 138724, "pitch": 67, "duration": 246, "velocity": 111}, {"time": 139043, "pitch": 65, "duration": 626, "velocity": 99}, {"time": 140157, "pitch": 70, "duration": 271, "velocity": 110}, {"time": 140635, "pitch": 68, "duration": 450, "velocity": 103}, {"time": 141123, "pitch": 67, "duration": 441, "velocity": 103}, {"time": 141601, "pitch": 65, "duration": 440, "velocity": 103}, {"time": 142078, "pitch": 61, "duration": 235, "velocity": 98}, {"time": 142397, "pitch": 62, "duration": 182, "velocity": 103}, {"time": 142556, "pitch": 65, "duration": 320, "velocity": 105}, {"time": 142881, "pitch": 58, "duration": 629, "velocity": 106}, {"time": 143999, "pitch": 68, "duration": 446, "velocity": 111}, {"time": 144477, "pitch": 70, "duration": 242, "velocity": 99}, {"time": 144965, "pitch": 68, "duration": 321, "velocity": 111}, {"time": 145323, "pitch": 70, "duration": 189, "velocity": 99}, {"time": 145761, "pitch": 73, "duration": 561, "velocity": 116}, {"time": 146398, "pitch": 70, "duration": 406, "velocity": 99}, {"time": 146876, "pitch": 68, "duration": 731, "velocity": 93}, {"time": 147842, "pitch": 68, "duration": 445, "velocity": 111}, {"time": 148319, "pitch": 70, "duration": 237, "velocity": 99}, {"time": 148797, "pitch": 68, "duration": 449, "velocity": 111}, {"time": 149285, "pitch": 70, "duration": 189, "velocity": 99}, {"time": 149603, "pitch": 73, "duration": 562, "velocity": 116}, {"time": 150240, "pitch": 70, "duration": 446, "velocity": 99}, {"time": 150718, "pitch": 68, "duration": 787, "velocity": 93}, {"time": 151684, "pitch": 67, "duration": 233, "velocity": 113}, {"time": 152002, "pitch": 61, "duration": 410, "velocity": 117}, {"time": 152480, "pitch": 67, "duration": 151, "velocity": 105}, {"time": 152639, "pitch": 61, "duration": 386, "velocity": 117}, {"time": 153117, "pitch": 67, "duration": 201, "velocity": 113}, {"time": 153442, "pitch": 61, "duration": 406, "velocity": 117}, {"time": 153923, "pitch": 67, "duration": 169, "velocity": 111}, {"time": 154082, "pitch": 61, "duration": 920, "velocity": 115}, {"time": 155515, "pitch": 67, "duration": 244, "velocity": 103}, {"time": 156004, "pitch": 67, "duration": 418, "velocity": 103}, {"time": 156481, "pitch": 67, "duration": 418, "velocity": 103}, {"time": 156959, "pitch": 65, "duration": 173, "velocity": 111}, {"time": 157198, "pitch": 69, "duration": 1704, "velocity": 116}, {"time": 159358, "pitch": 68, "duration": 449, "velocity": 110}, {"time": 159835, "pitch": 67, "duration": 415, "velocity": 105}, {"time": 160323, "pitch": 65, "duration": 385, "velocity": 110}, {"time": 161279, "pitch": 61, "duration": 212, "velocity": 110}, {"time": 161597, "pitch": 62, "duration": 126, "velocity": 106}, {"time": 161756, "pitch": 65, "duration": 211, "velocity": 102}, {"time": 162082, "pitch": 58, "duration": 635, "velocity": 110}, {"time": 163200, "pitch": 63, "duration": 291, "velocity": 107}, {"time": 163677, "pitch": 60, "duration": 333, "velocity": 107}, {"time": 163996, "pitch": 58, "duration": 149, "velocity": 108}, {"time": 164155, "pitch": 63, "duration": 298, "velocity": 107}, {"time": 164643, "pitch": 60, "duration": 333, "velocity": 107}, {"time": 164962, "pitch": 58, "duration": 149, "velocity": 108}, {"time": 165121, "pitch": 63, "duration": 205, "velocity": 110}, {"time": 165439, "pitch": 63, "duration": 302, "velocity": 110}, {"time": 165917, "pitch": 65, "duration": 618, "velocity": 102}, {"time": 167042, "pitch": 68, "duration": 390, "velocity": 110}, {"time": 167520, "pitch": 67, "duration": 406, "velocity": 105}, {"time": 167997, "pitch": 65, "duration": 626, "velocity": 110}, {"time": 168963, "pitch": 61, "duration": 212, "velocity": 110}, {"time": 169282, "pitch": 62, "duration": 126, "velocity": 106}, {"time": 169441, "pitch": 65, "duration": 206, "velocity": 102}, {"time": 169759, "pitch": 58, "duration": 693, "velocity": 110}, {"time": 170884, "pitch": 63, "duration": 657, "velocity": 107}, {"time": 171839, "pitch": 64, "duration": 418, "velocity": 110}, {"time": 172317, "pitch": 64, "duration": 219, "velocity": 106}, {"time": 172576, "pitch": 65, "duration": 1708, "velocity": 110}, {"time": 175041, "pitch": 63, "duration": 155, "velocity": 110}, {"time": 175204, "pitch": 63, "duration": 271, "velocity": 110}, {"time": 175522, "pitch": 63, "duration": 152, "velocity": 110}, {"time": 175682, "pitch": 67, "duration": 339, "velocity": 110}, {"time": 176159, "pitch": 67, "duration": 279, "velocity": 106}, {"time": 176478, "pitch": 67, "duration": 149, "velocity": 106}, {"time": 176637, "pitch": 69, "duration": 256, "velocity": 111}, {"time": 176962, "pitch": 69, "duration": 338, "velocity": 100}, {"time": 177444, "pitch": 70, "duration": 745, "velocity": 99}, {"time": 178916, "pitch": 63, "duration": 144, "velocity": 100}, {"time": 179056, "pitch": 63, "duration": 4, "velocity": 110}, {"time": 179371, "pitch": 63, "duration": 147, "velocity": 100}, {"time": 179524, "pitch": 67, "duration": 757, "velocity": 110}, {"time": 180360, "pitch": 63, "duration": 113, "velocity": 103}, {"time": 180479, "pitch": 67, "duration": 251, "velocity": 111}, {"time": 180798, "pitch": 67, "duration": 338, "velocity": 100}, {"time": 181282, "pitch": 65, "duration": 510, "velocity": 99}, {"time": 182161, "pitch": 69, "duration": 120, "velocity": 99}, {"time": 182281, "pitch": 70, "duration": 398, "velocity": 110}, {"time": 182719, "pitch": 70, "duration": 151, "velocity": 110}, {"time": 182878, "pitch": 68, "duration": 262, "velocity": 103}, {"time": 183355, "pitch": 67, "duration": 268, "velocity": 103}, {"time": 183844, "pitch": 65, "duration": 261, "velocity": 103}, {"time": 184321, "pitch": 61, "duration": 235, "velocity": 98}, {"time": 184640, "pitch": 62, "duration": 182, "velocity": 103}, {"time": 184799, "pitch": 65, "duration": 313, "velocity": 105}, {"time": 185117, "pitch": 58, "duration": 875, "velocity": 106}, {"time": 201601, "pitch": 70, "duration": 270, "velocity": 110}, {"time": 201919, "pitch": 70, "duration": 151, "velocity": 110}, {"time": 202078, "pitch": 69, "duration": 406, "velocity": 105}, {"time": 202556, "pitch": 67, "duration": 813, "velocity": 110}, {"time": 203522, "pitch": 63, "duration": 212, "velocity": 110}, {"time": 203840, "pitch": 64, "duration": 127, "velocity": 106}, {"time": 203999, "pitch": 67, "duration": 206, "velocity": 102}, {"time": 204318, "pitch": 60, "duration": 642, "velocity": 110}, {"time": 205443, "pitch": 65, "duration": 291, "velocity": 107}, {"time": 205761, "pitch": 65, "duration": 143, "velocity": 107}, {"time": 205921, "pitch": 62, "duration": 332, "velocity": 107}, {"time": 206239, "pitch": 60, "duration": 149, "velocity": 108}, {"time": 206398, "pitch": 65, "duration": 292, "velocity": 107}, {"time": 206717, "pitch": 65, "duration": 142, "velocity": 107}, {"time": 206876, "pitch": 62, "duration": 340, "velocity": 107}, {"time": 207201, "pitch": 60, "duration": 153, "velocity": 108}, {"time": 207364, "pitch": 65, "duration": 205, "velocity": 110}, {"time": 207682, "pitch": 65, "duration": 302, "velocity": 110}, {"time": 208160, "pitch": 67, "duration": 608, "velocity": 102}, {"time": 209285, "pitch": 70, "duration": 271, "velocity": 110}, {"time": 209763, "pitch": 69, "duration": 406, "velocity": 105}, {"time": 210240, "pitch": 67, "duration": 444, "velocity": 110}, {"time": 210718, "pitch": 65, "duration": 265, "velocity": 110}, {"time": 211196, "pitch": 63, "duration": 216, "velocity": 110}, {"time": 211521, "pitch": 64, "duration": 129, "velocity": 106}, {"time": 211684, "pitch": 67, "duration": 206, "velocity": 102}, {"time": 212002, "pitch": 60, "duration": 632, "velocity": 110}, {"time": 213117, "pitch": 65, "duration": 298, "velocity": 107}, {"time": 213442, "pitch": 65, "duration": 146, "velocity": 107}, {"time": 213605, "pitch": 62, "duration": 332, "velocity": 107}, {"time": 213923, "pitch": 60, "duration": 150, "velocity": 108}, {"time": 214083, "pitch": 66, "duration": 272, "velocity": 110}, {"time": 214401, "pitch": 62, "duration": 284, "velocity": 101}, {"time": 214918, "pitch": 67, "duration": 1410, "velocity": 110}, {"time": 217277, "pitch": 62, "duration": 152, "velocity": 110}, {"time": 217437, "pitch": 65, "duration": 276, "velocity": 110}, {"time": 217762, "pitch": 65, "duration": 155, "velocity": 110}, {"time": 217925, "pitch": 69, "duration": 279, "velocity": 110}, {"time": 218721, "pitch": 69, "duration": 113, "velocity": 103}, {"time": 218880, "pitch": 71, "duration": 251, "velocity": 111}, {"time": 219198, "pitch": 67, "duration": 156, "velocity": 100}, {"time": 219358, "pitch": 71, "duration": 245, "velocity": 111}, {"time": 219676, "pitch": 72, "duration": 636, "velocity": 99}, {"time": 221279, "pitch": 65, "duration": 270, "velocity": 110}, {"time": 221597, "pitch": 65, "duration": 151, "velocity": 110}, {"time": 221756, "pitch": 69, "duration": 347, "velocity": 110}, {"time": 222245, "pitch": 65, "duration": 315, "velocity": 106}, {"time": 222722, "pitch": 69, "duration": 430, "velocity": 111}, {"time": 223200, "pitch": 69, "duration": 246, "velocity": 111}, {"time": 223518, "pitch": 67, "duration": 626, "velocity": 99}, {"time": 224643, "pitch": 72, "duration": 271, "velocity": 110}, {"time": 225121, "pitch": 70, "duration": 441, "velocity": 103}, {"time": 225599, "pitch": 69, "duration": 440, "velocity": 103}, {"time": 226076, "pitch": 67, "duration": 451, "velocity": 103}, {"time": 226565, "pitch": 63, "duration": 234, "velocity": 98}, {"time": 226883, "pitch": 64, "duration": 182, "velocity": 103}, {"time": 227042, "pitch": 67, "duration": 314, "velocity": 105}, {"time": 227361, "pitch": 60, "duration": 624, "velocity": 106}, {"time": 1763, "pitch": 53, "duration": 70, "velocity": 98}, {"time": 1763, "pitch": 57, "duration": 70, "velocity": 98}, {"time": 1922, "pitch": 46, "duration": 120, "velocity": 117}, {"time": 1922, "pitch": 51, "duration": 120, "velocity": 117}, {"time": 1922, "pitch": 55, "duration": 120, "velocity": 117}, {"time": 1922, "pitch": 58, "duration": 110, "velocity": 117}, {"time": 2241, "pitch": 46, "duration": 49, "velocity": 98}, {"time": 2241, "pitch": 51, "duration": 49, "velocity": 98}, {"time": 2241, "pitch": 55, "duration": 59, "velocity": 98}, {"time": 2241, "pitch": 58, "duration": 59, "velocity": 98}, {"time": 2400, "pitch": 46, "duration": 119, "velocity": 112}, {"time": 2400, "pitch": 51, "duration": 109, "velocity": 112}, {"time": 2400, "pitch": 55, "duration": 109, "velocity": 112}, {"time": 2400, "pitch": 58, "duration": 119, "velocity": 112}, {"time": 2718, "pitch": 46, "duration": 80, "velocity": 109}, {"time": 2718, "pitch": 51, "duration": 70, "velocity": 109}, {"time": 2718, "pitch": 55, "duration": 70, "velocity": 109}, {"time": 2718, "pitch": 58, "duration": 70, "velocity": 109}, {"time": 2877, "pitch": 46, "duration": 120, "velocity": 115}, {"time": 2877, "pitch": 51, "duration": 120, "velocity": 115}, {"time": 2877, "pitch": 55, "duration": 130, "velocity": 115}, {"time": 2877, "pitch": 58, "duration": 130, "velocity": 115}, {"time": 3196, "pitch": 46, "duration": 60, "velocity": 91}, {"time": 3196, "pitch": 51, "duration": 50, "velocity": 91}, {"time": 3196, "pitch": 55, "duration": 50, "velocity": 91}, {"time": 3196, "pitch": 58, "duration": 50, "velocity": 91}, {"time": 3355, "pitch": 46, "duration": 102, "velocity": 112}, {"time": 3355, "pitch": 51, "duration": 112, "velocity": 112}, {"time": 3355, "pitch": 55, "duration": 112, "velocity": 112}, {"time": 3355, "pitch": 58, "duration": 112, "velocity": 112}, {"time": 3681, "pitch": 46, "duration": 91, "velocity": 112}, {"time": 3681, "pitch": 51, "duration": 81, "velocity": 112}, {"time": 3681, "pitch": 55, "duration": 91, "velocity": 112}, {"time": 3681, "pitch": 58, "duration": 81, "velocity": 112}, {"time": 3843, "pitch": 46, "duration": 100, "velocity": 117}, {"time": 3843, "pitch": 50, "duration": 100, "velocity": 117}, {"time": 3843, "pitch": 53, "duration": 100, "velocity": 117}, {"time": 3843, "pitch": 58, "duration": 100, "velocity": 117}, {"time": 4162, "pitch": 46, "duration": 79, "velocity": 104}, {"time": 4162, "pitch": 50, "duration": 79, "velocity": 104}, {"time": 4162, "pitch": 53, "duration": 89, "velocity": 104}, {"time": 4162, "pitch": 58, "duration": 79, "velocity": 104}, {"time": 4321, "pitch": 46, "duration": 129, "velocity": 117}, {"time": 4321, "pitch": 50, "duration": 119, "velocity": 117}, {"time": 4321, "pitch": 53, "duration": 119, "velocity": 117}, {"time": 4321, "pitch": 58, "duration": 139, "velocity": 117}, {"time": 4639, "pitch": 46, "duration": 90, "velocity": 117}, {"time": 4639, "pitch": 50, "duration": 90, "velocity": 117}, {"time": 4639, "pitch": 53, "duration": 90, "velocity": 117}, {"time": 4639, "pitch": 58, "duration": 90, "velocity": 117}, {"time": 4799, "pitch": 46, "duration": 119, "velocity": 117}, {"time": 4799, "pitch": 50, "duration": 119, "velocity": 117}, {"time": 4799, "pitch": 53, "duration": 129, "velocity": 117}, {"time": 4799, "pitch": 58, "duration": 129, "velocity": 117}, {"time": 5117, "pitch": 46, "duration": 70, "velocity": 99}, {"time": 5117, "pitch": 50, "duration": 70, "velocity": 99}, {"time": 5117, "pitch": 53, "duration": 70, "velocity": 99}, {"time": 5117, "pitch": 58, "duration": 70, "velocity": 99}, {"time": 5276, "pitch": 46, "duration": 132, "velocity": 117}, {"time": 5276, "pitch": 50, "duration": 122, "velocity": 117}, {"time": 5276, "pitch": 53, "duration": 122, "velocity": 117}, {"time": 5276, "pitch": 58, "duration": 122, "velocity": 117}, {"time": 5602, "pitch": 46, "duration": 71, "velocity": 108}, {"time": 5602, "pitch": 50, "duration": 71, "velocity": 108}, {"time": 5602, "pitch": 53, "duration": 81, "velocity": 108}, {"time": 5602, "pitch": 58, "duration": 81, "velocity": 108}, {"time": 5764, "pitch": 46, "duration": 100, "velocity": 115}, {"time": 5764, "pitch": 51, "duration": 100, "velocity": 115}, {"time": 5764, "pitch": 55, "duration": 100, "velocity": 115}, {"time": 5764, "pitch": 58, "duration": 100, "velocity": 115}, {"time": 6083, "pitch": 46, "duration": 60, "velocity": 85}, {"time": 6083, "pitch": 51, "duration": 60, "velocity": 85}, {"time": 6083, "pitch": 55, "duration": 70, "velocity": 85}, {"time": 6083, "pitch": 58, "duration": 70, "velocity": 85}, {"time": 6242, "pitch": 46, "duration": 119, "velocity": 117}, {"time": 6242, "pitch": 51, "duration": 129, "velocity": 117}, {"time": 6242, "pitch": 55, "duration": 119, "velocity": 117}, {"time": 6242, "pitch": 58, "duration": 119, "velocity": 117}, {"time": 6560, "pitch": 46, "duration": 80, "velocity": 107}, {"time": 6560, "pitch": 51, "duration": 70, "velocity": 107}, {"time": 6560, "pitch": 55, "duration": 70, "velocity": 107}, {"time": 6560, "pitch": 58, "duration": 60, "velocity": 107}, {"time": 6720, "pitch": 46, "duration": 129, "velocity": 115}, {"time": 6720, "pitch": 51, "duration": 129, "velocity": 115}, {"time": 6720, "pitch": 55, "duration": 139, "velocity": 115}, {"time": 6720, "pitch": 58, "duration": 139, "velocity": 115}, {"time": 7038, "pitch": 46, "duration": 40, "velocity": 88}, {"time": 7038, "pitch": 51, "duration": 40, "velocity": 88}, {"time": 7038, "pitch": 55, "duration": 60, "velocity": 88}, {"time": 7038, "pitch": 58, "duration": 60, "velocity": 88}, {"time": 7197, "pitch": 46, "duration": 120, "velocity": 117}, {"time": 7197, "pitch": 51, "duration": 120, "velocity": 117}, {"time": 7197, "pitch": 55, "duration": 120, "velocity": 117}, {"time": 7197, "pitch": 58, "duration": 120, "velocity": 117}, {"time": 7516, "pitch": 46, "duration": 79, "velocity": 107}, {"time": 7516, "pitch": 51, "duration": 69, "velocity": 107}, {"time": 7516, "pitch": 55, "duration": 69, "velocity": 107}, {"time": 7516, "pitch": 58, "duration": 59, "velocity": 107}, {"time": 7675, "pitch": 46, "duration": 122, "velocity": 117}, {"time": 7675, "pitch": 50, "duration": 122, "velocity": 117}, {"time": 7675, "pitch": 53, "duration": 122, "velocity": 117}, {"time": 7675, "pitch": 58, "duration": 112, "velocity": 117}, {"time": 8000, "pitch": 46, "duration": 61, "velocity": 92}, {"time": 8000, "pitch": 50, "duration": 61, "velocity": 92}, {"time": 8000, "pitch": 53, "duration": 72, "velocity": 92}, {"time": 8000, "pitch": 58, "duration": 72, "velocity": 92}, {"time": 8163, "pitch": 46, "duration": 120, "velocity": 117}, {"time": 8163, "pitch": 50, "duration": 110, "velocity": 117}, {"time": 8163, "pitch": 53, "duration": 110, "velocity": 117}, {"time": 8163, "pitch": 58, "duration": 110, "velocity": 117}, {"time": 8482, "pitch": 46, "duration": 89, "velocity": 111}, {"time": 8482, "pitch": 50, "duration": 79, "velocity": 111}, {"time": 8482, "pitch": 53, "duration": 79, "velocity": 111}, {"time": 8482, "pitch": 58, "duration": 69, "velocity": 111}, {"time": 8641, "pitch": 46, "duration": 139, "velocity": 117}, {"time": 8641, "pitch": 50, "duration": 149, "velocity": 117}, {"time": 8641, "pitch": 53, "duration": 149, "velocity": 117}, {"time": 8641, "pitch": 58, "duration": 139, "velocity": 117}, {"time": 8959, "pitch": 46, "duration": 80, "velocity": 102}, {"time": 8959, "pitch": 50, "duration": 80, "velocity": 102}, {"time": 8959, "pitch": 53, "duration": 70, "velocity": 102}, {"time": 8959, "pitch": 58, "duration": 70, "velocity": 102}, {"time": 9118, "pitch": 46, "duration": 130, "velocity": 117}, {"time": 9118, "pitch": 50, "duration": 130, "velocity": 117}, {"time": 9118, "pitch": 53, "duration": 130, "velocity": 117}, {"time": 9118, "pitch": 58, "duration": 130, "velocity": 117}, {"time": 9437, "pitch": 46, "duration": 60, "velocity": 104}, {"time": 9437, "pitch": 50, "duration": 60, "velocity": 104}, {"time": 9437, "pitch": 53, "duration": 69, "velocity": 104}, {"time": 9437, "pitch": 58, "duration": 60, "velocity": 104}, {"time": 9596, "pitch": 46, "duration": 102, "velocity": 112}, {"time": 9596, "pitch": 51, "duration": 102, "velocity": 112}, {"time": 9596, "pitch": 55, "duration": 102, "velocity": 112}, {"time": 9596, "pitch": 58, "duration": 92, "velocity": 112}, {"time": 9922, "pitch": 46, "duration": 71, "velocity": 96}, {"time": 9922, "pitch": 51, "duration": 81, "velocity": 96}, {"time": 9922, "pitch": 55, "duration": 81, "velocity": 96}, {"time": 9922, "pitch": 58, "duration": 81, "velocity": 96}, {"time": 10084, "pitch": 46, "duration": 140, "velocity": 117}, {"time": 10084, "pitch": 51, "duration": 140, "velocity": 117}, {"time": 10084, "pitch": 55, "duration": 140, "velocity": 117}, {"time": 10084, "pitch": 58, "duration": 130, "velocity": 117}, {"time": 10403, "pitch": 46, "duration": 69, "velocity": 104}, {"time": 10403, "pitch": 51, "duration": 79, "velocity": 104}, {"time": 10403, "pitch": 55, "duration": 79, "velocity": 104}, {"time": 10403, "pitch": 58, "duration": 79, "velocity": 104}, {"time": 10562, "pitch": 46, "duration": 139, "velocity": 112}, {"time": 10562, "pitch": 51, "duration": 139, "velocity": 112}, {"time": 10562, "pitch": 55, "duration": 149, "velocity": 112}, {"time": 10562, "pitch": 58, "duration": 139, "velocity": 112}, {"time": 10880, "pitch": 46, "duration": 50, "velocity": 86}, {"time": 10880, "pitch": 51, "duration": 50, "velocity": 86}, {"time": 10880, "pitch": 55, "duration": 40, "velocity": 86}, {"time": 10880, "pitch": 58, "duration": 50, "velocity": 86}, {"time": 11040, "pitch": 46, "duration": 109, "velocity": 117}, {"time": 11040, "pitch": 51, "duration": 109, "velocity": 117}, {"time": 11040, "pitch": 55, "duration": 109, "velocity": 117}, {"time": 11040, "pitch": 58, "duration": 109, "velocity": 117}, {"time": 11358, "pitch": 46, "duration": 70, "velocity": 107}, {"time": 11358, "pitch": 51, "duration": 70, "velocity": 107}, {"time": 11358, "pitch": 55, "duration": 60, "velocity": 107}, {"time": 11358, "pitch": 58, "duration": 60, "velocity": 107}, {"time": 11517, "pitch": 46, "duration": 110, "velocity": 117}, {"time": 11517, "pitch": 50, "duration": 100, "velocity": 117}, {"time": 11517, "pitch": 53, "duration": 110, "velocity": 117}, {"time": 11517, "pitch": 58, "duration": 110, "velocity": 117}, {"time": 11836, "pitch": 46, "duration": 69, "velocity": 102}, {"time": 11836, "pitch": 50, "duration": 79, "velocity": 102}, {"time": 11836, "pitch": 53, "duration": 79, "velocity": 102}, {"time": 11836, "pitch": 58, "duration": 79, "velocity": 102}, {"time": 11995, "pitch": 46, "duration": 132, "velocity": 117}, {"time": 11995, "pitch": 50, "duration": 132, "velocity": 117}, {"time": 11995, "pitch": 53, "duration": 132, "velocity": 117}, {"time": 11995, "pitch": 58, "duration": 132, "velocity": 117}, {"time": 12320, "pitch": 46, "duration": 102, "velocity": 117}, {"time": 12320, "pitch": 50, "duration": 112, "velocity": 117}, {"time": 12320, "pitch": 53, "duration": 112, "velocity": 117}, {"time": 12320, "pitch": 58, "duration": 112, "velocity": 117}, {"time": 12483, "pitch": 46, "duration": 169, "velocity": 117}, {"time": 12483, "pitch": 50, "duration": 149, "velocity": 117}, {"time": 12483, "pitch": 53, "duration": 149, "velocity": 117}, {"time": 12483, "pitch": 58, "duration": 159, "velocity": 117}, {"time": 12801, "pitch": 46, "duration": 70, "velocity": 104}, {"time": 12801, "pitch": 50, "duration": 80, "velocity": 104}, {"time": 12801, "pitch": 53, "duration": 80, "velocity": 104}, {"time": 12801, "pitch": 58, "duration": 80, "velocity": 104}, {"time": 12961, "pitch": 46, "duration": 119, "velocity": 117}, {"time": 12961, "pitch": 50, "duration": 119, "velocity": 117}, {"time": 12961, "pitch": 53, "duration": 119, "velocity": 117}, {"time": 12961, "pitch": 58, "duration": 119, "velocity": 117}, {"time": 13279, "pitch": 46, "duration": 70, "velocity": 101}, {"time": 13279, "pitch": 50, "duration": 70, "velocity": 101}, {"time": 13279, "pitch": 53, "duration": 70, "velocity": 101}, {"time": 13279, "pitch": 58, "duration": 70, "velocity": 101}, {"time": 13438, "pitch": 43, "duration": 120, "velocity": 117}, {"time": 13438, "pitch": 48, "duration": 120, "velocity": 117}, {"time": 13438, "pitch": 52, "duration": 120, "velocity": 117}, {"time": 13438, "pitch": 58, "duration": 130, "velocity": 117}, {"time": 13438, "pitch": 60, "duration": 130, "velocity": 117}, {"time": 13757, "pitch": 43, "duration": 69, "velocity": 94}, {"time": 13757, "pitch": 48, "duration": 69, "velocity": 94}, {"time": 13757, "pitch": 52, "duration": 69, "velocity": 94}, {"time": 13757, "pitch": 58, "duration": 69, "velocity": 94}, {"time": 13757, "pitch": 60, "duration": 79, "velocity": 94}, {"time": 13916, "pitch": 43, "duration": 132, "velocity": 117}, {"time": 13916, "pitch": 48, "duration": 142, "velocity": 117}, {"time": 13916, "pitch": 52, "duration": 142, "velocity": 117}, {"time": 13916, "pitch": 58, "duration": 142, "velocity": 117}, {"time": 13916, "pitch": 60, "duration": 142, "velocity": 117}, {"time": 14241, "pitch": 43, "duration": 72, "velocity": 106}, {"time": 14241, "pitch": 48, "duration": 72, "velocity": 106}, {"time": 14241, "pitch": 52, "duration": 82, "velocity": 106}, {"time": 14241, "pitch": 58, "duration": 82, "velocity": 106}, {"time": 14241, "pitch": 60, "duration": 72, "velocity": 106}, {"time": 14404, "pitch": 43, "duration": 149, "velocity": 117}, {"time": 14404, "pitch": 48, "duration": 149, "velocity": 117}, {"time": 14404, "pitch": 52, "duration": 149, "velocity": 117}, {"time": 14404, "pitch": 58, "duration": 149, "velocity": 117}, {"time": 14404, "pitch": 60, "duration": 159, "velocity": 117}, {"time": 14723, "pitch": 43, "duration": 59, "velocity": 99}, {"time": 14723, "pitch": 48, "duration": 69, "velocity": 99}, {"time": 14723, "pitch": 52, "duration": 69, "velocity": 99}, {"time": 14723, "pitch": 58, "duration": 69, "velocity": 99}, {"time": 14723, "pitch": 60, "duration": 69, "velocity": 99}, {"time": 14882, "pitch": 43, "duration": 119, "velocity": 117}, {"time": 14882, "pitch": 48, "duration": 119, "velocity": 117}, {"time": 14882, "pitch": 52, "duration": 119, "velocity": 117}, {"time": 14882, "pitch": 58, "duration": 119, "velocity": 117}, {"time": 14882, "pitch": 60, "duration": 119, "velocity": 117}, {"time": 15200, "pitch": 43, "duration": 60, "velocity": 106}, {"time": 15200, "pitch": 48, "duration": 80, "velocity": 106}, {"time": 15200, "pitch": 52, "duration": 70, "velocity": 106}, {"time": 15200, "pitch": 58, "duration": 70, "velocity": 106}, {"time": 15200, "pitch": 60, "duration": 70, "velocity": 106}, {"time": 15359, "pitch": 45, "duration": 100, "velocity": 115}, {"time": 15359, "pitch": 48, "duration": 100, "velocity": 115}, {"time": 15359, "pitch": 51, "duration": 110, "velocity": 115}, {"time": 15359, "pitch": 53, "duration": 100, "velocity": 115}, {"time": 15359, "pitch": 57, "duration": 90, "velocity": 115}, {"time": 15678, "pitch": 45, "duration": 50, "velocity": 100}, {"time": 15678, "pitch": 48, "duration": 59, "velocity": 100}, {"time": 15678, "pitch": 51, "duration": 59, "velocity": 100}, {"time": 15678, "pitch": 53, "duration": 59, "velocity": 100}, {"time": 15678, "pitch": 57, "duration": 69, "velocity": 100}, {"time": 15837, "pitch": 45, "duration": 122, "velocity": 115}, {"time": 15837, "pitch": 48, "duration": 122, "velocity": 115}, {"time": 15837, "pitch": 51, "duration": 112, "velocity": 115}, {"time": 15837, "pitch": 53, "duration": 122, "velocity": 115}, {"time": 15837, "pitch": 57, "duration": 102, "velocity": 115}, {"time": 16163, "pitch": 45, "duration": 61, "velocity": 107}, {"time": 16163, "pitch": 48, "duration": 71, "velocity": 107}, {"time": 16163, "pitch": 51, "duration": 61, "velocity": 107}, {"time": 16163, "pitch": 53, "duration": 71, "velocity": 107}, {"time": 16163, "pitch": 57, "duration": 71, "velocity": 107}, {"time": 16325, "pitch": 45, "duration": 90, "velocity": 115}, {"time": 16325, "pitch": 48, "duration": 100, "velocity": 115}, {"time": 16325, "pitch": 51, "duration": 90, "velocity": 115}, {"time": 16325, "pitch": 53, "duration": 100, "velocity": 115}, {"time": 16325, "pitch": 57, "duration": 110, "velocity": 115}, {"time": 17280, "pitch": 46, "duration": 120, "velocity": 117}, {"time": 17280, "pitch": 50, "duration": 120, "velocity": 117}, {"time": 17280, "pitch": 53, "duration": 130, "velocity": 117}, {"time": 17280, "pitch": 58, "duration": 130, "velocity": 117}, {"time": 17599, "pitch": 46, "duration": 79, "velocity": 101}, {"time": 17599, "pitch": 50, "duration": 79, "velocity": 101}, {"time": 17599, "pitch": 53, "duration": 79, "velocity": 101}, {"time": 17599, "pitch": 58, "duration": 89, "velocity": 101}, {"time": 17758, "pitch": 46, "duration": 110, "velocity": 117}, {"time": 17758, "pitch": 50, "duration": 129, "velocity": 117}, {"time": 17758, "pitch": 53, "duration": 119, "velocity": 117}, {"time": 17758, "pitch": 58, "duration": 119, "velocity": 117}, {"time": 18076, "pitch": 46, "duration": 80, "velocity": 117}, {"time": 18076, "pitch": 50, "duration": 80, "velocity": 117}, {"time": 18076, "pitch": 53, "duration": 80, "velocity": 117}, {"time": 18076, "pitch": 58, "duration": 80, "velocity": 117}, {"time": 18236, "pitch": 46, "duration": 132, "velocity": 117}, {"time": 18236, "pitch": 50, "duration": 132, "velocity": 117}, {"time": 18236, "pitch": 53, "duration": 132, "velocity": 117}, {"time": 18236, "pitch": 58, "duration": 132, "velocity": 117}, {"time": 18561, "pitch": 46, "duration": 71, "velocity": 97}, {"time": 18561, "pitch": 50, "duration": 71, "velocity": 97}, {"time": 18561, "pitch": 53, "duration": 71, "velocity": 97}, {"time": 18561, "pitch": 58, "duration": 71, "velocity": 97}, {"time": 18724, "pitch": 46, "duration": 129, "velocity": 117}, {"time": 18724, "pitch": 50, "duration": 139, "velocity": 117}, {"time": 18724, "pitch": 53, "duration": 139, "velocity": 117}, {"time": 18724, "pitch": 58, "duration": 129, "velocity": 117}, {"time": 19042, "pitch": 46, "duration": 90, "velocity": 108}, {"time": 19042, "pitch": 50, "duration": 90, "velocity": 108}, {"time": 19042, "pitch": 53, "duration": 100, "velocity": 108}, {"time": 19042, "pitch": 58, "duration": 100, "velocity": 108}, {"time": 19202, "pitch": 46, "duration": 129, "velocity": 117}, {"time": 19202, "pitch": 50, "duration": 139, "velocity": 117}, {"time": 19202, "pitch": 53, "duration": 139, "velocity": 117}, {"time": 19202, "pitch": 58, "duration": 139, "velocity": 117}, {"time": 19520, "pitch": 46, "duration": 60, "velocity": 104}, {"time": 19520, "pitch": 50, "duration": 70, "velocity": 104}, {"time": 19520, "pitch": 53, "duration": 80, "velocity": 104}, {"time": 19520, "pitch": 58, "duration": 70, "velocity": 104}, {"time": 19679, "pitch": 46, "duration": 110, "velocity": 117}, {"time": 19679, "pitch": 50, "duration": 120, "velocity": 117}, {"time": 19679, "pitch": 53, "duration": 130, "velocity": 117}, {"time": 19679, "pitch": 58, "duration": 130, "velocity": 117}, {"time": 19998, "pitch": 46, "duration": 99, "velocity": 113}, {"time": 19998, "pitch": 50, "duration": 89, "velocity": 113}, {"time": 19998, "pitch": 53, "duration": 99, "velocity": 113}, {"time": 19998, "pitch": 58, "duration": 99, "velocity": 113}, {"time": 20157, "pitch": 46, "duration": 122, "velocity": 117}, {"time": 20157, "pitch": 50, "duration": 122, "velocity": 117}, {"time": 20157, "pitch": 53, "duration": 132, "velocity": 117}, {"time": 20157, "pitch": 58, "duration": 122, "velocity": 117}, {"time": 20482, "pitch": 46, "duration": 61, "velocity": 101}, {"time": 20482, "pitch": 50, "duration": 72, "velocity": 101}, {"time": 20482, "pitch": 53, "duration": 72, "velocity": 101}, {"time": 20482, "pitch": 58, "duration": 72, "velocity": 101}, {"time": 20645, "pitch": 46, "duration": 129, "velocity": 117}, {"time": 20645, "pitch": 50, "duration": 139, "velocity": 117}, {"time": 20645, "pitch": 53, "duration": 139, "velocity": 117}, {"time": 20645, "pitch": 58, "duration": 139, "velocity": 117}, {"time": 20963, "pitch": 46, "duration": 80, "velocity": 111}, {"time": 20963, "pitch": 50, "duration": 80, "velocity": 111}, {"time": 20963, "pitch": 53, "duration": 90, "velocity": 111}, {"time": 20963, "pitch": 58, "duration": 80, "velocity": 111}, {"time": 21123, "pitch": 46, "duration": 99, "velocity": 112}, {"time": 21123, "pitch": 51, "duration": 109, "velocity": 112}, {"time": 21123, "pitch": 55, "duration": 109, "velocity": 112}, {"time": 21123, "pitch": 58, "duration": 109, "velocity": 112}, {"time": 21441, "pitch": 46, "duration": 40, "velocity": 102}, {"time": 21441, "pitch": 51, "duration": 50, "velocity": 102}, {"time": 21441, "pitch": 55, "duration": 60, "velocity": 102}, {"time": 21441, "pitch": 58, "duration": 60, "velocity": 102}, {"time": 21600, "pitch": 46, "duration": 120, "velocity": 115}, {"time": 21600, "pitch": 51, "duration": 130, "velocity": 115}, {"time": 21600, "pitch": 55, "duration": 120, "velocity": 115}, {"time": 21600, "pitch": 58, "duration": 120, "velocity": 115}, {"time": 21919, "pitch": 46, "duration": 99, "velocity": 109}, {"time": 21919, "pitch": 51, "duration": 99, "velocity": 109}, {"time": 21919, "pitch": 55, "duration": 89, "velocity": 109}, {"time": 21919, "pitch": 58, "duration": 89, "velocity": 109}, {"time": 22078, "pitch": 46, "duration": 109, "velocity": 112}, {"time": 22078, "pitch": 51, "duration": 119, "velocity": 112}, {"time": 22078, "pitch": 55, "duration": 119, "velocity": 112}, {"time": 22078, "pitch": 58, "duration": 119, "velocity": 112}, {"time": 22396, "pitch": 46, "duration": 60, "velocity": 96}, {"time": 22396, "pitch": 51, "duration": 50, "velocity": 96}, {"time": 22396, "pitch": 55, "duration": 60, "velocity": 96}, {"time": 22396, "pitch": 58, "duration": 60, "velocity": 96}, {"time": 22556, "pitch": 46, "duration": 111, "velocity": 117}, {"time": 22556, "pitch": 51, "duration": 122, "velocity": 117}, {"time": 22556, "pitch": 55, "duration": 122, "velocity": 117}, {"time": 22556, "pitch": 58, "duration": 122, "velocity": 117}, {"time": 22881, "pitch": 46, "duration": 81, "velocity": 109}, {"time": 22881, "pitch": 51, "duration": 81, "velocity": 109}, {"time": 22881, "pitch": 55, "duration": 92, "velocity": 109}, {"time": 22881, "pitch": 58, "duration": 81, "velocity": 109}, {"time": 23044, "pitch": 48, "duration": 109, "velocity": 115}, {"time": 23044, "pitch": 51, "duration": 109, "velocity": 115}, {"time": 23044, "pitch": 55, "duration": 109, "velocity": 115}, {"time": 23044, "pitch": 58, "duration": 99, "velocity": 115}, {"time": 23362, "pitch": 48, "duration": 50, "velocity": 94}, {"time": 23362, "pitch": 51, "duration": 50, "velocity": 94}, {"time": 23362, "pitch": 55, "duration": 60, "velocity": 94}, {"time": 23362, "pitch": 58, "duration": 60, "velocity": 94}, {"time": 23521, "pitch": 48, "duration": 120, "velocity": 117}, {"time": 23521, "pitch": 51, "duration": 110, "velocity": 117}, {"time": 23521, "pitch": 55, "duration": 120, "velocity": 117}, {"time": 23521, "pitch": 58, "duration": 110, "velocity": 117}, {"time": 23840, "pitch": 48, "duration": 69, "velocity": 104}, {"time": 23840, "pitch": 51, "duration": 69, "velocity": 104}, {"time": 23840, "pitch": 55, "duration": 60, "velocity": 104}, {"time": 23840, "pitch": 58, "duration": 50, "velocity": 104}, {"time": 23999, "pitch": 45, "duration": 129, "velocity": 112}, {"time": 23999, "pitch": 48, "duration": 139, "velocity": 112}, {"time": 23999, "pitch": 51, "duration": 129, "velocity": 112}, {"time": 23999, "pitch": 53, "duration": 129, "velocity": 112}, {"time": 23999, "pitch": 57, "duration": 129, "velocity": 112}, {"time": 24317, "pitch": 45, "duration": 50, "velocity": 89}, {"time": 24317, "pitch": 48, "duration": 60, "velocity": 89}, {"time": 24317, "pitch": 51, "duration": 50, "velocity": 89}, {"time": 24317, "pitch": 53, "duration": 60, "velocity": 89}, {"time": 24317, "pitch": 57, "duration": 60, "velocity": 89}, {"time": 24477, "pitch": 45, "duration": 112, "velocity": 115}, {"time": 24477, "pitch": 48, "duration": 112, "velocity": 115}, {"time": 24477, "pitch": 51, "duration": 112, "velocity": 115}, {"time": 24477, "pitch": 53, "duration": 112, "velocity": 115}, {"time": 24477, "pitch": 57, "duration": 112, "velocity": 115}, {"time": 24802, "pitch": 45, "duration": 71, "velocity": 98}, {"time": 24802, "pitch": 48, "duration": 71, "velocity": 98}, {"time": 24802, "pitch": 51, "duration": 82, "velocity": 98}, {"time": 24802, "pitch": 53, "duration": 71, "velocity": 98}, {"time": 24802, "pitch": 57, "duration": 71, "velocity": 98}, {"time": 24965, "pitch": 46, "duration": 119, "velocity": 117}, {"time": 24965, "pitch": 50, "duration": 119, "velocity": 117}, {"time": 24965, "pitch": 53, "duration": 129, "velocity": 117}, {"time": 24965, "pitch": 58, "duration": 129, "velocity": 117}, {"time": 25283, "pitch": 46, "duration": 80, "velocity": 101}, {"time": 25283, "pitch": 50, "duration": 80, "velocity": 101}, {"time": 25283, "pitch": 53, "duration": 80, "velocity": 101}, {"time": 25283, "pitch": 58, "duration": 90, "velocity": 101}, {"time": 25443, "pitch": 46, "duration": 109, "velocity": 117}, {"time": 25443, "pitch": 50, "duration": 129, "velocity": 117}, {"time": 25443, "pitch": 53, "duration": 119, "velocity": 117}, {"time": 25443, "pitch": 58, "duration": 119, "velocity": 117}, {"time": 25761, "pitch": 46, "duration": 80, "velocity": 117}, {"time": 25761, "pitch": 50, "duration": 80, "velocity": 117}, {"time": 25761, "pitch": 53, "duration": 80, "velocity": 117}, {"time": 25761, "pitch": 58, "duration": 80, "velocity": 117}, {"time": 25920, "pitch": 46, "duration": 130, "velocity": 117}, {"time": 25920, "pitch": 50, "duration": 130, "velocity": 117}, {"time": 25920, "pitch": 53, "duration": 130, "velocity": 117}, {"time": 25920, "pitch": 58, "duration": 130, "velocity": 117}, {"time": 26239, "pitch": 46, "duration": 69, "velocity": 97}, {"time": 26239, "pitch": 50, "duration": 69, "velocity": 97}, {"time": 26239, "pitch": 53, "duration": 69, "velocity": 97}, {"time": 26239, "pitch": 58, "duration": 69, "velocity": 97}, {"time": 26398, "pitch": 46, "duration": 129, "velocity": 117}, {"time": 26398, "pitch": 50, "duration": 139, "velocity": 117}, {"time": 26398, "pitch": 53, "duration": 139, "velocity": 117}, {"time": 26398, "pitch": 58, "duration": 129, "velocity": 117}, {"time": 26716, "pitch": 46, "duration": 90, "velocity": 108}, {"time": 26716, "pitch": 50, "duration": 90, "velocity": 108}, {"time": 26716, "pitch": 53, "duration": 100, "velocity": 108}, {"time": 26716, "pitch": 58, "duration": 100, "velocity": 108}, {"time": 26875, "pitch": 46, "duration": 133, "velocity": 117}, {"time": 26875, "pitch": 50, "duration": 143, "velocity": 117}, {"time": 26875, "pitch": 53, "duration": 143, "velocity": 117}, {"time": 26875, "pitch": 58, "duration": 143, "velocity": 117}, {"time": 27201, "pitch": 46, "duration": 61, "velocity": 104}, {"time": 27201, "pitch": 50, "duration": 71, "velocity": 104}, {"time": 27201, "pitch": 53, "duration": 81, "velocity": 104}, {"time": 27201, "pitch": 58, "duration": 71, "velocity": 104}, {"time": 27364, "pitch": 46, "duration": 109, "velocity": 117}, {"time": 27364, "pitch": 50, "duration": 119, "velocity": 117}, {"time": 27364, "pitch": 53, "duration": 129, "velocity": 117}, {"time": 27364, "pitch": 58, "duration": 129, "velocity": 117}, {"time": 27682, "pitch": 46, "duration": 100, "velocity": 113}, {"time": 27682, "pitch": 50, "duration": 90, "velocity": 113}, {"time": 27682, "pitch": 53, "duration": 100, "velocity": 113}, {"time": 27682, "pitch": 58, "duration": 100, "velocity": 113}, {"time": 27841, "pitch": 46, "duration": 120, "velocity": 117}, {"time": 27841, "pitch": 50, "duration": 120, "velocity": 117}, {"time": 27841, "pitch": 53, "duration": 130, "velocity": 117}, {"time": 27841, "pitch": 58, "duration": 120, "velocity": 117}, {"time": 28160, "pitch": 46, "duration": 59, "velocity": 101}, {"time": 28160, "pitch": 50, "duration": 69, "velocity": 101}, {"time": 28160, "pitch": 53, "duration": 69, "velocity": 101}, {"time": 28160, "pitch": 58, "duration": 69, "velocity": 101}, {"time": 28319, "pitch": 46, "duration": 129, "velocity": 117}, {"time": 28319, "pitch": 50, "duration": 139, "velocity": 117}, {"time": 28319, "pitch": 53, "duration": 139, "velocity": 117}, {"time": 28319, "pitch": 58, "duration": 139, "velocity": 117}, {"time": 28637, "pitch": 46, "duration": 80, "velocity": 111}, {"time": 28637, "pitch": 50, "duration": 80, "velocity": 111}, {"time": 28637, "pitch": 53, "duration": 90, "velocity": 111}, {"time": 28637, "pitch": 58, "duration": 80, "velocity": 111}, {"time": 28796, "pitch": 46, "duration": 112, "velocity": 115}, {"time": 28796, "pitch": 51, "duration": 112, "velocity": 115}, {"time": 28796, "pitch": 55, "duration": 112, "velocity": 115}, {"time": 28796, "pitch": 58, "duration": 102, "velocity": 115}, {"time": 29122, "pitch": 46, "duration": 51, "velocity": 94}, {"time": 29122, "pitch": 51, "duration": 51, "velocity": 94}, {"time": 29122, "pitch": 55, "duration": 61, "velocity": 94}, {"time": 29122, "pitch": 58, "duration": 61, "velocity": 94}, {"time": 29285, "pitch": 46, "duration": 119, "velocity": 117}, {"time": 29285, "pitch": 51, "duration": 109, "velocity": 117}, {"time": 29285, "pitch": 55, "duration": 119, "velocity": 117}, {"time": 29285, "pitch": 58, "duration": 109, "velocity": 117}, {"time": 29603, "pitch": 46, "duration": 70, "velocity": 104}, {"time": 29603, "pitch": 51, "duration": 70, "velocity": 104}, {"time": 29603, "pitch": 55, "duration": 60, "velocity": 104}, {"time": 29603, "pitch": 58, "duration": 50, "velocity": 104}, {"time": 29762, "pitch": 46, "duration": 100, "velocity": 117}, {"time": 29762, "pitch": 52, "duration": 90, "velocity": 117}, {"time": 29762, "pitch": 55, "duration": 100, "velocity": 117}, {"time": 29762, "pitch": 58, "duration": 110, "velocity": 117}, {"time": 30081, "pitch": 46, "duration": 50, "velocity": 85}, {"time": 30081, "pitch": 52, "duration": 50, "velocity": 85}, {"time": 30081, "pitch": 55, "duration": 40, "velocity": 85}, {"time": 30081, "pitch": 58, "duration": 50, "velocity": 85}, {"time": 30240, "pitch": 46, "duration": 99, "velocity": 117}, {"time": 30240, "pitch": 52, "duration": 109, "velocity": 117}, {"time": 30240, "pitch": 55, "duration": 109, "velocity": 117}, {"time": 30240, "pitch": 58, "duration": 109, "velocity": 117}, {"time": 30558, "pitch": 46, "duration": 50, "velocity": 104}, {"time": 30558, "pitch": 52, "duration": 70, "velocity": 104}, {"time": 30558, "pitch": 55, "duration": 70, "velocity": 104}, {"time": 30558, "pitch": 58, "duration": 60, "velocity": 104}, {"time": 30718, "pitch": 45, "duration": 79, "velocity": 117}, {"time": 30718, "pitch": 48, "duration": 79, "velocity": 117}, {"time": 30718, "pitch": 51, "duration": 89, "velocity": 117}, {"time": 30718, "pitch": 53, "duration": 69, "velocity": 117}, {"time": 30718, "pitch": 57, "duration": 79, "velocity": 117}, {"time": 31036, "pitch": 45, "duration": 60, "velocity": 102}, {"time": 31036, "pitch": 48, "duration": 70, "velocity": 102}, {"time": 31036, "pitch": 51, "duration": 60, "velocity": 102}, {"time": 31036, "pitch": 53, "duration": 70, "velocity": 102}, {"time": 31036, "pitch": 57, "duration": 70, "velocity": 102}, {"time": 31195, "pitch": 45, "duration": 122, "velocity": 115}, {"time": 31195, "pitch": 48, "duration": 132, "velocity": 115}, {"time": 31195, "pitch": 51, "duration": 132, "velocity": 115}, {"time": 31195, "pitch": 53, "duration": 132, "velocity": 115}, {"time": 31195, "pitch": 57, "duration": 122, "velocity": 115}, {"time": 31521, "pitch": 45, "duration": 71, "velocity": 109}, {"time": 31521, "pitch": 48, "duration": 91, "velocity": 109}, {"time": 31521, "pitch": 51, "duration": 81, "velocity": 109}, {"time": 31521, "pitch": 53, "duration": 91, "velocity": 109}, {"time": 31521, "pitch": 57, "duration": 81, "velocity": 109}, {"time": 31683, "pitch": 45, "duration": 130, "velocity": 112}, {"time": 31683, "pitch": 48, "duration": 140, "velocity": 112}, {"time": 31683, "pitch": 51, "duration": 130, "velocity": 112}, {"time": 31683, "pitch": 53, "duration": 130, "velocity": 112}, {"time": 31683, "pitch": 57, "duration": 130, "velocity": 112}, {"time": 32002, "pitch": 45, "duration": 50, "velocity": 89}, {"time": 32002, "pitch": 48, "duration": 60, "velocity": 89}, {"time": 32002, "pitch": 51, "duration": 50, "velocity": 89}, {"time": 32002, "pitch": 53, "duration": 60, "velocity": 89}, {"time": 32002, "pitch": 57, "duration": 60, "velocity": 89}, {"time": 32161, "pitch": 45, "duration": 110, "velocity": 115}, {"time": 32161, "pitch": 48, "duration": 110, "velocity": 115}, {"time": 32161, "pitch": 51, "duration": 110, "velocity": 115}, {"time": 32161, "pitch": 53, "duration": 110, "velocity": 115}, {"time": 32161, "pitch": 57, "duration": 110, "velocity": 115}, {"time": 32480, "pitch": 45, "duration": 69, "velocity": 98}, {"time": 32480, "pitch": 48, "duration": 69, "velocity": 98}, {"time": 32480, "pitch": 51, "duration": 79, "velocity": 98}, {"time": 32480, "pitch": 53, "duration": 69, "velocity": 98}, {"time": 32480, "pitch": 57, "duration": 69, "velocity": 98}, {"time": 32639, "pitch": 48, "duration": 109, "velocity": 115}, {"time": 32639, "pitch": 51, "duration": 109, "velocity": 115}, {"time": 32639, "pitch": 55, "duration": 109, "velocity": 115}, {"time": 32639, "pitch": 58, "duration": 99, "velocity": 115}, {"time": 32957, "pitch": 48, "duration": 50, "velocity": 94}, {"time": 32957, "pitch": 51, "duration": 50, "velocity": 94}, {"time": 32957, "pitch": 55, "duration": 60, "velocity": 94}, {"time": 32957, "pitch": 58, "duration": 60, "velocity": 94}, {"time": 33116, "pitch": 48, "duration": 122, "velocity": 117}, {"time": 33116, "pitch": 51, "duration": 112, "velocity": 117}, {"time": 33116, "pitch": 55, "duration": 122, "velocity": 117}, {"time": 33116, "pitch": 58, "duration": 112, "velocity": 117}, {"time": 33442, "pitch": 48, "duration": 71, "velocity": 104}, {"time": 33442, "pitch": 51, "duration": 71, "velocity": 104}, {"time": 33442, "pitch": 55, "duration": 61, "velocity": 104}, {"time": 33442, "pitch": 58, "duration": 51, "velocity": 104}, {"time": 33605, "pitch": 48, "duration": 99, "velocity": 117}, {"time": 33605, "pitch": 51, "duration": 89, "velocity": 117}, {"time": 33605, "pitch": 55, "duration": 99, "velocity": 117}, {"time": 33605, "pitch": 58, "duration": 109, "velocity": 117}, {"time": 33923, "pitch": 48, "duration": 50, "velocity": 85}, {"time": 33923, "pitch": 51, "duration": 50, "velocity": 85}, {"time": 33923, "pitch": 55, "duration": 40, "velocity": 85}, {"time": 33923, "pitch": 58, "duration": 50, "velocity": 85}, {"time": 34082, "pitch": 48, "duration": 100, "velocity": 117}, {"time": 34082, "pitch": 51, "duration": 110, "velocity": 117}, {"time": 34082, "pitch": 55, "duration": 110, "velocity": 117}, {"time": 34082, "pitch": 58, "duration": 110, "velocity": 117}, {"time": 34401, "pitch": 48, "duration": 49, "velocity": 104}, {"time": 34401, "pitch": 51, "duration": 69, "velocity": 104}, {"time": 34401, "pitch": 55, "duration": 69, "velocity": 104}, {"time": 34401, "pitch": 58, "duration": 59, "velocity": 104}, {"time": 34560, "pitch": 45, "duration": 79, "velocity": 117}, {"time": 34560, "pitch": 48, "duration": 79, "velocity": 117}, {"time": 34560, "pitch": 51, "duration": 89, "velocity": 117}, {"time": 34560, "pitch": 53, "duration": 69, "velocity": 117}, {"time": 34560, "pitch": 57, "duration": 79, "velocity": 117}, {"time": 34878, "pitch": 45, "duration": 60, "velocity": 102}, {"time": 34878, "pitch": 48, "duration": 70, "velocity": 102}, {"time": 34878, "pitch": 51, "duration": 60, "velocity": 102}, {"time": 34878, "pitch": 53, "duration": 70, "velocity": 102}, {"time": 34878, "pitch": 57, "duration": 70, "velocity": 102}, {"time": 35037, "pitch": 45, "duration": 120, "velocity": 115}, {"time": 35037, "pitch": 48, "duration": 130, "velocity": 115}, {"time": 35037, "pitch": 51, "duration": 130, "velocity": 115}, {"time": 35037, "pitch": 53, "duration": 130, "velocity": 115}, {"time": 35037, "pitch": 57, "duration": 120, "velocity": 115}, {"time": 35356, "pitch": 45, "duration": 69, "velocity": 109}, {"time": 35356, "pitch": 48, "duration": 89, "velocity": 109}, {"time": 35356, "pitch": 51, "duration": 79, "velocity": 109}, {"time": 35356, "pitch": 53, "duration": 89, "velocity": 109}, {"time": 35356, "pitch": 57, "duration": 79, "velocity": 109}, {"time": 35515, "pitch": 46, "duration": 122, "velocity": 117}, {"time": 35515, "pitch": 50, "duration": 122, "velocity": 117}, {"time": 35515, "pitch": 53, "duration": 132, "velocity": 117}, {"time": 35515, "pitch": 58, "duration": 132, "velocity": 117}, {"time": 35841, "pitch": 46, "duration": 61, "velocity": 106}, {"time": 35841, "pitch": 50, "duration": 71, "velocity": 106}, {"time": 35841, "pitch": 53, "duration": 71, "velocity": 106}, {"time": 35841, "pitch": 58, "duration": 71, "velocity": 106}, {"time": 36003, "pitch": 46, "duration": 120, "velocity": 117}, {"time": 36003, "pitch": 50, "duration": 110, "velocity": 117}, {"time": 36003, "pitch": 53, "duration": 110, "velocity": 117}, {"time": 36003, "pitch": 58, "duration": 110, "velocity": 117}, {"time": 36322, "pitch": 46, "duration": 79, "velocity": 113}, {"time": 36322, "pitch": 50, "duration": 89, "velocity": 113}, {"time": 36322, "pitch": 53, "duration": 79, "velocity": 113}, {"time": 36322, "pitch": 58, "duration": 89, "velocity": 113}, {"time": 36481, "pitch": 46, "duration": 99, "velocity": 112}, {"time": 36481, "pitch": 51, "duration": 109, "velocity": 112}, {"time": 36481, "pitch": 55, "duration": 109, "velocity": 112}, {"time": 36481, "pitch": 58, "duration": 109, "velocity": 112}, {"time": 36799, "pitch": 46, "duration": 40, "velocity": 102}, {"time": 36799, "pitch": 51, "duration": 50, "velocity": 102}, {"time": 36799, "pitch": 55, "duration": 60, "velocity": 102}, {"time": 36799, "pitch": 58, "duration": 60, "velocity": 102}, {"time": 36959, "pitch": 46, "duration": 119, "velocity": 115}, {"time": 36959, "pitch": 51, "duration": 129, "velocity": 115}, {"time": 36959, "pitch": 55, "duration": 119, "velocity": 115}, {"time": 36959, "pitch": 58, "duration": 119, "velocity": 115}, {"time": 37277, "pitch": 46, "duration": 99, "velocity": 109}, {"time": 37277, "pitch": 51, "duration": 99, "velocity": 109}, {"time": 37277, "pitch": 55, "duration": 90, "velocity": 109}, {"time": 37277, "pitch": 58, "duration": 90, "velocity": 109}, {"time": 37436, "pitch": 46, "duration": 112, "velocity": 112}, {"time": 37436, "pitch": 51, "duration": 122, "velocity": 112}, {"time": 37436, "pitch": 55, "duration": 122, "velocity": 112}, {"time": 37436, "pitch": 58, "duration": 122, "velocity": 112}, {"time": 37762, "pitch": 46, "duration": 61, "velocity": 96}, {"time": 37762, "pitch": 51, "duration": 51, "velocity": 96}, {"time": 37762, "pitch": 55, "duration": 61, "velocity": 96}, {"time": 37762, "pitch": 58, "duration": 61, "velocity": 96}, {"time": 37924, "pitch": 46, "duration": 110, "velocity": 117}, {"time": 37924, "pitch": 51, "duration": 120, "velocity": 117}, {"time": 37924, "pitch": 55, "duration": 120, "velocity": 117}, {"time": 37924, "pitch": 58, "duration": 120, "velocity": 117}, {"time": 38243, "pitch": 46, "duration": 79, "velocity": 109}, {"time": 38243, "pitch": 51, "duration": 79, "velocity": 109}, {"time": 38243, "pitch": 55, "duration": 89, "velocity": 109}, {"time": 38243, "pitch": 58, "duration": 79, "velocity": 109}, {"time": 38402, "pitch": 48, "duration": 110, "velocity": 115}, {"time": 38402, "pitch": 51, "duration": 110, "velocity": 115}, {"time": 38402, "pitch": 55, "duration": 110, "velocity": 115}, {"time": 38402, "pitch": 58, "duration": 100, "velocity": 115}, {"time": 38720, "pitch": 48, "duration": 50, "velocity": 94}, {"time": 38720, "pitch": 51, "duration": 50, "velocity": 94}, {"time": 38720, "pitch": 55, "duration": 60, "velocity": 94}, {"time": 38720, "pitch": 58, "duration": 60, "velocity": 94}, {"time": 38880, "pitch": 48, "duration": 119, "velocity": 117}, {"time": 38880, "pitch": 51, "duration": 109, "velocity": 117}, {"time": 38880, "pitch": 55, "duration": 119, "velocity": 117}, {"time": 38880, "pitch": 58, "duration": 109, "velocity": 117}, {"time": 39198, "pitch": 48, "duration": 70, "velocity": 104}, {"time": 39198, "pitch": 51, "duration": 70, "velocity": 104}, {"time": 39198, "pitch": 55, "duration": 60, "velocity": 104}, {"time": 39198, "pitch": 58, "duration": 50, "velocity": 104}, {"time": 39357, "pitch": 45, "duration": 130, "velocity": 112}, {"time": 39357, "pitch": 48, "duration": 140, "velocity": 112}, {"time": 39357, "pitch": 51, "duration": 130, "velocity": 112}, {"time": 39357, "pitch": 53, "duration": 130, "velocity": 112}, {"time": 39357, "pitch": 57, "duration": 130, "velocity": 112}, {"time": 39676, "pitch": 45, "duration": 49, "velocity": 89}, {"time": 39676, "pitch": 48, "duration": 59, "velocity": 89}, {"time": 39676, "pitch": 51, "duration": 49, "velocity": 89}, {"time": 39676, "pitch": 53, "duration": 59, "velocity": 89}, {"time": 39676, "pitch": 57, "duration": 59, "velocity": 89}, {"time": 39835, "pitch": 45, "duration": 112, "velocity": 115}, {"time": 39835, "pitch": 48, "duration": 112, "velocity": 115}, {"time": 39835, "pitch": 51, "duration": 112, "velocity": 115}, {"time": 39835, "pitch": 53, "duration": 112, "velocity": 115}, {"time": 39835, "pitch": 57, "duration": 112, "velocity": 115}, {"time": 40160, "pitch": 45, "duration": 72, "velocity": 98}, {"time": 40160, "pitch": 48, "duration": 72, "velocity": 98}, {"time": 40160, "pitch": 51, "duration": 82, "velocity": 98}, {"time": 40160, "pitch": 53, "duration": 72, "velocity": 98}, {"time": 40160, "pitch": 57, "duration": 72, "velocity": 98}, {"time": 40323, "pitch": 46, "duration": 70, "velocity": 117}, {"time": 40323, "pitch": 50, "duration": 70, "velocity": 117}, {"time": 40323, "pitch": 53, "duration": 80, "velocity": 117}, {"time": 40323, "pitch": 58, "duration": 80, "velocity": 117}, {"time": 42563, "pitch": 45, "duration": 79, "velocity": 112}, {"time": 42563, "pitch": 48, "duration": 79, "velocity": 112}, {"time": 42563, "pitch": 51, "duration": 79, "velocity": 112}, {"time": 42563, "pitch": 53, "duration": 79, "velocity": 112}, {"time": 42563, "pitch": 57, "duration": 79, "velocity": 112}, {"time": 42722, "pitch": 45, "duration": 129, "velocity": 117}, {"time": 42722, "pitch": 48, "duration": 139, "velocity": 117}, {"time": 42722, "pitch": 51, "duration": 129, "velocity": 117}, {"time": 42722, "pitch": 53, "duration": 129, "velocity": 117}, {"time": 42722, "pitch": 57, "duration": 129, "velocity": 117}, {"time": 43040, "pitch": 46, "duration": 60, "velocity": 117}, {"time": 43040, "pitch": 50, "duration": 50, "velocity": 117}, {"time": 43040, "pitch": 53, "duration": 60, "velocity": 117}, {"time": 43040, "pitch": 58, "duration": 60, "velocity": 117}, {"time": 44155, "pitch": 46, "duration": 122, "velocity": 117}, {"time": 44155, "pitch": 51, "duration": 122, "velocity": 117}, {"time": 44155, "pitch": 55, "duration": 122, "velocity": 117}, {"time": 44155, "pitch": 58, "duration": 112, "velocity": 117}, {"time": 44480, "pitch": 46, "duration": 51, "velocity": 98}, {"time": 44480, "pitch": 51, "duration": 51, "velocity": 98}, {"time": 44480, "pitch": 55, "duration": 61, "velocity": 98}, {"time": 44480, "pitch": 58, "duration": 61, "velocity": 98}, {"time": 44643, "pitch": 46, "duration": 119, "velocity": 112}, {"time": 44643, "pitch": 51, "duration": 109, "velocity": 112}, {"time": 44643, "pitch": 55, "duration": 109, "velocity": 112}, {"time": 44643, "pitch": 58, "duration": 119, "velocity": 112}, {"time": 44961, "pitch": 46, "duration": 80, "velocity": 109}, {"time": 44961, "pitch": 51, "duration": 70, "velocity": 109}, {"time": 44961, "pitch": 55, "duration": 70, "velocity": 109}, {"time": 44961, "pitch": 58, "duration": 70, "velocity": 109}, {"time": 45121, "pitch": 46, "duration": 119, "velocity": 115}, {"time": 45121, "pitch": 51, "duration": 119, "velocity": 115}, {"time": 45121, "pitch": 55, "duration": 129, "velocity": 115}, {"time": 45121, "pitch": 58, "duration": 129, "velocity": 115}, {"time": 45439, "pitch": 46, "duration": 60, "velocity": 91}, {"time": 45439, "pitch": 51, "duration": 50, "velocity": 91}, {"time": 45439, "pitch": 55, "duration": 50, "velocity": 91}, {"time": 45439, "pitch": 58, "duration": 50, "velocity": 91}, {"time": 45598, "pitch": 46, "duration": 100, "velocity": 112}, {"time": 45598, "pitch": 51, "duration": 110, "velocity": 112}, {"time": 45598, "pitch": 55, "duration": 110, "velocity": 112}, {"time": 45598, "pitch": 58, "duration": 110, "velocity": 112}, {"time": 45917, "pitch": 46, "duration": 89, "velocity": 112}, {"time": 45917, "pitch": 51, "duration": 79, "velocity": 112}, {"time": 45917, "pitch": 55, "duration": 89, "velocity": 112}, {"time": 45917, "pitch": 58, "duration": 79, "velocity": 112}, {"time": 46076, "pitch": 46, "duration": 102, "velocity": 117}, {"time": 46076, "pitch": 50, "duration": 102, "velocity": 117}, {"time": 46076, "pitch": 53, "duration": 102, "velocity": 117}, {"time": 46076, "pitch": 58, "duration": 102, "velocity": 117}, {"time": 46401, "pitch": 46, "duration": 82, "velocity": 104}, {"time": 46401, "pitch": 50, "duration": 82, "velocity": 104}, {"time": 46401, "pitch": 53, "duration": 92, "velocity": 104}, {"time": 46401, "pitch": 58, "duration": 82, "velocity": 104}, {"time": 46564, "pitch": 46, "duration": 129, "velocity": 117}, {"time": 46564, "pitch": 50, "duration": 120, "velocity": 117}, {"time": 46564, "pitch": 53, "duration": 120, "velocity": 117}, {"time": 46564, "pitch": 58, "duration": 139, "velocity": 117}, {"time": 46883, "pitch": 46, "duration": 89, "velocity": 117}, {"time": 46883, "pitch": 50, "duration": 89, "velocity": 117}, {"time": 46883, "pitch": 53, "duration": 89, "velocity": 117}, {"time": 46883, "pitch": 58, "duration": 89, "velocity": 117}, {"time": 47042, "pitch": 46, "duration": 119, "velocity": 117}, {"time": 47042, "pitch": 50, "duration": 119, "velocity": 117}, {"time": 47042, "pitch": 53, "duration": 129, "velocity": 117}, {"time": 47042, "pitch": 58, "duration": 129, "velocity": 117}, {"time": 47360, "pitch": 46, "duration": 70, "velocity": 99}, {"time": 47360, "pitch": 50, "duration": 70, "velocity": 99}, {"time": 47360, "pitch": 53, "duration": 70, "velocity": 99}, {"time": 47360, "pitch": 58, "duration": 70, "velocity": 99}, {"time": 47519, "pitch": 46, "duration": 130, "velocity": 117}, {"time": 47519, "pitch": 50, "duration": 120, "velocity": 117}, {"time": 47519, "pitch": 53, "duration": 120, "velocity": 117}, {"time": 47519, "pitch": 58, "duration": 120, "velocity": 117}, {"time": 47838, "pitch": 46, "duration": 69, "velocity": 108}, {"time": 47838, "pitch": 50, "duration": 69, "velocity": 108}, {"time": 47838, "pitch": 53, "duration": 79, "velocity": 108}, {"time": 47838, "pitch": 58, "duration": 79, "velocity": 108}, {"time": 47997, "pitch": 46, "duration": 102, "velocity": 115}, {"time": 47997, "pitch": 51, "duration": 102, "velocity": 115}, {"time": 47997, "pitch": 55, "duration": 102, "velocity": 115}, {"time": 47997, "pitch": 58, "duration": 102, "velocity": 115}, {"time": 48323, "pitch": 46, "duration": 61, "velocity": 85}, {"time": 48323, "pitch": 51, "duration": 61, "velocity": 85}, {"time": 48323, "pitch": 55, "duration": 71, "velocity": 85}, {"time": 48323, "pitch": 58, "duration": 71, "velocity": 85}, {"time": 48485, "pitch": 46, "duration": 120, "velocity": 117}, {"time": 48485, "pitch": 51, "duration": 130, "velocity": 117}, {"time": 48485, "pitch": 55, "duration": 120, "velocity": 117}, {"time": 48485, "pitch": 58, "duration": 120, "velocity": 117}, {"time": 48804, "pitch": 46, "duration": 79, "velocity": 107}, {"time": 48804, "pitch": 51, "duration": 69, "velocity": 107}, {"time": 48804, "pitch": 55, "duration": 69, "velocity": 107}, {"time": 48804, "pitch": 58, "duration": 59, "velocity": 107}, {"time": 48963, "pitch": 46, "duration": 129, "velocity": 115}, {"time": 48963, "pitch": 51, "duration": 129, "velocity": 115}, {"time": 48963, "pitch": 55, "duration": 139, "velocity": 115}, {"time": 48963, "pitch": 58, "duration": 139, "velocity": 115}, {"time": 49281, "pitch": 46, "duration": 40, "velocity": 88}, {"time": 49281, "pitch": 51, "duration": 40, "velocity": 88}, {"time": 49281, "pitch": 55, "duration": 60, "velocity": 88}, {"time": 49281, "pitch": 58, "duration": 60, "velocity": 88}, {"time": 49440, "pitch": 46, "duration": 120, "velocity": 117}, {"time": 49440, "pitch": 51, "duration": 120, "velocity": 117}, {"time": 49440, "pitch": 55, "duration": 120, "velocity": 117}, {"time": 49440, "pitch": 58, "duration": 120, "velocity": 117}, {"time": 49759, "pitch": 46, "duration": 79, "velocity": 107}, {"time": 49759, "pitch": 51, "duration": 70, "velocity": 107}, {"time": 49759, "pitch": 55, "duration": 70, "velocity": 107}, {"time": 49759, "pitch": 58, "duration": 60, "velocity": 107}, {"time": 49918, "pitch": 46, "duration": 119, "velocity": 117}, {"time": 49918, "pitch": 50, "duration": 119, "velocity": 117}, {"time": 49918, "pitch": 53, "duration": 119, "velocity": 117}, {"time": 49918, "pitch": 58, "duration": 110, "velocity": 117}, {"time": 50236, "pitch": 46, "duration": 60, "velocity": 92}, {"time": 50236, "pitch": 50, "duration": 60, "velocity": 92}, {"time": 50236, "pitch": 53, "duration": 70, "velocity": 92}, {"time": 50236, "pitch": 58, "duration": 70, "velocity": 92}, {"time": 50396, "pitch": 46, "duration": 122, "velocity": 117}, {"time": 50396, "pitch": 50, "duration": 112, "velocity": 117}, {"time": 50396, "pitch": 53, "duration": 112, "velocity": 117}, {"time": 50396, "pitch": 58, "duration": 112, "velocity": 117}, {"time": 50721, "pitch": 46, "duration": 92, "velocity": 111}, {"time": 50721, "pitch": 50, "duration": 82, "velocity": 111}, {"time": 50721, "pitch": 53, "duration": 82, "velocity": 111}, {"time": 50721, "pitch": 58, "duration": 71, "velocity": 111}, {"time": 50884, "pitch": 46, "duration": 139, "velocity": 117}, {"time": 50884, "pitch": 50, "duration": 149, "velocity": 117}, {"time": 50884, "pitch": 53, "duration": 149, "velocity": 117}, {"time": 50884, "pitch": 58, "duration": 139, "velocity": 117}, {"time": 51202, "pitch": 46, "duration": 80, "velocity": 102}, {"time": 51202, "pitch": 50, "duration": 80, "velocity": 102}, {"time": 51202, "pitch": 53, "duration": 70, "velocity": 102}, {"time": 51202, "pitch": 58, "duration": 70, "velocity": 102}, {"time": 51362, "pitch": 46, "duration": 129, "velocity": 117}, {"time": 51362, "pitch": 50, "duration": 129, "velocity": 117}, {"time": 51362, "pitch": 53, "duration": 129, "velocity": 117}, {"time": 51362, "pitch": 58, "duration": 129, "velocity": 117}, {"time": 51680, "pitch": 46, "duration": 60, "velocity": 104}, {"time": 51680, "pitch": 50, "duration": 60, "velocity": 104}, {"time": 51680, "pitch": 53, "duration": 70, "velocity": 104}, {"time": 51680, "pitch": 58, "duration": 60, "velocity": 104}, {"time": 51839, "pitch": 46, "duration": 100, "velocity": 112}, {"time": 51839, "pitch": 51, "duration": 100, "velocity": 112}, {"time": 51839, "pitch": 55, "duration": 100, "velocity": 112}, {"time": 51839, "pitch": 58, "duration": 90, "velocity": 112}, {"time": 52158, "pitch": 46, "duration": 69, "velocity": 96}, {"time": 52158, "pitch": 51, "duration": 79, "velocity": 96}, {"time": 52158, "pitch": 55, "duration": 79, "velocity": 96}, {"time": 52158, "pitch": 58, "duration": 79, "velocity": 96}, {"time": 52317, "pitch": 46, "duration": 142, "velocity": 117}, {"time": 52317, "pitch": 51, "duration": 142, "velocity": 117}, {"time": 52317, "pitch": 55, "duration": 142, "velocity": 117}, {"time": 52317, "pitch": 58, "duration": 132, "velocity": 117}, {"time": 52642, "pitch": 46, "duration": 72, "velocity": 104}, {"time": 52642, "pitch": 51, "duration": 82, "velocity": 104}, {"time": 52642, "pitch": 55, "duration": 82, "velocity": 104}, {"time": 52642, "pitch": 58, "duration": 82, "velocity": 104}, {"time": 52805, "pitch": 46, "duration": 139, "velocity": 112}, {"time": 52805, "pitch": 51, "duration": 139, "velocity": 112}, {"time": 52805, "pitch": 55, "duration": 149, "velocity": 112}, {"time": 52805, "pitch": 58, "duration": 139, "velocity": 112}, {"time": 53123, "pitch": 46, "duration": 50, "velocity": 86}, {"time": 53123, "pitch": 51, "duration": 50, "velocity": 86}, {"time": 53123, "pitch": 55, "duration": 40, "velocity": 86}, {"time": 53123, "pitch": 58, "duration": 50, "velocity": 86}, {"time": 53283, "pitch": 46, "duration": 109, "velocity": 117}, {"time": 53283, "pitch": 51, "duration": 109, "velocity": 117}, {"time": 53283, "pitch": 55, "duration": 109, "velocity": 117}, {"time": 53283, "pitch": 58, "duration": 109, "velocity": 117}, {"time": 53601, "pitch": 46, "duration": 70, "velocity": 107}, {"time": 53601, "pitch": 51, "duration": 70, "velocity": 107}, {"time": 53601, "pitch": 55, "duration": 60, "velocity": 107}, {"time": 53601, "pitch": 58, "duration": 60, "velocity": 107}, {"time": 53760, "pitch": 46, "duration": 110, "velocity": 117}, {"time": 53760, "pitch": 50, "duration": 100, "velocity": 117}, {"time": 53760, "pitch": 53, "duration": 110, "velocity": 117}, {"time": 53760, "pitch": 58, "duration": 110, "velocity": 117}, {"time": 54079, "pitch": 46, "duration": 69, "velocity": 102}, {"time": 54079, "pitch": 50, "duration": 79, "velocity": 102}, {"time": 54079, "pitch": 53, "duration": 79, "velocity": 102}, {"time": 54079, "pitch": 58, "duration": 79, "velocity": 102}, {"time": 54238, "pitch": 46, "duration": 129, "velocity": 117}, {"time": 54238, "pitch": 50, "duration": 129, "velocity": 117}, {"time": 54238, "pitch": 53, "duration": 129, "velocity": 117}, {"time": 54238, "pitch": 58, "duration": 129, "velocity": 117}, {"time": 54556, "pitch": 46, "duration": 100, "velocity": 117}, {"time": 54556, "pitch": 50, "duration": 110, "velocity": 117}, {"time": 54556, "pitch": 53, "duration": 110, "velocity": 117}, {"time": 54556, "pitch": 58, "duration": 110, "velocity": 117}, {"time": 54716, "pitch": 46, "duration": 172, "velocity": 117}, {"time": 54716, "pitch": 50, "duration": 152, "velocity": 117}, {"time": 54716, "pitch": 53, "duration": 152, "velocity": 117}, {"time": 54716, "pitch": 58, "duration": 162, "velocity": 117}, {"time": 55041, "pitch": 46, "duration": 71, "velocity": 104}, {"time": 55041, "pitch": 50, "duration": 81, "velocity": 104}, {"time": 55041, "pitch": 53, "duration": 81, "velocity": 104}, {"time": 55041, "pitch": 58, "duration": 81, "velocity": 104}, {"time": 55204, "pitch": 46, "duration": 119, "velocity": 117}, {"time": 55204, "pitch": 50, "duration": 119, "velocity": 117}, {"time": 55204, "pitch": 53, "duration": 119, "velocity": 117}, {"time": 55204, "pitch": 58, "duration": 119, "velocity": 117}, {"time": 55522, "pitch": 46, "duration": 70, "velocity": 101}, {"time": 55522, "pitch": 50, "duration": 70, "velocity": 101}, {"time": 55522, "pitch": 53, "duration": 70, "velocity": 101}, {"time": 55522, "pitch": 58, "duration": 70, "velocity": 101}, {"time": 55681, "pitch": 43, "duration": 120, "velocity": 117}, {"time": 55681, "pitch": 48, "duration": 120, "velocity": 117}, {"time": 55681, "pitch": 52, "duration": 120, "velocity": 117}, {"time": 55681, "pitch": 58, "duration": 130, "velocity": 117}, {"time": 55681, "pitch": 60, "duration": 130, "velocity": 117}, {"time": 56000, "pitch": 43, "duration": 69, "velocity": 94}, {"time": 56000, "pitch": 48, "duration": 69, "velocity": 94}, {"time": 56000, "pitch": 52, "duration": 69, "velocity": 94}, {"time": 56000, "pitch": 58, "duration": 69, "velocity": 94}, {"time": 56000, "pitch": 60, "duration": 79, "velocity": 94}, {"time": 56159, "pitch": 43, "duration": 129, "velocity": 117}, {"time": 56159, "pitch": 48, "duration": 139, "velocity": 117}, {"time": 56159, "pitch": 52, "duration": 139, "velocity": 117}, {"time": 56159, "pitch": 58, "duration": 139, "velocity": 117}, {"time": 56159, "pitch": 60, "duration": 139, "velocity": 117}, {"time": 56477, "pitch": 43, "duration": 70, "velocity": 106}, {"time": 56477, "pitch": 48, "duration": 70, "velocity": 106}, {"time": 56477, "pitch": 52, "duration": 80, "velocity": 106}, {"time": 56477, "pitch": 58, "duration": 80, "velocity": 106}, {"time": 56477, "pitch": 60, "duration": 70, "velocity": 106}, {"time": 56637, "pitch": 43, "duration": 152, "velocity": 117}, {"time": 56637, "pitch": 48, "duration": 152, "velocity": 117}, {"time": 56637, "pitch": 52, "duration": 152, "velocity": 117}, {"time": 56637, "pitch": 58, "duration": 152, "velocity": 117}, {"time": 56637, "pitch": 60, "duration": 162, "velocity": 117}, {"time": 56962, "pitch": 43, "duration": 61, "velocity": 99}, {"time": 56962, "pitch": 48, "duration": 71, "velocity": 99}, {"time": 56962, "pitch": 52, "duration": 71, "velocity": 99}, {"time": 56962, "pitch": 58, "duration": 71, "velocity": 99}, {"time": 56962, "pitch": 60, "duration": 71, "velocity": 99}, {"time": 57125, "pitch": 43, "duration": 119, "velocity": 117}, {"time": 57125, "pitch": 48, "duration": 119, "velocity": 117}, {"time": 57125, "pitch": 52, "duration": 119, "velocity": 117}, {"time": 57125, "pitch": 58, "duration": 119, "velocity": 117}, {"time": 57125, "pitch": 60, "duration": 119, "velocity": 117}, {"time": 57443, "pitch": 43, "duration": 60, "velocity": 106}, {"time": 57443, "pitch": 48, "duration": 80, "velocity": 106}, {"time": 57443, "pitch": 52, "duration": 70, "velocity": 106}, {"time": 57443, "pitch": 58, "duration": 70, "velocity": 106}, {"time": 57443, "pitch": 60, "duration": 70, "velocity": 106}, {"time": 57603, "pitch": 45, "duration": 99, "velocity": 115}, {"time": 57603, "pitch": 48, "duration": 99, "velocity": 115}, {"time": 57603, "pitch": 51, "duration": 109, "velocity": 115}, {"time": 57603, "pitch": 53, "duration": 99, "velocity": 115}, {"time": 57603, "pitch": 57, "duration": 89, "velocity": 115}, {"time": 57921, "pitch": 45, "duration": 50, "velocity": 100}, {"time": 57921, "pitch": 48, "duration": 60, "velocity": 100}, {"time": 57921, "pitch": 51, "duration": 60, "velocity": 100}, {"time": 57921, "pitch": 53, "duration": 60, "velocity": 100}, {"time": 57921, "pitch": 57, "duration": 70, "velocity": 100}, {"time": 58080, "pitch": 45, "duration": 120, "velocity": 115}, {"time": 58080, "pitch": 48, "duration": 120, "velocity": 115}, {"time": 58080, "pitch": 51, "duration": 110, "velocity": 115}, {"time": 58080, "pitch": 53, "duration": 120, "velocity": 115}, {"time": 58080, "pitch": 57, "duration": 100, "velocity": 115}, {"time": 58399, "pitch": 45, "duration": 59, "velocity": 107}, {"time": 58399, "pitch": 48, "duration": 69, "velocity": 107}, {"time": 58399, "pitch": 51, "duration": 59, "velocity": 107}, {"time": 58399, "pitch": 53, "duration": 69, "velocity": 107}, {"time": 58399, "pitch": 57, "duration": 69, "velocity": 107}, {"time": 58558, "pitch": 45, "duration": 89, "velocity": 115}, {"time": 58558, "pitch": 48, "duration": 99, "velocity": 115}, {"time": 58558, "pitch": 51, "duration": 89, "velocity": 115}, {"time": 58558, "pitch": 53, "duration": 99, "velocity": 115}, {"time": 58558, "pitch": 57, "duration": 109, "velocity": 115}, {"time": 58876, "pitch": 45, "duration": 50, "velocity": 94}, {"time": 58876, "pitch": 48, "duration": 60, "velocity": 94}, {"time": 58876, "pitch": 51, "duration": 50, "velocity": 94}, {"time": 58876, "pitch": 53, "duration": 60, "velocity": 94}, {"time": 58876, "pitch": 57, "duration": 60, "velocity": 94}, {"time": 59035, "pitch": 45, "duration": 122, "velocity": 115}, {"time": 59035, "pitch": 48, "duration": 112, "velocity": 115}, {"time": 59035, "pitch": 51, "duration": 122, "velocity": 115}, {"time": 59035, "pitch": 53, "duration": 122, "velocity": 115}, {"time": 59035, "pitch": 57, "duration": 133, "velocity": 115}, {"time": 59361, "pitch": 45, "duration": 91, "velocity": 100}, {"time": 59361, "pitch": 48, "duration": 81, "velocity": 100}, {"time": 59361, "pitch": 51, "duration": 91, "velocity": 100}, {"time": 59361, "pitch": 53, "duration": 71, "velocity": 100}, {"time": 59361, "pitch": 57, "duration": 61, "velocity": 100}, {"time": 59524, "pitch": 46, "duration": 119, "velocity": 117}, {"time": 59524, "pitch": 50, "duration": 119, "velocity": 117}, {"time": 59524, "pitch": 53, "duration": 129, "velocity": 117}, {"time": 59524, "pitch": 58, "duration": 129, "velocity": 117}, {"time": 59842, "pitch": 46, "duration": 80, "velocity": 101}, {"time": 59842, "pitch": 50, "duration": 80, "velocity": 101}, {"time": 59842, "pitch": 53, "duration": 80, "velocity": 101}, {"time": 59842, "pitch": 58, "duration": 90, "velocity": 101}, {"time": 60001, "pitch": 46, "duration": 110, "velocity": 117}, {"time": 60001, "pitch": 50, "duration": 130, "velocity": 117}, {"time": 60001, "pitch": 53, "duration": 120, "velocity": 117}, {"time": 60001, "pitch": 58, "duration": 120, "velocity": 117}, {"time": 60320, "pitch": 46, "duration": 79, "velocity": 117}, {"time": 60320, "pitch": 50, "duration": 79, "velocity": 117}, {"time": 60320, "pitch": 53, "duration": 79, "velocity": 117}, {"time": 60320, "pitch": 58, "duration": 79, "velocity": 117}, {"time": 60479, "pitch": 46, "duration": 129, "velocity": 117}, {"time": 60479, "pitch": 50, "duration": 129, "velocity": 117}, {"time": 60479, "pitch": 53, "duration": 129, "velocity": 117}, {"time": 60479, "pitch": 58, "duration": 129, "velocity": 117}, {"time": 60797, "pitch": 46, "duration": 70, "velocity": 97}, {"time": 60797, "pitch": 50, "duration": 70, "velocity": 97}, {"time": 60797, "pitch": 53, "duration": 70, "velocity": 97}, {"time": 60797, "pitch": 58, "duration": 70, "velocity": 97}, {"time": 60956, "pitch": 46, "duration": 133, "velocity": 117}, {"time": 60956, "pitch": 50, "duration": 143, "velocity": 117}, {"time": 60956, "pitch": 53, "duration": 143, "velocity": 117}, {"time": 60956, "pitch": 58, "duration": 133, "velocity": 117}, {"time": 61282, "pitch": 46, "duration": 92, "velocity": 108}, {"time": 61282, "pitch": 50, "duration": 92, "velocity": 108}, {"time": 61282, "pitch": 53, "duration": 102, "velocity": 108}, {"time": 61282, "pitch": 58, "duration": 102, "velocity": 108}, {"time": 61445, "pitch": 46, "duration": 129, "velocity": 117}, {"time": 61445, "pitch": 50, "duration": 139, "velocity": 117}, {"time": 61445, "pitch": 53, "duration": 139, "velocity": 117}, {"time": 61445, "pitch": 58, "duration": 139, "velocity": 117}, {"time": 61763, "pitch": 46, "duration": 60, "velocity": 104}, {"time": 61763, "pitch": 50, "duration": 70, "velocity": 104}, {"time": 61763, "pitch": 53, "duration": 80, "velocity": 104}, {"time": 61763, "pitch": 58, "duration": 70, "velocity": 104}, {"time": 61922, "pitch": 46, "duration": 110, "velocity": 117}, {"time": 61922, "pitch": 50, "duration": 120, "velocity": 117}, {"time": 61922, "pitch": 53, "duration": 130, "velocity": 117}, {"time": 61922, "pitch": 58, "duration": 130, "velocity": 117}, {"time": 62241, "pitch": 46, "duration": 99, "velocity": 113}, {"time": 62241, "pitch": 50, "duration": 89, "velocity": 113}, {"time": 62241, "pitch": 53, "duration": 99, "velocity": 113}, {"time": 62241, "pitch": 58, "duration": 99, "velocity": 113}, {"time": 62400, "pitch": 46, "duration": 119, "velocity": 117}, {"time": 62400, "pitch": 50, "duration": 119, "velocity": 117}, {"time": 62400, "pitch": 53, "duration": 129, "velocity": 117}, {"time": 62400, "pitch": 58, "duration": 119, "velocity": 117}, {"time": 62718, "pitch": 46, "duration": 60, "velocity": 101}, {"time": 62718, "pitch": 50, "duration": 70, "velocity": 101}, {"time": 62718, "pitch": 53, "duration": 70, "velocity": 101}, {"time": 62718, "pitch": 58, "duration": 70, "velocity": 101}, {"time": 62878, "pitch": 46, "duration": 129, "velocity": 117}, {"time": 62878, "pitch": 50, "duration": 139, "velocity": 117}, {"time": 62878, "pitch": 53, "duration": 139, "velocity": 117}, {"time": 62878, "pitch": 58, "duration": 139, "velocity": 117}, {"time": 63196, "pitch": 46, "duration": 80, "velocity": 111}, {"time": 63196, "pitch": 50, "duration": 80, "velocity": 111}, {"time": 63196, "pitch": 53, "duration": 90, "velocity": 111}, {"time": 63196, "pitch": 58, "duration": 80, "velocity": 111}, {"time": 63355, "pitch": 46, "duration": 102, "velocity": 112}, {"time": 63355, "pitch": 51, "duration": 112, "velocity": 112}, {"time": 63355, "pitch": 55, "duration": 112, "velocity": 112}, {"time": 63355, "pitch": 58, "duration": 112, "velocity": 112}, {"time": 63681, "pitch": 46, "duration": 40, "velocity": 102}, {"time": 63681, "pitch": 51, "duration": 51, "velocity": 102}, {"time": 63681, "pitch": 55, "duration": 61, "velocity": 102}, {"time": 63681, "pitch": 58, "duration": 61, "velocity": 102}, {"time": 63843, "pitch": 46, "duration": 120, "velocity": 115}, {"time": 63843, "pitch": 51, "duration": 130, "velocity": 115}, {"time": 63843, "pitch": 55, "duration": 120, "velocity": 115}, {"time": 63843, "pitch": 58, "duration": 120, "velocity": 115}, {"time": 64162, "pitch": 46, "duration": 99, "velocity": 109}, {"time": 64162, "pitch": 51, "duration": 99, "velocity": 109}, {"time": 64162, "pitch": 55, "duration": 89, "velocity": 109}, {"time": 64162, "pitch": 58, "duration": 89, "velocity": 109}, {"time": 64321, "pitch": 46, "duration": 110, "velocity": 112}, {"time": 64321, "pitch": 51, "duration": 119, "velocity": 112}, {"time": 64321, "pitch": 55, "duration": 119, "velocity": 112}, {"time": 64321, "pitch": 58, "duration": 119, "velocity": 112}, {"time": 64639, "pitch": 46, "duration": 60, "velocity": 96}, {"time": 64639, "pitch": 51, "duration": 50, "velocity": 96}, {"time": 64639, "pitch": 55, "duration": 60, "velocity": 96}, {"time": 64639, "pitch": 58, "duration": 60, "velocity": 96}, {"time": 64799, "pitch": 46, "duration": 109, "velocity": 117}, {"time": 64799, "pitch": 51, "duration": 119, "velocity": 117}, {"time": 64799, "pitch": 55, "duration": 119, "velocity": 117}, {"time": 64799, "pitch": 58, "duration": 119, "velocity": 117}, {"time": 65117, "pitch": 46, "duration": 80, "velocity": 109}, {"time": 65117, "pitch": 51, "duration": 80, "velocity": 109}, {"time": 65117, "pitch": 55, "duration": 90, "velocity": 109}, {"time": 65117, "pitch": 58, "duration": 80, "velocity": 109}, {"time": 65276, "pitch": 48, "duration": 112, "velocity": 115}, {"time": 65276, "pitch": 51, "duration": 112, "velocity": 115}, {"time": 65276, "pitch": 55, "duration": 112, "velocity": 115}, {"time": 65276, "pitch": 58, "duration": 102, "velocity": 115}, {"time": 65602, "pitch": 48, "duration": 51, "velocity": 94}, {"time": 65602, "pitch": 51, "duration": 51, "velocity": 94}, {"time": 65602, "pitch": 55, "duration": 61, "velocity": 94}, {"time": 65602, "pitch": 58, "duration": 61, "velocity": 94}, {"time": 65765, "pitch": 48, "duration": 119, "velocity": 117}, {"time": 65765, "pitch": 51, "duration": 109, "velocity": 117}, {"time": 65765, "pitch": 55, "duration": 119, "velocity": 117}, {"time": 65765, "pitch": 58, "duration": 109, "velocity": 117}, {"time": 66083, "pitch": 48, "duration": 70, "velocity": 104}, {"time": 66083, "pitch": 51, "duration": 70, "velocity": 104}, {"time": 66083, "pitch": 55, "duration": 60, "velocity": 104}, {"time": 66083, "pitch": 58, "duration": 50, "velocity": 104}, {"time": 66242, "pitch": 45, "duration": 130, "velocity": 112}, {"time": 66242, "pitch": 48, "duration": 140, "velocity": 112}, {"time": 66242, "pitch": 51, "duration": 130, "velocity": 112}, {"time": 66242, "pitch": 53, "duration": 130, "velocity": 112}, {"time": 66242, "pitch": 57, "duration": 130, "velocity": 112}, {"time": 66561, "pitch": 45, "duration": 49, "velocity": 89}, {"time": 66561, "pitch": 48, "duration": 59, "velocity": 89}, {"time": 66561, "pitch": 51, "duration": 49, "velocity": 89}, {"time": 66561, "pitch": 53, "duration": 59, "velocity": 89}, {"time": 66561, "pitch": 57, "duration": 59, "velocity": 89}, {"time": 66720, "pitch": 45, "duration": 109, "velocity": 115}, {"time": 66720, "pitch": 48, "duration": 109, "velocity": 115}, {"time": 66720, "pitch": 51, "duration": 109, "velocity": 115}, {"time": 66720, "pitch": 53, "duration": 109, "velocity": 115}, {"time": 66720, "pitch": 57, "duration": 109, "velocity": 115}, {"time": 67038, "pitch": 45, "duration": 70, "velocity": 98}, {"time": 67038, "pitch": 48, "duration": 70, "velocity": 98}, {"time": 67038, "pitch": 51, "duration": 80, "velocity": 98}, {"time": 67038, "pitch": 53, "duration": 70, "velocity": 98}, {"time": 67038, "pitch": 57, "duration": 70, "velocity": 98}, {"time": 67197, "pitch": 46, "duration": 120, "velocity": 117}, {"time": 67197, "pitch": 50, "duration": 120, "velocity": 117}, {"time": 67197, "pitch": 53, "duration": 130, "velocity": 117}, {"time": 67197, "pitch": 58, "duration": 130, "velocity": 117}, {"time": 67516, "pitch": 46, "duration": 79, "velocity": 101}, {"time": 67516, "pitch": 50, "duration": 79, "velocity": 101}, {"time": 67516, "pitch": 53, "duration": 79, "velocity": 101}, {"time": 67516, "pitch": 58, "duration": 89, "velocity": 101}, {"time": 67675, "pitch": 46, "duration": 112, "velocity": 117}, {"time": 67675, "pitch": 50, "duration": 132, "velocity": 117}, {"time": 67675, "pitch": 53, "duration": 122, "velocity": 117}, {"time": 67675, "pitch": 58, "duration": 122, "velocity": 117}, {"time": 68001, "pitch": 46, "duration": 81, "velocity": 117}, {"time": 68001, "pitch": 50, "duration": 81, "velocity": 117}, {"time": 68001, "pitch": 53, "duration": 81, "velocity": 117}, {"time": 68001, "pitch": 58, "duration": 81, "velocity": 117}, {"time": 68163, "pitch": 46, "duration": 130, "velocity": 117}, {"time": 68163, "pitch": 50, "duration": 130, "velocity": 117}, {"time": 68163, "pitch": 53, "duration": 130, "velocity": 117}, {"time": 68163, "pitch": 58, "duration": 130, "velocity": 117}, {"time": 68482, "pitch": 46, "duration": 69, "velocity": 97}, {"time": 68482, "pitch": 50, "duration": 69, "velocity": 97}, {"time": 68482, "pitch": 53, "duration": 69, "velocity": 97}, {"time": 68482, "pitch": 58, "duration": 69, "velocity": 97}, {"time": 68641, "pitch": 46, "duration": 129, "velocity": 117}, {"time": 68641, "pitch": 50, "duration": 139, "velocity": 117}, {"time": 68641, "pitch": 53, "duration": 139, "velocity": 117}, {"time": 68641, "pitch": 58, "duration": 129, "velocity": 117}, {"time": 68959, "pitch": 46, "duration": 90, "velocity": 108}, {"time": 68959, "pitch": 50, "duration": 90, "velocity": 108}, {"time": 68959, "pitch": 53, "duration": 100, "velocity": 108}, {"time": 68959, "pitch": 58, "duration": 100, "velocity": 108}, {"time": 69119, "pitch": 46, "duration": 129, "velocity": 117}, {"time": 69119, "pitch": 50, "duration": 139, "velocity": 117}, {"time": 69119, "pitch": 53, "duration": 139, "velocity": 117}, {"time": 69119, "pitch": 58, "duration": 139, "velocity": 117}, {"time": 69437, "pitch": 46, "duration": 60, "velocity": 104}, {"time": 69437, "pitch": 50, "duration": 70, "velocity": 104}, {"time": 69437, "pitch": 53, "duration": 80, "velocity": 104}, {"time": 69437, "pitch": 58, "duration": 70, "velocity": 104}, {"time": 69596, "pitch": 46, "duration": 112, "velocity": 117}, {"time": 69596, "pitch": 50, "duration": 122, "velocity": 117}, {"time": 69596, "pitch": 53, "duration": 132, "velocity": 117}, {"time": 69596, "pitch": 58, "duration": 132, "velocity": 117}, {"time": 69922, "pitch": 46, "duration": 101, "velocity": 113}, {"time": 69922, "pitch": 50, "duration": 91, "velocity": 113}, {"time": 69922, "pitch": 53, "duration": 101, "velocity": 113}, {"time": 69922, "pitch": 58, "duration": 101, "velocity": 113}, {"time": 70084, "pitch": 46, "duration": 120, "velocity": 117}, {"time": 70084, "pitch": 50, "duration": 120, "velocity": 117}, {"time": 70084, "pitch": 53, "duration": 130, "velocity": 117}, {"time": 70084, "pitch": 58, "duration": 120, "velocity": 117}, {"time": 70403, "pitch": 46, "duration": 60, "velocity": 101}, {"time": 70403, "pitch": 50, "duration": 69, "velocity": 101}, {"time": 70403, "pitch": 53, "duration": 69, "velocity": 101}, {"time": 70403, "pitch": 58, "duration": 69, "velocity": 101}, {"time": 70562, "pitch": 46, "duration": 129, "velocity": 117}, {"time": 70562, "pitch": 50, "duration": 139, "velocity": 117}, {"time": 70562, "pitch": 53, "duration": 139, "velocity": 117}, {"time": 70562, "pitch": 58, "duration": 139, "velocity": 117}, {"time": 70880, "pitch": 46, "duration": 80, "velocity": 111}, {"time": 70880, "pitch": 50, "duration": 80, "velocity": 111}, {"time": 70880, "pitch": 53, "duration": 90, "velocity": 111}, {"time": 70880, "pitch": 58, "duration": 80, "velocity": 111}, {"time": 71040, "pitch": 46, "duration": 109, "velocity": 115}, {"time": 71040, "pitch": 51, "duration": 109, "velocity": 115}, {"time": 71040, "pitch": 55, "duration": 109, "velocity": 115}, {"time": 71040, "pitch": 58, "duration": 99, "velocity": 115}, {"time": 71358, "pitch": 46, "duration": 50, "velocity": 94}, {"time": 71358, "pitch": 51, "duration": 50, "velocity": 94}, {"time": 71358, "pitch": 55, "duration": 60, "velocity": 94}, {"time": 71358, "pitch": 58, "duration": 60, "velocity": 94}, {"time": 71517, "pitch": 46, "duration": 120, "velocity": 117}, {"time": 71517, "pitch": 51, "duration": 110, "velocity": 117}, {"time": 71517, "pitch": 55, "duration": 120, "velocity": 117}, {"time": 71517, "pitch": 58, "duration": 110, "velocity": 117}, {"time": 71836, "pitch": 46, "duration": 69, "velocity": 104}, {"time": 71836, "pitch": 51, "duration": 69, "velocity": 104}, {"time": 71836, "pitch": 55, "duration": 59, "velocity": 104}, {"time": 71836, "pitch": 58, "duration": 49, "velocity": 104}, {"time": 71995, "pitch": 46, "duration": 102, "velocity": 117}, {"time": 71995, "pitch": 52, "duration": 91, "velocity": 117}, {"time": 71995, "pitch": 55, "duration": 102, "velocity": 117}, {"time": 71995, "pitch": 58, "duration": 112, "velocity": 117}, {"time": 72320, "pitch": 46, "duration": 51, "velocity": 85}, {"time": 72320, "pitch": 52, "duration": 51, "velocity": 85}, {"time": 72320, "pitch": 55, "duration": 41, "velocity": 85}, {"time": 72320, "pitch": 58, "duration": 51, "velocity": 85}, {"time": 72483, "pitch": 46, "duration": 100, "velocity": 117}, {"time": 72483, "pitch": 52, "duration": 110, "velocity": 117}, {"time": 72483, "pitch": 55, "duration": 110, "velocity": 117}, {"time": 72483, "pitch": 58, "duration": 110, "velocity": 117}, {"time": 72802, "pitch": 46, "duration": 49, "velocity": 104}, {"time": 72802, "pitch": 52, "duration": 69, "velocity": 104}, {"time": 72802, "pitch": 55, "duration": 69, "velocity": 104}, {"time": 72802, "pitch": 58, "duration": 59, "velocity": 104}, {"time": 72961, "pitch": 45, "duration": 79, "velocity": 117}, {"time": 72961, "pitch": 48, "duration": 79, "velocity": 117}, {"time": 72961, "pitch": 51, "duration": 89, "velocity": 117}, {"time": 72961, "pitch": 53, "duration": 69, "velocity": 117}, {"time": 72961, "pitch": 57, "duration": 79, "velocity": 117}, {"time": 73279, "pitch": 45, "duration": 60, "velocity": 102}, {"time": 73279, "pitch": 48, "duration": 70, "velocity": 102}, {"time": 73279, "pitch": 51, "duration": 60, "velocity": 102}, {"time": 73279, "pitch": 53, "duration": 70, "velocity": 102}, {"time": 73279, "pitch": 57, "duration": 70, "velocity": 102}, {"time": 73438, "pitch": 45, "duration": 120, "velocity": 115}, {"time": 73438, "pitch": 48, "duration": 130, "velocity": 115}, {"time": 73438, "pitch": 51, "duration": 130, "velocity": 115}, {"time": 73438, "pitch": 53, "duration": 130, "velocity": 115}, {"time": 73438, "pitch": 57, "duration": 120, "velocity": 115}, {"time": 73757, "pitch": 45, "duration": 69, "velocity": 109}, {"time": 73757, "pitch": 48, "duration": 89, "velocity": 109}, {"time": 73757, "pitch": 51, "duration": 79, "velocity": 109}, {"time": 73757, "pitch": 53, "duration": 89, "velocity": 109}, {"time": 73757, "pitch": 57, "duration": 79, "velocity": 109}, {"time": 73916, "pitch": 45, "duration": 132, "velocity": 112}, {"time": 73916, "pitch": 48, "duration": 142, "velocity": 112}, {"time": 73916, "pitch": 51, "duration": 132, "velocity": 112}, {"time": 73916, "pitch": 53, "duration": 132, "velocity": 112}, {"time": 73916, "pitch": 57, "duration": 132, "velocity": 112}, {"time": 74242, "pitch": 45, "duration": 50, "velocity": 89}, {"time": 74242, "pitch": 48, "duration": 61, "velocity": 89}, {"time": 74242, "pitch": 51, "duration": 50, "velocity": 89}, {"time": 74242, "pitch": 53, "duration": 61, "velocity": 89}, {"time": 74242, "pitch": 57, "duration": 61, "velocity": 89}, {"time": 74404, "pitch": 45, "duration": 110, "velocity": 115}, {"time": 74404, "pitch": 48, "duration": 110, "velocity": 115}, {"time": 74404, "pitch": 51, "duration": 110, "velocity": 115}, {"time": 74404, "pitch": 53, "duration": 110, "velocity": 115}, {"time": 74404, "pitch": 57, "duration": 110, "velocity": 115}, {"time": 74723, "pitch": 45, "duration": 69, "velocity": 98}, {"time": 74723, "pitch": 48, "duration": 69, "velocity": 98}, {"time": 74723, "pitch": 51, "duration": 79, "velocity": 98}, {"time": 74723, "pitch": 53, "duration": 69, "velocity": 98}, {"time": 74723, "pitch": 57, "duration": 69, "velocity": 98}, {"time": 74882, "pitch": 48, "duration": 109, "velocity": 115}, {"time": 74882, "pitch": 51, "duration": 109, "velocity": 115}, {"time": 74882, "pitch": 55, "duration": 109, "velocity": 115}, {"time": 74882, "pitch": 58, "duration": 99, "velocity": 115}, {"time": 75200, "pitch": 48, "duration": 50, "velocity": 94}, {"time": 75200, "pitch": 51, "duration": 50, "velocity": 94}, {"time": 75200, "pitch": 55, "duration": 60, "velocity": 94}, {"time": 75200, "pitch": 58, "duration": 60, "velocity": 94}, {"time": 75359, "pitch": 48, "duration": 120, "velocity": 117}, {"time": 75359, "pitch": 51, "duration": 110, "velocity": 117}, {"time": 75359, "pitch": 55, "duration": 120, "velocity": 117}, {"time": 75359, "pitch": 58, "duration": 110, "velocity": 117}, {"time": 75678, "pitch": 48, "duration": 70, "velocity": 104}, {"time": 75678, "pitch": 51, "duration": 70, "velocity": 104}, {"time": 75678, "pitch": 55, "duration": 60, "velocity": 104}, {"time": 75678, "pitch": 58, "duration": 50, "velocity": 104}, {"time": 75837, "pitch": 48, "duration": 100, "velocity": 117}, {"time": 75837, "pitch": 51, "duration": 90, "velocity": 117}, {"time": 75837, "pitch": 55, "duration": 100, "velocity": 117}, {"time": 75837, "pitch": 58, "duration": 110, "velocity": 117}, {"time": 76156, "pitch": 48, "duration": 49, "velocity": 85}, {"time": 76156, "pitch": 51, "duration": 49, "velocity": 85}, {"time": 76156, "pitch": 55, "duration": 39, "velocity": 85}, {"time": 76156, "pitch": 58, "duration": 49, "velocity": 85}, {"time": 76315, "pitch": 48, "duration": 101, "velocity": 117}, {"time": 76315, "pitch": 51, "duration": 112, "velocity": 117}, {"time": 76315, "pitch": 55, "duration": 112, "velocity": 117}, {"time": 76315, "pitch": 58, "duration": 112, "velocity": 117}, {"time": 76640, "pitch": 48, "duration": 51, "velocity": 104}, {"time": 76640, "pitch": 51, "duration": 71, "velocity": 104}, {"time": 76640, "pitch": 55, "duration": 71, "velocity": 104}, {"time": 76640, "pitch": 58, "duration": 61, "velocity": 104}, {"time": 76803, "pitch": 45, "duration": 80, "velocity": 117}, {"time": 76803, "pitch": 48, "duration": 80, "velocity": 117}, {"time": 76803, "pitch": 51, "duration": 90, "velocity": 117}, {"time": 76803, "pitch": 53, "duration": 70, "velocity": 117}, {"time": 76803, "pitch": 57, "duration": 80, "velocity": 117}, {"time": 77121, "pitch": 45, "duration": 60, "velocity": 102}, {"time": 77121, "pitch": 48, "duration": 70, "velocity": 102}, {"time": 77121, "pitch": 51, "duration": 60, "velocity": 102}, {"time": 77121, "pitch": 53, "duration": 70, "velocity": 102}, {"time": 77121, "pitch": 57, "duration": 70, "velocity": 102}, {"time": 77281, "pitch": 45, "duration": 119, "velocity": 115}, {"time": 77281, "pitch": 48, "duration": 129, "velocity": 115}, {"time": 77281, "pitch": 51, "duration": 129, "velocity": 115}, {"time": 77281, "pitch": 53, "duration": 129, "velocity": 115}, {"time": 77281, "pitch": 57, "duration": 119, "velocity": 115}, {"time": 77599, "pitch": 45, "duration": 70, "velocity": 109}, {"time": 77599, "pitch": 48, "duration": 90, "velocity": 109}, {"time": 77599, "pitch": 51, "duration": 80, "velocity": 109}, {"time": 77599, "pitch": 53, "duration": 90, "velocity": 109}, {"time": 77599, "pitch": 57, "duration": 80, "velocity": 109}, {"time": 77758, "pitch": 46, "duration": 120, "velocity": 117}, {"time": 77758, "pitch": 50, "duration": 120, "velocity": 117}, {"time": 77758, "pitch": 53, "duration": 130, "velocity": 117}, {"time": 77758, "pitch": 58, "duration": 130, "velocity": 117}, {"time": 78077, "pitch": 46, "duration": 59, "velocity": 106}, {"time": 78077, "pitch": 50, "duration": 69, "velocity": 106}, {"time": 78077, "pitch": 53, "duration": 69, "velocity": 106}, {"time": 78077, "pitch": 58, "duration": 69, "velocity": 106}, {"time": 78236, "pitch": 46, "duration": 122, "velocity": 117}, {"time": 78236, "pitch": 50, "duration": 112, "velocity": 117}, {"time": 78236, "pitch": 53, "duration": 112, "velocity": 117}, {"time": 78236, "pitch": 58, "duration": 112, "velocity": 117}, {"time": 78561, "pitch": 46, "duration": 82, "velocity": 113}, {"time": 78561, "pitch": 50, "duration": 92, "velocity": 113}, {"time": 78561, "pitch": 53, "duration": 82, "velocity": 113}, {"time": 78561, "pitch": 58, "duration": 92, "velocity": 113}, {"time": 78724, "pitch": 46, "duration": 100, "velocity": 112}, {"time": 78724, "pitch": 51, "duration": 110, "velocity": 112}, {"time": 78724, "pitch": 55, "duration": 110, "velocity": 112}, {"time": 78724, "pitch": 58, "duration": 110, "velocity": 112}, {"time": 79043, "pitch": 46, "duration": 39, "velocity": 102}, {"time": 79043, "pitch": 51, "duration": 49, "velocity": 102}, {"time": 79043, "pitch": 55, "duration": 59, "velocity": 102}, {"time": 79043, "pitch": 58, "duration": 59, "velocity": 102}, {"time": 79202, "pitch": 46, "duration": 119, "velocity": 115}, {"time": 79202, "pitch": 51, "duration": 129, "velocity": 115}, {"time": 79202, "pitch": 55, "duration": 119, "velocity": 115}, {"time": 79202, "pitch": 58, "duration": 119, "velocity": 115}, {"time": 79520, "pitch": 46, "duration": 100, "velocity": 109}, {"time": 79520, "pitch": 51, "duration": 100, "velocity": 109}, {"time": 79520, "pitch": 55, "duration": 90, "velocity": 109}, {"time": 79520, "pitch": 58, "duration": 90, "velocity": 109}, {"time": 79679, "pitch": 46, "duration": 110, "velocity": 112}, {"time": 79679, "pitch": 51, "duration": 120, "velocity": 112}, {"time": 79679, "pitch": 55, "duration": 120, "velocity": 112}, {"time": 79679, "pitch": 58, "duration": 120, "velocity": 112}, {"time": 79998, "pitch": 46, "duration": 59, "velocity": 96}, {"time": 79998, "pitch": 51, "duration": 49, "velocity": 96}, {"time": 79998, "pitch": 55, "duration": 59, "velocity": 96}, {"time": 79998, "pitch": 58, "duration": 59, "velocity": 96}, {"time": 80157, "pitch": 46, "duration": 112, "velocity": 117}, {"time": 80157, "pitch": 51, "duration": 122, "velocity": 117}, {"time": 80157, "pitch": 55, "duration": 122, "velocity": 117}, {"time": 80157, "pitch": 58, "duration": 122, "velocity": 117}, {"time": 80483, "pitch": 46, "duration": 81, "velocity": 109}, {"time": 80483, "pitch": 51, "duration": 81, "velocity": 109}, {"time": 80483, "pitch": 55, "duration": 91, "velocity": 109}, {"time": 80483, "pitch": 58, "duration": 81, "velocity": 109}, {"time": 80645, "pitch": 48, "duration": 110, "velocity": 115}, {"time": 80645, "pitch": 51, "duration": 110, "velocity": 115}, {"time": 80645, "pitch": 55, "duration": 110, "velocity": 115}, {"time": 80645, "pitch": 58, "duration": 100, "velocity": 115}, {"time": 80964, "pitch": 48, "duration": 49, "velocity": 94}, {"time": 80964, "pitch": 51, "duration": 49, "velocity": 94}, {"time": 80964, "pitch": 55, "duration": 59, "velocity": 94}, {"time": 80964, "pitch": 58, "duration": 59, "velocity": 94}, {"time": 81123, "pitch": 48, "duration": 119, "velocity": 117}, {"time": 81123, "pitch": 51, "duration": 109, "velocity": 117}, {"time": 81123, "pitch": 55, "duration": 119, "velocity": 117}, {"time": 81123, "pitch": 58, "duration": 109, "velocity": 117}, {"time": 81441, "pitch": 48, "duration": 70, "velocity": 104}, {"time": 81441, "pitch": 51, "duration": 70, "velocity": 104}, {"time": 81441, "pitch": 55, "duration": 60, "velocity": 104}, {"time": 81441, "pitch": 58, "duration": 50, "velocity": 104}, {"time": 81600, "pitch": 45, "duration": 130, "velocity": 112}, {"time": 81600, "pitch": 48, "duration": 140, "velocity": 112}, {"time": 81600, "pitch": 51, "duration": 130, "velocity": 112}, {"time": 81600, "pitch": 53, "duration": 130, "velocity": 112}, {"time": 81600, "pitch": 57, "duration": 130, "velocity": 112}, {"time": 81919, "pitch": 45, "duration": 50, "velocity": 89}, {"time": 81919, "pitch": 48, "duration": 60, "velocity": 89}, {"time": 81919, "pitch": 51, "duration": 50, "velocity": 89}, {"time": 81919, "pitch": 53, "duration": 60, "velocity": 89}, {"time": 81919, "pitch": 57, "duration": 60, "velocity": 89}, {"time": 82078, "pitch": 45, "duration": 110, "velocity": 115}, {"time": 82078, "pitch": 48, "duration": 110, "velocity": 115}, {"time": 82078, "pitch": 51, "duration": 110, "velocity": 115}, {"time": 82078, "pitch": 53, "duration": 110, "velocity": 115}, {"time": 82078, "pitch": 57, "duration": 110, "velocity": 115}, {"time": 82396, "pitch": 45, "duration": 70, "velocity": 98}, {"time": 82396, "pitch": 48, "duration": 70, "velocity": 98}, {"time": 82396, "pitch": 51, "duration": 80, "velocity": 98}, {"time": 82396, "pitch": 53, "duration": 70, "velocity": 98}, {"time": 82396, "pitch": 57, "duration": 70, "velocity": 98}, {"time": 82556, "pitch": 46, "duration": 71, "velocity": 117}, {"time": 82556, "pitch": 50, "duration": 71, "velocity": 117}, {"time": 82556, "pitch": 53, "duration": 81, "velocity": 117}, {"time": 82556, "pitch": 58, "duration": 81, "velocity": 117}, {"time": 84802, "pitch": 45, "duration": 82, "velocity": 112}, {"time": 84802, "pitch": 48, "duration": 82, "velocity": 112}, {"time": 84802, "pitch": 51, "duration": 82, "velocity": 112}, {"time": 84802, "pitch": 53, "duration": 82, "velocity": 112}, {"time": 84802, "pitch": 57, "duration": 82, "velocity": 112}, {"time": 84965, "pitch": 45, "duration": 129, "velocity": 117}, {"time": 84965, "pitch": 48, "duration": 139, "velocity": 117}, {"time": 84965, "pitch": 51, "duration": 129, "velocity": 117}, {"time": 84965, "pitch": 53, "duration": 129, "velocity": 117}, {"time": 84965, "pitch": 57, "duration": 129, "velocity": 117}, {"time": 85283, "pitch": 46, "duration": 60, "velocity": 117}, {"time": 85283, "pitch": 50, "duration": 50, "velocity": 117}, {"time": 85283, "pitch": 53, "duration": 60, "velocity": 117}, {"time": 85283, "pitch": 58, "duration": 60, "velocity": 117}, {"time": 86398, "pitch": 48, "duration": 119, "velocity": 117}, {"time": 86398, "pitch": 53, "duration": 119, "velocity": 117}, {"time": 86398, "pitch": 57, "duration": 119, "velocity": 117}, {"time": 86398, "pitch": 60, "duration": 109, "velocity": 117}, {"time": 86716, "pitch": 48, "duration": 50, "velocity": 98}, {"time": 86716, "pitch": 53, "duration": 50, "velocity": 98}, {"time": 86716, "pitch": 57, "duration": 60, "velocity": 98}, {"time": 86716, "pitch": 60, "duration": 60, "velocity": 98}, {"time": 86876, "pitch": 48, "duration": 122, "velocity": 112}, {"time": 86876, "pitch": 53, "duration": 111, "velocity": 112}, {"time": 86876, "pitch": 57, "duration": 111, "velocity": 112}, {"time": 86876, "pitch": 60, "duration": 122, "velocity": 112}, {"time": 87201, "pitch": 48, "duration": 81, "velocity": 109}, {"time": 87201, "pitch": 53, "duration": 71, "velocity": 109}, {"time": 87201, "pitch": 57, "duration": 71, "velocity": 109}, {"time": 87201, "pitch": 60, "duration": 71, "velocity": 109}, {"time": 87364, "pitch": 48, "duration": 119, "velocity": 115}, {"time": 87364, "pitch": 53, "duration": 119, "velocity": 115}, {"time": 87364, "pitch": 57, "duration": 129, "velocity": 115}, {"time": 87364, "pitch": 60, "duration": 129, "velocity": 115}, {"time": 87682, "pitch": 48, "duration": 60, "velocity": 91}, {"time": 87682, "pitch": 53, "duration": 50, "velocity": 91}, {"time": 87682, "pitch": 57, "duration": 50, "velocity": 91}, {"time": 87682, "pitch": 60, "duration": 50, "velocity": 91}, {"time": 87841, "pitch": 48, "duration": 100, "velocity": 112}, {"time": 87841, "pitch": 53, "duration": 110, "velocity": 112}, {"time": 87841, "pitch": 57, "duration": 110, "velocity": 112}, {"time": 87841, "pitch": 60, "duration": 110, "velocity": 112}, {"time": 88160, "pitch": 48, "duration": 89, "velocity": 112}, {"time": 88160, "pitch": 53, "duration": 79, "velocity": 112}, {"time": 88160, "pitch": 57, "duration": 89, "velocity": 112}, {"time": 88160, "pitch": 60, "duration": 79, "velocity": 112}, {"time": 88319, "pitch": 48, "duration": 100, "velocity": 117}, {"time": 88319, "pitch": 52, "duration": 100, "velocity": 117}, {"time": 88319, "pitch": 55, "duration": 100, "velocity": 117}, {"time": 88319, "pitch": 60, "duration": 100, "velocity": 117}, {"time": 88637, "pitch": 48, "duration": 80, "velocity": 104}, {"time": 88637, "pitch": 52, "duration": 80, "velocity": 104}, {"time": 88637, "pitch": 55, "duration": 90, "velocity": 104}, {"time": 88637, "pitch": 60, "duration": 80, "velocity": 104}, {"time": 88797, "pitch": 48, "duration": 132, "velocity": 117}, {"time": 88797, "pitch": 52, "duration": 122, "velocity": 117}, {"time": 88797, "pitch": 55, "duration": 122, "velocity": 117}, {"time": 88797, "pitch": 60, "duration": 142, "velocity": 117}, {"time": 89122, "pitch": 48, "duration": 92, "velocity": 117}, {"time": 89122, "pitch": 52, "duration": 92, "velocity": 117}, {"time": 89122, "pitch": 55, "duration": 92, "velocity": 117}, {"time": 89122, "pitch": 60, "duration": 92, "velocity": 117}, {"time": 89285, "pitch": 48, "duration": 119, "velocity": 117}, {"time": 89285, "pitch": 52, "duration": 119, "velocity": 117}, {"time": 89285, "pitch": 55, "duration": 129, "velocity": 117}, {"time": 89285, "pitch": 60, "duration": 129, "velocity": 117}, {"time": 89603, "pitch": 48, "duration": 70, "velocity": 99}, {"time": 89603, "pitch": 52, "duration": 70, "velocity": 99}, {"time": 89603, "pitch": 55, "duration": 70, "velocity": 99}, {"time": 89603, "pitch": 60, "duration": 70, "velocity": 99}, {"time": 89763, "pitch": 48, "duration": 129, "velocity": 117}, {"time": 89763, "pitch": 52, "duration": 119, "velocity": 117}, {"time": 89763, "pitch": 55, "duration": 119, "velocity": 117}, {"time": 89763, "pitch": 60, "duration": 119, "velocity": 117}, {"time": 90081, "pitch": 48, "duration": 70, "velocity": 108}, {"time": 90081, "pitch": 52, "duration": 70, "velocity": 108}, {"time": 90081, "pitch": 55, "duration": 80, "velocity": 108}, {"time": 90081, "pitch": 60, "duration": 80, "velocity": 108}, {"time": 90240, "pitch": 48, "duration": 100, "velocity": 115}, {"time": 90240, "pitch": 53, "duration": 100, "velocity": 115}, {"time": 90240, "pitch": 57, "duration": 100, "velocity": 115}, {"time": 90240, "pitch": 60, "duration": 100, "velocity": 115}, {"time": 90559, "pitch": 48, "duration": 59, "velocity": 85}, {"time": 90559, "pitch": 53, "duration": 59, "velocity": 85}, {"time": 90559, "pitch": 57, "duration": 69, "velocity": 85}, {"time": 90559, "pitch": 60, "duration": 69, "velocity": 85}, {"time": 90718, "pitch": 48, "duration": 119, "velocity": 117}, {"time": 90718, "pitch": 53, "duration": 129, "velocity": 117}, {"time": 90718, "pitch": 57, "duration": 119, "velocity": 117}, {"time": 90718, "pitch": 60, "duration": 119, "velocity": 117}, {"time": 91036, "pitch": 48, "duration": 80, "velocity": 107}, {"time": 91036, "pitch": 53, "duration": 70, "velocity": 107}, {"time": 91036, "pitch": 57, "duration": 70, "velocity": 107}, {"time": 91036, "pitch": 60, "duration": 60, "velocity": 107}, {"time": 91195, "pitch": 48, "duration": 133, "velocity": 115}, {"time": 91195, "pitch": 53, "duration": 133, "velocity": 115}, {"time": 91195, "pitch": 57, "duration": 143, "velocity": 115}, {"time": 91195, "pitch": 60, "duration": 143, "velocity": 115}, {"time": 91521, "pitch": 48, "duration": 41, "velocity": 88}, {"time": 91521, "pitch": 53, "duration": 41, "velocity": 88}, {"time": 91521, "pitch": 57, "duration": 61, "velocity": 88}, {"time": 91521, "pitch": 60, "duration": 61, "velocity": 88}, {"time": 91684, "pitch": 48, "duration": 119, "velocity": 117}, {"time": 91684, "pitch": 53, "duration": 119, "velocity": 117}, {"time": 91684, "pitch": 57, "duration": 119, "velocity": 117}, {"time": 91684, "pitch": 60, "duration": 119, "velocity": 117}, {"time": 92002, "pitch": 48, "duration": 80, "velocity": 107}, {"time": 92002, "pitch": 53, "duration": 70, "velocity": 107}, {"time": 92002, "pitch": 57, "duration": 70, "velocity": 107}, {"time": 92002, "pitch": 60, "duration": 60, "velocity": 107}, {"time": 92161, "pitch": 48, "duration": 120, "velocity": 117}, {"time": 92161, "pitch": 52, "duration": 120, "velocity": 117}, {"time": 92161, "pitch": 55, "duration": 120, "velocity": 117}, {"time": 92161, "pitch": 60, "duration": 110, "velocity": 117}, {"time": 92480, "pitch": 48, "duration": 59, "velocity": 92}, {"time": 92480, "pitch": 52, "duration": 59, "velocity": 92}, {"time": 92480, "pitch": 55, "duration": 69, "velocity": 92}, {"time": 92480, "pitch": 60, "duration": 69, "velocity": 92}, {"time": 92639, "pitch": 48, "duration": 119, "velocity": 117}, {"time": 92639, "pitch": 52, "duration": 109, "velocity": 117}, {"time": 92639, "pitch": 55, "duration": 109, "velocity": 117}, {"time": 92639, "pitch": 60, "duration": 109, "velocity": 117}, {"time": 92957, "pitch": 48, "duration": 90, "velocity": 111}, {"time": 92957, "pitch": 52, "duration": 80, "velocity": 111}, {"time": 92957, "pitch": 55, "duration": 80, "velocity": 111}, {"time": 92957, "pitch": 60, "duration": 70, "velocity": 111}, {"time": 93116, "pitch": 48, "duration": 143, "velocity": 117}, {"time": 93116, "pitch": 52, "duration": 153, "velocity": 117}, {"time": 93116, "pitch": 55, "duration": 153, "velocity": 117}, {"time": 93116, "pitch": 60, "duration": 143, "velocity": 117}, {"time": 93442, "pitch": 48, "duration": 81, "velocity": 102}, {"time": 93442, "pitch": 52, "duration": 81, "velocity": 102}, {"time": 93442, "pitch": 55, "duration": 71, "velocity": 102}, {"time": 93442, "pitch": 60, "duration": 71, "velocity": 102}, {"time": 93605, "pitch": 48, "duration": 129, "velocity": 117}, {"time": 93605, "pitch": 52, "duration": 129, "velocity": 117}, {"time": 93605, "pitch": 55, "duration": 129, "velocity": 117}, {"time": 93605, "pitch": 60, "duration": 129, "velocity": 117}, {"time": 93923, "pitch": 48, "duration": 60, "velocity": 104}, {"time": 93923, "pitch": 52, "duration": 60, "velocity": 104}, {"time": 93923, "pitch": 55, "duration": 70, "velocity": 104}, {"time": 93923, "pitch": 60, "duration": 60, "velocity": 104}, {"time": 94082, "pitch": 48, "duration": 100, "velocity": 112}, {"time": 94082, "pitch": 53, "duration": 100, "velocity": 112}, {"time": 94082, "pitch": 57, "duration": 100, "velocity": 112}, {"time": 94082, "pitch": 60, "duration": 90, "velocity": 112}, {"time": 94401, "pitch": 48, "duration": 69, "velocity": 96}, {"time": 94401, "pitch": 53, "duration": 79, "velocity": 96}, {"time": 94401, "pitch": 57, "duration": 79, "velocity": 96}, {"time": 94401, "pitch": 60, "duration": 79, "velocity": 96}, {"time": 94560, "pitch": 48, "duration": 139, "velocity": 117}, {"time": 94560, "pitch": 53, "duration": 139, "velocity": 117}, {"time": 94560, "pitch": 57, "duration": 139, "velocity": 117}, {"time": 94560, "pitch": 60, "duration": 129, "velocity": 117}, {"time": 94878, "pitch": 48, "duration": 70, "velocity": 104}, {"time": 94878, "pitch": 53, "duration": 80, "velocity": 104}, {"time": 94878, "pitch": 57, "duration": 80, "velocity": 104}, {"time": 94878, "pitch": 60, "duration": 80, "velocity": 104}, {"time": 95038, "pitch": 48, "duration": 139, "velocity": 112}, {"time": 95038, "pitch": 53, "duration": 139, "velocity": 112}, {"time": 95038, "pitch": 57, "duration": 149, "velocity": 112}, {"time": 95038, "pitch": 60, "duration": 139, "velocity": 112}, {"time": 95356, "pitch": 48, "duration": 50, "velocity": 86}, {"time": 95356, "pitch": 53, "duration": 50, "velocity": 86}, {"time": 95356, "pitch": 57, "duration": 40, "velocity": 86}, {"time": 95356, "pitch": 60, "duration": 50, "velocity": 86}, {"time": 95515, "pitch": 48, "duration": 112, "velocity": 117}, {"time": 95515, "pitch": 53, "duration": 112, "velocity": 117}, {"time": 95515, "pitch": 57, "duration": 112, "velocity": 117}, {"time": 95515, "pitch": 60, "duration": 112, "velocity": 117}, {"time": 95841, "pitch": 48, "duration": 71, "velocity": 107}, {"time": 95841, "pitch": 53, "duration": 71, "velocity": 107}, {"time": 95841, "pitch": 57, "duration": 61, "velocity": 107}, {"time": 95841, "pitch": 60, "duration": 61, "velocity": 107}, {"time": 96003, "pitch": 48, "duration": 110, "velocity": 117}, {"time": 96003, "pitch": 52, "duration": 100, "velocity": 117}, {"time": 96003, "pitch": 55, "duration": 110, "velocity": 117}, {"time": 96003, "pitch": 60, "duration": 110, "velocity": 117}, {"time": 96322, "pitch": 48, "duration": 70, "velocity": 102}, {"time": 96322, "pitch": 52, "duration": 79, "velocity": 102}, {"time": 96322, "pitch": 55, "duration": 79, "velocity": 102}, {"time": 96322, "pitch": 60, "duration": 79, "velocity": 102}, {"time": 96481, "pitch": 48, "duration": 129, "velocity": 117}, {"time": 96481, "pitch": 52, "duration": 129, "velocity": 117}, {"time": 96481, "pitch": 55, "duration": 129, "velocity": 117}, {"time": 96481, "pitch": 60, "duration": 129, "velocity": 117}, {"time": 96799, "pitch": 48, "duration": 100, "velocity": 117}, {"time": 96799, "pitch": 52, "duration": 110, "velocity": 117}, {"time": 96799, "pitch": 55, "duration": 110, "velocity": 117}, {"time": 96799, "pitch": 60, "duration": 110, "velocity": 117}, {"time": 96959, "pitch": 48, "duration": 169, "velocity": 117}, {"time": 96959, "pitch": 52, "duration": 149, "velocity": 117}, {"time": 96959, "pitch": 55, "duration": 149, "velocity": 117}, {"time": 96959, "pitch": 60, "duration": 159, "velocity": 117}, {"time": 97277, "pitch": 48, "duration": 70, "velocity": 104}, {"time": 97277, "pitch": 52, "duration": 80, "velocity": 104}, {"time": 97277, "pitch": 55, "duration": 80, "velocity": 104}, {"time": 97277, "pitch": 60, "duration": 80, "velocity": 104}, {"time": 97436, "pitch": 48, "duration": 122, "velocity": 117}, {"time": 97436, "pitch": 52, "duration": 122, "velocity": 117}, {"time": 97436, "pitch": 55, "duration": 122, "velocity": 117}, {"time": 97436, "pitch": 60, "duration": 122, "velocity": 117}, {"time": 97762, "pitch": 48, "duration": 71, "velocity": 101}, {"time": 97762, "pitch": 52, "duration": 71, "velocity": 101}, {"time": 97762, "pitch": 55, "duration": 71, "velocity": 101}, {"time": 97762, "pitch": 60, "duration": 71, "velocity": 101}, {"time": 97925, "pitch": 45, "duration": 119, "velocity": 117}, {"time": 97925, "pitch": 50, "duration": 119, "velocity": 117}, {"time": 97925, "pitch": 54, "duration": 119, "velocity": 117}, {"time": 97925, "pitch": 60, "duration": 129, "velocity": 117}, {"time": 97925, "pitch": 62, "duration": 129, "velocity": 117}, {"time": 98243, "pitch": 45, "duration": 70, "velocity": 94}, {"time": 98243, "pitch": 50, "duration": 70, "velocity": 94}, {"time": 98243, "pitch": 54, "duration": 70, "velocity": 94}, {"time": 98243, "pitch": 60, "duration": 70, "velocity": 94}, {"time": 98243, "pitch": 62, "duration": 80, "velocity": 94}, {"time": 98402, "pitch": 45, "duration": 130, "velocity": 117}, {"time": 98402, "pitch": 50, "duration": 139, "velocity": 117}, {"time": 98402, "pitch": 54, "duration": 139, "velocity": 117}, {"time": 98402, "pitch": 60, "duration": 139, "velocity": 117}, {"time": 98402, "pitch": 62, "duration": 139, "velocity": 117}, {"time": 98721, "pitch": 45, "duration": 69, "velocity": 106}, {"time": 98721, "pitch": 50, "duration": 69, "velocity": 106}, {"time": 98721, "pitch": 54, "duration": 79, "velocity": 106}, {"time": 98721, "pitch": 60, "duration": 79, "velocity": 106}, {"time": 98721, "pitch": 62, "duration": 69, "velocity": 106}, {"time": 98880, "pitch": 45, "duration": 149, "velocity": 117}, {"time": 98880, "pitch": 50, "duration": 149, "velocity": 117}, {"time": 98880, "pitch": 54, "duration": 149, "velocity": 117}, {"time": 98880, "pitch": 60, "duration": 149, "velocity": 117}, {"time": 98880, "pitch": 62, "duration": 159, "velocity": 117}, {"time": 99198, "pitch": 45, "duration": 60, "velocity": 99}, {"time": 99198, "pitch": 50, "duration": 70, "velocity": 99}, {"time": 99198, "pitch": 54, "duration": 70, "velocity": 99}, {"time": 99198, "pitch": 60, "duration": 70, "velocity": 99}, {"time": 99198, "pitch": 62, "duration": 70, "velocity": 99}, {"time": 99357, "pitch": 45, "duration": 120, "velocity": 117}, {"time": 99357, "pitch": 50, "duration": 120, "velocity": 117}, {"time": 99357, "pitch": 54, "duration": 120, "velocity": 117}, {"time": 99357, "pitch": 60, "duration": 120, "velocity": 117}, {"time": 99357, "pitch": 62, "duration": 120, "velocity": 117}, {"time": 99676, "pitch": 45, "duration": 60, "velocity": 106}, {"time": 99676, "pitch": 50, "duration": 79, "velocity": 106}, {"time": 99676, "pitch": 54, "duration": 69, "velocity": 106}, {"time": 99676, "pitch": 60, "duration": 69, "velocity": 106}, {"time": 99676, "pitch": 62, "duration": 69, "velocity": 106}, {"time": 99835, "pitch": 47, "duration": 102, "velocity": 115}, {"time": 99835, "pitch": 50, "duration": 102, "velocity": 115}, {"time": 99835, "pitch": 53, "duration": 112, "velocity": 115}, {"time": 99835, "pitch": 55, "duration": 102, "velocity": 115}, {"time": 99835, "pitch": 59, "duration": 91, "velocity": 115}, {"time": 100161, "pitch": 47, "duration": 50, "velocity": 100}, {"time": 100161, "pitch": 50, "duration": 61, "velocity": 100}, {"time": 100161, "pitch": 53, "duration": 61, "velocity": 100}, {"time": 100161, "pitch": 55, "duration": 61, "velocity": 100}, {"time": 100161, "pitch": 59, "duration": 71, "velocity": 100}, {"time": 100323, "pitch": 47, "duration": 120, "velocity": 115}, {"time": 100323, "pitch": 50, "duration": 120, "velocity": 115}, {"time": 100323, "pitch": 53, "duration": 110, "velocity": 115}, {"time": 100323, "pitch": 55, "duration": 120, "velocity": 115}, {"time": 100323, "pitch": 59, "duration": 100, "velocity": 115}, {"time": 100642, "pitch": 47, "duration": 59, "velocity": 107}, {"time": 100642, "pitch": 50, "duration": 69, "velocity": 107}, {"time": 100642, "pitch": 53, "duration": 59, "velocity": 107}, {"time": 100642, "pitch": 55, "duration": 69, "velocity": 107}, {"time": 100642, "pitch": 59, "duration": 69, "velocity": 107}, {"time": 100801, "pitch": 47, "duration": 89, "velocity": 115}, {"time": 100801, "pitch": 50, "duration": 99, "velocity": 115}, {"time": 100801, "pitch": 53, "duration": 89, "velocity": 115}, {"time": 100801, "pitch": 55, "duration": 99, "velocity": 115}, {"time": 100801, "pitch": 59, "duration": 109, "velocity": 115}, {"time": 101119, "pitch": 47, "duration": 50, "velocity": 94}, {"time": 101119, "pitch": 50, "duration": 60, "velocity": 94}, {"time": 101119, "pitch": 53, "duration": 50, "velocity": 94}, {"time": 101119, "pitch": 55, "duration": 60, "velocity": 94}, {"time": 101119, "pitch": 59, "duration": 60, "velocity": 94}, {"time": 101279, "pitch": 47, "duration": 119, "velocity": 115}, {"time": 101279, "pitch": 50, "duration": 109, "velocity": 115}, {"time": 101279, "pitch": 53, "duration": 119, "velocity": 115}, {"time": 101279, "pitch": 55, "duration": 119, "velocity": 115}, {"time": 101279, "pitch": 59, "duration": 129, "velocity": 115}, {"time": 101597, "pitch": 47, "duration": 89, "velocity": 100}, {"time": 101597, "pitch": 50, "duration": 80, "velocity": 100}, {"time": 101597, "pitch": 53, "duration": 89, "velocity": 100}, {"time": 101597, "pitch": 55, "duration": 70, "velocity": 100}, {"time": 101597, "pitch": 59, "duration": 60, "velocity": 100}, {"time": 101756, "pitch": 46, "duration": 122, "velocity": 117}, {"time": 101756, "pitch": 51, "duration": 122, "velocity": 117}, {"time": 101756, "pitch": 55, "duration": 122, "velocity": 117}, {"time": 101756, "pitch": 58, "duration": 112, "velocity": 117}, {"time": 102082, "pitch": 46, "duration": 51, "velocity": 98}, {"time": 102082, "pitch": 51, "duration": 51, "velocity": 98}, {"time": 102082, "pitch": 55, "duration": 61, "velocity": 98}, {"time": 102082, "pitch": 58, "duration": 61, "velocity": 98}, {"time": 102244, "pitch": 46, "duration": 120, "velocity": 112}, {"time": 102244, "pitch": 51, "duration": 110, "velocity": 112}, {"time": 102244, "pitch": 55, "duration": 110, "velocity": 112}, {"time": 102244, "pitch": 58, "duration": 120, "velocity": 112}, {"time": 102563, "pitch": 46, "duration": 79, "velocity": 109}, {"time": 102563, "pitch": 51, "duration": 69, "velocity": 109}, {"time": 102563, "pitch": 55, "duration": 69, "velocity": 109}, {"time": 102563, "pitch": 58, "duration": 69, "velocity": 109}, {"time": 102722, "pitch": 46, "duration": 119, "velocity": 115}, {"time": 102722, "pitch": 51, "duration": 119, "velocity": 115}, {"time": 102722, "pitch": 55, "duration": 129, "velocity": 115}, {"time": 102722, "pitch": 58, "duration": 129, "velocity": 115}, {"time": 103040, "pitch": 46, "duration": 60, "velocity": 91}, {"time": 103040, "pitch": 51, "duration": 50, "velocity": 91}, {"time": 103040, "pitch": 55, "duration": 50, "velocity": 91}, {"time": 103040, "pitch": 58, "duration": 50, "velocity": 91}, {"time": 103200, "pitch": 46, "duration": 99, "velocity": 112}, {"time": 103200, "pitch": 51, "duration": 109, "velocity": 112}, {"time": 103200, "pitch": 55, "duration": 109, "velocity": 112}, {"time": 103200, "pitch": 58, "duration": 109, "velocity": 112}, {"time": 103518, "pitch": 46, "duration": 90, "velocity": 112}, {"time": 103518, "pitch": 51, "duration": 80, "velocity": 112}, {"time": 103518, "pitch": 55, "duration": 90, "velocity": 112}, {"time": 103518, "pitch": 58, "duration": 80, "velocity": 112}, {"time": 103677, "pitch": 46, "duration": 100, "velocity": 117}, {"time": 103677, "pitch": 50, "duration": 100, "velocity": 117}, {"time": 103677, "pitch": 53, "duration": 100, "velocity": 117}, {"time": 103677, "pitch": 58, "duration": 100, "velocity": 117}, {"time": 103996, "pitch": 46, "duration": 79, "velocity": 104}, {"time": 103996, "pitch": 50, "duration": 79, "velocity": 104}, {"time": 103996, "pitch": 53, "duration": 89, "velocity": 104}, {"time": 103996, "pitch": 58, "duration": 79, "velocity": 104}, {"time": 104155, "pitch": 46, "duration": 132, "velocity": 117}, {"time": 104155, "pitch": 50, "duration": 122, "velocity": 117}, {"time": 104155, "pitch": 53, "duration": 122, "velocity": 117}, {"time": 104155, "pitch": 58, "duration": 142, "velocity": 117}, {"time": 104480, "pitch": 46, "duration": 92, "velocity": 117}, {"time": 104480, "pitch": 50, "duration": 92, "velocity": 117}, {"time": 104480, "pitch": 53, "duration": 92, "velocity": 117}, {"time": 104480, "pitch": 58, "duration": 92, "velocity": 117}, {"time": 104643, "pitch": 46, "duration": 120, "velocity": 117}, {"time": 104643, "pitch": 50, "duration": 120, "velocity": 117}, {"time": 104643, "pitch": 53, "duration": 129, "velocity": 117}, {"time": 104643, "pitch": 58, "duration": 129, "velocity": 117}, {"time": 104962, "pitch": 46, "duration": 69, "velocity": 99}, {"time": 104962, "pitch": 50, "duration": 69, "velocity": 99}, {"time": 104962, "pitch": 53, "duration": 69, "velocity": 99}, {"time": 104962, "pitch": 58, "duration": 69, "velocity": 99}, {"time": 105121, "pitch": 46, "duration": 129, "velocity": 117}, {"time": 105121, "pitch": 50, "duration": 119, "velocity": 117}, {"time": 105121, "pitch": 53, "duration": 119, "velocity": 117}, {"time": 105121, "pitch": 58, "duration": 119, "velocity": 117}, {"time": 105439, "pitch": 46, "duration": 70, "velocity": 108}, {"time": 105439, "pitch": 50, "duration": 70, "velocity": 108}, {"time": 105439, "pitch": 53, "duration": 80, "velocity": 108}, {"time": 105439, "pitch": 58, "duration": 80, "velocity": 108}, {"time": 105598, "pitch": 46, "duration": 100, "velocity": 115}, {"time": 105598, "pitch": 51, "duration": 100, "velocity": 115}, {"time": 105598, "pitch": 55, "duration": 100, "velocity": 115}, {"time": 105598, "pitch": 58, "duration": 100, "velocity": 115}, {"time": 105917, "pitch": 46, "duration": 59, "velocity": 85}, {"time": 105917, "pitch": 51, "duration": 59, "velocity": 85}, {"time": 105917, "pitch": 55, "duration": 69, "velocity": 85}, {"time": 105917, "pitch": 58, "duration": 69, "velocity": 85}, {"time": 106076, "pitch": 46, "duration": 122, "velocity": 117}, {"time": 106076, "pitch": 51, "duration": 132, "velocity": 117}, {"time": 106076, "pitch": 55, "duration": 122, "velocity": 117}, {"time": 106076, "pitch": 58, "duration": 122, "velocity": 117}, {"time": 106402, "pitch": 46, "duration": 81, "velocity": 107}, {"time": 106402, "pitch": 51, "duration": 71, "velocity": 107}, {"time": 106402, "pitch": 55, "duration": 71, "velocity": 107}, {"time": 106402, "pitch": 58, "duration": 61, "velocity": 107}, {"time": 106564, "pitch": 46, "duration": 130, "velocity": 115}, {"time": 106564, "pitch": 51, "duration": 130, "velocity": 115}, {"time": 106564, "pitch": 55, "duration": 140, "velocity": 115}, {"time": 106564, "pitch": 58, "duration": 140, "velocity": 115}, {"time": 106883, "pitch": 46, "duration": 39, "velocity": 88}, {"time": 106883, "pitch": 51, "duration": 39, "velocity": 88}, {"time": 106883, "pitch": 55, "duration": 59, "velocity": 88}, {"time": 106883, "pitch": 58, "duration": 59, "velocity": 88}, {"time": 107042, "pitch": 46, "duration": 119, "velocity": 117}, {"time": 107042, "pitch": 51, "duration": 119, "velocity": 117}, {"time": 107042, "pitch": 55, "duration": 119, "velocity": 117}, {"time": 107042, "pitch": 58, "duration": 119, "velocity": 117}, {"time": 107360, "pitch": 46, "duration": 80, "velocity": 107}, {"time": 107360, "pitch": 51, "duration": 70, "velocity": 107}, {"time": 107360, "pitch": 55, "duration": 70, "velocity": 107}, {"time": 107360, "pitch": 58, "duration": 60, "velocity": 107}, {"time": 107519, "pitch": 46, "duration": 120, "velocity": 117}, {"time": 107519, "pitch": 50, "duration": 120, "velocity": 117}, {"time": 107519, "pitch": 53, "duration": 120, "velocity": 117}, {"time": 107519, "pitch": 58, "duration": 110, "velocity": 117}, {"time": 107838, "pitch": 46, "duration": 60, "velocity": 92}, {"time": 107838, "pitch": 50, "duration": 60, "velocity": 92}, {"time": 107838, "pitch": 53, "duration": 70, "velocity": 92}, {"time": 107838, "pitch": 58, "duration": 70, "velocity": 92}, {"time": 107997, "pitch": 46, "duration": 119, "velocity": 117}, {"time": 107997, "pitch": 50, "duration": 110, "velocity": 117}, {"time": 107997, "pitch": 53, "duration": 110, "velocity": 117}, {"time": 107997, "pitch": 58, "duration": 110, "velocity": 117}, {"time": 108315, "pitch": 46, "duration": 90, "velocity": 111}, {"time": 108315, "pitch": 50, "duration": 80, "velocity": 111}, {"time": 108315, "pitch": 53, "duration": 80, "velocity": 111}, {"time": 108315, "pitch": 58, "duration": 70, "velocity": 111}, {"time": 108475, "pitch": 46, "duration": 142, "velocity": 117}, {"time": 108475, "pitch": 50, "duration": 152, "velocity": 117}, {"time": 108475, "pitch": 53, "duration": 152, "velocity": 117}, {"time": 108475, "pitch": 58, "duration": 142, "velocity": 117}, {"time": 108800, "pitch": 46, "duration": 82, "velocity": 102}, {"time": 108800, "pitch": 50, "duration": 82, "velocity": 102}, {"time": 108800, "pitch": 53, "duration": 71, "velocity": 102}, {"time": 108800, "pitch": 58, "duration": 71, "velocity": 102}, {"time": 108963, "pitch": 46, "duration": 129, "velocity": 117}, {"time": 108963, "pitch": 50, "duration": 129, "velocity": 117}, {"time": 108963, "pitch": 53, "duration": 129, "velocity": 117}, {"time": 108963, "pitch": 58, "duration": 129, "velocity": 117}, {"time": 109281, "pitch": 46, "duration": 60, "velocity": 104}, {"time": 109281, "pitch": 50, "duration": 60, "velocity": 104}, {"time": 109281, "pitch": 53, "duration": 70, "velocity": 104}, {"time": 109281, "pitch": 58, "duration": 60, "velocity": 104}, {"time": 109441, "pitch": 46, "duration": 99, "velocity": 112}, {"time": 109441, "pitch": 51, "duration": 99, "velocity": 112}, {"time": 109441, "pitch": 55, "duration": 99, "velocity": 112}, {"time": 109441, "pitch": 58, "duration": 89, "velocity": 112}, {"time": 109759, "pitch": 46, "duration": 70, "velocity": 96}, {"time": 109759, "pitch": 51, "duration": 80, "velocity": 96}, {"time": 109759, "pitch": 55, "duration": 80, "velocity": 96}, {"time": 109759, "pitch": 58, "duration": 80, "velocity": 96}, {"time": 109918, "pitch": 46, "duration": 140, "velocity": 117}, {"time": 109918, "pitch": 51, "duration": 140, "velocity": 117}, {"time": 109918, "pitch": 55, "duration": 140, "velocity": 117}, {"time": 109918, "pitch": 58, "duration": 130, "velocity": 117}, {"time": 110237, "pitch": 46, "duration": 69, "velocity": 104}, {"time": 110237, "pitch": 51, "duration": 79, "velocity": 104}, {"time": 110237, "pitch": 55, "duration": 79, "velocity": 104}, {"time": 110237, "pitch": 58, "duration": 79, "velocity": 104}, {"time": 110396, "pitch": 46, "duration": 142, "velocity": 112}, {"time": 110396, "pitch": 51, "duration": 142, "velocity": 112}, {"time": 110396, "pitch": 55, "duration": 152, "velocity": 112}, {"time": 110396, "pitch": 58, "duration": 142, "velocity": 112}, {"time": 110721, "pitch": 46, "duration": 51, "velocity": 86}, {"time": 110721, "pitch": 51, "duration": 51, "velocity": 86}, {"time": 110721, "pitch": 55, "duration": 41, "velocity": 86}, {"time": 110721, "pitch": 58, "duration": 51, "velocity": 86}, {"time": 110884, "pitch": 46, "duration": 110, "velocity": 117}, {"time": 110884, "pitch": 51, "duration": 110, "velocity": 117}, {"time": 110884, "pitch": 55, "duration": 110, "velocity": 117}, {"time": 110884, "pitch": 58, "duration": 110, "velocity": 117}, {"time": 111202, "pitch": 46, "duration": 70, "velocity": 107}, {"time": 111202, "pitch": 51, "duration": 70, "velocity": 107}, {"time": 111202, "pitch": 55, "duration": 60, "velocity": 107}, {"time": 111202, "pitch": 58, "duration": 60, "velocity": 107}, {"time": 111362, "pitch": 46, "duration": 109, "velocity": 117}, {"time": 111362, "pitch": 50, "duration": 99, "velocity": 117}, {"time": 111362, "pitch": 53, "duration": 109, "velocity": 117}, {"time": 111362, "pitch": 58, "duration": 109, "velocity": 117}, {"time": 111680, "pitch": 46, "duration": 70, "velocity": 102}, {"time": 111680, "pitch": 50, "duration": 80, "velocity": 102}, {"time": 111680, "pitch": 53, "duration": 80, "velocity": 102}, {"time": 111680, "pitch": 58, "duration": 80, "velocity": 102}, {"time": 111839, "pitch": 46, "duration": 130, "velocity": 117}, {"time": 111839, "pitch": 50, "duration": 130, "velocity": 117}, {"time": 111839, "pitch": 53, "duration": 130, "velocity": 117}, {"time": 111839, "pitch": 58, "duration": 130, "velocity": 117}, {"time": 112158, "pitch": 46, "duration": 99, "velocity": 117}, {"time": 112158, "pitch": 50, "duration": 109, "velocity": 117}, {"time": 112158, "pitch": 53, "duration": 109, "velocity": 117}, {"time": 112158, "pitch": 58, "duration": 109, "velocity": 117}, {"time": 112317, "pitch": 46, "duration": 173, "velocity": 117}, {"time": 112317, "pitch": 50, "duration": 153, "velocity": 117}, {"time": 112317, "pitch": 53, "duration": 153, "velocity": 117}, {"time": 112317, "pitch": 58, "duration": 163, "velocity": 117}, {"time": 112642, "pitch": 46, "duration": 72, "velocity": 104}, {"time": 112642, "pitch": 50, "duration": 82, "velocity": 104}, {"time": 112642, "pitch": 53, "duration": 82, "velocity": 104}, {"time": 112642, "pitch": 58, "duration": 82, "velocity": 104}, {"time": 112805, "pitch": 46, "duration": 120, "velocity": 117}, {"time": 112805, "pitch": 50, "duration": 120, "velocity": 117}, {"time": 112805, "pitch": 53, "duration": 120, "velocity": 117}, {"time": 112805, "pitch": 58, "duration": 120, "velocity": 117}, {"time": 113124, "pitch": 46, "duration": 69, "velocity": 101}, {"time": 113124, "pitch": 50, "duration": 69, "velocity": 101}, {"time": 113124, "pitch": 53, "duration": 69, "velocity": 101}, {"time": 113124, "pitch": 58, "duration": 69, "velocity": 101}, {"time": 113283, "pitch": 43, "duration": 119, "velocity": 117}, {"time": 113283, "pitch": 48, "duration": 119, "velocity": 117}, {"time": 113283, "pitch": 52, "duration": 119, "velocity": 117}, {"time": 113283, "pitch": 58, "duration": 129, "velocity": 117}, {"time": 113283, "pitch": 60, "duration": 129, "velocity": 117}, {"time": 113601, "pitch": 43, "duration": 70, "velocity": 94}, {"time": 113601, "pitch": 48, "duration": 70, "velocity": 94}, {"time": 113601, "pitch": 52, "duration": 70, "velocity": 94}, {"time": 113601, "pitch": 58, "duration": 70, "velocity": 94}, {"time": 113601, "pitch": 60, "duration": 80, "velocity": 94}, {"time": 113760, "pitch": 43, "duration": 130, "velocity": 117}, {"time": 113760, "pitch": 48, "duration": 140, "velocity": 117}, {"time": 113760, "pitch": 52, "duration": 140, "velocity": 117}, {"time": 113760, "pitch": 58, "duration": 140, "velocity": 117}, {"time": 113760, "pitch": 60, "duration": 140, "velocity": 117}, {"time": 114079, "pitch": 43, "duration": 69, "velocity": 106}, {"time": 114079, "pitch": 48, "duration": 69, "velocity": 106}, {"time": 114079, "pitch": 52, "duration": 79, "velocity": 106}, {"time": 114079, "pitch": 58, "duration": 79, "velocity": 106}, {"time": 114079, "pitch": 60, "duration": 69, "velocity": 106}, {"time": 114238, "pitch": 43, "duration": 149, "velocity": 117}, {"time": 114238, "pitch": 48, "duration": 149, "velocity": 117}, {"time": 114238, "pitch": 52, "duration": 149, "velocity": 117}, {"time": 114238, "pitch": 58, "duration": 149, "velocity": 117}, {"time": 114238, "pitch": 60, "duration": 159, "velocity": 117}, {"time": 114556, "pitch": 43, "duration": 60, "velocity": 99}, {"time": 114556, "pitch": 48, "duration": 70, "velocity": 99}, {"time": 114556, "pitch": 52, "duration": 70, "velocity": 99}, {"time": 114556, "pitch": 58, "duration": 70, "velocity": 99}, {"time": 114556, "pitch": 60, "duration": 70, "velocity": 99}, {"time": 114716, "pitch": 43, "duration": 122, "velocity": 117}, {"time": 114716, "pitch": 48, "duration": 122, "velocity": 117}, {"time": 114716, "pitch": 52, "duration": 122, "velocity": 117}, {"time": 114716, "pitch": 58, "duration": 122, "velocity": 117}, {"time": 114716, "pitch": 60, "duration": 122, "velocity": 117}, {"time": 115041, "pitch": 43, "duration": 61, "velocity": 106}, {"time": 115041, "pitch": 48, "duration": 82, "velocity": 106}, {"time": 115041, "pitch": 52, "duration": 71, "velocity": 106}, {"time": 115041, "pitch": 58, "duration": 71, "velocity": 106}, {"time": 115041, "pitch": 60, "duration": 71, "velocity": 106}, {"time": 115204, "pitch": 45, "duration": 99, "velocity": 115}, {"time": 115204, "pitch": 48, "duration": 99, "velocity": 115}, {"time": 115204, "pitch": 51, "duration": 109, "velocity": 115}, {"time": 115204, "pitch": 53, "duration": 99, "velocity": 115}, {"time": 115204, "pitch": 57, "duration": 89, "velocity": 115}, {"time": 115522, "pitch": 45, "duration": 50, "velocity": 100}, {"time": 115522, "pitch": 48, "duration": 60, "velocity": 100}, {"time": 115522, "pitch": 51, "duration": 60, "velocity": 100}, {"time": 115522, "pitch": 53, "duration": 60, "velocity": 100}, {"time": 115522, "pitch": 57, "duration": 70, "velocity": 100}, {"time": 115682, "pitch": 45, "duration": 119, "velocity": 115}, {"time": 115682, "pitch": 48, "duration": 119, "velocity": 115}, {"time": 115682, "pitch": 51, "duration": 109, "velocity": 115}, {"time": 115682, "pitch": 53, "duration": 119, "velocity": 115}, {"time": 115682, "pitch": 57, "duration": 99, "velocity": 115}, {"time": 116000, "pitch": 45, "duration": 60, "velocity": 107}, {"time": 116000, "pitch": 48, "duration": 70, "velocity": 107}, {"time": 116000, "pitch": 51, "duration": 60, "velocity": 107}, {"time": 116000, "pitch": 53, "duration": 70, "velocity": 107}, {"time": 116000, "pitch": 57, "duration": 70, "velocity": 107}, {"time": 116159, "pitch": 45, "duration": 90, "velocity": 115}, {"time": 116159, "pitch": 48, "duration": 100, "velocity": 115}, {"time": 116159, "pitch": 51, "duration": 90, "velocity": 115}, {"time": 116159, "pitch": 53, "duration": 100, "velocity": 115}, {"time": 116159, "pitch": 57, "duration": 110, "velocity": 115}, {"time": 117125, "pitch": 46, "duration": 119, "velocity": 117}, {"time": 117125, "pitch": 50, "duration": 119, "velocity": 117}, {"time": 117125, "pitch": 53, "duration": 129, "velocity": 117}, {"time": 117125, "pitch": 58, "duration": 129, "velocity": 117}, {"time": 117443, "pitch": 46, "duration": 80, "velocity": 101}, {"time": 117443, "pitch": 50, "duration": 80, "velocity": 101}, {"time": 117443, "pitch": 53, "duration": 80, "velocity": 101}, {"time": 117443, "pitch": 58, "duration": 90, "velocity": 101}, {"time": 117603, "pitch": 46, "duration": 109, "velocity": 117}, {"time": 117603, "pitch": 50, "duration": 129, "velocity": 117}, {"time": 117603, "pitch": 53, "duration": 119, "velocity": 117}, {"time": 117603, "pitch": 58, "duration": 119, "velocity": 117}, {"time": 117921, "pitch": 46, "duration": 80, "velocity": 117}, {"time": 117921, "pitch": 50, "duration": 80, "velocity": 117}, {"time": 117921, "pitch": 53, "duration": 80, "velocity": 117}, {"time": 117921, "pitch": 58, "duration": 80, "velocity": 117}, {"time": 118080, "pitch": 46, "duration": 130, "velocity": 117}, {"time": 118080, "pitch": 50, "duration": 130, "velocity": 117}, {"time": 118080, "pitch": 53, "duration": 130, "velocity": 117}, {"time": 118080, "pitch": 58, "duration": 130, "velocity": 117}, {"time": 118399, "pitch": 46, "duration": 69, "velocity": 97}, {"time": 118399, "pitch": 50, "duration": 69, "velocity": 97}, {"time": 118399, "pitch": 53, "duration": 69, "velocity": 97}, {"time": 118399, "pitch": 58, "duration": 69, "velocity": 97}, {"time": 118558, "pitch": 46, "duration": 129, "velocity": 117}, {"time": 118558, "pitch": 50, "duration": 139, "velocity": 117}, {"time": 118558, "pitch": 53, "duration": 139, "velocity": 117}, {"time": 118558, "pitch": 58, "duration": 129, "velocity": 117}, {"time": 118876, "pitch": 46, "duration": 90, "velocity": 108}, {"time": 118876, "pitch": 50, "duration": 90, "velocity": 108}, {"time": 118876, "pitch": 53, "duration": 100, "velocity": 108}, {"time": 118876, "pitch": 58, "duration": 100, "velocity": 108}, {"time": 119035, "pitch": 46, "duration": 133, "velocity": 117}, {"time": 119035, "pitch": 50, "duration": 143, "velocity": 117}, {"time": 119035, "pitch": 53, "duration": 143, "velocity": 117}, {"time": 119035, "pitch": 58, "duration": 143, "velocity": 117}, {"time": 119361, "pitch": 46, "duration": 61, "velocity": 104}, {"time": 119361, "pitch": 50, "duration": 71, "velocity": 104}, {"time": 119361, "pitch": 53, "duration": 81, "velocity": 104}, {"time": 119361, "pitch": 58, "duration": 71, "velocity": 104}, {"time": 119524, "pitch": 46, "duration": 109, "velocity": 117}, {"time": 119524, "pitch": 50, "duration": 119, "velocity": 117}, {"time": 119524, "pitch": 53, "duration": 129, "velocity": 117}, {"time": 119524, "pitch": 58, "duration": 129, "velocity": 117}, {"time": 119842, "pitch": 46, "duration": 100, "velocity": 113}, {"time": 119842, "pitch": 50, "duration": 90, "velocity": 113}, {"time": 119842, "pitch": 53, "duration": 100, "velocity": 113}, {"time": 119842, "pitch": 58, "duration": 100, "velocity": 113}, {"time": 120001, "pitch": 46, "duration": 120, "velocity": 117}, {"time": 120001, "pitch": 50, "duration": 120, "velocity": 117}, {"time": 120001, "pitch": 53, "duration": 130, "velocity": 117}, {"time": 120001, "pitch": 58, "duration": 120, "velocity": 117}, {"time": 120320, "pitch": 46, "duration": 59, "velocity": 101}, {"time": 120320, "pitch": 50, "duration": 69, "velocity": 101}, {"time": 120320, "pitch": 53, "duration": 69, "velocity": 101}, {"time": 120320, "pitch": 58, "duration": 69, "velocity": 101}, {"time": 120479, "pitch": 46, "duration": 129, "velocity": 117}, {"time": 120479, "pitch": 50, "duration": 139, "velocity": 117}, {"time": 120479, "pitch": 53, "duration": 139, "velocity": 117}, {"time": 120479, "pitch": 58, "duration": 139, "velocity": 117}, {"time": 120797, "pitch": 46, "duration": 80, "velocity": 111}, {"time": 120797, "pitch": 50, "duration": 80, "velocity": 111}, {"time": 120797, "pitch": 53, "duration": 90, "velocity": 111}, {"time": 120797, "pitch": 58, "duration": 80, "velocity": 111}, {"time": 120957, "pitch": 46, "duration": 101, "velocity": 112}, {"time": 120957, "pitch": 51, "duration": 111, "velocity": 112}, {"time": 120957, "pitch": 55, "duration": 111, "velocity": 112}, {"time": 120957, "pitch": 58, "duration": 111, "velocity": 112}, {"time": 121282, "pitch": 46, "duration": 41, "velocity": 102}, {"time": 121282, "pitch": 51, "duration": 51, "velocity": 102}, {"time": 121282, "pitch": 55, "duration": 61, "velocity": 102}, {"time": 121282, "pitch": 58, "duration": 61, "velocity": 102}, {"time": 121445, "pitch": 46, "duration": 119, "velocity": 115}, {"time": 121445, "pitch": 51, "duration": 129, "velocity": 115}, {"time": 121445, "pitch": 55, "duration": 119, "velocity": 115}, {"time": 121445, "pitch": 58, "duration": 119, "velocity": 115}, {"time": 121763, "pitch": 46, "duration": 100, "velocity": 109}, {"time": 121763, "pitch": 51, "duration": 100, "velocity": 109}, {"time": 121763, "pitch": 55, "duration": 90, "velocity": 109}, {"time": 121763, "pitch": 58, "duration": 90, "velocity": 109}, {"time": 121922, "pitch": 46, "duration": 110, "velocity": 112}, {"time": 121922, "pitch": 51, "duration": 120, "velocity": 112}, {"time": 121922, "pitch": 55, "duration": 120, "velocity": 112}, {"time": 121922, "pitch": 58, "duration": 120, "velocity": 112}, {"time": 122241, "pitch": 46, "duration": 60, "velocity": 96}, {"time": 122241, "pitch": 51, "duration": 50, "velocity": 96}, {"time": 122241, "pitch": 55, "duration": 60, "velocity": 96}, {"time": 122241, "pitch": 58, "duration": 60, "velocity": 96}, {"time": 122400, "pitch": 46, "duration": 110, "velocity": 117}, {"time": 122400, "pitch": 51, "duration": 120, "velocity": 117}, {"time": 122400, "pitch": 55, "duration": 120, "velocity": 117}, {"time": 122400, "pitch": 58, "duration": 120, "velocity": 117}, {"time": 122719, "pitch": 46, "duration": 79, "velocity": 109}, {"time": 122719, "pitch": 51, "duration": 79, "velocity": 109}, {"time": 122719, "pitch": 55, "duration": 89, "velocity": 109}, {"time": 122719, "pitch": 58, "duration": 79, "velocity": 109}, {"time": 122878, "pitch": 48, "duration": 109, "velocity": 115}, {"time": 122878, "pitch": 51, "duration": 109, "velocity": 115}, {"time": 122878, "pitch": 55, "duration": 109, "velocity": 115}, {"time": 122878, "pitch": 58, "duration": 99, "velocity": 115}, {"time": 123196, "pitch": 48, "duration": 50, "velocity": 94}, {"time": 123196, "pitch": 51, "duration": 50, "velocity": 94}, {"time": 123196, "pitch": 55, "duration": 60, "velocity": 94}, {"time": 123196, "pitch": 58, "duration": 60, "velocity": 94}, {"time": 123355, "pitch": 48, "duration": 122, "velocity": 117}, {"time": 123355, "pitch": 51, "duration": 112, "velocity": 117}, {"time": 123355, "pitch": 55, "duration": 122, "velocity": 117}, {"time": 123355, "pitch": 58, "duration": 112, "velocity": 117}, {"time": 123681, "pitch": 48, "duration": 71, "velocity": 104}, {"time": 123681, "pitch": 51, "duration": 71, "velocity": 104}, {"time": 123681, "pitch": 55, "duration": 61, "velocity": 104}, {"time": 123681, "pitch": 58, "duration": 51, "velocity": 104}, {"time": 123844, "pitch": 45, "duration": 129, "velocity": 112}, {"time": 123844, "pitch": 48, "duration": 139, "velocity": 112}, {"time": 123844, "pitch": 51, "duration": 129, "velocity": 112}, {"time": 123844, "pitch": 53, "duration": 129, "velocity": 112}, {"time": 123844, "pitch": 57, "duration": 129, "velocity": 112}, {"time": 124162, "pitch": 45, "duration": 50, "velocity": 89}, {"time": 124162, "pitch": 48, "duration": 60, "velocity": 89}, {"time": 124162, "pitch": 51, "duration": 50, "velocity": 89}, {"time": 124162, "pitch": 53, "duration": 60, "velocity": 89}, {"time": 124162, "pitch": 57, "duration": 60, "velocity": 89}, {"time": 124321, "pitch": 45, "duration": 110, "velocity": 115}, {"time": 124321, "pitch": 48, "duration": 110, "velocity": 115}, {"time": 124321, "pitch": 51, "duration": 110, "velocity": 115}, {"time": 124321, "pitch": 53, "duration": 110, "velocity": 115}, {"time": 124321, "pitch": 57, "duration": 110, "velocity": 115}, {"time": 124640, "pitch": 45, "duration": 69, "velocity": 98}, {"time": 124640, "pitch": 48, "duration": 69, "velocity": 98}, {"time": 124640, "pitch": 51, "duration": 79, "velocity": 98}, {"time": 124640, "pitch": 53, "duration": 69, "velocity": 98}, {"time": 124640, "pitch": 57, "duration": 69, "velocity": 98}, {"time": 124799, "pitch": 46, "duration": 119, "velocity": 117}, {"time": 124799, "pitch": 50, "duration": 119, "velocity": 117}, {"time": 124799, "pitch": 53, "duration": 129, "velocity": 117}, {"time": 124799, "pitch": 58, "duration": 129, "velocity": 117}, {"time": 125117, "pitch": 46, "duration": 80, "velocity": 101}, {"time": 125117, "pitch": 50, "duration": 80, "velocity": 101}, {"time": 125117, "pitch": 53, "duration": 80, "velocity": 101}, {"time": 125117, "pitch": 58, "duration": 90, "velocity": 101}, {"time": 125276, "pitch": 46, "duration": 112, "velocity": 117}, {"time": 125276, "pitch": 50, "duration": 133, "velocity": 117}, {"time": 125276, "pitch": 53, "duration": 122, "velocity": 117}, {"time": 125276, "pitch": 58, "duration": 122, "velocity": 117}, {"time": 125602, "pitch": 46, "duration": 81, "velocity": 117}, {"time": 125602, "pitch": 50, "duration": 81, "velocity": 117}, {"time": 125602, "pitch": 53, "duration": 81, "velocity": 117}, {"time": 125602, "pitch": 58, "duration": 81, "velocity": 117}, {"time": 125765, "pitch": 46, "duration": 129, "velocity": 117}, {"time": 125765, "pitch": 50, "duration": 129, "velocity": 117}, {"time": 125765, "pitch": 53, "duration": 129, "velocity": 117}, {"time": 125765, "pitch": 58, "duration": 129, "velocity": 117}, {"time": 126083, "pitch": 46, "duration": 70, "velocity": 97}, {"time": 126083, "pitch": 50, "duration": 70, "velocity": 97}, {"time": 126083, "pitch": 53, "duration": 70, "velocity": 97}, {"time": 126083, "pitch": 58, "duration": 70, "velocity": 97}, {"time": 126242, "pitch": 46, "duration": 130, "velocity": 117}, {"time": 126242, "pitch": 50, "duration": 140, "velocity": 117}, {"time": 126242, "pitch": 53, "duration": 140, "velocity": 117}, {"time": 126242, "pitch": 58, "duration": 130, "velocity": 117}, {"time": 126561, "pitch": 46, "duration": 89, "velocity": 108}, {"time": 126561, "pitch": 50, "duration": 89, "velocity": 108}, {"time": 126561, "pitch": 53, "duration": 99, "velocity": 108}, {"time": 126561, "pitch": 58, "duration": 99, "velocity": 108}, {"time": 126720, "pitch": 46, "duration": 129, "velocity": 117}, {"time": 126720, "pitch": 50, "duration": 139, "velocity": 117}, {"time": 126720, "pitch": 53, "duration": 139, "velocity": 117}, {"time": 126720, "pitch": 58, "duration": 139, "velocity": 117}, {"time": 127038, "pitch": 46, "duration": 60, "velocity": 104}, {"time": 127038, "pitch": 50, "duration": 70, "velocity": 104}, {"time": 127038, "pitch": 53, "duration": 80, "velocity": 104}, {"time": 127038, "pitch": 58, "duration": 70, "velocity": 104}, {"time": 127198, "pitch": 46, "duration": 109, "velocity": 117}, {"time": 127198, "pitch": 50, "duration": 119, "velocity": 117}, {"time": 127198, "pitch": 53, "duration": 129, "velocity": 117}, {"time": 127198, "pitch": 58, "duration": 129, "velocity": 117}, {"time": 127516, "pitch": 46, "duration": 99, "velocity": 113}, {"time": 127516, "pitch": 50, "duration": 90, "velocity": 113}, {"time": 127516, "pitch": 53, "duration": 99, "velocity": 113}, {"time": 127516, "pitch": 58, "duration": 99, "velocity": 113}, {"time": 127675, "pitch": 46, "duration": 122, "velocity": 117}, {"time": 127675, "pitch": 50, "duration": 122, "velocity": 117}, {"time": 127675, "pitch": 53, "duration": 132, "velocity": 117}, {"time": 127675, "pitch": 58, "duration": 122, "velocity": 117}, {"time": 128001, "pitch": 46, "duration": 61, "velocity": 101}, {"time": 128001, "pitch": 50, "duration": 71, "velocity": 101}, {"time": 128001, "pitch": 53, "duration": 71, "velocity": 101}, {"time": 128001, "pitch": 58, "duration": 71, "velocity": 101}, {"time": 128163, "pitch": 46, "duration": 130, "velocity": 117}, {"time": 128163, "pitch": 50, "duration": 140, "velocity": 117}, {"time": 128163, "pitch": 53, "duration": 140, "velocity": 117}, {"time": 128163, "pitch": 58, "duration": 140, "velocity": 117}, {"time": 128482, "pitch": 46, "duration": 79, "velocity": 111}, {"time": 128482, "pitch": 50, "duration": 79, "velocity": 111}, {"time": 128482, "pitch": 53, "duration": 89, "velocity": 111}, {"time": 128482, "pitch": 58, "duration": 79, "velocity": 111}, {"time": 128641, "pitch": 46, "duration": 110, "velocity": 115}, {"time": 128641, "pitch": 51, "duration": 110, "velocity": 115}, {"time": 128641, "pitch": 55, "duration": 110, "velocity": 115}, {"time": 128641, "pitch": 58, "duration": 100, "velocity": 115}, {"time": 128959, "pitch": 46, "duration": 50, "velocity": 94}, {"time": 128959, "pitch": 51, "duration": 50, "velocity": 94}, {"time": 128959, "pitch": 55, "duration": 60, "velocity": 94}, {"time": 128959, "pitch": 58, "duration": 60, "velocity": 94}, {"time": 129119, "pitch": 46, "duration": 119, "velocity": 117}, {"time": 129119, "pitch": 51, "duration": 109, "velocity": 117}, {"time": 129119, "pitch": 55, "duration": 119, "velocity": 117}, {"time": 129119, "pitch": 58, "duration": 109, "velocity": 117}, {"time": 129437, "pitch": 46, "duration": 70, "velocity": 104}, {"time": 129437, "pitch": 51, "duration": 70, "velocity": 104}, {"time": 129437, "pitch": 55, "duration": 60, "velocity": 104}, {"time": 129437, "pitch": 58, "duration": 50, "velocity": 104}, {"time": 129596, "pitch": 46, "duration": 102, "velocity": 117}, {"time": 129596, "pitch": 52, "duration": 92, "velocity": 117}, {"time": 129596, "pitch": 55, "duration": 102, "velocity": 117}, {"time": 129596, "pitch": 58, "duration": 112, "velocity": 117}, {"time": 129922, "pitch": 46, "duration": 51, "velocity": 85}, {"time": 129922, "pitch": 52, "duration": 51, "velocity": 85}, {"time": 129922, "pitch": 55, "duration": 41, "velocity": 85}, {"time": 129922, "pitch": 58, "duration": 51, "velocity": 85}, {"time": 130085, "pitch": 46, "duration": 99, "velocity": 117}, {"time": 130085, "pitch": 52, "duration": 109, "velocity": 117}, {"time": 130085, "pitch": 55, "duration": 109, "velocity": 117}, {"time": 130085, "pitch": 58, "duration": 109, "velocity": 117}, {"time": 130403, "pitch": 46, "duration": 50, "velocity": 104}, {"time": 130403, "pitch": 52, "duration": 70, "velocity": 104}, {"time": 130403, "pitch": 55, "duration": 70, "velocity": 104}, {"time": 130403, "pitch": 58, "duration": 60, "velocity": 104}, {"time": 130562, "pitch": 45, "duration": 80, "velocity": 117}, {"time": 130562, "pitch": 48, "duration": 80, "velocity": 117}, {"time": 130562, "pitch": 51, "duration": 90, "velocity": 117}, {"time": 130562, "pitch": 53, "duration": 70, "velocity": 117}, {"time": 130562, "pitch": 57, "duration": 80, "velocity": 117}, {"time": 130881, "pitch": 45, "duration": 59, "velocity": 102}, {"time": 130881, "pitch": 48, "duration": 69, "velocity": 102}, {"time": 130881, "pitch": 51, "duration": 59, "velocity": 102}, {"time": 130881, "pitch": 53, "duration": 69, "velocity": 102}, {"time": 130881, "pitch": 57, "duration": 69, "velocity": 102}, {"time": 131040, "pitch": 45, "duration": 119, "velocity": 115}, {"time": 131040, "pitch": 48, "duration": 129, "velocity": 115}, {"time": 131040, "pitch": 51, "duration": 129, "velocity": 115}, {"time": 131040, "pitch": 53, "duration": 129, "velocity": 115}, {"time": 131040, "pitch": 57, "duration": 119, "velocity": 115}, {"time": 131358, "pitch": 45, "duration": 70, "velocity": 109}, {"time": 131358, "pitch": 48, "duration": 90, "velocity": 109}, {"time": 131358, "pitch": 51, "duration": 80, "velocity": 109}, {"time": 131358, "pitch": 53, "duration": 90, "velocity": 109}, {"time": 131358, "pitch": 57, "duration": 80, "velocity": 109}, {"time": 131517, "pitch": 45, "duration": 130, "velocity": 112}, {"time": 131517, "pitch": 48, "duration": 140, "velocity": 112}, {"time": 131517, "pitch": 51, "duration": 130, "velocity": 112}, {"time": 131517, "pitch": 53, "duration": 130, "velocity": 112}, {"time": 131517, "pitch": 57, "duration": 130, "velocity": 112}, {"time": 131836, "pitch": 45, "duration": 50, "velocity": 89}, {"time": 131836, "pitch": 48, "duration": 60, "velocity": 89}, {"time": 131836, "pitch": 51, "duration": 50, "velocity": 89}, {"time": 131836, "pitch": 53, "duration": 60, "velocity": 89}, {"time": 131836, "pitch": 57, "duration": 60, "velocity": 89}, {"time": 131995, "pitch": 45, "duration": 112, "velocity": 115}, {"time": 131995, "pitch": 48, "duration": 112, "velocity": 115}, {"time": 131995, "pitch": 51, "duration": 112, "velocity": 115}, {"time": 131995, "pitch": 53, "duration": 112, "velocity": 115}, {"time": 131995, "pitch": 57, "duration": 112, "velocity": 115}, {"time": 132321, "pitch": 45, "duration": 71, "velocity": 98}, {"time": 132321, "pitch": 48, "duration": 71, "velocity": 98}, {"time": 132321, "pitch": 51, "duration": 81, "velocity": 98}, {"time": 132321, "pitch": 53, "duration": 71, "velocity": 98}, {"time": 132321, "pitch": 57, "duration": 71, "velocity": 98}, {"time": 132483, "pitch": 48, "duration": 110, "velocity": 115}, {"time": 132483, "pitch": 51, "duration": 110, "velocity": 115}, {"time": 132483, "pitch": 55, "duration": 110, "velocity": 115}, {"time": 132483, "pitch": 58, "duration": 100, "velocity": 115}, {"time": 132802, "pitch": 48, "duration": 49, "velocity": 94}, {"time": 132802, "pitch": 51, "duration": 49, "velocity": 94}, {"time": 132802, "pitch": 55, "duration": 59, "velocity": 94}, {"time": 132802, "pitch": 58, "duration": 59, "velocity": 94}, {"time": 132961, "pitch": 48, "duration": 119, "velocity": 117}, {"time": 132961, "pitch": 51, "duration": 109, "velocity": 117}, {"time": 132961, "pitch": 55, "duration": 119, "velocity": 117}, {"time": 132961, "pitch": 58, "duration": 109, "velocity": 117}, {"time": 133279, "pitch": 48, "duration": 70, "velocity": 104}, {"time": 133279, "pitch": 51, "duration": 70, "velocity": 104}, {"time": 133279, "pitch": 55, "duration": 60, "velocity": 104}, {"time": 133279, "pitch": 58, "duration": 50, "velocity": 104}, {"time": 133439, "pitch": 48, "duration": 99, "velocity": 117}, {"time": 133439, "pitch": 51, "duration": 89, "velocity": 117}, {"time": 133439, "pitch": 55, "duration": 99, "velocity": 117}, {"time": 133439, "pitch": 58, "duration": 109, "velocity": 117}, {"time": 133757, "pitch": 48, "duration": 50, "velocity": 85}, {"time": 133757, "pitch": 51, "duration": 50, "velocity": 85}, {"time": 133757, "pitch": 55, "duration": 40, "velocity": 85}, {"time": 133757, "pitch": 58, "duration": 50, "velocity": 85}, {"time": 133916, "pitch": 48, "duration": 102, "velocity": 117}, {"time": 133916, "pitch": 51, "duration": 112, "velocity": 117}, {"time": 133916, "pitch": 55, "duration": 112, "velocity": 117}, {"time": 133916, "pitch": 58, "duration": 112, "velocity": 117}, {"time": 134242, "pitch": 48, "duration": 51, "velocity": 104}, {"time": 134242, "pitch": 51, "duration": 71, "velocity": 104}, {"time": 134242, "pitch": 55, "duration": 71, "velocity": 104}, {"time": 134242, "pitch": 58, "duration": 61, "velocity": 104}, {"time": 134404, "pitch": 45, "duration": 80, "velocity": 117}, {"time": 134404, "pitch": 48, "duration": 80, "velocity": 117}, {"time": 134404, "pitch": 51, "duration": 90, "velocity": 117}, {"time": 134404, "pitch": 53, "duration": 70, "velocity": 117}, {"time": 134404, "pitch": 57, "duration": 80, "velocity": 117}, {"time": 134723, "pitch": 45, "duration": 60, "velocity": 102}, {"time": 134723, "pitch": 48, "duration": 69, "velocity": 102}, {"time": 134723, "pitch": 51, "duration": 60, "velocity": 102}, {"time": 134723, "pitch": 53, "duration": 69, "velocity": 102}, {"time": 134723, "pitch": 57, "duration": 69, "velocity": 102}, {"time": 134882, "pitch": 45, "duration": 119, "velocity": 115}, {"time": 134882, "pitch": 48, "duration": 129, "velocity": 115}, {"time": 134882, "pitch": 51, "duration": 129, "velocity": 115}, {"time": 134882, "pitch": 53, "duration": 129, "velocity": 115}, {"time": 134882, "pitch": 57, "duration": 119, "velocity": 115}, {"time": 135200, "pitch": 45, "duration": 70, "velocity": 109}, {"time": 135200, "pitch": 48, "duration": 90, "velocity": 109}, {"time": 135200, "pitch": 51, "duration": 80, "velocity": 109}, {"time": 135200, "pitch": 53, "duration": 90, "velocity": 109}, {"time": 135200, "pitch": 57, "duration": 80, "velocity": 109}, {"time": 135360, "pitch": 46, "duration": 119, "velocity": 117}, {"time": 135360, "pitch": 50, "duration": 119, "velocity": 117}, {"time": 135360, "pitch": 53, "duration": 129, "velocity": 117}, {"time": 135360, "pitch": 58, "duration": 129, "velocity": 117}, {"time": 135678, "pitch": 46, "duration": 60, "velocity": 106}, {"time": 135678, "pitch": 50, "duration": 70, "velocity": 106}, {"time": 135678, "pitch": 53, "duration": 70, "velocity": 106}, {"time": 135678, "pitch": 58, "duration": 70, "velocity": 106}, {"time": 135837, "pitch": 46, "duration": 120, "velocity": 117}, {"time": 135837, "pitch": 50, "duration": 110, "velocity": 117}, {"time": 135837, "pitch": 53, "duration": 110, "velocity": 117}, {"time": 135837, "pitch": 58, "duration": 110, "velocity": 117}, {"time": 136156, "pitch": 46, "duration": 79, "velocity": 113}, {"time": 136156, "pitch": 50, "duration": 89, "velocity": 113}, {"time": 136156, "pitch": 53, "duration": 79, "velocity": 113}, {"time": 136156, "pitch": 58, "duration": 89, "velocity": 113}, {"time": 136315, "pitch": 46, "duration": 101, "velocity": 112}, {"time": 136315, "pitch": 51, "duration": 112, "velocity": 112}, {"time": 136315, "pitch": 55, "duration": 112, "velocity": 112}, {"time": 136315, "pitch": 58, "duration": 112, "velocity": 112}, {"time": 136640, "pitch": 46, "duration": 41, "velocity": 102}, {"time": 136640, "pitch": 51, "duration": 51, "velocity": 102}, {"time": 136640, "pitch": 55, "duration": 61, "velocity": 102}, {"time": 136640, "pitch": 58, "duration": 61, "velocity": 102}, {"time": 136803, "pitch": 46, "duration": 120, "velocity": 115}, {"time": 136803, "pitch": 51, "duration": 129, "velocity": 115}, {"time": 136803, "pitch": 55, "duration": 120, "velocity": 115}, {"time": 136803, "pitch": 58, "duration": 120, "velocity": 115}, {"time": 137122, "pitch": 46, "duration": 99, "velocity": 109}, {"time": 137122, "pitch": 51, "duration": 99, "velocity": 109}, {"time": 137122, "pitch": 55, "duration": 89, "velocity": 109}, {"time": 137122, "pitch": 58, "duration": 89, "velocity": 109}, {"time": 137281, "pitch": 46, "duration": 109, "velocity": 112}, {"time": 137281, "pitch": 51, "duration": 119, "velocity": 112}, {"time": 137281, "pitch": 55, "duration": 119, "velocity": 112}, {"time": 137281, "pitch": 58, "duration": 119, "velocity": 112}, {"time": 137599, "pitch": 46, "duration": 60, "velocity": 96}, {"time": 137599, "pitch": 51, "duration": 50, "velocity": 96}, {"time": 137599, "pitch": 55, "duration": 60, "velocity": 96}, {"time": 137599, "pitch": 58, "duration": 60, "velocity": 96}, {"time": 137758, "pitch": 46, "duration": 110, "velocity": 117}, {"time": 137758, "pitch": 51, "duration": 120, "velocity": 117}, {"time": 137758, "pitch": 55, "duration": 120, "velocity": 117}, {"time": 137758, "pitch": 58, "duration": 120, "velocity": 117}, {"time": 138077, "pitch": 46, "duration": 79, "velocity": 109}, {"time": 138077, "pitch": 51, "duration": 79, "velocity": 109}, {"time": 138077, "pitch": 55, "duration": 89, "velocity": 109}, {"time": 138077, "pitch": 58, "duration": 79, "velocity": 109}, {"time": 138236, "pitch": 48, "duration": 112, "velocity": 115}, {"time": 138236, "pitch": 51, "duration": 112, "velocity": 115}, {"time": 138236, "pitch": 55, "duration": 112, "velocity": 115}, {"time": 138236, "pitch": 58, "duration": 102, "velocity": 115}, {"time": 138562, "pitch": 48, "duration": 50, "velocity": 94}, {"time": 138562, "pitch": 51, "duration": 50, "velocity": 94}, {"time": 138562, "pitch": 55, "duration": 61, "velocity": 94}, {"time": 138562, "pitch": 58, "duration": 61, "velocity": 94}, {"time": 138724, "pitch": 48, "duration": 120, "velocity": 117}, {"time": 138724, "pitch": 51, "duration": 110, "velocity": 117}, {"time": 138724, "pitch": 55, "duration": 120, "velocity": 117}, {"time": 138724, "pitch": 58, "duration": 110, "velocity": 117}, {"time": 139043, "pitch": 48, "duration": 69, "velocity": 104}, {"time": 139043, "pitch": 51, "duration": 69, "velocity": 104}, {"time": 139043, "pitch": 55, "duration": 59, "velocity": 104}, {"time": 139043, "pitch": 58, "duration": 49, "velocity": 104}, {"time": 139202, "pitch": 45, "duration": 129, "velocity": 112}, {"time": 139202, "pitch": 48, "duration": 139, "velocity": 112}, {"time": 139202, "pitch": 51, "duration": 129, "velocity": 112}, {"time": 139202, "pitch": 53, "duration": 129, "velocity": 112}, {"time": 139202, "pitch": 57, "duration": 129, "velocity": 112}, {"time": 139520, "pitch": 45, "duration": 50, "velocity": 89}, {"time": 139520, "pitch": 48, "duration": 60, "velocity": 89}, {"time": 139520, "pitch": 51, "duration": 50, "velocity": 89}, {"time": 139520, "pitch": 53, "duration": 60, "velocity": 89}, {"time": 139520, "pitch": 57, "duration": 60, "velocity": 89}, {"time": 139679, "pitch": 45, "duration": 110, "velocity": 115}, {"time": 139679, "pitch": 48, "duration": 110, "velocity": 115}, {"time": 139679, "pitch": 51, "duration": 110, "velocity": 115}, {"time": 139679, "pitch": 53, "duration": 110, "velocity": 115}, {"time": 139679, "pitch": 57, "duration": 110, "velocity": 115}, {"time": 139998, "pitch": 45, "duration": 70, "velocity": 98}, {"time": 139998, "pitch": 48, "duration": 70, "velocity": 98}, {"time": 139998, "pitch": 51, "duration": 79, "velocity": 98}, {"time": 139998, "pitch": 53, "duration": 70, "velocity": 98}, {"time": 139998, "pitch": 57, "duration": 70, "velocity": 98}, {"time": 140157, "pitch": 46, "duration": 70, "velocity": 117}, {"time": 140157, "pitch": 50, "duration": 70, "velocity": 117}, {"time": 140157, "pitch": 53, "duration": 80, "velocity": 117}, {"time": 140157, "pitch": 58, "duration": 80, "velocity": 117}, {"time": 142397, "pitch": 45, "duration": 79, "velocity": 112}, {"time": 142397, "pitch": 48, "duration": 79, "velocity": 112}, {"time": 142397, "pitch": 51, "duration": 79, "velocity": 112}, {"time": 142397, "pitch": 53, "duration": 79, "velocity": 112}, {"time": 142397, "pitch": 57, "duration": 79, "velocity": 112}, {"time": 142556, "pitch": 45, "duration": 132, "velocity": 117}, {"time": 142556, "pitch": 48, "duration": 142, "velocity": 117}, {"time": 142556, "pitch": 51, "duration": 132, "velocity": 117}, {"time": 142556, "pitch": 53, "duration": 132, "velocity": 117}, {"time": 142556, "pitch": 57, "duration": 132, "velocity": 117}, {"time": 142881, "pitch": 46, "duration": 61, "velocity": 117}, {"time": 142881, "pitch": 50, "duration": 51, "velocity": 117}, {"time": 142881, "pitch": 53, "duration": 61, "velocity": 117}, {"time": 142881, "pitch": 58, "duration": 61, "velocity": 117}, {"time": 143999, "pitch": 46, "duration": 120, "velocity": 117}, {"time": 143999, "pitch": 51, "duration": 120, "velocity": 117}, {"time": 143999, "pitch": 55, "duration": 120, "velocity": 117}, {"time": 143999, "pitch": 58, "duration": 110, "velocity": 117}, {"time": 144318, "pitch": 46, "duration": 49, "velocity": 98}, {"time": 144318, "pitch": 51, "duration": 49, "velocity": 98}, {"time": 144318, "pitch": 55, "duration": 59, "velocity": 98}, {"time": 144318, "pitch": 58, "duration": 59, "velocity": 98}, {"time": 144477, "pitch": 46, "duration": 122, "velocity": 112}, {"time": 144477, "pitch": 51, "duration": 112, "velocity": 112}, {"time": 144477, "pitch": 55, "duration": 112, "velocity": 112}, {"time": 144477, "pitch": 58, "duration": 122, "velocity": 112}, {"time": 144802, "pitch": 46, "duration": 82, "velocity": 109}, {"time": 144802, "pitch": 51, "duration": 72, "velocity": 109}, {"time": 144802, "pitch": 55, "duration": 72, "velocity": 109}, {"time": 144802, "pitch": 58, "duration": 72, "velocity": 109}, {"time": 144965, "pitch": 46, "duration": 120, "velocity": 115}, {"time": 144965, "pitch": 51, "duration": 120, "velocity": 115}, {"time": 144965, "pitch": 55, "duration": 130, "velocity": 115}, {"time": 144965, "pitch": 58, "duration": 130, "velocity": 115}, {"time": 145284, "pitch": 46, "duration": 59, "velocity": 91}, {"time": 145284, "pitch": 51, "duration": 49, "velocity": 91}, {"time": 145284, "pitch": 55, "duration": 49, "velocity": 91}, {"time": 145284, "pitch": 58, "duration": 49, "velocity": 91}, {"time": 145443, "pitch": 46, "duration": 99, "velocity": 112}, {"time": 145443, "pitch": 51, "duration": 109, "velocity": 112}, {"time": 145443, "pitch": 55, "duration": 109, "velocity": 112}, {"time": 145443, "pitch": 58, "duration": 109, "velocity": 112}, {"time": 145761, "pitch": 46, "duration": 90, "velocity": 112}, {"time": 145761, "pitch": 51, "duration": 80, "velocity": 112}, {"time": 145761, "pitch": 55, "duration": 90, "velocity": 112}, {"time": 145761, "pitch": 58, "duration": 80, "velocity": 112}, {"time": 145920, "pitch": 46, "duration": 100, "velocity": 117}, {"time": 145920, "pitch": 50, "duration": 100, "velocity": 117}, {"time": 145920, "pitch": 53, "duration": 100, "velocity": 117}, {"time": 145920, "pitch": 58, "duration": 100, "velocity": 117}, {"time": 146239, "pitch": 46, "duration": 79, "velocity": 104}, {"time": 146239, "pitch": 50, "duration": 79, "velocity": 104}, {"time": 146239, "pitch": 53, "duration": 89, "velocity": 104}, {"time": 146239, "pitch": 58, "duration": 79, "velocity": 104}, {"time": 146398, "pitch": 46, "duration": 129, "velocity": 117}, {"time": 146398, "pitch": 50, "duration": 119, "velocity": 117}, {"time": 146398, "pitch": 53, "duration": 119, "velocity": 117}, {"time": 146398, "pitch": 58, "duration": 139, "velocity": 117}, {"time": 146716, "pitch": 46, "duration": 90, "velocity": 117}, {"time": 146716, "pitch": 50, "duration": 90, "velocity": 117}, {"time": 146716, "pitch": 53, "duration": 90, "velocity": 117}, {"time": 146716, "pitch": 58, "duration": 90, "velocity": 117}, {"time": 146876, "pitch": 46, "duration": 122, "velocity": 117}, {"time": 146876, "pitch": 50, "duration": 122, "velocity": 117}, {"time": 146876, "pitch": 53, "duration": 132, "velocity": 117}, {"time": 146876, "pitch": 58, "duration": 132, "velocity": 117}, {"time": 147201, "pitch": 46, "duration": 71, "velocity": 99}, {"time": 147201, "pitch": 50, "duration": 71, "velocity": 99}, {"time": 147201, "pitch": 53, "duration": 71, "velocity": 99}, {"time": 147201, "pitch": 58, "duration": 71, "velocity": 99}, {"time": 147364, "pitch": 46, "duration": 129, "velocity": 117}, {"time": 147364, "pitch": 50, "duration": 119, "velocity": 117}, {"time": 147364, "pitch": 53, "duration": 119, "velocity": 117}, {"time": 147364, "pitch": 58, "duration": 119, "velocity": 117}, {"time": 147682, "pitch": 46, "duration": 70, "velocity": 108}, {"time": 147682, "pitch": 50, "duration": 70, "velocity": 108}, {"time": 147682, "pitch": 53, "duration": 80, "velocity": 108}, {"time": 147682, "pitch": 58, "duration": 80, "velocity": 108}, {"time": 147842, "pitch": 46, "duration": 99, "velocity": 115}, {"time": 147842, "pitch": 51, "duration": 99, "velocity": 115}, {"time": 147842, "pitch": 55, "duration": 99, "velocity": 115}, {"time": 147842, "pitch": 58, "duration": 99, "velocity": 115}, {"time": 148160, "pitch": 46, "duration": 60, "velocity": 85}, {"time": 148160, "pitch": 51, "duration": 60, "velocity": 85}, {"time": 148160, "pitch": 55, "duration": 70, "velocity": 85}, {"time": 148160, "pitch": 58, "duration": 70, "velocity": 85}, {"time": 148319, "pitch": 46, "duration": 120, "velocity": 117}, {"time": 148319, "pitch": 51, "duration": 129, "velocity": 117}, {"time": 148319, "pitch": 55, "duration": 120, "velocity": 117}, {"time": 148319, "pitch": 58, "duration": 120, "velocity": 117}, {"time": 148638, "pitch": 46, "duration": 79, "velocity": 107}, {"time": 148638, "pitch": 51, "duration": 69, "velocity": 107}, {"time": 148638, "pitch": 55, "duration": 69, "velocity": 107}, {"time": 148638, "pitch": 58, "duration": 59, "velocity": 107}, {"time": 148797, "pitch": 46, "duration": 132, "velocity": 115}, {"time": 148797, "pitch": 51, "duration": 132, "velocity": 115}, {"time": 148797, "pitch": 55, "duration": 142, "velocity": 115}, {"time": 148797, "pitch": 58, "duration": 142, "velocity": 115}, {"time": 149122, "pitch": 46, "duration": 41, "velocity": 88}, {"time": 149122, "pitch": 51, "duration": 41, "velocity": 88}, {"time": 149122, "pitch": 55, "duration": 61, "velocity": 88}, {"time": 149122, "pitch": 58, "duration": 61, "velocity": 88}, {"time": 149285, "pitch": 46, "duration": 119, "velocity": 117}, {"time": 149285, "pitch": 51, "duration": 119, "velocity": 117}, {"time": 149285, "pitch": 55, "duration": 119, "velocity": 117}, {"time": 149285, "pitch": 58, "duration": 119, "velocity": 117}, {"time": 149603, "pitch": 46, "duration": 80, "velocity": 107}, {"time": 149603, "pitch": 51, "duration": 70, "velocity": 107}, {"time": 149603, "pitch": 55, "duration": 70, "velocity": 107}, {"time": 149603, "pitch": 58, "duration": 60, "velocity": 107}, {"time": 149763, "pitch": 46, "duration": 119, "velocity": 117}, {"time": 149763, "pitch": 50, "duration": 119, "velocity": 117}, {"time": 149763, "pitch": 53, "duration": 119, "velocity": 117}, {"time": 149763, "pitch": 58, "duration": 109, "velocity": 117}, {"time": 150081, "pitch": 46, "duration": 60, "velocity": 92}, {"time": 150081, "pitch": 50, "duration": 60, "velocity": 92}, {"time": 150081, "pitch": 53, "duration": 70, "velocity": 92}, {"time": 150081, "pitch": 58, "duration": 70, "velocity": 92}, {"time": 150240, "pitch": 46, "duration": 120, "velocity": 117}, {"time": 150240, "pitch": 50, "duration": 110, "velocity": 117}, {"time": 150240, "pitch": 53, "duration": 110, "velocity": 117}, {"time": 150240, "pitch": 58, "duration": 110, "velocity": 117}, {"time": 150559, "pitch": 46, "duration": 89, "velocity": 111}, {"time": 150559, "pitch": 50, "duration": 79, "velocity": 111}, {"time": 150559, "pitch": 53, "duration": 79, "velocity": 111}, {"time": 150559, "pitch": 58, "duration": 69, "velocity": 111}, {"time": 150718, "pitch": 46, "duration": 139, "velocity": 117}, {"time": 150718, "pitch": 50, "duration": 149, "velocity": 117}, {"time": 150718, "pitch": 53, "duration": 149, "velocity": 117}, {"time": 150718, "pitch": 58, "duration": 139, "velocity": 117}, {"time": 151036, "pitch": 46, "duration": 80, "velocity": 102}, {"time": 151036, "pitch": 50, "duration": 80, "velocity": 102}, {"time": 151036, "pitch": 53, "duration": 70, "velocity": 102}, {"time": 151036, "pitch": 58, "duration": 70, "velocity": 102}, {"time": 151195, "pitch": 46, "duration": 133, "velocity": 117}, {"time": 151195, "pitch": 50, "duration": 133, "velocity": 117}, {"time": 151195, "pitch": 53, "duration": 133, "velocity": 117}, {"time": 151195, "pitch": 58, "duration": 133, "velocity": 117}, {"time": 151521, "pitch": 46, "duration": 61, "velocity": 104}, {"time": 151521, "pitch": 50, "duration": 61, "velocity": 104}, {"time": 151521, "pitch": 53, "duration": 71, "velocity": 104}, {"time": 151521, "pitch": 58, "duration": 61, "velocity": 104}, {"time": 151684, "pitch": 46, "duration": 99, "velocity": 112}, {"time": 151684, "pitch": 51, "duration": 99, "velocity": 112}, {"time": 151684, "pitch": 55, "duration": 99, "velocity": 112}, {"time": 151684, "pitch": 58, "duration": 89, "velocity": 112}, {"time": 152002, "pitch": 46, "duration": 70, "velocity": 96}, {"time": 152002, "pitch": 51, "duration": 80, "velocity": 96}, {"time": 152002, "pitch": 55, "duration": 80, "velocity": 96}, {"time": 152002, "pitch": 58, "duration": 80, "velocity": 96}, {"time": 152161, "pitch": 46, "duration": 140, "velocity": 117}, {"time": 152161, "pitch": 51, "duration": 140, "velocity": 117}, {"time": 152161, "pitch": 55, "duration": 140, "velocity": 117}, {"time": 152161, "pitch": 58, "duration": 130, "velocity": 117}, {"time": 152480, "pitch": 46, "duration": 69, "velocity": 104}, {"time": 152480, "pitch": 51, "duration": 79, "velocity": 104}, {"time": 152480, "pitch": 55, "duration": 79, "velocity": 104}, {"time": 152480, "pitch": 58, "duration": 79, "velocity": 104}, {"time": 152639, "pitch": 46, "duration": 139, "velocity": 112}, {"time": 152639, "pitch": 51, "duration": 139, "velocity": 112}, {"time": 152639, "pitch": 55, "duration": 149, "velocity": 112}, {"time": 152639, "pitch": 58, "duration": 139, "velocity": 112}, {"time": 152957, "pitch": 46, "duration": 50, "velocity": 86}, {"time": 152957, "pitch": 51, "duration": 50, "velocity": 86}, {"time": 152957, "pitch": 55, "duration": 40, "velocity": 86}, {"time": 152957, "pitch": 58, "duration": 50, "velocity": 86}, {"time": 153117, "pitch": 46, "duration": 111, "velocity": 117}, {"time": 153117, "pitch": 51, "duration": 111, "velocity": 117}, {"time": 153117, "pitch": 55, "duration": 111, "velocity": 117}, {"time": 153117, "pitch": 58, "duration": 111, "velocity": 117}, {"time": 153442, "pitch": 46, "duration": 71, "velocity": 107}, {"time": 153442, "pitch": 51, "duration": 71, "velocity": 107}, {"time": 153442, "pitch": 55, "duration": 61, "velocity": 107}, {"time": 153442, "pitch": 58, "duration": 61, "velocity": 107}, {"time": 153605, "pitch": 46, "duration": 109, "velocity": 117}, {"time": 153605, "pitch": 50, "duration": 99, "velocity": 117}, {"time": 153605, "pitch": 53, "duration": 109, "velocity": 117}, {"time": 153605, "pitch": 58, "duration": 109, "velocity": 117}, {"time": 153923, "pitch": 46, "duration": 70, "velocity": 102}, {"time": 153923, "pitch": 50, "duration": 80, "velocity": 102}, {"time": 153923, "pitch": 53, "duration": 80, "velocity": 102}, {"time": 153923, "pitch": 58, "duration": 80, "velocity": 102}, {"time": 154082, "pitch": 46, "duration": 130, "velocity": 117}, {"time": 154082, "pitch": 50, "duration": 130, "velocity": 117}, {"time": 154082, "pitch": 53, "duration": 130, "velocity": 117}, {"time": 154082, "pitch": 58, "duration": 130, "velocity": 117}, {"time": 154401, "pitch": 46, "duration": 99, "velocity": 117}, {"time": 154401, "pitch": 50, "duration": 109, "velocity": 117}, {"time": 154401, "pitch": 53, "duration": 109, "velocity": 117}, {"time": 154401, "pitch": 58, "duration": 109, "velocity": 117}, {"time": 154560, "pitch": 46, "duration": 169, "velocity": 117}, {"time": 154560, "pitch": 50, "duration": 149, "velocity": 117}, {"time": 154560, "pitch": 53, "duration": 149, "velocity": 117}, {"time": 154560, "pitch": 58, "duration": 159, "velocity": 117}, {"time": 154878, "pitch": 46, "duration": 70, "velocity": 104}, {"time": 154878, "pitch": 50, "duration": 80, "velocity": 104}, {"time": 154878, "pitch": 53, "duration": 80, "velocity": 104}, {"time": 154878, "pitch": 58, "duration": 80, "velocity": 104}, {"time": 155038, "pitch": 46, "duration": 119, "velocity": 117}, {"time": 155038, "pitch": 50, "duration": 119, "velocity": 117}, {"time": 155038, "pitch": 53, "duration": 119, "velocity": 117}, {"time": 155038, "pitch": 58, "duration": 119, "velocity": 117}, {"time": 155356, "pitch": 46, "duration": 70, "velocity": 101}, {"time": 155356, "pitch": 50, "duration": 70, "velocity": 101}, {"time": 155356, "pitch": 53, "duration": 70, "velocity": 101}, {"time": 155356, "pitch": 58, "duration": 70, "velocity": 101}, {"time": 155515, "pitch": 43, "duration": 122, "velocity": 117}, {"time": 155515, "pitch": 48, "duration": 122, "velocity": 117}, {"time": 155515, "pitch": 52, "duration": 122, "velocity": 117}, {"time": 155515, "pitch": 58, "duration": 133, "velocity": 117}, {"time": 155515, "pitch": 60, "duration": 133, "velocity": 117}, {"time": 155841, "pitch": 43, "duration": 71, "velocity": 94}, {"time": 155841, "pitch": 48, "duration": 71, "velocity": 94}, {"time": 155841, "pitch": 52, "duration": 71, "velocity": 94}, {"time": 155841, "pitch": 58, "duration": 71, "velocity": 94}, {"time": 155841, "pitch": 60, "duration": 81, "velocity": 94}, {"time": 156004, "pitch": 43, "duration": 129, "velocity": 117}, {"time": 156004, "pitch": 48, "duration": 139, "velocity": 117}, {"time": 156004, "pitch": 52, "duration": 139, "velocity": 117}, {"time": 156004, "pitch": 58, "duration": 139, "velocity": 117}, {"time": 156004, "pitch": 60, "duration": 139, "velocity": 117}, {"time": 156322, "pitch": 43, "duration": 70, "velocity": 106}, {"time": 156322, "pitch": 48, "duration": 70, "velocity": 106}, {"time": 156322, "pitch": 52, "duration": 80, "velocity": 106}, {"time": 156322, "pitch": 58, "duration": 80, "velocity": 106}, {"time": 156322, "pitch": 60, "duration": 70, "velocity": 106}, {"time": 156481, "pitch": 43, "duration": 149, "velocity": 117}, {"time": 156481, "pitch": 48, "duration": 149, "velocity": 117}, {"time": 156481, "pitch": 52, "duration": 149, "velocity": 117}, {"time": 156481, "pitch": 58, "duration": 149, "velocity": 117}, {"time": 156481, "pitch": 60, "duration": 159, "velocity": 117}, {"time": 156800, "pitch": 43, "duration": 59, "velocity": 99}, {"time": 156800, "pitch": 48, "duration": 69, "velocity": 99}, {"time": 156800, "pitch": 52, "duration": 69, "velocity": 99}, {"time": 156800, "pitch": 58, "duration": 69, "velocity": 99}, {"time": 156800, "pitch": 60, "duration": 69, "velocity": 99}, {"time": 156959, "pitch": 43, "duration": 119, "velocity": 117}, {"time": 156959, "pitch": 48, "duration": 119, "velocity": 117}, {"time": 156959, "pitch": 52, "duration": 119, "velocity": 117}, {"time": 156959, "pitch": 58, "duration": 119, "velocity": 117}, {"time": 156959, "pitch": 60, "duration": 119, "velocity": 117}, {"time": 157277, "pitch": 43, "duration": 60, "velocity": 106}, {"time": 157277, "pitch": 48, "duration": 80, "velocity": 106}, {"time": 157277, "pitch": 52, "duration": 70, "velocity": 106}, {"time": 157277, "pitch": 58, "duration": 70, "velocity": 106}, {"time": 157277, "pitch": 60, "duration": 70, "velocity": 106}, {"time": 157436, "pitch": 45, "duration": 102, "velocity": 115}, {"time": 157436, "pitch": 48, "duration": 102, "velocity": 115}, {"time": 157436, "pitch": 51, "duration": 112, "velocity": 115}, {"time": 157436, "pitch": 53, "duration": 102, "velocity": 115}, {"time": 157436, "pitch": 57, "duration": 92, "velocity": 115}, {"time": 157762, "pitch": 45, "duration": 51, "velocity": 100}, {"time": 157762, "pitch": 48, "duration": 61, "velocity": 100}, {"time": 157762, "pitch": 51, "duration": 61, "velocity": 100}, {"time": 157762, "pitch": 53, "duration": 61, "velocity": 100}, {"time": 157762, "pitch": 57, "duration": 71, "velocity": 100}, {"time": 157925, "pitch": 45, "duration": 119, "velocity": 115}, {"time": 157925, "pitch": 48, "duration": 119, "velocity": 115}, {"time": 157925, "pitch": 51, "duration": 109, "velocity": 115}, {"time": 157925, "pitch": 53, "duration": 119, "velocity": 115}, {"time": 157925, "pitch": 57, "duration": 99, "velocity": 115}, {"time": 158243, "pitch": 45, "duration": 60, "velocity": 107}, {"time": 158243, "pitch": 48, "duration": 70, "velocity": 107}, {"time": 158243, "pitch": 51, "duration": 60, "velocity": 107}, {"time": 158243, "pitch": 53, "duration": 70, "velocity": 107}, {"time": 158243, "pitch": 57, "duration": 70, "velocity": 107}, {"time": 158402, "pitch": 45, "duration": 90, "velocity": 115}, {"time": 158402, "pitch": 48, "duration": 100, "velocity": 115}, {"time": 158402, "pitch": 51, "duration": 90, "velocity": 115}, {"time": 158402, "pitch": 53, "duration": 100, "velocity": 115}, {"time": 158402, "pitch": 57, "duration": 110, "velocity": 115}, {"time": 158721, "pitch": 45, "duration": 49, "velocity": 94}, {"time": 158721, "pitch": 48, "duration": 59, "velocity": 94}, {"time": 158721, "pitch": 51, "duration": 49, "velocity": 94}, {"time": 158721, "pitch": 53, "duration": 59, "velocity": 94}, {"time": 158721, "pitch": 57, "duration": 59, "velocity": 94}, {"time": 158880, "pitch": 45, "duration": 119, "velocity": 115}, {"time": 158880, "pitch": 48, "duration": 109, "velocity": 115}, {"time": 158880, "pitch": 51, "duration": 119, "velocity": 115}, {"time": 158880, "pitch": 53, "duration": 119, "velocity": 115}, {"time": 158880, "pitch": 57, "duration": 129, "velocity": 115}, {"time": 159198, "pitch": 45, "duration": 90, "velocity": 100}, {"time": 159198, "pitch": 48, "duration": 80, "velocity": 100}, {"time": 159198, "pitch": 51, "duration": 90, "velocity": 100}, {"time": 159198, "pitch": 53, "duration": 70, "velocity": 100}, {"time": 159198, "pitch": 57, "duration": 60, "velocity": 100}, {"time": 159358, "pitch": 46, "duration": 119, "velocity": 117}, {"time": 159358, "pitch": 50, "duration": 119, "velocity": 117}, {"time": 159358, "pitch": 53, "duration": 129, "velocity": 117}, {"time": 159358, "pitch": 58, "duration": 129, "velocity": 117}, {"time": 159676, "pitch": 46, "duration": 80, "velocity": 101}, {"time": 159676, "pitch": 50, "duration": 80, "velocity": 101}, {"time": 159676, "pitch": 53, "duration": 80, "velocity": 101}, {"time": 159676, "pitch": 58, "duration": 90, "velocity": 101}, {"time": 159835, "pitch": 46, "duration": 112, "velocity": 117}, {"time": 159835, "pitch": 50, "duration": 132, "velocity": 117}, {"time": 159835, "pitch": 53, "duration": 122, "velocity": 117}, {"time": 159835, "pitch": 58, "duration": 122, "velocity": 117}, {"time": 160161, "pitch": 46, "duration": 81, "velocity": 117}, {"time": 160161, "pitch": 50, "duration": 81, "velocity": 117}, {"time": 160161, "pitch": 53, "duration": 81, "velocity": 117}, {"time": 160161, "pitch": 58, "duration": 81, "velocity": 117}, {"time": 160323, "pitch": 46, "duration": 130, "velocity": 117}, {"time": 160323, "pitch": 50, "duration": 130, "velocity": 117}, {"time": 160323, "pitch": 53, "duration": 130, "velocity": 117}, {"time": 160323, "pitch": 58, "duration": 130, "velocity": 117}, {"time": 160642, "pitch": 46, "duration": 69, "velocity": 97}, {"time": 160642, "pitch": 50, "duration": 69, "velocity": 97}, {"time": 160642, "pitch": 53, "duration": 69, "velocity": 97}, {"time": 160642, "pitch": 58, "duration": 69, "velocity": 97}, {"time": 160801, "pitch": 46, "duration": 129, "velocity": 117}, {"time": 160801, "pitch": 50, "duration": 139, "velocity": 117}, {"time": 160801, "pitch": 53, "duration": 139, "velocity": 117}, {"time": 160801, "pitch": 58, "duration": 129, "velocity": 117}, {"time": 161119, "pitch": 46, "duration": 90, "velocity": 108}, {"time": 161119, "pitch": 50, "duration": 90, "velocity": 108}, {"time": 161119, "pitch": 53, "duration": 100, "velocity": 108}, {"time": 161119, "pitch": 58, "duration": 100, "velocity": 108}, {"time": 161279, "pitch": 46, "duration": 129, "velocity": 117}, {"time": 161279, "pitch": 50, "duration": 139, "velocity": 117}, {"time": 161279, "pitch": 53, "duration": 139, "velocity": 117}, {"time": 161279, "pitch": 58, "duration": 139, "velocity": 117}, {"time": 161597, "pitch": 46, "duration": 60, "velocity": 104}, {"time": 161597, "pitch": 50, "duration": 70, "velocity": 104}, {"time": 161597, "pitch": 53, "duration": 80, "velocity": 104}, {"time": 161597, "pitch": 58, "duration": 70, "velocity": 104}, {"time": 161756, "pitch": 46, "duration": 112, "velocity": 117}, {"time": 161756, "pitch": 50, "duration": 122, "velocity": 117}, {"time": 161756, "pitch": 53, "duration": 132, "velocity": 117}, {"time": 161756, "pitch": 58, "duration": 132, "velocity": 117}, {"time": 162082, "pitch": 46, "duration": 102, "velocity": 113}, {"time": 162082, "pitch": 50, "duration": 91, "velocity": 113}, {"time": 162082, "pitch": 53, "duration": 102, "velocity": 113}, {"time": 162082, "pitch": 58, "duration": 102, "velocity": 113}, {"time": 162245, "pitch": 46, "duration": 119, "velocity": 117}, {"time": 162245, "pitch": 50, "duration": 119, "velocity": 117}, {"time": 162245, "pitch": 53, "duration": 129, "velocity": 117}, {"time": 162245, "pitch": 58, "duration": 119, "velocity": 117}, {"time": 162563, "pitch": 46, "duration": 60, "velocity": 101}, {"time": 162563, "pitch": 50, "duration": 70, "velocity": 101}, {"time": 162563, "pitch": 53, "duration": 70, "velocity": 101}, {"time": 162563, "pitch": 58, "duration": 70, "velocity": 101}, {"time": 162722, "pitch": 46, "duration": 130, "velocity": 117}, {"time": 162722, "pitch": 50, "duration": 139, "velocity": 117}, {"time": 162722, "pitch": 53, "duration": 139, "velocity": 117}, {"time": 162722, "pitch": 58, "duration": 139, "velocity": 117}, {"time": 163041, "pitch": 46, "duration": 79, "velocity": 111}, {"time": 163041, "pitch": 50, "duration": 79, "velocity": 111}, {"time": 163041, "pitch": 53, "duration": 89, "velocity": 111}, {"time": 163041, "pitch": 58, "duration": 79, "velocity": 111}, {"time": 163200, "pitch": 46, "duration": 99, "velocity": 112}, {"time": 163200, "pitch": 51, "duration": 109, "velocity": 112}, {"time": 163200, "pitch": 55, "duration": 109, "velocity": 112}, {"time": 163200, "pitch": 58, "duration": 109, "velocity": 112}, {"time": 163518, "pitch": 46, "duration": 40, "velocity": 102}, {"time": 163518, "pitch": 51, "duration": 50, "velocity": 102}, {"time": 163518, "pitch": 55, "duration": 60, "velocity": 102}, {"time": 163518, "pitch": 58, "duration": 60, "velocity": 102}, {"time": 163677, "pitch": 46, "duration": 120, "velocity": 115}, {"time": 163677, "pitch": 51, "duration": 130, "velocity": 115}, {"time": 163677, "pitch": 55, "duration": 120, "velocity": 115}, {"time": 163677, "pitch": 58, "duration": 120, "velocity": 115}, {"time": 163996, "pitch": 46, "duration": 99, "velocity": 109}, {"time": 163996, "pitch": 51, "duration": 99, "velocity": 109}, {"time": 163996, "pitch": 55, "duration": 89, "velocity": 109}, {"time": 163996, "pitch": 58, "duration": 89, "velocity": 109}, {"time": 164155, "pitch": 46, "duration": 112, "velocity": 112}, {"time": 164155, "pitch": 51, "duration": 122, "velocity": 112}, {"time": 164155, "pitch": 55, "duration": 122, "velocity": 112}, {"time": 164155, "pitch": 58, "duration": 122, "velocity": 112}, {"time": 164481, "pitch": 46, "duration": 61, "velocity": 96}, {"time": 164481, "pitch": 51, "duration": 50, "velocity": 96}, {"time": 164481, "pitch": 55, "duration": 61, "velocity": 96}, {"time": 164481, "pitch": 58, "duration": 61, "velocity": 96}, {"time": 164643, "pitch": 46, "duration": 110, "velocity": 117}, {"time": 164643, "pitch": 51, "duration": 120, "velocity": 117}, {"time": 164643, "pitch": 55, "duration": 120, "velocity": 117}, {"time": 164643, "pitch": 58, "duration": 120, "velocity": 117}, {"time": 164962, "pitch": 46, "duration": 79, "velocity": 109}, {"time": 164962, "pitch": 51, "duration": 79, "velocity": 109}, {"time": 164962, "pitch": 55, "duration": 89, "velocity": 109}, {"time": 164962, "pitch": 58, "duration": 79, "velocity": 109}, {"time": 165121, "pitch": 48, "duration": 109, "velocity": 115}, {"time": 165121, "pitch": 51, "duration": 109, "velocity": 115}, {"time": 165121, "pitch": 55, "duration": 109, "velocity": 115}, {"time": 165121, "pitch": 58, "duration": 99, "velocity": 115}, {"time": 165439, "pitch": 48, "duration": 50, "velocity": 94}, {"time": 165439, "pitch": 51, "duration": 50, "velocity": 94}, {"time": 165439, "pitch": 55, "duration": 60, "velocity": 94}, {"time": 165439, "pitch": 58, "duration": 60, "velocity": 94}, {"time": 165598, "pitch": 48, "duration": 120, "velocity": 117}, {"time": 165598, "pitch": 51, "duration": 110, "velocity": 117}, {"time": 165598, "pitch": 55, "duration": 120, "velocity": 117}, {"time": 165598, "pitch": 58, "duration": 110, "velocity": 117}, {"time": 165917, "pitch": 48, "duration": 70, "velocity": 104}, {"time": 165917, "pitch": 51, "duration": 70, "velocity": 104}, {"time": 165917, "pitch": 55, "duration": 60, "velocity": 104}, {"time": 165917, "pitch": 58, "duration": 50, "velocity": 104}, {"time": 166076, "pitch": 45, "duration": 132, "velocity": 112}, {"time": 166076, "pitch": 48, "duration": 142, "velocity": 112}, {"time": 166076, "pitch": 51, "duration": 132, "velocity": 112}, {"time": 166076, "pitch": 53, "duration": 132, "velocity": 112}, {"time": 166076, "pitch": 57, "duration": 132, "velocity": 112}, {"time": 166402, "pitch": 45, "duration": 51, "velocity": 89}, {"time": 166402, "pitch": 48, "duration": 61, "velocity": 89}, {"time": 166402, "pitch": 51, "duration": 51, "velocity": 89}, {"time": 166402, "pitch": 53, "duration": 61, "velocity": 89}, {"time": 166402, "pitch": 57, "duration": 61, "velocity": 89}, {"time": 166564, "pitch": 45, "duration": 110, "velocity": 115}, {"time": 166564, "pitch": 48, "duration": 110, "velocity": 115}, {"time": 166564, "pitch": 51, "duration": 110, "velocity": 115}, {"time": 166564, "pitch": 53, "duration": 110, "velocity": 115}, {"time": 166564, "pitch": 57, "duration": 110, "velocity": 115}, {"time": 166883, "pitch": 45, "duration": 69, "velocity": 98}, {"time": 166883, "pitch": 48, "duration": 69, "velocity": 98}, {"time": 166883, "pitch": 51, "duration": 79, "velocity": 98}, {"time": 166883, "pitch": 53, "duration": 69, "velocity": 98}, {"time": 166883, "pitch": 57, "duration": 69, "velocity": 98}, {"time": 167042, "pitch": 46, "duration": 119, "velocity": 117}, {"time": 167042, "pitch": 50, "duration": 119, "velocity": 117}, {"time": 167042, "pitch": 53, "duration": 129, "velocity": 117}, {"time": 167042, "pitch": 58, "duration": 129, "velocity": 117}, {"time": 167360, "pitch": 46, "duration": 80, "velocity": 101}, {"time": 167360, "pitch": 50, "duration": 80, "velocity": 101}, {"time": 167360, "pitch": 53, "duration": 80, "velocity": 101}, {"time": 167360, "pitch": 58, "duration": 90, "velocity": 101}, {"time": 167520, "pitch": 46, "duration": 109, "velocity": 117}, {"time": 167520, "pitch": 50, "duration": 129, "velocity": 117}, {"time": 167520, "pitch": 53, "duration": 119, "velocity": 117}, {"time": 167520, "pitch": 58, "duration": 119, "velocity": 117}, {"time": 167838, "pitch": 46, "duration": 80, "velocity": 117}, {"time": 167838, "pitch": 50, "duration": 80, "velocity": 117}, {"time": 167838, "pitch": 53, "duration": 80, "velocity": 117}, {"time": 167838, "pitch": 58, "duration": 80, "velocity": 117}, {"time": 167997, "pitch": 46, "duration": 130, "velocity": 117}, {"time": 167997, "pitch": 50, "duration": 130, "velocity": 117}, {"time": 167997, "pitch": 53, "duration": 130, "velocity": 117}, {"time": 167997, "pitch": 58, "duration": 130, "velocity": 117}, {"time": 168316, "pitch": 46, "duration": 69, "velocity": 97}, {"time": 168316, "pitch": 50, "duration": 69, "velocity": 97}, {"time": 168316, "pitch": 53, "duration": 69, "velocity": 97}, {"time": 168316, "pitch": 58, "duration": 69, "velocity": 97}, {"time": 168475, "pitch": 46, "duration": 132, "velocity": 117}, {"time": 168475, "pitch": 50, "duration": 142, "velocity": 117}, {"time": 168475, "pitch": 53, "duration": 142, "velocity": 117}, {"time": 168475, "pitch": 58, "duration": 132, "velocity": 117}, {"time": 168800, "pitch": 46, "duration": 92, "velocity": 108}, {"time": 168800, "pitch": 50, "duration": 92, "velocity": 108}, {"time": 168800, "pitch": 53, "duration": 102, "velocity": 108}, {"time": 168800, "pitch": 58, "duration": 102, "velocity": 108}, {"time": 168963, "pitch": 46, "duration": 129, "velocity": 117}, {"time": 168963, "pitch": 50, "duration": 139, "velocity": 117}, {"time": 168963, "pitch": 53, "duration": 139, "velocity": 117}, {"time": 168963, "pitch": 58, "duration": 139, "velocity": 117}, {"time": 169282, "pitch": 46, "duration": 59, "velocity": 104}, {"time": 169282, "pitch": 50, "duration": 69, "velocity": 104}, {"time": 169282, "pitch": 53, "duration": 79, "velocity": 104}, {"time": 169282, "pitch": 58, "duration": 69, "velocity": 104}, {"time": 169441, "pitch": 46, "duration": 109, "velocity": 117}, {"time": 169441, "pitch": 50, "duration": 119, "velocity": 117}, {"time": 169441, "pitch": 53, "duration": 129, "velocity": 117}, {"time": 169441, "pitch": 58, "duration": 129, "velocity": 117}, {"time": 169759, "pitch": 46, "duration": 100, "velocity": 113}, {"time": 169759, "pitch": 50, "duration": 90, "velocity": 113}, {"time": 169759, "pitch": 53, "duration": 100, "velocity": 113}, {"time": 169759, "pitch": 58, "duration": 100, "velocity": 113}, {"time": 169918, "pitch": 46, "duration": 120, "velocity": 117}, {"time": 169918, "pitch": 50, "duration": 120, "velocity": 117}, {"time": 169918, "pitch": 53, "duration": 130, "velocity": 117}, {"time": 169918, "pitch": 58, "duration": 120, "velocity": 117}, {"time": 170237, "pitch": 46, "duration": 59, "velocity": 101}, {"time": 170237, "pitch": 50, "duration": 69, "velocity": 101}, {"time": 170237, "pitch": 53, "duration": 69, "velocity": 101}, {"time": 170237, "pitch": 58, "duration": 69, "velocity": 101}, {"time": 170396, "pitch": 46, "duration": 132, "velocity": 117}, {"time": 170396, "pitch": 50, "duration": 142, "velocity": 117}, {"time": 170396, "pitch": 53, "duration": 142, "velocity": 117}, {"time": 170396, "pitch": 58, "duration": 142, "velocity": 117}, {"time": 170721, "pitch": 46, "duration": 82, "velocity": 111}, {"time": 170721, "pitch": 50, "duration": 82, "velocity": 111}, {"time": 170721, "pitch": 53, "duration": 92, "velocity": 111}, {"time": 170721, "pitch": 58, "duration": 82, "velocity": 111}, {"time": 170884, "pitch": 46, "duration": 110, "velocity": 115}, {"time": 170884, "pitch": 51, "duration": 110, "velocity": 115}, {"time": 170884, "pitch": 55, "duration": 110, "velocity": 115}, {"time": 170884, "pitch": 58, "duration": 100, "velocity": 115}, {"time": 171203, "pitch": 46, "duration": 49, "velocity": 94}, {"time": 171203, "pitch": 51, "duration": 49, "velocity": 94}, {"time": 171203, "pitch": 55, "duration": 59, "velocity": 94}, {"time": 171203, "pitch": 58, "duration": 59, "velocity": 94}, {"time": 171362, "pitch": 46, "duration": 119, "velocity": 117}, {"time": 171362, "pitch": 51, "duration": 109, "velocity": 117}, {"time": 171362, "pitch": 55, "duration": 119, "velocity": 117}, {"time": 171362, "pitch": 58, "duration": 109, "velocity": 117}, {"time": 171680, "pitch": 46, "duration": 70, "velocity": 104}, {"time": 171680, "pitch": 51, "duration": 70, "velocity": 104}, {"time": 171680, "pitch": 55, "duration": 60, "velocity": 104}, {"time": 171680, "pitch": 58, "duration": 50, "velocity": 104}, {"time": 171839, "pitch": 46, "duration": 100, "velocity": 117}, {"time": 171839, "pitch": 52, "duration": 90, "velocity": 117}, {"time": 171839, "pitch": 55, "duration": 100, "velocity": 117}, {"time": 171839, "pitch": 58, "duration": 110, "velocity": 117}, {"time": 172158, "pitch": 46, "duration": 50, "velocity": 85}, {"time": 172158, "pitch": 52, "duration": 50, "velocity": 85}, {"time": 172158, "pitch": 55, "duration": 40, "velocity": 85}, {"time": 172158, "pitch": 58, "duration": 50, "velocity": 85}, {"time": 172317, "pitch": 46, "duration": 100, "velocity": 117}, {"time": 172317, "pitch": 52, "duration": 110, "velocity": 117}, {"time": 172317, "pitch": 55, "duration": 110, "velocity": 117}, {"time": 172317, "pitch": 58, "duration": 110, "velocity": 117}, {"time": 172635, "pitch": 46, "duration": 50, "velocity": 104}, {"time": 172635, "pitch": 52, "duration": 70, "velocity": 104}, {"time": 172635, "pitch": 55, "duration": 70, "velocity": 104}, {"time": 172635, "pitch": 58, "duration": 60, "velocity": 104}, {"time": 172795, "pitch": 45, "duration": 81, "velocity": 117}, {"time": 172795, "pitch": 48, "duration": 81, "velocity": 117}, {"time": 172795, "pitch": 51, "duration": 91, "velocity": 117}, {"time": 172795, "pitch": 53, "duration": 71, "velocity": 117}, {"time": 172795, "pitch": 57, "duration": 81, "velocity": 117}, {"time": 173120, "pitch": 45, "duration": 61, "velocity": 102}, {"time": 173120, "pitch": 48, "duration": 71, "velocity": 102}, {"time": 173120, "pitch": 51, "duration": 61, "velocity": 102}, {"time": 173120, "pitch": 53, "duration": 71, "velocity": 102}, {"time": 173120, "pitch": 57, "duration": 71, "velocity": 102}, {"time": 173283, "pitch": 45, "duration": 119, "velocity": 115}, {"time": 173283, "pitch": 48, "duration": 129, "velocity": 115}, {"time": 173283, "pitch": 51, "duration": 129, "velocity": 115}, {"time": 173283, "pitch": 53, "duration": 129, "velocity": 115}, {"time": 173283, "pitch": 57, "duration": 119, "velocity": 115}, {"time": 173601, "pitch": 45, "duration": 70, "velocity": 109}, {"time": 173601, "pitch": 48, "duration": 90, "velocity": 109}, {"time": 173601, "pitch": 51, "duration": 80, "velocity": 109}, {"time": 173601, "pitch": 53, "duration": 90, "velocity": 109}, {"time": 173601, "pitch": 57, "duration": 80, "velocity": 109}, {"time": 173761, "pitch": 45, "duration": 129, "velocity": 112}, {"time": 173761, "pitch": 48, "duration": 139, "velocity": 112}, {"time": 173761, "pitch": 51, "duration": 129, "velocity": 112}, {"time": 173761, "pitch": 53, "duration": 129, "velocity": 112}, {"time": 173761, "pitch": 57, "duration": 129, "velocity": 112}, {"time": 174079, "pitch": 45, "duration": 50, "velocity": 89}, {"time": 174079, "pitch": 48, "duration": 60, "velocity": 89}, {"time": 174079, "pitch": 51, "duration": 50, "velocity": 89}, {"time": 174079, "pitch": 53, "duration": 60, "velocity": 89}, {"time": 174079, "pitch": 57, "duration": 60, "velocity": 89}, {"time": 174238, "pitch": 45, "duration": 110, "velocity": 115}, {"time": 174238, "pitch": 48, "duration": 110, "velocity": 115}, {"time": 174238, "pitch": 51, "duration": 110, "velocity": 115}, {"time": 174238, "pitch": 53, "duration": 110, "velocity": 115}, {"time": 174238, "pitch": 57, "duration": 110, "velocity": 115}, {"time": 174557, "pitch": 45, "duration": 69, "velocity": 98}, {"time": 174557, "pitch": 48, "duration": 69, "velocity": 98}, {"time": 174557, "pitch": 51, "duration": 79, "velocity": 98}, {"time": 174557, "pitch": 53, "duration": 69, "velocity": 98}, {"time": 174557, "pitch": 57, "duration": 69, "velocity": 98}, {"time": 174716, "pitch": 48, "duration": 112, "velocity": 115}, {"time": 174716, "pitch": 51, "duration": 112, "velocity": 115}, {"time": 174716, "pitch": 55, "duration": 112, "velocity": 115}, {"time": 174716, "pitch": 58, "duration": 101, "velocity": 115}, {"time": 175041, "pitch": 48, "duration": 51, "velocity": 94}, {"time": 175041, "pitch": 51, "duration": 51, "velocity": 94}, {"time": 175041, "pitch": 55, "duration": 61, "velocity": 94}, {"time": 175041, "pitch": 58, "duration": 61, "velocity": 94}, {"time": 175204, "pitch": 48, "duration": 119, "velocity": 117}, {"time": 175204, "pitch": 51, "duration": 110, "velocity": 117}, {"time": 175204, "pitch": 55, "duration": 119, "velocity": 117}, {"time": 175204, "pitch": 58, "duration": 110, "velocity": 117}, {"time": 175522, "pitch": 48, "duration": 70, "velocity": 104}, {"time": 175522, "pitch": 51, "duration": 70, "velocity": 104}, {"time": 175522, "pitch": 55, "duration": 60, "velocity": 104}, {"time": 175522, "pitch": 58, "duration": 50, "velocity": 104}, {"time": 175682, "pitch": 48, "duration": 99, "velocity": 117}, {"time": 175682, "pitch": 51, "duration": 89, "velocity": 117}, {"time": 175682, "pitch": 55, "duration": 99, "velocity": 117}, {"time": 175682, "pitch": 58, "duration": 109, "velocity": 117}, {"time": 176000, "pitch": 48, "duration": 50, "velocity": 85}, {"time": 176000, "pitch": 51, "duration": 50, "velocity": 85}, {"time": 176000, "pitch": 55, "duration": 40, "velocity": 85}, {"time": 176000, "pitch": 58, "duration": 50, "velocity": 85}, {"time": 176159, "pitch": 48, "duration": 100, "velocity": 117}, {"time": 176159, "pitch": 51, "duration": 110, "velocity": 117}, {"time": 176159, "pitch": 55, "duration": 110, "velocity": 117}, {"time": 176159, "pitch": 58, "duration": 110, "velocity": 117}, {"time": 176478, "pitch": 48, "duration": 49, "velocity": 104}, {"time": 176478, "pitch": 51, "duration": 69, "velocity": 104}, {"time": 176478, "pitch": 55, "duration": 69, "velocity": 104}, {"time": 176478, "pitch": 58, "duration": 59, "velocity": 104}, {"time": 176637, "pitch": 45, "duration": 81, "velocity": 117}, {"time": 176637, "pitch": 48, "duration": 81, "velocity": 117}, {"time": 176637, "pitch": 51, "duration": 91, "velocity": 117}, {"time": 176637, "pitch": 53, "duration": 71, "velocity": 117}, {"time": 176637, "pitch": 57, "duration": 81, "velocity": 117}, {"time": 176962, "pitch": 45, "duration": 62, "velocity": 102}, {"time": 176962, "pitch": 48, "duration": 72, "velocity": 102}, {"time": 176962, "pitch": 51, "duration": 62, "velocity": 102}, {"time": 176962, "pitch": 53, "duration": 72, "velocity": 102}, {"time": 176962, "pitch": 57, "duration": 72, "velocity": 102}, {"time": 177125, "pitch": 45, "duration": 120, "velocity": 115}, {"time": 177125, "pitch": 48, "duration": 130, "velocity": 115}, {"time": 177125, "pitch": 51, "duration": 130, "velocity": 115}, {"time": 177125, "pitch": 53, "duration": 130, "velocity": 115}, {"time": 177125, "pitch": 57, "duration": 120, "velocity": 115}, {"time": 177444, "pitch": 45, "duration": 69, "velocity": 109}, {"time": 177444, "pitch": 48, "duration": 89, "velocity": 109}, {"time": 177444, "pitch": 51, "duration": 79, "velocity": 109}, {"time": 177444, "pitch": 53, "duration": 89, "velocity": 109}, {"time": 177444, "pitch": 57, "duration": 79, "velocity": 109}, {"time": 177603, "pitch": 46, "duration": 119, "velocity": 117}, {"time": 177603, "pitch": 50, "duration": 119, "velocity": 117}, {"time": 177603, "pitch": 53, "duration": 129, "velocity": 117}, {"time": 177603, "pitch": 58, "duration": 129, "velocity": 117}, {"time": 177921, "pitch": 46, "duration": 60, "velocity": 106}, {"time": 177921, "pitch": 50, "duration": 70, "velocity": 106}, {"time": 177921, "pitch": 53, "duration": 70, "velocity": 106}, {"time": 177921, "pitch": 58, "duration": 70, "velocity": 106}, {"time": 178080, "pitch": 46, "duration": 120, "velocity": 117}, {"time": 178080, "pitch": 50, "duration": 110, "velocity": 117}, {"time": 178080, "pitch": 53, "duration": 110, "velocity": 117}, {"time": 178080, "pitch": 58, "duration": 110, "velocity": 117}, {"time": 178399, "pitch": 46, "duration": 79, "velocity": 113}, {"time": 178399, "pitch": 50, "duration": 89, "velocity": 113}, {"time": 178399, "pitch": 53, "duration": 79, "velocity": 113}, {"time": 178399, "pitch": 58, "duration": 89, "velocity": 113}, {"time": 178558, "pitch": 46, "duration": 100, "velocity": 112}, {"time": 178558, "pitch": 51, "duration": 109, "velocity": 112}, {"time": 178558, "pitch": 55, "duration": 109, "velocity": 112}, {"time": 178558, "pitch": 58, "duration": 109, "velocity": 112}, {"time": 178876, "pitch": 46, "duration": 40, "velocity": 102}, {"time": 178876, "pitch": 51, "duration": 50, "velocity": 102}, {"time": 178876, "pitch": 55, "duration": 60, "velocity": 102}, {"time": 178876, "pitch": 58, "duration": 60, "velocity": 102}, {"time": 179036, "pitch": 46, "duration": 122, "velocity": 115}, {"time": 179036, "pitch": 51, "duration": 132, "velocity": 115}, {"time": 179036, "pitch": 55, "duration": 122, "velocity": 115}, {"time": 179036, "pitch": 58, "duration": 122, "velocity": 115}, {"time": 179361, "pitch": 46, "duration": 102, "velocity": 109}, {"time": 179361, "pitch": 51, "duration": 102, "velocity": 109}, {"time": 179361, "pitch": 55, "duration": 92, "velocity": 109}, {"time": 179361, "pitch": 58, "duration": 92, "velocity": 109}, {"time": 179524, "pitch": 46, "duration": 109, "velocity": 112}, {"time": 179524, "pitch": 51, "duration": 119, "velocity": 112}, {"time": 179524, "pitch": 55, "duration": 119, "velocity": 112}, {"time": 179524, "pitch": 58, "duration": 119, "velocity": 112}, {"time": 179842, "pitch": 46, "duration": 60, "velocity": 96}, {"time": 179842, "pitch": 51, "duration": 50, "velocity": 96}, {"time": 179842, "pitch": 55, "duration": 60, "velocity": 96}, {"time": 179842, "pitch": 58, "duration": 60, "velocity": 96}, {"time": 180002, "pitch": 46, "duration": 109, "velocity": 117}, {"time": 180002, "pitch": 51, "duration": 119, "velocity": 117}, {"time": 180002, "pitch": 55, "duration": 119, "velocity": 117}, {"time": 180002, "pitch": 58, "duration": 119, "velocity": 117}, {"time": 180320, "pitch": 46, "duration": 80, "velocity": 109}, {"time": 180320, "pitch": 51, "duration": 80, "velocity": 109}, {"time": 180320, "pitch": 55, "duration": 89, "velocity": 109}, {"time": 180320, "pitch": 58, "duration": 80, "velocity": 109}, {"time": 180479, "pitch": 48, "duration": 110, "velocity": 115}, {"time": 180479, "pitch": 51, "duration": 110, "velocity": 115}, {"time": 180479, "pitch": 55, "duration": 110, "velocity": 115}, {"time": 180479, "pitch": 58, "duration": 100, "velocity": 115}, {"time": 180798, "pitch": 48, "duration": 49, "velocity": 94}, {"time": 180798, "pitch": 51, "duration": 49, "velocity": 94}, {"time": 180798, "pitch": 55, "duration": 59, "velocity": 94}, {"time": 180798, "pitch": 58, "duration": 59, "velocity": 94}, {"time": 180957, "pitch": 48, "duration": 122, "velocity": 117}, {"time": 180957, "pitch": 51, "duration": 112, "velocity": 117}, {"time": 180957, "pitch": 55, "duration": 122, "velocity": 117}, {"time": 180957, "pitch": 58, "duration": 112, "velocity": 117}, {"time": 181282, "pitch": 48, "duration": 72, "velocity": 104}, {"time": 181282, "pitch": 51, "duration": 72, "velocity": 104}, {"time": 181282, "pitch": 55, "duration": 61, "velocity": 104}, {"time": 181282, "pitch": 58, "duration": 51, "velocity": 104}, {"time": 181445, "pitch": 45, "duration": 129, "velocity": 112}, {"time": 181445, "pitch": 48, "duration": 139, "velocity": 112}, {"time": 181445, "pitch": 51, "duration": 129, "velocity": 112}, {"time": 181445, "pitch": 53, "duration": 129, "velocity": 112}, {"time": 181445, "pitch": 57, "duration": 129, "velocity": 112}, {"time": 181763, "pitch": 45, "duration": 50, "velocity": 89}, {"time": 181763, "pitch": 48, "duration": 60, "velocity": 89}, {"time": 181763, "pitch": 51, "duration": 50, "velocity": 89}, {"time": 181763, "pitch": 53, "duration": 60, "velocity": 89}, {"time": 181763, "pitch": 57, "duration": 60, "velocity": 89}, {"time": 181923, "pitch": 45, "duration": 109, "velocity": 115}, {"time": 181923, "pitch": 48, "duration": 109, "velocity": 115}, {"time": 181923, "pitch": 51, "duration": 109, "velocity": 115}, {"time": 181923, "pitch": 53, "duration": 109, "velocity": 115}, {"time": 181923, "pitch": 57, "duration": 109, "velocity": 115}, {"time": 182241, "pitch": 45, "duration": 70, "velocity": 98}, {"time": 182241, "pitch": 48, "duration": 70, "velocity": 98}, {"time": 182241, "pitch": 51, "duration": 80, "velocity": 98}, {"time": 182241, "pitch": 53, "duration": 70, "velocity": 98}, {"time": 182241, "pitch": 57, "duration": 70, "velocity": 98}, {"time": 182400, "pitch": 46, "duration": 70, "velocity": 117}, {"time": 182400, "pitch": 50, "duration": 70, "velocity": 117}, {"time": 182400, "pitch": 53, "duration": 80, "velocity": 117}, {"time": 182400, "pitch": 58, "duration": 80, "velocity": 117}, {"time": 184640, "pitch": 45, "duration": 79, "velocity": 112}, {"time": 184640, "pitch": 48, "duration": 79, "velocity": 112}, {"time": 184640, "pitch": 51, "duration": 79, "velocity": 112}, {"time": 184640, "pitch": 53, "duration": 79, "velocity": 112}, {"time": 184640, "pitch": 57, "duration": 79, "velocity": 112}, {"time": 184799, "pitch": 45, "duration": 129, "velocity": 117}, {"time": 184799, "pitch": 48, "duration": 139, "velocity": 117}, {"time": 184799, "pitch": 51, "duration": 129, "velocity": 117}, {"time": 184799, "pitch": 53, "duration": 129, "velocity": 117}, {"time": 184799, "pitch": 57, "duration": 129, "velocity": 117}, {"time": 185117, "pitch": 46, "duration": 60, "velocity": 117}, {"time": 185117, "pitch": 50, "duration": 50, "velocity": 117}, {"time": 185117, "pitch": 53, "duration": 60, "velocity": 117}, {"time": 185117, "pitch": 58, "duration": 60, "velocity": 117}, {"time": 186242, "pitch": 48, "duration": 120, "velocity": 117}, {"time": 186242, "pitch": 53, "duration": 120, "velocity": 117}, {"time": 186242, "pitch": 57, "duration": 120, "velocity": 117}, {"time": 186242, "pitch": 60, "duration": 110, "velocity": 117}, {"time": 186561, "pitch": 48, "duration": 50, "velocity": 98}, {"time": 186561, "pitch": 53, "duration": 50, "velocity": 98}, {"time": 186561, "pitch": 57, "duration": 60, "velocity": 98}, {"time": 186561, "pitch": 60, "duration": 60, "velocity": 98}, {"time": 186720, "pitch": 48, "duration": 119, "velocity": 112}, {"time": 186720, "pitch": 53, "duration": 110, "velocity": 112}, {"time": 186720, "pitch": 57, "duration": 110, "velocity": 112}, {"time": 186720, "pitch": 60, "duration": 119, "velocity": 112}, {"time": 187038, "pitch": 48, "duration": 80, "velocity": 109}, {"time": 187038, "pitch": 53, "duration": 70, "velocity": 109}, {"time": 187038, "pitch": 57, "duration": 70, "velocity": 109}, {"time": 187038, "pitch": 60, "duration": 70, "velocity": 109}, {"time": 187198, "pitch": 48, "duration": 119, "velocity": 115}, {"time": 187198, "pitch": 53, "duration": 119, "velocity": 115}, {"time": 187198, "pitch": 57, "duration": 129, "velocity": 115}, {"time": 187198, "pitch": 60, "duration": 129, "velocity": 115}, {"time": 187516, "pitch": 48, "duration": 60, "velocity": 91}, {"time": 187516, "pitch": 53, "duration": 50, "velocity": 91}, {"time": 187516, "pitch": 57, "duration": 50, "velocity": 91}, {"time": 187516, "pitch": 60, "duration": 50, "velocity": 91}, {"time": 187675, "pitch": 48, "duration": 102, "velocity": 112}, {"time": 187675, "pitch": 53, "duration": 112, "velocity": 112}, {"time": 187675, "pitch": 57, "duration": 112, "velocity": 112}, {"time": 187675, "pitch": 60, "duration": 112, "velocity": 112}, {"time": 188001, "pitch": 48, "duration": 91, "velocity": 112}, {"time": 188001, "pitch": 53, "duration": 81, "velocity": 112}, {"time": 188001, "pitch": 57, "duration": 91, "velocity": 112}, {"time": 188001, "pitch": 60, "duration": 81, "velocity": 112}, {"time": 188164, "pitch": 48, "duration": 99, "velocity": 117}, {"time": 188164, "pitch": 52, "duration": 99, "velocity": 117}, {"time": 188164, "pitch": 55, "duration": 99, "velocity": 117}, {"time": 188164, "pitch": 60, "duration": 99, "velocity": 117}, {"time": 188482, "pitch": 48, "duration": 80, "velocity": 104}, {"time": 188482, "pitch": 52, "duration": 80, "velocity": 104}, {"time": 188482, "pitch": 55, "duration": 90, "velocity": 104}, {"time": 188482, "pitch": 60, "duration": 80, "velocity": 104}, {"time": 188641, "pitch": 48, "duration": 130, "velocity": 117}, {"time": 188641, "pitch": 52, "duration": 120, "velocity": 117}, {"time": 188641, "pitch": 55, "duration": 120, "velocity": 117}, {"time": 188641, "pitch": 60, "duration": 139, "velocity": 117}, {"time": 188960, "pitch": 48, "duration": 89, "velocity": 117}, {"time": 188960, "pitch": 52, "duration": 89, "velocity": 117}, {"time": 188960, "pitch": 55, "duration": 89, "velocity": 117}, {"time": 188960, "pitch": 60, "duration": 89, "velocity": 117}, {"time": 189119, "pitch": 48, "duration": 119, "velocity": 117}, {"time": 189119, "pitch": 52, "duration": 119, "velocity": 117}, {"time": 189119, "pitch": 55, "duration": 129, "velocity": 117}, {"time": 189119, "pitch": 60, "duration": 129, "velocity": 117}, {"time": 189437, "pitch": 48, "duration": 70, "velocity": 99}, {"time": 189437, "pitch": 52, "duration": 70, "velocity": 99}, {"time": 189437, "pitch": 55, "duration": 70, "velocity": 99}, {"time": 189437, "pitch": 60, "duration": 70, "velocity": 99}, {"time": 189596, "pitch": 48, "duration": 133, "velocity": 117}, {"time": 189596, "pitch": 52, "duration": 122, "velocity": 117}, {"time": 189596, "pitch": 55, "duration": 122, "velocity": 117}, {"time": 189596, "pitch": 60, "duration": 122, "velocity": 117}, {"time": 189922, "pitch": 48, "duration": 71, "velocity": 108}, {"time": 189922, "pitch": 52, "duration": 71, "velocity": 108}, {"time": 189922, "pitch": 55, "duration": 81, "velocity": 108}, {"time": 189922, "pitch": 60, "duration": 81, "velocity": 108}, {"time": 190085, "pitch": 48, "duration": 99, "velocity": 115}, {"time": 190085, "pitch": 53, "duration": 99, "velocity": 115}, {"time": 190085, "pitch": 57, "duration": 99, "velocity": 115}, {"time": 190085, "pitch": 60, "duration": 99, "velocity": 115}, {"time": 190403, "pitch": 48, "duration": 60, "velocity": 85}, {"time": 190403, "pitch": 53, "duration": 60, "velocity": 85}, {"time": 190403, "pitch": 57, "duration": 70, "velocity": 85}, {"time": 190403, "pitch": 60, "duration": 70, "velocity": 85}, {"time": 190562, "pitch": 48, "duration": 120, "velocity": 117}, {"time": 190562, "pitch": 53, "duration": 130, "velocity": 117}, {"time": 190562, "pitch": 57, "duration": 120, "velocity": 117}, {"time": 190562, "pitch": 60, "duration": 120, "velocity": 117}, {"time": 190881, "pitch": 48, "duration": 79, "velocity": 107}, {"time": 190881, "pitch": 53, "duration": 69, "velocity": 107}, {"time": 190881, "pitch": 57, "duration": 69, "velocity": 107}, {"time": 190881, "pitch": 60, "duration": 59, "velocity": 107}, {"time": 191040, "pitch": 48, "duration": 129, "velocity": 115}, {"time": 191040, "pitch": 53, "duration": 129, "velocity": 115}, {"time": 191040, "pitch": 57, "duration": 139, "velocity": 115}, {"time": 191040, "pitch": 60, "duration": 139, "velocity": 115}, {"time": 191358, "pitch": 48, "duration": 40, "velocity": 88}, {"time": 191358, "pitch": 53, "duration": 40, "velocity": 88}, {"time": 191358, "pitch": 57, "duration": 60, "velocity": 88}, {"time": 191358, "pitch": 60, "duration": 60, "velocity": 88}, {"time": 191518, "pitch": 48, "duration": 119, "velocity": 117}, {"time": 191518, "pitch": 53, "duration": 119, "velocity": 117}, {"time": 191518, "pitch": 57, "duration": 119, "velocity": 117}, {"time": 191518, "pitch": 60, "duration": 119, "velocity": 117}, {"time": 191836, "pitch": 48, "duration": 80, "velocity": 107}, {"time": 191836, "pitch": 53, "duration": 70, "velocity": 107}, {"time": 191836, "pitch": 57, "duration": 70, "velocity": 107}, {"time": 191836, "pitch": 60, "duration": 60, "velocity": 107}, {"time": 191995, "pitch": 48, "duration": 122, "velocity": 117}, {"time": 191995, "pitch": 52, "duration": 122, "velocity": 117}, {"time": 191995, "pitch": 55, "duration": 122, "velocity": 117}, {"time": 191995, "pitch": 60, "duration": 112, "velocity": 117}, {"time": 192321, "pitch": 48, "duration": 61, "velocity": 92}, {"time": 192321, "pitch": 52, "duration": 61, "velocity": 92}, {"time": 192321, "pitch": 55, "duration": 71, "velocity": 92}, {"time": 192321, "pitch": 60, "duration": 71, "velocity": 92}, {"time": 192483, "pitch": 48, "duration": 120, "velocity": 117}, {"time": 192483, "pitch": 52, "duration": 110, "velocity": 117}, {"time": 192483, "pitch": 55, "duration": 110, "velocity": 117}, {"time": 192483, "pitch": 60, "duration": 110, "velocity": 117}, {"time": 192802, "pitch": 48, "duration": 89, "velocity": 111}, {"time": 192802, "pitch": 52, "duration": 79, "velocity": 111}, {"time": 192802, "pitch": 55, "duration": 79, "velocity": 111}, {"time": 192802, "pitch": 60, "duration": 69, "velocity": 111}, {"time": 192961, "pitch": 48, "duration": 139, "velocity": 117}, {"time": 192961, "pitch": 52, "duration": 149, "velocity": 117}, {"time": 192961, "pitch": 55, "duration": 149, "velocity": 117}, {"time": 192961, "pitch": 60, "duration": 139, "velocity": 117}, {"time": 193279, "pitch": 48, "duration": 80, "velocity": 102}, {"time": 193279, "pitch": 52, "duration": 80, "velocity": 102}, {"time": 193279, "pitch": 55, "duration": 70, "velocity": 102}, {"time": 193279, "pitch": 60, "duration": 70, "velocity": 102}, {"time": 193439, "pitch": 48, "duration": 129, "velocity": 117}, {"time": 193439, "pitch": 52, "duration": 129, "velocity": 117}, {"time": 193439, "pitch": 55, "duration": 129, "velocity": 117}, {"time": 193439, "pitch": 60, "duration": 129, "velocity": 117}, {"time": 193757, "pitch": 48, "duration": 60, "velocity": 104}, {"time": 193757, "pitch": 52, "duration": 60, "velocity": 104}, {"time": 193757, "pitch": 55, "duration": 70, "velocity": 104}, {"time": 193757, "pitch": 60, "duration": 60, "velocity": 104}, {"time": 193916, "pitch": 48, "duration": 102, "velocity": 112}, {"time": 193916, "pitch": 53, "duration": 102, "velocity": 112}, {"time": 193916, "pitch": 57, "duration": 102, "velocity": 112}, {"time": 193916, "pitch": 60, "duration": 92, "velocity": 112}, {"time": 194242, "pitch": 48, "duration": 71, "velocity": 96}, {"time": 194242, "pitch": 53, "duration": 81, "velocity": 96}, {"time": 194242, "pitch": 57, "duration": 81, "velocity": 96}, {"time": 194242, "pitch": 60, "duration": 81, "velocity": 96}, {"time": 194405, "pitch": 48, "duration": 139, "velocity": 117}, {"time": 194405, "pitch": 53, "duration": 139, "velocity": 117}, {"time": 194405, "pitch": 57, "duration": 139, "velocity": 117}, {"time": 194405, "pitch": 60, "duration": 129, "velocity": 117}, {"time": 194723, "pitch": 48, "duration": 70, "velocity": 104}, {"time": 194723, "pitch": 53, "duration": 80, "velocity": 104}, {"time": 194723, "pitch": 57, "duration": 80, "velocity": 104}, {"time": 194723, "pitch": 60, "duration": 80, "velocity": 104}, {"time": 194882, "pitch": 48, "duration": 139, "velocity": 112}, {"time": 194882, "pitch": 53, "duration": 139, "velocity": 112}, {"time": 194882, "pitch": 57, "duration": 149, "velocity": 112}, {"time": 194882, "pitch": 60, "duration": 139, "velocity": 112}, {"time": 195201, "pitch": 48, "duration": 49, "velocity": 86}, {"time": 195201, "pitch": 53, "duration": 49, "velocity": 86}, {"time": 195201, "pitch": 57, "duration": 39, "velocity": 86}, {"time": 195201, "pitch": 60, "duration": 49, "velocity": 86}, {"time": 195360, "pitch": 48, "duration": 109, "velocity": 117}, {"time": 195360, "pitch": 53, "duration": 109, "velocity": 117}, {"time": 195360, "pitch": 57, "duration": 109, "velocity": 117}, {"time": 195360, "pitch": 60, "duration": 109, "velocity": 117}, {"time": 195678, "pitch": 48, "duration": 70, "velocity": 107}, {"time": 195678, "pitch": 53, "duration": 70, "velocity": 107}, {"time": 195678, "pitch": 57, "duration": 60, "velocity": 107}, {"time": 195678, "pitch": 60, "duration": 60, "velocity": 107}, {"time": 195837, "pitch": 48, "duration": 110, "velocity": 117}, {"time": 195837, "pitch": 52, "duration": 100, "velocity": 117}, {"time": 195837, "pitch": 55, "duration": 110, "velocity": 117}, {"time": 195837, "pitch": 60, "duration": 110, "velocity": 117}, {"time": 196156, "pitch": 48, "duration": 69, "velocity": 102}, {"time": 196156, "pitch": 52, "duration": 79, "velocity": 102}, {"time": 196156, "pitch": 55, "duration": 79, "velocity": 102}, {"time": 196156, "pitch": 60, "duration": 79, "velocity": 102}, {"time": 196315, "pitch": 48, "duration": 132, "velocity": 117}, {"time": 196315, "pitch": 52, "duration": 132, "velocity": 117}, {"time": 196315, "pitch": 55, "duration": 132, "velocity": 117}, {"time": 196315, "pitch": 60, "duration": 132, "velocity": 117}, {"time": 196641, "pitch": 48, "duration": 101, "velocity": 117}, {"time": 196641, "pitch": 52, "duration": 111, "velocity": 117}, {"time": 196641, "pitch": 55, "duration": 111, "velocity": 117}, {"time": 196641, "pitch": 60, "duration": 111, "velocity": 117}, {"time": 196803, "pitch": 48, "duration": 169, "velocity": 117}, {"time": 196803, "pitch": 52, "duration": 150, "velocity": 117}, {"time": 196803, "pitch": 55, "duration": 150, "velocity": 117}, {"time": 196803, "pitch": 60, "duration": 159, "velocity": 117}, {"time": 197122, "pitch": 48, "duration": 69, "velocity": 104}, {"time": 197122, "pitch": 52, "duration": 79, "velocity": 104}, {"time": 197122, "pitch": 55, "duration": 79, "velocity": 104}, {"time": 197122, "pitch": 60, "duration": 79, "velocity": 104}, {"time": 197281, "pitch": 48, "duration": 119, "velocity": 117}, {"time": 197281, "pitch": 52, "duration": 119, "velocity": 117}, {"time": 197281, "pitch": 55, "duration": 119, "velocity": 117}, {"time": 197281, "pitch": 60, "duration": 119, "velocity": 117}, {"time": 197599, "pitch": 48, "duration": 70, "velocity": 101}, {"time": 197599, "pitch": 52, "duration": 70, "velocity": 101}, {"time": 197599, "pitch": 55, "duration": 70, "velocity": 101}, {"time": 197599, "pitch": 60, "duration": 70, "velocity": 101}, {"time": 197758, "pitch": 45, "duration": 120, "velocity": 117}, {"time": 197758, "pitch": 50, "duration": 120, "velocity": 117}, {"time": 197758, "pitch": 54, "duration": 120, "velocity": 117}, {"time": 197758, "pitch": 60, "duration": 130, "velocity": 117}, {"time": 197758, "pitch": 62, "duration": 130, "velocity": 117}, {"time": 198077, "pitch": 45, "duration": 70, "velocity": 94}, {"time": 198077, "pitch": 50, "duration": 70, "velocity": 94}, {"time": 198077, "pitch": 54, "duration": 70, "velocity": 94}, {"time": 198077, "pitch": 60, "duration": 70, "velocity": 94}, {"time": 198077, "pitch": 62, "duration": 79, "velocity": 94}, {"time": 198236, "pitch": 45, "duration": 132, "velocity": 117}, {"time": 198236, "pitch": 50, "duration": 142, "velocity": 117}, {"time": 198236, "pitch": 54, "duration": 142, "velocity": 117}, {"time": 198236, "pitch": 60, "duration": 142, "velocity": 117}, {"time": 198236, "pitch": 62, "duration": 142, "velocity": 117}, {"time": 198562, "pitch": 45, "duration": 71, "velocity": 106}, {"time": 198562, "pitch": 50, "duration": 71, "velocity": 106}, {"time": 198562, "pitch": 54, "duration": 81, "velocity": 106}, {"time": 198562, "pitch": 60, "duration": 81, "velocity": 106}, {"time": 198562, "pitch": 62, "duration": 71, "velocity": 106}, {"time": 198724, "pitch": 45, "duration": 150, "velocity": 117}, {"time": 198724, "pitch": 50, "duration": 150, "velocity": 117}, {"time": 198724, "pitch": 54, "duration": 150, "velocity": 117}, {"time": 198724, "pitch": 60, "duration": 150, "velocity": 117}, {"time": 198724, "pitch": 62, "duration": 160, "velocity": 117}, {"time": 199043, "pitch": 45, "duration": 59, "velocity": 99}, {"time": 199043, "pitch": 50, "duration": 69, "velocity": 99}, {"time": 199043, "pitch": 54, "duration": 69, "velocity": 99}, {"time": 199043, "pitch": 60, "duration": 69, "velocity": 99}, {"time": 199043, "pitch": 62, "duration": 69, "velocity": 99}, {"time": 199202, "pitch": 45, "duration": 119, "velocity": 117}, {"time": 199202, "pitch": 50, "duration": 119, "velocity": 117}, {"time": 199202, "pitch": 54, "duration": 119, "velocity": 117}, {"time": 199202, "pitch": 60, "duration": 119, "velocity": 117}, {"time": 199202, "pitch": 62, "duration": 119, "velocity": 117}, {"time": 199520, "pitch": 45, "duration": 60, "velocity": 106}, {"time": 199520, "pitch": 50, "duration": 80, "velocity": 106}, {"time": 199520, "pitch": 54, "duration": 70, "velocity": 106}, {"time": 199520, "pitch": 60, "duration": 70, "velocity": 106}, {"time": 199520, "pitch": 62, "duration": 70, "velocity": 106}, {"time": 199680, "pitch": 47, "duration": 99, "velocity": 115}, {"time": 199680, "pitch": 50, "duration": 99, "velocity": 115}, {"time": 199680, "pitch": 53, "duration": 109, "velocity": 115}, {"time": 199680, "pitch": 55, "duration": 99, "velocity": 115}, {"time": 199680, "pitch": 59, "duration": 89, "velocity": 115}, {"time": 199998, "pitch": 47, "duration": 50, "velocity": 100}, {"time": 199998, "pitch": 50, "duration": 60, "velocity": 100}, {"time": 199998, "pitch": 53, "duration": 60, "velocity": 100}, {"time": 199998, "pitch": 55, "duration": 60, "velocity": 100}, {"time": 199998, "pitch": 59, "duration": 70, "velocity": 100}, {"time": 200157, "pitch": 47, "duration": 120, "velocity": 115}, {"time": 200157, "pitch": 50, "duration": 120, "velocity": 115}, {"time": 200157, "pitch": 53, "duration": 110, "velocity": 115}, {"time": 200157, "pitch": 55, "duration": 120, "velocity": 115}, {"time": 200157, "pitch": 59, "duration": 100, "velocity": 115}, {"time": 200476, "pitch": 47, "duration": 59, "velocity": 107}, {"time": 200476, "pitch": 50, "duration": 69, "velocity": 107}, {"time": 200476, "pitch": 53, "duration": 59, "velocity": 107}, {"time": 200476, "pitch": 55, "duration": 69, "velocity": 107}, {"time": 200476, "pitch": 59, "duration": 69, "velocity": 107}, {"time": 200635, "pitch": 47, "duration": 91, "velocity": 115}, {"time": 200635, "pitch": 50, "duration": 101, "velocity": 115}, {"time": 200635, "pitch": 53, "duration": 91, "velocity": 115}, {"time": 200635, "pitch": 55, "duration": 101, "velocity": 115}, {"time": 200635, "pitch": 59, "duration": 112, "velocity": 115}, {"time": 201601, "pitch": 48, "duration": 119, "velocity": 117}, {"time": 201601, "pitch": 52, "duration": 119, "velocity": 117}, {"time": 201601, "pitch": 55, "duration": 129, "velocity": 117}, {"time": 201601, "pitch": 60, "duration": 129, "velocity": 117}, {"time": 201919, "pitch": 48, "duration": 80, "velocity": 101}, {"time": 201919, "pitch": 52, "duration": 80, "velocity": 101}, {"time": 201919, "pitch": 55, "duration": 80, "velocity": 101}, {"time": 201919, "pitch": 60, "duration": 90, "velocity": 101}, {"time": 202078, "pitch": 48, "duration": 110, "velocity": 117}, {"time": 202078, "pitch": 52, "duration": 130, "velocity": 117}, {"time": 202078, "pitch": 55, "duration": 120, "velocity": 117}, {"time": 202078, "pitch": 60, "duration": 120, "velocity": 117}, {"time": 202397, "pitch": 48, "duration": 79, "velocity": 117}, {"time": 202397, "pitch": 52, "duration": 79, "velocity": 117}, {"time": 202397, "pitch": 55, "duration": 79, "velocity": 117}, {"time": 202397, "pitch": 60, "duration": 79, "velocity": 117}, {"time": 202556, "pitch": 48, "duration": 132, "velocity": 117}, {"time": 202556, "pitch": 52, "duration": 132, "velocity": 117}, {"time": 202556, "pitch": 55, "duration": 132, "velocity": 117}, {"time": 202556, "pitch": 60, "duration": 132, "velocity": 117}, {"time": 202881, "pitch": 48, "duration": 72, "velocity": 97}, {"time": 202881, "pitch": 52, "duration": 72, "velocity": 97}, {"time": 202881, "pitch": 55, "duration": 72, "velocity": 97}, {"time": 202881, "pitch": 60, "duration": 72, "velocity": 97}, {"time": 203044, "pitch": 48, "duration": 130, "velocity": 117}, {"time": 203044, "pitch": 52, "duration": 140, "velocity": 117}, {"time": 203044, "pitch": 55, "duration": 140, "velocity": 117}, {"time": 203044, "pitch": 60, "duration": 130, "velocity": 117}, {"time": 203363, "pitch": 48, "duration": 89, "velocity": 108}, {"time": 203363, "pitch": 52, "duration": 89, "velocity": 108}, {"time": 203363, "pitch": 55, "duration": 99, "velocity": 108}, {"time": 203363, "pitch": 60, "duration": 99, "velocity": 108}, {"time": 203522, "pitch": 48, "duration": 129, "velocity": 117}, {"time": 203522, "pitch": 52, "duration": 139, "velocity": 117}, {"time": 203522, "pitch": 55, "duration": 139, "velocity": 117}, {"time": 203522, "pitch": 60, "duration": 139, "velocity": 117}, {"time": 203840, "pitch": 48, "duration": 60, "velocity": 104}, {"time": 203840, "pitch": 52, "duration": 70, "velocity": 104}, {"time": 203840, "pitch": 55, "duration": 80, "velocity": 104}, {"time": 203840, "pitch": 60, "duration": 70, "velocity": 104}, {"time": 203999, "pitch": 48, "duration": 110, "velocity": 117}, {"time": 203999, "pitch": 52, "duration": 120, "velocity": 117}, {"time": 203999, "pitch": 55, "duration": 130, "velocity": 117}, {"time": 203999, "pitch": 60, "duration": 130, "velocity": 117}, {"time": 204318, "pitch": 48, "duration": 99, "velocity": 113}, {"time": 204318, "pitch": 52, "duration": 89, "velocity": 113}, {"time": 204318, "pitch": 55, "duration": 99, "velocity": 113}, {"time": 204318, "pitch": 60, "duration": 99, "velocity": 113}, {"time": 204477, "pitch": 48, "duration": 122, "velocity": 117}, {"time": 204477, "pitch": 52, "duration": 122, "velocity": 117}, {"time": 204477, "pitch": 55, "duration": 132, "velocity": 117}, {"time": 204477, "pitch": 60, "duration": 122, "velocity": 117}, {"time": 204803, "pitch": 48, "duration": 61, "velocity": 101}, {"time": 204803, "pitch": 52, "duration": 71, "velocity": 101}, {"time": 204803, "pitch": 55, "duration": 71, "velocity": 101}, {"time": 204803, "pitch": 60, "duration": 71, "velocity": 101}, {"time": 204965, "pitch": 48, "duration": 130, "velocity": 117}, {"time": 204965, "pitch": 52, "duration": 140, "velocity": 117}, {"time": 204965, "pitch": 55, "duration": 140, "velocity": 117}, {"time": 204965, "pitch": 60, "duration": 140, "velocity": 117}, {"time": 205284, "pitch": 48, "duration": 79, "velocity": 111}, {"time": 205284, "pitch": 52, "duration": 79, "velocity": 111}, {"time": 205284, "pitch": 55, "duration": 89, "velocity": 111}, {"time": 205284, "pitch": 60, "duration": 79, "velocity": 111}, {"time": 205443, "pitch": 48, "duration": 99, "velocity": 112}, {"time": 205443, "pitch": 53, "duration": 109, "velocity": 112}, {"time": 205443, "pitch": 57, "duration": 109, "velocity": 112}, {"time": 205443, "pitch": 60, "duration": 109, "velocity": 112}, {"time": 205761, "pitch": 48, "duration": 40, "velocity": 102}, {"time": 205761, "pitch": 53, "duration": 50, "velocity": 102}, {"time": 205761, "pitch": 57, "duration": 60, "velocity": 102}, {"time": 205761, "pitch": 60, "duration": 60, "velocity": 102}, {"time": 205921, "pitch": 48, "duration": 119, "velocity": 115}, {"time": 205921, "pitch": 53, "duration": 129, "velocity": 115}, {"time": 205921, "pitch": 57, "duration": 119, "velocity": 115}, {"time": 205921, "pitch": 60, "duration": 119, "velocity": 115}, {"time": 206239, "pitch": 48, "duration": 99, "velocity": 109}, {"time": 206239, "pitch": 53, "duration": 99, "velocity": 109}, {"time": 206239, "pitch": 57, "duration": 90, "velocity": 109}, {"time": 206239, "pitch": 60, "duration": 90, "velocity": 109}, {"time": 206398, "pitch": 48, "duration": 110, "velocity": 112}, {"time": 206398, "pitch": 53, "duration": 120, "velocity": 112}, {"time": 206398, "pitch": 57, "duration": 120, "velocity": 112}, {"time": 206398, "pitch": 60, "duration": 120, "velocity": 112}, {"time": 206717, "pitch": 48, "duration": 59, "velocity": 96}, {"time": 206717, "pitch": 53, "duration": 49, "velocity": 96}, {"time": 206717, "pitch": 57, "duration": 59, "velocity": 96}, {"time": 206717, "pitch": 60, "duration": 59, "velocity": 96}, {"time": 206876, "pitch": 48, "duration": 112, "velocity": 117}, {"time": 206876, "pitch": 53, "duration": 122, "velocity": 117}, {"time": 206876, "pitch": 57, "duration": 122, "velocity": 117}, {"time": 206876, "pitch": 60, "duration": 122, "velocity": 117}, {"time": 207201, "pitch": 48, "duration": 82, "velocity": 109}, {"time": 207201, "pitch": 53, "duration": 82, "velocity": 109}, {"time": 207201, "pitch": 57, "duration": 92, "velocity": 109}, {"time": 207201, "pitch": 60, "duration": 82, "velocity": 109}, {"time": 207364, "pitch": 50, "duration": 110, "velocity": 115}, {"time": 207364, "pitch": 53, "duration": 110, "velocity": 115}, {"time": 207364, "pitch": 57, "duration": 110, "velocity": 115}, {"time": 207364, "pitch": 60, "duration": 100, "velocity": 115}, {"time": 207682, "pitch": 50, "duration": 50, "velocity": 94}, {"time": 207682, "pitch": 53, "duration": 50, "velocity": 94}, {"time": 207682, "pitch": 57, "duration": 60, "velocity": 94}, {"time": 207682, "pitch": 60, "duration": 60, "velocity": 94}, {"time": 207842, "pitch": 50, "duration": 119, "velocity": 117}, {"time": 207842, "pitch": 53, "duration": 109, "velocity": 117}, {"time": 207842, "pitch": 57, "duration": 119, "velocity": 117}, {"time": 207842, "pitch": 60, "duration": 109, "velocity": 117}, {"time": 208160, "pitch": 50, "duration": 70, "velocity": 104}, {"time": 208160, "pitch": 53, "duration": 70, "velocity": 104}, {"time": 208160, "pitch": 57, "duration": 60, "velocity": 104}, {"time": 208160, "pitch": 60, "duration": 50, "velocity": 104}, {"time": 208319, "pitch": 47, "duration": 130, "velocity": 112}, {"time": 208319, "pitch": 50, "duration": 140, "velocity": 112}, {"time": 208319, "pitch": 53, "duration": 130, "velocity": 112}, {"time": 208319, "pitch": 55, "duration": 130, "velocity": 112}, {"time": 208319, "pitch": 59, "duration": 130, "velocity": 112}, {"time": 208638, "pitch": 47, "duration": 49, "velocity": 89}, {"time": 208638, "pitch": 50, "duration": 59, "velocity": 89}, {"time": 208638, "pitch": 53, "duration": 49, "velocity": 89}, {"time": 208638, "pitch": 55, "duration": 59, "velocity": 89}, {"time": 208638, "pitch": 59, "duration": 59, "velocity": 89}, {"time": 208797, "pitch": 47, "duration": 112, "velocity": 115}, {"time": 208797, "pitch": 50, "duration": 112, "velocity": 115}, {"time": 208797, "pitch": 53, "duration": 112, "velocity": 115}, {"time": 208797, "pitch": 55, "duration": 112, "velocity": 115}, {"time": 208797, "pitch": 59, "duration": 112, "velocity": 115}, {"time": 209122, "pitch": 47, "duration": 72, "velocity": 98}, {"time": 209122, "pitch": 50, "duration": 72, "velocity": 98}, {"time": 209122, "pitch": 53, "duration": 82, "velocity": 98}, {"time": 209122, "pitch": 55, "duration": 72, "velocity": 98}, {"time": 209122, "pitch": 59, "duration": 72, "velocity": 98}, {"time": 209285, "pitch": 48, "duration": 120, "velocity": 117}, {"time": 209285, "pitch": 52, "duration": 120, "velocity": 117}, {"time": 209285, "pitch": 55, "duration": 130, "velocity": 117}, {"time": 209285, "pitch": 60, "duration": 130, "velocity": 117}, {"time": 209604, "pitch": 48, "duration": 79, "velocity": 101}, {"time": 209604, "pitch": 52, "duration": 79, "velocity": 101}, {"time": 209604, "pitch": 55, "duration": 79, "velocity": 101}, {"time": 209604, "pitch": 60, "duration": 89, "velocity": 101}, {"time": 209763, "pitch": 48, "duration": 109, "velocity": 117}, {"time": 209763, "pitch": 52, "duration": 129, "velocity": 117}, {"time": 209763, "pitch": 55, "duration": 119, "velocity": 117}, {"time": 209763, "pitch": 60, "duration": 119, "velocity": 117}, {"time": 210081, "pitch": 48, "duration": 80, "velocity": 117}, {"time": 210081, "pitch": 52, "duration": 80, "velocity": 117}, {"time": 210081, "pitch": 55, "duration": 80, "velocity": 117}, {"time": 210081, "pitch": 60, "duration": 80, "velocity": 117}, {"time": 210240, "pitch": 48, "duration": 130, "velocity": 117}, {"time": 210240, "pitch": 52, "duration": 130, "velocity": 117}, {"time": 210240, "pitch": 55, "duration": 130, "velocity": 117}, {"time": 210240, "pitch": 60, "duration": 130, "velocity": 117}, {"time": 210559, "pitch": 48, "duration": 69, "velocity": 97}, {"time": 210559, "pitch": 52, "duration": 69, "velocity": 97}, {"time": 210559, "pitch": 55, "duration": 69, "velocity": 97}, {"time": 210559, "pitch": 60, "duration": 69, "velocity": 97}, {"time": 210718, "pitch": 48, "duration": 129, "velocity": 117}, {"time": 210718, "pitch": 52, "duration": 139, "velocity": 117}, {"time": 210718, "pitch": 55, "duration": 139, "velocity": 117}, {"time": 210718, "pitch": 60, "duration": 129, "velocity": 117}, {"time": 211036, "pitch": 48, "duration": 90, "velocity": 108}, {"time": 211036, "pitch": 52, "duration": 90, "velocity": 108}, {"time": 211036, "pitch": 55, "duration": 100, "velocity": 108}, {"time": 211036, "pitch": 60, "duration": 100, "velocity": 108}, {"time": 211196, "pitch": 48, "duration": 132, "velocity": 117}, {"time": 211196, "pitch": 52, "duration": 142, "velocity": 117}, {"time": 211196, "pitch": 55, "duration": 142, "velocity": 117}, {"time": 211196, "pitch": 60, "duration": 142, "velocity": 117}, {"time": 211521, "pitch": 48, "duration": 61, "velocity": 104}, {"time": 211521, "pitch": 52, "duration": 71, "velocity": 104}, {"time": 211521, "pitch": 55, "duration": 82, "velocity": 104}, {"time": 211521, "pitch": 60, "duration": 71, "velocity": 104}, {"time": 211684, "pitch": 48, "duration": 109, "velocity": 117}, {"time": 211684, "pitch": 52, "duration": 119, "velocity": 117}, {"time": 211684, "pitch": 55, "duration": 129, "velocity": 117}, {"time": 211684, "pitch": 60, "duration": 129, "velocity": 117}, {"time": 212002, "pitch": 48, "duration": 100, "velocity": 113}, {"time": 212002, "pitch": 52, "duration": 90, "velocity": 113}, {"time": 212002, "pitch": 55, "duration": 100, "velocity": 113}, {"time": 212002, "pitch": 60, "duration": 100, "velocity": 113}, {"time": 212161, "pitch": 48, "duration": 120, "velocity": 117}, {"time": 212161, "pitch": 52, "duration": 120, "velocity": 117}, {"time": 212161, "pitch": 55, "duration": 130, "velocity": 117}, {"time": 212161, "pitch": 60, "duration": 120, "velocity": 117}, {"time": 212480, "pitch": 48, "duration": 60, "velocity": 101}, {"time": 212480, "pitch": 52, "duration": 70, "velocity": 101}, {"time": 212480, "pitch": 55, "duration": 70, "velocity": 101}, {"time": 212480, "pitch": 60, "duration": 70, "velocity": 101}, {"time": 212639, "pitch": 48, "duration": 129, "velocity": 117}, {"time": 212639, "pitch": 52, "duration": 139, "velocity": 117}, {"time": 212639, "pitch": 55, "duration": 139, "velocity": 117}, {"time": 212639, "pitch": 60, "duration": 139, "velocity": 117}, {"time": 212958, "pitch": 48, "duration": 79, "velocity": 111}, {"time": 212958, "pitch": 52, "duration": 79, "velocity": 111}, {"time": 212958, "pitch": 55, "duration": 89, "velocity": 111}, {"time": 212958, "pitch": 60, "duration": 79, "velocity": 111}, {"time": 213117, "pitch": 48, "duration": 112, "velocity": 115}, {"time": 213117, "pitch": 53, "duration": 112, "velocity": 115}, {"time": 213117, "pitch": 57, "duration": 112, "velocity": 115}, {"time": 213117, "pitch": 60, "duration": 101, "velocity": 115}, {"time": 213442, "pitch": 48, "duration": 51, "velocity": 94}, {"time": 213442, "pitch": 53, "duration": 51, "velocity": 94}, {"time": 213442, "pitch": 57, "duration": 61, "velocity": 94}, {"time": 213442, "pitch": 60, "duration": 61, "velocity": 94}, {"time": 213605, "pitch": 48, "duration": 119, "velocity": 117}, {"time": 213605, "pitch": 53, "duration": 109, "velocity": 117}, {"time": 213605, "pitch": 57, "duration": 119, "velocity": 117}, {"time": 213605, "pitch": 60, "duration": 109, "velocity": 117}, {"time": 213923, "pitch": 48, "duration": 70, "velocity": 104}, {"time": 213923, "pitch": 53, "duration": 70, "velocity": 104}, {"time": 213923, "pitch": 57, "duration": 60, "velocity": 104}, {"time": 213923, "pitch": 60, "duration": 50, "velocity": 104}, {"time": 214083, "pitch": 48, "duration": 99, "velocity": 117}, {"time": 214083, "pitch": 54, "duration": 89, "velocity": 117}, {"time": 214083, "pitch": 57, "duration": 99, "velocity": 117}, {"time": 214083, "pitch": 60, "duration": 109, "velocity": 117}, {"time": 214401, "pitch": 48, "duration": 50, "velocity": 85}, {"time": 214401, "pitch": 54, "duration": 50, "velocity": 85}, {"time": 214401, "pitch": 57, "duration": 40, "velocity": 85}, {"time": 214401, "pitch": 60, "duration": 50, "velocity": 85}, {"time": 214560, "pitch": 48, "duration": 100, "velocity": 117}, {"time": 214560, "pitch": 54, "duration": 110, "velocity": 117}, {"time": 214560, "pitch": 57, "duration": 110, "velocity": 117}, {"time": 214560, "pitch": 60, "duration": 110, "velocity": 117}, {"time": 214879, "pitch": 48, "duration": 49, "velocity": 104}, {"time": 214879, "pitch": 54, "duration": 69, "velocity": 104}, {"time": 214879, "pitch": 57, "duration": 69, "velocity": 104}, {"time": 214879, "pitch": 60, "duration": 59, "velocity": 104}, {"time": 215038, "pitch": 47, "duration": 79, "velocity": 117}, {"time": 215038, "pitch": 50, "duration": 79, "velocity": 117}, {"time": 215038, "pitch": 53, "duration": 89, "velocity": 117}, {"time": 215038, "pitch": 55, "duration": 69, "velocity": 117}, {"time": 215038, "pitch": 59, "duration": 79, "velocity": 117}, {"time": 215356, "pitch": 47, "duration": 60, "velocity": 102}, {"time": 215356, "pitch": 50, "duration": 70, "velocity": 102}, {"time": 215356, "pitch": 53, "duration": 60, "velocity": 102}, {"time": 215356, "pitch": 55, "duration": 70, "velocity": 102}, {"time": 215356, "pitch": 59, "duration": 70, "velocity": 102}, {"time": 215515, "pitch": 47, "duration": 122, "velocity": 115}, {"time": 215515, "pitch": 50, "duration": 133, "velocity": 115}, {"time": 215515, "pitch": 53, "duration": 133, "velocity": 115}, {"time": 215515, "pitch": 55, "duration": 133, "velocity": 115}, {"time": 215515, "pitch": 59, "duration": 122, "velocity": 115}, {"time": 215841, "pitch": 47, "duration": 71, "velocity": 109}, {"time": 215841, "pitch": 50, "duration": 92, "velocity": 109}, {"time": 215841, "pitch": 53, "duration": 81, "velocity": 109}, {"time": 215841, "pitch": 55, "duration": 92, "velocity": 109}, {"time": 215841, "pitch": 59, "duration": 81, "velocity": 109}, {"time": 216004, "pitch": 47, "duration": 129, "velocity": 112}, {"time": 216004, "pitch": 50, "duration": 139, "velocity": 112}, {"time": 216004, "pitch": 53, "duration": 129, "velocity": 112}, {"time": 216004, "pitch": 55, "duration": 129, "velocity": 112}, {"time": 216004, "pitch": 59, "duration": 129, "velocity": 112}, {"time": 216322, "pitch": 47, "duration": 50, "velocity": 89}, {"time": 216322, "pitch": 50, "duration": 60, "velocity": 89}, {"time": 216322, "pitch": 53, "duration": 50, "velocity": 89}, {"time": 216322, "pitch": 55, "duration": 60, "velocity": 89}, {"time": 216322, "pitch": 59, "duration": 60, "velocity": 89}, {"time": 216481, "pitch": 47, "duration": 110, "velocity": 115}, {"time": 216481, "pitch": 50, "duration": 110, "velocity": 115}, {"time": 216481, "pitch": 53, "duration": 110, "velocity": 115}, {"time": 216481, "pitch": 55, "duration": 110, "velocity": 115}, {"time": 216481, "pitch": 59, "duration": 110, "velocity": 115}, {"time": 216800, "pitch": 47, "duration": 69, "velocity": 98}, {"time": 216800, "pitch": 50, "duration": 69, "velocity": 98}, {"time": 216800, "pitch": 53, "duration": 79, "velocity": 98}, {"time": 216800, "pitch": 55, "duration": 69, "velocity": 98}, {"time": 216800, "pitch": 59, "duration": 69, "velocity": 98}, {"time": 216959, "pitch": 50, "duration": 109, "velocity": 115}, {"time": 216959, "pitch": 53, "duration": 109, "velocity": 115}, {"time": 216959, "pitch": 57, "duration": 109, "velocity": 115}, {"time": 216959, "pitch": 60, "duration": 99, "velocity": 115}, {"time": 217277, "pitch": 50, "duration": 50, "velocity": 94}, {"time": 217277, "pitch": 53, "duration": 50, "velocity": 94}, {"time": 217277, "pitch": 57, "duration": 60, "velocity": 94}, {"time": 217277, "pitch": 60, "duration": 60, "velocity": 94}, {"time": 217437, "pitch": 50, "duration": 122, "velocity": 117}, {"time": 217437, "pitch": 53, "duration": 111, "velocity": 117}, {"time": 217437, "pitch": 57, "duration": 122, "velocity": 117}, {"time": 217437, "pitch": 60, "duration": 111, "velocity": 117}, {"time": 217762, "pitch": 50, "duration": 71, "velocity": 104}, {"time": 217762, "pitch": 53, "duration": 71, "velocity": 104}, {"time": 217762, "pitch": 57, "duration": 61, "velocity": 104}, {"time": 217762, "pitch": 60, "duration": 51, "velocity": 104}, {"time": 217925, "pitch": 50, "duration": 99, "velocity": 117}, {"time": 217925, "pitch": 53, "duration": 89, "velocity": 117}, {"time": 217925, "pitch": 57, "duration": 99, "velocity": 117}, {"time": 217925, "pitch": 60, "duration": 109, "velocity": 117}, {"time": 218243, "pitch": 50, "duration": 50, "velocity": 85}, {"time": 218243, "pitch": 53, "duration": 50, "velocity": 85}, {"time": 218243, "pitch": 57, "duration": 40, "velocity": 85}, {"time": 218243, "pitch": 60, "duration": 50, "velocity": 85}, {"time": 218402, "pitch": 50, "duration": 100, "velocity": 117}, {"time": 218402, "pitch": 53, "duration": 110, "velocity": 117}, {"time": 218402, "pitch": 57, "duration": 110, "velocity": 117}, {"time": 218402, "pitch": 60, "duration": 110, "velocity": 117}, {"time": 218721, "pitch": 50, "duration": 50, "velocity": 104}, {"time": 218721, "pitch": 53, "duration": 70, "velocity": 104}, {"time": 218721, "pitch": 57, "duration": 70, "velocity": 104}, {"time": 218721, "pitch": 60, "duration": 60, "velocity": 104}, {"time": 218880, "pitch": 47, "duration": 80, "velocity": 117}, {"time": 218880, "pitch": 50, "duration": 80, "velocity": 117}, {"time": 218880, "pitch": 53, "duration": 90, "velocity": 117}, {"time": 218880, "pitch": 55, "duration": 70, "velocity": 117}, {"time": 218880, "pitch": 59, "duration": 80, "velocity": 117}, {"time": 219198, "pitch": 47, "duration": 60, "velocity": 102}, {"time": 219198, "pitch": 50, "duration": 70, "velocity": 102}, {"time": 219198, "pitch": 53, "duration": 60, "velocity": 102}, {"time": 219198, "pitch": 55, "duration": 70, "velocity": 102}, {"time": 219198, "pitch": 59, "duration": 70, "velocity": 102}, {"time": 219358, "pitch": 47, "duration": 119, "velocity": 115}, {"time": 219358, "pitch": 50, "duration": 129, "velocity": 115}, {"time": 219358, "pitch": 53, "duration": 129, "velocity": 115}, {"time": 219358, "pitch": 55, "duration": 129, "velocity": 115}, {"time": 219358, "pitch": 59, "duration": 119, "velocity": 115}, {"time": 219676, "pitch": 47, "duration": 70, "velocity": 109}, {"time": 219676, "pitch": 50, "duration": 90, "velocity": 109}, {"time": 219676, "pitch": 53, "duration": 80, "velocity": 109}, {"time": 219676, "pitch": 55, "duration": 90, "velocity": 109}, {"time": 219676, "pitch": 59, "duration": 80, "velocity": 109}, {"time": 219835, "pitch": 48, "duration": 122, "velocity": 117}, {"time": 219835, "pitch": 52, "duration": 122, "velocity": 117}, {"time": 219835, "pitch": 55, "duration": 132, "velocity": 117}, {"time": 219835, "pitch": 60, "duration": 132, "velocity": 117}, {"time": 220161, "pitch": 48, "duration": 61, "velocity": 106}, {"time": 220161, "pitch": 52, "duration": 71, "velocity": 106}, {"time": 220161, "pitch": 55, "duration": 71, "velocity": 106}, {"time": 220161, "pitch": 60, "duration": 71, "velocity": 106}, {"time": 220324, "pitch": 48, "duration": 119, "velocity": 117}, {"time": 220324, "pitch": 52, "duration": 109, "velocity": 117}, {"time": 220324, "pitch": 55, "duration": 109, "velocity": 117}, {"time": 220324, "pitch": 60, "duration": 109, "velocity": 117}, {"time": 220642, "pitch": 48, "duration": 80, "velocity": 113}, {"time": 220642, "pitch": 52, "duration": 90, "velocity": 113}, {"time": 220642, "pitch": 55, "duration": 80, "velocity": 113}, {"time": 220642, "pitch": 60, "duration": 90, "velocity": 113}, {"time": 220801, "pitch": 48, "duration": 100, "velocity": 112}, {"time": 220801, "pitch": 53, "duration": 110, "velocity": 112}, {"time": 220801, "pitch": 57, "duration": 110, "velocity": 112}, {"time": 220801, "pitch": 60, "duration": 110, "velocity": 112}, {"time": 221120, "pitch": 48, "duration": 39, "velocity": 102}, {"time": 221120, "pitch": 53, "duration": 49, "velocity": 102}, {"time": 221120, "pitch": 57, "duration": 59, "velocity": 102}, {"time": 221120, "pitch": 60, "duration": 59, "velocity": 102}, {"time": 221279, "pitch": 48, "duration": 119, "velocity": 115}, {"time": 221279, "pitch": 53, "duration": 129, "velocity": 115}, {"time": 221279, "pitch": 57, "duration": 119, "velocity": 115}, {"time": 221279, "pitch": 60, "duration": 119, "velocity": 115}, {"time": 221597, "pitch": 48, "duration": 100, "velocity": 109}, {"time": 221597, "pitch": 53, "duration": 100, "velocity": 109}, {"time": 221597, "pitch": 57, "duration": 90, "velocity": 109}, {"time": 221597, "pitch": 60, "duration": 90, "velocity": 109}, {"time": 221756, "pitch": 48, "duration": 112, "velocity": 112}, {"time": 221756, "pitch": 53, "duration": 122, "velocity": 112}, {"time": 221756, "pitch": 57, "duration": 122, "velocity": 112}, {"time": 221756, "pitch": 60, "duration": 122, "velocity": 112}, {"time": 222082, "pitch": 48, "duration": 61, "velocity": 96}, {"time": 222082, "pitch": 53, "duration": 51, "velocity": 96}, {"time": 222082, "pitch": 57, "duration": 61, "velocity": 96}, {"time": 222082, "pitch": 60, "duration": 61, "velocity": 96}, {"time": 222245, "pitch": 48, "duration": 109, "velocity": 117}, {"time": 222245, "pitch": 53, "duration": 119, "velocity": 117}, {"time": 222245, "pitch": 57, "duration": 119, "velocity": 117}, {"time": 222245, "pitch": 60, "duration": 119, "velocity": 117}, {"time": 222563, "pitch": 48, "duration": 80, "velocity": 109}, {"time": 222563, "pitch": 53, "duration": 80, "velocity": 109}, {"time": 222563, "pitch": 57, "duration": 90, "velocity": 109}, {"time": 222563, "pitch": 60, "duration": 80, "velocity": 109}, {"time": 222722, "pitch": 50, "duration": 110, "velocity": 115}, {"time": 222722, "pitch": 53, "duration": 110, "velocity": 115}, {"time": 222722, "pitch": 57, "duration": 110, "velocity": 115}, {"time": 222722, "pitch": 60, "duration": 100, "velocity": 115}, {"time": 223041, "pitch": 50, "duration": 49, "velocity": 94}, {"time": 223041, "pitch": 53, "duration": 49, "velocity": 94}, {"time": 223041, "pitch": 57, "duration": 59, "velocity": 94}, {"time": 223041, "pitch": 60, "duration": 59, "velocity": 94}, {"time": 223200, "pitch": 50, "duration": 119, "velocity": 117}, {"time": 223200, "pitch": 53, "duration": 109, "velocity": 117}, {"time": 223200, "pitch": 57, "duration": 119, "velocity": 117}, {"time": 223200, "pitch": 60, "duration": 109, "velocity": 117}, {"time": 223518, "pitch": 50, "duration": 70, "velocity": 104}, {"time": 223518, "pitch": 53, "duration": 70, "velocity": 104}, {"time": 223518, "pitch": 57, "duration": 60, "velocity": 104}, {"time": 223518, "pitch": 60, "duration": 50, "velocity": 104}, {"time": 223678, "pitch": 47, "duration": 129, "velocity": 112}, {"time": 223678, "pitch": 50, "duration": 139, "velocity": 112}, {"time": 223678, "pitch": 53, "duration": 129, "velocity": 112}, {"time": 223678, "pitch": 55, "duration": 129, "velocity": 112}, {"time": 223678, "pitch": 59, "duration": 129, "velocity": 112}, {"time": 223996, "pitch": 47, "duration": 50, "velocity": 89}, {"time": 223996, "pitch": 50, "duration": 60, "velocity": 89}, {"time": 223996, "pitch": 53, "duration": 50, "velocity": 89}, {"time": 223996, "pitch": 55, "duration": 60, "velocity": 89}, {"time": 223996, "pitch": 59, "duration": 60, "velocity": 89}, {"time": 224155, "pitch": 47, "duration": 112, "velocity": 115}, {"time": 224155, "pitch": 50, "duration": 112, "velocity": 115}, {"time": 224155, "pitch": 53, "duration": 112, "velocity": 115}, {"time": 224155, "pitch": 55, "duration": 112, "velocity": 115}, {"time": 224155, "pitch": 59, "duration": 112, "velocity": 115}, {"time": 224481, "pitch": 47, "duration": 71, "velocity": 98}, {"time": 224481, "pitch": 50, "duration": 71, "velocity": 98}, {"time": 224481, "pitch": 53, "duration": 81, "velocity": 98}, {"time": 224481, "pitch": 55, "duration": 71, "velocity": 98}, {"time": 224481, "pitch": 59, "duration": 71, "velocity": 98}, {"time": 224643, "pitch": 48, "duration": 70, "velocity": 117}, {"time": 224643, "pitch": 52, "duration": 70, "velocity": 117}, {"time": 224643, "pitch": 55, "duration": 80, "velocity": 117}, {"time": 224643, "pitch": 60, "duration": 80, "velocity": 117}, {"time": 226883, "pitch": 47, "duration": 80, "velocity": 112}, {"time": 226883, "pitch": 50, "duration": 80, "velocity": 112}, {"time": 226883, "pitch": 53, "duration": 80, "velocity": 112}, {"time": 226883, "pitch": 55, "duration": 80, "velocity": 112}, {"time": 226883, "pitch": 59, "duration": 80, "velocity": 112}, {"time": 227042, "pitch": 47, "duration": 129, "velocity": 117}, {"time": 227042, "pitch": 50, "duration": 139, "velocity": 117}, {"time": 227042, "pitch": 53, "duration": 129, "velocity": 117}, {"time": 227042, "pitch": 55, "duration": 129, "velocity": 117}, {"time": 227042, "pitch": 59, "duration": 129, "velocity": 117}, {"time": 227361, "pitch": 48, "duration": 59, "velocity": 117}, {"time": 227361, "pitch": 52, "duration": 49, "velocity": 117}, {"time": 227361, "pitch": 55, "duration": 59, "velocity": 117}, {"time": 227361, "pitch": 60, "duration": 59, "velocity": 117}, {"time": 230717, "pitch": 48, "duration": 101, "velocity": 117}, {"time": 230717, "pitch": 52, "duration": 91, "velocity": 117}, {"time": 230717, "pitch": 55, "duration": 101, "velocity": 117}, {"time": 230717, "pitch": 60, "duration": 101, "velocity": 117}, {"time": 230878, "pitch": 48, "duration": 110, "velocity": 117}, {"time": 230878, "pitch": 52, "duration": 120, "velocity": 117}, {"time": 230878, "pitch": 55, "duration": 110, "velocity": 117}, {"time": 230878, "pitch": 60, "duration": 100, "velocity": 117}, {"time": 231199, "pitch": 48, "duration": 60, "velocity": 117}, {"time": 231199, "pitch": 52, "duration": 60, "velocity": 117}, {"time": 231199, "pitch": 55, "duration": 60, "velocity": 117}, {"time": 231199, "pitch": 60, "duration": 70, "velocity": 117}, {"time": 1922, "pitch": 51, "duration": 115, "velocity": 115}, {"time": 1922, "pitch": 58, "duration": 115, "velocity": 115}, {"time": 2241, "pitch": 51, "duration": 104, "velocity": 107}, {"time": 2241, "pitch": 58, "duration": 104, "velocity": 107}, {"time": 2400, "pitch": 51, "duration": 134, "velocity": 120}, {"time": 2400, "pitch": 60, "duration": 134, "velocity": 120}, {"time": 2877, "pitch": 51, "duration": 125, "velocity": 118}, {"time": 2877, "pitch": 58, "duration": 125, "velocity": 118}, {"time": 3355, "pitch": 51, "duration": 122, "velocity": 120}, {"time": 3355, "pitch": 60, "duration": 127, "velocity": 120}, {"time": 3681, "pitch": 51, "duration": 101, "velocity": 97}, {"time": 3681, "pitch": 58, "duration": 101, "velocity": 97}, {"time": 3843, "pitch": 46, "duration": 130, "velocity": 120}, {"time": 3843, "pitch": 53, "duration": 135, "velocity": 120}, {"time": 4162, "pitch": 46, "duration": 99, "velocity": 109}, {"time": 4162, "pitch": 53, "duration": 104, "velocity": 109}, {"time": 4321, "pitch": 46, "duration": 129, "velocity": 115}, {"time": 4321, "pitch": 55, "duration": 129, "velocity": 115}, {"time": 4799, "pitch": 46, "duration": 104, "velocity": 120}, {"time": 4799, "pitch": 53, "duration": 104, "velocity": 120}, {"time": 5276, "pitch": 46, "duration": 122, "velocity": 118}, {"time": 5276, "pitch": 55, "duration": 122, "velocity": 118}, {"time": 5764, "pitch": 51, "duration": 115, "velocity": 115}, {"time": 5764, "pitch": 58, "duration": 115, "velocity": 115}, {"time": 6083, "pitch": 51, "duration": 104, "velocity": 107}, {"time": 6083, "pitch": 58, "duration": 104, "velocity": 107}, {"time": 6242, "pitch": 51, "duration": 134, "velocity": 120}, {"time": 6242, "pitch": 60, "duration": 134, "velocity": 120}, {"time": 6720, "pitch": 51, "duration": 124, "velocity": 118}, {"time": 6720, "pitch": 58, "duration": 124, "velocity": 118}, {"time": 7197, "pitch": 51, "duration": 120, "velocity": 120}, {"time": 7197, "pitch": 60, "duration": 125, "velocity": 120}, {"time": 7516, "pitch": 51, "duration": 99, "velocity": 97}, {"time": 7516, "pitch": 58, "duration": 99, "velocity": 97}, {"time": 7675, "pitch": 65, "duration": 127, "velocity": 116}, {"time": 7838, "pitch": 63, "duration": 173, "velocity": 103}, {"time": 8000, "pitch": 62, "duration": 143, "velocity": 100}, {"time": 8163, "pitch": 61, "duration": 149, "velocity": 119}, {"time": 8322, "pitch": 60, "duration": 140, "velocity": 100}, {"time": 8482, "pitch": 58, "duration": 139, "velocity": 109}, {"time": 8641, "pitch": 56, "duration": 139, "velocity": 116}, {"time": 8800, "pitch": 55, "duration": 144, "velocity": 105}, {"time": 8959, "pitch": 53, "duration": 140, "velocity": 106}, {"time": 9118, "pitch": 51, "duration": 155, "velocity": 108}, {"time": 9278, "pitch": 50, "duration": 139, "velocity": 108}, {"time": 9437, "pitch": 49, "duration": 174, "velocity": 100}, {"time": 9596, "pitch": 51, "duration": 117, "velocity": 115}, {"time": 9596, "pitch": 58, "duration": 117, "velocity": 115}, {"time": 9922, "pitch": 51, "duration": 106, "velocity": 107}, {"time": 9922, "pitch": 58, "duration": 106, "velocity": 107}, {"time": 10084, "pitch": 51, "duration": 135, "velocity": 120}, {"time": 10084, "pitch": 60, "duration": 135, "velocity": 120}, {"time": 10562, "pitch": 51, "duration": 124, "velocity": 118}, {"time": 10562, "pitch": 58, "duration": 124, "velocity": 118}, {"time": 11040, "pitch": 51, "duration": 119, "velocity": 120}, {"time": 11040, "pitch": 60, "duration": 124, "velocity": 120}, {"time": 11358, "pitch": 51, "duration": 99, "velocity": 97}, {"time": 11358, "pitch": 58, "duration": 99, "velocity": 97}, {"time": 11517, "pitch": 46, "duration": 129, "velocity": 120}, {"time": 11517, "pitch": 53, "duration": 134, "velocity": 120}, {"time": 11836, "pitch": 46, "duration": 99, "velocity": 109}, {"time": 11836, "pitch": 53, "duration": 104, "velocity": 109}, {"time": 11995, "pitch": 46, "duration": 132, "velocity": 115}, {"time": 11995, "pitch": 55, "duration": 132, "velocity": 115}, {"time": 12483, "pitch": 46, "duration": 104, "velocity": 120}, {"time": 12483, "pitch": 53, "duration": 104, "velocity": 120}, {"time": 12961, "pitch": 46, "duration": 119, "velocity": 118}, {"time": 12961, "pitch": 55, "duration": 119, "velocity": 118}, {"time": 13438, "pitch": 48, "duration": 130, "velocity": 120}, {"time": 13438, "pitch": 55, "duration": 130, "velocity": 120}, {"time": 13757, "pitch": 48, "duration": 104, "velocity": 102}, {"time": 13757, "pitch": 55, "duration": 109, "velocity": 102}, {"time": 13916, "pitch": 48, "duration": 132, "velocity": 120}, {"time": 13916, "pitch": 57, "duration": 132, "velocity": 120}, {"time": 14404, "pitch": 48, "duration": 125, "velocity": 120}, {"time": 14404, "pitch": 55, "duration": 125, "velocity": 120}, {"time": 14882, "pitch": 48, "duration": 134, "velocity": 120}, {"time": 14882, "pitch": 57, "duration": 134, "velocity": 120}, {"time": 15359, "pitch": 53, "duration": 110, "velocity": 120}, {"time": 15359, "pitch": 60, "duration": 115, "velocity": 120}, {"time": 15678, "pitch": 53, "duration": 99, "velocity": 102}, {"time": 15678, "pitch": 60, "duration": 104, "velocity": 102}, {"time": 15837, "pitch": 53, "duration": 127, "velocity": 118}, {"time": 15837, "pitch": 60, "duration": 132, "velocity": 118}, {"time": 16325, "pitch": 53, "duration": 125, "velocity": 118}, {"time": 16325, "pitch": 60, "duration": 130, "velocity": 118}, {"time": 17280, "pitch": 46, "duration": 130, "velocity": 120}, {"time": 17280, "pitch": 53, "duration": 135, "velocity": 120}, {"time": 17599, "pitch": 46, "duration": 99, "velocity": 109}, {"time": 17599, "pitch": 53, "duration": 104, "velocity": 109}, {"time": 17758, "pitch": 46, "duration": 129, "velocity": 115}, {"time": 17758, "pitch": 55, "duration": 129, "velocity": 115}, {"time": 18236, "pitch": 46, "duration": 106, "velocity": 120}, {"time": 18236, "pitch": 53, "duration": 106, "velocity": 120}, {"time": 18724, "pitch": 46, "duration": 119, "velocity": 118}, {"time": 18724, "pitch": 55, "duration": 119, "velocity": 118}, {"time": 19202, "pitch": 46, "duration": 129, "velocity": 120}, {"time": 19202, "pitch": 53, "duration": 134, "velocity": 120}, {"time": 19520, "pitch": 46, "duration": 99, "velocity": 109}, {"time": 19520, "pitch": 53, "duration": 104, "velocity": 109}, {"time": 19679, "pitch": 46, "duration": 130, "velocity": 115}, {"time": 19679, "pitch": 55, "duration": 130, "velocity": 115}, {"time": 20157, "pitch": 46, "duration": 107, "velocity": 120}, {"time": 20157, "pitch": 53, "duration": 107, "velocity": 120}, {"time": 20645, "pitch": 46, "duration": 119, "velocity": 118}, {"time": 20645, "pitch": 55, "duration": 119, "velocity": 118}, {"time": 21123, "pitch": 51, "duration": 114, "velocity": 115}, {"time": 21123, "pitch": 58, "duration": 114, "velocity": 115}, {"time": 21441, "pitch": 51, "duration": 105, "velocity": 107}, {"time": 21441, "pitch": 58, "duration": 105, "velocity": 107}, {"time": 21600, "pitch": 51, "duration": 135, "velocity": 120}, {"time": 21600, "pitch": 60, "duration": 135, "velocity": 120}, {"time": 22078, "pitch": 51, "duration": 124, "velocity": 118}, {"time": 22078, "pitch": 58, "duration": 124, "velocity": 118}, {"time": 22556, "pitch": 51, "duration": 122, "velocity": 120}, {"time": 22556, "pitch": 60, "duration": 127, "velocity": 120}, {"time": 22881, "pitch": 51, "duration": 102, "velocity": 97}, {"time": 22881, "pitch": 58, "duration": 102, "velocity": 97}, {"time": 23044, "pitch": 48, "duration": 129, "velocity": 120}, {"time": 23044, "pitch": 55, "duration": 129, "velocity": 120}, {"time": 23362, "pitch": 48, "duration": 110, "velocity": 94}, {"time": 23362, "pitch": 55, "duration": 105, "velocity": 94}, {"time": 23521, "pitch": 48, "duration": 115, "velocity": 120}, {"time": 23521, "pitch": 55, "duration": 115, "velocity": 120}, {"time": 23999, "pitch": 53, "duration": 129, "velocity": 120}, {"time": 23999, "pitch": 60, "duration": 129, "velocity": 120}, {"time": 24477, "pitch": 53, "duration": 127, "velocity": 115}, {"time": 24477, "pitch": 60, "duration": 127, "velocity": 115}, {"time": 24965, "pitch": 46, "duration": 129, "velocity": 120}, {"time": 24965, "pitch": 53, "duration": 134, "velocity": 120}, {"time": 25283, "pitch": 46, "duration": 100, "velocity": 109}, {"time": 25283, "pitch": 53, "duration": 105, "velocity": 109}, {"time": 25443, "pitch": 46, "duration": 129, "velocity": 115}, {"time": 25443, "pitch": 55, "duration": 129, "velocity": 115}, {"time": 25920, "pitch": 46, "duration": 105, "velocity": 120}, {"time": 25920, "pitch": 53, "duration": 105, "velocity": 120}, {"time": 26398, "pitch": 46, "duration": 119, "velocity": 118}, {"time": 26398, "pitch": 55, "duration": 119, "velocity": 118}, {"time": 26875, "pitch": 46, "duration": 133, "velocity": 120}, {"time": 26875, "pitch": 53, "duration": 138, "velocity": 120}, {"time": 27201, "pitch": 46, "duration": 102, "velocity": 109}, {"time": 27201, "pitch": 53, "duration": 107, "velocity": 109}, {"time": 27364, "pitch": 46, "duration": 129, "velocity": 115}, {"time": 27364, "pitch": 55, "duration": 129, "velocity": 115}, {"time": 27841, "pitch": 46, "duration": 105, "velocity": 120}, {"time": 27841, "pitch": 53, "duration": 105, "velocity": 120}, {"time": 28319, "pitch": 46, "duration": 119, "velocity": 118}, {"time": 28319, "pitch": 55, "duration": 119, "velocity": 118}, {"time": 28796, "pitch": 51, "duration": 117, "velocity": 115}, {"time": 28796, "pitch": 58, "duration": 117, "velocity": 115}, {"time": 29122, "pitch": 51, "duration": 107, "velocity": 107}, {"time": 29122, "pitch": 58, "duration": 107, "velocity": 107}, {"time": 29285, "pitch": 51, "duration": 134, "velocity": 120}, {"time": 29285, "pitch": 58, "duration": 134, "velocity": 120}, {"time": 29762, "pitch": 52, "duration": 125, "velocity": 118}, {"time": 29762, "pitch": 58, "duration": 125, "velocity": 118}, {"time": 30240, "pitch": 52, "duration": 119, "velocity": 120}, {"time": 30240, "pitch": 58, "duration": 124, "velocity": 120}, {"time": 30558, "pitch": 52, "duration": 100, "velocity": 97}, {"time": 30558, "pitch": 58, "duration": 100, "velocity": 97}, {"time": 30718, "pitch": 53, "duration": 124, "velocity": 116}, {"time": 30718, "pitch": 60, "duration": 124, "velocity": 116}, {"time": 31036, "pitch": 53, "duration": 109, "velocity": 104}, {"time": 31036, "pitch": 60, "duration": 109, "velocity": 104}, {"time": 31195, "pitch": 53, "duration": 137, "velocity": 115}, {"time": 31195, "pitch": 60, "duration": 143, "velocity": 115}, {"time": 31683, "pitch": 53, "duration": 130, "velocity": 120}, {"time": 31683, "pitch": 60, "duration": 130, "velocity": 120}, {"time": 32161, "pitch": 53, "duration": 124, "velocity": 115}, {"time": 32161, "pitch": 60, "duration": 124, "velocity": 115}, {"time": 32639, "pitch": 48, "duration": 129, "velocity": 120}, {"time": 32639, "pitch": 55, "duration": 129, "velocity": 120}, {"time": 32957, "pitch": 48, "duration": 110, "velocity": 94}, {"time": 32957, "pitch": 55, "duration": 105, "velocity": 94}, {"time": 33116, "pitch": 48, "duration": 117, "velocity": 120}, {"time": 33116, "pitch": 55, "duration": 117, "velocity": 120}, {"time": 33605, "pitch": 48, "duration": 134, "velocity": 120}, {"time": 33605, "pitch": 55, "duration": 134, "velocity": 120}, {"time": 34082, "pitch": 48, "duration": 130, "velocity": 120}, {"time": 34082, "pitch": 55, "duration": 135, "velocity": 120}, {"time": 34560, "pitch": 53, "duration": 124, "velocity": 116}, {"time": 34560, "pitch": 60, "duration": 124, "velocity": 116}, {"time": 34878, "pitch": 53, "duration": 110, "velocity": 104}, {"time": 34878, "pitch": 60, "duration": 110, "velocity": 104}, {"time": 35037, "pitch": 53, "duration": 135, "velocity": 115}, {"time": 35037, "pitch": 60, "duration": 140, "velocity": 115}, {"time": 35515, "pitch": 46, "duration": 107, "velocity": 120}, {"time": 35515, "pitch": 53, "duration": 107, "velocity": 120}, {"time": 36003, "pitch": 46, "duration": 120, "velocity": 118}, {"time": 36003, "pitch": 53, "duration": 120, "velocity": 118}, {"time": 36481, "pitch": 51, "duration": 129, "velocity": 120}, {"time": 36481, "pitch": 58, "duration": 129, "velocity": 120}, {"time": 36799, "pitch": 51, "duration": 110, "velocity": 94}, {"time": 36799, "pitch": 58, "duration": 105, "velocity": 94}, {"time": 36959, "pitch": 51, "duration": 114, "velocity": 120}, {"time": 36959, "pitch": 58, "duration": 114, "velocity": 120}, {"time": 37436, "pitch": 51, "duration": 137, "velocity": 120}, {"time": 37436, "pitch": 58, "duration": 137, "velocity": 120}, {"time": 37924, "pitch": 51, "duration": 130, "velocity": 120}, {"time": 37924, "pitch": 58, "duration": 135, "velocity": 120}, {"time": 38402, "pitch": 48, "duration": 129, "velocity": 120}, {"time": 38402, "pitch": 55, "duration": 129, "velocity": 120}, {"time": 38720, "pitch": 48, "duration": 110, "velocity": 94}, {"time": 38720, "pitch": 55, "duration": 105, "velocity": 94}, {"time": 38880, "pitch": 48, "duration": 114, "velocity": 120}, {"time": 38880, "pitch": 55, "duration": 114, "velocity": 120}, {"time": 39357, "pitch": 53, "duration": 130, "velocity": 120}, {"time": 39357, "pitch": 60, "duration": 130, "velocity": 120}, {"time": 39835, "pitch": 53, "duration": 127, "velocity": 115}, {"time": 39835, "pitch": 60, "duration": 127, "velocity": 115}, {"time": 40323, "pitch": 46, "duration": 110, "velocity": 120}, {"time": 40323, "pitch": 53, "duration": 115, "velocity": 120}, {"time": 42563, "pitch": 53, "duration": 114, "velocity": 120}, {"time": 42563, "pitch": 60, "duration": 114, "velocity": 120}, {"time": 42722, "pitch": 53, "duration": 134, "velocity": 120}, {"time": 42722, "pitch": 60, "duration": 134, "velocity": 120}, {"time": 43040, "pitch": 46, "duration": 100, "velocity": 120}, {"time": 43040, "pitch": 53, "duration": 105, "velocity": 120}, {"time": 44155, "pitch": 51, "duration": 117, "velocity": 115}, {"time": 44155, "pitch": 58, "duration": 117, "velocity": 115}, {"time": 44480, "pitch": 51, "duration": 107, "velocity": 107}, {"time": 44480, "pitch": 58, "duration": 107, "velocity": 107}, {"time": 44643, "pitch": 51, "duration": 134, "velocity": 120}, {"time": 44643, "pitch": 60, "duration": 134, "velocity": 120}, {"time": 45121, "pitch": 51, "duration": 124, "velocity": 118}, {"time": 45121, "pitch": 58, "duration": 124, "velocity": 118}, {"time": 45598, "pitch": 51, "duration": 120, "velocity": 120}, {"time": 45598, "pitch": 60, "duration": 125, "velocity": 120}, {"time": 45917, "pitch": 51, "duration": 99, "velocity": 97}, {"time": 45917, "pitch": 58, "duration": 99, "velocity": 97}, {"time": 46076, "pitch": 46, "duration": 132, "velocity": 120}, {"time": 46076, "pitch": 53, "duration": 137, "velocity": 120}, {"time": 46401, "pitch": 46, "duration": 102, "velocity": 109}, {"time": 46401, "pitch": 53, "duration": 107, "velocity": 109}, {"time": 46564, "pitch": 46, "duration": 129, "velocity": 115}, {"time": 46564, "pitch": 55, "duration": 129, "velocity": 115}, {"time": 47042, "pitch": 46, "duration": 104, "velocity": 120}, {"time": 47042, "pitch": 53, "duration": 104, "velocity": 120}, {"time": 47519, "pitch": 46, "duration": 120, "velocity": 118}, {"time": 47519, "pitch": 55, "duration": 120, "velocity": 118}, {"time": 47997, "pitch": 51, "duration": 117, "velocity": 115}, {"time": 47997, "pitch": 58, "duration": 117, "velocity": 115}, {"time": 48323, "pitch": 51, "duration": 106, "velocity": 107}, {"time": 48323, "pitch": 58, "duration": 106, "velocity": 107}, {"time": 48485, "pitch": 51, "duration": 135, "velocity": 120}, {"time": 48485, "pitch": 60, "duration": 135, "velocity": 120}, {"time": 48963, "pitch": 51, "duration": 124, "velocity": 118}, {"time": 48963, "pitch": 58, "duration": 124, "velocity": 118}, {"time": 49440, "pitch": 51, "duration": 120, "velocity": 120}, {"time": 49440, "pitch": 60, "duration": 125, "velocity": 120}, {"time": 49759, "pitch": 51, "duration": 99, "velocity": 97}, {"time": 49759, "pitch": 58, "duration": 99, "velocity": 97}, {"time": 49918, "pitch": 46, "duration": 129, "velocity": 120}, {"time": 49918, "pitch": 53, "duration": 134, "velocity": 120}, {"time": 50236, "pitch": 46, "duration": 100, "velocity": 109}, {"time": 50236, "pitch": 53, "duration": 105, "velocity": 109}, {"time": 50396, "pitch": 46, "duration": 132, "velocity": 115}, {"time": 50396, "pitch": 55, "duration": 132, "velocity": 115}, {"time": 50884, "pitch": 46, "duration": 104, "velocity": 120}, {"time": 50884, "pitch": 53, "duration": 104, "velocity": 120}, {"time": 51362, "pitch": 46, "duration": 119, "velocity": 118}, {"time": 51362, "pitch": 55, "duration": 119, "velocity": 118}, {"time": 51839, "pitch": 51, "duration": 115, "velocity": 115}, {"time": 51839, "pitch": 58, "duration": 115, "velocity": 115}, {"time": 52158, "pitch": 51, "duration": 104, "velocity": 107}, {"time": 52158, "pitch": 58, "duration": 104, "velocity": 107}, {"time": 52317, "pitch": 51, "duration": 137, "velocity": 120}, {"time": 52317, "pitch": 60, "duration": 137, "velocity": 120}, {"time": 52805, "pitch": 51, "duration": 124, "velocity": 118}, {"time": 52805, "pitch": 58, "duration": 124, "velocity": 118}, {"time": 53283, "pitch": 51, "duration": 119, "velocity": 120}, {"time": 53283, "pitch": 60, "duration": 124, "velocity": 120}, {"time": 53601, "pitch": 51, "duration": 100, "velocity": 97}, {"time": 53601, "pitch": 58, "duration": 100, "velocity": 97}, {"time": 53760, "pitch": 46, "duration": 130, "velocity": 120}, {"time": 53760, "pitch": 53, "duration": 135, "velocity": 120}, {"time": 54079, "pitch": 46, "duration": 99, "velocity": 109}, {"time": 54079, "pitch": 53, "duration": 104, "velocity": 109}, {"time": 54238, "pitch": 46, "duration": 129, "velocity": 115}, {"time": 54238, "pitch": 55, "duration": 129, "velocity": 115}, {"time": 54716, "pitch": 46, "duration": 106, "velocity": 120}, {"time": 54716, "pitch": 53, "duration": 106, "velocity": 120}, {"time": 55204, "pitch": 46, "duration": 119, "velocity": 118}, {"time": 55204, "pitch": 55, "duration": 119, "velocity": 118}, {"time": 55681, "pitch": 48, "duration": 130, "velocity": 120}, {"time": 55681, "pitch": 55, "duration": 130, "velocity": 120}, {"time": 56000, "pitch": 48, "duration": 104, "velocity": 102}, {"time": 56000, "pitch": 55, "duration": 109, "velocity": 102}, {"time": 56159, "pitch": 48, "duration": 129, "velocity": 120}, {"time": 56159, "pitch": 57, "duration": 129, "velocity": 120}, {"time": 56637, "pitch": 48, "duration": 127, "velocity": 120}, {"time": 56637, "pitch": 55, "duration": 127, "velocity": 120}, {"time": 57125, "pitch": 48, "duration": 134, "velocity": 120}, {"time": 57125, "pitch": 57, "duration": 134, "velocity": 120}, {"time": 57603, "pitch": 53, "duration": 109, "velocity": 120}, {"time": 57603, "pitch": 60, "duration": 114, "velocity": 120}, {"time": 57921, "pitch": 53, "duration": 99, "velocity": 102}, {"time": 57921, "pitch": 60, "duration": 104, "velocity": 102}, {"time": 58080, "pitch": 53, "duration": 125, "velocity": 118}, {"time": 58080, "pitch": 60, "duration": 129, "velocity": 118}, {"time": 58558, "pitch": 53, "duration": 124, "velocity": 118}, {"time": 58558, "pitch": 60, "duration": 129, "velocity": 118}, {"time": 59035, "pitch": 53, "duration": 138, "velocity": 118}, {"time": 59035, "pitch": 60, "duration": 138, "velocity": 118}, {"time": 59524, "pitch": 46, "duration": 129, "velocity": 120}, {"time": 59524, "pitch": 53, "duration": 134, "velocity": 120}, {"time": 59842, "pitch": 46, "duration": 100, "velocity": 109}, {"time": 59842, "pitch": 53, "duration": 105, "velocity": 109}, {"time": 60001, "pitch": 46, "duration": 130, "velocity": 115}, {"time": 60001, "pitch": 55, "duration": 130, "velocity": 115}, {"time": 60479, "pitch": 46, "duration": 104, "velocity": 120}, {"time": 60479, "pitch": 53, "duration": 104, "velocity": 120}, {"time": 60956, "pitch": 46, "duration": 123, "velocity": 118}, {"time": 60956, "pitch": 55, "duration": 123, "velocity": 118}, {"time": 61445, "pitch": 46, "duration": 129, "velocity": 120}, {"time": 61445, "pitch": 53, "duration": 134, "velocity": 120}, {"time": 61763, "pitch": 46, "duration": 100, "velocity": 109}, {"time": 61763, "pitch": 53, "duration": 105, "velocity": 109}, {"time": 61922, "pitch": 46, "duration": 130, "velocity": 115}, {"time": 61922, "pitch": 55, "duration": 130, "velocity": 115}, {"time": 62400, "pitch": 46, "duration": 104, "velocity": 120}, {"time": 62400, "pitch": 53, "duration": 104, "velocity": 120}, {"time": 62878, "pitch": 46, "duration": 119, "velocity": 118}, {"time": 62878, "pitch": 55, "duration": 119, "velocity": 118}, {"time": 63355, "pitch": 51, "duration": 117, "velocity": 115}, {"time": 63355, "pitch": 58, "duration": 117, "velocity": 115}, {"time": 63681, "pitch": 51, "duration": 107, "velocity": 107}, {"time": 63681, "pitch": 58, "duration": 107, "velocity": 107}, {"time": 63843, "pitch": 51, "duration": 135, "velocity": 120}, {"time": 63843, "pitch": 60, "duration": 135, "velocity": 120}, {"time": 64321, "pitch": 51, "duration": 124, "velocity": 118}, {"time": 64321, "pitch": 58, "duration": 124, "velocity": 118}, {"time": 64799, "pitch": 51, "duration": 119, "velocity": 120}, {"time": 64799, "pitch": 60, "duration": 124, "velocity": 120}, {"time": 65117, "pitch": 51, "duration": 100, "velocity": 97}, {"time": 65117, "pitch": 58, "duration": 100, "velocity": 97}, {"time": 65276, "pitch": 48, "duration": 133, "velocity": 120}, {"time": 65276, "pitch": 55, "duration": 133, "velocity": 120}, {"time": 65602, "pitch": 48, "duration": 112, "velocity": 94}, {"time": 65602, "pitch": 55, "duration": 107, "velocity": 94}, {"time": 65765, "pitch": 48, "duration": 114, "velocity": 120}, {"time": 65765, "pitch": 55, "duration": 114, "velocity": 120}, {"time": 66242, "pitch": 53, "duration": 130, "velocity": 120}, {"time": 66242, "pitch": 60, "duration": 130, "velocity": 120}, {"time": 66720, "pitch": 53, "duration": 124, "velocity": 115}, {"time": 66720, "pitch": 60, "duration": 124, "velocity": 115}, {"time": 67197, "pitch": 46, "duration": 130, "velocity": 120}, {"time": 67197, "pitch": 53, "duration": 135, "velocity": 120}, {"time": 67516, "pitch": 46, "duration": 99, "velocity": 109}, {"time": 67516, "pitch": 53, "duration": 104, "velocity": 109}, {"time": 67675, "pitch": 46, "duration": 132, "velocity": 115}, {"time": 67675, "pitch": 55, "duration": 132, "velocity": 115}, {"time": 68163, "pitch": 46, "duration": 105, "velocity": 120}, {"time": 68163, "pitch": 53, "duration": 105, "velocity": 120}, {"time": 68641, "pitch": 46, "duration": 119, "velocity": 118}, {"time": 68641, "pitch": 55, "duration": 119, "velocity": 118}, {"time": 69119, "pitch": 46, "duration": 129, "velocity": 120}, {"time": 69119, "pitch": 53, "duration": 134, "velocity": 120}, {"time": 69437, "pitch": 46, "duration": 99, "velocity": 109}, {"time": 69437, "pitch": 53, "duration": 104, "velocity": 109}, {"time": 69596, "pitch": 46, "duration": 132, "velocity": 115}, {"time": 69596, "pitch": 55, "duration": 132, "velocity": 115}, {"time": 70084, "pitch": 46, "duration": 105, "velocity": 120}, {"time": 70084, "pitch": 53, "duration": 105, "velocity": 120}, {"time": 70562, "pitch": 46, "duration": 119, "velocity": 118}, {"time": 70562, "pitch": 55, "duration": 119, "velocity": 118}, {"time": 71040, "pitch": 51, "duration": 114, "velocity": 115}, {"time": 71040, "pitch": 58, "duration": 114, "velocity": 115}, {"time": 71358, "pitch": 51, "duration": 105, "velocity": 107}, {"time": 71358, "pitch": 58, "duration": 105, "velocity": 107}, {"time": 71517, "pitch": 51, "duration": 135, "velocity": 120}, {"time": 71517, "pitch": 58, "duration": 135, "velocity": 120}, {"time": 71995, "pitch": 52, "duration": 127, "velocity": 118}, {"time": 71995, "pitch": 58, "duration": 127, "velocity": 118}, {"time": 72483, "pitch": 52, "duration": 120, "velocity": 120}, {"time": 72483, "pitch": 58, "duration": 125, "velocity": 120}, {"time": 72802, "pitch": 52, "duration": 99, "velocity": 97}, {"time": 72802, "pitch": 58, "duration": 99, "velocity": 97}, {"time": 72961, "pitch": 53, "duration": 124, "velocity": 116}, {"time": 72961, "pitch": 60, "duration": 124, "velocity": 116}, {"time": 73279, "pitch": 53, "duration": 110, "velocity": 104}, {"time": 73279, "pitch": 60, "duration": 110, "velocity": 104}, {"time": 73438, "pitch": 53, "duration": 135, "velocity": 115}, {"time": 73438, "pitch": 60, "duration": 140, "velocity": 115}, {"time": 73916, "pitch": 53, "duration": 132, "velocity": 120}, {"time": 73916, "pitch": 60, "duration": 132, "velocity": 120}, {"time": 74404, "pitch": 53, "duration": 125, "velocity": 115}, {"time": 74404, "pitch": 60, "duration": 125, "velocity": 115}, {"time": 74882, "pitch": 48, "duration": 129, "velocity": 120}, {"time": 74882, "pitch": 55, "duration": 129, "velocity": 120}, {"time": 75200, "pitch": 48, "duration": 110, "velocity": 94}, {"time": 75200, "pitch": 55, "duration": 105, "velocity": 94}, {"time": 75359, "pitch": 48, "duration": 115, "velocity": 120}, {"time": 75359, "pitch": 55, "duration": 115, "velocity": 120}, {"time": 75837, "pitch": 48, "duration": 134, "velocity": 120}, {"time": 75837, "pitch": 55, "duration": 134, "velocity": 120}, {"time": 76315, "pitch": 48, "duration": 132, "velocity": 120}, {"time": 76315, "pitch": 55, "duration": 137, "velocity": 120}, {"time": 76803, "pitch": 53, "duration": 124, "velocity": 116}, {"time": 76803, "pitch": 60, "duration": 124, "velocity": 116}, {"time": 77121, "pitch": 53, "duration": 110, "velocity": 104}, {"time": 77121, "pitch": 60, "duration": 110, "velocity": 104}, {"time": 77281, "pitch": 53, "duration": 134, "velocity": 115}, {"time": 77281, "pitch": 60, "duration": 139, "velocity": 115}, {"time": 77758, "pitch": 46, "duration": 105, "velocity": 120}, {"time": 77758, "pitch": 53, "duration": 105, "velocity": 120}, {"time": 78236, "pitch": 46, "duration": 122, "velocity": 118}, {"time": 78236, "pitch": 53, "duration": 122, "velocity": 118}, {"time": 78724, "pitch": 51, "duration": 129, "velocity": 120}, {"time": 78724, "pitch": 58, "duration": 129, "velocity": 120}, {"time": 79043, "pitch": 51, "duration": 109, "velocity": 94}, {"time": 79043, "pitch": 58, "duration": 104, "velocity": 94}, {"time": 79202, "pitch": 51, "duration": 114, "velocity": 120}, {"time": 79202, "pitch": 58, "duration": 114, "velocity": 120}, {"time": 79679, "pitch": 51, "duration": 135, "velocity": 120}, {"time": 79679, "pitch": 58, "duration": 135, "velocity": 120}, {"time": 80157, "pitch": 51, "duration": 132, "velocity": 120}, {"time": 80157, "pitch": 58, "duration": 137, "velocity": 120}, {"time": 80645, "pitch": 48, "duration": 130, "velocity": 120}, {"time": 80645, "pitch": 55, "duration": 130, "velocity": 120}, {"time": 80964, "pitch": 48, "duration": 109, "velocity": 94}, {"time": 80964, "pitch": 55, "duration": 104, "velocity": 94}, {"time": 81123, "pitch": 48, "duration": 114, "velocity": 120}, {"time": 81123, "pitch": 55, "duration": 114, "velocity": 120}, {"time": 81600, "pitch": 53, "duration": 130, "velocity": 120}, {"time": 81600, "pitch": 60, "duration": 130, "velocity": 120}, {"time": 82078, "pitch": 53, "duration": 124, "velocity": 115}, {"time": 82078, "pitch": 60, "duration": 124, "velocity": 115}, {"time": 82556, "pitch": 46, "duration": 112, "velocity": 120}, {"time": 82556, "pitch": 53, "duration": 117, "velocity": 120}, {"time": 84802, "pitch": 53, "duration": 117, "velocity": 120}, {"time": 84802, "pitch": 60, "duration": 117, "velocity": 120}, {"time": 84965, "pitch": 53, "duration": 134, "velocity": 120}, {"time": 84965, "pitch": 60, "duration": 134, "velocity": 120}, {"time": 85283, "pitch": 46, "duration": 100, "velocity": 120}, {"time": 85283, "pitch": 53, "duration": 105, "velocity": 120}, {"time": 86398, "pitch": 53, "duration": 114, "velocity": 115}, {"time": 86398, "pitch": 60, "duration": 114, "velocity": 115}, {"time": 86716, "pitch": 53, "duration": 105, "velocity": 107}, {"time": 86716, "pitch": 60, "duration": 105, "velocity": 107}, {"time": 86876, "pitch": 53, "duration": 137, "velocity": 120}, {"time": 86876, "pitch": 62, "duration": 137, "velocity": 120}, {"time": 87364, "pitch": 53, "duration": 124, "velocity": 118}, {"time": 87364, "pitch": 60, "duration": 124, "velocity": 118}, {"time": 87841, "pitch": 53, "duration": 120, "velocity": 120}, {"time": 87841, "pitch": 62, "duration": 125, "velocity": 120}, {"time": 88160, "pitch": 53, "duration": 99, "velocity": 97}, {"time": 88160, "pitch": 60, "duration": 99, "velocity": 97}, {"time": 88319, "pitch": 48, "duration": 129, "velocity": 120}, {"time": 88319, "pitch": 55, "duration": 134, "velocity": 120}, {"time": 88637, "pitch": 48, "duration": 100, "velocity": 109}, {"time": 88637, "pitch": 55, "duration": 105, "velocity": 109}, {"time": 88797, "pitch": 48, "duration": 132, "velocity": 115}, {"time": 88797, "pitch": 57, "duration": 132, "velocity": 115}, {"time": 89285, "pitch": 48, "duration": 104, "velocity": 120}, {"time": 89285, "pitch": 55, "duration": 104, "velocity": 120}, {"time": 89763, "pitch": 48, "duration": 119, "velocity": 118}, {"time": 89763, "pitch": 57, "duration": 119, "velocity": 118}, {"time": 90240, "pitch": 53, "duration": 115, "velocity": 115}, {"time": 90240, "pitch": 60, "duration": 115, "velocity": 115}, {"time": 90559, "pitch": 53, "duration": 104, "velocity": 107}, {"time": 90559, "pitch": 60, "duration": 104, "velocity": 107}, {"time": 90718, "pitch": 53, "duration": 134, "velocity": 120}, {"time": 90718, "pitch": 62, "duration": 134, "velocity": 120}, {"time": 91195, "pitch": 53, "duration": 127, "velocity": 118}, {"time": 91195, "pitch": 60, "duration": 127, "velocity": 118}, {"time": 91684, "pitch": 53, "duration": 119, "velocity": 120}, {"time": 91684, "pitch": 62, "duration": 124, "velocity": 120}, {"time": 92002, "pitch": 53, "duration": 100, "velocity": 97}, {"time": 92002, "pitch": 60, "duration": 100, "velocity": 97}, {"time": 92161, "pitch": 48, "duration": 130, "velocity": 120}, {"time": 92161, "pitch": 55, "duration": 135, "velocity": 120}, {"time": 92480, "pitch": 48, "duration": 99, "velocity": 109}, {"time": 92480, "pitch": 55, "duration": 104, "velocity": 109}, {"time": 92639, "pitch": 48, "duration": 129, "velocity": 115}, {"time": 92639, "pitch": 57, "duration": 129, "velocity": 115}, {"time": 93116, "pitch": 48, "duration": 107, "velocity": 120}, {"time": 93116, "pitch": 55, "duration": 107, "velocity": 120}, {"time": 93605, "pitch": 48, "duration": 119, "velocity": 118}, {"time": 93605, "pitch": 57, "duration": 119, "velocity": 118}, {"time": 94082, "pitch": 53, "duration": 115, "velocity": 115}, {"time": 94082, "pitch": 60, "duration": 115, "velocity": 115}, {"time": 94401, "pitch": 53, "duration": 104, "velocity": 107}, {"time": 94401, "pitch": 60, "duration": 104, "velocity": 107}, {"time": 94560, "pitch": 53, "duration": 134, "velocity": 120}, {"time": 94560, "pitch": 62, "duration": 134, "velocity": 120}, {"time": 95038, "pitch": 53, "duration": 124, "velocity": 118}, {"time": 95038, "pitch": 60, "duration": 124, "velocity": 118}, {"time": 95515, "pitch": 53, "duration": 122, "velocity": 120}, {"time": 95515, "pitch": 62, "duration": 127, "velocity": 120}, {"time": 95841, "pitch": 53, "duration": 101, "velocity": 97}, {"time": 95841, "pitch": 60, "duration": 101, "velocity": 97}, {"time": 96003, "pitch": 48, "duration": 130, "velocity": 120}, {"time": 96003, "pitch": 55, "duration": 135, "velocity": 120}, {"time": 96322, "pitch": 48, "duration": 99, "velocity": 109}, {"time": 96322, "pitch": 55, "duration": 104, "velocity": 109}, {"time": 96481, "pitch": 48, "duration": 129, "velocity": 115}, {"time": 96481, "pitch": 57, "duration": 129, "velocity": 115}, {"time": 96959, "pitch": 48, "duration": 104, "velocity": 120}, {"time": 96959, "pitch": 55, "duration": 104, "velocity": 120}, {"time": 97436, "pitch": 48, "duration": 122, "velocity": 118}, {"time": 97436, "pitch": 57, "duration": 122, "velocity": 118}, {"time": 97925, "pitch": 50, "duration": 129, "velocity": 120}, {"time": 97925, "pitch": 57, "duration": 129, "velocity": 120}, {"time": 98243, "pitch": 50, "duration": 104, "velocity": 102}, {"time": 98243, "pitch": 57, "duration": 109, "velocity": 102}, {"time": 98402, "pitch": 50, "duration": 130, "velocity": 120}, {"time": 98402, "pitch": 59, "duration": 130, "velocity": 120}, {"time": 98880, "pitch": 50, "duration": 124, "velocity": 120}, {"time": 98880, "pitch": 57, "duration": 124, "velocity": 120}, {"time": 99357, "pitch": 50, "duration": 135, "velocity": 120}, {"time": 99357, "pitch": 59, "duration": 135, "velocity": 120}, {"time": 99835, "pitch": 55, "duration": 112, "velocity": 120}, {"time": 99835, "pitch": 62, "duration": 117, "velocity": 120}, {"time": 100161, "pitch": 55, "duration": 101, "velocity": 102}, {"time": 100161, "pitch": 62, "duration": 106, "velocity": 102}, {"time": 100323, "pitch": 55, "duration": 125, "velocity": 118}, {"time": 100323, "pitch": 62, "duration": 130, "velocity": 118}, {"time": 100801, "pitch": 55, "duration": 124, "velocity": 118}, {"time": 100801, "pitch": 62, "duration": 129, "velocity": 118}, {"time": 101279, "pitch": 55, "duration": 134, "velocity": 118}, {"time": 101279, "pitch": 62, "duration": 134, "velocity": 118}, {"time": 101756, "pitch": 51, "duration": 117, "velocity": 115}, {"time": 101756, "pitch": 58, "duration": 117, "velocity": 115}, {"time": 102082, "pitch": 51, "duration": 107, "velocity": 107}, {"time": 102082, "pitch": 58, "duration": 107, "velocity": 107}, {"time": 102244, "pitch": 51, "duration": 135, "velocity": 120}, {"time": 102244, "pitch": 60, "duration": 135, "velocity": 120}, {"time": 102722, "pitch": 51, "duration": 124, "velocity": 118}, {"time": 102722, "pitch": 58, "duration": 124, "velocity": 118}, {"time": 103200, "pitch": 51, "duration": 119, "velocity": 120}, {"time": 103200, "pitch": 60, "duration": 124, "velocity": 120}, {"time": 103518, "pitch": 51, "duration": 100, "velocity": 97}, {"time": 103518, "pitch": 58, "duration": 100, "velocity": 97}, {"time": 103677, "pitch": 46, "duration": 130, "velocity": 120}, {"time": 103677, "pitch": 53, "duration": 135, "velocity": 120}, {"time": 103996, "pitch": 46, "duration": 99, "velocity": 109}, {"time": 103996, "pitch": 53, "duration": 104, "velocity": 109}, {"time": 104155, "pitch": 46, "duration": 132, "velocity": 115}, {"time": 104155, "pitch": 55, "duration": 132, "velocity": 115}, {"time": 104643, "pitch": 46, "duration": 105, "velocity": 120}, {"time": 104643, "pitch": 53, "duration": 105, "velocity": 120}, {"time": 105121, "pitch": 46, "duration": 119, "velocity": 118}, {"time": 105121, "pitch": 55, "duration": 119, "velocity": 118}, {"time": 105598, "pitch": 51, "duration": 115, "velocity": 115}, {"time": 105598, "pitch": 58, "duration": 115, "velocity": 115}, {"time": 105917, "pitch": 51, "duration": 104, "velocity": 107}, {"time": 105917, "pitch": 58, "duration": 104, "velocity": 107}, {"time": 106076, "pitch": 51, "duration": 137, "velocity": 120}, {"time": 106076, "pitch": 60, "duration": 137, "velocity": 120}, {"time": 106564, "pitch": 51, "duration": 125, "velocity": 118}, {"time": 106564, "pitch": 58, "duration": 125, "velocity": 118}, {"time": 107042, "pitch": 51, "duration": 119, "velocity": 120}, {"time": 107042, "pitch": 60, "duration": 124, "velocity": 120}, {"time": 107360, "pitch": 51, "duration": 100, "velocity": 97}, {"time": 107360, "pitch": 58, "duration": 100, "velocity": 97}, {"time": 107519, "pitch": 65, "duration": 125, "velocity": 116}, {"time": 107679, "pitch": 63, "duration": 169, "velocity": 103}, {"time": 107838, "pitch": 62, "duration": 139, "velocity": 100}, {"time": 107997, "pitch": 61, "duration": 149, "velocity": 119}, {"time": 108156, "pitch": 60, "duration": 140, "velocity": 100}, {"time": 108315, "pitch": 58, "duration": 140, "velocity": 109}, {"time": 108475, "pitch": 56, "duration": 142, "velocity": 116}, {"time": 108637, "pitch": 55, "duration": 148, "velocity": 105}, {"time": 108800, "pitch": 53, "duration": 143, "velocity": 106}, {"time": 108963, "pitch": 51, "duration": 154, "velocity": 108}, {"time": 109122, "pitch": 50, "duration": 139, "velocity": 108}, {"time": 109281, "pitch": 49, "duration": 175, "velocity": 100}, {"time": 109441, "pitch": 51, "duration": 114, "velocity": 115}, {"time": 109441, "pitch": 58, "duration": 114, "velocity": 115}, {"time": 109759, "pitch": 51, "duration": 104, "velocity": 107}, {"time": 109759, "pitch": 58, "duration": 104, "velocity": 107}, {"time": 109918, "pitch": 51, "duration": 135, "velocity": 120}, {"time": 109918, "pitch": 60, "duration": 135, "velocity": 120}, {"time": 110396, "pitch": 51, "duration": 127, "velocity": 118}, {"time": 110396, "pitch": 58, "duration": 127, "velocity": 118}, {"time": 110884, "pitch": 51, "duration": 119, "velocity": 120}, {"time": 110884, "pitch": 60, "duration": 124, "velocity": 120}, {"time": 111202, "pitch": 51, "duration": 100, "velocity": 97}, {"time": 111202, "pitch": 58, "duration": 100, "velocity": 97}, {"time": 111362, "pitch": 46, "duration": 129, "velocity": 120}, {"time": 111362, "pitch": 53, "duration": 134, "velocity": 120}, {"time": 111680, "pitch": 46, "duration": 100, "velocity": 109}, {"time": 111680, "pitch": 53, "duration": 105, "velocity": 109}, {"time": 111839, "pitch": 46, "duration": 130, "velocity": 115}, {"time": 111839, "pitch": 55, "duration": 130, "velocity": 115}, {"time": 112317, "pitch": 46, "duration": 107, "velocity": 120}, {"time": 112317, "pitch": 53, "duration": 107, "velocity": 120}, {"time": 112805, "pitch": 46, "duration": 120, "velocity": 118}, {"time": 112805, "pitch": 55, "duration": 120, "velocity": 118}, {"time": 113283, "pitch": 48, "duration": 129, "velocity": 120}, {"time": 113283, "pitch": 55, "duration": 129, "velocity": 120}, {"time": 113601, "pitch": 48, "duration": 105, "velocity": 102}, {"time": 113601, "pitch": 55, "duration": 110, "velocity": 102}, {"time": 113760, "pitch": 48, "duration": 130, "velocity": 120}, {"time": 113760, "pitch": 57, "duration": 130, "velocity": 120}, {"time": 114238, "pitch": 48, "duration": 124, "velocity": 120}, {"time": 114238, "pitch": 55, "duration": 124, "velocity": 120}, {"time": 114716, "pitch": 48, "duration": 137, "velocity": 120}, {"time": 114716, "pitch": 57, "duration": 137, "velocity": 120}, {"time": 115204, "pitch": 53, "duration": 109, "velocity": 120}, {"time": 115204, "pitch": 60, "duration": 114, "velocity": 120}, {"time": 115522, "pitch": 53, "duration": 100, "velocity": 102}, {"time": 115522, "pitch": 60, "duration": 105, "velocity": 102}, {"time": 115682, "pitch": 53, "duration": 124, "velocity": 118}, {"time": 115682, "pitch": 60, "duration": 129, "velocity": 118}, {"time": 116159, "pitch": 53, "duration": 125, "velocity": 118}, {"time": 116159, "pitch": 60, "duration": 130, "velocity": 118}, {"time": 117125, "pitch": 46, "duration": 129, "velocity": 120}, {"time": 117125, "pitch": 53, "duration": 134, "velocity": 120}, {"time": 117443, "pitch": 46, "duration": 100, "velocity": 109}, {"time": 117443, "pitch": 53, "duration": 105, "velocity": 109}, {"time": 117603, "pitch": 46, "duration": 129, "velocity": 115}, {"time": 117603, "pitch": 55, "duration": 129, "velocity": 115}, {"time": 118080, "pitch": 46, "duration": 105, "velocity": 120}, {"time": 118080, "pitch": 53, "duration": 105, "velocity": 120}, {"time": 118558, "pitch": 46, "duration": 119, "velocity": 118}, {"time": 118558, "pitch": 55, "duration": 119, "velocity": 118}, {"time": 119035, "pitch": 46, "duration": 133, "velocity": 120}, {"time": 119035, "pitch": 53, "duration": 138, "velocity": 120}, {"time": 119361, "pitch": 46, "duration": 102, "velocity": 109}, {"time": 119361, "pitch": 53, "duration": 107, "velocity": 109}, {"time": 119524, "pitch": 46, "duration": 129, "velocity": 115}, {"time": 119524, "pitch": 55, "duration": 129, "velocity": 115}, {"time": 120001, "pitch": 46, "duration": 105, "velocity": 120}, {"time": 120001, "pitch": 53, "duration": 105, "velocity": 120}, {"time": 120479, "pitch": 46, "duration": 119, "velocity": 118}, {"time": 120479, "pitch": 55, "duration": 119, "velocity": 118}, {"time": 120957, "pitch": 51, "duration": 117, "velocity": 115}, {"time": 120957, "pitch": 58, "duration": 117, "velocity": 115}, {"time": 121282, "pitch": 51, "duration": 107, "velocity": 107}, {"time": 121282, "pitch": 58, "duration": 107, "velocity": 107}, {"time": 121445, "pitch": 51, "duration": 134, "velocity": 120}, {"time": 121445, "pitch": 60, "duration": 134, "velocity": 120}, {"time": 121922, "pitch": 51, "duration": 125, "velocity": 118}, {"time": 121922, "pitch": 58, "duration": 125, "velocity": 118}, {"time": 122400, "pitch": 51, "duration": 120, "velocity": 120}, {"time": 122400, "pitch": 60, "duration": 124, "velocity": 120}, {"time": 122719, "pitch": 51, "duration": 99, "velocity": 97}, {"time": 122719, "pitch": 58, "duration": 99, "velocity": 97}, {"time": 122878, "pitch": 48, "duration": 129, "velocity": 120}, {"time": 122878, "pitch": 55, "duration": 129, "velocity": 120}, {"time": 123196, "pitch": 48, "duration": 110, "velocity": 94}, {"time": 123196, "pitch": 55, "duration": 105, "velocity": 94}, {"time": 123355, "pitch": 48, "duration": 117, "velocity": 120}, {"time": 123355, "pitch": 55, "duration": 117, "velocity": 120}, {"time": 123844, "pitch": 53, "duration": 129, "velocity": 120}, {"time": 123844, "pitch": 60, "duration": 129, "velocity": 120}, {"time": 124321, "pitch": 53, "duration": 125, "velocity": 115}, {"time": 124321, "pitch": 60, "duration": 125, "velocity": 115}, {"time": 124799, "pitch": 46, "duration": 129, "velocity": 120}, {"time": 124799, "pitch": 53, "duration": 134, "velocity": 120}, {"time": 125117, "pitch": 46, "duration": 100, "velocity": 109}, {"time": 125117, "pitch": 53, "duration": 105, "velocity": 109}, {"time": 125276, "pitch": 46, "duration": 133, "velocity": 115}, {"time": 125276, "pitch": 55, "duration": 133, "velocity": 115}, {"time": 125765, "pitch": 46, "duration": 104, "velocity": 120}, {"time": 125765, "pitch": 53, "duration": 104, "velocity": 120}, {"time": 126242, "pitch": 46, "duration": 120, "velocity": 118}, {"time": 126242, "pitch": 55, "duration": 120, "velocity": 118}, {"time": 126720, "pitch": 46, "duration": 129, "velocity": 120}, {"time": 126720, "pitch": 53, "duration": 134, "velocity": 120}, {"time": 127038, "pitch": 46, "duration": 100, "velocity": 109}, {"time": 127038, "pitch": 53, "duration": 105, "velocity": 109}, {"time": 127198, "pitch": 46, "duration": 129, "velocity": 115}, {"time": 127198, "pitch": 55, "duration": 129, "velocity": 115}, {"time": 127675, "pitch": 46, "duration": 107, "velocity": 120}, {"time": 127675, "pitch": 53, "duration": 107, "velocity": 120}, {"time": 128163, "pitch": 46, "duration": 120, "velocity": 118}, {"time": 128163, "pitch": 55, "duration": 120, "velocity": 118}, {"time": 128641, "pitch": 51, "duration": 114, "velocity": 115}, {"time": 128641, "pitch": 58, "duration": 114, "velocity": 115}, {"time": 128959, "pitch": 51, "duration": 105, "velocity": 107}, {"time": 128959, "pitch": 58, "duration": 105, "velocity": 107}, {"time": 129119, "pitch": 51, "duration": 134, "velocity": 120}, {"time": 129119, "pitch": 58, "duration": 134, "velocity": 120}, {"time": 129596, "pitch": 52, "duration": 127, "velocity": 118}, {"time": 129596, "pitch": 58, "duration": 127, "velocity": 118}, {"time": 130085, "pitch": 52, "duration": 119, "velocity": 120}, {"time": 130085, "pitch": 58, "duration": 124, "velocity": 120}, {"time": 130403, "pitch": 52, "duration": 99, "velocity": 97}, {"time": 130403, "pitch": 58, "duration": 99, "velocity": 97}, {"time": 130562, "pitch": 53, "duration": 125, "velocity": 116}, {"time": 130562, "pitch": 60, "duration": 125, "velocity": 116}, {"time": 130881, "pitch": 53, "duration": 109, "velocity": 104}, {"time": 130881, "pitch": 60, "duration": 109, "velocity": 104}, {"time": 131040, "pitch": 53, "duration": 134, "velocity": 115}, {"time": 131040, "pitch": 60, "duration": 139, "velocity": 115}, {"time": 131517, "pitch": 53, "duration": 130, "velocity": 120}, {"time": 131517, "pitch": 60, "duration": 130, "velocity": 120}, {"time": 131995, "pitch": 53, "duration": 127, "velocity": 115}, {"time": 131995, "pitch": 60, "duration": 127, "velocity": 115}, {"time": 132483, "pitch": 48, "duration": 130, "velocity": 120}, {"time": 132483, "pitch": 55, "duration": 130, "velocity": 120}, {"time": 132802, "pitch": 48, "duration": 109, "velocity": 94}, {"time": 132802, "pitch": 55, "duration": 104, "velocity": 94}, {"time": 132961, "pitch": 48, "duration": 114, "velocity": 120}, {"time": 132961, "pitch": 55, "duration": 114, "velocity": 120}, {"time": 133439, "pitch": 48, "duration": 134, "velocity": 120}, {"time": 133439, "pitch": 55, "duration": 134, "velocity": 120}, {"time": 133916, "pitch": 48, "duration": 132, "velocity": 120}, {"time": 133916, "pitch": 55, "duration": 137, "velocity": 120}, {"time": 134404, "pitch": 53, "duration": 125, "velocity": 116}, {"time": 134404, "pitch": 60, "duration": 125, "velocity": 116}, {"time": 134723, "pitch": 53, "duration": 109, "velocity": 104}, {"time": 134723, "pitch": 60, "duration": 109, "velocity": 104}, {"time": 134882, "pitch": 53, "duration": 134, "velocity": 115}, {"time": 134882, "pitch": 60, "duration": 139, "velocity": 115}, {"time": 135360, "pitch": 46, "duration": 104, "velocity": 120}, {"time": 135360, "pitch": 53, "duration": 104, "velocity": 120}, {"time": 135837, "pitch": 46, "duration": 120, "velocity": 118}, {"time": 135837, "pitch": 53, "duration": 120, "velocity": 118}, {"time": 136315, "pitch": 51, "duration": 132, "velocity": 120}, {"time": 136315, "pitch": 58, "duration": 132, "velocity": 120}, {"time": 136640, "pitch": 51, "duration": 112, "velocity": 94}, {"time": 136640, "pitch": 58, "duration": 107, "velocity": 94}, {"time": 136803, "pitch": 51, "duration": 115, "velocity": 120}, {"time": 136803, "pitch": 58, "duration": 115, "velocity": 120}, {"time": 137281, "pitch": 51, "duration": 134, "velocity": 120}, {"time": 137281, "pitch": 58, "duration": 134, "velocity": 120}, {"time": 137758, "pitch": 51, "duration": 130, "velocity": 120}, {"time": 137758, "pitch": 58, "duration": 135, "velocity": 120}, {"time": 138236, "pitch": 48, "duration": 132, "velocity": 120}, {"time": 138236, "pitch": 55, "duration": 132, "velocity": 120}, {"time": 138562, "pitch": 48, "duration": 111, "velocity": 94}, {"time": 138562, "pitch": 55, "duration": 106, "velocity": 94}, {"time": 138724, "pitch": 48, "duration": 115, "velocity": 120}, {"time": 138724, "pitch": 55, "duration": 115, "velocity": 120}, {"time": 139202, "pitch": 53, "duration": 129, "velocity": 120}, {"time": 139202, "pitch": 60, "duration": 129, "velocity": 120}, {"time": 139679, "pitch": 53, "duration": 125, "velocity": 115}, {"time": 139679, "pitch": 60, "duration": 125, "velocity": 115}, {"time": 140157, "pitch": 46, "duration": 110, "velocity": 120}, {"time": 140157, "pitch": 53, "duration": 115, "velocity": 120}, {"time": 142397, "pitch": 53, "duration": 114, "velocity": 120}, {"time": 142397, "pitch": 60, "duration": 114, "velocity": 120}, {"time": 142556, "pitch": 53, "duration": 137, "velocity": 120}, {"time": 142556, "pitch": 60, "duration": 137, "velocity": 120}, {"time": 142881, "pitch": 46, "duration": 102, "velocity": 120}, {"time": 142881, "pitch": 53, "duration": 107, "velocity": 120}, {"time": 143999, "pitch": 51, "duration": 115, "velocity": 115}, {"time": 143999, "pitch": 58, "duration": 115, "velocity": 115}, {"time": 144318, "pitch": 51, "duration": 104, "velocity": 107}, {"time": 144318, "pitch": 58, "duration": 104, "velocity": 107}, {"time": 144477, "pitch": 51, "duration": 137, "velocity": 120}, {"time": 144477, "pitch": 60, "duration": 137, "velocity": 120}, {"time": 144965, "pitch": 51, "duration": 125, "velocity": 118}, {"time": 144965, "pitch": 58, "duration": 125, "velocity": 118}, {"time": 145443, "pitch": 51, "duration": 119, "velocity": 120}, {"time": 145443, "pitch": 60, "duration": 124, "velocity": 120}, {"time": 145761, "pitch": 51, "duration": 100, "velocity": 97}, {"time": 145761, "pitch": 58, "duration": 100, "velocity": 97}, {"time": 145920, "pitch": 46, "duration": 130, "velocity": 120}, {"time": 145920, "pitch": 53, "duration": 135, "velocity": 120}, {"time": 146239, "pitch": 46, "duration": 99, "velocity": 109}, {"time": 146239, "pitch": 53, "duration": 104, "velocity": 109}, {"time": 146398, "pitch": 46, "duration": 129, "velocity": 115}, {"time": 146398, "pitch": 55, "duration": 129, "velocity": 115}, {"time": 146876, "pitch": 46, "duration": 106, "velocity": 120}, {"time": 146876, "pitch": 53, "duration": 106, "velocity": 120}, {"time": 147364, "pitch": 46, "duration": 119, "velocity": 118}, {"time": 147364, "pitch": 55, "duration": 119, "velocity": 118}, {"time": 147842, "pitch": 51, "duration": 114, "velocity": 115}, {"time": 147842, "pitch": 58, "duration": 114, "velocity": 115}, {"time": 148160, "pitch": 51, "duration": 104, "velocity": 107}, {"time": 148160, "pitch": 58, "duration": 104, "velocity": 107}, {"time": 148319, "pitch": 51, "duration": 134, "velocity": 120}, {"time": 148319, "pitch": 60, "duration": 134, "velocity": 120}, {"time": 148797, "pitch": 51, "duration": 127, "velocity": 118}, {"time": 148797, "pitch": 58, "duration": 127, "velocity": 118}, {"time": 149285, "pitch": 51, "duration": 119, "velocity": 120}, {"time": 149285, "pitch": 60, "duration": 124, "velocity": 120}, {"time": 149603, "pitch": 51, "duration": 100, "velocity": 97}, {"time": 149603, "pitch": 58, "duration": 100, "velocity": 97}, {"time": 149763, "pitch": 46, "duration": 129, "velocity": 120}, {"time": 149763, "pitch": 53, "duration": 134, "velocity": 120}, {"time": 150081, "pitch": 46, "duration": 100, "velocity": 109}, {"time": 150081, "pitch": 53, "duration": 105, "velocity": 109}, {"time": 150240, "pitch": 46, "duration": 130, "velocity": 115}, {"time": 150240, "pitch": 55, "duration": 130, "velocity": 115}, {"time": 150718, "pitch": 46, "duration": 104, "velocity": 120}, {"time": 150718, "pitch": 53, "duration": 104, "velocity": 120}, {"time": 151195, "pitch": 46, "duration": 122, "velocity": 118}, {"time": 151195, "pitch": 55, "duration": 122, "velocity": 118}, {"time": 151684, "pitch": 51, "duration": 114, "velocity": 115}, {"time": 151684, "pitch": 58, "duration": 114, "velocity": 115}, {"time": 152002, "pitch": 51, "duration": 105, "velocity": 107}, {"time": 152002, "pitch": 58, "duration": 105, "velocity": 107}, {"time": 152161, "pitch": 51, "duration": 135, "velocity": 120}, {"time": 152161, "pitch": 60, "duration": 135, "velocity": 120}, {"time": 152639, "pitch": 51, "duration": 124, "velocity": 118}, {"time": 152639, "pitch": 58, "duration": 124, "velocity": 118}, {"time": 153117, "pitch": 51, "duration": 122, "velocity": 120}, {"time": 153117, "pitch": 60, "duration": 127, "velocity": 120}, {"time": 153442, "pitch": 51, "duration": 102, "velocity": 97}, {"time": 153442, "pitch": 58, "duration": 102, "velocity": 97}, {"time": 153605, "pitch": 46, "duration": 129, "velocity": 120}, {"time": 153605, "pitch": 53, "duration": 134, "velocity": 120}, {"time": 153923, "pitch": 46, "duration": 100, "velocity": 109}, {"time": 153923, "pitch": 53, "duration": 105, "velocity": 109}, {"time": 154082, "pitch": 46, "duration": 130, "velocity": 115}, {"time": 154082, "pitch": 55, "duration": 130, "velocity": 115}, {"time": 154560, "pitch": 46, "duration": 105, "velocity": 120}, {"time": 154560, "pitch": 53, "duration": 105, "velocity": 120}, {"time": 155038, "pitch": 46, "duration": 119, "velocity": 118}, {"time": 155038, "pitch": 55, "duration": 119, "velocity": 118}, {"time": 155515, "pitch": 48, "duration": 133, "velocity": 120}, {"time": 155515, "pitch": 55, "duration": 133, "velocity": 120}, {"time": 155841, "pitch": 48, "duration": 107, "velocity": 102}, {"time": 155841, "pitch": 55, "duration": 112, "velocity": 102}, {"time": 156004, "pitch": 48, "duration": 129, "velocity": 120}, {"time": 156004, "pitch": 57, "duration": 129, "velocity": 120}, {"time": 156481, "pitch": 48, "duration": 125, "velocity": 120}, {"time": 156481, "pitch": 55, "duration": 125, "velocity": 120}, {"time": 156959, "pitch": 48, "duration": 134, "velocity": 120}, {"time": 156959, "pitch": 57, "duration": 134, "velocity": 120}, {"time": 157436, "pitch": 53, "duration": 112, "velocity": 120}, {"time": 157436, "pitch": 60, "duration": 117, "velocity": 120}, {"time": 157762, "pitch": 53, "duration": 102, "velocity": 102}, {"time": 157762, "pitch": 60, "duration": 107, "velocity": 102}, {"time": 157925, "pitch": 53, "duration": 124, "velocity": 118}, {"time": 157925, "pitch": 60, "duration": 129, "velocity": 118}, {"time": 158402, "pitch": 53, "duration": 125, "velocity": 118}, {"time": 158402, "pitch": 60, "duration": 130, "velocity": 118}, {"time": 158880, "pitch": 53, "duration": 134, "velocity": 118}, {"time": 158880, "pitch": 60, "duration": 134, "velocity": 118}, {"time": 159358, "pitch": 46, "duration": 129, "velocity": 120}, {"time": 159358, "pitch": 53, "duration": 134, "velocity": 120}, {"time": 159676, "pitch": 46, "duration": 99, "velocity": 109}, {"time": 159676, "pitch": 53, "duration": 104, "velocity": 109}, {"time": 159835, "pitch": 46, "duration": 132, "velocity": 115}, {"time": 159835, "pitch": 55, "duration": 132, "velocity": 115}, {"time": 160323, "pitch": 46, "duration": 105, "velocity": 120}, {"time": 160323, "pitch": 53, "duration": 105, "velocity": 120}, {"time": 160801, "pitch": 46, "duration": 119, "velocity": 118}, {"time": 160801, "pitch": 55, "duration": 119, "velocity": 118}, {"time": 161279, "pitch": 46, "duration": 129, "velocity": 120}, {"time": 161279, "pitch": 53, "duration": 134, "velocity": 120}, {"time": 161597, "pitch": 46, "duration": 100, "velocity": 109}, {"time": 161597, "pitch": 53, "duration": 105, "velocity": 109}, {"time": 161756, "pitch": 46, "duration": 132, "velocity": 115}, {"time": 161756, "pitch": 55, "duration": 132, "velocity": 115}, {"time": 162245, "pitch": 46, "duration": 104, "velocity": 120}, {"time": 162245, "pitch": 53, "duration": 104, "velocity": 120}, {"time": 162722, "pitch": 46, "duration": 120, "velocity": 118}, {"time": 162722, "pitch": 55, "duration": 120, "velocity": 118}, {"time": 163200, "pitch": 51, "duration": 114, "velocity": 115}, {"time": 163200, "pitch": 58, "duration": 114, "velocity": 115}, {"time": 163518, "pitch": 51, "duration": 105, "velocity": 107}, {"time": 163518, "pitch": 58, "duration": 105, "velocity": 107}, {"time": 163677, "pitch": 51, "duration": 135, "velocity": 120}, {"time": 163677, "pitch": 60, "duration": 135, "velocity": 120}, {"time": 164155, "pitch": 51, "duration": 127, "velocity": 118}, {"time": 164155, "pitch": 58, "duration": 127, "velocity": 118}, {"time": 164643, "pitch": 51, "duration": 120, "velocity": 120}, {"time": 164643, "pitch": 60, "duration": 125, "velocity": 120}, {"time": 164962, "pitch": 51, "duration": 99, "velocity": 97}, {"time": 164962, "pitch": 58, "duration": 99, "velocity": 97}, {"time": 165121, "pitch": 48, "duration": 129, "velocity": 120}, {"time": 165121, "pitch": 55, "duration": 129, "velocity": 120}, {"time": 165439, "pitch": 48, "duration": 110, "velocity": 94}, {"time": 165439, "pitch": 55, "duration": 105, "velocity": 94}, {"time": 165598, "pitch": 48, "duration": 115, "velocity": 120}, {"time": 165598, "pitch": 55, "duration": 115, "velocity": 120}, {"time": 166076, "pitch": 53, "duration": 132, "velocity": 120}, {"time": 166076, "pitch": 60, "duration": 132, "velocity": 120}, {"time": 166564, "pitch": 53, "duration": 125, "velocity": 115}, {"time": 166564, "pitch": 60, "duration": 125, "velocity": 115}, {"time": 167042, "pitch": 46, "duration": 129, "velocity": 120}, {"time": 167042, "pitch": 53, "duration": 134, "velocity": 120}, {"time": 167360, "pitch": 46, "duration": 100, "velocity": 109}, {"time": 167360, "pitch": 53, "duration": 105, "velocity": 109}, {"time": 167520, "pitch": 46, "duration": 129, "velocity": 115}, {"time": 167520, "pitch": 55, "duration": 129, "velocity": 115}, {"time": 167997, "pitch": 46, "duration": 105, "velocity": 120}, {"time": 167997, "pitch": 53, "duration": 105, "velocity": 120}, {"time": 168475, "pitch": 46, "duration": 122, "velocity": 118}, {"time": 168475, "pitch": 55, "duration": 122, "velocity": 118}, {"time": 168963, "pitch": 46, "duration": 129, "velocity": 120}, {"time": 168963, "pitch": 53, "duration": 134, "velocity": 120}, {"time": 169282, "pitch": 46, "duration": 99, "velocity": 109}, {"time": 169282, "pitch": 53, "duration": 104, "velocity": 109}, {"time": 169441, "pitch": 46, "duration": 129, "velocity": 115}, {"time": 169441, "pitch": 55, "duration": 129, "velocity": 115}, {"time": 169918, "pitch": 46, "duration": 105, "velocity": 120}, {"time": 169918, "pitch": 53, "duration": 105, "velocity": 120}, {"time": 170396, "pitch": 46, "duration": 122, "velocity": 118}, {"time": 170396, "pitch": 55, "duration": 122, "velocity": 118}, {"time": 170884, "pitch": 51, "duration": 115, "velocity": 115}, {"time": 170884, "pitch": 58, "duration": 115, "velocity": 115}, {"time": 171203, "pitch": 51, "duration": 104, "velocity": 107}, {"time": 171203, "pitch": 58, "duration": 104, "velocity": 107}, {"time": 171362, "pitch": 51, "duration": 134, "velocity": 120}, {"time": 171362, "pitch": 58, "duration": 134, "velocity": 120}, {"time": 171839, "pitch": 52, "duration": 125, "velocity": 118}, {"time": 171839, "pitch": 58, "duration": 125, "velocity": 118}, {"time": 172317, "pitch": 52, "duration": 119, "velocity": 120}, {"time": 172317, "pitch": 58, "duration": 124, "velocity": 120}, {"time": 172635, "pitch": 52, "duration": 100, "velocity": 97}, {"time": 172635, "pitch": 58, "duration": 100, "velocity": 97}, {"time": 172795, "pitch": 53, "duration": 127, "velocity": 116}, {"time": 172795, "pitch": 60, "duration": 127, "velocity": 116}, {"time": 173120, "pitch": 53, "duration": 112, "velocity": 104}, {"time": 173120, "pitch": 60, "duration": 112, "velocity": 104}, {"time": 173283, "pitch": 53, "duration": 134, "velocity": 115}, {"time": 173283, "pitch": 60, "duration": 139, "velocity": 115}, {"time": 173761, "pitch": 53, "duration": 129, "velocity": 120}, {"time": 173761, "pitch": 60, "duration": 129, "velocity": 120}, {"time": 174238, "pitch": 53, "duration": 125, "velocity": 115}, {"time": 174238, "pitch": 60, "duration": 125, "velocity": 115}, {"time": 174716, "pitch": 48, "duration": 132, "velocity": 120}, {"time": 174716, "pitch": 55, "duration": 132, "velocity": 120}, {"time": 175041, "pitch": 48, "duration": 112, "velocity": 94}, {"time": 175041, "pitch": 55, "duration": 107, "velocity": 94}, {"time": 175204, "pitch": 48, "duration": 114, "velocity": 120}, {"time": 175204, "pitch": 55, "duration": 114, "velocity": 120}, {"time": 175682, "pitch": 48, "duration": 134, "velocity": 120}, {"time": 175682, "pitch": 55, "duration": 134, "velocity": 120}, {"time": 176159, "pitch": 48, "duration": 130, "velocity": 120}, {"time": 176159, "pitch": 55, "duration": 135, "velocity": 120}, {"time": 176637, "pitch": 53, "duration": 127, "velocity": 116}, {"time": 176637, "pitch": 60, "duration": 127, "velocity": 116}, {"time": 176962, "pitch": 53, "duration": 112, "velocity": 104}, {"time": 176962, "pitch": 60, "duration": 112, "velocity": 104}, {"time": 177125, "pitch": 53, "duration": 135, "velocity": 115}, {"time": 177125, "pitch": 60, "duration": 139, "velocity": 115}, {"time": 177603, "pitch": 46, "duration": 104, "velocity": 120}, {"time": 177603, "pitch": 53, "duration": 104, "velocity": 120}, {"time": 178080, "pitch": 46, "duration": 120, "velocity": 118}, {"time": 178080, "pitch": 53, "duration": 120, "velocity": 118}, {"time": 178558, "pitch": 51, "duration": 129, "velocity": 120}, {"time": 178558, "pitch": 58, "duration": 129, "velocity": 120}, {"time": 178876, "pitch": 51, "duration": 110, "velocity": 94}, {"time": 178876, "pitch": 58, "duration": 105, "velocity": 94}, {"time": 179036, "pitch": 51, "duration": 117, "velocity": 120}, {"time": 179036, "pitch": 58, "duration": 117, "velocity": 120}, {"time": 179524, "pitch": 51, "duration": 134, "velocity": 120}, {"time": 179524, "pitch": 58, "duration": 134, "velocity": 120}, {"time": 180002, "pitch": 51, "duration": 129, "velocity": 120}, {"time": 180002, "pitch": 58, "duration": 134, "velocity": 120}, {"time": 180479, "pitch": 48, "duration": 129, "velocity": 120}, {"time": 180479, "pitch": 55, "duration": 129, "velocity": 120}, {"time": 180798, "pitch": 48, "duration": 109, "velocity": 94}, {"time": 180798, "pitch": 55, "duration": 104, "velocity": 94}, {"time": 180957, "pitch": 48, "duration": 117, "velocity": 120}, {"time": 180957, "pitch": 55, "duration": 117, "velocity": 120}, {"time": 181445, "pitch": 53, "duration": 129, "velocity": 120}, {"time": 181445, "pitch": 60, "duration": 129, "velocity": 120}, {"time": 181923, "pitch": 53, "duration": 124, "velocity": 115}, {"time": 181923, "pitch": 60, "duration": 124, "velocity": 115}, {"time": 182400, "pitch": 46, "duration": 110, "velocity": 120}, {"time": 182400, "pitch": 53, "duration": 115, "velocity": 120}, {"time": 184640, "pitch": 53, "duration": 114, "velocity": 120}, {"time": 184640, "pitch": 60, "duration": 114, "velocity": 120}, {"time": 184799, "pitch": 53, "duration": 134, "velocity": 120}, {"time": 184799, "pitch": 60, "duration": 134, "velocity": 120}, {"time": 185117, "pitch": 46, "duration": 100, "velocity": 120}, {"time": 185117, "pitch": 53, "duration": 105, "velocity": 120}, {"time": 186242, "pitch": 53, "duration": 115, "velocity": 115}, {"time": 186242, "pitch": 60, "duration": 115, "velocity": 115}, {"time": 186561, "pitch": 53, "duration": 104, "velocity": 107}, {"time": 186561, "pitch": 60, "duration": 104, "velocity": 107}, {"time": 186720, "pitch": 53, "duration": 134, "velocity": 120}, {"time": 186720, "pitch": 62, "duration": 134, "velocity": 120}, {"time": 187198, "pitch": 53, "duration": 124, "velocity": 118}, {"time": 187198, "pitch": 60, "duration": 124, "velocity": 118}, {"time": 187675, "pitch": 53, "duration": 122, "velocity": 120}, {"time": 187675, "pitch": 62, "duration": 127, "velocity": 120}, {"time": 188001, "pitch": 53, "duration": 102, "velocity": 97}, {"time": 188001, "pitch": 60, "duration": 102, "velocity": 97}, {"time": 188164, "pitch": 48, "duration": 129, "velocity": 120}, {"time": 188164, "pitch": 55, "duration": 134, "velocity": 120}, {"time": 188482, "pitch": 48, "duration": 99, "velocity": 109}, {"time": 188482, "pitch": 55, "duration": 104, "velocity": 109}, {"time": 188641, "pitch": 48, "duration": 130, "velocity": 115}, {"time": 188641, "pitch": 57, "duration": 130, "velocity": 115}, {"time": 189119, "pitch": 48, "duration": 104, "velocity": 120}, {"time": 189119, "pitch": 55, "duration": 104, "velocity": 120}, {"time": 189596, "pitch": 48, "duration": 122, "velocity": 118}, {"time": 189596, "pitch": 57, "duration": 122, "velocity": 118}, {"time": 190085, "pitch": 53, "duration": 114, "velocity": 115}, {"time": 190085, "pitch": 60, "duration": 114, "velocity": 115}, {"time": 190403, "pitch": 53, "duration": 105, "velocity": 107}, {"time": 190403, "pitch": 60, "duration": 105, "velocity": 107}, {"time": 190562, "pitch": 53, "duration": 135, "velocity": 120}, {"time": 190562, "pitch": 62, "duration": 135, "velocity": 120}, {"time": 191040, "pitch": 53, "duration": 124, "velocity": 118}, {"time": 191040, "pitch": 60, "duration": 124, "velocity": 118}, {"time": 191518, "pitch": 53, "duration": 119, "velocity": 120}, {"time": 191518, "pitch": 62, "duration": 124, "velocity": 120}, {"time": 191836, "pitch": 53, "duration": 99, "velocity": 97}, {"time": 191836, "pitch": 60, "duration": 99, "velocity": 97}, {"time": 191995, "pitch": 67, "duration": 127, "velocity": 116}, {"time": 192158, "pitch": 65, "duration": 173, "velocity": 103}, {"time": 192321, "pitch": 64, "duration": 142, "velocity": 100}, {"time": 192483, "pitch": 63, "duration": 150, "velocity": 119}, {"time": 192643, "pitch": 62, "duration": 139, "velocity": 100}, {"time": 192802, "pitch": 60, "duration": 139, "velocity": 109}, {"time": 192961, "pitch": 58, "duration": 139, "velocity": 116}, {"time": 193120, "pitch": 57, "duration": 145, "velocity": 105}, {"time": 193279, "pitch": 55, "duration": 140, "velocity": 106}, {"time": 193439, "pitch": 53, "duration": 154, "velocity": 108}, {"time": 193598, "pitch": 52, "duration": 139, "velocity": 108}, {"time": 193757, "pitch": 51, "duration": 174, "velocity": 100}, {"time": 193916, "pitch": 53, "duration": 117, "velocity": 115}, {"time": 193916, "pitch": 60, "duration": 117, "velocity": 115}, {"time": 194242, "pitch": 53, "duration": 107, "velocity": 107}, {"time": 194242, "pitch": 60, "duration": 107, "velocity": 107}, {"time": 194405, "pitch": 53, "duration": 134, "velocity": 120}, {"time": 194405, "pitch": 62, "duration": 134, "velocity": 120}, {"time": 194882, "pitch": 53, "duration": 125, "velocity": 118}, {"time": 194882, "pitch": 60, "duration": 125, "velocity": 118}, {"time": 195360, "pitch": 53, "duration": 119, "velocity": 120}, {"time": 195360, "pitch": 62, "duration": 124, "velocity": 120}, {"time": 195678, "pitch": 53, "duration": 100, "velocity": 97}, {"time": 195678, "pitch": 60, "duration": 100, "velocity": 97}, {"time": 195837, "pitch": 48, "duration": 130, "velocity": 120}, {"time": 195837, "pitch": 55, "duration": 135, "velocity": 120}, {"time": 196156, "pitch": 48, "duration": 99, "velocity": 109}, {"time": 196156, "pitch": 55, "duration": 104, "velocity": 109}, {"time": 196315, "pitch": 48, "duration": 132, "velocity": 115}, {"time": 196315, "pitch": 57, "duration": 132, "velocity": 115}, {"time": 196803, "pitch": 48, "duration": 105, "velocity": 120}, {"time": 196803, "pitch": 55, "duration": 105, "velocity": 120}, {"time": 197281, "pitch": 48, "duration": 119, "velocity": 118}, {"time": 197281, "pitch": 57, "duration": 119, "velocity": 118}, {"time": 197758, "pitch": 50, "duration": 130, "velocity": 120}, {"time": 197758, "pitch": 57, "duration": 130, "velocity": 120}, {"time": 198077, "pitch": 50, "duration": 104, "velocity": 102}, {"time": 198077, "pitch": 57, "duration": 109, "velocity": 102}, {"time": 198236, "pitch": 50, "duration": 132, "velocity": 120}, {"time": 198236, "pitch": 59, "duration": 132, "velocity": 120}, {"time": 198724, "pitch": 50, "duration": 125, "velocity": 120}, {"time": 198724, "pitch": 57, "duration": 125, "velocity": 120}, {"time": 199202, "pitch": 50, "duration": 134, "velocity": 120}, {"time": 199202, "pitch": 59, "duration": 134, "velocity": 120}, {"time": 199680, "pitch": 55, "duration": 109, "velocity": 120}, {"time": 199680, "pitch": 62, "duration": 114, "velocity": 120}, {"time": 199998, "pitch": 55, "duration": 100, "velocity": 102}, {"time": 199998, "pitch": 62, "duration": 104, "velocity": 102}, {"time": 200157, "pitch": 55, "duration": 125, "velocity": 118}, {"time": 200157, "pitch": 62, "duration": 130, "velocity": 118}, {"time": 200635, "pitch": 55, "duration": 127, "velocity": 118}, {"time": 200635, "pitch": 62, "duration": 132, "velocity": 118}, {"time": 201601, "pitch": 48, "duration": 129, "velocity": 120}, {"time": 201601, "pitch": 55, "duration": 134, "velocity": 120}, {"time": 201919, "pitch": 48, "duration": 100, "velocity": 109}, {"time": 201919, "pitch": 55, "duration": 105, "velocity": 109}, {"time": 202078, "pitch": 48, "duration": 130, "velocity": 115}, {"time": 202078, "pitch": 57, "duration": 130, "velocity": 115}, {"time": 202556, "pitch": 48, "duration": 107, "velocity": 120}, {"time": 202556, "pitch": 55, "duration": 107, "velocity": 120}, {"time": 203044, "pitch": 48, "duration": 120, "velocity": 118}, {"time": 203044, "pitch": 57, "duration": 120, "velocity": 118}, {"time": 203522, "pitch": 48, "duration": 129, "velocity": 120}, {"time": 203522, "pitch": 55, "duration": 134, "velocity": 120}, {"time": 203840, "pitch": 48, "duration": 100, "velocity": 109}, {"time": 203840, "pitch": 55, "duration": 105, "velocity": 109}, {"time": 203999, "pitch": 48, "duration": 130, "velocity": 115}, {"time": 203999, "pitch": 57, "duration": 130, "velocity": 115}, {"time": 204477, "pitch": 48, "duration": 107, "velocity": 120}, {"time": 204477, "pitch": 55, "duration": 107, "velocity": 120}, {"time": 204965, "pitch": 48, "duration": 120, "velocity": 118}, {"time": 204965, "pitch": 57, "duration": 120, "velocity": 118}, {"time": 205443, "pitch": 53, "duration": 114, "velocity": 115}, {"time": 205443, "pitch": 60, "duration": 114, "velocity": 115}, {"time": 205761, "pitch": 53, "duration": 105, "velocity": 107}, {"time": 205761, "pitch": 60, "duration": 105, "velocity": 107}, {"time": 205921, "pitch": 53, "duration": 134, "velocity": 120}, {"time": 205921, "pitch": 62, "duration": 134, "velocity": 120}, {"time": 206398, "pitch": 53, "duration": 125, "velocity": 118}, {"time": 206398, "pitch": 60, "duration": 125, "velocity": 118}, {"time": 206876, "pitch": 53, "duration": 122, "velocity": 120}, {"time": 206876, "pitch": 62, "duration": 127, "velocity": 120}, {"time": 207201, "pitch": 53, "duration": 102, "velocity": 97}, {"time": 207201, "pitch": 60, "duration": 102, "velocity": 97}, {"time": 207364, "pitch": 50, "duration": 129, "velocity": 120}, {"time": 207364, "pitch": 57, "duration": 129, "velocity": 120}, {"time": 207682, "pitch": 50, "duration": 110, "velocity": 94}, {"time": 207682, "pitch": 57, "duration": 105, "velocity": 94}, {"time": 207842, "pitch": 50, "duration": 114, "velocity": 120}, {"time": 207842, "pitch": 57, "duration": 114, "velocity": 120}, {"time": 208319, "pitch": 55, "duration": 130, "velocity": 120}, {"time": 208319, "pitch": 62, "duration": 130, "velocity": 120}, {"time": 208797, "pitch": 55, "duration": 127, "velocity": 115}, {"time": 208797, "pitch": 62, "duration": 127, "velocity": 115}, {"time": 209285, "pitch": 48, "duration": 130, "velocity": 120}, {"time": 209285, "pitch": 55, "duration": 134, "velocity": 120}, {"time": 209604, "pitch": 48, "duration": 99, "velocity": 109}, {"time": 209604, "pitch": 55, "duration": 104, "velocity": 109}, {"time": 209763, "pitch": 48, "duration": 129, "velocity": 115}, {"time": 209763, "pitch": 57, "duration": 129, "velocity": 115}, {"time": 210240, "pitch": 48, "duration": 105, "velocity": 120}, {"time": 210240, "pitch": 55, "duration": 105, "velocity": 120}, {"time": 210718, "pitch": 48, "duration": 119, "velocity": 118}, {"time": 210718, "pitch": 57, "duration": 119, "velocity": 118}, {"time": 211196, "pitch": 48, "duration": 132, "velocity": 120}, {"time": 211196, "pitch": 55, "duration": 137, "velocity": 120}, {"time": 211521, "pitch": 48, "duration": 102, "velocity": 109}, {"time": 211521, "pitch": 55, "duration": 107, "velocity": 109}, {"time": 211684, "pitch": 48, "duration": 129, "velocity": 115}, {"time": 211684, "pitch": 57, "duration": 129, "velocity": 115}, {"time": 212161, "pitch": 48, "duration": 105, "velocity": 120}, {"time": 212161, "pitch": 55, "duration": 105, "velocity": 120}, {"time": 212639, "pitch": 48, "duration": 120, "velocity": 118}, {"time": 212639, "pitch": 57, "duration": 120, "velocity": 118}, {"time": 213117, "pitch": 53, "duration": 117, "velocity": 115}, {"time": 213117, "pitch": 60, "duration": 117, "velocity": 115}, {"time": 213442, "pitch": 53, "duration": 107, "velocity": 107}, {"time": 213442, "pitch": 60, "duration": 107, "velocity": 107}, {"time": 213605, "pitch": 53, "duration": 134, "velocity": 120}, {"time": 213605, "pitch": 60, "duration": 134, "velocity": 120}, {"time": 214083, "pitch": 54, "duration": 124, "velocity": 118}, {"time": 214083, "pitch": 60, "duration": 124, "velocity": 118}, {"time": 214560, "pitch": 54, "duration": 120, "velocity": 120}, {"time": 214560, "pitch": 60, "duration": 125, "velocity": 120}, {"time": 214879, "pitch": 54, "duration": 99, "velocity": 97}, {"time": 214879, "pitch": 60, "duration": 99, "velocity": 97}, {"time": 215038, "pitch": 55, "duration": 124, "velocity": 116}, {"time": 215038, "pitch": 62, "duration": 124, "velocity": 116}, {"time": 215356, "pitch": 55, "duration": 110, "velocity": 104}, {"time": 215356, "pitch": 62, "duration": 110, "velocity": 104}, {"time": 215515, "pitch": 55, "duration": 138, "velocity": 115}, {"time": 215515, "pitch": 62, "duration": 143, "velocity": 115}, {"time": 216004, "pitch": 55, "duration": 129, "velocity": 120}, {"time": 216004, "pitch": 62, "duration": 129, "velocity": 120}, {"time": 216481, "pitch": 55, "duration": 125, "velocity": 115}, {"time": 216481, "pitch": 62, "duration": 125, "velocity": 115}, {"time": 216959, "pitch": 50, "duration": 129, "velocity": 120}, {"time": 216959, "pitch": 57, "duration": 129, "velocity": 120}, {"time": 217277, "pitch": 50, "duration": 110, "velocity": 94}, {"time": 217277, "pitch": 57, "duration": 105, "velocity": 94}, {"time": 217437, "pitch": 50, "duration": 117, "velocity": 120}, {"time": 217437, "pitch": 57, "duration": 117, "velocity": 120}, {"time": 217925, "pitch": 50, "duration": 134, "velocity": 120}, {"time": 217925, "pitch": 57, "duration": 134, "velocity": 120}, {"time": 218402, "pitch": 50, "duration": 130, "velocity": 120}, {"time": 218402, "pitch": 57, "duration": 135, "velocity": 120}, {"time": 218880, "pitch": 55, "duration": 124, "velocity": 116}, {"time": 218880, "pitch": 62, "duration": 124, "velocity": 116}, {"time": 219198, "pitch": 55, "duration": 110, "velocity": 104}, {"time": 219198, "pitch": 62, "duration": 110, "velocity": 104}, {"time": 219358, "pitch": 55, "duration": 134, "velocity": 115}, {"time": 219358, "pitch": 62, "duration": 139, "velocity": 115}, {"time": 219835, "pitch": 48, "duration": 107, "velocity": 120}, {"time": 219835, "pitch": 55, "duration": 107, "velocity": 120}, {"time": 220324, "pitch": 48, "duration": 119, "velocity": 118}, {"time": 220324, "pitch": 55, "duration": 119, "velocity": 118}, {"time": 220801, "pitch": 53, "duration": 130, "velocity": 120}, {"time": 220801, "pitch": 60, "duration": 130, "velocity": 120}, {"time": 221120, "pitch": 53, "duration": 109, "velocity": 94}, {"time": 221120, "pitch": 60, "duration": 104, "velocity": 94}, {"time": 221279, "pitch": 53, "duration": 114, "velocity": 120}, {"time": 221279, "pitch": 60, "duration": 114, "velocity": 120}, {"time": 221756, "pitch": 53, "duration": 138, "velocity": 120}, {"time": 221756, "pitch": 60, "duration": 138, "velocity": 120}, {"time": 222245, "pitch": 53, "duration": 129, "velocity": 120}, {"time": 222245, "pitch": 60, "duration": 134, "velocity": 120}, {"time": 222722, "pitch": 50, "duration": 130, "velocity": 120}, {"time": 222722, "pitch": 57, "duration": 130, "velocity": 120}, {"time": 223041, "pitch": 50, "duration": 109, "velocity": 94}, {"time": 223041, "pitch": 57, "duration": 104, "velocity": 94}, {"time": 223200, "pitch": 50, "duration": 114, "velocity": 120}, {"time": 223200, "pitch": 57, "duration": 114, "velocity": 120}, {"time": 223678, "pitch": 55, "duration": 129, "velocity": 120}, {"time": 223678, "pitch": 62, "duration": 129, "velocity": 120}, {"time": 224155, "pitch": 55, "duration": 127, "velocity": 115}, {"time": 224155, "pitch": 62, "duration": 127, "velocity": 115}, {"time": 224643, "pitch": 48, "duration": 110, "velocity": 120}, {"time": 224643, "pitch": 55, "duration": 115, "velocity": 120}, {"time": 226883, "pitch": 55, "duration": 114, "velocity": 120}, {"time": 226883, "pitch": 62, "duration": 114, "velocity": 120}, {"time": 227042, "pitch": 55, "duration": 134, "velocity": 120}, {"time": 227042, "pitch": 62, "duration": 134, "velocity": 120}, {"time": 227361, "pitch": 48, "duration": 99, "velocity": 120}, {"time": 227361, "pitch": 55, "duration": 104, "velocity": 120}, {"time": 228475, "pitch": 67, "duration": 127, "velocity": 116}, {"time": 228638, "pitch": 65, "duration": 173, "velocity": 103}, {"time": 228800, "pitch": 64, "duration": 143, "velocity": 100}, {"time": 228963, "pitch": 63, "duration": 149, "velocity": 119}, {"time": 229122, "pitch": 62, "duration": 140, "velocity": 100}, {"time": 229282, "pitch": 60, "duration": 139, "velocity": 109}, {"time": 229441, "pitch": 58, "duration": 139, "velocity": 116}, {"time": 229600, "pitch": 57, "duration": 144, "velocity": 105}, {"time": 229759, "pitch": 55, "duration": 140, "velocity": 106}, {"time": 229918, "pitch": 53, "duration": 155, "velocity": 108}, {"time": 230078, "pitch": 52, "duration": 139, "velocity": 108}, {"time": 230237, "pitch": 51, "duration": 174, "velocity": 100}, {"time": 231199, "pitch": 48, "duration": 85, "velocity": 120}, {"time": 231199, "pitch": 55, "duration": 95, "velocity": 120}, {"time": 7675, "pitch": 65, "duration": 127, "velocity": 116}, {"time": 7838, "pitch": 63, "duration": 173, "velocity": 103}, {"time": 8000, "pitch": 62, "duration": 143, "velocity": 100}, {"time": 8163, "pitch": 61, "duration": 149, "velocity": 119}, {"time": 8322, "pitch": 60, "duration": 140, "velocity": 100}, {"time": 8482, "pitch": 58, "duration": 139, "velocity": 109}, {"time": 8641, "pitch": 56, "duration": 139, "velocity": 116}, {"time": 8800, "pitch": 55, "duration": 144, "velocity": 105}, {"time": 8959, "pitch": 53, "duration": 140, "velocity": 106}, {"time": 9118, "pitch": 51, "duration": 155, "velocity": 108}, {"time": 9278, "pitch": 50, "duration": 139, "velocity": 108}, {"time": 9437, "pitch": 49, "duration": 174, "velocity": 100}, {"time": 30718, "pitch": 72, "duration": 164, "velocity": 107}, {"time": 30877, "pitch": 69, "duration": 109, "velocity": 107}, {"time": 31036, "pitch": 70, "duration": 129, "velocity": 107}, {"time": 31195, "pitch": 69, "duration": 143, "velocity": 107}, {"time": 31358, "pitch": 65, "duration": 132, "velocity": 107}, {"time": 31521, "pitch": 69, "duration": 112, "velocity": 107}, {"time": 31683, "pitch": 72, "duration": 165, "velocity": 107}, {"time": 31843, "pitch": 69, "duration": 109, "velocity": 107}, {"time": 32002, "pitch": 70, "duration": 129, "velocity": 107}, {"time": 32161, "pitch": 69, "duration": 139, "velocity": 107}, {"time": 32320, "pitch": 65, "duration": 130, "velocity": 107}, {"time": 32480, "pitch": 69, "duration": 109, "velocity": 107}, {"time": 51839, "pitch": 79, "duration": 233, "velocity": 118}, {"time": 52158, "pitch": 73, "duration": 415, "velocity": 122}, {"time": 52642, "pitch": 79, "duration": 155, "velocity": 110}, {"time": 52805, "pitch": 73, "duration": 386, "velocity": 122}, {"time": 53283, "pitch": 79, "duration": 197, "velocity": 118}, {"time": 53601, "pitch": 73, "duration": 402, "velocity": 122}, {"time": 54079, "pitch": 79, "duration": 169, "velocity": 116}, {"time": 54238, "pitch": 73, "duration": 382, "velocity": 120}, {"time": 54716, "pitch": 79, "duration": 191, "velocity": 116}, {"time": 55041, "pitch": 73, "duration": 418, "velocity": 122}, {"time": 55681, "pitch": 82, "duration": 152, "velocity": 122}, {"time": 55841, "pitch": 76, "duration": 977, "velocity": 108}, {"time": 57125, "pitch": 76, "duration": 233, "velocity": 116}, {"time": 57443, "pitch": 70, "duration": 66, "velocity": 100}, {"time": 57603, "pitch": 77, "duration": 1335, "velocity": 121}, {"time": 72961, "pitch": 72, "duration": 164, "velocity": 107}, {"time": 73120, "pitch": 69, "duration": 109, "velocity": 107}, {"time": 73279, "pitch": 70, "duration": 130, "velocity": 107}, {"time": 73438, "pitch": 69, "duration": 140, "velocity": 107}, {"time": 73598, "pitch": 65, "duration": 129, "velocity": 107}, {"time": 73757, "pitch": 69, "duration": 109, "velocity": 107}, {"time": 73916, "pitch": 72, "duration": 168, "velocity": 107}, {"time": 74079, "pitch": 69, "duration": 112, "velocity": 107}, {"time": 74242, "pitch": 70, "duration": 132, "velocity": 107}, {"time": 74404, "pitch": 69, "duration": 140, "velocity": 107}, {"time": 74563, "pitch": 65, "duration": 130, "velocity": 107}, {"time": 74723, "pitch": 69, "duration": 109, "velocity": 107}, {"time": 85920, "pitch": 67, "duration": 116, "velocity": 106}, {"time": 86079, "pitch": 69, "duration": 100, "velocity": 110}, {"time": 86239, "pitch": 72, "duration": 97, "velocity": 113}, {"time": 86398, "pitch": 75, "duration": 1680, "velocity": 122}, {"time": 88319, "pitch": 72, "duration": 72, "velocity": 122}, {"time": 88478, "pitch": 67, "duration": 984, "velocity": 108}, {"time": 89763, "pitch": 67, "duration": 115, "velocity": 108}, {"time": 89922, "pitch": 69, "duration": 99, "velocity": 112}, {"time": 90081, "pitch": 72, "duration": 97, "velocity": 115}, {"time": 90240, "pitch": 75, "duration": 1680, "velocity": 122}, {"time": 92161, "pitch": 81, "duration": 72, "velocity": 122}, {"time": 92320, "pitch": 75, "duration": 1621, "velocity": 108}, {"time": 94082, "pitch": 81, "duration": 233, "velocity": 118}, {"time": 94401, "pitch": 75, "duration": 410, "velocity": 122}, {"time": 94878, "pitch": 81, "duration": 152, "velocity": 110}, {"time": 95038, "pitch": 75, "duration": 386, "velocity": 122}, {"time": 95515, "pitch": 81, "duration": 202, "velocity": 118}, {"time": 95841, "pitch": 75, "duration": 405, "velocity": 122}, {"time": 96322, "pitch": 81, "duration": 169, "velocity": 116}, {"time": 96481, "pitch": 75, "duration": 382, "velocity": 120}, {"time": 96959, "pitch": 81, "duration": 187, "velocity": 116}, {"time": 97277, "pitch": 75, "duration": 420, "velocity": 122}, {"time": 97925, "pitch": 84, "duration": 151, "velocity": 122}, {"time": 98084, "pitch": 78, "duration": 973, "velocity": 108}, {"time": 99357, "pitch": 78, "duration": 233, "velocity": 116}, {"time": 99676, "pitch": 72, "duration": 65, "velocity": 100}, {"time": 99835, "pitch": 79, "duration": 1346, "velocity": 121}, {"time": 107519, "pitch": 65, "duration": 125, "velocity": 116}, {"time": 107679, "pitch": 63, "duration": 159, "velocity": 103}, {"time": 107838, "pitch": 62, "duration": 144, "velocity": 100}, {"time": 107997, "pitch": 61, "duration": 149, "velocity": 119}, {"time": 108156, "pitch": 60, "duration": 145, "velocity": 100}, {"time": 108315, "pitch": 58, "duration": 135, "velocity": 109}, {"time": 108475, "pitch": 56, "duration": 142, "velocity": 116}, {"time": 108637, "pitch": 55, "duration": 148, "velocity": 105}, {"time": 108800, "pitch": 53, "duration": 143, "velocity": 106}, {"time": 108963, "pitch": 51, "duration": 159, "velocity": 108}, {"time": 109122, "pitch": 50, "duration": 135, "velocity": 108}, {"time": 109281, "pitch": 49, "duration": 170, "velocity": 100}, {"time": 130562, "pitch": 72, "duration": 164, "velocity": 107}, {"time": 130721, "pitch": 69, "duration": 110, "velocity": 107}, {"time": 130881, "pitch": 70, "duration": 129, "velocity": 107}, {"time": 131040, "pitch": 69, "duration": 139, "velocity": 107}, {"time": 131199, "pitch": 65, "duration": 129, "velocity": 107}, {"time": 131358, "pitch": 69, "duration": 110, "velocity": 107}, {"time": 131517, "pitch": 72, "duration": 165, "velocity": 107}, {"time": 131677, "pitch": 69, "duration": 109, "velocity": 107}, {"time": 131836, "pitch": 70, "duration": 129, "velocity": 107}, {"time": 131995, "pitch": 69, "duration": 142, "velocity": 107}, {"time": 132158, "pitch": 65, "duration": 132, "velocity": 107}, {"time": 132321, "pitch": 69, "duration": 111, "velocity": 107}, {"time": 151684, "pitch": 79, "duration": 233, "velocity": 118}, {"time": 152002, "pitch": 73, "duration": 410, "velocity": 122}, {"time": 152480, "pitch": 79, "duration": 151, "velocity": 110}, {"time": 152639, "pitch": 73, "duration": 386, "velocity": 122}, {"time": 153117, "pitch": 79, "duration": 201, "velocity": 118}, {"time": 153442, "pitch": 73, "duration": 406, "velocity": 122}, {"time": 153923, "pitch": 79, "duration": 169, "velocity": 116}, {"time": 154082, "pitch": 73, "duration": 383, "velocity": 120}, {"time": 154560, "pitch": 79, "duration": 187, "velocity": 116}, {"time": 154878, "pitch": 73, "duration": 414, "velocity": 122}, {"time": 155515, "pitch": 82, "duration": 155, "velocity": 122}, {"time": 155678, "pitch": 76, "duration": 980, "velocity": 108}, {"time": 156959, "pitch": 76, "duration": 233, "velocity": 116}, {"time": 157277, "pitch": 70, "duration": 66, "velocity": 100}, {"time": 157436, "pitch": 77, "duration": 1346, "velocity": 121}, {"time": 172795, "pitch": 72, "duration": 167, "velocity": 107}, {"time": 172957, "pitch": 69, "duration": 112, "velocity": 107}, {"time": 173120, "pitch": 70, "duration": 132, "velocity": 107}, {"time": 173283, "pitch": 69, "duration": 139, "velocity": 107}, {"time": 173442, "pitch": 65, "duration": 130, "velocity": 107}, {"time": 173601, "pitch": 69, "duration": 110, "velocity": 107}, {"time": 173761, "pitch": 72, "duration": 164, "velocity": 107}, {"time": 173920, "pitch": 69, "duration": 109, "velocity": 107}, {"time": 174079, "pitch": 70, "duration": 129, "velocity": 107}, {"time": 174238, "pitch": 69, "duration": 139, "velocity": 107}, {"time": 174397, "pitch": 65, "duration": 130, "velocity": 107}, {"time": 174557, "pitch": 69, "duration": 109, "velocity": 107}, {"time": 191995, "pitch": 67, "duration": 127, "velocity": 116}, {"time": 192158, "pitch": 65, "duration": 173, "velocity": 103}, {"time": 192321, "pitch": 64, "duration": 142, "velocity": 100}, {"time": 192483, "pitch": 63, "duration": 150, "velocity": 119}, {"time": 192643, "pitch": 62, "duration": 139, "velocity": 100}, {"time": 192802, "pitch": 60, "duration": 139, "velocity": 109}, {"time": 192961, "pitch": 58, "duration": 139, "velocity": 116}, {"time": 193120, "pitch": 57, "duration": 145, "velocity": 105}, {"time": 193279, "pitch": 55, "duration": 140, "velocity": 106}, {"time": 193439, "pitch": 53, "duration": 154, "velocity": 108}, {"time": 193598, "pitch": 52, "duration": 139, "velocity": 108}, {"time": 193757, "pitch": 51, "duration": 174, "velocity": 100}, {"time": 215038, "pitch": 74, "duration": 164, "velocity": 107}, {"time": 215197, "pitch": 71, "duration": 109, "velocity": 107}, {"time": 215356, "pitch": 72, "duration": 130, "velocity": 107}, {"time": 215515, "pitch": 71, "duration": 143, "velocity": 107}, {"time": 215678, "pitch": 67, "duration": 132, "velocity": 107}, {"time": 215841, "pitch": 71, "duration": 112, "velocity": 107}, {"time": 216004, "pitch": 74, "duration": 164, "velocity": 107}, {"time": 216163, "pitch": 71, "duration": 109, "velocity": 107}, {"time": 216322, "pitch": 72, "duration": 129, "velocity": 107}, {"time": 216481, "pitch": 71, "duration": 140, "velocity": 107}, {"time": 216641, "pitch": 67, "duration": 129, "velocity": 107}, {"time": 216800, "pitch": 71, "duration": 109, "velocity": 107}, {"time": 228475, "pitch": 67, "duration": 127, "velocity": 116}, {"time": 228638, "pitch": 65, "duration": 173, "velocity": 103}, {"time": 228800, "pitch": 64, "duration": 143, "velocity": 100}, {"time": 228963, "pitch": 63, "duration": 149, "velocity": 119}, {"time": 229122, "pitch": 62, "duration": 140, "velocity": 100}, {"time": 229282, "pitch": 60, "duration": 139, "velocity": 109}, {"time": 229441, "pitch": 58, "duration": 139, "velocity": 116}, {"time": 229600, "pitch": 57, "duration": 144, "velocity": 105}, {"time": 229759, "pitch": 55, "duration": 140, "velocity": 106}, {"time": 229918, "pitch": 53, "duration": 155, "velocity": 108}, {"time": 230078, "pitch": 52, "duration": 139, "velocity": 108}, {"time": 230237, "pitch": 51, "duration": 174, "velocity": 100}, {"time": 230396, "pitch": 48, "duration": 156, "velocity": 115}, {"time": 230557, "pitch": 49, "duration": 80, "velocity": 115}, {"time": 230637, "pitch": 50, "duration": 90, "velocity": 115}, {"time": 230717, "pitch": 51, "duration": 361, "velocity": 127}, {"time": 231199, "pitch": 52, "duration": 2593, "velocity": 127}, {"time": 7675, "pitch": 65, "duration": 127, "velocity": 106}, {"time": 7838, "pitch": 63, "duration": 162, "velocity": 93}, {"time": 8000, "pitch": 62, "duration": 148, "velocity": 90}, {"time": 8163, "pitch": 61, "duration": 149, "velocity": 109}, {"time": 8322, "pitch": 60, "duration": 145, "velocity": 90}, {"time": 8482, "pitch": 58, "duration": 134, "velocity": 99}, {"time": 8641, "pitch": 56, "duration": 139, "velocity": 106}, {"time": 8800, "pitch": 55, "duration": 144, "velocity": 95}, {"time": 8959, "pitch": 53, "duration": 140, "velocity": 96}, {"time": 9118, "pitch": 51, "duration": 160, "velocity": 98}, {"time": 9278, "pitch": 50, "duration": 134, "velocity": 98}, {"time": 9437, "pitch": 49, "duration": 169, "velocity": 90}, {"time": 30718, "pitch": 69, "duration": 159, "velocity": 107}, {"time": 30877, "pitch": 65, "duration": 109, "velocity": 107}, {"time": 31036, "pitch": 65, "duration": 129, "velocity": 107}, {"time": 31195, "pitch": 65, "duration": 143, "velocity": 107}, {"time": 31358, "pitch": 60, "duration": 132, "velocity": 107}, {"time": 31521, "pitch": 69, "duration": 112, "velocity": 107}, {"time": 31683, "pitch": 69, "duration": 160, "velocity": 107}, {"time": 31843, "pitch": 65, "duration": 109, "velocity": 107}, {"time": 32002, "pitch": 65, "duration": 129, "velocity": 107}, {"time": 32161, "pitch": 65, "duration": 139, "velocity": 107}, {"time": 32320, "pitch": 60, "duration": 130, "velocity": 107}, {"time": 32480, "pitch": 69, "duration": 109, "velocity": 107}, {"time": 51839, "pitch": 79, "duration": 233, "velocity": 118}, {"time": 52158, "pitch": 73, "duration": 415, "velocity": 122}, {"time": 52642, "pitch": 79, "duration": 155, "velocity": 110}, {"time": 52805, "pitch": 73, "duration": 386, "velocity": 122}, {"time": 53283, "pitch": 79, "duration": 197, "velocity": 118}, {"time": 53601, "pitch": 73, "duration": 402, "velocity": 122}, {"time": 54079, "pitch": 79, "duration": 169, "velocity": 116}, {"time": 54238, "pitch": 73, "duration": 382, "velocity": 120}, {"time": 54716, "pitch": 79, "duration": 191, "velocity": 116}, {"time": 55041, "pitch": 73, "duration": 418, "velocity": 122}, {"time": 55681, "pitch": 82, "duration": 152, "velocity": 122}, {"time": 55841, "pitch": 76, "duration": 977, "velocity": 108}, {"time": 57125, "pitch": 76, "duration": 233, "velocity": 116}, {"time": 57443, "pitch": 70, "duration": 66, "velocity": 100}, {"time": 57603, "pitch": 77, "duration": 1335, "velocity": 121}, {"time": 72961, "pitch": 69, "duration": 159, "velocity": 107}, {"time": 73120, "pitch": 65, "duration": 109, "velocity": 107}, {"time": 73279, "pitch": 65, "duration": 130, "velocity": 107}, {"time": 73438, "pitch": 65, "duration": 140, "velocity": 107}, {"time": 73598, "pitch": 60, "duration": 129, "velocity": 107}, {"time": 73757, "pitch": 69, "duration": 109, "velocity": 107}, {"time": 73916, "pitch": 69, "duration": 163, "velocity": 107}, {"time": 74079, "pitch": 65, "duration": 112, "velocity": 107}, {"time": 74242, "pitch": 65, "duration": 132, "velocity": 107}, {"time": 74404, "pitch": 65, "duration": 140, "velocity": 107}, {"time": 74563, "pitch": 60, "duration": 130, "velocity": 107}, {"time": 74723, "pitch": 69, "duration": 109, "velocity": 107}, {"time": 85920, "pitch": 67, "duration": 116, "velocity": 106}, {"time": 86079, "pitch": 69, "duration": 100, "velocity": 110}, {"time": 86239, "pitch": 72, "duration": 97, "velocity": 113}, {"time": 86398, "pitch": 75, "duration": 1680, "velocity": 122}, {"time": 88319, "pitch": 72, "duration": 72, "velocity": 122}, {"time": 88478, "pitch": 67, "duration": 984, "velocity": 108}, {"time": 89763, "pitch": 67, "duration": 115, "velocity": 108}, {"time": 89922, "pitch": 69, "duration": 99, "velocity": 112}, {"time": 90081, "pitch": 72, "duration": 97, "velocity": 115}, {"time": 90240, "pitch": 75, "duration": 1680, "velocity": 122}, {"time": 92161, "pitch": 81, "duration": 72, "velocity": 122}, {"time": 92320, "pitch": 75, "duration": 1621, "velocity": 108}, {"time": 94082, "pitch": 81, "duration": 233, "velocity": 118}, {"time": 94401, "pitch": 75, "duration": 410, "velocity": 122}, {"time": 94878, "pitch": 81, "duration": 152, "velocity": 110}, {"time": 95038, "pitch": 75, "duration": 386, "velocity": 122}, {"time": 95515, "pitch": 81, "duration": 202, "velocity": 118}, {"time": 95841, "pitch": 75, "duration": 405, "velocity": 122}, {"time": 96322, "pitch": 81, "duration": 169, "velocity": 116}, {"time": 96481, "pitch": 75, "duration": 382, "velocity": 120}, {"time": 96959, "pitch": 81, "duration": 187, "velocity": 116}, {"time": 97277, "pitch": 75, "duration": 420, "velocity": 122}, {"time": 97925, "pitch": 84, "duration": 151, "velocity": 122}, {"time": 98084, "pitch": 78, "duration": 973, "velocity": 108}, {"time": 99357, "pitch": 78, "duration": 233, "velocity": 116}, {"time": 99676, "pitch": 72, "duration": 65, "velocity": 100}, {"time": 99835, "pitch": 79, "duration": 1346, "velocity": 121}, {"time": 107519, "pitch": 65, "duration": 125, "velocity": 106}, {"time": 107679, "pitch": 63, "duration": 159, "velocity": 93}, {"time": 107838, "pitch": 62, "duration": 144, "velocity": 90}, {"time": 107997, "pitch": 61, "duration": 149, "velocity": 109}, {"time": 108156, "pitch": 60, "duration": 145, "velocity": 90}, {"time": 108315, "pitch": 58, "duration": 135, "velocity": 99}, {"time": 108475, "pitch": 56, "duration": 142, "velocity": 106}, {"time": 108637, "pitch": 55, "duration": 148, "velocity": 95}, {"time": 108800, "pitch": 53, "duration": 143, "velocity": 96}, {"time": 108963, "pitch": 51, "duration": 159, "velocity": 98}, {"time": 109122, "pitch": 50, "duration": 135, "velocity": 98}, {"time": 109281, "pitch": 49, "duration": 170, "velocity": 90}, {"time": 130562, "pitch": 69, "duration": 159, "velocity": 107}, {"time": 130721, "pitch": 65, "duration": 110, "velocity": 107}, {"time": 130881, "pitch": 65, "duration": 129, "velocity": 107}, {"time": 131040, "pitch": 65, "duration": 139, "velocity": 107}, {"time": 131199, "pitch": 60, "duration": 129, "velocity": 107}, {"time": 131358, "pitch": 69, "duration": 110, "velocity": 107}, {"time": 131517, "pitch": 69, "duration": 160, "velocity": 107}, {"time": 131677, "pitch": 65, "duration": 109, "velocity": 107}, {"time": 131836, "pitch": 65, "duration": 129, "velocity": 107}, {"time": 131995, "pitch": 65, "duration": 142, "velocity": 107}, {"time": 132158, "pitch": 60, "duration": 132, "velocity": 107}, {"time": 132321, "pitch": 69, "duration": 111, "velocity": 107}, {"time": 151684, "pitch": 79, "duration": 233, "velocity": 118}, {"time": 152002, "pitch": 73, "duration": 410, "velocity": 122}, {"time": 152480, "pitch": 79, "duration": 151, "velocity": 110}, {"time": 152639, "pitch": 73, "duration": 386, "velocity": 122}, {"time": 153117, "pitch": 79, "duration": 201, "velocity": 118}, {"time": 153442, "pitch": 73, "duration": 406, "velocity": 122}, {"time": 153923, "pitch": 79, "duration": 169, "velocity": 116}, {"time": 154082, "pitch": 73, "duration": 383, "velocity": 120}, {"time": 154560, "pitch": 79, "duration": 187, "velocity": 116}, {"time": 154878, "pitch": 73, "duration": 414, "velocity": 122}, {"time": 155515, "pitch": 82, "duration": 155, "velocity": 122}, {"time": 155678, "pitch": 76, "duration": 980, "velocity": 108}, {"time": 156959, "pitch": 76, "duration": 233, "velocity": 116}, {"time": 157277, "pitch": 70, "duration": 66, "velocity": 100}, {"time": 157436, "pitch": 77, "duration": 1346, "velocity": 121}, {"time": 172795, "pitch": 69, "duration": 162, "velocity": 107}, {"time": 172957, "pitch": 65, "duration": 112, "velocity": 107}, {"time": 173120, "pitch": 65, "duration": 132, "velocity": 107}, {"time": 173283, "pitch": 65, "duration": 139, "velocity": 107}, {"time": 173442, "pitch": 60, "duration": 130, "velocity": 107}, {"time": 173601, "pitch": 69, "duration": 110, "velocity": 107}, {"time": 173761, "pitch": 69, "duration": 159, "velocity": 107}, {"time": 173920, "pitch": 65, "duration": 109, "velocity": 107}, {"time": 174079, "pitch": 65, "duration": 129, "velocity": 107}, {"time": 174238, "pitch": 65, "duration": 139, "velocity": 107}, {"time": 174397, "pitch": 60, "duration": 130, "velocity": 107}, {"time": 174557, "pitch": 69, "duration": 109, "velocity": 107}, {"time": 191995, "pitch": 67, "duration": 127, "velocity": 106}, {"time": 192158, "pitch": 65, "duration": 163, "velocity": 93}, {"time": 192321, "pitch": 64, "duration": 147, "velocity": 90}, {"time": 192483, "pitch": 63, "duration": 150, "velocity": 109}, {"time": 192643, "pitch": 62, "duration": 144, "velocity": 90}, {"time": 192802, "pitch": 60, "duration": 134, "velocity": 99}, {"time": 192961, "pitch": 58, "duration": 139, "velocity": 106}, {"time": 193120, "pitch": 57, "duration": 145, "velocity": 95}, {"time": 193279, "pitch": 55, "duration": 140, "velocity": 96}, {"time": 193439, "pitch": 53, "duration": 159, "velocity": 98}, {"time": 193598, "pitch": 52, "duration": 134, "velocity": 98}, {"time": 193757, "pitch": 51, "duration": 169, "velocity": 90}, {"time": 215038, "pitch": 71, "duration": 159, "velocity": 107}, {"time": 215197, "pitch": 67, "duration": 109, "velocity": 107}, {"time": 215356, "pitch": 67, "duration": 130, "velocity": 107}, {"time": 215515, "pitch": 67, "duration": 143, "velocity": 107}, {"time": 215678, "pitch": 62, "duration": 132, "velocity": 107}, {"time": 215841, "pitch": 71, "duration": 112, "velocity": 107}, {"time": 216004, "pitch": 71, "duration": 159, "velocity": 107}, {"time": 216163, "pitch": 67, "duration": 109, "velocity": 107}, {"time": 216322, "pitch": 67, "duration": 129, "velocity": 107}, {"time": 216481, "pitch": 67, "duration": 140, "velocity": 107}, {"time": 216641, "pitch": 62, "duration": 129, "velocity": 107}, {"time": 216800, "pitch": 71, "duration": 109, "velocity": 107}, {"time": 228475, "pitch": 67, "duration": 127, "velocity": 106}, {"time": 228638, "pitch": 65, "duration": 162, "velocity": 93}, {"time": 228800, "pitch": 64, "duration": 148, "velocity": 90}, {"time": 228963, "pitch": 63, "duration": 149, "velocity": 109}, {"time": 229122, "pitch": 62, "duration": 145, "velocity": 90}, {"time": 229282, "pitch": 60, "duration": 134, "velocity": 99}, {"time": 229441, "pitch": 58, "duration": 139, "velocity": 106}, {"time": 229600, "pitch": 57, "duration": 144, "velocity": 95}, {"time": 229759, "pitch": 55, "duration": 140, "velocity": 96}, {"time": 229918, "pitch": 53, "duration": 160, "velocity": 98}, {"time": 230078, "pitch": 52, "duration": 134, "velocity": 98}, {"time": 230237, "pitch": 51, "duration": 169, "velocity": 90}, {"time": 230396, "pitch": 48, "duration": 161, "velocity": 105}, {"time": 230557, "pitch": 49, "duration": 80, "velocity": 105}, {"time": 230637, "pitch": 50, "duration": 80, "velocity": 105}, {"time": 230717, "pitch": 51, "duration": 366, "velocity": 122}, {"time": 231199, "pitch": 48, "duration": 2593, "velocity": 122}, {"time": 2241, "pitch": 77, "duration": 123, "velocity": 120}, {"time": 2400, "pitch": 79, "duration": 294, "velocity": 120}, {"time": 2718, "pitch": 82, "duration": 141, "velocity": 120}, {"time": 3196, "pitch": 82, "duration": 150, "velocity": 120}, {"time": 3355, "pitch": 79, "duration": 252, "velocity": 120}, {"time": 3681, "pitch": 82, "duration": 108, "velocity": 120}, {"time": 3843, "pitch": 84, "duration": 265, "velocity": 120}, {"time": 4321, "pitch": 79, "duration": 224, "velocity": 120}, {"time": 4799, "pitch": 77, "duration": 298, "velocity": 120}, {"time": 5117, "pitch": 79, "duration": 125, "velocity": 120}, {"time": 6083, "pitch": 77, "duration": 123, "velocity": 120}, {"time": 6242, "pitch": 79, "duration": 295, "velocity": 120}, {"time": 6560, "pitch": 82, "duration": 141, "velocity": 120}, {"time": 7038, "pitch": 82, "duration": 150, "velocity": 120}, {"time": 7197, "pitch": 79, "duration": 247, "velocity": 120}, {"time": 7516, "pitch": 77, "duration": 106, "velocity": 120}, {"time": 7675, "pitch": 82, "duration": 282, "velocity": 120}, {"time": 9922, "pitch": 77, "duration": 126, "velocity": 120}, {"time": 10084, "pitch": 79, "duration": 295, "velocity": 120}, {"time": 10403, "pitch": 82, "duration": 140, "velocity": 120}, {"time": 10880, "pitch": 82, "duration": 151, "velocity": 120}, {"time": 11040, "pitch": 79, "duration": 246, "velocity": 120}, {"time": 11358, "pitch": 82, "duration": 106, "velocity": 120}, {"time": 11517, "pitch": 84, "duration": 265, "velocity": 120}, {"time": 11995, "pitch": 79, "duration": 229, "velocity": 120}, {"time": 12483, "pitch": 77, "duration": 299, "velocity": 120}, {"time": 12801, "pitch": 79, "duration": 126, "velocity": 120}, {"time": 13438, "pitch": 75, "duration": 301, "velocity": 120}, {"time": 13757, "pitch": 76, "duration": 160, "velocity": 120}, {"time": 13916, "pitch": 79, "duration": 124, "velocity": 120}, {"time": 14241, "pitch": 75, "duration": 149, "velocity": 120}, {"time": 14404, "pitch": 76, "duration": 310, "velocity": 120}, {"time": 14723, "pitch": 79, "duration": 109, "velocity": 120}, {"time": 14882, "pitch": 76, "duration": 285, "velocity": 120}, {"time": 15359, "pitch": 84, "duration": 226, "velocity": 120}, {"time": 21123, "pitch": 67, "duration": 1819, "velocity": 89}, {"time": 21123, "pitch": 75, "duration": 1819, "velocity": 104}, {"time": 23044, "pitch": 67, "duration": 278, "velocity": 112}, {"time": 23044, "pitch": 75, "duration": 265, "velocity": 90}, {"time": 23362, "pitch": 67, "duration": 279, "velocity": 112}, {"time": 23362, "pitch": 75, "duration": 280, "velocity": 90}, {"time": 23840, "pitch": 69, "duration": 908, "velocity": 102}, {"time": 23840, "pitch": 77, "duration": 913, "velocity": 104}, {"time": 33116, "pitch": 79, "duration": 351, "velocity": 112}, {"time": 35037, "pitch": 77, "duration": 234, "velocity": 104}, {"time": 35037, "pitch": 81, "duration": 244, "velocity": 93}, {"time": 35841, "pitch": 77, "duration": 307, "velocity": 109}, {"time": 36959, "pitch": 79, "duration": 291, "velocity": 99}, {"time": 38880, "pitch": 79, "duration": 336, "velocity": 112}, {"time": 39676, "pitch": 77, "duration": 306, "velocity": 99}, {"time": 39676, "pitch": 81, "duration": 352, "velocity": 104}, {"time": 40323, "pitch": 77, "duration": 314, "velocity": 109}, {"time": 42568, "pitch": 77, "duration": 64, "velocity": 110}, {"time": 42742, "pitch": 77, "duration": 139, "velocity": 109}, {"time": 43035, "pitch": 77, "duration": 244, "velocity": 116}, {"time": 44155, "pitch": 68, "duration": 456, "velocity": 121}, {"time": 44643, "pitch": 70, "duration": 237, "velocity": 109}, {"time": 44961, "pitch": 65, "duration": 78, "velocity": 92}, {"time": 45121, "pitch": 68, "duration": 439, "velocity": 121}, {"time": 45598, "pitch": 70, "duration": 189, "velocity": 109}, {"time": 45917, "pitch": 73, "duration": 570, "velocity": 126}, {"time": 46564, "pitch": 70, "duration": 227, "velocity": 109}, {"time": 46883, "pitch": 68, "duration": 147, "velocity": 99}, {"time": 47042, "pitch": 63, "duration": 282, "velocity": 103}, {"time": 47360, "pitch": 61, "duration": 122, "velocity": 111}, {"time": 47519, "pitch": 58, "duration": 207, "velocity": 92}, {"time": 47997, "pitch": 68, "duration": 456, "velocity": 121}, {"time": 48485, "pitch": 70, "duration": 237, "velocity": 109}, {"time": 48804, "pitch": 65, "duration": 77, "velocity": 92}, {"time": 48963, "pitch": 68, "duration": 440, "velocity": 121}, {"time": 49440, "pitch": 70, "duration": 190, "velocity": 109}, {"time": 49759, "pitch": 73, "duration": 561, "velocity": 126}, {"time": 50396, "pitch": 70, "duration": 150, "velocity": 109}, {"time": 50721, "pitch": 68, "duration": 151, "velocity": 99}, {"time": 50884, "pitch": 63, "duration": 283, "velocity": 103}, {"time": 51202, "pitch": 61, "duration": 122, "velocity": 111}, {"time": 51362, "pitch": 58, "duration": 207, "velocity": 92}, {"time": 51839, "pitch": 70, "duration": 1852, "velocity": 85}, {"time": 51839, "pitch": 75, "duration": 1802, "velocity": 107}, {"time": 53760, "pitch": 70, "duration": 1832, "velocity": 104}, {"time": 53760, "pitch": 74, "duration": 1827, "velocity": 102}, {"time": 55681, "pitch": 75, "duration": 301, "velocity": 120}, {"time": 56000, "pitch": 76, "duration": 160, "velocity": 120}, {"time": 56159, "pitch": 79, "duration": 121, "velocity": 120}, {"time": 56477, "pitch": 75, "duration": 146, "velocity": 120}, {"time": 56637, "pitch": 76, "duration": 316, "velocity": 120}, {"time": 56962, "pitch": 79, "duration": 112, "velocity": 120}, {"time": 57125, "pitch": 76, "duration": 285, "velocity": 120}, {"time": 57603, "pitch": 84, "duration": 225, "velocity": 120}, {"time": 63355, "pitch": 67, "duration": 1822, "velocity": 89}, {"time": 63355, "pitch": 75, "duration": 1822, "velocity": 104}, {"time": 65276, "pitch": 67, "duration": 285, "velocity": 112}, {"time": 65276, "pitch": 75, "duration": 272, "velocity": 90}, {"time": 65602, "pitch": 67, "duration": 282, "velocity": 112}, {"time": 65602, "pitch": 75, "duration": 283, "velocity": 90}, {"time": 66083, "pitch": 69, "duration": 902, "velocity": 102}, {"time": 66083, "pitch": 77, "duration": 907, "velocity": 104}, {"time": 75359, "pitch": 79, "duration": 344, "velocity": 112}, {"time": 77281, "pitch": 77, "duration": 233, "velocity": 104}, {"time": 77281, "pitch": 81, "duration": 243, "velocity": 93}, {"time": 78077, "pitch": 77, "duration": 306, "velocity": 109}, {"time": 79202, "pitch": 79, "duration": 291, "velocity": 99}, {"time": 81123, "pitch": 79, "duration": 336, "velocity": 112}, {"time": 81919, "pitch": 77, "duration": 303, "velocity": 99}, {"time": 81919, "pitch": 81, "duration": 348, "velocity": 104}, {"time": 82556, "pitch": 77, "duration": 320, "velocity": 109}, {"time": 84807, "pitch": 77, "duration": 67, "velocity": 110}, {"time": 84985, "pitch": 77, "duration": 139, "velocity": 109}, {"time": 85278, "pitch": 77, "duration": 244, "velocity": 116}, {"time": 94082, "pitch": 72, "duration": 1850, "velocity": 85}, {"time": 94082, "pitch": 77, "duration": 1799, "velocity": 107}, {"time": 96003, "pitch": 72, "duration": 1830, "velocity": 104}, {"time": 96003, "pitch": 76, "duration": 1825, "velocity": 102}, {"time": 97925, "pitch": 77, "duration": 300, "velocity": 120}, {"time": 98243, "pitch": 78, "duration": 160, "velocity": 120}, {"time": 98402, "pitch": 81, "duration": 122, "velocity": 120}, {"time": 98721, "pitch": 77, "duration": 145, "velocity": 120}, {"time": 98880, "pitch": 78, "duration": 309, "velocity": 120}, {"time": 99198, "pitch": 81, "duration": 110, "velocity": 120}, {"time": 99357, "pitch": 78, "duration": 286, "velocity": 120}, {"time": 99835, "pitch": 86, "duration": 231, "velocity": 120}, {"time": 102082, "pitch": 77, "duration": 126, "velocity": 120}, {"time": 102244, "pitch": 79, "duration": 295, "velocity": 120}, {"time": 102563, "pitch": 82, "duration": 140, "velocity": 120}, {"time": 103040, "pitch": 82, "duration": 151, "velocity": 120}, {"time": 103200, "pitch": 79, "duration": 246, "velocity": 120}, {"time": 103518, "pitch": 82, "duration": 107, "velocity": 120}, {"time": 103677, "pitch": 84, "duration": 265, "velocity": 120}, {"time": 104155, "pitch": 79, "duration": 229, "velocity": 120}, {"time": 104643, "pitch": 77, "duration": 299, "velocity": 120}, {"time": 104962, "pitch": 79, "duration": 125, "velocity": 120}, {"time": 105917, "pitch": 77, "duration": 123, "velocity": 120}, {"time": 106076, "pitch": 79, "duration": 301, "velocity": 120}, {"time": 106402, "pitch": 82, "duration": 143, "velocity": 120}, {"time": 106883, "pitch": 82, "duration": 150, "velocity": 120}, {"time": 107042, "pitch": 79, "duration": 247, "velocity": 120}, {"time": 107360, "pitch": 77, "duration": 107, "velocity": 120}, {"time": 107519, "pitch": 82, "duration": 276, "velocity": 120}, {"time": 109759, "pitch": 77, "duration": 123, "velocity": 120}, {"time": 109918, "pitch": 79, "duration": 295, "velocity": 120}, {"time": 110237, "pitch": 82, "duration": 140, "velocity": 120}, {"time": 110721, "pitch": 82, "duration": 154, "velocity": 120}, {"time": 110884, "pitch": 79, "duration": 247, "velocity": 120}, {"time": 111202, "pitch": 82, "duration": 107, "velocity": 120}, {"time": 111362, "pitch": 84, "duration": 264, "velocity": 120}, {"time": 111839, "pitch": 79, "duration": 224, "velocity": 120}, {"time": 112317, "pitch": 77, "duration": 305, "velocity": 120}, {"time": 112642, "pitch": 79, "duration": 129, "velocity": 120}, {"time": 113283, "pitch": 75, "duration": 300, "velocity": 120}, {"time": 113601, "pitch": 76, "duration": 160, "velocity": 120}, {"time": 113760, "pitch": 79, "duration": 122, "velocity": 120}, {"time": 114079, "pitch": 75, "duration": 145, "velocity": 120}, {"time": 114238, "pitch": 76, "duration": 309, "velocity": 120}, {"time": 114556, "pitch": 79, "duration": 110, "velocity": 120}, {"time": 114716, "pitch": 76, "duration": 292, "velocity": 120}, {"time": 115204, "pitch": 84, "duration": 226, "velocity": 120}, {"time": 120957, "pitch": 67, "duration": 1821, "velocity": 89}, {"time": 120957, "pitch": 75, "duration": 1821, "velocity": 104}, {"time": 122878, "pitch": 67, "duration": 278, "velocity": 112}, {"time": 122878, "pitch": 75, "duration": 265, "velocity": 90}, {"time": 123196, "pitch": 67, "duration": 281, "velocity": 112}, {"time": 123196, "pitch": 75, "duration": 282, "velocity": 90}, {"time": 123681, "pitch": 69, "duration": 906, "velocity": 102}, {"time": 123681, "pitch": 77, "duration": 911, "velocity": 104}, {"time": 132961, "pitch": 79, "duration": 343, "velocity": 112}, {"time": 134882, "pitch": 77, "duration": 234, "velocity": 104}, {"time": 134882, "pitch": 81, "duration": 244, "velocity": 93}, {"time": 135678, "pitch": 77, "duration": 304, "velocity": 109}, {"time": 136803, "pitch": 79, "duration": 292, "velocity": 99}, {"time": 138724, "pitch": 79, "duration": 337, "velocity": 112}, {"time": 139520, "pitch": 77, "duration": 304, "velocity": 99}, {"time": 139520, "pitch": 81, "duration": 349, "velocity": 104}, {"time": 140157, "pitch": 77, "duration": 314, "velocity": 109}, {"time": 142402, "pitch": 77, "duration": 64, "velocity": 110}, {"time": 142576, "pitch": 77, "duration": 143, "velocity": 109}, {"time": 142876, "pitch": 77, "duration": 248, "velocity": 116}, {"time": 143999, "pitch": 68, "duration": 446, "velocity": 121}, {"time": 144477, "pitch": 70, "duration": 242, "velocity": 109}, {"time": 144802, "pitch": 65, "duration": 80, "velocity": 92}, {"time": 144965, "pitch": 68, "duration": 440, "velocity": 121}, {"time": 145443, "pitch": 70, "duration": 189, "velocity": 109}, {"time": 145761, "pitch": 73, "duration": 561, "velocity": 126}, {"time": 146398, "pitch": 70, "duration": 227, "velocity": 109}, {"time": 146716, "pitch": 68, "duration": 148, "velocity": 99}, {"time": 146876, "pitch": 63, "duration": 289, "velocity": 103}, {"time": 147201, "pitch": 61, "duration": 124, "velocity": 111}, {"time": 147364, "pitch": 58, "duration": 207, "velocity": 92}, {"time": 147842, "pitch": 68, "duration": 445, "velocity": 121}, {"time": 148319, "pitch": 70, "duration": 237, "velocity": 109}, {"time": 148638, "pitch": 65, "duration": 77, "velocity": 92}, {"time": 148797, "pitch": 68, "duration": 449, "velocity": 121}, {"time": 149285, "pitch": 70, "duration": 189, "velocity": 109}, {"time": 149603, "pitch": 73, "duration": 562, "velocity": 126}, {"time": 150240, "pitch": 70, "duration": 148, "velocity": 109}, {"time": 150559, "pitch": 68, "duration": 147, "velocity": 99}, {"time": 150718, "pitch": 63, "duration": 282, "velocity": 103}, {"time": 151036, "pitch": 61, "duration": 122, "velocity": 111}, {"time": 151195, "pitch": 58, "duration": 212, "velocity": 92}, {"time": 151684, "pitch": 70, "duration": 1850, "velocity": 85}, {"time": 151684, "pitch": 75, "duration": 1799, "velocity": 107}, {"time": 153605, "pitch": 70, "duration": 1821, "velocity": 104}, {"time": 153605, "pitch": 74, "duration": 1816, "velocity": 102}, {"time": 155515, "pitch": 75, "duration": 308, "velocity": 120}, {"time": 155841, "pitch": 76, "duration": 164, "velocity": 120}, {"time": 156004, "pitch": 79, "duration": 121, "velocity": 120}, {"time": 156322, "pitch": 75, "duration": 145, "velocity": 120}, {"time": 156481, "pitch": 76, "duration": 310, "velocity": 120}, {"time": 156800, "pitch": 79, "duration": 109, "velocity": 120}, {"time": 156959, "pitch": 76, "duration": 285, "velocity": 120}, {"time": 157436, "pitch": 84, "duration": 231, "velocity": 120}, {"time": 163200, "pitch": 67, "duration": 1821, "velocity": 89}, {"time": 163200, "pitch": 75, "duration": 1821, "velocity": 104}, {"time": 165121, "pitch": 67, "duration": 278, "velocity": 112}, {"time": 165121, "pitch": 75, "duration": 266, "velocity": 90}, {"time": 165439, "pitch": 67, "duration": 279, "velocity": 112}, {"time": 165439, "pitch": 75, "duration": 280, "velocity": 90}, {"time": 165917, "pitch": 69, "duration": 913, "velocity": 102}, {"time": 165917, "pitch": 77, "duration": 918, "velocity": 104}, {"time": 175204, "pitch": 79, "duration": 343, "velocity": 112}, {"time": 177125, "pitch": 77, "duration": 234, "velocity": 104}, {"time": 177125, "pitch": 81, "duration": 244, "velocity": 93}, {"time": 177921, "pitch": 77, "duration": 304, "velocity": 109}, {"time": 179036, "pitch": 79, "duration": 298, "velocity": 99}, {"time": 180957, "pitch": 79, "duration": 344, "velocity": 112}, {"time": 181763, "pitch": 77, "duration": 304, "velocity": 99}, {"time": 181763, "pitch": 81, "duration": 349, "velocity": 104}, {"time": 182400, "pitch": 77, "duration": 314, "velocity": 109}, {"time": 184645, "pitch": 77, "duration": 64, "velocity": 110}, {"time": 184819, "pitch": 77, "duration": 139, "velocity": 109}, {"time": 185112, "pitch": 77, "duration": 246, "velocity": 116}, {"time": 186561, "pitch": 79, "duration": 123, "velocity": 120}, {"time": 186720, "pitch": 81, "duration": 295, "velocity": 120}, {"time": 187038, "pitch": 84, "duration": 141, "velocity": 120}, {"time": 187516, "pitch": 84, "duration": 150, "velocity": 120}, {"time": 187675, "pitch": 81, "duration": 253, "velocity": 120}, {"time": 188001, "pitch": 84, "duration": 109, "velocity": 120}, {"time": 188164, "pitch": 86, "duration": 264, "velocity": 120}, {"time": 188641, "pitch": 81, "duration": 224, "velocity": 120}, {"time": 189119, "pitch": 79, "duration": 298, "velocity": 120}, {"time": 189437, "pitch": 81, "duration": 126, "velocity": 120}, {"time": 190403, "pitch": 79, "duration": 123, "velocity": 120}, {"time": 190562, "pitch": 81, "duration": 295, "velocity": 120}, {"time": 190881, "pitch": 84, "duration": 140, "velocity": 120}, {"time": 191358, "pitch": 84, "duration": 151, "velocity": 120}, {"time": 191518, "pitch": 81, "duration": 246, "velocity": 120}, {"time": 191836, "pitch": 79, "duration": 106, "velocity": 120}, {"time": 191995, "pitch": 84, "duration": 282, "velocity": 120}, {"time": 194242, "pitch": 79, "duration": 126, "velocity": 120}, {"time": 194405, "pitch": 81, "duration": 294, "velocity": 120}, {"time": 194723, "pitch": 84, "duration": 140, "velocity": 120}, {"time": 195201, "pitch": 84, "duration": 150, "velocity": 120}, {"time": 195360, "pitch": 81, "duration": 247, "velocity": 120}, {"time": 195678, "pitch": 84, "duration": 107, "velocity": 120}, {"time": 195837, "pitch": 86, "duration": 265, "velocity": 120}, {"time": 196315, "pitch": 81, "duration": 229, "velocity": 120}, {"time": 196803, "pitch": 79, "duration": 299, "velocity": 120}, {"time": 197122, "pitch": 81, "duration": 125, "velocity": 120}, {"time": 197758, "pitch": 77, "duration": 301, "velocity": 120}, {"time": 198077, "pitch": 78, "duration": 160, "velocity": 120}, {"time": 198236, "pitch": 81, "duration": 124, "velocity": 120}, {"time": 198562, "pitch": 77, "duration": 148, "velocity": 120}, {"time": 198724, "pitch": 78, "duration": 310, "velocity": 120}, {"time": 199043, "pitch": 81, "duration": 109, "velocity": 120}, {"time": 199202, "pitch": 78, "duration": 286, "velocity": 120}, {"time": 199680, "pitch": 86, "duration": 225, "velocity": 120}, {"time": 205443, "pitch": 69, "duration": 1819, "velocity": 89}, {"time": 205443, "pitch": 77, "duration": 1819, "velocity": 104}, {"time": 207364, "pitch": 69, "duration": 279, "velocity": 112}, {"time": 207364, "pitch": 77, "duration": 266, "velocity": 90}, {"time": 207682, "pitch": 69, "duration": 279, "velocity": 112}, {"time": 207682, "pitch": 77, "duration": 280, "velocity": 90}, {"time": 208160, "pitch": 71, "duration": 909, "velocity": 102}, {"time": 208160, "pitch": 79, "duration": 914, "velocity": 104}, {"time": 217437, "pitch": 81, "duration": 351, "velocity": 112}, {"time": 219358, "pitch": 79, "duration": 234, "velocity": 104}, {"time": 219358, "pitch": 83, "duration": 243, "velocity": 93}, {"time": 220161, "pitch": 79, "duration": 307, "velocity": 109}, {"time": 221279, "pitch": 81, "duration": 291, "velocity": 99}, {"time": 223200, "pitch": 81, "duration": 336, "velocity": 112}, {"time": 223996, "pitch": 79, "duration": 307, "velocity": 99}, {"time": 223996, "pitch": 83, "duration": 352, "velocity": 104}, {"time": 224643, "pitch": 79, "duration": 314, "velocity": 109}, {"time": 226888, "pitch": 79, "duration": 65, "velocity": 110}, {"time": 227062, "pitch": 79, "duration": 139, "velocity": 109}, {"time": 227356, "pitch": 79, "duration": 243, "velocity": 116}, {"time": 392, "pitch": 35, "duration": 22, "velocity": 115}, {"time": 436, "pitch": 35, "duration": 22, "velocity": 115}, {"time": 480, "pitch": 38, "duration": 58, "velocity": 115}, {"time": 480, "pitch": 49, "duration": 58, "velocity": 90}, {"time": 956, "pitch": 50, "duration": 61, "velocity": 115}, {"time": 1119, "pitch": 48, "duration": 61, "velocity": 85}, {"time": 1282, "pitch": 47, "duration": 61, "velocity": 95}, {"time": 1445, "pitch": 35, "duration": 59, "velocity": 115}, {"time": 1445, "pitch": 45, "duration": 59, "velocity": 108}, {"time": 1604, "pitch": 45, "duration": 60, "velocity": 88}, {"time": 1763, "pitch": 35, "duration": 60, "velocity": 105}, {"time": 1763, "pitch": 45, "duration": 60, "velocity": 88}, {"time": 1922, "pitch": 35, "duration": 60, "velocity": 111}, {"time": 1922, "pitch": 57, "duration": 60, "velocity": 90}, {"time": 2400, "pitch": 38, "duration": 60, "velocity": 115}, {"time": 2400, "pitch": 53, "duration": 60, "velocity": 111}, {"time": 2718, "pitch": 51, "duration": 60, "velocity": 103}, {"time": 2877, "pitch": 35, "duration": 60, "velocity": 110}, {"time": 2877, "pitch": 53, "duration": 60, "velocity": 112}, {"time": 3196, "pitch": 51, "duration": 60, "velocity": 100}, {"time": 3355, "pitch": 38, "duration": 61, "velocity": 118}, {"time": 3355, "pitch": 53, "duration": 61, "velocity": 112}, {"time": 3681, "pitch": 51, "duration": 61, "velocity": 102}, {"time": 3843, "pitch": 35, "duration": 60, "velocity": 110}, {"time": 3843, "pitch": 53, "duration": 60, "velocity": 110}, {"time": 4162, "pitch": 51, "duration": 59, "velocity": 102}, {"time": 4321, "pitch": 38, "duration": 60, "velocity": 115}, {"time": 4321, "pitch": 53, "duration": 60, "velocity": 111}, {"time": 4639, "pitch": 51, "duration": 60, "velocity": 103}, {"time": 4799, "pitch": 35, "duration": 59, "velocity": 111}, {"time": 4799, "pitch": 53, "duration": 59, "velocity": 112}, {"time": 5117, "pitch": 51, "duration": 60, "velocity": 101}, {"time": 5276, "pitch": 38, "duration": 61, "velocity": 118}, {"time": 5276, "pitch": 53, "duration": 61, "velocity": 110}, {"time": 5602, "pitch": 51, "duration": 61, "velocity": 102}, {"time": 5764, "pitch": 35, "duration": 60, "velocity": 114}, {"time": 5764, "pitch": 53, "duration": 60, "velocity": 111}, {"time": 6083, "pitch": 51, "duration": 60, "velocity": 102}, {"time": 6242, "pitch": 38, "duration": 60, "velocity": 118}, {"time": 6242, "pitch": 53, "duration": 60, "velocity": 112}, {"time": 6560, "pitch": 51, "duration": 60, "velocity": 104}, {"time": 6720, "pitch": 35, "duration": 59, "velocity": 112}, {"time": 6720, "pitch": 53, "duration": 59, "velocity": 112}, {"time": 7038, "pitch": 51, "duration": 60, "velocity": 103}, {"time": 7197, "pitch": 38, "duration": 60, "velocity": 116}, {"time": 7197, "pitch": 53, "duration": 60, "velocity": 112}, {"time": 7516, "pitch": 51, "duration": 59, "velocity": 100}, {"time": 7675, "pitch": 35, "duration": 61, "velocity": 111}, {"time": 7675, "pitch": 38, "duration": 61, "velocity": 115}, {"time": 7675, "pitch": 53, "duration": 61, "velocity": 127}, {"time": 8641, "pitch": 35, "duration": 59, "velocity": 111}, {"time": 8641, "pitch": 50, "duration": 59, "velocity": 115}, {"time": 8800, "pitch": 48, "duration": 60, "velocity": 85}, {"time": 8959, "pitch": 47, "duration": 60, "velocity": 95}, {"time": 9118, "pitch": 35, "duration": 60, "velocity": 111}, {"time": 9118, "pitch": 45, "duration": 60, "velocity": 108}, {"time": 9278, "pitch": 45, "duration": 59, "velocity": 88}, {"time": 9437, "pitch": 35, "duration": 60, "velocity": 81}, {"time": 9437, "pitch": 45, "duration": 60, "velocity": 88}, {"time": 9596, "pitch": 35, "duration": 61, "velocity": 110}, {"time": 9596, "pitch": 49, "duration": 61, "velocity": 90}, {"time": 9922, "pitch": 51, "duration": 61, "velocity": 103}, {"time": 10084, "pitch": 38, "duration": 60, "velocity": 115}, {"time": 10084, "pitch": 53, "duration": 60, "velocity": 114}, {"time": 10403, "pitch": 51, "duration": 59, "velocity": 102}, {"time": 10562, "pitch": 35, "duration": 60, "velocity": 111}, {"time": 10562, "pitch": 53, "duration": 60, "velocity": 112}, {"time": 10880, "pitch": 51, "duration": 60, "velocity": 100}, {"time": 11040, "pitch": 38, "duration": 59, "velocity": 118}, {"time": 11040, "pitch": 53, "duration": 59, "velocity": 113}, {"time": 11358, "pitch": 51, "duration": 60, "velocity": 101}, {"time": 11517, "pitch": 35, "duration": 60, "velocity": 114}, {"time": 11517, "pitch": 53, "duration": 60, "velocity": 112}, {"time": 11836, "pitch": 51, "duration": 59, "velocity": 104}, {"time": 11995, "pitch": 38, "duration": 61, "velocity": 118}, {"time": 11995, "pitch": 53, "duration": 61, "velocity": 114}, {"time": 12320, "pitch": 51, "duration": 61, "velocity": 103}, {"time": 12483, "pitch": 35, "duration": 60, "velocity": 112}, {"time": 12483, "pitch": 53, "duration": 60, "velocity": 127}, {"time": 12801, "pitch": 53, "duration": 60, "velocity": 111}, {"time": 12961, "pitch": 38, "duration": 59, "velocity": 116}, {"time": 13279, "pitch": 35, "duration": 60, "velocity": 81}, {"time": 13279, "pitch": 49, "duration": 60, "velocity": 90}, {"time": 13438, "pitch": 35, "duration": 60, "velocity": 111}, {"time": 13438, "pitch": 57, "duration": 60, "velocity": 90}, {"time": 13916, "pitch": 38, "duration": 61, "velocity": 115}, {"time": 13916, "pitch": 53, "duration": 61, "velocity": 111}, {"time": 14241, "pitch": 51, "duration": 61, "velocity": 103}, {"time": 14404, "pitch": 35, "duration": 60, "velocity": 110}, {"time": 14404, "pitch": 53, "duration": 60, "velocity": 112}, {"time": 14723, "pitch": 51, "duration": 59, "velocity": 100}, {"time": 14882, "pitch": 38, "duration": 59, "velocity": 118}, {"time": 14882, "pitch": 53, "duration": 59, "velocity": 112}, {"time": 15200, "pitch": 51, "duration": 60, "velocity": 102}, {"time": 15359, "pitch": 35, "duration": 60, "velocity": 111}, {"time": 15359, "pitch": 38, "duration": 60, "velocity": 125}, {"time": 15359, "pitch": 42, "duration": 60, "velocity": 104}, {"time": 15519, "pitch": 38, "duration": 59, "velocity": 95}, {"time": 15678, "pitch": 38, "duration": 59, "velocity": 105}, {"time": 15678, "pitch": 42, "duration": 59, "velocity": 61}, {"time": 15837, "pitch": 35, "duration": 61, "velocity": 111}, {"time": 15837, "pitch": 38, "duration": 61, "velocity": 118}, {"time": 15837, "pitch": 42, "duration": 61, "velocity": 103}, {"time": 16000, "pitch": 38, "duration": 61, "velocity": 98}, {"time": 16163, "pitch": 35, "duration": 61, "velocity": 81}, {"time": 16163, "pitch": 38, "duration": 61, "velocity": 98}, {"time": 16163, "pitch": 42, "duration": 61, "velocity": 60}, {"time": 16325, "pitch": 35, "duration": 60, "velocity": 111}, {"time": 16325, "pitch": 38, "duration": 60, "velocity": 118}, {"time": 16325, "pitch": 42, "duration": 60, "velocity": 102}, {"time": 17280, "pitch": 35, "duration": 60, "velocity": 111}, {"time": 17280, "pitch": 57, "duration": 60, "velocity": 90}, {"time": 17599, "pitch": 42, "duration": 60, "velocity": 61}, {"time": 17758, "pitch": 38, "duration": 60, "velocity": 115}, {"time": 17758, "pitch": 42, "duration": 60, "velocity": 101}, {"time": 18076, "pitch": 42, "duration": 60, "velocity": 63}, {"time": 18236, "pitch": 35, "duration": 61, "velocity": 110}, {"time": 18236, "pitch": 42, "duration": 61, "velocity": 104}, {"time": 18561, "pitch": 42, "duration": 61, "velocity": 61}, {"time": 18724, "pitch": 38, "duration": 60, "velocity": 118}, {"time": 18724, "pitch": 42, "duration": 60, "velocity": 103}, {"time": 19042, "pitch": 42, "duration": 60, "velocity": 60}, {"time": 19202, "pitch": 35, "duration": 59, "velocity": 110}, {"time": 19202, "pitch": 42, "duration": 59, "velocity": 103}, {"time": 19520, "pitch": 42, "duration": 60, "velocity": 61}, {"time": 19679, "pitch": 38, "duration": 60, "velocity": 115}, {"time": 19679, "pitch": 42, "duration": 60, "velocity": 101}, {"time": 19998, "pitch": 42, "duration": 59, "velocity": 63}, {"time": 20157, "pitch": 35, "duration": 61, "velocity": 111}, {"time": 20157, "pitch": 42, "duration": 61, "velocity": 104}, {"time": 20482, "pitch": 42, "duration": 61, "velocity": 61}, {"time": 20645, "pitch": 38, "duration": 60, "velocity": 118}, {"time": 20645, "pitch": 42, "duration": 60, "velocity": 103}, {"time": 20963, "pitch": 42, "duration": 60, "velocity": 60}, {"time": 21123, "pitch": 35, "duration": 59, "velocity": 114}, {"time": 21123, "pitch": 42, "duration": 59, "velocity": 101}, {"time": 21441, "pitch": 42, "duration": 60, "velocity": 62}, {"time": 21600, "pitch": 38, "duration": 60, "velocity": 118}, {"time": 21600, "pitch": 42, "duration": 60, "velocity": 101}, {"time": 21919, "pitch": 42, "duration": 59, "velocity": 61}, {"time": 22078, "pitch": 35, "duration": 60, "velocity": 112}, {"time": 22078, "pitch": 42, "duration": 60, "velocity": 101}, {"time": 22396, "pitch": 42, "duration": 60, "velocity": 63}, {"time": 22556, "pitch": 38, "duration": 60, "velocity": 116}, {"time": 22556, "pitch": 42, "duration": 60, "velocity": 104}, {"time": 22881, "pitch": 42, "duration": 61, "velocity": 62}, {"time": 23044, "pitch": 35, "duration": 60, "velocity": 111}, {"time": 23044, "pitch": 42, "duration": 60, "velocity": 104}, {"time": 23362, "pitch": 42, "duration": 60, "velocity": 61}, {"time": 23521, "pitch": 38, "duration": 60, "velocity": 115}, {"time": 23521, "pitch": 42, "duration": 60, "velocity": 104}, {"time": 23840, "pitch": 42, "duration": 60, "velocity": 63}, {"time": 23999, "pitch": 35, "duration": 60, "velocity": 110}, {"time": 23999, "pitch": 42, "duration": 60, "velocity": 103}, {"time": 24317, "pitch": 42, "duration": 60, "velocity": 61}, {"time": 24477, "pitch": 38, "duration": 61, "velocity": 118}, {"time": 24477, "pitch": 42, "duration": 61, "velocity": 103}, {"time": 24802, "pitch": 42, "duration": 61, "velocity": 64}, {"time": 24965, "pitch": 35, "duration": 60, "velocity": 110}, {"time": 24965, "pitch": 42, "duration": 60, "velocity": 104}, {"time": 24965, "pitch": 57, "duration": 60, "velocity": 90}, {"time": 25283, "pitch": 42, "duration": 60, "velocity": 64}, {"time": 25443, "pitch": 38, "duration": 59, "velocity": 115}, {"time": 25443, "pitch": 42, "duration": 59, "velocity": 101}, {"time": 25761, "pitch": 42, "duration": 60, "velocity": 62}, {"time": 25920, "pitch": 35, "duration": 60, "velocity": 111}, {"time": 25920, "pitch": 42, "duration": 60, "velocity": 102}, {"time": 26239, "pitch": 42, "duration": 59, "velocity": 62}, {"time": 26398, "pitch": 38, "duration": 59, "velocity": 118}, {"time": 26398, "pitch": 42, "duration": 59, "velocity": 100}, {"time": 26716, "pitch": 42, "duration": 60, "velocity": 60}, {"time": 26875, "pitch": 35, "duration": 61, "velocity": 114}, {"time": 26875, "pitch": 42, "duration": 61, "velocity": 100}, {"time": 27201, "pitch": 42, "duration": 61, "velocity": 61}, {"time": 27364, "pitch": 38, "duration": 59, "velocity": 118}, {"time": 27364, "pitch": 42, "duration": 59, "velocity": 100}, {"time": 27682, "pitch": 42, "duration": 60, "velocity": 60}, {"time": 27841, "pitch": 35, "duration": 60, "velocity": 112}, {"time": 27841, "pitch": 42, "duration": 60, "velocity": 103}, {"time": 28160, "pitch": 42, "duration": 59, "velocity": 82}, {"time": 28319, "pitch": 38, "duration": 60, "velocity": 116}, {"time": 28319, "pitch": 42, "duration": 60, "velocity": 100}, {"time": 28637, "pitch": 42, "duration": 60, "velocity": 100}, {"time": 28796, "pitch": 35, "duration": 61, "velocity": 111}, {"time": 28796, "pitch": 42, "duration": 61, "velocity": 103}, {"time": 29122, "pitch": 42, "duration": 61, "velocity": 61}, {"time": 29285, "pitch": 38, "duration": 59, "velocity": 115}, {"time": 29285, "pitch": 42, "duration": 59, "velocity": 101}, {"time": 29603, "pitch": 42, "duration": 60, "velocity": 63}, {"time": 29762, "pitch": 35, "duration": 60, "velocity": 110}, {"time": 29762, "pitch": 42, "duration": 60, "velocity": 104}, {"time": 30081, "pitch": 42, "duration": 59, "velocity": 61}, {"time": 30240, "pitch": 38, "duration": 60, "velocity": 118}, {"time": 30240, "pitch": 42, "duration": 60, "velocity": 103}, {"time": 30558, "pitch": 42, "duration": 60, "velocity": 60}, {"time": 30718, "pitch": 35, "duration": 59, "velocity": 110}, {"time": 30718, "pitch": 42, "duration": 59, "velocity": 103}, {"time": 31036, "pitch": 35, "duration": 60, "velocity": 110}, {"time": 31036, "pitch": 42, "duration": 60, "velocity": 61}, {"time": 31195, "pitch": 38, "duration": 61, "velocity": 125}, {"time": 31195, "pitch": 42, "duration": 61, "velocity": 101}, {"time": 31521, "pitch": 38, "duration": 61, "velocity": 105}, {"time": 31521, "pitch": 42, "duration": 61, "velocity": 63}, {"time": 31683, "pitch": 35, "duration": 60, "velocity": 111}, {"time": 31683, "pitch": 38, "duration": 60, "velocity": 125}, {"time": 31683, "pitch": 42, "duration": 60, "velocity": 104}, {"time": 31843, "pitch": 38, "duration": 59, "velocity": 95}, {"time": 32002, "pitch": 38, "duration": 60, "velocity": 105}, {"time": 32002, "pitch": 42, "duration": 60, "velocity": 61}, {"time": 32161, "pitch": 35, "duration": 60, "velocity": 111}, {"time": 32161, "pitch": 38, "duration": 60, "velocity": 118}, {"time": 32161, "pitch": 42, "duration": 60, "velocity": 103}, {"time": 32320, "pitch": 38, "duration": 60, "velocity": 98}, {"time": 32480, "pitch": 35, "duration": 59, "velocity": 81}, {"time": 32480, "pitch": 38, "duration": 59, "velocity": 98}, {"time": 32480, "pitch": 42, "duration": 59, "velocity": 60}, {"time": 32639, "pitch": 35, "duration": 59, "velocity": 114}, {"time": 32639, "pitch": 42, "duration": 59, "velocity": 103}, {"time": 32639, "pitch": 49, "duration": 59, "velocity": 90}, {"time": 32957, "pitch": 42, "duration": 60, "velocity": 61}, {"time": 33116, "pitch": 38, "duration": 61, "velocity": 118}, {"time": 33116, "pitch": 42, "duration": 61, "velocity": 101}, {"time": 33442, "pitch": 42, "duration": 61, "velocity": 63}, {"time": 33605, "pitch": 35, "duration": 59, "velocity": 112}, {"time": 33605, "pitch": 42, "duration": 59, "velocity": 104}, {"time": 33923, "pitch": 42, "duration": 60, "velocity": 61}, {"time": 34082, "pitch": 38, "duration": 60, "velocity": 116}, {"time": 34082, "pitch": 42, "duration": 60, "velocity": 103}, {"time": 34401, "pitch": 42, "duration": 59, "velocity": 60}, {"time": 34560, "pitch": 35, "duration": 60, "velocity": 111}, {"time": 34560, "pitch": 42, "duration": 60, "velocity": 103}, {"time": 34878, "pitch": 42, "duration": 60, "velocity": 61}, {"time": 35037, "pitch": 38, "duration": 60, "velocity": 115}, {"time": 35037, "pitch": 42, "duration": 60, "velocity": 101}, {"time": 35356, "pitch": 42, "duration": 60, "velocity": 63}, {"time": 35515, "pitch": 35, "duration": 61, "velocity": 110}, {"time": 35515, "pitch": 42, "duration": 61, "velocity": 104}, {"time": 35841, "pitch": 42, "duration": 61, "velocity": 61}, {"time": 36003, "pitch": 38, "duration": 60, "velocity": 118}, {"time": 36003, "pitch": 42, "duration": 60, "velocity": 103}, {"time": 36322, "pitch": 42, "duration": 59, "velocity": 60}, {"time": 36481, "pitch": 35, "duration": 60, "velocity": 111}, {"time": 36481, "pitch": 42, "duration": 60, "velocity": 103}, {"time": 36799, "pitch": 42, "duration": 60, "velocity": 61}, {"time": 36959, "pitch": 38, "duration": 59, "velocity": 115}, {"time": 36959, "pitch": 42, "duration": 59, "velocity": 101}, {"time": 37277, "pitch": 42, "duration": 60, "velocity": 63}, {"time": 37436, "pitch": 35, "duration": 61, "velocity": 110}, {"time": 37436, "pitch": 42, "duration": 61, "velocity": 104}, {"time": 37762, "pitch": 42, "duration": 61, "velocity": 61}, {"time": 37924, "pitch": 38, "duration": 60, "velocity": 118}, {"time": 37924, "pitch": 42, "duration": 60, "velocity": 103}, {"time": 38243, "pitch": 42, "duration": 60, "velocity": 60}, {"time": 38402, "pitch": 35, "duration": 60, "velocity": 110}, {"time": 38402, "pitch": 42, "duration": 60, "velocity": 103}, {"time": 38720, "pitch": 42, "duration": 60, "velocity": 61}, {"time": 38880, "pitch": 38, "duration": 59, "velocity": 115}, {"time": 38880, "pitch": 42, "duration": 59, "velocity": 101}, {"time": 39198, "pitch": 42, "duration": 60, "velocity": 63}, {"time": 39357, "pitch": 35, "duration": 60, "velocity": 111}, {"time": 39357, "pitch": 42, "duration": 60, "velocity": 104}, {"time": 39676, "pitch": 38, "duration": 59, "velocity": 98}, {"time": 39676, "pitch": 42, "duration": 59, "velocity": 61}, {"time": 39835, "pitch": 38, "duration": 61, "velocity": 118}, {"time": 39835, "pitch": 42, "duration": 61, "velocity": 103}, {"time": 39998, "pitch": 38, "duration": 61, "velocity": 108}, {"time": 40160, "pitch": 35, "duration": 61, "velocity": 104}, {"time": 40160, "pitch": 42, "duration": 61, "velocity": 60}, {"time": 40160, "pitch": 49, "duration": 61, "velocity": 90}, {"time": 40323, "pitch": 35, "duration": 60, "velocity": 114}, {"time": 40323, "pitch": 57, "duration": 60, "velocity": 90}, {"time": 42244, "pitch": 35, "duration": 60, "velocity": 111}, {"time": 42563, "pitch": 47, "duration": 59, "velocity": 70}, {"time": 42722, "pitch": 35, "duration": 60, "velocity": 91}, {"time": 42722, "pitch": 45, "duration": 60, "velocity": 80}, {"time": 42722, "pitch": 47, "duration": 60, "velocity": 80}, {"time": 43040, "pitch": 35, "duration": 60, "velocity": 80}, {"time": 43040, "pitch": 43, "duration": 60, "velocity": 73}, {"time": 43040, "pitch": 45, "duration": 60, "velocity": 90}, {"time": 43518, "pitch": 35, "duration": 60, "velocity": 110}, {"time": 43677, "pitch": 38, "duration": 60, "velocity": 127}, {"time": 43677, "pitch": 47, "duration": 60, "velocity": 83}, {"time": 43836, "pitch": 35, "duration": 60, "velocity": 80}, {"time": 43996, "pitch": 35, "duration": 59, "velocity": 70}, {"time": 44155, "pitch": 35, "duration": 61, "velocity": 111}, {"time": 44155, "pitch": 57, "duration": 61, "velocity": 90}, {"time": 44643, "pitch": 38, "duration": 60, "velocity": 115}, {"time": 44643, "pitch": 53, "duration": 60, "velocity": 111}, {"time": 44961, "pitch": 51, "duration": 60, "velocity": 103}, {"time": 45121, "pitch": 35, "duration": 59, "velocity": 110}, {"time": 45121, "pitch": 53, "duration": 59, "velocity": 112}, {"time": 45439, "pitch": 51, "duration": 60, "velocity": 100}, {"time": 45598, "pitch": 38, "duration": 60, "velocity": 118}, {"time": 45598, "pitch": 53, "duration": 60, "velocity": 112}, {"time": 45917, "pitch": 51, "duration": 59, "velocity": 102}, {"time": 46076, "pitch": 35, "duration": 61, "velocity": 110}, {"time": 46076, "pitch": 53, "duration": 61, "velocity": 110}, {"time": 46401, "pitch": 51, "duration": 61, "velocity": 102}, {"time": 46564, "pitch": 38, "duration": 60, "velocity": 115}, {"time": 46564, "pitch": 53, "duration": 60, "velocity": 111}, {"time": 46883, "pitch": 51, "duration": 59, "velocity": 103}, {"time": 47042, "pitch": 35, "duration": 59, "velocity": 111}, {"time": 47042, "pitch": 53, "duration": 59, "velocity": 112}, {"time": 47360, "pitch": 51, "duration": 60, "velocity": 101}, {"time": 47519, "pitch": 38, "duration": 60, "velocity": 118}, {"time": 47519, "pitch": 53, "duration": 60, "velocity": 110}, {"time": 47838, "pitch": 51, "duration": 59, "velocity": 102}, {"time": 47997, "pitch": 35, "duration": 61, "velocity": 114}, {"time": 47997, "pitch": 53, "duration": 61, "velocity": 111}, {"time": 48323, "pitch": 51, "duration": 61, "velocity": 102}, {"time": 48485, "pitch": 38, "duration": 60, "velocity": 118}, {"time": 48485, "pitch": 53, "duration": 60, "velocity": 112}, {"time": 48804, "pitch": 51, "duration": 59, "velocity": 104}, {"time": 48963, "pitch": 35, "duration": 60, "velocity": 112}, {"time": 48963, "pitch": 53, "duration": 60, "velocity": 112}, {"time": 49281, "pitch": 51, "duration": 60, "velocity": 103}, {"time": 49440, "pitch": 38, "duration": 60, "velocity": 116}, {"time": 49440, "pitch": 53, "duration": 60, "velocity": 112}, {"time": 49759, "pitch": 51, "duration": 60, "velocity": 100}, {"time": 49918, "pitch": 35, "duration": 60, "velocity": 111}, {"time": 49918, "pitch": 53, "duration": 60, "velocity": 127}, {"time": 50077, "pitch": 38, "duration": 60, "velocity": 39}, {"time": 50236, "pitch": 53, "duration": 60, "velocity": 127}, {"time": 50396, "pitch": 38, "duration": 61, "velocity": 115}, {"time": 50558, "pitch": 53, "duration": 61, "velocity": 111}, {"time": 50884, "pitch": 35, "duration": 60, "velocity": 110}, {"time": 50884, "pitch": 53, "duration": 60, "velocity": 127}, {"time": 51202, "pitch": 38, "duration": 60, "velocity": 39}, {"time": 51202, "pitch": 53, "duration": 60, "velocity": 110}, {"time": 51362, "pitch": 38, "duration": 59, "velocity": 118}, {"time": 51521, "pitch": 53, "duration": 59, "velocity": 127}, {"time": 51680, "pitch": 38, "duration": 60, "velocity": 39}, {"time": 51839, "pitch": 35, "duration": 60, "velocity": 110}, {"time": 51839, "pitch": 49, "duration": 60, "velocity": 90}, {"time": 52158, "pitch": 51, "duration": 59, "velocity": 103}, {"time": 52317, "pitch": 38, "duration": 61, "velocity": 115}, {"time": 52317, "pitch": 53, "duration": 61, "velocity": 114}, {"time": 52642, "pitch": 51, "duration": 61, "velocity": 102}, {"time": 52805, "pitch": 35, "duration": 60, "velocity": 111}, {"time": 52805, "pitch": 53, "duration": 60, "velocity": 112}, {"time": 53123, "pitch": 51, "duration": 60, "velocity": 100}, {"time": 53283, "pitch": 38, "duration": 59, "velocity": 118}, {"time": 53283, "pitch": 53, "duration": 59, "velocity": 113}, {"time": 53601, "pitch": 51, "duration": 60, "velocity": 101}, {"time": 53760, "pitch": 35, "duration": 60, "velocity": 114}, {"time": 53760, "pitch": 53, "duration": 60, "velocity": 112}, {"time": 54079, "pitch": 51, "duration": 59, "velocity": 104}, {"time": 54238, "pitch": 38, "duration": 60, "velocity": 118}, {"time": 54238, "pitch": 53, "duration": 60, "velocity": 114}, {"time": 54556, "pitch": 51, "duration": 60, "velocity": 103}, {"time": 54716, "pitch": 35, "duration": 60, "velocity": 112}, {"time": 54716, "pitch": 53, "duration": 60, "velocity": 127}, {"time": 55041, "pitch": 53, "duration": 61, "velocity": 111}, {"time": 55204, "pitch": 38, "duration": 59, "velocity": 116}, {"time": 55522, "pitch": 35, "duration": 60, "velocity": 81}, {"time": 55522, "pitch": 49, "duration": 60, "velocity": 90}, {"time": 55681, "pitch": 35, "duration": 60, "velocity": 111}, {"time": 55681, "pitch": 57, "duration": 60, "velocity": 90}, {"time": 56159, "pitch": 38, "duration": 60, "velocity": 115}, {"time": 56159, "pitch": 53, "duration": 60, "velocity": 111}, {"time": 56477, "pitch": 51, "duration": 60, "velocity": 103}, {"time": 56637, "pitch": 35, "duration": 61, "velocity": 110}, {"time": 56637, "pitch": 53, "duration": 61, "velocity": 112}, {"time": 56962, "pitch": 51, "duration": 61, "velocity": 100}, {"time": 57125, "pitch": 38, "duration": 60, "velocity": 118}, {"time": 57125, "pitch": 53, "duration": 60, "velocity": 112}, {"time": 57443, "pitch": 51, "duration": 60, "velocity": 102}, {"time": 57603, "pitch": 35, "duration": 59, "velocity": 110}, {"time": 57603, "pitch": 53, "duration": 59, "velocity": 110}, {"time": 57921, "pitch": 38, "duration": 60, "velocity": 115}, {"time": 57921, "pitch": 51, "duration": 60, "velocity": 102}, {"time": 58080, "pitch": 38, "duration": 60, "velocity": 115}, {"time": 58080, "pitch": 53, "duration": 60, "velocity": 111}, {"time": 58399, "pitch": 38, "duration": 59, "velocity": 115}, {"time": 58399, "pitch": 51, "duration": 59, "velocity": 103}, {"time": 58558, "pitch": 35, "duration": 59, "velocity": 111}, {"time": 58558, "pitch": 53, "duration": 59, "velocity": 112}, {"time": 58876, "pitch": 38, "duration": 60, "velocity": 118}, {"time": 58876, "pitch": 51, "duration": 60, "velocity": 101}, {"time": 59035, "pitch": 38, "duration": 61, "velocity": 118}, {"time": 59035, "pitch": 53, "duration": 61, "velocity": 110}, {"time": 59361, "pitch": 38, "duration": 61, "velocity": 118}, {"time": 59361, "pitch": 51, "duration": 61, "velocity": 102}, {"time": 59524, "pitch": 35, "duration": 59, "velocity": 94}, {"time": 59524, "pitch": 42, "duration": 59, "velocity": 103}, {"time": 59524, "pitch": 57, "duration": 59, "velocity": 90}, {"time": 59842, "pitch": 42, "duration": 60, "velocity": 61}, {"time": 60001, "pitch": 38, "duration": 60, "velocity": 98}, {"time": 60001, "pitch": 42, "duration": 60, "velocity": 101}, {"time": 60320, "pitch": 42, "duration": 59, "velocity": 63}, {"time": 60479, "pitch": 35, "duration": 60, "velocity": 92}, {"time": 60479, "pitch": 42, "duration": 60, "velocity": 104}, {"time": 60797, "pitch": 42, "duration": 60, "velocity": 61}, {"time": 60956, "pitch": 38, "duration": 61, "velocity": 96}, {"time": 60956, "pitch": 42, "duration": 61, "velocity": 103}, {"time": 61282, "pitch": 42, "duration": 61, "velocity": 60}, {"time": 61445, "pitch": 35, "duration": 59, "velocity": 91}, {"time": 61445, "pitch": 42, "duration": 59, "velocity": 103}, {"time": 61763, "pitch": 42, "duration": 60, "velocity": 61}, {"time": 61922, "pitch": 38, "duration": 60, "velocity": 95}, {"time": 61922, "pitch": 42, "duration": 60, "velocity": 101}, {"time": 62241, "pitch": 42, "duration": 59, "velocity": 63}, {"time": 62400, "pitch": 35, "duration": 60, "velocity": 90}, {"time": 62400, "pitch": 42, "duration": 60, "velocity": 104}, {"time": 62718, "pitch": 42, "duration": 60, "velocity": 61}, {"time": 62878, "pitch": 38, "duration": 59, "velocity": 98}, {"time": 62878, "pitch": 42, "duration": 59, "velocity": 103}, {"time": 63196, "pitch": 42, "duration": 60, "velocity": 60}, {"time": 63355, "pitch": 35, "duration": 61, "velocity": 90}, {"time": 63355, "pitch": 42, "duration": 61, "velocity": 101}, {"time": 63681, "pitch": 42, "duration": 61, "velocity": 62}, {"time": 63843, "pitch": 38, "duration": 60, "velocity": 95}, {"time": 63843, "pitch": 42, "duration": 60, "velocity": 101}, {"time": 64162, "pitch": 42, "duration": 60, "velocity": 61}, {"time": 64321, "pitch": 35, "duration": 60, "velocity": 91}, {"time": 64321, "pitch": 42, "duration": 60, "velocity": 101}, {"time": 64639, "pitch": 42, "duration": 60, "velocity": 63}, {"time": 64799, "pitch": 38, "duration": 59, "velocity": 98}, {"time": 64799, "pitch": 42, "duration": 59, "velocity": 104}, {"time": 65117, "pitch": 42, "duration": 60, "velocity": 62}, {"time": 65276, "pitch": 35, "duration": 61, "velocity": 111}, {"time": 65276, "pitch": 42, "duration": 61, "velocity": 104}, {"time": 65602, "pitch": 42, "duration": 61, "velocity": 61}, {"time": 65765, "pitch": 38, "duration": 59, "velocity": 115}, {"time": 65765, "pitch": 42, "duration": 59, "velocity": 104}, {"time": 66083, "pitch": 42, "duration": 60, "velocity": 63}, {"time": 66242, "pitch": 35, "duration": 60, "velocity": 110}, {"time": 66242, "pitch": 42, "duration": 60, "velocity": 103}, {"time": 66561, "pitch": 42, "duration": 59, "velocity": 61}, {"time": 66720, "pitch": 38, "duration": 60, "velocity": 118}, {"time": 66720, "pitch": 42, "duration": 60, "velocity": 103}, {"time": 67038, "pitch": 42, "duration": 60, "velocity": 64}, {"time": 67197, "pitch": 35, "duration": 60, "velocity": 91}, {"time": 67197, "pitch": 42, "duration": 60, "velocity": 104}, {"time": 67197, "pitch": 57, "duration": 60, "velocity": 90}, {"time": 67516, "pitch": 42, "duration": 60, "velocity": 64}, {"time": 67675, "pitch": 38, "duration": 61, "velocity": 95}, {"time": 67675, "pitch": 42, "duration": 61, "velocity": 101}, {"time": 68001, "pitch": 42, "duration": 61, "velocity": 62}, {"time": 68163, "pitch": 35, "duration": 60, "velocity": 90}, {"time": 68163, "pitch": 42, "duration": 60, "velocity": 102}, {"time": 68482, "pitch": 42, "duration": 59, "velocity": 62}, {"time": 68641, "pitch": 38, "duration": 60, "velocity": 98}, {"time": 68641, "pitch": 42, "duration": 60, "velocity": 100}, {"time": 68959, "pitch": 42, "duration": 60, "velocity": 60}, {"time": 69119, "pitch": 35, "duration": 59, "velocity": 90}, {"time": 69119, "pitch": 42, "duration": 59, "velocity": 100}, {"time": 69437, "pitch": 42, "duration": 60, "velocity": 61}, {"time": 69596, "pitch": 38, "duration": 61, "velocity": 95}, {"time": 69596, "pitch": 42, "duration": 61, "velocity": 100}, {"time": 69922, "pitch": 42, "duration": 61, "velocity": 60}, {"time": 70084, "pitch": 35, "duration": 60, "velocity": 91}, {"time": 70084, "pitch": 42, "duration": 60, "velocity": 103}, {"time": 70403, "pitch": 42, "duration": 60, "velocity": 82}, {"time": 70562, "pitch": 38, "duration": 60, "velocity": 98}, {"time": 70562, "pitch": 42, "duration": 60, "velocity": 100}, {"time": 70880, "pitch": 42, "duration": 60, "velocity": 100}, {"time": 71040, "pitch": 35, "duration": 59, "velocity": 111}, {"time": 71040, "pitch": 42, "duration": 59, "velocity": 103}, {"time": 71358, "pitch": 42, "duration": 60, "velocity": 61}, {"time": 71517, "pitch": 38, "duration": 60, "velocity": 115}, {"time": 71517, "pitch": 42, "duration": 60, "velocity": 101}, {"time": 71836, "pitch": 42, "duration": 59, "velocity": 63}, {"time": 71995, "pitch": 35, "duration": 61, "velocity": 110}, {"time": 71995, "pitch": 42, "duration": 61, "velocity": 104}, {"time": 72320, "pitch": 42, "duration": 61, "velocity": 61}, {"time": 72483, "pitch": 38, "duration": 60, "velocity": 118}, {"time": 72483, "pitch": 42, "duration": 60, "velocity": 103}, {"time": 72802, "pitch": 42, "duration": 59, "velocity": 60}, {"time": 72961, "pitch": 35, "duration": 59, "velocity": 110}, {"time": 72961, "pitch": 42, "duration": 59, "velocity": 103}, {"time": 73279, "pitch": 35, "duration": 60, "velocity": 110}, {"time": 73279, "pitch": 42, "duration": 60, "velocity": 61}, {"time": 73438, "pitch": 38, "duration": 60, "velocity": 125}, {"time": 73438, "pitch": 42, "duration": 60, "velocity": 101}, {"time": 73757, "pitch": 38, "duration": 59, "velocity": 105}, {"time": 73757, "pitch": 42, "duration": 59, "velocity": 63}, {"time": 73916, "pitch": 35, "duration": 61, "velocity": 111}, {"time": 73916, "pitch": 38, "duration": 61, "velocity": 125}, {"time": 73916, "pitch": 42, "duration": 61, "velocity": 104}, {"time": 74079, "pitch": 38, "duration": 61, "velocity": 95}, {"time": 74242, "pitch": 38, "duration": 61, "velocity": 105}, {"time": 74242, "pitch": 42, "duration": 61, "velocity": 61}, {"time": 74404, "pitch": 35, "duration": 60, "velocity": 111}, {"time": 74404, "pitch": 38, "duration": 60, "velocity": 118}, {"time": 74404, "pitch": 42, "duration": 60, "velocity": 103}, {"time": 74563, "pitch": 38, "duration": 60, "velocity": 98}, {"time": 74723, "pitch": 35, "duration": 59, "velocity": 81}, {"time": 74723, "pitch": 38, "duration": 59, "velocity": 98}, {"time": 74723, "pitch": 42, "duration": 59, "velocity": 60}, {"time": 74882, "pitch": 35, "duration": 60, "velocity": 114}, {"time": 74882, "pitch": 42, "duration": 60, "velocity": 103}, {"time": 74882, "pitch": 49, "duration": 60, "velocity": 90}, {"time": 75200, "pitch": 42, "duration": 60, "velocity": 61}, {"time": 75359, "pitch": 38, "duration": 60, "velocity": 118}, {"time": 75359, "pitch": 42, "duration": 60, "velocity": 101}, {"time": 75678, "pitch": 42, "duration": 60, "velocity": 63}, {"time": 75837, "pitch": 35, "duration": 60, "velocity": 112}, {"time": 75837, "pitch": 42, "duration": 60, "velocity": 104}, {"time": 76156, "pitch": 42, "duration": 59, "velocity": 61}, {"time": 76315, "pitch": 38, "duration": 61, "velocity": 116}, {"time": 76315, "pitch": 42, "duration": 61, "velocity": 103}, {"time": 76640, "pitch": 42, "duration": 61, "velocity": 60}, {"time": 76803, "pitch": 35, "duration": 60, "velocity": 111}, {"time": 76803, "pitch": 42, "duration": 60, "velocity": 103}, {"time": 77121, "pitch": 42, "duration": 60, "velocity": 61}, {"time": 77281, "pitch": 38, "duration": 59, "velocity": 115}, {"time": 77281, "pitch": 42, "duration": 59, "velocity": 101}, {"time": 77599, "pitch": 42, "duration": 60, "velocity": 63}, {"time": 77758, "pitch": 35, "duration": 60, "velocity": 110}, {"time": 77758, "pitch": 42, "duration": 60, "velocity": 104}, {"time": 78077, "pitch": 42, "duration": 59, "velocity": 61}, {"time": 78236, "pitch": 38, "duration": 61, "velocity": 118}, {"time": 78236, "pitch": 42, "duration": 61, "velocity": 103}, {"time": 78561, "pitch": 42, "duration": 61, "velocity": 60}, {"time": 78724, "pitch": 35, "duration": 60, "velocity": 111}, {"time": 78724, "pitch": 42, "duration": 60, "velocity": 103}, {"time": 79043, "pitch": 42, "duration": 59, "velocity": 61}, {"time": 79202, "pitch": 38, "duration": 59, "velocity": 115}, {"time": 79202, "pitch": 42, "duration": 59, "velocity": 101}, {"time": 79520, "pitch": 42, "duration": 60, "velocity": 63}, {"time": 79679, "pitch": 35, "duration": 60, "velocity": 110}, {"time": 79679, "pitch": 42, "duration": 60, "velocity": 104}, {"time": 79998, "pitch": 42, "duration": 59, "velocity": 61}, {"time": 80157, "pitch": 38, "duration": 61, "velocity": 118}, {"time": 80157, "pitch": 42, "duration": 61, "velocity": 103}, {"time": 80483, "pitch": 42, "duration": 61, "velocity": 60}, {"time": 80645, "pitch": 35, "duration": 60, "velocity": 110}, {"time": 80645, "pitch": 42, "duration": 60, "velocity": 103}, {"time": 80964, "pitch": 42, "duration": 59, "velocity": 61}, {"time": 81123, "pitch": 38, "duration": 60, "velocity": 115}, {"time": 81123, "pitch": 42, "duration": 60, "velocity": 101}, {"time": 81441, "pitch": 42, "duration": 60, "velocity": 63}, {"time": 81600, "pitch": 35, "duration": 60, "velocity": 111}, {"time": 81600, "pitch": 42, "duration": 60, "velocity": 104}, {"time": 81919, "pitch": 38, "duration": 60, "velocity": 98}, {"time": 81919, "pitch": 42, "duration": 60, "velocity": 61}, {"time": 82078, "pitch": 38, "duration": 60, "velocity": 118}, {"time": 82078, "pitch": 42, "duration": 60, "velocity": 103}, {"time": 82237, "pitch": 38, "duration": 60, "velocity": 108}, {"time": 82396, "pitch": 35, "duration": 60, "velocity": 104}, {"time": 82396, "pitch": 42, "duration": 60, "velocity": 60}, {"time": 82396, "pitch": 49, "duration": 60, "velocity": 90}, {"time": 82556, "pitch": 35, "duration": 61, "velocity": 114}, {"time": 82556, "pitch": 57, "duration": 61, "velocity": 90}, {"time": 84477, "pitch": 35, "duration": 61, "velocity": 111}, {"time": 84802, "pitch": 47, "duration": 61, "velocity": 70}, {"time": 84965, "pitch": 35, "duration": 60, "velocity": 91}, {"time": 84965, "pitch": 45, "duration": 60, "velocity": 80}, {"time": 84965, "pitch": 47, "duration": 60, "velocity": 80}, {"time": 85283, "pitch": 35, "duration": 60, "velocity": 80}, {"time": 85283, "pitch": 43, "duration": 60, "velocity": 73}, {"time": 85283, "pitch": 45, "duration": 60, "velocity": 90}, {"time": 85761, "pitch": 35, "duration": 60, "velocity": 110}, {"time": 85920, "pitch": 38, "duration": 60, "velocity": 127}, {"time": 85920, "pitch": 47, "duration": 60, "velocity": 83}, {"time": 86079, "pitch": 35, "duration": 60, "velocity": 80}, {"time": 86239, "pitch": 35, "duration": 59, "velocity": 70}, {"time": 86398, "pitch": 35, "duration": 60, "velocity": 111}, {"time": 86398, "pitch": 57, "duration": 60, "velocity": 90}, {"time": 86876, "pitch": 38, "duration": 60, "velocity": 115}, {"time": 86876, "pitch": 53, "duration": 60, "velocity": 111}, {"time": 87201, "pitch": 51, "duration": 61, "velocity": 103}, {"time": 87364, "pitch": 35, "duration": 59, "velocity": 110}, {"time": 87364, "pitch": 53, "duration": 59, "velocity": 112}, {"time": 87682, "pitch": 51, "duration": 60, "velocity": 100}, {"time": 87841, "pitch": 38, "duration": 60, "velocity": 118}, {"time": 87841, "pitch": 53, "duration": 60, "velocity": 112}, {"time": 88160, "pitch": 51, "duration": 60, "velocity": 102}, {"time": 88319, "pitch": 35, "duration": 60, "velocity": 110}, {"time": 88319, "pitch": 53, "duration": 60, "velocity": 110}, {"time": 88637, "pitch": 51, "duration": 60, "velocity": 102}, {"time": 88797, "pitch": 38, "duration": 61, "velocity": 115}, {"time": 88797, "pitch": 53, "duration": 61, "velocity": 111}, {"time": 89122, "pitch": 51, "duration": 61, "velocity": 103}, {"time": 89285, "pitch": 35, "duration": 60, "velocity": 111}, {"time": 89285, "pitch": 53, "duration": 60, "velocity": 112}, {"time": 89603, "pitch": 51, "duration": 60, "velocity": 101}, {"time": 89763, "pitch": 38, "duration": 59, "velocity": 118}, {"time": 89763, "pitch": 53, "duration": 59, "velocity": 110}, {"time": 90081, "pitch": 51, "duration": 60, "velocity": 102}, {"time": 90240, "pitch": 35, "duration": 60, "velocity": 114}, {"time": 90240, "pitch": 53, "duration": 60, "velocity": 111}, {"time": 90559, "pitch": 51, "duration": 59, "velocity": 102}, {"time": 90718, "pitch": 38, "duration": 59, "velocity": 118}, {"time": 90718, "pitch": 53, "duration": 59, "velocity": 112}, {"time": 91036, "pitch": 51, "duration": 60, "velocity": 104}, {"time": 91195, "pitch": 35, "duration": 61, "velocity": 112}, {"time": 91195, "pitch": 53, "duration": 61, "velocity": 112}, {"time": 91521, "pitch": 51, "duration": 61, "velocity": 103}, {"time": 91684, "pitch": 38, "duration": 59, "velocity": 116}, {"time": 91684, "pitch": 53, "duration": 59, "velocity": 112}, {"time": 92002, "pitch": 51, "duration": 60, "velocity": 100}, {"time": 92161, "pitch": 35, "duration": 60, "velocity": 111}, {"time": 92161, "pitch": 53, "duration": 60, "velocity": 127}, {"time": 92320, "pitch": 38, "duration": 60, "velocity": 39}, {"time": 92480, "pitch": 53, "duration": 59, "velocity": 127}, {"time": 92639, "pitch": 38, "duration": 60, "velocity": 115}, {"time": 92798, "pitch": 53, "duration": 60, "velocity": 111}, {"time": 93116, "pitch": 35, "duration": 61, "velocity": 110}, {"time": 93116, "pitch": 53, "duration": 61, "velocity": 127}, {"time": 93442, "pitch": 38, "duration": 61, "velocity": 39}, {"time": 93442, "pitch": 53, "duration": 61, "velocity": 110}, {"time": 93605, "pitch": 38, "duration": 59, "velocity": 118}, {"time": 93764, "pitch": 53, "duration": 60, "velocity": 127}, {"time": 93923, "pitch": 38, "duration": 60, "velocity": 39}, {"time": 94082, "pitch": 35, "duration": 60, "velocity": 110}, {"time": 94082, "pitch": 49, "duration": 60, "velocity": 90}, {"time": 94401, "pitch": 51, "duration": 59, "velocity": 103}, {"time": 94560, "pitch": 38, "duration": 60, "velocity": 115}, {"time": 94560, "pitch": 53, "duration": 60, "velocity": 114}, {"time": 94878, "pitch": 51, "duration": 60, "velocity": 102}, {"time": 95038, "pitch": 35, "duration": 59, "velocity": 111}, {"time": 95038, "pitch": 53, "duration": 59, "velocity": 112}, {"time": 95356, "pitch": 51, "duration": 60, "velocity": 100}, {"time": 95515, "pitch": 38, "duration": 61, "velocity": 118}, {"time": 95515, "pitch": 53, "duration": 61, "velocity": 113}, {"time": 95841, "pitch": 51, "duration": 61, "velocity": 101}, {"time": 96003, "pitch": 35, "duration": 60, "velocity": 114}, {"time": 96003, "pitch": 53, "duration": 60, "velocity": 112}, {"time": 96322, "pitch": 51, "duration": 60, "velocity": 104}, {"time": 96481, "pitch": 38, "duration": 60, "velocity": 118}, {"time": 96481, "pitch": 53, "duration": 60, "velocity": 114}, {"time": 96799, "pitch": 51, "duration": 60, "velocity": 103}, {"time": 96959, "pitch": 35, "duration": 59, "velocity": 112}, {"time": 96959, "pitch": 53, "duration": 59, "velocity": 127}, {"time": 97277, "pitch": 53, "duration": 60, "velocity": 111}, {"time": 97436, "pitch": 38, "duration": 61, "velocity": 116}, {"time": 97762, "pitch": 35, "duration": 61, "velocity": 81}, {"time": 97762, "pitch": 49, "duration": 61, "velocity": 90}, {"time": 97925, "pitch": 35, "duration": 59, "velocity": 111}, {"time": 97925, "pitch": 57, "duration": 59, "velocity": 90}, {"time": 98402, "pitch": 38, "duration": 60, "velocity": 115}, {"time": 98402, "pitch": 53, "duration": 60, "velocity": 111}, {"time": 98721, "pitch": 51, "duration": 59, "velocity": 103}, {"time": 98880, "pitch": 35, "duration": 59, "velocity": 110}, {"time": 98880, "pitch": 53, "duration": 59, "velocity": 112}, {"time": 99198, "pitch": 51, "duration": 60, "velocity": 100}, {"time": 99357, "pitch": 38, "duration": 60, "velocity": 118}, {"time": 99357, "pitch": 53, "duration": 60, "velocity": 112}, {"time": 99676, "pitch": 51, "duration": 60, "velocity": 102}, {"time": 99835, "pitch": 35, "duration": 61, "velocity": 110}, {"time": 99835, "pitch": 53, "duration": 61, "velocity": 110}, {"time": 100161, "pitch": 38, "duration": 61, "velocity": 115}, {"time": 100161, "pitch": 51, "duration": 61, "velocity": 102}, {"time": 100323, "pitch": 38, "duration": 60, "velocity": 115}, {"time": 100323, "pitch": 53, "duration": 60, "velocity": 111}, {"time": 100642, "pitch": 38, "duration": 59, "velocity": 115}, {"time": 100642, "pitch": 51, "duration": 59, "velocity": 103}, {"time": 100801, "pitch": 35, "duration": 60, "velocity": 111}, {"time": 100801, "pitch": 53, "duration": 60, "velocity": 112}, {"time": 101119, "pitch": 38, "duration": 60, "velocity": 118}, {"time": 101119, "pitch": 51, "duration": 60, "velocity": 101}, {"time": 101279, "pitch": 38, "duration": 59, "velocity": 118}, {"time": 101279, "pitch": 53, "duration": 59, "velocity": 110}, {"time": 101597, "pitch": 38, "duration": 60, "velocity": 118}, {"time": 101597, "pitch": 51, "duration": 60, "velocity": 102}, {"time": 101756, "pitch": 35, "duration": 61, "velocity": 111}, {"time": 101756, "pitch": 57, "duration": 61, "velocity": 90}, {"time": 102244, "pitch": 38, "duration": 60, "velocity": 115}, {"time": 102244, "pitch": 53, "duration": 60, "velocity": 111}, {"time": 102563, "pitch": 51, "duration": 60, "velocity": 103}, {"time": 102722, "pitch": 35, "duration": 60, "velocity": 110}, {"time": 102722, "pitch": 53, "duration": 60, "velocity": 112}, {"time": 103040, "pitch": 51, "duration": 60, "velocity": 100}, {"time": 103200, "pitch": 38, "duration": 59, "velocity": 118}, {"time": 103200, "pitch": 53, "duration": 59, "velocity": 112}, {"time": 103518, "pitch": 51, "duration": 60, "velocity": 102}, {"time": 103677, "pitch": 35, "duration": 60, "velocity": 110}, {"time": 103677, "pitch": 53, "duration": 60, "velocity": 110}, {"time": 103996, "pitch": 51, "duration": 59, "velocity": 102}, {"time": 104155, "pitch": 38, "duration": 61, "velocity": 115}, {"time": 104155, "pitch": 53, "duration": 61, "velocity": 111}, {"time": 104480, "pitch": 51, "duration": 61, "velocity": 103}, {"time": 104643, "pitch": 35, "duration": 60, "velocity": 111}, {"time": 104643, "pitch": 53, "duration": 60, "velocity": 112}, {"time": 104962, "pitch": 51, "duration": 59, "velocity": 101}, {"time": 105121, "pitch": 38, "duration": 59, "velocity": 118}, {"time": 105121, "pitch": 53, "duration": 59, "velocity": 110}, {"time": 105439, "pitch": 51, "duration": 60, "velocity": 102}, {"time": 105598, "pitch": 35, "duration": 60, "velocity": 114}, {"time": 105598, "pitch": 53, "duration": 60, "velocity": 111}, {"time": 105917, "pitch": 51, "duration": 59, "velocity": 102}, {"time": 106076, "pitch": 38, "duration": 61, "velocity": 118}, {"time": 106076, "pitch": 53, "duration": 61, "velocity": 112}, {"time": 106402, "pitch": 51, "duration": 61, "velocity": 104}, {"time": 106564, "pitch": 35, "duration": 60, "velocity": 112}, {"time": 106564, "pitch": 53, "duration": 60, "velocity": 112}, {"time": 106883, "pitch": 51, "duration": 59, "velocity": 103}, {"time": 107042, "pitch": 38, "duration": 60, "velocity": 116}, {"time": 107042, "pitch": 53, "duration": 60, "velocity": 112}, {"time": 107360, "pitch": 51, "duration": 60, "velocity": 100}, {"time": 107519, "pitch": 35, "duration": 60, "velocity": 111}, {"time": 107519, "pitch": 38, "duration": 60, "velocity": 115}, {"time": 107519, "pitch": 53, "duration": 60, "velocity": 127}, {"time": 108475, "pitch": 35, "duration": 61, "velocity": 111}, {"time": 108475, "pitch": 50, "duration": 61, "velocity": 115}, {"time": 108637, "pitch": 48, "duration": 61, "velocity": 85}, {"time": 108800, "pitch": 47, "duration": 61, "velocity": 95}, {"time": 108963, "pitch": 35, "duration": 60, "velocity": 111}, {"time": 108963, "pitch": 45, "duration": 60, "velocity": 108}, {"time": 109122, "pitch": 45, "duration": 60, "velocity": 88}, {"time": 109281, "pitch": 35, "duration": 60, "velocity": 81}, {"time": 109281, "pitch": 45, "duration": 60, "velocity": 88}, {"time": 109441, "pitch": 35, "duration": 59, "velocity": 110}, {"time": 109441, "pitch": 49, "duration": 59, "velocity": 90}, {"time": 109759, "pitch": 51, "duration": 60, "velocity": 103}, {"time": 109918, "pitch": 38, "duration": 60, "velocity": 115}, {"time": 109918, "pitch": 53, "duration": 60, "velocity": 114}, {"time": 110237, "pitch": 51, "duration": 59, "velocity": 102}, {"time": 110396, "pitch": 35, "duration": 61, "velocity": 111}, {"time": 110396, "pitch": 53, "duration": 61, "velocity": 112}, {"time": 110721, "pitch": 51, "duration": 61, "velocity": 100}, {"time": 110884, "pitch": 38, "duration": 60, "velocity": 118}, {"time": 110884, "pitch": 53, "duration": 60, "velocity": 113}, {"time": 111202, "pitch": 51, "duration": 60, "velocity": 101}, {"time": 111362, "pitch": 35, "duration": 59, "velocity": 114}, {"time": 111362, "pitch": 53, "duration": 59, "velocity": 112}, {"time": 111680, "pitch": 51, "duration": 60, "velocity": 104}, {"time": 111839, "pitch": 38, "duration": 60, "velocity": 118}, {"time": 111839, "pitch": 53, "duration": 60, "velocity": 114}, {"time": 112158, "pitch": 51, "duration": 59, "velocity": 103}, {"time": 112317, "pitch": 35, "duration": 61, "velocity": 112}, {"time": 112317, "pitch": 53, "duration": 61, "velocity": 127}, {"time": 112642, "pitch": 53, "duration": 62, "velocity": 111}, {"time": 112805, "pitch": 38, "duration": 60, "velocity": 116}, {"time": 113124, "pitch": 35, "duration": 59, "velocity": 81}, {"time": 113124, "pitch": 49, "duration": 59, "velocity": 90}, {"time": 113283, "pitch": 35, "duration": 60, "velocity": 111}, {"time": 113283, "pitch": 57, "duration": 60, "velocity": 90}, {"time": 113760, "pitch": 38, "duration": 60, "velocity": 115}, {"time": 113760, "pitch": 53, "duration": 60, "velocity": 111}, {"time": 114079, "pitch": 51, "duration": 60, "velocity": 103}, {"time": 114238, "pitch": 35, "duration": 60, "velocity": 110}, {"time": 114238, "pitch": 53, "duration": 60, "velocity": 112}, {"time": 114556, "pitch": 51, "duration": 60, "velocity": 100}, {"time": 114716, "pitch": 38, "duration": 61, "velocity": 118}, {"time": 114716, "pitch": 53, "duration": 61, "velocity": 112}, {"time": 115041, "pitch": 51, "duration": 61, "velocity": 102}, {"time": 115204, "pitch": 35, "duration": 60, "velocity": 111}, {"time": 115204, "pitch": 38, "duration": 60, "velocity": 125}, {"time": 115204, "pitch": 42, "duration": 60, "velocity": 104}, {"time": 115363, "pitch": 38, "duration": 60, "velocity": 95}, {"time": 115522, "pitch": 38, "duration": 60, "velocity": 105}, {"time": 115522, "pitch": 42, "duration": 60, "velocity": 61}, {"time": 115682, "pitch": 35, "duration": 59, "velocity": 111}, {"time": 115682, "pitch": 38, "duration": 59, "velocity": 118}, {"time": 115682, "pitch": 42, "duration": 59, "velocity": 103}, {"time": 115841, "pitch": 38, "duration": 59, "velocity": 98}, {"time": 116000, "pitch": 35, "duration": 60, "velocity": 81}, {"time": 116000, "pitch": 38, "duration": 60, "velocity": 98}, {"time": 116000, "pitch": 42, "duration": 60, "velocity": 60}, {"time": 116159, "pitch": 35, "duration": 60, "velocity": 111}, {"time": 116159, "pitch": 38, "duration": 60, "velocity": 118}, {"time": 116159, "pitch": 42, "duration": 60, "velocity": 102}, {"time": 117125, "pitch": 35, "duration": 60, "velocity": 111}, {"time": 117125, "pitch": 57, "duration": 60, "velocity": 90}, {"time": 117443, "pitch": 42, "duration": 60, "velocity": 61}, {"time": 117603, "pitch": 38, "duration": 59, "velocity": 115}, {"time": 117603, "pitch": 42, "duration": 59, "velocity": 101}, {"time": 117921, "pitch": 42, "duration": 60, "velocity": 63}, {"time": 118080, "pitch": 35, "duration": 60, "velocity": 110}, {"time": 118080, "pitch": 42, "duration": 60, "velocity": 104}, {"time": 118399, "pitch": 42, "duration": 59, "velocity": 61}, {"time": 118558, "pitch": 38, "duration": 60, "velocity": 118}, {"time": 118558, "pitch": 42, "duration": 60, "velocity": 103}, {"time": 118876, "pitch": 42, "duration": 60, "velocity": 60}, {"time": 119035, "pitch": 35, "duration": 61, "velocity": 110}, {"time": 119035, "pitch": 42, "duration": 61, "velocity": 103}, {"time": 119361, "pitch": 42, "duration": 61, "velocity": 61}, {"time": 119524, "pitch": 38, "duration": 59, "velocity": 115}, {"time": 119524, "pitch": 42, "duration": 59, "velocity": 101}, {"time": 119842, "pitch": 42, "duration": 60, "velocity": 63}, {"time": 120001, "pitch": 35, "duration": 60, "velocity": 111}, {"time": 120001, "pitch": 42, "duration": 60, "velocity": 104}, {"time": 120320, "pitch": 42, "duration": 59, "velocity": 61}, {"time": 120479, "pitch": 38, "duration": 60, "velocity": 118}, {"time": 120479, "pitch": 42, "duration": 60, "velocity": 103}, {"time": 120797, "pitch": 42, "duration": 60, "velocity": 60}, {"time": 120957, "pitch": 35, "duration": 61, "velocity": 114}, {"time": 120957, "pitch": 42, "duration": 61, "velocity": 101}, {"time": 121282, "pitch": 42, "duration": 61, "velocity": 62}, {"time": 121445, "pitch": 38, "duration": 60, "velocity": 118}, {"time": 121445, "pitch": 42, "duration": 60, "velocity": 101}, {"time": 121763, "pitch": 42, "duration": 60, "velocity": 61}, {"time": 121922, "pitch": 35, "duration": 60, "velocity": 112}, {"time": 121922, "pitch": 42, "duration": 60, "velocity": 101}, {"time": 122241, "pitch": 42, "duration": 60, "velocity": 63}, {"time": 122400, "pitch": 38, "duration": 60, "velocity": 116}, {"time": 122400, "pitch": 42, "duration": 60, "velocity": 104}, {"time": 122719, "pitch": 42, "duration": 59, "velocity": 62}, {"time": 122878, "pitch": 35, "duration": 59, "velocity": 111}, {"time": 122878, "pitch": 42, "duration": 59, "velocity": 104}, {"time": 123196, "pitch": 42, "duration": 60, "velocity": 61}, {"time": 123355, "pitch": 38, "duration": 61, "velocity": 115}, {"time": 123355, "pitch": 42, "duration": 61, "velocity": 104}, {"time": 123681, "pitch": 42, "duration": 61, "velocity": 63}, {"time": 123844, "pitch": 35, "duration": 59, "velocity": 110}, {"time": 123844, "pitch": 42, "duration": 59, "velocity": 103}, {"time": 124162, "pitch": 42, "duration": 60, "velocity": 61}, {"time": 124321, "pitch": 38, "duration": 60, "velocity": 118}, {"time": 124321, "pitch": 42, "duration": 60, "velocity": 103}, {"time": 124640, "pitch": 42, "duration": 59, "velocity": 64}, {"time": 124799, "pitch": 35, "duration": 60, "velocity": 110}, {"time": 124799, "pitch": 42, "duration": 60, "velocity": 104}, {"time": 124799, "pitch": 57, "duration": 60, "velocity": 90}, {"time": 125117, "pitch": 42, "duration": 60, "velocity": 64}, {"time": 125276, "pitch": 38, "duration": 61, "velocity": 115}, {"time": 125276, "pitch": 42, "duration": 61, "velocity": 101}, {"time": 125602, "pitch": 42, "duration": 61, "velocity": 62}, {"time": 125765, "pitch": 35, "duration": 59, "velocity": 111}, {"time": 125765, "pitch": 42, "duration": 59, "velocity": 102}, {"time": 126083, "pitch": 42, "duration": 60, "velocity": 62}, {"time": 126242, "pitch": 38, "duration": 60, "velocity": 118}, {"time": 126242, "pitch": 42, "duration": 60, "velocity": 100}, {"time": 126561, "pitch": 42, "duration": 59, "velocity": 60}, {"time": 126720, "pitch": 35, "duration": 60, "velocity": 114}, {"time": 126720, "pitch": 42, "duration": 60, "velocity": 100}, {"time": 127038, "pitch": 42, "duration": 60, "velocity": 61}, {"time": 127198, "pitch": 38, "duration": 59, "velocity": 118}, {"time": 127198, "pitch": 42, "duration": 59, "velocity": 100}, {"time": 127516, "pitch": 42, "duration": 60, "velocity": 60}, {"time": 127675, "pitch": 35, "duration": 61, "velocity": 112}, {"time": 127675, "pitch": 42, "duration": 61, "velocity": 103}, {"time": 128001, "pitch": 42, "duration": 61, "velocity": 82}, {"time": 128163, "pitch": 38, "duration": 60, "velocity": 116}, {"time": 128163, "pitch": 42, "duration": 60, "velocity": 100}, {"time": 128482, "pitch": 42, "duration": 60, "velocity": 100}, {"time": 128641, "pitch": 35, "duration": 60, "velocity": 111}, {"time": 128641, "pitch": 42, "duration": 60, "velocity": 103}, {"time": 128959, "pitch": 42, "duration": 60, "velocity": 61}, {"time": 129119, "pitch": 38, "duration": 59, "velocity": 115}, {"time": 129119, "pitch": 42, "duration": 59, "velocity": 101}, {"time": 129437, "pitch": 42, "duration": 60, "velocity": 63}, {"time": 129596, "pitch": 35, "duration": 61, "velocity": 110}, {"time": 129596, "pitch": 42, "duration": 61, "velocity": 104}, {"time": 129922, "pitch": 42, "duration": 61, "velocity": 61}, {"time": 130085, "pitch": 38, "duration": 59, "velocity": 118}, {"time": 130085, "pitch": 42, "duration": 59, "velocity": 103}, {"time": 130403, "pitch": 42, "duration": 60, "velocity": 60}, {"time": 130562, "pitch": 35, "duration": 60, "velocity": 110}, {"time": 130562, "pitch": 42, "duration": 60, "velocity": 103}, {"time": 130881, "pitch": 35, "duration": 59, "velocity": 110}, {"time": 130881, "pitch": 42, "duration": 59, "velocity": 61}, {"time": 131040, "pitch": 38, "duration": 59, "velocity": 125}, {"time": 131040, "pitch": 42, "duration": 59, "velocity": 101}, {"time": 131358, "pitch": 38, "duration": 60, "velocity": 105}, {"time": 131358, "pitch": 42, "duration": 60, "velocity": 63}, {"time": 131517, "pitch": 35, "duration": 60, "velocity": 111}, {"time": 131517, "pitch": 38, "duration": 60, "velocity": 125}, {"time": 131517, "pitch": 42, "duration": 60, "velocity": 104}, {"time": 131677, "pitch": 38, "duration": 59, "velocity": 95}, {"time": 131836, "pitch": 38, "duration": 60, "velocity": 105}, {"time": 131836, "pitch": 42, "duration": 60, "velocity": 61}, {"time": 131995, "pitch": 35, "duration": 61, "velocity": 111}, {"time": 131995, "pitch": 38, "duration": 61, "velocity": 118}, {"time": 131995, "pitch": 42, "duration": 61, "velocity": 103}, {"time": 132158, "pitch": 38, "duration": 61, "velocity": 98}, {"time": 132321, "pitch": 35, "duration": 61, "velocity": 81}, {"time": 132321, "pitch": 38, "duration": 61, "velocity": 98}, {"time": 132321, "pitch": 42, "duration": 61, "velocity": 60}, {"time": 132483, "pitch": 35, "duration": 60, "velocity": 114}, {"time": 132483, "pitch": 42, "duration": 60, "velocity": 103}, {"time": 132483, "pitch": 49, "duration": 60, "velocity": 90}, {"time": 132802, "pitch": 42, "duration": 59, "velocity": 61}, {"time": 132961, "pitch": 38, "duration": 60, "velocity": 118}, {"time": 132961, "pitch": 42, "duration": 60, "velocity": 101}, {"time": 133279, "pitch": 42, "duration": 60, "velocity": 63}, {"time": 133439, "pitch": 35, "duration": 59, "velocity": 112}, {"time": 133439, "pitch": 42, "duration": 59, "velocity": 104}, {"time": 133757, "pitch": 42, "duration": 60, "velocity": 61}, {"time": 133916, "pitch": 38, "duration": 61, "velocity": 116}, {"time": 133916, "pitch": 42, "duration": 61, "velocity": 103}, {"time": 134242, "pitch": 42, "duration": 61, "velocity": 60}, {"time": 134404, "pitch": 35, "duration": 60, "velocity": 111}, {"time": 134404, "pitch": 42, "duration": 60, "velocity": 103}, {"time": 134723, "pitch": 42, "duration": 60, "velocity": 61}, {"time": 134882, "pitch": 38, "duration": 60, "velocity": 115}, {"time": 134882, "pitch": 42, "duration": 60, "velocity": 101}, {"time": 135200, "pitch": 42, "duration": 60, "velocity": 63}, {"time": 135360, "pitch": 35, "duration": 59, "velocity": 110}, {"time": 135360, "pitch": 42, "duration": 59, "velocity": 104}, {"time": 135678, "pitch": 42, "duration": 60, "velocity": 61}, {"time": 135837, "pitch": 38, "duration": 60, "velocity": 118}, {"time": 135837, "pitch": 42, "duration": 60, "velocity": 103}, {"time": 136156, "pitch": 42, "duration": 59, "velocity": 60}, {"time": 136315, "pitch": 35, "duration": 61, "velocity": 111}, {"time": 136315, "pitch": 42, "duration": 61, "velocity": 103}, {"time": 136640, "pitch": 42, "duration": 61, "velocity": 61}, {"time": 136803, "pitch": 38, "duration": 60, "velocity": 115}, {"time": 136803, "pitch": 42, "duration": 60, "velocity": 101}, {"time": 137122, "pitch": 42, "duration": 59, "velocity": 63}, {"time": 137281, "pitch": 35, "duration": 59, "velocity": 110}, {"time": 137281, "pitch": 42, "duration": 59, "velocity": 104}, {"time": 137599, "pitch": 42, "duration": 60, "velocity": 61}, {"time": 137758, "pitch": 38, "duration": 60, "velocity": 118}, {"time": 137758, "pitch": 42, "duration": 60, "velocity": 103}, {"time": 138077, "pitch": 42, "duration": 59, "velocity": 60}, {"time": 138236, "pitch": 35, "duration": 61, "velocity": 110}, {"time": 138236, "pitch": 42, "duration": 61, "velocity": 103}, {"time": 138562, "pitch": 42, "duration": 61, "velocity": 61}, {"time": 138724, "pitch": 38, "duration": 60, "velocity": 115}, {"time": 138724, "pitch": 42, "duration": 60, "velocity": 101}, {"time": 139043, "pitch": 42, "duration": 59, "velocity": 63}, {"time": 139202, "pitch": 35, "duration": 60, "velocity": 111}, {"time": 139202, "pitch": 42, "duration": 60, "velocity": 104}, {"time": 139520, "pitch": 38, "duration": 60, "velocity": 98}, {"time": 139520, "pitch": 42, "duration": 60, "velocity": 61}, {"time": 139679, "pitch": 38, "duration": 60, "velocity": 118}, {"time": 139679, "pitch": 42, "duration": 60, "velocity": 103}, {"time": 139839, "pitch": 38, "duration": 59, "velocity": 108}, {"time": 139998, "pitch": 35, "duration": 60, "velocity": 104}, {"time": 139998, "pitch": 42, "duration": 60, "velocity": 60}, {"time": 139998, "pitch": 49, "duration": 60, "velocity": 90}, {"time": 140157, "pitch": 35, "duration": 60, "velocity": 114}, {"time": 140157, "pitch": 57, "duration": 60, "velocity": 90}, {"time": 142078, "pitch": 35, "duration": 60, "velocity": 111}, {"time": 142397, "pitch": 47, "duration": 59, "velocity": 70}, {"time": 142556, "pitch": 35, "duration": 61, "velocity": 91}, {"time": 142556, "pitch": 45, "duration": 61, "velocity": 80}, {"time": 142556, "pitch": 47, "duration": 61, "velocity": 80}, {"time": 142881, "pitch": 35, "duration": 61, "velocity": 80}, {"time": 142881, "pitch": 43, "duration": 61, "velocity": 73}, {"time": 142881, "pitch": 45, "duration": 61, "velocity": 90}, {"time": 143362, "pitch": 35, "duration": 60, "velocity": 110}, {"time": 143522, "pitch": 38, "duration": 59, "velocity": 127}, {"time": 143522, "pitch": 47, "duration": 59, "velocity": 83}, {"time": 143681, "pitch": 35, "duration": 60, "velocity": 80}, {"time": 143840, "pitch": 35, "duration": 60, "velocity": 70}, {"time": 143999, "pitch": 35, "duration": 60, "velocity": 111}, {"time": 143999, "pitch": 57, "duration": 60, "velocity": 90}, {"time": 144477, "pitch": 38, "duration": 61, "velocity": 115}, {"time": 144477, "pitch": 53, "duration": 61, "velocity": 111}, {"time": 144802, "pitch": 51, "duration": 62, "velocity": 103}, {"time": 144965, "pitch": 35, "duration": 60, "velocity": 110}, {"time": 144965, "pitch": 53, "duration": 60, "velocity": 112}, {"time": 145284, "pitch": 51, "duration": 59, "velocity": 100}, {"time": 145443, "pitch": 38, "duration": 60, "velocity": 118}, {"time": 145443, "pitch": 53, "duration": 60, "velocity": 112}, {"time": 145761, "pitch": 51, "duration": 60, "velocity": 102}, {"time": 145920, "pitch": 35, "duration": 60, "velocity": 110}, {"time": 145920, "pitch": 53, "duration": 60, "velocity": 110}, {"time": 146239, "pitch": 51, "duration": 60, "velocity": 102}, {"time": 146398, "pitch": 38, "duration": 60, "velocity": 115}, {"time": 146398, "pitch": 53, "duration": 60, "velocity": 111}, {"time": 146716, "pitch": 51, "duration": 60, "velocity": 103}, {"time": 146876, "pitch": 35, "duration": 61, "velocity": 111}, {"time": 146876, "pitch": 53, "duration": 61, "velocity": 112}, {"time": 147201, "pitch": 51, "duration": 61, "velocity": 101}, {"time": 147364, "pitch": 38, "duration": 60, "velocity": 118}, {"time": 147364, "pitch": 53, "duration": 60, "velocity": 110}, {"time": 147682, "pitch": 51, "duration": 60, "velocity": 102}, {"time": 147842, "pitch": 35, "duration": 59, "velocity": 114}, {"time": 147842, "pitch": 53, "duration": 59, "velocity": 111}, {"time": 148160, "pitch": 51, "duration": 60, "velocity": 102}, {"time": 148319, "pitch": 38, "duration": 60, "velocity": 118}, {"time": 148319, "pitch": 53, "duration": 60, "velocity": 112}, {"time": 148638, "pitch": 51, "duration": 59, "velocity": 104}, {"time": 148797, "pitch": 35, "duration": 61, "velocity": 112}, {"time": 148797, "pitch": 53, "duration": 61, "velocity": 112}, {"time": 149122, "pitch": 51, "duration": 61, "velocity": 103}, {"time": 149285, "pitch": 38, "duration": 60, "velocity": 116}, {"time": 149285, "pitch": 53, "duration": 60, "velocity": 112}, {"time": 149603, "pitch": 51, "duration": 60, "velocity": 100}, {"time": 149763, "pitch": 35, "duration": 59, "velocity": 111}, {"time": 149763, "pitch": 53, "duration": 59, "velocity": 127}, {"time": 149922, "pitch": 38, "duration": 60, "velocity": 39}, {"time": 150081, "pitch": 53, "duration": 60, "velocity": 127}, {"time": 150240, "pitch": 38, "duration": 60, "velocity": 115}, {"time": 150399, "pitch": 53, "duration": 60, "velocity": 111}, {"time": 150718, "pitch": 35, "duration": 60, "velocity": 110}, {"time": 150718, "pitch": 53, "duration": 60, "velocity": 127}, {"time": 151036, "pitch": 38, "duration": 60, "velocity": 39}, {"time": 151036, "pitch": 53, "duration": 60, "velocity": 110}, {"time": 151195, "pitch": 38, "duration": 61, "velocity": 118}, {"time": 151358, "pitch": 53, "duration": 61, "velocity": 127}, {"time": 151521, "pitch": 38, "duration": 61, "velocity": 39}, {"time": 151684, "pitch": 35, "duration": 59, "velocity": 110}, {"time": 151684, "pitch": 49, "duration": 59, "velocity": 90}, {"time": 152002, "pitch": 51, "duration": 60, "velocity": 103}, {"time": 152161, "pitch": 38, "duration": 60, "velocity": 115}, {"time": 152161, "pitch": 53, "duration": 60, "velocity": 114}, {"time": 152480, "pitch": 51, "duration": 59, "velocity": 102}, {"time": 152639, "pitch": 35, "duration": 60, "velocity": 111}, {"time": 152639, "pitch": 53, "duration": 60, "velocity": 112}, {"time": 152957, "pitch": 51, "duration": 60, "velocity": 100}, {"time": 153117, "pitch": 38, "duration": 61, "velocity": 118}, {"time": 153117, "pitch": 53, "duration": 61, "velocity": 113}, {"time": 153442, "pitch": 51, "duration": 61, "velocity": 101}, {"time": 153605, "pitch": 35, "duration": 60, "velocity": 114}, {"time": 153605, "pitch": 53, "duration": 60, "velocity": 112}, {"time": 153923, "pitch": 51, "duration": 60, "velocity": 104}, {"time": 154082, "pitch": 38, "duration": 60, "velocity": 118}, {"time": 154082, "pitch": 53, "duration": 60, "velocity": 114}, {"time": 154401, "pitch": 51, "duration": 60, "velocity": 103}, {"time": 154560, "pitch": 35, "duration": 60, "velocity": 112}, {"time": 154560, "pitch": 53, "duration": 60, "velocity": 127}, {"time": 154878, "pitch": 53, "duration": 60, "velocity": 111}, {"time": 155038, "pitch": 38, "duration": 59, "velocity": 116}, {"time": 155356, "pitch": 35, "duration": 60, "velocity": 81}, {"time": 155356, "pitch": 49, "duration": 60, "velocity": 90}, {"time": 155515, "pitch": 35, "duration": 61, "velocity": 111}, {"time": 155515, "pitch": 57, "duration": 61, "velocity": 90}, {"time": 156004, "pitch": 38, "duration": 59, "velocity": 115}, {"time": 156004, "pitch": 53, "duration": 59, "velocity": 111}, {"time": 156322, "pitch": 51, "duration": 60, "velocity": 103}, {"time": 156481, "pitch": 35, "duration": 60, "velocity": 110}, {"time": 156481, "pitch": 53, "duration": 60, "velocity": 112}, {"time": 156800, "pitch": 51, "duration": 59, "velocity": 100}, {"time": 156959, "pitch": 38, "duration": 60, "velocity": 118}, {"time": 156959, "pitch": 53, "duration": 60, "velocity": 112}, {"time": 157277, "pitch": 51, "duration": 60, "velocity": 102}, {"time": 157436, "pitch": 35, "duration": 61, "velocity": 110}, {"time": 157436, "pitch": 53, "duration": 61, "velocity": 110}, {"time": 157762, "pitch": 38, "duration": 61, "velocity": 115}, {"time": 157762, "pitch": 51, "duration": 61, "velocity": 102}, {"time": 157925, "pitch": 38, "duration": 59, "velocity": 115}, {"time": 157925, "pitch": 53, "duration": 59, "velocity": 111}, {"time": 158243, "pitch": 38, "duration": 60, "velocity": 115}, {"time": 158243, "pitch": 51, "duration": 60, "velocity": 103}, {"time": 158402, "pitch": 35, "duration": 60, "velocity": 111}, {"time": 158402, "pitch": 53, "duration": 60, "velocity": 112}, {"time": 158721, "pitch": 38, "duration": 59, "velocity": 118}, {"time": 158721, "pitch": 51, "duration": 59, "velocity": 101}, {"time": 158880, "pitch": 38, "duration": 60, "velocity": 118}, {"time": 158880, "pitch": 53, "duration": 60, "velocity": 110}, {"time": 159198, "pitch": 38, "duration": 60, "velocity": 118}, {"time": 159198, "pitch": 51, "duration": 60, "velocity": 102}, {"time": 159358, "pitch": 35, "duration": 59, "velocity": 94}, {"time": 159358, "pitch": 42, "duration": 59, "velocity": 103}, {"time": 159358, "pitch": 57, "duration": 59, "velocity": 90}, {"time": 159676, "pitch": 42, "duration": 60, "velocity": 61}, {"time": 159835, "pitch": 38, "duration": 61, "velocity": 98}, {"time": 159835, "pitch": 42, "duration": 61, "velocity": 101}, {"time": 160161, "pitch": 42, "duration": 61, "velocity": 63}, {"time": 160323, "pitch": 35, "duration": 60, "velocity": 92}, {"time": 160323, "pitch": 42, "duration": 60, "velocity": 104}, {"time": 160642, "pitch": 42, "duration": 60, "velocity": 61}, {"time": 160801, "pitch": 38, "duration": 60, "velocity": 96}, {"time": 160801, "pitch": 42, "duration": 60, "velocity": 103}, {"time": 161119, "pitch": 42, "duration": 60, "velocity": 60}, {"time": 161279, "pitch": 35, "duration": 59, "velocity": 91}, {"time": 161279, "pitch": 42, "duration": 59, "velocity": 103}, {"time": 161597, "pitch": 42, "duration": 60, "velocity": 61}, {"time": 161756, "pitch": 38, "duration": 61, "velocity": 95}, {"time": 161756, "pitch": 42, "duration": 61, "velocity": 101}, {"time": 162082, "pitch": 42, "duration": 61, "velocity": 63}, {"time": 162245, "pitch": 35, "duration": 59, "velocity": 90}, {"time": 162245, "pitch": 42, "duration": 59, "velocity": 104}, {"time": 162563, "pitch": 42, "duration": 60, "velocity": 61}, {"time": 162722, "pitch": 38, "duration": 60, "velocity": 98}, {"time": 162722, "pitch": 42, "duration": 60, "velocity": 103}, {"time": 163041, "pitch": 42, "duration": 59, "velocity": 60}, {"time": 163200, "pitch": 35, "duration": 59, "velocity": 90}, {"time": 163200, "pitch": 42, "duration": 59, "velocity": 101}, {"time": 163518, "pitch": 42, "duration": 60, "velocity": 62}, {"time": 163677, "pitch": 38, "duration": 60, "velocity": 95}, {"time": 163677, "pitch": 42, "duration": 60, "velocity": 101}, {"time": 163996, "pitch": 42, "duration": 59, "velocity": 61}, {"time": 164155, "pitch": 35, "duration": 61, "velocity": 91}, {"time": 164155, "pitch": 42, "duration": 61, "velocity": 101}, {"time": 164481, "pitch": 42, "duration": 61, "velocity": 63}, {"time": 164643, "pitch": 38, "duration": 60, "velocity": 98}, {"time": 164643, "pitch": 42, "duration": 60, "velocity": 104}, {"time": 164962, "pitch": 42, "duration": 59, "velocity": 62}, {"time": 165121, "pitch": 35, "duration": 60, "velocity": 111}, {"time": 165121, "pitch": 42, "duration": 60, "velocity": 104}, {"time": 165439, "pitch": 42, "duration": 60, "velocity": 61}, {"time": 165598, "pitch": 38, "duration": 60, "velocity": 115}, {"time": 165598, "pitch": 42, "duration": 60, "velocity": 104}, {"time": 165917, "pitch": 42, "duration": 60, "velocity": 63}, {"time": 166076, "pitch": 35, "duration": 61, "velocity": 110}, {"time": 166076, "pitch": 42, "duration": 61, "velocity": 103}, {"time": 166402, "pitch": 42, "duration": 61, "velocity": 61}, {"time": 166564, "pitch": 38, "duration": 60, "velocity": 118}, {"time": 166564, "pitch": 42, "duration": 60, "velocity": 103}, {"time": 166883, "pitch": 42, "duration": 59, "velocity": 64}, {"time": 167042, "pitch": 35, "duration": 60, "velocity": 91}, {"time": 167042, "pitch": 42, "duration": 60, "velocity": 104}, {"time": 167042, "pitch": 57, "duration": 60, "velocity": 90}, {"time": 167360, "pitch": 42, "duration": 60, "velocity": 64}, {"time": 167520, "pitch": 38, "duration": 59, "velocity": 95}, {"time": 167520, "pitch": 42, "duration": 59, "velocity": 101}, {"time": 167838, "pitch": 42, "duration": 60, "velocity": 62}, {"time": 167997, "pitch": 35, "duration": 60, "velocity": 90}, {"time": 167997, "pitch": 42, "duration": 60, "velocity": 102}, {"time": 168316, "pitch": 42, "duration": 59, "velocity": 62}, {"time": 168475, "pitch": 38, "duration": 61, "velocity": 98}, {"time": 168475, "pitch": 42, "duration": 61, "velocity": 100}, {"time": 168800, "pitch": 42, "duration": 61, "velocity": 60}, {"time": 168963, "pitch": 35, "duration": 60, "velocity": 90}, {"time": 168963, "pitch": 42, "duration": 60, "velocity": 100}, {"time": 169282, "pitch": 42, "duration": 59, "velocity": 61}, {"time": 169441, "pitch": 38, "duration": 59, "velocity": 95}, {"time": 169441, "pitch": 42, "duration": 59, "velocity": 100}, {"time": 169759, "pitch": 42, "duration": 60, "velocity": 60}, {"time": 169918, "pitch": 35, "duration": 60, "velocity": 91}, {"time": 169918, "pitch": 42, "duration": 60, "velocity": 103}, {"time": 170237, "pitch": 42, "duration": 59, "velocity": 82}, {"time": 170396, "pitch": 38, "duration": 61, "velocity": 98}, {"time": 170396, "pitch": 42, "duration": 61, "velocity": 100}, {"time": 170721, "pitch": 42, "duration": 62, "velocity": 100}, {"time": 170884, "pitch": 35, "duration": 60, "velocity": 111}, {"time": 170884, "pitch": 42, "duration": 60, "velocity": 103}, {"time": 171203, "pitch": 42, "duration": 59, "velocity": 61}, {"time": 171362, "pitch": 38, "duration": 60, "velocity": 115}, {"time": 171362, "pitch": 42, "duration": 60, "velocity": 101}, {"time": 171680, "pitch": 42, "duration": 60, "velocity": 63}, {"time": 171839, "pitch": 35, "duration": 60, "velocity": 110}, {"time": 171839, "pitch": 42, "duration": 60, "velocity": 104}, {"time": 172158, "pitch": 42, "duration": 60, "velocity": 61}, {"time": 172317, "pitch": 38, "duration": 60, "velocity": 118}, {"time": 172317, "pitch": 42, "duration": 60, "velocity": 103}, {"time": 172635, "pitch": 42, "duration": 60, "velocity": 60}, {"time": 172795, "pitch": 35, "duration": 61, "velocity": 110}, {"time": 172795, "pitch": 42, "duration": 61, "velocity": 103}, {"time": 173120, "pitch": 35, "duration": 61, "velocity": 110}, {"time": 173120, "pitch": 42, "duration": 61, "velocity": 61}, {"time": 173283, "pitch": 38, "duration": 60, "velocity": 125}, {"time": 173283, "pitch": 42, "duration": 60, "velocity": 101}, {"time": 173601, "pitch": 38, "duration": 60, "velocity": 105}, {"time": 173601, "pitch": 42, "duration": 60, "velocity": 63}, {"time": 173761, "pitch": 35, "duration": 59, "velocity": 111}, {"time": 173761, "pitch": 38, "duration": 59, "velocity": 125}, {"time": 173761, "pitch": 42, "duration": 59, "velocity": 104}, {"time": 173920, "pitch": 38, "duration": 59, "velocity": 95}, {"time": 174079, "pitch": 38, "duration": 60, "velocity": 105}, {"time": 174079, "pitch": 42, "duration": 60, "velocity": 61}, {"time": 174238, "pitch": 35, "duration": 60, "velocity": 111}, {"time": 174238, "pitch": 38, "duration": 60, "velocity": 118}, {"time": 174238, "pitch": 42, "duration": 60, "velocity": 103}, {"time": 174397, "pitch": 38, "duration": 60, "velocity": 98}, {"time": 174557, "pitch": 35, "duration": 59, "velocity": 81}, {"time": 174557, "pitch": 38, "duration": 59, "velocity": 98}, {"time": 174557, "pitch": 42, "duration": 59, "velocity": 60}, {"time": 174716, "pitch": 35, "duration": 61, "velocity": 114}, {"time": 174716, "pitch": 42, "duration": 61, "velocity": 103}, {"time": 174716, "pitch": 49, "duration": 61, "velocity": 90}, {"time": 175041, "pitch": 42, "duration": 61, "velocity": 61}, {"time": 175204, "pitch": 38, "duration": 60, "velocity": 118}, {"time": 175204, "pitch": 42, "duration": 60, "velocity": 101}, {"time": 175522, "pitch": 42, "duration": 60, "velocity": 63}, {"time": 175682, "pitch": 35, "duration": 59, "velocity": 112}, {"time": 175682, "pitch": 42, "duration": 59, "velocity": 104}, {"time": 176000, "pitch": 42, "duration": 60, "velocity": 61}, {"time": 176159, "pitch": 38, "duration": 60, "velocity": 116}, {"time": 176159, "pitch": 42, "duration": 60, "velocity": 103}, {"time": 176478, "pitch": 42, "duration": 59, "velocity": 60}, {"time": 176637, "pitch": 35, "duration": 61, "velocity": 111}, {"time": 176637, "pitch": 42, "duration": 61, "velocity": 103}, {"time": 176962, "pitch": 42, "duration": 62, "velocity": 61}, {"time": 177125, "pitch": 38, "duration": 60, "velocity": 115}, {"time": 177125, "pitch": 42, "duration": 60, "velocity": 101}, {"time": 177444, "pitch": 42, "duration": 59, "velocity": 63}, {"time": 177603, "pitch": 35, "duration": 59, "velocity": 110}, {"time": 177603, "pitch": 42, "duration": 59, "velocity": 104}, {"time": 177921, "pitch": 42, "duration": 60, "velocity": 61}, {"time": 178080, "pitch": 38, "duration": 60, "velocity": 118}, {"time": 178080, "pitch": 42, "duration": 60, "velocity": 103}, {"time": 178399, "pitch": 42, "duration": 60, "velocity": 60}, {"time": 178558, "pitch": 35, "duration": 60, "velocity": 111}, {"time": 178558, "pitch": 42, "duration": 60, "velocity": 103}, {"time": 178876, "pitch": 42, "duration": 60, "velocity": 61}, {"time": 179036, "pitch": 38, "duration": 61, "velocity": 115}, {"time": 179036, "pitch": 42, "duration": 61, "velocity": 101}, {"time": 179361, "pitch": 42, "duration": 61, "velocity": 63}, {"time": 179524, "pitch": 35, "duration": 60, "velocity": 110}, {"time": 179524, "pitch": 42, "duration": 60, "velocity": 104}, {"time": 179842, "pitch": 42, "duration": 60, "velocity": 61}, {"time": 180002, "pitch": 38, "duration": 59, "velocity": 118}, {"time": 180002, "pitch": 42, "duration": 59, "velocity": 103}, {"time": 180320, "pitch": 42, "duration": 60, "velocity": 60}, {"time": 180479, "pitch": 35, "duration": 60, "velocity": 110}, {"time": 180479, "pitch": 42, "duration": 60, "velocity": 103}, {"time": 180798, "pitch": 42, "duration": 59, "velocity": 61}, {"time": 180957, "pitch": 38, "duration": 61, "velocity": 115}, {"time": 180957, "pitch": 42, "duration": 61, "velocity": 101}, {"time": 181282, "pitch": 42, "duration": 61, "velocity": 63}, {"time": 181445, "pitch": 35, "duration": 60, "velocity": 111}, {"time": 181445, "pitch": 42, "duration": 60, "velocity": 104}, {"time": 181763, "pitch": 38, "duration": 60, "velocity": 98}, {"time": 181763, "pitch": 42, "duration": 60, "velocity": 61}, {"time": 181923, "pitch": 38, "duration": 59, "velocity": 118}, {"time": 181923, "pitch": 42, "duration": 59, "velocity": 103}, {"time": 182082, "pitch": 38, "duration": 60, "velocity": 108}, {"time": 182241, "pitch": 35, "duration": 60, "velocity": 104}, {"time": 182241, "pitch": 42, "duration": 60, "velocity": 60}, {"time": 182241, "pitch": 49, "duration": 60, "velocity": 90}, {"time": 182400, "pitch": 35, "duration": 60, "velocity": 114}, {"time": 182400, "pitch": 57, "duration": 60, "velocity": 90}, {"time": 184321, "pitch": 35, "duration": 60, "velocity": 111}, {"time": 184640, "pitch": 47, "duration": 59, "velocity": 70}, {"time": 184799, "pitch": 35, "duration": 60, "velocity": 91}, {"time": 184799, "pitch": 45, "duration": 60, "velocity": 80}, {"time": 184799, "pitch": 47, "duration": 60, "velocity": 80}, {"time": 185117, "pitch": 35, "duration": 60, "velocity": 80}, {"time": 185117, "pitch": 43, "duration": 60, "velocity": 73}, {"time": 185117, "pitch": 45, "duration": 60, "velocity": 90}, {"time": 185602, "pitch": 35, "duration": 61, "velocity": 110}, {"time": 185765, "pitch": 38, "duration": 60, "velocity": 127}, {"time": 185765, "pitch": 47, "duration": 60, "velocity": 83}, {"time": 185924, "pitch": 35, "duration": 60, "velocity": 80}, {"time": 186083, "pitch": 35, "duration": 60, "velocity": 70}, {"time": 186242, "pitch": 35, "duration": 60, "velocity": 111}, {"time": 186242, "pitch": 57, "duration": 60, "velocity": 90}, {"time": 186720, "pitch": 38, "duration": 60, "velocity": 115}, {"time": 186720, "pitch": 53, "duration": 60, "velocity": 111}, {"time": 187038, "pitch": 51, "duration": 60, "velocity": 103}, {"time": 187198, "pitch": 35, "duration": 59, "velocity": 110}, {"time": 187198, "pitch": 53, "duration": 59, "velocity": 112}, {"time": 187516, "pitch": 51, "duration": 60, "velocity": 100}, {"time": 187675, "pitch": 38, "duration": 61, "velocity": 118}, {"time": 187675, "pitch": 53, "duration": 61, "velocity": 112}, {"time": 188001, "pitch": 51, "duration": 61, "velocity": 102}, {"time": 188164, "pitch": 35, "duration": 59, "velocity": 110}, {"time": 188164, "pitch": 53, "duration": 59, "velocity": 110}, {"time": 188482, "pitch": 51, "duration": 60, "velocity": 102}, {"time": 188641, "pitch": 38, "duration": 60, "velocity": 115}, {"time": 188641, "pitch": 53, "duration": 60, "velocity": 111}, {"time": 188960, "pitch": 51, "duration": 59, "velocity": 103}, {"time": 189119, "pitch": 35, "duration": 60, "velocity": 111}, {"time": 189119, "pitch": 53, "duration": 60, "velocity": 112}, {"time": 189437, "pitch": 51, "duration": 60, "velocity": 101}, {"time": 189596, "pitch": 38, "duration": 61, "velocity": 118}, {"time": 189596, "pitch": 53, "duration": 61, "velocity": 110}, {"time": 189922, "pitch": 51, "duration": 61, "velocity": 102}, {"time": 190085, "pitch": 35, "duration": 59, "velocity": 114}, {"time": 190085, "pitch": 53, "duration": 59, "velocity": 111}, {"time": 190403, "pitch": 51, "duration": 60, "velocity": 102}, {"time": 190562, "pitch": 38, "duration": 60, "velocity": 118}, {"time": 190562, "pitch": 53, "duration": 60, "velocity": 112}, {"time": 190881, "pitch": 51, "duration": 59, "velocity": 104}, {"time": 191040, "pitch": 35, "duration": 60, "velocity": 112}, {"time": 191040, "pitch": 53, "duration": 60, "velocity": 112}, {"time": 191358, "pitch": 51, "duration": 60, "velocity": 103}, {"time": 191518, "pitch": 38, "duration": 59, "velocity": 116}, {"time": 191518, "pitch": 53, "duration": 59, "velocity": 112}, {"time": 191836, "pitch": 51, "duration": 60, "velocity": 100}, {"time": 191995, "pitch": 35, "duration": 61, "velocity": 111}, {"time": 191995, "pitch": 38, "duration": 61, "velocity": 115}, {"time": 191995, "pitch": 53, "duration": 61, "velocity": 127}, {"time": 192961, "pitch": 35, "duration": 60, "velocity": 111}, {"time": 192961, "pitch": 50, "duration": 60, "velocity": 115}, {"time": 193120, "pitch": 48, "duration": 60, "velocity": 85}, {"time": 193279, "pitch": 47, "duration": 60, "velocity": 95}, {"time": 193439, "pitch": 35, "duration": 59, "velocity": 111}, {"time": 193439, "pitch": 45, "duration": 59, "velocity": 108}, {"time": 193598, "pitch": 45, "duration": 60, "velocity": 88}, {"time": 193757, "pitch": 35, "duration": 60, "velocity": 81}, {"time": 193757, "pitch": 45, "duration": 60, "velocity": 88}, {"time": 193916, "pitch": 35, "duration": 61, "velocity": 110}, {"time": 193916, "pitch": 49, "duration": 61, "velocity": 90}, {"time": 194242, "pitch": 51, "duration": 61, "velocity": 103}, {"time": 194405, "pitch": 38, "duration": 59, "velocity": 115}, {"time": 194405, "pitch": 53, "duration": 59, "velocity": 114}, {"time": 194723, "pitch": 51, "duration": 60, "velocity": 102}, {"time": 194882, "pitch": 35, "duration": 60, "velocity": 111}, {"time": 194882, "pitch": 53, "duration": 60, "velocity": 112}, {"time": 195201, "pitch": 51, "duration": 59, "velocity": 100}, {"time": 195360, "pitch": 38, "duration": 59, "velocity": 118}, {"time": 195360, "pitch": 53, "duration": 59, "velocity": 113}, {"time": 195678, "pitch": 51, "duration": 60, "velocity": 101}, {"time": 195837, "pitch": 35, "duration": 60, "velocity": 114}, {"time": 195837, "pitch": 53, "duration": 60, "velocity": 112}, {"time": 196156, "pitch": 51, "duration": 59, "velocity": 104}, {"time": 196315, "pitch": 38, "duration": 61, "velocity": 118}, {"time": 196315, "pitch": 53, "duration": 61, "velocity": 114}, {"time": 196641, "pitch": 51, "duration": 61, "velocity": 103}, {"time": 196803, "pitch": 35, "duration": 60, "velocity": 112}, {"time": 196803, "pitch": 53, "duration": 60, "velocity": 127}, {"time": 197122, "pitch": 53, "duration": 59, "velocity": 111}, {"time": 197281, "pitch": 38, "duration": 60, "velocity": 116}, {"time": 197599, "pitch": 35, "duration": 60, "velocity": 81}, {"time": 197599, "pitch": 49, "duration": 60, "velocity": 90}, {"time": 197758, "pitch": 35, "duration": 60, "velocity": 111}, {"time": 197758, "pitch": 57, "duration": 60, "velocity": 90}, {"time": 198236, "pitch": 38, "duration": 61, "velocity": 115}, {"time": 198236, "pitch": 53, "duration": 61, "velocity": 111}, {"time": 198562, "pitch": 51, "duration": 61, "velocity": 103}, {"time": 198724, "pitch": 35, "duration": 60, "velocity": 110}, {"time": 198724, "pitch": 53, "duration": 60, "velocity": 112}, {"time": 199043, "pitch": 51, "duration": 59, "velocity": 100}, {"time": 199202, "pitch": 38, "duration": 60, "velocity": 118}, {"time": 199202, "pitch": 53, "duration": 60, "velocity": 112}, {"time": 199520, "pitch": 51, "duration": 60, "velocity": 102}, {"time": 199680, "pitch": 35, "duration": 59, "velocity": 111}, {"time": 199680, "pitch": 38, "duration": 59, "velocity": 125}, {"time": 199680, "pitch": 42, "duration": 59, "velocity": 104}, {"time": 199839, "pitch": 38, "duration": 60, "velocity": 95}, {"time": 199998, "pitch": 38, "duration": 60, "velocity": 105}, {"time": 199998, "pitch": 42, "duration": 60, "velocity": 61}, {"time": 200157, "pitch": 35, "duration": 60, "velocity": 111}, {"time": 200157, "pitch": 38, "duration": 60, "velocity": 118}, {"time": 200157, "pitch": 42, "duration": 60, "velocity": 103}, {"time": 200316, "pitch": 38, "duration": 60, "velocity": 98}, {"time": 200476, "pitch": 35, "duration": 59, "velocity": 81}, {"time": 200476, "pitch": 38, "duration": 59, "velocity": 98}, {"time": 200476, "pitch": 42, "duration": 59, "velocity": 60}, {"time": 200635, "pitch": 35, "duration": 61, "velocity": 111}, {"time": 200635, "pitch": 38, "duration": 61, "velocity": 118}, {"time": 200635, "pitch": 42, "duration": 61, "velocity": 102}, {"time": 201601, "pitch": 35, "duration": 59, "velocity": 94}, {"time": 201601, "pitch": 42, "duration": 59, "velocity": 103}, {"time": 201601, "pitch": 57, "duration": 59, "velocity": 90}, {"time": 201919, "pitch": 42, "duration": 60, "velocity": 61}, {"time": 202078, "pitch": 38, "duration": 60, "velocity": 98}, {"time": 202078, "pitch": 42, "duration": 60, "velocity": 101}, {"time": 202397, "pitch": 42, "duration": 59, "velocity": 63}, {"time": 202556, "pitch": 35, "duration": 61, "velocity": 92}, {"time": 202556, "pitch": 42, "duration": 61, "velocity": 104}, {"time": 202881, "pitch": 42, "duration": 62, "velocity": 61}, {"time": 203044, "pitch": 38, "duration": 60, "velocity": 96}, {"time": 203044, "pitch": 42, "duration": 60, "velocity": 103}, {"time": 203363, "pitch": 42, "duration": 59, "velocity": 60}, {"time": 203522, "pitch": 35, "duration": 60, "velocity": 91}, {"time": 203522, "pitch": 42, "duration": 60, "velocity": 103}, {"time": 203840, "pitch": 42, "duration": 60, "velocity": 61}, {"time": 203999, "pitch": 38, "duration": 60, "velocity": 95}, {"time": 203999, "pitch": 42, "duration": 60, "velocity": 101}, {"time": 204318, "pitch": 42, "duration": 60, "velocity": 63}, {"time": 204477, "pitch": 35, "duration": 61, "velocity": 90}, {"time": 204477, "pitch": 42, "duration": 61, "velocity": 104}, {"time": 204803, "pitch": 42, "duration": 61, "velocity": 61}, {"time": 204965, "pitch": 38, "duration": 60, "velocity": 98}, {"time": 204965, "pitch": 42, "duration": 60, "velocity": 103}, {"time": 205284, "pitch": 42, "duration": 59, "velocity": 60}, {"time": 205443, "pitch": 35, "duration": 60, "velocity": 90}, {"time": 205443, "pitch": 42, "duration": 60, "velocity": 101}, {"time": 205761, "pitch": 42, "duration": 60, "velocity": 62}, {"time": 205921, "pitch": 38, "duration": 59, "velocity": 95}, {"time": 205921, "pitch": 42, "duration": 59, "velocity": 101}, {"time": 206239, "pitch": 42, "duration": 60, "velocity": 61}, {"time": 206398, "pitch": 35, "duration": 60, "velocity": 91}, {"time": 206398, "pitch": 42, "duration": 60, "velocity": 101}, {"time": 206717, "pitch": 42, "duration": 59, "velocity": 63}, {"time": 206876, "pitch": 38, "duration": 61, "velocity": 98}, {"time": 206876, "pitch": 42, "duration": 61, "velocity": 104}, {"time": 207201, "pitch": 42, "duration": 61, "velocity": 62}, {"time": 207364, "pitch": 35, "duration": 60, "velocity": 111}, {"time": 207364, "pitch": 42, "duration": 60, "velocity": 104}, {"time": 207682, "pitch": 42, "duration": 60, "velocity": 61}, {"time": 207842, "pitch": 38, "duration": 59, "velocity": 115}, {"time": 207842, "pitch": 42, "duration": 59, "velocity": 104}, {"time": 208160, "pitch": 42, "duration": 60, "velocity": 63}, {"time": 208319, "pitch": 35, "duration": 60, "velocity": 110}, {"time": 208319, "pitch": 42, "duration": 60, "velocity": 103}, {"time": 208638, "pitch": 42, "duration": 59, "velocity": 61}, {"time": 208797, "pitch": 38, "duration": 61, "velocity": 118}, {"time": 208797, "pitch": 42, "duration": 61, "velocity": 103}, {"time": 209122, "pitch": 42, "duration": 62, "velocity": 64}, {"time": 209285, "pitch": 35, "duration": 60, "velocity": 91}, {"time": 209285, "pitch": 42, "duration": 60, "velocity": 104}, {"time": 209285, "pitch": 49, "duration": 60, "velocity": 90}, {"time": 209604, "pitch": 42, "duration": 59, "velocity": 64}, {"time": 209763, "pitch": 38, "duration": 59, "velocity": 95}, {"time": 209763, "pitch": 42, "duration": 59, "velocity": 101}, {"time": 210081, "pitch": 42, "duration": 60, "velocity": 62}, {"time": 210240, "pitch": 35, "duration": 60, "velocity": 90}, {"time": 210240, "pitch": 42, "duration": 60, "velocity": 102}, {"time": 210559, "pitch": 42, "duration": 59, "velocity": 62}, {"time": 210718, "pitch": 38, "duration": 60, "velocity": 98}, {"time": 210718, "pitch": 42, "duration": 60, "velocity": 100}, {"time": 211036, "pitch": 42, "duration": 60, "velocity": 60}, {"time": 211196, "pitch": 35, "duration": 61, "velocity": 90}, {"time": 211196, "pitch": 42, "duration": 61, "velocity": 100}, {"time": 211521, "pitch": 42, "duration": 61, "velocity": 61}, {"time": 211684, "pitch": 38, "duration": 60, "velocity": 95}, {"time": 211684, "pitch": 42, "duration": 60, "velocity": 100}, {"time": 212002, "pitch": 42, "duration": 60, "velocity": 60}, {"time": 212161, "pitch": 35, "duration": 60, "velocity": 91}, {"time": 212161, "pitch": 42, "duration": 60, "velocity": 103}, {"time": 212480, "pitch": 42, "duration": 60, "velocity": 82}, {"time": 212639, "pitch": 38, "duration": 60, "velocity": 98}, {"time": 212639, "pitch": 42, "duration": 60, "velocity": 100}, {"time": 212958, "pitch": 42, "duration": 59, "velocity": 100}, {"time": 213117, "pitch": 35, "duration": 61, "velocity": 111}, {"time": 213117, "pitch": 42, "duration": 61, "velocity": 103}, {"time": 213442, "pitch": 42, "duration": 61, "velocity": 61}, {"time": 213605, "pitch": 38, "duration": 60, "velocity": 115}, {"time": 213605, "pitch": 42, "duration": 60, "velocity": 101}, {"time": 213923, "pitch": 42, "duration": 60, "velocity": 63}, {"time": 214083, "pitch": 35, "duration": 59, "velocity": 110}, {"time": 214083, "pitch": 42, "duration": 59, "velocity": 104}, {"time": 214401, "pitch": 42, "duration": 60, "velocity": 61}, {"time": 214560, "pitch": 38, "duration": 60, "velocity": 118}, {"time": 214560, "pitch": 42, "duration": 60, "velocity": 103}, {"time": 214879, "pitch": 42, "duration": 59, "velocity": 60}, {"time": 215038, "pitch": 35, "duration": 60, "velocity": 110}, {"time": 215038, "pitch": 42, "duration": 60, "velocity": 103}, {"time": 215356, "pitch": 35, "duration": 60, "velocity": 110}, {"time": 215356, "pitch": 42, "duration": 60, "velocity": 61}, {"time": 215515, "pitch": 38, "duration": 61, "velocity": 125}, {"time": 215515, "pitch": 42, "duration": 61, "velocity": 101}, {"time": 215841, "pitch": 38, "duration": 61, "velocity": 105}, {"time": 215841, "pitch": 42, "duration": 61, "velocity": 63}, {"time": 216004, "pitch": 35, "duration": 59, "velocity": 111}, {"time": 216004, "pitch": 38, "duration": 59, "velocity": 125}, {"time": 216004, "pitch": 42, "duration": 59, "velocity": 104}, {"time": 216163, "pitch": 38, "duration": 60, "velocity": 95}, {"time": 216322, "pitch": 38, "duration": 60, "velocity": 105}, {"time": 216322, "pitch": 42, "duration": 60, "velocity": 61}, {"time": 216481, "pitch": 35, "duration": 60, "velocity": 111}, {"time": 216481, "pitch": 38, "duration": 60, "velocity": 118}, {"time": 216481, "pitch": 42, "duration": 60, "velocity": 103}, {"time": 216641, "pitch": 38, "duration": 59, "velocity": 98}, {"time": 216800, "pitch": 35, "duration": 59, "velocity": 81}, {"time": 216800, "pitch": 38, "duration": 59, "velocity": 98}, {"time": 216800, "pitch": 42, "duration": 59, "velocity": 60}, {"time": 216959, "pitch": 35, "duration": 60, "velocity": 114}, {"time": 216959, "pitch": 42, "duration": 60, "velocity": 103}, {"time": 216959, "pitch": 49, "duration": 60, "velocity": 90}, {"time": 217277, "pitch": 42, "duration": 60, "velocity": 61}, {"time": 217437, "pitch": 38, "duration": 61, "velocity": 118}, {"time": 217437, "pitch": 42, "duration": 61, "velocity": 101}, {"time": 217762, "pitch": 42, "duration": 61, "velocity": 63}, {"time": 217925, "pitch": 35, "duration": 60, "velocity": 112}, {"time": 217925, "pitch": 42, "duration": 60, "velocity": 104}, {"time": 218243, "pitch": 42, "duration": 60, "velocity": 61}, {"time": 218402, "pitch": 38, "duration": 60, "velocity": 116}, {"time": 218402, "pitch": 42, "duration": 60, "velocity": 103}, {"time": 218721, "pitch": 42, "duration": 60, "velocity": 60}, {"time": 218880, "pitch": 35, "duration": 60, "velocity": 111}, {"time": 218880, "pitch": 42, "duration": 60, "velocity": 103}, {"time": 219198, "pitch": 42, "duration": 60, "velocity": 61}, {"time": 219358, "pitch": 38, "duration": 59, "velocity": 115}, {"time": 219358, "pitch": 42, "duration": 59, "velocity": 101}, {"time": 219676, "pitch": 42, "duration": 60, "velocity": 63}, {"time": 219835, "pitch": 35, "duration": 61, "velocity": 110}, {"time": 219835, "pitch": 42, "duration": 61, "velocity": 104}, {"time": 220161, "pitch": 42, "duration": 61, "velocity": 61}, {"time": 220324, "pitch": 38, "duration": 59, "velocity": 118}, {"time": 220324, "pitch": 42, "duration": 59, "velocity": 103}, {"time": 220642, "pitch": 42, "duration": 60, "velocity": 60}, {"time": 220801, "pitch": 35, "duration": 60, "velocity": 111}, {"time": 220801, "pitch": 42, "duration": 60, "velocity": 103}, {"time": 221120, "pitch": 42, "duration": 59, "velocity": 61}, {"time": 221279, "pitch": 38, "duration": 59, "velocity": 115}, {"time": 221279, "pitch": 42, "duration": 59, "velocity": 101}, {"time": 221597, "pitch": 42, "duration": 60, "velocity": 63}, {"time": 221756, "pitch": 35, "duration": 61, "velocity": 110}, {"time": 221756, "pitch": 42, "duration": 61, "velocity": 104}, {"time": 222082, "pitch": 42, "duration": 61, "velocity": 61}, {"time": 222245, "pitch": 38, "duration": 59, "velocity": 118}, {"time": 222245, "pitch": 42, "duration": 59, "velocity": 103}, {"time": 222563, "pitch": 42, "duration": 60, "velocity": 60}, {"time": 222722, "pitch": 35, "duration": 60, "velocity": 110}, {"time": 222722, "pitch": 42, "duration": 60, "velocity": 103}, {"time": 223041, "pitch": 42, "duration": 59, "velocity": 61}, {"time": 223200, "pitch": 38, "duration": 60, "velocity": 115}, {"time": 223200, "pitch": 42, "duration": 60, "velocity": 101}, {"time": 223518, "pitch": 42, "duration": 60, "velocity": 63}, {"time": 223678, "pitch": 35, "duration": 59, "velocity": 111}, {"time": 223678, "pitch": 42, "duration": 59, "velocity": 104}, {"time": 223996, "pitch": 38, "duration": 60, "velocity": 98}, {"time": 223996, "pitch": 42, "duration": 60, "velocity": 61}, {"time": 224155, "pitch": 38, "duration": 61, "velocity": 118}, {"time": 224155, "pitch": 42, "duration": 61, "velocity": 103}, {"time": 224318, "pitch": 38, "duration": 61, "velocity": 108}, {"time": 224481, "pitch": 35, "duration": 61, "velocity": 104}, {"time": 224481, "pitch": 42, "duration": 61, "velocity": 60}, {"time": 224481, "pitch": 49, "duration": 61, "velocity": 90}, {"time": 224643, "pitch": 35, "duration": 60, "velocity": 114}, {"time": 224643, "pitch": 57, "duration": 60, "velocity": 90}, {"time": 226565, "pitch": 35, "duration": 59, "velocity": 111}, {"time": 226883, "pitch": 47, "duration": 60, "velocity": 70}, {"time": 227042, "pitch": 35, "duration": 60, "velocity": 91}, {"time": 227042, "pitch": 45, "duration": 60, "velocity": 80}, {"time": 227042, "pitch": 47, "duration": 60, "velocity": 80}, {"time": 227361, "pitch": 35, "duration": 59, "velocity": 80}, {"time": 227361, "pitch": 43, "duration": 59, "velocity": 73}, {"time": 227361, "pitch": 45, "duration": 59, "velocity": 90}, {"time": 227838, "pitch": 35, "duration": 60, "velocity": 110}, {"time": 227997, "pitch": 38, "duration": 60, "velocity": 127}, {"time": 227997, "pitch": 47, "duration": 60, "velocity": 83}, {"time": 228157, "pitch": 35, "duration": 59, "velocity": 80}, {"time": 228316, "pitch": 35, "duration": 59, "velocity": 70}, {"time": 228475, "pitch": 35, "duration": 61, "velocity": 114}, {"time": 228475, "pitch": 38, "duration": 61, "velocity": 118}, {"time": 228638, "pitch": 38, "duration": 61, "velocity": 98}, {"time": 228800, "pitch": 35, "duration": 62, "velocity": 84}, {"time": 228800, "pitch": 38, "duration": 62, "velocity": 88}, {"time": 228963, "pitch": 47, "duration": 60, "velocity": 93}, {"time": 229122, "pitch": 47, "duration": 60, "velocity": 73}, {"time": 229282, "pitch": 35, "duration": 59, "velocity": 84}, {"time": 229282, "pitch": 47, "duration": 59, "velocity": 53}, {"time": 229441, "pitch": 45, "duration": 60, "velocity": 93}, {"time": 229600, "pitch": 45, "duration": 60, "velocity": 73}, {"time": 229759, "pitch": 35, "duration": 60, "velocity": 84}, {"time": 229759, "pitch": 45, "duration": 60, "velocity": 63}, {"time": 229918, "pitch": 43, "duration": 60, "velocity": 91}, {"time": 230078, "pitch": 43, "duration": 59, "velocity": 73}, {"time": 230237, "pitch": 35, "duration": 60, "velocity": 84}, {"time": 230237, "pitch": 43, "duration": 60, "velocity": 63}, {"time": 230396, "pitch": 38, "duration": 60, "velocity": 127}, {"time": 230717, "pitch": 47, "duration": 60, "velocity": 63}, {"time": 230717, "pitch": 47, "duration": 60, "velocity": 83}, {"time": 230878, "pitch": 35, "duration": 60, "velocity": 110}, {"time": 230878, "pitch": 43, "duration": 60, "velocity": 63}, {"time": 230878, "pitch": 45, "duration": 60, "velocity": 73}, {"time": 231199, "pitch": 35, "duration": 60, "velocity": 110}, {"time": 231199, "pitch": 49, "duration": 60, "velocity": 90}, {"time": 231359, "pitch": 46, "duration": 61, "velocity": 63}, {"time": 231520, "pitch": 46, "duration": 60, "velocity": 43}, {"time": 231680, "pitch": 46, "duration": 61, "velocity": 48}, {"time": 231841, "pitch": 46, "duration": 60, "velocity": 57}, {"time": 232002, "pitch": 46, "duration": 60, "velocity": 52}, {"time": 232002, "pitch": 46, "duration": 60, "velocity": 57}, {"time": 232162, "pitch": 46, "duration": 60, "velocity": 56}, {"time": 232323, "pitch": 46, "duration": 60, "velocity": 65}, {"time": 232483, "pitch": 46, "duration": 60, "velocity": 55}, {"time": 232644, "pitch": 46, "duration": 60, "velocity": 63}, {"time": 232804, "pitch": 46, "duration": 59, "velocity": 53}, {"time": 232961, "pitch": 46, "duration": 59, "velocity": 66}, {"time": 232961, "pitch": 46, "duration": 59, "velocity": 75}, {"time": 233118, "pitch": 46, "duration": 59, "velocity": 84}, {"time": 233275, "pitch": 46, "duration": 61, "velocity": 94}, {"time": 233516, "pitch": 38, "duration": 60, "velocity": 112}, {"time": 233596, "pitch": 45, "duration": 61, "velocity": 110}, {"time": 233677, "pitch": 43, "duration": 60, "velocity": 107}, {"time": 233757, "pitch": 35, "duration": 60, "velocity": 113}, {"time": 2241, "pitch": 65, "duration": 123, "velocity": 120}, {"time": 2400, "pitch": 67, "duration": 294, "velocity": 120}, {"time": 2718, "pitch": 70, "duration": 141, "velocity": 120}, {"time": 3196, "pitch": 70, "duration": 150, "velocity": 120}, {"time": 3355, "pitch": 67, "duration": 252, "velocity": 120}, {"time": 3681, "pitch": 70, "duration": 108, "velocity": 120}, {"time": 3843, "pitch": 72, "duration": 265, "velocity": 120}, {"time": 4321, "pitch": 67, "duration": 224, "velocity": 120}, {"time": 4799, "pitch": 65, "duration": 298, "velocity": 120}, {"time": 5117, "pitch": 67, "duration": 125, "velocity": 120}, {"time": 6083, "pitch": 65, "duration": 123, "velocity": 120}, {"time": 6242, "pitch": 67, "duration": 295, "velocity": 120}, {"time": 6560, "pitch": 70, "duration": 141, "velocity": 120}, {"time": 7038, "pitch": 70, "duration": 150, "velocity": 120}, {"time": 7197, "pitch": 67, "duration": 247, "velocity": 120}, {"time": 7516, "pitch": 65, "duration": 106, "velocity": 120}, {"time": 7675, "pitch": 70, "duration": 282, "velocity": 120}, {"time": 9922, "pitch": 65, "duration": 126, "velocity": 120}, {"time": 10084, "pitch": 67, "duration": 295, "velocity": 120}, {"time": 10403, "pitch": 70, "duration": 140, "velocity": 120}, {"time": 10880, "pitch": 70, "duration": 151, "velocity": 120}, {"time": 11040, "pitch": 67, "duration": 246, "velocity": 120}, {"time": 11358, "pitch": 70, "duration": 106, "velocity": 120}, {"time": 11517, "pitch": 72, "duration": 265, "velocity": 120}, {"time": 11995, "pitch": 67, "duration": 229, "velocity": 120}, {"time": 12483, "pitch": 65, "duration": 299, "velocity": 120}, {"time": 12801, "pitch": 67, "duration": 126, "velocity": 120}, {"time": 13438, "pitch": 63, "duration": 301, "velocity": 120}, {"time": 13757, "pitch": 64, "duration": 160, "velocity": 120}, {"time": 13916, "pitch": 67, "duration": 124, "velocity": 120}, {"time": 14241, "pitch": 63, "duration": 149, "velocity": 120}, {"time": 14404, "pitch": 64, "duration": 310, "velocity": 120}, {"time": 14723, "pitch": 67, "duration": 109, "velocity": 120}, {"time": 14882, "pitch": 64, "duration": 285, "velocity": 120}, {"time": 15359, "pitch": 72, "duration": 226, "velocity": 120}, {"time": 21123, "pitch": 70, "duration": 1804, "velocity": 79}, {"time": 21123, "pitch": 75, "duration": 1819, "velocity": 104}, {"time": 23044, "pitch": 72, "duration": 265, "velocity": 95}, {"time": 23044, "pitch": 75, "duration": 265, "velocity": 95}, {"time": 23362, "pitch": 72, "duration": 280, "velocity": 95}, {"time": 23362, "pitch": 75, "duration": 280, "velocity": 95}, {"time": 23840, "pitch": 72, "duration": 913, "velocity": 109}, {"time": 23840, "pitch": 77, "duration": 913, "velocity": 109}, {"time": 33116, "pitch": 72, "duration": 351, "velocity": 109}, {"time": 33116, "pitch": 75, "duration": 356, "velocity": 90}, {"time": 35037, "pitch": 72, "duration": 214, "velocity": 97}, {"time": 35037, "pitch": 75, "duration": 224, "velocity": 106}, {"time": 35841, "pitch": 70, "duration": 336, "velocity": 101}, {"time": 35841, "pitch": 74, "duration": 331, "velocity": 107}, {"time": 36959, "pitch": 70, "duration": 276, "velocity": 84}, {"time": 36959, "pitch": 75, "duration": 291, "velocity": 109}, {"time": 38880, "pitch": 72, "duration": 336, "velocity": 109}, {"time": 38880, "pitch": 75, "duration": 341, "velocity": 90}, {"time": 39676, "pitch": 72, "duration": 311, "velocity": 82}, {"time": 39676, "pitch": 75, "duration": 291, "velocity": 114}, {"time": 40328, "pitch": 70, "duration": 309, "velocity": 113}, {"time": 40333, "pitch": 74, "duration": 319, "velocity": 102}, {"time": 42558, "pitch": 69, "duration": 89, "velocity": 109}, {"time": 42563, "pitch": 72, "duration": 84, "velocity": 111}, {"time": 42742, "pitch": 69, "duration": 144, "velocity": 102}, {"time": 42742, "pitch": 72, "duration": 149, "velocity": 108}, {"time": 43035, "pitch": 70, "duration": 269, "velocity": 117}, {"time": 43035, "pitch": 74, "duration": 309, "velocity": 111}, {"time": 44155, "pitch": 68, "duration": 456, "velocity": 121}, {"time": 44643, "pitch": 70, "duration": 237, "velocity": 109}, {"time": 44961, "pitch": 65, "duration": 78, "velocity": 92}, {"time": 45121, "pitch": 68, "duration": 439, "velocity": 121}, {"time": 45598, "pitch": 70, "duration": 189, "velocity": 109}, {"time": 45917, "pitch": 73, "duration": 570, "velocity": 126}, {"time": 46564, "pitch": 70, "duration": 227, "velocity": 109}, {"time": 46883, "pitch": 68, "duration": 147, "velocity": 99}, {"time": 47042, "pitch": 63, "duration": 282, "velocity": 103}, {"time": 47360, "pitch": 61, "duration": 122, "velocity": 111}, {"time": 47519, "pitch": 58, "duration": 207, "velocity": 92}, {"time": 47997, "pitch": 68, "duration": 456, "velocity": 121}, {"time": 48485, "pitch": 70, "duration": 237, "velocity": 109}, {"time": 48804, "pitch": 65, "duration": 77, "velocity": 92}, {"time": 48963, "pitch": 68, "duration": 440, "velocity": 121}, {"time": 49440, "pitch": 70, "duration": 190, "velocity": 109}, {"time": 49759, "pitch": 73, "duration": 561, "velocity": 126}, {"time": 50396, "pitch": 70, "duration": 150, "velocity": 109}, {"time": 50721, "pitch": 68, "duration": 151, "velocity": 99}, {"time": 50884, "pitch": 63, "duration": 283, "velocity": 103}, {"time": 51202, "pitch": 61, "duration": 122, "velocity": 111}, {"time": 51362, "pitch": 58, "duration": 207, "velocity": 92}, {"time": 51839, "pitch": 67, "duration": 1812, "velocity": 104}, {"time": 53760, "pitch": 65, "duration": 1797, "velocity": 111}, {"time": 55681, "pitch": 63, "duration": 301, "velocity": 120}, {"time": 56000, "pitch": 64, "duration": 160, "velocity": 120}, {"time": 56159, "pitch": 67, "duration": 121, "velocity": 120}, {"time": 56477, "pitch": 63, "duration": 146, "velocity": 120}, {"time": 56637, "pitch": 64, "duration": 316, "velocity": 120}, {"time": 56962, "pitch": 67, "duration": 112, "velocity": 120}, {"time": 57125, "pitch": 64, "duration": 285, "velocity": 120}, {"time": 57603, "pitch": 72, "duration": 225, "velocity": 120}, {"time": 63355, "pitch": 70, "duration": 1807, "velocity": 79}, {"time": 63355, "pitch": 75, "duration": 1822, "velocity": 104}, {"time": 65276, "pitch": 72, "duration": 272, "velocity": 95}, {"time": 65276, "pitch": 75, "duration": 272, "velocity": 95}, {"time": 65602, "pitch": 72, "duration": 283, "velocity": 95}, {"time": 65602, "pitch": 75, "duration": 283, "velocity": 95}, {"time": 66083, "pitch": 72, "duration": 907, "velocity": 109}, {"time": 66083, "pitch": 77, "duration": 907, "velocity": 109}, {"time": 75359, "pitch": 72, "duration": 344, "velocity": 109}, {"time": 75359, "pitch": 75, "duration": 349, "velocity": 90}, {"time": 77281, "pitch": 72, "duration": 214, "velocity": 97}, {"time": 77281, "pitch": 75, "duration": 223, "velocity": 106}, {"time": 78077, "pitch": 70, "duration": 337, "velocity": 101}, {"time": 78077, "pitch": 74, "duration": 332, "velocity": 107}, {"time": 79202, "pitch": 70, "duration": 276, "velocity": 84}, {"time": 79202, "pitch": 75, "duration": 291, "velocity": 109}, {"time": 81123, "pitch": 72, "duration": 336, "velocity": 109}, {"time": 81123, "pitch": 75, "duration": 341, "velocity": 90}, {"time": 81919, "pitch": 72, "duration": 308, "velocity": 82}, {"time": 81919, "pitch": 75, "duration": 288, "velocity": 114}, {"time": 82561, "pitch": 70, "duration": 315, "velocity": 113}, {"time": 82566, "pitch": 74, "duration": 325, "velocity": 102}, {"time": 84797, "pitch": 69, "duration": 92, "velocity": 109}, {"time": 84802, "pitch": 72, "duration": 87, "velocity": 111}, {"time": 84985, "pitch": 69, "duration": 144, "velocity": 102}, {"time": 84985, "pitch": 72, "duration": 149, "velocity": 108}, {"time": 85278, "pitch": 70, "duration": 269, "velocity": 117}, {"time": 85278, "pitch": 74, "duration": 309, "velocity": 111}, {"time": 94082, "pitch": 69, "duration": 1810, "velocity": 104}, {"time": 96003, "pitch": 67, "duration": 1794, "velocity": 111}, {"time": 97925, "pitch": 65, "duration": 300, "velocity": 120}, {"time": 98243, "pitch": 66, "duration": 160, "velocity": 120}, {"time": 98402, "pitch": 69, "duration": 122, "velocity": 120}, {"time": 98721, "pitch": 65, "duration": 145, "velocity": 120}, {"time": 98880, "pitch": 66, "duration": 309, "velocity": 120}, {"time": 99198, "pitch": 69, "duration": 110, "velocity": 120}, {"time": 99357, "pitch": 66, "duration": 286, "velocity": 120}, {"time": 99835, "pitch": 74, "duration": 231, "velocity": 120}, {"time": 102082, "pitch": 65, "duration": 126, "velocity": 120}, {"time": 102244, "pitch": 67, "duration": 295, "velocity": 120}, {"time": 102563, "pitch": 70, "duration": 140, "velocity": 120}, {"time": 103040, "pitch": 70, "duration": 151, "velocity": 120}, {"time": 103200, "pitch": 67, "duration": 246, "velocity": 120}, {"time": 103518, "pitch": 70, "duration": 107, "velocity": 120}, {"time": 103677, "pitch": 72, "duration": 265, "velocity": 120}, {"time": 104155, "pitch": 67, "duration": 229, "velocity": 120}, {"time": 104643, "pitch": 65, "duration": 299, "velocity": 120}, {"time": 104962, "pitch": 67, "duration": 125, "velocity": 120}, {"time": 105917, "pitch": 65, "duration": 123, "velocity": 120}, {"time": 106076, "pitch": 67, "duration": 301, "velocity": 120}, {"time": 106402, "pitch": 70, "duration": 143, "velocity": 120}, {"time": 106883, "pitch": 70, "duration": 150, "velocity": 120}, {"time": 107042, "pitch": 67, "duration": 247, "velocity": 120}, {"time": 107360, "pitch": 65, "duration": 107, "velocity": 120}, {"time": 107519, "pitch": 70, "duration": 276, "velocity": 120}, {"time": 109759, "pitch": 65, "duration": 123, "velocity": 120}, {"time": 109918, "pitch": 67, "duration": 295, "velocity": 120}, {"time": 110237, "pitch": 70, "duration": 140, "velocity": 120}, {"time": 110721, "pitch": 70, "duration": 154, "velocity": 120}, {"time": 110884, "pitch": 67, "duration": 247, "velocity": 120}, {"time": 111202, "pitch": 70, "duration": 107, "velocity": 120}, {"time": 111362, "pitch": 72, "duration": 264, "velocity": 120}, {"time": 111839, "pitch": 67, "duration": 224, "velocity": 120}, {"time": 112317, "pitch": 65, "duration": 305, "velocity": 120}, {"time": 112642, "pitch": 67, "duration": 129, "velocity": 120}, {"time": 113283, "pitch": 63, "duration": 300, "velocity": 120}, {"time": 113601, "pitch": 64, "duration": 160, "velocity": 120}, {"time": 113760, "pitch": 67, "duration": 122, "velocity": 120}, {"time": 114079, "pitch": 63, "duration": 145, "velocity": 120}, {"time": 114238, "pitch": 64, "duration": 309, "velocity": 120}, {"time": 114556, "pitch": 67, "duration": 110, "velocity": 120}, {"time": 114716, "pitch": 64, "duration": 292, "velocity": 120}, {"time": 115204, "pitch": 72, "duration": 226, "velocity": 120}, {"time": 120957, "pitch": 70, "duration": 1806, "velocity": 79}, {"time": 120957, "pitch": 75, "duration": 1821, "velocity": 104}, {"time": 122878, "pitch": 72, "duration": 265, "velocity": 95}, {"time": 122878, "pitch": 75, "duration": 265, "velocity": 95}, {"time": 123196, "pitch": 72, "duration": 282, "velocity": 95}, {"time": 123196, "pitch": 75, "duration": 282, "velocity": 95}, {"time": 123681, "pitch": 72, "duration": 911, "velocity": 109}, {"time": 123681, "pitch": 77, "duration": 911, "velocity": 109}, {"time": 132961, "pitch": 72, "duration": 343, "velocity": 109}, {"time": 132961, "pitch": 75, "duration": 348, "velocity": 90}, {"time": 134882, "pitch": 72, "duration": 214, "velocity": 97}, {"time": 134882, "pitch": 75, "duration": 224, "velocity": 106}, {"time": 135678, "pitch": 70, "duration": 333, "velocity": 101}, {"time": 135678, "pitch": 74, "duration": 328, "velocity": 107}, {"time": 136803, "pitch": 70, "duration": 277, "velocity": 84}, {"time": 136803, "pitch": 75, "duration": 292, "velocity": 109}, {"time": 138724, "pitch": 72, "duration": 337, "velocity": 109}, {"time": 138724, "pitch": 75, "duration": 342, "velocity": 90}, {"time": 139520, "pitch": 72, "duration": 309, "velocity": 82}, {"time": 139520, "pitch": 75, "duration": 289, "velocity": 114}, {"time": 140162, "pitch": 70, "duration": 309, "velocity": 113}, {"time": 140167, "pitch": 74, "duration": 318, "velocity": 102}, {"time": 142392, "pitch": 69, "duration": 89, "velocity": 109}, {"time": 142397, "pitch": 72, "duration": 84, "velocity": 111}, {"time": 142576, "pitch": 69, "duration": 148, "velocity": 102}, {"time": 142576, "pitch": 72, "duration": 153, "velocity": 108}, {"time": 142876, "pitch": 70, "duration": 273, "velocity": 117}, {"time": 142876, "pitch": 74, "duration": 312, "velocity": 111}, {"time": 143999, "pitch": 68, "duration": 446, "velocity": 121}, {"time": 144477, "pitch": 70, "duration": 242, "velocity": 109}, {"time": 144802, "pitch": 65, "duration": 80, "velocity": 92}, {"time": 144965, "pitch": 68, "duration": 440, "velocity": 121}, {"time": 145443, "pitch": 70, "duration": 189, "velocity": 109}, {"time": 145761, "pitch": 73, "duration": 561, "velocity": 126}, {"time": 146398, "pitch": 70, "duration": 227, "velocity": 109}, {"time": 146716, "pitch": 68, "duration": 148, "velocity": 99}, {"time": 146876, "pitch": 63, "duration": 289, "velocity": 103}, {"time": 147201, "pitch": 61, "duration": 124, "velocity": 111}, {"time": 147364, "pitch": 58, "duration": 207, "velocity": 92}, {"time": 147842, "pitch": 68, "duration": 445, "velocity": 121}, {"time": 148319, "pitch": 70, "duration": 237, "velocity": 109}, {"time": 148638, "pitch": 65, "duration": 77, "velocity": 92}, {"time": 148797, "pitch": 68, "duration": 449, "velocity": 121}, {"time": 149285, "pitch": 70, "duration": 189, "velocity": 109}, {"time": 149603, "pitch": 73, "duration": 562, "velocity": 126}, {"time": 150240, "pitch": 70, "duration": 148, "velocity": 109}, {"time": 150559, "pitch": 68, "duration": 147, "velocity": 99}, {"time": 150718, "pitch": 63, "duration": 282, "velocity": 103}, {"time": 151036, "pitch": 61, "duration": 122, "velocity": 111}, {"time": 151195, "pitch": 58, "duration": 212, "velocity": 92}, {"time": 151684, "pitch": 67, "duration": 1809, "velocity": 104}, {"time": 153605, "pitch": 65, "duration": 1786, "velocity": 111}, {"time": 155515, "pitch": 63, "duration": 308, "velocity": 120}, {"time": 155841, "pitch": 64, "duration": 164, "velocity": 120}, {"time": 156004, "pitch": 67, "duration": 121, "velocity": 120}, {"time": 156322, "pitch": 63, "duration": 145, "velocity": 120}, {"time": 156481, "pitch": 64, "duration": 310, "velocity": 120}, {"time": 156800, "pitch": 67, "duration": 109, "velocity": 120}, {"time": 156959, "pitch": 64, "duration": 285, "velocity": 120}, {"time": 157436, "pitch": 72, "duration": 231, "velocity": 120}, {"time": 163200, "pitch": 70, "duration": 1806, "velocity": 79}, {"time": 163200, "pitch": 75, "duration": 1821, "velocity": 104}, {"time": 165121, "pitch": 72, "duration": 266, "velocity": 95}, {"time": 165121, "pitch": 75, "duration": 266, "velocity": 95}, {"time": 165439, "pitch": 72, "duration": 280, "velocity": 95}, {"time": 165439, "pitch": 75, "duration": 280, "velocity": 95}, {"time": 165917, "pitch": 72, "duration": 918, "velocity": 109}, {"time": 165917, "pitch": 77, "duration": 918, "velocity": 109}, {"time": 175204, "pitch": 72, "duration": 343, "velocity": 109}, {"time": 175204, "pitch": 75, "duration": 348, "velocity": 90}, {"time": 177125, "pitch": 72, "duration": 214, "velocity": 97}, {"time": 177125, "pitch": 75, "duration": 224, "velocity": 106}, {"time": 177921, "pitch": 70, "duration": 334, "velocity": 101}, {"time": 177921, "pitch": 74, "duration": 329, "velocity": 107}, {"time": 179036, "pitch": 70, "duration": 282, "velocity": 84}, {"time": 179036, "pitch": 75, "duration": 298, "velocity": 109}, {"time": 180957, "pitch": 72, "duration": 344, "velocity": 109}, {"time": 180957, "pitch": 75, "duration": 349, "velocity": 90}, {"time": 181763, "pitch": 72, "duration": 309, "velocity": 82}, {"time": 181763, "pitch": 75, "duration": 289, "velocity": 114}, {"time": 182405, "pitch": 70, "duration": 309, "velocity": 118}, {"time": 182410, "pitch": 74, "duration": 319, "velocity": 107}, {"time": 184635, "pitch": 69, "duration": 89, "velocity": 114}, {"time": 184640, "pitch": 72, "duration": 84, "velocity": 116}, {"time": 184819, "pitch": 69, "duration": 144, "velocity": 107}, {"time": 184819, "pitch": 72, "duration": 149, "velocity": 113}, {"time": 185112, "pitch": 70, "duration": 271, "velocity": 122}, {"time": 185112, "pitch": 74, "duration": 312, "velocity": 116}, {"time": 186561, "pitch": 67, "duration": 123, "velocity": 120}, {"time": 186720, "pitch": 69, "duration": 295, "velocity": 120}, {"time": 187038, "pitch": 72, "duration": 141, "velocity": 120}, {"time": 187516, "pitch": 72, "duration": 150, "velocity": 120}, {"time": 187675, "pitch": 69, "duration": 253, "velocity": 120}, {"time": 188001, "pitch": 72, "duration": 109, "velocity": 120}, {"time": 188164, "pitch": 74, "duration": 264, "velocity": 120}, {"time": 188641, "pitch": 69, "duration": 224, "velocity": 120}, {"time": 189119, "pitch": 67, "duration": 298, "velocity": 120}, {"time": 189437, "pitch": 69, "duration": 126, "velocity": 120}, {"time": 190403, "pitch": 67, "duration": 123, "velocity": 120}, {"time": 190562, "pitch": 69, "duration": 295, "velocity": 120}, {"time": 190881, "pitch": 72, "duration": 140, "velocity": 120}, {"time": 191358, "pitch": 72, "duration": 151, "velocity": 120}, {"time": 191518, "pitch": 69, "duration": 246, "velocity": 120}, {"time": 191836, "pitch": 67, "duration": 106, "velocity": 120}, {"time": 191995, "pitch": 72, "duration": 282, "velocity": 120}, {"time": 194242, "pitch": 67, "duration": 126, "velocity": 120}, {"time": 194405, "pitch": 69, "duration": 294, "velocity": 120}, {"time": 194723, "pitch": 72, "duration": 140, "velocity": 120}, {"time": 195201, "pitch": 72, "duration": 150, "velocity": 120}, {"time": 195360, "pitch": 69, "duration": 247, "velocity": 120}, {"time": 195678, "pitch": 72, "duration": 107, "velocity": 120}, {"time": 195837, "pitch": 74, "duration": 265, "velocity": 120}, {"time": 196315, "pitch": 69, "duration": 229, "velocity": 120}, {"time": 196803, "pitch": 67, "duration": 299, "velocity": 120}, {"time": 197122, "pitch": 69, "duration": 125, "velocity": 120}, {"time": 197758, "pitch": 65, "duration": 301, "velocity": 120}, {"time": 198077, "pitch": 66, "duration": 160, "velocity": 120}, {"time": 198236, "pitch": 69, "duration": 124, "velocity": 120}, {"time": 198562, "pitch": 65, "duration": 148, "velocity": 120}, {"time": 198724, "pitch": 66, "duration": 310, "velocity": 120}, {"time": 199043, "pitch": 69, "duration": 109, "velocity": 120}, {"time": 199202, "pitch": 66, "duration": 286, "velocity": 120}, {"time": 199680, "pitch": 74, "duration": 225, "velocity": 120}, {"time": 205443, "pitch": 72, "duration": 1804, "velocity": 79}, {"time": 205443, "pitch": 77, "duration": 1819, "velocity": 104}, {"time": 207364, "pitch": 74, "duration": 266, "velocity": 95}, {"time": 207364, "pitch": 77, "duration": 266, "velocity": 95}, {"time": 207682, "pitch": 74, "duration": 280, "velocity": 95}, {"time": 207682, "pitch": 77, "duration": 280, "velocity": 95}, {"time": 208160, "pitch": 74, "duration": 914, "velocity": 109}, {"time": 208160, "pitch": 79, "duration": 914, "velocity": 109}, {"time": 217437, "pitch": 74, "duration": 351, "velocity": 109}, {"time": 217437, "pitch": 77, "duration": 356, "velocity": 90}, {"time": 219358, "pitch": 74, "duration": 214, "velocity": 97}, {"time": 219358, "pitch": 77, "duration": 224, "velocity": 106}, {"time": 220161, "pitch": 72, "duration": 337, "velocity": 101}, {"time": 220161, "pitch": 76, "duration": 332, "velocity": 107}, {"time": 221279, "pitch": 72, "duration": 276, "velocity": 84}, {"time": 221279, "pitch": 77, "duration": 291, "velocity": 109}, {"time": 223200, "pitch": 74, "duration": 336, "velocity": 109}, {"time": 223200, "pitch": 77, "duration": 341, "velocity": 90}, {"time": 223996, "pitch": 74, "duration": 312, "velocity": 82}, {"time": 223996, "pitch": 77, "duration": 291, "velocity": 114}, {"time": 224648, "pitch": 72, "duration": 309, "velocity": 113}, {"time": 224653, "pitch": 76, "duration": 319, "velocity": 102}, {"time": 226878, "pitch": 71, "duration": 90, "velocity": 109}, {"time": 226883, "pitch": 74, "duration": 85, "velocity": 111}, {"time": 227062, "pitch": 71, "duration": 144, "velocity": 102}, {"time": 227062, "pitch": 74, "duration": 149, "velocity": 108}, {"time": 227356, "pitch": 72, "duration": 268, "velocity": 117}, {"time": 227356, "pitch": 76, "duration": 308, "velocity": 111}, {"time": 2241, "pitch": 65, "duration": 123, "velocity": 120}, {"time": 2400, "pitch": 67, "duration": 294, "velocity": 120}, {"time": 2718, "pitch": 70, "duration": 141, "velocity": 120}, {"time": 3196, "pitch": 70, "duration": 150, "velocity": 120}, {"time": 3355, "pitch": 67, "duration": 252, "velocity": 120}, {"time": 3681, "pitch": 70, "duration": 108, "velocity": 120}, {"time": 3843, "pitch": 72, "duration": 265, "velocity": 120}, {"time": 4321, "pitch": 67, "duration": 224, "velocity": 120}, {"time": 4799, "pitch": 65, "duration": 298, "velocity": 120}, {"time": 5117, "pitch": 67, "duration": 125, "velocity": 120}, {"time": 6083, "pitch": 65, "duration": 123, "velocity": 120}, {"time": 6242, "pitch": 67, "duration": 295, "velocity": 120}, {"time": 6560, "pitch": 70, "duration": 141, "velocity": 120}, {"time": 7038, "pitch": 70, "duration": 150, "velocity": 120}, {"time": 7197, "pitch": 67, "duration": 247, "velocity": 120}, {"time": 7516, "pitch": 65, "duration": 106, "velocity": 120}, {"time": 7675, "pitch": 65, "duration": 127, "velocity": 124}, {"time": 7838, "pitch": 63, "duration": 173, "velocity": 122}, {"time": 8000, "pitch": 62, "duration": 143, "velocity": 121}, {"time": 8163, "pitch": 61, "duration": 149, "velocity": 120}, {"time": 8322, "pitch": 60, "duration": 140, "velocity": 119}, {"time": 8482, "pitch": 58, "duration": 139, "velocity": 118}, {"time": 8641, "pitch": 56, "duration": 139, "velocity": 117}, {"time": 8800, "pitch": 55, "duration": 144, "velocity": 115}, {"time": 8959, "pitch": 53, "duration": 140, "velocity": 114}, {"time": 9118, "pitch": 51, "duration": 155, "velocity": 113}, {"time": 9278, "pitch": 50, "duration": 139, "velocity": 112}, {"time": 9437, "pitch": 49, "duration": 174, "velocity": 111}, {"time": 9922, "pitch": 65, "duration": 126, "velocity": 120}, {"time": 10084, "pitch": 67, "duration": 295, "velocity": 120}, {"time": 10403, "pitch": 70, "duration": 140, "velocity": 120}, {"time": 10880, "pitch": 70, "duration": 151, "velocity": 120}, {"time": 11040, "pitch": 67, "duration": 246, "velocity": 120}, {"time": 11358, "pitch": 70, "duration": 106, "velocity": 120}, {"time": 11517, "pitch": 72, "duration": 265, "velocity": 120}, {"time": 11995, "pitch": 67, "duration": 229, "velocity": 120}, {"time": 12483, "pitch": 65, "duration": 299, "velocity": 120}, {"time": 12801, "pitch": 67, "duration": 126, "velocity": 120}, {"time": 13438, "pitch": 63, "duration": 301, "velocity": 120}, {"time": 13757, "pitch": 64, "duration": 160, "velocity": 120}, {"time": 13916, "pitch": 67, "duration": 124, "velocity": 120}, {"time": 14241, "pitch": 63, "duration": 149, "velocity": 120}, {"time": 14404, "pitch": 64, "duration": 310, "velocity": 120}, {"time": 14723, "pitch": 67, "duration": 109, "velocity": 120}, {"time": 14882, "pitch": 64, "duration": 285, "velocity": 120}, {"time": 15359, "pitch": 72, "duration": 226, "velocity": 120}, {"time": 21123, "pitch": 55, "duration": 1819, "velocity": 89}, {"time": 21123, "pitch": 63, "duration": 1819, "velocity": 104}, {"time": 23044, "pitch": 55, "duration": 278, "velocity": 112}, {"time": 23044, "pitch": 63, "duration": 265, "velocity": 90}, {"time": 23362, "pitch": 55, "duration": 279, "velocity": 112}, {"time": 23362, "pitch": 63, "duration": 280, "velocity": 90}, {"time": 23840, "pitch": 57, "duration": 908, "velocity": 102}, {"time": 23840, "pitch": 65, "duration": 913, "velocity": 104}, {"time": 44155, "pitch": 56, "duration": 456, "velocity": 121}, {"time": 44643, "pitch": 58, "duration": 237, "velocity": 109}, {"time": 44961, "pitch": 53, "duration": 78, "velocity": 92}, {"time": 45121, "pitch": 56, "duration": 439, "velocity": 121}, {"time": 45598, "pitch": 58, "duration": 189, "velocity": 109}, {"time": 45917, "pitch": 61, "duration": 570, "velocity": 126}, {"time": 46564, "pitch": 58, "duration": 227, "velocity": 109}, {"time": 46883, "pitch": 56, "duration": 147, "velocity": 99}, {"time": 47042, "pitch": 51, "duration": 282, "velocity": 103}, {"time": 47360, "pitch": 49, "duration": 122, "velocity": 111}, {"time": 47519, "pitch": 46, "duration": 207, "velocity": 92}, {"time": 47997, "pitch": 56, "duration": 456, "velocity": 121}, {"time": 48485, "pitch": 58, "duration": 237, "velocity": 109}, {"time": 48804, "pitch": 53, "duration": 77, "velocity": 92}, {"time": 48963, "pitch": 56, "duration": 440, "velocity": 121}, {"time": 49440, "pitch": 58, "duration": 190, "velocity": 109}, {"time": 49759, "pitch": 61, "duration": 561, "velocity": 126}, {"time": 50396, "pitch": 58, "duration": 150, "velocity": 109}, {"time": 50721, "pitch": 56, "duration": 151, "velocity": 99}, {"time": 50884, "pitch": 51, "duration": 283, "velocity": 103}, {"time": 51202, "pitch": 49, "duration": 122, "velocity": 111}, {"time": 51362, "pitch": 46, "duration": 207, "velocity": 92}, {"time": 51839, "pitch": 58, "duration": 1852, "velocity": 85}, {"time": 51839, "pitch": 63, "duration": 1802, "velocity": 107}, {"time": 53760, "pitch": 58, "duration": 1832, "velocity": 104}, {"time": 53760, "pitch": 62, "duration": 1827, "velocity": 102}, {"time": 55681, "pitch": 63, "duration": 301, "velocity": 120}, {"time": 56000, "pitch": 64, "duration": 160, "velocity": 120}, {"time": 56159, "pitch": 67, "duration": 121, "velocity": 120}, {"time": 56477, "pitch": 63, "duration": 146, "velocity": 120}, {"time": 56637, "pitch": 64, "duration": 316, "velocity": 120}, {"time": 56962, "pitch": 67, "duration": 112, "velocity": 120}, {"time": 57125, "pitch": 64, "duration": 285, "velocity": 120}, {"time": 57603, "pitch": 72, "duration": 225, "velocity": 120}, {"time": 63355, "pitch": 55, "duration": 1822, "velocity": 89}, {"time": 63355, "pitch": 63, "duration": 1822, "velocity": 104}, {"time": 65276, "pitch": 55, "duration": 285, "velocity": 112}, {"time": 65276, "pitch": 63, "duration": 272, "velocity": 90}, {"time": 65602, "pitch": 55, "duration": 282, "velocity": 112}, {"time": 65602, "pitch": 63, "duration": 283, "velocity": 90}, {"time": 66083, "pitch": 57, "duration": 902, "velocity": 102}, {"time": 66083, "pitch": 65, "duration": 907, "velocity": 104}, {"time": 94082, "pitch": 60, "duration": 1850, "velocity": 85}, {"time": 94082, "pitch": 65, "duration": 1799, "velocity": 107}, {"time": 96003, "pitch": 60, "duration": 1830, "velocity": 104}, {"time": 96003, "pitch": 64, "duration": 1825, "velocity": 102}, {"time": 97925, "pitch": 65, "duration": 300, "velocity": 120}, {"time": 98243, "pitch": 66, "duration": 160, "velocity": 120}, {"time": 98402, "pitch": 69, "duration": 122, "velocity": 120}, {"time": 98721, "pitch": 65, "duration": 145, "velocity": 120}, {"time": 98880, "pitch": 66, "duration": 309, "velocity": 120}, {"time": 99198, "pitch": 69, "duration": 110, "velocity": 120}, {"time": 99357, "pitch": 66, "duration": 286, "velocity": 120}, {"time": 99835, "pitch": 74, "duration": 231, "velocity": 120}, {"time": 102082, "pitch": 65, "duration": 126, "velocity": 120}, {"time": 102244, "pitch": 67, "duration": 295, "velocity": 120}, {"time": 102563, "pitch": 70, "duration": 140, "velocity": 120}, {"time": 103040, "pitch": 70, "duration": 151, "velocity": 120}, {"time": 103200, "pitch": 67, "duration": 246, "velocity": 120}, {"time": 103518, "pitch": 70, "duration": 107, "velocity": 120}, {"time": 103677, "pitch": 72, "duration": 265, "velocity": 120}, {"time": 104155, "pitch": 67, "duration": 229, "velocity": 120}, {"time": 104643, "pitch": 65, "duration": 299, "velocity": 120}, {"time": 104962, "pitch": 67, "duration": 125, "velocity": 120}, {"time": 105917, "pitch": 65, "duration": 123, "velocity": 120}, {"time": 106076, "pitch": 67, "duration": 301, "velocity": 120}, {"time": 106402, "pitch": 70, "duration": 143, "velocity": 120}, {"time": 106883, "pitch": 70, "duration": 150, "velocity": 120}, {"time": 107042, "pitch": 67, "duration": 247, "velocity": 120}, {"time": 107360, "pitch": 65, "duration": 107, "velocity": 120}, {"time": 107519, "pitch": 65, "duration": 125, "velocity": 124}, {"time": 107679, "pitch": 63, "duration": 169, "velocity": 122}, {"time": 107838, "pitch": 62, "duration": 139, "velocity": 121}, {"time": 107997, "pitch": 61, "duration": 149, "velocity": 120}, {"time": 108156, "pitch": 60, "duration": 140, "velocity": 119}, {"time": 108315, "pitch": 58, "duration": 140, "velocity": 118}, {"time": 108475, "pitch": 56, "duration": 142, "velocity": 117}, {"time": 108637, "pitch": 55, "duration": 148, "velocity": 115}, {"time": 108800, "pitch": 53, "duration": 143, "velocity": 114}, {"time": 108963, "pitch": 51, "duration": 154, "velocity": 113}, {"time": 109122, "pitch": 50, "duration": 139, "velocity": 112}, {"time": 109281, "pitch": 49, "duration": 175, "velocity": 111}, {"time": 109759, "pitch": 65, "duration": 123, "velocity": 120}, {"time": 109918, "pitch": 67, "duration": 295, "velocity": 120}, {"time": 110237, "pitch": 70, "duration": 140, "velocity": 120}, {"time": 110721, "pitch": 70, "duration": 154, "velocity": 120}, {"time": 110884, "pitch": 67, "duration": 247, "velocity": 120}, {"time": 111202, "pitch": 70, "duration": 107, "velocity": 120}, {"time": 111362, "pitch": 72, "duration": 264, "velocity": 120}, {"time": 111839, "pitch": 67, "duration": 224, "velocity": 120}, {"time": 112317, "pitch": 65, "duration": 305, "velocity": 120}, {"time": 112642, "pitch": 67, "duration": 129, "velocity": 120}, {"time": 113283, "pitch": 63, "duration": 300, "velocity": 120}, {"time": 113601, "pitch": 64, "duration": 160, "velocity": 120}, {"time": 113760, "pitch": 67, "duration": 122, "velocity": 120}, {"time": 114079, "pitch": 63, "duration": 145, "velocity": 120}, {"time": 114238, "pitch": 64, "duration": 309, "velocity": 120}, {"time": 114556, "pitch": 67, "duration": 110, "velocity": 120}, {"time": 114716, "pitch": 64, "duration": 292, "velocity": 120}, {"time": 115204, "pitch": 72, "duration": 226, "velocity": 120}, {"time": 120957, "pitch": 55, "duration": 1821, "velocity": 89}, {"time": 120957, "pitch": 63, "duration": 1821, "velocity": 104}, {"time": 122878, "pitch": 55, "duration": 278, "velocity": 112}, {"time": 122878, "pitch": 63, "duration": 265, "velocity": 90}, {"time": 123196, "pitch": 55, "duration": 281, "velocity": 112}, {"time": 123196, "pitch": 63, "duration": 282, "velocity": 90}, {"time": 123681, "pitch": 57, "duration": 906, "velocity": 102}, {"time": 123681, "pitch": 65, "duration": 911, "velocity": 104}, {"time": 143999, "pitch": 56, "duration": 446, "velocity": 121}, {"time": 144477, "pitch": 58, "duration": 242, "velocity": 109}, {"time": 144802, "pitch": 53, "duration": 80, "velocity": 92}, {"time": 144965, "pitch": 56, "duration": 440, "velocity": 121}, {"time": 145443, "pitch": 58, "duration": 189, "velocity": 109}, {"time": 145761, "pitch": 61, "duration": 561, "velocity": 126}, {"time": 146398, "pitch": 58, "duration": 227, "velocity": 109}, {"time": 146716, "pitch": 56, "duration": 148, "velocity": 99}, {"time": 146876, "pitch": 51, "duration": 289, "velocity": 103}, {"time": 147201, "pitch": 49, "duration": 124, "velocity": 111}, {"time": 147364, "pitch": 46, "duration": 207, "velocity": 92}, {"time": 147842, "pitch": 56, "duration": 445, "velocity": 121}, {"time": 148319, "pitch": 58, "duration": 237, "velocity": 109}, {"time": 148638, "pitch": 53, "duration": 77, "velocity": 92}, {"time": 148797, "pitch": 56, "duration": 449, "velocity": 121}, {"time": 149285, "pitch": 58, "duration": 189, "velocity": 109}, {"time": 149603, "pitch": 61, "duration": 562, "velocity": 126}, {"time": 150240, "pitch": 58, "duration": 148, "velocity": 109}, {"time": 150559, "pitch": 56, "duration": 147, "velocity": 99}, {"time": 150718, "pitch": 51, "duration": 282, "velocity": 103}, {"time": 151036, "pitch": 49, "duration": 122, "velocity": 111}, {"time": 151195, "pitch": 46, "duration": 212, "velocity": 92}, {"time": 151684, "pitch": 58, "duration": 1850, "velocity": 85}, {"time": 151684, "pitch": 63, "duration": 1799, "velocity": 107}, {"time": 153605, "pitch": 58, "duration": 1821, "velocity": 104}, {"time": 153605, "pitch": 62, "duration": 1816, "velocity": 102}, {"time": 155515, "pitch": 63, "duration": 308, "velocity": 120}, {"time": 155841, "pitch": 64, "duration": 164, "velocity": 120}, {"time": 156004, "pitch": 67, "duration": 121, "velocity": 120}, {"time": 156322, "pitch": 63, "duration": 145, "velocity": 120}, {"time": 156481, "pitch": 64, "duration": 310, "velocity": 120}, {"time": 156800, "pitch": 67, "duration": 109, "velocity": 120}, {"time": 156959, "pitch": 64, "duration": 285, "velocity": 120}, {"time": 157436, "pitch": 72, "duration": 231, "velocity": 120}, {"time": 163200, "pitch": 55, "duration": 1821, "velocity": 89}, {"time": 163200, "pitch": 63, "duration": 1821, "velocity": 104}, {"time": 165121, "pitch": 55, "duration": 278, "velocity": 112}, {"time": 165121, "pitch": 63, "duration": 266, "velocity": 90}, {"time": 165439, "pitch": 55, "duration": 279, "velocity": 112}, {"time": 165439, "pitch": 63, "duration": 280, "velocity": 90}, {"time": 165917, "pitch": 57, "duration": 913, "velocity": 102}, {"time": 165917, "pitch": 65, "duration": 918, "velocity": 104}, {"time": 186561, "pitch": 67, "duration": 123, "velocity": 120}, {"time": 186720, "pitch": 69, "duration": 295, "velocity": 120}, {"time": 187038, "pitch": 72, "duration": 141, "velocity": 120}, {"time": 187516, "pitch": 72, "duration": 150, "velocity": 120}, {"time": 187675, "pitch": 69, "duration": 253, "velocity": 120}, {"time": 188001, "pitch": 72, "duration": 109, "velocity": 120}, {"time": 188164, "pitch": 74, "duration": 264, "velocity": 120}, {"time": 188641, "pitch": 69, "duration": 224, "velocity": 120}, {"time": 189119, "pitch": 67, "duration": 298, "velocity": 120}, {"time": 189437, "pitch": 69, "duration": 126, "velocity": 120}, {"time": 190403, "pitch": 67, "duration": 123, "velocity": 120}, {"time": 190562, "pitch": 69, "duration": 295, "velocity": 120}, {"time": 190881, "pitch": 72, "duration": 140, "velocity": 120}, {"time": 191358, "pitch": 72, "duration": 151, "velocity": 120}, {"time": 191518, "pitch": 69, "duration": 246, "velocity": 120}, {"time": 191836, "pitch": 67, "duration": 106, "velocity": 120}, {"time": 191995, "pitch": 67, "duration": 127, "velocity": 124}, {"time": 192158, "pitch": 65, "duration": 173, "velocity": 122}, {"time": 192321, "pitch": 64, "duration": 142, "velocity": 121}, {"time": 192483, "pitch": 63, "duration": 150, "velocity": 120}, {"time": 192643, "pitch": 62, "duration": 139, "velocity": 119}, {"time": 192802, "pitch": 60, "duration": 139, "velocity": 118}, {"time": 192961, "pitch": 58, "duration": 139, "velocity": 117}, {"time": 193120, "pitch": 57, "duration": 145, "velocity": 115}, {"time": 193279, "pitch": 55, "duration": 140, "velocity": 114}, {"time": 193439, "pitch": 53, "duration": 154, "velocity": 113}, {"time": 193598, "pitch": 52, "duration": 139, "velocity": 112}, {"time": 193757, "pitch": 51, "duration": 174, "velocity": 111}, {"time": 194242, "pitch": 67, "duration": 126, "velocity": 120}, {"time": 194405, "pitch": 69, "duration": 294, "velocity": 120}, {"time": 194723, "pitch": 72, "duration": 140, "velocity": 120}, {"time": 195201, "pitch": 72, "duration": 150, "velocity": 120}, {"time": 195360, "pitch": 69, "duration": 247, "velocity": 120}, {"time": 195678, "pitch": 72, "duration": 107, "velocity": 120}, {"time": 195837, "pitch": 74, "duration": 265, "velocity": 120}, {"time": 196315, "pitch": 69, "duration": 229, "velocity": 120}, {"time": 196803, "pitch": 67, "duration": 299, "velocity": 120}, {"time": 197122, "pitch": 69, "duration": 125, "velocity": 120}, {"time": 197758, "pitch": 65, "duration": 301, "velocity": 120}, {"time": 198077, "pitch": 66, "duration": 160, "velocity": 120}, {"time": 198236, "pitch": 69, "duration": 124, "velocity": 120}, {"time": 198562, "pitch": 65, "duration": 148, "velocity": 120}, {"time": 198724, "pitch": 66, "duration": 310, "velocity": 120}, {"time": 199043, "pitch": 69, "duration": 109, "velocity": 120}, {"time": 199202, "pitch": 66, "duration": 286, "velocity": 120}, {"time": 199680, "pitch": 74, "duration": 225, "velocity": 120}, {"time": 205443, "pitch": 57, "duration": 1819, "velocity": 89}, {"time": 205443, "pitch": 65, "duration": 1819, "velocity": 104}, {"time": 207364, "pitch": 57, "duration": 279, "velocity": 112}, {"time": 207364, "pitch": 65, "duration": 266, "velocity": 90}, {"time": 207682, "pitch": 57, "duration": 279, "velocity": 112}, {"time": 207682, "pitch": 65, "duration": 280, "velocity": 90}, {"time": 208160, "pitch": 59, "duration": 909, "velocity": 102}, {"time": 208160, "pitch": 67, "duration": 914, "velocity": 104}]}]}