{"metadata": {"schema_version": "0.1", "title": "RWC-MDB-P-2001 No. 83: Doing That Thing / Jeff Manning", "copyright": "RWC Music Database. Copyright (C) 2001 Real World Computing Partnership (contact: Masataka GOTO <m.goto@aist.go.jp>)", "source_filename": "RM-P083.SMF_SYNC.MID", "source_format": "midi"}, "resolution": 480, "tempos": [{"time": 0, "qpm": 53.097345132743364}, {"time": 480, "qpm": 139.53488372093022}, {"time": 1920, "qpm": 142.85714285714286}, {"time": 2400, "qpm": 139.53488372093022}, {"time": 4800, "qpm": 142.85714285714286}, {"time": 5280, "qpm": 139.53488372093022}, {"time": 8160, "qpm": 142.85714285714286}, {"time": 8640, "qpm": 139.53488372093022}, {"time": 11520, "qpm": 142.85714285714286}, {"time": 12000, "qpm": 139.53488372093022}, {"time": 14880, "qpm": 142.85714285714286}, {"time": 15360, "qpm": 139.53488372093022}, {"time": 18720, "qpm": 142.85714285714286}, {"time": 19200, "qpm": 139.53488372093022}, {"time": 21600, "qpm": 142.85714285714286}, {"time": 22080, "qpm": 139.53488372093022}, {"time": 24960, "qpm": 142.85714285714286}, {"time": 25440, "qpm": 139.53488372093022}, {"time": 28320, "qpm": 142.85714285714286}, {"time": 28800, "qpm": 139.53488372093022}, {"time": 31680, "qpm": 142.85714285714286}, {"time": 32160, "qpm": 139.53488372093022}, {"time": 35520, "qpm": 142.85714285714286}, {"time": 36000, "qpm": 139.53488372093022}, {"time": 38400, "qpm": 142.85714285714286}, {"time": 38880, "qpm": 139.53488372093022}, {"time": 42240, "qpm": 142.85714285714286}, {"time": 42720, "qpm": 139.53488372093022}, {"time": 45120, "qpm": 142.85714285714286}, {"time": 45600, "qpm": 139.53488372093022}, {"time": 48480, "qpm": 142.85714285714286}, {"time": 48960, "qpm": 139.53488372093022}, {"time": 51840, "qpm": 142.85714285714286}, {"time": 52320, "qpm": 139.53488372093022}, {"time": 55200, "qpm": 142.85714285714286}, {"time": 55680, "qpm": 139.53488372093022}, {"time": 58560, "qpm": 142.85714285714286}, {"time": 59040, "qpm": 139.53488372093022}, {"time": 61440, "qpm": 142.85714285714286}, {"time": 61920, "qpm": 139.53488372093022}, {"time": 65280, "qpm": 142.85714285714286}, {"time": 65760, "qpm": 139.53488372093022}, {"time": 68160, "qpm": 142.85714285714286}, {"time": 68640, "qpm": 139.53488372093022}, {"time": 72000, "qpm": 142.85714285714286}, {"time": 72480, "qpm": 139.53488372093022}, {"time": 74880, "qpm": 142.85714285714286}, {"time": 75360, "qpm": 139.53488372093022}, {"time": 78720, "qpm": 142.85714285714286}, {"time": 79200, "qpm": 139.53488372093022}, {"time": 81600, "qpm": 142.85714285714286}, {"time": 82080, "qpm": 139.53488372093022}, {"time": 84960, "qpm": 142.85714285714286}, {"time": 85440, "qpm": 139.53488372093022}, {"time": 88800, "qpm": 142.85714285714286}, {"time": 89280, "qpm": 139.53488372093022}, {"time": 91680, "qpm": 142.85714285714286}, {"time": 92160, "qpm": 139.53488372093022}, {"time": 95040, "qpm": 142.85714285714286}, {"time": 95520, "qpm": 139.53488372093022}, {"time": 98400, "qpm": 142.85714285714286}, {"time": 98880, "qpm": 139.53488372093022}, {"time": 101760, "qpm": 142.85714285714286}, {"time": 102240, "qpm": 139.53488372093022}, {"time": 105120, "qpm": 142.85714285714286}, {"time": 105600, "qpm": 139.53488372093022}, {"time": 108480, "qpm": 142.85714285714286}, {"time": 108960, "qpm": 139.53488372093022}, {"time": 112320, "qpm": 142.85714285714286}, {"time": 112800, "qpm": 139.53488372093022}, {"time": 115200, "qpm": 142.85714285714286}, {"time": 115680, "qpm": 139.53488372093022}, {"time": 118560, "qpm": 142.85714285714286}, {"time": 119040, "qpm": 139.53488372093022}, {"time": 121920, "qpm": 142.85714285714286}, {"time": 122400, "qpm": 139.53488372093022}, {"time": 124800, "qpm": 142.85714285714286}, {"time": 125280, "qpm": 139.53488372093022}, {"time": 128640, "qpm": 142.85714285714286}, {"time": 129120, "qpm": 139.53488372093022}, {"time": 132000, "qpm": 142.85714285714286}, {"time": 132480, "qpm": 139.53488372093022}, {"time": 135360, "qpm": 142.85714285714286}, {"time": 135840, "qpm": 139.53488372093022}, {"time": 138720, "qpm": 142.85714285714286}, {"time": 139200, "qpm": 139.53488372093022}, {"time": 141600, "qpm": 142.85714285714286}, {"time": 142080, "qpm": 139.53488372093022}, {"time": 145440, "qpm": 142.85714285714286}, {"time": 145920, "qpm": 139.53488372093022}, {"time": 148800, "qpm": 142.85714285714286}, {"time": 149280, "qpm": 139.53488372093022}, {"time": 151680, "qpm": 142.85714285714286}, {"time": 152160, "qpm": 139.53488372093022}, {"time": 155040, "qpm": 142.85714285714286}, {"time": 155520, "qpm": 139.53488372093022}, {"time": 158400, "qpm": 142.85714285714286}, {"time": 158880, "qpm": 139.53488372093022}, {"time": 161760, "qpm": 142.85714285714286}, {"time": 162240, "qpm": 139.53488372093022}, {"time": 165120, "qpm": 142.85714285714286}, {"time": 165600, "qpm": 139.53488372093022}, {"time": 168480, "qpm": 142.85714285714286}, {"time": 168960, "qpm": 139.53488372093022}, {"time": 171840, "qpm": 142.85714285714286}, {"time": 172320, "qpm": 139.53488372093022}, {"time": 175200, "qpm": 142.85714285714286}, {"time": 175680, "qpm": 139.53488372093022}, {"time": 178560, "qpm": 142.85714285714286}, {"time": 179040, "qpm": 139.53488372093022}, {"time": 181920, "qpm": 142.85714285714286}, {"time": 182400, "qpm": 139.53488372093022}, {"time": 185280, "qpm": 142.85714285714286}, {"time": 185760, "qpm": 139.53488372093022}, {"time": 188160, "qpm": 142.85714285714286}, {"time": 188640, "qpm": 139.53488372093022}, {"time": 191520, "qpm": 142.85714285714286}, {"time": 192000, "qpm": 139.53488372093022}, {"time": 194880, "qpm": 142.85714285714286}, {"time": 195360, "qpm": 139.53488372093022}, {"time": 198240, "qpm": 142.85714285714286}, {"time": 198720, "qpm": 139.53488372093022}, {"time": 201600, "qpm": 142.85714285714286}, {"time": 202080, "qpm": 139.53488372093022}, {"time": 204960, "qpm": 142.85714285714286}, {"time": 205440, "qpm": 139.53488372093022}, {"time": 208320, "qpm": 142.85714285714286}, {"time": 208800, "qpm": 139.53488372093022}, {"time": 211680, "qpm": 142.85714285714286}, {"time": 212160, "qpm": 139.53488372093022}, {"time": 215040, "qpm": 142.85714285714286}, {"time": 215520, "qpm": 139.53488372093022}, {"time": 218400, "qpm": 142.85714285714286}, {"time": 218880, "qpm": 139.53488372093022}, {"time": 221760, "qpm": 142.85714285714286}, {"time": 222240, "qpm": 139.53488372093022}, {"time": 225120, "qpm": 142.85714285714286}, {"time": 225600, "qpm": 139.53488372093022}, {"time": 228480, "qpm": 142.85714285714286}, {"time": 228960, "qpm": 139.53488372093022}, {"time": 231840, "qpm": 142.85714285714286}, {"time": 232320, "qpm": 139.53488372093022}, {"time": 234720, "qpm": 142.85714285714286}, {"time": 235200, "qpm": 139.53488372093022}, {"time": 238560, "qpm": 142.85714285714286}, {"time": 239040, "qpm": 139.53488372093022}], "key_signatures": [{"time": 0, "root": 0, "mode": "major"}], "time_signatures": [{"time": 0, "numerator": 1, "denominator": 4}, {"time": 480, "numerator": 4, "denominator": 4}], "tracks": [{"program": 0, "is_drum": false, "name": "Piano", "notes": [{"time": 505, "pitch": 66, "duration": 229, "velocity": 118}, {"time": 505, "pitch": 71, "duration": 229, "velocity": 114}, {"time": 505, "pitch": 83, "duration": 209, "velocity": 127}, {"time": 515, "pitch": 60, "duration": 199, "velocity": 117}, {"time": 1322, "pitch": 83, "duration": 209, "velocity": 127}, {"time": 1342, "pitch": 60, "duration": 179, "velocity": 100}, {"time": 1342, "pitch": 66, "duration": 199, "velocity": 108}, {"time": 1342, "pitch": 71, "duration": 189, "velocity": 114}, {"time": 2279, "pitch": 44, "duration": 159, "velocity": 122}, {"time": 2438, "pitch": 32, "duration": 289, "velocity": 108}, {"time": 2737, "pitch": 44, "duration": 180, "velocity": 118}, {"time": 2907, "pitch": 34, "duration": 309, "velocity": 114}, {"time": 3236, "pitch": 46, "duration": 180, "velocity": 118}, {"time": 3386, "pitch": 35, "duration": 316, "velocity": 105}, {"time": 3712, "pitch": 47, "duration": 153, "velocity": 111}, {"time": 3875, "pitch": 36, "duration": 239, "velocity": 123}, {"time": 4184, "pitch": 37, "duration": 538, "velocity": 93}, {"time": 4184, "pitch": 63, "duration": 558, "velocity": 122}, {"time": 4194, "pitch": 35, "duration": 79, "velocity": 91}, {"time": 4194, "pitch": 67, "duration": 109, "velocity": 127}, {"time": 4194, "pitch": 71, "duration": 518, "velocity": 122}, {"time": 4323, "pitch": 68, "duration": 449, "velocity": 91}, {"time": 4692, "pitch": 49, "duration": 149, "velocity": 127}, {"time": 4831, "pitch": 70, "duration": 220, "velocity": 122}, {"time": 4841, "pitch": 39, "duration": 250, "velocity": 111}, {"time": 4841, "pitch": 66, "duration": 270, "velocity": 122}, {"time": 4851, "pitch": 61, "duration": 250, "velocity": 127}, {"time": 5320, "pitch": 41, "duration": 199, "velocity": 122}, {"time": 5320, "pitch": 59, "duration": 199, "velocity": 114}, {"time": 5320, "pitch": 65, "duration": 209, "velocity": 122}, {"time": 5330, "pitch": 68, "duration": 199, "velocity": 114}, {"time": 5798, "pitch": 41, "duration": 30, "velocity": 62}, {"time": 6097, "pitch": 59, "duration": 548, "velocity": 127}, {"time": 6097, "pitch": 64, "duration": 100, "velocity": 127}, {"time": 6097, "pitch": 68, "duration": 548, "velocity": 127}, {"time": 6107, "pitch": 41, "duration": 319, "velocity": 118}, {"time": 6147, "pitch": 65, "duration": 488, "velocity": 84}, {"time": 6576, "pitch": 41, "duration": 129, "velocity": 122}, {"time": 6736, "pitch": 42, "duration": 255, "velocity": 127}, {"time": 6736, "pitch": 58, "duration": 255, "velocity": 105}, {"time": 6736, "pitch": 66, "duration": 234, "velocity": 105}, {"time": 6746, "pitch": 63, "duration": 234, "velocity": 114}, {"time": 7245, "pitch": 44, "duration": 189, "velocity": 127}, {"time": 7245, "pitch": 56, "duration": 219, "velocity": 118}, {"time": 7245, "pitch": 61, "duration": 229, "velocity": 122}, {"time": 7245, "pitch": 65, "duration": 209, "velocity": 122}, {"time": 8032, "pitch": 44, "duration": 299, "velocity": 127}, {"time": 8042, "pitch": 56, "duration": 518, "velocity": 122}, {"time": 8042, "pitch": 61, "duration": 568, "velocity": 127}, {"time": 8042, "pitch": 65, "duration": 518, "velocity": 127}, {"time": 8510, "pitch": 44, "duration": 150, "velocity": 111}, {"time": 8660, "pitch": 47, "duration": 299, "velocity": 122}, {"time": 8670, "pitch": 54, "duration": 279, "velocity": 105}, {"time": 8670, "pitch": 59, "duration": 189, "velocity": 114}, {"time": 8670, "pitch": 63, "duration": 219, "velocity": 111}, {"time": 9148, "pitch": 49, "duration": 239, "velocity": 127}, {"time": 9148, "pitch": 53, "duration": 200, "velocity": 114}, {"time": 9158, "pitch": 56, "duration": 210, "velocity": 122}, {"time": 9158, "pitch": 61, "duration": 239, "velocity": 122}, {"time": 9946, "pitch": 49, "duration": 49, "velocity": 111}, {"time": 10095, "pitch": 76, "duration": 41, "velocity": 127}, {"time": 10106, "pitch": 71, "duration": 234, "velocity": 114}, {"time": 10106, "pitch": 82, "duration": 255, "velocity": 118}, {"time": 10106, "pitch": 85, "duration": 245, "velocity": 114}, {"time": 10126, "pitch": 77, "duration": 204, "velocity": 108}, {"time": 10136, "pitch": 76, "duration": 31, "velocity": 63}, {"time": 10914, "pitch": 71, "duration": 299, "velocity": 105}, {"time": 10914, "pitch": 76, "duration": 109, "velocity": 127}, {"time": 10924, "pitch": 82, "duration": 249, "velocity": 122}, {"time": 10924, "pitch": 85, "duration": 239, "velocity": 114}, {"time": 11043, "pitch": 77, "duration": 180, "velocity": 105}, {"time": 11850, "pitch": 63, "duration": 539, "velocity": 122}, {"time": 11860, "pitch": 37, "duration": 499, "velocity": 108}, {"time": 11860, "pitch": 39, "duration": 10, "velocity": 114}, {"time": 11860, "pitch": 67, "duration": 110, "velocity": 127}, {"time": 11860, "pitch": 71, "duration": 489, "velocity": 122}, {"time": 11890, "pitch": 68, "duration": 439, "velocity": 78}, {"time": 12339, "pitch": 49, "duration": 129, "velocity": 118}, {"time": 12488, "pitch": 70, "duration": 230, "velocity": 114}, {"time": 12498, "pitch": 39, "duration": 240, "velocity": 108}, {"time": 12498, "pitch": 61, "duration": 240, "velocity": 114}, {"time": 12498, "pitch": 66, "duration": 269, "velocity": 127}, {"time": 12987, "pitch": 41, "duration": 189, "velocity": 122}, {"time": 12987, "pitch": 65, "duration": 209, "velocity": 122}, {"time": 12987, "pitch": 68, "duration": 199, "velocity": 118}, {"time": 12997, "pitch": 59, "duration": 219, "velocity": 114}, {"time": 13792, "pitch": 41, "duration": 302, "velocity": 122}, {"time": 13792, "pitch": 59, "duration": 521, "velocity": 127}, {"time": 13802, "pitch": 64, "duration": 123, "velocity": 127}, {"time": 13802, "pitch": 68, "duration": 502, "velocity": 118}, {"time": 13945, "pitch": 65, "duration": 418, "velocity": 81}, {"time": 14264, "pitch": 41, "duration": 139, "velocity": 114}, {"time": 14423, "pitch": 42, "duration": 249, "velocity": 122}, {"time": 14423, "pitch": 58, "duration": 189, "velocity": 111}, {"time": 14433, "pitch": 66, "duration": 199, "velocity": 108}, {"time": 14443, "pitch": 59, "duration": 70, "velocity": 108}, {"time": 14443, "pitch": 63, "duration": 179, "velocity": 114}, {"time": 14892, "pitch": 65, "duration": 199, "velocity": 118}, {"time": 14902, "pitch": 44, "duration": 149, "velocity": 127}, {"time": 14902, "pitch": 56, "duration": 179, "velocity": 118}, {"time": 14902, "pitch": 61, "duration": 189, "velocity": 118}, {"time": 15220, "pitch": 44, "duration": 50, "velocity": 108}, {"time": 15390, "pitch": 56, "duration": 817, "velocity": 127}, {"time": 15390, "pitch": 68, "duration": 259, "velocity": 127}, {"time": 15699, "pitch": 32, "duration": 478, "velocity": 122}, {"time": 15699, "pitch": 68, "duration": 508, "velocity": 91}, {"time": 15709, "pitch": 60, "duration": 508, "velocity": 127}, {"time": 16187, "pitch": 44, "duration": 210, "velocity": 127}, {"time": 16337, "pitch": 32, "duration": 219, "velocity": 111}, {"time": 16337, "pitch": 56, "duration": 229, "velocity": 114}, {"time": 16337, "pitch": 60, "duration": 229, "velocity": 127}, {"time": 16337, "pitch": 68, "duration": 229, "velocity": 122}, {"time": 16805, "pitch": 34, "duration": 255, "velocity": 111}, {"time": 16805, "pitch": 68, "duration": 235, "velocity": 114}, {"time": 16815, "pitch": 35, "duration": 31, "velocity": 91}, {"time": 16815, "pitch": 56, "duration": 194, "velocity": 122}, {"time": 16815, "pitch": 61, "duration": 215, "velocity": 127}, {"time": 17305, "pitch": 34, "duration": 229, "velocity": 114}, {"time": 17305, "pitch": 56, "duration": 189, "velocity": 122}, {"time": 17305, "pitch": 61, "duration": 199, "velocity": 127}, {"time": 17305, "pitch": 68, "duration": 209, "velocity": 118}, {"time": 17315, "pitch": 32, "duration": 89, "velocity": 100}, {"time": 17793, "pitch": 35, "duration": 289, "velocity": 122}, {"time": 17793, "pitch": 62, "duration": 429, "velocity": 127}, {"time": 17793, "pitch": 68, "duration": 419, "velocity": 114}, {"time": 17803, "pitch": 56, "duration": 429, "velocity": 127}, {"time": 18271, "pitch": 35, "duration": 150, "velocity": 122}, {"time": 18580, "pitch": 36, "duration": 389, "velocity": 127}, {"time": 18580, "pitch": 68, "duration": 309, "velocity": 122}, {"time": 18590, "pitch": 56, "duration": 250, "velocity": 118}, {"time": 18590, "pitch": 63, "duration": 289, "velocity": 127}, {"time": 19388, "pitch": 81, "duration": 30, "velocity": 43}, {"time": 19547, "pitch": 37, "duration": 100, "velocity": 114}, {"time": 19547, "pitch": 75, "duration": 509, "velocity": 127}, {"time": 19547, "pitch": 79, "duration": 120, "velocity": 127}, {"time": 19547, "pitch": 83, "duration": 449, "velocity": 127}, {"time": 19587, "pitch": 80, "duration": 399, "velocity": 84}, {"time": 20016, "pitch": 37, "duration": 89, "velocity": 95}, {"time": 20016, "pitch": 49, "duration": 89, "velocity": 118}, {"time": 20026, "pitch": 47, "duration": 20, "velocity": 81}, {"time": 20175, "pitch": 39, "duration": 276, "velocity": 114}, {"time": 20175, "pitch": 73, "duration": 266, "velocity": 122}, {"time": 20175, "pitch": 78, "duration": 327, "velocity": 127}, {"time": 20175, "pitch": 80, "duration": 143, "velocity": 127}, {"time": 20175, "pitch": 82, "duration": 194, "velocity": 118}, {"time": 20665, "pitch": 41, "duration": 209, "velocity": 127}, {"time": 20665, "pitch": 80, "duration": 259, "velocity": 127}, {"time": 20675, "pitch": 71, "duration": 249, "velocity": 127}, {"time": 20675, "pitch": 77, "duration": 269, "velocity": 122}, {"time": 21143, "pitch": 42, "duration": 279, "velocity": 127}, {"time": 21452, "pitch": 30, "duration": 488, "velocity": 127}, {"time": 21452, "pitch": 82, "duration": 538, "velocity": 127}, {"time": 21462, "pitch": 76, "duration": 528, "velocity": 127}, {"time": 21462, "pitch": 85, "duration": 518, "velocity": 118}, {"time": 21940, "pitch": 42, "duration": 160, "velocity": 127}, {"time": 22100, "pitch": 32, "duration": 269, "velocity": 127}, {"time": 22100, "pitch": 75, "duration": 279, "velocity": 114}, {"time": 22100, "pitch": 80, "duration": 259, "velocity": 122}, {"time": 22100, "pitch": 83, "duration": 229, "velocity": 122}, {"time": 22578, "pitch": 73, "duration": 259, "velocity": 127}, {"time": 22578, "pitch": 78, "duration": 259, "velocity": 127}, {"time": 22578, "pitch": 82, "duration": 230, "velocity": 127}, {"time": 22588, "pitch": 32, "duration": 150, "velocity": 118}, {"time": 22588, "pitch": 34, "duration": 220, "velocity": 108}, {"time": 22588, "pitch": 44, "duration": 230, "velocity": 102}, {"time": 22588, "pitch": 46, "duration": 130, "velocity": 87}, {"time": 23067, "pitch": 46, "duration": 69, "velocity": 105}, {"time": 23067, "pitch": 47, "duration": 129, "velocity": 93}, {"time": 23376, "pitch": 71, "duration": 557, "velocity": 127}, {"time": 23386, "pitch": 35, "duration": 476, "velocity": 127}, {"time": 23386, "pitch": 37, "duration": 10, "velocity": 127}, {"time": 23386, "pitch": 76, "duration": 109, "velocity": 127}, {"time": 23386, "pitch": 80, "duration": 547, "velocity": 127}, {"time": 23396, "pitch": 40, "duration": 20, "velocity": 66}, {"time": 23515, "pitch": 77, "duration": 500, "velocity": 87}, {"time": 23862, "pitch": 47, "duration": 122, "velocity": 108}, {"time": 24025, "pitch": 36, "duration": 289, "velocity": 123}, {"time": 24035, "pitch": 70, "duration": 239, "velocity": 114}, {"time": 24035, "pitch": 75, "duration": 229, "velocity": 118}, {"time": 24035, "pitch": 78, "duration": 219, "velocity": 114}, {"time": 24493, "pitch": 37, "duration": 239, "velocity": 118}, {"time": 24503, "pitch": 68, "duration": 199, "velocity": 118}, {"time": 24503, "pitch": 73, "duration": 229, "velocity": 127}, {"time": 24503, "pitch": 77, "duration": 259, "velocity": 122}, {"time": 24982, "pitch": 49, "duration": 89, "velocity": 122}, {"time": 25290, "pitch": 73, "duration": 190, "velocity": 127}, {"time": 25290, "pitch": 85, "duration": 140, "velocity": 127}, {"time": 25948, "pitch": 49, "duration": 30, "velocity": 114}, {"time": 26257, "pitch": 64, "duration": 130, "velocity": 127}, {"time": 26257, "pitch": 68, "duration": 832, "velocity": 127}, {"time": 26267, "pitch": 59, "duration": 518, "velocity": 127}, {"time": 26317, "pitch": 65, "duration": 548, "velocity": 93}, {"time": 26736, "pitch": 47, "duration": 20, "velocity": 105}, {"time": 26736, "pitch": 49, "duration": 40, "velocity": 127}, {"time": 26895, "pitch": 59, "duration": 194, "velocity": 100}, {"time": 27059, "pitch": 62, "duration": 51, "velocity": 60}, {"time": 27222, "pitch": 32, "duration": 502, "velocity": 122}, {"time": 27222, "pitch": 56, "duration": 531, "velocity": 122}, {"time": 27232, "pitch": 60, "duration": 541, "velocity": 127}, {"time": 27232, "pitch": 68, "duration": 521, "velocity": 127}, {"time": 27724, "pitch": 44, "duration": 169, "velocity": 127}, {"time": 27863, "pitch": 32, "duration": 279, "velocity": 111}, {"time": 27873, "pitch": 60, "duration": 259, "velocity": 127}, {"time": 27883, "pitch": 56, "duration": 259, "velocity": 114}, {"time": 27883, "pitch": 68, "duration": 249, "velocity": 118}, {"time": 28341, "pitch": 34, "duration": 280, "velocity": 122}, {"time": 28361, "pitch": 56, "duration": 180, "velocity": 114}, {"time": 28361, "pitch": 61, "duration": 220, "velocity": 127}, {"time": 28361, "pitch": 68, "duration": 210, "velocity": 114}, {"time": 28830, "pitch": 35, "duration": 229, "velocity": 122}, {"time": 28830, "pitch": 62, "duration": 239, "velocity": 127}, {"time": 28840, "pitch": 56, "duration": 189, "velocity": 114}, {"time": 28840, "pitch": 68, "duration": 179, "velocity": 111}, {"time": 29308, "pitch": 36, "duration": 230, "velocity": 123}, {"time": 29318, "pitch": 63, "duration": 229, "velocity": 122}, {"time": 29328, "pitch": 56, "duration": 190, "velocity": 105}, {"time": 29328, "pitch": 68, "duration": 200, "velocity": 108}, {"time": 29777, "pitch": 37, "duration": 219, "velocity": 122}, {"time": 29787, "pitch": 68, "duration": 179, "velocity": 97}, {"time": 29797, "pitch": 56, "duration": 129, "velocity": 108}, {"time": 29797, "pitch": 64, "duration": 179, "velocity": 123}, {"time": 30266, "pitch": 38, "duration": 748, "velocity": 127}, {"time": 30266, "pitch": 65, "duration": 738, "velocity": 122}, {"time": 30266, "pitch": 68, "duration": 698, "velocity": 118}, {"time": 30276, "pitch": 56, "duration": 698, "velocity": 114}, {"time": 31084, "pitch": 39, "duration": 199, "velocity": 122}, {"time": 31084, "pitch": 56, "duration": 199, "velocity": 108}, {"time": 31084, "pitch": 66, "duration": 219, "velocity": 122}, {"time": 31084, "pitch": 68, "duration": 219, "velocity": 118}, {"time": 33466, "pitch": 56, "duration": 170, "velocity": 105}, {"time": 33636, "pitch": 58, "duration": 265, "velocity": 118}, {"time": 33962, "pitch": 68, "duration": 202, "velocity": 111}, {"time": 34115, "pitch": 64, "duration": 319, "velocity": 88}, {"time": 34304, "pitch": 80, "duration": 50, "velocity": 74}, {"time": 34434, "pitch": 61, "duration": 209, "velocity": 114}, {"time": 34434, "pitch": 82, "duration": 99, "velocity": 95}, {"time": 34603, "pitch": 58, "duration": 299, "velocity": 118}, {"time": 34603, "pitch": 85, "duration": 179, "velocity": 114}, {"time": 34922, "pitch": 49, "duration": 110, "velocity": 111}, {"time": 34922, "pitch": 88, "duration": 90, "velocity": 127}, {"time": 35400, "pitch": 49, "duration": 210, "velocity": 118}, {"time": 35400, "pitch": 73, "duration": 259, "velocity": 118}, {"time": 35560, "pitch": 37, "duration": 229, "velocity": 114}, {"time": 35560, "pitch": 61, "duration": 209, "velocity": 108}, {"time": 36038, "pitch": 41, "duration": 220, "velocity": 114}, {"time": 36038, "pitch": 65, "duration": 259, "velocity": 127}, {"time": 36517, "pitch": 44, "duration": 229, "velocity": 127}, {"time": 36517, "pitch": 68, "duration": 219, "velocity": 122}, {"time": 36996, "pitch": 68, "duration": 768, "velocity": 127}, {"time": 37804, "pitch": 44, "duration": 29, "velocity": 127}, {"time": 37804, "pitch": 68, "duration": 219, "velocity": 127}, {"time": 38760, "pitch": 63, "duration": 489, "velocity": 122}, {"time": 38760, "pitch": 67, "duration": 140, "velocity": 127}, {"time": 38760, "pitch": 71, "duration": 459, "velocity": 127}, {"time": 38920, "pitch": 68, "duration": 369, "velocity": 91}, {"time": 39229, "pitch": 49, "duration": 60, "velocity": 127}, {"time": 39398, "pitch": 61, "duration": 239, "velocity": 118}, {"time": 39398, "pitch": 66, "duration": 319, "velocity": 127}, {"time": 39398, "pitch": 70, "duration": 239, "velocity": 122}, {"time": 39877, "pitch": 59, "duration": 179, "velocity": 122}, {"time": 39877, "pitch": 65, "duration": 189, "velocity": 127}, {"time": 39877, "pitch": 68, "duration": 219, "velocity": 122}, {"time": 40346, "pitch": 49, "duration": 51, "velocity": 89}, {"time": 40682, "pitch": 59, "duration": 521, "velocity": 127}, {"time": 40682, "pitch": 64, "duration": 163, "velocity": 127}, {"time": 40682, "pitch": 68, "duration": 442, "velocity": 127}, {"time": 40845, "pitch": 65, "duration": 388, "velocity": 93}, {"time": 41164, "pitch": 49, "duration": 69, "velocity": 114}, {"time": 41323, "pitch": 58, "duration": 199, "velocity": 114}, {"time": 41323, "pitch": 63, "duration": 259, "velocity": 122}, {"time": 41323, "pitch": 66, "duration": 209, "velocity": 111}, {"time": 41801, "pitch": 56, "duration": 130, "velocity": 122}, {"time": 41801, "pitch": 61, "duration": 190, "velocity": 122}, {"time": 41801, "pitch": 65, "duration": 150, "velocity": 102}, {"time": 42120, "pitch": 56, "duration": 150, "velocity": 111}, {"time": 42280, "pitch": 58, "duration": 219, "velocity": 114}, {"time": 42599, "pitch": 61, "duration": 149, "velocity": 127}, {"time": 42718, "pitch": 66, "duration": 1090, "velocity": 127}, {"time": 42718, "pitch": 70, "duration": 1131, "velocity": 127}, {"time": 42728, "pitch": 64, "duration": 1110, "velocity": 117}, {"time": 42728, "pitch": 73, "duration": 1161, "velocity": 127}, {"time": 44643, "pitch": 65, "duration": 688, "velocity": 127}, {"time": 44643, "pitch": 68, "duration": 728, "velocity": 127}, {"time": 44653, "pitch": 61, "duration": 708, "velocity": 117}, {"time": 44653, "pitch": 73, "duration": 758, "velocity": 127}, {"time": 45440, "pitch": 65, "duration": 50, "velocity": 127}, {"time": 45440, "pitch": 68, "duration": 90, "velocity": 127}, {"time": 45450, "pitch": 61, "duration": 70, "velocity": 117}, {"time": 45450, "pitch": 73, "duration": 120, "velocity": 127}, {"time": 46437, "pitch": 56, "duration": 489, "velocity": 127}, {"time": 46437, "pitch": 66, "duration": 121, "velocity": 127}, {"time": 46437, "pitch": 72, "duration": 469, "velocity": 118}, {"time": 46587, "pitch": 66, "duration": 10, "velocity": 93}, {"time": 47076, "pitch": 56, "duration": 235, "velocity": 123}, {"time": 47076, "pitch": 66, "duration": 204, "velocity": 127}, {"time": 47076, "pitch": 72, "duration": 224, "velocity": 123}, {"time": 47535, "pitch": 66, "duration": 837, "velocity": 127}, {"time": 47535, "pitch": 68, "duration": 877, "velocity": 127}, {"time": 47545, "pitch": 56, "duration": 857, "velocity": 117}, {"time": 47545, "pitch": 72, "duration": 907, "velocity": 127}, {"time": 50276, "pitch": 82, "duration": 150, "velocity": 127}, {"time": 50276, "pitch": 85, "duration": 129, "velocity": 127}, {"time": 50395, "pitch": 64, "duration": 245, "velocity": 123}, {"time": 50415, "pitch": 58, "duration": 205, "velocity": 105}, {"time": 50415, "pitch": 68, "duration": 215, "velocity": 114}, {"time": 51224, "pitch": 64, "duration": 30, "velocity": 111}, {"time": 51224, "pitch": 68, "duration": 30, "velocity": 89}, {"time": 51373, "pitch": 75, "duration": 249, "velocity": 127}, {"time": 51373, "pitch": 87, "duration": 219, "velocity": 127}, {"time": 51852, "pitch": 73, "duration": 249, "velocity": 122}, {"time": 51852, "pitch": 85, "duration": 239, "velocity": 118}, {"time": 52190, "pitch": 64, "duration": 40, "velocity": 117}, {"time": 52360, "pitch": 71, "duration": 209, "velocity": 97}, {"time": 52360, "pitch": 83, "duration": 199, "velocity": 93}, {"time": 52669, "pitch": 73, "duration": 80, "velocity": 97}, {"time": 52669, "pitch": 85, "duration": 70, "velocity": 95}, {"time": 53127, "pitch": 61, "duration": 50, "velocity": 127}, {"time": 53297, "pitch": 76, "duration": 89, "velocity": 123}, {"time": 53297, "pitch": 80, "duration": 209, "velocity": 105}, {"time": 53396, "pitch": 77, "duration": 190, "velocity": 102}, {"time": 53765, "pitch": 73, "duration": 235, "velocity": 127}, {"time": 54092, "pitch": 61, "duration": 71, "velocity": 117}, {"time": 54265, "pitch": 76, "duration": 269, "velocity": 123}, {"time": 54265, "pitch": 78, "duration": 229, "velocity": 122}, {"time": 54723, "pitch": 75, "duration": 249, "velocity": 122}, {"time": 54723, "pitch": 78, "duration": 229, "velocity": 118}, {"time": 55202, "pitch": 73, "duration": 239, "velocity": 127}, {"time": 55202, "pitch": 78, "duration": 199, "velocity": 122}, {"time": 55680, "pitch": 78, "duration": 239, "velocity": 118}, {"time": 55690, "pitch": 71, "duration": 239, "velocity": 127}, {"time": 55979, "pitch": 64, "duration": 50, "velocity": 117}, {"time": 56188, "pitch": 49, "duration": 249, "velocity": 118}, {"time": 56677, "pitch": 51, "duration": 189, "velocity": 122}, {"time": 57146, "pitch": 52, "duration": 255, "velocity": 127}, {"time": 57645, "pitch": 51, "duration": 458, "velocity": 122}, {"time": 57934, "pitch": 59, "duration": 149, "velocity": 127}, {"time": 57934, "pitch": 61, "duration": 159, "velocity": 127}, {"time": 57934, "pitch": 73, "duration": 169, "velocity": 122}, {"time": 58083, "pitch": 64, "duration": 239, "velocity": 123}, {"time": 58103, "pitch": 58, "duration": 199, "velocity": 105}, {"time": 58103, "pitch": 68, "duration": 209, "velocity": 114}, {"time": 58900, "pitch": 64, "duration": 30, "velocity": 111}, {"time": 58900, "pitch": 68, "duration": 30, "velocity": 89}, {"time": 59050, "pitch": 75, "duration": 249, "velocity": 127}, {"time": 59050, "pitch": 87, "duration": 219, "velocity": 127}, {"time": 59528, "pitch": 73, "duration": 249, "velocity": 122}, {"time": 59528, "pitch": 85, "duration": 240, "velocity": 118}, {"time": 59867, "pitch": 64, "duration": 40, "velocity": 117}, {"time": 60037, "pitch": 71, "duration": 209, "velocity": 97}, {"time": 60037, "pitch": 83, "duration": 199, "velocity": 93}, {"time": 60346, "pitch": 73, "duration": 79, "velocity": 97}, {"time": 60346, "pitch": 85, "duration": 69, "velocity": 95}, {"time": 60812, "pitch": 61, "duration": 51, "velocity": 127}, {"time": 60985, "pitch": 76, "duration": 89, "velocity": 123}, {"time": 60985, "pitch": 80, "duration": 209, "velocity": 105}, {"time": 61084, "pitch": 77, "duration": 190, "velocity": 102}, {"time": 61453, "pitch": 73, "duration": 229, "velocity": 127}, {"time": 61772, "pitch": 61, "duration": 70, "velocity": 117}, {"time": 61941, "pitch": 76, "duration": 270, "velocity": 123}, {"time": 61941, "pitch": 78, "duration": 230, "velocity": 122}, {"time": 62400, "pitch": 75, "duration": 249, "velocity": 122}, {"time": 62400, "pitch": 78, "duration": 229, "velocity": 118}, {"time": 62878, "pitch": 73, "duration": 240, "velocity": 127}, {"time": 62878, "pitch": 78, "duration": 200, "velocity": 122}, {"time": 63357, "pitch": 78, "duration": 239, "velocity": 118}, {"time": 63367, "pitch": 71, "duration": 239, "velocity": 127}, {"time": 63656, "pitch": 64, "duration": 50, "velocity": 117}, {"time": 63866, "pitch": 49, "duration": 255, "velocity": 118}, {"time": 64365, "pitch": 51, "duration": 189, "velocity": 122}, {"time": 64833, "pitch": 52, "duration": 249, "velocity": 127}, {"time": 65321, "pitch": 51, "duration": 459, "velocity": 122}, {"time": 65610, "pitch": 59, "duration": 150, "velocity": 127}, {"time": 65610, "pitch": 61, "duration": 160, "velocity": 127}, {"time": 65610, "pitch": 73, "duration": 170, "velocity": 122}, {"time": 66119, "pitch": 73, "duration": 269, "velocity": 114}, {"time": 66278, "pitch": 61, "duration": 289, "velocity": 77}, {"time": 66757, "pitch": 65, "duration": 219, "velocity": 127}, {"time": 67236, "pitch": 68, "duration": 204, "velocity": 127}, {"time": 67725, "pitch": 70, "duration": 747, "velocity": 127}, {"time": 68522, "pitch": 73, "duration": 219, "velocity": 127}, {"time": 69479, "pitch": 67, "duration": 528, "velocity": 108}, {"time": 69479, "pitch": 75, "duration": 498, "velocity": 122}, {"time": 69489, "pitch": 63, "duration": 528, "velocity": 105}, {"time": 69489, "pitch": 70, "duration": 518, "velocity": 114}, {"time": 69489, "pitch": 82, "duration": 139, "velocity": 127}, {"time": 69489, "pitch": 85, "duration": 468, "velocity": 122}, {"time": 69628, "pitch": 82, "duration": 439, "velocity": 84}, {"time": 70117, "pitch": 67, "duration": 229, "velocity": 117}, {"time": 70117, "pitch": 70, "duration": 209, "velocity": 108}, {"time": 70117, "pitch": 75, "duration": 239, "velocity": 127}, {"time": 70117, "pitch": 85, "duration": 229, "velocity": 127}, {"time": 70127, "pitch": 63, "duration": 139, "velocity": 102}, {"time": 70127, "pitch": 82, "duration": 159, "velocity": 118}, {"time": 70596, "pitch": 70, "duration": 798, "velocity": 93}, {"time": 70596, "pitch": 85, "duration": 758, "velocity": 114}, {"time": 70606, "pitch": 63, "duration": 708, "velocity": 114}, {"time": 70606, "pitch": 73, "duration": 678, "velocity": 114}, {"time": 70606, "pitch": 75, "duration": 658, "velocity": 127}, {"time": 70606, "pitch": 82, "duration": 748, "velocity": 114}, {"time": 71872, "pitch": 56, "duration": 130, "velocity": 119}, {"time": 72031, "pitch": 51, "duration": 220, "velocity": 119}, {"time": 72510, "pitch": 56, "duration": 329, "velocity": 119}, {"time": 72839, "pitch": 58, "duration": 159, "velocity": 119}, {"time": 72988, "pitch": 60, "duration": 309, "velocity": 119}, {"time": 73307, "pitch": 61, "duration": 180, "velocity": 118}, {"time": 73317, "pitch": 59, "duration": 229, "velocity": 108}, {"time": 73317, "pitch": 65, "duration": 219, "velocity": 114}, {"time": 73317, "pitch": 70, "duration": 229, "velocity": 108}, {"time": 73317, "pitch": 82, "duration": 219, "velocity": 127}, {"time": 73327, "pitch": 77, "duration": 199, "velocity": 122}, {"time": 73327, "pitch": 85, "duration": 209, "velocity": 118}, {"time": 75212, "pitch": 68, "duration": 130, "velocity": 75}, {"time": 75312, "pitch": 70, "duration": 79, "velocity": 72}, {"time": 75391, "pitch": 68, "duration": 130, "velocity": 85}, {"time": 75491, "pitch": 72, "duration": 130, "velocity": 71}, {"time": 75621, "pitch": 68, "duration": 69, "velocity": 87}, {"time": 75700, "pitch": 72, "duration": 90, "velocity": 76}, {"time": 75710, "pitch": 60, "duration": 170, "velocity": 111}, {"time": 75800, "pitch": 68, "duration": 80, "velocity": 82}, {"time": 75880, "pitch": 53, "duration": 349, "velocity": 102}, {"time": 75880, "pitch": 72, "duration": 80, "velocity": 76}, {"time": 75960, "pitch": 68, "duration": 79, "velocity": 77}, {"time": 76049, "pitch": 72, "duration": 110, "velocity": 74}, {"time": 76139, "pitch": 68, "duration": 90, "velocity": 77}, {"time": 76249, "pitch": 72, "duration": 99, "velocity": 81}, {"time": 76338, "pitch": 68, "duration": 70, "velocity": 63}, {"time": 76348, "pitch": 56, "duration": 269, "velocity": 118}, {"time": 76428, "pitch": 72, "duration": 100, "velocity": 85}, {"time": 76528, "pitch": 68, "duration": 69, "velocity": 67}, {"time": 76607, "pitch": 72, "duration": 90, "velocity": 79}, {"time": 76697, "pitch": 68, "duration": 80, "velocity": 78}, {"time": 76797, "pitch": 72, "duration": 89, "velocity": 82}, {"time": 76837, "pitch": 60, "duration": 348, "velocity": 122}, {"time": 76876, "pitch": 68, "duration": 80, "velocity": 79}, {"time": 76976, "pitch": 72, "duration": 90, "velocity": 85}, {"time": 77066, "pitch": 68, "duration": 70, "velocity": 75}, {"time": 77156, "pitch": 56, "duration": 119, "velocity": 95}, {"time": 77156, "pitch": 72, "duration": 150, "velocity": 89}, {"time": 77245, "pitch": 68, "duration": 71, "velocity": 78}, {"time": 77795, "pitch": 44, "duration": 388, "velocity": 127}, {"time": 78751, "pitch": 44, "duration": 279, "velocity": 122}, {"time": 79200, "pitch": 49, "duration": 279, "velocity": 122}, {"time": 79549, "pitch": 56, "duration": 169, "velocity": 105}, {"time": 79718, "pitch": 58, "duration": 259, "velocity": 118}, {"time": 80037, "pitch": 68, "duration": 199, "velocity": 111}, {"time": 80187, "pitch": 64, "duration": 319, "velocity": 88}, {"time": 80376, "pitch": 68, "duration": 50, "velocity": 74}, {"time": 80506, "pitch": 61, "duration": 211, "velocity": 114}, {"time": 80506, "pitch": 70, "duration": 99, "velocity": 95}, {"time": 80676, "pitch": 58, "duration": 306, "velocity": 118}, {"time": 80676, "pitch": 73, "duration": 184, "velocity": 114}, {"time": 81002, "pitch": 49, "duration": 113, "velocity": 111}, {"time": 81002, "pitch": 76, "duration": 92, "velocity": 127}, {"time": 81145, "pitch": 66, "duration": 229, "velocity": 118}, {"time": 81145, "pitch": 71, "duration": 209, "velocity": 114}, {"time": 81155, "pitch": 60, "duration": 199, "velocity": 117}, {"time": 81982, "pitch": 60, "duration": 179, "velocity": 100}, {"time": 81982, "pitch": 66, "duration": 199, "velocity": 108}, {"time": 81982, "pitch": 71, "duration": 189, "velocity": 114}, {"time": 82919, "pitch": 44, "duration": 159, "velocity": 122}, {"time": 83078, "pitch": 32, "duration": 289, "velocity": 108}, {"time": 83377, "pitch": 44, "duration": 180, "velocity": 118}, {"time": 83547, "pitch": 34, "duration": 309, "velocity": 114}, {"time": 83876, "pitch": 46, "duration": 180, "velocity": 118}, {"time": 84026, "pitch": 35, "duration": 316, "velocity": 105}, {"time": 84352, "pitch": 47, "duration": 153, "velocity": 111}, {"time": 84515, "pitch": 36, "duration": 239, "velocity": 123}, {"time": 84824, "pitch": 37, "duration": 538, "velocity": 93}, {"time": 84834, "pitch": 35, "duration": 79, "velocity": 91}, {"time": 85322, "pitch": 49, "duration": 209, "velocity": 118}, {"time": 85322, "pitch": 73, "duration": 259, "velocity": 118}, {"time": 85481, "pitch": 37, "duration": 230, "velocity": 114}, {"time": 85481, "pitch": 61, "duration": 210, "velocity": 108}, {"time": 85960, "pitch": 41, "duration": 219, "velocity": 114}, {"time": 85960, "pitch": 65, "duration": 259, "velocity": 127}, {"time": 86438, "pitch": 44, "duration": 229, "velocity": 127}, {"time": 86438, "pitch": 68, "duration": 219, "velocity": 122}, {"time": 86917, "pitch": 68, "duration": 765, "velocity": 127}, {"time": 87722, "pitch": 44, "duration": 31, "velocity": 127}, {"time": 87722, "pitch": 68, "duration": 222, "velocity": 127}, {"time": 88682, "pitch": 63, "duration": 488, "velocity": 122}, {"time": 88682, "pitch": 67, "duration": 139, "velocity": 127}, {"time": 88682, "pitch": 71, "duration": 458, "velocity": 127}, {"time": 88841, "pitch": 68, "duration": 369, "velocity": 91}, {"time": 89150, "pitch": 49, "duration": 60, "velocity": 127}, {"time": 89320, "pitch": 61, "duration": 239, "velocity": 118}, {"time": 89320, "pitch": 66, "duration": 319, "velocity": 127}, {"time": 89320, "pitch": 70, "duration": 239, "velocity": 122}, {"time": 89798, "pitch": 59, "duration": 180, "velocity": 122}, {"time": 89798, "pitch": 65, "duration": 190, "velocity": 127}, {"time": 89798, "pitch": 68, "duration": 219, "velocity": 122}, {"time": 90267, "pitch": 49, "duration": 49, "velocity": 89}, {"time": 90596, "pitch": 59, "duration": 527, "velocity": 127}, {"time": 90596, "pitch": 64, "duration": 160, "velocity": 127}, {"time": 90596, "pitch": 68, "duration": 446, "velocity": 127}, {"time": 90756, "pitch": 65, "duration": 398, "velocity": 93}, {"time": 91082, "pitch": 49, "duration": 72, "velocity": 114}, {"time": 91245, "pitch": 58, "duration": 199, "velocity": 114}, {"time": 91245, "pitch": 63, "duration": 259, "velocity": 122}, {"time": 91245, "pitch": 66, "duration": 209, "velocity": 111}, {"time": 91723, "pitch": 56, "duration": 130, "velocity": 122}, {"time": 91723, "pitch": 61, "duration": 189, "velocity": 122}, {"time": 91723, "pitch": 65, "duration": 149, "velocity": 102}, {"time": 92042, "pitch": 56, "duration": 149, "velocity": 111}, {"time": 92201, "pitch": 58, "duration": 220, "velocity": 114}, {"time": 92520, "pitch": 61, "duration": 150, "velocity": 127}, {"time": 92640, "pitch": 66, "duration": 1086, "velocity": 127}, {"time": 92640, "pitch": 70, "duration": 1126, "velocity": 127}, {"time": 92650, "pitch": 64, "duration": 1106, "velocity": 117}, {"time": 92650, "pitch": 73, "duration": 1156, "velocity": 127}, {"time": 94565, "pitch": 65, "duration": 687, "velocity": 127}, {"time": 94565, "pitch": 68, "duration": 727, "velocity": 127}, {"time": 94575, "pitch": 61, "duration": 707, "velocity": 117}, {"time": 94575, "pitch": 73, "duration": 757, "velocity": 127}, {"time": 95362, "pitch": 65, "duration": 50, "velocity": 127}, {"time": 95362, "pitch": 68, "duration": 90, "velocity": 127}, {"time": 95372, "pitch": 61, "duration": 70, "velocity": 117}, {"time": 95372, "pitch": 73, "duration": 120, "velocity": 127}, {"time": 96359, "pitch": 56, "duration": 488, "velocity": 127}, {"time": 96359, "pitch": 66, "duration": 120, "velocity": 127}, {"time": 96359, "pitch": 72, "duration": 468, "velocity": 118}, {"time": 96508, "pitch": 66, "duration": 10, "velocity": 93}, {"time": 96997, "pitch": 56, "duration": 229, "velocity": 123}, {"time": 96997, "pitch": 66, "duration": 199, "velocity": 127}, {"time": 96997, "pitch": 72, "duration": 219, "velocity": 123}, {"time": 97445, "pitch": 66, "duration": 848, "velocity": 127}, {"time": 97445, "pitch": 68, "duration": 888, "velocity": 127}, {"time": 97455, "pitch": 56, "duration": 868, "velocity": 117}, {"time": 97455, "pitch": 72, "duration": 918, "velocity": 127}, {"time": 100197, "pitch": 82, "duration": 150, "velocity": 127}, {"time": 100197, "pitch": 85, "duration": 130, "velocity": 127}, {"time": 100317, "pitch": 64, "duration": 239, "velocity": 123}, {"time": 100337, "pitch": 58, "duration": 199, "velocity": 105}, {"time": 100337, "pitch": 68, "duration": 209, "velocity": 114}, {"time": 101142, "pitch": 64, "duration": 31, "velocity": 111}, {"time": 101142, "pitch": 68, "duration": 31, "velocity": 89}, {"time": 101295, "pitch": 75, "duration": 249, "velocity": 127}, {"time": 101295, "pitch": 87, "duration": 219, "velocity": 127}, {"time": 101773, "pitch": 73, "duration": 249, "velocity": 122}, {"time": 101773, "pitch": 85, "duration": 239, "velocity": 118}, {"time": 102112, "pitch": 64, "duration": 40, "velocity": 117}, {"time": 102281, "pitch": 71, "duration": 210, "velocity": 97}, {"time": 102281, "pitch": 83, "duration": 200, "velocity": 93}, {"time": 102590, "pitch": 73, "duration": 80, "velocity": 97}, {"time": 102590, "pitch": 85, "duration": 70, "velocity": 95}, {"time": 103049, "pitch": 61, "duration": 50, "velocity": 127}, {"time": 103218, "pitch": 76, "duration": 90, "velocity": 123}, {"time": 103218, "pitch": 80, "duration": 210, "velocity": 105}, {"time": 103318, "pitch": 77, "duration": 189, "velocity": 102}, {"time": 103687, "pitch": 73, "duration": 229, "velocity": 127}, {"time": 104006, "pitch": 61, "duration": 69, "velocity": 117}, {"time": 104175, "pitch": 76, "duration": 276, "velocity": 123}, {"time": 104175, "pitch": 78, "duration": 235, "velocity": 122}, {"time": 104645, "pitch": 75, "duration": 249, "velocity": 122}, {"time": 104645, "pitch": 78, "duration": 229, "velocity": 118}, {"time": 105123, "pitch": 73, "duration": 239, "velocity": 127}, {"time": 105123, "pitch": 78, "duration": 199, "velocity": 122}, {"time": 105601, "pitch": 78, "duration": 240, "velocity": 118}, {"time": 105611, "pitch": 71, "duration": 240, "velocity": 127}, {"time": 105900, "pitch": 64, "duration": 50, "velocity": 117}, {"time": 106110, "pitch": 49, "duration": 249, "velocity": 118}, {"time": 106598, "pitch": 51, "duration": 190, "velocity": 122}, {"time": 107067, "pitch": 52, "duration": 249, "velocity": 127}, {"time": 107556, "pitch": 51, "duration": 469, "velocity": 122}, {"time": 107852, "pitch": 59, "duration": 153, "velocity": 127}, {"time": 107852, "pitch": 61, "duration": 163, "velocity": 127}, {"time": 107852, "pitch": 73, "duration": 173, "velocity": 122}, {"time": 108005, "pitch": 64, "duration": 239, "velocity": 123}, {"time": 108025, "pitch": 58, "duration": 199, "velocity": 105}, {"time": 108025, "pitch": 68, "duration": 209, "velocity": 114}, {"time": 108822, "pitch": 64, "duration": 30, "velocity": 111}, {"time": 108822, "pitch": 68, "duration": 30, "velocity": 89}, {"time": 108971, "pitch": 75, "duration": 250, "velocity": 127}, {"time": 108971, "pitch": 87, "duration": 220, "velocity": 127}, {"time": 109450, "pitch": 73, "duration": 249, "velocity": 122}, {"time": 109450, "pitch": 85, "duration": 239, "velocity": 118}, {"time": 109789, "pitch": 64, "duration": 40, "velocity": 117}, {"time": 109958, "pitch": 71, "duration": 209, "velocity": 97}, {"time": 109958, "pitch": 83, "duration": 199, "velocity": 93}, {"time": 110267, "pitch": 73, "duration": 80, "velocity": 97}, {"time": 110267, "pitch": 85, "duration": 70, "velocity": 95}, {"time": 110726, "pitch": 61, "duration": 49, "velocity": 127}, {"time": 110895, "pitch": 76, "duration": 92, "velocity": 123}, {"time": 110895, "pitch": 80, "duration": 215, "velocity": 105}, {"time": 110997, "pitch": 77, "duration": 194, "velocity": 102}, {"time": 111375, "pitch": 73, "duration": 229, "velocity": 127}, {"time": 111694, "pitch": 61, "duration": 69, "velocity": 117}, {"time": 111863, "pitch": 76, "duration": 269, "velocity": 123}, {"time": 111863, "pitch": 78, "duration": 229, "velocity": 122}, {"time": 112321, "pitch": 75, "duration": 250, "velocity": 122}, {"time": 112321, "pitch": 78, "duration": 230, "velocity": 118}, {"time": 112800, "pitch": 73, "duration": 239, "velocity": 127}, {"time": 112800, "pitch": 78, "duration": 199, "velocity": 122}, {"time": 113278, "pitch": 78, "duration": 239, "velocity": 118}, {"time": 113288, "pitch": 71, "duration": 239, "velocity": 127}, {"time": 113577, "pitch": 64, "duration": 50, "velocity": 117}, {"time": 113787, "pitch": 49, "duration": 249, "velocity": 118}, {"time": 114276, "pitch": 51, "duration": 194, "velocity": 122}, {"time": 114755, "pitch": 52, "duration": 249, "velocity": 127}, {"time": 115243, "pitch": 51, "duration": 458, "velocity": 122}, {"time": 115532, "pitch": 59, "duration": 149, "velocity": 127}, {"time": 115532, "pitch": 61, "duration": 159, "velocity": 127}, {"time": 115532, "pitch": 73, "duration": 169, "velocity": 122}, {"time": 116040, "pitch": 73, "duration": 269, "velocity": 114}, {"time": 116200, "pitch": 61, "duration": 289, "velocity": 77}, {"time": 116678, "pitch": 65, "duration": 219, "velocity": 127}, {"time": 117157, "pitch": 68, "duration": 199, "velocity": 127}, {"time": 117636, "pitch": 70, "duration": 758, "velocity": 127}, {"time": 118443, "pitch": 73, "duration": 220, "velocity": 127}, {"time": 119400, "pitch": 67, "duration": 529, "velocity": 108}, {"time": 119400, "pitch": 75, "duration": 499, "velocity": 122}, {"time": 119410, "pitch": 63, "duration": 528, "velocity": 105}, {"time": 119410, "pitch": 70, "duration": 519, "velocity": 114}, {"time": 119410, "pitch": 82, "duration": 140, "velocity": 127}, {"time": 119410, "pitch": 85, "duration": 469, "velocity": 122}, {"time": 119550, "pitch": 82, "duration": 438, "velocity": 84}, {"time": 120038, "pitch": 67, "duration": 229, "velocity": 117}, {"time": 120038, "pitch": 70, "duration": 209, "velocity": 108}, {"time": 120038, "pitch": 75, "duration": 239, "velocity": 127}, {"time": 120038, "pitch": 85, "duration": 229, "velocity": 127}, {"time": 120048, "pitch": 63, "duration": 140, "velocity": 102}, {"time": 120048, "pitch": 82, "duration": 160, "velocity": 118}, {"time": 120517, "pitch": 70, "duration": 795, "velocity": 93}, {"time": 120517, "pitch": 85, "duration": 754, "velocity": 114}, {"time": 120527, "pitch": 63, "duration": 703, "velocity": 114}, {"time": 120527, "pitch": 73, "duration": 673, "velocity": 114}, {"time": 120527, "pitch": 75, "duration": 652, "velocity": 127}, {"time": 120527, "pitch": 82, "duration": 744, "velocity": 114}, {"time": 121793, "pitch": 56, "duration": 130, "velocity": 119}, {"time": 121953, "pitch": 51, "duration": 219, "velocity": 119}, {"time": 122431, "pitch": 56, "duration": 329, "velocity": 119}, {"time": 122760, "pitch": 58, "duration": 160, "velocity": 119}, {"time": 122910, "pitch": 60, "duration": 309, "velocity": 119}, {"time": 123229, "pitch": 61, "duration": 179, "velocity": 118}, {"time": 123239, "pitch": 59, "duration": 229, "velocity": 108}, {"time": 123239, "pitch": 65, "duration": 219, "velocity": 114}, {"time": 123239, "pitch": 70, "duration": 229, "velocity": 108}, {"time": 123239, "pitch": 82, "duration": 219, "velocity": 127}, {"time": 123249, "pitch": 77, "duration": 199, "velocity": 122}, {"time": 123249, "pitch": 85, "duration": 209, "velocity": 118}, {"time": 125134, "pitch": 68, "duration": 129, "velocity": 75}, {"time": 125233, "pitch": 70, "duration": 80, "velocity": 72}, {"time": 125313, "pitch": 68, "duration": 130, "velocity": 85}, {"time": 125413, "pitch": 72, "duration": 129, "velocity": 71}, {"time": 125542, "pitch": 68, "duration": 70, "velocity": 87}, {"time": 125622, "pitch": 72, "duration": 90, "velocity": 76}, {"time": 125632, "pitch": 60, "duration": 169, "velocity": 111}, {"time": 125722, "pitch": 68, "duration": 79, "velocity": 82}, {"time": 125801, "pitch": 53, "duration": 349, "velocity": 102}, {"time": 125801, "pitch": 72, "duration": 80, "velocity": 76}, {"time": 125881, "pitch": 68, "duration": 80, "velocity": 77}, {"time": 125971, "pitch": 72, "duration": 109, "velocity": 74}, {"time": 126060, "pitch": 68, "duration": 90, "velocity": 77}, {"time": 126170, "pitch": 72, "duration": 100, "velocity": 81}, {"time": 126260, "pitch": 68, "duration": 70, "velocity": 63}, {"time": 126270, "pitch": 56, "duration": 269, "velocity": 118}, {"time": 126350, "pitch": 72, "duration": 99, "velocity": 85}, {"time": 126449, "pitch": 68, "duration": 70, "velocity": 67}, {"time": 126529, "pitch": 72, "duration": 90, "velocity": 79}, {"time": 126619, "pitch": 68, "duration": 79, "velocity": 78}, {"time": 126718, "pitch": 72, "duration": 90, "velocity": 82}, {"time": 126758, "pitch": 60, "duration": 349, "velocity": 122}, {"time": 126798, "pitch": 68, "duration": 80, "velocity": 79}, {"time": 126898, "pitch": 72, "duration": 89, "velocity": 85}, {"time": 126987, "pitch": 68, "duration": 70, "velocity": 75}, {"time": 127077, "pitch": 56, "duration": 120, "velocity": 95}, {"time": 127077, "pitch": 72, "duration": 150, "velocity": 89}, {"time": 127167, "pitch": 68, "duration": 70, "velocity": 78}, {"time": 127706, "pitch": 44, "duration": 398, "velocity": 127}, {"time": 128673, "pitch": 44, "duration": 279, "velocity": 122}, {"time": 129121, "pitch": 49, "duration": 280, "velocity": 122}, {"time": 129470, "pitch": 56, "duration": 170, "velocity": 105}, {"time": 129640, "pitch": 58, "duration": 259, "velocity": 118}, {"time": 129959, "pitch": 68, "duration": 199, "velocity": 111}, {"time": 130108, "pitch": 64, "duration": 319, "velocity": 88}, {"time": 130298, "pitch": 68, "duration": 49, "velocity": 74}, {"time": 130427, "pitch": 61, "duration": 209, "velocity": 114}, {"time": 130427, "pitch": 70, "duration": 100, "velocity": 95}, {"time": 130597, "pitch": 58, "duration": 299, "velocity": 118}, {"time": 130597, "pitch": 73, "duration": 179, "velocity": 114}, {"time": 130915, "pitch": 49, "duration": 110, "velocity": 111}, {"time": 130915, "pitch": 76, "duration": 90, "velocity": 127}, {"time": 131055, "pitch": 66, "duration": 235, "velocity": 118}, {"time": 131055, "pitch": 71, "duration": 215, "velocity": 114}, {"time": 131066, "pitch": 60, "duration": 204, "velocity": 117}, {"time": 131903, "pitch": 60, "duration": 180, "velocity": 100}, {"time": 131903, "pitch": 66, "duration": 200, "velocity": 108}, {"time": 131903, "pitch": 71, "duration": 190, "velocity": 114}, {"time": 132840, "pitch": 44, "duration": 160, "velocity": 122}, {"time": 133000, "pitch": 32, "duration": 289, "velocity": 108}, {"time": 133299, "pitch": 44, "duration": 179, "velocity": 118}, {"time": 133468, "pitch": 34, "duration": 309, "velocity": 114}, {"time": 133797, "pitch": 46, "duration": 179, "velocity": 118}, {"time": 133947, "pitch": 35, "duration": 309, "velocity": 105}, {"time": 134266, "pitch": 47, "duration": 149, "velocity": 111}, {"time": 134426, "pitch": 36, "duration": 244, "velocity": 123}, {"time": 134742, "pitch": 37, "duration": 541, "velocity": 93}, {"time": 134742, "pitch": 63, "duration": 561, "velocity": 122}, {"time": 134752, "pitch": 35, "duration": 82, "velocity": 91}, {"time": 134752, "pitch": 67, "duration": 112, "velocity": 127}, {"time": 134752, "pitch": 71, "duration": 521, "velocity": 122}, {"time": 134885, "pitch": 68, "duration": 448, "velocity": 91}, {"time": 135253, "pitch": 49, "duration": 150, "velocity": 127}, {"time": 135393, "pitch": 70, "duration": 219, "velocity": 122}, {"time": 135403, "pitch": 39, "duration": 249, "velocity": 111}, {"time": 135403, "pitch": 66, "duration": 269, "velocity": 122}, {"time": 135413, "pitch": 61, "duration": 249, "velocity": 127}, {"time": 135881, "pitch": 41, "duration": 200, "velocity": 122}, {"time": 135881, "pitch": 59, "duration": 200, "velocity": 114}, {"time": 135881, "pitch": 65, "duration": 210, "velocity": 122}, {"time": 135891, "pitch": 68, "duration": 200, "velocity": 114}, {"time": 136360, "pitch": 41, "duration": 30, "velocity": 62}, {"time": 136659, "pitch": 59, "duration": 548, "velocity": 127}, {"time": 136659, "pitch": 64, "duration": 99, "velocity": 127}, {"time": 136659, "pitch": 68, "duration": 548, "velocity": 127}, {"time": 136669, "pitch": 41, "duration": 319, "velocity": 118}, {"time": 136709, "pitch": 65, "duration": 488, "velocity": 84}, {"time": 137137, "pitch": 41, "duration": 130, "velocity": 122}, {"time": 137297, "pitch": 42, "duration": 249, "velocity": 127}, {"time": 137297, "pitch": 58, "duration": 249, "velocity": 105}, {"time": 137297, "pitch": 66, "duration": 229, "velocity": 105}, {"time": 137307, "pitch": 63, "duration": 229, "velocity": 114}, {"time": 137796, "pitch": 44, "duration": 194, "velocity": 127}, {"time": 137796, "pitch": 56, "duration": 224, "velocity": 118}, {"time": 137796, "pitch": 61, "duration": 234, "velocity": 122}, {"time": 137796, "pitch": 65, "duration": 214, "velocity": 122}, {"time": 138593, "pitch": 44, "duration": 299, "velocity": 127}, {"time": 138603, "pitch": 56, "duration": 519, "velocity": 122}, {"time": 138603, "pitch": 61, "duration": 569, "velocity": 127}, {"time": 138603, "pitch": 65, "duration": 519, "velocity": 127}, {"time": 139072, "pitch": 44, "duration": 149, "velocity": 111}, {"time": 139221, "pitch": 47, "duration": 299, "velocity": 122}, {"time": 139231, "pitch": 54, "duration": 279, "velocity": 105}, {"time": 139231, "pitch": 59, "duration": 190, "velocity": 114}, {"time": 139231, "pitch": 63, "duration": 220, "velocity": 111}, {"time": 139710, "pitch": 49, "duration": 239, "velocity": 127}, {"time": 139710, "pitch": 53, "duration": 199, "velocity": 114}, {"time": 139720, "pitch": 56, "duration": 209, "velocity": 122}, {"time": 139720, "pitch": 61, "duration": 239, "velocity": 122}, {"time": 140507, "pitch": 49, "duration": 50, "velocity": 111}, {"time": 140657, "pitch": 76, "duration": 39, "velocity": 127}, {"time": 140667, "pitch": 71, "duration": 229, "velocity": 114}, {"time": 140667, "pitch": 82, "duration": 249, "velocity": 118}, {"time": 140667, "pitch": 85, "duration": 239, "velocity": 114}, {"time": 140687, "pitch": 77, "duration": 199, "velocity": 108}, {"time": 140696, "pitch": 76, "duration": 30, "velocity": 63}, {"time": 141472, "pitch": 71, "duration": 302, "velocity": 105}, {"time": 141472, "pitch": 76, "duration": 112, "velocity": 127}, {"time": 141482, "pitch": 82, "duration": 252, "velocity": 122}, {"time": 141482, "pitch": 85, "duration": 242, "velocity": 114}, {"time": 141605, "pitch": 77, "duration": 179, "velocity": 105}, {"time": 142412, "pitch": 63, "duration": 538, "velocity": 122}, {"time": 142422, "pitch": 37, "duration": 498, "velocity": 108}, {"time": 142422, "pitch": 39, "duration": 10, "velocity": 114}, {"time": 142422, "pitch": 67, "duration": 110, "velocity": 127}, {"time": 142422, "pitch": 71, "duration": 488, "velocity": 122}, {"time": 142452, "pitch": 68, "duration": 438, "velocity": 78}, {"time": 142900, "pitch": 49, "duration": 130, "velocity": 118}, {"time": 143050, "pitch": 70, "duration": 229, "velocity": 114}, {"time": 143060, "pitch": 39, "duration": 239, "velocity": 108}, {"time": 143060, "pitch": 61, "duration": 239, "velocity": 114}, {"time": 143060, "pitch": 66, "duration": 269, "velocity": 127}, {"time": 143548, "pitch": 41, "duration": 190, "velocity": 122}, {"time": 143548, "pitch": 65, "duration": 209, "velocity": 122}, {"time": 143548, "pitch": 68, "duration": 199, "velocity": 118}, {"time": 143558, "pitch": 59, "duration": 219, "velocity": 114}, {"time": 144346, "pitch": 41, "duration": 302, "velocity": 122}, {"time": 144346, "pitch": 59, "duration": 527, "velocity": 127}, {"time": 144355, "pitch": 64, "duration": 120, "velocity": 127}, {"time": 144355, "pitch": 68, "duration": 508, "velocity": 118}, {"time": 144495, "pitch": 65, "duration": 429, "velocity": 81}, {"time": 144822, "pitch": 41, "duration": 143, "velocity": 114}, {"time": 144985, "pitch": 42, "duration": 249, "velocity": 122}, {"time": 144985, "pitch": 58, "duration": 189, "velocity": 111}, {"time": 144995, "pitch": 66, "duration": 199, "velocity": 108}, {"time": 145005, "pitch": 59, "duration": 69, "velocity": 108}, {"time": 145005, "pitch": 63, "duration": 179, "velocity": 114}, {"time": 145453, "pitch": 65, "duration": 199, "velocity": 118}, {"time": 145463, "pitch": 44, "duration": 149, "velocity": 127}, {"time": 145463, "pitch": 56, "duration": 179, "velocity": 118}, {"time": 145463, "pitch": 61, "duration": 189, "velocity": 118}, {"time": 145782, "pitch": 44, "duration": 50, "velocity": 108}, {"time": 145951, "pitch": 56, "duration": 818, "velocity": 127}, {"time": 145951, "pitch": 68, "duration": 259, "velocity": 127}, {"time": 146260, "pitch": 32, "duration": 479, "velocity": 122}, {"time": 146260, "pitch": 68, "duration": 509, "velocity": 91}, {"time": 146270, "pitch": 60, "duration": 509, "velocity": 127}, {"time": 146749, "pitch": 44, "duration": 209, "velocity": 127}, {"time": 146898, "pitch": 32, "duration": 219, "velocity": 111}, {"time": 146898, "pitch": 56, "duration": 229, "velocity": 114}, {"time": 146898, "pitch": 60, "duration": 229, "velocity": 127}, {"time": 146898, "pitch": 68, "duration": 229, "velocity": 122}, {"time": 147367, "pitch": 34, "duration": 249, "velocity": 111}, {"time": 147367, "pitch": 68, "duration": 229, "velocity": 114}, {"time": 147377, "pitch": 35, "duration": 29, "velocity": 91}, {"time": 147377, "pitch": 56, "duration": 189, "velocity": 122}, {"time": 147377, "pitch": 61, "duration": 209, "velocity": 127}, {"time": 147855, "pitch": 34, "duration": 235, "velocity": 114}, {"time": 147855, "pitch": 56, "duration": 194, "velocity": 122}, {"time": 147855, "pitch": 61, "duration": 204, "velocity": 127}, {"time": 147855, "pitch": 68, "duration": 215, "velocity": 118}, {"time": 147866, "pitch": 32, "duration": 91, "velocity": 100}, {"time": 148355, "pitch": 35, "duration": 289, "velocity": 122}, {"time": 148355, "pitch": 62, "duration": 428, "velocity": 127}, {"time": 148355, "pitch": 68, "duration": 418, "velocity": 114}, {"time": 148365, "pitch": 56, "duration": 428, "velocity": 127}, {"time": 148833, "pitch": 35, "duration": 149, "velocity": 122}, {"time": 149142, "pitch": 36, "duration": 389, "velocity": 127}, {"time": 149142, "pitch": 68, "duration": 309, "velocity": 122}, {"time": 149152, "pitch": 56, "duration": 249, "velocity": 118}, {"time": 149152, "pitch": 63, "duration": 289, "velocity": 127}, {"time": 149949, "pitch": 81, "duration": 30, "velocity": 43}, {"time": 150109, "pitch": 37, "duration": 99, "velocity": 114}, {"time": 150109, "pitch": 75, "duration": 508, "velocity": 127}, {"time": 150109, "pitch": 79, "duration": 119, "velocity": 127}, {"time": 150109, "pitch": 83, "duration": 448, "velocity": 127}, {"time": 150149, "pitch": 80, "duration": 398, "velocity": 84}, {"time": 150577, "pitch": 37, "duration": 90, "velocity": 95}, {"time": 150577, "pitch": 49, "duration": 90, "velocity": 118}, {"time": 150587, "pitch": 47, "duration": 20, "velocity": 81}, {"time": 150737, "pitch": 39, "duration": 269, "velocity": 114}, {"time": 150737, "pitch": 73, "duration": 259, "velocity": 122}, {"time": 150737, "pitch": 78, "duration": 319, "velocity": 127}, {"time": 150737, "pitch": 80, "duration": 139, "velocity": 127}, {"time": 150737, "pitch": 82, "duration": 189, "velocity": 118}, {"time": 151215, "pitch": 41, "duration": 215, "velocity": 127}, {"time": 151215, "pitch": 80, "duration": 266, "velocity": 127}, {"time": 151226, "pitch": 71, "duration": 255, "velocity": 127}, {"time": 151226, "pitch": 77, "duration": 275, "velocity": 122}, {"time": 151705, "pitch": 42, "duration": 279, "velocity": 127}, {"time": 152014, "pitch": 30, "duration": 488, "velocity": 127}, {"time": 152014, "pitch": 82, "duration": 538, "velocity": 127}, {"time": 152024, "pitch": 76, "duration": 528, "velocity": 127}, {"time": 152024, "pitch": 85, "duration": 518, "velocity": 118}, {"time": 152502, "pitch": 42, "duration": 159, "velocity": 127}, {"time": 152661, "pitch": 32, "duration": 269, "velocity": 127}, {"time": 152661, "pitch": 75, "duration": 279, "velocity": 114}, {"time": 152661, "pitch": 80, "duration": 260, "velocity": 122}, {"time": 152661, "pitch": 83, "duration": 230, "velocity": 122}, {"time": 153140, "pitch": 73, "duration": 259, "velocity": 127}, {"time": 153140, "pitch": 78, "duration": 259, "velocity": 127}, {"time": 153140, "pitch": 82, "duration": 229, "velocity": 127}, {"time": 153150, "pitch": 32, "duration": 149, "velocity": 118}, {"time": 153150, "pitch": 34, "duration": 219, "velocity": 108}, {"time": 153150, "pitch": 44, "duration": 229, "velocity": 102}, {"time": 153150, "pitch": 46, "duration": 129, "velocity": 87}, {"time": 153628, "pitch": 46, "duration": 70, "velocity": 105}, {"time": 153628, "pitch": 47, "duration": 130, "velocity": 93}, {"time": 153937, "pitch": 71, "duration": 548, "velocity": 127}, {"time": 153947, "pitch": 35, "duration": 469, "velocity": 127}, {"time": 153947, "pitch": 37, "duration": 10, "velocity": 127}, {"time": 153947, "pitch": 76, "duration": 110, "velocity": 127}, {"time": 153947, "pitch": 80, "duration": 538, "velocity": 127}, {"time": 153957, "pitch": 40, "duration": 20, "velocity": 66}, {"time": 154077, "pitch": 77, "duration": 488, "velocity": 87}, {"time": 154416, "pitch": 47, "duration": 119, "velocity": 108}, {"time": 154575, "pitch": 36, "duration": 296, "velocity": 123}, {"time": 154586, "pitch": 70, "duration": 244, "velocity": 114}, {"time": 154586, "pitch": 75, "duration": 234, "velocity": 118}, {"time": 154586, "pitch": 78, "duration": 224, "velocity": 114}, {"time": 155055, "pitch": 37, "duration": 239, "velocity": 118}, {"time": 155065, "pitch": 68, "duration": 199, "velocity": 118}, {"time": 155065, "pitch": 73, "duration": 229, "velocity": 127}, {"time": 155065, "pitch": 77, "duration": 259, "velocity": 122}, {"time": 155543, "pitch": 49, "duration": 90, "velocity": 122}, {"time": 155852, "pitch": 73, "duration": 189, "velocity": 127}, {"time": 155852, "pitch": 85, "duration": 139, "velocity": 127}, {"time": 156510, "pitch": 49, "duration": 30, "velocity": 114}, {"time": 156819, "pitch": 64, "duration": 129, "velocity": 127}, {"time": 156819, "pitch": 68, "duration": 827, "velocity": 127}, {"time": 156829, "pitch": 59, "duration": 518, "velocity": 127}, {"time": 156879, "pitch": 65, "duration": 548, "velocity": 93}, {"time": 157297, "pitch": 47, "duration": 20, "velocity": 105}, {"time": 157297, "pitch": 49, "duration": 40, "velocity": 127}, {"time": 157457, "pitch": 59, "duration": 189, "velocity": 100}, {"time": 157616, "pitch": 62, "duration": 50, "velocity": 60}, {"time": 157776, "pitch": 32, "duration": 506, "velocity": 122}, {"time": 157776, "pitch": 56, "duration": 537, "velocity": 122}, {"time": 157785, "pitch": 60, "duration": 548, "velocity": 127}, {"time": 157785, "pitch": 68, "duration": 528, "velocity": 127}, {"time": 158282, "pitch": 44, "duration": 172, "velocity": 127}, {"time": 158425, "pitch": 32, "duration": 279, "velocity": 111}, {"time": 158435, "pitch": 60, "duration": 259, "velocity": 127}, {"time": 158444, "pitch": 56, "duration": 260, "velocity": 114}, {"time": 158444, "pitch": 68, "duration": 250, "velocity": 118}, {"time": 158903, "pitch": 34, "duration": 279, "velocity": 122}, {"time": 158923, "pitch": 56, "duration": 179, "velocity": 114}, {"time": 158923, "pitch": 61, "duration": 219, "velocity": 127}, {"time": 158923, "pitch": 68, "duration": 209, "velocity": 114}, {"time": 159391, "pitch": 35, "duration": 230, "velocity": 122}, {"time": 159391, "pitch": 62, "duration": 240, "velocity": 127}, {"time": 159401, "pitch": 56, "duration": 190, "velocity": 114}, {"time": 159401, "pitch": 68, "duration": 180, "velocity": 111}, {"time": 159870, "pitch": 36, "duration": 229, "velocity": 123}, {"time": 159880, "pitch": 63, "duration": 229, "velocity": 122}, {"time": 159890, "pitch": 56, "duration": 189, "velocity": 105}, {"time": 159890, "pitch": 68, "duration": 199, "velocity": 108}, {"time": 160338, "pitch": 37, "duration": 219, "velocity": 122}, {"time": 160348, "pitch": 68, "duration": 180, "velocity": 97}, {"time": 160358, "pitch": 56, "duration": 130, "velocity": 108}, {"time": 160358, "pitch": 64, "duration": 180, "velocity": 123}, {"time": 160827, "pitch": 38, "duration": 744, "velocity": 127}, {"time": 160827, "pitch": 65, "duration": 734, "velocity": 122}, {"time": 160827, "pitch": 68, "duration": 693, "velocity": 118}, {"time": 160837, "pitch": 56, "duration": 693, "velocity": 114}, {"time": 161642, "pitch": 39, "duration": 202, "velocity": 122}, {"time": 161642, "pitch": 56, "duration": 202, "velocity": 108}, {"time": 161642, "pitch": 66, "duration": 222, "velocity": 122}, {"time": 161642, "pitch": 68, "duration": 222, "velocity": 118}, {"time": 164027, "pitch": 56, "duration": 170, "velocity": 105}, {"time": 164197, "pitch": 58, "duration": 259, "velocity": 118}, {"time": 164515, "pitch": 68, "duration": 202, "velocity": 111}, {"time": 164666, "pitch": 64, "duration": 326, "velocity": 88}, {"time": 164859, "pitch": 80, "duration": 51, "velocity": 74}, {"time": 164992, "pitch": 61, "duration": 212, "velocity": 114}, {"time": 164992, "pitch": 82, "duration": 102, "velocity": 95}, {"time": 165164, "pitch": 58, "duration": 299, "velocity": 118}, {"time": 165164, "pitch": 85, "duration": 180, "velocity": 114}, {"time": 165483, "pitch": 49, "duration": 110, "velocity": 111}, {"time": 165483, "pitch": 88, "duration": 90, "velocity": 127}, {"time": 165962, "pitch": 49, "duration": 209, "velocity": 118}, {"time": 165962, "pitch": 73, "duration": 259, "velocity": 118}, {"time": 166121, "pitch": 37, "duration": 230, "velocity": 114}, {"time": 166121, "pitch": 61, "duration": 210, "velocity": 108}, {"time": 166600, "pitch": 41, "duration": 219, "velocity": 114}, {"time": 166600, "pitch": 65, "duration": 259, "velocity": 127}, {"time": 167078, "pitch": 44, "duration": 229, "velocity": 127}, {"time": 167078, "pitch": 68, "duration": 219, "velocity": 122}, {"time": 167557, "pitch": 68, "duration": 764, "velocity": 127}, {"time": 168362, "pitch": 44, "duration": 31, "velocity": 127}, {"time": 168362, "pitch": 68, "duration": 222, "velocity": 127}, {"time": 169322, "pitch": 63, "duration": 488, "velocity": 122}, {"time": 169322, "pitch": 67, "duration": 139, "velocity": 127}, {"time": 169322, "pitch": 71, "duration": 458, "velocity": 127}, {"time": 169481, "pitch": 68, "duration": 369, "velocity": 91}, {"time": 169790, "pitch": 49, "duration": 60, "velocity": 127}, {"time": 169960, "pitch": 61, "duration": 239, "velocity": 118}, {"time": 169960, "pitch": 66, "duration": 319, "velocity": 127}, {"time": 169960, "pitch": 70, "duration": 239, "velocity": 122}, {"time": 170438, "pitch": 59, "duration": 180, "velocity": 122}, {"time": 170438, "pitch": 65, "duration": 189, "velocity": 127}, {"time": 170438, "pitch": 68, "duration": 219, "velocity": 122}, {"time": 170907, "pitch": 49, "duration": 49, "velocity": 89}, {"time": 171235, "pitch": 59, "duration": 528, "velocity": 127}, {"time": 171235, "pitch": 64, "duration": 161, "velocity": 127}, {"time": 171235, "pitch": 68, "duration": 446, "velocity": 127}, {"time": 171396, "pitch": 65, "duration": 398, "velocity": 93}, {"time": 171722, "pitch": 49, "duration": 72, "velocity": 114}, {"time": 171884, "pitch": 58, "duration": 200, "velocity": 114}, {"time": 171884, "pitch": 63, "duration": 260, "velocity": 122}, {"time": 171884, "pitch": 66, "duration": 210, "velocity": 111}, {"time": 172363, "pitch": 56, "duration": 129, "velocity": 122}, {"time": 172363, "pitch": 61, "duration": 189, "velocity": 122}, {"time": 172363, "pitch": 65, "duration": 149, "velocity": 102}, {"time": 172682, "pitch": 56, "duration": 149, "velocity": 111}, {"time": 172841, "pitch": 58, "duration": 220, "velocity": 114}, {"time": 173160, "pitch": 61, "duration": 150, "velocity": 127}, {"time": 173280, "pitch": 66, "duration": 1086, "velocity": 127}, {"time": 173280, "pitch": 70, "duration": 1126, "velocity": 127}, {"time": 173290, "pitch": 64, "duration": 1106, "velocity": 117}, {"time": 173290, "pitch": 73, "duration": 1156, "velocity": 127}, {"time": 175205, "pitch": 65, "duration": 687, "velocity": 127}, {"time": 175205, "pitch": 68, "duration": 727, "velocity": 127}, {"time": 175215, "pitch": 61, "duration": 707, "velocity": 117}, {"time": 175215, "pitch": 73, "duration": 757, "velocity": 127}, {"time": 176002, "pitch": 65, "duration": 50, "velocity": 127}, {"time": 176002, "pitch": 68, "duration": 90, "velocity": 127}, {"time": 176012, "pitch": 61, "duration": 70, "velocity": 117}, {"time": 176012, "pitch": 73, "duration": 120, "velocity": 127}, {"time": 176999, "pitch": 56, "duration": 488, "velocity": 127}, {"time": 176999, "pitch": 66, "duration": 120, "velocity": 127}, {"time": 176999, "pitch": 72, "duration": 468, "velocity": 118}, {"time": 177148, "pitch": 66, "duration": 10, "velocity": 93}, {"time": 177636, "pitch": 56, "duration": 230, "velocity": 123}, {"time": 177636, "pitch": 66, "duration": 200, "velocity": 127}, {"time": 177636, "pitch": 72, "duration": 220, "velocity": 123}, {"time": 178085, "pitch": 66, "duration": 848, "velocity": 127}, {"time": 178085, "pitch": 68, "duration": 888, "velocity": 127}, {"time": 178095, "pitch": 56, "duration": 868, "velocity": 117}, {"time": 178095, "pitch": 72, "duration": 918, "velocity": 127}, {"time": 180837, "pitch": 82, "duration": 150, "velocity": 127}, {"time": 180837, "pitch": 85, "duration": 130, "velocity": 127}, {"time": 180957, "pitch": 64, "duration": 239, "velocity": 123}, {"time": 180977, "pitch": 58, "duration": 199, "velocity": 105}, {"time": 180977, "pitch": 68, "duration": 209, "velocity": 114}, {"time": 181782, "pitch": 64, "duration": 30, "velocity": 111}, {"time": 181782, "pitch": 68, "duration": 30, "velocity": 89}, {"time": 181935, "pitch": 75, "duration": 249, "velocity": 127}, {"time": 181935, "pitch": 87, "duration": 219, "velocity": 127}, {"time": 182413, "pitch": 73, "duration": 249, "velocity": 122}, {"time": 182413, "pitch": 85, "duration": 239, "velocity": 118}, {"time": 182752, "pitch": 64, "duration": 40, "velocity": 117}, {"time": 182921, "pitch": 71, "duration": 210, "velocity": 97}, {"time": 182921, "pitch": 83, "duration": 200, "velocity": 93}, {"time": 183230, "pitch": 73, "duration": 80, "velocity": 97}, {"time": 183230, "pitch": 85, "duration": 70, "velocity": 95}, {"time": 183689, "pitch": 61, "duration": 50, "velocity": 127}, {"time": 183858, "pitch": 76, "duration": 90, "velocity": 123}, {"time": 183858, "pitch": 80, "duration": 209, "velocity": 105}, {"time": 183958, "pitch": 77, "duration": 189, "velocity": 102}, {"time": 184327, "pitch": 73, "duration": 229, "velocity": 127}, {"time": 184646, "pitch": 61, "duration": 69, "velocity": 117}, {"time": 184815, "pitch": 76, "duration": 276, "velocity": 123}, {"time": 184815, "pitch": 78, "duration": 235, "velocity": 122}, {"time": 185285, "pitch": 75, "duration": 249, "velocity": 122}, {"time": 185285, "pitch": 78, "duration": 229, "velocity": 118}, {"time": 185763, "pitch": 73, "duration": 239, "velocity": 127}, {"time": 185763, "pitch": 78, "duration": 199, "velocity": 122}, {"time": 186241, "pitch": 78, "duration": 240, "velocity": 118}, {"time": 186251, "pitch": 71, "duration": 240, "velocity": 127}, {"time": 186540, "pitch": 64, "duration": 50, "velocity": 117}, {"time": 186750, "pitch": 49, "duration": 249, "velocity": 118}, {"time": 187238, "pitch": 51, "duration": 189, "velocity": 122}, {"time": 187707, "pitch": 52, "duration": 249, "velocity": 127}, {"time": 188196, "pitch": 51, "duration": 469, "velocity": 122}, {"time": 188492, "pitch": 59, "duration": 153, "velocity": 127}, {"time": 188492, "pitch": 61, "duration": 163, "velocity": 127}, {"time": 188492, "pitch": 73, "duration": 173, "velocity": 122}, {"time": 188645, "pitch": 64, "duration": 239, "velocity": 123}, {"time": 188665, "pitch": 58, "duration": 199, "velocity": 105}, {"time": 188665, "pitch": 68, "duration": 209, "velocity": 114}, {"time": 189462, "pitch": 64, "duration": 30, "velocity": 111}, {"time": 189462, "pitch": 68, "duration": 30, "velocity": 89}, {"time": 189611, "pitch": 75, "duration": 250, "velocity": 127}, {"time": 189611, "pitch": 87, "duration": 220, "velocity": 127}, {"time": 190090, "pitch": 73, "duration": 249, "velocity": 122}, {"time": 190090, "pitch": 85, "duration": 239, "velocity": 118}, {"time": 190429, "pitch": 64, "duration": 40, "velocity": 117}, {"time": 190598, "pitch": 71, "duration": 209, "velocity": 97}, {"time": 190598, "pitch": 83, "duration": 199, "velocity": 93}, {"time": 190907, "pitch": 73, "duration": 80, "velocity": 97}, {"time": 190907, "pitch": 85, "duration": 70, "velocity": 95}, {"time": 191366, "pitch": 61, "duration": 49, "velocity": 127}, {"time": 191535, "pitch": 76, "duration": 92, "velocity": 123}, {"time": 191535, "pitch": 80, "duration": 215, "velocity": 105}, {"time": 191637, "pitch": 77, "duration": 194, "velocity": 102}, {"time": 192015, "pitch": 73, "duration": 229, "velocity": 127}, {"time": 192333, "pitch": 61, "duration": 70, "velocity": 117}, {"time": 192503, "pitch": 76, "duration": 269, "velocity": 123}, {"time": 192503, "pitch": 78, "duration": 229, "velocity": 122}, {"time": 192961, "pitch": 75, "duration": 250, "velocity": 122}, {"time": 192961, "pitch": 78, "duration": 230, "velocity": 118}, {"time": 193440, "pitch": 73, "duration": 239, "velocity": 127}, {"time": 193440, "pitch": 78, "duration": 199, "velocity": 122}, {"time": 193918, "pitch": 78, "duration": 239, "velocity": 118}, {"time": 193928, "pitch": 71, "duration": 239, "velocity": 127}, {"time": 194217, "pitch": 64, "duration": 50, "velocity": 117}, {"time": 194427, "pitch": 49, "duration": 249, "velocity": 118}, {"time": 194916, "pitch": 51, "duration": 194, "velocity": 122}, {"time": 195394, "pitch": 52, "duration": 250, "velocity": 127}, {"time": 195883, "pitch": 51, "duration": 458, "velocity": 122}, {"time": 196172, "pitch": 59, "duration": 149, "velocity": 127}, {"time": 196172, "pitch": 61, "duration": 159, "velocity": 127}, {"time": 196172, "pitch": 73, "duration": 169, "velocity": 122}, {"time": 196680, "pitch": 73, "duration": 269, "velocity": 114}, {"time": 196840, "pitch": 61, "duration": 289, "velocity": 77}, {"time": 197318, "pitch": 65, "duration": 219, "velocity": 127}, {"time": 197796, "pitch": 68, "duration": 200, "velocity": 127}, {"time": 198276, "pitch": 70, "duration": 758, "velocity": 127}, {"time": 199083, "pitch": 73, "duration": 220, "velocity": 127}, {"time": 200040, "pitch": 67, "duration": 528, "velocity": 108}, {"time": 200040, "pitch": 75, "duration": 499, "velocity": 122}, {"time": 200050, "pitch": 63, "duration": 528, "velocity": 105}, {"time": 200050, "pitch": 70, "duration": 518, "velocity": 114}, {"time": 200050, "pitch": 82, "duration": 140, "velocity": 127}, {"time": 200050, "pitch": 85, "duration": 469, "velocity": 122}, {"time": 200190, "pitch": 82, "duration": 438, "velocity": 84}, {"time": 200678, "pitch": 67, "duration": 229, "velocity": 117}, {"time": 200678, "pitch": 70, "duration": 209, "velocity": 108}, {"time": 200678, "pitch": 75, "duration": 239, "velocity": 127}, {"time": 200678, "pitch": 85, "duration": 229, "velocity": 127}, {"time": 200688, "pitch": 63, "duration": 140, "velocity": 102}, {"time": 200688, "pitch": 82, "duration": 160, "velocity": 118}, {"time": 201156, "pitch": 70, "duration": 796, "velocity": 93}, {"time": 201156, "pitch": 85, "duration": 755, "velocity": 114}, {"time": 201166, "pitch": 63, "duration": 704, "velocity": 114}, {"time": 201166, "pitch": 73, "duration": 674, "velocity": 114}, {"time": 201166, "pitch": 75, "duration": 653, "velocity": 127}, {"time": 201166, "pitch": 82, "duration": 745, "velocity": 114}, {"time": 202433, "pitch": 56, "duration": 130, "velocity": 119}, {"time": 202593, "pitch": 51, "duration": 219, "velocity": 119}, {"time": 203071, "pitch": 56, "duration": 329, "velocity": 119}, {"time": 203400, "pitch": 58, "duration": 160, "velocity": 119}, {"time": 203550, "pitch": 60, "duration": 309, "velocity": 119}, {"time": 203869, "pitch": 61, "duration": 179, "velocity": 118}, {"time": 203879, "pitch": 59, "duration": 229, "velocity": 108}, {"time": 203879, "pitch": 65, "duration": 219, "velocity": 114}, {"time": 203879, "pitch": 70, "duration": 229, "velocity": 108}, {"time": 203879, "pitch": 82, "duration": 219, "velocity": 127}, {"time": 203889, "pitch": 77, "duration": 199, "velocity": 122}, {"time": 203889, "pitch": 85, "duration": 209, "velocity": 118}, {"time": 205773, "pitch": 68, "duration": 130, "velocity": 75}, {"time": 205873, "pitch": 70, "duration": 80, "velocity": 72}, {"time": 205953, "pitch": 68, "duration": 129, "velocity": 85}, {"time": 206053, "pitch": 72, "duration": 129, "velocity": 71}, {"time": 206182, "pitch": 68, "duration": 70, "velocity": 87}, {"time": 206262, "pitch": 72, "duration": 90, "velocity": 76}, {"time": 206272, "pitch": 60, "duration": 169, "velocity": 111}, {"time": 206362, "pitch": 68, "duration": 79, "velocity": 82}, {"time": 206441, "pitch": 53, "duration": 349, "velocity": 102}, {"time": 206441, "pitch": 72, "duration": 80, "velocity": 76}, {"time": 206521, "pitch": 68, "duration": 80, "velocity": 77}, {"time": 206611, "pitch": 72, "duration": 109, "velocity": 74}, {"time": 206700, "pitch": 68, "duration": 90, "velocity": 77}, {"time": 206810, "pitch": 72, "duration": 100, "velocity": 81}, {"time": 206900, "pitch": 68, "duration": 69, "velocity": 63}, {"time": 206910, "pitch": 56, "duration": 269, "velocity": 118}, {"time": 206989, "pitch": 72, "duration": 100, "velocity": 85}, {"time": 207089, "pitch": 68, "duration": 70, "velocity": 67}, {"time": 207169, "pitch": 72, "duration": 90, "velocity": 79}, {"time": 207259, "pitch": 68, "duration": 79, "velocity": 78}, {"time": 207358, "pitch": 72, "duration": 90, "velocity": 82}, {"time": 207398, "pitch": 60, "duration": 349, "velocity": 122}, {"time": 207438, "pitch": 68, "duration": 80, "velocity": 79}, {"time": 207538, "pitch": 72, "duration": 89, "velocity": 85}, {"time": 207627, "pitch": 68, "duration": 70, "velocity": 75}, {"time": 207717, "pitch": 56, "duration": 120, "velocity": 95}, {"time": 207717, "pitch": 72, "duration": 150, "velocity": 89}, {"time": 207807, "pitch": 68, "duration": 69, "velocity": 78}, {"time": 208346, "pitch": 44, "duration": 397, "velocity": 127}, {"time": 209313, "pitch": 44, "duration": 279, "velocity": 122}, {"time": 209761, "pitch": 49, "duration": 279, "velocity": 122}, {"time": 210110, "pitch": 56, "duration": 170, "velocity": 105}, {"time": 210280, "pitch": 58, "duration": 259, "velocity": 118}, {"time": 210599, "pitch": 68, "duration": 199, "velocity": 111}, {"time": 210748, "pitch": 64, "duration": 319, "velocity": 88}, {"time": 210937, "pitch": 68, "duration": 50, "velocity": 74}, {"time": 211067, "pitch": 61, "duration": 209, "velocity": 114}, {"time": 211067, "pitch": 70, "duration": 100, "velocity": 95}, {"time": 211236, "pitch": 58, "duration": 299, "velocity": 118}, {"time": 211236, "pitch": 73, "duration": 180, "velocity": 114}, {"time": 211555, "pitch": 49, "duration": 110, "velocity": 111}, {"time": 211555, "pitch": 76, "duration": 90, "velocity": 127}, {"time": 211879, "pitch": 69, "duration": 51, "velocity": 39}, {"time": 212042, "pitch": 73, "duration": 232, "velocity": 111}, {"time": 212052, "pitch": 49, "duration": 232, "velocity": 127}, {"time": 212204, "pitch": 61, "duration": 250, "velocity": 111}, {"time": 212224, "pitch": 37, "duration": 150, "velocity": 93}, {"time": 212673, "pitch": 41, "duration": 199, "velocity": 114}, {"time": 212683, "pitch": 65, "duration": 239, "velocity": 127}, {"time": 213151, "pitch": 44, "duration": 230, "velocity": 127}, {"time": 213161, "pitch": 46, "duration": 140, "velocity": 100}, {"time": 213161, "pitch": 68, "duration": 210, "velocity": 118}, {"time": 213630, "pitch": 68, "duration": 129, "velocity": 85}, {"time": 213729, "pitch": 72, "duration": 130, "velocity": 71}, {"time": 213859, "pitch": 68, "duration": 70, "velocity": 87}, {"time": 213939, "pitch": 72, "duration": 89, "velocity": 76}, {"time": 213949, "pitch": 60, "duration": 169, "velocity": 111}, {"time": 214038, "pitch": 68, "duration": 80, "velocity": 82}, {"time": 214118, "pitch": 53, "duration": 349, "velocity": 102}, {"time": 214118, "pitch": 72, "duration": 80, "velocity": 76}, {"time": 214198, "pitch": 68, "duration": 80, "velocity": 77}, {"time": 214287, "pitch": 72, "duration": 110, "velocity": 74}, {"time": 214377, "pitch": 68, "duration": 90, "velocity": 77}, {"time": 214487, "pitch": 72, "duration": 99, "velocity": 81}, {"time": 214577, "pitch": 68, "duration": 69, "velocity": 63}, {"time": 214586, "pitch": 56, "duration": 270, "velocity": 118}, {"time": 214666, "pitch": 72, "duration": 100, "velocity": 85}, {"time": 214766, "pitch": 68, "duration": 70, "velocity": 67}, {"time": 214846, "pitch": 72, "duration": 89, "velocity": 79}, {"time": 214935, "pitch": 68, "duration": 80, "velocity": 78}, {"time": 215035, "pitch": 72, "duration": 92, "velocity": 82}, {"time": 215076, "pitch": 60, "duration": 357, "velocity": 122}, {"time": 215117, "pitch": 68, "duration": 81, "velocity": 79}, {"time": 215219, "pitch": 72, "duration": 91, "velocity": 85}, {"time": 215310, "pitch": 68, "duration": 72, "velocity": 75}, {"time": 215402, "pitch": 56, "duration": 123, "velocity": 95}, {"time": 215402, "pitch": 72, "duration": 152, "velocity": 89}, {"time": 215494, "pitch": 68, "duration": 70, "velocity": 78}, {"time": 216043, "pitch": 44, "duration": 219, "velocity": 123}, {"time": 216511, "pitch": 44, "duration": 917, "velocity": 127}, {"time": 217438, "pitch": 49, "duration": 219, "velocity": 123}, {"time": 218425, "pitch": 59, "duration": 266, "velocity": 122}, {"time": 218752, "pitch": 54, "duration": 182, "velocity": 105}, {"time": 218924, "pitch": 47, "duration": 250, "velocity": 114}, {"time": 219233, "pitch": 65, "duration": 170, "velocity": 127}, {"time": 219233, "pitch": 73, "duration": 170, "velocity": 127}, {"time": 219243, "pitch": 49, "duration": 459, "velocity": 127}, {"time": 219243, "pitch": 59, "duration": 160, "velocity": 105}, {"time": 219243, "pitch": 70, "duration": 160, "velocity": 127}, {"time": 220091, "pitch": 49, "duration": 99, "velocity": 84}, {"time": 220150, "pitch": 51, "duration": 90, "velocity": 85}, {"time": 220200, "pitch": 53, "duration": 80, "velocity": 97}, {"time": 220210, "pitch": 49, "duration": 30, "velocity": 66}, {"time": 220250, "pitch": 54, "duration": 80, "velocity": 97}, {"time": 220290, "pitch": 56, "duration": 80, "velocity": 100}, {"time": 220330, "pitch": 58, "duration": 79, "velocity": 105}, {"time": 220380, "pitch": 59, "duration": 69, "velocity": 97}, {"time": 220400, "pitch": 56, "duration": 29, "velocity": 65}, {"time": 220429, "pitch": 61, "duration": 80, "velocity": 97}, {"time": 220479, "pitch": 63, "duration": 80, "velocity": 100}, {"time": 220539, "pitch": 61, "duration": 30, "velocity": 71}, {"time": 220539, "pitch": 65, "duration": 80, "velocity": 105}, {"time": 220599, "pitch": 66, "duration": 70, "velocity": 91}, {"time": 220629, "pitch": 68, "duration": 89, "velocity": 95}, {"time": 220689, "pitch": 70, "duration": 69, "velocity": 100}, {"time": 220728, "pitch": 71, "duration": 80, "velocity": 95}, {"time": 220748, "pitch": 68, "duration": 30, "velocity": 72}, {"time": 220788, "pitch": 73, "duration": 70, "velocity": 97}, {"time": 220828, "pitch": 75, "duration": 80, "velocity": 102}, {"time": 220878, "pitch": 77, "duration": 80, "velocity": 105}, {"time": 220888, "pitch": 73, "duration": 30, "velocity": 68}, {"time": 220928, "pitch": 75, "duration": 30, "velocity": 73}, {"time": 220928, "pitch": 78, "duration": 79, "velocity": 97}, {"time": 220968, "pitch": 80, "duration": 89, "velocity": 105}, {"time": 221027, "pitch": 82, "duration": 80, "velocity": 102}, {"time": 221067, "pitch": 83, "duration": 80, "velocity": 97}, {"time": 221087, "pitch": 80, "duration": 20, "velocity": 68}, {"time": 221127, "pitch": 85, "duration": 80, "velocity": 105}, {"time": 221147, "pitch": 82, "duration": 20, "velocity": 57}, {"time": 221177, "pitch": 87, "duration": 90, "velocity": 111}, {"time": 221227, "pitch": 89, "duration": 79, "velocity": 111}, {"time": 221237, "pitch": 85, "duration": 30, "velocity": 69}, {"time": 221277, "pitch": 90, "duration": 79, "velocity": 114}, {"time": 221297, "pitch": 87, "duration": 19, "velocity": 73}, {"time": 221326, "pitch": 92, "duration": 60, "velocity": 114}, {"time": 221366, "pitch": 94, "duration": 40, "velocity": 118}, {"time": 221396, "pitch": 95, "duration": 30, "velocity": 118}, {"time": 221426, "pitch": 97, "duration": 30, "velocity": 111}, {"time": 221486, "pitch": 97, "duration": 30, "velocity": 78}, {"time": 221625, "pitch": 54, "duration": 232, "velocity": 122}, {"time": 221796, "pitch": 56, "duration": 306, "velocity": 122}, {"time": 222122, "pitch": 54, "duration": 202, "velocity": 121}, {"time": 222274, "pitch": 59, "duration": 329, "velocity": 120}, {"time": 222593, "pitch": 66, "duration": 479, "velocity": 119}, {"time": 223062, "pitch": 61, "duration": 279, "velocity": 118}, {"time": 223062, "pitch": 85, "duration": 279, "velocity": 127}, {"time": 223072, "pitch": 73, "duration": 279, "velocity": 127}, {"time": 223540, "pitch": 49, "duration": 180, "velocity": 127}, {"time": 223540, "pitch": 73, "duration": 170, "velocity": 111}, {"time": 223700, "pitch": 37, "duration": 169, "velocity": 102}, {"time": 223710, "pitch": 61, "duration": 199, "velocity": 93}, {"time": 224188, "pitch": 41, "duration": 140, "velocity": 118}, {"time": 224198, "pitch": 65, "duration": 199, "velocity": 127}, {"time": 224666, "pitch": 44, "duration": 160, "velocity": 127}, {"time": 224676, "pitch": 68, "duration": 170, "velocity": 122}, {"time": 225156, "pitch": 46, "duration": 777, "velocity": 127}, {"time": 225166, "pitch": 70, "duration": 748, "velocity": 127}, {"time": 225943, "pitch": 73, "duration": 220, "velocity": 127}, {"time": 225953, "pitch": 49, "duration": 180, "velocity": 127}, {"time": 226910, "pitch": 63, "duration": 558, "velocity": 127}, {"time": 226910, "pitch": 67, "duration": 120, "velocity": 127}, {"time": 226910, "pitch": 71, "duration": 509, "velocity": 127}, {"time": 227040, "pitch": 68, "duration": 448, "velocity": 89}, {"time": 227548, "pitch": 66, "duration": 329, "velocity": 122}, {"time": 227558, "pitch": 61, "duration": 259, "velocity": 118}, {"time": 227558, "pitch": 70, "duration": 239, "velocity": 118}, {"time": 228036, "pitch": 59, "duration": 250, "velocity": 118}, {"time": 228046, "pitch": 65, "duration": 260, "velocity": 127}, {"time": 228046, "pitch": 68, "duration": 260, "velocity": 118}, {"time": 228842, "pitch": 59, "duration": 561, "velocity": 127}, {"time": 228842, "pitch": 64, "duration": 142, "velocity": 127}, {"time": 228852, "pitch": 68, "duration": 531, "velocity": 127}, {"time": 228994, "pitch": 65, "duration": 469, "velocity": 82}, {"time": 229493, "pitch": 58, "duration": 229, "velocity": 114}, {"time": 229493, "pitch": 63, "duration": 229, "velocity": 114}, {"time": 229493, "pitch": 66, "duration": 239, "velocity": 108}, {"time": 229961, "pitch": 56, "duration": 180, "velocity": 111}, {"time": 229961, "pitch": 61, "duration": 210, "velocity": 114}, {"time": 229961, "pitch": 65, "duration": 190, "velocity": 122}, {"time": 230270, "pitch": 56, "duration": 90, "velocity": 105}, {"time": 230430, "pitch": 58, "duration": 229, "velocity": 122}, {"time": 230759, "pitch": 61, "duration": 149, "velocity": 127}, {"time": 231078, "pitch": 69, "duration": 49, "velocity": 39}, {"time": 231237, "pitch": 73, "duration": 229, "velocity": 111}, {"time": 231247, "pitch": 49, "duration": 229, "velocity": 127}, {"time": 231396, "pitch": 61, "duration": 250, "velocity": 111}, {"time": 231416, "pitch": 37, "duration": 150, "velocity": 93}, {"time": 231865, "pitch": 41, "duration": 205, "velocity": 114}, {"time": 231876, "pitch": 65, "duration": 245, "velocity": 127}, {"time": 232354, "pitch": 44, "duration": 230, "velocity": 127}, {"time": 232364, "pitch": 46, "duration": 140, "velocity": 100}, {"time": 232364, "pitch": 68, "duration": 210, "velocity": 118}, {"time": 232843, "pitch": 46, "duration": 787, "velocity": 127}, {"time": 232853, "pitch": 70, "duration": 658, "velocity": 127}, {"time": 233640, "pitch": 49, "duration": 100, "velocity": 115}, {"time": 233650, "pitch": 73, "duration": 120, "velocity": 115}, {"time": 233800, "pitch": 65, "duration": 169, "velocity": 116}, {"time": 233800, "pitch": 77, "duration": 169, "velocity": 116}, {"time": 234109, "pitch": 68, "duration": 109, "velocity": 122}, {"time": 234109, "pitch": 80, "duration": 109, "velocity": 122}, {"time": 234268, "pitch": 70, "duration": 219, "velocity": 123}, {"time": 234268, "pitch": 82, "duration": 219, "velocity": 123}, {"time": 234587, "pitch": 65, "duration": 349, "velocity": 127}, {"time": 234587, "pitch": 70, "duration": 359, "velocity": 114}, {"time": 234587, "pitch": 85, "duration": 369, "velocity": 127}, {"time": 235055, "pitch": 85, "duration": 120, "velocity": 114}, {"time": 235065, "pitch": 65, "duration": 80, "velocity": 118}, {"time": 235075, "pitch": 70, "duration": 70, "velocity": 85}, {"time": 235225, "pitch": 64, "duration": 245, "velocity": 127}, {"time": 235225, "pitch": 69, "duration": 235, "velocity": 123}, {"time": 235236, "pitch": 84, "duration": 245, "velocity": 127}, {"time": 235714, "pitch": 63, "duration": 907, "velocity": 127}, {"time": 235714, "pitch": 68, "duration": 868, "velocity": 127}, {"time": 235724, "pitch": 83, "duration": 937, "velocity": 127}, {"time": 236661, "pitch": 59, "duration": 140, "velocity": 102}, {"time": 236661, "pitch": 71, "duration": 140, "velocity": 102}, {"time": 236821, "pitch": 68, "duration": 119, "velocity": 118}, {"time": 236821, "pitch": 80, "duration": 119, "velocity": 118}, {"time": 236970, "pitch": 59, "duration": 110, "velocity": 97}, {"time": 236970, "pitch": 71, "duration": 110, "velocity": 97}, {"time": 237130, "pitch": 66, "duration": 189, "velocity": 97}, {"time": 237130, "pitch": 78, "duration": 189, "velocity": 97}, {"time": 237289, "pitch": 68, "duration": 90, "velocity": 105}, {"time": 237289, "pitch": 80, "duration": 90, "velocity": 105}, {"time": 237449, "pitch": 71, "duration": 129, "velocity": 122}, {"time": 237449, "pitch": 83, "duration": 129, "velocity": 122}, {"time": 237618, "pitch": 80, "duration": 150, "velocity": 127}, {"time": 237618, "pitch": 92, "duration": 150, "velocity": 127}, {"time": 237628, "pitch": 47, "duration": 259, "velocity": 122}, {"time": 237778, "pitch": 71, "duration": 149, "velocity": 108}, {"time": 237778, "pitch": 83, "duration": 149, "velocity": 108}, {"time": 237937, "pitch": 78, "duration": 199, "velocity": 111}, {"time": 237937, "pitch": 90, "duration": 199, "velocity": 111}, {"time": 237947, "pitch": 42, "duration": 179, "velocity": 122}, {"time": 238097, "pitch": 80, "duration": 229, "velocity": 122}, {"time": 238097, "pitch": 92, "duration": 229, "velocity": 122}, {"time": 238116, "pitch": 35, "duration": 250, "velocity": 121}, {"time": 238425, "pitch": 65, "duration": 171, "velocity": 127}, {"time": 238425, "pitch": 85, "duration": 171, "velocity": 127}, {"time": 238425, "pitch": 97, "duration": 171, "velocity": 127}, {"time": 238435, "pitch": 37, "duration": 467, "velocity": 120}, {"time": 238435, "pitch": 59, "duration": 161, "velocity": 105}, {"time": 238435, "pitch": 70, "duration": 161, "velocity": 127}, {"time": 525, "pitch": 44, "duration": 209, "velocity": 127}, {"time": 1312, "pitch": 32, "duration": 249, "velocity": 127}, {"time": 2279, "pitch": 44, "duration": 159, "velocity": 122}, {"time": 2438, "pitch": 32, "duration": 289, "velocity": 108}, {"time": 2737, "pitch": 44, "duration": 180, "velocity": 118}, {"time": 2907, "pitch": 34, "duration": 309, "velocity": 114}, {"time": 3236, "pitch": 46, "duration": 180, "velocity": 118}, {"time": 3386, "pitch": 35, "duration": 316, "velocity": 105}, {"time": 3712, "pitch": 47, "duration": 153, "velocity": 111}, {"time": 3875, "pitch": 36, "duration": 239, "velocity": 123}, {"time": 4194, "pitch": 35, "duration": 79, "velocity": 91}, {"time": 4194, "pitch": 37, "duration": 488, "velocity": 127}, {"time": 4672, "pitch": 49, "duration": 209, "velocity": 97}, {"time": 4831, "pitch": 39, "duration": 290, "velocity": 105}, {"time": 5320, "pitch": 41, "duration": 219, "velocity": 122}, {"time": 6107, "pitch": 41, "duration": 639, "velocity": 127}, {"time": 6746, "pitch": 42, "duration": 255, "velocity": 105}, {"time": 7235, "pitch": 44, "duration": 239, "velocity": 118}, {"time": 8032, "pitch": 44, "duration": 628, "velocity": 111}, {"time": 8680, "pitch": 47, "duration": 259, "velocity": 122}, {"time": 9158, "pitch": 49, "duration": 210, "velocity": 111}, {"time": 10106, "pitch": 37, "duration": 224, "velocity": 127}, {"time": 10924, "pitch": 37, "duration": 219, "velocity": 127}, {"time": 11870, "pitch": 37, "duration": 469, "velocity": 127}, {"time": 12349, "pitch": 49, "duration": 149, "velocity": 97}, {"time": 12508, "pitch": 39, "duration": 279, "velocity": 111}, {"time": 12997, "pitch": 41, "duration": 229, "velocity": 127}, {"time": 13802, "pitch": 41, "duration": 641, "velocity": 127}, {"time": 14443, "pitch": 42, "duration": 249, "velocity": 105}, {"time": 14911, "pitch": 44, "duration": 190, "velocity": 127}, {"time": 15709, "pitch": 32, "duration": 448, "velocity": 122}, {"time": 16187, "pitch": 44, "duration": 140, "velocity": 100}, {"time": 16357, "pitch": 32, "duration": 249, "velocity": 105}, {"time": 16826, "pitch": 32, "duration": 245, "velocity": 111}, {"time": 17325, "pitch": 34, "duration": 259, "velocity": 114}, {"time": 17803, "pitch": 35, "duration": 738, "velocity": 118}, {"time": 18590, "pitch": 36, "duration": 110, "velocity": 127}, {"time": 18750, "pitch": 36, "duration": 30, "velocity": 63}, {"time": 18760, "pitch": 48, "duration": 189, "velocity": 127}, {"time": 19069, "pitch": 44, "duration": 159, "velocity": 114}, {"time": 19228, "pitch": 39, "duration": 239, "velocity": 118}, {"time": 19557, "pitch": 37, "duration": 528, "velocity": 122}, {"time": 20026, "pitch": 49, "duration": 149, "velocity": 122}, {"time": 20186, "pitch": 39, "duration": 357, "velocity": 122}, {"time": 20675, "pitch": 41, "duration": 209, "velocity": 127}, {"time": 21472, "pitch": 30, "duration": 518, "velocity": 118}, {"time": 21950, "pitch": 42, "duration": 150, "velocity": 127}, {"time": 22110, "pitch": 32, "duration": 309, "velocity": 127}, {"time": 22598, "pitch": 34, "duration": 249, "velocity": 122}, {"time": 23396, "pitch": 35, "duration": 507, "velocity": 127}, {"time": 23872, "pitch": 47, "duration": 133, "velocity": 127}, {"time": 24045, "pitch": 36, "duration": 279, "velocity": 127}, {"time": 24523, "pitch": 37, "duration": 289, "velocity": 122}, {"time": 25480, "pitch": 37, "duration": 239, "velocity": 114}, {"time": 25799, "pitch": 44, "duration": 169, "velocity": 100}, {"time": 25948, "pitch": 46, "duration": 319, "velocity": 105}, {"time": 26267, "pitch": 44, "duration": 170, "velocity": 95}, {"time": 26437, "pitch": 49, "duration": 299, "velocity": 118}, {"time": 26746, "pitch": 47, "duration": 190, "velocity": 93}, {"time": 26916, "pitch": 46, "duration": 296, "velocity": 111}, {"time": 27069, "pitch": 44, "duration": 425, "velocity": 118}, {"time": 27714, "pitch": 44, "duration": 149, "velocity": 93}, {"time": 27883, "pitch": 32, "duration": 299, "velocity": 114}, {"time": 28351, "pitch": 34, "duration": 260, "velocity": 114}, {"time": 28840, "pitch": 35, "duration": 239, "velocity": 118}, {"time": 29318, "pitch": 36, "duration": 200, "velocity": 127}, {"time": 29787, "pitch": 37, "duration": 219, "velocity": 114}, {"time": 30276, "pitch": 38, "duration": 788, "velocity": 127}, {"time": 31074, "pitch": 39, "duration": 249, "velocity": 122}, {"time": 33466, "pitch": 44, "duration": 170, "velocity": 105}, {"time": 33636, "pitch": 46, "duration": 265, "velocity": 118}, {"time": 33962, "pitch": 56, "duration": 202, "velocity": 111}, {"time": 34115, "pitch": 52, "duration": 319, "velocity": 88}, {"time": 34434, "pitch": 49, "duration": 209, "velocity": 114}, {"time": 34603, "pitch": 46, "duration": 299, "velocity": 118}, {"time": 35390, "pitch": 49, "duration": 150, "velocity": 108}, {"time": 35560, "pitch": 37, "duration": 209, "velocity": 108}, {"time": 36028, "pitch": 41, "duration": 230, "velocity": 122}, {"time": 36517, "pitch": 44, "duration": 179, "velocity": 114}, {"time": 36996, "pitch": 44, "duration": 827, "velocity": 122}, {"time": 37794, "pitch": 56, "duration": 219, "velocity": 122}, {"time": 38750, "pitch": 37, "duration": 688, "velocity": 127}, {"time": 39388, "pitch": 41, "duration": 230, "velocity": 108}, {"time": 39877, "pitch": 44, "duration": 219, "velocity": 127}, {"time": 40682, "pitch": 44, "duration": 691, "velocity": 127}, {"time": 41313, "pitch": 39, "duration": 229, "velocity": 114}, {"time": 41791, "pitch": 44, "duration": 240, "velocity": 127}, {"time": 42280, "pitch": 46, "duration": 329, "velocity": 114}, {"time": 42748, "pitch": 42, "duration": 738, "velocity": 127}, {"time": 43556, "pitch": 54, "duration": 160, "velocity": 122}, {"time": 44042, "pitch": 42, "duration": 62, "velocity": 78}, {"time": 44195, "pitch": 46, "duration": 259, "velocity": 118}, {"time": 44683, "pitch": 49, "duration": 787, "velocity": 127}, {"time": 45470, "pitch": 49, "duration": 220, "velocity": 118}, {"time": 46427, "pitch": 44, "duration": 131, "velocity": 127}, {"time": 47066, "pitch": 44, "duration": 40, "velocity": 123}, {"time": 47555, "pitch": 44, "duration": 1255, "velocity": 127}, {"time": 48830, "pitch": 49, "duration": 160, "velocity": 122}, {"time": 49309, "pitch": 44, "duration": 99, "velocity": 84}, {"time": 49468, "pitch": 44, "duration": 319, "velocity": 118}, {"time": 49797, "pitch": 48, "duration": 180, "velocity": 87}, {"time": 49957, "pitch": 49, "duration": 259, "velocity": 118}, {"time": 50266, "pitch": 49, "duration": 200, "velocity": 111}, {"time": 50426, "pitch": 42, "duration": 748, "velocity": 127}, {"time": 51244, "pitch": 54, "duration": 159, "velocity": 122}, {"time": 51722, "pitch": 42, "duration": 60, "velocity": 78}, {"time": 51871, "pitch": 46, "duration": 260, "velocity": 118}, {"time": 52360, "pitch": 49, "duration": 239, "velocity": 127}, {"time": 53147, "pitch": 51, "duration": 720, "velocity": 118}, {"time": 53786, "pitch": 46, "duration": 326, "velocity": 111}, {"time": 54112, "pitch": 49, "duration": 153, "velocity": 82}, {"time": 54285, "pitch": 42, "duration": 787, "velocity": 122}, {"time": 55072, "pitch": 54, "duration": 159, "velocity": 108}, {"time": 56029, "pitch": 34, "duration": 89, "velocity": 97}, {"time": 56188, "pitch": 37, "duration": 249, "velocity": 118}, {"time": 56677, "pitch": 39, "duration": 189, "velocity": 122}, {"time": 57146, "pitch": 40, "duration": 255, "velocity": 127}, {"time": 57645, "pitch": 39, "duration": 458, "velocity": 122}, {"time": 58113, "pitch": 42, "duration": 738, "velocity": 127}, {"time": 58920, "pitch": 54, "duration": 160, "velocity": 122}, {"time": 59399, "pitch": 42, "duration": 60, "velocity": 78}, {"time": 59548, "pitch": 46, "duration": 259, "velocity": 118}, {"time": 60037, "pitch": 49, "duration": 239, "velocity": 127}, {"time": 60832, "pitch": 51, "duration": 721, "velocity": 118}, {"time": 61473, "pitch": 46, "duration": 319, "velocity": 111}, {"time": 61792, "pitch": 49, "duration": 149, "velocity": 82}, {"time": 61961, "pitch": 42, "duration": 788, "velocity": 122}, {"time": 62749, "pitch": 54, "duration": 159, "velocity": 108}, {"time": 63706, "pitch": 34, "duration": 89, "velocity": 97}, {"time": 63866, "pitch": 37, "duration": 255, "velocity": 118}, {"time": 64365, "pitch": 39, "duration": 189, "velocity": 122}, {"time": 64833, "pitch": 40, "duration": 249, "velocity": 127}, {"time": 65321, "pitch": 39, "duration": 459, "velocity": 122}, {"time": 66109, "pitch": 49, "duration": 199, "velocity": 102}, {"time": 66268, "pitch": 37, "duration": 249, "velocity": 102}, {"time": 66757, "pitch": 41, "duration": 249, "velocity": 122}, {"time": 67226, "pitch": 44, "duration": 224, "velocity": 114}, {"time": 67715, "pitch": 46, "duration": 857, "velocity": 127}, {"time": 68512, "pitch": 49, "duration": 209, "velocity": 118}, {"time": 69479, "pitch": 39, "duration": 658, "velocity": 127}, {"time": 70107, "pitch": 34, "duration": 209, "velocity": 127}, {"time": 70586, "pitch": 39, "duration": 798, "velocity": 127}, {"time": 71872, "pitch": 44, "duration": 130, "velocity": 95}, {"time": 72031, "pitch": 39, "duration": 220, "velocity": 114}, {"time": 72510, "pitch": 44, "duration": 329, "velocity": 122}, {"time": 72839, "pitch": 46, "duration": 159, "velocity": 100}, {"time": 72988, "pitch": 48, "duration": 309, "velocity": 102}, {"time": 73307, "pitch": 49, "duration": 180, "velocity": 118}, {"time": 73946, "pitch": 37, "duration": 489, "velocity": 127}, {"time": 74923, "pitch": 37, "duration": 439, "velocity": 127}, {"time": 75710, "pitch": 48, "duration": 170, "velocity": 111}, {"time": 75880, "pitch": 41, "duration": 349, "velocity": 102}, {"time": 76348, "pitch": 44, "duration": 269, "velocity": 118}, {"time": 76837, "pitch": 48, "duration": 348, "velocity": 122}, {"time": 77156, "pitch": 44, "duration": 119, "velocity": 95}, {"time": 77795, "pitch": 44, "duration": 628, "velocity": 127}, {"time": 78751, "pitch": 44, "duration": 279, "velocity": 122}, {"time": 79200, "pitch": 37, "duration": 279, "velocity": 122}, {"time": 79549, "pitch": 44, "duration": 169, "velocity": 105}, {"time": 79718, "pitch": 46, "duration": 259, "velocity": 118}, {"time": 80037, "pitch": 56, "duration": 199, "velocity": 111}, {"time": 80187, "pitch": 52, "duration": 319, "velocity": 88}, {"time": 80506, "pitch": 49, "duration": 211, "velocity": 114}, {"time": 80676, "pitch": 46, "duration": 306, "velocity": 118}, {"time": 81165, "pitch": 44, "duration": 209, "velocity": 127}, {"time": 81952, "pitch": 32, "duration": 249, "velocity": 127}, {"time": 82919, "pitch": 44, "duration": 159, "velocity": 122}, {"time": 83078, "pitch": 32, "duration": 289, "velocity": 108}, {"time": 83377, "pitch": 44, "duration": 180, "velocity": 118}, {"time": 83547, "pitch": 34, "duration": 309, "velocity": 114}, {"time": 83876, "pitch": 46, "duration": 180, "velocity": 118}, {"time": 84026, "pitch": 35, "duration": 316, "velocity": 105}, {"time": 84352, "pitch": 47, "duration": 153, "velocity": 111}, {"time": 84515, "pitch": 36, "duration": 239, "velocity": 123}, {"time": 84834, "pitch": 35, "duration": 79, "velocity": 91}, {"time": 84834, "pitch": 37, "duration": 488, "velocity": 127}, {"time": 85312, "pitch": 49, "duration": 149, "velocity": 108}, {"time": 85481, "pitch": 37, "duration": 210, "velocity": 108}, {"time": 85950, "pitch": 41, "duration": 229, "velocity": 122}, {"time": 86438, "pitch": 44, "duration": 180, "velocity": 114}, {"time": 86917, "pitch": 44, "duration": 826, "velocity": 122}, {"time": 87712, "pitch": 56, "duration": 222, "velocity": 122}, {"time": 88672, "pitch": 37, "duration": 688, "velocity": 127}, {"time": 89310, "pitch": 41, "duration": 229, "velocity": 108}, {"time": 89798, "pitch": 44, "duration": 219, "velocity": 127}, {"time": 90596, "pitch": 44, "duration": 698, "velocity": 127}, {"time": 91235, "pitch": 39, "duration": 229, "velocity": 114}, {"time": 91713, "pitch": 44, "duration": 239, "velocity": 127}, {"time": 92201, "pitch": 46, "duration": 329, "velocity": 114}, {"time": 92670, "pitch": 42, "duration": 737, "velocity": 127}, {"time": 93477, "pitch": 54, "duration": 160, "velocity": 122}, {"time": 93956, "pitch": 42, "duration": 59, "velocity": 78}, {"time": 94106, "pitch": 46, "duration": 265, "velocity": 118}, {"time": 94605, "pitch": 49, "duration": 787, "velocity": 127}, {"time": 95392, "pitch": 49, "duration": 219, "velocity": 118}, {"time": 96349, "pitch": 44, "duration": 130, "velocity": 127}, {"time": 96987, "pitch": 44, "duration": 39, "velocity": 123}, {"time": 97466, "pitch": 44, "duration": 1266, "velocity": 127}, {"time": 98752, "pitch": 49, "duration": 159, "velocity": 122}, {"time": 99230, "pitch": 44, "duration": 100, "velocity": 84}, {"time": 99390, "pitch": 44, "duration": 319, "velocity": 118}, {"time": 99719, "pitch": 48, "duration": 179, "velocity": 87}, {"time": 99878, "pitch": 49, "duration": 259, "velocity": 118}, {"time": 100187, "pitch": 49, "duration": 199, "velocity": 111}, {"time": 100347, "pitch": 42, "duration": 744, "velocity": 127}, {"time": 101162, "pitch": 54, "duration": 163, "velocity": 122}, {"time": 101643, "pitch": 42, "duration": 60, "velocity": 78}, {"time": 101793, "pitch": 46, "duration": 259, "velocity": 118}, {"time": 102281, "pitch": 49, "duration": 240, "velocity": 127}, {"time": 103069, "pitch": 51, "duration": 717, "velocity": 118}, {"time": 103707, "pitch": 46, "duration": 319, "velocity": 111}, {"time": 104026, "pitch": 49, "duration": 149, "velocity": 82}, {"time": 104196, "pitch": 42, "duration": 798, "velocity": 122}, {"time": 104994, "pitch": 54, "duration": 159, "velocity": 108}, {"time": 105950, "pitch": 34, "duration": 90, "velocity": 97}, {"time": 106110, "pitch": 37, "duration": 249, "velocity": 118}, {"time": 106598, "pitch": 39, "duration": 190, "velocity": 122}, {"time": 107067, "pitch": 40, "duration": 249, "velocity": 127}, {"time": 107556, "pitch": 39, "duration": 469, "velocity": 122}, {"time": 108035, "pitch": 42, "duration": 737, "velocity": 127}, {"time": 108842, "pitch": 54, "duration": 159, "velocity": 122}, {"time": 109320, "pitch": 42, "duration": 60, "velocity": 78}, {"time": 109470, "pitch": 46, "duration": 259, "velocity": 118}, {"time": 109958, "pitch": 49, "duration": 239, "velocity": 127}, {"time": 110746, "pitch": 51, "duration": 728, "velocity": 118}, {"time": 111395, "pitch": 46, "duration": 319, "velocity": 111}, {"time": 111714, "pitch": 49, "duration": 149, "velocity": 82}, {"time": 111883, "pitch": 42, "duration": 787, "velocity": 122}, {"time": 112670, "pitch": 54, "duration": 160, "velocity": 108}, {"time": 113627, "pitch": 34, "duration": 90, "velocity": 97}, {"time": 113787, "pitch": 37, "duration": 249, "velocity": 118}, {"time": 114276, "pitch": 39, "duration": 194, "velocity": 122}, {"time": 114755, "pitch": 40, "duration": 249, "velocity": 127}, {"time": 115243, "pitch": 39, "duration": 458, "velocity": 122}, {"time": 116030, "pitch": 49, "duration": 200, "velocity": 102}, {"time": 116190, "pitch": 37, "duration": 249, "velocity": 102}, {"time": 116678, "pitch": 41, "duration": 249, "velocity": 122}, {"time": 117147, "pitch": 44, "duration": 219, "velocity": 114}, {"time": 117626, "pitch": 46, "duration": 867, "velocity": 127}, {"time": 118434, "pitch": 49, "duration": 209, "velocity": 118}, {"time": 119400, "pitch": 39, "duration": 658, "velocity": 127}, {"time": 120028, "pitch": 34, "duration": 209, "velocity": 127}, {"time": 120507, "pitch": 39, "duration": 795, "velocity": 127}, {"time": 121793, "pitch": 44, "duration": 130, "velocity": 95}, {"time": 121953, "pitch": 39, "duration": 219, "velocity": 114}, {"time": 122431, "pitch": 44, "duration": 329, "velocity": 122}, {"time": 122760, "pitch": 46, "duration": 160, "velocity": 100}, {"time": 122910, "pitch": 48, "duration": 309, "velocity": 102}, {"time": 123229, "pitch": 49, "duration": 179, "velocity": 118}, {"time": 123867, "pitch": 37, "duration": 479, "velocity": 127}, {"time": 124845, "pitch": 37, "duration": 438, "velocity": 127}, {"time": 125632, "pitch": 48, "duration": 169, "velocity": 111}, {"time": 125801, "pitch": 41, "duration": 349, "velocity": 102}, {"time": 126270, "pitch": 44, "duration": 269, "velocity": 118}, {"time": 126758, "pitch": 48, "duration": 349, "velocity": 122}, {"time": 127077, "pitch": 44, "duration": 120, "velocity": 95}, {"time": 127706, "pitch": 44, "duration": 638, "velocity": 127}, {"time": 128673, "pitch": 44, "duration": 279, "velocity": 122}, {"time": 129121, "pitch": 37, "duration": 280, "velocity": 122}, {"time": 129470, "pitch": 44, "duration": 170, "velocity": 105}, {"time": 129640, "pitch": 46, "duration": 259, "velocity": 118}, {"time": 129959, "pitch": 56, "duration": 199, "velocity": 111}, {"time": 130108, "pitch": 52, "duration": 319, "velocity": 88}, {"time": 130427, "pitch": 49, "duration": 209, "velocity": 114}, {"time": 130597, "pitch": 46, "duration": 299, "velocity": 118}, {"time": 131076, "pitch": 44, "duration": 214, "velocity": 127}, {"time": 131873, "pitch": 32, "duration": 250, "velocity": 127}, {"time": 132840, "pitch": 44, "duration": 160, "velocity": 122}, {"time": 133000, "pitch": 32, "duration": 289, "velocity": 108}, {"time": 133299, "pitch": 44, "duration": 179, "velocity": 118}, {"time": 133468, "pitch": 34, "duration": 309, "velocity": 114}, {"time": 133797, "pitch": 46, "duration": 179, "velocity": 118}, {"time": 133947, "pitch": 35, "duration": 309, "velocity": 105}, {"time": 134266, "pitch": 47, "duration": 149, "velocity": 111}, {"time": 134426, "pitch": 36, "duration": 244, "velocity": 123}, {"time": 134752, "pitch": 35, "duration": 82, "velocity": 91}, {"time": 134752, "pitch": 37, "duration": 491, "velocity": 127}, {"time": 135233, "pitch": 49, "duration": 210, "velocity": 97}, {"time": 135393, "pitch": 39, "duration": 289, "velocity": 105}, {"time": 135881, "pitch": 41, "duration": 220, "velocity": 122}, {"time": 136669, "pitch": 41, "duration": 638, "velocity": 127}, {"time": 137307, "pitch": 42, "duration": 249, "velocity": 105}, {"time": 137786, "pitch": 44, "duration": 244, "velocity": 118}, {"time": 138593, "pitch": 44, "duration": 628, "velocity": 111}, {"time": 139241, "pitch": 47, "duration": 259, "velocity": 122}, {"time": 139720, "pitch": 49, "duration": 209, "velocity": 111}, {"time": 140667, "pitch": 37, "duration": 219, "velocity": 127}, {"time": 141482, "pitch": 37, "duration": 222, "velocity": 127}, {"time": 142432, "pitch": 37, "duration": 468, "velocity": 127}, {"time": 142910, "pitch": 49, "duration": 150, "velocity": 97}, {"time": 143070, "pitch": 39, "duration": 279, "velocity": 111}, {"time": 143558, "pitch": 41, "duration": 229, "velocity": 127}, {"time": 144355, "pitch": 41, "duration": 650, "velocity": 127}, {"time": 145005, "pitch": 42, "duration": 249, "velocity": 105}, {"time": 145473, "pitch": 44, "duration": 189, "velocity": 127}, {"time": 146270, "pitch": 32, "duration": 449, "velocity": 122}, {"time": 146749, "pitch": 44, "duration": 139, "velocity": 100}, {"time": 146918, "pitch": 32, "duration": 249, "velocity": 105}, {"time": 147387, "pitch": 32, "duration": 239, "velocity": 111}, {"time": 147876, "pitch": 34, "duration": 265, "velocity": 114}, {"time": 148365, "pitch": 35, "duration": 737, "velocity": 118}, {"time": 149152, "pitch": 36, "duration": 110, "velocity": 127}, {"time": 149311, "pitch": 36, "duration": 30, "velocity": 63}, {"time": 149321, "pitch": 48, "duration": 190, "velocity": 127}, {"time": 149630, "pitch": 44, "duration": 160, "velocity": 114}, {"time": 149790, "pitch": 39, "duration": 239, "velocity": 118}, {"time": 150119, "pitch": 37, "duration": 528, "velocity": 122}, {"time": 150587, "pitch": 49, "duration": 150, "velocity": 122}, {"time": 150747, "pitch": 39, "duration": 348, "velocity": 122}, {"time": 151226, "pitch": 41, "duration": 214, "velocity": 127}, {"time": 152033, "pitch": 30, "duration": 519, "velocity": 118}, {"time": 152512, "pitch": 42, "duration": 149, "velocity": 127}, {"time": 152671, "pitch": 32, "duration": 309, "velocity": 127}, {"time": 153160, "pitch": 34, "duration": 249, "velocity": 122}, {"time": 153957, "pitch": 35, "duration": 498, "velocity": 127}, {"time": 154425, "pitch": 47, "duration": 130, "velocity": 127}, {"time": 154596, "pitch": 36, "duration": 285, "velocity": 127}, {"time": 155084, "pitch": 37, "duration": 290, "velocity": 122}, {"time": 156041, "pitch": 37, "duration": 240, "velocity": 114}, {"time": 156360, "pitch": 44, "duration": 170, "velocity": 100}, {"time": 156510, "pitch": 46, "duration": 319, "velocity": 105}, {"time": 156829, "pitch": 44, "duration": 169, "velocity": 95}, {"time": 156998, "pitch": 49, "duration": 299, "velocity": 118}, {"time": 157307, "pitch": 47, "duration": 189, "velocity": 93}, {"time": 157477, "pitch": 46, "duration": 289, "velocity": 111}, {"time": 157626, "pitch": 44, "duration": 422, "velocity": 118}, {"time": 158272, "pitch": 44, "duration": 153, "velocity": 93}, {"time": 158444, "pitch": 32, "duration": 299, "velocity": 114}, {"time": 158913, "pitch": 34, "duration": 259, "velocity": 114}, {"time": 159401, "pitch": 35, "duration": 240, "velocity": 118}, {"time": 159880, "pitch": 36, "duration": 199, "velocity": 127}, {"time": 160348, "pitch": 37, "duration": 219, "velocity": 114}, {"time": 160837, "pitch": 38, "duration": 785, "velocity": 127}, {"time": 161632, "pitch": 39, "duration": 252, "velocity": 122}, {"time": 164027, "pitch": 44, "duration": 170, "velocity": 105}, {"time": 164197, "pitch": 46, "duration": 259, "velocity": 118}, {"time": 164515, "pitch": 56, "duration": 202, "velocity": 111}, {"time": 164666, "pitch": 52, "duration": 326, "velocity": 88}, {"time": 164992, "pitch": 49, "duration": 212, "velocity": 114}, {"time": 165164, "pitch": 46, "duration": 299, "velocity": 118}, {"time": 165952, "pitch": 49, "duration": 149, "velocity": 108}, {"time": 166121, "pitch": 37, "duration": 210, "velocity": 108}, {"time": 166590, "pitch": 41, "duration": 229, "velocity": 122}, {"time": 167078, "pitch": 44, "duration": 180, "velocity": 114}, {"time": 167557, "pitch": 44, "duration": 826, "velocity": 122}, {"time": 168352, "pitch": 56, "duration": 222, "velocity": 122}, {"time": 169312, "pitch": 37, "duration": 688, "velocity": 127}, {"time": 169950, "pitch": 41, "duration": 229, "velocity": 108}, {"time": 170438, "pitch": 44, "duration": 219, "velocity": 127}, {"time": 171235, "pitch": 44, "duration": 699, "velocity": 127}, {"time": 171875, "pitch": 39, "duration": 229, "velocity": 114}, {"time": 172353, "pitch": 44, "duration": 239, "velocity": 127}, {"time": 172841, "pitch": 46, "duration": 329, "velocity": 114}, {"time": 173310, "pitch": 42, "duration": 737, "velocity": 127}, {"time": 174117, "pitch": 54, "duration": 160, "velocity": 122}, {"time": 174595, "pitch": 42, "duration": 60, "velocity": 78}, {"time": 174746, "pitch": 46, "duration": 265, "velocity": 118}, {"time": 175244, "pitch": 49, "duration": 788, "velocity": 127}, {"time": 176032, "pitch": 49, "duration": 219, "velocity": 118}, {"time": 176989, "pitch": 44, "duration": 130, "velocity": 127}, {"time": 177627, "pitch": 44, "duration": 39, "velocity": 123}, {"time": 178106, "pitch": 44, "duration": 1266, "velocity": 127}, {"time": 179392, "pitch": 49, "duration": 159, "velocity": 122}, {"time": 179870, "pitch": 44, "duration": 100, "velocity": 84}, {"time": 180030, "pitch": 44, "duration": 319, "velocity": 118}, {"time": 180359, "pitch": 48, "duration": 179, "velocity": 87}, {"time": 180518, "pitch": 49, "duration": 259, "velocity": 118}, {"time": 180827, "pitch": 49, "duration": 199, "velocity": 111}, {"time": 180987, "pitch": 42, "duration": 744, "velocity": 127}, {"time": 181802, "pitch": 54, "duration": 162, "velocity": 122}, {"time": 182283, "pitch": 42, "duration": 60, "velocity": 78}, {"time": 182433, "pitch": 46, "duration": 259, "velocity": 118}, {"time": 182921, "pitch": 49, "duration": 239, "velocity": 127}, {"time": 183709, "pitch": 51, "duration": 717, "velocity": 118}, {"time": 184347, "pitch": 46, "duration": 318, "velocity": 111}, {"time": 184665, "pitch": 49, "duration": 150, "velocity": 82}, {"time": 184836, "pitch": 42, "duration": 797, "velocity": 122}, {"time": 185633, "pitch": 54, "duration": 160, "velocity": 108}, {"time": 186590, "pitch": 34, "duration": 90, "velocity": 97}, {"time": 186750, "pitch": 37, "duration": 249, "velocity": 118}, {"time": 187238, "pitch": 39, "duration": 189, "velocity": 122}, {"time": 187707, "pitch": 40, "duration": 249, "velocity": 127}, {"time": 188196, "pitch": 39, "duration": 469, "velocity": 122}, {"time": 188674, "pitch": 42, "duration": 738, "velocity": 127}, {"time": 189482, "pitch": 54, "duration": 159, "velocity": 122}, {"time": 189960, "pitch": 42, "duration": 60, "velocity": 78}, {"time": 190110, "pitch": 46, "duration": 259, "velocity": 118}, {"time": 190598, "pitch": 49, "duration": 239, "velocity": 127}, {"time": 191385, "pitch": 51, "duration": 729, "velocity": 118}, {"time": 192034, "pitch": 46, "duration": 319, "velocity": 111}, {"time": 192353, "pitch": 49, "duration": 150, "velocity": 82}, {"time": 192523, "pitch": 42, "duration": 787, "velocity": 122}, {"time": 193310, "pitch": 54, "duration": 160, "velocity": 108}, {"time": 194267, "pitch": 34, "duration": 90, "velocity": 97}, {"time": 194427, "pitch": 37, "duration": 249, "velocity": 118}, {"time": 194916, "pitch": 39, "duration": 194, "velocity": 122}, {"time": 195394, "pitch": 40, "duration": 250, "velocity": 127}, {"time": 195883, "pitch": 39, "duration": 458, "velocity": 122}, {"time": 196670, "pitch": 49, "duration": 200, "velocity": 102}, {"time": 196830, "pitch": 37, "duration": 249, "velocity": 102}, {"time": 197318, "pitch": 41, "duration": 249, "velocity": 122}, {"time": 197787, "pitch": 44, "duration": 219, "velocity": 114}, {"time": 198266, "pitch": 46, "duration": 867, "velocity": 127}, {"time": 199073, "pitch": 49, "duration": 210, "velocity": 118}, {"time": 200040, "pitch": 39, "duration": 658, "velocity": 127}, {"time": 200668, "pitch": 34, "duration": 209, "velocity": 127}, {"time": 201147, "pitch": 39, "duration": 795, "velocity": 127}, {"time": 202433, "pitch": 44, "duration": 130, "velocity": 95}, {"time": 202593, "pitch": 39, "duration": 219, "velocity": 114}, {"time": 203071, "pitch": 44, "duration": 329, "velocity": 122}, {"time": 203400, "pitch": 46, "duration": 160, "velocity": 100}, {"time": 203550, "pitch": 48, "duration": 309, "velocity": 102}, {"time": 203869, "pitch": 49, "duration": 179, "velocity": 118}, {"time": 204507, "pitch": 37, "duration": 479, "velocity": 127}, {"time": 205484, "pitch": 37, "duration": 439, "velocity": 127}, {"time": 206272, "pitch": 48, "duration": 169, "velocity": 111}, {"time": 206441, "pitch": 41, "duration": 349, "velocity": 102}, {"time": 206910, "pitch": 44, "duration": 269, "velocity": 118}, {"time": 207398, "pitch": 48, "duration": 349, "velocity": 122}, {"time": 207717, "pitch": 44, "duration": 120, "velocity": 95}, {"time": 208346, "pitch": 44, "duration": 638, "velocity": 127}, {"time": 209313, "pitch": 44, "duration": 279, "velocity": 122}, {"time": 209761, "pitch": 37, "duration": 279, "velocity": 122}, {"time": 210110, "pitch": 44, "duration": 170, "velocity": 105}, {"time": 210280, "pitch": 46, "duration": 259, "velocity": 118}, {"time": 210599, "pitch": 56, "duration": 199, "velocity": 111}, {"time": 210748, "pitch": 52, "duration": 319, "velocity": 88}, {"time": 211067, "pitch": 49, "duration": 209, "velocity": 114}, {"time": 211236, "pitch": 46, "duration": 299, "velocity": 118}, {"time": 212032, "pitch": 49, "duration": 153, "velocity": 97}, {"time": 212194, "pitch": 37, "duration": 240, "velocity": 105}, {"time": 212683, "pitch": 41, "duration": 199, "velocity": 127}, {"time": 213161, "pitch": 44, "duration": 180, "velocity": 122}, {"time": 213949, "pitch": 48, "duration": 169, "velocity": 111}, {"time": 214118, "pitch": 41, "duration": 349, "velocity": 102}, {"time": 214586, "pitch": 44, "duration": 270, "velocity": 118}, {"time": 215076, "pitch": 48, "duration": 357, "velocity": 122}, {"time": 215402, "pitch": 44, "duration": 123, "velocity": 95}, {"time": 216043, "pitch": 44, "duration": 219, "velocity": 123}, {"time": 216511, "pitch": 44, "duration": 917, "velocity": 127}, {"time": 217438, "pitch": 37, "duration": 219, "velocity": 123}, {"time": 218425, "pitch": 47, "duration": 266, "velocity": 122}, {"time": 218752, "pitch": 42, "duration": 182, "velocity": 105}, {"time": 218924, "pitch": 35, "duration": 250, "velocity": 114}, {"time": 219243, "pitch": 37, "duration": 459, "velocity": 127}, {"time": 221625, "pitch": 42, "duration": 232, "velocity": 123}, {"time": 221796, "pitch": 44, "duration": 306, "velocity": 123}, {"time": 222122, "pitch": 42, "duration": 202, "velocity": 123}, {"time": 222274, "pitch": 47, "duration": 329, "velocity": 124}, {"time": 222593, "pitch": 54, "duration": 479, "velocity": 124}, {"time": 223082, "pitch": 49, "duration": 139, "velocity": 127}, {"time": 223550, "pitch": 49, "duration": 160, "velocity": 105}, {"time": 223720, "pitch": 37, "duration": 219, "velocity": 111}, {"time": 224188, "pitch": 41, "duration": 219, "velocity": 127}, {"time": 224666, "pitch": 44, "duration": 190, "velocity": 111}, {"time": 225156, "pitch": 46, "duration": 857, "velocity": 122}, {"time": 225953, "pitch": 49, "duration": 200, "velocity": 122}, {"time": 226920, "pitch": 37, "duration": 618, "velocity": 118}, {"time": 227548, "pitch": 39, "duration": 249, "velocity": 108}, {"time": 228026, "pitch": 41, "duration": 220, "velocity": 127}, {"time": 228842, "pitch": 41, "duration": 621, "velocity": 127}, {"time": 229473, "pitch": 42, "duration": 239, "velocity": 122}, {"time": 229961, "pitch": 44, "duration": 200, "velocity": 127}, {"time": 230270, "pitch": 44, "duration": 150, "velocity": 73}, {"time": 230430, "pitch": 46, "duration": 319, "velocity": 108}, {"time": 230749, "pitch": 49, "duration": 149, "velocity": 122}, {"time": 231227, "pitch": 49, "duration": 150, "velocity": 97}, {"time": 231386, "pitch": 37, "duration": 240, "velocity": 105}, {"time": 231876, "pitch": 41, "duration": 204, "velocity": 127}, {"time": 232364, "pitch": 44, "duration": 180, "velocity": 122}, {"time": 232843, "pitch": 46, "duration": 817, "velocity": 118}, {"time": 233630, "pitch": 49, "duration": 150, "velocity": 122}, {"time": 234109, "pitch": 37, "duration": 119, "velocity": 91}, {"time": 234268, "pitch": 44, "duration": 299, "velocity": 122}, {"time": 234587, "pitch": 37, "duration": 700, "velocity": 127}, {"time": 235236, "pitch": 36, "duration": 224, "velocity": 123}, {"time": 235714, "pitch": 35, "duration": 1874, "velocity": 127}, {"time": 237628, "pitch": 47, "duration": 259, "velocity": 122}, {"time": 237947, "pitch": 42, "duration": 179, "velocity": 122}, {"time": 238116, "pitch": 35, "duration": 250, "velocity": 121}, {"time": 238435, "pitch": 37, "duration": 467, "velocity": 120}, {"time": 525, "pitch": 56, "duration": 209, "velocity": 122}, {"time": 1312, "pitch": 44, "duration": 249, "velocity": 122}, {"time": 4194, "pitch": 49, "duration": 488, "velocity": 126}, {"time": 4672, "pitch": 61, "duration": 209, "velocity": 92}, {"time": 4831, "pitch": 51, "duration": 290, "velocity": 100}, {"time": 5320, "pitch": 53, "duration": 219, "velocity": 117}, {"time": 6107, "pitch": 53, "duration": 639, "velocity": 127}, {"time": 6746, "pitch": 54, "duration": 255, "velocity": 100}, {"time": 7235, "pitch": 56, "duration": 239, "velocity": 113}, {"time": 8032, "pitch": 56, "duration": 628, "velocity": 106}, {"time": 8680, "pitch": 59, "duration": 259, "velocity": 117}, {"time": 9158, "pitch": 61, "duration": 210, "velocity": 106}, {"time": 10106, "pitch": 49, "duration": 224, "velocity": 122}, {"time": 10924, "pitch": 49, "duration": 219, "velocity": 126}, {"time": 11870, "pitch": 49, "duration": 469, "velocity": 126}, {"time": 12349, "pitch": 61, "duration": 149, "velocity": 92}, {"time": 12508, "pitch": 51, "duration": 279, "velocity": 106}, {"time": 12997, "pitch": 53, "duration": 229, "velocity": 127}, {"time": 13802, "pitch": 53, "duration": 641, "velocity": 127}, {"time": 14443, "pitch": 54, "duration": 249, "velocity": 100}, {"time": 14911, "pitch": 56, "duration": 190, "velocity": 122}, {"time": 15709, "pitch": 44, "duration": 448, "velocity": 117}, {"time": 16187, "pitch": 56, "duration": 140, "velocity": 95}, {"time": 16357, "pitch": 44, "duration": 249, "velocity": 100}, {"time": 16826, "pitch": 44, "duration": 245, "velocity": 106}, {"time": 17325, "pitch": 46, "duration": 259, "velocity": 109}, {"time": 17803, "pitch": 47, "duration": 738, "velocity": 113}, {"time": 18590, "pitch": 48, "duration": 110, "velocity": 127}, {"time": 18750, "pitch": 48, "duration": 30, "velocity": 58}, {"time": 18760, "pitch": 60, "duration": 189, "velocity": 127}, {"time": 19069, "pitch": 56, "duration": 159, "velocity": 109}, {"time": 19228, "pitch": 51, "duration": 239, "velocity": 113}, {"time": 19557, "pitch": 49, "duration": 528, "velocity": 117}, {"time": 20026, "pitch": 61, "duration": 149, "velocity": 117}, {"time": 20186, "pitch": 51, "duration": 357, "velocity": 117}, {"time": 20675, "pitch": 53, "duration": 209, "velocity": 126}, {"time": 21472, "pitch": 42, "duration": 518, "velocity": 113}, {"time": 21950, "pitch": 54, "duration": 150, "velocity": 122}, {"time": 22110, "pitch": 44, "duration": 309, "velocity": 122}, {"time": 22598, "pitch": 46, "duration": 249, "velocity": 117}, {"time": 23396, "pitch": 47, "duration": 507, "velocity": 126}, {"time": 23872, "pitch": 59, "duration": 133, "velocity": 122}, {"time": 24045, "pitch": 48, "duration": 279, "velocity": 127}, {"time": 24523, "pitch": 49, "duration": 289, "velocity": 117}, {"time": 25480, "pitch": 49, "duration": 239, "velocity": 109}, {"time": 25799, "pitch": 56, "duration": 169, "velocity": 95}, {"time": 25948, "pitch": 58, "duration": 319, "velocity": 100}, {"time": 26267, "pitch": 56, "duration": 170, "velocity": 90}, {"time": 26437, "pitch": 61, "duration": 299, "velocity": 113}, {"time": 26746, "pitch": 59, "duration": 190, "velocity": 88}, {"time": 26916, "pitch": 58, "duration": 296, "velocity": 106}, {"time": 27069, "pitch": 56, "duration": 425, "velocity": 113}, {"time": 27714, "pitch": 56, "duration": 149, "velocity": 88}, {"time": 27883, "pitch": 44, "duration": 299, "velocity": 109}, {"time": 28351, "pitch": 46, "duration": 260, "velocity": 109}, {"time": 28840, "pitch": 47, "duration": 239, "velocity": 113}, {"time": 29318, "pitch": 48, "duration": 200, "velocity": 126}, {"time": 29787, "pitch": 49, "duration": 219, "velocity": 109}, {"time": 30276, "pitch": 50, "duration": 788, "velocity": 127}, {"time": 31074, "pitch": 51, "duration": 249, "velocity": 117}, {"time": 33466, "pitch": 56, "duration": 170, "velocity": 100}, {"time": 33636, "pitch": 58, "duration": 265, "velocity": 113}, {"time": 33962, "pitch": 68, "duration": 202, "velocity": 106}, {"time": 34115, "pitch": 64, "duration": 319, "velocity": 83}, {"time": 34434, "pitch": 61, "duration": 209, "velocity": 109}, {"time": 34603, "pitch": 58, "duration": 299, "velocity": 113}, {"time": 35390, "pitch": 61, "duration": 150, "velocity": 93}, {"time": 35560, "pitch": 49, "duration": 209, "velocity": 93}, {"time": 36028, "pitch": 53, "duration": 230, "velocity": 107}, {"time": 36517, "pitch": 56, "duration": 179, "velocity": 99}, {"time": 36996, "pitch": 56, "duration": 827, "velocity": 107}, {"time": 37794, "pitch": 68, "duration": 219, "velocity": 107}, {"time": 38750, "pitch": 49, "duration": 688, "velocity": 112}, {"time": 39388, "pitch": 53, "duration": 230, "velocity": 93}, {"time": 39877, "pitch": 56, "duration": 219, "velocity": 117}, {"time": 40682, "pitch": 56, "duration": 691, "velocity": 117}, {"time": 41313, "pitch": 51, "duration": 229, "velocity": 99}, {"time": 41791, "pitch": 56, "duration": 240, "velocity": 112}, {"time": 42280, "pitch": 58, "duration": 329, "velocity": 99}, {"time": 42748, "pitch": 54, "duration": 738, "velocity": 112}, {"time": 43556, "pitch": 66, "duration": 160, "velocity": 107}, {"time": 44042, "pitch": 54, "duration": 62, "velocity": 63}, {"time": 44195, "pitch": 58, "duration": 259, "velocity": 103}, {"time": 44683, "pitch": 61, "duration": 787, "velocity": 116}, {"time": 45470, "pitch": 61, "duration": 220, "velocity": 103}, {"time": 46427, "pitch": 56, "duration": 131, "velocity": 112}, {"time": 47066, "pitch": 56, "duration": 40, "velocity": 108}, {"time": 47555, "pitch": 56, "duration": 1255, "velocity": 112}, {"time": 48830, "pitch": 61, "duration": 160, "velocity": 107}, {"time": 49309, "pitch": 56, "duration": 99, "velocity": 69}, {"time": 49468, "pitch": 56, "duration": 319, "velocity": 103}, {"time": 49797, "pitch": 60, "duration": 180, "velocity": 72}, {"time": 49957, "pitch": 61, "duration": 259, "velocity": 103}, {"time": 50266, "pitch": 61, "duration": 200, "velocity": 96}, {"time": 50426, "pitch": 54, "duration": 748, "velocity": 112}, {"time": 51244, "pitch": 66, "duration": 159, "velocity": 107}, {"time": 51722, "pitch": 54, "duration": 60, "velocity": 63}, {"time": 51871, "pitch": 58, "duration": 260, "velocity": 103}, {"time": 52360, "pitch": 61, "duration": 239, "velocity": 112}, {"time": 53147, "pitch": 63, "duration": 720, "velocity": 103}, {"time": 53786, "pitch": 58, "duration": 326, "velocity": 96}, {"time": 54112, "pitch": 61, "duration": 153, "velocity": 67}, {"time": 54285, "pitch": 54, "duration": 787, "velocity": 107}, {"time": 55072, "pitch": 66, "duration": 159, "velocity": 93}, {"time": 56029, "pitch": 46, "duration": 89, "velocity": 82}, {"time": 56188, "pitch": 49, "duration": 249, "velocity": 103}, {"time": 56677, "pitch": 51, "duration": 189, "velocity": 107}, {"time": 57146, "pitch": 52, "duration": 255, "velocity": 117}, {"time": 57645, "pitch": 51, "duration": 458, "velocity": 107}, {"time": 58113, "pitch": 54, "duration": 738, "velocity": 112}, {"time": 58920, "pitch": 66, "duration": 160, "velocity": 107}, {"time": 59399, "pitch": 54, "duration": 60, "velocity": 63}, {"time": 59548, "pitch": 58, "duration": 259, "velocity": 103}, {"time": 60037, "pitch": 61, "duration": 239, "velocity": 112}, {"time": 60832, "pitch": 63, "duration": 721, "velocity": 103}, {"time": 61473, "pitch": 58, "duration": 319, "velocity": 96}, {"time": 61792, "pitch": 61, "duration": 149, "velocity": 67}, {"time": 61961, "pitch": 54, "duration": 788, "velocity": 107}, {"time": 62749, "pitch": 66, "duration": 159, "velocity": 93}, {"time": 63706, "pitch": 46, "duration": 89, "velocity": 82}, {"time": 63866, "pitch": 49, "duration": 255, "velocity": 103}, {"time": 64365, "pitch": 51, "duration": 189, "velocity": 107}, {"time": 64833, "pitch": 52, "duration": 249, "velocity": 117}, {"time": 65321, "pitch": 51, "duration": 459, "velocity": 107}, {"time": 66109, "pitch": 61, "duration": 199, "velocity": 87}, {"time": 66268, "pitch": 49, "duration": 249, "velocity": 87}, {"time": 66757, "pitch": 53, "duration": 249, "velocity": 107}, {"time": 67226, "pitch": 56, "duration": 224, "velocity": 99}, {"time": 67715, "pitch": 58, "duration": 857, "velocity": 112}, {"time": 68512, "pitch": 61, "duration": 209, "velocity": 103}, {"time": 69479, "pitch": 51, "duration": 658, "velocity": 116}, {"time": 70107, "pitch": 46, "duration": 209, "velocity": 116}, {"time": 70586, "pitch": 51, "duration": 798, "velocity": 112}, {"time": 71872, "pitch": 56, "duration": 130, "velocity": 80}, {"time": 72031, "pitch": 51, "duration": 220, "velocity": 99}, {"time": 72510, "pitch": 56, "duration": 329, "velocity": 107}, {"time": 72839, "pitch": 58, "duration": 159, "velocity": 85}, {"time": 72988, "pitch": 60, "duration": 309, "velocity": 87}, {"time": 73307, "pitch": 61, "duration": 180, "velocity": 103}, {"time": 73946, "pitch": 49, "duration": 489, "velocity": 112}, {"time": 74923, "pitch": 49, "duration": 439, "velocity": 116}, {"time": 75710, "pitch": 60, "duration": 170, "velocity": 96}, {"time": 75880, "pitch": 53, "duration": 349, "velocity": 87}, {"time": 76348, "pitch": 56, "duration": 269, "velocity": 103}, {"time": 76837, "pitch": 60, "duration": 348, "velocity": 107}, {"time": 77156, "pitch": 56, "duration": 119, "velocity": 80}, {"time": 77795, "pitch": 44, "duration": 388, "velocity": 112}, {"time": 78751, "pitch": 44, "duration": 279, "velocity": 107}, {"time": 79200, "pitch": 49, "duration": 279, "velocity": 107}, {"time": 79549, "pitch": 56, "duration": 169, "velocity": 90}, {"time": 79718, "pitch": 58, "duration": 259, "velocity": 103}, {"time": 80037, "pitch": 68, "duration": 199, "velocity": 96}, {"time": 80187, "pitch": 64, "duration": 319, "velocity": 73}, {"time": 80506, "pitch": 61, "duration": 211, "velocity": 99}, {"time": 80676, "pitch": 58, "duration": 306, "velocity": 103}, {"time": 81165, "pitch": 56, "duration": 209, "velocity": 112}, {"time": 81952, "pitch": 44, "duration": 249, "velocity": 112}, {"time": 84834, "pitch": 49, "duration": 488, "velocity": 116}, {"time": 85312, "pitch": 61, "duration": 149, "velocity": 93}, {"time": 85481, "pitch": 49, "duration": 210, "velocity": 93}, {"time": 85950, "pitch": 53, "duration": 229, "velocity": 107}, {"time": 86438, "pitch": 56, "duration": 180, "velocity": 99}, {"time": 86917, "pitch": 56, "duration": 826, "velocity": 107}, {"time": 87712, "pitch": 68, "duration": 222, "velocity": 107}, {"time": 88672, "pitch": 49, "duration": 688, "velocity": 112}, {"time": 89310, "pitch": 53, "duration": 229, "velocity": 93}, {"time": 89798, "pitch": 56, "duration": 219, "velocity": 117}, {"time": 90596, "pitch": 56, "duration": 698, "velocity": 117}, {"time": 91235, "pitch": 51, "duration": 229, "velocity": 99}, {"time": 91713, "pitch": 56, "duration": 239, "velocity": 112}, {"time": 92201, "pitch": 58, "duration": 329, "velocity": 99}, {"time": 92670, "pitch": 54, "duration": 737, "velocity": 112}, {"time": 93477, "pitch": 66, "duration": 160, "velocity": 107}, {"time": 93956, "pitch": 54, "duration": 59, "velocity": 63}, {"time": 94106, "pitch": 58, "duration": 265, "velocity": 103}, {"time": 94605, "pitch": 61, "duration": 787, "velocity": 116}, {"time": 95392, "pitch": 61, "duration": 219, "velocity": 103}, {"time": 96349, "pitch": 56, "duration": 130, "velocity": 112}, {"time": 96987, "pitch": 56, "duration": 39, "velocity": 108}, {"time": 97466, "pitch": 56, "duration": 1266, "velocity": 112}, {"time": 98752, "pitch": 61, "duration": 159, "velocity": 107}, {"time": 99230, "pitch": 56, "duration": 100, "velocity": 69}, {"time": 99390, "pitch": 56, "duration": 319, "velocity": 103}, {"time": 99719, "pitch": 60, "duration": 179, "velocity": 72}, {"time": 99878, "pitch": 61, "duration": 259, "velocity": 103}, {"time": 100187, "pitch": 61, "duration": 199, "velocity": 96}, {"time": 100347, "pitch": 54, "duration": 744, "velocity": 112}, {"time": 101162, "pitch": 66, "duration": 163, "velocity": 107}, {"time": 101643, "pitch": 54, "duration": 60, "velocity": 63}, {"time": 101793, "pitch": 58, "duration": 259, "velocity": 103}, {"time": 102281, "pitch": 61, "duration": 240, "velocity": 112}, {"time": 103069, "pitch": 63, "duration": 717, "velocity": 103}, {"time": 103707, "pitch": 58, "duration": 319, "velocity": 96}, {"time": 104026, "pitch": 61, "duration": 149, "velocity": 67}, {"time": 104196, "pitch": 54, "duration": 798, "velocity": 107}, {"time": 104994, "pitch": 66, "duration": 159, "velocity": 93}, {"time": 105950, "pitch": 46, "duration": 90, "velocity": 82}, {"time": 106110, "pitch": 49, "duration": 249, "velocity": 103}, {"time": 106598, "pitch": 51, "duration": 190, "velocity": 107}, {"time": 107067, "pitch": 52, "duration": 249, "velocity": 117}, {"time": 107556, "pitch": 51, "duration": 469, "velocity": 107}, {"time": 108035, "pitch": 54, "duration": 737, "velocity": 112}, {"time": 108842, "pitch": 66, "duration": 159, "velocity": 107}, {"time": 109320, "pitch": 54, "duration": 60, "velocity": 63}, {"time": 109470, "pitch": 58, "duration": 259, "velocity": 103}, {"time": 109958, "pitch": 61, "duration": 239, "velocity": 112}, {"time": 110746, "pitch": 63, "duration": 728, "velocity": 103}, {"time": 111395, "pitch": 58, "duration": 319, "velocity": 96}, {"time": 111714, "pitch": 61, "duration": 149, "velocity": 67}, {"time": 111883, "pitch": 54, "duration": 787, "velocity": 107}, {"time": 112670, "pitch": 66, "duration": 160, "velocity": 93}, {"time": 113627, "pitch": 46, "duration": 90, "velocity": 82}, {"time": 113787, "pitch": 49, "duration": 249, "velocity": 103}, {"time": 114276, "pitch": 51, "duration": 194, "velocity": 107}, {"time": 114755, "pitch": 52, "duration": 249, "velocity": 117}, {"time": 115243, "pitch": 51, "duration": 458, "velocity": 107}, {"time": 116030, "pitch": 61, "duration": 200, "velocity": 87}, {"time": 116190, "pitch": 49, "duration": 249, "velocity": 87}, {"time": 116678, "pitch": 53, "duration": 249, "velocity": 107}, {"time": 117147, "pitch": 56, "duration": 219, "velocity": 99}, {"time": 117626, "pitch": 58, "duration": 867, "velocity": 112}, {"time": 118434, "pitch": 61, "duration": 209, "velocity": 103}, {"time": 119400, "pitch": 51, "duration": 658, "velocity": 116}, {"time": 120028, "pitch": 46, "duration": 209, "velocity": 116}, {"time": 120507, "pitch": 51, "duration": 795, "velocity": 112}, {"time": 121793, "pitch": 56, "duration": 130, "velocity": 80}, {"time": 121953, "pitch": 51, "duration": 219, "velocity": 99}, {"time": 122431, "pitch": 56, "duration": 329, "velocity": 107}, {"time": 122760, "pitch": 58, "duration": 160, "velocity": 85}, {"time": 122910, "pitch": 60, "duration": 309, "velocity": 87}, {"time": 123229, "pitch": 61, "duration": 179, "velocity": 103}, {"time": 123867, "pitch": 49, "duration": 479, "velocity": 112}, {"time": 124845, "pitch": 49, "duration": 438, "velocity": 116}, {"time": 125632, "pitch": 60, "duration": 169, "velocity": 96}, {"time": 125801, "pitch": 53, "duration": 349, "velocity": 87}, {"time": 126270, "pitch": 56, "duration": 269, "velocity": 103}, {"time": 126758, "pitch": 60, "duration": 349, "velocity": 107}, {"time": 127077, "pitch": 56, "duration": 120, "velocity": 80}, {"time": 127706, "pitch": 44, "duration": 398, "velocity": 112}, {"time": 128673, "pitch": 44, "duration": 279, "velocity": 107}, {"time": 129121, "pitch": 49, "duration": 280, "velocity": 107}, {"time": 129470, "pitch": 56, "duration": 170, "velocity": 90}, {"time": 129640, "pitch": 58, "duration": 259, "velocity": 103}, {"time": 129959, "pitch": 68, "duration": 199, "velocity": 96}, {"time": 130108, "pitch": 64, "duration": 319, "velocity": 73}, {"time": 130427, "pitch": 61, "duration": 209, "velocity": 99}, {"time": 130597, "pitch": 58, "duration": 299, "velocity": 103}, {"time": 131076, "pitch": 56, "duration": 214, "velocity": 112}, {"time": 131873, "pitch": 44, "duration": 250, "velocity": 112}, {"time": 134752, "pitch": 49, "duration": 491, "velocity": 126}, {"time": 135233, "pitch": 61, "duration": 210, "velocity": 92}, {"time": 135393, "pitch": 51, "duration": 289, "velocity": 100}, {"time": 135881, "pitch": 53, "duration": 220, "velocity": 117}, {"time": 136669, "pitch": 53, "duration": 638, "velocity": 127}, {"time": 137307, "pitch": 54, "duration": 249, "velocity": 100}, {"time": 137786, "pitch": 56, "duration": 244, "velocity": 113}, {"time": 138593, "pitch": 56, "duration": 628, "velocity": 106}, {"time": 139241, "pitch": 59, "duration": 259, "velocity": 117}, {"time": 139720, "pitch": 61, "duration": 209, "velocity": 106}, {"time": 140667, "pitch": 49, "duration": 219, "velocity": 122}, {"time": 141482, "pitch": 49, "duration": 222, "velocity": 126}, {"time": 142432, "pitch": 49, "duration": 468, "velocity": 126}, {"time": 142910, "pitch": 61, "duration": 150, "velocity": 92}, {"time": 143070, "pitch": 51, "duration": 279, "velocity": 106}, {"time": 143558, "pitch": 53, "duration": 229, "velocity": 127}, {"time": 144355, "pitch": 53, "duration": 650, "velocity": 127}, {"time": 145005, "pitch": 54, "duration": 249, "velocity": 100}, {"time": 145473, "pitch": 56, "duration": 189, "velocity": 122}, {"time": 146270, "pitch": 44, "duration": 449, "velocity": 117}, {"time": 146749, "pitch": 56, "duration": 139, "velocity": 95}, {"time": 146918, "pitch": 44, "duration": 249, "velocity": 100}, {"time": 147387, "pitch": 44, "duration": 239, "velocity": 106}, {"time": 147876, "pitch": 46, "duration": 265, "velocity": 109}, {"time": 148365, "pitch": 47, "duration": 737, "velocity": 113}, {"time": 149152, "pitch": 48, "duration": 110, "velocity": 127}, {"time": 149311, "pitch": 48, "duration": 30, "velocity": 58}, {"time": 149321, "pitch": 60, "duration": 190, "velocity": 127}, {"time": 149630, "pitch": 56, "duration": 160, "velocity": 109}, {"time": 149790, "pitch": 51, "duration": 239, "velocity": 113}, {"time": 150119, "pitch": 49, "duration": 528, "velocity": 117}, {"time": 150587, "pitch": 61, "duration": 150, "velocity": 117}, {"time": 150747, "pitch": 51, "duration": 348, "velocity": 117}, {"time": 151226, "pitch": 53, "duration": 214, "velocity": 126}, {"time": 152033, "pitch": 42, "duration": 519, "velocity": 113}, {"time": 152512, "pitch": 54, "duration": 149, "velocity": 122}, {"time": 152671, "pitch": 44, "duration": 309, "velocity": 122}, {"time": 153160, "pitch": 46, "duration": 249, "velocity": 117}, {"time": 153957, "pitch": 47, "duration": 498, "velocity": 126}, {"time": 154425, "pitch": 59, "duration": 130, "velocity": 122}, {"time": 154596, "pitch": 48, "duration": 285, "velocity": 127}, {"time": 155084, "pitch": 49, "duration": 290, "velocity": 117}, {"time": 156041, "pitch": 49, "duration": 240, "velocity": 109}, {"time": 156360, "pitch": 56, "duration": 170, "velocity": 95}, {"time": 156510, "pitch": 58, "duration": 319, "velocity": 100}, {"time": 156829, "pitch": 56, "duration": 169, "velocity": 90}, {"time": 156998, "pitch": 61, "duration": 299, "velocity": 113}, {"time": 157307, "pitch": 59, "duration": 189, "velocity": 88}, {"time": 157477, "pitch": 58, "duration": 289, "velocity": 106}, {"time": 157626, "pitch": 56, "duration": 422, "velocity": 113}, {"time": 158272, "pitch": 56, "duration": 153, "velocity": 88}, {"time": 158444, "pitch": 44, "duration": 299, "velocity": 109}, {"time": 158913, "pitch": 46, "duration": 259, "velocity": 109}, {"time": 159401, "pitch": 47, "duration": 240, "velocity": 113}, {"time": 159880, "pitch": 48, "duration": 199, "velocity": 126}, {"time": 160348, "pitch": 49, "duration": 219, "velocity": 109}, {"time": 160837, "pitch": 50, "duration": 785, "velocity": 127}, {"time": 161632, "pitch": 51, "duration": 252, "velocity": 117}, {"time": 164027, "pitch": 56, "duration": 170, "velocity": 100}, {"time": 164197, "pitch": 58, "duration": 259, "velocity": 113}, {"time": 164515, "pitch": 68, "duration": 202, "velocity": 106}, {"time": 164666, "pitch": 64, "duration": 326, "velocity": 83}, {"time": 164992, "pitch": 61, "duration": 212, "velocity": 109}, {"time": 165164, "pitch": 58, "duration": 299, "velocity": 113}, {"time": 165952, "pitch": 61, "duration": 149, "velocity": 93}, {"time": 166121, "pitch": 49, "duration": 210, "velocity": 93}, {"time": 166590, "pitch": 53, "duration": 229, "velocity": 107}, {"time": 167078, "pitch": 56, "duration": 180, "velocity": 99}, {"time": 167557, "pitch": 56, "duration": 826, "velocity": 107}, {"time": 168352, "pitch": 68, "duration": 222, "velocity": 107}, {"time": 169312, "pitch": 49, "duration": 688, "velocity": 112}, {"time": 169950, "pitch": 53, "duration": 229, "velocity": 93}, {"time": 170438, "pitch": 56, "duration": 219, "velocity": 117}, {"time": 171235, "pitch": 56, "duration": 699, "velocity": 117}, {"time": 171875, "pitch": 51, "duration": 229, "velocity": 99}, {"time": 172353, "pitch": 56, "duration": 239, "velocity": 112}, {"time": 172841, "pitch": 58, "duration": 329, "velocity": 99}, {"time": 173310, "pitch": 54, "duration": 737, "velocity": 112}, {"time": 174117, "pitch": 66, "duration": 160, "velocity": 107}, {"time": 174595, "pitch": 54, "duration": 60, "velocity": 63}, {"time": 174746, "pitch": 58, "duration": 265, "velocity": 103}, {"time": 175244, "pitch": 61, "duration": 788, "velocity": 116}, {"time": 176032, "pitch": 61, "duration": 219, "velocity": 103}, {"time": 176989, "pitch": 56, "duration": 130, "velocity": 112}, {"time": 177627, "pitch": 56, "duration": 39, "velocity": 108}, {"time": 178106, "pitch": 56, "duration": 1266, "velocity": 112}, {"time": 179392, "pitch": 61, "duration": 159, "velocity": 107}, {"time": 179870, "pitch": 56, "duration": 100, "velocity": 69}, {"time": 180030, "pitch": 56, "duration": 319, "velocity": 103}, {"time": 180359, "pitch": 60, "duration": 179, "velocity": 72}, {"time": 180518, "pitch": 61, "duration": 259, "velocity": 103}, {"time": 180827, "pitch": 61, "duration": 199, "velocity": 96}, {"time": 180987, "pitch": 54, "duration": 744, "velocity": 112}, {"time": 181802, "pitch": 66, "duration": 162, "velocity": 107}, {"time": 182283, "pitch": 54, "duration": 60, "velocity": 63}, {"time": 182433, "pitch": 58, "duration": 259, "velocity": 103}, {"time": 182921, "pitch": 61, "duration": 239, "velocity": 112}, {"time": 183709, "pitch": 63, "duration": 717, "velocity": 103}, {"time": 184347, "pitch": 58, "duration": 318, "velocity": 96}, {"time": 184665, "pitch": 61, "duration": 150, "velocity": 67}, {"time": 184836, "pitch": 54, "duration": 797, "velocity": 107}, {"time": 185633, "pitch": 66, "duration": 160, "velocity": 93}, {"time": 186590, "pitch": 46, "duration": 90, "velocity": 82}, {"time": 186750, "pitch": 49, "duration": 249, "velocity": 103}, {"time": 187238, "pitch": 51, "duration": 189, "velocity": 107}, {"time": 187707, "pitch": 52, "duration": 249, "velocity": 117}, {"time": 188196, "pitch": 51, "duration": 469, "velocity": 107}, {"time": 188674, "pitch": 54, "duration": 738, "velocity": 112}, {"time": 189482, "pitch": 66, "duration": 159, "velocity": 107}, {"time": 189960, "pitch": 54, "duration": 60, "velocity": 63}, {"time": 190110, "pitch": 58, "duration": 259, "velocity": 103}, {"time": 190598, "pitch": 61, "duration": 239, "velocity": 112}, {"time": 191385, "pitch": 63, "duration": 729, "velocity": 103}, {"time": 192034, "pitch": 58, "duration": 319, "velocity": 96}, {"time": 192353, "pitch": 61, "duration": 150, "velocity": 67}, {"time": 192523, "pitch": 54, "duration": 787, "velocity": 107}, {"time": 193310, "pitch": 66, "duration": 160, "velocity": 93}, {"time": 194267, "pitch": 46, "duration": 90, "velocity": 82}, {"time": 194427, "pitch": 49, "duration": 249, "velocity": 103}, {"time": 194916, "pitch": 51, "duration": 194, "velocity": 107}, {"time": 195394, "pitch": 52, "duration": 250, "velocity": 117}, {"time": 195883, "pitch": 51, "duration": 458, "velocity": 107}, {"time": 196670, "pitch": 61, "duration": 200, "velocity": 87}, {"time": 196830, "pitch": 49, "duration": 249, "velocity": 87}, {"time": 197318, "pitch": 53, "duration": 249, "velocity": 107}, {"time": 197787, "pitch": 56, "duration": 219, "velocity": 99}, {"time": 198266, "pitch": 58, "duration": 867, "velocity": 112}, {"time": 199073, "pitch": 61, "duration": 210, "velocity": 103}, {"time": 200040, "pitch": 51, "duration": 658, "velocity": 116}, {"time": 200668, "pitch": 46, "duration": 209, "velocity": 116}, {"time": 201147, "pitch": 51, "duration": 795, "velocity": 112}, {"time": 202433, "pitch": 56, "duration": 130, "velocity": 80}, {"time": 202593, "pitch": 51, "duration": 219, "velocity": 99}, {"time": 203071, "pitch": 56, "duration": 329, "velocity": 107}, {"time": 203400, "pitch": 58, "duration": 160, "velocity": 85}, {"time": 203550, "pitch": 60, "duration": 309, "velocity": 87}, {"time": 203869, "pitch": 61, "duration": 179, "velocity": 103}, {"time": 204507, "pitch": 49, "duration": 479, "velocity": 112}, {"time": 205484, "pitch": 49, "duration": 439, "velocity": 116}, {"time": 206272, "pitch": 60, "duration": 169, "velocity": 96}, {"time": 206441, "pitch": 53, "duration": 349, "velocity": 87}, {"time": 206910, "pitch": 56, "duration": 269, "velocity": 103}, {"time": 207398, "pitch": 60, "duration": 349, "velocity": 107}, {"time": 207717, "pitch": 56, "duration": 120, "velocity": 80}, {"time": 208346, "pitch": 44, "duration": 397, "velocity": 112}, {"time": 209313, "pitch": 44, "duration": 279, "velocity": 107}, {"time": 209761, "pitch": 49, "duration": 279, "velocity": 107}, {"time": 210110, "pitch": 56, "duration": 170, "velocity": 90}, {"time": 210280, "pitch": 58, "duration": 259, "velocity": 103}, {"time": 210599, "pitch": 68, "duration": 199, "velocity": 96}, {"time": 210748, "pitch": 64, "duration": 319, "velocity": 73}, {"time": 211067, "pitch": 61, "duration": 209, "velocity": 99}, {"time": 211236, "pitch": 58, "duration": 299, "velocity": 103}, {"time": 212032, "pitch": 61, "duration": 153, "velocity": 82}, {"time": 212194, "pitch": 49, "duration": 240, "velocity": 90}, {"time": 212683, "pitch": 53, "duration": 199, "velocity": 117}, {"time": 213161, "pitch": 56, "duration": 180, "velocity": 107}, {"time": 213949, "pitch": 60, "duration": 169, "velocity": 96}, {"time": 214118, "pitch": 53, "duration": 349, "velocity": 87}, {"time": 214586, "pitch": 56, "duration": 270, "velocity": 103}, {"time": 215076, "pitch": 60, "duration": 357, "velocity": 107}, {"time": 215402, "pitch": 56, "duration": 123, "velocity": 80}, {"time": 216043, "pitch": 44, "duration": 219, "velocity": 108}, {"time": 216511, "pitch": 44, "duration": 917, "velocity": 112}, {"time": 217438, "pitch": 49, "duration": 219, "velocity": 108}, {"time": 218425, "pitch": 59, "duration": 266, "velocity": 107}, {"time": 218752, "pitch": 54, "duration": 182, "velocity": 90}, {"time": 218924, "pitch": 47, "duration": 250, "velocity": 99}, {"time": 219243, "pitch": 49, "duration": 459, "velocity": 112}, {"time": 221625, "pitch": 54, "duration": 232, "velocity": 117}, {"time": 221796, "pitch": 56, "duration": 306, "velocity": 117}, {"time": 222122, "pitch": 54, "duration": 202, "velocity": 116}, {"time": 222274, "pitch": 59, "duration": 329, "velocity": 115}, {"time": 222593, "pitch": 66, "duration": 479, "velocity": 114}, {"time": 223082, "pitch": 61, "duration": 139, "velocity": 126}, {"time": 223550, "pitch": 61, "duration": 160, "velocity": 100}, {"time": 223720, "pitch": 49, "duration": 219, "velocity": 106}, {"time": 224188, "pitch": 53, "duration": 219, "velocity": 122}, {"time": 224666, "pitch": 56, "duration": 190, "velocity": 106}, {"time": 225156, "pitch": 58, "duration": 857, "velocity": 117}, {"time": 225953, "pitch": 61, "duration": 200, "velocity": 117}, {"time": 226920, "pitch": 49, "duration": 618, "velocity": 113}, {"time": 227548, "pitch": 51, "duration": 249, "velocity": 103}, {"time": 228026, "pitch": 53, "duration": 220, "velocity": 127}, {"time": 228842, "pitch": 53, "duration": 621, "velocity": 127}, {"time": 229473, "pitch": 54, "duration": 239, "velocity": 117}, {"time": 229961, "pitch": 56, "duration": 200, "velocity": 122}, {"time": 230270, "pitch": 56, "duration": 150, "velocity": 68}, {"time": 230430, "pitch": 58, "duration": 319, "velocity": 103}, {"time": 230749, "pitch": 61, "duration": 149, "velocity": 117}, {"time": 231227, "pitch": 61, "duration": 150, "velocity": 92}, {"time": 231386, "pitch": 49, "duration": 240, "velocity": 100}, {"time": 231876, "pitch": 53, "duration": 204, "velocity": 127}, {"time": 232364, "pitch": 56, "duration": 180, "velocity": 117}, {"time": 232843, "pitch": 58, "duration": 817, "velocity": 113}, {"time": 233630, "pitch": 61, "duration": 150, "velocity": 117}, {"time": 234109, "pitch": 49, "duration": 119, "velocity": 86}, {"time": 234268, "pitch": 56, "duration": 299, "velocity": 117}, {"time": 234587, "pitch": 49, "duration": 700, "velocity": 126}, {"time": 235236, "pitch": 48, "duration": 224, "velocity": 118}, {"time": 235714, "pitch": 47, "duration": 1874, "velocity": 122}, {"time": 237628, "pitch": 59, "duration": 259, "velocity": 117}, {"time": 237947, "pitch": 54, "duration": 179, "velocity": 117}, {"time": 238116, "pitch": 47, "duration": 250, "velocity": 117}, {"time": 238435, "pitch": 49, "duration": 467, "velocity": 116}, {"time": 35042, "pitch": 65, "duration": 478, "velocity": 100}, {"time": 35527, "pitch": 68, "duration": 331, "velocity": 113}, {"time": 35878, "pitch": 61, "duration": 369, "velocity": 117}, {"time": 36835, "pitch": 71, "duration": 499, "velocity": 110}, {"time": 37334, "pitch": 68, "duration": 111, "velocity": 110}, {"time": 37455, "pitch": 70, "duration": 328, "velocity": 117}, {"time": 37808, "pitch": 68, "duration": 368, "velocity": 117}, {"time": 38760, "pitch": 71, "duration": 598, "velocity": 110}, {"time": 39368, "pitch": 70, "duration": 269, "velocity": 117}, {"time": 39837, "pitch": 68, "duration": 309, "velocity": 117}, {"time": 40682, "pitch": 68, "duration": 601, "velocity": 110}, {"time": 41293, "pitch": 66, "duration": 309, "velocity": 117}, {"time": 41762, "pitch": 65, "duration": 309, "velocity": 117}, {"time": 42718, "pitch": 73, "duration": 150, "velocity": 113}, {"time": 43037, "pitch": 61, "duration": 150, "velocity": 113}, {"time": 43198, "pitch": 71, "duration": 132, "velocity": 113}, {"time": 43542, "pitch": 61, "duration": 132, "velocity": 113}, {"time": 43685, "pitch": 68, "duration": 277, "velocity": 111}, {"time": 44040, "pitch": 61, "duration": 462, "velocity": 110}, {"time": 44650, "pitch": 65, "duration": 356, "velocity": 110}, {"time": 45007, "pitch": 68, "duration": 121, "velocity": 117}, {"time": 45129, "pitch": 70, "duration": 286, "velocity": 113}, {"time": 45485, "pitch": 73, "duration": 376, "velocity": 107}, {"time": 46437, "pitch": 71, "duration": 399, "velocity": 110}, {"time": 46914, "pitch": 71, "duration": 121, "velocity": 117}, {"time": 47035, "pitch": 68, "duration": 265, "velocity": 110}, {"time": 47525, "pitch": 70, "duration": 299, "velocity": 110}, {"time": 47857, "pitch": 68, "duration": 149, "velocity": 111}, {"time": 48010, "pitch": 64, "duration": 259, "velocity": 110}, {"time": 48342, "pitch": 61, "duration": 449, "velocity": 111}, {"time": 50282, "pitch": 76, "duration": 445, "velocity": 110}, {"time": 50748, "pitch": 76, "duration": 110, "velocity": 110}, {"time": 50885, "pitch": 76, "duration": 269, "velocity": 111}, {"time": 51223, "pitch": 76, "duration": 119, "velocity": 110}, {"time": 51363, "pitch": 75, "duration": 329, "velocity": 111}, {"time": 51842, "pitch": 73, "duration": 328, "velocity": 111}, {"time": 52326, "pitch": 71, "duration": 329, "velocity": 111}, {"time": 52645, "pitch": 73, "duration": 329, "velocity": 111}, {"time": 53123, "pitch": 73, "duration": 329, "velocity": 111}, {"time": 54113, "pitch": 76, "duration": 458, "velocity": 110}, {"time": 54590, "pitch": 76, "duration": 119, "velocity": 110}, {"time": 54742, "pitch": 76, "duration": 338, "velocity": 110}, {"time": 55080, "pitch": 76, "duration": 133, "velocity": 110}, {"time": 55202, "pitch": 73, "duration": 328, "velocity": 111}, {"time": 55540, "pitch": 68, "duration": 130, "velocity": 111}, {"time": 55680, "pitch": 76, "duration": 312, "velocity": 111}, {"time": 56018, "pitch": 77, "duration": 357, "velocity": 111}, {"time": 57971, "pitch": 76, "duration": 452, "velocity": 111}, {"time": 58436, "pitch": 76, "duration": 122, "velocity": 111}, {"time": 58571, "pitch": 76, "duration": 294, "velocity": 111}, {"time": 58902, "pitch": 76, "duration": 108, "velocity": 111}, {"time": 59043, "pitch": 75, "duration": 273, "velocity": 111}, {"time": 59526, "pitch": 73, "duration": 273, "velocity": 111}, {"time": 59997, "pitch": 71, "duration": 308, "velocity": 111}, {"time": 60316, "pitch": 73, "duration": 333, "velocity": 111}, {"time": 60802, "pitch": 73, "duration": 332, "velocity": 111}, {"time": 61790, "pitch": 76, "duration": 471, "velocity": 111}, {"time": 62274, "pitch": 76, "duration": 121, "velocity": 111}, {"time": 62403, "pitch": 76, "duration": 337, "velocity": 111}, {"time": 62753, "pitch": 76, "duration": 121, "velocity": 111}, {"time": 62886, "pitch": 76, "duration": 313, "velocity": 111}, {"time": 63357, "pitch": 73, "duration": 329, "velocity": 111}, {"time": 63683, "pitch": 77, "duration": 333, "velocity": 111}, {"time": 65615, "pitch": 83, "duration": 319, "velocity": 111}, {"time": 66239, "pitch": 61, "duration": 289, "velocity": 112}, {"time": 66719, "pitch": 65, "duration": 219, "velocity": 112}, {"time": 67197, "pitch": 68, "duration": 204, "velocity": 112}, {"time": 67686, "pitch": 70, "duration": 798, "velocity": 112}, {"time": 68522, "pitch": 73, "duration": 523, "velocity": 112}, {"time": 69492, "pitch": 75, "duration": 421, "velocity": 110}, {"time": 69943, "pitch": 75, "duration": 120, "velocity": 110}, {"time": 70077, "pitch": 75, "duration": 283, "velocity": 111}, {"time": 70555, "pitch": 70, "duration": 335, "velocity": 111}, {"time": 70902, "pitch": 70, "duration": 413, "velocity": 111}, {"time": 71383, "pitch": 68, "duration": 328, "velocity": 111}, {"time": 73447, "pitch": 73, "duration": 309, "velocity": 103}, {"time": 73788, "pitch": 75, "duration": 231, "velocity": 117}, {"time": 74027, "pitch": 73, "duration": 266, "velocity": 117}, {"time": 74325, "pitch": 68, "duration": 171, "velocity": 117}, {"time": 74512, "pitch": 77, "duration": 259, "velocity": 105}, {"time": 74933, "pitch": 73, "duration": 259, "velocity": 111}, {"time": 75232, "pitch": 72, "duration": 1276, "velocity": 117}, {"time": 76797, "pitch": 68, "duration": 300, "velocity": 111}, {"time": 77135, "pitch": 68, "duration": 119, "velocity": 110}, {"time": 77275, "pitch": 70, "duration": 320, "velocity": 111}, {"time": 77627, "pitch": 69, "duration": 123, "velocity": 110}, {"time": 77765, "pitch": 70, "duration": 269, "velocity": 111}, {"time": 78243, "pitch": 72, "duration": 294, "velocity": 111}, {"time": 78574, "pitch": 71, "duration": 120, "velocity": 110}, {"time": 78722, "pitch": 72, "duration": 269, "velocity": 111}, {"time": 79203, "pitch": 73, "duration": 1707, "velocity": 116}, {"time": 84964, "pitch": 65, "duration": 414, "velocity": 110}, {"time": 85443, "pitch": 68, "duration": 229, "velocity": 113}, {"time": 85779, "pitch": 61, "duration": 369, "velocity": 117}, {"time": 86884, "pitch": 71, "duration": 293, "velocity": 110}, {"time": 87196, "pitch": 68, "duration": 139, "velocity": 117}, {"time": 87365, "pitch": 70, "duration": 284, "velocity": 117}, {"time": 87707, "pitch": 68, "duration": 372, "velocity": 117}, {"time": 88682, "pitch": 71, "duration": 598, "velocity": 110}, {"time": 89290, "pitch": 70, "duration": 269, "velocity": 117}, {"time": 89758, "pitch": 68, "duration": 309, "velocity": 117}, {"time": 90571, "pitch": 68, "duration": 608, "velocity": 110}, {"time": 91215, "pitch": 66, "duration": 309, "velocity": 117}, {"time": 91683, "pitch": 65, "duration": 309, "velocity": 117}, {"time": 92512, "pitch": 73, "duration": 255, "velocity": 113}, {"time": 92959, "pitch": 73, "duration": 149, "velocity": 113}, {"time": 93119, "pitch": 71, "duration": 312, "velocity": 113}, {"time": 93456, "pitch": 64, "duration": 148, "velocity": 113}, {"time": 93607, "pitch": 68, "duration": 296, "velocity": 111}, {"time": 93929, "pitch": 61, "duration": 465, "velocity": 110}, {"time": 94415, "pitch": 61, "duration": 144, "velocity": 110}, {"time": 94565, "pitch": 65, "duration": 306, "velocity": 110}, {"time": 94884, "pitch": 68, "duration": 139, "velocity": 117}, {"time": 95043, "pitch": 70, "duration": 294, "velocity": 113}, {"time": 95381, "pitch": 73, "duration": 383, "velocity": 107}, {"time": 96359, "pitch": 71, "duration": 398, "velocity": 110}, {"time": 96797, "pitch": 71, "duration": 140, "velocity": 117}, {"time": 96957, "pitch": 68, "duration": 259, "velocity": 110}, {"time": 97435, "pitch": 70, "duration": 306, "velocity": 110}, {"time": 97762, "pitch": 68, "duration": 153, "velocity": 111}, {"time": 97933, "pitch": 64, "duration": 259, "velocity": 110}, {"time": 98244, "pitch": 61, "duration": 529, "velocity": 111}, {"time": 100318, "pitch": 76, "duration": 293, "velocity": 110}, {"time": 100655, "pitch": 76, "duration": 119, "velocity": 110}, {"time": 100795, "pitch": 75, "duration": 276, "velocity": 111}, {"time": 101121, "pitch": 76, "duration": 151, "velocity": 110}, {"time": 101285, "pitch": 75, "duration": 329, "velocity": 111}, {"time": 101763, "pitch": 73, "duration": 329, "velocity": 111}, {"time": 102108, "pitch": 68, "duration": 133, "velocity": 111}, {"time": 102241, "pitch": 71, "duration": 313, "velocity": 111}, {"time": 102560, "pitch": 73, "duration": 329, "velocity": 111}, {"time": 103039, "pitch": 73, "duration": 329, "velocity": 111}, {"time": 104041, "pitch": 76, "duration": 434, "velocity": 110}, {"time": 104489, "pitch": 76, "duration": 122, "velocity": 110}, {"time": 104645, "pitch": 76, "duration": 300, "velocity": 111}, {"time": 104982, "pitch": 76, "duration": 119, "velocity": 110}, {"time": 105123, "pitch": 70, "duration": 329, "velocity": 111}, {"time": 105462, "pitch": 68, "duration": 130, "velocity": 111}, {"time": 105601, "pitch": 75, "duration": 332, "velocity": 111}, {"time": 105945, "pitch": 77, "duration": 329, "velocity": 111}, {"time": 108007, "pitch": 76, "duration": 285, "velocity": 110}, {"time": 108324, "pitch": 76, "duration": 119, "velocity": 110}, {"time": 108483, "pitch": 76, "duration": 293, "velocity": 111}, {"time": 108814, "pitch": 76, "duration": 120, "velocity": 110}, {"time": 108961, "pitch": 75, "duration": 329, "velocity": 111}, {"time": 109440, "pitch": 73, "duration": 329, "velocity": 111}, {"time": 109918, "pitch": 71, "duration": 306, "velocity": 111}, {"time": 110237, "pitch": 73, "duration": 329, "velocity": 111}, {"time": 110716, "pitch": 73, "duration": 499, "velocity": 111}, {"time": 111717, "pitch": 76, "duration": 432, "velocity": 110}, {"time": 112162, "pitch": 76, "duration": 120, "velocity": 110}, {"time": 112321, "pitch": 76, "duration": 294, "velocity": 111}, {"time": 112658, "pitch": 76, "duration": 120, "velocity": 110}, {"time": 112800, "pitch": 76, "duration": 329, "velocity": 111}, {"time": 113139, "pitch": 68, "duration": 129, "velocity": 111}, {"time": 113278, "pitch": 70, "duration": 329, "velocity": 111}, {"time": 113616, "pitch": 77, "duration": 329, "velocity": 111}, {"time": 115535, "pitch": 83, "duration": 329, "velocity": 111}, {"time": 116161, "pitch": 61, "duration": 289, "velocity": 112}, {"time": 116640, "pitch": 65, "duration": 220, "velocity": 112}, {"time": 117125, "pitch": 68, "duration": 199, "velocity": 112}, {"time": 117597, "pitch": 70, "duration": 813, "velocity": 112}, {"time": 118425, "pitch": 73, "duration": 578, "velocity": 112}, {"time": 119394, "pitch": 75, "duration": 426, "velocity": 110}, {"time": 119839, "pitch": 75, "duration": 119, "velocity": 110}, {"time": 119998, "pitch": 75, "duration": 274, "velocity": 111}, {"time": 120329, "pitch": 75, "duration": 120, "velocity": 110}, {"time": 120477, "pitch": 70, "duration": 329, "velocity": 111}, {"time": 120816, "pitch": 70, "duration": 406, "velocity": 111}, {"time": 121282, "pitch": 68, "duration": 437, "velocity": 111}, {"time": 123361, "pitch": 73, "duration": 309, "velocity": 103}, {"time": 123677, "pitch": 75, "duration": 229, "velocity": 117}, {"time": 123946, "pitch": 73, "duration": 259, "velocity": 117}, {"time": 124205, "pitch": 68, "duration": 171, "velocity": 117}, {"time": 124437, "pitch": 77, "duration": 266, "velocity": 105}, {"time": 124854, "pitch": 73, "duration": 260, "velocity": 111}, {"time": 125153, "pitch": 72, "duration": 1276, "velocity": 117}, {"time": 126718, "pitch": 68, "duration": 309, "velocity": 111}, {"time": 127055, "pitch": 68, "duration": 120, "velocity": 110}, {"time": 127197, "pitch": 70, "duration": 290, "velocity": 111}, {"time": 127522, "pitch": 69, "duration": 119, "velocity": 110}, {"time": 127675, "pitch": 70, "duration": 275, "velocity": 111}, {"time": 128165, "pitch": 72, "duration": 296, "velocity": 111}, {"time": 128503, "pitch": 71, "duration": 119, "velocity": 110}, {"time": 128643, "pitch": 72, "duration": 269, "velocity": 111}, {"time": 129124, "pitch": 73, "duration": 1837, "velocity": 116}, {"time": 165603, "pitch": 65, "duration": 294, "velocity": 110}, {"time": 165922, "pitch": 65, "duration": 139, "velocity": 117}, {"time": 166082, "pitch": 68, "duration": 230, "velocity": 113}, {"time": 166419, "pitch": 61, "duration": 369, "velocity": 117}, {"time": 167409, "pitch": 71, "duration": 408, "velocity": 110}, {"time": 168005, "pitch": 70, "duration": 337, "velocity": 117}, {"time": 168353, "pitch": 68, "duration": 372, "velocity": 117}, {"time": 169322, "pitch": 71, "duration": 598, "velocity": 110}, {"time": 169930, "pitch": 70, "duration": 269, "velocity": 117}, {"time": 170398, "pitch": 68, "duration": 309, "velocity": 117}, {"time": 171235, "pitch": 68, "duration": 610, "velocity": 110}, {"time": 171855, "pitch": 66, "duration": 309, "velocity": 117}, {"time": 172323, "pitch": 65, "duration": 309, "velocity": 117}, {"time": 173280, "pitch": 73, "duration": 149, "velocity": 113}, {"time": 173612, "pitch": 73, "duration": 149, "velocity": 113}, {"time": 173765, "pitch": 73, "duration": 141, "velocity": 113}, {"time": 174104, "pitch": 61, "duration": 141, "velocity": 113}, {"time": 174247, "pitch": 68, "duration": 291, "velocity": 111}, {"time": 174556, "pitch": 61, "duration": 465, "velocity": 110}, {"time": 175206, "pitch": 65, "duration": 293, "velocity": 110}, {"time": 175524, "pitch": 68, "duration": 139, "velocity": 117}, {"time": 175683, "pitch": 70, "duration": 294, "velocity": 113}, {"time": 176021, "pitch": 73, "duration": 397, "velocity": 107}, {"time": 176980, "pitch": 71, "duration": 398, "velocity": 110}, {"time": 177437, "pitch": 71, "duration": 140, "velocity": 117}, {"time": 177597, "pitch": 68, "duration": 259, "velocity": 110}, {"time": 177930, "pitch": 68, "duration": 146, "velocity": 110}, {"time": 178075, "pitch": 70, "duration": 306, "velocity": 110}, {"time": 178401, "pitch": 68, "duration": 154, "velocity": 111}, {"time": 178565, "pitch": 64, "duration": 282, "velocity": 109}, {"time": 178903, "pitch": 61, "duration": 449, "velocity": 111}, {"time": 180958, "pitch": 76, "duration": 199, "velocity": 110}, {"time": 181276, "pitch": 76, "duration": 119, "velocity": 110}, {"time": 181435, "pitch": 76, "duration": 275, "velocity": 111}, {"time": 181741, "pitch": 76, "duration": 122, "velocity": 110}, {"time": 181925, "pitch": 75, "duration": 329, "velocity": 111}, {"time": 182403, "pitch": 73, "duration": 329, "velocity": 111}, {"time": 182881, "pitch": 71, "duration": 316, "velocity": 111}, {"time": 183200, "pitch": 73, "duration": 329, "velocity": 111}, {"time": 183679, "pitch": 73, "duration": 564, "velocity": 111}, {"time": 184675, "pitch": 76, "duration": 273, "velocity": 110}, {"time": 185121, "pitch": 76, "duration": 123, "velocity": 110}, {"time": 185285, "pitch": 76, "duration": 269, "velocity": 111}, {"time": 185615, "pitch": 76, "duration": 120, "velocity": 110}, {"time": 185763, "pitch": 70, "duration": 329, "velocity": 111}, {"time": 186102, "pitch": 68, "duration": 129, "velocity": 111}, {"time": 186242, "pitch": 75, "duration": 329, "velocity": 111}, {"time": 186573, "pitch": 77, "duration": 329, "velocity": 111}, {"time": 188509, "pitch": 76, "duration": 420, "velocity": 110}, {"time": 188964, "pitch": 76, "duration": 119, "velocity": 110}, {"time": 189123, "pitch": 76, "duration": 269, "velocity": 111}, {"time": 189435, "pitch": 76, "duration": 120, "velocity": 110}, {"time": 189601, "pitch": 75, "duration": 329, "velocity": 111}, {"time": 190080, "pitch": 73, "duration": 329, "velocity": 111}, {"time": 190558, "pitch": 71, "duration": 303, "velocity": 111}, {"time": 190877, "pitch": 73, "duration": 329, "velocity": 111}, {"time": 191356, "pitch": 73, "duration": 332, "velocity": 111}, {"time": 192356, "pitch": 76, "duration": 411, "velocity": 110}, {"time": 192802, "pitch": 76, "duration": 120, "velocity": 110}, {"time": 192961, "pitch": 76, "duration": 270, "velocity": 111}, {"time": 193260, "pitch": 76, "duration": 120, "velocity": 110}, {"time": 193440, "pitch": 75, "duration": 329, "velocity": 111}, {"time": 193779, "pitch": 68, "duration": 129, "velocity": 111}, {"time": 193918, "pitch": 70, "duration": 329, "velocity": 111}, {"time": 194237, "pitch": 77, "duration": 329, "velocity": 111}, {"time": 196185, "pitch": 83, "duration": 312, "velocity": 112}, {"time": 196801, "pitch": 61, "duration": 289, "velocity": 112}, {"time": 197279, "pitch": 65, "duration": 219, "velocity": 112}, {"time": 197765, "pitch": 68, "duration": 199, "velocity": 112}, {"time": 198243, "pitch": 70, "duration": 759, "velocity": 112}, {"time": 199083, "pitch": 73, "duration": 410, "velocity": 112}, {"time": 200040, "pitch": 75, "duration": 410, "velocity": 110}, {"time": 200479, "pitch": 75, "duration": 119, "velocity": 110}, {"time": 200638, "pitch": 75, "duration": 269, "velocity": 111}, {"time": 200963, "pitch": 75, "duration": 120, "velocity": 110}, {"time": 201117, "pitch": 70, "duration": 329, "velocity": 111}, {"time": 201455, "pitch": 70, "duration": 300, "velocity": 111}, {"time": 201921, "pitch": 68, "duration": 333, "velocity": 111}, {"time": 204002, "pitch": 73, "duration": 309, "velocity": 103}, {"time": 204317, "pitch": 75, "duration": 229, "velocity": 117}, {"time": 204586, "pitch": 73, "duration": 259, "velocity": 117}, {"time": 204845, "pitch": 68, "duration": 171, "velocity": 117}, {"time": 205077, "pitch": 77, "duration": 266, "velocity": 105}, {"time": 205494, "pitch": 73, "duration": 260, "velocity": 111}, {"time": 205793, "pitch": 72, "duration": 1276, "velocity": 117}, {"time": 207358, "pitch": 68, "duration": 269, "velocity": 111}, {"time": 207657, "pitch": 68, "duration": 120, "velocity": 110}, {"time": 207837, "pitch": 70, "duration": 269, "velocity": 111}, {"time": 208136, "pitch": 69, "duration": 119, "velocity": 110}, {"time": 208315, "pitch": 70, "duration": 275, "velocity": 111}, {"time": 208664, "pitch": 70, "duration": 130, "velocity": 103}, {"time": 208805, "pitch": 72, "duration": 269, "velocity": 111}, {"time": 209104, "pitch": 71, "duration": 119, "velocity": 110}, {"time": 209283, "pitch": 72, "duration": 269, "velocity": 111}, {"time": 209765, "pitch": 73, "duration": 1823, "velocity": 116}, {"time": 4652, "pitch": 85, "duration": 70, "velocity": 103}, {"time": 4812, "pitch": 73, "duration": 39, "velocity": 100}, {"time": 5130, "pitch": 73, "duration": 60, "velocity": 101}, {"time": 5290, "pitch": 85, "duration": 80, "velocity": 101}, {"time": 5609, "pitch": 85, "duration": 70, "velocity": 103}, {"time": 5768, "pitch": 73, "duration": 110, "velocity": 100}, {"time": 6556, "pitch": 85, "duration": 79, "velocity": 101}, {"time": 6725, "pitch": 73, "duration": 92, "velocity": 102}, {"time": 7052, "pitch": 73, "duration": 81, "velocity": 100}, {"time": 7215, "pitch": 85, "duration": 79, "velocity": 103}, {"time": 7534, "pitch": 85, "duration": 69, "velocity": 102}, {"time": 7693, "pitch": 73, "duration": 80, "velocity": 100}, {"time": 8490, "pitch": 85, "duration": 70, "velocity": 100}, {"time": 8650, "pitch": 73, "duration": 90, "velocity": 103}, {"time": 8969, "pitch": 73, "duration": 70, "velocity": 100}, {"time": 9128, "pitch": 85, "duration": 70, "velocity": 102}, {"time": 9447, "pitch": 85, "duration": 70, "velocity": 102}, {"time": 9607, "pitch": 73, "duration": 99, "velocity": 103}, {"time": 10412, "pitch": 85, "duration": 71, "velocity": 102}, {"time": 10575, "pitch": 73, "duration": 79, "velocity": 101}, {"time": 10894, "pitch": 73, "duration": 69, "velocity": 102}, {"time": 11053, "pitch": 85, "duration": 80, "velocity": 103}, {"time": 11382, "pitch": 85, "duration": 50, "velocity": 101}, {"time": 11532, "pitch": 73, "duration": 79, "velocity": 103}, {"time": 11850, "pitch": 73, "duration": 60, "velocity": 102}, {"time": 12329, "pitch": 85, "duration": 50, "velocity": 103}, {"time": 12488, "pitch": 73, "duration": 60, "velocity": 103}, {"time": 12807, "pitch": 73, "duration": 60, "velocity": 103}, {"time": 12967, "pitch": 85, "duration": 79, "velocity": 100}, {"time": 13286, "pitch": 85, "duration": 60, "velocity": 103}, {"time": 13445, "pitch": 73, "duration": 82, "velocity": 100}, {"time": 14254, "pitch": 85, "duration": 69, "velocity": 100}, {"time": 14423, "pitch": 73, "duration": 80, "velocity": 100}, {"time": 14732, "pitch": 73, "duration": 70, "velocity": 101}, {"time": 14892, "pitch": 85, "duration": 99, "velocity": 102}, {"time": 15210, "pitch": 85, "duration": 60, "velocity": 101}, {"time": 15370, "pitch": 73, "duration": 80, "velocity": 101}, {"time": 15689, "pitch": 73, "duration": 70, "velocity": 101}, {"time": 16167, "pitch": 80, "duration": 60, "velocity": 100}, {"time": 16327, "pitch": 68, "duration": 79, "velocity": 100}, {"time": 16646, "pitch": 68, "duration": 50, "velocity": 103}, {"time": 16805, "pitch": 80, "duration": 72, "velocity": 101}, {"time": 17132, "pitch": 80, "duration": 71, "velocity": 101}, {"time": 17295, "pitch": 68, "duration": 89, "velocity": 103}, {"time": 18092, "pitch": 80, "duration": 70, "velocity": 100}, {"time": 18262, "pitch": 68, "duration": 59, "velocity": 102}, {"time": 18570, "pitch": 68, "duration": 60, "velocity": 101}, {"time": 18730, "pitch": 80, "duration": 80, "velocity": 100}, {"time": 19049, "pitch": 80, "duration": 80, "velocity": 100}, {"time": 19208, "pitch": 68, "duration": 80, "velocity": 100}, {"time": 20006, "pitch": 85, "duration": 59, "velocity": 100}, {"time": 20175, "pitch": 73, "duration": 92, "velocity": 100}, {"time": 20492, "pitch": 73, "duration": 71, "velocity": 103}, {"time": 20655, "pitch": 85, "duration": 79, "velocity": 101}, {"time": 20974, "pitch": 85, "duration": 79, "velocity": 100}, {"time": 21143, "pitch": 73, "duration": 80, "velocity": 101}, {"time": 21930, "pitch": 85, "duration": 80, "velocity": 100}, {"time": 22090, "pitch": 73, "duration": 90, "velocity": 100}, {"time": 22409, "pitch": 73, "duration": 60, "velocity": 101}, {"time": 22568, "pitch": 85, "duration": 80, "velocity": 103}, {"time": 22887, "pitch": 85, "duration": 70, "velocity": 100}, {"time": 23047, "pitch": 73, "duration": 70, "velocity": 100}, {"time": 23852, "pitch": 85, "duration": 92, "velocity": 102}, {"time": 24015, "pitch": 73, "duration": 79, "velocity": 100}, {"time": 24324, "pitch": 73, "duration": 69, "velocity": 101}, {"time": 24493, "pitch": 85, "duration": 80, "velocity": 100}, {"time": 24812, "pitch": 85, "duration": 60, "velocity": 102}, {"time": 24972, "pitch": 73, "duration": 89, "velocity": 103}, {"time": 25290, "pitch": 73, "duration": 60, "velocity": 102}, {"time": 25769, "pitch": 85, "duration": 90, "velocity": 103}, {"time": 25928, "pitch": 73, "duration": 80, "velocity": 100}, {"time": 26257, "pitch": 73, "duration": 40, "velocity": 103}, {"time": 26407, "pitch": 85, "duration": 79, "velocity": 102}, {"time": 26726, "pitch": 85, "duration": 59, "velocity": 102}, {"time": 26885, "pitch": 73, "duration": 72, "velocity": 100}, {"time": 33466, "pitch": 44, "duration": 170, "velocity": 70}, {"time": 33636, "pitch": 46, "duration": 265, "velocity": 83}, {"time": 33962, "pitch": 56, "duration": 202, "velocity": 76}, {"time": 34115, "pitch": 52, "duration": 319, "velocity": 53}, {"time": 34434, "pitch": 49, "duration": 209, "velocity": 79}, {"time": 34603, "pitch": 46, "duration": 299, "velocity": 83}, {"time": 35390, "pitch": 61, "duration": 150, "velocity": 73}, {"time": 35560, "pitch": 49, "duration": 209, "velocity": 73}, {"time": 36028, "pitch": 53, "duration": 230, "velocity": 87}, {"time": 36517, "pitch": 56, "duration": 179, "velocity": 79}, {"time": 36996, "pitch": 56, "duration": 827, "velocity": 87}, {"time": 37794, "pitch": 68, "duration": 219, "velocity": 87}, {"time": 38750, "pitch": 49, "duration": 688, "velocity": 92}, {"time": 39388, "pitch": 53, "duration": 230, "velocity": 73}, {"time": 39877, "pitch": 56, "duration": 219, "velocity": 97}, {"time": 40682, "pitch": 56, "duration": 691, "velocity": 97}, {"time": 41313, "pitch": 51, "duration": 229, "velocity": 79}, {"time": 41791, "pitch": 56, "duration": 240, "velocity": 92}, {"time": 42280, "pitch": 58, "duration": 329, "velocity": 79}, {"time": 42748, "pitch": 54, "duration": 738, "velocity": 92}, {"time": 43556, "pitch": 66, "duration": 160, "velocity": 87}, {"time": 44042, "pitch": 54, "duration": 62, "velocity": 43}, {"time": 44195, "pitch": 58, "duration": 259, "velocity": 83}, {"time": 44683, "pitch": 61, "duration": 787, "velocity": 96}, {"time": 45470, "pitch": 61, "duration": 220, "velocity": 83}, {"time": 46427, "pitch": 56, "duration": 131, "velocity": 92}, {"time": 47066, "pitch": 56, "duration": 40, "velocity": 88}, {"time": 47555, "pitch": 56, "duration": 1255, "velocity": 92}, {"time": 48830, "pitch": 61, "duration": 160, "velocity": 87}, {"time": 49309, "pitch": 56, "duration": 99, "velocity": 49}, {"time": 49468, "pitch": 56, "duration": 319, "velocity": 83}, {"time": 49797, "pitch": 60, "duration": 180, "velocity": 52}, {"time": 49957, "pitch": 61, "duration": 259, "velocity": 83}, {"time": 50266, "pitch": 61, "duration": 200, "velocity": 76}, {"time": 50426, "pitch": 54, "duration": 748, "velocity": 92}, {"time": 51244, "pitch": 66, "duration": 159, "velocity": 87}, {"time": 51722, "pitch": 54, "duration": 60, "velocity": 43}, {"time": 51871, "pitch": 58, "duration": 260, "velocity": 83}, {"time": 52360, "pitch": 61, "duration": 239, "velocity": 92}, {"time": 53147, "pitch": 63, "duration": 720, "velocity": 83}, {"time": 53786, "pitch": 58, "duration": 326, "velocity": 76}, {"time": 54112, "pitch": 61, "duration": 153, "velocity": 47}, {"time": 54285, "pitch": 54, "duration": 787, "velocity": 87}, {"time": 55072, "pitch": 66, "duration": 159, "velocity": 73}, {"time": 56029, "pitch": 46, "duration": 89, "velocity": 62}, {"time": 56188, "pitch": 49, "duration": 249, "velocity": 83}, {"time": 56677, "pitch": 51, "duration": 189, "velocity": 87}, {"time": 57146, "pitch": 52, "duration": 255, "velocity": 97}, {"time": 57645, "pitch": 51, "duration": 458, "velocity": 87}, {"time": 58113, "pitch": 54, "duration": 738, "velocity": 92}, {"time": 58920, "pitch": 66, "duration": 160, "velocity": 87}, {"time": 59399, "pitch": 54, "duration": 60, "velocity": 43}, {"time": 59548, "pitch": 58, "duration": 259, "velocity": 83}, {"time": 60037, "pitch": 61, "duration": 239, "velocity": 92}, {"time": 60832, "pitch": 63, "duration": 721, "velocity": 83}, {"time": 61473, "pitch": 58, "duration": 319, "velocity": 76}, {"time": 61792, "pitch": 61, "duration": 149, "velocity": 47}, {"time": 61961, "pitch": 54, "duration": 788, "velocity": 87}, {"time": 62749, "pitch": 66, "duration": 159, "velocity": 73}, {"time": 63706, "pitch": 46, "duration": 89, "velocity": 62}, {"time": 63866, "pitch": 49, "duration": 255, "velocity": 83}, {"time": 64365, "pitch": 51, "duration": 189, "velocity": 87}, {"time": 64833, "pitch": 52, "duration": 249, "velocity": 97}, {"time": 65321, "pitch": 51, "duration": 459, "velocity": 87}, {"time": 66109, "pitch": 61, "duration": 199, "velocity": 67}, {"time": 66268, "pitch": 49, "duration": 249, "velocity": 67}, {"time": 66757, "pitch": 53, "duration": 249, "velocity": 87}, {"time": 67226, "pitch": 56, "duration": 224, "velocity": 79}, {"time": 67715, "pitch": 58, "duration": 857, "velocity": 92}, {"time": 68512, "pitch": 61, "duration": 209, "velocity": 83}, {"time": 69479, "pitch": 51, "duration": 658, "velocity": 96}, {"time": 70107, "pitch": 46, "duration": 209, "velocity": 96}, {"time": 70586, "pitch": 51, "duration": 798, "velocity": 92}, {"time": 71872, "pitch": 56, "duration": 130, "velocity": 60}, {"time": 72031, "pitch": 51, "duration": 220, "velocity": 79}, {"time": 72510, "pitch": 56, "duration": 329, "velocity": 87}, {"time": 72839, "pitch": 58, "duration": 159, "velocity": 65}, {"time": 72988, "pitch": 60, "duration": 309, "velocity": 67}, {"time": 73307, "pitch": 61, "duration": 180, "velocity": 83}, {"time": 73946, "pitch": 49, "duration": 489, "velocity": 92}, {"time": 74923, "pitch": 49, "duration": 439, "velocity": 96}, {"time": 75710, "pitch": 60, "duration": 170, "velocity": 76}, {"time": 75880, "pitch": 53, "duration": 349, "velocity": 67}, {"time": 76348, "pitch": 56, "duration": 269, "velocity": 83}, {"time": 76837, "pitch": 60, "duration": 348, "velocity": 87}, {"time": 77156, "pitch": 56, "duration": 119, "velocity": 60}, {"time": 77795, "pitch": 44, "duration": 388, "velocity": 92}, {"time": 78751, "pitch": 44, "duration": 279, "velocity": 87}, {"time": 79200, "pitch": 37, "duration": 279, "velocity": 87}, {"time": 79549, "pitch": 44, "duration": 169, "velocity": 70}, {"time": 79718, "pitch": 46, "duration": 259, "velocity": 83}, {"time": 80037, "pitch": 56, "duration": 199, "velocity": 76}, {"time": 80187, "pitch": 52, "duration": 319, "velocity": 53}, {"time": 80506, "pitch": 49, "duration": 211, "velocity": 79}, {"time": 80676, "pitch": 46, "duration": 306, "velocity": 83}, {"time": 81165, "pitch": 44, "duration": 209, "velocity": 92}, {"time": 81952, "pitch": 44, "duration": 249, "velocity": 92}, {"time": 84834, "pitch": 49, "duration": 488, "velocity": 96}, {"time": 85312, "pitch": 61, "duration": 149, "velocity": 73}, {"time": 85481, "pitch": 49, "duration": 210, "velocity": 73}, {"time": 85950, "pitch": 53, "duration": 229, "velocity": 87}, {"time": 86438, "pitch": 56, "duration": 180, "velocity": 79}, {"time": 86917, "pitch": 56, "duration": 826, "velocity": 87}, {"time": 87712, "pitch": 68, "duration": 222, "velocity": 87}, {"time": 88672, "pitch": 49, "duration": 688, "velocity": 92}, {"time": 89310, "pitch": 53, "duration": 229, "velocity": 73}, {"time": 89798, "pitch": 56, "duration": 219, "velocity": 97}, {"time": 90596, "pitch": 56, "duration": 698, "velocity": 97}, {"time": 91235, "pitch": 51, "duration": 229, "velocity": 79}, {"time": 91713, "pitch": 56, "duration": 239, "velocity": 92}, {"time": 92201, "pitch": 58, "duration": 329, "velocity": 79}, {"time": 92670, "pitch": 54, "duration": 737, "velocity": 92}, {"time": 93477, "pitch": 66, "duration": 160, "velocity": 87}, {"time": 93956, "pitch": 54, "duration": 59, "velocity": 43}, {"time": 94106, "pitch": 58, "duration": 265, "velocity": 83}, {"time": 94605, "pitch": 61, "duration": 787, "velocity": 96}, {"time": 95392, "pitch": 61, "duration": 219, "velocity": 83}, {"time": 96349, "pitch": 56, "duration": 130, "velocity": 92}, {"time": 96987, "pitch": 56, "duration": 39, "velocity": 88}, {"time": 97466, "pitch": 56, "duration": 1266, "velocity": 92}, {"time": 98752, "pitch": 61, "duration": 159, "velocity": 87}, {"time": 99230, "pitch": 56, "duration": 100, "velocity": 49}, {"time": 99390, "pitch": 56, "duration": 319, "velocity": 83}, {"time": 99719, "pitch": 60, "duration": 179, "velocity": 52}, {"time": 99878, "pitch": 61, "duration": 259, "velocity": 83}, {"time": 100187, "pitch": 61, "duration": 199, "velocity": 76}, {"time": 100347, "pitch": 54, "duration": 744, "velocity": 92}, {"time": 101162, "pitch": 66, "duration": 163, "velocity": 87}, {"time": 101643, "pitch": 54, "duration": 60, "velocity": 43}, {"time": 101793, "pitch": 58, "duration": 259, "velocity": 83}, {"time": 102281, "pitch": 61, "duration": 240, "velocity": 92}, {"time": 103069, "pitch": 63, "duration": 717, "velocity": 83}, {"time": 103707, "pitch": 58, "duration": 319, "velocity": 76}, {"time": 104026, "pitch": 61, "duration": 149, "velocity": 47}, {"time": 104196, "pitch": 54, "duration": 798, "velocity": 87}, {"time": 104994, "pitch": 66, "duration": 159, "velocity": 73}, {"time": 105950, "pitch": 46, "duration": 90, "velocity": 62}, {"time": 106110, "pitch": 49, "duration": 249, "velocity": 83}, {"time": 106598, "pitch": 51, "duration": 190, "velocity": 87}, {"time": 107067, "pitch": 52, "duration": 249, "velocity": 97}, {"time": 107556, "pitch": 51, "duration": 469, "velocity": 87}, {"time": 108035, "pitch": 54, "duration": 737, "velocity": 92}, {"time": 108842, "pitch": 66, "duration": 159, "velocity": 87}, {"time": 109320, "pitch": 54, "duration": 60, "velocity": 43}, {"time": 109470, "pitch": 58, "duration": 259, "velocity": 83}, {"time": 109958, "pitch": 61, "duration": 239, "velocity": 92}, {"time": 110746, "pitch": 63, "duration": 728, "velocity": 83}, {"time": 111395, "pitch": 58, "duration": 319, "velocity": 76}, {"time": 111714, "pitch": 61, "duration": 149, "velocity": 47}, {"time": 111883, "pitch": 54, "duration": 787, "velocity": 87}, {"time": 112670, "pitch": 66, "duration": 160, "velocity": 73}, {"time": 113627, "pitch": 46, "duration": 90, "velocity": 62}, {"time": 113787, "pitch": 49, "duration": 249, "velocity": 83}, {"time": 114276, "pitch": 51, "duration": 194, "velocity": 87}, {"time": 114755, "pitch": 52, "duration": 249, "velocity": 97}, {"time": 115243, "pitch": 51, "duration": 458, "velocity": 87}, {"time": 116030, "pitch": 61, "duration": 200, "velocity": 67}, {"time": 116190, "pitch": 49, "duration": 249, "velocity": 67}, {"time": 116678, "pitch": 53, "duration": 249, "velocity": 87}, {"time": 117147, "pitch": 56, "duration": 219, "velocity": 79}, {"time": 117626, "pitch": 58, "duration": 867, "velocity": 92}, {"time": 118434, "pitch": 61, "duration": 209, "velocity": 83}, {"time": 119400, "pitch": 51, "duration": 658, "velocity": 96}, {"time": 120028, "pitch": 46, "duration": 209, "velocity": 96}, {"time": 120507, "pitch": 51, "duration": 795, "velocity": 92}, {"time": 121793, "pitch": 56, "duration": 130, "velocity": 60}, {"time": 121953, "pitch": 51, "duration": 219, "velocity": 79}, {"time": 122431, "pitch": 56, "duration": 329, "velocity": 87}, {"time": 122760, "pitch": 58, "duration": 160, "velocity": 65}, {"time": 122910, "pitch": 60, "duration": 309, "velocity": 67}, {"time": 123229, "pitch": 61, "duration": 179, "velocity": 83}, {"time": 123867, "pitch": 49, "duration": 479, "velocity": 92}, {"time": 124845, "pitch": 49, "duration": 438, "velocity": 96}, {"time": 125632, "pitch": 60, "duration": 169, "velocity": 76}, {"time": 125801, "pitch": 53, "duration": 349, "velocity": 67}, {"time": 126270, "pitch": 56, "duration": 269, "velocity": 83}, {"time": 126758, "pitch": 60, "duration": 349, "velocity": 87}, {"time": 127077, "pitch": 56, "duration": 120, "velocity": 60}, {"time": 127706, "pitch": 44, "duration": 398, "velocity": 92}, {"time": 128673, "pitch": 44, "duration": 279, "velocity": 87}, {"time": 129121, "pitch": 49, "duration": 280, "velocity": 87}, {"time": 129470, "pitch": 56, "duration": 170, "velocity": 70}, {"time": 129640, "pitch": 58, "duration": 259, "velocity": 83}, {"time": 129959, "pitch": 68, "duration": 199, "velocity": 76}, {"time": 130108, "pitch": 64, "duration": 319, "velocity": 53}, {"time": 130427, "pitch": 61, "duration": 209, "velocity": 79}, {"time": 130597, "pitch": 58, "duration": 299, "velocity": 83}, {"time": 131076, "pitch": 56, "duration": 214, "velocity": 92}, {"time": 131873, "pitch": 44, "duration": 250, "velocity": 92}, {"time": 134752, "pitch": 49, "duration": 491, "velocity": 96}, {"time": 135214, "pitch": 85, "duration": 69, "velocity": 100}, {"time": 135373, "pitch": 73, "duration": 40, "velocity": 102}, {"time": 135692, "pitch": 73, "duration": 60, "velocity": 100}, {"time": 135851, "pitch": 85, "duration": 80, "velocity": 101}, {"time": 136170, "pitch": 85, "duration": 70, "velocity": 101}, {"time": 136330, "pitch": 73, "duration": 109, "velocity": 101}, {"time": 137117, "pitch": 85, "duration": 80, "velocity": 100}, {"time": 137287, "pitch": 73, "duration": 89, "velocity": 101}, {"time": 137606, "pitch": 73, "duration": 79, "velocity": 101}, {"time": 137765, "pitch": 85, "duration": 82, "velocity": 100}, {"time": 138092, "pitch": 85, "duration": 71, "velocity": 102}, {"time": 138255, "pitch": 73, "duration": 79, "velocity": 103}, {"time": 139052, "pitch": 85, "duration": 70, "velocity": 103}, {"time": 139211, "pitch": 73, "duration": 90, "velocity": 102}, {"time": 139530, "pitch": 73, "duration": 70, "velocity": 103}, {"time": 139690, "pitch": 85, "duration": 70, "velocity": 102}, {"time": 140009, "pitch": 85, "duration": 70, "velocity": 102}, {"time": 140168, "pitch": 73, "duration": 100, "velocity": 102}, {"time": 140966, "pitch": 85, "duration": 69, "velocity": 101}, {"time": 141125, "pitch": 73, "duration": 82, "velocity": 102}, {"time": 141452, "pitch": 73, "duration": 71, "velocity": 100}, {"time": 141615, "pitch": 85, "duration": 79, "velocity": 100}, {"time": 141944, "pitch": 85, "duration": 49, "velocity": 103}, {"time": 142093, "pitch": 73, "duration": 80, "velocity": 102}, {"time": 142412, "pitch": 73, "duration": 60, "velocity": 102}, {"time": 142890, "pitch": 85, "duration": 50, "velocity": 103}, {"time": 143050, "pitch": 73, "duration": 60, "velocity": 101}, {"time": 143369, "pitch": 73, "duration": 60, "velocity": 100}, {"time": 143528, "pitch": 85, "duration": 80, "velocity": 102}, {"time": 143847, "pitch": 85, "duration": 60, "velocity": 102}, {"time": 144007, "pitch": 73, "duration": 79, "velocity": 103}, {"time": 144812, "pitch": 85, "duration": 71, "velocity": 100}, {"time": 144985, "pitch": 73, "duration": 79, "velocity": 103}, {"time": 145294, "pitch": 73, "duration": 69, "velocity": 100}, {"time": 145453, "pitch": 85, "duration": 100, "velocity": 101}, {"time": 145772, "pitch": 85, "duration": 60, "velocity": 100}, {"time": 145931, "pitch": 73, "duration": 80, "velocity": 100}, {"time": 146250, "pitch": 73, "duration": 70, "velocity": 102}, {"time": 146729, "pitch": 80, "duration": 60, "velocity": 100}, {"time": 146888, "pitch": 68, "duration": 80, "velocity": 103}, {"time": 147207, "pitch": 68, "duration": 50, "velocity": 101}, {"time": 147367, "pitch": 80, "duration": 69, "velocity": 102}, {"time": 147686, "pitch": 80, "duration": 69, "velocity": 103}, {"time": 147845, "pitch": 68, "duration": 92, "velocity": 102}, {"time": 148654, "pitch": 80, "duration": 69, "velocity": 103}, {"time": 148823, "pitch": 68, "duration": 60, "velocity": 101}, {"time": 149132, "pitch": 68, "duration": 60, "velocity": 100}, {"time": 149291, "pitch": 80, "duration": 80, "velocity": 100}, {"time": 149610, "pitch": 80, "duration": 80, "velocity": 102}, {"time": 149770, "pitch": 68, "duration": 80, "velocity": 100}, {"time": 150567, "pitch": 85, "duration": 60, "velocity": 101}, {"time": 150737, "pitch": 73, "duration": 89, "velocity": 102}, {"time": 151046, "pitch": 73, "duration": 69, "velocity": 102}, {"time": 151205, "pitch": 85, "duration": 82, "velocity": 100}, {"time": 151532, "pitch": 85, "duration": 81, "velocity": 100}, {"time": 151705, "pitch": 73, "duration": 79, "velocity": 101}, {"time": 152492, "pitch": 85, "duration": 80, "velocity": 103}, {"time": 152651, "pitch": 73, "duration": 90, "velocity": 103}, {"time": 152970, "pitch": 73, "duration": 60, "velocity": 100}, {"time": 153130, "pitch": 85, "duration": 80, "velocity": 100}, {"time": 153449, "pitch": 85, "duration": 70, "velocity": 102}, {"time": 153608, "pitch": 73, "duration": 70, "velocity": 101}, {"time": 154406, "pitch": 85, "duration": 89, "velocity": 103}, {"time": 154565, "pitch": 73, "duration": 82, "velocity": 103}, {"time": 154881, "pitch": 73, "duration": 72, "velocity": 101}, {"time": 155055, "pitch": 85, "duration": 79, "velocity": 103}, {"time": 155374, "pitch": 85, "duration": 59, "velocity": 102}, {"time": 155533, "pitch": 73, "duration": 90, "velocity": 103}, {"time": 155852, "pitch": 73, "duration": 60, "velocity": 102}, {"time": 156330, "pitch": 85, "duration": 90, "velocity": 101}, {"time": 156490, "pitch": 73, "duration": 80, "velocity": 102}, {"time": 156819, "pitch": 73, "duration": 40, "velocity": 101}, {"time": 156968, "pitch": 85, "duration": 80, "velocity": 103}, {"time": 157287, "pitch": 85, "duration": 60, "velocity": 101}, {"time": 157447, "pitch": 73, "duration": 69, "velocity": 103}, {"time": 164027, "pitch": 44, "duration": 170, "velocity": 70}, {"time": 164197, "pitch": 46, "duration": 259, "velocity": 83}, {"time": 164515, "pitch": 56, "duration": 202, "velocity": 76}, {"time": 164666, "pitch": 52, "duration": 326, "velocity": 53}, {"time": 164992, "pitch": 49, "duration": 212, "velocity": 79}, {"time": 165164, "pitch": 46, "duration": 299, "velocity": 83}, {"time": 165952, "pitch": 49, "duration": 149, "velocity": 73}, {"time": 166121, "pitch": 49, "duration": 210, "velocity": 73}, {"time": 166590, "pitch": 53, "duration": 229, "velocity": 87}, {"time": 167078, "pitch": 56, "duration": 180, "velocity": 79}, {"time": 167557, "pitch": 56, "duration": 826, "velocity": 87}, {"time": 168352, "pitch": 68, "duration": 222, "velocity": 87}, {"time": 169312, "pitch": 49, "duration": 688, "velocity": 92}, {"time": 169950, "pitch": 53, "duration": 229, "velocity": 73}, {"time": 170438, "pitch": 56, "duration": 219, "velocity": 97}, {"time": 171235, "pitch": 56, "duration": 699, "velocity": 97}, {"time": 171875, "pitch": 51, "duration": 229, "velocity": 79}, {"time": 172353, "pitch": 56, "duration": 239, "velocity": 92}, {"time": 172841, "pitch": 58, "duration": 329, "velocity": 79}, {"time": 173310, "pitch": 54, "duration": 737, "velocity": 92}, {"time": 174117, "pitch": 66, "duration": 160, "velocity": 87}, {"time": 174595, "pitch": 54, "duration": 60, "velocity": 43}, {"time": 174746, "pitch": 58, "duration": 265, "velocity": 83}, {"time": 175244, "pitch": 61, "duration": 788, "velocity": 96}, {"time": 176032, "pitch": 61, "duration": 219, "velocity": 83}, {"time": 176989, "pitch": 56, "duration": 130, "velocity": 92}, {"time": 177627, "pitch": 56, "duration": 39, "velocity": 88}, {"time": 178106, "pitch": 56, "duration": 1266, "velocity": 92}, {"time": 179392, "pitch": 61, "duration": 159, "velocity": 87}, {"time": 179870, "pitch": 56, "duration": 100, "velocity": 49}, {"time": 180030, "pitch": 56, "duration": 319, "velocity": 83}, {"time": 180359, "pitch": 60, "duration": 179, "velocity": 52}, {"time": 180518, "pitch": 61, "duration": 259, "velocity": 83}, {"time": 180827, "pitch": 61, "duration": 199, "velocity": 76}, {"time": 180987, "pitch": 54, "duration": 744, "velocity": 92}, {"time": 181802, "pitch": 66, "duration": 162, "velocity": 87}, {"time": 182283, "pitch": 54, "duration": 60, "velocity": 43}, {"time": 182433, "pitch": 58, "duration": 259, "velocity": 83}, {"time": 182921, "pitch": 61, "duration": 239, "velocity": 92}, {"time": 183709, "pitch": 63, "duration": 717, "velocity": 83}, {"time": 184347, "pitch": 58, "duration": 318, "velocity": 76}, {"time": 184665, "pitch": 61, "duration": 150, "velocity": 47}, {"time": 184836, "pitch": 54, "duration": 797, "velocity": 87}, {"time": 185633, "pitch": 66, "duration": 160, "velocity": 73}, {"time": 186590, "pitch": 46, "duration": 90, "velocity": 62}, {"time": 186750, "pitch": 49, "duration": 249, "velocity": 83}, {"time": 187238, "pitch": 51, "duration": 189, "velocity": 87}, {"time": 187707, "pitch": 52, "duration": 249, "velocity": 97}, {"time": 188196, "pitch": 51, "duration": 469, "velocity": 87}, {"time": 188674, "pitch": 54, "duration": 738, "velocity": 92}, {"time": 189482, "pitch": 66, "duration": 159, "velocity": 87}, {"time": 189960, "pitch": 54, "duration": 60, "velocity": 43}, {"time": 190110, "pitch": 58, "duration": 259, "velocity": 83}, {"time": 190598, "pitch": 61, "duration": 239, "velocity": 92}, {"time": 191385, "pitch": 63, "duration": 729, "velocity": 83}, {"time": 192034, "pitch": 58, "duration": 319, "velocity": 76}, {"time": 192353, "pitch": 61, "duration": 150, "velocity": 47}, {"time": 192523, "pitch": 54, "duration": 787, "velocity": 87}, {"time": 193310, "pitch": 66, "duration": 160, "velocity": 73}, {"time": 194267, "pitch": 46, "duration": 90, "velocity": 62}, {"time": 194427, "pitch": 49, "duration": 249, "velocity": 83}, {"time": 194916, "pitch": 51, "duration": 194, "velocity": 87}, {"time": 195394, "pitch": 52, "duration": 250, "velocity": 97}, {"time": 195883, "pitch": 51, "duration": 458, "velocity": 87}, {"time": 196670, "pitch": 61, "duration": 200, "velocity": 67}, {"time": 196830, "pitch": 49, "duration": 249, "velocity": 67}, {"time": 197318, "pitch": 53, "duration": 249, "velocity": 87}, {"time": 197787, "pitch": 56, "duration": 219, "velocity": 79}, {"time": 198266, "pitch": 58, "duration": 867, "velocity": 92}, {"time": 199073, "pitch": 61, "duration": 210, "velocity": 83}, {"time": 200040, "pitch": 51, "duration": 658, "velocity": 96}, {"time": 200668, "pitch": 46, "duration": 209, "velocity": 96}, {"time": 201147, "pitch": 51, "duration": 795, "velocity": 92}, {"time": 202433, "pitch": 56, "duration": 130, "velocity": 60}, {"time": 202593, "pitch": 51, "duration": 219, "velocity": 79}, {"time": 203071, "pitch": 56, "duration": 329, "velocity": 87}, {"time": 203400, "pitch": 58, "duration": 160, "velocity": 65}, {"time": 203550, "pitch": 60, "duration": 309, "velocity": 67}, {"time": 203869, "pitch": 61, "duration": 179, "velocity": 83}, {"time": 204507, "pitch": 49, "duration": 479, "velocity": 92}, {"time": 205484, "pitch": 49, "duration": 439, "velocity": 96}, {"time": 206272, "pitch": 60, "duration": 169, "velocity": 76}, {"time": 206441, "pitch": 53, "duration": 349, "velocity": 67}, {"time": 206910, "pitch": 56, "duration": 269, "velocity": 83}, {"time": 207398, "pitch": 60, "duration": 349, "velocity": 87}, {"time": 207717, "pitch": 56, "duration": 120, "velocity": 60}, {"time": 208346, "pitch": 44, "duration": 397, "velocity": 92}, {"time": 209313, "pitch": 44, "duration": 279, "velocity": 87}, {"time": 209761, "pitch": 49, "duration": 279, "velocity": 87}, {"time": 210110, "pitch": 56, "duration": 170, "velocity": 70}, {"time": 210280, "pitch": 58, "duration": 259, "velocity": 83}, {"time": 210599, "pitch": 68, "duration": 199, "velocity": 76}, {"time": 210748, "pitch": 64, "duration": 319, "velocity": 53}, {"time": 211067, "pitch": 61, "duration": 209, "velocity": 79}, {"time": 211236, "pitch": 58, "duration": 299, "velocity": 83}, {"time": 212032, "pitch": 61, "duration": 153, "velocity": 62}, {"time": 212194, "pitch": 49, "duration": 240, "velocity": 70}, {"time": 212683, "pitch": 53, "duration": 199, "velocity": 97}, {"time": 213161, "pitch": 56, "duration": 180, "velocity": 87}, {"time": 213949, "pitch": 60, "duration": 169, "velocity": 76}, {"time": 214118, "pitch": 53, "duration": 349, "velocity": 67}, {"time": 214586, "pitch": 56, "duration": 270, "velocity": 83}, {"time": 215076, "pitch": 60, "duration": 357, "velocity": 87}, {"time": 215402, "pitch": 56, "duration": 123, "velocity": 60}, {"time": 216043, "pitch": 44, "duration": 219, "velocity": 88}, {"time": 216511, "pitch": 44, "duration": 917, "velocity": 92}, {"time": 217438, "pitch": 49, "duration": 219, "velocity": 88}, {"time": 218425, "pitch": 59, "duration": 266, "velocity": 87}, {"time": 218752, "pitch": 54, "duration": 182, "velocity": 70}, {"time": 218924, "pitch": 47, "duration": 250, "velocity": 79}, {"time": 219243, "pitch": 49, "duration": 459, "velocity": 92}, {"time": 223211, "pitch": 85, "duration": 120, "velocity": 101}, {"time": 223530, "pitch": 85, "duration": 100, "velocity": 101}, {"time": 223690, "pitch": 73, "duration": 70, "velocity": 100}, {"time": 223849, "pitch": 80, "duration": 90, "velocity": 103}, {"time": 224009, "pitch": 73, "duration": 109, "velocity": 102}, {"time": 224168, "pitch": 85, "duration": 100, "velocity": 101}, {"time": 224487, "pitch": 85, "duration": 110, "velocity": 102}, {"time": 224647, "pitch": 73, "duration": 89, "velocity": 100}, {"time": 224806, "pitch": 80, "duration": 80, "velocity": 102}, {"time": 224965, "pitch": 73, "duration": 90, "velocity": 101}, {"time": 225135, "pitch": 85, "duration": 82, "velocity": 103}, {"time": 225452, "pitch": 85, "duration": 91, "velocity": 102}, {"time": 225615, "pitch": 73, "duration": 99, "velocity": 102}, {"time": 225774, "pitch": 80, "duration": 80, "velocity": 103}, {"time": 225933, "pitch": 73, "duration": 90, "velocity": 100}, {"time": 226093, "pitch": 85, "duration": 100, "velocity": 101}, {"time": 226412, "pitch": 85, "duration": 100, "velocity": 102}, {"time": 226571, "pitch": 73, "duration": 80, "velocity": 103}, {"time": 226731, "pitch": 80, "duration": 99, "velocity": 101}, {"time": 226900, "pitch": 73, "duration": 90, "velocity": 103}, {"time": 227050, "pitch": 85, "duration": 99, "velocity": 102}, {"time": 227369, "pitch": 85, "duration": 109, "velocity": 102}, {"time": 227528, "pitch": 73, "duration": 90, "velocity": 100}, {"time": 227688, "pitch": 80, "duration": 99, "velocity": 101}, {"time": 227847, "pitch": 73, "duration": 90, "velocity": 102}, {"time": 228017, "pitch": 85, "duration": 89, "velocity": 102}, {"time": 228325, "pitch": 85, "duration": 100, "velocity": 101}, {"time": 228485, "pitch": 73, "duration": 92, "velocity": 102}, {"time": 228648, "pitch": 80, "duration": 102, "velocity": 100}, {"time": 228812, "pitch": 73, "duration": 91, "velocity": 102}, {"time": 228975, "pitch": 85, "duration": 119, "velocity": 102}, {"time": 229293, "pitch": 85, "duration": 100, "velocity": 103}, {"time": 229453, "pitch": 73, "duration": 70, "velocity": 100}, {"time": 229612, "pitch": 80, "duration": 100, "velocity": 103}, {"time": 229772, "pitch": 73, "duration": 90, "velocity": 102}, {"time": 229941, "pitch": 85, "duration": 90, "velocity": 100}, {"time": 230250, "pitch": 85, "duration": 100, "velocity": 102}, {"time": 230410, "pitch": 73, "duration": 79, "velocity": 103}, {"time": 230569, "pitch": 80, "duration": 100, "velocity": 102}, {"time": 230729, "pitch": 73, "duration": 50, "velocity": 100}, {"time": 230888, "pitch": 85, "duration": 120, "velocity": 100}, {"time": 231207, "pitch": 85, "duration": 100, "velocity": 103}, {"time": 231367, "pitch": 73, "duration": 69, "velocity": 102}, {"time": 231526, "pitch": 80, "duration": 80, "velocity": 100}, {"time": 231685, "pitch": 73, "duration": 110, "velocity": 101}, {"time": 231845, "pitch": 85, "duration": 102, "velocity": 101}, {"time": 232172, "pitch": 85, "duration": 122, "velocity": 100}, {"time": 232335, "pitch": 73, "duration": 89, "velocity": 103}, {"time": 232494, "pitch": 80, "duration": 80, "velocity": 101}, {"time": 232653, "pitch": 73, "duration": 90, "velocity": 101}, {"time": 232813, "pitch": 85, "duration": 90, "velocity": 100}, {"time": 233132, "pitch": 85, "duration": 90, "velocity": 103}, {"time": 233291, "pitch": 73, "duration": 110, "velocity": 102}, {"time": 233451, "pitch": 80, "duration": 80, "velocity": 102}, {"time": 233610, "pitch": 73, "duration": 100, "velocity": 101}, {"time": 233770, "pitch": 85, "duration": 89, "velocity": 100}, {"time": 234089, "pitch": 85, "duration": 109, "velocity": 100}, {"time": 234248, "pitch": 73, "duration": 80, "velocity": 101}, {"time": 234408, "pitch": 80, "duration": 109, "velocity": 103}, {"time": 234567, "pitch": 73, "duration": 100, "velocity": 103}, {"time": 234727, "pitch": 85, "duration": 99, "velocity": 103}, {"time": 235045, "pitch": 85, "duration": 100, "velocity": 101}, {"time": 235215, "pitch": 73, "duration": 92, "velocity": 102}, {"time": 235368, "pitch": 80, "duration": 92, "velocity": 103}, {"time": 235532, "pitch": 73, "duration": 91, "velocity": 102}, {"time": 235695, "pitch": 85, "duration": 99, "velocity": 103}, {"time": 236013, "pitch": 85, "duration": 110, "velocity": 103}, {"time": 236173, "pitch": 73, "duration": 90, "velocity": 101}, {"time": 236332, "pitch": 80, "duration": 110, "velocity": 103}, {"time": 236492, "pitch": 73, "duration": 80, "velocity": 100}, {"time": 236651, "pitch": 85, "duration": 120, "velocity": 101}, {"time": 236970, "pitch": 85, "duration": 100, "velocity": 102}, {"time": 237130, "pitch": 73, "duration": 69, "velocity": 100}, {"time": 237289, "pitch": 80, "duration": 110, "velocity": 101}, {"time": 237449, "pitch": 73, "duration": 89, "velocity": 100}, {"time": 237608, "pitch": 85, "duration": 100, "velocity": 102}, {"time": 237927, "pitch": 85, "duration": 100, "velocity": 100}, {"time": 238087, "pitch": 73, "duration": 79, "velocity": 103}, {"time": 238246, "pitch": 80, "duration": 100, "velocity": 100}, {"time": 238405, "pitch": 73, "duration": 50, "velocity": 101}, {"time": 505, "pitch": 78, "duration": 229, "velocity": 108}, {"time": 505, "pitch": 83, "duration": 229, "velocity": 104}, {"time": 505, "pitch": 95, "duration": 209, "velocity": 117}, {"time": 515, "pitch": 72, "duration": 199, "velocity": 107}, {"time": 1322, "pitch": 95, "duration": 209, "velocity": 117}, {"time": 1342, "pitch": 72, "duration": 179, "velocity": 90}, {"time": 1342, "pitch": 78, "duration": 199, "velocity": 98}, {"time": 1342, "pitch": 83, "duration": 189, "velocity": 104}, {"time": 4184, "pitch": 75, "duration": 558, "velocity": 112}, {"time": 4194, "pitch": 79, "duration": 109, "velocity": 122}, {"time": 4194, "pitch": 83, "duration": 518, "velocity": 112}, {"time": 4323, "pitch": 80, "duration": 449, "velocity": 81}, {"time": 4831, "pitch": 82, "duration": 220, "velocity": 112}, {"time": 4841, "pitch": 78, "duration": 270, "velocity": 112}, {"time": 4851, "pitch": 73, "duration": 250, "velocity": 117}, {"time": 5320, "pitch": 71, "duration": 199, "velocity": 104}, {"time": 5320, "pitch": 77, "duration": 209, "velocity": 112}, {"time": 5330, "pitch": 80, "duration": 199, "velocity": 104}, {"time": 6097, "pitch": 71, "duration": 548, "velocity": 117}, {"time": 6097, "pitch": 76, "duration": 100, "velocity": 122}, {"time": 6097, "pitch": 80, "duration": 548, "velocity": 121}, {"time": 6147, "pitch": 77, "duration": 488, "velocity": 74}, {"time": 6736, "pitch": 70, "duration": 255, "velocity": 95}, {"time": 6736, "pitch": 78, "duration": 234, "velocity": 95}, {"time": 6746, "pitch": 75, "duration": 234, "velocity": 104}, {"time": 7245, "pitch": 68, "duration": 219, "velocity": 108}, {"time": 7245, "pitch": 73, "duration": 229, "velocity": 112}, {"time": 7245, "pitch": 77, "duration": 209, "velocity": 112}, {"time": 8042, "pitch": 68, "duration": 518, "velocity": 112}, {"time": 8042, "pitch": 73, "duration": 568, "velocity": 117}, {"time": 8042, "pitch": 77, "duration": 518, "velocity": 117}, {"time": 8670, "pitch": 66, "duration": 279, "velocity": 95}, {"time": 8670, "pitch": 71, "duration": 189, "velocity": 104}, {"time": 8670, "pitch": 75, "duration": 219, "velocity": 101}, {"time": 9148, "pitch": 65, "duration": 200, "velocity": 104}, {"time": 9158, "pitch": 68, "duration": 210, "velocity": 112}, {"time": 9158, "pitch": 73, "duration": 239, "velocity": 112}, {"time": 10095, "pitch": 76, "duration": 41, "velocity": 122}, {"time": 10106, "pitch": 71, "duration": 234, "velocity": 104}, {"time": 10106, "pitch": 82, "duration": 255, "velocity": 108}, {"time": 10106, "pitch": 85, "duration": 245, "velocity": 104}, {"time": 10126, "pitch": 77, "duration": 204, "velocity": 98}, {"time": 10136, "pitch": 76, "duration": 31, "velocity": 53}, {"time": 10914, "pitch": 71, "duration": 299, "velocity": 95}, {"time": 10914, "pitch": 76, "duration": 109, "velocity": 122}, {"time": 10924, "pitch": 82, "duration": 249, "velocity": 112}, {"time": 10924, "pitch": 85, "duration": 239, "velocity": 104}, {"time": 11043, "pitch": 77, "duration": 180, "velocity": 95}, {"time": 11850, "pitch": 75, "duration": 539, "velocity": 112}, {"time": 11860, "pitch": 79, "duration": 110, "velocity": 122}, {"time": 11860, "pitch": 83, "duration": 489, "velocity": 112}, {"time": 11890, "pitch": 80, "duration": 439, "velocity": 68}, {"time": 12488, "pitch": 82, "duration": 230, "velocity": 104}, {"time": 12498, "pitch": 73, "duration": 240, "velocity": 104}, {"time": 12498, "pitch": 78, "duration": 269, "velocity": 117}, {"time": 12987, "pitch": 77, "duration": 209, "velocity": 112}, {"time": 12987, "pitch": 80, "duration": 199, "velocity": 108}, {"time": 12997, "pitch": 71, "duration": 219, "velocity": 104}, {"time": 13792, "pitch": 71, "duration": 521, "velocity": 121}, {"time": 13802, "pitch": 76, "duration": 123, "velocity": 122}, {"time": 13802, "pitch": 80, "duration": 502, "velocity": 108}, {"time": 13945, "pitch": 77, "duration": 418, "velocity": 71}, {"time": 14423, "pitch": 70, "duration": 189, "velocity": 101}, {"time": 14433, "pitch": 78, "duration": 199, "velocity": 98}, {"time": 14443, "pitch": 71, "duration": 70, "velocity": 98}, {"time": 14443, "pitch": 75, "duration": 179, "velocity": 104}, {"time": 14892, "pitch": 77, "duration": 199, "velocity": 108}, {"time": 14902, "pitch": 68, "duration": 179, "velocity": 108}, {"time": 14902, "pitch": 73, "duration": 189, "velocity": 108}, {"time": 15390, "pitch": 68, "duration": 817, "velocity": 121}, {"time": 15390, "pitch": 80, "duration": 259, "velocity": 117}, {"time": 15699, "pitch": 80, "duration": 508, "velocity": 81}, {"time": 15709, "pitch": 72, "duration": 508, "velocity": 122}, {"time": 16337, "pitch": 68, "duration": 229, "velocity": 104}, {"time": 16337, "pitch": 72, "duration": 229, "velocity": 122}, {"time": 16337, "pitch": 80, "duration": 229, "velocity": 112}, {"time": 16805, "pitch": 80, "duration": 235, "velocity": 104}, {"time": 16815, "pitch": 68, "duration": 194, "velocity": 112}, {"time": 16815, "pitch": 73, "duration": 215, "velocity": 117}, {"time": 17305, "pitch": 68, "duration": 189, "velocity": 112}, {"time": 17305, "pitch": 73, "duration": 199, "velocity": 117}, {"time": 17305, "pitch": 80, "duration": 209, "velocity": 108}, {"time": 17793, "pitch": 74, "duration": 429, "velocity": 122}, {"time": 17793, "pitch": 80, "duration": 419, "velocity": 104}, {"time": 17803, "pitch": 68, "duration": 429, "velocity": 117}, {"time": 18580, "pitch": 80, "duration": 309, "velocity": 112}, {"time": 18590, "pitch": 68, "duration": 250, "velocity": 108}, {"time": 18590, "pitch": 75, "duration": 289, "velocity": 122}, {"time": 19388, "pitch": 81, "duration": 30, "velocity": 33}, {"time": 19547, "pitch": 75, "duration": 509, "velocity": 121}, {"time": 19547, "pitch": 79, "duration": 120, "velocity": 122}, {"time": 19547, "pitch": 83, "duration": 449, "velocity": 121}, {"time": 19587, "pitch": 80, "duration": 399, "velocity": 74}, {"time": 20175, "pitch": 73, "duration": 266, "velocity": 112}, {"time": 20175, "pitch": 78, "duration": 327, "velocity": 121}, {"time": 20175, "pitch": 80, "duration": 143, "velocity": 121}, {"time": 20175, "pitch": 82, "duration": 194, "velocity": 108}, {"time": 20665, "pitch": 80, "duration": 259, "velocity": 117}, {"time": 20675, "pitch": 71, "duration": 249, "velocity": 117}, {"time": 20675, "pitch": 77, "duration": 269, "velocity": 112}, {"time": 21452, "pitch": 82, "duration": 538, "velocity": 117}, {"time": 21462, "pitch": 76, "duration": 528, "velocity": 122}, {"time": 21462, "pitch": 85, "duration": 518, "velocity": 108}, {"time": 22100, "pitch": 75, "duration": 279, "velocity": 104}, {"time": 22100, "pitch": 80, "duration": 259, "velocity": 112}, {"time": 22100, "pitch": 83, "duration": 229, "velocity": 112}, {"time": 22578, "pitch": 73, "duration": 259, "velocity": 117}, {"time": 22578, "pitch": 78, "duration": 259, "velocity": 121}, {"time": 22578, "pitch": 82, "duration": 230, "velocity": 117}, {"time": 23376, "pitch": 71, "duration": 557, "velocity": 121}, {"time": 23386, "pitch": 76, "duration": 109, "velocity": 122}, {"time": 23386, "pitch": 80, "duration": 547, "velocity": 121}, {"time": 23515, "pitch": 77, "duration": 500, "velocity": 77}, {"time": 24035, "pitch": 70, "duration": 239, "velocity": 104}, {"time": 24035, "pitch": 75, "duration": 229, "velocity": 108}, {"time": 24035, "pitch": 78, "duration": 219, "velocity": 104}, {"time": 24503, "pitch": 68, "duration": 199, "velocity": 108}, {"time": 24503, "pitch": 73, "duration": 229, "velocity": 117}, {"time": 24503, "pitch": 77, "duration": 259, "velocity": 112}, {"time": 25290, "pitch": 73, "duration": 190, "velocity": 117}, {"time": 25290, "pitch": 85, "duration": 140, "velocity": 117}, {"time": 26257, "pitch": 76, "duration": 130, "velocity": 122}, {"time": 26257, "pitch": 80, "duration": 832, "velocity": 121}, {"time": 26267, "pitch": 71, "duration": 518, "velocity": 117}, {"time": 26317, "pitch": 77, "duration": 548, "velocity": 83}, {"time": 26895, "pitch": 71, "duration": 194, "velocity": 90}, {"time": 27059, "pitch": 74, "duration": 51, "velocity": 50}, {"time": 27222, "pitch": 68, "duration": 531, "velocity": 112}, {"time": 27232, "pitch": 72, "duration": 541, "velocity": 122}, {"time": 27232, "pitch": 80, "duration": 521, "velocity": 117}, {"time": 27873, "pitch": 72, "duration": 259, "velocity": 122}, {"time": 27883, "pitch": 68, "duration": 259, "velocity": 104}, {"time": 27883, "pitch": 80, "duration": 249, "velocity": 108}, {"time": 28361, "pitch": 68, "duration": 180, "velocity": 104}, {"time": 28361, "pitch": 73, "duration": 220, "velocity": 117}, {"time": 28361, "pitch": 80, "duration": 210, "velocity": 104}, {"time": 28830, "pitch": 74, "duration": 239, "velocity": 122}, {"time": 28840, "pitch": 68, "duration": 189, "velocity": 104}, {"time": 28840, "pitch": 80, "duration": 179, "velocity": 101}, {"time": 29318, "pitch": 75, "duration": 229, "velocity": 112}, {"time": 29328, "pitch": 68, "duration": 190, "velocity": 95}, {"time": 29328, "pitch": 80, "duration": 200, "velocity": 98}, {"time": 29787, "pitch": 80, "duration": 179, "velocity": 87}, {"time": 29797, "pitch": 68, "duration": 129, "velocity": 98}, {"time": 29797, "pitch": 76, "duration": 179, "velocity": 113}, {"time": 30266, "pitch": 77, "duration": 738, "velocity": 112}, {"time": 30266, "pitch": 80, "duration": 698, "velocity": 108}, {"time": 30276, "pitch": 68, "duration": 698, "velocity": 104}, {"time": 31084, "pitch": 68, "duration": 199, "velocity": 98}, {"time": 31084, "pitch": 78, "duration": 219, "velocity": 112}, {"time": 31084, "pitch": 80, "duration": 219, "velocity": 108}, {"time": 73317, "pitch": 59, "duration": 229, "velocity": 98}, {"time": 73317, "pitch": 65, "duration": 219, "velocity": 104}, {"time": 73317, "pitch": 70, "duration": 229, "velocity": 98}, {"time": 73317, "pitch": 82, "duration": 219, "velocity": 122}, {"time": 73327, "pitch": 77, "duration": 199, "velocity": 112}, {"time": 73327, "pitch": 85, "duration": 209, "velocity": 108}, {"time": 81145, "pitch": 78, "duration": 229, "velocity": 108}, {"time": 81145, "pitch": 83, "duration": 229, "velocity": 104}, {"time": 81145, "pitch": 95, "duration": 209, "velocity": 117}, {"time": 81155, "pitch": 72, "duration": 199, "velocity": 107}, {"time": 81962, "pitch": 95, "duration": 209, "velocity": 117}, {"time": 81982, "pitch": 72, "duration": 179, "velocity": 90}, {"time": 81982, "pitch": 78, "duration": 199, "velocity": 98}, {"time": 81982, "pitch": 83, "duration": 189, "velocity": 104}, {"time": 123239, "pitch": 59, "duration": 229, "velocity": 98}, {"time": 123239, "pitch": 65, "duration": 219, "velocity": 104}, {"time": 123239, "pitch": 70, "duration": 229, "velocity": 98}, {"time": 123239, "pitch": 82, "duration": 219, "velocity": 122}, {"time": 123249, "pitch": 77, "duration": 199, "velocity": 112}, {"time": 123249, "pitch": 85, "duration": 209, "velocity": 108}, {"time": 131055, "pitch": 78, "duration": 235, "velocity": 108}, {"time": 131055, "pitch": 83, "duration": 235, "velocity": 104}, {"time": 131055, "pitch": 95, "duration": 215, "velocity": 117}, {"time": 131066, "pitch": 72, "duration": 204, "velocity": 107}, {"time": 131883, "pitch": 95, "duration": 210, "velocity": 117}, {"time": 131903, "pitch": 72, "duration": 180, "velocity": 90}, {"time": 131903, "pitch": 78, "duration": 200, "velocity": 98}, {"time": 131903, "pitch": 83, "duration": 190, "velocity": 104}, {"time": 134742, "pitch": 75, "duration": 561, "velocity": 112}, {"time": 134752, "pitch": 79, "duration": 112, "velocity": 122}, {"time": 134752, "pitch": 83, "duration": 521, "velocity": 112}, {"time": 134885, "pitch": 80, "duration": 448, "velocity": 81}, {"time": 135393, "pitch": 82, "duration": 219, "velocity": 112}, {"time": 135403, "pitch": 78, "duration": 269, "velocity": 112}, {"time": 135413, "pitch": 73, "duration": 249, "velocity": 117}, {"time": 135881, "pitch": 71, "duration": 200, "velocity": 104}, {"time": 135881, "pitch": 77, "duration": 210, "velocity": 112}, {"time": 135891, "pitch": 80, "duration": 200, "velocity": 104}, {"time": 136659, "pitch": 71, "duration": 548, "velocity": 117}, {"time": 136659, "pitch": 76, "duration": 99, "velocity": 122}, {"time": 136659, "pitch": 80, "duration": 548, "velocity": 121}, {"time": 136709, "pitch": 77, "duration": 488, "velocity": 74}, {"time": 137297, "pitch": 70, "duration": 249, "velocity": 95}, {"time": 137297, "pitch": 78, "duration": 229, "velocity": 95}, {"time": 137307, "pitch": 75, "duration": 229, "velocity": 104}, {"time": 137796, "pitch": 68, "duration": 224, "velocity": 108}, {"time": 137796, "pitch": 73, "duration": 234, "velocity": 112}, {"time": 137796, "pitch": 77, "duration": 214, "velocity": 112}, {"time": 138603, "pitch": 68, "duration": 519, "velocity": 112}, {"time": 138603, "pitch": 73, "duration": 569, "velocity": 117}, {"time": 138603, "pitch": 77, "duration": 519, "velocity": 117}, {"time": 139231, "pitch": 66, "duration": 279, "velocity": 95}, {"time": 139231, "pitch": 71, "duration": 190, "velocity": 104}, {"time": 139231, "pitch": 75, "duration": 220, "velocity": 101}, {"time": 139710, "pitch": 65, "duration": 199, "velocity": 104}, {"time": 139720, "pitch": 68, "duration": 209, "velocity": 112}, {"time": 139720, "pitch": 73, "duration": 239, "velocity": 112}, {"time": 140657, "pitch": 76, "duration": 39, "velocity": 122}, {"time": 140667, "pitch": 71, "duration": 229, "velocity": 104}, {"time": 140667, "pitch": 82, "duration": 249, "velocity": 108}, {"time": 140667, "pitch": 85, "duration": 239, "velocity": 104}, {"time": 140687, "pitch": 77, "duration": 199, "velocity": 98}, {"time": 140696, "pitch": 76, "duration": 30, "velocity": 53}, {"time": 141472, "pitch": 71, "duration": 302, "velocity": 95}, {"time": 141472, "pitch": 76, "duration": 112, "velocity": 122}, {"time": 141482, "pitch": 82, "duration": 252, "velocity": 112}, {"time": 141482, "pitch": 85, "duration": 242, "velocity": 104}, {"time": 141605, "pitch": 77, "duration": 179, "velocity": 95}, {"time": 142412, "pitch": 75, "duration": 538, "velocity": 112}, {"time": 142422, "pitch": 79, "duration": 110, "velocity": 122}, {"time": 142422, "pitch": 83, "duration": 488, "velocity": 112}, {"time": 142452, "pitch": 80, "duration": 438, "velocity": 68}, {"time": 143050, "pitch": 82, "duration": 229, "velocity": 104}, {"time": 143060, "pitch": 73, "duration": 239, "velocity": 104}, {"time": 143060, "pitch": 78, "duration": 269, "velocity": 117}, {"time": 143548, "pitch": 77, "duration": 209, "velocity": 112}, {"time": 143548, "pitch": 80, "duration": 199, "velocity": 108}, {"time": 143558, "pitch": 71, "duration": 219, "velocity": 104}, {"time": 144346, "pitch": 71, "duration": 527, "velocity": 121}, {"time": 144355, "pitch": 76, "duration": 120, "velocity": 122}, {"time": 144355, "pitch": 80, "duration": 508, "velocity": 108}, {"time": 144495, "pitch": 77, "duration": 429, "velocity": 71}, {"time": 144985, "pitch": 70, "duration": 189, "velocity": 101}, {"time": 144995, "pitch": 78, "duration": 199, "velocity": 98}, {"time": 145005, "pitch": 71, "duration": 69, "velocity": 98}, {"time": 145005, "pitch": 75, "duration": 179, "velocity": 104}, {"time": 145453, "pitch": 77, "duration": 199, "velocity": 108}, {"time": 145463, "pitch": 68, "duration": 179, "velocity": 108}, {"time": 145463, "pitch": 73, "duration": 189, "velocity": 108}, {"time": 145951, "pitch": 68, "duration": 818, "velocity": 121}, {"time": 145951, "pitch": 80, "duration": 259, "velocity": 117}, {"time": 146260, "pitch": 80, "duration": 509, "velocity": 81}, {"time": 146270, "pitch": 72, "duration": 509, "velocity": 122}, {"time": 146898, "pitch": 68, "duration": 229, "velocity": 104}, {"time": 146898, "pitch": 72, "duration": 229, "velocity": 122}, {"time": 146898, "pitch": 80, "duration": 229, "velocity": 112}, {"time": 147367, "pitch": 80, "duration": 229, "velocity": 104}, {"time": 147377, "pitch": 68, "duration": 189, "velocity": 112}, {"time": 147377, "pitch": 73, "duration": 209, "velocity": 117}, {"time": 147855, "pitch": 68, "duration": 194, "velocity": 112}, {"time": 147855, "pitch": 73, "duration": 204, "velocity": 117}, {"time": 147855, "pitch": 80, "duration": 215, "velocity": 108}, {"time": 148355, "pitch": 74, "duration": 428, "velocity": 122}, {"time": 148355, "pitch": 80, "duration": 418, "velocity": 104}, {"time": 148365, "pitch": 68, "duration": 428, "velocity": 117}, {"time": 149142, "pitch": 80, "duration": 309, "velocity": 112}, {"time": 149152, "pitch": 68, "duration": 249, "velocity": 108}, {"time": 149152, "pitch": 75, "duration": 289, "velocity": 122}, {"time": 149949, "pitch": 81, "duration": 30, "velocity": 33}, {"time": 150109, "pitch": 75, "duration": 508, "velocity": 121}, {"time": 150109, "pitch": 79, "duration": 119, "velocity": 122}, {"time": 150109, "pitch": 83, "duration": 448, "velocity": 121}, {"time": 150149, "pitch": 80, "duration": 398, "velocity": 74}, {"time": 150737, "pitch": 73, "duration": 259, "velocity": 112}, {"time": 150737, "pitch": 78, "duration": 319, "velocity": 121}, {"time": 150737, "pitch": 80, "duration": 139, "velocity": 121}, {"time": 150737, "pitch": 82, "duration": 189, "velocity": 108}, {"time": 151215, "pitch": 80, "duration": 266, "velocity": 117}, {"time": 151226, "pitch": 71, "duration": 255, "velocity": 117}, {"time": 151226, "pitch": 77, "duration": 275, "velocity": 112}, {"time": 152014, "pitch": 82, "duration": 538, "velocity": 117}, {"time": 152024, "pitch": 76, "duration": 528, "velocity": 122}, {"time": 152024, "pitch": 85, "duration": 518, "velocity": 108}, {"time": 152661, "pitch": 75, "duration": 279, "velocity": 104}, {"time": 152661, "pitch": 80, "duration": 260, "velocity": 112}, {"time": 152661, "pitch": 83, "duration": 230, "velocity": 112}, {"time": 153140, "pitch": 73, "duration": 259, "velocity": 117}, {"time": 153140, "pitch": 78, "duration": 259, "velocity": 121}, {"time": 153140, "pitch": 82, "duration": 229, "velocity": 117}, {"time": 153937, "pitch": 71, "duration": 548, "velocity": 121}, {"time": 153947, "pitch": 76, "duration": 110, "velocity": 122}, {"time": 153947, "pitch": 80, "duration": 538, "velocity": 121}, {"time": 154077, "pitch": 77, "duration": 488, "velocity": 77}, {"time": 154586, "pitch": 70, "duration": 244, "velocity": 104}, {"time": 154586, "pitch": 75, "duration": 234, "velocity": 108}, {"time": 154586, "pitch": 78, "duration": 224, "velocity": 104}, {"time": 155065, "pitch": 68, "duration": 199, "velocity": 108}, {"time": 155065, "pitch": 73, "duration": 229, "velocity": 117}, {"time": 155065, "pitch": 77, "duration": 259, "velocity": 112}, {"time": 155852, "pitch": 73, "duration": 189, "velocity": 117}, {"time": 155852, "pitch": 85, "duration": 139, "velocity": 117}, {"time": 156819, "pitch": 76, "duration": 129, "velocity": 122}, {"time": 156819, "pitch": 80, "duration": 827, "velocity": 121}, {"time": 156829, "pitch": 71, "duration": 518, "velocity": 117}, {"time": 156879, "pitch": 77, "duration": 548, "velocity": 83}, {"time": 157457, "pitch": 71, "duration": 189, "velocity": 90}, {"time": 157616, "pitch": 74, "duration": 50, "velocity": 50}, {"time": 157776, "pitch": 68, "duration": 537, "velocity": 112}, {"time": 157785, "pitch": 72, "duration": 548, "velocity": 122}, {"time": 157785, "pitch": 80, "duration": 528, "velocity": 117}, {"time": 158435, "pitch": 72, "duration": 259, "velocity": 122}, {"time": 158444, "pitch": 68, "duration": 260, "velocity": 104}, {"time": 158444, "pitch": 80, "duration": 250, "velocity": 108}, {"time": 158923, "pitch": 68, "duration": 179, "velocity": 104}, {"time": 158923, "pitch": 73, "duration": 219, "velocity": 117}, {"time": 158923, "pitch": 80, "duration": 209, "velocity": 104}, {"time": 159391, "pitch": 74, "duration": 240, "velocity": 122}, {"time": 159401, "pitch": 68, "duration": 190, "velocity": 104}, {"time": 159401, "pitch": 80, "duration": 180, "velocity": 101}, {"time": 159880, "pitch": 75, "duration": 229, "velocity": 112}, {"time": 159890, "pitch": 68, "duration": 189, "velocity": 95}, {"time": 159890, "pitch": 80, "duration": 199, "velocity": 98}, {"time": 160348, "pitch": 80, "duration": 180, "velocity": 87}, {"time": 160358, "pitch": 68, "duration": 130, "velocity": 98}, {"time": 160358, "pitch": 76, "duration": 180, "velocity": 113}, {"time": 160827, "pitch": 77, "duration": 734, "velocity": 112}, {"time": 160827, "pitch": 80, "duration": 693, "velocity": 108}, {"time": 160837, "pitch": 68, "duration": 693, "velocity": 104}, {"time": 161642, "pitch": 68, "duration": 202, "velocity": 98}, {"time": 161642, "pitch": 78, "duration": 222, "velocity": 112}, {"time": 161642, "pitch": 80, "duration": 222, "velocity": 108}, {"time": 203879, "pitch": 59, "duration": 229, "velocity": 98}, {"time": 203879, "pitch": 65, "duration": 219, "velocity": 104}, {"time": 203879, "pitch": 70, "duration": 229, "velocity": 98}, {"time": 203879, "pitch": 82, "duration": 219, "velocity": 122}, {"time": 203889, "pitch": 77, "duration": 199, "velocity": 112}, {"time": 203889, "pitch": 85, "duration": 209, "velocity": 108}, {"time": 211685, "pitch": 73, "duration": 316, "velocity": 93}, {"time": 212001, "pitch": 75, "duration": 233, "velocity": 107}, {"time": 212274, "pitch": 73, "duration": 259, "velocity": 107}, {"time": 212533, "pitch": 68, "duration": 170, "velocity": 107}, {"time": 212763, "pitch": 77, "duration": 259, "velocity": 95}, {"time": 213141, "pitch": 72, "duration": 80, "velocity": 101}, {"time": 213171, "pitch": 73, "duration": 259, "velocity": 101}, {"time": 213470, "pitch": 72, "duration": 1276, "velocity": 107}, {"time": 215035, "pitch": 68, "duration": 275, "velocity": 101}, {"time": 215341, "pitch": 68, "duration": 122, "velocity": 100}, {"time": 215525, "pitch": 70, "duration": 269, "velocity": 101}, {"time": 215824, "pitch": 69, "duration": 119, "velocity": 100}, {"time": 216003, "pitch": 70, "duration": 269, "velocity": 101}, {"time": 216481, "pitch": 72, "duration": 269, "velocity": 101}, {"time": 216780, "pitch": 71, "duration": 120, "velocity": 100}, {"time": 216960, "pitch": 72, "duration": 269, "velocity": 101}, {"time": 217448, "pitch": 72, "duration": 100, "velocity": 101}, {"time": 217518, "pitch": 73, "duration": 1316, "velocity": 106}, {"time": 223062, "pitch": 61, "duration": 279, "velocity": 108}, {"time": 223062, "pitch": 85, "duration": 279, "velocity": 122}, {"time": 223062, "pitch": 97, "duration": 299, "velocity": 112}, {"time": 223072, "pitch": 73, "duration": 279, "velocity": 121}, {"time": 223540, "pitch": 85, "duration": 170, "velocity": 101}, {"time": 223710, "pitch": 73, "duration": 199, "velocity": 83}, {"time": 224198, "pitch": 77, "duration": 199, "velocity": 117}, {"time": 224676, "pitch": 80, "duration": 170, "velocity": 112}, {"time": 225166, "pitch": 82, "duration": 748, "velocity": 121}, {"time": 225943, "pitch": 85, "duration": 220, "velocity": 117}, {"time": 226910, "pitch": 75, "duration": 558, "velocity": 117}, {"time": 226910, "pitch": 79, "duration": 120, "velocity": 122}, {"time": 226910, "pitch": 83, "duration": 509, "velocity": 121}, {"time": 227040, "pitch": 80, "duration": 448, "velocity": 79}, {"time": 227548, "pitch": 78, "duration": 329, "velocity": 112}, {"time": 227558, "pitch": 73, "duration": 259, "velocity": 108}, {"time": 227558, "pitch": 82, "duration": 239, "velocity": 108}, {"time": 228036, "pitch": 71, "duration": 250, "velocity": 108}, {"time": 228046, "pitch": 77, "duration": 260, "velocity": 117}, {"time": 228046, "pitch": 80, "duration": 260, "velocity": 108}, {"time": 228842, "pitch": 71, "duration": 561, "velocity": 117}, {"time": 228842, "pitch": 76, "duration": 142, "velocity": 122}, {"time": 228852, "pitch": 80, "duration": 531, "velocity": 117}, {"time": 228994, "pitch": 77, "duration": 469, "velocity": 72}, {"time": 229493, "pitch": 70, "duration": 229, "velocity": 104}, {"time": 229493, "pitch": 75, "duration": 229, "velocity": 104}, {"time": 229493, "pitch": 78, "duration": 239, "velocity": 98}, {"time": 229961, "pitch": 68, "duration": 180, "velocity": 101}, {"time": 229961, "pitch": 73, "duration": 210, "velocity": 104}, {"time": 229961, "pitch": 77, "duration": 190, "velocity": 112}, {"time": 230270, "pitch": 68, "duration": 90, "velocity": 95}, {"time": 230430, "pitch": 70, "duration": 229, "velocity": 112}, {"time": 230759, "pitch": 73, "duration": 149, "velocity": 121}, {"time": 231078, "pitch": 81, "duration": 49, "velocity": 29}, {"time": 231237, "pitch": 85, "duration": 229, "velocity": 101}, {"time": 231396, "pitch": 73, "duration": 250, "velocity": 101}, {"time": 231876, "pitch": 77, "duration": 245, "velocity": 121}, {"time": 232364, "pitch": 80, "duration": 210, "velocity": 108}, {"time": 232853, "pitch": 82, "duration": 658, "velocity": 121}, {"time": 233650, "pitch": 85, "duration": 120, "velocity": 109}, {"time": 233800, "pitch": 65, "duration": 169, "velocity": 108}, {"time": 233800, "pitch": 77, "duration": 169, "velocity": 108}, {"time": 234109, "pitch": 68, "duration": 109, "velocity": 95}, {"time": 234109, "pitch": 80, "duration": 109, "velocity": 95}, {"time": 234268, "pitch": 70, "duration": 219, "velocity": 104}, {"time": 234268, "pitch": 82, "duration": 219, "velocity": 104}, {"time": 234278, "pitch": 68, "duration": 20, "velocity": 49}, {"time": 234278, "pitch": 80, "duration": 20, "velocity": 49}, {"time": 234587, "pitch": 65, "duration": 349, "velocity": 117}, {"time": 234587, "pitch": 70, "duration": 359, "velocity": 104}, {"time": 234587, "pitch": 85, "duration": 369, "velocity": 117}, {"time": 235055, "pitch": 85, "duration": 120, "velocity": 104}, {"time": 235065, "pitch": 65, "duration": 80, "velocity": 108}, {"time": 235075, "pitch": 70, "duration": 70, "velocity": 75}, {"time": 235225, "pitch": 64, "duration": 245, "velocity": 121}, {"time": 235225, "pitch": 69, "duration": 235, "velocity": 113}, {"time": 235236, "pitch": 84, "duration": 245, "velocity": 122}, {"time": 235714, "pitch": 63, "duration": 937, "velocity": 122}, {"time": 235714, "pitch": 68, "duration": 897, "velocity": 117}, {"time": 235724, "pitch": 83, "duration": 937, "velocity": 122}, {"time": 236661, "pitch": 59, "duration": 140, "velocity": 109}, {"time": 236661, "pitch": 71, "duration": 140, "velocity": 109}, {"time": 236821, "pitch": 68, "duration": 119, "velocity": 110}, {"time": 236821, "pitch": 80, "duration": 119, "velocity": 110}, {"time": 236970, "pitch": 59, "duration": 110, "velocity": 111}, {"time": 236970, "pitch": 71, "duration": 110, "velocity": 111}, {"time": 237130, "pitch": 66, "duration": 189, "velocity": 111}, {"time": 237130, "pitch": 78, "duration": 189, "velocity": 111}, {"time": 237289, "pitch": 68, "duration": 90, "velocity": 112}, {"time": 237289, "pitch": 80, "duration": 90, "velocity": 112}, {"time": 237449, "pitch": 71, "duration": 129, "velocity": 113}, {"time": 237449, "pitch": 83, "duration": 129, "velocity": 113}, {"time": 237618, "pitch": 80, "duration": 150, "velocity": 113}, {"time": 237618, "pitch": 92, "duration": 150, "velocity": 113}, {"time": 237778, "pitch": 71, "duration": 149, "velocity": 114}, {"time": 237778, "pitch": 83, "duration": 149, "velocity": 114}, {"time": 237937, "pitch": 78, "duration": 199, "velocity": 115}, {"time": 237937, "pitch": 90, "duration": 199, "velocity": 115}, {"time": 238097, "pitch": 80, "duration": 229, "velocity": 116}, {"time": 238097, "pitch": 92, "duration": 229, "velocity": 116}, {"time": 238425, "pitch": 65, "duration": 171, "velocity": 122}, {"time": 238425, "pitch": 85, "duration": 171, "velocity": 121}, {"time": 238425, "pitch": 97, "duration": 171, "velocity": 121}, {"time": 238435, "pitch": 59, "duration": 161, "velocity": 95}, {"time": 238435, "pitch": 70, "duration": 161, "velocity": 121}, {"time": 505, "pitch": 78, "duration": 229, "velocity": 108}, {"time": 505, "pitch": 83, "duration": 229, "velocity": 104}, {"time": 505, "pitch": 95, "duration": 209, "velocity": 117}, {"time": 515, "pitch": 72, "duration": 199, "velocity": 107}, {"time": 1322, "pitch": 95, "duration": 209, "velocity": 117}, {"time": 1342, "pitch": 72, "duration": 179, "velocity": 90}, {"time": 1342, "pitch": 78, "duration": 199, "velocity": 98}, {"time": 1342, "pitch": 83, "duration": 189, "velocity": 104}, {"time": 4184, "pitch": 75, "duration": 558, "velocity": 112}, {"time": 4194, "pitch": 79, "duration": 109, "velocity": 122}, {"time": 4194, "pitch": 83, "duration": 518, "velocity": 112}, {"time": 4323, "pitch": 80, "duration": 449, "velocity": 81}, {"time": 4831, "pitch": 82, "duration": 220, "velocity": 112}, {"time": 4841, "pitch": 78, "duration": 270, "velocity": 112}, {"time": 4851, "pitch": 73, "duration": 250, "velocity": 117}, {"time": 5320, "pitch": 71, "duration": 199, "velocity": 104}, {"time": 5320, "pitch": 77, "duration": 209, "velocity": 112}, {"time": 5330, "pitch": 80, "duration": 199, "velocity": 104}, {"time": 6097, "pitch": 71, "duration": 548, "velocity": 117}, {"time": 6097, "pitch": 76, "duration": 100, "velocity": 122}, {"time": 6097, "pitch": 80, "duration": 548, "velocity": 121}, {"time": 6147, "pitch": 77, "duration": 488, "velocity": 74}, {"time": 6736, "pitch": 70, "duration": 255, "velocity": 95}, {"time": 6736, "pitch": 78, "duration": 234, "velocity": 95}, {"time": 6746, "pitch": 75, "duration": 234, "velocity": 104}, {"time": 7245, "pitch": 68, "duration": 219, "velocity": 108}, {"time": 7245, "pitch": 73, "duration": 229, "velocity": 112}, {"time": 7245, "pitch": 77, "duration": 209, "velocity": 112}, {"time": 8042, "pitch": 68, "duration": 518, "velocity": 112}, {"time": 8042, "pitch": 73, "duration": 568, "velocity": 117}, {"time": 8042, "pitch": 77, "duration": 518, "velocity": 117}, {"time": 8670, "pitch": 66, "duration": 279, "velocity": 95}, {"time": 8670, "pitch": 71, "duration": 189, "velocity": 104}, {"time": 8670, "pitch": 75, "duration": 219, "velocity": 101}, {"time": 9148, "pitch": 65, "duration": 200, "velocity": 104}, {"time": 9158, "pitch": 68, "duration": 210, "velocity": 112}, {"time": 9158, "pitch": 73, "duration": 239, "velocity": 112}, {"time": 10095, "pitch": 76, "duration": 41, "velocity": 122}, {"time": 10106, "pitch": 71, "duration": 234, "velocity": 104}, {"time": 10106, "pitch": 82, "duration": 255, "velocity": 108}, {"time": 10106, "pitch": 85, "duration": 245, "velocity": 104}, {"time": 10126, "pitch": 77, "duration": 204, "velocity": 98}, {"time": 10136, "pitch": 76, "duration": 31, "velocity": 53}, {"time": 10914, "pitch": 71, "duration": 299, "velocity": 95}, {"time": 10914, "pitch": 76, "duration": 109, "velocity": 122}, {"time": 10924, "pitch": 82, "duration": 249, "velocity": 112}, {"time": 10924, "pitch": 85, "duration": 239, "velocity": 104}, {"time": 11043, "pitch": 77, "duration": 180, "velocity": 95}, {"time": 11850, "pitch": 75, "duration": 539, "velocity": 112}, {"time": 11860, "pitch": 79, "duration": 110, "velocity": 122}, {"time": 11860, "pitch": 83, "duration": 489, "velocity": 112}, {"time": 11890, "pitch": 80, "duration": 439, "velocity": 68}, {"time": 12488, "pitch": 82, "duration": 230, "velocity": 104}, {"time": 12498, "pitch": 73, "duration": 240, "velocity": 104}, {"time": 12498, "pitch": 78, "duration": 269, "velocity": 117}, {"time": 12987, "pitch": 77, "duration": 209, "velocity": 112}, {"time": 12987, "pitch": 80, "duration": 199, "velocity": 108}, {"time": 12997, "pitch": 71, "duration": 219, "velocity": 104}, {"time": 13792, "pitch": 71, "duration": 521, "velocity": 121}, {"time": 13802, "pitch": 76, "duration": 123, "velocity": 122}, {"time": 13802, "pitch": 80, "duration": 502, "velocity": 108}, {"time": 13945, "pitch": 77, "duration": 418, "velocity": 71}, {"time": 14423, "pitch": 70, "duration": 189, "velocity": 101}, {"time": 14433, "pitch": 78, "duration": 199, "velocity": 98}, {"time": 14443, "pitch": 71, "duration": 70, "velocity": 98}, {"time": 14443, "pitch": 75, "duration": 179, "velocity": 104}, {"time": 14892, "pitch": 77, "duration": 199, "velocity": 108}, {"time": 14902, "pitch": 68, "duration": 179, "velocity": 108}, {"time": 14902, "pitch": 73, "duration": 189, "velocity": 108}, {"time": 15390, "pitch": 68, "duration": 817, "velocity": 121}, {"time": 15390, "pitch": 80, "duration": 259, "velocity": 117}, {"time": 15699, "pitch": 80, "duration": 508, "velocity": 81}, {"time": 15709, "pitch": 72, "duration": 508, "velocity": 122}, {"time": 16337, "pitch": 68, "duration": 229, "velocity": 104}, {"time": 16337, "pitch": 72, "duration": 229, "velocity": 122}, {"time": 16337, "pitch": 80, "duration": 229, "velocity": 112}, {"time": 16805, "pitch": 80, "duration": 235, "velocity": 104}, {"time": 16815, "pitch": 68, "duration": 194, "velocity": 112}, {"time": 16815, "pitch": 73, "duration": 215, "velocity": 117}, {"time": 17305, "pitch": 68, "duration": 189, "velocity": 112}, {"time": 17305, "pitch": 73, "duration": 199, "velocity": 117}, {"time": 17305, "pitch": 80, "duration": 209, "velocity": 108}, {"time": 17793, "pitch": 74, "duration": 429, "velocity": 122}, {"time": 17793, "pitch": 80, "duration": 419, "velocity": 104}, {"time": 17803, "pitch": 68, "duration": 429, "velocity": 117}, {"time": 18580, "pitch": 80, "duration": 309, "velocity": 112}, {"time": 18590, "pitch": 68, "duration": 250, "velocity": 108}, {"time": 18590, "pitch": 75, "duration": 289, "velocity": 122}, {"time": 19388, "pitch": 81, "duration": 30, "velocity": 33}, {"time": 19547, "pitch": 75, "duration": 509, "velocity": 121}, {"time": 19547, "pitch": 79, "duration": 120, "velocity": 122}, {"time": 19547, "pitch": 83, "duration": 449, "velocity": 121}, {"time": 19587, "pitch": 80, "duration": 399, "velocity": 74}, {"time": 20175, "pitch": 73, "duration": 266, "velocity": 112}, {"time": 20175, "pitch": 78, "duration": 327, "velocity": 121}, {"time": 20175, "pitch": 80, "duration": 143, "velocity": 121}, {"time": 20175, "pitch": 82, "duration": 194, "velocity": 108}, {"time": 20665, "pitch": 80, "duration": 259, "velocity": 117}, {"time": 20675, "pitch": 71, "duration": 249, "velocity": 117}, {"time": 20675, "pitch": 77, "duration": 269, "velocity": 112}, {"time": 21452, "pitch": 82, "duration": 538, "velocity": 117}, {"time": 21462, "pitch": 76, "duration": 528, "velocity": 122}, {"time": 21462, "pitch": 85, "duration": 518, "velocity": 108}, {"time": 22100, "pitch": 75, "duration": 279, "velocity": 104}, {"time": 22100, "pitch": 80, "duration": 259, "velocity": 112}, {"time": 22100, "pitch": 83, "duration": 229, "velocity": 112}, {"time": 22578, "pitch": 73, "duration": 259, "velocity": 117}, {"time": 22578, "pitch": 78, "duration": 259, "velocity": 121}, {"time": 22578, "pitch": 82, "duration": 230, "velocity": 117}, {"time": 23376, "pitch": 71, "duration": 557, "velocity": 121}, {"time": 23386, "pitch": 76, "duration": 109, "velocity": 122}, {"time": 23386, "pitch": 80, "duration": 547, "velocity": 121}, {"time": 23515, "pitch": 77, "duration": 500, "velocity": 77}, {"time": 24035, "pitch": 70, "duration": 239, "velocity": 104}, {"time": 24035, "pitch": 75, "duration": 229, "velocity": 108}, {"time": 24035, "pitch": 78, "duration": 219, "velocity": 104}, {"time": 24503, "pitch": 68, "duration": 199, "velocity": 108}, {"time": 24503, "pitch": 73, "duration": 229, "velocity": 117}, {"time": 24503, "pitch": 77, "duration": 259, "velocity": 112}, {"time": 25290, "pitch": 73, "duration": 190, "velocity": 117}, {"time": 25290, "pitch": 85, "duration": 140, "velocity": 117}, {"time": 26257, "pitch": 76, "duration": 130, "velocity": 122}, {"time": 26257, "pitch": 80, "duration": 832, "velocity": 121}, {"time": 26267, "pitch": 71, "duration": 518, "velocity": 117}, {"time": 26317, "pitch": 77, "duration": 548, "velocity": 83}, {"time": 26895, "pitch": 71, "duration": 194, "velocity": 90}, {"time": 27059, "pitch": 74, "duration": 51, "velocity": 50}, {"time": 27222, "pitch": 68, "duration": 531, "velocity": 112}, {"time": 27232, "pitch": 72, "duration": 541, "velocity": 122}, {"time": 27232, "pitch": 80, "duration": 521, "velocity": 117}, {"time": 27873, "pitch": 72, "duration": 259, "velocity": 122}, {"time": 27883, "pitch": 68, "duration": 259, "velocity": 104}, {"time": 27883, "pitch": 80, "duration": 249, "velocity": 108}, {"time": 28361, "pitch": 68, "duration": 180, "velocity": 104}, {"time": 28361, "pitch": 73, "duration": 220, "velocity": 117}, {"time": 28361, "pitch": 80, "duration": 210, "velocity": 104}, {"time": 28830, "pitch": 74, "duration": 239, "velocity": 122}, {"time": 28840, "pitch": 68, "duration": 189, "velocity": 104}, {"time": 28840, "pitch": 80, "duration": 179, "velocity": 101}, {"time": 29318, "pitch": 75, "duration": 229, "velocity": 112}, {"time": 29328, "pitch": 68, "duration": 190, "velocity": 95}, {"time": 29328, "pitch": 80, "duration": 200, "velocity": 98}, {"time": 29787, "pitch": 80, "duration": 179, "velocity": 87}, {"time": 29797, "pitch": 68, "duration": 129, "velocity": 98}, {"time": 29797, "pitch": 76, "duration": 179, "velocity": 113}, {"time": 30266, "pitch": 77, "duration": 738, "velocity": 112}, {"time": 30266, "pitch": 80, "duration": 698, "velocity": 108}, {"time": 30276, "pitch": 68, "duration": 698, "velocity": 104}, {"time": 31084, "pitch": 68, "duration": 199, "velocity": 98}, {"time": 31084, "pitch": 78, "duration": 219, "velocity": 112}, {"time": 31084, "pitch": 80, "duration": 219, "velocity": 108}, {"time": 73317, "pitch": 59, "duration": 229, "velocity": 98}, {"time": 73317, "pitch": 65, "duration": 219, "velocity": 104}, {"time": 73317, "pitch": 70, "duration": 229, "velocity": 98}, {"time": 73317, "pitch": 82, "duration": 219, "velocity": 122}, {"time": 73327, "pitch": 77, "duration": 199, "velocity": 112}, {"time": 73327, "pitch": 85, "duration": 209, "velocity": 108}, {"time": 81145, "pitch": 78, "duration": 229, "velocity": 108}, {"time": 81145, "pitch": 83, "duration": 229, "velocity": 104}, {"time": 81145, "pitch": 95, "duration": 209, "velocity": 117}, {"time": 81155, "pitch": 72, "duration": 199, "velocity": 107}, {"time": 81962, "pitch": 95, "duration": 209, "velocity": 117}, {"time": 81982, "pitch": 72, "duration": 179, "velocity": 90}, {"time": 81982, "pitch": 78, "duration": 199, "velocity": 98}, {"time": 81982, "pitch": 83, "duration": 189, "velocity": 104}, {"time": 123239, "pitch": 59, "duration": 229, "velocity": 98}, {"time": 123239, "pitch": 65, "duration": 219, "velocity": 104}, {"time": 123239, "pitch": 70, "duration": 229, "velocity": 98}, {"time": 123239, "pitch": 82, "duration": 219, "velocity": 122}, {"time": 123249, "pitch": 77, "duration": 199, "velocity": 112}, {"time": 123249, "pitch": 85, "duration": 209, "velocity": 108}, {"time": 131055, "pitch": 78, "duration": 235, "velocity": 108}, {"time": 131055, "pitch": 83, "duration": 235, "velocity": 104}, {"time": 131055, "pitch": 95, "duration": 215, "velocity": 117}, {"time": 131066, "pitch": 72, "duration": 204, "velocity": 107}, {"time": 131883, "pitch": 95, "duration": 210, "velocity": 117}, {"time": 131903, "pitch": 72, "duration": 180, "velocity": 90}, {"time": 131903, "pitch": 78, "duration": 200, "velocity": 98}, {"time": 131903, "pitch": 83, "duration": 190, "velocity": 104}, {"time": 134742, "pitch": 75, "duration": 561, "velocity": 112}, {"time": 134752, "pitch": 79, "duration": 112, "velocity": 122}, {"time": 134752, "pitch": 83, "duration": 521, "velocity": 112}, {"time": 134885, "pitch": 80, "duration": 448, "velocity": 81}, {"time": 135393, "pitch": 82, "duration": 219, "velocity": 112}, {"time": 135403, "pitch": 78, "duration": 269, "velocity": 112}, {"time": 135413, "pitch": 73, "duration": 249, "velocity": 117}, {"time": 135881, "pitch": 71, "duration": 200, "velocity": 104}, {"time": 135881, "pitch": 77, "duration": 210, "velocity": 112}, {"time": 135891, "pitch": 80, "duration": 200, "velocity": 104}, {"time": 136659, "pitch": 71, "duration": 548, "velocity": 117}, {"time": 136659, "pitch": 76, "duration": 99, "velocity": 122}, {"time": 136659, "pitch": 80, "duration": 548, "velocity": 121}, {"time": 136709, "pitch": 77, "duration": 488, "velocity": 74}, {"time": 137297, "pitch": 70, "duration": 249, "velocity": 95}, {"time": 137297, "pitch": 78, "duration": 229, "velocity": 95}, {"time": 137307, "pitch": 75, "duration": 229, "velocity": 104}, {"time": 137796, "pitch": 68, "duration": 224, "velocity": 108}, {"time": 137796, "pitch": 73, "duration": 234, "velocity": 112}, {"time": 137796, "pitch": 77, "duration": 214, "velocity": 112}, {"time": 138603, "pitch": 68, "duration": 519, "velocity": 112}, {"time": 138603, "pitch": 73, "duration": 569, "velocity": 117}, {"time": 138603, "pitch": 77, "duration": 519, "velocity": 117}, {"time": 139231, "pitch": 66, "duration": 279, "velocity": 95}, {"time": 139231, "pitch": 71, "duration": 190, "velocity": 104}, {"time": 139231, "pitch": 75, "duration": 220, "velocity": 101}, {"time": 139710, "pitch": 65, "duration": 199, "velocity": 104}, {"time": 139720, "pitch": 68, "duration": 209, "velocity": 112}, {"time": 139720, "pitch": 73, "duration": 239, "velocity": 112}, {"time": 140657, "pitch": 76, "duration": 39, "velocity": 122}, {"time": 140667, "pitch": 71, "duration": 229, "velocity": 104}, {"time": 140667, "pitch": 82, "duration": 249, "velocity": 108}, {"time": 140667, "pitch": 85, "duration": 239, "velocity": 104}, {"time": 140687, "pitch": 77, "duration": 199, "velocity": 98}, {"time": 140696, "pitch": 76, "duration": 30, "velocity": 53}, {"time": 141472, "pitch": 71, "duration": 302, "velocity": 95}, {"time": 141472, "pitch": 76, "duration": 112, "velocity": 122}, {"time": 141482, "pitch": 82, "duration": 252, "velocity": 112}, {"time": 141482, "pitch": 85, "duration": 242, "velocity": 104}, {"time": 141605, "pitch": 77, "duration": 179, "velocity": 95}, {"time": 142412, "pitch": 75, "duration": 538, "velocity": 112}, {"time": 142422, "pitch": 79, "duration": 110, "velocity": 122}, {"time": 142422, "pitch": 83, "duration": 488, "velocity": 112}, {"time": 142452, "pitch": 80, "duration": 438, "velocity": 68}, {"time": 143050, "pitch": 82, "duration": 229, "velocity": 104}, {"time": 143060, "pitch": 73, "duration": 239, "velocity": 104}, {"time": 143060, "pitch": 78, "duration": 269, "velocity": 117}, {"time": 143548, "pitch": 77, "duration": 209, "velocity": 112}, {"time": 143548, "pitch": 80, "duration": 199, "velocity": 108}, {"time": 143558, "pitch": 71, "duration": 219, "velocity": 104}, {"time": 144346, "pitch": 71, "duration": 527, "velocity": 121}, {"time": 144355, "pitch": 76, "duration": 120, "velocity": 122}, {"time": 144355, "pitch": 80, "duration": 508, "velocity": 108}, {"time": 144495, "pitch": 77, "duration": 429, "velocity": 71}, {"time": 144985, "pitch": 70, "duration": 189, "velocity": 101}, {"time": 144995, "pitch": 78, "duration": 199, "velocity": 98}, {"time": 145005, "pitch": 71, "duration": 69, "velocity": 98}, {"time": 145005, "pitch": 75, "duration": 179, "velocity": 104}, {"time": 145453, "pitch": 77, "duration": 199, "velocity": 108}, {"time": 145463, "pitch": 68, "duration": 179, "velocity": 108}, {"time": 145463, "pitch": 73, "duration": 189, "velocity": 108}, {"time": 145951, "pitch": 68, "duration": 818, "velocity": 121}, {"time": 145951, "pitch": 80, "duration": 259, "velocity": 117}, {"time": 146260, "pitch": 80, "duration": 509, "velocity": 81}, {"time": 146270, "pitch": 72, "duration": 509, "velocity": 122}, {"time": 146898, "pitch": 68, "duration": 229, "velocity": 104}, {"time": 146898, "pitch": 72, "duration": 229, "velocity": 122}, {"time": 146898, "pitch": 80, "duration": 229, "velocity": 112}, {"time": 147367, "pitch": 80, "duration": 229, "velocity": 104}, {"time": 147377, "pitch": 68, "duration": 189, "velocity": 112}, {"time": 147377, "pitch": 73, "duration": 209, "velocity": 117}, {"time": 147855, "pitch": 68, "duration": 194, "velocity": 112}, {"time": 147855, "pitch": 73, "duration": 204, "velocity": 117}, {"time": 147855, "pitch": 80, "duration": 215, "velocity": 108}, {"time": 148355, "pitch": 74, "duration": 428, "velocity": 122}, {"time": 148355, "pitch": 80, "duration": 418, "velocity": 104}, {"time": 148365, "pitch": 68, "duration": 428, "velocity": 117}, {"time": 149142, "pitch": 80, "duration": 309, "velocity": 112}, {"time": 149152, "pitch": 68, "duration": 249, "velocity": 108}, {"time": 149152, "pitch": 75, "duration": 289, "velocity": 122}, {"time": 149949, "pitch": 81, "duration": 30, "velocity": 33}, {"time": 150109, "pitch": 75, "duration": 508, "velocity": 121}, {"time": 150109, "pitch": 79, "duration": 119, "velocity": 122}, {"time": 150109, "pitch": 83, "duration": 448, "velocity": 121}, {"time": 150149, "pitch": 80, "duration": 398, "velocity": 74}, {"time": 150737, "pitch": 73, "duration": 259, "velocity": 112}, {"time": 150737, "pitch": 78, "duration": 319, "velocity": 121}, {"time": 150737, "pitch": 80, "duration": 139, "velocity": 121}, {"time": 150737, "pitch": 82, "duration": 189, "velocity": 108}, {"time": 151215, "pitch": 80, "duration": 266, "velocity": 117}, {"time": 151226, "pitch": 71, "duration": 255, "velocity": 117}, {"time": 151226, "pitch": 77, "duration": 275, "velocity": 112}, {"time": 152014, "pitch": 82, "duration": 538, "velocity": 117}, {"time": 152024, "pitch": 76, "duration": 528, "velocity": 122}, {"time": 152024, "pitch": 85, "duration": 518, "velocity": 108}, {"time": 152661, "pitch": 75, "duration": 279, "velocity": 104}, {"time": 152661, "pitch": 80, "duration": 260, "velocity": 112}, {"time": 152661, "pitch": 83, "duration": 230, "velocity": 112}, {"time": 153140, "pitch": 73, "duration": 259, "velocity": 117}, {"time": 153140, "pitch": 78, "duration": 259, "velocity": 121}, {"time": 153140, "pitch": 82, "duration": 229, "velocity": 117}, {"time": 153937, "pitch": 71, "duration": 548, "velocity": 121}, {"time": 153947, "pitch": 76, "duration": 110, "velocity": 122}, {"time": 153947, "pitch": 80, "duration": 538, "velocity": 121}, {"time": 154077, "pitch": 77, "duration": 488, "velocity": 77}, {"time": 154586, "pitch": 70, "duration": 244, "velocity": 104}, {"time": 154586, "pitch": 75, "duration": 234, "velocity": 108}, {"time": 154586, "pitch": 78, "duration": 224, "velocity": 104}, {"time": 155065, "pitch": 68, "duration": 199, "velocity": 108}, {"time": 155065, "pitch": 73, "duration": 229, "velocity": 117}, {"time": 155065, "pitch": 77, "duration": 259, "velocity": 112}, {"time": 155852, "pitch": 73, "duration": 189, "velocity": 117}, {"time": 155852, "pitch": 85, "duration": 139, "velocity": 117}, {"time": 156819, "pitch": 76, "duration": 129, "velocity": 122}, {"time": 156819, "pitch": 80, "duration": 827, "velocity": 121}, {"time": 156829, "pitch": 71, "duration": 518, "velocity": 117}, {"time": 156879, "pitch": 77, "duration": 548, "velocity": 83}, {"time": 157457, "pitch": 71, "duration": 189, "velocity": 90}, {"time": 157616, "pitch": 74, "duration": 50, "velocity": 50}, {"time": 157776, "pitch": 68, "duration": 537, "velocity": 112}, {"time": 157785, "pitch": 72, "duration": 548, "velocity": 122}, {"time": 157785, "pitch": 80, "duration": 528, "velocity": 117}, {"time": 158435, "pitch": 72, "duration": 259, "velocity": 122}, {"time": 158444, "pitch": 68, "duration": 260, "velocity": 104}, {"time": 158444, "pitch": 80, "duration": 250, "velocity": 108}, {"time": 158923, "pitch": 68, "duration": 179, "velocity": 104}, {"time": 158923, "pitch": 73, "duration": 219, "velocity": 117}, {"time": 158923, "pitch": 80, "duration": 209, "velocity": 104}, {"time": 159391, "pitch": 74, "duration": 240, "velocity": 122}, {"time": 159401, "pitch": 68, "duration": 190, "velocity": 104}, {"time": 159401, "pitch": 80, "duration": 180, "velocity": 101}, {"time": 159880, "pitch": 75, "duration": 229, "velocity": 112}, {"time": 159890, "pitch": 68, "duration": 189, "velocity": 95}, {"time": 159890, "pitch": 80, "duration": 199, "velocity": 98}, {"time": 160348, "pitch": 80, "duration": 180, "velocity": 87}, {"time": 160358, "pitch": 68, "duration": 130, "velocity": 98}, {"time": 160358, "pitch": 76, "duration": 180, "velocity": 113}, {"time": 160827, "pitch": 77, "duration": 734, "velocity": 112}, {"time": 160827, "pitch": 80, "duration": 693, "velocity": 108}, {"time": 160837, "pitch": 68, "duration": 693, "velocity": 104}, {"time": 161642, "pitch": 68, "duration": 202, "velocity": 98}, {"time": 161642, "pitch": 78, "duration": 222, "velocity": 112}, {"time": 161642, "pitch": 80, "duration": 222, "velocity": 108}, {"time": 203879, "pitch": 59, "duration": 229, "velocity": 98}, {"time": 203879, "pitch": 65, "duration": 219, "velocity": 104}, {"time": 203879, "pitch": 70, "duration": 229, "velocity": 98}, {"time": 203879, "pitch": 82, "duration": 219, "velocity": 122}, {"time": 203889, "pitch": 77, "duration": 199, "velocity": 112}, {"time": 203889, "pitch": 85, "duration": 209, "velocity": 108}, {"time": 211685, "pitch": 73, "duration": 316, "velocity": 93}, {"time": 212001, "pitch": 75, "duration": 233, "velocity": 107}, {"time": 212274, "pitch": 73, "duration": 259, "velocity": 107}, {"time": 212533, "pitch": 68, "duration": 170, "velocity": 107}, {"time": 212763, "pitch": 77, "duration": 259, "velocity": 95}, {"time": 213141, "pitch": 72, "duration": 80, "velocity": 101}, {"time": 213171, "pitch": 73, "duration": 259, "velocity": 101}, {"time": 213470, "pitch": 72, "duration": 1276, "velocity": 107}, {"time": 215035, "pitch": 68, "duration": 275, "velocity": 101}, {"time": 215341, "pitch": 68, "duration": 122, "velocity": 100}, {"time": 215525, "pitch": 70, "duration": 269, "velocity": 101}, {"time": 215824, "pitch": 69, "duration": 119, "velocity": 100}, {"time": 216003, "pitch": 70, "duration": 269, "velocity": 101}, {"time": 216481, "pitch": 72, "duration": 269, "velocity": 101}, {"time": 216780, "pitch": 71, "duration": 120, "velocity": 100}, {"time": 216960, "pitch": 72, "duration": 269, "velocity": 101}, {"time": 217448, "pitch": 72, "duration": 100, "velocity": 101}, {"time": 217518, "pitch": 73, "duration": 1316, "velocity": 106}, {"time": 223062, "pitch": 61, "duration": 279, "velocity": 108}, {"time": 223062, "pitch": 85, "duration": 279, "velocity": 122}, {"time": 223062, "pitch": 97, "duration": 299, "velocity": 112}, {"time": 223072, "pitch": 73, "duration": 279, "velocity": 121}, {"time": 223540, "pitch": 85, "duration": 170, "velocity": 101}, {"time": 223710, "pitch": 73, "duration": 199, "velocity": 83}, {"time": 224198, "pitch": 77, "duration": 199, "velocity": 117}, {"time": 224676, "pitch": 80, "duration": 170, "velocity": 112}, {"time": 225166, "pitch": 82, "duration": 748, "velocity": 121}, {"time": 225943, "pitch": 85, "duration": 220, "velocity": 117}, {"time": 226910, "pitch": 75, "duration": 558, "velocity": 117}, {"time": 226910, "pitch": 79, "duration": 120, "velocity": 122}, {"time": 226910, "pitch": 83, "duration": 509, "velocity": 121}, {"time": 227040, "pitch": 80, "duration": 448, "velocity": 79}, {"time": 227548, "pitch": 78, "duration": 329, "velocity": 112}, {"time": 227558, "pitch": 73, "duration": 259, "velocity": 108}, {"time": 227558, "pitch": 82, "duration": 239, "velocity": 108}, {"time": 228036, "pitch": 71, "duration": 250, "velocity": 108}, {"time": 228046, "pitch": 77, "duration": 260, "velocity": 117}, {"time": 228046, "pitch": 80, "duration": 260, "velocity": 108}, {"time": 228842, "pitch": 71, "duration": 561, "velocity": 117}, {"time": 228842, "pitch": 76, "duration": 142, "velocity": 122}, {"time": 228852, "pitch": 80, "duration": 531, "velocity": 117}, {"time": 228994, "pitch": 77, "duration": 469, "velocity": 72}, {"time": 229493, "pitch": 70, "duration": 229, "velocity": 104}, {"time": 229493, "pitch": 75, "duration": 229, "velocity": 104}, {"time": 229493, "pitch": 78, "duration": 239, "velocity": 98}, {"time": 229961, "pitch": 68, "duration": 180, "velocity": 101}, {"time": 229961, "pitch": 73, "duration": 210, "velocity": 104}, {"time": 229961, "pitch": 77, "duration": 190, "velocity": 112}, {"time": 230270, "pitch": 68, "duration": 90, "velocity": 95}, {"time": 230430, "pitch": 70, "duration": 229, "velocity": 112}, {"time": 230759, "pitch": 73, "duration": 149, "velocity": 121}, {"time": 231078, "pitch": 81, "duration": 49, "velocity": 29}, {"time": 231237, "pitch": 85, "duration": 229, "velocity": 101}, {"time": 231396, "pitch": 73, "duration": 250, "velocity": 101}, {"time": 231876, "pitch": 77, "duration": 245, "velocity": 121}, {"time": 232364, "pitch": 80, "duration": 210, "velocity": 108}, {"time": 232853, "pitch": 82, "duration": 658, "velocity": 121}, {"time": 233650, "pitch": 85, "duration": 120, "velocity": 109}, {"time": 233800, "pitch": 65, "duration": 169, "velocity": 108}, {"time": 233800, "pitch": 77, "duration": 169, "velocity": 108}, {"time": 234109, "pitch": 68, "duration": 109, "velocity": 95}, {"time": 234109, "pitch": 80, "duration": 109, "velocity": 95}, {"time": 234268, "pitch": 70, "duration": 219, "velocity": 104}, {"time": 234268, "pitch": 82, "duration": 219, "velocity": 104}, {"time": 234278, "pitch": 68, "duration": 20, "velocity": 49}, {"time": 234278, "pitch": 80, "duration": 20, "velocity": 49}, {"time": 234587, "pitch": 65, "duration": 349, "velocity": 117}, {"time": 234587, "pitch": 70, "duration": 359, "velocity": 104}, {"time": 234587, "pitch": 85, "duration": 369, "velocity": 117}, {"time": 235055, "pitch": 85, "duration": 120, "velocity": 104}, {"time": 235065, "pitch": 65, "duration": 80, "velocity": 108}, {"time": 235075, "pitch": 70, "duration": 70, "velocity": 75}, {"time": 235225, "pitch": 64, "duration": 245, "velocity": 121}, {"time": 235225, "pitch": 69, "duration": 235, "velocity": 113}, {"time": 235236, "pitch": 84, "duration": 245, "velocity": 122}, {"time": 235714, "pitch": 63, "duration": 937, "velocity": 122}, {"time": 235714, "pitch": 68, "duration": 897, "velocity": 117}, {"time": 235724, "pitch": 83, "duration": 937, "velocity": 122}, {"time": 236661, "pitch": 59, "duration": 140, "velocity": 109}, {"time": 236661, "pitch": 71, "duration": 140, "velocity": 109}, {"time": 236821, "pitch": 68, "duration": 119, "velocity": 110}, {"time": 236821, "pitch": 80, "duration": 119, "velocity": 110}, {"time": 236970, "pitch": 59, "duration": 110, "velocity": 111}, {"time": 236970, "pitch": 71, "duration": 110, "velocity": 111}, {"time": 237130, "pitch": 66, "duration": 189, "velocity": 111}, {"time": 237130, "pitch": 78, "duration": 189, "velocity": 111}, {"time": 237289, "pitch": 68, "duration": 90, "velocity": 112}, {"time": 237289, "pitch": 80, "duration": 90, "velocity": 112}, {"time": 237449, "pitch": 71, "duration": 129, "velocity": 113}, {"time": 237449, "pitch": 83, "duration": 129, "velocity": 113}, {"time": 237618, "pitch": 80, "duration": 150, "velocity": 113}, {"time": 237618, "pitch": 92, "duration": 150, "velocity": 113}, {"time": 237778, "pitch": 71, "duration": 149, "velocity": 114}, {"time": 237778, "pitch": 83, "duration": 149, "velocity": 114}, {"time": 237937, "pitch": 78, "duration": 199, "velocity": 115}, {"time": 237937, "pitch": 90, "duration": 199, "velocity": 115}, {"time": 238097, "pitch": 80, "duration": 229, "velocity": 116}, {"time": 238097, "pitch": 92, "duration": 229, "velocity": 116}, {"time": 238425, "pitch": 65, "duration": 171, "velocity": 122}, {"time": 238425, "pitch": 85, "duration": 171, "velocity": 121}, {"time": 238425, "pitch": 97, "duration": 171, "velocity": 121}, {"time": 238435, "pitch": 59, "duration": 161, "velocity": 95}, {"time": 238435, "pitch": 70, "duration": 161, "velocity": 121}, {"time": 505, "pitch": 78, "duration": 229, "velocity": 108}, {"time": 505, "pitch": 83, "duration": 229, "velocity": 104}, {"time": 505, "pitch": 95, "duration": 209, "velocity": 117}, {"time": 515, "pitch": 72, "duration": 199, "velocity": 107}, {"time": 1322, "pitch": 95, "duration": 209, "velocity": 117}, {"time": 1342, "pitch": 72, "duration": 179, "velocity": 90}, {"time": 1342, "pitch": 78, "duration": 199, "velocity": 98}, {"time": 1342, "pitch": 83, "duration": 189, "velocity": 104}, {"time": 4184, "pitch": 75, "duration": 558, "velocity": 112}, {"time": 4194, "pitch": 79, "duration": 109, "velocity": 122}, {"time": 4194, "pitch": 83, "duration": 518, "velocity": 112}, {"time": 4323, "pitch": 80, "duration": 449, "velocity": 81}, {"time": 4831, "pitch": 82, "duration": 220, "velocity": 112}, {"time": 4841, "pitch": 78, "duration": 270, "velocity": 112}, {"time": 4851, "pitch": 73, "duration": 250, "velocity": 117}, {"time": 5320, "pitch": 71, "duration": 199, "velocity": 104}, {"time": 5320, "pitch": 77, "duration": 209, "velocity": 112}, {"time": 5330, "pitch": 80, "duration": 199, "velocity": 104}, {"time": 6097, "pitch": 71, "duration": 548, "velocity": 117}, {"time": 6097, "pitch": 76, "duration": 100, "velocity": 122}, {"time": 6097, "pitch": 80, "duration": 548, "velocity": 121}, {"time": 6147, "pitch": 77, "duration": 488, "velocity": 74}, {"time": 6736, "pitch": 70, "duration": 255, "velocity": 95}, {"time": 6736, "pitch": 78, "duration": 234, "velocity": 95}, {"time": 6746, "pitch": 75, "duration": 234, "velocity": 104}, {"time": 7245, "pitch": 68, "duration": 219, "velocity": 108}, {"time": 7245, "pitch": 73, "duration": 229, "velocity": 112}, {"time": 7245, "pitch": 77, "duration": 209, "velocity": 112}, {"time": 8042, "pitch": 68, "duration": 518, "velocity": 112}, {"time": 8042, "pitch": 73, "duration": 568, "velocity": 117}, {"time": 8042, "pitch": 77, "duration": 518, "velocity": 117}, {"time": 8670, "pitch": 66, "duration": 279, "velocity": 95}, {"time": 8670, "pitch": 71, "duration": 189, "velocity": 104}, {"time": 8670, "pitch": 75, "duration": 219, "velocity": 101}, {"time": 9148, "pitch": 65, "duration": 200, "velocity": 104}, {"time": 9158, "pitch": 68, "duration": 210, "velocity": 112}, {"time": 9158, "pitch": 73, "duration": 239, "velocity": 112}, {"time": 10095, "pitch": 76, "duration": 41, "velocity": 122}, {"time": 10106, "pitch": 71, "duration": 234, "velocity": 104}, {"time": 10106, "pitch": 82, "duration": 255, "velocity": 108}, {"time": 10106, "pitch": 85, "duration": 245, "velocity": 104}, {"time": 10126, "pitch": 77, "duration": 204, "velocity": 98}, {"time": 10136, "pitch": 76, "duration": 31, "velocity": 53}, {"time": 10914, "pitch": 71, "duration": 299, "velocity": 95}, {"time": 10914, "pitch": 76, "duration": 109, "velocity": 122}, {"time": 10924, "pitch": 82, "duration": 249, "velocity": 112}, {"time": 10924, "pitch": 85, "duration": 239, "velocity": 104}, {"time": 11043, "pitch": 77, "duration": 180, "velocity": 95}, {"time": 11850, "pitch": 75, "duration": 539, "velocity": 112}, {"time": 11860, "pitch": 79, "duration": 110, "velocity": 122}, {"time": 11860, "pitch": 83, "duration": 489, "velocity": 112}, {"time": 11890, "pitch": 80, "duration": 439, "velocity": 68}, {"time": 12488, "pitch": 82, "duration": 230, "velocity": 104}, {"time": 12498, "pitch": 73, "duration": 240, "velocity": 104}, {"time": 12498, "pitch": 78, "duration": 269, "velocity": 117}, {"time": 12987, "pitch": 77, "duration": 209, "velocity": 112}, {"time": 12987, "pitch": 80, "duration": 199, "velocity": 108}, {"time": 12997, "pitch": 71, "duration": 219, "velocity": 104}, {"time": 13792, "pitch": 71, "duration": 521, "velocity": 121}, {"time": 13802, "pitch": 76, "duration": 123, "velocity": 122}, {"time": 13802, "pitch": 80, "duration": 502, "velocity": 108}, {"time": 13945, "pitch": 77, "duration": 418, "velocity": 71}, {"time": 14423, "pitch": 70, "duration": 189, "velocity": 101}, {"time": 14433, "pitch": 78, "duration": 199, "velocity": 98}, {"time": 14443, "pitch": 71, "duration": 70, "velocity": 98}, {"time": 14443, "pitch": 75, "duration": 179, "velocity": 104}, {"time": 14892, "pitch": 77, "duration": 199, "velocity": 108}, {"time": 14902, "pitch": 68, "duration": 179, "velocity": 108}, {"time": 14902, "pitch": 73, "duration": 189, "velocity": 108}, {"time": 15390, "pitch": 68, "duration": 817, "velocity": 121}, {"time": 15390, "pitch": 80, "duration": 259, "velocity": 117}, {"time": 15699, "pitch": 80, "duration": 508, "velocity": 81}, {"time": 15709, "pitch": 72, "duration": 508, "velocity": 122}, {"time": 16337, "pitch": 68, "duration": 229, "velocity": 104}, {"time": 16337, "pitch": 72, "duration": 229, "velocity": 122}, {"time": 16337, "pitch": 80, "duration": 229, "velocity": 112}, {"time": 16805, "pitch": 80, "duration": 235, "velocity": 104}, {"time": 16815, "pitch": 68, "duration": 194, "velocity": 112}, {"time": 16815, "pitch": 73, "duration": 215, "velocity": 117}, {"time": 17305, "pitch": 68, "duration": 189, "velocity": 112}, {"time": 17305, "pitch": 73, "duration": 199, "velocity": 117}, {"time": 17305, "pitch": 80, "duration": 209, "velocity": 108}, {"time": 17793, "pitch": 74, "duration": 429, "velocity": 122}, {"time": 17793, "pitch": 80, "duration": 419, "velocity": 104}, {"time": 17803, "pitch": 68, "duration": 429, "velocity": 117}, {"time": 18580, "pitch": 80, "duration": 309, "velocity": 112}, {"time": 18590, "pitch": 68, "duration": 250, "velocity": 108}, {"time": 18590, "pitch": 75, "duration": 289, "velocity": 122}, {"time": 19388, "pitch": 81, "duration": 30, "velocity": 33}, {"time": 19547, "pitch": 75, "duration": 509, "velocity": 121}, {"time": 19547, "pitch": 79, "duration": 120, "velocity": 122}, {"time": 19547, "pitch": 83, "duration": 449, "velocity": 121}, {"time": 19587, "pitch": 80, "duration": 399, "velocity": 74}, {"time": 20175, "pitch": 73, "duration": 266, "velocity": 112}, {"time": 20175, "pitch": 78, "duration": 327, "velocity": 121}, {"time": 20175, "pitch": 80, "duration": 143, "velocity": 121}, {"time": 20175, "pitch": 82, "duration": 194, "velocity": 108}, {"time": 20665, "pitch": 80, "duration": 259, "velocity": 117}, {"time": 20675, "pitch": 71, "duration": 249, "velocity": 117}, {"time": 20675, "pitch": 77, "duration": 269, "velocity": 112}, {"time": 21452, "pitch": 82, "duration": 538, "velocity": 117}, {"time": 21462, "pitch": 76, "duration": 528, "velocity": 122}, {"time": 21462, "pitch": 85, "duration": 518, "velocity": 108}, {"time": 22100, "pitch": 75, "duration": 279, "velocity": 104}, {"time": 22100, "pitch": 80, "duration": 259, "velocity": 112}, {"time": 22100, "pitch": 83, "duration": 229, "velocity": 112}, {"time": 22578, "pitch": 73, "duration": 259, "velocity": 117}, {"time": 22578, "pitch": 78, "duration": 259, "velocity": 121}, {"time": 22578, "pitch": 82, "duration": 230, "velocity": 117}, {"time": 23376, "pitch": 71, "duration": 557, "velocity": 121}, {"time": 23386, "pitch": 76, "duration": 109, "velocity": 122}, {"time": 23386, "pitch": 80, "duration": 547, "velocity": 121}, {"time": 23515, "pitch": 77, "duration": 500, "velocity": 77}, {"time": 24035, "pitch": 70, "duration": 239, "velocity": 104}, {"time": 24035, "pitch": 75, "duration": 229, "velocity": 108}, {"time": 24035, "pitch": 78, "duration": 219, "velocity": 104}, {"time": 24503, "pitch": 68, "duration": 199, "velocity": 108}, {"time": 24503, "pitch": 73, "duration": 229, "velocity": 117}, {"time": 24503, "pitch": 77, "duration": 259, "velocity": 112}, {"time": 25290, "pitch": 73, "duration": 190, "velocity": 117}, {"time": 25290, "pitch": 85, "duration": 140, "velocity": 117}, {"time": 26257, "pitch": 76, "duration": 130, "velocity": 122}, {"time": 26257, "pitch": 80, "duration": 832, "velocity": 121}, {"time": 26267, "pitch": 71, "duration": 518, "velocity": 117}, {"time": 26317, "pitch": 77, "duration": 548, "velocity": 83}, {"time": 26895, "pitch": 71, "duration": 194, "velocity": 90}, {"time": 27059, "pitch": 74, "duration": 51, "velocity": 50}, {"time": 27222, "pitch": 68, "duration": 531, "velocity": 112}, {"time": 27232, "pitch": 72, "duration": 541, "velocity": 122}, {"time": 27232, "pitch": 80, "duration": 521, "velocity": 117}, {"time": 27873, "pitch": 72, "duration": 259, "velocity": 122}, {"time": 27883, "pitch": 68, "duration": 259, "velocity": 104}, {"time": 27883, "pitch": 80, "duration": 249, "velocity": 108}, {"time": 28361, "pitch": 68, "duration": 180, "velocity": 104}, {"time": 28361, "pitch": 73, "duration": 220, "velocity": 117}, {"time": 28361, "pitch": 80, "duration": 210, "velocity": 104}, {"time": 28830, "pitch": 74, "duration": 239, "velocity": 122}, {"time": 28840, "pitch": 68, "duration": 189, "velocity": 104}, {"time": 28840, "pitch": 80, "duration": 179, "velocity": 101}, {"time": 29318, "pitch": 75, "duration": 229, "velocity": 112}, {"time": 29328, "pitch": 68, "duration": 190, "velocity": 95}, {"time": 29328, "pitch": 80, "duration": 200, "velocity": 98}, {"time": 29787, "pitch": 80, "duration": 179, "velocity": 87}, {"time": 29797, "pitch": 68, "duration": 129, "velocity": 98}, {"time": 29797, "pitch": 76, "duration": 179, "velocity": 113}, {"time": 30266, "pitch": 77, "duration": 738, "velocity": 112}, {"time": 30266, "pitch": 80, "duration": 698, "velocity": 108}, {"time": 30276, "pitch": 68, "duration": 698, "velocity": 104}, {"time": 31084, "pitch": 68, "duration": 199, "velocity": 98}, {"time": 31084, "pitch": 78, "duration": 219, "velocity": 112}, {"time": 31084, "pitch": 80, "duration": 219, "velocity": 108}, {"time": 50395, "pitch": 76, "duration": 1925, "velocity": 96}, {"time": 50395, "pitch": 78, "duration": 1945, "velocity": 97}, {"time": 50395, "pitch": 82, "duration": 1905, "velocity": 97}, {"time": 50395, "pitch": 85, "duration": 21138, "velocity": 95}, {"time": 52320, "pitch": 77, "duration": 1904, "velocity": 97}, {"time": 52320, "pitch": 80, "duration": 1935, "velocity": 96}, {"time": 54245, "pitch": 76, "duration": 1913, "velocity": 95}, {"time": 54245, "pitch": 78, "duration": 1933, "velocity": 96}, {"time": 54245, "pitch": 82, "duration": 1893, "velocity": 97}, {"time": 56158, "pitch": 77, "duration": 1905, "velocity": 95}, {"time": 56158, "pitch": 80, "duration": 1935, "velocity": 97}, {"time": 58083, "pitch": 76, "duration": 1914, "velocity": 97}, {"time": 58083, "pitch": 78, "duration": 1934, "velocity": 96}, {"time": 58083, "pitch": 82, "duration": 1894, "velocity": 97}, {"time": 59997, "pitch": 77, "duration": 1905, "velocity": 95}, {"time": 59997, "pitch": 80, "duration": 1934, "velocity": 97}, {"time": 61922, "pitch": 76, "duration": 1913, "velocity": 98}, {"time": 61922, "pitch": 78, "duration": 1933, "velocity": 96}, {"time": 61922, "pitch": 82, "duration": 1893, "velocity": 97}, {"time": 63835, "pitch": 77, "duration": 5743, "velocity": 98}, {"time": 63835, "pitch": 80, "duration": 5773, "velocity": 97}, {"time": 69598, "pitch": 75, "duration": 3839, "velocity": 97}, {"time": 69598, "pitch": 79, "duration": 1905, "velocity": 96}, {"time": 69598, "pitch": 82, "duration": 1935, "velocity": 97}, {"time": 71523, "pitch": 78, "duration": 1914, "velocity": 97}, {"time": 71523, "pitch": 80, "duration": 9622, "velocity": 98}, {"time": 71523, "pitch": 84, "duration": 1894, "velocity": 96}, {"time": 73437, "pitch": 77, "duration": 3818, "velocity": 97}, {"time": 73437, "pitch": 85, "duration": 1925, "velocity": 97}, {"time": 75362, "pitch": 84, "duration": 1893, "velocity": 95}, {"time": 77275, "pitch": 75, "duration": 1945, "velocity": 95}, {"time": 77275, "pitch": 78, "duration": 1935, "velocity": 96}, {"time": 77275, "pitch": 82, "duration": 1925, "velocity": 98}, {"time": 79200, "pitch": 77, "duration": 1904, "velocity": 96}, {"time": 79200, "pitch": 85, "duration": 1925, "velocity": 95}, {"time": 81145, "pitch": 78, "duration": 229, "velocity": 108}, {"time": 81145, "pitch": 83, "duration": 229, "velocity": 104}, {"time": 81145, "pitch": 95, "duration": 209, "velocity": 117}, {"time": 81155, "pitch": 72, "duration": 199, "velocity": 107}, {"time": 81962, "pitch": 95, "duration": 209, "velocity": 117}, {"time": 81982, "pitch": 72, "duration": 179, "velocity": 90}, {"time": 81982, "pitch": 78, "duration": 199, "velocity": 98}, {"time": 81982, "pitch": 83, "duration": 189, "velocity": 104}, {"time": 100317, "pitch": 76, "duration": 1924, "velocity": 96}, {"time": 100317, "pitch": 78, "duration": 1944, "velocity": 97}, {"time": 100317, "pitch": 82, "duration": 1905, "velocity": 97}, {"time": 100317, "pitch": 85, "duration": 21138, "velocity": 95}, {"time": 102241, "pitch": 77, "duration": 1894, "velocity": 97}, {"time": 102241, "pitch": 80, "duration": 1924, "velocity": 96}, {"time": 104155, "pitch": 76, "duration": 1925, "velocity": 95}, {"time": 104155, "pitch": 78, "duration": 1945, "velocity": 96}, {"time": 104155, "pitch": 82, "duration": 1905, "velocity": 97}, {"time": 106080, "pitch": 77, "duration": 1904, "velocity": 95}, {"time": 106080, "pitch": 80, "duration": 1935, "velocity": 97}, {"time": 108005, "pitch": 76, "duration": 1913, "velocity": 97}, {"time": 108005, "pitch": 78, "duration": 1933, "velocity": 96}, {"time": 108005, "pitch": 82, "duration": 1893, "velocity": 97}, {"time": 109918, "pitch": 77, "duration": 1905, "velocity": 95}, {"time": 109918, "pitch": 80, "duration": 1935, "velocity": 97}, {"time": 111843, "pitch": 76, "duration": 1914, "velocity": 98}, {"time": 111843, "pitch": 78, "duration": 1934, "velocity": 96}, {"time": 111843, "pitch": 82, "duration": 1894, "velocity": 97}, {"time": 113757, "pitch": 77, "duration": 5743, "velocity": 98}, {"time": 113757, "pitch": 80, "duration": 5773, "velocity": 97}, {"time": 119520, "pitch": 75, "duration": 3838, "velocity": 97}, {"time": 119520, "pitch": 79, "duration": 1904, "velocity": 96}, {"time": 119520, "pitch": 82, "duration": 1935, "velocity": 97}, {"time": 121445, "pitch": 78, "duration": 1913, "velocity": 97}, {"time": 121445, "pitch": 80, "duration": 9610, "velocity": 98}, {"time": 121445, "pitch": 84, "duration": 1893, "velocity": 96}, {"time": 123358, "pitch": 77, "duration": 3819, "velocity": 97}, {"time": 123358, "pitch": 85, "duration": 1925, "velocity": 97}, {"time": 125283, "pitch": 84, "duration": 1894, "velocity": 95}, {"time": 127197, "pitch": 75, "duration": 1944, "velocity": 95}, {"time": 127197, "pitch": 78, "duration": 1934, "velocity": 96}, {"time": 127197, "pitch": 82, "duration": 1924, "velocity": 98}, {"time": 129121, "pitch": 77, "duration": 1894, "velocity": 96}, {"time": 129121, "pitch": 85, "duration": 1914, "velocity": 95}, {"time": 131055, "pitch": 78, "duration": 235, "velocity": 108}, {"time": 131055, "pitch": 83, "duration": 235, "velocity": 104}, {"time": 131055, "pitch": 95, "duration": 215, "velocity": 117}, {"time": 131066, "pitch": 72, "duration": 204, "velocity": 107}, {"time": 131883, "pitch": 95, "duration": 210, "velocity": 117}, {"time": 131903, "pitch": 72, "duration": 180, "velocity": 90}, {"time": 131903, "pitch": 78, "duration": 200, "velocity": 98}, {"time": 131903, "pitch": 83, "duration": 190, "velocity": 104}, {"time": 134742, "pitch": 75, "duration": 561, "velocity": 112}, {"time": 134752, "pitch": 79, "duration": 112, "velocity": 122}, {"time": 134752, "pitch": 83, "duration": 521, "velocity": 112}, {"time": 134885, "pitch": 80, "duration": 448, "velocity": 81}, {"time": 135393, "pitch": 82, "duration": 219, "velocity": 112}, {"time": 135403, "pitch": 78, "duration": 269, "velocity": 112}, {"time": 135413, "pitch": 73, "duration": 249, "velocity": 117}, {"time": 135881, "pitch": 71, "duration": 200, "velocity": 104}, {"time": 135881, "pitch": 77, "duration": 210, "velocity": 112}, {"time": 135891, "pitch": 80, "duration": 200, "velocity": 104}, {"time": 136659, "pitch": 71, "duration": 548, "velocity": 117}, {"time": 136659, "pitch": 76, "duration": 99, "velocity": 122}, {"time": 136659, "pitch": 80, "duration": 548, "velocity": 121}, {"time": 136709, "pitch": 77, "duration": 488, "velocity": 74}, {"time": 137297, "pitch": 70, "duration": 249, "velocity": 95}, {"time": 137297, "pitch": 78, "duration": 229, "velocity": 95}, {"time": 137307, "pitch": 75, "duration": 229, "velocity": 104}, {"time": 137796, "pitch": 68, "duration": 224, "velocity": 108}, {"time": 137796, "pitch": 73, "duration": 234, "velocity": 112}, {"time": 137796, "pitch": 77, "duration": 214, "velocity": 112}, {"time": 138603, "pitch": 68, "duration": 519, "velocity": 112}, {"time": 138603, "pitch": 73, "duration": 569, "velocity": 117}, {"time": 138603, "pitch": 77, "duration": 519, "velocity": 117}, {"time": 139231, "pitch": 66, "duration": 279, "velocity": 95}, {"time": 139231, "pitch": 71, "duration": 190, "velocity": 104}, {"time": 139231, "pitch": 75, "duration": 220, "velocity": 101}, {"time": 139710, "pitch": 65, "duration": 199, "velocity": 104}, {"time": 139720, "pitch": 68, "duration": 209, "velocity": 112}, {"time": 139720, "pitch": 73, "duration": 239, "velocity": 112}, {"time": 140657, "pitch": 76, "duration": 39, "velocity": 122}, {"time": 140667, "pitch": 71, "duration": 229, "velocity": 104}, {"time": 140667, "pitch": 82, "duration": 249, "velocity": 108}, {"time": 140667, "pitch": 85, "duration": 239, "velocity": 104}, {"time": 140687, "pitch": 77, "duration": 199, "velocity": 98}, {"time": 140696, "pitch": 76, "duration": 30, "velocity": 53}, {"time": 141472, "pitch": 71, "duration": 302, "velocity": 95}, {"time": 141472, "pitch": 76, "duration": 112, "velocity": 122}, {"time": 141482, "pitch": 82, "duration": 252, "velocity": 112}, {"time": 141482, "pitch": 85, "duration": 242, "velocity": 104}, {"time": 141605, "pitch": 77, "duration": 179, "velocity": 95}, {"time": 142412, "pitch": 75, "duration": 538, "velocity": 112}, {"time": 142422, "pitch": 79, "duration": 110, "velocity": 122}, {"time": 142422, "pitch": 83, "duration": 488, "velocity": 112}, {"time": 142452, "pitch": 80, "duration": 438, "velocity": 68}, {"time": 143050, "pitch": 82, "duration": 229, "velocity": 104}, {"time": 143060, "pitch": 73, "duration": 239, "velocity": 104}, {"time": 143060, "pitch": 78, "duration": 269, "velocity": 117}, {"time": 143548, "pitch": 77, "duration": 209, "velocity": 112}, {"time": 143548, "pitch": 80, "duration": 199, "velocity": 108}, {"time": 143558, "pitch": 71, "duration": 219, "velocity": 104}, {"time": 144346, "pitch": 71, "duration": 527, "velocity": 121}, {"time": 144355, "pitch": 76, "duration": 120, "velocity": 122}, {"time": 144355, "pitch": 80, "duration": 508, "velocity": 108}, {"time": 144495, "pitch": 77, "duration": 429, "velocity": 71}, {"time": 144985, "pitch": 70, "duration": 189, "velocity": 101}, {"time": 144995, "pitch": 78, "duration": 199, "velocity": 98}, {"time": 145005, "pitch": 71, "duration": 69, "velocity": 98}, {"time": 145005, "pitch": 75, "duration": 179, "velocity": 104}, {"time": 145453, "pitch": 77, "duration": 199, "velocity": 108}, {"time": 145463, "pitch": 68, "duration": 179, "velocity": 108}, {"time": 145463, "pitch": 73, "duration": 189, "velocity": 108}, {"time": 145951, "pitch": 68, "duration": 818, "velocity": 121}, {"time": 145951, "pitch": 80, "duration": 259, "velocity": 117}, {"time": 146260, "pitch": 80, "duration": 509, "velocity": 81}, {"time": 146270, "pitch": 72, "duration": 509, "velocity": 122}, {"time": 146898, "pitch": 68, "duration": 229, "velocity": 104}, {"time": 146898, "pitch": 72, "duration": 229, "velocity": 122}, {"time": 146898, "pitch": 80, "duration": 229, "velocity": 112}, {"time": 147367, "pitch": 80, "duration": 229, "velocity": 104}, {"time": 147377, "pitch": 68, "duration": 189, "velocity": 112}, {"time": 147377, "pitch": 73, "duration": 209, "velocity": 117}, {"time": 147855, "pitch": 68, "duration": 194, "velocity": 112}, {"time": 147855, "pitch": 73, "duration": 204, "velocity": 117}, {"time": 147855, "pitch": 80, "duration": 215, "velocity": 108}, {"time": 148355, "pitch": 74, "duration": 428, "velocity": 122}, {"time": 148355, "pitch": 80, "duration": 418, "velocity": 104}, {"time": 148365, "pitch": 68, "duration": 428, "velocity": 117}, {"time": 149142, "pitch": 80, "duration": 309, "velocity": 112}, {"time": 149152, "pitch": 68, "duration": 249, "velocity": 108}, {"time": 149152, "pitch": 75, "duration": 289, "velocity": 122}, {"time": 149949, "pitch": 81, "duration": 30, "velocity": 33}, {"time": 150109, "pitch": 75, "duration": 508, "velocity": 121}, {"time": 150109, "pitch": 79, "duration": 119, "velocity": 122}, {"time": 150109, "pitch": 83, "duration": 448, "velocity": 121}, {"time": 150149, "pitch": 80, "duration": 398, "velocity": 74}, {"time": 150737, "pitch": 73, "duration": 259, "velocity": 112}, {"time": 150737, "pitch": 78, "duration": 319, "velocity": 121}, {"time": 150737, "pitch": 80, "duration": 139, "velocity": 121}, {"time": 150737, "pitch": 82, "duration": 189, "velocity": 108}, {"time": 151215, "pitch": 80, "duration": 266, "velocity": 117}, {"time": 151226, "pitch": 71, "duration": 255, "velocity": 117}, {"time": 151226, "pitch": 77, "duration": 275, "velocity": 112}, {"time": 152014, "pitch": 82, "duration": 538, "velocity": 117}, {"time": 152024, "pitch": 76, "duration": 528, "velocity": 122}, {"time": 152024, "pitch": 85, "duration": 518, "velocity": 108}, {"time": 152661, "pitch": 75, "duration": 279, "velocity": 104}, {"time": 152661, "pitch": 80, "duration": 260, "velocity": 112}, {"time": 152661, "pitch": 83, "duration": 230, "velocity": 112}, {"time": 153140, "pitch": 73, "duration": 259, "velocity": 117}, {"time": 153140, "pitch": 78, "duration": 259, "velocity": 121}, {"time": 153140, "pitch": 82, "duration": 229, "velocity": 117}, {"time": 153937, "pitch": 71, "duration": 548, "velocity": 121}, {"time": 153947, "pitch": 76, "duration": 110, "velocity": 122}, {"time": 153947, "pitch": 80, "duration": 538, "velocity": 121}, {"time": 154077, "pitch": 77, "duration": 488, "velocity": 77}, {"time": 154586, "pitch": 70, "duration": 244, "velocity": 104}, {"time": 154586, "pitch": 75, "duration": 234, "velocity": 108}, {"time": 154586, "pitch": 78, "duration": 224, "velocity": 104}, {"time": 155065, "pitch": 68, "duration": 199, "velocity": 108}, {"time": 155065, "pitch": 73, "duration": 229, "velocity": 117}, {"time": 155065, "pitch": 77, "duration": 259, "velocity": 112}, {"time": 155852, "pitch": 73, "duration": 189, "velocity": 117}, {"time": 155852, "pitch": 85, "duration": 139, "velocity": 117}, {"time": 156819, "pitch": 76, "duration": 129, "velocity": 122}, {"time": 156819, "pitch": 80, "duration": 827, "velocity": 121}, {"time": 156829, "pitch": 71, "duration": 518, "velocity": 117}, {"time": 156879, "pitch": 77, "duration": 548, "velocity": 83}, {"time": 157457, "pitch": 71, "duration": 189, "velocity": 90}, {"time": 157616, "pitch": 74, "duration": 50, "velocity": 50}, {"time": 157776, "pitch": 68, "duration": 537, "velocity": 112}, {"time": 157785, "pitch": 72, "duration": 548, "velocity": 122}, {"time": 157785, "pitch": 80, "duration": 528, "velocity": 117}, {"time": 158435, "pitch": 72, "duration": 259, "velocity": 122}, {"time": 158444, "pitch": 68, "duration": 260, "velocity": 104}, {"time": 158444, "pitch": 80, "duration": 250, "velocity": 108}, {"time": 158923, "pitch": 68, "duration": 179, "velocity": 104}, {"time": 158923, "pitch": 73, "duration": 219, "velocity": 117}, {"time": 158923, "pitch": 80, "duration": 209, "velocity": 104}, {"time": 159391, "pitch": 74, "duration": 240, "velocity": 122}, {"time": 159401, "pitch": 68, "duration": 190, "velocity": 104}, {"time": 159401, "pitch": 80, "duration": 180, "velocity": 101}, {"time": 159880, "pitch": 75, "duration": 229, "velocity": 112}, {"time": 159890, "pitch": 68, "duration": 189, "velocity": 95}, {"time": 159890, "pitch": 80, "duration": 199, "velocity": 98}, {"time": 160348, "pitch": 80, "duration": 180, "velocity": 87}, {"time": 160358, "pitch": 68, "duration": 130, "velocity": 98}, {"time": 160358, "pitch": 76, "duration": 180, "velocity": 113}, {"time": 160827, "pitch": 77, "duration": 734, "velocity": 112}, {"time": 160827, "pitch": 80, "duration": 693, "velocity": 108}, {"time": 160837, "pitch": 68, "duration": 693, "velocity": 104}, {"time": 161642, "pitch": 68, "duration": 202, "velocity": 98}, {"time": 161642, "pitch": 78, "duration": 222, "velocity": 112}, {"time": 161642, "pitch": 80, "duration": 222, "velocity": 108}, {"time": 180957, "pitch": 76, "duration": 1924, "velocity": 96}, {"time": 180957, "pitch": 78, "duration": 1944, "velocity": 97}, {"time": 180957, "pitch": 82, "duration": 1904, "velocity": 97}, {"time": 180957, "pitch": 85, "duration": 21138, "velocity": 95}, {"time": 182881, "pitch": 77, "duration": 1894, "velocity": 97}, {"time": 182881, "pitch": 80, "duration": 1924, "velocity": 96}, {"time": 184795, "pitch": 76, "duration": 1925, "velocity": 95}, {"time": 184795, "pitch": 78, "duration": 1945, "velocity": 96}, {"time": 184795, "pitch": 82, "duration": 1905, "velocity": 97}, {"time": 186720, "pitch": 77, "duration": 1904, "velocity": 95}, {"time": 186720, "pitch": 80, "duration": 1935, "velocity": 97}, {"time": 188645, "pitch": 76, "duration": 1913, "velocity": 97}, {"time": 188645, "pitch": 78, "duration": 1933, "velocity": 96}, {"time": 188645, "pitch": 82, "duration": 1893, "velocity": 97}, {"time": 190558, "pitch": 77, "duration": 1905, "velocity": 95}, {"time": 190558, "pitch": 80, "duration": 1935, "velocity": 97}, {"time": 192483, "pitch": 76, "duration": 1914, "velocity": 98}, {"time": 192483, "pitch": 78, "duration": 1934, "velocity": 96}, {"time": 192483, "pitch": 82, "duration": 1894, "velocity": 97}, {"time": 194397, "pitch": 77, "duration": 5743, "velocity": 98}, {"time": 194397, "pitch": 80, "duration": 5773, "velocity": 97}, {"time": 200160, "pitch": 75, "duration": 3838, "velocity": 97}, {"time": 200160, "pitch": 79, "duration": 1904, "velocity": 96}, {"time": 200160, "pitch": 82, "duration": 1935, "velocity": 97}, {"time": 202085, "pitch": 78, "duration": 1913, "velocity": 97}, {"time": 202085, "pitch": 80, "duration": 9610, "velocity": 98}, {"time": 202085, "pitch": 84, "duration": 1893, "velocity": 96}, {"time": 203998, "pitch": 77, "duration": 3819, "velocity": 97}, {"time": 203998, "pitch": 85, "duration": 1925, "velocity": 97}, {"time": 205923, "pitch": 84, "duration": 1894, "velocity": 95}, {"time": 207837, "pitch": 75, "duration": 1944, "velocity": 95}, {"time": 207837, "pitch": 78, "duration": 1934, "velocity": 96}, {"time": 207837, "pitch": 82, "duration": 1924, "velocity": 98}, {"time": 209761, "pitch": 77, "duration": 1894, "velocity": 96}, {"time": 209761, "pitch": 85, "duration": 1914, "velocity": 95}, {"time": 211675, "pitch": 77, "duration": 3829, "velocity": 98}, {"time": 211675, "pitch": 85, "duration": 1925, "velocity": 98}, {"time": 213600, "pitch": 80, "duration": 10, "velocity": 96}, {"time": 213600, "pitch": 84, "duration": 1904, "velocity": 97}, {"time": 215525, "pitch": 75, "duration": 1933, "velocity": 95}, {"time": 215525, "pitch": 78, "duration": 1923, "velocity": 97}, {"time": 215525, "pitch": 82, "duration": 1913, "velocity": 97}, {"time": 217438, "pitch": 77, "duration": 1905, "velocity": 95}, {"time": 217438, "pitch": 85, "duration": 1925, "velocity": 97}, {"time": 220091, "pitch": 25, "duration": 99, "velocity": 79}, {"time": 220150, "pitch": 27, "duration": 90, "velocity": 80}, {"time": 220200, "pitch": 29, "duration": 80, "velocity": 92}, {"time": 220210, "pitch": 25, "duration": 30, "velocity": 61}, {"time": 220250, "pitch": 30, "duration": 80, "velocity": 92}, {"time": 220290, "pitch": 32, "duration": 80, "velocity": 95}, {"time": 220330, "pitch": 34, "duration": 79, "velocity": 100}, {"time": 220380, "pitch": 35, "duration": 69, "velocity": 92}, {"time": 220400, "pitch": 32, "duration": 29, "velocity": 60}, {"time": 220429, "pitch": 37, "duration": 80, "velocity": 92}, {"time": 220479, "pitch": 39, "duration": 80, "velocity": 95}, {"time": 220539, "pitch": 37, "duration": 30, "velocity": 66}, {"time": 220539, "pitch": 41, "duration": 80, "velocity": 100}, {"time": 220599, "pitch": 42, "duration": 70, "velocity": 86}, {"time": 220629, "pitch": 44, "duration": 89, "velocity": 90}, {"time": 220689, "pitch": 46, "duration": 69, "velocity": 95}, {"time": 220728, "pitch": 47, "duration": 80, "velocity": 90}, {"time": 220748, "pitch": 44, "duration": 30, "velocity": 67}, {"time": 220788, "pitch": 49, "duration": 70, "velocity": 92}, {"time": 220828, "pitch": 51, "duration": 80, "velocity": 97}, {"time": 220878, "pitch": 53, "duration": 80, "velocity": 100}, {"time": 220888, "pitch": 49, "duration": 30, "velocity": 63}, {"time": 220928, "pitch": 51, "duration": 30, "velocity": 68}, {"time": 220928, "pitch": 54, "duration": 79, "velocity": 92}, {"time": 220968, "pitch": 56, "duration": 89, "velocity": 100}, {"time": 221027, "pitch": 58, "duration": 80, "velocity": 97}, {"time": 221067, "pitch": 59, "duration": 80, "velocity": 92}, {"time": 221087, "pitch": 56, "duration": 20, "velocity": 63}, {"time": 221127, "pitch": 61, "duration": 80, "velocity": 100}, {"time": 221147, "pitch": 58, "duration": 20, "velocity": 52}, {"time": 221177, "pitch": 63, "duration": 90, "velocity": 106}, {"time": 221227, "pitch": 65, "duration": 79, "velocity": 106}, {"time": 221237, "pitch": 61, "duration": 30, "velocity": 64}, {"time": 221277, "pitch": 66, "duration": 79, "velocity": 109}, {"time": 221297, "pitch": 63, "duration": 19, "velocity": 68}, {"time": 221326, "pitch": 68, "duration": 60, "velocity": 109}, {"time": 221366, "pitch": 70, "duration": 40, "velocity": 113}, {"time": 221396, "pitch": 71, "duration": 30, "velocity": 113}, {"time": 221426, "pitch": 73, "duration": 30, "velocity": 106}, {"time": 221486, "pitch": 73, "duration": 30, "velocity": 73}, {"time": 223062, "pitch": 61, "duration": 279, "velocity": 108}, {"time": 223062, "pitch": 85, "duration": 279, "velocity": 122}, {"time": 223062, "pitch": 97, "duration": 299, "velocity": 112}, {"time": 223072, "pitch": 73, "duration": 279, "velocity": 121}, {"time": 223540, "pitch": 85, "duration": 170, "velocity": 101}, {"time": 223710, "pitch": 73, "duration": 199, "velocity": 83}, {"time": 224198, "pitch": 77, "duration": 199, "velocity": 117}, {"time": 224676, "pitch": 80, "duration": 170, "velocity": 112}, {"time": 225166, "pitch": 82, "duration": 748, "velocity": 121}, {"time": 225943, "pitch": 85, "duration": 220, "velocity": 117}, {"time": 226910, "pitch": 75, "duration": 558, "velocity": 117}, {"time": 226910, "pitch": 79, "duration": 120, "velocity": 122}, {"time": 226910, "pitch": 83, "duration": 509, "velocity": 121}, {"time": 227040, "pitch": 80, "duration": 448, "velocity": 79}, {"time": 227548, "pitch": 78, "duration": 329, "velocity": 112}, {"time": 227558, "pitch": 73, "duration": 259, "velocity": 108}, {"time": 227558, "pitch": 82, "duration": 239, "velocity": 108}, {"time": 228036, "pitch": 71, "duration": 250, "velocity": 108}, {"time": 228046, "pitch": 77, "duration": 260, "velocity": 117}, {"time": 228046, "pitch": 80, "duration": 260, "velocity": 108}, {"time": 228842, "pitch": 71, "duration": 561, "velocity": 117}, {"time": 228842, "pitch": 76, "duration": 142, "velocity": 122}, {"time": 228852, "pitch": 80, "duration": 531, "velocity": 117}, {"time": 228994, "pitch": 77, "duration": 469, "velocity": 72}, {"time": 229493, "pitch": 70, "duration": 229, "velocity": 104}, {"time": 229493, "pitch": 75, "duration": 229, "velocity": 104}, {"time": 229493, "pitch": 78, "duration": 239, "velocity": 98}, {"time": 229961, "pitch": 68, "duration": 180, "velocity": 101}, {"time": 229961, "pitch": 73, "duration": 210, "velocity": 104}, {"time": 229961, "pitch": 77, "duration": 190, "velocity": 112}, {"time": 230270, "pitch": 68, "duration": 90, "velocity": 95}, {"time": 230430, "pitch": 70, "duration": 229, "velocity": 112}, {"time": 230759, "pitch": 73, "duration": 149, "velocity": 121}, {"time": 231078, "pitch": 81, "duration": 49, "velocity": 29}, {"time": 231237, "pitch": 85, "duration": 229, "velocity": 101}, {"time": 231396, "pitch": 73, "duration": 250, "velocity": 101}, {"time": 231876, "pitch": 77, "duration": 245, "velocity": 121}, {"time": 232364, "pitch": 80, "duration": 210, "velocity": 108}, {"time": 232853, "pitch": 82, "duration": 658, "velocity": 121}, {"time": 233650, "pitch": 85, "duration": 120, "velocity": 109}, {"time": 233800, "pitch": 65, "duration": 169, "velocity": 108}, {"time": 233800, "pitch": 77, "duration": 169, "velocity": 108}, {"time": 234109, "pitch": 68, "duration": 109, "velocity": 95}, {"time": 234109, "pitch": 80, "duration": 109, "velocity": 95}, {"time": 234268, "pitch": 70, "duration": 219, "velocity": 104}, {"time": 234268, "pitch": 82, "duration": 219, "velocity": 104}, {"time": 234278, "pitch": 68, "duration": 20, "velocity": 49}, {"time": 234278, "pitch": 80, "duration": 20, "velocity": 49}, {"time": 234587, "pitch": 65, "duration": 349, "velocity": 117}, {"time": 234587, "pitch": 70, "duration": 359, "velocity": 104}, {"time": 234587, "pitch": 85, "duration": 369, "velocity": 117}, {"time": 235055, "pitch": 85, "duration": 120, "velocity": 104}, {"time": 235065, "pitch": 65, "duration": 80, "velocity": 108}, {"time": 235075, "pitch": 70, "duration": 70, "velocity": 75}, {"time": 235225, "pitch": 64, "duration": 245, "velocity": 121}, {"time": 235225, "pitch": 69, "duration": 235, "velocity": 113}, {"time": 235236, "pitch": 84, "duration": 245, "velocity": 122}, {"time": 235714, "pitch": 63, "duration": 937, "velocity": 122}, {"time": 235714, "pitch": 68, "duration": 897, "velocity": 117}, {"time": 235724, "pitch": 83, "duration": 937, "velocity": 122}, {"time": 236661, "pitch": 59, "duration": 140, "velocity": 109}, {"time": 236661, "pitch": 71, "duration": 140, "velocity": 109}, {"time": 236821, "pitch": 68, "duration": 119, "velocity": 110}, {"time": 236821, "pitch": 80, "duration": 119, "velocity": 110}, {"time": 236970, "pitch": 59, "duration": 110, "velocity": 111}, {"time": 236970, "pitch": 71, "duration": 110, "velocity": 111}, {"time": 237130, "pitch": 66, "duration": 189, "velocity": 111}, {"time": 237130, "pitch": 78, "duration": 189, "velocity": 111}, {"time": 237289, "pitch": 68, "duration": 90, "velocity": 112}, {"time": 237289, "pitch": 80, "duration": 90, "velocity": 112}, {"time": 237449, "pitch": 71, "duration": 129, "velocity": 113}, {"time": 237449, "pitch": 83, "duration": 129, "velocity": 113}, {"time": 237618, "pitch": 80, "duration": 150, "velocity": 113}, {"time": 237618, "pitch": 92, "duration": 150, "velocity": 113}, {"time": 237778, "pitch": 71, "duration": 149, "velocity": 114}, {"time": 237778, "pitch": 83, "duration": 149, "velocity": 114}, {"time": 237937, "pitch": 78, "duration": 199, "velocity": 115}, {"time": 237937, "pitch": 90, "duration": 199, "velocity": 115}, {"time": 238097, "pitch": 80, "duration": 229, "velocity": 116}, {"time": 238097, "pitch": 92, "duration": 229, "velocity": 116}, {"time": 238425, "pitch": 65, "duration": 171, "velocity": 122}, {"time": 238425, "pitch": 85, "duration": 171, "velocity": 121}, {"time": 238425, "pitch": 97, "duration": 171, "velocity": 121}, {"time": 238435, "pitch": 59, "duration": 161, "velocity": 95}, {"time": 238435, "pitch": 70, "duration": 161, "velocity": 121}, {"time": 50395, "pitch": 75, "duration": 102, "velocity": 119}, {"time": 50436, "pitch": 76, "duration": 204, "velocity": 120}, {"time": 50722, "pitch": 76, "duration": 122, "velocity": 120}, {"time": 50885, "pitch": 76, "duration": 269, "velocity": 121}, {"time": 51184, "pitch": 76, "duration": 119, "velocity": 120}, {"time": 51363, "pitch": 75, "duration": 329, "velocity": 121}, {"time": 51842, "pitch": 73, "duration": 328, "velocity": 121}, {"time": 52320, "pitch": 71, "duration": 329, "velocity": 121}, {"time": 52639, "pitch": 73, "duration": 329, "velocity": 121}, {"time": 53117, "pitch": 73, "duration": 329, "velocity": 121}, {"time": 54245, "pitch": 75, "duration": 99, "velocity": 119}, {"time": 54285, "pitch": 76, "duration": 199, "velocity": 120}, {"time": 54564, "pitch": 76, "duration": 119, "velocity": 120}, {"time": 54723, "pitch": 76, "duration": 269, "velocity": 121}, {"time": 55022, "pitch": 76, "duration": 120, "velocity": 120}, {"time": 55202, "pitch": 82, "duration": 328, "velocity": 121}, {"time": 55540, "pitch": 80, "duration": 130, "velocity": 121}, {"time": 55680, "pitch": 75, "duration": 329, "velocity": 121}, {"time": 55999, "pitch": 76, "duration": 329, "velocity": 121}, {"time": 58083, "pitch": 75, "duration": 100, "velocity": 119}, {"time": 58123, "pitch": 76, "duration": 199, "velocity": 120}, {"time": 58402, "pitch": 76, "duration": 120, "velocity": 120}, {"time": 58562, "pitch": 76, "duration": 269, "velocity": 121}, {"time": 58861, "pitch": 76, "duration": 119, "velocity": 120}, {"time": 59040, "pitch": 75, "duration": 329, "velocity": 121}, {"time": 59518, "pitch": 73, "duration": 329, "velocity": 121}, {"time": 59997, "pitch": 71, "duration": 329, "velocity": 121}, {"time": 60316, "pitch": 73, "duration": 333, "velocity": 121}, {"time": 60802, "pitch": 73, "duration": 332, "velocity": 121}, {"time": 61922, "pitch": 75, "duration": 99, "velocity": 119}, {"time": 61961, "pitch": 76, "duration": 200, "velocity": 120}, {"time": 62240, "pitch": 76, "duration": 120, "velocity": 120}, {"time": 62400, "pitch": 76, "duration": 269, "velocity": 121}, {"time": 62699, "pitch": 76, "duration": 120, "velocity": 120}, {"time": 62878, "pitch": 76, "duration": 329, "velocity": 121}, {"time": 63217, "pitch": 80, "duration": 130, "velocity": 121}, {"time": 63357, "pitch": 82, "duration": 329, "velocity": 121}, {"time": 63676, "pitch": 76, "duration": 333, "velocity": 121}, {"time": 73357, "pitch": 71, "duration": 70, "velocity": 104}, {"time": 73407, "pitch": 72, "duration": 100, "velocity": 119}, {"time": 73447, "pitch": 73, "duration": 309, "velocity": 113}, {"time": 73756, "pitch": 75, "duration": 230, "velocity": 127}, {"time": 74027, "pitch": 73, "duration": 266, "velocity": 127}, {"time": 74293, "pitch": 68, "duration": 172, "velocity": 127}, {"time": 74524, "pitch": 77, "duration": 259, "velocity": 115}, {"time": 74903, "pitch": 72, "duration": 80, "velocity": 121}, {"time": 74933, "pitch": 73, "duration": 259, "velocity": 121}, {"time": 75232, "pitch": 72, "duration": 1276, "velocity": 127}, {"time": 76797, "pitch": 68, "duration": 269, "velocity": 121}, {"time": 77096, "pitch": 68, "duration": 119, "velocity": 120}, {"time": 77275, "pitch": 70, "duration": 276, "velocity": 121}, {"time": 77581, "pitch": 69, "duration": 123, "velocity": 120}, {"time": 77765, "pitch": 70, "duration": 269, "velocity": 121}, {"time": 78243, "pitch": 72, "duration": 269, "velocity": 121}, {"time": 78542, "pitch": 71, "duration": 120, "velocity": 120}, {"time": 78722, "pitch": 72, "duration": 269, "velocity": 121}, {"time": 79210, "pitch": 72, "duration": 100, "velocity": 121}, {"time": 79280, "pitch": 73, "duration": 1305, "velocity": 126}, {"time": 81145, "pitch": 78, "duration": 229, "velocity": 108}, {"time": 81145, "pitch": 83, "duration": 229, "velocity": 104}, {"time": 81145, "pitch": 95, "duration": 209, "velocity": 117}, {"time": 81155, "pitch": 72, "duration": 199, "velocity": 107}, {"time": 81962, "pitch": 95, "duration": 209, "velocity": 117}, {"time": 81982, "pitch": 72, "duration": 179, "velocity": 90}, {"time": 81982, "pitch": 78, "duration": 199, "velocity": 98}, {"time": 81982, "pitch": 83, "duration": 189, "velocity": 104}, {"time": 100317, "pitch": 75, "duration": 99, "velocity": 119}, {"time": 100357, "pitch": 76, "duration": 199, "velocity": 120}, {"time": 100636, "pitch": 76, "duration": 119, "velocity": 120}, {"time": 100795, "pitch": 76, "duration": 276, "velocity": 121}, {"time": 101101, "pitch": 76, "duration": 123, "velocity": 120}, {"time": 101285, "pitch": 75, "duration": 329, "velocity": 121}, {"time": 101763, "pitch": 73, "duration": 329, "velocity": 121}, {"time": 102241, "pitch": 71, "duration": 329, "velocity": 121}, {"time": 102560, "pitch": 73, "duration": 329, "velocity": 121}, {"time": 103039, "pitch": 73, "duration": 329, "velocity": 121}, {"time": 104155, "pitch": 75, "duration": 102, "velocity": 119}, {"time": 104196, "pitch": 76, "duration": 204, "velocity": 120}, {"time": 104482, "pitch": 76, "duration": 122, "velocity": 120}, {"time": 104645, "pitch": 76, "duration": 269, "velocity": 121}, {"time": 104944, "pitch": 76, "duration": 119, "velocity": 120}, {"time": 105123, "pitch": 82, "duration": 329, "velocity": 121}, {"time": 105462, "pitch": 80, "duration": 130, "velocity": 121}, {"time": 105601, "pitch": 75, "duration": 329, "velocity": 121}, {"time": 105920, "pitch": 76, "duration": 329, "velocity": 121}, {"time": 108005, "pitch": 75, "duration": 99, "velocity": 119}, {"time": 108045, "pitch": 76, "duration": 199, "velocity": 120}, {"time": 108324, "pitch": 76, "duration": 119, "velocity": 120}, {"time": 108483, "pitch": 76, "duration": 269, "velocity": 121}, {"time": 108782, "pitch": 76, "duration": 120, "velocity": 120}, {"time": 108961, "pitch": 75, "duration": 329, "velocity": 121}, {"time": 109440, "pitch": 73, "duration": 329, "velocity": 121}, {"time": 109918, "pitch": 71, "duration": 329, "velocity": 121}, {"time": 110237, "pitch": 73, "duration": 329, "velocity": 121}, {"time": 110716, "pitch": 73, "duration": 332, "velocity": 121}, {"time": 111843, "pitch": 75, "duration": 100, "velocity": 119}, {"time": 111883, "pitch": 76, "duration": 199, "velocity": 120}, {"time": 112162, "pitch": 76, "duration": 120, "velocity": 120}, {"time": 112321, "pitch": 76, "duration": 270, "velocity": 121}, {"time": 112620, "pitch": 76, "duration": 120, "velocity": 120}, {"time": 112800, "pitch": 76, "duration": 329, "velocity": 121}, {"time": 113139, "pitch": 80, "duration": 129, "velocity": 121}, {"time": 113278, "pitch": 82, "duration": 329, "velocity": 121}, {"time": 113597, "pitch": 76, "duration": 329, "velocity": 121}, {"time": 123279, "pitch": 71, "duration": 69, "velocity": 104}, {"time": 123328, "pitch": 72, "duration": 100, "velocity": 119}, {"time": 123368, "pitch": 73, "duration": 309, "velocity": 113}, {"time": 123677, "pitch": 75, "duration": 229, "velocity": 127}, {"time": 123946, "pitch": 73, "duration": 259, "velocity": 127}, {"time": 124205, "pitch": 68, "duration": 171, "velocity": 127}, {"time": 124437, "pitch": 77, "duration": 266, "velocity": 115}, {"time": 124825, "pitch": 72, "duration": 79, "velocity": 121}, {"time": 124854, "pitch": 73, "duration": 260, "velocity": 121}, {"time": 125153, "pitch": 72, "duration": 1276, "velocity": 127}, {"time": 126718, "pitch": 68, "duration": 269, "velocity": 121}, {"time": 127017, "pitch": 68, "duration": 120, "velocity": 120}, {"time": 127197, "pitch": 70, "duration": 269, "velocity": 121}, {"time": 127496, "pitch": 69, "duration": 119, "velocity": 120}, {"time": 127675, "pitch": 70, "duration": 275, "velocity": 121}, {"time": 128165, "pitch": 72, "duration": 269, "velocity": 121}, {"time": 128464, "pitch": 71, "duration": 119, "velocity": 120}, {"time": 128643, "pitch": 72, "duration": 269, "velocity": 121}, {"time": 129131, "pitch": 72, "duration": 100, "velocity": 121}, {"time": 129201, "pitch": 73, "duration": 1306, "velocity": 126}, {"time": 131055, "pitch": 78, "duration": 235, "velocity": 108}, {"time": 131055, "pitch": 83, "duration": 235, "velocity": 104}, {"time": 131055, "pitch": 95, "duration": 215, "velocity": 117}, {"time": 131066, "pitch": 72, "duration": 204, "velocity": 107}, {"time": 131883, "pitch": 95, "duration": 210, "velocity": 117}, {"time": 131903, "pitch": 72, "duration": 180, "velocity": 90}, {"time": 131903, "pitch": 78, "duration": 200, "velocity": 98}, {"time": 131903, "pitch": 83, "duration": 190, "velocity": 104}, {"time": 180957, "pitch": 75, "duration": 99, "velocity": 119}, {"time": 180996, "pitch": 76, "duration": 200, "velocity": 120}, {"time": 181276, "pitch": 76, "duration": 119, "velocity": 120}, {"time": 181435, "pitch": 76, "duration": 275, "velocity": 121}, {"time": 181741, "pitch": 76, "duration": 122, "velocity": 120}, {"time": 181925, "pitch": 75, "duration": 329, "velocity": 121}, {"time": 182403, "pitch": 73, "duration": 329, "velocity": 121}, {"time": 182881, "pitch": 71, "duration": 329, "velocity": 121}, {"time": 183200, "pitch": 73, "duration": 329, "velocity": 121}, {"time": 183679, "pitch": 73, "duration": 329, "velocity": 121}, {"time": 184795, "pitch": 75, "duration": 102, "velocity": 119}, {"time": 184836, "pitch": 76, "duration": 204, "velocity": 120}, {"time": 185121, "pitch": 76, "duration": 123, "velocity": 120}, {"time": 185285, "pitch": 76, "duration": 269, "velocity": 121}, {"time": 185584, "pitch": 76, "duration": 119, "velocity": 120}, {"time": 185763, "pitch": 82, "duration": 329, "velocity": 121}, {"time": 186102, "pitch": 80, "duration": 129, "velocity": 121}, {"time": 186241, "pitch": 75, "duration": 329, "velocity": 121}, {"time": 186560, "pitch": 76, "duration": 329, "velocity": 121}, {"time": 188645, "pitch": 75, "duration": 99, "velocity": 119}, {"time": 188684, "pitch": 76, "duration": 200, "velocity": 120}, {"time": 188964, "pitch": 76, "duration": 119, "velocity": 120}, {"time": 189123, "pitch": 76, "duration": 269, "velocity": 121}, {"time": 189422, "pitch": 76, "duration": 120, "velocity": 120}, {"time": 189601, "pitch": 75, "duration": 329, "velocity": 121}, {"time": 190080, "pitch": 73, "duration": 329, "velocity": 121}, {"time": 190558, "pitch": 71, "duration": 329, "velocity": 121}, {"time": 190877, "pitch": 73, "duration": 329, "velocity": 121}, {"time": 191356, "pitch": 73, "duration": 332, "velocity": 121}, {"time": 192483, "pitch": 75, "duration": 100, "velocity": 119}, {"time": 192523, "pitch": 76, "duration": 199, "velocity": 120}, {"time": 192802, "pitch": 76, "duration": 120, "velocity": 120}, {"time": 192961, "pitch": 76, "duration": 270, "velocity": 121}, {"time": 193260, "pitch": 76, "duration": 120, "velocity": 120}, {"time": 193440, "pitch": 76, "duration": 329, "velocity": 121}, {"time": 193779, "pitch": 80, "duration": 129, "velocity": 121}, {"time": 193918, "pitch": 82, "duration": 329, "velocity": 121}, {"time": 194237, "pitch": 76, "duration": 329, "velocity": 121}, {"time": 203918, "pitch": 71, "duration": 70, "velocity": 104}, {"time": 203968, "pitch": 72, "duration": 100, "velocity": 119}, {"time": 204008, "pitch": 73, "duration": 309, "velocity": 113}, {"time": 204317, "pitch": 75, "duration": 229, "velocity": 127}, {"time": 204586, "pitch": 73, "duration": 259, "velocity": 127}, {"time": 204845, "pitch": 68, "duration": 171, "velocity": 127}, {"time": 205077, "pitch": 77, "duration": 266, "velocity": 115}, {"time": 205465, "pitch": 72, "duration": 79, "velocity": 121}, {"time": 205494, "pitch": 73, "duration": 260, "velocity": 121}, {"time": 205793, "pitch": 72, "duration": 1276, "velocity": 127}, {"time": 207358, "pitch": 68, "duration": 269, "velocity": 121}, {"time": 207657, "pitch": 68, "duration": 120, "velocity": 120}, {"time": 207837, "pitch": 70, "duration": 269, "velocity": 121}, {"time": 208136, "pitch": 69, "duration": 119, "velocity": 120}, {"time": 208315, "pitch": 70, "duration": 275, "velocity": 121}, {"time": 208805, "pitch": 72, "duration": 269, "velocity": 121}, {"time": 209104, "pitch": 71, "duration": 119, "velocity": 120}, {"time": 209283, "pitch": 72, "duration": 269, "velocity": 121}, {"time": 209771, "pitch": 72, "duration": 100, "velocity": 121}, {"time": 209841, "pitch": 73, "duration": 1306, "velocity": 126}, {"time": 211685, "pitch": 85, "duration": 316, "velocity": 113}, {"time": 212001, "pitch": 87, "duration": 233, "velocity": 127}, {"time": 212274, "pitch": 85, "duration": 259, "velocity": 127}, {"time": 212533, "pitch": 80, "duration": 170, "velocity": 127}, {"time": 212763, "pitch": 89, "duration": 259, "velocity": 115}, {"time": 213141, "pitch": 84, "duration": 80, "velocity": 121}, {"time": 213171, "pitch": 85, "duration": 259, "velocity": 121}, {"time": 213470, "pitch": 84, "duration": 1276, "velocity": 127}, {"time": 215035, "pitch": 80, "duration": 275, "velocity": 121}, {"time": 215341, "pitch": 80, "duration": 122, "velocity": 120}, {"time": 215525, "pitch": 82, "duration": 269, "velocity": 121}, {"time": 215824, "pitch": 81, "duration": 119, "velocity": 120}, {"time": 216003, "pitch": 82, "duration": 269, "velocity": 121}, {"time": 216481, "pitch": 84, "duration": 269, "velocity": 121}, {"time": 216780, "pitch": 83, "duration": 120, "velocity": 120}, {"time": 216960, "pitch": 84, "duration": 269, "velocity": 121}, {"time": 217448, "pitch": 84, "duration": 100, "velocity": 121}, {"time": 217518, "pitch": 85, "duration": 1316, "velocity": 126}, {"time": 495, "pitch": 40, "duration": 10, "velocity": 127}, {"time": 495, "pitch": 44, "duration": 10, "velocity": 115}, {"time": 505, "pitch": 35, "duration": 10, "velocity": 127}, {"time": 1292, "pitch": 35, "duration": 10, "velocity": 127}, {"time": 1292, "pitch": 40, "duration": 10, "velocity": 127}, {"time": 1292, "pitch": 44, "duration": 10, "velocity": 119}, {"time": 2408, "pitch": 47, "duration": 10, "velocity": 117}, {"time": 2727, "pitch": 45, "duration": 10, "velocity": 119}, {"time": 3206, "pitch": 44, "duration": 10, "velocity": 110}, {"time": 3365, "pitch": 45, "duration": 11, "velocity": 120}, {"time": 3692, "pitch": 43, "duration": 10, "velocity": 127}, {"time": 3692, "pitch": 44, "duration": 10, "velocity": 90}, {"time": 3855, "pitch": 46, "duration": 10, "velocity": 118}, {"time": 4174, "pitch": 35, "duration": 10, "velocity": 127}, {"time": 4333, "pitch": 44, "duration": 10, "velocity": 116}, {"time": 4812, "pitch": 35, "duration": 10, "velocity": 127}, {"time": 4812, "pitch": 42, "duration": 10, "velocity": 92}, {"time": 5130, "pitch": 42, "duration": 10, "velocity": 91}, {"time": 5280, "pitch": 40, "duration": 10, "velocity": 127}, {"time": 5290, "pitch": 44, "duration": 10, "velocity": 110}, {"time": 5768, "pitch": 35, "duration": 10, "velocity": 127}, {"time": 5768, "pitch": 42, "duration": 10, "velocity": 93}, {"time": 6087, "pitch": 42, "duration": 10, "velocity": 88}, {"time": 6247, "pitch": 44, "duration": 10, "velocity": 101}, {"time": 6725, "pitch": 35, "duration": 11, "velocity": 122}, {"time": 6725, "pitch": 42, "duration": 11, "velocity": 89}, {"time": 7052, "pitch": 42, "duration": 10, "velocity": 87}, {"time": 7205, "pitch": 40, "duration": 10, "velocity": 127}, {"time": 7215, "pitch": 44, "duration": 10, "velocity": 104}, {"time": 7693, "pitch": 35, "duration": 10, "velocity": 123}, {"time": 7693, "pitch": 42, "duration": 10, "velocity": 89}, {"time": 8012, "pitch": 42, "duration": 10, "velocity": 80}, {"time": 8172, "pitch": 44, "duration": 10, "velocity": 112}, {"time": 8650, "pitch": 35, "duration": 10, "velocity": 127}, {"time": 8650, "pitch": 42, "duration": 10, "velocity": 91}, {"time": 8969, "pitch": 42, "duration": 10, "velocity": 82}, {"time": 9118, "pitch": 40, "duration": 10, "velocity": 127}, {"time": 9128, "pitch": 44, "duration": 10, "velocity": 105}, {"time": 9607, "pitch": 35, "duration": 10, "velocity": 127}, {"time": 9607, "pitch": 42, "duration": 10, "velocity": 81}, {"time": 9926, "pitch": 42, "duration": 10, "velocity": 85}, {"time": 10075, "pitch": 40, "duration": 10, "velocity": 127}, {"time": 10085, "pitch": 44, "duration": 10, "velocity": 113}, {"time": 10575, "pitch": 35, "duration": 10, "velocity": 120}, {"time": 10884, "pitch": 40, "duration": 10, "velocity": 127}, {"time": 10894, "pitch": 44, "duration": 10, "velocity": 114}, {"time": 11372, "pitch": 35, "duration": 10, "velocity": 96}, {"time": 11372, "pitch": 42, "duration": 10, "velocity": 116}, {"time": 11532, "pitch": 35, "duration": 10, "velocity": 127}, {"time": 11850, "pitch": 35, "duration": 10, "velocity": 127}, {"time": 11850, "pitch": 42, "duration": 10, "velocity": 89}, {"time": 12010, "pitch": 44, "duration": 10, "velocity": 122}, {"time": 12488, "pitch": 35, "duration": 10, "velocity": 127}, {"time": 12488, "pitch": 42, "duration": 10, "velocity": 89}, {"time": 12807, "pitch": 42, "duration": 10, "velocity": 91}, {"time": 12957, "pitch": 40, "duration": 10, "velocity": 127}, {"time": 12967, "pitch": 44, "duration": 10, "velocity": 100}, {"time": 13445, "pitch": 35, "duration": 10, "velocity": 127}, {"time": 13445, "pitch": 42, "duration": 10, "velocity": 93}, {"time": 13772, "pitch": 42, "duration": 10, "velocity": 84}, {"time": 13935, "pitch": 44, "duration": 10, "velocity": 111}, {"time": 14413, "pitch": 35, "duration": 10, "velocity": 127}, {"time": 14413, "pitch": 42, "duration": 10, "velocity": 94}, {"time": 14732, "pitch": 42, "duration": 10, "velocity": 82}, {"time": 14882, "pitch": 40, "duration": 10, "velocity": 127}, {"time": 14892, "pitch": 44, "duration": 10, "velocity": 112}, {"time": 15370, "pitch": 35, "duration": 10, "velocity": 127}, {"time": 15370, "pitch": 42, "duration": 10, "velocity": 91}, {"time": 15689, "pitch": 42, "duration": 10, "velocity": 91}, {"time": 15848, "pitch": 44, "duration": 10, "velocity": 109}, {"time": 16327, "pitch": 35, "duration": 10, "velocity": 127}, {"time": 16327, "pitch": 42, "duration": 10, "velocity": 94}, {"time": 16646, "pitch": 42, "duration": 10, "velocity": 91}, {"time": 16795, "pitch": 40, "duration": 10, "velocity": 127}, {"time": 16805, "pitch": 44, "duration": 10, "velocity": 106}, {"time": 17295, "pitch": 35, "duration": 10, "velocity": 127}, {"time": 17295, "pitch": 42, "duration": 10, "velocity": 91}, {"time": 17614, "pitch": 42, "duration": 10, "velocity": 97}, {"time": 17773, "pitch": 44, "duration": 10, "velocity": 122}, {"time": 18252, "pitch": 35, "duration": 10, "velocity": 127}, {"time": 18252, "pitch": 42, "duration": 10, "velocity": 96}, {"time": 18570, "pitch": 44, "duration": 10, "velocity": 119}, {"time": 18720, "pitch": 40, "duration": 10, "velocity": 127}, {"time": 18730, "pitch": 42, "duration": 10, "velocity": 97}, {"time": 19049, "pitch": 42, "duration": 10, "velocity": 97}, {"time": 19049, "pitch": 45, "duration": 10, "velocity": 126}, {"time": 19208, "pitch": 40, "duration": 10, "velocity": 127}, {"time": 19208, "pitch": 46, "duration": 10, "velocity": 127}, {"time": 19527, "pitch": 35, "duration": 10, "velocity": 127}, {"time": 19527, "pitch": 44, "duration": 10, "velocity": 127}, {"time": 20165, "pitch": 35, "duration": 10, "velocity": 127}, {"time": 20165, "pitch": 42, "duration": 10, "velocity": 107}, {"time": 20492, "pitch": 42, "duration": 10, "velocity": 92}, {"time": 20645, "pitch": 40, "duration": 10, "velocity": 127}, {"time": 20655, "pitch": 44, "duration": 10, "velocity": 124}, {"time": 21133, "pitch": 35, "duration": 10, "velocity": 127}, {"time": 21133, "pitch": 42, "duration": 10, "velocity": 104}, {"time": 21452, "pitch": 42, "duration": 10, "velocity": 85}, {"time": 21612, "pitch": 44, "duration": 10, "velocity": 112}, {"time": 21930, "pitch": 42, "duration": 10, "velocity": 82}, {"time": 22090, "pitch": 35, "duration": 10, "velocity": 119}, {"time": 22090, "pitch": 44, "duration": 10, "velocity": 112}, {"time": 22558, "pitch": 40, "duration": 10, "velocity": 127}, {"time": 22568, "pitch": 44, "duration": 10, "velocity": 119}, {"time": 22887, "pitch": 42, "duration": 10, "velocity": 86}, {"time": 23047, "pitch": 35, "duration": 10, "velocity": 127}, {"time": 23047, "pitch": 44, "duration": 10, "velocity": 116}, {"time": 23525, "pitch": 44, "duration": 10, "velocity": 110}, {"time": 24015, "pitch": 35, "duration": 10, "velocity": 127}, {"time": 24015, "pitch": 42, "duration": 10, "velocity": 103}, {"time": 24324, "pitch": 42, "duration": 10, "velocity": 82}, {"time": 24483, "pitch": 40, "duration": 10, "velocity": 127}, {"time": 24493, "pitch": 44, "duration": 10, "velocity": 119}, {"time": 24972, "pitch": 35, "duration": 10, "velocity": 124}, {"time": 24972, "pitch": 42, "duration": 10, "velocity": 99}, {"time": 25290, "pitch": 42, "duration": 10, "velocity": 91}, {"time": 25450, "pitch": 44, "duration": 10, "velocity": 112}, {"time": 25450, "pitch": 47, "duration": 10, "velocity": 127}, {"time": 25769, "pitch": 35, "duration": 10, "velocity": 127}, {"time": 25928, "pitch": 42, "duration": 10, "velocity": 109}, {"time": 26237, "pitch": 40, "duration": 10, "velocity": 127}, {"time": 26247, "pitch": 35, "duration": 10, "velocity": 99}, {"time": 26247, "pitch": 42, "duration": 10, "velocity": 91}, {"time": 26407, "pitch": 44, "duration": 10, "velocity": 99}, {"time": 26407, "pitch": 45, "duration": 10, "velocity": 127}, {"time": 26726, "pitch": 42, "duration": 10, "velocity": 88}, {"time": 26885, "pitch": 42, "duration": 10, "velocity": 94}, {"time": 26885, "pitch": 43, "duration": 10, "velocity": 127}, {"time": 27212, "pitch": 35, "duration": 10, "velocity": 127}, {"time": 27212, "pitch": 46, "duration": 10, "velocity": 119}, {"time": 27694, "pitch": 42, "duration": 10, "velocity": 87}, {"time": 27853, "pitch": 35, "duration": 10, "velocity": 127}, {"time": 27853, "pitch": 44, "duration": 10, "velocity": 112}, {"time": 28322, "pitch": 40, "duration": 10, "velocity": 127}, {"time": 28332, "pitch": 44, "duration": 9, "velocity": 125}, {"time": 28810, "pitch": 35, "duration": 10, "velocity": 123}, {"time": 28810, "pitch": 42, "duration": 10, "velocity": 97}, {"time": 29129, "pitch": 42, "duration": 10, "velocity": 84}, {"time": 29288, "pitch": 44, "duration": 10, "velocity": 114}, {"time": 29767, "pitch": 35, "duration": 10, "velocity": 127}, {"time": 29767, "pitch": 42, "duration": 10, "velocity": 94}, {"time": 30086, "pitch": 42, "duration": 10, "velocity": 94}, {"time": 30235, "pitch": 40, "duration": 10, "velocity": 127}, {"time": 30245, "pitch": 44, "duration": 10, "velocity": 114}, {"time": 30245, "pitch": 45, "duration": 10, "velocity": 127}, {"time": 30572, "pitch": 42, "duration": 10, "velocity": 91}, {"time": 30572, "pitch": 43, "duration": 10, "velocity": 107}, {"time": 30735, "pitch": 35, "duration": 10, "velocity": 100}, {"time": 30735, "pitch": 42, "duration": 10, "velocity": 104}, {"time": 31054, "pitch": 35, "duration": 10, "velocity": 127}, {"time": 31054, "pitch": 40, "duration": 10, "velocity": 125}, {"time": 31054, "pitch": 44, "duration": 10, "velocity": 127}, {"time": 31213, "pitch": 48, "duration": 10, "velocity": 98}, {"time": 31373, "pitch": 48, "duration": 10, "velocity": 97}, {"time": 31532, "pitch": 48, "duration": 10, "velocity": 98}, {"time": 31692, "pitch": 47, "duration": 9, "velocity": 110}, {"time": 32000, "pitch": 47, "duration": 10, "velocity": 105}, {"time": 32170, "pitch": 45, "duration": 10, "velocity": 109}, {"time": 32489, "pitch": 45, "duration": 10, "velocity": 108}, {"time": 32648, "pitch": 47, "duration": 10, "velocity": 107}, {"time": 33127, "pitch": 48, "duration": 10, "velocity": 99}, {"time": 33286, "pitch": 48, "duration": 10, "velocity": 94}, {"time": 33446, "pitch": 48, "duration": 10, "velocity": 100}, {"time": 33605, "pitch": 47, "duration": 10, "velocity": 113}, {"time": 33769, "pitch": 45, "duration": 10, "velocity": 122}, {"time": 34095, "pitch": 43, "duration": 10, "velocity": 112}, {"time": 35052, "pitch": 35, "duration": 9, "velocity": 127}, {"time": 35052, "pitch": 44, "duration": 9, "velocity": 105}, {"time": 35370, "pitch": 42, "duration": 10, "velocity": 88}, {"time": 35530, "pitch": 46, "duration": 10, "velocity": 111}, {"time": 36008, "pitch": 44, "duration": 10, "velocity": 91}, {"time": 36317, "pitch": 42, "duration": 10, "velocity": 85}, {"time": 36487, "pitch": 46, "duration": 10, "velocity": 103}, {"time": 36965, "pitch": 35, "duration": 10, "velocity": 122}, {"time": 36965, "pitch": 44, "duration": 10, "velocity": 80}, {"time": 37292, "pitch": 42, "duration": 10, "velocity": 88}, {"time": 37455, "pitch": 46, "duration": 10, "velocity": 109}, {"time": 37774, "pitch": 46, "duration": 10, "velocity": 121}, {"time": 38252, "pitch": 42, "duration": 10, "velocity": 87}, {"time": 38412, "pitch": 46, "duration": 9, "velocity": 105}, {"time": 38730, "pitch": 35, "duration": 10, "velocity": 127}, {"time": 38890, "pitch": 44, "duration": 10, "velocity": 101}, {"time": 39209, "pitch": 42, "duration": 10, "velocity": 85}, {"time": 39368, "pitch": 35, "duration": 10, "velocity": 115}, {"time": 39368, "pitch": 46, "duration": 10, "velocity": 114}, {"time": 39847, "pitch": 40, "duration": 10, "velocity": 127}, {"time": 39847, "pitch": 44, "duration": 10, "velocity": 94}, {"time": 40166, "pitch": 42, "duration": 10, "velocity": 88}, {"time": 40325, "pitch": 46, "duration": 10, "velocity": 111}, {"time": 40652, "pitch": 35, "duration": 10, "velocity": 127}, {"time": 40815, "pitch": 44, "duration": 10, "velocity": 88}, {"time": 41134, "pitch": 42, "duration": 10, "velocity": 87}, {"time": 41293, "pitch": 35, "duration": 10, "velocity": 127}, {"time": 41293, "pitch": 46, "duration": 10, "velocity": 119}, {"time": 41772, "pitch": 40, "duration": 9, "velocity": 127}, {"time": 41772, "pitch": 44, "duration": 9, "velocity": 87}, {"time": 42090, "pitch": 42, "duration": 10, "velocity": 97}, {"time": 42090, "pitch": 45, "duration": 10, "velocity": 110}, {"time": 42250, "pitch": 43, "duration": 10, "velocity": 127}, {"time": 42250, "pitch": 46, "duration": 10, "velocity": 107}, {"time": 42569, "pitch": 35, "duration": 10, "velocity": 127}, {"time": 42569, "pitch": 46, "duration": 10, "velocity": 119}, {"time": 43047, "pitch": 42, "duration": 10, "velocity": 88}, {"time": 43207, "pitch": 46, "duration": 10, "velocity": 114}, {"time": 43685, "pitch": 44, "duration": 10, "velocity": 95}, {"time": 44012, "pitch": 42, "duration": 10, "velocity": 88}, {"time": 44175, "pitch": 46, "duration": 10, "velocity": 121}, {"time": 44653, "pitch": 35, "duration": 10, "velocity": 120}, {"time": 44653, "pitch": 44, "duration": 10, "velocity": 84}, {"time": 44972, "pitch": 42, "duration": 10, "velocity": 92}, {"time": 45132, "pitch": 46, "duration": 9, "velocity": 108}, {"time": 45610, "pitch": 44, "duration": 10, "velocity": 88}, {"time": 45929, "pitch": 42, "duration": 10, "velocity": 93}, {"time": 46078, "pitch": 46, "duration": 10, "velocity": 103}, {"time": 46407, "pitch": 35, "duration": 10, "velocity": 127}, {"time": 46407, "pitch": 44, "duration": 10, "velocity": 117}, {"time": 46886, "pitch": 42, "duration": 10, "velocity": 90}, {"time": 47045, "pitch": 35, "duration": 10, "velocity": 127}, {"time": 47045, "pitch": 46, "duration": 10, "velocity": 127}, {"time": 47535, "pitch": 35, "duration": 10, "velocity": 127}, {"time": 47535, "pitch": 44, "duration": 10, "velocity": 95}, {"time": 47854, "pitch": 42, "duration": 10, "velocity": 89}, {"time": 48013, "pitch": 46, "duration": 10, "velocity": 127}, {"time": 48492, "pitch": 44, "duration": 9, "velocity": 94}, {"time": 48810, "pitch": 40, "duration": 10, "velocity": 127}, {"time": 48810, "pitch": 42, "duration": 10, "velocity": 96}, {"time": 48970, "pitch": 46, "duration": 10, "velocity": 123}, {"time": 49289, "pitch": 35, "duration": 10, "velocity": 98}, {"time": 49289, "pitch": 42, "duration": 10, "velocity": 87}, {"time": 49448, "pitch": 40, "duration": 10, "velocity": 127}, {"time": 49448, "pitch": 46, "duration": 10, "velocity": 118}, {"time": 49767, "pitch": 45, "duration": 10, "velocity": 105}, {"time": 49767, "pitch": 46, "duration": 10, "velocity": 127}, {"time": 49927, "pitch": 43, "duration": 10, "velocity": 118}, {"time": 50246, "pitch": 35, "duration": 10, "velocity": 127}, {"time": 50246, "pitch": 46, "duration": 10, "velocity": 121}, {"time": 50405, "pitch": 35, "duration": 10, "velocity": 127}, {"time": 50405, "pitch": 44, "duration": 10, "velocity": 110}, {"time": 50895, "pitch": 42, "duration": 10, "velocity": 91}, {"time": 51214, "pitch": 35, "duration": 10, "velocity": 102}, {"time": 51214, "pitch": 42, "duration": 10, "velocity": 92}, {"time": 51373, "pitch": 40, "duration": 10, "velocity": 127}, {"time": 51373, "pitch": 44, "duration": 10, "velocity": 117}, {"time": 51852, "pitch": 42, "duration": 9, "velocity": 92}, {"time": 52170, "pitch": 35, "duration": 10, "velocity": 86}, {"time": 52170, "pitch": 42, "duration": 10, "velocity": 97}, {"time": 52330, "pitch": 35, "duration": 10, "velocity": 117}, {"time": 52330, "pitch": 44, "duration": 10, "velocity": 120}, {"time": 52808, "pitch": 42, "duration": 10, "velocity": 93}, {"time": 53127, "pitch": 35, "duration": 10, "velocity": 97}, {"time": 53127, "pitch": 42, "duration": 10, "velocity": 94}, {"time": 53287, "pitch": 40, "duration": 10, "velocity": 122}, {"time": 53287, "pitch": 46, "duration": 10, "velocity": 118}, {"time": 53765, "pitch": 42, "duration": 10, "velocity": 87}, {"time": 54092, "pitch": 35, "duration": 10, "velocity": 127}, {"time": 54092, "pitch": 42, "duration": 10, "velocity": 84}, {"time": 54255, "pitch": 44, "duration": 10, "velocity": 111}, {"time": 54574, "pitch": 35, "duration": 10, "velocity": 92}, {"time": 54733, "pitch": 35, "duration": 10, "velocity": 120}, {"time": 54733, "pitch": 42, "duration": 10, "velocity": 91}, {"time": 55052, "pitch": 42, "duration": 10, "velocity": 92}, {"time": 55212, "pitch": 40, "duration": 9, "velocity": 127}, {"time": 55212, "pitch": 44, "duration": 9, "velocity": 111}, {"time": 55690, "pitch": 42, "duration": 10, "velocity": 91}, {"time": 56009, "pitch": 42, "duration": 10, "velocity": 97}, {"time": 56168, "pitch": 35, "duration": 10, "velocity": 127}, {"time": 56168, "pitch": 44, "duration": 10, "velocity": 110}, {"time": 56647, "pitch": 42, "duration": 10, "velocity": 84}, {"time": 56806, "pitch": 42, "duration": 10, "velocity": 86}, {"time": 56966, "pitch": 35, "duration": 10, "velocity": 120}, {"time": 56966, "pitch": 42, "duration": 10, "velocity": 94}, {"time": 57125, "pitch": 40, "duration": 10, "velocity": 125}, {"time": 57125, "pitch": 42, "duration": 10, "velocity": 112}, {"time": 57452, "pitch": 44, "duration": 10, "velocity": 111}, {"time": 57615, "pitch": 42, "duration": 10, "velocity": 87}, {"time": 57934, "pitch": 42, "duration": 10, "velocity": 86}, {"time": 58083, "pitch": 35, "duration": 10, "velocity": 127}, {"time": 58093, "pitch": 44, "duration": 10, "velocity": 110}, {"time": 58572, "pitch": 42, "duration": 9, "velocity": 91}, {"time": 58890, "pitch": 35, "duration": 10, "velocity": 102}, {"time": 58890, "pitch": 42, "duration": 10, "velocity": 92}, {"time": 59050, "pitch": 40, "duration": 10, "velocity": 127}, {"time": 59050, "pitch": 44, "duration": 10, "velocity": 117}, {"time": 59528, "pitch": 42, "duration": 10, "velocity": 92}, {"time": 59847, "pitch": 35, "duration": 10, "velocity": 86}, {"time": 59847, "pitch": 42, "duration": 10, "velocity": 97}, {"time": 60007, "pitch": 35, "duration": 10, "velocity": 117}, {"time": 60007, "pitch": 44, "duration": 10, "velocity": 120}, {"time": 60485, "pitch": 42, "duration": 10, "velocity": 93}, {"time": 60812, "pitch": 35, "duration": 10, "velocity": 97}, {"time": 60812, "pitch": 42, "duration": 10, "velocity": 94}, {"time": 60975, "pitch": 40, "duration": 10, "velocity": 122}, {"time": 60975, "pitch": 46, "duration": 10, "velocity": 118}, {"time": 61453, "pitch": 42, "duration": 10, "velocity": 87}, {"time": 61772, "pitch": 35, "duration": 10, "velocity": 127}, {"time": 61772, "pitch": 42, "duration": 10, "velocity": 84}, {"time": 61931, "pitch": 44, "duration": 10, "velocity": 111}, {"time": 62250, "pitch": 35, "duration": 10, "velocity": 92}, {"time": 62410, "pitch": 35, "duration": 10, "velocity": 120}, {"time": 62410, "pitch": 42, "duration": 10, "velocity": 91}, {"time": 62729, "pitch": 42, "duration": 10, "velocity": 92}, {"time": 62888, "pitch": 40, "duration": 10, "velocity": 127}, {"time": 62888, "pitch": 44, "duration": 10, "velocity": 111}, {"time": 63367, "pitch": 42, "duration": 10, "velocity": 91}, {"time": 63686, "pitch": 42, "duration": 10, "velocity": 97}, {"time": 63845, "pitch": 35, "duration": 10, "velocity": 127}, {"time": 63845, "pitch": 44, "duration": 10, "velocity": 110}, {"time": 64335, "pitch": 42, "duration": 10, "velocity": 84}, {"time": 64494, "pitch": 42, "duration": 10, "velocity": 86}, {"time": 64654, "pitch": 35, "duration": 10, "velocity": 120}, {"time": 64654, "pitch": 42, "duration": 10, "velocity": 94}, {"time": 64813, "pitch": 40, "duration": 10, "velocity": 125}, {"time": 64813, "pitch": 42, "duration": 10, "velocity": 112}, {"time": 65132, "pitch": 44, "duration": 10, "velocity": 111}, {"time": 65291, "pitch": 42, "duration": 10, "velocity": 87}, {"time": 65610, "pitch": 42, "duration": 10, "velocity": 86}, {"time": 65760, "pitch": 35, "duration": 10, "velocity": 127}, {"time": 66089, "pitch": 42, "duration": 10, "velocity": 94}, {"time": 66248, "pitch": 46, "duration": 10, "velocity": 103}, {"time": 66717, "pitch": 40, "duration": 10, "velocity": 125}, {"time": 66727, "pitch": 44, "duration": 10, "velocity": 106}, {"time": 67046, "pitch": 42, "duration": 10, "velocity": 88}, {"time": 67205, "pitch": 46, "duration": 10, "velocity": 127}, {"time": 67532, "pitch": 35, "duration": 10, "velocity": 96}, {"time": 67695, "pitch": 35, "duration": 10, "velocity": 127}, {"time": 67695, "pitch": 44, "duration": 10, "velocity": 90}, {"time": 68014, "pitch": 42, "duration": 10, "velocity": 94}, {"time": 68173, "pitch": 46, "duration": 10, "velocity": 123}, {"time": 68642, "pitch": 40, "duration": 9, "velocity": 125}, {"time": 68651, "pitch": 44, "duration": 10, "velocity": 91}, {"time": 68970, "pitch": 42, "duration": 10, "velocity": 97}, {"time": 69130, "pitch": 46, "duration": 10, "velocity": 105}, {"time": 69449, "pitch": 35, "duration": 10, "velocity": 110}, {"time": 69449, "pitch": 46, "duration": 10, "velocity": 127}, {"time": 69927, "pitch": 42, "duration": 10, "velocity": 96}, {"time": 70087, "pitch": 35, "duration": 10, "velocity": 124}, {"time": 70087, "pitch": 46, "duration": 10, "velocity": 103}, {"time": 70555, "pitch": 40, "duration": 10, "velocity": 125}, {"time": 70565, "pitch": 35, "duration": 10, "velocity": 127}, {"time": 70565, "pitch": 46, "duration": 10, "velocity": 123}, {"time": 71374, "pitch": 35, "duration": 10, "velocity": 88}, {"time": 71374, "pitch": 46, "duration": 10, "velocity": 125}, {"time": 71533, "pitch": 45, "duration": 10, "velocity": 112}, {"time": 71852, "pitch": 40, "duration": 10, "velocity": 127}, {"time": 71852, "pitch": 44, "duration": 10, "velocity": 101}, {"time": 72011, "pitch": 42, "duration": 10, "velocity": 85}, {"time": 72330, "pitch": 45, "duration": 10, "velocity": 96}, {"time": 72330, "pitch": 46, "duration": 10, "velocity": 127}, {"time": 72490, "pitch": 40, "duration": 10, "velocity": 115}, {"time": 72649, "pitch": 44, "duration": 10, "velocity": 82}, {"time": 72809, "pitch": 42, "duration": 10, "velocity": 101}, {"time": 72809, "pitch": 45, "duration": 10, "velocity": 110}, {"time": 72968, "pitch": 43, "duration": 10, "velocity": 111}, {"time": 72968, "pitch": 44, "duration": 10, "velocity": 113}, {"time": 73287, "pitch": 35, "duration": 10, "velocity": 127}, {"time": 73287, "pitch": 40, "duration": 10, "velocity": 127}, {"time": 73287, "pitch": 46, "duration": 10, "velocity": 115}, {"time": 73925, "pitch": 35, "duration": 10, "velocity": 127}, {"time": 74415, "pitch": 44, "duration": 10, "velocity": 120}, {"time": 74893, "pitch": 35, "duration": 10, "velocity": 127}, {"time": 75212, "pitch": 46, "duration": 10, "velocity": 127}, {"time": 75690, "pitch": 35, "duration": 10, "velocity": 88}, {"time": 75690, "pitch": 42, "duration": 10, "velocity": 97}, {"time": 75850, "pitch": 35, "duration": 10, "velocity": 127}, {"time": 75850, "pitch": 46, "duration": 10, "velocity": 118}, {"time": 76328, "pitch": 46, "duration": 10, "velocity": 117}, {"time": 76647, "pitch": 42, "duration": 10, "velocity": 110}, {"time": 76797, "pitch": 40, "duration": 10, "velocity": 127}, {"time": 76807, "pitch": 35, "duration": 10, "velocity": 124}, {"time": 77775, "pitch": 35, "duration": 10, "velocity": 127}, {"time": 78253, "pitch": 44, "duration": 10, "velocity": 124}, {"time": 78572, "pitch": 42, "duration": 10, "velocity": 110}, {"time": 78731, "pitch": 35, "duration": 10, "velocity": 119}, {"time": 79050, "pitch": 46, "duration": 10, "velocity": 125}, {"time": 79210, "pitch": 45, "duration": 10, "velocity": 125}, {"time": 79529, "pitch": 35, "duration": 10, "velocity": 102}, {"time": 79529, "pitch": 42, "duration": 10, "velocity": 115}, {"time": 80007, "pitch": 45, "duration": 10, "velocity": 108}, {"time": 80007, "pitch": 46, "duration": 10, "velocity": 127}, {"time": 80167, "pitch": 35, "duration": 10, "velocity": 78}, {"time": 80167, "pitch": 42, "duration": 10, "velocity": 62}, {"time": 80326, "pitch": 40, "duration": 10, "velocity": 85}, {"time": 80326, "pitch": 44, "duration": 10, "velocity": 66}, {"time": 80486, "pitch": 40, "duration": 10, "velocity": 110}, {"time": 80486, "pitch": 42, "duration": 10, "velocity": 103}, {"time": 80645, "pitch": 40, "duration": 10, "velocity": 112}, {"time": 80645, "pitch": 46, "duration": 10, "velocity": 119}, {"time": 80808, "pitch": 40, "duration": 11, "velocity": 113}, {"time": 80972, "pitch": 40, "duration": 10, "velocity": 127}, {"time": 81135, "pitch": 40, "duration": 10, "velocity": 127}, {"time": 81135, "pitch": 44, "duration": 10, "velocity": 115}, {"time": 81145, "pitch": 35, "duration": 10, "velocity": 127}, {"time": 81932, "pitch": 35, "duration": 10, "velocity": 127}, {"time": 81932, "pitch": 40, "duration": 10, "velocity": 127}, {"time": 81932, "pitch": 44, "duration": 10, "velocity": 119}, {"time": 83048, "pitch": 47, "duration": 10, "velocity": 117}, {"time": 83367, "pitch": 45, "duration": 10, "velocity": 119}, {"time": 83846, "pitch": 44, "duration": 10, "velocity": 110}, {"time": 84005, "pitch": 45, "duration": 10, "velocity": 120}, {"time": 84332, "pitch": 43, "duration": 10, "velocity": 127}, {"time": 84332, "pitch": 44, "duration": 10, "velocity": 90}, {"time": 84495, "pitch": 46, "duration": 10, "velocity": 118}, {"time": 84814, "pitch": 35, "duration": 10, "velocity": 127}, {"time": 84973, "pitch": 44, "duration": 10, "velocity": 105}, {"time": 85292, "pitch": 42, "duration": 10, "velocity": 88}, {"time": 85451, "pitch": 46, "duration": 10, "velocity": 111}, {"time": 85930, "pitch": 44, "duration": 10, "velocity": 91}, {"time": 86239, "pitch": 42, "duration": 10, "velocity": 85}, {"time": 86408, "pitch": 46, "duration": 10, "velocity": 103}, {"time": 86887, "pitch": 35, "duration": 10, "velocity": 122}, {"time": 86887, "pitch": 44, "duration": 10, "velocity": 80}, {"time": 87206, "pitch": 42, "duration": 10, "velocity": 88}, {"time": 87365, "pitch": 46, "duration": 10, "velocity": 109}, {"time": 87692, "pitch": 46, "duration": 10, "velocity": 121}, {"time": 88174, "pitch": 42, "duration": 10, "velocity": 87}, {"time": 88333, "pitch": 46, "duration": 10, "velocity": 105}, {"time": 88652, "pitch": 35, "duration": 10, "velocity": 127}, {"time": 88811, "pitch": 44, "duration": 10, "velocity": 101}, {"time": 89130, "pitch": 42, "duration": 10, "velocity": 85}, {"time": 89290, "pitch": 35, "duration": 10, "velocity": 115}, {"time": 89290, "pitch": 46, "duration": 10, "velocity": 114}, {"time": 89768, "pitch": 40, "duration": 10, "velocity": 127}, {"time": 89768, "pitch": 44, "duration": 10, "velocity": 94}, {"time": 90087, "pitch": 42, "duration": 10, "velocity": 88}, {"time": 90247, "pitch": 46, "duration": 10, "velocity": 111}, {"time": 90566, "pitch": 35, "duration": 10, "velocity": 127}, {"time": 90725, "pitch": 44, "duration": 10, "velocity": 88}, {"time": 91052, "pitch": 42, "duration": 10, "velocity": 87}, {"time": 91215, "pitch": 35, "duration": 10, "velocity": 127}, {"time": 91215, "pitch": 46, "duration": 10, "velocity": 119}, {"time": 91693, "pitch": 40, "duration": 10, "velocity": 127}, {"time": 91693, "pitch": 44, "duration": 10, "velocity": 87}, {"time": 92012, "pitch": 42, "duration": 10, "velocity": 97}, {"time": 92012, "pitch": 45, "duration": 10, "velocity": 110}, {"time": 92171, "pitch": 43, "duration": 10, "velocity": 127}, {"time": 92171, "pitch": 46, "duration": 10, "velocity": 107}, {"time": 92490, "pitch": 35, "duration": 10, "velocity": 127}, {"time": 92490, "pitch": 46, "duration": 10, "velocity": 119}, {"time": 92969, "pitch": 42, "duration": 10, "velocity": 88}, {"time": 93128, "pitch": 46, "duration": 10, "velocity": 114}, {"time": 93607, "pitch": 44, "duration": 10, "velocity": 95}, {"time": 93926, "pitch": 42, "duration": 10, "velocity": 88}, {"time": 94085, "pitch": 46, "duration": 10, "velocity": 121}, {"time": 94575, "pitch": 35, "duration": 10, "velocity": 120}, {"time": 94575, "pitch": 44, "duration": 10, "velocity": 84}, {"time": 94894, "pitch": 42, "duration": 10, "velocity": 92}, {"time": 95053, "pitch": 46, "duration": 10, "velocity": 108}, {"time": 95531, "pitch": 44, "duration": 10, "velocity": 88}, {"time": 95850, "pitch": 42, "duration": 10, "velocity": 93}, {"time": 96000, "pitch": 46, "duration": 10, "velocity": 103}, {"time": 96329, "pitch": 35, "duration": 10, "velocity": 127}, {"time": 96329, "pitch": 44, "duration": 10, "velocity": 117}, {"time": 96807, "pitch": 42, "duration": 10, "velocity": 90}, {"time": 96967, "pitch": 35, "duration": 10, "velocity": 127}, {"time": 96967, "pitch": 46, "duration": 10, "velocity": 127}, {"time": 97445, "pitch": 35, "duration": 10, "velocity": 127}, {"time": 97445, "pitch": 44, "duration": 10, "velocity": 95}, {"time": 97772, "pitch": 42, "duration": 10, "velocity": 89}, {"time": 97935, "pitch": 46, "duration": 10, "velocity": 127}, {"time": 98413, "pitch": 44, "duration": 10, "velocity": 94}, {"time": 98732, "pitch": 40, "duration": 10, "velocity": 127}, {"time": 98732, "pitch": 42, "duration": 10, "velocity": 96}, {"time": 98891, "pitch": 46, "duration": 10, "velocity": 123}, {"time": 99210, "pitch": 35, "duration": 10, "velocity": 98}, {"time": 99210, "pitch": 42, "duration": 10, "velocity": 87}, {"time": 99370, "pitch": 40, "duration": 10, "velocity": 127}, {"time": 99370, "pitch": 46, "duration": 10, "velocity": 118}, {"time": 99689, "pitch": 45, "duration": 10, "velocity": 105}, {"time": 99689, "pitch": 46, "duration": 10, "velocity": 127}, {"time": 99848, "pitch": 43, "duration": 10, "velocity": 118}, {"time": 100167, "pitch": 35, "duration": 10, "velocity": 127}, {"time": 100167, "pitch": 46, "duration": 10, "velocity": 121}, {"time": 100327, "pitch": 35, "duration": 10, "velocity": 127}, {"time": 100327, "pitch": 44, "duration": 10, "velocity": 110}, {"time": 100805, "pitch": 42, "duration": 10, "velocity": 91}, {"time": 101132, "pitch": 35, "duration": 10, "velocity": 102}, {"time": 101132, "pitch": 42, "duration": 10, "velocity": 92}, {"time": 101295, "pitch": 40, "duration": 10, "velocity": 127}, {"time": 101295, "pitch": 44, "duration": 10, "velocity": 117}, {"time": 101773, "pitch": 42, "duration": 10, "velocity": 92}, {"time": 102092, "pitch": 35, "duration": 10, "velocity": 86}, {"time": 102092, "pitch": 42, "duration": 10, "velocity": 97}, {"time": 102251, "pitch": 35, "duration": 10, "velocity": 117}, {"time": 102251, "pitch": 44, "duration": 10, "velocity": 120}, {"time": 102730, "pitch": 42, "duration": 10, "velocity": 93}, {"time": 103049, "pitch": 35, "duration": 10, "velocity": 97}, {"time": 103049, "pitch": 42, "duration": 10, "velocity": 94}, {"time": 103208, "pitch": 40, "duration": 10, "velocity": 122}, {"time": 103208, "pitch": 46, "duration": 10, "velocity": 118}, {"time": 103687, "pitch": 42, "duration": 10, "velocity": 87}, {"time": 104006, "pitch": 35, "duration": 10, "velocity": 127}, {"time": 104006, "pitch": 42, "duration": 10, "velocity": 84}, {"time": 104165, "pitch": 44, "duration": 10, "velocity": 111}, {"time": 104492, "pitch": 35, "duration": 10, "velocity": 92}, {"time": 104655, "pitch": 35, "duration": 10, "velocity": 120}, {"time": 104655, "pitch": 42, "duration": 10, "velocity": 91}, {"time": 104974, "pitch": 42, "duration": 10, "velocity": 92}, {"time": 105133, "pitch": 40, "duration": 10, "velocity": 127}, {"time": 105133, "pitch": 44, "duration": 10, "velocity": 111}, {"time": 105611, "pitch": 42, "duration": 10, "velocity": 91}, {"time": 105930, "pitch": 42, "duration": 10, "velocity": 97}, {"time": 106090, "pitch": 35, "duration": 10, "velocity": 127}, {"time": 106090, "pitch": 44, "duration": 10, "velocity": 110}, {"time": 106568, "pitch": 42, "duration": 10, "velocity": 84}, {"time": 106728, "pitch": 42, "duration": 10, "velocity": 86}, {"time": 106887, "pitch": 35, "duration": 10, "velocity": 120}, {"time": 106887, "pitch": 42, "duration": 10, "velocity": 94}, {"time": 107047, "pitch": 40, "duration": 10, "velocity": 125}, {"time": 107047, "pitch": 42, "duration": 10, "velocity": 112}, {"time": 107366, "pitch": 44, "duration": 10, "velocity": 111}, {"time": 107525, "pitch": 42, "duration": 10, "velocity": 87}, {"time": 107852, "pitch": 42, "duration": 10, "velocity": 86}, {"time": 108005, "pitch": 35, "duration": 10, "velocity": 127}, {"time": 108015, "pitch": 44, "duration": 10, "velocity": 110}, {"time": 108493, "pitch": 42, "duration": 10, "velocity": 91}, {"time": 108812, "pitch": 35, "duration": 10, "velocity": 102}, {"time": 108812, "pitch": 42, "duration": 10, "velocity": 92}, {"time": 108971, "pitch": 40, "duration": 10, "velocity": 127}, {"time": 108971, "pitch": 44, "duration": 10, "velocity": 117}, {"time": 109450, "pitch": 42, "duration": 10, "velocity": 92}, {"time": 109769, "pitch": 35, "duration": 10, "velocity": 86}, {"time": 109769, "pitch": 42, "duration": 10, "velocity": 97}, {"time": 109928, "pitch": 35, "duration": 10, "velocity": 117}, {"time": 109928, "pitch": 44, "duration": 10, "velocity": 120}, {"time": 110407, "pitch": 42, "duration": 10, "velocity": 93}, {"time": 110726, "pitch": 35, "duration": 10, "velocity": 97}, {"time": 110726, "pitch": 42, "duration": 10, "velocity": 94}, {"time": 110885, "pitch": 40, "duration": 10, "velocity": 122}, {"time": 110885, "pitch": 46, "duration": 10, "velocity": 118}, {"time": 111375, "pitch": 42, "duration": 10, "velocity": 87}, {"time": 111694, "pitch": 35, "duration": 10, "velocity": 127}, {"time": 111694, "pitch": 42, "duration": 10, "velocity": 84}, {"time": 111853, "pitch": 44, "duration": 10, "velocity": 111}, {"time": 112172, "pitch": 35, "duration": 10, "velocity": 92}, {"time": 112331, "pitch": 35, "duration": 10, "velocity": 120}, {"time": 112331, "pitch": 42, "duration": 10, "velocity": 91}, {"time": 112650, "pitch": 42, "duration": 10, "velocity": 92}, {"time": 112810, "pitch": 40, "duration": 10, "velocity": 127}, {"time": 112810, "pitch": 44, "duration": 10, "velocity": 111}, {"time": 113288, "pitch": 42, "duration": 10, "velocity": 91}, {"time": 113607, "pitch": 42, "duration": 10, "velocity": 97}, {"time": 113767, "pitch": 35, "duration": 10, "velocity": 127}, {"time": 113767, "pitch": 44, "duration": 10, "velocity": 110}, {"time": 114245, "pitch": 42, "duration": 10, "velocity": 84}, {"time": 114408, "pitch": 42, "duration": 11, "velocity": 86}, {"time": 114572, "pitch": 35, "duration": 10, "velocity": 120}, {"time": 114572, "pitch": 42, "duration": 10, "velocity": 94}, {"time": 114735, "pitch": 40, "duration": 10, "velocity": 125}, {"time": 114735, "pitch": 42, "duration": 10, "velocity": 112}, {"time": 115054, "pitch": 44, "duration": 10, "velocity": 111}, {"time": 115213, "pitch": 42, "duration": 10, "velocity": 87}, {"time": 115532, "pitch": 42, "duration": 10, "velocity": 86}, {"time": 115681, "pitch": 35, "duration": 10, "velocity": 127}, {"time": 116010, "pitch": 42, "duration": 10, "velocity": 94}, {"time": 116170, "pitch": 46, "duration": 10, "velocity": 103}, {"time": 116638, "pitch": 40, "duration": 10, "velocity": 125}, {"time": 116648, "pitch": 44, "duration": 10, "velocity": 106}, {"time": 116967, "pitch": 42, "duration": 10, "velocity": 88}, {"time": 117127, "pitch": 46, "duration": 10, "velocity": 127}, {"time": 117446, "pitch": 35, "duration": 10, "velocity": 96}, {"time": 117605, "pitch": 35, "duration": 10, "velocity": 127}, {"time": 117605, "pitch": 44, "duration": 10, "velocity": 90}, {"time": 117932, "pitch": 42, "duration": 10, "velocity": 94}, {"time": 118095, "pitch": 46, "duration": 10, "velocity": 123}, {"time": 118563, "pitch": 40, "duration": 10, "velocity": 125}, {"time": 118573, "pitch": 44, "duration": 10, "velocity": 91}, {"time": 118892, "pitch": 42, "duration": 10, "velocity": 97}, {"time": 119051, "pitch": 46, "duration": 10, "velocity": 105}, {"time": 119370, "pitch": 35, "duration": 10, "velocity": 110}, {"time": 119370, "pitch": 46, "duration": 10, "velocity": 127}, {"time": 119849, "pitch": 42, "duration": 10, "velocity": 96}, {"time": 120008, "pitch": 35, "duration": 10, "velocity": 124}, {"time": 120008, "pitch": 46, "duration": 10, "velocity": 103}, {"time": 120477, "pitch": 40, "duration": 10, "velocity": 125}, {"time": 120487, "pitch": 35, "duration": 10, "velocity": 127}, {"time": 120487, "pitch": 46, "duration": 10, "velocity": 123}, {"time": 121292, "pitch": 35, "duration": 10, "velocity": 88}, {"time": 121292, "pitch": 46, "duration": 10, "velocity": 125}, {"time": 121455, "pitch": 45, "duration": 10, "velocity": 112}, {"time": 121774, "pitch": 40, "duration": 10, "velocity": 127}, {"time": 121774, "pitch": 44, "duration": 10, "velocity": 101}, {"time": 121933, "pitch": 42, "duration": 10, "velocity": 85}, {"time": 122252, "pitch": 45, "duration": 10, "velocity": 96}, {"time": 122252, "pitch": 46, "duration": 10, "velocity": 127}, {"time": 122411, "pitch": 40, "duration": 10, "velocity": 115}, {"time": 122571, "pitch": 44, "duration": 10, "velocity": 82}, {"time": 122730, "pitch": 42, "duration": 10, "velocity": 101}, {"time": 122730, "pitch": 45, "duration": 10, "velocity": 110}, {"time": 122890, "pitch": 43, "duration": 10, "velocity": 111}, {"time": 122890, "pitch": 44, "duration": 10, "velocity": 113}, {"time": 123209, "pitch": 35, "duration": 10, "velocity": 127}, {"time": 123209, "pitch": 40, "duration": 10, "velocity": 127}, {"time": 123209, "pitch": 46, "duration": 10, "velocity": 115}, {"time": 123847, "pitch": 35, "duration": 10, "velocity": 127}, {"time": 124325, "pitch": 44, "duration": 10, "velocity": 120}, {"time": 124815, "pitch": 35, "duration": 10, "velocity": 127}, {"time": 125134, "pitch": 46, "duration": 10, "velocity": 127}, {"time": 125612, "pitch": 35, "duration": 10, "velocity": 88}, {"time": 125612, "pitch": 42, "duration": 10, "velocity": 97}, {"time": 125771, "pitch": 35, "duration": 10, "velocity": 127}, {"time": 125771, "pitch": 46, "duration": 10, "velocity": 118}, {"time": 126250, "pitch": 46, "duration": 10, "velocity": 117}, {"time": 126569, "pitch": 42, "duration": 10, "velocity": 110}, {"time": 126718, "pitch": 40, "duration": 10, "velocity": 127}, {"time": 126728, "pitch": 35, "duration": 10, "velocity": 124}, {"time": 127685, "pitch": 35, "duration": 10, "velocity": 127}, {"time": 128175, "pitch": 44, "duration": 10, "velocity": 124}, {"time": 128494, "pitch": 42, "duration": 10, "velocity": 110}, {"time": 128653, "pitch": 35, "duration": 10, "velocity": 119}, {"time": 128972, "pitch": 46, "duration": 10, "velocity": 125}, {"time": 129131, "pitch": 45, "duration": 10, "velocity": 125}, {"time": 129450, "pitch": 35, "duration": 10, "velocity": 102}, {"time": 129450, "pitch": 42, "duration": 10, "velocity": 115}, {"time": 129929, "pitch": 45, "duration": 10, "velocity": 108}, {"time": 129929, "pitch": 46, "duration": 10, "velocity": 127}, {"time": 130088, "pitch": 35, "duration": 10, "velocity": 78}, {"time": 130088, "pitch": 42, "duration": 10, "velocity": 62}, {"time": 130248, "pitch": 40, "duration": 10, "velocity": 85}, {"time": 130248, "pitch": 44, "duration": 10, "velocity": 66}, {"time": 130407, "pitch": 40, "duration": 10, "velocity": 110}, {"time": 130407, "pitch": 42, "duration": 10, "velocity": 103}, {"time": 130567, "pitch": 40, "duration": 10, "velocity": 112}, {"time": 130567, "pitch": 46, "duration": 10, "velocity": 119}, {"time": 130726, "pitch": 40, "duration": 10, "velocity": 113}, {"time": 130886, "pitch": 40, "duration": 10, "velocity": 127}, {"time": 131045, "pitch": 40, "duration": 10, "velocity": 127}, {"time": 131045, "pitch": 44, "duration": 10, "velocity": 115}, {"time": 131055, "pitch": 35, "duration": 11, "velocity": 127}, {"time": 131854, "pitch": 35, "duration": 10, "velocity": 127}, {"time": 131854, "pitch": 40, "duration": 10, "velocity": 127}, {"time": 131854, "pitch": 44, "duration": 10, "velocity": 119}, {"time": 132970, "pitch": 47, "duration": 10, "velocity": 117}, {"time": 133289, "pitch": 45, "duration": 10, "velocity": 119}, {"time": 133767, "pitch": 44, "duration": 10, "velocity": 110}, {"time": 133927, "pitch": 45, "duration": 10, "velocity": 120}, {"time": 134246, "pitch": 43, "duration": 10, "velocity": 127}, {"time": 134246, "pitch": 44, "duration": 10, "velocity": 90}, {"time": 134405, "pitch": 46, "duration": 10, "velocity": 118}, {"time": 134732, "pitch": 35, "duration": 10, "velocity": 127}, {"time": 134895, "pitch": 44, "duration": 10, "velocity": 116}, {"time": 135373, "pitch": 35, "duration": 10, "velocity": 127}, {"time": 135373, "pitch": 42, "duration": 10, "velocity": 92}, {"time": 135692, "pitch": 42, "duration": 10, "velocity": 91}, {"time": 135841, "pitch": 40, "duration": 10, "velocity": 127}, {"time": 135851, "pitch": 44, "duration": 10, "velocity": 110}, {"time": 136330, "pitch": 35, "duration": 10, "velocity": 127}, {"time": 136330, "pitch": 42, "duration": 10, "velocity": 93}, {"time": 136649, "pitch": 42, "duration": 10, "velocity": 88}, {"time": 136808, "pitch": 44, "duration": 10, "velocity": 101}, {"time": 137287, "pitch": 35, "duration": 10, "velocity": 122}, {"time": 137287, "pitch": 42, "duration": 10, "velocity": 89}, {"time": 137606, "pitch": 42, "duration": 10, "velocity": 87}, {"time": 137755, "pitch": 40, "duration": 10, "velocity": 127}, {"time": 137765, "pitch": 44, "duration": 10, "velocity": 104}, {"time": 138255, "pitch": 35, "duration": 10, "velocity": 123}, {"time": 138255, "pitch": 42, "duration": 10, "velocity": 89}, {"time": 138574, "pitch": 42, "duration": 10, "velocity": 80}, {"time": 138733, "pitch": 44, "duration": 10, "velocity": 112}, {"time": 139211, "pitch": 35, "duration": 10, "velocity": 127}, {"time": 139211, "pitch": 42, "duration": 10, "velocity": 91}, {"time": 139530, "pitch": 42, "duration": 10, "velocity": 82}, {"time": 139680, "pitch": 40, "duration": 10, "velocity": 127}, {"time": 139690, "pitch": 44, "duration": 10, "velocity": 105}, {"time": 140168, "pitch": 35, "duration": 10, "velocity": 127}, {"time": 140168, "pitch": 42, "duration": 10, "velocity": 81}, {"time": 140487, "pitch": 42, "duration": 10, "velocity": 85}, {"time": 140637, "pitch": 40, "duration": 10, "velocity": 127}, {"time": 140647, "pitch": 44, "duration": 10, "velocity": 113}, {"time": 141125, "pitch": 35, "duration": 10, "velocity": 120}, {"time": 141441, "pitch": 40, "duration": 11, "velocity": 127}, {"time": 141452, "pitch": 44, "duration": 10, "velocity": 114}, {"time": 141934, "pitch": 35, "duration": 10, "velocity": 96}, {"time": 141934, "pitch": 42, "duration": 10, "velocity": 116}, {"time": 142093, "pitch": 35, "duration": 10, "velocity": 127}, {"time": 142412, "pitch": 35, "duration": 10, "velocity": 127}, {"time": 142412, "pitch": 42, "duration": 10, "velocity": 89}, {"time": 142571, "pitch": 44, "duration": 10, "velocity": 122}, {"time": 143050, "pitch": 35, "duration": 10, "velocity": 127}, {"time": 143050, "pitch": 42, "duration": 10, "velocity": 89}, {"time": 143369, "pitch": 42, "duration": 10, "velocity": 91}, {"time": 143518, "pitch": 40, "duration": 10, "velocity": 127}, {"time": 143528, "pitch": 44, "duration": 10, "velocity": 100}, {"time": 144007, "pitch": 35, "duration": 10, "velocity": 127}, {"time": 144007, "pitch": 42, "duration": 10, "velocity": 93}, {"time": 144326, "pitch": 42, "duration": 10, "velocity": 84}, {"time": 144485, "pitch": 44, "duration": 10, "velocity": 111}, {"time": 144975, "pitch": 35, "duration": 10, "velocity": 127}, {"time": 144975, "pitch": 42, "duration": 10, "velocity": 94}, {"time": 145294, "pitch": 42, "duration": 10, "velocity": 82}, {"time": 145443, "pitch": 40, "duration": 10, "velocity": 127}, {"time": 145453, "pitch": 44, "duration": 10, "velocity": 112}, {"time": 145931, "pitch": 35, "duration": 10, "velocity": 127}, {"time": 145931, "pitch": 42, "duration": 10, "velocity": 91}, {"time": 146250, "pitch": 42, "duration": 10, "velocity": 91}, {"time": 146410, "pitch": 44, "duration": 10, "velocity": 109}, {"time": 146888, "pitch": 35, "duration": 10, "velocity": 127}, {"time": 146888, "pitch": 42, "duration": 10, "velocity": 94}, {"time": 147207, "pitch": 42, "duration": 10, "velocity": 91}, {"time": 147357, "pitch": 40, "duration": 10, "velocity": 127}, {"time": 147367, "pitch": 44, "duration": 10, "velocity": 106}, {"time": 147845, "pitch": 35, "duration": 10, "velocity": 127}, {"time": 147845, "pitch": 42, "duration": 10, "velocity": 91}, {"time": 148172, "pitch": 42, "duration": 10, "velocity": 97}, {"time": 148335, "pitch": 44, "duration": 10, "velocity": 122}, {"time": 148813, "pitch": 35, "duration": 10, "velocity": 127}, {"time": 148813, "pitch": 42, "duration": 10, "velocity": 96}, {"time": 149132, "pitch": 44, "duration": 10, "velocity": 119}, {"time": 149281, "pitch": 40, "duration": 10, "velocity": 127}, {"time": 149291, "pitch": 42, "duration": 10, "velocity": 97}, {"time": 149610, "pitch": 42, "duration": 10, "velocity": 97}, {"time": 149610, "pitch": 45, "duration": 10, "velocity": 126}, {"time": 149770, "pitch": 40, "duration": 10, "velocity": 127}, {"time": 149770, "pitch": 46, "duration": 10, "velocity": 127}, {"time": 150089, "pitch": 35, "duration": 10, "velocity": 127}, {"time": 150089, "pitch": 44, "duration": 10, "velocity": 127}, {"time": 150727, "pitch": 35, "duration": 10, "velocity": 127}, {"time": 150727, "pitch": 42, "duration": 10, "velocity": 107}, {"time": 151046, "pitch": 42, "duration": 10, "velocity": 92}, {"time": 151195, "pitch": 40, "duration": 10, "velocity": 127}, {"time": 151205, "pitch": 44, "duration": 10, "velocity": 124}, {"time": 151695, "pitch": 35, "duration": 10, "velocity": 127}, {"time": 151695, "pitch": 42, "duration": 10, "velocity": 104}, {"time": 152014, "pitch": 42, "duration": 10, "velocity": 85}, {"time": 152173, "pitch": 44, "duration": 10, "velocity": 112}, {"time": 152492, "pitch": 42, "duration": 10, "velocity": 82}, {"time": 152651, "pitch": 35, "duration": 10, "velocity": 119}, {"time": 152651, "pitch": 44, "duration": 10, "velocity": 112}, {"time": 153120, "pitch": 40, "duration": 10, "velocity": 127}, {"time": 153130, "pitch": 44, "duration": 10, "velocity": 119}, {"time": 153449, "pitch": 42, "duration": 10, "velocity": 86}, {"time": 153608, "pitch": 35, "duration": 10, "velocity": 127}, {"time": 153608, "pitch": 44, "duration": 10, "velocity": 116}, {"time": 154087, "pitch": 44, "duration": 10, "velocity": 110}, {"time": 154565, "pitch": 35, "duration": 10, "velocity": 127}, {"time": 154565, "pitch": 42, "duration": 10, "velocity": 103}, {"time": 154881, "pitch": 42, "duration": 11, "velocity": 82}, {"time": 155045, "pitch": 40, "duration": 10, "velocity": 127}, {"time": 155055, "pitch": 44, "duration": 10, "velocity": 119}, {"time": 155533, "pitch": 35, "duration": 10, "velocity": 124}, {"time": 155533, "pitch": 42, "duration": 10, "velocity": 99}, {"time": 155852, "pitch": 42, "duration": 10, "velocity": 91}, {"time": 156011, "pitch": 44, "duration": 10, "velocity": 112}, {"time": 156011, "pitch": 47, "duration": 10, "velocity": 127}, {"time": 156330, "pitch": 35, "duration": 10, "velocity": 127}, {"time": 156490, "pitch": 42, "duration": 10, "velocity": 109}, {"time": 156799, "pitch": 40, "duration": 10, "velocity": 127}, {"time": 156809, "pitch": 35, "duration": 10, "velocity": 99}, {"time": 156809, "pitch": 42, "duration": 10, "velocity": 91}, {"time": 156968, "pitch": 44, "duration": 10, "velocity": 99}, {"time": 156968, "pitch": 45, "duration": 10, "velocity": 127}, {"time": 157287, "pitch": 42, "duration": 10, "velocity": 88}, {"time": 157447, "pitch": 42, "duration": 10, "velocity": 94}, {"time": 157447, "pitch": 43, "duration": 10, "velocity": 127}, {"time": 157766, "pitch": 35, "duration": 10, "velocity": 127}, {"time": 157766, "pitch": 46, "duration": 10, "velocity": 119}, {"time": 158252, "pitch": 42, "duration": 10, "velocity": 87}, {"time": 158415, "pitch": 35, "duration": 10, "velocity": 127}, {"time": 158415, "pitch": 44, "duration": 10, "velocity": 112}, {"time": 158883, "pitch": 40, "duration": 10, "velocity": 127}, {"time": 158893, "pitch": 44, "duration": 10, "velocity": 125}, {"time": 159371, "pitch": 35, "duration": 10, "velocity": 123}, {"time": 159371, "pitch": 42, "duration": 10, "velocity": 97}, {"time": 159690, "pitch": 42, "duration": 10, "velocity": 84}, {"time": 159850, "pitch": 44, "duration": 10, "velocity": 114}, {"time": 160328, "pitch": 35, "duration": 10, "velocity": 127}, {"time": 160328, "pitch": 42, "duration": 10, "velocity": 94}, {"time": 160647, "pitch": 42, "duration": 10, "velocity": 94}, {"time": 160797, "pitch": 40, "duration": 10, "velocity": 127}, {"time": 160807, "pitch": 44, "duration": 10, "velocity": 114}, {"time": 160807, "pitch": 45, "duration": 10, "velocity": 127}, {"time": 161126, "pitch": 42, "duration": 10, "velocity": 91}, {"time": 161126, "pitch": 43, "duration": 10, "velocity": 107}, {"time": 161285, "pitch": 35, "duration": 10, "velocity": 100}, {"time": 161285, "pitch": 42, "duration": 10, "velocity": 104}, {"time": 161612, "pitch": 35, "duration": 10, "velocity": 127}, {"time": 161612, "pitch": 40, "duration": 10, "velocity": 125}, {"time": 161612, "pitch": 44, "duration": 10, "velocity": 127}, {"time": 161775, "pitch": 48, "duration": 10, "velocity": 98}, {"time": 161934, "pitch": 48, "duration": 10, "velocity": 97}, {"time": 162094, "pitch": 48, "duration": 9, "velocity": 98}, {"time": 162253, "pitch": 47, "duration": 10, "velocity": 110}, {"time": 162562, "pitch": 47, "duration": 10, "velocity": 105}, {"time": 162731, "pitch": 45, "duration": 10, "velocity": 109}, {"time": 163050, "pitch": 45, "duration": 10, "velocity": 108}, {"time": 163210, "pitch": 47, "duration": 10, "velocity": 107}, {"time": 163688, "pitch": 48, "duration": 10, "velocity": 99}, {"time": 163848, "pitch": 48, "duration": 10, "velocity": 94}, {"time": 164007, "pitch": 48, "duration": 10, "velocity": 100}, {"time": 164167, "pitch": 47, "duration": 10, "velocity": 113}, {"time": 164326, "pitch": 45, "duration": 10, "velocity": 122}, {"time": 164645, "pitch": 43, "duration": 10, "velocity": 112}, {"time": 165613, "pitch": 35, "duration": 10, "velocity": 127}, {"time": 165613, "pitch": 44, "duration": 10, "velocity": 105}, {"time": 165932, "pitch": 42, "duration": 10, "velocity": 88}, {"time": 166091, "pitch": 46, "duration": 10, "velocity": 111}, {"time": 166570, "pitch": 44, "duration": 10, "velocity": 91}, {"time": 166879, "pitch": 42, "duration": 10, "velocity": 85}, {"time": 167048, "pitch": 46, "duration": 10, "velocity": 103}, {"time": 167527, "pitch": 35, "duration": 10, "velocity": 122}, {"time": 167527, "pitch": 44, "duration": 10, "velocity": 80}, {"time": 167846, "pitch": 42, "duration": 10, "velocity": 88}, {"time": 168005, "pitch": 46, "duration": 10, "velocity": 109}, {"time": 168332, "pitch": 46, "duration": 10, "velocity": 121}, {"time": 168814, "pitch": 42, "duration": 9, "velocity": 87}, {"time": 168973, "pitch": 46, "duration": 10, "velocity": 105}, {"time": 169292, "pitch": 35, "duration": 10, "velocity": 127}, {"time": 169451, "pitch": 44, "duration": 10, "velocity": 101}, {"time": 169770, "pitch": 42, "duration": 10, "velocity": 85}, {"time": 169930, "pitch": 35, "duration": 10, "velocity": 115}, {"time": 169930, "pitch": 46, "duration": 10, "velocity": 114}, {"time": 170408, "pitch": 40, "duration": 10, "velocity": 127}, {"time": 170408, "pitch": 44, "duration": 10, "velocity": 94}, {"time": 170727, "pitch": 42, "duration": 10, "velocity": 88}, {"time": 170887, "pitch": 46, "duration": 10, "velocity": 111}, {"time": 171206, "pitch": 35, "duration": 10, "velocity": 127}, {"time": 171365, "pitch": 44, "duration": 10, "velocity": 88}, {"time": 171692, "pitch": 42, "duration": 10, "velocity": 87}, {"time": 171855, "pitch": 35, "duration": 10, "velocity": 127}, {"time": 171855, "pitch": 46, "duration": 10, "velocity": 119}, {"time": 172333, "pitch": 40, "duration": 10, "velocity": 127}, {"time": 172333, "pitch": 44, "duration": 10, "velocity": 87}, {"time": 172652, "pitch": 42, "duration": 10, "velocity": 97}, {"time": 172652, "pitch": 45, "duration": 10, "velocity": 110}, {"time": 172811, "pitch": 43, "duration": 10, "velocity": 127}, {"time": 172811, "pitch": 46, "duration": 10, "velocity": 107}, {"time": 173130, "pitch": 35, "duration": 10, "velocity": 127}, {"time": 173130, "pitch": 46, "duration": 10, "velocity": 119}, {"time": 173609, "pitch": 42, "duration": 10, "velocity": 88}, {"time": 173768, "pitch": 46, "duration": 10, "velocity": 114}, {"time": 174247, "pitch": 44, "duration": 10, "velocity": 95}, {"time": 174566, "pitch": 42, "duration": 10, "velocity": 88}, {"time": 174725, "pitch": 46, "duration": 10, "velocity": 121}, {"time": 175215, "pitch": 35, "duration": 10, "velocity": 120}, {"time": 175215, "pitch": 44, "duration": 10, "velocity": 84}, {"time": 175534, "pitch": 42, "duration": 9, "velocity": 92}, {"time": 175693, "pitch": 46, "duration": 10, "velocity": 108}, {"time": 176171, "pitch": 44, "duration": 10, "velocity": 88}, {"time": 176490, "pitch": 42, "duration": 10, "velocity": 93}, {"time": 176640, "pitch": 46, "duration": 10, "velocity": 103}, {"time": 176969, "pitch": 35, "duration": 10, "velocity": 127}, {"time": 176969, "pitch": 44, "duration": 10, "velocity": 117}, {"time": 177447, "pitch": 42, "duration": 10, "velocity": 90}, {"time": 177607, "pitch": 35, "duration": 10, "velocity": 127}, {"time": 177607, "pitch": 46, "duration": 10, "velocity": 127}, {"time": 178085, "pitch": 35, "duration": 10, "velocity": 127}, {"time": 178085, "pitch": 44, "duration": 10, "velocity": 95}, {"time": 178412, "pitch": 42, "duration": 10, "velocity": 89}, {"time": 178575, "pitch": 46, "duration": 10, "velocity": 127}, {"time": 179053, "pitch": 44, "duration": 10, "velocity": 94}, {"time": 179372, "pitch": 40, "duration": 10, "velocity": 127}, {"time": 179372, "pitch": 42, "duration": 10, "velocity": 96}, {"time": 179531, "pitch": 46, "duration": 10, "velocity": 123}, {"time": 179850, "pitch": 35, "duration": 10, "velocity": 98}, {"time": 179850, "pitch": 42, "duration": 10, "velocity": 87}, {"time": 180010, "pitch": 40, "duration": 10, "velocity": 127}, {"time": 180010, "pitch": 46, "duration": 10, "velocity": 118}, {"time": 180329, "pitch": 45, "duration": 10, "velocity": 105}, {"time": 180329, "pitch": 46, "duration": 10, "velocity": 127}, {"time": 180488, "pitch": 43, "duration": 10, "velocity": 118}, {"time": 180807, "pitch": 35, "duration": 10, "velocity": 127}, {"time": 180807, "pitch": 46, "duration": 10, "velocity": 121}, {"time": 180967, "pitch": 35, "duration": 10, "velocity": 127}, {"time": 180967, "pitch": 44, "duration": 10, "velocity": 110}, {"time": 181445, "pitch": 42, "duration": 10, "velocity": 91}, {"time": 181772, "pitch": 35, "duration": 10, "velocity": 102}, {"time": 181772, "pitch": 42, "duration": 10, "velocity": 92}, {"time": 181935, "pitch": 40, "duration": 10, "velocity": 127}, {"time": 181935, "pitch": 44, "duration": 10, "velocity": 117}, {"time": 182413, "pitch": 42, "duration": 10, "velocity": 92}, {"time": 182732, "pitch": 35, "duration": 10, "velocity": 86}, {"time": 182732, "pitch": 42, "duration": 10, "velocity": 97}, {"time": 182891, "pitch": 35, "duration": 10, "velocity": 117}, {"time": 182891, "pitch": 44, "duration": 10, "velocity": 120}, {"time": 183370, "pitch": 42, "duration": 10, "velocity": 93}, {"time": 183689, "pitch": 35, "duration": 10, "velocity": 97}, {"time": 183689, "pitch": 42, "duration": 10, "velocity": 94}, {"time": 183848, "pitch": 40, "duration": 10, "velocity": 122}, {"time": 183848, "pitch": 46, "duration": 10, "velocity": 118}, {"time": 184327, "pitch": 42, "duration": 10, "velocity": 87}, {"time": 184646, "pitch": 35, "duration": 9, "velocity": 127}, {"time": 184646, "pitch": 42, "duration": 9, "velocity": 84}, {"time": 184805, "pitch": 44, "duration": 10, "velocity": 111}, {"time": 185132, "pitch": 35, "duration": 10, "velocity": 92}, {"time": 185295, "pitch": 35, "duration": 10, "velocity": 120}, {"time": 185295, "pitch": 42, "duration": 10, "velocity": 91}, {"time": 185614, "pitch": 42, "duration": 9, "velocity": 92}, {"time": 185773, "pitch": 40, "duration": 10, "velocity": 127}, {"time": 185773, "pitch": 44, "duration": 10, "velocity": 111}, {"time": 186251, "pitch": 42, "duration": 10, "velocity": 91}, {"time": 186570, "pitch": 42, "duration": 10, "velocity": 97}, {"time": 186730, "pitch": 35, "duration": 10, "velocity": 127}, {"time": 186730, "pitch": 44, "duration": 10, "velocity": 110}, {"time": 187208, "pitch": 42, "duration": 10, "velocity": 84}, {"time": 187368, "pitch": 42, "duration": 10, "velocity": 86}, {"time": 187527, "pitch": 35, "duration": 10, "velocity": 120}, {"time": 187527, "pitch": 42, "duration": 10, "velocity": 94}, {"time": 187687, "pitch": 40, "duration": 10, "velocity": 125}, {"time": 187687, "pitch": 42, "duration": 10, "velocity": 112}, {"time": 188006, "pitch": 44, "duration": 9, "velocity": 111}, {"time": 188165, "pitch": 42, "duration": 10, "velocity": 87}, {"time": 188492, "pitch": 42, "duration": 10, "velocity": 86}, {"time": 188645, "pitch": 35, "duration": 10, "velocity": 127}, {"time": 188655, "pitch": 44, "duration": 10, "velocity": 110}, {"time": 189133, "pitch": 42, "duration": 10, "velocity": 91}, {"time": 189452, "pitch": 35, "duration": 10, "velocity": 102}, {"time": 189452, "pitch": 42, "duration": 10, "velocity": 92}, {"time": 189611, "pitch": 40, "duration": 10, "velocity": 127}, {"time": 189611, "pitch": 44, "duration": 10, "velocity": 117}, {"time": 190090, "pitch": 42, "duration": 10, "velocity": 92}, {"time": 190409, "pitch": 35, "duration": 10, "velocity": 86}, {"time": 190409, "pitch": 42, "duration": 10, "velocity": 97}, {"time": 190568, "pitch": 35, "duration": 10, "velocity": 117}, {"time": 190568, "pitch": 44, "duration": 10, "velocity": 120}, {"time": 191047, "pitch": 42, "duration": 10, "velocity": 93}, {"time": 191366, "pitch": 35, "duration": 9, "velocity": 97}, {"time": 191366, "pitch": 42, "duration": 9, "velocity": 94}, {"time": 191525, "pitch": 40, "duration": 10, "velocity": 122}, {"time": 191525, "pitch": 46, "duration": 10, "velocity": 118}, {"time": 192015, "pitch": 42, "duration": 10, "velocity": 87}, {"time": 192333, "pitch": 35, "duration": 10, "velocity": 127}, {"time": 192333, "pitch": 42, "duration": 10, "velocity": 84}, {"time": 192493, "pitch": 44, "duration": 10, "velocity": 111}, {"time": 192812, "pitch": 35, "duration": 10, "velocity": 92}, {"time": 192971, "pitch": 35, "duration": 10, "velocity": 120}, {"time": 192971, "pitch": 42, "duration": 10, "velocity": 91}, {"time": 193290, "pitch": 42, "duration": 10, "velocity": 92}, {"time": 193450, "pitch": 40, "duration": 10, "velocity": 127}, {"time": 193450, "pitch": 44, "duration": 10, "velocity": 111}, {"time": 193928, "pitch": 42, "duration": 10, "velocity": 91}, {"time": 194247, "pitch": 42, "duration": 10, "velocity": 97}, {"time": 194407, "pitch": 35, "duration": 10, "velocity": 127}, {"time": 194407, "pitch": 44, "duration": 10, "velocity": 110}, {"time": 194885, "pitch": 42, "duration": 10, "velocity": 84}, {"time": 195048, "pitch": 42, "duration": 11, "velocity": 86}, {"time": 195212, "pitch": 35, "duration": 10, "velocity": 120}, {"time": 195212, "pitch": 42, "duration": 10, "velocity": 94}, {"time": 195375, "pitch": 40, "duration": 10, "velocity": 125}, {"time": 195375, "pitch": 42, "duration": 10, "velocity": 112}, {"time": 195693, "pitch": 44, "duration": 10, "velocity": 111}, {"time": 195853, "pitch": 42, "duration": 10, "velocity": 87}, {"time": 196172, "pitch": 42, "duration": 10, "velocity": 86}, {"time": 196321, "pitch": 35, "duration": 10, "velocity": 127}, {"time": 196650, "pitch": 42, "duration": 10, "velocity": 94}, {"time": 196810, "pitch": 46, "duration": 10, "velocity": 103}, {"time": 197278, "pitch": 40, "duration": 10, "velocity": 125}, {"time": 197288, "pitch": 44, "duration": 10, "velocity": 106}, {"time": 197607, "pitch": 42, "duration": 10, "velocity": 88}, {"time": 197767, "pitch": 46, "duration": 10, "velocity": 127}, {"time": 198086, "pitch": 35, "duration": 9, "velocity": 96}, {"time": 198245, "pitch": 35, "duration": 10, "velocity": 127}, {"time": 198245, "pitch": 44, "duration": 10, "velocity": 90}, {"time": 198572, "pitch": 42, "duration": 10, "velocity": 94}, {"time": 198735, "pitch": 46, "duration": 10, "velocity": 123}, {"time": 199203, "pitch": 40, "duration": 10, "velocity": 125}, {"time": 199213, "pitch": 44, "duration": 10, "velocity": 91}, {"time": 199532, "pitch": 42, "duration": 10, "velocity": 97}, {"time": 199691, "pitch": 46, "duration": 10, "velocity": 105}, {"time": 200010, "pitch": 35, "duration": 10, "velocity": 110}, {"time": 200010, "pitch": 46, "duration": 10, "velocity": 127}, {"time": 200489, "pitch": 42, "duration": 10, "velocity": 96}, {"time": 200648, "pitch": 35, "duration": 10, "velocity": 124}, {"time": 200648, "pitch": 46, "duration": 10, "velocity": 103}, {"time": 201117, "pitch": 40, "duration": 10, "velocity": 125}, {"time": 201127, "pitch": 35, "duration": 10, "velocity": 127}, {"time": 201127, "pitch": 46, "duration": 10, "velocity": 123}, {"time": 201932, "pitch": 35, "duration": 10, "velocity": 88}, {"time": 201932, "pitch": 46, "duration": 10, "velocity": 125}, {"time": 202095, "pitch": 45, "duration": 10, "velocity": 112}, {"time": 202413, "pitch": 40, "duration": 10, "velocity": 127}, {"time": 202413, "pitch": 44, "duration": 10, "velocity": 101}, {"time": 202573, "pitch": 42, "duration": 10, "velocity": 85}, {"time": 202892, "pitch": 45, "duration": 10, "velocity": 96}, {"time": 202892, "pitch": 46, "duration": 10, "velocity": 127}, {"time": 203051, "pitch": 40, "duration": 10, "velocity": 115}, {"time": 203211, "pitch": 44, "duration": 10, "velocity": 82}, {"time": 203370, "pitch": 42, "duration": 10, "velocity": 101}, {"time": 203370, "pitch": 45, "duration": 10, "velocity": 110}, {"time": 203530, "pitch": 43, "duration": 10, "velocity": 111}, {"time": 203530, "pitch": 44, "duration": 10, "velocity": 113}, {"time": 203849, "pitch": 35, "duration": 10, "velocity": 127}, {"time": 203849, "pitch": 40, "duration": 10, "velocity": 127}, {"time": 203849, "pitch": 46, "duration": 10, "velocity": 115}, {"time": 204487, "pitch": 35, "duration": 10, "velocity": 127}, {"time": 204965, "pitch": 44, "duration": 10, "velocity": 120}, {"time": 205455, "pitch": 35, "duration": 10, "velocity": 127}, {"time": 205773, "pitch": 46, "duration": 10, "velocity": 127}, {"time": 206252, "pitch": 35, "duration": 10, "velocity": 88}, {"time": 206252, "pitch": 42, "duration": 10, "velocity": 97}, {"time": 206411, "pitch": 35, "duration": 10, "velocity": 127}, {"time": 206411, "pitch": 46, "duration": 10, "velocity": 118}, {"time": 206890, "pitch": 46, "duration": 10, "velocity": 117}, {"time": 207209, "pitch": 42, "duration": 10, "velocity": 110}, {"time": 207358, "pitch": 40, "duration": 10, "velocity": 127}, {"time": 207368, "pitch": 35, "duration": 10, "velocity": 124}, {"time": 208325, "pitch": 35, "duration": 10, "velocity": 127}, {"time": 208815, "pitch": 44, "duration": 10, "velocity": 124}, {"time": 209133, "pitch": 42, "duration": 10, "velocity": 110}, {"time": 209293, "pitch": 35, "duration": 10, "velocity": 119}, {"time": 209612, "pitch": 46, "duration": 10, "velocity": 125}, {"time": 209771, "pitch": 45, "duration": 10, "velocity": 125}, {"time": 210090, "pitch": 35, "duration": 10, "velocity": 102}, {"time": 210090, "pitch": 42, "duration": 10, "velocity": 115}, {"time": 210569, "pitch": 45, "duration": 10, "velocity": 108}, {"time": 210569, "pitch": 46, "duration": 10, "velocity": 127}, {"time": 210728, "pitch": 35, "duration": 10, "velocity": 78}, {"time": 210728, "pitch": 42, "duration": 10, "velocity": 62}, {"time": 210888, "pitch": 40, "duration": 10, "velocity": 85}, {"time": 210888, "pitch": 44, "duration": 10, "velocity": 66}, {"time": 211047, "pitch": 40, "duration": 10, "velocity": 110}, {"time": 211047, "pitch": 42, "duration": 10, "velocity": 103}, {"time": 211207, "pitch": 40, "duration": 10, "velocity": 112}, {"time": 211207, "pitch": 46, "duration": 10, "velocity": 119}, {"time": 211366, "pitch": 40, "duration": 10, "velocity": 113}, {"time": 211526, "pitch": 40, "duration": 9, "velocity": 127}, {"time": 212012, "pitch": 42, "duration": 10, "velocity": 91}, {"time": 212175, "pitch": 46, "duration": 10, "velocity": 114}, {"time": 212643, "pitch": 40, "duration": 10, "velocity": 127}, {"time": 212653, "pitch": 44, "duration": 10, "velocity": 101}, {"time": 212972, "pitch": 42, "duration": 10, "velocity": 93}, {"time": 213131, "pitch": 46, "duration": 10, "velocity": 117}, {"time": 213450, "pitch": 35, "duration": 10, "velocity": 96}, {"time": 213610, "pitch": 35, "duration": 10, "velocity": 127}, {"time": 213610, "pitch": 44, "duration": 10, "velocity": 91}, {"time": 213929, "pitch": 42, "duration": 10, "velocity": 88}, {"time": 214088, "pitch": 46, "duration": 10, "velocity": 112}, {"time": 214557, "pitch": 40, "duration": 10, "velocity": 127}, {"time": 214567, "pitch": 44, "duration": 10, "velocity": 100}, {"time": 214885, "pitch": 42, "duration": 10, "velocity": 86}, {"time": 215045, "pitch": 46, "duration": 10, "velocity": 101}, {"time": 215372, "pitch": 35, "duration": 10, "velocity": 110}, {"time": 215372, "pitch": 46, "duration": 10, "velocity": 122}, {"time": 215853, "pitch": 42, "duration": 10, "velocity": 90}, {"time": 216013, "pitch": 35, "duration": 10, "velocity": 124}, {"time": 216013, "pitch": 46, "duration": 10, "velocity": 103}, {"time": 216481, "pitch": 40, "duration": 10, "velocity": 127}, {"time": 216491, "pitch": 35, "duration": 10, "velocity": 127}, {"time": 216491, "pitch": 46, "duration": 10, "velocity": 117}, {"time": 217289, "pitch": 35, "duration": 10, "velocity": 88}, {"time": 217289, "pitch": 46, "duration": 10, "velocity": 108}, {"time": 217448, "pitch": 45, "duration": 10, "velocity": 112}, {"time": 217767, "pitch": 40, "duration": 10, "velocity": 127}, {"time": 217767, "pitch": 42, "duration": 10, "velocity": 89}, {"time": 217927, "pitch": 44, "duration": 10, "velocity": 117}, {"time": 218245, "pitch": 45, "duration": 10, "velocity": 96}, {"time": 218245, "pitch": 46, "duration": 10, "velocity": 115}, {"time": 218405, "pitch": 40, "duration": 10, "velocity": 115}, {"time": 218732, "pitch": 42, "duration": 10, "velocity": 92}, {"time": 218732, "pitch": 45, "duration": 10, "velocity": 110}, {"time": 218895, "pitch": 43, "duration": 9, "velocity": 111}, {"time": 219213, "pitch": 35, "duration": 10, "velocity": 127}, {"time": 219213, "pitch": 40, "duration": 10, "velocity": 127}, {"time": 219213, "pitch": 44, "duration": 10, "velocity": 127}, {"time": 221605, "pitch": 40, "duration": 10, "velocity": 127}, {"time": 221605, "pitch": 42, "duration": 10, "velocity": 91}, {"time": 221765, "pitch": 46, "duration": 10, "velocity": 110}, {"time": 222092, "pitch": 35, "duration": 10, "velocity": 98}, {"time": 222092, "pitch": 42, "duration": 10, "velocity": 88}, {"time": 222255, "pitch": 40, "duration": 9, "velocity": 127}, {"time": 222255, "pitch": 46, "duration": 9, "velocity": 112}, {"time": 222573, "pitch": 42, "duration": 10, "velocity": 89}, {"time": 222573, "pitch": 45, "duration": 10, "velocity": 105}, {"time": 222733, "pitch": 42, "duration": 10, "velocity": 89}, {"time": 222733, "pitch": 43, "duration": 10, "velocity": 118}, {"time": 223052, "pitch": 35, "duration": 10, "velocity": 127}, {"time": 223052, "pitch": 46, "duration": 10, "velocity": 127}, {"time": 223530, "pitch": 42, "duration": 10, "velocity": 87}, {"time": 223690, "pitch": 46, "duration": 10, "velocity": 112}, {"time": 224158, "pitch": 40, "duration": 10, "velocity": 127}, {"time": 224168, "pitch": 44, "duration": 10, "velocity": 99}, {"time": 224487, "pitch": 42, "duration": 10, "velocity": 88}, {"time": 224647, "pitch": 46, "duration": 10, "velocity": 105}, {"time": 224965, "pitch": 35, "duration": 10, "velocity": 103}, {"time": 225125, "pitch": 35, "duration": 10, "velocity": 127}, {"time": 225125, "pitch": 44, "duration": 10, "velocity": 94}, {"time": 225452, "pitch": 42, "duration": 10, "velocity": 92}, {"time": 225615, "pitch": 46, "duration": 9, "velocity": 115}, {"time": 226083, "pitch": 40, "duration": 10, "velocity": 127}, {"time": 226093, "pitch": 44, "duration": 10, "velocity": 97}, {"time": 226412, "pitch": 42, "duration": 10, "velocity": 96}, {"time": 226571, "pitch": 46, "duration": 10, "velocity": 111}, {"time": 226890, "pitch": 35, "duration": 10, "velocity": 127}, {"time": 226890, "pitch": 44, "duration": 10, "velocity": 99}, {"time": 227369, "pitch": 42, "duration": 10, "velocity": 94}, {"time": 227528, "pitch": 35, "duration": 10, "velocity": 124}, {"time": 227528, "pitch": 46, "duration": 10, "velocity": 113}, {"time": 228007, "pitch": 40, "duration": 10, "velocity": 119}, {"time": 228007, "pitch": 44, "duration": 10, "velocity": 99}, {"time": 228325, "pitch": 42, "duration": 10, "velocity": 91}, {"time": 228485, "pitch": 46, "duration": 10, "velocity": 107}, {"time": 228812, "pitch": 35, "duration": 10, "velocity": 110}, {"time": 228975, "pitch": 44, "duration": 9, "velocity": 101}, {"time": 229293, "pitch": 42, "duration": 10, "velocity": 91}, {"time": 229453, "pitch": 35, "duration": 10, "velocity": 121}, {"time": 229453, "pitch": 46, "duration": 10, "velocity": 114}, {"time": 229931, "pitch": 40, "duration": 10, "velocity": 127}, {"time": 229931, "pitch": 44, "duration": 10, "velocity": 99}, {"time": 230250, "pitch": 42, "duration": 10, "velocity": 91}, {"time": 230250, "pitch": 45, "duration": 10, "velocity": 105}, {"time": 230410, "pitch": 43, "duration": 10, "velocity": 111}, {"time": 230410, "pitch": 46, "duration": 10, "velocity": 119}, {"time": 230729, "pitch": 35, "duration": 10, "velocity": 127}, {"time": 230729, "pitch": 44, "duration": 10, "velocity": 107}, {"time": 231207, "pitch": 42, "duration": 10, "velocity": 91}, {"time": 231367, "pitch": 46, "duration": 10, "velocity": 114}, {"time": 231835, "pitch": 40, "duration": 10, "velocity": 127}, {"time": 231845, "pitch": 44, "duration": 10, "velocity": 101}, {"time": 232172, "pitch": 42, "duration": 10, "velocity": 93}, {"time": 232335, "pitch": 46, "duration": 9, "velocity": 117}, {"time": 232653, "pitch": 35, "duration": 10, "velocity": 96}, {"time": 232813, "pitch": 35, "duration": 10, "velocity": 127}, {"time": 232813, "pitch": 44, "duration": 10, "velocity": 91}, {"time": 233132, "pitch": 42, "duration": 10, "velocity": 88}, {"time": 233291, "pitch": 46, "duration": 10, "velocity": 112}, {"time": 233760, "pitch": 40, "duration": 10, "velocity": 127}, {"time": 233770, "pitch": 44, "duration": 10, "velocity": 100}, {"time": 234089, "pitch": 42, "duration": 10, "velocity": 86}, {"time": 234248, "pitch": 46, "duration": 10, "velocity": 101}, {"time": 234567, "pitch": 35, "duration": 10, "velocity": 110}, {"time": 234567, "pitch": 46, "duration": 10, "velocity": 122}, {"time": 235045, "pitch": 42, "duration": 10, "velocity": 90}, {"time": 235205, "pitch": 35, "duration": 10, "velocity": 124}, {"time": 235205, "pitch": 46, "duration": 10, "velocity": 103}, {"time": 235685, "pitch": 40, "duration": 10, "velocity": 127}, {"time": 235695, "pitch": 35, "duration": 9, "velocity": 127}, {"time": 235695, "pitch": 46, "duration": 9, "velocity": 117}, {"time": 236492, "pitch": 35, "duration": 10, "velocity": 88}, {"time": 236492, "pitch": 46, "duration": 10, "velocity": 108}, {"time": 236651, "pitch": 45, "duration": 10, "velocity": 112}, {"time": 236970, "pitch": 40, "duration": 10, "velocity": 127}, {"time": 236970, "pitch": 42, "duration": 10, "velocity": 89}, {"time": 237130, "pitch": 44, "duration": 10, "velocity": 117}, {"time": 237449, "pitch": 45, "duration": 10, "velocity": 96}, {"time": 237449, "pitch": 46, "duration": 10, "velocity": 115}, {"time": 237608, "pitch": 40, "duration": 10, "velocity": 115}, {"time": 237927, "pitch": 42, "duration": 10, "velocity": 92}, {"time": 237927, "pitch": 45, "duration": 10, "velocity": 110}, {"time": 238087, "pitch": 43, "duration": 10, "velocity": 111}, {"time": 238405, "pitch": 35, "duration": 10, "velocity": 127}, {"time": 238405, "pitch": 40, "duration": 10, "velocity": 127}, {"time": 238405, "pitch": 52, "duration": 10, "velocity": 127}, {"time": 4652, "pitch": 73, "duration": 70, "velocity": 107}, {"time": 4812, "pitch": 61, "duration": 39, "velocity": 78}, {"time": 5130, "pitch": 61, "duration": 60, "velocity": 90}, {"time": 5290, "pitch": 73, "duration": 80, "velocity": 94}, {"time": 5609, "pitch": 73, "duration": 70, "velocity": 92}, {"time": 5768, "pitch": 61, "duration": 110, "velocity": 98}, {"time": 6556, "pitch": 73, "duration": 79, "velocity": 94}, {"time": 6725, "pitch": 61, "duration": 92, "velocity": 92}, {"time": 7052, "pitch": 61, "duration": 81, "velocity": 81}, {"time": 7215, "pitch": 73, "duration": 79, "velocity": 90}, {"time": 7534, "pitch": 73, "duration": 69, "velocity": 90}, {"time": 7693, "pitch": 61, "duration": 80, "velocity": 96}, {"time": 8490, "pitch": 73, "duration": 70, "velocity": 94}, {"time": 8650, "pitch": 61, "duration": 90, "velocity": 96}, {"time": 8969, "pitch": 61, "duration": 70, "velocity": 89}, {"time": 9128, "pitch": 73, "duration": 70, "velocity": 84}, {"time": 9447, "pitch": 73, "duration": 70, "velocity": 98}, {"time": 9607, "pitch": 61, "duration": 99, "velocity": 100}, {"time": 10412, "pitch": 73, "duration": 71, "velocity": 100}, {"time": 10575, "pitch": 61, "duration": 79, "velocity": 83}, {"time": 10894, "pitch": 61, "duration": 69, "velocity": 84}, {"time": 11053, "pitch": 73, "duration": 80, "velocity": 89}, {"time": 11382, "pitch": 73, "duration": 50, "velocity": 90}, {"time": 11532, "pitch": 61, "duration": 79, "velocity": 87}, {"time": 11850, "pitch": 61, "duration": 60, "velocity": 94}, {"time": 12329, "pitch": 73, "duration": 50, "velocity": 94}, {"time": 12488, "pitch": 61, "duration": 60, "velocity": 81}, {"time": 12807, "pitch": 61, "duration": 60, "velocity": 84}, {"time": 12967, "pitch": 73, "duration": 79, "velocity": 116}, {"time": 13286, "pitch": 73, "duration": 60, "velocity": 102}, {"time": 13445, "pitch": 61, "duration": 82, "velocity": 98}, {"time": 14254, "pitch": 73, "duration": 69, "velocity": 94}, {"time": 14423, "pitch": 61, "duration": 80, "velocity": 89}, {"time": 14732, "pitch": 61, "duration": 70, "velocity": 86}, {"time": 14892, "pitch": 73, "duration": 99, "velocity": 90}, {"time": 15210, "pitch": 73, "duration": 60, "velocity": 86}, {"time": 15370, "pitch": 61, "duration": 80, "velocity": 92}, {"time": 15689, "pitch": 61, "duration": 70, "velocity": 87}, {"time": 16167, "pitch": 68, "duration": 60, "velocity": 98}, {"time": 16327, "pitch": 56, "duration": 79, "velocity": 89}, {"time": 16646, "pitch": 56, "duration": 50, "velocity": 86}, {"time": 16805, "pitch": 68, "duration": 72, "velocity": 105}, {"time": 17132, "pitch": 68, "duration": 71, "velocity": 102}, {"time": 17295, "pitch": 56, "duration": 89, "velocity": 100}, {"time": 18092, "pitch": 68, "duration": 70, "velocity": 110}, {"time": 18262, "pitch": 56, "duration": 59, "velocity": 86}, {"time": 18570, "pitch": 56, "duration": 60, "velocity": 92}, {"time": 18730, "pitch": 68, "duration": 80, "velocity": 105}, {"time": 19049, "pitch": 68, "duration": 80, "velocity": 110}, {"time": 19208, "pitch": 56, "duration": 80, "velocity": 110}, {"time": 20006, "pitch": 73, "duration": 59, "velocity": 105}, {"time": 20175, "pitch": 61, "duration": 92, "velocity": 100}, {"time": 20492, "pitch": 61, "duration": 71, "velocity": 89}, {"time": 20655, "pitch": 73, "duration": 79, "velocity": 105}, {"time": 20974, "pitch": 73, "duration": 79, "velocity": 102}, {"time": 21143, "pitch": 61, "duration": 80, "velocity": 100}, {"time": 21930, "pitch": 73, "duration": 80, "velocity": 100}, {"time": 22090, "pitch": 61, "duration": 90, "velocity": 90}, {"time": 22409, "pitch": 61, "duration": 60, "velocity": 92}, {"time": 22568, "pitch": 73, "duration": 80, "velocity": 105}, {"time": 22887, "pitch": 73, "duration": 70, "velocity": 100}, {"time": 23047, "pitch": 61, "duration": 70, "velocity": 96}, {"time": 23852, "pitch": 73, "duration": 92, "velocity": 113}, {"time": 24015, "pitch": 61, "duration": 79, "velocity": 89}, {"time": 24324, "pitch": 61, "duration": 69, "velocity": 84}, {"time": 24493, "pitch": 73, "duration": 80, "velocity": 102}, {"time": 24812, "pitch": 73, "duration": 60, "velocity": 105}, {"time": 24972, "pitch": 61, "duration": 89, "velocity": 87}, {"time": 25290, "pitch": 61, "duration": 60, "velocity": 96}, {"time": 25769, "pitch": 73, "duration": 90, "velocity": 107}, {"time": 25928, "pitch": 61, "duration": 80, "velocity": 81}, {"time": 26257, "pitch": 61, "duration": 40, "velocity": 96}, {"time": 26407, "pitch": 73, "duration": 79, "velocity": 113}, {"time": 26726, "pitch": 73, "duration": 59, "velocity": 98}, {"time": 26885, "pitch": 61, "duration": 72, "velocity": 116}, {"time": 33466, "pitch": 44, "duration": 170, "velocity": 80}, {"time": 33636, "pitch": 46, "duration": 265, "velocity": 93}, {"time": 33962, "pitch": 56, "duration": 202, "velocity": 86}, {"time": 34115, "pitch": 52, "duration": 319, "velocity": 63}, {"time": 34434, "pitch": 49, "duration": 209, "velocity": 89}, {"time": 34603, "pitch": 46, "duration": 299, "velocity": 93}, {"time": 35390, "pitch": 61, "duration": 150, "velocity": 83}, {"time": 35560, "pitch": 49, "duration": 209, "velocity": 83}, {"time": 36028, "pitch": 53, "duration": 230, "velocity": 97}, {"time": 36517, "pitch": 56, "duration": 179, "velocity": 89}, {"time": 36996, "pitch": 56, "duration": 827, "velocity": 97}, {"time": 37794, "pitch": 68, "duration": 219, "velocity": 97}, {"time": 38750, "pitch": 49, "duration": 688, "velocity": 102}, {"time": 39388, "pitch": 53, "duration": 230, "velocity": 83}, {"time": 39877, "pitch": 56, "duration": 219, "velocity": 107}, {"time": 40682, "pitch": 56, "duration": 691, "velocity": 107}, {"time": 41313, "pitch": 51, "duration": 229, "velocity": 89}, {"time": 41791, "pitch": 56, "duration": 240, "velocity": 102}, {"time": 42280, "pitch": 58, "duration": 329, "velocity": 89}, {"time": 42748, "pitch": 54, "duration": 738, "velocity": 102}, {"time": 43556, "pitch": 66, "duration": 160, "velocity": 97}, {"time": 44042, "pitch": 54, "duration": 62, "velocity": 53}, {"time": 44195, "pitch": 58, "duration": 259, "velocity": 93}, {"time": 44683, "pitch": 61, "duration": 787, "velocity": 106}, {"time": 45470, "pitch": 61, "duration": 220, "velocity": 93}, {"time": 46427, "pitch": 56, "duration": 131, "velocity": 102}, {"time": 47066, "pitch": 56, "duration": 40, "velocity": 98}, {"time": 47555, "pitch": 56, "duration": 1255, "velocity": 102}, {"time": 48830, "pitch": 61, "duration": 160, "velocity": 97}, {"time": 49309, "pitch": 56, "duration": 99, "velocity": 59}, {"time": 49468, "pitch": 56, "duration": 319, "velocity": 93}, {"time": 49797, "pitch": 60, "duration": 180, "velocity": 62}, {"time": 49957, "pitch": 61, "duration": 259, "velocity": 93}, {"time": 50266, "pitch": 61, "duration": 200, "velocity": 86}, {"time": 50426, "pitch": 54, "duration": 748, "velocity": 102}, {"time": 51244, "pitch": 66, "duration": 159, "velocity": 97}, {"time": 51722, "pitch": 54, "duration": 60, "velocity": 53}, {"time": 51871, "pitch": 58, "duration": 260, "velocity": 93}, {"time": 52360, "pitch": 61, "duration": 239, "velocity": 102}, {"time": 53147, "pitch": 63, "duration": 720, "velocity": 93}, {"time": 53786, "pitch": 58, "duration": 326, "velocity": 86}, {"time": 54112, "pitch": 61, "duration": 153, "velocity": 57}, {"time": 54285, "pitch": 54, "duration": 787, "velocity": 97}, {"time": 55072, "pitch": 66, "duration": 159, "velocity": 83}, {"time": 56029, "pitch": 46, "duration": 89, "velocity": 72}, {"time": 56188, "pitch": 49, "duration": 249, "velocity": 93}, {"time": 56677, "pitch": 51, "duration": 189, "velocity": 97}, {"time": 57146, "pitch": 52, "duration": 255, "velocity": 107}, {"time": 57645, "pitch": 51, "duration": 458, "velocity": 97}, {"time": 58113, "pitch": 54, "duration": 738, "velocity": 102}, {"time": 58920, "pitch": 66, "duration": 160, "velocity": 97}, {"time": 59399, "pitch": 54, "duration": 60, "velocity": 53}, {"time": 59548, "pitch": 58, "duration": 259, "velocity": 93}, {"time": 60037, "pitch": 61, "duration": 239, "velocity": 102}, {"time": 60832, "pitch": 63, "duration": 721, "velocity": 93}, {"time": 61473, "pitch": 58, "duration": 319, "velocity": 86}, {"time": 61792, "pitch": 61, "duration": 149, "velocity": 57}, {"time": 61961, "pitch": 54, "duration": 788, "velocity": 97}, {"time": 62749, "pitch": 66, "duration": 159, "velocity": 83}, {"time": 63706, "pitch": 46, "duration": 89, "velocity": 72}, {"time": 63866, "pitch": 49, "duration": 255, "velocity": 93}, {"time": 64365, "pitch": 51, "duration": 189, "velocity": 97}, {"time": 64833, "pitch": 52, "duration": 249, "velocity": 107}, {"time": 65321, "pitch": 51, "duration": 459, "velocity": 97}, {"time": 66109, "pitch": 61, "duration": 199, "velocity": 77}, {"time": 66268, "pitch": 49, "duration": 249, "velocity": 77}, {"time": 66757, "pitch": 53, "duration": 249, "velocity": 97}, {"time": 67226, "pitch": 56, "duration": 224, "velocity": 89}, {"time": 67715, "pitch": 58, "duration": 857, "velocity": 102}, {"time": 68512, "pitch": 61, "duration": 209, "velocity": 93}, {"time": 69479, "pitch": 51, "duration": 658, "velocity": 106}, {"time": 70107, "pitch": 46, "duration": 209, "velocity": 106}, {"time": 70586, "pitch": 51, "duration": 798, "velocity": 102}, {"time": 71872, "pitch": 56, "duration": 130, "velocity": 70}, {"time": 72031, "pitch": 51, "duration": 220, "velocity": 89}, {"time": 72510, "pitch": 56, "duration": 329, "velocity": 97}, {"time": 72839, "pitch": 58, "duration": 159, "velocity": 75}, {"time": 72988, "pitch": 60, "duration": 309, "velocity": 77}, {"time": 73307, "pitch": 61, "duration": 180, "velocity": 93}, {"time": 73946, "pitch": 49, "duration": 489, "velocity": 102}, {"time": 74923, "pitch": 49, "duration": 439, "velocity": 106}, {"time": 75710, "pitch": 60, "duration": 170, "velocity": 86}, {"time": 75880, "pitch": 53, "duration": 349, "velocity": 77}, {"time": 76348, "pitch": 56, "duration": 269, "velocity": 93}, {"time": 76837, "pitch": 60, "duration": 348, "velocity": 97}, {"time": 77156, "pitch": 56, "duration": 119, "velocity": 70}, {"time": 77795, "pitch": 44, "duration": 388, "velocity": 102}, {"time": 78751, "pitch": 44, "duration": 279, "velocity": 97}, {"time": 79200, "pitch": 37, "duration": 279, "velocity": 97}, {"time": 79549, "pitch": 44, "duration": 169, "velocity": 80}, {"time": 79718, "pitch": 46, "duration": 259, "velocity": 93}, {"time": 80037, "pitch": 56, "duration": 199, "velocity": 86}, {"time": 80187, "pitch": 52, "duration": 319, "velocity": 63}, {"time": 80506, "pitch": 49, "duration": 211, "velocity": 89}, {"time": 80676, "pitch": 46, "duration": 306, "velocity": 93}, {"time": 81165, "pitch": 44, "duration": 209, "velocity": 102}, {"time": 81952, "pitch": 44, "duration": 249, "velocity": 102}, {"time": 84834, "pitch": 49, "duration": 488, "velocity": 106}, {"time": 85312, "pitch": 61, "duration": 149, "velocity": 83}, {"time": 85481, "pitch": 49, "duration": 210, "velocity": 83}, {"time": 85950, "pitch": 53, "duration": 229, "velocity": 97}, {"time": 86438, "pitch": 56, "duration": 180, "velocity": 89}, {"time": 86917, "pitch": 56, "duration": 826, "velocity": 97}, {"time": 87712, "pitch": 68, "duration": 222, "velocity": 97}, {"time": 88672, "pitch": 49, "duration": 688, "velocity": 102}, {"time": 89310, "pitch": 53, "duration": 229, "velocity": 83}, {"time": 89798, "pitch": 56, "duration": 219, "velocity": 107}, {"time": 90596, "pitch": 56, "duration": 698, "velocity": 107}, {"time": 91235, "pitch": 51, "duration": 229, "velocity": 89}, {"time": 91713, "pitch": 56, "duration": 239, "velocity": 102}, {"time": 92201, "pitch": 58, "duration": 329, "velocity": 89}, {"time": 92670, "pitch": 54, "duration": 737, "velocity": 102}, {"time": 93477, "pitch": 66, "duration": 160, "velocity": 97}, {"time": 93956, "pitch": 54, "duration": 59, "velocity": 53}, {"time": 94106, "pitch": 58, "duration": 265, "velocity": 93}, {"time": 94605, "pitch": 61, "duration": 787, "velocity": 106}, {"time": 95392, "pitch": 61, "duration": 219, "velocity": 93}, {"time": 96349, "pitch": 56, "duration": 130, "velocity": 102}, {"time": 96987, "pitch": 56, "duration": 39, "velocity": 98}, {"time": 97466, "pitch": 56, "duration": 1266, "velocity": 102}, {"time": 98752, "pitch": 61, "duration": 159, "velocity": 97}, {"time": 99230, "pitch": 56, "duration": 100, "velocity": 59}, {"time": 99390, "pitch": 56, "duration": 319, "velocity": 93}, {"time": 99719, "pitch": 60, "duration": 179, "velocity": 62}, {"time": 99878, "pitch": 61, "duration": 259, "velocity": 93}, {"time": 100187, "pitch": 61, "duration": 199, "velocity": 86}, {"time": 100347, "pitch": 54, "duration": 744, "velocity": 102}, {"time": 101162, "pitch": 66, "duration": 163, "velocity": 97}, {"time": 101643, "pitch": 54, "duration": 60, "velocity": 53}, {"time": 101793, "pitch": 58, "duration": 259, "velocity": 93}, {"time": 102281, "pitch": 61, "duration": 240, "velocity": 102}, {"time": 103069, "pitch": 63, "duration": 717, "velocity": 93}, {"time": 103707, "pitch": 58, "duration": 319, "velocity": 86}, {"time": 104026, "pitch": 61, "duration": 149, "velocity": 57}, {"time": 104196, "pitch": 54, "duration": 798, "velocity": 97}, {"time": 104994, "pitch": 66, "duration": 159, "velocity": 83}, {"time": 105950, "pitch": 46, "duration": 90, "velocity": 72}, {"time": 106110, "pitch": 49, "duration": 249, "velocity": 93}, {"time": 106598, "pitch": 51, "duration": 190, "velocity": 97}, {"time": 107067, "pitch": 52, "duration": 249, "velocity": 107}, {"time": 107556, "pitch": 51, "duration": 469, "velocity": 97}, {"time": 108035, "pitch": 54, "duration": 737, "velocity": 102}, {"time": 108842, "pitch": 66, "duration": 159, "velocity": 97}, {"time": 109320, "pitch": 54, "duration": 60, "velocity": 53}, {"time": 109470, "pitch": 58, "duration": 259, "velocity": 93}, {"time": 109958, "pitch": 61, "duration": 239, "velocity": 102}, {"time": 110746, "pitch": 63, "duration": 728, "velocity": 93}, {"time": 111395, "pitch": 58, "duration": 319, "velocity": 86}, {"time": 111714, "pitch": 61, "duration": 149, "velocity": 57}, {"time": 111883, "pitch": 54, "duration": 787, "velocity": 97}, {"time": 112670, "pitch": 66, "duration": 160, "velocity": 83}, {"time": 113627, "pitch": 46, "duration": 90, "velocity": 72}, {"time": 113787, "pitch": 49, "duration": 249, "velocity": 93}, {"time": 114276, "pitch": 51, "duration": 194, "velocity": 97}, {"time": 114755, "pitch": 52, "duration": 249, "velocity": 107}, {"time": 115243, "pitch": 51, "duration": 458, "velocity": 97}, {"time": 116030, "pitch": 61, "duration": 200, "velocity": 77}, {"time": 116190, "pitch": 49, "duration": 249, "velocity": 77}, {"time": 116678, "pitch": 53, "duration": 249, "velocity": 97}, {"time": 117147, "pitch": 56, "duration": 219, "velocity": 89}, {"time": 117626, "pitch": 58, "duration": 867, "velocity": 102}, {"time": 118434, "pitch": 61, "duration": 209, "velocity": 93}, {"time": 119400, "pitch": 51, "duration": 658, "velocity": 106}, {"time": 120028, "pitch": 46, "duration": 209, "velocity": 106}, {"time": 120507, "pitch": 51, "duration": 795, "velocity": 102}, {"time": 121793, "pitch": 56, "duration": 130, "velocity": 70}, {"time": 121953, "pitch": 51, "duration": 219, "velocity": 89}, {"time": 122431, "pitch": 56, "duration": 329, "velocity": 97}, {"time": 122760, "pitch": 58, "duration": 160, "velocity": 75}, {"time": 122910, "pitch": 60, "duration": 309, "velocity": 77}, {"time": 123229, "pitch": 61, "duration": 179, "velocity": 93}, {"time": 123867, "pitch": 49, "duration": 479, "velocity": 102}, {"time": 124845, "pitch": 49, "duration": 438, "velocity": 106}, {"time": 125632, "pitch": 60, "duration": 169, "velocity": 86}, {"time": 125801, "pitch": 53, "duration": 349, "velocity": 77}, {"time": 126270, "pitch": 56, "duration": 269, "velocity": 93}, {"time": 126758, "pitch": 60, "duration": 349, "velocity": 97}, {"time": 127077, "pitch": 56, "duration": 120, "velocity": 70}, {"time": 127706, "pitch": 44, "duration": 398, "velocity": 102}, {"time": 128673, "pitch": 44, "duration": 279, "velocity": 97}, {"time": 129121, "pitch": 49, "duration": 280, "velocity": 97}, {"time": 129470, "pitch": 56, "duration": 170, "velocity": 80}, {"time": 129640, "pitch": 58, "duration": 259, "velocity": 93}, {"time": 129959, "pitch": 68, "duration": 199, "velocity": 86}, {"time": 130108, "pitch": 64, "duration": 319, "velocity": 63}, {"time": 130427, "pitch": 61, "duration": 209, "velocity": 89}, {"time": 130597, "pitch": 58, "duration": 299, "velocity": 93}, {"time": 131076, "pitch": 56, "duration": 214, "velocity": 102}, {"time": 131873, "pitch": 44, "duration": 250, "velocity": 102}, {"time": 134752, "pitch": 49, "duration": 491, "velocity": 106}, {"time": 135214, "pitch": 73, "duration": 69, "velocity": 107}, {"time": 135373, "pitch": 61, "duration": 40, "velocity": 78}, {"time": 135692, "pitch": 61, "duration": 60, "velocity": 90}, {"time": 135851, "pitch": 73, "duration": 80, "velocity": 94}, {"time": 136170, "pitch": 73, "duration": 70, "velocity": 92}, {"time": 136330, "pitch": 61, "duration": 109, "velocity": 98}, {"time": 137117, "pitch": 73, "duration": 80, "velocity": 94}, {"time": 137287, "pitch": 61, "duration": 89, "velocity": 92}, {"time": 137606, "pitch": 61, "duration": 79, "velocity": 81}, {"time": 137765, "pitch": 73, "duration": 82, "velocity": 90}, {"time": 138092, "pitch": 73, "duration": 71, "velocity": 90}, {"time": 138255, "pitch": 61, "duration": 79, "velocity": 96}, {"time": 139052, "pitch": 73, "duration": 70, "velocity": 94}, {"time": 139211, "pitch": 61, "duration": 90, "velocity": 96}, {"time": 139530, "pitch": 61, "duration": 70, "velocity": 89}, {"time": 139690, "pitch": 73, "duration": 70, "velocity": 84}, {"time": 140009, "pitch": 73, "duration": 70, "velocity": 98}, {"time": 140168, "pitch": 61, "duration": 100, "velocity": 100}, {"time": 140966, "pitch": 73, "duration": 69, "velocity": 100}, {"time": 141125, "pitch": 61, "duration": 82, "velocity": 83}, {"time": 141452, "pitch": 61, "duration": 71, "velocity": 84}, {"time": 141615, "pitch": 73, "duration": 79, "velocity": 89}, {"time": 141944, "pitch": 73, "duration": 49, "velocity": 90}, {"time": 142093, "pitch": 61, "duration": 80, "velocity": 87}, {"time": 142412, "pitch": 61, "duration": 60, "velocity": 94}, {"time": 142890, "pitch": 73, "duration": 50, "velocity": 94}, {"time": 143050, "pitch": 61, "duration": 60, "velocity": 81}, {"time": 143369, "pitch": 61, "duration": 60, "velocity": 84}, {"time": 143528, "pitch": 73, "duration": 80, "velocity": 116}, {"time": 143847, "pitch": 73, "duration": 60, "velocity": 102}, {"time": 144007, "pitch": 61, "duration": 79, "velocity": 98}, {"time": 144812, "pitch": 73, "duration": 71, "velocity": 94}, {"time": 144985, "pitch": 61, "duration": 79, "velocity": 89}, {"time": 145294, "pitch": 61, "duration": 69, "velocity": 86}, {"time": 145453, "pitch": 73, "duration": 100, "velocity": 90}, {"time": 145772, "pitch": 73, "duration": 60, "velocity": 86}, {"time": 145931, "pitch": 61, "duration": 80, "velocity": 92}, {"time": 146250, "pitch": 61, "duration": 70, "velocity": 87}, {"time": 146729, "pitch": 68, "duration": 60, "velocity": 98}, {"time": 146888, "pitch": 56, "duration": 80, "velocity": 89}, {"time": 147207, "pitch": 56, "duration": 50, "velocity": 86}, {"time": 147367, "pitch": 68, "duration": 69, "velocity": 105}, {"time": 147686, "pitch": 68, "duration": 69, "velocity": 102}, {"time": 147845, "pitch": 56, "duration": 92, "velocity": 100}, {"time": 148654, "pitch": 68, "duration": 69, "velocity": 110}, {"time": 148823, "pitch": 56, "duration": 60, "velocity": 86}, {"time": 149132, "pitch": 56, "duration": 60, "velocity": 92}, {"time": 149291, "pitch": 68, "duration": 80, "velocity": 105}, {"time": 149610, "pitch": 68, "duration": 80, "velocity": 110}, {"time": 149770, "pitch": 56, "duration": 80, "velocity": 110}, {"time": 150567, "pitch": 73, "duration": 60, "velocity": 105}, {"time": 150737, "pitch": 61, "duration": 89, "velocity": 100}, {"time": 151046, "pitch": 61, "duration": 69, "velocity": 89}, {"time": 151205, "pitch": 73, "duration": 82, "velocity": 105}, {"time": 151532, "pitch": 73, "duration": 81, "velocity": 102}, {"time": 151705, "pitch": 61, "duration": 79, "velocity": 100}, {"time": 152492, "pitch": 73, "duration": 80, "velocity": 100}, {"time": 152651, "pitch": 61, "duration": 90, "velocity": 90}, {"time": 152970, "pitch": 61, "duration": 60, "velocity": 92}, {"time": 153130, "pitch": 73, "duration": 80, "velocity": 105}, {"time": 153449, "pitch": 73, "duration": 70, "velocity": 100}, {"time": 153608, "pitch": 61, "duration": 70, "velocity": 96}, {"time": 154406, "pitch": 73, "duration": 89, "velocity": 113}, {"time": 154565, "pitch": 61, "duration": 82, "velocity": 89}, {"time": 154881, "pitch": 61, "duration": 72, "velocity": 84}, {"time": 155055, "pitch": 73, "duration": 79, "velocity": 102}, {"time": 155374, "pitch": 73, "duration": 59, "velocity": 105}, {"time": 155533, "pitch": 61, "duration": 90, "velocity": 87}, {"time": 155852, "pitch": 61, "duration": 60, "velocity": 96}, {"time": 156330, "pitch": 73, "duration": 90, "velocity": 107}, {"time": 156490, "pitch": 61, "duration": 80, "velocity": 81}, {"time": 156819, "pitch": 61, "duration": 40, "velocity": 96}, {"time": 156968, "pitch": 73, "duration": 80, "velocity": 113}, {"time": 157287, "pitch": 73, "duration": 60, "velocity": 98}, {"time": 157447, "pitch": 61, "duration": 69, "velocity": 116}, {"time": 164027, "pitch": 44, "duration": 170, "velocity": 80}, {"time": 164197, "pitch": 46, "duration": 259, "velocity": 93}, {"time": 164515, "pitch": 56, "duration": 202, "velocity": 86}, {"time": 164666, "pitch": 52, "duration": 326, "velocity": 63}, {"time": 164992, "pitch": 49, "duration": 212, "velocity": 89}, {"time": 165164, "pitch": 46, "duration": 299, "velocity": 93}, {"time": 165952, "pitch": 49, "duration": 149, "velocity": 83}, {"time": 166121, "pitch": 49, "duration": 210, "velocity": 83}, {"time": 166590, "pitch": 53, "duration": 229, "velocity": 97}, {"time": 167078, "pitch": 56, "duration": 180, "velocity": 89}, {"time": 167557, "pitch": 56, "duration": 826, "velocity": 97}, {"time": 168352, "pitch": 68, "duration": 222, "velocity": 97}, {"time": 169312, "pitch": 49, "duration": 688, "velocity": 102}, {"time": 169950, "pitch": 53, "duration": 229, "velocity": 83}, {"time": 170438, "pitch": 56, "duration": 219, "velocity": 107}, {"time": 171235, "pitch": 56, "duration": 699, "velocity": 107}, {"time": 171875, "pitch": 51, "duration": 229, "velocity": 89}, {"time": 172353, "pitch": 56, "duration": 239, "velocity": 102}, {"time": 172841, "pitch": 58, "duration": 329, "velocity": 89}, {"time": 173310, "pitch": 54, "duration": 737, "velocity": 102}, {"time": 174117, "pitch": 66, "duration": 160, "velocity": 97}, {"time": 174595, "pitch": 54, "duration": 60, "velocity": 53}, {"time": 174746, "pitch": 58, "duration": 265, "velocity": 93}, {"time": 175244, "pitch": 61, "duration": 788, "velocity": 106}, {"time": 176032, "pitch": 61, "duration": 219, "velocity": 93}, {"time": 176989, "pitch": 56, "duration": 130, "velocity": 102}, {"time": 177627, "pitch": 56, "duration": 39, "velocity": 98}, {"time": 178106, "pitch": 56, "duration": 1266, "velocity": 102}, {"time": 179392, "pitch": 61, "duration": 159, "velocity": 97}, {"time": 179870, "pitch": 56, "duration": 100, "velocity": 59}, {"time": 180030, "pitch": 56, "duration": 319, "velocity": 93}, {"time": 180359, "pitch": 60, "duration": 179, "velocity": 62}, {"time": 180518, "pitch": 61, "duration": 259, "velocity": 93}, {"time": 180827, "pitch": 61, "duration": 199, "velocity": 86}, {"time": 180987, "pitch": 54, "duration": 744, "velocity": 102}, {"time": 181802, "pitch": 66, "duration": 162, "velocity": 97}, {"time": 182283, "pitch": 54, "duration": 60, "velocity": 53}, {"time": 182433, "pitch": 58, "duration": 259, "velocity": 93}, {"time": 182921, "pitch": 61, "duration": 239, "velocity": 102}, {"time": 183709, "pitch": 63, "duration": 717, "velocity": 93}, {"time": 184347, "pitch": 58, "duration": 318, "velocity": 86}, {"time": 184665, "pitch": 61, "duration": 150, "velocity": 57}, {"time": 184836, "pitch": 54, "duration": 797, "velocity": 97}, {"time": 185633, "pitch": 66, "duration": 160, "velocity": 83}, {"time": 186590, "pitch": 46, "duration": 90, "velocity": 72}, {"time": 186750, "pitch": 49, "duration": 249, "velocity": 93}, {"time": 187238, "pitch": 51, "duration": 189, "velocity": 97}, {"time": 187707, "pitch": 52, "duration": 249, "velocity": 107}, {"time": 188196, "pitch": 51, "duration": 469, "velocity": 97}, {"time": 188674, "pitch": 54, "duration": 738, "velocity": 102}, {"time": 189482, "pitch": 66, "duration": 159, "velocity": 97}, {"time": 189960, "pitch": 54, "duration": 60, "velocity": 53}, {"time": 190110, "pitch": 58, "duration": 259, "velocity": 93}, {"time": 190598, "pitch": 61, "duration": 239, "velocity": 102}, {"time": 191385, "pitch": 63, "duration": 729, "velocity": 93}, {"time": 192034, "pitch": 58, "duration": 319, "velocity": 86}, {"time": 192353, "pitch": 61, "duration": 150, "velocity": 57}, {"time": 192523, "pitch": 54, "duration": 787, "velocity": 97}, {"time": 193310, "pitch": 66, "duration": 160, "velocity": 83}, {"time": 194267, "pitch": 46, "duration": 90, "velocity": 72}, {"time": 194427, "pitch": 49, "duration": 249, "velocity": 93}, {"time": 194916, "pitch": 51, "duration": 194, "velocity": 97}, {"time": 195394, "pitch": 52, "duration": 250, "velocity": 107}, {"time": 195883, "pitch": 51, "duration": 458, "velocity": 97}, {"time": 196670, "pitch": 61, "duration": 200, "velocity": 77}, {"time": 196830, "pitch": 49, "duration": 249, "velocity": 77}, {"time": 197318, "pitch": 53, "duration": 249, "velocity": 97}, {"time": 197787, "pitch": 56, "duration": 219, "velocity": 89}, {"time": 198266, "pitch": 58, "duration": 867, "velocity": 102}, {"time": 199073, "pitch": 61, "duration": 210, "velocity": 93}, {"time": 200040, "pitch": 51, "duration": 658, "velocity": 106}, {"time": 200668, "pitch": 46, "duration": 209, "velocity": 106}, {"time": 201147, "pitch": 51, "duration": 795, "velocity": 102}, {"time": 202433, "pitch": 56, "duration": 130, "velocity": 70}, {"time": 202593, "pitch": 51, "duration": 219, "velocity": 89}, {"time": 203071, "pitch": 56, "duration": 329, "velocity": 97}, {"time": 203400, "pitch": 58, "duration": 160, "velocity": 75}, {"time": 203550, "pitch": 60, "duration": 309, "velocity": 77}, {"time": 203869, "pitch": 61, "duration": 179, "velocity": 93}, {"time": 204507, "pitch": 49, "duration": 479, "velocity": 102}, {"time": 205484, "pitch": 49, "duration": 439, "velocity": 106}, {"time": 206272, "pitch": 60, "duration": 169, "velocity": 86}, {"time": 206441, "pitch": 53, "duration": 349, "velocity": 77}, {"time": 206910, "pitch": 56, "duration": 269, "velocity": 93}, {"time": 207398, "pitch": 60, "duration": 349, "velocity": 97}, {"time": 207717, "pitch": 56, "duration": 120, "velocity": 70}, {"time": 208346, "pitch": 44, "duration": 397, "velocity": 102}, {"time": 209313, "pitch": 44, "duration": 279, "velocity": 97}, {"time": 209761, "pitch": 49, "duration": 279, "velocity": 97}, {"time": 210110, "pitch": 56, "duration": 170, "velocity": 80}, {"time": 210280, "pitch": 58, "duration": 259, "velocity": 93}, {"time": 210599, "pitch": 68, "duration": 199, "velocity": 86}, {"time": 210748, "pitch": 64, "duration": 319, "velocity": 63}, {"time": 211067, "pitch": 61, "duration": 209, "velocity": 89}, {"time": 211236, "pitch": 58, "duration": 299, "velocity": 93}, {"time": 212032, "pitch": 61, "duration": 153, "velocity": 72}, {"time": 212194, "pitch": 49, "duration": 240, "velocity": 80}, {"time": 212683, "pitch": 53, "duration": 199, "velocity": 107}, {"time": 213161, "pitch": 56, "duration": 180, "velocity": 97}, {"time": 213949, "pitch": 60, "duration": 169, "velocity": 86}, {"time": 214118, "pitch": 53, "duration": 349, "velocity": 77}, {"time": 214586, "pitch": 56, "duration": 270, "velocity": 93}, {"time": 215076, "pitch": 60, "duration": 357, "velocity": 97}, {"time": 215402, "pitch": 56, "duration": 123, "velocity": 70}, {"time": 216043, "pitch": 44, "duration": 219, "velocity": 98}, {"time": 216511, "pitch": 44, "duration": 917, "velocity": 102}, {"time": 217438, "pitch": 49, "duration": 219, "velocity": 98}, {"time": 218425, "pitch": 59, "duration": 266, "velocity": 97}, {"time": 218752, "pitch": 54, "duration": 182, "velocity": 80}, {"time": 218924, "pitch": 47, "duration": 250, "velocity": 89}, {"time": 219243, "pitch": 49, "duration": 459, "velocity": 102}, {"time": 223211, "pitch": 73, "duration": 120, "velocity": 100}, {"time": 223530, "pitch": 73, "duration": 100, "velocity": 108}, {"time": 223690, "pitch": 61, "duration": 70, "velocity": 76}, {"time": 223849, "pitch": 68, "duration": 90, "velocity": 84}, {"time": 224009, "pitch": 61, "duration": 109, "velocity": 87}, {"time": 224168, "pitch": 73, "duration": 100, "velocity": 106}, {"time": 224487, "pitch": 73, "duration": 110, "velocity": 110}, {"time": 224647, "pitch": 61, "duration": 89, "velocity": 76}, {"time": 224806, "pitch": 68, "duration": 80, "velocity": 82}, {"time": 224965, "pitch": 61, "duration": 90, "velocity": 82}, {"time": 225135, "pitch": 73, "duration": 82, "velocity": 97}, {"time": 225452, "pitch": 73, "duration": 91, "velocity": 99}, {"time": 225615, "pitch": 61, "duration": 99, "velocity": 86}, {"time": 225774, "pitch": 68, "duration": 80, "velocity": 82}, {"time": 225933, "pitch": 61, "duration": 90, "velocity": 78}, {"time": 226093, "pitch": 73, "duration": 100, "velocity": 97}, {"time": 226412, "pitch": 73, "duration": 100, "velocity": 102}, {"time": 226571, "pitch": 61, "duration": 80, "velocity": 78}, {"time": 226731, "pitch": 68, "duration": 99, "velocity": 84}, {"time": 226900, "pitch": 61, "duration": 90, "velocity": 76}, {"time": 227050, "pitch": 73, "duration": 99, "velocity": 97}, {"time": 227369, "pitch": 73, "duration": 109, "velocity": 97}, {"time": 227528, "pitch": 61, "duration": 90, "velocity": 77}, {"time": 227688, "pitch": 68, "duration": 99, "velocity": 89}, {"time": 227847, "pitch": 61, "duration": 90, "velocity": 86}, {"time": 228017, "pitch": 73, "duration": 89, "velocity": 104}, {"time": 228325, "pitch": 73, "duration": 100, "velocity": 104}, {"time": 228485, "pitch": 61, "duration": 92, "velocity": 83}, {"time": 228648, "pitch": 68, "duration": 102, "velocity": 84}, {"time": 228812, "pitch": 61, "duration": 91, "velocity": 88}, {"time": 228975, "pitch": 73, "duration": 119, "velocity": 99}, {"time": 229293, "pitch": 73, "duration": 100, "velocity": 110}, {"time": 229453, "pitch": 61, "duration": 70, "velocity": 80}, {"time": 229612, "pitch": 68, "duration": 100, "velocity": 89}, {"time": 229772, "pitch": 61, "duration": 90, "velocity": 91}, {"time": 229941, "pitch": 73, "duration": 90, "velocity": 99}, {"time": 230250, "pitch": 73, "duration": 100, "velocity": 110}, {"time": 230410, "pitch": 61, "duration": 79, "velocity": 82}, {"time": 230569, "pitch": 68, "duration": 100, "velocity": 91}, {"time": 230729, "pitch": 61, "duration": 50, "velocity": 96}, {"time": 230888, "pitch": 73, "duration": 120, "velocity": 100}, {"time": 231207, "pitch": 73, "duration": 100, "velocity": 108}, {"time": 231367, "pitch": 61, "duration": 69, "velocity": 76}, {"time": 231526, "pitch": 68, "duration": 80, "velocity": 84}, {"time": 231685, "pitch": 61, "duration": 110, "velocity": 87}, {"time": 231845, "pitch": 73, "duration": 102, "velocity": 106}, {"time": 232172, "pitch": 73, "duration": 122, "velocity": 110}, {"time": 232335, "pitch": 61, "duration": 89, "velocity": 76}, {"time": 232494, "pitch": 68, "duration": 80, "velocity": 82}, {"time": 232653, "pitch": 61, "duration": 90, "velocity": 82}, {"time": 232813, "pitch": 73, "duration": 90, "velocity": 97}, {"time": 233132, "pitch": 73, "duration": 90, "velocity": 99}, {"time": 233291, "pitch": 61, "duration": 110, "velocity": 86}, {"time": 233451, "pitch": 68, "duration": 80, "velocity": 82}, {"time": 233610, "pitch": 61, "duration": 100, "velocity": 78}, {"time": 233770, "pitch": 73, "duration": 89, "velocity": 97}, {"time": 234089, "pitch": 73, "duration": 109, "velocity": 102}, {"time": 234248, "pitch": 61, "duration": 80, "velocity": 78}, {"time": 234408, "pitch": 68, "duration": 109, "velocity": 84}, {"time": 234567, "pitch": 61, "duration": 100, "velocity": 76}, {"time": 234727, "pitch": 73, "duration": 99, "velocity": 97}, {"time": 235045, "pitch": 73, "duration": 100, "velocity": 97}, {"time": 235215, "pitch": 61, "duration": 92, "velocity": 77}, {"time": 235368, "pitch": 68, "duration": 92, "velocity": 89}, {"time": 235532, "pitch": 61, "duration": 91, "velocity": 86}, {"time": 235695, "pitch": 73, "duration": 99, "velocity": 104}, {"time": 236013, "pitch": 73, "duration": 110, "velocity": 104}, {"time": 236173, "pitch": 61, "duration": 90, "velocity": 83}, {"time": 236332, "pitch": 68, "duration": 110, "velocity": 84}, {"time": 236492, "pitch": 61, "duration": 80, "velocity": 88}, {"time": 236651, "pitch": 73, "duration": 120, "velocity": 99}, {"time": 236970, "pitch": 73, "duration": 100, "velocity": 110}, {"time": 237130, "pitch": 61, "duration": 69, "velocity": 80}, {"time": 237289, "pitch": 68, "duration": 110, "velocity": 89}, {"time": 237449, "pitch": 61, "duration": 89, "velocity": 91}, {"time": 237608, "pitch": 73, "duration": 100, "velocity": 99}, {"time": 237927, "pitch": 73, "duration": 100, "velocity": 110}, {"time": 238087, "pitch": 61, "duration": 79, "velocity": 82}, {"time": 238246, "pitch": 68, "duration": 100, "velocity": 91}, {"time": 238405, "pitch": 61, "duration": 50, "velocity": 96}]}]}