{"metadata": {"schema_version": "0.1", "title": "RWC-MDB-P-2001 No. 24: it's all right / Hisayoshi Kazato", "copyright": "RWC Music Database. Copyright (C) 2001 Real World Computing Partnership (contact: Masataka GOTO <m.goto@aist.go.jp>)", "source_filename": "RM-P024.SMF_SYNC.MID", "source_format": "midi"}, "resolution": 480, "tempos": [{"time": 0, "qpm": 44.11764705882353}, {"time": 480, "qpm": 130.43478260869566}, {"time": 1440, "qpm": 127.65957446808511}, {"time": 1920, "qpm": 130.43478260869566}, {"time": 4800, "qpm": 127.65957446808511}, {"time": 5280, "qpm": 130.43478260869566}, {"time": 7680, "qpm": 127.65957446808511}, {"time": 8160, "qpm": 130.43478260869566}, {"time": 11040, "qpm": 127.65957446808511}, {"time": 11520, "qpm": 130.43478260869566}, {"time": 13920, "qpm": 127.65957446808511}, {"time": 14400, "qpm": 130.43478260869566}, {"time": 17280, "qpm": 127.65957446808511}, {"time": 17760, "qpm": 130.43478260869566}, {"time": 20160, "qpm": 127.65957446808511}, {"time": 20640, "qpm": 130.43478260869566}, {"time": 23040, "qpm": 127.65957446808511}, {"time": 23520, "qpm": 130.43478260869566}, {"time": 26400, "qpm": 127.65957446808511}, {"time": 26880, "qpm": 130.43478260869566}, {"time": 29760, "qpm": 127.65957446808511}, {"time": 30240, "qpm": 130.43478260869566}, {"time": 32640, "qpm": 127.65957446808511}, {"time": 33120, "qpm": 130.43478260869566}, {"time": 36000, "qpm": 127.65957446808511}, {"time": 36480, "qpm": 130.43478260869566}, {"time": 38880, "qpm": 127.65957446808511}, {"time": 39360, "qpm": 130.43478260869566}, {"time": 42240, "qpm": 127.65957446808511}, {"time": 42720, "qpm": 130.43478260869566}, {"time": 45120, "qpm": 127.65957446808511}, {"time": 45600, "qpm": 130.43478260869566}, {"time": 48000, "qpm": 127.65957446808511}, {"time": 48480, "qpm": 130.43478260869566}, {"time": 51360, "qpm": 127.65957446808511}, {"time": 51840, "qpm": 130.43478260869566}, {"time": 54720, "qpm": 127.65957446808511}, {"time": 55200, "qpm": 130.43478260869566}, {"time": 57600, "qpm": 127.65957446808511}, {"time": 58080, "qpm": 130.43478260869566}, {"time": 60960, "qpm": 127.65957446808511}, {"time": 61440, "qpm": 130.43478260869566}, {"time": 63840, "qpm": 127.65957446808511}, {"time": 64320, "qpm": 130.43478260869566}, {"time": 67200, "qpm": 127.65957446808511}, {"time": 67680, "qpm": 130.43478260869566}, {"time": 70080, "qpm": 127.65957446808511}, {"time": 70560, "qpm": 130.43478260869566}, {"time": 72960, "qpm": 127.65957446808511}, {"time": 73440, "qpm": 130.43478260869566}, {"time": 76320, "qpm": 127.65957446808511}, {"time": 76800, "qpm": 130.43478260869566}, {"time": 79680, "qpm": 127.65957446808511}, {"time": 80160, "qpm": 130.43478260869566}, {"time": 82560, "qpm": 127.65957446808511}, {"time": 83040, "qpm": 130.43478260869566}, {"time": 85920, "qpm": 127.65957446808511}, {"time": 86400, "qpm": 130.43478260869566}, {"time": 88800, "qpm": 127.65957446808511}, {"time": 89280, "qpm": 130.43478260869566}, {"time": 92160, "qpm": 127.65957446808511}, {"time": 92640, "qpm": 130.43478260869566}, {"time": 95040, "qpm": 127.65957446808511}, {"time": 95520, "qpm": 130.43478260869566}, {"time": 97920, "qpm": 127.65957446808511}, {"time": 98400, "qpm": 130.43478260869566}, {"time": 101280, "qpm": 127.65957446808511}, {"time": 101760, "qpm": 130.43478260869566}, {"time": 104640, "qpm": 127.65957446808511}, {"time": 105120, "qpm": 130.43478260869566}, {"time": 107520, "qpm": 127.65957446808511}, {"time": 108000, "qpm": 130.43478260869566}, {"time": 110880, "qpm": 127.65957446808511}, {"time": 111360, "qpm": 130.43478260869566}, {"time": 113760, "qpm": 127.65957446808511}, {"time": 114240, "qpm": 130.43478260869566}, {"time": 117120, "qpm": 127.65957446808511}, {"time": 117600, "qpm": 130.43478260869566}, {"time": 120000, "qpm": 127.65957446808511}, {"time": 120480, "qpm": 130.43478260869566}, {"time": 122880, "qpm": 127.65957446808511}, {"time": 123360, "qpm": 130.43478260869566}, {"time": 126240, "qpm": 127.65957446808511}, {"time": 126720, "qpm": 130.43478260869566}, {"time": 129600, "qpm": 127.65957446808511}, {"time": 130080, "qpm": 130.43478260869566}, {"time": 132480, "qpm": 127.65957446808511}, {"time": 132960, "qpm": 130.43478260869566}, {"time": 135840, "qpm": 127.65957446808511}, {"time": 136320, "qpm": 130.43478260869566}, {"time": 138720, "qpm": 127.65957446808511}, {"time": 139200, "qpm": 130.43478260869566}, {"time": 142080, "qpm": 127.65957446808511}, {"time": 142560, "qpm": 130.43478260869566}, {"time": 144960, "qpm": 127.65957446808511}, {"time": 145440, "qpm": 130.43478260869566}, {"time": 147840, "qpm": 127.65957446808511}, {"time": 148320, "qpm": 130.43478260869566}, {"time": 151200, "qpm": 127.65957446808511}, {"time": 151680, "qpm": 130.43478260869566}, {"time": 154560, "qpm": 127.65957446808511}, {"time": 155040, "qpm": 130.43478260869566}, {"time": 157440, "qpm": 127.65957446808511}, {"time": 157920, "qpm": 130.43478260869566}, {"time": 160800, "qpm": 127.65957446808511}, {"time": 161280, "qpm": 130.43478260869566}, {"time": 163680, "qpm": 127.65957446808511}, {"time": 164160, "qpm": 130.43478260869566}, {"time": 167040, "qpm": 127.65957446808511}, {"time": 167520, "qpm": 130.43478260869566}, {"time": 169920, "qpm": 127.65957446808511}, {"time": 170400, "qpm": 130.43478260869566}, {"time": 172800, "qpm": 127.65957446808511}, {"time": 173280, "qpm": 130.43478260869566}, {"time": 176160, "qpm": 127.65957446808511}, {"time": 176640, "qpm": 130.43478260869566}, {"time": 179520, "qpm": 127.65957446808511}, {"time": 180000, "qpm": 130.43478260869566}, {"time": 182400, "qpm": 127.65957446808511}, {"time": 182880, "qpm": 130.43478260869566}, {"time": 185760, "qpm": 127.65957446808511}, {"time": 186240, "qpm": 130.43478260869566}, {"time": 188640, "qpm": 127.65957446808511}, {"time": 189120, "qpm": 130.43478260869566}, {"time": 192000, "qpm": 127.65957446808511}, {"time": 192480, "qpm": 130.43478260869566}, {"time": 194880, "qpm": 127.65957446808511}, {"time": 195360, "qpm": 130.43478260869566}, {"time": 197760, "qpm": 127.65957446808511}, {"time": 198240, "qpm": 130.43478260869566}, {"time": 201120, "qpm": 127.65957446808511}, {"time": 201600, "qpm": 130.43478260869566}, {"time": 204480, "qpm": 127.65957446808511}, {"time": 204960, "qpm": 130.43478260869566}, {"time": 207360, "qpm": 127.65957446808511}, {"time": 207840, "qpm": 130.43478260869566}, {"time": 210720, "qpm": 127.65957446808511}, {"time": 211200, "qpm": 130.43478260869566}, {"time": 213600, "qpm": 127.65957446808511}, {"time": 214080, "qpm": 130.43478260869566}, {"time": 216960, "qpm": 127.65957446808511}, {"time": 217440, "qpm": 130.43478260869566}, {"time": 219840, "qpm": 127.65957446808511}, {"time": 220320, "qpm": 130.43478260869566}, {"time": 222720, "qpm": 127.65957446808511}, {"time": 223200, "qpm": 130.43478260869566}, {"time": 226080, "qpm": 127.65957446808511}, {"time": 226560, "qpm": 130.43478260869566}, {"time": 229440, "qpm": 127.65957446808511}, {"time": 229920, "qpm": 130.43478260869566}, {"time": 232320, "qpm": 127.65957446808511}, {"time": 232800, "qpm": 130.43478260869566}, {"time": 235680, "qpm": 127.65957446808511}, {"time": 236160, "qpm": 130.43478260869566}, {"time": 238560, "qpm": 127.65957446808511}, {"time": 239040, "qpm": 130.43478260869566}, {"time": 241920, "qpm": 127.65957446808511}, {"time": 242400, "qpm": 130.43478260869566}], "key_signatures": [{"time": 0, "root": 0, "mode": "major"}], "time_signatures": [{"time": 0, "numerator": 2, "denominator": 4}, {"time": 960, "numerator": 4, "denominator": 4}], "tracks": [{"program": 0, "is_drum": false, "name": "Piano", "notes": [{"time": 721, "pitch": 44, "duration": 811, "velocity": 110}, {"time": 721, "pitch": 55, "duration": 392, "velocity": 116}, {"time": 721, "pitch": 60, "duration": 402, "velocity": 107}, {"time": 721, "pitch": 63, "duration": 392, "velocity": 107}, {"time": 1203, "pitch": 55, "duration": 70, "velocity": 107}, {"time": 1203, "pitch": 60, "duration": 70, "velocity": 100}, {"time": 1203, "pitch": 63, "duration": 60, "velocity": 100}, {"time": 1444, "pitch": 55, "duration": 294, "velocity": 116}, {"time": 1444, "pitch": 60, "duration": 294, "velocity": 107}, {"time": 1444, "pitch": 63, "duration": 294, "velocity": 110}, {"time": 1679, "pitch": 44, "duration": 567, "velocity": 107}, {"time": 1915, "pitch": 55, "duration": 70, "velocity": 107}, {"time": 1915, "pitch": 60, "duration": 60, "velocity": 100}, {"time": 1915, "pitch": 63, "duration": 50, "velocity": 102}, {"time": 2156, "pitch": 55, "duration": 331, "velocity": 116}, {"time": 2156, "pitch": 60, "duration": 331, "velocity": 107}, {"time": 2156, "pitch": 63, "duration": 341, "velocity": 107}, {"time": 2397, "pitch": 44, "duration": 230, "velocity": 105}, {"time": 2637, "pitch": 46, "duration": 813, "velocity": 91}, {"time": 2637, "pitch": 56, "duration": 392, "velocity": 122}, {"time": 2637, "pitch": 60, "duration": 392, "velocity": 116}, {"time": 2637, "pitch": 63, "duration": 392, "velocity": 110}, {"time": 3119, "pitch": 56, "duration": 80, "velocity": 100}, {"time": 3119, "pitch": 60, "duration": 70, "velocity": 95}, {"time": 3119, "pitch": 63, "duration": 70, "velocity": 100}, {"time": 3360, "pitch": 56, "duration": 301, "velocity": 119}, {"time": 3360, "pitch": 60, "duration": 301, "velocity": 110}, {"time": 3360, "pitch": 63, "duration": 291, "velocity": 107}, {"time": 3601, "pitch": 46, "duration": 571, "velocity": 105}, {"time": 3841, "pitch": 56, "duration": 81, "velocity": 107}, {"time": 3841, "pitch": 60, "duration": 81, "velocity": 102}, {"time": 3841, "pitch": 63, "duration": 81, "velocity": 102}, {"time": 4082, "pitch": 56, "duration": 331, "velocity": 116}, {"time": 4082, "pitch": 60, "duration": 341, "velocity": 107}, {"time": 4082, "pitch": 63, "duration": 341, "velocity": 110}, {"time": 4323, "pitch": 46, "duration": 241, "velocity": 110}, {"time": 4564, "pitch": 43, "duration": 822, "velocity": 105}, {"time": 4564, "pitch": 53, "duration": 368, "velocity": 107}, {"time": 4564, "pitch": 58, "duration": 378, "velocity": 113}, {"time": 4564, "pitch": 62, "duration": 368, "velocity": 102}, {"time": 5040, "pitch": 53, "duration": 69, "velocity": 102}, {"time": 5040, "pitch": 58, "duration": 69, "velocity": 102}, {"time": 5040, "pitch": 62, "duration": 98, "velocity": 87}, {"time": 5276, "pitch": 53, "duration": 301, "velocity": 116}, {"time": 5276, "pitch": 58, "duration": 311, "velocity": 116}, {"time": 5276, "pitch": 62, "duration": 301, "velocity": 107}, {"time": 5516, "pitch": 43, "duration": 592, "velocity": 105}, {"time": 5757, "pitch": 53, "duration": 70, "velocity": 110}, {"time": 5757, "pitch": 58, "duration": 70, "velocity": 105}, {"time": 5757, "pitch": 62, "duration": 91, "velocity": 91}, {"time": 5998, "pitch": 53, "duration": 321, "velocity": 107}, {"time": 5998, "pitch": 58, "duration": 321, "velocity": 107}, {"time": 5998, "pitch": 62, "duration": 321, "velocity": 105}, {"time": 6239, "pitch": 43, "duration": 130, "velocity": 105}, {"time": 6480, "pitch": 48, "duration": 762, "velocity": 100}, {"time": 6480, "pitch": 53, "duration": 361, "velocity": 122}, {"time": 6480, "pitch": 58, "duration": 371, "velocity": 116}, {"time": 6480, "pitch": 62, "duration": 361, "velocity": 105}, {"time": 6961, "pitch": 53, "duration": 70, "velocity": 110}, {"time": 6961, "pitch": 58, "duration": 50, "velocity": 89}, {"time": 6961, "pitch": 62, "duration": 90, "velocity": 89}, {"time": 7202, "pitch": 53, "duration": 311, "velocity": 113}, {"time": 7202, "pitch": 58, "duration": 311, "velocity": 116}, {"time": 7202, "pitch": 62, "duration": 321, "velocity": 105}, {"time": 7443, "pitch": 48, "duration": 632, "velocity": 107}, {"time": 7684, "pitch": 52, "duration": 130, "velocity": 113}, {"time": 7684, "pitch": 58, "duration": 110, "velocity": 107}, {"time": 7684, "pitch": 62, "duration": 130, "velocity": 102}, {"time": 7924, "pitch": 52, "duration": 261, "velocity": 119}, {"time": 7924, "pitch": 58, "duration": 271, "velocity": 110}, {"time": 7924, "pitch": 62, "duration": 271, "velocity": 105}, {"time": 8165, "pitch": 48, "duration": 216, "velocity": 110}, {"time": 8401, "pitch": 44, "duration": 807, "velocity": 110}, {"time": 8401, "pitch": 55, "duration": 386, "velocity": 116}, {"time": 8401, "pitch": 60, "duration": 396, "velocity": 107}, {"time": 8401, "pitch": 63, "duration": 386, "velocity": 107}, {"time": 8877, "pitch": 55, "duration": 70, "velocity": 107}, {"time": 8877, "pitch": 60, "duration": 70, "velocity": 100}, {"time": 8877, "pitch": 63, "duration": 60, "velocity": 100}, {"time": 9118, "pitch": 55, "duration": 301, "velocity": 116}, {"time": 9118, "pitch": 60, "duration": 301, "velocity": 107}, {"time": 9118, "pitch": 63, "duration": 301, "velocity": 110}, {"time": 9359, "pitch": 44, "duration": 572, "velocity": 107}, {"time": 9599, "pitch": 55, "duration": 71, "velocity": 107}, {"time": 9599, "pitch": 60, "duration": 61, "velocity": 100}, {"time": 9599, "pitch": 63, "duration": 51, "velocity": 102}, {"time": 9840, "pitch": 55, "duration": 331, "velocity": 116}, {"time": 9840, "pitch": 60, "duration": 331, "velocity": 107}, {"time": 9840, "pitch": 63, "duration": 341, "velocity": 107}, {"time": 10081, "pitch": 44, "duration": 231, "velocity": 105}, {"time": 10322, "pitch": 46, "duration": 811, "velocity": 91}, {"time": 10322, "pitch": 56, "duration": 391, "velocity": 122}, {"time": 10322, "pitch": 60, "duration": 391, "velocity": 116}, {"time": 10322, "pitch": 63, "duration": 391, "velocity": 110}, {"time": 10803, "pitch": 56, "duration": 81, "velocity": 100}, {"time": 10803, "pitch": 60, "duration": 71, "velocity": 95}, {"time": 10803, "pitch": 63, "duration": 71, "velocity": 100}, {"time": 11044, "pitch": 56, "duration": 295, "velocity": 119}, {"time": 11044, "pitch": 60, "duration": 295, "velocity": 110}, {"time": 11044, "pitch": 63, "duration": 285, "velocity": 107}, {"time": 11280, "pitch": 46, "duration": 566, "velocity": 105}, {"time": 11515, "pitch": 56, "duration": 81, "velocity": 107}, {"time": 11515, "pitch": 60, "duration": 81, "velocity": 102}, {"time": 11515, "pitch": 63, "duration": 81, "velocity": 102}, {"time": 11756, "pitch": 56, "duration": 331, "velocity": 116}, {"time": 11756, "pitch": 60, "duration": 341, "velocity": 107}, {"time": 11756, "pitch": 63, "duration": 341, "velocity": 110}, {"time": 11997, "pitch": 46, "duration": 241, "velocity": 110}, {"time": 12238, "pitch": 43, "duration": 832, "velocity": 105}, {"time": 12238, "pitch": 53, "duration": 371, "velocity": 107}, {"time": 12238, "pitch": 58, "duration": 381, "velocity": 113}, {"time": 12238, "pitch": 62, "duration": 371, "velocity": 102}, {"time": 12719, "pitch": 53, "duration": 71, "velocity": 102}, {"time": 12719, "pitch": 58, "duration": 71, "velocity": 102}, {"time": 12719, "pitch": 62, "duration": 101, "velocity": 87}, {"time": 12960, "pitch": 53, "duration": 301, "velocity": 116}, {"time": 12960, "pitch": 58, "duration": 311, "velocity": 116}, {"time": 12960, "pitch": 62, "duration": 301, "velocity": 107}, {"time": 13201, "pitch": 43, "duration": 592, "velocity": 105}, {"time": 13442, "pitch": 53, "duration": 70, "velocity": 110}, {"time": 13442, "pitch": 58, "duration": 70, "velocity": 105}, {"time": 13442, "pitch": 62, "duration": 90, "velocity": 91}, {"time": 13683, "pitch": 53, "duration": 321, "velocity": 107}, {"time": 13683, "pitch": 58, "duration": 321, "velocity": 107}, {"time": 13683, "pitch": 62, "duration": 321, "velocity": 105}, {"time": 13923, "pitch": 43, "duration": 131, "velocity": 105}, {"time": 14164, "pitch": 48, "duration": 752, "velocity": 100}, {"time": 14164, "pitch": 53, "duration": 359, "velocity": 122}, {"time": 14164, "pitch": 58, "duration": 368, "velocity": 116}, {"time": 14164, "pitch": 62, "duration": 359, "velocity": 105}, {"time": 14640, "pitch": 53, "duration": 69, "velocity": 110}, {"time": 14640, "pitch": 58, "duration": 50, "velocity": 89}, {"time": 14640, "pitch": 62, "duration": 89, "velocity": 89}, {"time": 14876, "pitch": 53, "duration": 311, "velocity": 113}, {"time": 14876, "pitch": 58, "duration": 311, "velocity": 116}, {"time": 14876, "pitch": 62, "duration": 321, "velocity": 105}, {"time": 15117, "pitch": 48, "duration": 632, "velocity": 107}, {"time": 15358, "pitch": 52, "duration": 130, "velocity": 113}, {"time": 15358, "pitch": 58, "duration": 110, "velocity": 107}, {"time": 15358, "pitch": 62, "duration": 130, "velocity": 102}, {"time": 15598, "pitch": 52, "duration": 261, "velocity": 119}, {"time": 15598, "pitch": 58, "duration": 271, "velocity": 110}, {"time": 15598, "pitch": 62, "duration": 271, "velocity": 105}, {"time": 15839, "pitch": 48, "duration": 221, "velocity": 110}, {"time": 16080, "pitch": 41, "duration": 853, "velocity": 95}, {"time": 16080, "pitch": 56, "duration": 321, "velocity": 116}, {"time": 16080, "pitch": 60, "duration": 331, "velocity": 116}, {"time": 16080, "pitch": 63, "duration": 321, "velocity": 105}, {"time": 16562, "pitch": 56, "duration": 70, "velocity": 107}, {"time": 16562, "pitch": 60, "duration": 70, "velocity": 113}, {"time": 16562, "pitch": 63, "duration": 70, "velocity": 105}, {"time": 16802, "pitch": 56, "duration": 291, "velocity": 122}, {"time": 16802, "pitch": 60, "duration": 301, "velocity": 122}, {"time": 16802, "pitch": 63, "duration": 281, "velocity": 110}, {"time": 17043, "pitch": 41, "duration": 221, "velocity": 102}, {"time": 17284, "pitch": 41, "duration": 265, "velocity": 105}, {"time": 17284, "pitch": 56, "duration": 108, "velocity": 107}, {"time": 17284, "pitch": 60, "duration": 98, "velocity": 110}, {"time": 17284, "pitch": 63, "duration": 98, "velocity": 102}, {"time": 17520, "pitch": 43, "duration": 216, "velocity": 89}, {"time": 17520, "pitch": 56, "duration": 235, "velocity": 122}, {"time": 17520, "pitch": 60, "duration": 255, "velocity": 119}, {"time": 17520, "pitch": 63, "duration": 235, "velocity": 105}, {"time": 17755, "pitch": 44, "duration": 231, "velocity": 82}, {"time": 17996, "pitch": 46, "duration": 251, "velocity": 122}, {"time": 17996, "pitch": 56, "duration": 191, "velocity": 122}, {"time": 17996, "pitch": 60, "duration": 201, "velocity": 127}, {"time": 17996, "pitch": 63, "duration": 201, "velocity": 113}, {"time": 18718, "pitch": 46, "duration": 1395, "velocity": 113}, {"time": 18718, "pitch": 56, "duration": 1355, "velocity": 119}, {"time": 18718, "pitch": 60, "duration": 1365, "velocity": 122}, {"time": 18718, "pitch": 63, "duration": 1325, "velocity": 119}, {"time": 20163, "pitch": 39, "duration": 341, "velocity": 100}, {"time": 20404, "pitch": 49, "duration": 250, "velocity": 105}, {"time": 20404, "pitch": 55, "duration": 270, "velocity": 102}, {"time": 20404, "pitch": 58, "duration": 260, "velocity": 107}, {"time": 20645, "pitch": 39, "duration": 157, "velocity": 98}, {"time": 20766, "pitch": 51, "duration": 256, "velocity": 105}, {"time": 20766, "pitch": 55, "duration": 265, "velocity": 107}, {"time": 20766, "pitch": 60, "duration": 246, "velocity": 105}, {"time": 21002, "pitch": 39, "duration": 128, "velocity": 102}, {"time": 21116, "pitch": 51, "duration": 772, "velocity": 107}, {"time": 21116, "pitch": 55, "duration": 782, "velocity": 105}, {"time": 21116, "pitch": 61, "duration": 782, "velocity": 113}, {"time": 21357, "pitch": 39, "duration": 210, "velocity": 107}, {"time": 21838, "pitch": 39, "duration": 151, "velocity": 98}, {"time": 22079, "pitch": 39, "duration": 281, "velocity": 113}, {"time": 22320, "pitch": 49, "duration": 241, "velocity": 105}, {"time": 22320, "pitch": 55, "duration": 271, "velocity": 102}, {"time": 22320, "pitch": 58, "duration": 241, "velocity": 105}, {"time": 22561, "pitch": 39, "duration": 190, "velocity": 102}, {"time": 22685, "pitch": 51, "duration": 251, "velocity": 113}, {"time": 22685, "pitch": 55, "duration": 261, "velocity": 105}, {"time": 22685, "pitch": 60, "duration": 231, "velocity": 107}, {"time": 22926, "pitch": 39, "duration": 160, "velocity": 105}, {"time": 23042, "pitch": 49, "duration": 301, "velocity": 110}, {"time": 23042, "pitch": 54, "duration": 311, "velocity": 107}, {"time": 23042, "pitch": 58, "duration": 301, "velocity": 107}, {"time": 23283, "pitch": 39, "duration": 241, "velocity": 102}, {"time": 23524, "pitch": 49, "duration": 314, "velocity": 110}, {"time": 23524, "pitch": 54, "duration": 324, "velocity": 110}, {"time": 23524, "pitch": 58, "duration": 314, "velocity": 107}, {"time": 23759, "pitch": 39, "duration": 177, "velocity": 105}, {"time": 23995, "pitch": 39, "duration": 341, "velocity": 100}, {"time": 24236, "pitch": 49, "duration": 250, "velocity": 105}, {"time": 24236, "pitch": 55, "duration": 271, "velocity": 102}, {"time": 24236, "pitch": 58, "duration": 261, "velocity": 107}, {"time": 24476, "pitch": 39, "duration": 161, "velocity": 98}, {"time": 24601, "pitch": 51, "duration": 261, "velocity": 105}, {"time": 24601, "pitch": 55, "duration": 271, "velocity": 107}, {"time": 24601, "pitch": 60, "duration": 251, "velocity": 105}, {"time": 24842, "pitch": 39, "duration": 130, "velocity": 102}, {"time": 24958, "pitch": 51, "duration": 773, "velocity": 107}, {"time": 24958, "pitch": 55, "duration": 783, "velocity": 105}, {"time": 24958, "pitch": 61, "duration": 783, "velocity": 113}, {"time": 25199, "pitch": 39, "duration": 211, "velocity": 107}, {"time": 25680, "pitch": 39, "duration": 151, "velocity": 98}, {"time": 25921, "pitch": 39, "duration": 281, "velocity": 113}, {"time": 26162, "pitch": 49, "duration": 241, "velocity": 105}, {"time": 26162, "pitch": 55, "duration": 271, "velocity": 102}, {"time": 26162, "pitch": 58, "duration": 241, "velocity": 105}, {"time": 26403, "pitch": 39, "duration": 190, "velocity": 102}, {"time": 26527, "pitch": 51, "duration": 251, "velocity": 113}, {"time": 26527, "pitch": 55, "duration": 261, "velocity": 105}, {"time": 26527, "pitch": 60, "duration": 231, "velocity": 107}, {"time": 26768, "pitch": 39, "duration": 159, "velocity": 105}, {"time": 26884, "pitch": 49, "duration": 295, "velocity": 110}, {"time": 26884, "pitch": 54, "duration": 305, "velocity": 107}, {"time": 26884, "pitch": 58, "duration": 295, "velocity": 107}, {"time": 27120, "pitch": 39, "duration": 236, "velocity": 102}, {"time": 27356, "pitch": 49, "duration": 321, "velocity": 110}, {"time": 27356, "pitch": 54, "duration": 331, "velocity": 110}, {"time": 27356, "pitch": 58, "duration": 321, "velocity": 107}, {"time": 27596, "pitch": 39, "duration": 181, "velocity": 105}, {"time": 27837, "pitch": 39, "duration": 341, "velocity": 100}, {"time": 28078, "pitch": 49, "duration": 251, "velocity": 105}, {"time": 28078, "pitch": 55, "duration": 271, "velocity": 102}, {"time": 28078, "pitch": 58, "duration": 261, "velocity": 107}, {"time": 28319, "pitch": 39, "duration": 160, "velocity": 98}, {"time": 28443, "pitch": 51, "duration": 261, "velocity": 105}, {"time": 28443, "pitch": 55, "duration": 271, "velocity": 107}, {"time": 28443, "pitch": 60, "duration": 251, "velocity": 105}, {"time": 28684, "pitch": 39, "duration": 130, "velocity": 102}, {"time": 28800, "pitch": 51, "duration": 773, "velocity": 107}, {"time": 28800, "pitch": 55, "duration": 783, "velocity": 105}, {"time": 28800, "pitch": 61, "duration": 783, "velocity": 113}, {"time": 29041, "pitch": 39, "duration": 211, "velocity": 107}, {"time": 29523, "pitch": 39, "duration": 150, "velocity": 98}, {"time": 29763, "pitch": 39, "duration": 281, "velocity": 113}, {"time": 30004, "pitch": 49, "duration": 241, "velocity": 105}, {"time": 30004, "pitch": 55, "duration": 270, "velocity": 102}, {"time": 30004, "pitch": 58, "duration": 241, "velocity": 105}, {"time": 30245, "pitch": 39, "duration": 186, "velocity": 102}, {"time": 30367, "pitch": 51, "duration": 245, "velocity": 113}, {"time": 30367, "pitch": 55, "duration": 255, "velocity": 105}, {"time": 30367, "pitch": 60, "duration": 226, "velocity": 107}, {"time": 30602, "pitch": 39, "duration": 158, "velocity": 105}, {"time": 30716, "pitch": 49, "duration": 301, "velocity": 110}, {"time": 30716, "pitch": 54, "duration": 311, "velocity": 107}, {"time": 30716, "pitch": 58, "duration": 301, "velocity": 107}, {"time": 30957, "pitch": 39, "duration": 241, "velocity": 102}, {"time": 31198, "pitch": 49, "duration": 321, "velocity": 110}, {"time": 31198, "pitch": 54, "duration": 331, "velocity": 110}, {"time": 31198, "pitch": 58, "duration": 321, "velocity": 107}, {"time": 31439, "pitch": 39, "duration": 180, "velocity": 105}, {"time": 31679, "pitch": 39, "duration": 341, "velocity": 100}, {"time": 31920, "pitch": 49, "duration": 251, "velocity": 105}, {"time": 31920, "pitch": 55, "duration": 271, "velocity": 102}, {"time": 31920, "pitch": 58, "duration": 261, "velocity": 107}, {"time": 32161, "pitch": 39, "duration": 160, "velocity": 98}, {"time": 32285, "pitch": 51, "duration": 261, "velocity": 105}, {"time": 32285, "pitch": 55, "duration": 271, "velocity": 107}, {"time": 32285, "pitch": 60, "duration": 251, "velocity": 105}, {"time": 32526, "pitch": 39, "duration": 131, "velocity": 102}, {"time": 32643, "pitch": 51, "duration": 766, "velocity": 107}, {"time": 32643, "pitch": 55, "duration": 776, "velocity": 105}, {"time": 32643, "pitch": 61, "duration": 776, "velocity": 113}, {"time": 32883, "pitch": 39, "duration": 211, "velocity": 107}, {"time": 33360, "pitch": 39, "duration": 147, "velocity": 98}, {"time": 33595, "pitch": 39, "duration": 281, "velocity": 113}, {"time": 33836, "pitch": 49, "duration": 241, "velocity": 105}, {"time": 33836, "pitch": 55, "duration": 271, "velocity": 102}, {"time": 33836, "pitch": 58, "duration": 241, "velocity": 105}, {"time": 34077, "pitch": 39, "duration": 190, "velocity": 102}, {"time": 34201, "pitch": 51, "duration": 251, "velocity": 113}, {"time": 34201, "pitch": 55, "duration": 261, "velocity": 105}, {"time": 34201, "pitch": 60, "duration": 231, "velocity": 107}, {"time": 34442, "pitch": 39, "duration": 161, "velocity": 105}, {"time": 34558, "pitch": 49, "duration": 301, "velocity": 110}, {"time": 34558, "pitch": 54, "duration": 311, "velocity": 107}, {"time": 34558, "pitch": 58, "duration": 301, "velocity": 107}, {"time": 34799, "pitch": 39, "duration": 241, "velocity": 102}, {"time": 35040, "pitch": 49, "duration": 321, "velocity": 110}, {"time": 35040, "pitch": 54, "duration": 331, "velocity": 110}, {"time": 35040, "pitch": 58, "duration": 321, "velocity": 107}, {"time": 35281, "pitch": 39, "duration": 180, "velocity": 105}, {"time": 35522, "pitch": 39, "duration": 341, "velocity": 100}, {"time": 35762, "pitch": 49, "duration": 251, "velocity": 105}, {"time": 35762, "pitch": 55, "duration": 271, "velocity": 102}, {"time": 35762, "pitch": 58, "duration": 261, "velocity": 107}, {"time": 36003, "pitch": 39, "duration": 161, "velocity": 98}, {"time": 36128, "pitch": 51, "duration": 260, "velocity": 105}, {"time": 36128, "pitch": 55, "duration": 270, "velocity": 107}, {"time": 36128, "pitch": 60, "duration": 250, "velocity": 105}, {"time": 36368, "pitch": 39, "duration": 130, "velocity": 102}, {"time": 36485, "pitch": 51, "duration": 762, "velocity": 107}, {"time": 36485, "pitch": 55, "duration": 772, "velocity": 105}, {"time": 36485, "pitch": 61, "duration": 772, "velocity": 113}, {"time": 36720, "pitch": 39, "duration": 207, "velocity": 107}, {"time": 37197, "pitch": 39, "duration": 150, "velocity": 98}, {"time": 37437, "pitch": 39, "duration": 281, "velocity": 113}, {"time": 37678, "pitch": 49, "duration": 241, "velocity": 105}, {"time": 37678, "pitch": 55, "duration": 271, "velocity": 102}, {"time": 37678, "pitch": 58, "duration": 241, "velocity": 105}, {"time": 37919, "pitch": 39, "duration": 191, "velocity": 102}, {"time": 38043, "pitch": 51, "duration": 251, "velocity": 113}, {"time": 38043, "pitch": 55, "duration": 261, "velocity": 105}, {"time": 38043, "pitch": 60, "duration": 231, "velocity": 107}, {"time": 38284, "pitch": 39, "duration": 161, "velocity": 105}, {"time": 38401, "pitch": 49, "duration": 301, "velocity": 110}, {"time": 38401, "pitch": 54, "duration": 311, "velocity": 107}, {"time": 38401, "pitch": 58, "duration": 301, "velocity": 107}, {"time": 38641, "pitch": 39, "duration": 241, "velocity": 102}, {"time": 38882, "pitch": 49, "duration": 221, "velocity": 110}, {"time": 38882, "pitch": 54, "duration": 231, "velocity": 110}, {"time": 38882, "pitch": 58, "duration": 221, "velocity": 107}, {"time": 39123, "pitch": 42, "duration": 457, "velocity": 105}, {"time": 39123, "pitch": 58, "duration": 575, "velocity": 116}, {"time": 39123, "pitch": 61, "duration": 584, "velocity": 113}, {"time": 39123, "pitch": 64, "duration": 575, "velocity": 113}, {"time": 39599, "pitch": 42, "duration": 336, "velocity": 107}, {"time": 39835, "pitch": 58, "duration": 281, "velocity": 119}, {"time": 39835, "pitch": 61, "duration": 281, "velocity": 113}, {"time": 39835, "pitch": 64, "duration": 281, "velocity": 102}, {"time": 40076, "pitch": 42, "duration": 592, "velocity": 105}, {"time": 40317, "pitch": 58, "duration": 70, "velocity": 102}, {"time": 40317, "pitch": 61, "duration": 70, "velocity": 105}, {"time": 40317, "pitch": 64, "duration": 70, "velocity": 93}, {"time": 40557, "pitch": 58, "duration": 331, "velocity": 119}, {"time": 40557, "pitch": 61, "duration": 331, "velocity": 113}, {"time": 40557, "pitch": 64, "duration": 341, "velocity": 110}, {"time": 40798, "pitch": 42, "duration": 191, "velocity": 107}, {"time": 41039, "pitch": 44, "duration": 401, "velocity": 116}, {"time": 41039, "pitch": 60, "duration": 542, "velocity": 122}, {"time": 41039, "pitch": 63, "duration": 552, "velocity": 119}, {"time": 41039, "pitch": 66, "duration": 522, "velocity": 105}, {"time": 41521, "pitch": 44, "duration": 361, "velocity": 105}, {"time": 41761, "pitch": 60, "duration": 341, "velocity": 119}, {"time": 41761, "pitch": 63, "duration": 341, "velocity": 116}, {"time": 41761, "pitch": 66, "duration": 331, "velocity": 110}, {"time": 42002, "pitch": 44, "duration": 121, "velocity": 107}, {"time": 42243, "pitch": 44, "duration": 221, "velocity": 127}, {"time": 42243, "pitch": 60, "duration": 241, "velocity": 127}, {"time": 42243, "pitch": 63, "duration": 261, "velocity": 122}, {"time": 42243, "pitch": 66, "duration": 211, "velocity": 116}, {"time": 42724, "pitch": 44, "duration": 236, "velocity": 119}, {"time": 42724, "pitch": 60, "duration": 226, "velocity": 127}, {"time": 42724, "pitch": 63, "duration": 246, "velocity": 127}, {"time": 42724, "pitch": 66, "duration": 216, "velocity": 116}, {"time": 43196, "pitch": 39, "duration": 341, "velocity": 100}, {"time": 43436, "pitch": 49, "duration": 251, "velocity": 105}, {"time": 43436, "pitch": 55, "duration": 271, "velocity": 102}, {"time": 43436, "pitch": 58, "duration": 261, "velocity": 107}, {"time": 43677, "pitch": 39, "duration": 161, "velocity": 98}, {"time": 43802, "pitch": 51, "duration": 260, "velocity": 105}, {"time": 43802, "pitch": 55, "duration": 271, "velocity": 107}, {"time": 43802, "pitch": 60, "duration": 250, "velocity": 105}, {"time": 44042, "pitch": 39, "duration": 131, "velocity": 102}, {"time": 44159, "pitch": 51, "duration": 772, "velocity": 107}, {"time": 44159, "pitch": 55, "duration": 782, "velocity": 105}, {"time": 44159, "pitch": 61, "duration": 782, "velocity": 113}, {"time": 44400, "pitch": 39, "duration": 210, "velocity": 107}, {"time": 44881, "pitch": 39, "duration": 151, "velocity": 98}, {"time": 45122, "pitch": 39, "duration": 281, "velocity": 113}, {"time": 45363, "pitch": 49, "duration": 241, "velocity": 105}, {"time": 45363, "pitch": 55, "duration": 271, "velocity": 102}, {"time": 45363, "pitch": 58, "duration": 241, "velocity": 105}, {"time": 45604, "pitch": 39, "duration": 190, "velocity": 102}, {"time": 45728, "pitch": 51, "duration": 251, "velocity": 113}, {"time": 45728, "pitch": 55, "duration": 261, "velocity": 105}, {"time": 45728, "pitch": 60, "duration": 231, "velocity": 107}, {"time": 45969, "pitch": 39, "duration": 159, "velocity": 105}, {"time": 46085, "pitch": 49, "duration": 295, "velocity": 110}, {"time": 46085, "pitch": 54, "duration": 304, "velocity": 107}, {"time": 46085, "pitch": 58, "duration": 295, "velocity": 107}, {"time": 46321, "pitch": 39, "duration": 235, "velocity": 102}, {"time": 46556, "pitch": 49, "duration": 321, "velocity": 110}, {"time": 46556, "pitch": 54, "duration": 331, "velocity": 110}, {"time": 46556, "pitch": 58, "duration": 321, "velocity": 107}, {"time": 46797, "pitch": 39, "duration": 181, "velocity": 105}, {"time": 47038, "pitch": 39, "duration": 341, "velocity": 100}, {"time": 47279, "pitch": 49, "duration": 251, "velocity": 105}, {"time": 47279, "pitch": 55, "duration": 271, "velocity": 102}, {"time": 47279, "pitch": 58, "duration": 261, "velocity": 107}, {"time": 47519, "pitch": 39, "duration": 161, "velocity": 98}, {"time": 47644, "pitch": 51, "duration": 261, "velocity": 105}, {"time": 47644, "pitch": 55, "duration": 271, "velocity": 107}, {"time": 47644, "pitch": 60, "duration": 251, "velocity": 105}, {"time": 47885, "pitch": 39, "duration": 130, "velocity": 102}, {"time": 48001, "pitch": 51, "duration": 773, "velocity": 107}, {"time": 48001, "pitch": 55, "duration": 783, "velocity": 105}, {"time": 48001, "pitch": 61, "duration": 783, "velocity": 113}, {"time": 48242, "pitch": 39, "duration": 211, "velocity": 107}, {"time": 48723, "pitch": 39, "duration": 151, "velocity": 98}, {"time": 48964, "pitch": 39, "duration": 275, "velocity": 113}, {"time": 49200, "pitch": 49, "duration": 235, "velocity": 105}, {"time": 49200, "pitch": 55, "duration": 265, "velocity": 102}, {"time": 49200, "pitch": 58, "duration": 235, "velocity": 105}, {"time": 49435, "pitch": 39, "duration": 191, "velocity": 102}, {"time": 49560, "pitch": 51, "duration": 251, "velocity": 113}, {"time": 49560, "pitch": 55, "duration": 261, "velocity": 105}, {"time": 49560, "pitch": 60, "duration": 231, "velocity": 107}, {"time": 49801, "pitch": 39, "duration": 160, "velocity": 105}, {"time": 49917, "pitch": 49, "duration": 301, "velocity": 110}, {"time": 49917, "pitch": 54, "duration": 311, "velocity": 107}, {"time": 49917, "pitch": 58, "duration": 301, "velocity": 107}, {"time": 50158, "pitch": 39, "duration": 241, "velocity": 102}, {"time": 50399, "pitch": 49, "duration": 321, "velocity": 110}, {"time": 50399, "pitch": 54, "duration": 331, "velocity": 110}, {"time": 50399, "pitch": 58, "duration": 321, "velocity": 107}, {"time": 50639, "pitch": 39, "duration": 181, "velocity": 105}, {"time": 50880, "pitch": 39, "duration": 341, "velocity": 100}, {"time": 51121, "pitch": 49, "duration": 251, "velocity": 105}, {"time": 51121, "pitch": 55, "duration": 271, "velocity": 102}, {"time": 51121, "pitch": 58, "duration": 261, "velocity": 107}, {"time": 51362, "pitch": 39, "duration": 160, "velocity": 98}, {"time": 51486, "pitch": 51, "duration": 261, "velocity": 105}, {"time": 51486, "pitch": 55, "duration": 271, "velocity": 107}, {"time": 51486, "pitch": 60, "duration": 251, "velocity": 105}, {"time": 51727, "pitch": 39, "duration": 130, "velocity": 102}, {"time": 51843, "pitch": 51, "duration": 767, "velocity": 107}, {"time": 51843, "pitch": 55, "duration": 776, "velocity": 105}, {"time": 51843, "pitch": 61, "duration": 776, "velocity": 113}, {"time": 52084, "pitch": 39, "duration": 211, "velocity": 107}, {"time": 52560, "pitch": 39, "duration": 148, "velocity": 98}, {"time": 52796, "pitch": 39, "duration": 281, "velocity": 113}, {"time": 53037, "pitch": 49, "duration": 241, "velocity": 105}, {"time": 53037, "pitch": 55, "duration": 271, "velocity": 102}, {"time": 53037, "pitch": 58, "duration": 241, "velocity": 105}, {"time": 53278, "pitch": 39, "duration": 190, "velocity": 102}, {"time": 53402, "pitch": 51, "duration": 251, "velocity": 113}, {"time": 53402, "pitch": 55, "duration": 261, "velocity": 105}, {"time": 53402, "pitch": 60, "duration": 231, "velocity": 107}, {"time": 53643, "pitch": 39, "duration": 160, "velocity": 105}, {"time": 53759, "pitch": 49, "duration": 301, "velocity": 110}, {"time": 53759, "pitch": 54, "duration": 311, "velocity": 107}, {"time": 53759, "pitch": 58, "duration": 301, "velocity": 107}, {"time": 54000, "pitch": 39, "duration": 241, "velocity": 102}, {"time": 54241, "pitch": 49, "duration": 221, "velocity": 110}, {"time": 54241, "pitch": 54, "duration": 231, "velocity": 110}, {"time": 54241, "pitch": 58, "duration": 221, "velocity": 107}, {"time": 54482, "pitch": 42, "duration": 461, "velocity": 105}, {"time": 54482, "pitch": 58, "duration": 582, "velocity": 116}, {"time": 54482, "pitch": 61, "duration": 592, "velocity": 113}, {"time": 54482, "pitch": 64, "duration": 582, "velocity": 113}, {"time": 54963, "pitch": 42, "duration": 339, "velocity": 107}, {"time": 55204, "pitch": 58, "duration": 275, "velocity": 119}, {"time": 55204, "pitch": 61, "duration": 275, "velocity": 113}, {"time": 55204, "pitch": 64, "duration": 275, "velocity": 102}, {"time": 55440, "pitch": 42, "duration": 586, "velocity": 105}, {"time": 55675, "pitch": 58, "duration": 70, "velocity": 102}, {"time": 55675, "pitch": 61, "duration": 70, "velocity": 105}, {"time": 55675, "pitch": 64, "duration": 70, "velocity": 93}, {"time": 55916, "pitch": 58, "duration": 331, "velocity": 119}, {"time": 55916, "pitch": 61, "duration": 331, "velocity": 113}, {"time": 55916, "pitch": 64, "duration": 341, "velocity": 110}, {"time": 56157, "pitch": 42, "duration": 190, "velocity": 107}, {"time": 56397, "pitch": 44, "duration": 402, "velocity": 116}, {"time": 56397, "pitch": 60, "duration": 542, "velocity": 122}, {"time": 56397, "pitch": 63, "duration": 552, "velocity": 119}, {"time": 56397, "pitch": 66, "duration": 522, "velocity": 105}, {"time": 56879, "pitch": 44, "duration": 361, "velocity": 105}, {"time": 57120, "pitch": 60, "duration": 341, "velocity": 119}, {"time": 57120, "pitch": 63, "duration": 341, "velocity": 116}, {"time": 57120, "pitch": 66, "duration": 331, "velocity": 110}, {"time": 57361, "pitch": 44, "duration": 120, "velocity": 107}, {"time": 57601, "pitch": 44, "duration": 221, "velocity": 127}, {"time": 57601, "pitch": 60, "duration": 241, "velocity": 127}, {"time": 57601, "pitch": 63, "duration": 261, "velocity": 122}, {"time": 57601, "pitch": 66, "duration": 211, "velocity": 116}, {"time": 58083, "pitch": 44, "duration": 241, "velocity": 119}, {"time": 58083, "pitch": 60, "duration": 231, "velocity": 127}, {"time": 58083, "pitch": 63, "duration": 251, "velocity": 127}, {"time": 58083, "pitch": 66, "duration": 221, "velocity": 116}, {"time": 58565, "pitch": 39, "duration": 333, "velocity": 100}, {"time": 58800, "pitch": 49, "duration": 246, "velocity": 105}, {"time": 58800, "pitch": 55, "duration": 266, "velocity": 102}, {"time": 58800, "pitch": 58, "duration": 256, "velocity": 107}, {"time": 59036, "pitch": 39, "duration": 160, "velocity": 98}, {"time": 59160, "pitch": 51, "duration": 261, "velocity": 105}, {"time": 59160, "pitch": 55, "duration": 271, "velocity": 107}, {"time": 59160, "pitch": 60, "duration": 251, "velocity": 105}, {"time": 59401, "pitch": 39, "duration": 130, "velocity": 102}, {"time": 59517, "pitch": 51, "duration": 773, "velocity": 107}, {"time": 59517, "pitch": 55, "duration": 783, "velocity": 105}, {"time": 59517, "pitch": 61, "duration": 783, "velocity": 113}, {"time": 59758, "pitch": 39, "duration": 211, "velocity": 107}, {"time": 60240, "pitch": 39, "duration": 150, "velocity": 98}, {"time": 60481, "pitch": 39, "duration": 341, "velocity": 100}, {"time": 60721, "pitch": 49, "duration": 251, "velocity": 105}, {"time": 60721, "pitch": 55, "duration": 271, "velocity": 102}, {"time": 60721, "pitch": 58, "duration": 261, "velocity": 107}, {"time": 60962, "pitch": 39, "duration": 161, "velocity": 98}, {"time": 61087, "pitch": 51, "duration": 260, "velocity": 105}, {"time": 61087, "pitch": 55, "duration": 270, "velocity": 107}, {"time": 61087, "pitch": 60, "duration": 250, "velocity": 105}, {"time": 61327, "pitch": 39, "duration": 130, "velocity": 102}, {"time": 61444, "pitch": 51, "duration": 762, "velocity": 107}, {"time": 61444, "pitch": 55, "duration": 772, "velocity": 105}, {"time": 61444, "pitch": 61, "duration": 772, "velocity": 113}, {"time": 61679, "pitch": 39, "duration": 207, "velocity": 107}, {"time": 62156, "pitch": 39, "duration": 150, "velocity": 98}, {"time": 62396, "pitch": 44, "duration": 392, "velocity": 102}, {"time": 62396, "pitch": 55, "duration": 71, "velocity": 107}, {"time": 62396, "pitch": 60, "duration": 81, "velocity": 110}, {"time": 62396, "pitch": 63, "duration": 91, "velocity": 105}, {"time": 62637, "pitch": 55, "duration": 221, "velocity": 107}, {"time": 62637, "pitch": 60, "duration": 241, "velocity": 110}, {"time": 62637, "pitch": 63, "duration": 251, "velocity": 107}, {"time": 62878, "pitch": 44, "duration": 171, "velocity": 110}, {"time": 63002, "pitch": 55, "duration": 191, "velocity": 105}, {"time": 63002, "pitch": 60, "duration": 201, "velocity": 107}, {"time": 63002, "pitch": 63, "duration": 201, "velocity": 105}, {"time": 63119, "pitch": 44, "duration": 78, "velocity": 113}, {"time": 63243, "pitch": 44, "duration": 753, "velocity": 119}, {"time": 63360, "pitch": 55, "duration": 722, "velocity": 116}, {"time": 63360, "pitch": 60, "duration": 732, "velocity": 113}, {"time": 63360, "pitch": 63, "duration": 732, "velocity": 110}, {"time": 64206, "pitch": 42, "duration": 452, "velocity": 87}, {"time": 64323, "pitch": 58, "duration": 80, "velocity": 102}, {"time": 64323, "pitch": 61, "duration": 80, "velocity": 110}, {"time": 64323, "pitch": 66, "duration": 90, "velocity": 105}, {"time": 64564, "pitch": 58, "duration": 260, "velocity": 116}, {"time": 64564, "pitch": 61, "duration": 270, "velocity": 107}, {"time": 64564, "pitch": 66, "duration": 260, "velocity": 110}, {"time": 64804, "pitch": 42, "duration": 167, "velocity": 105}, {"time": 64926, "pitch": 58, "duration": 187, "velocity": 113}, {"time": 64926, "pitch": 61, "duration": 196, "velocity": 110}, {"time": 64926, "pitch": 66, "duration": 187, "velocity": 105}, {"time": 65040, "pitch": 42, "duration": 102, "velocity": 113}, {"time": 65162, "pitch": 42, "duration": 489, "velocity": 113}, {"time": 65276, "pitch": 58, "duration": 521, "velocity": 113}, {"time": 65276, "pitch": 61, "duration": 511, "velocity": 119}, {"time": 65276, "pitch": 66, "duration": 521, "velocity": 113}, {"time": 66239, "pitch": 39, "duration": 341, "velocity": 100}, {"time": 66479, "pitch": 49, "duration": 251, "velocity": 105}, {"time": 66479, "pitch": 55, "duration": 271, "velocity": 102}, {"time": 66479, "pitch": 58, "duration": 261, "velocity": 107}, {"time": 66720, "pitch": 39, "duration": 161, "velocity": 98}, {"time": 66845, "pitch": 51, "duration": 261, "velocity": 105}, {"time": 66845, "pitch": 55, "duration": 271, "velocity": 107}, {"time": 66845, "pitch": 60, "duration": 251, "velocity": 105}, {"time": 67085, "pitch": 39, "duration": 131, "velocity": 102}, {"time": 67202, "pitch": 51, "duration": 772, "velocity": 107}, {"time": 67202, "pitch": 55, "duration": 782, "velocity": 105}, {"time": 67202, "pitch": 61, "duration": 782, "velocity": 113}, {"time": 67443, "pitch": 39, "duration": 210, "velocity": 107}, {"time": 67924, "pitch": 39, "duration": 151, "velocity": 98}, {"time": 68165, "pitch": 39, "duration": 334, "velocity": 100}, {"time": 68401, "pitch": 49, "duration": 245, "velocity": 105}, {"time": 68401, "pitch": 55, "duration": 265, "velocity": 102}, {"time": 68401, "pitch": 58, "duration": 255, "velocity": 107}, {"time": 68636, "pitch": 39, "duration": 161, "velocity": 98}, {"time": 68761, "pitch": 51, "duration": 260, "velocity": 105}, {"time": 68761, "pitch": 55, "duration": 270, "velocity": 107}, {"time": 68761, "pitch": 60, "duration": 250, "velocity": 105}, {"time": 69001, "pitch": 39, "duration": 131, "velocity": 102}, {"time": 69118, "pitch": 51, "duration": 772, "velocity": 107}, {"time": 69118, "pitch": 55, "duration": 782, "velocity": 105}, {"time": 69118, "pitch": 61, "duration": 782, "velocity": 113}, {"time": 69359, "pitch": 39, "duration": 210, "velocity": 107}, {"time": 69840, "pitch": 39, "duration": 151, "velocity": 98}, {"time": 70081, "pitch": 44, "duration": 391, "velocity": 102}, {"time": 70081, "pitch": 55, "duration": 70, "velocity": 107}, {"time": 70081, "pitch": 60, "duration": 80, "velocity": 110}, {"time": 70081, "pitch": 63, "duration": 90, "velocity": 105}, {"time": 70322, "pitch": 55, "duration": 220, "velocity": 107}, {"time": 70322, "pitch": 60, "duration": 241, "velocity": 110}, {"time": 70322, "pitch": 63, "duration": 251, "velocity": 107}, {"time": 70563, "pitch": 44, "duration": 170, "velocity": 110}, {"time": 70687, "pitch": 55, "duration": 191, "velocity": 105}, {"time": 70687, "pitch": 60, "duration": 201, "velocity": 107}, {"time": 70687, "pitch": 63, "duration": 201, "velocity": 105}, {"time": 70803, "pitch": 44, "duration": 79, "velocity": 113}, {"time": 70928, "pitch": 44, "duration": 742, "velocity": 119}, {"time": 71044, "pitch": 55, "duration": 712, "velocity": 116}, {"time": 71044, "pitch": 60, "duration": 722, "velocity": 113}, {"time": 71044, "pitch": 63, "duration": 722, "velocity": 110}, {"time": 71880, "pitch": 42, "duration": 452, "velocity": 87}, {"time": 71997, "pitch": 58, "duration": 80, "velocity": 102}, {"time": 71997, "pitch": 61, "duration": 80, "velocity": 110}, {"time": 71997, "pitch": 66, "duration": 90, "velocity": 105}, {"time": 72238, "pitch": 58, "duration": 260, "velocity": 116}, {"time": 72238, "pitch": 61, "duration": 271, "velocity": 107}, {"time": 72238, "pitch": 66, "duration": 260, "velocity": 110}, {"time": 72478, "pitch": 42, "duration": 171, "velocity": 105}, {"time": 72603, "pitch": 58, "duration": 190, "velocity": 113}, {"time": 72603, "pitch": 61, "duration": 200, "velocity": 110}, {"time": 72603, "pitch": 66, "duration": 190, "velocity": 105}, {"time": 72719, "pitch": 42, "duration": 105, "velocity": 113}, {"time": 72844, "pitch": 42, "duration": 491, "velocity": 113}, {"time": 72960, "pitch": 58, "duration": 522, "velocity": 113}, {"time": 72960, "pitch": 61, "duration": 512, "velocity": 119}, {"time": 72960, "pitch": 66, "duration": 522, "velocity": 113}, {"time": 73682, "pitch": 46, "duration": 392, "velocity": 122}, {"time": 73682, "pitch": 60, "duration": 382, "velocity": 127}, {"time": 73682, "pitch": 63, "duration": 392, "velocity": 127}, {"time": 73682, "pitch": 68, "duration": 382, "velocity": 119}, {"time": 74164, "pitch": 46, "duration": 110, "velocity": 116}, {"time": 74164, "pitch": 60, "duration": 70, "velocity": 116}, {"time": 74164, "pitch": 63, "duration": 60, "velocity": 116}, {"time": 74164, "pitch": 68, "duration": 70, "velocity": 105}, {"time": 74405, "pitch": 46, "duration": 108, "velocity": 107}, {"time": 74405, "pitch": 60, "duration": 68, "velocity": 119}, {"time": 74405, "pitch": 63, "duration": 68, "velocity": 116}, {"time": 74405, "pitch": 68, "duration": 59, "velocity": 107}, {"time": 74640, "pitch": 46, "duration": 99, "velocity": 116}, {"time": 74640, "pitch": 60, "duration": 69, "velocity": 116}, {"time": 74640, "pitch": 63, "duration": 69, "velocity": 113}, {"time": 74640, "pitch": 68, "duration": 69, "velocity": 107}, {"time": 74876, "pitch": 46, "duration": 100, "velocity": 119}, {"time": 74876, "pitch": 60, "duration": 70, "velocity": 119}, {"time": 74876, "pitch": 63, "duration": 60, "velocity": 110}, {"time": 74876, "pitch": 68, "duration": 70, "velocity": 110}, {"time": 75117, "pitch": 46, "duration": 100, "velocity": 116}, {"time": 75117, "pitch": 60, "duration": 70, "velocity": 113}, {"time": 75117, "pitch": 63, "duration": 60, "velocity": 113}, {"time": 75117, "pitch": 68, "duration": 60, "velocity": 110}, {"time": 75357, "pitch": 46, "duration": 101, "velocity": 116}, {"time": 75357, "pitch": 60, "duration": 61, "velocity": 116}, {"time": 75357, "pitch": 63, "duration": 61, "velocity": 116}, {"time": 75357, "pitch": 68, "duration": 61, "velocity": 113}, {"time": 75598, "pitch": 46, "duration": 101, "velocity": 119}, {"time": 75598, "pitch": 60, "duration": 71, "velocity": 122}, {"time": 75598, "pitch": 63, "duration": 71, "velocity": 116}, {"time": 75598, "pitch": 68, "duration": 71, "velocity": 116}, {"time": 75839, "pitch": 46, "duration": 100, "velocity": 127}, {"time": 75839, "pitch": 60, "duration": 60, "velocity": 127}, {"time": 75839, "pitch": 63, "duration": 60, "velocity": 127}, {"time": 75839, "pitch": 67, "duration": 20, "velocity": 87}, {"time": 75839, "pitch": 68, "duration": 70, "velocity": 127}, {"time": 77519, "pitch": 44, "duration": 808, "velocity": 110}, {"time": 77519, "pitch": 55, "duration": 386, "velocity": 116}, {"time": 77519, "pitch": 60, "duration": 397, "velocity": 107}, {"time": 77519, "pitch": 63, "duration": 386, "velocity": 107}, {"time": 77996, "pitch": 55, "duration": 70, "velocity": 107}, {"time": 77996, "pitch": 60, "duration": 70, "velocity": 100}, {"time": 77996, "pitch": 63, "duration": 60, "velocity": 100}, {"time": 78237, "pitch": 55, "duration": 301, "velocity": 116}, {"time": 78237, "pitch": 60, "duration": 301, "velocity": 107}, {"time": 78237, "pitch": 63, "duration": 301, "velocity": 110}, {"time": 78477, "pitch": 44, "duration": 572, "velocity": 107}, {"time": 78718, "pitch": 55, "duration": 70, "velocity": 107}, {"time": 78718, "pitch": 60, "duration": 60, "velocity": 100}, {"time": 78718, "pitch": 63, "duration": 50, "velocity": 102}, {"time": 78959, "pitch": 55, "duration": 331, "velocity": 116}, {"time": 78959, "pitch": 60, "duration": 331, "velocity": 107}, {"time": 78959, "pitch": 63, "duration": 341, "velocity": 107}, {"time": 79200, "pitch": 44, "duration": 230, "velocity": 105}, {"time": 79441, "pitch": 46, "duration": 812, "velocity": 91}, {"time": 79441, "pitch": 56, "duration": 391, "velocity": 122}, {"time": 79441, "pitch": 60, "duration": 391, "velocity": 116}, {"time": 79441, "pitch": 63, "duration": 391, "velocity": 110}, {"time": 79922, "pitch": 56, "duration": 80, "velocity": 100}, {"time": 79922, "pitch": 60, "duration": 70, "velocity": 95}, {"time": 79922, "pitch": 63, "duration": 70, "velocity": 100}, {"time": 80163, "pitch": 56, "duration": 301, "velocity": 119}, {"time": 80163, "pitch": 60, "duration": 301, "velocity": 110}, {"time": 80163, "pitch": 63, "duration": 291, "velocity": 107}, {"time": 80404, "pitch": 46, "duration": 564, "velocity": 105}, {"time": 80644, "pitch": 56, "duration": 79, "velocity": 107}, {"time": 80644, "pitch": 60, "duration": 79, "velocity": 102}, {"time": 80644, "pitch": 63, "duration": 79, "velocity": 102}, {"time": 80880, "pitch": 56, "duration": 326, "velocity": 116}, {"time": 80880, "pitch": 60, "duration": 336, "velocity": 107}, {"time": 80880, "pitch": 63, "duration": 336, "velocity": 110}, {"time": 81116, "pitch": 46, "duration": 240, "velocity": 110}, {"time": 81356, "pitch": 43, "duration": 833, "velocity": 105}, {"time": 81356, "pitch": 53, "duration": 372, "velocity": 107}, {"time": 81356, "pitch": 58, "duration": 382, "velocity": 113}, {"time": 81356, "pitch": 62, "duration": 372, "velocity": 102}, {"time": 81838, "pitch": 53, "duration": 70, "velocity": 102}, {"time": 81838, "pitch": 58, "duration": 70, "velocity": 102}, {"time": 81838, "pitch": 62, "duration": 100, "velocity": 87}, {"time": 82079, "pitch": 53, "duration": 301, "velocity": 116}, {"time": 82079, "pitch": 58, "duration": 311, "velocity": 116}, {"time": 82079, "pitch": 62, "duration": 301, "velocity": 107}, {"time": 82320, "pitch": 43, "duration": 592, "velocity": 105}, {"time": 82560, "pitch": 53, "duration": 71, "velocity": 110}, {"time": 82560, "pitch": 58, "duration": 71, "velocity": 105}, {"time": 82560, "pitch": 62, "duration": 91, "velocity": 91}, {"time": 82801, "pitch": 53, "duration": 321, "velocity": 107}, {"time": 82801, "pitch": 58, "duration": 321, "velocity": 107}, {"time": 82801, "pitch": 62, "duration": 321, "velocity": 105}, {"time": 83042, "pitch": 43, "duration": 130, "velocity": 105}, {"time": 83283, "pitch": 48, "duration": 761, "velocity": 100}, {"time": 83283, "pitch": 53, "duration": 361, "velocity": 122}, {"time": 83283, "pitch": 58, "duration": 371, "velocity": 116}, {"time": 83283, "pitch": 62, "duration": 361, "velocity": 105}, {"time": 83764, "pitch": 53, "duration": 71, "velocity": 110}, {"time": 83764, "pitch": 58, "duration": 51, "velocity": 89}, {"time": 83764, "pitch": 62, "duration": 91, "velocity": 89}, {"time": 84005, "pitch": 53, "duration": 304, "velocity": 113}, {"time": 84005, "pitch": 58, "duration": 304, "velocity": 116}, {"time": 84005, "pitch": 62, "duration": 314, "velocity": 105}, {"time": 84241, "pitch": 48, "duration": 627, "velocity": 107}, {"time": 84476, "pitch": 52, "duration": 131, "velocity": 113}, {"time": 84476, "pitch": 58, "duration": 111, "velocity": 107}, {"time": 84476, "pitch": 62, "duration": 131, "velocity": 102}, {"time": 84717, "pitch": 52, "duration": 261, "velocity": 119}, {"time": 84717, "pitch": 58, "duration": 271, "velocity": 110}, {"time": 84717, "pitch": 62, "duration": 271, "velocity": 105}, {"time": 84958, "pitch": 48, "duration": 221, "velocity": 110}, {"time": 85199, "pitch": 44, "duration": 812, "velocity": 110}, {"time": 85199, "pitch": 55, "duration": 391, "velocity": 116}, {"time": 85199, "pitch": 60, "duration": 401, "velocity": 107}, {"time": 85199, "pitch": 63, "duration": 391, "velocity": 107}, {"time": 85680, "pitch": 55, "duration": 70, "velocity": 107}, {"time": 85680, "pitch": 60, "duration": 70, "velocity": 100}, {"time": 85680, "pitch": 63, "duration": 60, "velocity": 100}, {"time": 85921, "pitch": 55, "duration": 301, "velocity": 116}, {"time": 85921, "pitch": 60, "duration": 301, "velocity": 107}, {"time": 85921, "pitch": 63, "duration": 301, "velocity": 110}, {"time": 86162, "pitch": 44, "duration": 572, "velocity": 107}, {"time": 86403, "pitch": 55, "duration": 70, "velocity": 107}, {"time": 86403, "pitch": 60, "duration": 60, "velocity": 100}, {"time": 86403, "pitch": 63, "duration": 50, "velocity": 102}, {"time": 86643, "pitch": 55, "duration": 330, "velocity": 116}, {"time": 86643, "pitch": 60, "duration": 330, "velocity": 107}, {"time": 86643, "pitch": 63, "duration": 339, "velocity": 107}, {"time": 86884, "pitch": 44, "duration": 226, "velocity": 105}, {"time": 87120, "pitch": 46, "duration": 807, "velocity": 91}, {"time": 87120, "pitch": 56, "duration": 386, "velocity": 122}, {"time": 87120, "pitch": 60, "duration": 386, "velocity": 116}, {"time": 87120, "pitch": 63, "duration": 386, "velocity": 110}, {"time": 87596, "pitch": 56, "duration": 80, "velocity": 100}, {"time": 87596, "pitch": 60, "duration": 70, "velocity": 95}, {"time": 87596, "pitch": 63, "duration": 70, "velocity": 100}, {"time": 87837, "pitch": 56, "duration": 301, "velocity": 119}, {"time": 87837, "pitch": 60, "duration": 301, "velocity": 110}, {"time": 87837, "pitch": 63, "duration": 291, "velocity": 107}, {"time": 88078, "pitch": 46, "duration": 572, "velocity": 105}, {"time": 88319, "pitch": 56, "duration": 80, "velocity": 107}, {"time": 88319, "pitch": 60, "duration": 80, "velocity": 102}, {"time": 88319, "pitch": 63, "duration": 80, "velocity": 102}, {"time": 88559, "pitch": 56, "duration": 331, "velocity": 116}, {"time": 88559, "pitch": 60, "duration": 341, "velocity": 107}, {"time": 88559, "pitch": 63, "duration": 341, "velocity": 110}, {"time": 88800, "pitch": 46, "duration": 241, "velocity": 110}, {"time": 89041, "pitch": 43, "duration": 833, "velocity": 105}, {"time": 89041, "pitch": 53, "duration": 371, "velocity": 107}, {"time": 89041, "pitch": 58, "duration": 381, "velocity": 113}, {"time": 89041, "pitch": 62, "duration": 371, "velocity": 102}, {"time": 89523, "pitch": 53, "duration": 70, "velocity": 102}, {"time": 89523, "pitch": 58, "duration": 70, "velocity": 102}, {"time": 89523, "pitch": 62, "duration": 100, "velocity": 87}, {"time": 89763, "pitch": 53, "duration": 301, "velocity": 116}, {"time": 89763, "pitch": 58, "duration": 311, "velocity": 116}, {"time": 89763, "pitch": 62, "duration": 301, "velocity": 107}, {"time": 90004, "pitch": 43, "duration": 584, "velocity": 105}, {"time": 90245, "pitch": 53, "duration": 69, "velocity": 110}, {"time": 90245, "pitch": 58, "duration": 69, "velocity": 105}, {"time": 90245, "pitch": 62, "duration": 88, "velocity": 91}, {"time": 90480, "pitch": 53, "duration": 316, "velocity": 107}, {"time": 90480, "pitch": 58, "duration": 316, "velocity": 107}, {"time": 90480, "pitch": 62, "duration": 316, "velocity": 105}, {"time": 90716, "pitch": 43, "duration": 130, "velocity": 105}, {"time": 90957, "pitch": 48, "duration": 762, "velocity": 100}, {"time": 90957, "pitch": 53, "duration": 361, "velocity": 122}, {"time": 90957, "pitch": 58, "duration": 371, "velocity": 116}, {"time": 90957, "pitch": 62, "duration": 361, "velocity": 105}, {"time": 91438, "pitch": 53, "duration": 71, "velocity": 110}, {"time": 91438, "pitch": 58, "duration": 51, "velocity": 89}, {"time": 91438, "pitch": 62, "duration": 91, "velocity": 89}, {"time": 91679, "pitch": 53, "duration": 311, "velocity": 113}, {"time": 91679, "pitch": 58, "duration": 311, "velocity": 116}, {"time": 91679, "pitch": 62, "duration": 321, "velocity": 105}, {"time": 91920, "pitch": 48, "duration": 632, "velocity": 107}, {"time": 92161, "pitch": 52, "duration": 130, "velocity": 113}, {"time": 92161, "pitch": 58, "duration": 110, "velocity": 107}, {"time": 92161, "pitch": 62, "duration": 130, "velocity": 102}, {"time": 92402, "pitch": 52, "duration": 260, "velocity": 119}, {"time": 92402, "pitch": 58, "duration": 270, "velocity": 110}, {"time": 92402, "pitch": 62, "duration": 270, "velocity": 105}, {"time": 92642, "pitch": 48, "duration": 221, "velocity": 110}, {"time": 92883, "pitch": 41, "duration": 843, "velocity": 95}, {"time": 92883, "pitch": 56, "duration": 319, "velocity": 116}, {"time": 92883, "pitch": 60, "duration": 329, "velocity": 116}, {"time": 92883, "pitch": 63, "duration": 319, "velocity": 105}, {"time": 93360, "pitch": 56, "duration": 68, "velocity": 107}, {"time": 93360, "pitch": 60, "duration": 68, "velocity": 113}, {"time": 93360, "pitch": 63, "duration": 68, "velocity": 105}, {"time": 93595, "pitch": 56, "duration": 291, "velocity": 122}, {"time": 93595, "pitch": 60, "duration": 301, "velocity": 122}, {"time": 93595, "pitch": 63, "duration": 281, "velocity": 110}, {"time": 93836, "pitch": 41, "duration": 221, "velocity": 102}, {"time": 94077, "pitch": 41, "duration": 271, "velocity": 105}, {"time": 94077, "pitch": 56, "duration": 110, "velocity": 107}, {"time": 94077, "pitch": 60, "duration": 100, "velocity": 110}, {"time": 94077, "pitch": 63, "duration": 100, "velocity": 102}, {"time": 94317, "pitch": 43, "duration": 221, "velocity": 89}, {"time": 94317, "pitch": 56, "duration": 241, "velocity": 122}, {"time": 94317, "pitch": 60, "duration": 261, "velocity": 119}, {"time": 94317, "pitch": 63, "duration": 241, "velocity": 105}, {"time": 94558, "pitch": 44, "duration": 231, "velocity": 82}, {"time": 94799, "pitch": 46, "duration": 251, "velocity": 122}, {"time": 94799, "pitch": 56, "duration": 191, "velocity": 122}, {"time": 94799, "pitch": 60, "duration": 201, "velocity": 127}, {"time": 94799, "pitch": 63, "duration": 201, "velocity": 113}, {"time": 95521, "pitch": 46, "duration": 1386, "velocity": 113}, {"time": 95521, "pitch": 56, "duration": 1346, "velocity": 119}, {"time": 95521, "pitch": 60, "duration": 1356, "velocity": 122}, {"time": 95521, "pitch": 63, "duration": 1317, "velocity": 119}, {"time": 96956, "pitch": 39, "duration": 341, "velocity": 100}, {"time": 97197, "pitch": 49, "duration": 250, "velocity": 105}, {"time": 97197, "pitch": 55, "duration": 270, "velocity": 102}, {"time": 97197, "pitch": 58, "duration": 260, "velocity": 107}, {"time": 97437, "pitch": 39, "duration": 161, "velocity": 98}, {"time": 97562, "pitch": 51, "duration": 261, "velocity": 105}, {"time": 97562, "pitch": 55, "duration": 271, "velocity": 107}, {"time": 97562, "pitch": 60, "duration": 251, "velocity": 105}, {"time": 97803, "pitch": 39, "duration": 130, "velocity": 102}, {"time": 97919, "pitch": 51, "duration": 772, "velocity": 107}, {"time": 97919, "pitch": 55, "duration": 783, "velocity": 105}, {"time": 97919, "pitch": 61, "duration": 783, "velocity": 113}, {"time": 98160, "pitch": 39, "duration": 210, "velocity": 107}, {"time": 98641, "pitch": 39, "duration": 151, "velocity": 98}, {"time": 98882, "pitch": 39, "duration": 281, "velocity": 113}, {"time": 99123, "pitch": 49, "duration": 241, "velocity": 105}, {"time": 99123, "pitch": 55, "duration": 270, "velocity": 102}, {"time": 99123, "pitch": 58, "duration": 241, "velocity": 105}, {"time": 99364, "pitch": 39, "duration": 186, "velocity": 102}, {"time": 99485, "pitch": 51, "duration": 246, "velocity": 113}, {"time": 99485, "pitch": 55, "duration": 256, "velocity": 105}, {"time": 99485, "pitch": 60, "duration": 226, "velocity": 107}, {"time": 99721, "pitch": 39, "duration": 158, "velocity": 105}, {"time": 99835, "pitch": 49, "duration": 301, "velocity": 110}, {"time": 99835, "pitch": 54, "duration": 311, "velocity": 107}, {"time": 99835, "pitch": 58, "duration": 301, "velocity": 107}, {"time": 100076, "pitch": 39, "duration": 240, "velocity": 102}, {"time": 100316, "pitch": 49, "duration": 321, "velocity": 110}, {"time": 100316, "pitch": 54, "duration": 332, "velocity": 110}, {"time": 100316, "pitch": 58, "duration": 321, "velocity": 107}, {"time": 100557, "pitch": 39, "duration": 181, "velocity": 105}, {"time": 100798, "pitch": 39, "duration": 341, "velocity": 100}, {"time": 101039, "pitch": 49, "duration": 251, "velocity": 105}, {"time": 101039, "pitch": 55, "duration": 271, "velocity": 102}, {"time": 101039, "pitch": 58, "duration": 261, "velocity": 107}, {"time": 101280, "pitch": 39, "duration": 160, "velocity": 98}, {"time": 101404, "pitch": 51, "duration": 261, "velocity": 105}, {"time": 101404, "pitch": 55, "duration": 271, "velocity": 107}, {"time": 101404, "pitch": 60, "duration": 251, "velocity": 105}, {"time": 101645, "pitch": 39, "duration": 130, "velocity": 102}, {"time": 101761, "pitch": 51, "duration": 773, "velocity": 107}, {"time": 101761, "pitch": 55, "duration": 783, "velocity": 105}, {"time": 101761, "pitch": 61, "duration": 783, "velocity": 113}, {"time": 102002, "pitch": 39, "duration": 211, "velocity": 107}, {"time": 102484, "pitch": 39, "duration": 150, "velocity": 98}, {"time": 102724, "pitch": 39, "duration": 275, "velocity": 113}, {"time": 102960, "pitch": 49, "duration": 236, "velocity": 105}, {"time": 102960, "pitch": 55, "duration": 266, "velocity": 102}, {"time": 102960, "pitch": 58, "duration": 236, "velocity": 105}, {"time": 103196, "pitch": 39, "duration": 190, "velocity": 102}, {"time": 103320, "pitch": 51, "duration": 251, "velocity": 113}, {"time": 103320, "pitch": 55, "duration": 261, "velocity": 105}, {"time": 103320, "pitch": 60, "duration": 231, "velocity": 107}, {"time": 103561, "pitch": 39, "duration": 160, "velocity": 105}, {"time": 103677, "pitch": 49, "duration": 301, "velocity": 110}, {"time": 103677, "pitch": 54, "duration": 311, "velocity": 107}, {"time": 103677, "pitch": 58, "duration": 301, "velocity": 107}, {"time": 103918, "pitch": 39, "duration": 241, "velocity": 102}, {"time": 104159, "pitch": 49, "duration": 321, "velocity": 110}, {"time": 104159, "pitch": 54, "duration": 331, "velocity": 110}, {"time": 104159, "pitch": 58, "duration": 321, "velocity": 107}, {"time": 104399, "pitch": 39, "duration": 181, "velocity": 105}, {"time": 104640, "pitch": 39, "duration": 341, "velocity": 100}, {"time": 104881, "pitch": 49, "duration": 251, "velocity": 105}, {"time": 104881, "pitch": 55, "duration": 271, "velocity": 102}, {"time": 104881, "pitch": 58, "duration": 261, "velocity": 107}, {"time": 105122, "pitch": 39, "duration": 160, "velocity": 98}, {"time": 105246, "pitch": 51, "duration": 261, "velocity": 105}, {"time": 105246, "pitch": 55, "duration": 271, "velocity": 107}, {"time": 105246, "pitch": 60, "duration": 251, "velocity": 105}, {"time": 105487, "pitch": 39, "duration": 130, "velocity": 102}, {"time": 105603, "pitch": 51, "duration": 767, "velocity": 107}, {"time": 105603, "pitch": 55, "duration": 777, "velocity": 105}, {"time": 105603, "pitch": 61, "duration": 777, "velocity": 113}, {"time": 105844, "pitch": 39, "duration": 211, "velocity": 107}, {"time": 106321, "pitch": 39, "duration": 147, "velocity": 98}, {"time": 106556, "pitch": 39, "duration": 281, "velocity": 113}, {"time": 106797, "pitch": 49, "duration": 241, "velocity": 105}, {"time": 106797, "pitch": 55, "duration": 271, "velocity": 102}, {"time": 106797, "pitch": 58, "duration": 241, "velocity": 105}, {"time": 107038, "pitch": 39, "duration": 190, "velocity": 102}, {"time": 107162, "pitch": 51, "duration": 251, "velocity": 113}, {"time": 107162, "pitch": 55, "duration": 261, "velocity": 105}, {"time": 107162, "pitch": 60, "duration": 231, "velocity": 107}, {"time": 107403, "pitch": 39, "duration": 160, "velocity": 105}, {"time": 107519, "pitch": 49, "duration": 301, "velocity": 110}, {"time": 107519, "pitch": 54, "duration": 311, "velocity": 107}, {"time": 107519, "pitch": 58, "duration": 301, "velocity": 107}, {"time": 107760, "pitch": 39, "duration": 241, "velocity": 102}, {"time": 108001, "pitch": 49, "duration": 321, "velocity": 110}, {"time": 108001, "pitch": 54, "duration": 331, "velocity": 110}, {"time": 108001, "pitch": 58, "duration": 321, "velocity": 107}, {"time": 108242, "pitch": 39, "duration": 180, "velocity": 105}, {"time": 108483, "pitch": 39, "duration": 341, "velocity": 100}, {"time": 108723, "pitch": 49, "duration": 251, "velocity": 105}, {"time": 108723, "pitch": 55, "duration": 270, "velocity": 102}, {"time": 108723, "pitch": 58, "duration": 261, "velocity": 107}, {"time": 108964, "pitch": 39, "duration": 157, "velocity": 98}, {"time": 109086, "pitch": 51, "duration": 255, "velocity": 105}, {"time": 109086, "pitch": 55, "duration": 265, "velocity": 107}, {"time": 109086, "pitch": 60, "duration": 245, "velocity": 105}, {"time": 109321, "pitch": 39, "duration": 128, "velocity": 102}, {"time": 109435, "pitch": 51, "duration": 773, "velocity": 107}, {"time": 109435, "pitch": 55, "duration": 783, "velocity": 105}, {"time": 109435, "pitch": 61, "duration": 783, "velocity": 113}, {"time": 109676, "pitch": 39, "duration": 211, "velocity": 107}, {"time": 110158, "pitch": 39, "duration": 150, "velocity": 98}, {"time": 110398, "pitch": 39, "duration": 281, "velocity": 113}, {"time": 110639, "pitch": 49, "duration": 241, "velocity": 105}, {"time": 110639, "pitch": 55, "duration": 271, "velocity": 102}, {"time": 110639, "pitch": 58, "duration": 241, "velocity": 105}, {"time": 110880, "pitch": 39, "duration": 191, "velocity": 102}, {"time": 111004, "pitch": 51, "duration": 251, "velocity": 113}, {"time": 111004, "pitch": 55, "duration": 261, "velocity": 105}, {"time": 111004, "pitch": 60, "duration": 231, "velocity": 107}, {"time": 111245, "pitch": 39, "duration": 161, "velocity": 105}, {"time": 111362, "pitch": 49, "duration": 301, "velocity": 110}, {"time": 111362, "pitch": 54, "duration": 311, "velocity": 107}, {"time": 111362, "pitch": 58, "duration": 301, "velocity": 107}, {"time": 111602, "pitch": 39, "duration": 241, "velocity": 102}, {"time": 111843, "pitch": 49, "duration": 321, "velocity": 110}, {"time": 111843, "pitch": 54, "duration": 331, "velocity": 110}, {"time": 111843, "pitch": 58, "duration": 321, "velocity": 107}, {"time": 112084, "pitch": 39, "duration": 181, "velocity": 105}, {"time": 112325, "pitch": 39, "duration": 334, "velocity": 100}, {"time": 112560, "pitch": 49, "duration": 246, "velocity": 105}, {"time": 112560, "pitch": 55, "duration": 266, "velocity": 102}, {"time": 112560, "pitch": 58, "duration": 256, "velocity": 107}, {"time": 112796, "pitch": 39, "duration": 160, "velocity": 98}, {"time": 112920, "pitch": 51, "duration": 261, "velocity": 105}, {"time": 112920, "pitch": 55, "duration": 271, "velocity": 107}, {"time": 112920, "pitch": 60, "duration": 251, "velocity": 105}, {"time": 113161, "pitch": 39, "duration": 131, "velocity": 102}, {"time": 113277, "pitch": 51, "duration": 773, "velocity": 107}, {"time": 113277, "pitch": 55, "duration": 783, "velocity": 105}, {"time": 113277, "pitch": 61, "duration": 783, "velocity": 113}, {"time": 113518, "pitch": 39, "duration": 211, "velocity": 107}, {"time": 114000, "pitch": 39, "duration": 150, "velocity": 98}, {"time": 114241, "pitch": 39, "duration": 281, "velocity": 113}, {"time": 114481, "pitch": 49, "duration": 241, "velocity": 105}, {"time": 114481, "pitch": 55, "duration": 271, "velocity": 102}, {"time": 114481, "pitch": 58, "duration": 241, "velocity": 105}, {"time": 114722, "pitch": 39, "duration": 191, "velocity": 102}, {"time": 114847, "pitch": 51, "duration": 250, "velocity": 113}, {"time": 114847, "pitch": 55, "duration": 261, "velocity": 105}, {"time": 114847, "pitch": 60, "duration": 230, "velocity": 107}, {"time": 115087, "pitch": 39, "duration": 160, "velocity": 105}, {"time": 115204, "pitch": 49, "duration": 294, "velocity": 110}, {"time": 115204, "pitch": 54, "duration": 304, "velocity": 107}, {"time": 115204, "pitch": 58, "duration": 294, "velocity": 107}, {"time": 115439, "pitch": 39, "duration": 236, "velocity": 102}, {"time": 115675, "pitch": 49, "duration": 221, "velocity": 110}, {"time": 115675, "pitch": 54, "duration": 231, "velocity": 110}, {"time": 115675, "pitch": 58, "duration": 221, "velocity": 107}, {"time": 115916, "pitch": 42, "duration": 461, "velocity": 105}, {"time": 115916, "pitch": 58, "duration": 582, "velocity": 116}, {"time": 115916, "pitch": 61, "duration": 592, "velocity": 113}, {"time": 115916, "pitch": 64, "duration": 582, "velocity": 113}, {"time": 116397, "pitch": 42, "duration": 341, "velocity": 107}, {"time": 116638, "pitch": 58, "duration": 281, "velocity": 119}, {"time": 116638, "pitch": 61, "duration": 281, "velocity": 113}, {"time": 116638, "pitch": 64, "duration": 281, "velocity": 102}, {"time": 116879, "pitch": 42, "duration": 592, "velocity": 105}, {"time": 117120, "pitch": 58, "duration": 70, "velocity": 102}, {"time": 117120, "pitch": 61, "duration": 70, "velocity": 105}, {"time": 117120, "pitch": 64, "duration": 70, "velocity": 93}, {"time": 117361, "pitch": 58, "duration": 331, "velocity": 119}, {"time": 117361, "pitch": 61, "duration": 331, "velocity": 113}, {"time": 117361, "pitch": 64, "duration": 341, "velocity": 110}, {"time": 117601, "pitch": 42, "duration": 191, "velocity": 107}, {"time": 117842, "pitch": 44, "duration": 401, "velocity": 116}, {"time": 117842, "pitch": 60, "duration": 542, "velocity": 122}, {"time": 117842, "pitch": 63, "duration": 552, "velocity": 119}, {"time": 117842, "pitch": 66, "duration": 522, "velocity": 105}, {"time": 118324, "pitch": 44, "duration": 358, "velocity": 105}, {"time": 118564, "pitch": 60, "duration": 334, "velocity": 119}, {"time": 118564, "pitch": 63, "duration": 334, "velocity": 116}, {"time": 118564, "pitch": 66, "duration": 324, "velocity": 110}, {"time": 118800, "pitch": 44, "duration": 118, "velocity": 107}, {"time": 119036, "pitch": 44, "duration": 220, "velocity": 127}, {"time": 119036, "pitch": 60, "duration": 240, "velocity": 127}, {"time": 119036, "pitch": 63, "duration": 261, "velocity": 122}, {"time": 119036, "pitch": 66, "duration": 210, "velocity": 116}, {"time": 119517, "pitch": 44, "duration": 241, "velocity": 119}, {"time": 119517, "pitch": 60, "duration": 231, "velocity": 127}, {"time": 119517, "pitch": 63, "duration": 251, "velocity": 127}, {"time": 119517, "pitch": 66, "duration": 221, "velocity": 116}, {"time": 119999, "pitch": 39, "duration": 341, "velocity": 100}, {"time": 120240, "pitch": 49, "duration": 250, "velocity": 105}, {"time": 120240, "pitch": 55, "duration": 270, "velocity": 102}, {"time": 120240, "pitch": 58, "duration": 260, "velocity": 107}, {"time": 120480, "pitch": 39, "duration": 161, "velocity": 98}, {"time": 120605, "pitch": 51, "duration": 261, "velocity": 105}, {"time": 120605, "pitch": 55, "duration": 271, "velocity": 107}, {"time": 120605, "pitch": 60, "duration": 251, "velocity": 105}, {"time": 120846, "pitch": 39, "duration": 130, "velocity": 102}, {"time": 120962, "pitch": 51, "duration": 773, "velocity": 107}, {"time": 120962, "pitch": 55, "duration": 783, "velocity": 105}, {"time": 120962, "pitch": 61, "duration": 783, "velocity": 113}, {"time": 121203, "pitch": 39, "duration": 210, "velocity": 107}, {"time": 121684, "pitch": 39, "duration": 151, "velocity": 98}, {"time": 121925, "pitch": 39, "duration": 334, "velocity": 100}, {"time": 122161, "pitch": 49, "duration": 245, "velocity": 105}, {"time": 122161, "pitch": 55, "duration": 265, "velocity": 102}, {"time": 122161, "pitch": 58, "duration": 255, "velocity": 107}, {"time": 122396, "pitch": 39, "duration": 161, "velocity": 98}, {"time": 122521, "pitch": 51, "duration": 261, "velocity": 105}, {"time": 122521, "pitch": 55, "duration": 271, "velocity": 107}, {"time": 122521, "pitch": 60, "duration": 251, "velocity": 105}, {"time": 122762, "pitch": 39, "duration": 130, "velocity": 102}, {"time": 122878, "pitch": 51, "duration": 772, "velocity": 107}, {"time": 122878, "pitch": 55, "duration": 782, "velocity": 105}, {"time": 122878, "pitch": 61, "duration": 782, "velocity": 113}, {"time": 123119, "pitch": 39, "duration": 210, "velocity": 107}, {"time": 123600, "pitch": 39, "duration": 151, "velocity": 98}, {"time": 123841, "pitch": 44, "duration": 391, "velocity": 102}, {"time": 123841, "pitch": 55, "duration": 70, "velocity": 107}, {"time": 123841, "pitch": 60, "duration": 80, "velocity": 110}, {"time": 123841, "pitch": 63, "duration": 90, "velocity": 105}, {"time": 124082, "pitch": 55, "duration": 221, "velocity": 107}, {"time": 124082, "pitch": 60, "duration": 241, "velocity": 110}, {"time": 124082, "pitch": 63, "duration": 251, "velocity": 107}, {"time": 124323, "pitch": 44, "duration": 170, "velocity": 110}, {"time": 124447, "pitch": 55, "duration": 191, "velocity": 105}, {"time": 124447, "pitch": 60, "duration": 201, "velocity": 107}, {"time": 124447, "pitch": 63, "duration": 201, "velocity": 105}, {"time": 124563, "pitch": 44, "duration": 79, "velocity": 113}, {"time": 124688, "pitch": 44, "duration": 742, "velocity": 119}, {"time": 124804, "pitch": 55, "duration": 712, "velocity": 116}, {"time": 124804, "pitch": 60, "duration": 722, "velocity": 113}, {"time": 124804, "pitch": 63, "duration": 722, "velocity": 110}, {"time": 125641, "pitch": 42, "duration": 451, "velocity": 87}, {"time": 125757, "pitch": 58, "duration": 80, "velocity": 102}, {"time": 125757, "pitch": 61, "duration": 80, "velocity": 110}, {"time": 125757, "pitch": 66, "duration": 90, "velocity": 105}, {"time": 125998, "pitch": 58, "duration": 261, "velocity": 116}, {"time": 125998, "pitch": 61, "duration": 271, "velocity": 107}, {"time": 125998, "pitch": 66, "duration": 261, "velocity": 110}, {"time": 126239, "pitch": 42, "duration": 170, "velocity": 105}, {"time": 126363, "pitch": 58, "duration": 191, "velocity": 113}, {"time": 126363, "pitch": 61, "duration": 201, "velocity": 110}, {"time": 126363, "pitch": 66, "duration": 191, "velocity": 105}, {"time": 126479, "pitch": 42, "duration": 105, "velocity": 113}, {"time": 126604, "pitch": 42, "duration": 491, "velocity": 113}, {"time": 126720, "pitch": 58, "duration": 522, "velocity": 113}, {"time": 126720, "pitch": 61, "duration": 512, "velocity": 119}, {"time": 126720, "pitch": 66, "duration": 522, "velocity": 113}, {"time": 127683, "pitch": 39, "duration": 341, "velocity": 100}, {"time": 127924, "pitch": 49, "duration": 251, "velocity": 105}, {"time": 127924, "pitch": 55, "duration": 270, "velocity": 102}, {"time": 127924, "pitch": 58, "duration": 260, "velocity": 107}, {"time": 128165, "pitch": 39, "duration": 157, "velocity": 98}, {"time": 128287, "pitch": 51, "duration": 255, "velocity": 105}, {"time": 128287, "pitch": 55, "duration": 265, "velocity": 107}, {"time": 128287, "pitch": 60, "duration": 245, "velocity": 105}, {"time": 128522, "pitch": 39, "duration": 128, "velocity": 102}, {"time": 128636, "pitch": 51, "duration": 773, "velocity": 107}, {"time": 128636, "pitch": 55, "duration": 783, "velocity": 105}, {"time": 128636, "pitch": 61, "duration": 783, "velocity": 113}, {"time": 128877, "pitch": 39, "duration": 211, "velocity": 107}, {"time": 129358, "pitch": 39, "duration": 151, "velocity": 98}, {"time": 129599, "pitch": 39, "duration": 341, "velocity": 100}, {"time": 129840, "pitch": 49, "duration": 251, "velocity": 105}, {"time": 129840, "pitch": 55, "duration": 271, "velocity": 102}, {"time": 129840, "pitch": 58, "duration": 261, "velocity": 107}, {"time": 130081, "pitch": 39, "duration": 160, "velocity": 98}, {"time": 130205, "pitch": 51, "duration": 261, "velocity": 105}, {"time": 130205, "pitch": 55, "duration": 271, "velocity": 107}, {"time": 130205, "pitch": 60, "duration": 251, "velocity": 105}, {"time": 130446, "pitch": 39, "duration": 130, "velocity": 102}, {"time": 130562, "pitch": 51, "duration": 767, "velocity": 107}, {"time": 130562, "pitch": 55, "duration": 776, "velocity": 105}, {"time": 130562, "pitch": 61, "duration": 776, "velocity": 113}, {"time": 130803, "pitch": 39, "duration": 211, "velocity": 107}, {"time": 131280, "pitch": 39, "duration": 147, "velocity": 98}, {"time": 131515, "pitch": 44, "duration": 391, "velocity": 102}, {"time": 131515, "pitch": 55, "duration": 70, "velocity": 107}, {"time": 131515, "pitch": 60, "duration": 80, "velocity": 110}, {"time": 131515, "pitch": 63, "duration": 90, "velocity": 105}, {"time": 131756, "pitch": 55, "duration": 221, "velocity": 107}, {"time": 131756, "pitch": 60, "duration": 241, "velocity": 110}, {"time": 131756, "pitch": 63, "duration": 251, "velocity": 107}, {"time": 131997, "pitch": 44, "duration": 170, "velocity": 110}, {"time": 132121, "pitch": 55, "duration": 191, "velocity": 105}, {"time": 132121, "pitch": 60, "duration": 201, "velocity": 107}, {"time": 132121, "pitch": 63, "duration": 201, "velocity": 105}, {"time": 132237, "pitch": 44, "duration": 79, "velocity": 113}, {"time": 132362, "pitch": 44, "duration": 752, "velocity": 119}, {"time": 132478, "pitch": 55, "duration": 723, "velocity": 116}, {"time": 132478, "pitch": 60, "duration": 733, "velocity": 113}, {"time": 132478, "pitch": 63, "duration": 733, "velocity": 110}, {"time": 133325, "pitch": 42, "duration": 452, "velocity": 87}, {"time": 133441, "pitch": 58, "duration": 81, "velocity": 102}, {"time": 133441, "pitch": 61, "duration": 81, "velocity": 110}, {"time": 133441, "pitch": 66, "duration": 91, "velocity": 105}, {"time": 133682, "pitch": 58, "duration": 261, "velocity": 116}, {"time": 133682, "pitch": 61, "duration": 271, "velocity": 107}, {"time": 133682, "pitch": 66, "duration": 261, "velocity": 110}, {"time": 133923, "pitch": 42, "duration": 171, "velocity": 105}, {"time": 134047, "pitch": 58, "duration": 191, "velocity": 113}, {"time": 134047, "pitch": 61, "duration": 201, "velocity": 110}, {"time": 134047, "pitch": 66, "duration": 191, "velocity": 105}, {"time": 134164, "pitch": 42, "duration": 104, "velocity": 113}, {"time": 134288, "pitch": 42, "duration": 484, "velocity": 113}, {"time": 134405, "pitch": 58, "duration": 511, "velocity": 113}, {"time": 134405, "pitch": 61, "duration": 501, "velocity": 119}, {"time": 134405, "pitch": 66, "duration": 511, "velocity": 113}, {"time": 135117, "pitch": 46, "duration": 391, "velocity": 122}, {"time": 135117, "pitch": 60, "duration": 381, "velocity": 127}, {"time": 135117, "pitch": 63, "duration": 391, "velocity": 127}, {"time": 135117, "pitch": 68, "duration": 381, "velocity": 119}, {"time": 135598, "pitch": 46, "duration": 111, "velocity": 116}, {"time": 135598, "pitch": 60, "duration": 70, "velocity": 116}, {"time": 135598, "pitch": 63, "duration": 60, "velocity": 116}, {"time": 135598, "pitch": 68, "duration": 70, "velocity": 105}, {"time": 135839, "pitch": 46, "duration": 110, "velocity": 107}, {"time": 135839, "pitch": 60, "duration": 70, "velocity": 119}, {"time": 135839, "pitch": 63, "duration": 70, "velocity": 116}, {"time": 135839, "pitch": 68, "duration": 60, "velocity": 107}, {"time": 136080, "pitch": 46, "duration": 100, "velocity": 116}, {"time": 136080, "pitch": 60, "duration": 70, "velocity": 116}, {"time": 136080, "pitch": 63, "duration": 70, "velocity": 113}, {"time": 136080, "pitch": 68, "duration": 70, "velocity": 107}, {"time": 136321, "pitch": 46, "duration": 100, "velocity": 119}, {"time": 136321, "pitch": 60, "duration": 70, "velocity": 119}, {"time": 136321, "pitch": 63, "duration": 60, "velocity": 110}, {"time": 136321, "pitch": 68, "duration": 70, "velocity": 110}, {"time": 136561, "pitch": 46, "duration": 101, "velocity": 116}, {"time": 136561, "pitch": 60, "duration": 71, "velocity": 113}, {"time": 136561, "pitch": 63, "duration": 61, "velocity": 113}, {"time": 136561, "pitch": 68, "duration": 61, "velocity": 110}, {"time": 136802, "pitch": 46, "duration": 100, "velocity": 116}, {"time": 136802, "pitch": 60, "duration": 60, "velocity": 116}, {"time": 136802, "pitch": 63, "duration": 60, "velocity": 116}, {"time": 136802, "pitch": 68, "duration": 60, "velocity": 113}, {"time": 137043, "pitch": 46, "duration": 100, "velocity": 119}, {"time": 137043, "pitch": 60, "duration": 70, "velocity": 122}, {"time": 137043, "pitch": 63, "duration": 70, "velocity": 116}, {"time": 137043, "pitch": 68, "duration": 70, "velocity": 116}, {"time": 137284, "pitch": 46, "duration": 98, "velocity": 127}, {"time": 137284, "pitch": 60, "duration": 59, "velocity": 127}, {"time": 137284, "pitch": 63, "duration": 59, "velocity": 127}, {"time": 137284, "pitch": 67, "duration": 19, "velocity": 87}, {"time": 137284, "pitch": 68, "duration": 68, "velocity": 127}, {"time": 138959, "pitch": 44, "duration": 812, "velocity": 110}, {"time": 138959, "pitch": 55, "duration": 391, "velocity": 116}, {"time": 138959, "pitch": 60, "duration": 401, "velocity": 107}, {"time": 138959, "pitch": 63, "duration": 391, "velocity": 107}, {"time": 139440, "pitch": 55, "duration": 71, "velocity": 107}, {"time": 139440, "pitch": 60, "duration": 71, "velocity": 100}, {"time": 139440, "pitch": 63, "duration": 61, "velocity": 100}, {"time": 139681, "pitch": 55, "duration": 301, "velocity": 116}, {"time": 139681, "pitch": 60, "duration": 301, "velocity": 107}, {"time": 139681, "pitch": 63, "duration": 301, "velocity": 110}, {"time": 139922, "pitch": 44, "duration": 572, "velocity": 107}, {"time": 140163, "pitch": 55, "duration": 70, "velocity": 107}, {"time": 140163, "pitch": 60, "duration": 60, "velocity": 100}, {"time": 140163, "pitch": 63, "duration": 50, "velocity": 102}, {"time": 140404, "pitch": 55, "duration": 329, "velocity": 116}, {"time": 140404, "pitch": 60, "duration": 329, "velocity": 107}, {"time": 140404, "pitch": 63, "duration": 338, "velocity": 107}, {"time": 140644, "pitch": 44, "duration": 226, "velocity": 105}, {"time": 140880, "pitch": 46, "duration": 807, "velocity": 91}, {"time": 140880, "pitch": 56, "duration": 386, "velocity": 122}, {"time": 140880, "pitch": 60, "duration": 386, "velocity": 116}, {"time": 140880, "pitch": 63, "duration": 386, "velocity": 110}, {"time": 141356, "pitch": 56, "duration": 81, "velocity": 100}, {"time": 141356, "pitch": 60, "duration": 71, "velocity": 95}, {"time": 141356, "pitch": 63, "duration": 71, "velocity": 100}, {"time": 141597, "pitch": 56, "duration": 301, "velocity": 119}, {"time": 141597, "pitch": 60, "duration": 301, "velocity": 110}, {"time": 141597, "pitch": 63, "duration": 291, "velocity": 107}, {"time": 141838, "pitch": 46, "duration": 572, "velocity": 105}, {"time": 142079, "pitch": 56, "duration": 80, "velocity": 107}, {"time": 142079, "pitch": 60, "duration": 80, "velocity": 102}, {"time": 142079, "pitch": 63, "duration": 80, "velocity": 102}, {"time": 142319, "pitch": 56, "duration": 332, "velocity": 116}, {"time": 142319, "pitch": 60, "duration": 342, "velocity": 107}, {"time": 142319, "pitch": 63, "duration": 342, "velocity": 110}, {"time": 142560, "pitch": 46, "duration": 241, "velocity": 110}, {"time": 142801, "pitch": 43, "duration": 833, "velocity": 105}, {"time": 142801, "pitch": 53, "duration": 371, "velocity": 107}, {"time": 142801, "pitch": 58, "duration": 381, "velocity": 113}, {"time": 142801, "pitch": 62, "duration": 371, "velocity": 102}, {"time": 143283, "pitch": 53, "duration": 70, "velocity": 102}, {"time": 143283, "pitch": 58, "duration": 70, "velocity": 102}, {"time": 143283, "pitch": 62, "duration": 100, "velocity": 87}, {"time": 143523, "pitch": 53, "duration": 301, "velocity": 116}, {"time": 143523, "pitch": 58, "duration": 311, "velocity": 116}, {"time": 143523, "pitch": 62, "duration": 301, "velocity": 107}, {"time": 143764, "pitch": 43, "duration": 585, "velocity": 105}, {"time": 144005, "pitch": 53, "duration": 69, "velocity": 110}, {"time": 144005, "pitch": 58, "duration": 69, "velocity": 105}, {"time": 144005, "pitch": 62, "duration": 88, "velocity": 91}, {"time": 144241, "pitch": 53, "duration": 315, "velocity": 107}, {"time": 144241, "pitch": 58, "duration": 315, "velocity": 107}, {"time": 144241, "pitch": 62, "duration": 315, "velocity": 105}, {"time": 144476, "pitch": 43, "duration": 131, "velocity": 105}, {"time": 144717, "pitch": 48, "duration": 762, "velocity": 100}, {"time": 144717, "pitch": 53, "duration": 361, "velocity": 122}, {"time": 144717, "pitch": 58, "duration": 371, "velocity": 116}, {"time": 144717, "pitch": 62, "duration": 361, "velocity": 105}, {"time": 145199, "pitch": 53, "duration": 70, "velocity": 110}, {"time": 145199, "pitch": 58, "duration": 50, "velocity": 89}, {"time": 145199, "pitch": 62, "duration": 90, "velocity": 89}, {"time": 145439, "pitch": 53, "duration": 311, "velocity": 113}, {"time": 145439, "pitch": 58, "duration": 311, "velocity": 116}, {"time": 145439, "pitch": 62, "duration": 321, "velocity": 105}, {"time": 145680, "pitch": 48, "duration": 632, "velocity": 107}, {"time": 145921, "pitch": 52, "duration": 130, "velocity": 113}, {"time": 145921, "pitch": 58, "duration": 110, "velocity": 107}, {"time": 145921, "pitch": 62, "duration": 130, "velocity": 102}, {"time": 146162, "pitch": 52, "duration": 261, "velocity": 119}, {"time": 146162, "pitch": 58, "duration": 271, "velocity": 110}, {"time": 146162, "pitch": 62, "duration": 271, "velocity": 105}, {"time": 146403, "pitch": 48, "duration": 220, "velocity": 110}, {"time": 146643, "pitch": 44, "duration": 803, "velocity": 110}, {"time": 146643, "pitch": 55, "duration": 388, "velocity": 116}, {"time": 146643, "pitch": 60, "duration": 398, "velocity": 107}, {"time": 146643, "pitch": 63, "duration": 388, "velocity": 107}, {"time": 147120, "pitch": 55, "duration": 68, "velocity": 107}, {"time": 147120, "pitch": 60, "duration": 68, "velocity": 100}, {"time": 147120, "pitch": 63, "duration": 59, "velocity": 100}, {"time": 147355, "pitch": 55, "duration": 301, "velocity": 116}, {"time": 147355, "pitch": 60, "duration": 301, "velocity": 107}, {"time": 147355, "pitch": 63, "duration": 301, "velocity": 110}, {"time": 147596, "pitch": 44, "duration": 572, "velocity": 107}, {"time": 147837, "pitch": 55, "duration": 70, "velocity": 107}, {"time": 147837, "pitch": 60, "duration": 60, "velocity": 100}, {"time": 147837, "pitch": 63, "duration": 50, "velocity": 102}, {"time": 148078, "pitch": 55, "duration": 331, "velocity": 116}, {"time": 148078, "pitch": 60, "duration": 331, "velocity": 107}, {"time": 148078, "pitch": 63, "duration": 341, "velocity": 107}, {"time": 148318, "pitch": 44, "duration": 231, "velocity": 105}, {"time": 148559, "pitch": 46, "duration": 813, "velocity": 91}, {"time": 148559, "pitch": 56, "duration": 391, "velocity": 122}, {"time": 148559, "pitch": 60, "duration": 391, "velocity": 116}, {"time": 148559, "pitch": 63, "duration": 391, "velocity": 110}, {"time": 149041, "pitch": 56, "duration": 80, "velocity": 100}, {"time": 149041, "pitch": 60, "duration": 70, "velocity": 95}, {"time": 149041, "pitch": 63, "duration": 70, "velocity": 100}, {"time": 149282, "pitch": 56, "duration": 301, "velocity": 119}, {"time": 149282, "pitch": 60, "duration": 301, "velocity": 110}, {"time": 149282, "pitch": 63, "duration": 291, "velocity": 107}, {"time": 149522, "pitch": 46, "duration": 572, "velocity": 105}, {"time": 149763, "pitch": 56, "duration": 80, "velocity": 107}, {"time": 149763, "pitch": 60, "duration": 80, "velocity": 102}, {"time": 149763, "pitch": 63, "duration": 80, "velocity": 102}, {"time": 150004, "pitch": 56, "duration": 329, "velocity": 116}, {"time": 150004, "pitch": 60, "duration": 339, "velocity": 107}, {"time": 150004, "pitch": 63, "duration": 339, "velocity": 110}, {"time": 150245, "pitch": 46, "duration": 235, "velocity": 110}, {"time": 150480, "pitch": 43, "duration": 828, "velocity": 105}, {"time": 150480, "pitch": 53, "duration": 366, "velocity": 107}, {"time": 150480, "pitch": 58, "duration": 376, "velocity": 113}, {"time": 150480, "pitch": 62, "duration": 366, "velocity": 102}, {"time": 150957, "pitch": 53, "duration": 70, "velocity": 102}, {"time": 150957, "pitch": 58, "duration": 70, "velocity": 102}, {"time": 150957, "pitch": 62, "duration": 100, "velocity": 87}, {"time": 151197, "pitch": 53, "duration": 301, "velocity": 116}, {"time": 151197, "pitch": 58, "duration": 312, "velocity": 116}, {"time": 151197, "pitch": 62, "duration": 301, "velocity": 107}, {"time": 151438, "pitch": 43, "duration": 592, "velocity": 105}, {"time": 151679, "pitch": 53, "duration": 70, "velocity": 110}, {"time": 151679, "pitch": 58, "duration": 70, "velocity": 105}, {"time": 151679, "pitch": 62, "duration": 90, "velocity": 91}, {"time": 151920, "pitch": 53, "duration": 321, "velocity": 107}, {"time": 151920, "pitch": 58, "duration": 321, "velocity": 107}, {"time": 151920, "pitch": 62, "duration": 321, "velocity": 105}, {"time": 152161, "pitch": 43, "duration": 130, "velocity": 105}, {"time": 152401, "pitch": 48, "duration": 762, "velocity": 100}, {"time": 152401, "pitch": 53, "duration": 362, "velocity": 122}, {"time": 152401, "pitch": 58, "duration": 372, "velocity": 116}, {"time": 152401, "pitch": 62, "duration": 362, "velocity": 105}, {"time": 152883, "pitch": 53, "duration": 70, "velocity": 110}, {"time": 152883, "pitch": 58, "duration": 50, "velocity": 89}, {"time": 152883, "pitch": 62, "duration": 90, "velocity": 89}, {"time": 153124, "pitch": 53, "duration": 304, "velocity": 113}, {"time": 153124, "pitch": 58, "duration": 304, "velocity": 116}, {"time": 153124, "pitch": 62, "duration": 314, "velocity": 105}, {"time": 153359, "pitch": 48, "duration": 627, "velocity": 107}, {"time": 153595, "pitch": 52, "duration": 130, "velocity": 113}, {"time": 153595, "pitch": 58, "duration": 110, "velocity": 107}, {"time": 153595, "pitch": 62, "duration": 130, "velocity": 102}, {"time": 153836, "pitch": 52, "duration": 261, "velocity": 119}, {"time": 153836, "pitch": 58, "duration": 271, "velocity": 110}, {"time": 153836, "pitch": 62, "duration": 271, "velocity": 105}, {"time": 154077, "pitch": 48, "duration": 220, "velocity": 110}, {"time": 154317, "pitch": 41, "duration": 853, "velocity": 95}, {"time": 154317, "pitch": 56, "duration": 321, "velocity": 116}, {"time": 154317, "pitch": 60, "duration": 331, "velocity": 116}, {"time": 154317, "pitch": 63, "duration": 321, "velocity": 105}, {"time": 154799, "pitch": 56, "duration": 70, "velocity": 107}, {"time": 154799, "pitch": 60, "duration": 70, "velocity": 113}, {"time": 154799, "pitch": 63, "duration": 70, "velocity": 105}, {"time": 155040, "pitch": 56, "duration": 291, "velocity": 122}, {"time": 155040, "pitch": 60, "duration": 301, "velocity": 122}, {"time": 155040, "pitch": 63, "duration": 281, "velocity": 110}, {"time": 155281, "pitch": 41, "duration": 220, "velocity": 102}, {"time": 155521, "pitch": 41, "duration": 271, "velocity": 105}, {"time": 155521, "pitch": 56, "duration": 111, "velocity": 107}, {"time": 155521, "pitch": 60, "duration": 101, "velocity": 110}, {"time": 155521, "pitch": 63, "duration": 101, "velocity": 102}, {"time": 155762, "pitch": 43, "duration": 221, "velocity": 89}, {"time": 155762, "pitch": 56, "duration": 241, "velocity": 122}, {"time": 155762, "pitch": 60, "duration": 261, "velocity": 119}, {"time": 155762, "pitch": 63, "duration": 241, "velocity": 105}, {"time": 156003, "pitch": 44, "duration": 231, "velocity": 82}, {"time": 156244, "pitch": 46, "duration": 250, "velocity": 122}, {"time": 156244, "pitch": 56, "duration": 190, "velocity": 122}, {"time": 156244, "pitch": 60, "duration": 200, "velocity": 127}, {"time": 156244, "pitch": 63, "duration": 200, "velocity": 113}, {"time": 156956, "pitch": 46, "duration": 1394, "velocity": 113}, {"time": 156956, "pitch": 56, "duration": 1354, "velocity": 119}, {"time": 156956, "pitch": 60, "duration": 1364, "velocity": 122}, {"time": 156956, "pitch": 63, "duration": 1324, "velocity": 119}, {"time": 158400, "pitch": 39, "duration": 342, "velocity": 100}, {"time": 158641, "pitch": 49, "duration": 251, "velocity": 105}, {"time": 158641, "pitch": 55, "duration": 271, "velocity": 102}, {"time": 158641, "pitch": 58, "duration": 261, "velocity": 107}, {"time": 158882, "pitch": 39, "duration": 161, "velocity": 98}, {"time": 159006, "pitch": 51, "duration": 261, "velocity": 105}, {"time": 159006, "pitch": 55, "duration": 271, "velocity": 107}, {"time": 159006, "pitch": 60, "duration": 251, "velocity": 105}, {"time": 159247, "pitch": 39, "duration": 131, "velocity": 102}, {"time": 159364, "pitch": 51, "duration": 291, "velocity": 107}, {"time": 159364, "pitch": 55, "duration": 301, "velocity": 105}, {"time": 159364, "pitch": 61, "duration": 301, "velocity": 113}, {"time": 159604, "pitch": 39, "duration": 91, "velocity": 107}, {"time": 159725, "pitch": 55, "duration": 331, "velocity": 95}, {"time": 159725, "pitch": 58, "duration": 338, "velocity": 91}, {"time": 159725, "pitch": 63, "duration": 338, "velocity": 105}, {"time": 159845, "pitch": 39, "duration": 147, "velocity": 98}, {"time": 160081, "pitch": 39, "duration": 147, "velocity": 98}, {"time": 160081, "pitch": 55, "duration": 304, "velocity": 105}, {"time": 160081, "pitch": 58, "duration": 299, "velocity": 107}, {"time": 160081, "pitch": 61, "duration": 315, "velocity": 107}, {"time": 160316, "pitch": 39, "duration": 281, "velocity": 113}, {"time": 160557, "pitch": 49, "duration": 241, "velocity": 105}, {"time": 160557, "pitch": 55, "duration": 271, "velocity": 102}, {"time": 160557, "pitch": 58, "duration": 241, "velocity": 105}, {"time": 160798, "pitch": 39, "duration": 191, "velocity": 102}, {"time": 160922, "pitch": 51, "duration": 251, "velocity": 113}, {"time": 160922, "pitch": 55, "duration": 261, "velocity": 105}, {"time": 160922, "pitch": 60, "duration": 231, "velocity": 107}, {"time": 161163, "pitch": 39, "duration": 161, "velocity": 105}, {"time": 161279, "pitch": 49, "duration": 301, "velocity": 110}, {"time": 161279, "pitch": 54, "duration": 311, "velocity": 107}, {"time": 161279, "pitch": 58, "duration": 301, "velocity": 107}, {"time": 161520, "pitch": 39, "duration": 241, "velocity": 102}, {"time": 161761, "pitch": 49, "duration": 321, "velocity": 110}, {"time": 161761, "pitch": 54, "duration": 331, "velocity": 110}, {"time": 161761, "pitch": 58, "duration": 321, "velocity": 107}, {"time": 162002, "pitch": 39, "duration": 180, "velocity": 105}, {"time": 162243, "pitch": 39, "duration": 341, "velocity": 100}, {"time": 162483, "pitch": 49, "duration": 251, "velocity": 105}, {"time": 162483, "pitch": 55, "duration": 271, "velocity": 102}, {"time": 162483, "pitch": 58, "duration": 261, "velocity": 107}, {"time": 162724, "pitch": 39, "duration": 157, "velocity": 98}, {"time": 162846, "pitch": 51, "duration": 255, "velocity": 105}, {"time": 162846, "pitch": 55, "duration": 265, "velocity": 107}, {"time": 162846, "pitch": 60, "duration": 245, "velocity": 105}, {"time": 163082, "pitch": 39, "duration": 127, "velocity": 102}, {"time": 163195, "pitch": 51, "duration": 291, "velocity": 107}, {"time": 163195, "pitch": 55, "duration": 301, "velocity": 105}, {"time": 163195, "pitch": 61, "duration": 301, "velocity": 113}, {"time": 163436, "pitch": 39, "duration": 90, "velocity": 107}, {"time": 163557, "pitch": 55, "duration": 336, "velocity": 95}, {"time": 163557, "pitch": 58, "duration": 343, "velocity": 91}, {"time": 163557, "pitch": 63, "duration": 343, "velocity": 105}, {"time": 163677, "pitch": 39, "duration": 150, "velocity": 98}, {"time": 163918, "pitch": 39, "duration": 150, "velocity": 98}, {"time": 163918, "pitch": 55, "duration": 309, "velocity": 105}, {"time": 163918, "pitch": 58, "duration": 304, "velocity": 107}, {"time": 163918, "pitch": 61, "duration": 320, "velocity": 107}, {"time": 164159, "pitch": 39, "duration": 280, "velocity": 113}, {"time": 164399, "pitch": 49, "duration": 241, "velocity": 105}, {"time": 164399, "pitch": 55, "duration": 271, "velocity": 102}, {"time": 164399, "pitch": 58, "duration": 241, "velocity": 105}, {"time": 164640, "pitch": 39, "duration": 191, "velocity": 102}, {"time": 164765, "pitch": 51, "duration": 250, "velocity": 113}, {"time": 164765, "pitch": 55, "duration": 260, "velocity": 105}, {"time": 164765, "pitch": 60, "duration": 230, "velocity": 107}, {"time": 165005, "pitch": 39, "duration": 161, "velocity": 105}, {"time": 165122, "pitch": 49, "duration": 301, "velocity": 110}, {"time": 165122, "pitch": 54, "duration": 311, "velocity": 107}, {"time": 165122, "pitch": 58, "duration": 301, "velocity": 107}, {"time": 165363, "pitch": 39, "duration": 240, "velocity": 102}, {"time": 165603, "pitch": 49, "duration": 321, "velocity": 110}, {"time": 165603, "pitch": 54, "duration": 331, "velocity": 110}, {"time": 165603, "pitch": 58, "duration": 321, "velocity": 107}, {"time": 165844, "pitch": 39, "duration": 181, "velocity": 105}, {"time": 166085, "pitch": 39, "duration": 334, "velocity": 100}, {"time": 166320, "pitch": 49, "duration": 246, "velocity": 105}, {"time": 166320, "pitch": 55, "duration": 266, "velocity": 102}, {"time": 166320, "pitch": 58, "duration": 256, "velocity": 107}, {"time": 166556, "pitch": 39, "duration": 161, "velocity": 98}, {"time": 166680, "pitch": 51, "duration": 261, "velocity": 105}, {"time": 166680, "pitch": 55, "duration": 271, "velocity": 107}, {"time": 166680, "pitch": 60, "duration": 251, "velocity": 105}, {"time": 166921, "pitch": 39, "duration": 131, "velocity": 102}, {"time": 167038, "pitch": 51, "duration": 291, "velocity": 107}, {"time": 167038, "pitch": 55, "duration": 301, "velocity": 105}, {"time": 167038, "pitch": 61, "duration": 301, "velocity": 113}, {"time": 167278, "pitch": 39, "duration": 91, "velocity": 107}, {"time": 167399, "pitch": 55, "duration": 336, "velocity": 95}, {"time": 167399, "pitch": 58, "duration": 343, "velocity": 91}, {"time": 167399, "pitch": 63, "duration": 343, "velocity": 105}, {"time": 167519, "pitch": 39, "duration": 151, "velocity": 98}, {"time": 167760, "pitch": 39, "duration": 150, "velocity": 98}, {"time": 167760, "pitch": 55, "duration": 309, "velocity": 105}, {"time": 167760, "pitch": 58, "duration": 304, "velocity": 107}, {"time": 167760, "pitch": 61, "duration": 320, "velocity": 107}, {"time": 168001, "pitch": 39, "duration": 281, "velocity": 113}, {"time": 168242, "pitch": 49, "duration": 240, "velocity": 105}, {"time": 168242, "pitch": 55, "duration": 270, "velocity": 102}, {"time": 168242, "pitch": 58, "duration": 240, "velocity": 105}, {"time": 168482, "pitch": 39, "duration": 191, "velocity": 102}, {"time": 168607, "pitch": 51, "duration": 251, "velocity": 113}, {"time": 168607, "pitch": 55, "duration": 261, "velocity": 105}, {"time": 168607, "pitch": 60, "duration": 231, "velocity": 107}, {"time": 168848, "pitch": 39, "duration": 159, "velocity": 105}, {"time": 168964, "pitch": 49, "duration": 294, "velocity": 110}, {"time": 168964, "pitch": 54, "duration": 304, "velocity": 107}, {"time": 168964, "pitch": 58, "duration": 294, "velocity": 107}, {"time": 169200, "pitch": 39, "duration": 235, "velocity": 102}, {"time": 169435, "pitch": 49, "duration": 321, "velocity": 110}, {"time": 169435, "pitch": 54, "duration": 331, "velocity": 110}, {"time": 169435, "pitch": 58, "duration": 321, "velocity": 107}, {"time": 169676, "pitch": 39, "duration": 181, "velocity": 105}, {"time": 169917, "pitch": 39, "duration": 341, "velocity": 100}, {"time": 170157, "pitch": 49, "duration": 251, "velocity": 105}, {"time": 170157, "pitch": 55, "duration": 271, "velocity": 102}, {"time": 170157, "pitch": 58, "duration": 261, "velocity": 107}, {"time": 170398, "pitch": 39, "duration": 161, "velocity": 98}, {"time": 170523, "pitch": 51, "duration": 261, "velocity": 105}, {"time": 170523, "pitch": 55, "duration": 271, "velocity": 107}, {"time": 170523, "pitch": 60, "duration": 251, "velocity": 105}, {"time": 170763, "pitch": 39, "duration": 131, "velocity": 102}, {"time": 170880, "pitch": 51, "duration": 291, "velocity": 107}, {"time": 170880, "pitch": 55, "duration": 301, "velocity": 105}, {"time": 170880, "pitch": 61, "duration": 301, "velocity": 113}, {"time": 171121, "pitch": 39, "duration": 90, "velocity": 107}, {"time": 171241, "pitch": 55, "duration": 336, "velocity": 95}, {"time": 171241, "pitch": 58, "duration": 343, "velocity": 91}, {"time": 171241, "pitch": 63, "duration": 343, "velocity": 105}, {"time": 171361, "pitch": 39, "duration": 151, "velocity": 98}, {"time": 171602, "pitch": 39, "duration": 151, "velocity": 98}, {"time": 171602, "pitch": 55, "duration": 309, "velocity": 105}, {"time": 171602, "pitch": 58, "duration": 304, "velocity": 107}, {"time": 171602, "pitch": 61, "duration": 320, "velocity": 107}, {"time": 171843, "pitch": 39, "duration": 281, "velocity": 113}, {"time": 172084, "pitch": 49, "duration": 241, "velocity": 105}, {"time": 172084, "pitch": 55, "duration": 270, "velocity": 102}, {"time": 172084, "pitch": 58, "duration": 241, "velocity": 105}, {"time": 172325, "pitch": 39, "duration": 186, "velocity": 102}, {"time": 172446, "pitch": 51, "duration": 246, "velocity": 113}, {"time": 172446, "pitch": 55, "duration": 256, "velocity": 105}, {"time": 172446, "pitch": 60, "duration": 226, "velocity": 107}, {"time": 172682, "pitch": 39, "duration": 158, "velocity": 105}, {"time": 172796, "pitch": 49, "duration": 301, "velocity": 110}, {"time": 172796, "pitch": 54, "duration": 311, "velocity": 107}, {"time": 172796, "pitch": 58, "duration": 301, "velocity": 107}, {"time": 173037, "pitch": 39, "duration": 240, "velocity": 102}, {"time": 173277, "pitch": 49, "duration": 321, "velocity": 110}, {"time": 173277, "pitch": 54, "duration": 331, "velocity": 110}, {"time": 173277, "pitch": 58, "duration": 321, "velocity": 107}, {"time": 173518, "pitch": 39, "duration": 181, "velocity": 105}, {"time": 173759, "pitch": 44, "duration": 391, "velocity": 102}, {"time": 173759, "pitch": 55, "duration": 70, "velocity": 107}, {"time": 173759, "pitch": 60, "duration": 80, "velocity": 110}, {"time": 173759, "pitch": 63, "duration": 90, "velocity": 105}, {"time": 174000, "pitch": 55, "duration": 220, "velocity": 107}, {"time": 174000, "pitch": 60, "duration": 241, "velocity": 110}, {"time": 174000, "pitch": 63, "duration": 251, "velocity": 107}, {"time": 174241, "pitch": 44, "duration": 170, "velocity": 110}, {"time": 174365, "pitch": 55, "duration": 191, "velocity": 105}, {"time": 174365, "pitch": 60, "duration": 201, "velocity": 107}, {"time": 174365, "pitch": 63, "duration": 201, "velocity": 105}, {"time": 174481, "pitch": 44, "duration": 79, "velocity": 113}, {"time": 174606, "pitch": 44, "duration": 749, "velocity": 119}, {"time": 174722, "pitch": 55, "duration": 717, "velocity": 116}, {"time": 174722, "pitch": 60, "duration": 727, "velocity": 113}, {"time": 174722, "pitch": 63, "duration": 727, "velocity": 110}, {"time": 175561, "pitch": 42, "duration": 449, "velocity": 87}, {"time": 175675, "pitch": 58, "duration": 80, "velocity": 102}, {"time": 175675, "pitch": 61, "duration": 80, "velocity": 110}, {"time": 175675, "pitch": 66, "duration": 90, "velocity": 105}, {"time": 175916, "pitch": 58, "duration": 261, "velocity": 116}, {"time": 175916, "pitch": 61, "duration": 271, "velocity": 107}, {"time": 175916, "pitch": 66, "duration": 261, "velocity": 110}, {"time": 176156, "pitch": 42, "duration": 171, "velocity": 105}, {"time": 176281, "pitch": 58, "duration": 190, "velocity": 113}, {"time": 176281, "pitch": 61, "duration": 201, "velocity": 110}, {"time": 176281, "pitch": 66, "duration": 190, "velocity": 105}, {"time": 176397, "pitch": 42, "duration": 105, "velocity": 113}, {"time": 176522, "pitch": 42, "duration": 491, "velocity": 113}, {"time": 176638, "pitch": 58, "duration": 522, "velocity": 113}, {"time": 176638, "pitch": 61, "duration": 512, "velocity": 119}, {"time": 176638, "pitch": 66, "duration": 522, "velocity": 113}, {"time": 177601, "pitch": 39, "duration": 341, "velocity": 100}, {"time": 177842, "pitch": 49, "duration": 251, "velocity": 105}, {"time": 177842, "pitch": 55, "duration": 271, "velocity": 102}, {"time": 177842, "pitch": 58, "duration": 261, "velocity": 107}, {"time": 178083, "pitch": 39, "duration": 160, "velocity": 98}, {"time": 178207, "pitch": 51, "duration": 261, "velocity": 105}, {"time": 178207, "pitch": 55, "duration": 271, "velocity": 107}, {"time": 178207, "pitch": 60, "duration": 251, "velocity": 105}, {"time": 178448, "pitch": 39, "duration": 130, "velocity": 102}, {"time": 178564, "pitch": 51, "duration": 762, "velocity": 107}, {"time": 178564, "pitch": 55, "duration": 773, "velocity": 105}, {"time": 178564, "pitch": 61, "duration": 773, "velocity": 113}, {"time": 178800, "pitch": 39, "duration": 206, "velocity": 107}, {"time": 179276, "pitch": 39, "duration": 151, "velocity": 98}, {"time": 179517, "pitch": 39, "duration": 341, "velocity": 100}, {"time": 179758, "pitch": 49, "duration": 251, "velocity": 105}, {"time": 179758, "pitch": 55, "duration": 271, "velocity": 102}, {"time": 179758, "pitch": 58, "duration": 261, "velocity": 107}, {"time": 179999, "pitch": 39, "duration": 160, "velocity": 98}, {"time": 180123, "pitch": 51, "duration": 261, "velocity": 105}, {"time": 180123, "pitch": 55, "duration": 271, "velocity": 107}, {"time": 180123, "pitch": 60, "duration": 251, "velocity": 105}, {"time": 180364, "pitch": 39, "duration": 130, "velocity": 102}, {"time": 180480, "pitch": 51, "duration": 773, "velocity": 107}, {"time": 180480, "pitch": 55, "duration": 783, "velocity": 105}, {"time": 180480, "pitch": 61, "duration": 783, "velocity": 113}, {"time": 180721, "pitch": 39, "duration": 211, "velocity": 107}, {"time": 181203, "pitch": 39, "duration": 150, "velocity": 98}, {"time": 181443, "pitch": 44, "duration": 392, "velocity": 102}, {"time": 181443, "pitch": 55, "duration": 71, "velocity": 107}, {"time": 181443, "pitch": 60, "duration": 81, "velocity": 110}, {"time": 181443, "pitch": 63, "duration": 91, "velocity": 105}, {"time": 181684, "pitch": 55, "duration": 221, "velocity": 107}, {"time": 181684, "pitch": 60, "duration": 241, "velocity": 110}, {"time": 181684, "pitch": 63, "duration": 251, "velocity": 107}, {"time": 181925, "pitch": 44, "duration": 167, "velocity": 110}, {"time": 182047, "pitch": 55, "duration": 186, "velocity": 105}, {"time": 182047, "pitch": 60, "duration": 196, "velocity": 107}, {"time": 182047, "pitch": 63, "duration": 196, "velocity": 105}, {"time": 182161, "pitch": 44, "duration": 76, "velocity": 113}, {"time": 182282, "pitch": 44, "duration": 750, "velocity": 119}, {"time": 182396, "pitch": 55, "duration": 723, "velocity": 116}, {"time": 182396, "pitch": 60, "duration": 733, "velocity": 113}, {"time": 182396, "pitch": 63, "duration": 733, "velocity": 110}, {"time": 183243, "pitch": 42, "duration": 451, "velocity": 87}, {"time": 183359, "pitch": 58, "duration": 81, "velocity": 102}, {"time": 183359, "pitch": 61, "duration": 81, "velocity": 110}, {"time": 183359, "pitch": 66, "duration": 91, "velocity": 105}, {"time": 183600, "pitch": 58, "duration": 261, "velocity": 116}, {"time": 183600, "pitch": 61, "duration": 271, "velocity": 107}, {"time": 183600, "pitch": 66, "duration": 261, "velocity": 110}, {"time": 183841, "pitch": 42, "duration": 170, "velocity": 105}, {"time": 183965, "pitch": 58, "duration": 191, "velocity": 113}, {"time": 183965, "pitch": 61, "duration": 201, "velocity": 110}, {"time": 183965, "pitch": 66, "duration": 191, "velocity": 105}, {"time": 184082, "pitch": 42, "duration": 104, "velocity": 113}, {"time": 184206, "pitch": 42, "duration": 492, "velocity": 113}, {"time": 184323, "pitch": 58, "duration": 520, "velocity": 113}, {"time": 184323, "pitch": 61, "duration": 510, "velocity": 119}, {"time": 184323, "pitch": 66, "duration": 520, "velocity": 113}, {"time": 185040, "pitch": 46, "duration": 386, "velocity": 122}, {"time": 185040, "pitch": 60, "duration": 376, "velocity": 127}, {"time": 185040, "pitch": 63, "duration": 386, "velocity": 127}, {"time": 185040, "pitch": 68, "duration": 376, "velocity": 119}, {"time": 185516, "pitch": 46, "duration": 110, "velocity": 116}, {"time": 185516, "pitch": 60, "duration": 70, "velocity": 116}, {"time": 185516, "pitch": 63, "duration": 60, "velocity": 116}, {"time": 185516, "pitch": 68, "duration": 70, "velocity": 105}, {"time": 185757, "pitch": 46, "duration": 110, "velocity": 107}, {"time": 185757, "pitch": 60, "duration": 70, "velocity": 119}, {"time": 185757, "pitch": 63, "duration": 70, "velocity": 116}, {"time": 185757, "pitch": 68, "duration": 60, "velocity": 107}, {"time": 185998, "pitch": 46, "duration": 100, "velocity": 116}, {"time": 185998, "pitch": 60, "duration": 70, "velocity": 116}, {"time": 185998, "pitch": 63, "duration": 70, "velocity": 113}, {"time": 185998, "pitch": 68, "duration": 70, "velocity": 107}, {"time": 186238, "pitch": 46, "duration": 101, "velocity": 119}, {"time": 186238, "pitch": 60, "duration": 71, "velocity": 119}, {"time": 186238, "pitch": 63, "duration": 61, "velocity": 110}, {"time": 186238, "pitch": 68, "duration": 71, "velocity": 110}, {"time": 186479, "pitch": 46, "duration": 101, "velocity": 116}, {"time": 186479, "pitch": 60, "duration": 70, "velocity": 113}, {"time": 186479, "pitch": 63, "duration": 60, "velocity": 113}, {"time": 186479, "pitch": 68, "duration": 60, "velocity": 110}, {"time": 186720, "pitch": 46, "duration": 100, "velocity": 116}, {"time": 186720, "pitch": 60, "duration": 60, "velocity": 116}, {"time": 186720, "pitch": 63, "duration": 60, "velocity": 116}, {"time": 186720, "pitch": 68, "duration": 60, "velocity": 113}, {"time": 186961, "pitch": 46, "duration": 100, "velocity": 119}, {"time": 186961, "pitch": 60, "duration": 70, "velocity": 122}, {"time": 186961, "pitch": 63, "duration": 70, "velocity": 116}, {"time": 186961, "pitch": 68, "duration": 70, "velocity": 116}, {"time": 187202, "pitch": 46, "duration": 100, "velocity": 127}, {"time": 187202, "pitch": 60, "duration": 60, "velocity": 127}, {"time": 187202, "pitch": 63, "duration": 60, "velocity": 127}, {"time": 187202, "pitch": 67, "duration": 20, "velocity": 87}, {"time": 187202, "pitch": 68, "duration": 70, "velocity": 127}, {"time": 188877, "pitch": 44, "duration": 812, "velocity": 110}, {"time": 188877, "pitch": 55, "duration": 391, "velocity": 116}, {"time": 188877, "pitch": 60, "duration": 401, "velocity": 107}, {"time": 188877, "pitch": 63, "duration": 391, "velocity": 107}, {"time": 189358, "pitch": 55, "duration": 71, "velocity": 107}, {"time": 189358, "pitch": 60, "duration": 71, "velocity": 100}, {"time": 189358, "pitch": 63, "duration": 60, "velocity": 100}, {"time": 189599, "pitch": 55, "duration": 301, "velocity": 116}, {"time": 189599, "pitch": 60, "duration": 301, "velocity": 107}, {"time": 189599, "pitch": 63, "duration": 301, "velocity": 110}, {"time": 189840, "pitch": 44, "duration": 572, "velocity": 107}, {"time": 190081, "pitch": 55, "duration": 70, "velocity": 107}, {"time": 190081, "pitch": 60, "duration": 60, "velocity": 100}, {"time": 190081, "pitch": 63, "duration": 50, "velocity": 102}, {"time": 190321, "pitch": 55, "duration": 332, "velocity": 116}, {"time": 190321, "pitch": 60, "duration": 332, "velocity": 107}, {"time": 190321, "pitch": 63, "duration": 342, "velocity": 107}, {"time": 190562, "pitch": 44, "duration": 231, "velocity": 105}, {"time": 190803, "pitch": 46, "duration": 802, "velocity": 91}, {"time": 190803, "pitch": 56, "duration": 388, "velocity": 122}, {"time": 190803, "pitch": 60, "duration": 388, "velocity": 116}, {"time": 190803, "pitch": 63, "duration": 388, "velocity": 110}, {"time": 191279, "pitch": 56, "duration": 79, "velocity": 100}, {"time": 191279, "pitch": 60, "duration": 69, "velocity": 95}, {"time": 191279, "pitch": 63, "duration": 69, "velocity": 100}, {"time": 191515, "pitch": 56, "duration": 301, "velocity": 119}, {"time": 191515, "pitch": 60, "duration": 301, "velocity": 110}, {"time": 191515, "pitch": 63, "duration": 291, "velocity": 107}, {"time": 191756, "pitch": 46, "duration": 572, "velocity": 105}, {"time": 191997, "pitch": 56, "duration": 80, "velocity": 107}, {"time": 191997, "pitch": 60, "duration": 80, "velocity": 102}, {"time": 191997, "pitch": 63, "duration": 80, "velocity": 102}, {"time": 192237, "pitch": 56, "duration": 331, "velocity": 116}, {"time": 192237, "pitch": 60, "duration": 341, "velocity": 107}, {"time": 192237, "pitch": 63, "duration": 341, "velocity": 110}, {"time": 192478, "pitch": 46, "duration": 241, "velocity": 110}, {"time": 192719, "pitch": 43, "duration": 833, "velocity": 105}, {"time": 192719, "pitch": 53, "duration": 371, "velocity": 107}, {"time": 192719, "pitch": 58, "duration": 381, "velocity": 113}, {"time": 192719, "pitch": 62, "duration": 371, "velocity": 102}, {"time": 193201, "pitch": 53, "duration": 70, "velocity": 102}, {"time": 193201, "pitch": 58, "duration": 70, "velocity": 102}, {"time": 193201, "pitch": 62, "duration": 100, "velocity": 87}, {"time": 193441, "pitch": 53, "duration": 301, "velocity": 116}, {"time": 193441, "pitch": 58, "duration": 311, "velocity": 116}, {"time": 193441, "pitch": 62, "duration": 301, "velocity": 107}, {"time": 193682, "pitch": 43, "duration": 592, "velocity": 105}, {"time": 193923, "pitch": 53, "duration": 70, "velocity": 110}, {"time": 193923, "pitch": 58, "duration": 70, "velocity": 105}, {"time": 193923, "pitch": 62, "duration": 90, "velocity": 91}, {"time": 194164, "pitch": 53, "duration": 319, "velocity": 107}, {"time": 194164, "pitch": 58, "duration": 319, "velocity": 107}, {"time": 194164, "pitch": 62, "duration": 319, "velocity": 105}, {"time": 194404, "pitch": 43, "duration": 128, "velocity": 105}, {"time": 194640, "pitch": 48, "duration": 757, "velocity": 100}, {"time": 194640, "pitch": 53, "duration": 356, "velocity": 122}, {"time": 194640, "pitch": 58, "duration": 366, "velocity": 116}, {"time": 194640, "pitch": 62, "duration": 356, "velocity": 105}, {"time": 195116, "pitch": 53, "duration": 71, "velocity": 110}, {"time": 195116, "pitch": 58, "duration": 51, "velocity": 89}, {"time": 195116, "pitch": 62, "duration": 91, "velocity": 89}, {"time": 195357, "pitch": 53, "duration": 311, "velocity": 113}, {"time": 195357, "pitch": 58, "duration": 311, "velocity": 116}, {"time": 195357, "pitch": 62, "duration": 321, "velocity": 105}, {"time": 195598, "pitch": 48, "duration": 632, "velocity": 107}, {"time": 195839, "pitch": 52, "duration": 130, "velocity": 113}, {"time": 195839, "pitch": 58, "duration": 110, "velocity": 107}, {"time": 195839, "pitch": 62, "duration": 130, "velocity": 102}, {"time": 196080, "pitch": 52, "duration": 260, "velocity": 119}, {"time": 196080, "pitch": 58, "duration": 271, "velocity": 110}, {"time": 196080, "pitch": 62, "duration": 271, "velocity": 105}, {"time": 196320, "pitch": 48, "duration": 221, "velocity": 110}, {"time": 196561, "pitch": 44, "duration": 813, "velocity": 110}, {"time": 196561, "pitch": 55, "duration": 391, "velocity": 116}, {"time": 196561, "pitch": 60, "duration": 402, "velocity": 107}, {"time": 196561, "pitch": 63, "duration": 391, "velocity": 107}, {"time": 197043, "pitch": 55, "duration": 70, "velocity": 107}, {"time": 197043, "pitch": 60, "duration": 70, "velocity": 100}, {"time": 197043, "pitch": 63, "duration": 60, "velocity": 100}, {"time": 197284, "pitch": 55, "duration": 301, "velocity": 116}, {"time": 197284, "pitch": 60, "duration": 301, "velocity": 107}, {"time": 197284, "pitch": 63, "duration": 301, "velocity": 110}, {"time": 197524, "pitch": 44, "duration": 565, "velocity": 107}, {"time": 197765, "pitch": 55, "duration": 69, "velocity": 107}, {"time": 197765, "pitch": 60, "duration": 59, "velocity": 100}, {"time": 197765, "pitch": 63, "duration": 49, "velocity": 102}, {"time": 198001, "pitch": 55, "duration": 326, "velocity": 116}, {"time": 198001, "pitch": 60, "duration": 326, "velocity": 107}, {"time": 198001, "pitch": 63, "duration": 336, "velocity": 107}, {"time": 198236, "pitch": 44, "duration": 231, "velocity": 105}, {"time": 198477, "pitch": 46, "duration": 813, "velocity": 91}, {"time": 198477, "pitch": 56, "duration": 391, "velocity": 122}, {"time": 198477, "pitch": 60, "duration": 391, "velocity": 116}, {"time": 198477, "pitch": 63, "duration": 391, "velocity": 110}, {"time": 198959, "pitch": 56, "duration": 80, "velocity": 100}, {"time": 198959, "pitch": 60, "duration": 70, "velocity": 95}, {"time": 198959, "pitch": 63, "duration": 70, "velocity": 100}, {"time": 199199, "pitch": 56, "duration": 301, "velocity": 119}, {"time": 199199, "pitch": 60, "duration": 301, "velocity": 110}, {"time": 199199, "pitch": 63, "duration": 291, "velocity": 107}, {"time": 199440, "pitch": 46, "duration": 572, "velocity": 105}, {"time": 199681, "pitch": 56, "duration": 80, "velocity": 107}, {"time": 199681, "pitch": 60, "duration": 80, "velocity": 102}, {"time": 199681, "pitch": 63, "duration": 80, "velocity": 102}, {"time": 199922, "pitch": 56, "duration": 331, "velocity": 116}, {"time": 199922, "pitch": 60, "duration": 341, "velocity": 107}, {"time": 199922, "pitch": 63, "duration": 341, "velocity": 110}, {"time": 200163, "pitch": 46, "duration": 240, "velocity": 110}, {"time": 200403, "pitch": 43, "duration": 823, "velocity": 105}, {"time": 200403, "pitch": 53, "duration": 369, "velocity": 107}, {"time": 200403, "pitch": 58, "duration": 379, "velocity": 113}, {"time": 200403, "pitch": 62, "duration": 369, "velocity": 102}, {"time": 200880, "pitch": 53, "duration": 69, "velocity": 102}, {"time": 200880, "pitch": 58, "duration": 69, "velocity": 102}, {"time": 200880, "pitch": 62, "duration": 98, "velocity": 87}, {"time": 201115, "pitch": 53, "duration": 301, "velocity": 116}, {"time": 201115, "pitch": 58, "duration": 311, "velocity": 116}, {"time": 201115, "pitch": 62, "duration": 301, "velocity": 107}, {"time": 201356, "pitch": 43, "duration": 592, "velocity": 105}, {"time": 201597, "pitch": 53, "duration": 70, "velocity": 110}, {"time": 201597, "pitch": 58, "duration": 70, "velocity": 105}, {"time": 201597, "pitch": 62, "duration": 90, "velocity": 91}, {"time": 201838, "pitch": 53, "duration": 321, "velocity": 107}, {"time": 201838, "pitch": 58, "duration": 321, "velocity": 107}, {"time": 201838, "pitch": 62, "duration": 321, "velocity": 105}, {"time": 202079, "pitch": 43, "duration": 130, "velocity": 105}, {"time": 202319, "pitch": 48, "duration": 763, "velocity": 100}, {"time": 202319, "pitch": 53, "duration": 362, "velocity": 122}, {"time": 202319, "pitch": 58, "duration": 372, "velocity": 116}, {"time": 202319, "pitch": 62, "duration": 362, "velocity": 105}, {"time": 202801, "pitch": 53, "duration": 70, "velocity": 110}, {"time": 202801, "pitch": 58, "duration": 50, "velocity": 89}, {"time": 202801, "pitch": 62, "duration": 90, "velocity": 89}, {"time": 203042, "pitch": 53, "duration": 311, "velocity": 113}, {"time": 203042, "pitch": 58, "duration": 311, "velocity": 116}, {"time": 203042, "pitch": 62, "duration": 321, "velocity": 105}, {"time": 203283, "pitch": 48, "duration": 632, "velocity": 107}, {"time": 203523, "pitch": 52, "duration": 131, "velocity": 113}, {"time": 203523, "pitch": 58, "duration": 111, "velocity": 107}, {"time": 203523, "pitch": 62, "duration": 131, "velocity": 102}, {"time": 203764, "pitch": 52, "duration": 260, "velocity": 119}, {"time": 203764, "pitch": 58, "duration": 270, "velocity": 110}, {"time": 203764, "pitch": 62, "duration": 270, "velocity": 105}, {"time": 204005, "pitch": 48, "duration": 216, "velocity": 110}, {"time": 204240, "pitch": 41, "duration": 848, "velocity": 95}, {"time": 204240, "pitch": 56, "duration": 316, "velocity": 116}, {"time": 204240, "pitch": 60, "duration": 326, "velocity": 116}, {"time": 204240, "pitch": 63, "duration": 316, "velocity": 105}, {"time": 204717, "pitch": 56, "duration": 70, "velocity": 107}, {"time": 204717, "pitch": 60, "duration": 70, "velocity": 113}, {"time": 204717, "pitch": 63, "duration": 70, "velocity": 105}, {"time": 204958, "pitch": 56, "duration": 291, "velocity": 122}, {"time": 204958, "pitch": 60, "duration": 301, "velocity": 122}, {"time": 204958, "pitch": 63, "duration": 281, "velocity": 110}, {"time": 205198, "pitch": 41, "duration": 221, "velocity": 102}, {"time": 205439, "pitch": 41, "duration": 271, "velocity": 105}, {"time": 205439, "pitch": 56, "duration": 111, "velocity": 107}, {"time": 205439, "pitch": 60, "duration": 101, "velocity": 110}, {"time": 205439, "pitch": 63, "duration": 101, "velocity": 102}, {"time": 205680, "pitch": 43, "duration": 221, "velocity": 89}, {"time": 205680, "pitch": 56, "duration": 241, "velocity": 122}, {"time": 205680, "pitch": 60, "duration": 261, "velocity": 119}, {"time": 205680, "pitch": 63, "duration": 241, "velocity": 105}, {"time": 205921, "pitch": 44, "duration": 231, "velocity": 82}, {"time": 206162, "pitch": 46, "duration": 250, "velocity": 122}, {"time": 206162, "pitch": 56, "duration": 190, "velocity": 122}, {"time": 206162, "pitch": 60, "duration": 200, "velocity": 127}, {"time": 206162, "pitch": 63, "duration": 200, "velocity": 113}, {"time": 206884, "pitch": 46, "duration": 1143, "velocity": 113}, {"time": 206884, "pitch": 56, "duration": 1103, "velocity": 119}, {"time": 206884, "pitch": 60, "duration": 1113, "velocity": 122}, {"time": 206884, "pitch": 63, "duration": 1073, "velocity": 119}, {"time": 208077, "pitch": 43, "duration": 833, "velocity": 105}, {"time": 208077, "pitch": 53, "duration": 372, "velocity": 107}, {"time": 208077, "pitch": 58, "duration": 382, "velocity": 113}, {"time": 208077, "pitch": 62, "duration": 372, "velocity": 102}, {"time": 208559, "pitch": 53, "duration": 70, "velocity": 102}, {"time": 208559, "pitch": 58, "duration": 70, "velocity": 102}, {"time": 208559, "pitch": 62, "duration": 100, "velocity": 87}, {"time": 208800, "pitch": 53, "duration": 301, "velocity": 116}, {"time": 208800, "pitch": 58, "duration": 311, "velocity": 116}, {"time": 208800, "pitch": 62, "duration": 301, "velocity": 107}, {"time": 209041, "pitch": 43, "duration": 592, "velocity": 105}, {"time": 209281, "pitch": 53, "duration": 71, "velocity": 110}, {"time": 209281, "pitch": 58, "duration": 71, "velocity": 105}, {"time": 209281, "pitch": 62, "duration": 91, "velocity": 91}, {"time": 209522, "pitch": 53, "duration": 321, "velocity": 107}, {"time": 209522, "pitch": 58, "duration": 321, "velocity": 107}, {"time": 209522, "pitch": 62, "duration": 321, "velocity": 105}, {"time": 209763, "pitch": 43, "duration": 130, "velocity": 105}, {"time": 210004, "pitch": 48, "duration": 752, "velocity": 100}, {"time": 210004, "pitch": 53, "duration": 358, "velocity": 122}, {"time": 210004, "pitch": 58, "duration": 368, "velocity": 116}, {"time": 210004, "pitch": 62, "duration": 358, "velocity": 105}, {"time": 210480, "pitch": 53, "duration": 69, "velocity": 110}, {"time": 210480, "pitch": 58, "duration": 49, "velocity": 89}, {"time": 210480, "pitch": 62, "duration": 89, "velocity": 89}, {"time": 210716, "pitch": 53, "duration": 311, "velocity": 113}, {"time": 210716, "pitch": 58, "duration": 311, "velocity": 116}, {"time": 210716, "pitch": 62, "duration": 321, "velocity": 105}, {"time": 210957, "pitch": 48, "duration": 632, "velocity": 107}, {"time": 211197, "pitch": 52, "duration": 131, "velocity": 113}, {"time": 211197, "pitch": 58, "duration": 111, "velocity": 107}, {"time": 211197, "pitch": 62, "duration": 131, "velocity": 102}, {"time": 211438, "pitch": 52, "duration": 261, "velocity": 119}, {"time": 211438, "pitch": 58, "duration": 271, "velocity": 110}, {"time": 211438, "pitch": 62, "duration": 271, "velocity": 105}, {"time": 211679, "pitch": 48, "duration": 221, "velocity": 110}, {"time": 211920, "pitch": 41, "duration": 853, "velocity": 95}, {"time": 211920, "pitch": 56, "duration": 321, "velocity": 116}, {"time": 211920, "pitch": 60, "duration": 331, "velocity": 116}, {"time": 211920, "pitch": 63, "duration": 321, "velocity": 105}, {"time": 212401, "pitch": 56, "duration": 71, "velocity": 107}, {"time": 212401, "pitch": 60, "duration": 71, "velocity": 113}, {"time": 212401, "pitch": 63, "duration": 71, "velocity": 105}, {"time": 212642, "pitch": 56, "duration": 291, "velocity": 122}, {"time": 212642, "pitch": 60, "duration": 301, "velocity": 122}, {"time": 212642, "pitch": 63, "duration": 281, "velocity": 110}, {"time": 212883, "pitch": 41, "duration": 221, "velocity": 102}, {"time": 213124, "pitch": 41, "duration": 265, "velocity": 105}, {"time": 213124, "pitch": 56, "duration": 108, "velocity": 107}, {"time": 213124, "pitch": 60, "duration": 98, "velocity": 110}, {"time": 213124, "pitch": 63, "duration": 98, "velocity": 102}, {"time": 213359, "pitch": 43, "duration": 216, "velocity": 89}, {"time": 213359, "pitch": 56, "duration": 236, "velocity": 122}, {"time": 213359, "pitch": 60, "duration": 256, "velocity": 119}, {"time": 213359, "pitch": 63, "duration": 236, "velocity": 105}, {"time": 213595, "pitch": 44, "duration": 231, "velocity": 82}, {"time": 213836, "pitch": 46, "duration": 250, "velocity": 122}, {"time": 213836, "pitch": 56, "duration": 190, "velocity": 122}, {"time": 213836, "pitch": 60, "duration": 200, "velocity": 127}, {"time": 213836, "pitch": 63, "duration": 200, "velocity": 113}, {"time": 214558, "pitch": 46, "duration": 1154, "velocity": 113}, {"time": 214558, "pitch": 56, "duration": 1114, "velocity": 119}, {"time": 214558, "pitch": 60, "duration": 1124, "velocity": 122}, {"time": 214558, "pitch": 63, "duration": 1084, "velocity": 119}, {"time": 216003, "pitch": 39, "duration": 341, "velocity": 100}, {"time": 216244, "pitch": 49, "duration": 250, "velocity": 105}, {"time": 216244, "pitch": 55, "duration": 270, "velocity": 102}, {"time": 216244, "pitch": 58, "duration": 260, "velocity": 107}, {"time": 216484, "pitch": 39, "duration": 157, "velocity": 98}, {"time": 216606, "pitch": 51, "duration": 255, "velocity": 105}, {"time": 216606, "pitch": 55, "duration": 265, "velocity": 107}, {"time": 216606, "pitch": 60, "duration": 246, "velocity": 105}, {"time": 216842, "pitch": 39, "duration": 128, "velocity": 102}, {"time": 216956, "pitch": 51, "duration": 772, "velocity": 107}, {"time": 216956, "pitch": 55, "duration": 782, "velocity": 105}, {"time": 216956, "pitch": 61, "duration": 782, "velocity": 113}, {"time": 217196, "pitch": 39, "duration": 211, "velocity": 107}, {"time": 217678, "pitch": 39, "duration": 150, "velocity": 98}, {"time": 217919, "pitch": 39, "duration": 281, "velocity": 113}, {"time": 218159, "pitch": 49, "duration": 241, "velocity": 105}, {"time": 218159, "pitch": 55, "duration": 271, "velocity": 102}, {"time": 218159, "pitch": 58, "duration": 241, "velocity": 105}, {"time": 218400, "pitch": 39, "duration": 191, "velocity": 102}, {"time": 218525, "pitch": 51, "duration": 251, "velocity": 113}, {"time": 218525, "pitch": 55, "duration": 261, "velocity": 105}, {"time": 218525, "pitch": 60, "duration": 230, "velocity": 107}, {"time": 218765, "pitch": 39, "duration": 161, "velocity": 105}, {"time": 218882, "pitch": 49, "duration": 301, "velocity": 110}, {"time": 218882, "pitch": 54, "duration": 311, "velocity": 107}, {"time": 218882, "pitch": 58, "duration": 301, "velocity": 107}, {"time": 219123, "pitch": 39, "duration": 240, "velocity": 102}, {"time": 219363, "pitch": 49, "duration": 321, "velocity": 110}, {"time": 219363, "pitch": 54, "duration": 332, "velocity": 110}, {"time": 219363, "pitch": 58, "duration": 321, "velocity": 107}, {"time": 219604, "pitch": 39, "duration": 181, "velocity": 105}, {"time": 219845, "pitch": 39, "duration": 334, "velocity": 100}, {"time": 220081, "pitch": 49, "duration": 245, "velocity": 105}, {"time": 220081, "pitch": 55, "duration": 265, "velocity": 102}, {"time": 220081, "pitch": 58, "duration": 255, "velocity": 107}, {"time": 220316, "pitch": 39, "duration": 161, "velocity": 98}, {"time": 220441, "pitch": 51, "duration": 260, "velocity": 105}, {"time": 220441, "pitch": 55, "duration": 270, "velocity": 107}, {"time": 220441, "pitch": 60, "duration": 250, "velocity": 105}, {"time": 220681, "pitch": 39, "duration": 131, "velocity": 102}, {"time": 220798, "pitch": 51, "duration": 772, "velocity": 107}, {"time": 220798, "pitch": 55, "duration": 782, "velocity": 105}, {"time": 220798, "pitch": 61, "duration": 782, "velocity": 113}, {"time": 221039, "pitch": 39, "duration": 210, "velocity": 107}, {"time": 221520, "pitch": 39, "duration": 151, "velocity": 98}, {"time": 221761, "pitch": 39, "duration": 281, "velocity": 113}, {"time": 222002, "pitch": 49, "duration": 241, "velocity": 105}, {"time": 222002, "pitch": 55, "duration": 271, "velocity": 102}, {"time": 222002, "pitch": 58, "duration": 241, "velocity": 105}, {"time": 222243, "pitch": 39, "duration": 190, "velocity": 102}, {"time": 222367, "pitch": 51, "duration": 251, "velocity": 113}, {"time": 222367, "pitch": 55, "duration": 261, "velocity": 105}, {"time": 222367, "pitch": 60, "duration": 231, "velocity": 107}, {"time": 222608, "pitch": 39, "duration": 159, "velocity": 105}, {"time": 222724, "pitch": 49, "duration": 295, "velocity": 110}, {"time": 222724, "pitch": 54, "duration": 304, "velocity": 107}, {"time": 222724, "pitch": 58, "duration": 295, "velocity": 107}, {"time": 222960, "pitch": 39, "duration": 235, "velocity": 102}, {"time": 223195, "pitch": 49, "duration": 321, "velocity": 110}, {"time": 223195, "pitch": 54, "duration": 331, "velocity": 110}, {"time": 223195, "pitch": 58, "duration": 321, "velocity": 107}, {"time": 223436, "pitch": 39, "duration": 181, "velocity": 105}, {"time": 223677, "pitch": 39, "duration": 341, "velocity": 100}, {"time": 223918, "pitch": 49, "duration": 250, "velocity": 105}, {"time": 223918, "pitch": 55, "duration": 271, "velocity": 102}, {"time": 223918, "pitch": 58, "duration": 260, "velocity": 107}, {"time": 224158, "pitch": 39, "duration": 161, "velocity": 98}, {"time": 224283, "pitch": 51, "duration": 261, "velocity": 105}, {"time": 224283, "pitch": 55, "duration": 271, "velocity": 107}, {"time": 224283, "pitch": 60, "duration": 251, "velocity": 105}, {"time": 224524, "pitch": 39, "duration": 130, "velocity": 102}, {"time": 224640, "pitch": 51, "duration": 773, "velocity": 107}, {"time": 224640, "pitch": 55, "duration": 783, "velocity": 105}, {"time": 224640, "pitch": 61, "duration": 783, "velocity": 113}, {"time": 224881, "pitch": 39, "duration": 210, "velocity": 107}, {"time": 225362, "pitch": 39, "duration": 151, "velocity": 98}, {"time": 225603, "pitch": 39, "duration": 281, "velocity": 113}, {"time": 225844, "pitch": 49, "duration": 241, "velocity": 105}, {"time": 225844, "pitch": 55, "duration": 270, "velocity": 102}, {"time": 225844, "pitch": 58, "duration": 241, "velocity": 105}, {"time": 226085, "pitch": 39, "duration": 186, "velocity": 102}, {"time": 226206, "pitch": 51, "duration": 246, "velocity": 113}, {"time": 226206, "pitch": 55, "duration": 256, "velocity": 105}, {"time": 226206, "pitch": 60, "duration": 226, "velocity": 107}, {"time": 226442, "pitch": 39, "duration": 158, "velocity": 105}, {"time": 226556, "pitch": 49, "duration": 301, "velocity": 110}, {"time": 226556, "pitch": 54, "duration": 311, "velocity": 107}, {"time": 226556, "pitch": 58, "duration": 301, "velocity": 107}, {"time": 226797, "pitch": 39, "duration": 240, "velocity": 102}, {"time": 227037, "pitch": 49, "duration": 322, "velocity": 110}, {"time": 227037, "pitch": 54, "duration": 332, "velocity": 110}, {"time": 227037, "pitch": 58, "duration": 322, "velocity": 107}, {"time": 227278, "pitch": 39, "duration": 181, "velocity": 105}, {"time": 227519, "pitch": 39, "duration": 341, "velocity": 100}, {"time": 227760, "pitch": 49, "duration": 251, "velocity": 105}, {"time": 227760, "pitch": 55, "duration": 271, "velocity": 102}, {"time": 227760, "pitch": 58, "duration": 261, "velocity": 107}, {"time": 228001, "pitch": 39, "duration": 160, "velocity": 98}, {"time": 228125, "pitch": 51, "duration": 261, "velocity": 105}, {"time": 228125, "pitch": 55, "duration": 271, "velocity": 107}, {"time": 228125, "pitch": 60, "duration": 251, "velocity": 105}, {"time": 228366, "pitch": 39, "duration": 130, "velocity": 102}, {"time": 228482, "pitch": 51, "duration": 767, "velocity": 107}, {"time": 228482, "pitch": 55, "duration": 776, "velocity": 105}, {"time": 228482, "pitch": 61, "duration": 776, "velocity": 113}, {"time": 228723, "pitch": 39, "duration": 211, "velocity": 107}, {"time": 229199, "pitch": 39, "duration": 148, "velocity": 98}, {"time": 229435, "pitch": 39, "duration": 281, "velocity": 113}, {"time": 229676, "pitch": 49, "duration": 241, "velocity": 105}, {"time": 229676, "pitch": 55, "duration": 271, "velocity": 102}, {"time": 229676, "pitch": 58, "duration": 241, "velocity": 105}, {"time": 229917, "pitch": 39, "duration": 190, "velocity": 102}, {"time": 230041, "pitch": 51, "duration": 251, "velocity": 113}, {"time": 230041, "pitch": 55, "duration": 261, "velocity": 105}, {"time": 230041, "pitch": 60, "duration": 231, "velocity": 107}, {"time": 230282, "pitch": 39, "duration": 160, "velocity": 105}, {"time": 230398, "pitch": 49, "duration": 301, "velocity": 110}, {"time": 230398, "pitch": 54, "duration": 311, "velocity": 107}, {"time": 230398, "pitch": 58, "duration": 301, "velocity": 107}, {"time": 230639, "pitch": 39, "duration": 241, "velocity": 102}, {"time": 230880, "pitch": 49, "duration": 321, "velocity": 110}, {"time": 230880, "pitch": 54, "duration": 331, "velocity": 110}, {"time": 230880, "pitch": 58, "duration": 321, "velocity": 107}, {"time": 231121, "pitch": 39, "duration": 180, "velocity": 105}, {"time": 231361, "pitch": 39, "duration": 341, "velocity": 100}, {"time": 231602, "pitch": 49, "duration": 251, "velocity": 105}, {"time": 231602, "pitch": 55, "duration": 271, "velocity": 102}, {"time": 231602, "pitch": 58, "duration": 261, "velocity": 107}, {"time": 231843, "pitch": 39, "duration": 160, "velocity": 98}, {"time": 231967, "pitch": 51, "duration": 261, "velocity": 105}, {"time": 231967, "pitch": 55, "duration": 271, "velocity": 107}, {"time": 231967, "pitch": 60, "duration": 251, "velocity": 105}, {"time": 232208, "pitch": 39, "duration": 130, "velocity": 102}, {"time": 232324, "pitch": 51, "duration": 763, "velocity": 107}, {"time": 232324, "pitch": 55, "duration": 773, "velocity": 105}, {"time": 232324, "pitch": 61, "duration": 773, "velocity": 113}, {"time": 232560, "pitch": 39, "duration": 206, "velocity": 107}, {"time": 233036, "pitch": 39, "duration": 151, "velocity": 98}, {"time": 233277, "pitch": 39, "duration": 281, "velocity": 113}, {"time": 233518, "pitch": 49, "duration": 241, "velocity": 105}, {"time": 233518, "pitch": 55, "duration": 271, "velocity": 102}, {"time": 233518, "pitch": 58, "duration": 241, "velocity": 105}, {"time": 233759, "pitch": 39, "duration": 190, "velocity": 102}, {"time": 233883, "pitch": 51, "duration": 251, "velocity": 113}, {"time": 233883, "pitch": 55, "duration": 261, "velocity": 105}, {"time": 233883, "pitch": 60, "duration": 231, "velocity": 107}, {"time": 234124, "pitch": 39, "duration": 161, "velocity": 105}, {"time": 234240, "pitch": 49, "duration": 301, "velocity": 110}, {"time": 234240, "pitch": 54, "duration": 311, "velocity": 107}, {"time": 234240, "pitch": 58, "duration": 301, "velocity": 107}, {"time": 234481, "pitch": 39, "duration": 241, "velocity": 102}, {"time": 234722, "pitch": 49, "duration": 321, "velocity": 110}, {"time": 234722, "pitch": 54, "duration": 331, "velocity": 110}, {"time": 234722, "pitch": 58, "duration": 321, "velocity": 107}, {"time": 234963, "pitch": 39, "duration": 180, "velocity": 105}, {"time": 235204, "pitch": 39, "duration": 341, "velocity": 100}, {"time": 235444, "pitch": 49, "duration": 251, "velocity": 105}, {"time": 235444, "pitch": 55, "duration": 271, "velocity": 102}, {"time": 235444, "pitch": 58, "duration": 261, "velocity": 107}, {"time": 235685, "pitch": 39, "duration": 157, "velocity": 98}, {"time": 235807, "pitch": 51, "duration": 255, "velocity": 105}, {"time": 235807, "pitch": 55, "duration": 265, "velocity": 107}, {"time": 235807, "pitch": 60, "duration": 245, "velocity": 105}, {"time": 236042, "pitch": 39, "duration": 128, "velocity": 102}, {"time": 236156, "pitch": 51, "duration": 773, "velocity": 107}, {"time": 236156, "pitch": 55, "duration": 783, "velocity": 105}, {"time": 236156, "pitch": 61, "duration": 783, "velocity": 113}, {"time": 236397, "pitch": 39, "duration": 211, "velocity": 107}, {"time": 236879, "pitch": 39, "duration": 150, "velocity": 98}, {"time": 237119, "pitch": 39, "duration": 281, "velocity": 113}, {"time": 237360, "pitch": 49, "duration": 241, "velocity": 105}, {"time": 237360, "pitch": 55, "duration": 271, "velocity": 102}, {"time": 237360, "pitch": 58, "duration": 241, "velocity": 105}, {"time": 237601, "pitch": 39, "duration": 191, "velocity": 102}, {"time": 237725, "pitch": 51, "duration": 251, "velocity": 113}, {"time": 237725, "pitch": 55, "duration": 261, "velocity": 105}, {"time": 237725, "pitch": 60, "duration": 231, "velocity": 107}, {"time": 237966, "pitch": 39, "duration": 161, "velocity": 105}, {"time": 238083, "pitch": 49, "duration": 301, "velocity": 110}, {"time": 238083, "pitch": 54, "duration": 311, "velocity": 107}, {"time": 238083, "pitch": 58, "duration": 301, "velocity": 107}, {"time": 238323, "pitch": 39, "duration": 241, "velocity": 102}, {"time": 238564, "pitch": 49, "duration": 314, "velocity": 110}, {"time": 238564, "pitch": 54, "duration": 324, "velocity": 110}, {"time": 238564, "pitch": 58, "duration": 314, "velocity": 107}, {"time": 238800, "pitch": 39, "duration": 177, "velocity": 105}, {"time": 239035, "pitch": 39, "duration": 342, "velocity": 100}, {"time": 239276, "pitch": 49, "duration": 251, "velocity": 105}, {"time": 239276, "pitch": 55, "duration": 271, "velocity": 102}, {"time": 239276, "pitch": 58, "duration": 261, "velocity": 107}, {"time": 239517, "pitch": 39, "duration": 160, "velocity": 98}, {"time": 239641, "pitch": 51, "duration": 261, "velocity": 105}, {"time": 239641, "pitch": 55, "duration": 271, "velocity": 107}, {"time": 239641, "pitch": 60, "duration": 251, "velocity": 105}, {"time": 239882, "pitch": 39, "duration": 131, "velocity": 102}, {"time": 239999, "pitch": 51, "duration": 772, "velocity": 107}, {"time": 239999, "pitch": 55, "duration": 782, "velocity": 105}, {"time": 239999, "pitch": 61, "duration": 782, "velocity": 113}, {"time": 240239, "pitch": 39, "duration": 211, "velocity": 107}, {"time": 240721, "pitch": 39, "duration": 150, "velocity": 98}, {"time": 240962, "pitch": 39, "duration": 281, "velocity": 113}, {"time": 241203, "pitch": 49, "duration": 240, "velocity": 105}, {"time": 241203, "pitch": 55, "duration": 270, "velocity": 102}, {"time": 241203, "pitch": 58, "duration": 240, "velocity": 105}, {"time": 241443, "pitch": 39, "duration": 191, "velocity": 102}, {"time": 241568, "pitch": 51, "duration": 251, "velocity": 113}, {"time": 241568, "pitch": 55, "duration": 261, "velocity": 105}, {"time": 241568, "pitch": 60, "duration": 230, "velocity": 107}, {"time": 241809, "pitch": 39, "duration": 159, "velocity": 105}, {"time": 241925, "pitch": 49, "duration": 294, "velocity": 110}, {"time": 241925, "pitch": 54, "duration": 304, "velocity": 107}, {"time": 241925, "pitch": 58, "duration": 294, "velocity": 107}, {"time": 242160, "pitch": 39, "duration": 236, "velocity": 102}, {"time": 242396, "pitch": 49, "duration": 321, "velocity": 110}, {"time": 242396, "pitch": 54, "duration": 331, "velocity": 110}, {"time": 242396, "pitch": 58, "duration": 321, "velocity": 107}, {"time": 242637, "pitch": 39, "duration": 180, "velocity": 105}, {"time": 242878, "pitch": 39, "duration": 341, "velocity": 100}, {"time": 243118, "pitch": 49, "duration": 251, "velocity": 105}, {"time": 243118, "pitch": 55, "duration": 271, "velocity": 102}, {"time": 243118, "pitch": 58, "duration": 261, "velocity": 107}, {"time": 243359, "pitch": 39, "duration": 161, "velocity": 98}, {"time": 243484, "pitch": 51, "duration": 260, "velocity": 105}, {"time": 243484, "pitch": 55, "duration": 271, "velocity": 107}, {"time": 243484, "pitch": 60, "duration": 250, "velocity": 105}, {"time": 243724, "pitch": 39, "duration": 131, "velocity": 102}, {"time": 243841, "pitch": 51, "duration": 772, "velocity": 107}, {"time": 243841, "pitch": 55, "duration": 782, "velocity": 105}, {"time": 243841, "pitch": 61, "duration": 782, "velocity": 113}, {"time": 244082, "pitch": 39, "duration": 210, "velocity": 107}, {"time": 244563, "pitch": 39, "duration": 151, "velocity": 98}, {"time": 244804, "pitch": 39, "duration": 281, "velocity": 113}, {"time": 245045, "pitch": 49, "duration": 241, "velocity": 105}, {"time": 245045, "pitch": 55, "duration": 271, "velocity": 102}, {"time": 245045, "pitch": 58, "duration": 241, "velocity": 105}, {"time": 245286, "pitch": 39, "duration": 190, "velocity": 102}, {"time": 245410, "pitch": 51, "duration": 251, "velocity": 113}, {"time": 245410, "pitch": 55, "duration": 261, "velocity": 105}, {"time": 245410, "pitch": 60, "duration": 231, "velocity": 107}, {"time": 245651, "pitch": 39, "duration": 160, "velocity": 105}, {"time": 245767, "pitch": 49, "duration": 301, "velocity": 110}, {"time": 245767, "pitch": 54, "duration": 311, "velocity": 107}, {"time": 245767, "pitch": 58, "duration": 301, "velocity": 107}, {"time": 246008, "pitch": 39, "duration": 241, "velocity": 102}, {"time": 246249, "pitch": 49, "duration": 321, "velocity": 110}, {"time": 246249, "pitch": 54, "duration": 331, "velocity": 110}, {"time": 246249, "pitch": 58, "duration": 321, "velocity": 107}, {"time": 246490, "pitch": 39, "duration": 180, "velocity": 105}, {"time": 18718, "pitch": 34, "duration": 1365, "velocity": 122}, {"time": 20163, "pitch": 39, "duration": 231, "velocity": 113}, {"time": 20404, "pitch": 37, "duration": 231, "velocity": 98}, {"time": 21002, "pitch": 34, "duration": 88, "velocity": 89}, {"time": 21240, "pitch": 34, "duration": 114, "velocity": 100}, {"time": 21357, "pitch": 37, "duration": 110, "velocity": 107}, {"time": 21481, "pitch": 34, "duration": 110, "velocity": 102}, {"time": 21597, "pitch": 37, "duration": 231, "velocity": 102}, {"time": 21838, "pitch": 38, "duration": 201, "velocity": 102}, {"time": 22079, "pitch": 39, "duration": 231, "velocity": 113}, {"time": 22320, "pitch": 37, "duration": 230, "velocity": 98}, {"time": 22926, "pitch": 34, "duration": 90, "velocity": 89}, {"time": 23167, "pitch": 34, "duration": 113, "velocity": 100}, {"time": 23283, "pitch": 37, "duration": 110, "velocity": 107}, {"time": 23407, "pitch": 34, "duration": 111, "velocity": 102}, {"time": 23524, "pitch": 30, "duration": 461, "velocity": 119}, {"time": 23995, "pitch": 39, "duration": 231, "velocity": 113}, {"time": 24236, "pitch": 37, "duration": 230, "velocity": 98}, {"time": 24842, "pitch": 34, "duration": 90, "velocity": 89}, {"time": 25082, "pitch": 34, "duration": 114, "velocity": 100}, {"time": 25199, "pitch": 37, "duration": 110, "velocity": 107}, {"time": 25323, "pitch": 34, "duration": 111, "velocity": 102}, {"time": 25440, "pitch": 37, "duration": 230, "velocity": 102}, {"time": 25680, "pitch": 38, "duration": 201, "velocity": 102}, {"time": 25921, "pitch": 39, "duration": 231, "velocity": 113}, {"time": 26162, "pitch": 37, "duration": 231, "velocity": 98}, {"time": 26768, "pitch": 34, "duration": 90, "velocity": 89}, {"time": 27006, "pitch": 34, "duration": 111, "velocity": 100}, {"time": 27120, "pitch": 37, "duration": 108, "velocity": 107}, {"time": 27242, "pitch": 34, "duration": 108, "velocity": 102}, {"time": 27356, "pitch": 30, "duration": 471, "velocity": 119}, {"time": 27837, "pitch": 39, "duration": 231, "velocity": 113}, {"time": 28078, "pitch": 37, "duration": 231, "velocity": 98}, {"time": 28684, "pitch": 34, "duration": 90, "velocity": 89}, {"time": 28925, "pitch": 34, "duration": 113, "velocity": 100}, {"time": 29041, "pitch": 37, "duration": 110, "velocity": 107}, {"time": 29165, "pitch": 34, "duration": 111, "velocity": 102}, {"time": 29282, "pitch": 37, "duration": 231, "velocity": 102}, {"time": 29523, "pitch": 38, "duration": 200, "velocity": 102}, {"time": 29763, "pitch": 39, "duration": 231, "velocity": 113}, {"time": 30004, "pitch": 37, "duration": 231, "velocity": 98}, {"time": 30602, "pitch": 34, "duration": 89, "velocity": 89}, {"time": 30841, "pitch": 34, "duration": 113, "velocity": 100}, {"time": 30957, "pitch": 37, "duration": 110, "velocity": 107}, {"time": 31081, "pitch": 34, "duration": 111, "velocity": 102}, {"time": 31198, "pitch": 30, "duration": 471, "velocity": 119}, {"time": 31679, "pitch": 39, "duration": 231, "velocity": 113}, {"time": 31920, "pitch": 37, "duration": 231, "velocity": 98}, {"time": 32526, "pitch": 34, "duration": 90, "velocity": 89}, {"time": 32767, "pitch": 34, "duration": 113, "velocity": 100}, {"time": 32883, "pitch": 37, "duration": 111, "velocity": 107}, {"time": 33008, "pitch": 34, "duration": 110, "velocity": 102}, {"time": 33124, "pitch": 37, "duration": 226, "velocity": 102}, {"time": 33360, "pitch": 38, "duration": 196, "velocity": 102}, {"time": 33595, "pitch": 39, "duration": 231, "velocity": 113}, {"time": 33836, "pitch": 37, "duration": 231, "velocity": 98}, {"time": 34442, "pitch": 34, "duration": 90, "velocity": 89}, {"time": 34683, "pitch": 34, "duration": 113, "velocity": 100}, {"time": 34799, "pitch": 37, "duration": 111, "velocity": 107}, {"time": 34924, "pitch": 34, "duration": 110, "velocity": 102}, {"time": 35040, "pitch": 30, "duration": 472, "velocity": 119}, {"time": 35522, "pitch": 39, "duration": 230, "velocity": 113}, {"time": 35762, "pitch": 37, "duration": 231, "velocity": 98}, {"time": 36368, "pitch": 34, "duration": 91, "velocity": 89}, {"time": 36606, "pitch": 34, "duration": 111, "velocity": 100}, {"time": 36720, "pitch": 37, "duration": 108, "velocity": 107}, {"time": 36842, "pitch": 34, "duration": 108, "velocity": 102}, {"time": 36956, "pitch": 37, "duration": 231, "velocity": 102}, {"time": 37197, "pitch": 38, "duration": 200, "velocity": 102}, {"time": 37437, "pitch": 39, "duration": 231, "velocity": 113}, {"time": 37678, "pitch": 37, "duration": 231, "velocity": 98}, {"time": 38284, "pitch": 34, "duration": 91, "velocity": 89}, {"time": 38525, "pitch": 34, "duration": 113, "velocity": 100}, {"time": 38641, "pitch": 37, "duration": 111, "velocity": 107}, {"time": 38766, "pitch": 34, "duration": 110, "velocity": 102}, {"time": 38882, "pitch": 29, "duration": 111, "velocity": 102}, {"time": 39123, "pitch": 30, "duration": 388, "velocity": 119}, {"time": 39599, "pitch": 30, "duration": 226, "velocity": 107}, {"time": 39835, "pitch": 32, "duration": 231, "velocity": 98}, {"time": 40076, "pitch": 33, "duration": 231, "velocity": 78}, {"time": 40317, "pitch": 34, "duration": 230, "velocity": 105}, {"time": 40557, "pitch": 42, "duration": 231, "velocity": 119}, {"time": 41039, "pitch": 32, "duration": 231, "velocity": 119}, {"time": 41521, "pitch": 32, "duration": 230, "velocity": 105}, {"time": 41761, "pitch": 34, "duration": 231, "velocity": 100}, {"time": 42002, "pitch": 35, "duration": 231, "velocity": 87}, {"time": 42243, "pitch": 36, "duration": 201, "velocity": 127}, {"time": 42724, "pitch": 32, "duration": 472, "velocity": 127}, {"time": 43196, "pitch": 39, "duration": 230, "velocity": 113}, {"time": 43436, "pitch": 37, "duration": 231, "velocity": 98}, {"time": 44042, "pitch": 34, "duration": 91, "velocity": 89}, {"time": 44283, "pitch": 34, "duration": 114, "velocity": 100}, {"time": 44400, "pitch": 37, "duration": 110, "velocity": 107}, {"time": 44524, "pitch": 34, "duration": 110, "velocity": 102}, {"time": 44640, "pitch": 37, "duration": 231, "velocity": 102}, {"time": 44881, "pitch": 38, "duration": 201, "velocity": 102}, {"time": 45122, "pitch": 39, "duration": 231, "velocity": 113}, {"time": 45363, "pitch": 37, "duration": 231, "velocity": 98}, {"time": 45969, "pitch": 34, "duration": 90, "velocity": 89}, {"time": 46207, "pitch": 34, "duration": 111, "velocity": 100}, {"time": 46321, "pitch": 37, "duration": 108, "velocity": 107}, {"time": 46442, "pitch": 34, "duration": 108, "velocity": 102}, {"time": 46556, "pitch": 30, "duration": 472, "velocity": 119}, {"time": 47038, "pitch": 39, "duration": 231, "velocity": 113}, {"time": 47279, "pitch": 37, "duration": 230, "velocity": 98}, {"time": 47885, "pitch": 34, "duration": 90, "velocity": 89}, {"time": 48125, "pitch": 34, "duration": 114, "velocity": 100}, {"time": 48242, "pitch": 37, "duration": 110, "velocity": 107}, {"time": 48366, "pitch": 34, "duration": 111, "velocity": 102}, {"time": 48483, "pitch": 37, "duration": 230, "velocity": 102}, {"time": 48723, "pitch": 38, "duration": 201, "velocity": 102}, {"time": 48964, "pitch": 39, "duration": 226, "velocity": 113}, {"time": 49200, "pitch": 37, "duration": 226, "velocity": 98}, {"time": 49801, "pitch": 34, "duration": 90, "velocity": 89}, {"time": 50041, "pitch": 34, "duration": 114, "velocity": 100}, {"time": 50158, "pitch": 37, "duration": 110, "velocity": 107}, {"time": 50282, "pitch": 34, "duration": 111, "velocity": 102}, {"time": 50399, "pitch": 30, "duration": 471, "velocity": 119}, {"time": 50880, "pitch": 39, "duration": 231, "velocity": 113}, {"time": 51121, "pitch": 37, "duration": 231, "velocity": 98}, {"time": 51727, "pitch": 34, "duration": 90, "velocity": 89}, {"time": 51968, "pitch": 34, "duration": 113, "velocity": 100}, {"time": 52084, "pitch": 37, "duration": 110, "velocity": 107}, {"time": 52209, "pitch": 34, "duration": 110, "velocity": 102}, {"time": 52325, "pitch": 37, "duration": 226, "velocity": 102}, {"time": 52560, "pitch": 38, "duration": 197, "velocity": 102}, {"time": 52796, "pitch": 39, "duration": 231, "velocity": 113}, {"time": 53037, "pitch": 37, "duration": 231, "velocity": 98}, {"time": 53643, "pitch": 34, "duration": 90, "velocity": 89}, {"time": 53884, "pitch": 34, "duration": 113, "velocity": 100}, {"time": 54000, "pitch": 37, "duration": 110, "velocity": 107}, {"time": 54124, "pitch": 34, "duration": 111, "velocity": 102}, {"time": 54241, "pitch": 29, "duration": 110, "velocity": 102}, {"time": 54482, "pitch": 30, "duration": 391, "velocity": 119}, {"time": 54963, "pitch": 30, "duration": 231, "velocity": 107}, {"time": 55204, "pitch": 32, "duration": 226, "velocity": 98}, {"time": 55440, "pitch": 33, "duration": 225, "velocity": 78}, {"time": 55675, "pitch": 34, "duration": 231, "velocity": 105}, {"time": 55916, "pitch": 42, "duration": 231, "velocity": 119}, {"time": 56397, "pitch": 32, "duration": 231, "velocity": 119}, {"time": 56879, "pitch": 32, "duration": 231, "velocity": 105}, {"time": 57120, "pitch": 34, "duration": 231, "velocity": 100}, {"time": 57361, "pitch": 35, "duration": 230, "velocity": 87}, {"time": 57601, "pitch": 36, "duration": 201, "velocity": 127}, {"time": 58083, "pitch": 32, "duration": 482, "velocity": 127}, {"time": 58565, "pitch": 39, "duration": 225, "velocity": 113}, {"time": 58800, "pitch": 37, "duration": 226, "velocity": 98}, {"time": 59401, "pitch": 34, "duration": 90, "velocity": 89}, {"time": 59642, "pitch": 34, "duration": 113, "velocity": 100}, {"time": 59758, "pitch": 37, "duration": 111, "velocity": 107}, {"time": 59883, "pitch": 34, "duration": 110, "velocity": 102}, {"time": 59999, "pitch": 37, "duration": 231, "velocity": 102}, {"time": 60240, "pitch": 38, "duration": 200, "velocity": 102}, {"time": 60481, "pitch": 39, "duration": 230, "velocity": 113}, {"time": 60721, "pitch": 37, "duration": 231, "velocity": 98}, {"time": 61327, "pitch": 34, "duration": 91, "velocity": 89}, {"time": 61565, "pitch": 34, "duration": 111, "velocity": 100}, {"time": 61679, "pitch": 37, "duration": 108, "velocity": 107}, {"time": 61801, "pitch": 34, "duration": 108, "velocity": 102}, {"time": 61915, "pitch": 30, "duration": 471, "velocity": 119}, {"time": 62396, "pitch": 32, "duration": 101, "velocity": 110}, {"time": 62637, "pitch": 32, "duration": 221, "velocity": 107}, {"time": 63002, "pitch": 32, "duration": 121, "velocity": 110}, {"time": 63119, "pitch": 34, "duration": 120, "velocity": 110}, {"time": 63259, "pitch": 35, "duration": 151, "velocity": 100}, {"time": 63360, "pitch": 36, "duration": 230, "velocity": 105}, {"time": 63600, "pitch": 32, "duration": 161, "velocity": 113}, {"time": 64323, "pitch": 30, "duration": 90, "velocity": 107}, {"time": 64564, "pitch": 30, "duration": 220, "velocity": 105}, {"time": 64926, "pitch": 30, "duration": 118, "velocity": 102}, {"time": 65276, "pitch": 30, "duration": 481, "velocity": 127}, {"time": 65757, "pitch": 29, "duration": 482, "velocity": 116}, {"time": 66239, "pitch": 39, "duration": 230, "velocity": 113}, {"time": 66479, "pitch": 37, "duration": 231, "velocity": 98}, {"time": 67085, "pitch": 34, "duration": 91, "velocity": 89}, {"time": 67326, "pitch": 34, "duration": 114, "velocity": 100}, {"time": 67443, "pitch": 37, "duration": 110, "velocity": 107}, {"time": 67567, "pitch": 34, "duration": 110, "velocity": 102}, {"time": 67683, "pitch": 37, "duration": 231, "velocity": 102}, {"time": 67924, "pitch": 38, "duration": 201, "velocity": 102}, {"time": 68165, "pitch": 39, "duration": 226, "velocity": 113}, {"time": 68401, "pitch": 37, "duration": 225, "velocity": 98}, {"time": 69001, "pitch": 34, "duration": 91, "velocity": 89}, {"time": 69118, "pitch": 44, "duration": 241, "velocity": 127}, {"time": 69359, "pitch": 42, "duration": 106, "velocity": 100}, {"time": 69483, "pitch": 39, "duration": 114, "velocity": 85}, {"time": 69599, "pitch": 44, "duration": 121, "velocity": 122}, {"time": 69724, "pitch": 42, "duration": 371, "velocity": 105}, {"time": 70081, "pitch": 32, "duration": 201, "velocity": 110}, {"time": 70322, "pitch": 32, "duration": 220, "velocity": 107}, {"time": 70687, "pitch": 32, "duration": 120, "velocity": 110}, {"time": 70803, "pitch": 34, "duration": 121, "velocity": 110}, {"time": 70944, "pitch": 35, "duration": 149, "velocity": 100}, {"time": 71044, "pitch": 36, "duration": 226, "velocity": 105}, {"time": 71280, "pitch": 32, "duration": 157, "velocity": 113}, {"time": 71515, "pitch": 36, "duration": 113, "velocity": 127}, {"time": 71636, "pitch": 32, "duration": 301, "velocity": 105}, {"time": 71997, "pitch": 30, "duration": 90, "velocity": 107}, {"time": 72238, "pitch": 30, "duration": 220, "velocity": 105}, {"time": 72603, "pitch": 30, "duration": 120, "velocity": 102}, {"time": 72960, "pitch": 30, "duration": 482, "velocity": 127}, {"time": 73442, "pitch": 29, "duration": 230, "velocity": 127}, {"time": 73682, "pitch": 34, "duration": 412, "velocity": 127}, {"time": 74164, "pitch": 34, "duration": 90, "velocity": 107}, {"time": 74405, "pitch": 34, "duration": 88, "velocity": 107}, {"time": 74640, "pitch": 34, "duration": 89, "velocity": 119}, {"time": 74876, "pitch": 34, "duration": 100, "velocity": 110}, {"time": 75117, "pitch": 34, "duration": 100, "velocity": 110}, {"time": 75357, "pitch": 34, "duration": 101, "velocity": 113}, {"time": 75598, "pitch": 34, "duration": 101, "velocity": 122}, {"time": 75839, "pitch": 34, "duration": 321, "velocity": 122}, {"time": 76802, "pitch": 39, "duration": 231, "velocity": 122}, {"time": 77043, "pitch": 42, "duration": 100, "velocity": 120}, {"time": 77284, "pitch": 42, "duration": 216, "velocity": 116}, {"time": 77519, "pitch": 32, "duration": 376, "velocity": 122}, {"time": 77996, "pitch": 32, "duration": 112, "velocity": 119}, {"time": 78120, "pitch": 32, "duration": 82, "velocity": 98}, {"time": 78237, "pitch": 32, "duration": 230, "velocity": 119}, {"time": 78477, "pitch": 32, "duration": 84, "velocity": 107}, {"time": 78602, "pitch": 32, "duration": 90, "velocity": 107}, {"time": 78718, "pitch": 36, "duration": 231, "velocity": 116}, {"time": 78959, "pitch": 44, "duration": 240, "velocity": 110}, {"time": 79200, "pitch": 32, "duration": 240, "velocity": 90}, {"time": 79441, "pitch": 34, "duration": 381, "velocity": 122}, {"time": 79922, "pitch": 34, "duration": 70, "velocity": 119}, {"time": 80047, "pitch": 34, "duration": 110, "velocity": 98}, {"time": 80163, "pitch": 34, "duration": 231, "velocity": 119}, {"time": 80404, "pitch": 35, "duration": 230, "velocity": 107}, {"time": 80644, "pitch": 36, "duration": 226, "velocity": 116}, {"time": 80880, "pitch": 44, "duration": 226, "velocity": 110}, {"time": 81116, "pitch": 41, "duration": 239, "velocity": 100}, {"time": 81356, "pitch": 31, "duration": 382, "velocity": 122}, {"time": 81838, "pitch": 31, "duration": 70, "velocity": 119}, {"time": 81962, "pitch": 31, "duration": 111, "velocity": 98}, {"time": 82079, "pitch": 34, "duration": 241, "velocity": 119}, {"time": 82320, "pitch": 36, "duration": 230, "velocity": 107}, {"time": 82560, "pitch": 38, "duration": 231, "velocity": 116}, {"time": 82801, "pitch": 41, "duration": 231, "velocity": 110}, {"time": 83042, "pitch": 38, "duration": 241, "velocity": 106}, {"time": 83283, "pitch": 36, "duration": 381, "velocity": 122}, {"time": 83764, "pitch": 36, "duration": 71, "velocity": 119}, {"time": 83889, "pitch": 36, "duration": 110, "velocity": 98}, {"time": 84005, "pitch": 38, "duration": 226, "velocity": 119}, {"time": 84241, "pitch": 39, "duration": 226, "velocity": 107}, {"time": 84476, "pitch": 40, "duration": 261, "velocity": 116}, {"time": 84717, "pitch": 48, "duration": 231, "velocity": 110}, {"time": 84958, "pitch": 46, "duration": 231, "velocity": 108}, {"time": 85199, "pitch": 32, "duration": 381, "velocity": 122}, {"time": 85680, "pitch": 32, "duration": 113, "velocity": 119}, {"time": 85805, "pitch": 32, "duration": 82, "velocity": 98}, {"time": 85921, "pitch": 32, "duration": 231, "velocity": 119}, {"time": 86162, "pitch": 32, "duration": 83, "velocity": 107}, {"time": 86286, "pitch": 32, "duration": 91, "velocity": 107}, {"time": 86403, "pitch": 36, "duration": 230, "velocity": 116}, {"time": 86643, "pitch": 44, "duration": 240, "velocity": 110}, {"time": 86884, "pitch": 44, "duration": 235, "velocity": 90}, {"time": 87120, "pitch": 34, "duration": 376, "velocity": 122}, {"time": 87596, "pitch": 34, "duration": 70, "velocity": 119}, {"time": 87721, "pitch": 34, "duration": 110, "velocity": 98}, {"time": 87837, "pitch": 34, "duration": 231, "velocity": 119}, {"time": 88078, "pitch": 35, "duration": 231, "velocity": 107}, {"time": 88319, "pitch": 36, "duration": 230, "velocity": 116}, {"time": 88559, "pitch": 44, "duration": 231, "velocity": 110}, {"time": 88800, "pitch": 41, "duration": 240, "velocity": 100}, {"time": 89041, "pitch": 31, "duration": 381, "velocity": 122}, {"time": 89523, "pitch": 31, "duration": 70, "velocity": 119}, {"time": 89647, "pitch": 31, "duration": 110, "velocity": 98}, {"time": 89763, "pitch": 34, "duration": 241, "velocity": 119}, {"time": 90004, "pitch": 36, "duration": 231, "velocity": 107}, {"time": 90245, "pitch": 38, "duration": 226, "velocity": 116}, {"time": 90480, "pitch": 41, "duration": 226, "velocity": 110}, {"time": 90716, "pitch": 38, "duration": 241, "velocity": 106}, {"time": 90957, "pitch": 36, "duration": 381, "velocity": 122}, {"time": 91438, "pitch": 36, "duration": 71, "velocity": 119}, {"time": 91563, "pitch": 36, "duration": 110, "velocity": 98}, {"time": 91679, "pitch": 38, "duration": 231, "velocity": 119}, {"time": 91920, "pitch": 39, "duration": 231, "velocity": 107}, {"time": 92161, "pitch": 40, "duration": 261, "velocity": 116}, {"time": 92402, "pitch": 48, "duration": 230, "velocity": 110}, {"time": 92642, "pitch": 46, "duration": 231, "velocity": 107}, {"time": 92883, "pitch": 29, "duration": 378, "velocity": 122}, {"time": 93360, "pitch": 29, "duration": 68, "velocity": 119}, {"time": 93481, "pitch": 29, "duration": 108, "velocity": 98}, {"time": 93595, "pitch": 29, "duration": 232, "velocity": 119}, {"time": 93836, "pitch": 29, "duration": 69, "velocity": 107}, {"time": 93960, "pitch": 29, "duration": 58, "velocity": 107}, {"time": 94077, "pitch": 29, "duration": 236, "velocity": 116}, {"time": 94317, "pitch": 31, "duration": 228, "velocity": 110}, {"time": 94558, "pitch": 32, "duration": 219, "velocity": 111}, {"time": 94799, "pitch": 34, "duration": 229, "velocity": 114}, {"time": 95521, "pitch": 34, "duration": 1396, "velocity": 127}, {"time": 96956, "pitch": 39, "duration": 231, "velocity": 113}, {"time": 97197, "pitch": 37, "duration": 230, "velocity": 98}, {"time": 97803, "pitch": 34, "duration": 90, "velocity": 89}, {"time": 98043, "pitch": 34, "duration": 114, "velocity": 100}, {"time": 98160, "pitch": 37, "duration": 110, "velocity": 107}, {"time": 98284, "pitch": 34, "duration": 111, "velocity": 102}, {"time": 98401, "pitch": 37, "duration": 230, "velocity": 102}, {"time": 98641, "pitch": 38, "duration": 201, "velocity": 102}, {"time": 98882, "pitch": 39, "duration": 231, "velocity": 113}, {"time": 99123, "pitch": 37, "duration": 231, "velocity": 98}, {"time": 99721, "pitch": 34, "duration": 88, "velocity": 89}, {"time": 99959, "pitch": 34, "duration": 114, "velocity": 100}, {"time": 100076, "pitch": 37, "duration": 110, "velocity": 107}, {"time": 100200, "pitch": 34, "duration": 110, "velocity": 102}, {"time": 100316, "pitch": 30, "duration": 472, "velocity": 119}, {"time": 100798, "pitch": 39, "duration": 231, "velocity": 113}, {"time": 101039, "pitch": 37, "duration": 231, "velocity": 98}, {"time": 101645, "pitch": 34, "duration": 90, "velocity": 89}, {"time": 101886, "pitch": 34, "duration": 113, "velocity": 100}, {"time": 102002, "pitch": 37, "duration": 110, "velocity": 107}, {"time": 102126, "pitch": 34, "duration": 111, "velocity": 102}, {"time": 102243, "pitch": 37, "duration": 231, "velocity": 102}, {"time": 102484, "pitch": 38, "duration": 200, "velocity": 102}, {"time": 102724, "pitch": 39, "duration": 226, "velocity": 113}, {"time": 102960, "pitch": 37, "duration": 226, "velocity": 98}, {"time": 103561, "pitch": 34, "duration": 90, "velocity": 89}, {"time": 103802, "pitch": 34, "duration": 113, "velocity": 100}, {"time": 103918, "pitch": 37, "duration": 110, "velocity": 107}, {"time": 104042, "pitch": 34, "duration": 111, "velocity": 102}, {"time": 104159, "pitch": 30, "duration": 471, "velocity": 119}, {"time": 104640, "pitch": 39, "duration": 231, "velocity": 113}, {"time": 104881, "pitch": 37, "duration": 231, "velocity": 98}, {"time": 105487, "pitch": 34, "duration": 90, "velocity": 89}, {"time": 105728, "pitch": 34, "duration": 113, "velocity": 100}, {"time": 105844, "pitch": 37, "duration": 111, "velocity": 107}, {"time": 105969, "pitch": 34, "duration": 110, "velocity": 102}, {"time": 106085, "pitch": 37, "duration": 226, "velocity": 102}, {"time": 106321, "pitch": 38, "duration": 196, "velocity": 102}, {"time": 106556, "pitch": 39, "duration": 231, "velocity": 113}, {"time": 106797, "pitch": 37, "duration": 231, "velocity": 98}, {"time": 107403, "pitch": 34, "duration": 90, "velocity": 89}, {"time": 107644, "pitch": 34, "duration": 113, "velocity": 100}, {"time": 107760, "pitch": 37, "duration": 110, "velocity": 107}, {"time": 107885, "pitch": 34, "duration": 110, "velocity": 102}, {"time": 108001, "pitch": 30, "duration": 471, "velocity": 119}, {"time": 108483, "pitch": 39, "duration": 230, "velocity": 113}, {"time": 108723, "pitch": 37, "duration": 231, "velocity": 98}, {"time": 109321, "pitch": 34, "duration": 89, "velocity": 89}, {"time": 109560, "pitch": 34, "duration": 113, "velocity": 100}, {"time": 109676, "pitch": 37, "duration": 110, "velocity": 107}, {"time": 109800, "pitch": 34, "duration": 111, "velocity": 102}, {"time": 109917, "pitch": 37, "duration": 231, "velocity": 102}, {"time": 110158, "pitch": 38, "duration": 200, "velocity": 102}, {"time": 110398, "pitch": 39, "duration": 231, "velocity": 113}, {"time": 110639, "pitch": 37, "duration": 231, "velocity": 98}, {"time": 111245, "pitch": 34, "duration": 91, "velocity": 89}, {"time": 111486, "pitch": 34, "duration": 113, "velocity": 100}, {"time": 111602, "pitch": 37, "duration": 111, "velocity": 107}, {"time": 111727, "pitch": 34, "duration": 110, "velocity": 102}, {"time": 111843, "pitch": 30, "duration": 472, "velocity": 119}, {"time": 112325, "pitch": 39, "duration": 226, "velocity": 113}, {"time": 112560, "pitch": 37, "duration": 226, "velocity": 98}, {"time": 113161, "pitch": 34, "duration": 90, "velocity": 89}, {"time": 113402, "pitch": 34, "duration": 113, "velocity": 100}, {"time": 113518, "pitch": 37, "duration": 111, "velocity": 107}, {"time": 113643, "pitch": 34, "duration": 110, "velocity": 102}, {"time": 113759, "pitch": 37, "duration": 231, "velocity": 102}, {"time": 114000, "pitch": 38, "duration": 201, "velocity": 102}, {"time": 114241, "pitch": 39, "duration": 230, "velocity": 113}, {"time": 114481, "pitch": 37, "duration": 231, "velocity": 98}, {"time": 115087, "pitch": 34, "duration": 91, "velocity": 89}, {"time": 115326, "pitch": 34, "duration": 110, "velocity": 100}, {"time": 115439, "pitch": 37, "duration": 108, "velocity": 107}, {"time": 115561, "pitch": 34, "duration": 108, "velocity": 102}, {"time": 115675, "pitch": 29, "duration": 110, "velocity": 102}, {"time": 115916, "pitch": 30, "duration": 391, "velocity": 119}, {"time": 116397, "pitch": 30, "duration": 231, "velocity": 107}, {"time": 116638, "pitch": 32, "duration": 231, "velocity": 98}, {"time": 116879, "pitch": 33, "duration": 231, "velocity": 78}, {"time": 117120, "pitch": 34, "duration": 230, "velocity": 105}, {"time": 117361, "pitch": 42, "duration": 230, "velocity": 119}, {"time": 117842, "pitch": 32, "duration": 231, "velocity": 119}, {"time": 118324, "pitch": 32, "duration": 230, "velocity": 105}, {"time": 118564, "pitch": 34, "duration": 226, "velocity": 100}, {"time": 118800, "pitch": 35, "duration": 226, "velocity": 87}, {"time": 119036, "pitch": 36, "duration": 200, "velocity": 127}, {"time": 119517, "pitch": 32, "duration": 482, "velocity": 127}, {"time": 119999, "pitch": 39, "duration": 231, "velocity": 113}, {"time": 120240, "pitch": 37, "duration": 230, "velocity": 98}, {"time": 120846, "pitch": 34, "duration": 90, "velocity": 89}, {"time": 121086, "pitch": 34, "duration": 114, "velocity": 100}, {"time": 121203, "pitch": 37, "duration": 110, "velocity": 107}, {"time": 121327, "pitch": 34, "duration": 111, "velocity": 102}, {"time": 121444, "pitch": 37, "duration": 230, "velocity": 102}, {"time": 121684, "pitch": 38, "duration": 201, "velocity": 102}, {"time": 121925, "pitch": 39, "duration": 226, "velocity": 113}, {"time": 122161, "pitch": 37, "duration": 226, "velocity": 98}, {"time": 122762, "pitch": 34, "duration": 90, "velocity": 89}, {"time": 123002, "pitch": 34, "duration": 114, "velocity": 100}, {"time": 123119, "pitch": 37, "duration": 110, "velocity": 107}, {"time": 123243, "pitch": 34, "duration": 110, "velocity": 102}, {"time": 123359, "pitch": 30, "duration": 472, "velocity": 119}, {"time": 123841, "pitch": 32, "duration": 100, "velocity": 110}, {"time": 124082, "pitch": 32, "duration": 221, "velocity": 107}, {"time": 124447, "pitch": 32, "duration": 120, "velocity": 110}, {"time": 124563, "pitch": 34, "duration": 121, "velocity": 110}, {"time": 124704, "pitch": 35, "duration": 149, "velocity": 100}, {"time": 124804, "pitch": 36, "duration": 226, "velocity": 105}, {"time": 125040, "pitch": 32, "duration": 157, "velocity": 113}, {"time": 125757, "pitch": 30, "duration": 90, "velocity": 107}, {"time": 125998, "pitch": 30, "duration": 220, "velocity": 105}, {"time": 126363, "pitch": 30, "duration": 120, "velocity": 102}, {"time": 126720, "pitch": 30, "duration": 482, "velocity": 127}, {"time": 127202, "pitch": 29, "duration": 481, "velocity": 116}, {"time": 127683, "pitch": 39, "duration": 231, "velocity": 113}, {"time": 127924, "pitch": 37, "duration": 231, "velocity": 98}, {"time": 128522, "pitch": 34, "duration": 89, "velocity": 89}, {"time": 128760, "pitch": 34, "duration": 114, "velocity": 100}, {"time": 128877, "pitch": 37, "duration": 110, "velocity": 107}, {"time": 129001, "pitch": 34, "duration": 111, "velocity": 102}, {"time": 129118, "pitch": 37, "duration": 230, "velocity": 102}, {"time": 129358, "pitch": 38, "duration": 201, "velocity": 102}, {"time": 129599, "pitch": 39, "duration": 231, "velocity": 113}, {"time": 129840, "pitch": 37, "duration": 231, "velocity": 98}, {"time": 130446, "pitch": 34, "duration": 90, "velocity": 89}, {"time": 130562, "pitch": 44, "duration": 241, "velocity": 127}, {"time": 130803, "pitch": 42, "duration": 107, "velocity": 100}, {"time": 130928, "pitch": 39, "duration": 114, "velocity": 85}, {"time": 131044, "pitch": 44, "duration": 118, "velocity": 122}, {"time": 131166, "pitch": 42, "duration": 363, "velocity": 105}, {"time": 131515, "pitch": 32, "duration": 201, "velocity": 110}, {"time": 131756, "pitch": 32, "duration": 221, "velocity": 107}, {"time": 132121, "pitch": 32, "duration": 121, "velocity": 110}, {"time": 132237, "pitch": 34, "duration": 121, "velocity": 110}, {"time": 132378, "pitch": 35, "duration": 150, "velocity": 100}, {"time": 132478, "pitch": 36, "duration": 231, "velocity": 105}, {"time": 132719, "pitch": 32, "duration": 161, "velocity": 113}, {"time": 132960, "pitch": 36, "duration": 112, "velocity": 127}, {"time": 133080, "pitch": 32, "duration": 301, "velocity": 105}, {"time": 133441, "pitch": 30, "duration": 91, "velocity": 107}, {"time": 133682, "pitch": 30, "duration": 221, "velocity": 105}, {"time": 134047, "pitch": 30, "duration": 121, "velocity": 102}, {"time": 134405, "pitch": 30, "duration": 471, "velocity": 127}, {"time": 134876, "pitch": 29, "duration": 231, "velocity": 127}, {"time": 135117, "pitch": 34, "duration": 411, "velocity": 127}, {"time": 135598, "pitch": 34, "duration": 90, "velocity": 107}, {"time": 135839, "pitch": 34, "duration": 90, "velocity": 107}, {"time": 136080, "pitch": 34, "duration": 90, "velocity": 119}, {"time": 136321, "pitch": 34, "duration": 100, "velocity": 110}, {"time": 136561, "pitch": 34, "duration": 101, "velocity": 110}, {"time": 136802, "pitch": 34, "duration": 100, "velocity": 113}, {"time": 137043, "pitch": 34, "duration": 100, "velocity": 122}, {"time": 137284, "pitch": 34, "duration": 314, "velocity": 122}, {"time": 138236, "pitch": 39, "duration": 231, "velocity": 122}, {"time": 138477, "pitch": 42, "duration": 101, "velocity": 120}, {"time": 138718, "pitch": 42, "duration": 221, "velocity": 116}, {"time": 138959, "pitch": 32, "duration": 381, "velocity": 122}, {"time": 139440, "pitch": 32, "duration": 113, "velocity": 119}, {"time": 139565, "pitch": 32, "duration": 82, "velocity": 98}, {"time": 139681, "pitch": 32, "duration": 231, "velocity": 119}, {"time": 139922, "pitch": 32, "duration": 83, "velocity": 107}, {"time": 140046, "pitch": 32, "duration": 91, "velocity": 107}, {"time": 140163, "pitch": 36, "duration": 231, "velocity": 116}, {"time": 140404, "pitch": 44, "duration": 239, "velocity": 110}, {"time": 140644, "pitch": 32, "duration": 235, "velocity": 90}, {"time": 140880, "pitch": 34, "duration": 376, "velocity": 122}, {"time": 141356, "pitch": 34, "duration": 71, "velocity": 119}, {"time": 141481, "pitch": 34, "duration": 110, "velocity": 98}, {"time": 141597, "pitch": 34, "duration": 231, "velocity": 119}, {"time": 141838, "pitch": 35, "duration": 231, "velocity": 107}, {"time": 142079, "pitch": 36, "duration": 230, "velocity": 116}, {"time": 142319, "pitch": 44, "duration": 231, "velocity": 110}, {"time": 142560, "pitch": 41, "duration": 240, "velocity": 100}, {"time": 142801, "pitch": 31, "duration": 381, "velocity": 122}, {"time": 143283, "pitch": 31, "duration": 70, "velocity": 119}, {"time": 143407, "pitch": 31, "duration": 110, "velocity": 98}, {"time": 143523, "pitch": 34, "duration": 241, "velocity": 119}, {"time": 143764, "pitch": 36, "duration": 231, "velocity": 107}, {"time": 144005, "pitch": 38, "duration": 226, "velocity": 116}, {"time": 144241, "pitch": 41, "duration": 225, "velocity": 110}, {"time": 144476, "pitch": 38, "duration": 241, "velocity": 106}, {"time": 144717, "pitch": 36, "duration": 381, "velocity": 122}, {"time": 145199, "pitch": 36, "duration": 70, "velocity": 119}, {"time": 145323, "pitch": 36, "duration": 110, "velocity": 98}, {"time": 145439, "pitch": 38, "duration": 231, "velocity": 119}, {"time": 145680, "pitch": 39, "duration": 231, "velocity": 107}, {"time": 145921, "pitch": 40, "duration": 261, "velocity": 116}, {"time": 146162, "pitch": 48, "duration": 230, "velocity": 110}, {"time": 146403, "pitch": 46, "duration": 230, "velocity": 108}, {"time": 146643, "pitch": 32, "duration": 378, "velocity": 122}, {"time": 147120, "pitch": 32, "duration": 110, "velocity": 119}, {"time": 147241, "pitch": 32, "duration": 81, "velocity": 98}, {"time": 147355, "pitch": 32, "duration": 231, "velocity": 119}, {"time": 147596, "pitch": 32, "duration": 83, "velocity": 107}, {"time": 147720, "pitch": 32, "duration": 91, "velocity": 107}, {"time": 147837, "pitch": 36, "duration": 231, "velocity": 116}, {"time": 148078, "pitch": 44, "duration": 239, "velocity": 110}, {"time": 148318, "pitch": 44, "duration": 240, "velocity": 90}, {"time": 148559, "pitch": 34, "duration": 381, "velocity": 122}, {"time": 149041, "pitch": 34, "duration": 70, "velocity": 119}, {"time": 149165, "pitch": 34, "duration": 111, "velocity": 98}, {"time": 149282, "pitch": 34, "duration": 230, "velocity": 119}, {"time": 149522, "pitch": 35, "duration": 231, "velocity": 107}, {"time": 149763, "pitch": 36, "duration": 231, "velocity": 116}, {"time": 150004, "pitch": 44, "duration": 231, "velocity": 110}, {"time": 150245, "pitch": 41, "duration": 234, "velocity": 100}, {"time": 150480, "pitch": 31, "duration": 376, "velocity": 122}, {"time": 150957, "pitch": 31, "duration": 70, "velocity": 119}, {"time": 151081, "pitch": 31, "duration": 110, "velocity": 98}, {"time": 151197, "pitch": 34, "duration": 241, "velocity": 119}, {"time": 151438, "pitch": 36, "duration": 231, "velocity": 107}, {"time": 151679, "pitch": 38, "duration": 231, "velocity": 116}, {"time": 151920, "pitch": 41, "duration": 231, "velocity": 110}, {"time": 152161, "pitch": 38, "duration": 240, "velocity": 106}, {"time": 152401, "pitch": 36, "duration": 382, "velocity": 122}, {"time": 152883, "pitch": 36, "duration": 70, "velocity": 119}, {"time": 153007, "pitch": 36, "duration": 111, "velocity": 98}, {"time": 153124, "pitch": 38, "duration": 226, "velocity": 119}, {"time": 153359, "pitch": 39, "duration": 226, "velocity": 107}, {"time": 153595, "pitch": 40, "duration": 261, "velocity": 116}, {"time": 153836, "pitch": 48, "duration": 231, "velocity": 110}, {"time": 154077, "pitch": 46, "duration": 230, "velocity": 107}, {"time": 154317, "pitch": 29, "duration": 382, "velocity": 122}, {"time": 154799, "pitch": 29, "duration": 70, "velocity": 119}, {"time": 154923, "pitch": 29, "duration": 111, "velocity": 98}, {"time": 155040, "pitch": 29, "duration": 232, "velocity": 119}, {"time": 155281, "pitch": 29, "duration": 69, "velocity": 107}, {"time": 155405, "pitch": 29, "duration": 57, "velocity": 107}, {"time": 155521, "pitch": 29, "duration": 237, "velocity": 116}, {"time": 155762, "pitch": 31, "duration": 228, "velocity": 110}, {"time": 156003, "pitch": 32, "duration": 219, "velocity": 111}, {"time": 156244, "pitch": 34, "duration": 228, "velocity": 114}, {"time": 156956, "pitch": 34, "duration": 1404, "velocity": 127}, {"time": 158400, "pitch": 27, "duration": 121, "velocity": 127}, {"time": 158521, "pitch": 31, "duration": 120, "velocity": 127}, {"time": 158641, "pitch": 34, "duration": 121, "velocity": 127}, {"time": 158762, "pitch": 41, "duration": 120, "velocity": 127}, {"time": 159002, "pitch": 39, "duration": 61, "velocity": 127}, {"time": 159243, "pitch": 37, "duration": 60, "velocity": 127}, {"time": 159484, "pitch": 31, "duration": 120, "velocity": 127}, {"time": 159604, "pitch": 34, "duration": 116, "velocity": 127}, {"time": 159845, "pitch": 34, "duration": 236, "velocity": 127}, {"time": 160081, "pitch": 31, "duration": 59, "velocity": 127}, {"time": 160316, "pitch": 27, "duration": 121, "velocity": 127}, {"time": 160437, "pitch": 31, "duration": 120, "velocity": 127}, {"time": 160557, "pitch": 34, "duration": 120, "velocity": 127}, {"time": 160677, "pitch": 41, "duration": 121, "velocity": 127}, {"time": 160918, "pitch": 39, "duration": 60, "velocity": 127}, {"time": 161159, "pitch": 37, "duration": 60, "velocity": 127}, {"time": 161400, "pitch": 30, "duration": 120, "velocity": 127}, {"time": 161520, "pitch": 27, "duration": 30, "velocity": 127}, {"time": 161540, "pitch": 28, "duration": 30, "velocity": 127}, {"time": 161560, "pitch": 30, "duration": 30, "velocity": 127}, {"time": 161580, "pitch": 32, "duration": 31, "velocity": 127}, {"time": 161601, "pitch": 34, "duration": 30, "velocity": 127}, {"time": 161621, "pitch": 35, "duration": 30, "velocity": 127}, {"time": 161641, "pitch": 37, "duration": 30, "velocity": 127}, {"time": 161661, "pitch": 39, "duration": 30, "velocity": 127}, {"time": 161681, "pitch": 40, "duration": 30, "velocity": 127}, {"time": 161701, "pitch": 42, "duration": 30, "velocity": 127}, {"time": 161721, "pitch": 44, "duration": 30, "velocity": 127}, {"time": 161741, "pitch": 46, "duration": 30, "velocity": 127}, {"time": 161761, "pitch": 54, "duration": 361, "velocity": 127}, {"time": 162243, "pitch": 27, "duration": 120, "velocity": 127}, {"time": 162363, "pitch": 31, "duration": 120, "velocity": 127}, {"time": 162483, "pitch": 34, "duration": 121, "velocity": 127}, {"time": 162604, "pitch": 41, "duration": 120, "velocity": 127}, {"time": 162842, "pitch": 39, "duration": 59, "velocity": 127}, {"time": 163078, "pitch": 37, "duration": 59, "velocity": 127}, {"time": 163316, "pitch": 31, "duration": 120, "velocity": 127}, {"time": 163436, "pitch": 34, "duration": 116, "velocity": 127}, {"time": 163677, "pitch": 34, "duration": 241, "velocity": 127}, {"time": 163918, "pitch": 31, "duration": 60, "velocity": 127}, {"time": 164159, "pitch": 27, "duration": 120, "velocity": 127}, {"time": 164279, "pitch": 31, "duration": 120, "velocity": 127}, {"time": 164399, "pitch": 34, "duration": 121, "velocity": 127}, {"time": 164520, "pitch": 41, "duration": 120, "velocity": 127}, {"time": 164761, "pitch": 39, "duration": 60, "velocity": 127}, {"time": 165001, "pitch": 37, "duration": 61, "velocity": 127}, {"time": 165242, "pitch": 30, "duration": 121, "velocity": 127}, {"time": 165363, "pitch": 27, "duration": 30, "velocity": 127}, {"time": 165383, "pitch": 28, "duration": 30, "velocity": 127}, {"time": 165403, "pitch": 30, "duration": 30, "velocity": 127}, {"time": 165423, "pitch": 32, "duration": 30, "velocity": 127}, {"time": 165443, "pitch": 34, "duration": 30, "velocity": 127}, {"time": 165463, "pitch": 35, "duration": 30, "velocity": 127}, {"time": 165483, "pitch": 37, "duration": 30, "velocity": 127}, {"time": 165503, "pitch": 39, "duration": 30, "velocity": 127}, {"time": 165523, "pitch": 40, "duration": 30, "velocity": 127}, {"time": 165543, "pitch": 42, "duration": 30, "velocity": 127}, {"time": 165563, "pitch": 44, "duration": 30, "velocity": 127}, {"time": 165583, "pitch": 46, "duration": 30, "velocity": 127}, {"time": 165603, "pitch": 54, "duration": 361, "velocity": 127}, {"time": 166085, "pitch": 27, "duration": 118, "velocity": 127}, {"time": 166203, "pitch": 31, "duration": 117, "velocity": 127}, {"time": 166320, "pitch": 34, "duration": 118, "velocity": 127}, {"time": 166438, "pitch": 41, "duration": 118, "velocity": 127}, {"time": 166676, "pitch": 39, "duration": 61, "velocity": 127}, {"time": 166917, "pitch": 37, "duration": 60, "velocity": 127}, {"time": 167158, "pitch": 31, "duration": 120, "velocity": 127}, {"time": 167278, "pitch": 34, "duration": 116, "velocity": 127}, {"time": 167519, "pitch": 34, "duration": 241, "velocity": 127}, {"time": 167760, "pitch": 31, "duration": 60, "velocity": 127}, {"time": 168001, "pitch": 27, "duration": 120, "velocity": 127}, {"time": 168121, "pitch": 31, "duration": 121, "velocity": 127}, {"time": 168242, "pitch": 34, "duration": 120, "velocity": 127}, {"time": 168362, "pitch": 41, "duration": 120, "velocity": 127}, {"time": 168603, "pitch": 39, "duration": 60, "velocity": 127}, {"time": 168844, "pitch": 37, "duration": 60, "velocity": 127}, {"time": 169082, "pitch": 30, "duration": 118, "velocity": 127}, {"time": 169200, "pitch": 27, "duration": 29, "velocity": 127}, {"time": 169219, "pitch": 28, "duration": 30, "velocity": 127}, {"time": 169239, "pitch": 30, "duration": 29, "velocity": 127}, {"time": 169258, "pitch": 32, "duration": 30, "velocity": 127}, {"time": 169278, "pitch": 34, "duration": 30, "velocity": 127}, {"time": 169298, "pitch": 35, "duration": 29, "velocity": 127}, {"time": 169317, "pitch": 37, "duration": 30, "velocity": 127}, {"time": 169337, "pitch": 39, "duration": 29, "velocity": 127}, {"time": 169357, "pitch": 40, "duration": 29, "velocity": 127}, {"time": 169376, "pitch": 42, "duration": 30, "velocity": 127}, {"time": 169396, "pitch": 44, "duration": 29, "velocity": 127}, {"time": 169416, "pitch": 46, "duration": 29, "velocity": 127}, {"time": 169435, "pitch": 54, "duration": 361, "velocity": 127}, {"time": 169917, "pitch": 27, "duration": 120, "velocity": 127}, {"time": 170037, "pitch": 31, "duration": 120, "velocity": 127}, {"time": 170157, "pitch": 34, "duration": 121, "velocity": 127}, {"time": 170278, "pitch": 41, "duration": 120, "velocity": 127}, {"time": 170519, "pitch": 39, "duration": 60, "velocity": 127}, {"time": 170759, "pitch": 37, "duration": 61, "velocity": 127}, {"time": 171000, "pitch": 31, "duration": 121, "velocity": 127}, {"time": 171121, "pitch": 34, "duration": 115, "velocity": 127}, {"time": 171361, "pitch": 34, "duration": 241, "velocity": 127}, {"time": 171602, "pitch": 31, "duration": 60, "velocity": 127}, {"time": 171843, "pitch": 27, "duration": 120, "velocity": 127}, {"time": 171963, "pitch": 31, "duration": 121, "velocity": 127}, {"time": 172084, "pitch": 34, "duration": 120, "velocity": 127}, {"time": 172204, "pitch": 41, "duration": 121, "velocity": 127}, {"time": 172442, "pitch": 39, "duration": 59, "velocity": 127}, {"time": 172678, "pitch": 37, "duration": 59, "velocity": 127}, {"time": 172796, "pitch": 54, "duration": 111, "velocity": 103}, {"time": 172896, "pitch": 55, "duration": 27, "velocity": 64}, {"time": 172906, "pitch": 56, "duration": 121, "velocity": 98}, {"time": 173037, "pitch": 54, "duration": 114, "velocity": 103}, {"time": 173137, "pitch": 55, "duration": 33, "velocity": 64}, {"time": 173147, "pitch": 56, "duration": 120, "velocity": 98}, {"time": 173277, "pitch": 54, "duration": 131, "velocity": 93}, {"time": 173398, "pitch": 51, "duration": 130, "velocity": 110}, {"time": 173518, "pitch": 49, "duration": 131, "velocity": 103}, {"time": 173639, "pitch": 41, "duration": 120, "velocity": 103}, {"time": 173759, "pitch": 32, "duration": 100, "velocity": 110}, {"time": 174000, "pitch": 32, "duration": 220, "velocity": 107}, {"time": 174365, "pitch": 32, "duration": 120, "velocity": 110}, {"time": 174481, "pitch": 34, "duration": 121, "velocity": 110}, {"time": 174622, "pitch": 35, "duration": 150, "velocity": 100}, {"time": 174722, "pitch": 36, "duration": 231, "velocity": 105}, {"time": 174963, "pitch": 32, "duration": 160, "velocity": 113}, {"time": 175675, "pitch": 30, "duration": 90, "velocity": 107}, {"time": 175916, "pitch": 30, "duration": 220, "velocity": 105}, {"time": 176281, "pitch": 30, "duration": 120, "velocity": 102}, {"time": 176638, "pitch": 30, "duration": 482, "velocity": 127}, {"time": 177120, "pitch": 29, "duration": 481, "velocity": 116}, {"time": 177601, "pitch": 39, "duration": 231, "velocity": 113}, {"time": 177842, "pitch": 37, "duration": 231, "velocity": 98}, {"time": 178448, "pitch": 34, "duration": 90, "velocity": 89}, {"time": 178686, "pitch": 34, "duration": 111, "velocity": 100}, {"time": 178800, "pitch": 37, "duration": 108, "velocity": 107}, {"time": 178922, "pitch": 34, "duration": 108, "velocity": 102}, {"time": 179036, "pitch": 37, "duration": 230, "velocity": 102}, {"time": 179276, "pitch": 38, "duration": 201, "velocity": 102}, {"time": 179517, "pitch": 39, "duration": 231, "velocity": 113}, {"time": 179758, "pitch": 37, "duration": 231, "velocity": 98}, {"time": 180364, "pitch": 34, "duration": 90, "velocity": 89}, {"time": 180480, "pitch": 44, "duration": 241, "velocity": 127}, {"time": 180721, "pitch": 42, "duration": 106, "velocity": 100}, {"time": 180845, "pitch": 39, "duration": 115, "velocity": 85}, {"time": 180962, "pitch": 44, "duration": 120, "velocity": 122}, {"time": 181086, "pitch": 42, "duration": 371, "velocity": 105}, {"time": 181443, "pitch": 32, "duration": 201, "velocity": 110}, {"time": 181684, "pitch": 32, "duration": 221, "velocity": 107}, {"time": 182047, "pitch": 32, "duration": 118, "velocity": 110}, {"time": 182161, "pitch": 34, "duration": 117, "velocity": 110}, {"time": 182298, "pitch": 35, "duration": 148, "velocity": 100}, {"time": 182396, "pitch": 36, "duration": 231, "velocity": 105}, {"time": 182637, "pitch": 32, "duration": 160, "velocity": 113}, {"time": 182878, "pitch": 36, "duration": 112, "velocity": 127}, {"time": 182998, "pitch": 32, "duration": 301, "velocity": 105}, {"time": 183359, "pitch": 30, "duration": 91, "velocity": 107}, {"time": 183600, "pitch": 30, "duration": 221, "velocity": 105}, {"time": 183965, "pitch": 30, "duration": 121, "velocity": 102}, {"time": 184323, "pitch": 30, "duration": 481, "velocity": 127}, {"time": 184804, "pitch": 29, "duration": 226, "velocity": 127}, {"time": 185040, "pitch": 34, "duration": 406, "velocity": 127}, {"time": 185516, "pitch": 34, "duration": 90, "velocity": 107}, {"time": 185757, "pitch": 34, "duration": 90, "velocity": 107}, {"time": 185998, "pitch": 34, "duration": 90, "velocity": 119}, {"time": 186238, "pitch": 34, "duration": 101, "velocity": 110}, {"time": 186479, "pitch": 34, "duration": 101, "velocity": 110}, {"time": 186720, "pitch": 34, "duration": 100, "velocity": 113}, {"time": 186961, "pitch": 34, "duration": 100, "velocity": 122}, {"time": 187202, "pitch": 34, "duration": 321, "velocity": 122}, {"time": 188165, "pitch": 39, "duration": 226, "velocity": 122}, {"time": 188400, "pitch": 42, "duration": 99, "velocity": 120}, {"time": 188636, "pitch": 42, "duration": 221, "velocity": 116}, {"time": 188877, "pitch": 32, "duration": 381, "velocity": 122}, {"time": 189358, "pitch": 32, "duration": 113, "velocity": 119}, {"time": 189483, "pitch": 32, "duration": 82, "velocity": 98}, {"time": 189599, "pitch": 32, "duration": 231, "velocity": 119}, {"time": 189840, "pitch": 32, "duration": 83, "velocity": 107}, {"time": 189964, "pitch": 32, "duration": 91, "velocity": 107}, {"time": 190081, "pitch": 36, "duration": 230, "velocity": 116}, {"time": 190321, "pitch": 44, "duration": 240, "velocity": 110}, {"time": 190562, "pitch": 32, "duration": 240, "velocity": 90}, {"time": 190803, "pitch": 34, "duration": 378, "velocity": 122}, {"time": 191279, "pitch": 34, "duration": 69, "velocity": 119}, {"time": 191401, "pitch": 34, "duration": 108, "velocity": 98}, {"time": 191515, "pitch": 34, "duration": 231, "velocity": 119}, {"time": 191756, "pitch": 35, "duration": 231, "velocity": 107}, {"time": 191997, "pitch": 36, "duration": 230, "velocity": 116}, {"time": 192237, "pitch": 44, "duration": 231, "velocity": 110}, {"time": 192478, "pitch": 41, "duration": 240, "velocity": 100}, {"time": 192719, "pitch": 31, "duration": 381, "velocity": 122}, {"time": 193201, "pitch": 31, "duration": 70, "velocity": 119}, {"time": 193325, "pitch": 31, "duration": 110, "velocity": 98}, {"time": 193441, "pitch": 34, "duration": 241, "velocity": 119}, {"time": 193682, "pitch": 36, "duration": 231, "velocity": 107}, {"time": 193923, "pitch": 38, "duration": 231, "velocity": 116}, {"time": 194164, "pitch": 41, "duration": 230, "velocity": 110}, {"time": 194404, "pitch": 38, "duration": 236, "velocity": 106}, {"time": 194640, "pitch": 36, "duration": 376, "velocity": 122}, {"time": 195116, "pitch": 36, "duration": 71, "velocity": 119}, {"time": 195241, "pitch": 36, "duration": 110, "velocity": 98}, {"time": 195357, "pitch": 38, "duration": 231, "velocity": 119}, {"time": 195598, "pitch": 39, "duration": 231, "velocity": 107}, {"time": 195839, "pitch": 40, "duration": 261, "velocity": 116}, {"time": 196080, "pitch": 48, "duration": 230, "velocity": 110}, {"time": 196320, "pitch": 46, "duration": 231, "velocity": 108}, {"time": 196561, "pitch": 32, "duration": 381, "velocity": 122}, {"time": 197043, "pitch": 32, "duration": 112, "velocity": 119}, {"time": 197167, "pitch": 32, "duration": 82, "velocity": 98}, {"time": 197284, "pitch": 32, "duration": 230, "velocity": 119}, {"time": 197524, "pitch": 32, "duration": 84, "velocity": 107}, {"time": 197649, "pitch": 32, "duration": 90, "velocity": 107}, {"time": 197765, "pitch": 36, "duration": 226, "velocity": 116}, {"time": 198001, "pitch": 44, "duration": 234, "velocity": 110}, {"time": 198236, "pitch": 44, "duration": 240, "velocity": 90}, {"time": 198477, "pitch": 34, "duration": 381, "velocity": 122}, {"time": 198959, "pitch": 34, "duration": 70, "velocity": 119}, {"time": 199083, "pitch": 34, "duration": 110, "velocity": 98}, {"time": 199199, "pitch": 34, "duration": 231, "velocity": 119}, {"time": 199440, "pitch": 35, "duration": 231, "velocity": 107}, {"time": 199681, "pitch": 36, "duration": 231, "velocity": 116}, {"time": 199922, "pitch": 44, "duration": 231, "velocity": 110}, {"time": 200163, "pitch": 41, "duration": 239, "velocity": 100}, {"time": 200403, "pitch": 31, "duration": 379, "velocity": 122}, {"time": 200880, "pitch": 31, "duration": 69, "velocity": 119}, {"time": 201002, "pitch": 31, "duration": 108, "velocity": 98}, {"time": 201115, "pitch": 34, "duration": 241, "velocity": 119}, {"time": 201356, "pitch": 36, "duration": 231, "velocity": 107}, {"time": 201597, "pitch": 38, "duration": 231, "velocity": 116}, {"time": 201838, "pitch": 41, "duration": 231, "velocity": 110}, {"time": 202079, "pitch": 38, "duration": 240, "velocity": 106}, {"time": 202319, "pitch": 36, "duration": 382, "velocity": 122}, {"time": 202801, "pitch": 36, "duration": 70, "velocity": 119}, {"time": 202925, "pitch": 36, "duration": 111, "velocity": 98}, {"time": 203042, "pitch": 38, "duration": 230, "velocity": 119}, {"time": 203283, "pitch": 39, "duration": 230, "velocity": 107}, {"time": 203523, "pitch": 40, "duration": 261, "velocity": 116}, {"time": 203764, "pitch": 48, "duration": 231, "velocity": 110}, {"time": 204005, "pitch": 46, "duration": 226, "velocity": 107}, {"time": 204240, "pitch": 29, "duration": 377, "velocity": 122}, {"time": 204717, "pitch": 29, "duration": 70, "velocity": 119}, {"time": 204841, "pitch": 29, "duration": 111, "velocity": 98}, {"time": 204958, "pitch": 29, "duration": 231, "velocity": 119}, {"time": 205198, "pitch": 29, "duration": 70, "velocity": 107}, {"time": 205323, "pitch": 29, "duration": 57, "velocity": 107}, {"time": 205439, "pitch": 29, "duration": 237, "velocity": 116}, {"time": 205680, "pitch": 31, "duration": 228, "velocity": 110}, {"time": 205921, "pitch": 32, "duration": 219, "velocity": 111}, {"time": 206162, "pitch": 34, "duration": 228, "velocity": 114}, {"time": 206884, "pitch": 34, "duration": 1394, "velocity": 127}, {"time": 214558, "pitch": 34, "duration": 1405, "velocity": 127}, {"time": 216003, "pitch": 39, "duration": 231, "velocity": 113}, {"time": 216244, "pitch": 37, "duration": 230, "velocity": 98}, {"time": 216842, "pitch": 34, "duration": 88, "velocity": 89}, {"time": 217080, "pitch": 34, "duration": 113, "velocity": 100}, {"time": 217196, "pitch": 37, "duration": 111, "velocity": 107}, {"time": 217321, "pitch": 34, "duration": 110, "velocity": 102}, {"time": 217437, "pitch": 37, "duration": 231, "velocity": 102}, {"time": 217678, "pitch": 38, "duration": 201, "velocity": 102}, {"time": 217919, "pitch": 39, "duration": 230, "velocity": 113}, {"time": 218159, "pitch": 37, "duration": 231, "velocity": 98}, {"time": 218765, "pitch": 34, "duration": 91, "velocity": 89}, {"time": 219006, "pitch": 34, "duration": 114, "velocity": 100}, {"time": 219123, "pitch": 37, "duration": 110, "velocity": 107}, {"time": 219247, "pitch": 34, "duration": 110, "velocity": 102}, {"time": 219363, "pitch": 30, "duration": 472, "velocity": 119}, {"time": 219845, "pitch": 39, "duration": 226, "velocity": 113}, {"time": 220081, "pitch": 37, "duration": 225, "velocity": 98}, {"time": 220681, "pitch": 34, "duration": 91, "velocity": 89}, {"time": 220922, "pitch": 34, "duration": 114, "velocity": 100}, {"time": 221039, "pitch": 37, "duration": 110, "velocity": 107}, {"time": 221163, "pitch": 34, "duration": 110, "velocity": 102}, {"time": 221279, "pitch": 37, "duration": 231, "velocity": 102}, {"time": 221520, "pitch": 38, "duration": 201, "velocity": 102}, {"time": 221761, "pitch": 39, "duration": 231, "velocity": 113}, {"time": 222002, "pitch": 37, "duration": 230, "velocity": 98}, {"time": 222608, "pitch": 34, "duration": 90, "velocity": 89}, {"time": 222846, "pitch": 34, "duration": 111, "velocity": 100}, {"time": 222960, "pitch": 37, "duration": 108, "velocity": 107}, {"time": 223081, "pitch": 34, "duration": 108, "velocity": 102}, {"time": 223195, "pitch": 30, "duration": 472, "velocity": 119}, {"time": 223677, "pitch": 39, "duration": 231, "velocity": 113}, {"time": 223918, "pitch": 37, "duration": 230, "velocity": 98}, {"time": 224524, "pitch": 34, "duration": 90, "velocity": 89}, {"time": 224764, "pitch": 34, "duration": 114, "velocity": 100}, {"time": 224881, "pitch": 37, "duration": 110, "velocity": 107}, {"time": 225005, "pitch": 34, "duration": 111, "velocity": 102}, {"time": 225122, "pitch": 37, "duration": 230, "velocity": 102}, {"time": 225362, "pitch": 38, "duration": 201, "velocity": 102}, {"time": 225603, "pitch": 39, "duration": 231, "velocity": 113}, {"time": 225844, "pitch": 37, "duration": 231, "velocity": 98}, {"time": 226442, "pitch": 34, "duration": 88, "velocity": 89}, {"time": 226680, "pitch": 34, "duration": 114, "velocity": 100}, {"time": 226797, "pitch": 37, "duration": 110, "velocity": 107}, {"time": 226921, "pitch": 34, "duration": 110, "velocity": 102}, {"time": 227037, "pitch": 30, "duration": 472, "velocity": 119}, {"time": 227519, "pitch": 39, "duration": 231, "velocity": 113}, {"time": 227760, "pitch": 37, "duration": 231, "velocity": 98}, {"time": 228366, "pitch": 34, "duration": 90, "velocity": 89}, {"time": 228607, "pitch": 34, "duration": 113, "velocity": 100}, {"time": 228723, "pitch": 37, "duration": 110, "velocity": 107}, {"time": 228847, "pitch": 34, "duration": 111, "velocity": 102}, {"time": 228964, "pitch": 37, "duration": 226, "velocity": 102}, {"time": 229199, "pitch": 38, "duration": 197, "velocity": 102}, {"time": 229435, "pitch": 39, "duration": 231, "velocity": 113}, {"time": 229676, "pitch": 37, "duration": 231, "velocity": 98}, {"time": 230282, "pitch": 34, "duration": 90, "velocity": 89}, {"time": 230523, "pitch": 34, "duration": 113, "velocity": 100}, {"time": 230639, "pitch": 37, "duration": 110, "velocity": 107}, {"time": 230763, "pitch": 34, "duration": 111, "velocity": 102}, {"time": 230880, "pitch": 30, "duration": 471, "velocity": 119}, {"time": 231361, "pitch": 39, "duration": 231, "velocity": 113}, {"time": 231602, "pitch": 37, "duration": 231, "velocity": 98}, {"time": 232208, "pitch": 34, "duration": 90, "velocity": 89}, {"time": 232446, "pitch": 34, "duration": 111, "velocity": 100}, {"time": 232560, "pitch": 37, "duration": 108, "velocity": 107}, {"time": 232682, "pitch": 34, "duration": 108, "velocity": 102}, {"time": 232796, "pitch": 37, "duration": 230, "velocity": 102}, {"time": 233036, "pitch": 38, "duration": 201, "velocity": 102}, {"time": 233277, "pitch": 39, "duration": 231, "velocity": 113}, {"time": 233518, "pitch": 37, "duration": 231, "velocity": 98}, {"time": 234124, "pitch": 34, "duration": 90, "velocity": 89}, {"time": 234365, "pitch": 34, "duration": 113, "velocity": 100}, {"time": 234481, "pitch": 37, "duration": 111, "velocity": 107}, {"time": 234606, "pitch": 34, "duration": 110, "velocity": 102}, {"time": 234722, "pitch": 30, "duration": 472, "velocity": 119}, {"time": 235204, "pitch": 39, "duration": 230, "velocity": 113}, {"time": 235444, "pitch": 37, "duration": 231, "velocity": 98}, {"time": 236042, "pitch": 34, "duration": 89, "velocity": 89}, {"time": 236281, "pitch": 34, "duration": 113, "velocity": 100}, {"time": 236397, "pitch": 37, "duration": 110, "velocity": 107}, {"time": 236522, "pitch": 34, "duration": 110, "velocity": 102}, {"time": 236638, "pitch": 37, "duration": 231, "velocity": 102}, {"time": 236879, "pitch": 38, "duration": 200, "velocity": 102}, {"time": 237119, "pitch": 39, "duration": 231, "velocity": 113}, {"time": 237360, "pitch": 37, "duration": 231, "velocity": 98}, {"time": 237966, "pitch": 34, "duration": 91, "velocity": 89}, {"time": 238207, "pitch": 34, "duration": 113, "velocity": 100}, {"time": 238323, "pitch": 37, "duration": 111, "velocity": 107}, {"time": 238448, "pitch": 34, "duration": 110, "velocity": 102}, {"time": 238564, "pitch": 30, "duration": 462, "velocity": 119}, {"time": 239035, "pitch": 39, "duration": 231, "velocity": 113}, {"time": 239276, "pitch": 37, "duration": 231, "velocity": 98}, {"time": 239882, "pitch": 34, "duration": 90, "velocity": 89}, {"time": 240123, "pitch": 34, "duration": 113, "velocity": 100}, {"time": 240239, "pitch": 37, "duration": 111, "velocity": 107}, {"time": 240364, "pitch": 34, "duration": 110, "velocity": 102}, {"time": 240480, "pitch": 37, "duration": 231, "velocity": 102}, {"time": 240721, "pitch": 38, "duration": 201, "velocity": 102}, {"time": 240962, "pitch": 39, "duration": 230, "velocity": 113}, {"time": 241203, "pitch": 37, "duration": 230, "velocity": 98}, {"time": 241809, "pitch": 34, "duration": 90, "velocity": 89}, {"time": 242047, "pitch": 34, "duration": 111, "velocity": 100}, {"time": 242160, "pitch": 37, "duration": 108, "velocity": 107}, {"time": 242282, "pitch": 34, "duration": 108, "velocity": 102}, {"time": 242396, "pitch": 30, "duration": 472, "velocity": 119}, {"time": 242878, "pitch": 39, "duration": 230, "velocity": 113}, {"time": 243118, "pitch": 37, "duration": 231, "velocity": 98}, {"time": 243724, "pitch": 34, "duration": 91, "velocity": 89}, {"time": 243965, "pitch": 34, "duration": 114, "velocity": 100}, {"time": 244082, "pitch": 37, "duration": 110, "velocity": 107}, {"time": 244206, "pitch": 34, "duration": 110, "velocity": 102}, {"time": 244322, "pitch": 37, "duration": 231, "velocity": 102}, {"time": 244563, "pitch": 38, "duration": 201, "velocity": 102}, {"time": 244804, "pitch": 39, "duration": 231, "velocity": 113}, {"time": 245045, "pitch": 37, "duration": 231, "velocity": 98}, {"time": 245651, "pitch": 34, "duration": 90, "velocity": 89}, {"time": 245892, "pitch": 34, "duration": 113, "velocity": 100}, {"time": 246008, "pitch": 37, "duration": 110, "velocity": 107}, {"time": 246132, "pitch": 34, "duration": 111, "velocity": 102}, {"time": 246249, "pitch": 30, "duration": 471, "velocity": 119}, {"time": 20645, "pitch": 67, "duration": 78, "velocity": 119}, {"time": 20645, "pitch": 79, "duration": 78, "velocity": 119}, {"time": 21116, "pitch": 61, "duration": 110, "velocity": 116}, {"time": 21116, "pitch": 73, "duration": 110, "velocity": 116}, {"time": 21240, "pitch": 60, "duration": 117, "velocity": 95}, {"time": 21240, "pitch": 72, "duration": 117, "velocity": 95}, {"time": 21357, "pitch": 61, "duration": 120, "velocity": 100}, {"time": 21357, "pitch": 73, "duration": 120, "velocity": 100}, {"time": 21838, "pitch": 60, "duration": 80, "velocity": 116}, {"time": 21838, "pitch": 72, "duration": 80, "velocity": 116}, {"time": 22079, "pitch": 61, "duration": 80, "velocity": 107}, {"time": 22079, "pitch": 73, "duration": 80, "velocity": 107}, {"time": 22320, "pitch": 60, "duration": 90, "velocity": 107}, {"time": 22320, "pitch": 72, "duration": 90, "velocity": 107}, {"time": 22561, "pitch": 61, "duration": 364, "velocity": 107}, {"time": 22561, "pitch": 73, "duration": 364, "velocity": 107}, {"time": 22926, "pitch": 60, "duration": 113, "velocity": 85}, {"time": 22926, "pitch": 72, "duration": 113, "velocity": 85}, {"time": 23042, "pitch": 61, "duration": 124, "velocity": 107}, {"time": 23042, "pitch": 73, "duration": 124, "velocity": 107}, {"time": 23167, "pitch": 60, "duration": 115, "velocity": 95}, {"time": 23167, "pitch": 72, "duration": 115, "velocity": 95}, {"time": 23283, "pitch": 61, "duration": 120, "velocity": 105}, {"time": 23283, "pitch": 73, "duration": 120, "velocity": 105}, {"time": 23759, "pitch": 63, "duration": 118, "velocity": 115}, {"time": 23759, "pitch": 75, "duration": 118, "velocity": 115}, {"time": 24476, "pitch": 67, "duration": 81, "velocity": 119}, {"time": 24476, "pitch": 79, "duration": 81, "velocity": 119}, {"time": 24958, "pitch": 61, "duration": 110, "velocity": 116}, {"time": 24958, "pitch": 73, "duration": 110, "velocity": 116}, {"time": 25082, "pitch": 60, "duration": 117, "velocity": 95}, {"time": 25082, "pitch": 72, "duration": 117, "velocity": 95}, {"time": 25199, "pitch": 61, "duration": 120, "velocity": 100}, {"time": 25199, "pitch": 73, "duration": 120, "velocity": 100}, {"time": 25680, "pitch": 60, "duration": 81, "velocity": 116}, {"time": 25680, "pitch": 72, "duration": 81, "velocity": 116}, {"time": 25921, "pitch": 61, "duration": 80, "velocity": 107}, {"time": 25921, "pitch": 73, "duration": 80, "velocity": 107}, {"time": 26162, "pitch": 60, "duration": 90, "velocity": 107}, {"time": 26162, "pitch": 72, "duration": 90, "velocity": 107}, {"time": 26403, "pitch": 61, "duration": 364, "velocity": 107}, {"time": 26403, "pitch": 73, "duration": 364, "velocity": 107}, {"time": 26768, "pitch": 60, "duration": 113, "velocity": 85}, {"time": 26768, "pitch": 72, "duration": 113, "velocity": 85}, {"time": 26884, "pitch": 61, "duration": 121, "velocity": 107}, {"time": 26884, "pitch": 73, "duration": 121, "velocity": 107}, {"time": 27006, "pitch": 60, "duration": 113, "velocity": 95}, {"time": 27006, "pitch": 72, "duration": 113, "velocity": 95}, {"time": 27120, "pitch": 61, "duration": 118, "velocity": 105}, {"time": 27120, "pitch": 73, "duration": 118, "velocity": 105}, {"time": 27596, "pitch": 63, "duration": 121, "velocity": 115}, {"time": 27596, "pitch": 75, "duration": 121, "velocity": 115}, {"time": 42243, "pitch": 58, "duration": 120, "velocity": 110}, {"time": 42243, "pitch": 70, "duration": 120, "velocity": 110}, {"time": 42363, "pitch": 60, "duration": 121, "velocity": 110}, {"time": 42363, "pitch": 72, "duration": 121, "velocity": 110}, {"time": 42484, "pitch": 63, "duration": 120, "velocity": 116}, {"time": 42484, "pitch": 75, "duration": 120, "velocity": 116}, {"time": 42604, "pitch": 65, "duration": 120, "velocity": 113}, {"time": 42604, "pitch": 77, "duration": 120, "velocity": 113}, {"time": 42724, "pitch": 66, "duration": 374, "velocity": 122}, {"time": 42724, "pitch": 78, "duration": 374, "velocity": 122}, {"time": 57601, "pitch": 63, "duration": 201, "velocity": 127}, {"time": 57601, "pitch": 75, "duration": 261, "velocity": 127}, {"time": 58083, "pitch": 63, "duration": 151, "velocity": 127}, {"time": 58083, "pitch": 75, "duration": 281, "velocity": 127}, {"time": 58565, "pitch": 63, "duration": 708, "velocity": 122}, {"time": 58565, "pitch": 75, "duration": 706, "velocity": 110}, {"time": 66479, "pitch": 70, "duration": 121, "velocity": 122}, {"time": 66479, "pitch": 82, "duration": 121, "velocity": 122}, {"time": 66961, "pitch": 63, "duration": 70, "velocity": 119}, {"time": 66961, "pitch": 75, "duration": 70, "velocity": 119}, {"time": 67202, "pitch": 66, "duration": 120, "velocity": 107}, {"time": 67202, "pitch": 78, "duration": 120, "velocity": 107}, {"time": 67326, "pitch": 63, "duration": 81, "velocity": 116}, {"time": 67326, "pitch": 75, "duration": 81, "velocity": 116}, {"time": 67567, "pitch": 63, "duration": 80, "velocity": 116}, {"time": 67567, "pitch": 75, "duration": 80, "velocity": 116}, {"time": 67924, "pitch": 61, "duration": 115, "velocity": 122}, {"time": 67924, "pitch": 73, "duration": 115, "velocity": 122}, {"time": 68049, "pitch": 63, "duration": 70, "velocity": 110}, {"time": 68049, "pitch": 75, "duration": 70, "velocity": 110}, {"time": 68401, "pitch": 70, "duration": 117, "velocity": 122}, {"time": 68401, "pitch": 82, "duration": 117, "velocity": 122}, {"time": 68877, "pitch": 63, "duration": 80, "velocity": 116}, {"time": 68877, "pitch": 75, "duration": 80, "velocity": 116}, {"time": 69118, "pitch": 66, "duration": 110, "velocity": 105}, {"time": 69118, "pitch": 78, "duration": 110, "velocity": 105}, {"time": 69242, "pitch": 63, "duration": 100, "velocity": 100}, {"time": 69242, "pitch": 75, "duration": 100, "velocity": 100}, {"time": 69483, "pitch": 63, "duration": 80, "velocity": 113}, {"time": 69483, "pitch": 75, "duration": 80, "velocity": 113}, {"time": 73923, "pitch": 58, "duration": 125, "velocity": 82}, {"time": 73923, "pitch": 70, "duration": 125, "velocity": 82}, {"time": 74048, "pitch": 61, "duration": 116, "velocity": 89}, {"time": 74048, "pitch": 73, "duration": 116, "velocity": 89}, {"time": 74164, "pitch": 63, "duration": 124, "velocity": 72}, {"time": 74164, "pitch": 75, "duration": 124, "velocity": 72}, {"time": 74288, "pitch": 66, "duration": 170, "velocity": 85}, {"time": 74288, "pitch": 78, "duration": 170, "velocity": 85}, {"time": 74640, "pitch": 58, "duration": 122, "velocity": 100}, {"time": 74640, "pitch": 70, "duration": 122, "velocity": 100}, {"time": 74762, "pitch": 61, "duration": 114, "velocity": 93}, {"time": 74762, "pitch": 73, "duration": 114, "velocity": 93}, {"time": 74876, "pitch": 63, "duration": 124, "velocity": 76}, {"time": 74876, "pitch": 75, "duration": 124, "velocity": 76}, {"time": 75000, "pitch": 66, "duration": 125, "velocity": 91}, {"time": 75000, "pitch": 78, "duration": 125, "velocity": 91}, {"time": 75357, "pitch": 58, "duration": 125, "velocity": 100}, {"time": 75357, "pitch": 70, "duration": 125, "velocity": 100}, {"time": 75482, "pitch": 61, "duration": 116, "velocity": 93}, {"time": 75482, "pitch": 73, "duration": 116, "velocity": 93}, {"time": 75598, "pitch": 63, "duration": 125, "velocity": 76}, {"time": 75598, "pitch": 75, "duration": 125, "velocity": 76}, {"time": 75723, "pitch": 66, "duration": 124, "velocity": 91}, {"time": 75723, "pitch": 78, "duration": 124, "velocity": 91}, {"time": 75839, "pitch": 63, "duration": 1651, "velocity": 110}, {"time": 75839, "pitch": 75, "duration": 1653, "velocity": 116}, {"time": 77519, "pitch": 63, "duration": 465, "velocity": 127}, {"time": 77519, "pitch": 75, "duration": 465, "velocity": 107}, {"time": 83764, "pitch": 60, "duration": 81, "velocity": 113}, {"time": 83764, "pitch": 72, "duration": 81, "velocity": 113}, {"time": 84005, "pitch": 58, "duration": 236, "velocity": 119}, {"time": 84005, "pitch": 70, "duration": 236, "velocity": 119}, {"time": 84241, "pitch": 60, "duration": 88, "velocity": 105}, {"time": 84241, "pitch": 72, "duration": 88, "velocity": 105}, {"time": 84476, "pitch": 55, "duration": 241, "velocity": 119}, {"time": 84476, "pitch": 67, "duration": 241, "velocity": 119}, {"time": 84717, "pitch": 58, "duration": 80, "velocity": 95}, {"time": 84717, "pitch": 70, "duration": 80, "velocity": 95}, {"time": 84958, "pitch": 53, "duration": 90, "velocity": 102}, {"time": 84958, "pitch": 65, "duration": 90, "velocity": 102}, {"time": 85199, "pitch": 51, "duration": 481, "velocity": 127}, {"time": 85199, "pitch": 63, "duration": 481, "velocity": 127}, {"time": 91198, "pitch": 48, "duration": 70, "velocity": 105}, {"time": 91198, "pitch": 60, "duration": 70, "velocity": 105}, {"time": 91322, "pitch": 48, "duration": 80, "velocity": 107}, {"time": 91322, "pitch": 60, "duration": 80, "velocity": 107}, {"time": 91563, "pitch": 48, "duration": 80, "velocity": 113}, {"time": 91563, "pitch": 60, "duration": 80, "velocity": 113}, {"time": 91679, "pitch": 50, "duration": 80, "velocity": 107}, {"time": 91679, "pitch": 62, "duration": 80, "velocity": 107}, {"time": 91804, "pitch": 50, "duration": 80, "velocity": 93}, {"time": 91804, "pitch": 62, "duration": 80, "velocity": 93}, {"time": 92044, "pitch": 50, "duration": 51, "velocity": 85}, {"time": 92044, "pitch": 62, "duration": 51, "velocity": 85}, {"time": 92161, "pitch": 51, "duration": 190, "velocity": 122}, {"time": 92161, "pitch": 63, "duration": 190, "velocity": 122}, {"time": 92402, "pitch": 51, "duration": 50, "velocity": 110}, {"time": 92402, "pitch": 63, "duration": 50, "velocity": 110}, {"time": 92642, "pitch": 53, "duration": 71, "velocity": 107}, {"time": 92642, "pitch": 65, "duration": 71, "velocity": 107}, {"time": 92883, "pitch": 58, "duration": 427, "velocity": 127}, {"time": 92883, "pitch": 70, "duration": 427, "velocity": 127}, {"time": 94317, "pitch": 58, "duration": 81, "velocity": 127}, {"time": 94317, "pitch": 70, "duration": 81, "velocity": 127}, {"time": 94799, "pitch": 58, "duration": 351, "velocity": 127}, {"time": 94799, "pitch": 70, "duration": 351, "velocity": 127}, {"time": 95521, "pitch": 58, "duration": 1407, "velocity": 123}, {"time": 95521, "pitch": 70, "duration": 1407, "velocity": 123}, {"time": 97437, "pitch": 67, "duration": 81, "velocity": 119}, {"time": 97437, "pitch": 79, "duration": 81, "velocity": 119}, {"time": 97919, "pitch": 61, "duration": 110, "velocity": 116}, {"time": 97919, "pitch": 73, "duration": 110, "velocity": 116}, {"time": 98043, "pitch": 60, "duration": 117, "velocity": 95}, {"time": 98043, "pitch": 72, "duration": 117, "velocity": 95}, {"time": 98160, "pitch": 61, "duration": 120, "velocity": 100}, {"time": 98160, "pitch": 73, "duration": 120, "velocity": 100}, {"time": 98641, "pitch": 60, "duration": 81, "velocity": 116}, {"time": 98641, "pitch": 72, "duration": 81, "velocity": 116}, {"time": 98882, "pitch": 61, "duration": 80, "velocity": 107}, {"time": 98882, "pitch": 73, "duration": 80, "velocity": 107}, {"time": 99123, "pitch": 60, "duration": 90, "velocity": 107}, {"time": 99123, "pitch": 72, "duration": 90, "velocity": 107}, {"time": 99364, "pitch": 61, "duration": 356, "velocity": 107}, {"time": 99364, "pitch": 73, "duration": 356, "velocity": 107}, {"time": 99721, "pitch": 60, "duration": 111, "velocity": 85}, {"time": 99721, "pitch": 72, "duration": 111, "velocity": 85}, {"time": 99835, "pitch": 61, "duration": 123, "velocity": 107}, {"time": 99835, "pitch": 73, "duration": 123, "velocity": 107}, {"time": 99959, "pitch": 60, "duration": 116, "velocity": 95}, {"time": 99959, "pitch": 72, "duration": 116, "velocity": 95}, {"time": 100076, "pitch": 61, "duration": 120, "velocity": 105}, {"time": 100076, "pitch": 73, "duration": 120, "velocity": 105}, {"time": 100557, "pitch": 63, "duration": 121, "velocity": 115}, {"time": 100557, "pitch": 75, "duration": 121, "velocity": 115}, {"time": 101280, "pitch": 67, "duration": 80, "velocity": 119}, {"time": 101280, "pitch": 79, "duration": 80, "velocity": 119}, {"time": 101761, "pitch": 61, "duration": 111, "velocity": 116}, {"time": 101761, "pitch": 73, "duration": 111, "velocity": 116}, {"time": 101886, "pitch": 60, "duration": 116, "velocity": 95}, {"time": 101886, "pitch": 72, "duration": 116, "velocity": 95}, {"time": 102002, "pitch": 61, "duration": 120, "velocity": 100}, {"time": 102002, "pitch": 73, "duration": 120, "velocity": 100}, {"time": 102484, "pitch": 60, "duration": 80, "velocity": 116}, {"time": 102484, "pitch": 72, "duration": 80, "velocity": 116}, {"time": 102724, "pitch": 61, "duration": 79, "velocity": 107}, {"time": 102724, "pitch": 73, "duration": 79, "velocity": 107}, {"time": 102960, "pitch": 60, "duration": 88, "velocity": 107}, {"time": 102960, "pitch": 72, "duration": 88, "velocity": 107}, {"time": 103196, "pitch": 61, "duration": 364, "velocity": 107}, {"time": 103196, "pitch": 73, "duration": 364, "velocity": 107}, {"time": 103561, "pitch": 60, "duration": 113, "velocity": 85}, {"time": 103561, "pitch": 72, "duration": 113, "velocity": 85}, {"time": 103677, "pitch": 61, "duration": 124, "velocity": 107}, {"time": 103677, "pitch": 73, "duration": 124, "velocity": 107}, {"time": 103802, "pitch": 60, "duration": 115, "velocity": 95}, {"time": 103802, "pitch": 72, "duration": 115, "velocity": 95}, {"time": 103918, "pitch": 61, "duration": 120, "velocity": 105}, {"time": 103918, "pitch": 73, "duration": 120, "velocity": 105}, {"time": 104399, "pitch": 63, "duration": 121, "velocity": 115}, {"time": 104399, "pitch": 75, "duration": 121, "velocity": 115}, {"time": 119036, "pitch": 63, "duration": 200, "velocity": 127}, {"time": 119036, "pitch": 75, "duration": 261, "velocity": 127}, {"time": 119517, "pitch": 63, "duration": 151, "velocity": 127}, {"time": 119517, "pitch": 75, "duration": 281, "velocity": 127}, {"time": 119999, "pitch": 63, "duration": 718, "velocity": 122}, {"time": 119999, "pitch": 75, "duration": 716, "velocity": 110}, {"time": 127924, "pitch": 70, "duration": 120, "velocity": 122}, {"time": 127924, "pitch": 82, "duration": 120, "velocity": 122}, {"time": 128400, "pitch": 63, "duration": 69, "velocity": 119}, {"time": 128400, "pitch": 75, "duration": 69, "velocity": 119}, {"time": 128636, "pitch": 66, "duration": 120, "velocity": 107}, {"time": 128636, "pitch": 78, "duration": 120, "velocity": 107}, {"time": 128760, "pitch": 63, "duration": 81, "velocity": 116}, {"time": 128760, "pitch": 75, "duration": 81, "velocity": 116}, {"time": 129001, "pitch": 63, "duration": 81, "velocity": 116}, {"time": 129001, "pitch": 75, "duration": 81, "velocity": 116}, {"time": 129358, "pitch": 61, "duration": 115, "velocity": 122}, {"time": 129358, "pitch": 73, "duration": 115, "velocity": 122}, {"time": 129483, "pitch": 63, "duration": 70, "velocity": 110}, {"time": 129483, "pitch": 75, "duration": 70, "velocity": 110}, {"time": 129840, "pitch": 70, "duration": 120, "velocity": 122}, {"time": 129840, "pitch": 82, "duration": 120, "velocity": 122}, {"time": 130322, "pitch": 63, "duration": 80, "velocity": 116}, {"time": 130322, "pitch": 75, "duration": 80, "velocity": 116}, {"time": 130562, "pitch": 66, "duration": 111, "velocity": 105}, {"time": 130562, "pitch": 78, "duration": 111, "velocity": 105}, {"time": 130687, "pitch": 63, "duration": 100, "velocity": 100}, {"time": 130687, "pitch": 75, "duration": 100, "velocity": 100}, {"time": 130928, "pitch": 63, "duration": 80, "velocity": 113}, {"time": 130928, "pitch": 75, "duration": 80, "velocity": 113}, {"time": 135357, "pitch": 58, "duration": 125, "velocity": 82}, {"time": 135357, "pitch": 70, "duration": 125, "velocity": 82}, {"time": 135482, "pitch": 61, "duration": 116, "velocity": 89}, {"time": 135482, "pitch": 73, "duration": 116, "velocity": 89}, {"time": 135598, "pitch": 63, "duration": 125, "velocity": 72}, {"time": 135598, "pitch": 75, "duration": 125, "velocity": 72}, {"time": 135723, "pitch": 66, "duration": 170, "velocity": 85}, {"time": 135723, "pitch": 78, "duration": 170, "velocity": 85}, {"time": 136080, "pitch": 58, "duration": 124, "velocity": 100}, {"time": 136080, "pitch": 70, "duration": 124, "velocity": 100}, {"time": 136204, "pitch": 61, "duration": 117, "velocity": 93}, {"time": 136204, "pitch": 73, "duration": 117, "velocity": 93}, {"time": 136321, "pitch": 63, "duration": 124, "velocity": 76}, {"time": 136321, "pitch": 75, "duration": 124, "velocity": 76}, {"time": 136445, "pitch": 66, "duration": 124, "velocity": 91}, {"time": 136445, "pitch": 78, "duration": 124, "velocity": 91}, {"time": 136802, "pitch": 58, "duration": 125, "velocity": 100}, {"time": 136802, "pitch": 70, "duration": 125, "velocity": 100}, {"time": 136927, "pitch": 61, "duration": 116, "velocity": 93}, {"time": 136927, "pitch": 73, "duration": 116, "velocity": 93}, {"time": 137043, "pitch": 63, "duration": 124, "velocity": 76}, {"time": 137043, "pitch": 75, "duration": 124, "velocity": 76}, {"time": 137167, "pitch": 66, "duration": 732, "velocity": 91}, {"time": 137167, "pitch": 78, "duration": 732, "velocity": 91}, {"time": 137284, "pitch": 63, "duration": 1645, "velocity": 110}, {"time": 137284, "pitch": 75, "duration": 1647, "velocity": 116}, {"time": 138959, "pitch": 63, "duration": 469, "velocity": 127}, {"time": 138959, "pitch": 75, "duration": 469, "velocity": 107}, {"time": 145199, "pitch": 60, "duration": 80, "velocity": 113}, {"time": 145199, "pitch": 72, "duration": 80, "velocity": 113}, {"time": 145439, "pitch": 58, "duration": 241, "velocity": 119}, {"time": 145439, "pitch": 70, "duration": 241, "velocity": 119}, {"time": 145680, "pitch": 60, "duration": 90, "velocity": 105}, {"time": 145680, "pitch": 72, "duration": 90, "velocity": 105}, {"time": 145921, "pitch": 55, "duration": 241, "velocity": 119}, {"time": 145921, "pitch": 67, "duration": 241, "velocity": 119}, {"time": 146162, "pitch": 58, "duration": 80, "velocity": 95}, {"time": 146162, "pitch": 70, "duration": 80, "velocity": 95}, {"time": 146403, "pitch": 53, "duration": 90, "velocity": 102}, {"time": 146403, "pitch": 65, "duration": 90, "velocity": 102}, {"time": 146643, "pitch": 51, "duration": 477, "velocity": 127}, {"time": 146643, "pitch": 63, "duration": 477, "velocity": 127}, {"time": 152642, "pitch": 48, "duration": 70, "velocity": 105}, {"time": 152642, "pitch": 60, "duration": 70, "velocity": 105}, {"time": 152767, "pitch": 48, "duration": 80, "velocity": 107}, {"time": 152767, "pitch": 60, "duration": 80, "velocity": 107}, {"time": 153007, "pitch": 48, "duration": 81, "velocity": 113}, {"time": 153007, "pitch": 60, "duration": 81, "velocity": 113}, {"time": 153124, "pitch": 50, "duration": 78, "velocity": 107}, {"time": 153124, "pitch": 62, "duration": 78, "velocity": 107}, {"time": 153246, "pitch": 50, "duration": 78, "velocity": 93}, {"time": 153246, "pitch": 62, "duration": 78, "velocity": 93}, {"time": 153481, "pitch": 50, "duration": 49, "velocity": 85}, {"time": 153481, "pitch": 62, "duration": 49, "velocity": 85}, {"time": 153595, "pitch": 51, "duration": 191, "velocity": 122}, {"time": 153595, "pitch": 63, "duration": 191, "velocity": 122}, {"time": 153836, "pitch": 51, "duration": 50, "velocity": 110}, {"time": 153836, "pitch": 63, "duration": 50, "velocity": 110}, {"time": 154077, "pitch": 53, "duration": 70, "velocity": 107}, {"time": 154077, "pitch": 65, "duration": 70, "velocity": 107}, {"time": 154317, "pitch": 58, "duration": 432, "velocity": 127}, {"time": 154317, "pitch": 70, "duration": 432, "velocity": 127}, {"time": 155762, "pitch": 58, "duration": 80, "velocity": 127}, {"time": 155762, "pitch": 70, "duration": 80, "velocity": 127}, {"time": 156244, "pitch": 58, "duration": 348, "velocity": 127}, {"time": 156244, "pitch": 70, "duration": 348, "velocity": 127}, {"time": 156956, "pitch": 58, "duration": 1416, "velocity": 123}, {"time": 156956, "pitch": 70, "duration": 1416, "velocity": 123}, {"time": 158400, "pitch": 63, "duration": 61, "velocity": 127}, {"time": 158400, "pitch": 75, "duration": 61, "velocity": 127}, {"time": 158400, "pitch": 78, "duration": 61, "velocity": 127}, {"time": 158521, "pitch": 63, "duration": 60, "velocity": 123}, {"time": 158521, "pitch": 75, "duration": 60, "velocity": 123}, {"time": 158521, "pitch": 78, "duration": 60, "velocity": 123}, {"time": 158641, "pitch": 63, "duration": 60, "velocity": 119}, {"time": 158641, "pitch": 75, "duration": 60, "velocity": 119}, {"time": 158641, "pitch": 78, "duration": 60, "velocity": 119}, {"time": 158762, "pitch": 63, "duration": 60, "velocity": 115}, {"time": 158762, "pitch": 75, "duration": 60, "velocity": 115}, {"time": 158762, "pitch": 78, "duration": 60, "velocity": 115}, {"time": 158882, "pitch": 63, "duration": 60, "velocity": 111}, {"time": 158882, "pitch": 75, "duration": 60, "velocity": 111}, {"time": 158882, "pitch": 78, "duration": 60, "velocity": 111}, {"time": 159002, "pitch": 63, "duration": 61, "velocity": 107}, {"time": 159002, "pitch": 75, "duration": 61, "velocity": 107}, {"time": 159002, "pitch": 78, "duration": 61, "velocity": 107}, {"time": 159123, "pitch": 63, "duration": 60, "velocity": 103}, {"time": 159123, "pitch": 75, "duration": 60, "velocity": 103}, {"time": 159123, "pitch": 78, "duration": 60, "velocity": 103}, {"time": 159243, "pitch": 63, "duration": 60, "velocity": 99}, {"time": 159243, "pitch": 75, "duration": 60, "velocity": 99}, {"time": 159243, "pitch": 78, "duration": 60, "velocity": 99}, {"time": 159364, "pitch": 63, "duration": 60, "velocity": 95}, {"time": 159364, "pitch": 75, "duration": 60, "velocity": 95}, {"time": 159364, "pitch": 78, "duration": 60, "velocity": 95}, {"time": 159484, "pitch": 63, "duration": 60, "velocity": 91}, {"time": 159484, "pitch": 75, "duration": 60, "velocity": 91}, {"time": 159484, "pitch": 78, "duration": 60, "velocity": 91}, {"time": 159604, "pitch": 63, "duration": 61, "velocity": 87}, {"time": 159604, "pitch": 75, "duration": 61, "velocity": 87}, {"time": 159604, "pitch": 78, "duration": 61, "velocity": 87}, {"time": 159725, "pitch": 63, "duration": 60, "velocity": 83}, {"time": 159725, "pitch": 75, "duration": 60, "velocity": 83}, {"time": 159725, "pitch": 78, "duration": 60, "velocity": 83}, {"time": 159845, "pitch": 63, "duration": 59, "velocity": 79}, {"time": 159845, "pitch": 75, "duration": 59, "velocity": 79}, {"time": 159845, "pitch": 78, "duration": 59, "velocity": 79}, {"time": 159963, "pitch": 63, "duration": 59, "velocity": 75}, {"time": 159963, "pitch": 75, "duration": 59, "velocity": 75}, {"time": 159963, "pitch": 78, "duration": 59, "velocity": 75}, {"time": 160081, "pitch": 63, "duration": 59, "velocity": 71}, {"time": 160081, "pitch": 75, "duration": 59, "velocity": 71}, {"time": 160081, "pitch": 78, "duration": 59, "velocity": 71}, {"time": 160199, "pitch": 63, "duration": 58, "velocity": 67}, {"time": 160199, "pitch": 75, "duration": 58, "velocity": 67}, {"time": 160199, "pitch": 78, "duration": 58, "velocity": 67}, {"time": 160316, "pitch": 63, "duration": 61, "velocity": 63}, {"time": 160316, "pitch": 75, "duration": 61, "velocity": 63}, {"time": 160316, "pitch": 78, "duration": 61, "velocity": 63}, {"time": 160437, "pitch": 63, "duration": 60, "velocity": 59}, {"time": 160437, "pitch": 75, "duration": 60, "velocity": 59}, {"time": 160437, "pitch": 78, "duration": 60, "velocity": 59}, {"time": 160557, "pitch": 63, "duration": 60, "velocity": 55}, {"time": 160557, "pitch": 75, "duration": 60, "velocity": 55}, {"time": 160557, "pitch": 78, "duration": 60, "velocity": 55}, {"time": 160677, "pitch": 63, "duration": 61, "velocity": 51}, {"time": 160677, "pitch": 75, "duration": 61, "velocity": 51}, {"time": 160677, "pitch": 78, "duration": 61, "velocity": 51}, {"time": 160798, "pitch": 63, "duration": 60, "velocity": 47}, {"time": 160798, "pitch": 75, "duration": 60, "velocity": 47}, {"time": 160798, "pitch": 78, "duration": 60, "velocity": 47}, {"time": 160918, "pitch": 63, "duration": 60, "velocity": 43}, {"time": 160918, "pitch": 75, "duration": 60, "velocity": 43}, {"time": 160918, "pitch": 78, "duration": 60, "velocity": 43}, {"time": 161039, "pitch": 63, "duration": 60, "velocity": 39}, {"time": 161039, "pitch": 75, "duration": 60, "velocity": 39}, {"time": 161039, "pitch": 78, "duration": 60, "velocity": 39}, {"time": 161159, "pitch": 63, "duration": 60, "velocity": 36}, {"time": 161159, "pitch": 75, "duration": 60, "velocity": 36}, {"time": 161159, "pitch": 78, "duration": 60, "velocity": 36}, {"time": 161279, "pitch": 63, "duration": 61, "velocity": 32}, {"time": 161279, "pitch": 75, "duration": 61, "velocity": 32}, {"time": 161279, "pitch": 78, "duration": 61, "velocity": 32}, {"time": 161400, "pitch": 63, "duration": 60, "velocity": 28}, {"time": 161400, "pitch": 75, "duration": 60, "velocity": 28}, {"time": 161400, "pitch": 78, "duration": 60, "velocity": 28}, {"time": 161520, "pitch": 63, "duration": 60, "velocity": 24}, {"time": 161520, "pitch": 75, "duration": 60, "velocity": 24}, {"time": 161520, "pitch": 78, "duration": 60, "velocity": 24}, {"time": 161641, "pitch": 63, "duration": 60, "velocity": 20}, {"time": 161641, "pitch": 75, "duration": 60, "velocity": 20}, {"time": 161641, "pitch": 78, "duration": 60, "velocity": 20}, {"time": 161761, "pitch": 63, "duration": 60, "velocity": 16}, {"time": 161761, "pitch": 75, "duration": 60, "velocity": 16}, {"time": 161761, "pitch": 78, "duration": 60, "velocity": 16}, {"time": 161881, "pitch": 63, "duration": 61, "velocity": 12}, {"time": 161881, "pitch": 75, "duration": 61, "velocity": 12}, {"time": 161881, "pitch": 78, "duration": 61, "velocity": 12}, {"time": 162002, "pitch": 63, "duration": 60, "velocity": 8}, {"time": 162002, "pitch": 75, "duration": 60, "velocity": 8}, {"time": 162002, "pitch": 78, "duration": 60, "velocity": 8}, {"time": 162122, "pitch": 63, "duration": 60, "velocity": 4}, {"time": 162122, "pitch": 75, "duration": 60, "velocity": 4}, {"time": 162122, "pitch": 78, "duration": 60, "velocity": 4}, {"time": 162243, "pitch": 63, "duration": 60, "velocity": 127}, {"time": 162243, "pitch": 75, "duration": 60, "velocity": 127}, {"time": 162243, "pitch": 78, "duration": 60, "velocity": 127}, {"time": 162363, "pitch": 63, "duration": 60, "velocity": 123}, {"time": 162363, "pitch": 75, "duration": 60, "velocity": 123}, {"time": 162363, "pitch": 78, "duration": 60, "velocity": 123}, {"time": 162483, "pitch": 63, "duration": 61, "velocity": 119}, {"time": 162483, "pitch": 75, "duration": 61, "velocity": 119}, {"time": 162483, "pitch": 78, "duration": 61, "velocity": 119}, {"time": 162604, "pitch": 63, "duration": 60, "velocity": 115}, {"time": 162604, "pitch": 75, "duration": 60, "velocity": 115}, {"time": 162604, "pitch": 78, "duration": 60, "velocity": 115}, {"time": 162724, "pitch": 63, "duration": 59, "velocity": 111}, {"time": 162724, "pitch": 75, "duration": 59, "velocity": 111}, {"time": 162724, "pitch": 78, "duration": 59, "velocity": 111}, {"time": 162842, "pitch": 63, "duration": 59, "velocity": 107}, {"time": 162842, "pitch": 75, "duration": 59, "velocity": 107}, {"time": 162842, "pitch": 78, "duration": 59, "velocity": 107}, {"time": 162960, "pitch": 63, "duration": 59, "velocity": 103}, {"time": 162960, "pitch": 75, "duration": 59, "velocity": 103}, {"time": 162960, "pitch": 78, "duration": 59, "velocity": 103}, {"time": 163078, "pitch": 63, "duration": 59, "velocity": 99}, {"time": 163078, "pitch": 75, "duration": 59, "velocity": 99}, {"time": 163078, "pitch": 78, "duration": 59, "velocity": 99}, {"time": 163195, "pitch": 63, "duration": 61, "velocity": 95}, {"time": 163195, "pitch": 75, "duration": 61, "velocity": 95}, {"time": 163195, "pitch": 78, "duration": 61, "velocity": 95}, {"time": 163316, "pitch": 63, "duration": 60, "velocity": 91}, {"time": 163316, "pitch": 75, "duration": 60, "velocity": 91}, {"time": 163316, "pitch": 78, "duration": 60, "velocity": 91}, {"time": 163436, "pitch": 63, "duration": 60, "velocity": 87}, {"time": 163436, "pitch": 75, "duration": 60, "velocity": 87}, {"time": 163436, "pitch": 78, "duration": 60, "velocity": 87}, {"time": 163557, "pitch": 63, "duration": 60, "velocity": 83}, {"time": 163557, "pitch": 75, "duration": 60, "velocity": 83}, {"time": 163557, "pitch": 78, "duration": 60, "velocity": 83}, {"time": 163677, "pitch": 63, "duration": 60, "velocity": 79}, {"time": 163677, "pitch": 75, "duration": 60, "velocity": 79}, {"time": 163677, "pitch": 78, "duration": 60, "velocity": 79}, {"time": 163797, "pitch": 63, "duration": 61, "velocity": 75}, {"time": 163797, "pitch": 75, "duration": 61, "velocity": 75}, {"time": 163797, "pitch": 78, "duration": 61, "velocity": 75}, {"time": 163918, "pitch": 63, "duration": 60, "velocity": 71}, {"time": 163918, "pitch": 75, "duration": 60, "velocity": 71}, {"time": 163918, "pitch": 78, "duration": 60, "velocity": 71}, {"time": 164038, "pitch": 63, "duration": 60, "velocity": 67}, {"time": 164038, "pitch": 75, "duration": 60, "velocity": 67}, {"time": 164038, "pitch": 78, "duration": 60, "velocity": 67}, {"time": 164159, "pitch": 63, "duration": 60, "velocity": 63}, {"time": 164159, "pitch": 75, "duration": 60, "velocity": 63}, {"time": 164159, "pitch": 78, "duration": 60, "velocity": 63}, {"time": 164279, "pitch": 63, "duration": 60, "velocity": 59}, {"time": 164279, "pitch": 75, "duration": 60, "velocity": 59}, {"time": 164279, "pitch": 78, "duration": 60, "velocity": 59}, {"time": 164399, "pitch": 63, "duration": 61, "velocity": 55}, {"time": 164399, "pitch": 75, "duration": 61, "velocity": 55}, {"time": 164399, "pitch": 78, "duration": 61, "velocity": 55}, {"time": 164520, "pitch": 63, "duration": 60, "velocity": 51}, {"time": 164520, "pitch": 75, "duration": 60, "velocity": 51}, {"time": 164520, "pitch": 78, "duration": 60, "velocity": 51}, {"time": 164640, "pitch": 63, "duration": 60, "velocity": 47}, {"time": 164640, "pitch": 75, "duration": 60, "velocity": 47}, {"time": 164640, "pitch": 78, "duration": 60, "velocity": 47}, {"time": 164761, "pitch": 63, "duration": 60, "velocity": 43}, {"time": 164761, "pitch": 75, "duration": 60, "velocity": 43}, {"time": 164761, "pitch": 78, "duration": 60, "velocity": 43}, {"time": 164881, "pitch": 63, "duration": 60, "velocity": 39}, {"time": 164881, "pitch": 75, "duration": 60, "velocity": 39}, {"time": 164881, "pitch": 78, "duration": 60, "velocity": 39}, {"time": 165001, "pitch": 63, "duration": 61, "velocity": 36}, {"time": 165001, "pitch": 75, "duration": 61, "velocity": 36}, {"time": 165001, "pitch": 78, "duration": 61, "velocity": 36}, {"time": 165122, "pitch": 63, "duration": 60, "velocity": 32}, {"time": 165122, "pitch": 75, "duration": 60, "velocity": 32}, {"time": 165122, "pitch": 78, "duration": 60, "velocity": 32}, {"time": 165242, "pitch": 63, "duration": 60, "velocity": 28}, {"time": 165242, "pitch": 75, "duration": 60, "velocity": 28}, {"time": 165242, "pitch": 78, "duration": 60, "velocity": 28}, {"time": 165363, "pitch": 63, "duration": 60, "velocity": 24}, {"time": 165363, "pitch": 75, "duration": 60, "velocity": 24}, {"time": 165363, "pitch": 78, "duration": 60, "velocity": 24}, {"time": 165483, "pitch": 63, "duration": 60, "velocity": 20}, {"time": 165483, "pitch": 75, "duration": 60, "velocity": 20}, {"time": 165483, "pitch": 78, "duration": 60, "velocity": 20}, {"time": 165603, "pitch": 63, "duration": 61, "velocity": 16}, {"time": 165603, "pitch": 75, "duration": 61, "velocity": 16}, {"time": 165603, "pitch": 78, "duration": 61, "velocity": 16}, {"time": 165724, "pitch": 63, "duration": 60, "velocity": 12}, {"time": 165724, "pitch": 75, "duration": 60, "velocity": 12}, {"time": 165724, "pitch": 78, "duration": 60, "velocity": 12}, {"time": 165844, "pitch": 63, "duration": 60, "velocity": 8}, {"time": 165844, "pitch": 75, "duration": 60, "velocity": 8}, {"time": 165844, "pitch": 78, "duration": 60, "velocity": 8}, {"time": 165964, "pitch": 63, "duration": 61, "velocity": 4}, {"time": 165964, "pitch": 75, "duration": 61, "velocity": 4}, {"time": 165964, "pitch": 78, "duration": 61, "velocity": 4}, {"time": 166085, "pitch": 63, "duration": 59, "velocity": 127}, {"time": 166085, "pitch": 75, "duration": 59, "velocity": 127}, {"time": 166085, "pitch": 78, "duration": 59, "velocity": 127}, {"time": 166203, "pitch": 63, "duration": 59, "velocity": 123}, {"time": 166203, "pitch": 75, "duration": 59, "velocity": 123}, {"time": 166203, "pitch": 78, "duration": 59, "velocity": 123}, {"time": 166320, "pitch": 63, "duration": 59, "velocity": 119}, {"time": 166320, "pitch": 75, "duration": 59, "velocity": 119}, {"time": 166320, "pitch": 78, "duration": 59, "velocity": 119}, {"time": 166438, "pitch": 63, "duration": 59, "velocity": 115}, {"time": 166438, "pitch": 75, "duration": 59, "velocity": 115}, {"time": 166438, "pitch": 78, "duration": 59, "velocity": 115}, {"time": 166556, "pitch": 63, "duration": 60, "velocity": 111}, {"time": 166556, "pitch": 75, "duration": 60, "velocity": 111}, {"time": 166556, "pitch": 78, "duration": 60, "velocity": 111}, {"time": 166676, "pitch": 63, "duration": 61, "velocity": 107}, {"time": 166676, "pitch": 75, "duration": 61, "velocity": 107}, {"time": 166676, "pitch": 78, "duration": 61, "velocity": 107}, {"time": 166797, "pitch": 63, "duration": 60, "velocity": 103}, {"time": 166797, "pitch": 75, "duration": 60, "velocity": 103}, {"time": 166797, "pitch": 78, "duration": 60, "velocity": 103}, {"time": 166917, "pitch": 63, "duration": 60, "velocity": 99}, {"time": 166917, "pitch": 75, "duration": 60, "velocity": 99}, {"time": 166917, "pitch": 78, "duration": 60, "velocity": 99}, {"time": 167038, "pitch": 63, "duration": 60, "velocity": 95}, {"time": 167038, "pitch": 75, "duration": 60, "velocity": 95}, {"time": 167038, "pitch": 78, "duration": 60, "velocity": 95}, {"time": 167158, "pitch": 63, "duration": 60, "velocity": 91}, {"time": 167158, "pitch": 75, "duration": 60, "velocity": 91}, {"time": 167158, "pitch": 78, "duration": 60, "velocity": 91}, {"time": 167278, "pitch": 63, "duration": 61, "velocity": 87}, {"time": 167278, "pitch": 75, "duration": 61, "velocity": 87}, {"time": 167278, "pitch": 78, "duration": 61, "velocity": 87}, {"time": 167399, "pitch": 63, "duration": 60, "velocity": 83}, {"time": 167399, "pitch": 75, "duration": 60, "velocity": 83}, {"time": 167399, "pitch": 78, "duration": 60, "velocity": 83}, {"time": 167519, "pitch": 63, "duration": 60, "velocity": 79}, {"time": 167519, "pitch": 75, "duration": 60, "velocity": 79}, {"time": 167519, "pitch": 78, "duration": 60, "velocity": 79}, {"time": 167640, "pitch": 63, "duration": 60, "velocity": 75}, {"time": 167640, "pitch": 75, "duration": 60, "velocity": 75}, {"time": 167640, "pitch": 78, "duration": 60, "velocity": 75}, {"time": 167760, "pitch": 63, "duration": 60, "velocity": 71}, {"time": 167760, "pitch": 75, "duration": 60, "velocity": 71}, {"time": 167760, "pitch": 78, "duration": 60, "velocity": 71}, {"time": 167880, "pitch": 63, "duration": 61, "velocity": 67}, {"time": 167880, "pitch": 75, "duration": 61, "velocity": 67}, {"time": 167880, "pitch": 78, "duration": 61, "velocity": 67}, {"time": 168001, "pitch": 63, "duration": 60, "velocity": 63}, {"time": 168001, "pitch": 75, "duration": 60, "velocity": 63}, {"time": 168001, "pitch": 78, "duration": 60, "velocity": 63}, {"time": 168121, "pitch": 63, "duration": 60, "velocity": 59}, {"time": 168121, "pitch": 75, "duration": 60, "velocity": 59}, {"time": 168121, "pitch": 78, "duration": 60, "velocity": 59}, {"time": 168242, "pitch": 63, "duration": 60, "velocity": 55}, {"time": 168242, "pitch": 75, "duration": 60, "velocity": 55}, {"time": 168242, "pitch": 78, "duration": 60, "velocity": 55}, {"time": 168362, "pitch": 63, "duration": 60, "velocity": 51}, {"time": 168362, "pitch": 75, "duration": 60, "velocity": 51}, {"time": 168362, "pitch": 78, "duration": 60, "velocity": 51}, {"time": 168482, "pitch": 63, "duration": 61, "velocity": 47}, {"time": 168482, "pitch": 75, "duration": 61, "velocity": 47}, {"time": 168482, "pitch": 78, "duration": 61, "velocity": 47}, {"time": 168603, "pitch": 63, "duration": 60, "velocity": 43}, {"time": 168603, "pitch": 75, "duration": 60, "velocity": 43}, {"time": 168603, "pitch": 78, "duration": 60, "velocity": 43}, {"time": 168723, "pitch": 63, "duration": 60, "velocity": 39}, {"time": 168723, "pitch": 75, "duration": 60, "velocity": 39}, {"time": 168723, "pitch": 78, "duration": 60, "velocity": 39}, {"time": 168844, "pitch": 63, "duration": 60, "velocity": 36}, {"time": 168844, "pitch": 75, "duration": 60, "velocity": 36}, {"time": 168844, "pitch": 78, "duration": 60, "velocity": 36}, {"time": 168964, "pitch": 63, "duration": 59, "velocity": 32}, {"time": 168964, "pitch": 75, "duration": 59, "velocity": 32}, {"time": 168964, "pitch": 78, "duration": 59, "velocity": 32}, {"time": 169082, "pitch": 63, "duration": 59, "velocity": 28}, {"time": 169082, "pitch": 75, "duration": 59, "velocity": 28}, {"time": 169082, "pitch": 78, "duration": 59, "velocity": 28}, {"time": 169200, "pitch": 63, "duration": 58, "velocity": 24}, {"time": 169200, "pitch": 75, "duration": 58, "velocity": 24}, {"time": 169200, "pitch": 78, "duration": 58, "velocity": 24}, {"time": 169317, "pitch": 63, "duration": 59, "velocity": 20}, {"time": 169317, "pitch": 75, "duration": 59, "velocity": 20}, {"time": 169317, "pitch": 78, "duration": 59, "velocity": 20}, {"time": 169435, "pitch": 63, "duration": 60, "velocity": 16}, {"time": 169435, "pitch": 75, "duration": 60, "velocity": 16}, {"time": 169435, "pitch": 78, "duration": 60, "velocity": 16}, {"time": 169556, "pitch": 63, "duration": 60, "velocity": 12}, {"time": 169556, "pitch": 75, "duration": 60, "velocity": 12}, {"time": 169556, "pitch": 78, "duration": 60, "velocity": 12}, {"time": 169676, "pitch": 63, "duration": 60, "velocity": 8}, {"time": 169676, "pitch": 75, "duration": 60, "velocity": 8}, {"time": 169676, "pitch": 78, "duration": 60, "velocity": 8}, {"time": 169796, "pitch": 63, "duration": 61, "velocity": 4}, {"time": 169796, "pitch": 75, "duration": 61, "velocity": 4}, {"time": 169796, "pitch": 78, "duration": 61, "velocity": 4}, {"time": 169917, "pitch": 63, "duration": 60, "velocity": 127}, {"time": 169917, "pitch": 75, "duration": 60, "velocity": 127}, {"time": 169917, "pitch": 78, "duration": 60, "velocity": 127}, {"time": 170037, "pitch": 63, "duration": 60, "velocity": 123}, {"time": 170037, "pitch": 75, "duration": 60, "velocity": 123}, {"time": 170037, "pitch": 78, "duration": 60, "velocity": 123}, {"time": 170157, "pitch": 63, "duration": 61, "velocity": 119}, {"time": 170157, "pitch": 75, "duration": 61, "velocity": 119}, {"time": 170157, "pitch": 78, "duration": 61, "velocity": 119}, {"time": 170278, "pitch": 63, "duration": 60, "velocity": 115}, {"time": 170278, "pitch": 75, "duration": 60, "velocity": 115}, {"time": 170278, "pitch": 78, "duration": 60, "velocity": 115}, {"time": 170398, "pitch": 63, "duration": 60, "velocity": 111}, {"time": 170398, "pitch": 75, "duration": 60, "velocity": 111}, {"time": 170398, "pitch": 78, "duration": 60, "velocity": 111}, {"time": 170519, "pitch": 63, "duration": 60, "velocity": 107}, {"time": 170519, "pitch": 75, "duration": 60, "velocity": 107}, {"time": 170519, "pitch": 78, "duration": 60, "velocity": 107}, {"time": 170639, "pitch": 63, "duration": 60, "velocity": 103}, {"time": 170639, "pitch": 75, "duration": 60, "velocity": 103}, {"time": 170639, "pitch": 78, "duration": 60, "velocity": 103}, {"time": 170759, "pitch": 63, "duration": 61, "velocity": 99}, {"time": 170759, "pitch": 75, "duration": 61, "velocity": 99}, {"time": 170759, "pitch": 78, "duration": 61, "velocity": 99}, {"time": 170880, "pitch": 63, "duration": 60, "velocity": 95}, {"time": 170880, "pitch": 75, "duration": 60, "velocity": 95}, {"time": 170880, "pitch": 78, "duration": 60, "velocity": 95}, {"time": 171000, "pitch": 63, "duration": 60, "velocity": 91}, {"time": 171000, "pitch": 75, "duration": 60, "velocity": 91}, {"time": 171000, "pitch": 78, "duration": 60, "velocity": 91}, {"time": 171121, "pitch": 63, "duration": 60, "velocity": 87}, {"time": 171121, "pitch": 75, "duration": 60, "velocity": 87}, {"time": 171121, "pitch": 78, "duration": 60, "velocity": 87}, {"time": 171241, "pitch": 63, "duration": 60, "velocity": 83}, {"time": 171241, "pitch": 75, "duration": 60, "velocity": 83}, {"time": 171241, "pitch": 78, "duration": 60, "velocity": 83}, {"time": 171361, "pitch": 63, "duration": 61, "velocity": 79}, {"time": 171361, "pitch": 75, "duration": 61, "velocity": 79}, {"time": 171361, "pitch": 78, "duration": 61, "velocity": 79}, {"time": 171482, "pitch": 63, "duration": 60, "velocity": 75}, {"time": 171482, "pitch": 75, "duration": 60, "velocity": 75}, {"time": 171482, "pitch": 78, "duration": 60, "velocity": 75}, {"time": 171602, "pitch": 63, "duration": 60, "velocity": 71}, {"time": 171602, "pitch": 75, "duration": 60, "velocity": 71}, {"time": 171602, "pitch": 78, "duration": 60, "velocity": 71}, {"time": 171723, "pitch": 63, "duration": 60, "velocity": 67}, {"time": 171723, "pitch": 75, "duration": 60, "velocity": 67}, {"time": 171723, "pitch": 78, "duration": 60, "velocity": 67}, {"time": 171843, "pitch": 63, "duration": 60, "velocity": 63}, {"time": 171843, "pitch": 75, "duration": 60, "velocity": 63}, {"time": 171843, "pitch": 78, "duration": 60, "velocity": 63}, {"time": 171963, "pitch": 63, "duration": 61, "velocity": 59}, {"time": 171963, "pitch": 75, "duration": 61, "velocity": 59}, {"time": 171963, "pitch": 78, "duration": 61, "velocity": 59}, {"time": 172084, "pitch": 63, "duration": 60, "velocity": 55}, {"time": 172084, "pitch": 75, "duration": 60, "velocity": 55}, {"time": 172084, "pitch": 78, "duration": 60, "velocity": 55}, {"time": 172204, "pitch": 63, "duration": 60, "velocity": 51}, {"time": 172204, "pitch": 75, "duration": 60, "velocity": 51}, {"time": 172204, "pitch": 78, "duration": 60, "velocity": 51}, {"time": 172325, "pitch": 63, "duration": 58, "velocity": 47}, {"time": 172325, "pitch": 75, "duration": 58, "velocity": 47}, {"time": 172325, "pitch": 78, "duration": 58, "velocity": 47}, {"time": 172442, "pitch": 63, "duration": 59, "velocity": 43}, {"time": 172442, "pitch": 75, "duration": 59, "velocity": 43}, {"time": 172442, "pitch": 78, "duration": 59, "velocity": 43}, {"time": 172560, "pitch": 63, "duration": 59, "velocity": 39}, {"time": 172560, "pitch": 75, "duration": 59, "velocity": 39}, {"time": 172560, "pitch": 78, "duration": 59, "velocity": 39}, {"time": 172678, "pitch": 63, "duration": 59, "velocity": 36}, {"time": 172678, "pitch": 75, "duration": 59, "velocity": 36}, {"time": 172678, "pitch": 78, "duration": 59, "velocity": 36}, {"time": 172796, "pitch": 63, "duration": 60, "velocity": 32}, {"time": 172796, "pitch": 75, "duration": 60, "velocity": 32}, {"time": 172796, "pitch": 78, "duration": 60, "velocity": 32}, {"time": 172916, "pitch": 63, "duration": 60, "velocity": 28}, {"time": 172916, "pitch": 75, "duration": 60, "velocity": 28}, {"time": 172916, "pitch": 78, "duration": 60, "velocity": 28}, {"time": 173037, "pitch": 63, "duration": 60, "velocity": 24}, {"time": 173037, "pitch": 75, "duration": 60, "velocity": 24}, {"time": 173037, "pitch": 78, "duration": 60, "velocity": 24}, {"time": 173157, "pitch": 63, "duration": 60, "velocity": 20}, {"time": 173157, "pitch": 75, "duration": 60, "velocity": 20}, {"time": 173157, "pitch": 78, "duration": 60, "velocity": 20}, {"time": 173277, "pitch": 63, "duration": 61, "velocity": 16}, {"time": 173277, "pitch": 75, "duration": 61, "velocity": 16}, {"time": 173277, "pitch": 78, "duration": 61, "velocity": 16}, {"time": 173398, "pitch": 63, "duration": 60, "velocity": 12}, {"time": 173398, "pitch": 75, "duration": 60, "velocity": 12}, {"time": 173398, "pitch": 78, "duration": 60, "velocity": 12}, {"time": 173518, "pitch": 63, "duration": 60, "velocity": 8}, {"time": 173518, "pitch": 75, "duration": 60, "velocity": 8}, {"time": 173518, "pitch": 78, "duration": 60, "velocity": 8}, {"time": 173639, "pitch": 63, "duration": 60, "velocity": 4}, {"time": 173639, "pitch": 75, "duration": 60, "velocity": 4}, {"time": 173639, "pitch": 78, "duration": 60, "velocity": 4}, {"time": 177842, "pitch": 70, "duration": 120, "velocity": 122}, {"time": 177842, "pitch": 82, "duration": 120, "velocity": 122}, {"time": 178324, "pitch": 63, "duration": 70, "velocity": 119}, {"time": 178324, "pitch": 75, "duration": 70, "velocity": 119}, {"time": 178564, "pitch": 66, "duration": 118, "velocity": 107}, {"time": 178564, "pitch": 78, "duration": 118, "velocity": 107}, {"time": 178686, "pitch": 63, "duration": 79, "velocity": 116}, {"time": 178686, "pitch": 75, "duration": 79, "velocity": 116}, {"time": 178922, "pitch": 63, "duration": 78, "velocity": 116}, {"time": 178922, "pitch": 75, "duration": 78, "velocity": 116}, {"time": 179276, "pitch": 61, "duration": 115, "velocity": 122}, {"time": 179276, "pitch": 73, "duration": 115, "velocity": 122}, {"time": 179401, "pitch": 63, "duration": 70, "velocity": 110}, {"time": 179401, "pitch": 75, "duration": 70, "velocity": 110}, {"time": 179758, "pitch": 70, "duration": 120, "velocity": 122}, {"time": 179758, "pitch": 82, "duration": 120, "velocity": 122}, {"time": 180239, "pitch": 63, "duration": 81, "velocity": 116}, {"time": 180239, "pitch": 75, "duration": 81, "velocity": 116}, {"time": 180480, "pitch": 66, "duration": 111, "velocity": 105}, {"time": 180480, "pitch": 78, "duration": 111, "velocity": 105}, {"time": 180605, "pitch": 63, "duration": 100, "velocity": 100}, {"time": 180605, "pitch": 75, "duration": 100, "velocity": 100}, {"time": 180845, "pitch": 63, "duration": 81, "velocity": 113}, {"time": 180845, "pitch": 75, "duration": 81, "velocity": 113}, {"time": 185275, "pitch": 58, "duration": 125, "velocity": 82}, {"time": 185275, "pitch": 70, "duration": 125, "velocity": 82}, {"time": 185400, "pitch": 61, "duration": 116, "velocity": 89}, {"time": 185400, "pitch": 73, "duration": 116, "velocity": 89}, {"time": 185516, "pitch": 63, "duration": 124, "velocity": 72}, {"time": 185516, "pitch": 75, "duration": 124, "velocity": 72}, {"time": 185640, "pitch": 66, "duration": 171, "velocity": 85}, {"time": 185640, "pitch": 78, "duration": 171, "velocity": 85}, {"time": 185998, "pitch": 58, "duration": 124, "velocity": 100}, {"time": 185998, "pitch": 70, "duration": 124, "velocity": 100}, {"time": 186122, "pitch": 61, "duration": 116, "velocity": 93}, {"time": 186122, "pitch": 73, "duration": 116, "velocity": 93}, {"time": 186238, "pitch": 63, "duration": 125, "velocity": 76}, {"time": 186238, "pitch": 75, "duration": 125, "velocity": 76}, {"time": 186363, "pitch": 66, "duration": 124, "velocity": 91}, {"time": 186363, "pitch": 78, "duration": 124, "velocity": 91}, {"time": 186720, "pitch": 58, "duration": 124, "velocity": 100}, {"time": 186720, "pitch": 70, "duration": 124, "velocity": 100}, {"time": 186844, "pitch": 61, "duration": 117, "velocity": 93}, {"time": 186844, "pitch": 73, "duration": 117, "velocity": 93}, {"time": 186961, "pitch": 63, "duration": 124, "velocity": 76}, {"time": 186961, "pitch": 75, "duration": 124, "velocity": 76}, {"time": 187085, "pitch": 66, "duration": 118, "velocity": 91}, {"time": 187085, "pitch": 78, "duration": 118, "velocity": 91}, {"time": 187202, "pitch": 63, "duration": 1645, "velocity": 110}, {"time": 187202, "pitch": 75, "duration": 1647, "velocity": 116}, {"time": 188877, "pitch": 63, "duration": 469, "velocity": 127}, {"time": 188877, "pitch": 75, "duration": 469, "velocity": 107}, {"time": 195116, "pitch": 60, "duration": 81, "velocity": 113}, {"time": 195116, "pitch": 72, "duration": 81, "velocity": 113}, {"time": 195357, "pitch": 58, "duration": 241, "velocity": 119}, {"time": 195357, "pitch": 70, "duration": 241, "velocity": 119}, {"time": 195598, "pitch": 60, "duration": 90, "velocity": 105}, {"time": 195598, "pitch": 72, "duration": 90, "velocity": 105}, {"time": 195839, "pitch": 55, "duration": 241, "velocity": 119}, {"time": 195839, "pitch": 67, "duration": 241, "velocity": 119}, {"time": 196080, "pitch": 58, "duration": 80, "velocity": 95}, {"time": 196080, "pitch": 70, "duration": 80, "velocity": 95}, {"time": 196320, "pitch": 53, "duration": 91, "velocity": 102}, {"time": 196320, "pitch": 65, "duration": 91, "velocity": 102}, {"time": 196561, "pitch": 51, "duration": 482, "velocity": 127}, {"time": 196561, "pitch": 63, "duration": 482, "velocity": 127}, {"time": 202560, "pitch": 48, "duration": 70, "velocity": 105}, {"time": 202560, "pitch": 60, "duration": 70, "velocity": 105}, {"time": 202685, "pitch": 48, "duration": 80, "velocity": 107}, {"time": 202685, "pitch": 60, "duration": 80, "velocity": 107}, {"time": 202925, "pitch": 48, "duration": 81, "velocity": 113}, {"time": 202925, "pitch": 60, "duration": 81, "velocity": 113}, {"time": 203042, "pitch": 50, "duration": 80, "velocity": 107}, {"time": 203042, "pitch": 62, "duration": 80, "velocity": 107}, {"time": 203166, "pitch": 50, "duration": 80, "velocity": 93}, {"time": 203166, "pitch": 62, "duration": 80, "velocity": 93}, {"time": 203407, "pitch": 50, "duration": 50, "velocity": 85}, {"time": 203407, "pitch": 62, "duration": 50, "velocity": 85}, {"time": 203523, "pitch": 51, "duration": 191, "velocity": 122}, {"time": 203523, "pitch": 63, "duration": 191, "velocity": 122}, {"time": 203764, "pitch": 51, "duration": 50, "velocity": 110}, {"time": 203764, "pitch": 63, "duration": 50, "velocity": 110}, {"time": 204005, "pitch": 53, "duration": 69, "velocity": 107}, {"time": 204005, "pitch": 65, "duration": 69, "velocity": 107}, {"time": 204240, "pitch": 58, "duration": 427, "velocity": 127}, {"time": 204240, "pitch": 70, "duration": 427, "velocity": 127}, {"time": 205680, "pitch": 58, "duration": 80, "velocity": 127}, {"time": 205680, "pitch": 70, "duration": 80, "velocity": 127}, {"time": 206162, "pitch": 58, "duration": 351, "velocity": 127}, {"time": 206162, "pitch": 70, "duration": 351, "velocity": 127}, {"time": 206884, "pitch": 58, "duration": 1406, "velocity": 123}, {"time": 206884, "pitch": 70, "duration": 1406, "velocity": 123}, {"time": 214558, "pitch": 58, "duration": 1417, "velocity": 123}, {"time": 214558, "pitch": 70, "duration": 1417, "velocity": 123}, {"time": 216484, "pitch": 67, "duration": 79, "velocity": 119}, {"time": 216484, "pitch": 79, "duration": 79, "velocity": 119}, {"time": 216956, "pitch": 61, "duration": 110, "velocity": 116}, {"time": 216956, "pitch": 73, "duration": 110, "velocity": 116}, {"time": 217080, "pitch": 60, "duration": 116, "velocity": 95}, {"time": 217080, "pitch": 72, "duration": 116, "velocity": 95}, {"time": 217196, "pitch": 61, "duration": 121, "velocity": 100}, {"time": 217196, "pitch": 73, "duration": 121, "velocity": 100}, {"time": 217678, "pitch": 60, "duration": 80, "velocity": 116}, {"time": 217678, "pitch": 72, "duration": 80, "velocity": 116}, {"time": 217919, "pitch": 61, "duration": 80, "velocity": 107}, {"time": 217919, "pitch": 73, "duration": 80, "velocity": 107}, {"time": 218159, "pitch": 60, "duration": 91, "velocity": 107}, {"time": 218159, "pitch": 72, "duration": 91, "velocity": 107}, {"time": 218400, "pitch": 61, "duration": 364, "velocity": 107}, {"time": 218400, "pitch": 73, "duration": 364, "velocity": 107}, {"time": 218765, "pitch": 60, "duration": 114, "velocity": 85}, {"time": 218765, "pitch": 72, "duration": 114, "velocity": 85}, {"time": 218882, "pitch": 61, "duration": 123, "velocity": 107}, {"time": 218882, "pitch": 73, "duration": 123, "velocity": 107}, {"time": 219006, "pitch": 60, "duration": 116, "velocity": 95}, {"time": 219006, "pitch": 72, "duration": 116, "velocity": 95}, {"time": 219123, "pitch": 61, "duration": 120, "velocity": 105}, {"time": 219123, "pitch": 73, "duration": 120, "velocity": 105}, {"time": 219604, "pitch": 63, "duration": 121, "velocity": 115}, {"time": 219604, "pitch": 75, "duration": 121, "velocity": 115}, {"time": 220316, "pitch": 67, "duration": 80, "velocity": 119}, {"time": 220316, "pitch": 79, "duration": 80, "velocity": 119}, {"time": 220798, "pitch": 61, "duration": 110, "velocity": 116}, {"time": 220798, "pitch": 73, "duration": 110, "velocity": 116}, {"time": 220922, "pitch": 60, "duration": 117, "velocity": 95}, {"time": 220922, "pitch": 72, "duration": 117, "velocity": 95}, {"time": 221039, "pitch": 61, "duration": 120, "velocity": 100}, {"time": 221039, "pitch": 73, "duration": 120, "velocity": 100}, {"time": 221520, "pitch": 60, "duration": 80, "velocity": 116}, {"time": 221520, "pitch": 72, "duration": 80, "velocity": 116}, {"time": 221761, "pitch": 61, "duration": 80, "velocity": 107}, {"time": 221761, "pitch": 73, "duration": 80, "velocity": 107}, {"time": 222002, "pitch": 60, "duration": 90, "velocity": 107}, {"time": 222002, "pitch": 72, "duration": 90, "velocity": 107}, {"time": 222243, "pitch": 61, "duration": 364, "velocity": 107}, {"time": 222243, "pitch": 73, "duration": 364, "velocity": 107}, {"time": 222608, "pitch": 60, "duration": 113, "velocity": 85}, {"time": 222608, "pitch": 72, "duration": 113, "velocity": 85}, {"time": 222724, "pitch": 61, "duration": 121, "velocity": 107}, {"time": 222724, "pitch": 73, "duration": 121, "velocity": 107}, {"time": 222846, "pitch": 60, "duration": 113, "velocity": 95}, {"time": 222846, "pitch": 72, "duration": 113, "velocity": 95}, {"time": 222960, "pitch": 61, "duration": 118, "velocity": 105}, {"time": 222960, "pitch": 73, "duration": 118, "velocity": 105}, {"time": 223436, "pitch": 63, "duration": 120, "velocity": 115}, {"time": 223436, "pitch": 75, "duration": 120, "velocity": 115}, {"time": 224158, "pitch": 67, "duration": 81, "velocity": 119}, {"time": 224158, "pitch": 79, "duration": 81, "velocity": 119}, {"time": 224640, "pitch": 61, "duration": 110, "velocity": 116}, {"time": 224640, "pitch": 73, "duration": 110, "velocity": 116}, {"time": 224764, "pitch": 60, "duration": 117, "velocity": 95}, {"time": 224764, "pitch": 72, "duration": 117, "velocity": 95}, {"time": 224881, "pitch": 61, "duration": 120, "velocity": 100}, {"time": 224881, "pitch": 73, "duration": 120, "velocity": 100}, {"time": 225362, "pitch": 60, "duration": 81, "velocity": 116}, {"time": 225362, "pitch": 72, "duration": 81, "velocity": 116}, {"time": 225603, "pitch": 61, "duration": 80, "velocity": 107}, {"time": 225603, "pitch": 73, "duration": 80, "velocity": 107}, {"time": 225844, "pitch": 60, "duration": 90, "velocity": 107}, {"time": 225844, "pitch": 72, "duration": 90, "velocity": 107}, {"time": 226085, "pitch": 61, "duration": 356, "velocity": 107}, {"time": 226085, "pitch": 73, "duration": 356, "velocity": 107}, {"time": 226442, "pitch": 60, "duration": 111, "velocity": 85}, {"time": 226442, "pitch": 72, "duration": 111, "velocity": 85}, {"time": 226556, "pitch": 61, "duration": 123, "velocity": 107}, {"time": 226556, "pitch": 73, "duration": 123, "velocity": 107}, {"time": 226680, "pitch": 60, "duration": 116, "velocity": 95}, {"time": 226680, "pitch": 72, "duration": 116, "velocity": 95}, {"time": 226797, "pitch": 61, "duration": 120, "velocity": 105}, {"time": 226797, "pitch": 73, "duration": 120, "velocity": 105}, {"time": 227278, "pitch": 63, "duration": 121, "velocity": 115}, {"time": 227278, "pitch": 75, "duration": 121, "velocity": 115}, {"time": 228001, "pitch": 67, "duration": 80, "velocity": 119}, {"time": 228001, "pitch": 79, "duration": 80, "velocity": 119}, {"time": 228482, "pitch": 61, "duration": 111, "velocity": 116}, {"time": 228482, "pitch": 73, "duration": 111, "velocity": 116}, {"time": 228607, "pitch": 60, "duration": 116, "velocity": 95}, {"time": 228607, "pitch": 72, "duration": 116, "velocity": 95}, {"time": 228723, "pitch": 61, "duration": 120, "velocity": 100}, {"time": 228723, "pitch": 73, "duration": 120, "velocity": 100}, {"time": 229199, "pitch": 60, "duration": 79, "velocity": 116}, {"time": 229199, "pitch": 72, "duration": 79, "velocity": 116}, {"time": 229435, "pitch": 61, "duration": 80, "velocity": 107}, {"time": 229435, "pitch": 73, "duration": 80, "velocity": 107}, {"time": 229676, "pitch": 60, "duration": 90, "velocity": 107}, {"time": 229676, "pitch": 72, "duration": 90, "velocity": 107}, {"time": 229917, "pitch": 61, "duration": 364, "velocity": 107}, {"time": 229917, "pitch": 73, "duration": 364, "velocity": 107}, {"time": 230282, "pitch": 60, "duration": 113, "velocity": 85}, {"time": 230282, "pitch": 72, "duration": 113, "velocity": 85}, {"time": 230398, "pitch": 61, "duration": 124, "velocity": 107}, {"time": 230398, "pitch": 73, "duration": 124, "velocity": 107}, {"time": 230523, "pitch": 60, "duration": 115, "velocity": 95}, {"time": 230523, "pitch": 72, "duration": 115, "velocity": 95}, {"time": 230639, "pitch": 61, "duration": 120, "velocity": 105}, {"time": 230639, "pitch": 73, "duration": 120, "velocity": 105}, {"time": 231121, "pitch": 63, "duration": 120, "velocity": 115}, {"time": 231121, "pitch": 75, "duration": 120, "velocity": 115}, {"time": 231843, "pitch": 67, "duration": 80, "velocity": 119}, {"time": 231843, "pitch": 79, "duration": 80, "velocity": 119}, {"time": 232324, "pitch": 61, "duration": 108, "velocity": 116}, {"time": 232324, "pitch": 73, "duration": 108, "velocity": 116}, {"time": 232446, "pitch": 60, "duration": 114, "velocity": 95}, {"time": 232446, "pitch": 72, "duration": 114, "velocity": 95}, {"time": 232560, "pitch": 61, "duration": 118, "velocity": 100}, {"time": 232560, "pitch": 73, "duration": 118, "velocity": 100}, {"time": 233036, "pitch": 60, "duration": 81, "velocity": 116}, {"time": 233036, "pitch": 72, "duration": 81, "velocity": 116}, {"time": 233277, "pitch": 61, "duration": 80, "velocity": 107}, {"time": 233277, "pitch": 73, "duration": 80, "velocity": 107}, {"time": 233518, "pitch": 60, "duration": 90, "velocity": 107}, {"time": 233518, "pitch": 72, "duration": 90, "velocity": 107}, {"time": 233759, "pitch": 61, "duration": 364, "velocity": 107}, {"time": 233759, "pitch": 73, "duration": 364, "velocity": 107}, {"time": 234124, "pitch": 60, "duration": 113, "velocity": 85}, {"time": 234124, "pitch": 72, "duration": 113, "velocity": 85}, {"time": 234240, "pitch": 61, "duration": 124, "velocity": 107}, {"time": 234240, "pitch": 73, "duration": 124, "velocity": 107}, {"time": 234365, "pitch": 60, "duration": 115, "velocity": 95}, {"time": 234365, "pitch": 72, "duration": 115, "velocity": 95}, {"time": 234481, "pitch": 61, "duration": 121, "velocity": 105}, {"time": 234481, "pitch": 73, "duration": 121, "velocity": 105}, {"time": 234963, "pitch": 63, "duration": 120, "velocity": 115}, {"time": 234963, "pitch": 75, "duration": 120, "velocity": 115}, {"time": 235685, "pitch": 67, "duration": 79, "velocity": 119}, {"time": 235685, "pitch": 79, "duration": 79, "velocity": 119}, {"time": 236156, "pitch": 61, "duration": 111, "velocity": 116}, {"time": 236156, "pitch": 73, "duration": 111, "velocity": 116}, {"time": 236281, "pitch": 60, "duration": 116, "velocity": 95}, {"time": 236281, "pitch": 72, "duration": 116, "velocity": 95}, {"time": 236397, "pitch": 61, "duration": 120, "velocity": 100}, {"time": 236397, "pitch": 73, "duration": 120, "velocity": 100}, {"time": 236879, "pitch": 60, "duration": 80, "velocity": 116}, {"time": 236879, "pitch": 72, "duration": 80, "velocity": 116}, {"time": 237119, "pitch": 61, "duration": 81, "velocity": 107}, {"time": 237119, "pitch": 73, "duration": 81, "velocity": 107}, {"time": 237360, "pitch": 60, "duration": 91, "velocity": 107}, {"time": 237360, "pitch": 72, "duration": 91, "velocity": 107}, {"time": 237601, "pitch": 61, "duration": 364, "velocity": 107}, {"time": 237601, "pitch": 73, "duration": 364, "velocity": 107}, {"time": 237966, "pitch": 60, "duration": 114, "velocity": 85}, {"time": 237966, "pitch": 72, "duration": 114, "velocity": 85}, {"time": 238083, "pitch": 61, "duration": 123, "velocity": 107}, {"time": 238083, "pitch": 73, "duration": 123, "velocity": 107}, {"time": 238207, "pitch": 60, "duration": 115, "velocity": 95}, {"time": 238207, "pitch": 72, "duration": 115, "velocity": 95}, {"time": 238323, "pitch": 61, "duration": 121, "velocity": 105}, {"time": 238323, "pitch": 73, "duration": 121, "velocity": 105}, {"time": 238800, "pitch": 63, "duration": 118, "velocity": 115}, {"time": 238800, "pitch": 75, "duration": 118, "velocity": 115}, {"time": 239517, "pitch": 67, "duration": 80, "velocity": 119}, {"time": 239517, "pitch": 79, "duration": 80, "velocity": 119}, {"time": 239999, "pitch": 61, "duration": 110, "velocity": 116}, {"time": 239999, "pitch": 73, "duration": 110, "velocity": 116}, {"time": 240123, "pitch": 60, "duration": 116, "velocity": 95}, {"time": 240123, "pitch": 72, "duration": 116, "velocity": 95}, {"time": 240239, "pitch": 61, "duration": 121, "velocity": 100}, {"time": 240239, "pitch": 73, "duration": 121, "velocity": 100}, {"time": 240721, "pitch": 60, "duration": 80, "velocity": 116}, {"time": 240721, "pitch": 72, "duration": 80, "velocity": 116}, {"time": 240962, "pitch": 61, "duration": 80, "velocity": 107}, {"time": 240962, "pitch": 73, "duration": 80, "velocity": 107}, {"time": 241203, "pitch": 60, "duration": 90, "velocity": 107}, {"time": 241203, "pitch": 72, "duration": 90, "velocity": 107}, {"time": 241443, "pitch": 61, "duration": 365, "velocity": 107}, {"time": 241443, "pitch": 73, "duration": 365, "velocity": 107}, {"time": 241809, "pitch": 60, "duration": 113, "velocity": 85}, {"time": 241809, "pitch": 72, "duration": 113, "velocity": 85}, {"time": 241925, "pitch": 61, "duration": 121, "velocity": 107}, {"time": 241925, "pitch": 73, "duration": 121, "velocity": 107}, {"time": 242047, "pitch": 60, "duration": 112, "velocity": 95}, {"time": 242047, "pitch": 72, "duration": 112, "velocity": 95}, {"time": 242160, "pitch": 61, "duration": 118, "velocity": 105}, {"time": 242160, "pitch": 73, "duration": 118, "velocity": 105}, {"time": 242637, "pitch": 63, "duration": 120, "velocity": 115}, {"time": 242637, "pitch": 75, "duration": 120, "velocity": 115}, {"time": 243359, "pitch": 67, "duration": 80, "velocity": 119}, {"time": 243359, "pitch": 79, "duration": 80, "velocity": 119}, {"time": 243841, "pitch": 61, "duration": 110, "velocity": 116}, {"time": 243841, "pitch": 73, "duration": 110, "velocity": 116}, {"time": 243965, "pitch": 60, "duration": 117, "velocity": 95}, {"time": 243965, "pitch": 72, "duration": 117, "velocity": 95}, {"time": 244082, "pitch": 61, "duration": 120, "velocity": 100}, {"time": 244082, "pitch": 73, "duration": 120, "velocity": 100}, {"time": 244563, "pitch": 60, "duration": 80, "velocity": 116}, {"time": 244563, "pitch": 72, "duration": 80, "velocity": 116}, {"time": 244804, "pitch": 61, "duration": 80, "velocity": 107}, {"time": 244804, "pitch": 73, "duration": 80, "velocity": 107}, {"time": 245045, "pitch": 60, "duration": 90, "velocity": 107}, {"time": 245045, "pitch": 72, "duration": 90, "velocity": 107}, {"time": 245286, "pitch": 61, "duration": 364, "velocity": 107}, {"time": 245286, "pitch": 73, "duration": 364, "velocity": 107}, {"time": 245651, "pitch": 60, "duration": 113, "velocity": 85}, {"time": 245651, "pitch": 72, "duration": 113, "velocity": 85}, {"time": 245767, "pitch": 61, "duration": 124, "velocity": 107}, {"time": 245767, "pitch": 73, "duration": 124, "velocity": 107}, {"time": 245892, "pitch": 60, "duration": 115, "velocity": 95}, {"time": 245892, "pitch": 72, "duration": 115, "velocity": 95}, {"time": 246008, "pitch": 61, "duration": 120, "velocity": 105}, {"time": 246008, "pitch": 73, "duration": 120, "velocity": 105}, {"time": 246490, "pitch": 63, "duration": 120, "velocity": 115}, {"time": 246490, "pitch": 75, "duration": 120, "velocity": 115}, {"time": 399, "pitch": 70, "duration": 73, "velocity": 126}, {"time": 481, "pitch": 70, "duration": 80, "velocity": 126}, {"time": 721, "pitch": 79, "duration": 452, "velocity": 126}, {"time": 1203, "pitch": 75, "duration": 80, "velocity": 126}, {"time": 1444, "pitch": 77, "duration": 245, "velocity": 126}, {"time": 1679, "pitch": 72, "duration": 79, "velocity": 126}, {"time": 1915, "pitch": 75, "duration": 221, "velocity": 126}, {"time": 2156, "pitch": 77, "duration": 110, "velocity": 126}, {"time": 2397, "pitch": 75, "duration": 80, "velocity": 126}, {"time": 2637, "pitch": 79, "duration": 432, "velocity": 126}, {"time": 3119, "pitch": 75, "duration": 80, "velocity": 126}, {"time": 3360, "pitch": 77, "duration": 241, "velocity": 126}, {"time": 3601, "pitch": 72, "duration": 70, "velocity": 126}, {"time": 3841, "pitch": 75, "duration": 271, "velocity": 126}, {"time": 4082, "pitch": 77, "duration": 121, "velocity": 126}, {"time": 4323, "pitch": 75, "duration": 110, "velocity": 126}, {"time": 4564, "pitch": 79, "duration": 309, "velocity": 126}, {"time": 5040, "pitch": 75, "duration": 88, "velocity": 126}, {"time": 5276, "pitch": 77, "duration": 220, "velocity": 126}, {"time": 5516, "pitch": 72, "duration": 91, "velocity": 126}, {"time": 5757, "pitch": 75, "duration": 121, "velocity": 126}, {"time": 5998, "pitch": 77, "duration": 181, "velocity": 126}, {"time": 6480, "pitch": 76, "duration": 220, "velocity": 126}, {"time": 6961, "pitch": 72, "duration": 813, "velocity": 126}, {"time": 7924, "pitch": 70, "duration": 217, "velocity": 126}, {"time": 8165, "pitch": 70, "duration": 79, "velocity": 126}, {"time": 8401, "pitch": 79, "duration": 446, "velocity": 126}, {"time": 8877, "pitch": 75, "duration": 80, "velocity": 126}, {"time": 9118, "pitch": 77, "duration": 251, "velocity": 126}, {"time": 9359, "pitch": 72, "duration": 80, "velocity": 126}, {"time": 9599, "pitch": 75, "duration": 221, "velocity": 126}, {"time": 9840, "pitch": 77, "duration": 111, "velocity": 126}, {"time": 10081, "pitch": 75, "duration": 80, "velocity": 126}, {"time": 10322, "pitch": 79, "duration": 431, "velocity": 126}, {"time": 10803, "pitch": 75, "duration": 81, "velocity": 126}, {"time": 11044, "pitch": 77, "duration": 236, "velocity": 126}, {"time": 11280, "pitch": 72, "duration": 69, "velocity": 126}, {"time": 11515, "pitch": 75, "duration": 271, "velocity": 126}, {"time": 11756, "pitch": 77, "duration": 121, "velocity": 126}, {"time": 11997, "pitch": 75, "duration": 110, "velocity": 126}, {"time": 12238, "pitch": 79, "duration": 311, "velocity": 126}, {"time": 12719, "pitch": 75, "duration": 91, "velocity": 126}, {"time": 12960, "pitch": 77, "duration": 221, "velocity": 126}, {"time": 13201, "pitch": 72, "duration": 90, "velocity": 126}, {"time": 13442, "pitch": 75, "duration": 120, "velocity": 126}, {"time": 13683, "pitch": 75, "duration": 180, "velocity": 126}, {"time": 13923, "pitch": 77, "duration": 251, "velocity": 126}, {"time": 14164, "pitch": 76, "duration": 1083, "velocity": 126}, {"time": 15358, "pitch": 75, "duration": 80, "velocity": 126}, {"time": 15598, "pitch": 75, "duration": 81, "velocity": 126}, {"time": 15839, "pitch": 77, "duration": 91, "velocity": 126}, {"time": 16080, "pitch": 79, "duration": 441, "velocity": 126}, {"time": 16562, "pitch": 75, "duration": 90, "velocity": 126}, {"time": 16802, "pitch": 77, "duration": 251, "velocity": 126}, {"time": 17043, "pitch": 72, "duration": 90, "velocity": 126}, {"time": 17284, "pitch": 75, "duration": 118, "velocity": 126}, {"time": 17520, "pitch": 77, "duration": 206, "velocity": 126}, {"time": 17996, "pitch": 75, "duration": 191, "velocity": 126}, {"time": 19200, "pitch": 75, "duration": 281, "velocity": 126}, {"time": 19441, "pitch": 77, "duration": 80, "velocity": 126}, {"time": 19922, "pitch": 79, "duration": 422, "velocity": 126}, {"time": 20404, "pitch": 75, "duration": 3581, "velocity": 126}, {"time": 28078, "pitch": 72, "duration": 160, "velocity": 126}, {"time": 28319, "pitch": 73, "duration": 100, "velocity": 126}, {"time": 28559, "pitch": 72, "duration": 101, "velocity": 126}, {"time": 28800, "pitch": 73, "duration": 101, "velocity": 126}, {"time": 29041, "pitch": 72, "duration": 80, "velocity": 126}, {"time": 29282, "pitch": 73, "duration": 90, "velocity": 126}, {"time": 29523, "pitch": 72, "duration": 80, "velocity": 126}, {"time": 29763, "pitch": 73, "duration": 91, "velocity": 126}, {"time": 30004, "pitch": 72, "duration": 91, "velocity": 126}, {"time": 30245, "pitch": 73, "duration": 78, "velocity": 126}, {"time": 30481, "pitch": 72, "duration": 68, "velocity": 126}, {"time": 30716, "pitch": 73, "duration": 206, "velocity": 126}, {"time": 30930, "pitch": 75, "duration": 371, "velocity": 126}, {"time": 31920, "pitch": 72, "duration": 80, "velocity": 126}, {"time": 32161, "pitch": 73, "duration": 80, "velocity": 126}, {"time": 32402, "pitch": 72, "duration": 90, "velocity": 126}, {"time": 32643, "pitch": 73, "duration": 100, "velocity": 126}, {"time": 32883, "pitch": 72, "duration": 91, "velocity": 126}, {"time": 33124, "pitch": 73, "duration": 98, "velocity": 126}, {"time": 33360, "pitch": 72, "duration": 98, "velocity": 126}, {"time": 33595, "pitch": 73, "duration": 111, "velocity": 126}, {"time": 33836, "pitch": 72, "duration": 120, "velocity": 126}, {"time": 34077, "pitch": 73, "duration": 90, "velocity": 126}, {"time": 34318, "pitch": 72, "duration": 100, "velocity": 126}, {"time": 34558, "pitch": 79, "duration": 81, "velocity": 126}, {"time": 34799, "pitch": 75, "duration": 344, "velocity": 126}, {"time": 35762, "pitch": 72, "duration": 101, "velocity": 126}, {"time": 36003, "pitch": 73, "duration": 101, "velocity": 126}, {"time": 36244, "pitch": 72, "duration": 100, "velocity": 126}, {"time": 36485, "pitch": 73, "duration": 98, "velocity": 126}, {"time": 36720, "pitch": 72, "duration": 99, "velocity": 126}, {"time": 36956, "pitch": 73, "duration": 100, "velocity": 126}, {"time": 37197, "pitch": 72, "duration": 120, "velocity": 126}, {"time": 37437, "pitch": 73, "duration": 101, "velocity": 126}, {"time": 37678, "pitch": 72, "duration": 101, "velocity": 126}, {"time": 37919, "pitch": 73, "duration": 110, "velocity": 126}, {"time": 38160, "pitch": 72, "duration": 100, "velocity": 126}, {"time": 38401, "pitch": 70, "duration": 229, "velocity": 126}, {"time": 38641, "pitch": 70, "duration": 238, "velocity": 126}, {"time": 38882, "pitch": 75, "duration": 91, "velocity": 126}, {"time": 39123, "pitch": 78, "duration": 653, "velocity": 126}, {"time": 39835, "pitch": 75, "duration": 231, "velocity": 126}, {"time": 40076, "pitch": 73, "duration": 120, "velocity": 126}, {"time": 40317, "pitch": 73, "duration": 236, "velocity": 126}, {"time": 40557, "pitch": 75, "duration": 91, "velocity": 126}, {"time": 41039, "pitch": 73, "duration": 413, "velocity": 126}, {"time": 41521, "pitch": 73, "duration": 80, "velocity": 126}, {"time": 41761, "pitch": 73, "duration": 81, "velocity": 126}, {"time": 42002, "pitch": 73, "duration": 80, "velocity": 126}, {"time": 42243, "pitch": 72, "duration": 80, "velocity": 126}, {"time": 42484, "pitch": 70, "duration": 170, "velocity": 126}, {"time": 43436, "pitch": 72, "duration": 161, "velocity": 126}, {"time": 43677, "pitch": 73, "duration": 101, "velocity": 126}, {"time": 43918, "pitch": 72, "duration": 100, "velocity": 126}, {"time": 44159, "pitch": 73, "duration": 100, "velocity": 126}, {"time": 44400, "pitch": 72, "duration": 80, "velocity": 126}, {"time": 44640, "pitch": 73, "duration": 91, "velocity": 126}, {"time": 44881, "pitch": 72, "duration": 80, "velocity": 126}, {"time": 45122, "pitch": 73, "duration": 90, "velocity": 126}, {"time": 45363, "pitch": 72, "duration": 90, "velocity": 126}, {"time": 45604, "pitch": 73, "duration": 80, "velocity": 126}, {"time": 45844, "pitch": 72, "duration": 71, "velocity": 126}, {"time": 46085, "pitch": 73, "duration": 201, "velocity": 126}, {"time": 46294, "pitch": 75, "duration": 366, "velocity": 126}, {"time": 47279, "pitch": 72, "duration": 80, "velocity": 126}, {"time": 47519, "pitch": 73, "duration": 81, "velocity": 126}, {"time": 47760, "pitch": 72, "duration": 91, "velocity": 126}, {"time": 48001, "pitch": 73, "duration": 100, "velocity": 126}, {"time": 48242, "pitch": 72, "duration": 90, "velocity": 126}, {"time": 48483, "pitch": 73, "duration": 100, "velocity": 126}, {"time": 48723, "pitch": 72, "duration": 101, "velocity": 126}, {"time": 48964, "pitch": 73, "duration": 108, "velocity": 126}, {"time": 49200, "pitch": 72, "duration": 118, "velocity": 126}, {"time": 49435, "pitch": 73, "duration": 91, "velocity": 126}, {"time": 49676, "pitch": 72, "duration": 101, "velocity": 126}, {"time": 49917, "pitch": 79, "duration": 80, "velocity": 126}, {"time": 50158, "pitch": 75, "duration": 344, "velocity": 126}, {"time": 51121, "pitch": 72, "duration": 100, "velocity": 126}, {"time": 51362, "pitch": 73, "duration": 100, "velocity": 126}, {"time": 51603, "pitch": 72, "duration": 100, "velocity": 126}, {"time": 51843, "pitch": 73, "duration": 101, "velocity": 126}, {"time": 52084, "pitch": 72, "duration": 100, "velocity": 126}, {"time": 52325, "pitch": 73, "duration": 98, "velocity": 126}, {"time": 52560, "pitch": 72, "duration": 118, "velocity": 126}, {"time": 52796, "pitch": 73, "duration": 100, "velocity": 126}, {"time": 53037, "pitch": 72, "duration": 100, "velocity": 126}, {"time": 53278, "pitch": 73, "duration": 110, "velocity": 126}, {"time": 53518, "pitch": 72, "duration": 101, "velocity": 126}, {"time": 53759, "pitch": 70, "duration": 230, "velocity": 126}, {"time": 54000, "pitch": 70, "duration": 238, "velocity": 126}, {"time": 54241, "pitch": 75, "duration": 90, "velocity": 126}, {"time": 54482, "pitch": 78, "duration": 662, "velocity": 126}, {"time": 55204, "pitch": 75, "duration": 226, "velocity": 126}, {"time": 55440, "pitch": 73, "duration": 117, "velocity": 126}, {"time": 55675, "pitch": 73, "duration": 291, "velocity": 126}, {"time": 55916, "pitch": 75, "duration": 90, "velocity": 126}, {"time": 56397, "pitch": 73, "duration": 322, "velocity": 126}, {"time": 56879, "pitch": 73, "duration": 80, "velocity": 126}, {"time": 57120, "pitch": 73, "duration": 80, "velocity": 126}, {"time": 57361, "pitch": 75, "duration": 80, "velocity": 126}, {"time": 57601, "pitch": 78, "duration": 81, "velocity": 126}, {"time": 57842, "pitch": 75, "duration": 171, "velocity": 126}, {"time": 58324, "pitch": 75, "duration": 2030, "velocity": 126}, {"time": 62396, "pitch": 75, "duration": 673, "velocity": 126}, {"time": 63119, "pitch": 72, "duration": 120, "velocity": 126}, {"time": 63243, "pitch": 70, "duration": 151, "velocity": 126}, {"time": 63360, "pitch": 72, "duration": 291, "velocity": 126}, {"time": 63600, "pitch": 75, "duration": 131, "velocity": 126}, {"time": 64082, "pitch": 72, "duration": 251, "velocity": 126}, {"time": 64323, "pitch": 73, "duration": 100, "velocity": 126}, {"time": 64564, "pitch": 73, "duration": 233, "velocity": 126}, {"time": 64804, "pitch": 72, "duration": 238, "velocity": 126}, {"time": 65040, "pitch": 73, "duration": 118, "velocity": 126}, {"time": 65276, "pitch": 72, "duration": 227, "velocity": 126}, {"time": 65516, "pitch": 70, "duration": 91, "velocity": 126}, {"time": 65757, "pitch": 78, "duration": 230, "velocity": 126}, {"time": 65998, "pitch": 75, "duration": 590, "velocity": 126}, {"time": 70081, "pitch": 75, "duration": 672, "velocity": 126}, {"time": 70803, "pitch": 72, "duration": 121, "velocity": 126}, {"time": 70928, "pitch": 70, "duration": 149, "velocity": 126}, {"time": 71044, "pitch": 72, "duration": 238, "velocity": 126}, {"time": 71280, "pitch": 75, "duration": 127, "velocity": 126}, {"time": 71756, "pitch": 75, "duration": 224, "velocity": 126}, {"time": 71997, "pitch": 78, "duration": 100, "velocity": 126}, {"time": 72238, "pitch": 78, "duration": 248, "velocity": 126}, {"time": 72478, "pitch": 77, "duration": 237, "velocity": 126}, {"time": 72719, "pitch": 75, "duration": 121, "velocity": 126}, {"time": 72960, "pitch": 77, "duration": 225, "velocity": 126}, {"time": 73201, "pitch": 75, "duration": 90, "velocity": 126}, {"time": 73442, "pitch": 77, "duration": 241, "velocity": 126}, {"time": 73682, "pitch": 78, "duration": 422, "velocity": 127}, {"time": 74164, "pitch": 75, "duration": 1785, "velocity": 113}, {"time": 77043, "pitch": 70, "duration": 217, "velocity": 126}, {"time": 77284, "pitch": 70, "duration": 78, "velocity": 126}, {"time": 77519, "pitch": 79, "duration": 447, "velocity": 126}, {"time": 77996, "pitch": 75, "duration": 80, "velocity": 126}, {"time": 78237, "pitch": 77, "duration": 250, "velocity": 126}, {"time": 78477, "pitch": 72, "duration": 81, "velocity": 126}, {"time": 78718, "pitch": 75, "duration": 221, "velocity": 126}, {"time": 78959, "pitch": 77, "duration": 110, "velocity": 126}, {"time": 79200, "pitch": 75, "duration": 80, "velocity": 126}, {"time": 79441, "pitch": 79, "duration": 431, "velocity": 126}, {"time": 79922, "pitch": 75, "duration": 80, "velocity": 126}, {"time": 80163, "pitch": 77, "duration": 241, "velocity": 126}, {"time": 80404, "pitch": 72, "duration": 70, "velocity": 126}, {"time": 80644, "pitch": 75, "duration": 266, "velocity": 126}, {"time": 80880, "pitch": 77, "duration": 118, "velocity": 126}, {"time": 81116, "pitch": 75, "duration": 110, "velocity": 126}, {"time": 81356, "pitch": 79, "duration": 311, "velocity": 126}, {"time": 81838, "pitch": 75, "duration": 90, "velocity": 126}, {"time": 82079, "pitch": 77, "duration": 221, "velocity": 126}, {"time": 82320, "pitch": 72, "duration": 90, "velocity": 126}, {"time": 82560, "pitch": 75, "duration": 121, "velocity": 126}, {"time": 82801, "pitch": 77, "duration": 181, "velocity": 126}, {"time": 83283, "pitch": 76, "duration": 221, "velocity": 126}, {"time": 83764, "pitch": 72, "duration": 803, "velocity": 126}, {"time": 84717, "pitch": 70, "duration": 217, "velocity": 126}, {"time": 84958, "pitch": 70, "duration": 80, "velocity": 126}, {"time": 85199, "pitch": 79, "duration": 451, "velocity": 126}, {"time": 85680, "pitch": 75, "duration": 81, "velocity": 126}, {"time": 85921, "pitch": 77, "duration": 251, "velocity": 126}, {"time": 86162, "pitch": 72, "duration": 80, "velocity": 126}, {"time": 86403, "pitch": 75, "duration": 220, "velocity": 126}, {"time": 86643, "pitch": 77, "duration": 111, "velocity": 126}, {"time": 86884, "pitch": 75, "duration": 79, "velocity": 126}, {"time": 87120, "pitch": 79, "duration": 426, "velocity": 126}, {"time": 87596, "pitch": 75, "duration": 80, "velocity": 126}, {"time": 87837, "pitch": 77, "duration": 241, "velocity": 126}, {"time": 88078, "pitch": 72, "duration": 70, "velocity": 126}, {"time": 88319, "pitch": 75, "duration": 270, "velocity": 126}, {"time": 88559, "pitch": 77, "duration": 121, "velocity": 126}, {"time": 88800, "pitch": 75, "duration": 110, "velocity": 126}, {"time": 89041, "pitch": 79, "duration": 311, "velocity": 126}, {"time": 89523, "pitch": 75, "duration": 90, "velocity": 126}, {"time": 89763, "pitch": 77, "duration": 221, "velocity": 126}, {"time": 90004, "pitch": 72, "duration": 90, "velocity": 126}, {"time": 90245, "pitch": 75, "duration": 118, "velocity": 126}, {"time": 90480, "pitch": 75, "duration": 177, "velocity": 126}, {"time": 90716, "pitch": 77, "duration": 251, "velocity": 126}, {"time": 90957, "pitch": 76, "duration": 1093, "velocity": 126}, {"time": 92161, "pitch": 75, "duration": 80, "velocity": 126}, {"time": 92402, "pitch": 75, "duration": 80, "velocity": 126}, {"time": 92642, "pitch": 77, "duration": 91, "velocity": 126}, {"time": 92883, "pitch": 79, "duration": 437, "velocity": 126}, {"time": 93360, "pitch": 75, "duration": 88, "velocity": 126}, {"time": 93595, "pitch": 77, "duration": 251, "velocity": 126}, {"time": 93836, "pitch": 72, "duration": 90, "velocity": 126}, {"time": 94077, "pitch": 75, "duration": 120, "velocity": 126}, {"time": 94317, "pitch": 77, "duration": 211, "velocity": 126}, {"time": 94799, "pitch": 75, "duration": 507, "velocity": 126}, {"time": 96003, "pitch": 75, "duration": 281, "velocity": 126}, {"time": 96244, "pitch": 77, "duration": 80, "velocity": 126}, {"time": 96720, "pitch": 79, "duration": 416, "velocity": 126}, {"time": 97197, "pitch": 75, "duration": 3591, "velocity": 126}, {"time": 104881, "pitch": 72, "duration": 161, "velocity": 126}, {"time": 105122, "pitch": 73, "duration": 100, "velocity": 126}, {"time": 105363, "pitch": 72, "duration": 100, "velocity": 126}, {"time": 105603, "pitch": 73, "duration": 101, "velocity": 126}, {"time": 105844, "pitch": 72, "duration": 80, "velocity": 126}, {"time": 106085, "pitch": 73, "duration": 88, "velocity": 126}, {"time": 106321, "pitch": 72, "duration": 78, "velocity": 126}, {"time": 106556, "pitch": 73, "duration": 90, "velocity": 126}, {"time": 106797, "pitch": 72, "duration": 90, "velocity": 126}, {"time": 107038, "pitch": 73, "duration": 80, "velocity": 126}, {"time": 107279, "pitch": 72, "duration": 70, "velocity": 126}, {"time": 107519, "pitch": 73, "duration": 206, "velocity": 126}, {"time": 107733, "pitch": 75, "duration": 371, "velocity": 126}, {"time": 108723, "pitch": 72, "duration": 81, "velocity": 126}, {"time": 108964, "pitch": 73, "duration": 79, "velocity": 126}, {"time": 109200, "pitch": 72, "duration": 88, "velocity": 126}, {"time": 109435, "pitch": 73, "duration": 101, "velocity": 126}, {"time": 109676, "pitch": 72, "duration": 90, "velocity": 126}, {"time": 109917, "pitch": 73, "duration": 100, "velocity": 126}, {"time": 110158, "pitch": 72, "duration": 100, "velocity": 126}, {"time": 110398, "pitch": 73, "duration": 111, "velocity": 126}, {"time": 110639, "pitch": 72, "duration": 121, "velocity": 126}, {"time": 110880, "pitch": 73, "duration": 90, "velocity": 126}, {"time": 111121, "pitch": 72, "duration": 100, "velocity": 126}, {"time": 111362, "pitch": 79, "duration": 80, "velocity": 126}, {"time": 111602, "pitch": 75, "duration": 345, "velocity": 126}, {"time": 112560, "pitch": 72, "duration": 99, "velocity": 126}, {"time": 112796, "pitch": 73, "duration": 100, "velocity": 126}, {"time": 113037, "pitch": 72, "duration": 100, "velocity": 126}, {"time": 113277, "pitch": 73, "duration": 101, "velocity": 126}, {"time": 113518, "pitch": 72, "duration": 101, "velocity": 126}, {"time": 113759, "pitch": 73, "duration": 100, "velocity": 126}, {"time": 114000, "pitch": 72, "duration": 120, "velocity": 126}, {"time": 114241, "pitch": 73, "duration": 100, "velocity": 126}, {"time": 114481, "pitch": 72, "duration": 101, "velocity": 126}, {"time": 114722, "pitch": 73, "duration": 111, "velocity": 126}, {"time": 114963, "pitch": 72, "duration": 100, "velocity": 126}, {"time": 115204, "pitch": 70, "duration": 225, "velocity": 126}, {"time": 115439, "pitch": 70, "duration": 233, "velocity": 126}, {"time": 115675, "pitch": 75, "duration": 90, "velocity": 126}, {"time": 115916, "pitch": 78, "duration": 662, "velocity": 126}, {"time": 116638, "pitch": 75, "duration": 231, "velocity": 126}, {"time": 116879, "pitch": 73, "duration": 120, "velocity": 126}, {"time": 117120, "pitch": 73, "duration": 291, "velocity": 126}, {"time": 117361, "pitch": 75, "duration": 90, "velocity": 126}, {"time": 117842, "pitch": 73, "duration": 321, "velocity": 126}, {"time": 118324, "pitch": 73, "duration": 80, "velocity": 126}, {"time": 118564, "pitch": 73, "duration": 79, "velocity": 126}, {"time": 118800, "pitch": 75, "duration": 79, "velocity": 126}, {"time": 119036, "pitch": 78, "duration": 80, "velocity": 126}, {"time": 119276, "pitch": 75, "duration": 171, "velocity": 126}, {"time": 119758, "pitch": 75, "duration": 2041, "velocity": 126}, {"time": 123841, "pitch": 75, "duration": 672, "velocity": 126}, {"time": 124563, "pitch": 72, "duration": 121, "velocity": 126}, {"time": 124688, "pitch": 70, "duration": 150, "velocity": 126}, {"time": 124804, "pitch": 72, "duration": 285, "velocity": 126}, {"time": 125040, "pitch": 75, "duration": 127, "velocity": 126}, {"time": 125516, "pitch": 72, "duration": 251, "velocity": 126}, {"time": 125757, "pitch": 73, "duration": 100, "velocity": 126}, {"time": 125998, "pitch": 73, "duration": 234, "velocity": 126}, {"time": 126239, "pitch": 72, "duration": 242, "velocity": 126}, {"time": 126479, "pitch": 73, "duration": 121, "velocity": 126}, {"time": 126720, "pitch": 72, "duration": 228, "velocity": 126}, {"time": 126961, "pitch": 70, "duration": 90, "velocity": 126}, {"time": 127202, "pitch": 78, "duration": 229, "velocity": 126}, {"time": 127443, "pitch": 75, "duration": 589, "velocity": 126}, {"time": 131515, "pitch": 75, "duration": 672, "velocity": 126}, {"time": 132237, "pitch": 72, "duration": 121, "velocity": 126}, {"time": 132362, "pitch": 70, "duration": 150, "velocity": 126}, {"time": 132478, "pitch": 72, "duration": 243, "velocity": 126}, {"time": 132719, "pitch": 75, "duration": 131, "velocity": 126}, {"time": 133201, "pitch": 75, "duration": 223, "velocity": 126}, {"time": 133441, "pitch": 78, "duration": 101, "velocity": 126}, {"time": 133682, "pitch": 78, "duration": 249, "velocity": 126}, {"time": 133923, "pitch": 77, "duration": 237, "velocity": 126}, {"time": 134164, "pitch": 75, "duration": 120, "velocity": 126}, {"time": 134405, "pitch": 77, "duration": 219, "velocity": 126}, {"time": 134640, "pitch": 75, "duration": 89, "velocity": 126}, {"time": 134876, "pitch": 77, "duration": 242, "velocity": 126}, {"time": 135117, "pitch": 78, "duration": 421, "velocity": 127}, {"time": 135598, "pitch": 75, "duration": 656, "velocity": 113}, {"time": 138477, "pitch": 70, "duration": 217, "velocity": 126}, {"time": 138718, "pitch": 70, "duration": 80, "velocity": 126}, {"time": 138959, "pitch": 79, "duration": 451, "velocity": 126}, {"time": 139440, "pitch": 75, "duration": 81, "velocity": 126}, {"time": 139681, "pitch": 77, "duration": 251, "velocity": 126}, {"time": 139922, "pitch": 72, "duration": 80, "velocity": 126}, {"time": 140163, "pitch": 75, "duration": 221, "velocity": 126}, {"time": 140404, "pitch": 77, "duration": 110, "velocity": 126}, {"time": 140644, "pitch": 75, "duration": 79, "velocity": 126}, {"time": 140880, "pitch": 79, "duration": 426, "velocity": 126}, {"time": 141356, "pitch": 75, "duration": 81, "velocity": 126}, {"time": 141597, "pitch": 77, "duration": 241, "velocity": 126}, {"time": 141838, "pitch": 72, "duration": 70, "velocity": 126}, {"time": 142079, "pitch": 75, "duration": 271, "velocity": 126}, {"time": 142319, "pitch": 77, "duration": 121, "velocity": 126}, {"time": 142560, "pitch": 75, "duration": 111, "velocity": 126}, {"time": 142801, "pitch": 79, "duration": 311, "velocity": 126}, {"time": 143283, "pitch": 75, "duration": 90, "velocity": 126}, {"time": 143523, "pitch": 77, "duration": 221, "velocity": 126}, {"time": 143764, "pitch": 72, "duration": 91, "velocity": 126}, {"time": 144005, "pitch": 75, "duration": 118, "velocity": 126}, {"time": 144241, "pitch": 77, "duration": 176, "velocity": 126}, {"time": 144717, "pitch": 76, "duration": 221, "velocity": 126}, {"time": 145199, "pitch": 72, "duration": 812, "velocity": 126}, {"time": 146162, "pitch": 70, "duration": 216, "velocity": 126}, {"time": 146403, "pitch": 70, "duration": 80, "velocity": 126}, {"time": 146643, "pitch": 79, "duration": 447, "velocity": 126}, {"time": 147120, "pitch": 75, "duration": 78, "velocity": 126}, {"time": 147355, "pitch": 77, "duration": 251, "velocity": 126}, {"time": 147596, "pitch": 72, "duration": 80, "velocity": 126}, {"time": 147837, "pitch": 75, "duration": 221, "velocity": 126}, {"time": 148078, "pitch": 77, "duration": 110, "velocity": 126}, {"time": 148318, "pitch": 75, "duration": 81, "velocity": 126}, {"time": 148559, "pitch": 79, "duration": 432, "velocity": 126}, {"time": 149041, "pitch": 75, "duration": 80, "velocity": 126}, {"time": 149282, "pitch": 77, "duration": 240, "velocity": 126}, {"time": 149522, "pitch": 72, "duration": 71, "velocity": 126}, {"time": 149763, "pitch": 75, "duration": 271, "velocity": 126}, {"time": 150004, "pitch": 77, "duration": 120, "velocity": 126}, {"time": 150245, "pitch": 75, "duration": 108, "velocity": 126}, {"time": 150480, "pitch": 79, "duration": 306, "velocity": 126}, {"time": 150957, "pitch": 75, "duration": 90, "velocity": 126}, {"time": 151197, "pitch": 77, "duration": 221, "velocity": 126}, {"time": 151438, "pitch": 72, "duration": 91, "velocity": 126}, {"time": 151679, "pitch": 75, "duration": 120, "velocity": 126}, {"time": 151920, "pitch": 75, "duration": 180, "velocity": 126}, {"time": 152161, "pitch": 77, "duration": 250, "velocity": 126}, {"time": 152401, "pitch": 76, "duration": 1086, "velocity": 126}, {"time": 153595, "pitch": 75, "duration": 80, "velocity": 126}, {"time": 153836, "pitch": 75, "duration": 80, "velocity": 126}, {"time": 154077, "pitch": 77, "duration": 90, "velocity": 126}, {"time": 154317, "pitch": 79, "duration": 442, "velocity": 126}, {"time": 154799, "pitch": 75, "duration": 90, "velocity": 126}, {"time": 155040, "pitch": 77, "duration": 251, "velocity": 126}, {"time": 155281, "pitch": 72, "duration": 90, "velocity": 126}, {"time": 155521, "pitch": 75, "duration": 121, "velocity": 126}, {"time": 155762, "pitch": 77, "duration": 211, "velocity": 126}, {"time": 156244, "pitch": 75, "duration": 501, "velocity": 126}, {"time": 157437, "pitch": 75, "duration": 281, "velocity": 126}, {"time": 157678, "pitch": 77, "duration": 80, "velocity": 126}, {"time": 158160, "pitch": 79, "duration": 421, "velocity": 126}, {"time": 173759, "pitch": 75, "duration": 672, "velocity": 126}, {"time": 174481, "pitch": 72, "duration": 121, "velocity": 126}, {"time": 174606, "pitch": 70, "duration": 150, "velocity": 126}, {"time": 174722, "pitch": 72, "duration": 291, "velocity": 126}, {"time": 174963, "pitch": 75, "duration": 130, "velocity": 126}, {"time": 175439, "pitch": 72, "duration": 246, "velocity": 126}, {"time": 175675, "pitch": 73, "duration": 100, "velocity": 126}, {"time": 175916, "pitch": 73, "duration": 233, "velocity": 126}, {"time": 176156, "pitch": 72, "duration": 243, "velocity": 126}, {"time": 176397, "pitch": 73, "duration": 121, "velocity": 126}, {"time": 176638, "pitch": 72, "duration": 228, "velocity": 126}, {"time": 176879, "pitch": 70, "duration": 90, "velocity": 126}, {"time": 177120, "pitch": 78, "duration": 229, "velocity": 126}, {"time": 177360, "pitch": 75, "duration": 590, "velocity": 126}, {"time": 181443, "pitch": 75, "duration": 668, "velocity": 126}, {"time": 182161, "pitch": 72, "duration": 117, "velocity": 126}, {"time": 182282, "pitch": 70, "duration": 148, "velocity": 126}, {"time": 182396, "pitch": 72, "duration": 243, "velocity": 126}, {"time": 182637, "pitch": 75, "duration": 130, "velocity": 126}, {"time": 183119, "pitch": 75, "duration": 223, "velocity": 126}, {"time": 183359, "pitch": 78, "duration": 101, "velocity": 126}, {"time": 183600, "pitch": 78, "duration": 249, "velocity": 126}, {"time": 183841, "pitch": 77, "duration": 237, "velocity": 126}, {"time": 184082, "pitch": 75, "duration": 120, "velocity": 126}, {"time": 184323, "pitch": 77, "duration": 224, "velocity": 126}, {"time": 184563, "pitch": 75, "duration": 91, "velocity": 126}, {"time": 184804, "pitch": 77, "duration": 237, "velocity": 126}, {"time": 185040, "pitch": 78, "duration": 416, "velocity": 127}, {"time": 185516, "pitch": 75, "duration": 1686, "velocity": 113}, {"time": 188400, "pitch": 70, "duration": 212, "velocity": 126}, {"time": 188636, "pitch": 70, "duration": 80, "velocity": 126}, {"time": 188877, "pitch": 79, "duration": 451, "velocity": 126}, {"time": 189358, "pitch": 75, "duration": 81, "velocity": 126}, {"time": 189599, "pitch": 77, "duration": 251, "velocity": 126}, {"time": 189840, "pitch": 72, "duration": 80, "velocity": 126}, {"time": 190081, "pitch": 75, "duration": 220, "velocity": 126}, {"time": 190321, "pitch": 77, "duration": 111, "velocity": 126}, {"time": 190562, "pitch": 75, "duration": 81, "velocity": 126}, {"time": 190803, "pitch": 79, "duration": 427, "velocity": 126}, {"time": 191279, "pitch": 75, "duration": 79, "velocity": 126}, {"time": 191515, "pitch": 77, "duration": 241, "velocity": 126}, {"time": 191756, "pitch": 72, "duration": 70, "velocity": 126}, {"time": 191997, "pitch": 75, "duration": 270, "velocity": 126}, {"time": 192237, "pitch": 77, "duration": 121, "velocity": 126}, {"time": 192478, "pitch": 75, "duration": 111, "velocity": 126}, {"time": 192719, "pitch": 79, "duration": 311, "velocity": 126}, {"time": 193201, "pitch": 75, "duration": 90, "velocity": 126}, {"time": 193441, "pitch": 77, "duration": 221, "velocity": 126}, {"time": 193682, "pitch": 72, "duration": 90, "velocity": 126}, {"time": 193923, "pitch": 75, "duration": 120, "velocity": 126}, {"time": 194164, "pitch": 77, "duration": 180, "velocity": 126}, {"time": 194640, "pitch": 76, "duration": 216, "velocity": 126}, {"time": 195116, "pitch": 72, "duration": 813, "velocity": 126}, {"time": 196080, "pitch": 70, "duration": 216, "velocity": 126}, {"time": 196320, "pitch": 70, "duration": 81, "velocity": 126}, {"time": 196561, "pitch": 79, "duration": 452, "velocity": 126}, {"time": 197043, "pitch": 75, "duration": 80, "velocity": 126}, {"time": 197284, "pitch": 77, "duration": 250, "velocity": 126}, {"time": 197524, "pitch": 72, "duration": 81, "velocity": 126}, {"time": 197765, "pitch": 75, "duration": 216, "velocity": 126}, {"time": 198001, "pitch": 77, "duration": 108, "velocity": 126}, {"time": 198236, "pitch": 75, "duration": 81, "velocity": 126}, {"time": 198477, "pitch": 79, "duration": 432, "velocity": 126}, {"time": 198959, "pitch": 75, "duration": 80, "velocity": 126}, {"time": 199199, "pitch": 77, "duration": 241, "velocity": 126}, {"time": 199440, "pitch": 72, "duration": 71, "velocity": 126}, {"time": 199681, "pitch": 75, "duration": 271, "velocity": 126}, {"time": 199922, "pitch": 77, "duration": 120, "velocity": 126}, {"time": 200163, "pitch": 75, "duration": 110, "velocity": 126}, {"time": 200403, "pitch": 79, "duration": 310, "velocity": 126}, {"time": 200880, "pitch": 75, "duration": 88, "velocity": 126}, {"time": 201115, "pitch": 77, "duration": 221, "velocity": 126}, {"time": 201356, "pitch": 72, "duration": 90, "velocity": 126}, {"time": 201597, "pitch": 75, "duration": 120, "velocity": 126}, {"time": 201838, "pitch": 75, "duration": 180, "velocity": 126}, {"time": 202079, "pitch": 77, "duration": 250, "velocity": 126}, {"time": 202319, "pitch": 76, "duration": 1094, "velocity": 126}, {"time": 203523, "pitch": 75, "duration": 81, "velocity": 126}, {"time": 203764, "pitch": 75, "duration": 80, "velocity": 126}, {"time": 204005, "pitch": 77, "duration": 88, "velocity": 126}, {"time": 204240, "pitch": 79, "duration": 437, "velocity": 126}, {"time": 204717, "pitch": 75, "duration": 90, "velocity": 126}, {"time": 204958, "pitch": 77, "duration": 250, "velocity": 126}, {"time": 205198, "pitch": 72, "duration": 91, "velocity": 126}, {"time": 205439, "pitch": 75, "duration": 121, "velocity": 126}, {"time": 205680, "pitch": 77, "duration": 211, "velocity": 126}, {"time": 206162, "pitch": 75, "duration": 506, "velocity": 126}, {"time": 207355, "pitch": 75, "duration": 281, "velocity": 126}, {"time": 207596, "pitch": 77, "duration": 80, "velocity": 126}, {"time": 208077, "pitch": 79, "duration": 422, "velocity": 113}, {"time": 209522, "pitch": 77, "duration": 281, "velocity": 98}, {"time": 209763, "pitch": 79, "duration": 221, "velocity": 105}, {"time": 210004, "pitch": 76, "duration": 1334, "velocity": 98}, {"time": 211438, "pitch": 72, "duration": 100, "velocity": 102}, {"time": 211679, "pitch": 72, "duration": 90, "velocity": 102}, {"time": 211920, "pitch": 79, "duration": 441, "velocity": 105}, {"time": 212401, "pitch": 75, "duration": 271, "velocity": 85}, {"time": 212642, "pitch": 77, "duration": 271, "velocity": 82}, {"time": 212883, "pitch": 75, "duration": 250, "velocity": 87}, {"time": 213124, "pitch": 77, "duration": 265, "velocity": 74}, {"time": 213359, "pitch": 79, "duration": 187, "velocity": 85}, {"time": 213836, "pitch": 75, "duration": 200, "velocity": 116}, {"time": 215040, "pitch": 75, "duration": 80, "velocity": 102}, {"time": 215280, "pitch": 75, "duration": 81, "velocity": 113}, {"time": 215521, "pitch": 77, "duration": 80, "velocity": 110}, {"time": 215762, "pitch": 79, "duration": 502, "velocity": 116}, {"time": 216244, "pitch": 75, "duration": 3591, "velocity": 126}, {"time": 20163, "pitch": 54, "duration": 124, "velocity": 105}, {"time": 20287, "pitch": 55, "duration": 117, "velocity": 98}, {"time": 20404, "pitch": 54, "duration": 124, "velocity": 85}, {"time": 20528, "pitch": 51, "duration": 91, "velocity": 107}, {"time": 20880, "pitch": 54, "duration": 122, "velocity": 105}, {"time": 21002, "pitch": 55, "duration": 114, "velocity": 98}, {"time": 21116, "pitch": 54, "duration": 124, "velocity": 85}, {"time": 21240, "pitch": 51, "duration": 90, "velocity": 107}, {"time": 21597, "pitch": 37, "duration": 241, "velocity": 113}, {"time": 21838, "pitch": 39, "duration": 70, "velocity": 102}, {"time": 22079, "pitch": 54, "duration": 124, "velocity": 105}, {"time": 22203, "pitch": 55, "duration": 117, "velocity": 98}, {"time": 22320, "pitch": 54, "duration": 124, "velocity": 85}, {"time": 22444, "pitch": 51, "duration": 90, "velocity": 107}, {"time": 22801, "pitch": 54, "duration": 125, "velocity": 105}, {"time": 22926, "pitch": 55, "duration": 116, "velocity": 98}, {"time": 23042, "pitch": 54, "duration": 125, "velocity": 85}, {"time": 23167, "pitch": 51, "duration": 90, "velocity": 107}, {"time": 23995, "pitch": 54, "duration": 124, "velocity": 105}, {"time": 24119, "pitch": 55, "duration": 117, "velocity": 98}, {"time": 24236, "pitch": 54, "duration": 124, "velocity": 85}, {"time": 24360, "pitch": 51, "duration": 90, "velocity": 107}, {"time": 24717, "pitch": 54, "duration": 125, "velocity": 105}, {"time": 24842, "pitch": 55, "duration": 116, "velocity": 98}, {"time": 24958, "pitch": 54, "duration": 124, "velocity": 85}, {"time": 25082, "pitch": 51, "duration": 91, "velocity": 107}, {"time": 25440, "pitch": 37, "duration": 240, "velocity": 113}, {"time": 25680, "pitch": 39, "duration": 71, "velocity": 102}, {"time": 25921, "pitch": 54, "duration": 125, "velocity": 105}, {"time": 26046, "pitch": 55, "duration": 116, "velocity": 98}, {"time": 26162, "pitch": 54, "duration": 124, "velocity": 85}, {"time": 26286, "pitch": 51, "duration": 91, "velocity": 107}, {"time": 26644, "pitch": 54, "duration": 124, "velocity": 105}, {"time": 26768, "pitch": 55, "duration": 116, "velocity": 98}, {"time": 26884, "pitch": 54, "duration": 122, "velocity": 85}, {"time": 27006, "pitch": 51, "duration": 88, "velocity": 107}, {"time": 43196, "pitch": 54, "duration": 124, "velocity": 105}, {"time": 43320, "pitch": 55, "duration": 116, "velocity": 98}, {"time": 43436, "pitch": 54, "duration": 125, "velocity": 85}, {"time": 43561, "pitch": 51, "duration": 90, "velocity": 107}, {"time": 43918, "pitch": 54, "duration": 124, "velocity": 105}, {"time": 44042, "pitch": 55, "duration": 117, "velocity": 98}, {"time": 44159, "pitch": 54, "duration": 124, "velocity": 85}, {"time": 44283, "pitch": 51, "duration": 91, "velocity": 107}, {"time": 44640, "pitch": 37, "duration": 241, "velocity": 113}, {"time": 44881, "pitch": 39, "duration": 70, "velocity": 102}, {"time": 45122, "pitch": 54, "duration": 124, "velocity": 105}, {"time": 45246, "pitch": 55, "duration": 117, "velocity": 98}, {"time": 45363, "pitch": 54, "duration": 124, "velocity": 85}, {"time": 45487, "pitch": 51, "duration": 90, "velocity": 107}, {"time": 45844, "pitch": 54, "duration": 125, "velocity": 105}, {"time": 45969, "pitch": 55, "duration": 116, "velocity": 98}, {"time": 46085, "pitch": 54, "duration": 122, "velocity": 85}, {"time": 46207, "pitch": 51, "duration": 88, "velocity": 107}, {"time": 47038, "pitch": 54, "duration": 124, "velocity": 105}, {"time": 47162, "pitch": 55, "duration": 117, "velocity": 98}, {"time": 47279, "pitch": 54, "duration": 124, "velocity": 85}, {"time": 47403, "pitch": 51, "duration": 90, "velocity": 107}, {"time": 47760, "pitch": 54, "duration": 125, "velocity": 105}, {"time": 47885, "pitch": 55, "duration": 116, "velocity": 98}, {"time": 48001, "pitch": 54, "duration": 124, "velocity": 85}, {"time": 48125, "pitch": 51, "duration": 91, "velocity": 107}, {"time": 48483, "pitch": 37, "duration": 240, "velocity": 113}, {"time": 48723, "pitch": 39, "duration": 71, "velocity": 102}, {"time": 48964, "pitch": 54, "duration": 122, "velocity": 105}, {"time": 49086, "pitch": 55, "duration": 114, "velocity": 98}, {"time": 49200, "pitch": 54, "duration": 122, "velocity": 85}, {"time": 49322, "pitch": 51, "duration": 88, "velocity": 107}, {"time": 49676, "pitch": 54, "duration": 125, "velocity": 105}, {"time": 49801, "pitch": 55, "duration": 116, "velocity": 98}, {"time": 49917, "pitch": 54, "duration": 124, "velocity": 85}, {"time": 50041, "pitch": 51, "duration": 91, "velocity": 107}, {"time": 50880, "pitch": 54, "duration": 125, "velocity": 105}, {"time": 51005, "pitch": 55, "duration": 116, "velocity": 98}, {"time": 51121, "pitch": 54, "duration": 124, "velocity": 85}, {"time": 51245, "pitch": 51, "duration": 91, "velocity": 107}, {"time": 51603, "pitch": 54, "duration": 124, "velocity": 105}, {"time": 51727, "pitch": 55, "duration": 116, "velocity": 98}, {"time": 51843, "pitch": 54, "duration": 125, "velocity": 85}, {"time": 51968, "pitch": 51, "duration": 90, "velocity": 107}, {"time": 52325, "pitch": 37, "duration": 235, "velocity": 113}, {"time": 52560, "pitch": 39, "duration": 69, "velocity": 102}, {"time": 52796, "pitch": 54, "duration": 124, "velocity": 105}, {"time": 52920, "pitch": 55, "duration": 117, "velocity": 98}, {"time": 53037, "pitch": 54, "duration": 124, "velocity": 85}, {"time": 53161, "pitch": 51, "duration": 91, "velocity": 107}, {"time": 53518, "pitch": 54, "duration": 125, "velocity": 105}, {"time": 53643, "pitch": 55, "duration": 116, "velocity": 98}, {"time": 53759, "pitch": 54, "duration": 125, "velocity": 85}, {"time": 53884, "pitch": 51, "duration": 90, "velocity": 107}, {"time": 58565, "pitch": 54, "duration": 121, "velocity": 105}, {"time": 58686, "pitch": 55, "duration": 114, "velocity": 98}, {"time": 58800, "pitch": 54, "duration": 122, "velocity": 85}, {"time": 58922, "pitch": 51, "duration": 88, "velocity": 107}, {"time": 59277, "pitch": 54, "duration": 124, "velocity": 105}, {"time": 59401, "pitch": 55, "duration": 116, "velocity": 98}, {"time": 59517, "pitch": 54, "duration": 125, "velocity": 85}, {"time": 59642, "pitch": 51, "duration": 90, "velocity": 107}, {"time": 59999, "pitch": 37, "duration": 241, "velocity": 113}, {"time": 60240, "pitch": 39, "duration": 70, "velocity": 102}, {"time": 60481, "pitch": 54, "duration": 124, "velocity": 105}, {"time": 60605, "pitch": 55, "duration": 116, "velocity": 98}, {"time": 60721, "pitch": 54, "duration": 125, "velocity": 85}, {"time": 60846, "pitch": 51, "duration": 90, "velocity": 107}, {"time": 61203, "pitch": 54, "duration": 124, "velocity": 105}, {"time": 61327, "pitch": 55, "duration": 117, "velocity": 98}, {"time": 61444, "pitch": 54, "duration": 121, "velocity": 85}, {"time": 61565, "pitch": 51, "duration": 89, "velocity": 107}, {"time": 66239, "pitch": 54, "duration": 124, "velocity": 105}, {"time": 66363, "pitch": 55, "duration": 116, "velocity": 98}, {"time": 66479, "pitch": 54, "duration": 125, "velocity": 85}, {"time": 66604, "pitch": 51, "duration": 90, "velocity": 107}, {"time": 66961, "pitch": 54, "duration": 124, "velocity": 105}, {"time": 67085, "pitch": 55, "duration": 117, "velocity": 98}, {"time": 67202, "pitch": 54, "duration": 124, "velocity": 85}, {"time": 67326, "pitch": 51, "duration": 91, "velocity": 107}, {"time": 67683, "pitch": 37, "duration": 241, "velocity": 113}, {"time": 67924, "pitch": 39, "duration": 70, "velocity": 102}, {"time": 68165, "pitch": 54, "duration": 122, "velocity": 105}, {"time": 68287, "pitch": 55, "duration": 114, "velocity": 98}, {"time": 68401, "pitch": 54, "duration": 121, "velocity": 85}, {"time": 68522, "pitch": 51, "duration": 89, "velocity": 107}, {"time": 68877, "pitch": 54, "duration": 124, "velocity": 105}, {"time": 69001, "pitch": 55, "duration": 117, "velocity": 98}, {"time": 69118, "pitch": 54, "duration": 124, "velocity": 85}, {"time": 69242, "pitch": 51, "duration": 90, "velocity": 107}, {"time": 96956, "pitch": 54, "duration": 124, "velocity": 105}, {"time": 97080, "pitch": 55, "duration": 117, "velocity": 98}, {"time": 97197, "pitch": 54, "duration": 124, "velocity": 85}, {"time": 97321, "pitch": 51, "duration": 90, "velocity": 107}, {"time": 97678, "pitch": 54, "duration": 125, "velocity": 105}, {"time": 97803, "pitch": 55, "duration": 116, "velocity": 98}, {"time": 97919, "pitch": 54, "duration": 124, "velocity": 85}, {"time": 98043, "pitch": 51, "duration": 91, "velocity": 107}, {"time": 98401, "pitch": 37, "duration": 240, "velocity": 113}, {"time": 98641, "pitch": 39, "duration": 71, "velocity": 102}, {"time": 98882, "pitch": 54, "duration": 125, "velocity": 105}, {"time": 99007, "pitch": 55, "duration": 116, "velocity": 98}, {"time": 99123, "pitch": 54, "duration": 124, "velocity": 85}, {"time": 99247, "pitch": 51, "duration": 91, "velocity": 107}, {"time": 99599, "pitch": 54, "duration": 122, "velocity": 105}, {"time": 99721, "pitch": 55, "duration": 114, "velocity": 98}, {"time": 99835, "pitch": 54, "duration": 124, "velocity": 85}, {"time": 99959, "pitch": 51, "duration": 91, "velocity": 107}, {"time": 100798, "pitch": 54, "duration": 124, "velocity": 105}, {"time": 100922, "pitch": 55, "duration": 117, "velocity": 98}, {"time": 101039, "pitch": 54, "duration": 124, "velocity": 85}, {"time": 101163, "pitch": 51, "duration": 91, "velocity": 107}, {"time": 101520, "pitch": 54, "duration": 125, "velocity": 105}, {"time": 101645, "pitch": 55, "duration": 116, "velocity": 98}, {"time": 101761, "pitch": 54, "duration": 125, "velocity": 85}, {"time": 101886, "pitch": 51, "duration": 90, "velocity": 107}, {"time": 102243, "pitch": 37, "duration": 241, "velocity": 113}, {"time": 102484, "pitch": 39, "duration": 70, "velocity": 102}, {"time": 102724, "pitch": 54, "duration": 122, "velocity": 105}, {"time": 102846, "pitch": 55, "duration": 114, "velocity": 98}, {"time": 102960, "pitch": 54, "duration": 122, "velocity": 85}, {"time": 103082, "pitch": 51, "duration": 88, "velocity": 107}, {"time": 103436, "pitch": 54, "duration": 125, "velocity": 105}, {"time": 103561, "pitch": 55, "duration": 116, "velocity": 98}, {"time": 103677, "pitch": 54, "duration": 125, "velocity": 85}, {"time": 103802, "pitch": 51, "duration": 90, "velocity": 107}, {"time": 104640, "pitch": 54, "duration": 125, "velocity": 105}, {"time": 104765, "pitch": 55, "duration": 116, "velocity": 98}, {"time": 104881, "pitch": 54, "duration": 124, "velocity": 85}, {"time": 105005, "pitch": 51, "duration": 91, "velocity": 107}, {"time": 105363, "pitch": 54, "duration": 124, "velocity": 105}, {"time": 105487, "pitch": 55, "duration": 116, "velocity": 98}, {"time": 105603, "pitch": 54, "duration": 125, "velocity": 85}, {"time": 105728, "pitch": 51, "duration": 90, "velocity": 107}, {"time": 106085, "pitch": 37, "duration": 236, "velocity": 113}, {"time": 106321, "pitch": 39, "duration": 68, "velocity": 102}, {"time": 106556, "pitch": 54, "duration": 125, "velocity": 105}, {"time": 106681, "pitch": 55, "duration": 116, "velocity": 98}, {"time": 106797, "pitch": 54, "duration": 124, "velocity": 85}, {"time": 106921, "pitch": 51, "duration": 91, "velocity": 107}, {"time": 107279, "pitch": 54, "duration": 124, "velocity": 105}, {"time": 107403, "pitch": 55, "duration": 116, "velocity": 98}, {"time": 107519, "pitch": 54, "duration": 125, "velocity": 85}, {"time": 107644, "pitch": 51, "duration": 90, "velocity": 107}, {"time": 108483, "pitch": 54, "duration": 124, "velocity": 105}, {"time": 108607, "pitch": 55, "duration": 116, "velocity": 98}, {"time": 108723, "pitch": 54, "duration": 125, "velocity": 85}, {"time": 108848, "pitch": 51, "duration": 90, "velocity": 107}, {"time": 109200, "pitch": 54, "duration": 121, "velocity": 105}, {"time": 109321, "pitch": 55, "duration": 114, "velocity": 98}, {"time": 109435, "pitch": 54, "duration": 125, "velocity": 85}, {"time": 109560, "pitch": 51, "duration": 90, "velocity": 107}, {"time": 109917, "pitch": 37, "duration": 241, "velocity": 113}, {"time": 110158, "pitch": 39, "duration": 70, "velocity": 102}, {"time": 110398, "pitch": 54, "duration": 125, "velocity": 105}, {"time": 110523, "pitch": 55, "duration": 116, "velocity": 98}, {"time": 110639, "pitch": 54, "duration": 125, "velocity": 85}, {"time": 110764, "pitch": 51, "duration": 90, "velocity": 107}, {"time": 111121, "pitch": 54, "duration": 124, "velocity": 105}, {"time": 111245, "pitch": 55, "duration": 117, "velocity": 98}, {"time": 111362, "pitch": 54, "duration": 124, "velocity": 85}, {"time": 111486, "pitch": 51, "duration": 90, "velocity": 107}, {"time": 112325, "pitch": 54, "duration": 121, "velocity": 105}, {"time": 112446, "pitch": 55, "duration": 114, "velocity": 98}, {"time": 112560, "pitch": 54, "duration": 122, "velocity": 85}, {"time": 112682, "pitch": 51, "duration": 88, "velocity": 107}, {"time": 113037, "pitch": 54, "duration": 124, "velocity": 105}, {"time": 113161, "pitch": 55, "duration": 116, "velocity": 98}, {"time": 113277, "pitch": 54, "duration": 125, "velocity": 85}, {"time": 113402, "pitch": 51, "duration": 90, "velocity": 107}, {"time": 113759, "pitch": 37, "duration": 241, "velocity": 113}, {"time": 114000, "pitch": 39, "duration": 70, "velocity": 102}, {"time": 114241, "pitch": 54, "duration": 124, "velocity": 105}, {"time": 114365, "pitch": 55, "duration": 116, "velocity": 98}, {"time": 114481, "pitch": 54, "duration": 125, "velocity": 85}, {"time": 114606, "pitch": 51, "duration": 90, "velocity": 107}, {"time": 114963, "pitch": 54, "duration": 124, "velocity": 105}, {"time": 115087, "pitch": 55, "duration": 117, "velocity": 98}, {"time": 115204, "pitch": 54, "duration": 122, "velocity": 85}, {"time": 115326, "pitch": 51, "duration": 88, "velocity": 107}, {"time": 119999, "pitch": 54, "duration": 124, "velocity": 105}, {"time": 120123, "pitch": 55, "duration": 117, "velocity": 98}, {"time": 120240, "pitch": 54, "duration": 124, "velocity": 85}, {"time": 120364, "pitch": 51, "duration": 90, "velocity": 107}, {"time": 120721, "pitch": 54, "duration": 125, "velocity": 105}, {"time": 120846, "pitch": 55, "duration": 116, "velocity": 98}, {"time": 120962, "pitch": 54, "duration": 124, "velocity": 85}, {"time": 121086, "pitch": 51, "duration": 91, "velocity": 107}, {"time": 121444, "pitch": 37, "duration": 240, "velocity": 113}, {"time": 121684, "pitch": 39, "duration": 71, "velocity": 102}, {"time": 121925, "pitch": 54, "duration": 122, "velocity": 105}, {"time": 122047, "pitch": 55, "duration": 114, "velocity": 98}, {"time": 122161, "pitch": 54, "duration": 121, "velocity": 85}, {"time": 122282, "pitch": 51, "duration": 89, "velocity": 107}, {"time": 122637, "pitch": 54, "duration": 125, "velocity": 105}, {"time": 122762, "pitch": 55, "duration": 116, "velocity": 98}, {"time": 122878, "pitch": 54, "duration": 124, "velocity": 85}, {"time": 123002, "pitch": 51, "duration": 91, "velocity": 107}, {"time": 127683, "pitch": 54, "duration": 125, "velocity": 105}, {"time": 127808, "pitch": 55, "duration": 116, "velocity": 98}, {"time": 127924, "pitch": 54, "duration": 125, "velocity": 85}, {"time": 128049, "pitch": 51, "duration": 90, "velocity": 107}, {"time": 128400, "pitch": 54, "duration": 122, "velocity": 105}, {"time": 128522, "pitch": 55, "duration": 114, "velocity": 98}, {"time": 128636, "pitch": 54, "duration": 124, "velocity": 85}, {"time": 128760, "pitch": 51, "duration": 91, "velocity": 107}, {"time": 129118, "pitch": 37, "duration": 240, "velocity": 113}, {"time": 129358, "pitch": 39, "duration": 71, "velocity": 102}, {"time": 129599, "pitch": 54, "duration": 125, "velocity": 105}, {"time": 129724, "pitch": 55, "duration": 116, "velocity": 98}, {"time": 129840, "pitch": 54, "duration": 124, "velocity": 85}, {"time": 129964, "pitch": 51, "duration": 91, "velocity": 107}, {"time": 130322, "pitch": 54, "duration": 124, "velocity": 105}, {"time": 130446, "pitch": 55, "duration": 116, "velocity": 98}, {"time": 130562, "pitch": 54, "duration": 125, "velocity": 85}, {"time": 130687, "pitch": 51, "duration": 90, "velocity": 107}, {"time": 177601, "pitch": 54, "duration": 125, "velocity": 105}, {"time": 177726, "pitch": 55, "duration": 116, "velocity": 98}, {"time": 177842, "pitch": 54, "duration": 124, "velocity": 85}, {"time": 177966, "pitch": 51, "duration": 91, "velocity": 107}, {"time": 178324, "pitch": 54, "duration": 124, "velocity": 105}, {"time": 178448, "pitch": 55, "duration": 116, "velocity": 98}, {"time": 178564, "pitch": 54, "duration": 122, "velocity": 85}, {"time": 178686, "pitch": 51, "duration": 88, "velocity": 107}, {"time": 179036, "pitch": 37, "duration": 240, "velocity": 113}, {"time": 179276, "pitch": 39, "duration": 71, "velocity": 102}, {"time": 179517, "pitch": 54, "duration": 125, "velocity": 105}, {"time": 179642, "pitch": 55, "duration": 116, "velocity": 98}, {"time": 179758, "pitch": 54, "duration": 124, "velocity": 85}, {"time": 179882, "pitch": 51, "duration": 91, "velocity": 107}, {"time": 180239, "pitch": 54, "duration": 125, "velocity": 105}, {"time": 180364, "pitch": 55, "duration": 116, "velocity": 98}, {"time": 180480, "pitch": 54, "duration": 125, "velocity": 85}, {"time": 180605, "pitch": 51, "duration": 90, "velocity": 107}, {"time": 216003, "pitch": 54, "duration": 124, "velocity": 105}, {"time": 216127, "pitch": 55, "duration": 117, "velocity": 98}, {"time": 216244, "pitch": 54, "duration": 124, "velocity": 85}, {"time": 216368, "pitch": 51, "duration": 90, "velocity": 107}, {"time": 216720, "pitch": 54, "duration": 122, "velocity": 105}, {"time": 216842, "pitch": 55, "duration": 114, "velocity": 98}, {"time": 216956, "pitch": 54, "duration": 124, "velocity": 85}, {"time": 217080, "pitch": 51, "duration": 90, "velocity": 107}, {"time": 217437, "pitch": 37, "duration": 241, "velocity": 113}, {"time": 217678, "pitch": 39, "duration": 70, "velocity": 102}, {"time": 217919, "pitch": 54, "duration": 124, "velocity": 105}, {"time": 218043, "pitch": 55, "duration": 116, "velocity": 98}, {"time": 218159, "pitch": 54, "duration": 125, "velocity": 85}, {"time": 218284, "pitch": 51, "duration": 90, "velocity": 107}, {"time": 218641, "pitch": 54, "duration": 124, "velocity": 105}, {"time": 218765, "pitch": 55, "duration": 117, "velocity": 98}, {"time": 218882, "pitch": 54, "duration": 124, "velocity": 85}, {"time": 219006, "pitch": 51, "duration": 91, "velocity": 107}, {"time": 219845, "pitch": 54, "duration": 122, "velocity": 105}, {"time": 219967, "pitch": 55, "duration": 114, "velocity": 98}, {"time": 220081, "pitch": 54, "duration": 121, "velocity": 85}, {"time": 220202, "pitch": 51, "duration": 89, "velocity": 107}, {"time": 220557, "pitch": 54, "duration": 124, "velocity": 105}, {"time": 220681, "pitch": 55, "duration": 117, "velocity": 98}, {"time": 220798, "pitch": 54, "duration": 124, "velocity": 85}, {"time": 220922, "pitch": 51, "duration": 90, "velocity": 107}, {"time": 221279, "pitch": 37, "duration": 241, "velocity": 113}, {"time": 221520, "pitch": 39, "duration": 70, "velocity": 102}, {"time": 221761, "pitch": 54, "duration": 124, "velocity": 105}, {"time": 221885, "pitch": 55, "duration": 117, "velocity": 98}, {"time": 222002, "pitch": 54, "duration": 124, "velocity": 85}, {"time": 222126, "pitch": 51, "duration": 90, "velocity": 107}, {"time": 222483, "pitch": 54, "duration": 125, "velocity": 105}, {"time": 222608, "pitch": 55, "duration": 116, "velocity": 98}, {"time": 222724, "pitch": 54, "duration": 122, "velocity": 85}, {"time": 222846, "pitch": 51, "duration": 88, "velocity": 107}, {"time": 223677, "pitch": 54, "duration": 124, "velocity": 105}, {"time": 223801, "pitch": 55, "duration": 117, "velocity": 98}, {"time": 223918, "pitch": 54, "duration": 124, "velocity": 85}, {"time": 224042, "pitch": 51, "duration": 90, "velocity": 107}, {"time": 224399, "pitch": 54, "duration": 125, "velocity": 105}, {"time": 224524, "pitch": 55, "duration": 116, "velocity": 98}, {"time": 224640, "pitch": 54, "duration": 124, "velocity": 85}, {"time": 224764, "pitch": 51, "duration": 91, "velocity": 107}, {"time": 225122, "pitch": 37, "duration": 240, "velocity": 113}, {"time": 225362, "pitch": 39, "duration": 71, "velocity": 102}, {"time": 225603, "pitch": 54, "duration": 125, "velocity": 105}, {"time": 225728, "pitch": 55, "duration": 116, "velocity": 98}, {"time": 225844, "pitch": 54, "duration": 124, "velocity": 85}, {"time": 225968, "pitch": 51, "duration": 91, "velocity": 107}, {"time": 226320, "pitch": 54, "duration": 122, "velocity": 105}, {"time": 226442, "pitch": 55, "duration": 114, "velocity": 98}, {"time": 226556, "pitch": 54, "duration": 124, "velocity": 85}, {"time": 226680, "pitch": 51, "duration": 91, "velocity": 107}, {"time": 227519, "pitch": 54, "duration": 124, "velocity": 105}, {"time": 227643, "pitch": 55, "duration": 117, "velocity": 98}, {"time": 227760, "pitch": 54, "duration": 124, "velocity": 85}, {"time": 227884, "pitch": 51, "duration": 91, "velocity": 107}, {"time": 228241, "pitch": 54, "duration": 125, "velocity": 105}, {"time": 228366, "pitch": 55, "duration": 116, "velocity": 98}, {"time": 228482, "pitch": 54, "duration": 125, "velocity": 85}, {"time": 228607, "pitch": 51, "duration": 90, "velocity": 107}, {"time": 228964, "pitch": 37, "duration": 235, "velocity": 113}, {"time": 229199, "pitch": 39, "duration": 69, "velocity": 102}, {"time": 229435, "pitch": 54, "duration": 124, "velocity": 105}, {"time": 229559, "pitch": 55, "duration": 117, "velocity": 98}, {"time": 229676, "pitch": 54, "duration": 124, "velocity": 85}, {"time": 229800, "pitch": 51, "duration": 90, "velocity": 107}, {"time": 230157, "pitch": 54, "duration": 125, "velocity": 105}, {"time": 230282, "pitch": 55, "duration": 116, "velocity": 98}, {"time": 230398, "pitch": 54, "duration": 125, "velocity": 85}, {"time": 230523, "pitch": 51, "duration": 90, "velocity": 107}, {"time": 231361, "pitch": 54, "duration": 125, "velocity": 105}, {"time": 231486, "pitch": 55, "duration": 116, "velocity": 98}, {"time": 231602, "pitch": 54, "duration": 125, "velocity": 85}, {"time": 231727, "pitch": 51, "duration": 90, "velocity": 107}, {"time": 232084, "pitch": 54, "duration": 124, "velocity": 105}, {"time": 232208, "pitch": 55, "duration": 116, "velocity": 98}, {"time": 232324, "pitch": 54, "duration": 122, "velocity": 85}, {"time": 232446, "pitch": 51, "duration": 89, "velocity": 107}, {"time": 232796, "pitch": 37, "duration": 240, "velocity": 113}, {"time": 233036, "pitch": 39, "duration": 71, "velocity": 102}, {"time": 233277, "pitch": 54, "duration": 125, "velocity": 105}, {"time": 233402, "pitch": 55, "duration": 116, "velocity": 98}, {"time": 233518, "pitch": 54, "duration": 124, "velocity": 85}, {"time": 233642, "pitch": 51, "duration": 91, "velocity": 107}, {"time": 234000, "pitch": 54, "duration": 124, "velocity": 105}, {"time": 234124, "pitch": 55, "duration": 116, "velocity": 98}, {"time": 234240, "pitch": 54, "duration": 125, "velocity": 85}, {"time": 234365, "pitch": 51, "duration": 90, "velocity": 107}, {"time": 235204, "pitch": 54, "duration": 124, "velocity": 105}, {"time": 235328, "pitch": 55, "duration": 116, "velocity": 98}, {"time": 235444, "pitch": 54, "duration": 125, "velocity": 85}, {"time": 235569, "pitch": 51, "duration": 90, "velocity": 107}, {"time": 235921, "pitch": 54, "duration": 121, "velocity": 105}, {"time": 236042, "pitch": 55, "duration": 114, "velocity": 98}, {"time": 236156, "pitch": 54, "duration": 125, "velocity": 85}, {"time": 236281, "pitch": 51, "duration": 90, "velocity": 107}, {"time": 236638, "pitch": 37, "duration": 241, "velocity": 113}, {"time": 236879, "pitch": 39, "duration": 70, "velocity": 102}, {"time": 237119, "pitch": 54, "duration": 125, "velocity": 105}, {"time": 237244, "pitch": 55, "duration": 116, "velocity": 98}, {"time": 237360, "pitch": 54, "duration": 125, "velocity": 85}, {"time": 237485, "pitch": 51, "duration": 90, "velocity": 107}, {"time": 237842, "pitch": 54, "duration": 124, "velocity": 105}, {"time": 237966, "pitch": 55, "duration": 117, "velocity": 98}, {"time": 238083, "pitch": 54, "duration": 124, "velocity": 85}, {"time": 238207, "pitch": 51, "duration": 90, "velocity": 107}, {"time": 239035, "pitch": 54, "duration": 125, "velocity": 105}, {"time": 239160, "pitch": 55, "duration": 116, "velocity": 98}, {"time": 239276, "pitch": 54, "duration": 125, "velocity": 85}, {"time": 239401, "pitch": 51, "duration": 90, "velocity": 107}, {"time": 239758, "pitch": 54, "duration": 124, "velocity": 105}, {"time": 239882, "pitch": 55, "duration": 117, "velocity": 98}, {"time": 239999, "pitch": 54, "duration": 124, "velocity": 85}, {"time": 240123, "pitch": 51, "duration": 90, "velocity": 107}, {"time": 240480, "pitch": 37, "duration": 241, "velocity": 113}, {"time": 240721, "pitch": 39, "duration": 70, "velocity": 102}, {"time": 240962, "pitch": 54, "duration": 124, "velocity": 105}, {"time": 241086, "pitch": 55, "duration": 117, "velocity": 98}, {"time": 241203, "pitch": 54, "duration": 124, "velocity": 85}, {"time": 241327, "pitch": 51, "duration": 90, "velocity": 107}, {"time": 241684, "pitch": 54, "duration": 125, "velocity": 105}, {"time": 241809, "pitch": 55, "duration": 116, "velocity": 98}, {"time": 241925, "pitch": 54, "duration": 122, "velocity": 85}, {"time": 242047, "pitch": 51, "duration": 88, "velocity": 107}, {"time": 242878, "pitch": 54, "duration": 124, "velocity": 105}, {"time": 243002, "pitch": 55, "duration": 116, "velocity": 98}, {"time": 243118, "pitch": 54, "duration": 125, "velocity": 85}, {"time": 243243, "pitch": 51, "duration": 90, "velocity": 107}, {"time": 243600, "pitch": 54, "duration": 124, "velocity": 105}, {"time": 243724, "pitch": 55, "duration": 117, "velocity": 98}, {"time": 243841, "pitch": 54, "duration": 124, "velocity": 85}, {"time": 243965, "pitch": 51, "duration": 91, "velocity": 107}, {"time": 244322, "pitch": 37, "duration": 241, "velocity": 113}, {"time": 244563, "pitch": 39, "duration": 70, "velocity": 102}, {"time": 244804, "pitch": 54, "duration": 124, "velocity": 105}, {"time": 244928, "pitch": 55, "duration": 117, "velocity": 98}, {"time": 245045, "pitch": 54, "duration": 124, "velocity": 85}, {"time": 245169, "pitch": 51, "duration": 90, "velocity": 107}, {"time": 245526, "pitch": 54, "duration": 125, "velocity": 105}, {"time": 245651, "pitch": 55, "duration": 116, "velocity": 98}, {"time": 245767, "pitch": 54, "duration": 125, "velocity": 85}, {"time": 245892, "pitch": 51, "duration": 90, "velocity": 107}, {"time": 1444, "pitch": 84, "duration": 108, "velocity": 125}, {"time": 1915, "pitch": 87, "duration": 80, "velocity": 127}, {"time": 2397, "pitch": 96, "duration": 110, "velocity": 96}, {"time": 2878, "pitch": 94, "duration": 80, "velocity": 116}, {"time": 3601, "pitch": 91, "duration": 60, "velocity": 127}, {"time": 5276, "pitch": 84, "duration": 100, "velocity": 127}, {"time": 5757, "pitch": 87, "duration": 91, "velocity": 125}, {"time": 6239, "pitch": 96, "duration": 110, "velocity": 103}, {"time": 6480, "pitch": 94, "duration": 60, "velocity": 120}, {"time": 9118, "pitch": 84, "duration": 90, "velocity": 127}, {"time": 9599, "pitch": 87, "duration": 81, "velocity": 127}, {"time": 10081, "pitch": 96, "duration": 100, "velocity": 109}, {"time": 10563, "pitch": 94, "duration": 70, "velocity": 120}, {"time": 11280, "pitch": 91, "duration": 59, "velocity": 127}, {"time": 12960, "pitch": 84, "duration": 90, "velocity": 125}, {"time": 13442, "pitch": 87, "duration": 90, "velocity": 123}, {"time": 13923, "pitch": 96, "duration": 91, "velocity": 107}, {"time": 14164, "pitch": 94, "duration": 60, "velocity": 118}, {"time": 16562, "pitch": 87, "duration": 80, "velocity": 125}, {"time": 16802, "pitch": 84, "duration": 91, "velocity": 123}, {"time": 17284, "pitch": 91, "duration": 69, "velocity": 123}, {"time": 17520, "pitch": 87, "duration": 78, "velocity": 113}, {"time": 17996, "pitch": 94, "duration": 70, "velocity": 120}, {"time": 78237, "pitch": 84, "duration": 110, "velocity": 125}, {"time": 78718, "pitch": 87, "duration": 80, "velocity": 127}, {"time": 79200, "pitch": 96, "duration": 110, "velocity": 96}, {"time": 79681, "pitch": 94, "duration": 81, "velocity": 116}, {"time": 80404, "pitch": 91, "duration": 60, "velocity": 127}, {"time": 82079, "pitch": 84, "duration": 100, "velocity": 127}, {"time": 82560, "pitch": 87, "duration": 91, "velocity": 125}, {"time": 83042, "pitch": 96, "duration": 110, "velocity": 103}, {"time": 83283, "pitch": 94, "duration": 60, "velocity": 120}, {"time": 85921, "pitch": 84, "duration": 90, "velocity": 127}, {"time": 86403, "pitch": 87, "duration": 80, "velocity": 127}, {"time": 86884, "pitch": 96, "duration": 98, "velocity": 109}, {"time": 87355, "pitch": 94, "duration": 71, "velocity": 120}, {"time": 88078, "pitch": 91, "duration": 60, "velocity": 127}, {"time": 89763, "pitch": 84, "duration": 91, "velocity": 125}, {"time": 90245, "pitch": 87, "duration": 88, "velocity": 123}, {"time": 90716, "pitch": 96, "duration": 90, "velocity": 107}, {"time": 90957, "pitch": 94, "duration": 60, "velocity": 118}, {"time": 93360, "pitch": 87, "duration": 78, "velocity": 125}, {"time": 93595, "pitch": 84, "duration": 90, "velocity": 123}, {"time": 94077, "pitch": 91, "duration": 70, "velocity": 123}, {"time": 94317, "pitch": 87, "duration": 81, "velocity": 113}, {"time": 94799, "pitch": 94, "duration": 70, "velocity": 120}, {"time": 139681, "pitch": 84, "duration": 111, "velocity": 125}, {"time": 140163, "pitch": 87, "duration": 80, "velocity": 127}, {"time": 140644, "pitch": 96, "duration": 108, "velocity": 96}, {"time": 141116, "pitch": 94, "duration": 80, "velocity": 116}, {"time": 141838, "pitch": 91, "duration": 60, "velocity": 127}, {"time": 143523, "pitch": 84, "duration": 101, "velocity": 127}, {"time": 144005, "pitch": 87, "duration": 88, "velocity": 125}, {"time": 144476, "pitch": 96, "duration": 111, "velocity": 103}, {"time": 144717, "pitch": 94, "duration": 60, "velocity": 120}, {"time": 147355, "pitch": 84, "duration": 91, "velocity": 127}, {"time": 147837, "pitch": 87, "duration": 80, "velocity": 127}, {"time": 148318, "pitch": 96, "duration": 101, "velocity": 109}, {"time": 148800, "pitch": 94, "duration": 70, "velocity": 120}, {"time": 149522, "pitch": 91, "duration": 61, "velocity": 127}, {"time": 151197, "pitch": 84, "duration": 91, "velocity": 125}, {"time": 151679, "pitch": 87, "duration": 90, "velocity": 123}, {"time": 152161, "pitch": 96, "duration": 90, "velocity": 107}, {"time": 152401, "pitch": 94, "duration": 61, "velocity": 118}, {"time": 154799, "pitch": 87, "duration": 80, "velocity": 125}, {"time": 155040, "pitch": 84, "duration": 90, "velocity": 123}, {"time": 155521, "pitch": 91, "duration": 71, "velocity": 123}, {"time": 155762, "pitch": 87, "duration": 80, "velocity": 113}, {"time": 156244, "pitch": 94, "duration": 70, "velocity": 120}, {"time": 189599, "pitch": 84, "duration": 110, "velocity": 125}, {"time": 190081, "pitch": 87, "duration": 80, "velocity": 127}, {"time": 190562, "pitch": 96, "duration": 111, "velocity": 96}, {"time": 191044, "pitch": 94, "duration": 78, "velocity": 116}, {"time": 191756, "pitch": 91, "duration": 60, "velocity": 127}, {"time": 193441, "pitch": 84, "duration": 101, "velocity": 127}, {"time": 193923, "pitch": 87, "duration": 90, "velocity": 125}, {"time": 194404, "pitch": 96, "duration": 108, "velocity": 103}, {"time": 194640, "pitch": 94, "duration": 59, "velocity": 120}, {"time": 197284, "pitch": 84, "duration": 90, "velocity": 127}, {"time": 197765, "pitch": 87, "duration": 79, "velocity": 127}, {"time": 198236, "pitch": 96, "duration": 101, "velocity": 109}, {"time": 198718, "pitch": 94, "duration": 70, "velocity": 120}, {"time": 199440, "pitch": 91, "duration": 60, "velocity": 127}, {"time": 201115, "pitch": 84, "duration": 91, "velocity": 125}, {"time": 201597, "pitch": 87, "duration": 90, "velocity": 123}, {"time": 202079, "pitch": 96, "duration": 90, "velocity": 107}, {"time": 202319, "pitch": 94, "duration": 61, "velocity": 118}, {"time": 204717, "pitch": 87, "duration": 80, "velocity": 125}, {"time": 204958, "pitch": 84, "duration": 90, "velocity": 123}, {"time": 205439, "pitch": 91, "duration": 70, "velocity": 123}, {"time": 205680, "pitch": 87, "duration": 80, "velocity": 113}, {"time": 206162, "pitch": 94, "duration": 70, "velocity": 120}, {"time": 208800, "pitch": 84, "duration": 90, "velocity": 125}, {"time": 209281, "pitch": 87, "duration": 91, "velocity": 123}, {"time": 209763, "pitch": 96, "duration": 90, "velocity": 107}, {"time": 210004, "pitch": 94, "duration": 60, "velocity": 118}, {"time": 212401, "pitch": 87, "duration": 81, "velocity": 125}, {"time": 212642, "pitch": 84, "duration": 90, "velocity": 123}, {"time": 213124, "pitch": 91, "duration": 68, "velocity": 123}, {"time": 213359, "pitch": 87, "duration": 79, "velocity": 113}, {"time": 213836, "pitch": 94, "duration": 70, "velocity": 120}, {"time": 39123, "pitch": 66, "duration": 1846, "velocity": 119}, {"time": 39123, "pitch": 70, "duration": 1856, "velocity": 122}, {"time": 39123, "pitch": 73, "duration": 1866, "velocity": 110}, {"time": 41039, "pitch": 68, "duration": 1094, "velocity": 110}, {"time": 41039, "pitch": 72, "duration": 1104, "velocity": 110}, {"time": 41039, "pitch": 75, "duration": 1084, "velocity": 116}, {"time": 42243, "pitch": 68, "duration": 231, "velocity": 119}, {"time": 42243, "pitch": 72, "duration": 301, "velocity": 122}, {"time": 42243, "pitch": 75, "duration": 231, "velocity": 119}, {"time": 42724, "pitch": 68, "duration": 462, "velocity": 116}, {"time": 42724, "pitch": 72, "duration": 452, "velocity": 110}, {"time": 42724, "pitch": 75, "duration": 462, "velocity": 91}, {"time": 54482, "pitch": 66, "duration": 1845, "velocity": 119}, {"time": 54482, "pitch": 70, "duration": 1855, "velocity": 122}, {"time": 54482, "pitch": 73, "duration": 1865, "velocity": 110}, {"time": 56397, "pitch": 68, "duration": 1094, "velocity": 110}, {"time": 56397, "pitch": 72, "duration": 1104, "velocity": 110}, {"time": 56397, "pitch": 75, "duration": 1084, "velocity": 116}, {"time": 57601, "pitch": 68, "duration": 231, "velocity": 119}, {"time": 57601, "pitch": 72, "duration": 301, "velocity": 122}, {"time": 57601, "pitch": 75, "duration": 231, "velocity": 119}, {"time": 58083, "pitch": 68, "duration": 472, "velocity": 116}, {"time": 58083, "pitch": 72, "duration": 462, "velocity": 110}, {"time": 58083, "pitch": 75, "duration": 472, "velocity": 91}, {"time": 58682, "pitch": 70, "duration": 865, "velocity": 113}, {"time": 58682, "pitch": 75, "duration": 875, "velocity": 113}, {"time": 58682, "pitch": 79, "duration": 886, "velocity": 110}, {"time": 62396, "pitch": 68, "duration": 1867, "velocity": 113}, {"time": 62396, "pitch": 72, "duration": 1857, "velocity": 107}, {"time": 62396, "pitch": 75, "duration": 1867, "velocity": 102}, {"time": 64323, "pitch": 66, "duration": 1825, "velocity": 98}, {"time": 64323, "pitch": 70, "duration": 1835, "velocity": 98}, {"time": 64323, "pitch": 73, "duration": 1835, "velocity": 93}, {"time": 66720, "pitch": 73, "duration": 358, "velocity": 122}, {"time": 66720, "pitch": 79, "duration": 358, "velocity": 116}, {"time": 66720, "pitch": 82, "duration": 358, "velocity": 110}, {"time": 67081, "pitch": 73, "duration": 71, "velocity": 78}, {"time": 67081, "pitch": 79, "duration": 81, "velocity": 85}, {"time": 67081, "pitch": 82, "duration": 81, "velocity": 80}, {"time": 68636, "pitch": 73, "duration": 358, "velocity": 122}, {"time": 68636, "pitch": 79, "duration": 358, "velocity": 116}, {"time": 68636, "pitch": 82, "duration": 358, "velocity": 110}, {"time": 68997, "pitch": 73, "duration": 71, "velocity": 78}, {"time": 68997, "pitch": 79, "duration": 81, "velocity": 85}, {"time": 68997, "pitch": 82, "duration": 81, "velocity": 80}, {"time": 70081, "pitch": 68, "duration": 1795, "velocity": 107}, {"time": 70081, "pitch": 72, "duration": 1805, "velocity": 110}, {"time": 70081, "pitch": 75, "duration": 1805, "velocity": 105}, {"time": 71997, "pitch": 66, "duration": 1643, "velocity": 107}, {"time": 71997, "pitch": 70, "duration": 1667, "velocity": 110}, {"time": 71997, "pitch": 73, "duration": 1685, "velocity": 107}, {"time": 73682, "pitch": 72, "duration": 2127, "velocity": 107}, {"time": 73682, "pitch": 75, "duration": 2141, "velocity": 113}, {"time": 73682, "pitch": 80, "duration": 2125, "velocity": 107}, {"time": 75839, "pitch": 68, "duration": 1623, "velocity": 107}, {"time": 75839, "pitch": 72, "duration": 1641, "velocity": 110}, {"time": 75839, "pitch": 75, "duration": 1641, "velocity": 105}, {"time": 75839, "pitch": 87, "duration": 1641, "velocity": 105}, {"time": 77519, "pitch": 72, "duration": 718, "velocity": 127}, {"time": 77519, "pitch": 75, "duration": 728, "velocity": 127}, {"time": 77519, "pitch": 79, "duration": 728, "velocity": 110}, {"time": 85199, "pitch": 72, "duration": 722, "velocity": 127}, {"time": 85199, "pitch": 75, "duration": 732, "velocity": 127}, {"time": 85199, "pitch": 79, "duration": 732, "velocity": 110}, {"time": 92883, "pitch": 72, "duration": 594, "velocity": 127}, {"time": 92883, "pitch": 75, "duration": 594, "velocity": 122}, {"time": 92883, "pitch": 82, "duration": 585, "velocity": 110}, {"time": 94317, "pitch": 72, "duration": 71, "velocity": 127}, {"time": 94317, "pitch": 75, "duration": 61, "velocity": 116}, {"time": 94317, "pitch": 82, "duration": 81, "velocity": 105}, {"time": 94799, "pitch": 72, "duration": 423, "velocity": 127}, {"time": 94799, "pitch": 75, "duration": 413, "velocity": 122}, {"time": 94799, "pitch": 82, "duration": 403, "velocity": 107}, {"time": 115916, "pitch": 66, "duration": 1856, "velocity": 119}, {"time": 115916, "pitch": 70, "duration": 1866, "velocity": 122}, {"time": 115916, "pitch": 73, "duration": 1876, "velocity": 110}, {"time": 117842, "pitch": 68, "duration": 1086, "velocity": 110}, {"time": 117842, "pitch": 72, "duration": 1096, "velocity": 110}, {"time": 117842, "pitch": 75, "duration": 1076, "velocity": 116}, {"time": 119036, "pitch": 68, "duration": 230, "velocity": 119}, {"time": 119036, "pitch": 72, "duration": 301, "velocity": 122}, {"time": 119036, "pitch": 75, "duration": 230, "velocity": 119}, {"time": 119517, "pitch": 68, "duration": 472, "velocity": 116}, {"time": 119517, "pitch": 72, "duration": 462, "velocity": 110}, {"time": 119517, "pitch": 75, "duration": 472, "velocity": 91}, {"time": 120119, "pitch": 70, "duration": 873, "velocity": 113}, {"time": 120119, "pitch": 75, "duration": 883, "velocity": 113}, {"time": 120119, "pitch": 79, "duration": 893, "velocity": 110}, {"time": 123841, "pitch": 68, "duration": 1856, "velocity": 113}, {"time": 123841, "pitch": 72, "duration": 1846, "velocity": 107}, {"time": 123841, "pitch": 75, "duration": 1856, "velocity": 102}, {"time": 125757, "pitch": 66, "duration": 1836, "velocity": 98}, {"time": 125757, "pitch": 70, "duration": 1846, "velocity": 98}, {"time": 125757, "pitch": 73, "duration": 1846, "velocity": 93}, {"time": 128165, "pitch": 73, "duration": 350, "velocity": 122}, {"time": 128165, "pitch": 79, "duration": 350, "velocity": 116}, {"time": 128165, "pitch": 82, "duration": 350, "velocity": 110}, {"time": 128518, "pitch": 73, "duration": 69, "velocity": 78}, {"time": 128518, "pitch": 79, "duration": 79, "velocity": 85}, {"time": 128518, "pitch": 82, "duration": 79, "velocity": 80}, {"time": 130081, "pitch": 73, "duration": 358, "velocity": 122}, {"time": 130081, "pitch": 79, "duration": 358, "velocity": 116}, {"time": 130081, "pitch": 82, "duration": 358, "velocity": 110}, {"time": 130442, "pitch": 73, "duration": 70, "velocity": 78}, {"time": 130442, "pitch": 79, "duration": 80, "velocity": 85}, {"time": 130442, "pitch": 82, "duration": 80, "velocity": 80}, {"time": 131515, "pitch": 68, "duration": 1806, "velocity": 107}, {"time": 131515, "pitch": 72, "duration": 1816, "velocity": 110}, {"time": 131515, "pitch": 75, "duration": 1816, "velocity": 105}, {"time": 133441, "pitch": 66, "duration": 1633, "velocity": 107}, {"time": 133441, "pitch": 70, "duration": 1658, "velocity": 110}, {"time": 133441, "pitch": 73, "duration": 1676, "velocity": 107}, {"time": 135117, "pitch": 72, "duration": 2137, "velocity": 107}, {"time": 135117, "pitch": 75, "duration": 2151, "velocity": 113}, {"time": 135117, "pitch": 80, "duration": 2135, "velocity": 107}, {"time": 137284, "pitch": 68, "duration": 1617, "velocity": 107}, {"time": 137284, "pitch": 72, "duration": 1635, "velocity": 110}, {"time": 137284, "pitch": 75, "duration": 1635, "velocity": 105}, {"time": 137284, "pitch": 87, "duration": 1635, "velocity": 105}, {"time": 138959, "pitch": 72, "duration": 722, "velocity": 127}, {"time": 138959, "pitch": 75, "duration": 732, "velocity": 127}, {"time": 138959, "pitch": 79, "duration": 732, "velocity": 110}, {"time": 146643, "pitch": 72, "duration": 712, "velocity": 127}, {"time": 146643, "pitch": 75, "duration": 722, "velocity": 127}, {"time": 146643, "pitch": 79, "duration": 722, "velocity": 110}, {"time": 154317, "pitch": 72, "duration": 602, "velocity": 127}, {"time": 154317, "pitch": 75, "duration": 602, "velocity": 122}, {"time": 154317, "pitch": 82, "duration": 592, "velocity": 110}, {"time": 155762, "pitch": 72, "duration": 70, "velocity": 127}, {"time": 155762, "pitch": 75, "duration": 60, "velocity": 116}, {"time": 155762, "pitch": 82, "duration": 80, "velocity": 105}, {"time": 156244, "pitch": 72, "duration": 419, "velocity": 127}, {"time": 156244, "pitch": 75, "duration": 409, "velocity": 122}, {"time": 156244, "pitch": 82, "duration": 399, "velocity": 107}, {"time": 173759, "pitch": 68, "duration": 1857, "velocity": 113}, {"time": 173759, "pitch": 72, "duration": 1847, "velocity": 107}, {"time": 173759, "pitch": 75, "duration": 1857, "velocity": 102}, {"time": 175675, "pitch": 66, "duration": 1836, "velocity": 98}, {"time": 175675, "pitch": 70, "duration": 1846, "velocity": 98}, {"time": 175675, "pitch": 73, "duration": 1846, "velocity": 93}, {"time": 178083, "pitch": 73, "duration": 358, "velocity": 122}, {"time": 178083, "pitch": 79, "duration": 358, "velocity": 116}, {"time": 178083, "pitch": 82, "duration": 358, "velocity": 110}, {"time": 178444, "pitch": 73, "duration": 70, "velocity": 78}, {"time": 178444, "pitch": 79, "duration": 80, "velocity": 85}, {"time": 178444, "pitch": 82, "duration": 80, "velocity": 80}, {"time": 179999, "pitch": 73, "duration": 358, "velocity": 122}, {"time": 179999, "pitch": 79, "duration": 358, "velocity": 116}, {"time": 179999, "pitch": 82, "duration": 358, "velocity": 110}, {"time": 180360, "pitch": 73, "duration": 70, "velocity": 78}, {"time": 180360, "pitch": 79, "duration": 80, "velocity": 85}, {"time": 180360, "pitch": 82, "duration": 80, "velocity": 80}, {"time": 181443, "pitch": 68, "duration": 1796, "velocity": 107}, {"time": 181443, "pitch": 72, "duration": 1806, "velocity": 110}, {"time": 181443, "pitch": 75, "duration": 1806, "velocity": 105}, {"time": 183359, "pitch": 66, "duration": 1639, "velocity": 107}, {"time": 183359, "pitch": 70, "duration": 1663, "velocity": 110}, {"time": 183359, "pitch": 73, "duration": 1681, "velocity": 107}, {"time": 185040, "pitch": 72, "duration": 2131, "velocity": 107}, {"time": 185040, "pitch": 75, "duration": 2146, "velocity": 113}, {"time": 185040, "pitch": 80, "duration": 2129, "velocity": 107}, {"time": 187202, "pitch": 68, "duration": 1617, "velocity": 107}, {"time": 187202, "pitch": 72, "duration": 1635, "velocity": 110}, {"time": 187202, "pitch": 75, "duration": 1635, "velocity": 105}, {"time": 187202, "pitch": 87, "duration": 1635, "velocity": 105}, {"time": 188877, "pitch": 72, "duration": 722, "velocity": 127}, {"time": 188877, "pitch": 75, "duration": 732, "velocity": 127}, {"time": 188877, "pitch": 79, "duration": 732, "velocity": 110}, {"time": 196561, "pitch": 72, "duration": 723, "velocity": 127}, {"time": 196561, "pitch": 75, "duration": 733, "velocity": 127}, {"time": 196561, "pitch": 79, "duration": 733, "velocity": 110}, {"time": 204240, "pitch": 72, "duration": 597, "velocity": 127}, {"time": 204240, "pitch": 75, "duration": 597, "velocity": 122}, {"time": 204240, "pitch": 82, "duration": 587, "velocity": 110}, {"time": 205680, "pitch": 72, "duration": 70, "velocity": 127}, {"time": 205680, "pitch": 75, "duration": 60, "velocity": 116}, {"time": 205680, "pitch": 82, "duration": 80, "velocity": 105}, {"time": 206162, "pitch": 72, "duration": 423, "velocity": 127}, {"time": 206162, "pitch": 75, "duration": 413, "velocity": 122}, {"time": 206162, "pitch": 82, "duration": 403, "velocity": 107}, {"time": 39123, "pitch": 66, "duration": 1846, "velocity": 119}, {"time": 39123, "pitch": 70, "duration": 1856, "velocity": 122}, {"time": 39123, "pitch": 73, "duration": 1866, "velocity": 110}, {"time": 41039, "pitch": 68, "duration": 1094, "velocity": 110}, {"time": 41039, "pitch": 72, "duration": 1104, "velocity": 110}, {"time": 41039, "pitch": 75, "duration": 1084, "velocity": 116}, {"time": 42243, "pitch": 68, "duration": 231, "velocity": 119}, {"time": 42243, "pitch": 72, "duration": 301, "velocity": 122}, {"time": 42243, "pitch": 75, "duration": 231, "velocity": 119}, {"time": 42724, "pitch": 68, "duration": 462, "velocity": 116}, {"time": 42724, "pitch": 72, "duration": 452, "velocity": 110}, {"time": 42724, "pitch": 75, "duration": 462, "velocity": 91}, {"time": 54482, "pitch": 66, "duration": 1845, "velocity": 119}, {"time": 54482, "pitch": 70, "duration": 1855, "velocity": 122}, {"time": 54482, "pitch": 73, "duration": 1865, "velocity": 110}, {"time": 56397, "pitch": 68, "duration": 1094, "velocity": 110}, {"time": 56397, "pitch": 72, "duration": 1104, "velocity": 110}, {"time": 56397, "pitch": 75, "duration": 1084, "velocity": 116}, {"time": 57601, "pitch": 68, "duration": 231, "velocity": 119}, {"time": 57601, "pitch": 72, "duration": 301, "velocity": 122}, {"time": 57601, "pitch": 75, "duration": 231, "velocity": 119}, {"time": 58083, "pitch": 68, "duration": 472, "velocity": 116}, {"time": 58083, "pitch": 72, "duration": 462, "velocity": 110}, {"time": 58083, "pitch": 75, "duration": 472, "velocity": 91}, {"time": 58682, "pitch": 70, "duration": 865, "velocity": 113}, {"time": 58682, "pitch": 75, "duration": 875, "velocity": 113}, {"time": 58682, "pitch": 79, "duration": 886, "velocity": 110}, {"time": 62396, "pitch": 68, "duration": 1867, "velocity": 113}, {"time": 62396, "pitch": 72, "duration": 1857, "velocity": 107}, {"time": 62396, "pitch": 75, "duration": 1867, "velocity": 102}, {"time": 64323, "pitch": 66, "duration": 1825, "velocity": 98}, {"time": 64323, "pitch": 70, "duration": 1835, "velocity": 98}, {"time": 64323, "pitch": 73, "duration": 1835, "velocity": 93}, {"time": 66720, "pitch": 73, "duration": 358, "velocity": 122}, {"time": 66720, "pitch": 79, "duration": 358, "velocity": 116}, {"time": 66720, "pitch": 82, "duration": 358, "velocity": 110}, {"time": 67081, "pitch": 73, "duration": 71, "velocity": 78}, {"time": 67081, "pitch": 79, "duration": 81, "velocity": 85}, {"time": 67081, "pitch": 82, "duration": 81, "velocity": 80}, {"time": 68636, "pitch": 73, "duration": 358, "velocity": 122}, {"time": 68636, "pitch": 79, "duration": 358, "velocity": 116}, {"time": 68636, "pitch": 82, "duration": 358, "velocity": 110}, {"time": 68997, "pitch": 73, "duration": 71, "velocity": 78}, {"time": 68997, "pitch": 79, "duration": 81, "velocity": 85}, {"time": 68997, "pitch": 82, "duration": 81, "velocity": 80}, {"time": 70081, "pitch": 68, "duration": 1795, "velocity": 107}, {"time": 70081, "pitch": 72, "duration": 1805, "velocity": 110}, {"time": 70081, "pitch": 75, "duration": 1805, "velocity": 105}, {"time": 71997, "pitch": 66, "duration": 1643, "velocity": 107}, {"time": 71997, "pitch": 70, "duration": 1667, "velocity": 110}, {"time": 71997, "pitch": 73, "duration": 1685, "velocity": 107}, {"time": 73682, "pitch": 72, "duration": 2127, "velocity": 107}, {"time": 73682, "pitch": 75, "duration": 2141, "velocity": 113}, {"time": 73682, "pitch": 80, "duration": 2125, "velocity": 107}, {"time": 75839, "pitch": 68, "duration": 1623, "velocity": 107}, {"time": 75839, "pitch": 72, "duration": 1641, "velocity": 110}, {"time": 75839, "pitch": 75, "duration": 1641, "velocity": 105}, {"time": 75839, "pitch": 87, "duration": 1641, "velocity": 105}, {"time": 77519, "pitch": 72, "duration": 718, "velocity": 127}, {"time": 77519, "pitch": 75, "duration": 728, "velocity": 127}, {"time": 77519, "pitch": 79, "duration": 728, "velocity": 110}, {"time": 85199, "pitch": 72, "duration": 722, "velocity": 127}, {"time": 85199, "pitch": 75, "duration": 732, "velocity": 127}, {"time": 85199, "pitch": 79, "duration": 732, "velocity": 110}, {"time": 92883, "pitch": 72, "duration": 594, "velocity": 127}, {"time": 92883, "pitch": 75, "duration": 594, "velocity": 122}, {"time": 92883, "pitch": 82, "duration": 585, "velocity": 110}, {"time": 94317, "pitch": 72, "duration": 71, "velocity": 127}, {"time": 94317, "pitch": 75, "duration": 61, "velocity": 116}, {"time": 94317, "pitch": 82, "duration": 81, "velocity": 105}, {"time": 94799, "pitch": 72, "duration": 423, "velocity": 127}, {"time": 94799, "pitch": 75, "duration": 413, "velocity": 122}, {"time": 94799, "pitch": 82, "duration": 403, "velocity": 107}, {"time": 115916, "pitch": 66, "duration": 1856, "velocity": 119}, {"time": 115916, "pitch": 70, "duration": 1866, "velocity": 122}, {"time": 115916, "pitch": 73, "duration": 1876, "velocity": 110}, {"time": 117842, "pitch": 68, "duration": 1086, "velocity": 110}, {"time": 117842, "pitch": 72, "duration": 1096, "velocity": 110}, {"time": 117842, "pitch": 75, "duration": 1076, "velocity": 116}, {"time": 119036, "pitch": 68, "duration": 230, "velocity": 119}, {"time": 119036, "pitch": 72, "duration": 301, "velocity": 122}, {"time": 119036, "pitch": 75, "duration": 230, "velocity": 119}, {"time": 119517, "pitch": 68, "duration": 472, "velocity": 116}, {"time": 119517, "pitch": 72, "duration": 462, "velocity": 110}, {"time": 119517, "pitch": 75, "duration": 472, "velocity": 91}, {"time": 120119, "pitch": 70, "duration": 873, "velocity": 113}, {"time": 120119, "pitch": 75, "duration": 883, "velocity": 113}, {"time": 120119, "pitch": 79, "duration": 893, "velocity": 110}, {"time": 123841, "pitch": 68, "duration": 1856, "velocity": 113}, {"time": 123841, "pitch": 72, "duration": 1846, "velocity": 107}, {"time": 123841, "pitch": 75, "duration": 1856, "velocity": 102}, {"time": 125757, "pitch": 66, "duration": 1836, "velocity": 98}, {"time": 125757, "pitch": 70, "duration": 1846, "velocity": 98}, {"time": 125757, "pitch": 73, "duration": 1846, "velocity": 93}, {"time": 128165, "pitch": 73, "duration": 350, "velocity": 122}, {"time": 128165, "pitch": 79, "duration": 350, "velocity": 116}, {"time": 128165, "pitch": 82, "duration": 350, "velocity": 110}, {"time": 128518, "pitch": 73, "duration": 69, "velocity": 78}, {"time": 128518, "pitch": 79, "duration": 79, "velocity": 85}, {"time": 128518, "pitch": 82, "duration": 79, "velocity": 80}, {"time": 130081, "pitch": 73, "duration": 358, "velocity": 122}, {"time": 130081, "pitch": 79, "duration": 358, "velocity": 116}, {"time": 130081, "pitch": 82, "duration": 358, "velocity": 110}, {"time": 130442, "pitch": 73, "duration": 70, "velocity": 78}, {"time": 130442, "pitch": 79, "duration": 80, "velocity": 85}, {"time": 130442, "pitch": 82, "duration": 80, "velocity": 80}, {"time": 131515, "pitch": 68, "duration": 1806, "velocity": 107}, {"time": 131515, "pitch": 72, "duration": 1816, "velocity": 110}, {"time": 131515, "pitch": 75, "duration": 1816, "velocity": 105}, {"time": 133441, "pitch": 66, "duration": 1633, "velocity": 107}, {"time": 133441, "pitch": 70, "duration": 1658, "velocity": 110}, {"time": 133441, "pitch": 73, "duration": 1676, "velocity": 107}, {"time": 135117, "pitch": 72, "duration": 2137, "velocity": 107}, {"time": 135117, "pitch": 75, "duration": 2151, "velocity": 113}, {"time": 135117, "pitch": 80, "duration": 2135, "velocity": 107}, {"time": 137284, "pitch": 68, "duration": 1617, "velocity": 107}, {"time": 137284, "pitch": 72, "duration": 1635, "velocity": 110}, {"time": 137284, "pitch": 75, "duration": 1635, "velocity": 105}, {"time": 137284, "pitch": 87, "duration": 1635, "velocity": 105}, {"time": 138959, "pitch": 72, "duration": 722, "velocity": 127}, {"time": 138959, "pitch": 75, "duration": 732, "velocity": 127}, {"time": 138959, "pitch": 79, "duration": 732, "velocity": 110}, {"time": 146643, "pitch": 72, "duration": 712, "velocity": 127}, {"time": 146643, "pitch": 75, "duration": 722, "velocity": 127}, {"time": 146643, "pitch": 79, "duration": 722, "velocity": 110}, {"time": 154317, "pitch": 72, "duration": 602, "velocity": 127}, {"time": 154317, "pitch": 75, "duration": 602, "velocity": 122}, {"time": 154317, "pitch": 82, "duration": 592, "velocity": 110}, {"time": 155762, "pitch": 72, "duration": 70, "velocity": 127}, {"time": 155762, "pitch": 75, "duration": 60, "velocity": 116}, {"time": 155762, "pitch": 82, "duration": 80, "velocity": 105}, {"time": 156244, "pitch": 72, "duration": 419, "velocity": 127}, {"time": 156244, "pitch": 75, "duration": 409, "velocity": 122}, {"time": 156244, "pitch": 82, "duration": 399, "velocity": 107}, {"time": 173759, "pitch": 68, "duration": 1857, "velocity": 113}, {"time": 173759, "pitch": 72, "duration": 1847, "velocity": 107}, {"time": 173759, "pitch": 75, "duration": 1857, "velocity": 102}, {"time": 175675, "pitch": 66, "duration": 1836, "velocity": 98}, {"time": 175675, "pitch": 70, "duration": 1846, "velocity": 98}, {"time": 175675, "pitch": 73, "duration": 1846, "velocity": 93}, {"time": 178083, "pitch": 73, "duration": 358, "velocity": 122}, {"time": 178083, "pitch": 79, "duration": 358, "velocity": 116}, {"time": 178083, "pitch": 82, "duration": 358, "velocity": 110}, {"time": 178444, "pitch": 73, "duration": 70, "velocity": 78}, {"time": 178444, "pitch": 79, "duration": 80, "velocity": 85}, {"time": 178444, "pitch": 82, "duration": 80, "velocity": 80}, {"time": 179999, "pitch": 73, "duration": 358, "velocity": 122}, {"time": 179999, "pitch": 79, "duration": 358, "velocity": 116}, {"time": 179999, "pitch": 82, "duration": 358, "velocity": 110}, {"time": 180360, "pitch": 73, "duration": 70, "velocity": 78}, {"time": 180360, "pitch": 79, "duration": 80, "velocity": 85}, {"time": 180360, "pitch": 82, "duration": 80, "velocity": 80}, {"time": 181443, "pitch": 68, "duration": 1796, "velocity": 107}, {"time": 181443, "pitch": 72, "duration": 1806, "velocity": 110}, {"time": 181443, "pitch": 75, "duration": 1806, "velocity": 105}, {"time": 183359, "pitch": 66, "duration": 1639, "velocity": 107}, {"time": 183359, "pitch": 70, "duration": 1663, "velocity": 110}, {"time": 183359, "pitch": 73, "duration": 1681, "velocity": 107}, {"time": 185040, "pitch": 72, "duration": 2131, "velocity": 107}, {"time": 185040, "pitch": 75, "duration": 2146, "velocity": 113}, {"time": 185040, "pitch": 80, "duration": 2129, "velocity": 107}, {"time": 187202, "pitch": 68, "duration": 1617, "velocity": 107}, {"time": 187202, "pitch": 72, "duration": 1635, "velocity": 110}, {"time": 187202, "pitch": 75, "duration": 1635, "velocity": 105}, {"time": 187202, "pitch": 87, "duration": 1635, "velocity": 105}, {"time": 188877, "pitch": 72, "duration": 722, "velocity": 127}, {"time": 188877, "pitch": 75, "duration": 732, "velocity": 127}, {"time": 188877, "pitch": 79, "duration": 732, "velocity": 110}, {"time": 196561, "pitch": 72, "duration": 723, "velocity": 127}, {"time": 196561, "pitch": 75, "duration": 733, "velocity": 127}, {"time": 196561, "pitch": 79, "duration": 733, "velocity": 110}, {"time": 204240, "pitch": 72, "duration": 597, "velocity": 127}, {"time": 204240, "pitch": 75, "duration": 597, "velocity": 122}, {"time": 204240, "pitch": 82, "duration": 587, "velocity": 110}, {"time": 205680, "pitch": 72, "duration": 70, "velocity": 127}, {"time": 205680, "pitch": 75, "duration": 60, "velocity": 116}, {"time": 205680, "pitch": 82, "duration": 80, "velocity": 105}, {"time": 206162, "pitch": 72, "duration": 423, "velocity": 127}, {"time": 206162, "pitch": 75, "duration": 413, "velocity": 122}, {"time": 206162, "pitch": 82, "duration": 403, "velocity": 107}, {"time": 677, "pitch": 56, "duration": 1916, "velocity": 106}, {"time": 677, "pitch": 63, "duration": 1916, "velocity": 106}, {"time": 677, "pitch": 67, "duration": 1916, "velocity": 106}, {"time": 677, "pitch": 72, "duration": 1916, "velocity": 106}, {"time": 2593, "pitch": 58, "duration": 1927, "velocity": 106}, {"time": 2593, "pitch": 63, "duration": 1927, "velocity": 106}, {"time": 2593, "pitch": 68, "duration": 1927, "velocity": 106}, {"time": 2593, "pitch": 72, "duration": 1927, "velocity": 106}, {"time": 4520, "pitch": 55, "duration": 1915, "velocity": 106}, {"time": 4520, "pitch": 62, "duration": 1915, "velocity": 106}, {"time": 4520, "pitch": 65, "duration": 1915, "velocity": 106}, {"time": 4520, "pitch": 70, "duration": 1915, "velocity": 106}, {"time": 6435, "pitch": 60, "duration": 1923, "velocity": 106}, {"time": 6435, "pitch": 62, "duration": 1923, "velocity": 106}, {"time": 6435, "pitch": 65, "duration": 1923, "velocity": 106}, {"time": 6435, "pitch": 70, "duration": 1923, "velocity": 106}, {"time": 8358, "pitch": 56, "duration": 1920, "velocity": 106}, {"time": 8358, "pitch": 63, "duration": 1920, "velocity": 106}, {"time": 8358, "pitch": 67, "duration": 1920, "velocity": 106}, {"time": 8358, "pitch": 72, "duration": 1920, "velocity": 106}, {"time": 10278, "pitch": 58, "duration": 1916, "velocity": 106}, {"time": 10278, "pitch": 63, "duration": 1916, "velocity": 106}, {"time": 10278, "pitch": 68, "duration": 1916, "velocity": 106}, {"time": 10278, "pitch": 72, "duration": 1916, "velocity": 106}, {"time": 12194, "pitch": 55, "duration": 1926, "velocity": 106}, {"time": 12194, "pitch": 62, "duration": 1926, "velocity": 106}, {"time": 12194, "pitch": 65, "duration": 1926, "velocity": 106}, {"time": 12194, "pitch": 70, "duration": 1926, "velocity": 106}, {"time": 14120, "pitch": 60, "duration": 1916, "velocity": 106}, {"time": 14120, "pitch": 62, "duration": 1916, "velocity": 106}, {"time": 14120, "pitch": 65, "duration": 1916, "velocity": 106}, {"time": 14120, "pitch": 70, "duration": 1916, "velocity": 106}, {"time": 16080, "pitch": 53, "duration": 2157, "velocity": 106}, {"time": 16080, "pitch": 60, "duration": 2157, "velocity": 106}, {"time": 16080, "pitch": 63, "duration": 2157, "velocity": 106}, {"time": 16080, "pitch": 68, "duration": 2157, "velocity": 106}, {"time": 18678, "pitch": 46, "duration": 1475, "velocity": 106}, {"time": 18678, "pitch": 56, "duration": 1475, "velocity": 106}, {"time": 18678, "pitch": 60, "duration": 1475, "velocity": 106}, {"time": 18678, "pitch": 63, "duration": 1475, "velocity": 106}, {"time": 77476, "pitch": 56, "duration": 1920, "velocity": 106}, {"time": 77476, "pitch": 63, "duration": 1920, "velocity": 106}, {"time": 77476, "pitch": 67, "duration": 1920, "velocity": 106}, {"time": 77476, "pitch": 72, "duration": 1920, "velocity": 106}, {"time": 79396, "pitch": 58, "duration": 1916, "velocity": 106}, {"time": 79396, "pitch": 63, "duration": 1916, "velocity": 106}, {"time": 79396, "pitch": 68, "duration": 1916, "velocity": 106}, {"time": 79396, "pitch": 72, "duration": 1916, "velocity": 106}, {"time": 81312, "pitch": 55, "duration": 1927, "velocity": 106}, {"time": 81312, "pitch": 62, "duration": 1927, "velocity": 106}, {"time": 81312, "pitch": 65, "duration": 1927, "velocity": 106}, {"time": 81312, "pitch": 70, "duration": 1927, "velocity": 106}, {"time": 83239, "pitch": 60, "duration": 1916, "velocity": 106}, {"time": 83239, "pitch": 62, "duration": 1916, "velocity": 106}, {"time": 83239, "pitch": 65, "duration": 1916, "velocity": 106}, {"time": 83239, "pitch": 70, "duration": 1916, "velocity": 106}, {"time": 85155, "pitch": 56, "duration": 1922, "velocity": 106}, {"time": 85155, "pitch": 63, "duration": 1922, "velocity": 106}, {"time": 85155, "pitch": 67, "duration": 1922, "velocity": 106}, {"time": 85155, "pitch": 72, "duration": 1922, "velocity": 106}, {"time": 87077, "pitch": 58, "duration": 1920, "velocity": 106}, {"time": 87077, "pitch": 63, "duration": 1920, "velocity": 106}, {"time": 87077, "pitch": 68, "duration": 1920, "velocity": 106}, {"time": 87077, "pitch": 72, "duration": 1920, "velocity": 106}, {"time": 88997, "pitch": 55, "duration": 1916, "velocity": 106}, {"time": 88997, "pitch": 62, "duration": 1916, "velocity": 106}, {"time": 88997, "pitch": 65, "duration": 1916, "velocity": 106}, {"time": 88997, "pitch": 70, "duration": 1916, "velocity": 106}, {"time": 90913, "pitch": 60, "duration": 1926, "velocity": 106}, {"time": 90913, "pitch": 62, "duration": 1926, "velocity": 106}, {"time": 90913, "pitch": 65, "duration": 1926, "velocity": 106}, {"time": 90913, "pitch": 70, "duration": 1926, "velocity": 106}, {"time": 92883, "pitch": 53, "duration": 2157, "velocity": 106}, {"time": 92883, "pitch": 60, "duration": 2157, "velocity": 106}, {"time": 92883, "pitch": 63, "duration": 2157, "velocity": 106}, {"time": 92883, "pitch": 68, "duration": 2157, "velocity": 106}, {"time": 95481, "pitch": 46, "duration": 1465, "velocity": 106}, {"time": 95481, "pitch": 56, "duration": 1465, "velocity": 106}, {"time": 95481, "pitch": 60, "duration": 1465, "velocity": 106}, {"time": 95481, "pitch": 63, "duration": 1465, "velocity": 106}, {"time": 138915, "pitch": 56, "duration": 1922, "velocity": 106}, {"time": 138915, "pitch": 63, "duration": 1922, "velocity": 106}, {"time": 138915, "pitch": 67, "duration": 1922, "velocity": 106}, {"time": 138915, "pitch": 72, "duration": 1922, "velocity": 106}, {"time": 140837, "pitch": 58, "duration": 1920, "velocity": 106}, {"time": 140837, "pitch": 63, "duration": 1920, "velocity": 106}, {"time": 140837, "pitch": 68, "duration": 1920, "velocity": 106}, {"time": 140837, "pitch": 72, "duration": 1920, "velocity": 106}, {"time": 142757, "pitch": 55, "duration": 1916, "velocity": 106}, {"time": 142757, "pitch": 62, "duration": 1916, "velocity": 106}, {"time": 142757, "pitch": 65, "duration": 1916, "velocity": 106}, {"time": 142757, "pitch": 70, "duration": 1916, "velocity": 106}, {"time": 144673, "pitch": 60, "duration": 1926, "velocity": 106}, {"time": 144673, "pitch": 62, "duration": 1926, "velocity": 106}, {"time": 144673, "pitch": 65, "duration": 1926, "velocity": 106}, {"time": 144673, "pitch": 70, "duration": 1926, "velocity": 106}, {"time": 146599, "pitch": 56, "duration": 1916, "velocity": 106}, {"time": 146599, "pitch": 63, "duration": 1916, "velocity": 106}, {"time": 146599, "pitch": 67, "duration": 1916, "velocity": 106}, {"time": 146599, "pitch": 72, "duration": 1916, "velocity": 106}, {"time": 148515, "pitch": 58, "duration": 1922, "velocity": 106}, {"time": 148515, "pitch": 63, "duration": 1922, "velocity": 106}, {"time": 148515, "pitch": 68, "duration": 1922, "velocity": 106}, {"time": 148515, "pitch": 72, "duration": 1922, "velocity": 106}, {"time": 150437, "pitch": 55, "duration": 1920, "velocity": 106}, {"time": 150437, "pitch": 62, "duration": 1920, "velocity": 106}, {"time": 150437, "pitch": 65, "duration": 1920, "velocity": 106}, {"time": 150437, "pitch": 70, "duration": 1920, "velocity": 106}, {"time": 152357, "pitch": 60, "duration": 1916, "velocity": 106}, {"time": 152357, "pitch": 62, "duration": 1916, "velocity": 106}, {"time": 152357, "pitch": 65, "duration": 1916, "velocity": 106}, {"time": 152357, "pitch": 70, "duration": 1916, "velocity": 106}, {"time": 154317, "pitch": 53, "duration": 2167, "velocity": 106}, {"time": 154317, "pitch": 60, "duration": 2167, "velocity": 106}, {"time": 154317, "pitch": 63, "duration": 2167, "velocity": 106}, {"time": 154317, "pitch": 68, "duration": 2167, "velocity": 106}, {"time": 156916, "pitch": 46, "duration": 1474, "velocity": 106}, {"time": 156916, "pitch": 56, "duration": 1474, "velocity": 106}, {"time": 156916, "pitch": 60, "duration": 1474, "velocity": 106}, {"time": 156916, "pitch": 63, "duration": 1474, "velocity": 106}, {"time": 188833, "pitch": 56, "duration": 1926, "velocity": 106}, {"time": 188833, "pitch": 63, "duration": 1926, "velocity": 106}, {"time": 188833, "pitch": 67, "duration": 1926, "velocity": 106}, {"time": 188833, "pitch": 72, "duration": 1926, "velocity": 106}, {"time": 190759, "pitch": 58, "duration": 1916, "velocity": 106}, {"time": 190759, "pitch": 63, "duration": 1916, "velocity": 106}, {"time": 190759, "pitch": 68, "duration": 1916, "velocity": 106}, {"time": 190759, "pitch": 72, "duration": 1916, "velocity": 106}, {"time": 192675, "pitch": 55, "duration": 1922, "velocity": 106}, {"time": 192675, "pitch": 62, "duration": 1922, "velocity": 106}, {"time": 192675, "pitch": 65, "duration": 1922, "velocity": 106}, {"time": 192675, "pitch": 70, "duration": 1922, "velocity": 106}, {"time": 194597, "pitch": 60, "duration": 1920, "velocity": 106}, {"time": 194597, "pitch": 62, "duration": 1920, "velocity": 106}, {"time": 194597, "pitch": 65, "duration": 1920, "velocity": 106}, {"time": 194597, "pitch": 70, "duration": 1920, "velocity": 106}, {"time": 196517, "pitch": 56, "duration": 1916, "velocity": 106}, {"time": 196517, "pitch": 63, "duration": 1916, "velocity": 106}, {"time": 196517, "pitch": 67, "duration": 1916, "velocity": 106}, {"time": 196517, "pitch": 72, "duration": 1916, "velocity": 106}, {"time": 198433, "pitch": 58, "duration": 1926, "velocity": 106}, {"time": 198433, "pitch": 63, "duration": 1926, "velocity": 106}, {"time": 198433, "pitch": 68, "duration": 1926, "velocity": 106}, {"time": 198433, "pitch": 72, "duration": 1926, "velocity": 106}, {"time": 200359, "pitch": 55, "duration": 1916, "velocity": 106}, {"time": 200359, "pitch": 62, "duration": 1916, "velocity": 106}, {"time": 200359, "pitch": 65, "duration": 1916, "velocity": 106}, {"time": 200359, "pitch": 70, "duration": 1916, "velocity": 106}, {"time": 202275, "pitch": 60, "duration": 1922, "velocity": 106}, {"time": 202275, "pitch": 62, "duration": 1922, "velocity": 106}, {"time": 202275, "pitch": 65, "duration": 1922, "velocity": 106}, {"time": 202275, "pitch": 70, "duration": 1922, "velocity": 106}, {"time": 204240, "pitch": 53, "duration": 2162, "velocity": 106}, {"time": 204240, "pitch": 60, "duration": 2162, "velocity": 106}, {"time": 204240, "pitch": 63, "duration": 2162, "velocity": 106}, {"time": 204240, "pitch": 68, "duration": 2162, "velocity": 106}, {"time": 206844, "pitch": 46, "duration": 1223, "velocity": 106}, {"time": 206844, "pitch": 56, "duration": 1223, "velocity": 106}, {"time": 206844, "pitch": 60, "duration": 1223, "velocity": 106}, {"time": 206844, "pitch": 63, "duration": 1223, "velocity": 106}, {"time": 208033, "pitch": 55, "duration": 1927, "velocity": 106}, {"time": 208033, "pitch": 62, "duration": 1927, "velocity": 106}, {"time": 208033, "pitch": 65, "duration": 1927, "velocity": 106}, {"time": 208033, "pitch": 70, "duration": 1927, "velocity": 106}, {"time": 209960, "pitch": 60, "duration": 1916, "velocity": 106}, {"time": 209960, "pitch": 62, "duration": 1916, "velocity": 106}, {"time": 209960, "pitch": 65, "duration": 1916, "velocity": 106}, {"time": 209960, "pitch": 70, "duration": 1916, "velocity": 106}, {"time": 211920, "pitch": 53, "duration": 2156, "velocity": 106}, {"time": 211920, "pitch": 60, "duration": 2156, "velocity": 106}, {"time": 211920, "pitch": 63, "duration": 2156, "velocity": 106}, {"time": 211920, "pitch": 68, "duration": 2156, "velocity": 106}, {"time": 214518, "pitch": 46, "duration": 1234, "velocity": 106}, {"time": 214518, "pitch": 56, "duration": 1234, "velocity": 106}, {"time": 214518, "pitch": 60, "duration": 1234, "velocity": 106}, {"time": 214518, "pitch": 63, "duration": 1234, "velocity": 106}, {"time": 962, "pitch": 35, "duration": 60, "velocity": 102}, {"time": 962, "pitch": 42, "duration": 70, "velocity": 90}, {"time": 962, "pitch": 69, "duration": 60, "velocity": 97}, {"time": 1203, "pitch": 46, "duration": 70, "velocity": 80}, {"time": 1203, "pitch": 69, "duration": 60, "velocity": 80}, {"time": 1323, "pitch": 69, "duration": 61, "velocity": 80}, {"time": 1444, "pitch": 35, "duration": 59, "velocity": 107}, {"time": 1444, "pitch": 42, "duration": 59, "velocity": 78}, {"time": 1444, "pitch": 69, "duration": 59, "velocity": 82}, {"time": 1679, "pitch": 46, "duration": 59, "velocity": 80}, {"time": 1679, "pitch": 69, "duration": 59, "velocity": 68}, {"time": 1797, "pitch": 69, "duration": 59, "velocity": 57}, {"time": 1915, "pitch": 35, "duration": 60, "velocity": 107}, {"time": 1915, "pitch": 42, "duration": 70, "velocity": 82}, {"time": 1915, "pitch": 69, "duration": 60, "velocity": 82}, {"time": 2156, "pitch": 46, "duration": 70, "velocity": 80}, {"time": 2156, "pitch": 69, "duration": 60, "velocity": 60}, {"time": 2276, "pitch": 69, "duration": 60, "velocity": 73}, {"time": 2397, "pitch": 35, "duration": 60, "velocity": 107}, {"time": 2397, "pitch": 42, "duration": 70, "velocity": 85}, {"time": 2397, "pitch": 69, "duration": 60, "velocity": 82}, {"time": 2637, "pitch": 46, "duration": 71, "velocity": 80}, {"time": 2637, "pitch": 69, "duration": 61, "velocity": 75}, {"time": 2758, "pitch": 69, "duration": 60, "velocity": 64}, {"time": 2878, "pitch": 35, "duration": 60, "velocity": 102}, {"time": 2878, "pitch": 42, "duration": 70, "velocity": 90}, {"time": 2878, "pitch": 69, "duration": 60, "velocity": 97}, {"time": 3119, "pitch": 46, "duration": 70, "velocity": 80}, {"time": 3119, "pitch": 69, "duration": 60, "velocity": 80}, {"time": 3239, "pitch": 69, "duration": 61, "velocity": 80}, {"time": 3360, "pitch": 35, "duration": 60, "velocity": 107}, {"time": 3360, "pitch": 42, "duration": 60, "velocity": 78}, {"time": 3360, "pitch": 69, "duration": 60, "velocity": 82}, {"time": 3601, "pitch": 46, "duration": 60, "velocity": 80}, {"time": 3601, "pitch": 69, "duration": 60, "velocity": 68}, {"time": 3721, "pitch": 69, "duration": 60, "velocity": 57}, {"time": 3841, "pitch": 35, "duration": 61, "velocity": 107}, {"time": 3841, "pitch": 42, "duration": 71, "velocity": 82}, {"time": 3841, "pitch": 69, "duration": 61, "velocity": 82}, {"time": 4082, "pitch": 46, "duration": 70, "velocity": 80}, {"time": 4082, "pitch": 69, "duration": 60, "velocity": 60}, {"time": 4203, "pitch": 69, "duration": 60, "velocity": 73}, {"time": 4323, "pitch": 35, "duration": 60, "velocity": 107}, {"time": 4323, "pitch": 42, "duration": 70, "velocity": 85}, {"time": 4323, "pitch": 69, "duration": 60, "velocity": 82}, {"time": 4564, "pitch": 46, "duration": 70, "velocity": 80}, {"time": 4564, "pitch": 69, "duration": 60, "velocity": 75}, {"time": 4684, "pitch": 69, "duration": 60, "velocity": 64}, {"time": 4804, "pitch": 35, "duration": 59, "velocity": 102}, {"time": 4804, "pitch": 42, "duration": 69, "velocity": 90}, {"time": 4804, "pitch": 69, "duration": 59, "velocity": 97}, {"time": 5040, "pitch": 46, "duration": 69, "velocity": 80}, {"time": 5040, "pitch": 69, "duration": 59, "velocity": 80}, {"time": 5158, "pitch": 69, "duration": 59, "velocity": 80}, {"time": 5276, "pitch": 35, "duration": 60, "velocity": 107}, {"time": 5276, "pitch": 42, "duration": 60, "velocity": 78}, {"time": 5276, "pitch": 69, "duration": 60, "velocity": 82}, {"time": 5516, "pitch": 46, "duration": 61, "velocity": 80}, {"time": 5516, "pitch": 69, "duration": 61, "velocity": 68}, {"time": 5637, "pitch": 69, "duration": 60, "velocity": 57}, {"time": 5757, "pitch": 35, "duration": 60, "velocity": 107}, {"time": 5757, "pitch": 42, "duration": 70, "velocity": 82}, {"time": 5757, "pitch": 69, "duration": 60, "velocity": 82}, {"time": 5998, "pitch": 46, "duration": 70, "velocity": 80}, {"time": 5998, "pitch": 69, "duration": 60, "velocity": 60}, {"time": 6118, "pitch": 69, "duration": 61, "velocity": 73}, {"time": 6239, "pitch": 35, "duration": 60, "velocity": 107}, {"time": 6239, "pitch": 42, "duration": 70, "velocity": 85}, {"time": 6239, "pitch": 69, "duration": 60, "velocity": 82}, {"time": 6480, "pitch": 46, "duration": 70, "velocity": 80}, {"time": 6480, "pitch": 69, "duration": 60, "velocity": 75}, {"time": 6600, "pitch": 69, "duration": 60, "velocity": 64}, {"time": 6720, "pitch": 35, "duration": 61, "velocity": 102}, {"time": 6720, "pitch": 42, "duration": 71, "velocity": 90}, {"time": 6720, "pitch": 69, "duration": 61, "velocity": 97}, {"time": 6961, "pitch": 46, "duration": 70, "velocity": 80}, {"time": 6961, "pitch": 69, "duration": 60, "velocity": 80}, {"time": 7082, "pitch": 69, "duration": 60, "velocity": 80}, {"time": 7202, "pitch": 35, "duration": 60, "velocity": 107}, {"time": 7202, "pitch": 42, "duration": 60, "velocity": 78}, {"time": 7202, "pitch": 69, "duration": 60, "velocity": 82}, {"time": 7443, "pitch": 46, "duration": 60, "velocity": 80}, {"time": 7443, "pitch": 69, "duration": 60, "velocity": 68}, {"time": 7563, "pitch": 69, "duration": 60, "velocity": 57}, {"time": 7684, "pitch": 35, "duration": 60, "velocity": 107}, {"time": 7684, "pitch": 42, "duration": 70, "velocity": 82}, {"time": 7684, "pitch": 69, "duration": 60, "velocity": 82}, {"time": 7924, "pitch": 46, "duration": 71, "velocity": 80}, {"time": 7924, "pitch": 69, "duration": 61, "velocity": 60}, {"time": 8045, "pitch": 69, "duration": 60, "velocity": 73}, {"time": 8165, "pitch": 35, "duration": 59, "velocity": 107}, {"time": 8165, "pitch": 42, "duration": 69, "velocity": 85}, {"time": 8165, "pitch": 69, "duration": 59, "velocity": 82}, {"time": 8401, "pitch": 46, "duration": 68, "velocity": 80}, {"time": 8401, "pitch": 69, "duration": 59, "velocity": 75}, {"time": 8519, "pitch": 69, "duration": 58, "velocity": 64}, {"time": 8636, "pitch": 35, "duration": 61, "velocity": 102}, {"time": 8636, "pitch": 42, "duration": 71, "velocity": 90}, {"time": 8636, "pitch": 69, "duration": 61, "velocity": 97}, {"time": 8877, "pitch": 46, "duration": 70, "velocity": 80}, {"time": 8877, "pitch": 69, "duration": 60, "velocity": 80}, {"time": 8997, "pitch": 69, "duration": 61, "velocity": 80}, {"time": 9118, "pitch": 35, "duration": 60, "velocity": 107}, {"time": 9118, "pitch": 42, "duration": 60, "velocity": 78}, {"time": 9118, "pitch": 69, "duration": 60, "velocity": 82}, {"time": 9359, "pitch": 46, "duration": 60, "velocity": 80}, {"time": 9359, "pitch": 69, "duration": 60, "velocity": 68}, {"time": 9479, "pitch": 69, "duration": 60, "velocity": 57}, {"time": 9599, "pitch": 35, "duration": 61, "velocity": 107}, {"time": 9599, "pitch": 42, "duration": 71, "velocity": 82}, {"time": 9599, "pitch": 69, "duration": 61, "velocity": 82}, {"time": 9840, "pitch": 46, "duration": 70, "velocity": 80}, {"time": 9840, "pitch": 69, "duration": 60, "velocity": 60}, {"time": 9961, "pitch": 69, "duration": 60, "velocity": 73}, {"time": 10081, "pitch": 35, "duration": 60, "velocity": 107}, {"time": 10081, "pitch": 42, "duration": 70, "velocity": 85}, {"time": 10081, "pitch": 69, "duration": 60, "velocity": 82}, {"time": 10322, "pitch": 46, "duration": 70, "velocity": 80}, {"time": 10322, "pitch": 69, "duration": 60, "velocity": 75}, {"time": 10442, "pitch": 69, "duration": 60, "velocity": 64}, {"time": 10563, "pitch": 35, "duration": 60, "velocity": 102}, {"time": 10563, "pitch": 42, "duration": 70, "velocity": 90}, {"time": 10563, "pitch": 69, "duration": 60, "velocity": 97}, {"time": 10803, "pitch": 46, "duration": 71, "velocity": 80}, {"time": 10803, "pitch": 69, "duration": 61, "velocity": 80}, {"time": 10924, "pitch": 69, "duration": 60, "velocity": 80}, {"time": 11044, "pitch": 35, "duration": 59, "velocity": 107}, {"time": 11044, "pitch": 42, "duration": 59, "velocity": 78}, {"time": 11044, "pitch": 69, "duration": 59, "velocity": 82}, {"time": 11280, "pitch": 46, "duration": 59, "velocity": 80}, {"time": 11280, "pitch": 69, "duration": 59, "velocity": 68}, {"time": 11398, "pitch": 69, "duration": 59, "velocity": 57}, {"time": 11515, "pitch": 35, "duration": 61, "velocity": 107}, {"time": 11515, "pitch": 42, "duration": 71, "velocity": 82}, {"time": 11515, "pitch": 69, "duration": 61, "velocity": 82}, {"time": 11756, "pitch": 46, "duration": 70, "velocity": 80}, {"time": 11756, "pitch": 69, "duration": 60, "velocity": 60}, {"time": 11877, "pitch": 69, "duration": 60, "velocity": 73}, {"time": 11997, "pitch": 35, "duration": 60, "velocity": 107}, {"time": 11997, "pitch": 42, "duration": 70, "velocity": 85}, {"time": 11997, "pitch": 69, "duration": 60, "velocity": 82}, {"time": 12238, "pitch": 46, "duration": 70, "velocity": 80}, {"time": 12238, "pitch": 69, "duration": 60, "velocity": 75}, {"time": 12358, "pitch": 69, "duration": 60, "velocity": 64}, {"time": 12479, "pitch": 35, "duration": 60, "velocity": 102}, {"time": 12479, "pitch": 42, "duration": 70, "velocity": 90}, {"time": 12479, "pitch": 69, "duration": 60, "velocity": 97}, {"time": 12719, "pitch": 46, "duration": 71, "velocity": 80}, {"time": 12719, "pitch": 69, "duration": 61, "velocity": 80}, {"time": 12840, "pitch": 69, "duration": 60, "velocity": 80}, {"time": 12960, "pitch": 35, "duration": 60, "velocity": 107}, {"time": 12960, "pitch": 42, "duration": 60, "velocity": 78}, {"time": 12960, "pitch": 69, "duration": 60, "velocity": 82}, {"time": 13201, "pitch": 46, "duration": 60, "velocity": 80}, {"time": 13201, "pitch": 69, "duration": 60, "velocity": 68}, {"time": 13321, "pitch": 69, "duration": 61, "velocity": 57}, {"time": 13442, "pitch": 35, "duration": 60, "velocity": 107}, {"time": 13442, "pitch": 42, "duration": 70, "velocity": 82}, {"time": 13442, "pitch": 69, "duration": 60, "velocity": 82}, {"time": 13683, "pitch": 46, "duration": 70, "velocity": 80}, {"time": 13683, "pitch": 69, "duration": 60, "velocity": 60}, {"time": 13803, "pitch": 69, "duration": 60, "velocity": 73}, {"time": 13923, "pitch": 35, "duration": 61, "velocity": 107}, {"time": 13923, "pitch": 42, "duration": 71, "velocity": 85}, {"time": 13923, "pitch": 69, "duration": 61, "velocity": 82}, {"time": 14164, "pitch": 46, "duration": 70, "velocity": 80}, {"time": 14164, "pitch": 69, "duration": 60, "velocity": 75}, {"time": 14284, "pitch": 69, "duration": 61, "velocity": 64}, {"time": 14405, "pitch": 35, "duration": 59, "velocity": 102}, {"time": 14405, "pitch": 42, "duration": 69, "velocity": 90}, {"time": 14405, "pitch": 69, "duration": 59, "velocity": 97}, {"time": 14640, "pitch": 46, "duration": 69, "velocity": 80}, {"time": 14640, "pitch": 69, "duration": 59, "velocity": 80}, {"time": 14758, "pitch": 69, "duration": 59, "velocity": 80}, {"time": 14876, "pitch": 35, "duration": 60, "velocity": 107}, {"time": 14876, "pitch": 42, "duration": 60, "velocity": 78}, {"time": 14876, "pitch": 69, "duration": 60, "velocity": 82}, {"time": 15117, "pitch": 46, "duration": 60, "velocity": 80}, {"time": 15117, "pitch": 69, "duration": 60, "velocity": 68}, {"time": 15237, "pitch": 69, "duration": 60, "velocity": 57}, {"time": 15358, "pitch": 35, "duration": 60, "velocity": 107}, {"time": 15358, "pitch": 42, "duration": 70, "velocity": 82}, {"time": 15358, "pitch": 69, "duration": 60, "velocity": 82}, {"time": 15598, "pitch": 46, "duration": 71, "velocity": 80}, {"time": 15598, "pitch": 69, "duration": 61, "velocity": 60}, {"time": 15719, "pitch": 69, "duration": 60, "velocity": 73}, {"time": 15839, "pitch": 35, "duration": 60, "velocity": 107}, {"time": 15839, "pitch": 42, "duration": 70, "velocity": 85}, {"time": 15839, "pitch": 69, "duration": 60, "velocity": 82}, {"time": 16080, "pitch": 46, "duration": 70, "velocity": 80}, {"time": 16080, "pitch": 69, "duration": 60, "velocity": 75}, {"time": 16200, "pitch": 69, "duration": 61, "velocity": 64}, {"time": 16321, "pitch": 35, "duration": 60, "velocity": 102}, {"time": 16321, "pitch": 42, "duration": 70, "velocity": 90}, {"time": 16321, "pitch": 69, "duration": 60, "velocity": 97}, {"time": 16562, "pitch": 46, "duration": 70, "velocity": 80}, {"time": 16562, "pitch": 69, "duration": 60, "velocity": 80}, {"time": 16682, "pitch": 69, "duration": 60, "velocity": 80}, {"time": 16802, "pitch": 35, "duration": 61, "velocity": 107}, {"time": 16802, "pitch": 42, "duration": 61, "velocity": 78}, {"time": 16802, "pitch": 69, "duration": 61, "velocity": 82}, {"time": 17043, "pitch": 46, "duration": 60, "velocity": 80}, {"time": 17043, "pitch": 69, "duration": 60, "velocity": 68}, {"time": 17164, "pitch": 69, "duration": 60, "velocity": 57}, {"time": 17284, "pitch": 35, "duration": 59, "velocity": 107}, {"time": 17284, "pitch": 42, "duration": 69, "velocity": 82}, {"time": 17284, "pitch": 69, "duration": 59, "velocity": 82}, {"time": 17520, "pitch": 46, "duration": 68, "velocity": 80}, {"time": 17520, "pitch": 69, "duration": 58, "velocity": 60}, {"time": 17637, "pitch": 69, "duration": 59, "velocity": 73}, {"time": 17755, "pitch": 35, "duration": 60, "velocity": 107}, {"time": 17755, "pitch": 42, "duration": 70, "velocity": 85}, {"time": 17755, "pitch": 69, "duration": 60, "velocity": 82}, {"time": 17996, "pitch": 46, "duration": 70, "velocity": 80}, {"time": 17996, "pitch": 69, "duration": 60, "velocity": 75}, {"time": 18116, "pitch": 69, "duration": 61, "velocity": 64}, {"time": 18237, "pitch": 35, "duration": 60, "velocity": 102}, {"time": 18237, "pitch": 42, "duration": 70, "velocity": 90}, {"time": 18237, "pitch": 69, "duration": 60, "velocity": 97}, {"time": 18477, "pitch": 46, "duration": 71, "velocity": 80}, {"time": 18477, "pitch": 69, "duration": 61, "velocity": 80}, {"time": 18598, "pitch": 69, "duration": 60, "velocity": 80}, {"time": 18718, "pitch": 35, "duration": 60, "velocity": 107}, {"time": 18718, "pitch": 42, "duration": 60, "velocity": 78}, {"time": 18718, "pitch": 49, "duration": 50, "velocity": 122}, {"time": 18718, "pitch": 57, "duration": 1445, "velocity": 113}, {"time": 18718, "pitch": 69, "duration": 60, "velocity": 82}, {"time": 18959, "pitch": 46, "duration": 60, "velocity": 80}, {"time": 18959, "pitch": 69, "duration": 60, "velocity": 68}, {"time": 19079, "pitch": 69, "duration": 61, "velocity": 57}, {"time": 19200, "pitch": 40, "duration": 60, "velocity": 105}, {"time": 19200, "pitch": 69, "duration": 60, "velocity": 82}, {"time": 19320, "pitch": 40, "duration": 60, "velocity": 108}, {"time": 19441, "pitch": 40, "duration": 60, "velocity": 111}, {"time": 19441, "pitch": 69, "duration": 60, "velocity": 60}, {"time": 19561, "pitch": 40, "duration": 60, "velocity": 111}, {"time": 19561, "pitch": 69, "duration": 60, "velocity": 73}, {"time": 19681, "pitch": 40, "duration": 61, "velocity": 111}, {"time": 19681, "pitch": 69, "duration": 61, "velocity": 82}, {"time": 19802, "pitch": 40, "duration": 60, "velocity": 108}, {"time": 19922, "pitch": 40, "duration": 60, "velocity": 108}, {"time": 19922, "pitch": 69, "duration": 60, "velocity": 75}, {"time": 20043, "pitch": 40, "duration": 60, "velocity": 117}, {"time": 20043, "pitch": 69, "duration": 60, "velocity": 64}, {"time": 20163, "pitch": 35, "duration": 60, "velocity": 102}, {"time": 20163, "pitch": 42, "duration": 70, "velocity": 90}, {"time": 20163, "pitch": 57, "duration": 60, "velocity": 112}, {"time": 20404, "pitch": 46, "duration": 70, "velocity": 80}, {"time": 20645, "pitch": 35, "duration": 58, "velocity": 107}, {"time": 20645, "pitch": 40, "duration": 58, "velocity": 122}, {"time": 20645, "pitch": 42, "duration": 58, "velocity": 78}, {"time": 20880, "pitch": 46, "duration": 59, "velocity": 80}, {"time": 21116, "pitch": 35, "duration": 60, "velocity": 107}, {"time": 21116, "pitch": 42, "duration": 70, "velocity": 82}, {"time": 21357, "pitch": 46, "duration": 70, "velocity": 80}, {"time": 21597, "pitch": 35, "duration": 61, "velocity": 107}, {"time": 21597, "pitch": 40, "duration": 61, "velocity": 122}, {"time": 21597, "pitch": 42, "duration": 71, "velocity": 85}, {"time": 21838, "pitch": 46, "duration": 70, "velocity": 80}, {"time": 22079, "pitch": 35, "duration": 60, "velocity": 102}, {"time": 22079, "pitch": 42, "duration": 70, "velocity": 90}, {"time": 22320, "pitch": 46, "duration": 70, "velocity": 80}, {"time": 22561, "pitch": 35, "duration": 60, "velocity": 107}, {"time": 22561, "pitch": 40, "duration": 60, "velocity": 122}, {"time": 22561, "pitch": 42, "duration": 60, "velocity": 78}, {"time": 22801, "pitch": 46, "duration": 61, "velocity": 80}, {"time": 23042, "pitch": 35, "duration": 60, "velocity": 107}, {"time": 23042, "pitch": 42, "duration": 70, "velocity": 82}, {"time": 23283, "pitch": 46, "duration": 70, "velocity": 80}, {"time": 23407, "pitch": 35, "duration": 61, "velocity": 107}, {"time": 23524, "pitch": 35, "duration": 59, "velocity": 107}, {"time": 23524, "pitch": 40, "duration": 59, "velocity": 122}, {"time": 23524, "pitch": 42, "duration": 68, "velocity": 85}, {"time": 23759, "pitch": 46, "duration": 69, "velocity": 80}, {"time": 23881, "pitch": 35, "duration": 59, "velocity": 107}, {"time": 23995, "pitch": 35, "duration": 60, "velocity": 102}, {"time": 23995, "pitch": 42, "duration": 70, "velocity": 90}, {"time": 24236, "pitch": 46, "duration": 70, "velocity": 80}, {"time": 24476, "pitch": 35, "duration": 61, "velocity": 107}, {"time": 24476, "pitch": 40, "duration": 61, "velocity": 122}, {"time": 24476, "pitch": 42, "duration": 61, "velocity": 78}, {"time": 24717, "pitch": 46, "duration": 60, "velocity": 80}, {"time": 24958, "pitch": 35, "duration": 60, "velocity": 107}, {"time": 24958, "pitch": 42, "duration": 70, "velocity": 82}, {"time": 25199, "pitch": 46, "duration": 70, "velocity": 80}, {"time": 25440, "pitch": 35, "duration": 60, "velocity": 107}, {"time": 25440, "pitch": 40, "duration": 60, "velocity": 122}, {"time": 25440, "pitch": 42, "duration": 70, "velocity": 85}, {"time": 25680, "pitch": 46, "duration": 71, "velocity": 80}, {"time": 25921, "pitch": 35, "duration": 60, "velocity": 102}, {"time": 25921, "pitch": 40, "duration": 60, "velocity": 122}, {"time": 25921, "pitch": 42, "duration": 70, "velocity": 90}, {"time": 26042, "pitch": 40, "duration": 60, "velocity": 122}, {"time": 26162, "pitch": 40, "duration": 60, "velocity": 122}, {"time": 26162, "pitch": 46, "duration": 70, "velocity": 80}, {"time": 26282, "pitch": 40, "duration": 61, "velocity": 122}, {"time": 26403, "pitch": 35, "duration": 60, "velocity": 107}, {"time": 26403, "pitch": 40, "duration": 60, "velocity": 122}, {"time": 26403, "pitch": 42, "duration": 60, "velocity": 78}, {"time": 26403, "pitch": 57, "duration": 1434, "velocity": 127}, {"time": 26523, "pitch": 40, "duration": 60, "velocity": 122}, {"time": 26644, "pitch": 46, "duration": 60, "velocity": 80}, {"time": 26764, "pitch": 40, "duration": 60, "velocity": 122}, {"time": 26884, "pitch": 35, "duration": 59, "velocity": 107}, {"time": 26884, "pitch": 42, "duration": 69, "velocity": 82}, {"time": 27002, "pitch": 40, "duration": 59, "velocity": 122}, {"time": 27120, "pitch": 46, "duration": 69, "velocity": 80}, {"time": 27238, "pitch": 40, "duration": 59, "velocity": 122}, {"time": 27242, "pitch": 35, "duration": 59, "velocity": 107}, {"time": 27356, "pitch": 35, "duration": 60, "velocity": 107}, {"time": 27356, "pitch": 40, "duration": 60, "velocity": 122}, {"time": 27356, "pitch": 42, "duration": 70, "velocity": 85}, {"time": 27476, "pitch": 40, "duration": 60, "velocity": 122}, {"time": 27596, "pitch": 40, "duration": 61, "velocity": 122}, {"time": 27596, "pitch": 46, "duration": 71, "velocity": 80}, {"time": 27717, "pitch": 40, "duration": 60, "velocity": 122}, {"time": 27721, "pitch": 35, "duration": 60, "velocity": 107}, {"time": 27837, "pitch": 35, "duration": 60, "velocity": 102}, {"time": 27837, "pitch": 42, "duration": 70, "velocity": 90}, {"time": 27837, "pitch": 55, "duration": 50, "velocity": 127}, {"time": 28078, "pitch": 46, "duration": 70, "velocity": 80}, {"time": 28319, "pitch": 35, "duration": 60, "velocity": 107}, {"time": 28319, "pitch": 40, "duration": 60, "velocity": 122}, {"time": 28319, "pitch": 42, "duration": 60, "velocity": 78}, {"time": 28559, "pitch": 46, "duration": 61, "velocity": 80}, {"time": 28800, "pitch": 35, "duration": 60, "velocity": 107}, {"time": 28800, "pitch": 42, "duration": 70, "velocity": 82}, {"time": 29041, "pitch": 46, "duration": 70, "velocity": 80}, {"time": 29282, "pitch": 35, "duration": 60, "velocity": 107}, {"time": 29282, "pitch": 40, "duration": 60, "velocity": 122}, {"time": 29282, "pitch": 42, "duration": 70, "velocity": 85}, {"time": 29523, "pitch": 46, "duration": 70, "velocity": 80}, {"time": 29763, "pitch": 35, "duration": 61, "velocity": 102}, {"time": 29763, "pitch": 42, "duration": 71, "velocity": 90}, {"time": 30004, "pitch": 46, "duration": 70, "velocity": 80}, {"time": 30245, "pitch": 35, "duration": 59, "velocity": 107}, {"time": 30245, "pitch": 40, "duration": 59, "velocity": 122}, {"time": 30245, "pitch": 42, "duration": 59, "velocity": 78}, {"time": 30481, "pitch": 46, "duration": 58, "velocity": 80}, {"time": 30716, "pitch": 35, "duration": 60, "velocity": 107}, {"time": 30716, "pitch": 42, "duration": 70, "velocity": 82}, {"time": 30957, "pitch": 46, "duration": 70, "velocity": 80}, {"time": 31198, "pitch": 35, "duration": 60, "velocity": 107}, {"time": 31198, "pitch": 40, "duration": 60, "velocity": 122}, {"time": 31198, "pitch": 42, "duration": 70, "velocity": 85}, {"time": 31439, "pitch": 46, "duration": 70, "velocity": 80}, {"time": 31679, "pitch": 35, "duration": 61, "velocity": 102}, {"time": 31679, "pitch": 42, "duration": 71, "velocity": 90}, {"time": 31920, "pitch": 46, "duration": 70, "velocity": 80}, {"time": 32161, "pitch": 35, "duration": 60, "velocity": 107}, {"time": 32161, "pitch": 40, "duration": 60, "velocity": 122}, {"time": 32161, "pitch": 42, "duration": 60, "velocity": 78}, {"time": 32402, "pitch": 46, "duration": 60, "velocity": 80}, {"time": 32643, "pitch": 35, "duration": 60, "velocity": 107}, {"time": 32643, "pitch": 42, "duration": 70, "velocity": 82}, {"time": 32883, "pitch": 46, "duration": 71, "velocity": 80}, {"time": 33124, "pitch": 35, "duration": 59, "velocity": 107}, {"time": 33124, "pitch": 40, "duration": 59, "velocity": 122}, {"time": 33124, "pitch": 42, "duration": 69, "velocity": 85}, {"time": 33360, "pitch": 46, "duration": 68, "velocity": 80}, {"time": 33595, "pitch": 35, "duration": 60, "velocity": 102}, {"time": 33595, "pitch": 42, "duration": 70, "velocity": 90}, {"time": 33836, "pitch": 46, "duration": 70, "velocity": 80}, {"time": 34077, "pitch": 35, "duration": 60, "velocity": 107}, {"time": 34077, "pitch": 40, "duration": 60, "velocity": 122}, {"time": 34077, "pitch": 42, "duration": 60, "velocity": 78}, {"time": 34318, "pitch": 46, "duration": 60, "velocity": 80}, {"time": 34558, "pitch": 35, "duration": 61, "velocity": 107}, {"time": 34558, "pitch": 42, "duration": 71, "velocity": 82}, {"time": 34799, "pitch": 46, "duration": 70, "velocity": 80}, {"time": 34924, "pitch": 35, "duration": 60, "velocity": 107}, {"time": 35040, "pitch": 35, "duration": 60, "velocity": 107}, {"time": 35040, "pitch": 40, "duration": 60, "velocity": 122}, {"time": 35040, "pitch": 42, "duration": 70, "velocity": 85}, {"time": 35281, "pitch": 46, "duration": 70, "velocity": 80}, {"time": 35405, "pitch": 35, "duration": 60, "velocity": 107}, {"time": 35522, "pitch": 35, "duration": 60, "velocity": 102}, {"time": 35522, "pitch": 42, "duration": 70, "velocity": 90}, {"time": 35762, "pitch": 46, "duration": 71, "velocity": 80}, {"time": 36003, "pitch": 35, "duration": 60, "velocity": 107}, {"time": 36003, "pitch": 40, "duration": 60, "velocity": 122}, {"time": 36003, "pitch": 42, "duration": 60, "velocity": 78}, {"time": 36244, "pitch": 46, "duration": 60, "velocity": 80}, {"time": 36485, "pitch": 35, "duration": 59, "velocity": 107}, {"time": 36485, "pitch": 42, "duration": 68, "velocity": 82}, {"time": 36720, "pitch": 46, "duration": 69, "velocity": 80}, {"time": 36842, "pitch": 35, "duration": 59, "velocity": 107}, {"time": 36956, "pitch": 35, "duration": 60, "velocity": 107}, {"time": 36956, "pitch": 40, "duration": 60, "velocity": 122}, {"time": 36956, "pitch": 42, "duration": 70, "velocity": 85}, {"time": 37197, "pitch": 46, "duration": 70, "velocity": 80}, {"time": 37321, "pitch": 35, "duration": 60, "velocity": 107}, {"time": 37437, "pitch": 35, "duration": 61, "velocity": 102}, {"time": 37437, "pitch": 42, "duration": 71, "velocity": 90}, {"time": 37678, "pitch": 46, "duration": 71, "velocity": 80}, {"time": 37919, "pitch": 35, "duration": 60, "velocity": 107}, {"time": 37919, "pitch": 40, "duration": 60, "velocity": 122}, {"time": 37919, "pitch": 42, "duration": 60, "velocity": 78}, {"time": 38160, "pitch": 46, "duration": 60, "velocity": 80}, {"time": 38401, "pitch": 35, "duration": 60, "velocity": 107}, {"time": 38401, "pitch": 42, "duration": 70, "velocity": 82}, {"time": 38641, "pitch": 46, "duration": 71, "velocity": 80}, {"time": 38882, "pitch": 35, "duration": 60, "velocity": 107}, {"time": 38882, "pitch": 40, "duration": 60, "velocity": 122}, {"time": 38882, "pitch": 42, "duration": 70, "velocity": 85}, {"time": 39123, "pitch": 35, "duration": 60, "velocity": 107}, {"time": 39123, "pitch": 46, "duration": 70, "velocity": 80}, {"time": 39123, "pitch": 49, "duration": 60, "velocity": 106}, {"time": 39364, "pitch": 35, "duration": 59, "velocity": 102}, {"time": 39364, "pitch": 42, "duration": 68, "velocity": 90}, {"time": 39599, "pitch": 46, "duration": 69, "velocity": 80}, {"time": 39835, "pitch": 35, "duration": 60, "velocity": 107}, {"time": 39835, "pitch": 40, "duration": 60, "velocity": 122}, {"time": 39835, "pitch": 42, "duration": 60, "velocity": 78}, {"time": 40076, "pitch": 46, "duration": 60, "velocity": 80}, {"time": 40317, "pitch": 35, "duration": 60, "velocity": 107}, {"time": 40317, "pitch": 42, "duration": 70, "velocity": 82}, {"time": 40557, "pitch": 46, "duration": 71, "velocity": 80}, {"time": 40798, "pitch": 35, "duration": 60, "velocity": 107}, {"time": 40798, "pitch": 40, "duration": 60, "velocity": 122}, {"time": 40798, "pitch": 42, "duration": 70, "velocity": 85}, {"time": 41039, "pitch": 35, "duration": 60, "velocity": 107}, {"time": 41039, "pitch": 46, "duration": 70, "velocity": 80}, {"time": 41039, "pitch": 49, "duration": 60, "velocity": 106}, {"time": 41280, "pitch": 35, "duration": 60, "velocity": 102}, {"time": 41280, "pitch": 42, "duration": 70, "velocity": 90}, {"time": 41521, "pitch": 46, "duration": 70, "velocity": 80}, {"time": 41761, "pitch": 35, "duration": 61, "velocity": 107}, {"time": 41761, "pitch": 40, "duration": 61, "velocity": 122}, {"time": 41761, "pitch": 42, "duration": 61, "velocity": 78}, {"time": 42002, "pitch": 46, "duration": 60, "velocity": 80}, {"time": 42243, "pitch": 35, "duration": 60, "velocity": 107}, {"time": 42243, "pitch": 42, "duration": 70, "velocity": 82}, {"time": 42484, "pitch": 46, "duration": 70, "velocity": 80}, {"time": 42724, "pitch": 35, "duration": 59, "velocity": 107}, {"time": 42724, "pitch": 40, "duration": 59, "velocity": 122}, {"time": 42724, "pitch": 42, "duration": 69, "velocity": 85}, {"time": 42960, "pitch": 46, "duration": 69, "velocity": 80}, {"time": 43082, "pitch": 40, "duration": 59, "velocity": 122}, {"time": 43196, "pitch": 35, "duration": 60, "velocity": 102}, {"time": 43196, "pitch": 42, "duration": 70, "velocity": 90}, {"time": 43196, "pitch": 55, "duration": 50, "velocity": 122}, {"time": 43436, "pitch": 46, "duration": 71, "velocity": 80}, {"time": 43677, "pitch": 35, "duration": 60, "velocity": 107}, {"time": 43677, "pitch": 40, "duration": 60, "velocity": 122}, {"time": 43677, "pitch": 42, "duration": 60, "velocity": 78}, {"time": 43918, "pitch": 46, "duration": 60, "velocity": 80}, {"time": 44159, "pitch": 35, "duration": 60, "velocity": 107}, {"time": 44159, "pitch": 42, "duration": 70, "velocity": 82}, {"time": 44400, "pitch": 46, "duration": 70, "velocity": 80}, {"time": 44640, "pitch": 35, "duration": 61, "velocity": 107}, {"time": 44640, "pitch": 40, "duration": 61, "velocity": 122}, {"time": 44640, "pitch": 42, "duration": 71, "velocity": 85}, {"time": 44881, "pitch": 46, "duration": 70, "velocity": 80}, {"time": 45122, "pitch": 35, "duration": 60, "velocity": 102}, {"time": 45122, "pitch": 42, "duration": 70, "velocity": 90}, {"time": 45363, "pitch": 46, "duration": 70, "velocity": 80}, {"time": 45604, "pitch": 35, "duration": 60, "velocity": 107}, {"time": 45604, "pitch": 40, "duration": 60, "velocity": 122}, {"time": 45604, "pitch": 42, "duration": 60, "velocity": 78}, {"time": 45844, "pitch": 46, "duration": 61, "velocity": 80}, {"time": 46085, "pitch": 35, "duration": 59, "velocity": 107}, {"time": 46085, "pitch": 42, "duration": 69, "velocity": 82}, {"time": 46321, "pitch": 46, "duration": 68, "velocity": 80}, {"time": 46556, "pitch": 35, "duration": 61, "velocity": 107}, {"time": 46556, "pitch": 40, "duration": 61, "velocity": 122}, {"time": 46556, "pitch": 42, "duration": 71, "velocity": 85}, {"time": 46797, "pitch": 46, "duration": 70, "velocity": 80}, {"time": 47038, "pitch": 35, "duration": 60, "velocity": 102}, {"time": 47038, "pitch": 42, "duration": 70, "velocity": 90}, {"time": 47279, "pitch": 46, "duration": 70, "velocity": 80}, {"time": 47519, "pitch": 35, "duration": 61, "velocity": 107}, {"time": 47519, "pitch": 40, "duration": 61, "velocity": 122}, {"time": 47519, "pitch": 42, "duration": 61, "velocity": 78}, {"time": 47760, "pitch": 46, "duration": 60, "velocity": 80}, {"time": 48001, "pitch": 35, "duration": 60, "velocity": 107}, {"time": 48001, "pitch": 42, "duration": 70, "velocity": 82}, {"time": 48242, "pitch": 46, "duration": 70, "velocity": 80}, {"time": 48483, "pitch": 35, "duration": 60, "velocity": 107}, {"time": 48483, "pitch": 40, "duration": 60, "velocity": 122}, {"time": 48483, "pitch": 42, "duration": 70, "velocity": 85}, {"time": 48723, "pitch": 46, "duration": 71, "velocity": 80}, {"time": 48964, "pitch": 35, "duration": 59, "velocity": 102}, {"time": 48964, "pitch": 42, "duration": 69, "velocity": 90}, {"time": 49200, "pitch": 46, "duration": 69, "velocity": 80}, {"time": 49435, "pitch": 35, "duration": 61, "velocity": 107}, {"time": 49435, "pitch": 40, "duration": 61, "velocity": 122}, {"time": 49435, "pitch": 42, "duration": 61, "velocity": 78}, {"time": 49676, "pitch": 46, "duration": 60, "velocity": 80}, {"time": 49917, "pitch": 35, "duration": 60, "velocity": 107}, {"time": 49917, "pitch": 42, "duration": 70, "velocity": 82}, {"time": 50158, "pitch": 46, "duration": 70, "velocity": 80}, {"time": 50399, "pitch": 35, "duration": 60, "velocity": 107}, {"time": 50399, "pitch": 40, "duration": 60, "velocity": 122}, {"time": 50399, "pitch": 42, "duration": 70, "velocity": 85}, {"time": 50519, "pitch": 40, "duration": 60, "velocity": 122}, {"time": 50639, "pitch": 40, "duration": 61, "velocity": 122}, {"time": 50639, "pitch": 46, "duration": 71, "velocity": 80}, {"time": 50760, "pitch": 40, "duration": 60, "velocity": 122}, {"time": 50880, "pitch": 35, "duration": 60, "velocity": 102}, {"time": 50880, "pitch": 42, "duration": 70, "velocity": 90}, {"time": 51121, "pitch": 46, "duration": 70, "velocity": 80}, {"time": 51362, "pitch": 35, "duration": 60, "velocity": 107}, {"time": 51362, "pitch": 40, "duration": 60, "velocity": 122}, {"time": 51362, "pitch": 42, "duration": 60, "velocity": 78}, {"time": 51603, "pitch": 46, "duration": 60, "velocity": 80}, {"time": 51843, "pitch": 35, "duration": 61, "velocity": 107}, {"time": 51843, "pitch": 42, "duration": 71, "velocity": 82}, {"time": 52084, "pitch": 46, "duration": 70, "velocity": 80}, {"time": 52325, "pitch": 35, "duration": 59, "velocity": 107}, {"time": 52325, "pitch": 40, "duration": 59, "velocity": 122}, {"time": 52325, "pitch": 42, "duration": 69, "velocity": 85}, {"time": 52560, "pitch": 46, "duration": 69, "velocity": 80}, {"time": 52796, "pitch": 35, "duration": 60, "velocity": 102}, {"time": 52796, "pitch": 42, "duration": 70, "velocity": 90}, {"time": 53037, "pitch": 46, "duration": 70, "velocity": 80}, {"time": 53278, "pitch": 35, "duration": 60, "velocity": 107}, {"time": 53278, "pitch": 40, "duration": 60, "velocity": 122}, {"time": 53278, "pitch": 42, "duration": 60, "velocity": 78}, {"time": 53518, "pitch": 46, "duration": 61, "velocity": 80}, {"time": 53759, "pitch": 35, "duration": 60, "velocity": 107}, {"time": 53759, "pitch": 42, "duration": 70, "velocity": 82}, {"time": 54000, "pitch": 46, "duration": 70, "velocity": 80}, {"time": 54241, "pitch": 35, "duration": 60, "velocity": 107}, {"time": 54241, "pitch": 40, "duration": 60, "velocity": 122}, {"time": 54241, "pitch": 42, "duration": 70, "velocity": 85}, {"time": 54482, "pitch": 35, "duration": 60, "velocity": 107}, {"time": 54482, "pitch": 46, "duration": 70, "velocity": 80}, {"time": 54482, "pitch": 49, "duration": 60, "velocity": 106}, {"time": 54722, "pitch": 35, "duration": 61, "velocity": 102}, {"time": 54722, "pitch": 42, "duration": 71, "velocity": 90}, {"time": 54963, "pitch": 46, "duration": 70, "velocity": 80}, {"time": 55204, "pitch": 35, "duration": 59, "velocity": 107}, {"time": 55204, "pitch": 40, "duration": 59, "velocity": 122}, {"time": 55204, "pitch": 42, "duration": 59, "velocity": 78}, {"time": 55440, "pitch": 46, "duration": 58, "velocity": 80}, {"time": 55675, "pitch": 35, "duration": 60, "velocity": 107}, {"time": 55675, "pitch": 42, "duration": 70, "velocity": 82}, {"time": 55916, "pitch": 46, "duration": 70, "velocity": 80}, {"time": 56157, "pitch": 35, "duration": 60, "velocity": 107}, {"time": 56157, "pitch": 40, "duration": 60, "velocity": 122}, {"time": 56157, "pitch": 42, "duration": 70, "velocity": 85}, {"time": 56397, "pitch": 35, "duration": 61, "velocity": 107}, {"time": 56397, "pitch": 46, "duration": 71, "velocity": 80}, {"time": 56397, "pitch": 49, "duration": 61, "velocity": 106}, {"time": 56638, "pitch": 35, "duration": 60, "velocity": 102}, {"time": 56638, "pitch": 42, "duration": 71, "velocity": 90}, {"time": 56879, "pitch": 46, "duration": 70, "velocity": 80}, {"time": 57120, "pitch": 35, "duration": 60, "velocity": 107}, {"time": 57120, "pitch": 40, "duration": 60, "velocity": 122}, {"time": 57120, "pitch": 42, "duration": 60, "velocity": 78}, {"time": 57361, "pitch": 46, "duration": 60, "velocity": 80}, {"time": 57601, "pitch": 35, "duration": 61, "velocity": 107}, {"time": 57601, "pitch": 42, "duration": 71, "velocity": 82}, {"time": 57842, "pitch": 46, "duration": 70, "velocity": 80}, {"time": 58083, "pitch": 35, "duration": 60, "velocity": 107}, {"time": 58083, "pitch": 40, "duration": 60, "velocity": 122}, {"time": 58083, "pitch": 42, "duration": 70, "velocity": 85}, {"time": 58324, "pitch": 46, "duration": 70, "velocity": 80}, {"time": 58565, "pitch": 35, "duration": 58, "velocity": 102}, {"time": 58565, "pitch": 42, "duration": 68, "velocity": 90}, {"time": 58800, "pitch": 46, "duration": 69, "velocity": 80}, {"time": 59036, "pitch": 35, "duration": 60, "velocity": 107}, {"time": 59036, "pitch": 40, "duration": 60, "velocity": 122}, {"time": 59036, "pitch": 42, "duration": 60, "velocity": 78}, {"time": 59277, "pitch": 46, "duration": 60, "velocity": 80}, {"time": 59517, "pitch": 35, "duration": 61, "velocity": 107}, {"time": 59517, "pitch": 42, "duration": 71, "velocity": 82}, {"time": 59758, "pitch": 46, "duration": 70, "velocity": 80}, {"time": 59999, "pitch": 35, "duration": 60, "velocity": 107}, {"time": 59999, "pitch": 40, "duration": 60, "velocity": 122}, {"time": 59999, "pitch": 42, "duration": 70, "velocity": 85}, {"time": 60240, "pitch": 46, "duration": 70, "velocity": 80}, {"time": 60481, "pitch": 35, "duration": 60, "velocity": 102}, {"time": 60481, "pitch": 42, "duration": 70, "velocity": 90}, {"time": 60721, "pitch": 46, "duration": 71, "velocity": 80}, {"time": 60962, "pitch": 35, "duration": 60, "velocity": 107}, {"time": 60962, "pitch": 40, "duration": 60, "velocity": 122}, {"time": 60962, "pitch": 42, "duration": 60, "velocity": 78}, {"time": 61203, "pitch": 46, "duration": 60, "velocity": 80}, {"time": 61444, "pitch": 35, "duration": 59, "velocity": 107}, {"time": 61444, "pitch": 42, "duration": 68, "velocity": 82}, {"time": 61679, "pitch": 46, "duration": 69, "velocity": 80}, {"time": 61915, "pitch": 35, "duration": 60, "velocity": 107}, {"time": 61915, "pitch": 40, "duration": 60, "velocity": 111}, {"time": 61915, "pitch": 42, "duration": 70, "velocity": 85}, {"time": 62035, "pitch": 40, "duration": 60, "velocity": 117}, {"time": 62156, "pitch": 40, "duration": 60, "velocity": 117}, {"time": 62156, "pitch": 46, "duration": 70, "velocity": 80}, {"time": 62276, "pitch": 40, "duration": 60, "velocity": 114}, {"time": 62396, "pitch": 35, "duration": 61, "velocity": 102}, {"time": 62396, "pitch": 42, "duration": 71, "velocity": 90}, {"time": 62396, "pitch": 49, "duration": 51, "velocity": 106}, {"time": 62637, "pitch": 46, "duration": 70, "velocity": 80}, {"time": 62878, "pitch": 35, "duration": 60, "velocity": 107}, {"time": 62878, "pitch": 40, "duration": 60, "velocity": 122}, {"time": 62878, "pitch": 42, "duration": 60, "velocity": 78}, {"time": 63119, "pitch": 46, "duration": 60, "velocity": 80}, {"time": 63360, "pitch": 35, "duration": 60, "velocity": 107}, {"time": 63360, "pitch": 42, "duration": 70, "velocity": 82}, {"time": 63600, "pitch": 46, "duration": 71, "velocity": 80}, {"time": 63841, "pitch": 35, "duration": 60, "velocity": 107}, {"time": 63841, "pitch": 40, "duration": 60, "velocity": 122}, {"time": 63841, "pitch": 42, "duration": 70, "velocity": 85}, {"time": 64082, "pitch": 46, "duration": 70, "velocity": 80}, {"time": 64323, "pitch": 35, "duration": 60, "velocity": 102}, {"time": 64323, "pitch": 42, "duration": 70, "velocity": 90}, {"time": 64564, "pitch": 46, "duration": 70, "velocity": 80}, {"time": 64804, "pitch": 35, "duration": 59, "velocity": 107}, {"time": 64804, "pitch": 40, "duration": 59, "velocity": 122}, {"time": 64804, "pitch": 42, "duration": 59, "velocity": 78}, {"time": 65040, "pitch": 46, "duration": 59, "velocity": 80}, {"time": 65276, "pitch": 35, "duration": 60, "velocity": 107}, {"time": 65276, "pitch": 42, "duration": 70, "velocity": 82}, {"time": 65516, "pitch": 46, "duration": 71, "velocity": 80}, {"time": 65757, "pitch": 35, "duration": 60, "velocity": 107}, {"time": 65757, "pitch": 40, "duration": 60, "velocity": 122}, {"time": 65757, "pitch": 42, "duration": 70, "velocity": 85}, {"time": 65998, "pitch": 46, "duration": 70, "velocity": 80}, {"time": 66239, "pitch": 35, "duration": 60, "velocity": 102}, {"time": 66239, "pitch": 42, "duration": 70, "velocity": 90}, {"time": 66239, "pitch": 57, "duration": 60, "velocity": 112}, {"time": 66479, "pitch": 46, "duration": 71, "velocity": 80}, {"time": 66720, "pitch": 35, "duration": 60, "velocity": 107}, {"time": 66720, "pitch": 40, "duration": 60, "velocity": 122}, {"time": 66720, "pitch": 42, "duration": 60, "velocity": 78}, {"time": 66961, "pitch": 46, "duration": 60, "velocity": 80}, {"time": 67202, "pitch": 35, "duration": 60, "velocity": 107}, {"time": 67202, "pitch": 42, "duration": 70, "velocity": 82}, {"time": 67443, "pitch": 46, "duration": 70, "velocity": 80}, {"time": 67683, "pitch": 35, "duration": 61, "velocity": 107}, {"time": 67683, "pitch": 40, "duration": 61, "velocity": 122}, {"time": 67683, "pitch": 42, "duration": 71, "velocity": 85}, {"time": 67924, "pitch": 46, "duration": 70, "velocity": 80}, {"time": 68165, "pitch": 35, "duration": 59, "velocity": 102}, {"time": 68165, "pitch": 42, "duration": 69, "velocity": 90}, {"time": 68401, "pitch": 46, "duration": 68, "velocity": 80}, {"time": 68636, "pitch": 35, "duration": 60, "velocity": 107}, {"time": 68636, "pitch": 40, "duration": 60, "velocity": 122}, {"time": 68636, "pitch": 42, "duration": 60, "velocity": 78}, {"time": 68877, "pitch": 46, "duration": 60, "velocity": 80}, {"time": 69118, "pitch": 35, "duration": 60, "velocity": 107}, {"time": 69118, "pitch": 40, "duration": 60, "velocity": 122}, {"time": 69118, "pitch": 42, "duration": 70, "velocity": 82}, {"time": 69242, "pitch": 40, "duration": 60, "velocity": 122}, {"time": 69359, "pitch": 40, "duration": 60, "velocity": 122}, {"time": 69359, "pitch": 46, "duration": 70, "velocity": 80}, {"time": 69483, "pitch": 40, "duration": 60, "velocity": 122}, {"time": 69599, "pitch": 35, "duration": 61, "velocity": 107}, {"time": 69599, "pitch": 40, "duration": 61, "velocity": 122}, {"time": 69599, "pitch": 42, "duration": 71, "velocity": 85}, {"time": 69724, "pitch": 40, "duration": 60, "velocity": 122}, {"time": 69840, "pitch": 35, "duration": 60, "velocity": 107}, {"time": 69840, "pitch": 46, "duration": 70, "velocity": 80}, {"time": 69965, "pitch": 40, "duration": 60, "velocity": 122}, {"time": 70081, "pitch": 35, "duration": 60, "velocity": 102}, {"time": 70081, "pitch": 42, "duration": 70, "velocity": 90}, {"time": 70081, "pitch": 49, "duration": 60, "velocity": 106}, {"time": 70322, "pitch": 46, "duration": 70, "velocity": 80}, {"time": 70563, "pitch": 35, "duration": 60, "velocity": 107}, {"time": 70563, "pitch": 40, "duration": 60, "velocity": 122}, {"time": 70563, "pitch": 42, "duration": 60, "velocity": 78}, {"time": 70803, "pitch": 46, "duration": 61, "velocity": 80}, {"time": 71044, "pitch": 35, "duration": 59, "velocity": 107}, {"time": 71044, "pitch": 42, "duration": 69, "velocity": 82}, {"time": 71280, "pitch": 46, "duration": 68, "velocity": 80}, {"time": 71515, "pitch": 35, "duration": 60, "velocity": 107}, {"time": 71515, "pitch": 40, "duration": 60, "velocity": 122}, {"time": 71515, "pitch": 42, "duration": 70, "velocity": 85}, {"time": 71756, "pitch": 46, "duration": 70, "velocity": 80}, {"time": 71997, "pitch": 35, "duration": 60, "velocity": 102}, {"time": 71997, "pitch": 42, "duration": 70, "velocity": 90}, {"time": 72238, "pitch": 46, "duration": 70, "velocity": 80}, {"time": 72478, "pitch": 35, "duration": 61, "velocity": 107}, {"time": 72478, "pitch": 40, "duration": 61, "velocity": 122}, {"time": 72478, "pitch": 42, "duration": 61, "velocity": 78}, {"time": 72719, "pitch": 46, "duration": 60, "velocity": 80}, {"time": 72960, "pitch": 35, "duration": 60, "velocity": 107}, {"time": 72960, "pitch": 42, "duration": 70, "velocity": 82}, {"time": 73201, "pitch": 46, "duration": 70, "velocity": 80}, {"time": 73442, "pitch": 35, "duration": 60, "velocity": 107}, {"time": 73442, "pitch": 40, "duration": 60, "velocity": 122}, {"time": 73442, "pitch": 42, "duration": 70, "velocity": 85}, {"time": 73682, "pitch": 35, "duration": 61, "velocity": 107}, {"time": 73682, "pitch": 46, "duration": 71, "velocity": 80}, {"time": 73682, "pitch": 57, "duration": 51, "velocity": 112}, {"time": 73923, "pitch": 35, "duration": 60, "velocity": 102}, {"time": 73923, "pitch": 42, "duration": 70, "velocity": 90}, {"time": 74164, "pitch": 46, "duration": 70, "velocity": 80}, {"time": 74405, "pitch": 35, "duration": 59, "velocity": 107}, {"time": 74405, "pitch": 40, "duration": 59, "velocity": 122}, {"time": 74405, "pitch": 42, "duration": 59, "velocity": 78}, {"time": 74640, "pitch": 46, "duration": 59, "velocity": 80}, {"time": 74876, "pitch": 35, "duration": 60, "velocity": 107}, {"time": 74876, "pitch": 42, "duration": 70, "velocity": 82}, {"time": 75117, "pitch": 46, "duration": 70, "velocity": 80}, {"time": 75357, "pitch": 35, "duration": 61, "velocity": 107}, {"time": 75357, "pitch": 40, "duration": 61, "velocity": 122}, {"time": 75357, "pitch": 42, "duration": 71, "velocity": 85}, {"time": 75598, "pitch": 46, "duration": 71, "velocity": 80}, {"time": 75839, "pitch": 35, "duration": 60, "velocity": 102}, {"time": 75839, "pitch": 46, "duration": 70, "velocity": 70}, {"time": 75839, "pitch": 57, "duration": 1680, "velocity": 127}, {"time": 75937, "pitch": 42, "duration": 71, "velocity": 45}, {"time": 77284, "pitch": 35, "duration": 59, "velocity": 107}, {"time": 77284, "pitch": 40, "duration": 59, "velocity": 122}, {"time": 77284, "pitch": 42, "duration": 68, "velocity": 85}, {"time": 77519, "pitch": 35, "duration": 59, "velocity": 107}, {"time": 77519, "pitch": 46, "duration": 69, "velocity": 80}, {"time": 77519, "pitch": 57, "duration": 50, "velocity": 112}, {"time": 77755, "pitch": 35, "duration": 60, "velocity": 102}, {"time": 77755, "pitch": 42, "duration": 70, "velocity": 90}, {"time": 77755, "pitch": 69, "duration": 60, "velocity": 97}, {"time": 77996, "pitch": 46, "duration": 70, "velocity": 80}, {"time": 77996, "pitch": 69, "duration": 60, "velocity": 80}, {"time": 78116, "pitch": 69, "duration": 60, "velocity": 80}, {"time": 78237, "pitch": 35, "duration": 60, "velocity": 107}, {"time": 78237, "pitch": 40, "duration": 60, "velocity": 122}, {"time": 78237, "pitch": 42, "duration": 60, "velocity": 78}, {"time": 78237, "pitch": 69, "duration": 60, "velocity": 82}, {"time": 78477, "pitch": 46, "duration": 61, "velocity": 80}, {"time": 78477, "pitch": 69, "duration": 61, "velocity": 68}, {"time": 78598, "pitch": 69, "duration": 60, "velocity": 57}, {"time": 78718, "pitch": 35, "duration": 60, "velocity": 107}, {"time": 78718, "pitch": 42, "duration": 70, "velocity": 82}, {"time": 78718, "pitch": 69, "duration": 60, "velocity": 82}, {"time": 78959, "pitch": 46, "duration": 70, "velocity": 80}, {"time": 78959, "pitch": 69, "duration": 60, "velocity": 60}, {"time": 79079, "pitch": 69, "duration": 61, "velocity": 73}, {"time": 79200, "pitch": 35, "duration": 60, "velocity": 107}, {"time": 79200, "pitch": 40, "duration": 60, "velocity": 122}, {"time": 79200, "pitch": 42, "duration": 70, "velocity": 85}, {"time": 79200, "pitch": 69, "duration": 60, "velocity": 82}, {"time": 79441, "pitch": 46, "duration": 70, "velocity": 80}, {"time": 79441, "pitch": 69, "duration": 60, "velocity": 75}, {"time": 79561, "pitch": 69, "duration": 60, "velocity": 64}, {"time": 79681, "pitch": 35, "duration": 61, "velocity": 102}, {"time": 79681, "pitch": 42, "duration": 71, "velocity": 90}, {"time": 79681, "pitch": 69, "duration": 61, "velocity": 97}, {"time": 79922, "pitch": 46, "duration": 70, "velocity": 80}, {"time": 79922, "pitch": 69, "duration": 60, "velocity": 80}, {"time": 80043, "pitch": 69, "duration": 60, "velocity": 80}, {"time": 80163, "pitch": 35, "duration": 60, "velocity": 107}, {"time": 80163, "pitch": 40, "duration": 60, "velocity": 122}, {"time": 80163, "pitch": 42, "duration": 60, "velocity": 78}, {"time": 80163, "pitch": 69, "duration": 60, "velocity": 82}, {"time": 80404, "pitch": 46, "duration": 60, "velocity": 80}, {"time": 80404, "pitch": 69, "duration": 60, "velocity": 68}, {"time": 80524, "pitch": 69, "duration": 60, "velocity": 57}, {"time": 80644, "pitch": 35, "duration": 59, "velocity": 107}, {"time": 80644, "pitch": 42, "duration": 69, "velocity": 82}, {"time": 80644, "pitch": 69, "duration": 59, "velocity": 82}, {"time": 80880, "pitch": 46, "duration": 69, "velocity": 80}, {"time": 80880, "pitch": 69, "duration": 59, "velocity": 60}, {"time": 80998, "pitch": 69, "duration": 59, "velocity": 73}, {"time": 81116, "pitch": 35, "duration": 60, "velocity": 107}, {"time": 81116, "pitch": 40, "duration": 60, "velocity": 122}, {"time": 81116, "pitch": 42, "duration": 70, "velocity": 85}, {"time": 81116, "pitch": 69, "duration": 60, "velocity": 82}, {"time": 81356, "pitch": 46, "duration": 71, "velocity": 80}, {"time": 81356, "pitch": 69, "duration": 61, "velocity": 75}, {"time": 81477, "pitch": 69, "duration": 60, "velocity": 64}, {"time": 81597, "pitch": 35, "duration": 60, "velocity": 102}, {"time": 81597, "pitch": 42, "duration": 70, "velocity": 90}, {"time": 81597, "pitch": 69, "duration": 60, "velocity": 97}, {"time": 81838, "pitch": 46, "duration": 70, "velocity": 80}, {"time": 81838, "pitch": 69, "duration": 60, "velocity": 80}, {"time": 81958, "pitch": 69, "duration": 61, "velocity": 80}, {"time": 82079, "pitch": 35, "duration": 60, "velocity": 107}, {"time": 82079, "pitch": 40, "duration": 60, "velocity": 122}, {"time": 82079, "pitch": 42, "duration": 60, "velocity": 78}, {"time": 82079, "pitch": 69, "duration": 60, "velocity": 82}, {"time": 82320, "pitch": 46, "duration": 60, "velocity": 80}, {"time": 82320, "pitch": 69, "duration": 60, "velocity": 68}, {"time": 82440, "pitch": 69, "duration": 60, "velocity": 57}, {"time": 82560, "pitch": 35, "duration": 61, "velocity": 107}, {"time": 82560, "pitch": 42, "duration": 71, "velocity": 82}, {"time": 82560, "pitch": 69, "duration": 61, "velocity": 82}, {"time": 82801, "pitch": 46, "duration": 70, "velocity": 80}, {"time": 82801, "pitch": 69, "duration": 60, "velocity": 60}, {"time": 82922, "pitch": 69, "duration": 60, "velocity": 73}, {"time": 83042, "pitch": 35, "duration": 60, "velocity": 107}, {"time": 83042, "pitch": 40, "duration": 60, "velocity": 122}, {"time": 83042, "pitch": 42, "duration": 70, "velocity": 85}, {"time": 83042, "pitch": 69, "duration": 60, "velocity": 82}, {"time": 83283, "pitch": 46, "duration": 70, "velocity": 80}, {"time": 83283, "pitch": 69, "duration": 60, "velocity": 75}, {"time": 83403, "pitch": 69, "duration": 60, "velocity": 64}, {"time": 83524, "pitch": 35, "duration": 60, "velocity": 102}, {"time": 83524, "pitch": 42, "duration": 70, "velocity": 90}, {"time": 83524, "pitch": 69, "duration": 60, "velocity": 97}, {"time": 83764, "pitch": 46, "duration": 71, "velocity": 80}, {"time": 83764, "pitch": 69, "duration": 61, "velocity": 80}, {"time": 83885, "pitch": 69, "duration": 60, "velocity": 80}, {"time": 84005, "pitch": 35, "duration": 59, "velocity": 107}, {"time": 84005, "pitch": 40, "duration": 59, "velocity": 122}, {"time": 84005, "pitch": 42, "duration": 59, "velocity": 78}, {"time": 84005, "pitch": 69, "duration": 59, "velocity": 82}, {"time": 84241, "pitch": 46, "duration": 59, "velocity": 80}, {"time": 84241, "pitch": 69, "duration": 59, "velocity": 68}, {"time": 84359, "pitch": 69, "duration": 58, "velocity": 57}, {"time": 84476, "pitch": 35, "duration": 61, "velocity": 107}, {"time": 84476, "pitch": 42, "duration": 71, "velocity": 82}, {"time": 84476, "pitch": 69, "duration": 61, "velocity": 82}, {"time": 84717, "pitch": 46, "duration": 70, "velocity": 80}, {"time": 84717, "pitch": 69, "duration": 60, "velocity": 60}, {"time": 84837, "pitch": 69, "duration": 61, "velocity": 73}, {"time": 84958, "pitch": 35, "duration": 60, "velocity": 107}, {"time": 84958, "pitch": 40, "duration": 60, "velocity": 122}, {"time": 84958, "pitch": 42, "duration": 70, "velocity": 85}, {"time": 84958, "pitch": 69, "duration": 60, "velocity": 82}, {"time": 85199, "pitch": 35, "duration": 60, "velocity": 107}, {"time": 85199, "pitch": 46, "duration": 70, "velocity": 80}, {"time": 85199, "pitch": 57, "duration": 50, "velocity": 112}, {"time": 85199, "pitch": 69, "duration": 60, "velocity": 75}, {"time": 85319, "pitch": 69, "duration": 60, "velocity": 64}, {"time": 85439, "pitch": 35, "duration": 61, "velocity": 102}, {"time": 85439, "pitch": 42, "duration": 71, "velocity": 90}, {"time": 85439, "pitch": 69, "duration": 61, "velocity": 97}, {"time": 85680, "pitch": 46, "duration": 70, "velocity": 80}, {"time": 85680, "pitch": 69, "duration": 60, "velocity": 80}, {"time": 85801, "pitch": 69, "duration": 60, "velocity": 80}, {"time": 85921, "pitch": 35, "duration": 60, "velocity": 107}, {"time": 85921, "pitch": 40, "duration": 60, "velocity": 122}, {"time": 85921, "pitch": 42, "duration": 60, "velocity": 78}, {"time": 85921, "pitch": 69, "duration": 60, "velocity": 82}, {"time": 86162, "pitch": 46, "duration": 60, "velocity": 80}, {"time": 86162, "pitch": 69, "duration": 60, "velocity": 68}, {"time": 86282, "pitch": 69, "duration": 60, "velocity": 57}, {"time": 86403, "pitch": 35, "duration": 60, "velocity": 107}, {"time": 86403, "pitch": 42, "duration": 70, "velocity": 82}, {"time": 86403, "pitch": 69, "duration": 60, "velocity": 82}, {"time": 86643, "pitch": 46, "duration": 71, "velocity": 80}, {"time": 86643, "pitch": 69, "duration": 61, "velocity": 60}, {"time": 86764, "pitch": 69, "duration": 60, "velocity": 73}, {"time": 86884, "pitch": 35, "duration": 59, "velocity": 107}, {"time": 86884, "pitch": 40, "duration": 59, "velocity": 122}, {"time": 86884, "pitch": 42, "duration": 69, "velocity": 85}, {"time": 86884, "pitch": 69, "duration": 59, "velocity": 82}, {"time": 87120, "pitch": 46, "duration": 69, "velocity": 80}, {"time": 87120, "pitch": 69, "duration": 59, "velocity": 75}, {"time": 87238, "pitch": 69, "duration": 59, "velocity": 64}, {"time": 87355, "pitch": 35, "duration": 61, "velocity": 102}, {"time": 87355, "pitch": 42, "duration": 71, "velocity": 90}, {"time": 87355, "pitch": 69, "duration": 61, "velocity": 97}, {"time": 87596, "pitch": 46, "duration": 70, "velocity": 80}, {"time": 87596, "pitch": 69, "duration": 60, "velocity": 80}, {"time": 87717, "pitch": 69, "duration": 60, "velocity": 80}, {"time": 87837, "pitch": 35, "duration": 60, "velocity": 107}, {"time": 87837, "pitch": 40, "duration": 60, "velocity": 122}, {"time": 87837, "pitch": 42, "duration": 60, "velocity": 78}, {"time": 87837, "pitch": 69, "duration": 60, "velocity": 82}, {"time": 88078, "pitch": 46, "duration": 60, "velocity": 80}, {"time": 88078, "pitch": 69, "duration": 60, "velocity": 68}, {"time": 88198, "pitch": 69, "duration": 60, "velocity": 57}, {"time": 88319, "pitch": 35, "duration": 60, "velocity": 107}, {"time": 88319, "pitch": 42, "duration": 70, "velocity": 82}, {"time": 88319, "pitch": 69, "duration": 60, "velocity": 82}, {"time": 88559, "pitch": 46, "duration": 71, "velocity": 80}, {"time": 88559, "pitch": 69, "duration": 61, "velocity": 60}, {"time": 88680, "pitch": 69, "duration": 60, "velocity": 73}, {"time": 88800, "pitch": 35, "duration": 60, "velocity": 107}, {"time": 88800, "pitch": 40, "duration": 60, "velocity": 122}, {"time": 88800, "pitch": 42, "duration": 70, "velocity": 85}, {"time": 88800, "pitch": 69, "duration": 60, "velocity": 82}, {"time": 89041, "pitch": 46, "duration": 70, "velocity": 80}, {"time": 89041, "pitch": 69, "duration": 60, "velocity": 75}, {"time": 89161, "pitch": 69, "duration": 61, "velocity": 64}, {"time": 89282, "pitch": 35, "duration": 60, "velocity": 102}, {"time": 89282, "pitch": 42, "duration": 70, "velocity": 90}, {"time": 89282, "pitch": 69, "duration": 60, "velocity": 97}, {"time": 89523, "pitch": 46, "duration": 70, "velocity": 80}, {"time": 89523, "pitch": 69, "duration": 60, "velocity": 80}, {"time": 89643, "pitch": 69, "duration": 60, "velocity": 80}, {"time": 89763, "pitch": 35, "duration": 61, "velocity": 107}, {"time": 89763, "pitch": 40, "duration": 61, "velocity": 122}, {"time": 89763, "pitch": 42, "duration": 61, "velocity": 78}, {"time": 89763, "pitch": 69, "duration": 61, "velocity": 82}, {"time": 90004, "pitch": 46, "duration": 60, "velocity": 80}, {"time": 90004, "pitch": 69, "duration": 60, "velocity": 68}, {"time": 90124, "pitch": 69, "duration": 61, "velocity": 57}, {"time": 90245, "pitch": 35, "duration": 59, "velocity": 107}, {"time": 90245, "pitch": 42, "duration": 69, "velocity": 82}, {"time": 90245, "pitch": 69, "duration": 59, "velocity": 82}, {"time": 90480, "pitch": 46, "duration": 69, "velocity": 80}, {"time": 90480, "pitch": 69, "duration": 59, "velocity": 60}, {"time": 90598, "pitch": 69, "duration": 59, "velocity": 73}, {"time": 90716, "pitch": 35, "duration": 60, "velocity": 107}, {"time": 90716, "pitch": 40, "duration": 60, "velocity": 122}, {"time": 90716, "pitch": 42, "duration": 70, "velocity": 85}, {"time": 90716, "pitch": 69, "duration": 60, "velocity": 82}, {"time": 90957, "pitch": 46, "duration": 70, "velocity": 80}, {"time": 90957, "pitch": 69, "duration": 60, "velocity": 75}, {"time": 91077, "pitch": 69, "duration": 60, "velocity": 64}, {"time": 91198, "pitch": 35, "duration": 60, "velocity": 102}, {"time": 91198, "pitch": 42, "duration": 70, "velocity": 90}, {"time": 91198, "pitch": 69, "duration": 60, "velocity": 97}, {"time": 91438, "pitch": 46, "duration": 71, "velocity": 80}, {"time": 91438, "pitch": 69, "duration": 61, "velocity": 80}, {"time": 91559, "pitch": 69, "duration": 60, "velocity": 80}, {"time": 91679, "pitch": 35, "duration": 60, "velocity": 107}, {"time": 91679, "pitch": 40, "duration": 60, "velocity": 122}, {"time": 91679, "pitch": 42, "duration": 60, "velocity": 78}, {"time": 91679, "pitch": 69, "duration": 60, "velocity": 82}, {"time": 91920, "pitch": 46, "duration": 60, "velocity": 80}, {"time": 91920, "pitch": 69, "duration": 60, "velocity": 68}, {"time": 92040, "pitch": 69, "duration": 61, "velocity": 57}, {"time": 92161, "pitch": 35, "duration": 60, "velocity": 107}, {"time": 92161, "pitch": 42, "duration": 70, "velocity": 82}, {"time": 92161, "pitch": 69, "duration": 60, "velocity": 82}, {"time": 92402, "pitch": 46, "duration": 70, "velocity": 80}, {"time": 92402, "pitch": 69, "duration": 60, "velocity": 60}, {"time": 92522, "pitch": 69, "duration": 60, "velocity": 73}, {"time": 92642, "pitch": 35, "duration": 61, "velocity": 107}, {"time": 92642, "pitch": 40, "duration": 61, "velocity": 122}, {"time": 92642, "pitch": 42, "duration": 71, "velocity": 85}, {"time": 92642, "pitch": 69, "duration": 61, "velocity": 82}, {"time": 92883, "pitch": 35, "duration": 60, "velocity": 107}, {"time": 92883, "pitch": 46, "duration": 70, "velocity": 80}, {"time": 92883, "pitch": 49, "duration": 50, "velocity": 112}, {"time": 92883, "pitch": 69, "duration": 60, "velocity": 75}, {"time": 93004, "pitch": 69, "duration": 60, "velocity": 64}, {"time": 93124, "pitch": 35, "duration": 59, "velocity": 102}, {"time": 93124, "pitch": 42, "duration": 69, "velocity": 90}, {"time": 93124, "pitch": 69, "duration": 59, "velocity": 97}, {"time": 93360, "pitch": 46, "duration": 68, "velocity": 80}, {"time": 93360, "pitch": 69, "duration": 58, "velocity": 80}, {"time": 93477, "pitch": 69, "duration": 59, "velocity": 80}, {"time": 93595, "pitch": 35, "duration": 60, "velocity": 107}, {"time": 93595, "pitch": 40, "duration": 60, "velocity": 122}, {"time": 93595, "pitch": 42, "duration": 60, "velocity": 78}, {"time": 93595, "pitch": 69, "duration": 60, "velocity": 82}, {"time": 93836, "pitch": 46, "duration": 60, "velocity": 80}, {"time": 93836, "pitch": 69, "duration": 60, "velocity": 68}, {"time": 93956, "pitch": 69, "duration": 61, "velocity": 57}, {"time": 94077, "pitch": 35, "duration": 60, "velocity": 107}, {"time": 94077, "pitch": 42, "duration": 70, "velocity": 82}, {"time": 94077, "pitch": 69, "duration": 60, "velocity": 82}, {"time": 94317, "pitch": 46, "duration": 71, "velocity": 80}, {"time": 94317, "pitch": 69, "duration": 61, "velocity": 60}, {"time": 94438, "pitch": 69, "duration": 60, "velocity": 73}, {"time": 94558, "pitch": 35, "duration": 60, "velocity": 107}, {"time": 94558, "pitch": 40, "duration": 60, "velocity": 122}, {"time": 94558, "pitch": 42, "duration": 71, "velocity": 85}, {"time": 94558, "pitch": 69, "duration": 60, "velocity": 82}, {"time": 94799, "pitch": 35, "duration": 60, "velocity": 107}, {"time": 94799, "pitch": 46, "duration": 70, "velocity": 80}, {"time": 94799, "pitch": 57, "duration": 50, "velocity": 112}, {"time": 94799, "pitch": 69, "duration": 60, "velocity": 75}, {"time": 94919, "pitch": 69, "duration": 61, "velocity": 64}, {"time": 95040, "pitch": 35, "duration": 60, "velocity": 102}, {"time": 95040, "pitch": 42, "duration": 70, "velocity": 90}, {"time": 95040, "pitch": 69, "duration": 60, "velocity": 97}, {"time": 95281, "pitch": 46, "duration": 70, "velocity": 80}, {"time": 95281, "pitch": 69, "duration": 60, "velocity": 80}, {"time": 95401, "pitch": 69, "duration": 60, "velocity": 80}, {"time": 95521, "pitch": 35, "duration": 61, "velocity": 107}, {"time": 95521, "pitch": 40, "duration": 61, "velocity": 122}, {"time": 95521, "pitch": 42, "duration": 61, "velocity": 78}, {"time": 95521, "pitch": 57, "duration": 51, "velocity": 127}, {"time": 95521, "pitch": 69, "duration": 61, "velocity": 82}, {"time": 95762, "pitch": 46, "duration": 60, "velocity": 80}, {"time": 95762, "pitch": 69, "duration": 60, "velocity": 68}, {"time": 95883, "pitch": 69, "duration": 60, "velocity": 57}, {"time": 96003, "pitch": 35, "duration": 60, "velocity": 107}, {"time": 96003, "pitch": 42, "duration": 70, "velocity": 82}, {"time": 96003, "pitch": 69, "duration": 60, "velocity": 82}, {"time": 96244, "pitch": 46, "duration": 70, "velocity": 80}, {"time": 96244, "pitch": 69, "duration": 60, "velocity": 60}, {"time": 96364, "pitch": 69, "duration": 60, "velocity": 73}, {"time": 96485, "pitch": 35, "duration": 58, "velocity": 107}, {"time": 96485, "pitch": 40, "duration": 58, "velocity": 122}, {"time": 96485, "pitch": 42, "duration": 68, "velocity": 85}, {"time": 96485, "pitch": 69, "duration": 58, "velocity": 82}, {"time": 96720, "pitch": 46, "duration": 69, "velocity": 80}, {"time": 96720, "pitch": 69, "duration": 59, "velocity": 75}, {"time": 96838, "pitch": 69, "duration": 59, "velocity": 64}, {"time": 96956, "pitch": 35, "duration": 60, "velocity": 102}, {"time": 96956, "pitch": 42, "duration": 70, "velocity": 90}, {"time": 96956, "pitch": 57, "duration": 60, "velocity": 112}, {"time": 97197, "pitch": 46, "duration": 70, "velocity": 80}, {"time": 97437, "pitch": 35, "duration": 61, "velocity": 107}, {"time": 97437, "pitch": 40, "duration": 61, "velocity": 122}, {"time": 97437, "pitch": 42, "duration": 61, "velocity": 78}, {"time": 97678, "pitch": 46, "duration": 60, "velocity": 80}, {"time": 97919, "pitch": 35, "duration": 60, "velocity": 107}, {"time": 97919, "pitch": 42, "duration": 70, "velocity": 82}, {"time": 98160, "pitch": 46, "duration": 70, "velocity": 80}, {"time": 98401, "pitch": 35, "duration": 60, "velocity": 107}, {"time": 98401, "pitch": 40, "duration": 60, "velocity": 122}, {"time": 98401, "pitch": 42, "duration": 70, "velocity": 85}, {"time": 98641, "pitch": 46, "duration": 71, "velocity": 80}, {"time": 98882, "pitch": 35, "duration": 60, "velocity": 102}, {"time": 98882, "pitch": 42, "duration": 70, "velocity": 90}, {"time": 99123, "pitch": 46, "duration": 70, "velocity": 80}, {"time": 99364, "pitch": 35, "duration": 59, "velocity": 107}, {"time": 99364, "pitch": 40, "duration": 59, "velocity": 122}, {"time": 99364, "pitch": 42, "duration": 59, "velocity": 78}, {"time": 99599, "pitch": 46, "duration": 59, "velocity": 80}, {"time": 99835, "pitch": 35, "duration": 60, "velocity": 107}, {"time": 99835, "pitch": 42, "duration": 70, "velocity": 82}, {"time": 100076, "pitch": 46, "duration": 70, "velocity": 80}, {"time": 100200, "pitch": 35, "duration": 60, "velocity": 107}, {"time": 100316, "pitch": 35, "duration": 61, "velocity": 107}, {"time": 100316, "pitch": 40, "duration": 61, "velocity": 122}, {"time": 100316, "pitch": 42, "duration": 71, "velocity": 85}, {"time": 100557, "pitch": 46, "duration": 70, "velocity": 80}, {"time": 100682, "pitch": 35, "duration": 60, "velocity": 107}, {"time": 100798, "pitch": 35, "duration": 60, "velocity": 102}, {"time": 100798, "pitch": 42, "duration": 70, "velocity": 90}, {"time": 101039, "pitch": 46, "duration": 70, "velocity": 80}, {"time": 101280, "pitch": 35, "duration": 60, "velocity": 107}, {"time": 101280, "pitch": 40, "duration": 60, "velocity": 122}, {"time": 101280, "pitch": 42, "duration": 60, "velocity": 78}, {"time": 101520, "pitch": 46, "duration": 61, "velocity": 80}, {"time": 101761, "pitch": 35, "duration": 60, "velocity": 107}, {"time": 101761, "pitch": 42, "duration": 70, "velocity": 82}, {"time": 102002, "pitch": 46, "duration": 70, "velocity": 80}, {"time": 102243, "pitch": 35, "duration": 60, "velocity": 107}, {"time": 102243, "pitch": 40, "duration": 60, "velocity": 122}, {"time": 102243, "pitch": 42, "duration": 70, "velocity": 85}, {"time": 102484, "pitch": 46, "duration": 70, "velocity": 80}, {"time": 102724, "pitch": 35, "duration": 59, "velocity": 102}, {"time": 102724, "pitch": 40, "duration": 59, "velocity": 122}, {"time": 102724, "pitch": 42, "duration": 69, "velocity": 90}, {"time": 102842, "pitch": 40, "duration": 59, "velocity": 122}, {"time": 102960, "pitch": 40, "duration": 59, "velocity": 122}, {"time": 102960, "pitch": 46, "duration": 69, "velocity": 80}, {"time": 103078, "pitch": 40, "duration": 59, "velocity": 122}, {"time": 103196, "pitch": 35, "duration": 60, "velocity": 107}, {"time": 103196, "pitch": 40, "duration": 60, "velocity": 122}, {"time": 103196, "pitch": 42, "duration": 60, "velocity": 78}, {"time": 103196, "pitch": 57, "duration": 1444, "velocity": 127}, {"time": 103316, "pitch": 40, "duration": 60, "velocity": 122}, {"time": 103436, "pitch": 46, "duration": 61, "velocity": 80}, {"time": 103557, "pitch": 40, "duration": 60, "velocity": 122}, {"time": 103677, "pitch": 35, "duration": 60, "velocity": 107}, {"time": 103677, "pitch": 42, "duration": 70, "velocity": 82}, {"time": 103797, "pitch": 40, "duration": 61, "velocity": 122}, {"time": 103918, "pitch": 46, "duration": 70, "velocity": 80}, {"time": 104038, "pitch": 40, "duration": 60, "velocity": 122}, {"time": 104042, "pitch": 35, "duration": 60, "velocity": 107}, {"time": 104159, "pitch": 35, "duration": 60, "velocity": 107}, {"time": 104159, "pitch": 40, "duration": 60, "velocity": 122}, {"time": 104159, "pitch": 42, "duration": 70, "velocity": 85}, {"time": 104279, "pitch": 40, "duration": 60, "velocity": 122}, {"time": 104399, "pitch": 40, "duration": 61, "velocity": 122}, {"time": 104399, "pitch": 46, "duration": 71, "velocity": 80}, {"time": 104520, "pitch": 40, "duration": 60, "velocity": 122}, {"time": 104524, "pitch": 35, "duration": 60, "velocity": 107}, {"time": 104640, "pitch": 35, "duration": 60, "velocity": 102}, {"time": 104640, "pitch": 42, "duration": 70, "velocity": 90}, {"time": 104640, "pitch": 55, "duration": 50, "velocity": 122}, {"time": 104881, "pitch": 46, "duration": 70, "velocity": 80}, {"time": 105122, "pitch": 35, "duration": 60, "velocity": 107}, {"time": 105122, "pitch": 40, "duration": 60, "velocity": 122}, {"time": 105122, "pitch": 42, "duration": 60, "velocity": 78}, {"time": 105363, "pitch": 46, "duration": 60, "velocity": 80}, {"time": 105603, "pitch": 35, "duration": 61, "velocity": 107}, {"time": 105603, "pitch": 42, "duration": 71, "velocity": 82}, {"time": 105844, "pitch": 46, "duration": 70, "velocity": 80}, {"time": 106085, "pitch": 35, "duration": 59, "velocity": 107}, {"time": 106085, "pitch": 40, "duration": 59, "velocity": 122}, {"time": 106085, "pitch": 42, "duration": 69, "velocity": 85}, {"time": 106321, "pitch": 46, "duration": 68, "velocity": 80}, {"time": 106556, "pitch": 35, "duration": 60, "velocity": 102}, {"time": 106556, "pitch": 42, "duration": 70, "velocity": 90}, {"time": 106797, "pitch": 46, "duration": 70, "velocity": 80}, {"time": 107038, "pitch": 35, "duration": 60, "velocity": 107}, {"time": 107038, "pitch": 40, "duration": 60, "velocity": 122}, {"time": 107038, "pitch": 42, "duration": 60, "velocity": 78}, {"time": 107279, "pitch": 46, "duration": 60, "velocity": 80}, {"time": 107519, "pitch": 35, "duration": 61, "velocity": 107}, {"time": 107519, "pitch": 42, "duration": 71, "velocity": 82}, {"time": 107760, "pitch": 46, "duration": 70, "velocity": 80}, {"time": 108001, "pitch": 35, "duration": 60, "velocity": 107}, {"time": 108001, "pitch": 40, "duration": 60, "velocity": 122}, {"time": 108001, "pitch": 42, "duration": 70, "velocity": 85}, {"time": 108242, "pitch": 46, "duration": 70, "velocity": 80}, {"time": 108483, "pitch": 35, "duration": 60, "velocity": 102}, {"time": 108483, "pitch": 42, "duration": 70, "velocity": 90}, {"time": 108723, "pitch": 46, "duration": 71, "velocity": 80}, {"time": 108964, "pitch": 35, "duration": 59, "velocity": 107}, {"time": 108964, "pitch": 40, "duration": 59, "velocity": 122}, {"time": 108964, "pitch": 42, "duration": 59, "velocity": 78}, {"time": 109200, "pitch": 46, "duration": 59, "velocity": 80}, {"time": 109435, "pitch": 35, "duration": 60, "velocity": 107}, {"time": 109435, "pitch": 42, "duration": 70, "velocity": 82}, {"time": 109676, "pitch": 46, "duration": 70, "velocity": 80}, {"time": 109917, "pitch": 35, "duration": 60, "velocity": 107}, {"time": 109917, "pitch": 40, "duration": 60, "velocity": 122}, {"time": 109917, "pitch": 42, "duration": 70, "velocity": 85}, {"time": 110158, "pitch": 46, "duration": 70, "velocity": 80}, {"time": 110398, "pitch": 35, "duration": 61, "velocity": 102}, {"time": 110398, "pitch": 42, "duration": 71, "velocity": 90}, {"time": 110639, "pitch": 46, "duration": 70, "velocity": 80}, {"time": 110880, "pitch": 35, "duration": 60, "velocity": 107}, {"time": 110880, "pitch": 40, "duration": 60, "velocity": 122}, {"time": 110880, "pitch": 42, "duration": 60, "velocity": 78}, {"time": 111121, "pitch": 46, "duration": 60, "velocity": 80}, {"time": 111362, "pitch": 35, "duration": 60, "velocity": 107}, {"time": 111362, "pitch": 42, "duration": 70, "velocity": 82}, {"time": 111602, "pitch": 46, "duration": 71, "velocity": 80}, {"time": 111843, "pitch": 35, "duration": 60, "velocity": 107}, {"time": 111843, "pitch": 40, "duration": 60, "velocity": 122}, {"time": 111843, "pitch": 42, "duration": 70, "velocity": 85}, {"time": 111964, "pitch": 40, "duration": 60, "velocity": 122}, {"time": 112084, "pitch": 40, "duration": 60, "velocity": 122}, {"time": 112084, "pitch": 46, "duration": 70, "velocity": 80}, {"time": 112204, "pitch": 40, "duration": 61, "velocity": 122}, {"time": 112325, "pitch": 35, "duration": 59, "velocity": 102}, {"time": 112325, "pitch": 42, "duration": 68, "velocity": 90}, {"time": 112560, "pitch": 46, "duration": 69, "velocity": 80}, {"time": 112796, "pitch": 35, "duration": 60, "velocity": 107}, {"time": 112796, "pitch": 40, "duration": 60, "velocity": 122}, {"time": 112796, "pitch": 42, "duration": 60, "velocity": 78}, {"time": 113037, "pitch": 46, "duration": 60, "velocity": 80}, {"time": 113277, "pitch": 35, "duration": 61, "velocity": 107}, {"time": 113277, "pitch": 42, "duration": 71, "velocity": 82}, {"time": 113518, "pitch": 46, "duration": 71, "velocity": 80}, {"time": 113759, "pitch": 35, "duration": 60, "velocity": 107}, {"time": 113759, "pitch": 40, "duration": 60, "velocity": 122}, {"time": 113759, "pitch": 42, "duration": 70, "velocity": 85}, {"time": 114000, "pitch": 46, "duration": 70, "velocity": 80}, {"time": 114241, "pitch": 35, "duration": 60, "velocity": 102}, {"time": 114241, "pitch": 42, "duration": 70, "velocity": 90}, {"time": 114481, "pitch": 46, "duration": 71, "velocity": 80}, {"time": 114722, "pitch": 35, "duration": 60, "velocity": 107}, {"time": 114722, "pitch": 40, "duration": 60, "velocity": 122}, {"time": 114722, "pitch": 42, "duration": 60, "velocity": 78}, {"time": 114963, "pitch": 46, "duration": 60, "velocity": 80}, {"time": 115204, "pitch": 35, "duration": 59, "velocity": 107}, {"time": 115204, "pitch": 42, "duration": 68, "velocity": 82}, {"time": 115439, "pitch": 46, "duration": 69, "velocity": 80}, {"time": 115675, "pitch": 35, "duration": 60, "velocity": 107}, {"time": 115675, "pitch": 40, "duration": 60, "velocity": 122}, {"time": 115675, "pitch": 42, "duration": 70, "velocity": 85}, {"time": 115916, "pitch": 35, "duration": 60, "velocity": 107}, {"time": 115916, "pitch": 46, "duration": 70, "velocity": 80}, {"time": 115916, "pitch": 49, "duration": 60, "velocity": 106}, {"time": 116157, "pitch": 35, "duration": 60, "velocity": 102}, {"time": 116157, "pitch": 42, "duration": 70, "velocity": 90}, {"time": 116397, "pitch": 46, "duration": 71, "velocity": 80}, {"time": 116638, "pitch": 35, "duration": 60, "velocity": 107}, {"time": 116638, "pitch": 40, "duration": 60, "velocity": 122}, {"time": 116638, "pitch": 42, "duration": 60, "velocity": 78}, {"time": 116879, "pitch": 46, "duration": 60, "velocity": 80}, {"time": 117120, "pitch": 35, "duration": 60, "velocity": 107}, {"time": 117120, "pitch": 42, "duration": 70, "velocity": 82}, {"time": 117361, "pitch": 46, "duration": 70, "velocity": 80}, {"time": 117601, "pitch": 35, "duration": 61, "velocity": 107}, {"time": 117601, "pitch": 40, "duration": 61, "velocity": 122}, {"time": 117601, "pitch": 42, "duration": 71, "velocity": 85}, {"time": 117842, "pitch": 35, "duration": 60, "velocity": 107}, {"time": 117842, "pitch": 46, "duration": 70, "velocity": 80}, {"time": 117842, "pitch": 49, "duration": 60, "velocity": 106}, {"time": 118083, "pitch": 35, "duration": 60, "velocity": 102}, {"time": 118083, "pitch": 42, "duration": 70, "velocity": 90}, {"time": 118324, "pitch": 46, "duration": 70, "velocity": 80}, {"time": 118564, "pitch": 35, "duration": 59, "velocity": 107}, {"time": 118564, "pitch": 40, "duration": 59, "velocity": 122}, {"time": 118564, "pitch": 42, "duration": 59, "velocity": 78}, {"time": 118800, "pitch": 46, "duration": 59, "velocity": 80}, {"time": 119036, "pitch": 35, "duration": 60, "velocity": 107}, {"time": 119036, "pitch": 42, "duration": 70, "velocity": 82}, {"time": 119276, "pitch": 46, "duration": 71, "velocity": 80}, {"time": 119517, "pitch": 35, "duration": 60, "velocity": 107}, {"time": 119517, "pitch": 40, "duration": 60, "velocity": 122}, {"time": 119517, "pitch": 42, "duration": 70, "velocity": 85}, {"time": 119758, "pitch": 46, "duration": 70, "velocity": 80}, {"time": 119999, "pitch": 35, "duration": 60, "velocity": 102}, {"time": 119999, "pitch": 42, "duration": 70, "velocity": 90}, {"time": 120240, "pitch": 46, "duration": 70, "velocity": 80}, {"time": 120480, "pitch": 35, "duration": 61, "velocity": 107}, {"time": 120480, "pitch": 40, "duration": 61, "velocity": 122}, {"time": 120480, "pitch": 42, "duration": 61, "velocity": 78}, {"time": 120721, "pitch": 46, "duration": 60, "velocity": 80}, {"time": 120962, "pitch": 35, "duration": 60, "velocity": 107}, {"time": 120962, "pitch": 42, "duration": 70, "velocity": 82}, {"time": 121203, "pitch": 46, "duration": 70, "velocity": 80}, {"time": 121444, "pitch": 35, "duration": 60, "velocity": 107}, {"time": 121444, "pitch": 40, "duration": 60, "velocity": 122}, {"time": 121444, "pitch": 42, "duration": 70, "velocity": 85}, {"time": 121684, "pitch": 46, "duration": 71, "velocity": 80}, {"time": 121925, "pitch": 35, "duration": 59, "velocity": 102}, {"time": 121925, "pitch": 42, "duration": 69, "velocity": 90}, {"time": 122161, "pitch": 46, "duration": 68, "velocity": 80}, {"time": 122396, "pitch": 35, "duration": 61, "velocity": 107}, {"time": 122396, "pitch": 40, "duration": 61, "velocity": 122}, {"time": 122396, "pitch": 42, "duration": 61, "velocity": 78}, {"time": 122637, "pitch": 46, "duration": 60, "velocity": 80}, {"time": 122878, "pitch": 35, "duration": 60, "velocity": 107}, {"time": 122878, "pitch": 42, "duration": 70, "velocity": 82}, {"time": 123119, "pitch": 46, "duration": 70, "velocity": 80}, {"time": 123359, "pitch": 35, "duration": 61, "velocity": 107}, {"time": 123359, "pitch": 40, "duration": 61, "velocity": 111}, {"time": 123359, "pitch": 42, "duration": 71, "velocity": 85}, {"time": 123480, "pitch": 40, "duration": 60, "velocity": 117}, {"time": 123600, "pitch": 40, "duration": 60, "velocity": 117}, {"time": 123600, "pitch": 46, "duration": 70, "velocity": 80}, {"time": 123721, "pitch": 40, "duration": 60, "velocity": 114}, {"time": 123841, "pitch": 35, "duration": 60, "velocity": 102}, {"time": 123841, "pitch": 42, "duration": 70, "velocity": 90}, {"time": 123841, "pitch": 49, "duration": 50, "velocity": 106}, {"time": 124082, "pitch": 46, "duration": 70, "velocity": 80}, {"time": 124323, "pitch": 35, "duration": 60, "velocity": 107}, {"time": 124323, "pitch": 40, "duration": 60, "velocity": 122}, {"time": 124323, "pitch": 42, "duration": 60, "velocity": 78}, {"time": 124563, "pitch": 46, "duration": 61, "velocity": 80}, {"time": 124804, "pitch": 35, "duration": 59, "velocity": 107}, {"time": 124804, "pitch": 42, "duration": 69, "velocity": 82}, {"time": 125040, "pitch": 46, "duration": 69, "velocity": 80}, {"time": 125275, "pitch": 35, "duration": 61, "velocity": 107}, {"time": 125275, "pitch": 40, "duration": 61, "velocity": 122}, {"time": 125275, "pitch": 42, "duration": 71, "velocity": 85}, {"time": 125516, "pitch": 46, "duration": 70, "velocity": 80}, {"time": 125757, "pitch": 35, "duration": 60, "velocity": 102}, {"time": 125757, "pitch": 42, "duration": 70, "velocity": 90}, {"time": 125998, "pitch": 46, "duration": 70, "velocity": 80}, {"time": 126239, "pitch": 35, "duration": 60, "velocity": 107}, {"time": 126239, "pitch": 40, "duration": 60, "velocity": 122}, {"time": 126239, "pitch": 42, "duration": 60, "velocity": 78}, {"time": 126479, "pitch": 46, "duration": 61, "velocity": 80}, {"time": 126720, "pitch": 35, "duration": 60, "velocity": 107}, {"time": 126720, "pitch": 42, "duration": 70, "velocity": 82}, {"time": 126961, "pitch": 46, "duration": 70, "velocity": 80}, {"time": 127202, "pitch": 35, "duration": 60, "velocity": 107}, {"time": 127202, "pitch": 40, "duration": 60, "velocity": 122}, {"time": 127202, "pitch": 42, "duration": 70, "velocity": 85}, {"time": 127443, "pitch": 46, "duration": 70, "velocity": 80}, {"time": 127683, "pitch": 35, "duration": 61, "velocity": 102}, {"time": 127683, "pitch": 42, "duration": 71, "velocity": 90}, {"time": 127683, "pitch": 57, "duration": 61, "velocity": 112}, {"time": 127924, "pitch": 46, "duration": 70, "velocity": 80}, {"time": 128165, "pitch": 35, "duration": 59, "velocity": 107}, {"time": 128165, "pitch": 40, "duration": 59, "velocity": 122}, {"time": 128165, "pitch": 42, "duration": 59, "velocity": 78}, {"time": 128400, "pitch": 46, "duration": 59, "velocity": 80}, {"time": 128636, "pitch": 35, "duration": 60, "velocity": 107}, {"time": 128636, "pitch": 42, "duration": 70, "velocity": 82}, {"time": 128877, "pitch": 46, "duration": 70, "velocity": 80}, {"time": 129118, "pitch": 35, "duration": 60, "velocity": 107}, {"time": 129118, "pitch": 40, "duration": 60, "velocity": 122}, {"time": 129118, "pitch": 42, "duration": 70, "velocity": 85}, {"time": 129358, "pitch": 46, "duration": 71, "velocity": 80}, {"time": 129599, "pitch": 35, "duration": 60, "velocity": 102}, {"time": 129599, "pitch": 42, "duration": 70, "velocity": 90}, {"time": 129840, "pitch": 46, "duration": 70, "velocity": 80}, {"time": 130081, "pitch": 35, "duration": 60, "velocity": 107}, {"time": 130081, "pitch": 40, "duration": 60, "velocity": 122}, {"time": 130081, "pitch": 42, "duration": 60, "velocity": 78}, {"time": 130322, "pitch": 46, "duration": 60, "velocity": 80}, {"time": 130562, "pitch": 35, "duration": 61, "velocity": 107}, {"time": 130562, "pitch": 40, "duration": 61, "velocity": 122}, {"time": 130562, "pitch": 42, "duration": 71, "velocity": 82}, {"time": 130687, "pitch": 40, "duration": 60, "velocity": 122}, {"time": 130803, "pitch": 40, "duration": 60, "velocity": 122}, {"time": 130803, "pitch": 46, "duration": 70, "velocity": 80}, {"time": 130928, "pitch": 40, "duration": 60, "velocity": 122}, {"time": 131044, "pitch": 35, "duration": 59, "velocity": 107}, {"time": 131044, "pitch": 40, "duration": 59, "velocity": 122}, {"time": 131044, "pitch": 42, "duration": 69, "velocity": 85}, {"time": 131166, "pitch": 40, "duration": 59, "velocity": 122}, {"time": 131280, "pitch": 35, "duration": 58, "velocity": 107}, {"time": 131280, "pitch": 46, "duration": 68, "velocity": 80}, {"time": 131401, "pitch": 40, "duration": 59, "velocity": 122}, {"time": 131515, "pitch": 35, "duration": 60, "velocity": 102}, {"time": 131515, "pitch": 42, "duration": 70, "velocity": 90}, {"time": 131515, "pitch": 49, "duration": 60, "velocity": 106}, {"time": 131756, "pitch": 46, "duration": 70, "velocity": 80}, {"time": 131997, "pitch": 35, "duration": 60, "velocity": 107}, {"time": 131997, "pitch": 40, "duration": 60, "velocity": 122}, {"time": 131997, "pitch": 42, "duration": 60, "velocity": 78}, {"time": 132237, "pitch": 46, "duration": 61, "velocity": 80}, {"time": 132478, "pitch": 35, "duration": 60, "velocity": 107}, {"time": 132478, "pitch": 42, "duration": 71, "velocity": 82}, {"time": 132719, "pitch": 46, "duration": 70, "velocity": 80}, {"time": 132960, "pitch": 35, "duration": 60, "velocity": 107}, {"time": 132960, "pitch": 40, "duration": 60, "velocity": 122}, {"time": 132960, "pitch": 42, "duration": 70, "velocity": 85}, {"time": 133201, "pitch": 46, "duration": 70, "velocity": 80}, {"time": 133441, "pitch": 35, "duration": 61, "velocity": 102}, {"time": 133441, "pitch": 42, "duration": 71, "velocity": 90}, {"time": 133682, "pitch": 46, "duration": 70, "velocity": 80}, {"time": 133923, "pitch": 35, "duration": 60, "velocity": 107}, {"time": 133923, "pitch": 40, "duration": 60, "velocity": 122}, {"time": 133923, "pitch": 42, "duration": 60, "velocity": 78}, {"time": 134164, "pitch": 46, "duration": 60, "velocity": 80}, {"time": 134405, "pitch": 35, "duration": 58, "velocity": 107}, {"time": 134405, "pitch": 42, "duration": 68, "velocity": 82}, {"time": 134640, "pitch": 46, "duration": 69, "velocity": 80}, {"time": 134876, "pitch": 35, "duration": 60, "velocity": 107}, {"time": 134876, "pitch": 40, "duration": 60, "velocity": 122}, {"time": 134876, "pitch": 42, "duration": 70, "velocity": 85}, {"time": 135117, "pitch": 35, "duration": 60, "velocity": 107}, {"time": 135117, "pitch": 46, "duration": 70, "velocity": 80}, {"time": 135117, "pitch": 57, "duration": 50, "velocity": 112}, {"time": 135357, "pitch": 35, "duration": 61, "velocity": 102}, {"time": 135357, "pitch": 42, "duration": 71, "velocity": 90}, {"time": 135598, "pitch": 46, "duration": 70, "velocity": 80}, {"time": 135839, "pitch": 35, "duration": 60, "velocity": 107}, {"time": 135839, "pitch": 40, "duration": 60, "velocity": 122}, {"time": 135839, "pitch": 42, "duration": 60, "velocity": 78}, {"time": 136080, "pitch": 46, "duration": 60, "velocity": 80}, {"time": 136321, "pitch": 35, "duration": 60, "velocity": 107}, {"time": 136321, "pitch": 42, "duration": 70, "velocity": 82}, {"time": 136561, "pitch": 46, "duration": 71, "velocity": 80}, {"time": 136802, "pitch": 35, "duration": 60, "velocity": 107}, {"time": 136802, "pitch": 40, "duration": 60, "velocity": 122}, {"time": 136802, "pitch": 42, "duration": 70, "velocity": 85}, {"time": 137043, "pitch": 46, "duration": 70, "velocity": 80}, {"time": 137284, "pitch": 35, "duration": 59, "velocity": 102}, {"time": 137284, "pitch": 46, "duration": 68, "velocity": 70}, {"time": 137284, "pitch": 57, "duration": 1675, "velocity": 127}, {"time": 137380, "pitch": 42, "duration": 69, "velocity": 45}, {"time": 138718, "pitch": 35, "duration": 60, "velocity": 107}, {"time": 138718, "pitch": 40, "duration": 60, "velocity": 122}, {"time": 138718, "pitch": 42, "duration": 70, "velocity": 85}, {"time": 138959, "pitch": 35, "duration": 60, "velocity": 107}, {"time": 138959, "pitch": 46, "duration": 70, "velocity": 80}, {"time": 138959, "pitch": 57, "duration": 50, "velocity": 112}, {"time": 139200, "pitch": 35, "duration": 60, "velocity": 102}, {"time": 139200, "pitch": 42, "duration": 70, "velocity": 90}, {"time": 139200, "pitch": 69, "duration": 60, "velocity": 97}, {"time": 139440, "pitch": 46, "duration": 71, "velocity": 80}, {"time": 139440, "pitch": 69, "duration": 61, "velocity": 80}, {"time": 139561, "pitch": 69, "duration": 60, "velocity": 80}, {"time": 139681, "pitch": 35, "duration": 60, "velocity": 107}, {"time": 139681, "pitch": 40, "duration": 60, "velocity": 122}, {"time": 139681, "pitch": 42, "duration": 60, "velocity": 78}, {"time": 139681, "pitch": 69, "duration": 60, "velocity": 82}, {"time": 139922, "pitch": 46, "duration": 60, "velocity": 80}, {"time": 139922, "pitch": 69, "duration": 60, "velocity": 68}, {"time": 140042, "pitch": 69, "duration": 61, "velocity": 57}, {"time": 140163, "pitch": 35, "duration": 60, "velocity": 107}, {"time": 140163, "pitch": 42, "duration": 70, "velocity": 82}, {"time": 140163, "pitch": 69, "duration": 60, "velocity": 82}, {"time": 140404, "pitch": 46, "duration": 70, "velocity": 80}, {"time": 140404, "pitch": 69, "duration": 60, "velocity": 60}, {"time": 140524, "pitch": 69, "duration": 60, "velocity": 73}, {"time": 140644, "pitch": 35, "duration": 59, "velocity": 107}, {"time": 140644, "pitch": 40, "duration": 59, "velocity": 122}, {"time": 140644, "pitch": 42, "duration": 69, "velocity": 85}, {"time": 140644, "pitch": 69, "duration": 59, "velocity": 82}, {"time": 140880, "pitch": 46, "duration": 69, "velocity": 80}, {"time": 140880, "pitch": 69, "duration": 59, "velocity": 75}, {"time": 140998, "pitch": 69, "duration": 59, "velocity": 64}, {"time": 141116, "pitch": 35, "duration": 60, "velocity": 102}, {"time": 141116, "pitch": 42, "duration": 70, "velocity": 90}, {"time": 141116, "pitch": 69, "duration": 60, "velocity": 97}, {"time": 141356, "pitch": 46, "duration": 71, "velocity": 80}, {"time": 141356, "pitch": 69, "duration": 61, "velocity": 80}, {"time": 141477, "pitch": 69, "duration": 60, "velocity": 80}, {"time": 141597, "pitch": 35, "duration": 60, "velocity": 107}, {"time": 141597, "pitch": 40, "duration": 60, "velocity": 122}, {"time": 141597, "pitch": 42, "duration": 60, "velocity": 78}, {"time": 141597, "pitch": 69, "duration": 60, "velocity": 82}, {"time": 141838, "pitch": 46, "duration": 60, "velocity": 80}, {"time": 141838, "pitch": 69, "duration": 60, "velocity": 68}, {"time": 141958, "pitch": 69, "duration": 60, "velocity": 57}, {"time": 142079, "pitch": 35, "duration": 60, "velocity": 107}, {"time": 142079, "pitch": 42, "duration": 70, "velocity": 82}, {"time": 142079, "pitch": 69, "duration": 60, "velocity": 82}, {"time": 142319, "pitch": 46, "duration": 71, "velocity": 80}, {"time": 142319, "pitch": 69, "duration": 61, "velocity": 60}, {"time": 142440, "pitch": 69, "duration": 60, "velocity": 73}, {"time": 142560, "pitch": 35, "duration": 60, "velocity": 107}, {"time": 142560, "pitch": 40, "duration": 60, "velocity": 122}, {"time": 142560, "pitch": 42, "duration": 70, "velocity": 85}, {"time": 142560, "pitch": 69, "duration": 60, "velocity": 82}, {"time": 142801, "pitch": 46, "duration": 70, "velocity": 80}, {"time": 142801, "pitch": 69, "duration": 60, "velocity": 75}, {"time": 142921, "pitch": 69, "duration": 61, "velocity": 64}, {"time": 143042, "pitch": 35, "duration": 60, "velocity": 102}, {"time": 143042, "pitch": 42, "duration": 70, "velocity": 90}, {"time": 143042, "pitch": 69, "duration": 60, "velocity": 97}, {"time": 143283, "pitch": 46, "duration": 70, "velocity": 80}, {"time": 143283, "pitch": 69, "duration": 60, "velocity": 80}, {"time": 143403, "pitch": 69, "duration": 60, "velocity": 80}, {"time": 143523, "pitch": 35, "duration": 61, "velocity": 107}, {"time": 143523, "pitch": 40, "duration": 61, "velocity": 122}, {"time": 143523, "pitch": 42, "duration": 61, "velocity": 78}, {"time": 143523, "pitch": 69, "duration": 61, "velocity": 82}, {"time": 143764, "pitch": 46, "duration": 60, "velocity": 80}, {"time": 143764, "pitch": 69, "duration": 60, "velocity": 68}, {"time": 143885, "pitch": 69, "duration": 60, "velocity": 57}, {"time": 144005, "pitch": 35, "duration": 59, "velocity": 107}, {"time": 144005, "pitch": 42, "duration": 69, "velocity": 82}, {"time": 144005, "pitch": 69, "duration": 59, "velocity": 82}, {"time": 144241, "pitch": 46, "duration": 68, "velocity": 80}, {"time": 144241, "pitch": 69, "duration": 59, "velocity": 60}, {"time": 144358, "pitch": 69, "duration": 59, "velocity": 73}, {"time": 144476, "pitch": 35, "duration": 60, "velocity": 107}, {"time": 144476, "pitch": 40, "duration": 60, "velocity": 122}, {"time": 144476, "pitch": 42, "duration": 70, "velocity": 85}, {"time": 144476, "pitch": 69, "duration": 60, "velocity": 82}, {"time": 144717, "pitch": 46, "duration": 70, "velocity": 80}, {"time": 144717, "pitch": 69, "duration": 60, "velocity": 75}, {"time": 144837, "pitch": 69, "duration": 61, "velocity": 64}, {"time": 144958, "pitch": 35, "duration": 60, "velocity": 102}, {"time": 144958, "pitch": 42, "duration": 70, "velocity": 90}, {"time": 144958, "pitch": 69, "duration": 60, "velocity": 97}, {"time": 145199, "pitch": 46, "duration": 70, "velocity": 80}, {"time": 145199, "pitch": 69, "duration": 60, "velocity": 80}, {"time": 145319, "pitch": 69, "duration": 60, "velocity": 80}, {"time": 145439, "pitch": 35, "duration": 61, "velocity": 107}, {"time": 145439, "pitch": 40, "duration": 61, "velocity": 122}, {"time": 145439, "pitch": 42, "duration": 61, "velocity": 78}, {"time": 145439, "pitch": 69, "duration": 61, "velocity": 82}, {"time": 145680, "pitch": 46, "duration": 60, "velocity": 80}, {"time": 145680, "pitch": 69, "duration": 60, "velocity": 68}, {"time": 145801, "pitch": 69, "duration": 60, "velocity": 57}, {"time": 145921, "pitch": 35, "duration": 60, "velocity": 107}, {"time": 145921, "pitch": 42, "duration": 70, "velocity": 82}, {"time": 145921, "pitch": 69, "duration": 60, "velocity": 82}, {"time": 146162, "pitch": 46, "duration": 70, "velocity": 80}, {"time": 146162, "pitch": 69, "duration": 60, "velocity": 60}, {"time": 146282, "pitch": 69, "duration": 60, "velocity": 73}, {"time": 146403, "pitch": 35, "duration": 60, "velocity": 107}, {"time": 146403, "pitch": 40, "duration": 60, "velocity": 122}, {"time": 146403, "pitch": 42, "duration": 70, "velocity": 85}, {"time": 146403, "pitch": 69, "duration": 60, "velocity": 82}, {"time": 146643, "pitch": 35, "duration": 61, "velocity": 107}, {"time": 146643, "pitch": 46, "duration": 71, "velocity": 80}, {"time": 146643, "pitch": 57, "duration": 50, "velocity": 112}, {"time": 146643, "pitch": 69, "duration": 61, "velocity": 75}, {"time": 146764, "pitch": 69, "duration": 60, "velocity": 64}, {"time": 146884, "pitch": 35, "duration": 59, "velocity": 102}, {"time": 146884, "pitch": 42, "duration": 69, "velocity": 90}, {"time": 146884, "pitch": 69, "duration": 59, "velocity": 97}, {"time": 147120, "pitch": 46, "duration": 68, "velocity": 80}, {"time": 147120, "pitch": 69, "duration": 59, "velocity": 80}, {"time": 147238, "pitch": 69, "duration": 58, "velocity": 80}, {"time": 147355, "pitch": 35, "duration": 60, "velocity": 107}, {"time": 147355, "pitch": 40, "duration": 60, "velocity": 122}, {"time": 147355, "pitch": 42, "duration": 60, "velocity": 78}, {"time": 147355, "pitch": 69, "duration": 60, "velocity": 82}, {"time": 147596, "pitch": 46, "duration": 60, "velocity": 80}, {"time": 147596, "pitch": 69, "duration": 60, "velocity": 68}, {"time": 147716, "pitch": 69, "duration": 61, "velocity": 57}, {"time": 147837, "pitch": 35, "duration": 60, "velocity": 107}, {"time": 147837, "pitch": 42, "duration": 70, "velocity": 82}, {"time": 147837, "pitch": 69, "duration": 60, "velocity": 82}, {"time": 148078, "pitch": 46, "duration": 70, "velocity": 80}, {"time": 148078, "pitch": 69, "duration": 60, "velocity": 60}, {"time": 148198, "pitch": 69, "duration": 60, "velocity": 73}, {"time": 148318, "pitch": 35, "duration": 61, "velocity": 107}, {"time": 148318, "pitch": 40, "duration": 61, "velocity": 122}, {"time": 148318, "pitch": 42, "duration": 71, "velocity": 85}, {"time": 148318, "pitch": 69, "duration": 61, "velocity": 82}, {"time": 148559, "pitch": 46, "duration": 70, "velocity": 80}, {"time": 148559, "pitch": 69, "duration": 60, "velocity": 75}, {"time": 148680, "pitch": 69, "duration": 60, "velocity": 64}, {"time": 148800, "pitch": 35, "duration": 60, "velocity": 102}, {"time": 148800, "pitch": 42, "duration": 70, "velocity": 90}, {"time": 148800, "pitch": 69, "duration": 60, "velocity": 97}, {"time": 149041, "pitch": 46, "duration": 70, "velocity": 80}, {"time": 149041, "pitch": 69, "duration": 60, "velocity": 80}, {"time": 149161, "pitch": 69, "duration": 60, "velocity": 80}, {"time": 149282, "pitch": 35, "duration": 60, "velocity": 107}, {"time": 149282, "pitch": 40, "duration": 60, "velocity": 122}, {"time": 149282, "pitch": 42, "duration": 60, "velocity": 78}, {"time": 149282, "pitch": 69, "duration": 60, "velocity": 82}, {"time": 149522, "pitch": 46, "duration": 61, "velocity": 80}, {"time": 149522, "pitch": 69, "duration": 61, "velocity": 68}, {"time": 149643, "pitch": 69, "duration": 60, "velocity": 57}, {"time": 149763, "pitch": 35, "duration": 60, "velocity": 107}, {"time": 149763, "pitch": 42, "duration": 70, "velocity": 82}, {"time": 149763, "pitch": 69, "duration": 60, "velocity": 82}, {"time": 150004, "pitch": 46, "duration": 70, "velocity": 80}, {"time": 150004, "pitch": 69, "duration": 60, "velocity": 60}, {"time": 150124, "pitch": 69, "duration": 61, "velocity": 73}, {"time": 150245, "pitch": 35, "duration": 59, "velocity": 107}, {"time": 150245, "pitch": 40, "duration": 59, "velocity": 122}, {"time": 150245, "pitch": 42, "duration": 68, "velocity": 85}, {"time": 150245, "pitch": 69, "duration": 59, "velocity": 82}, {"time": 150480, "pitch": 46, "duration": 69, "velocity": 80}, {"time": 150480, "pitch": 69, "duration": 59, "velocity": 75}, {"time": 150598, "pitch": 69, "duration": 59, "velocity": 64}, {"time": 150716, "pitch": 35, "duration": 60, "velocity": 102}, {"time": 150716, "pitch": 42, "duration": 70, "velocity": 90}, {"time": 150716, "pitch": 69, "duration": 60, "velocity": 97}, {"time": 150957, "pitch": 46, "duration": 70, "velocity": 80}, {"time": 150957, "pitch": 69, "duration": 60, "velocity": 80}, {"time": 151077, "pitch": 69, "duration": 60, "velocity": 80}, {"time": 151197, "pitch": 35, "duration": 61, "velocity": 107}, {"time": 151197, "pitch": 40, "duration": 61, "velocity": 122}, {"time": 151197, "pitch": 42, "duration": 61, "velocity": 78}, {"time": 151197, "pitch": 69, "duration": 61, "velocity": 82}, {"time": 151438, "pitch": 46, "duration": 60, "velocity": 80}, {"time": 151438, "pitch": 69, "duration": 60, "velocity": 68}, {"time": 151559, "pitch": 69, "duration": 60, "velocity": 57}, {"time": 151679, "pitch": 35, "duration": 60, "velocity": 107}, {"time": 151679, "pitch": 42, "duration": 70, "velocity": 82}, {"time": 151679, "pitch": 69, "duration": 60, "velocity": 82}, {"time": 151920, "pitch": 46, "duration": 70, "velocity": 80}, {"time": 151920, "pitch": 69, "duration": 60, "velocity": 60}, {"time": 152040, "pitch": 69, "duration": 60, "velocity": 73}, {"time": 152161, "pitch": 35, "duration": 60, "velocity": 107}, {"time": 152161, "pitch": 40, "duration": 60, "velocity": 122}, {"time": 152161, "pitch": 42, "duration": 70, "velocity": 85}, {"time": 152161, "pitch": 69, "duration": 60, "velocity": 82}, {"time": 152401, "pitch": 46, "duration": 71, "velocity": 80}, {"time": 152401, "pitch": 69, "duration": 61, "velocity": 75}, {"time": 152522, "pitch": 69, "duration": 60, "velocity": 64}, {"time": 152642, "pitch": 35, "duration": 60, "velocity": 102}, {"time": 152642, "pitch": 42, "duration": 70, "velocity": 90}, {"time": 152642, "pitch": 69, "duration": 60, "velocity": 97}, {"time": 152883, "pitch": 46, "duration": 70, "velocity": 80}, {"time": 152883, "pitch": 69, "duration": 60, "velocity": 80}, {"time": 153003, "pitch": 69, "duration": 61, "velocity": 80}, {"time": 153124, "pitch": 35, "duration": 59, "velocity": 107}, {"time": 153124, "pitch": 40, "duration": 59, "velocity": 122}, {"time": 153124, "pitch": 42, "duration": 59, "velocity": 78}, {"time": 153124, "pitch": 69, "duration": 59, "velocity": 82}, {"time": 153359, "pitch": 46, "duration": 59, "velocity": 80}, {"time": 153359, "pitch": 69, "duration": 59, "velocity": 68}, {"time": 153477, "pitch": 69, "duration": 59, "velocity": 57}, {"time": 153595, "pitch": 35, "duration": 60, "velocity": 107}, {"time": 153595, "pitch": 42, "duration": 70, "velocity": 82}, {"time": 153595, "pitch": 69, "duration": 60, "velocity": 82}, {"time": 153836, "pitch": 46, "duration": 70, "velocity": 80}, {"time": 153836, "pitch": 69, "duration": 60, "velocity": 60}, {"time": 153956, "pitch": 69, "duration": 60, "velocity": 73}, {"time": 154077, "pitch": 35, "duration": 60, "velocity": 107}, {"time": 154077, "pitch": 40, "duration": 60, "velocity": 122}, {"time": 154077, "pitch": 42, "duration": 70, "velocity": 85}, {"time": 154077, "pitch": 69, "duration": 60, "velocity": 82}, {"time": 154317, "pitch": 35, "duration": 61, "velocity": 107}, {"time": 154317, "pitch": 46, "duration": 71, "velocity": 80}, {"time": 154317, "pitch": 49, "duration": 51, "velocity": 112}, {"time": 154317, "pitch": 69, "duration": 61, "velocity": 75}, {"time": 154438, "pitch": 69, "duration": 60, "velocity": 64}, {"time": 154558, "pitch": 35, "duration": 60, "velocity": 102}, {"time": 154558, "pitch": 42, "duration": 70, "velocity": 90}, {"time": 154558, "pitch": 69, "duration": 60, "velocity": 97}, {"time": 154799, "pitch": 46, "duration": 70, "velocity": 80}, {"time": 154799, "pitch": 69, "duration": 60, "velocity": 80}, {"time": 154919, "pitch": 69, "duration": 61, "velocity": 80}, {"time": 155040, "pitch": 35, "duration": 60, "velocity": 107}, {"time": 155040, "pitch": 40, "duration": 60, "velocity": 122}, {"time": 155040, "pitch": 42, "duration": 60, "velocity": 78}, {"time": 155040, "pitch": 69, "duration": 60, "velocity": 82}, {"time": 155281, "pitch": 46, "duration": 60, "velocity": 80}, {"time": 155281, "pitch": 69, "duration": 60, "velocity": 68}, {"time": 155401, "pitch": 69, "duration": 60, "velocity": 57}, {"time": 155521, "pitch": 35, "duration": 61, "velocity": 107}, {"time": 155521, "pitch": 42, "duration": 71, "velocity": 82}, {"time": 155521, "pitch": 69, "duration": 61, "velocity": 82}, {"time": 155762, "pitch": 46, "duration": 70, "velocity": 80}, {"time": 155762, "pitch": 69, "duration": 60, "velocity": 60}, {"time": 155883, "pitch": 69, "duration": 60, "velocity": 73}, {"time": 156003, "pitch": 35, "duration": 60, "velocity": 107}, {"time": 156003, "pitch": 40, "duration": 60, "velocity": 122}, {"time": 156003, "pitch": 42, "duration": 70, "velocity": 85}, {"time": 156003, "pitch": 69, "duration": 60, "velocity": 82}, {"time": 156244, "pitch": 35, "duration": 60, "velocity": 107}, {"time": 156244, "pitch": 46, "duration": 70, "velocity": 80}, {"time": 156244, "pitch": 57, "duration": 50, "velocity": 112}, {"time": 156244, "pitch": 69, "duration": 60, "velocity": 75}, {"time": 156364, "pitch": 69, "duration": 60, "velocity": 64}, {"time": 156484, "pitch": 35, "duration": 59, "velocity": 102}, {"time": 156484, "pitch": 42, "duration": 69, "velocity": 90}, {"time": 156484, "pitch": 69, "duration": 59, "velocity": 97}, {"time": 156720, "pitch": 46, "duration": 69, "velocity": 80}, {"time": 156720, "pitch": 69, "duration": 59, "velocity": 80}, {"time": 156838, "pitch": 69, "duration": 59, "velocity": 80}, {"time": 156956, "pitch": 35, "duration": 60, "velocity": 107}, {"time": 156956, "pitch": 40, "duration": 60, "velocity": 122}, {"time": 156956, "pitch": 42, "duration": 60, "velocity": 78}, {"time": 156956, "pitch": 57, "duration": 50, "velocity": 127}, {"time": 156956, "pitch": 69, "duration": 60, "velocity": 82}, {"time": 157196, "pitch": 46, "duration": 61, "velocity": 80}, {"time": 157196, "pitch": 69, "duration": 61, "velocity": 68}, {"time": 157317, "pitch": 69, "duration": 60, "velocity": 57}, {"time": 157437, "pitch": 35, "duration": 60, "velocity": 107}, {"time": 157437, "pitch": 42, "duration": 70, "velocity": 82}, {"time": 157437, "pitch": 69, "duration": 60, "velocity": 82}, {"time": 157678, "pitch": 46, "duration": 70, "velocity": 80}, {"time": 157678, "pitch": 69, "duration": 60, "velocity": 60}, {"time": 157798, "pitch": 69, "duration": 61, "velocity": 73}, {"time": 157919, "pitch": 35, "duration": 60, "velocity": 107}, {"time": 157919, "pitch": 40, "duration": 60, "velocity": 122}, {"time": 157919, "pitch": 42, "duration": 70, "velocity": 85}, {"time": 157919, "pitch": 69, "duration": 60, "velocity": 82}, {"time": 158039, "pitch": 40, "duration": 60, "velocity": 122}, {"time": 158160, "pitch": 40, "duration": 60, "velocity": 122}, {"time": 158160, "pitch": 46, "duration": 70, "velocity": 80}, {"time": 158160, "pitch": 69, "duration": 60, "velocity": 75}, {"time": 158280, "pitch": 40, "duration": 60, "velocity": 122}, {"time": 158280, "pitch": 69, "duration": 60, "velocity": 64}, {"time": 158400, "pitch": 35, "duration": 61, "velocity": 102}, {"time": 158400, "pitch": 42, "duration": 71, "velocity": 90}, {"time": 158400, "pitch": 69, "duration": 61, "velocity": 97}, {"time": 158641, "pitch": 46, "duration": 70, "velocity": 80}, {"time": 158641, "pitch": 69, "duration": 60, "velocity": 80}, {"time": 158762, "pitch": 69, "duration": 60, "velocity": 80}, {"time": 158882, "pitch": 35, "duration": 60, "velocity": 107}, {"time": 158882, "pitch": 39, "duration": 357, "velocity": 127}, {"time": 158882, "pitch": 40, "duration": 60, "velocity": 122}, {"time": 158882, "pitch": 42, "duration": 60, "velocity": 78}, {"time": 158882, "pitch": 69, "duration": 60, "velocity": 82}, {"time": 159123, "pitch": 46, "duration": 60, "velocity": 80}, {"time": 159123, "pitch": 69, "duration": 60, "velocity": 68}, {"time": 159243, "pitch": 69, "duration": 60, "velocity": 57}, {"time": 159364, "pitch": 35, "duration": 60, "velocity": 107}, {"time": 159364, "pitch": 42, "duration": 70, "velocity": 82}, {"time": 159364, "pitch": 69, "duration": 60, "velocity": 82}, {"time": 159604, "pitch": 46, "duration": 71, "velocity": 80}, {"time": 159604, "pitch": 69, "duration": 61, "velocity": 60}, {"time": 159725, "pitch": 69, "duration": 60, "velocity": 73}, {"time": 159845, "pitch": 35, "duration": 59, "velocity": 107}, {"time": 159845, "pitch": 39, "duration": 362, "velocity": 127}, {"time": 159845, "pitch": 40, "duration": 59, "velocity": 122}, {"time": 159845, "pitch": 42, "duration": 69, "velocity": 85}, {"time": 159845, "pitch": 69, "duration": 59, "velocity": 82}, {"time": 160081, "pitch": 46, "duration": 68, "velocity": 80}, {"time": 160081, "pitch": 69, "duration": 59, "velocity": 75}, {"time": 160199, "pitch": 69, "duration": 58, "velocity": 64}, {"time": 160316, "pitch": 35, "duration": 61, "velocity": 102}, {"time": 160316, "pitch": 42, "duration": 71, "velocity": 90}, {"time": 160316, "pitch": 69, "duration": 61, "velocity": 97}, {"time": 160557, "pitch": 46, "duration": 70, "velocity": 80}, {"time": 160557, "pitch": 69, "duration": 60, "velocity": 80}, {"time": 160677, "pitch": 69, "duration": 61, "velocity": 80}, {"time": 160798, "pitch": 35, "duration": 60, "velocity": 107}, {"time": 160798, "pitch": 39, "duration": 368, "velocity": 127}, {"time": 160798, "pitch": 40, "duration": 60, "velocity": 122}, {"time": 160798, "pitch": 42, "duration": 60, "velocity": 78}, {"time": 160798, "pitch": 69, "duration": 60, "velocity": 82}, {"time": 161039, "pitch": 46, "duration": 60, "velocity": 80}, {"time": 161039, "pitch": 69, "duration": 60, "velocity": 68}, {"time": 161159, "pitch": 69, "duration": 60, "velocity": 57}, {"time": 161279, "pitch": 35, "duration": 61, "velocity": 107}, {"time": 161279, "pitch": 42, "duration": 71, "velocity": 82}, {"time": 161279, "pitch": 69, "duration": 61, "velocity": 82}, {"time": 161520, "pitch": 46, "duration": 70, "velocity": 80}, {"time": 161520, "pitch": 69, "duration": 60, "velocity": 60}, {"time": 161641, "pitch": 69, "duration": 60, "velocity": 73}, {"time": 161761, "pitch": 35, "duration": 60, "velocity": 107}, {"time": 161761, "pitch": 39, "duration": 372, "velocity": 127}, {"time": 161761, "pitch": 40, "duration": 60, "velocity": 122}, {"time": 161761, "pitch": 42, "duration": 70, "velocity": 85}, {"time": 161761, "pitch": 69, "duration": 60, "velocity": 82}, {"time": 162002, "pitch": 46, "duration": 70, "velocity": 80}, {"time": 162002, "pitch": 69, "duration": 60, "velocity": 75}, {"time": 162122, "pitch": 69, "duration": 60, "velocity": 64}, {"time": 162243, "pitch": 35, "duration": 60, "velocity": 102}, {"time": 162243, "pitch": 42, "duration": 70, "velocity": 90}, {"time": 162243, "pitch": 69, "duration": 60, "velocity": 97}, {"time": 162483, "pitch": 46, "duration": 71, "velocity": 80}, {"time": 162483, "pitch": 69, "duration": 61, "velocity": 80}, {"time": 162604, "pitch": 69, "duration": 60, "velocity": 80}, {"time": 162724, "pitch": 35, "duration": 59, "velocity": 107}, {"time": 162724, "pitch": 39, "duration": 318, "velocity": 127}, {"time": 162724, "pitch": 40, "duration": 59, "velocity": 122}, {"time": 162724, "pitch": 42, "duration": 59, "velocity": 78}, {"time": 162724, "pitch": 69, "duration": 59, "velocity": 82}, {"time": 162960, "pitch": 46, "duration": 59, "velocity": 80}, {"time": 162960, "pitch": 69, "duration": 59, "velocity": 68}, {"time": 163078, "pitch": 69, "duration": 59, "velocity": 57}, {"time": 163195, "pitch": 35, "duration": 61, "velocity": 107}, {"time": 163195, "pitch": 42, "duration": 71, "velocity": 82}, {"time": 163195, "pitch": 69, "duration": 61, "velocity": 82}, {"time": 163436, "pitch": 46, "duration": 70, "velocity": 80}, {"time": 163436, "pitch": 69, "duration": 60, "velocity": 60}, {"time": 163557, "pitch": 69, "duration": 60, "velocity": 73}, {"time": 163677, "pitch": 35, "duration": 60, "velocity": 107}, {"time": 163677, "pitch": 39, "duration": 362, "velocity": 127}, {"time": 163677, "pitch": 40, "duration": 60, "velocity": 122}, {"time": 163677, "pitch": 42, "duration": 70, "velocity": 85}, {"time": 163677, "pitch": 69, "duration": 60, "velocity": 82}, {"time": 163918, "pitch": 46, "duration": 70, "velocity": 80}, {"time": 163918, "pitch": 69, "duration": 60, "velocity": 75}, {"time": 164038, "pitch": 69, "duration": 60, "velocity": 64}, {"time": 164159, "pitch": 35, "duration": 60, "velocity": 102}, {"time": 164159, "pitch": 42, "duration": 70, "velocity": 90}, {"time": 164159, "pitch": 69, "duration": 60, "velocity": 97}, {"time": 164399, "pitch": 46, "duration": 71, "velocity": 80}, {"time": 164399, "pitch": 69, "duration": 61, "velocity": 80}, {"time": 164520, "pitch": 69, "duration": 60, "velocity": 80}, {"time": 164640, "pitch": 35, "duration": 60, "velocity": 107}, {"time": 164640, "pitch": 39, "duration": 353, "velocity": 127}, {"time": 164640, "pitch": 40, "duration": 60, "velocity": 122}, {"time": 164640, "pitch": 42, "duration": 60, "velocity": 78}, {"time": 164640, "pitch": 69, "duration": 60, "velocity": 82}, {"time": 164881, "pitch": 46, "duration": 60, "velocity": 80}, {"time": 164881, "pitch": 69, "duration": 60, "velocity": 68}, {"time": 165001, "pitch": 69, "duration": 61, "velocity": 57}, {"time": 165122, "pitch": 35, "duration": 60, "velocity": 107}, {"time": 165122, "pitch": 42, "duration": 70, "velocity": 82}, {"time": 165122, "pitch": 69, "duration": 60, "velocity": 82}, {"time": 165363, "pitch": 46, "duration": 70, "velocity": 80}, {"time": 165363, "pitch": 69, "duration": 60, "velocity": 60}, {"time": 165483, "pitch": 69, "duration": 60, "velocity": 73}, {"time": 165603, "pitch": 35, "duration": 61, "velocity": 107}, {"time": 165603, "pitch": 39, "duration": 346, "velocity": 127}, {"time": 165603, "pitch": 40, "duration": 61, "velocity": 122}, {"time": 165603, "pitch": 42, "duration": 71, "velocity": 85}, {"time": 165603, "pitch": 69, "duration": 61, "velocity": 82}, {"time": 165844, "pitch": 46, "duration": 70, "velocity": 80}, {"time": 165844, "pitch": 69, "duration": 60, "velocity": 75}, {"time": 165964, "pitch": 69, "duration": 61, "velocity": 64}, {"time": 166085, "pitch": 35, "duration": 59, "velocity": 102}, {"time": 166085, "pitch": 42, "duration": 69, "velocity": 90}, {"time": 166085, "pitch": 69, "duration": 59, "velocity": 97}, {"time": 166320, "pitch": 46, "duration": 69, "velocity": 80}, {"time": 166320, "pitch": 69, "duration": 59, "velocity": 80}, {"time": 166438, "pitch": 69, "duration": 59, "velocity": 80}, {"time": 166556, "pitch": 35, "duration": 60, "velocity": 107}, {"time": 166556, "pitch": 39, "duration": 310, "velocity": 127}, {"time": 166556, "pitch": 40, "duration": 60, "velocity": 122}, {"time": 166556, "pitch": 42, "duration": 60, "velocity": 78}, {"time": 166556, "pitch": 69, "duration": 60, "velocity": 82}, {"time": 166797, "pitch": 46, "duration": 60, "velocity": 80}, {"time": 166797, "pitch": 69, "duration": 60, "velocity": 68}, {"time": 166917, "pitch": 69, "duration": 60, "velocity": 57}, {"time": 167038, "pitch": 35, "duration": 60, "velocity": 107}, {"time": 167038, "pitch": 42, "duration": 70, "velocity": 82}, {"time": 167038, "pitch": 69, "duration": 60, "velocity": 82}, {"time": 167278, "pitch": 46, "duration": 71, "velocity": 80}, {"time": 167278, "pitch": 69, "duration": 61, "velocity": 60}, {"time": 167399, "pitch": 69, "duration": 60, "velocity": 73}, {"time": 167519, "pitch": 35, "duration": 60, "velocity": 107}, {"time": 167519, "pitch": 39, "duration": 357, "velocity": 127}, {"time": 167519, "pitch": 40, "duration": 60, "velocity": 122}, {"time": 167519, "pitch": 42, "duration": 70, "velocity": 85}, {"time": 167519, "pitch": 69, "duration": 60, "velocity": 82}, {"time": 167760, "pitch": 46, "duration": 70, "velocity": 80}, {"time": 167760, "pitch": 69, "duration": 60, "velocity": 75}, {"time": 167880, "pitch": 69, "duration": 61, "velocity": 64}, {"time": 168001, "pitch": 35, "duration": 60, "velocity": 102}, {"time": 168001, "pitch": 42, "duration": 70, "velocity": 90}, {"time": 168001, "pitch": 69, "duration": 60, "velocity": 97}, {"time": 168242, "pitch": 46, "duration": 70, "velocity": 80}, {"time": 168242, "pitch": 69, "duration": 60, "velocity": 80}, {"time": 168362, "pitch": 69, "duration": 60, "velocity": 80}, {"time": 168482, "pitch": 35, "duration": 61, "velocity": 107}, {"time": 168482, "pitch": 39, "duration": 364, "velocity": 127}, {"time": 168482, "pitch": 40, "duration": 61, "velocity": 122}, {"time": 168482, "pitch": 42, "duration": 61, "velocity": 78}, {"time": 168482, "pitch": 69, "duration": 61, "velocity": 82}, {"time": 168723, "pitch": 46, "duration": 60, "velocity": 80}, {"time": 168723, "pitch": 69, "duration": 60, "velocity": 68}, {"time": 168844, "pitch": 69, "duration": 60, "velocity": 57}, {"time": 168964, "pitch": 35, "duration": 59, "velocity": 107}, {"time": 168964, "pitch": 42, "duration": 69, "velocity": 82}, {"time": 168964, "pitch": 69, "duration": 59, "velocity": 82}, {"time": 169200, "pitch": 46, "duration": 68, "velocity": 80}, {"time": 169200, "pitch": 69, "duration": 58, "velocity": 60}, {"time": 169317, "pitch": 69, "duration": 59, "velocity": 73}, {"time": 169435, "pitch": 35, "duration": 60, "velocity": 107}, {"time": 169435, "pitch": 39, "duration": 382, "velocity": 127}, {"time": 169435, "pitch": 40, "duration": 60, "velocity": 122}, {"time": 169435, "pitch": 42, "duration": 70, "velocity": 85}, {"time": 169435, "pitch": 69, "duration": 60, "velocity": 82}, {"time": 169676, "pitch": 46, "duration": 70, "velocity": 80}, {"time": 169676, "pitch": 69, "duration": 60, "velocity": 75}, {"time": 169796, "pitch": 69, "duration": 61, "velocity": 64}, {"time": 169917, "pitch": 35, "duration": 60, "velocity": 102}, {"time": 169917, "pitch": 42, "duration": 70, "velocity": 90}, {"time": 169917, "pitch": 69, "duration": 60, "velocity": 97}, {"time": 170157, "pitch": 46, "duration": 71, "velocity": 80}, {"time": 170157, "pitch": 69, "duration": 61, "velocity": 80}, {"time": 170278, "pitch": 69, "duration": 60, "velocity": 80}, {"time": 170398, "pitch": 35, "duration": 60, "velocity": 107}, {"time": 170398, "pitch": 39, "duration": 397, "velocity": 127}, {"time": 170398, "pitch": 40, "duration": 60, "velocity": 122}, {"time": 170398, "pitch": 42, "duration": 60, "velocity": 78}, {"time": 170398, "pitch": 69, "duration": 60, "velocity": 82}, {"time": 170639, "pitch": 46, "duration": 60, "velocity": 80}, {"time": 170639, "pitch": 69, "duration": 60, "velocity": 68}, {"time": 170759, "pitch": 69, "duration": 61, "velocity": 57}, {"time": 170880, "pitch": 35, "duration": 60, "velocity": 107}, {"time": 170880, "pitch": 42, "duration": 70, "velocity": 82}, {"time": 170880, "pitch": 69, "duration": 60, "velocity": 82}, {"time": 171121, "pitch": 46, "duration": 70, "velocity": 80}, {"time": 171121, "pitch": 69, "duration": 60, "velocity": 60}, {"time": 171241, "pitch": 69, "duration": 60, "velocity": 73}, {"time": 171361, "pitch": 35, "duration": 61, "velocity": 107}, {"time": 171361, "pitch": 39, "duration": 403, "velocity": 127}, {"time": 171361, "pitch": 40, "duration": 61, "velocity": 122}, {"time": 171361, "pitch": 42, "duration": 71, "velocity": 85}, {"time": 171361, "pitch": 69, "duration": 61, "velocity": 82}, {"time": 171602, "pitch": 46, "duration": 70, "velocity": 80}, {"time": 171602, "pitch": 69, "duration": 60, "velocity": 75}, {"time": 171723, "pitch": 69, "duration": 60, "velocity": 64}, {"time": 171843, "pitch": 35, "duration": 60, "velocity": 102}, {"time": 171843, "pitch": 42, "duration": 70, "velocity": 90}, {"time": 171843, "pitch": 69, "duration": 60, "velocity": 97}, {"time": 172084, "pitch": 46, "duration": 70, "velocity": 80}, {"time": 172084, "pitch": 69, "duration": 60, "velocity": 80}, {"time": 172204, "pitch": 69, "duration": 60, "velocity": 80}, {"time": 172325, "pitch": 35, "duration": 58, "velocity": 107}, {"time": 172325, "pitch": 39, "duration": 399, "velocity": 127}, {"time": 172325, "pitch": 40, "duration": 58, "velocity": 122}, {"time": 172325, "pitch": 42, "duration": 58, "velocity": 78}, {"time": 172325, "pitch": 69, "duration": 58, "velocity": 82}, {"time": 172560, "pitch": 46, "duration": 59, "velocity": 80}, {"time": 172560, "pitch": 69, "duration": 59, "velocity": 68}, {"time": 172678, "pitch": 69, "duration": 59, "velocity": 57}, {"time": 172796, "pitch": 35, "duration": 60, "velocity": 107}, {"time": 172796, "pitch": 40, "duration": 60, "velocity": 122}, {"time": 172796, "pitch": 42, "duration": 70, "velocity": 82}, {"time": 172796, "pitch": 69, "duration": 60, "velocity": 82}, {"time": 172916, "pitch": 40, "duration": 60, "velocity": 122}, {"time": 173037, "pitch": 40, "duration": 60, "velocity": 122}, {"time": 173037, "pitch": 46, "duration": 70, "velocity": 80}, {"time": 173037, "pitch": 69, "duration": 60, "velocity": 60}, {"time": 173157, "pitch": 40, "duration": 60, "velocity": 122}, {"time": 173157, "pitch": 69, "duration": 60, "velocity": 73}, {"time": 173277, "pitch": 35, "duration": 61, "velocity": 107}, {"time": 173277, "pitch": 39, "duration": 312, "velocity": 127}, {"time": 173277, "pitch": 40, "duration": 61, "velocity": 122}, {"time": 173277, "pitch": 42, "duration": 71, "velocity": 85}, {"time": 173277, "pitch": 69, "duration": 61, "velocity": 82}, {"time": 173398, "pitch": 40, "duration": 60, "velocity": 122}, {"time": 173518, "pitch": 40, "duration": 60, "velocity": 122}, {"time": 173518, "pitch": 46, "duration": 70, "velocity": 80}, {"time": 173518, "pitch": 69, "duration": 60, "velocity": 75}, {"time": 173639, "pitch": 40, "duration": 60, "velocity": 122}, {"time": 173639, "pitch": 69, "duration": 60, "velocity": 64}, {"time": 173759, "pitch": 35, "duration": 60, "velocity": 102}, {"time": 173759, "pitch": 42, "duration": 70, "velocity": 90}, {"time": 173759, "pitch": 49, "duration": 50, "velocity": 106}, {"time": 174000, "pitch": 46, "duration": 70, "velocity": 80}, {"time": 174241, "pitch": 35, "duration": 60, "velocity": 107}, {"time": 174241, "pitch": 40, "duration": 60, "velocity": 122}, {"time": 174241, "pitch": 42, "duration": 60, "velocity": 78}, {"time": 174481, "pitch": 46, "duration": 61, "velocity": 80}, {"time": 174722, "pitch": 35, "duration": 60, "velocity": 107}, {"time": 174722, "pitch": 42, "duration": 70, "velocity": 82}, {"time": 174963, "pitch": 46, "duration": 70, "velocity": 80}, {"time": 175204, "pitch": 35, "duration": 59, "velocity": 107}, {"time": 175204, "pitch": 40, "duration": 59, "velocity": 122}, {"time": 175204, "pitch": 42, "duration": 68, "velocity": 85}, {"time": 175439, "pitch": 46, "duration": 69, "velocity": 80}, {"time": 175675, "pitch": 35, "duration": 60, "velocity": 102}, {"time": 175675, "pitch": 42, "duration": 70, "velocity": 90}, {"time": 175916, "pitch": 46, "duration": 70, "velocity": 80}, {"time": 176156, "pitch": 35, "duration": 61, "velocity": 107}, {"time": 176156, "pitch": 40, "duration": 61, "velocity": 122}, {"time": 176156, "pitch": 42, "duration": 61, "velocity": 78}, {"time": 176397, "pitch": 46, "duration": 60, "velocity": 80}, {"time": 176638, "pitch": 35, "duration": 60, "velocity": 107}, {"time": 176638, "pitch": 42, "duration": 70, "velocity": 82}, {"time": 176879, "pitch": 46, "duration": 70, "velocity": 80}, {"time": 177120, "pitch": 35, "duration": 60, "velocity": 107}, {"time": 177120, "pitch": 40, "duration": 60, "velocity": 122}, {"time": 177120, "pitch": 42, "duration": 70, "velocity": 85}, {"time": 177360, "pitch": 46, "duration": 71, "velocity": 80}, {"time": 177601, "pitch": 35, "duration": 60, "velocity": 102}, {"time": 177601, "pitch": 42, "duration": 70, "velocity": 90}, {"time": 177601, "pitch": 57, "duration": 60, "velocity": 112}, {"time": 177842, "pitch": 46, "duration": 70, "velocity": 80}, {"time": 178083, "pitch": 35, "duration": 60, "velocity": 107}, {"time": 178083, "pitch": 40, "duration": 60, "velocity": 122}, {"time": 178083, "pitch": 42, "duration": 60, "velocity": 78}, {"time": 178324, "pitch": 46, "duration": 60, "velocity": 80}, {"time": 178564, "pitch": 35, "duration": 59, "velocity": 107}, {"time": 178564, "pitch": 42, "duration": 69, "velocity": 82}, {"time": 178800, "pitch": 46, "duration": 69, "velocity": 80}, {"time": 179036, "pitch": 35, "duration": 60, "velocity": 107}, {"time": 179036, "pitch": 40, "duration": 60, "velocity": 122}, {"time": 179036, "pitch": 42, "duration": 70, "velocity": 85}, {"time": 179276, "pitch": 46, "duration": 71, "velocity": 80}, {"time": 179517, "pitch": 35, "duration": 60, "velocity": 102}, {"time": 179517, "pitch": 42, "duration": 70, "velocity": 90}, {"time": 179758, "pitch": 46, "duration": 70, "velocity": 80}, {"time": 179999, "pitch": 35, "duration": 60, "velocity": 107}, {"time": 179999, "pitch": 40, "duration": 60, "velocity": 122}, {"time": 179999, "pitch": 42, "duration": 60, "velocity": 78}, {"time": 180239, "pitch": 46, "duration": 61, "velocity": 80}, {"time": 180480, "pitch": 35, "duration": 60, "velocity": 107}, {"time": 180480, "pitch": 40, "duration": 60, "velocity": 122}, {"time": 180480, "pitch": 42, "duration": 71, "velocity": 82}, {"time": 180605, "pitch": 40, "duration": 60, "velocity": 122}, {"time": 180721, "pitch": 40, "duration": 60, "velocity": 122}, {"time": 180721, "pitch": 46, "duration": 70, "velocity": 80}, {"time": 180845, "pitch": 40, "duration": 61, "velocity": 122}, {"time": 180962, "pitch": 35, "duration": 60, "velocity": 107}, {"time": 180962, "pitch": 40, "duration": 60, "velocity": 122}, {"time": 180962, "pitch": 42, "duration": 70, "velocity": 85}, {"time": 181086, "pitch": 40, "duration": 60, "velocity": 122}, {"time": 181203, "pitch": 35, "duration": 60, "velocity": 107}, {"time": 181203, "pitch": 46, "duration": 70, "velocity": 80}, {"time": 181327, "pitch": 40, "duration": 60, "velocity": 122}, {"time": 181443, "pitch": 35, "duration": 61, "velocity": 102}, {"time": 181443, "pitch": 42, "duration": 71, "velocity": 90}, {"time": 181443, "pitch": 49, "duration": 61, "velocity": 106}, {"time": 181684, "pitch": 46, "duration": 70, "velocity": 80}, {"time": 181925, "pitch": 35, "duration": 59, "velocity": 107}, {"time": 181925, "pitch": 40, "duration": 59, "velocity": 122}, {"time": 181925, "pitch": 42, "duration": 59, "velocity": 78}, {"time": 182161, "pitch": 46, "duration": 59, "velocity": 80}, {"time": 182396, "pitch": 35, "duration": 60, "velocity": 107}, {"time": 182396, "pitch": 42, "duration": 70, "velocity": 82}, {"time": 182637, "pitch": 46, "duration": 70, "velocity": 80}, {"time": 182878, "pitch": 35, "duration": 60, "velocity": 107}, {"time": 182878, "pitch": 40, "duration": 60, "velocity": 122}, {"time": 182878, "pitch": 42, "duration": 70, "velocity": 85}, {"time": 183119, "pitch": 46, "duration": 70, "velocity": 80}, {"time": 183359, "pitch": 35, "duration": 61, "velocity": 102}, {"time": 183359, "pitch": 42, "duration": 71, "velocity": 90}, {"time": 183600, "pitch": 46, "duration": 70, "velocity": 80}, {"time": 183841, "pitch": 35, "duration": 60, "velocity": 107}, {"time": 183841, "pitch": 40, "duration": 60, "velocity": 122}, {"time": 183841, "pitch": 42, "duration": 60, "velocity": 78}, {"time": 184082, "pitch": 46, "duration": 60, "velocity": 80}, {"time": 184323, "pitch": 35, "duration": 60, "velocity": 107}, {"time": 184323, "pitch": 42, "duration": 70, "velocity": 82}, {"time": 184563, "pitch": 46, "duration": 71, "velocity": 80}, {"time": 184804, "pitch": 35, "duration": 59, "velocity": 107}, {"time": 184804, "pitch": 40, "duration": 59, "velocity": 122}, {"time": 184804, "pitch": 42, "duration": 69, "velocity": 85}, {"time": 185040, "pitch": 35, "duration": 59, "velocity": 107}, {"time": 185040, "pitch": 46, "duration": 68, "velocity": 80}, {"time": 185040, "pitch": 57, "duration": 49, "velocity": 112}, {"time": 185275, "pitch": 35, "duration": 60, "velocity": 102}, {"time": 185275, "pitch": 42, "duration": 70, "velocity": 90}, {"time": 185516, "pitch": 46, "duration": 70, "velocity": 80}, {"time": 185757, "pitch": 35, "duration": 60, "velocity": 107}, {"time": 185757, "pitch": 40, "duration": 60, "velocity": 122}, {"time": 185757, "pitch": 42, "duration": 60, "velocity": 78}, {"time": 185998, "pitch": 46, "duration": 60, "velocity": 80}, {"time": 186238, "pitch": 35, "duration": 61, "velocity": 107}, {"time": 186238, "pitch": 42, "duration": 71, "velocity": 82}, {"time": 186479, "pitch": 46, "duration": 70, "velocity": 80}, {"time": 186720, "pitch": 35, "duration": 60, "velocity": 107}, {"time": 186720, "pitch": 40, "duration": 60, "velocity": 122}, {"time": 186720, "pitch": 42, "duration": 70, "velocity": 85}, {"time": 186961, "pitch": 46, "duration": 70, "velocity": 80}, {"time": 187202, "pitch": 35, "duration": 60, "velocity": 102}, {"time": 187202, "pitch": 46, "duration": 70, "velocity": 70}, {"time": 187202, "pitch": 57, "duration": 1675, "velocity": 127}, {"time": 187300, "pitch": 42, "duration": 70, "velocity": 45}, {"time": 188636, "pitch": 35, "duration": 60, "velocity": 107}, {"time": 188636, "pitch": 40, "duration": 60, "velocity": 122}, {"time": 188636, "pitch": 42, "duration": 70, "velocity": 85}, {"time": 188877, "pitch": 35, "duration": 60, "velocity": 107}, {"time": 188877, "pitch": 46, "duration": 70, "velocity": 80}, {"time": 188877, "pitch": 57, "duration": 50, "velocity": 112}, {"time": 189117, "pitch": 35, "duration": 61, "velocity": 102}, {"time": 189117, "pitch": 42, "duration": 71, "velocity": 90}, {"time": 189117, "pitch": 69, "duration": 61, "velocity": 97}, {"time": 189358, "pitch": 46, "duration": 71, "velocity": 80}, {"time": 189358, "pitch": 69, "duration": 60, "velocity": 80}, {"time": 189479, "pitch": 69, "duration": 60, "velocity": 80}, {"time": 189599, "pitch": 35, "duration": 60, "velocity": 107}, {"time": 189599, "pitch": 40, "duration": 60, "velocity": 122}, {"time": 189599, "pitch": 42, "duration": 60, "velocity": 78}, {"time": 189599, "pitch": 69, "duration": 60, "velocity": 82}, {"time": 189840, "pitch": 46, "duration": 60, "velocity": 80}, {"time": 189840, "pitch": 69, "duration": 60, "velocity": 68}, {"time": 189960, "pitch": 69, "duration": 60, "velocity": 57}, {"time": 190081, "pitch": 35, "duration": 60, "velocity": 107}, {"time": 190081, "pitch": 42, "duration": 70, "velocity": 82}, {"time": 190081, "pitch": 69, "duration": 60, "velocity": 82}, {"time": 190321, "pitch": 46, "duration": 71, "velocity": 80}, {"time": 190321, "pitch": 69, "duration": 61, "velocity": 60}, {"time": 190442, "pitch": 69, "duration": 60, "velocity": 73}, {"time": 190562, "pitch": 35, "duration": 60, "velocity": 107}, {"time": 190562, "pitch": 40, "duration": 60, "velocity": 122}, {"time": 190562, "pitch": 42, "duration": 70, "velocity": 85}, {"time": 190562, "pitch": 69, "duration": 60, "velocity": 82}, {"time": 190803, "pitch": 46, "duration": 70, "velocity": 80}, {"time": 190803, "pitch": 69, "duration": 60, "velocity": 75}, {"time": 190923, "pitch": 69, "duration": 61, "velocity": 64}, {"time": 191044, "pitch": 35, "duration": 59, "velocity": 102}, {"time": 191044, "pitch": 42, "duration": 68, "velocity": 90}, {"time": 191044, "pitch": 69, "duration": 59, "velocity": 97}, {"time": 191279, "pitch": 46, "duration": 69, "velocity": 80}, {"time": 191279, "pitch": 69, "duration": 59, "velocity": 80}, {"time": 191397, "pitch": 69, "duration": 59, "velocity": 80}, {"time": 191515, "pitch": 35, "duration": 60, "velocity": 107}, {"time": 191515, "pitch": 40, "duration": 60, "velocity": 122}, {"time": 191515, "pitch": 42, "duration": 60, "velocity": 78}, {"time": 191515, "pitch": 69, "duration": 60, "velocity": 82}, {"time": 191756, "pitch": 46, "duration": 60, "velocity": 80}, {"time": 191756, "pitch": 69, "duration": 60, "velocity": 68}, {"time": 191876, "pitch": 69, "duration": 60, "velocity": 57}, {"time": 191997, "pitch": 35, "duration": 60, "velocity": 107}, {"time": 191997, "pitch": 42, "duration": 70, "velocity": 82}, {"time": 191997, "pitch": 69, "duration": 60, "velocity": 82}, {"time": 192237, "pitch": 46, "duration": 71, "velocity": 80}, {"time": 192237, "pitch": 69, "duration": 61, "velocity": 60}, {"time": 192358, "pitch": 69, "duration": 60, "velocity": 73}, {"time": 192478, "pitch": 35, "duration": 60, "velocity": 107}, {"time": 192478, "pitch": 40, "duration": 60, "velocity": 122}, {"time": 192478, "pitch": 42, "duration": 70, "velocity": 85}, {"time": 192478, "pitch": 69, "duration": 60, "velocity": 82}, {"time": 192719, "pitch": 46, "duration": 70, "velocity": 80}, {"time": 192719, "pitch": 69, "duration": 60, "velocity": 75}, {"time": 192839, "pitch": 69, "duration": 61, "velocity": 64}, {"time": 192960, "pitch": 35, "duration": 60, "velocity": 102}, {"time": 192960, "pitch": 42, "duration": 70, "velocity": 90}, {"time": 192960, "pitch": 69, "duration": 60, "velocity": 97}, {"time": 193201, "pitch": 46, "duration": 70, "velocity": 80}, {"time": 193201, "pitch": 69, "duration": 60, "velocity": 80}, {"time": 193321, "pitch": 69, "duration": 60, "velocity": 80}, {"time": 193441, "pitch": 35, "duration": 61, "velocity": 107}, {"time": 193441, "pitch": 40, "duration": 61, "velocity": 122}, {"time": 193441, "pitch": 42, "duration": 61, "velocity": 78}, {"time": 193441, "pitch": 69, "duration": 61, "velocity": 82}, {"time": 193682, "pitch": 46, "duration": 60, "velocity": 80}, {"time": 193682, "pitch": 69, "duration": 60, "velocity": 68}, {"time": 193803, "pitch": 69, "duration": 60, "velocity": 57}, {"time": 193923, "pitch": 35, "duration": 60, "velocity": 107}, {"time": 193923, "pitch": 42, "duration": 70, "velocity": 82}, {"time": 193923, "pitch": 69, "duration": 60, "velocity": 82}, {"time": 194164, "pitch": 46, "duration": 70, "velocity": 80}, {"time": 194164, "pitch": 69, "duration": 60, "velocity": 60}, {"time": 194284, "pitch": 69, "duration": 60, "velocity": 73}, {"time": 194404, "pitch": 35, "duration": 59, "velocity": 107}, {"time": 194404, "pitch": 40, "duration": 59, "velocity": 122}, {"time": 194404, "pitch": 42, "duration": 69, "velocity": 85}, {"time": 194404, "pitch": 69, "duration": 59, "velocity": 82}, {"time": 194640, "pitch": 46, "duration": 69, "velocity": 80}, {"time": 194640, "pitch": 69, "duration": 59, "velocity": 75}, {"time": 194758, "pitch": 69, "duration": 59, "velocity": 64}, {"time": 194876, "pitch": 35, "duration": 60, "velocity": 102}, {"time": 194876, "pitch": 42, "duration": 70, "velocity": 90}, {"time": 194876, "pitch": 69, "duration": 60, "velocity": 97}, {"time": 195116, "pitch": 46, "duration": 71, "velocity": 80}, {"time": 195116, "pitch": 69, "duration": 61, "velocity": 80}, {"time": 195237, "pitch": 69, "duration": 60, "velocity": 80}, {"time": 195357, "pitch": 35, "duration": 60, "velocity": 107}, {"time": 195357, "pitch": 40, "duration": 60, "velocity": 122}, {"time": 195357, "pitch": 42, "duration": 60, "velocity": 78}, {"time": 195357, "pitch": 69, "duration": 60, "velocity": 82}, {"time": 195598, "pitch": 46, "duration": 60, "velocity": 80}, {"time": 195598, "pitch": 69, "duration": 60, "velocity": 68}, {"time": 195718, "pitch": 69, "duration": 61, "velocity": 57}, {"time": 195839, "pitch": 35, "duration": 60, "velocity": 107}, {"time": 195839, "pitch": 42, "duration": 70, "velocity": 82}, {"time": 195839, "pitch": 69, "duration": 60, "velocity": 82}, {"time": 196080, "pitch": 46, "duration": 70, "velocity": 80}, {"time": 196080, "pitch": 69, "duration": 60, "velocity": 60}, {"time": 196200, "pitch": 69, "duration": 60, "velocity": 73}, {"time": 196320, "pitch": 35, "duration": 61, "velocity": 107}, {"time": 196320, "pitch": 40, "duration": 61, "velocity": 122}, {"time": 196320, "pitch": 42, "duration": 71, "velocity": 85}, {"time": 196320, "pitch": 69, "duration": 61, "velocity": 82}, {"time": 196561, "pitch": 35, "duration": 60, "velocity": 107}, {"time": 196561, "pitch": 46, "duration": 70, "velocity": 80}, {"time": 196561, "pitch": 57, "duration": 50, "velocity": 112}, {"time": 196561, "pitch": 69, "duration": 60, "velocity": 75}, {"time": 196682, "pitch": 69, "duration": 60, "velocity": 64}, {"time": 196802, "pitch": 35, "duration": 60, "velocity": 102}, {"time": 196802, "pitch": 42, "duration": 70, "velocity": 90}, {"time": 196802, "pitch": 69, "duration": 60, "velocity": 97}, {"time": 197043, "pitch": 46, "duration": 70, "velocity": 80}, {"time": 197043, "pitch": 69, "duration": 60, "velocity": 80}, {"time": 197163, "pitch": 69, "duration": 60, "velocity": 80}, {"time": 197284, "pitch": 35, "duration": 60, "velocity": 107}, {"time": 197284, "pitch": 40, "duration": 60, "velocity": 122}, {"time": 197284, "pitch": 42, "duration": 60, "velocity": 78}, {"time": 197284, "pitch": 69, "duration": 60, "velocity": 82}, {"time": 197524, "pitch": 46, "duration": 61, "velocity": 80}, {"time": 197524, "pitch": 69, "duration": 61, "velocity": 68}, {"time": 197645, "pitch": 69, "duration": 60, "velocity": 57}, {"time": 197765, "pitch": 35, "duration": 59, "velocity": 107}, {"time": 197765, "pitch": 42, "duration": 69, "velocity": 82}, {"time": 197765, "pitch": 69, "duration": 59, "velocity": 82}, {"time": 198001, "pitch": 46, "duration": 68, "velocity": 80}, {"time": 198001, "pitch": 69, "duration": 59, "velocity": 60}, {"time": 198119, "pitch": 69, "duration": 58, "velocity": 73}, {"time": 198236, "pitch": 35, "duration": 61, "velocity": 107}, {"time": 198236, "pitch": 40, "duration": 61, "velocity": 122}, {"time": 198236, "pitch": 42, "duration": 71, "velocity": 85}, {"time": 198236, "pitch": 69, "duration": 61, "velocity": 82}, {"time": 198477, "pitch": 46, "duration": 70, "velocity": 80}, {"time": 198477, "pitch": 69, "duration": 60, "velocity": 75}, {"time": 198597, "pitch": 69, "duration": 61, "velocity": 64}, {"time": 198718, "pitch": 35, "duration": 60, "velocity": 102}, {"time": 198718, "pitch": 42, "duration": 70, "velocity": 90}, {"time": 198718, "pitch": 69, "duration": 60, "velocity": 97}, {"time": 198959, "pitch": 46, "duration": 70, "velocity": 80}, {"time": 198959, "pitch": 69, "duration": 60, "velocity": 80}, {"time": 199079, "pitch": 69, "duration": 60, "velocity": 80}, {"time": 199199, "pitch": 35, "duration": 61, "velocity": 107}, {"time": 199199, "pitch": 40, "duration": 61, "velocity": 122}, {"time": 199199, "pitch": 42, "duration": 61, "velocity": 78}, {"time": 199199, "pitch": 69, "duration": 61, "velocity": 82}, {"time": 199440, "pitch": 46, "duration": 60, "velocity": 80}, {"time": 199440, "pitch": 69, "duration": 60, "velocity": 68}, {"time": 199561, "pitch": 69, "duration": 60, "velocity": 57}, {"time": 199681, "pitch": 35, "duration": 60, "velocity": 107}, {"time": 199681, "pitch": 42, "duration": 70, "velocity": 82}, {"time": 199681, "pitch": 69, "duration": 60, "velocity": 82}, {"time": 199922, "pitch": 46, "duration": 70, "velocity": 80}, {"time": 199922, "pitch": 69, "duration": 60, "velocity": 60}, {"time": 200042, "pitch": 69, "duration": 60, "velocity": 73}, {"time": 200163, "pitch": 35, "duration": 60, "velocity": 107}, {"time": 200163, "pitch": 40, "duration": 60, "velocity": 122}, {"time": 200163, "pitch": 42, "duration": 70, "velocity": 85}, {"time": 200163, "pitch": 69, "duration": 60, "velocity": 82}, {"time": 200403, "pitch": 46, "duration": 71, "velocity": 80}, {"time": 200403, "pitch": 69, "duration": 61, "velocity": 75}, {"time": 200524, "pitch": 69, "duration": 60, "velocity": 64}, {"time": 200644, "pitch": 35, "duration": 59, "velocity": 102}, {"time": 200644, "pitch": 42, "duration": 69, "velocity": 90}, {"time": 200644, "pitch": 69, "duration": 59, "velocity": 97}, {"time": 200880, "pitch": 46, "duration": 69, "velocity": 80}, {"time": 200880, "pitch": 69, "duration": 59, "velocity": 80}, {"time": 200998, "pitch": 69, "duration": 59, "velocity": 80}, {"time": 201115, "pitch": 35, "duration": 61, "velocity": 107}, {"time": 201115, "pitch": 40, "duration": 61, "velocity": 122}, {"time": 201115, "pitch": 42, "duration": 61, "velocity": 78}, {"time": 201115, "pitch": 69, "duration": 61, "velocity": 82}, {"time": 201356, "pitch": 46, "duration": 60, "velocity": 80}, {"time": 201356, "pitch": 69, "duration": 60, "velocity": 68}, {"time": 201477, "pitch": 69, "duration": 60, "velocity": 57}, {"time": 201597, "pitch": 35, "duration": 60, "velocity": 107}, {"time": 201597, "pitch": 42, "duration": 70, "velocity": 82}, {"time": 201597, "pitch": 69, "duration": 60, "velocity": 82}, {"time": 201838, "pitch": 46, "duration": 70, "velocity": 80}, {"time": 201838, "pitch": 69, "duration": 60, "velocity": 60}, {"time": 201958, "pitch": 69, "duration": 60, "velocity": 73}, {"time": 202079, "pitch": 35, "duration": 60, "velocity": 107}, {"time": 202079, "pitch": 40, "duration": 60, "velocity": 122}, {"time": 202079, "pitch": 42, "duration": 70, "velocity": 85}, {"time": 202079, "pitch": 69, "duration": 60, "velocity": 82}, {"time": 202319, "pitch": 46, "duration": 71, "velocity": 80}, {"time": 202319, "pitch": 69, "duration": 61, "velocity": 75}, {"time": 202440, "pitch": 69, "duration": 60, "velocity": 64}, {"time": 202560, "pitch": 35, "duration": 60, "velocity": 102}, {"time": 202560, "pitch": 42, "duration": 70, "velocity": 90}, {"time": 202560, "pitch": 69, "duration": 60, "velocity": 97}, {"time": 202801, "pitch": 46, "duration": 70, "velocity": 80}, {"time": 202801, "pitch": 69, "duration": 60, "velocity": 80}, {"time": 202921, "pitch": 69, "duration": 61, "velocity": 80}, {"time": 203042, "pitch": 35, "duration": 60, "velocity": 107}, {"time": 203042, "pitch": 40, "duration": 60, "velocity": 122}, {"time": 203042, "pitch": 42, "duration": 60, "velocity": 78}, {"time": 203042, "pitch": 69, "duration": 60, "velocity": 82}, {"time": 203283, "pitch": 46, "duration": 60, "velocity": 80}, {"time": 203283, "pitch": 69, "duration": 60, "velocity": 68}, {"time": 203403, "pitch": 69, "duration": 60, "velocity": 57}, {"time": 203523, "pitch": 35, "duration": 61, "velocity": 107}, {"time": 203523, "pitch": 42, "duration": 71, "velocity": 82}, {"time": 203523, "pitch": 69, "duration": 61, "velocity": 82}, {"time": 203764, "pitch": 46, "duration": 70, "velocity": 80}, {"time": 203764, "pitch": 69, "duration": 60, "velocity": 60}, {"time": 203884, "pitch": 69, "duration": 61, "velocity": 73}, {"time": 204005, "pitch": 35, "duration": 59, "velocity": 107}, {"time": 204005, "pitch": 40, "duration": 59, "velocity": 122}, {"time": 204005, "pitch": 42, "duration": 69, "velocity": 85}, {"time": 204005, "pitch": 69, "duration": 59, "velocity": 82}, {"time": 204240, "pitch": 35, "duration": 59, "velocity": 107}, {"time": 204240, "pitch": 46, "duration": 69, "velocity": 80}, {"time": 204240, "pitch": 49, "duration": 50, "velocity": 112}, {"time": 204240, "pitch": 69, "duration": 59, "velocity": 75}, {"time": 204358, "pitch": 69, "duration": 59, "velocity": 64}, {"time": 204476, "pitch": 35, "duration": 60, "velocity": 102}, {"time": 204476, "pitch": 42, "duration": 70, "velocity": 90}, {"time": 204476, "pitch": 69, "duration": 60, "velocity": 97}, {"time": 204717, "pitch": 46, "duration": 70, "velocity": 80}, {"time": 204717, "pitch": 69, "duration": 60, "velocity": 80}, {"time": 204837, "pitch": 69, "duration": 60, "velocity": 80}, {"time": 204958, "pitch": 35, "duration": 60, "velocity": 107}, {"time": 204958, "pitch": 40, "duration": 60, "velocity": 122}, {"time": 204958, "pitch": 42, "duration": 60, "velocity": 78}, {"time": 204958, "pitch": 69, "duration": 60, "velocity": 82}, {"time": 205198, "pitch": 46, "duration": 61, "velocity": 80}, {"time": 205198, "pitch": 69, "duration": 61, "velocity": 68}, {"time": 205319, "pitch": 69, "duration": 60, "velocity": 57}, {"time": 205439, "pitch": 35, "duration": 60, "velocity": 107}, {"time": 205439, "pitch": 42, "duration": 70, "velocity": 82}, {"time": 205439, "pitch": 69, "duration": 60, "velocity": 82}, {"time": 205680, "pitch": 46, "duration": 70, "velocity": 80}, {"time": 205680, "pitch": 69, "duration": 60, "velocity": 60}, {"time": 205800, "pitch": 69, "duration": 61, "velocity": 73}, {"time": 205921, "pitch": 35, "duration": 60, "velocity": 107}, {"time": 205921, "pitch": 40, "duration": 60, "velocity": 122}, {"time": 205921, "pitch": 42, "duration": 70, "velocity": 85}, {"time": 205921, "pitch": 69, "duration": 60, "velocity": 82}, {"time": 206162, "pitch": 35, "duration": 60, "velocity": 107}, {"time": 206162, "pitch": 46, "duration": 70, "velocity": 80}, {"time": 206162, "pitch": 57, "duration": 50, "velocity": 112}, {"time": 206162, "pitch": 69, "duration": 60, "velocity": 75}, {"time": 206282, "pitch": 69, "duration": 60, "velocity": 64}, {"time": 206402, "pitch": 35, "duration": 61, "velocity": 102}, {"time": 206402, "pitch": 42, "duration": 71, "velocity": 90}, {"time": 206402, "pitch": 69, "duration": 61, "velocity": 97}, {"time": 206643, "pitch": 46, "duration": 70, "velocity": 80}, {"time": 206643, "pitch": 69, "duration": 60, "velocity": 80}, {"time": 206764, "pitch": 69, "duration": 60, "velocity": 80}, {"time": 206884, "pitch": 35, "duration": 59, "velocity": 107}, {"time": 206884, "pitch": 40, "duration": 59, "velocity": 122}, {"time": 206884, "pitch": 42, "duration": 59, "velocity": 78}, {"time": 206884, "pitch": 57, "duration": 49, "velocity": 127}, {"time": 206884, "pitch": 69, "duration": 59, "velocity": 82}, {"time": 207120, "pitch": 46, "duration": 58, "velocity": 80}, {"time": 207120, "pitch": 69, "duration": 58, "velocity": 68}, {"time": 207237, "pitch": 69, "duration": 59, "velocity": 57}, {"time": 207355, "pitch": 35, "duration": 60, "velocity": 107}, {"time": 207355, "pitch": 42, "duration": 70, "velocity": 82}, {"time": 207355, "pitch": 69, "duration": 60, "velocity": 82}, {"time": 207596, "pitch": 46, "duration": 70, "velocity": 80}, {"time": 207596, "pitch": 69, "duration": 60, "velocity": 60}, {"time": 207716, "pitch": 69, "duration": 61, "velocity": 73}, {"time": 207837, "pitch": 35, "duration": 60, "velocity": 107}, {"time": 207837, "pitch": 40, "duration": 60, "velocity": 122}, {"time": 207837, "pitch": 42, "duration": 70, "velocity": 85}, {"time": 207837, "pitch": 69, "duration": 60, "velocity": 82}, {"time": 208077, "pitch": 46, "duration": 71, "velocity": 80}, {"time": 208077, "pitch": 69, "duration": 61, "velocity": 75}, {"time": 208198, "pitch": 69, "duration": 60, "velocity": 64}, {"time": 208318, "pitch": 35, "duration": 60, "velocity": 102}, {"time": 208318, "pitch": 42, "duration": 71, "velocity": 90}, {"time": 208559, "pitch": 46, "duration": 70, "velocity": 80}, {"time": 208800, "pitch": 35, "duration": 60, "velocity": 107}, {"time": 208800, "pitch": 42, "duration": 60, "velocity": 78}, {"time": 209041, "pitch": 46, "duration": 60, "velocity": 80}, {"time": 209281, "pitch": 35, "duration": 61, "velocity": 107}, {"time": 209281, "pitch": 42, "duration": 71, "velocity": 82}, {"time": 209522, "pitch": 46, "duration": 70, "velocity": 80}, {"time": 209763, "pitch": 35, "duration": 60, "velocity": 107}, {"time": 209763, "pitch": 42, "duration": 70, "velocity": 85}, {"time": 210004, "pitch": 46, "duration": 70, "velocity": 80}, {"time": 210245, "pitch": 35, "duration": 58, "velocity": 102}, {"time": 210245, "pitch": 42, "duration": 68, "velocity": 90}, {"time": 210480, "pitch": 46, "duration": 69, "velocity": 80}, {"time": 210716, "pitch": 35, "duration": 60, "velocity": 107}, {"time": 210716, "pitch": 42, "duration": 60, "velocity": 78}, {"time": 210957, "pitch": 46, "duration": 60, "velocity": 80}, {"time": 211197, "pitch": 35, "duration": 61, "velocity": 107}, {"time": 211197, "pitch": 42, "duration": 71, "velocity": 82}, {"time": 211438, "pitch": 46, "duration": 70, "velocity": 80}, {"time": 211679, "pitch": 35, "duration": 60, "velocity": 107}, {"time": 211679, "pitch": 42, "duration": 70, "velocity": 85}, {"time": 211920, "pitch": 46, "duration": 70, "velocity": 80}, {"time": 212161, "pitch": 35, "duration": 60, "velocity": 102}, {"time": 212161, "pitch": 42, "duration": 70, "velocity": 90}, {"time": 212401, "pitch": 46, "duration": 71, "velocity": 80}, {"time": 212642, "pitch": 35, "duration": 60, "velocity": 107}, {"time": 212642, "pitch": 42, "duration": 60, "velocity": 78}, {"time": 212883, "pitch": 46, "duration": 60, "velocity": 80}, {"time": 213124, "pitch": 35, "duration": 59, "velocity": 107}, {"time": 213124, "pitch": 42, "duration": 68, "velocity": 82}, {"time": 213359, "pitch": 46, "duration": 69, "velocity": 80}, {"time": 213595, "pitch": 35, "duration": 60, "velocity": 107}, {"time": 213595, "pitch": 42, "duration": 70, "velocity": 85}, {"time": 213836, "pitch": 46, "duration": 70, "velocity": 80}, {"time": 214076, "pitch": 35, "duration": 61, "velocity": 102}, {"time": 214076, "pitch": 42, "duration": 71, "velocity": 90}, {"time": 214317, "pitch": 46, "duration": 70, "velocity": 80}, {"time": 214558, "pitch": 35, "duration": 60, "velocity": 107}, {"time": 214558, "pitch": 42, "duration": 60, "velocity": 78}, {"time": 214558, "pitch": 57, "duration": 50, "velocity": 127}, {"time": 214799, "pitch": 46, "duration": 60, "velocity": 80}, {"time": 215040, "pitch": 35, "duration": 60, "velocity": 107}, {"time": 215040, "pitch": 40, "duration": 60, "velocity": 105}, {"time": 215040, "pitch": 42, "duration": 70, "velocity": 90}, {"time": 215160, "pitch": 40, "duration": 60, "velocity": 108}, {"time": 215280, "pitch": 40, "duration": 61, "velocity": 111}, {"time": 215280, "pitch": 46, "duration": 71, "velocity": 80}, {"time": 215401, "pitch": 40, "duration": 60, "velocity": 111}, {"time": 215521, "pitch": 35, "duration": 60, "velocity": 107}, {"time": 215521, "pitch": 40, "duration": 60, "velocity": 111}, {"time": 215521, "pitch": 42, "duration": 60, "velocity": 78}, {"time": 215642, "pitch": 40, "duration": 60, "velocity": 108}, {"time": 215762, "pitch": 35, "duration": 60, "velocity": 107}, {"time": 215762, "pitch": 40, "duration": 60, "velocity": 108}, {"time": 215762, "pitch": 46, "duration": 60, "velocity": 80}, {"time": 215882, "pitch": 40, "duration": 61, "velocity": 117}, {"time": 216003, "pitch": 35, "duration": 60, "velocity": 102}, {"time": 216003, "pitch": 42, "duration": 70, "velocity": 90}, {"time": 216003, "pitch": 57, "duration": 60, "velocity": 112}, {"time": 216244, "pitch": 46, "duration": 70, "velocity": 80}, {"time": 216484, "pitch": 35, "duration": 59, "velocity": 107}, {"time": 216484, "pitch": 40, "duration": 59, "velocity": 122}, {"time": 216484, "pitch": 42, "duration": 59, "velocity": 78}, {"time": 216720, "pitch": 46, "duration": 59, "velocity": 80}, {"time": 216956, "pitch": 35, "duration": 60, "velocity": 107}, {"time": 216956, "pitch": 42, "duration": 70, "velocity": 82}, {"time": 217196, "pitch": 46, "duration": 71, "velocity": 80}, {"time": 217437, "pitch": 35, "duration": 60, "velocity": 107}, {"time": 217437, "pitch": 40, "duration": 60, "velocity": 122}, {"time": 217437, "pitch": 42, "duration": 70, "velocity": 85}, {"time": 217678, "pitch": 46, "duration": 70, "velocity": 80}, {"time": 217919, "pitch": 35, "duration": 60, "velocity": 102}, {"time": 217919, "pitch": 42, "duration": 70, "velocity": 90}, {"time": 218159, "pitch": 46, "duration": 71, "velocity": 80}, {"time": 218400, "pitch": 35, "duration": 60, "velocity": 107}, {"time": 218400, "pitch": 40, "duration": 60, "velocity": 122}, {"time": 218400, "pitch": 42, "duration": 60, "velocity": 78}, {"time": 218641, "pitch": 46, "duration": 60, "velocity": 80}, {"time": 218882, "pitch": 35, "duration": 60, "velocity": 107}, {"time": 218882, "pitch": 42, "duration": 70, "velocity": 82}, {"time": 219123, "pitch": 46, "duration": 70, "velocity": 80}, {"time": 219247, "pitch": 35, "duration": 60, "velocity": 107}, {"time": 219363, "pitch": 35, "duration": 61, "velocity": 107}, {"time": 219363, "pitch": 40, "duration": 61, "velocity": 122}, {"time": 219363, "pitch": 42, "duration": 71, "velocity": 85}, {"time": 219604, "pitch": 46, "duration": 70, "velocity": 80}, {"time": 219729, "pitch": 35, "duration": 60, "velocity": 107}, {"time": 219845, "pitch": 35, "duration": 59, "velocity": 102}, {"time": 219845, "pitch": 42, "duration": 69, "velocity": 90}, {"time": 220081, "pitch": 46, "duration": 68, "velocity": 80}, {"time": 220316, "pitch": 35, "duration": 60, "velocity": 107}, {"time": 220316, "pitch": 40, "duration": 60, "velocity": 122}, {"time": 220316, "pitch": 42, "duration": 60, "velocity": 78}, {"time": 220557, "pitch": 46, "duration": 60, "velocity": 80}, {"time": 220798, "pitch": 35, "duration": 60, "velocity": 107}, {"time": 220798, "pitch": 42, "duration": 70, "velocity": 82}, {"time": 221039, "pitch": 46, "duration": 70, "velocity": 80}, {"time": 221279, "pitch": 35, "duration": 61, "velocity": 107}, {"time": 221279, "pitch": 40, "duration": 61, "velocity": 122}, {"time": 221279, "pitch": 42, "duration": 71, "velocity": 85}, {"time": 221520, "pitch": 46, "duration": 70, "velocity": 80}, {"time": 221761, "pitch": 35, "duration": 60, "velocity": 102}, {"time": 221761, "pitch": 42, "duration": 70, "velocity": 90}, {"time": 222002, "pitch": 46, "duration": 70, "velocity": 80}, {"time": 222243, "pitch": 35, "duration": 60, "velocity": 107}, {"time": 222243, "pitch": 40, "duration": 60, "velocity": 122}, {"time": 222243, "pitch": 42, "duration": 60, "velocity": 78}, {"time": 222243, "pitch": 57, "duration": 1434, "velocity": 127}, {"time": 222483, "pitch": 46, "duration": 61, "velocity": 80}, {"time": 222724, "pitch": 35, "duration": 59, "velocity": 107}, {"time": 222724, "pitch": 42, "duration": 69, "velocity": 82}, {"time": 222960, "pitch": 46, "duration": 68, "velocity": 80}, {"time": 223081, "pitch": 35, "duration": 59, "velocity": 107}, {"time": 223195, "pitch": 35, "duration": 60, "velocity": 107}, {"time": 223195, "pitch": 40, "duration": 60, "velocity": 122}, {"time": 223195, "pitch": 42, "duration": 70, "velocity": 85}, {"time": 223436, "pitch": 46, "duration": 70, "velocity": 80}, {"time": 223560, "pitch": 35, "duration": 61, "velocity": 107}, {"time": 223677, "pitch": 35, "duration": 60, "velocity": 102}, {"time": 223677, "pitch": 42, "duration": 70, "velocity": 90}, {"time": 223677, "pitch": 57, "duration": 60, "velocity": 112}, {"time": 223918, "pitch": 46, "duration": 70, "velocity": 80}, {"time": 224158, "pitch": 35, "duration": 61, "velocity": 107}, {"time": 224158, "pitch": 40, "duration": 61, "velocity": 122}, {"time": 224158, "pitch": 42, "duration": 61, "velocity": 78}, {"time": 224399, "pitch": 46, "duration": 60, "velocity": 80}, {"time": 224640, "pitch": 35, "duration": 60, "velocity": 107}, {"time": 224640, "pitch": 42, "duration": 70, "velocity": 82}, {"time": 224881, "pitch": 46, "duration": 70, "velocity": 80}, {"time": 225122, "pitch": 35, "duration": 60, "velocity": 107}, {"time": 225122, "pitch": 40, "duration": 60, "velocity": 122}, {"time": 225122, "pitch": 42, "duration": 70, "velocity": 85}, {"time": 225362, "pitch": 46, "duration": 71, "velocity": 80}, {"time": 225603, "pitch": 35, "duration": 60, "velocity": 102}, {"time": 225603, "pitch": 42, "duration": 70, "velocity": 90}, {"time": 225844, "pitch": 46, "duration": 70, "velocity": 80}, {"time": 226085, "pitch": 35, "duration": 59, "velocity": 107}, {"time": 226085, "pitch": 40, "duration": 59, "velocity": 122}, {"time": 226085, "pitch": 42, "duration": 59, "velocity": 78}, {"time": 226320, "pitch": 46, "duration": 59, "velocity": 80}, {"time": 226556, "pitch": 35, "duration": 60, "velocity": 107}, {"time": 226556, "pitch": 42, "duration": 70, "velocity": 82}, {"time": 226797, "pitch": 46, "duration": 70, "velocity": 80}, {"time": 226921, "pitch": 35, "duration": 60, "velocity": 107}, {"time": 227037, "pitch": 35, "duration": 61, "velocity": 107}, {"time": 227037, "pitch": 40, "duration": 61, "velocity": 122}, {"time": 227037, "pitch": 42, "duration": 71, "velocity": 85}, {"time": 227278, "pitch": 46, "duration": 71, "velocity": 80}, {"time": 227403, "pitch": 35, "duration": 60, "velocity": 107}, {"time": 227519, "pitch": 35, "duration": 60, "velocity": 102}, {"time": 227519, "pitch": 42, "duration": 70, "velocity": 90}, {"time": 227760, "pitch": 46, "duration": 70, "velocity": 80}, {"time": 228001, "pitch": 35, "duration": 60, "velocity": 107}, {"time": 228001, "pitch": 40, "duration": 60, "velocity": 122}, {"time": 228001, "pitch": 42, "duration": 60, "velocity": 78}, {"time": 228241, "pitch": 46, "duration": 61, "velocity": 80}, {"time": 228482, "pitch": 35, "duration": 60, "velocity": 107}, {"time": 228482, "pitch": 42, "duration": 70, "velocity": 82}, {"time": 228723, "pitch": 46, "duration": 70, "velocity": 80}, {"time": 228964, "pitch": 35, "duration": 59, "velocity": 107}, {"time": 228964, "pitch": 40, "duration": 59, "velocity": 122}, {"time": 228964, "pitch": 42, "duration": 68, "velocity": 85}, {"time": 229199, "pitch": 46, "duration": 69, "velocity": 80}, {"time": 229435, "pitch": 35, "duration": 60, "velocity": 102}, {"time": 229435, "pitch": 40, "duration": 60, "velocity": 122}, {"time": 229435, "pitch": 42, "duration": 70, "velocity": 90}, {"time": 229555, "pitch": 40, "duration": 61, "velocity": 122}, {"time": 229676, "pitch": 40, "duration": 60, "velocity": 122}, {"time": 229676, "pitch": 46, "duration": 70, "velocity": 80}, {"time": 229796, "pitch": 40, "duration": 60, "velocity": 122}, {"time": 229917, "pitch": 35, "duration": 60, "velocity": 107}, {"time": 229917, "pitch": 40, "duration": 60, "velocity": 122}, {"time": 229917, "pitch": 42, "duration": 60, "velocity": 78}, {"time": 229917, "pitch": 57, "duration": 1444, "velocity": 127}, {"time": 230037, "pitch": 40, "duration": 60, "velocity": 122}, {"time": 230157, "pitch": 46, "duration": 61, "velocity": 80}, {"time": 230278, "pitch": 40, "duration": 60, "velocity": 122}, {"time": 230398, "pitch": 35, "duration": 60, "velocity": 107}, {"time": 230398, "pitch": 42, "duration": 70, "velocity": 82}, {"time": 230519, "pitch": 40, "duration": 60, "velocity": 122}, {"time": 230639, "pitch": 46, "duration": 70, "velocity": 80}, {"time": 230759, "pitch": 40, "duration": 61, "velocity": 122}, {"time": 230763, "pitch": 35, "duration": 61, "velocity": 107}, {"time": 230880, "pitch": 35, "duration": 60, "velocity": 107}, {"time": 230880, "pitch": 40, "duration": 60, "velocity": 122}, {"time": 230880, "pitch": 42, "duration": 70, "velocity": 85}, {"time": 231000, "pitch": 40, "duration": 60, "velocity": 122}, {"time": 231121, "pitch": 40, "duration": 60, "velocity": 122}, {"time": 231121, "pitch": 46, "duration": 70, "velocity": 80}, {"time": 231241, "pitch": 40, "duration": 60, "velocity": 122}, {"time": 231245, "pitch": 35, "duration": 60, "velocity": 107}, {"time": 231361, "pitch": 35, "duration": 61, "velocity": 102}, {"time": 231361, "pitch": 42, "duration": 71, "velocity": 90}, {"time": 231361, "pitch": 57, "duration": 61, "velocity": 112}, {"time": 231602, "pitch": 46, "duration": 70, "velocity": 80}, {"time": 231843, "pitch": 35, "duration": 60, "velocity": 107}, {"time": 231843, "pitch": 40, "duration": 60, "velocity": 122}, {"time": 231843, "pitch": 42, "duration": 60, "velocity": 78}, {"time": 232084, "pitch": 46, "duration": 60, "velocity": 80}, {"time": 232324, "pitch": 35, "duration": 59, "velocity": 107}, {"time": 232324, "pitch": 42, "duration": 69, "velocity": 82}, {"time": 232560, "pitch": 46, "duration": 69, "velocity": 80}, {"time": 232796, "pitch": 35, "duration": 60, "velocity": 107}, {"time": 232796, "pitch": 40, "duration": 60, "velocity": 122}, {"time": 232796, "pitch": 42, "duration": 70, "velocity": 85}, {"time": 233036, "pitch": 46, "duration": 71, "velocity": 80}, {"time": 233277, "pitch": 35, "duration": 60, "velocity": 102}, {"time": 233277, "pitch": 42, "duration": 70, "velocity": 90}, {"time": 233518, "pitch": 46, "duration": 70, "velocity": 80}, {"time": 233759, "pitch": 35, "duration": 60, "velocity": 107}, {"time": 233759, "pitch": 40, "duration": 60, "velocity": 122}, {"time": 233759, "pitch": 42, "duration": 60, "velocity": 78}, {"time": 234000, "pitch": 46, "duration": 60, "velocity": 80}, {"time": 234240, "pitch": 35, "duration": 61, "velocity": 107}, {"time": 234240, "pitch": 42, "duration": 71, "velocity": 82}, {"time": 234481, "pitch": 46, "duration": 70, "velocity": 80}, {"time": 234606, "pitch": 35, "duration": 60, "velocity": 107}, {"time": 234722, "pitch": 35, "duration": 60, "velocity": 107}, {"time": 234722, "pitch": 40, "duration": 60, "velocity": 122}, {"time": 234722, "pitch": 42, "duration": 70, "velocity": 85}, {"time": 234963, "pitch": 46, "duration": 70, "velocity": 80}, {"time": 235087, "pitch": 35, "duration": 60, "velocity": 107}, {"time": 235204, "pitch": 35, "duration": 60, "velocity": 102}, {"time": 235204, "pitch": 42, "duration": 70, "velocity": 90}, {"time": 235444, "pitch": 46, "duration": 71, "velocity": 80}, {"time": 235685, "pitch": 35, "duration": 59, "velocity": 107}, {"time": 235685, "pitch": 40, "duration": 59, "velocity": 122}, {"time": 235685, "pitch": 42, "duration": 59, "velocity": 78}, {"time": 235921, "pitch": 46, "duration": 59, "velocity": 80}, {"time": 236156, "pitch": 35, "duration": 61, "velocity": 107}, {"time": 236156, "pitch": 42, "duration": 71, "velocity": 82}, {"time": 236397, "pitch": 46, "duration": 70, "velocity": 80}, {"time": 236638, "pitch": 35, "duration": 60, "velocity": 107}, {"time": 236638, "pitch": 40, "duration": 60, "velocity": 122}, {"time": 236638, "pitch": 42, "duration": 70, "velocity": 85}, {"time": 236879, "pitch": 46, "duration": 70, "velocity": 80}, {"time": 237119, "pitch": 35, "duration": 61, "velocity": 102}, {"time": 237119, "pitch": 42, "duration": 71, "velocity": 90}, {"time": 237360, "pitch": 46, "duration": 71, "velocity": 80}, {"time": 237601, "pitch": 35, "duration": 60, "velocity": 107}, {"time": 237601, "pitch": 40, "duration": 60, "velocity": 122}, {"time": 237601, "pitch": 42, "duration": 60, "velocity": 78}, {"time": 237601, "pitch": 57, "duration": 1434, "velocity": 127}, {"time": 237842, "pitch": 46, "duration": 60, "velocity": 80}, {"time": 238083, "pitch": 35, "duration": 60, "velocity": 107}, {"time": 238083, "pitch": 42, "duration": 70, "velocity": 82}, {"time": 238323, "pitch": 46, "duration": 71, "velocity": 80}, {"time": 238448, "pitch": 35, "duration": 60, "velocity": 107}, {"time": 238564, "pitch": 35, "duration": 59, "velocity": 107}, {"time": 238564, "pitch": 40, "duration": 59, "velocity": 122}, {"time": 238564, "pitch": 42, "duration": 69, "velocity": 85}, {"time": 238800, "pitch": 46, "duration": 69, "velocity": 80}, {"time": 238922, "pitch": 35, "duration": 58, "velocity": 107}, {"time": 239035, "pitch": 35, "duration": 61, "velocity": 102}, {"time": 239035, "pitch": 42, "duration": 71, "velocity": 90}, {"time": 239035, "pitch": 57, "duration": 61, "velocity": 112}, {"time": 239276, "pitch": 46, "duration": 70, "velocity": 80}, {"time": 239517, "pitch": 35, "duration": 60, "velocity": 107}, {"time": 239517, "pitch": 40, "duration": 60, "velocity": 122}, {"time": 239517, "pitch": 42, "duration": 60, "velocity": 78}, {"time": 239758, "pitch": 46, "duration": 60, "velocity": 80}, {"time": 239999, "pitch": 35, "duration": 60, "velocity": 107}, {"time": 239999, "pitch": 42, "duration": 70, "velocity": 82}, {"time": 240239, "pitch": 46, "duration": 71, "velocity": 80}, {"time": 240480, "pitch": 35, "duration": 60, "velocity": 107}, {"time": 240480, "pitch": 40, "duration": 60, "velocity": 122}, {"time": 240480, "pitch": 42, "duration": 70, "velocity": 85}, {"time": 240721, "pitch": 46, "duration": 70, "velocity": 80}, {"time": 240962, "pitch": 35, "duration": 60, "velocity": 102}, {"time": 240962, "pitch": 42, "duration": 70, "velocity": 90}, {"time": 241203, "pitch": 46, "duration": 70, "velocity": 80}, {"time": 241443, "pitch": 35, "duration": 61, "velocity": 107}, {"time": 241443, "pitch": 40, "duration": 61, "velocity": 122}, {"time": 241443, "pitch": 42, "duration": 61, "velocity": 78}, {"time": 241684, "pitch": 46, "duration": 60, "velocity": 80}, {"time": 241925, "pitch": 35, "duration": 59, "velocity": 107}, {"time": 241925, "pitch": 42, "duration": 69, "velocity": 82}, {"time": 242160, "pitch": 46, "duration": 69, "velocity": 80}, {"time": 242282, "pitch": 35, "duration": 59, "velocity": 107}, {"time": 242396, "pitch": 35, "duration": 60, "velocity": 107}, {"time": 242396, "pitch": 40, "duration": 60, "velocity": 122}, {"time": 242396, "pitch": 42, "duration": 70, "velocity": 85}, {"time": 242637, "pitch": 46, "duration": 70, "velocity": 80}, {"time": 242761, "pitch": 35, "duration": 60, "velocity": 107}, {"time": 242878, "pitch": 35, "duration": 60, "velocity": 102}, {"time": 242878, "pitch": 42, "duration": 70, "velocity": 90}, {"time": 243118, "pitch": 46, "duration": 71, "velocity": 80}, {"time": 243359, "pitch": 35, "duration": 60, "velocity": 107}, {"time": 243359, "pitch": 40, "duration": 60, "velocity": 122}, {"time": 243359, "pitch": 42, "duration": 60, "velocity": 78}, {"time": 243600, "pitch": 46, "duration": 60, "velocity": 80}, {"time": 243841, "pitch": 35, "duration": 60, "velocity": 107}, {"time": 243841, "pitch": 42, "duration": 70, "velocity": 82}, {"time": 244082, "pitch": 46, "duration": 70, "velocity": 80}, {"time": 244322, "pitch": 35, "duration": 61, "velocity": 107}, {"time": 244322, "pitch": 40, "duration": 61, "velocity": 122}, {"time": 244322, "pitch": 42, "duration": 71, "velocity": 85}, {"time": 244563, "pitch": 46, "duration": 70, "velocity": 80}, {"time": 244804, "pitch": 35, "duration": 60, "velocity": 102}, {"time": 244804, "pitch": 40, "duration": 60, "velocity": 122}, {"time": 244804, "pitch": 42, "duration": 70, "velocity": 90}, {"time": 244924, "pitch": 40, "duration": 61, "velocity": 122}, {"time": 245045, "pitch": 40, "duration": 60, "velocity": 122}, {"time": 245045, "pitch": 46, "duration": 70, "velocity": 80}, {"time": 245165, "pitch": 40, "duration": 60, "velocity": 122}, {"time": 245286, "pitch": 35, "duration": 60, "velocity": 107}, {"time": 245286, "pitch": 40, "duration": 60, "velocity": 122}, {"time": 245286, "pitch": 42, "duration": 60, "velocity": 78}, {"time": 245286, "pitch": 57, "duration": 1444, "velocity": 127}, {"time": 245406, "pitch": 40, "duration": 60, "velocity": 122}, {"time": 245526, "pitch": 46, "duration": 61, "velocity": 80}, {"time": 245647, "pitch": 40, "duration": 60, "velocity": 122}, {"time": 245767, "pitch": 35, "duration": 60, "velocity": 107}, {"time": 245767, "pitch": 42, "duration": 70, "velocity": 82}, {"time": 245888, "pitch": 40, "duration": 60, "velocity": 122}, {"time": 246008, "pitch": 46, "duration": 70, "velocity": 80}, {"time": 246128, "pitch": 40, "duration": 61, "velocity": 122}, {"time": 246132, "pitch": 35, "duration": 61, "velocity": 107}, {"time": 246249, "pitch": 35, "duration": 60, "velocity": 107}, {"time": 246249, "pitch": 40, "duration": 60, "velocity": 122}, {"time": 246249, "pitch": 42, "duration": 70, "velocity": 85}, {"time": 246369, "pitch": 40, "duration": 60, "velocity": 122}, {"time": 246490, "pitch": 40, "duration": 60, "velocity": 122}, {"time": 246490, "pitch": 46, "duration": 70, "velocity": 80}, {"time": 246610, "pitch": 40, "duration": 60, "velocity": 122}, {"time": 246614, "pitch": 35, "duration": 60, "velocity": 107}, {"time": 75839, "pitch": 52, "duration": 2337, "velocity": 127}, {"time": 137284, "pitch": 76, "duration": 2337, "velocity": 127}, {"time": 187202, "pitch": 52, "duration": 2337, "velocity": 127}, {"time": 20163, "pitch": 81, "duration": 321, "velocity": 110}, {"time": 20645, "pitch": 81, "duration": 235, "velocity": 113}, {"time": 20880, "pitch": 81, "duration": 346, "velocity": 102}, {"time": 22079, "pitch": 81, "duration": 301, "velocity": 113}, {"time": 22801, "pitch": 81, "duration": 321, "velocity": 119}, {"time": 23995, "pitch": 81, "duration": 291, "velocity": 119}, {"time": 24357, "pitch": 81, "duration": 241, "velocity": 89}, {"time": 24717, "pitch": 81, "duration": 321, "velocity": 113}, {"time": 25921, "pitch": 81, "duration": 301, "velocity": 116}, {"time": 26644, "pitch": 81, "duration": 170, "velocity": 116}, {"time": 27120, "pitch": 81, "duration": 118, "velocity": 100}, {"time": 27356, "pitch": 81, "duration": 351, "velocity": 102}, {"time": 75839, "pitch": 79, "duration": 1690, "velocity": 127}, {"time": 75839, "pitch": 82, "duration": 442, "velocity": 127}, {"time": 76201, "pitch": 74, "duration": 783, "velocity": 127}, {"time": 85199, "pitch": 79, "duration": 1754, "velocity": 127}, {"time": 92881, "pitch": 79, "duration": 1495, "velocity": 127}, {"time": 96956, "pitch": 81, "duration": 331, "velocity": 100}, {"time": 97678, "pitch": 81, "duration": 361, "velocity": 100}, {"time": 98882, "pitch": 81, "duration": 331, "velocity": 100}, {"time": 99599, "pitch": 81, "duration": 376, "velocity": 100}, {"time": 100557, "pitch": 81, "duration": 169, "velocity": 100}, {"time": 100798, "pitch": 81, "duration": 381, "velocity": 100}, {"time": 101520, "pitch": 81, "duration": 352, "velocity": 100}, {"time": 102351, "pitch": 81, "duration": 658, "velocity": 127}, {"time": 103436, "pitch": 81, "duration": 261, "velocity": 100}, {"time": 103918, "pitch": 81, "duration": 140, "velocity": 100}, {"time": 104159, "pitch": 81, "duration": 421, "velocity": 100}, {"time": 137284, "pitch": 79, "duration": 1685, "velocity": 127}, {"time": 137284, "pitch": 82, "duration": 432, "velocity": 127}, {"time": 137638, "pitch": 74, "duration": 780, "velocity": 127}, {"time": 146643, "pitch": 79, "duration": 1746, "velocity": 127}, {"time": 154315, "pitch": 79, "duration": 1505, "velocity": 127}, {"time": 158641, "pitch": 78, "duration": 90, "velocity": 112}, {"time": 159123, "pitch": 78, "duration": 90, "velocity": 112}, {"time": 159604, "pitch": 78, "duration": 91, "velocity": 112}, {"time": 160081, "pitch": 78, "duration": 88, "velocity": 112}, {"time": 160557, "pitch": 78, "duration": 90, "velocity": 112}, {"time": 161039, "pitch": 78, "duration": 90, "velocity": 112}, {"time": 161520, "pitch": 78, "duration": 91, "velocity": 112}, {"time": 162002, "pitch": 78, "duration": 90, "velocity": 112}, {"time": 162483, "pitch": 78, "duration": 91, "velocity": 112}, {"time": 162960, "pitch": 78, "duration": 88, "velocity": 112}, {"time": 163436, "pitch": 78, "duration": 90, "velocity": 112}, {"time": 163918, "pitch": 78, "duration": 90, "velocity": 112}, {"time": 164399, "pitch": 78, "duration": 91, "velocity": 112}, {"time": 164881, "pitch": 78, "duration": 90, "velocity": 112}, {"time": 165363, "pitch": 78, "duration": 90, "velocity": 112}, {"time": 165844, "pitch": 78, "duration": 90, "velocity": 112}, {"time": 166320, "pitch": 78, "duration": 89, "velocity": 112}, {"time": 166797, "pitch": 78, "duration": 90, "velocity": 112}, {"time": 167278, "pitch": 78, "duration": 91, "velocity": 112}, {"time": 167760, "pitch": 78, "duration": 90, "velocity": 112}, {"time": 168242, "pitch": 78, "duration": 90, "velocity": 112}, {"time": 168723, "pitch": 78, "duration": 90, "velocity": 112}, {"time": 169200, "pitch": 78, "duration": 88, "velocity": 112}, {"time": 169676, "pitch": 78, "duration": 90, "velocity": 112}, {"time": 170157, "pitch": 78, "duration": 91, "velocity": 112}, {"time": 170639, "pitch": 78, "duration": 90, "velocity": 112}, {"time": 171121, "pitch": 78, "duration": 90, "velocity": 112}, {"time": 171602, "pitch": 78, "duration": 91, "velocity": 112}, {"time": 172084, "pitch": 78, "duration": 90, "velocity": 112}, {"time": 172560, "pitch": 78, "duration": 89, "velocity": 112}, {"time": 173037, "pitch": 78, "duration": 90, "velocity": 112}, {"time": 173518, "pitch": 78, "duration": 241, "velocity": 112}, {"time": 187202, "pitch": 79, "duration": 1685, "velocity": 127}, {"time": 187202, "pitch": 82, "duration": 441, "velocity": 127}, {"time": 187564, "pitch": 74, "duration": 778, "velocity": 127}, {"time": 196561, "pitch": 79, "duration": 1746, "velocity": 127}, {"time": 204238, "pitch": 79, "duration": 1500, "velocity": 127}, {"time": 216003, "pitch": 81, "duration": 331, "velocity": 100}, {"time": 216720, "pitch": 81, "duration": 356, "velocity": 100}, {"time": 217919, "pitch": 81, "duration": 331, "velocity": 100}, {"time": 218641, "pitch": 81, "duration": 381, "velocity": 100}, {"time": 219604, "pitch": 81, "duration": 169, "velocity": 100}, {"time": 219845, "pitch": 81, "duration": 373, "velocity": 100}, {"time": 220557, "pitch": 81, "duration": 351, "velocity": 100}, {"time": 221388, "pitch": 81, "duration": 373, "velocity": 100}, {"time": 221761, "pitch": 81, "duration": 291, "velocity": 100}, {"time": 222483, "pitch": 81, "duration": 261, "velocity": 100}, {"time": 222960, "pitch": 81, "duration": 137, "velocity": 100}, {"time": 223195, "pitch": 81, "duration": 422, "velocity": 100}, {"time": 223677, "pitch": 81, "duration": 331, "velocity": 100}, {"time": 224399, "pitch": 81, "duration": 361, "velocity": 100}, {"time": 225603, "pitch": 81, "duration": 331, "velocity": 100}, {"time": 226320, "pitch": 81, "duration": 376, "velocity": 100}, {"time": 227278, "pitch": 81, "duration": 169, "velocity": 100}, {"time": 227519, "pitch": 81, "duration": 381, "velocity": 100}, {"time": 228241, "pitch": 81, "duration": 352, "velocity": 100}, {"time": 229070, "pitch": 81, "duration": 365, "velocity": 100}, {"time": 229435, "pitch": 81, "duration": 291, "velocity": 100}, {"time": 230157, "pitch": 81, "duration": 261, "velocity": 100}, {"time": 230639, "pitch": 81, "duration": 140, "velocity": 100}, {"time": 230880, "pitch": 81, "duration": 421, "velocity": 100}, {"time": 231361, "pitch": 81, "duration": 331, "velocity": 100}, {"time": 232084, "pitch": 81, "duration": 358, "velocity": 100}, {"time": 233277, "pitch": 81, "duration": 331, "velocity": 100}, {"time": 234000, "pitch": 81, "duration": 381, "velocity": 100}, {"time": 234963, "pitch": 81, "duration": 168, "velocity": 100}, {"time": 235204, "pitch": 81, "duration": 381, "velocity": 100}, {"time": 235921, "pitch": 81, "duration": 346, "velocity": 100}, {"time": 236746, "pitch": 81, "duration": 373, "velocity": 100}, {"time": 237119, "pitch": 81, "duration": 291, "velocity": 100}, {"time": 237842, "pitch": 81, "duration": 261, "velocity": 100}, {"time": 238323, "pitch": 81, "duration": 141, "velocity": 100}, {"time": 238564, "pitch": 81, "duration": 413, "velocity": 100}, {"time": 239035, "pitch": 81, "duration": 331, "velocity": 100}, {"time": 239758, "pitch": 81, "duration": 361, "velocity": 100}, {"time": 240962, "pitch": 81, "duration": 331, "velocity": 100}, {"time": 241684, "pitch": 81, "duration": 378, "velocity": 100}, {"time": 242637, "pitch": 81, "duration": 168, "velocity": 100}, {"time": 242878, "pitch": 81, "duration": 381, "velocity": 100}, {"time": 243600, "pitch": 81, "duration": 351, "velocity": 100}, {"time": 244431, "pitch": 81, "duration": 373, "velocity": 100}, {"time": 244804, "pitch": 81, "duration": 291, "velocity": 100}, {"time": 245526, "pitch": 81, "duration": 261, "velocity": 100}, {"time": 246008, "pitch": 81, "duration": 140, "velocity": 100}, {"time": 246249, "pitch": 81, "duration": 421, "velocity": 100}, {"time": 25921, "pitch": 67, "duration": 101, "velocity": 100}, {"time": 26042, "pitch": 67, "duration": 100, "velocity": 100}, {"time": 26162, "pitch": 63, "duration": 100, "velocity": 100}, {"time": 26644, "pitch": 67, "duration": 100, "velocity": 100}, {"time": 26764, "pitch": 67, "duration": 100, "velocity": 100}, {"time": 26884, "pitch": 63, "duration": 98, "velocity": 100}, {"time": 27356, "pitch": 63, "duration": 100, "velocity": 100}, {"time": 111602, "pitch": 51, "duration": 321, "velocity": 110}, {"time": 111964, "pitch": 51, "duration": 321, "velocity": 90}, {"time": 112325, "pitch": 51, "duration": 314, "velocity": 70}, {"time": 112678, "pitch": 51, "duration": 319, "velocity": 50}, {"time": 113037, "pitch": 51, "duration": 321, "velocity": 30}, {"time": 113398, "pitch": 51, "duration": 321, "velocity": 10}]}]}