{"metadata": {"schema_version": "0.1", "title": "RWC-MDB-P-2001 No. 88: Woman Like You / Shinya Iguchi", "copyright": "RWC Music Database. Copyright (C) 2001 Real World Computing Partnership (contact: Masataka GOTO <m.goto@aist.go.jp>)", "source_filename": "RM-P088.SMF_SYNC.MID", "source_format": "midi"}, "resolution": 480, "tempos": [{"time": 0, "qpm": 60.0}, {"time": 480, "qpm": 122.44897959183673}, {"time": 960, "qpm": 120.0}, {"time": 3840, "qpm": 117.6470588235294}, {"time": 4320, "qpm": 120.0}, {"time": 6240, "qpm": 122.44897959183673}, {"time": 6720, "qpm": 120.0}, {"time": 7200, "qpm": 122.44897959183673}, {"time": 7680, "qpm": 120.0}, {"time": 9600, "qpm": 117.6470588235294}, {"time": 10080, "qpm": 120.0}, {"time": 13920, "qpm": 122.44897959183673}, {"time": 14400, "qpm": 120.0}, {"time": 17280, "qpm": 117.6470588235294}, {"time": 18720, "qpm": 122.44897959183673}, {"time": 19200, "qpm": 120.0}, {"time": 25920, "qpm": 117.6470588235294}, {"time": 26400, "qpm": 122.44897959183673}, {"time": 26880, "qpm": 120.0}, {"time": 27360, "qpm": 122.44897959183673}, {"time": 27840, "qpm": 120.0}, {"time": 28320, "qpm": 122.44897959183673}, {"time": 28800, "qpm": 120.0}, {"time": 30720, "qpm": 117.6470588235294}, {"time": 31200, "qpm": 120.0}, {"time": 31680, "qpm": 117.6470588235294}, {"time": 32160, "qpm": 120.0}, {"time": 33600, "qpm": 117.6470588235294}, {"time": 34080, "qpm": 120.0}, {"time": 39840, "qpm": 122.44897959183673}, {"time": 41280, "qpm": 120.0}, {"time": 42240, "qpm": 117.6470588235294}, {"time": 42720, "qpm": 120.0}, {"time": 43200, "qpm": 117.6470588235294}, {"time": 43680, "qpm": 122.44897959183673}, {"time": 44160, "qpm": 120.0}, {"time": 47040, "qpm": 117.6470588235294}, {"time": 47520, "qpm": 120.0}, {"time": 48960, "qpm": 117.6470588235294}, {"time": 49440, "qpm": 120.0}, {"time": 52800, "qpm": 117.6470588235294}, {"time": 53280, "qpm": 122.44897959183673}, {"time": 53760, "qpm": 120.0}, {"time": 54240, "qpm": 122.44897959183673}, {"time": 54720, "qpm": 120.0}, {"time": 58560, "qpm": 117.6470588235294}, {"time": 59040, "qpm": 122.44897959183673}, {"time": 59520, "qpm": 120.0}, {"time": 60000, "qpm": 122.44897959183673}, {"time": 60480, "qpm": 120.0}, {"time": 61440, "qpm": 117.6470588235294}, {"time": 61920, "qpm": 120.0}, {"time": 62400, "qpm": 117.6470588235294}, {"time": 62880, "qpm": 120.0}, {"time": 64800, "qpm": 122.44897959183673}, {"time": 65280, "qpm": 120.0}, {"time": 65760, "qpm": 122.44897959183673}, {"time": 66240, "qpm": 120.0}, {"time": 67200, "qpm": 117.6470588235294}, {"time": 67680, "qpm": 120.0}, {"time": 68160, "qpm": 117.6470588235294}, {"time": 68640, "qpm": 120.0}, {"time": 72480, "qpm": 122.44897959183673}, {"time": 72960, "qpm": 120.0}, {"time": 83520, "qpm": 117.6470588235294}, {"time": 84000, "qpm": 120.0}, {"time": 85920, "qpm": 122.44897959183673}, {"time": 86400, "qpm": 120.0}, {"time": 86880, "qpm": 122.44897959183673}, {"time": 87360, "qpm": 120.0}, {"time": 88320, "qpm": 117.6470588235294}, {"time": 88800, "qpm": 120.0}, {"time": 89280, "qpm": 117.6470588235294}, {"time": 89760, "qpm": 120.0}, {"time": 91680, "qpm": 122.44897959183673}, {"time": 92160, "qpm": 120.0}, {"time": 92640, "qpm": 122.44897959183673}, {"time": 93120, "qpm": 120.0}, {"time": 94080, "qpm": 117.6470588235294}, {"time": 94560, "qpm": 120.0}, {"time": 95040, "qpm": 117.6470588235294}, {"time": 95520, "qpm": 122.44897959183673}, {"time": 96000, "qpm": 120.0}, {"time": 100800, "qpm": 117.6470588235294}, {"time": 101280, "qpm": 122.44897959183673}, {"time": 101760, "qpm": 120.0}, {"time": 104640, "qpm": 117.6470588235294}, {"time": 105120, "qpm": 122.44897959183673}, {"time": 105600, "qpm": 120.0}, {"time": 112320, "qpm": 117.6470588235294}, {"time": 112800, "qpm": 120.0}, {"time": 116160, "qpm": 117.6470588235294}, {"time": 116640, "qpm": 122.44897959183673}, {"time": 117120, "qpm": 120.0}, {"time": 118560, "qpm": 122.44897959183673}, {"time": 119040, "qpm": 120.0}, {"time": 120480, "qpm": 122.44897959183673}, {"time": 120960, "qpm": 120.0}, {"time": 122880, "qpm": 117.6470588235294}, {"time": 123360, "qpm": 120.0}, {"time": 123840, "qpm": 117.6470588235294}, {"time": 124320, "qpm": 120.0}, {"time": 128160, "qpm": 122.44897959183673}, {"time": 128640, "qpm": 120.0}, {"time": 129120, "qpm": 122.44897959183673}, {"time": 129600, "qpm": 120.0}, {"time": 132480, "qpm": 117.6470588235294}, {"time": 132960, "qpm": 120.0}, {"time": 133440, "qpm": 117.6470588235294}, {"time": 133920, "qpm": 122.44897959183673}, {"time": 134400, "qpm": 120.0}, {"time": 139200, "qpm": 117.6470588235294}, {"time": 139680, "qpm": 122.44897959183673}, {"time": 140160, "qpm": 120.0}, {"time": 140640, "qpm": 122.44897959183673}, {"time": 141120, "qpm": 120.0}, {"time": 145920, "qpm": 117.6470588235294}, {"time": 146400, "qpm": 120.0}, {"time": 146880, "qpm": 117.6470588235294}, {"time": 147360, "qpm": 120.0}, {"time": 149280, "qpm": 122.44897959183673}, {"time": 149760, "qpm": 120.0}, {"time": 154560, "qpm": 117.6470588235294}, {"time": 155040, "qpm": 120.0}, {"time": 160800, "qpm": 122.44897959183673}, {"time": 161280, "qpm": 120.0}, {"time": 161760, "qpm": 122.44897959183673}, {"time": 162240, "qpm": 120.0}, {"time": 164160, "qpm": 117.6470588235294}, {"time": 164640, "qpm": 122.44897959183673}, {"time": 165120, "qpm": 120.0}, {"time": 167040, "qpm": 117.6470588235294}, {"time": 167520, "qpm": 120.0}, {"time": 168000, "qpm": 117.6470588235294}, {"time": 168480, "qpm": 122.44897959183673}, {"time": 168960, "qpm": 120.0}, {"time": 177600, "qpm": 117.6470588235294}, {"time": 178080, "qpm": 120.0}, {"time": 180000, "qpm": 122.44897959183673}, {"time": 180480, "qpm": 120.0}, {"time": 181920, "qpm": 122.44897959183673}, {"time": 182400, "qpm": 120.0}, {"time": 183840, "qpm": 122.44897959183673}, {"time": 185280, "qpm": 120.0}, {"time": 186240, "qpm": 117.6470588235294}, {"time": 187680, "qpm": 122.44897959183673}, {"time": 188160, "qpm": 120.0}, {"time": 192000, "qpm": 117.6470588235294}, {"time": 192480, "qpm": 120.0}, {"time": 192960, "qpm": 117.6470588235294}, {"time": 193440, "qpm": 122.44897959183673}, {"time": 194880, "qpm": 120.0}, {"time": 195840, "qpm": 117.6470588235294}, {"time": 196320, "qpm": 120.0}, {"time": 196800, "qpm": 117.6470588235294}, {"time": 197280, "qpm": 120.0}, {"time": 200640, "qpm": 117.6470588235294}, {"time": 201120, "qpm": 122.44897959183673}, {"time": 201600, "qpm": 120.0}, {"time": 204480, "qpm": 117.6470588235294}, {"time": 204960, "qpm": 122.44897959183673}, {"time": 205440, "qpm": 120.0}, {"time": 207360, "qpm": 117.6470588235294}, {"time": 207840, "qpm": 120.0}, {"time": 208320, "qpm": 117.6470588235294}, {"time": 208800, "qpm": 122.44897959183673}, {"time": 209280, "qpm": 120.0}, {"time": 210720, "qpm": 122.44897959183673}, {"time": 211200, "qpm": 120.0}, {"time": 214080, "qpm": 117.6470588235294}, {"time": 214560, "qpm": 122.44897959183673}, {"time": 215040, "qpm": 120.0}, {"time": 218880, "qpm": 117.6470588235294}, {"time": 219360, "qpm": 120.0}, {"time": 219840, "qpm": 117.6470588235294}, {"time": 220320, "qpm": 120.0}, {"time": 224640, "qpm": 117.6470588235294}, {"time": 225120, "qpm": 120.0}, {"time": 225600, "qpm": 117.6470588235294}, {"time": 226080, "qpm": 122.44897959183673}, {"time": 228000, "qpm": 120.0}, {"time": 231360, "qpm": 117.6470588235294}], "key_signatures": [{"time": 0, "root": 0, "mode": "major"}], "time_signatures": [{"time": 0, "numerator": 1, "denominator": 4}, {"time": 480, "numerator": 4, "denominator": 4}, {"time": 15840, "numerator": 6, "denominator": 4}, {"time": 18720, "numerator": 4, "denominator": 4}], "tracks": [{"program": 0, "is_drum": false, "name": "Piano", "notes": [{"time": 18720, "pitch": 52, "duration": 90, "velocity": 123}, {"time": 19200, "pitch": 64, "duration": 50, "velocity": 107}, {"time": 19200, "pitch": 67, "duration": 40, "velocity": 113}, {"time": 19200, "pitch": 72, "duration": 50, "velocity": 113}, {"time": 19680, "pitch": 41, "duration": 260, "velocity": 113}, {"time": 19680, "pitch": 65, "duration": 250, "velocity": 99}, {"time": 19680, "pitch": 69, "duration": 250, "velocity": 111}, {"time": 19680, "pitch": 72, "duration": 230, "velocity": 115}, {"time": 20040, "pitch": 41, "duration": 80, "velocity": 115}, {"time": 20040, "pitch": 65, "duration": 40, "velocity": 87}, {"time": 20040, "pitch": 69, "duration": 40, "velocity": 97}, {"time": 20040, "pitch": 72, "duration": 50, "velocity": 105}, {"time": 20400, "pitch": 53, "duration": 110, "velocity": 115}, {"time": 20520, "pitch": 52, "duration": 90, "velocity": 92}, {"time": 20640, "pitch": 50, "duration": 160, "velocity": 113}, {"time": 21120, "pitch": 65, "duration": 60, "velocity": 109}, {"time": 21120, "pitch": 69, "duration": 50, "velocity": 109}, {"time": 21120, "pitch": 72, "duration": 70, "velocity": 113}, {"time": 21600, "pitch": 43, "duration": 270, "velocity": 111}, {"time": 21600, "pitch": 65, "duration": 260, "velocity": 105}, {"time": 21600, "pitch": 69, "duration": 270, "velocity": 113}, {"time": 21600, "pitch": 72, "duration": 250, "velocity": 113}, {"time": 21960, "pitch": 43, "duration": 70, "velocity": 107}, {"time": 21960, "pitch": 65, "duration": 40, "velocity": 99}, {"time": 21960, "pitch": 69, "duration": 50, "velocity": 109}, {"time": 21960, "pitch": 72, "duration": 60, "velocity": 107}, {"time": 22320, "pitch": 55, "duration": 110, "velocity": 113}, {"time": 22440, "pitch": 53, "duration": 80, "velocity": 90}, {"time": 22560, "pitch": 52, "duration": 110, "velocity": 115}, {"time": 23040, "pitch": 64, "duration": 50, "velocity": 105}, {"time": 23040, "pitch": 67, "duration": 50, "velocity": 109}, {"time": 23040, "pitch": 72, "duration": 50, "velocity": 107}, {"time": 23520, "pitch": 41, "duration": 270, "velocity": 121}, {"time": 23520, "pitch": 65, "duration": 270, "velocity": 105}, {"time": 23520, "pitch": 69, "duration": 280, "velocity": 113}, {"time": 23520, "pitch": 72, "duration": 260, "velocity": 111}, {"time": 23880, "pitch": 41, "duration": 80, "velocity": 113}, {"time": 23880, "pitch": 65, "duration": 40, "velocity": 93}, {"time": 23880, "pitch": 69, "duration": 50, "velocity": 99}, {"time": 23880, "pitch": 72, "duration": 60, "velocity": 99}, {"time": 24240, "pitch": 53, "duration": 90, "velocity": 105}, {"time": 24360, "pitch": 52, "duration": 90, "velocity": 90}, {"time": 24480, "pitch": 50, "duration": 130, "velocity": 117}, {"time": 24960, "pitch": 65, "duration": 60, "velocity": 107}, {"time": 24960, "pitch": 69, "duration": 70, "velocity": 111}, {"time": 24960, "pitch": 72, "duration": 70, "velocity": 109}, {"time": 25440, "pitch": 43, "duration": 270, "velocity": 115}, {"time": 25440, "pitch": 65, "duration": 270, "velocity": 99}, {"time": 25440, "pitch": 69, "duration": 280, "velocity": 109}, {"time": 25440, "pitch": 72, "duration": 250, "velocity": 107}, {"time": 25800, "pitch": 43, "duration": 100, "velocity": 115}, {"time": 25800, "pitch": 65, "duration": 30, "velocity": 92}, {"time": 25800, "pitch": 69, "duration": 60, "velocity": 99}, {"time": 25800, "pitch": 72, "duration": 50, "velocity": 95}, {"time": 26400, "pitch": 52, "duration": 110, "velocity": 123}, {"time": 26880, "pitch": 64, "duration": 50, "velocity": 109}, {"time": 26880, "pitch": 67, "duration": 50, "velocity": 111}, {"time": 26880, "pitch": 72, "duration": 60, "velocity": 107}, {"time": 27360, "pitch": 41, "duration": 270, "velocity": 115}, {"time": 27360, "pitch": 65, "duration": 280, "velocity": 99}, {"time": 27360, "pitch": 69, "duration": 300, "velocity": 113}, {"time": 27360, "pitch": 72, "duration": 270, "velocity": 107}, {"time": 27720, "pitch": 41, "duration": 80, "velocity": 113}, {"time": 27720, "pitch": 65, "duration": 50, "velocity": 93}, {"time": 27720, "pitch": 69, "duration": 50, "velocity": 97}, {"time": 27720, "pitch": 72, "duration": 60, "velocity": 99}, {"time": 28080, "pitch": 53, "duration": 90, "velocity": 113}, {"time": 28200, "pitch": 52, "duration": 80, "velocity": 89}, {"time": 28320, "pitch": 50, "duration": 140, "velocity": 117}, {"time": 28800, "pitch": 65, "duration": 50, "velocity": 105}, {"time": 28800, "pitch": 69, "duration": 60, "velocity": 111}, {"time": 28800, "pitch": 72, "duration": 70, "velocity": 111}, {"time": 29280, "pitch": 43, "duration": 270, "velocity": 119}, {"time": 29280, "pitch": 65, "duration": 270, "velocity": 93}, {"time": 29280, "pitch": 69, "duration": 270, "velocity": 109}, {"time": 29280, "pitch": 72, "duration": 250, "velocity": 109}, {"time": 29640, "pitch": 43, "duration": 90, "velocity": 121}, {"time": 29640, "pitch": 65, "duration": 40, "velocity": 85}, {"time": 29640, "pitch": 69, "duration": 50, "velocity": 101}, {"time": 29640, "pitch": 72, "duration": 60, "velocity": 101}, {"time": 30000, "pitch": 55, "duration": 110, "velocity": 115}, {"time": 30120, "pitch": 53, "duration": 90, "velocity": 99}, {"time": 30240, "pitch": 52, "duration": 120, "velocity": 119}, {"time": 30720, "pitch": 64, "duration": 60, "velocity": 111}, {"time": 30720, "pitch": 67, "duration": 60, "velocity": 113}, {"time": 30720, "pitch": 72, "duration": 60, "velocity": 107}, {"time": 31200, "pitch": 41, "duration": 280, "velocity": 123}, {"time": 31200, "pitch": 65, "duration": 260, "velocity": 99}, {"time": 31200, "pitch": 69, "duration": 270, "velocity": 111}, {"time": 31200, "pitch": 72, "duration": 250, "velocity": 105}, {"time": 31560, "pitch": 41, "duration": 90, "velocity": 115}, {"time": 31560, "pitch": 65, "duration": 60, "velocity": 87}, {"time": 31560, "pitch": 69, "duration": 70, "velocity": 103}, {"time": 31560, "pitch": 72, "duration": 60, "velocity": 93}, {"time": 31920, "pitch": 53, "duration": 100, "velocity": 115}, {"time": 32040, "pitch": 52, "duration": 90, "velocity": 89}, {"time": 32160, "pitch": 50, "duration": 130, "velocity": 113}, {"time": 32640, "pitch": 65, "duration": 60, "velocity": 103}, {"time": 32640, "pitch": 69, "duration": 60, "velocity": 111}, {"time": 32640, "pitch": 72, "duration": 70, "velocity": 105}, {"time": 33120, "pitch": 43, "duration": 280, "velocity": 123}, {"time": 33120, "pitch": 65, "duration": 260, "velocity": 103}, {"time": 33120, "pitch": 69, "duration": 270, "velocity": 113}, {"time": 33120, "pitch": 72, "duration": 240, "velocity": 109}, {"time": 33480, "pitch": 43, "duration": 80, "velocity": 117}, {"time": 33480, "pitch": 65, "duration": 40, "velocity": 86}, {"time": 33480, "pitch": 69, "duration": 70, "velocity": 97}, {"time": 33480, "pitch": 72, "duration": 60, "velocity": 95}, {"time": 74400, "pitch": 52, "duration": 90, "velocity": 123}, {"time": 74880, "pitch": 64, "duration": 50, "velocity": 107}, {"time": 74880, "pitch": 67, "duration": 40, "velocity": 113}, {"time": 74880, "pitch": 72, "duration": 50, "velocity": 113}, {"time": 75360, "pitch": 41, "duration": 260, "velocity": 113}, {"time": 75360, "pitch": 65, "duration": 250, "velocity": 99}, {"time": 75360, "pitch": 69, "duration": 250, "velocity": 111}, {"time": 75360, "pitch": 72, "duration": 230, "velocity": 115}, {"time": 75720, "pitch": 41, "duration": 80, "velocity": 115}, {"time": 75720, "pitch": 65, "duration": 40, "velocity": 87}, {"time": 75720, "pitch": 69, "duration": 40, "velocity": 97}, {"time": 75720, "pitch": 72, "duration": 50, "velocity": 105}, {"time": 76080, "pitch": 53, "duration": 110, "velocity": 115}, {"time": 76200, "pitch": 52, "duration": 90, "velocity": 92}, {"time": 76320, "pitch": 50, "duration": 160, "velocity": 113}, {"time": 76800, "pitch": 65, "duration": 60, "velocity": 109}, {"time": 76800, "pitch": 69, "duration": 50, "velocity": 109}, {"time": 76800, "pitch": 72, "duration": 70, "velocity": 113}, {"time": 77280, "pitch": 43, "duration": 270, "velocity": 111}, {"time": 77280, "pitch": 65, "duration": 260, "velocity": 105}, {"time": 77280, "pitch": 69, "duration": 270, "velocity": 113}, {"time": 77280, "pitch": 72, "duration": 250, "velocity": 113}, {"time": 77640, "pitch": 43, "duration": 70, "velocity": 107}, {"time": 77640, "pitch": 65, "duration": 40, "velocity": 99}, {"time": 77640, "pitch": 69, "duration": 50, "velocity": 109}, {"time": 77640, "pitch": 72, "duration": 60, "velocity": 107}, {"time": 78000, "pitch": 55, "duration": 110, "velocity": 113}, {"time": 78120, "pitch": 53, "duration": 80, "velocity": 90}, {"time": 78240, "pitch": 52, "duration": 110, "velocity": 115}, {"time": 78720, "pitch": 64, "duration": 50, "velocity": 105}, {"time": 78720, "pitch": 67, "duration": 50, "velocity": 109}, {"time": 78720, "pitch": 72, "duration": 50, "velocity": 107}, {"time": 79200, "pitch": 41, "duration": 270, "velocity": 121}, {"time": 79200, "pitch": 65, "duration": 270, "velocity": 105}, {"time": 79200, "pitch": 69, "duration": 280, "velocity": 113}, {"time": 79200, "pitch": 72, "duration": 260, "velocity": 111}, {"time": 79560, "pitch": 41, "duration": 80, "velocity": 113}, {"time": 79560, "pitch": 65, "duration": 40, "velocity": 93}, {"time": 79560, "pitch": 69, "duration": 50, "velocity": 99}, {"time": 79560, "pitch": 72, "duration": 60, "velocity": 99}, {"time": 79920, "pitch": 53, "duration": 90, "velocity": 105}, {"time": 80040, "pitch": 52, "duration": 90, "velocity": 90}, {"time": 80160, "pitch": 50, "duration": 130, "velocity": 117}, {"time": 80640, "pitch": 65, "duration": 60, "velocity": 107}, {"time": 80640, "pitch": 69, "duration": 70, "velocity": 111}, {"time": 80640, "pitch": 72, "duration": 70, "velocity": 109}, {"time": 81120, "pitch": 43, "duration": 270, "velocity": 115}, {"time": 81120, "pitch": 65, "duration": 270, "velocity": 99}, {"time": 81120, "pitch": 69, "duration": 280, "velocity": 109}, {"time": 81120, "pitch": 72, "duration": 250, "velocity": 107}, {"time": 81480, "pitch": 43, "duration": 100, "velocity": 115}, {"time": 81480, "pitch": 65, "duration": 30, "velocity": 92}, {"time": 81480, "pitch": 69, "duration": 60, "velocity": 99}, {"time": 81480, "pitch": 72, "duration": 50, "velocity": 95}, {"time": 82080, "pitch": 52, "duration": 110, "velocity": 123}, {"time": 82560, "pitch": 64, "duration": 50, "velocity": 109}, {"time": 82560, "pitch": 67, "duration": 50, "velocity": 111}, {"time": 82560, "pitch": 72, "duration": 60, "velocity": 107}, {"time": 83040, "pitch": 41, "duration": 270, "velocity": 115}, {"time": 83040, "pitch": 65, "duration": 280, "velocity": 99}, {"time": 83040, "pitch": 69, "duration": 300, "velocity": 113}, {"time": 83040, "pitch": 72, "duration": 270, "velocity": 107}, {"time": 83400, "pitch": 41, "duration": 80, "velocity": 113}, {"time": 83400, "pitch": 65, "duration": 50, "velocity": 93}, {"time": 83400, "pitch": 69, "duration": 50, "velocity": 97}, {"time": 83400, "pitch": 72, "duration": 60, "velocity": 99}, {"time": 83760, "pitch": 53, "duration": 90, "velocity": 113}, {"time": 83880, "pitch": 52, "duration": 80, "velocity": 89}, {"time": 84000, "pitch": 50, "duration": 140, "velocity": 117}, {"time": 84480, "pitch": 65, "duration": 50, "velocity": 105}, {"time": 84480, "pitch": 69, "duration": 60, "velocity": 111}, {"time": 84480, "pitch": 72, "duration": 70, "velocity": 111}, {"time": 84960, "pitch": 43, "duration": 270, "velocity": 119}, {"time": 84960, "pitch": 65, "duration": 270, "velocity": 93}, {"time": 84960, "pitch": 69, "duration": 270, "velocity": 109}, {"time": 84960, "pitch": 72, "duration": 250, "velocity": 109}, {"time": 85320, "pitch": 43, "duration": 90, "velocity": 121}, {"time": 85320, "pitch": 65, "duration": 40, "velocity": 85}, {"time": 85320, "pitch": 69, "duration": 50, "velocity": 101}, {"time": 85320, "pitch": 72, "duration": 60, "velocity": 101}, {"time": 85680, "pitch": 55, "duration": 110, "velocity": 115}, {"time": 85800, "pitch": 53, "duration": 90, "velocity": 99}, {"time": 85920, "pitch": 52, "duration": 120, "velocity": 119}, {"time": 86400, "pitch": 64, "duration": 60, "velocity": 111}, {"time": 86400, "pitch": 67, "duration": 60, "velocity": 113}, {"time": 86400, "pitch": 72, "duration": 60, "velocity": 107}, {"time": 86880, "pitch": 41, "duration": 280, "velocity": 123}, {"time": 86880, "pitch": 65, "duration": 260, "velocity": 99}, {"time": 86880, "pitch": 69, "duration": 270, "velocity": 111}, {"time": 86880, "pitch": 72, "duration": 250, "velocity": 105}, {"time": 87240, "pitch": 41, "duration": 90, "velocity": 115}, {"time": 87240, "pitch": 65, "duration": 60, "velocity": 87}, {"time": 87240, "pitch": 69, "duration": 70, "velocity": 103}, {"time": 87240, "pitch": 72, "duration": 60, "velocity": 93}, {"time": 87600, "pitch": 53, "duration": 100, "velocity": 115}, {"time": 87720, "pitch": 52, "duration": 90, "velocity": 89}, {"time": 87840, "pitch": 50, "duration": 130, "velocity": 113}, {"time": 88320, "pitch": 65, "duration": 60, "velocity": 103}, {"time": 88320, "pitch": 69, "duration": 60, "velocity": 111}, {"time": 88320, "pitch": 72, "duration": 70, "velocity": 105}, {"time": 88800, "pitch": 43, "duration": 280, "velocity": 123}, {"time": 88800, "pitch": 65, "duration": 260, "velocity": 103}, {"time": 88800, "pitch": 69, "duration": 270, "velocity": 113}, {"time": 88800, "pitch": 72, "duration": 240, "velocity": 109}, {"time": 89160, "pitch": 43, "duration": 80, "velocity": 117}, {"time": 89160, "pitch": 65, "duration": 40, "velocity": 86}, {"time": 89160, "pitch": 69, "duration": 70, "velocity": 97}, {"time": 89160, "pitch": 72, "duration": 60, "velocity": 95}, {"time": 122400, "pitch": 65, "duration": 870, "velocity": 111}, {"time": 122400, "pitch": 70, "duration": 870, "velocity": 125}, {"time": 122400, "pitch": 74, "duration": 880, "velocity": 119}, {"time": 124320, "pitch": 65, "duration": 650, "velocity": 115}, {"time": 124320, "pitch": 69, "duration": 640, "velocity": 121}, {"time": 124320, "pitch": 72, "duration": 640, "velocity": 123}, {"time": 126510, "pitch": 52, "duration": 50, "velocity": 55}, {"time": 126530, "pitch": 53, "duration": 50, "velocity": 81}, {"time": 126550, "pitch": 55, "duration": 50, "velocity": 82}, {"time": 126570, "pitch": 57, "duration": 60, "velocity": 85}, {"time": 126590, "pitch": 59, "duration": 50, "velocity": 60}, {"time": 126620, "pitch": 60, "duration": 50, "velocity": 47}, {"time": 126640, "pitch": 62, "duration": 40, "velocity": 50}, {"time": 126650, "pitch": 64, "duration": 40, "velocity": 70}, {"time": 126670, "pitch": 65, "duration": 30, "velocity": 86}, {"time": 126680, "pitch": 67, "duration": 30, "velocity": 103}, {"time": 126690, "pitch": 69, "duration": 30, "velocity": 105}, {"time": 126700, "pitch": 71, "duration": 30, "velocity": 109}, {"time": 126710, "pitch": 72, "duration": 30, "velocity": 99}, {"time": 126720, "pitch": 74, "duration": 20, "velocity": 81}, {"time": 126720, "pitch": 79, "duration": 90, "velocity": 123}, {"time": 126720, "pitch": 84, "duration": 70, "velocity": 121}, {"time": 126720, "pitch": 88, "duration": 100, "velocity": 125}, {"time": 126740, "pitch": 76, "duration": 10, "velocity": 54}, {"time": 127200, "pitch": 81, "duration": 330, "velocity": 126}, {"time": 127200, "pitch": 84, "duration": 340, "velocity": 126}, {"time": 127200, "pitch": 89, "duration": 340, "velocity": 123}, {"time": 127680, "pitch": 79, "duration": 110, "velocity": 121}, {"time": 127680, "pitch": 84, "duration": 110, "velocity": 123}, {"time": 127680, "pitch": 88, "duration": 120, "velocity": 123}, {"time": 128160, "pitch": 81, "duration": 220, "velocity": 123}, {"time": 128160, "pitch": 84, "duration": 240, "velocity": 125}, {"time": 128160, "pitch": 89, "duration": 250, "velocity": 125}, {"time": 128520, "pitch": 79, "duration": 60, "velocity": 113}, {"time": 128520, "pitch": 84, "duration": 50, "velocity": 121}, {"time": 128520, "pitch": 88, "duration": 60, "velocity": 126}, {"time": 128880, "pitch": 79, "duration": 520, "velocity": 123}, {"time": 128880, "pitch": 83, "duration": 520, "velocity": 126}, {"time": 128880, "pitch": 86, "duration": 510, "velocity": 119}, {"time": 130080, "pitch": 65, "duration": 1270, "velocity": 121}, {"time": 130080, "pitch": 70, "duration": 1260, "velocity": 127}, {"time": 130080, "pitch": 74, "duration": 1260, "velocity": 121}, {"time": 132000, "pitch": 65, "duration": 1040, "velocity": 121}, {"time": 132000, "pitch": 69, "duration": 1070, "velocity": 126}, {"time": 132000, "pitch": 72, "duration": 1070, "velocity": 125}, {"time": 133920, "pitch": 65, "duration": 420, "velocity": 111}, {"time": 133920, "pitch": 69, "duration": 420, "velocity": 121}, {"time": 133920, "pitch": 72, "duration": 440, "velocity": 123}, {"time": 134880, "pitch": 67, "duration": 400, "velocity": 117}, {"time": 134880, "pitch": 71, "duration": 400, "velocity": 123}, {"time": 134880, "pitch": 74, "duration": 400, "velocity": 123}, {"time": 135840, "pitch": 69, "duration": 400, "velocity": 119}, {"time": 135840, "pitch": 72, "duration": 390, "velocity": 123}, {"time": 135840, "pitch": 77, "duration": 380, "velocity": 121}, {"time": 136800, "pitch": 71, "duration": 930, "velocity": 123}, {"time": 136800, "pitch": 74, "duration": 930, "velocity": 126}, {"time": 136800, "pitch": 79, "duration": 930, "velocity": 123}, {"time": 137760, "pitch": 52, "duration": 90, "velocity": 123}, {"time": 138240, "pitch": 64, "duration": 50, "velocity": 107}, {"time": 138240, "pitch": 67, "duration": 40, "velocity": 113}, {"time": 138240, "pitch": 72, "duration": 50, "velocity": 113}, {"time": 138720, "pitch": 41, "duration": 260, "velocity": 113}, {"time": 138720, "pitch": 65, "duration": 250, "velocity": 99}, {"time": 138720, "pitch": 69, "duration": 250, "velocity": 111}, {"time": 138720, "pitch": 72, "duration": 230, "velocity": 115}, {"time": 139080, "pitch": 41, "duration": 80, "velocity": 115}, {"time": 139080, "pitch": 65, "duration": 40, "velocity": 87}, {"time": 139080, "pitch": 69, "duration": 40, "velocity": 97}, {"time": 139080, "pitch": 72, "duration": 50, "velocity": 105}, {"time": 139440, "pitch": 53, "duration": 110, "velocity": 115}, {"time": 139560, "pitch": 52, "duration": 90, "velocity": 92}, {"time": 139680, "pitch": 50, "duration": 160, "velocity": 113}, {"time": 140160, "pitch": 65, "duration": 60, "velocity": 109}, {"time": 140160, "pitch": 69, "duration": 50, "velocity": 109}, {"time": 140160, "pitch": 72, "duration": 70, "velocity": 113}, {"time": 140640, "pitch": 43, "duration": 270, "velocity": 111}, {"time": 140640, "pitch": 65, "duration": 260, "velocity": 105}, {"time": 140640, "pitch": 69, "duration": 270, "velocity": 113}, {"time": 140640, "pitch": 72, "duration": 250, "velocity": 113}, {"time": 141000, "pitch": 43, "duration": 70, "velocity": 107}, {"time": 141000, "pitch": 65, "duration": 40, "velocity": 99}, {"time": 141000, "pitch": 69, "duration": 50, "velocity": 109}, {"time": 141000, "pitch": 72, "duration": 60, "velocity": 107}, {"time": 141360, "pitch": 55, "duration": 110, "velocity": 113}, {"time": 141480, "pitch": 53, "duration": 80, "velocity": 90}, {"time": 141600, "pitch": 52, "duration": 110, "velocity": 115}, {"time": 142080, "pitch": 64, "duration": 50, "velocity": 105}, {"time": 142080, "pitch": 67, "duration": 50, "velocity": 109}, {"time": 142080, "pitch": 72, "duration": 50, "velocity": 107}, {"time": 142560, "pitch": 41, "duration": 270, "velocity": 121}, {"time": 142560, "pitch": 65, "duration": 270, "velocity": 105}, {"time": 142560, "pitch": 69, "duration": 280, "velocity": 113}, {"time": 142560, "pitch": 72, "duration": 260, "velocity": 111}, {"time": 142920, "pitch": 41, "duration": 80, "velocity": 113}, {"time": 142920, "pitch": 65, "duration": 40, "velocity": 93}, {"time": 142920, "pitch": 69, "duration": 50, "velocity": 99}, {"time": 142920, "pitch": 72, "duration": 60, "velocity": 99}, {"time": 143280, "pitch": 53, "duration": 90, "velocity": 105}, {"time": 143400, "pitch": 52, "duration": 90, "velocity": 90}, {"time": 143520, "pitch": 50, "duration": 130, "velocity": 117}, {"time": 144000, "pitch": 65, "duration": 60, "velocity": 107}, {"time": 144000, "pitch": 69, "duration": 70, "velocity": 111}, {"time": 144000, "pitch": 72, "duration": 70, "velocity": 109}, {"time": 144480, "pitch": 43, "duration": 270, "velocity": 115}, {"time": 144480, "pitch": 65, "duration": 270, "velocity": 99}, {"time": 144480, "pitch": 69, "duration": 280, "velocity": 109}, {"time": 144480, "pitch": 72, "duration": 250, "velocity": 107}, {"time": 144840, "pitch": 43, "duration": 100, "velocity": 115}, {"time": 144840, "pitch": 65, "duration": 30, "velocity": 92}, {"time": 144840, "pitch": 69, "duration": 60, "velocity": 99}, {"time": 144840, "pitch": 72, "duration": 50, "velocity": 95}, {"time": 145440, "pitch": 52, "duration": 110, "velocity": 123}, {"time": 145920, "pitch": 64, "duration": 50, "velocity": 109}, {"time": 145920, "pitch": 67, "duration": 50, "velocity": 111}, {"time": 145920, "pitch": 72, "duration": 60, "velocity": 107}, {"time": 146400, "pitch": 41, "duration": 270, "velocity": 115}, {"time": 146400, "pitch": 65, "duration": 280, "velocity": 99}, {"time": 146400, "pitch": 69, "duration": 300, "velocity": 113}, {"time": 146400, "pitch": 72, "duration": 270, "velocity": 107}, {"time": 146760, "pitch": 41, "duration": 80, "velocity": 113}, {"time": 146760, "pitch": 65, "duration": 50, "velocity": 93}, {"time": 146760, "pitch": 69, "duration": 50, "velocity": 97}, {"time": 146760, "pitch": 72, "duration": 60, "velocity": 99}, {"time": 147120, "pitch": 53, "duration": 90, "velocity": 113}, {"time": 147240, "pitch": 52, "duration": 80, "velocity": 89}, {"time": 147360, "pitch": 50, "duration": 140, "velocity": 117}, {"time": 147840, "pitch": 65, "duration": 50, "velocity": 105}, {"time": 147840, "pitch": 69, "duration": 60, "velocity": 111}, {"time": 147840, "pitch": 72, "duration": 70, "velocity": 111}, {"time": 148320, "pitch": 43, "duration": 270, "velocity": 119}, {"time": 148320, "pitch": 65, "duration": 270, "velocity": 93}, {"time": 148320, "pitch": 69, "duration": 270, "velocity": 109}, {"time": 148320, "pitch": 72, "duration": 250, "velocity": 109}, {"time": 148680, "pitch": 43, "duration": 90, "velocity": 121}, {"time": 148680, "pitch": 65, "duration": 40, "velocity": 85}, {"time": 148680, "pitch": 69, "duration": 50, "velocity": 101}, {"time": 148680, "pitch": 72, "duration": 60, "velocity": 101}, {"time": 149040, "pitch": 55, "duration": 110, "velocity": 115}, {"time": 149160, "pitch": 53, "duration": 90, "velocity": 99}, {"time": 149280, "pitch": 52, "duration": 120, "velocity": 119}, {"time": 149760, "pitch": 64, "duration": 60, "velocity": 111}, {"time": 149760, "pitch": 67, "duration": 60, "velocity": 113}, {"time": 149760, "pitch": 72, "duration": 60, "velocity": 107}, {"time": 150240, "pitch": 41, "duration": 280, "velocity": 123}, {"time": 150240, "pitch": 65, "duration": 260, "velocity": 99}, {"time": 150240, "pitch": 69, "duration": 270, "velocity": 111}, {"time": 150240, "pitch": 72, "duration": 250, "velocity": 105}, {"time": 150600, "pitch": 41, "duration": 90, "velocity": 115}, {"time": 150600, "pitch": 65, "duration": 60, "velocity": 87}, {"time": 150600, "pitch": 69, "duration": 70, "velocity": 103}, {"time": 150600, "pitch": 72, "duration": 60, "velocity": 93}, {"time": 150960, "pitch": 53, "duration": 100, "velocity": 115}, {"time": 151080, "pitch": 52, "duration": 90, "velocity": 89}, {"time": 151200, "pitch": 50, "duration": 130, "velocity": 113}, {"time": 151680, "pitch": 65, "duration": 60, "velocity": 103}, {"time": 151680, "pitch": 69, "duration": 60, "velocity": 111}, {"time": 151680, "pitch": 72, "duration": 70, "velocity": 105}, {"time": 152160, "pitch": 43, "duration": 280, "velocity": 123}, {"time": 152160, "pitch": 65, "duration": 260, "velocity": 103}, {"time": 152160, "pitch": 69, "duration": 270, "velocity": 113}, {"time": 152160, "pitch": 72, "duration": 240, "velocity": 109}, {"time": 152520, "pitch": 43, "duration": 80, "velocity": 117}, {"time": 152520, "pitch": 65, "duration": 40, "velocity": 86}, {"time": 152520, "pitch": 69, "duration": 70, "velocity": 97}, {"time": 152520, "pitch": 72, "duration": 60, "velocity": 95}, {"time": 2400, "pitch": 36, "duration": 360, "velocity": 110}, {"time": 2760, "pitch": 36, "duration": 120, "velocity": 100}, {"time": 3360, "pitch": 34, "duration": 360, "velocity": 110}, {"time": 3720, "pitch": 34, "duration": 120, "velocity": 100}, {"time": 4320, "pitch": 29, "duration": 340, "velocity": 110}, {"time": 4680, "pitch": 29, "duration": 160, "velocity": 110}, {"time": 5040, "pitch": 29, "duration": 160, "velocity": 105}, {"time": 5280, "pitch": 29, "duration": 460, "velocity": 110}, {"time": 5760, "pitch": 34, "duration": 460, "velocity": 110}, {"time": 6720, "pitch": 36, "duration": 160, "velocity": 110}, {"time": 7200, "pitch": 34, "duration": 360, "velocity": 110}, {"time": 7560, "pitch": 34, "duration": 120, "velocity": 100}, {"time": 8160, "pitch": 29, "duration": 340, "velocity": 110}, {"time": 8520, "pitch": 29, "duration": 360, "velocity": 110}, {"time": 8880, "pitch": 29, "duration": 240, "velocity": 105}, {"time": 9120, "pitch": 29, "duration": 460, "velocity": 110}, {"time": 9600, "pitch": 31, "duration": 460, "velocity": 110}, {"time": 10080, "pitch": 36, "duration": 360, "velocity": 110}, {"time": 10440, "pitch": 36, "duration": 120, "velocity": 100}, {"time": 11040, "pitch": 34, "duration": 360, "velocity": 110}, {"time": 11400, "pitch": 34, "duration": 120, "velocity": 100}, {"time": 12000, "pitch": 29, "duration": 340, "velocity": 110}, {"time": 12360, "pitch": 29, "duration": 160, "velocity": 110}, {"time": 12720, "pitch": 29, "duration": 160, "velocity": 105}, {"time": 12960, "pitch": 29, "duration": 460, "velocity": 110}, {"time": 13440, "pitch": 34, "duration": 460, "velocity": 110}, {"time": 13920, "pitch": 34, "duration": 340, "velocity": 110}, {"time": 14280, "pitch": 33, "duration": 160, "velocity": 105}, {"time": 14640, "pitch": 31, "duration": 1180, "velocity": 110}, {"time": 15840, "pitch": 28, "duration": 340, "velocity": 110}, {"time": 16200, "pitch": 29, "duration": 160, "velocity": 105}, {"time": 16560, "pitch": 31, "duration": 2140, "velocity": 110}, {"time": 19200, "pitch": 40, "duration": 160, "velocity": 110}, {"time": 19680, "pitch": 41, "duration": 360, "velocity": 110}, {"time": 20040, "pitch": 41, "duration": 120, "velocity": 100}, {"time": 21120, "pitch": 38, "duration": 160, "velocity": 110}, {"time": 21600, "pitch": 43, "duration": 360, "velocity": 110}, {"time": 21960, "pitch": 43, "duration": 120, "velocity": 100}, {"time": 23040, "pitch": 40, "duration": 160, "velocity": 110}, {"time": 23520, "pitch": 41, "duration": 360, "velocity": 110}, {"time": 23880, "pitch": 41, "duration": 120, "velocity": 100}, {"time": 24960, "pitch": 38, "duration": 160, "velocity": 110}, {"time": 25440, "pitch": 43, "duration": 360, "velocity": 110}, {"time": 25800, "pitch": 43, "duration": 120, "velocity": 100}, {"time": 26880, "pitch": 40, "duration": 160, "velocity": 110}, {"time": 27360, "pitch": 41, "duration": 360, "velocity": 110}, {"time": 27720, "pitch": 41, "duration": 120, "velocity": 100}, {"time": 28800, "pitch": 38, "duration": 160, "velocity": 110}, {"time": 29280, "pitch": 43, "duration": 360, "velocity": 110}, {"time": 29640, "pitch": 43, "duration": 120, "velocity": 100}, {"time": 30720, "pitch": 40, "duration": 160, "velocity": 110}, {"time": 31200, "pitch": 41, "duration": 360, "velocity": 110}, {"time": 31560, "pitch": 41, "duration": 120, "velocity": 100}, {"time": 32640, "pitch": 38, "duration": 160, "velocity": 110}, {"time": 33120, "pitch": 43, "duration": 360, "velocity": 110}, {"time": 33480, "pitch": 43, "duration": 120, "velocity": 100}, {"time": 33600, "pitch": 43, "duration": 240, "velocity": 100}, {"time": 33840, "pitch": 43, "duration": 240, "velocity": 100}, {"time": 34080, "pitch": 46, "duration": 1200, "velocity": 110}, {"time": 35280, "pitch": 46, "duration": 240, "velocity": 105}, {"time": 35520, "pitch": 46, "duration": 480, "velocity": 110}, {"time": 36000, "pitch": 45, "duration": 720, "velocity": 110}, {"time": 36720, "pitch": 40, "duration": 240, "velocity": 105}, {"time": 36960, "pitch": 45, "duration": 240, "velocity": 110}, {"time": 37200, "pitch": 45, "duration": 240, "velocity": 105}, {"time": 37440, "pitch": 45, "duration": 480, "velocity": 110}, {"time": 37920, "pitch": 38, "duration": 720, "velocity": 110}, {"time": 38640, "pitch": 40, "duration": 720, "velocity": 110}, {"time": 39360, "pitch": 41, "duration": 1680, "velocity": 110}, {"time": 41040, "pitch": 36, "duration": 240, "velocity": 105}, {"time": 41280, "pitch": 41, "duration": 480, "velocity": 105}, {"time": 41760, "pitch": 38, "duration": 1200, "velocity": 110}, {"time": 42960, "pitch": 33, "duration": 240, "velocity": 105}, {"time": 43200, "pitch": 38, "duration": 480, "velocity": 110}, {"time": 43680, "pitch": 40, "duration": 1200, "velocity": 110}, {"time": 44880, "pitch": 36, "duration": 240, "velocity": 105}, {"time": 45120, "pitch": 40, "duration": 480, "velocity": 110}, {"time": 45600, "pitch": 41, "duration": 600, "velocity": 110}, {"time": 46320, "pitch": 43, "duration": 1180, "velocity": 110}, {"time": 47520, "pitch": 33, "duration": 600, "velocity": 110}, {"time": 48240, "pitch": 35, "duration": 1180, "velocity": 110}, {"time": 49440, "pitch": 36, "duration": 360, "velocity": 110}, {"time": 49800, "pitch": 36, "duration": 120, "velocity": 105}, {"time": 50160, "pitch": 36, "duration": 1180, "velocity": 110}, {"time": 51360, "pitch": 31, "duration": 360, "velocity": 110}, {"time": 51720, "pitch": 31, "duration": 120, "velocity": 105}, {"time": 52080, "pitch": 31, "duration": 1180, "velocity": 110}, {"time": 53280, "pitch": 33, "duration": 360, "velocity": 110}, {"time": 53640, "pitch": 33, "duration": 120, "velocity": 105}, {"time": 54000, "pitch": 33, "duration": 1180, "velocity": 110}, {"time": 55200, "pitch": 29, "duration": 360, "velocity": 110}, {"time": 55560, "pitch": 29, "duration": 120, "velocity": 105}, {"time": 55920, "pitch": 29, "duration": 220, "velocity": 110}, {"time": 56160, "pitch": 31, "duration": 220, "velocity": 110}, {"time": 56400, "pitch": 38, "duration": 220, "velocity": 105}, {"time": 56640, "pitch": 43, "duration": 480, "velocity": 110}, {"time": 57120, "pitch": 36, "duration": 360, "velocity": 110}, {"time": 57480, "pitch": 36, "duration": 120, "velocity": 105}, {"time": 57840, "pitch": 36, "duration": 1180, "velocity": 110}, {"time": 59040, "pitch": 31, "duration": 360, "velocity": 110}, {"time": 59400, "pitch": 31, "duration": 120, "velocity": 105}, {"time": 59760, "pitch": 31, "duration": 1180, "velocity": 110}, {"time": 60960, "pitch": 38, "duration": 360, "velocity": 110}, {"time": 61320, "pitch": 38, "duration": 120, "velocity": 105}, {"time": 61680, "pitch": 38, "duration": 220, "velocity": 110}, {"time": 61920, "pitch": 38, "duration": 940, "velocity": 110}, {"time": 62880, "pitch": 38, "duration": 360, "velocity": 110}, {"time": 63240, "pitch": 28, "duration": 340, "velocity": 105}, {"time": 63600, "pitch": 29, "duration": 1180, "velocity": 110}, {"time": 64800, "pitch": 29, "duration": 1420, "velocity": 110}, {"time": 66240, "pitch": 29, "duration": 480, "velocity": 110}, {"time": 66720, "pitch": 36, "duration": 360, "velocity": 110}, {"time": 67080, "pitch": 36, "duration": 120, "velocity": 100}, {"time": 67680, "pitch": 34, "duration": 360, "velocity": 110}, {"time": 68040, "pitch": 34, "duration": 120, "velocity": 100}, {"time": 68640, "pitch": 29, "duration": 340, "velocity": 110}, {"time": 69000, "pitch": 29, "duration": 160, "velocity": 110}, {"time": 69360, "pitch": 29, "duration": 160, "velocity": 105}, {"time": 69600, "pitch": 29, "duration": 460, "velocity": 110}, {"time": 70080, "pitch": 34, "duration": 460, "velocity": 110}, {"time": 71040, "pitch": 36, "duration": 160, "velocity": 110}, {"time": 71520, "pitch": 34, "duration": 360, "velocity": 110}, {"time": 71880, "pitch": 34, "duration": 120, "velocity": 100}, {"time": 72480, "pitch": 34, "duration": 340, "velocity": 110}, {"time": 72840, "pitch": 33, "duration": 160, "velocity": 105}, {"time": 73200, "pitch": 31, "duration": 120, "velocity": 110}, {"time": 74880, "pitch": 40, "duration": 160, "velocity": 110}, {"time": 75360, "pitch": 41, "duration": 360, "velocity": 110}, {"time": 75720, "pitch": 41, "duration": 120, "velocity": 100}, {"time": 76800, "pitch": 38, "duration": 160, "velocity": 110}, {"time": 77280, "pitch": 43, "duration": 360, "velocity": 110}, {"time": 77640, "pitch": 43, "duration": 120, "velocity": 100}, {"time": 78720, "pitch": 40, "duration": 160, "velocity": 110}, {"time": 79200, "pitch": 41, "duration": 360, "velocity": 110}, {"time": 79560, "pitch": 41, "duration": 120, "velocity": 100}, {"time": 80640, "pitch": 38, "duration": 160, "velocity": 110}, {"time": 81120, "pitch": 43, "duration": 360, "velocity": 110}, {"time": 81480, "pitch": 43, "duration": 120, "velocity": 100}, {"time": 82560, "pitch": 40, "duration": 160, "velocity": 110}, {"time": 83040, "pitch": 41, "duration": 360, "velocity": 110}, {"time": 83400, "pitch": 41, "duration": 120, "velocity": 100}, {"time": 84480, "pitch": 38, "duration": 160, "velocity": 110}, {"time": 84960, "pitch": 43, "duration": 360, "velocity": 110}, {"time": 85320, "pitch": 43, "duration": 120, "velocity": 100}, {"time": 86400, "pitch": 40, "duration": 160, "velocity": 110}, {"time": 86880, "pitch": 41, "duration": 360, "velocity": 110}, {"time": 87240, "pitch": 41, "duration": 120, "velocity": 100}, {"time": 88320, "pitch": 38, "duration": 160, "velocity": 110}, {"time": 88800, "pitch": 43, "duration": 360, "velocity": 110}, {"time": 89160, "pitch": 43, "duration": 120, "velocity": 100}, {"time": 89280, "pitch": 43, "duration": 240, "velocity": 100}, {"time": 89520, "pitch": 43, "duration": 240, "velocity": 100}, {"time": 89760, "pitch": 46, "duration": 1200, "velocity": 110}, {"time": 90960, "pitch": 46, "duration": 240, "velocity": 105}, {"time": 91200, "pitch": 46, "duration": 480, "velocity": 110}, {"time": 91680, "pitch": 45, "duration": 720, "velocity": 110}, {"time": 92400, "pitch": 40, "duration": 240, "velocity": 105}, {"time": 92640, "pitch": 45, "duration": 240, "velocity": 110}, {"time": 92880, "pitch": 45, "duration": 240, "velocity": 105}, {"time": 93120, "pitch": 45, "duration": 480, "velocity": 110}, {"time": 93600, "pitch": 38, "duration": 720, "velocity": 110}, {"time": 94320, "pitch": 40, "duration": 720, "velocity": 110}, {"time": 95040, "pitch": 41, "duration": 720, "velocity": 110}, {"time": 95760, "pitch": 36, "duration": 240, "velocity": 105}, {"time": 96000, "pitch": 41, "duration": 220, "velocity": 110}, {"time": 96240, "pitch": 41, "duration": 220, "velocity": 105}, {"time": 96480, "pitch": 43, "duration": 220, "velocity": 110}, {"time": 96720, "pitch": 41, "duration": 220, "velocity": 105}, {"time": 96960, "pitch": 40, "duration": 220, "velocity": 110}, {"time": 97200, "pitch": 36, "duration": 220, "velocity": 105}, {"time": 97440, "pitch": 38, "duration": 1200, "velocity": 110}, {"time": 98640, "pitch": 33, "duration": 240, "velocity": 105}, {"time": 98880, "pitch": 38, "duration": 480, "velocity": 110}, {"time": 99360, "pitch": 40, "duration": 1200, "velocity": 110}, {"time": 100560, "pitch": 36, "duration": 240, "velocity": 105}, {"time": 100800, "pitch": 40, "duration": 480, "velocity": 110}, {"time": 101280, "pitch": 41, "duration": 600, "velocity": 110}, {"time": 102000, "pitch": 43, "duration": 1180, "velocity": 110}, {"time": 103200, "pitch": 33, "duration": 600, "velocity": 110}, {"time": 103920, "pitch": 35, "duration": 1180, "velocity": 110}, {"time": 105120, "pitch": 36, "duration": 360, "velocity": 110}, {"time": 105480, "pitch": 36, "duration": 120, "velocity": 105}, {"time": 105840, "pitch": 36, "duration": 1180, "velocity": 110}, {"time": 107040, "pitch": 31, "duration": 360, "velocity": 110}, {"time": 107400, "pitch": 31, "duration": 120, "velocity": 105}, {"time": 107760, "pitch": 31, "duration": 1180, "velocity": 110}, {"time": 108960, "pitch": 33, "duration": 360, "velocity": 110}, {"time": 109320, "pitch": 33, "duration": 120, "velocity": 105}, {"time": 109680, "pitch": 33, "duration": 1180, "velocity": 110}, {"time": 110880, "pitch": 29, "duration": 360, "velocity": 110}, {"time": 111240, "pitch": 29, "duration": 120, "velocity": 105}, {"time": 111600, "pitch": 29, "duration": 220, "velocity": 110}, {"time": 111840, "pitch": 31, "duration": 220, "velocity": 110}, {"time": 112080, "pitch": 38, "duration": 220, "velocity": 105}, {"time": 112320, "pitch": 43, "duration": 480, "velocity": 110}, {"time": 112800, "pitch": 36, "duration": 360, "velocity": 110}, {"time": 113160, "pitch": 36, "duration": 120, "velocity": 105}, {"time": 113520, "pitch": 36, "duration": 1180, "velocity": 110}, {"time": 114720, "pitch": 31, "duration": 360, "velocity": 110}, {"time": 115080, "pitch": 31, "duration": 120, "velocity": 105}, {"time": 115440, "pitch": 31, "duration": 1180, "velocity": 110}, {"time": 116640, "pitch": 38, "duration": 360, "velocity": 110}, {"time": 117000, "pitch": 38, "duration": 120, "velocity": 105}, {"time": 117360, "pitch": 38, "duration": 220, "velocity": 110}, {"time": 117600, "pitch": 38, "duration": 940, "velocity": 110}, {"time": 118560, "pitch": 38, "duration": 360, "velocity": 110}, {"time": 118920, "pitch": 28, "duration": 340, "velocity": 105}, {"time": 119280, "pitch": 29, "duration": 940, "velocity": 110}, {"time": 120240, "pitch": 36, "duration": 220, "velocity": 105}, {"time": 120480, "pitch": 41, "duration": 240, "velocity": 110}, {"time": 120720, "pitch": 41, "duration": 240, "velocity": 105}, {"time": 120960, "pitch": 41, "duration": 240, "velocity": 110}, {"time": 121200, "pitch": 41, "duration": 240, "velocity": 105}, {"time": 121440, "pitch": 41, "duration": 240, "velocity": 110}, {"time": 121680, "pitch": 41, "duration": 240, "velocity": 105}, {"time": 121920, "pitch": 41, "duration": 240, "velocity": 110}, {"time": 122160, "pitch": 41, "duration": 240, "velocity": 105}, {"time": 122400, "pitch": 34, "duration": 240, "velocity": 110}, {"time": 122640, "pitch": 34, "duration": 240, "velocity": 105}, {"time": 122880, "pitch": 34, "duration": 240, "velocity": 110}, {"time": 123120, "pitch": 34, "duration": 240, "velocity": 105}, {"time": 123360, "pitch": 34, "duration": 240, "velocity": 110}, {"time": 123600, "pitch": 34, "duration": 240, "velocity": 105}, {"time": 123840, "pitch": 34, "duration": 240, "velocity": 110}, {"time": 124080, "pitch": 34, "duration": 240, "velocity": 105}, {"time": 124320, "pitch": 41, "duration": 240, "velocity": 110}, {"time": 124560, "pitch": 41, "duration": 240, "velocity": 105}, {"time": 124800, "pitch": 41, "duration": 240, "velocity": 110}, {"time": 125040, "pitch": 41, "duration": 240, "velocity": 105}, {"time": 125280, "pitch": 41, "duration": 240, "velocity": 110}, {"time": 125520, "pitch": 41, "duration": 240, "velocity": 105}, {"time": 125760, "pitch": 41, "duration": 240, "velocity": 110}, {"time": 126000, "pitch": 41, "duration": 240, "velocity": 105}, {"time": 126720, "pitch": 40, "duration": 160, "velocity": 110}, {"time": 127200, "pitch": 41, "duration": 480, "velocity": 110}, {"time": 127680, "pitch": 40, "duration": 120, "velocity": 110}, {"time": 128160, "pitch": 41, "duration": 360, "velocity": 110}, {"time": 128520, "pitch": 40, "duration": 120, "velocity": 110}, {"time": 128880, "pitch": 38, "duration": 1180, "velocity": 105}, {"time": 130080, "pitch": 34, "duration": 240, "velocity": 110}, {"time": 130320, "pitch": 34, "duration": 240, "velocity": 105}, {"time": 130560, "pitch": 34, "duration": 240, "velocity": 110}, {"time": 130800, "pitch": 34, "duration": 240, "velocity": 105}, {"time": 131040, "pitch": 34, "duration": 240, "velocity": 110}, {"time": 131280, "pitch": 34, "duration": 240, "velocity": 105}, {"time": 131520, "pitch": 34, "duration": 240, "velocity": 110}, {"time": 131760, "pitch": 34, "duration": 240, "velocity": 105}, {"time": 132000, "pitch": 41, "duration": 240, "velocity": 110}, {"time": 132240, "pitch": 41, "duration": 240, "velocity": 105}, {"time": 132480, "pitch": 41, "duration": 240, "velocity": 110}, {"time": 132720, "pitch": 41, "duration": 240, "velocity": 105}, {"time": 132960, "pitch": 41, "duration": 240, "velocity": 110}, {"time": 133200, "pitch": 41, "duration": 240, "velocity": 105}, {"time": 133440, "pitch": 41, "duration": 240, "velocity": 110}, {"time": 133680, "pitch": 41, "duration": 240, "velocity": 105}, {"time": 133920, "pitch": 43, "duration": 240, "velocity": 110}, {"time": 134160, "pitch": 43, "duration": 240, "velocity": 105}, {"time": 134400, "pitch": 43, "duration": 240, "velocity": 110}, {"time": 134640, "pitch": 43, "duration": 240, "velocity": 105}, {"time": 134880, "pitch": 43, "duration": 240, "velocity": 110}, {"time": 135120, "pitch": 43, "duration": 240, "velocity": 105}, {"time": 135360, "pitch": 43, "duration": 240, "velocity": 110}, {"time": 135600, "pitch": 43, "duration": 240, "velocity": 105}, {"time": 135840, "pitch": 43, "duration": 240, "velocity": 110}, {"time": 136080, "pitch": 43, "duration": 240, "velocity": 105}, {"time": 136320, "pitch": 43, "duration": 240, "velocity": 110}, {"time": 136560, "pitch": 43, "duration": 240, "velocity": 105}, {"time": 136800, "pitch": 43, "duration": 240, "velocity": 110}, {"time": 137040, "pitch": 43, "duration": 240, "velocity": 105}, {"time": 137280, "pitch": 43, "duration": 240, "velocity": 110}, {"time": 137520, "pitch": 43, "duration": 240, "velocity": 105}, {"time": 138240, "pitch": 40, "duration": 160, "velocity": 110}, {"time": 138720, "pitch": 41, "duration": 360, "velocity": 110}, {"time": 139080, "pitch": 41, "duration": 120, "velocity": 100}, {"time": 140160, "pitch": 38, "duration": 160, "velocity": 110}, {"time": 140640, "pitch": 43, "duration": 360, "velocity": 110}, {"time": 141000, "pitch": 43, "duration": 120, "velocity": 100}, {"time": 142080, "pitch": 40, "duration": 160, "velocity": 110}, {"time": 142560, "pitch": 41, "duration": 360, "velocity": 110}, {"time": 142920, "pitch": 41, "duration": 120, "velocity": 100}, {"time": 144000, "pitch": 38, "duration": 160, "velocity": 110}, {"time": 144480, "pitch": 43, "duration": 360, "velocity": 110}, {"time": 144840, "pitch": 43, "duration": 120, "velocity": 100}, {"time": 145920, "pitch": 40, "duration": 160, "velocity": 110}, {"time": 146400, "pitch": 41, "duration": 360, "velocity": 110}, {"time": 146760, "pitch": 41, "duration": 120, "velocity": 100}, {"time": 147840, "pitch": 38, "duration": 160, "velocity": 110}, {"time": 148320, "pitch": 43, "duration": 360, "velocity": 110}, {"time": 148680, "pitch": 43, "duration": 120, "velocity": 100}, {"time": 149760, "pitch": 40, "duration": 160, "velocity": 110}, {"time": 150240, "pitch": 41, "duration": 360, "velocity": 110}, {"time": 150600, "pitch": 41, "duration": 120, "velocity": 100}, {"time": 151680, "pitch": 38, "duration": 160, "velocity": 110}, {"time": 152160, "pitch": 43, "duration": 360, "velocity": 110}, {"time": 152520, "pitch": 43, "duration": 120, "velocity": 100}, {"time": 152640, "pitch": 43, "duration": 240, "velocity": 100}, {"time": 152880, "pitch": 43, "duration": 240, "velocity": 100}, {"time": 153120, "pitch": 46, "duration": 1200, "velocity": 110}, {"time": 154320, "pitch": 46, "duration": 240, "velocity": 105}, {"time": 154560, "pitch": 46, "duration": 480, "velocity": 110}, {"time": 155040, "pitch": 45, "duration": 720, "velocity": 110}, {"time": 155760, "pitch": 40, "duration": 240, "velocity": 105}, {"time": 156000, "pitch": 45, "duration": 240, "velocity": 110}, {"time": 156240, "pitch": 45, "duration": 240, "velocity": 105}, {"time": 156480, "pitch": 45, "duration": 480, "velocity": 110}, {"time": 156960, "pitch": 38, "duration": 720, "velocity": 110}, {"time": 157680, "pitch": 40, "duration": 720, "velocity": 110}, {"time": 158400, "pitch": 41, "duration": 720, "velocity": 110}, {"time": 159120, "pitch": 45, "duration": 240, "velocity": 105}, {"time": 159360, "pitch": 48, "duration": 240, "velocity": 110}, {"time": 159600, "pitch": 53, "duration": 240, "velocity": 105}, {"time": 159840, "pitch": 52, "duration": 240, "velocity": 110}, {"time": 160080, "pitch": 48, "duration": 240, "velocity": 105}, {"time": 160320, "pitch": 41, "duration": 480, "velocity": 110}, {"time": 160800, "pitch": 38, "duration": 1200, "velocity": 110}, {"time": 162000, "pitch": 33, "duration": 240, "velocity": 105}, {"time": 162240, "pitch": 38, "duration": 480, "velocity": 110}, {"time": 162720, "pitch": 40, "duration": 1200, "velocity": 110}, {"time": 163920, "pitch": 36, "duration": 240, "velocity": 105}, {"time": 164160, "pitch": 40, "duration": 480, "velocity": 110}, {"time": 164640, "pitch": 41, "duration": 600, "velocity": 110}, {"time": 165360, "pitch": 43, "duration": 1180, "velocity": 110}, {"time": 166560, "pitch": 33, "duration": 600, "velocity": 110}, {"time": 167280, "pitch": 35, "duration": 1180, "velocity": 110}, {"time": 168480, "pitch": 47, "duration": 240, "velocity": 110}, {"time": 168720, "pitch": 47, "duration": 240, "velocity": 105}, {"time": 168960, "pitch": 47, "duration": 240, "velocity": 110}, {"time": 169200, "pitch": 47, "duration": 240, "velocity": 105}, {"time": 169440, "pitch": 47, "duration": 240, "velocity": 110}, {"time": 169680, "pitch": 47, "duration": 240, "velocity": 105}, {"time": 169920, "pitch": 47, "duration": 240, "velocity": 110}, {"time": 170160, "pitch": 47, "duration": 240, "velocity": 105}, {"time": 170400, "pitch": 38, "duration": 220, "velocity": 110}, {"time": 170640, "pitch": 38, "duration": 220, "velocity": 105}, {"time": 170880, "pitch": 38, "duration": 220, "velocity": 110}, {"time": 171120, "pitch": 38, "duration": 220, "velocity": 105}, {"time": 171360, "pitch": 38, "duration": 220, "velocity": 110}, {"time": 171600, "pitch": 38, "duration": 220, "velocity": 105}, {"time": 171840, "pitch": 38, "duration": 220, "velocity": 110}, {"time": 172080, "pitch": 38, "duration": 220, "velocity": 105}, {"time": 172320, "pitch": 33, "duration": 220, "velocity": 110}, {"time": 172560, "pitch": 33, "duration": 220, "velocity": 105}, {"time": 172800, "pitch": 33, "duration": 220, "velocity": 110}, {"time": 173040, "pitch": 33, "duration": 220, "velocity": 105}, {"time": 173280, "pitch": 33, "duration": 220, "velocity": 110}, {"time": 173520, "pitch": 33, "duration": 220, "velocity": 105}, {"time": 173760, "pitch": 33, "duration": 220, "velocity": 110}, {"time": 174000, "pitch": 33, "duration": 220, "velocity": 105}, {"time": 174240, "pitch": 35, "duration": 220, "velocity": 110}, {"time": 174480, "pitch": 35, "duration": 220, "velocity": 105}, {"time": 174720, "pitch": 35, "duration": 220, "velocity": 110}, {"time": 174960, "pitch": 35, "duration": 220, "velocity": 105}, {"time": 175200, "pitch": 35, "duration": 220, "velocity": 110}, {"time": 175440, "pitch": 35, "duration": 220, "velocity": 105}, {"time": 175680, "pitch": 35, "duration": 220, "velocity": 110}, {"time": 175920, "pitch": 35, "duration": 220, "velocity": 105}, {"time": 176160, "pitch": 31, "duration": 220, "velocity": 110}, {"time": 176400, "pitch": 31, "duration": 220, "velocity": 105}, {"time": 176640, "pitch": 31, "duration": 220, "velocity": 110}, {"time": 176880, "pitch": 31, "duration": 220, "velocity": 105}, {"time": 177120, "pitch": 33, "duration": 220, "velocity": 110}, {"time": 177360, "pitch": 33, "duration": 220, "velocity": 105}, {"time": 177600, "pitch": 33, "duration": 220, "velocity": 110}, {"time": 177840, "pitch": 33, "duration": 220, "velocity": 105}, {"time": 178080, "pitch": 38, "duration": 220, "velocity": 110}, {"time": 178320, "pitch": 38, "duration": 220, "velocity": 105}, {"time": 178560, "pitch": 38, "duration": 220, "velocity": 110}, {"time": 178800, "pitch": 38, "duration": 220, "velocity": 105}, {"time": 179040, "pitch": 38, "duration": 220, "velocity": 110}, {"time": 179280, "pitch": 38, "duration": 220, "velocity": 105}, {"time": 179520, "pitch": 38, "duration": 220, "velocity": 110}, {"time": 179760, "pitch": 38, "duration": 220, "velocity": 105}, {"time": 180000, "pitch": 33, "duration": 220, "velocity": 110}, {"time": 180240, "pitch": 33, "duration": 220, "velocity": 105}, {"time": 180480, "pitch": 33, "duration": 220, "velocity": 110}, {"time": 180720, "pitch": 33, "duration": 220, "velocity": 105}, {"time": 180960, "pitch": 33, "duration": 220, "velocity": 110}, {"time": 181200, "pitch": 33, "duration": 220, "velocity": 105}, {"time": 181440, "pitch": 33, "duration": 220, "velocity": 110}, {"time": 181680, "pitch": 33, "duration": 220, "velocity": 105}, {"time": 181920, "pitch": 31, "duration": 220, "velocity": 110}, {"time": 182160, "pitch": 31, "duration": 220, "velocity": 105}, {"time": 182400, "pitch": 31, "duration": 220, "velocity": 110}, {"time": 182640, "pitch": 31, "duration": 220, "velocity": 105}, {"time": 182880, "pitch": 31, "duration": 220, "velocity": 110}, {"time": 183120, "pitch": 31, "duration": 220, "velocity": 105}, {"time": 183360, "pitch": 31, "duration": 220, "velocity": 110}, {"time": 183600, "pitch": 31, "duration": 220, "velocity": 105}, {"time": 183840, "pitch": 33, "duration": 220, "velocity": 110}, {"time": 184080, "pitch": 33, "duration": 220, "velocity": 105}, {"time": 184320, "pitch": 33, "duration": 220, "velocity": 110}, {"time": 184560, "pitch": 40, "duration": 220, "velocity": 105}, {"time": 184800, "pitch": 43, "duration": 220, "velocity": 110}, {"time": 185040, "pitch": 45, "duration": 220, "velocity": 105}, {"time": 185280, "pitch": 40, "duration": 220, "velocity": 110}, {"time": 185520, "pitch": 43, "duration": 220, "velocity": 105}, {"time": 185760, "pitch": 38, "duration": 220, "velocity": 110}, {"time": 186000, "pitch": 38, "duration": 220, "velocity": 105}, {"time": 186240, "pitch": 38, "duration": 220, "velocity": 110}, {"time": 186480, "pitch": 38, "duration": 220, "velocity": 105}, {"time": 186720, "pitch": 38, "duration": 220, "velocity": 110}, {"time": 186960, "pitch": 38, "duration": 220, "velocity": 105}, {"time": 187200, "pitch": 38, "duration": 220, "velocity": 110}, {"time": 187440, "pitch": 38, "duration": 220, "velocity": 105}, {"time": 187680, "pitch": 33, "duration": 220, "velocity": 110}, {"time": 187920, "pitch": 33, "duration": 220, "velocity": 105}, {"time": 188160, "pitch": 33, "duration": 220, "velocity": 110}, {"time": 188400, "pitch": 33, "duration": 220, "velocity": 105}, {"time": 188640, "pitch": 33, "duration": 220, "velocity": 110}, {"time": 188880, "pitch": 33, "duration": 220, "velocity": 105}, {"time": 189120, "pitch": 33, "duration": 220, "velocity": 110}, {"time": 189360, "pitch": 33, "duration": 220, "velocity": 105}, {"time": 189600, "pitch": 35, "duration": 220, "velocity": 110}, {"time": 189840, "pitch": 35, "duration": 220, "velocity": 105}, {"time": 190080, "pitch": 35, "duration": 220, "velocity": 110}, {"time": 190320, "pitch": 35, "duration": 220, "velocity": 105}, {"time": 190560, "pitch": 35, "duration": 220, "velocity": 110}, {"time": 190800, "pitch": 35, "duration": 220, "velocity": 105}, {"time": 191040, "pitch": 35, "duration": 220, "velocity": 110}, {"time": 191280, "pitch": 35, "duration": 220, "velocity": 105}, {"time": 191520, "pitch": 31, "duration": 220, "velocity": 110}, {"time": 191760, "pitch": 31, "duration": 220, "velocity": 105}, {"time": 192000, "pitch": 31, "duration": 220, "velocity": 110}, {"time": 192240, "pitch": 31, "duration": 220, "velocity": 105}, {"time": 192480, "pitch": 33, "duration": 220, "velocity": 110}, {"time": 192720, "pitch": 33, "duration": 220, "velocity": 105}, {"time": 192960, "pitch": 33, "duration": 220, "velocity": 110}, {"time": 193200, "pitch": 33, "duration": 220, "velocity": 105}, {"time": 193440, "pitch": 38, "duration": 220, "velocity": 110}, {"time": 193680, "pitch": 38, "duration": 220, "velocity": 105}, {"time": 193920, "pitch": 38, "duration": 220, "velocity": 110}, {"time": 194160, "pitch": 38, "duration": 220, "velocity": 105}, {"time": 194400, "pitch": 38, "duration": 220, "velocity": 110}, {"time": 194640, "pitch": 38, "duration": 220, "velocity": 105}, {"time": 194880, "pitch": 38, "duration": 220, "velocity": 110}, {"time": 195120, "pitch": 38, "duration": 220, "velocity": 105}, {"time": 195360, "pitch": 33, "duration": 220, "velocity": 110}, {"time": 195600, "pitch": 33, "duration": 220, "velocity": 105}, {"time": 195840, "pitch": 33, "duration": 220, "velocity": 110}, {"time": 196080, "pitch": 33, "duration": 220, "velocity": 105}, {"time": 196320, "pitch": 33, "duration": 220, "velocity": 110}, {"time": 196560, "pitch": 33, "duration": 220, "velocity": 105}, {"time": 196800, "pitch": 33, "duration": 220, "velocity": 110}, {"time": 197040, "pitch": 33, "duration": 220, "velocity": 105}, {"time": 197280, "pitch": 28, "duration": 220, "velocity": 110}, {"time": 197520, "pitch": 28, "duration": 220, "velocity": 105}, {"time": 197760, "pitch": 28, "duration": 220, "velocity": 110}, {"time": 198000, "pitch": 28, "duration": 220, "velocity": 105}, {"time": 198240, "pitch": 28, "duration": 220, "velocity": 110}, {"time": 198480, "pitch": 28, "duration": 220, "velocity": 105}, {"time": 198720, "pitch": 28, "duration": 220, "velocity": 110}, {"time": 198960, "pitch": 28, "duration": 220, "velocity": 105}, {"time": 199200, "pitch": 28, "duration": 340, "velocity": 110}, {"time": 199560, "pitch": 30, "duration": 220, "velocity": 105}, {"time": 199920, "pitch": 31, "duration": 480, "velocity": 110}, {"time": 200400, "pitch": 31, "duration": 240, "velocity": 105}, {"time": 200640, "pitch": 31, "duration": 240, "velocity": 110}, {"time": 200880, "pitch": 38, "duration": 240, "velocity": 105}, {"time": 201120, "pitch": 43, "duration": 220, "velocity": 110}, {"time": 201360, "pitch": 43, "duration": 220, "velocity": 105}, {"time": 201600, "pitch": 43, "duration": 220, "velocity": 110}, {"time": 201840, "pitch": 43, "duration": 220, "velocity": 105}, {"time": 202080, "pitch": 43, "duration": 220, "velocity": 110}, {"time": 202320, "pitch": 43, "duration": 220, "velocity": 105}, {"time": 202560, "pitch": 43, "duration": 220, "velocity": 110}, {"time": 202800, "pitch": 43, "duration": 220, "velocity": 105}, {"time": 203040, "pitch": 38, "duration": 360, "velocity": 110}, {"time": 203400, "pitch": 38, "duration": 120, "velocity": 100}, {"time": 204000, "pitch": 36, "duration": 360, "velocity": 110}, {"time": 204360, "pitch": 36, "duration": 120, "velocity": 100}, {"time": 204960, "pitch": 31, "duration": 340, "velocity": 110}, {"time": 205320, "pitch": 31, "duration": 160, "velocity": 110}, {"time": 205680, "pitch": 28, "duration": 160, "velocity": 105}, {"time": 205920, "pitch": 31, "duration": 460, "velocity": 110}, {"time": 206400, "pitch": 36, "duration": 460, "velocity": 110}, {"time": 207360, "pitch": 38, "duration": 160, "velocity": 110}, {"time": 207840, "pitch": 36, "duration": 360, "velocity": 110}, {"time": 208200, "pitch": 36, "duration": 120, "velocity": 100}, {"time": 208800, "pitch": 31, "duration": 340, "velocity": 110}, {"time": 209160, "pitch": 31, "duration": 360, "velocity": 110}, {"time": 209520, "pitch": 28, "duration": 240, "velocity": 105}, {"time": 209760, "pitch": 31, "duration": 460, "velocity": 110}, {"time": 210240, "pitch": 33, "duration": 460, "velocity": 110}, {"time": 210720, "pitch": 38, "duration": 360, "velocity": 110}, {"time": 211080, "pitch": 38, "duration": 120, "velocity": 100}, {"time": 211680, "pitch": 36, "duration": 360, "velocity": 110}, {"time": 212040, "pitch": 36, "duration": 120, "velocity": 100}, {"time": 212640, "pitch": 31, "duration": 340, "velocity": 110}, {"time": 213000, "pitch": 31, "duration": 160, "velocity": 110}, {"time": 213360, "pitch": 28, "duration": 160, "velocity": 105}, {"time": 213600, "pitch": 31, "duration": 460, "velocity": 110}, {"time": 214080, "pitch": 36, "duration": 460, "velocity": 110}, {"time": 215040, "pitch": 38, "duration": 160, "velocity": 110}, {"time": 215520, "pitch": 36, "duration": 360, "velocity": 110}, {"time": 215880, "pitch": 36, "duration": 120, "velocity": 100}, {"time": 216480, "pitch": 31, "duration": 340, "velocity": 110}, {"time": 216840, "pitch": 31, "duration": 360, "velocity": 110}, {"time": 217200, "pitch": 28, "duration": 240, "velocity": 105}, {"time": 217440, "pitch": 31, "duration": 460, "velocity": 110}, {"time": 217920, "pitch": 33, "duration": 460, "velocity": 110}, {"time": 218400, "pitch": 38, "duration": 240, "velocity": 110}, {"time": 218640, "pitch": 38, "duration": 240, "velocity": 100}, {"time": 218880, "pitch": 38, "duration": 240, "velocity": 110}, {"time": 219120, "pitch": 38, "duration": 240, "velocity": 105}, {"time": 219360, "pitch": 36, "duration": 240, "velocity": 110}, {"time": 219600, "pitch": 36, "duration": 240, "velocity": 100}, {"time": 219840, "pitch": 36, "duration": 240, "velocity": 110}, {"time": 220080, "pitch": 36, "duration": 240, "velocity": 105}, {"time": 220320, "pitch": 31, "duration": 240, "velocity": 110}, {"time": 220560, "pitch": 31, "duration": 240, "velocity": 105}, {"time": 220800, "pitch": 31, "duration": 240, "velocity": 110}, {"time": 221040, "pitch": 28, "duration": 240, "velocity": 105}, {"time": 221280, "pitch": 31, "duration": 240, "velocity": 110}, {"time": 221520, "pitch": 31, "duration": 240, "velocity": 105}, {"time": 221760, "pitch": 36, "duration": 240, "velocity": 110}, {"time": 222000, "pitch": 36, "duration": 240, "velocity": 105}, {"time": 222240, "pitch": 36, "duration": 240, "velocity": 110}, {"time": 222480, "pitch": 36, "duration": 240, "velocity": 105}, {"time": 222720, "pitch": 38, "duration": 240, "velocity": 110}, {"time": 222960, "pitch": 38, "duration": 240, "velocity": 105}, {"time": 223200, "pitch": 36, "duration": 240, "velocity": 110}, {"time": 223440, "pitch": 36, "duration": 240, "velocity": 100}, {"time": 223680, "pitch": 36, "duration": 240, "velocity": 110}, {"time": 223920, "pitch": 36, "duration": 240, "velocity": 105}, {"time": 224160, "pitch": 31, "duration": 240, "velocity": 110}, {"time": 224400, "pitch": 31, "duration": 240, "velocity": 105}, {"time": 224640, "pitch": 31, "duration": 240, "velocity": 110}, {"time": 224880, "pitch": 28, "duration": 240, "velocity": 105}, {"time": 225120, "pitch": 31, "duration": 240, "velocity": 110}, {"time": 225360, "pitch": 31, "duration": 240, "velocity": 105}, {"time": 225600, "pitch": 33, "duration": 240, "velocity": 110}, {"time": 225840, "pitch": 33, "duration": 240, "velocity": 105}, {"time": 226080, "pitch": 38, "duration": 240, "velocity": 110}, {"time": 226320, "pitch": 38, "duration": 240, "velocity": 100}, {"time": 226560, "pitch": 38, "duration": 231, "velocity": 110}, {"time": 226791, "pitch": 38, "duration": 230, "velocity": 105}, {"time": 227021, "pitch": 36, "duration": 239, "velocity": 110}, {"time": 227260, "pitch": 36, "duration": 240, "velocity": 100}, {"time": 227500, "pitch": 36, "duration": 240, "velocity": 110}, {"time": 227740, "pitch": 36, "duration": 240, "velocity": 105}, {"time": 227980, "pitch": 31, "duration": 250, "velocity": 110}, {"time": 228230, "pitch": 31, "duration": 250, "velocity": 105}, {"time": 228480, "pitch": 31, "duration": 240, "velocity": 110}, {"time": 228720, "pitch": 28, "duration": 240, "velocity": 105}, {"time": 228960, "pitch": 31, "duration": 240, "velocity": 110}, {"time": 229200, "pitch": 31, "duration": 240, "velocity": 105}, {"time": 229440, "pitch": 36, "duration": 240, "velocity": 110}, {"time": 229680, "pitch": 36, "duration": 240, "velocity": 105}, {"time": 229920, "pitch": 36, "duration": 240, "velocity": 110}, {"time": 230160, "pitch": 36, "duration": 240, "velocity": 105}, {"time": 230400, "pitch": 38, "duration": 240, "velocity": 110}, {"time": 230640, "pitch": 38, "duration": 240, "velocity": 105}, {"time": 230880, "pitch": 36, "duration": 240, "velocity": 110}, {"time": 231120, "pitch": 36, "duration": 240, "velocity": 100}, {"time": 231360, "pitch": 36, "duration": 240, "velocity": 110}, {"time": 231600, "pitch": 36, "duration": 240, "velocity": 105}, {"time": 231840, "pitch": 31, "duration": 235, "velocity": 110}, {"time": 232075, "pitch": 31, "duration": 236, "velocity": 105}, {"time": 232311, "pitch": 31, "duration": 235, "velocity": 110}, {"time": 232546, "pitch": 28, "duration": 235, "velocity": 105}, {"time": 232781, "pitch": 31, "duration": 235, "velocity": 110}, {"time": 233016, "pitch": 31, "duration": 236, "velocity": 105}, {"time": 233252, "pitch": 33, "duration": 235, "velocity": 110}, {"time": 233487, "pitch": 33, "duration": 235, "velocity": 105}, {"time": 2400, "pitch": 84, "duration": 3820, "velocity": 100}, {"time": 10080, "pitch": 84, "duration": 3820, "velocity": 100}, {"time": 15840, "pitch": 79, "duration": 360, "velocity": 100}, {"time": 15840, "pitch": 84, "duration": 360, "velocity": 100}, {"time": 15840, "pitch": 88, "duration": 360, "velocity": 100}, {"time": 16200, "pitch": 81, "duration": 360, "velocity": 100}, {"time": 16200, "pitch": 84, "duration": 360, "velocity": 100}, {"time": 16200, "pitch": 89, "duration": 360, "velocity": 100}, {"time": 16560, "pitch": 83, "duration": 2140, "velocity": 100}, {"time": 16560, "pitch": 86, "duration": 2140, "velocity": 100}, {"time": 16560, "pitch": 91, "duration": 2140, "velocity": 100}, {"time": 34080, "pitch": 77, "duration": 1900, "velocity": 100}, {"time": 34080, "pitch": 82, "duration": 1900, "velocity": 100}, {"time": 34080, "pitch": 86, "duration": 1900, "velocity": 100}, {"time": 36000, "pitch": 76, "duration": 1900, "velocity": 100}, {"time": 36000, "pitch": 81, "duration": 1900, "velocity": 100}, {"time": 36000, "pitch": 84, "duration": 1900, "velocity": 100}, {"time": 37920, "pitch": 77, "duration": 720, "velocity": 100}, {"time": 37920, "pitch": 81, "duration": 720, "velocity": 100}, {"time": 37920, "pitch": 86, "duration": 720, "velocity": 100}, {"time": 38640, "pitch": 79, "duration": 720, "velocity": 100}, {"time": 38640, "pitch": 84, "duration": 720, "velocity": 100}, {"time": 38640, "pitch": 88, "duration": 720, "velocity": 100}, {"time": 39360, "pitch": 81, "duration": 2380, "velocity": 100}, {"time": 39360, "pitch": 84, "duration": 2380, "velocity": 100}, {"time": 39360, "pitch": 89, "duration": 2380, "velocity": 100}, {"time": 41760, "pitch": 77, "duration": 1900, "velocity": 100}, {"time": 41760, "pitch": 81, "duration": 1900, "velocity": 100}, {"time": 41760, "pitch": 86, "duration": 1900, "velocity": 100}, {"time": 43680, "pitch": 79, "duration": 1900, "velocity": 100}, {"time": 43680, "pitch": 84, "duration": 1900, "velocity": 100}, {"time": 43680, "pitch": 88, "duration": 1900, "velocity": 100}, {"time": 45600, "pitch": 81, "duration": 720, "velocity": 100}, {"time": 45600, "pitch": 84, "duration": 720, "velocity": 100}, {"time": 45600, "pitch": 89, "duration": 720, "velocity": 100}, {"time": 46320, "pitch": 83, "duration": 1180, "velocity": 100}, {"time": 46320, "pitch": 86, "duration": 1180, "velocity": 100}, {"time": 46320, "pitch": 91, "duration": 1180, "velocity": 100}, {"time": 47520, "pitch": 84, "duration": 720, "velocity": 100}, {"time": 47520, "pitch": 89, "duration": 720, "velocity": 100}, {"time": 47520, "pitch": 93, "duration": 720, "velocity": 100}, {"time": 48240, "pitch": 86, "duration": 1180, "velocity": 100}, {"time": 48240, "pitch": 91, "duration": 1180, "velocity": 100}, {"time": 48240, "pitch": 95, "duration": 1180, "velocity": 100}, {"time": 49440, "pitch": 88, "duration": 1920, "velocity": 100}, {"time": 49440, "pitch": 91, "duration": 1920, "velocity": 100}, {"time": 49440, "pitch": 96, "duration": 1800, "velocity": 100}, {"time": 51240, "pitch": 95, "duration": 60, "velocity": 100}, {"time": 51300, "pitch": 93, "duration": 60, "velocity": 100}, {"time": 51360, "pitch": 83, "duration": 1900, "velocity": 100}, {"time": 51360, "pitch": 86, "duration": 1900, "velocity": 100}, {"time": 51360, "pitch": 91, "duration": 1900, "velocity": 100}, {"time": 53280, "pitch": 84, "duration": 1900, "velocity": 100}, {"time": 53280, "pitch": 88, "duration": 1900, "velocity": 100}, {"time": 53280, "pitch": 93, "duration": 1900, "velocity": 100}, {"time": 55200, "pitch": 81, "duration": 940, "velocity": 100}, {"time": 55200, "pitch": 84, "duration": 940, "velocity": 100}, {"time": 55200, "pitch": 89, "duration": 940, "velocity": 100}, {"time": 56160, "pitch": 83, "duration": 940, "velocity": 100}, {"time": 56160, "pitch": 86, "duration": 940, "velocity": 100}, {"time": 56160, "pitch": 91, "duration": 940, "velocity": 100}, {"time": 57120, "pitch": 88, "duration": 1920, "velocity": 100}, {"time": 57120, "pitch": 91, "duration": 1920, "velocity": 100}, {"time": 57120, "pitch": 96, "duration": 1800, "velocity": 100}, {"time": 58920, "pitch": 95, "duration": 60, "velocity": 100}, {"time": 58980, "pitch": 93, "duration": 60, "velocity": 100}, {"time": 59040, "pitch": 83, "duration": 1900, "velocity": 100}, {"time": 59040, "pitch": 86, "duration": 1900, "velocity": 100}, {"time": 59040, "pitch": 91, "duration": 1900, "velocity": 100}, {"time": 60960, "pitch": 86, "duration": 1900, "velocity": 100}, {"time": 60960, "pitch": 89, "duration": 1900, "velocity": 100}, {"time": 60960, "pitch": 93, "duration": 1900, "velocity": 100}, {"time": 62880, "pitch": 77, "duration": 340, "velocity": 100}, {"time": 62880, "pitch": 81, "duration": 340, "velocity": 100}, {"time": 62880, "pitch": 86, "duration": 340, "velocity": 100}, {"time": 63240, "pitch": 79, "duration": 340, "velocity": 100}, {"time": 63240, "pitch": 84, "duration": 340, "velocity": 100}, {"time": 63240, "pitch": 88, "duration": 340, "velocity": 100}, {"time": 63600, "pitch": 81, "duration": 3100, "velocity": 100}, {"time": 63600, "pitch": 84, "duration": 3100, "velocity": 100}, {"time": 63600, "pitch": 89, "duration": 3100, "velocity": 100}, {"time": 80320, "pitch": 82, "duration": 80, "velocity": 100}, {"time": 80360, "pitch": 83, "duration": 80, "velocity": 100}, {"time": 80400, "pitch": 84, "duration": 2640, "velocity": 100}, {"time": 81600, "pitch": 81, "duration": 960, "velocity": 100}, {"time": 81840, "pitch": 79, "duration": 480, "velocity": 100}, {"time": 82320, "pitch": 79, "duration": 480, "velocity": 100}, {"time": 82560, "pitch": 81, "duration": 240, "velocity": 100}, {"time": 89760, "pitch": 77, "duration": 1900, "velocity": 100}, {"time": 89760, "pitch": 82, "duration": 1900, "velocity": 100}, {"time": 89760, "pitch": 86, "duration": 1900, "velocity": 100}, {"time": 91680, "pitch": 76, "duration": 1900, "velocity": 100}, {"time": 91680, "pitch": 81, "duration": 1900, "velocity": 100}, {"time": 91680, "pitch": 84, "duration": 1900, "velocity": 100}, {"time": 93600, "pitch": 77, "duration": 720, "velocity": 100}, {"time": 93600, "pitch": 81, "duration": 720, "velocity": 100}, {"time": 93600, "pitch": 86, "duration": 720, "velocity": 100}, {"time": 94320, "pitch": 79, "duration": 720, "velocity": 100}, {"time": 94320, "pitch": 84, "duration": 720, "velocity": 100}, {"time": 94320, "pitch": 88, "duration": 720, "velocity": 100}, {"time": 95040, "pitch": 81, "duration": 2380, "velocity": 100}, {"time": 95040, "pitch": 84, "duration": 2380, "velocity": 100}, {"time": 95040, "pitch": 89, "duration": 2380, "velocity": 100}, {"time": 97440, "pitch": 77, "duration": 1900, "velocity": 100}, {"time": 97440, "pitch": 81, "duration": 1900, "velocity": 100}, {"time": 97440, "pitch": 86, "duration": 1900, "velocity": 100}, {"time": 99360, "pitch": 79, "duration": 1900, "velocity": 100}, {"time": 99360, "pitch": 84, "duration": 1900, "velocity": 100}, {"time": 99360, "pitch": 88, "duration": 1900, "velocity": 100}, {"time": 101280, "pitch": 81, "duration": 720, "velocity": 100}, {"time": 101280, "pitch": 84, "duration": 720, "velocity": 100}, {"time": 101280, "pitch": 89, "duration": 720, "velocity": 100}, {"time": 102000, "pitch": 83, "duration": 1180, "velocity": 100}, {"time": 102000, "pitch": 86, "duration": 1180, "velocity": 100}, {"time": 102000, "pitch": 91, "duration": 1180, "velocity": 100}, {"time": 103200, "pitch": 84, "duration": 720, "velocity": 100}, {"time": 103200, "pitch": 89, "duration": 720, "velocity": 100}, {"time": 103200, "pitch": 93, "duration": 720, "velocity": 100}, {"time": 103920, "pitch": 86, "duration": 1180, "velocity": 100}, {"time": 103920, "pitch": 91, "duration": 1180, "velocity": 100}, {"time": 103920, "pitch": 95, "duration": 1180, "velocity": 100}, {"time": 105120, "pitch": 88, "duration": 1920, "velocity": 100}, {"time": 105120, "pitch": 91, "duration": 1920, "velocity": 100}, {"time": 105120, "pitch": 96, "duration": 1800, "velocity": 100}, {"time": 106920, "pitch": 95, "duration": 60, "velocity": 100}, {"time": 106980, "pitch": 93, "duration": 60, "velocity": 100}, {"time": 107040, "pitch": 83, "duration": 1900, "velocity": 100}, {"time": 107040, "pitch": 86, "duration": 1900, "velocity": 100}, {"time": 107040, "pitch": 91, "duration": 1900, "velocity": 100}, {"time": 108960, "pitch": 84, "duration": 1900, "velocity": 100}, {"time": 108960, "pitch": 88, "duration": 1900, "velocity": 100}, {"time": 108960, "pitch": 93, "duration": 1900, "velocity": 100}, {"time": 110880, "pitch": 81, "duration": 940, "velocity": 100}, {"time": 110880, "pitch": 84, "duration": 940, "velocity": 100}, {"time": 110880, "pitch": 89, "duration": 940, "velocity": 100}, {"time": 111840, "pitch": 83, "duration": 940, "velocity": 100}, {"time": 111840, "pitch": 86, "duration": 940, "velocity": 100}, {"time": 111840, "pitch": 91, "duration": 940, "velocity": 100}, {"time": 112800, "pitch": 88, "duration": 1920, "velocity": 100}, {"time": 112800, "pitch": 91, "duration": 1920, "velocity": 100}, {"time": 112800, "pitch": 96, "duration": 1800, "velocity": 100}, {"time": 114600, "pitch": 95, "duration": 60, "velocity": 100}, {"time": 114660, "pitch": 93, "duration": 60, "velocity": 100}, {"time": 114720, "pitch": 83, "duration": 1900, "velocity": 100}, {"time": 114720, "pitch": 86, "duration": 1900, "velocity": 100}, {"time": 114720, "pitch": 91, "duration": 1900, "velocity": 100}, {"time": 116640, "pitch": 86, "duration": 1900, "velocity": 100}, {"time": 116640, "pitch": 89, "duration": 1900, "velocity": 100}, {"time": 116640, "pitch": 93, "duration": 1900, "velocity": 100}, {"time": 118560, "pitch": 77, "duration": 340, "velocity": 100}, {"time": 118560, "pitch": 81, "duration": 340, "velocity": 100}, {"time": 118560, "pitch": 86, "duration": 340, "velocity": 100}, {"time": 118920, "pitch": 79, "duration": 340, "velocity": 100}, {"time": 118920, "pitch": 84, "duration": 340, "velocity": 100}, {"time": 118920, "pitch": 88, "duration": 340, "velocity": 100}, {"time": 119280, "pitch": 81, "duration": 3100, "velocity": 100}, {"time": 119280, "pitch": 84, "duration": 3100, "velocity": 100}, {"time": 119280, "pitch": 89, "duration": 3100, "velocity": 100}, {"time": 122400, "pitch": 82, "duration": 1900, "velocity": 100}, {"time": 122400, "pitch": 86, "duration": 1900, "velocity": 100}, {"time": 122400, "pitch": 89, "duration": 1900, "velocity": 100}, {"time": 124320, "pitch": 81, "duration": 1900, "velocity": 100}, {"time": 124320, "pitch": 84, "duration": 1900, "velocity": 100}, {"time": 124320, "pitch": 89, "duration": 1900, "velocity": 100}, {"time": 126720, "pitch": 79, "duration": 120, "velocity": 100}, {"time": 126720, "pitch": 84, "duration": 120, "velocity": 100}, {"time": 126720, "pitch": 88, "duration": 120, "velocity": 100}, {"time": 127200, "pitch": 81, "duration": 460, "velocity": 100}, {"time": 127200, "pitch": 84, "duration": 460, "velocity": 100}, {"time": 127200, "pitch": 89, "duration": 460, "velocity": 100}, {"time": 127680, "pitch": 79, "duration": 120, "velocity": 100}, {"time": 127680, "pitch": 84, "duration": 120, "velocity": 100}, {"time": 127680, "pitch": 88, "duration": 120, "velocity": 100}, {"time": 128160, "pitch": 81, "duration": 360, "velocity": 100}, {"time": 128160, "pitch": 84, "duration": 360, "velocity": 100}, {"time": 128160, "pitch": 89, "duration": 360, "velocity": 100}, {"time": 128520, "pitch": 79, "duration": 120, "velocity": 100}, {"time": 128520, "pitch": 84, "duration": 120, "velocity": 100}, {"time": 128520, "pitch": 88, "duration": 120, "velocity": 100}, {"time": 128880, "pitch": 79, "duration": 480, "velocity": 100}, {"time": 128880, "pitch": 83, "duration": 480, "velocity": 100}, {"time": 128880, "pitch": 86, "duration": 480, "velocity": 100}, {"time": 130080, "pitch": 82, "duration": 1900, "velocity": 100}, {"time": 130080, "pitch": 86, "duration": 1900, "velocity": 100}, {"time": 130080, "pitch": 89, "duration": 1900, "velocity": 100}, {"time": 132000, "pitch": 81, "duration": 1900, "velocity": 100}, {"time": 132000, "pitch": 84, "duration": 1900, "velocity": 100}, {"time": 132000, "pitch": 89, "duration": 1900, "velocity": 100}, {"time": 133920, "pitch": 77, "duration": 940, "velocity": 100}, {"time": 133920, "pitch": 81, "duration": 940, "velocity": 100}, {"time": 133920, "pitch": 84, "duration": 940, "velocity": 100}, {"time": 134880, "pitch": 79, "duration": 940, "velocity": 100}, {"time": 134880, "pitch": 83, "duration": 940, "velocity": 100}, {"time": 134880, "pitch": 86, "duration": 940, "velocity": 100}, {"time": 135840, "pitch": 81, "duration": 940, "velocity": 100}, {"time": 135840, "pitch": 84, "duration": 940, "velocity": 100}, {"time": 135840, "pitch": 89, "duration": 940, "velocity": 100}, {"time": 136800, "pitch": 83, "duration": 940, "velocity": 100}, {"time": 136800, "pitch": 86, "duration": 940, "velocity": 100}, {"time": 136800, "pitch": 91, "duration": 940, "velocity": 100}, {"time": 153120, "pitch": 77, "duration": 1900, "velocity": 100}, {"time": 153120, "pitch": 82, "duration": 1900, "velocity": 100}, {"time": 153120, "pitch": 86, "duration": 1900, "velocity": 100}, {"time": 155040, "pitch": 76, "duration": 1900, "velocity": 100}, {"time": 155040, "pitch": 81, "duration": 1900, "velocity": 100}, {"time": 155040, "pitch": 84, "duration": 1900, "velocity": 100}, {"time": 156960, "pitch": 77, "duration": 720, "velocity": 100}, {"time": 156960, "pitch": 81, "duration": 720, "velocity": 100}, {"time": 156960, "pitch": 86, "duration": 720, "velocity": 100}, {"time": 157680, "pitch": 79, "duration": 720, "velocity": 100}, {"time": 157680, "pitch": 84, "duration": 720, "velocity": 100}, {"time": 157680, "pitch": 88, "duration": 720, "velocity": 100}, {"time": 158400, "pitch": 81, "duration": 2380, "velocity": 100}, {"time": 158400, "pitch": 84, "duration": 2380, "velocity": 100}, {"time": 158400, "pitch": 89, "duration": 2380, "velocity": 100}, {"time": 160800, "pitch": 77, "duration": 1900, "velocity": 100}, {"time": 160800, "pitch": 81, "duration": 1900, "velocity": 100}, {"time": 160800, "pitch": 86, "duration": 1900, "velocity": 100}, {"time": 162720, "pitch": 79, "duration": 1900, "velocity": 100}, {"time": 162720, "pitch": 84, "duration": 1900, "velocity": 100}, {"time": 162720, "pitch": 88, "duration": 1900, "velocity": 100}, {"time": 164640, "pitch": 81, "duration": 720, "velocity": 100}, {"time": 164640, "pitch": 84, "duration": 720, "velocity": 100}, {"time": 164640, "pitch": 89, "duration": 720, "velocity": 100}, {"time": 165360, "pitch": 83, "duration": 1180, "velocity": 100}, {"time": 165360, "pitch": 86, "duration": 1180, "velocity": 100}, {"time": 165360, "pitch": 91, "duration": 1180, "velocity": 100}, {"time": 166560, "pitch": 84, "duration": 720, "velocity": 100}, {"time": 166560, "pitch": 89, "duration": 720, "velocity": 100}, {"time": 166560, "pitch": 93, "duration": 720, "velocity": 100}, {"time": 167280, "pitch": 86, "duration": 3100, "velocity": 100}, {"time": 167280, "pitch": 91, "duration": 3100, "velocity": 100}, {"time": 167280, "pitch": 95, "duration": 3100, "velocity": 100}, {"time": 170400, "pitch": 90, "duration": 1920, "velocity": 100}, {"time": 170400, "pitch": 93, "duration": 1920, "velocity": 100}, {"time": 170400, "pitch": 98, "duration": 1800, "velocity": 100}, {"time": 172200, "pitch": 97, "duration": 60, "velocity": 100}, {"time": 172260, "pitch": 95, "duration": 60, "velocity": 100}, {"time": 172320, "pitch": 85, "duration": 1900, "velocity": 100}, {"time": 172320, "pitch": 88, "duration": 1900, "velocity": 100}, {"time": 172320, "pitch": 93, "duration": 1900, "velocity": 100}, {"time": 174240, "pitch": 86, "duration": 1900, "velocity": 100}, {"time": 174240, "pitch": 90, "duration": 1900, "velocity": 100}, {"time": 174240, "pitch": 95, "duration": 1900, "velocity": 100}, {"time": 176160, "pitch": 83, "duration": 940, "velocity": 100}, {"time": 176160, "pitch": 86, "duration": 940, "velocity": 100}, {"time": 176160, "pitch": 91, "duration": 940, "velocity": 100}, {"time": 177120, "pitch": 85, "duration": 940, "velocity": 100}, {"time": 177120, "pitch": 88, "duration": 940, "velocity": 100}, {"time": 177120, "pitch": 93, "duration": 940, "velocity": 100}, {"time": 178080, "pitch": 90, "duration": 1920, "velocity": 100}, {"time": 178080, "pitch": 93, "duration": 1920, "velocity": 100}, {"time": 178080, "pitch": 98, "duration": 1800, "velocity": 100}, {"time": 179880, "pitch": 97, "duration": 60, "velocity": 100}, {"time": 179940, "pitch": 95, "duration": 60, "velocity": 100}, {"time": 180000, "pitch": 85, "duration": 1900, "velocity": 100}, {"time": 180000, "pitch": 88, "duration": 1900, "velocity": 100}, {"time": 180000, "pitch": 93, "duration": 1900, "velocity": 100}, {"time": 181920, "pitch": 86, "duration": 1900, "velocity": 100}, {"time": 181920, "pitch": 90, "duration": 1900, "velocity": 100}, {"time": 181920, "pitch": 95, "duration": 1900, "velocity": 100}, {"time": 183840, "pitch": 83, "duration": 940, "velocity": 100}, {"time": 183840, "pitch": 86, "duration": 940, "velocity": 100}, {"time": 183840, "pitch": 91, "duration": 940, "velocity": 100}, {"time": 184800, "pitch": 85, "duration": 940, "velocity": 100}, {"time": 184800, "pitch": 88, "duration": 940, "velocity": 100}, {"time": 184800, "pitch": 93, "duration": 940, "velocity": 100}, {"time": 185760, "pitch": 90, "duration": 1920, "velocity": 100}, {"time": 185760, "pitch": 93, "duration": 1920, "velocity": 100}, {"time": 185760, "pitch": 98, "duration": 1800, "velocity": 100}, {"time": 187560, "pitch": 97, "duration": 60, "velocity": 100}, {"time": 187620, "pitch": 95, "duration": 60, "velocity": 100}, {"time": 187680, "pitch": 85, "duration": 1900, "velocity": 100}, {"time": 187680, "pitch": 88, "duration": 1900, "velocity": 100}, {"time": 187680, "pitch": 93, "duration": 1900, "velocity": 100}, {"time": 189600, "pitch": 86, "duration": 1900, "velocity": 100}, {"time": 189600, "pitch": 90, "duration": 1900, "velocity": 100}, {"time": 189600, "pitch": 95, "duration": 1900, "velocity": 100}, {"time": 191520, "pitch": 83, "duration": 940, "velocity": 100}, {"time": 191520, "pitch": 86, "duration": 940, "velocity": 100}, {"time": 191520, "pitch": 91, "duration": 940, "velocity": 100}, {"time": 192480, "pitch": 85, "duration": 940, "velocity": 100}, {"time": 192480, "pitch": 88, "duration": 940, "velocity": 100}, {"time": 192480, "pitch": 93, "duration": 940, "velocity": 100}, {"time": 193440, "pitch": 90, "duration": 1920, "velocity": 100}, {"time": 193440, "pitch": 93, "duration": 1920, "velocity": 100}, {"time": 193440, "pitch": 98, "duration": 1800, "velocity": 100}, {"time": 195240, "pitch": 97, "duration": 60, "velocity": 100}, {"time": 195300, "pitch": 95, "duration": 60, "velocity": 100}, {"time": 195360, "pitch": 85, "duration": 1900, "velocity": 100}, {"time": 195360, "pitch": 88, "duration": 1900, "velocity": 100}, {"time": 195360, "pitch": 93, "duration": 1900, "velocity": 100}, {"time": 197280, "pitch": 88, "duration": 1900, "velocity": 100}, {"time": 197280, "pitch": 91, "duration": 1900, "velocity": 100}, {"time": 197280, "pitch": 95, "duration": 1900, "velocity": 100}, {"time": 199200, "pitch": 79, "duration": 340, "velocity": 100}, {"time": 199200, "pitch": 83, "duration": 340, "velocity": 100}, {"time": 199200, "pitch": 88, "duration": 340, "velocity": 100}, {"time": 199560, "pitch": 81, "duration": 340, "velocity": 100}, {"time": 199560, "pitch": 86, "duration": 340, "velocity": 100}, {"time": 199560, "pitch": 90, "duration": 340, "velocity": 100}, {"time": 199920, "pitch": 83, "duration": 3100, "velocity": 100}, {"time": 199920, "pitch": 86, "duration": 3100, "velocity": 100}, {"time": 199920, "pitch": 91, "duration": 3100, "velocity": 100}, {"time": 203040, "pitch": 78, "duration": 340, "velocity": 100}, {"time": 203040, "pitch": 81, "duration": 340, "velocity": 100}, {"time": 203040, "pitch": 86, "duration": 340, "velocity": 100}, {"time": 203400, "pitch": 78, "duration": 80, "velocity": 100}, {"time": 203400, "pitch": 81, "duration": 80, "velocity": 100}, {"time": 203400, "pitch": 86, "duration": 80, "velocity": 100}, {"time": 204000, "pitch": 76, "duration": 340, "velocity": 100}, {"time": 204000, "pitch": 79, "duration": 340, "velocity": 100}, {"time": 204000, "pitch": 84, "duration": 340, "velocity": 100}, {"time": 204360, "pitch": 76, "duration": 80, "velocity": 100}, {"time": 204360, "pitch": 79, "duration": 80, "velocity": 100}, {"time": 204360, "pitch": 84, "duration": 80, "velocity": 100}, {"time": 204960, "pitch": 79, "duration": 340, "velocity": 100}, {"time": 204960, "pitch": 83, "duration": 340, "velocity": 100}, {"time": 204960, "pitch": 86, "duration": 340, "velocity": 100}, {"time": 205320, "pitch": 79, "duration": 80, "velocity": 100}, {"time": 205320, "pitch": 83, "duration": 80, "velocity": 100}, {"time": 205320, "pitch": 86, "duration": 80, "velocity": 100}, {"time": 205920, "pitch": 79, "duration": 340, "velocity": 100}, {"time": 205920, "pitch": 83, "duration": 340, "velocity": 100}, {"time": 205920, "pitch": 86, "duration": 340, "velocity": 100}, {"time": 206400, "pitch": 79, "duration": 340, "velocity": 100}, {"time": 206400, "pitch": 84, "duration": 340, "velocity": 100}, {"time": 206400, "pitch": 88, "duration": 340, "velocity": 100}, {"time": 207360, "pitch": 78, "duration": 160, "velocity": 100}, {"time": 207360, "pitch": 81, "duration": 160, "velocity": 100}, {"time": 207360, "pitch": 86, "duration": 160, "velocity": 100}, {"time": 207840, "pitch": 76, "duration": 340, "velocity": 100}, {"time": 207840, "pitch": 79, "duration": 340, "velocity": 100}, {"time": 207840, "pitch": 84, "duration": 340, "velocity": 100}, {"time": 208200, "pitch": 76, "duration": 80, "velocity": 100}, {"time": 208200, "pitch": 79, "duration": 80, "velocity": 100}, {"time": 208200, "pitch": 84, "duration": 80, "velocity": 100}, {"time": 208800, "pitch": 79, "duration": 340, "velocity": 100}, {"time": 208800, "pitch": 83, "duration": 340, "velocity": 100}, {"time": 208800, "pitch": 86, "duration": 340, "velocity": 100}, {"time": 209160, "pitch": 79, "duration": 80, "velocity": 100}, {"time": 209160, "pitch": 83, "duration": 80, "velocity": 100}, {"time": 209160, "pitch": 86, "duration": 80, "velocity": 100}, {"time": 209520, "pitch": 79, "duration": 80, "velocity": 100}, {"time": 209520, "pitch": 83, "duration": 80, "velocity": 100}, {"time": 209520, "pitch": 86, "duration": 80, "velocity": 100}, {"time": 209760, "pitch": 79, "duration": 340, "velocity": 100}, {"time": 209760, "pitch": 83, "duration": 340, "velocity": 100}, {"time": 209760, "pitch": 86, "duration": 340, "velocity": 100}, {"time": 210240, "pitch": 79, "duration": 340, "velocity": 100}, {"time": 210240, "pitch": 84, "duration": 340, "velocity": 100}, {"time": 210240, "pitch": 88, "duration": 340, "velocity": 100}, {"time": 210720, "pitch": 78, "duration": 340, "velocity": 100}, {"time": 210720, "pitch": 81, "duration": 340, "velocity": 100}, {"time": 210720, "pitch": 86, "duration": 340, "velocity": 100}, {"time": 211080, "pitch": 78, "duration": 80, "velocity": 100}, {"time": 211080, "pitch": 81, "duration": 80, "velocity": 100}, {"time": 211080, "pitch": 86, "duration": 80, "velocity": 100}, {"time": 211680, "pitch": 76, "duration": 340, "velocity": 100}, {"time": 211680, "pitch": 79, "duration": 340, "velocity": 100}, {"time": 211680, "pitch": 84, "duration": 340, "velocity": 100}, {"time": 212040, "pitch": 76, "duration": 80, "velocity": 100}, {"time": 212040, "pitch": 79, "duration": 80, "velocity": 100}, {"time": 212040, "pitch": 84, "duration": 80, "velocity": 100}, {"time": 212640, "pitch": 79, "duration": 340, "velocity": 100}, {"time": 212640, "pitch": 83, "duration": 340, "velocity": 100}, {"time": 212640, "pitch": 86, "duration": 340, "velocity": 100}, {"time": 213000, "pitch": 79, "duration": 80, "velocity": 100}, {"time": 213000, "pitch": 83, "duration": 80, "velocity": 100}, {"time": 213000, "pitch": 86, "duration": 80, "velocity": 100}, {"time": 213600, "pitch": 79, "duration": 340, "velocity": 100}, {"time": 213600, "pitch": 83, "duration": 340, "velocity": 100}, {"time": 213600, "pitch": 86, "duration": 340, "velocity": 100}, {"time": 214080, "pitch": 79, "duration": 340, "velocity": 100}, {"time": 214080, "pitch": 84, "duration": 340, "velocity": 100}, {"time": 214080, "pitch": 88, "duration": 340, "velocity": 100}, {"time": 215040, "pitch": 78, "duration": 160, "velocity": 100}, {"time": 215040, "pitch": 81, "duration": 160, "velocity": 100}, {"time": 215040, "pitch": 86, "duration": 160, "velocity": 100}, {"time": 215520, "pitch": 76, "duration": 340, "velocity": 100}, {"time": 215520, "pitch": 79, "duration": 340, "velocity": 100}, {"time": 215520, "pitch": 84, "duration": 340, "velocity": 100}, {"time": 215880, "pitch": 76, "duration": 80, "velocity": 100}, {"time": 215880, "pitch": 79, "duration": 80, "velocity": 100}, {"time": 215880, "pitch": 84, "duration": 80, "velocity": 100}, {"time": 216480, "pitch": 79, "duration": 340, "velocity": 100}, {"time": 216480, "pitch": 83, "duration": 340, "velocity": 100}, {"time": 216480, "pitch": 86, "duration": 340, "velocity": 100}, {"time": 216840, "pitch": 79, "duration": 80, "velocity": 100}, {"time": 216840, "pitch": 83, "duration": 80, "velocity": 100}, {"time": 216840, "pitch": 86, "duration": 80, "velocity": 100}, {"time": 217200, "pitch": 79, "duration": 80, "velocity": 100}, {"time": 217200, "pitch": 83, "duration": 80, "velocity": 100}, {"time": 217200, "pitch": 86, "duration": 80, "velocity": 100}, {"time": 217440, "pitch": 79, "duration": 340, "velocity": 100}, {"time": 217440, "pitch": 83, "duration": 340, "velocity": 100}, {"time": 217440, "pitch": 86, "duration": 340, "velocity": 100}, {"time": 217920, "pitch": 79, "duration": 340, "velocity": 100}, {"time": 217920, "pitch": 84, "duration": 340, "velocity": 100}, {"time": 217920, "pitch": 88, "duration": 340, "velocity": 100}, {"time": 218400, "pitch": 78, "duration": 340, "velocity": 100}, {"time": 218400, "pitch": 81, "duration": 340, "velocity": 100}, {"time": 218400, "pitch": 86, "duration": 340, "velocity": 100}, {"time": 218760, "pitch": 78, "duration": 80, "velocity": 100}, {"time": 218760, "pitch": 81, "duration": 80, "velocity": 100}, {"time": 218760, "pitch": 86, "duration": 80, "velocity": 100}, {"time": 219360, "pitch": 76, "duration": 340, "velocity": 100}, {"time": 219360, "pitch": 79, "duration": 340, "velocity": 100}, {"time": 219360, "pitch": 84, "duration": 340, "velocity": 100}, {"time": 219720, "pitch": 76, "duration": 80, "velocity": 100}, {"time": 219720, "pitch": 79, "duration": 80, "velocity": 100}, {"time": 219720, "pitch": 84, "duration": 80, "velocity": 100}, {"time": 220320, "pitch": 79, "duration": 340, "velocity": 100}, {"time": 220320, "pitch": 83, "duration": 340, "velocity": 100}, {"time": 220320, "pitch": 86, "duration": 340, "velocity": 100}, {"time": 220680, "pitch": 79, "duration": 80, "velocity": 100}, {"time": 220680, "pitch": 83, "duration": 80, "velocity": 100}, {"time": 220680, "pitch": 86, "duration": 80, "velocity": 100}, {"time": 221280, "pitch": 79, "duration": 340, "velocity": 100}, {"time": 221280, "pitch": 83, "duration": 340, "velocity": 100}, {"time": 221280, "pitch": 86, "duration": 340, "velocity": 100}, {"time": 221760, "pitch": 79, "duration": 340, "velocity": 100}, {"time": 221760, "pitch": 84, "duration": 340, "velocity": 100}, {"time": 221760, "pitch": 88, "duration": 340, "velocity": 100}, {"time": 222720, "pitch": 78, "duration": 160, "velocity": 100}, {"time": 222720, "pitch": 81, "duration": 160, "velocity": 100}, {"time": 222720, "pitch": 86, "duration": 160, "velocity": 100}, {"time": 223200, "pitch": 76, "duration": 340, "velocity": 100}, {"time": 223200, "pitch": 79, "duration": 340, "velocity": 100}, {"time": 223200, "pitch": 84, "duration": 340, "velocity": 100}, {"time": 223560, "pitch": 76, "duration": 80, "velocity": 100}, {"time": 223560, "pitch": 79, "duration": 80, "velocity": 100}, {"time": 223560, "pitch": 84, "duration": 80, "velocity": 100}, {"time": 224160, "pitch": 79, "duration": 340, "velocity": 100}, {"time": 224160, "pitch": 83, "duration": 340, "velocity": 100}, {"time": 224160, "pitch": 86, "duration": 340, "velocity": 100}, {"time": 224520, "pitch": 79, "duration": 80, "velocity": 100}, {"time": 224520, "pitch": 83, "duration": 80, "velocity": 100}, {"time": 224520, "pitch": 86, "duration": 80, "velocity": 100}, {"time": 224880, "pitch": 79, "duration": 80, "velocity": 100}, {"time": 224880, "pitch": 83, "duration": 80, "velocity": 100}, {"time": 224880, "pitch": 86, "duration": 80, "velocity": 100}, {"time": 225120, "pitch": 79, "duration": 340, "velocity": 100}, {"time": 225120, "pitch": 83, "duration": 340, "velocity": 100}, {"time": 225120, "pitch": 86, "duration": 340, "velocity": 100}, {"time": 225600, "pitch": 79, "duration": 340, "velocity": 100}, {"time": 225600, "pitch": 84, "duration": 340, "velocity": 100}, {"time": 225600, "pitch": 88, "duration": 340, "velocity": 100}, {"time": 226080, "pitch": 78, "duration": 340, "velocity": 100}, {"time": 226080, "pitch": 81, "duration": 340, "velocity": 100}, {"time": 226080, "pitch": 86, "duration": 340, "velocity": 100}, {"time": 226440, "pitch": 78, "duration": 80, "velocity": 100}, {"time": 226440, "pitch": 81, "duration": 80, "velocity": 100}, {"time": 226440, "pitch": 86, "duration": 80, "velocity": 100}, {"time": 227021, "pitch": 76, "duration": 339, "velocity": 100}, {"time": 227021, "pitch": 79, "duration": 339, "velocity": 100}, {"time": 227021, "pitch": 84, "duration": 339, "velocity": 100}, {"time": 227380, "pitch": 76, "duration": 80, "velocity": 100}, {"time": 227380, "pitch": 79, "duration": 80, "velocity": 100}, {"time": 227380, "pitch": 84, "duration": 80, "velocity": 100}, {"time": 227980, "pitch": 79, "duration": 354, "velocity": 100}, {"time": 227980, "pitch": 83, "duration": 354, "velocity": 100}, {"time": 227980, "pitch": 86, "duration": 354, "velocity": 100}, {"time": 228355, "pitch": 79, "duration": 83, "velocity": 100}, {"time": 228355, "pitch": 83, "duration": 83, "velocity": 100}, {"time": 228355, "pitch": 86, "duration": 83, "velocity": 100}, {"time": 228960, "pitch": 79, "duration": 340, "velocity": 100}, {"time": 228960, "pitch": 83, "duration": 340, "velocity": 100}, {"time": 228960, "pitch": 86, "duration": 340, "velocity": 100}, {"time": 229440, "pitch": 79, "duration": 340, "velocity": 100}, {"time": 229440, "pitch": 84, "duration": 340, "velocity": 100}, {"time": 229440, "pitch": 88, "duration": 340, "velocity": 100}, {"time": 230400, "pitch": 78, "duration": 160, "velocity": 100}, {"time": 230400, "pitch": 81, "duration": 160, "velocity": 100}, {"time": 230400, "pitch": 86, "duration": 160, "velocity": 100}, {"time": 230880, "pitch": 76, "duration": 340, "velocity": 100}, {"time": 230880, "pitch": 79, "duration": 340, "velocity": 100}, {"time": 230880, "pitch": 84, "duration": 340, "velocity": 100}, {"time": 231240, "pitch": 76, "duration": 80, "velocity": 100}, {"time": 231240, "pitch": 79, "duration": 80, "velocity": 100}, {"time": 231240, "pitch": 84, "duration": 80, "velocity": 100}, {"time": 231840, "pitch": 79, "duration": 333, "velocity": 100}, {"time": 231840, "pitch": 83, "duration": 333, "velocity": 100}, {"time": 231840, "pitch": 86, "duration": 333, "velocity": 100}, {"time": 232193, "pitch": 79, "duration": 78, "velocity": 100}, {"time": 232193, "pitch": 83, "duration": 78, "velocity": 100}, {"time": 232193, "pitch": 86, "duration": 78, "velocity": 100}, {"time": 232546, "pitch": 79, "duration": 78, "velocity": 100}, {"time": 232546, "pitch": 83, "duration": 78, "velocity": 100}, {"time": 232546, "pitch": 86, "duration": 78, "velocity": 100}, {"time": 232781, "pitch": 79, "duration": 334, "velocity": 100}, {"time": 232781, "pitch": 83, "duration": 334, "velocity": 100}, {"time": 232781, "pitch": 86, "duration": 334, "velocity": 100}, {"time": 233252, "pitch": 79, "duration": 333, "velocity": 100}, {"time": 233252, "pitch": 84, "duration": 333, "velocity": 100}, {"time": 233252, "pitch": 88, "duration": 333, "velocity": 100}, {"time": 19200, "pitch": 72, "duration": 120, "velocity": 100}, {"time": 19440, "pitch": 72, "duration": 120, "velocity": 100}, {"time": 19680, "pitch": 72, "duration": 360, "velocity": 100}, {"time": 20040, "pitch": 67, "duration": 120, "velocity": 100}, {"time": 20400, "pitch": 72, "duration": 120, "velocity": 100}, {"time": 20640, "pitch": 74, "duration": 240, "velocity": 100}, {"time": 21000, "pitch": 74, "duration": 120, "velocity": 100}, {"time": 21120, "pitch": 74, "duration": 120, "velocity": 100}, {"time": 21360, "pitch": 72, "duration": 120, "velocity": 100}, {"time": 21600, "pitch": 74, "duration": 360, "velocity": 100}, {"time": 21960, "pitch": 76, "duration": 120, "velocity": 100}, {"time": 23040, "pitch": 72, "duration": 120, "velocity": 100}, {"time": 23280, "pitch": 72, "duration": 120, "velocity": 100}, {"time": 23520, "pitch": 72, "duration": 360, "velocity": 100}, {"time": 23880, "pitch": 76, "duration": 120, "velocity": 100}, {"time": 24240, "pitch": 76, "duration": 120, "velocity": 100}, {"time": 24480, "pitch": 74, "duration": 360, "velocity": 100}, {"time": 24840, "pitch": 76, "duration": 120, "velocity": 100}, {"time": 26880, "pitch": 72, "duration": 120, "velocity": 100}, {"time": 27120, "pitch": 72, "duration": 120, "velocity": 100}, {"time": 27360, "pitch": 72, "duration": 360, "velocity": 100}, {"time": 27720, "pitch": 67, "duration": 120, "velocity": 100}, {"time": 28080, "pitch": 72, "duration": 120, "velocity": 100}, {"time": 28320, "pitch": 74, "duration": 240, "velocity": 100}, {"time": 28680, "pitch": 74, "duration": 120, "velocity": 100}, {"time": 28800, "pitch": 74, "duration": 120, "velocity": 100}, {"time": 29040, "pitch": 72, "duration": 120, "velocity": 100}, {"time": 29280, "pitch": 74, "duration": 360, "velocity": 100}, {"time": 29640, "pitch": 76, "duration": 120, "velocity": 100}, {"time": 30240, "pitch": 79, "duration": 240, "velocity": 100}, {"time": 30480, "pitch": 76, "duration": 120, "velocity": 100}, {"time": 30600, "pitch": 79, "duration": 360, "velocity": 100}, {"time": 30960, "pitch": 76, "duration": 120, "velocity": 100}, {"time": 31080, "pitch": 77, "duration": 360, "velocity": 100}, {"time": 31440, "pitch": 77, "duration": 120, "velocity": 100}, {"time": 31560, "pitch": 77, "duration": 360, "velocity": 100}, {"time": 31920, "pitch": 76, "duration": 240, "velocity": 100}, {"time": 32160, "pitch": 77, "duration": 360, "velocity": 100}, {"time": 32520, "pitch": 76, "duration": 240, "velocity": 100}, {"time": 32880, "pitch": 72, "duration": 240, "velocity": 100}, {"time": 33120, "pitch": 74, "duration": 480, "velocity": 100}, {"time": 34800, "pitch": 77, "duration": 120, "velocity": 100}, {"time": 35040, "pitch": 77, "duration": 240, "velocity": 100}, {"time": 35280, "pitch": 76, "duration": 240, "velocity": 100}, {"time": 35520, "pitch": 74, "duration": 240, "velocity": 100}, {"time": 35760, "pitch": 72, "duration": 240, "velocity": 100}, {"time": 36000, "pitch": 72, "duration": 360, "velocity": 100}, {"time": 36360, "pitch": 74, "duration": 360, "velocity": 100}, {"time": 36720, "pitch": 76, "duration": 480, "velocity": 100}, {"time": 37920, "pitch": 77, "duration": 240, "velocity": 100}, {"time": 38160, "pitch": 77, "duration": 240, "velocity": 100}, {"time": 38400, "pitch": 77, "duration": 240, "velocity": 100}, {"time": 38640, "pitch": 79, "duration": 240, "velocity": 100}, {"time": 38880, "pitch": 76, "duration": 360, "velocity": 100}, {"time": 39240, "pitch": 72, "duration": 360, "velocity": 100}, {"time": 39600, "pitch": 69, "duration": 720, "velocity": 100}, {"time": 42000, "pitch": 74, "duration": 220, "velocity": 100}, {"time": 42240, "pitch": 74, "duration": 220, "velocity": 100}, {"time": 42480, "pitch": 74, "duration": 220, "velocity": 100}, {"time": 42720, "pitch": 74, "duration": 220, "velocity": 100}, {"time": 42960, "pitch": 74, "duration": 220, "velocity": 100}, {"time": 43200, "pitch": 76, "duration": 220, "velocity": 100}, {"time": 43440, "pitch": 77, "duration": 220, "velocity": 100}, {"time": 43680, "pitch": 79, "duration": 360, "velocity": 100}, {"time": 44040, "pitch": 76, "duration": 360, "velocity": 100}, {"time": 44400, "pitch": 72, "duration": 220, "velocity": 100}, {"time": 44640, "pitch": 72, "duration": 480, "velocity": 100}, {"time": 45360, "pitch": 72, "duration": 220, "velocity": 100}, {"time": 45600, "pitch": 72, "duration": 220, "velocity": 100}, {"time": 45840, "pitch": 72, "duration": 100, "velocity": 100}, {"time": 45960, "pitch": 72, "duration": 360, "velocity": 100}, {"time": 46320, "pitch": 74, "duration": 480, "velocity": 100}, {"time": 46800, "pitch": 76, "duration": 240, "velocity": 100}, {"time": 47280, "pitch": 76, "duration": 240, "velocity": 100}, {"time": 47520, "pitch": 77, "duration": 360, "velocity": 100}, {"time": 47880, "pitch": 77, "duration": 120, "velocity": 100}, {"time": 48240, "pitch": 79, "duration": 460, "velocity": 100}, {"time": 48720, "pitch": 79, "duration": 220, "velocity": 100}, {"time": 48960, "pitch": 79, "duration": 220, "velocity": 100}, {"time": 49200, "pitch": 79, "duration": 220, "velocity": 100}, {"time": 49440, "pitch": 79, "duration": 360, "velocity": 100}, {"time": 49800, "pitch": 72, "duration": 240, "velocity": 100}, {"time": 50160, "pitch": 72, "duration": 240, "velocity": 100}, {"time": 50880, "pitch": 79, "duration": 240, "velocity": 100}, {"time": 51120, "pitch": 79, "duration": 240, "velocity": 100}, {"time": 51360, "pitch": 79, "duration": 360, "velocity": 100}, {"time": 51720, "pitch": 71, "duration": 240, "velocity": 100}, {"time": 52080, "pitch": 71, "duration": 480, "velocity": 100}, {"time": 52560, "pitch": 74, "duration": 240, "velocity": 100}, {"time": 53520, "pitch": 79, "duration": 240, "velocity": 100}, {"time": 53760, "pitch": 79, "duration": 240, "velocity": 100}, {"time": 54000, "pitch": 79, "duration": 240, "velocity": 100}, {"time": 54240, "pitch": 79, "duration": 240, "velocity": 100}, {"time": 54480, "pitch": 72, "duration": 240, "velocity": 100}, {"time": 54720, "pitch": 72, "duration": 240, "velocity": 100}, {"time": 54960, "pitch": 76, "duration": 240, "velocity": 100}, {"time": 55200, "pitch": 79, "duration": 360, "velocity": 100}, {"time": 55560, "pitch": 77, "duration": 360, "velocity": 100}, {"time": 55920, "pitch": 76, "duration": 240, "velocity": 100}, {"time": 56160, "pitch": 74, "duration": 360, "velocity": 100}, {"time": 56520, "pitch": 72, "duration": 360, "velocity": 100}, {"time": 56880, "pitch": 71, "duration": 240, "velocity": 100}, {"time": 57120, "pitch": 79, "duration": 360, "velocity": 100}, {"time": 57480, "pitch": 72, "duration": 240, "velocity": 100}, {"time": 57840, "pitch": 72, "duration": 240, "velocity": 100}, {"time": 58560, "pitch": 79, "duration": 240, "velocity": 100}, {"time": 58800, "pitch": 79, "duration": 240, "velocity": 100}, {"time": 59040, "pitch": 79, "duration": 360, "velocity": 100}, {"time": 59400, "pitch": 71, "duration": 240, "velocity": 100}, {"time": 59760, "pitch": 71, "duration": 480, "velocity": 100}, {"time": 60240, "pitch": 74, "duration": 240, "velocity": 100}, {"time": 61200, "pitch": 77, "duration": 240, "velocity": 100}, {"time": 61440, "pitch": 77, "duration": 240, "velocity": 100}, {"time": 61680, "pitch": 77, "duration": 240, "velocity": 100}, {"time": 61920, "pitch": 77, "duration": 240, "velocity": 100}, {"time": 62160, "pitch": 76, "duration": 240, "velocity": 100}, {"time": 62400, "pitch": 74, "duration": 240, "velocity": 100}, {"time": 62640, "pitch": 72, "duration": 240, "velocity": 100}, {"time": 62880, "pitch": 74, "duration": 360, "velocity": 100}, {"time": 63240, "pitch": 76, "duration": 360, "velocity": 100}, {"time": 63600, "pitch": 77, "duration": 240, "velocity": 100}, {"time": 63840, "pitch": 74, "duration": 240, "velocity": 100}, {"time": 64080, "pitch": 72, "duration": 120, "velocity": 100}, {"time": 64200, "pitch": 74, "duration": 240, "velocity": 100}, {"time": 64440, "pitch": 69, "duration": 360, "velocity": 100}, {"time": 65280, "pitch": 69, "duration": 480, "velocity": 100}, {"time": 65760, "pitch": 76, "duration": 240, "velocity": 100}, {"time": 66000, "pitch": 69, "duration": 240, "velocity": 100}, {"time": 66240, "pitch": 72, "duration": 240, "velocity": 100}, {"time": 66480, "pitch": 72, "duration": 240, "velocity": 100}, {"time": 74880, "pitch": 72, "duration": 120, "velocity": 100}, {"time": 75120, "pitch": 72, "duration": 120, "velocity": 100}, {"time": 75360, "pitch": 72, "duration": 360, "velocity": 100}, {"time": 75720, "pitch": 67, "duration": 120, "velocity": 100}, {"time": 76080, "pitch": 72, "duration": 120, "velocity": 100}, {"time": 76320, "pitch": 74, "duration": 240, "velocity": 100}, {"time": 76680, "pitch": 74, "duration": 120, "velocity": 100}, {"time": 76800, "pitch": 74, "duration": 120, "velocity": 100}, {"time": 77040, "pitch": 72, "duration": 120, "velocity": 100}, {"time": 77280, "pitch": 74, "duration": 360, "velocity": 100}, {"time": 77640, "pitch": 76, "duration": 120, "velocity": 100}, {"time": 78720, "pitch": 72, "duration": 120, "velocity": 100}, {"time": 78960, "pitch": 72, "duration": 120, "velocity": 100}, {"time": 79200, "pitch": 72, "duration": 360, "velocity": 100}, {"time": 79560, "pitch": 76, "duration": 120, "velocity": 100}, {"time": 79920, "pitch": 76, "duration": 120, "velocity": 100}, {"time": 80160, "pitch": 74, "duration": 360, "velocity": 100}, {"time": 80520, "pitch": 76, "duration": 120, "velocity": 100}, {"time": 82560, "pitch": 72, "duration": 120, "velocity": 100}, {"time": 82800, "pitch": 72, "duration": 120, "velocity": 100}, {"time": 83040, "pitch": 72, "duration": 360, "velocity": 100}, {"time": 83400, "pitch": 67, "duration": 120, "velocity": 100}, {"time": 83760, "pitch": 72, "duration": 120, "velocity": 100}, {"time": 84000, "pitch": 74, "duration": 240, "velocity": 100}, {"time": 84360, "pitch": 74, "duration": 120, "velocity": 100}, {"time": 84480, "pitch": 74, "duration": 120, "velocity": 100}, {"time": 84720, "pitch": 72, "duration": 120, "velocity": 100}, {"time": 84960, "pitch": 74, "duration": 360, "velocity": 100}, {"time": 85320, "pitch": 76, "duration": 120, "velocity": 100}, {"time": 85920, "pitch": 79, "duration": 240, "velocity": 100}, {"time": 86160, "pitch": 79, "duration": 120, "velocity": 100}, {"time": 86400, "pitch": 79, "duration": 240, "velocity": 100}, {"time": 86640, "pitch": 76, "duration": 240, "velocity": 100}, {"time": 86880, "pitch": 77, "duration": 240, "velocity": 100}, {"time": 87120, "pitch": 76, "duration": 240, "velocity": 100}, {"time": 87360, "pitch": 77, "duration": 240, "velocity": 100}, {"time": 87600, "pitch": 76, "duration": 240, "velocity": 100}, {"time": 87840, "pitch": 77, "duration": 360, "velocity": 100}, {"time": 88200, "pitch": 76, "duration": 240, "velocity": 100}, {"time": 88560, "pitch": 72, "duration": 240, "velocity": 100}, {"time": 88800, "pitch": 74, "duration": 480, "velocity": 100}, {"time": 90480, "pitch": 77, "duration": 120, "velocity": 100}, {"time": 90720, "pitch": 77, "duration": 240, "velocity": 100}, {"time": 90960, "pitch": 76, "duration": 240, "velocity": 100}, {"time": 91200, "pitch": 74, "duration": 240, "velocity": 100}, {"time": 91440, "pitch": 72, "duration": 240, "velocity": 100}, {"time": 91680, "pitch": 72, "duration": 360, "velocity": 100}, {"time": 92040, "pitch": 74, "duration": 360, "velocity": 100}, {"time": 92400, "pitch": 76, "duration": 480, "velocity": 100}, {"time": 93600, "pitch": 77, "duration": 240, "velocity": 100}, {"time": 93840, "pitch": 77, "duration": 240, "velocity": 100}, {"time": 94080, "pitch": 77, "duration": 240, "velocity": 100}, {"time": 94320, "pitch": 79, "duration": 240, "velocity": 100}, {"time": 94560, "pitch": 76, "duration": 360, "velocity": 100}, {"time": 94920, "pitch": 72, "duration": 360, "velocity": 100}, {"time": 95280, "pitch": 69, "duration": 720, "velocity": 100}, {"time": 97680, "pitch": 74, "duration": 220, "velocity": 100}, {"time": 97920, "pitch": 74, "duration": 220, "velocity": 100}, {"time": 98160, "pitch": 74, "duration": 220, "velocity": 100}, {"time": 98400, "pitch": 74, "duration": 220, "velocity": 100}, {"time": 98640, "pitch": 74, "duration": 220, "velocity": 100}, {"time": 98880, "pitch": 76, "duration": 220, "velocity": 100}, {"time": 99120, "pitch": 77, "duration": 220, "velocity": 100}, {"time": 99360, "pitch": 79, "duration": 360, "velocity": 100}, {"time": 99720, "pitch": 76, "duration": 360, "velocity": 100}, {"time": 100080, "pitch": 72, "duration": 220, "velocity": 100}, {"time": 100320, "pitch": 72, "duration": 480, "velocity": 100}, {"time": 101040, "pitch": 72, "duration": 220, "velocity": 100}, {"time": 101280, "pitch": 72, "duration": 220, "velocity": 100}, {"time": 101520, "pitch": 72, "duration": 100, "velocity": 100}, {"time": 101640, "pitch": 72, "duration": 360, "velocity": 100}, {"time": 102000, "pitch": 74, "duration": 480, "velocity": 100}, {"time": 102480, "pitch": 76, "duration": 240, "velocity": 100}, {"time": 102960, "pitch": 76, "duration": 240, "velocity": 100}, {"time": 103200, "pitch": 77, "duration": 360, "velocity": 100}, {"time": 103560, "pitch": 77, "duration": 120, "velocity": 100}, {"time": 103920, "pitch": 79, "duration": 460, "velocity": 100}, {"time": 104400, "pitch": 79, "duration": 220, "velocity": 100}, {"time": 104640, "pitch": 79, "duration": 220, "velocity": 100}, {"time": 104880, "pitch": 79, "duration": 220, "velocity": 100}, {"time": 105120, "pitch": 79, "duration": 360, "velocity": 100}, {"time": 105480, "pitch": 72, "duration": 240, "velocity": 100}, {"time": 105840, "pitch": 72, "duration": 240, "velocity": 100}, {"time": 106560, "pitch": 79, "duration": 240, "velocity": 100}, {"time": 106800, "pitch": 79, "duration": 240, "velocity": 100}, {"time": 107040, "pitch": 79, "duration": 360, "velocity": 100}, {"time": 107400, "pitch": 71, "duration": 240, "velocity": 100}, {"time": 107760, "pitch": 71, "duration": 480, "velocity": 100}, {"time": 108240, "pitch": 74, "duration": 240, "velocity": 100}, {"time": 109200, "pitch": 79, "duration": 240, "velocity": 100}, {"time": 109440, "pitch": 79, "duration": 240, "velocity": 100}, {"time": 109680, "pitch": 79, "duration": 240, "velocity": 100}, {"time": 109920, "pitch": 79, "duration": 240, "velocity": 100}, {"time": 110160, "pitch": 72, "duration": 240, "velocity": 100}, {"time": 110400, "pitch": 72, "duration": 240, "velocity": 100}, {"time": 110640, "pitch": 76, "duration": 240, "velocity": 100}, {"time": 110880, "pitch": 79, "duration": 360, "velocity": 100}, {"time": 111240, "pitch": 77, "duration": 360, "velocity": 100}, {"time": 111600, "pitch": 76, "duration": 240, "velocity": 100}, {"time": 111840, "pitch": 74, "duration": 360, "velocity": 100}, {"time": 112200, "pitch": 72, "duration": 360, "velocity": 100}, {"time": 112560, "pitch": 71, "duration": 240, "velocity": 100}, {"time": 112800, "pitch": 79, "duration": 360, "velocity": 100}, {"time": 113160, "pitch": 72, "duration": 240, "velocity": 100}, {"time": 113520, "pitch": 72, "duration": 240, "velocity": 100}, {"time": 114240, "pitch": 79, "duration": 240, "velocity": 100}, {"time": 114480, "pitch": 79, "duration": 240, "velocity": 100}, {"time": 114720, "pitch": 79, "duration": 360, "velocity": 100}, {"time": 115080, "pitch": 71, "duration": 240, "velocity": 100}, {"time": 115440, "pitch": 71, "duration": 480, "velocity": 100}, {"time": 115920, "pitch": 74, "duration": 240, "velocity": 100}, {"time": 116880, "pitch": 77, "duration": 240, "velocity": 100}, {"time": 117120, "pitch": 77, "duration": 240, "velocity": 100}, {"time": 117360, "pitch": 77, "duration": 240, "velocity": 100}, {"time": 117600, "pitch": 77, "duration": 240, "velocity": 100}, {"time": 117840, "pitch": 76, "duration": 240, "velocity": 100}, {"time": 118080, "pitch": 74, "duration": 240, "velocity": 100}, {"time": 118320, "pitch": 72, "duration": 240, "velocity": 100}, {"time": 118560, "pitch": 74, "duration": 360, "velocity": 100}, {"time": 118920, "pitch": 76, "duration": 360, "velocity": 100}, {"time": 119280, "pitch": 77, "duration": 240, "velocity": 100}, {"time": 119520, "pitch": 74, "duration": 240, "velocity": 100}, {"time": 119760, "pitch": 72, "duration": 120, "velocity": 100}, {"time": 119880, "pitch": 74, "duration": 240, "velocity": 100}, {"time": 120120, "pitch": 69, "duration": 360, "velocity": 100}, {"time": 120960, "pitch": 69, "duration": 480, "velocity": 100}, {"time": 121440, "pitch": 76, "duration": 240, "velocity": 100}, {"time": 121680, "pitch": 69, "duration": 240, "velocity": 100}, {"time": 121920, "pitch": 72, "duration": 240, "velocity": 100}, {"time": 122160, "pitch": 72, "duration": 240, "velocity": 100}, {"time": 122400, "pitch": 74, "duration": 1920, "velocity": 100}, {"time": 124320, "pitch": 72, "duration": 480, "velocity": 100}, {"time": 125040, "pitch": 72, "duration": 240, "velocity": 100}, {"time": 125280, "pitch": 76, "duration": 240, "velocity": 100}, {"time": 125520, "pitch": 69, "duration": 240, "velocity": 100}, {"time": 125760, "pitch": 72, "duration": 240, "velocity": 100}, {"time": 126000, "pitch": 72, "duration": 240, "velocity": 100}, {"time": 129120, "pitch": 76, "duration": 240, "velocity": 100}, {"time": 129360, "pitch": 69, "duration": 240, "velocity": 100}, {"time": 129600, "pitch": 72, "duration": 240, "velocity": 100}, {"time": 129840, "pitch": 72, "duration": 240, "velocity": 100}, {"time": 130080, "pitch": 74, "duration": 1920, "velocity": 100}, {"time": 132000, "pitch": 72, "duration": 480, "velocity": 100}, {"time": 132960, "pitch": 79, "duration": 240, "velocity": 100}, {"time": 133200, "pitch": 79, "duration": 240, "velocity": 100}, {"time": 133440, "pitch": 76, "duration": 240, "velocity": 100}, {"time": 133680, "pitch": 79, "duration": 240, "velocity": 100}, {"time": 133920, "pitch": 76, "duration": 240, "velocity": 100}, {"time": 134160, "pitch": 74, "duration": 720, "velocity": 100}, {"time": 136080, "pitch": 81, "duration": 240, "velocity": 100}, {"time": 136320, "pitch": 76, "duration": 240, "velocity": 100}, {"time": 136560, "pitch": 79, "duration": 480, "velocity": 100}, {"time": 137040, "pitch": 81, "duration": 720, "velocity": 100}, {"time": 153840, "pitch": 77, "duration": 120, "velocity": 100}, {"time": 154080, "pitch": 77, "duration": 240, "velocity": 100}, {"time": 154320, "pitch": 76, "duration": 240, "velocity": 100}, {"time": 154560, "pitch": 74, "duration": 240, "velocity": 100}, {"time": 154800, "pitch": 72, "duration": 240, "velocity": 100}, {"time": 155040, "pitch": 79, "duration": 360, "velocity": 100}, {"time": 155400, "pitch": 81, "duration": 360, "velocity": 100}, {"time": 155760, "pitch": 76, "duration": 480, "velocity": 100}, {"time": 156960, "pitch": 77, "duration": 240, "velocity": 100}, {"time": 157200, "pitch": 77, "duration": 240, "velocity": 100}, {"time": 157440, "pitch": 77, "duration": 240, "velocity": 100}, {"time": 157680, "pitch": 79, "duration": 240, "velocity": 100}, {"time": 157920, "pitch": 76, "duration": 360, "velocity": 100}, {"time": 158280, "pitch": 72, "duration": 360, "velocity": 100}, {"time": 158640, "pitch": 69, "duration": 720, "velocity": 100}, {"time": 161040, "pitch": 74, "duration": 220, "velocity": 100}, {"time": 161280, "pitch": 74, "duration": 220, "velocity": 100}, {"time": 161520, "pitch": 74, "duration": 220, "velocity": 100}, {"time": 161760, "pitch": 74, "duration": 220, "velocity": 100}, {"time": 162000, "pitch": 74, "duration": 220, "velocity": 100}, {"time": 162240, "pitch": 76, "duration": 220, "velocity": 100}, {"time": 162480, "pitch": 77, "duration": 220, "velocity": 100}, {"time": 162720, "pitch": 79, "duration": 720, "velocity": 100}, {"time": 163440, "pitch": 72, "duration": 220, "velocity": 100}, {"time": 163680, "pitch": 72, "duration": 480, "velocity": 100}, {"time": 164400, "pitch": 72, "duration": 220, "velocity": 100}, {"time": 164640, "pitch": 72, "duration": 220, "velocity": 100}, {"time": 164880, "pitch": 72, "duration": 100, "velocity": 100}, {"time": 165000, "pitch": 72, "duration": 360, "velocity": 100}, {"time": 165360, "pitch": 74, "duration": 480, "velocity": 100}, {"time": 165840, "pitch": 76, "duration": 240, "velocity": 100}, {"time": 166320, "pitch": 76, "duration": 240, "velocity": 100}, {"time": 166560, "pitch": 77, "duration": 360, "velocity": 100}, {"time": 166920, "pitch": 77, "duration": 120, "velocity": 100}, {"time": 167280, "pitch": 79, "duration": 220, "velocity": 100}, {"time": 167520, "pitch": 79, "duration": 1920, "velocity": 100}, {"time": 169680, "pitch": 81, "duration": 220, "velocity": 100}, {"time": 169920, "pitch": 81, "duration": 220, "velocity": 100}, {"time": 170160, "pitch": 81, "duration": 220, "velocity": 100}, {"time": 170400, "pitch": 81, "duration": 360, "velocity": 100}, {"time": 170760, "pitch": 74, "duration": 240, "velocity": 100}, {"time": 171120, "pitch": 74, "duration": 240, "velocity": 100}, {"time": 171840, "pitch": 81, "duration": 240, "velocity": 100}, {"time": 172080, "pitch": 81, "duration": 240, "velocity": 100}, {"time": 172320, "pitch": 81, "duration": 360, "velocity": 100}, {"time": 172680, "pitch": 73, "duration": 240, "velocity": 100}, {"time": 173040, "pitch": 73, "duration": 480, "velocity": 100}, {"time": 173520, "pitch": 76, "duration": 240, "velocity": 100}, {"time": 174480, "pitch": 81, "duration": 240, "velocity": 100}, {"time": 174720, "pitch": 81, "duration": 240, "velocity": 100}, {"time": 174960, "pitch": 81, "duration": 240, "velocity": 100}, {"time": 175200, "pitch": 81, "duration": 240, "velocity": 100}, {"time": 175440, "pitch": 74, "duration": 240, "velocity": 100}, {"time": 175680, "pitch": 74, "duration": 240, "velocity": 100}, {"time": 175920, "pitch": 78, "duration": 240, "velocity": 100}, {"time": 176160, "pitch": 81, "duration": 360, "velocity": 100}, {"time": 176520, "pitch": 79, "duration": 360, "velocity": 100}, {"time": 176880, "pitch": 78, "duration": 240, "velocity": 100}, {"time": 177120, "pitch": 76, "duration": 360, "velocity": 100}, {"time": 177480, "pitch": 74, "duration": 360, "velocity": 100}, {"time": 177840, "pitch": 73, "duration": 240, "velocity": 100}, {"time": 178080, "pitch": 81, "duration": 360, "velocity": 100}, {"time": 178440, "pitch": 74, "duration": 240, "velocity": 100}, {"time": 178800, "pitch": 74, "duration": 240, "velocity": 100}, {"time": 179520, "pitch": 81, "duration": 240, "velocity": 100}, {"time": 179760, "pitch": 81, "duration": 240, "velocity": 100}, {"time": 180000, "pitch": 81, "duration": 360, "velocity": 100}, {"time": 180360, "pitch": 73, "duration": 240, "velocity": 100}, {"time": 180720, "pitch": 73, "duration": 480, "velocity": 100}, {"time": 181200, "pitch": 76, "duration": 240, "velocity": 100}, {"time": 182160, "pitch": 81, "duration": 240, "velocity": 100}, {"time": 182400, "pitch": 81, "duration": 240, "velocity": 100}, {"time": 182640, "pitch": 81, "duration": 240, "velocity": 100}, {"time": 182880, "pitch": 81, "duration": 240, "velocity": 100}, {"time": 183120, "pitch": 78, "duration": 240, "velocity": 100}, {"time": 183360, "pitch": 81, "duration": 240, "velocity": 100}, {"time": 183600, "pitch": 78, "duration": 240, "velocity": 100}, {"time": 183840, "pitch": 83, "duration": 360, "velocity": 100}, {"time": 184200, "pitch": 81, "duration": 360, "velocity": 100}, {"time": 184560, "pitch": 81, "duration": 460, "velocity": 100}, {"time": 185040, "pitch": 81, "duration": 220, "velocity": 100}, {"time": 185280, "pitch": 81, "duration": 220, "velocity": 100}, {"time": 185520, "pitch": 81, "duration": 220, "velocity": 100}, {"time": 185760, "pitch": 81, "duration": 360, "velocity": 100}, {"time": 186120, "pitch": 74, "duration": 240, "velocity": 100}, {"time": 186480, "pitch": 74, "duration": 240, "velocity": 100}, {"time": 187200, "pitch": 81, "duration": 240, "velocity": 100}, {"time": 187440, "pitch": 81, "duration": 240, "velocity": 100}, {"time": 187680, "pitch": 81, "duration": 360, "velocity": 100}, {"time": 188040, "pitch": 73, "duration": 240, "velocity": 100}, {"time": 188400, "pitch": 73, "duration": 480, "velocity": 100}, {"time": 188880, "pitch": 76, "duration": 240, "velocity": 100}, {"time": 189840, "pitch": 81, "duration": 240, "velocity": 100}, {"time": 190080, "pitch": 81, "duration": 240, "velocity": 100}, {"time": 190320, "pitch": 81, "duration": 240, "velocity": 100}, {"time": 190560, "pitch": 81, "duration": 240, "velocity": 100}, {"time": 190800, "pitch": 74, "duration": 240, "velocity": 100}, {"time": 191040, "pitch": 74, "duration": 240, "velocity": 100}, {"time": 191280, "pitch": 78, "duration": 240, "velocity": 100}, {"time": 191520, "pitch": 81, "duration": 360, "velocity": 100}, {"time": 191880, "pitch": 79, "duration": 360, "velocity": 100}, {"time": 192240, "pitch": 78, "duration": 240, "velocity": 100}, {"time": 192480, "pitch": 76, "duration": 360, "velocity": 100}, {"time": 192840, "pitch": 74, "duration": 360, "velocity": 100}, {"time": 193200, "pitch": 73, "duration": 240, "velocity": 100}, {"time": 193440, "pitch": 81, "duration": 360, "velocity": 100}, {"time": 193800, "pitch": 74, "duration": 240, "velocity": 100}, {"time": 194160, "pitch": 74, "duration": 240, "velocity": 100}, {"time": 194880, "pitch": 81, "duration": 240, "velocity": 100}, {"time": 195120, "pitch": 81, "duration": 240, "velocity": 100}, {"time": 195360, "pitch": 81, "duration": 360, "velocity": 100}, {"time": 195720, "pitch": 73, "duration": 240, "velocity": 100}, {"time": 196080, "pitch": 73, "duration": 480, "velocity": 100}, {"time": 196560, "pitch": 76, "duration": 240, "velocity": 100}, {"time": 197520, "pitch": 79, "duration": 240, "velocity": 100}, {"time": 197760, "pitch": 79, "duration": 240, "velocity": 100}, {"time": 198000, "pitch": 79, "duration": 240, "velocity": 100}, {"time": 198240, "pitch": 79, "duration": 240, "velocity": 100}, {"time": 198480, "pitch": 78, "duration": 240, "velocity": 100}, {"time": 198720, "pitch": 76, "duration": 240, "velocity": 100}, {"time": 198960, "pitch": 74, "duration": 240, "velocity": 100}, {"time": 199200, "pitch": 74, "duration": 360, "velocity": 100}, {"time": 199560, "pitch": 76, "duration": 360, "velocity": 100}, {"time": 199920, "pitch": 78, "duration": 240, "velocity": 100}, {"time": 200160, "pitch": 71, "duration": 960, "velocity": 100}, {"time": 201600, "pitch": 69, "duration": 480, "velocity": 100}, {"time": 202080, "pitch": 78, "duration": 240, "velocity": 100}, {"time": 202320, "pitch": 69, "duration": 240, "velocity": 100}, {"time": 202560, "pitch": 74, "duration": 240, "velocity": 100}, {"time": 202800, "pitch": 74, "duration": 240, "velocity": 100}, {"time": 204000, "pitch": 81, "duration": 240, "velocity": 100}, {"time": 204240, "pitch": 81, "duration": 240, "velocity": 100}, {"time": 204480, "pitch": 78, "duration": 240, "velocity": 100}, {"time": 204720, "pitch": 81, "duration": 480, "velocity": 100}, {"time": 205200, "pitch": 78, "duration": 240, "velocity": 100}, {"time": 2400, "pitch": 43, "duration": 370, "velocity": 105}, {"time": 2410, "pitch": 48, "duration": 350, "velocity": 110}, {"time": 2760, "pitch": 48, "duration": 90, "velocity": 110}, {"time": 2770, "pitch": 43, "duration": 80, "velocity": 105}, {"time": 3360, "pitch": 41, "duration": 370, "velocity": 105}, {"time": 3370, "pitch": 46, "duration": 350, "velocity": 110}, {"time": 3720, "pitch": 46, "duration": 90, "velocity": 110}, {"time": 3730, "pitch": 41, "duration": 80, "velocity": 105}, {"time": 4320, "pitch": 41, "duration": 370, "velocity": 105}, {"time": 4330, "pitch": 48, "duration": 350, "velocity": 110}, {"time": 4680, "pitch": 48, "duration": 90, "velocity": 110}, {"time": 4690, "pitch": 41, "duration": 80, "velocity": 105}, {"time": 5280, "pitch": 41, "duration": 240, "velocity": 105}, {"time": 5290, "pitch": 48, "duration": 230, "velocity": 110}, {"time": 5760, "pitch": 41, "duration": 460, "velocity": 105}, {"time": 5770, "pitch": 46, "duration": 450, "velocity": 110}, {"time": 6720, "pitch": 43, "duration": 200, "velocity": 105}, {"time": 6730, "pitch": 48, "duration": 190, "velocity": 110}, {"time": 7200, "pitch": 41, "duration": 370, "velocity": 105}, {"time": 7210, "pitch": 46, "duration": 350, "velocity": 110}, {"time": 7560, "pitch": 46, "duration": 90, "velocity": 110}, {"time": 7570, "pitch": 41, "duration": 80, "velocity": 105}, {"time": 8160, "pitch": 41, "duration": 370, "velocity": 105}, {"time": 8170, "pitch": 48, "duration": 350, "velocity": 110}, {"time": 8520, "pitch": 48, "duration": 370, "velocity": 110}, {"time": 8530, "pitch": 41, "duration": 350, "velocity": 105}, {"time": 8880, "pitch": 41, "duration": 240, "velocity": 105}, {"time": 8890, "pitch": 48, "duration": 230, "velocity": 110}, {"time": 9120, "pitch": 41, "duration": 480, "velocity": 105}, {"time": 9130, "pitch": 48, "duration": 480, "velocity": 110}, {"time": 9600, "pitch": 43, "duration": 460, "velocity": 105}, {"time": 9610, "pitch": 50, "duration": 450, "velocity": 110}, {"time": 10080, "pitch": 43, "duration": 370, "velocity": 105}, {"time": 10090, "pitch": 48, "duration": 350, "velocity": 110}, {"time": 10440, "pitch": 48, "duration": 90, "velocity": 110}, {"time": 10450, "pitch": 43, "duration": 80, "velocity": 105}, {"time": 11040, "pitch": 41, "duration": 370, "velocity": 105}, {"time": 11050, "pitch": 46, "duration": 350, "velocity": 110}, {"time": 11400, "pitch": 46, "duration": 90, "velocity": 110}, {"time": 11410, "pitch": 41, "duration": 80, "velocity": 105}, {"time": 12000, "pitch": 41, "duration": 370, "velocity": 105}, {"time": 12010, "pitch": 48, "duration": 350, "velocity": 110}, {"time": 12360, "pitch": 48, "duration": 90, "velocity": 110}, {"time": 12370, "pitch": 41, "duration": 80, "velocity": 105}, {"time": 12960, "pitch": 41, "duration": 240, "velocity": 105}, {"time": 12970, "pitch": 48, "duration": 230, "velocity": 110}, {"time": 13440, "pitch": 41, "duration": 460, "velocity": 105}, {"time": 13450, "pitch": 46, "duration": 450, "velocity": 110}, {"time": 13920, "pitch": 46, "duration": 370, "velocity": 105}, {"time": 13930, "pitch": 53, "duration": 350, "velocity": 110}, {"time": 14280, "pitch": 52, "duration": 370, "velocity": 110}, {"time": 14290, "pitch": 45, "duration": 350, "velocity": 105}, {"time": 14640, "pitch": 43, "duration": 1180, "velocity": 105}, {"time": 14650, "pitch": 50, "duration": 1170, "velocity": 110}, {"time": 15840, "pitch": 40, "duration": 370, "velocity": 105}, {"time": 15850, "pitch": 47, "duration": 350, "velocity": 110}, {"time": 16200, "pitch": 48, "duration": 370, "velocity": 110}, {"time": 16210, "pitch": 41, "duration": 350, "velocity": 105}, {"time": 16560, "pitch": 43, "duration": 2140, "velocity": 105}, {"time": 16570, "pitch": 50, "duration": 2130, "velocity": 110}, {"time": 34080, "pitch": 46, "duration": 1900, "velocity": 105}, {"time": 34090, "pitch": 53, "duration": 1890, "velocity": 110}, {"time": 36000, "pitch": 45, "duration": 1900, "velocity": 105}, {"time": 36010, "pitch": 52, "duration": 1890, "velocity": 110}, {"time": 37920, "pitch": 45, "duration": 700, "velocity": 105}, {"time": 37930, "pitch": 50, "duration": 690, "velocity": 110}, {"time": 38640, "pitch": 52, "duration": 700, "velocity": 105}, {"time": 38650, "pitch": 48, "duration": 690, "velocity": 110}, {"time": 39360, "pitch": 48, "duration": 1900, "velocity": 105}, {"time": 39370, "pitch": 53, "duration": 1890, "velocity": 110}, {"time": 41520, "pitch": 53, "duration": 120, "velocity": 110}, {"time": 41640, "pitch": 52, "duration": 120, "velocity": 110}, {"time": 41760, "pitch": 45, "duration": 1900, "velocity": 105}, {"time": 41770, "pitch": 50, "duration": 1890, "velocity": 110}, {"time": 43680, "pitch": 48, "duration": 1900, "velocity": 105}, {"time": 43690, "pitch": 52, "duration": 1890, "velocity": 110}, {"time": 45600, "pitch": 48, "duration": 700, "velocity": 105}, {"time": 45610, "pitch": 53, "duration": 690, "velocity": 110}, {"time": 46320, "pitch": 55, "duration": 1180, "velocity": 105}, {"time": 46330, "pitch": 50, "duration": 1170, "velocity": 110}, {"time": 47520, "pitch": 53, "duration": 700, "velocity": 105}, {"time": 47530, "pitch": 57, "duration": 690, "velocity": 110}, {"time": 48240, "pitch": 59, "duration": 1180, "velocity": 105}, {"time": 48250, "pitch": 55, "duration": 1170, "velocity": 110}, {"time": 49440, "pitch": 43, "duration": 370, "velocity": 105}, {"time": 49450, "pitch": 48, "duration": 350, "velocity": 110}, {"time": 49800, "pitch": 48, "duration": 370, "velocity": 100}, {"time": 49810, "pitch": 43, "duration": 350, "velocity": 105}, {"time": 50160, "pitch": 43, "duration": 1180, "velocity": 105}, {"time": 50170, "pitch": 48, "duration": 1170, "velocity": 110}, {"time": 51360, "pitch": 43, "duration": 370, "velocity": 105}, {"time": 51370, "pitch": 50, "duration": 350, "velocity": 110}, {"time": 51720, "pitch": 50, "duration": 370, "velocity": 100}, {"time": 51730, "pitch": 43, "duration": 350, "velocity": 105}, {"time": 52080, "pitch": 43, "duration": 1180, "velocity": 105}, {"time": 52090, "pitch": 50, "duration": 1170, "velocity": 110}, {"time": 53280, "pitch": 45, "duration": 370, "velocity": 105}, {"time": 53290, "pitch": 52, "duration": 350, "velocity": 110}, {"time": 53640, "pitch": 52, "duration": 370, "velocity": 100}, {"time": 53650, "pitch": 45, "duration": 350, "velocity": 105}, {"time": 54000, "pitch": 45, "duration": 1180, "velocity": 105}, {"time": 54010, "pitch": 52, "duration": 1170, "velocity": 110}, {"time": 55200, "pitch": 41, "duration": 370, "velocity": 105}, {"time": 55210, "pitch": 48, "duration": 350, "velocity": 110}, {"time": 55560, "pitch": 48, "duration": 370, "velocity": 100}, {"time": 55570, "pitch": 41, "duration": 350, "velocity": 105}, {"time": 55920, "pitch": 41, "duration": 240, "velocity": 105}, {"time": 55930, "pitch": 48, "duration": 230, "velocity": 110}, {"time": 56160, "pitch": 43, "duration": 940, "velocity": 105}, {"time": 56170, "pitch": 50, "duration": 930, "velocity": 110}, {"time": 57120, "pitch": 43, "duration": 370, "velocity": 105}, {"time": 57130, "pitch": 48, "duration": 350, "velocity": 110}, {"time": 57480, "pitch": 48, "duration": 370, "velocity": 100}, {"time": 57490, "pitch": 43, "duration": 350, "velocity": 105}, {"time": 57840, "pitch": 43, "duration": 1180, "velocity": 105}, {"time": 57850, "pitch": 48, "duration": 1170, "velocity": 110}, {"time": 59040, "pitch": 43, "duration": 370, "velocity": 105}, {"time": 59050, "pitch": 50, "duration": 350, "velocity": 110}, {"time": 59400, "pitch": 50, "duration": 370, "velocity": 100}, {"time": 59410, "pitch": 43, "duration": 350, "velocity": 105}, {"time": 59760, "pitch": 43, "duration": 1180, "velocity": 105}, {"time": 59770, "pitch": 50, "duration": 1170, "velocity": 110}, {"time": 60960, "pitch": 45, "duration": 370, "velocity": 105}, {"time": 60970, "pitch": 50, "duration": 350, "velocity": 110}, {"time": 61320, "pitch": 50, "duration": 370, "velocity": 100}, {"time": 61330, "pitch": 45, "duration": 350, "velocity": 105}, {"time": 61680, "pitch": 45, "duration": 1180, "velocity": 105}, {"time": 61690, "pitch": 50, "duration": 1170, "velocity": 110}, {"time": 62880, "pitch": 45, "duration": 370, "velocity": 105}, {"time": 62890, "pitch": 50, "duration": 350, "velocity": 110}, {"time": 63240, "pitch": 52, "duration": 370, "velocity": 100}, {"time": 63250, "pitch": 48, "duration": 350, "velocity": 105}, {"time": 63600, "pitch": 45, "duration": 3100, "velocity": 105}, {"time": 63610, "pitch": 53, "duration": 3090, "velocity": 110}, {"time": 66720, "pitch": 43, "duration": 370, "velocity": 105}, {"time": 66730, "pitch": 48, "duration": 350, "velocity": 110}, {"time": 67080, "pitch": 48, "duration": 90, "velocity": 110}, {"time": 67090, "pitch": 43, "duration": 80, "velocity": 105}, {"time": 67680, "pitch": 41, "duration": 370, "velocity": 105}, {"time": 67690, "pitch": 46, "duration": 350, "velocity": 110}, {"time": 68040, "pitch": 46, "duration": 90, "velocity": 110}, {"time": 68050, "pitch": 41, "duration": 80, "velocity": 105}, {"time": 68640, "pitch": 41, "duration": 370, "velocity": 105}, {"time": 68650, "pitch": 48, "duration": 350, "velocity": 110}, {"time": 69000, "pitch": 48, "duration": 90, "velocity": 110}, {"time": 69010, "pitch": 41, "duration": 80, "velocity": 105}, {"time": 69600, "pitch": 41, "duration": 240, "velocity": 105}, {"time": 69610, "pitch": 48, "duration": 230, "velocity": 110}, {"time": 70080, "pitch": 41, "duration": 460, "velocity": 105}, {"time": 70090, "pitch": 46, "duration": 450, "velocity": 110}, {"time": 71040, "pitch": 43, "duration": 200, "velocity": 105}, {"time": 71050, "pitch": 48, "duration": 190, "velocity": 110}, {"time": 71520, "pitch": 41, "duration": 370, "velocity": 105}, {"time": 71530, "pitch": 46, "duration": 350, "velocity": 110}, {"time": 71880, "pitch": 46, "duration": 90, "velocity": 110}, {"time": 71890, "pitch": 41, "duration": 80, "velocity": 105}, {"time": 72480, "pitch": 46, "duration": 370, "velocity": 105}, {"time": 72490, "pitch": 53, "duration": 350, "velocity": 110}, {"time": 72840, "pitch": 52, "duration": 370, "velocity": 110}, {"time": 72850, "pitch": 45, "duration": 350, "velocity": 105}, {"time": 73200, "pitch": 43, "duration": 120, "velocity": 105}, {"time": 73210, "pitch": 50, "duration": 110, "velocity": 110}, {"time": 89760, "pitch": 46, "duration": 1900, "velocity": 105}, {"time": 89770, "pitch": 53, "duration": 1890, "velocity": 110}, {"time": 91680, "pitch": 45, "duration": 1900, "velocity": 105}, {"time": 91690, "pitch": 52, "duration": 1890, "velocity": 110}, {"time": 93600, "pitch": 45, "duration": 700, "velocity": 105}, {"time": 93610, "pitch": 50, "duration": 690, "velocity": 110}, {"time": 94320, "pitch": 52, "duration": 700, "velocity": 105}, {"time": 94330, "pitch": 48, "duration": 690, "velocity": 110}, {"time": 95040, "pitch": 48, "duration": 1900, "velocity": 105}, {"time": 95050, "pitch": 53, "duration": 1890, "velocity": 110}, {"time": 97200, "pitch": 53, "duration": 120, "velocity": 110}, {"time": 97320, "pitch": 52, "duration": 120, "velocity": 110}, {"time": 97440, "pitch": 45, "duration": 1900, "velocity": 105}, {"time": 97450, "pitch": 50, "duration": 1890, "velocity": 110}, {"time": 99360, "pitch": 48, "duration": 1900, "velocity": 105}, {"time": 99370, "pitch": 52, "duration": 1890, "velocity": 110}, {"time": 101280, "pitch": 48, "duration": 700, "velocity": 105}, {"time": 101290, "pitch": 53, "duration": 690, "velocity": 110}, {"time": 102000, "pitch": 55, "duration": 1180, "velocity": 105}, {"time": 102010, "pitch": 50, "duration": 1170, "velocity": 110}, {"time": 103200, "pitch": 53, "duration": 700, "velocity": 105}, {"time": 103210, "pitch": 57, "duration": 690, "velocity": 110}, {"time": 103920, "pitch": 59, "duration": 1180, "velocity": 105}, {"time": 103930, "pitch": 55, "duration": 1170, "velocity": 110}, {"time": 105120, "pitch": 43, "duration": 370, "velocity": 105}, {"time": 105130, "pitch": 48, "duration": 350, "velocity": 110}, {"time": 105480, "pitch": 48, "duration": 370, "velocity": 100}, {"time": 105490, "pitch": 43, "duration": 350, "velocity": 105}, {"time": 105840, "pitch": 43, "duration": 1180, "velocity": 105}, {"time": 105850, "pitch": 48, "duration": 1170, "velocity": 110}, {"time": 107040, "pitch": 43, "duration": 370, "velocity": 105}, {"time": 107050, "pitch": 50, "duration": 350, "velocity": 110}, {"time": 107400, "pitch": 50, "duration": 370, "velocity": 100}, {"time": 107410, "pitch": 43, "duration": 350, "velocity": 105}, {"time": 107760, "pitch": 43, "duration": 1180, "velocity": 105}, {"time": 107770, "pitch": 50, "duration": 1170, "velocity": 110}, {"time": 108960, "pitch": 45, "duration": 370, "velocity": 105}, {"time": 108970, "pitch": 52, "duration": 350, "velocity": 110}, {"time": 109320, "pitch": 52, "duration": 370, "velocity": 100}, {"time": 109330, "pitch": 45, "duration": 350, "velocity": 105}, {"time": 109680, "pitch": 45, "duration": 1180, "velocity": 105}, {"time": 109690, "pitch": 52, "duration": 1170, "velocity": 110}, {"time": 110880, "pitch": 41, "duration": 370, "velocity": 105}, {"time": 110890, "pitch": 48, "duration": 350, "velocity": 110}, {"time": 111240, "pitch": 48, "duration": 370, "velocity": 100}, {"time": 111250, "pitch": 41, "duration": 350, "velocity": 105}, {"time": 111600, "pitch": 41, "duration": 240, "velocity": 105}, {"time": 111610, "pitch": 48, "duration": 230, "velocity": 110}, {"time": 111840, "pitch": 43, "duration": 940, "velocity": 105}, {"time": 111850, "pitch": 50, "duration": 930, "velocity": 110}, {"time": 112800, "pitch": 43, "duration": 370, "velocity": 105}, {"time": 112810, "pitch": 48, "duration": 350, "velocity": 110}, {"time": 113160, "pitch": 48, "duration": 370, "velocity": 100}, {"time": 113170, "pitch": 43, "duration": 350, "velocity": 105}, {"time": 113520, "pitch": 43, "duration": 1180, "velocity": 105}, {"time": 113530, "pitch": 48, "duration": 1170, "velocity": 110}, {"time": 114720, "pitch": 43, "duration": 370, "velocity": 105}, {"time": 114730, "pitch": 50, "duration": 350, "velocity": 110}, {"time": 115080, "pitch": 50, "duration": 370, "velocity": 100}, {"time": 115090, "pitch": 43, "duration": 350, "velocity": 105}, {"time": 115440, "pitch": 43, "duration": 1180, "velocity": 105}, {"time": 115450, "pitch": 50, "duration": 1170, "velocity": 110}, {"time": 116640, "pitch": 45, "duration": 370, "velocity": 105}, {"time": 116650, "pitch": 50, "duration": 350, "velocity": 110}, {"time": 117000, "pitch": 50, "duration": 370, "velocity": 100}, {"time": 117010, "pitch": 45, "duration": 350, "velocity": 105}, {"time": 117360, "pitch": 45, "duration": 1180, "velocity": 105}, {"time": 117370, "pitch": 50, "duration": 1170, "velocity": 110}, {"time": 118560, "pitch": 45, "duration": 370, "velocity": 105}, {"time": 118570, "pitch": 50, "duration": 350, "velocity": 110}, {"time": 118920, "pitch": 52, "duration": 370, "velocity": 100}, {"time": 118930, "pitch": 48, "duration": 350, "velocity": 105}, {"time": 119280, "pitch": 45, "duration": 3100, "velocity": 105}, {"time": 119290, "pitch": 53, "duration": 3090, "velocity": 110}, {"time": 122400, "pitch": 41, "duration": 250, "velocity": 95}, {"time": 122410, "pitch": 46, "duration": 230, "velocity": 100}, {"time": 122640, "pitch": 46, "duration": 250, "velocity": 95}, {"time": 122650, "pitch": 41, "duration": 230, "velocity": 90}, {"time": 122880, "pitch": 41, "duration": 250, "velocity": 95}, {"time": 122890, "pitch": 46, "duration": 230, "velocity": 100}, {"time": 123120, "pitch": 46, "duration": 250, "velocity": 95}, {"time": 123130, "pitch": 41, "duration": 230, "velocity": 90}, {"time": 123360, "pitch": 41, "duration": 250, "velocity": 95}, {"time": 123370, "pitch": 46, "duration": 230, "velocity": 100}, {"time": 123600, "pitch": 46, "duration": 250, "velocity": 95}, {"time": 123610, "pitch": 41, "duration": 230, "velocity": 90}, {"time": 123840, "pitch": 41, "duration": 250, "velocity": 95}, {"time": 123850, "pitch": 46, "duration": 230, "velocity": 100}, {"time": 124080, "pitch": 46, "duration": 230, "velocity": 95}, {"time": 124090, "pitch": 41, "duration": 220, "velocity": 90}, {"time": 124320, "pitch": 41, "duration": 250, "velocity": 95}, {"time": 124330, "pitch": 48, "duration": 230, "velocity": 100}, {"time": 124560, "pitch": 48, "duration": 250, "velocity": 95}, {"time": 124570, "pitch": 41, "duration": 230, "velocity": 90}, {"time": 124800, "pitch": 41, "duration": 250, "velocity": 95}, {"time": 124810, "pitch": 48, "duration": 230, "velocity": 100}, {"time": 125040, "pitch": 48, "duration": 250, "velocity": 95}, {"time": 125050, "pitch": 41, "duration": 230, "velocity": 90}, {"time": 125280, "pitch": 41, "duration": 250, "velocity": 95}, {"time": 125290, "pitch": 48, "duration": 230, "velocity": 100}, {"time": 125520, "pitch": 48, "duration": 250, "velocity": 95}, {"time": 125530, "pitch": 41, "duration": 230, "velocity": 90}, {"time": 125760, "pitch": 41, "duration": 250, "velocity": 95}, {"time": 125770, "pitch": 48, "duration": 230, "velocity": 100}, {"time": 126000, "pitch": 48, "duration": 230, "velocity": 95}, {"time": 126010, "pitch": 41, "duration": 220, "velocity": 90}, {"time": 126720, "pitch": 48, "duration": 120, "velocity": 105}, {"time": 126730, "pitch": 55, "duration": 110, "velocity": 110}, {"time": 127200, "pitch": 48, "duration": 460, "velocity": 105}, {"time": 127210, "pitch": 53, "duration": 450, "velocity": 110}, {"time": 127680, "pitch": 48, "duration": 120, "velocity": 105}, {"time": 127690, "pitch": 55, "duration": 110, "velocity": 110}, {"time": 128160, "pitch": 48, "duration": 370, "velocity": 105}, {"time": 128170, "pitch": 53, "duration": 350, "velocity": 110}, {"time": 128520, "pitch": 55, "duration": 120, "velocity": 100}, {"time": 128530, "pitch": 48, "duration": 110, "velocity": 105}, {"time": 128880, "pitch": 50, "duration": 1180, "velocity": 105}, {"time": 128890, "pitch": 55, "duration": 1170, "velocity": 110}, {"time": 130080, "pitch": 41, "duration": 250, "velocity": 95}, {"time": 130090, "pitch": 46, "duration": 230, "velocity": 100}, {"time": 130320, "pitch": 46, "duration": 250, "velocity": 95}, {"time": 130330, "pitch": 41, "duration": 230, "velocity": 90}, {"time": 130560, "pitch": 41, "duration": 250, "velocity": 95}, {"time": 130570, "pitch": 46, "duration": 230, "velocity": 100}, {"time": 130800, "pitch": 46, "duration": 250, "velocity": 95}, {"time": 130810, "pitch": 41, "duration": 230, "velocity": 90}, {"time": 131040, "pitch": 41, "duration": 250, "velocity": 95}, {"time": 131050, "pitch": 46, "duration": 230, "velocity": 100}, {"time": 131280, "pitch": 46, "duration": 250, "velocity": 95}, {"time": 131290, "pitch": 41, "duration": 230, "velocity": 90}, {"time": 131520, "pitch": 41, "duration": 250, "velocity": 95}, {"time": 131530, "pitch": 46, "duration": 230, "velocity": 100}, {"time": 131760, "pitch": 46, "duration": 230, "velocity": 95}, {"time": 131770, "pitch": 41, "duration": 220, "velocity": 90}, {"time": 132000, "pitch": 41, "duration": 250, "velocity": 95}, {"time": 132010, "pitch": 48, "duration": 230, "velocity": 100}, {"time": 132240, "pitch": 48, "duration": 250, "velocity": 95}, {"time": 132250, "pitch": 41, "duration": 230, "velocity": 90}, {"time": 132480, "pitch": 41, "duration": 250, "velocity": 95}, {"time": 132490, "pitch": 48, "duration": 230, "velocity": 100}, {"time": 132720, "pitch": 48, "duration": 250, "velocity": 95}, {"time": 132730, "pitch": 41, "duration": 230, "velocity": 90}, {"time": 132960, "pitch": 41, "duration": 250, "velocity": 95}, {"time": 132970, "pitch": 48, "duration": 230, "velocity": 100}, {"time": 133200, "pitch": 48, "duration": 250, "velocity": 95}, {"time": 133210, "pitch": 41, "duration": 230, "velocity": 90}, {"time": 133440, "pitch": 41, "duration": 250, "velocity": 95}, {"time": 133450, "pitch": 48, "duration": 230, "velocity": 100}, {"time": 133680, "pitch": 48, "duration": 230, "velocity": 95}, {"time": 133690, "pitch": 41, "duration": 220, "velocity": 90}, {"time": 133920, "pitch": 48, "duration": 940, "velocity": 105}, {"time": 133930, "pitch": 53, "duration": 930, "velocity": 110}, {"time": 134880, "pitch": 55, "duration": 940, "velocity": 105}, {"time": 134890, "pitch": 50, "duration": 930, "velocity": 110}, {"time": 135840, "pitch": 53, "duration": 940, "velocity": 105}, {"time": 135850, "pitch": 57, "duration": 930, "velocity": 110}, {"time": 136800, "pitch": 59, "duration": 940, "velocity": 105}, {"time": 136810, "pitch": 55, "duration": 930, "velocity": 110}, {"time": 138240, "pitch": 43, "duration": 100, "velocity": 105}, {"time": 138250, "pitch": 48, "duration": 90, "velocity": 110}, {"time": 138720, "pitch": 41, "duration": 370, "velocity": 105}, {"time": 138730, "pitch": 48, "duration": 350, "velocity": 110}, {"time": 139080, "pitch": 48, "duration": 90, "velocity": 110}, {"time": 139090, "pitch": 41, "duration": 80, "velocity": 105}, {"time": 140160, "pitch": 45, "duration": 100, "velocity": 105}, {"time": 140170, "pitch": 50, "duration": 90, "velocity": 110}, {"time": 140640, "pitch": 43, "duration": 370, "velocity": 105}, {"time": 140650, "pitch": 50, "duration": 350, "velocity": 110}, {"time": 141000, "pitch": 50, "duration": 90, "velocity": 110}, {"time": 141010, "pitch": 43, "duration": 80, "velocity": 105}, {"time": 142080, "pitch": 43, "duration": 100, "velocity": 105}, {"time": 142090, "pitch": 48, "duration": 90, "velocity": 110}, {"time": 142560, "pitch": 41, "duration": 370, "velocity": 105}, {"time": 142570, "pitch": 48, "duration": 350, "velocity": 110}, {"time": 142920, "pitch": 48, "duration": 90, "velocity": 110}, {"time": 142930, "pitch": 41, "duration": 80, "velocity": 105}, {"time": 144000, "pitch": 45, "duration": 100, "velocity": 105}, {"time": 144010, "pitch": 50, "duration": 90, "velocity": 110}, {"time": 144480, "pitch": 43, "duration": 370, "velocity": 105}, {"time": 144490, "pitch": 50, "duration": 350, "velocity": 110}, {"time": 144840, "pitch": 50, "duration": 90, "velocity": 110}, {"time": 144850, "pitch": 43, "duration": 80, "velocity": 105}, {"time": 145920, "pitch": 43, "duration": 100, "velocity": 105}, {"time": 145930, "pitch": 48, "duration": 90, "velocity": 110}, {"time": 146400, "pitch": 41, "duration": 370, "velocity": 105}, {"time": 146410, "pitch": 48, "duration": 350, "velocity": 110}, {"time": 146760, "pitch": 48, "duration": 90, "velocity": 110}, {"time": 146770, "pitch": 41, "duration": 80, "velocity": 105}, {"time": 147840, "pitch": 45, "duration": 100, "velocity": 105}, {"time": 147850, "pitch": 50, "duration": 90, "velocity": 110}, {"time": 148320, "pitch": 43, "duration": 370, "velocity": 105}, {"time": 148330, "pitch": 50, "duration": 350, "velocity": 110}, {"time": 148680, "pitch": 50, "duration": 90, "velocity": 110}, {"time": 148690, "pitch": 43, "duration": 80, "velocity": 105}, {"time": 149760, "pitch": 43, "duration": 100, "velocity": 105}, {"time": 149770, "pitch": 48, "duration": 90, "velocity": 110}, {"time": 150240, "pitch": 41, "duration": 370, "velocity": 105}, {"time": 150250, "pitch": 48, "duration": 350, "velocity": 110}, {"time": 150600, "pitch": 48, "duration": 90, "velocity": 110}, {"time": 150610, "pitch": 41, "duration": 80, "velocity": 105}, {"time": 151680, "pitch": 45, "duration": 100, "velocity": 105}, {"time": 151690, "pitch": 50, "duration": 90, "velocity": 110}, {"time": 152160, "pitch": 43, "duration": 370, "velocity": 105}, {"time": 152170, "pitch": 50, "duration": 350, "velocity": 110}, {"time": 152520, "pitch": 50, "duration": 90, "velocity": 110}, {"time": 152530, "pitch": 43, "duration": 80, "velocity": 105}, {"time": 153120, "pitch": 46, "duration": 1900, "velocity": 105}, {"time": 153130, "pitch": 53, "duration": 1890, "velocity": 110}, {"time": 155040, "pitch": 45, "duration": 1900, "velocity": 105}, {"time": 155050, "pitch": 52, "duration": 1890, "velocity": 110}, {"time": 156960, "pitch": 45, "duration": 700, "velocity": 105}, {"time": 156970, "pitch": 50, "duration": 690, "velocity": 110}, {"time": 157680, "pitch": 52, "duration": 700, "velocity": 105}, {"time": 157690, "pitch": 48, "duration": 690, "velocity": 110}, {"time": 158400, "pitch": 48, "duration": 1900, "velocity": 105}, {"time": 158410, "pitch": 53, "duration": 1890, "velocity": 110}, {"time": 160560, "pitch": 53, "duration": 120, "velocity": 110}, {"time": 160680, "pitch": 52, "duration": 120, "velocity": 110}, {"time": 160800, "pitch": 45, "duration": 1900, "velocity": 105}, {"time": 160810, "pitch": 50, "duration": 1890, "velocity": 110}, {"time": 162720, "pitch": 48, "duration": 1900, "velocity": 105}, {"time": 162730, "pitch": 52, "duration": 1890, "velocity": 110}, {"time": 164640, "pitch": 48, "duration": 700, "velocity": 105}, {"time": 164650, "pitch": 53, "duration": 690, "velocity": 110}, {"time": 165360, "pitch": 55, "duration": 1180, "velocity": 105}, {"time": 165370, "pitch": 50, "duration": 1170, "velocity": 110}, {"time": 166560, "pitch": 53, "duration": 700, "velocity": 105}, {"time": 166570, "pitch": 57, "duration": 690, "velocity": 110}, {"time": 167280, "pitch": 59, "duration": 3100, "velocity": 105}, {"time": 167290, "pitch": 55, "duration": 3090, "velocity": 110}, {"time": 170400, "pitch": 45, "duration": 370, "velocity": 105}, {"time": 170410, "pitch": 50, "duration": 350, "velocity": 110}, {"time": 170760, "pitch": 50, "duration": 370, "velocity": 100}, {"time": 170770, "pitch": 45, "duration": 350, "velocity": 105}, {"time": 171120, "pitch": 45, "duration": 1180, "velocity": 105}, {"time": 171130, "pitch": 50, "duration": 1170, "velocity": 110}, {"time": 172320, "pitch": 45, "duration": 370, "velocity": 105}, {"time": 172330, "pitch": 52, "duration": 350, "velocity": 110}, {"time": 172680, "pitch": 52, "duration": 370, "velocity": 100}, {"time": 172690, "pitch": 45, "duration": 350, "velocity": 105}, {"time": 173040, "pitch": 45, "duration": 1180, "velocity": 105}, {"time": 173050, "pitch": 52, "duration": 1170, "velocity": 110}, {"time": 174240, "pitch": 47, "duration": 370, "velocity": 105}, {"time": 174250, "pitch": 54, "duration": 350, "velocity": 110}, {"time": 174600, "pitch": 54, "duration": 370, "velocity": 100}, {"time": 174610, "pitch": 47, "duration": 350, "velocity": 105}, {"time": 174960, "pitch": 47, "duration": 1180, "velocity": 105}, {"time": 174970, "pitch": 54, "duration": 1170, "velocity": 110}, {"time": 176160, "pitch": 43, "duration": 370, "velocity": 105}, {"time": 176170, "pitch": 50, "duration": 350, "velocity": 110}, {"time": 176520, "pitch": 50, "duration": 370, "velocity": 100}, {"time": 176530, "pitch": 43, "duration": 350, "velocity": 105}, {"time": 176880, "pitch": 43, "duration": 240, "velocity": 105}, {"time": 176890, "pitch": 50, "duration": 230, "velocity": 110}, {"time": 177120, "pitch": 45, "duration": 940, "velocity": 105}, {"time": 177130, "pitch": 52, "duration": 930, "velocity": 110}, {"time": 178080, "pitch": 45, "duration": 370, "velocity": 105}, {"time": 178090, "pitch": 50, "duration": 350, "velocity": 110}, {"time": 178440, "pitch": 50, "duration": 370, "velocity": 100}, {"time": 178450, "pitch": 45, "duration": 350, "velocity": 105}, {"time": 178800, "pitch": 45, "duration": 1180, "velocity": 105}, {"time": 178810, "pitch": 50, "duration": 1170, "velocity": 110}, {"time": 180000, "pitch": 45, "duration": 370, "velocity": 105}, {"time": 180010, "pitch": 52, "duration": 350, "velocity": 110}, {"time": 180360, "pitch": 52, "duration": 370, "velocity": 100}, {"time": 180370, "pitch": 45, "duration": 350, "velocity": 105}, {"time": 180720, "pitch": 45, "duration": 1180, "velocity": 105}, {"time": 180730, "pitch": 52, "duration": 1170, "velocity": 110}, {"time": 181920, "pitch": 43, "duration": 370, "velocity": 105}, {"time": 181930, "pitch": 50, "duration": 350, "velocity": 110}, {"time": 182280, "pitch": 50, "duration": 370, "velocity": 100}, {"time": 182290, "pitch": 43, "duration": 350, "velocity": 105}, {"time": 182640, "pitch": 43, "duration": 1180, "velocity": 105}, {"time": 182650, "pitch": 50, "duration": 1170, "velocity": 110}, {"time": 183840, "pitch": 45, "duration": 370, "velocity": 105}, {"time": 183850, "pitch": 52, "duration": 350, "velocity": 110}, {"time": 184200, "pitch": 52, "duration": 370, "velocity": 100}, {"time": 184210, "pitch": 45, "duration": 350, "velocity": 105}, {"time": 184560, "pitch": 45, "duration": 240, "velocity": 105}, {"time": 184570, "pitch": 52, "duration": 230, "velocity": 110}, {"time": 184800, "pitch": 43, "duration": 940, "velocity": 105}, {"time": 184810, "pitch": 50, "duration": 930, "velocity": 110}, {"time": 185760, "pitch": 45, "duration": 370, "velocity": 105}, {"time": 185770, "pitch": 50, "duration": 350, "velocity": 110}, {"time": 186120, "pitch": 50, "duration": 370, "velocity": 100}, {"time": 186130, "pitch": 45, "duration": 350, "velocity": 105}, {"time": 186480, "pitch": 45, "duration": 1180, "velocity": 105}, {"time": 186490, "pitch": 50, "duration": 1170, "velocity": 110}, {"time": 187680, "pitch": 45, "duration": 370, "velocity": 105}, {"time": 187690, "pitch": 52, "duration": 350, "velocity": 110}, {"time": 188040, "pitch": 52, "duration": 370, "velocity": 100}, {"time": 188050, "pitch": 45, "duration": 350, "velocity": 105}, {"time": 188400, "pitch": 45, "duration": 1180, "velocity": 105}, {"time": 188410, "pitch": 52, "duration": 1170, "velocity": 110}, {"time": 189600, "pitch": 47, "duration": 370, "velocity": 105}, {"time": 189610, "pitch": 54, "duration": 350, "velocity": 110}, {"time": 189960, "pitch": 54, "duration": 370, "velocity": 100}, {"time": 189970, "pitch": 47, "duration": 350, "velocity": 105}, {"time": 190320, "pitch": 47, "duration": 1180, "velocity": 105}, {"time": 190330, "pitch": 54, "duration": 1170, "velocity": 110}, {"time": 191520, "pitch": 43, "duration": 370, "velocity": 105}, {"time": 191530, "pitch": 50, "duration": 350, "velocity": 110}, {"time": 191880, "pitch": 50, "duration": 370, "velocity": 100}, {"time": 191890, "pitch": 43, "duration": 350, "velocity": 105}, {"time": 192240, "pitch": 43, "duration": 240, "velocity": 105}, {"time": 192250, "pitch": 50, "duration": 230, "velocity": 110}, {"time": 192480, "pitch": 45, "duration": 940, "velocity": 105}, {"time": 192490, "pitch": 52, "duration": 930, "velocity": 110}, {"time": 193440, "pitch": 45, "duration": 370, "velocity": 105}, {"time": 193450, "pitch": 50, "duration": 350, "velocity": 110}, {"time": 193800, "pitch": 50, "duration": 370, "velocity": 100}, {"time": 193810, "pitch": 45, "duration": 350, "velocity": 105}, {"time": 194160, "pitch": 45, "duration": 1180, "velocity": 105}, {"time": 194170, "pitch": 50, "duration": 1170, "velocity": 110}, {"time": 195360, "pitch": 45, "duration": 370, "velocity": 105}, {"time": 195370, "pitch": 52, "duration": 350, "velocity": 110}, {"time": 195720, "pitch": 52, "duration": 370, "velocity": 100}, {"time": 195730, "pitch": 45, "duration": 350, "velocity": 105}, {"time": 196080, "pitch": 45, "duration": 1180, "velocity": 105}, {"time": 196090, "pitch": 52, "duration": 1170, "velocity": 110}, {"time": 197280, "pitch": 47, "duration": 370, "velocity": 105}, {"time": 197290, "pitch": 52, "duration": 350, "velocity": 110}, {"time": 197640, "pitch": 52, "duration": 370, "velocity": 100}, {"time": 197650, "pitch": 47, "duration": 350, "velocity": 105}, {"time": 198000, "pitch": 47, "duration": 1180, "velocity": 105}, {"time": 198010, "pitch": 52, "duration": 1170, "velocity": 110}, {"time": 199200, "pitch": 47, "duration": 370, "velocity": 105}, {"time": 199210, "pitch": 52, "duration": 350, "velocity": 110}, {"time": 199560, "pitch": 54, "duration": 370, "velocity": 100}, {"time": 199570, "pitch": 50, "duration": 350, "velocity": 105}, {"time": 199920, "pitch": 47, "duration": 3100, "velocity": 105}, {"time": 199930, "pitch": 55, "duration": 3090, "velocity": 110}, {"time": 203040, "pitch": 45, "duration": 370, "velocity": 105}, {"time": 203050, "pitch": 50, "duration": 350, "velocity": 110}, {"time": 203400, "pitch": 50, "duration": 90, "velocity": 110}, {"time": 203410, "pitch": 45, "duration": 80, "velocity": 105}, {"time": 204000, "pitch": 43, "duration": 370, "velocity": 105}, {"time": 204010, "pitch": 48, "duration": 350, "velocity": 110}, {"time": 204360, "pitch": 48, "duration": 90, "velocity": 110}, {"time": 204370, "pitch": 43, "duration": 80, "velocity": 105}, {"time": 204960, "pitch": 43, "duration": 370, "velocity": 105}, {"time": 204970, "pitch": 50, "duration": 350, "velocity": 110}, {"time": 205320, "pitch": 50, "duration": 90, "velocity": 110}, {"time": 205330, "pitch": 43, "duration": 80, "velocity": 105}, {"time": 205920, "pitch": 43, "duration": 240, "velocity": 105}, {"time": 205930, "pitch": 50, "duration": 230, "velocity": 110}, {"time": 206400, "pitch": 43, "duration": 460, "velocity": 105}, {"time": 206410, "pitch": 48, "duration": 450, "velocity": 110}, {"time": 207360, "pitch": 45, "duration": 200, "velocity": 105}, {"time": 207370, "pitch": 50, "duration": 190, "velocity": 110}, {"time": 207840, "pitch": 43, "duration": 370, "velocity": 105}, {"time": 207850, "pitch": 48, "duration": 350, "velocity": 110}, {"time": 208200, "pitch": 48, "duration": 90, "velocity": 110}, {"time": 208210, "pitch": 43, "duration": 80, "velocity": 105}, {"time": 208800, "pitch": 43, "duration": 370, "velocity": 105}, {"time": 208810, "pitch": 50, "duration": 350, "velocity": 110}, {"time": 209160, "pitch": 50, "duration": 370, "velocity": 110}, {"time": 209170, "pitch": 43, "duration": 350, "velocity": 105}, {"time": 209520, "pitch": 43, "duration": 240, "velocity": 105}, {"time": 209530, "pitch": 50, "duration": 230, "velocity": 110}, {"time": 209760, "pitch": 43, "duration": 480, "velocity": 105}, {"time": 209770, "pitch": 50, "duration": 480, "velocity": 110}, {"time": 210240, "pitch": 45, "duration": 460, "velocity": 105}, {"time": 210250, "pitch": 52, "duration": 450, "velocity": 110}, {"time": 210720, "pitch": 45, "duration": 370, "velocity": 105}, {"time": 210730, "pitch": 50, "duration": 350, "velocity": 110}, {"time": 211080, "pitch": 50, "duration": 90, "velocity": 110}, {"time": 211090, "pitch": 45, "duration": 80, "velocity": 105}, {"time": 211680, "pitch": 43, "duration": 370, "velocity": 105}, {"time": 211690, "pitch": 48, "duration": 350, "velocity": 110}, {"time": 212040, "pitch": 48, "duration": 90, "velocity": 110}, {"time": 212050, "pitch": 43, "duration": 80, "velocity": 105}, {"time": 212640, "pitch": 43, "duration": 370, "velocity": 105}, {"time": 212650, "pitch": 50, "duration": 350, "velocity": 110}, {"time": 213000, "pitch": 50, "duration": 90, "velocity": 110}, {"time": 213010, "pitch": 43, "duration": 80, "velocity": 105}, {"time": 213600, "pitch": 43, "duration": 240, "velocity": 105}, {"time": 213610, "pitch": 50, "duration": 230, "velocity": 110}, {"time": 214080, "pitch": 43, "duration": 460, "velocity": 105}, {"time": 214090, "pitch": 48, "duration": 450, "velocity": 110}, {"time": 215040, "pitch": 45, "duration": 200, "velocity": 105}, {"time": 215050, "pitch": 50, "duration": 190, "velocity": 110}, {"time": 215520, "pitch": 43, "duration": 370, "velocity": 105}, {"time": 215530, "pitch": 48, "duration": 350, "velocity": 110}, {"time": 215880, "pitch": 48, "duration": 90, "velocity": 110}, {"time": 215890, "pitch": 43, "duration": 80, "velocity": 105}, {"time": 216480, "pitch": 43, "duration": 370, "velocity": 105}, {"time": 216490, "pitch": 50, "duration": 350, "velocity": 110}, {"time": 216840, "pitch": 50, "duration": 370, "velocity": 110}, {"time": 216850, "pitch": 43, "duration": 350, "velocity": 105}, {"time": 217200, "pitch": 43, "duration": 240, "velocity": 105}, {"time": 217210, "pitch": 50, "duration": 230, "velocity": 110}, {"time": 217440, "pitch": 43, "duration": 480, "velocity": 105}, {"time": 217450, "pitch": 50, "duration": 480, "velocity": 110}, {"time": 217920, "pitch": 45, "duration": 460, "velocity": 105}, {"time": 217930, "pitch": 52, "duration": 450, "velocity": 110}, {"time": 218400, "pitch": 45, "duration": 370, "velocity": 105}, {"time": 218410, "pitch": 50, "duration": 350, "velocity": 110}, {"time": 218760, "pitch": 50, "duration": 90, "velocity": 110}, {"time": 218770, "pitch": 45, "duration": 80, "velocity": 105}, {"time": 219360, "pitch": 43, "duration": 370, "velocity": 105}, {"time": 219370, "pitch": 48, "duration": 350, "velocity": 110}, {"time": 219720, "pitch": 48, "duration": 90, "velocity": 110}, {"time": 219730, "pitch": 43, "duration": 80, "velocity": 105}, {"time": 220320, "pitch": 43, "duration": 370, "velocity": 105}, {"time": 220330, "pitch": 50, "duration": 350, "velocity": 110}, {"time": 220680, "pitch": 50, "duration": 90, "velocity": 110}, {"time": 220690, "pitch": 43, "duration": 80, "velocity": 105}, {"time": 221280, "pitch": 43, "duration": 240, "velocity": 105}, {"time": 221290, "pitch": 50, "duration": 230, "velocity": 110}, {"time": 221760, "pitch": 43, "duration": 460, "velocity": 105}, {"time": 221770, "pitch": 48, "duration": 450, "velocity": 110}, {"time": 222720, "pitch": 45, "duration": 200, "velocity": 105}, {"time": 222730, "pitch": 50, "duration": 190, "velocity": 110}, {"time": 223200, "pitch": 43, "duration": 370, "velocity": 105}, {"time": 223210, "pitch": 48, "duration": 350, "velocity": 110}, {"time": 223560, "pitch": 48, "duration": 90, "velocity": 110}, {"time": 223570, "pitch": 43, "duration": 80, "velocity": 105}, {"time": 224160, "pitch": 43, "duration": 370, "velocity": 105}, {"time": 224170, "pitch": 50, "duration": 350, "velocity": 110}, {"time": 224520, "pitch": 50, "duration": 370, "velocity": 110}, {"time": 224530, "pitch": 43, "duration": 350, "velocity": 105}, {"time": 224880, "pitch": 43, "duration": 240, "velocity": 105}, {"time": 224890, "pitch": 50, "duration": 230, "velocity": 110}, {"time": 225120, "pitch": 43, "duration": 480, "velocity": 105}, {"time": 225130, "pitch": 50, "duration": 480, "velocity": 110}, {"time": 225600, "pitch": 45, "duration": 460, "velocity": 105}, {"time": 225610, "pitch": 52, "duration": 450, "velocity": 110}, {"time": 226080, "pitch": 45, "duration": 370, "velocity": 105}, {"time": 226090, "pitch": 50, "duration": 350, "velocity": 110}, {"time": 226440, "pitch": 50, "duration": 90, "velocity": 110}, {"time": 226450, "pitch": 45, "duration": 80, "velocity": 105}, {"time": 227021, "pitch": 43, "duration": 369, "velocity": 105}, {"time": 227031, "pitch": 48, "duration": 349, "velocity": 110}, {"time": 227380, "pitch": 48, "duration": 90, "velocity": 110}, {"time": 227390, "pitch": 43, "duration": 80, "velocity": 105}, {"time": 227980, "pitch": 43, "duration": 385, "velocity": 105}, {"time": 227991, "pitch": 50, "duration": 364, "velocity": 110}, {"time": 228355, "pitch": 50, "duration": 94, "velocity": 110}, {"time": 228365, "pitch": 43, "duration": 84, "velocity": 105}, {"time": 228960, "pitch": 43, "duration": 240, "velocity": 105}, {"time": 228970, "pitch": 50, "duration": 230, "velocity": 110}, {"time": 229440, "pitch": 43, "duration": 460, "velocity": 105}, {"time": 229450, "pitch": 48, "duration": 450, "velocity": 110}, {"time": 230400, "pitch": 45, "duration": 200, "velocity": 105}, {"time": 230410, "pitch": 50, "duration": 190, "velocity": 110}, {"time": 230880, "pitch": 43, "duration": 370, "velocity": 105}, {"time": 230890, "pitch": 48, "duration": 350, "velocity": 110}, {"time": 231240, "pitch": 48, "duration": 90, "velocity": 110}, {"time": 231250, "pitch": 43, "duration": 80, "velocity": 105}, {"time": 231840, "pitch": 43, "duration": 363, "velocity": 105}, {"time": 231850, "pitch": 50, "duration": 343, "velocity": 110}, {"time": 232193, "pitch": 50, "duration": 363, "velocity": 110}, {"time": 232203, "pitch": 43, "duration": 343, "velocity": 105}, {"time": 232546, "pitch": 43, "duration": 235, "velocity": 105}, {"time": 232556, "pitch": 50, "duration": 225, "velocity": 110}, {"time": 232781, "pitch": 43, "duration": 471, "velocity": 105}, {"time": 232791, "pitch": 50, "duration": 471, "velocity": 110}, {"time": 233252, "pitch": 45, "duration": 451, "velocity": 105}, {"time": 233262, "pitch": 52, "duration": 441, "velocity": 110}, {"time": 2160, "pitch": 60, "duration": 60, "velocity": 80}, {"time": 2170, "pitch": 64, "duration": 50, "velocity": 85}, {"time": 2180, "pitch": 67, "duration": 40, "velocity": 90}, {"time": 2280, "pitch": 67, "duration": 60, "velocity": 70}, {"time": 2290, "pitch": 64, "duration": 50, "velocity": 65}, {"time": 2300, "pitch": 60, "duration": 40, "velocity": 60}, {"time": 2400, "pitch": 60, "duration": 380, "velocity": 80}, {"time": 2410, "pitch": 64, "duration": 360, "velocity": 85}, {"time": 2420, "pitch": 67, "duration": 340, "velocity": 90}, {"time": 2760, "pitch": 67, "duration": 140, "velocity": 80}, {"time": 2770, "pitch": 64, "duration": 120, "velocity": 75}, {"time": 2780, "pitch": 60, "duration": 100, "velocity": 70}, {"time": 2880, "pitch": 60, "duration": 80, "velocity": 80}, {"time": 2890, "pitch": 64, "duration": 70, "velocity": 85}, {"time": 2900, "pitch": 67, "duration": 60, "velocity": 90}, {"time": 3120, "pitch": 60, "duration": 60, "velocity": 70}, {"time": 3130, "pitch": 64, "duration": 50, "velocity": 75}, {"time": 3140, "pitch": 67, "duration": 40, "velocity": 80}, {"time": 3240, "pitch": 67, "duration": 60, "velocity": 70}, {"time": 3250, "pitch": 64, "duration": 50, "velocity": 65}, {"time": 3260, "pitch": 60, "duration": 40, "velocity": 60}, {"time": 3360, "pitch": 58, "duration": 380, "velocity": 80}, {"time": 3370, "pitch": 62, "duration": 360, "velocity": 85}, {"time": 3380, "pitch": 65, "duration": 340, "velocity": 90}, {"time": 3720, "pitch": 65, "duration": 140, "velocity": 80}, {"time": 3730, "pitch": 62, "duration": 120, "velocity": 75}, {"time": 3740, "pitch": 58, "duration": 100, "velocity": 70}, {"time": 3840, "pitch": 58, "duration": 80, "velocity": 80}, {"time": 3850, "pitch": 62, "duration": 70, "velocity": 85}, {"time": 3860, "pitch": 65, "duration": 60, "velocity": 90}, {"time": 4080, "pitch": 58, "duration": 60, "velocity": 70}, {"time": 4090, "pitch": 62, "duration": 50, "velocity": 75}, {"time": 4100, "pitch": 65, "duration": 40, "velocity": 80}, {"time": 4200, "pitch": 65, "duration": 60, "velocity": 70}, {"time": 4210, "pitch": 62, "duration": 50, "velocity": 65}, {"time": 4220, "pitch": 58, "duration": 40, "velocity": 60}, {"time": 4320, "pitch": 57, "duration": 380, "velocity": 80}, {"time": 4330, "pitch": 60, "duration": 360, "velocity": 85}, {"time": 4340, "pitch": 65, "duration": 340, "velocity": 90}, {"time": 4680, "pitch": 65, "duration": 140, "velocity": 80}, {"time": 4690, "pitch": 60, "duration": 120, "velocity": 75}, {"time": 4700, "pitch": 57, "duration": 100, "velocity": 70}, {"time": 4800, "pitch": 57, "duration": 80, "velocity": 80}, {"time": 4810, "pitch": 60, "duration": 70, "velocity": 85}, {"time": 4820, "pitch": 65, "duration": 60, "velocity": 90}, {"time": 5040, "pitch": 57, "duration": 60, "velocity": 80}, {"time": 5050, "pitch": 60, "duration": 50, "velocity": 85}, {"time": 5060, "pitch": 65, "duration": 40, "velocity": 90}, {"time": 5160, "pitch": 65, "duration": 60, "velocity": 70}, {"time": 5170, "pitch": 60, "duration": 50, "velocity": 65}, {"time": 5180, "pitch": 57, "duration": 40, "velocity": 60}, {"time": 5280, "pitch": 57, "duration": 380, "velocity": 80}, {"time": 5290, "pitch": 60, "duration": 360, "velocity": 85}, {"time": 5300, "pitch": 65, "duration": 340, "velocity": 90}, {"time": 5640, "pitch": 65, "duration": 140, "velocity": 80}, {"time": 5650, "pitch": 60, "duration": 120, "velocity": 75}, {"time": 5660, "pitch": 57, "duration": 100, "velocity": 70}, {"time": 5760, "pitch": 57, "duration": 80, "velocity": 80}, {"time": 5770, "pitch": 60, "duration": 70, "velocity": 85}, {"time": 5780, "pitch": 65, "duration": 60, "velocity": 90}, {"time": 6000, "pitch": 57, "duration": 50, "velocity": 80}, {"time": 6010, "pitch": 60, "duration": 40, "velocity": 85}, {"time": 6020, "pitch": 65, "duration": 30, "velocity": 90}, {"time": 6480, "pitch": 60, "duration": 60, "velocity": 80}, {"time": 6490, "pitch": 64, "duration": 50, "velocity": 85}, {"time": 6500, "pitch": 67, "duration": 40, "velocity": 90}, {"time": 6600, "pitch": 67, "duration": 60, "velocity": 70}, {"time": 6610, "pitch": 64, "duration": 50, "velocity": 65}, {"time": 6620, "pitch": 60, "duration": 40, "velocity": 60}, {"time": 6720, "pitch": 60, "duration": 80, "velocity": 80}, {"time": 6730, "pitch": 64, "duration": 70, "velocity": 85}, {"time": 6740, "pitch": 67, "duration": 60, "velocity": 90}, {"time": 7200, "pitch": 58, "duration": 380, "velocity": 80}, {"time": 7210, "pitch": 62, "duration": 360, "velocity": 85}, {"time": 7220, "pitch": 65, "duration": 340, "velocity": 90}, {"time": 7560, "pitch": 65, "duration": 140, "velocity": 80}, {"time": 7570, "pitch": 62, "duration": 120, "velocity": 75}, {"time": 7580, "pitch": 58, "duration": 100, "velocity": 70}, {"time": 7680, "pitch": 58, "duration": 80, "velocity": 80}, {"time": 7690, "pitch": 62, "duration": 70, "velocity": 85}, {"time": 7700, "pitch": 65, "duration": 60, "velocity": 90}, {"time": 7920, "pitch": 58, "duration": 60, "velocity": 70}, {"time": 7930, "pitch": 62, "duration": 50, "velocity": 75}, {"time": 7940, "pitch": 65, "duration": 40, "velocity": 80}, {"time": 8040, "pitch": 65, "duration": 60, "velocity": 70}, {"time": 8050, "pitch": 62, "duration": 50, "velocity": 65}, {"time": 8060, "pitch": 58, "duration": 40, "velocity": 60}, {"time": 8160, "pitch": 57, "duration": 380, "velocity": 80}, {"time": 8170, "pitch": 60, "duration": 360, "velocity": 85}, {"time": 8180, "pitch": 65, "duration": 340, "velocity": 90}, {"time": 8520, "pitch": 65, "duration": 140, "velocity": 80}, {"time": 8530, "pitch": 60, "duration": 120, "velocity": 75}, {"time": 8540, "pitch": 57, "duration": 100, "velocity": 70}, {"time": 8640, "pitch": 57, "duration": 80, "velocity": 80}, {"time": 8650, "pitch": 60, "duration": 70, "velocity": 85}, {"time": 8660, "pitch": 65, "duration": 60, "velocity": 90}, {"time": 8880, "pitch": 57, "duration": 60, "velocity": 80}, {"time": 8890, "pitch": 60, "duration": 50, "velocity": 85}, {"time": 8900, "pitch": 65, "duration": 40, "velocity": 90}, {"time": 9000, "pitch": 65, "duration": 60, "velocity": 70}, {"time": 9010, "pitch": 60, "duration": 50, "velocity": 65}, {"time": 9020, "pitch": 57, "duration": 40, "velocity": 60}, {"time": 9120, "pitch": 57, "duration": 380, "velocity": 80}, {"time": 9130, "pitch": 60, "duration": 360, "velocity": 85}, {"time": 9140, "pitch": 65, "duration": 340, "velocity": 90}, {"time": 9480, "pitch": 65, "duration": 100, "velocity": 80}, {"time": 9490, "pitch": 60, "duration": 90, "velocity": 75}, {"time": 9500, "pitch": 57, "duration": 80, "velocity": 70}, {"time": 9600, "pitch": 59, "duration": 80, "velocity": 80}, {"time": 9610, "pitch": 62, "duration": 70, "velocity": 85}, {"time": 9620, "pitch": 67, "duration": 60, "velocity": 90}, {"time": 9840, "pitch": 59, "duration": 50, "velocity": 80}, {"time": 9850, "pitch": 62, "duration": 40, "velocity": 85}, {"time": 9860, "pitch": 67, "duration": 30, "velocity": 90}, {"time": 10080, "pitch": 60, "duration": 380, "velocity": 80}, {"time": 10090, "pitch": 64, "duration": 360, "velocity": 85}, {"time": 10100, "pitch": 67, "duration": 340, "velocity": 90}, {"time": 10440, "pitch": 67, "duration": 140, "velocity": 80}, {"time": 10450, "pitch": 64, "duration": 120, "velocity": 75}, {"time": 10460, "pitch": 60, "duration": 100, "velocity": 70}, {"time": 10560, "pitch": 60, "duration": 80, "velocity": 80}, {"time": 10570, "pitch": 64, "duration": 70, "velocity": 85}, {"time": 10580, "pitch": 67, "duration": 60, "velocity": 90}, {"time": 10800, "pitch": 60, "duration": 60, "velocity": 70}, {"time": 10810, "pitch": 64, "duration": 50, "velocity": 75}, {"time": 10820, "pitch": 67, "duration": 40, "velocity": 80}, {"time": 10920, "pitch": 67, "duration": 60, "velocity": 70}, {"time": 10930, "pitch": 64, "duration": 50, "velocity": 65}, {"time": 10940, "pitch": 60, "duration": 40, "velocity": 60}, {"time": 11040, "pitch": 58, "duration": 380, "velocity": 80}, {"time": 11050, "pitch": 62, "duration": 360, "velocity": 85}, {"time": 11060, "pitch": 65, "duration": 340, "velocity": 90}, {"time": 11400, "pitch": 65, "duration": 140, "velocity": 80}, {"time": 11410, "pitch": 62, "duration": 120, "velocity": 75}, {"time": 11420, "pitch": 58, "duration": 100, "velocity": 70}, {"time": 11520, "pitch": 58, "duration": 80, "velocity": 80}, {"time": 11530, "pitch": 62, "duration": 70, "velocity": 85}, {"time": 11540, "pitch": 65, "duration": 60, "velocity": 90}, {"time": 11760, "pitch": 58, "duration": 60, "velocity": 70}, {"time": 11770, "pitch": 62, "duration": 50, "velocity": 75}, {"time": 11780, "pitch": 65, "duration": 40, "velocity": 80}, {"time": 11880, "pitch": 65, "duration": 60, "velocity": 70}, {"time": 11890, "pitch": 62, "duration": 50, "velocity": 65}, {"time": 11900, "pitch": 58, "duration": 40, "velocity": 60}, {"time": 12000, "pitch": 57, "duration": 380, "velocity": 80}, {"time": 12010, "pitch": 60, "duration": 360, "velocity": 85}, {"time": 12020, "pitch": 65, "duration": 340, "velocity": 90}, {"time": 12360, "pitch": 65, "duration": 140, "velocity": 80}, {"time": 12370, "pitch": 60, "duration": 120, "velocity": 75}, {"time": 12380, "pitch": 57, "duration": 100, "velocity": 70}, {"time": 12480, "pitch": 57, "duration": 80, "velocity": 80}, {"time": 12490, "pitch": 60, "duration": 70, "velocity": 85}, {"time": 12500, "pitch": 65, "duration": 60, "velocity": 90}, {"time": 12720, "pitch": 57, "duration": 60, "velocity": 80}, {"time": 12730, "pitch": 60, "duration": 50, "velocity": 85}, {"time": 12740, "pitch": 65, "duration": 40, "velocity": 90}, {"time": 12840, "pitch": 65, "duration": 60, "velocity": 70}, {"time": 12850, "pitch": 60, "duration": 50, "velocity": 65}, {"time": 12860, "pitch": 57, "duration": 40, "velocity": 60}, {"time": 12960, "pitch": 57, "duration": 380, "velocity": 80}, {"time": 12970, "pitch": 60, "duration": 360, "velocity": 85}, {"time": 12980, "pitch": 65, "duration": 340, "velocity": 90}, {"time": 13320, "pitch": 65, "duration": 140, "velocity": 80}, {"time": 13330, "pitch": 60, "duration": 120, "velocity": 75}, {"time": 13340, "pitch": 57, "duration": 100, "velocity": 70}, {"time": 13440, "pitch": 57, "duration": 80, "velocity": 80}, {"time": 13450, "pitch": 60, "duration": 70, "velocity": 85}, {"time": 13460, "pitch": 65, "duration": 60, "velocity": 90}, {"time": 13680, "pitch": 57, "duration": 50, "velocity": 80}, {"time": 13690, "pitch": 60, "duration": 40, "velocity": 85}, {"time": 13700, "pitch": 65, "duration": 30, "velocity": 90}, {"time": 13920, "pitch": 58, "duration": 340, "velocity": 80}, {"time": 13930, "pitch": 62, "duration": 330, "velocity": 85}, {"time": 13940, "pitch": 65, "duration": 320, "velocity": 90}, {"time": 14280, "pitch": 65, "duration": 340, "velocity": 90}, {"time": 14290, "pitch": 60, "duration": 330, "velocity": 85}, {"time": 14300, "pitch": 57, "duration": 320, "velocity": 80}, {"time": 14640, "pitch": 59, "duration": 1180, "velocity": 80}, {"time": 14650, "pitch": 62, "duration": 1170, "velocity": 85}, {"time": 14660, "pitch": 67, "duration": 1160, "velocity": 90}, {"time": 15840, "pitch": 55, "duration": 340, "velocity": 80}, {"time": 15850, "pitch": 60, "duration": 330, "velocity": 85}, {"time": 15860, "pitch": 64, "duration": 320, "velocity": 90}, {"time": 16200, "pitch": 65, "duration": 340, "velocity": 90}, {"time": 16210, "pitch": 60, "duration": 330, "velocity": 85}, {"time": 16220, "pitch": 57, "duration": 320, "velocity": 80}, {"time": 16560, "pitch": 59, "duration": 2140, "velocity": 80}, {"time": 16570, "pitch": 62, "duration": 2130, "velocity": 85}, {"time": 16580, "pitch": 67, "duration": 2120, "velocity": 90}, {"time": 34320, "pitch": 57, "duration": 1660, "velocity": 110}, {"time": 34560, "pitch": 58, "duration": 1420, "velocity": 115}, {"time": 34800, "pitch": 65, "duration": 1180, "velocity": 120}, {"time": 36240, "pitch": 55, "duration": 1660, "velocity": 110}, {"time": 36480, "pitch": 60, "duration": 1420, "velocity": 115}, {"time": 36720, "pitch": 67, "duration": 1180, "velocity": 120}, {"time": 37920, "pitch": 57, "duration": 700, "velocity": 80}, {"time": 37930, "pitch": 62, "duration": 690, "velocity": 85}, {"time": 37940, "pitch": 65, "duration": 680, "velocity": 90}, {"time": 38640, "pitch": 64, "duration": 700, "velocity": 90}, {"time": 38650, "pitch": 60, "duration": 690, "velocity": 85}, {"time": 38660, "pitch": 55, "duration": 680, "velocity": 80}, {"time": 39360, "pitch": 57, "duration": 2380, "velocity": 80}, {"time": 39370, "pitch": 60, "duration": 2370, "velocity": 85}, {"time": 39380, "pitch": 65, "duration": 2360, "velocity": 90}, {"time": 42000, "pitch": 57, "duration": 1660, "velocity": 110}, {"time": 42240, "pitch": 60, "duration": 1420, "velocity": 115}, {"time": 42480, "pitch": 65, "duration": 1180, "velocity": 120}, {"time": 43920, "pitch": 55, "duration": 1660, "velocity": 110}, {"time": 44160, "pitch": 60, "duration": 1420, "velocity": 115}, {"time": 44400, "pitch": 67, "duration": 1180, "velocity": 120}, {"time": 45600, "pitch": 57, "duration": 700, "velocity": 80}, {"time": 45610, "pitch": 60, "duration": 690, "velocity": 85}, {"time": 45620, "pitch": 65, "duration": 680, "velocity": 90}, {"time": 46320, "pitch": 67, "duration": 1180, "velocity": 90}, {"time": 46330, "pitch": 62, "duration": 1170, "velocity": 85}, {"time": 46340, "pitch": 59, "duration": 1160, "velocity": 80}, {"time": 47520, "pitch": 57, "duration": 700, "velocity": 80}, {"time": 47530, "pitch": 60, "duration": 690, "velocity": 85}, {"time": 47540, "pitch": 65, "duration": 680, "velocity": 90}, {"time": 48240, "pitch": 67, "duration": 1180, "velocity": 90}, {"time": 48250, "pitch": 62, "duration": 1170, "velocity": 85}, {"time": 48260, "pitch": 59, "duration": 1160, "velocity": 80}, {"time": 49440, "pitch": 60, "duration": 480, "velocity": 70}, {"time": 49450, "pitch": 64, "duration": 480, "velocity": 75}, {"time": 49460, "pitch": 67, "duration": 480, "velocity": 80}, {"time": 49920, "pitch": 60, "duration": 80, "velocity": 80}, {"time": 49930, "pitch": 64, "duration": 70, "velocity": 85}, {"time": 49940, "pitch": 67, "duration": 60, "velocity": 90}, {"time": 50160, "pitch": 60, "duration": 60, "velocity": 80}, {"time": 50170, "pitch": 64, "duration": 50, "velocity": 85}, {"time": 50180, "pitch": 67, "duration": 40, "velocity": 90}, {"time": 50280, "pitch": 67, "duration": 60, "velocity": 70}, {"time": 50290, "pitch": 64, "duration": 50, "velocity": 65}, {"time": 50300, "pitch": 60, "duration": 40, "velocity": 60}, {"time": 50400, "pitch": 60, "duration": 480, "velocity": 70}, {"time": 50410, "pitch": 64, "duration": 480, "velocity": 75}, {"time": 50420, "pitch": 67, "duration": 480, "velocity": 80}, {"time": 50880, "pitch": 60, "duration": 80, "velocity": 80}, {"time": 50890, "pitch": 64, "duration": 70, "velocity": 85}, {"time": 50900, "pitch": 67, "duration": 60, "velocity": 90}, {"time": 51120, "pitch": 60, "duration": 60, "velocity": 80}, {"time": 51130, "pitch": 64, "duration": 50, "velocity": 85}, {"time": 51140, "pitch": 67, "duration": 40, "velocity": 90}, {"time": 51240, "pitch": 67, "duration": 60, "velocity": 70}, {"time": 51250, "pitch": 64, "duration": 50, "velocity": 65}, {"time": 51260, "pitch": 60, "duration": 40, "velocity": 60}, {"time": 51360, "pitch": 59, "duration": 480, "velocity": 70}, {"time": 51370, "pitch": 62, "duration": 480, "velocity": 75}, {"time": 51380, "pitch": 67, "duration": 480, "velocity": 80}, {"time": 51840, "pitch": 59, "duration": 80, "velocity": 80}, {"time": 51850, "pitch": 62, "duration": 70, "velocity": 85}, {"time": 51860, "pitch": 67, "duration": 60, "velocity": 90}, {"time": 52080, "pitch": 59, "duration": 60, "velocity": 80}, {"time": 52090, "pitch": 62, "duration": 50, "velocity": 85}, {"time": 52100, "pitch": 67, "duration": 40, "velocity": 90}, {"time": 52200, "pitch": 67, "duration": 60, "velocity": 70}, {"time": 52210, "pitch": 62, "duration": 50, "velocity": 65}, {"time": 52220, "pitch": 59, "duration": 40, "velocity": 60}, {"time": 52320, "pitch": 59, "duration": 480, "velocity": 70}, {"time": 52330, "pitch": 62, "duration": 480, "velocity": 75}, {"time": 52340, "pitch": 67, "duration": 480, "velocity": 80}, {"time": 52800, "pitch": 59, "duration": 80, "velocity": 80}, {"time": 52810, "pitch": 62, "duration": 70, "velocity": 85}, {"time": 52820, "pitch": 67, "duration": 60, "velocity": 90}, {"time": 53040, "pitch": 59, "duration": 60, "velocity": 80}, {"time": 53050, "pitch": 62, "duration": 50, "velocity": 85}, {"time": 53060, "pitch": 67, "duration": 40, "velocity": 90}, {"time": 53160, "pitch": 67, "duration": 60, "velocity": 70}, {"time": 53170, "pitch": 62, "duration": 50, "velocity": 65}, {"time": 53180, "pitch": 59, "duration": 40, "velocity": 60}, {"time": 53280, "pitch": 57, "duration": 480, "velocity": 70}, {"time": 53290, "pitch": 60, "duration": 480, "velocity": 75}, {"time": 53300, "pitch": 64, "duration": 480, "velocity": 80}, {"time": 53760, "pitch": 57, "duration": 80, "velocity": 80}, {"time": 53770, "pitch": 60, "duration": 70, "velocity": 85}, {"time": 53780, "pitch": 64, "duration": 60, "velocity": 90}, {"time": 54000, "pitch": 57, "duration": 60, "velocity": 80}, {"time": 54010, "pitch": 60, "duration": 50, "velocity": 85}, {"time": 54020, "pitch": 64, "duration": 40, "velocity": 90}, {"time": 54120, "pitch": 64, "duration": 60, "velocity": 70}, {"time": 54130, "pitch": 60, "duration": 50, "velocity": 65}, {"time": 54140, "pitch": 57, "duration": 40, "velocity": 60}, {"time": 54240, "pitch": 57, "duration": 480, "velocity": 70}, {"time": 54250, "pitch": 60, "duration": 480, "velocity": 75}, {"time": 54260, "pitch": 64, "duration": 480, "velocity": 80}, {"time": 54720, "pitch": 57, "duration": 80, "velocity": 80}, {"time": 54730, "pitch": 60, "duration": 70, "velocity": 85}, {"time": 54740, "pitch": 64, "duration": 60, "velocity": 90}, {"time": 54960, "pitch": 57, "duration": 60, "velocity": 80}, {"time": 54970, "pitch": 60, "duration": 50, "velocity": 85}, {"time": 54980, "pitch": 64, "duration": 40, "velocity": 90}, {"time": 55080, "pitch": 64, "duration": 60, "velocity": 70}, {"time": 55090, "pitch": 60, "duration": 50, "velocity": 65}, {"time": 55100, "pitch": 57, "duration": 40, "velocity": 60}, {"time": 55200, "pitch": 57, "duration": 480, "velocity": 70}, {"time": 55210, "pitch": 60, "duration": 480, "velocity": 75}, {"time": 55220, "pitch": 65, "duration": 480, "velocity": 80}, {"time": 55680, "pitch": 57, "duration": 80, "velocity": 80}, {"time": 55690, "pitch": 60, "duration": 70, "velocity": 85}, {"time": 55700, "pitch": 65, "duration": 60, "velocity": 90}, {"time": 55920, "pitch": 57, "duration": 60, "velocity": 80}, {"time": 55930, "pitch": 60, "duration": 50, "velocity": 85}, {"time": 55940, "pitch": 65, "duration": 40, "velocity": 90}, {"time": 56040, "pitch": 65, "duration": 60, "velocity": 70}, {"time": 56050, "pitch": 60, "duration": 50, "velocity": 65}, {"time": 56060, "pitch": 57, "duration": 40, "velocity": 60}, {"time": 56160, "pitch": 57, "duration": 480, "velocity": 70}, {"time": 56170, "pitch": 60, "duration": 480, "velocity": 75}, {"time": 56180, "pitch": 65, "duration": 480, "velocity": 80}, {"time": 56640, "pitch": 57, "duration": 80, "velocity": 80}, {"time": 56650, "pitch": 60, "duration": 70, "velocity": 85}, {"time": 56660, "pitch": 65, "duration": 60, "velocity": 90}, {"time": 56880, "pitch": 57, "duration": 60, "velocity": 80}, {"time": 56890, "pitch": 60, "duration": 50, "velocity": 85}, {"time": 56900, "pitch": 65, "duration": 40, "velocity": 90}, {"time": 57000, "pitch": 65, "duration": 60, "velocity": 70}, {"time": 57010, "pitch": 60, "duration": 50, "velocity": 65}, {"time": 57020, "pitch": 57, "duration": 40, "velocity": 60}, {"time": 57120, "pitch": 60, "duration": 480, "velocity": 70}, {"time": 57130, "pitch": 64, "duration": 480, "velocity": 75}, {"time": 57140, "pitch": 67, "duration": 480, "velocity": 80}, {"time": 57600, "pitch": 60, "duration": 80, "velocity": 80}, {"time": 57610, "pitch": 64, "duration": 70, "velocity": 85}, {"time": 57620, "pitch": 67, "duration": 60, "velocity": 90}, {"time": 57840, "pitch": 60, "duration": 60, "velocity": 80}, {"time": 57850, "pitch": 64, "duration": 50, "velocity": 85}, {"time": 57860, "pitch": 67, "duration": 40, "velocity": 90}, {"time": 57960, "pitch": 67, "duration": 60, "velocity": 70}, {"time": 57970, "pitch": 64, "duration": 50, "velocity": 65}, {"time": 57980, "pitch": 60, "duration": 40, "velocity": 60}, {"time": 58080, "pitch": 60, "duration": 480, "velocity": 70}, {"time": 58090, "pitch": 64, "duration": 480, "velocity": 75}, {"time": 58100, "pitch": 67, "duration": 480, "velocity": 80}, {"time": 58560, "pitch": 60, "duration": 80, "velocity": 80}, {"time": 58570, "pitch": 64, "duration": 70, "velocity": 85}, {"time": 58580, "pitch": 67, "duration": 60, "velocity": 90}, {"time": 58800, "pitch": 60, "duration": 60, "velocity": 80}, {"time": 58810, "pitch": 64, "duration": 50, "velocity": 85}, {"time": 58820, "pitch": 67, "duration": 40, "velocity": 90}, {"time": 58920, "pitch": 67, "duration": 60, "velocity": 70}, {"time": 58930, "pitch": 64, "duration": 50, "velocity": 65}, {"time": 58940, "pitch": 60, "duration": 40, "velocity": 60}, {"time": 59040, "pitch": 59, "duration": 480, "velocity": 70}, {"time": 59050, "pitch": 62, "duration": 480, "velocity": 75}, {"time": 59060, "pitch": 67, "duration": 480, "velocity": 80}, {"time": 59520, "pitch": 59, "duration": 80, "velocity": 80}, {"time": 59530, "pitch": 62, "duration": 70, "velocity": 85}, {"time": 59540, "pitch": 67, "duration": 60, "velocity": 90}, {"time": 59760, "pitch": 59, "duration": 60, "velocity": 80}, {"time": 59770, "pitch": 62, "duration": 50, "velocity": 85}, {"time": 59780, "pitch": 67, "duration": 40, "velocity": 90}, {"time": 59880, "pitch": 67, "duration": 60, "velocity": 70}, {"time": 59890, "pitch": 62, "duration": 50, "velocity": 65}, {"time": 59900, "pitch": 59, "duration": 40, "velocity": 60}, {"time": 60000, "pitch": 59, "duration": 480, "velocity": 70}, {"time": 60010, "pitch": 62, "duration": 480, "velocity": 75}, {"time": 60020, "pitch": 67, "duration": 480, "velocity": 80}, {"time": 60480, "pitch": 59, "duration": 80, "velocity": 80}, {"time": 60490, "pitch": 62, "duration": 70, "velocity": 85}, {"time": 60500, "pitch": 67, "duration": 60, "velocity": 90}, {"time": 60720, "pitch": 59, "duration": 60, "velocity": 80}, {"time": 60730, "pitch": 62, "duration": 50, "velocity": 85}, {"time": 60740, "pitch": 67, "duration": 40, "velocity": 90}, {"time": 60840, "pitch": 67, "duration": 60, "velocity": 70}, {"time": 60850, "pitch": 62, "duration": 50, "velocity": 65}, {"time": 60860, "pitch": 59, "duration": 40, "velocity": 60}, {"time": 60960, "pitch": 57, "duration": 480, "velocity": 70}, {"time": 60970, "pitch": 62, "duration": 480, "velocity": 75}, {"time": 60980, "pitch": 65, "duration": 480, "velocity": 80}, {"time": 61440, "pitch": 57, "duration": 80, "velocity": 80}, {"time": 61450, "pitch": 62, "duration": 70, "velocity": 85}, {"time": 61460, "pitch": 65, "duration": 60, "velocity": 90}, {"time": 61680, "pitch": 57, "duration": 60, "velocity": 80}, {"time": 61690, "pitch": 62, "duration": 50, "velocity": 85}, {"time": 61700, "pitch": 65, "duration": 40, "velocity": 90}, {"time": 61800, "pitch": 65, "duration": 60, "velocity": 70}, {"time": 61810, "pitch": 62, "duration": 50, "velocity": 65}, {"time": 61820, "pitch": 57, "duration": 40, "velocity": 60}, {"time": 61920, "pitch": 57, "duration": 480, "velocity": 70}, {"time": 61930, "pitch": 62, "duration": 480, "velocity": 75}, {"time": 61940, "pitch": 65, "duration": 480, "velocity": 80}, {"time": 62400, "pitch": 57, "duration": 80, "velocity": 80}, {"time": 62410, "pitch": 62, "duration": 70, "velocity": 85}, {"time": 62420, "pitch": 65, "duration": 60, "velocity": 90}, {"time": 62640, "pitch": 57, "duration": 60, "velocity": 80}, {"time": 62650, "pitch": 62, "duration": 50, "velocity": 85}, {"time": 62660, "pitch": 65, "duration": 40, "velocity": 90}, {"time": 62760, "pitch": 65, "duration": 60, "velocity": 70}, {"time": 62770, "pitch": 62, "duration": 50, "velocity": 65}, {"time": 62780, "pitch": 57, "duration": 40, "velocity": 60}, {"time": 62880, "pitch": 57, "duration": 340, "velocity": 80}, {"time": 62890, "pitch": 62, "duration": 330, "velocity": 85}, {"time": 62900, "pitch": 65, "duration": 320, "velocity": 90}, {"time": 63240, "pitch": 64, "duration": 340, "velocity": 90}, {"time": 63250, "pitch": 60, "duration": 330, "velocity": 85}, {"time": 63260, "pitch": 55, "duration": 320, "velocity": 80}, {"time": 63600, "pitch": 57, "duration": 720, "velocity": 80}, {"time": 63610, "pitch": 60, "duration": 720, "velocity": 85}, {"time": 63620, "pitch": 65, "duration": 720, "velocity": 90}, {"time": 64320, "pitch": 57, "duration": 80, "velocity": 80}, {"time": 64330, "pitch": 60, "duration": 70, "velocity": 85}, {"time": 64340, "pitch": 65, "duration": 60, "velocity": 90}, {"time": 64560, "pitch": 57, "duration": 60, "velocity": 80}, {"time": 64570, "pitch": 60, "duration": 50, "velocity": 85}, {"time": 64580, "pitch": 65, "duration": 40, "velocity": 90}, {"time": 64680, "pitch": 65, "duration": 60, "velocity": 70}, {"time": 64690, "pitch": 60, "duration": 50, "velocity": 65}, {"time": 64700, "pitch": 57, "duration": 40, "velocity": 60}, {"time": 64800, "pitch": 57, "duration": 480, "velocity": 70}, {"time": 64810, "pitch": 60, "duration": 480, "velocity": 75}, {"time": 64820, "pitch": 65, "duration": 480, "velocity": 80}, {"time": 65280, "pitch": 57, "duration": 80, "velocity": 80}, {"time": 65290, "pitch": 60, "duration": 70, "velocity": 85}, {"time": 65300, "pitch": 65, "duration": 60, "velocity": 90}, {"time": 65520, "pitch": 57, "duration": 60, "velocity": 80}, {"time": 65530, "pitch": 60, "duration": 50, "velocity": 85}, {"time": 65540, "pitch": 65, "duration": 40, "velocity": 90}, {"time": 65640, "pitch": 65, "duration": 60, "velocity": 70}, {"time": 65650, "pitch": 60, "duration": 50, "velocity": 65}, {"time": 65660, "pitch": 57, "duration": 40, "velocity": 60}, {"time": 65760, "pitch": 57, "duration": 480, "velocity": 70}, {"time": 65770, "pitch": 60, "duration": 480, "velocity": 75}, {"time": 65780, "pitch": 65, "duration": 480, "velocity": 80}, {"time": 66240, "pitch": 57, "duration": 80, "velocity": 80}, {"time": 66250, "pitch": 60, "duration": 70, "velocity": 85}, {"time": 66260, "pitch": 65, "duration": 60, "velocity": 90}, {"time": 66480, "pitch": 57, "duration": 60, "velocity": 80}, {"time": 66490, "pitch": 60, "duration": 50, "velocity": 85}, {"time": 66500, "pitch": 65, "duration": 40, "velocity": 90}, {"time": 66600, "pitch": 65, "duration": 60, "velocity": 70}, {"time": 66610, "pitch": 60, "duration": 50, "velocity": 65}, {"time": 66620, "pitch": 57, "duration": 40, "velocity": 60}, {"time": 66720, "pitch": 60, "duration": 380, "velocity": 80}, {"time": 66730, "pitch": 64, "duration": 360, "velocity": 85}, {"time": 66740, "pitch": 67, "duration": 340, "velocity": 90}, {"time": 67080, "pitch": 67, "duration": 140, "velocity": 80}, {"time": 67090, "pitch": 64, "duration": 120, "velocity": 75}, {"time": 67100, "pitch": 60, "duration": 100, "velocity": 70}, {"time": 67200, "pitch": 60, "duration": 80, "velocity": 80}, {"time": 67210, "pitch": 64, "duration": 70, "velocity": 85}, {"time": 67220, "pitch": 67, "duration": 60, "velocity": 90}, {"time": 67440, "pitch": 60, "duration": 60, "velocity": 70}, {"time": 67450, "pitch": 64, "duration": 50, "velocity": 75}, {"time": 67460, "pitch": 67, "duration": 40, "velocity": 80}, {"time": 67560, "pitch": 67, "duration": 60, "velocity": 70}, {"time": 67570, "pitch": 64, "duration": 50, "velocity": 65}, {"time": 67580, "pitch": 60, "duration": 40, "velocity": 60}, {"time": 67680, "pitch": 58, "duration": 380, "velocity": 80}, {"time": 67690, "pitch": 62, "duration": 360, "velocity": 85}, {"time": 67700, "pitch": 65, "duration": 340, "velocity": 90}, {"time": 68040, "pitch": 65, "duration": 140, "velocity": 80}, {"time": 68050, "pitch": 62, "duration": 120, "velocity": 75}, {"time": 68060, "pitch": 58, "duration": 100, "velocity": 70}, {"time": 68160, "pitch": 58, "duration": 80, "velocity": 80}, {"time": 68170, "pitch": 62, "duration": 70, "velocity": 85}, {"time": 68180, "pitch": 65, "duration": 60, "velocity": 90}, {"time": 68400, "pitch": 58, "duration": 60, "velocity": 70}, {"time": 68410, "pitch": 62, "duration": 50, "velocity": 75}, {"time": 68420, "pitch": 65, "duration": 40, "velocity": 80}, {"time": 68520, "pitch": 65, "duration": 60, "velocity": 70}, {"time": 68530, "pitch": 62, "duration": 50, "velocity": 65}, {"time": 68540, "pitch": 58, "duration": 40, "velocity": 60}, {"time": 68640, "pitch": 57, "duration": 380, "velocity": 80}, {"time": 68650, "pitch": 60, "duration": 360, "velocity": 85}, {"time": 68660, "pitch": 65, "duration": 340, "velocity": 90}, {"time": 69000, "pitch": 65, "duration": 140, "velocity": 80}, {"time": 69010, "pitch": 60, "duration": 120, "velocity": 75}, {"time": 69020, "pitch": 57, "duration": 100, "velocity": 70}, {"time": 69120, "pitch": 57, "duration": 80, "velocity": 80}, {"time": 69130, "pitch": 60, "duration": 70, "velocity": 85}, {"time": 69140, "pitch": 65, "duration": 60, "velocity": 90}, {"time": 69360, "pitch": 57, "duration": 60, "velocity": 80}, {"time": 69370, "pitch": 60, "duration": 50, "velocity": 85}, {"time": 69380, "pitch": 65, "duration": 40, "velocity": 90}, {"time": 69480, "pitch": 65, "duration": 60, "velocity": 70}, {"time": 69490, "pitch": 60, "duration": 50, "velocity": 65}, {"time": 69500, "pitch": 57, "duration": 40, "velocity": 60}, {"time": 69600, "pitch": 57, "duration": 380, "velocity": 80}, {"time": 69610, "pitch": 60, "duration": 360, "velocity": 85}, {"time": 69620, "pitch": 65, "duration": 340, "velocity": 90}, {"time": 69960, "pitch": 65, "duration": 140, "velocity": 80}, {"time": 69970, "pitch": 60, "duration": 120, "velocity": 75}, {"time": 69980, "pitch": 57, "duration": 100, "velocity": 70}, {"time": 70080, "pitch": 57, "duration": 80, "velocity": 80}, {"time": 70090, "pitch": 60, "duration": 70, "velocity": 85}, {"time": 70100, "pitch": 65, "duration": 60, "velocity": 90}, {"time": 70320, "pitch": 57, "duration": 50, "velocity": 80}, {"time": 70330, "pitch": 60, "duration": 40, "velocity": 85}, {"time": 70340, "pitch": 65, "duration": 30, "velocity": 90}, {"time": 70800, "pitch": 60, "duration": 60, "velocity": 80}, {"time": 70810, "pitch": 64, "duration": 50, "velocity": 85}, {"time": 70820, "pitch": 67, "duration": 40, "velocity": 90}, {"time": 70920, "pitch": 67, "duration": 60, "velocity": 70}, {"time": 70930, "pitch": 64, "duration": 50, "velocity": 65}, {"time": 70940, "pitch": 60, "duration": 40, "velocity": 60}, {"time": 71040, "pitch": 60, "duration": 80, "velocity": 80}, {"time": 71050, "pitch": 64, "duration": 70, "velocity": 85}, {"time": 71060, "pitch": 67, "duration": 60, "velocity": 90}, {"time": 71520, "pitch": 58, "duration": 380, "velocity": 80}, {"time": 71530, "pitch": 62, "duration": 360, "velocity": 85}, {"time": 71540, "pitch": 65, "duration": 340, "velocity": 90}, {"time": 71880, "pitch": 65, "duration": 140, "velocity": 80}, {"time": 71890, "pitch": 62, "duration": 120, "velocity": 75}, {"time": 71900, "pitch": 58, "duration": 100, "velocity": 70}, {"time": 72000, "pitch": 58, "duration": 80, "velocity": 80}, {"time": 72010, "pitch": 62, "duration": 70, "velocity": 85}, {"time": 72020, "pitch": 65, "duration": 60, "velocity": 90}, {"time": 72240, "pitch": 58, "duration": 60, "velocity": 70}, {"time": 72250, "pitch": 62, "duration": 50, "velocity": 75}, {"time": 72260, "pitch": 65, "duration": 40, "velocity": 80}, {"time": 72360, "pitch": 65, "duration": 60, "velocity": 70}, {"time": 72370, "pitch": 62, "duration": 50, "velocity": 65}, {"time": 72380, "pitch": 58, "duration": 40, "velocity": 60}, {"time": 72480, "pitch": 58, "duration": 340, "velocity": 80}, {"time": 72490, "pitch": 62, "duration": 330, "velocity": 85}, {"time": 72500, "pitch": 65, "duration": 320, "velocity": 90}, {"time": 72840, "pitch": 65, "duration": 340, "velocity": 90}, {"time": 72850, "pitch": 60, "duration": 330, "velocity": 85}, {"time": 72860, "pitch": 57, "duration": 320, "velocity": 80}, {"time": 73200, "pitch": 59, "duration": 120, "velocity": 80}, {"time": 73210, "pitch": 62, "duration": 110, "velocity": 85}, {"time": 73220, "pitch": 67, "duration": 100, "velocity": 90}, {"time": 90000, "pitch": 57, "duration": 1660, "velocity": 110}, {"time": 90240, "pitch": 58, "duration": 1420, "velocity": 115}, {"time": 90480, "pitch": 65, "duration": 1180, "velocity": 120}, {"time": 91920, "pitch": 55, "duration": 1660, "velocity": 110}, {"time": 92160, "pitch": 60, "duration": 1420, "velocity": 115}, {"time": 92400, "pitch": 67, "duration": 1180, "velocity": 120}, {"time": 93600, "pitch": 57, "duration": 700, "velocity": 80}, {"time": 93610, "pitch": 62, "duration": 690, "velocity": 85}, {"time": 93620, "pitch": 65, "duration": 680, "velocity": 90}, {"time": 94320, "pitch": 64, "duration": 700, "velocity": 90}, {"time": 94330, "pitch": 60, "duration": 690, "velocity": 85}, {"time": 94340, "pitch": 55, "duration": 680, "velocity": 80}, {"time": 95040, "pitch": 57, "duration": 2380, "velocity": 80}, {"time": 95050, "pitch": 60, "duration": 2370, "velocity": 85}, {"time": 95060, "pitch": 65, "duration": 2360, "velocity": 90}, {"time": 97680, "pitch": 57, "duration": 1660, "velocity": 110}, {"time": 97920, "pitch": 60, "duration": 1420, "velocity": 115}, {"time": 98160, "pitch": 65, "duration": 1180, "velocity": 120}, {"time": 99600, "pitch": 55, "duration": 1660, "velocity": 110}, {"time": 99840, "pitch": 60, "duration": 1420, "velocity": 115}, {"time": 100080, "pitch": 67, "duration": 1180, "velocity": 120}, {"time": 101280, "pitch": 57, "duration": 700, "velocity": 80}, {"time": 101290, "pitch": 60, "duration": 690, "velocity": 85}, {"time": 101300, "pitch": 65, "duration": 680, "velocity": 90}, {"time": 102000, "pitch": 67, "duration": 1180, "velocity": 90}, {"time": 102010, "pitch": 62, "duration": 1170, "velocity": 85}, {"time": 102020, "pitch": 59, "duration": 1160, "velocity": 80}, {"time": 103200, "pitch": 57, "duration": 700, "velocity": 80}, {"time": 103210, "pitch": 60, "duration": 690, "velocity": 85}, {"time": 103220, "pitch": 65, "duration": 680, "velocity": 90}, {"time": 103920, "pitch": 67, "duration": 1180, "velocity": 90}, {"time": 103930, "pitch": 62, "duration": 1170, "velocity": 85}, {"time": 103940, "pitch": 59, "duration": 1160, "velocity": 80}, {"time": 105120, "pitch": 60, "duration": 480, "velocity": 70}, {"time": 105130, "pitch": 64, "duration": 480, "velocity": 75}, {"time": 105140, "pitch": 67, "duration": 480, "velocity": 80}, {"time": 105600, "pitch": 60, "duration": 80, "velocity": 80}, {"time": 105610, "pitch": 64, "duration": 70, "velocity": 85}, {"time": 105620, "pitch": 67, "duration": 60, "velocity": 90}, {"time": 105840, "pitch": 60, "duration": 60, "velocity": 80}, {"time": 105850, "pitch": 64, "duration": 50, "velocity": 85}, {"time": 105860, "pitch": 67, "duration": 40, "velocity": 90}, {"time": 105960, "pitch": 67, "duration": 60, "velocity": 70}, {"time": 105970, "pitch": 64, "duration": 50, "velocity": 65}, {"time": 105980, "pitch": 60, "duration": 40, "velocity": 60}, {"time": 106080, "pitch": 60, "duration": 480, "velocity": 70}, {"time": 106090, "pitch": 64, "duration": 480, "velocity": 75}, {"time": 106100, "pitch": 67, "duration": 480, "velocity": 80}, {"time": 106560, "pitch": 60, "duration": 80, "velocity": 80}, {"time": 106570, "pitch": 64, "duration": 70, "velocity": 85}, {"time": 106580, "pitch": 67, "duration": 60, "velocity": 90}, {"time": 106800, "pitch": 60, "duration": 60, "velocity": 80}, {"time": 106810, "pitch": 64, "duration": 50, "velocity": 85}, {"time": 106820, "pitch": 67, "duration": 40, "velocity": 90}, {"time": 106920, "pitch": 67, "duration": 60, "velocity": 70}, {"time": 106930, "pitch": 64, "duration": 50, "velocity": 65}, {"time": 106940, "pitch": 60, "duration": 40, "velocity": 60}, {"time": 107040, "pitch": 59, "duration": 480, "velocity": 70}, {"time": 107050, "pitch": 62, "duration": 480, "velocity": 75}, {"time": 107060, "pitch": 67, "duration": 480, "velocity": 80}, {"time": 107520, "pitch": 59, "duration": 80, "velocity": 80}, {"time": 107530, "pitch": 62, "duration": 70, "velocity": 85}, {"time": 107540, "pitch": 67, "duration": 60, "velocity": 90}, {"time": 107760, "pitch": 59, "duration": 60, "velocity": 80}, {"time": 107770, "pitch": 62, "duration": 50, "velocity": 85}, {"time": 107780, "pitch": 67, "duration": 40, "velocity": 90}, {"time": 107880, "pitch": 67, "duration": 60, "velocity": 70}, {"time": 107890, "pitch": 62, "duration": 50, "velocity": 65}, {"time": 107900, "pitch": 59, "duration": 40, "velocity": 60}, {"time": 108000, "pitch": 59, "duration": 480, "velocity": 70}, {"time": 108010, "pitch": 62, "duration": 480, "velocity": 75}, {"time": 108020, "pitch": 67, "duration": 480, "velocity": 80}, {"time": 108480, "pitch": 59, "duration": 80, "velocity": 80}, {"time": 108490, "pitch": 62, "duration": 70, "velocity": 85}, {"time": 108500, "pitch": 67, "duration": 60, "velocity": 90}, {"time": 108720, "pitch": 59, "duration": 60, "velocity": 80}, {"time": 108730, "pitch": 62, "duration": 50, "velocity": 85}, {"time": 108740, "pitch": 67, "duration": 40, "velocity": 90}, {"time": 108840, "pitch": 67, "duration": 60, "velocity": 70}, {"time": 108850, "pitch": 62, "duration": 50, "velocity": 65}, {"time": 108860, "pitch": 59, "duration": 40, "velocity": 60}, {"time": 108960, "pitch": 57, "duration": 480, "velocity": 70}, {"time": 108970, "pitch": 60, "duration": 480, "velocity": 75}, {"time": 108980, "pitch": 64, "duration": 480, "velocity": 80}, {"time": 109440, "pitch": 57, "duration": 80, "velocity": 80}, {"time": 109450, "pitch": 60, "duration": 70, "velocity": 85}, {"time": 109460, "pitch": 64, "duration": 60, "velocity": 90}, {"time": 109680, "pitch": 57, "duration": 60, "velocity": 80}, {"time": 109690, "pitch": 60, "duration": 50, "velocity": 85}, {"time": 109700, "pitch": 64, "duration": 40, "velocity": 90}, {"time": 109800, "pitch": 64, "duration": 60, "velocity": 70}, {"time": 109810, "pitch": 60, "duration": 50, "velocity": 65}, {"time": 109820, "pitch": 57, "duration": 40, "velocity": 60}, {"time": 109920, "pitch": 57, "duration": 480, "velocity": 70}, {"time": 109930, "pitch": 60, "duration": 480, "velocity": 75}, {"time": 109940, "pitch": 64, "duration": 480, "velocity": 80}, {"time": 110400, "pitch": 57, "duration": 80, "velocity": 80}, {"time": 110410, "pitch": 60, "duration": 70, "velocity": 85}, {"time": 110420, "pitch": 64, "duration": 60, "velocity": 90}, {"time": 110640, "pitch": 57, "duration": 60, "velocity": 80}, {"time": 110650, "pitch": 60, "duration": 50, "velocity": 85}, {"time": 110660, "pitch": 64, "duration": 40, "velocity": 90}, {"time": 110760, "pitch": 64, "duration": 60, "velocity": 70}, {"time": 110770, "pitch": 60, "duration": 50, "velocity": 65}, {"time": 110780, "pitch": 57, "duration": 40, "velocity": 60}, {"time": 110880, "pitch": 57, "duration": 480, "velocity": 70}, {"time": 110890, "pitch": 60, "duration": 480, "velocity": 75}, {"time": 110900, "pitch": 65, "duration": 480, "velocity": 80}, {"time": 111360, "pitch": 57, "duration": 80, "velocity": 80}, {"time": 111370, "pitch": 60, "duration": 70, "velocity": 85}, {"time": 111380, "pitch": 65, "duration": 60, "velocity": 90}, {"time": 111600, "pitch": 57, "duration": 60, "velocity": 80}, {"time": 111610, "pitch": 60, "duration": 50, "velocity": 85}, {"time": 111620, "pitch": 65, "duration": 40, "velocity": 90}, {"time": 111720, "pitch": 65, "duration": 60, "velocity": 70}, {"time": 111730, "pitch": 60, "duration": 50, "velocity": 65}, {"time": 111740, "pitch": 57, "duration": 40, "velocity": 60}, {"time": 111840, "pitch": 57, "duration": 480, "velocity": 70}, {"time": 111850, "pitch": 60, "duration": 480, "velocity": 75}, {"time": 111860, "pitch": 65, "duration": 480, "velocity": 80}, {"time": 112320, "pitch": 57, "duration": 80, "velocity": 80}, {"time": 112330, "pitch": 60, "duration": 70, "velocity": 85}, {"time": 112340, "pitch": 65, "duration": 60, "velocity": 90}, {"time": 112560, "pitch": 57, "duration": 60, "velocity": 80}, {"time": 112570, "pitch": 60, "duration": 50, "velocity": 85}, {"time": 112580, "pitch": 65, "duration": 40, "velocity": 90}, {"time": 112680, "pitch": 65, "duration": 60, "velocity": 70}, {"time": 112690, "pitch": 60, "duration": 50, "velocity": 65}, {"time": 112700, "pitch": 57, "duration": 40, "velocity": 60}, {"time": 112800, "pitch": 60, "duration": 480, "velocity": 70}, {"time": 112810, "pitch": 64, "duration": 480, "velocity": 75}, {"time": 112820, "pitch": 67, "duration": 480, "velocity": 80}, {"time": 113280, "pitch": 60, "duration": 80, "velocity": 80}, {"time": 113290, "pitch": 64, "duration": 70, "velocity": 85}, {"time": 113300, "pitch": 67, "duration": 60, "velocity": 90}, {"time": 113520, "pitch": 60, "duration": 60, "velocity": 80}, {"time": 113530, "pitch": 64, "duration": 50, "velocity": 85}, {"time": 113540, "pitch": 67, "duration": 40, "velocity": 90}, {"time": 113640, "pitch": 67, "duration": 60, "velocity": 70}, {"time": 113650, "pitch": 64, "duration": 50, "velocity": 65}, {"time": 113660, "pitch": 60, "duration": 40, "velocity": 60}, {"time": 113760, "pitch": 60, "duration": 480, "velocity": 70}, {"time": 113770, "pitch": 64, "duration": 480, "velocity": 75}, {"time": 113780, "pitch": 67, "duration": 480, "velocity": 80}, {"time": 114240, "pitch": 60, "duration": 80, "velocity": 80}, {"time": 114250, "pitch": 64, "duration": 70, "velocity": 85}, {"time": 114260, "pitch": 67, "duration": 60, "velocity": 90}, {"time": 114480, "pitch": 60, "duration": 60, "velocity": 80}, {"time": 114490, "pitch": 64, "duration": 50, "velocity": 85}, {"time": 114500, "pitch": 67, "duration": 40, "velocity": 90}, {"time": 114600, "pitch": 67, "duration": 60, "velocity": 70}, {"time": 114610, "pitch": 64, "duration": 50, "velocity": 65}, {"time": 114620, "pitch": 60, "duration": 40, "velocity": 60}, {"time": 114720, "pitch": 59, "duration": 480, "velocity": 70}, {"time": 114730, "pitch": 62, "duration": 480, "velocity": 75}, {"time": 114740, "pitch": 67, "duration": 480, "velocity": 80}, {"time": 115200, "pitch": 59, "duration": 80, "velocity": 80}, {"time": 115210, "pitch": 62, "duration": 70, "velocity": 85}, {"time": 115220, "pitch": 67, "duration": 60, "velocity": 90}, {"time": 115440, "pitch": 59, "duration": 60, "velocity": 80}, {"time": 115450, "pitch": 62, "duration": 50, "velocity": 85}, {"time": 115460, "pitch": 67, "duration": 40, "velocity": 90}, {"time": 115560, "pitch": 67, "duration": 60, "velocity": 70}, {"time": 115570, "pitch": 62, "duration": 50, "velocity": 65}, {"time": 115580, "pitch": 59, "duration": 40, "velocity": 60}, {"time": 115680, "pitch": 59, "duration": 480, "velocity": 70}, {"time": 115690, "pitch": 62, "duration": 480, "velocity": 75}, {"time": 115700, "pitch": 67, "duration": 480, "velocity": 80}, {"time": 116160, "pitch": 59, "duration": 80, "velocity": 80}, {"time": 116170, "pitch": 62, "duration": 70, "velocity": 85}, {"time": 116180, "pitch": 67, "duration": 60, "velocity": 90}, {"time": 116400, "pitch": 59, "duration": 60, "velocity": 80}, {"time": 116410, "pitch": 62, "duration": 50, "velocity": 85}, {"time": 116420, "pitch": 67, "duration": 40, "velocity": 90}, {"time": 116520, "pitch": 67, "duration": 60, "velocity": 70}, {"time": 116530, "pitch": 62, "duration": 50, "velocity": 65}, {"time": 116540, "pitch": 59, "duration": 40, "velocity": 60}, {"time": 116640, "pitch": 57, "duration": 480, "velocity": 70}, {"time": 116650, "pitch": 62, "duration": 480, "velocity": 75}, {"time": 116660, "pitch": 65, "duration": 480, "velocity": 80}, {"time": 117120, "pitch": 57, "duration": 80, "velocity": 80}, {"time": 117130, "pitch": 62, "duration": 70, "velocity": 85}, {"time": 117140, "pitch": 65, "duration": 60, "velocity": 90}, {"time": 117360, "pitch": 57, "duration": 60, "velocity": 80}, {"time": 117370, "pitch": 62, "duration": 50, "velocity": 85}, {"time": 117380, "pitch": 65, "duration": 40, "velocity": 90}, {"time": 117480, "pitch": 65, "duration": 60, "velocity": 70}, {"time": 117490, "pitch": 62, "duration": 50, "velocity": 65}, {"time": 117500, "pitch": 57, "duration": 40, "velocity": 60}, {"time": 117600, "pitch": 57, "duration": 480, "velocity": 70}, {"time": 117610, "pitch": 62, "duration": 480, "velocity": 75}, {"time": 117620, "pitch": 65, "duration": 480, "velocity": 80}, {"time": 118080, "pitch": 57, "duration": 80, "velocity": 80}, {"time": 118090, "pitch": 62, "duration": 70, "velocity": 85}, {"time": 118100, "pitch": 65, "duration": 60, "velocity": 90}, {"time": 118320, "pitch": 57, "duration": 60, "velocity": 80}, {"time": 118330, "pitch": 62, "duration": 50, "velocity": 85}, {"time": 118340, "pitch": 65, "duration": 40, "velocity": 90}, {"time": 118440, "pitch": 65, "duration": 60, "velocity": 70}, {"time": 118450, "pitch": 62, "duration": 50, "velocity": 65}, {"time": 118460, "pitch": 57, "duration": 40, "velocity": 60}, {"time": 118560, "pitch": 57, "duration": 340, "velocity": 80}, {"time": 118570, "pitch": 62, "duration": 330, "velocity": 85}, {"time": 118580, "pitch": 65, "duration": 320, "velocity": 90}, {"time": 118920, "pitch": 64, "duration": 340, "velocity": 90}, {"time": 118930, "pitch": 60, "duration": 330, "velocity": 85}, {"time": 118940, "pitch": 55, "duration": 320, "velocity": 80}, {"time": 119280, "pitch": 57, "duration": 720, "velocity": 80}, {"time": 119290, "pitch": 60, "duration": 720, "velocity": 85}, {"time": 119300, "pitch": 65, "duration": 720, "velocity": 90}, {"time": 120000, "pitch": 57, "duration": 80, "velocity": 80}, {"time": 120010, "pitch": 60, "duration": 70, "velocity": 85}, {"time": 120020, "pitch": 65, "duration": 60, "velocity": 90}, {"time": 120240, "pitch": 57, "duration": 60, "velocity": 80}, {"time": 120250, "pitch": 60, "duration": 50, "velocity": 85}, {"time": 120260, "pitch": 65, "duration": 40, "velocity": 90}, {"time": 120360, "pitch": 65, "duration": 60, "velocity": 70}, {"time": 120370, "pitch": 60, "duration": 50, "velocity": 65}, {"time": 120380, "pitch": 57, "duration": 40, "velocity": 60}, {"time": 120480, "pitch": 57, "duration": 480, "velocity": 70}, {"time": 120490, "pitch": 60, "duration": 480, "velocity": 75}, {"time": 120500, "pitch": 65, "duration": 480, "velocity": 80}, {"time": 120960, "pitch": 57, "duration": 80, "velocity": 80}, {"time": 120970, "pitch": 60, "duration": 70, "velocity": 85}, {"time": 120980, "pitch": 65, "duration": 60, "velocity": 90}, {"time": 121200, "pitch": 57, "duration": 60, "velocity": 80}, {"time": 121210, "pitch": 60, "duration": 50, "velocity": 85}, {"time": 121220, "pitch": 65, "duration": 40, "velocity": 90}, {"time": 121320, "pitch": 65, "duration": 60, "velocity": 70}, {"time": 121330, "pitch": 60, "duration": 50, "velocity": 65}, {"time": 121340, "pitch": 57, "duration": 40, "velocity": 60}, {"time": 121440, "pitch": 57, "duration": 480, "velocity": 70}, {"time": 121450, "pitch": 60, "duration": 480, "velocity": 75}, {"time": 121460, "pitch": 65, "duration": 480, "velocity": 80}, {"time": 121920, "pitch": 57, "duration": 80, "velocity": 80}, {"time": 121930, "pitch": 60, "duration": 70, "velocity": 85}, {"time": 121940, "pitch": 65, "duration": 60, "velocity": 90}, {"time": 122160, "pitch": 57, "duration": 60, "velocity": 80}, {"time": 122170, "pitch": 60, "duration": 50, "velocity": 85}, {"time": 122180, "pitch": 65, "duration": 40, "velocity": 90}, {"time": 122280, "pitch": 65, "duration": 60, "velocity": 70}, {"time": 122290, "pitch": 60, "duration": 50, "velocity": 65}, {"time": 122300, "pitch": 57, "duration": 40, "velocity": 60}, {"time": 122640, "pitch": 57, "duration": 960, "velocity": 90}, {"time": 122880, "pitch": 58, "duration": 960, "velocity": 95}, {"time": 123120, "pitch": 65, "duration": 940, "velocity": 100}, {"time": 123600, "pitch": 57, "duration": 700, "velocity": 90}, {"time": 123840, "pitch": 58, "duration": 460, "velocity": 95}, {"time": 124080, "pitch": 65, "duration": 220, "velocity": 100}, {"time": 124560, "pitch": 57, "duration": 960, "velocity": 90}, {"time": 124800, "pitch": 60, "duration": 960, "velocity": 95}, {"time": 125040, "pitch": 65, "duration": 940, "velocity": 100}, {"time": 125520, "pitch": 57, "duration": 700, "velocity": 90}, {"time": 125760, "pitch": 60, "duration": 460, "velocity": 95}, {"time": 126000, "pitch": 65, "duration": 220, "velocity": 100}, {"time": 126720, "pitch": 55, "duration": 100, "velocity": 100}, {"time": 126730, "pitch": 60, "duration": 90, "velocity": 105}, {"time": 126740, "pitch": 64, "duration": 80, "velocity": 110}, {"time": 127210, "pitch": 60, "duration": 360, "velocity": 100}, {"time": 127220, "pitch": 57, "duration": 350, "velocity": 105}, {"time": 127230, "pitch": 65, "duration": 340, "velocity": 110}, {"time": 127700, "pitch": 55, "duration": 90, "velocity": 100}, {"time": 127710, "pitch": 60, "duration": 80, "velocity": 105}, {"time": 127720, "pitch": 64, "duration": 90, "velocity": 110}, {"time": 128190, "pitch": 57, "duration": 340, "velocity": 100}, {"time": 128200, "pitch": 60, "duration": 330, "velocity": 105}, {"time": 128210, "pitch": 65, "duration": 320, "velocity": 110}, {"time": 128550, "pitch": 64, "duration": 100, "velocity": 110}, {"time": 128560, "pitch": 60, "duration": 90, "velocity": 105}, {"time": 128570, "pitch": 55, "duration": 80, "velocity": 100}, {"time": 128910, "pitch": 55, "duration": 1180, "velocity": 100}, {"time": 128920, "pitch": 59, "duration": 1170, "velocity": 105}, {"time": 128930, "pitch": 62, "duration": 1160, "velocity": 110}, {"time": 130350, "pitch": 57, "duration": 960, "velocity": 90}, {"time": 130590, "pitch": 58, "duration": 960, "velocity": 95}, {"time": 130830, "pitch": 65, "duration": 940, "velocity": 100}, {"time": 131310, "pitch": 57, "duration": 700, "velocity": 90}, {"time": 131550, "pitch": 58, "duration": 460, "velocity": 95}, {"time": 131790, "pitch": 65, "duration": 220, "velocity": 100}, {"time": 132270, "pitch": 57, "duration": 960, "velocity": 90}, {"time": 132510, "pitch": 60, "duration": 960, "velocity": 95}, {"time": 132750, "pitch": 65, "duration": 940, "velocity": 100}, {"time": 133230, "pitch": 57, "duration": 700, "velocity": 90}, {"time": 133470, "pitch": 60, "duration": 460, "velocity": 95}, {"time": 133710, "pitch": 65, "duration": 220, "velocity": 100}, {"time": 133950, "pitch": 57, "duration": 940, "velocity": 80}, {"time": 133960, "pitch": 60, "duration": 930, "velocity": 85}, {"time": 133970, "pitch": 65, "duration": 920, "velocity": 90}, {"time": 134910, "pitch": 67, "duration": 940, "velocity": 90}, {"time": 134920, "pitch": 62, "duration": 930, "velocity": 85}, {"time": 134930, "pitch": 59, "duration": 920, "velocity": 80}, {"time": 135870, "pitch": 57, "duration": 940, "velocity": 80}, {"time": 135880, "pitch": 60, "duration": 930, "velocity": 85}, {"time": 135890, "pitch": 65, "duration": 920, "velocity": 90}, {"time": 136830, "pitch": 67, "duration": 940, "velocity": 90}, {"time": 136840, "pitch": 62, "duration": 930, "velocity": 85}, {"time": 136850, "pitch": 59, "duration": 920, "velocity": 80}, {"time": 153390, "pitch": 57, "duration": 1660, "velocity": 110}, {"time": 153630, "pitch": 58, "duration": 1420, "velocity": 115}, {"time": 153870, "pitch": 65, "duration": 1180, "velocity": 120}, {"time": 155310, "pitch": 55, "duration": 1660, "velocity": 110}, {"time": 155550, "pitch": 60, "duration": 1420, "velocity": 115}, {"time": 155790, "pitch": 67, "duration": 1180, "velocity": 120}, {"time": 156990, "pitch": 57, "duration": 700, "velocity": 80}, {"time": 157000, "pitch": 62, "duration": 690, "velocity": 85}, {"time": 157010, "pitch": 65, "duration": 680, "velocity": 90}, {"time": 157710, "pitch": 64, "duration": 700, "velocity": 90}, {"time": 157720, "pitch": 60, "duration": 690, "velocity": 85}, {"time": 157730, "pitch": 55, "duration": 680, "velocity": 80}, {"time": 158430, "pitch": 57, "duration": 2380, "velocity": 80}, {"time": 158440, "pitch": 60, "duration": 2370, "velocity": 85}, {"time": 158450, "pitch": 65, "duration": 2360, "velocity": 90}, {"time": 161070, "pitch": 57, "duration": 1660, "velocity": 110}, {"time": 161310, "pitch": 60, "duration": 1420, "velocity": 115}, {"time": 161550, "pitch": 65, "duration": 1180, "velocity": 120}, {"time": 162990, "pitch": 55, "duration": 1660, "velocity": 110}, {"time": 163230, "pitch": 60, "duration": 1420, "velocity": 115}, {"time": 163470, "pitch": 67, "duration": 1180, "velocity": 120}, {"time": 164670, "pitch": 57, "duration": 700, "velocity": 80}, {"time": 164680, "pitch": 60, "duration": 690, "velocity": 85}, {"time": 164690, "pitch": 65, "duration": 680, "velocity": 90}, {"time": 165390, "pitch": 67, "duration": 1180, "velocity": 90}, {"time": 165400, "pitch": 62, "duration": 1170, "velocity": 85}, {"time": 165410, "pitch": 59, "duration": 1160, "velocity": 80}, {"time": 166590, "pitch": 57, "duration": 700, "velocity": 80}, {"time": 166600, "pitch": 60, "duration": 690, "velocity": 85}, {"time": 166610, "pitch": 65, "duration": 680, "velocity": 90}, {"time": 167310, "pitch": 67, "duration": 3100, "velocity": 90}, {"time": 167320, "pitch": 62, "duration": 3090, "velocity": 85}, {"time": 167330, "pitch": 59, "duration": 3080, "velocity": 80}, {"time": 170430, "pitch": 62, "duration": 480, "velocity": 70}, {"time": 170440, "pitch": 66, "duration": 480, "velocity": 75}, {"time": 170450, "pitch": 69, "duration": 480, "velocity": 80}, {"time": 170910, "pitch": 62, "duration": 80, "velocity": 80}, {"time": 170920, "pitch": 66, "duration": 70, "velocity": 85}, {"time": 170930, "pitch": 69, "duration": 60, "velocity": 90}, {"time": 171150, "pitch": 62, "duration": 60, "velocity": 80}, {"time": 171160, "pitch": 66, "duration": 50, "velocity": 85}, {"time": 171170, "pitch": 69, "duration": 40, "velocity": 90}, {"time": 171270, "pitch": 69, "duration": 60, "velocity": 70}, {"time": 171280, "pitch": 66, "duration": 50, "velocity": 65}, {"time": 171290, "pitch": 62, "duration": 40, "velocity": 60}, {"time": 171390, "pitch": 62, "duration": 480, "velocity": 70}, {"time": 171400, "pitch": 66, "duration": 480, "velocity": 75}, {"time": 171410, "pitch": 69, "duration": 480, "velocity": 80}, {"time": 171870, "pitch": 62, "duration": 80, "velocity": 80}, {"time": 171880, "pitch": 66, "duration": 70, "velocity": 85}, {"time": 171890, "pitch": 69, "duration": 60, "velocity": 90}, {"time": 172110, "pitch": 62, "duration": 60, "velocity": 80}, {"time": 172120, "pitch": 66, "duration": 50, "velocity": 85}, {"time": 172130, "pitch": 69, "duration": 40, "velocity": 90}, {"time": 172230, "pitch": 69, "duration": 60, "velocity": 70}, {"time": 172240, "pitch": 66, "duration": 50, "velocity": 65}, {"time": 172250, "pitch": 62, "duration": 40, "velocity": 60}, {"time": 172350, "pitch": 61, "duration": 480, "velocity": 70}, {"time": 172360, "pitch": 64, "duration": 480, "velocity": 75}, {"time": 172370, "pitch": 69, "duration": 480, "velocity": 80}, {"time": 172830, "pitch": 61, "duration": 80, "velocity": 80}, {"time": 172840, "pitch": 64, "duration": 70, "velocity": 85}, {"time": 172850, "pitch": 69, "duration": 60, "velocity": 90}, {"time": 173070, "pitch": 61, "duration": 60, "velocity": 80}, {"time": 173080, "pitch": 64, "duration": 50, "velocity": 85}, {"time": 173090, "pitch": 69, "duration": 40, "velocity": 90}, {"time": 173190, "pitch": 69, "duration": 60, "velocity": 70}, {"time": 173200, "pitch": 64, "duration": 50, "velocity": 65}, {"time": 173210, "pitch": 61, "duration": 40, "velocity": 60}, {"time": 173310, "pitch": 61, "duration": 480, "velocity": 70}, {"time": 173320, "pitch": 64, "duration": 480, "velocity": 75}, {"time": 173330, "pitch": 69, "duration": 480, "velocity": 80}, {"time": 173790, "pitch": 61, "duration": 80, "velocity": 80}, {"time": 173800, "pitch": 64, "duration": 70, "velocity": 85}, {"time": 173810, "pitch": 69, "duration": 60, "velocity": 90}, {"time": 174030, "pitch": 61, "duration": 60, "velocity": 80}, {"time": 174040, "pitch": 64, "duration": 50, "velocity": 85}, {"time": 174050, "pitch": 69, "duration": 40, "velocity": 90}, {"time": 174150, "pitch": 69, "duration": 60, "velocity": 70}, {"time": 174160, "pitch": 64, "duration": 50, "velocity": 65}, {"time": 174170, "pitch": 61, "duration": 40, "velocity": 60}, {"time": 174270, "pitch": 59, "duration": 480, "velocity": 70}, {"time": 174280, "pitch": 62, "duration": 480, "velocity": 75}, {"time": 174290, "pitch": 66, "duration": 480, "velocity": 80}, {"time": 174750, "pitch": 59, "duration": 80, "velocity": 80}, {"time": 174760, "pitch": 62, "duration": 70, "velocity": 85}, {"time": 174770, "pitch": 66, "duration": 60, "velocity": 90}, {"time": 174990, "pitch": 59, "duration": 60, "velocity": 80}, {"time": 175000, "pitch": 62, "duration": 50, "velocity": 85}, {"time": 175010, "pitch": 66, "duration": 40, "velocity": 90}, {"time": 175110, "pitch": 66, "duration": 60, "velocity": 70}, {"time": 175120, "pitch": 62, "duration": 50, "velocity": 65}, {"time": 175130, "pitch": 59, "duration": 40, "velocity": 60}, {"time": 175230, "pitch": 59, "duration": 480, "velocity": 70}, {"time": 175240, "pitch": 62, "duration": 480, "velocity": 75}, {"time": 175250, "pitch": 66, "duration": 480, "velocity": 80}, {"time": 175710, "pitch": 59, "duration": 80, "velocity": 80}, {"time": 175720, "pitch": 62, "duration": 70, "velocity": 85}, {"time": 175730, "pitch": 66, "duration": 60, "velocity": 90}, {"time": 175950, "pitch": 59, "duration": 60, "velocity": 80}, {"time": 175960, "pitch": 62, "duration": 50, "velocity": 85}, {"time": 175970, "pitch": 66, "duration": 40, "velocity": 90}, {"time": 176070, "pitch": 66, "duration": 60, "velocity": 70}, {"time": 176080, "pitch": 62, "duration": 50, "velocity": 65}, {"time": 176090, "pitch": 59, "duration": 40, "velocity": 60}, {"time": 176190, "pitch": 59, "duration": 480, "velocity": 70}, {"time": 176200, "pitch": 62, "duration": 480, "velocity": 75}, {"time": 176210, "pitch": 67, "duration": 480, "velocity": 80}, {"time": 176670, "pitch": 59, "duration": 80, "velocity": 80}, {"time": 176680, "pitch": 62, "duration": 70, "velocity": 85}, {"time": 176690, "pitch": 67, "duration": 60, "velocity": 90}, {"time": 176910, "pitch": 59, "duration": 60, "velocity": 80}, {"time": 176920, "pitch": 62, "duration": 50, "velocity": 85}, {"time": 176930, "pitch": 67, "duration": 40, "velocity": 90}, {"time": 177030, "pitch": 67, "duration": 60, "velocity": 70}, {"time": 177040, "pitch": 62, "duration": 50, "velocity": 65}, {"time": 177050, "pitch": 59, "duration": 40, "velocity": 60}, {"time": 177150, "pitch": 59, "duration": 480, "velocity": 70}, {"time": 177160, "pitch": 62, "duration": 480, "velocity": 75}, {"time": 177170, "pitch": 67, "duration": 480, "velocity": 80}, {"time": 177630, "pitch": 59, "duration": 80, "velocity": 80}, {"time": 177640, "pitch": 62, "duration": 70, "velocity": 85}, {"time": 177650, "pitch": 67, "duration": 60, "velocity": 90}, {"time": 177870, "pitch": 59, "duration": 60, "velocity": 80}, {"time": 177880, "pitch": 62, "duration": 50, "velocity": 85}, {"time": 177890, "pitch": 67, "duration": 40, "velocity": 90}, {"time": 177990, "pitch": 67, "duration": 60, "velocity": 70}, {"time": 178000, "pitch": 62, "duration": 50, "velocity": 65}, {"time": 178010, "pitch": 59, "duration": 40, "velocity": 60}, {"time": 178110, "pitch": 62, "duration": 480, "velocity": 70}, {"time": 178120, "pitch": 66, "duration": 480, "velocity": 75}, {"time": 178130, "pitch": 69, "duration": 480, "velocity": 80}, {"time": 178590, "pitch": 62, "duration": 80, "velocity": 80}, {"time": 178600, "pitch": 66, "duration": 70, "velocity": 85}, {"time": 178610, "pitch": 69, "duration": 60, "velocity": 90}, {"time": 178830, "pitch": 62, "duration": 60, "velocity": 80}, {"time": 178840, "pitch": 66, "duration": 50, "velocity": 85}, {"time": 178850, "pitch": 69, "duration": 40, "velocity": 90}, {"time": 178950, "pitch": 69, "duration": 60, "velocity": 70}, {"time": 178960, "pitch": 66, "duration": 50, "velocity": 65}, {"time": 178970, "pitch": 62, "duration": 40, "velocity": 60}, {"time": 179070, "pitch": 62, "duration": 480, "velocity": 70}, {"time": 179080, "pitch": 66, "duration": 480, "velocity": 75}, {"time": 179090, "pitch": 69, "duration": 480, "velocity": 80}, {"time": 179550, "pitch": 62, "duration": 80, "velocity": 80}, {"time": 179560, "pitch": 66, "duration": 70, "velocity": 85}, {"time": 179570, "pitch": 69, "duration": 60, "velocity": 90}, {"time": 179790, "pitch": 62, "duration": 60, "velocity": 80}, {"time": 179800, "pitch": 66, "duration": 50, "velocity": 85}, {"time": 179810, "pitch": 69, "duration": 40, "velocity": 90}, {"time": 179910, "pitch": 69, "duration": 60, "velocity": 70}, {"time": 179920, "pitch": 66, "duration": 50, "velocity": 65}, {"time": 179930, "pitch": 62, "duration": 40, "velocity": 60}, {"time": 180030, "pitch": 61, "duration": 480, "velocity": 70}, {"time": 180040, "pitch": 64, "duration": 480, "velocity": 75}, {"time": 180050, "pitch": 69, "duration": 480, "velocity": 80}, {"time": 180510, "pitch": 61, "duration": 80, "velocity": 80}, {"time": 180520, "pitch": 64, "duration": 70, "velocity": 85}, {"time": 180530, "pitch": 69, "duration": 60, "velocity": 90}, {"time": 180750, "pitch": 61, "duration": 60, "velocity": 80}, {"time": 180760, "pitch": 64, "duration": 50, "velocity": 85}, {"time": 180770, "pitch": 69, "duration": 40, "velocity": 90}, {"time": 180870, "pitch": 69, "duration": 60, "velocity": 70}, {"time": 180880, "pitch": 64, "duration": 50, "velocity": 65}, {"time": 180890, "pitch": 61, "duration": 40, "velocity": 60}, {"time": 180990, "pitch": 61, "duration": 480, "velocity": 70}, {"time": 181000, "pitch": 64, "duration": 480, "velocity": 75}, {"time": 181010, "pitch": 69, "duration": 480, "velocity": 80}, {"time": 181470, "pitch": 61, "duration": 80, "velocity": 80}, {"time": 181480, "pitch": 64, "duration": 70, "velocity": 85}, {"time": 181490, "pitch": 69, "duration": 60, "velocity": 90}, {"time": 181710, "pitch": 61, "duration": 60, "velocity": 80}, {"time": 181720, "pitch": 64, "duration": 50, "velocity": 85}, {"time": 181730, "pitch": 69, "duration": 40, "velocity": 90}, {"time": 181830, "pitch": 69, "duration": 60, "velocity": 70}, {"time": 181840, "pitch": 64, "duration": 50, "velocity": 65}, {"time": 181850, "pitch": 61, "duration": 40, "velocity": 60}, {"time": 181950, "pitch": 59, "duration": 480, "velocity": 70}, {"time": 181960, "pitch": 62, "duration": 480, "velocity": 75}, {"time": 181970, "pitch": 67, "duration": 480, "velocity": 80}, {"time": 182430, "pitch": 59, "duration": 80, "velocity": 80}, {"time": 182440, "pitch": 62, "duration": 70, "velocity": 85}, {"time": 182450, "pitch": 67, "duration": 60, "velocity": 90}, {"time": 182670, "pitch": 59, "duration": 60, "velocity": 80}, {"time": 182680, "pitch": 62, "duration": 50, "velocity": 85}, {"time": 182690, "pitch": 67, "duration": 40, "velocity": 90}, {"time": 182790, "pitch": 67, "duration": 60, "velocity": 70}, {"time": 182800, "pitch": 62, "duration": 50, "velocity": 65}, {"time": 182810, "pitch": 59, "duration": 40, "velocity": 60}, {"time": 182910, "pitch": 59, "duration": 480, "velocity": 70}, {"time": 182920, "pitch": 62, "duration": 480, "velocity": 75}, {"time": 182930, "pitch": 67, "duration": 480, "velocity": 80}, {"time": 183390, "pitch": 59, "duration": 80, "velocity": 80}, {"time": 183400, "pitch": 62, "duration": 70, "velocity": 85}, {"time": 183410, "pitch": 67, "duration": 60, "velocity": 90}, {"time": 183630, "pitch": 59, "duration": 60, "velocity": 80}, {"time": 183640, "pitch": 62, "duration": 50, "velocity": 85}, {"time": 183650, "pitch": 67, "duration": 40, "velocity": 90}, {"time": 183750, "pitch": 67, "duration": 60, "velocity": 70}, {"time": 183760, "pitch": 62, "duration": 50, "velocity": 65}, {"time": 183770, "pitch": 59, "duration": 40, "velocity": 60}, {"time": 183870, "pitch": 57, "duration": 480, "velocity": 70}, {"time": 183880, "pitch": 61, "duration": 480, "velocity": 75}, {"time": 183890, "pitch": 64, "duration": 480, "velocity": 80}, {"time": 184350, "pitch": 57, "duration": 80, "velocity": 80}, {"time": 184360, "pitch": 61, "duration": 70, "velocity": 85}, {"time": 184370, "pitch": 64, "duration": 60, "velocity": 90}, {"time": 184590, "pitch": 57, "duration": 60, "velocity": 80}, {"time": 184600, "pitch": 61, "duration": 50, "velocity": 85}, {"time": 184610, "pitch": 64, "duration": 40, "velocity": 90}, {"time": 184710, "pitch": 64, "duration": 60, "velocity": 70}, {"time": 184720, "pitch": 61, "duration": 50, "velocity": 65}, {"time": 184730, "pitch": 57, "duration": 40, "velocity": 60}, {"time": 184830, "pitch": 59, "duration": 480, "velocity": 70}, {"time": 184840, "pitch": 62, "duration": 480, "velocity": 75}, {"time": 184850, "pitch": 67, "duration": 480, "velocity": 80}, {"time": 185310, "pitch": 59, "duration": 80, "velocity": 80}, {"time": 185320, "pitch": 62, "duration": 70, "velocity": 85}, {"time": 185330, "pitch": 67, "duration": 60, "velocity": 90}, {"time": 185550, "pitch": 59, "duration": 60, "velocity": 80}, {"time": 185560, "pitch": 62, "duration": 50, "velocity": 85}, {"time": 185570, "pitch": 67, "duration": 40, "velocity": 90}, {"time": 185670, "pitch": 67, "duration": 60, "velocity": 70}, {"time": 185680, "pitch": 62, "duration": 50, "velocity": 65}, {"time": 185690, "pitch": 59, "duration": 40, "velocity": 60}, {"time": 185790, "pitch": 62, "duration": 480, "velocity": 70}, {"time": 185800, "pitch": 66, "duration": 480, "velocity": 75}, {"time": 185810, "pitch": 69, "duration": 480, "velocity": 80}, {"time": 186270, "pitch": 62, "duration": 80, "velocity": 80}, {"time": 186280, "pitch": 66, "duration": 70, "velocity": 85}, {"time": 186290, "pitch": 69, "duration": 60, "velocity": 90}, {"time": 186510, "pitch": 62, "duration": 60, "velocity": 80}, {"time": 186520, "pitch": 66, "duration": 50, "velocity": 85}, {"time": 186530, "pitch": 69, "duration": 40, "velocity": 90}, {"time": 186630, "pitch": 69, "duration": 60, "velocity": 70}, {"time": 186640, "pitch": 66, "duration": 50, "velocity": 65}, {"time": 186650, "pitch": 62, "duration": 40, "velocity": 60}, {"time": 186750, "pitch": 62, "duration": 480, "velocity": 70}, {"time": 186760, "pitch": 66, "duration": 480, "velocity": 75}, {"time": 186770, "pitch": 69, "duration": 480, "velocity": 80}, {"time": 187230, "pitch": 62, "duration": 80, "velocity": 80}, {"time": 187240, "pitch": 66, "duration": 70, "velocity": 85}, {"time": 187250, "pitch": 69, "duration": 60, "velocity": 90}, {"time": 187470, "pitch": 62, "duration": 60, "velocity": 80}, {"time": 187480, "pitch": 66, "duration": 50, "velocity": 85}, {"time": 187490, "pitch": 69, "duration": 40, "velocity": 90}, {"time": 187590, "pitch": 69, "duration": 60, "velocity": 70}, {"time": 187600, "pitch": 66, "duration": 50, "velocity": 65}, {"time": 187610, "pitch": 62, "duration": 40, "velocity": 60}, {"time": 187710, "pitch": 61, "duration": 480, "velocity": 70}, {"time": 187720, "pitch": 64, "duration": 480, "velocity": 75}, {"time": 187730, "pitch": 69, "duration": 480, "velocity": 80}, {"time": 188190, "pitch": 61, "duration": 80, "velocity": 80}, {"time": 188200, "pitch": 64, "duration": 70, "velocity": 85}, {"time": 188210, "pitch": 69, "duration": 60, "velocity": 90}, {"time": 188430, "pitch": 61, "duration": 60, "velocity": 80}, {"time": 188440, "pitch": 64, "duration": 50, "velocity": 85}, {"time": 188450, "pitch": 69, "duration": 40, "velocity": 90}, {"time": 188550, "pitch": 69, "duration": 60, "velocity": 70}, {"time": 188560, "pitch": 64, "duration": 50, "velocity": 65}, {"time": 188570, "pitch": 61, "duration": 40, "velocity": 60}, {"time": 188670, "pitch": 61, "duration": 480, "velocity": 70}, {"time": 188680, "pitch": 64, "duration": 480, "velocity": 75}, {"time": 188690, "pitch": 69, "duration": 480, "velocity": 80}, {"time": 189150, "pitch": 61, "duration": 80, "velocity": 80}, {"time": 189160, "pitch": 64, "duration": 70, "velocity": 85}, {"time": 189170, "pitch": 69, "duration": 60, "velocity": 90}, {"time": 189390, "pitch": 61, "duration": 60, "velocity": 80}, {"time": 189400, "pitch": 64, "duration": 50, "velocity": 85}, {"time": 189410, "pitch": 69, "duration": 40, "velocity": 90}, {"time": 189510, "pitch": 69, "duration": 60, "velocity": 70}, {"time": 189520, "pitch": 64, "duration": 50, "velocity": 65}, {"time": 189530, "pitch": 61, "duration": 40, "velocity": 60}, {"time": 189630, "pitch": 59, "duration": 480, "velocity": 70}, {"time": 189640, "pitch": 62, "duration": 480, "velocity": 75}, {"time": 189650, "pitch": 66, "duration": 480, "velocity": 80}, {"time": 190110, "pitch": 59, "duration": 80, "velocity": 80}, {"time": 190120, "pitch": 62, "duration": 70, "velocity": 85}, {"time": 190130, "pitch": 66, "duration": 60, "velocity": 90}, {"time": 190350, "pitch": 59, "duration": 60, "velocity": 80}, {"time": 190360, "pitch": 62, "duration": 50, "velocity": 85}, {"time": 190370, "pitch": 66, "duration": 40, "velocity": 90}, {"time": 190470, "pitch": 66, "duration": 60, "velocity": 70}, {"time": 190480, "pitch": 62, "duration": 50, "velocity": 65}, {"time": 190490, "pitch": 59, "duration": 40, "velocity": 60}, {"time": 190590, "pitch": 59, "duration": 480, "velocity": 70}, {"time": 190600, "pitch": 62, "duration": 480, "velocity": 75}, {"time": 190610, "pitch": 66, "duration": 480, "velocity": 80}, {"time": 191070, "pitch": 59, "duration": 80, "velocity": 80}, {"time": 191080, "pitch": 62, "duration": 70, "velocity": 85}, {"time": 191090, "pitch": 66, "duration": 60, "velocity": 90}, {"time": 191310, "pitch": 59, "duration": 60, "velocity": 80}, {"time": 191320, "pitch": 62, "duration": 50, "velocity": 85}, {"time": 191330, "pitch": 66, "duration": 40, "velocity": 90}, {"time": 191430, "pitch": 66, "duration": 60, "velocity": 70}, {"time": 191440, "pitch": 62, "duration": 50, "velocity": 65}, {"time": 191450, "pitch": 59, "duration": 40, "velocity": 60}, {"time": 191550, "pitch": 59, "duration": 480, "velocity": 70}, {"time": 191560, "pitch": 62, "duration": 480, "velocity": 75}, {"time": 191570, "pitch": 67, "duration": 480, "velocity": 80}, {"time": 192030, "pitch": 59, "duration": 80, "velocity": 80}, {"time": 192040, "pitch": 62, "duration": 70, "velocity": 85}, {"time": 192050, "pitch": 67, "duration": 60, "velocity": 90}, {"time": 192270, "pitch": 59, "duration": 60, "velocity": 80}, {"time": 192280, "pitch": 62, "duration": 50, "velocity": 85}, {"time": 192290, "pitch": 67, "duration": 40, "velocity": 90}, {"time": 192390, "pitch": 67, "duration": 60, "velocity": 70}, {"time": 192400, "pitch": 62, "duration": 50, "velocity": 65}, {"time": 192410, "pitch": 59, "duration": 40, "velocity": 60}, {"time": 192510, "pitch": 59, "duration": 480, "velocity": 70}, {"time": 192520, "pitch": 62, "duration": 480, "velocity": 75}, {"time": 192530, "pitch": 67, "duration": 480, "velocity": 80}, {"time": 192990, "pitch": 59, "duration": 80, "velocity": 80}, {"time": 193000, "pitch": 62, "duration": 70, "velocity": 85}, {"time": 193010, "pitch": 67, "duration": 60, "velocity": 90}, {"time": 193230, "pitch": 59, "duration": 60, "velocity": 80}, {"time": 193240, "pitch": 62, "duration": 50, "velocity": 85}, {"time": 193250, "pitch": 67, "duration": 40, "velocity": 90}, {"time": 193350, "pitch": 67, "duration": 60, "velocity": 70}, {"time": 193360, "pitch": 62, "duration": 50, "velocity": 65}, {"time": 193370, "pitch": 59, "duration": 40, "velocity": 60}, {"time": 193470, "pitch": 62, "duration": 480, "velocity": 70}, {"time": 193480, "pitch": 66, "duration": 480, "velocity": 75}, {"time": 193490, "pitch": 69, "duration": 480, "velocity": 80}, {"time": 193950, "pitch": 62, "duration": 80, "velocity": 80}, {"time": 193960, "pitch": 66, "duration": 70, "velocity": 85}, {"time": 193970, "pitch": 69, "duration": 60, "velocity": 90}, {"time": 194190, "pitch": 62, "duration": 60, "velocity": 80}, {"time": 194200, "pitch": 66, "duration": 50, "velocity": 85}, {"time": 194210, "pitch": 69, "duration": 40, "velocity": 90}, {"time": 194310, "pitch": 69, "duration": 60, "velocity": 70}, {"time": 194320, "pitch": 66, "duration": 50, "velocity": 65}, {"time": 194330, "pitch": 62, "duration": 40, "velocity": 60}, {"time": 194430, "pitch": 62, "duration": 480, "velocity": 70}, {"time": 194440, "pitch": 66, "duration": 480, "velocity": 75}, {"time": 194450, "pitch": 69, "duration": 480, "velocity": 80}, {"time": 194910, "pitch": 62, "duration": 80, "velocity": 80}, {"time": 194920, "pitch": 66, "duration": 70, "velocity": 85}, {"time": 194930, "pitch": 69, "duration": 60, "velocity": 90}, {"time": 195150, "pitch": 62, "duration": 60, "velocity": 80}, {"time": 195160, "pitch": 66, "duration": 50, "velocity": 85}, {"time": 195170, "pitch": 69, "duration": 40, "velocity": 90}, {"time": 195270, "pitch": 69, "duration": 60, "velocity": 70}, {"time": 195280, "pitch": 66, "duration": 50, "velocity": 65}, {"time": 195290, "pitch": 62, "duration": 40, "velocity": 60}, {"time": 195390, "pitch": 61, "duration": 480, "velocity": 70}, {"time": 195400, "pitch": 64, "duration": 480, "velocity": 75}, {"time": 195410, "pitch": 69, "duration": 480, "velocity": 80}, {"time": 195870, "pitch": 61, "duration": 80, "velocity": 80}, {"time": 195880, "pitch": 64, "duration": 70, "velocity": 85}, {"time": 195890, "pitch": 69, "duration": 60, "velocity": 90}, {"time": 196110, "pitch": 61, "duration": 60, "velocity": 80}, {"time": 196120, "pitch": 64, "duration": 50, "velocity": 85}, {"time": 196130, "pitch": 69, "duration": 40, "velocity": 90}, {"time": 196230, "pitch": 69, "duration": 60, "velocity": 70}, {"time": 196240, "pitch": 64, "duration": 50, "velocity": 65}, {"time": 196250, "pitch": 61, "duration": 40, "velocity": 60}, {"time": 196350, "pitch": 61, "duration": 480, "velocity": 70}, {"time": 196360, "pitch": 64, "duration": 480, "velocity": 75}, {"time": 196370, "pitch": 69, "duration": 480, "velocity": 80}, {"time": 196830, "pitch": 61, "duration": 80, "velocity": 80}, {"time": 196840, "pitch": 64, "duration": 70, "velocity": 85}, {"time": 196850, "pitch": 69, "duration": 60, "velocity": 90}, {"time": 197070, "pitch": 61, "duration": 60, "velocity": 80}, {"time": 197080, "pitch": 64, "duration": 50, "velocity": 85}, {"time": 197090, "pitch": 69, "duration": 40, "velocity": 90}, {"time": 197190, "pitch": 69, "duration": 60, "velocity": 70}, {"time": 197200, "pitch": 64, "duration": 50, "velocity": 65}, {"time": 197210, "pitch": 61, "duration": 40, "velocity": 60}, {"time": 197310, "pitch": 59, "duration": 480, "velocity": 70}, {"time": 197320, "pitch": 64, "duration": 480, "velocity": 75}, {"time": 197330, "pitch": 67, "duration": 480, "velocity": 80}, {"time": 197790, "pitch": 59, "duration": 80, "velocity": 80}, {"time": 197800, "pitch": 64, "duration": 70, "velocity": 85}, {"time": 197810, "pitch": 67, "duration": 60, "velocity": 90}, {"time": 198030, "pitch": 59, "duration": 60, "velocity": 80}, {"time": 198040, "pitch": 64, "duration": 50, "velocity": 85}, {"time": 198050, "pitch": 67, "duration": 40, "velocity": 90}, {"time": 198150, "pitch": 67, "duration": 60, "velocity": 70}, {"time": 198160, "pitch": 64, "duration": 50, "velocity": 65}, {"time": 198170, "pitch": 59, "duration": 40, "velocity": 60}, {"time": 198270, "pitch": 59, "duration": 480, "velocity": 70}, {"time": 198280, "pitch": 64, "duration": 480, "velocity": 75}, {"time": 198290, "pitch": 67, "duration": 480, "velocity": 80}, {"time": 198750, "pitch": 59, "duration": 80, "velocity": 80}, {"time": 198760, "pitch": 64, "duration": 70, "velocity": 85}, {"time": 198770, "pitch": 67, "duration": 60, "velocity": 90}, {"time": 198990, "pitch": 59, "duration": 60, "velocity": 80}, {"time": 199000, "pitch": 64, "duration": 50, "velocity": 85}, {"time": 199010, "pitch": 67, "duration": 40, "velocity": 90}, {"time": 199110, "pitch": 67, "duration": 60, "velocity": 70}, {"time": 199120, "pitch": 64, "duration": 50, "velocity": 65}, {"time": 199130, "pitch": 59, "duration": 40, "velocity": 60}, {"time": 199230, "pitch": 59, "duration": 340, "velocity": 80}, {"time": 199240, "pitch": 64, "duration": 330, "velocity": 85}, {"time": 199250, "pitch": 67, "duration": 320, "velocity": 90}, {"time": 199590, "pitch": 66, "duration": 340, "velocity": 90}, {"time": 199600, "pitch": 62, "duration": 330, "velocity": 85}, {"time": 199610, "pitch": 57, "duration": 320, "velocity": 80}, {"time": 199950, "pitch": 59, "duration": 720, "velocity": 80}, {"time": 199960, "pitch": 62, "duration": 720, "velocity": 85}, {"time": 199970, "pitch": 67, "duration": 720, "velocity": 90}, {"time": 200670, "pitch": 59, "duration": 80, "velocity": 80}, {"time": 200680, "pitch": 62, "duration": 70, "velocity": 85}, {"time": 200690, "pitch": 67, "duration": 60, "velocity": 90}, {"time": 200910, "pitch": 59, "duration": 60, "velocity": 80}, {"time": 200920, "pitch": 62, "duration": 50, "velocity": 85}, {"time": 200930, "pitch": 67, "duration": 40, "velocity": 90}, {"time": 201030, "pitch": 67, "duration": 60, "velocity": 70}, {"time": 201040, "pitch": 62, "duration": 50, "velocity": 65}, {"time": 201050, "pitch": 59, "duration": 40, "velocity": 60}, {"time": 201150, "pitch": 59, "duration": 480, "velocity": 70}, {"time": 201160, "pitch": 62, "duration": 480, "velocity": 75}, {"time": 201170, "pitch": 67, "duration": 480, "velocity": 80}, {"time": 201630, "pitch": 59, "duration": 80, "velocity": 80}, {"time": 201640, "pitch": 62, "duration": 70, "velocity": 85}, {"time": 201650, "pitch": 67, "duration": 60, "velocity": 90}, {"time": 201870, "pitch": 59, "duration": 60, "velocity": 80}, {"time": 201880, "pitch": 62, "duration": 50, "velocity": 85}, {"time": 201890, "pitch": 67, "duration": 40, "velocity": 90}, {"time": 201990, "pitch": 67, "duration": 60, "velocity": 70}, {"time": 202000, "pitch": 62, "duration": 50, "velocity": 65}, {"time": 202010, "pitch": 59, "duration": 40, "velocity": 60}, {"time": 202110, "pitch": 59, "duration": 480, "velocity": 70}, {"time": 202120, "pitch": 62, "duration": 480, "velocity": 75}, {"time": 202130, "pitch": 67, "duration": 480, "velocity": 80}, {"time": 202590, "pitch": 59, "duration": 80, "velocity": 80}, {"time": 202600, "pitch": 62, "duration": 70, "velocity": 85}, {"time": 202610, "pitch": 67, "duration": 60, "velocity": 90}, {"time": 202830, "pitch": 59, "duration": 60, "velocity": 80}, {"time": 202840, "pitch": 62, "duration": 50, "velocity": 85}, {"time": 202850, "pitch": 67, "duration": 40, "velocity": 90}, {"time": 202950, "pitch": 67, "duration": 60, "velocity": 70}, {"time": 202960, "pitch": 62, "duration": 50, "velocity": 65}, {"time": 202970, "pitch": 59, "duration": 40, "velocity": 60}, {"time": 203070, "pitch": 62, "duration": 380, "velocity": 80}, {"time": 203080, "pitch": 66, "duration": 360, "velocity": 85}, {"time": 203090, "pitch": 69, "duration": 340, "velocity": 90}, {"time": 203430, "pitch": 69, "duration": 140, "velocity": 80}, {"time": 203440, "pitch": 66, "duration": 120, "velocity": 75}, {"time": 203450, "pitch": 62, "duration": 100, "velocity": 70}, {"time": 203550, "pitch": 62, "duration": 80, "velocity": 80}, {"time": 203560, "pitch": 66, "duration": 70, "velocity": 85}, {"time": 203570, "pitch": 69, "duration": 60, "velocity": 90}, {"time": 203790, "pitch": 62, "duration": 60, "velocity": 70}, {"time": 203800, "pitch": 66, "duration": 50, "velocity": 75}, {"time": 203810, "pitch": 69, "duration": 40, "velocity": 80}, {"time": 203910, "pitch": 69, "duration": 60, "velocity": 70}, {"time": 203920, "pitch": 66, "duration": 50, "velocity": 65}, {"time": 203930, "pitch": 62, "duration": 40, "velocity": 60}, {"time": 204030, "pitch": 60, "duration": 380, "velocity": 80}, {"time": 204040, "pitch": 64, "duration": 360, "velocity": 85}, {"time": 204050, "pitch": 67, "duration": 340, "velocity": 90}, {"time": 204390, "pitch": 67, "duration": 140, "velocity": 80}, {"time": 204400, "pitch": 64, "duration": 120, "velocity": 75}, {"time": 204410, "pitch": 60, "duration": 100, "velocity": 70}, {"time": 204510, "pitch": 60, "duration": 80, "velocity": 80}, {"time": 204520, "pitch": 64, "duration": 70, "velocity": 85}, {"time": 204530, "pitch": 67, "duration": 60, "velocity": 90}, {"time": 204750, "pitch": 60, "duration": 60, "velocity": 70}, {"time": 204760, "pitch": 64, "duration": 50, "velocity": 75}, {"time": 204770, "pitch": 67, "duration": 40, "velocity": 80}, {"time": 204870, "pitch": 67, "duration": 60, "velocity": 70}, {"time": 204880, "pitch": 64, "duration": 50, "velocity": 65}, {"time": 204890, "pitch": 60, "duration": 40, "velocity": 60}, {"time": 204990, "pitch": 59, "duration": 380, "velocity": 80}, {"time": 205000, "pitch": 62, "duration": 360, "velocity": 85}, {"time": 205010, "pitch": 67, "duration": 340, "velocity": 90}, {"time": 205350, "pitch": 67, "duration": 140, "velocity": 80}, {"time": 205360, "pitch": 62, "duration": 120, "velocity": 75}, {"time": 205370, "pitch": 59, "duration": 100, "velocity": 70}, {"time": 205470, "pitch": 59, "duration": 80, "velocity": 80}, {"time": 205480, "pitch": 62, "duration": 70, "velocity": 85}, {"time": 205490, "pitch": 67, "duration": 60, "velocity": 90}, {"time": 205710, "pitch": 59, "duration": 60, "velocity": 80}, {"time": 205720, "pitch": 62, "duration": 50, "velocity": 85}, {"time": 205730, "pitch": 67, "duration": 40, "velocity": 90}, {"time": 205830, "pitch": 67, "duration": 60, "velocity": 70}, {"time": 205840, "pitch": 62, "duration": 50, "velocity": 65}, {"time": 205850, "pitch": 59, "duration": 40, "velocity": 60}, {"time": 205950, "pitch": 59, "duration": 380, "velocity": 80}, {"time": 205960, "pitch": 62, "duration": 360, "velocity": 85}, {"time": 205970, "pitch": 67, "duration": 340, "velocity": 90}, {"time": 206310, "pitch": 67, "duration": 140, "velocity": 80}, {"time": 206320, "pitch": 62, "duration": 120, "velocity": 75}, {"time": 206330, "pitch": 59, "duration": 100, "velocity": 70}, {"time": 206430, "pitch": 59, "duration": 80, "velocity": 80}, {"time": 206440, "pitch": 62, "duration": 70, "velocity": 85}, {"time": 206450, "pitch": 67, "duration": 60, "velocity": 90}, {"time": 206670, "pitch": 59, "duration": 50, "velocity": 80}, {"time": 206680, "pitch": 62, "duration": 40, "velocity": 85}, {"time": 206690, "pitch": 67, "duration": 30, "velocity": 90}, {"time": 207150, "pitch": 62, "duration": 60, "velocity": 80}, {"time": 207160, "pitch": 66, "duration": 50, "velocity": 85}, {"time": 207170, "pitch": 69, "duration": 40, "velocity": 90}, {"time": 207270, "pitch": 69, "duration": 60, "velocity": 70}, {"time": 207280, "pitch": 66, "duration": 50, "velocity": 65}, {"time": 207290, "pitch": 62, "duration": 40, "velocity": 60}, {"time": 207390, "pitch": 62, "duration": 80, "velocity": 80}, {"time": 207400, "pitch": 66, "duration": 70, "velocity": 85}, {"time": 207410, "pitch": 69, "duration": 60, "velocity": 90}, {"time": 207870, "pitch": 60, "duration": 380, "velocity": 80}, {"time": 207880, "pitch": 64, "duration": 360, "velocity": 85}, {"time": 207890, "pitch": 67, "duration": 340, "velocity": 90}, {"time": 208230, "pitch": 67, "duration": 140, "velocity": 80}, {"time": 208240, "pitch": 64, "duration": 120, "velocity": 75}, {"time": 208250, "pitch": 60, "duration": 100, "velocity": 70}, {"time": 208350, "pitch": 60, "duration": 80, "velocity": 80}, {"time": 208360, "pitch": 64, "duration": 70, "velocity": 85}, {"time": 208370, "pitch": 67, "duration": 60, "velocity": 90}, {"time": 208590, "pitch": 60, "duration": 60, "velocity": 70}, {"time": 208600, "pitch": 64, "duration": 50, "velocity": 75}, {"time": 208610, "pitch": 67, "duration": 40, "velocity": 80}, {"time": 208710, "pitch": 67, "duration": 60, "velocity": 70}, {"time": 208720, "pitch": 64, "duration": 50, "velocity": 65}, {"time": 208730, "pitch": 60, "duration": 40, "velocity": 60}, {"time": 208830, "pitch": 59, "duration": 380, "velocity": 80}, {"time": 208840, "pitch": 62, "duration": 360, "velocity": 85}, {"time": 208850, "pitch": 67, "duration": 340, "velocity": 90}, {"time": 209190, "pitch": 67, "duration": 140, "velocity": 80}, {"time": 209200, "pitch": 62, "duration": 120, "velocity": 75}, {"time": 209210, "pitch": 59, "duration": 100, "velocity": 70}, {"time": 209310, "pitch": 59, "duration": 80, "velocity": 80}, {"time": 209320, "pitch": 62, "duration": 70, "velocity": 85}, {"time": 209330, "pitch": 67, "duration": 60, "velocity": 90}, {"time": 209550, "pitch": 59, "duration": 60, "velocity": 80}, {"time": 209560, "pitch": 62, "duration": 50, "velocity": 85}, {"time": 209570, "pitch": 67, "duration": 40, "velocity": 90}, {"time": 209670, "pitch": 67, "duration": 60, "velocity": 70}, {"time": 209680, "pitch": 62, "duration": 50, "velocity": 65}, {"time": 209690, "pitch": 59, "duration": 40, "velocity": 60}, {"time": 209790, "pitch": 59, "duration": 380, "velocity": 80}, {"time": 209800, "pitch": 62, "duration": 360, "velocity": 85}, {"time": 209810, "pitch": 67, "duration": 340, "velocity": 90}, {"time": 210150, "pitch": 67, "duration": 100, "velocity": 80}, {"time": 210160, "pitch": 62, "duration": 90, "velocity": 75}, {"time": 210170, "pitch": 59, "duration": 80, "velocity": 70}, {"time": 210270, "pitch": 61, "duration": 80, "velocity": 80}, {"time": 210280, "pitch": 64, "duration": 70, "velocity": 85}, {"time": 210290, "pitch": 69, "duration": 60, "velocity": 90}, {"time": 210510, "pitch": 61, "duration": 50, "velocity": 80}, {"time": 210520, "pitch": 64, "duration": 40, "velocity": 85}, {"time": 210530, "pitch": 69, "duration": 30, "velocity": 90}, {"time": 210750, "pitch": 62, "duration": 380, "velocity": 80}, {"time": 210760, "pitch": 66, "duration": 360, "velocity": 85}, {"time": 210770, "pitch": 69, "duration": 340, "velocity": 90}, {"time": 211110, "pitch": 69, "duration": 140, "velocity": 80}, {"time": 211120, "pitch": 66, "duration": 120, "velocity": 75}, {"time": 211130, "pitch": 62, "duration": 100, "velocity": 70}, {"time": 211230, "pitch": 62, "duration": 80, "velocity": 80}, {"time": 211240, "pitch": 66, "duration": 70, "velocity": 85}, {"time": 211250, "pitch": 69, "duration": 60, "velocity": 90}, {"time": 211470, "pitch": 62, "duration": 60, "velocity": 70}, {"time": 211480, "pitch": 66, "duration": 50, "velocity": 75}, {"time": 211490, "pitch": 69, "duration": 40, "velocity": 80}, {"time": 211590, "pitch": 69, "duration": 60, "velocity": 70}, {"time": 211600, "pitch": 66, "duration": 50, "velocity": 65}, {"time": 211610, "pitch": 62, "duration": 40, "velocity": 60}, {"time": 211710, "pitch": 60, "duration": 380, "velocity": 80}, {"time": 211720, "pitch": 64, "duration": 360, "velocity": 85}, {"time": 211730, "pitch": 67, "duration": 340, "velocity": 90}, {"time": 212070, "pitch": 67, "duration": 140, "velocity": 80}, {"time": 212080, "pitch": 64, "duration": 120, "velocity": 75}, {"time": 212090, "pitch": 60, "duration": 100, "velocity": 70}, {"time": 212190, "pitch": 60, "duration": 80, "velocity": 80}, {"time": 212200, "pitch": 64, "duration": 70, "velocity": 85}, {"time": 212210, "pitch": 67, "duration": 60, "velocity": 90}, {"time": 212430, "pitch": 60, "duration": 60, "velocity": 70}, {"time": 212440, "pitch": 64, "duration": 50, "velocity": 75}, {"time": 212450, "pitch": 67, "duration": 40, "velocity": 80}, {"time": 212550, "pitch": 67, "duration": 60, "velocity": 70}, {"time": 212560, "pitch": 64, "duration": 50, "velocity": 65}, {"time": 212570, "pitch": 60, "duration": 40, "velocity": 60}, {"time": 212670, "pitch": 59, "duration": 380, "velocity": 80}, {"time": 212680, "pitch": 62, "duration": 360, "velocity": 85}, {"time": 212690, "pitch": 67, "duration": 340, "velocity": 90}, {"time": 213030, "pitch": 67, "duration": 140, "velocity": 80}, {"time": 213040, "pitch": 62, "duration": 120, "velocity": 75}, {"time": 213050, "pitch": 59, "duration": 100, "velocity": 70}, {"time": 213150, "pitch": 59, "duration": 80, "velocity": 80}, {"time": 213160, "pitch": 62, "duration": 70, "velocity": 85}, {"time": 213170, "pitch": 67, "duration": 60, "velocity": 90}, {"time": 213390, "pitch": 59, "duration": 60, "velocity": 80}, {"time": 213400, "pitch": 62, "duration": 50, "velocity": 85}, {"time": 213410, "pitch": 67, "duration": 40, "velocity": 90}, {"time": 213510, "pitch": 67, "duration": 60, "velocity": 70}, {"time": 213520, "pitch": 62, "duration": 50, "velocity": 65}, {"time": 213530, "pitch": 59, "duration": 40, "velocity": 60}, {"time": 213630, "pitch": 59, "duration": 380, "velocity": 80}, {"time": 213640, "pitch": 62, "duration": 360, "velocity": 85}, {"time": 213650, "pitch": 67, "duration": 340, "velocity": 90}, {"time": 213990, "pitch": 67, "duration": 140, "velocity": 80}, {"time": 214000, "pitch": 62, "duration": 120, "velocity": 75}, {"time": 214010, "pitch": 59, "duration": 100, "velocity": 70}, {"time": 214110, "pitch": 59, "duration": 80, "velocity": 80}, {"time": 214120, "pitch": 62, "duration": 70, "velocity": 85}, {"time": 214130, "pitch": 67, "duration": 60, "velocity": 90}, {"time": 214350, "pitch": 59, "duration": 50, "velocity": 80}, {"time": 214360, "pitch": 62, "duration": 40, "velocity": 85}, {"time": 214370, "pitch": 67, "duration": 30, "velocity": 90}, {"time": 214830, "pitch": 62, "duration": 60, "velocity": 80}, {"time": 214840, "pitch": 66, "duration": 50, "velocity": 85}, {"time": 214850, "pitch": 69, "duration": 40, "velocity": 90}, {"time": 214950, "pitch": 69, "duration": 60, "velocity": 70}, {"time": 214960, "pitch": 66, "duration": 50, "velocity": 65}, {"time": 214970, "pitch": 62, "duration": 40, "velocity": 60}, {"time": 215070, "pitch": 62, "duration": 80, "velocity": 80}, {"time": 215080, "pitch": 66, "duration": 70, "velocity": 85}, {"time": 215090, "pitch": 69, "duration": 60, "velocity": 90}, {"time": 215550, "pitch": 60, "duration": 380, "velocity": 80}, {"time": 215560, "pitch": 64, "duration": 360, "velocity": 85}, {"time": 215570, "pitch": 67, "duration": 340, "velocity": 90}, {"time": 215910, "pitch": 67, "duration": 140, "velocity": 80}, {"time": 215920, "pitch": 64, "duration": 120, "velocity": 75}, {"time": 215930, "pitch": 60, "duration": 100, "velocity": 70}, {"time": 216030, "pitch": 60, "duration": 80, "velocity": 80}, {"time": 216040, "pitch": 64, "duration": 70, "velocity": 85}, {"time": 216050, "pitch": 67, "duration": 60, "velocity": 90}, {"time": 216270, "pitch": 60, "duration": 60, "velocity": 70}, {"time": 216280, "pitch": 64, "duration": 50, "velocity": 75}, {"time": 216290, "pitch": 67, "duration": 40, "velocity": 80}, {"time": 216390, "pitch": 67, "duration": 60, "velocity": 70}, {"time": 216400, "pitch": 64, "duration": 50, "velocity": 65}, {"time": 216410, "pitch": 60, "duration": 40, "velocity": 60}, {"time": 216510, "pitch": 59, "duration": 380, "velocity": 80}, {"time": 216520, "pitch": 62, "duration": 360, "velocity": 85}, {"time": 216530, "pitch": 67, "duration": 340, "velocity": 90}, {"time": 216870, "pitch": 67, "duration": 140, "velocity": 80}, {"time": 216880, "pitch": 62, "duration": 120, "velocity": 75}, {"time": 216890, "pitch": 59, "duration": 100, "velocity": 70}, {"time": 216990, "pitch": 59, "duration": 80, "velocity": 80}, {"time": 217000, "pitch": 62, "duration": 70, "velocity": 85}, {"time": 217010, "pitch": 67, "duration": 60, "velocity": 90}, {"time": 217230, "pitch": 59, "duration": 60, "velocity": 80}, {"time": 217240, "pitch": 62, "duration": 50, "velocity": 85}, {"time": 217250, "pitch": 67, "duration": 40, "velocity": 90}, {"time": 217350, "pitch": 67, "duration": 60, "velocity": 70}, {"time": 217360, "pitch": 62, "duration": 50, "velocity": 65}, {"time": 217370, "pitch": 59, "duration": 40, "velocity": 60}, {"time": 217470, "pitch": 59, "duration": 380, "velocity": 80}, {"time": 217480, "pitch": 62, "duration": 360, "velocity": 85}, {"time": 217490, "pitch": 67, "duration": 340, "velocity": 90}, {"time": 217830, "pitch": 67, "duration": 100, "velocity": 80}, {"time": 217840, "pitch": 62, "duration": 90, "velocity": 75}, {"time": 217850, "pitch": 59, "duration": 80, "velocity": 70}, {"time": 217950, "pitch": 61, "duration": 80, "velocity": 80}, {"time": 217960, "pitch": 64, "duration": 70, "velocity": 85}, {"time": 217970, "pitch": 69, "duration": 60, "velocity": 90}, {"time": 218190, "pitch": 61, "duration": 50, "velocity": 80}, {"time": 218200, "pitch": 64, "duration": 40, "velocity": 85}, {"time": 218210, "pitch": 69, "duration": 30, "velocity": 90}, {"time": 218430, "pitch": 62, "duration": 380, "velocity": 80}, {"time": 218440, "pitch": 66, "duration": 360, "velocity": 85}, {"time": 218450, "pitch": 69, "duration": 340, "velocity": 90}, {"time": 218790, "pitch": 69, "duration": 140, "velocity": 80}, {"time": 218800, "pitch": 66, "duration": 120, "velocity": 75}, {"time": 218810, "pitch": 62, "duration": 100, "velocity": 70}, {"time": 218910, "pitch": 62, "duration": 80, "velocity": 80}, {"time": 218920, "pitch": 66, "duration": 70, "velocity": 85}, {"time": 218930, "pitch": 69, "duration": 60, "velocity": 90}, {"time": 219150, "pitch": 62, "duration": 60, "velocity": 70}, {"time": 219160, "pitch": 66, "duration": 50, "velocity": 75}, {"time": 219170, "pitch": 69, "duration": 40, "velocity": 80}, {"time": 219270, "pitch": 69, "duration": 60, "velocity": 70}, {"time": 219280, "pitch": 66, "duration": 50, "velocity": 65}, {"time": 219290, "pitch": 62, "duration": 40, "velocity": 60}, {"time": 219390, "pitch": 60, "duration": 380, "velocity": 80}, {"time": 219400, "pitch": 64, "duration": 360, "velocity": 85}, {"time": 219410, "pitch": 67, "duration": 340, "velocity": 90}, {"time": 219750, "pitch": 67, "duration": 140, "velocity": 80}, {"time": 219760, "pitch": 64, "duration": 120, "velocity": 75}, {"time": 219770, "pitch": 60, "duration": 100, "velocity": 70}, {"time": 219870, "pitch": 60, "duration": 80, "velocity": 80}, {"time": 219880, "pitch": 64, "duration": 70, "velocity": 85}, {"time": 219890, "pitch": 67, "duration": 60, "velocity": 90}, {"time": 220110, "pitch": 60, "duration": 60, "velocity": 70}, {"time": 220120, "pitch": 64, "duration": 50, "velocity": 75}, {"time": 220130, "pitch": 67, "duration": 40, "velocity": 80}, {"time": 220230, "pitch": 67, "duration": 60, "velocity": 70}, {"time": 220240, "pitch": 64, "duration": 50, "velocity": 65}, {"time": 220250, "pitch": 60, "duration": 40, "velocity": 60}, {"time": 220350, "pitch": 59, "duration": 380, "velocity": 80}, {"time": 220360, "pitch": 62, "duration": 360, "velocity": 85}, {"time": 220370, "pitch": 67, "duration": 340, "velocity": 90}, {"time": 220710, "pitch": 67, "duration": 140, "velocity": 80}, {"time": 220720, "pitch": 62, "duration": 120, "velocity": 75}, {"time": 220730, "pitch": 59, "duration": 100, "velocity": 70}, {"time": 220830, "pitch": 59, "duration": 80, "velocity": 80}, {"time": 220840, "pitch": 62, "duration": 70, "velocity": 85}, {"time": 220850, "pitch": 67, "duration": 60, "velocity": 90}, {"time": 221070, "pitch": 59, "duration": 60, "velocity": 80}, {"time": 221080, "pitch": 62, "duration": 50, "velocity": 85}, {"time": 221090, "pitch": 67, "duration": 40, "velocity": 90}, {"time": 221190, "pitch": 67, "duration": 60, "velocity": 70}, {"time": 221200, "pitch": 62, "duration": 50, "velocity": 65}, {"time": 221210, "pitch": 59, "duration": 40, "velocity": 60}, {"time": 221310, "pitch": 59, "duration": 380, "velocity": 80}, {"time": 221320, "pitch": 62, "duration": 360, "velocity": 85}, {"time": 221330, "pitch": 67, "duration": 340, "velocity": 90}, {"time": 221670, "pitch": 67, "duration": 140, "velocity": 80}, {"time": 221680, "pitch": 62, "duration": 120, "velocity": 75}, {"time": 221690, "pitch": 59, "duration": 100, "velocity": 70}, {"time": 221790, "pitch": 59, "duration": 80, "velocity": 80}, {"time": 221800, "pitch": 62, "duration": 70, "velocity": 85}, {"time": 221810, "pitch": 67, "duration": 60, "velocity": 90}, {"time": 222030, "pitch": 59, "duration": 50, "velocity": 80}, {"time": 222040, "pitch": 62, "duration": 40, "velocity": 85}, {"time": 222050, "pitch": 67, "duration": 30, "velocity": 90}, {"time": 222510, "pitch": 62, "duration": 60, "velocity": 80}, {"time": 222520, "pitch": 66, "duration": 50, "velocity": 85}, {"time": 222530, "pitch": 69, "duration": 40, "velocity": 90}, {"time": 222630, "pitch": 69, "duration": 60, "velocity": 70}, {"time": 222640, "pitch": 66, "duration": 50, "velocity": 65}, {"time": 222650, "pitch": 62, "duration": 40, "velocity": 60}, {"time": 222750, "pitch": 62, "duration": 80, "velocity": 80}, {"time": 222760, "pitch": 66, "duration": 70, "velocity": 85}, {"time": 222770, "pitch": 69, "duration": 60, "velocity": 90}, {"time": 223230, "pitch": 60, "duration": 380, "velocity": 80}, {"time": 223240, "pitch": 64, "duration": 360, "velocity": 85}, {"time": 223250, "pitch": 67, "duration": 340, "velocity": 90}, {"time": 223590, "pitch": 67, "duration": 140, "velocity": 80}, {"time": 223600, "pitch": 64, "duration": 120, "velocity": 75}, {"time": 223610, "pitch": 60, "duration": 100, "velocity": 70}, {"time": 223710, "pitch": 60, "duration": 80, "velocity": 80}, {"time": 223720, "pitch": 64, "duration": 70, "velocity": 85}, {"time": 223730, "pitch": 67, "duration": 60, "velocity": 90}, {"time": 223950, "pitch": 60, "duration": 60, "velocity": 70}, {"time": 223960, "pitch": 64, "duration": 50, "velocity": 75}, {"time": 223970, "pitch": 67, "duration": 40, "velocity": 80}, {"time": 224070, "pitch": 67, "duration": 60, "velocity": 70}, {"time": 224080, "pitch": 64, "duration": 50, "velocity": 65}, {"time": 224090, "pitch": 60, "duration": 40, "velocity": 60}, {"time": 224190, "pitch": 59, "duration": 380, "velocity": 80}, {"time": 224200, "pitch": 62, "duration": 360, "velocity": 85}, {"time": 224210, "pitch": 67, "duration": 340, "velocity": 90}, {"time": 224550, "pitch": 67, "duration": 140, "velocity": 80}, {"time": 224560, "pitch": 62, "duration": 120, "velocity": 75}, {"time": 224570, "pitch": 59, "duration": 100, "velocity": 70}, {"time": 224670, "pitch": 59, "duration": 80, "velocity": 80}, {"time": 224680, "pitch": 62, "duration": 70, "velocity": 85}, {"time": 224690, "pitch": 67, "duration": 60, "velocity": 90}, {"time": 224910, "pitch": 59, "duration": 60, "velocity": 80}, {"time": 224920, "pitch": 62, "duration": 50, "velocity": 85}, {"time": 224930, "pitch": 67, "duration": 40, "velocity": 90}, {"time": 225030, "pitch": 67, "duration": 60, "velocity": 70}, {"time": 225040, "pitch": 62, "duration": 50, "velocity": 65}, {"time": 225050, "pitch": 59, "duration": 40, "velocity": 60}, {"time": 225150, "pitch": 59, "duration": 380, "velocity": 80}, {"time": 225160, "pitch": 62, "duration": 360, "velocity": 85}, {"time": 225170, "pitch": 67, "duration": 340, "velocity": 90}, {"time": 225510, "pitch": 67, "duration": 100, "velocity": 80}, {"time": 225520, "pitch": 62, "duration": 90, "velocity": 75}, {"time": 225530, "pitch": 59, "duration": 80, "velocity": 70}, {"time": 225630, "pitch": 61, "duration": 80, "velocity": 80}, {"time": 225640, "pitch": 64, "duration": 70, "velocity": 85}, {"time": 225650, "pitch": 69, "duration": 60, "velocity": 90}, {"time": 225870, "pitch": 61, "duration": 50, "velocity": 80}, {"time": 225880, "pitch": 64, "duration": 40, "velocity": 85}, {"time": 225890, "pitch": 69, "duration": 30, "velocity": 90}, {"time": 226110, "pitch": 62, "duration": 380, "velocity": 80}, {"time": 226120, "pitch": 66, "duration": 360, "velocity": 85}, {"time": 226130, "pitch": 69, "duration": 340, "velocity": 90}, {"time": 226470, "pitch": 69, "duration": 138, "velocity": 80}, {"time": 226480, "pitch": 66, "duration": 118, "velocity": 75}, {"time": 226490, "pitch": 62, "duration": 99, "velocity": 70}, {"time": 226589, "pitch": 62, "duration": 77, "velocity": 80}, {"time": 226598, "pitch": 66, "duration": 68, "velocity": 85}, {"time": 226608, "pitch": 69, "duration": 58, "velocity": 90}, {"time": 226819, "pitch": 62, "duration": 58, "velocity": 70}, {"time": 226829, "pitch": 66, "duration": 48, "velocity": 75}, {"time": 226839, "pitch": 69, "duration": 38, "velocity": 80}, {"time": 226935, "pitch": 69, "duration": 57, "velocity": 70}, {"time": 226944, "pitch": 66, "duration": 48, "velocity": 65}, {"time": 226954, "pitch": 62, "duration": 38, "velocity": 60}, {"time": 227050, "pitch": 60, "duration": 380, "velocity": 80}, {"time": 227060, "pitch": 64, "duration": 360, "velocity": 85}, {"time": 227070, "pitch": 67, "duration": 340, "velocity": 90}, {"time": 227410, "pitch": 67, "duration": 140, "velocity": 80}, {"time": 227420, "pitch": 64, "duration": 120, "velocity": 75}, {"time": 227430, "pitch": 60, "duration": 100, "velocity": 70}, {"time": 227530, "pitch": 60, "duration": 80, "velocity": 80}, {"time": 227540, "pitch": 64, "duration": 70, "velocity": 85}, {"time": 227550, "pitch": 67, "duration": 60, "velocity": 90}, {"time": 227770, "pitch": 60, "duration": 60, "velocity": 70}, {"time": 227780, "pitch": 64, "duration": 50, "velocity": 75}, {"time": 227790, "pitch": 67, "duration": 40, "velocity": 80}, {"time": 227890, "pitch": 67, "duration": 60, "velocity": 70}, {"time": 227900, "pitch": 64, "duration": 50, "velocity": 65}, {"time": 227910, "pitch": 60, "duration": 40, "velocity": 60}, {"time": 228011, "pitch": 59, "duration": 396, "velocity": 80}, {"time": 228022, "pitch": 62, "duration": 375, "velocity": 85}, {"time": 228032, "pitch": 67, "duration": 354, "velocity": 90}, {"time": 228386, "pitch": 67, "duration": 144, "velocity": 80}, {"time": 228397, "pitch": 62, "duration": 123, "velocity": 75}, {"time": 228407, "pitch": 59, "duration": 103, "velocity": 70}, {"time": 228510, "pitch": 59, "duration": 80, "velocity": 80}, {"time": 228520, "pitch": 62, "duration": 70, "velocity": 85}, {"time": 228530, "pitch": 67, "duration": 60, "velocity": 90}, {"time": 228750, "pitch": 59, "duration": 60, "velocity": 80}, {"time": 228760, "pitch": 62, "duration": 50, "velocity": 85}, {"time": 228770, "pitch": 67, "duration": 40, "velocity": 90}, {"time": 228870, "pitch": 67, "duration": 60, "velocity": 70}, {"time": 228880, "pitch": 62, "duration": 50, "velocity": 65}, {"time": 228890, "pitch": 59, "duration": 40, "velocity": 60}, {"time": 228990, "pitch": 59, "duration": 380, "velocity": 80}, {"time": 229000, "pitch": 62, "duration": 360, "velocity": 85}, {"time": 229010, "pitch": 67, "duration": 340, "velocity": 90}, {"time": 229350, "pitch": 67, "duration": 140, "velocity": 80}, {"time": 229360, "pitch": 62, "duration": 120, "velocity": 75}, {"time": 229370, "pitch": 59, "duration": 100, "velocity": 70}, {"time": 229470, "pitch": 59, "duration": 80, "velocity": 80}, {"time": 229480, "pitch": 62, "duration": 70, "velocity": 85}, {"time": 229490, "pitch": 67, "duration": 60, "velocity": 90}, {"time": 229710, "pitch": 59, "duration": 50, "velocity": 80}, {"time": 229720, "pitch": 62, "duration": 40, "velocity": 85}, {"time": 229730, "pitch": 67, "duration": 30, "velocity": 90}, {"time": 230190, "pitch": 62, "duration": 60, "velocity": 80}, {"time": 230200, "pitch": 66, "duration": 50, "velocity": 85}, {"time": 230210, "pitch": 69, "duration": 40, "velocity": 90}, {"time": 230310, "pitch": 69, "duration": 60, "velocity": 70}, {"time": 230320, "pitch": 66, "duration": 50, "velocity": 65}, {"time": 230330, "pitch": 62, "duration": 40, "velocity": 60}, {"time": 230430, "pitch": 62, "duration": 80, "velocity": 80}, {"time": 230440, "pitch": 66, "duration": 70, "velocity": 85}, {"time": 230450, "pitch": 69, "duration": 60, "velocity": 90}, {"time": 230910, "pitch": 60, "duration": 380, "velocity": 80}, {"time": 230920, "pitch": 64, "duration": 360, "velocity": 85}, {"time": 230930, "pitch": 67, "duration": 340, "velocity": 90}, {"time": 231270, "pitch": 67, "duration": 140, "velocity": 80}, {"time": 231280, "pitch": 64, "duration": 120, "velocity": 75}, {"time": 231290, "pitch": 60, "duration": 100, "velocity": 70}, {"time": 231390, "pitch": 60, "duration": 80, "velocity": 80}, {"time": 231400, "pitch": 64, "duration": 70, "velocity": 85}, {"time": 231410, "pitch": 67, "duration": 60, "velocity": 90}, {"time": 231630, "pitch": 60, "duration": 60, "velocity": 70}, {"time": 231640, "pitch": 64, "duration": 50, "velocity": 75}, {"time": 231650, "pitch": 67, "duration": 40, "velocity": 80}, {"time": 231750, "pitch": 67, "duration": 60, "velocity": 70}, {"time": 231760, "pitch": 64, "duration": 50, "velocity": 65}, {"time": 231770, "pitch": 60, "duration": 40, "velocity": 60}, {"time": 231869, "pitch": 59, "duration": 373, "velocity": 80}, {"time": 231879, "pitch": 62, "duration": 353, "velocity": 85}, {"time": 231889, "pitch": 67, "duration": 333, "velocity": 90}, {"time": 232222, "pitch": 67, "duration": 138, "velocity": 80}, {"time": 232232, "pitch": 62, "duration": 118, "velocity": 75}, {"time": 232242, "pitch": 59, "duration": 98, "velocity": 70}, {"time": 232340, "pitch": 59, "duration": 78, "velocity": 80}, {"time": 232350, "pitch": 62, "duration": 68, "velocity": 85}, {"time": 232360, "pitch": 67, "duration": 58, "velocity": 90}, {"time": 232575, "pitch": 59, "duration": 59, "velocity": 80}, {"time": 232585, "pitch": 62, "duration": 49, "velocity": 85}, {"time": 232595, "pitch": 67, "duration": 39, "velocity": 90}, {"time": 232693, "pitch": 67, "duration": 59, "velocity": 70}, {"time": 232703, "pitch": 62, "duration": 49, "velocity": 65}, {"time": 232713, "pitch": 59, "duration": 39, "velocity": 60}, {"time": 232811, "pitch": 59, "duration": 372, "velocity": 80}, {"time": 232820, "pitch": 62, "duration": 353, "velocity": 85}, {"time": 232830, "pitch": 67, "duration": 334, "velocity": 90}, {"time": 233164, "pitch": 67, "duration": 98, "velocity": 80}, {"time": 233173, "pitch": 62, "duration": 89, "velocity": 75}, {"time": 233183, "pitch": 59, "duration": 79, "velocity": 70}, {"time": 233281, "pitch": 61, "duration": 79, "velocity": 80}, {"time": 233291, "pitch": 64, "duration": 69, "velocity": 85}, {"time": 233301, "pitch": 69, "duration": 59, "velocity": 90}, {"time": 233516, "pitch": 61, "duration": 49, "velocity": 80}, {"time": 233526, "pitch": 64, "duration": 39, "velocity": 85}, {"time": 233536, "pitch": 69, "duration": 29, "velocity": 90}, {"time": 19200, "pitch": 57, "duration": 200, "velocity": 120}, {"time": 19440, "pitch": 60, "duration": 80, "velocity": 110}, {"time": 19680, "pitch": 60, "duration": 80, "velocity": 120}, {"time": 19920, "pitch": 57, "duration": 80, "velocity": 120}, {"time": 20160, "pitch": 60, "duration": 80, "velocity": 120}, {"time": 20400, "pitch": 60, "duration": 80, "velocity": 120}, {"time": 20520, "pitch": 57, "duration": 80, "velocity": 115}, {"time": 21120, "pitch": 57, "duration": 200, "velocity": 120}, {"time": 21360, "pitch": 60, "duration": 80, "velocity": 110}, {"time": 21600, "pitch": 60, "duration": 80, "velocity": 120}, {"time": 21840, "pitch": 57, "duration": 80, "velocity": 120}, {"time": 22080, "pitch": 62, "duration": 80, "velocity": 120}, {"time": 22320, "pitch": 62, "duration": 200, "velocity": 120}, {"time": 23040, "pitch": 57, "duration": 200, "velocity": 120}, {"time": 23280, "pitch": 60, "duration": 80, "velocity": 110}, {"time": 23520, "pitch": 60, "duration": 80, "velocity": 120}, {"time": 23760, "pitch": 57, "duration": 80, "velocity": 120}, {"time": 24000, "pitch": 60, "duration": 80, "velocity": 120}, {"time": 24240, "pitch": 60, "duration": 80, "velocity": 120}, {"time": 24360, "pitch": 57, "duration": 80, "velocity": 115}, {"time": 24960, "pitch": 57, "duration": 200, "velocity": 120}, {"time": 25200, "pitch": 60, "duration": 80, "velocity": 110}, {"time": 25440, "pitch": 60, "duration": 80, "velocity": 120}, {"time": 25680, "pitch": 57, "duration": 80, "velocity": 120}, {"time": 25920, "pitch": 60, "duration": 80, "velocity": 120}, {"time": 26160, "pitch": 57, "duration": 200, "velocity": 120}, {"time": 26880, "pitch": 57, "duration": 200, "velocity": 120}, {"time": 27120, "pitch": 60, "duration": 80, "velocity": 110}, {"time": 27360, "pitch": 60, "duration": 80, "velocity": 120}, {"time": 27600, "pitch": 57, "duration": 80, "velocity": 120}, {"time": 27840, "pitch": 60, "duration": 80, "velocity": 120}, {"time": 28080, "pitch": 60, "duration": 80, "velocity": 120}, {"time": 28200, "pitch": 57, "duration": 80, "velocity": 115}, {"time": 28800, "pitch": 57, "duration": 200, "velocity": 120}, {"time": 29040, "pitch": 60, "duration": 80, "velocity": 110}, {"time": 29280, "pitch": 60, "duration": 80, "velocity": 120}, {"time": 29520, "pitch": 57, "duration": 80, "velocity": 120}, {"time": 29760, "pitch": 62, "duration": 80, "velocity": 120}, {"time": 30000, "pitch": 62, "duration": 200, "velocity": 120}, {"time": 30720, "pitch": 57, "duration": 200, "velocity": 120}, {"time": 30960, "pitch": 60, "duration": 80, "velocity": 110}, {"time": 31200, "pitch": 60, "duration": 80, "velocity": 120}, {"time": 31440, "pitch": 57, "duration": 80, "velocity": 120}, {"time": 31680, "pitch": 60, "duration": 80, "velocity": 120}, {"time": 31920, "pitch": 60, "duration": 80, "velocity": 120}, {"time": 32040, "pitch": 57, "duration": 80, "velocity": 115}, {"time": 32640, "pitch": 57, "duration": 200, "velocity": 120}, {"time": 32880, "pitch": 60, "duration": 80, "velocity": 110}, {"time": 33120, "pitch": 60, "duration": 80, "velocity": 120}, {"time": 33360, "pitch": 57, "duration": 80, "velocity": 120}, {"time": 33600, "pitch": 62, "duration": 80, "velocity": 120}, {"time": 33840, "pitch": 62, "duration": 200, "velocity": 120}, {"time": 74880, "pitch": 57, "duration": 200, "velocity": 120}, {"time": 75120, "pitch": 60, "duration": 80, "velocity": 110}, {"time": 75360, "pitch": 60, "duration": 80, "velocity": 120}, {"time": 75600, "pitch": 57, "duration": 80, "velocity": 120}, {"time": 75840, "pitch": 60, "duration": 80, "velocity": 120}, {"time": 76080, "pitch": 60, "duration": 80, "velocity": 120}, {"time": 76200, "pitch": 57, "duration": 80, "velocity": 115}, {"time": 76800, "pitch": 57, "duration": 200, "velocity": 120}, {"time": 77040, "pitch": 60, "duration": 80, "velocity": 110}, {"time": 77280, "pitch": 60, "duration": 80, "velocity": 120}, {"time": 77520, "pitch": 57, "duration": 80, "velocity": 120}, {"time": 77760, "pitch": 62, "duration": 80, "velocity": 120}, {"time": 78000, "pitch": 62, "duration": 200, "velocity": 120}, {"time": 78720, "pitch": 57, "duration": 200, "velocity": 120}, {"time": 78960, "pitch": 60, "duration": 80, "velocity": 110}, {"time": 79200, "pitch": 60, "duration": 80, "velocity": 120}, {"time": 79440, "pitch": 57, "duration": 80, "velocity": 120}, {"time": 79680, "pitch": 60, "duration": 80, "velocity": 120}, {"time": 79920, "pitch": 60, "duration": 80, "velocity": 120}, {"time": 80040, "pitch": 57, "duration": 80, "velocity": 115}, {"time": 80640, "pitch": 57, "duration": 200, "velocity": 120}, {"time": 80880, "pitch": 60, "duration": 80, "velocity": 110}, {"time": 81120, "pitch": 60, "duration": 80, "velocity": 120}, {"time": 81360, "pitch": 57, "duration": 80, "velocity": 120}, {"time": 81600, "pitch": 60, "duration": 80, "velocity": 120}, {"time": 81840, "pitch": 57, "duration": 200, "velocity": 120}, {"time": 82560, "pitch": 57, "duration": 200, "velocity": 120}, {"time": 82800, "pitch": 60, "duration": 80, "velocity": 110}, {"time": 83040, "pitch": 60, "duration": 80, "velocity": 120}, {"time": 83280, "pitch": 57, "duration": 80, "velocity": 120}, {"time": 83520, "pitch": 60, "duration": 80, "velocity": 120}, {"time": 83760, "pitch": 60, "duration": 80, "velocity": 120}, {"time": 83880, "pitch": 57, "duration": 80, "velocity": 115}, {"time": 84480, "pitch": 57, "duration": 200, "velocity": 120}, {"time": 84720, "pitch": 60, "duration": 80, "velocity": 110}, {"time": 84960, "pitch": 60, "duration": 80, "velocity": 120}, {"time": 85200, "pitch": 57, "duration": 80, "velocity": 120}, {"time": 85440, "pitch": 62, "duration": 80, "velocity": 120}, {"time": 85680, "pitch": 62, "duration": 200, "velocity": 120}, {"time": 86400, "pitch": 57, "duration": 200, "velocity": 120}, {"time": 86640, "pitch": 60, "duration": 80, "velocity": 110}, {"time": 86880, "pitch": 60, "duration": 80, "velocity": 120}, {"time": 87120, "pitch": 57, "duration": 80, "velocity": 120}, {"time": 87360, "pitch": 60, "duration": 80, "velocity": 120}, {"time": 87600, "pitch": 60, "duration": 80, "velocity": 120}, {"time": 87720, "pitch": 57, "duration": 80, "velocity": 115}, {"time": 88320, "pitch": 57, "duration": 200, "velocity": 120}, {"time": 88560, "pitch": 60, "duration": 80, "velocity": 110}, {"time": 88800, "pitch": 60, "duration": 80, "velocity": 120}, {"time": 89040, "pitch": 57, "duration": 80, "velocity": 120}, {"time": 89280, "pitch": 62, "duration": 80, "velocity": 120}, {"time": 89520, "pitch": 62, "duration": 200, "velocity": 120}, {"time": 138240, "pitch": 57, "duration": 200, "velocity": 120}, {"time": 138480, "pitch": 60, "duration": 80, "velocity": 110}, {"time": 138720, "pitch": 60, "duration": 80, "velocity": 120}, {"time": 138960, "pitch": 57, "duration": 80, "velocity": 120}, {"time": 139200, "pitch": 60, "duration": 80, "velocity": 120}, {"time": 139440, "pitch": 60, "duration": 80, "velocity": 120}, {"time": 139560, "pitch": 57, "duration": 80, "velocity": 115}, {"time": 140160, "pitch": 57, "duration": 200, "velocity": 120}, {"time": 140400, "pitch": 60, "duration": 80, "velocity": 110}, {"time": 140640, "pitch": 60, "duration": 80, "velocity": 120}, {"time": 140880, "pitch": 57, "duration": 80, "velocity": 120}, {"time": 141120, "pitch": 62, "duration": 80, "velocity": 120}, {"time": 141360, "pitch": 62, "duration": 200, "velocity": 120}, {"time": 142080, "pitch": 57, "duration": 200, "velocity": 120}, {"time": 142320, "pitch": 60, "duration": 80, "velocity": 110}, {"time": 142560, "pitch": 60, "duration": 80, "velocity": 120}, {"time": 142800, "pitch": 57, "duration": 80, "velocity": 120}, {"time": 143040, "pitch": 60, "duration": 80, "velocity": 120}, {"time": 143280, "pitch": 60, "duration": 80, "velocity": 120}, {"time": 143400, "pitch": 57, "duration": 80, "velocity": 115}, {"time": 144000, "pitch": 57, "duration": 200, "velocity": 120}, {"time": 144240, "pitch": 60, "duration": 80, "velocity": 110}, {"time": 144480, "pitch": 60, "duration": 80, "velocity": 120}, {"time": 144720, "pitch": 57, "duration": 80, "velocity": 120}, {"time": 144960, "pitch": 60, "duration": 80, "velocity": 120}, {"time": 145200, "pitch": 57, "duration": 200, "velocity": 120}, {"time": 145920, "pitch": 57, "duration": 200, "velocity": 120}, {"time": 146160, "pitch": 60, "duration": 80, "velocity": 110}, {"time": 146400, "pitch": 60, "duration": 80, "velocity": 120}, {"time": 146640, "pitch": 57, "duration": 80, "velocity": 120}, {"time": 146880, "pitch": 60, "duration": 80, "velocity": 120}, {"time": 147120, "pitch": 60, "duration": 80, "velocity": 120}, {"time": 147240, "pitch": 57, "duration": 80, "velocity": 115}, {"time": 147840, "pitch": 57, "duration": 200, "velocity": 120}, {"time": 148080, "pitch": 60, "duration": 80, "velocity": 110}, {"time": 148320, "pitch": 60, "duration": 80, "velocity": 120}, {"time": 148560, "pitch": 57, "duration": 80, "velocity": 120}, {"time": 148800, "pitch": 62, "duration": 80, "velocity": 120}, {"time": 149040, "pitch": 62, "duration": 200, "velocity": 120}, {"time": 149760, "pitch": 57, "duration": 200, "velocity": 120}, {"time": 150000, "pitch": 60, "duration": 80, "velocity": 110}, {"time": 150240, "pitch": 60, "duration": 80, "velocity": 120}, {"time": 150480, "pitch": 57, "duration": 80, "velocity": 120}, {"time": 150720, "pitch": 60, "duration": 80, "velocity": 120}, {"time": 150960, "pitch": 60, "duration": 80, "velocity": 120}, {"time": 151080, "pitch": 57, "duration": 80, "velocity": 115}, {"time": 151680, "pitch": 57, "duration": 200, "velocity": 120}, {"time": 151920, "pitch": 60, "duration": 80, "velocity": 110}, {"time": 152160, "pitch": 60, "duration": 80, "velocity": 120}, {"time": 152400, "pitch": 57, "duration": 80, "velocity": 120}, {"time": 152640, "pitch": 62, "duration": 80, "velocity": 120}, {"time": 152880, "pitch": 62, "duration": 200, "velocity": 120}, {"time": 2880, "pitch": 64, "duration": 160, "velocity": 105}, {"time": 2890, "pitch": 69, "duration": 150, "velocity": 110}, {"time": 3360, "pitch": 62, "duration": 480, "velocity": 105}, {"time": 3370, "pitch": 67, "duration": 480, "velocity": 110}, {"time": 3840, "pitch": 60, "duration": 480, "velocity": 110}, {"time": 4320, "pitch": 60, "duration": 480, "velocity": 110}, {"time": 4800, "pitch": 60, "duration": 120, "velocity": 110}, {"time": 4920, "pitch": 60, "duration": 120, "velocity": 105}, {"time": 5040, "pitch": 57, "duration": 240, "velocity": 110}, {"time": 5280, "pitch": 60, "duration": 240, "velocity": 110}, {"time": 5520, "pitch": 60, "duration": 120, "velocity": 110}, {"time": 5640, "pitch": 60, "duration": 120, "velocity": 105}, {"time": 5760, "pitch": 64, "duration": 480, "velocity": 110}, {"time": 6960, "pitch": 64, "duration": 120, "velocity": 110}, {"time": 7080, "pitch": 64, "duration": 120, "velocity": 105}, {"time": 7200, "pitch": 64, "duration": 360, "velocity": 110}, {"time": 7560, "pitch": 64, "duration": 120, "velocity": 110}, {"time": 7920, "pitch": 60, "duration": 120, "velocity": 105}, {"time": 8160, "pitch": 64, "duration": 360, "velocity": 110}, {"time": 8520, "pitch": 64, "duration": 120, "velocity": 110}, {"time": 8880, "pitch": 62, "duration": 240, "velocity": 105}, {"time": 9120, "pitch": 62, "duration": 240, "velocity": 110}, {"time": 9360, "pitch": 62, "duration": 160, "velocity": 105}, {"time": 9600, "pitch": 62, "duration": 240, "velocity": 110}, {"time": 9840, "pitch": 60, "duration": 120, "velocity": 110}, {"time": 9960, "pitch": 57, "duration": 120, "velocity": 105}, {"time": 10560, "pitch": 64, "duration": 160, "velocity": 105}, {"time": 10570, "pitch": 69, "duration": 150, "velocity": 110}, {"time": 11040, "pitch": 62, "duration": 480, "velocity": 105}, {"time": 11050, "pitch": 67, "duration": 480, "velocity": 110}, {"time": 11520, "pitch": 60, "duration": 480, "velocity": 110}, {"time": 12000, "pitch": 60, "duration": 480, "velocity": 110}, {"time": 12480, "pitch": 60, "duration": 120, "velocity": 110}, {"time": 12600, "pitch": 60, "duration": 120, "velocity": 105}, {"time": 12720, "pitch": 57, "duration": 240, "velocity": 110}, {"time": 12960, "pitch": 60, "duration": 240, "velocity": 110}, {"time": 13200, "pitch": 60, "duration": 120, "velocity": 110}, {"time": 13320, "pitch": 60, "duration": 120, "velocity": 105}, {"time": 13440, "pitch": 64, "duration": 480, "velocity": 110}, {"time": 13920, "pitch": 64, "duration": 360, "velocity": 110}, {"time": 14280, "pitch": 64, "duration": 360, "velocity": 110}, {"time": 14640, "pitch": 62, "duration": 1180, "velocity": 110}, {"time": 15840, "pitch": 76, "duration": 360, "velocity": 110}, {"time": 16200, "pitch": 77, "duration": 360, "velocity": 110}, {"time": 16560, "pitch": 79, "duration": 2140, "velocity": 110}, {"time": 67200, "pitch": 64, "duration": 160, "velocity": 105}, {"time": 67210, "pitch": 69, "duration": 150, "velocity": 110}, {"time": 67680, "pitch": 62, "duration": 480, "velocity": 105}, {"time": 67690, "pitch": 67, "duration": 480, "velocity": 110}, {"time": 68160, "pitch": 60, "duration": 480, "velocity": 110}, {"time": 68640, "pitch": 60, "duration": 480, "velocity": 110}, {"time": 69120, "pitch": 60, "duration": 120, "velocity": 110}, {"time": 69240, "pitch": 60, "duration": 120, "velocity": 105}, {"time": 69360, "pitch": 57, "duration": 240, "velocity": 110}, {"time": 69600, "pitch": 60, "duration": 240, "velocity": 110}, {"time": 69840, "pitch": 60, "duration": 120, "velocity": 110}, {"time": 69960, "pitch": 60, "duration": 120, "velocity": 105}, {"time": 70080, "pitch": 64, "duration": 480, "velocity": 110}, {"time": 71280, "pitch": 64, "duration": 120, "velocity": 110}, {"time": 71400, "pitch": 64, "duration": 120, "velocity": 105}, {"time": 71520, "pitch": 64, "duration": 360, "velocity": 110}, {"time": 71880, "pitch": 64, "duration": 120, "velocity": 110}, {"time": 72240, "pitch": 60, "duration": 120, "velocity": 105}, {"time": 72480, "pitch": 64, "duration": 360, "velocity": 110}, {"time": 72840, "pitch": 64, "duration": 360, "velocity": 110}, {"time": 73200, "pitch": 62, "duration": 120, "velocity": 110}, {"time": 137760, "pitch": 72, "duration": 480, "velocity": 110}, {"time": 138240, "pitch": 72, "duration": 480, "velocity": 110}, {"time": 138720, "pitch": 72, "duration": 960, "velocity": 110}, {"time": 139920, "pitch": 50, "duration": 240, "velocity": 90}, {"time": 139920, "pitch": 55, "duration": 240, "velocity": 95}, {"time": 140160, "pitch": 50, "duration": 240, "velocity": 90}, {"time": 140160, "pitch": 55, "duration": 240, "velocity": 90}, {"time": 140400, "pitch": 50, "duration": 480, "velocity": 90}, {"time": 140400, "pitch": 55, "duration": 480, "velocity": 90}, {"time": 140880, "pitch": 60, "duration": 240, "velocity": 110}, {"time": 141120, "pitch": 60, "duration": 480, "velocity": 110}, {"time": 141600, "pitch": 60, "duration": 480, "velocity": 110}, {"time": 142080, "pitch": 63, "duration": 720, "velocity": 110}, {"time": 142800, "pitch": 63, "duration": 240, "velocity": 110}, {"time": 143040, "pitch": 66, "duration": 120, "velocity": 110}, {"time": 143160, "pitch": 63, "duration": 120, "velocity": 105}, {"time": 143280, "pitch": 65, "duration": 120, "velocity": 110}, {"time": 143400, "pitch": 62, "duration": 120, "velocity": 105}, {"time": 143520, "pitch": 65, "duration": 120, "velocity": 110}, {"time": 143640, "pitch": 62, "duration": 120, "velocity": 105}, {"time": 143760, "pitch": 64, "duration": 240, "velocity": 110}, {"time": 144000, "pitch": 62, "duration": 240, "velocity": 105}, {"time": 144240, "pitch": 62, "duration": 120, "velocity": 110}, {"time": 144360, "pitch": 64, "duration": 120, "velocity": 105}, {"time": 144480, "pitch": 65, "duration": 120, "velocity": 110}, {"time": 144600, "pitch": 67, "duration": 120, "velocity": 105}, {"time": 144720, "pitch": 69, "duration": 360, "velocity": 110}, {"time": 144960, "pitch": 72, "duration": 120, "velocity": 110}, {"time": 145080, "pitch": 69, "duration": 360, "velocity": 110}, {"time": 145320, "pitch": 67, "duration": 360, "velocity": 110}, {"time": 145680, "pitch": 64, "duration": 360, "velocity": 110}, {"time": 145920, "pitch": 72, "duration": 120, "velocity": 105}, {"time": 146040, "pitch": 65, "duration": 360, "velocity": 110}, {"time": 146280, "pitch": 74, "duration": 120, "velocity": 105}, {"time": 146400, "pitch": 67, "duration": 360, "velocity": 110}, {"time": 146640, "pitch": 76, "duration": 120, "velocity": 105}, {"time": 146760, "pitch": 71, "duration": 360, "velocity": 110}, {"time": 147000, "pitch": 79, "duration": 120, "velocity": 105}, {"time": 147120, "pitch": 79, "duration": 720, "velocity": 110}, {"time": 147840, "pitch": 77, "duration": 120, "velocity": 110}, {"time": 147960, "pitch": 76, "duration": 120, "velocity": 110}, {"time": 148080, "pitch": 77, "duration": 120, "velocity": 110}, {"time": 148200, "pitch": 79, "duration": 120, "velocity": 110}, {"time": 148440, "pitch": 74, "duration": 240, "velocity": 110}, {"time": 148680, "pitch": 72, "duration": 120, "velocity": 100}, {"time": 148800, "pitch": 74, "duration": 120, "velocity": 110}, {"time": 148920, "pitch": 69, "duration": 120, "velocity": 105}, {"time": 149040, "pitch": 72, "duration": 240, "velocity": 110}, {"time": 149280, "pitch": 72, "duration": 240, "velocity": 110}, {"time": 149520, "pitch": 72, "duration": 120, "velocity": 105}, {"time": 149640, "pitch": 72, "duration": 240, "velocity": 110}, {"time": 149880, "pitch": 72, "duration": 120, "velocity": 105}, {"time": 150000, "pitch": 72, "duration": 240, "velocity": 110}, {"time": 150240, "pitch": 72, "duration": 120, "velocity": 105}, {"time": 150360, "pitch": 72, "duration": 240, "velocity": 110}, {"time": 150600, "pitch": 72, "duration": 120, "velocity": 105}, {"time": 150720, "pitch": 72, "duration": 120, "velocity": 110}, {"time": 150840, "pitch": 72, "duration": 120, "velocity": 105}, {"time": 150960, "pitch": 72, "duration": 120, "velocity": 110}, {"time": 151080, "pitch": 72, "duration": 120, "velocity": 105}, {"time": 151200, "pitch": 72, "duration": 120, "velocity": 110}, {"time": 151320, "pitch": 72, "duration": 120, "velocity": 105}, {"time": 151440, "pitch": 72, "duration": 120, "velocity": 110}, {"time": 151560, "pitch": 72, "duration": 120, "velocity": 105}, {"time": 151680, "pitch": 72, "duration": 120, "velocity": 110}, {"time": 151800, "pitch": 72, "duration": 120, "velocity": 105}, {"time": 151920, "pitch": 72, "duration": 120, "velocity": 110}, {"time": 152040, "pitch": 72, "duration": 120, "velocity": 105}, {"time": 152160, "pitch": 81, "duration": 720, "velocity": 110}, {"time": 152880, "pitch": 79, "duration": 120, "velocity": 105}, {"time": 153000, "pitch": 76, "duration": 120, "velocity": 100}, {"time": 153120, "pitch": 81, "duration": 1920, "velocity": 110}, {"time": 203520, "pitch": 66, "duration": 160, "velocity": 105}, {"time": 203530, "pitch": 71, "duration": 150, "velocity": 110}, {"time": 204000, "pitch": 64, "duration": 480, "velocity": 105}, {"time": 204010, "pitch": 69, "duration": 480, "velocity": 110}, {"time": 204480, "pitch": 62, "duration": 480, "velocity": 110}, {"time": 204960, "pitch": 62, "duration": 480, "velocity": 110}, {"time": 205440, "pitch": 62, "duration": 120, "velocity": 110}, {"time": 205560, "pitch": 62, "duration": 120, "velocity": 105}, {"time": 205680, "pitch": 59, "duration": 240, "velocity": 110}, {"time": 205920, "pitch": 62, "duration": 240, "velocity": 110}, {"time": 206160, "pitch": 62, "duration": 120, "velocity": 110}, {"time": 206280, "pitch": 62, "duration": 120, "velocity": 105}, {"time": 206400, "pitch": 66, "duration": 480, "velocity": 110}, {"time": 207600, "pitch": 66, "duration": 120, "velocity": 110}, {"time": 207720, "pitch": 66, "duration": 120, "velocity": 105}, {"time": 207840, "pitch": 66, "duration": 360, "velocity": 110}, {"time": 208200, "pitch": 66, "duration": 120, "velocity": 110}, {"time": 208560, "pitch": 62, "duration": 120, "velocity": 105}, {"time": 208800, "pitch": 66, "duration": 360, "velocity": 110}, {"time": 209160, "pitch": 66, "duration": 120, "velocity": 110}, {"time": 209520, "pitch": 64, "duration": 240, "velocity": 105}, {"time": 209760, "pitch": 64, "duration": 240, "velocity": 110}, {"time": 210000, "pitch": 64, "duration": 160, "velocity": 105}, {"time": 210240, "pitch": 64, "duration": 240, "velocity": 110}, {"time": 210480, "pitch": 62, "duration": 120, "velocity": 110}, {"time": 210600, "pitch": 59, "duration": 120, "velocity": 105}, {"time": 211200, "pitch": 66, "duration": 160, "velocity": 105}, {"time": 211210, "pitch": 71, "duration": 150, "velocity": 110}, {"time": 211680, "pitch": 64, "duration": 480, "velocity": 105}, {"time": 211690, "pitch": 69, "duration": 480, "velocity": 110}, {"time": 212160, "pitch": 62, "duration": 480, "velocity": 110}, {"time": 212640, "pitch": 62, "duration": 480, "velocity": 110}, {"time": 213120, "pitch": 62, "duration": 120, "velocity": 110}, {"time": 213240, "pitch": 62, "duration": 120, "velocity": 105}, {"time": 213360, "pitch": 59, "duration": 240, "velocity": 110}, {"time": 213600, "pitch": 62, "duration": 240, "velocity": 110}, {"time": 213840, "pitch": 62, "duration": 120, "velocity": 110}, {"time": 213960, "pitch": 62, "duration": 120, "velocity": 105}, {"time": 214080, "pitch": 66, "duration": 480, "velocity": 110}, {"time": 215280, "pitch": 66, "duration": 120, "velocity": 110}, {"time": 215400, "pitch": 66, "duration": 120, "velocity": 105}, {"time": 215520, "pitch": 66, "duration": 360, "velocity": 110}, {"time": 215880, "pitch": 66, "duration": 120, "velocity": 110}, {"time": 216240, "pitch": 62, "duration": 120, "velocity": 105}, {"time": 216480, "pitch": 66, "duration": 360, "velocity": 110}, {"time": 216840, "pitch": 66, "duration": 120, "velocity": 110}, {"time": 217200, "pitch": 62, "duration": 120, "velocity": 105}, {"time": 217440, "pitch": 71, "duration": 240, "velocity": 110}, {"time": 217680, "pitch": 69, "duration": 120, "velocity": 110}, {"time": 217800, "pitch": 66, "duration": 120, "velocity": 105}, {"time": 217920, "pitch": 69, "duration": 120, "velocity": 110}, {"time": 218040, "pitch": 66, "duration": 120, "velocity": 105}, {"time": 218160, "pitch": 64, "duration": 120, "velocity": 110}, {"time": 218280, "pitch": 62, "duration": 120, "velocity": 105}, {"time": 218880, "pitch": 66, "duration": 160, "velocity": 105}, {"time": 218890, "pitch": 71, "duration": 150, "velocity": 110}, {"time": 219360, "pitch": 64, "duration": 480, "velocity": 105}, {"time": 219370, "pitch": 69, "duration": 480, "velocity": 110}, {"time": 219840, "pitch": 62, "duration": 480, "velocity": 110}, {"time": 220320, "pitch": 62, "duration": 480, "velocity": 110}, {"time": 220800, "pitch": 62, "duration": 120, "velocity": 110}, {"time": 220920, "pitch": 62, "duration": 120, "velocity": 105}, {"time": 221040, "pitch": 59, "duration": 240, "velocity": 110}, {"time": 221280, "pitch": 62, "duration": 240, "velocity": 110}, {"time": 221520, "pitch": 62, "duration": 120, "velocity": 110}, {"time": 221640, "pitch": 62, "duration": 120, "velocity": 105}, {"time": 221760, "pitch": 66, "duration": 480, "velocity": 110}, {"time": 222960, "pitch": 66, "duration": 120, "velocity": 110}, {"time": 223080, "pitch": 66, "duration": 120, "velocity": 105}, {"time": 223200, "pitch": 66, "duration": 360, "velocity": 110}, {"time": 223560, "pitch": 66, "duration": 120, "velocity": 110}, {"time": 223920, "pitch": 62, "duration": 120, "velocity": 105}, {"time": 224160, "pitch": 66, "duration": 360, "velocity": 110}, {"time": 224520, "pitch": 66, "duration": 120, "velocity": 110}, {"time": 224880, "pitch": 64, "duration": 240, "velocity": 105}, {"time": 225120, "pitch": 64, "duration": 240, "velocity": 110}, {"time": 225360, "pitch": 64, "duration": 160, "velocity": 105}, {"time": 225600, "pitch": 64, "duration": 240, "velocity": 110}, {"time": 225840, "pitch": 62, "duration": 120, "velocity": 110}, {"time": 225960, "pitch": 59, "duration": 120, "velocity": 105}, {"time": 226560, "pitch": 66, "duration": 154, "velocity": 105}, {"time": 226570, "pitch": 71, "duration": 144, "velocity": 110}, {"time": 227021, "pitch": 64, "duration": 479, "velocity": 105}, {"time": 227031, "pitch": 69, "duration": 479, "velocity": 110}, {"time": 227500, "pitch": 62, "duration": 480, "velocity": 110}, {"time": 227980, "pitch": 62, "duration": 500, "velocity": 110}, {"time": 228480, "pitch": 62, "duration": 120, "velocity": 110}, {"time": 228600, "pitch": 62, "duration": 120, "velocity": 105}, {"time": 228720, "pitch": 59, "duration": 240, "velocity": 110}, {"time": 228960, "pitch": 62, "duration": 240, "velocity": 110}, {"time": 229200, "pitch": 62, "duration": 120, "velocity": 110}, {"time": 229320, "pitch": 62, "duration": 120, "velocity": 105}, {"time": 229440, "pitch": 66, "duration": 480, "velocity": 110}, {"time": 230640, "pitch": 66, "duration": 120, "velocity": 110}, {"time": 230760, "pitch": 66, "duration": 120, "velocity": 105}, {"time": 230880, "pitch": 66, "duration": 360, "velocity": 110}, {"time": 231240, "pitch": 66, "duration": 120, "velocity": 110}, {"time": 231600, "pitch": 62, "duration": 120, "velocity": 105}, {"time": 231840, "pitch": 66, "duration": 353, "velocity": 110}, {"time": 232193, "pitch": 66, "duration": 118, "velocity": 110}, {"time": 232546, "pitch": 64, "duration": 235, "velocity": 105}, {"time": 232781, "pitch": 64, "duration": 235, "velocity": 110}, {"time": 233016, "pitch": 64, "duration": 157, "velocity": 105}, {"time": 233252, "pitch": 64, "duration": 235, "velocity": 110}, {"time": 233487, "pitch": 62, "duration": 118, "velocity": 110}, {"time": 233605, "pitch": 59, "duration": 117, "velocity": 105}, {"time": 73680, "pitch": 45, "duration": 240, "velocity": 127}, {"time": 73920, "pitch": 48, "duration": 240, "velocity": 120}, {"time": 74160, "pitch": 50, "duration": 240, "velocity": 120}, {"time": 480, "pitch": 36, "duration": 10, "velocity": 106}, {"time": 480, "pitch": 40, "duration": 10, "velocity": 106}, {"time": 500, "pitch": 40, "duration": 10, "velocity": 106}, {"time": 720, "pitch": 40, "duration": 10, "velocity": 106}, {"time": 840, "pitch": 40, "duration": 10, "velocity": 92}, {"time": 960, "pitch": 36, "duration": 10, "velocity": 106}, {"time": 1080, "pitch": 40, "duration": 10, "velocity": 92}, {"time": 1200, "pitch": 36, "duration": 10, "velocity": 106}, {"time": 1200, "pitch": 40, "duration": 10, "velocity": 106}, {"time": 1320, "pitch": 40, "duration": 10, "velocity": 106}, {"time": 1440, "pitch": 36, "duration": 10, "velocity": 106}, {"time": 1440, "pitch": 40, "duration": 10, "velocity": 92}, {"time": 1680, "pitch": 36, "duration": 10, "velocity": 106}, {"time": 1680, "pitch": 40, "duration": 10, "velocity": 106}, {"time": 1920, "pitch": 36, "duration": 10, "velocity": 106}, {"time": 1920, "pitch": 40, "duration": 10, "velocity": 106}, {"time": 2160, "pitch": 36, "duration": 10, "velocity": 106}, {"time": 2400, "pitch": 36, "duration": 10, "velocity": 106}, {"time": 2400, "pitch": 49, "duration": 10, "velocity": 92}, {"time": 2400, "pitch": 54, "duration": 10, "velocity": 78}, {"time": 2520, "pitch": 54, "duration": 10, "velocity": 50}, {"time": 2640, "pitch": 46, "duration": 10, "velocity": 50}, {"time": 2640, "pitch": 54, "duration": 10, "velocity": 64}, {"time": 2760, "pitch": 36, "duration": 10, "velocity": 92}, {"time": 2760, "pitch": 54, "duration": 10, "velocity": 50}, {"time": 2880, "pitch": 40, "duration": 10, "velocity": 106}, {"time": 2880, "pitch": 46, "duration": 10, "velocity": 106}, {"time": 2880, "pitch": 54, "duration": 10, "velocity": 106}, {"time": 3000, "pitch": 54, "duration": 10, "velocity": 50}, {"time": 3120, "pitch": 46, "duration": 10, "velocity": 50}, {"time": 3120, "pitch": 54, "duration": 10, "velocity": 64}, {"time": 3240, "pitch": 54, "duration": 10, "velocity": 50}, {"time": 3360, "pitch": 36, "duration": 10, "velocity": 106}, {"time": 3360, "pitch": 46, "duration": 10, "velocity": 106}, {"time": 3360, "pitch": 54, "duration": 10, "velocity": 78}, {"time": 3480, "pitch": 54, "duration": 10, "velocity": 50}, {"time": 3600, "pitch": 46, "duration": 10, "velocity": 50}, {"time": 3600, "pitch": 54, "duration": 10, "velocity": 64}, {"time": 3720, "pitch": 36, "duration": 10, "velocity": 92}, {"time": 3720, "pitch": 54, "duration": 10, "velocity": 50}, {"time": 3840, "pitch": 40, "duration": 10, "velocity": 106}, {"time": 3840, "pitch": 46, "duration": 10, "velocity": 106}, {"time": 3840, "pitch": 54, "duration": 10, "velocity": 106}, {"time": 3960, "pitch": 54, "duration": 10, "velocity": 50}, {"time": 4080, "pitch": 46, "duration": 10, "velocity": 50}, {"time": 4080, "pitch": 54, "duration": 10, "velocity": 64}, {"time": 4200, "pitch": 54, "duration": 10, "velocity": 50}, {"time": 4320, "pitch": 36, "duration": 10, "velocity": 106}, {"time": 4320, "pitch": 46, "duration": 10, "velocity": 106}, {"time": 4320, "pitch": 54, "duration": 10, "velocity": 78}, {"time": 4440, "pitch": 54, "duration": 10, "velocity": 50}, {"time": 4560, "pitch": 46, "duration": 10, "velocity": 50}, {"time": 4560, "pitch": 54, "duration": 10, "velocity": 64}, {"time": 4680, "pitch": 36, "duration": 10, "velocity": 92}, {"time": 4680, "pitch": 54, "duration": 10, "velocity": 50}, {"time": 4800, "pitch": 40, "duration": 10, "velocity": 106}, {"time": 4800, "pitch": 46, "duration": 10, "velocity": 106}, {"time": 4800, "pitch": 54, "duration": 10, "velocity": 106}, {"time": 4920, "pitch": 54, "duration": 10, "velocity": 50}, {"time": 5040, "pitch": 46, "duration": 10, "velocity": 50}, {"time": 5040, "pitch": 54, "duration": 10, "velocity": 64}, {"time": 5160, "pitch": 54, "duration": 10, "velocity": 50}, {"time": 5280, "pitch": 36, "duration": 10, "velocity": 106}, {"time": 5280, "pitch": 46, "duration": 10, "velocity": 106}, {"time": 5280, "pitch": 54, "duration": 10, "velocity": 78}, {"time": 5400, "pitch": 54, "duration": 10, "velocity": 50}, {"time": 5520, "pitch": 36, "duration": 10, "velocity": 92}, {"time": 5520, "pitch": 46, "duration": 10, "velocity": 50}, {"time": 5520, "pitch": 54, "duration": 10, "velocity": 64}, {"time": 5640, "pitch": 54, "duration": 10, "velocity": 50}, {"time": 5760, "pitch": 40, "duration": 10, "velocity": 106}, {"time": 5760, "pitch": 46, "duration": 10, "velocity": 106}, {"time": 5760, "pitch": 54, "duration": 10, "velocity": 106}, {"time": 5880, "pitch": 54, "duration": 10, "velocity": 50}, {"time": 6000, "pitch": 46, "duration": 10, "velocity": 50}, {"time": 6000, "pitch": 54, "duration": 10, "velocity": 64}, {"time": 6120, "pitch": 54, "duration": 10, "velocity": 50}, {"time": 6240, "pitch": 36, "duration": 10, "velocity": 106}, {"time": 6240, "pitch": 46, "duration": 10, "velocity": 106}, {"time": 6240, "pitch": 54, "duration": 10, "velocity": 78}, {"time": 6360, "pitch": 54, "duration": 10, "velocity": 50}, {"time": 6480, "pitch": 46, "duration": 10, "velocity": 50}, {"time": 6480, "pitch": 54, "duration": 10, "velocity": 64}, {"time": 6600, "pitch": 36, "duration": 10, "velocity": 92}, {"time": 6600, "pitch": 54, "duration": 10, "velocity": 50}, {"time": 6720, "pitch": 40, "duration": 10, "velocity": 106}, {"time": 6720, "pitch": 46, "duration": 10, "velocity": 106}, {"time": 6720, "pitch": 54, "duration": 10, "velocity": 106}, {"time": 6840, "pitch": 54, "duration": 10, "velocity": 50}, {"time": 6960, "pitch": 46, "duration": 10, "velocity": 50}, {"time": 6960, "pitch": 54, "duration": 10, "velocity": 64}, {"time": 7080, "pitch": 54, "duration": 10, "velocity": 50}, {"time": 7200, "pitch": 36, "duration": 10, "velocity": 106}, {"time": 7200, "pitch": 46, "duration": 10, "velocity": 106}, {"time": 7200, "pitch": 54, "duration": 10, "velocity": 78}, {"time": 7320, "pitch": 54, "duration": 10, "velocity": 50}, {"time": 7440, "pitch": 46, "duration": 10, "velocity": 50}, {"time": 7440, "pitch": 54, "duration": 10, "velocity": 64}, {"time": 7560, "pitch": 36, "duration": 10, "velocity": 92}, {"time": 7560, "pitch": 54, "duration": 10, "velocity": 50}, {"time": 7680, "pitch": 40, "duration": 10, "velocity": 106}, {"time": 7680, "pitch": 46, "duration": 10, "velocity": 106}, {"time": 7680, "pitch": 54, "duration": 10, "velocity": 106}, {"time": 7800, "pitch": 54, "duration": 10, "velocity": 50}, {"time": 7920, "pitch": 46, "duration": 10, "velocity": 50}, {"time": 7920, "pitch": 54, "duration": 10, "velocity": 64}, {"time": 8040, "pitch": 54, "duration": 10, "velocity": 50}, {"time": 8160, "pitch": 36, "duration": 10, "velocity": 106}, {"time": 8160, "pitch": 46, "duration": 10, "velocity": 106}, {"time": 8160, "pitch": 54, "duration": 10, "velocity": 78}, {"time": 8280, "pitch": 54, "duration": 10, "velocity": 50}, {"time": 8400, "pitch": 46, "duration": 10, "velocity": 50}, {"time": 8400, "pitch": 54, "duration": 10, "velocity": 64}, {"time": 8520, "pitch": 36, "duration": 10, "velocity": 92}, {"time": 8520, "pitch": 54, "duration": 10, "velocity": 50}, {"time": 8640, "pitch": 40, "duration": 10, "velocity": 106}, {"time": 8640, "pitch": 46, "duration": 10, "velocity": 106}, {"time": 8640, "pitch": 54, "duration": 10, "velocity": 106}, {"time": 8760, "pitch": 54, "duration": 10, "velocity": 50}, {"time": 8880, "pitch": 46, "duration": 10, "velocity": 50}, {"time": 8880, "pitch": 54, "duration": 10, "velocity": 64}, {"time": 9000, "pitch": 54, "duration": 10, "velocity": 50}, {"time": 9120, "pitch": 36, "duration": 10, "velocity": 106}, {"time": 9120, "pitch": 46, "duration": 10, "velocity": 106}, {"time": 9120, "pitch": 54, "duration": 10, "velocity": 78}, {"time": 9240, "pitch": 40, "duration": 10, "velocity": 106}, {"time": 9240, "pitch": 54, "duration": 10, "velocity": 50}, {"time": 9360, "pitch": 36, "duration": 10, "velocity": 92}, {"time": 9360, "pitch": 46, "duration": 10, "velocity": 50}, {"time": 9360, "pitch": 54, "duration": 10, "velocity": 64}, {"time": 9480, "pitch": 54, "duration": 10, "velocity": 50}, {"time": 9600, "pitch": 40, "duration": 10, "velocity": 106}, {"time": 9600, "pitch": 46, "duration": 10, "velocity": 106}, {"time": 9600, "pitch": 54, "duration": 10, "velocity": 106}, {"time": 9720, "pitch": 54, "duration": 10, "velocity": 50}, {"time": 9840, "pitch": 36, "duration": 10, "velocity": 106}, {"time": 9840, "pitch": 46, "duration": 10, "velocity": 106}, {"time": 9840, "pitch": 54, "duration": 10, "velocity": 64}, {"time": 9960, "pitch": 54, "duration": 10, "velocity": 50}, {"time": 10080, "pitch": 36, "duration": 10, "velocity": 106}, {"time": 10080, "pitch": 54, "duration": 10, "velocity": 78}, {"time": 10080, "pitch": 57, "duration": 10, "velocity": 92}, {"time": 10200, "pitch": 54, "duration": 10, "velocity": 50}, {"time": 10320, "pitch": 54, "duration": 10, "velocity": 64}, {"time": 10440, "pitch": 36, "duration": 10, "velocity": 92}, {"time": 10440, "pitch": 54, "duration": 10, "velocity": 50}, {"time": 10560, "pitch": 40, "duration": 10, "velocity": 106}, {"time": 10560, "pitch": 46, "duration": 10, "velocity": 106}, {"time": 10560, "pitch": 54, "duration": 10, "velocity": 106}, {"time": 10680, "pitch": 54, "duration": 10, "velocity": 50}, {"time": 10800, "pitch": 46, "duration": 10, "velocity": 50}, {"time": 10800, "pitch": 54, "duration": 10, "velocity": 64}, {"time": 10920, "pitch": 54, "duration": 10, "velocity": 50}, {"time": 11040, "pitch": 36, "duration": 10, "velocity": 106}, {"time": 11040, "pitch": 46, "duration": 10, "velocity": 106}, {"time": 11040, "pitch": 54, "duration": 10, "velocity": 78}, {"time": 11160, "pitch": 54, "duration": 10, "velocity": 50}, {"time": 11280, "pitch": 46, "duration": 10, "velocity": 50}, {"time": 11280, "pitch": 54, "duration": 10, "velocity": 64}, {"time": 11400, "pitch": 36, "duration": 10, "velocity": 92}, {"time": 11400, "pitch": 54, "duration": 10, "velocity": 50}, {"time": 11520, "pitch": 40, "duration": 10, "velocity": 106}, {"time": 11520, "pitch": 46, "duration": 10, "velocity": 106}, {"time": 11520, "pitch": 54, "duration": 10, "velocity": 106}, {"time": 11640, "pitch": 54, "duration": 10, "velocity": 50}, {"time": 11760, "pitch": 46, "duration": 10, "velocity": 50}, {"time": 11760, "pitch": 54, "duration": 10, "velocity": 64}, {"time": 11880, "pitch": 54, "duration": 10, "velocity": 50}, {"time": 12000, "pitch": 36, "duration": 10, "velocity": 106}, {"time": 12000, "pitch": 46, "duration": 10, "velocity": 106}, {"time": 12000, "pitch": 54, "duration": 10, "velocity": 78}, {"time": 12120, "pitch": 54, "duration": 10, "velocity": 50}, {"time": 12240, "pitch": 46, "duration": 10, "velocity": 50}, {"time": 12240, "pitch": 54, "duration": 10, "velocity": 64}, {"time": 12360, "pitch": 36, "duration": 10, "velocity": 92}, {"time": 12360, "pitch": 54, "duration": 10, "velocity": 50}, {"time": 12480, "pitch": 40, "duration": 10, "velocity": 106}, {"time": 12480, "pitch": 46, "duration": 10, "velocity": 106}, {"time": 12480, "pitch": 54, "duration": 10, "velocity": 106}, {"time": 12600, "pitch": 54, "duration": 10, "velocity": 50}, {"time": 12720, "pitch": 46, "duration": 10, "velocity": 50}, {"time": 12720, "pitch": 54, "duration": 10, "velocity": 64}, {"time": 12840, "pitch": 54, "duration": 10, "velocity": 50}, {"time": 12960, "pitch": 36, "duration": 10, "velocity": 106}, {"time": 12960, "pitch": 46, "duration": 10, "velocity": 106}, {"time": 12960, "pitch": 54, "duration": 10, "velocity": 78}, {"time": 13080, "pitch": 54, "duration": 10, "velocity": 50}, {"time": 13200, "pitch": 36, "duration": 10, "velocity": 92}, {"time": 13200, "pitch": 46, "duration": 10, "velocity": 50}, {"time": 13200, "pitch": 54, "duration": 10, "velocity": 64}, {"time": 13320, "pitch": 54, "duration": 10, "velocity": 50}, {"time": 13440, "pitch": 40, "duration": 10, "velocity": 106}, {"time": 13440, "pitch": 46, "duration": 10, "velocity": 106}, {"time": 13440, "pitch": 54, "duration": 10, "velocity": 106}, {"time": 13560, "pitch": 54, "duration": 10, "velocity": 50}, {"time": 13680, "pitch": 40, "duration": 10, "velocity": 106}, {"time": 13680, "pitch": 46, "duration": 10, "velocity": 50}, {"time": 13680, "pitch": 54, "duration": 10, "velocity": 64}, {"time": 13800, "pitch": 40, "duration": 10, "velocity": 92}, {"time": 13800, "pitch": 54, "duration": 10, "velocity": 50}, {"time": 13920, "pitch": 36, "duration": 10, "velocity": 106}, {"time": 13920, "pitch": 46, "duration": 10, "velocity": 106}, {"time": 13920, "pitch": 54, "duration": 10, "velocity": 78}, {"time": 14040, "pitch": 54, "duration": 10, "velocity": 50}, {"time": 14160, "pitch": 46, "duration": 10, "velocity": 50}, {"time": 14160, "pitch": 54, "duration": 10, "velocity": 64}, {"time": 14280, "pitch": 36, "duration": 10, "velocity": 106}, {"time": 14280, "pitch": 54, "duration": 10, "velocity": 50}, {"time": 14400, "pitch": 40, "duration": 10, "velocity": 106}, {"time": 14400, "pitch": 46, "duration": 10, "velocity": 106}, {"time": 14400, "pitch": 54, "duration": 10, "velocity": 106}, {"time": 14520, "pitch": 54, "duration": 10, "velocity": 50}, {"time": 14640, "pitch": 36, "duration": 10, "velocity": 106}, {"time": 14640, "pitch": 54, "duration": 10, "velocity": 64}, {"time": 14640, "pitch": 57, "duration": 10, "velocity": 92}, {"time": 14760, "pitch": 54, "duration": 10, "velocity": 50}, {"time": 14880, "pitch": 36, "duration": 10, "velocity": 106}, {"time": 14880, "pitch": 46, "duration": 10, "velocity": 106}, {"time": 14880, "pitch": 54, "duration": 10, "velocity": 78}, {"time": 15000, "pitch": 54, "duration": 10, "velocity": 50}, {"time": 15120, "pitch": 46, "duration": 10, "velocity": 92}, {"time": 15120, "pitch": 54, "duration": 10, "velocity": 64}, {"time": 15240, "pitch": 36, "duration": 10, "velocity": 92}, {"time": 15240, "pitch": 54, "duration": 10, "velocity": 50}, {"time": 15360, "pitch": 40, "duration": 10, "velocity": 106}, {"time": 15360, "pitch": 46, "duration": 10, "velocity": 106}, {"time": 15360, "pitch": 54, "duration": 10, "velocity": 106}, {"time": 15480, "pitch": 54, "duration": 10, "velocity": 50}, {"time": 15600, "pitch": 46, "duration": 10, "velocity": 92}, {"time": 15600, "pitch": 54, "duration": 10, "velocity": 64}, {"time": 15720, "pitch": 54, "duration": 10, "velocity": 50}, {"time": 15840, "pitch": 36, "duration": 10, "velocity": 106}, {"time": 15840, "pitch": 46, "duration": 10, "velocity": 106}, {"time": 15840, "pitch": 54, "duration": 10, "velocity": 78}, {"time": 15960, "pitch": 54, "duration": 10, "velocity": 50}, {"time": 16080, "pitch": 54, "duration": 10, "velocity": 64}, {"time": 16200, "pitch": 36, "duration": 10, "velocity": 92}, {"time": 16200, "pitch": 54, "duration": 10, "velocity": 50}, {"time": 16200, "pitch": 57, "duration": 10, "velocity": 92}, {"time": 16320, "pitch": 40, "duration": 10, "velocity": 106}, {"time": 16320, "pitch": 54, "duration": 10, "velocity": 106}, {"time": 16440, "pitch": 54, "duration": 10, "velocity": 50}, {"time": 16560, "pitch": 36, "duration": 10, "velocity": 106}, {"time": 16560, "pitch": 49, "duration": 10, "velocity": 92}, {"time": 16560, "pitch": 54, "duration": 10, "velocity": 64}, {"time": 16680, "pitch": 54, "duration": 10, "velocity": 50}, {"time": 16800, "pitch": 36, "duration": 10, "velocity": 106}, {"time": 16800, "pitch": 46, "duration": 10, "velocity": 106}, {"time": 16800, "pitch": 54, "duration": 10, "velocity": 78}, {"time": 16920, "pitch": 54, "duration": 10, "velocity": 50}, {"time": 17040, "pitch": 46, "duration": 10, "velocity": 92}, {"time": 17040, "pitch": 54, "duration": 10, "velocity": 64}, {"time": 17160, "pitch": 54, "duration": 10, "velocity": 50}, {"time": 17280, "pitch": 40, "duration": 10, "velocity": 106}, {"time": 17280, "pitch": 46, "duration": 10, "velocity": 106}, {"time": 17280, "pitch": 54, "duration": 10, "velocity": 106}, {"time": 17400, "pitch": 54, "duration": 10, "velocity": 50}, {"time": 17520, "pitch": 36, "duration": 10, "velocity": 106}, {"time": 17520, "pitch": 46, "duration": 10, "velocity": 92}, {"time": 17520, "pitch": 54, "duration": 10, "velocity": 64}, {"time": 17640, "pitch": 54, "duration": 10, "velocity": 50}, {"time": 17760, "pitch": 36, "duration": 10, "velocity": 106}, {"time": 17760, "pitch": 40, "duration": 10, "velocity": 106}, {"time": 17760, "pitch": 54, "duration": 10, "velocity": 11}, {"time": 17820, "pitch": 54, "duration": 10, "velocity": 16}, {"time": 17880, "pitch": 54, "duration": 10, "velocity": 23}, {"time": 17940, "pitch": 54, "duration": 10, "velocity": 29}, {"time": 18000, "pitch": 40, "duration": 10, "velocity": 106}, {"time": 18000, "pitch": 54, "duration": 10, "velocity": 35}, {"time": 18060, "pitch": 54, "duration": 10, "velocity": 41}, {"time": 18120, "pitch": 54, "duration": 10, "velocity": 48}, {"time": 18180, "pitch": 54, "duration": 10, "velocity": 54}, {"time": 18240, "pitch": 36, "duration": 10, "velocity": 106}, {"time": 18240, "pitch": 40, "duration": 10, "velocity": 106}, {"time": 18240, "pitch": 54, "duration": 10, "velocity": 60}, {"time": 18300, "pitch": 54, "duration": 10, "velocity": 66}, {"time": 18360, "pitch": 40, "duration": 10, "velocity": 92}, {"time": 18360, "pitch": 54, "duration": 10, "velocity": 73}, {"time": 18420, "pitch": 54, "duration": 10, "velocity": 79}, {"time": 18480, "pitch": 41, "duration": 10, "velocity": 106}, {"time": 18480, "pitch": 54, "duration": 10, "velocity": 85}, {"time": 18540, "pitch": 54, "duration": 10, "velocity": 91}, {"time": 18600, "pitch": 54, "duration": 10, "velocity": 98}, {"time": 18660, "pitch": 54, "duration": 10, "velocity": 104}, {"time": 18720, "pitch": 36, "duration": 10, "velocity": 106}, {"time": 18720, "pitch": 49, "duration": 10, "velocity": 92}, {"time": 19080, "pitch": 36, "duration": 10, "velocity": 106}, {"time": 19200, "pitch": 40, "duration": 10, "velocity": 106}, {"time": 19200, "pitch": 42, "duration": 10, "velocity": 106}, {"time": 19440, "pitch": 36, "duration": 10, "velocity": 106}, {"time": 19440, "pitch": 42, "duration": 10, "velocity": 50}, {"time": 19680, "pitch": 36, "duration": 10, "velocity": 106}, {"time": 19680, "pitch": 42, "duration": 10, "velocity": 106}, {"time": 19920, "pitch": 42, "duration": 10, "velocity": 50}, {"time": 20040, "pitch": 36, "duration": 10, "velocity": 106}, {"time": 20160, "pitch": 40, "duration": 10, "velocity": 106}, {"time": 20160, "pitch": 42, "duration": 10, "velocity": 106}, {"time": 20400, "pitch": 42, "duration": 10, "velocity": 50}, {"time": 20640, "pitch": 36, "duration": 10, "velocity": 106}, {"time": 20640, "pitch": 42, "duration": 10, "velocity": 106}, {"time": 20880, "pitch": 42, "duration": 10, "velocity": 50}, {"time": 21000, "pitch": 36, "duration": 10, "velocity": 106}, {"time": 21120, "pitch": 40, "duration": 10, "velocity": 106}, {"time": 21120, "pitch": 42, "duration": 10, "velocity": 106}, {"time": 21360, "pitch": 42, "duration": 10, "velocity": 50}, {"time": 21600, "pitch": 36, "duration": 10, "velocity": 106}, {"time": 21600, "pitch": 42, "duration": 10, "velocity": 106}, {"time": 21840, "pitch": 42, "duration": 10, "velocity": 50}, {"time": 21960, "pitch": 36, "duration": 10, "velocity": 106}, {"time": 22080, "pitch": 40, "duration": 10, "velocity": 106}, {"time": 22080, "pitch": 42, "duration": 10, "velocity": 106}, {"time": 22320, "pitch": 42, "duration": 10, "velocity": 50}, {"time": 22560, "pitch": 36, "duration": 10, "velocity": 106}, {"time": 22560, "pitch": 42, "duration": 10, "velocity": 106}, {"time": 22800, "pitch": 42, "duration": 10, "velocity": 50}, {"time": 22920, "pitch": 36, "duration": 10, "velocity": 106}, {"time": 23040, "pitch": 40, "duration": 10, "velocity": 106}, {"time": 23040, "pitch": 42, "duration": 10, "velocity": 106}, {"time": 23280, "pitch": 36, "duration": 10, "velocity": 106}, {"time": 23280, "pitch": 42, "duration": 10, "velocity": 50}, {"time": 23520, "pitch": 36, "duration": 10, "velocity": 106}, {"time": 23520, "pitch": 42, "duration": 10, "velocity": 106}, {"time": 23760, "pitch": 42, "duration": 10, "velocity": 50}, {"time": 23880, "pitch": 36, "duration": 10, "velocity": 106}, {"time": 24000, "pitch": 40, "duration": 10, "velocity": 106}, {"time": 24000, "pitch": 42, "duration": 10, "velocity": 106}, {"time": 24240, "pitch": 42, "duration": 10, "velocity": 50}, {"time": 24480, "pitch": 36, "duration": 10, "velocity": 106}, {"time": 24480, "pitch": 42, "duration": 10, "velocity": 106}, {"time": 24720, "pitch": 42, "duration": 10, "velocity": 50}, {"time": 24840, "pitch": 36, "duration": 10, "velocity": 106}, {"time": 24960, "pitch": 40, "duration": 10, "velocity": 106}, {"time": 24960, "pitch": 42, "duration": 10, "velocity": 106}, {"time": 25200, "pitch": 42, "duration": 10, "velocity": 50}, {"time": 25440, "pitch": 36, "duration": 10, "velocity": 106}, {"time": 25440, "pitch": 42, "duration": 10, "velocity": 106}, {"time": 25680, "pitch": 42, "duration": 10, "velocity": 50}, {"time": 25800, "pitch": 36, "duration": 10, "velocity": 106}, {"time": 25920, "pitch": 40, "duration": 10, "velocity": 106}, {"time": 25920, "pitch": 49, "duration": 10, "velocity": 92}, {"time": 26400, "pitch": 36, "duration": 10, "velocity": 106}, {"time": 26400, "pitch": 42, "duration": 10, "velocity": 106}, {"time": 26640, "pitch": 42, "duration": 10, "velocity": 50}, {"time": 26760, "pitch": 36, "duration": 10, "velocity": 106}, {"time": 26880, "pitch": 40, "duration": 10, "velocity": 106}, {"time": 26880, "pitch": 42, "duration": 10, "velocity": 106}, {"time": 27120, "pitch": 36, "duration": 10, "velocity": 106}, {"time": 27120, "pitch": 42, "duration": 10, "velocity": 50}, {"time": 27360, "pitch": 36, "duration": 10, "velocity": 106}, {"time": 27360, "pitch": 42, "duration": 10, "velocity": 106}, {"time": 27600, "pitch": 42, "duration": 10, "velocity": 50}, {"time": 27720, "pitch": 36, "duration": 10, "velocity": 106}, {"time": 27840, "pitch": 40, "duration": 10, "velocity": 106}, {"time": 27840, "pitch": 42, "duration": 10, "velocity": 106}, {"time": 28080, "pitch": 42, "duration": 10, "velocity": 50}, {"time": 28320, "pitch": 36, "duration": 10, "velocity": 106}, {"time": 28320, "pitch": 42, "duration": 10, "velocity": 106}, {"time": 28560, "pitch": 42, "duration": 10, "velocity": 50}, {"time": 28680, "pitch": 36, "duration": 10, "velocity": 106}, {"time": 28800, "pitch": 40, "duration": 10, "velocity": 106}, {"time": 28800, "pitch": 42, "duration": 10, "velocity": 106}, {"time": 29040, "pitch": 42, "duration": 10, "velocity": 50}, {"time": 29280, "pitch": 36, "duration": 10, "velocity": 106}, {"time": 29280, "pitch": 42, "duration": 10, "velocity": 106}, {"time": 29520, "pitch": 42, "duration": 10, "velocity": 50}, {"time": 29640, "pitch": 36, "duration": 10, "velocity": 106}, {"time": 29760, "pitch": 40, "duration": 10, "velocity": 106}, {"time": 29760, "pitch": 42, "duration": 10, "velocity": 106}, {"time": 30000, "pitch": 42, "duration": 10, "velocity": 50}, {"time": 30240, "pitch": 36, "duration": 10, "velocity": 106}, {"time": 30240, "pitch": 42, "duration": 10, "velocity": 106}, {"time": 30480, "pitch": 42, "duration": 10, "velocity": 50}, {"time": 30600, "pitch": 36, "duration": 10, "velocity": 106}, {"time": 30720, "pitch": 40, "duration": 10, "velocity": 106}, {"time": 30720, "pitch": 42, "duration": 10, "velocity": 106}, {"time": 30960, "pitch": 36, "duration": 10, "velocity": 106}, {"time": 30960, "pitch": 42, "duration": 10, "velocity": 50}, {"time": 31200, "pitch": 36, "duration": 10, "velocity": 106}, {"time": 31200, "pitch": 42, "duration": 10, "velocity": 106}, {"time": 31440, "pitch": 42, "duration": 10, "velocity": 50}, {"time": 31560, "pitch": 36, "duration": 10, "velocity": 106}, {"time": 31680, "pitch": 40, "duration": 10, "velocity": 106}, {"time": 31680, "pitch": 42, "duration": 10, "velocity": 106}, {"time": 31920, "pitch": 42, "duration": 10, "velocity": 50}, {"time": 32160, "pitch": 36, "duration": 10, "velocity": 106}, {"time": 32160, "pitch": 42, "duration": 10, "velocity": 106}, {"time": 32400, "pitch": 42, "duration": 10, "velocity": 50}, {"time": 32520, "pitch": 36, "duration": 10, "velocity": 106}, {"time": 32640, "pitch": 40, "duration": 10, "velocity": 106}, {"time": 32640, "pitch": 42, "duration": 10, "velocity": 106}, {"time": 32880, "pitch": 42, "duration": 10, "velocity": 50}, {"time": 33120, "pitch": 36, "duration": 10, "velocity": 106}, {"time": 33120, "pitch": 42, "duration": 10, "velocity": 106}, {"time": 33360, "pitch": 40, "duration": 10, "velocity": 106}, {"time": 33600, "pitch": 40, "duration": 10, "velocity": 106}, {"time": 33720, "pitch": 40, "duration": 10, "velocity": 92}, {"time": 33840, "pitch": 45, "duration": 10, "velocity": 106}, {"time": 34080, "pitch": 36, "duration": 10, "velocity": 106}, {"time": 34080, "pitch": 49, "duration": 10, "velocity": 92}, {"time": 34320, "pitch": 42, "duration": 10, "velocity": 92}, {"time": 34560, "pitch": 40, "duration": 10, "velocity": 106}, {"time": 34560, "pitch": 42, "duration": 10, "velocity": 106}, {"time": 34800, "pitch": 42, "duration": 10, "velocity": 92}, {"time": 35040, "pitch": 36, "duration": 10, "velocity": 106}, {"time": 35040, "pitch": 42, "duration": 10, "velocity": 106}, {"time": 35280, "pitch": 36, "duration": 10, "velocity": 92}, {"time": 35280, "pitch": 42, "duration": 10, "velocity": 92}, {"time": 35520, "pitch": 40, "duration": 10, "velocity": 106}, {"time": 35520, "pitch": 42, "duration": 10, "velocity": 106}, {"time": 35760, "pitch": 42, "duration": 10, "velocity": 92}, {"time": 36000, "pitch": 36, "duration": 10, "velocity": 106}, {"time": 36000, "pitch": 42, "duration": 10, "velocity": 106}, {"time": 36240, "pitch": 42, "duration": 10, "velocity": 92}, {"time": 36480, "pitch": 40, "duration": 10, "velocity": 106}, {"time": 36480, "pitch": 42, "duration": 10, "velocity": 106}, {"time": 36720, "pitch": 42, "duration": 10, "velocity": 92}, {"time": 36960, "pitch": 36, "duration": 10, "velocity": 106}, {"time": 36960, "pitch": 42, "duration": 10, "velocity": 106}, {"time": 37200, "pitch": 36, "duration": 10, "velocity": 92}, {"time": 37200, "pitch": 42, "duration": 10, "velocity": 92}, {"time": 37440, "pitch": 40, "duration": 10, "velocity": 106}, {"time": 37440, "pitch": 42, "duration": 10, "velocity": 106}, {"time": 37680, "pitch": 42, "duration": 10, "velocity": 92}, {"time": 37920, "pitch": 36, "duration": 10, "velocity": 106}, {"time": 37920, "pitch": 42, "duration": 10, "velocity": 106}, {"time": 38160, "pitch": 42, "duration": 10, "velocity": 92}, {"time": 38400, "pitch": 40, "duration": 10, "velocity": 106}, {"time": 38400, "pitch": 42, "duration": 10, "velocity": 106}, {"time": 38640, "pitch": 36, "duration": 10, "velocity": 106}, {"time": 38640, "pitch": 49, "duration": 10, "velocity": 92}, {"time": 38880, "pitch": 42, "duration": 10, "velocity": 106}, {"time": 39120, "pitch": 36, "duration": 10, "velocity": 92}, {"time": 39120, "pitch": 42, "duration": 10, "velocity": 92}, {"time": 39360, "pitch": 40, "duration": 10, "velocity": 106}, {"time": 39360, "pitch": 49, "duration": 10, "velocity": 92}, {"time": 39600, "pitch": 42, "duration": 10, "velocity": 92}, {"time": 39840, "pitch": 36, "duration": 10, "velocity": 106}, {"time": 39840, "pitch": 42, "duration": 10, "velocity": 106}, {"time": 40080, "pitch": 42, "duration": 10, "velocity": 92}, {"time": 40320, "pitch": 40, "duration": 10, "velocity": 106}, {"time": 40320, "pitch": 42, "duration": 10, "velocity": 106}, {"time": 40560, "pitch": 42, "duration": 10, "velocity": 92}, {"time": 40800, "pitch": 36, "duration": 10, "velocity": 106}, {"time": 40800, "pitch": 42, "duration": 10, "velocity": 106}, {"time": 40920, "pitch": 40, "duration": 10, "velocity": 106}, {"time": 41040, "pitch": 36, "duration": 10, "velocity": 92}, {"time": 41040, "pitch": 42, "duration": 10, "velocity": 92}, {"time": 41280, "pitch": 40, "duration": 10, "velocity": 106}, {"time": 41280, "pitch": 42, "duration": 10, "velocity": 106}, {"time": 41520, "pitch": 36, "duration": 10, "velocity": 106}, {"time": 41520, "pitch": 42, "duration": 10, "velocity": 92}, {"time": 41760, "pitch": 36, "duration": 10, "velocity": 106}, {"time": 41760, "pitch": 49, "duration": 10, "velocity": 92}, {"time": 42000, "pitch": 42, "duration": 10, "velocity": 92}, {"time": 42240, "pitch": 40, "duration": 10, "velocity": 106}, {"time": 42240, "pitch": 42, "duration": 10, "velocity": 106}, {"time": 42480, "pitch": 42, "duration": 10, "velocity": 92}, {"time": 42720, "pitch": 36, "duration": 10, "velocity": 106}, {"time": 42720, "pitch": 42, "duration": 10, "velocity": 106}, {"time": 42960, "pitch": 36, "duration": 10, "velocity": 92}, {"time": 42960, "pitch": 42, "duration": 10, "velocity": 92}, {"time": 43200, "pitch": 40, "duration": 10, "velocity": 106}, {"time": 43200, "pitch": 42, "duration": 10, "velocity": 106}, {"time": 43440, "pitch": 42, "duration": 10, "velocity": 92}, {"time": 43680, "pitch": 36, "duration": 10, "velocity": 106}, {"time": 43680, "pitch": 42, "duration": 10, "velocity": 106}, {"time": 43920, "pitch": 42, "duration": 10, "velocity": 92}, {"time": 44160, "pitch": 40, "duration": 10, "velocity": 106}, {"time": 44160, "pitch": 42, "duration": 10, "velocity": 106}, {"time": 44400, "pitch": 42, "duration": 10, "velocity": 92}, {"time": 44640, "pitch": 36, "duration": 10, "velocity": 106}, {"time": 44640, "pitch": 42, "duration": 10, "velocity": 106}, {"time": 44880, "pitch": 36, "duration": 10, "velocity": 92}, {"time": 44880, "pitch": 42, "duration": 10, "velocity": 92}, {"time": 45120, "pitch": 40, "duration": 10, "velocity": 106}, {"time": 45120, "pitch": 42, "duration": 10, "velocity": 106}, {"time": 45360, "pitch": 42, "duration": 10, "velocity": 92}, {"time": 45600, "pitch": 36, "duration": 10, "velocity": 106}, {"time": 45600, "pitch": 49, "duration": 10, "velocity": 92}, {"time": 45840, "pitch": 42, "duration": 10, "velocity": 92}, {"time": 46080, "pitch": 40, "duration": 10, "velocity": 106}, {"time": 46080, "pitch": 42, "duration": 10, "velocity": 106}, {"time": 46320, "pitch": 36, "duration": 10, "velocity": 106}, {"time": 46320, "pitch": 49, "duration": 10, "velocity": 92}, {"time": 46560, "pitch": 42, "duration": 10, "velocity": 106}, {"time": 46800, "pitch": 36, "duration": 10, "velocity": 92}, {"time": 46800, "pitch": 42, "duration": 10, "velocity": 92}, {"time": 47040, "pitch": 40, "duration": 10, "velocity": 106}, {"time": 47280, "pitch": 40, "duration": 10, "velocity": 106}, {"time": 47400, "pitch": 40, "duration": 10, "velocity": 92}, {"time": 47520, "pitch": 36, "duration": 10, "velocity": 106}, {"time": 47520, "pitch": 49, "duration": 10, "velocity": 92}, {"time": 47760, "pitch": 42, "duration": 10, "velocity": 92}, {"time": 48000, "pitch": 40, "duration": 10, "velocity": 106}, {"time": 48000, "pitch": 42, "duration": 10, "velocity": 106}, {"time": 48240, "pitch": 36, "duration": 10, "velocity": 106}, {"time": 48240, "pitch": 49, "duration": 10, "velocity": 92}, {"time": 48480, "pitch": 40, "duration": 10, "velocity": 106}, {"time": 48720, "pitch": 40, "duration": 10, "velocity": 106}, {"time": 48840, "pitch": 40, "duration": 10, "velocity": 92}, {"time": 48960, "pitch": 40, "duration": 10, "velocity": 106}, {"time": 49080, "pitch": 40, "duration": 10, "velocity": 92}, {"time": 49200, "pitch": 40, "duration": 10, "velocity": 106}, {"time": 49320, "pitch": 40, "duration": 10, "velocity": 92}, {"time": 49440, "pitch": 36, "duration": 10, "velocity": 106}, {"time": 49440, "pitch": 49, "duration": 10, "velocity": 92}, {"time": 49440, "pitch": 54, "duration": 10, "velocity": 78}, {"time": 49560, "pitch": 54, "duration": 10, "velocity": 50}, {"time": 49680, "pitch": 46, "duration": 10, "velocity": 50}, {"time": 49680, "pitch": 54, "duration": 10, "velocity": 64}, {"time": 49800, "pitch": 54, "duration": 10, "velocity": 50}, {"time": 49920, "pitch": 40, "duration": 10, "velocity": 106}, {"time": 49920, "pitch": 46, "duration": 10, "velocity": 106}, {"time": 49920, "pitch": 54, "duration": 10, "velocity": 106}, {"time": 50040, "pitch": 54, "duration": 10, "velocity": 50}, {"time": 50160, "pitch": 36, "duration": 10, "velocity": 92}, {"time": 50160, "pitch": 46, "duration": 10, "velocity": 50}, {"time": 50160, "pitch": 54, "duration": 10, "velocity": 64}, {"time": 50280, "pitch": 54, "duration": 10, "velocity": 50}, {"time": 50400, "pitch": 36, "duration": 10, "velocity": 106}, {"time": 50400, "pitch": 46, "duration": 10, "velocity": 106}, {"time": 50400, "pitch": 54, "duration": 10, "velocity": 78}, {"time": 50520, "pitch": 54, "duration": 10, "velocity": 50}, {"time": 50640, "pitch": 46, "duration": 10, "velocity": 50}, {"time": 50640, "pitch": 54, "duration": 10, "velocity": 64}, {"time": 50760, "pitch": 54, "duration": 10, "velocity": 50}, {"time": 50880, "pitch": 40, "duration": 10, "velocity": 106}, {"time": 50880, "pitch": 46, "duration": 10, "velocity": 106}, {"time": 50880, "pitch": 54, "duration": 10, "velocity": 106}, {"time": 51000, "pitch": 54, "duration": 10, "velocity": 50}, {"time": 51120, "pitch": 46, "duration": 10, "velocity": 50}, {"time": 51120, "pitch": 54, "duration": 10, "velocity": 64}, {"time": 51240, "pitch": 54, "duration": 10, "velocity": 50}, {"time": 51360, "pitch": 36, "duration": 10, "velocity": 106}, {"time": 51360, "pitch": 46, "duration": 10, "velocity": 106}, {"time": 51360, "pitch": 54, "duration": 10, "velocity": 78}, {"time": 51480, "pitch": 54, "duration": 10, "velocity": 50}, {"time": 51600, "pitch": 46, "duration": 10, "velocity": 50}, {"time": 51600, "pitch": 54, "duration": 10, "velocity": 64}, {"time": 51720, "pitch": 54, "duration": 10, "velocity": 50}, {"time": 51840, "pitch": 40, "duration": 10, "velocity": 106}, {"time": 51840, "pitch": 46, "duration": 10, "velocity": 106}, {"time": 51840, "pitch": 54, "duration": 10, "velocity": 106}, {"time": 51960, "pitch": 54, "duration": 10, "velocity": 50}, {"time": 52080, "pitch": 36, "duration": 10, "velocity": 92}, {"time": 52080, "pitch": 46, "duration": 10, "velocity": 50}, {"time": 52080, "pitch": 54, "duration": 10, "velocity": 64}, {"time": 52200, "pitch": 54, "duration": 10, "velocity": 50}, {"time": 52320, "pitch": 36, "duration": 10, "velocity": 106}, {"time": 52320, "pitch": 46, "duration": 10, "velocity": 106}, {"time": 52320, "pitch": 54, "duration": 10, "velocity": 78}, {"time": 52440, "pitch": 54, "duration": 10, "velocity": 50}, {"time": 52560, "pitch": 46, "duration": 10, "velocity": 50}, {"time": 52560, "pitch": 54, "duration": 10, "velocity": 64}, {"time": 52680, "pitch": 54, "duration": 10, "velocity": 50}, {"time": 52800, "pitch": 40, "duration": 10, "velocity": 106}, {"time": 52800, "pitch": 46, "duration": 10, "velocity": 106}, {"time": 52800, "pitch": 54, "duration": 10, "velocity": 106}, {"time": 52920, "pitch": 54, "duration": 10, "velocity": 50}, {"time": 53040, "pitch": 46, "duration": 10, "velocity": 50}, {"time": 53040, "pitch": 54, "duration": 10, "velocity": 64}, {"time": 53160, "pitch": 54, "duration": 10, "velocity": 50}, {"time": 53280, "pitch": 36, "duration": 10, "velocity": 106}, {"time": 53280, "pitch": 46, "duration": 10, "velocity": 106}, {"time": 53280, "pitch": 54, "duration": 10, "velocity": 78}, {"time": 53400, "pitch": 54, "duration": 10, "velocity": 50}, {"time": 53520, "pitch": 46, "duration": 10, "velocity": 50}, {"time": 53520, "pitch": 54, "duration": 10, "velocity": 64}, {"time": 53640, "pitch": 54, "duration": 10, "velocity": 50}, {"time": 53760, "pitch": 40, "duration": 10, "velocity": 106}, {"time": 53760, "pitch": 46, "duration": 10, "velocity": 106}, {"time": 53760, "pitch": 54, "duration": 10, "velocity": 106}, {"time": 53880, "pitch": 54, "duration": 10, "velocity": 50}, {"time": 54000, "pitch": 36, "duration": 10, "velocity": 92}, {"time": 54000, "pitch": 46, "duration": 10, "velocity": 50}, {"time": 54000, "pitch": 54, "duration": 10, "velocity": 64}, {"time": 54120, "pitch": 54, "duration": 10, "velocity": 50}, {"time": 54240, "pitch": 36, "duration": 10, "velocity": 106}, {"time": 54240, "pitch": 46, "duration": 10, "velocity": 106}, {"time": 54240, "pitch": 54, "duration": 10, "velocity": 78}, {"time": 54360, "pitch": 54, "duration": 10, "velocity": 50}, {"time": 54480, "pitch": 46, "duration": 10, "velocity": 50}, {"time": 54480, "pitch": 54, "duration": 10, "velocity": 64}, {"time": 54600, "pitch": 54, "duration": 10, "velocity": 50}, {"time": 54720, "pitch": 40, "duration": 10, "velocity": 106}, {"time": 54720, "pitch": 46, "duration": 10, "velocity": 106}, {"time": 54720, "pitch": 54, "duration": 10, "velocity": 106}, {"time": 54840, "pitch": 54, "duration": 10, "velocity": 50}, {"time": 54960, "pitch": 46, "duration": 10, "velocity": 50}, {"time": 54960, "pitch": 54, "duration": 10, "velocity": 64}, {"time": 55080, "pitch": 54, "duration": 10, "velocity": 50}, {"time": 55200, "pitch": 36, "duration": 10, "velocity": 106}, {"time": 55200, "pitch": 46, "duration": 10, "velocity": 106}, {"time": 55200, "pitch": 54, "duration": 10, "velocity": 78}, {"time": 55320, "pitch": 54, "duration": 10, "velocity": 50}, {"time": 55440, "pitch": 46, "duration": 10, "velocity": 50}, {"time": 55440, "pitch": 54, "duration": 10, "velocity": 64}, {"time": 55560, "pitch": 54, "duration": 10, "velocity": 50}, {"time": 55680, "pitch": 40, "duration": 10, "velocity": 106}, {"time": 55680, "pitch": 46, "duration": 10, "velocity": 106}, {"time": 55680, "pitch": 54, "duration": 10, "velocity": 106}, {"time": 55800, "pitch": 54, "duration": 10, "velocity": 50}, {"time": 55920, "pitch": 36, "duration": 10, "velocity": 92}, {"time": 55920, "pitch": 46, "duration": 10, "velocity": 50}, {"time": 55920, "pitch": 54, "duration": 10, "velocity": 64}, {"time": 56040, "pitch": 54, "duration": 10, "velocity": 50}, {"time": 56160, "pitch": 36, "duration": 10, "velocity": 106}, {"time": 56160, "pitch": 46, "duration": 10, "velocity": 106}, {"time": 56160, "pitch": 54, "duration": 10, "velocity": 78}, {"time": 56280, "pitch": 40, "duration": 10, "velocity": 106}, {"time": 56280, "pitch": 54, "duration": 10, "velocity": 50}, {"time": 56400, "pitch": 36, "duration": 10, "velocity": 92}, {"time": 56400, "pitch": 46, "duration": 10, "velocity": 50}, {"time": 56400, "pitch": 54, "duration": 10, "velocity": 64}, {"time": 56520, "pitch": 54, "duration": 10, "velocity": 50}, {"time": 56640, "pitch": 40, "duration": 10, "velocity": 106}, {"time": 56640, "pitch": 46, "duration": 10, "velocity": 106}, {"time": 56640, "pitch": 54, "duration": 10, "velocity": 106}, {"time": 56760, "pitch": 54, "duration": 10, "velocity": 50}, {"time": 56880, "pitch": 46, "duration": 10, "velocity": 50}, {"time": 56880, "pitch": 54, "duration": 10, "velocity": 64}, {"time": 57000, "pitch": 40, "duration": 10, "velocity": 92}, {"time": 57000, "pitch": 54, "duration": 10, "velocity": 50}, {"time": 57120, "pitch": 36, "duration": 10, "velocity": 106}, {"time": 57120, "pitch": 51, "duration": 10, "velocity": 92}, {"time": 57120, "pitch": 54, "duration": 10, "velocity": 78}, {"time": 57240, "pitch": 54, "duration": 10, "velocity": 50}, {"time": 57360, "pitch": 46, "duration": 10, "velocity": 50}, {"time": 57360, "pitch": 54, "duration": 10, "velocity": 64}, {"time": 57480, "pitch": 54, "duration": 10, "velocity": 50}, {"time": 57600, "pitch": 40, "duration": 10, "velocity": 106}, {"time": 57600, "pitch": 46, "duration": 10, "velocity": 106}, {"time": 57600, "pitch": 54, "duration": 10, "velocity": 106}, {"time": 57720, "pitch": 54, "duration": 10, "velocity": 50}, {"time": 57840, "pitch": 36, "duration": 10, "velocity": 92}, {"time": 57840, "pitch": 46, "duration": 10, "velocity": 50}, {"time": 57840, "pitch": 54, "duration": 10, "velocity": 64}, {"time": 57960, "pitch": 54, "duration": 10, "velocity": 50}, {"time": 58080, "pitch": 36, "duration": 10, "velocity": 106}, {"time": 58080, "pitch": 46, "duration": 10, "velocity": 106}, {"time": 58080, "pitch": 54, "duration": 10, "velocity": 78}, {"time": 58200, "pitch": 54, "duration": 10, "velocity": 50}, {"time": 58320, "pitch": 46, "duration": 10, "velocity": 50}, {"time": 58320, "pitch": 54, "duration": 10, "velocity": 64}, {"time": 58440, "pitch": 54, "duration": 10, "velocity": 50}, {"time": 58560, "pitch": 40, "duration": 10, "velocity": 106}, {"time": 58560, "pitch": 46, "duration": 10, "velocity": 106}, {"time": 58560, "pitch": 54, "duration": 10, "velocity": 106}, {"time": 58680, "pitch": 54, "duration": 10, "velocity": 50}, {"time": 58800, "pitch": 46, "duration": 10, "velocity": 50}, {"time": 58800, "pitch": 54, "duration": 10, "velocity": 64}, {"time": 58920, "pitch": 54, "duration": 10, "velocity": 50}, {"time": 59040, "pitch": 36, "duration": 10, "velocity": 106}, {"time": 59040, "pitch": 46, "duration": 10, "velocity": 106}, {"time": 59040, "pitch": 54, "duration": 10, "velocity": 78}, {"time": 59160, "pitch": 54, "duration": 10, "velocity": 50}, {"time": 59280, "pitch": 46, "duration": 10, "velocity": 50}, {"time": 59280, "pitch": 54, "duration": 10, "velocity": 64}, {"time": 59400, "pitch": 54, "duration": 10, "velocity": 50}, {"time": 59520, "pitch": 40, "duration": 10, "velocity": 106}, {"time": 59520, "pitch": 46, "duration": 10, "velocity": 106}, {"time": 59520, "pitch": 54, "duration": 10, "velocity": 106}, {"time": 59640, "pitch": 54, "duration": 10, "velocity": 50}, {"time": 59760, "pitch": 36, "duration": 10, "velocity": 92}, {"time": 59760, "pitch": 46, "duration": 10, "velocity": 50}, {"time": 59760, "pitch": 54, "duration": 10, "velocity": 64}, {"time": 59880, "pitch": 54, "duration": 10, "velocity": 50}, {"time": 60000, "pitch": 36, "duration": 10, "velocity": 106}, {"time": 60000, "pitch": 46, "duration": 10, "velocity": 106}, {"time": 60000, "pitch": 54, "duration": 10, "velocity": 78}, {"time": 60120, "pitch": 54, "duration": 10, "velocity": 50}, {"time": 60240, "pitch": 46, "duration": 10, "velocity": 50}, {"time": 60240, "pitch": 54, "duration": 10, "velocity": 64}, {"time": 60360, "pitch": 54, "duration": 10, "velocity": 50}, {"time": 60480, "pitch": 40, "duration": 10, "velocity": 106}, {"time": 60480, "pitch": 46, "duration": 10, "velocity": 106}, {"time": 60480, "pitch": 54, "duration": 10, "velocity": 106}, {"time": 60600, "pitch": 54, "duration": 10, "velocity": 50}, {"time": 60720, "pitch": 46, "duration": 10, "velocity": 50}, {"time": 60720, "pitch": 54, "duration": 10, "velocity": 64}, {"time": 60840, "pitch": 54, "duration": 10, "velocity": 50}, {"time": 60960, "pitch": 36, "duration": 10, "velocity": 106}, {"time": 60960, "pitch": 46, "duration": 10, "velocity": 106}, {"time": 60960, "pitch": 54, "duration": 10, "velocity": 78}, {"time": 61080, "pitch": 54, "duration": 10, "velocity": 50}, {"time": 61200, "pitch": 46, "duration": 10, "velocity": 50}, {"time": 61200, "pitch": 54, "duration": 10, "velocity": 64}, {"time": 61320, "pitch": 54, "duration": 10, "velocity": 50}, {"time": 61440, "pitch": 40, "duration": 10, "velocity": 106}, {"time": 61440, "pitch": 46, "duration": 10, "velocity": 106}, {"time": 61440, "pitch": 54, "duration": 10, "velocity": 106}, {"time": 61560, "pitch": 54, "duration": 10, "velocity": 50}, {"time": 61680, "pitch": 36, "duration": 10, "velocity": 92}, {"time": 61680, "pitch": 46, "duration": 10, "velocity": 50}, {"time": 61680, "pitch": 54, "duration": 10, "velocity": 64}, {"time": 61800, "pitch": 54, "duration": 10, "velocity": 50}, {"time": 61920, "pitch": 36, "duration": 10, "velocity": 106}, {"time": 61920, "pitch": 46, "duration": 10, "velocity": 106}, {"time": 61920, "pitch": 54, "duration": 10, "velocity": 78}, {"time": 62040, "pitch": 54, "duration": 10, "velocity": 50}, {"time": 62160, "pitch": 46, "duration": 10, "velocity": 50}, {"time": 62160, "pitch": 54, "duration": 10, "velocity": 64}, {"time": 62280, "pitch": 54, "duration": 10, "velocity": 50}, {"time": 62400, "pitch": 40, "duration": 10, "velocity": 106}, {"time": 62400, "pitch": 46, "duration": 10, "velocity": 106}, {"time": 62400, "pitch": 54, "duration": 10, "velocity": 106}, {"time": 62520, "pitch": 54, "duration": 10, "velocity": 50}, {"time": 62640, "pitch": 46, "duration": 10, "velocity": 50}, {"time": 62640, "pitch": 54, "duration": 10, "velocity": 64}, {"time": 62760, "pitch": 54, "duration": 10, "velocity": 50}, {"time": 62880, "pitch": 36, "duration": 10, "velocity": 106}, {"time": 62880, "pitch": 49, "duration": 10, "velocity": 92}, {"time": 62880, "pitch": 54, "duration": 10, "velocity": 78}, {"time": 63000, "pitch": 54, "duration": 10, "velocity": 50}, {"time": 63120, "pitch": 46, "duration": 10, "velocity": 50}, {"time": 63120, "pitch": 54, "duration": 10, "velocity": 64}, {"time": 63240, "pitch": 54, "duration": 10, "velocity": 50}, {"time": 63360, "pitch": 40, "duration": 10, "velocity": 106}, {"time": 63360, "pitch": 46, "duration": 10, "velocity": 106}, {"time": 63360, "pitch": 54, "duration": 10, "velocity": 106}, {"time": 63480, "pitch": 54, "duration": 10, "velocity": 50}, {"time": 63600, "pitch": 36, "duration": 10, "velocity": 92}, {"time": 63600, "pitch": 49, "duration": 10, "velocity": 92}, {"time": 63600, "pitch": 54, "duration": 10, "velocity": 64}, {"time": 63720, "pitch": 54, "duration": 10, "velocity": 50}, {"time": 63840, "pitch": 36, "duration": 10, "velocity": 106}, {"time": 63840, "pitch": 46, "duration": 10, "velocity": 106}, {"time": 63840, "pitch": 54, "duration": 10, "velocity": 78}, {"time": 63960, "pitch": 54, "duration": 10, "velocity": 50}, {"time": 64080, "pitch": 46, "duration": 10, "velocity": 50}, {"time": 64080, "pitch": 54, "duration": 10, "velocity": 64}, {"time": 64200, "pitch": 54, "duration": 10, "velocity": 50}, {"time": 64320, "pitch": 40, "duration": 10, "velocity": 106}, {"time": 64320, "pitch": 46, "duration": 10, "velocity": 106}, {"time": 64320, "pitch": 54, "duration": 10, "velocity": 106}, {"time": 64440, "pitch": 54, "duration": 10, "velocity": 50}, {"time": 64560, "pitch": 46, "duration": 10, "velocity": 50}, {"time": 64560, "pitch": 54, "duration": 10, "velocity": 64}, {"time": 64680, "pitch": 54, "duration": 10, "velocity": 50}, {"time": 64800, "pitch": 36, "duration": 10, "velocity": 106}, {"time": 64800, "pitch": 40, "duration": 10, "velocity": 106}, {"time": 64800, "pitch": 54, "duration": 10, "velocity": 78}, {"time": 64920, "pitch": 54, "duration": 10, "velocity": 50}, {"time": 65040, "pitch": 40, "duration": 10, "velocity": 106}, {"time": 65040, "pitch": 54, "duration": 10, "velocity": 64}, {"time": 65160, "pitch": 40, "duration": 10, "velocity": 92}, {"time": 65160, "pitch": 54, "duration": 10, "velocity": 50}, {"time": 65280, "pitch": 36, "duration": 10, "velocity": 106}, {"time": 65280, "pitch": 54, "duration": 10, "velocity": 106}, {"time": 65400, "pitch": 40, "duration": 10, "velocity": 92}, {"time": 65400, "pitch": 54, "duration": 10, "velocity": 50}, {"time": 65520, "pitch": 36, "duration": 10, "velocity": 106}, {"time": 65520, "pitch": 40, "duration": 10, "velocity": 106}, {"time": 65520, "pitch": 54, "duration": 10, "velocity": 64}, {"time": 65640, "pitch": 40, "duration": 10, "velocity": 106}, {"time": 65640, "pitch": 54, "duration": 10, "velocity": 50}, {"time": 65760, "pitch": 36, "duration": 10, "velocity": 106}, {"time": 65760, "pitch": 40, "duration": 10, "velocity": 92}, {"time": 65760, "pitch": 54, "duration": 10, "velocity": 78}, {"time": 65880, "pitch": 54, "duration": 10, "velocity": 64}, {"time": 66000, "pitch": 36, "duration": 10, "velocity": 106}, {"time": 66000, "pitch": 40, "duration": 10, "velocity": 106}, {"time": 66000, "pitch": 54, "duration": 10, "velocity": 50}, {"time": 66120, "pitch": 54, "duration": 10, "velocity": 106}, {"time": 66240, "pitch": 36, "duration": 10, "velocity": 106}, {"time": 66240, "pitch": 40, "duration": 10, "velocity": 106}, {"time": 66240, "pitch": 54, "duration": 10, "velocity": 50}, {"time": 66360, "pitch": 54, "duration": 10, "velocity": 64}, {"time": 66480, "pitch": 36, "duration": 10, "velocity": 106}, {"time": 66480, "pitch": 54, "duration": 10, "velocity": 50}, {"time": 66720, "pitch": 36, "duration": 10, "velocity": 106}, {"time": 66720, "pitch": 49, "duration": 10, "velocity": 92}, {"time": 66720, "pitch": 54, "duration": 10, "velocity": 78}, {"time": 66840, "pitch": 54, "duration": 10, "velocity": 50}, {"time": 66960, "pitch": 46, "duration": 10, "velocity": 50}, {"time": 66960, "pitch": 54, "duration": 10, "velocity": 64}, {"time": 67080, "pitch": 36, "duration": 10, "velocity": 92}, {"time": 67080, "pitch": 54, "duration": 10, "velocity": 50}, {"time": 67200, "pitch": 40, "duration": 10, "velocity": 106}, {"time": 67200, "pitch": 46, "duration": 10, "velocity": 106}, {"time": 67200, "pitch": 54, "duration": 10, "velocity": 106}, {"time": 67320, "pitch": 54, "duration": 10, "velocity": 50}, {"time": 67440, "pitch": 46, "duration": 10, "velocity": 50}, {"time": 67440, "pitch": 54, "duration": 10, "velocity": 64}, {"time": 67560, "pitch": 54, "duration": 10, "velocity": 50}, {"time": 67680, "pitch": 36, "duration": 10, "velocity": 106}, {"time": 67680, "pitch": 46, "duration": 10, "velocity": 106}, {"time": 67680, "pitch": 54, "duration": 10, "velocity": 78}, {"time": 67800, "pitch": 54, "duration": 10, "velocity": 50}, {"time": 67920, "pitch": 46, "duration": 10, "velocity": 50}, {"time": 67920, "pitch": 54, "duration": 10, "velocity": 64}, {"time": 68040, "pitch": 36, "duration": 10, "velocity": 92}, {"time": 68040, "pitch": 54, "duration": 10, "velocity": 50}, {"time": 68160, "pitch": 40, "duration": 10, "velocity": 106}, {"time": 68160, "pitch": 46, "duration": 10, "velocity": 106}, {"time": 68160, "pitch": 54, "duration": 10, "velocity": 106}, {"time": 68280, "pitch": 54, "duration": 10, "velocity": 50}, {"time": 68400, "pitch": 46, "duration": 10, "velocity": 50}, {"time": 68400, "pitch": 54, "duration": 10, "velocity": 64}, {"time": 68520, "pitch": 54, "duration": 10, "velocity": 50}, {"time": 68640, "pitch": 36, "duration": 10, "velocity": 106}, {"time": 68640, "pitch": 46, "duration": 10, "velocity": 106}, {"time": 68640, "pitch": 54, "duration": 10, "velocity": 78}, {"time": 68760, "pitch": 54, "duration": 10, "velocity": 50}, {"time": 68880, "pitch": 46, "duration": 10, "velocity": 50}, {"time": 68880, "pitch": 54, "duration": 10, "velocity": 64}, {"time": 69000, "pitch": 36, "duration": 10, "velocity": 92}, {"time": 69000, "pitch": 54, "duration": 10, "velocity": 50}, {"time": 69120, "pitch": 40, "duration": 10, "velocity": 106}, {"time": 69120, "pitch": 46, "duration": 10, "velocity": 106}, {"time": 69120, "pitch": 54, "duration": 10, "velocity": 106}, {"time": 69240, "pitch": 54, "duration": 10, "velocity": 50}, {"time": 69360, "pitch": 46, "duration": 10, "velocity": 50}, {"time": 69360, "pitch": 54, "duration": 10, "velocity": 64}, {"time": 69480, "pitch": 54, "duration": 10, "velocity": 50}, {"time": 69600, "pitch": 36, "duration": 10, "velocity": 106}, {"time": 69600, "pitch": 46, "duration": 10, "velocity": 106}, {"time": 69600, "pitch": 54, "duration": 10, "velocity": 78}, {"time": 69720, "pitch": 54, "duration": 10, "velocity": 50}, {"time": 69840, "pitch": 36, "duration": 10, "velocity": 92}, {"time": 69840, "pitch": 46, "duration": 10, "velocity": 50}, {"time": 69840, "pitch": 54, "duration": 10, "velocity": 64}, {"time": 69960, "pitch": 54, "duration": 10, "velocity": 50}, {"time": 70080, "pitch": 40, "duration": 10, "velocity": 106}, {"time": 70080, "pitch": 46, "duration": 10, "velocity": 106}, {"time": 70080, "pitch": 54, "duration": 10, "velocity": 106}, {"time": 70200, "pitch": 54, "duration": 10, "velocity": 50}, {"time": 70320, "pitch": 46, "duration": 10, "velocity": 50}, {"time": 70320, "pitch": 54, "duration": 10, "velocity": 64}, {"time": 70440, "pitch": 54, "duration": 10, "velocity": 50}, {"time": 70560, "pitch": 36, "duration": 10, "velocity": 106}, {"time": 70560, "pitch": 46, "duration": 10, "velocity": 106}, {"time": 70560, "pitch": 54, "duration": 10, "velocity": 78}, {"time": 70680, "pitch": 54, "duration": 10, "velocity": 50}, {"time": 70800, "pitch": 46, "duration": 10, "velocity": 50}, {"time": 70800, "pitch": 54, "duration": 10, "velocity": 64}, {"time": 70920, "pitch": 36, "duration": 10, "velocity": 92}, {"time": 70920, "pitch": 54, "duration": 10, "velocity": 50}, {"time": 71040, "pitch": 40, "duration": 10, "velocity": 106}, {"time": 71040, "pitch": 46, "duration": 10, "velocity": 106}, {"time": 71040, "pitch": 54, "duration": 10, "velocity": 106}, {"time": 71160, "pitch": 54, "duration": 10, "velocity": 50}, {"time": 71280, "pitch": 46, "duration": 10, "velocity": 50}, {"time": 71280, "pitch": 54, "duration": 10, "velocity": 64}, {"time": 71400, "pitch": 54, "duration": 10, "velocity": 50}, {"time": 71520, "pitch": 36, "duration": 10, "velocity": 106}, {"time": 71520, "pitch": 46, "duration": 10, "velocity": 106}, {"time": 71520, "pitch": 54, "duration": 10, "velocity": 78}, {"time": 71640, "pitch": 54, "duration": 10, "velocity": 50}, {"time": 71760, "pitch": 46, "duration": 10, "velocity": 120}, {"time": 71760, "pitch": 54, "duration": 10, "velocity": 64}, {"time": 71880, "pitch": 36, "duration": 10, "velocity": 92}, {"time": 71880, "pitch": 54, "duration": 10, "velocity": 50}, {"time": 72000, "pitch": 44, "duration": 10, "velocity": 8}, {"time": 72000, "pitch": 45, "duration": 10, "velocity": 106}, {"time": 72000, "pitch": 54, "duration": 10, "velocity": 106}, {"time": 72120, "pitch": 45, "duration": 10, "velocity": 92}, {"time": 72120, "pitch": 54, "duration": 10, "velocity": 50}, {"time": 72240, "pitch": 41, "duration": 10, "velocity": 106}, {"time": 72240, "pitch": 54, "duration": 10, "velocity": 64}, {"time": 72360, "pitch": 54, "duration": 10, "velocity": 50}, {"time": 72480, "pitch": 36, "duration": 10, "velocity": 106}, {"time": 72480, "pitch": 46, "duration": 10, "velocity": 120}, {"time": 72480, "pitch": 54, "duration": 10, "velocity": 78}, {"time": 72600, "pitch": 44, "duration": 10, "velocity": 8}, {"time": 72600, "pitch": 54, "duration": 10, "velocity": 50}, {"time": 72720, "pitch": 54, "duration": 10, "velocity": 64}, {"time": 72840, "pitch": 36, "duration": 10, "velocity": 106}, {"time": 72840, "pitch": 46, "duration": 10, "velocity": 120}, {"time": 72840, "pitch": 54, "duration": 10, "velocity": 50}, {"time": 72960, "pitch": 44, "duration": 10, "velocity": 8}, {"time": 72960, "pitch": 54, "duration": 10, "velocity": 106}, {"time": 73080, "pitch": 54, "duration": 10, "velocity": 50}, {"time": 73200, "pitch": 36, "duration": 10, "velocity": 106}, {"time": 73200, "pitch": 46, "duration": 10, "velocity": 120}, {"time": 73200, "pitch": 54, "duration": 10, "velocity": 64}, {"time": 73320, "pitch": 44, "duration": 10, "velocity": 8}, {"time": 74400, "pitch": 36, "duration": 10, "velocity": 106}, {"time": 74400, "pitch": 49, "duration": 10, "velocity": 92}, {"time": 74760, "pitch": 36, "duration": 10, "velocity": 106}, {"time": 74880, "pitch": 40, "duration": 10, "velocity": 106}, {"time": 74880, "pitch": 42, "duration": 10, "velocity": 106}, {"time": 75120, "pitch": 36, "duration": 10, "velocity": 106}, {"time": 75120, "pitch": 42, "duration": 10, "velocity": 50}, {"time": 75360, "pitch": 36, "duration": 10, "velocity": 106}, {"time": 75360, "pitch": 42, "duration": 10, "velocity": 106}, {"time": 75600, "pitch": 42, "duration": 10, "velocity": 50}, {"time": 75720, "pitch": 36, "duration": 10, "velocity": 106}, {"time": 75840, "pitch": 40, "duration": 10, "velocity": 106}, {"time": 75840, "pitch": 42, "duration": 10, "velocity": 106}, {"time": 76080, "pitch": 42, "duration": 10, "velocity": 50}, {"time": 76320, "pitch": 36, "duration": 10, "velocity": 106}, {"time": 76320, "pitch": 42, "duration": 10, "velocity": 106}, {"time": 76560, "pitch": 42, "duration": 10, "velocity": 50}, {"time": 76680, "pitch": 36, "duration": 10, "velocity": 106}, {"time": 76800, "pitch": 40, "duration": 10, "velocity": 106}, {"time": 76800, "pitch": 42, "duration": 10, "velocity": 106}, {"time": 77040, "pitch": 42, "duration": 10, "velocity": 50}, {"time": 77280, "pitch": 36, "duration": 10, "velocity": 106}, {"time": 77280, "pitch": 42, "duration": 10, "velocity": 106}, {"time": 77520, "pitch": 42, "duration": 10, "velocity": 50}, {"time": 77640, "pitch": 36, "duration": 10, "velocity": 106}, {"time": 77760, "pitch": 40, "duration": 10, "velocity": 106}, {"time": 77760, "pitch": 42, "duration": 10, "velocity": 106}, {"time": 78000, "pitch": 42, "duration": 10, "velocity": 50}, {"time": 78240, "pitch": 36, "duration": 10, "velocity": 106}, {"time": 78240, "pitch": 42, "duration": 10, "velocity": 106}, {"time": 78480, "pitch": 42, "duration": 10, "velocity": 50}, {"time": 78600, "pitch": 36, "duration": 10, "velocity": 106}, {"time": 78720, "pitch": 40, "duration": 10, "velocity": 106}, {"time": 78720, "pitch": 42, "duration": 10, "velocity": 106}, {"time": 78960, "pitch": 36, "duration": 10, "velocity": 106}, {"time": 78960, "pitch": 42, "duration": 10, "velocity": 50}, {"time": 79200, "pitch": 36, "duration": 10, "velocity": 106}, {"time": 79200, "pitch": 42, "duration": 10, "velocity": 106}, {"time": 79440, "pitch": 42, "duration": 10, "velocity": 50}, {"time": 79560, "pitch": 36, "duration": 10, "velocity": 106}, {"time": 79680, "pitch": 40, "duration": 10, "velocity": 106}, {"time": 79680, "pitch": 42, "duration": 10, "velocity": 106}, {"time": 79920, "pitch": 42, "duration": 10, "velocity": 50}, {"time": 80160, "pitch": 36, "duration": 10, "velocity": 106}, {"time": 80160, "pitch": 42, "duration": 10, "velocity": 106}, {"time": 80400, "pitch": 42, "duration": 10, "velocity": 50}, {"time": 80520, "pitch": 36, "duration": 10, "velocity": 106}, {"time": 80640, "pitch": 40, "duration": 10, "velocity": 106}, {"time": 80640, "pitch": 42, "duration": 10, "velocity": 106}, {"time": 80880, "pitch": 42, "duration": 10, "velocity": 50}, {"time": 81120, "pitch": 36, "duration": 10, "velocity": 106}, {"time": 81120, "pitch": 42, "duration": 10, "velocity": 106}, {"time": 81240, "pitch": 40, "duration": 10, "velocity": 106}, {"time": 81360, "pitch": 40, "duration": 10, "velocity": 92}, {"time": 81600, "pitch": 40, "duration": 10, "velocity": 106}, {"time": 81840, "pitch": 46, "duration": 10, "velocity": 106}, {"time": 82080, "pitch": 36, "duration": 10, "velocity": 106}, {"time": 82080, "pitch": 42, "duration": 10, "velocity": 106}, {"time": 82320, "pitch": 42, "duration": 10, "velocity": 50}, {"time": 82440, "pitch": 36, "duration": 10, "velocity": 106}, {"time": 82560, "pitch": 40, "duration": 10, "velocity": 106}, {"time": 82560, "pitch": 42, "duration": 10, "velocity": 106}, {"time": 82800, "pitch": 36, "duration": 10, "velocity": 106}, {"time": 82800, "pitch": 42, "duration": 10, "velocity": 50}, {"time": 83040, "pitch": 36, "duration": 10, "velocity": 106}, {"time": 83040, "pitch": 42, "duration": 10, "velocity": 106}, {"time": 83280, "pitch": 42, "duration": 10, "velocity": 50}, {"time": 83400, "pitch": 36, "duration": 10, "velocity": 106}, {"time": 83520, "pitch": 40, "duration": 10, "velocity": 106}, {"time": 83520, "pitch": 42, "duration": 10, "velocity": 106}, {"time": 83760, "pitch": 42, "duration": 10, "velocity": 50}, {"time": 84000, "pitch": 36, "duration": 10, "velocity": 106}, {"time": 84000, "pitch": 42, "duration": 10, "velocity": 106}, {"time": 84240, "pitch": 42, "duration": 10, "velocity": 50}, {"time": 84360, "pitch": 36, "duration": 10, "velocity": 106}, {"time": 84480, "pitch": 40, "duration": 10, "velocity": 106}, {"time": 84480, "pitch": 42, "duration": 10, "velocity": 106}, {"time": 84720, "pitch": 42, "duration": 10, "velocity": 50}, {"time": 84960, "pitch": 36, "duration": 10, "velocity": 106}, {"time": 84960, "pitch": 42, "duration": 10, "velocity": 106}, {"time": 85080, "pitch": 40, "duration": 10, "velocity": 92}, {"time": 85200, "pitch": 42, "duration": 10, "velocity": 50}, {"time": 85320, "pitch": 36, "duration": 10, "velocity": 106}, {"time": 85440, "pitch": 40, "duration": 10, "velocity": 106}, {"time": 85440, "pitch": 57, "duration": 10, "velocity": 92}, {"time": 85680, "pitch": 42, "duration": 10, "velocity": 50}, {"time": 85920, "pitch": 36, "duration": 10, "velocity": 106}, {"time": 85920, "pitch": 42, "duration": 10, "velocity": 106}, {"time": 86160, "pitch": 42, "duration": 10, "velocity": 50}, {"time": 86280, "pitch": 36, "duration": 10, "velocity": 106}, {"time": 86400, "pitch": 40, "duration": 10, "velocity": 106}, {"time": 86400, "pitch": 42, "duration": 10, "velocity": 106}, {"time": 86640, "pitch": 36, "duration": 10, "velocity": 106}, {"time": 86640, "pitch": 42, "duration": 10, "velocity": 50}, {"time": 86880, "pitch": 36, "duration": 10, "velocity": 106}, {"time": 86880, "pitch": 42, "duration": 10, "velocity": 106}, {"time": 87120, "pitch": 42, "duration": 10, "velocity": 50}, {"time": 87240, "pitch": 36, "duration": 10, "velocity": 106}, {"time": 87360, "pitch": 40, "duration": 10, "velocity": 106}, {"time": 87360, "pitch": 42, "duration": 10, "velocity": 106}, {"time": 87600, "pitch": 42, "duration": 10, "velocity": 50}, {"time": 87840, "pitch": 36, "duration": 10, "velocity": 106}, {"time": 87840, "pitch": 42, "duration": 10, "velocity": 106}, {"time": 87960, "pitch": 40, "duration": 10, "velocity": 92}, {"time": 88080, "pitch": 42, "duration": 10, "velocity": 50}, {"time": 88200, "pitch": 36, "duration": 10, "velocity": 106}, {"time": 88320, "pitch": 40, "duration": 10, "velocity": 106}, {"time": 88320, "pitch": 42, "duration": 10, "velocity": 106}, {"time": 88560, "pitch": 42, "duration": 10, "velocity": 50}, {"time": 88800, "pitch": 36, "duration": 10, "velocity": 106}, {"time": 88800, "pitch": 42, "duration": 10, "velocity": 106}, {"time": 88920, "pitch": 48, "duration": 10, "velocity": 78}, {"time": 89040, "pitch": 48, "duration": 10, "velocity": 92}, {"time": 89160, "pitch": 48, "duration": 10, "velocity": 106}, {"time": 89280, "pitch": 45, "duration": 10, "velocity": 92}, {"time": 89400, "pitch": 45, "duration": 10, "velocity": 106}, {"time": 89520, "pitch": 41, "duration": 10, "velocity": 106}, {"time": 89760, "pitch": 36, "duration": 10, "velocity": 106}, {"time": 89760, "pitch": 49, "duration": 10, "velocity": 92}, {"time": 90000, "pitch": 42, "duration": 10, "velocity": 92}, {"time": 90240, "pitch": 40, "duration": 10, "velocity": 106}, {"time": 90240, "pitch": 42, "duration": 10, "velocity": 106}, {"time": 90480, "pitch": 42, "duration": 10, "velocity": 92}, {"time": 90720, "pitch": 36, "duration": 10, "velocity": 106}, {"time": 90720, "pitch": 42, "duration": 10, "velocity": 106}, {"time": 90960, "pitch": 36, "duration": 10, "velocity": 92}, {"time": 90960, "pitch": 42, "duration": 10, "velocity": 92}, {"time": 91200, "pitch": 40, "duration": 10, "velocity": 106}, {"time": 91200, "pitch": 42, "duration": 10, "velocity": 106}, {"time": 91440, "pitch": 42, "duration": 10, "velocity": 92}, {"time": 91680, "pitch": 36, "duration": 10, "velocity": 106}, {"time": 91680, "pitch": 42, "duration": 10, "velocity": 106}, {"time": 91920, "pitch": 42, "duration": 10, "velocity": 92}, {"time": 92160, "pitch": 40, "duration": 10, "velocity": 106}, {"time": 92160, "pitch": 42, "duration": 10, "velocity": 106}, {"time": 92400, "pitch": 42, "duration": 10, "velocity": 92}, {"time": 92640, "pitch": 36, "duration": 10, "velocity": 106}, {"time": 92640, "pitch": 42, "duration": 10, "velocity": 106}, {"time": 92880, "pitch": 36, "duration": 10, "velocity": 92}, {"time": 92880, "pitch": 42, "duration": 10, "velocity": 92}, {"time": 93120, "pitch": 40, "duration": 10, "velocity": 106}, {"time": 93120, "pitch": 42, "duration": 10, "velocity": 106}, {"time": 93360, "pitch": 42, "duration": 10, "velocity": 92}, {"time": 93600, "pitch": 36, "duration": 10, "velocity": 106}, {"time": 93600, "pitch": 49, "duration": 10, "velocity": 92}, {"time": 93840, "pitch": 42, "duration": 10, "velocity": 92}, {"time": 94080, "pitch": 40, "duration": 10, "velocity": 106}, {"time": 94080, "pitch": 42, "duration": 10, "velocity": 106}, {"time": 94320, "pitch": 36, "duration": 10, "velocity": 106}, {"time": 94320, "pitch": 57, "duration": 10, "velocity": 92}, {"time": 94560, "pitch": 42, "duration": 10, "velocity": 106}, {"time": 94800, "pitch": 36, "duration": 10, "velocity": 92}, {"time": 94800, "pitch": 42, "duration": 10, "velocity": 92}, {"time": 95040, "pitch": 40, "duration": 10, "velocity": 106}, {"time": 95040, "pitch": 49, "duration": 10, "velocity": 92}, {"time": 95280, "pitch": 42, "duration": 10, "velocity": 92}, {"time": 95520, "pitch": 36, "duration": 10, "velocity": 106}, {"time": 95520, "pitch": 42, "duration": 10, "velocity": 106}, {"time": 95760, "pitch": 42, "duration": 10, "velocity": 92}, {"time": 96000, "pitch": 40, "duration": 10, "velocity": 106}, {"time": 96000, "pitch": 42, "duration": 10, "velocity": 106}, {"time": 96240, "pitch": 42, "duration": 10, "velocity": 92}, {"time": 96480, "pitch": 36, "duration": 10, "velocity": 106}, {"time": 96480, "pitch": 42, "duration": 10, "velocity": 106}, {"time": 96720, "pitch": 40, "duration": 10, "velocity": 106}, {"time": 96960, "pitch": 40, "duration": 10, "velocity": 106}, {"time": 97200, "pitch": 40, "duration": 10, "velocity": 106}, {"time": 97320, "pitch": 40, "duration": 10, "velocity": 92}, {"time": 97440, "pitch": 36, "duration": 10, "velocity": 106}, {"time": 97440, "pitch": 49, "duration": 10, "velocity": 92}, {"time": 97680, "pitch": 42, "duration": 10, "velocity": 92}, {"time": 97920, "pitch": 40, "duration": 10, "velocity": 106}, {"time": 97920, "pitch": 42, "duration": 10, "velocity": 106}, {"time": 98160, "pitch": 42, "duration": 10, "velocity": 92}, {"time": 98400, "pitch": 36, "duration": 10, "velocity": 106}, {"time": 98400, "pitch": 42, "duration": 10, "velocity": 106}, {"time": 98640, "pitch": 36, "duration": 10, "velocity": 92}, {"time": 98640, "pitch": 42, "duration": 10, "velocity": 92}, {"time": 98880, "pitch": 40, "duration": 10, "velocity": 106}, {"time": 98880, "pitch": 42, "duration": 10, "velocity": 106}, {"time": 99120, "pitch": 42, "duration": 10, "velocity": 92}, {"time": 99360, "pitch": 36, "duration": 10, "velocity": 106}, {"time": 99360, "pitch": 42, "duration": 10, "velocity": 106}, {"time": 99600, "pitch": 42, "duration": 10, "velocity": 92}, {"time": 99840, "pitch": 40, "duration": 10, "velocity": 106}, {"time": 99840, "pitch": 42, "duration": 10, "velocity": 106}, {"time": 100080, "pitch": 42, "duration": 10, "velocity": 92}, {"time": 100320, "pitch": 36, "duration": 10, "velocity": 106}, {"time": 100320, "pitch": 42, "duration": 10, "velocity": 106}, {"time": 100560, "pitch": 36, "duration": 10, "velocity": 92}, {"time": 100560, "pitch": 42, "duration": 10, "velocity": 92}, {"time": 100800, "pitch": 40, "duration": 10, "velocity": 106}, {"time": 100800, "pitch": 42, "duration": 10, "velocity": 106}, {"time": 101040, "pitch": 40, "duration": 10, "velocity": 106}, {"time": 101160, "pitch": 40, "duration": 10, "velocity": 92}, {"time": 101280, "pitch": 36, "duration": 10, "velocity": 106}, {"time": 101280, "pitch": 49, "duration": 10, "velocity": 92}, {"time": 101520, "pitch": 42, "duration": 10, "velocity": 92}, {"time": 101760, "pitch": 40, "duration": 10, "velocity": 106}, {"time": 101760, "pitch": 42, "duration": 10, "velocity": 106}, {"time": 102000, "pitch": 36, "duration": 10, "velocity": 106}, {"time": 102000, "pitch": 49, "duration": 10, "velocity": 92}, {"time": 102240, "pitch": 42, "duration": 10, "velocity": 106}, {"time": 102480, "pitch": 36, "duration": 10, "velocity": 92}, {"time": 102480, "pitch": 42, "duration": 10, "velocity": 92}, {"time": 102720, "pitch": 40, "duration": 10, "velocity": 106}, {"time": 103080, "pitch": 40, "duration": 10, "velocity": 106}, {"time": 103200, "pitch": 36, "duration": 10, "velocity": 106}, {"time": 103200, "pitch": 49, "duration": 10, "velocity": 92}, {"time": 103440, "pitch": 42, "duration": 10, "velocity": 92}, {"time": 103680, "pitch": 40, "duration": 10, "velocity": 106}, {"time": 103680, "pitch": 42, "duration": 10, "velocity": 106}, {"time": 103920, "pitch": 36, "duration": 10, "velocity": 106}, {"time": 103920, "pitch": 49, "duration": 10, "velocity": 92}, {"time": 104160, "pitch": 40, "duration": 10, "velocity": 106}, {"time": 104400, "pitch": 40, "duration": 10, "velocity": 106}, {"time": 104520, "pitch": 40, "duration": 10, "velocity": 92}, {"time": 104640, "pitch": 40, "duration": 10, "velocity": 106}, {"time": 104760, "pitch": 40, "duration": 10, "velocity": 92}, {"time": 104880, "pitch": 40, "duration": 10, "velocity": 106}, {"time": 105000, "pitch": 40, "duration": 10, "velocity": 92}, {"time": 105120, "pitch": 36, "duration": 10, "velocity": 106}, {"time": 105120, "pitch": 49, "duration": 10, "velocity": 92}, {"time": 105120, "pitch": 54, "duration": 10, "velocity": 78}, {"time": 105240, "pitch": 54, "duration": 10, "velocity": 50}, {"time": 105360, "pitch": 46, "duration": 10, "velocity": 50}, {"time": 105360, "pitch": 54, "duration": 10, "velocity": 64}, {"time": 105480, "pitch": 54, "duration": 10, "velocity": 50}, {"time": 105600, "pitch": 40, "duration": 10, "velocity": 106}, {"time": 105600, "pitch": 46, "duration": 10, "velocity": 106}, {"time": 105600, "pitch": 54, "duration": 10, "velocity": 106}, {"time": 105720, "pitch": 54, "duration": 10, "velocity": 50}, {"time": 105840, "pitch": 36, "duration": 10, "velocity": 92}, {"time": 105840, "pitch": 46, "duration": 10, "velocity": 50}, {"time": 105840, "pitch": 54, "duration": 10, "velocity": 64}, {"time": 105960, "pitch": 54, "duration": 10, "velocity": 50}, {"time": 106080, "pitch": 36, "duration": 10, "velocity": 106}, {"time": 106080, "pitch": 46, "duration": 10, "velocity": 106}, {"time": 106080, "pitch": 54, "duration": 10, "velocity": 78}, {"time": 106200, "pitch": 54, "duration": 10, "velocity": 50}, {"time": 106320, "pitch": 46, "duration": 10, "velocity": 50}, {"time": 106320, "pitch": 54, "duration": 10, "velocity": 64}, {"time": 106440, "pitch": 54, "duration": 10, "velocity": 50}, {"time": 106560, "pitch": 40, "duration": 10, "velocity": 106}, {"time": 106560, "pitch": 46, "duration": 10, "velocity": 106}, {"time": 106560, "pitch": 54, "duration": 10, "velocity": 106}, {"time": 106680, "pitch": 54, "duration": 10, "velocity": 50}, {"time": 106800, "pitch": 46, "duration": 10, "velocity": 50}, {"time": 106800, "pitch": 54, "duration": 10, "velocity": 64}, {"time": 106920, "pitch": 54, "duration": 10, "velocity": 50}, {"time": 107040, "pitch": 36, "duration": 10, "velocity": 106}, {"time": 107040, "pitch": 46, "duration": 10, "velocity": 106}, {"time": 107040, "pitch": 54, "duration": 10, "velocity": 78}, {"time": 107160, "pitch": 54, "duration": 10, "velocity": 50}, {"time": 107280, "pitch": 46, "duration": 10, "velocity": 50}, {"time": 107280, "pitch": 54, "duration": 10, "velocity": 64}, {"time": 107400, "pitch": 54, "duration": 10, "velocity": 50}, {"time": 107520, "pitch": 40, "duration": 10, "velocity": 106}, {"time": 107520, "pitch": 46, "duration": 10, "velocity": 106}, {"time": 107520, "pitch": 54, "duration": 10, "velocity": 106}, {"time": 107640, "pitch": 54, "duration": 10, "velocity": 50}, {"time": 107760, "pitch": 36, "duration": 10, "velocity": 92}, {"time": 107760, "pitch": 46, "duration": 10, "velocity": 50}, {"time": 107760, "pitch": 54, "duration": 10, "velocity": 64}, {"time": 107880, "pitch": 54, "duration": 10, "velocity": 50}, {"time": 108000, "pitch": 36, "duration": 10, "velocity": 106}, {"time": 108000, "pitch": 46, "duration": 10, "velocity": 106}, {"time": 108000, "pitch": 54, "duration": 10, "velocity": 78}, {"time": 108120, "pitch": 54, "duration": 10, "velocity": 50}, {"time": 108240, "pitch": 46, "duration": 10, "velocity": 50}, {"time": 108240, "pitch": 54, "duration": 10, "velocity": 64}, {"time": 108360, "pitch": 54, "duration": 10, "velocity": 50}, {"time": 108480, "pitch": 40, "duration": 10, "velocity": 106}, {"time": 108480, "pitch": 46, "duration": 10, "velocity": 106}, {"time": 108480, "pitch": 54, "duration": 10, "velocity": 106}, {"time": 108600, "pitch": 54, "duration": 10, "velocity": 50}, {"time": 108720, "pitch": 46, "duration": 10, "velocity": 50}, {"time": 108720, "pitch": 54, "duration": 10, "velocity": 64}, {"time": 108840, "pitch": 54, "duration": 10, "velocity": 50}, {"time": 108960, "pitch": 36, "duration": 10, "velocity": 106}, {"time": 108960, "pitch": 46, "duration": 10, "velocity": 106}, {"time": 108960, "pitch": 54, "duration": 10, "velocity": 78}, {"time": 109080, "pitch": 54, "duration": 10, "velocity": 50}, {"time": 109200, "pitch": 46, "duration": 10, "velocity": 50}, {"time": 109200, "pitch": 54, "duration": 10, "velocity": 64}, {"time": 109320, "pitch": 54, "duration": 10, "velocity": 50}, {"time": 109440, "pitch": 40, "duration": 10, "velocity": 106}, {"time": 109440, "pitch": 46, "duration": 10, "velocity": 106}, {"time": 109440, "pitch": 54, "duration": 10, "velocity": 106}, {"time": 109560, "pitch": 54, "duration": 10, "velocity": 50}, {"time": 109680, "pitch": 36, "duration": 10, "velocity": 92}, {"time": 109680, "pitch": 46, "duration": 10, "velocity": 50}, {"time": 109680, "pitch": 54, "duration": 10, "velocity": 64}, {"time": 109800, "pitch": 54, "duration": 10, "velocity": 50}, {"time": 109920, "pitch": 36, "duration": 10, "velocity": 106}, {"time": 109920, "pitch": 46, "duration": 10, "velocity": 106}, {"time": 109920, "pitch": 54, "duration": 10, "velocity": 78}, {"time": 110040, "pitch": 54, "duration": 10, "velocity": 50}, {"time": 110160, "pitch": 46, "duration": 10, "velocity": 50}, {"time": 110160, "pitch": 54, "duration": 10, "velocity": 64}, {"time": 110280, "pitch": 54, "duration": 10, "velocity": 50}, {"time": 110400, "pitch": 40, "duration": 10, "velocity": 106}, {"time": 110400, "pitch": 46, "duration": 10, "velocity": 106}, {"time": 110400, "pitch": 54, "duration": 10, "velocity": 106}, {"time": 110520, "pitch": 54, "duration": 10, "velocity": 50}, {"time": 110640, "pitch": 46, "duration": 10, "velocity": 50}, {"time": 110640, "pitch": 54, "duration": 10, "velocity": 64}, {"time": 110760, "pitch": 54, "duration": 10, "velocity": 50}, {"time": 110880, "pitch": 36, "duration": 10, "velocity": 106}, {"time": 110880, "pitch": 46, "duration": 10, "velocity": 106}, {"time": 110880, "pitch": 54, "duration": 10, "velocity": 78}, {"time": 111000, "pitch": 54, "duration": 10, "velocity": 50}, {"time": 111120, "pitch": 46, "duration": 10, "velocity": 50}, {"time": 111120, "pitch": 54, "duration": 10, "velocity": 64}, {"time": 111240, "pitch": 54, "duration": 10, "velocity": 50}, {"time": 111360, "pitch": 40, "duration": 10, "velocity": 106}, {"time": 111360, "pitch": 46, "duration": 10, "velocity": 106}, {"time": 111360, "pitch": 54, "duration": 10, "velocity": 106}, {"time": 111480, "pitch": 54, "duration": 10, "velocity": 50}, {"time": 111600, "pitch": 36, "duration": 10, "velocity": 92}, {"time": 111600, "pitch": 46, "duration": 10, "velocity": 50}, {"time": 111600, "pitch": 54, "duration": 10, "velocity": 64}, {"time": 111720, "pitch": 54, "duration": 10, "velocity": 50}, {"time": 111840, "pitch": 36, "duration": 10, "velocity": 106}, {"time": 111840, "pitch": 46, "duration": 10, "velocity": 106}, {"time": 111840, "pitch": 54, "duration": 10, "velocity": 78}, {"time": 111960, "pitch": 40, "duration": 10, "velocity": 106}, {"time": 111960, "pitch": 54, "duration": 10, "velocity": 50}, {"time": 112080, "pitch": 40, "duration": 10, "velocity": 92}, {"time": 112080, "pitch": 54, "duration": 10, "velocity": 64}, {"time": 112200, "pitch": 54, "duration": 10, "velocity": 50}, {"time": 112320, "pitch": 40, "duration": 10, "velocity": 106}, {"time": 112320, "pitch": 54, "duration": 10, "velocity": 106}, {"time": 112440, "pitch": 54, "duration": 10, "velocity": 50}, {"time": 112560, "pitch": 40, "duration": 10, "velocity": 106}, {"time": 112560, "pitch": 54, "duration": 10, "velocity": 64}, {"time": 112680, "pitch": 40, "duration": 10, "velocity": 92}, {"time": 112680, "pitch": 54, "duration": 10, "velocity": 50}, {"time": 112800, "pitch": 36, "duration": 10, "velocity": 106}, {"time": 112800, "pitch": 49, "duration": 10, "velocity": 92}, {"time": 112800, "pitch": 54, "duration": 10, "velocity": 78}, {"time": 112920, "pitch": 54, "duration": 10, "velocity": 50}, {"time": 113040, "pitch": 46, "duration": 10, "velocity": 50}, {"time": 113040, "pitch": 54, "duration": 10, "velocity": 64}, {"time": 113160, "pitch": 54, "duration": 10, "velocity": 50}, {"time": 113280, "pitch": 40, "duration": 10, "velocity": 106}, {"time": 113280, "pitch": 46, "duration": 10, "velocity": 106}, {"time": 113280, "pitch": 54, "duration": 10, "velocity": 106}, {"time": 113400, "pitch": 54, "duration": 10, "velocity": 50}, {"time": 113520, "pitch": 36, "duration": 10, "velocity": 92}, {"time": 113520, "pitch": 46, "duration": 10, "velocity": 50}, {"time": 113520, "pitch": 54, "duration": 10, "velocity": 64}, {"time": 113640, "pitch": 54, "duration": 10, "velocity": 50}, {"time": 113760, "pitch": 36, "duration": 10, "velocity": 106}, {"time": 113760, "pitch": 46, "duration": 10, "velocity": 106}, {"time": 113760, "pitch": 54, "duration": 10, "velocity": 78}, {"time": 113880, "pitch": 54, "duration": 10, "velocity": 50}, {"time": 114000, "pitch": 46, "duration": 10, "velocity": 50}, {"time": 114000, "pitch": 54, "duration": 10, "velocity": 64}, {"time": 114120, "pitch": 54, "duration": 10, "velocity": 50}, {"time": 114240, "pitch": 40, "duration": 10, "velocity": 106}, {"time": 114240, "pitch": 46, "duration": 10, "velocity": 106}, {"time": 114240, "pitch": 54, "duration": 10, "velocity": 106}, {"time": 114360, "pitch": 54, "duration": 10, "velocity": 50}, {"time": 114480, "pitch": 46, "duration": 10, "velocity": 50}, {"time": 114480, "pitch": 54, "duration": 10, "velocity": 64}, {"time": 114600, "pitch": 54, "duration": 10, "velocity": 50}, {"time": 114720, "pitch": 36, "duration": 10, "velocity": 106}, {"time": 114720, "pitch": 46, "duration": 10, "velocity": 106}, {"time": 114720, "pitch": 54, "duration": 10, "velocity": 78}, {"time": 114840, "pitch": 54, "duration": 10, "velocity": 50}, {"time": 114960, "pitch": 46, "duration": 10, "velocity": 50}, {"time": 114960, "pitch": 54, "duration": 10, "velocity": 64}, {"time": 115080, "pitch": 54, "duration": 10, "velocity": 50}, {"time": 115200, "pitch": 40, "duration": 10, "velocity": 106}, {"time": 115200, "pitch": 46, "duration": 10, "velocity": 106}, {"time": 115200, "pitch": 54, "duration": 10, "velocity": 106}, {"time": 115320, "pitch": 54, "duration": 10, "velocity": 50}, {"time": 115440, "pitch": 36, "duration": 10, "velocity": 92}, {"time": 115440, "pitch": 46, "duration": 10, "velocity": 50}, {"time": 115440, "pitch": 54, "duration": 10, "velocity": 64}, {"time": 115560, "pitch": 54, "duration": 10, "velocity": 50}, {"time": 115680, "pitch": 36, "duration": 10, "velocity": 106}, {"time": 115680, "pitch": 46, "duration": 10, "velocity": 106}, {"time": 115680, "pitch": 54, "duration": 10, "velocity": 78}, {"time": 115800, "pitch": 54, "duration": 10, "velocity": 50}, {"time": 115920, "pitch": 46, "duration": 10, "velocity": 50}, {"time": 115920, "pitch": 54, "duration": 10, "velocity": 64}, {"time": 116040, "pitch": 54, "duration": 10, "velocity": 50}, {"time": 116160, "pitch": 40, "duration": 10, "velocity": 106}, {"time": 116160, "pitch": 46, "duration": 10, "velocity": 106}, {"time": 116160, "pitch": 54, "duration": 10, "velocity": 106}, {"time": 116280, "pitch": 54, "duration": 10, "velocity": 50}, {"time": 116400, "pitch": 46, "duration": 10, "velocity": 50}, {"time": 116400, "pitch": 54, "duration": 10, "velocity": 64}, {"time": 116520, "pitch": 54, "duration": 10, "velocity": 50}, {"time": 116640, "pitch": 36, "duration": 10, "velocity": 106}, {"time": 116640, "pitch": 46, "duration": 10, "velocity": 106}, {"time": 116640, "pitch": 54, "duration": 10, "velocity": 78}, {"time": 116760, "pitch": 54, "duration": 10, "velocity": 50}, {"time": 116880, "pitch": 46, "duration": 10, "velocity": 50}, {"time": 116880, "pitch": 54, "duration": 10, "velocity": 64}, {"time": 117000, "pitch": 54, "duration": 10, "velocity": 50}, {"time": 117120, "pitch": 40, "duration": 10, "velocity": 106}, {"time": 117120, "pitch": 46, "duration": 10, "velocity": 106}, {"time": 117120, "pitch": 54, "duration": 10, "velocity": 106}, {"time": 117240, "pitch": 54, "duration": 10, "velocity": 50}, {"time": 117360, "pitch": 36, "duration": 10, "velocity": 92}, {"time": 117360, "pitch": 46, "duration": 10, "velocity": 50}, {"time": 117360, "pitch": 54, "duration": 10, "velocity": 64}, {"time": 117480, "pitch": 54, "duration": 10, "velocity": 50}, {"time": 117600, "pitch": 36, "duration": 10, "velocity": 106}, {"time": 117600, "pitch": 46, "duration": 10, "velocity": 106}, {"time": 117600, "pitch": 54, "duration": 10, "velocity": 78}, {"time": 117720, "pitch": 54, "duration": 10, "velocity": 50}, {"time": 117840, "pitch": 46, "duration": 10, "velocity": 50}, {"time": 117840, "pitch": 54, "duration": 10, "velocity": 64}, {"time": 117960, "pitch": 54, "duration": 10, "velocity": 50}, {"time": 118080, "pitch": 40, "duration": 10, "velocity": 106}, {"time": 118080, "pitch": 46, "duration": 10, "velocity": 106}, {"time": 118080, "pitch": 54, "duration": 10, "velocity": 106}, {"time": 118200, "pitch": 54, "duration": 10, "velocity": 50}, {"time": 118320, "pitch": 46, "duration": 10, "velocity": 50}, {"time": 118320, "pitch": 54, "duration": 10, "velocity": 64}, {"time": 118440, "pitch": 54, "duration": 10, "velocity": 50}, {"time": 118560, "pitch": 36, "duration": 10, "velocity": 106}, {"time": 118560, "pitch": 49, "duration": 10, "velocity": 92}, {"time": 118560, "pitch": 54, "duration": 10, "velocity": 78}, {"time": 118680, "pitch": 54, "duration": 10, "velocity": 50}, {"time": 118800, "pitch": 46, "duration": 10, "velocity": 50}, {"time": 118800, "pitch": 54, "duration": 10, "velocity": 64}, {"time": 118920, "pitch": 54, "duration": 10, "velocity": 50}, {"time": 119040, "pitch": 40, "duration": 10, "velocity": 106}, {"time": 119040, "pitch": 46, "duration": 10, "velocity": 106}, {"time": 119040, "pitch": 54, "duration": 10, "velocity": 106}, {"time": 119160, "pitch": 54, "duration": 10, "velocity": 50}, {"time": 119280, "pitch": 36, "duration": 10, "velocity": 92}, {"time": 119280, "pitch": 49, "duration": 10, "velocity": 92}, {"time": 119280, "pitch": 54, "duration": 10, "velocity": 64}, {"time": 119400, "pitch": 54, "duration": 10, "velocity": 50}, {"time": 119520, "pitch": 36, "duration": 10, "velocity": 106}, {"time": 119520, "pitch": 46, "duration": 10, "velocity": 106}, {"time": 119520, "pitch": 54, "duration": 10, "velocity": 78}, {"time": 119640, "pitch": 54, "duration": 10, "velocity": 50}, {"time": 119760, "pitch": 46, "duration": 10, "velocity": 50}, {"time": 119760, "pitch": 54, "duration": 10, "velocity": 64}, {"time": 119880, "pitch": 54, "duration": 10, "velocity": 50}, {"time": 120000, "pitch": 40, "duration": 10, "velocity": 106}, {"time": 120000, "pitch": 46, "duration": 10, "velocity": 106}, {"time": 120000, "pitch": 54, "duration": 10, "velocity": 106}, {"time": 120120, "pitch": 54, "duration": 10, "velocity": 50}, {"time": 120240, "pitch": 46, "duration": 10, "velocity": 50}, {"time": 120240, "pitch": 54, "duration": 10, "velocity": 64}, {"time": 120360, "pitch": 54, "duration": 10, "velocity": 50}, {"time": 120480, "pitch": 36, "duration": 10, "velocity": 106}, {"time": 120480, "pitch": 40, "duration": 10, "velocity": 106}, {"time": 120480, "pitch": 54, "duration": 10, "velocity": 78}, {"time": 120600, "pitch": 54, "duration": 10, "velocity": 50}, {"time": 120720, "pitch": 40, "duration": 10, "velocity": 106}, {"time": 120720, "pitch": 54, "duration": 10, "velocity": 64}, {"time": 120840, "pitch": 40, "duration": 10, "velocity": 92}, {"time": 120840, "pitch": 54, "duration": 10, "velocity": 50}, {"time": 120960, "pitch": 36, "duration": 10, "velocity": 106}, {"time": 120960, "pitch": 54, "duration": 10, "velocity": 106}, {"time": 121080, "pitch": 40, "duration": 10, "velocity": 92}, {"time": 121080, "pitch": 54, "duration": 10, "velocity": 50}, {"time": 121200, "pitch": 36, "duration": 10, "velocity": 106}, {"time": 121200, "pitch": 40, "duration": 10, "velocity": 106}, {"time": 121200, "pitch": 54, "duration": 10, "velocity": 64}, {"time": 121320, "pitch": 40, "duration": 10, "velocity": 106}, {"time": 121320, "pitch": 54, "duration": 10, "velocity": 50}, {"time": 121440, "pitch": 36, "duration": 10, "velocity": 106}, {"time": 121440, "pitch": 40, "duration": 10, "velocity": 92}, {"time": 121440, "pitch": 54, "duration": 10, "velocity": 78}, {"time": 121560, "pitch": 54, "duration": 10, "velocity": 64}, {"time": 121680, "pitch": 36, "duration": 10, "velocity": 106}, {"time": 121680, "pitch": 40, "duration": 10, "velocity": 106}, {"time": 121680, "pitch": 54, "duration": 10, "velocity": 50}, {"time": 121800, "pitch": 54, "duration": 10, "velocity": 106}, {"time": 121920, "pitch": 36, "duration": 10, "velocity": 106}, {"time": 121920, "pitch": 40, "duration": 10, "velocity": 106}, {"time": 121920, "pitch": 54, "duration": 10, "velocity": 50}, {"time": 122040, "pitch": 54, "duration": 10, "velocity": 64}, {"time": 122160, "pitch": 36, "duration": 10, "velocity": 106}, {"time": 122160, "pitch": 41, "duration": 10, "velocity": 106}, {"time": 122160, "pitch": 54, "duration": 10, "velocity": 50}, {"time": 122400, "pitch": 36, "duration": 10, "velocity": 106}, {"time": 122400, "pitch": 49, "duration": 10, "velocity": 92}, {"time": 122400, "pitch": 54, "duration": 10, "velocity": 78}, {"time": 122520, "pitch": 54, "duration": 10, "velocity": 50}, {"time": 122640, "pitch": 46, "duration": 10, "velocity": 92}, {"time": 122640, "pitch": 54, "duration": 10, "velocity": 64}, {"time": 122760, "pitch": 54, "duration": 10, "velocity": 50}, {"time": 122880, "pitch": 40, "duration": 10, "velocity": 106}, {"time": 122880, "pitch": 46, "duration": 10, "velocity": 106}, {"time": 122880, "pitch": 54, "duration": 10, "velocity": 106}, {"time": 123000, "pitch": 54, "duration": 10, "velocity": 50}, {"time": 123120, "pitch": 46, "duration": 10, "velocity": 92}, {"time": 123120, "pitch": 54, "duration": 10, "velocity": 64}, {"time": 123240, "pitch": 54, "duration": 10, "velocity": 50}, {"time": 123360, "pitch": 36, "duration": 10, "velocity": 106}, {"time": 123360, "pitch": 46, "duration": 10, "velocity": 106}, {"time": 123360, "pitch": 54, "duration": 10, "velocity": 78}, {"time": 123480, "pitch": 54, "duration": 10, "velocity": 50}, {"time": 123600, "pitch": 36, "duration": 10, "velocity": 92}, {"time": 123600, "pitch": 46, "duration": 10, "velocity": 92}, {"time": 123600, "pitch": 54, "duration": 10, "velocity": 64}, {"time": 123720, "pitch": 54, "duration": 10, "velocity": 50}, {"time": 123840, "pitch": 40, "duration": 10, "velocity": 106}, {"time": 123840, "pitch": 46, "duration": 10, "velocity": 106}, {"time": 123840, "pitch": 54, "duration": 10, "velocity": 106}, {"time": 123960, "pitch": 54, "duration": 10, "velocity": 50}, {"time": 124080, "pitch": 46, "duration": 10, "velocity": 92}, {"time": 124080, "pitch": 54, "duration": 10, "velocity": 64}, {"time": 124200, "pitch": 54, "duration": 10, "velocity": 50}, {"time": 124320, "pitch": 36, "duration": 10, "velocity": 106}, {"time": 124320, "pitch": 46, "duration": 10, "velocity": 106}, {"time": 124320, "pitch": 54, "duration": 10, "velocity": 78}, {"time": 124440, "pitch": 54, "duration": 10, "velocity": 50}, {"time": 124560, "pitch": 46, "duration": 10, "velocity": 92}, {"time": 124560, "pitch": 54, "duration": 10, "velocity": 64}, {"time": 124680, "pitch": 54, "duration": 10, "velocity": 50}, {"time": 124800, "pitch": 40, "duration": 10, "velocity": 106}, {"time": 124800, "pitch": 46, "duration": 10, "velocity": 106}, {"time": 124800, "pitch": 54, "duration": 10, "velocity": 106}, {"time": 124920, "pitch": 54, "duration": 10, "velocity": 50}, {"time": 125040, "pitch": 46, "duration": 10, "velocity": 92}, {"time": 125040, "pitch": 54, "duration": 10, "velocity": 64}, {"time": 125160, "pitch": 54, "duration": 10, "velocity": 50}, {"time": 125280, "pitch": 36, "duration": 10, "velocity": 106}, {"time": 125280, "pitch": 46, "duration": 10, "velocity": 106}, {"time": 125280, "pitch": 54, "duration": 10, "velocity": 78}, {"time": 125400, "pitch": 54, "duration": 10, "velocity": 50}, {"time": 125520, "pitch": 36, "duration": 10, "velocity": 92}, {"time": 125520, "pitch": 46, "duration": 10, "velocity": 92}, {"time": 125520, "pitch": 54, "duration": 10, "velocity": 64}, {"time": 125640, "pitch": 54, "duration": 10, "velocity": 50}, {"time": 125760, "pitch": 40, "duration": 10, "velocity": 106}, {"time": 125760, "pitch": 46, "duration": 10, "velocity": 106}, {"time": 125760, "pitch": 54, "duration": 10, "velocity": 106}, {"time": 125880, "pitch": 54, "duration": 10, "velocity": 50}, {"time": 126000, "pitch": 46, "duration": 10, "velocity": 92}, {"time": 126000, "pitch": 54, "duration": 10, "velocity": 64}, {"time": 126120, "pitch": 54, "duration": 10, "velocity": 50}, {"time": 126240, "pitch": 40, "duration": 10, "velocity": 106}, {"time": 126240, "pitch": 42, "duration": 10, "velocity": 106}, {"time": 126240, "pitch": 54, "duration": 10, "velocity": 78}, {"time": 126360, "pitch": 54, "duration": 10, "velocity": 50}, {"time": 126480, "pitch": 36, "duration": 10, "velocity": 106}, {"time": 126480, "pitch": 42, "duration": 10, "velocity": 92}, {"time": 126480, "pitch": 54, "duration": 10, "velocity": 64}, {"time": 126600, "pitch": 54, "duration": 10, "velocity": 50}, {"time": 126720, "pitch": 36, "duration": 10, "velocity": 106}, {"time": 126720, "pitch": 49, "duration": 10, "velocity": 92}, {"time": 126720, "pitch": 54, "duration": 10, "velocity": 106}, {"time": 126840, "pitch": 54, "duration": 10, "velocity": 50}, {"time": 126960, "pitch": 42, "duration": 10, "velocity": 92}, {"time": 126960, "pitch": 54, "duration": 10, "velocity": 64}, {"time": 127080, "pitch": 54, "duration": 10, "velocity": 50}, {"time": 127200, "pitch": 36, "duration": 10, "velocity": 106}, {"time": 127200, "pitch": 42, "duration": 10, "velocity": 106}, {"time": 127200, "pitch": 54, "duration": 10, "velocity": 78}, {"time": 127320, "pitch": 54, "duration": 10, "velocity": 50}, {"time": 127440, "pitch": 42, "duration": 10, "velocity": 92}, {"time": 127440, "pitch": 54, "duration": 10, "velocity": 64}, {"time": 127560, "pitch": 36, "duration": 10, "velocity": 92}, {"time": 127560, "pitch": 46, "duration": 10, "velocity": 106}, {"time": 127560, "pitch": 54, "duration": 10, "velocity": 50}, {"time": 127680, "pitch": 40, "duration": 10, "velocity": 106}, {"time": 127680, "pitch": 42, "duration": 10, "velocity": 106}, {"time": 127680, "pitch": 54, "duration": 10, "velocity": 106}, {"time": 127800, "pitch": 54, "duration": 10, "velocity": 50}, {"time": 127920, "pitch": 42, "duration": 10, "velocity": 92}, {"time": 127920, "pitch": 54, "duration": 10, "velocity": 64}, {"time": 128040, "pitch": 54, "duration": 10, "velocity": 50}, {"time": 128160, "pitch": 36, "duration": 10, "velocity": 106}, {"time": 128160, "pitch": 42, "duration": 10, "velocity": 106}, {"time": 128160, "pitch": 54, "duration": 10, "velocity": 78}, {"time": 128280, "pitch": 54, "duration": 10, "velocity": 50}, {"time": 128400, "pitch": 42, "duration": 10, "velocity": 92}, {"time": 128400, "pitch": 54, "duration": 10, "velocity": 64}, {"time": 128520, "pitch": 36, "duration": 10, "velocity": 106}, {"time": 128520, "pitch": 54, "duration": 10, "velocity": 50}, {"time": 128640, "pitch": 40, "duration": 10, "velocity": 106}, {"time": 128640, "pitch": 42, "duration": 10, "velocity": 106}, {"time": 128640, "pitch": 54, "duration": 10, "velocity": 106}, {"time": 128760, "pitch": 54, "duration": 10, "velocity": 50}, {"time": 128880, "pitch": 42, "duration": 10, "velocity": 92}, {"time": 128880, "pitch": 54, "duration": 10, "velocity": 64}, {"time": 129000, "pitch": 54, "duration": 10, "velocity": 50}, {"time": 129120, "pitch": 36, "duration": 10, "velocity": 106}, {"time": 129120, "pitch": 45, "duration": 10, "velocity": 106}, {"time": 129120, "pitch": 54, "duration": 10, "velocity": 78}, {"time": 129240, "pitch": 54, "duration": 10, "velocity": 50}, {"time": 129360, "pitch": 40, "duration": 10, "velocity": 106}, {"time": 129360, "pitch": 54, "duration": 10, "velocity": 64}, {"time": 129480, "pitch": 40, "duration": 10, "velocity": 92}, {"time": 129480, "pitch": 54, "duration": 10, "velocity": 50}, {"time": 129600, "pitch": 40, "duration": 10, "velocity": 106}, {"time": 129600, "pitch": 54, "duration": 10, "velocity": 106}, {"time": 129720, "pitch": 40, "duration": 10, "velocity": 92}, {"time": 129720, "pitch": 54, "duration": 10, "velocity": 50}, {"time": 129840, "pitch": 41, "duration": 10, "velocity": 106}, {"time": 129840, "pitch": 54, "duration": 10, "velocity": 64}, {"time": 129960, "pitch": 54, "duration": 10, "velocity": 50}, {"time": 130080, "pitch": 36, "duration": 10, "velocity": 106}, {"time": 130080, "pitch": 49, "duration": 10, "velocity": 92}, {"time": 130080, "pitch": 54, "duration": 10, "velocity": 78}, {"time": 130200, "pitch": 54, "duration": 10, "velocity": 50}, {"time": 130320, "pitch": 46, "duration": 10, "velocity": 92}, {"time": 130320, "pitch": 54, "duration": 10, "velocity": 64}, {"time": 130440, "pitch": 54, "duration": 10, "velocity": 50}, {"time": 130560, "pitch": 40, "duration": 10, "velocity": 106}, {"time": 130560, "pitch": 46, "duration": 10, "velocity": 106}, {"time": 130560, "pitch": 54, "duration": 10, "velocity": 106}, {"time": 130680, "pitch": 54, "duration": 10, "velocity": 50}, {"time": 130800, "pitch": 46, "duration": 10, "velocity": 92}, {"time": 130800, "pitch": 54, "duration": 10, "velocity": 64}, {"time": 130920, "pitch": 54, "duration": 10, "velocity": 50}, {"time": 131040, "pitch": 36, "duration": 10, "velocity": 106}, {"time": 131040, "pitch": 46, "duration": 10, "velocity": 106}, {"time": 131040, "pitch": 54, "duration": 10, "velocity": 78}, {"time": 131160, "pitch": 54, "duration": 10, "velocity": 50}, {"time": 131280, "pitch": 36, "duration": 10, "velocity": 92}, {"time": 131280, "pitch": 46, "duration": 10, "velocity": 92}, {"time": 131280, "pitch": 54, "duration": 10, "velocity": 64}, {"time": 131400, "pitch": 54, "duration": 10, "velocity": 50}, {"time": 131520, "pitch": 40, "duration": 10, "velocity": 106}, {"time": 131520, "pitch": 46, "duration": 10, "velocity": 106}, {"time": 131520, "pitch": 54, "duration": 10, "velocity": 106}, {"time": 131640, "pitch": 54, "duration": 10, "velocity": 50}, {"time": 131760, "pitch": 46, "duration": 10, "velocity": 92}, {"time": 131760, "pitch": 54, "duration": 10, "velocity": 64}, {"time": 131880, "pitch": 54, "duration": 10, "velocity": 50}, {"time": 132000, "pitch": 36, "duration": 10, "velocity": 106}, {"time": 132000, "pitch": 46, "duration": 10, "velocity": 106}, {"time": 132000, "pitch": 54, "duration": 10, "velocity": 78}, {"time": 132120, "pitch": 54, "duration": 10, "velocity": 50}, {"time": 132240, "pitch": 46, "duration": 10, "velocity": 92}, {"time": 132240, "pitch": 54, "duration": 10, "velocity": 64}, {"time": 132360, "pitch": 54, "duration": 10, "velocity": 50}, {"time": 132480, "pitch": 40, "duration": 10, "velocity": 106}, {"time": 132480, "pitch": 46, "duration": 10, "velocity": 106}, {"time": 132480, "pitch": 54, "duration": 10, "velocity": 106}, {"time": 132600, "pitch": 54, "duration": 10, "velocity": 50}, {"time": 132720, "pitch": 46, "duration": 10, "velocity": 92}, {"time": 132720, "pitch": 54, "duration": 10, "velocity": 64}, {"time": 132840, "pitch": 54, "duration": 10, "velocity": 50}, {"time": 132960, "pitch": 36, "duration": 10, "velocity": 106}, {"time": 132960, "pitch": 46, "duration": 10, "velocity": 106}, {"time": 132960, "pitch": 54, "duration": 10, "velocity": 78}, {"time": 133080, "pitch": 54, "duration": 10, "velocity": 50}, {"time": 133200, "pitch": 36, "duration": 10, "velocity": 92}, {"time": 133200, "pitch": 46, "duration": 10, "velocity": 92}, {"time": 133200, "pitch": 54, "duration": 10, "velocity": 64}, {"time": 133320, "pitch": 54, "duration": 10, "velocity": 50}, {"time": 133440, "pitch": 40, "duration": 10, "velocity": 106}, {"time": 133440, "pitch": 46, "duration": 10, "velocity": 106}, {"time": 133440, "pitch": 54, "duration": 10, "velocity": 106}, {"time": 133560, "pitch": 54, "duration": 10, "velocity": 50}, {"time": 133680, "pitch": 46, "duration": 10, "velocity": 92}, {"time": 133680, "pitch": 54, "duration": 10, "velocity": 64}, {"time": 133800, "pitch": 54, "duration": 10, "velocity": 50}, {"time": 133920, "pitch": 40, "duration": 10, "velocity": 106}, {"time": 133920, "pitch": 46, "duration": 10, "velocity": 106}, {"time": 133920, "pitch": 54, "duration": 10, "velocity": 78}, {"time": 134040, "pitch": 54, "duration": 10, "velocity": 50}, {"time": 134160, "pitch": 36, "duration": 10, "velocity": 106}, {"time": 134160, "pitch": 46, "duration": 10, "velocity": 92}, {"time": 134160, "pitch": 54, "duration": 10, "velocity": 64}, {"time": 134280, "pitch": 54, "duration": 10, "velocity": 50}, {"time": 134400, "pitch": 40, "duration": 10, "velocity": 106}, {"time": 134400, "pitch": 46, "duration": 10, "velocity": 106}, {"time": 134400, "pitch": 54, "duration": 10, "velocity": 106}, {"time": 134520, "pitch": 54, "duration": 10, "velocity": 50}, {"time": 134640, "pitch": 36, "duration": 10, "velocity": 106}, {"time": 134640, "pitch": 46, "duration": 10, "velocity": 92}, {"time": 134640, "pitch": 54, "duration": 10, "velocity": 64}, {"time": 134760, "pitch": 54, "duration": 10, "velocity": 50}, {"time": 134880, "pitch": 40, "duration": 10, "velocity": 106}, {"time": 134880, "pitch": 46, "duration": 10, "velocity": 106}, {"time": 134880, "pitch": 54, "duration": 10, "velocity": 78}, {"time": 135000, "pitch": 54, "duration": 10, "velocity": 50}, {"time": 135120, "pitch": 36, "duration": 10, "velocity": 106}, {"time": 135120, "pitch": 46, "duration": 10, "velocity": 92}, {"time": 135120, "pitch": 54, "duration": 10, "velocity": 64}, {"time": 135240, "pitch": 54, "duration": 10, "velocity": 50}, {"time": 135360, "pitch": 40, "duration": 10, "velocity": 106}, {"time": 135360, "pitch": 46, "duration": 10, "velocity": 106}, {"time": 135360, "pitch": 54, "duration": 10, "velocity": 106}, {"time": 135480, "pitch": 54, "duration": 10, "velocity": 50}, {"time": 135600, "pitch": 36, "duration": 10, "velocity": 106}, {"time": 135600, "pitch": 46, "duration": 10, "velocity": 92}, {"time": 135600, "pitch": 54, "duration": 10, "velocity": 64}, {"time": 135720, "pitch": 54, "duration": 10, "velocity": 50}, {"time": 135840, "pitch": 40, "duration": 10, "velocity": 106}, {"time": 135840, "pitch": 46, "duration": 10, "velocity": 106}, {"time": 135840, "pitch": 54, "duration": 10, "velocity": 78}, {"time": 135960, "pitch": 54, "duration": 10, "velocity": 50}, {"time": 136080, "pitch": 36, "duration": 10, "velocity": 106}, {"time": 136080, "pitch": 54, "duration": 10, "velocity": 64}, {"time": 136200, "pitch": 54, "duration": 10, "velocity": 50}, {"time": 136320, "pitch": 40, "duration": 10, "velocity": 106}, {"time": 136320, "pitch": 54, "duration": 10, "velocity": 106}, {"time": 136440, "pitch": 40, "duration": 10, "velocity": 92}, {"time": 136440, "pitch": 54, "duration": 10, "velocity": 50}, {"time": 136560, "pitch": 40, "duration": 10, "velocity": 106}, {"time": 136560, "pitch": 54, "duration": 10, "velocity": 64}, {"time": 136680, "pitch": 40, "duration": 10, "velocity": 92}, {"time": 136680, "pitch": 54, "duration": 10, "velocity": 50}, {"time": 136800, "pitch": 36, "duration": 10, "velocity": 106}, {"time": 136800, "pitch": 40, "duration": 10, "velocity": 106}, {"time": 136800, "pitch": 54, "duration": 10, "velocity": 78}, {"time": 136920, "pitch": 54, "duration": 10, "velocity": 50}, {"time": 137040, "pitch": 45, "duration": 10, "velocity": 106}, {"time": 137040, "pitch": 54, "duration": 10, "velocity": 64}, {"time": 137160, "pitch": 45, "duration": 10, "velocity": 92}, {"time": 137160, "pitch": 54, "duration": 10, "velocity": 50}, {"time": 137280, "pitch": 36, "duration": 10, "velocity": 106}, {"time": 137280, "pitch": 40, "duration": 10, "velocity": 106}, {"time": 137280, "pitch": 54, "duration": 10, "velocity": 106}, {"time": 137400, "pitch": 40, "duration": 10, "velocity": 92}, {"time": 137400, "pitch": 54, "duration": 10, "velocity": 50}, {"time": 137520, "pitch": 41, "duration": 10, "velocity": 106}, {"time": 137520, "pitch": 54, "duration": 10, "velocity": 64}, {"time": 137640, "pitch": 54, "duration": 10, "velocity": 50}, {"time": 137760, "pitch": 36, "duration": 10, "velocity": 106}, {"time": 137760, "pitch": 49, "duration": 10, "velocity": 92}, {"time": 137760, "pitch": 54, "duration": 10, "velocity": 78}, {"time": 137880, "pitch": 54, "duration": 10, "velocity": 50}, {"time": 138000, "pitch": 46, "duration": 10, "velocity": 50}, {"time": 138000, "pitch": 54, "duration": 10, "velocity": 64}, {"time": 138120, "pitch": 36, "duration": 10, "velocity": 92}, {"time": 138120, "pitch": 54, "duration": 10, "velocity": 50}, {"time": 138240, "pitch": 40, "duration": 10, "velocity": 106}, {"time": 138240, "pitch": 46, "duration": 10, "velocity": 106}, {"time": 138240, "pitch": 54, "duration": 10, "velocity": 106}, {"time": 138360, "pitch": 54, "duration": 10, "velocity": 50}, {"time": 138480, "pitch": 46, "duration": 10, "velocity": 50}, {"time": 138480, "pitch": 54, "duration": 10, "velocity": 64}, {"time": 138600, "pitch": 54, "duration": 10, "velocity": 50}, {"time": 138720, "pitch": 36, "duration": 10, "velocity": 106}, {"time": 138720, "pitch": 46, "duration": 10, "velocity": 106}, {"time": 138720, "pitch": 54, "duration": 10, "velocity": 78}, {"time": 138840, "pitch": 54, "duration": 10, "velocity": 50}, {"time": 138960, "pitch": 46, "duration": 10, "velocity": 50}, {"time": 138960, "pitch": 54, "duration": 10, "velocity": 64}, {"time": 139080, "pitch": 36, "duration": 10, "velocity": 92}, {"time": 139080, "pitch": 54, "duration": 10, "velocity": 50}, {"time": 139200, "pitch": 40, "duration": 10, "velocity": 106}, {"time": 139200, "pitch": 46, "duration": 10, "velocity": 106}, {"time": 139200, "pitch": 54, "duration": 10, "velocity": 106}, {"time": 139320, "pitch": 54, "duration": 10, "velocity": 50}, {"time": 139440, "pitch": 46, "duration": 10, "velocity": 50}, {"time": 139440, "pitch": 54, "duration": 10, "velocity": 64}, {"time": 139560, "pitch": 54, "duration": 10, "velocity": 50}, {"time": 139680, "pitch": 36, "duration": 10, "velocity": 106}, {"time": 139680, "pitch": 46, "duration": 10, "velocity": 106}, {"time": 139680, "pitch": 54, "duration": 10, "velocity": 78}, {"time": 139800, "pitch": 54, "duration": 10, "velocity": 50}, {"time": 139920, "pitch": 46, "duration": 10, "velocity": 50}, {"time": 139920, "pitch": 54, "duration": 10, "velocity": 64}, {"time": 140040, "pitch": 36, "duration": 10, "velocity": 92}, {"time": 140040, "pitch": 54, "duration": 10, "velocity": 50}, {"time": 140160, "pitch": 40, "duration": 10, "velocity": 106}, {"time": 140160, "pitch": 46, "duration": 10, "velocity": 106}, {"time": 140160, "pitch": 54, "duration": 10, "velocity": 106}, {"time": 140280, "pitch": 54, "duration": 10, "velocity": 50}, {"time": 140400, "pitch": 46, "duration": 10, "velocity": 50}, {"time": 140400, "pitch": 54, "duration": 10, "velocity": 64}, {"time": 140520, "pitch": 54, "duration": 10, "velocity": 50}, {"time": 140640, "pitch": 36, "duration": 10, "velocity": 106}, {"time": 140640, "pitch": 46, "duration": 10, "velocity": 106}, {"time": 140640, "pitch": 54, "duration": 10, "velocity": 78}, {"time": 140760, "pitch": 54, "duration": 10, "velocity": 50}, {"time": 140880, "pitch": 46, "duration": 10, "velocity": 50}, {"time": 140880, "pitch": 54, "duration": 10, "velocity": 64}, {"time": 141000, "pitch": 36, "duration": 10, "velocity": 92}, {"time": 141000, "pitch": 54, "duration": 10, "velocity": 50}, {"time": 141120, "pitch": 40, "duration": 10, "velocity": 106}, {"time": 141120, "pitch": 46, "duration": 10, "velocity": 106}, {"time": 141120, "pitch": 54, "duration": 10, "velocity": 106}, {"time": 141240, "pitch": 54, "duration": 10, "velocity": 50}, {"time": 141360, "pitch": 46, "duration": 10, "velocity": 50}, {"time": 141360, "pitch": 54, "duration": 10, "velocity": 64}, {"time": 141480, "pitch": 54, "duration": 10, "velocity": 50}, {"time": 141600, "pitch": 36, "duration": 10, "velocity": 106}, {"time": 141600, "pitch": 46, "duration": 10, "velocity": 106}, {"time": 141600, "pitch": 54, "duration": 10, "velocity": 78}, {"time": 141720, "pitch": 54, "duration": 10, "velocity": 50}, {"time": 141840, "pitch": 46, "duration": 10, "velocity": 50}, {"time": 141840, "pitch": 54, "duration": 10, "velocity": 64}, {"time": 141960, "pitch": 36, "duration": 10, "velocity": 92}, {"time": 141960, "pitch": 54, "duration": 10, "velocity": 50}, {"time": 142080, "pitch": 40, "duration": 10, "velocity": 106}, {"time": 142080, "pitch": 46, "duration": 10, "velocity": 106}, {"time": 142080, "pitch": 54, "duration": 10, "velocity": 106}, {"time": 142200, "pitch": 54, "duration": 10, "velocity": 50}, {"time": 142320, "pitch": 46, "duration": 10, "velocity": 50}, {"time": 142320, "pitch": 54, "duration": 10, "velocity": 64}, {"time": 142440, "pitch": 54, "duration": 10, "velocity": 50}, {"time": 142560, "pitch": 36, "duration": 10, "velocity": 106}, {"time": 142560, "pitch": 46, "duration": 10, "velocity": 106}, {"time": 142560, "pitch": 54, "duration": 10, "velocity": 78}, {"time": 142680, "pitch": 54, "duration": 10, "velocity": 50}, {"time": 142800, "pitch": 46, "duration": 10, "velocity": 50}, {"time": 142800, "pitch": 54, "duration": 10, "velocity": 64}, {"time": 142920, "pitch": 36, "duration": 10, "velocity": 92}, {"time": 142920, "pitch": 54, "duration": 10, "velocity": 50}, {"time": 143040, "pitch": 40, "duration": 10, "velocity": 106}, {"time": 143040, "pitch": 46, "duration": 10, "velocity": 106}, {"time": 143040, "pitch": 54, "duration": 10, "velocity": 106}, {"time": 143160, "pitch": 54, "duration": 10, "velocity": 50}, {"time": 143280, "pitch": 46, "duration": 10, "velocity": 50}, {"time": 143280, "pitch": 54, "duration": 10, "velocity": 64}, {"time": 143400, "pitch": 54, "duration": 10, "velocity": 50}, {"time": 143520, "pitch": 36, "duration": 10, "velocity": 106}, {"time": 143520, "pitch": 46, "duration": 10, "velocity": 106}, {"time": 143520, "pitch": 54, "duration": 10, "velocity": 78}, {"time": 143640, "pitch": 54, "duration": 10, "velocity": 50}, {"time": 143760, "pitch": 46, "duration": 10, "velocity": 50}, {"time": 143760, "pitch": 54, "duration": 10, "velocity": 64}, {"time": 143880, "pitch": 36, "duration": 10, "velocity": 92}, {"time": 143880, "pitch": 54, "duration": 10, "velocity": 50}, {"time": 144000, "pitch": 40, "duration": 10, "velocity": 106}, {"time": 144000, "pitch": 46, "duration": 10, "velocity": 106}, {"time": 144000, "pitch": 54, "duration": 10, "velocity": 106}, {"time": 144120, "pitch": 54, "duration": 10, "velocity": 50}, {"time": 144240, "pitch": 46, "duration": 10, "velocity": 50}, {"time": 144240, "pitch": 54, "duration": 10, "velocity": 64}, {"time": 144360, "pitch": 54, "duration": 10, "velocity": 50}, {"time": 144460, "pitch": 40, "duration": 10, "velocity": 92}, {"time": 144480, "pitch": 40, "duration": 10, "velocity": 106}, {"time": 144480, "pitch": 46, "duration": 10, "velocity": 106}, {"time": 144480, "pitch": 54, "duration": 10, "velocity": 78}, {"time": 144600, "pitch": 40, "duration": 10, "velocity": 92}, {"time": 144600, "pitch": 54, "duration": 10, "velocity": 50}, {"time": 144720, "pitch": 40, "duration": 10, "velocity": 106}, {"time": 144720, "pitch": 46, "duration": 10, "velocity": 50}, {"time": 144720, "pitch": 54, "duration": 10, "velocity": 64}, {"time": 144840, "pitch": 40, "duration": 10, "velocity": 92}, {"time": 144840, "pitch": 54, "duration": 10, "velocity": 50}, {"time": 144960, "pitch": 40, "duration": 10, "velocity": 106}, {"time": 144960, "pitch": 46, "duration": 10, "velocity": 106}, {"time": 144960, "pitch": 54, "duration": 10, "velocity": 106}, {"time": 145080, "pitch": 40, "duration": 10, "velocity": 92}, {"time": 145080, "pitch": 54, "duration": 10, "velocity": 50}, {"time": 145200, "pitch": 40, "duration": 10, "velocity": 106}, {"time": 145200, "pitch": 46, "duration": 10, "velocity": 106}, {"time": 145200, "pitch": 54, "duration": 10, "velocity": 64}, {"time": 145320, "pitch": 54, "duration": 10, "velocity": 50}, {"time": 145440, "pitch": 36, "duration": 10, "velocity": 106}, {"time": 145440, "pitch": 54, "duration": 10, "velocity": 78}, {"time": 145440, "pitch": 57, "duration": 10, "velocity": 92}, {"time": 145560, "pitch": 54, "duration": 10, "velocity": 50}, {"time": 145680, "pitch": 54, "duration": 10, "velocity": 64}, {"time": 145800, "pitch": 36, "duration": 10, "velocity": 92}, {"time": 145800, "pitch": 54, "duration": 10, "velocity": 50}, {"time": 145920, "pitch": 40, "duration": 10, "velocity": 106}, {"time": 145920, "pitch": 46, "duration": 10, "velocity": 106}, {"time": 145920, "pitch": 54, "duration": 10, "velocity": 106}, {"time": 146040, "pitch": 54, "duration": 10, "velocity": 50}, {"time": 146160, "pitch": 46, "duration": 10, "velocity": 50}, {"time": 146160, "pitch": 54, "duration": 10, "velocity": 64}, {"time": 146280, "pitch": 54, "duration": 10, "velocity": 50}, {"time": 146400, "pitch": 36, "duration": 10, "velocity": 106}, {"time": 146400, "pitch": 46, "duration": 10, "velocity": 106}, {"time": 146400, "pitch": 54, "duration": 10, "velocity": 78}, {"time": 146520, "pitch": 54, "duration": 10, "velocity": 50}, {"time": 146640, "pitch": 46, "duration": 10, "velocity": 50}, {"time": 146640, "pitch": 54, "duration": 10, "velocity": 64}, {"time": 146760, "pitch": 36, "duration": 10, "velocity": 92}, {"time": 146760, "pitch": 54, "duration": 10, "velocity": 50}, {"time": 146880, "pitch": 40, "duration": 10, "velocity": 106}, {"time": 146880, "pitch": 46, "duration": 10, "velocity": 106}, {"time": 146880, "pitch": 54, "duration": 10, "velocity": 106}, {"time": 147000, "pitch": 54, "duration": 10, "velocity": 50}, {"time": 147120, "pitch": 46, "duration": 10, "velocity": 50}, {"time": 147120, "pitch": 54, "duration": 10, "velocity": 64}, {"time": 147240, "pitch": 54, "duration": 10, "velocity": 50}, {"time": 147360, "pitch": 36, "duration": 10, "velocity": 106}, {"time": 147360, "pitch": 46, "duration": 10, "velocity": 106}, {"time": 147360, "pitch": 54, "duration": 10, "velocity": 78}, {"time": 147480, "pitch": 54, "duration": 10, "velocity": 50}, {"time": 147600, "pitch": 46, "duration": 10, "velocity": 50}, {"time": 147600, "pitch": 54, "duration": 10, "velocity": 64}, {"time": 147720, "pitch": 36, "duration": 10, "velocity": 92}, {"time": 147720, "pitch": 54, "duration": 10, "velocity": 50}, {"time": 147840, "pitch": 40, "duration": 10, "velocity": 106}, {"time": 147840, "pitch": 46, "duration": 10, "velocity": 106}, {"time": 147840, "pitch": 54, "duration": 10, "velocity": 106}, {"time": 147960, "pitch": 54, "duration": 10, "velocity": 50}, {"time": 148080, "pitch": 46, "duration": 10, "velocity": 50}, {"time": 148080, "pitch": 54, "duration": 10, "velocity": 64}, {"time": 148200, "pitch": 54, "duration": 10, "velocity": 50}, {"time": 148320, "pitch": 36, "duration": 10, "velocity": 106}, {"time": 148320, "pitch": 46, "duration": 10, "velocity": 106}, {"time": 148320, "pitch": 54, "duration": 10, "velocity": 78}, {"time": 148440, "pitch": 40, "duration": 10, "velocity": 106}, {"time": 148440, "pitch": 54, "duration": 10, "velocity": 50}, {"time": 148560, "pitch": 36, "duration": 10, "velocity": 92}, {"time": 148560, "pitch": 46, "duration": 10, "velocity": 50}, {"time": 148560, "pitch": 54, "duration": 10, "velocity": 64}, {"time": 148680, "pitch": 54, "duration": 10, "velocity": 50}, {"time": 148800, "pitch": 40, "duration": 10, "velocity": 106}, {"time": 148800, "pitch": 46, "duration": 10, "velocity": 106}, {"time": 148800, "pitch": 54, "duration": 10, "velocity": 106}, {"time": 148920, "pitch": 54, "duration": 10, "velocity": 50}, {"time": 149040, "pitch": 40, "duration": 10, "velocity": 106}, {"time": 149040, "pitch": 46, "duration": 10, "velocity": 50}, {"time": 149040, "pitch": 54, "duration": 10, "velocity": 64}, {"time": 149160, "pitch": 54, "duration": 10, "velocity": 50}, {"time": 149280, "pitch": 36, "duration": 10, "velocity": 106}, {"time": 149280, "pitch": 46, "duration": 10, "velocity": 106}, {"time": 149280, "pitch": 54, "duration": 10, "velocity": 78}, {"time": 149400, "pitch": 54, "duration": 10, "velocity": 50}, {"time": 149520, "pitch": 46, "duration": 10, "velocity": 50}, {"time": 149520, "pitch": 54, "duration": 10, "velocity": 64}, {"time": 149640, "pitch": 36, "duration": 10, "velocity": 106}, {"time": 149640, "pitch": 54, "duration": 10, "velocity": 50}, {"time": 149760, "pitch": 40, "duration": 10, "velocity": 106}, {"time": 149760, "pitch": 46, "duration": 10, "velocity": 106}, {"time": 149760, "pitch": 54, "duration": 10, "velocity": 106}, {"time": 149880, "pitch": 54, "duration": 10, "velocity": 50}, {"time": 150000, "pitch": 36, "duration": 10, "velocity": 106}, {"time": 150000, "pitch": 46, "duration": 10, "velocity": 50}, {"time": 150000, "pitch": 54, "duration": 10, "velocity": 64}, {"time": 150120, "pitch": 54, "duration": 10, "velocity": 50}, {"time": 150240, "pitch": 36, "duration": 10, "velocity": 106}, {"time": 150240, "pitch": 46, "duration": 10, "velocity": 106}, {"time": 150240, "pitch": 54, "duration": 10, "velocity": 78}, {"time": 150360, "pitch": 54, "duration": 10, "velocity": 50}, {"time": 150480, "pitch": 46, "duration": 10, "velocity": 92}, {"time": 150480, "pitch": 54, "duration": 10, "velocity": 64}, {"time": 150600, "pitch": 36, "duration": 10, "velocity": 92}, {"time": 150600, "pitch": 54, "duration": 10, "velocity": 50}, {"time": 150720, "pitch": 40, "duration": 10, "velocity": 106}, {"time": 150720, "pitch": 46, "duration": 10, "velocity": 106}, {"time": 150720, "pitch": 54, "duration": 10, "velocity": 106}, {"time": 150840, "pitch": 54, "duration": 10, "velocity": 50}, {"time": 150960, "pitch": 46, "duration": 10, "velocity": 92}, {"time": 150960, "pitch": 54, "duration": 10, "velocity": 64}, {"time": 151080, "pitch": 54, "duration": 10, "velocity": 50}, {"time": 151200, "pitch": 36, "duration": 10, "velocity": 106}, {"time": 151200, "pitch": 46, "duration": 10, "velocity": 106}, {"time": 151200, "pitch": 54, "duration": 10, "velocity": 78}, {"time": 151320, "pitch": 54, "duration": 10, "velocity": 50}, {"time": 151440, "pitch": 46, "duration": 10, "velocity": 50}, {"time": 151440, "pitch": 54, "duration": 10, "velocity": 64}, {"time": 151560, "pitch": 36, "duration": 10, "velocity": 92}, {"time": 151560, "pitch": 54, "duration": 10, "velocity": 50}, {"time": 151680, "pitch": 40, "duration": 10, "velocity": 106}, {"time": 151680, "pitch": 46, "duration": 10, "velocity": 106}, {"time": 151680, "pitch": 54, "duration": 10, "velocity": 106}, {"time": 151800, "pitch": 54, "duration": 10, "velocity": 50}, {"time": 151920, "pitch": 36, "duration": 10, "velocity": 106}, {"time": 151920, "pitch": 46, "duration": 10, "velocity": 50}, {"time": 151920, "pitch": 54, "duration": 10, "velocity": 64}, {"time": 152040, "pitch": 54, "duration": 10, "velocity": 50}, {"time": 152160, "pitch": 36, "duration": 10, "velocity": 106}, {"time": 152160, "pitch": 40, "duration": 10, "velocity": 106}, {"time": 152160, "pitch": 54, "duration": 10, "velocity": 78}, {"time": 152280, "pitch": 54, "duration": 10, "velocity": 50}, {"time": 152400, "pitch": 40, "duration": 10, "velocity": 106}, {"time": 152400, "pitch": 54, "duration": 10, "velocity": 64}, {"time": 152520, "pitch": 54, "duration": 10, "velocity": 50}, {"time": 152640, "pitch": 36, "duration": 10, "velocity": 106}, {"time": 152640, "pitch": 40, "duration": 10, "velocity": 106}, {"time": 152640, "pitch": 54, "duration": 10, "velocity": 106}, {"time": 152760, "pitch": 40, "duration": 10, "velocity": 92}, {"time": 152760, "pitch": 54, "duration": 10, "velocity": 50}, {"time": 152880, "pitch": 41, "duration": 10, "velocity": 106}, {"time": 152880, "pitch": 54, "duration": 10, "velocity": 64}, {"time": 153000, "pitch": 54, "duration": 10, "velocity": 50}, {"time": 153120, "pitch": 36, "duration": 10, "velocity": 106}, {"time": 153120, "pitch": 49, "duration": 10, "velocity": 92}, {"time": 153360, "pitch": 42, "duration": 10, "velocity": 92}, {"time": 153600, "pitch": 40, "duration": 10, "velocity": 106}, {"time": 153600, "pitch": 42, "duration": 10, "velocity": 106}, {"time": 153840, "pitch": 42, "duration": 10, "velocity": 92}, {"time": 154080, "pitch": 36, "duration": 10, "velocity": 106}, {"time": 154080, "pitch": 42, "duration": 10, "velocity": 106}, {"time": 154320, "pitch": 36, "duration": 10, "velocity": 92}, {"time": 154320, "pitch": 42, "duration": 10, "velocity": 92}, {"time": 154560, "pitch": 40, "duration": 10, "velocity": 106}, {"time": 154560, "pitch": 42, "duration": 10, "velocity": 106}, {"time": 154800, "pitch": 42, "duration": 10, "velocity": 92}, {"time": 155040, "pitch": 36, "duration": 10, "velocity": 106}, {"time": 155040, "pitch": 42, "duration": 10, "velocity": 106}, {"time": 155280, "pitch": 42, "duration": 10, "velocity": 92}, {"time": 155520, "pitch": 40, "duration": 10, "velocity": 106}, {"time": 155520, "pitch": 42, "duration": 10, "velocity": 106}, {"time": 155760, "pitch": 42, "duration": 10, "velocity": 92}, {"time": 156000, "pitch": 36, "duration": 10, "velocity": 106}, {"time": 156000, "pitch": 42, "duration": 10, "velocity": 106}, {"time": 156240, "pitch": 36, "duration": 10, "velocity": 92}, {"time": 156240, "pitch": 42, "duration": 10, "velocity": 92}, {"time": 156480, "pitch": 40, "duration": 10, "velocity": 106}, {"time": 156480, "pitch": 42, "duration": 10, "velocity": 106}, {"time": 156720, "pitch": 42, "duration": 10, "velocity": 92}, {"time": 156960, "pitch": 36, "duration": 10, "velocity": 106}, {"time": 156960, "pitch": 49, "duration": 10, "velocity": 92}, {"time": 157200, "pitch": 42, "duration": 10, "velocity": 92}, {"time": 157440, "pitch": 40, "duration": 10, "velocity": 106}, {"time": 157440, "pitch": 42, "duration": 10, "velocity": 106}, {"time": 157680, "pitch": 36, "duration": 10, "velocity": 106}, {"time": 157680, "pitch": 57, "duration": 10, "velocity": 92}, {"time": 157920, "pitch": 42, "duration": 10, "velocity": 106}, {"time": 158160, "pitch": 36, "duration": 10, "velocity": 92}, {"time": 158160, "pitch": 42, "duration": 10, "velocity": 92}, {"time": 158400, "pitch": 40, "duration": 10, "velocity": 106}, {"time": 158400, "pitch": 49, "duration": 10, "velocity": 92}, {"time": 158640, "pitch": 42, "duration": 10, "velocity": 92}, {"time": 158880, "pitch": 36, "duration": 10, "velocity": 106}, {"time": 158880, "pitch": 42, "duration": 10, "velocity": 106}, {"time": 159120, "pitch": 42, "duration": 10, "velocity": 92}, {"time": 159360, "pitch": 40, "duration": 10, "velocity": 106}, {"time": 159360, "pitch": 42, "duration": 10, "velocity": 106}, {"time": 159600, "pitch": 42, "duration": 10, "velocity": 92}, {"time": 159840, "pitch": 36, "duration": 10, "velocity": 106}, {"time": 159840, "pitch": 42, "duration": 10, "velocity": 106}, {"time": 159960, "pitch": 40, "duration": 10, "velocity": 106}, {"time": 160080, "pitch": 45, "duration": 10, "velocity": 106}, {"time": 160320, "pitch": 40, "duration": 10, "velocity": 106}, {"time": 160560, "pitch": 40, "duration": 10, "velocity": 106}, {"time": 160680, "pitch": 40, "duration": 10, "velocity": 92}, {"time": 160800, "pitch": 36, "duration": 10, "velocity": 106}, {"time": 160800, "pitch": 49, "duration": 10, "velocity": 92}, {"time": 161040, "pitch": 42, "duration": 10, "velocity": 92}, {"time": 161280, "pitch": 40, "duration": 10, "velocity": 106}, {"time": 161280, "pitch": 42, "duration": 10, "velocity": 106}, {"time": 161520, "pitch": 42, "duration": 10, "velocity": 92}, {"time": 161760, "pitch": 36, "duration": 10, "velocity": 106}, {"time": 161760, "pitch": 42, "duration": 10, "velocity": 106}, {"time": 162000, "pitch": 36, "duration": 10, "velocity": 92}, {"time": 162000, "pitch": 42, "duration": 10, "velocity": 92}, {"time": 162240, "pitch": 40, "duration": 10, "velocity": 106}, {"time": 162240, "pitch": 42, "duration": 10, "velocity": 106}, {"time": 162480, "pitch": 42, "duration": 10, "velocity": 92}, {"time": 162720, "pitch": 36, "duration": 10, "velocity": 106}, {"time": 162720, "pitch": 42, "duration": 10, "velocity": 106}, {"time": 162960, "pitch": 42, "duration": 10, "velocity": 92}, {"time": 163200, "pitch": 40, "duration": 10, "velocity": 106}, {"time": 163200, "pitch": 42, "duration": 10, "velocity": 106}, {"time": 163440, "pitch": 42, "duration": 10, "velocity": 92}, {"time": 163680, "pitch": 36, "duration": 10, "velocity": 106}, {"time": 163680, "pitch": 42, "duration": 10, "velocity": 106}, {"time": 163920, "pitch": 36, "duration": 10, "velocity": 92}, {"time": 163920, "pitch": 42, "duration": 10, "velocity": 92}, {"time": 164160, "pitch": 40, "duration": 10, "velocity": 106}, {"time": 164160, "pitch": 42, "duration": 10, "velocity": 106}, {"time": 164400, "pitch": 40, "duration": 10, "velocity": 106}, {"time": 164520, "pitch": 40, "duration": 10, "velocity": 92}, {"time": 164640, "pitch": 36, "duration": 10, "velocity": 106}, {"time": 164640, "pitch": 49, "duration": 10, "velocity": 92}, {"time": 164880, "pitch": 42, "duration": 10, "velocity": 92}, {"time": 165120, "pitch": 40, "duration": 10, "velocity": 106}, {"time": 165120, "pitch": 42, "duration": 10, "velocity": 106}, {"time": 165360, "pitch": 36, "duration": 10, "velocity": 106}, {"time": 165360, "pitch": 49, "duration": 10, "velocity": 92}, {"time": 165600, "pitch": 42, "duration": 10, "velocity": 106}, {"time": 165840, "pitch": 36, "duration": 10, "velocity": 92}, {"time": 165840, "pitch": 42, "duration": 10, "velocity": 92}, {"time": 166080, "pitch": 40, "duration": 10, "velocity": 106}, {"time": 166440, "pitch": 40, "duration": 10, "velocity": 106}, {"time": 166560, "pitch": 36, "duration": 10, "velocity": 106}, {"time": 166560, "pitch": 49, "duration": 10, "velocity": 92}, {"time": 166800, "pitch": 42, "duration": 10, "velocity": 92}, {"time": 167040, "pitch": 40, "duration": 10, "velocity": 106}, {"time": 167040, "pitch": 42, "duration": 10, "velocity": 106}, {"time": 167280, "pitch": 36, "duration": 10, "velocity": 106}, {"time": 167280, "pitch": 49, "duration": 10, "velocity": 92}, {"time": 167520, "pitch": 40, "duration": 10, "velocity": 106}, {"time": 167760, "pitch": 40, "duration": 10, "velocity": 106}, {"time": 167880, "pitch": 40, "duration": 10, "velocity": 92}, {"time": 168000, "pitch": 40, "duration": 10, "velocity": 106}, {"time": 168120, "pitch": 40, "duration": 10, "velocity": 92}, {"time": 168240, "pitch": 40, "duration": 10, "velocity": 106}, {"time": 168360, "pitch": 40, "duration": 10, "velocity": 92}, {"time": 168480, "pitch": 36, "duration": 10, "velocity": 106}, {"time": 168480, "pitch": 40, "duration": 10, "velocity": 106}, {"time": 168500, "pitch": 40, "duration": 10, "velocity": 106}, {"time": 168720, "pitch": 40, "duration": 10, "velocity": 106}, {"time": 168840, "pitch": 40, "duration": 10, "velocity": 92}, {"time": 168960, "pitch": 36, "duration": 10, "velocity": 106}, {"time": 169080, "pitch": 40, "duration": 10, "velocity": 92}, {"time": 169200, "pitch": 36, "duration": 10, "velocity": 106}, {"time": 169200, "pitch": 40, "duration": 10, "velocity": 106}, {"time": 169320, "pitch": 40, "duration": 10, "velocity": 106}, {"time": 169440, "pitch": 36, "duration": 10, "velocity": 106}, {"time": 169440, "pitch": 40, "duration": 10, "velocity": 92}, {"time": 169680, "pitch": 36, "duration": 10, "velocity": 106}, {"time": 169680, "pitch": 40, "duration": 10, "velocity": 106}, {"time": 169920, "pitch": 36, "duration": 10, "velocity": 106}, {"time": 169920, "pitch": 40, "duration": 10, "velocity": 106}, {"time": 170160, "pitch": 36, "duration": 10, "velocity": 106}, {"time": 170400, "pitch": 36, "duration": 10, "velocity": 106}, {"time": 170400, "pitch": 49, "duration": 10, "velocity": 92}, {"time": 170400, "pitch": 54, "duration": 10, "velocity": 78}, {"time": 170520, "pitch": 54, "duration": 10, "velocity": 50}, {"time": 170640, "pitch": 46, "duration": 10, "velocity": 50}, {"time": 170640, "pitch": 54, "duration": 10, "velocity": 64}, {"time": 170760, "pitch": 54, "duration": 10, "velocity": 50}, {"time": 170880, "pitch": 40, "duration": 10, "velocity": 106}, {"time": 170880, "pitch": 46, "duration": 10, "velocity": 106}, {"time": 170880, "pitch": 54, "duration": 10, "velocity": 106}, {"time": 171000, "pitch": 54, "duration": 10, "velocity": 50}, {"time": 171120, "pitch": 36, "duration": 10, "velocity": 92}, {"time": 171120, "pitch": 46, "duration": 10, "velocity": 50}, {"time": 171120, "pitch": 54, "duration": 10, "velocity": 64}, {"time": 171240, "pitch": 54, "duration": 10, "velocity": 50}, {"time": 171360, "pitch": 36, "duration": 10, "velocity": 106}, {"time": 171360, "pitch": 46, "duration": 10, "velocity": 106}, {"time": 171360, "pitch": 54, "duration": 10, "velocity": 78}, {"time": 171480, "pitch": 54, "duration": 10, "velocity": 50}, {"time": 171600, "pitch": 46, "duration": 10, "velocity": 50}, {"time": 171600, "pitch": 54, "duration": 10, "velocity": 64}, {"time": 171720, "pitch": 54, "duration": 10, "velocity": 50}, {"time": 171840, "pitch": 40, "duration": 10, "velocity": 106}, {"time": 171840, "pitch": 46, "duration": 10, "velocity": 106}, {"time": 171840, "pitch": 54, "duration": 10, "velocity": 106}, {"time": 171960, "pitch": 54, "duration": 10, "velocity": 50}, {"time": 172080, "pitch": 46, "duration": 10, "velocity": 50}, {"time": 172080, "pitch": 54, "duration": 10, "velocity": 64}, {"time": 172200, "pitch": 54, "duration": 10, "velocity": 50}, {"time": 172320, "pitch": 36, "duration": 10, "velocity": 106}, {"time": 172320, "pitch": 46, "duration": 10, "velocity": 106}, {"time": 172320, "pitch": 54, "duration": 10, "velocity": 78}, {"time": 172440, "pitch": 54, "duration": 10, "velocity": 50}, {"time": 172560, "pitch": 46, "duration": 10, "velocity": 50}, {"time": 172560, "pitch": 54, "duration": 10, "velocity": 64}, {"time": 172680, "pitch": 54, "duration": 10, "velocity": 50}, {"time": 172800, "pitch": 40, "duration": 10, "velocity": 106}, {"time": 172800, "pitch": 46, "duration": 10, "velocity": 106}, {"time": 172800, "pitch": 54, "duration": 10, "velocity": 106}, {"time": 172920, "pitch": 54, "duration": 10, "velocity": 50}, {"time": 173040, "pitch": 36, "duration": 10, "velocity": 92}, {"time": 173040, "pitch": 46, "duration": 10, "velocity": 50}, {"time": 173040, "pitch": 54, "duration": 10, "velocity": 64}, {"time": 173160, "pitch": 54, "duration": 10, "velocity": 50}, {"time": 173280, "pitch": 36, "duration": 10, "velocity": 106}, {"time": 173280, "pitch": 46, "duration": 10, "velocity": 106}, {"time": 173280, "pitch": 54, "duration": 10, "velocity": 78}, {"time": 173400, "pitch": 54, "duration": 10, "velocity": 50}, {"time": 173520, "pitch": 46, "duration": 10, "velocity": 50}, {"time": 173520, "pitch": 54, "duration": 10, "velocity": 64}, {"time": 173640, "pitch": 54, "duration": 10, "velocity": 50}, {"time": 173760, "pitch": 40, "duration": 10, "velocity": 106}, {"time": 173760, "pitch": 46, "duration": 10, "velocity": 106}, {"time": 173760, "pitch": 54, "duration": 10, "velocity": 106}, {"time": 173880, "pitch": 54, "duration": 10, "velocity": 50}, {"time": 174000, "pitch": 46, "duration": 10, "velocity": 50}, {"time": 174000, "pitch": 54, "duration": 10, "velocity": 64}, {"time": 174120, "pitch": 54, "duration": 10, "velocity": 50}, {"time": 174240, "pitch": 36, "duration": 10, "velocity": 106}, {"time": 174240, "pitch": 46, "duration": 10, "velocity": 106}, {"time": 174240, "pitch": 54, "duration": 10, "velocity": 78}, {"time": 174360, "pitch": 54, "duration": 10, "velocity": 50}, {"time": 174480, "pitch": 46, "duration": 10, "velocity": 50}, {"time": 174480, "pitch": 54, "duration": 10, "velocity": 64}, {"time": 174600, "pitch": 54, "duration": 10, "velocity": 50}, {"time": 174720, "pitch": 40, "duration": 10, "velocity": 106}, {"time": 174720, "pitch": 46, "duration": 10, "velocity": 106}, {"time": 174720, "pitch": 54, "duration": 10, "velocity": 106}, {"time": 174840, "pitch": 54, "duration": 10, "velocity": 50}, {"time": 174960, "pitch": 36, "duration": 10, "velocity": 92}, {"time": 174960, "pitch": 46, "duration": 10, "velocity": 50}, {"time": 174960, "pitch": 54, "duration": 10, "velocity": 64}, {"time": 175080, "pitch": 54, "duration": 10, "velocity": 50}, {"time": 175200, "pitch": 36, "duration": 10, "velocity": 106}, {"time": 175200, "pitch": 46, "duration": 10, "velocity": 106}, {"time": 175200, "pitch": 54, "duration": 10, "velocity": 78}, {"time": 175320, "pitch": 54, "duration": 10, "velocity": 50}, {"time": 175440, "pitch": 46, "duration": 10, "velocity": 50}, {"time": 175440, "pitch": 54, "duration": 10, "velocity": 64}, {"time": 175560, "pitch": 54, "duration": 10, "velocity": 50}, {"time": 175680, "pitch": 40, "duration": 10, "velocity": 106}, {"time": 175680, "pitch": 46, "duration": 10, "velocity": 106}, {"time": 175680, "pitch": 54, "duration": 10, "velocity": 106}, {"time": 175800, "pitch": 54, "duration": 10, "velocity": 50}, {"time": 175920, "pitch": 46, "duration": 10, "velocity": 50}, {"time": 175920, "pitch": 54, "duration": 10, "velocity": 64}, {"time": 176040, "pitch": 54, "duration": 10, "velocity": 50}, {"time": 176160, "pitch": 36, "duration": 10, "velocity": 106}, {"time": 176160, "pitch": 46, "duration": 10, "velocity": 106}, {"time": 176160, "pitch": 54, "duration": 10, "velocity": 78}, {"time": 176280, "pitch": 54, "duration": 10, "velocity": 50}, {"time": 176400, "pitch": 46, "duration": 10, "velocity": 50}, {"time": 176400, "pitch": 54, "duration": 10, "velocity": 64}, {"time": 176520, "pitch": 54, "duration": 10, "velocity": 50}, {"time": 176640, "pitch": 40, "duration": 10, "velocity": 106}, {"time": 176640, "pitch": 46, "duration": 10, "velocity": 106}, {"time": 176640, "pitch": 54, "duration": 10, "velocity": 106}, {"time": 176760, "pitch": 54, "duration": 10, "velocity": 50}, {"time": 176880, "pitch": 36, "duration": 10, "velocity": 92}, {"time": 176880, "pitch": 46, "duration": 10, "velocity": 50}, {"time": 176880, "pitch": 54, "duration": 10, "velocity": 64}, {"time": 177000, "pitch": 54, "duration": 10, "velocity": 50}, {"time": 177120, "pitch": 36, "duration": 10, "velocity": 106}, {"time": 177120, "pitch": 46, "duration": 10, "velocity": 106}, {"time": 177120, "pitch": 54, "duration": 10, "velocity": 78}, {"time": 177240, "pitch": 40, "duration": 10, "velocity": 106}, {"time": 177240, "pitch": 54, "duration": 10, "velocity": 50}, {"time": 177360, "pitch": 46, "duration": 10, "velocity": 50}, {"time": 177360, "pitch": 54, "duration": 10, "velocity": 64}, {"time": 177480, "pitch": 54, "duration": 10, "velocity": 50}, {"time": 177600, "pitch": 40, "duration": 10, "velocity": 106}, {"time": 177600, "pitch": 49, "duration": 10, "velocity": 92}, {"time": 177600, "pitch": 54, "duration": 10, "velocity": 106}, {"time": 177720, "pitch": 54, "duration": 10, "velocity": 50}, {"time": 177840, "pitch": 46, "duration": 10, "velocity": 50}, {"time": 177840, "pitch": 54, "duration": 10, "velocity": 64}, {"time": 177960, "pitch": 54, "duration": 10, "velocity": 50}, {"time": 178080, "pitch": 36, "duration": 10, "velocity": 106}, {"time": 178080, "pitch": 54, "duration": 10, "velocity": 78}, {"time": 178080, "pitch": 57, "duration": 10, "velocity": 92}, {"time": 178200, "pitch": 54, "duration": 10, "velocity": 50}, {"time": 178320, "pitch": 46, "duration": 10, "velocity": 50}, {"time": 178320, "pitch": 54, "duration": 10, "velocity": 64}, {"time": 178440, "pitch": 54, "duration": 10, "velocity": 50}, {"time": 178560, "pitch": 40, "duration": 10, "velocity": 106}, {"time": 178560, "pitch": 46, "duration": 10, "velocity": 106}, {"time": 178560, "pitch": 54, "duration": 10, "velocity": 106}, {"time": 178680, "pitch": 54, "duration": 10, "velocity": 50}, {"time": 178800, "pitch": 36, "duration": 10, "velocity": 92}, {"time": 178800, "pitch": 46, "duration": 10, "velocity": 50}, {"time": 178800, "pitch": 54, "duration": 10, "velocity": 64}, {"time": 178920, "pitch": 54, "duration": 10, "velocity": 50}, {"time": 179040, "pitch": 36, "duration": 10, "velocity": 106}, {"time": 179040, "pitch": 46, "duration": 10, "velocity": 106}, {"time": 179040, "pitch": 54, "duration": 10, "velocity": 78}, {"time": 179160, "pitch": 54, "duration": 10, "velocity": 50}, {"time": 179280, "pitch": 46, "duration": 10, "velocity": 50}, {"time": 179280, "pitch": 54, "duration": 10, "velocity": 64}, {"time": 179400, "pitch": 54, "duration": 10, "velocity": 50}, {"time": 179520, "pitch": 40, "duration": 10, "velocity": 106}, {"time": 179520, "pitch": 46, "duration": 10, "velocity": 106}, {"time": 179520, "pitch": 54, "duration": 10, "velocity": 106}, {"time": 179640, "pitch": 54, "duration": 10, "velocity": 50}, {"time": 179760, "pitch": 46, "duration": 10, "velocity": 50}, {"time": 179760, "pitch": 54, "duration": 10, "velocity": 64}, {"time": 179880, "pitch": 54, "duration": 10, "velocity": 50}, {"time": 180000, "pitch": 36, "duration": 10, "velocity": 106}, {"time": 180000, "pitch": 46, "duration": 10, "velocity": 106}, {"time": 180000, "pitch": 54, "duration": 10, "velocity": 78}, {"time": 180120, "pitch": 54, "duration": 10, "velocity": 50}, {"time": 180240, "pitch": 46, "duration": 10, "velocity": 50}, {"time": 180240, "pitch": 54, "duration": 10, "velocity": 64}, {"time": 180360, "pitch": 54, "duration": 10, "velocity": 50}, {"time": 180480, "pitch": 40, "duration": 10, "velocity": 106}, {"time": 180480, "pitch": 46, "duration": 10, "velocity": 106}, {"time": 180480, "pitch": 54, "duration": 10, "velocity": 106}, {"time": 180600, "pitch": 54, "duration": 10, "velocity": 50}, {"time": 180720, "pitch": 36, "duration": 10, "velocity": 92}, {"time": 180720, "pitch": 46, "duration": 10, "velocity": 50}, {"time": 180720, "pitch": 54, "duration": 10, "velocity": 64}, {"time": 180840, "pitch": 54, "duration": 10, "velocity": 50}, {"time": 180960, "pitch": 36, "duration": 10, "velocity": 106}, {"time": 180960, "pitch": 46, "duration": 10, "velocity": 106}, {"time": 180960, "pitch": 54, "duration": 10, "velocity": 78}, {"time": 181080, "pitch": 54, "duration": 10, "velocity": 50}, {"time": 181200, "pitch": 46, "duration": 10, "velocity": 50}, {"time": 181200, "pitch": 54, "duration": 10, "velocity": 64}, {"time": 181320, "pitch": 54, "duration": 10, "velocity": 50}, {"time": 181440, "pitch": 40, "duration": 10, "velocity": 106}, {"time": 181440, "pitch": 46, "duration": 10, "velocity": 106}, {"time": 181440, "pitch": 54, "duration": 10, "velocity": 106}, {"time": 181560, "pitch": 54, "duration": 10, "velocity": 50}, {"time": 181680, "pitch": 46, "duration": 10, "velocity": 50}, {"time": 181680, "pitch": 54, "duration": 10, "velocity": 64}, {"time": 181800, "pitch": 54, "duration": 10, "velocity": 50}, {"time": 181920, "pitch": 36, "duration": 10, "velocity": 106}, {"time": 181920, "pitch": 46, "duration": 10, "velocity": 106}, {"time": 181920, "pitch": 54, "duration": 10, "velocity": 78}, {"time": 182040, "pitch": 54, "duration": 10, "velocity": 50}, {"time": 182160, "pitch": 46, "duration": 10, "velocity": 50}, {"time": 182160, "pitch": 54, "duration": 10, "velocity": 64}, {"time": 182280, "pitch": 54, "duration": 10, "velocity": 50}, {"time": 182400, "pitch": 40, "duration": 10, "velocity": 106}, {"time": 182400, "pitch": 46, "duration": 10, "velocity": 106}, {"time": 182400, "pitch": 54, "duration": 10, "velocity": 106}, {"time": 182520, "pitch": 54, "duration": 10, "velocity": 50}, {"time": 182640, "pitch": 36, "duration": 10, "velocity": 92}, {"time": 182640, "pitch": 46, "duration": 10, "velocity": 50}, {"time": 182640, "pitch": 54, "duration": 10, "velocity": 64}, {"time": 182760, "pitch": 54, "duration": 10, "velocity": 50}, {"time": 182880, "pitch": 36, "duration": 10, "velocity": 106}, {"time": 182880, "pitch": 46, "duration": 10, "velocity": 106}, {"time": 182880, "pitch": 54, "duration": 10, "velocity": 78}, {"time": 183000, "pitch": 54, "duration": 10, "velocity": 50}, {"time": 183120, "pitch": 46, "duration": 10, "velocity": 50}, {"time": 183120, "pitch": 54, "duration": 10, "velocity": 64}, {"time": 183240, "pitch": 54, "duration": 10, "velocity": 50}, {"time": 183360, "pitch": 40, "duration": 10, "velocity": 106}, {"time": 183360, "pitch": 46, "duration": 10, "velocity": 106}, {"time": 183360, "pitch": 54, "duration": 10, "velocity": 106}, {"time": 183480, "pitch": 54, "duration": 10, "velocity": 50}, {"time": 183600, "pitch": 46, "duration": 10, "velocity": 50}, {"time": 183600, "pitch": 54, "duration": 10, "velocity": 64}, {"time": 183720, "pitch": 54, "duration": 10, "velocity": 50}, {"time": 183840, "pitch": 36, "duration": 10, "velocity": 106}, {"time": 183840, "pitch": 46, "duration": 10, "velocity": 106}, {"time": 183840, "pitch": 54, "duration": 10, "velocity": 78}, {"time": 183960, "pitch": 40, "duration": 10, "velocity": 106}, {"time": 183960, "pitch": 54, "duration": 10, "velocity": 50}, {"time": 184080, "pitch": 46, "duration": 10, "velocity": 50}, {"time": 184080, "pitch": 54, "duration": 10, "velocity": 64}, {"time": 184200, "pitch": 54, "duration": 10, "velocity": 50}, {"time": 184320, "pitch": 40, "duration": 10, "velocity": 106}, {"time": 184320, "pitch": 46, "duration": 10, "velocity": 106}, {"time": 184320, "pitch": 54, "duration": 10, "velocity": 106}, {"time": 184440, "pitch": 54, "duration": 10, "velocity": 50}, {"time": 184560, "pitch": 36, "duration": 10, "velocity": 92}, {"time": 184560, "pitch": 46, "duration": 10, "velocity": 50}, {"time": 184560, "pitch": 54, "duration": 10, "velocity": 64}, {"time": 184680, "pitch": 54, "duration": 10, "velocity": 50}, {"time": 184800, "pitch": 40, "duration": 10, "velocity": 106}, {"time": 184800, "pitch": 54, "duration": 10, "velocity": 78}, {"time": 184920, "pitch": 54, "duration": 10, "velocity": 50}, {"time": 185040, "pitch": 40, "duration": 10, "velocity": 106}, {"time": 185040, "pitch": 54, "duration": 10, "velocity": 64}, {"time": 185160, "pitch": 40, "duration": 10, "velocity": 92}, {"time": 185160, "pitch": 54, "duration": 10, "velocity": 50}, {"time": 185280, "pitch": 40, "duration": 10, "velocity": 106}, {"time": 185280, "pitch": 54, "duration": 10, "velocity": 106}, {"time": 185400, "pitch": 40, "duration": 10, "velocity": 92}, {"time": 185400, "pitch": 54, "duration": 10, "velocity": 50}, {"time": 185520, "pitch": 40, "duration": 10, "velocity": 106}, {"time": 185520, "pitch": 54, "duration": 10, "velocity": 64}, {"time": 185640, "pitch": 40, "duration": 10, "velocity": 92}, {"time": 185640, "pitch": 54, "duration": 10, "velocity": 50}, {"time": 185760, "pitch": 36, "duration": 10, "velocity": 106}, {"time": 185760, "pitch": 49, "duration": 10, "velocity": 92}, {"time": 185760, "pitch": 54, "duration": 10, "velocity": 78}, {"time": 185880, "pitch": 54, "duration": 10, "velocity": 50}, {"time": 186000, "pitch": 54, "duration": 10, "velocity": 64}, {"time": 186120, "pitch": 54, "duration": 10, "velocity": 50}, {"time": 186240, "pitch": 40, "duration": 10, "velocity": 106}, {"time": 186240, "pitch": 53, "duration": 10, "velocity": 106}, {"time": 186240, "pitch": 54, "duration": 10, "velocity": 106}, {"time": 186360, "pitch": 54, "duration": 10, "velocity": 50}, {"time": 186480, "pitch": 54, "duration": 10, "velocity": 64}, {"time": 186600, "pitch": 54, "duration": 10, "velocity": 50}, {"time": 186720, "pitch": 36, "duration": 10, "velocity": 106}, {"time": 186720, "pitch": 53, "duration": 10, "velocity": 106}, {"time": 186720, "pitch": 54, "duration": 10, "velocity": 78}, {"time": 186840, "pitch": 54, "duration": 10, "velocity": 50}, {"time": 186960, "pitch": 36, "duration": 10, "velocity": 92}, {"time": 186960, "pitch": 54, "duration": 10, "velocity": 64}, {"time": 187080, "pitch": 54, "duration": 10, "velocity": 50}, {"time": 187200, "pitch": 40, "duration": 10, "velocity": 106}, {"time": 187200, "pitch": 53, "duration": 10, "velocity": 106}, {"time": 187200, "pitch": 54, "duration": 10, "velocity": 106}, {"time": 187320, "pitch": 54, "duration": 10, "velocity": 50}, {"time": 187440, "pitch": 54, "duration": 10, "velocity": 64}, {"time": 187560, "pitch": 54, "duration": 10, "velocity": 50}, {"time": 187680, "pitch": 36, "duration": 10, "velocity": 106}, {"time": 187680, "pitch": 53, "duration": 10, "velocity": 106}, {"time": 187680, "pitch": 54, "duration": 10, "velocity": 78}, {"time": 187800, "pitch": 54, "duration": 10, "velocity": 50}, {"time": 187920, "pitch": 54, "duration": 10, "velocity": 64}, {"time": 188040, "pitch": 54, "duration": 10, "velocity": 50}, {"time": 188160, "pitch": 40, "duration": 10, "velocity": 106}, {"time": 188160, "pitch": 53, "duration": 10, "velocity": 106}, {"time": 188160, "pitch": 54, "duration": 10, "velocity": 106}, {"time": 188280, "pitch": 54, "duration": 10, "velocity": 50}, {"time": 188400, "pitch": 54, "duration": 10, "velocity": 64}, {"time": 188520, "pitch": 54, "duration": 10, "velocity": 50}, {"time": 188640, "pitch": 36, "duration": 10, "velocity": 106}, {"time": 188640, "pitch": 53, "duration": 10, "velocity": 106}, {"time": 188640, "pitch": 54, "duration": 10, "velocity": 78}, {"time": 188760, "pitch": 54, "duration": 10, "velocity": 50}, {"time": 188880, "pitch": 36, "duration": 10, "velocity": 92}, {"time": 188880, "pitch": 54, "duration": 10, "velocity": 64}, {"time": 189000, "pitch": 54, "duration": 10, "velocity": 50}, {"time": 189120, "pitch": 40, "duration": 10, "velocity": 106}, {"time": 189120, "pitch": 53, "duration": 10, "velocity": 106}, {"time": 189120, "pitch": 54, "duration": 10, "velocity": 106}, {"time": 189240, "pitch": 54, "duration": 10, "velocity": 50}, {"time": 189360, "pitch": 54, "duration": 10, "velocity": 64}, {"time": 189480, "pitch": 54, "duration": 10, "velocity": 50}, {"time": 189600, "pitch": 36, "duration": 10, "velocity": 106}, {"time": 189600, "pitch": 53, "duration": 10, "velocity": 106}, {"time": 189600, "pitch": 54, "duration": 10, "velocity": 78}, {"time": 189720, "pitch": 54, "duration": 10, "velocity": 50}, {"time": 189840, "pitch": 54, "duration": 10, "velocity": 64}, {"time": 189960, "pitch": 54, "duration": 10, "velocity": 50}, {"time": 190080, "pitch": 40, "duration": 10, "velocity": 106}, {"time": 190080, "pitch": 53, "duration": 10, "velocity": 106}, {"time": 190080, "pitch": 54, "duration": 10, "velocity": 106}, {"time": 190200, "pitch": 54, "duration": 10, "velocity": 50}, {"time": 190320, "pitch": 54, "duration": 10, "velocity": 64}, {"time": 190440, "pitch": 54, "duration": 10, "velocity": 50}, {"time": 190560, "pitch": 36, "duration": 10, "velocity": 106}, {"time": 190560, "pitch": 53, "duration": 10, "velocity": 106}, {"time": 190560, "pitch": 54, "duration": 10, "velocity": 78}, {"time": 190680, "pitch": 54, "duration": 10, "velocity": 50}, {"time": 190800, "pitch": 36, "duration": 10, "velocity": 92}, {"time": 190800, "pitch": 54, "duration": 10, "velocity": 64}, {"time": 190920, "pitch": 54, "duration": 10, "velocity": 50}, {"time": 191040, "pitch": 40, "duration": 10, "velocity": 106}, {"time": 191040, "pitch": 53, "duration": 10, "velocity": 106}, {"time": 191040, "pitch": 54, "duration": 10, "velocity": 106}, {"time": 191160, "pitch": 54, "duration": 10, "velocity": 50}, {"time": 191280, "pitch": 54, "duration": 10, "velocity": 64}, {"time": 191400, "pitch": 54, "duration": 10, "velocity": 50}, {"time": 191520, "pitch": 36, "duration": 10, "velocity": 106}, {"time": 191520, "pitch": 53, "duration": 10, "velocity": 106}, {"time": 191520, "pitch": 54, "duration": 10, "velocity": 78}, {"time": 191640, "pitch": 54, "duration": 10, "velocity": 50}, {"time": 191760, "pitch": 54, "duration": 10, "velocity": 64}, {"time": 191880, "pitch": 54, "duration": 10, "velocity": 50}, {"time": 192000, "pitch": 40, "duration": 10, "velocity": 106}, {"time": 192000, "pitch": 53, "duration": 10, "velocity": 106}, {"time": 192000, "pitch": 54, "duration": 10, "velocity": 106}, {"time": 192120, "pitch": 54, "duration": 10, "velocity": 50}, {"time": 192240, "pitch": 54, "duration": 10, "velocity": 64}, {"time": 192360, "pitch": 54, "duration": 10, "velocity": 50}, {"time": 192480, "pitch": 36, "duration": 10, "velocity": 106}, {"time": 192480, "pitch": 53, "duration": 10, "velocity": 106}, {"time": 192480, "pitch": 54, "duration": 10, "velocity": 78}, {"time": 192600, "pitch": 54, "duration": 10, "velocity": 50}, {"time": 192720, "pitch": 36, "duration": 10, "velocity": 92}, {"time": 192720, "pitch": 54, "duration": 10, "velocity": 64}, {"time": 192840, "pitch": 54, "duration": 10, "velocity": 50}, {"time": 192960, "pitch": 40, "duration": 10, "velocity": 106}, {"time": 192960, "pitch": 53, "duration": 10, "velocity": 106}, {"time": 192960, "pitch": 54, "duration": 10, "velocity": 106}, {"time": 193080, "pitch": 54, "duration": 10, "velocity": 50}, {"time": 193200, "pitch": 54, "duration": 10, "velocity": 64}, {"time": 193320, "pitch": 54, "duration": 10, "velocity": 50}, {"time": 193440, "pitch": 36, "duration": 10, "velocity": 106}, {"time": 193440, "pitch": 53, "duration": 10, "velocity": 106}, {"time": 193440, "pitch": 54, "duration": 10, "velocity": 78}, {"time": 193560, "pitch": 54, "duration": 10, "velocity": 50}, {"time": 193680, "pitch": 54, "duration": 10, "velocity": 64}, {"time": 193800, "pitch": 54, "duration": 10, "velocity": 50}, {"time": 193920, "pitch": 40, "duration": 10, "velocity": 106}, {"time": 193920, "pitch": 53, "duration": 10, "velocity": 106}, {"time": 193920, "pitch": 54, "duration": 10, "velocity": 106}, {"time": 194040, "pitch": 54, "duration": 10, "velocity": 50}, {"time": 194160, "pitch": 54, "duration": 10, "velocity": 64}, {"time": 194280, "pitch": 54, "duration": 10, "velocity": 50}, {"time": 194400, "pitch": 36, "duration": 10, "velocity": 106}, {"time": 194400, "pitch": 53, "duration": 10, "velocity": 106}, {"time": 194400, "pitch": 54, "duration": 10, "velocity": 78}, {"time": 194520, "pitch": 54, "duration": 10, "velocity": 50}, {"time": 194640, "pitch": 36, "duration": 10, "velocity": 92}, {"time": 194640, "pitch": 54, "duration": 10, "velocity": 64}, {"time": 194760, "pitch": 54, "duration": 10, "velocity": 50}, {"time": 194880, "pitch": 40, "duration": 10, "velocity": 106}, {"time": 194880, "pitch": 53, "duration": 10, "velocity": 106}, {"time": 194880, "pitch": 54, "duration": 10, "velocity": 106}, {"time": 195000, "pitch": 54, "duration": 10, "velocity": 50}, {"time": 195120, "pitch": 54, "duration": 10, "velocity": 64}, {"time": 195240, "pitch": 54, "duration": 10, "velocity": 50}, {"time": 195360, "pitch": 36, "duration": 10, "velocity": 106}, {"time": 195360, "pitch": 53, "duration": 10, "velocity": 106}, {"time": 195360, "pitch": 54, "duration": 10, "velocity": 78}, {"time": 195480, "pitch": 54, "duration": 10, "velocity": 50}, {"time": 195600, "pitch": 54, "duration": 10, "velocity": 64}, {"time": 195720, "pitch": 54, "duration": 10, "velocity": 50}, {"time": 195840, "pitch": 40, "duration": 10, "velocity": 106}, {"time": 195840, "pitch": 53, "duration": 10, "velocity": 106}, {"time": 195840, "pitch": 54, "duration": 10, "velocity": 106}, {"time": 195960, "pitch": 54, "duration": 10, "velocity": 50}, {"time": 196080, "pitch": 54, "duration": 10, "velocity": 64}, {"time": 196200, "pitch": 54, "duration": 10, "velocity": 50}, {"time": 196320, "pitch": 36, "duration": 10, "velocity": 106}, {"time": 196320, "pitch": 53, "duration": 10, "velocity": 106}, {"time": 196320, "pitch": 54, "duration": 10, "velocity": 78}, {"time": 196440, "pitch": 54, "duration": 10, "velocity": 50}, {"time": 196560, "pitch": 36, "duration": 10, "velocity": 92}, {"time": 196560, "pitch": 54, "duration": 10, "velocity": 64}, {"time": 196680, "pitch": 54, "duration": 10, "velocity": 50}, {"time": 196800, "pitch": 40, "duration": 10, "velocity": 106}, {"time": 196800, "pitch": 53, "duration": 10, "velocity": 106}, {"time": 196800, "pitch": 54, "duration": 10, "velocity": 106}, {"time": 196920, "pitch": 54, "duration": 10, "velocity": 50}, {"time": 197040, "pitch": 54, "duration": 10, "velocity": 64}, {"time": 197160, "pitch": 54, "duration": 10, "velocity": 50}, {"time": 197280, "pitch": 36, "duration": 10, "velocity": 106}, {"time": 197280, "pitch": 53, "duration": 10, "velocity": 106}, {"time": 197280, "pitch": 54, "duration": 10, "velocity": 78}, {"time": 197400, "pitch": 54, "duration": 10, "velocity": 50}, {"time": 197520, "pitch": 54, "duration": 10, "velocity": 64}, {"time": 197640, "pitch": 54, "duration": 10, "velocity": 50}, {"time": 197760, "pitch": 40, "duration": 10, "velocity": 106}, {"time": 197760, "pitch": 53, "duration": 10, "velocity": 106}, {"time": 197760, "pitch": 54, "duration": 10, "velocity": 106}, {"time": 197880, "pitch": 54, "duration": 10, "velocity": 50}, {"time": 198000, "pitch": 54, "duration": 10, "velocity": 64}, {"time": 198120, "pitch": 54, "duration": 10, "velocity": 50}, {"time": 198240, "pitch": 36, "duration": 10, "velocity": 106}, {"time": 198240, "pitch": 53, "duration": 10, "velocity": 106}, {"time": 198240, "pitch": 54, "duration": 10, "velocity": 78}, {"time": 198360, "pitch": 54, "duration": 10, "velocity": 50}, {"time": 198480, "pitch": 36, "duration": 10, "velocity": 92}, {"time": 198480, "pitch": 54, "duration": 10, "velocity": 64}, {"time": 198600, "pitch": 54, "duration": 10, "velocity": 50}, {"time": 198720, "pitch": 40, "duration": 10, "velocity": 106}, {"time": 198720, "pitch": 53, "duration": 10, "velocity": 106}, {"time": 198720, "pitch": 54, "duration": 10, "velocity": 106}, {"time": 198840, "pitch": 54, "duration": 10, "velocity": 50}, {"time": 198960, "pitch": 40, "duration": 10, "velocity": 106}, {"time": 198960, "pitch": 54, "duration": 10, "velocity": 64}, {"time": 199080, "pitch": 40, "duration": 10, "velocity": 92}, {"time": 199080, "pitch": 54, "duration": 10, "velocity": 50}, {"time": 199200, "pitch": 36, "duration": 10, "velocity": 106}, {"time": 199200, "pitch": 49, "duration": 10, "velocity": 92}, {"time": 199200, "pitch": 54, "duration": 10, "velocity": 78}, {"time": 199320, "pitch": 54, "duration": 10, "velocity": 50}, {"time": 199440, "pitch": 54, "duration": 10, "velocity": 64}, {"time": 199560, "pitch": 36, "duration": 10, "velocity": 92}, {"time": 199560, "pitch": 54, "duration": 10, "velocity": 50}, {"time": 199560, "pitch": 57, "duration": 10, "velocity": 92}, {"time": 199680, "pitch": 40, "duration": 10, "velocity": 106}, {"time": 199680, "pitch": 54, "duration": 10, "velocity": 106}, {"time": 199800, "pitch": 54, "duration": 10, "velocity": 50}, {"time": 199920, "pitch": 36, "duration": 10, "velocity": 106}, {"time": 199920, "pitch": 49, "duration": 10, "velocity": 92}, {"time": 199920, "pitch": 54, "duration": 10, "velocity": 64}, {"time": 200040, "pitch": 54, "duration": 10, "velocity": 50}, {"time": 200160, "pitch": 36, "duration": 10, "velocity": 106}, {"time": 200160, "pitch": 46, "duration": 10, "velocity": 106}, {"time": 200160, "pitch": 54, "duration": 10, "velocity": 78}, {"time": 200220, "pitch": 54, "duration": 10, "velocity": 50}, {"time": 200280, "pitch": 54, "duration": 10, "velocity": 78}, {"time": 200340, "pitch": 54, "duration": 10, "velocity": 50}, {"time": 200400, "pitch": 46, "duration": 10, "velocity": 92}, {"time": 200400, "pitch": 54, "duration": 10, "velocity": 78}, {"time": 200460, "pitch": 54, "duration": 10, "velocity": 50}, {"time": 200520, "pitch": 54, "duration": 10, "velocity": 78}, {"time": 200580, "pitch": 54, "duration": 10, "velocity": 50}, {"time": 200640, "pitch": 40, "duration": 10, "velocity": 106}, {"time": 200640, "pitch": 46, "duration": 10, "velocity": 106}, {"time": 200640, "pitch": 54, "duration": 10, "velocity": 78}, {"time": 200700, "pitch": 54, "duration": 10, "velocity": 50}, {"time": 200760, "pitch": 54, "duration": 10, "velocity": 78}, {"time": 200820, "pitch": 54, "duration": 10, "velocity": 50}, {"time": 200880, "pitch": 36, "duration": 10, "velocity": 106}, {"time": 200880, "pitch": 46, "duration": 10, "velocity": 92}, {"time": 200880, "pitch": 54, "duration": 10, "velocity": 78}, {"time": 200940, "pitch": 54, "duration": 10, "velocity": 50}, {"time": 201000, "pitch": 54, "duration": 10, "velocity": 78}, {"time": 201060, "pitch": 54, "duration": 10, "velocity": 50}, {"time": 201120, "pitch": 36, "duration": 10, "velocity": 106}, {"time": 201120, "pitch": 40, "duration": 10, "velocity": 106}, {"time": 201120, "pitch": 46, "duration": 10, "velocity": 106}, {"time": 201120, "pitch": 54, "duration": 10, "velocity": 78}, {"time": 201140, "pitch": 40, "duration": 10, "velocity": 106}, {"time": 201180, "pitch": 54, "duration": 10, "velocity": 50}, {"time": 201240, "pitch": 54, "duration": 10, "velocity": 78}, {"time": 201300, "pitch": 54, "duration": 10, "velocity": 50}, {"time": 201360, "pitch": 40, "duration": 10, "velocity": 106}, {"time": 201360, "pitch": 54, "duration": 10, "velocity": 78}, {"time": 201420, "pitch": 54, "duration": 10, "velocity": 50}, {"time": 201480, "pitch": 40, "duration": 10, "velocity": 92}, {"time": 201480, "pitch": 54, "duration": 10, "velocity": 78}, {"time": 201540, "pitch": 54, "duration": 10, "velocity": 50}, {"time": 201600, "pitch": 36, "duration": 10, "velocity": 106}, {"time": 201600, "pitch": 54, "duration": 10, "velocity": 78}, {"time": 201660, "pitch": 54, "duration": 10, "velocity": 50}, {"time": 201720, "pitch": 40, "duration": 10, "velocity": 92}, {"time": 201720, "pitch": 54, "duration": 10, "velocity": 78}, {"time": 201780, "pitch": 54, "duration": 10, "velocity": 50}, {"time": 201840, "pitch": 36, "duration": 10, "velocity": 106}, {"time": 201840, "pitch": 40, "duration": 10, "velocity": 106}, {"time": 201840, "pitch": 54, "duration": 10, "velocity": 78}, {"time": 201900, "pitch": 54, "duration": 10, "velocity": 50}, {"time": 201960, "pitch": 40, "duration": 10, "velocity": 106}, {"time": 201960, "pitch": 54, "duration": 10, "velocity": 78}, {"time": 202020, "pitch": 54, "duration": 10, "velocity": 50}, {"time": 202080, "pitch": 36, "duration": 10, "velocity": 106}, {"time": 202080, "pitch": 40, "duration": 10, "velocity": 92}, {"time": 202080, "pitch": 54, "duration": 10, "velocity": 78}, {"time": 202140, "pitch": 54, "duration": 10, "velocity": 50}, {"time": 202200, "pitch": 54, "duration": 10, "velocity": 78}, {"time": 202260, "pitch": 54, "duration": 10, "velocity": 50}, {"time": 202320, "pitch": 36, "duration": 10, "velocity": 106}, {"time": 202320, "pitch": 40, "duration": 10, "velocity": 106}, {"time": 202320, "pitch": 54, "duration": 10, "velocity": 78}, {"time": 202380, "pitch": 54, "duration": 10, "velocity": 50}, {"time": 202440, "pitch": 54, "duration": 10, "velocity": 78}, {"time": 202500, "pitch": 54, "duration": 10, "velocity": 50}, {"time": 202560, "pitch": 36, "duration": 10, "velocity": 106}, {"time": 202560, "pitch": 40, "duration": 10, "velocity": 106}, {"time": 202560, "pitch": 54, "duration": 10, "velocity": 78}, {"time": 202620, "pitch": 54, "duration": 10, "velocity": 50}, {"time": 202680, "pitch": 54, "duration": 10, "velocity": 78}, {"time": 202740, "pitch": 54, "duration": 10, "velocity": 50}, {"time": 202800, "pitch": 36, "duration": 10, "velocity": 106}, {"time": 202800, "pitch": 41, "duration": 10, "velocity": 92}, {"time": 202800, "pitch": 54, "duration": 10, "velocity": 78}, {"time": 202860, "pitch": 54, "duration": 10, "velocity": 50}, {"time": 202920, "pitch": 54, "duration": 10, "velocity": 78}, {"time": 202980, "pitch": 54, "duration": 10, "velocity": 50}, {"time": 203040, "pitch": 36, "duration": 10, "velocity": 106}, {"time": 203040, "pitch": 49, "duration": 10, "velocity": 92}, {"time": 203040, "pitch": 54, "duration": 10, "velocity": 78}, {"time": 203160, "pitch": 54, "duration": 10, "velocity": 50}, {"time": 203280, "pitch": 46, "duration": 10, "velocity": 50}, {"time": 203280, "pitch": 54, "duration": 10, "velocity": 64}, {"time": 203400, "pitch": 36, "duration": 10, "velocity": 92}, {"time": 203400, "pitch": 54, "duration": 10, "velocity": 50}, {"time": 203520, "pitch": 40, "duration": 10, "velocity": 106}, {"time": 203520, "pitch": 46, "duration": 10, "velocity": 106}, {"time": 203520, "pitch": 54, "duration": 10, "velocity": 106}, {"time": 203640, "pitch": 54, "duration": 10, "velocity": 50}, {"time": 203760, "pitch": 46, "duration": 10, "velocity": 50}, {"time": 203760, "pitch": 54, "duration": 10, "velocity": 64}, {"time": 203880, "pitch": 54, "duration": 10, "velocity": 50}, {"time": 204000, "pitch": 36, "duration": 10, "velocity": 106}, {"time": 204000, "pitch": 46, "duration": 10, "velocity": 106}, {"time": 204000, "pitch": 54, "duration": 10, "velocity": 78}, {"time": 204120, "pitch": 54, "duration": 10, "velocity": 50}, {"time": 204240, "pitch": 46, "duration": 10, "velocity": 50}, {"time": 204240, "pitch": 54, "duration": 10, "velocity": 64}, {"time": 204360, "pitch": 36, "duration": 10, "velocity": 92}, {"time": 204360, "pitch": 54, "duration": 10, "velocity": 50}, {"time": 204480, "pitch": 40, "duration": 10, "velocity": 106}, {"time": 204480, "pitch": 46, "duration": 10, "velocity": 106}, {"time": 204480, "pitch": 54, "duration": 10, "velocity": 106}, {"time": 204600, "pitch": 54, "duration": 10, "velocity": 50}, {"time": 204720, "pitch": 46, "duration": 10, "velocity": 50}, {"time": 204720, "pitch": 54, "duration": 10, "velocity": 64}, {"time": 204840, "pitch": 54, "duration": 10, "velocity": 50}, {"time": 204960, "pitch": 36, "duration": 10, "velocity": 106}, {"time": 204960, "pitch": 46, "duration": 10, "velocity": 106}, {"time": 204960, "pitch": 54, "duration": 10, "velocity": 78}, {"time": 205080, "pitch": 54, "duration": 10, "velocity": 50}, {"time": 205200, "pitch": 46, "duration": 10, "velocity": 50}, {"time": 205200, "pitch": 54, "duration": 10, "velocity": 64}, {"time": 205320, "pitch": 36, "duration": 10, "velocity": 92}, {"time": 205320, "pitch": 54, "duration": 10, "velocity": 50}, {"time": 205440, "pitch": 40, "duration": 10, "velocity": 106}, {"time": 205440, "pitch": 46, "duration": 10, "velocity": 106}, {"time": 205440, "pitch": 54, "duration": 10, "velocity": 106}, {"time": 205560, "pitch": 54, "duration": 10, "velocity": 50}, {"time": 205680, "pitch": 46, "duration": 10, "velocity": 50}, {"time": 205680, "pitch": 54, "duration": 10, "velocity": 64}, {"time": 205800, "pitch": 54, "duration": 10, "velocity": 50}, {"time": 205920, "pitch": 36, "duration": 10, "velocity": 106}, {"time": 205920, "pitch": 46, "duration": 10, "velocity": 106}, {"time": 205920, "pitch": 54, "duration": 10, "velocity": 78}, {"time": 206040, "pitch": 54, "duration": 10, "velocity": 50}, {"time": 206160, "pitch": 36, "duration": 10, "velocity": 92}, {"time": 206160, "pitch": 46, "duration": 10, "velocity": 50}, {"time": 206160, "pitch": 54, "duration": 10, "velocity": 64}, {"time": 206280, "pitch": 54, "duration": 10, "velocity": 50}, {"time": 206400, "pitch": 40, "duration": 10, "velocity": 106}, {"time": 206400, "pitch": 46, "duration": 10, "velocity": 106}, {"time": 206400, "pitch": 54, "duration": 10, "velocity": 106}, {"time": 206520, "pitch": 54, "duration": 10, "velocity": 50}, {"time": 206640, "pitch": 46, "duration": 10, "velocity": 50}, {"time": 206640, "pitch": 54, "duration": 10, "velocity": 64}, {"time": 206760, "pitch": 54, "duration": 10, "velocity": 50}, {"time": 206820, "pitch": 40, "duration": 10, "velocity": 92}, {"time": 206880, "pitch": 40, "duration": 10, "velocity": 106}, {"time": 206880, "pitch": 54, "duration": 10, "velocity": 78}, {"time": 207000, "pitch": 54, "duration": 10, "velocity": 50}, {"time": 207120, "pitch": 46, "duration": 10, "velocity": 50}, {"time": 207120, "pitch": 54, "duration": 10, "velocity": 64}, {"time": 207240, "pitch": 36, "duration": 10, "velocity": 92}, {"time": 207240, "pitch": 54, "duration": 10, "velocity": 50}, {"time": 207360, "pitch": 40, "duration": 10, "velocity": 106}, {"time": 207360, "pitch": 46, "duration": 10, "velocity": 106}, {"time": 207360, "pitch": 49, "duration": 10, "velocity": 92}, {"time": 207360, "pitch": 54, "duration": 10, "velocity": 106}, {"time": 207480, "pitch": 54, "duration": 10, "velocity": 50}, {"time": 207600, "pitch": 46, "duration": 10, "velocity": 50}, {"time": 207600, "pitch": 54, "duration": 10, "velocity": 64}, {"time": 207720, "pitch": 54, "duration": 10, "velocity": 50}, {"time": 207840, "pitch": 36, "duration": 10, "velocity": 106}, {"time": 207840, "pitch": 46, "duration": 10, "velocity": 106}, {"time": 207840, "pitch": 54, "duration": 10, "velocity": 78}, {"time": 207960, "pitch": 54, "duration": 10, "velocity": 50}, {"time": 208080, "pitch": 46, "duration": 10, "velocity": 50}, {"time": 208080, "pitch": 54, "duration": 10, "velocity": 64}, {"time": 208200, "pitch": 36, "duration": 10, "velocity": 92}, {"time": 208200, "pitch": 54, "duration": 10, "velocity": 50}, {"time": 208320, "pitch": 40, "duration": 10, "velocity": 106}, {"time": 208320, "pitch": 46, "duration": 10, "velocity": 106}, {"time": 208320, "pitch": 54, "duration": 10, "velocity": 106}, {"time": 208440, "pitch": 54, "duration": 10, "velocity": 50}, {"time": 208560, "pitch": 46, "duration": 10, "velocity": 50}, {"time": 208560, "pitch": 54, "duration": 10, "velocity": 64}, {"time": 208680, "pitch": 54, "duration": 10, "velocity": 50}, {"time": 208800, "pitch": 36, "duration": 10, "velocity": 106}, {"time": 208800, "pitch": 46, "duration": 10, "velocity": 106}, {"time": 208800, "pitch": 54, "duration": 10, "velocity": 78}, {"time": 208920, "pitch": 54, "duration": 10, "velocity": 50}, {"time": 209040, "pitch": 46, "duration": 10, "velocity": 50}, {"time": 209040, "pitch": 54, "duration": 10, "velocity": 64}, {"time": 209160, "pitch": 36, "duration": 10, "velocity": 92}, {"time": 209160, "pitch": 54, "duration": 10, "velocity": 50}, {"time": 209280, "pitch": 40, "duration": 10, "velocity": 106}, {"time": 209280, "pitch": 46, "duration": 10, "velocity": 106}, {"time": 209280, "pitch": 54, "duration": 10, "velocity": 106}, {"time": 209400, "pitch": 54, "duration": 10, "velocity": 50}, {"time": 209520, "pitch": 46, "duration": 10, "velocity": 50}, {"time": 209520, "pitch": 54, "duration": 10, "velocity": 64}, {"time": 209640, "pitch": 54, "duration": 10, "velocity": 50}, {"time": 209760, "pitch": 36, "duration": 10, "velocity": 106}, {"time": 209760, "pitch": 40, "duration": 10, "velocity": 106}, {"time": 209760, "pitch": 46, "duration": 10, "velocity": 106}, {"time": 209760, "pitch": 54, "duration": 10, "velocity": 78}, {"time": 209880, "pitch": 54, "duration": 10, "velocity": 50}, {"time": 210000, "pitch": 40, "duration": 10, "velocity": 106}, {"time": 210000, "pitch": 54, "duration": 10, "velocity": 64}, {"time": 210120, "pitch": 54, "duration": 10, "velocity": 50}, {"time": 210240, "pitch": 36, "duration": 10, "velocity": 106}, {"time": 210240, "pitch": 40, "duration": 10, "velocity": 106}, {"time": 210240, "pitch": 54, "duration": 10, "velocity": 106}, {"time": 210360, "pitch": 54, "duration": 10, "velocity": 50}, {"time": 210480, "pitch": 40, "duration": 10, "velocity": 106}, {"time": 210480, "pitch": 54, "duration": 10, "velocity": 64}, {"time": 210600, "pitch": 40, "duration": 10, "velocity": 92}, {"time": 210600, "pitch": 54, "duration": 10, "velocity": 50}, {"time": 210720, "pitch": 36, "duration": 10, "velocity": 106}, {"time": 210720, "pitch": 54, "duration": 10, "velocity": 78}, {"time": 210720, "pitch": 57, "duration": 10, "velocity": 92}, {"time": 210840, "pitch": 54, "duration": 10, "velocity": 50}, {"time": 210960, "pitch": 54, "duration": 10, "velocity": 64}, {"time": 211080, "pitch": 36, "duration": 10, "velocity": 92}, {"time": 211080, "pitch": 54, "duration": 10, "velocity": 50}, {"time": 211200, "pitch": 40, "duration": 10, "velocity": 106}, {"time": 211200, "pitch": 46, "duration": 10, "velocity": 106}, {"time": 211200, "pitch": 54, "duration": 10, "velocity": 106}, {"time": 211320, "pitch": 54, "duration": 10, "velocity": 50}, {"time": 211440, "pitch": 46, "duration": 10, "velocity": 50}, {"time": 211440, "pitch": 54, "duration": 10, "velocity": 64}, {"time": 211560, "pitch": 54, "duration": 10, "velocity": 50}, {"time": 211680, "pitch": 36, "duration": 10, "velocity": 106}, {"time": 211680, "pitch": 46, "duration": 10, "velocity": 106}, {"time": 211680, "pitch": 54, "duration": 10, "velocity": 78}, {"time": 211800, "pitch": 54, "duration": 10, "velocity": 50}, {"time": 211920, "pitch": 46, "duration": 10, "velocity": 50}, {"time": 211920, "pitch": 54, "duration": 10, "velocity": 64}, {"time": 212040, "pitch": 36, "duration": 10, "velocity": 92}, {"time": 212040, "pitch": 54, "duration": 10, "velocity": 50}, {"time": 212160, "pitch": 40, "duration": 10, "velocity": 106}, {"time": 212160, "pitch": 46, "duration": 10, "velocity": 106}, {"time": 212160, "pitch": 54, "duration": 10, "velocity": 106}, {"time": 212280, "pitch": 54, "duration": 10, "velocity": 50}, {"time": 212400, "pitch": 46, "duration": 10, "velocity": 50}, {"time": 212400, "pitch": 54, "duration": 10, "velocity": 64}, {"time": 212520, "pitch": 54, "duration": 10, "velocity": 50}, {"time": 212640, "pitch": 36, "duration": 10, "velocity": 106}, {"time": 212640, "pitch": 46, "duration": 10, "velocity": 106}, {"time": 212640, "pitch": 54, "duration": 10, "velocity": 78}, {"time": 212760, "pitch": 54, "duration": 10, "velocity": 50}, {"time": 212880, "pitch": 46, "duration": 10, "velocity": 50}, {"time": 212880, "pitch": 54, "duration": 10, "velocity": 64}, {"time": 213000, "pitch": 36, "duration": 10, "velocity": 92}, {"time": 213000, "pitch": 54, "duration": 10, "velocity": 50}, {"time": 213120, "pitch": 40, "duration": 10, "velocity": 106}, {"time": 213120, "pitch": 46, "duration": 10, "velocity": 106}, {"time": 213120, "pitch": 54, "duration": 10, "velocity": 106}, {"time": 213240, "pitch": 54, "duration": 10, "velocity": 50}, {"time": 213360, "pitch": 46, "duration": 10, "velocity": 50}, {"time": 213360, "pitch": 54, "duration": 10, "velocity": 64}, {"time": 213480, "pitch": 54, "duration": 10, "velocity": 50}, {"time": 213600, "pitch": 36, "duration": 10, "velocity": 106}, {"time": 213600, "pitch": 40, "duration": 10, "velocity": 106}, {"time": 213600, "pitch": 54, "duration": 10, "velocity": 78}, {"time": 213720, "pitch": 54, "duration": 10, "velocity": 50}, {"time": 213840, "pitch": 40, "duration": 10, "velocity": 106}, {"time": 213840, "pitch": 54, "duration": 10, "velocity": 64}, {"time": 213960, "pitch": 40, "duration": 10, "velocity": 92}, {"time": 213960, "pitch": 54, "duration": 10, "velocity": 50}, {"time": 214080, "pitch": 36, "duration": 10, "velocity": 106}, {"time": 214080, "pitch": 40, "duration": 10, "velocity": 106}, {"time": 214080, "pitch": 54, "duration": 10, "velocity": 106}, {"time": 214200, "pitch": 40, "duration": 10, "velocity": 92}, {"time": 214200, "pitch": 54, "duration": 10, "velocity": 50}, {"time": 214320, "pitch": 40, "duration": 10, "velocity": 106}, {"time": 214320, "pitch": 54, "duration": 10, "velocity": 64}, {"time": 214440, "pitch": 40, "duration": 10, "velocity": 92}, {"time": 214440, "pitch": 54, "duration": 10, "velocity": 50}, {"time": 214560, "pitch": 40, "duration": 10, "velocity": 106}, {"time": 214560, "pitch": 54, "duration": 10, "velocity": 78}, {"time": 214680, "pitch": 40, "duration": 10, "velocity": 92}, {"time": 214680, "pitch": 54, "duration": 10, "velocity": 50}, {"time": 214800, "pitch": 54, "duration": 10, "velocity": 64}, {"time": 214920, "pitch": 36, "duration": 10, "velocity": 106}, {"time": 214920, "pitch": 54, "duration": 10, "velocity": 50}, {"time": 215040, "pitch": 40, "duration": 10, "velocity": 106}, {"time": 215040, "pitch": 54, "duration": 10, "velocity": 106}, {"time": 215040, "pitch": 57, "duration": 10, "velocity": 92}, {"time": 215160, "pitch": 54, "duration": 10, "velocity": 50}, {"time": 215280, "pitch": 46, "duration": 10, "velocity": 50}, {"time": 215280, "pitch": 54, "duration": 10, "velocity": 64}, {"time": 215400, "pitch": 54, "duration": 10, "velocity": 50}, {"time": 215520, "pitch": 36, "duration": 10, "velocity": 106}, {"time": 215520, "pitch": 46, "duration": 10, "velocity": 106}, {"time": 215520, "pitch": 54, "duration": 10, "velocity": 78}, {"time": 215640, "pitch": 54, "duration": 10, "velocity": 50}, {"time": 215760, "pitch": 46, "duration": 10, "velocity": 92}, {"time": 215760, "pitch": 54, "duration": 10, "velocity": 64}, {"time": 215880, "pitch": 36, "duration": 10, "velocity": 92}, {"time": 215880, "pitch": 54, "duration": 10, "velocity": 50}, {"time": 216000, "pitch": 40, "duration": 10, "velocity": 106}, {"time": 216000, "pitch": 46, "duration": 10, "velocity": 106}, {"time": 216000, "pitch": 54, "duration": 10, "velocity": 106}, {"time": 216120, "pitch": 54, "duration": 10, "velocity": 50}, {"time": 216240, "pitch": 46, "duration": 10, "velocity": 92}, {"time": 216240, "pitch": 54, "duration": 10, "velocity": 64}, {"time": 216360, "pitch": 54, "duration": 10, "velocity": 50}, {"time": 216480, "pitch": 36, "duration": 10, "velocity": 106}, {"time": 216480, "pitch": 46, "duration": 10, "velocity": 106}, {"time": 216480, "pitch": 54, "duration": 10, "velocity": 64}, {"time": 216540, "pitch": 54, "duration": 10, "velocity": 50}, {"time": 216600, "pitch": 54, "duration": 10, "velocity": 64}, {"time": 216660, "pitch": 54, "duration": 10, "velocity": 50}, {"time": 216720, "pitch": 40, "duration": 10, "velocity": 106}, {"time": 216720, "pitch": 54, "duration": 10, "velocity": 64}, {"time": 216780, "pitch": 54, "duration": 10, "velocity": 50}, {"time": 216840, "pitch": 54, "duration": 10, "velocity": 64}, {"time": 216900, "pitch": 54, "duration": 10, "velocity": 50}, {"time": 216960, "pitch": 36, "duration": 10, "velocity": 106}, {"time": 216960, "pitch": 40, "duration": 10, "velocity": 106}, {"time": 216960, "pitch": 54, "duration": 10, "velocity": 64}, {"time": 217020, "pitch": 54, "duration": 10, "velocity": 50}, {"time": 217080, "pitch": 54, "duration": 10, "velocity": 64}, {"time": 217140, "pitch": 54, "duration": 10, "velocity": 50}, {"time": 217200, "pitch": 36, "duration": 10, "velocity": 106}, {"time": 217200, "pitch": 40, "duration": 10, "velocity": 106}, {"time": 217200, "pitch": 54, "duration": 10, "velocity": 64}, {"time": 217260, "pitch": 54, "duration": 10, "velocity": 50}, {"time": 217320, "pitch": 40, "duration": 10, "velocity": 92}, {"time": 217320, "pitch": 54, "duration": 10, "velocity": 64}, {"time": 217380, "pitch": 54, "duration": 10, "velocity": 50}, {"time": 217440, "pitch": 36, "duration": 10, "velocity": 106}, {"time": 217440, "pitch": 40, "duration": 10, "velocity": 92}, {"time": 217440, "pitch": 54, "duration": 10, "velocity": 64}, {"time": 217500, "pitch": 54, "duration": 10, "velocity": 50}, {"time": 217560, "pitch": 40, "duration": 10, "velocity": 106}, {"time": 217560, "pitch": 54, "duration": 10, "velocity": 64}, {"time": 217620, "pitch": 54, "duration": 10, "velocity": 50}, {"time": 217680, "pitch": 36, "duration": 10, "velocity": 106}, {"time": 217680, "pitch": 54, "duration": 10, "velocity": 64}, {"time": 217740, "pitch": 54, "duration": 10, "velocity": 50}, {"time": 217800, "pitch": 40, "duration": 10, "velocity": 106}, {"time": 217800, "pitch": 54, "duration": 10, "velocity": 64}, {"time": 217860, "pitch": 54, "duration": 10, "velocity": 50}, {"time": 217920, "pitch": 36, "duration": 10, "velocity": 106}, {"time": 217920, "pitch": 40, "duration": 10, "velocity": 106}, {"time": 217920, "pitch": 54, "duration": 10, "velocity": 64}, {"time": 217980, "pitch": 54, "duration": 10, "velocity": 50}, {"time": 218040, "pitch": 54, "duration": 10, "velocity": 64}, {"time": 218100, "pitch": 54, "duration": 10, "velocity": 50}, {"time": 218160, "pitch": 36, "duration": 10, "velocity": 106}, {"time": 218160, "pitch": 41, "duration": 10, "velocity": 106}, {"time": 218160, "pitch": 54, "duration": 10, "velocity": 64}, {"time": 218220, "pitch": 54, "duration": 10, "velocity": 50}, {"time": 218280, "pitch": 54, "duration": 10, "velocity": 64}, {"time": 218340, "pitch": 54, "duration": 10, "velocity": 50}, {"time": 218400, "pitch": 36, "duration": 10, "velocity": 106}, {"time": 218400, "pitch": 49, "duration": 10, "velocity": 92}, {"time": 218400, "pitch": 54, "duration": 10, "velocity": 78}, {"time": 218520, "pitch": 54, "duration": 10, "velocity": 50}, {"time": 218640, "pitch": 46, "duration": 10, "velocity": 50}, {"time": 218640, "pitch": 54, "duration": 10, "velocity": 64}, {"time": 218760, "pitch": 36, "duration": 10, "velocity": 92}, {"time": 218760, "pitch": 54, "duration": 10, "velocity": 50}, {"time": 218880, "pitch": 40, "duration": 10, "velocity": 106}, {"time": 218880, "pitch": 46, "duration": 10, "velocity": 106}, {"time": 218880, "pitch": 54, "duration": 10, "velocity": 106}, {"time": 219000, "pitch": 54, "duration": 10, "velocity": 50}, {"time": 219120, "pitch": 46, "duration": 10, "velocity": 50}, {"time": 219120, "pitch": 54, "duration": 10, "velocity": 64}, {"time": 219240, "pitch": 54, "duration": 10, "velocity": 50}, {"time": 219360, "pitch": 36, "duration": 10, "velocity": 106}, {"time": 219360, "pitch": 46, "duration": 10, "velocity": 106}, {"time": 219360, "pitch": 54, "duration": 10, "velocity": 78}, {"time": 219480, "pitch": 54, "duration": 10, "velocity": 50}, {"time": 219600, "pitch": 46, "duration": 10, "velocity": 50}, {"time": 219600, "pitch": 54, "duration": 10, "velocity": 64}, {"time": 219720, "pitch": 36, "duration": 10, "velocity": 92}, {"time": 219720, "pitch": 54, "duration": 10, "velocity": 50}, {"time": 219840, "pitch": 40, "duration": 10, "velocity": 106}, {"time": 219840, "pitch": 46, "duration": 10, "velocity": 106}, {"time": 219840, "pitch": 54, "duration": 10, "velocity": 106}, {"time": 219960, "pitch": 54, "duration": 10, "velocity": 50}, {"time": 220080, "pitch": 36, "duration": 10, "velocity": 106}, {"time": 220080, "pitch": 46, "duration": 10, "velocity": 50}, {"time": 220080, "pitch": 54, "duration": 10, "velocity": 64}, {"time": 220200, "pitch": 54, "duration": 10, "velocity": 50}, {"time": 220320, "pitch": 36, "duration": 10, "velocity": 106}, {"time": 220320, "pitch": 46, "duration": 10, "velocity": 106}, {"time": 220320, "pitch": 54, "duration": 10, "velocity": 78}, {"time": 220440, "pitch": 54, "duration": 10, "velocity": 50}, {"time": 220560, "pitch": 46, "duration": 10, "velocity": 50}, {"time": 220560, "pitch": 54, "duration": 10, "velocity": 64}, {"time": 220680, "pitch": 36, "duration": 10, "velocity": 92}, {"time": 220680, "pitch": 54, "duration": 10, "velocity": 50}, {"time": 220800, "pitch": 40, "duration": 10, "velocity": 106}, {"time": 220800, "pitch": 46, "duration": 10, "velocity": 106}, {"time": 220800, "pitch": 54, "duration": 10, "velocity": 106}, {"time": 220920, "pitch": 54, "duration": 10, "velocity": 50}, {"time": 221040, "pitch": 46, "duration": 10, "velocity": 50}, {"time": 221040, "pitch": 54, "duration": 10, "velocity": 64}, {"time": 221160, "pitch": 54, "duration": 10, "velocity": 50}, {"time": 221280, "pitch": 36, "duration": 10, "velocity": 106}, {"time": 221280, "pitch": 46, "duration": 10, "velocity": 106}, {"time": 221280, "pitch": 54, "duration": 10, "velocity": 78}, {"time": 221400, "pitch": 54, "duration": 10, "velocity": 50}, {"time": 221520, "pitch": 46, "duration": 10, "velocity": 50}, {"time": 221520, "pitch": 54, "duration": 10, "velocity": 64}, {"time": 221640, "pitch": 36, "duration": 10, "velocity": 92}, {"time": 221640, "pitch": 54, "duration": 10, "velocity": 50}, {"time": 221760, "pitch": 40, "duration": 10, "velocity": 106}, {"time": 221760, "pitch": 46, "duration": 10, "velocity": 106}, {"time": 221760, "pitch": 54, "duration": 10, "velocity": 106}, {"time": 221880, "pitch": 54, "duration": 10, "velocity": 50}, {"time": 222000, "pitch": 36, "duration": 10, "velocity": 106}, {"time": 222000, "pitch": 46, "duration": 10, "velocity": 50}, {"time": 222000, "pitch": 54, "duration": 10, "velocity": 64}, {"time": 222120, "pitch": 54, "duration": 10, "velocity": 50}, {"time": 222240, "pitch": 36, "duration": 10, "velocity": 106}, {"time": 222240, "pitch": 46, "duration": 10, "velocity": 106}, {"time": 222240, "pitch": 54, "duration": 10, "velocity": 78}, {"time": 222360, "pitch": 54, "duration": 10, "velocity": 50}, {"time": 222480, "pitch": 46, "duration": 10, "velocity": 50}, {"time": 222480, "pitch": 54, "duration": 10, "velocity": 64}, {"time": 222600, "pitch": 36, "duration": 10, "velocity": 92}, {"time": 222600, "pitch": 54, "duration": 10, "velocity": 50}, {"time": 222720, "pitch": 40, "duration": 10, "velocity": 106}, {"time": 222720, "pitch": 46, "duration": 10, "velocity": 106}, {"time": 222720, "pitch": 54, "duration": 10, "velocity": 106}, {"time": 222840, "pitch": 54, "duration": 10, "velocity": 50}, {"time": 222960, "pitch": 46, "duration": 10, "velocity": 50}, {"time": 222960, "pitch": 54, "duration": 10, "velocity": 64}, {"time": 223080, "pitch": 54, "duration": 10, "velocity": 50}, {"time": 223200, "pitch": 36, "duration": 10, "velocity": 106}, {"time": 223200, "pitch": 46, "duration": 10, "velocity": 106}, {"time": 223200, "pitch": 54, "duration": 10, "velocity": 78}, {"time": 223320, "pitch": 54, "duration": 10, "velocity": 50}, {"time": 223440, "pitch": 46, "duration": 10, "velocity": 50}, {"time": 223440, "pitch": 54, "duration": 10, "velocity": 64}, {"time": 223560, "pitch": 36, "duration": 10, "velocity": 92}, {"time": 223560, "pitch": 54, "duration": 10, "velocity": 50}, {"time": 223680, "pitch": 40, "duration": 10, "velocity": 106}, {"time": 223680, "pitch": 46, "duration": 10, "velocity": 106}, {"time": 223680, "pitch": 54, "duration": 10, "velocity": 106}, {"time": 223800, "pitch": 54, "duration": 10, "velocity": 50}, {"time": 223920, "pitch": 36, "duration": 10, "velocity": 106}, {"time": 223920, "pitch": 46, "duration": 10, "velocity": 50}, {"time": 223920, "pitch": 54, "duration": 10, "velocity": 64}, {"time": 224040, "pitch": 54, "duration": 10, "velocity": 50}, {"time": 224160, "pitch": 36, "duration": 10, "velocity": 106}, {"time": 224160, "pitch": 46, "duration": 10, "velocity": 106}, {"time": 224160, "pitch": 54, "duration": 10, "velocity": 78}, {"time": 224280, "pitch": 54, "duration": 10, "velocity": 50}, {"time": 224400, "pitch": 46, "duration": 10, "velocity": 50}, {"time": 224400, "pitch": 54, "duration": 10, "velocity": 64}, {"time": 224520, "pitch": 36, "duration": 10, "velocity": 92}, {"time": 224520, "pitch": 54, "duration": 10, "velocity": 50}, {"time": 224640, "pitch": 40, "duration": 10, "velocity": 106}, {"time": 224640, "pitch": 46, "duration": 10, "velocity": 106}, {"time": 224640, "pitch": 54, "duration": 10, "velocity": 106}, {"time": 224760, "pitch": 54, "duration": 10, "velocity": 50}, {"time": 224880, "pitch": 46, "duration": 10, "velocity": 50}, {"time": 224880, "pitch": 54, "duration": 10, "velocity": 64}, {"time": 225000, "pitch": 54, "duration": 10, "velocity": 50}, {"time": 225120, "pitch": 36, "duration": 10, "velocity": 106}, {"time": 225120, "pitch": 46, "duration": 10, "velocity": 106}, {"time": 225120, "pitch": 54, "duration": 10, "velocity": 78}, {"time": 225240, "pitch": 54, "duration": 10, "velocity": 50}, {"time": 225360, "pitch": 46, "duration": 10, "velocity": 50}, {"time": 225360, "pitch": 54, "duration": 10, "velocity": 64}, {"time": 225480, "pitch": 36, "duration": 10, "velocity": 92}, {"time": 225480, "pitch": 54, "duration": 10, "velocity": 50}, {"time": 225600, "pitch": 40, "duration": 10, "velocity": 106}, {"time": 225600, "pitch": 46, "duration": 10, "velocity": 106}, {"time": 225600, "pitch": 54, "duration": 10, "velocity": 106}, {"time": 225720, "pitch": 54, "duration": 10, "velocity": 50}, {"time": 225840, "pitch": 36, "duration": 10, "velocity": 106}, {"time": 225840, "pitch": 46, "duration": 10, "velocity": 50}, {"time": 225840, "pitch": 54, "duration": 10, "velocity": 64}, {"time": 225960, "pitch": 40, "duration": 10, "velocity": 92}, {"time": 225960, "pitch": 54, "duration": 10, "velocity": 50}, {"time": 226080, "pitch": 36, "duration": 10, "velocity": 106}, {"time": 226080, "pitch": 46, "duration": 10, "velocity": 106}, {"time": 226080, "pitch": 54, "duration": 10, "velocity": 78}, {"time": 226200, "pitch": 54, "duration": 10, "velocity": 50}, {"time": 226320, "pitch": 46, "duration": 10, "velocity": 50}, {"time": 226320, "pitch": 54, "duration": 10, "velocity": 64}, {"time": 226440, "pitch": 36, "duration": 10, "velocity": 92}, {"time": 226440, "pitch": 54, "duration": 10, "velocity": 50}, {"time": 226560, "pitch": 40, "duration": 10, "velocity": 106}, {"time": 226560, "pitch": 46, "duration": 10, "velocity": 106}, {"time": 226560, "pitch": 54, "duration": 10, "velocity": 106}, {"time": 226675, "pitch": 54, "duration": 10, "velocity": 50}, {"time": 226791, "pitch": 46, "duration": 9, "velocity": 50}, {"time": 226791, "pitch": 54, "duration": 9, "velocity": 64}, {"time": 226906, "pitch": 54, "duration": 9, "velocity": 50}, {"time": 227021, "pitch": 36, "duration": 10, "velocity": 106}, {"time": 227021, "pitch": 46, "duration": 10, "velocity": 106}, {"time": 227021, "pitch": 54, "duration": 10, "velocity": 78}, {"time": 227140, "pitch": 54, "duration": 10, "velocity": 50}, {"time": 227260, "pitch": 46, "duration": 10, "velocity": 50}, {"time": 227260, "pitch": 54, "duration": 10, "velocity": 64}, {"time": 227380, "pitch": 36, "duration": 10, "velocity": 92}, {"time": 227380, "pitch": 54, "duration": 10, "velocity": 50}, {"time": 227500, "pitch": 40, "duration": 10, "velocity": 106}, {"time": 227500, "pitch": 46, "duration": 10, "velocity": 106}, {"time": 227500, "pitch": 54, "duration": 10, "velocity": 106}, {"time": 227620, "pitch": 54, "duration": 10, "velocity": 50}, {"time": 227740, "pitch": 36, "duration": 10, "velocity": 106}, {"time": 227740, "pitch": 46, "duration": 10, "velocity": 50}, {"time": 227740, "pitch": 54, "duration": 10, "velocity": 64}, {"time": 227860, "pitch": 54, "duration": 10, "velocity": 50}, {"time": 227980, "pitch": 36, "duration": 11, "velocity": 106}, {"time": 227980, "pitch": 46, "duration": 11, "velocity": 106}, {"time": 227980, "pitch": 54, "duration": 11, "velocity": 78}, {"time": 228105, "pitch": 54, "duration": 10, "velocity": 50}, {"time": 228230, "pitch": 46, "duration": 10, "velocity": 50}, {"time": 228230, "pitch": 54, "duration": 10, "velocity": 64}, {"time": 228355, "pitch": 36, "duration": 10, "velocity": 92}, {"time": 228355, "pitch": 54, "duration": 10, "velocity": 50}, {"time": 228480, "pitch": 40, "duration": 10, "velocity": 106}, {"time": 228480, "pitch": 46, "duration": 10, "velocity": 106}, {"time": 228480, "pitch": 54, "duration": 10, "velocity": 106}, {"time": 228600, "pitch": 54, "duration": 10, "velocity": 50}, {"time": 228720, "pitch": 46, "duration": 10, "velocity": 50}, {"time": 228720, "pitch": 54, "duration": 10, "velocity": 64}, {"time": 228840, "pitch": 54, "duration": 10, "velocity": 50}, {"time": 228960, "pitch": 36, "duration": 10, "velocity": 106}, {"time": 228960, "pitch": 46, "duration": 10, "velocity": 106}, {"time": 228960, "pitch": 54, "duration": 10, "velocity": 78}, {"time": 229080, "pitch": 54, "duration": 10, "velocity": 50}, {"time": 229200, "pitch": 46, "duration": 10, "velocity": 50}, {"time": 229200, "pitch": 54, "duration": 10, "velocity": 64}, {"time": 229320, "pitch": 36, "duration": 10, "velocity": 92}, {"time": 229320, "pitch": 54, "duration": 10, "velocity": 50}, {"time": 229440, "pitch": 40, "duration": 10, "velocity": 106}, {"time": 229440, "pitch": 46, "duration": 10, "velocity": 106}, {"time": 229440, "pitch": 54, "duration": 10, "velocity": 106}, {"time": 229560, "pitch": 54, "duration": 10, "velocity": 50}, {"time": 229680, "pitch": 36, "duration": 10, "velocity": 106}, {"time": 229680, "pitch": 46, "duration": 10, "velocity": 50}, {"time": 229680, "pitch": 54, "duration": 10, "velocity": 64}, {"time": 229800, "pitch": 54, "duration": 10, "velocity": 50}, {"time": 229920, "pitch": 36, "duration": 10, "velocity": 106}, {"time": 229920, "pitch": 46, "duration": 10, "velocity": 106}, {"time": 229920, "pitch": 54, "duration": 10, "velocity": 78}, {"time": 230040, "pitch": 54, "duration": 10, "velocity": 50}, {"time": 230160, "pitch": 46, "duration": 10, "velocity": 50}, {"time": 230160, "pitch": 54, "duration": 10, "velocity": 64}, {"time": 230280, "pitch": 36, "duration": 10, "velocity": 92}, {"time": 230280, "pitch": 54, "duration": 10, "velocity": 50}, {"time": 230400, "pitch": 40, "duration": 10, "velocity": 106}, {"time": 230400, "pitch": 46, "duration": 10, "velocity": 106}, {"time": 230400, "pitch": 54, "duration": 10, "velocity": 106}, {"time": 230520, "pitch": 54, "duration": 10, "velocity": 50}, {"time": 230640, "pitch": 46, "duration": 10, "velocity": 50}, {"time": 230640, "pitch": 54, "duration": 10, "velocity": 64}, {"time": 230760, "pitch": 54, "duration": 10, "velocity": 50}, {"time": 230880, "pitch": 36, "duration": 10, "velocity": 106}, {"time": 230880, "pitch": 46, "duration": 10, "velocity": 106}, {"time": 230880, "pitch": 54, "duration": 10, "velocity": 78}, {"time": 231000, "pitch": 54, "duration": 10, "velocity": 50}, {"time": 231120, "pitch": 46, "duration": 10, "velocity": 50}, {"time": 231120, "pitch": 54, "duration": 10, "velocity": 64}, {"time": 231240, "pitch": 36, "duration": 10, "velocity": 92}, {"time": 231240, "pitch": 54, "duration": 10, "velocity": 50}, {"time": 231360, "pitch": 40, "duration": 10, "velocity": 106}, {"time": 231360, "pitch": 46, "duration": 10, "velocity": 106}, {"time": 231360, "pitch": 54, "duration": 10, "velocity": 106}, {"time": 231480, "pitch": 54, "duration": 10, "velocity": 50}, {"time": 231600, "pitch": 36, "duration": 10, "velocity": 106}, {"time": 231600, "pitch": 46, "duration": 10, "velocity": 50}, {"time": 231600, "pitch": 54, "duration": 10, "velocity": 64}, {"time": 231720, "pitch": 54, "duration": 10, "velocity": 50}, {"time": 231840, "pitch": 36, "duration": 10, "velocity": 106}, {"time": 231840, "pitch": 46, "duration": 10, "velocity": 106}, {"time": 231840, "pitch": 54, "duration": 10, "velocity": 78}, {"time": 231958, "pitch": 54, "duration": 9, "velocity": 50}, {"time": 232075, "pitch": 46, "duration": 10, "velocity": 50}, {"time": 232075, "pitch": 54, "duration": 10, "velocity": 64}, {"time": 232193, "pitch": 36, "duration": 10, "velocity": 92}, {"time": 232193, "pitch": 54, "duration": 10, "velocity": 50}, {"time": 232311, "pitch": 40, "duration": 9, "velocity": 106}, {"time": 232311, "pitch": 46, "duration": 9, "velocity": 106}, {"time": 232311, "pitch": 54, "duration": 9, "velocity": 106}, {"time": 232428, "pitch": 54, "duration": 10, "velocity": 50}, {"time": 232546, "pitch": 46, "duration": 10, "velocity": 50}, {"time": 232546, "pitch": 54, "duration": 10, "velocity": 64}, {"time": 232664, "pitch": 54, "duration": 9, "velocity": 50}, {"time": 232781, "pitch": 36, "duration": 10, "velocity": 106}, {"time": 232781, "pitch": 46, "duration": 10, "velocity": 106}, {"time": 232781, "pitch": 54, "duration": 10, "velocity": 78}, {"time": 232899, "pitch": 54, "duration": 10, "velocity": 50}, {"time": 233016, "pitch": 46, "duration": 10, "velocity": 50}, {"time": 233016, "pitch": 54, "duration": 10, "velocity": 64}, {"time": 233134, "pitch": 36, "duration": 10, "velocity": 92}, {"time": 233134, "pitch": 54, "duration": 10, "velocity": 50}, {"time": 233252, "pitch": 40, "duration": 10, "velocity": 106}, {"time": 233252, "pitch": 46, "duration": 10, "velocity": 106}, {"time": 233252, "pitch": 54, "duration": 10, "velocity": 106}, {"time": 233369, "pitch": 54, "duration": 10, "velocity": 50}, {"time": 233487, "pitch": 36, "duration": 10, "velocity": 106}, {"time": 233487, "pitch": 46, "duration": 10, "velocity": 50}, {"time": 233487, "pitch": 54, "duration": 10, "velocity": 64}, {"time": 233605, "pitch": 54, "duration": 10, "velocity": 50}, {"time": 63840, "pitch": 65, "duration": 960, "velocity": 100}, {"time": 64080, "pitch": 64, "duration": 2620, "velocity": 105}, {"time": 64320, "pitch": 60, "duration": 2380, "velocity": 110}, {"time": 64560, "pitch": 57, "duration": 2140, "velocity": 105}, {"time": 64800, "pitch": 65, "duration": 1900, "velocity": 100}, {"time": 120480, "pitch": 65, "duration": 960, "velocity": 100}, {"time": 120720, "pitch": 64, "duration": 2620, "velocity": 105}, {"time": 120960, "pitch": 60, "duration": 2380, "velocity": 110}, {"time": 121200, "pitch": 57, "duration": 2140, "velocity": 105}, {"time": 121440, "pitch": 65, "duration": 1900, "velocity": 100}]}]}