{"metadata": {"schema_version": "0.1", "title": "RWC-MDB-P-2001 No. 64: So Long / Kousuke Morimoto", "copyright": "RWC Music Database. Copyright (C) 2001 Real World Computing Partnership (contact: Masataka GOTO <m.goto@aist.go.jp>)", "source_filename": "RM-P064.SMF_SYNC.MID", "source_format": "midi"}, "resolution": 480, "tempos": [{"time": 0, "qpm": 58.8235294117647}, {"time": 480, "qpm": 260.8695652173913}, {"time": 960, "qpm": 200.0}, {"time": 1440, "qpm": 206.89655172413794}, {"time": 1920, "qpm": 193.5483870967742}, {"time": 2400, "qpm": 100.0}, {"time": 225120, "qpm": 120.0}, {"time": 225600, "qpm": 117.6470588235294}, {"time": 226080, "qpm": 72.28915662650603}, {"time": 227520, "qpm": 71.42857142857143}, {"time": 228000, "qpm": 65.21739130434783}, {"time": 228960, "qpm": 64.51612903225806}, {"time": 229440, "qpm": 65.21739130434783}], "key_signatures": [{"time": 0, "root": 0, "mode": "major"}], "time_signatures": [{"time": 0, "numerator": 5, "denominator": 4}, {"time": 2400, "numerator": 4, "denominator": 4}, {"time": 225120, "numerator": 2, "denominator": 4}, {"time": 226080, "numerator": 4, "denominator": 4}], "tracks": [{"program": 0, "is_drum": false, "name": "Piano", "notes": [{"time": 2400, "pitch": 48, "duration": 960, "velocity": 100}, {"time": 2400, "pitch": 64, "duration": 960, "velocity": 100}, {"time": 2400, "pitch": 67, "duration": 960, "velocity": 100}, {"time": 2400, "pitch": 72, "duration": 960, "velocity": 100}, {"time": 3360, "pitch": 47, "duration": 1200, "velocity": 100}, {"time": 3360, "pitch": 62, "duration": 1200, "velocity": 100}, {"time": 3360, "pitch": 67, "duration": 1200, "velocity": 100}, {"time": 3360, "pitch": 71, "duration": 1200, "velocity": 100}, {"time": 4560, "pitch": 45, "duration": 720, "velocity": 100}, {"time": 4560, "pitch": 60, "duration": 720, "velocity": 100}, {"time": 4560, "pitch": 64, "duration": 720, "velocity": 100}, {"time": 4560, "pitch": 69, "duration": 720, "velocity": 100}, {"time": 5280, "pitch": 43, "duration": 1200, "velocity": 100}, {"time": 5280, "pitch": 59, "duration": 1200, "velocity": 100}, {"time": 5280, "pitch": 64, "duration": 1200, "velocity": 100}, {"time": 5280, "pitch": 67, "duration": 1200, "velocity": 100}, {"time": 6480, "pitch": 41, "duration": 720, "velocity": 100}, {"time": 6480, "pitch": 57, "duration": 720, "velocity": 100}, {"time": 6480, "pitch": 60, "duration": 720, "velocity": 100}, {"time": 6480, "pitch": 65, "duration": 720, "velocity": 100}, {"time": 7200, "pitch": 40, "duration": 1200, "velocity": 100}, {"time": 7200, "pitch": 55, "duration": 1200, "velocity": 100}, {"time": 7200, "pitch": 60, "duration": 1200, "velocity": 100}, {"time": 7200, "pitch": 64, "duration": 1200, "velocity": 100}, {"time": 8400, "pitch": 38, "duration": 720, "velocity": 100}, {"time": 8400, "pitch": 53, "duration": 720, "velocity": 100}, {"time": 8400, "pitch": 57, "duration": 720, "velocity": 100}, {"time": 8400, "pitch": 62, "duration": 720, "velocity": 100}, {"time": 9120, "pitch": 43, "duration": 3120, "velocity": 100}, {"time": 9120, "pitch": 53, "duration": 3120, "velocity": 100}, {"time": 9120, "pitch": 60, "duration": 3120, "velocity": 100}, {"time": 9120, "pitch": 67, "duration": 3120, "velocity": 100}, {"time": 12240, "pitch": 48, "duration": 720, "velocity": 100}, {"time": 12240, "pitch": 60, "duration": 720, "velocity": 100}, {"time": 12240, "pitch": 64, "duration": 720, "velocity": 100}, {"time": 12240, "pitch": 67, "duration": 720, "velocity": 100}, {"time": 12960, "pitch": 48, "duration": 1200, "velocity": 100}, {"time": 12960, "pitch": 60, "duration": 1200, "velocity": 100}, {"time": 12960, "pitch": 64, "duration": 1200, "velocity": 100}, {"time": 12960, "pitch": 67, "duration": 1200, "velocity": 100}, {"time": 14160, "pitch": 52, "duration": 720, "velocity": 100}, {"time": 14160, "pitch": 62, "duration": 720, "velocity": 100}, {"time": 14160, "pitch": 65, "duration": 720, "velocity": 100}, {"time": 14160, "pitch": 68, "duration": 720, "velocity": 100}, {"time": 14880, "pitch": 52, "duration": 1200, "velocity": 100}, {"time": 14880, "pitch": 62, "duration": 1200, "velocity": 100}, {"time": 14880, "pitch": 65, "duration": 1200, "velocity": 100}, {"time": 14880, "pitch": 68, "duration": 1200, "velocity": 100}, {"time": 16080, "pitch": 45, "duration": 720, "velocity": 100}, {"time": 16080, "pitch": 55, "duration": 720, "velocity": 100}, {"time": 16080, "pitch": 60, "duration": 720, "velocity": 100}, {"time": 16080, "pitch": 64, "duration": 720, "velocity": 100}, {"time": 16800, "pitch": 45, "duration": 1200, "velocity": 100}, {"time": 16800, "pitch": 55, "duration": 1200, "velocity": 100}, {"time": 16800, "pitch": 60, "duration": 1200, "velocity": 100}, {"time": 16800, "pitch": 64, "duration": 1200, "velocity": 100}, {"time": 18000, "pitch": 48, "duration": 720, "velocity": 100}, {"time": 18000, "pitch": 58, "duration": 720, "velocity": 100}, {"time": 18000, "pitch": 60, "duration": 720, "velocity": 100}, {"time": 18000, "pitch": 64, "duration": 720, "velocity": 100}, {"time": 18000, "pitch": 67, "duration": 720, "velocity": 100}, {"time": 18720, "pitch": 48, "duration": 1200, "velocity": 100}, {"time": 18720, "pitch": 58, "duration": 1200, "velocity": 100}, {"time": 18720, "pitch": 60, "duration": 1200, "velocity": 100}, {"time": 18720, "pitch": 64, "duration": 1200, "velocity": 100}, {"time": 18720, "pitch": 67, "duration": 1200, "velocity": 100}, {"time": 19920, "pitch": 41, "duration": 720, "velocity": 100}, {"time": 19920, "pitch": 57, "duration": 720, "velocity": 100}, {"time": 19920, "pitch": 60, "duration": 720, "velocity": 100}, {"time": 19920, "pitch": 65, "duration": 720, "velocity": 100}, {"time": 20640, "pitch": 41, "duration": 1200, "velocity": 100}, {"time": 20640, "pitch": 57, "duration": 1200, "velocity": 100}, {"time": 20640, "pitch": 60, "duration": 1200, "velocity": 100}, {"time": 20640, "pitch": 65, "duration": 1200, "velocity": 100}, {"time": 21840, "pitch": 40, "duration": 720, "velocity": 100}, {"time": 21840, "pitch": 55, "duration": 720, "velocity": 100}, {"time": 21840, "pitch": 59, "duration": 720, "velocity": 100}, {"time": 21840, "pitch": 62, "duration": 720, "velocity": 100}, {"time": 22560, "pitch": 45, "duration": 1200, "velocity": 100}, {"time": 22560, "pitch": 55, "duration": 1200, "velocity": 100}, {"time": 22560, "pitch": 60, "duration": 1200, "velocity": 100}, {"time": 22560, "pitch": 64, "duration": 1200, "velocity": 100}, {"time": 23760, "pitch": 38, "duration": 720, "velocity": 100}, {"time": 23760, "pitch": 53, "duration": 720, "velocity": 100}, {"time": 23760, "pitch": 57, "duration": 720, "velocity": 100}, {"time": 23760, "pitch": 60, "duration": 720, "velocity": 100}, {"time": 23760, "pitch": 64, "duration": 720, "velocity": 100}, {"time": 24480, "pitch": 38, "duration": 1200, "velocity": 100}, {"time": 24480, "pitch": 53, "duration": 1200, "velocity": 100}, {"time": 24480, "pitch": 57, "duration": 1200, "velocity": 100}, {"time": 24480, "pitch": 60, "duration": 1200, "velocity": 100}, {"time": 24480, "pitch": 62, "duration": 1200, "velocity": 100}, {"time": 25680, "pitch": 43, "duration": 720, "velocity": 100}, {"time": 25680, "pitch": 55, "duration": 720, "velocity": 100}, {"time": 25680, "pitch": 60, "duration": 720, "velocity": 100}, {"time": 25680, "pitch": 62, "duration": 720, "velocity": 100}, {"time": 25680, "pitch": 67, "duration": 720, "velocity": 100}, {"time": 26400, "pitch": 43, "duration": 1200, "velocity": 100}, {"time": 26400, "pitch": 55, "duration": 1200, "velocity": 100}, {"time": 26400, "pitch": 59, "duration": 1200, "velocity": 100}, {"time": 26400, "pitch": 62, "duration": 1200, "velocity": 100}, {"time": 26400, "pitch": 67, "duration": 1200, "velocity": 100}, {"time": 27600, "pitch": 48, "duration": 720, "velocity": 100}, {"time": 27600, "pitch": 60, "duration": 720, "velocity": 100}, {"time": 27600, "pitch": 64, "duration": 720, "velocity": 100}, {"time": 27600, "pitch": 67, "duration": 720, "velocity": 100}, {"time": 28320, "pitch": 48, "duration": 1200, "velocity": 100}, {"time": 28320, "pitch": 60, "duration": 1200, "velocity": 100}, {"time": 28320, "pitch": 64, "duration": 1200, "velocity": 100}, {"time": 28320, "pitch": 67, "duration": 1200, "velocity": 100}, {"time": 29520, "pitch": 52, "duration": 720, "velocity": 100}, {"time": 29520, "pitch": 62, "duration": 720, "velocity": 100}, {"time": 29520, "pitch": 65, "duration": 720, "velocity": 100}, {"time": 29520, "pitch": 68, "duration": 720, "velocity": 100}, {"time": 30240, "pitch": 52, "duration": 1200, "velocity": 100}, {"time": 30240, "pitch": 62, "duration": 1200, "velocity": 100}, {"time": 30240, "pitch": 65, "duration": 1200, "velocity": 100}, {"time": 30240, "pitch": 68, "duration": 1200, "velocity": 100}, {"time": 31440, "pitch": 45, "duration": 720, "velocity": 100}, {"time": 31440, "pitch": 55, "duration": 720, "velocity": 100}, {"time": 31440, "pitch": 60, "duration": 720, "velocity": 100}, {"time": 31440, "pitch": 64, "duration": 720, "velocity": 100}, {"time": 32160, "pitch": 45, "duration": 1200, "velocity": 100}, {"time": 32160, "pitch": 55, "duration": 1200, "velocity": 100}, {"time": 32160, "pitch": 60, "duration": 1200, "velocity": 100}, {"time": 32160, "pitch": 64, "duration": 1200, "velocity": 100}, {"time": 33360, "pitch": 48, "duration": 720, "velocity": 100}, {"time": 33360, "pitch": 58, "duration": 720, "velocity": 100}, {"time": 33360, "pitch": 60, "duration": 720, "velocity": 100}, {"time": 33360, "pitch": 64, "duration": 720, "velocity": 100}, {"time": 33360, "pitch": 67, "duration": 720, "velocity": 100}, {"time": 34080, "pitch": 48, "duration": 1200, "velocity": 100}, {"time": 34080, "pitch": 58, "duration": 1200, "velocity": 100}, {"time": 34080, "pitch": 60, "duration": 1200, "velocity": 100}, {"time": 34080, "pitch": 64, "duration": 1200, "velocity": 100}, {"time": 34080, "pitch": 67, "duration": 1200, "velocity": 100}, {"time": 35280, "pitch": 41, "duration": 720, "velocity": 100}, {"time": 35280, "pitch": 57, "duration": 720, "velocity": 100}, {"time": 35280, "pitch": 60, "duration": 720, "velocity": 100}, {"time": 35280, "pitch": 65, "duration": 720, "velocity": 100}, {"time": 36000, "pitch": 41, "duration": 1200, "velocity": 100}, {"time": 36000, "pitch": 57, "duration": 1200, "velocity": 100}, {"time": 36000, "pitch": 60, "duration": 1200, "velocity": 100}, {"time": 36000, "pitch": 65, "duration": 1200, "velocity": 100}, {"time": 37200, "pitch": 40, "duration": 720, "velocity": 100}, {"time": 37200, "pitch": 55, "duration": 720, "velocity": 100}, {"time": 37200, "pitch": 59, "duration": 720, "velocity": 100}, {"time": 37200, "pitch": 62, "duration": 720, "velocity": 100}, {"time": 37920, "pitch": 45, "duration": 1200, "velocity": 100}, {"time": 37920, "pitch": 55, "duration": 1200, "velocity": 100}, {"time": 37920, "pitch": 60, "duration": 1200, "velocity": 100}, {"time": 37920, "pitch": 64, "duration": 1200, "velocity": 100}, {"time": 39120, "pitch": 38, "duration": 720, "velocity": 100}, {"time": 39120, "pitch": 57, "duration": 720, "velocity": 100}, {"time": 39120, "pitch": 60, "duration": 720, "velocity": 100}, {"time": 39120, "pitch": 62, "duration": 720, "velocity": 100}, {"time": 39120, "pitch": 65, "duration": 720, "velocity": 100}, {"time": 39840, "pitch": 43, "duration": 1200, "velocity": 100}, {"time": 39840, "pitch": 55, "duration": 1200, "velocity": 100}, {"time": 39840, "pitch": 59, "duration": 1200, "velocity": 100}, {"time": 39840, "pitch": 62, "duration": 1200, "velocity": 100}, {"time": 39840, "pitch": 65, "duration": 1200, "velocity": 100}, {"time": 41040, "pitch": 36, "duration": 720, "velocity": 100}, {"time": 41040, "pitch": 52, "duration": 720, "velocity": 100}, {"time": 41040, "pitch": 55, "duration": 720, "velocity": 100}, {"time": 41040, "pitch": 60, "duration": 720, "velocity": 100}, {"time": 41040, "pitch": 64, "duration": 720, "velocity": 100}, {"time": 41760, "pitch": 36, "duration": 480, "velocity": 100}, {"time": 41760, "pitch": 52, "duration": 1200, "velocity": 100}, {"time": 41760, "pitch": 55, "duration": 1200, "velocity": 100}, {"time": 41760, "pitch": 58, "duration": 1200, "velocity": 100}, {"time": 42240, "pitch": 36, "duration": 720, "velocity": 100}, {"time": 42960, "pitch": 41, "duration": 720, "velocity": 100}, {"time": 42960, "pitch": 57, "duration": 720, "velocity": 100}, {"time": 42960, "pitch": 60, "duration": 720, "velocity": 100}, {"time": 42960, "pitch": 64, "duration": 720, "velocity": 100}, {"time": 43680, "pitch": 41, "duration": 1200, "velocity": 100}, {"time": 43680, "pitch": 57, "duration": 1200, "velocity": 100}, {"time": 43680, "pitch": 60, "duration": 1200, "velocity": 100}, {"time": 43680, "pitch": 64, "duration": 1200, "velocity": 100}, {"time": 44880, "pitch": 40, "duration": 720, "velocity": 100}, {"time": 44880, "pitch": 55, "duration": 720, "velocity": 100}, {"time": 44880, "pitch": 59, "duration": 720, "velocity": 100}, {"time": 44880, "pitch": 62, "duration": 720, "velocity": 100}, {"time": 45600, "pitch": 40, "duration": 1200, "velocity": 100}, {"time": 45600, "pitch": 55, "duration": 1200, "velocity": 100}, {"time": 45600, "pitch": 59, "duration": 1200, "velocity": 100}, {"time": 45600, "pitch": 62, "duration": 1200, "velocity": 100}, {"time": 46800, "pitch": 38, "duration": 720, "velocity": 100}, {"time": 46800, "pitch": 53, "duration": 720, "velocity": 100}, {"time": 46800, "pitch": 57, "duration": 720, "velocity": 100}, {"time": 46800, "pitch": 60, "duration": 720, "velocity": 100}, {"time": 47520, "pitch": 40, "duration": 1200, "velocity": 100}, {"time": 47520, "pitch": 56, "duration": 1200, "velocity": 100}, {"time": 47520, "pitch": 59, "duration": 1200, "velocity": 100}, {"time": 47520, "pitch": 62, "duration": 1200, "velocity": 100}, {"time": 48720, "pitch": 45, "duration": 720, "velocity": 100}, {"time": 48720, "pitch": 55, "duration": 720, "velocity": 100}, {"time": 48720, "pitch": 60, "duration": 720, "velocity": 100}, {"time": 48720, "pitch": 64, "duration": 720, "velocity": 100}, {"time": 49440, "pitch": 36, "duration": 1200, "velocity": 100}, {"time": 49440, "pitch": 55, "duration": 480, "velocity": 100}, {"time": 49440, "pitch": 58, "duration": 480, "velocity": 100}, {"time": 49440, "pitch": 62, "duration": 480, "velocity": 100}, {"time": 49920, "pitch": 55, "duration": 720, "velocity": 100}, {"time": 49920, "pitch": 58, "duration": 720, "velocity": 100}, {"time": 49920, "pitch": 60, "duration": 720, "velocity": 100}, {"time": 50640, "pitch": 41, "duration": 720, "velocity": 100}, {"time": 50640, "pitch": 57, "duration": 720, "velocity": 100}, {"time": 50640, "pitch": 60, "duration": 720, "velocity": 100}, {"time": 50640, "pitch": 64, "duration": 720, "velocity": 100}, {"time": 51360, "pitch": 41, "duration": 1200, "velocity": 100}, {"time": 51360, "pitch": 57, "duration": 1200, "velocity": 100}, {"time": 51360, "pitch": 60, "duration": 1200, "velocity": 100}, {"time": 51360, "pitch": 64, "duration": 1200, "velocity": 100}, {"time": 52560, "pitch": 40, "duration": 720, "velocity": 100}, {"time": 52560, "pitch": 55, "duration": 720, "velocity": 100}, {"time": 52560, "pitch": 59, "duration": 720, "velocity": 100}, {"time": 52560, "pitch": 62, "duration": 720, "velocity": 100}, {"time": 53280, "pitch": 45, "duration": 1200, "velocity": 100}, {"time": 53280, "pitch": 57, "duration": 1200, "velocity": 100}, {"time": 53280, "pitch": 60, "duration": 1200, "velocity": 100}, {"time": 53280, "pitch": 64, "duration": 1200, "velocity": 100}, {"time": 54480, "pitch": 38, "duration": 720, "velocity": 100}, {"time": 54480, "pitch": 53, "duration": 720, "velocity": 100}, {"time": 54480, "pitch": 57, "duration": 720, "velocity": 100}, {"time": 54480, "pitch": 60, "duration": 720, "velocity": 100}, {"time": 55200, "pitch": 38, "duration": 1200, "velocity": 100}, {"time": 55200, "pitch": 53, "duration": 1200, "velocity": 100}, {"time": 55200, "pitch": 57, "duration": 1200, "velocity": 100}, {"time": 55200, "pitch": 60, "duration": 1200, "velocity": 100}, {"time": 56400, "pitch": 43, "duration": 480, "velocity": 100}, {"time": 56400, "pitch": 57, "duration": 480, "velocity": 100}, {"time": 56400, "pitch": 60, "duration": 480, "velocity": 100}, {"time": 56400, "pitch": 64, "duration": 480, "velocity": 100}, {"time": 56880, "pitch": 43, "duration": 480, "velocity": 100}, {"time": 56880, "pitch": 55, "duration": 480, "velocity": 100}, {"time": 56880, "pitch": 59, "duration": 480, "velocity": 100}, {"time": 56880, "pitch": 62, "duration": 480, "velocity": 100}, {"time": 57360, "pitch": 43, "duration": 480, "velocity": 100}, {"time": 57360, "pitch": 57, "duration": 480, "velocity": 100}, {"time": 57360, "pitch": 60, "duration": 480, "velocity": 100}, {"time": 57360, "pitch": 64, "duration": 480, "velocity": 100}, {"time": 57840, "pitch": 43, "duration": 480, "velocity": 100}, {"time": 57840, "pitch": 55, "duration": 480, "velocity": 100}, {"time": 57840, "pitch": 59, "duration": 480, "velocity": 100}, {"time": 57840, "pitch": 62, "duration": 480, "velocity": 100}, {"time": 57840, "pitch": 65, "duration": 480, "velocity": 100}, {"time": 58320, "pitch": 48, "duration": 720, "velocity": 100}, {"time": 58320, "pitch": 64, "duration": 720, "velocity": 100}, {"time": 58320, "pitch": 67, "duration": 720, "velocity": 100}, {"time": 58320, "pitch": 72, "duration": 720, "velocity": 100}, {"time": 59040, "pitch": 47, "duration": 1200, "velocity": 100}, {"time": 59040, "pitch": 62, "duration": 1200, "velocity": 100}, {"time": 59040, "pitch": 67, "duration": 1200, "velocity": 100}, {"time": 59040, "pitch": 71, "duration": 1200, "velocity": 100}, {"time": 60240, "pitch": 45, "duration": 720, "velocity": 100}, {"time": 60240, "pitch": 60, "duration": 720, "velocity": 100}, {"time": 60240, "pitch": 64, "duration": 720, "velocity": 100}, {"time": 60240, "pitch": 69, "duration": 720, "velocity": 100}, {"time": 60960, "pitch": 43, "duration": 1200, "velocity": 100}, {"time": 60960, "pitch": 59, "duration": 1200, "velocity": 100}, {"time": 60960, "pitch": 64, "duration": 1200, "velocity": 100}, {"time": 60960, "pitch": 67, "duration": 1200, "velocity": 100}, {"time": 62160, "pitch": 41, "duration": 720, "velocity": 100}, {"time": 62160, "pitch": 57, "duration": 720, "velocity": 100}, {"time": 62160, "pitch": 60, "duration": 720, "velocity": 100}, {"time": 62160, "pitch": 65, "duration": 720, "velocity": 100}, {"time": 62880, "pitch": 40, "duration": 1200, "velocity": 100}, {"time": 62880, "pitch": 55, "duration": 1200, "velocity": 100}, {"time": 62880, "pitch": 60, "duration": 1200, "velocity": 100}, {"time": 62880, "pitch": 64, "duration": 1200, "velocity": 100}, {"time": 64080, "pitch": 38, "duration": 720, "velocity": 100}, {"time": 64080, "pitch": 57, "duration": 720, "velocity": 100}, {"time": 64080, "pitch": 60, "duration": 720, "velocity": 100}, {"time": 64080, "pitch": 65, "duration": 720, "velocity": 100}, {"time": 64800, "pitch": 43, "duration": 720, "velocity": 100}, {"time": 64800, "pitch": 57, "duration": 720, "velocity": 100}, {"time": 64800, "pitch": 60, "duration": 720, "velocity": 100}, {"time": 64800, "pitch": 65, "duration": 720, "velocity": 100}, {"time": 65520, "pitch": 41, "duration": 480, "velocity": 100}, {"time": 65520, "pitch": 57, "duration": 480, "velocity": 100}, {"time": 65520, "pitch": 60, "duration": 480, "velocity": 100}, {"time": 65520, "pitch": 65, "duration": 480, "velocity": 100}, {"time": 66000, "pitch": 40, "duration": 720, "velocity": 100}, {"time": 66000, "pitch": 55, "duration": 720, "velocity": 100}, {"time": 66000, "pitch": 59, "duration": 720, "velocity": 100}, {"time": 66000, "pitch": 62, "duration": 720, "velocity": 100}, {"time": 66720, "pitch": 40, "duration": 1200, "velocity": 100}, {"time": 66720, "pitch": 55, "duration": 1200, "velocity": 100}, {"time": 66720, "pitch": 59, "duration": 1200, "velocity": 100}, {"time": 66720, "pitch": 62, "duration": 720, "velocity": 100}, {"time": 67440, "pitch": 62, "duration": 480, "velocity": 100}, {"time": 67440, "pitch": 67, "duration": 480, "velocity": 100}, {"time": 67920, "pitch": 45, "duration": 720, "velocity": 100}, {"time": 67920, "pitch": 55, "duration": 720, "velocity": 100}, {"time": 67920, "pitch": 60, "duration": 720, "velocity": 100}, {"time": 67920, "pitch": 64, "duration": 720, "velocity": 100}, {"time": 68640, "pitch": 43, "duration": 1200, "velocity": 100}, {"time": 68640, "pitch": 55, "duration": 1200, "velocity": 100}, {"time": 68640, "pitch": 60, "duration": 1200, "velocity": 100}, {"time": 68640, "pitch": 64, "duration": 1200, "velocity": 100}, {"time": 69840, "pitch": 38, "duration": 720, "velocity": 100}, {"time": 69840, "pitch": 53, "duration": 720, "velocity": 100}, {"time": 69840, "pitch": 57, "duration": 720, "velocity": 100}, {"time": 69840, "pitch": 60, "duration": 720, "velocity": 100}, {"time": 69840, "pitch": 64, "duration": 720, "velocity": 100}, {"time": 70560, "pitch": 38, "duration": 1200, "velocity": 100}, {"time": 70560, "pitch": 53, "duration": 1200, "velocity": 100}, {"time": 70560, "pitch": 57, "duration": 1200, "velocity": 100}, {"time": 70560, "pitch": 60, "duration": 1200, "velocity": 100}, {"time": 70560, "pitch": 62, "duration": 1200, "velocity": 100}, {"time": 71760, "pitch": 43, "duration": 480, "velocity": 100}, {"time": 71760, "pitch": 53, "duration": 480, "velocity": 100}, {"time": 71760, "pitch": 57, "duration": 480, "velocity": 100}, {"time": 71760, "pitch": 60, "duration": 480, "velocity": 100}, {"time": 72240, "pitch": 43, "duration": 480, "velocity": 100}, {"time": 72240, "pitch": 53, "duration": 480, "velocity": 100}, {"time": 72240, "pitch": 55, "duration": 480, "velocity": 100}, {"time": 72240, "pitch": 59, "duration": 480, "velocity": 100}, {"time": 72720, "pitch": 43, "duration": 480, "velocity": 100}, {"time": 72720, "pitch": 53, "duration": 480, "velocity": 100}, {"time": 72720, "pitch": 57, "duration": 480, "velocity": 100}, {"time": 72720, "pitch": 60, "duration": 480, "velocity": 100}, {"time": 73200, "pitch": 43, "duration": 480, "velocity": 100}, {"time": 73200, "pitch": 55, "duration": 480, "velocity": 100}, {"time": 73200, "pitch": 59, "duration": 480, "velocity": 100}, {"time": 73200, "pitch": 62, "duration": 480, "velocity": 100}, {"time": 73680, "pitch": 48, "duration": 720, "velocity": 100}, {"time": 73680, "pitch": 64, "duration": 720, "velocity": 100}, {"time": 73680, "pitch": 67, "duration": 720, "velocity": 100}, {"time": 73680, "pitch": 72, "duration": 720, "velocity": 100}, {"time": 74400, "pitch": 47, "duration": 1200, "velocity": 100}, {"time": 74400, "pitch": 62, "duration": 1200, "velocity": 100}, {"time": 74400, "pitch": 67, "duration": 1200, "velocity": 100}, {"time": 74400, "pitch": 71, "duration": 1200, "velocity": 100}, {"time": 75600, "pitch": 45, "duration": 720, "velocity": 100}, {"time": 75600, "pitch": 60, "duration": 720, "velocity": 100}, {"time": 75600, "pitch": 64, "duration": 720, "velocity": 100}, {"time": 75600, "pitch": 69, "duration": 720, "velocity": 100}, {"time": 76320, "pitch": 43, "duration": 1200, "velocity": 100}, {"time": 76320, "pitch": 59, "duration": 1200, "velocity": 100}, {"time": 76320, "pitch": 64, "duration": 1200, "velocity": 100}, {"time": 76320, "pitch": 67, "duration": 1200, "velocity": 100}, {"time": 77520, "pitch": 41, "duration": 720, "velocity": 100}, {"time": 77520, "pitch": 57, "duration": 720, "velocity": 100}, {"time": 77520, "pitch": 60, "duration": 720, "velocity": 100}, {"time": 77520, "pitch": 65, "duration": 720, "velocity": 100}, {"time": 78240, "pitch": 40, "duration": 1200, "velocity": 100}, {"time": 78240, "pitch": 55, "duration": 1200, "velocity": 100}, {"time": 78240, "pitch": 60, "duration": 1200, "velocity": 100}, {"time": 78240, "pitch": 64, "duration": 1200, "velocity": 100}, {"time": 79440, "pitch": 38, "duration": 720, "velocity": 100}, {"time": 79440, "pitch": 57, "duration": 720, "velocity": 100}, {"time": 79440, "pitch": 60, "duration": 720, "velocity": 100}, {"time": 79440, "pitch": 65, "duration": 720, "velocity": 100}, {"time": 80160, "pitch": 43, "duration": 720, "velocity": 100}, {"time": 80160, "pitch": 57, "duration": 720, "velocity": 100}, {"time": 80160, "pitch": 60, "duration": 720, "velocity": 100}, {"time": 80160, "pitch": 65, "duration": 720, "velocity": 100}, {"time": 80880, "pitch": 41, "duration": 480, "velocity": 100}, {"time": 80880, "pitch": 57, "duration": 480, "velocity": 100}, {"time": 80880, "pitch": 60, "duration": 480, "velocity": 100}, {"time": 80880, "pitch": 65, "duration": 480, "velocity": 100}, {"time": 81360, "pitch": 40, "duration": 720, "velocity": 100}, {"time": 81360, "pitch": 55, "duration": 720, "velocity": 100}, {"time": 81360, "pitch": 59, "duration": 720, "velocity": 100}, {"time": 81360, "pitch": 62, "duration": 720, "velocity": 100}, {"time": 82080, "pitch": 40, "duration": 1200, "velocity": 100}, {"time": 82080, "pitch": 55, "duration": 1200, "velocity": 100}, {"time": 82080, "pitch": 59, "duration": 1200, "velocity": 100}, {"time": 82080, "pitch": 62, "duration": 720, "velocity": 100}, {"time": 82800, "pitch": 62, "duration": 480, "velocity": 100}, {"time": 82800, "pitch": 67, "duration": 480, "velocity": 100}, {"time": 83280, "pitch": 45, "duration": 720, "velocity": 100}, {"time": 83280, "pitch": 55, "duration": 720, "velocity": 100}, {"time": 83280, "pitch": 60, "duration": 720, "velocity": 100}, {"time": 83280, "pitch": 64, "duration": 720, "velocity": 100}, {"time": 84000, "pitch": 43, "duration": 1200, "velocity": 100}, {"time": 84000, "pitch": 55, "duration": 1200, "velocity": 100}, {"time": 84000, "pitch": 60, "duration": 1200, "velocity": 100}, {"time": 84000, "pitch": 64, "duration": 1200, "velocity": 100}, {"time": 85200, "pitch": 38, "duration": 720, "velocity": 100}, {"time": 85200, "pitch": 53, "duration": 720, "velocity": 100}, {"time": 85200, "pitch": 57, "duration": 720, "velocity": 100}, {"time": 85200, "pitch": 60, "duration": 720, "velocity": 100}, {"time": 85200, "pitch": 64, "duration": 720, "velocity": 100}, {"time": 85920, "pitch": 38, "duration": 1200, "velocity": 100}, {"time": 85920, "pitch": 53, "duration": 1200, "velocity": 100}, {"time": 85920, "pitch": 57, "duration": 1200, "velocity": 100}, {"time": 85920, "pitch": 60, "duration": 1200, "velocity": 100}, {"time": 85920, "pitch": 62, "duration": 1200, "velocity": 100}, {"time": 87120, "pitch": 43, "duration": 480, "velocity": 100}, {"time": 87120, "pitch": 53, "duration": 480, "velocity": 100}, {"time": 87120, "pitch": 57, "duration": 480, "velocity": 100}, {"time": 87120, "pitch": 60, "duration": 480, "velocity": 100}, {"time": 87600, "pitch": 43, "duration": 480, "velocity": 100}, {"time": 87600, "pitch": 53, "duration": 480, "velocity": 100}, {"time": 87600, "pitch": 55, "duration": 480, "velocity": 100}, {"time": 87600, "pitch": 59, "duration": 480, "velocity": 100}, {"time": 88080, "pitch": 43, "duration": 480, "velocity": 100}, {"time": 88080, "pitch": 53, "duration": 480, "velocity": 100}, {"time": 88080, "pitch": 57, "duration": 480, "velocity": 100}, {"time": 88080, "pitch": 60, "duration": 480, "velocity": 100}, {"time": 88560, "pitch": 43, "duration": 480, "velocity": 100}, {"time": 88560, "pitch": 55, "duration": 480, "velocity": 100}, {"time": 88560, "pitch": 59, "duration": 480, "velocity": 100}, {"time": 88560, "pitch": 62, "duration": 480, "velocity": 100}, {"time": 89040, "pitch": 48, "duration": 720, "velocity": 100}, {"time": 89040, "pitch": 64, "duration": 720, "velocity": 100}, {"time": 89040, "pitch": 67, "duration": 720, "velocity": 100}, {"time": 89040, "pitch": 72, "duration": 720, "velocity": 100}, {"time": 89760, "pitch": 47, "duration": 1200, "velocity": 100}, {"time": 89760, "pitch": 62, "duration": 1200, "velocity": 100}, {"time": 89760, "pitch": 67, "duration": 1200, "velocity": 100}, {"time": 89760, "pitch": 71, "duration": 1200, "velocity": 100}, {"time": 90960, "pitch": 45, "duration": 720, "velocity": 100}, {"time": 90960, "pitch": 60, "duration": 720, "velocity": 100}, {"time": 90960, "pitch": 64, "duration": 720, "velocity": 100}, {"time": 90960, "pitch": 69, "duration": 720, "velocity": 100}, {"time": 91680, "pitch": 43, "duration": 1200, "velocity": 100}, {"time": 91680, "pitch": 59, "duration": 1200, "velocity": 100}, {"time": 91680, "pitch": 64, "duration": 1200, "velocity": 100}, {"time": 91680, "pitch": 67, "duration": 1200, "velocity": 100}, {"time": 92880, "pitch": 41, "duration": 720, "velocity": 100}, {"time": 92880, "pitch": 57, "duration": 720, "velocity": 100}, {"time": 92880, "pitch": 60, "duration": 720, "velocity": 100}, {"time": 92880, "pitch": 65, "duration": 720, "velocity": 100}, {"time": 93600, "pitch": 40, "duration": 1200, "velocity": 100}, {"time": 93600, "pitch": 55, "duration": 1200, "velocity": 100}, {"time": 93600, "pitch": 60, "duration": 1200, "velocity": 100}, {"time": 93600, "pitch": 64, "duration": 1200, "velocity": 100}, {"time": 94800, "pitch": 38, "duration": 720, "velocity": 100}, {"time": 94800, "pitch": 53, "duration": 720, "velocity": 100}, {"time": 94800, "pitch": 57, "duration": 720, "velocity": 100}, {"time": 94800, "pitch": 62, "duration": 720, "velocity": 100}, {"time": 95520, "pitch": 43, "duration": 1200, "velocity": 100}, {"time": 95520, "pitch": 53, "duration": 1200, "velocity": 100}, {"time": 95520, "pitch": 60, "duration": 1200, "velocity": 100}, {"time": 95520, "pitch": 67, "duration": 1200, "velocity": 100}, {"time": 96720, "pitch": 48, "duration": 720, "velocity": 100}, {"time": 96720, "pitch": 60, "duration": 720, "velocity": 100}, {"time": 96720, "pitch": 64, "duration": 720, "velocity": 100}, {"time": 96720, "pitch": 67, "duration": 720, "velocity": 100}, {"time": 97440, "pitch": 48, "duration": 1200, "velocity": 100}, {"time": 97440, "pitch": 60, "duration": 1200, "velocity": 100}, {"time": 97440, "pitch": 64, "duration": 1200, "velocity": 100}, {"time": 97440, "pitch": 67, "duration": 1200, "velocity": 100}, {"time": 98640, "pitch": 52, "duration": 720, "velocity": 100}, {"time": 98640, "pitch": 62, "duration": 720, "velocity": 100}, {"time": 98640, "pitch": 65, "duration": 720, "velocity": 100}, {"time": 98640, "pitch": 68, "duration": 720, "velocity": 100}, {"time": 99360, "pitch": 52, "duration": 1200, "velocity": 100}, {"time": 99360, "pitch": 62, "duration": 1200, "velocity": 100}, {"time": 99360, "pitch": 65, "duration": 1200, "velocity": 100}, {"time": 99360, "pitch": 68, "duration": 1200, "velocity": 100}, {"time": 100560, "pitch": 45, "duration": 720, "velocity": 100}, {"time": 100560, "pitch": 55, "duration": 720, "velocity": 100}, {"time": 100560, "pitch": 60, "duration": 720, "velocity": 100}, {"time": 100560, "pitch": 64, "duration": 720, "velocity": 100}, {"time": 101280, "pitch": 45, "duration": 1200, "velocity": 100}, {"time": 101280, "pitch": 55, "duration": 1200, "velocity": 100}, {"time": 101280, "pitch": 60, "duration": 1200, "velocity": 100}, {"time": 101280, "pitch": 64, "duration": 1200, "velocity": 100}, {"time": 102480, "pitch": 48, "duration": 720, "velocity": 100}, {"time": 102480, "pitch": 58, "duration": 720, "velocity": 100}, {"time": 102480, "pitch": 60, "duration": 720, "velocity": 100}, {"time": 102480, "pitch": 64, "duration": 720, "velocity": 100}, {"time": 102480, "pitch": 67, "duration": 720, "velocity": 100}, {"time": 103200, "pitch": 48, "duration": 1200, "velocity": 100}, {"time": 103200, "pitch": 58, "duration": 1200, "velocity": 100}, {"time": 103200, "pitch": 60, "duration": 1200, "velocity": 100}, {"time": 103200, "pitch": 64, "duration": 1200, "velocity": 100}, {"time": 103200, "pitch": 67, "duration": 1200, "velocity": 100}, {"time": 104400, "pitch": 41, "duration": 720, "velocity": 100}, {"time": 104400, "pitch": 57, "duration": 720, "velocity": 100}, {"time": 104400, "pitch": 60, "duration": 720, "velocity": 100}, {"time": 104400, "pitch": 65, "duration": 720, "velocity": 100}, {"time": 105120, "pitch": 41, "duration": 1200, "velocity": 100}, {"time": 105120, "pitch": 57, "duration": 1200, "velocity": 100}, {"time": 105120, "pitch": 60, "duration": 1200, "velocity": 100}, {"time": 105120, "pitch": 65, "duration": 1200, "velocity": 100}, {"time": 106320, "pitch": 40, "duration": 720, "velocity": 100}, {"time": 106320, "pitch": 55, "duration": 720, "velocity": 100}, {"time": 106320, "pitch": 59, "duration": 720, "velocity": 100}, {"time": 106320, "pitch": 62, "duration": 720, "velocity": 100}, {"time": 107040, "pitch": 45, "duration": 1200, "velocity": 100}, {"time": 107040, "pitch": 55, "duration": 1200, "velocity": 100}, {"time": 107040, "pitch": 60, "duration": 1200, "velocity": 100}, {"time": 107040, "pitch": 64, "duration": 1200, "velocity": 100}, {"time": 108240, "pitch": 38, "duration": 720, "velocity": 100}, {"time": 108240, "pitch": 53, "duration": 720, "velocity": 100}, {"time": 108240, "pitch": 57, "duration": 720, "velocity": 100}, {"time": 108240, "pitch": 60, "duration": 720, "velocity": 100}, {"time": 108240, "pitch": 64, "duration": 720, "velocity": 100}, {"time": 108960, "pitch": 38, "duration": 1200, "velocity": 100}, {"time": 108960, "pitch": 53, "duration": 1200, "velocity": 100}, {"time": 108960, "pitch": 57, "duration": 1200, "velocity": 100}, {"time": 108960, "pitch": 60, "duration": 1200, "velocity": 100}, {"time": 108960, "pitch": 62, "duration": 1200, "velocity": 100}, {"time": 110160, "pitch": 43, "duration": 720, "velocity": 100}, {"time": 110160, "pitch": 55, "duration": 720, "velocity": 100}, {"time": 110160, "pitch": 60, "duration": 720, "velocity": 100}, {"time": 110160, "pitch": 62, "duration": 720, "velocity": 100}, {"time": 110160, "pitch": 67, "duration": 720, "velocity": 100}, {"time": 110880, "pitch": 43, "duration": 1200, "velocity": 100}, {"time": 110880, "pitch": 55, "duration": 1200, "velocity": 100}, {"time": 110880, "pitch": 59, "duration": 1200, "velocity": 100}, {"time": 110880, "pitch": 62, "duration": 1200, "velocity": 100}, {"time": 110880, "pitch": 67, "duration": 1200, "velocity": 100}, {"time": 112080, "pitch": 48, "duration": 720, "velocity": 100}, {"time": 112080, "pitch": 60, "duration": 720, "velocity": 100}, {"time": 112080, "pitch": 64, "duration": 720, "velocity": 100}, {"time": 112080, "pitch": 67, "duration": 720, "velocity": 100}, {"time": 112800, "pitch": 48, "duration": 1200, "velocity": 100}, {"time": 112800, "pitch": 60, "duration": 1200, "velocity": 100}, {"time": 112800, "pitch": 64, "duration": 1200, "velocity": 100}, {"time": 112800, "pitch": 67, "duration": 1200, "velocity": 100}, {"time": 114000, "pitch": 52, "duration": 720, "velocity": 100}, {"time": 114000, "pitch": 62, "duration": 720, "velocity": 100}, {"time": 114000, "pitch": 65, "duration": 720, "velocity": 100}, {"time": 114000, "pitch": 68, "duration": 720, "velocity": 100}, {"time": 114720, "pitch": 52, "duration": 1200, "velocity": 100}, {"time": 114720, "pitch": 62, "duration": 1200, "velocity": 100}, {"time": 114720, "pitch": 65, "duration": 1200, "velocity": 100}, {"time": 114720, "pitch": 68, "duration": 1200, "velocity": 100}, {"time": 115920, "pitch": 45, "duration": 720, "velocity": 100}, {"time": 115920, "pitch": 55, "duration": 720, "velocity": 100}, {"time": 115920, "pitch": 60, "duration": 720, "velocity": 100}, {"time": 115920, "pitch": 64, "duration": 720, "velocity": 100}, {"time": 116640, "pitch": 45, "duration": 1200, "velocity": 100}, {"time": 116640, "pitch": 55, "duration": 1200, "velocity": 100}, {"time": 116640, "pitch": 60, "duration": 1200, "velocity": 100}, {"time": 116640, "pitch": 64, "duration": 1200, "velocity": 100}, {"time": 117840, "pitch": 48, "duration": 720, "velocity": 100}, {"time": 117840, "pitch": 58, "duration": 720, "velocity": 100}, {"time": 117840, "pitch": 60, "duration": 720, "velocity": 100}, {"time": 117840, "pitch": 64, "duration": 720, "velocity": 100}, {"time": 117840, "pitch": 67, "duration": 720, "velocity": 100}, {"time": 118560, "pitch": 48, "duration": 1200, "velocity": 100}, {"time": 118560, "pitch": 58, "duration": 1200, "velocity": 100}, {"time": 118560, "pitch": 60, "duration": 1200, "velocity": 100}, {"time": 118560, "pitch": 64, "duration": 1200, "velocity": 100}, {"time": 118560, "pitch": 67, "duration": 1200, "velocity": 100}, {"time": 119760, "pitch": 41, "duration": 720, "velocity": 100}, {"time": 119760, "pitch": 57, "duration": 720, "velocity": 100}, {"time": 119760, "pitch": 60, "duration": 720, "velocity": 100}, {"time": 119760, "pitch": 65, "duration": 720, "velocity": 100}, {"time": 120480, "pitch": 41, "duration": 1200, "velocity": 100}, {"time": 120480, "pitch": 57, "duration": 1200, "velocity": 100}, {"time": 120480, "pitch": 60, "duration": 1200, "velocity": 100}, {"time": 120480, "pitch": 65, "duration": 1200, "velocity": 100}, {"time": 121680, "pitch": 40, "duration": 720, "velocity": 100}, {"time": 121680, "pitch": 55, "duration": 720, "velocity": 100}, {"time": 121680, "pitch": 59, "duration": 720, "velocity": 100}, {"time": 121680, "pitch": 62, "duration": 720, "velocity": 100}, {"time": 122400, "pitch": 45, "duration": 1200, "velocity": 100}, {"time": 122400, "pitch": 55, "duration": 1200, "velocity": 100}, {"time": 122400, "pitch": 60, "duration": 1200, "velocity": 100}, {"time": 122400, "pitch": 64, "duration": 1200, "velocity": 100}, {"time": 123600, "pitch": 38, "duration": 720, "velocity": 100}, {"time": 123600, "pitch": 57, "duration": 720, "velocity": 100}, {"time": 123600, "pitch": 60, "duration": 720, "velocity": 100}, {"time": 123600, "pitch": 62, "duration": 720, "velocity": 100}, {"time": 123600, "pitch": 65, "duration": 720, "velocity": 100}, {"time": 124320, "pitch": 43, "duration": 1200, "velocity": 100}, {"time": 124320, "pitch": 55, "duration": 1200, "velocity": 100}, {"time": 124320, "pitch": 59, "duration": 1200, "velocity": 100}, {"time": 124320, "pitch": 62, "duration": 1200, "velocity": 100}, {"time": 124320, "pitch": 65, "duration": 1200, "velocity": 100}, {"time": 125520, "pitch": 36, "duration": 720, "velocity": 100}, {"time": 125520, "pitch": 52, "duration": 720, "velocity": 100}, {"time": 125520, "pitch": 55, "duration": 720, "velocity": 100}, {"time": 125520, "pitch": 60, "duration": 720, "velocity": 100}, {"time": 125520, "pitch": 64, "duration": 720, "velocity": 100}, {"time": 126240, "pitch": 36, "duration": 480, "velocity": 100}, {"time": 126240, "pitch": 52, "duration": 1200, "velocity": 100}, {"time": 126240, "pitch": 55, "duration": 1200, "velocity": 100}, {"time": 126240, "pitch": 58, "duration": 1200, "velocity": 100}, {"time": 126720, "pitch": 36, "duration": 720, "velocity": 100}, {"time": 127440, "pitch": 41, "duration": 720, "velocity": 100}, {"time": 127440, "pitch": 57, "duration": 720, "velocity": 100}, {"time": 127440, "pitch": 60, "duration": 720, "velocity": 100}, {"time": 127440, "pitch": 64, "duration": 720, "velocity": 100}, {"time": 128160, "pitch": 41, "duration": 1200, "velocity": 100}, {"time": 128160, "pitch": 57, "duration": 1200, "velocity": 100}, {"time": 128160, "pitch": 60, "duration": 1200, "velocity": 100}, {"time": 128160, "pitch": 64, "duration": 1200, "velocity": 100}, {"time": 129360, "pitch": 40, "duration": 720, "velocity": 100}, {"time": 129360, "pitch": 55, "duration": 720, "velocity": 100}, {"time": 129360, "pitch": 59, "duration": 720, "velocity": 100}, {"time": 129360, "pitch": 62, "duration": 720, "velocity": 100}, {"time": 130080, "pitch": 40, "duration": 1200, "velocity": 100}, {"time": 130080, "pitch": 55, "duration": 1200, "velocity": 100}, {"time": 130080, "pitch": 59, "duration": 1200, "velocity": 100}, {"time": 130080, "pitch": 62, "duration": 1200, "velocity": 100}, {"time": 131280, "pitch": 38, "duration": 720, "velocity": 100}, {"time": 131280, "pitch": 53, "duration": 720, "velocity": 100}, {"time": 131280, "pitch": 57, "duration": 720, "velocity": 100}, {"time": 131280, "pitch": 60, "duration": 720, "velocity": 100}, {"time": 132000, "pitch": 40, "duration": 1200, "velocity": 100}, {"time": 132000, "pitch": 56, "duration": 1200, "velocity": 100}, {"time": 132000, "pitch": 59, "duration": 1200, "velocity": 100}, {"time": 132000, "pitch": 62, "duration": 1200, "velocity": 100}, {"time": 133200, "pitch": 45, "duration": 720, "velocity": 100}, {"time": 133200, "pitch": 55, "duration": 720, "velocity": 100}, {"time": 133200, "pitch": 60, "duration": 720, "velocity": 100}, {"time": 133200, "pitch": 64, "duration": 720, "velocity": 100}, {"time": 133920, "pitch": 36, "duration": 1200, "velocity": 100}, {"time": 133920, "pitch": 55, "duration": 480, "velocity": 100}, {"time": 133920, "pitch": 58, "duration": 480, "velocity": 100}, {"time": 133920, "pitch": 62, "duration": 480, "velocity": 100}, {"time": 134400, "pitch": 55, "duration": 720, "velocity": 100}, {"time": 134400, "pitch": 58, "duration": 720, "velocity": 100}, {"time": 134400, "pitch": 60, "duration": 720, "velocity": 100}, {"time": 135120, "pitch": 41, "duration": 720, "velocity": 100}, {"time": 135120, "pitch": 57, "duration": 720, "velocity": 100}, {"time": 135120, "pitch": 60, "duration": 720, "velocity": 100}, {"time": 135120, "pitch": 64, "duration": 720, "velocity": 100}, {"time": 135840, "pitch": 41, "duration": 1200, "velocity": 100}, {"time": 135840, "pitch": 57, "duration": 1200, "velocity": 100}, {"time": 135840, "pitch": 60, "duration": 1200, "velocity": 100}, {"time": 135840, "pitch": 64, "duration": 1200, "velocity": 100}, {"time": 137040, "pitch": 40, "duration": 720, "velocity": 100}, {"time": 137040, "pitch": 55, "duration": 720, "velocity": 100}, {"time": 137040, "pitch": 59, "duration": 720, "velocity": 100}, {"time": 137040, "pitch": 62, "duration": 720, "velocity": 100}, {"time": 137760, "pitch": 45, "duration": 1200, "velocity": 100}, {"time": 137760, "pitch": 57, "duration": 1200, "velocity": 100}, {"time": 137760, "pitch": 60, "duration": 1200, "velocity": 100}, {"time": 137760, "pitch": 64, "duration": 1200, "velocity": 100}, {"time": 138960, "pitch": 38, "duration": 720, "velocity": 100}, {"time": 138960, "pitch": 53, "duration": 720, "velocity": 100}, {"time": 138960, "pitch": 57, "duration": 720, "velocity": 100}, {"time": 138960, "pitch": 60, "duration": 720, "velocity": 100}, {"time": 139680, "pitch": 38, "duration": 1200, "velocity": 100}, {"time": 139680, "pitch": 53, "duration": 1200, "velocity": 100}, {"time": 139680, "pitch": 57, "duration": 1200, "velocity": 100}, {"time": 139680, "pitch": 60, "duration": 1200, "velocity": 100}, {"time": 140880, "pitch": 43, "duration": 480, "velocity": 100}, {"time": 140880, "pitch": 57, "duration": 480, "velocity": 100}, {"time": 140880, "pitch": 60, "duration": 480, "velocity": 100}, {"time": 140880, "pitch": 64, "duration": 480, "velocity": 100}, {"time": 141360, "pitch": 43, "duration": 480, "velocity": 100}, {"time": 141360, "pitch": 55, "duration": 480, "velocity": 100}, {"time": 141360, "pitch": 59, "duration": 480, "velocity": 100}, {"time": 141360, "pitch": 62, "duration": 480, "velocity": 100}, {"time": 141840, "pitch": 43, "duration": 480, "velocity": 100}, {"time": 141840, "pitch": 57, "duration": 480, "velocity": 100}, {"time": 141840, "pitch": 60, "duration": 480, "velocity": 100}, {"time": 141840, "pitch": 64, "duration": 480, "velocity": 100}, {"time": 142320, "pitch": 43, "duration": 480, "velocity": 100}, {"time": 142320, "pitch": 55, "duration": 480, "velocity": 100}, {"time": 142320, "pitch": 59, "duration": 480, "velocity": 100}, {"time": 142320, "pitch": 62, "duration": 480, "velocity": 100}, {"time": 142320, "pitch": 65, "duration": 480, "velocity": 100}, {"time": 142800, "pitch": 48, "duration": 720, "velocity": 100}, {"time": 142800, "pitch": 64, "duration": 720, "velocity": 100}, {"time": 142800, "pitch": 67, "duration": 720, "velocity": 100}, {"time": 142800, "pitch": 72, "duration": 720, "velocity": 100}, {"time": 143520, "pitch": 47, "duration": 1200, "velocity": 100}, {"time": 143520, "pitch": 62, "duration": 1200, "velocity": 100}, {"time": 143520, "pitch": 67, "duration": 1200, "velocity": 100}, {"time": 143520, "pitch": 71, "duration": 1200, "velocity": 100}, {"time": 144720, "pitch": 45, "duration": 720, "velocity": 100}, {"time": 144720, "pitch": 60, "duration": 720, "velocity": 100}, {"time": 144720, "pitch": 64, "duration": 720, "velocity": 100}, {"time": 144720, "pitch": 69, "duration": 720, "velocity": 100}, {"time": 145440, "pitch": 43, "duration": 1200, "velocity": 100}, {"time": 145440, "pitch": 59, "duration": 1200, "velocity": 100}, {"time": 145440, "pitch": 64, "duration": 1200, "velocity": 100}, {"time": 145440, "pitch": 67, "duration": 1200, "velocity": 100}, {"time": 146640, "pitch": 41, "duration": 720, "velocity": 100}, {"time": 146640, "pitch": 57, "duration": 720, "velocity": 100}, {"time": 146640, "pitch": 60, "duration": 720, "velocity": 100}, {"time": 146640, "pitch": 65, "duration": 720, "velocity": 100}, {"time": 147360, "pitch": 40, "duration": 1200, "velocity": 100}, {"time": 147360, "pitch": 55, "duration": 1200, "velocity": 100}, {"time": 147360, "pitch": 60, "duration": 1200, "velocity": 100}, {"time": 147360, "pitch": 64, "duration": 1200, "velocity": 100}, {"time": 148560, "pitch": 38, "duration": 720, "velocity": 100}, {"time": 148560, "pitch": 57, "duration": 720, "velocity": 100}, {"time": 148560, "pitch": 60, "duration": 720, "velocity": 100}, {"time": 148560, "pitch": 65, "duration": 720, "velocity": 100}, {"time": 149280, "pitch": 43, "duration": 720, "velocity": 100}, {"time": 149280, "pitch": 57, "duration": 720, "velocity": 100}, {"time": 149280, "pitch": 60, "duration": 720, "velocity": 100}, {"time": 149280, "pitch": 65, "duration": 720, "velocity": 100}, {"time": 150000, "pitch": 41, "duration": 480, "velocity": 100}, {"time": 150000, "pitch": 57, "duration": 480, "velocity": 100}, {"time": 150000, "pitch": 60, "duration": 480, "velocity": 100}, {"time": 150000, "pitch": 65, "duration": 480, "velocity": 100}, {"time": 150480, "pitch": 40, "duration": 720, "velocity": 100}, {"time": 150480, "pitch": 55, "duration": 720, "velocity": 100}, {"time": 150480, "pitch": 59, "duration": 720, "velocity": 100}, {"time": 150480, "pitch": 62, "duration": 720, "velocity": 100}, {"time": 151200, "pitch": 40, "duration": 1200, "velocity": 100}, {"time": 151200, "pitch": 55, "duration": 1200, "velocity": 100}, {"time": 151200, "pitch": 59, "duration": 1200, "velocity": 100}, {"time": 151200, "pitch": 62, "duration": 720, "velocity": 100}, {"time": 151920, "pitch": 62, "duration": 480, "velocity": 100}, {"time": 151920, "pitch": 67, "duration": 480, "velocity": 100}, {"time": 152400, "pitch": 45, "duration": 720, "velocity": 100}, {"time": 152400, "pitch": 55, "duration": 720, "velocity": 100}, {"time": 152400, "pitch": 60, "duration": 720, "velocity": 100}, {"time": 152400, "pitch": 64, "duration": 720, "velocity": 100}, {"time": 153120, "pitch": 43, "duration": 1200, "velocity": 100}, {"time": 153120, "pitch": 55, "duration": 1200, "velocity": 100}, {"time": 153120, "pitch": 60, "duration": 1200, "velocity": 100}, {"time": 153120, "pitch": 64, "duration": 1200, "velocity": 100}, {"time": 154320, "pitch": 38, "duration": 720, "velocity": 100}, {"time": 154320, "pitch": 53, "duration": 720, "velocity": 100}, {"time": 154320, "pitch": 57, "duration": 720, "velocity": 100}, {"time": 154320, "pitch": 60, "duration": 720, "velocity": 100}, {"time": 154320, "pitch": 64, "duration": 720, "velocity": 100}, {"time": 155040, "pitch": 38, "duration": 1200, "velocity": 100}, {"time": 155040, "pitch": 53, "duration": 1200, "velocity": 100}, {"time": 155040, "pitch": 57, "duration": 1200, "velocity": 100}, {"time": 155040, "pitch": 60, "duration": 1200, "velocity": 100}, {"time": 155040, "pitch": 62, "duration": 1200, "velocity": 100}, {"time": 156240, "pitch": 43, "duration": 480, "velocity": 100}, {"time": 156240, "pitch": 53, "duration": 480, "velocity": 100}, {"time": 156240, "pitch": 57, "duration": 480, "velocity": 100}, {"time": 156240, "pitch": 60, "duration": 480, "velocity": 100}, {"time": 156720, "pitch": 43, "duration": 480, "velocity": 100}, {"time": 156720, "pitch": 53, "duration": 480, "velocity": 100}, {"time": 156720, "pitch": 55, "duration": 480, "velocity": 100}, {"time": 156720, "pitch": 59, "duration": 480, "velocity": 100}, {"time": 157200, "pitch": 43, "duration": 480, "velocity": 100}, {"time": 157200, "pitch": 53, "duration": 480, "velocity": 100}, {"time": 157200, "pitch": 57, "duration": 480, "velocity": 100}, {"time": 157200, "pitch": 60, "duration": 480, "velocity": 100}, {"time": 157680, "pitch": 43, "duration": 480, "velocity": 100}, {"time": 157680, "pitch": 55, "duration": 480, "velocity": 100}, {"time": 157680, "pitch": 59, "duration": 480, "velocity": 100}, {"time": 157680, "pitch": 62, "duration": 480, "velocity": 100}, {"time": 158160, "pitch": 48, "duration": 720, "velocity": 100}, {"time": 158160, "pitch": 64, "duration": 720, "velocity": 100}, {"time": 158160, "pitch": 67, "duration": 720, "velocity": 100}, {"time": 158160, "pitch": 72, "duration": 720, "velocity": 100}, {"time": 158880, "pitch": 47, "duration": 1200, "velocity": 100}, {"time": 158880, "pitch": 62, "duration": 1200, "velocity": 100}, {"time": 158880, "pitch": 67, "duration": 1200, "velocity": 100}, {"time": 158880, "pitch": 71, "duration": 1200, "velocity": 100}, {"time": 160080, "pitch": 45, "duration": 720, "velocity": 100}, {"time": 160080, "pitch": 60, "duration": 720, "velocity": 100}, {"time": 160080, "pitch": 64, "duration": 720, "velocity": 100}, {"time": 160080, "pitch": 69, "duration": 720, "velocity": 100}, {"time": 160800, "pitch": 43, "duration": 1200, "velocity": 100}, {"time": 160800, "pitch": 59, "duration": 1200, "velocity": 100}, {"time": 160800, "pitch": 64, "duration": 1200, "velocity": 100}, {"time": 160800, "pitch": 67, "duration": 1200, "velocity": 100}, {"time": 162000, "pitch": 41, "duration": 720, "velocity": 100}, {"time": 162000, "pitch": 57, "duration": 720, "velocity": 100}, {"time": 162000, "pitch": 60, "duration": 720, "velocity": 100}, {"time": 162000, "pitch": 65, "duration": 720, "velocity": 100}, {"time": 162720, "pitch": 40, "duration": 1200, "velocity": 100}, {"time": 162720, "pitch": 55, "duration": 1200, "velocity": 100}, {"time": 162720, "pitch": 60, "duration": 1200, "velocity": 100}, {"time": 162720, "pitch": 64, "duration": 1200, "velocity": 100}, {"time": 163920, "pitch": 38, "duration": 720, "velocity": 100}, {"time": 163920, "pitch": 57, "duration": 720, "velocity": 100}, {"time": 163920, "pitch": 60, "duration": 720, "velocity": 100}, {"time": 163920, "pitch": 65, "duration": 720, "velocity": 100}, {"time": 164640, "pitch": 43, "duration": 720, "velocity": 100}, {"time": 164640, "pitch": 57, "duration": 720, "velocity": 100}, {"time": 164640, "pitch": 60, "duration": 720, "velocity": 100}, {"time": 164640, "pitch": 65, "duration": 720, "velocity": 100}, {"time": 165360, "pitch": 41, "duration": 480, "velocity": 100}, {"time": 165360, "pitch": 57, "duration": 480, "velocity": 100}, {"time": 165360, "pitch": 60, "duration": 480, "velocity": 100}, {"time": 165360, "pitch": 65, "duration": 480, "velocity": 100}, {"time": 165840, "pitch": 40, "duration": 720, "velocity": 100}, {"time": 165840, "pitch": 55, "duration": 720, "velocity": 100}, {"time": 165840, "pitch": 59, "duration": 720, "velocity": 100}, {"time": 165840, "pitch": 62, "duration": 720, "velocity": 100}, {"time": 166560, "pitch": 40, "duration": 1200, "velocity": 100}, {"time": 166560, "pitch": 55, "duration": 1200, "velocity": 100}, {"time": 166560, "pitch": 59, "duration": 1200, "velocity": 100}, {"time": 166560, "pitch": 62, "duration": 720, "velocity": 100}, {"time": 167280, "pitch": 62, "duration": 480, "velocity": 100}, {"time": 167280, "pitch": 67, "duration": 480, "velocity": 100}, {"time": 167760, "pitch": 45, "duration": 720, "velocity": 100}, {"time": 167760, "pitch": 55, "duration": 720, "velocity": 100}, {"time": 167760, "pitch": 60, "duration": 720, "velocity": 100}, {"time": 167760, "pitch": 64, "duration": 720, "velocity": 100}, {"time": 168480, "pitch": 43, "duration": 1200, "velocity": 100}, {"time": 168480, "pitch": 55, "duration": 1200, "velocity": 100}, {"time": 168480, "pitch": 60, "duration": 1200, "velocity": 100}, {"time": 168480, "pitch": 64, "duration": 1200, "velocity": 100}, {"time": 169680, "pitch": 38, "duration": 720, "velocity": 100}, {"time": 169680, "pitch": 53, "duration": 720, "velocity": 100}, {"time": 169680, "pitch": 57, "duration": 720, "velocity": 100}, {"time": 169680, "pitch": 60, "duration": 720, "velocity": 100}, {"time": 169680, "pitch": 64, "duration": 720, "velocity": 100}, {"time": 170400, "pitch": 38, "duration": 1200, "velocity": 100}, {"time": 170400, "pitch": 53, "duration": 1200, "velocity": 100}, {"time": 170400, "pitch": 57, "duration": 1200, "velocity": 100}, {"time": 170400, "pitch": 60, "duration": 1200, "velocity": 100}, {"time": 170400, "pitch": 62, "duration": 1200, "velocity": 100}, {"time": 171600, "pitch": 43, "duration": 480, "velocity": 100}, {"time": 171600, "pitch": 53, "duration": 480, "velocity": 100}, {"time": 171600, "pitch": 57, "duration": 480, "velocity": 100}, {"time": 171600, "pitch": 60, "duration": 480, "velocity": 100}, {"time": 172080, "pitch": 43, "duration": 480, "velocity": 100}, {"time": 172080, "pitch": 53, "duration": 480, "velocity": 100}, {"time": 172080, "pitch": 55, "duration": 480, "velocity": 100}, {"time": 172080, "pitch": 59, "duration": 480, "velocity": 100}, {"time": 172560, "pitch": 43, "duration": 480, "velocity": 100}, {"time": 172560, "pitch": 53, "duration": 480, "velocity": 100}, {"time": 172560, "pitch": 57, "duration": 480, "velocity": 100}, {"time": 172560, "pitch": 60, "duration": 480, "velocity": 100}, {"time": 173040, "pitch": 43, "duration": 480, "velocity": 100}, {"time": 173040, "pitch": 55, "duration": 480, "velocity": 100}, {"time": 173040, "pitch": 59, "duration": 480, "velocity": 100}, {"time": 173040, "pitch": 62, "duration": 480, "velocity": 100}, {"time": 173520, "pitch": 41, "duration": 720, "velocity": 100}, {"time": 173520, "pitch": 56, "duration": 720, "velocity": 100}, {"time": 173520, "pitch": 58, "duration": 720, "velocity": 100}, {"time": 173520, "pitch": 60, "duration": 720, "velocity": 100}, {"time": 173520, "pitch": 63, "duration": 720, "velocity": 100}, {"time": 174240, "pitch": 41, "duration": 1200, "velocity": 100}, {"time": 174240, "pitch": 56, "duration": 1200, "velocity": 100}, {"time": 174240, "pitch": 58, "duration": 1200, "velocity": 100}, {"time": 174240, "pitch": 60, "duration": 1200, "velocity": 100}, {"time": 174240, "pitch": 63, "duration": 1200, "velocity": 100}, {"time": 175440, "pitch": 43, "duration": 720, "velocity": 100}, {"time": 175440, "pitch": 58, "duration": 720, "velocity": 100}, {"time": 175440, "pitch": 62, "duration": 720, "velocity": 100}, {"time": 175440, "pitch": 65, "duration": 720, "velocity": 100}, {"time": 176160, "pitch": 43, "duration": 1200, "velocity": 100}, {"time": 176160, "pitch": 53, "duration": 1200, "velocity": 100}, {"time": 176160, "pitch": 58, "duration": 1200, "velocity": 100}, {"time": 176160, "pitch": 62, "duration": 1200, "velocity": 100}, {"time": 177360, "pitch": 36, "duration": 720, "velocity": 100}, {"time": 177360, "pitch": 52, "duration": 720, "velocity": 100}, {"time": 177360, "pitch": 55, "duration": 720, "velocity": 100}, {"time": 177360, "pitch": 60, "duration": 720, "velocity": 100}, {"time": 177360, "pitch": 62, "duration": 720, "velocity": 100}, {"time": 178080, "pitch": 36, "duration": 960, "velocity": 100}, {"time": 178080, "pitch": 52, "duration": 960, "velocity": 100}, {"time": 178080, "pitch": 55, "duration": 960, "velocity": 100}, {"time": 178080, "pitch": 60, "duration": 960, "velocity": 100}, {"time": 178080, "pitch": 64, "duration": 960, "velocity": 100}, {"time": 179040, "pitch": 36, "duration": 480, "velocity": 100}, {"time": 179040, "pitch": 53, "duration": 480, "velocity": 100}, {"time": 179040, "pitch": 55, "duration": 480, "velocity": 100}, {"time": 179040, "pitch": 60, "duration": 480, "velocity": 100}, {"time": 179040, "pitch": 65, "duration": 480, "velocity": 100}, {"time": 179520, "pitch": 36, "duration": 480, "velocity": 100}, {"time": 179520, "pitch": 53, "duration": 480, "velocity": 100}, {"time": 179520, "pitch": 55, "duration": 480, "velocity": 100}, {"time": 179520, "pitch": 60, "duration": 480, "velocity": 100}, {"time": 179520, "pitch": 64, "duration": 240, "velocity": 100}, {"time": 179760, "pitch": 62, "duration": 240, "velocity": 100}, {"time": 180000, "pitch": 36, "duration": 480, "velocity": 100}, {"time": 180000, "pitch": 52, "duration": 1200, "velocity": 100}, {"time": 180000, "pitch": 55, "duration": 1200, "velocity": 100}, {"time": 180000, "pitch": 60, "duration": 1200, "velocity": 100}, {"time": 180000, "pitch": 64, "duration": 1200, "velocity": 100}, {"time": 180480, "pitch": 36, "duration": 720, "velocity": 100}, {"time": 181200, "pitch": 41, "duration": 720, "velocity": 100}, {"time": 181200, "pitch": 56, "duration": 720, "velocity": 100}, {"time": 181200, "pitch": 58, "duration": 720, "velocity": 100}, {"time": 181200, "pitch": 60, "duration": 720, "velocity": 100}, {"time": 181200, "pitch": 63, "duration": 720, "velocity": 100}, {"time": 181920, "pitch": 41, "duration": 1200, "velocity": 100}, {"time": 181920, "pitch": 56, "duration": 1200, "velocity": 100}, {"time": 181920, "pitch": 58, "duration": 1200, "velocity": 100}, {"time": 181920, "pitch": 60, "duration": 1200, "velocity": 100}, {"time": 181920, "pitch": 63, "duration": 1200, "velocity": 100}, {"time": 183120, "pitch": 43, "duration": 720, "velocity": 100}, {"time": 183120, "pitch": 58, "duration": 720, "velocity": 100}, {"time": 183120, "pitch": 62, "duration": 720, "velocity": 100}, {"time": 183120, "pitch": 65, "duration": 720, "velocity": 100}, {"time": 183840, "pitch": 43, "duration": 1200, "velocity": 100}, {"time": 183840, "pitch": 53, "duration": 1200, "velocity": 100}, {"time": 183840, "pitch": 58, "duration": 1200, "velocity": 100}, {"time": 183840, "pitch": 62, "duration": 1200, "velocity": 100}, {"time": 185040, "pitch": 38, "duration": 720, "velocity": 100}, {"time": 185040, "pitch": 53, "duration": 720, "velocity": 100}, {"time": 185040, "pitch": 57, "duration": 720, "velocity": 100}, {"time": 185040, "pitch": 60, "duration": 720, "velocity": 100}, {"time": 185760, "pitch": 38, "duration": 960, "velocity": 100}, {"time": 185760, "pitch": 53, "duration": 960, "velocity": 100}, {"time": 185760, "pitch": 57, "duration": 960, "velocity": 100}, {"time": 185760, "pitch": 60, "duration": 960, "velocity": 100}, {"time": 186720, "pitch": 43, "duration": 720, "velocity": 100}, {"time": 186720, "pitch": 57, "duration": 720, "velocity": 100}, {"time": 186720, "pitch": 60, "duration": 720, "velocity": 100}, {"time": 186720, "pitch": 65, "duration": 720, "velocity": 100}, {"time": 187440, "pitch": 43, "duration": 480, "velocity": 100}, {"time": 187440, "pitch": 55, "duration": 480, "velocity": 100}, {"time": 187440, "pitch": 59, "duration": 480, "velocity": 100}, {"time": 187440, "pitch": 64, "duration": 480, "velocity": 100}, {"time": 187920, "pitch": 43, "duration": 480, "velocity": 100}, {"time": 187920, "pitch": 57, "duration": 480, "velocity": 100}, {"time": 187920, "pitch": 60, "duration": 480, "velocity": 100}, {"time": 187920, "pitch": 65, "duration": 480, "velocity": 100}, {"time": 188400, "pitch": 43, "duration": 480, "velocity": 100}, {"time": 188400, "pitch": 59, "duration": 480, "velocity": 100}, {"time": 188400, "pitch": 62, "duration": 480, "velocity": 100}, {"time": 188400, "pitch": 67, "duration": 480, "velocity": 100}, {"time": 188880, "pitch": 48, "duration": 720, "velocity": 100}, {"time": 188880, "pitch": 64, "duration": 720, "velocity": 100}, {"time": 188880, "pitch": 67, "duration": 720, "velocity": 100}, {"time": 188880, "pitch": 72, "duration": 720, "velocity": 100}, {"time": 189600, "pitch": 47, "duration": 1200, "velocity": 100}, {"time": 189600, "pitch": 62, "duration": 1200, "velocity": 100}, {"time": 189600, "pitch": 67, "duration": 1200, "velocity": 100}, {"time": 189600, "pitch": 71, "duration": 1200, "velocity": 100}, {"time": 190800, "pitch": 45, "duration": 720, "velocity": 100}, {"time": 190800, "pitch": 60, "duration": 720, "velocity": 100}, {"time": 190800, "pitch": 64, "duration": 720, "velocity": 100}, {"time": 190800, "pitch": 69, "duration": 720, "velocity": 100}, {"time": 191520, "pitch": 43, "duration": 1200, "velocity": 100}, {"time": 191520, "pitch": 59, "duration": 1200, "velocity": 100}, {"time": 191520, "pitch": 64, "duration": 1200, "velocity": 100}, {"time": 191520, "pitch": 67, "duration": 1200, "velocity": 100}, {"time": 192720, "pitch": 41, "duration": 720, "velocity": 100}, {"time": 192720, "pitch": 57, "duration": 720, "velocity": 100}, {"time": 192720, "pitch": 60, "duration": 720, "velocity": 100}, {"time": 192720, "pitch": 65, "duration": 720, "velocity": 100}, {"time": 193440, "pitch": 40, "duration": 1200, "velocity": 100}, {"time": 193440, "pitch": 55, "duration": 1200, "velocity": 100}, {"time": 193440, "pitch": 60, "duration": 1200, "velocity": 100}, {"time": 193440, "pitch": 64, "duration": 1200, "velocity": 100}, {"time": 194640, "pitch": 38, "duration": 720, "velocity": 100}, {"time": 194640, "pitch": 57, "duration": 720, "velocity": 100}, {"time": 194640, "pitch": 60, "duration": 720, "velocity": 100}, {"time": 194640, "pitch": 65, "duration": 720, "velocity": 100}, {"time": 195360, "pitch": 43, "duration": 720, "velocity": 100}, {"time": 195360, "pitch": 57, "duration": 720, "velocity": 100}, {"time": 195360, "pitch": 60, "duration": 720, "velocity": 100}, {"time": 195360, "pitch": 65, "duration": 720, "velocity": 100}, {"time": 196080, "pitch": 41, "duration": 480, "velocity": 100}, {"time": 196080, "pitch": 57, "duration": 480, "velocity": 100}, {"time": 196080, "pitch": 60, "duration": 480, "velocity": 100}, {"time": 196080, "pitch": 65, "duration": 480, "velocity": 100}, {"time": 196560, "pitch": 40, "duration": 720, "velocity": 100}, {"time": 196560, "pitch": 55, "duration": 720, "velocity": 100}, {"time": 196560, "pitch": 59, "duration": 720, "velocity": 100}, {"time": 196560, "pitch": 62, "duration": 720, "velocity": 100}, {"time": 197280, "pitch": 40, "duration": 1200, "velocity": 100}, {"time": 197280, "pitch": 55, "duration": 1200, "velocity": 100}, {"time": 197280, "pitch": 59, "duration": 1200, "velocity": 100}, {"time": 197280, "pitch": 62, "duration": 720, "velocity": 100}, {"time": 198000, "pitch": 62, "duration": 480, "velocity": 100}, {"time": 198000, "pitch": 67, "duration": 480, "velocity": 100}, {"time": 198480, "pitch": 45, "duration": 720, "velocity": 100}, {"time": 198480, "pitch": 55, "duration": 720, "velocity": 100}, {"time": 198480, "pitch": 60, "duration": 720, "velocity": 100}, {"time": 198480, "pitch": 64, "duration": 720, "velocity": 100}, {"time": 199200, "pitch": 43, "duration": 1200, "velocity": 100}, {"time": 199200, "pitch": 55, "duration": 1200, "velocity": 100}, {"time": 199200, "pitch": 60, "duration": 1200, "velocity": 100}, {"time": 199200, "pitch": 64, "duration": 1200, "velocity": 100}, {"time": 200400, "pitch": 38, "duration": 720, "velocity": 100}, {"time": 200400, "pitch": 53, "duration": 720, "velocity": 100}, {"time": 200400, "pitch": 57, "duration": 720, "velocity": 100}, {"time": 200400, "pitch": 60, "duration": 720, "velocity": 100}, {"time": 200400, "pitch": 64, "duration": 720, "velocity": 100}, {"time": 201120, "pitch": 38, "duration": 1200, "velocity": 100}, {"time": 201120, "pitch": 53, "duration": 1200, "velocity": 100}, {"time": 201120, "pitch": 57, "duration": 1200, "velocity": 100}, {"time": 201120, "pitch": 60, "duration": 1200, "velocity": 100}, {"time": 201120, "pitch": 62, "duration": 1200, "velocity": 100}, {"time": 202320, "pitch": 43, "duration": 480, "velocity": 100}, {"time": 202320, "pitch": 53, "duration": 480, "velocity": 100}, {"time": 202320, "pitch": 57, "duration": 480, "velocity": 100}, {"time": 202320, "pitch": 60, "duration": 480, "velocity": 100}, {"time": 202800, "pitch": 43, "duration": 480, "velocity": 100}, {"time": 202800, "pitch": 53, "duration": 480, "velocity": 100}, {"time": 202800, "pitch": 55, "duration": 480, "velocity": 100}, {"time": 202800, "pitch": 59, "duration": 480, "velocity": 100}, {"time": 203280, "pitch": 43, "duration": 480, "velocity": 100}, {"time": 203280, "pitch": 53, "duration": 480, "velocity": 100}, {"time": 203280, "pitch": 57, "duration": 480, "velocity": 100}, {"time": 203280, "pitch": 60, "duration": 480, "velocity": 100}, {"time": 203760, "pitch": 43, "duration": 480, "velocity": 100}, {"time": 203760, "pitch": 55, "duration": 480, "velocity": 100}, {"time": 203760, "pitch": 59, "duration": 480, "velocity": 100}, {"time": 203760, "pitch": 62, "duration": 480, "velocity": 100}, {"time": 204240, "pitch": 48, "duration": 720, "velocity": 100}, {"time": 204240, "pitch": 64, "duration": 720, "velocity": 100}, {"time": 204240, "pitch": 67, "duration": 720, "velocity": 100}, {"time": 204240, "pitch": 72, "duration": 720, "velocity": 100}, {"time": 204960, "pitch": 47, "duration": 1200, "velocity": 100}, {"time": 204960, "pitch": 62, "duration": 1200, "velocity": 100}, {"time": 204960, "pitch": 67, "duration": 1200, "velocity": 100}, {"time": 204960, "pitch": 71, "duration": 1200, "velocity": 100}, {"time": 206160, "pitch": 45, "duration": 720, "velocity": 100}, {"time": 206160, "pitch": 60, "duration": 720, "velocity": 100}, {"time": 206160, "pitch": 64, "duration": 720, "velocity": 100}, {"time": 206160, "pitch": 69, "duration": 720, "velocity": 100}, {"time": 206880, "pitch": 43, "duration": 1200, "velocity": 100}, {"time": 206880, "pitch": 59, "duration": 1200, "velocity": 100}, {"time": 206880, "pitch": 64, "duration": 1200, "velocity": 100}, {"time": 206880, "pitch": 67, "duration": 1200, "velocity": 100}, {"time": 208080, "pitch": 41, "duration": 720, "velocity": 100}, {"time": 208080, "pitch": 57, "duration": 720, "velocity": 100}, {"time": 208080, "pitch": 60, "duration": 720, "velocity": 100}, {"time": 208080, "pitch": 65, "duration": 720, "velocity": 100}, {"time": 208800, "pitch": 40, "duration": 1200, "velocity": 100}, {"time": 208800, "pitch": 55, "duration": 1200, "velocity": 100}, {"time": 208800, "pitch": 60, "duration": 1200, "velocity": 100}, {"time": 208800, "pitch": 64, "duration": 1200, "velocity": 100}, {"time": 210000, "pitch": 38, "duration": 720, "velocity": 100}, {"time": 210000, "pitch": 57, "duration": 720, "velocity": 100}, {"time": 210000, "pitch": 60, "duration": 720, "velocity": 100}, {"time": 210000, "pitch": 65, "duration": 720, "velocity": 100}, {"time": 210720, "pitch": 43, "duration": 720, "velocity": 100}, {"time": 210720, "pitch": 57, "duration": 720, "velocity": 100}, {"time": 210720, "pitch": 60, "duration": 720, "velocity": 100}, {"time": 210720, "pitch": 65, "duration": 720, "velocity": 100}, {"time": 211440, "pitch": 41, "duration": 480, "velocity": 100}, {"time": 211440, "pitch": 57, "duration": 480, "velocity": 100}, {"time": 211440, "pitch": 60, "duration": 480, "velocity": 100}, {"time": 211440, "pitch": 65, "duration": 480, "velocity": 100}, {"time": 211920, "pitch": 40, "duration": 720, "velocity": 100}, {"time": 211920, "pitch": 55, "duration": 720, "velocity": 100}, {"time": 211920, "pitch": 59, "duration": 720, "velocity": 100}, {"time": 211920, "pitch": 62, "duration": 720, "velocity": 100}, {"time": 212640, "pitch": 40, "duration": 1200, "velocity": 100}, {"time": 212640, "pitch": 55, "duration": 1200, "velocity": 100}, {"time": 212640, "pitch": 59, "duration": 1200, "velocity": 100}, {"time": 212640, "pitch": 62, "duration": 720, "velocity": 100}, {"time": 213360, "pitch": 62, "duration": 480, "velocity": 100}, {"time": 213360, "pitch": 67, "duration": 480, "velocity": 100}, {"time": 213840, "pitch": 45, "duration": 720, "velocity": 100}, {"time": 213840, "pitch": 55, "duration": 720, "velocity": 100}, {"time": 213840, "pitch": 60, "duration": 720, "velocity": 100}, {"time": 213840, "pitch": 64, "duration": 720, "velocity": 100}, {"time": 214560, "pitch": 43, "duration": 1200, "velocity": 100}, {"time": 214560, "pitch": 55, "duration": 1200, "velocity": 100}, {"time": 214560, "pitch": 60, "duration": 1200, "velocity": 100}, {"time": 214560, "pitch": 64, "duration": 1200, "velocity": 100}, {"time": 215760, "pitch": 38, "duration": 720, "velocity": 100}, {"time": 215760, "pitch": 53, "duration": 720, "velocity": 100}, {"time": 215760, "pitch": 57, "duration": 720, "velocity": 100}, {"time": 215760, "pitch": 60, "duration": 720, "velocity": 100}, {"time": 215760, "pitch": 64, "duration": 720, "velocity": 100}, {"time": 216480, "pitch": 38, "duration": 1200, "velocity": 100}, {"time": 216480, "pitch": 53, "duration": 1200, "velocity": 100}, {"time": 216480, "pitch": 57, "duration": 1200, "velocity": 100}, {"time": 216480, "pitch": 60, "duration": 1200, "velocity": 100}, {"time": 216480, "pitch": 62, "duration": 1200, "velocity": 100}, {"time": 217680, "pitch": 43, "duration": 480, "velocity": 100}, {"time": 217680, "pitch": 53, "duration": 480, "velocity": 100}, {"time": 217680, "pitch": 57, "duration": 480, "velocity": 100}, {"time": 217680, "pitch": 60, "duration": 480, "velocity": 100}, {"time": 218160, "pitch": 43, "duration": 480, "velocity": 100}, {"time": 218160, "pitch": 53, "duration": 480, "velocity": 100}, {"time": 218160, "pitch": 55, "duration": 480, "velocity": 100}, {"time": 218160, "pitch": 59, "duration": 480, "velocity": 100}, {"time": 218640, "pitch": 43, "duration": 480, "velocity": 100}, {"time": 218640, "pitch": 53, "duration": 480, "velocity": 100}, {"time": 218640, "pitch": 57, "duration": 480, "velocity": 100}, {"time": 218640, "pitch": 60, "duration": 480, "velocity": 100}, {"time": 219120, "pitch": 43, "duration": 480, "velocity": 100}, {"time": 219120, "pitch": 55, "duration": 480, "velocity": 100}, {"time": 219120, "pitch": 59, "duration": 480, "velocity": 100}, {"time": 219120, "pitch": 62, "duration": 480, "velocity": 100}, {"time": 219600, "pitch": 48, "duration": 720, "velocity": 100}, {"time": 219600, "pitch": 64, "duration": 720, "velocity": 100}, {"time": 219600, "pitch": 67, "duration": 720, "velocity": 100}, {"time": 219600, "pitch": 72, "duration": 720, "velocity": 100}, {"time": 220320, "pitch": 47, "duration": 1200, "velocity": 100}, {"time": 220320, "pitch": 62, "duration": 1200, "velocity": 100}, {"time": 220320, "pitch": 67, "duration": 1200, "velocity": 100}, {"time": 220320, "pitch": 71, "duration": 1200, "velocity": 100}, {"time": 221520, "pitch": 45, "duration": 720, "velocity": 100}, {"time": 221520, "pitch": 60, "duration": 720, "velocity": 100}, {"time": 221520, "pitch": 64, "duration": 720, "velocity": 100}, {"time": 221520, "pitch": 69, "duration": 720, "velocity": 100}, {"time": 222240, "pitch": 43, "duration": 1200, "velocity": 100}, {"time": 222240, "pitch": 59, "duration": 1200, "velocity": 100}, {"time": 222240, "pitch": 64, "duration": 1200, "velocity": 100}, {"time": 222240, "pitch": 67, "duration": 1200, "velocity": 100}, {"time": 223440, "pitch": 41, "duration": 720, "velocity": 100}, {"time": 223440, "pitch": 57, "duration": 720, "velocity": 100}, {"time": 223440, "pitch": 60, "duration": 720, "velocity": 100}, {"time": 223440, "pitch": 65, "duration": 720, "velocity": 100}, {"time": 224160, "pitch": 40, "duration": 1189, "velocity": 100}, {"time": 224160, "pitch": 55, "duration": 1189, "velocity": 100}, {"time": 224160, "pitch": 60, "duration": 1189, "velocity": 100}, {"time": 224160, "pitch": 64, "duration": 1189, "velocity": 100}, {"time": 225349, "pitch": 38, "duration": 731, "velocity": 100}, {"time": 225349, "pitch": 53, "duration": 731, "velocity": 100}, {"time": 225349, "pitch": 57, "duration": 731, "velocity": 100}, {"time": 225349, "pitch": 62, "duration": 731, "velocity": 100}, {"time": 226080, "pitch": 43, "duration": 1345, "velocity": 100}, {"time": 226080, "pitch": 53, "duration": 1345, "velocity": 100}, {"time": 226080, "pitch": 60, "duration": 1345, "velocity": 100}, {"time": 226080, "pitch": 67, "duration": 1345, "velocity": 100}, {"time": 227425, "pitch": 31, "duration": 1396, "velocity": 80}, {"time": 227425, "pitch": 53, "duration": 1396, "velocity": 80}, {"time": 227425, "pitch": 59, "duration": 1396, "velocity": 80}, {"time": 227425, "pitch": 67, "duration": 1396, "velocity": 80}, {"time": 228821, "pitch": 36, "duration": 3853, "velocity": 80}, {"time": 228821, "pitch": 52, "duration": 3853, "velocity": 80}, {"time": 228821, "pitch": 60, "duration": 3853, "velocity": 80}, {"time": 228821, "pitch": 62, "duration": 3853, "velocity": 80}, {"time": 228821, "pitch": 67, "duration": 3853, "velocity": 80}, {"time": 2400, "pitch": 36, "duration": 960, "velocity": 110}, {"time": 3360, "pitch": 35, "duration": 1200, "velocity": 110}, {"time": 4560, "pitch": 33, "duration": 720, "velocity": 110}, {"time": 5280, "pitch": 31, "duration": 1200, "velocity": 110}, {"time": 6480, "pitch": 29, "duration": 720, "velocity": 110}, {"time": 7200, "pitch": 28, "duration": 1200, "velocity": 110}, {"time": 8400, "pitch": 26, "duration": 720, "velocity": 110}, {"time": 9120, "pitch": 31, "duration": 1200, "velocity": 110}, {"time": 10320, "pitch": 43, "duration": 1920, "velocity": 110}, {"time": 12240, "pitch": 36, "duration": 480, "velocity": 110}, {"time": 12960, "pitch": 36, "duration": 720, "velocity": 110}, {"time": 13680, "pitch": 38, "duration": 240, "velocity": 110}, {"time": 13920, "pitch": 39, "duration": 240, "velocity": 110}, {"time": 14160, "pitch": 40, "duration": 480, "velocity": 110}, {"time": 14880, "pitch": 28, "duration": 1200, "velocity": 110}, {"time": 16080, "pitch": 33, "duration": 480, "velocity": 110}, {"time": 16800, "pitch": 33, "duration": 480, "velocity": 110}, {"time": 17280, "pitch": 33, "duration": 240, "velocity": 110}, {"time": 17520, "pitch": 34, "duration": 240, "velocity": 110}, {"time": 17760, "pitch": 35, "duration": 240, "velocity": 110}, {"time": 18000, "pitch": 48, "duration": 240, "velocity": 110}, {"time": 18240, "pitch": 46, "duration": 240, "velocity": 110}, {"time": 18480, "pitch": 43, "duration": 240, "velocity": 110}, {"time": 18720, "pitch": 36, "duration": 720, "velocity": 110}, {"time": 19440, "pitch": 31, "duration": 480, "velocity": 110}, {"time": 19920, "pitch": 29, "duration": 480, "velocity": 110}, {"time": 20640, "pitch": 29, "duration": 720, "velocity": 110}, {"time": 21360, "pitch": 29, "duration": 480, "velocity": 110}, {"time": 21840, "pitch": 28, "duration": 240, "velocity": 110}, {"time": 22080, "pitch": 31, "duration": 240, "velocity": 110}, {"time": 22320, "pitch": 32, "duration": 240, "velocity": 110}, {"time": 22560, "pitch": 33, "duration": 480, "velocity": 110}, {"time": 23040, "pitch": 33, "duration": 240, "velocity": 110}, {"time": 23280, "pitch": 36, "duration": 240, "velocity": 110}, {"time": 23520, "pitch": 37, "duration": 240, "velocity": 110}, {"time": 23760, "pitch": 38, "duration": 480, "velocity": 110}, {"time": 24480, "pitch": 38, "duration": 480, "velocity": 110}, {"time": 24960, "pitch": 33, "duration": 240, "velocity": 110}, {"time": 25200, "pitch": 38, "duration": 480, "velocity": 110}, {"time": 25680, "pitch": 31, "duration": 480, "velocity": 110}, {"time": 26160, "pitch": 38, "duration": 240, "velocity": 110}, {"time": 26400, "pitch": 43, "duration": 480, "velocity": 110}, {"time": 26880, "pitch": 38, "duration": 240, "velocity": 110}, {"time": 27120, "pitch": 31, "duration": 480, "velocity": 110}, {"time": 27600, "pitch": 36, "duration": 480, "velocity": 110}, {"time": 28320, "pitch": 36, "duration": 480, "velocity": 110}, {"time": 28800, "pitch": 36, "duration": 240, "velocity": 110}, {"time": 29040, "pitch": 38, "duration": 240, "velocity": 110}, {"time": 29280, "pitch": 39, "duration": 240, "velocity": 110}, {"time": 29520, "pitch": 40, "duration": 240, "velocity": 110}, {"time": 29760, "pitch": 35, "duration": 240, "velocity": 110}, {"time": 30000, "pitch": 32, "duration": 240, "velocity": 110}, {"time": 30240, "pitch": 28, "duration": 960, "velocity": 110}, {"time": 31200, "pitch": 32, "duration": 240, "velocity": 110}, {"time": 31440, "pitch": 33, "duration": 480, "velocity": 110}, {"time": 32160, "pitch": 33, "duration": 480, "velocity": 110}, {"time": 32640, "pitch": 33, "duration": 240, "velocity": 110}, {"time": 32880, "pitch": 34, "duration": 240, "velocity": 110}, {"time": 33120, "pitch": 35, "duration": 240, "velocity": 110}, {"time": 33360, "pitch": 36, "duration": 240, "velocity": 110}, {"time": 33600, "pitch": 31, "duration": 240, "velocity": 110}, {"time": 33840, "pitch": 36, "duration": 240, "velocity": 110}, {"time": 34080, "pitch": 48, "duration": 720, "velocity": 110}, {"time": 34800, "pitch": 36, "duration": 480, "velocity": 110}, {"time": 35280, "pitch": 29, "duration": 480, "velocity": 110}, {"time": 36000, "pitch": 29, "duration": 720, "velocity": 110}, {"time": 36720, "pitch": 38, "duration": 240, "velocity": 110}, {"time": 36960, "pitch": 39, "duration": 240, "velocity": 110}, {"time": 37200, "pitch": 40, "duration": 240, "velocity": 110}, {"time": 37440, "pitch": 28, "duration": 240, "velocity": 110}, {"time": 37680, "pitch": 31, "duration": 240, "velocity": 110}, {"time": 37920, "pitch": 33, "duration": 480, "velocity": 110}, {"time": 38400, "pitch": 28, "duration": 240, "velocity": 110}, {"time": 38640, "pitch": 33, "duration": 480, "velocity": 110}, {"time": 39120, "pitch": 38, "duration": 480, "velocity": 110}, {"time": 39840, "pitch": 31, "duration": 480, "velocity": 110}, {"time": 40320, "pitch": 38, "duration": 240, "velocity": 110}, {"time": 40560, "pitch": 31, "duration": 480, "velocity": 110}, {"time": 41040, "pitch": 36, "duration": 480, "velocity": 110}, {"time": 41760, "pitch": 48, "duration": 480, "velocity": 110}, {"time": 42240, "pitch": 43, "duration": 240, "velocity": 110}, {"time": 42480, "pitch": 36, "duration": 480, "velocity": 110}, {"time": 42960, "pitch": 41, "duration": 480, "velocity": 110}, {"time": 43680, "pitch": 41, "duration": 1200, "velocity": 110}, {"time": 44880, "pitch": 40, "duration": 480, "velocity": 110}, {"time": 45600, "pitch": 40, "duration": 1200, "velocity": 110}, {"time": 46800, "pitch": 38, "duration": 480, "velocity": 110}, {"time": 47520, "pitch": 40, "duration": 720, "velocity": 110}, {"time": 48240, "pitch": 44, "duration": 480, "velocity": 110}, {"time": 48720, "pitch": 45, "duration": 480, "velocity": 110}, {"time": 49440, "pitch": 36, "duration": 480, "velocity": 110}, {"time": 49920, "pitch": 31, "duration": 240, "velocity": 110}, {"time": 50160, "pitch": 36, "duration": 480, "velocity": 110}, {"time": 50640, "pitch": 41, "duration": 480, "velocity": 110}, {"time": 51360, "pitch": 41, "duration": 720, "velocity": 110}, {"time": 52080, "pitch": 38, "duration": 240, "velocity": 110}, {"time": 52320, "pitch": 39, "duration": 240, "velocity": 110}, {"time": 52560, "pitch": 40, "duration": 240, "velocity": 110}, {"time": 52800, "pitch": 43, "duration": 240, "velocity": 110}, {"time": 53040, "pitch": 44, "duration": 240, "velocity": 110}, {"time": 53280, "pitch": 45, "duration": 720, "velocity": 110}, {"time": 54000, "pitch": 33, "duration": 480, "velocity": 110}, {"time": 54480, "pitch": 38, "duration": 480, "velocity": 110}, {"time": 55200, "pitch": 38, "duration": 480, "velocity": 110}, {"time": 55680, "pitch": 33, "duration": 240, "velocity": 110}, {"time": 55920, "pitch": 38, "duration": 480, "velocity": 110}, {"time": 56400, "pitch": 43, "duration": 480, "velocity": 110}, {"time": 56880, "pitch": 31, "duration": 480, "velocity": 110}, {"time": 57360, "pitch": 33, "duration": 480, "velocity": 110}, {"time": 57840, "pitch": 35, "duration": 480, "velocity": 110}, {"time": 58320, "pitch": 36, "duration": 480, "velocity": 110}, {"time": 59040, "pitch": 35, "duration": 1200, "velocity": 110}, {"time": 60240, "pitch": 33, "duration": 480, "velocity": 110}, {"time": 60960, "pitch": 31, "duration": 1200, "velocity": 110}, {"time": 62160, "pitch": 41, "duration": 480, "velocity": 110}, {"time": 62880, "pitch": 40, "duration": 1200, "velocity": 110}, {"time": 64080, "pitch": 38, "duration": 480, "velocity": 110}, {"time": 64800, "pitch": 31, "duration": 720, "velocity": 110}, {"time": 65520, "pitch": 29, "duration": 480, "velocity": 110}, {"time": 66000, "pitch": 28, "duration": 480, "velocity": 110}, {"time": 66720, "pitch": 28, "duration": 480, "velocity": 110}, {"time": 67200, "pitch": 28, "duration": 240, "velocity": 110}, {"time": 67440, "pitch": 31, "duration": 240, "velocity": 110}, {"time": 67680, "pitch": 32, "duration": 240, "velocity": 110}, {"time": 67920, "pitch": 33, "duration": 480, "velocity": 110}, {"time": 68640, "pitch": 31, "duration": 480, "velocity": 110}, {"time": 69120, "pitch": 36, "duration": 240, "velocity": 110}, {"time": 69360, "pitch": 31, "duration": 480, "velocity": 110}, {"time": 69840, "pitch": 38, "duration": 480, "velocity": 110}, {"time": 70560, "pitch": 38, "duration": 480, "velocity": 110}, {"time": 71040, "pitch": 40, "duration": 240, "velocity": 110}, {"time": 71280, "pitch": 41, "duration": 240, "velocity": 110}, {"time": 71520, "pitch": 42, "duration": 240, "velocity": 110}, {"time": 71760, "pitch": 43, "duration": 240, "velocity": 110}, {"time": 72000, "pitch": 48, "duration": 240, "velocity": 110}, {"time": 72240, "pitch": 47, "duration": 240, "velocity": 110}, {"time": 72480, "pitch": 31, "duration": 480, "velocity": 110}, {"time": 72960, "pitch": 31, "duration": 240, "velocity": 110}, {"time": 73200, "pitch": 33, "duration": 240, "velocity": 110}, {"time": 73440, "pitch": 35, "duration": 240, "velocity": 110}, {"time": 73680, "pitch": 36, "duration": 240, "velocity": 110}, {"time": 73920, "pitch": 31, "duration": 240, "velocity": 110}, {"time": 74160, "pitch": 36, "duration": 240, "velocity": 110}, {"time": 74400, "pitch": 35, "duration": 480, "velocity": 110}, {"time": 74880, "pitch": 31, "duration": 240, "velocity": 110}, {"time": 75120, "pitch": 35, "duration": 480, "velocity": 110}, {"time": 75600, "pitch": 33, "duration": 240, "velocity": 110}, {"time": 75840, "pitch": 40, "duration": 240, "velocity": 110}, {"time": 76080, "pitch": 45, "duration": 240, "velocity": 110}, {"time": 76320, "pitch": 43, "duration": 480, "velocity": 110}, {"time": 76800, "pitch": 40, "duration": 240, "velocity": 110}, {"time": 77040, "pitch": 43, "duration": 480, "velocity": 110}, {"time": 77520, "pitch": 41, "duration": 240, "velocity": 110}, {"time": 77760, "pitch": 36, "duration": 240, "velocity": 110}, {"time": 78000, "pitch": 41, "duration": 240, "velocity": 110}, {"time": 78240, "pitch": 40, "duration": 480, "velocity": 110}, {"time": 78720, "pitch": 36, "duration": 240, "velocity": 110}, {"time": 78960, "pitch": 31, "duration": 480, "velocity": 110}, {"time": 79440, "pitch": 38, "duration": 240, "velocity": 110}, {"time": 79680, "pitch": 40, "duration": 240, "velocity": 110}, {"time": 79920, "pitch": 41, "duration": 240, "velocity": 110}, {"time": 80160, "pitch": 43, "duration": 480, "velocity": 110}, {"time": 80640, "pitch": 31, "duration": 240, "velocity": 110}, {"time": 80880, "pitch": 41, "duration": 480, "velocity": 110}, {"time": 81360, "pitch": 40, "duration": 480, "velocity": 110}, {"time": 82080, "pitch": 40, "duration": 480, "velocity": 110}, {"time": 82560, "pitch": 28, "duration": 240, "velocity": 110}, {"time": 82800, "pitch": 31, "duration": 240, "velocity": 110}, {"time": 83040, "pitch": 32, "duration": 240, "velocity": 110}, {"time": 83280, "pitch": 33, "duration": 240, "velocity": 110}, {"time": 83520, "pitch": 40, "duration": 240, "velocity": 110}, {"time": 83760, "pitch": 45, "duration": 240, "velocity": 110}, {"time": 84000, "pitch": 31, "duration": 480, "velocity": 110}, {"time": 84480, "pitch": 43, "duration": 240, "velocity": 110}, {"time": 84720, "pitch": 31, "duration": 480, "velocity": 110}, {"time": 85200, "pitch": 38, "duration": 480, "velocity": 110}, {"time": 85920, "pitch": 38, "duration": 480, "velocity": 110}, {"time": 86400, "pitch": 40, "duration": 240, "velocity": 110}, {"time": 86640, "pitch": 41, "duration": 240, "velocity": 110}, {"time": 86880, "pitch": 42, "duration": 240, "velocity": 110}, {"time": 87120, "pitch": 43, "duration": 480, "velocity": 110}, {"time": 87600, "pitch": 31, "duration": 480, "velocity": 110}, {"time": 88080, "pitch": 33, "duration": 480, "velocity": 110}, {"time": 88560, "pitch": 35, "duration": 480, "velocity": 110}, {"time": 89040, "pitch": 36, "duration": 480, "velocity": 110}, {"time": 89760, "pitch": 35, "duration": 1200, "velocity": 110}, {"time": 90960, "pitch": 33, "duration": 480, "velocity": 110}, {"time": 91680, "pitch": 31, "duration": 1200, "velocity": 110}, {"time": 92880, "pitch": 41, "duration": 480, "velocity": 110}, {"time": 93600, "pitch": 40, "duration": 1200, "velocity": 110}, {"time": 94800, "pitch": 38, "duration": 480, "velocity": 110}, {"time": 95520, "pitch": 31, "duration": 1200, "velocity": 110}, {"time": 96720, "pitch": 36, "duration": 480, "velocity": 110}, {"time": 97440, "pitch": 36, "duration": 720, "velocity": 110}, {"time": 98160, "pitch": 38, "duration": 240, "velocity": 110}, {"time": 98400, "pitch": 39, "duration": 240, "velocity": 110}, {"time": 98640, "pitch": 40, "duration": 480, "velocity": 110}, {"time": 99360, "pitch": 28, "duration": 1200, "velocity": 110}, {"time": 100560, "pitch": 33, "duration": 480, "velocity": 110}, {"time": 101280, "pitch": 33, "duration": 480, "velocity": 110}, {"time": 101760, "pitch": 33, "duration": 240, "velocity": 110}, {"time": 102000, "pitch": 34, "duration": 240, "velocity": 110}, {"time": 102240, "pitch": 35, "duration": 240, "velocity": 110}, {"time": 102480, "pitch": 48, "duration": 240, "velocity": 110}, {"time": 102720, "pitch": 46, "duration": 240, "velocity": 110}, {"time": 102960, "pitch": 43, "duration": 240, "velocity": 110}, {"time": 103200, "pitch": 36, "duration": 720, "velocity": 110}, {"time": 103920, "pitch": 31, "duration": 480, "velocity": 110}, {"time": 104400, "pitch": 29, "duration": 480, "velocity": 110}, {"time": 105120, "pitch": 29, "duration": 720, "velocity": 110}, {"time": 105840, "pitch": 29, "duration": 480, "velocity": 110}, {"time": 106320, "pitch": 28, "duration": 240, "velocity": 110}, {"time": 106560, "pitch": 31, "duration": 240, "velocity": 110}, {"time": 106800, "pitch": 32, "duration": 240, "velocity": 110}, {"time": 107040, "pitch": 33, "duration": 480, "velocity": 110}, {"time": 107520, "pitch": 33, "duration": 240, "velocity": 110}, {"time": 107760, "pitch": 36, "duration": 240, "velocity": 110}, {"time": 108000, "pitch": 37, "duration": 240, "velocity": 110}, {"time": 108240, "pitch": 38, "duration": 480, "velocity": 110}, {"time": 108960, "pitch": 38, "duration": 480, "velocity": 110}, {"time": 109440, "pitch": 33, "duration": 240, "velocity": 110}, {"time": 109680, "pitch": 38, "duration": 480, "velocity": 110}, {"time": 110160, "pitch": 31, "duration": 480, "velocity": 110}, {"time": 110640, "pitch": 38, "duration": 240, "velocity": 110}, {"time": 110880, "pitch": 43, "duration": 480, "velocity": 110}, {"time": 111360, "pitch": 38, "duration": 240, "velocity": 110}, {"time": 111600, "pitch": 31, "duration": 480, "velocity": 110}, {"time": 112080, "pitch": 36, "duration": 480, "velocity": 110}, {"time": 112800, "pitch": 36, "duration": 480, "velocity": 110}, {"time": 113280, "pitch": 36, "duration": 240, "velocity": 110}, {"time": 113520, "pitch": 38, "duration": 240, "velocity": 110}, {"time": 113760, "pitch": 39, "duration": 240, "velocity": 110}, {"time": 114000, "pitch": 40, "duration": 240, "velocity": 110}, {"time": 114240, "pitch": 35, "duration": 240, "velocity": 110}, {"time": 114480, "pitch": 32, "duration": 240, "velocity": 110}, {"time": 114720, "pitch": 28, "duration": 960, "velocity": 110}, {"time": 115680, "pitch": 32, "duration": 240, "velocity": 110}, {"time": 115920, "pitch": 33, "duration": 480, "velocity": 110}, {"time": 116640, "pitch": 33, "duration": 480, "velocity": 110}, {"time": 117120, "pitch": 33, "duration": 240, "velocity": 110}, {"time": 117360, "pitch": 34, "duration": 240, "velocity": 110}, {"time": 117600, "pitch": 35, "duration": 240, "velocity": 110}, {"time": 117840, "pitch": 36, "duration": 240, "velocity": 110}, {"time": 118080, "pitch": 31, "duration": 240, "velocity": 110}, {"time": 118320, "pitch": 36, "duration": 240, "velocity": 110}, {"time": 118560, "pitch": 48, "duration": 720, "velocity": 110}, {"time": 119280, "pitch": 36, "duration": 480, "velocity": 110}, {"time": 119760, "pitch": 29, "duration": 480, "velocity": 110}, {"time": 120480, "pitch": 29, "duration": 720, "velocity": 110}, {"time": 121200, "pitch": 38, "duration": 240, "velocity": 110}, {"time": 121440, "pitch": 39, "duration": 240, "velocity": 110}, {"time": 121680, "pitch": 40, "duration": 240, "velocity": 110}, {"time": 121920, "pitch": 28, "duration": 240, "velocity": 110}, {"time": 122160, "pitch": 31, "duration": 240, "velocity": 110}, {"time": 122400, "pitch": 33, "duration": 480, "velocity": 110}, {"time": 122880, "pitch": 28, "duration": 240, "velocity": 110}, {"time": 123120, "pitch": 33, "duration": 480, "velocity": 110}, {"time": 123600, "pitch": 38, "duration": 480, "velocity": 110}, {"time": 124320, "pitch": 31, "duration": 480, "velocity": 110}, {"time": 124800, "pitch": 38, "duration": 240, "velocity": 110}, {"time": 125040, "pitch": 31, "duration": 480, "velocity": 110}, {"time": 125520, "pitch": 36, "duration": 480, "velocity": 110}, {"time": 126240, "pitch": 48, "duration": 480, "velocity": 110}, {"time": 126720, "pitch": 43, "duration": 240, "velocity": 110}, {"time": 126960, "pitch": 36, "duration": 480, "velocity": 110}, {"time": 127440, "pitch": 41, "duration": 480, "velocity": 110}, {"time": 128160, "pitch": 41, "duration": 1200, "velocity": 110}, {"time": 129360, "pitch": 40, "duration": 480, "velocity": 110}, {"time": 130080, "pitch": 40, "duration": 1200, "velocity": 110}, {"time": 131280, "pitch": 38, "duration": 480, "velocity": 110}, {"time": 132000, "pitch": 40, "duration": 720, "velocity": 110}, {"time": 132720, "pitch": 44, "duration": 480, "velocity": 110}, {"time": 133200, "pitch": 45, "duration": 480, "velocity": 110}, {"time": 133920, "pitch": 36, "duration": 480, "velocity": 110}, {"time": 134400, "pitch": 31, "duration": 240, "velocity": 110}, {"time": 134640, "pitch": 36, "duration": 480, "velocity": 110}, {"time": 135120, "pitch": 41, "duration": 480, "velocity": 110}, {"time": 135840, "pitch": 41, "duration": 720, "velocity": 110}, {"time": 136560, "pitch": 38, "duration": 240, "velocity": 110}, {"time": 136800, "pitch": 39, "duration": 240, "velocity": 110}, {"time": 137040, "pitch": 40, "duration": 240, "velocity": 110}, {"time": 137280, "pitch": 43, "duration": 240, "velocity": 110}, {"time": 137520, "pitch": 44, "duration": 240, "velocity": 110}, {"time": 137760, "pitch": 45, "duration": 720, "velocity": 110}, {"time": 138480, "pitch": 33, "duration": 480, "velocity": 110}, {"time": 138960, "pitch": 38, "duration": 480, "velocity": 110}, {"time": 139680, "pitch": 38, "duration": 480, "velocity": 110}, {"time": 140160, "pitch": 33, "duration": 240, "velocity": 110}, {"time": 140400, "pitch": 38, "duration": 480, "velocity": 110}, {"time": 140880, "pitch": 43, "duration": 480, "velocity": 110}, {"time": 141360, "pitch": 31, "duration": 480, "velocity": 110}, {"time": 141840, "pitch": 33, "duration": 480, "velocity": 110}, {"time": 142320, "pitch": 35, "duration": 480, "velocity": 110}, {"time": 142800, "pitch": 36, "duration": 480, "velocity": 110}, {"time": 143520, "pitch": 35, "duration": 1200, "velocity": 110}, {"time": 144720, "pitch": 33, "duration": 480, "velocity": 110}, {"time": 145440, "pitch": 31, "duration": 1200, "velocity": 110}, {"time": 146640, "pitch": 41, "duration": 480, "velocity": 110}, {"time": 147360, "pitch": 40, "duration": 1200, "velocity": 110}, {"time": 148560, "pitch": 38, "duration": 480, "velocity": 110}, {"time": 149280, "pitch": 31, "duration": 720, "velocity": 110}, {"time": 150000, "pitch": 29, "duration": 480, "velocity": 110}, {"time": 150480, "pitch": 28, "duration": 480, "velocity": 110}, {"time": 151200, "pitch": 28, "duration": 480, "velocity": 110}, {"time": 151680, "pitch": 28, "duration": 240, "velocity": 110}, {"time": 151920, "pitch": 31, "duration": 240, "velocity": 110}, {"time": 152160, "pitch": 32, "duration": 240, "velocity": 110}, {"time": 152400, "pitch": 33, "duration": 480, "velocity": 110}, {"time": 153120, "pitch": 31, "duration": 480, "velocity": 110}, {"time": 153600, "pitch": 36, "duration": 240, "velocity": 110}, {"time": 153840, "pitch": 31, "duration": 480, "velocity": 110}, {"time": 154320, "pitch": 38, "duration": 480, "velocity": 110}, {"time": 155040, "pitch": 38, "duration": 480, "velocity": 110}, {"time": 155520, "pitch": 40, "duration": 240, "velocity": 110}, {"time": 155760, "pitch": 41, "duration": 240, "velocity": 110}, {"time": 156000, "pitch": 42, "duration": 240, "velocity": 110}, {"time": 156240, "pitch": 43, "duration": 240, "velocity": 110}, {"time": 156480, "pitch": 48, "duration": 240, "velocity": 110}, {"time": 156720, "pitch": 47, "duration": 240, "velocity": 110}, {"time": 156960, "pitch": 31, "duration": 480, "velocity": 110}, {"time": 157440, "pitch": 31, "duration": 240, "velocity": 110}, {"time": 157680, "pitch": 33, "duration": 240, "velocity": 110}, {"time": 157920, "pitch": 35, "duration": 240, "velocity": 110}, {"time": 158160, "pitch": 36, "duration": 240, "velocity": 110}, {"time": 158400, "pitch": 31, "duration": 240, "velocity": 110}, {"time": 158640, "pitch": 36, "duration": 240, "velocity": 110}, {"time": 158880, "pitch": 35, "duration": 480, "velocity": 110}, {"time": 159360, "pitch": 31, "duration": 240, "velocity": 110}, {"time": 159600, "pitch": 35, "duration": 480, "velocity": 110}, {"time": 160080, "pitch": 33, "duration": 240, "velocity": 110}, {"time": 160320, "pitch": 40, "duration": 240, "velocity": 110}, {"time": 160560, "pitch": 45, "duration": 240, "velocity": 110}, {"time": 160800, "pitch": 43, "duration": 480, "velocity": 110}, {"time": 161280, "pitch": 40, "duration": 240, "velocity": 110}, {"time": 161520, "pitch": 43, "duration": 480, "velocity": 110}, {"time": 162000, "pitch": 41, "duration": 240, "velocity": 110}, {"time": 162240, "pitch": 36, "duration": 240, "velocity": 110}, {"time": 162480, "pitch": 41, "duration": 240, "velocity": 110}, {"time": 162720, "pitch": 40, "duration": 480, "velocity": 110}, {"time": 163200, "pitch": 36, "duration": 240, "velocity": 110}, {"time": 163440, "pitch": 31, "duration": 480, "velocity": 110}, {"time": 163920, "pitch": 38, "duration": 240, "velocity": 110}, {"time": 164160, "pitch": 40, "duration": 240, "velocity": 110}, {"time": 164400, "pitch": 41, "duration": 240, "velocity": 110}, {"time": 164640, "pitch": 43, "duration": 480, "velocity": 110}, {"time": 165120, "pitch": 31, "duration": 240, "velocity": 110}, {"time": 165360, "pitch": 41, "duration": 480, "velocity": 110}, {"time": 165840, "pitch": 40, "duration": 480, "velocity": 110}, {"time": 166560, "pitch": 40, "duration": 480, "velocity": 110}, {"time": 167040, "pitch": 28, "duration": 240, "velocity": 110}, {"time": 167280, "pitch": 31, "duration": 240, "velocity": 110}, {"time": 167520, "pitch": 32, "duration": 240, "velocity": 110}, {"time": 167760, "pitch": 33, "duration": 240, "velocity": 110}, {"time": 168000, "pitch": 40, "duration": 240, "velocity": 110}, {"time": 168240, "pitch": 45, "duration": 240, "velocity": 110}, {"time": 168480, "pitch": 31, "duration": 480, "velocity": 110}, {"time": 168960, "pitch": 43, "duration": 240, "velocity": 110}, {"time": 169200, "pitch": 31, "duration": 480, "velocity": 110}, {"time": 169680, "pitch": 38, "duration": 480, "velocity": 110}, {"time": 170400, "pitch": 38, "duration": 480, "velocity": 110}, {"time": 170880, "pitch": 40, "duration": 240, "velocity": 110}, {"time": 171120, "pitch": 41, "duration": 240, "velocity": 110}, {"time": 171360, "pitch": 42, "duration": 240, "velocity": 110}, {"time": 171600, "pitch": 43, "duration": 480, "velocity": 110}, {"time": 172080, "pitch": 31, "duration": 480, "velocity": 110}, {"time": 172560, "pitch": 33, "duration": 480, "velocity": 110}, {"time": 173040, "pitch": 35, "duration": 480, "velocity": 110}, {"time": 173520, "pitch": 29, "duration": 480, "velocity": 110}, {"time": 174240, "pitch": 41, "duration": 480, "velocity": 110}, {"time": 174720, "pitch": 36, "duration": 240, "velocity": 110}, {"time": 174960, "pitch": 29, "duration": 240, "velocity": 110}, {"time": 175200, "pitch": 30, "duration": 240, "velocity": 110}, {"time": 175440, "pitch": 31, "duration": 480, "velocity": 110}, {"time": 176160, "pitch": 43, "duration": 480, "velocity": 110}, {"time": 176640, "pitch": 38, "duration": 240, "velocity": 110}, {"time": 176880, "pitch": 31, "duration": 480, "velocity": 110}, {"time": 177360, "pitch": 36, "duration": 480, "velocity": 110}, {"time": 178080, "pitch": 36, "duration": 480, "velocity": 110}, {"time": 178560, "pitch": 31, "duration": 240, "velocity": 110}, {"time": 178800, "pitch": 36, "duration": 240, "velocity": 110}, {"time": 179040, "pitch": 38, "duration": 480, "velocity": 110}, {"time": 179520, "pitch": 36, "duration": 240, "velocity": 110}, {"time": 179760, "pitch": 31, "duration": 240, "velocity": 110}, {"time": 180000, "pitch": 36, "duration": 720, "velocity": 110}, {"time": 180720, "pitch": 34, "duration": 480, "velocity": 110}, {"time": 181200, "pitch": 29, "duration": 480, "velocity": 110}, {"time": 181920, "pitch": 41, "duration": 480, "velocity": 110}, {"time": 182400, "pitch": 36, "duration": 240, "velocity": 110}, {"time": 182640, "pitch": 29, "duration": 240, "velocity": 110}, {"time": 182880, "pitch": 30, "duration": 240, "velocity": 110}, {"time": 183120, "pitch": 31, "duration": 480, "velocity": 110}, {"time": 183840, "pitch": 43, "duration": 480, "velocity": 110}, {"time": 184320, "pitch": 38, "duration": 240, "velocity": 110}, {"time": 184560, "pitch": 31, "duration": 480, "velocity": 110}, {"time": 185040, "pitch": 38, "duration": 480, "velocity": 110}, {"time": 185760, "pitch": 38, "duration": 480, "velocity": 110}, {"time": 186240, "pitch": 41, "duration": 240, "velocity": 110}, {"time": 186480, "pitch": 42, "duration": 240, "velocity": 110}, {"time": 186720, "pitch": 43, "duration": 480, "velocity": 110}, {"time": 187200, "pitch": 43, "duration": 240, "velocity": 110}, {"time": 187440, "pitch": 43, "duration": 240, "velocity": 110}, {"time": 187680, "pitch": 43, "duration": 240, "velocity": 110}, {"time": 187920, "pitch": 31, "duration": 240, "velocity": 110}, {"time": 188160, "pitch": 33, "duration": 240, "velocity": 110}, {"time": 188400, "pitch": 35, "duration": 480, "velocity": 110}, {"time": 196560, "pitch": 28, "duration": 480, "velocity": 110}, {"time": 197280, "pitch": 28, "duration": 480, "velocity": 110}, {"time": 197760, "pitch": 28, "duration": 240, "velocity": 110}, {"time": 198000, "pitch": 31, "duration": 240, "velocity": 110}, {"time": 198240, "pitch": 32, "duration": 240, "velocity": 110}, {"time": 198480, "pitch": 33, "duration": 480, "velocity": 110}, {"time": 199200, "pitch": 31, "duration": 480, "velocity": 110}, {"time": 199680, "pitch": 36, "duration": 240, "velocity": 110}, {"time": 199920, "pitch": 31, "duration": 480, "velocity": 110}, {"time": 200400, "pitch": 38, "duration": 480, "velocity": 110}, {"time": 201120, "pitch": 38, "duration": 480, "velocity": 110}, {"time": 201600, "pitch": 40, "duration": 240, "velocity": 110}, {"time": 201840, "pitch": 41, "duration": 240, "velocity": 110}, {"time": 202080, "pitch": 42, "duration": 240, "velocity": 110}, {"time": 202320, "pitch": 43, "duration": 240, "velocity": 110}, {"time": 202560, "pitch": 48, "duration": 240, "velocity": 110}, {"time": 202800, "pitch": 47, "duration": 240, "velocity": 110}, {"time": 203040, "pitch": 31, "duration": 480, "velocity": 110}, {"time": 203520, "pitch": 31, "duration": 240, "velocity": 110}, {"time": 203760, "pitch": 33, "duration": 240, "velocity": 110}, {"time": 204000, "pitch": 35, "duration": 240, "velocity": 110}, {"time": 204240, "pitch": 36, "duration": 240, "velocity": 110}, {"time": 204480, "pitch": 31, "duration": 240, "velocity": 110}, {"time": 204720, "pitch": 36, "duration": 240, "velocity": 110}, {"time": 204960, "pitch": 35, "duration": 480, "velocity": 110}, {"time": 205440, "pitch": 31, "duration": 240, "velocity": 110}, {"time": 205680, "pitch": 35, "duration": 480, "velocity": 110}, {"time": 206160, "pitch": 33, "duration": 240, "velocity": 110}, {"time": 206400, "pitch": 40, "duration": 240, "velocity": 110}, {"time": 206640, "pitch": 45, "duration": 240, "velocity": 110}, {"time": 206880, "pitch": 43, "duration": 480, "velocity": 110}, {"time": 207360, "pitch": 40, "duration": 240, "velocity": 110}, {"time": 207600, "pitch": 43, "duration": 480, "velocity": 110}, {"time": 208080, "pitch": 41, "duration": 240, "velocity": 110}, {"time": 208320, "pitch": 36, "duration": 240, "velocity": 110}, {"time": 208560, "pitch": 41, "duration": 240, "velocity": 110}, {"time": 208800, "pitch": 40, "duration": 480, "velocity": 110}, {"time": 209280, "pitch": 36, "duration": 240, "velocity": 110}, {"time": 209520, "pitch": 31, "duration": 480, "velocity": 110}, {"time": 210000, "pitch": 38, "duration": 240, "velocity": 110}, {"time": 210240, "pitch": 40, "duration": 240, "velocity": 110}, {"time": 210480, "pitch": 41, "duration": 240, "velocity": 110}, {"time": 210720, "pitch": 43, "duration": 480, "velocity": 110}, {"time": 211200, "pitch": 31, "duration": 240, "velocity": 110}, {"time": 211440, "pitch": 41, "duration": 480, "velocity": 110}, {"time": 211920, "pitch": 40, "duration": 480, "velocity": 110}, {"time": 212640, "pitch": 40, "duration": 480, "velocity": 110}, {"time": 213120, "pitch": 28, "duration": 240, "velocity": 110}, {"time": 213360, "pitch": 31, "duration": 240, "velocity": 110}, {"time": 213600, "pitch": 32, "duration": 240, "velocity": 110}, {"time": 213840, "pitch": 33, "duration": 240, "velocity": 110}, {"time": 214080, "pitch": 40, "duration": 240, "velocity": 110}, {"time": 214320, "pitch": 45, "duration": 240, "velocity": 110}, {"time": 214560, "pitch": 31, "duration": 480, "velocity": 110}, {"time": 215040, "pitch": 43, "duration": 240, "velocity": 110}, {"time": 215280, "pitch": 31, "duration": 480, "velocity": 110}, {"time": 215760, "pitch": 38, "duration": 480, "velocity": 110}, {"time": 216480, "pitch": 38, "duration": 480, "velocity": 110}, {"time": 216960, "pitch": 40, "duration": 240, "velocity": 110}, {"time": 217200, "pitch": 41, "duration": 240, "velocity": 110}, {"time": 217440, "pitch": 42, "duration": 240, "velocity": 110}, {"time": 217680, "pitch": 43, "duration": 480, "velocity": 110}, {"time": 218160, "pitch": 31, "duration": 480, "velocity": 110}, {"time": 218640, "pitch": 33, "duration": 480, "velocity": 110}, {"time": 219120, "pitch": 35, "duration": 480, "velocity": 110}, {"time": 960, "pitch": 67, "duration": 489, "velocity": 100}, {"time": 960, "pitch": 79, "duration": 489, "velocity": 100}, {"time": 1449, "pitch": 72, "duration": 471, "velocity": 100}, {"time": 1449, "pitch": 84, "duration": 471, "velocity": 100}, {"time": 1920, "pitch": 74, "duration": 480, "velocity": 100}, {"time": 1920, "pitch": 86, "duration": 480, "velocity": 100}, {"time": 2400, "pitch": 76, "duration": 480, "velocity": 100}, {"time": 2400, "pitch": 88, "duration": 480, "velocity": 100}, {"time": 2880, "pitch": 72, "duration": 240, "velocity": 100}, {"time": 2880, "pitch": 84, "duration": 240, "velocity": 100}, {"time": 3120, "pitch": 76, "duration": 240, "velocity": 100}, {"time": 3120, "pitch": 88, "duration": 240, "velocity": 100}, {"time": 3360, "pitch": 74, "duration": 480, "velocity": 100}, {"time": 3360, "pitch": 86, "duration": 480, "velocity": 100}, {"time": 3840, "pitch": 71, "duration": 720, "velocity": 100}, {"time": 3840, "pitch": 83, "duration": 720, "velocity": 100}, {"time": 4560, "pitch": 72, "duration": 240, "velocity": 100}, {"time": 4560, "pitch": 84, "duration": 240, "velocity": 100}, {"time": 4800, "pitch": 69, "duration": 240, "velocity": 100}, {"time": 4800, "pitch": 81, "duration": 240, "velocity": 100}, {"time": 5040, "pitch": 72, "duration": 240, "velocity": 100}, {"time": 5040, "pitch": 84, "duration": 240, "velocity": 100}, {"time": 5280, "pitch": 71, "duration": 480, "velocity": 100}, {"time": 5280, "pitch": 83, "duration": 480, "velocity": 100}, {"time": 5760, "pitch": 67, "duration": 720, "velocity": 100}, {"time": 5760, "pitch": 79, "duration": 720, "velocity": 100}, {"time": 6480, "pitch": 69, "duration": 240, "velocity": 100}, {"time": 6480, "pitch": 81, "duration": 240, "velocity": 100}, {"time": 6720, "pitch": 65, "duration": 240, "velocity": 100}, {"time": 6720, "pitch": 77, "duration": 240, "velocity": 100}, {"time": 6960, "pitch": 69, "duration": 240, "velocity": 100}, {"time": 6960, "pitch": 81, "duration": 240, "velocity": 100}, {"time": 7200, "pitch": 67, "duration": 480, "velocity": 100}, {"time": 7200, "pitch": 79, "duration": 480, "velocity": 100}, {"time": 7680, "pitch": 72, "duration": 480, "velocity": 100}, {"time": 7680, "pitch": 84, "duration": 480, "velocity": 100}, {"time": 8160, "pitch": 72, "duration": 240, "velocity": 100}, {"time": 8160, "pitch": 84, "duration": 240, "velocity": 100}, {"time": 8400, "pitch": 77, "duration": 240, "velocity": 100}, {"time": 8400, "pitch": 89, "duration": 240, "velocity": 100}, {"time": 8640, "pitch": 76, "duration": 240, "velocity": 100}, {"time": 8640, "pitch": 88, "duration": 240, "velocity": 100}, {"time": 8880, "pitch": 72, "duration": 240, "velocity": 100}, {"time": 8880, "pitch": 84, "duration": 240, "velocity": 100}, {"time": 9120, "pitch": 74, "duration": 2160, "velocity": 100}, {"time": 9120, "pitch": 86, "duration": 2160, "velocity": 100}, {"time": 89040, "pitch": 76, "duration": 240, "velocity": 100}, {"time": 89040, "pitch": 88, "duration": 240, "velocity": 100}, {"time": 89280, "pitch": 72, "duration": 240, "velocity": 100}, {"time": 89280, "pitch": 84, "duration": 240, "velocity": 100}, {"time": 89520, "pitch": 76, "duration": 240, "velocity": 100}, {"time": 89520, "pitch": 88, "duration": 240, "velocity": 100}, {"time": 89760, "pitch": 74, "duration": 480, "velocity": 100}, {"time": 89760, "pitch": 86, "duration": 480, "velocity": 100}, {"time": 90240, "pitch": 71, "duration": 720, "velocity": 100}, {"time": 90240, "pitch": 83, "duration": 720, "velocity": 100}, {"time": 90960, "pitch": 72, "duration": 240, "velocity": 100}, {"time": 90960, "pitch": 84, "duration": 240, "velocity": 100}, {"time": 91200, "pitch": 69, "duration": 240, "velocity": 100}, {"time": 91200, "pitch": 81, "duration": 240, "velocity": 100}, {"time": 91440, "pitch": 72, "duration": 240, "velocity": 100}, {"time": 91440, "pitch": 84, "duration": 240, "velocity": 100}, {"time": 91680, "pitch": 71, "duration": 480, "velocity": 100}, {"time": 91680, "pitch": 83, "duration": 480, "velocity": 100}, {"time": 92160, "pitch": 67, "duration": 720, "velocity": 100}, {"time": 92160, "pitch": 79, "duration": 720, "velocity": 100}, {"time": 92880, "pitch": 69, "duration": 240, "velocity": 100}, {"time": 92880, "pitch": 81, "duration": 240, "velocity": 100}, {"time": 93120, "pitch": 65, "duration": 240, "velocity": 100}, {"time": 93120, "pitch": 77, "duration": 240, "velocity": 100}, {"time": 93360, "pitch": 69, "duration": 240, "velocity": 100}, {"time": 93360, "pitch": 81, "duration": 240, "velocity": 100}, {"time": 93600, "pitch": 67, "duration": 480, "velocity": 100}, {"time": 93600, "pitch": 79, "duration": 480, "velocity": 100}, {"time": 94080, "pitch": 72, "duration": 480, "velocity": 100}, {"time": 94080, "pitch": 84, "duration": 480, "velocity": 100}, {"time": 94560, "pitch": 72, "duration": 240, "velocity": 100}, {"time": 94560, "pitch": 84, "duration": 240, "velocity": 100}, {"time": 94800, "pitch": 77, "duration": 240, "velocity": 100}, {"time": 94800, "pitch": 89, "duration": 240, "velocity": 100}, {"time": 95040, "pitch": 76, "duration": 240, "velocity": 100}, {"time": 95040, "pitch": 88, "duration": 240, "velocity": 100}, {"time": 95280, "pitch": 72, "duration": 240, "velocity": 100}, {"time": 95280, "pitch": 84, "duration": 240, "velocity": 100}, {"time": 95520, "pitch": 74, "duration": 2160, "velocity": 100}, {"time": 95520, "pitch": 86, "duration": 2160, "velocity": 100}, {"time": 219600, "pitch": 76, "duration": 240, "velocity": 100}, {"time": 219600, "pitch": 88, "duration": 240, "velocity": 100}, {"time": 219840, "pitch": 72, "duration": 240, "velocity": 100}, {"time": 219840, "pitch": 84, "duration": 240, "velocity": 100}, {"time": 220080, "pitch": 76, "duration": 240, "velocity": 100}, {"time": 220080, "pitch": 88, "duration": 240, "velocity": 100}, {"time": 220320, "pitch": 74, "duration": 480, "velocity": 100}, {"time": 220320, "pitch": 86, "duration": 480, "velocity": 100}, {"time": 220800, "pitch": 71, "duration": 720, "velocity": 100}, {"time": 220800, "pitch": 83, "duration": 720, "velocity": 100}, {"time": 221520, "pitch": 72, "duration": 240, "velocity": 100}, {"time": 221520, "pitch": 84, "duration": 240, "velocity": 100}, {"time": 221760, "pitch": 69, "duration": 240, "velocity": 100}, {"time": 221760, "pitch": 81, "duration": 240, "velocity": 100}, {"time": 222000, "pitch": 72, "duration": 240, "velocity": 100}, {"time": 222000, "pitch": 84, "duration": 240, "velocity": 100}, {"time": 222240, "pitch": 71, "duration": 480, "velocity": 100}, {"time": 222240, "pitch": 83, "duration": 480, "velocity": 100}, {"time": 222720, "pitch": 67, "duration": 720, "velocity": 100}, {"time": 222720, "pitch": 79, "duration": 720, "velocity": 100}, {"time": 223440, "pitch": 69, "duration": 240, "velocity": 100}, {"time": 223440, "pitch": 81, "duration": 240, "velocity": 100}, {"time": 223680, "pitch": 65, "duration": 240, "velocity": 100}, {"time": 223680, "pitch": 77, "duration": 240, "velocity": 100}, {"time": 223920, "pitch": 69, "duration": 240, "velocity": 100}, {"time": 223920, "pitch": 81, "duration": 240, "velocity": 100}, {"time": 224160, "pitch": 67, "duration": 480, "velocity": 100}, {"time": 224160, "pitch": 79, "duration": 480, "velocity": 100}, {"time": 224640, "pitch": 72, "duration": 480, "velocity": 100}, {"time": 224640, "pitch": 84, "duration": 480, "velocity": 100}, {"time": 225120, "pitch": 72, "duration": 229, "velocity": 100}, {"time": 225120, "pitch": 84, "duration": 229, "velocity": 100}, {"time": 225349, "pitch": 77, "duration": 253, "velocity": 100}, {"time": 225349, "pitch": 89, "duration": 253, "velocity": 100}, {"time": 225602, "pitch": 76, "duration": 239, "velocity": 100}, {"time": 225602, "pitch": 88, "duration": 239, "velocity": 100}, {"time": 225841, "pitch": 72, "duration": 239, "velocity": 100}, {"time": 225841, "pitch": 84, "duration": 239, "velocity": 100}, {"time": 226080, "pitch": 74, "duration": 2741, "velocity": 100}, {"time": 226080, "pitch": 86, "duration": 2741, "velocity": 100}, {"time": 12000, "pitch": 60, "duration": 240, "velocity": 110}, {"time": 12240, "pitch": 67, "duration": 480, "velocity": 110}, {"time": 12720, "pitch": 67, "duration": 240, "velocity": 110}, {"time": 12960, "pitch": 67, "duration": 480, "velocity": 110}, {"time": 13440, "pitch": 65, "duration": 240, "velocity": 110}, {"time": 13680, "pitch": 64, "duration": 240, "velocity": 110}, {"time": 13920, "pitch": 65, "duration": 240, "velocity": 110}, {"time": 14160, "pitch": 64, "duration": 480, "velocity": 110}, {"time": 14640, "pitch": 62, "duration": 240, "velocity": 110}, {"time": 14880, "pitch": 62, "duration": 720, "velocity": 110}, {"time": 15840, "pitch": 60, "duration": 240, "velocity": 110}, {"time": 16080, "pitch": 64, "duration": 480, "velocity": 110}, {"time": 16560, "pitch": 64, "duration": 240, "velocity": 110}, {"time": 16800, "pitch": 64, "duration": 480, "velocity": 110}, {"time": 17280, "pitch": 62, "duration": 480, "velocity": 110}, {"time": 17760, "pitch": 60, "duration": 240, "velocity": 110}, {"time": 18000, "pitch": 58, "duration": 960, "velocity": 110}, {"time": 19680, "pitch": 60, "duration": 240, "velocity": 110}, {"time": 19920, "pitch": 65, "duration": 480, "velocity": 110}, {"time": 20400, "pitch": 65, "duration": 240, "velocity": 110}, {"time": 20640, "pitch": 65, "duration": 480, "velocity": 110}, {"time": 21120, "pitch": 67, "duration": 240, "velocity": 110}, {"time": 21360, "pitch": 69, "duration": 240, "velocity": 110}, {"time": 21600, "pitch": 67, "duration": 480, "velocity": 110}, {"time": 22080, "pitch": 64, "duration": 240, "velocity": 110}, {"time": 22320, "pitch": 62, "duration": 240, "velocity": 110}, {"time": 22560, "pitch": 60, "duration": 720, "velocity": 110}, {"time": 23520, "pitch": 64, "duration": 240, "velocity": 110}, {"time": 23760, "pitch": 64, "duration": 480, "velocity": 110}, {"time": 24240, "pitch": 65, "duration": 240, "velocity": 110}, {"time": 24480, "pitch": 62, "duration": 720, "velocity": 110}, {"time": 25200, "pitch": 60, "duration": 240, "velocity": 110}, {"time": 25440, "pitch": 62, "duration": 1200, "velocity": 110}, {"time": 27360, "pitch": 60, "duration": 240, "velocity": 110}, {"time": 27600, "pitch": 67, "duration": 480, "velocity": 110}, {"time": 28080, "pitch": 67, "duration": 240, "velocity": 110}, {"time": 28320, "pitch": 67, "duration": 480, "velocity": 110}, {"time": 28800, "pitch": 65, "duration": 240, "velocity": 110}, {"time": 29040, "pitch": 64, "duration": 240, "velocity": 110}, {"time": 29280, "pitch": 65, "duration": 240, "velocity": 110}, {"time": 29520, "pitch": 64, "duration": 480, "velocity": 110}, {"time": 30000, "pitch": 62, "duration": 240, "velocity": 110}, {"time": 30240, "pitch": 62, "duration": 720, "velocity": 110}, {"time": 31200, "pitch": 60, "duration": 240, "velocity": 110}, {"time": 31440, "pitch": 64, "duration": 480, "velocity": 110}, {"time": 31920, "pitch": 64, "duration": 240, "velocity": 110}, {"time": 32160, "pitch": 64, "duration": 480, "velocity": 110}, {"time": 32640, "pitch": 62, "duration": 480, "velocity": 110}, {"time": 33120, "pitch": 60, "duration": 240, "velocity": 110}, {"time": 33360, "pitch": 58, "duration": 960, "velocity": 110}, {"time": 35040, "pitch": 60, "duration": 240, "velocity": 110}, {"time": 35280, "pitch": 65, "duration": 480, "velocity": 110}, {"time": 35760, "pitch": 65, "duration": 240, "velocity": 110}, {"time": 36000, "pitch": 65, "duration": 480, "velocity": 110}, {"time": 36480, "pitch": 67, "duration": 240, "velocity": 110}, {"time": 36720, "pitch": 69, "duration": 240, "velocity": 110}, {"time": 36960, "pitch": 67, "duration": 480, "velocity": 110}, {"time": 37440, "pitch": 64, "duration": 240, "velocity": 110}, {"time": 37680, "pitch": 62, "duration": 240, "velocity": 110}, {"time": 37920, "pitch": 60, "duration": 720, "velocity": 110}, {"time": 38880, "pitch": 64, "duration": 240, "velocity": 110}, {"time": 39120, "pitch": 64, "duration": 480, "velocity": 110}, {"time": 39600, "pitch": 65, "duration": 240, "velocity": 110}, {"time": 39840, "pitch": 62, "duration": 720, "velocity": 110}, {"time": 40560, "pitch": 60, "duration": 240, "velocity": 110}, {"time": 40800, "pitch": 60, "duration": 1200, "velocity": 110}, {"time": 42720, "pitch": 60, "duration": 240, "velocity": 110}, {"time": 42960, "pitch": 69, "duration": 320, "velocity": 110}, {"time": 43280, "pitch": 69, "duration": 320, "velocity": 110}, {"time": 43600, "pitch": 69, "duration": 320, "velocity": 110}, {"time": 43920, "pitch": 69, "duration": 320, "velocity": 110}, {"time": 44240, "pitch": 67, "duration": 320, "velocity": 110}, {"time": 44560, "pitch": 65, "duration": 320, "velocity": 110}, {"time": 44880, "pitch": 67, "duration": 320, "velocity": 110}, {"time": 45200, "pitch": 67, "duration": 320, "velocity": 110}, {"time": 45520, "pitch": 67, "duration": 320, "velocity": 110}, {"time": 45840, "pitch": 67, "duration": 320, "velocity": 110}, {"time": 46160, "pitch": 65, "duration": 320, "velocity": 110}, {"time": 46480, "pitch": 64, "duration": 320, "velocity": 110}, {"time": 46800, "pitch": 65, "duration": 320, "velocity": 110}, {"time": 47120, "pitch": 65, "duration": 320, "velocity": 110}, {"time": 47440, "pitch": 65, "duration": 320, "velocity": 110}, {"time": 47760, "pitch": 65, "duration": 320, "velocity": 110}, {"time": 48080, "pitch": 64, "duration": 320, "velocity": 110}, {"time": 48400, "pitch": 62, "duration": 320, "velocity": 110}, {"time": 48720, "pitch": 64, "duration": 880, "velocity": 110}, {"time": 50400, "pitch": 60, "duration": 240, "velocity": 110}, {"time": 50640, "pitch": 69, "duration": 320, "velocity": 110}, {"time": 50960, "pitch": 69, "duration": 320, "velocity": 110}, {"time": 51280, "pitch": 69, "duration": 320, "velocity": 110}, {"time": 51600, "pitch": 69, "duration": 320, "velocity": 110}, {"time": 51920, "pitch": 67, "duration": 320, "velocity": 110}, {"time": 52240, "pitch": 65, "duration": 320, "velocity": 110}, {"time": 52560, "pitch": 67, "duration": 480, "velocity": 110}, {"time": 53040, "pitch": 71, "duration": 240, "velocity": 110}, {"time": 53280, "pitch": 72, "duration": 720, "velocity": 110}, {"time": 54240, "pitch": 67, "duration": 240, "velocity": 110}, {"time": 54480, "pitch": 69, "duration": 320, "velocity": 110}, {"time": 54800, "pitch": 69, "duration": 320, "velocity": 110}, {"time": 55120, "pitch": 69, "duration": 320, "velocity": 110}, {"time": 55440, "pitch": 69, "duration": 320, "velocity": 110}, {"time": 55760, "pitch": 71, "duration": 320, "velocity": 110}, {"time": 56080, "pitch": 72, "duration": 320, "velocity": 110}, {"time": 56400, "pitch": 74, "duration": 960, "velocity": 110}, {"time": 58080, "pitch": 67, "duration": 240, "velocity": 110}, {"time": 58320, "pitch": 74, "duration": 240, "velocity": 110}, {"time": 58560, "pitch": 72, "duration": 240, "velocity": 110}, {"time": 58800, "pitch": 74, "duration": 240, "velocity": 110}, {"time": 59040, "pitch": 76, "duration": 240, "velocity": 110}, {"time": 59520, "pitch": 72, "duration": 240, "velocity": 110}, {"time": 60000, "pitch": 77, "duration": 480, "velocity": 110}, {"time": 60480, "pitch": 76, "duration": 240, "velocity": 110}, {"time": 60720, "pitch": 74, "duration": 240, "velocity": 110}, {"time": 60960, "pitch": 76, "duration": 720, "velocity": 110}, {"time": 61920, "pitch": 67, "duration": 240, "velocity": 110}, {"time": 62160, "pitch": 74, "duration": 240, "velocity": 110}, {"time": 62400, "pitch": 72, "duration": 240, "velocity": 110}, {"time": 62640, "pitch": 74, "duration": 240, "velocity": 110}, {"time": 62880, "pitch": 76, "duration": 240, "velocity": 110}, {"time": 63360, "pitch": 72, "duration": 240, "velocity": 110}, {"time": 63840, "pitch": 77, "duration": 480, "velocity": 110}, {"time": 64320, "pitch": 76, "duration": 240, "velocity": 110}, {"time": 64560, "pitch": 72, "duration": 240, "velocity": 110}, {"time": 64800, "pitch": 74, "duration": 360, "velocity": 110}, {"time": 65280, "pitch": 76, "duration": 360, "velocity": 110}, {"time": 65640, "pitch": 77, "duration": 360, "velocity": 110}, {"time": 66000, "pitch": 79, "duration": 360, "velocity": 110}, {"time": 66360, "pitch": 79, "duration": 360, "velocity": 110}, {"time": 66720, "pitch": 79, "duration": 240, "velocity": 110}, {"time": 66960, "pitch": 79, "duration": 360, "velocity": 110}, {"time": 67320, "pitch": 76, "duration": 360, "velocity": 110}, {"time": 67680, "pitch": 79, "duration": 480, "velocity": 110}, {"time": 68160, "pitch": 72, "duration": 720, "velocity": 110}, {"time": 69600, "pitch": 67, "duration": 240, "velocity": 110}, {"time": 69840, "pitch": 69, "duration": 360, "velocity": 110}, {"time": 70200, "pitch": 71, "duration": 360, "velocity": 110}, {"time": 70560, "pitch": 72, "duration": 240, "velocity": 110}, {"time": 70800, "pitch": 76, "duration": 360, "velocity": 110}, {"time": 71160, "pitch": 72, "duration": 360, "velocity": 110}, {"time": 71520, "pitch": 76, "duration": 480, "velocity": 110}, {"time": 72000, "pitch": 74, "duration": 720, "velocity": 110}, {"time": 73440, "pitch": 67, "duration": 240, "velocity": 110}, {"time": 73680, "pitch": 74, "duration": 240, "velocity": 110}, {"time": 73920, "pitch": 72, "duration": 240, "velocity": 110}, {"time": 74160, "pitch": 74, "duration": 240, "velocity": 110}, {"time": 74400, "pitch": 76, "duration": 240, "velocity": 110}, {"time": 74880, "pitch": 72, "duration": 240, "velocity": 110}, {"time": 75360, "pitch": 77, "duration": 480, "velocity": 110}, {"time": 75840, "pitch": 76, "duration": 240, "velocity": 110}, {"time": 76080, "pitch": 74, "duration": 240, "velocity": 110}, {"time": 76320, "pitch": 76, "duration": 720, "velocity": 110}, {"time": 77280, "pitch": 67, "duration": 240, "velocity": 110}, {"time": 77520, "pitch": 74, "duration": 240, "velocity": 110}, {"time": 77760, "pitch": 72, "duration": 240, "velocity": 110}, {"time": 78000, "pitch": 74, "duration": 240, "velocity": 110}, {"time": 78240, "pitch": 76, "duration": 240, "velocity": 110}, {"time": 78720, "pitch": 72, "duration": 240, "velocity": 110}, {"time": 79200, "pitch": 77, "duration": 480, "velocity": 110}, {"time": 79680, "pitch": 76, "duration": 240, "velocity": 110}, {"time": 79920, "pitch": 72, "duration": 240, "velocity": 110}, {"time": 80160, "pitch": 74, "duration": 360, "velocity": 110}, {"time": 80640, "pitch": 76, "duration": 360, "velocity": 110}, {"time": 81000, "pitch": 77, "duration": 360, "velocity": 110}, {"time": 81360, "pitch": 79, "duration": 360, "velocity": 110}, {"time": 81720, "pitch": 79, "duration": 360, "velocity": 110}, {"time": 82080, "pitch": 79, "duration": 240, "velocity": 110}, {"time": 82320, "pitch": 79, "duration": 360, "velocity": 110}, {"time": 82680, "pitch": 76, "duration": 360, "velocity": 110}, {"time": 83040, "pitch": 79, "duration": 480, "velocity": 110}, {"time": 83520, "pitch": 72, "duration": 720, "velocity": 110}, {"time": 84960, "pitch": 67, "duration": 240, "velocity": 110}, {"time": 85200, "pitch": 69, "duration": 360, "velocity": 110}, {"time": 85560, "pitch": 71, "duration": 360, "velocity": 110}, {"time": 85920, "pitch": 72, "duration": 240, "velocity": 110}, {"time": 86160, "pitch": 72, "duration": 360, "velocity": 110}, {"time": 86520, "pitch": 74, "duration": 360, "velocity": 110}, {"time": 86880, "pitch": 76, "duration": 240, "velocity": 110}, {"time": 87120, "pitch": 77, "duration": 360, "velocity": 110}, {"time": 87480, "pitch": 76, "duration": 360, "velocity": 110}, {"time": 87840, "pitch": 77, "duration": 240, "velocity": 110}, {"time": 88080, "pitch": 76, "duration": 360, "velocity": 110}, {"time": 88440, "pitch": 71, "duration": 360, "velocity": 110}, {"time": 88800, "pitch": 74, "duration": 480, "velocity": 110}, {"time": 89280, "pitch": 72, "duration": 1680, "velocity": 110}, {"time": 96480, "pitch": 60, "duration": 240, "velocity": 110}, {"time": 96720, "pitch": 67, "duration": 480, "velocity": 110}, {"time": 97200, "pitch": 67, "duration": 240, "velocity": 110}, {"time": 97440, "pitch": 67, "duration": 480, "velocity": 110}, {"time": 97920, "pitch": 65, "duration": 240, "velocity": 110}, {"time": 98160, "pitch": 64, "duration": 240, "velocity": 110}, {"time": 98400, "pitch": 65, "duration": 240, "velocity": 110}, {"time": 98640, "pitch": 64, "duration": 480, "velocity": 110}, {"time": 99120, "pitch": 62, "duration": 240, "velocity": 110}, {"time": 99360, "pitch": 62, "duration": 720, "velocity": 110}, {"time": 100320, "pitch": 60, "duration": 240, "velocity": 110}, {"time": 100560, "pitch": 64, "duration": 480, "velocity": 110}, {"time": 101040, "pitch": 64, "duration": 240, "velocity": 110}, {"time": 101280, "pitch": 64, "duration": 480, "velocity": 110}, {"time": 101760, "pitch": 62, "duration": 480, "velocity": 110}, {"time": 102240, "pitch": 60, "duration": 240, "velocity": 110}, {"time": 102480, "pitch": 58, "duration": 960, "velocity": 110}, {"time": 104160, "pitch": 60, "duration": 240, "velocity": 110}, {"time": 104400, "pitch": 65, "duration": 480, "velocity": 110}, {"time": 104880, "pitch": 65, "duration": 240, "velocity": 110}, {"time": 105120, "pitch": 65, "duration": 480, "velocity": 110}, {"time": 105600, "pitch": 67, "duration": 240, "velocity": 110}, {"time": 105840, "pitch": 69, "duration": 240, "velocity": 110}, {"time": 106080, "pitch": 67, "duration": 480, "velocity": 110}, {"time": 106560, "pitch": 64, "duration": 240, "velocity": 110}, {"time": 106800, "pitch": 62, "duration": 240, "velocity": 110}, {"time": 107040, "pitch": 60, "duration": 720, "velocity": 110}, {"time": 108000, "pitch": 64, "duration": 240, "velocity": 110}, {"time": 108240, "pitch": 64, "duration": 480, "velocity": 110}, {"time": 108720, "pitch": 65, "duration": 240, "velocity": 110}, {"time": 108960, "pitch": 62, "duration": 720, "velocity": 110}, {"time": 109680, "pitch": 60, "duration": 240, "velocity": 110}, {"time": 109920, "pitch": 62, "duration": 1200, "velocity": 110}, {"time": 111840, "pitch": 60, "duration": 240, "velocity": 110}, {"time": 112080, "pitch": 67, "duration": 480, "velocity": 110}, {"time": 112560, "pitch": 67, "duration": 240, "velocity": 110}, {"time": 112800, "pitch": 67, "duration": 480, "velocity": 110}, {"time": 113280, "pitch": 65, "duration": 240, "velocity": 110}, {"time": 113520, "pitch": 64, "duration": 240, "velocity": 110}, {"time": 113760, "pitch": 65, "duration": 240, "velocity": 110}, {"time": 114000, "pitch": 64, "duration": 480, "velocity": 110}, {"time": 114480, "pitch": 62, "duration": 240, "velocity": 110}, {"time": 114720, "pitch": 62, "duration": 720, "velocity": 110}, {"time": 115680, "pitch": 60, "duration": 240, "velocity": 110}, {"time": 115920, "pitch": 64, "duration": 480, "velocity": 110}, {"time": 116400, "pitch": 64, "duration": 240, "velocity": 110}, {"time": 116640, "pitch": 64, "duration": 480, "velocity": 110}, {"time": 117120, "pitch": 62, "duration": 480, "velocity": 110}, {"time": 117600, "pitch": 60, "duration": 240, "velocity": 110}, {"time": 117840, "pitch": 58, "duration": 960, "velocity": 110}, {"time": 119520, "pitch": 60, "duration": 240, "velocity": 110}, {"time": 119760, "pitch": 65, "duration": 480, "velocity": 110}, {"time": 120240, "pitch": 65, "duration": 240, "velocity": 110}, {"time": 120480, "pitch": 65, "duration": 480, "velocity": 110}, {"time": 120960, "pitch": 67, "duration": 240, "velocity": 110}, {"time": 121200, "pitch": 69, "duration": 240, "velocity": 110}, {"time": 121440, "pitch": 67, "duration": 480, "velocity": 110}, {"time": 121920, "pitch": 64, "duration": 240, "velocity": 110}, {"time": 122160, "pitch": 62, "duration": 240, "velocity": 110}, {"time": 122400, "pitch": 60, "duration": 720, "velocity": 110}, {"time": 123360, "pitch": 64, "duration": 240, "velocity": 110}, {"time": 123600, "pitch": 64, "duration": 480, "velocity": 110}, {"time": 124080, "pitch": 65, "duration": 240, "velocity": 110}, {"time": 124320, "pitch": 62, "duration": 720, "velocity": 110}, {"time": 125040, "pitch": 60, "duration": 240, "velocity": 110}, {"time": 125280, "pitch": 60, "duration": 1200, "velocity": 110}, {"time": 127200, "pitch": 60, "duration": 240, "velocity": 110}, {"time": 127440, "pitch": 69, "duration": 320, "velocity": 110}, {"time": 127760, "pitch": 69, "duration": 320, "velocity": 110}, {"time": 128080, "pitch": 69, "duration": 320, "velocity": 110}, {"time": 128400, "pitch": 69, "duration": 320, "velocity": 110}, {"time": 128720, "pitch": 67, "duration": 320, "velocity": 110}, {"time": 129040, "pitch": 65, "duration": 320, "velocity": 110}, {"time": 129360, "pitch": 67, "duration": 320, "velocity": 110}, {"time": 129680, "pitch": 67, "duration": 320, "velocity": 110}, {"time": 130000, "pitch": 67, "duration": 320, "velocity": 110}, {"time": 130320, "pitch": 67, "duration": 320, "velocity": 110}, {"time": 130640, "pitch": 65, "duration": 320, "velocity": 110}, {"time": 130960, "pitch": 64, "duration": 320, "velocity": 110}, {"time": 131280, "pitch": 65, "duration": 320, "velocity": 110}, {"time": 131600, "pitch": 65, "duration": 320, "velocity": 110}, {"time": 131920, "pitch": 65, "duration": 320, "velocity": 110}, {"time": 132240, "pitch": 65, "duration": 320, "velocity": 110}, {"time": 132560, "pitch": 64, "duration": 320, "velocity": 110}, {"time": 132880, "pitch": 62, "duration": 320, "velocity": 110}, {"time": 133200, "pitch": 64, "duration": 880, "velocity": 110}, {"time": 134880, "pitch": 60, "duration": 240, "velocity": 110}, {"time": 135120, "pitch": 69, "duration": 320, "velocity": 110}, {"time": 135440, "pitch": 69, "duration": 320, "velocity": 110}, {"time": 135760, "pitch": 69, "duration": 320, "velocity": 110}, {"time": 136080, "pitch": 69, "duration": 320, "velocity": 110}, {"time": 136400, "pitch": 67, "duration": 320, "velocity": 110}, {"time": 136720, "pitch": 65, "duration": 320, "velocity": 110}, {"time": 137040, "pitch": 67, "duration": 480, "velocity": 110}, {"time": 137520, "pitch": 71, "duration": 240, "velocity": 110}, {"time": 137760, "pitch": 72, "duration": 720, "velocity": 110}, {"time": 138720, "pitch": 67, "duration": 240, "velocity": 110}, {"time": 138960, "pitch": 69, "duration": 320, "velocity": 110}, {"time": 139280, "pitch": 69, "duration": 320, "velocity": 110}, {"time": 139600, "pitch": 69, "duration": 320, "velocity": 110}, {"time": 139920, "pitch": 69, "duration": 320, "velocity": 110}, {"time": 140240, "pitch": 71, "duration": 320, "velocity": 110}, {"time": 140560, "pitch": 72, "duration": 320, "velocity": 110}, {"time": 140880, "pitch": 74, "duration": 960, "velocity": 110}, {"time": 142560, "pitch": 67, "duration": 240, "velocity": 110}, {"time": 142800, "pitch": 74, "duration": 240, "velocity": 110}, {"time": 143040, "pitch": 72, "duration": 240, "velocity": 110}, {"time": 143280, "pitch": 74, "duration": 240, "velocity": 110}, {"time": 143520, "pitch": 76, "duration": 240, "velocity": 110}, {"time": 144000, "pitch": 72, "duration": 240, "velocity": 110}, {"time": 144480, "pitch": 77, "duration": 480, "velocity": 110}, {"time": 144960, "pitch": 76, "duration": 240, "velocity": 110}, {"time": 145200, "pitch": 74, "duration": 240, "velocity": 110}, {"time": 145440, "pitch": 76, "duration": 720, "velocity": 110}, {"time": 146400, "pitch": 67, "duration": 240, "velocity": 110}, {"time": 146640, "pitch": 74, "duration": 240, "velocity": 110}, {"time": 146880, "pitch": 72, "duration": 240, "velocity": 110}, {"time": 147120, "pitch": 74, "duration": 240, "velocity": 110}, {"time": 147360, "pitch": 76, "duration": 240, "velocity": 110}, {"time": 147840, "pitch": 72, "duration": 240, "velocity": 110}, {"time": 148320, "pitch": 77, "duration": 480, "velocity": 110}, {"time": 148800, "pitch": 76, "duration": 240, "velocity": 110}, {"time": 149040, "pitch": 72, "duration": 240, "velocity": 110}, {"time": 149280, "pitch": 74, "duration": 360, "velocity": 110}, {"time": 149760, "pitch": 76, "duration": 360, "velocity": 110}, {"time": 150120, "pitch": 77, "duration": 360, "velocity": 110}, {"time": 150480, "pitch": 79, "duration": 360, "velocity": 110}, {"time": 150840, "pitch": 79, "duration": 360, "velocity": 110}, {"time": 151200, "pitch": 79, "duration": 240, "velocity": 110}, {"time": 151440, "pitch": 79, "duration": 360, "velocity": 110}, {"time": 151800, "pitch": 76, "duration": 360, "velocity": 110}, {"time": 152160, "pitch": 79, "duration": 480, "velocity": 110}, {"time": 152640, "pitch": 72, "duration": 720, "velocity": 110}, {"time": 154080, "pitch": 67, "duration": 240, "velocity": 110}, {"time": 154320, "pitch": 69, "duration": 360, "velocity": 110}, {"time": 154680, "pitch": 71, "duration": 360, "velocity": 110}, {"time": 155040, "pitch": 72, "duration": 240, "velocity": 110}, {"time": 155280, "pitch": 76, "duration": 360, "velocity": 110}, {"time": 155640, "pitch": 72, "duration": 360, "velocity": 110}, {"time": 156000, "pitch": 76, "duration": 480, "velocity": 110}, {"time": 156480, "pitch": 74, "duration": 720, "velocity": 110}, {"time": 157920, "pitch": 67, "duration": 240, "velocity": 110}, {"time": 158160, "pitch": 74, "duration": 240, "velocity": 110}, {"time": 158400, "pitch": 72, "duration": 240, "velocity": 110}, {"time": 158640, "pitch": 74, "duration": 240, "velocity": 110}, {"time": 158880, "pitch": 76, "duration": 240, "velocity": 110}, {"time": 159360, "pitch": 72, "duration": 240, "velocity": 110}, {"time": 159840, "pitch": 77, "duration": 480, "velocity": 110}, {"time": 160320, "pitch": 76, "duration": 240, "velocity": 110}, {"time": 160560, "pitch": 74, "duration": 240, "velocity": 110}, {"time": 160800, "pitch": 76, "duration": 720, "velocity": 110}, {"time": 161760, "pitch": 67, "duration": 240, "velocity": 110}, {"time": 162000, "pitch": 74, "duration": 240, "velocity": 110}, {"time": 162240, "pitch": 72, "duration": 240, "velocity": 110}, {"time": 162480, "pitch": 74, "duration": 240, "velocity": 110}, {"time": 162720, "pitch": 76, "duration": 240, "velocity": 110}, {"time": 163200, "pitch": 72, "duration": 240, "velocity": 110}, {"time": 163680, "pitch": 77, "duration": 480, "velocity": 110}, {"time": 164160, "pitch": 76, "duration": 240, "velocity": 110}, {"time": 164400, "pitch": 72, "duration": 240, "velocity": 110}, {"time": 164640, "pitch": 74, "duration": 360, "velocity": 110}, {"time": 165120, "pitch": 76, "duration": 360, "velocity": 110}, {"time": 165480, "pitch": 77, "duration": 360, "velocity": 110}, {"time": 165840, "pitch": 79, "duration": 360, "velocity": 110}, {"time": 166200, "pitch": 79, "duration": 360, "velocity": 110}, {"time": 166560, "pitch": 79, "duration": 240, "velocity": 110}, {"time": 166800, "pitch": 79, "duration": 360, "velocity": 110}, {"time": 167160, "pitch": 76, "duration": 360, "velocity": 110}, {"time": 167520, "pitch": 79, "duration": 480, "velocity": 110}, {"time": 168000, "pitch": 72, "duration": 720, "velocity": 110}, {"time": 169440, "pitch": 67, "duration": 240, "velocity": 110}, {"time": 169680, "pitch": 69, "duration": 360, "velocity": 110}, {"time": 170040, "pitch": 71, "duration": 360, "velocity": 110}, {"time": 170400, "pitch": 72, "duration": 240, "velocity": 110}, {"time": 170640, "pitch": 72, "duration": 360, "velocity": 110}, {"time": 171000, "pitch": 74, "duration": 360, "velocity": 110}, {"time": 171360, "pitch": 76, "duration": 240, "velocity": 110}, {"time": 171600, "pitch": 77, "duration": 360, "velocity": 110}, {"time": 171960, "pitch": 76, "duration": 360, "velocity": 110}, {"time": 172320, "pitch": 77, "duration": 240, "velocity": 110}, {"time": 172560, "pitch": 76, "duration": 360, "velocity": 110}, {"time": 172920, "pitch": 71, "duration": 360, "velocity": 110}, {"time": 173280, "pitch": 74, "duration": 480, "velocity": 110}, {"time": 173760, "pitch": 72, "duration": 1680, "velocity": 110}, {"time": 188640, "pitch": 67, "duration": 240, "velocity": 110}, {"time": 188880, "pitch": 74, "duration": 240, "velocity": 110}, {"time": 189120, "pitch": 72, "duration": 240, "velocity": 110}, {"time": 189360, "pitch": 74, "duration": 240, "velocity": 110}, {"time": 189600, "pitch": 76, "duration": 240, "velocity": 110}, {"time": 190080, "pitch": 72, "duration": 240, "velocity": 110}, {"time": 190560, "pitch": 77, "duration": 480, "velocity": 110}, {"time": 191040, "pitch": 76, "duration": 240, "velocity": 110}, {"time": 191280, "pitch": 74, "duration": 240, "velocity": 110}, {"time": 191520, "pitch": 76, "duration": 720, "velocity": 110}, {"time": 192480, "pitch": 67, "duration": 240, "velocity": 110}, {"time": 192720, "pitch": 74, "duration": 240, "velocity": 110}, {"time": 192960, "pitch": 72, "duration": 240, "velocity": 110}, {"time": 193200, "pitch": 74, "duration": 240, "velocity": 110}, {"time": 193440, "pitch": 76, "duration": 240, "velocity": 110}, {"time": 193920, "pitch": 72, "duration": 240, "velocity": 110}, {"time": 194400, "pitch": 77, "duration": 480, "velocity": 110}, {"time": 194880, "pitch": 76, "duration": 240, "velocity": 110}, {"time": 195120, "pitch": 72, "duration": 240, "velocity": 110}, {"time": 195360, "pitch": 74, "duration": 360, "velocity": 110}, {"time": 195840, "pitch": 76, "duration": 360, "velocity": 110}, {"time": 196200, "pitch": 77, "duration": 360, "velocity": 110}, {"time": 196560, "pitch": 79, "duration": 360, "velocity": 110}, {"time": 196920, "pitch": 79, "duration": 360, "velocity": 110}, {"time": 197280, "pitch": 79, "duration": 240, "velocity": 110}, {"time": 197520, "pitch": 79, "duration": 360, "velocity": 110}, {"time": 197880, "pitch": 76, "duration": 360, "velocity": 110}, {"time": 198240, "pitch": 79, "duration": 480, "velocity": 110}, {"time": 198720, "pitch": 72, "duration": 720, "velocity": 110}, {"time": 200160, "pitch": 67, "duration": 240, "velocity": 110}, {"time": 200400, "pitch": 69, "duration": 360, "velocity": 110}, {"time": 200760, "pitch": 71, "duration": 360, "velocity": 110}, {"time": 201120, "pitch": 72, "duration": 240, "velocity": 110}, {"time": 201360, "pitch": 76, "duration": 360, "velocity": 110}, {"time": 201720, "pitch": 72, "duration": 360, "velocity": 110}, {"time": 202080, "pitch": 76, "duration": 480, "velocity": 110}, {"time": 202560, "pitch": 74, "duration": 720, "velocity": 110}, {"time": 204000, "pitch": 67, "duration": 240, "velocity": 110}, {"time": 204240, "pitch": 74, "duration": 240, "velocity": 110}, {"time": 204480, "pitch": 72, "duration": 240, "velocity": 110}, {"time": 204720, "pitch": 74, "duration": 240, "velocity": 110}, {"time": 204960, "pitch": 76, "duration": 240, "velocity": 110}, {"time": 205440, "pitch": 72, "duration": 240, "velocity": 110}, {"time": 205920, "pitch": 77, "duration": 480, "velocity": 110}, {"time": 206400, "pitch": 76, "duration": 240, "velocity": 110}, {"time": 206640, "pitch": 74, "duration": 240, "velocity": 110}, {"time": 206880, "pitch": 76, "duration": 720, "velocity": 110}, {"time": 207840, "pitch": 67, "duration": 240, "velocity": 110}, {"time": 208080, "pitch": 74, "duration": 240, "velocity": 110}, {"time": 208320, "pitch": 72, "duration": 240, "velocity": 110}, {"time": 208560, "pitch": 74, "duration": 240, "velocity": 110}, {"time": 208800, "pitch": 76, "duration": 240, "velocity": 110}, {"time": 209280, "pitch": 72, "duration": 240, "velocity": 110}, {"time": 209760, "pitch": 77, "duration": 480, "velocity": 110}, {"time": 210240, "pitch": 76, "duration": 240, "velocity": 110}, {"time": 210480, "pitch": 72, "duration": 240, "velocity": 110}, {"time": 210720, "pitch": 74, "duration": 360, "velocity": 110}, {"time": 211200, "pitch": 76, "duration": 360, "velocity": 110}, {"time": 211560, "pitch": 77, "duration": 360, "velocity": 110}, {"time": 211920, "pitch": 79, "duration": 360, "velocity": 110}, {"time": 212280, "pitch": 79, "duration": 360, "velocity": 110}, {"time": 212640, "pitch": 79, "duration": 240, "velocity": 110}, {"time": 212880, "pitch": 79, "duration": 360, "velocity": 110}, {"time": 213240, "pitch": 76, "duration": 360, "velocity": 110}, {"time": 213600, "pitch": 79, "duration": 480, "velocity": 110}, {"time": 214080, "pitch": 72, "duration": 720, "velocity": 110}, {"time": 215520, "pitch": 67, "duration": 240, "velocity": 110}, {"time": 215760, "pitch": 69, "duration": 360, "velocity": 110}, {"time": 216120, "pitch": 71, "duration": 360, "velocity": 110}, {"time": 216480, "pitch": 72, "duration": 240, "velocity": 110}, {"time": 216720, "pitch": 72, "duration": 360, "velocity": 110}, {"time": 217080, "pitch": 74, "duration": 360, "velocity": 110}, {"time": 217440, "pitch": 76, "duration": 240, "velocity": 110}, {"time": 217680, "pitch": 77, "duration": 360, "velocity": 110}, {"time": 218040, "pitch": 76, "duration": 360, "velocity": 110}, {"time": 218400, "pitch": 77, "duration": 240, "velocity": 110}, {"time": 218640, "pitch": 76, "duration": 360, "velocity": 110}, {"time": 219000, "pitch": 71, "duration": 360, "velocity": 110}, {"time": 219360, "pitch": 74, "duration": 480, "velocity": 110}, {"time": 219840, "pitch": 72, "duration": 1680, "velocity": 110}, {"time": 2400, "pitch": 72, "duration": 960, "velocity": 100}, {"time": 2400, "pitch": 76, "duration": 960, "velocity": 100}, {"time": 3360, "pitch": 71, "duration": 1200, "velocity": 100}, {"time": 3360, "pitch": 74, "duration": 1200, "velocity": 100}, {"time": 4560, "pitch": 69, "duration": 720, "velocity": 100}, {"time": 4560, "pitch": 72, "duration": 720, "velocity": 100}, {"time": 5280, "pitch": 67, "duration": 1200, "velocity": 100}, {"time": 5280, "pitch": 71, "duration": 1200, "velocity": 100}, {"time": 6480, "pitch": 65, "duration": 720, "velocity": 100}, {"time": 6480, "pitch": 69, "duration": 720, "velocity": 100}, {"time": 7200, "pitch": 64, "duration": 1200, "velocity": 100}, {"time": 7200, "pitch": 67, "duration": 1200, "velocity": 100}, {"time": 8400, "pitch": 62, "duration": 720, "velocity": 100}, {"time": 8400, "pitch": 69, "duration": 720, "velocity": 100}, {"time": 9120, "pitch": 67, "duration": 3120, "velocity": 100}, {"time": 9120, "pitch": 72, "duration": 3120, "velocity": 100}, {"time": 58320, "pitch": 76, "duration": 720, "velocity": 100}, {"time": 58320, "pitch": 79, "duration": 3840, "velocity": 100}, {"time": 59040, "pitch": 74, "duration": 1200, "velocity": 100}, {"time": 60240, "pitch": 72, "duration": 720, "velocity": 100}, {"time": 60960, "pitch": 71, "duration": 1200, "velocity": 100}, {"time": 62160, "pitch": 69, "duration": 720, "velocity": 100}, {"time": 62160, "pitch": 76, "duration": 2640, "velocity": 100}, {"time": 62880, "pitch": 72, "duration": 1200, "velocity": 100}, {"time": 64080, "pitch": 69, "duration": 720, "velocity": 100}, {"time": 64800, "pitch": 72, "duration": 720, "velocity": 100}, {"time": 64800, "pitch": 77, "duration": 1200, "velocity": 100}, {"time": 65520, "pitch": 71, "duration": 480, "velocity": 100}, {"time": 66000, "pitch": 71, "duration": 1920, "velocity": 100}, {"time": 66000, "pitch": 79, "duration": 2160, "velocity": 100}, {"time": 67920, "pitch": 67, "duration": 240, "velocity": 100}, {"time": 68160, "pitch": 65, "duration": 240, "velocity": 100}, {"time": 68160, "pitch": 77, "duration": 240, "velocity": 100}, {"time": 68400, "pitch": 64, "duration": 240, "velocity": 100}, {"time": 68400, "pitch": 76, "duration": 240, "velocity": 100}, {"time": 68640, "pitch": 60, "duration": 1200, "velocity": 100}, {"time": 68640, "pitch": 72, "duration": 1200, "velocity": 100}, {"time": 69840, "pitch": 64, "duration": 720, "velocity": 100}, {"time": 69840, "pitch": 69, "duration": 1920, "velocity": 100}, {"time": 70560, "pitch": 65, "duration": 1200, "velocity": 100}, {"time": 71760, "pitch": 67, "duration": 480, "velocity": 100}, {"time": 71760, "pitch": 72, "duration": 480, "velocity": 100}, {"time": 72240, "pitch": 67, "duration": 480, "velocity": 100}, {"time": 72240, "pitch": 71, "duration": 480, "velocity": 100}, {"time": 72720, "pitch": 67, "duration": 480, "velocity": 100}, {"time": 72720, "pitch": 72, "duration": 480, "velocity": 100}, {"time": 73200, "pitch": 67, "duration": 480, "velocity": 100}, {"time": 73200, "pitch": 74, "duration": 480, "velocity": 100}, {"time": 73680, "pitch": 76, "duration": 720, "velocity": 100}, {"time": 73680, "pitch": 79, "duration": 3840, "velocity": 100}, {"time": 74400, "pitch": 74, "duration": 1200, "velocity": 100}, {"time": 75600, "pitch": 72, "duration": 720, "velocity": 100}, {"time": 76320, "pitch": 71, "duration": 1200, "velocity": 100}, {"time": 77520, "pitch": 69, "duration": 720, "velocity": 100}, {"time": 77520, "pitch": 76, "duration": 2640, "velocity": 100}, {"time": 78240, "pitch": 72, "duration": 1200, "velocity": 100}, {"time": 79440, "pitch": 69, "duration": 720, "velocity": 100}, {"time": 80160, "pitch": 72, "duration": 720, "velocity": 100}, {"time": 80160, "pitch": 77, "duration": 1200, "velocity": 100}, {"time": 80880, "pitch": 71, "duration": 480, "velocity": 100}, {"time": 81360, "pitch": 71, "duration": 1920, "velocity": 100}, {"time": 81360, "pitch": 79, "duration": 2160, "velocity": 100}, {"time": 83280, "pitch": 67, "duration": 240, "velocity": 100}, {"time": 83520, "pitch": 65, "duration": 240, "velocity": 100}, {"time": 83520, "pitch": 77, "duration": 240, "velocity": 100}, {"time": 83760, "pitch": 64, "duration": 240, "velocity": 100}, {"time": 83760, "pitch": 76, "duration": 240, "velocity": 100}, {"time": 84000, "pitch": 60, "duration": 1200, "velocity": 100}, {"time": 84000, "pitch": 72, "duration": 1200, "velocity": 100}, {"time": 85200, "pitch": 64, "duration": 720, "velocity": 100}, {"time": 85200, "pitch": 69, "duration": 1920, "velocity": 100}, {"time": 85920, "pitch": 65, "duration": 1200, "velocity": 100}, {"time": 87120, "pitch": 67, "duration": 480, "velocity": 100}, {"time": 87120, "pitch": 72, "duration": 480, "velocity": 100}, {"time": 87600, "pitch": 67, "duration": 480, "velocity": 100}, {"time": 87600, "pitch": 71, "duration": 480, "velocity": 100}, {"time": 88080, "pitch": 67, "duration": 480, "velocity": 100}, {"time": 88080, "pitch": 72, "duration": 480, "velocity": 100}, {"time": 88560, "pitch": 67, "duration": 480, "velocity": 100}, {"time": 88560, "pitch": 74, "duration": 480, "velocity": 100}, {"time": 89040, "pitch": 72, "duration": 720, "velocity": 100}, {"time": 89040, "pitch": 76, "duration": 720, "velocity": 100}, {"time": 89760, "pitch": 71, "duration": 1200, "velocity": 100}, {"time": 89760, "pitch": 74, "duration": 1200, "velocity": 100}, {"time": 90960, "pitch": 69, "duration": 720, "velocity": 100}, {"time": 90960, "pitch": 72, "duration": 720, "velocity": 100}, {"time": 91680, "pitch": 67, "duration": 1200, "velocity": 100}, {"time": 91680, "pitch": 71, "duration": 1200, "velocity": 100}, {"time": 92880, "pitch": 65, "duration": 720, "velocity": 100}, {"time": 92880, "pitch": 69, "duration": 720, "velocity": 100}, {"time": 93600, "pitch": 64, "duration": 1200, "velocity": 100}, {"time": 93600, "pitch": 67, "duration": 1200, "velocity": 100}, {"time": 94800, "pitch": 62, "duration": 720, "velocity": 100}, {"time": 94800, "pitch": 69, "duration": 720, "velocity": 100}, {"time": 95520, "pitch": 67, "duration": 1200, "velocity": 100}, {"time": 95520, "pitch": 72, "duration": 1200, "velocity": 100}, {"time": 112080, "pitch": 64, "duration": 1920, "velocity": 100}, {"time": 112080, "pitch": 76, "duration": 1920, "velocity": 100}, {"time": 114000, "pitch": 65, "duration": 720, "velocity": 100}, {"time": 114000, "pitch": 77, "duration": 720, "velocity": 100}, {"time": 114720, "pitch": 64, "duration": 720, "velocity": 100}, {"time": 114720, "pitch": 76, "duration": 720, "velocity": 100}, {"time": 115440, "pitch": 62, "duration": 480, "velocity": 100}, {"time": 115440, "pitch": 74, "duration": 480, "velocity": 100}, {"time": 115920, "pitch": 60, "duration": 1920, "velocity": 100}, {"time": 115920, "pitch": 72, "duration": 1920, "velocity": 100}, {"time": 117840, "pitch": 58, "duration": 240, "velocity": 100}, {"time": 117840, "pitch": 70, "duration": 240, "velocity": 100}, {"time": 118080, "pitch": 60, "duration": 240, "velocity": 100}, {"time": 118080, "pitch": 72, "duration": 240, "velocity": 100}, {"time": 118320, "pitch": 62, "duration": 240, "velocity": 100}, {"time": 118320, "pitch": 74, "duration": 240, "velocity": 100}, {"time": 118560, "pitch": 64, "duration": 240, "velocity": 100}, {"time": 118560, "pitch": 76, "duration": 240, "velocity": 100}, {"time": 119040, "pitch": 67, "duration": 720, "velocity": 100}, {"time": 119040, "pitch": 79, "duration": 720, "velocity": 100}, {"time": 119760, "pitch": 65, "duration": 1920, "velocity": 100}, {"time": 119760, "pitch": 76, "duration": 720, "velocity": 100}, {"time": 120480, "pitch": 72, "duration": 1200, "velocity": 100}, {"time": 121680, "pitch": 67, "duration": 720, "velocity": 100}, {"time": 121680, "pitch": 74, "duration": 720, "velocity": 100}, {"time": 122400, "pitch": 69, "duration": 1200, "velocity": 100}, {"time": 122400, "pitch": 72, "duration": 1200, "velocity": 100}, {"time": 123600, "pitch": 65, "duration": 1920, "velocity": 100}, {"time": 123600, "pitch": 72, "duration": 720, "velocity": 100}, {"time": 124320, "pitch": 71, "duration": 1200, "velocity": 100}, {"time": 125520, "pitch": 64, "duration": 1920, "velocity": 100}, {"time": 125520, "pitch": 72, "duration": 1920, "velocity": 100}, {"time": 133440, "pitch": 60, "duration": 240, "velocity": 100}, {"time": 133440, "pitch": 72, "duration": 240, "velocity": 100}, {"time": 133680, "pitch": 62, "duration": 240, "velocity": 100}, {"time": 133680, "pitch": 74, "duration": 240, "velocity": 100}, {"time": 133920, "pitch": 64, "duration": 480, "velocity": 100}, {"time": 133920, "pitch": 76, "duration": 480, "velocity": 100}, {"time": 134400, "pitch": 65, "duration": 240, "velocity": 100}, {"time": 134400, "pitch": 77, "duration": 240, "velocity": 100}, {"time": 134640, "pitch": 67, "duration": 480, "velocity": 100}, {"time": 134640, "pitch": 79, "duration": 480, "velocity": 100}, {"time": 135120, "pitch": 64, "duration": 1920, "velocity": 100}, {"time": 135120, "pitch": 76, "duration": 1920, "velocity": 100}, {"time": 137040, "pitch": 62, "duration": 960, "velocity": 100}, {"time": 137040, "pitch": 74, "duration": 960, "velocity": 100}, {"time": 138000, "pitch": 64, "duration": 960, "velocity": 100}, {"time": 138000, "pitch": 76, "duration": 2880, "velocity": 100}, {"time": 138960, "pitch": 65, "duration": 1920, "velocity": 100}, {"time": 140880, "pitch": 69, "duration": 480, "velocity": 100}, {"time": 140880, "pitch": 77, "duration": 480, "velocity": 100}, {"time": 141360, "pitch": 67, "duration": 480, "velocity": 100}, {"time": 141360, "pitch": 76, "duration": 480, "velocity": 100}, {"time": 141840, "pitch": 69, "duration": 480, "velocity": 100}, {"time": 141840, "pitch": 77, "duration": 480, "velocity": 100}, {"time": 142320, "pitch": 71, "duration": 480, "velocity": 100}, {"time": 142320, "pitch": 79, "duration": 480, "velocity": 100}, {"time": 142800, "pitch": 76, "duration": 720, "velocity": 100}, {"time": 142800, "pitch": 79, "duration": 3840, "velocity": 100}, {"time": 143520, "pitch": 74, "duration": 1200, "velocity": 100}, {"time": 144720, "pitch": 72, "duration": 720, "velocity": 100}, {"time": 145440, "pitch": 71, "duration": 1200, "velocity": 100}, {"time": 146640, "pitch": 69, "duration": 720, "velocity": 100}, {"time": 146640, "pitch": 76, "duration": 2640, "velocity": 100}, {"time": 147360, "pitch": 72, "duration": 1200, "velocity": 100}, {"time": 148560, "pitch": 69, "duration": 720, "velocity": 100}, {"time": 149280, "pitch": 72, "duration": 720, "velocity": 100}, {"time": 149280, "pitch": 77, "duration": 1200, "velocity": 100}, {"time": 150000, "pitch": 71, "duration": 480, "velocity": 100}, {"time": 150480, "pitch": 71, "duration": 1920, "velocity": 100}, {"time": 150480, "pitch": 79, "duration": 2160, "velocity": 100}, {"time": 152400, "pitch": 67, "duration": 240, "velocity": 100}, {"time": 152640, "pitch": 65, "duration": 240, "velocity": 100}, {"time": 152640, "pitch": 77, "duration": 240, "velocity": 100}, {"time": 152880, "pitch": 64, "duration": 240, "velocity": 100}, {"time": 152880, "pitch": 76, "duration": 240, "velocity": 100}, {"time": 153120, "pitch": 60, "duration": 1200, "velocity": 100}, {"time": 153120, "pitch": 72, "duration": 1200, "velocity": 100}, {"time": 154320, "pitch": 64, "duration": 720, "velocity": 100}, {"time": 154320, "pitch": 69, "duration": 1920, "velocity": 100}, {"time": 155040, "pitch": 65, "duration": 1200, "velocity": 100}, {"time": 156240, "pitch": 67, "duration": 480, "velocity": 100}, {"time": 156240, "pitch": 72, "duration": 480, "velocity": 100}, {"time": 156720, "pitch": 67, "duration": 480, "velocity": 100}, {"time": 156720, "pitch": 71, "duration": 480, "velocity": 100}, {"time": 157200, "pitch": 67, "duration": 480, "velocity": 100}, {"time": 157200, "pitch": 72, "duration": 480, "velocity": 100}, {"time": 157680, "pitch": 67, "duration": 480, "velocity": 100}, {"time": 157680, "pitch": 74, "duration": 480, "velocity": 100}, {"time": 158160, "pitch": 76, "duration": 720, "velocity": 100}, {"time": 158160, "pitch": 79, "duration": 3840, "velocity": 100}, {"time": 158880, "pitch": 74, "duration": 1200, "velocity": 100}, {"time": 160080, "pitch": 72, "duration": 720, "velocity": 100}, {"time": 160800, "pitch": 71, "duration": 1200, "velocity": 100}, {"time": 162000, "pitch": 69, "duration": 720, "velocity": 100}, {"time": 162000, "pitch": 76, "duration": 2640, "velocity": 100}, {"time": 162720, "pitch": 72, "duration": 1200, "velocity": 100}, {"time": 163920, "pitch": 69, "duration": 720, "velocity": 100}, {"time": 164640, "pitch": 72, "duration": 720, "velocity": 100}, {"time": 164640, "pitch": 77, "duration": 1200, "velocity": 100}, {"time": 165360, "pitch": 71, "duration": 480, "velocity": 100}, {"time": 165840, "pitch": 71, "duration": 1920, "velocity": 100}, {"time": 165840, "pitch": 79, "duration": 2160, "velocity": 100}, {"time": 167760, "pitch": 67, "duration": 240, "velocity": 100}, {"time": 168000, "pitch": 65, "duration": 240, "velocity": 100}, {"time": 168000, "pitch": 77, "duration": 240, "velocity": 100}, {"time": 168240, "pitch": 64, "duration": 240, "velocity": 100}, {"time": 168240, "pitch": 76, "duration": 240, "velocity": 100}, {"time": 168480, "pitch": 60, "duration": 1200, "velocity": 100}, {"time": 168480, "pitch": 72, "duration": 1200, "velocity": 100}, {"time": 169680, "pitch": 64, "duration": 720, "velocity": 100}, {"time": 169680, "pitch": 69, "duration": 1920, "velocity": 100}, {"time": 170400, "pitch": 65, "duration": 1200, "velocity": 100}, {"time": 171600, "pitch": 67, "duration": 480, "velocity": 100}, {"time": 171600, "pitch": 72, "duration": 480, "velocity": 100}, {"time": 172080, "pitch": 67, "duration": 480, "velocity": 100}, {"time": 172080, "pitch": 71, "duration": 480, "velocity": 100}, {"time": 172560, "pitch": 67, "duration": 480, "velocity": 100}, {"time": 172560, "pitch": 72, "duration": 480, "velocity": 100}, {"time": 173040, "pitch": 67, "duration": 480, "velocity": 100}, {"time": 173040, "pitch": 74, "duration": 480, "velocity": 100}, {"time": 188880, "pitch": 76, "duration": 720, "velocity": 100}, {"time": 188880, "pitch": 79, "duration": 3840, "velocity": 100}, {"time": 189600, "pitch": 74, "duration": 1200, "velocity": 100}, {"time": 190800, "pitch": 72, "duration": 720, "velocity": 100}, {"time": 191520, "pitch": 71, "duration": 1200, "velocity": 100}, {"time": 192720, "pitch": 69, "duration": 720, "velocity": 100}, {"time": 192720, "pitch": 76, "duration": 2640, "velocity": 100}, {"time": 193440, "pitch": 72, "duration": 1200, "velocity": 100}, {"time": 194640, "pitch": 69, "duration": 720, "velocity": 100}, {"time": 195360, "pitch": 72, "duration": 720, "velocity": 100}, {"time": 195360, "pitch": 77, "duration": 1200, "velocity": 100}, {"time": 196080, "pitch": 71, "duration": 480, "velocity": 100}, {"time": 196560, "pitch": 71, "duration": 1920, "velocity": 100}, {"time": 196560, "pitch": 79, "duration": 2160, "velocity": 100}, {"time": 198480, "pitch": 67, "duration": 240, "velocity": 100}, {"time": 198720, "pitch": 65, "duration": 240, "velocity": 100}, {"time": 198720, "pitch": 77, "duration": 240, "velocity": 100}, {"time": 198960, "pitch": 64, "duration": 240, "velocity": 100}, {"time": 198960, "pitch": 76, "duration": 240, "velocity": 100}, {"time": 199200, "pitch": 60, "duration": 1200, "velocity": 100}, {"time": 199200, "pitch": 72, "duration": 1200, "velocity": 100}, {"time": 200400, "pitch": 64, "duration": 720, "velocity": 100}, {"time": 200400, "pitch": 69, "duration": 1920, "velocity": 100}, {"time": 201120, "pitch": 65, "duration": 1200, "velocity": 100}, {"time": 202320, "pitch": 67, "duration": 480, "velocity": 100}, {"time": 202320, "pitch": 72, "duration": 480, "velocity": 100}, {"time": 202800, "pitch": 67, "duration": 480, "velocity": 100}, {"time": 202800, "pitch": 71, "duration": 480, "velocity": 100}, {"time": 203280, "pitch": 67, "duration": 480, "velocity": 100}, {"time": 203280, "pitch": 72, "duration": 480, "velocity": 100}, {"time": 203760, "pitch": 67, "duration": 480, "velocity": 100}, {"time": 203760, "pitch": 74, "duration": 480, "velocity": 100}, {"time": 204240, "pitch": 76, "duration": 720, "velocity": 100}, {"time": 204240, "pitch": 79, "duration": 3840, "velocity": 100}, {"time": 204960, "pitch": 74, "duration": 1200, "velocity": 100}, {"time": 206160, "pitch": 72, "duration": 720, "velocity": 100}, {"time": 206880, "pitch": 71, "duration": 1200, "velocity": 100}, {"time": 208080, "pitch": 69, "duration": 720, "velocity": 100}, {"time": 208080, "pitch": 76, "duration": 2640, "velocity": 100}, {"time": 208800, "pitch": 72, "duration": 1200, "velocity": 100}, {"time": 210000, "pitch": 69, "duration": 720, "velocity": 100}, {"time": 210720, "pitch": 72, "duration": 720, "velocity": 100}, {"time": 210720, "pitch": 77, "duration": 1200, "velocity": 100}, {"time": 211440, "pitch": 71, "duration": 480, "velocity": 100}, {"time": 211920, "pitch": 71, "duration": 1920, "velocity": 100}, {"time": 211920, "pitch": 79, "duration": 2160, "velocity": 100}, {"time": 213840, "pitch": 67, "duration": 240, "velocity": 100}, {"time": 214080, "pitch": 65, "duration": 240, "velocity": 100}, {"time": 214080, "pitch": 77, "duration": 240, "velocity": 100}, {"time": 214320, "pitch": 64, "duration": 240, "velocity": 100}, {"time": 214320, "pitch": 76, "duration": 240, "velocity": 100}, {"time": 214560, "pitch": 60, "duration": 1200, "velocity": 100}, {"time": 214560, "pitch": 72, "duration": 1200, "velocity": 100}, {"time": 215760, "pitch": 64, "duration": 720, "velocity": 100}, {"time": 215760, "pitch": 69, "duration": 1920, "velocity": 100}, {"time": 216480, "pitch": 65, "duration": 1200, "velocity": 100}, {"time": 217680, "pitch": 67, "duration": 480, "velocity": 100}, {"time": 217680, "pitch": 72, "duration": 480, "velocity": 100}, {"time": 218160, "pitch": 67, "duration": 480, "velocity": 100}, {"time": 218160, "pitch": 71, "duration": 480, "velocity": 100}, {"time": 218640, "pitch": 67, "duration": 480, "velocity": 100}, {"time": 218640, "pitch": 72, "duration": 480, "velocity": 100}, {"time": 219120, "pitch": 67, "duration": 480, "velocity": 100}, {"time": 219120, "pitch": 74, "duration": 480, "velocity": 100}, {"time": 219600, "pitch": 72, "duration": 720, "velocity": 100}, {"time": 219600, "pitch": 76, "duration": 720, "velocity": 100}, {"time": 220320, "pitch": 71, "duration": 1200, "velocity": 100}, {"time": 220320, "pitch": 74, "duration": 1200, "velocity": 100}, {"time": 221520, "pitch": 69, "duration": 720, "velocity": 100}, {"time": 221520, "pitch": 72, "duration": 720, "velocity": 100}, {"time": 222240, "pitch": 67, "duration": 1200, "velocity": 100}, {"time": 222240, "pitch": 71, "duration": 1200, "velocity": 100}, {"time": 223440, "pitch": 65, "duration": 720, "velocity": 100}, {"time": 223440, "pitch": 69, "duration": 720, "velocity": 100}, {"time": 224160, "pitch": 64, "duration": 1189, "velocity": 100}, {"time": 224160, "pitch": 67, "duration": 1189, "velocity": 100}, {"time": 225349, "pitch": 62, "duration": 731, "velocity": 100}, {"time": 225349, "pitch": 69, "duration": 731, "velocity": 100}, {"time": 226080, "pitch": 67, "duration": 6594, "velocity": 100}, {"time": 226080, "pitch": 72, "duration": 1345, "velocity": 100}, {"time": 227425, "pitch": 71, "duration": 1396, "velocity": 100}, {"time": 228821, "pitch": 72, "duration": 3853, "velocity": 100}, {"time": 2360, "pitch": 48, "duration": 980, "velocity": 100}, {"time": 2400, "pitch": 52, "duration": 960, "velocity": 100}, {"time": 2444, "pitch": 55, "duration": 926, "velocity": 100}, {"time": 2470, "pitch": 60, "duration": 900, "velocity": 100}, {"time": 2480, "pitch": 64, "duration": 920, "velocity": 100}, {"time": 3360, "pitch": 47, "duration": 1130, "velocity": 100}, {"time": 3380, "pitch": 50, "duration": 1130, "velocity": 100}, {"time": 3400, "pitch": 55, "duration": 1130, "velocity": 100}, {"time": 3410, "pitch": 62, "duration": 1130, "velocity": 100}, {"time": 3420, "pitch": 67, "duration": 1120, "velocity": 100}, {"time": 4542, "pitch": 45, "duration": 720, "velocity": 100}, {"time": 4556, "pitch": 52, "duration": 720, "velocity": 100}, {"time": 4570, "pitch": 57, "duration": 708, "velocity": 100}, {"time": 4583, "pitch": 60, "duration": 695, "velocity": 100}, {"time": 4588, "pitch": 64, "duration": 720, "velocity": 100}, {"time": 5264, "pitch": 43, "duration": 1130, "velocity": 100}, {"time": 5288, "pitch": 50, "duration": 1130, "velocity": 100}, {"time": 5308, "pitch": 55, "duration": 1130, "velocity": 100}, {"time": 5310, "pitch": 59, "duration": 1130, "velocity": 100}, {"time": 5320, "pitch": 62, "duration": 1120, "velocity": 100}, {"time": 5338, "pitch": 67, "duration": 1080, "velocity": 100}, {"time": 6460, "pitch": 41, "duration": 720, "velocity": 100}, {"time": 6480, "pitch": 48, "duration": 720, "velocity": 100}, {"time": 6502, "pitch": 53, "duration": 708, "velocity": 100}, {"time": 6515, "pitch": 57, "duration": 695, "velocity": 100}, {"time": 6520, "pitch": 60, "duration": 720, "velocity": 100}, {"time": 6536, "pitch": 65, "duration": 720, "velocity": 100}, {"time": 7200, "pitch": 40, "duration": 1130, "velocity": 100}, {"time": 7220, "pitch": 47, "duration": 1130, "velocity": 100}, {"time": 7240, "pitch": 52, "duration": 1130, "velocity": 100}, {"time": 7250, "pitch": 55, "duration": 1130, "velocity": 100}, {"time": 7260, "pitch": 59, "duration": 1120, "velocity": 100}, {"time": 7288, "pitch": 64, "duration": 1120, "velocity": 100}, {"time": 8382, "pitch": 50, "duration": 720, "velocity": 100}, {"time": 8396, "pitch": 57, "duration": 720, "velocity": 100}, {"time": 8400, "pitch": 62, "duration": 708, "velocity": 100}, {"time": 8423, "pitch": 65, "duration": 695, "velocity": 100}, {"time": 9104, "pitch": 43, "duration": 2056, "velocity": 100}, {"time": 9128, "pitch": 50, "duration": 2032, "velocity": 100}, {"time": 9148, "pitch": 57, "duration": 2012, "velocity": 100}, {"time": 9150, "pitch": 62, "duration": 2010, "velocity": 100}, {"time": 9160, "pitch": 65, "duration": 2000, "velocity": 100}, {"time": 12240, "pitch": 48, "duration": 480, "velocity": 100}, {"time": 12240, "pitch": 52, "duration": 480, "velocity": 100}, {"time": 12240, "pitch": 55, "duration": 480, "velocity": 100}, {"time": 12240, "pitch": 60, "duration": 480, "velocity": 100}, {"time": 12240, "pitch": 64, "duration": 480, "velocity": 100}, {"time": 12960, "pitch": 48, "duration": 480, "velocity": 100}, {"time": 12960, "pitch": 52, "duration": 480, "velocity": 100}, {"time": 12960, "pitch": 55, "duration": 480, "velocity": 100}, {"time": 12960, "pitch": 60, "duration": 480, "velocity": 100}, {"time": 12960, "pitch": 64, "duration": 480, "velocity": 100}, {"time": 13440, "pitch": 48, "duration": 240, "velocity": 85}, {"time": 13440, "pitch": 52, "duration": 240, "velocity": 85}, {"time": 13440, "pitch": 55, "duration": 240, "velocity": 85}, {"time": 13440, "pitch": 60, "duration": 240, "velocity": 85}, {"time": 13440, "pitch": 64, "duration": 240, "velocity": 85}, {"time": 13680, "pitch": 48, "duration": 240, "velocity": 100}, {"time": 13680, "pitch": 52, "duration": 240, "velocity": 100}, {"time": 13680, "pitch": 55, "duration": 240, "velocity": 100}, {"time": 13680, "pitch": 60, "duration": 240, "velocity": 100}, {"time": 13680, "pitch": 64, "duration": 240, "velocity": 100}, {"time": 13920, "pitch": 48, "duration": 240, "velocity": 81}, {"time": 13920, "pitch": 52, "duration": 240, "velocity": 81}, {"time": 13920, "pitch": 55, "duration": 240, "velocity": 81}, {"time": 13920, "pitch": 60, "duration": 240, "velocity": 81}, {"time": 13920, "pitch": 64, "duration": 240, "velocity": 81}, {"time": 14160, "pitch": 40, "duration": 480, "velocity": 100}, {"time": 14160, "pitch": 47, "duration": 480, "velocity": 100}, {"time": 14160, "pitch": 50, "duration": 480, "velocity": 100}, {"time": 14160, "pitch": 56, "duration": 480, "velocity": 100}, {"time": 14160, "pitch": 59, "duration": 480, "velocity": 100}, {"time": 14160, "pitch": 64, "duration": 480, "velocity": 100}, {"time": 14880, "pitch": 40, "duration": 480, "velocity": 100}, {"time": 14880, "pitch": 47, "duration": 480, "velocity": 100}, {"time": 14880, "pitch": 50, "duration": 480, "velocity": 100}, {"time": 14880, "pitch": 56, "duration": 480, "velocity": 100}, {"time": 14880, "pitch": 59, "duration": 480, "velocity": 100}, {"time": 14880, "pitch": 64, "duration": 480, "velocity": 100}, {"time": 15360, "pitch": 40, "duration": 240, "velocity": 85}, {"time": 15360, "pitch": 47, "duration": 240, "velocity": 85}, {"time": 15360, "pitch": 50, "duration": 240, "velocity": 85}, {"time": 15360, "pitch": 56, "duration": 240, "velocity": 85}, {"time": 15360, "pitch": 59, "duration": 240, "velocity": 85}, {"time": 15360, "pitch": 64, "duration": 240, "velocity": 85}, {"time": 15600, "pitch": 40, "duration": 240, "velocity": 100}, {"time": 15600, "pitch": 47, "duration": 240, "velocity": 100}, {"time": 15600, "pitch": 50, "duration": 240, "velocity": 100}, {"time": 15600, "pitch": 56, "duration": 240, "velocity": 100}, {"time": 15600, "pitch": 59, "duration": 240, "velocity": 100}, {"time": 15600, "pitch": 64, "duration": 240, "velocity": 100}, {"time": 15840, "pitch": 40, "duration": 240, "velocity": 81}, {"time": 15840, "pitch": 47, "duration": 240, "velocity": 81}, {"time": 15840, "pitch": 50, "duration": 240, "velocity": 81}, {"time": 15840, "pitch": 56, "duration": 240, "velocity": 81}, {"time": 15840, "pitch": 59, "duration": 240, "velocity": 81}, {"time": 15840, "pitch": 64, "duration": 240, "velocity": 81}, {"time": 16080, "pitch": 45, "duration": 480, "velocity": 100}, {"time": 16080, "pitch": 52, "duration": 480, "velocity": 100}, {"time": 16080, "pitch": 57, "duration": 480, "velocity": 100}, {"time": 16080, "pitch": 60, "duration": 480, "velocity": 100}, {"time": 16080, "pitch": 64, "duration": 480, "velocity": 100}, {"time": 16800, "pitch": 45, "duration": 480, "velocity": 100}, {"time": 16800, "pitch": 52, "duration": 480, "velocity": 100}, {"time": 16800, "pitch": 57, "duration": 480, "velocity": 100}, {"time": 16800, "pitch": 60, "duration": 480, "velocity": 100}, {"time": 16800, "pitch": 64, "duration": 480, "velocity": 100}, {"time": 17280, "pitch": 45, "duration": 240, "velocity": 85}, {"time": 17280, "pitch": 52, "duration": 240, "velocity": 85}, {"time": 17280, "pitch": 57, "duration": 240, "velocity": 85}, {"time": 17280, "pitch": 60, "duration": 240, "velocity": 85}, {"time": 17280, "pitch": 64, "duration": 240, "velocity": 85}, {"time": 17520, "pitch": 45, "duration": 240, "velocity": 100}, {"time": 17520, "pitch": 52, "duration": 240, "velocity": 100}, {"time": 17520, "pitch": 57, "duration": 240, "velocity": 100}, {"time": 17520, "pitch": 60, "duration": 240, "velocity": 100}, {"time": 17520, "pitch": 64, "duration": 240, "velocity": 100}, {"time": 17760, "pitch": 45, "duration": 240, "velocity": 81}, {"time": 17760, "pitch": 52, "duration": 240, "velocity": 81}, {"time": 17760, "pitch": 57, "duration": 240, "velocity": 81}, {"time": 17760, "pitch": 60, "duration": 240, "velocity": 81}, {"time": 17760, "pitch": 64, "duration": 240, "velocity": 81}, {"time": 18000, "pitch": 48, "duration": 480, "velocity": 100}, {"time": 18000, "pitch": 52, "duration": 480, "velocity": 100}, {"time": 18000, "pitch": 58, "duration": 480, "velocity": 100}, {"time": 18000, "pitch": 60, "duration": 480, "velocity": 100}, {"time": 18000, "pitch": 64, "duration": 480, "velocity": 100}, {"time": 18720, "pitch": 48, "duration": 480, "velocity": 100}, {"time": 18720, "pitch": 52, "duration": 480, "velocity": 100}, {"time": 18720, "pitch": 58, "duration": 480, "velocity": 100}, {"time": 18720, "pitch": 60, "duration": 480, "velocity": 100}, {"time": 18720, "pitch": 64, "duration": 480, "velocity": 100}, {"time": 19200, "pitch": 48, "duration": 240, "velocity": 85}, {"time": 19200, "pitch": 52, "duration": 240, "velocity": 85}, {"time": 19200, "pitch": 58, "duration": 240, "velocity": 85}, {"time": 19200, "pitch": 60, "duration": 240, "velocity": 85}, {"time": 19200, "pitch": 64, "duration": 240, "velocity": 85}, {"time": 19440, "pitch": 48, "duration": 240, "velocity": 100}, {"time": 19440, "pitch": 52, "duration": 240, "velocity": 100}, {"time": 19440, "pitch": 58, "duration": 240, "velocity": 100}, {"time": 19440, "pitch": 60, "duration": 240, "velocity": 100}, {"time": 19440, "pitch": 64, "duration": 240, "velocity": 100}, {"time": 19680, "pitch": 48, "duration": 240, "velocity": 81}, {"time": 19680, "pitch": 52, "duration": 240, "velocity": 81}, {"time": 19680, "pitch": 58, "duration": 240, "velocity": 81}, {"time": 19680, "pitch": 60, "duration": 240, "velocity": 81}, {"time": 19680, "pitch": 64, "duration": 240, "velocity": 81}, {"time": 19920, "pitch": 41, "duration": 480, "velocity": 100}, {"time": 19920, "pitch": 48, "duration": 480, "velocity": 100}, {"time": 19920, "pitch": 53, "duration": 480, "velocity": 100}, {"time": 19920, "pitch": 57, "duration": 480, "velocity": 100}, {"time": 19920, "pitch": 60, "duration": 480, "velocity": 100}, {"time": 19920, "pitch": 65, "duration": 480, "velocity": 100}, {"time": 20640, "pitch": 41, "duration": 480, "velocity": 100}, {"time": 20640, "pitch": 48, "duration": 480, "velocity": 100}, {"time": 20640, "pitch": 53, "duration": 480, "velocity": 100}, {"time": 20640, "pitch": 57, "duration": 480, "velocity": 100}, {"time": 20640, "pitch": 60, "duration": 480, "velocity": 100}, {"time": 20640, "pitch": 65, "duration": 480, "velocity": 100}, {"time": 21120, "pitch": 41, "duration": 240, "velocity": 85}, {"time": 21120, "pitch": 48, "duration": 240, "velocity": 85}, {"time": 21120, "pitch": 53, "duration": 240, "velocity": 85}, {"time": 21120, "pitch": 57, "duration": 240, "velocity": 85}, {"time": 21120, "pitch": 60, "duration": 240, "velocity": 85}, {"time": 21120, "pitch": 65, "duration": 240, "velocity": 85}, {"time": 21360, "pitch": 41, "duration": 240, "velocity": 100}, {"time": 21360, "pitch": 48, "duration": 240, "velocity": 100}, {"time": 21360, "pitch": 53, "duration": 240, "velocity": 100}, {"time": 21360, "pitch": 57, "duration": 240, "velocity": 100}, {"time": 21360, "pitch": 60, "duration": 240, "velocity": 100}, {"time": 21360, "pitch": 65, "duration": 240, "velocity": 100}, {"time": 21600, "pitch": 41, "duration": 240, "velocity": 81}, {"time": 21600, "pitch": 48, "duration": 240, "velocity": 81}, {"time": 21600, "pitch": 53, "duration": 240, "velocity": 81}, {"time": 21600, "pitch": 57, "duration": 240, "velocity": 81}, {"time": 21600, "pitch": 60, "duration": 240, "velocity": 81}, {"time": 21600, "pitch": 65, "duration": 240, "velocity": 81}, {"time": 21840, "pitch": 40, "duration": 480, "velocity": 100}, {"time": 21840, "pitch": 47, "duration": 480, "velocity": 100}, {"time": 21840, "pitch": 52, "duration": 480, "velocity": 100}, {"time": 21840, "pitch": 55, "duration": 480, "velocity": 100}, {"time": 21840, "pitch": 59, "duration": 480, "velocity": 100}, {"time": 21840, "pitch": 64, "duration": 480, "velocity": 100}, {"time": 22560, "pitch": 45, "duration": 480, "velocity": 100}, {"time": 22560, "pitch": 52, "duration": 480, "velocity": 100}, {"time": 22560, "pitch": 57, "duration": 480, "velocity": 100}, {"time": 22560, "pitch": 60, "duration": 480, "velocity": 100}, {"time": 22560, "pitch": 64, "duration": 480, "velocity": 100}, {"time": 23040, "pitch": 45, "duration": 240, "velocity": 85}, {"time": 23040, "pitch": 52, "duration": 240, "velocity": 85}, {"time": 23040, "pitch": 57, "duration": 240, "velocity": 85}, {"time": 23040, "pitch": 60, "duration": 240, "velocity": 85}, {"time": 23040, "pitch": 64, "duration": 240, "velocity": 85}, {"time": 23280, "pitch": 45, "duration": 240, "velocity": 100}, {"time": 23280, "pitch": 52, "duration": 240, "velocity": 100}, {"time": 23280, "pitch": 57, "duration": 240, "velocity": 100}, {"time": 23280, "pitch": 60, "duration": 240, "velocity": 100}, {"time": 23280, "pitch": 64, "duration": 240, "velocity": 100}, {"time": 23520, "pitch": 45, "duration": 240, "velocity": 81}, {"time": 23520, "pitch": 52, "duration": 240, "velocity": 81}, {"time": 23520, "pitch": 57, "duration": 240, "velocity": 81}, {"time": 23520, "pitch": 60, "duration": 240, "velocity": 81}, {"time": 23520, "pitch": 64, "duration": 240, "velocity": 81}, {"time": 23760, "pitch": 50, "duration": 480, "velocity": 100}, {"time": 23760, "pitch": 57, "duration": 480, "velocity": 100}, {"time": 23760, "pitch": 62, "duration": 480, "velocity": 100}, {"time": 23760, "pitch": 65, "duration": 480, "velocity": 100}, {"time": 24480, "pitch": 50, "duration": 480, "velocity": 100}, {"time": 24480, "pitch": 57, "duration": 480, "velocity": 100}, {"time": 24480, "pitch": 62, "duration": 480, "velocity": 100}, {"time": 24480, "pitch": 65, "duration": 480, "velocity": 100}, {"time": 24960, "pitch": 50, "duration": 240, "velocity": 85}, {"time": 24960, "pitch": 57, "duration": 240, "velocity": 85}, {"time": 24960, "pitch": 62, "duration": 240, "velocity": 85}, {"time": 24960, "pitch": 65, "duration": 240, "velocity": 85}, {"time": 25200, "pitch": 50, "duration": 240, "velocity": 100}, {"time": 25200, "pitch": 57, "duration": 240, "velocity": 100}, {"time": 25200, "pitch": 62, "duration": 240, "velocity": 100}, {"time": 25200, "pitch": 65, "duration": 240, "velocity": 100}, {"time": 25440, "pitch": 50, "duration": 240, "velocity": 81}, {"time": 25440, "pitch": 57, "duration": 240, "velocity": 81}, {"time": 25440, "pitch": 62, "duration": 240, "velocity": 81}, {"time": 25440, "pitch": 65, "duration": 240, "velocity": 81}, {"time": 25680, "pitch": 43, "duration": 480, "velocity": 100}, {"time": 25680, "pitch": 50, "duration": 480, "velocity": 100}, {"time": 25680, "pitch": 55, "duration": 480, "velocity": 100}, {"time": 25680, "pitch": 59, "duration": 480, "velocity": 100}, {"time": 25680, "pitch": 62, "duration": 480, "velocity": 100}, {"time": 25680, "pitch": 67, "duration": 480, "velocity": 100}, {"time": 26400, "pitch": 43, "duration": 480, "velocity": 100}, {"time": 26400, "pitch": 50, "duration": 480, "velocity": 100}, {"time": 26400, "pitch": 55, "duration": 480, "velocity": 100}, {"time": 26400, "pitch": 59, "duration": 480, "velocity": 100}, {"time": 26400, "pitch": 62, "duration": 480, "velocity": 100}, {"time": 26400, "pitch": 67, "duration": 480, "velocity": 100}, {"time": 26880, "pitch": 43, "duration": 240, "velocity": 85}, {"time": 26880, "pitch": 50, "duration": 240, "velocity": 85}, {"time": 26880, "pitch": 55, "duration": 240, "velocity": 85}, {"time": 26880, "pitch": 59, "duration": 240, "velocity": 85}, {"time": 26880, "pitch": 62, "duration": 240, "velocity": 85}, {"time": 26880, "pitch": 67, "duration": 240, "velocity": 85}, {"time": 27120, "pitch": 43, "duration": 240, "velocity": 100}, {"time": 27120, "pitch": 50, "duration": 240, "velocity": 100}, {"time": 27120, "pitch": 55, "duration": 240, "velocity": 100}, {"time": 27120, "pitch": 59, "duration": 240, "velocity": 100}, {"time": 27120, "pitch": 62, "duration": 240, "velocity": 100}, {"time": 27120, "pitch": 67, "duration": 240, "velocity": 100}, {"time": 27360, "pitch": 43, "duration": 240, "velocity": 81}, {"time": 27360, "pitch": 50, "duration": 240, "velocity": 81}, {"time": 27360, "pitch": 55, "duration": 240, "velocity": 81}, {"time": 27360, "pitch": 59, "duration": 240, "velocity": 81}, {"time": 27360, "pitch": 62, "duration": 240, "velocity": 81}, {"time": 27360, "pitch": 67, "duration": 240, "velocity": 81}, {"time": 27600, "pitch": 48, "duration": 480, "velocity": 100}, {"time": 27600, "pitch": 52, "duration": 480, "velocity": 100}, {"time": 27600, "pitch": 55, "duration": 480, "velocity": 100}, {"time": 27600, "pitch": 60, "duration": 480, "velocity": 100}, {"time": 27600, "pitch": 64, "duration": 480, "velocity": 100}, {"time": 28320, "pitch": 48, "duration": 480, "velocity": 100}, {"time": 28320, "pitch": 52, "duration": 480, "velocity": 100}, {"time": 28320, "pitch": 55, "duration": 480, "velocity": 100}, {"time": 28320, "pitch": 60, "duration": 480, "velocity": 100}, {"time": 28320, "pitch": 64, "duration": 480, "velocity": 100}, {"time": 28800, "pitch": 48, "duration": 240, "velocity": 85}, {"time": 28800, "pitch": 52, "duration": 240, "velocity": 85}, {"time": 28800, "pitch": 55, "duration": 240, "velocity": 85}, {"time": 28800, "pitch": 60, "duration": 240, "velocity": 85}, {"time": 28800, "pitch": 64, "duration": 240, "velocity": 85}, {"time": 29040, "pitch": 48, "duration": 240, "velocity": 100}, {"time": 29040, "pitch": 52, "duration": 240, "velocity": 100}, {"time": 29040, "pitch": 55, "duration": 240, "velocity": 100}, {"time": 29040, "pitch": 60, "duration": 240, "velocity": 100}, {"time": 29040, "pitch": 64, "duration": 240, "velocity": 100}, {"time": 29280, "pitch": 48, "duration": 240, "velocity": 81}, {"time": 29280, "pitch": 52, "duration": 240, "velocity": 81}, {"time": 29280, "pitch": 55, "duration": 240, "velocity": 81}, {"time": 29280, "pitch": 60, "duration": 240, "velocity": 81}, {"time": 29280, "pitch": 64, "duration": 240, "velocity": 81}, {"time": 29520, "pitch": 40, "duration": 480, "velocity": 100}, {"time": 29520, "pitch": 47, "duration": 480, "velocity": 100}, {"time": 29520, "pitch": 50, "duration": 480, "velocity": 100}, {"time": 29520, "pitch": 56, "duration": 480, "velocity": 100}, {"time": 29520, "pitch": 59, "duration": 480, "velocity": 100}, {"time": 29520, "pitch": 64, "duration": 480, "velocity": 100}, {"time": 30240, "pitch": 40, "duration": 480, "velocity": 100}, {"time": 30240, "pitch": 47, "duration": 480, "velocity": 100}, {"time": 30240, "pitch": 50, "duration": 480, "velocity": 100}, {"time": 30240, "pitch": 56, "duration": 480, "velocity": 100}, {"time": 30240, "pitch": 59, "duration": 480, "velocity": 100}, {"time": 30240, "pitch": 64, "duration": 480, "velocity": 100}, {"time": 30720, "pitch": 40, "duration": 240, "velocity": 85}, {"time": 30720, "pitch": 47, "duration": 240, "velocity": 85}, {"time": 30720, "pitch": 50, "duration": 240, "velocity": 85}, {"time": 30720, "pitch": 56, "duration": 240, "velocity": 85}, {"time": 30720, "pitch": 59, "duration": 240, "velocity": 85}, {"time": 30720, "pitch": 64, "duration": 240, "velocity": 85}, {"time": 30960, "pitch": 40, "duration": 240, "velocity": 100}, {"time": 30960, "pitch": 47, "duration": 240, "velocity": 100}, {"time": 30960, "pitch": 50, "duration": 240, "velocity": 100}, {"time": 30960, "pitch": 56, "duration": 240, "velocity": 100}, {"time": 30960, "pitch": 59, "duration": 240, "velocity": 100}, {"time": 30960, "pitch": 64, "duration": 240, "velocity": 100}, {"time": 31200, "pitch": 40, "duration": 240, "velocity": 81}, {"time": 31200, "pitch": 47, "duration": 240, "velocity": 81}, {"time": 31200, "pitch": 50, "duration": 240, "velocity": 81}, {"time": 31200, "pitch": 56, "duration": 240, "velocity": 81}, {"time": 31200, "pitch": 59, "duration": 240, "velocity": 81}, {"time": 31200, "pitch": 64, "duration": 240, "velocity": 81}, {"time": 31440, "pitch": 45, "duration": 480, "velocity": 100}, {"time": 31440, "pitch": 52, "duration": 480, "velocity": 100}, {"time": 31440, "pitch": 57, "duration": 480, "velocity": 100}, {"time": 31440, "pitch": 60, "duration": 480, "velocity": 100}, {"time": 31440, "pitch": 64, "duration": 480, "velocity": 100}, {"time": 32160, "pitch": 45, "duration": 480, "velocity": 100}, {"time": 32160, "pitch": 52, "duration": 480, "velocity": 100}, {"time": 32160, "pitch": 57, "duration": 480, "velocity": 100}, {"time": 32160, "pitch": 60, "duration": 480, "velocity": 100}, {"time": 32160, "pitch": 64, "duration": 480, "velocity": 100}, {"time": 32640, "pitch": 45, "duration": 240, "velocity": 85}, {"time": 32640, "pitch": 52, "duration": 240, "velocity": 85}, {"time": 32640, "pitch": 57, "duration": 240, "velocity": 85}, {"time": 32640, "pitch": 60, "duration": 240, "velocity": 85}, {"time": 32640, "pitch": 64, "duration": 240, "velocity": 85}, {"time": 32880, "pitch": 45, "duration": 240, "velocity": 100}, {"time": 32880, "pitch": 52, "duration": 240, "velocity": 100}, {"time": 32880, "pitch": 57, "duration": 240, "velocity": 100}, {"time": 32880, "pitch": 60, "duration": 240, "velocity": 100}, {"time": 32880, "pitch": 64, "duration": 240, "velocity": 100}, {"time": 33120, "pitch": 45, "duration": 240, "velocity": 81}, {"time": 33120, "pitch": 52, "duration": 240, "velocity": 81}, {"time": 33120, "pitch": 57, "duration": 240, "velocity": 81}, {"time": 33120, "pitch": 60, "duration": 240, "velocity": 81}, {"time": 33120, "pitch": 64, "duration": 240, "velocity": 81}, {"time": 33360, "pitch": 48, "duration": 480, "velocity": 100}, {"time": 33360, "pitch": 52, "duration": 480, "velocity": 100}, {"time": 33360, "pitch": 58, "duration": 480, "velocity": 100}, {"time": 33360, "pitch": 60, "duration": 480, "velocity": 100}, {"time": 33360, "pitch": 64, "duration": 480, "velocity": 100}, {"time": 34080, "pitch": 48, "duration": 480, "velocity": 100}, {"time": 34080, "pitch": 52, "duration": 480, "velocity": 100}, {"time": 34080, "pitch": 58, "duration": 480, "velocity": 100}, {"time": 34080, "pitch": 60, "duration": 480, "velocity": 100}, {"time": 34080, "pitch": 64, "duration": 480, "velocity": 100}, {"time": 34560, "pitch": 48, "duration": 240, "velocity": 85}, {"time": 34560, "pitch": 52, "duration": 240, "velocity": 85}, {"time": 34560, "pitch": 58, "duration": 240, "velocity": 85}, {"time": 34560, "pitch": 60, "duration": 240, "velocity": 85}, {"time": 34560, "pitch": 64, "duration": 240, "velocity": 85}, {"time": 34800, "pitch": 48, "duration": 240, "velocity": 100}, {"time": 34800, "pitch": 52, "duration": 240, "velocity": 100}, {"time": 34800, "pitch": 58, "duration": 240, "velocity": 100}, {"time": 34800, "pitch": 60, "duration": 240, "velocity": 100}, {"time": 34800, "pitch": 64, "duration": 240, "velocity": 100}, {"time": 35040, "pitch": 48, "duration": 240, "velocity": 81}, {"time": 35040, "pitch": 52, "duration": 240, "velocity": 81}, {"time": 35040, "pitch": 58, "duration": 240, "velocity": 81}, {"time": 35040, "pitch": 60, "duration": 240, "velocity": 81}, {"time": 35040, "pitch": 64, "duration": 240, "velocity": 81}, {"time": 35280, "pitch": 41, "duration": 480, "velocity": 100}, {"time": 35280, "pitch": 48, "duration": 480, "velocity": 100}, {"time": 35280, "pitch": 53, "duration": 480, "velocity": 100}, {"time": 35280, "pitch": 57, "duration": 480, "velocity": 100}, {"time": 35280, "pitch": 60, "duration": 480, "velocity": 100}, {"time": 35280, "pitch": 65, "duration": 480, "velocity": 100}, {"time": 36000, "pitch": 41, "duration": 480, "velocity": 100}, {"time": 36000, "pitch": 48, "duration": 480, "velocity": 100}, {"time": 36000, "pitch": 53, "duration": 480, "velocity": 100}, {"time": 36000, "pitch": 57, "duration": 480, "velocity": 100}, {"time": 36000, "pitch": 60, "duration": 480, "velocity": 100}, {"time": 36000, "pitch": 65, "duration": 480, "velocity": 100}, {"time": 36480, "pitch": 41, "duration": 240, "velocity": 85}, {"time": 36480, "pitch": 48, "duration": 240, "velocity": 85}, {"time": 36480, "pitch": 53, "duration": 240, "velocity": 85}, {"time": 36480, "pitch": 57, "duration": 240, "velocity": 85}, {"time": 36480, "pitch": 60, "duration": 240, "velocity": 85}, {"time": 36480, "pitch": 65, "duration": 240, "velocity": 85}, {"time": 36720, "pitch": 41, "duration": 240, "velocity": 100}, {"time": 36720, "pitch": 48, "duration": 240, "velocity": 100}, {"time": 36720, "pitch": 53, "duration": 240, "velocity": 100}, {"time": 36720, "pitch": 57, "duration": 240, "velocity": 100}, {"time": 36720, "pitch": 60, "duration": 240, "velocity": 100}, {"time": 36720, "pitch": 65, "duration": 240, "velocity": 100}, {"time": 36960, "pitch": 41, "duration": 240, "velocity": 81}, {"time": 36960, "pitch": 48, "duration": 240, "velocity": 81}, {"time": 36960, "pitch": 53, "duration": 240, "velocity": 81}, {"time": 36960, "pitch": 57, "duration": 240, "velocity": 81}, {"time": 36960, "pitch": 60, "duration": 240, "velocity": 81}, {"time": 36960, "pitch": 65, "duration": 240, "velocity": 81}, {"time": 37200, "pitch": 40, "duration": 480, "velocity": 100}, {"time": 37200, "pitch": 47, "duration": 480, "velocity": 100}, {"time": 37200, "pitch": 52, "duration": 480, "velocity": 100}, {"time": 37200, "pitch": 55, "duration": 480, "velocity": 100}, {"time": 37200, "pitch": 59, "duration": 480, "velocity": 100}, {"time": 37200, "pitch": 64, "duration": 480, "velocity": 100}, {"time": 37920, "pitch": 45, "duration": 480, "velocity": 100}, {"time": 37920, "pitch": 52, "duration": 480, "velocity": 100}, {"time": 37920, "pitch": 57, "duration": 480, "velocity": 100}, {"time": 37920, "pitch": 60, "duration": 480, "velocity": 100}, {"time": 37920, "pitch": 64, "duration": 480, "velocity": 100}, {"time": 38400, "pitch": 45, "duration": 240, "velocity": 85}, {"time": 38400, "pitch": 52, "duration": 240, "velocity": 85}, {"time": 38400, "pitch": 57, "duration": 240, "velocity": 85}, {"time": 38400, "pitch": 60, "duration": 240, "velocity": 85}, {"time": 38400, "pitch": 64, "duration": 240, "velocity": 85}, {"time": 38640, "pitch": 45, "duration": 240, "velocity": 100}, {"time": 38640, "pitch": 52, "duration": 240, "velocity": 100}, {"time": 38640, "pitch": 57, "duration": 240, "velocity": 100}, {"time": 38640, "pitch": 60, "duration": 240, "velocity": 100}, {"time": 38640, "pitch": 64, "duration": 240, "velocity": 100}, {"time": 38880, "pitch": 45, "duration": 240, "velocity": 81}, {"time": 38880, "pitch": 52, "duration": 240, "velocity": 81}, {"time": 38880, "pitch": 57, "duration": 240, "velocity": 81}, {"time": 38880, "pitch": 60, "duration": 240, "velocity": 81}, {"time": 38880, "pitch": 64, "duration": 240, "velocity": 81}, {"time": 39120, "pitch": 50, "duration": 480, "velocity": 100}, {"time": 39120, "pitch": 57, "duration": 480, "velocity": 100}, {"time": 39120, "pitch": 62, "duration": 480, "velocity": 100}, {"time": 39120, "pitch": 65, "duration": 480, "velocity": 100}, {"time": 39840, "pitch": 50, "duration": 480, "velocity": 100}, {"time": 39840, "pitch": 57, "duration": 480, "velocity": 100}, {"time": 39840, "pitch": 62, "duration": 480, "velocity": 100}, {"time": 39840, "pitch": 65, "duration": 480, "velocity": 100}, {"time": 40320, "pitch": 50, "duration": 240, "velocity": 85}, {"time": 40320, "pitch": 57, "duration": 240, "velocity": 85}, {"time": 40320, "pitch": 62, "duration": 240, "velocity": 85}, {"time": 40320, "pitch": 65, "duration": 240, "velocity": 85}, {"time": 40560, "pitch": 50, "duration": 240, "velocity": 100}, {"time": 40560, "pitch": 57, "duration": 240, "velocity": 100}, {"time": 40560, "pitch": 62, "duration": 240, "velocity": 100}, {"time": 40560, "pitch": 65, "duration": 240, "velocity": 100}, {"time": 40800, "pitch": 50, "duration": 240, "velocity": 81}, {"time": 40800, "pitch": 57, "duration": 240, "velocity": 81}, {"time": 40800, "pitch": 62, "duration": 240, "velocity": 81}, {"time": 40800, "pitch": 65, "duration": 240, "velocity": 81}, {"time": 41040, "pitch": 48, "duration": 480, "velocity": 100}, {"time": 41040, "pitch": 55, "duration": 480, "velocity": 100}, {"time": 41040, "pitch": 60, "duration": 480, "velocity": 100}, {"time": 41040, "pitch": 64, "duration": 480, "velocity": 100}, {"time": 41040, "pitch": 67, "duration": 480, "velocity": 100}, {"time": 41760, "pitch": 48, "duration": 480, "velocity": 100}, {"time": 41760, "pitch": 55, "duration": 480, "velocity": 100}, {"time": 41760, "pitch": 58, "duration": 480, "velocity": 100}, {"time": 41760, "pitch": 64, "duration": 480, "velocity": 100}, {"time": 41760, "pitch": 67, "duration": 480, "velocity": 100}, {"time": 42240, "pitch": 48, "duration": 240, "velocity": 85}, {"time": 42240, "pitch": 55, "duration": 240, "velocity": 85}, {"time": 42240, "pitch": 58, "duration": 240, "velocity": 85}, {"time": 42240, "pitch": 64, "duration": 240, "velocity": 85}, {"time": 42240, "pitch": 67, "duration": 240, "velocity": 85}, {"time": 42480, "pitch": 48, "duration": 240, "velocity": 100}, {"time": 42480, "pitch": 55, "duration": 240, "velocity": 100}, {"time": 42480, "pitch": 58, "duration": 240, "velocity": 100}, {"time": 42480, "pitch": 64, "duration": 240, "velocity": 100}, {"time": 42480, "pitch": 67, "duration": 240, "velocity": 100}, {"time": 42720, "pitch": 48, "duration": 120, "velocity": 76}, {"time": 42720, "pitch": 55, "duration": 120, "velocity": 76}, {"time": 42720, "pitch": 58, "duration": 120, "velocity": 76}, {"time": 42720, "pitch": 64, "duration": 120, "velocity": 76}, {"time": 42720, "pitch": 67, "duration": 120, "velocity": 76}, {"time": 42960, "pitch": 41, "duration": 480, "velocity": 100}, {"time": 42960, "pitch": 48, "duration": 480, "velocity": 100}, {"time": 42960, "pitch": 53, "duration": 480, "velocity": 100}, {"time": 42960, "pitch": 57, "duration": 480, "velocity": 100}, {"time": 42960, "pitch": 60, "duration": 480, "velocity": 100}, {"time": 42960, "pitch": 65, "duration": 480, "velocity": 100}, {"time": 43680, "pitch": 41, "duration": 480, "velocity": 100}, {"time": 43680, "pitch": 48, "duration": 480, "velocity": 100}, {"time": 43680, "pitch": 53, "duration": 480, "velocity": 100}, {"time": 43680, "pitch": 57, "duration": 480, "velocity": 100}, {"time": 43680, "pitch": 60, "duration": 480, "velocity": 100}, {"time": 43680, "pitch": 65, "duration": 480, "velocity": 100}, {"time": 44160, "pitch": 41, "duration": 240, "velocity": 85}, {"time": 44160, "pitch": 48, "duration": 240, "velocity": 85}, {"time": 44160, "pitch": 53, "duration": 240, "velocity": 85}, {"time": 44160, "pitch": 57, "duration": 240, "velocity": 85}, {"time": 44160, "pitch": 60, "duration": 240, "velocity": 85}, {"time": 44160, "pitch": 65, "duration": 240, "velocity": 85}, {"time": 44400, "pitch": 41, "duration": 240, "velocity": 100}, {"time": 44400, "pitch": 48, "duration": 240, "velocity": 100}, {"time": 44400, "pitch": 53, "duration": 240, "velocity": 100}, {"time": 44400, "pitch": 57, "duration": 240, "velocity": 100}, {"time": 44400, "pitch": 60, "duration": 240, "velocity": 100}, {"time": 44400, "pitch": 65, "duration": 240, "velocity": 100}, {"time": 44640, "pitch": 41, "duration": 240, "velocity": 81}, {"time": 44640, "pitch": 48, "duration": 240, "velocity": 81}, {"time": 44640, "pitch": 53, "duration": 240, "velocity": 81}, {"time": 44640, "pitch": 57, "duration": 240, "velocity": 81}, {"time": 44640, "pitch": 60, "duration": 240, "velocity": 81}, {"time": 44640, "pitch": 65, "duration": 240, "velocity": 81}, {"time": 44880, "pitch": 40, "duration": 480, "velocity": 100}, {"time": 44880, "pitch": 47, "duration": 480, "velocity": 100}, {"time": 44880, "pitch": 52, "duration": 480, "velocity": 100}, {"time": 44880, "pitch": 55, "duration": 480, "velocity": 100}, {"time": 44880, "pitch": 59, "duration": 480, "velocity": 100}, {"time": 44880, "pitch": 64, "duration": 480, "velocity": 100}, {"time": 45600, "pitch": 40, "duration": 480, "velocity": 100}, {"time": 45600, "pitch": 47, "duration": 480, "velocity": 100}, {"time": 45600, "pitch": 52, "duration": 480, "velocity": 100}, {"time": 45600, "pitch": 55, "duration": 480, "velocity": 100}, {"time": 45600, "pitch": 59, "duration": 480, "velocity": 100}, {"time": 45600, "pitch": 64, "duration": 480, "velocity": 100}, {"time": 46080, "pitch": 40, "duration": 240, "velocity": 85}, {"time": 46080, "pitch": 47, "duration": 240, "velocity": 85}, {"time": 46080, "pitch": 52, "duration": 240, "velocity": 85}, {"time": 46080, "pitch": 55, "duration": 240, "velocity": 85}, {"time": 46080, "pitch": 59, "duration": 240, "velocity": 85}, {"time": 46080, "pitch": 64, "duration": 240, "velocity": 85}, {"time": 46320, "pitch": 40, "duration": 240, "velocity": 100}, {"time": 46320, "pitch": 47, "duration": 240, "velocity": 100}, {"time": 46320, "pitch": 52, "duration": 240, "velocity": 100}, {"time": 46320, "pitch": 55, "duration": 240, "velocity": 100}, {"time": 46320, "pitch": 59, "duration": 240, "velocity": 100}, {"time": 46320, "pitch": 64, "duration": 240, "velocity": 100}, {"time": 46560, "pitch": 40, "duration": 240, "velocity": 81}, {"time": 46560, "pitch": 47, "duration": 240, "velocity": 81}, {"time": 46560, "pitch": 52, "duration": 240, "velocity": 81}, {"time": 46560, "pitch": 55, "duration": 240, "velocity": 81}, {"time": 46560, "pitch": 59, "duration": 240, "velocity": 81}, {"time": 46560, "pitch": 64, "duration": 240, "velocity": 81}, {"time": 46800, "pitch": 50, "duration": 480, "velocity": 100}, {"time": 46800, "pitch": 57, "duration": 480, "velocity": 100}, {"time": 46800, "pitch": 62, "duration": 480, "velocity": 100}, {"time": 46800, "pitch": 65, "duration": 480, "velocity": 100}, {"time": 47520, "pitch": 40, "duration": 480, "velocity": 100}, {"time": 47520, "pitch": 47, "duration": 480, "velocity": 100}, {"time": 47520, "pitch": 52, "duration": 480, "velocity": 100}, {"time": 47520, "pitch": 56, "duration": 480, "velocity": 100}, {"time": 47520, "pitch": 59, "duration": 480, "velocity": 100}, {"time": 47520, "pitch": 64, "duration": 480, "velocity": 100}, {"time": 48000, "pitch": 40, "duration": 240, "velocity": 85}, {"time": 48000, "pitch": 47, "duration": 240, "velocity": 85}, {"time": 48000, "pitch": 52, "duration": 240, "velocity": 85}, {"time": 48000, "pitch": 56, "duration": 240, "velocity": 85}, {"time": 48000, "pitch": 59, "duration": 240, "velocity": 85}, {"time": 48000, "pitch": 64, "duration": 240, "velocity": 85}, {"time": 48240, "pitch": 40, "duration": 240, "velocity": 100}, {"time": 48240, "pitch": 47, "duration": 240, "velocity": 100}, {"time": 48240, "pitch": 52, "duration": 240, "velocity": 100}, {"time": 48240, "pitch": 56, "duration": 240, "velocity": 100}, {"time": 48240, "pitch": 59, "duration": 240, "velocity": 100}, {"time": 48240, "pitch": 64, "duration": 240, "velocity": 100}, {"time": 48480, "pitch": 40, "duration": 240, "velocity": 81}, {"time": 48480, "pitch": 47, "duration": 240, "velocity": 81}, {"time": 48480, "pitch": 52, "duration": 240, "velocity": 81}, {"time": 48480, "pitch": 56, "duration": 240, "velocity": 81}, {"time": 48480, "pitch": 59, "duration": 240, "velocity": 81}, {"time": 48480, "pitch": 64, "duration": 240, "velocity": 81}, {"time": 48720, "pitch": 45, "duration": 480, "velocity": 100}, {"time": 48720, "pitch": 52, "duration": 480, "velocity": 100}, {"time": 48720, "pitch": 57, "duration": 480, "velocity": 100}, {"time": 48720, "pitch": 60, "duration": 480, "velocity": 100}, {"time": 48720, "pitch": 64, "duration": 480, "velocity": 100}, {"time": 49440, "pitch": 48, "duration": 480, "velocity": 100}, {"time": 49440, "pitch": 52, "duration": 480, "velocity": 100}, {"time": 49440, "pitch": 58, "duration": 480, "velocity": 100}, {"time": 49440, "pitch": 60, "duration": 480, "velocity": 100}, {"time": 49440, "pitch": 64, "duration": 480, "velocity": 100}, {"time": 49920, "pitch": 48, "duration": 240, "velocity": 85}, {"time": 49920, "pitch": 52, "duration": 240, "velocity": 85}, {"time": 49920, "pitch": 58, "duration": 240, "velocity": 85}, {"time": 49920, "pitch": 60, "duration": 240, "velocity": 85}, {"time": 49920, "pitch": 64, "duration": 240, "velocity": 85}, {"time": 50160, "pitch": 48, "duration": 240, "velocity": 100}, {"time": 50160, "pitch": 52, "duration": 240, "velocity": 100}, {"time": 50160, "pitch": 58, "duration": 240, "velocity": 100}, {"time": 50160, "pitch": 60, "duration": 240, "velocity": 100}, {"time": 50160, "pitch": 64, "duration": 240, "velocity": 100}, {"time": 50400, "pitch": 48, "duration": 240, "velocity": 81}, {"time": 50400, "pitch": 52, "duration": 240, "velocity": 81}, {"time": 50400, "pitch": 58, "duration": 240, "velocity": 81}, {"time": 50400, "pitch": 60, "duration": 240, "velocity": 81}, {"time": 50400, "pitch": 64, "duration": 240, "velocity": 81}, {"time": 50640, "pitch": 41, "duration": 480, "velocity": 100}, {"time": 50640, "pitch": 48, "duration": 480, "velocity": 100}, {"time": 50640, "pitch": 53, "duration": 480, "velocity": 100}, {"time": 50640, "pitch": 57, "duration": 480, "velocity": 100}, {"time": 50640, "pitch": 60, "duration": 480, "velocity": 100}, {"time": 50640, "pitch": 65, "duration": 480, "velocity": 100}, {"time": 51360, "pitch": 41, "duration": 480, "velocity": 100}, {"time": 51360, "pitch": 48, "duration": 480, "velocity": 100}, {"time": 51360, "pitch": 53, "duration": 480, "velocity": 100}, {"time": 51360, "pitch": 57, "duration": 480, "velocity": 100}, {"time": 51360, "pitch": 60, "duration": 480, "velocity": 100}, {"time": 51360, "pitch": 65, "duration": 480, "velocity": 100}, {"time": 51840, "pitch": 41, "duration": 240, "velocity": 85}, {"time": 51840, "pitch": 48, "duration": 240, "velocity": 85}, {"time": 51840, "pitch": 53, "duration": 240, "velocity": 85}, {"time": 51840, "pitch": 57, "duration": 240, "velocity": 85}, {"time": 51840, "pitch": 60, "duration": 240, "velocity": 85}, {"time": 51840, "pitch": 65, "duration": 240, "velocity": 85}, {"time": 52080, "pitch": 41, "duration": 240, "velocity": 100}, {"time": 52080, "pitch": 48, "duration": 240, "velocity": 100}, {"time": 52080, "pitch": 53, "duration": 240, "velocity": 100}, {"time": 52080, "pitch": 57, "duration": 240, "velocity": 100}, {"time": 52080, "pitch": 60, "duration": 240, "velocity": 100}, {"time": 52080, "pitch": 65, "duration": 240, "velocity": 100}, {"time": 52320, "pitch": 41, "duration": 240, "velocity": 81}, {"time": 52320, "pitch": 48, "duration": 240, "velocity": 81}, {"time": 52320, "pitch": 53, "duration": 240, "velocity": 81}, {"time": 52320, "pitch": 57, "duration": 240, "velocity": 81}, {"time": 52320, "pitch": 60, "duration": 240, "velocity": 81}, {"time": 52320, "pitch": 65, "duration": 240, "velocity": 81}, {"time": 52560, "pitch": 40, "duration": 480, "velocity": 100}, {"time": 52560, "pitch": 47, "duration": 480, "velocity": 100}, {"time": 52560, "pitch": 52, "duration": 480, "velocity": 100}, {"time": 52560, "pitch": 55, "duration": 480, "velocity": 100}, {"time": 52560, "pitch": 59, "duration": 480, "velocity": 100}, {"time": 52560, "pitch": 64, "duration": 480, "velocity": 100}, {"time": 53280, "pitch": 45, "duration": 480, "velocity": 100}, {"time": 53280, "pitch": 52, "duration": 480, "velocity": 100}, {"time": 53280, "pitch": 57, "duration": 480, "velocity": 100}, {"time": 53280, "pitch": 60, "duration": 480, "velocity": 100}, {"time": 53280, "pitch": 64, "duration": 480, "velocity": 100}, {"time": 53760, "pitch": 45, "duration": 240, "velocity": 85}, {"time": 53760, "pitch": 52, "duration": 240, "velocity": 85}, {"time": 53760, "pitch": 57, "duration": 240, "velocity": 85}, {"time": 53760, "pitch": 60, "duration": 240, "velocity": 85}, {"time": 53760, "pitch": 64, "duration": 240, "velocity": 85}, {"time": 54000, "pitch": 45, "duration": 240, "velocity": 100}, {"time": 54000, "pitch": 52, "duration": 240, "velocity": 100}, {"time": 54000, "pitch": 57, "duration": 240, "velocity": 100}, {"time": 54000, "pitch": 60, "duration": 240, "velocity": 100}, {"time": 54000, "pitch": 64, "duration": 240, "velocity": 100}, {"time": 54240, "pitch": 45, "duration": 240, "velocity": 81}, {"time": 54240, "pitch": 52, "duration": 240, "velocity": 81}, {"time": 54240, "pitch": 57, "duration": 240, "velocity": 81}, {"time": 54240, "pitch": 60, "duration": 240, "velocity": 81}, {"time": 54240, "pitch": 64, "duration": 240, "velocity": 81}, {"time": 54480, "pitch": 50, "duration": 480, "velocity": 100}, {"time": 54480, "pitch": 57, "duration": 480, "velocity": 100}, {"time": 54480, "pitch": 62, "duration": 480, "velocity": 100}, {"time": 54480, "pitch": 65, "duration": 480, "velocity": 100}, {"time": 55200, "pitch": 50, "duration": 480, "velocity": 100}, {"time": 55200, "pitch": 57, "duration": 480, "velocity": 100}, {"time": 55200, "pitch": 62, "duration": 480, "velocity": 100}, {"time": 55200, "pitch": 65, "duration": 480, "velocity": 100}, {"time": 55680, "pitch": 50, "duration": 240, "velocity": 85}, {"time": 55680, "pitch": 57, "duration": 240, "velocity": 85}, {"time": 55680, "pitch": 62, "duration": 240, "velocity": 85}, {"time": 55680, "pitch": 65, "duration": 240, "velocity": 85}, {"time": 55920, "pitch": 50, "duration": 240, "velocity": 100}, {"time": 55920, "pitch": 57, "duration": 240, "velocity": 100}, {"time": 55920, "pitch": 62, "duration": 240, "velocity": 100}, {"time": 55920, "pitch": 65, "duration": 240, "velocity": 100}, {"time": 56160, "pitch": 50, "duration": 240, "velocity": 81}, {"time": 56160, "pitch": 57, "duration": 240, "velocity": 81}, {"time": 56160, "pitch": 62, "duration": 240, "velocity": 81}, {"time": 56160, "pitch": 65, "duration": 240, "velocity": 81}, {"time": 56400, "pitch": 43, "duration": 480, "velocity": 100}, {"time": 56400, "pitch": 50, "duration": 480, "velocity": 100}, {"time": 56400, "pitch": 57, "duration": 480, "velocity": 100}, {"time": 56400, "pitch": 60, "duration": 480, "velocity": 100}, {"time": 56400, "pitch": 65, "duration": 480, "velocity": 100}, {"time": 56880, "pitch": 43, "duration": 480, "velocity": 100}, {"time": 56880, "pitch": 50, "duration": 480, "velocity": 100}, {"time": 56880, "pitch": 57, "duration": 480, "velocity": 100}, {"time": 56880, "pitch": 60, "duration": 480, "velocity": 100}, {"time": 56880, "pitch": 65, "duration": 480, "velocity": 100}, {"time": 57360, "pitch": 43, "duration": 480, "velocity": 99}, {"time": 57360, "pitch": 50, "duration": 480, "velocity": 99}, {"time": 57360, "pitch": 57, "duration": 480, "velocity": 99}, {"time": 57360, "pitch": 60, "duration": 480, "velocity": 99}, {"time": 57360, "pitch": 65, "duration": 480, "velocity": 99}, {"time": 57840, "pitch": 43, "duration": 480, "velocity": 100}, {"time": 57840, "pitch": 50, "duration": 480, "velocity": 100}, {"time": 57840, "pitch": 57, "duration": 480, "velocity": 100}, {"time": 57840, "pitch": 60, "duration": 480, "velocity": 100}, {"time": 57840, "pitch": 65, "duration": 480, "velocity": 100}, {"time": 58320, "pitch": 48, "duration": 480, "velocity": 100}, {"time": 58320, "pitch": 52, "duration": 480, "velocity": 100}, {"time": 58320, "pitch": 55, "duration": 480, "velocity": 100}, {"time": 58320, "pitch": 60, "duration": 480, "velocity": 100}, {"time": 58320, "pitch": 64, "duration": 480, "velocity": 100}, {"time": 58800, "pitch": 48, "duration": 30, "velocity": 100}, {"time": 58800, "pitch": 52, "duration": 30, "velocity": 100}, {"time": 58800, "pitch": 55, "duration": 30, "velocity": 100}, {"time": 59040, "pitch": 47, "duration": 480, "velocity": 100}, {"time": 59040, "pitch": 50, "duration": 480, "velocity": 100}, {"time": 59040, "pitch": 55, "duration": 480, "velocity": 100}, {"time": 59040, "pitch": 62, "duration": 480, "velocity": 100}, {"time": 59040, "pitch": 67, "duration": 480, "velocity": 100}, {"time": 59520, "pitch": 47, "duration": 240, "velocity": 85}, {"time": 59520, "pitch": 50, "duration": 240, "velocity": 85}, {"time": 59520, "pitch": 55, "duration": 240, "velocity": 85}, {"time": 59520, "pitch": 62, "duration": 240, "velocity": 85}, {"time": 59520, "pitch": 67, "duration": 240, "velocity": 85}, {"time": 59760, "pitch": 47, "duration": 240, "velocity": 100}, {"time": 59760, "pitch": 50, "duration": 240, "velocity": 100}, {"time": 59760, "pitch": 55, "duration": 240, "velocity": 100}, {"time": 59760, "pitch": 62, "duration": 240, "velocity": 100}, {"time": 59760, "pitch": 67, "duration": 240, "velocity": 100}, {"time": 60000, "pitch": 47, "duration": 240, "velocity": 83}, {"time": 60000, "pitch": 50, "duration": 240, "velocity": 83}, {"time": 60000, "pitch": 55, "duration": 240, "velocity": 83}, {"time": 60000, "pitch": 62, "duration": 240, "velocity": 83}, {"time": 60000, "pitch": 67, "duration": 240, "velocity": 83}, {"time": 60240, "pitch": 45, "duration": 480, "velocity": 100}, {"time": 60240, "pitch": 52, "duration": 480, "velocity": 100}, {"time": 60240, "pitch": 57, "duration": 480, "velocity": 100}, {"time": 60240, "pitch": 60, "duration": 480, "velocity": 100}, {"time": 60240, "pitch": 64, "duration": 480, "velocity": 100}, {"time": 60720, "pitch": 45, "duration": 30, "velocity": 100}, {"time": 60720, "pitch": 52, "duration": 30, "velocity": 100}, {"time": 60720, "pitch": 57, "duration": 30, "velocity": 100}, {"time": 60960, "pitch": 43, "duration": 480, "velocity": 100}, {"time": 60960, "pitch": 47, "duration": 480, "velocity": 100}, {"time": 60960, "pitch": 50, "duration": 480, "velocity": 100}, {"time": 60960, "pitch": 55, "duration": 480, "velocity": 100}, {"time": 60960, "pitch": 62, "duration": 480, "velocity": 100}, {"time": 60960, "pitch": 67, "duration": 480, "velocity": 100}, {"time": 61440, "pitch": 43, "duration": 240, "velocity": 85}, {"time": 61440, "pitch": 47, "duration": 240, "velocity": 85}, {"time": 61440, "pitch": 50, "duration": 240, "velocity": 85}, {"time": 61440, "pitch": 55, "duration": 240, "velocity": 85}, {"time": 61440, "pitch": 62, "duration": 240, "velocity": 85}, {"time": 61440, "pitch": 67, "duration": 240, "velocity": 85}, {"time": 61680, "pitch": 43, "duration": 240, "velocity": 100}, {"time": 61680, "pitch": 47, "duration": 240, "velocity": 100}, {"time": 61680, "pitch": 50, "duration": 240, "velocity": 100}, {"time": 61680, "pitch": 55, "duration": 240, "velocity": 85}, {"time": 61680, "pitch": 62, "duration": 240, "velocity": 100}, {"time": 61680, "pitch": 67, "duration": 240, "velocity": 100}, {"time": 61920, "pitch": 43, "duration": 240, "velocity": 83}, {"time": 61920, "pitch": 47, "duration": 240, "velocity": 83}, {"time": 61920, "pitch": 50, "duration": 240, "velocity": 83}, {"time": 61920, "pitch": 55, "duration": 240, "velocity": 85}, {"time": 61920, "pitch": 62, "duration": 240, "velocity": 83}, {"time": 61920, "pitch": 67, "duration": 240, "velocity": 83}, {"time": 62160, "pitch": 41, "duration": 480, "velocity": 100}, {"time": 62160, "pitch": 48, "duration": 480, "velocity": 100}, {"time": 62160, "pitch": 53, "duration": 480, "velocity": 100}, {"time": 62160, "pitch": 57, "duration": 480, "velocity": 100}, {"time": 62160, "pitch": 60, "duration": 480, "velocity": 100}, {"time": 62160, "pitch": 65, "duration": 480, "velocity": 100}, {"time": 62640, "pitch": 41, "duration": 30, "velocity": 100}, {"time": 62640, "pitch": 48, "duration": 30, "velocity": 100}, {"time": 62640, "pitch": 53, "duration": 30, "velocity": 100}, {"time": 62880, "pitch": 40, "duration": 480, "velocity": 100}, {"time": 62880, "pitch": 47, "duration": 480, "velocity": 100}, {"time": 62880, "pitch": 52, "duration": 480, "velocity": 100}, {"time": 62880, "pitch": 55, "duration": 480, "velocity": 100}, {"time": 62880, "pitch": 59, "duration": 480, "velocity": 100}, {"time": 62880, "pitch": 64, "duration": 480, "velocity": 100}, {"time": 63360, "pitch": 40, "duration": 240, "velocity": 85}, {"time": 63360, "pitch": 47, "duration": 240, "velocity": 85}, {"time": 63360, "pitch": 52, "duration": 240, "velocity": 85}, {"time": 63360, "pitch": 55, "duration": 240, "velocity": 85}, {"time": 63360, "pitch": 59, "duration": 240, "velocity": 85}, {"time": 63360, "pitch": 64, "duration": 240, "velocity": 85}, {"time": 63600, "pitch": 40, "duration": 240, "velocity": 85}, {"time": 63600, "pitch": 47, "duration": 240, "velocity": 100}, {"time": 63600, "pitch": 52, "duration": 240, "velocity": 100}, {"time": 63600, "pitch": 55, "duration": 240, "velocity": 100}, {"time": 63600, "pitch": 59, "duration": 240, "velocity": 100}, {"time": 63600, "pitch": 64, "duration": 240, "velocity": 100}, {"time": 63840, "pitch": 40, "duration": 240, "velocity": 85}, {"time": 63840, "pitch": 47, "duration": 240, "velocity": 83}, {"time": 63840, "pitch": 52, "duration": 240, "velocity": 83}, {"time": 63840, "pitch": 55, "duration": 240, "velocity": 83}, {"time": 63840, "pitch": 59, "duration": 240, "velocity": 83}, {"time": 63840, "pitch": 64, "duration": 240, "velocity": 83}, {"time": 64080, "pitch": 50, "duration": 480, "velocity": 100}, {"time": 64080, "pitch": 57, "duration": 480, "velocity": 100}, {"time": 64080, "pitch": 60, "duration": 480, "velocity": 100}, {"time": 64080, "pitch": 65, "duration": 480, "velocity": 100}, {"time": 64560, "pitch": 50, "duration": 30, "velocity": 100}, {"time": 64560, "pitch": 57, "duration": 30, "velocity": 100}, {"time": 64560, "pitch": 60, "duration": 30, "velocity": 100}, {"time": 64800, "pitch": 43, "duration": 480, "velocity": 100}, {"time": 64800, "pitch": 47, "duration": 480, "velocity": 100}, {"time": 64800, "pitch": 50, "duration": 480, "velocity": 100}, {"time": 64800, "pitch": 55, "duration": 480, "velocity": 100}, {"time": 64800, "pitch": 62, "duration": 480, "velocity": 100}, {"time": 64800, "pitch": 67, "duration": 480, "velocity": 100}, {"time": 65280, "pitch": 43, "duration": 240, "velocity": 85}, {"time": 65280, "pitch": 47, "duration": 240, "velocity": 85}, {"time": 65280, "pitch": 50, "duration": 240, "velocity": 85}, {"time": 65280, "pitch": 55, "duration": 240, "velocity": 85}, {"time": 65280, "pitch": 62, "duration": 240, "velocity": 85}, {"time": 65280, "pitch": 67, "duration": 240, "velocity": 85}, {"time": 65520, "pitch": 41, "duration": 240, "velocity": 100}, {"time": 65520, "pitch": 47, "duration": 240, "velocity": 100}, {"time": 65520, "pitch": 50, "duration": 240, "velocity": 100}, {"time": 65520, "pitch": 55, "duration": 240, "velocity": 85}, {"time": 65520, "pitch": 62, "duration": 240, "velocity": 100}, {"time": 65520, "pitch": 67, "duration": 240, "velocity": 100}, {"time": 65760, "pitch": 41, "duration": 240, "velocity": 83}, {"time": 65760, "pitch": 47, "duration": 240, "velocity": 83}, {"time": 65760, "pitch": 50, "duration": 240, "velocity": 83}, {"time": 65760, "pitch": 55, "duration": 240, "velocity": 85}, {"time": 65760, "pitch": 62, "duration": 240, "velocity": 83}, {"time": 65760, "pitch": 67, "duration": 240, "velocity": 83}, {"time": 66000, "pitch": 40, "duration": 480, "velocity": 100}, {"time": 66000, "pitch": 47, "duration": 480, "velocity": 100}, {"time": 66000, "pitch": 52, "duration": 480, "velocity": 100}, {"time": 66000, "pitch": 55, "duration": 480, "velocity": 100}, {"time": 66000, "pitch": 59, "duration": 480, "velocity": 100}, {"time": 66000, "pitch": 64, "duration": 480, "velocity": 100}, {"time": 66480, "pitch": 40, "duration": 30, "velocity": 100}, {"time": 66480, "pitch": 47, "duration": 30, "velocity": 100}, {"time": 66480, "pitch": 52, "duration": 30, "velocity": 100}, {"time": 66720, "pitch": 40, "duration": 480, "velocity": 100}, {"time": 66720, "pitch": 47, "duration": 480, "velocity": 100}, {"time": 66720, "pitch": 52, "duration": 480, "velocity": 100}, {"time": 66720, "pitch": 55, "duration": 480, "velocity": 100}, {"time": 66720, "pitch": 59, "duration": 480, "velocity": 83}, {"time": 66720, "pitch": 64, "duration": 480, "velocity": 100}, {"time": 67200, "pitch": 40, "duration": 240, "velocity": 85}, {"time": 67200, "pitch": 47, "duration": 240, "velocity": 85}, {"time": 67200, "pitch": 52, "duration": 240, "velocity": 85}, {"time": 67200, "pitch": 55, "duration": 240, "velocity": 85}, {"time": 67200, "pitch": 59, "duration": 240, "velocity": 85}, {"time": 67200, "pitch": 64, "duration": 240, "velocity": 85}, {"time": 67440, "pitch": 40, "duration": 240, "velocity": 100}, {"time": 67440, "pitch": 47, "duration": 240, "velocity": 100}, {"time": 67440, "pitch": 52, "duration": 240, "velocity": 100}, {"time": 67440, "pitch": 55, "duration": 240, "velocity": 100}, {"time": 67440, "pitch": 59, "duration": 240, "velocity": 100}, {"time": 67440, "pitch": 64, "duration": 240, "velocity": 100}, {"time": 67680, "pitch": 40, "duration": 240, "velocity": 83}, {"time": 67680, "pitch": 47, "duration": 240, "velocity": 83}, {"time": 67680, "pitch": 52, "duration": 240, "velocity": 83}, {"time": 67680, "pitch": 55, "duration": 240, "velocity": 83}, {"time": 67680, "pitch": 59, "duration": 240, "velocity": 83}, {"time": 67680, "pitch": 64, "duration": 240, "velocity": 83}, {"time": 67920, "pitch": 45, "duration": 480, "velocity": 100}, {"time": 67920, "pitch": 52, "duration": 480, "velocity": 100}, {"time": 67920, "pitch": 57, "duration": 480, "velocity": 100}, {"time": 67920, "pitch": 60, "duration": 480, "velocity": 100}, {"time": 67920, "pitch": 64, "duration": 480, "velocity": 100}, {"time": 68400, "pitch": 45, "duration": 30, "velocity": 100}, {"time": 68400, "pitch": 52, "duration": 30, "velocity": 100}, {"time": 68400, "pitch": 57, "duration": 30, "velocity": 100}, {"time": 68640, "pitch": 43, "duration": 480, "velocity": 100}, {"time": 68640, "pitch": 47, "duration": 480, "velocity": 100}, {"time": 68640, "pitch": 50, "duration": 480, "velocity": 100}, {"time": 68640, "pitch": 55, "duration": 480, "velocity": 100}, {"time": 68640, "pitch": 62, "duration": 480, "velocity": 100}, {"time": 68640, "pitch": 67, "duration": 480, "velocity": 100}, {"time": 69120, "pitch": 43, "duration": 240, "velocity": 85}, {"time": 69120, "pitch": 47, "duration": 240, "velocity": 85}, {"time": 69120, "pitch": 50, "duration": 240, "velocity": 85}, {"time": 69120, "pitch": 55, "duration": 240, "velocity": 85}, {"time": 69120, "pitch": 62, "duration": 240, "velocity": 85}, {"time": 69120, "pitch": 67, "duration": 240, "velocity": 85}, {"time": 69360, "pitch": 43, "duration": 240, "velocity": 100}, {"time": 69360, "pitch": 47, "duration": 240, "velocity": 100}, {"time": 69360, "pitch": 50, "duration": 240, "velocity": 100}, {"time": 69360, "pitch": 55, "duration": 240, "velocity": 85}, {"time": 69360, "pitch": 62, "duration": 240, "velocity": 100}, {"time": 69360, "pitch": 67, "duration": 240, "velocity": 100}, {"time": 69600, "pitch": 43, "duration": 240, "velocity": 83}, {"time": 69600, "pitch": 47, "duration": 240, "velocity": 83}, {"time": 69600, "pitch": 50, "duration": 240, "velocity": 83}, {"time": 69600, "pitch": 55, "duration": 240, "velocity": 85}, {"time": 69600, "pitch": 62, "duration": 240, "velocity": 83}, {"time": 69600, "pitch": 67, "duration": 240, "velocity": 83}, {"time": 69840, "pitch": 50, "duration": 480, "velocity": 100}, {"time": 69840, "pitch": 57, "duration": 480, "velocity": 100}, {"time": 69840, "pitch": 60, "duration": 480, "velocity": 100}, {"time": 69840, "pitch": 65, "duration": 480, "velocity": 100}, {"time": 70320, "pitch": 50, "duration": 30, "velocity": 100}, {"time": 70320, "pitch": 57, "duration": 30, "velocity": 100}, {"time": 70320, "pitch": 60, "duration": 30, "velocity": 100}, {"time": 70560, "pitch": 50, "duration": 480, "velocity": 100}, {"time": 70560, "pitch": 57, "duration": 480, "velocity": 100}, {"time": 70560, "pitch": 60, "duration": 480, "velocity": 100}, {"time": 70560, "pitch": 65, "duration": 480, "velocity": 100}, {"time": 71040, "pitch": 50, "duration": 240, "velocity": 85}, {"time": 71040, "pitch": 57, "duration": 240, "velocity": 85}, {"time": 71040, "pitch": 60, "duration": 240, "velocity": 85}, {"time": 71040, "pitch": 65, "duration": 240, "velocity": 85}, {"time": 71280, "pitch": 50, "duration": 240, "velocity": 100}, {"time": 71280, "pitch": 57, "duration": 240, "velocity": 100}, {"time": 71280, "pitch": 60, "duration": 240, "velocity": 100}, {"time": 71280, "pitch": 65, "duration": 240, "velocity": 100}, {"time": 71520, "pitch": 50, "duration": 240, "velocity": 83}, {"time": 71520, "pitch": 57, "duration": 240, "velocity": 83}, {"time": 71520, "pitch": 60, "duration": 240, "velocity": 83}, {"time": 71520, "pitch": 65, "duration": 240, "velocity": 83}, {"time": 71760, "pitch": 43, "duration": 480, "velocity": 100}, {"time": 71760, "pitch": 50, "duration": 480, "velocity": 100}, {"time": 71760, "pitch": 57, "duration": 480, "velocity": 100}, {"time": 71760, "pitch": 60, "duration": 480, "velocity": 100}, {"time": 71760, "pitch": 65, "duration": 480, "velocity": 100}, {"time": 72240, "pitch": 43, "duration": 480, "velocity": 100}, {"time": 72240, "pitch": 50, "duration": 480, "velocity": 100}, {"time": 72240, "pitch": 57, "duration": 480, "velocity": 100}, {"time": 72240, "pitch": 60, "duration": 480, "velocity": 100}, {"time": 72240, "pitch": 65, "duration": 480, "velocity": 100}, {"time": 72720, "pitch": 43, "duration": 480, "velocity": 99}, {"time": 72720, "pitch": 50, "duration": 480, "velocity": 99}, {"time": 72720, "pitch": 57, "duration": 480, "velocity": 99}, {"time": 72720, "pitch": 60, "duration": 480, "velocity": 99}, {"time": 72720, "pitch": 65, "duration": 480, "velocity": 99}, {"time": 73200, "pitch": 43, "duration": 480, "velocity": 100}, {"time": 73200, "pitch": 50, "duration": 480, "velocity": 100}, {"time": 73200, "pitch": 57, "duration": 480, "velocity": 100}, {"time": 73200, "pitch": 60, "duration": 480, "velocity": 100}, {"time": 73200, "pitch": 65, "duration": 480, "velocity": 100}, {"time": 73680, "pitch": 48, "duration": 480, "velocity": 100}, {"time": 73680, "pitch": 52, "duration": 480, "velocity": 100}, {"time": 73680, "pitch": 55, "duration": 480, "velocity": 100}, {"time": 73680, "pitch": 60, "duration": 480, "velocity": 100}, {"time": 73680, "pitch": 64, "duration": 480, "velocity": 100}, {"time": 74160, "pitch": 48, "duration": 30, "velocity": 100}, {"time": 74160, "pitch": 52, "duration": 30, "velocity": 100}, {"time": 74160, "pitch": 55, "duration": 30, "velocity": 100}, {"time": 74400, "pitch": 47, "duration": 480, "velocity": 100}, {"time": 74400, "pitch": 50, "duration": 480, "velocity": 100}, {"time": 74400, "pitch": 55, "duration": 480, "velocity": 100}, {"time": 74400, "pitch": 62, "duration": 480, "velocity": 100}, {"time": 74400, "pitch": 67, "duration": 480, "velocity": 100}, {"time": 74880, "pitch": 47, "duration": 240, "velocity": 85}, {"time": 74880, "pitch": 50, "duration": 240, "velocity": 85}, {"time": 74880, "pitch": 55, "duration": 240, "velocity": 85}, {"time": 74880, "pitch": 62, "duration": 240, "velocity": 85}, {"time": 74880, "pitch": 67, "duration": 240, "velocity": 85}, {"time": 75120, "pitch": 47, "duration": 240, "velocity": 100}, {"time": 75120, "pitch": 50, "duration": 240, "velocity": 100}, {"time": 75120, "pitch": 55, "duration": 240, "velocity": 100}, {"time": 75120, "pitch": 62, "duration": 240, "velocity": 100}, {"time": 75120, "pitch": 67, "duration": 240, "velocity": 100}, {"time": 75360, "pitch": 47, "duration": 240, "velocity": 83}, {"time": 75360, "pitch": 50, "duration": 240, "velocity": 83}, {"time": 75360, "pitch": 55, "duration": 240, "velocity": 83}, {"time": 75360, "pitch": 62, "duration": 240, "velocity": 83}, {"time": 75360, "pitch": 67, "duration": 240, "velocity": 83}, {"time": 75600, "pitch": 45, "duration": 480, "velocity": 100}, {"time": 75600, "pitch": 52, "duration": 480, "velocity": 100}, {"time": 75600, "pitch": 57, "duration": 480, "velocity": 100}, {"time": 75600, "pitch": 60, "duration": 480, "velocity": 100}, {"time": 75600, "pitch": 64, "duration": 480, "velocity": 100}, {"time": 76080, "pitch": 45, "duration": 30, "velocity": 100}, {"time": 76080, "pitch": 52, "duration": 30, "velocity": 100}, {"time": 76080, "pitch": 57, "duration": 30, "velocity": 100}, {"time": 76320, "pitch": 43, "duration": 480, "velocity": 100}, {"time": 76320, "pitch": 47, "duration": 480, "velocity": 100}, {"time": 76320, "pitch": 50, "duration": 480, "velocity": 100}, {"time": 76320, "pitch": 55, "duration": 480, "velocity": 100}, {"time": 76320, "pitch": 62, "duration": 480, "velocity": 100}, {"time": 76320, "pitch": 67, "duration": 480, "velocity": 100}, {"time": 76800, "pitch": 43, "duration": 240, "velocity": 85}, {"time": 76800, "pitch": 47, "duration": 240, "velocity": 85}, {"time": 76800, "pitch": 50, "duration": 240, "velocity": 85}, {"time": 76800, "pitch": 55, "duration": 240, "velocity": 85}, {"time": 76800, "pitch": 62, "duration": 240, "velocity": 85}, {"time": 76800, "pitch": 67, "duration": 240, "velocity": 85}, {"time": 77040, "pitch": 43, "duration": 240, "velocity": 100}, {"time": 77040, "pitch": 47, "duration": 240, "velocity": 100}, {"time": 77040, "pitch": 50, "duration": 240, "velocity": 100}, {"time": 77040, "pitch": 55, "duration": 240, "velocity": 85}, {"time": 77040, "pitch": 62, "duration": 240, "velocity": 100}, {"time": 77040, "pitch": 67, "duration": 240, "velocity": 100}, {"time": 77280, "pitch": 43, "duration": 240, "velocity": 83}, {"time": 77280, "pitch": 47, "duration": 240, "velocity": 83}, {"time": 77280, "pitch": 50, "duration": 240, "velocity": 83}, {"time": 77280, "pitch": 55, "duration": 240, "velocity": 85}, {"time": 77280, "pitch": 62, "duration": 240, "velocity": 83}, {"time": 77280, "pitch": 67, "duration": 240, "velocity": 83}, {"time": 77520, "pitch": 41, "duration": 480, "velocity": 100}, {"time": 77520, "pitch": 48, "duration": 480, "velocity": 100}, {"time": 77520, "pitch": 53, "duration": 480, "velocity": 100}, {"time": 77520, "pitch": 57, "duration": 480, "velocity": 100}, {"time": 77520, "pitch": 60, "duration": 480, "velocity": 100}, {"time": 77520, "pitch": 65, "duration": 480, "velocity": 100}, {"time": 78000, "pitch": 41, "duration": 30, "velocity": 100}, {"time": 78000, "pitch": 48, "duration": 30, "velocity": 100}, {"time": 78000, "pitch": 53, "duration": 30, "velocity": 100}, {"time": 78240, "pitch": 40, "duration": 480, "velocity": 100}, {"time": 78240, "pitch": 47, "duration": 480, "velocity": 100}, {"time": 78240, "pitch": 52, "duration": 480, "velocity": 100}, {"time": 78240, "pitch": 55, "duration": 480, "velocity": 100}, {"time": 78240, "pitch": 59, "duration": 480, "velocity": 100}, {"time": 78240, "pitch": 64, "duration": 480, "velocity": 100}, {"time": 78720, "pitch": 40, "duration": 240, "velocity": 85}, {"time": 78720, "pitch": 47, "duration": 240, "velocity": 85}, {"time": 78720, "pitch": 52, "duration": 240, "velocity": 85}, {"time": 78720, "pitch": 55, "duration": 240, "velocity": 85}, {"time": 78720, "pitch": 59, "duration": 240, "velocity": 85}, {"time": 78720, "pitch": 64, "duration": 240, "velocity": 85}, {"time": 78960, "pitch": 40, "duration": 240, "velocity": 85}, {"time": 78960, "pitch": 47, "duration": 240, "velocity": 100}, {"time": 78960, "pitch": 52, "duration": 240, "velocity": 100}, {"time": 78960, "pitch": 55, "duration": 240, "velocity": 100}, {"time": 78960, "pitch": 59, "duration": 240, "velocity": 100}, {"time": 78960, "pitch": 64, "duration": 240, "velocity": 100}, {"time": 79200, "pitch": 40, "duration": 240, "velocity": 85}, {"time": 79200, "pitch": 47, "duration": 240, "velocity": 83}, {"time": 79200, "pitch": 52, "duration": 240, "velocity": 83}, {"time": 79200, "pitch": 55, "duration": 240, "velocity": 83}, {"time": 79200, "pitch": 59, "duration": 240, "velocity": 83}, {"time": 79200, "pitch": 64, "duration": 240, "velocity": 83}, {"time": 79440, "pitch": 50, "duration": 480, "velocity": 100}, {"time": 79440, "pitch": 57, "duration": 480, "velocity": 100}, {"time": 79440, "pitch": 60, "duration": 480, "velocity": 100}, {"time": 79440, "pitch": 65, "duration": 480, "velocity": 100}, {"time": 79920, "pitch": 50, "duration": 30, "velocity": 100}, {"time": 79920, "pitch": 57, "duration": 30, "velocity": 100}, {"time": 79920, "pitch": 60, "duration": 30, "velocity": 100}, {"time": 80160, "pitch": 43, "duration": 480, "velocity": 100}, {"time": 80160, "pitch": 47, "duration": 480, "velocity": 100}, {"time": 80160, "pitch": 50, "duration": 480, "velocity": 100}, {"time": 80160, "pitch": 55, "duration": 480, "velocity": 100}, {"time": 80160, "pitch": 62, "duration": 480, "velocity": 100}, {"time": 80160, "pitch": 67, "duration": 480, "velocity": 100}, {"time": 80640, "pitch": 43, "duration": 240, "velocity": 85}, {"time": 80640, "pitch": 47, "duration": 240, "velocity": 85}, {"time": 80640, "pitch": 50, "duration": 240, "velocity": 85}, {"time": 80640, "pitch": 55, "duration": 240, "velocity": 85}, {"time": 80640, "pitch": 62, "duration": 240, "velocity": 85}, {"time": 80640, "pitch": 67, "duration": 240, "velocity": 85}, {"time": 80880, "pitch": 41, "duration": 240, "velocity": 100}, {"time": 80880, "pitch": 47, "duration": 240, "velocity": 100}, {"time": 80880, "pitch": 50, "duration": 240, "velocity": 100}, {"time": 80880, "pitch": 55, "duration": 240, "velocity": 85}, {"time": 80880, "pitch": 62, "duration": 240, "velocity": 100}, {"time": 80880, "pitch": 67, "duration": 240, "velocity": 100}, {"time": 81120, "pitch": 41, "duration": 240, "velocity": 83}, {"time": 81120, "pitch": 47, "duration": 240, "velocity": 83}, {"time": 81120, "pitch": 50, "duration": 240, "velocity": 83}, {"time": 81120, "pitch": 55, "duration": 240, "velocity": 85}, {"time": 81120, "pitch": 62, "duration": 240, "velocity": 83}, {"time": 81120, "pitch": 67, "duration": 240, "velocity": 83}, {"time": 81360, "pitch": 40, "duration": 480, "velocity": 100}, {"time": 81360, "pitch": 47, "duration": 480, "velocity": 100}, {"time": 81360, "pitch": 52, "duration": 480, "velocity": 100}, {"time": 81360, "pitch": 55, "duration": 480, "velocity": 100}, {"time": 81360, "pitch": 59, "duration": 480, "velocity": 100}, {"time": 81360, "pitch": 64, "duration": 480, "velocity": 100}, {"time": 81840, "pitch": 40, "duration": 30, "velocity": 100}, {"time": 81840, "pitch": 47, "duration": 30, "velocity": 100}, {"time": 81840, "pitch": 52, "duration": 30, "velocity": 100}, {"time": 82080, "pitch": 40, "duration": 480, "velocity": 100}, {"time": 82080, "pitch": 47, "duration": 480, "velocity": 100}, {"time": 82080, "pitch": 52, "duration": 480, "velocity": 100}, {"time": 82080, "pitch": 55, "duration": 480, "velocity": 100}, {"time": 82080, "pitch": 59, "duration": 480, "velocity": 83}, {"time": 82080, "pitch": 64, "duration": 480, "velocity": 100}, {"time": 82560, "pitch": 40, "duration": 240, "velocity": 85}, {"time": 82560, "pitch": 47, "duration": 240, "velocity": 85}, {"time": 82560, "pitch": 52, "duration": 240, "velocity": 85}, {"time": 82560, "pitch": 55, "duration": 240, "velocity": 85}, {"time": 82560, "pitch": 59, "duration": 240, "velocity": 85}, {"time": 82560, "pitch": 64, "duration": 240, "velocity": 85}, {"time": 82800, "pitch": 40, "duration": 240, "velocity": 100}, {"time": 82800, "pitch": 47, "duration": 240, "velocity": 100}, {"time": 82800, "pitch": 52, "duration": 240, "velocity": 100}, {"time": 82800, "pitch": 55, "duration": 240, "velocity": 100}, {"time": 82800, "pitch": 59, "duration": 240, "velocity": 100}, {"time": 82800, "pitch": 64, "duration": 240, "velocity": 100}, {"time": 83040, "pitch": 40, "duration": 240, "velocity": 83}, {"time": 83040, "pitch": 47, "duration": 240, "velocity": 83}, {"time": 83040, "pitch": 52, "duration": 240, "velocity": 83}, {"time": 83040, "pitch": 55, "duration": 240, "velocity": 83}, {"time": 83040, "pitch": 59, "duration": 240, "velocity": 83}, {"time": 83040, "pitch": 64, "duration": 240, "velocity": 83}, {"time": 83280, "pitch": 45, "duration": 480, "velocity": 100}, {"time": 83280, "pitch": 52, "duration": 480, "velocity": 100}, {"time": 83280, "pitch": 57, "duration": 480, "velocity": 100}, {"time": 83280, "pitch": 60, "duration": 480, "velocity": 100}, {"time": 83280, "pitch": 64, "duration": 480, "velocity": 100}, {"time": 83760, "pitch": 45, "duration": 30, "velocity": 100}, {"time": 83760, "pitch": 52, "duration": 30, "velocity": 100}, {"time": 83760, "pitch": 57, "duration": 30, "velocity": 100}, {"time": 84000, "pitch": 43, "duration": 480, "velocity": 100}, {"time": 84000, "pitch": 47, "duration": 480, "velocity": 100}, {"time": 84000, "pitch": 50, "duration": 480, "velocity": 100}, {"time": 84000, "pitch": 55, "duration": 480, "velocity": 100}, {"time": 84000, "pitch": 62, "duration": 480, "velocity": 100}, {"time": 84000, "pitch": 67, "duration": 480, "velocity": 100}, {"time": 84480, "pitch": 43, "duration": 240, "velocity": 85}, {"time": 84480, "pitch": 47, "duration": 240, "velocity": 85}, {"time": 84480, "pitch": 50, "duration": 240, "velocity": 85}, {"time": 84480, "pitch": 55, "duration": 240, "velocity": 85}, {"time": 84480, "pitch": 62, "duration": 240, "velocity": 85}, {"time": 84480, "pitch": 67, "duration": 240, "velocity": 85}, {"time": 84720, "pitch": 43, "duration": 240, "velocity": 100}, {"time": 84720, "pitch": 47, "duration": 240, "velocity": 100}, {"time": 84720, "pitch": 50, "duration": 240, "velocity": 100}, {"time": 84720, "pitch": 55, "duration": 240, "velocity": 85}, {"time": 84720, "pitch": 62, "duration": 240, "velocity": 100}, {"time": 84720, "pitch": 67, "duration": 240, "velocity": 100}, {"time": 84960, "pitch": 43, "duration": 240, "velocity": 83}, {"time": 84960, "pitch": 47, "duration": 240, "velocity": 83}, {"time": 84960, "pitch": 50, "duration": 240, "velocity": 83}, {"time": 84960, "pitch": 55, "duration": 240, "velocity": 85}, {"time": 84960, "pitch": 62, "duration": 240, "velocity": 83}, {"time": 84960, "pitch": 67, "duration": 240, "velocity": 83}, {"time": 85200, "pitch": 50, "duration": 480, "velocity": 100}, {"time": 85200, "pitch": 57, "duration": 480, "velocity": 100}, {"time": 85200, "pitch": 60, "duration": 480, "velocity": 100}, {"time": 85200, "pitch": 65, "duration": 480, "velocity": 100}, {"time": 85680, "pitch": 50, "duration": 30, "velocity": 100}, {"time": 85680, "pitch": 57, "duration": 30, "velocity": 100}, {"time": 85680, "pitch": 60, "duration": 30, "velocity": 100}, {"time": 85920, "pitch": 50, "duration": 480, "velocity": 100}, {"time": 85920, "pitch": 57, "duration": 480, "velocity": 100}, {"time": 85920, "pitch": 60, "duration": 480, "velocity": 100}, {"time": 85920, "pitch": 65, "duration": 480, "velocity": 100}, {"time": 86400, "pitch": 50, "duration": 240, "velocity": 85}, {"time": 86400, "pitch": 57, "duration": 240, "velocity": 85}, {"time": 86400, "pitch": 60, "duration": 240, "velocity": 85}, {"time": 86400, "pitch": 65, "duration": 240, "velocity": 85}, {"time": 86640, "pitch": 50, "duration": 240, "velocity": 100}, {"time": 86640, "pitch": 57, "duration": 240, "velocity": 100}, {"time": 86640, "pitch": 60, "duration": 240, "velocity": 100}, {"time": 86640, "pitch": 65, "duration": 240, "velocity": 100}, {"time": 86880, "pitch": 50, "duration": 240, "velocity": 83}, {"time": 86880, "pitch": 57, "duration": 240, "velocity": 83}, {"time": 86880, "pitch": 60, "duration": 240, "velocity": 83}, {"time": 86880, "pitch": 65, "duration": 240, "velocity": 83}, {"time": 87120, "pitch": 43, "duration": 480, "velocity": 100}, {"time": 87120, "pitch": 50, "duration": 480, "velocity": 100}, {"time": 87120, "pitch": 57, "duration": 480, "velocity": 100}, {"time": 87120, "pitch": 60, "duration": 480, "velocity": 100}, {"time": 87120, "pitch": 65, "duration": 480, "velocity": 100}, {"time": 87600, "pitch": 43, "duration": 480, "velocity": 100}, {"time": 87600, "pitch": 50, "duration": 480, "velocity": 100}, {"time": 87600, "pitch": 57, "duration": 480, "velocity": 100}, {"time": 87600, "pitch": 60, "duration": 480, "velocity": 100}, {"time": 87600, "pitch": 65, "duration": 480, "velocity": 100}, {"time": 88080, "pitch": 43, "duration": 480, "velocity": 99}, {"time": 88080, "pitch": 50, "duration": 480, "velocity": 99}, {"time": 88080, "pitch": 57, "duration": 480, "velocity": 99}, {"time": 88080, "pitch": 60, "duration": 480, "velocity": 99}, {"time": 88080, "pitch": 65, "duration": 480, "velocity": 99}, {"time": 88560, "pitch": 43, "duration": 480, "velocity": 100}, {"time": 88560, "pitch": 50, "duration": 480, "velocity": 100}, {"time": 88560, "pitch": 57, "duration": 480, "velocity": 100}, {"time": 88560, "pitch": 60, "duration": 480, "velocity": 100}, {"time": 88560, "pitch": 65, "duration": 480, "velocity": 100}, {"time": 89040, "pitch": 48, "duration": 480, "velocity": 100}, {"time": 89040, "pitch": 52, "duration": 480, "velocity": 100}, {"time": 89040, "pitch": 55, "duration": 480, "velocity": 100}, {"time": 89040, "pitch": 60, "duration": 480, "velocity": 100}, {"time": 89040, "pitch": 64, "duration": 480, "velocity": 100}, {"time": 89520, "pitch": 48, "duration": 30, "velocity": 100}, {"time": 89520, "pitch": 52, "duration": 30, "velocity": 100}, {"time": 89520, "pitch": 55, "duration": 30, "velocity": 100}, {"time": 89760, "pitch": 47, "duration": 480, "velocity": 100}, {"time": 89760, "pitch": 50, "duration": 480, "velocity": 100}, {"time": 89760, "pitch": 55, "duration": 480, "velocity": 100}, {"time": 89760, "pitch": 62, "duration": 480, "velocity": 100}, {"time": 89760, "pitch": 67, "duration": 480, "velocity": 100}, {"time": 90240, "pitch": 47, "duration": 240, "velocity": 85}, {"time": 90240, "pitch": 50, "duration": 240, "velocity": 85}, {"time": 90240, "pitch": 55, "duration": 240, "velocity": 85}, {"time": 90240, "pitch": 62, "duration": 240, "velocity": 85}, {"time": 90240, "pitch": 67, "duration": 240, "velocity": 85}, {"time": 90480, "pitch": 47, "duration": 240, "velocity": 100}, {"time": 90480, "pitch": 50, "duration": 240, "velocity": 100}, {"time": 90480, "pitch": 55, "duration": 240, "velocity": 100}, {"time": 90480, "pitch": 62, "duration": 240, "velocity": 100}, {"time": 90480, "pitch": 67, "duration": 240, "velocity": 100}, {"time": 90720, "pitch": 47, "duration": 240, "velocity": 83}, {"time": 90720, "pitch": 50, "duration": 240, "velocity": 83}, {"time": 90720, "pitch": 55, "duration": 240, "velocity": 83}, {"time": 90720, "pitch": 62, "duration": 240, "velocity": 83}, {"time": 90720, "pitch": 67, "duration": 240, "velocity": 83}, {"time": 90960, "pitch": 45, "duration": 480, "velocity": 100}, {"time": 90960, "pitch": 52, "duration": 480, "velocity": 100}, {"time": 90960, "pitch": 57, "duration": 480, "velocity": 100}, {"time": 90960, "pitch": 60, "duration": 480, "velocity": 100}, {"time": 90960, "pitch": 64, "duration": 480, "velocity": 100}, {"time": 91440, "pitch": 45, "duration": 30, "velocity": 100}, {"time": 91440, "pitch": 52, "duration": 30, "velocity": 100}, {"time": 91440, "pitch": 57, "duration": 30, "velocity": 100}, {"time": 91680, "pitch": 43, "duration": 480, "velocity": 100}, {"time": 91680, "pitch": 47, "duration": 480, "velocity": 100}, {"time": 91680, "pitch": 50, "duration": 480, "velocity": 100}, {"time": 91680, "pitch": 55, "duration": 480, "velocity": 100}, {"time": 91680, "pitch": 62, "duration": 480, "velocity": 100}, {"time": 91680, "pitch": 67, "duration": 480, "velocity": 100}, {"time": 92160, "pitch": 43, "duration": 240, "velocity": 85}, {"time": 92160, "pitch": 47, "duration": 240, "velocity": 85}, {"time": 92160, "pitch": 50, "duration": 240, "velocity": 85}, {"time": 92160, "pitch": 55, "duration": 240, "velocity": 85}, {"time": 92160, "pitch": 62, "duration": 240, "velocity": 85}, {"time": 92160, "pitch": 67, "duration": 240, "velocity": 85}, {"time": 92400, "pitch": 43, "duration": 240, "velocity": 100}, {"time": 92400, "pitch": 47, "duration": 240, "velocity": 100}, {"time": 92400, "pitch": 50, "duration": 240, "velocity": 100}, {"time": 92400, "pitch": 55, "duration": 240, "velocity": 85}, {"time": 92400, "pitch": 62, "duration": 240, "velocity": 100}, {"time": 92400, "pitch": 67, "duration": 240, "velocity": 100}, {"time": 92640, "pitch": 43, "duration": 240, "velocity": 83}, {"time": 92640, "pitch": 47, "duration": 240, "velocity": 83}, {"time": 92640, "pitch": 50, "duration": 240, "velocity": 83}, {"time": 92640, "pitch": 55, "duration": 240, "velocity": 85}, {"time": 92640, "pitch": 62, "duration": 240, "velocity": 83}, {"time": 92640, "pitch": 67, "duration": 240, "velocity": 83}, {"time": 92880, "pitch": 41, "duration": 480, "velocity": 100}, {"time": 92880, "pitch": 48, "duration": 480, "velocity": 100}, {"time": 92880, "pitch": 53, "duration": 480, "velocity": 100}, {"time": 92880, "pitch": 57, "duration": 480, "velocity": 100}, {"time": 92880, "pitch": 60, "duration": 480, "velocity": 100}, {"time": 92880, "pitch": 65, "duration": 480, "velocity": 100}, {"time": 93360, "pitch": 41, "duration": 30, "velocity": 100}, {"time": 93360, "pitch": 48, "duration": 30, "velocity": 100}, {"time": 93360, "pitch": 53, "duration": 30, "velocity": 100}, {"time": 93600, "pitch": 40, "duration": 480, "velocity": 100}, {"time": 93600, "pitch": 47, "duration": 480, "velocity": 100}, {"time": 93600, "pitch": 52, "duration": 480, "velocity": 100}, {"time": 93600, "pitch": 55, "duration": 480, "velocity": 100}, {"time": 93600, "pitch": 59, "duration": 480, "velocity": 100}, {"time": 93600, "pitch": 64, "duration": 480, "velocity": 100}, {"time": 94080, "pitch": 40, "duration": 240, "velocity": 85}, {"time": 94080, "pitch": 47, "duration": 240, "velocity": 85}, {"time": 94080, "pitch": 52, "duration": 240, "velocity": 85}, {"time": 94080, "pitch": 55, "duration": 240, "velocity": 85}, {"time": 94080, "pitch": 59, "duration": 240, "velocity": 85}, {"time": 94080, "pitch": 64, "duration": 240, "velocity": 85}, {"time": 94320, "pitch": 40, "duration": 240, "velocity": 85}, {"time": 94320, "pitch": 47, "duration": 240, "velocity": 100}, {"time": 94320, "pitch": 52, "duration": 240, "velocity": 100}, {"time": 94320, "pitch": 55, "duration": 240, "velocity": 100}, {"time": 94320, "pitch": 59, "duration": 240, "velocity": 100}, {"time": 94320, "pitch": 64, "duration": 240, "velocity": 100}, {"time": 94560, "pitch": 40, "duration": 240, "velocity": 85}, {"time": 94560, "pitch": 47, "duration": 240, "velocity": 83}, {"time": 94560, "pitch": 52, "duration": 240, "velocity": 83}, {"time": 94560, "pitch": 55, "duration": 240, "velocity": 83}, {"time": 94560, "pitch": 59, "duration": 240, "velocity": 83}, {"time": 94560, "pitch": 64, "duration": 240, "velocity": 83}, {"time": 94800, "pitch": 50, "duration": 480, "velocity": 100}, {"time": 94800, "pitch": 57, "duration": 480, "velocity": 100}, {"time": 94800, "pitch": 60, "duration": 480, "velocity": 100}, {"time": 94800, "pitch": 65, "duration": 480, "velocity": 100}, {"time": 95280, "pitch": 50, "duration": 30, "velocity": 100}, {"time": 95280, "pitch": 57, "duration": 30, "velocity": 100}, {"time": 95280, "pitch": 60, "duration": 30, "velocity": 100}, {"time": 95520, "pitch": 43, "duration": 480, "velocity": 100}, {"time": 95520, "pitch": 50, "duration": 480, "velocity": 100}, {"time": 95520, "pitch": 57, "duration": 480, "velocity": 100}, {"time": 95520, "pitch": 60, "duration": 480, "velocity": 100}, {"time": 95520, "pitch": 65, "duration": 480, "velocity": 100}, {"time": 96000, "pitch": 43, "duration": 240, "velocity": 85}, {"time": 96000, "pitch": 50, "duration": 240, "velocity": 85}, {"time": 96000, "pitch": 57, "duration": 240, "velocity": 85}, {"time": 96000, "pitch": 60, "duration": 240, "velocity": 85}, {"time": 96000, "pitch": 65, "duration": 240, "velocity": 85}, {"time": 96240, "pitch": 43, "duration": 240, "velocity": 100}, {"time": 96240, "pitch": 50, "duration": 240, "velocity": 100}, {"time": 96240, "pitch": 57, "duration": 240, "velocity": 85}, {"time": 96240, "pitch": 60, "duration": 240, "velocity": 100}, {"time": 96240, "pitch": 65, "duration": 240, "velocity": 100}, {"time": 96480, "pitch": 43, "duration": 240, "velocity": 83}, {"time": 96480, "pitch": 50, "duration": 240, "velocity": 83}, {"time": 96480, "pitch": 57, "duration": 240, "velocity": 85}, {"time": 96480, "pitch": 60, "duration": 240, "velocity": 83}, {"time": 96480, "pitch": 65, "duration": 240, "velocity": 83}, {"time": 96720, "pitch": 48, "duration": 480, "velocity": 100}, {"time": 96720, "pitch": 52, "duration": 480, "velocity": 100}, {"time": 96720, "pitch": 55, "duration": 480, "velocity": 100}, {"time": 96720, "pitch": 60, "duration": 480, "velocity": 100}, {"time": 96720, "pitch": 64, "duration": 480, "velocity": 100}, {"time": 97440, "pitch": 48, "duration": 480, "velocity": 100}, {"time": 97440, "pitch": 52, "duration": 480, "velocity": 100}, {"time": 97440, "pitch": 55, "duration": 480, "velocity": 100}, {"time": 97440, "pitch": 60, "duration": 480, "velocity": 100}, {"time": 97440, "pitch": 64, "duration": 480, "velocity": 100}, {"time": 97920, "pitch": 48, "duration": 240, "velocity": 85}, {"time": 97920, "pitch": 52, "duration": 240, "velocity": 85}, {"time": 97920, "pitch": 55, "duration": 240, "velocity": 85}, {"time": 97920, "pitch": 60, "duration": 240, "velocity": 85}, {"time": 97920, "pitch": 64, "duration": 240, "velocity": 85}, {"time": 98160, "pitch": 48, "duration": 240, "velocity": 100}, {"time": 98160, "pitch": 52, "duration": 240, "velocity": 100}, {"time": 98160, "pitch": 55, "duration": 240, "velocity": 100}, {"time": 98160, "pitch": 60, "duration": 240, "velocity": 100}, {"time": 98160, "pitch": 64, "duration": 240, "velocity": 100}, {"time": 98400, "pitch": 48, "duration": 240, "velocity": 81}, {"time": 98400, "pitch": 52, "duration": 240, "velocity": 81}, {"time": 98400, "pitch": 55, "duration": 240, "velocity": 81}, {"time": 98400, "pitch": 60, "duration": 240, "velocity": 81}, {"time": 98400, "pitch": 64, "duration": 240, "velocity": 81}, {"time": 98640, "pitch": 40, "duration": 480, "velocity": 100}, {"time": 98640, "pitch": 47, "duration": 480, "velocity": 100}, {"time": 98640, "pitch": 50, "duration": 480, "velocity": 100}, {"time": 98640, "pitch": 56, "duration": 480, "velocity": 100}, {"time": 98640, "pitch": 59, "duration": 480, "velocity": 100}, {"time": 98640, "pitch": 64, "duration": 480, "velocity": 100}, {"time": 99360, "pitch": 40, "duration": 480, "velocity": 100}, {"time": 99360, "pitch": 47, "duration": 480, "velocity": 100}, {"time": 99360, "pitch": 50, "duration": 480, "velocity": 100}, {"time": 99360, "pitch": 56, "duration": 480, "velocity": 100}, {"time": 99360, "pitch": 59, "duration": 480, "velocity": 100}, {"time": 99360, "pitch": 64, "duration": 480, "velocity": 100}, {"time": 99840, "pitch": 40, "duration": 240, "velocity": 85}, {"time": 99840, "pitch": 47, "duration": 240, "velocity": 85}, {"time": 99840, "pitch": 50, "duration": 240, "velocity": 85}, {"time": 99840, "pitch": 56, "duration": 240, "velocity": 85}, {"time": 99840, "pitch": 59, "duration": 240, "velocity": 85}, {"time": 99840, "pitch": 64, "duration": 240, "velocity": 85}, {"time": 100080, "pitch": 40, "duration": 240, "velocity": 100}, {"time": 100080, "pitch": 47, "duration": 240, "velocity": 100}, {"time": 100080, "pitch": 50, "duration": 240, "velocity": 100}, {"time": 100080, "pitch": 56, "duration": 240, "velocity": 100}, {"time": 100080, "pitch": 59, "duration": 240, "velocity": 100}, {"time": 100080, "pitch": 64, "duration": 240, "velocity": 100}, {"time": 100320, "pitch": 40, "duration": 240, "velocity": 81}, {"time": 100320, "pitch": 47, "duration": 240, "velocity": 81}, {"time": 100320, "pitch": 50, "duration": 240, "velocity": 81}, {"time": 100320, "pitch": 56, "duration": 240, "velocity": 81}, {"time": 100320, "pitch": 59, "duration": 240, "velocity": 81}, {"time": 100320, "pitch": 64, "duration": 240, "velocity": 81}, {"time": 100560, "pitch": 45, "duration": 480, "velocity": 100}, {"time": 100560, "pitch": 52, "duration": 480, "velocity": 100}, {"time": 100560, "pitch": 57, "duration": 480, "velocity": 100}, {"time": 100560, "pitch": 60, "duration": 480, "velocity": 100}, {"time": 100560, "pitch": 64, "duration": 480, "velocity": 100}, {"time": 101280, "pitch": 45, "duration": 480, "velocity": 100}, {"time": 101280, "pitch": 52, "duration": 480, "velocity": 100}, {"time": 101280, "pitch": 57, "duration": 480, "velocity": 100}, {"time": 101280, "pitch": 60, "duration": 480, "velocity": 100}, {"time": 101280, "pitch": 64, "duration": 480, "velocity": 100}, {"time": 101760, "pitch": 45, "duration": 240, "velocity": 85}, {"time": 101760, "pitch": 52, "duration": 240, "velocity": 85}, {"time": 101760, "pitch": 57, "duration": 240, "velocity": 85}, {"time": 101760, "pitch": 60, "duration": 240, "velocity": 85}, {"time": 101760, "pitch": 64, "duration": 240, "velocity": 85}, {"time": 102000, "pitch": 45, "duration": 240, "velocity": 100}, {"time": 102000, "pitch": 52, "duration": 240, "velocity": 100}, {"time": 102000, "pitch": 57, "duration": 240, "velocity": 100}, {"time": 102000, "pitch": 60, "duration": 240, "velocity": 100}, {"time": 102000, "pitch": 64, "duration": 240, "velocity": 100}, {"time": 102240, "pitch": 45, "duration": 240, "velocity": 81}, {"time": 102240, "pitch": 52, "duration": 240, "velocity": 81}, {"time": 102240, "pitch": 57, "duration": 240, "velocity": 81}, {"time": 102240, "pitch": 60, "duration": 240, "velocity": 81}, {"time": 102240, "pitch": 64, "duration": 240, "velocity": 81}, {"time": 102480, "pitch": 48, "duration": 480, "velocity": 100}, {"time": 102480, "pitch": 52, "duration": 480, "velocity": 100}, {"time": 102480, "pitch": 58, "duration": 480, "velocity": 100}, {"time": 102480, "pitch": 60, "duration": 480, "velocity": 100}, {"time": 102480, "pitch": 64, "duration": 480, "velocity": 100}, {"time": 103200, "pitch": 48, "duration": 480, "velocity": 100}, {"time": 103200, "pitch": 52, "duration": 480, "velocity": 100}, {"time": 103200, "pitch": 58, "duration": 480, "velocity": 100}, {"time": 103200, "pitch": 60, "duration": 480, "velocity": 100}, {"time": 103200, "pitch": 64, "duration": 480, "velocity": 100}, {"time": 103680, "pitch": 48, "duration": 240, "velocity": 85}, {"time": 103680, "pitch": 52, "duration": 240, "velocity": 85}, {"time": 103680, "pitch": 58, "duration": 240, "velocity": 85}, {"time": 103680, "pitch": 60, "duration": 240, "velocity": 85}, {"time": 103680, "pitch": 64, "duration": 240, "velocity": 85}, {"time": 103920, "pitch": 48, "duration": 240, "velocity": 100}, {"time": 103920, "pitch": 52, "duration": 240, "velocity": 100}, {"time": 103920, "pitch": 58, "duration": 240, "velocity": 100}, {"time": 103920, "pitch": 60, "duration": 240, "velocity": 100}, {"time": 103920, "pitch": 64, "duration": 240, "velocity": 100}, {"time": 104160, "pitch": 48, "duration": 240, "velocity": 81}, {"time": 104160, "pitch": 52, "duration": 240, "velocity": 81}, {"time": 104160, "pitch": 58, "duration": 240, "velocity": 81}, {"time": 104160, "pitch": 60, "duration": 240, "velocity": 81}, {"time": 104160, "pitch": 64, "duration": 240, "velocity": 81}, {"time": 104400, "pitch": 41, "duration": 480, "velocity": 100}, {"time": 104400, "pitch": 48, "duration": 480, "velocity": 100}, {"time": 104400, "pitch": 53, "duration": 480, "velocity": 100}, {"time": 104400, "pitch": 57, "duration": 480, "velocity": 100}, {"time": 104400, "pitch": 60, "duration": 480, "velocity": 100}, {"time": 104400, "pitch": 65, "duration": 480, "velocity": 100}, {"time": 105120, "pitch": 41, "duration": 480, "velocity": 100}, {"time": 105120, "pitch": 48, "duration": 480, "velocity": 100}, {"time": 105120, "pitch": 53, "duration": 480, "velocity": 100}, {"time": 105120, "pitch": 57, "duration": 480, "velocity": 100}, {"time": 105120, "pitch": 60, "duration": 480, "velocity": 100}, {"time": 105120, "pitch": 65, "duration": 480, "velocity": 100}, {"time": 105600, "pitch": 41, "duration": 240, "velocity": 85}, {"time": 105600, "pitch": 48, "duration": 240, "velocity": 85}, {"time": 105600, "pitch": 53, "duration": 240, "velocity": 85}, {"time": 105600, "pitch": 57, "duration": 240, "velocity": 85}, {"time": 105600, "pitch": 60, "duration": 240, "velocity": 85}, {"time": 105600, "pitch": 65, "duration": 240, "velocity": 85}, {"time": 105840, "pitch": 41, "duration": 240, "velocity": 100}, {"time": 105840, "pitch": 48, "duration": 240, "velocity": 100}, {"time": 105840, "pitch": 53, "duration": 240, "velocity": 100}, {"time": 105840, "pitch": 57, "duration": 240, "velocity": 100}, {"time": 105840, "pitch": 60, "duration": 240, "velocity": 100}, {"time": 105840, "pitch": 65, "duration": 240, "velocity": 100}, {"time": 106080, "pitch": 41, "duration": 240, "velocity": 81}, {"time": 106080, "pitch": 48, "duration": 240, "velocity": 81}, {"time": 106080, "pitch": 53, "duration": 240, "velocity": 81}, {"time": 106080, "pitch": 57, "duration": 240, "velocity": 81}, {"time": 106080, "pitch": 60, "duration": 240, "velocity": 81}, {"time": 106080, "pitch": 65, "duration": 240, "velocity": 81}, {"time": 106320, "pitch": 40, "duration": 480, "velocity": 100}, {"time": 106320, "pitch": 47, "duration": 480, "velocity": 100}, {"time": 106320, "pitch": 52, "duration": 480, "velocity": 100}, {"time": 106320, "pitch": 55, "duration": 480, "velocity": 100}, {"time": 106320, "pitch": 59, "duration": 480, "velocity": 100}, {"time": 106320, "pitch": 64, "duration": 480, "velocity": 100}, {"time": 107040, "pitch": 45, "duration": 480, "velocity": 100}, {"time": 107040, "pitch": 52, "duration": 480, "velocity": 100}, {"time": 107040, "pitch": 57, "duration": 480, "velocity": 100}, {"time": 107040, "pitch": 60, "duration": 480, "velocity": 100}, {"time": 107040, "pitch": 64, "duration": 480, "velocity": 100}, {"time": 107520, "pitch": 45, "duration": 240, "velocity": 85}, {"time": 107520, "pitch": 52, "duration": 240, "velocity": 85}, {"time": 107520, "pitch": 57, "duration": 240, "velocity": 85}, {"time": 107520, "pitch": 60, "duration": 240, "velocity": 85}, {"time": 107520, "pitch": 64, "duration": 240, "velocity": 85}, {"time": 107760, "pitch": 45, "duration": 240, "velocity": 100}, {"time": 107760, "pitch": 52, "duration": 240, "velocity": 100}, {"time": 107760, "pitch": 57, "duration": 240, "velocity": 100}, {"time": 107760, "pitch": 60, "duration": 240, "velocity": 100}, {"time": 107760, "pitch": 64, "duration": 240, "velocity": 100}, {"time": 108000, "pitch": 45, "duration": 240, "velocity": 81}, {"time": 108000, "pitch": 52, "duration": 240, "velocity": 81}, {"time": 108000, "pitch": 57, "duration": 240, "velocity": 81}, {"time": 108000, "pitch": 60, "duration": 240, "velocity": 81}, {"time": 108000, "pitch": 64, "duration": 240, "velocity": 81}, {"time": 108240, "pitch": 50, "duration": 480, "velocity": 100}, {"time": 108240, "pitch": 57, "duration": 480, "velocity": 100}, {"time": 108240, "pitch": 62, "duration": 480, "velocity": 100}, {"time": 108240, "pitch": 65, "duration": 480, "velocity": 100}, {"time": 108960, "pitch": 50, "duration": 480, "velocity": 100}, {"time": 108960, "pitch": 57, "duration": 480, "velocity": 100}, {"time": 108960, "pitch": 62, "duration": 480, "velocity": 100}, {"time": 108960, "pitch": 65, "duration": 480, "velocity": 100}, {"time": 109440, "pitch": 50, "duration": 240, "velocity": 85}, {"time": 109440, "pitch": 57, "duration": 240, "velocity": 85}, {"time": 109440, "pitch": 62, "duration": 240, "velocity": 85}, {"time": 109440, "pitch": 65, "duration": 240, "velocity": 85}, {"time": 109680, "pitch": 50, "duration": 240, "velocity": 100}, {"time": 109680, "pitch": 57, "duration": 240, "velocity": 100}, {"time": 109680, "pitch": 62, "duration": 240, "velocity": 100}, {"time": 109680, "pitch": 65, "duration": 240, "velocity": 100}, {"time": 109920, "pitch": 50, "duration": 240, "velocity": 81}, {"time": 109920, "pitch": 57, "duration": 240, "velocity": 81}, {"time": 109920, "pitch": 62, "duration": 240, "velocity": 81}, {"time": 109920, "pitch": 65, "duration": 240, "velocity": 81}, {"time": 110160, "pitch": 43, "duration": 480, "velocity": 100}, {"time": 110160, "pitch": 50, "duration": 480, "velocity": 100}, {"time": 110160, "pitch": 55, "duration": 480, "velocity": 100}, {"time": 110160, "pitch": 59, "duration": 480, "velocity": 100}, {"time": 110160, "pitch": 62, "duration": 480, "velocity": 100}, {"time": 110160, "pitch": 67, "duration": 480, "velocity": 100}, {"time": 110880, "pitch": 43, "duration": 480, "velocity": 100}, {"time": 110880, "pitch": 50, "duration": 480, "velocity": 100}, {"time": 110880, "pitch": 55, "duration": 480, "velocity": 100}, {"time": 110880, "pitch": 59, "duration": 480, "velocity": 100}, {"time": 110880, "pitch": 62, "duration": 480, "velocity": 100}, {"time": 110880, "pitch": 67, "duration": 480, "velocity": 100}, {"time": 111360, "pitch": 43, "duration": 240, "velocity": 85}, {"time": 111360, "pitch": 50, "duration": 240, "velocity": 85}, {"time": 111360, "pitch": 55, "duration": 240, "velocity": 85}, {"time": 111360, "pitch": 59, "duration": 240, "velocity": 85}, {"time": 111360, "pitch": 62, "duration": 240, "velocity": 85}, {"time": 111360, "pitch": 67, "duration": 240, "velocity": 85}, {"time": 111600, "pitch": 43, "duration": 240, "velocity": 100}, {"time": 111600, "pitch": 50, "duration": 240, "velocity": 100}, {"time": 111600, "pitch": 55, "duration": 240, "velocity": 100}, {"time": 111600, "pitch": 59, "duration": 240, "velocity": 100}, {"time": 111600, "pitch": 62, "duration": 240, "velocity": 100}, {"time": 111600, "pitch": 67, "duration": 240, "velocity": 100}, {"time": 111840, "pitch": 43, "duration": 240, "velocity": 81}, {"time": 111840, "pitch": 50, "duration": 240, "velocity": 81}, {"time": 111840, "pitch": 55, "duration": 240, "velocity": 81}, {"time": 111840, "pitch": 59, "duration": 240, "velocity": 81}, {"time": 111840, "pitch": 62, "duration": 240, "velocity": 81}, {"time": 111840, "pitch": 67, "duration": 240, "velocity": 81}, {"time": 112080, "pitch": 48, "duration": 480, "velocity": 100}, {"time": 112080, "pitch": 52, "duration": 480, "velocity": 100}, {"time": 112080, "pitch": 55, "duration": 480, "velocity": 100}, {"time": 112080, "pitch": 60, "duration": 480, "velocity": 100}, {"time": 112080, "pitch": 64, "duration": 480, "velocity": 100}, {"time": 112800, "pitch": 48, "duration": 480, "velocity": 100}, {"time": 112800, "pitch": 52, "duration": 480, "velocity": 100}, {"time": 112800, "pitch": 55, "duration": 480, "velocity": 100}, {"time": 112800, "pitch": 60, "duration": 480, "velocity": 100}, {"time": 112800, "pitch": 64, "duration": 480, "velocity": 100}, {"time": 113280, "pitch": 48, "duration": 240, "velocity": 85}, {"time": 113280, "pitch": 52, "duration": 240, "velocity": 85}, {"time": 113280, "pitch": 55, "duration": 240, "velocity": 85}, {"time": 113280, "pitch": 60, "duration": 240, "velocity": 85}, {"time": 113280, "pitch": 64, "duration": 240, "velocity": 85}, {"time": 113520, "pitch": 48, "duration": 240, "velocity": 100}, {"time": 113520, "pitch": 52, "duration": 240, "velocity": 100}, {"time": 113520, "pitch": 55, "duration": 240, "velocity": 100}, {"time": 113520, "pitch": 60, "duration": 240, "velocity": 100}, {"time": 113520, "pitch": 64, "duration": 240, "velocity": 100}, {"time": 113760, "pitch": 48, "duration": 240, "velocity": 81}, {"time": 113760, "pitch": 52, "duration": 240, "velocity": 81}, {"time": 113760, "pitch": 55, "duration": 240, "velocity": 81}, {"time": 113760, "pitch": 60, "duration": 240, "velocity": 81}, {"time": 113760, "pitch": 64, "duration": 240, "velocity": 81}, {"time": 114000, "pitch": 40, "duration": 480, "velocity": 100}, {"time": 114000, "pitch": 47, "duration": 480, "velocity": 100}, {"time": 114000, "pitch": 50, "duration": 480, "velocity": 100}, {"time": 114000, "pitch": 56, "duration": 480, "velocity": 100}, {"time": 114000, "pitch": 59, "duration": 480, "velocity": 100}, {"time": 114000, "pitch": 64, "duration": 480, "velocity": 100}, {"time": 114720, "pitch": 40, "duration": 480, "velocity": 100}, {"time": 114720, "pitch": 47, "duration": 480, "velocity": 100}, {"time": 114720, "pitch": 50, "duration": 480, "velocity": 100}, {"time": 114720, "pitch": 56, "duration": 480, "velocity": 100}, {"time": 114720, "pitch": 59, "duration": 480, "velocity": 100}, {"time": 114720, "pitch": 64, "duration": 480, "velocity": 100}, {"time": 115200, "pitch": 40, "duration": 240, "velocity": 85}, {"time": 115200, "pitch": 47, "duration": 240, "velocity": 85}, {"time": 115200, "pitch": 50, "duration": 240, "velocity": 85}, {"time": 115200, "pitch": 56, "duration": 240, "velocity": 85}, {"time": 115200, "pitch": 59, "duration": 240, "velocity": 85}, {"time": 115200, "pitch": 64, "duration": 240, "velocity": 85}, {"time": 115440, "pitch": 40, "duration": 240, "velocity": 100}, {"time": 115440, "pitch": 47, "duration": 240, "velocity": 100}, {"time": 115440, "pitch": 50, "duration": 240, "velocity": 100}, {"time": 115440, "pitch": 56, "duration": 240, "velocity": 100}, {"time": 115440, "pitch": 59, "duration": 240, "velocity": 100}, {"time": 115440, "pitch": 64, "duration": 240, "velocity": 100}, {"time": 115680, "pitch": 40, "duration": 240, "velocity": 81}, {"time": 115680, "pitch": 47, "duration": 240, "velocity": 81}, {"time": 115680, "pitch": 50, "duration": 240, "velocity": 81}, {"time": 115680, "pitch": 56, "duration": 240, "velocity": 81}, {"time": 115680, "pitch": 59, "duration": 240, "velocity": 81}, {"time": 115680, "pitch": 64, "duration": 240, "velocity": 81}, {"time": 115920, "pitch": 45, "duration": 480, "velocity": 100}, {"time": 115920, "pitch": 52, "duration": 480, "velocity": 100}, {"time": 115920, "pitch": 57, "duration": 480, "velocity": 100}, {"time": 115920, "pitch": 60, "duration": 480, "velocity": 100}, {"time": 115920, "pitch": 64, "duration": 480, "velocity": 100}, {"time": 116640, "pitch": 45, "duration": 480, "velocity": 100}, {"time": 116640, "pitch": 52, "duration": 480, "velocity": 100}, {"time": 116640, "pitch": 57, "duration": 480, "velocity": 100}, {"time": 116640, "pitch": 60, "duration": 480, "velocity": 100}, {"time": 116640, "pitch": 64, "duration": 480, "velocity": 100}, {"time": 117120, "pitch": 45, "duration": 240, "velocity": 85}, {"time": 117120, "pitch": 52, "duration": 240, "velocity": 85}, {"time": 117120, "pitch": 57, "duration": 240, "velocity": 85}, {"time": 117120, "pitch": 60, "duration": 240, "velocity": 85}, {"time": 117120, "pitch": 64, "duration": 240, "velocity": 85}, {"time": 117360, "pitch": 45, "duration": 240, "velocity": 100}, {"time": 117360, "pitch": 52, "duration": 240, "velocity": 100}, {"time": 117360, "pitch": 57, "duration": 240, "velocity": 100}, {"time": 117360, "pitch": 60, "duration": 240, "velocity": 100}, {"time": 117360, "pitch": 64, "duration": 240, "velocity": 100}, {"time": 117600, "pitch": 45, "duration": 240, "velocity": 81}, {"time": 117600, "pitch": 52, "duration": 240, "velocity": 81}, {"time": 117600, "pitch": 57, "duration": 240, "velocity": 81}, {"time": 117600, "pitch": 60, "duration": 240, "velocity": 81}, {"time": 117600, "pitch": 64, "duration": 240, "velocity": 81}, {"time": 117840, "pitch": 48, "duration": 480, "velocity": 100}, {"time": 117840, "pitch": 52, "duration": 480, "velocity": 100}, {"time": 117840, "pitch": 58, "duration": 480, "velocity": 100}, {"time": 117840, "pitch": 60, "duration": 480, "velocity": 100}, {"time": 117840, "pitch": 64, "duration": 480, "velocity": 100}, {"time": 118560, "pitch": 48, "duration": 480, "velocity": 100}, {"time": 118560, "pitch": 52, "duration": 480, "velocity": 100}, {"time": 118560, "pitch": 58, "duration": 480, "velocity": 100}, {"time": 118560, "pitch": 60, "duration": 480, "velocity": 100}, {"time": 118560, "pitch": 64, "duration": 480, "velocity": 100}, {"time": 119040, "pitch": 48, "duration": 240, "velocity": 85}, {"time": 119040, "pitch": 52, "duration": 240, "velocity": 85}, {"time": 119040, "pitch": 58, "duration": 240, "velocity": 85}, {"time": 119040, "pitch": 60, "duration": 240, "velocity": 85}, {"time": 119040, "pitch": 64, "duration": 240, "velocity": 85}, {"time": 119280, "pitch": 48, "duration": 240, "velocity": 100}, {"time": 119280, "pitch": 52, "duration": 240, "velocity": 100}, {"time": 119280, "pitch": 58, "duration": 240, "velocity": 100}, {"time": 119280, "pitch": 60, "duration": 240, "velocity": 100}, {"time": 119280, "pitch": 64, "duration": 240, "velocity": 100}, {"time": 119520, "pitch": 48, "duration": 240, "velocity": 81}, {"time": 119520, "pitch": 52, "duration": 240, "velocity": 81}, {"time": 119520, "pitch": 58, "duration": 240, "velocity": 81}, {"time": 119520, "pitch": 60, "duration": 240, "velocity": 81}, {"time": 119520, "pitch": 64, "duration": 240, "velocity": 81}, {"time": 119760, "pitch": 41, "duration": 480, "velocity": 100}, {"time": 119760, "pitch": 48, "duration": 480, "velocity": 100}, {"time": 119760, "pitch": 53, "duration": 480, "velocity": 100}, {"time": 119760, "pitch": 57, "duration": 480, "velocity": 100}, {"time": 119760, "pitch": 60, "duration": 480, "velocity": 100}, {"time": 119760, "pitch": 65, "duration": 480, "velocity": 100}, {"time": 120480, "pitch": 41, "duration": 480, "velocity": 100}, {"time": 120480, "pitch": 48, "duration": 480, "velocity": 100}, {"time": 120480, "pitch": 53, "duration": 480, "velocity": 100}, {"time": 120480, "pitch": 57, "duration": 480, "velocity": 100}, {"time": 120480, "pitch": 60, "duration": 480, "velocity": 100}, {"time": 120480, "pitch": 65, "duration": 480, "velocity": 100}, {"time": 120960, "pitch": 41, "duration": 240, "velocity": 85}, {"time": 120960, "pitch": 48, "duration": 240, "velocity": 85}, {"time": 120960, "pitch": 53, "duration": 240, "velocity": 85}, {"time": 120960, "pitch": 57, "duration": 240, "velocity": 85}, {"time": 120960, "pitch": 60, "duration": 240, "velocity": 85}, {"time": 120960, "pitch": 65, "duration": 240, "velocity": 85}, {"time": 121200, "pitch": 41, "duration": 240, "velocity": 100}, {"time": 121200, "pitch": 48, "duration": 240, "velocity": 100}, {"time": 121200, "pitch": 53, "duration": 240, "velocity": 100}, {"time": 121200, "pitch": 57, "duration": 240, "velocity": 100}, {"time": 121200, "pitch": 60, "duration": 240, "velocity": 100}, {"time": 121200, "pitch": 65, "duration": 240, "velocity": 100}, {"time": 121440, "pitch": 41, "duration": 240, "velocity": 81}, {"time": 121440, "pitch": 48, "duration": 240, "velocity": 81}, {"time": 121440, "pitch": 53, "duration": 240, "velocity": 81}, {"time": 121440, "pitch": 57, "duration": 240, "velocity": 81}, {"time": 121440, "pitch": 60, "duration": 240, "velocity": 81}, {"time": 121440, "pitch": 65, "duration": 240, "velocity": 81}, {"time": 121680, "pitch": 40, "duration": 480, "velocity": 100}, {"time": 121680, "pitch": 47, "duration": 480, "velocity": 100}, {"time": 121680, "pitch": 52, "duration": 480, "velocity": 100}, {"time": 121680, "pitch": 55, "duration": 480, "velocity": 100}, {"time": 121680, "pitch": 59, "duration": 480, "velocity": 100}, {"time": 121680, "pitch": 64, "duration": 480, "velocity": 100}, {"time": 122400, "pitch": 45, "duration": 480, "velocity": 100}, {"time": 122400, "pitch": 52, "duration": 480, "velocity": 100}, {"time": 122400, "pitch": 57, "duration": 480, "velocity": 100}, {"time": 122400, "pitch": 60, "duration": 480, "velocity": 100}, {"time": 122400, "pitch": 64, "duration": 480, "velocity": 100}, {"time": 122880, "pitch": 45, "duration": 240, "velocity": 85}, {"time": 122880, "pitch": 52, "duration": 240, "velocity": 85}, {"time": 122880, "pitch": 57, "duration": 240, "velocity": 85}, {"time": 122880, "pitch": 60, "duration": 240, "velocity": 85}, {"time": 122880, "pitch": 64, "duration": 240, "velocity": 85}, {"time": 123120, "pitch": 45, "duration": 240, "velocity": 100}, {"time": 123120, "pitch": 52, "duration": 240, "velocity": 100}, {"time": 123120, "pitch": 57, "duration": 240, "velocity": 100}, {"time": 123120, "pitch": 60, "duration": 240, "velocity": 100}, {"time": 123120, "pitch": 64, "duration": 240, "velocity": 100}, {"time": 123360, "pitch": 45, "duration": 240, "velocity": 81}, {"time": 123360, "pitch": 52, "duration": 240, "velocity": 81}, {"time": 123360, "pitch": 57, "duration": 240, "velocity": 81}, {"time": 123360, "pitch": 60, "duration": 240, "velocity": 81}, {"time": 123360, "pitch": 64, "duration": 240, "velocity": 81}, {"time": 123600, "pitch": 50, "duration": 480, "velocity": 100}, {"time": 123600, "pitch": 57, "duration": 480, "velocity": 100}, {"time": 123600, "pitch": 62, "duration": 480, "velocity": 100}, {"time": 123600, "pitch": 65, "duration": 480, "velocity": 100}, {"time": 124320, "pitch": 50, "duration": 480, "velocity": 100}, {"time": 124320, "pitch": 57, "duration": 480, "velocity": 100}, {"time": 124320, "pitch": 62, "duration": 480, "velocity": 100}, {"time": 124320, "pitch": 65, "duration": 480, "velocity": 100}, {"time": 124800, "pitch": 50, "duration": 240, "velocity": 85}, {"time": 124800, "pitch": 57, "duration": 240, "velocity": 85}, {"time": 124800, "pitch": 62, "duration": 240, "velocity": 85}, {"time": 124800, "pitch": 65, "duration": 240, "velocity": 85}, {"time": 125040, "pitch": 50, "duration": 240, "velocity": 100}, {"time": 125040, "pitch": 57, "duration": 240, "velocity": 100}, {"time": 125040, "pitch": 62, "duration": 240, "velocity": 100}, {"time": 125040, "pitch": 65, "duration": 240, "velocity": 100}, {"time": 125280, "pitch": 50, "duration": 240, "velocity": 81}, {"time": 125280, "pitch": 57, "duration": 240, "velocity": 81}, {"time": 125280, "pitch": 62, "duration": 240, "velocity": 81}, {"time": 125280, "pitch": 65, "duration": 240, "velocity": 81}, {"time": 125520, "pitch": 48, "duration": 480, "velocity": 100}, {"time": 125520, "pitch": 55, "duration": 480, "velocity": 100}, {"time": 125520, "pitch": 60, "duration": 480, "velocity": 100}, {"time": 125520, "pitch": 64, "duration": 480, "velocity": 100}, {"time": 125520, "pitch": 67, "duration": 480, "velocity": 100}, {"time": 126240, "pitch": 48, "duration": 480, "velocity": 100}, {"time": 126240, "pitch": 55, "duration": 480, "velocity": 100}, {"time": 126240, "pitch": 58, "duration": 480, "velocity": 100}, {"time": 126240, "pitch": 64, "duration": 480, "velocity": 100}, {"time": 126240, "pitch": 67, "duration": 480, "velocity": 100}, {"time": 126720, "pitch": 48, "duration": 240, "velocity": 85}, {"time": 126720, "pitch": 55, "duration": 240, "velocity": 85}, {"time": 126720, "pitch": 58, "duration": 240, "velocity": 85}, {"time": 126720, "pitch": 64, "duration": 240, "velocity": 85}, {"time": 126720, "pitch": 67, "duration": 240, "velocity": 85}, {"time": 126960, "pitch": 48, "duration": 240, "velocity": 100}, {"time": 126960, "pitch": 55, "duration": 240, "velocity": 100}, {"time": 126960, "pitch": 58, "duration": 240, "velocity": 100}, {"time": 126960, "pitch": 64, "duration": 240, "velocity": 100}, {"time": 126960, "pitch": 67, "duration": 240, "velocity": 100}, {"time": 127200, "pitch": 48, "duration": 120, "velocity": 76}, {"time": 127200, "pitch": 55, "duration": 120, "velocity": 76}, {"time": 127200, "pitch": 58, "duration": 120, "velocity": 76}, {"time": 127200, "pitch": 64, "duration": 120, "velocity": 76}, {"time": 127200, "pitch": 67, "duration": 120, "velocity": 76}, {"time": 127440, "pitch": 41, "duration": 480, "velocity": 100}, {"time": 127440, "pitch": 48, "duration": 480, "velocity": 100}, {"time": 127440, "pitch": 53, "duration": 480, "velocity": 100}, {"time": 127440, "pitch": 57, "duration": 480, "velocity": 100}, {"time": 127440, "pitch": 60, "duration": 480, "velocity": 100}, {"time": 127440, "pitch": 65, "duration": 480, "velocity": 100}, {"time": 128160, "pitch": 41, "duration": 480, "velocity": 100}, {"time": 128160, "pitch": 48, "duration": 480, "velocity": 100}, {"time": 128160, "pitch": 53, "duration": 480, "velocity": 100}, {"time": 128160, "pitch": 57, "duration": 480, "velocity": 100}, {"time": 128160, "pitch": 60, "duration": 480, "velocity": 100}, {"time": 128160, "pitch": 65, "duration": 480, "velocity": 100}, {"time": 128640, "pitch": 41, "duration": 240, "velocity": 85}, {"time": 128640, "pitch": 48, "duration": 240, "velocity": 85}, {"time": 128640, "pitch": 53, "duration": 240, "velocity": 85}, {"time": 128640, "pitch": 57, "duration": 240, "velocity": 85}, {"time": 128640, "pitch": 60, "duration": 240, "velocity": 85}, {"time": 128640, "pitch": 65, "duration": 240, "velocity": 85}, {"time": 128880, "pitch": 41, "duration": 240, "velocity": 100}, {"time": 128880, "pitch": 48, "duration": 240, "velocity": 100}, {"time": 128880, "pitch": 53, "duration": 240, "velocity": 100}, {"time": 128880, "pitch": 57, "duration": 240, "velocity": 100}, {"time": 128880, "pitch": 60, "duration": 240, "velocity": 100}, {"time": 128880, "pitch": 65, "duration": 240, "velocity": 100}, {"time": 129120, "pitch": 41, "duration": 240, "velocity": 81}, {"time": 129120, "pitch": 48, "duration": 240, "velocity": 81}, {"time": 129120, "pitch": 53, "duration": 240, "velocity": 81}, {"time": 129120, "pitch": 57, "duration": 240, "velocity": 81}, {"time": 129120, "pitch": 60, "duration": 240, "velocity": 81}, {"time": 129120, "pitch": 65, "duration": 240, "velocity": 81}, {"time": 129360, "pitch": 40, "duration": 480, "velocity": 100}, {"time": 129360, "pitch": 47, "duration": 480, "velocity": 100}, {"time": 129360, "pitch": 52, "duration": 480, "velocity": 100}, {"time": 129360, "pitch": 55, "duration": 480, "velocity": 100}, {"time": 129360, "pitch": 59, "duration": 480, "velocity": 100}, {"time": 129360, "pitch": 64, "duration": 480, "velocity": 100}, {"time": 130080, "pitch": 40, "duration": 480, "velocity": 100}, {"time": 130080, "pitch": 47, "duration": 480, "velocity": 100}, {"time": 130080, "pitch": 52, "duration": 480, "velocity": 100}, {"time": 130080, "pitch": 55, "duration": 480, "velocity": 100}, {"time": 130080, "pitch": 59, "duration": 480, "velocity": 100}, {"time": 130080, "pitch": 64, "duration": 480, "velocity": 100}, {"time": 130560, "pitch": 40, "duration": 240, "velocity": 85}, {"time": 130560, "pitch": 47, "duration": 240, "velocity": 85}, {"time": 130560, "pitch": 52, "duration": 240, "velocity": 85}, {"time": 130560, "pitch": 55, "duration": 240, "velocity": 85}, {"time": 130560, "pitch": 59, "duration": 240, "velocity": 85}, {"time": 130560, "pitch": 64, "duration": 240, "velocity": 85}, {"time": 130800, "pitch": 40, "duration": 240, "velocity": 100}, {"time": 130800, "pitch": 47, "duration": 240, "velocity": 100}, {"time": 130800, "pitch": 52, "duration": 240, "velocity": 100}, {"time": 130800, "pitch": 55, "duration": 240, "velocity": 100}, {"time": 130800, "pitch": 59, "duration": 240, "velocity": 100}, {"time": 130800, "pitch": 64, "duration": 240, "velocity": 100}, {"time": 131040, "pitch": 40, "duration": 240, "velocity": 81}, {"time": 131040, "pitch": 47, "duration": 240, "velocity": 81}, {"time": 131040, "pitch": 52, "duration": 240, "velocity": 81}, {"time": 131040, "pitch": 55, "duration": 240, "velocity": 81}, {"time": 131040, "pitch": 59, "duration": 240, "velocity": 81}, {"time": 131040, "pitch": 64, "duration": 240, "velocity": 81}, {"time": 131280, "pitch": 50, "duration": 480, "velocity": 100}, {"time": 131280, "pitch": 57, "duration": 480, "velocity": 100}, {"time": 131280, "pitch": 62, "duration": 480, "velocity": 100}, {"time": 131280, "pitch": 65, "duration": 480, "velocity": 100}, {"time": 132000, "pitch": 40, "duration": 480, "velocity": 100}, {"time": 132000, "pitch": 47, "duration": 480, "velocity": 100}, {"time": 132000, "pitch": 52, "duration": 480, "velocity": 100}, {"time": 132000, "pitch": 56, "duration": 480, "velocity": 100}, {"time": 132000, "pitch": 59, "duration": 480, "velocity": 100}, {"time": 132000, "pitch": 64, "duration": 480, "velocity": 100}, {"time": 132480, "pitch": 40, "duration": 240, "velocity": 85}, {"time": 132480, "pitch": 47, "duration": 240, "velocity": 85}, {"time": 132480, "pitch": 52, "duration": 240, "velocity": 85}, {"time": 132480, "pitch": 56, "duration": 240, "velocity": 85}, {"time": 132480, "pitch": 59, "duration": 240, "velocity": 85}, {"time": 132480, "pitch": 64, "duration": 240, "velocity": 85}, {"time": 132720, "pitch": 40, "duration": 240, "velocity": 100}, {"time": 132720, "pitch": 47, "duration": 240, "velocity": 100}, {"time": 132720, "pitch": 52, "duration": 240, "velocity": 100}, {"time": 132720, "pitch": 56, "duration": 240, "velocity": 100}, {"time": 132720, "pitch": 59, "duration": 240, "velocity": 100}, {"time": 132720, "pitch": 64, "duration": 240, "velocity": 100}, {"time": 132960, "pitch": 40, "duration": 240, "velocity": 81}, {"time": 132960, "pitch": 47, "duration": 240, "velocity": 81}, {"time": 132960, "pitch": 52, "duration": 240, "velocity": 81}, {"time": 132960, "pitch": 56, "duration": 240, "velocity": 81}, {"time": 132960, "pitch": 59, "duration": 240, "velocity": 81}, {"time": 132960, "pitch": 64, "duration": 240, "velocity": 81}, {"time": 133200, "pitch": 45, "duration": 480, "velocity": 100}, {"time": 133200, "pitch": 52, "duration": 480, "velocity": 100}, {"time": 133200, "pitch": 57, "duration": 480, "velocity": 100}, {"time": 133200, "pitch": 60, "duration": 480, "velocity": 100}, {"time": 133200, "pitch": 64, "duration": 480, "velocity": 100}, {"time": 133920, "pitch": 48, "duration": 480, "velocity": 100}, {"time": 133920, "pitch": 52, "duration": 480, "velocity": 100}, {"time": 133920, "pitch": 58, "duration": 480, "velocity": 100}, {"time": 133920, "pitch": 60, "duration": 480, "velocity": 100}, {"time": 133920, "pitch": 64, "duration": 480, "velocity": 100}, {"time": 134400, "pitch": 48, "duration": 240, "velocity": 85}, {"time": 134400, "pitch": 52, "duration": 240, "velocity": 85}, {"time": 134400, "pitch": 58, "duration": 240, "velocity": 85}, {"time": 134400, "pitch": 60, "duration": 240, "velocity": 85}, {"time": 134400, "pitch": 64, "duration": 240, "velocity": 85}, {"time": 134640, "pitch": 48, "duration": 240, "velocity": 100}, {"time": 134640, "pitch": 52, "duration": 240, "velocity": 100}, {"time": 134640, "pitch": 58, "duration": 240, "velocity": 100}, {"time": 134640, "pitch": 60, "duration": 240, "velocity": 100}, {"time": 134640, "pitch": 64, "duration": 240, "velocity": 100}, {"time": 134880, "pitch": 48, "duration": 240, "velocity": 81}, {"time": 134880, "pitch": 52, "duration": 240, "velocity": 81}, {"time": 134880, "pitch": 58, "duration": 240, "velocity": 81}, {"time": 134880, "pitch": 60, "duration": 240, "velocity": 81}, {"time": 134880, "pitch": 64, "duration": 240, "velocity": 81}, {"time": 135120, "pitch": 41, "duration": 480, "velocity": 100}, {"time": 135120, "pitch": 48, "duration": 480, "velocity": 100}, {"time": 135120, "pitch": 53, "duration": 480, "velocity": 100}, {"time": 135120, "pitch": 57, "duration": 480, "velocity": 100}, {"time": 135120, "pitch": 60, "duration": 480, "velocity": 100}, {"time": 135120, "pitch": 65, "duration": 480, "velocity": 100}, {"time": 135840, "pitch": 41, "duration": 480, "velocity": 100}, {"time": 135840, "pitch": 48, "duration": 480, "velocity": 100}, {"time": 135840, "pitch": 53, "duration": 480, "velocity": 100}, {"time": 135840, "pitch": 57, "duration": 480, "velocity": 100}, {"time": 135840, "pitch": 60, "duration": 480, "velocity": 100}, {"time": 135840, "pitch": 65, "duration": 480, "velocity": 100}, {"time": 136320, "pitch": 41, "duration": 240, "velocity": 85}, {"time": 136320, "pitch": 48, "duration": 240, "velocity": 85}, {"time": 136320, "pitch": 53, "duration": 240, "velocity": 85}, {"time": 136320, "pitch": 57, "duration": 240, "velocity": 85}, {"time": 136320, "pitch": 60, "duration": 240, "velocity": 85}, {"time": 136320, "pitch": 65, "duration": 240, "velocity": 85}, {"time": 136560, "pitch": 41, "duration": 240, "velocity": 100}, {"time": 136560, "pitch": 48, "duration": 240, "velocity": 100}, {"time": 136560, "pitch": 53, "duration": 240, "velocity": 100}, {"time": 136560, "pitch": 57, "duration": 240, "velocity": 100}, {"time": 136560, "pitch": 60, "duration": 240, "velocity": 100}, {"time": 136560, "pitch": 65, "duration": 240, "velocity": 100}, {"time": 136800, "pitch": 41, "duration": 240, "velocity": 81}, {"time": 136800, "pitch": 48, "duration": 240, "velocity": 81}, {"time": 136800, "pitch": 53, "duration": 240, "velocity": 81}, {"time": 136800, "pitch": 57, "duration": 240, "velocity": 81}, {"time": 136800, "pitch": 60, "duration": 240, "velocity": 81}, {"time": 136800, "pitch": 65, "duration": 240, "velocity": 81}, {"time": 137040, "pitch": 40, "duration": 480, "velocity": 100}, {"time": 137040, "pitch": 47, "duration": 480, "velocity": 100}, {"time": 137040, "pitch": 52, "duration": 480, "velocity": 100}, {"time": 137040, "pitch": 55, "duration": 480, "velocity": 100}, {"time": 137040, "pitch": 59, "duration": 480, "velocity": 100}, {"time": 137040, "pitch": 64, "duration": 480, "velocity": 100}, {"time": 137760, "pitch": 45, "duration": 480, "velocity": 100}, {"time": 137760, "pitch": 52, "duration": 480, "velocity": 100}, {"time": 137760, "pitch": 57, "duration": 480, "velocity": 100}, {"time": 137760, "pitch": 60, "duration": 480, "velocity": 100}, {"time": 137760, "pitch": 64, "duration": 480, "velocity": 100}, {"time": 138240, "pitch": 45, "duration": 240, "velocity": 85}, {"time": 138240, "pitch": 52, "duration": 240, "velocity": 85}, {"time": 138240, "pitch": 57, "duration": 240, "velocity": 85}, {"time": 138240, "pitch": 60, "duration": 240, "velocity": 85}, {"time": 138240, "pitch": 64, "duration": 240, "velocity": 85}, {"time": 138480, "pitch": 45, "duration": 240, "velocity": 100}, {"time": 138480, "pitch": 52, "duration": 240, "velocity": 100}, {"time": 138480, "pitch": 57, "duration": 240, "velocity": 100}, {"time": 138480, "pitch": 60, "duration": 240, "velocity": 100}, {"time": 138480, "pitch": 64, "duration": 240, "velocity": 100}, {"time": 138720, "pitch": 45, "duration": 240, "velocity": 81}, {"time": 138720, "pitch": 52, "duration": 240, "velocity": 81}, {"time": 138720, "pitch": 57, "duration": 240, "velocity": 81}, {"time": 138720, "pitch": 60, "duration": 240, "velocity": 81}, {"time": 138720, "pitch": 64, "duration": 240, "velocity": 81}, {"time": 138960, "pitch": 50, "duration": 480, "velocity": 100}, {"time": 138960, "pitch": 57, "duration": 480, "velocity": 100}, {"time": 138960, "pitch": 62, "duration": 480, "velocity": 100}, {"time": 138960, "pitch": 65, "duration": 480, "velocity": 100}, {"time": 139680, "pitch": 50, "duration": 480, "velocity": 100}, {"time": 139680, "pitch": 57, "duration": 480, "velocity": 100}, {"time": 139680, "pitch": 62, "duration": 480, "velocity": 100}, {"time": 139680, "pitch": 65, "duration": 480, "velocity": 100}, {"time": 140160, "pitch": 50, "duration": 240, "velocity": 85}, {"time": 140160, "pitch": 57, "duration": 240, "velocity": 85}, {"time": 140160, "pitch": 62, "duration": 240, "velocity": 85}, {"time": 140160, "pitch": 65, "duration": 240, "velocity": 85}, {"time": 140400, "pitch": 50, "duration": 240, "velocity": 100}, {"time": 140400, "pitch": 57, "duration": 240, "velocity": 100}, {"time": 140400, "pitch": 62, "duration": 240, "velocity": 100}, {"time": 140400, "pitch": 65, "duration": 240, "velocity": 100}, {"time": 140640, "pitch": 50, "duration": 240, "velocity": 81}, {"time": 140640, "pitch": 57, "duration": 240, "velocity": 81}, {"time": 140640, "pitch": 62, "duration": 240, "velocity": 81}, {"time": 140640, "pitch": 65, "duration": 240, "velocity": 81}, {"time": 140880, "pitch": 43, "duration": 480, "velocity": 100}, {"time": 140880, "pitch": 50, "duration": 480, "velocity": 100}, {"time": 140880, "pitch": 57, "duration": 480, "velocity": 100}, {"time": 140880, "pitch": 60, "duration": 480, "velocity": 100}, {"time": 140880, "pitch": 65, "duration": 480, "velocity": 100}, {"time": 141360, "pitch": 43, "duration": 480, "velocity": 100}, {"time": 141360, "pitch": 50, "duration": 480, "velocity": 100}, {"time": 141360, "pitch": 57, "duration": 480, "velocity": 100}, {"time": 141360, "pitch": 60, "duration": 480, "velocity": 100}, {"time": 141360, "pitch": 65, "duration": 480, "velocity": 100}, {"time": 141840, "pitch": 43, "duration": 480, "velocity": 99}, {"time": 141840, "pitch": 50, "duration": 480, "velocity": 99}, {"time": 141840, "pitch": 57, "duration": 480, "velocity": 99}, {"time": 141840, "pitch": 60, "duration": 480, "velocity": 99}, {"time": 141840, "pitch": 65, "duration": 480, "velocity": 99}, {"time": 142320, "pitch": 43, "duration": 480, "velocity": 100}, {"time": 142320, "pitch": 50, "duration": 480, "velocity": 100}, {"time": 142320, "pitch": 57, "duration": 480, "velocity": 100}, {"time": 142320, "pitch": 60, "duration": 480, "velocity": 100}, {"time": 142320, "pitch": 65, "duration": 480, "velocity": 100}, {"time": 142800, "pitch": 48, "duration": 480, "velocity": 100}, {"time": 142800, "pitch": 52, "duration": 480, "velocity": 100}, {"time": 142800, "pitch": 55, "duration": 480, "velocity": 100}, {"time": 142800, "pitch": 60, "duration": 480, "velocity": 100}, {"time": 142800, "pitch": 64, "duration": 480, "velocity": 100}, {"time": 143280, "pitch": 48, "duration": 30, "velocity": 100}, {"time": 143280, "pitch": 52, "duration": 30, "velocity": 100}, {"time": 143280, "pitch": 55, "duration": 30, "velocity": 100}, {"time": 143520, "pitch": 47, "duration": 480, "velocity": 100}, {"time": 143520, "pitch": 50, "duration": 480, "velocity": 100}, {"time": 143520, "pitch": 55, "duration": 480, "velocity": 100}, {"time": 143520, "pitch": 62, "duration": 480, "velocity": 100}, {"time": 143520, "pitch": 67, "duration": 480, "velocity": 100}, {"time": 144000, "pitch": 47, "duration": 240, "velocity": 85}, {"time": 144000, "pitch": 50, "duration": 240, "velocity": 85}, {"time": 144000, "pitch": 55, "duration": 240, "velocity": 85}, {"time": 144000, "pitch": 62, "duration": 240, "velocity": 85}, {"time": 144000, "pitch": 67, "duration": 240, "velocity": 85}, {"time": 144240, "pitch": 47, "duration": 240, "velocity": 100}, {"time": 144240, "pitch": 50, "duration": 240, "velocity": 100}, {"time": 144240, "pitch": 55, "duration": 240, "velocity": 100}, {"time": 144240, "pitch": 62, "duration": 240, "velocity": 100}, {"time": 144240, "pitch": 67, "duration": 240, "velocity": 100}, {"time": 144480, "pitch": 47, "duration": 240, "velocity": 83}, {"time": 144480, "pitch": 50, "duration": 240, "velocity": 83}, {"time": 144480, "pitch": 55, "duration": 240, "velocity": 83}, {"time": 144480, "pitch": 62, "duration": 240, "velocity": 83}, {"time": 144480, "pitch": 67, "duration": 240, "velocity": 83}, {"time": 144720, "pitch": 45, "duration": 480, "velocity": 100}, {"time": 144720, "pitch": 52, "duration": 480, "velocity": 100}, {"time": 144720, "pitch": 57, "duration": 480, "velocity": 100}, {"time": 144720, "pitch": 60, "duration": 480, "velocity": 100}, {"time": 144720, "pitch": 64, "duration": 480, "velocity": 100}, {"time": 145200, "pitch": 45, "duration": 30, "velocity": 100}, {"time": 145200, "pitch": 52, "duration": 30, "velocity": 100}, {"time": 145200, "pitch": 57, "duration": 30, "velocity": 100}, {"time": 145440, "pitch": 43, "duration": 480, "velocity": 100}, {"time": 145440, "pitch": 47, "duration": 480, "velocity": 100}, {"time": 145440, "pitch": 50, "duration": 480, "velocity": 100}, {"time": 145440, "pitch": 55, "duration": 480, "velocity": 100}, {"time": 145440, "pitch": 62, "duration": 480, "velocity": 100}, {"time": 145440, "pitch": 67, "duration": 480, "velocity": 100}, {"time": 145920, "pitch": 43, "duration": 240, "velocity": 85}, {"time": 145920, "pitch": 47, "duration": 240, "velocity": 85}, {"time": 145920, "pitch": 50, "duration": 240, "velocity": 85}, {"time": 145920, "pitch": 55, "duration": 240, "velocity": 85}, {"time": 145920, "pitch": 62, "duration": 240, "velocity": 85}, {"time": 145920, "pitch": 67, "duration": 240, "velocity": 85}, {"time": 146160, "pitch": 43, "duration": 240, "velocity": 100}, {"time": 146160, "pitch": 47, "duration": 240, "velocity": 100}, {"time": 146160, "pitch": 50, "duration": 240, "velocity": 100}, {"time": 146160, "pitch": 55, "duration": 240, "velocity": 85}, {"time": 146160, "pitch": 62, "duration": 240, "velocity": 100}, {"time": 146160, "pitch": 67, "duration": 240, "velocity": 100}, {"time": 146400, "pitch": 43, "duration": 240, "velocity": 83}, {"time": 146400, "pitch": 47, "duration": 240, "velocity": 83}, {"time": 146400, "pitch": 50, "duration": 240, "velocity": 83}, {"time": 146400, "pitch": 55, "duration": 240, "velocity": 85}, {"time": 146400, "pitch": 62, "duration": 240, "velocity": 83}, {"time": 146400, "pitch": 67, "duration": 240, "velocity": 83}, {"time": 146640, "pitch": 41, "duration": 480, "velocity": 100}, {"time": 146640, "pitch": 48, "duration": 480, "velocity": 100}, {"time": 146640, "pitch": 53, "duration": 480, "velocity": 100}, {"time": 146640, "pitch": 57, "duration": 480, "velocity": 100}, {"time": 146640, "pitch": 60, "duration": 480, "velocity": 100}, {"time": 146640, "pitch": 65, "duration": 480, "velocity": 100}, {"time": 147120, "pitch": 41, "duration": 30, "velocity": 100}, {"time": 147120, "pitch": 48, "duration": 30, "velocity": 100}, {"time": 147120, "pitch": 53, "duration": 30, "velocity": 100}, {"time": 147360, "pitch": 40, "duration": 480, "velocity": 100}, {"time": 147360, "pitch": 47, "duration": 480, "velocity": 100}, {"time": 147360, "pitch": 52, "duration": 480, "velocity": 100}, {"time": 147360, "pitch": 55, "duration": 480, "velocity": 100}, {"time": 147360, "pitch": 59, "duration": 480, "velocity": 100}, {"time": 147360, "pitch": 64, "duration": 480, "velocity": 100}, {"time": 147840, "pitch": 40, "duration": 240, "velocity": 85}, {"time": 147840, "pitch": 47, "duration": 240, "velocity": 85}, {"time": 147840, "pitch": 52, "duration": 240, "velocity": 85}, {"time": 147840, "pitch": 55, "duration": 240, "velocity": 85}, {"time": 147840, "pitch": 59, "duration": 240, "velocity": 85}, {"time": 147840, "pitch": 64, "duration": 240, "velocity": 85}, {"time": 148080, "pitch": 40, "duration": 240, "velocity": 85}, {"time": 148080, "pitch": 47, "duration": 240, "velocity": 100}, {"time": 148080, "pitch": 52, "duration": 240, "velocity": 100}, {"time": 148080, "pitch": 55, "duration": 240, "velocity": 100}, {"time": 148080, "pitch": 59, "duration": 240, "velocity": 100}, {"time": 148080, "pitch": 64, "duration": 240, "velocity": 100}, {"time": 148320, "pitch": 40, "duration": 240, "velocity": 85}, {"time": 148320, "pitch": 47, "duration": 240, "velocity": 83}, {"time": 148320, "pitch": 52, "duration": 240, "velocity": 83}, {"time": 148320, "pitch": 55, "duration": 240, "velocity": 83}, {"time": 148320, "pitch": 59, "duration": 240, "velocity": 83}, {"time": 148320, "pitch": 64, "duration": 240, "velocity": 83}, {"time": 148560, "pitch": 50, "duration": 480, "velocity": 100}, {"time": 148560, "pitch": 57, "duration": 480, "velocity": 100}, {"time": 148560, "pitch": 60, "duration": 480, "velocity": 100}, {"time": 148560, "pitch": 65, "duration": 480, "velocity": 100}, {"time": 149040, "pitch": 50, "duration": 30, "velocity": 100}, {"time": 149040, "pitch": 57, "duration": 30, "velocity": 100}, {"time": 149040, "pitch": 60, "duration": 30, "velocity": 100}, {"time": 149280, "pitch": 43, "duration": 480, "velocity": 100}, {"time": 149280, "pitch": 47, "duration": 480, "velocity": 100}, {"time": 149280, "pitch": 50, "duration": 480, "velocity": 100}, {"time": 149280, "pitch": 55, "duration": 480, "velocity": 100}, {"time": 149280, "pitch": 62, "duration": 480, "velocity": 100}, {"time": 149280, "pitch": 67, "duration": 480, "velocity": 100}, {"time": 149760, "pitch": 43, "duration": 240, "velocity": 85}, {"time": 149760, "pitch": 47, "duration": 240, "velocity": 85}, {"time": 149760, "pitch": 50, "duration": 240, "velocity": 85}, {"time": 149760, "pitch": 55, "duration": 240, "velocity": 85}, {"time": 149760, "pitch": 62, "duration": 240, "velocity": 85}, {"time": 149760, "pitch": 67, "duration": 240, "velocity": 85}, {"time": 150000, "pitch": 41, "duration": 240, "velocity": 100}, {"time": 150000, "pitch": 47, "duration": 240, "velocity": 100}, {"time": 150000, "pitch": 50, "duration": 240, "velocity": 100}, {"time": 150000, "pitch": 55, "duration": 240, "velocity": 85}, {"time": 150000, "pitch": 62, "duration": 240, "velocity": 100}, {"time": 150000, "pitch": 67, "duration": 240, "velocity": 100}, {"time": 150240, "pitch": 41, "duration": 240, "velocity": 83}, {"time": 150240, "pitch": 47, "duration": 240, "velocity": 83}, {"time": 150240, "pitch": 50, "duration": 240, "velocity": 83}, {"time": 150240, "pitch": 55, "duration": 240, "velocity": 85}, {"time": 150240, "pitch": 62, "duration": 240, "velocity": 83}, {"time": 150240, "pitch": 67, "duration": 240, "velocity": 83}, {"time": 150480, "pitch": 40, "duration": 480, "velocity": 100}, {"time": 150480, "pitch": 47, "duration": 480, "velocity": 100}, {"time": 150480, "pitch": 52, "duration": 480, "velocity": 100}, {"time": 150480, "pitch": 55, "duration": 480, "velocity": 100}, {"time": 150480, "pitch": 59, "duration": 480, "velocity": 100}, {"time": 150480, "pitch": 64, "duration": 480, "velocity": 100}, {"time": 150960, "pitch": 40, "duration": 30, "velocity": 100}, {"time": 150960, "pitch": 47, "duration": 30, "velocity": 100}, {"time": 150960, "pitch": 52, "duration": 30, "velocity": 100}, {"time": 151200, "pitch": 40, "duration": 480, "velocity": 100}, {"time": 151200, "pitch": 47, "duration": 480, "velocity": 100}, {"time": 151200, "pitch": 52, "duration": 480, "velocity": 100}, {"time": 151200, "pitch": 55, "duration": 480, "velocity": 100}, {"time": 151200, "pitch": 59, "duration": 480, "velocity": 83}, {"time": 151200, "pitch": 64, "duration": 480, "velocity": 100}, {"time": 151680, "pitch": 40, "duration": 240, "velocity": 85}, {"time": 151680, "pitch": 47, "duration": 240, "velocity": 85}, {"time": 151680, "pitch": 52, "duration": 240, "velocity": 85}, {"time": 151680, "pitch": 55, "duration": 240, "velocity": 85}, {"time": 151680, "pitch": 59, "duration": 240, "velocity": 85}, {"time": 151680, "pitch": 64, "duration": 240, "velocity": 85}, {"time": 151920, "pitch": 40, "duration": 240, "velocity": 100}, {"time": 151920, "pitch": 47, "duration": 240, "velocity": 100}, {"time": 151920, "pitch": 52, "duration": 240, "velocity": 100}, {"time": 151920, "pitch": 55, "duration": 240, "velocity": 100}, {"time": 151920, "pitch": 59, "duration": 240, "velocity": 100}, {"time": 151920, "pitch": 64, "duration": 240, "velocity": 100}, {"time": 152160, "pitch": 40, "duration": 240, "velocity": 83}, {"time": 152160, "pitch": 47, "duration": 240, "velocity": 83}, {"time": 152160, "pitch": 52, "duration": 240, "velocity": 83}, {"time": 152160, "pitch": 55, "duration": 240, "velocity": 83}, {"time": 152160, "pitch": 59, "duration": 240, "velocity": 83}, {"time": 152160, "pitch": 64, "duration": 240, "velocity": 83}, {"time": 152400, "pitch": 45, "duration": 480, "velocity": 100}, {"time": 152400, "pitch": 52, "duration": 480, "velocity": 100}, {"time": 152400, "pitch": 57, "duration": 480, "velocity": 100}, {"time": 152400, "pitch": 60, "duration": 480, "velocity": 100}, {"time": 152400, "pitch": 64, "duration": 480, "velocity": 100}, {"time": 152880, "pitch": 45, "duration": 30, "velocity": 100}, {"time": 152880, "pitch": 52, "duration": 30, "velocity": 100}, {"time": 152880, "pitch": 57, "duration": 30, "velocity": 100}, {"time": 153120, "pitch": 43, "duration": 480, "velocity": 100}, {"time": 153120, "pitch": 47, "duration": 480, "velocity": 100}, {"time": 153120, "pitch": 50, "duration": 480, "velocity": 100}, {"time": 153120, "pitch": 55, "duration": 480, "velocity": 100}, {"time": 153120, "pitch": 62, "duration": 480, "velocity": 100}, {"time": 153120, "pitch": 67, "duration": 480, "velocity": 100}, {"time": 153600, "pitch": 43, "duration": 240, "velocity": 85}, {"time": 153600, "pitch": 47, "duration": 240, "velocity": 85}, {"time": 153600, "pitch": 50, "duration": 240, "velocity": 85}, {"time": 153600, "pitch": 55, "duration": 240, "velocity": 85}, {"time": 153600, "pitch": 62, "duration": 240, "velocity": 85}, {"time": 153600, "pitch": 67, "duration": 240, "velocity": 85}, {"time": 153840, "pitch": 43, "duration": 240, "velocity": 100}, {"time": 153840, "pitch": 47, "duration": 240, "velocity": 100}, {"time": 153840, "pitch": 50, "duration": 240, "velocity": 100}, {"time": 153840, "pitch": 55, "duration": 240, "velocity": 85}, {"time": 153840, "pitch": 62, "duration": 240, "velocity": 100}, {"time": 153840, "pitch": 67, "duration": 240, "velocity": 100}, {"time": 154080, "pitch": 43, "duration": 240, "velocity": 83}, {"time": 154080, "pitch": 47, "duration": 240, "velocity": 83}, {"time": 154080, "pitch": 50, "duration": 240, "velocity": 83}, {"time": 154080, "pitch": 55, "duration": 240, "velocity": 85}, {"time": 154080, "pitch": 62, "duration": 240, "velocity": 83}, {"time": 154080, "pitch": 67, "duration": 240, "velocity": 83}, {"time": 154320, "pitch": 50, "duration": 480, "velocity": 100}, {"time": 154320, "pitch": 57, "duration": 480, "velocity": 100}, {"time": 154320, "pitch": 60, "duration": 480, "velocity": 100}, {"time": 154320, "pitch": 65, "duration": 480, "velocity": 100}, {"time": 154800, "pitch": 50, "duration": 30, "velocity": 100}, {"time": 154800, "pitch": 57, "duration": 30, "velocity": 100}, {"time": 154800, "pitch": 60, "duration": 30, "velocity": 100}, {"time": 155040, "pitch": 50, "duration": 480, "velocity": 100}, {"time": 155040, "pitch": 57, "duration": 480, "velocity": 100}, {"time": 155040, "pitch": 60, "duration": 480, "velocity": 100}, {"time": 155040, "pitch": 65, "duration": 480, "velocity": 100}, {"time": 155520, "pitch": 50, "duration": 240, "velocity": 85}, {"time": 155520, "pitch": 57, "duration": 240, "velocity": 85}, {"time": 155520, "pitch": 60, "duration": 240, "velocity": 85}, {"time": 155520, "pitch": 65, "duration": 240, "velocity": 85}, {"time": 155760, "pitch": 50, "duration": 240, "velocity": 100}, {"time": 155760, "pitch": 57, "duration": 240, "velocity": 100}, {"time": 155760, "pitch": 60, "duration": 240, "velocity": 100}, {"time": 155760, "pitch": 65, "duration": 240, "velocity": 100}, {"time": 156000, "pitch": 50, "duration": 240, "velocity": 83}, {"time": 156000, "pitch": 57, "duration": 240, "velocity": 83}, {"time": 156000, "pitch": 60, "duration": 240, "velocity": 83}, {"time": 156000, "pitch": 65, "duration": 240, "velocity": 83}, {"time": 156240, "pitch": 43, "duration": 480, "velocity": 100}, {"time": 156240, "pitch": 50, "duration": 480, "velocity": 100}, {"time": 156240, "pitch": 57, "duration": 480, "velocity": 100}, {"time": 156240, "pitch": 60, "duration": 480, "velocity": 100}, {"time": 156240, "pitch": 65, "duration": 480, "velocity": 100}, {"time": 156720, "pitch": 43, "duration": 480, "velocity": 100}, {"time": 156720, "pitch": 50, "duration": 480, "velocity": 100}, {"time": 156720, "pitch": 57, "duration": 480, "velocity": 100}, {"time": 156720, "pitch": 60, "duration": 480, "velocity": 100}, {"time": 156720, "pitch": 65, "duration": 480, "velocity": 100}, {"time": 157200, "pitch": 43, "duration": 480, "velocity": 99}, {"time": 157200, "pitch": 50, "duration": 480, "velocity": 99}, {"time": 157200, "pitch": 57, "duration": 480, "velocity": 99}, {"time": 157200, "pitch": 60, "duration": 480, "velocity": 99}, {"time": 157200, "pitch": 65, "duration": 480, "velocity": 99}, {"time": 157680, "pitch": 43, "duration": 480, "velocity": 100}, {"time": 157680, "pitch": 50, "duration": 480, "velocity": 100}, {"time": 157680, "pitch": 57, "duration": 480, "velocity": 100}, {"time": 157680, "pitch": 60, "duration": 480, "velocity": 100}, {"time": 157680, "pitch": 65, "duration": 480, "velocity": 100}, {"time": 158160, "pitch": 48, "duration": 480, "velocity": 100}, {"time": 158160, "pitch": 52, "duration": 480, "velocity": 100}, {"time": 158160, "pitch": 55, "duration": 480, "velocity": 100}, {"time": 158160, "pitch": 60, "duration": 480, "velocity": 100}, {"time": 158160, "pitch": 64, "duration": 480, "velocity": 100}, {"time": 158640, "pitch": 48, "duration": 30, "velocity": 100}, {"time": 158640, "pitch": 52, "duration": 30, "velocity": 100}, {"time": 158640, "pitch": 55, "duration": 30, "velocity": 100}, {"time": 158880, "pitch": 47, "duration": 480, "velocity": 100}, {"time": 158880, "pitch": 50, "duration": 480, "velocity": 100}, {"time": 158880, "pitch": 55, "duration": 480, "velocity": 100}, {"time": 158880, "pitch": 62, "duration": 480, "velocity": 100}, {"time": 158880, "pitch": 67, "duration": 480, "velocity": 100}, {"time": 159360, "pitch": 47, "duration": 240, "velocity": 85}, {"time": 159360, "pitch": 50, "duration": 240, "velocity": 85}, {"time": 159360, "pitch": 55, "duration": 240, "velocity": 85}, {"time": 159360, "pitch": 62, "duration": 240, "velocity": 85}, {"time": 159360, "pitch": 67, "duration": 240, "velocity": 85}, {"time": 159600, "pitch": 47, "duration": 240, "velocity": 100}, {"time": 159600, "pitch": 50, "duration": 240, "velocity": 100}, {"time": 159600, "pitch": 55, "duration": 240, "velocity": 100}, {"time": 159600, "pitch": 62, "duration": 240, "velocity": 100}, {"time": 159600, "pitch": 67, "duration": 240, "velocity": 100}, {"time": 159840, "pitch": 47, "duration": 240, "velocity": 83}, {"time": 159840, "pitch": 50, "duration": 240, "velocity": 83}, {"time": 159840, "pitch": 55, "duration": 240, "velocity": 83}, {"time": 159840, "pitch": 62, "duration": 240, "velocity": 83}, {"time": 159840, "pitch": 67, "duration": 240, "velocity": 83}, {"time": 160080, "pitch": 45, "duration": 480, "velocity": 100}, {"time": 160080, "pitch": 52, "duration": 480, "velocity": 100}, {"time": 160080, "pitch": 57, "duration": 480, "velocity": 100}, {"time": 160080, "pitch": 60, "duration": 480, "velocity": 100}, {"time": 160080, "pitch": 64, "duration": 480, "velocity": 100}, {"time": 160560, "pitch": 45, "duration": 30, "velocity": 100}, {"time": 160560, "pitch": 52, "duration": 30, "velocity": 100}, {"time": 160560, "pitch": 57, "duration": 30, "velocity": 100}, {"time": 160800, "pitch": 43, "duration": 480, "velocity": 100}, {"time": 160800, "pitch": 47, "duration": 480, "velocity": 100}, {"time": 160800, "pitch": 50, "duration": 480, "velocity": 100}, {"time": 160800, "pitch": 55, "duration": 480, "velocity": 100}, {"time": 160800, "pitch": 62, "duration": 480, "velocity": 100}, {"time": 160800, "pitch": 67, "duration": 480, "velocity": 100}, {"time": 161280, "pitch": 43, "duration": 240, "velocity": 85}, {"time": 161280, "pitch": 47, "duration": 240, "velocity": 85}, {"time": 161280, "pitch": 50, "duration": 240, "velocity": 85}, {"time": 161280, "pitch": 55, "duration": 240, "velocity": 85}, {"time": 161280, "pitch": 62, "duration": 240, "velocity": 85}, {"time": 161280, "pitch": 67, "duration": 240, "velocity": 85}, {"time": 161520, "pitch": 43, "duration": 240, "velocity": 100}, {"time": 161520, "pitch": 47, "duration": 240, "velocity": 100}, {"time": 161520, "pitch": 50, "duration": 240, "velocity": 100}, {"time": 161520, "pitch": 55, "duration": 240, "velocity": 85}, {"time": 161520, "pitch": 62, "duration": 240, "velocity": 100}, {"time": 161520, "pitch": 67, "duration": 240, "velocity": 100}, {"time": 161760, "pitch": 43, "duration": 240, "velocity": 83}, {"time": 161760, "pitch": 47, "duration": 240, "velocity": 83}, {"time": 161760, "pitch": 50, "duration": 240, "velocity": 83}, {"time": 161760, "pitch": 55, "duration": 240, "velocity": 85}, {"time": 161760, "pitch": 62, "duration": 240, "velocity": 83}, {"time": 161760, "pitch": 67, "duration": 240, "velocity": 83}, {"time": 162000, "pitch": 41, "duration": 480, "velocity": 100}, {"time": 162000, "pitch": 48, "duration": 480, "velocity": 100}, {"time": 162000, "pitch": 53, "duration": 480, "velocity": 100}, {"time": 162000, "pitch": 57, "duration": 480, "velocity": 100}, {"time": 162000, "pitch": 60, "duration": 480, "velocity": 100}, {"time": 162000, "pitch": 65, "duration": 480, "velocity": 100}, {"time": 162480, "pitch": 41, "duration": 30, "velocity": 100}, {"time": 162480, "pitch": 48, "duration": 30, "velocity": 100}, {"time": 162480, "pitch": 53, "duration": 30, "velocity": 100}, {"time": 162720, "pitch": 40, "duration": 480, "velocity": 100}, {"time": 162720, "pitch": 47, "duration": 480, "velocity": 100}, {"time": 162720, "pitch": 52, "duration": 480, "velocity": 100}, {"time": 162720, "pitch": 55, "duration": 480, "velocity": 100}, {"time": 162720, "pitch": 59, "duration": 480, "velocity": 100}, {"time": 162720, "pitch": 64, "duration": 480, "velocity": 100}, {"time": 163200, "pitch": 40, "duration": 240, "velocity": 85}, {"time": 163200, "pitch": 47, "duration": 240, "velocity": 85}, {"time": 163200, "pitch": 52, "duration": 240, "velocity": 85}, {"time": 163200, "pitch": 55, "duration": 240, "velocity": 85}, {"time": 163200, "pitch": 59, "duration": 240, "velocity": 85}, {"time": 163200, "pitch": 64, "duration": 240, "velocity": 85}, {"time": 163440, "pitch": 40, "duration": 240, "velocity": 85}, {"time": 163440, "pitch": 47, "duration": 240, "velocity": 100}, {"time": 163440, "pitch": 52, "duration": 240, "velocity": 100}, {"time": 163440, "pitch": 55, "duration": 240, "velocity": 100}, {"time": 163440, "pitch": 59, "duration": 240, "velocity": 100}, {"time": 163440, "pitch": 64, "duration": 240, "velocity": 100}, {"time": 163680, "pitch": 40, "duration": 240, "velocity": 85}, {"time": 163680, "pitch": 47, "duration": 240, "velocity": 83}, {"time": 163680, "pitch": 52, "duration": 240, "velocity": 83}, {"time": 163680, "pitch": 55, "duration": 240, "velocity": 83}, {"time": 163680, "pitch": 59, "duration": 240, "velocity": 83}, {"time": 163680, "pitch": 64, "duration": 240, "velocity": 83}, {"time": 163920, "pitch": 50, "duration": 480, "velocity": 100}, {"time": 163920, "pitch": 57, "duration": 480, "velocity": 100}, {"time": 163920, "pitch": 60, "duration": 480, "velocity": 100}, {"time": 163920, "pitch": 65, "duration": 480, "velocity": 100}, {"time": 164400, "pitch": 50, "duration": 30, "velocity": 100}, {"time": 164400, "pitch": 57, "duration": 30, "velocity": 100}, {"time": 164400, "pitch": 60, "duration": 30, "velocity": 100}, {"time": 164640, "pitch": 43, "duration": 480, "velocity": 100}, {"time": 164640, "pitch": 47, "duration": 480, "velocity": 100}, {"time": 164640, "pitch": 50, "duration": 480, "velocity": 100}, {"time": 164640, "pitch": 55, "duration": 480, "velocity": 100}, {"time": 164640, "pitch": 62, "duration": 480, "velocity": 100}, {"time": 164640, "pitch": 67, "duration": 480, "velocity": 100}, {"time": 165120, "pitch": 43, "duration": 240, "velocity": 85}, {"time": 165120, "pitch": 47, "duration": 240, "velocity": 85}, {"time": 165120, "pitch": 50, "duration": 240, "velocity": 85}, {"time": 165120, "pitch": 55, "duration": 240, "velocity": 85}, {"time": 165120, "pitch": 62, "duration": 240, "velocity": 85}, {"time": 165120, "pitch": 67, "duration": 240, "velocity": 85}, {"time": 165360, "pitch": 41, "duration": 240, "velocity": 100}, {"time": 165360, "pitch": 47, "duration": 240, "velocity": 100}, {"time": 165360, "pitch": 50, "duration": 240, "velocity": 100}, {"time": 165360, "pitch": 55, "duration": 240, "velocity": 85}, {"time": 165360, "pitch": 62, "duration": 240, "velocity": 100}, {"time": 165360, "pitch": 67, "duration": 240, "velocity": 100}, {"time": 165600, "pitch": 41, "duration": 240, "velocity": 83}, {"time": 165600, "pitch": 47, "duration": 240, "velocity": 83}, {"time": 165600, "pitch": 50, "duration": 240, "velocity": 83}, {"time": 165600, "pitch": 55, "duration": 240, "velocity": 85}, {"time": 165600, "pitch": 62, "duration": 240, "velocity": 83}, {"time": 165600, "pitch": 67, "duration": 240, "velocity": 83}, {"time": 165840, "pitch": 40, "duration": 480, "velocity": 100}, {"time": 165840, "pitch": 47, "duration": 480, "velocity": 100}, {"time": 165840, "pitch": 52, "duration": 480, "velocity": 100}, {"time": 165840, "pitch": 55, "duration": 480, "velocity": 100}, {"time": 165840, "pitch": 59, "duration": 480, "velocity": 100}, {"time": 165840, "pitch": 64, "duration": 480, "velocity": 100}, {"time": 166320, "pitch": 40, "duration": 30, "velocity": 100}, {"time": 166320, "pitch": 47, "duration": 30, "velocity": 100}, {"time": 166320, "pitch": 52, "duration": 30, "velocity": 100}, {"time": 166560, "pitch": 40, "duration": 480, "velocity": 100}, {"time": 166560, "pitch": 47, "duration": 480, "velocity": 100}, {"time": 166560, "pitch": 52, "duration": 480, "velocity": 100}, {"time": 166560, "pitch": 55, "duration": 480, "velocity": 100}, {"time": 166560, "pitch": 59, "duration": 480, "velocity": 83}, {"time": 166560, "pitch": 64, "duration": 480, "velocity": 100}, {"time": 167040, "pitch": 40, "duration": 240, "velocity": 85}, {"time": 167040, "pitch": 47, "duration": 240, "velocity": 85}, {"time": 167040, "pitch": 52, "duration": 240, "velocity": 85}, {"time": 167040, "pitch": 55, "duration": 240, "velocity": 85}, {"time": 167040, "pitch": 59, "duration": 240, "velocity": 85}, {"time": 167040, "pitch": 64, "duration": 240, "velocity": 85}, {"time": 167280, "pitch": 40, "duration": 240, "velocity": 100}, {"time": 167280, "pitch": 47, "duration": 240, "velocity": 100}, {"time": 167280, "pitch": 52, "duration": 240, "velocity": 100}, {"time": 167280, "pitch": 55, "duration": 240, "velocity": 100}, {"time": 167280, "pitch": 59, "duration": 240, "velocity": 100}, {"time": 167280, "pitch": 64, "duration": 240, "velocity": 100}, {"time": 167520, "pitch": 40, "duration": 240, "velocity": 83}, {"time": 167520, "pitch": 47, "duration": 240, "velocity": 83}, {"time": 167520, "pitch": 52, "duration": 240, "velocity": 83}, {"time": 167520, "pitch": 55, "duration": 240, "velocity": 83}, {"time": 167520, "pitch": 59, "duration": 240, "velocity": 83}, {"time": 167520, "pitch": 64, "duration": 240, "velocity": 83}, {"time": 167760, "pitch": 45, "duration": 480, "velocity": 100}, {"time": 167760, "pitch": 52, "duration": 480, "velocity": 100}, {"time": 167760, "pitch": 57, "duration": 480, "velocity": 100}, {"time": 167760, "pitch": 60, "duration": 480, "velocity": 100}, {"time": 167760, "pitch": 64, "duration": 480, "velocity": 100}, {"time": 168240, "pitch": 45, "duration": 30, "velocity": 100}, {"time": 168240, "pitch": 52, "duration": 30, "velocity": 100}, {"time": 168240, "pitch": 57, "duration": 30, "velocity": 100}, {"time": 168480, "pitch": 43, "duration": 480, "velocity": 100}, {"time": 168480, "pitch": 47, "duration": 480, "velocity": 100}, {"time": 168480, "pitch": 50, "duration": 480, "velocity": 100}, {"time": 168480, "pitch": 55, "duration": 480, "velocity": 100}, {"time": 168480, "pitch": 62, "duration": 480, "velocity": 100}, {"time": 168480, "pitch": 67, "duration": 480, "velocity": 100}, {"time": 168960, "pitch": 43, "duration": 240, "velocity": 85}, {"time": 168960, "pitch": 47, "duration": 240, "velocity": 85}, {"time": 168960, "pitch": 50, "duration": 240, "velocity": 85}, {"time": 168960, "pitch": 55, "duration": 240, "velocity": 85}, {"time": 168960, "pitch": 62, "duration": 240, "velocity": 85}, {"time": 168960, "pitch": 67, "duration": 240, "velocity": 85}, {"time": 169200, "pitch": 43, "duration": 240, "velocity": 100}, {"time": 169200, "pitch": 47, "duration": 240, "velocity": 100}, {"time": 169200, "pitch": 50, "duration": 240, "velocity": 100}, {"time": 169200, "pitch": 55, "duration": 240, "velocity": 85}, {"time": 169200, "pitch": 62, "duration": 240, "velocity": 100}, {"time": 169200, "pitch": 67, "duration": 240, "velocity": 100}, {"time": 169440, "pitch": 43, "duration": 240, "velocity": 83}, {"time": 169440, "pitch": 47, "duration": 240, "velocity": 83}, {"time": 169440, "pitch": 50, "duration": 240, "velocity": 83}, {"time": 169440, "pitch": 55, "duration": 240, "velocity": 85}, {"time": 169440, "pitch": 62, "duration": 240, "velocity": 83}, {"time": 169440, "pitch": 67, "duration": 240, "velocity": 83}, {"time": 169680, "pitch": 50, "duration": 480, "velocity": 100}, {"time": 169680, "pitch": 57, "duration": 480, "velocity": 100}, {"time": 169680, "pitch": 60, "duration": 480, "velocity": 100}, {"time": 169680, "pitch": 65, "duration": 480, "velocity": 100}, {"time": 170160, "pitch": 50, "duration": 30, "velocity": 100}, {"time": 170160, "pitch": 57, "duration": 30, "velocity": 100}, {"time": 170160, "pitch": 60, "duration": 30, "velocity": 100}, {"time": 170400, "pitch": 50, "duration": 480, "velocity": 100}, {"time": 170400, "pitch": 57, "duration": 480, "velocity": 100}, {"time": 170400, "pitch": 60, "duration": 480, "velocity": 100}, {"time": 170400, "pitch": 65, "duration": 480, "velocity": 100}, {"time": 170880, "pitch": 50, "duration": 240, "velocity": 85}, {"time": 170880, "pitch": 57, "duration": 240, "velocity": 85}, {"time": 170880, "pitch": 60, "duration": 240, "velocity": 85}, {"time": 170880, "pitch": 65, "duration": 240, "velocity": 85}, {"time": 171120, "pitch": 50, "duration": 240, "velocity": 100}, {"time": 171120, "pitch": 57, "duration": 240, "velocity": 100}, {"time": 171120, "pitch": 60, "duration": 240, "velocity": 100}, {"time": 171120, "pitch": 65, "duration": 240, "velocity": 100}, {"time": 171360, "pitch": 50, "duration": 240, "velocity": 83}, {"time": 171360, "pitch": 57, "duration": 240, "velocity": 83}, {"time": 171360, "pitch": 60, "duration": 240, "velocity": 83}, {"time": 171360, "pitch": 65, "duration": 240, "velocity": 83}, {"time": 171600, "pitch": 43, "duration": 480, "velocity": 100}, {"time": 171600, "pitch": 50, "duration": 480, "velocity": 100}, {"time": 171600, "pitch": 57, "duration": 480, "velocity": 100}, {"time": 171600, "pitch": 60, "duration": 480, "velocity": 100}, {"time": 171600, "pitch": 65, "duration": 480, "velocity": 100}, {"time": 172080, "pitch": 43, "duration": 480, "velocity": 100}, {"time": 172080, "pitch": 50, "duration": 480, "velocity": 100}, {"time": 172080, "pitch": 57, "duration": 480, "velocity": 100}, {"time": 172080, "pitch": 60, "duration": 480, "velocity": 100}, {"time": 172080, "pitch": 65, "duration": 480, "velocity": 100}, {"time": 172560, "pitch": 43, "duration": 480, "velocity": 99}, {"time": 172560, "pitch": 50, "duration": 480, "velocity": 99}, {"time": 172560, "pitch": 57, "duration": 480, "velocity": 99}, {"time": 172560, "pitch": 60, "duration": 480, "velocity": 99}, {"time": 172560, "pitch": 65, "duration": 480, "velocity": 99}, {"time": 173040, "pitch": 43, "duration": 480, "velocity": 100}, {"time": 173040, "pitch": 50, "duration": 480, "velocity": 100}, {"time": 173040, "pitch": 57, "duration": 480, "velocity": 100}, {"time": 173040, "pitch": 60, "duration": 480, "velocity": 100}, {"time": 173040, "pitch": 65, "duration": 480, "velocity": 100}, {"time": 173520, "pitch": 41, "duration": 480, "velocity": 100}, {"time": 173520, "pitch": 48, "duration": 480, "velocity": 100}, {"time": 173520, "pitch": 53, "duration": 480, "velocity": 100}, {"time": 173520, "pitch": 56, "duration": 480, "velocity": 100}, {"time": 173520, "pitch": 60, "duration": 480, "velocity": 100}, {"time": 173520, "pitch": 65, "duration": 480, "velocity": 100}, {"time": 174000, "pitch": 41, "duration": 30, "velocity": 100}, {"time": 174000, "pitch": 48, "duration": 30, "velocity": 100}, {"time": 174000, "pitch": 53, "duration": 30, "velocity": 100}, {"time": 174240, "pitch": 41, "duration": 480, "velocity": 100}, {"time": 174240, "pitch": 48, "duration": 480, "velocity": 100}, {"time": 174240, "pitch": 53, "duration": 480, "velocity": 100}, {"time": 174240, "pitch": 56, "duration": 480, "velocity": 100}, {"time": 174240, "pitch": 60, "duration": 480, "velocity": 83}, {"time": 174240, "pitch": 65, "duration": 480, "velocity": 100}, {"time": 174720, "pitch": 41, "duration": 240, "velocity": 85}, {"time": 174720, "pitch": 48, "duration": 240, "velocity": 85}, {"time": 174720, "pitch": 53, "duration": 240, "velocity": 85}, {"time": 174720, "pitch": 56, "duration": 240, "velocity": 85}, {"time": 174720, "pitch": 60, "duration": 240, "velocity": 85}, {"time": 174720, "pitch": 65, "duration": 240, "velocity": 85}, {"time": 174960, "pitch": 41, "duration": 240, "velocity": 100}, {"time": 174960, "pitch": 48, "duration": 240, "velocity": 100}, {"time": 174960, "pitch": 53, "duration": 240, "velocity": 100}, {"time": 174960, "pitch": 56, "duration": 240, "velocity": 100}, {"time": 174960, "pitch": 60, "duration": 240, "velocity": 100}, {"time": 174960, "pitch": 65, "duration": 240, "velocity": 100}, {"time": 175200, "pitch": 41, "duration": 240, "velocity": 83}, {"time": 175200, "pitch": 48, "duration": 240, "velocity": 83}, {"time": 175200, "pitch": 53, "duration": 240, "velocity": 83}, {"time": 175200, "pitch": 56, "duration": 240, "velocity": 83}, {"time": 175200, "pitch": 60, "duration": 240, "velocity": 83}, {"time": 175200, "pitch": 65, "duration": 240, "velocity": 83}, {"time": 175440, "pitch": 43, "duration": 480, "velocity": 100}, {"time": 175440, "pitch": 50, "duration": 480, "velocity": 100}, {"time": 175440, "pitch": 55, "duration": 480, "velocity": 100}, {"time": 175440, "pitch": 58, "duration": 480, "velocity": 100}, {"time": 175440, "pitch": 62, "duration": 480, "velocity": 100}, {"time": 175440, "pitch": 67, "duration": 480, "velocity": 100}, {"time": 175920, "pitch": 43, "duration": 30, "velocity": 100}, {"time": 175920, "pitch": 50, "duration": 30, "velocity": 100}, {"time": 175920, "pitch": 55, "duration": 30, "velocity": 100}, {"time": 176160, "pitch": 43, "duration": 480, "velocity": 100}, {"time": 176160, "pitch": 50, "duration": 480, "velocity": 100}, {"time": 176160, "pitch": 55, "duration": 480, "velocity": 100}, {"time": 176160, "pitch": 58, "duration": 480, "velocity": 100}, {"time": 176160, "pitch": 62, "duration": 480, "velocity": 83}, {"time": 176160, "pitch": 67, "duration": 480, "velocity": 100}, {"time": 176640, "pitch": 43, "duration": 240, "velocity": 85}, {"time": 176640, "pitch": 50, "duration": 240, "velocity": 85}, {"time": 176640, "pitch": 55, "duration": 240, "velocity": 85}, {"time": 176640, "pitch": 58, "duration": 240, "velocity": 85}, {"time": 176640, "pitch": 62, "duration": 240, "velocity": 85}, {"time": 176640, "pitch": 67, "duration": 240, "velocity": 85}, {"time": 176880, "pitch": 43, "duration": 240, "velocity": 100}, {"time": 176880, "pitch": 50, "duration": 240, "velocity": 100}, {"time": 176880, "pitch": 55, "duration": 240, "velocity": 100}, {"time": 176880, "pitch": 58, "duration": 240, "velocity": 100}, {"time": 176880, "pitch": 62, "duration": 240, "velocity": 100}, {"time": 176880, "pitch": 67, "duration": 240, "velocity": 100}, {"time": 177120, "pitch": 43, "duration": 240, "velocity": 83}, {"time": 177120, "pitch": 50, "duration": 240, "velocity": 83}, {"time": 177120, "pitch": 55, "duration": 240, "velocity": 83}, {"time": 177120, "pitch": 58, "duration": 240, "velocity": 83}, {"time": 177120, "pitch": 62, "duration": 240, "velocity": 83}, {"time": 177120, "pitch": 67, "duration": 240, "velocity": 83}, {"time": 177360, "pitch": 48, "duration": 480, "velocity": 100}, {"time": 177360, "pitch": 52, "duration": 480, "velocity": 100}, {"time": 177360, "pitch": 55, "duration": 480, "velocity": 100}, {"time": 177360, "pitch": 60, "duration": 480, "velocity": 100}, {"time": 177360, "pitch": 64, "duration": 480, "velocity": 100}, {"time": 177840, "pitch": 48, "duration": 30, "velocity": 100}, {"time": 177840, "pitch": 52, "duration": 30, "velocity": 100}, {"time": 177840, "pitch": 55, "duration": 30, "velocity": 100}, {"time": 178080, "pitch": 48, "duration": 480, "velocity": 100}, {"time": 178080, "pitch": 52, "duration": 480, "velocity": 100}, {"time": 178080, "pitch": 55, "duration": 480, "velocity": 100}, {"time": 178080, "pitch": 60, "duration": 480, "velocity": 100}, {"time": 178080, "pitch": 64, "duration": 480, "velocity": 100}, {"time": 178560, "pitch": 48, "duration": 240, "velocity": 85}, {"time": 178560, "pitch": 52, "duration": 240, "velocity": 85}, {"time": 178560, "pitch": 55, "duration": 240, "velocity": 85}, {"time": 178560, "pitch": 60, "duration": 240, "velocity": 85}, {"time": 178560, "pitch": 64, "duration": 240, "velocity": 85}, {"time": 178800, "pitch": 48, "duration": 240, "velocity": 100}, {"time": 178800, "pitch": 52, "duration": 240, "velocity": 100}, {"time": 178800, "pitch": 55, "duration": 240, "velocity": 100}, {"time": 178800, "pitch": 60, "duration": 240, "velocity": 100}, {"time": 178800, "pitch": 64, "duration": 240, "velocity": 100}, {"time": 179040, "pitch": 48, "duration": 480, "velocity": 99}, {"time": 179040, "pitch": 52, "duration": 480, "velocity": 99}, {"time": 179040, "pitch": 55, "duration": 480, "velocity": 99}, {"time": 179040, "pitch": 60, "duration": 480, "velocity": 99}, {"time": 179040, "pitch": 65, "duration": 480, "velocity": 99}, {"time": 179520, "pitch": 48, "duration": 480, "velocity": 100}, {"time": 179520, "pitch": 52, "duration": 480, "velocity": 100}, {"time": 179520, "pitch": 55, "duration": 480, "velocity": 100}, {"time": 179520, "pitch": 60, "duration": 480, "velocity": 100}, {"time": 179520, "pitch": 65, "duration": 480, "velocity": 100}, {"time": 180000, "pitch": 48, "duration": 480, "velocity": 100}, {"time": 180000, "pitch": 52, "duration": 480, "velocity": 100}, {"time": 180000, "pitch": 55, "duration": 480, "velocity": 100}, {"time": 180000, "pitch": 60, "duration": 480, "velocity": 100}, {"time": 180000, "pitch": 64, "duration": 480, "velocity": 100}, {"time": 180480, "pitch": 48, "duration": 240, "velocity": 100}, {"time": 180480, "pitch": 52, "duration": 240, "velocity": 100}, {"time": 180480, "pitch": 55, "duration": 240, "velocity": 100}, {"time": 180480, "pitch": 60, "duration": 240, "velocity": 100}, {"time": 180480, "pitch": 64, "duration": 240, "velocity": 100}, {"time": 180720, "pitch": 48, "duration": 240, "velocity": 92}, {"time": 180720, "pitch": 52, "duration": 240, "velocity": 92}, {"time": 180720, "pitch": 55, "duration": 240, "velocity": 92}, {"time": 180720, "pitch": 60, "duration": 240, "velocity": 92}, {"time": 180720, "pitch": 64, "duration": 240, "velocity": 92}, {"time": 180960, "pitch": 48, "duration": 240, "velocity": 96}, {"time": 180960, "pitch": 52, "duration": 240, "velocity": 96}, {"time": 180960, "pitch": 55, "duration": 240, "velocity": 96}, {"time": 180960, "pitch": 60, "duration": 240, "velocity": 96}, {"time": 180960, "pitch": 64, "duration": 240, "velocity": 96}, {"time": 181200, "pitch": 41, "duration": 480, "velocity": 100}, {"time": 181200, "pitch": 48, "duration": 480, "velocity": 100}, {"time": 181200, "pitch": 53, "duration": 480, "velocity": 100}, {"time": 181200, "pitch": 56, "duration": 480, "velocity": 100}, {"time": 181200, "pitch": 60, "duration": 480, "velocity": 100}, {"time": 181200, "pitch": 65, "duration": 480, "velocity": 100}, {"time": 181680, "pitch": 41, "duration": 30, "velocity": 100}, {"time": 181680, "pitch": 48, "duration": 30, "velocity": 100}, {"time": 181680, "pitch": 53, "duration": 30, "velocity": 100}, {"time": 181920, "pitch": 41, "duration": 480, "velocity": 100}, {"time": 181920, "pitch": 48, "duration": 480, "velocity": 100}, {"time": 181920, "pitch": 53, "duration": 480, "velocity": 100}, {"time": 181920, "pitch": 56, "duration": 480, "velocity": 100}, {"time": 181920, "pitch": 60, "duration": 480, "velocity": 83}, {"time": 181920, "pitch": 65, "duration": 480, "velocity": 100}, {"time": 182400, "pitch": 41, "duration": 240, "velocity": 85}, {"time": 182400, "pitch": 48, "duration": 240, "velocity": 85}, {"time": 182400, "pitch": 53, "duration": 240, "velocity": 85}, {"time": 182400, "pitch": 56, "duration": 240, "velocity": 85}, {"time": 182400, "pitch": 60, "duration": 240, "velocity": 85}, {"time": 182400, "pitch": 65, "duration": 240, "velocity": 85}, {"time": 182640, "pitch": 41, "duration": 240, "velocity": 100}, {"time": 182640, "pitch": 48, "duration": 240, "velocity": 100}, {"time": 182640, "pitch": 53, "duration": 240, "velocity": 100}, {"time": 182640, "pitch": 56, "duration": 240, "velocity": 100}, {"time": 182640, "pitch": 60, "duration": 240, "velocity": 100}, {"time": 182640, "pitch": 65, "duration": 240, "velocity": 100}, {"time": 182880, "pitch": 41, "duration": 240, "velocity": 83}, {"time": 182880, "pitch": 48, "duration": 240, "velocity": 83}, {"time": 182880, "pitch": 53, "duration": 240, "velocity": 83}, {"time": 182880, "pitch": 56, "duration": 240, "velocity": 83}, {"time": 182880, "pitch": 60, "duration": 240, "velocity": 83}, {"time": 182880, "pitch": 65, "duration": 240, "velocity": 83}, {"time": 183120, "pitch": 43, "duration": 480, "velocity": 100}, {"time": 183120, "pitch": 50, "duration": 480, "velocity": 100}, {"time": 183120, "pitch": 55, "duration": 480, "velocity": 100}, {"time": 183120, "pitch": 58, "duration": 480, "velocity": 100}, {"time": 183120, "pitch": 62, "duration": 480, "velocity": 100}, {"time": 183120, "pitch": 67, "duration": 480, "velocity": 100}, {"time": 183600, "pitch": 43, "duration": 30, "velocity": 100}, {"time": 183600, "pitch": 50, "duration": 30, "velocity": 100}, {"time": 183600, "pitch": 55, "duration": 30, "velocity": 100}, {"time": 183840, "pitch": 43, "duration": 480, "velocity": 100}, {"time": 183840, "pitch": 50, "duration": 480, "velocity": 100}, {"time": 183840, "pitch": 55, "duration": 480, "velocity": 100}, {"time": 183840, "pitch": 58, "duration": 480, "velocity": 100}, {"time": 183840, "pitch": 62, "duration": 480, "velocity": 83}, {"time": 183840, "pitch": 67, "duration": 480, "velocity": 100}, {"time": 184320, "pitch": 43, "duration": 240, "velocity": 85}, {"time": 184320, "pitch": 50, "duration": 240, "velocity": 85}, {"time": 184320, "pitch": 55, "duration": 240, "velocity": 85}, {"time": 184320, "pitch": 58, "duration": 240, "velocity": 85}, {"time": 184320, "pitch": 62, "duration": 240, "velocity": 85}, {"time": 184320, "pitch": 67, "duration": 240, "velocity": 85}, {"time": 184560, "pitch": 43, "duration": 240, "velocity": 100}, {"time": 184560, "pitch": 50, "duration": 240, "velocity": 100}, {"time": 184560, "pitch": 55, "duration": 240, "velocity": 100}, {"time": 184560, "pitch": 58, "duration": 240, "velocity": 100}, {"time": 184560, "pitch": 62, "duration": 240, "velocity": 100}, {"time": 184560, "pitch": 67, "duration": 240, "velocity": 100}, {"time": 184800, "pitch": 43, "duration": 240, "velocity": 83}, {"time": 184800, "pitch": 50, "duration": 240, "velocity": 83}, {"time": 184800, "pitch": 55, "duration": 240, "velocity": 83}, {"time": 184800, "pitch": 58, "duration": 240, "velocity": 83}, {"time": 184800, "pitch": 62, "duration": 240, "velocity": 83}, {"time": 184800, "pitch": 67, "duration": 240, "velocity": 83}, {"time": 185040, "pitch": 50, "duration": 480, "velocity": 100}, {"time": 185040, "pitch": 57, "duration": 480, "velocity": 100}, {"time": 185040, "pitch": 60, "duration": 480, "velocity": 100}, {"time": 185040, "pitch": 65, "duration": 480, "velocity": 100}, {"time": 185520, "pitch": 50, "duration": 30, "velocity": 100}, {"time": 185520, "pitch": 57, "duration": 30, "velocity": 100}, {"time": 185520, "pitch": 60, "duration": 30, "velocity": 100}, {"time": 185760, "pitch": 50, "duration": 480, "velocity": 100}, {"time": 185760, "pitch": 57, "duration": 480, "velocity": 100}, {"time": 185760, "pitch": 60, "duration": 480, "velocity": 100}, {"time": 185760, "pitch": 65, "duration": 480, "velocity": 100}, {"time": 186240, "pitch": 50, "duration": 240, "velocity": 85}, {"time": 186240, "pitch": 57, "duration": 240, "velocity": 85}, {"time": 186240, "pitch": 60, "duration": 240, "velocity": 85}, {"time": 186240, "pitch": 65, "duration": 240, "velocity": 85}, {"time": 186480, "pitch": 50, "duration": 240, "velocity": 100}, {"time": 186480, "pitch": 57, "duration": 240, "velocity": 100}, {"time": 186480, "pitch": 60, "duration": 240, "velocity": 100}, {"time": 186480, "pitch": 65, "duration": 240, "velocity": 100}, {"time": 186720, "pitch": 43, "duration": 720, "velocity": 100}, {"time": 186720, "pitch": 50, "duration": 720, "velocity": 100}, {"time": 186720, "pitch": 57, "duration": 720, "velocity": 100}, {"time": 186720, "pitch": 60, "duration": 720, "velocity": 100}, {"time": 186720, "pitch": 65, "duration": 720, "velocity": 100}, {"time": 187440, "pitch": 43, "duration": 480, "velocity": 100}, {"time": 187440, "pitch": 50, "duration": 480, "velocity": 100}, {"time": 187440, "pitch": 57, "duration": 480, "velocity": 100}, {"time": 187440, "pitch": 60, "duration": 480, "velocity": 100}, {"time": 187440, "pitch": 65, "duration": 480, "velocity": 100}, {"time": 187920, "pitch": 43, "duration": 480, "velocity": 99}, {"time": 187920, "pitch": 50, "duration": 480, "velocity": 99}, {"time": 187920, "pitch": 57, "duration": 480, "velocity": 99}, {"time": 187920, "pitch": 60, "duration": 480, "velocity": 99}, {"time": 187920, "pitch": 65, "duration": 480, "velocity": 99}, {"time": 188400, "pitch": 43, "duration": 480, "velocity": 100}, {"time": 188400, "pitch": 50, "duration": 480, "velocity": 100}, {"time": 188400, "pitch": 57, "duration": 480, "velocity": 100}, {"time": 188400, "pitch": 60, "duration": 480, "velocity": 100}, {"time": 188400, "pitch": 65, "duration": 480, "velocity": 100}, {"time": 188880, "pitch": 64, "duration": 720, "velocity": 102}, {"time": 189120, "pitch": 60, "duration": 720, "velocity": 102}, {"time": 189360, "pitch": 55, "duration": 720, "velocity": 102}, {"time": 189600, "pitch": 62, "duration": 720, "velocity": 102}, {"time": 189840, "pitch": 59, "duration": 720, "velocity": 102}, {"time": 190080, "pitch": 55, "duration": 720, "velocity": 102}, {"time": 190320, "pitch": 47, "duration": 480, "velocity": 102}, {"time": 190800, "pitch": 60, "duration": 720, "velocity": 102}, {"time": 191040, "pitch": 57, "duration": 720, "velocity": 102}, {"time": 191280, "pitch": 52, "duration": 720, "velocity": 102}, {"time": 191520, "pitch": 59, "duration": 720, "velocity": 102}, {"time": 191760, "pitch": 55, "duration": 720, "velocity": 102}, {"time": 192000, "pitch": 50, "duration": 720, "velocity": 102}, {"time": 192240, "pitch": 43, "duration": 480, "velocity": 102}, {"time": 192720, "pitch": 60, "duration": 480, "velocity": 102}, {"time": 192960, "pitch": 57, "duration": 720, "velocity": 102}, {"time": 193200, "pitch": 60, "duration": 480, "velocity": 102}, {"time": 193440, "pitch": 64, "duration": 480, "velocity": 102}, {"time": 193680, "pitch": 60, "duration": 480, "velocity": 102}, {"time": 193920, "pitch": 55, "duration": 480, "velocity": 102}, {"time": 194160, "pitch": 52, "duration": 480, "velocity": 102}, {"time": 194640, "pitch": 65, "duration": 480, "velocity": 102}, {"time": 194880, "pitch": 60, "duration": 480, "velocity": 102}, {"time": 195120, "pitch": 57, "duration": 480, "velocity": 102}, {"time": 195360, "pitch": 65, "duration": 480, "velocity": 102}, {"time": 195600, "pitch": 60, "duration": 480, "velocity": 102}, {"time": 195840, "pitch": 57, "duration": 480, "velocity": 102}, {"time": 196080, "pitch": 53, "duration": 480, "velocity": 102}, {"time": 196560, "pitch": 40, "duration": 480, "velocity": 102}, {"time": 196800, "pitch": 47, "duration": 480, "velocity": 102}, {"time": 197040, "pitch": 52, "duration": 480, "velocity": 102}, {"time": 197280, "pitch": 59, "duration": 1200, "velocity": 102}, {"time": 197280, "pitch": 64, "duration": 1200, "velocity": 102}, {"time": 198480, "pitch": 45, "duration": 480, "velocity": 102}, {"time": 198480, "pitch": 52, "duration": 480, "velocity": 102}, {"time": 198480, "pitch": 60, "duration": 480, "velocity": 102}, {"time": 198480, "pitch": 64, "duration": 480, "velocity": 102}, {"time": 199200, "pitch": 45, "duration": 720, "velocity": 102}, {"time": 199200, "pitch": 52, "duration": 720, "velocity": 102}, {"time": 199200, "pitch": 60, "duration": 720, "velocity": 102}, {"time": 199200, "pitch": 64, "duration": 720, "velocity": 102}, {"time": 199920, "pitch": 45, "duration": 480, "velocity": 88}, {"time": 199920, "pitch": 52, "duration": 480, "velocity": 88}, {"time": 199920, "pitch": 60, "duration": 480, "velocity": 88}, {"time": 200400, "pitch": 50, "duration": 480, "velocity": 102}, {"time": 200400, "pitch": 57, "duration": 480, "velocity": 102}, {"time": 200400, "pitch": 62, "duration": 480, "velocity": 102}, {"time": 200400, "pitch": 65, "duration": 480, "velocity": 102}, {"time": 200400, "pitch": 69, "duration": 480, "velocity": 102}, {"time": 201120, "pitch": 50, "duration": 720, "velocity": 102}, {"time": 201120, "pitch": 57, "duration": 720, "velocity": 102}, {"time": 201120, "pitch": 62, "duration": 720, "velocity": 102}, {"time": 201120, "pitch": 65, "duration": 720, "velocity": 102}, {"time": 201120, "pitch": 69, "duration": 720, "velocity": 102}, {"time": 201840, "pitch": 50, "duration": 480, "velocity": 102}, {"time": 201840, "pitch": 57, "duration": 480, "velocity": 102}, {"time": 201840, "pitch": 62, "duration": 480, "velocity": 102}, {"time": 201840, "pitch": 65, "duration": 480, "velocity": 102}, {"time": 201840, "pitch": 69, "duration": 480, "velocity": 102}, {"time": 202320, "pitch": 43, "duration": 480, "velocity": 100}, {"time": 202320, "pitch": 50, "duration": 480, "velocity": 100}, {"time": 202320, "pitch": 57, "duration": 480, "velocity": 100}, {"time": 202320, "pitch": 60, "duration": 480, "velocity": 100}, {"time": 202320, "pitch": 65, "duration": 480, "velocity": 100}, {"time": 202800, "pitch": 43, "duration": 480, "velocity": 100}, {"time": 202800, "pitch": 50, "duration": 480, "velocity": 100}, {"time": 202800, "pitch": 57, "duration": 480, "velocity": 100}, {"time": 202800, "pitch": 60, "duration": 480, "velocity": 100}, {"time": 202800, "pitch": 65, "duration": 480, "velocity": 100}, {"time": 203280, "pitch": 43, "duration": 480, "velocity": 99}, {"time": 203280, "pitch": 50, "duration": 480, "velocity": 99}, {"time": 203280, "pitch": 57, "duration": 480, "velocity": 99}, {"time": 203280, "pitch": 60, "duration": 480, "velocity": 99}, {"time": 203280, "pitch": 65, "duration": 480, "velocity": 99}, {"time": 203760, "pitch": 43, "duration": 480, "velocity": 100}, {"time": 203760, "pitch": 50, "duration": 480, "velocity": 100}, {"time": 203760, "pitch": 57, "duration": 480, "velocity": 100}, {"time": 203760, "pitch": 60, "duration": 480, "velocity": 100}, {"time": 203760, "pitch": 65, "duration": 480, "velocity": 100}, {"time": 204240, "pitch": 48, "duration": 480, "velocity": 100}, {"time": 204240, "pitch": 52, "duration": 480, "velocity": 100}, {"time": 204240, "pitch": 55, "duration": 480, "velocity": 100}, {"time": 204240, "pitch": 60, "duration": 480, "velocity": 100}, {"time": 204240, "pitch": 64, "duration": 480, "velocity": 100}, {"time": 204720, "pitch": 48, "duration": 30, "velocity": 100}, {"time": 204720, "pitch": 52, "duration": 30, "velocity": 100}, {"time": 204720, "pitch": 55, "duration": 30, "velocity": 100}, {"time": 204960, "pitch": 47, "duration": 480, "velocity": 100}, {"time": 204960, "pitch": 50, "duration": 480, "velocity": 100}, {"time": 204960, "pitch": 55, "duration": 480, "velocity": 100}, {"time": 204960, "pitch": 62, "duration": 480, "velocity": 100}, {"time": 204960, "pitch": 67, "duration": 480, "velocity": 100}, {"time": 205440, "pitch": 47, "duration": 240, "velocity": 85}, {"time": 205440, "pitch": 50, "duration": 240, "velocity": 85}, {"time": 205440, "pitch": 55, "duration": 240, "velocity": 85}, {"time": 205440, "pitch": 62, "duration": 240, "velocity": 85}, {"time": 205440, "pitch": 67, "duration": 240, "velocity": 85}, {"time": 205680, "pitch": 47, "duration": 240, "velocity": 100}, {"time": 205680, "pitch": 50, "duration": 240, "velocity": 100}, {"time": 205680, "pitch": 55, "duration": 240, "velocity": 100}, {"time": 205680, "pitch": 62, "duration": 240, "velocity": 100}, {"time": 205680, "pitch": 67, "duration": 240, "velocity": 100}, {"time": 205920, "pitch": 47, "duration": 240, "velocity": 83}, {"time": 205920, "pitch": 50, "duration": 240, "velocity": 83}, {"time": 205920, "pitch": 55, "duration": 240, "velocity": 83}, {"time": 205920, "pitch": 62, "duration": 240, "velocity": 83}, {"time": 205920, "pitch": 67, "duration": 240, "velocity": 83}, {"time": 206160, "pitch": 45, "duration": 480, "velocity": 100}, {"time": 206160, "pitch": 52, "duration": 480, "velocity": 100}, {"time": 206160, "pitch": 57, "duration": 480, "velocity": 100}, {"time": 206160, "pitch": 60, "duration": 480, "velocity": 100}, {"time": 206160, "pitch": 64, "duration": 480, "velocity": 100}, {"time": 206640, "pitch": 45, "duration": 30, "velocity": 100}, {"time": 206640, "pitch": 52, "duration": 30, "velocity": 100}, {"time": 206640, "pitch": 57, "duration": 30, "velocity": 100}, {"time": 206880, "pitch": 43, "duration": 480, "velocity": 100}, {"time": 206880, "pitch": 47, "duration": 480, "velocity": 100}, {"time": 206880, "pitch": 50, "duration": 480, "velocity": 100}, {"time": 206880, "pitch": 55, "duration": 480, "velocity": 100}, {"time": 206880, "pitch": 62, "duration": 480, "velocity": 100}, {"time": 206880, "pitch": 67, "duration": 480, "velocity": 100}, {"time": 207360, "pitch": 43, "duration": 240, "velocity": 85}, {"time": 207360, "pitch": 47, "duration": 240, "velocity": 85}, {"time": 207360, "pitch": 50, "duration": 240, "velocity": 85}, {"time": 207360, "pitch": 55, "duration": 240, "velocity": 85}, {"time": 207360, "pitch": 62, "duration": 240, "velocity": 85}, {"time": 207360, "pitch": 67, "duration": 240, "velocity": 85}, {"time": 207600, "pitch": 43, "duration": 240, "velocity": 100}, {"time": 207600, "pitch": 47, "duration": 240, "velocity": 100}, {"time": 207600, "pitch": 50, "duration": 240, "velocity": 100}, {"time": 207600, "pitch": 55, "duration": 240, "velocity": 85}, {"time": 207600, "pitch": 62, "duration": 240, "velocity": 100}, {"time": 207600, "pitch": 67, "duration": 240, "velocity": 100}, {"time": 207840, "pitch": 43, "duration": 240, "velocity": 83}, {"time": 207840, "pitch": 47, "duration": 240, "velocity": 83}, {"time": 207840, "pitch": 50, "duration": 240, "velocity": 83}, {"time": 207840, "pitch": 55, "duration": 240, "velocity": 85}, {"time": 207840, "pitch": 62, "duration": 240, "velocity": 83}, {"time": 207840, "pitch": 67, "duration": 240, "velocity": 83}, {"time": 208080, "pitch": 41, "duration": 480, "velocity": 100}, {"time": 208080, "pitch": 48, "duration": 480, "velocity": 100}, {"time": 208080, "pitch": 53, "duration": 480, "velocity": 100}, {"time": 208080, "pitch": 57, "duration": 480, "velocity": 100}, {"time": 208080, "pitch": 60, "duration": 480, "velocity": 100}, {"time": 208080, "pitch": 65, "duration": 480, "velocity": 100}, {"time": 208560, "pitch": 41, "duration": 30, "velocity": 100}, {"time": 208560, "pitch": 48, "duration": 30, "velocity": 100}, {"time": 208560, "pitch": 53, "duration": 30, "velocity": 100}, {"time": 208800, "pitch": 40, "duration": 480, "velocity": 100}, {"time": 208800, "pitch": 47, "duration": 480, "velocity": 100}, {"time": 208800, "pitch": 52, "duration": 480, "velocity": 100}, {"time": 208800, "pitch": 55, "duration": 480, "velocity": 100}, {"time": 208800, "pitch": 59, "duration": 480, "velocity": 100}, {"time": 208800, "pitch": 64, "duration": 480, "velocity": 100}, {"time": 209280, "pitch": 40, "duration": 240, "velocity": 85}, {"time": 209280, "pitch": 47, "duration": 240, "velocity": 85}, {"time": 209280, "pitch": 52, "duration": 240, "velocity": 85}, {"time": 209280, "pitch": 55, "duration": 240, "velocity": 85}, {"time": 209280, "pitch": 59, "duration": 240, "velocity": 85}, {"time": 209280, "pitch": 64, "duration": 240, "velocity": 85}, {"time": 209520, "pitch": 40, "duration": 240, "velocity": 85}, {"time": 209520, "pitch": 47, "duration": 240, "velocity": 100}, {"time": 209520, "pitch": 52, "duration": 240, "velocity": 100}, {"time": 209520, "pitch": 55, "duration": 240, "velocity": 100}, {"time": 209520, "pitch": 59, "duration": 240, "velocity": 100}, {"time": 209520, "pitch": 64, "duration": 240, "velocity": 100}, {"time": 209760, "pitch": 40, "duration": 240, "velocity": 85}, {"time": 209760, "pitch": 47, "duration": 240, "velocity": 83}, {"time": 209760, "pitch": 52, "duration": 240, "velocity": 83}, {"time": 209760, "pitch": 55, "duration": 240, "velocity": 83}, {"time": 209760, "pitch": 59, "duration": 240, "velocity": 83}, {"time": 209760, "pitch": 64, "duration": 240, "velocity": 83}, {"time": 210000, "pitch": 50, "duration": 480, "velocity": 100}, {"time": 210000, "pitch": 57, "duration": 480, "velocity": 100}, {"time": 210000, "pitch": 60, "duration": 480, "velocity": 100}, {"time": 210000, "pitch": 65, "duration": 480, "velocity": 100}, {"time": 210480, "pitch": 50, "duration": 30, "velocity": 100}, {"time": 210480, "pitch": 57, "duration": 30, "velocity": 100}, {"time": 210480, "pitch": 60, "duration": 30, "velocity": 100}, {"time": 210720, "pitch": 43, "duration": 480, "velocity": 100}, {"time": 210720, "pitch": 47, "duration": 480, "velocity": 100}, {"time": 210720, "pitch": 50, "duration": 480, "velocity": 100}, {"time": 210720, "pitch": 55, "duration": 480, "velocity": 100}, {"time": 210720, "pitch": 62, "duration": 480, "velocity": 100}, {"time": 210720, "pitch": 67, "duration": 480, "velocity": 100}, {"time": 211200, "pitch": 43, "duration": 240, "velocity": 85}, {"time": 211200, "pitch": 47, "duration": 240, "velocity": 85}, {"time": 211200, "pitch": 50, "duration": 240, "velocity": 85}, {"time": 211200, "pitch": 55, "duration": 240, "velocity": 85}, {"time": 211200, "pitch": 62, "duration": 240, "velocity": 85}, {"time": 211200, "pitch": 67, "duration": 240, "velocity": 85}, {"time": 211440, "pitch": 41, "duration": 240, "velocity": 100}, {"time": 211440, "pitch": 47, "duration": 240, "velocity": 100}, {"time": 211440, "pitch": 50, "duration": 240, "velocity": 100}, {"time": 211440, "pitch": 55, "duration": 240, "velocity": 85}, {"time": 211440, "pitch": 62, "duration": 240, "velocity": 100}, {"time": 211440, "pitch": 67, "duration": 240, "velocity": 100}, {"time": 211680, "pitch": 41, "duration": 240, "velocity": 83}, {"time": 211680, "pitch": 47, "duration": 240, "velocity": 83}, {"time": 211680, "pitch": 50, "duration": 240, "velocity": 83}, {"time": 211680, "pitch": 55, "duration": 240, "velocity": 85}, {"time": 211680, "pitch": 62, "duration": 240, "velocity": 83}, {"time": 211680, "pitch": 67, "duration": 240, "velocity": 83}, {"time": 211920, "pitch": 40, "duration": 480, "velocity": 100}, {"time": 211920, "pitch": 47, "duration": 480, "velocity": 100}, {"time": 211920, "pitch": 52, "duration": 480, "velocity": 100}, {"time": 211920, "pitch": 55, "duration": 480, "velocity": 100}, {"time": 211920, "pitch": 59, "duration": 480, "velocity": 100}, {"time": 211920, "pitch": 64, "duration": 480, "velocity": 100}, {"time": 212400, "pitch": 40, "duration": 30, "velocity": 100}, {"time": 212400, "pitch": 47, "duration": 30, "velocity": 100}, {"time": 212400, "pitch": 52, "duration": 30, "velocity": 100}, {"time": 212640, "pitch": 40, "duration": 480, "velocity": 100}, {"time": 212640, "pitch": 47, "duration": 480, "velocity": 100}, {"time": 212640, "pitch": 52, "duration": 480, "velocity": 100}, {"time": 212640, "pitch": 55, "duration": 480, "velocity": 100}, {"time": 212640, "pitch": 59, "duration": 480, "velocity": 83}, {"time": 212640, "pitch": 64, "duration": 480, "velocity": 100}, {"time": 213120, "pitch": 40, "duration": 240, "velocity": 85}, {"time": 213120, "pitch": 47, "duration": 240, "velocity": 85}, {"time": 213120, "pitch": 52, "duration": 240, "velocity": 85}, {"time": 213120, "pitch": 55, "duration": 240, "velocity": 85}, {"time": 213120, "pitch": 59, "duration": 240, "velocity": 85}, {"time": 213120, "pitch": 64, "duration": 240, "velocity": 85}, {"time": 213360, "pitch": 40, "duration": 240, "velocity": 100}, {"time": 213360, "pitch": 47, "duration": 240, "velocity": 100}, {"time": 213360, "pitch": 52, "duration": 240, "velocity": 100}, {"time": 213360, "pitch": 55, "duration": 240, "velocity": 100}, {"time": 213360, "pitch": 59, "duration": 240, "velocity": 100}, {"time": 213360, "pitch": 64, "duration": 240, "velocity": 100}, {"time": 213600, "pitch": 40, "duration": 240, "velocity": 83}, {"time": 213600, "pitch": 47, "duration": 240, "velocity": 83}, {"time": 213600, "pitch": 52, "duration": 240, "velocity": 83}, {"time": 213600, "pitch": 55, "duration": 240, "velocity": 83}, {"time": 213600, "pitch": 59, "duration": 240, "velocity": 83}, {"time": 213600, "pitch": 64, "duration": 240, "velocity": 83}, {"time": 213840, "pitch": 45, "duration": 480, "velocity": 100}, {"time": 213840, "pitch": 52, "duration": 480, "velocity": 100}, {"time": 213840, "pitch": 57, "duration": 480, "velocity": 100}, {"time": 213840, "pitch": 60, "duration": 480, "velocity": 100}, {"time": 213840, "pitch": 64, "duration": 480, "velocity": 100}, {"time": 214320, "pitch": 45, "duration": 30, "velocity": 100}, {"time": 214320, "pitch": 52, "duration": 30, "velocity": 100}, {"time": 214320, "pitch": 57, "duration": 30, "velocity": 100}, {"time": 214560, "pitch": 43, "duration": 480, "velocity": 100}, {"time": 214560, "pitch": 47, "duration": 480, "velocity": 100}, {"time": 214560, "pitch": 50, "duration": 480, "velocity": 100}, {"time": 214560, "pitch": 55, "duration": 480, "velocity": 100}, {"time": 214560, "pitch": 62, "duration": 480, "velocity": 100}, {"time": 214560, "pitch": 67, "duration": 480, "velocity": 100}, {"time": 215040, "pitch": 43, "duration": 240, "velocity": 85}, {"time": 215040, "pitch": 47, "duration": 240, "velocity": 85}, {"time": 215040, "pitch": 50, "duration": 240, "velocity": 85}, {"time": 215040, "pitch": 55, "duration": 240, "velocity": 85}, {"time": 215040, "pitch": 62, "duration": 240, "velocity": 85}, {"time": 215040, "pitch": 67, "duration": 240, "velocity": 85}, {"time": 215280, "pitch": 43, "duration": 240, "velocity": 100}, {"time": 215280, "pitch": 47, "duration": 240, "velocity": 100}, {"time": 215280, "pitch": 50, "duration": 240, "velocity": 100}, {"time": 215280, "pitch": 55, "duration": 240, "velocity": 85}, {"time": 215280, "pitch": 62, "duration": 240, "velocity": 100}, {"time": 215280, "pitch": 67, "duration": 240, "velocity": 100}, {"time": 215520, "pitch": 43, "duration": 240, "velocity": 83}, {"time": 215520, "pitch": 47, "duration": 240, "velocity": 83}, {"time": 215520, "pitch": 50, "duration": 240, "velocity": 83}, {"time": 215520, "pitch": 55, "duration": 240, "velocity": 85}, {"time": 215520, "pitch": 62, "duration": 240, "velocity": 83}, {"time": 215520, "pitch": 67, "duration": 240, "velocity": 83}, {"time": 215760, "pitch": 50, "duration": 480, "velocity": 100}, {"time": 215760, "pitch": 57, "duration": 480, "velocity": 100}, {"time": 215760, "pitch": 60, "duration": 480, "velocity": 100}, {"time": 215760, "pitch": 65, "duration": 480, "velocity": 100}, {"time": 216240, "pitch": 50, "duration": 30, "velocity": 100}, {"time": 216240, "pitch": 57, "duration": 30, "velocity": 100}, {"time": 216240, "pitch": 60, "duration": 30, "velocity": 100}, {"time": 216480, "pitch": 50, "duration": 480, "velocity": 100}, {"time": 216480, "pitch": 57, "duration": 480, "velocity": 100}, {"time": 216480, "pitch": 60, "duration": 480, "velocity": 100}, {"time": 216480, "pitch": 65, "duration": 480, "velocity": 100}, {"time": 216960, "pitch": 50, "duration": 240, "velocity": 85}, {"time": 216960, "pitch": 57, "duration": 240, "velocity": 85}, {"time": 216960, "pitch": 60, "duration": 240, "velocity": 85}, {"time": 216960, "pitch": 65, "duration": 240, "velocity": 85}, {"time": 217200, "pitch": 50, "duration": 240, "velocity": 100}, {"time": 217200, "pitch": 57, "duration": 240, "velocity": 100}, {"time": 217200, "pitch": 60, "duration": 240, "velocity": 100}, {"time": 217200, "pitch": 65, "duration": 240, "velocity": 100}, {"time": 217440, "pitch": 50, "duration": 240, "velocity": 83}, {"time": 217440, "pitch": 57, "duration": 240, "velocity": 83}, {"time": 217440, "pitch": 60, "duration": 240, "velocity": 83}, {"time": 217440, "pitch": 65, "duration": 240, "velocity": 83}, {"time": 217680, "pitch": 43, "duration": 480, "velocity": 100}, {"time": 217680, "pitch": 50, "duration": 480, "velocity": 100}, {"time": 217680, "pitch": 57, "duration": 480, "velocity": 100}, {"time": 217680, "pitch": 60, "duration": 480, "velocity": 100}, {"time": 217680, "pitch": 65, "duration": 480, "velocity": 100}, {"time": 218160, "pitch": 43, "duration": 480, "velocity": 100}, {"time": 218160, "pitch": 50, "duration": 480, "velocity": 100}, {"time": 218160, "pitch": 57, "duration": 480, "velocity": 100}, {"time": 218160, "pitch": 60, "duration": 480, "velocity": 100}, {"time": 218160, "pitch": 65, "duration": 480, "velocity": 100}, {"time": 218640, "pitch": 43, "duration": 480, "velocity": 99}, {"time": 218640, "pitch": 50, "duration": 480, "velocity": 99}, {"time": 218640, "pitch": 57, "duration": 480, "velocity": 99}, {"time": 218640, "pitch": 60, "duration": 480, "velocity": 99}, {"time": 218640, "pitch": 65, "duration": 480, "velocity": 99}, {"time": 219120, "pitch": 43, "duration": 392, "velocity": 100}, {"time": 219120, "pitch": 50, "duration": 392, "velocity": 100}, {"time": 219120, "pitch": 57, "duration": 384, "velocity": 100}, {"time": 219120, "pitch": 60, "duration": 392, "velocity": 100}, {"time": 219120, "pitch": 65, "duration": 384, "velocity": 100}, {"time": 219556, "pitch": 48, "duration": 720, "velocity": 100}, {"time": 219576, "pitch": 52, "duration": 720, "velocity": 100}, {"time": 219598, "pitch": 55, "duration": 708, "velocity": 100}, {"time": 219611, "pitch": 60, "duration": 695, "velocity": 100}, {"time": 219616, "pitch": 64, "duration": 720, "velocity": 100}, {"time": 220296, "pitch": 47, "duration": 1130, "velocity": 100}, {"time": 220316, "pitch": 50, "duration": 1130, "velocity": 100}, {"time": 220336, "pitch": 55, "duration": 1130, "velocity": 100}, {"time": 220346, "pitch": 62, "duration": 1130, "velocity": 100}, {"time": 220356, "pitch": 67, "duration": 1120, "velocity": 100}, {"time": 221478, "pitch": 45, "duration": 720, "velocity": 100}, {"time": 221492, "pitch": 52, "duration": 720, "velocity": 100}, {"time": 221506, "pitch": 57, "duration": 708, "velocity": 100}, {"time": 221519, "pitch": 60, "duration": 695, "velocity": 100}, {"time": 221524, "pitch": 64, "duration": 720, "velocity": 100}, {"time": 222200, "pitch": 43, "duration": 1130, "velocity": 100}, {"time": 222224, "pitch": 50, "duration": 1130, "velocity": 100}, {"time": 222244, "pitch": 55, "duration": 1130, "velocity": 100}, {"time": 222246, "pitch": 59, "duration": 1130, "velocity": 100}, {"time": 222256, "pitch": 62, "duration": 1120, "velocity": 100}, {"time": 222274, "pitch": 67, "duration": 1080, "velocity": 100}, {"time": 223396, "pitch": 41, "duration": 720, "velocity": 100}, {"time": 223416, "pitch": 48, "duration": 720, "velocity": 100}, {"time": 223438, "pitch": 53, "duration": 708, "velocity": 100}, {"time": 223451, "pitch": 57, "duration": 695, "velocity": 100}, {"time": 223456, "pitch": 60, "duration": 720, "velocity": 100}, {"time": 223472, "pitch": 65, "duration": 720, "velocity": 100}, {"time": 224136, "pitch": 40, "duration": 1123, "velocity": 100}, {"time": 224156, "pitch": 47, "duration": 1122, "velocity": 100}, {"time": 224176, "pitch": 52, "duration": 1121, "velocity": 100}, {"time": 224186, "pitch": 55, "duration": 1121, "velocity": 100}, {"time": 224196, "pitch": 59, "duration": 1111, "velocity": 100}, {"time": 224224, "pitch": 64, "duration": 1109, "velocity": 100}, {"time": 225309, "pitch": 50, "duration": 729, "velocity": 100}, {"time": 225322, "pitch": 57, "duration": 730, "velocity": 100}, {"time": 225326, "pitch": 62, "duration": 718, "velocity": 100}, {"time": 225348, "pitch": 65, "duration": 706, "velocity": 100}, {"time": 226040, "pitch": 43, "duration": 1217, "velocity": 100}, {"time": 226064, "pitch": 50, "duration": 1205, "velocity": 100}, {"time": 226084, "pitch": 57, "duration": 1198, "velocity": 100}, {"time": 226086, "pitch": 62, "duration": 1209, "velocity": 100}, {"time": 226096, "pitch": 65, "duration": 1237, "velocity": 100}, {"time": 227333, "pitch": 43, "duration": 1406, "velocity": 100}, {"time": 227409, "pitch": 50, "duration": 1374, "velocity": 100}, {"time": 227468, "pitch": 55, "duration": 1344, "velocity": 100}, {"time": 227526, "pitch": 62, "duration": 1317, "velocity": 100}, {"time": 227550, "pitch": 67, "duration": 1317, "velocity": 100}, {"time": 228835, "pitch": 48, "duration": 1833, "velocity": 100}, {"time": 228851, "pitch": 52, "duration": 1785, "velocity": 100}, {"time": 228867, "pitch": 55, "duration": 1793, "velocity": 100}, {"time": 228867, "pitch": 60, "duration": 1809, "velocity": 100}, {"time": 228891, "pitch": 64, "duration": 1841, "velocity": 100}, {"time": 2360, "pitch": 48, "duration": 980, "velocity": 100}, {"time": 2400, "pitch": 52, "duration": 960, "velocity": 100}, {"time": 2444, "pitch": 55, "duration": 926, "velocity": 100}, {"time": 2470, "pitch": 60, "duration": 900, "velocity": 100}, {"time": 2480, "pitch": 64, "duration": 920, "velocity": 100}, {"time": 3360, "pitch": 47, "duration": 1130, "velocity": 100}, {"time": 3380, "pitch": 50, "duration": 1130, "velocity": 100}, {"time": 3400, "pitch": 55, "duration": 1130, "velocity": 100}, {"time": 3410, "pitch": 62, "duration": 1130, "velocity": 100}, {"time": 3420, "pitch": 67, "duration": 1120, "velocity": 100}, {"time": 4542, "pitch": 45, "duration": 720, "velocity": 100}, {"time": 4556, "pitch": 52, "duration": 720, "velocity": 100}, {"time": 4570, "pitch": 57, "duration": 708, "velocity": 100}, {"time": 4583, "pitch": 60, "duration": 695, "velocity": 100}, {"time": 4588, "pitch": 64, "duration": 720, "velocity": 100}, {"time": 5264, "pitch": 43, "duration": 1130, "velocity": 100}, {"time": 5288, "pitch": 50, "duration": 1130, "velocity": 100}, {"time": 5308, "pitch": 55, "duration": 1130, "velocity": 100}, {"time": 5310, "pitch": 59, "duration": 1130, "velocity": 100}, {"time": 5320, "pitch": 62, "duration": 1120, "velocity": 100}, {"time": 5338, "pitch": 67, "duration": 1080, "velocity": 100}, {"time": 6460, "pitch": 41, "duration": 720, "velocity": 100}, {"time": 6480, "pitch": 48, "duration": 720, "velocity": 100}, {"time": 6502, "pitch": 53, "duration": 708, "velocity": 100}, {"time": 6515, "pitch": 57, "duration": 695, "velocity": 100}, {"time": 6520, "pitch": 60, "duration": 720, "velocity": 100}, {"time": 6536, "pitch": 65, "duration": 720, "velocity": 100}, {"time": 7200, "pitch": 40, "duration": 1130, "velocity": 100}, {"time": 7220, "pitch": 47, "duration": 1130, "velocity": 100}, {"time": 7240, "pitch": 52, "duration": 1130, "velocity": 100}, {"time": 7250, "pitch": 55, "duration": 1130, "velocity": 100}, {"time": 7260, "pitch": 59, "duration": 1120, "velocity": 100}, {"time": 7288, "pitch": 64, "duration": 1120, "velocity": 100}, {"time": 8382, "pitch": 50, "duration": 720, "velocity": 100}, {"time": 8396, "pitch": 57, "duration": 720, "velocity": 100}, {"time": 8400, "pitch": 62, "duration": 708, "velocity": 100}, {"time": 8423, "pitch": 65, "duration": 695, "velocity": 100}, {"time": 9104, "pitch": 43, "duration": 2056, "velocity": 100}, {"time": 9128, "pitch": 50, "duration": 2032, "velocity": 100}, {"time": 9148, "pitch": 57, "duration": 2012, "velocity": 100}, {"time": 9150, "pitch": 62, "duration": 2010, "velocity": 100}, {"time": 9160, "pitch": 65, "duration": 2000, "velocity": 100}, {"time": 12240, "pitch": 48, "duration": 480, "velocity": 100}, {"time": 12240, "pitch": 52, "duration": 480, "velocity": 100}, {"time": 12240, "pitch": 55, "duration": 480, "velocity": 100}, {"time": 12240, "pitch": 60, "duration": 480, "velocity": 100}, {"time": 12240, "pitch": 64, "duration": 480, "velocity": 100}, {"time": 12960, "pitch": 48, "duration": 480, "velocity": 100}, {"time": 12960, "pitch": 52, "duration": 480, "velocity": 100}, {"time": 12960, "pitch": 55, "duration": 480, "velocity": 100}, {"time": 12960, "pitch": 60, "duration": 480, "velocity": 100}, {"time": 12960, "pitch": 64, "duration": 480, "velocity": 100}, {"time": 13440, "pitch": 48, "duration": 240, "velocity": 85}, {"time": 13440, "pitch": 52, "duration": 240, "velocity": 85}, {"time": 13440, "pitch": 55, "duration": 240, "velocity": 85}, {"time": 13440, "pitch": 60, "duration": 240, "velocity": 85}, {"time": 13440, "pitch": 64, "duration": 240, "velocity": 85}, {"time": 13680, "pitch": 48, "duration": 240, "velocity": 100}, {"time": 13680, "pitch": 52, "duration": 240, "velocity": 100}, {"time": 13680, "pitch": 55, "duration": 240, "velocity": 100}, {"time": 13680, "pitch": 60, "duration": 240, "velocity": 100}, {"time": 13680, "pitch": 64, "duration": 240, "velocity": 100}, {"time": 13920, "pitch": 48, "duration": 240, "velocity": 81}, {"time": 13920, "pitch": 52, "duration": 240, "velocity": 81}, {"time": 13920, "pitch": 55, "duration": 240, "velocity": 81}, {"time": 13920, "pitch": 60, "duration": 240, "velocity": 81}, {"time": 13920, "pitch": 64, "duration": 240, "velocity": 81}, {"time": 14160, "pitch": 40, "duration": 480, "velocity": 100}, {"time": 14160, "pitch": 47, "duration": 480, "velocity": 100}, {"time": 14160, "pitch": 50, "duration": 480, "velocity": 100}, {"time": 14160, "pitch": 56, "duration": 480, "velocity": 100}, {"time": 14160, "pitch": 59, "duration": 480, "velocity": 100}, {"time": 14160, "pitch": 64, "duration": 480, "velocity": 100}, {"time": 14880, "pitch": 40, "duration": 480, "velocity": 100}, {"time": 14880, "pitch": 47, "duration": 480, "velocity": 100}, {"time": 14880, "pitch": 50, "duration": 480, "velocity": 100}, {"time": 14880, "pitch": 56, "duration": 480, "velocity": 100}, {"time": 14880, "pitch": 59, "duration": 480, "velocity": 100}, {"time": 14880, "pitch": 64, "duration": 480, "velocity": 100}, {"time": 15360, "pitch": 40, "duration": 240, "velocity": 85}, {"time": 15360, "pitch": 47, "duration": 240, "velocity": 85}, {"time": 15360, "pitch": 50, "duration": 240, "velocity": 85}, {"time": 15360, "pitch": 56, "duration": 240, "velocity": 85}, {"time": 15360, "pitch": 59, "duration": 240, "velocity": 85}, {"time": 15360, "pitch": 64, "duration": 240, "velocity": 85}, {"time": 15600, "pitch": 40, "duration": 240, "velocity": 100}, {"time": 15600, "pitch": 47, "duration": 240, "velocity": 100}, {"time": 15600, "pitch": 50, "duration": 240, "velocity": 100}, {"time": 15600, "pitch": 56, "duration": 240, "velocity": 100}, {"time": 15600, "pitch": 59, "duration": 240, "velocity": 100}, {"time": 15600, "pitch": 64, "duration": 240, "velocity": 100}, {"time": 15840, "pitch": 40, "duration": 240, "velocity": 81}, {"time": 15840, "pitch": 47, "duration": 240, "velocity": 81}, {"time": 15840, "pitch": 50, "duration": 240, "velocity": 81}, {"time": 15840, "pitch": 56, "duration": 240, "velocity": 81}, {"time": 15840, "pitch": 59, "duration": 240, "velocity": 81}, {"time": 15840, "pitch": 64, "duration": 240, "velocity": 81}, {"time": 16080, "pitch": 45, "duration": 480, "velocity": 100}, {"time": 16080, "pitch": 52, "duration": 480, "velocity": 100}, {"time": 16080, "pitch": 57, "duration": 480, "velocity": 100}, {"time": 16080, "pitch": 60, "duration": 480, "velocity": 100}, {"time": 16080, "pitch": 64, "duration": 480, "velocity": 100}, {"time": 16800, "pitch": 45, "duration": 480, "velocity": 100}, {"time": 16800, "pitch": 52, "duration": 480, "velocity": 100}, {"time": 16800, "pitch": 57, "duration": 480, "velocity": 100}, {"time": 16800, "pitch": 60, "duration": 480, "velocity": 100}, {"time": 16800, "pitch": 64, "duration": 480, "velocity": 100}, {"time": 17280, "pitch": 45, "duration": 240, "velocity": 85}, {"time": 17280, "pitch": 52, "duration": 240, "velocity": 85}, {"time": 17280, "pitch": 57, "duration": 240, "velocity": 85}, {"time": 17280, "pitch": 60, "duration": 240, "velocity": 85}, {"time": 17280, "pitch": 64, "duration": 240, "velocity": 85}, {"time": 17520, "pitch": 45, "duration": 240, "velocity": 100}, {"time": 17520, "pitch": 52, "duration": 240, "velocity": 100}, {"time": 17520, "pitch": 57, "duration": 240, "velocity": 100}, {"time": 17520, "pitch": 60, "duration": 240, "velocity": 100}, {"time": 17520, "pitch": 64, "duration": 240, "velocity": 100}, {"time": 17760, "pitch": 45, "duration": 240, "velocity": 81}, {"time": 17760, "pitch": 52, "duration": 240, "velocity": 81}, {"time": 17760, "pitch": 57, "duration": 240, "velocity": 81}, {"time": 17760, "pitch": 60, "duration": 240, "velocity": 81}, {"time": 17760, "pitch": 64, "duration": 240, "velocity": 81}, {"time": 18000, "pitch": 48, "duration": 480, "velocity": 100}, {"time": 18000, "pitch": 52, "duration": 480, "velocity": 100}, {"time": 18000, "pitch": 58, "duration": 480, "velocity": 100}, {"time": 18000, "pitch": 60, "duration": 480, "velocity": 100}, {"time": 18000, "pitch": 64, "duration": 480, "velocity": 100}, {"time": 18720, "pitch": 48, "duration": 480, "velocity": 100}, {"time": 18720, "pitch": 52, "duration": 480, "velocity": 100}, {"time": 18720, "pitch": 58, "duration": 480, "velocity": 100}, {"time": 18720, "pitch": 60, "duration": 480, "velocity": 100}, {"time": 18720, "pitch": 64, "duration": 480, "velocity": 100}, {"time": 19200, "pitch": 48, "duration": 240, "velocity": 85}, {"time": 19200, "pitch": 52, "duration": 240, "velocity": 85}, {"time": 19200, "pitch": 58, "duration": 240, "velocity": 85}, {"time": 19200, "pitch": 60, "duration": 240, "velocity": 85}, {"time": 19200, "pitch": 64, "duration": 240, "velocity": 85}, {"time": 19440, "pitch": 48, "duration": 240, "velocity": 100}, {"time": 19440, "pitch": 52, "duration": 240, "velocity": 100}, {"time": 19440, "pitch": 58, "duration": 240, "velocity": 100}, {"time": 19440, "pitch": 60, "duration": 240, "velocity": 100}, {"time": 19440, "pitch": 64, "duration": 240, "velocity": 100}, {"time": 19680, "pitch": 48, "duration": 240, "velocity": 81}, {"time": 19680, "pitch": 52, "duration": 240, "velocity": 81}, {"time": 19680, "pitch": 58, "duration": 240, "velocity": 81}, {"time": 19680, "pitch": 60, "duration": 240, "velocity": 81}, {"time": 19680, "pitch": 64, "duration": 240, "velocity": 81}, {"time": 19920, "pitch": 41, "duration": 480, "velocity": 100}, {"time": 19920, "pitch": 48, "duration": 480, "velocity": 100}, {"time": 19920, "pitch": 53, "duration": 480, "velocity": 100}, {"time": 19920, "pitch": 57, "duration": 480, "velocity": 100}, {"time": 19920, "pitch": 60, "duration": 480, "velocity": 100}, {"time": 19920, "pitch": 65, "duration": 480, "velocity": 100}, {"time": 20640, "pitch": 41, "duration": 480, "velocity": 100}, {"time": 20640, "pitch": 48, "duration": 480, "velocity": 100}, {"time": 20640, "pitch": 53, "duration": 480, "velocity": 100}, {"time": 20640, "pitch": 57, "duration": 480, "velocity": 100}, {"time": 20640, "pitch": 60, "duration": 480, "velocity": 100}, {"time": 20640, "pitch": 65, "duration": 480, "velocity": 100}, {"time": 21120, "pitch": 41, "duration": 240, "velocity": 85}, {"time": 21120, "pitch": 48, "duration": 240, "velocity": 85}, {"time": 21120, "pitch": 53, "duration": 240, "velocity": 85}, {"time": 21120, "pitch": 57, "duration": 240, "velocity": 85}, {"time": 21120, "pitch": 60, "duration": 240, "velocity": 85}, {"time": 21120, "pitch": 65, "duration": 240, "velocity": 85}, {"time": 21360, "pitch": 41, "duration": 240, "velocity": 100}, {"time": 21360, "pitch": 48, "duration": 240, "velocity": 100}, {"time": 21360, "pitch": 53, "duration": 240, "velocity": 100}, {"time": 21360, "pitch": 57, "duration": 240, "velocity": 100}, {"time": 21360, "pitch": 60, "duration": 240, "velocity": 100}, {"time": 21360, "pitch": 65, "duration": 240, "velocity": 100}, {"time": 21600, "pitch": 41, "duration": 240, "velocity": 81}, {"time": 21600, "pitch": 48, "duration": 240, "velocity": 81}, {"time": 21600, "pitch": 53, "duration": 240, "velocity": 81}, {"time": 21600, "pitch": 57, "duration": 240, "velocity": 81}, {"time": 21600, "pitch": 60, "duration": 240, "velocity": 81}, {"time": 21600, "pitch": 65, "duration": 240, "velocity": 81}, {"time": 21840, "pitch": 40, "duration": 480, "velocity": 100}, {"time": 21840, "pitch": 47, "duration": 480, "velocity": 100}, {"time": 21840, "pitch": 52, "duration": 480, "velocity": 100}, {"time": 21840, "pitch": 55, "duration": 480, "velocity": 100}, {"time": 21840, "pitch": 59, "duration": 480, "velocity": 100}, {"time": 21840, "pitch": 64, "duration": 480, "velocity": 100}, {"time": 22560, "pitch": 45, "duration": 480, "velocity": 100}, {"time": 22560, "pitch": 52, "duration": 480, "velocity": 100}, {"time": 22560, "pitch": 57, "duration": 480, "velocity": 100}, {"time": 22560, "pitch": 60, "duration": 480, "velocity": 100}, {"time": 22560, "pitch": 64, "duration": 480, "velocity": 100}, {"time": 23040, "pitch": 45, "duration": 240, "velocity": 85}, {"time": 23040, "pitch": 52, "duration": 240, "velocity": 85}, {"time": 23040, "pitch": 57, "duration": 240, "velocity": 85}, {"time": 23040, "pitch": 60, "duration": 240, "velocity": 85}, {"time": 23040, "pitch": 64, "duration": 240, "velocity": 85}, {"time": 23280, "pitch": 45, "duration": 240, "velocity": 100}, {"time": 23280, "pitch": 52, "duration": 240, "velocity": 100}, {"time": 23280, "pitch": 57, "duration": 240, "velocity": 100}, {"time": 23280, "pitch": 60, "duration": 240, "velocity": 100}, {"time": 23280, "pitch": 64, "duration": 240, "velocity": 100}, {"time": 23520, "pitch": 45, "duration": 240, "velocity": 81}, {"time": 23520, "pitch": 52, "duration": 240, "velocity": 81}, {"time": 23520, "pitch": 57, "duration": 240, "velocity": 81}, {"time": 23520, "pitch": 60, "duration": 240, "velocity": 81}, {"time": 23520, "pitch": 64, "duration": 240, "velocity": 81}, {"time": 23760, "pitch": 50, "duration": 480, "velocity": 100}, {"time": 23760, "pitch": 57, "duration": 480, "velocity": 100}, {"time": 23760, "pitch": 62, "duration": 480, "velocity": 100}, {"time": 23760, "pitch": 65, "duration": 480, "velocity": 100}, {"time": 24480, "pitch": 50, "duration": 480, "velocity": 100}, {"time": 24480, "pitch": 57, "duration": 480, "velocity": 100}, {"time": 24480, "pitch": 62, "duration": 480, "velocity": 100}, {"time": 24480, "pitch": 65, "duration": 480, "velocity": 100}, {"time": 24960, "pitch": 50, "duration": 240, "velocity": 85}, {"time": 24960, "pitch": 57, "duration": 240, "velocity": 85}, {"time": 24960, "pitch": 62, "duration": 240, "velocity": 85}, {"time": 24960, "pitch": 65, "duration": 240, "velocity": 85}, {"time": 25200, "pitch": 50, "duration": 240, "velocity": 100}, {"time": 25200, "pitch": 57, "duration": 240, "velocity": 100}, {"time": 25200, "pitch": 62, "duration": 240, "velocity": 100}, {"time": 25200, "pitch": 65, "duration": 240, "velocity": 100}, {"time": 25440, "pitch": 50, "duration": 240, "velocity": 81}, {"time": 25440, "pitch": 57, "duration": 240, "velocity": 81}, {"time": 25440, "pitch": 62, "duration": 240, "velocity": 81}, {"time": 25440, "pitch": 65, "duration": 240, "velocity": 81}, {"time": 25680, "pitch": 43, "duration": 480, "velocity": 100}, {"time": 25680, "pitch": 50, "duration": 480, "velocity": 100}, {"time": 25680, "pitch": 55, "duration": 480, "velocity": 100}, {"time": 25680, "pitch": 59, "duration": 480, "velocity": 100}, {"time": 25680, "pitch": 62, "duration": 480, "velocity": 100}, {"time": 25680, "pitch": 67, "duration": 480, "velocity": 100}, {"time": 26400, "pitch": 43, "duration": 480, "velocity": 100}, {"time": 26400, "pitch": 50, "duration": 480, "velocity": 100}, {"time": 26400, "pitch": 55, "duration": 480, "velocity": 100}, {"time": 26400, "pitch": 59, "duration": 480, "velocity": 100}, {"time": 26400, "pitch": 62, "duration": 480, "velocity": 100}, {"time": 26400, "pitch": 67, "duration": 480, "velocity": 100}, {"time": 26880, "pitch": 43, "duration": 240, "velocity": 85}, {"time": 26880, "pitch": 50, "duration": 240, "velocity": 85}, {"time": 26880, "pitch": 55, "duration": 240, "velocity": 85}, {"time": 26880, "pitch": 59, "duration": 240, "velocity": 85}, {"time": 26880, "pitch": 62, "duration": 240, "velocity": 85}, {"time": 26880, "pitch": 67, "duration": 240, "velocity": 85}, {"time": 27120, "pitch": 43, "duration": 240, "velocity": 100}, {"time": 27120, "pitch": 50, "duration": 240, "velocity": 100}, {"time": 27120, "pitch": 55, "duration": 240, "velocity": 100}, {"time": 27120, "pitch": 59, "duration": 240, "velocity": 100}, {"time": 27120, "pitch": 62, "duration": 240, "velocity": 100}, {"time": 27120, "pitch": 67, "duration": 240, "velocity": 100}, {"time": 27360, "pitch": 43, "duration": 240, "velocity": 81}, {"time": 27360, "pitch": 50, "duration": 240, "velocity": 81}, {"time": 27360, "pitch": 55, "duration": 240, "velocity": 81}, {"time": 27360, "pitch": 59, "duration": 240, "velocity": 81}, {"time": 27360, "pitch": 62, "duration": 240, "velocity": 81}, {"time": 27360, "pitch": 67, "duration": 240, "velocity": 81}, {"time": 27600, "pitch": 48, "duration": 480, "velocity": 100}, {"time": 27600, "pitch": 52, "duration": 480, "velocity": 100}, {"time": 27600, "pitch": 55, "duration": 480, "velocity": 100}, {"time": 27600, "pitch": 60, "duration": 480, "velocity": 100}, {"time": 27600, "pitch": 64, "duration": 480, "velocity": 100}, {"time": 28320, "pitch": 48, "duration": 480, "velocity": 100}, {"time": 28320, "pitch": 52, "duration": 480, "velocity": 100}, {"time": 28320, "pitch": 55, "duration": 480, "velocity": 100}, {"time": 28320, "pitch": 60, "duration": 480, "velocity": 100}, {"time": 28320, "pitch": 64, "duration": 480, "velocity": 100}, {"time": 28800, "pitch": 48, "duration": 240, "velocity": 85}, {"time": 28800, "pitch": 52, "duration": 240, "velocity": 85}, {"time": 28800, "pitch": 55, "duration": 240, "velocity": 85}, {"time": 28800, "pitch": 60, "duration": 240, "velocity": 85}, {"time": 28800, "pitch": 64, "duration": 240, "velocity": 85}, {"time": 29040, "pitch": 48, "duration": 240, "velocity": 100}, {"time": 29040, "pitch": 52, "duration": 240, "velocity": 100}, {"time": 29040, "pitch": 55, "duration": 240, "velocity": 100}, {"time": 29040, "pitch": 60, "duration": 240, "velocity": 100}, {"time": 29040, "pitch": 64, "duration": 240, "velocity": 100}, {"time": 29280, "pitch": 48, "duration": 240, "velocity": 81}, {"time": 29280, "pitch": 52, "duration": 240, "velocity": 81}, {"time": 29280, "pitch": 55, "duration": 240, "velocity": 81}, {"time": 29280, "pitch": 60, "duration": 240, "velocity": 81}, {"time": 29280, "pitch": 64, "duration": 240, "velocity": 81}, {"time": 29520, "pitch": 40, "duration": 480, "velocity": 100}, {"time": 29520, "pitch": 47, "duration": 480, "velocity": 100}, {"time": 29520, "pitch": 50, "duration": 480, "velocity": 100}, {"time": 29520, "pitch": 56, "duration": 480, "velocity": 100}, {"time": 29520, "pitch": 59, "duration": 480, "velocity": 100}, {"time": 29520, "pitch": 64, "duration": 480, "velocity": 100}, {"time": 30240, "pitch": 40, "duration": 480, "velocity": 100}, {"time": 30240, "pitch": 47, "duration": 480, "velocity": 100}, {"time": 30240, "pitch": 50, "duration": 480, "velocity": 100}, {"time": 30240, "pitch": 56, "duration": 480, "velocity": 100}, {"time": 30240, "pitch": 59, "duration": 480, "velocity": 100}, {"time": 30240, "pitch": 64, "duration": 480, "velocity": 100}, {"time": 30720, "pitch": 40, "duration": 240, "velocity": 85}, {"time": 30720, "pitch": 47, "duration": 240, "velocity": 85}, {"time": 30720, "pitch": 50, "duration": 240, "velocity": 85}, {"time": 30720, "pitch": 56, "duration": 240, "velocity": 85}, {"time": 30720, "pitch": 59, "duration": 240, "velocity": 85}, {"time": 30720, "pitch": 64, "duration": 240, "velocity": 85}, {"time": 30960, "pitch": 40, "duration": 240, "velocity": 100}, {"time": 30960, "pitch": 47, "duration": 240, "velocity": 100}, {"time": 30960, "pitch": 50, "duration": 240, "velocity": 100}, {"time": 30960, "pitch": 56, "duration": 240, "velocity": 100}, {"time": 30960, "pitch": 59, "duration": 240, "velocity": 100}, {"time": 30960, "pitch": 64, "duration": 240, "velocity": 100}, {"time": 31200, "pitch": 40, "duration": 240, "velocity": 81}, {"time": 31200, "pitch": 47, "duration": 240, "velocity": 81}, {"time": 31200, "pitch": 50, "duration": 240, "velocity": 81}, {"time": 31200, "pitch": 56, "duration": 240, "velocity": 81}, {"time": 31200, "pitch": 59, "duration": 240, "velocity": 81}, {"time": 31200, "pitch": 64, "duration": 240, "velocity": 81}, {"time": 31440, "pitch": 45, "duration": 480, "velocity": 100}, {"time": 31440, "pitch": 52, "duration": 480, "velocity": 100}, {"time": 31440, "pitch": 57, "duration": 480, "velocity": 100}, {"time": 31440, "pitch": 60, "duration": 480, "velocity": 100}, {"time": 31440, "pitch": 64, "duration": 480, "velocity": 100}, {"time": 32160, "pitch": 45, "duration": 480, "velocity": 100}, {"time": 32160, "pitch": 52, "duration": 480, "velocity": 100}, {"time": 32160, "pitch": 57, "duration": 480, "velocity": 100}, {"time": 32160, "pitch": 60, "duration": 480, "velocity": 100}, {"time": 32160, "pitch": 64, "duration": 480, "velocity": 100}, {"time": 32640, "pitch": 45, "duration": 240, "velocity": 85}, {"time": 32640, "pitch": 52, "duration": 240, "velocity": 85}, {"time": 32640, "pitch": 57, "duration": 240, "velocity": 85}, {"time": 32640, "pitch": 60, "duration": 240, "velocity": 85}, {"time": 32640, "pitch": 64, "duration": 240, "velocity": 85}, {"time": 32880, "pitch": 45, "duration": 240, "velocity": 100}, {"time": 32880, "pitch": 52, "duration": 240, "velocity": 100}, {"time": 32880, "pitch": 57, "duration": 240, "velocity": 100}, {"time": 32880, "pitch": 60, "duration": 240, "velocity": 100}, {"time": 32880, "pitch": 64, "duration": 240, "velocity": 100}, {"time": 33120, "pitch": 45, "duration": 240, "velocity": 81}, {"time": 33120, "pitch": 52, "duration": 240, "velocity": 81}, {"time": 33120, "pitch": 57, "duration": 240, "velocity": 81}, {"time": 33120, "pitch": 60, "duration": 240, "velocity": 81}, {"time": 33120, "pitch": 64, "duration": 240, "velocity": 81}, {"time": 33360, "pitch": 48, "duration": 480, "velocity": 100}, {"time": 33360, "pitch": 52, "duration": 480, "velocity": 100}, {"time": 33360, "pitch": 58, "duration": 480, "velocity": 100}, {"time": 33360, "pitch": 60, "duration": 480, "velocity": 100}, {"time": 33360, "pitch": 64, "duration": 480, "velocity": 100}, {"time": 34080, "pitch": 48, "duration": 480, "velocity": 100}, {"time": 34080, "pitch": 52, "duration": 480, "velocity": 100}, {"time": 34080, "pitch": 58, "duration": 480, "velocity": 100}, {"time": 34080, "pitch": 60, "duration": 480, "velocity": 100}, {"time": 34080, "pitch": 64, "duration": 480, "velocity": 100}, {"time": 34560, "pitch": 48, "duration": 240, "velocity": 85}, {"time": 34560, "pitch": 52, "duration": 240, "velocity": 85}, {"time": 34560, "pitch": 58, "duration": 240, "velocity": 85}, {"time": 34560, "pitch": 60, "duration": 240, "velocity": 85}, {"time": 34560, "pitch": 64, "duration": 240, "velocity": 85}, {"time": 34800, "pitch": 48, "duration": 240, "velocity": 100}, {"time": 34800, "pitch": 52, "duration": 240, "velocity": 100}, {"time": 34800, "pitch": 58, "duration": 240, "velocity": 100}, {"time": 34800, "pitch": 60, "duration": 240, "velocity": 100}, {"time": 34800, "pitch": 64, "duration": 240, "velocity": 100}, {"time": 35040, "pitch": 48, "duration": 240, "velocity": 81}, {"time": 35040, "pitch": 52, "duration": 240, "velocity": 81}, {"time": 35040, "pitch": 58, "duration": 240, "velocity": 81}, {"time": 35040, "pitch": 60, "duration": 240, "velocity": 81}, {"time": 35040, "pitch": 64, "duration": 240, "velocity": 81}, {"time": 35280, "pitch": 41, "duration": 480, "velocity": 100}, {"time": 35280, "pitch": 48, "duration": 480, "velocity": 100}, {"time": 35280, "pitch": 53, "duration": 480, "velocity": 100}, {"time": 35280, "pitch": 57, "duration": 480, "velocity": 100}, {"time": 35280, "pitch": 60, "duration": 480, "velocity": 100}, {"time": 35280, "pitch": 65, "duration": 480, "velocity": 100}, {"time": 36000, "pitch": 41, "duration": 480, "velocity": 100}, {"time": 36000, "pitch": 48, "duration": 480, "velocity": 100}, {"time": 36000, "pitch": 53, "duration": 480, "velocity": 100}, {"time": 36000, "pitch": 57, "duration": 480, "velocity": 100}, {"time": 36000, "pitch": 60, "duration": 480, "velocity": 100}, {"time": 36000, "pitch": 65, "duration": 480, "velocity": 100}, {"time": 36480, "pitch": 41, "duration": 240, "velocity": 85}, {"time": 36480, "pitch": 48, "duration": 240, "velocity": 85}, {"time": 36480, "pitch": 53, "duration": 240, "velocity": 85}, {"time": 36480, "pitch": 57, "duration": 240, "velocity": 85}, {"time": 36480, "pitch": 60, "duration": 240, "velocity": 85}, {"time": 36480, "pitch": 65, "duration": 240, "velocity": 85}, {"time": 36720, "pitch": 41, "duration": 240, "velocity": 100}, {"time": 36720, "pitch": 48, "duration": 240, "velocity": 100}, {"time": 36720, "pitch": 53, "duration": 240, "velocity": 100}, {"time": 36720, "pitch": 57, "duration": 240, "velocity": 100}, {"time": 36720, "pitch": 60, "duration": 240, "velocity": 100}, {"time": 36720, "pitch": 65, "duration": 240, "velocity": 100}, {"time": 36960, "pitch": 41, "duration": 240, "velocity": 81}, {"time": 36960, "pitch": 48, "duration": 240, "velocity": 81}, {"time": 36960, "pitch": 53, "duration": 240, "velocity": 81}, {"time": 36960, "pitch": 57, "duration": 240, "velocity": 81}, {"time": 36960, "pitch": 60, "duration": 240, "velocity": 81}, {"time": 36960, "pitch": 65, "duration": 240, "velocity": 81}, {"time": 37200, "pitch": 40, "duration": 480, "velocity": 100}, {"time": 37200, "pitch": 47, "duration": 480, "velocity": 100}, {"time": 37200, "pitch": 52, "duration": 480, "velocity": 100}, {"time": 37200, "pitch": 55, "duration": 480, "velocity": 100}, {"time": 37200, "pitch": 59, "duration": 480, "velocity": 100}, {"time": 37200, "pitch": 64, "duration": 480, "velocity": 100}, {"time": 37920, "pitch": 45, "duration": 480, "velocity": 100}, {"time": 37920, "pitch": 52, "duration": 480, "velocity": 100}, {"time": 37920, "pitch": 57, "duration": 480, "velocity": 100}, {"time": 37920, "pitch": 60, "duration": 480, "velocity": 100}, {"time": 37920, "pitch": 64, "duration": 480, "velocity": 100}, {"time": 38400, "pitch": 45, "duration": 240, "velocity": 85}, {"time": 38400, "pitch": 52, "duration": 240, "velocity": 85}, {"time": 38400, "pitch": 57, "duration": 240, "velocity": 85}, {"time": 38400, "pitch": 60, "duration": 240, "velocity": 85}, {"time": 38400, "pitch": 64, "duration": 240, "velocity": 85}, {"time": 38640, "pitch": 45, "duration": 240, "velocity": 100}, {"time": 38640, "pitch": 52, "duration": 240, "velocity": 100}, {"time": 38640, "pitch": 57, "duration": 240, "velocity": 100}, {"time": 38640, "pitch": 60, "duration": 240, "velocity": 100}, {"time": 38640, "pitch": 64, "duration": 240, "velocity": 100}, {"time": 38880, "pitch": 45, "duration": 240, "velocity": 81}, {"time": 38880, "pitch": 52, "duration": 240, "velocity": 81}, {"time": 38880, "pitch": 57, "duration": 240, "velocity": 81}, {"time": 38880, "pitch": 60, "duration": 240, "velocity": 81}, {"time": 38880, "pitch": 64, "duration": 240, "velocity": 81}, {"time": 39120, "pitch": 50, "duration": 480, "velocity": 100}, {"time": 39120, "pitch": 57, "duration": 480, "velocity": 100}, {"time": 39120, "pitch": 62, "duration": 480, "velocity": 100}, {"time": 39120, "pitch": 65, "duration": 480, "velocity": 100}, {"time": 39840, "pitch": 50, "duration": 480, "velocity": 100}, {"time": 39840, "pitch": 57, "duration": 480, "velocity": 100}, {"time": 39840, "pitch": 62, "duration": 480, "velocity": 100}, {"time": 39840, "pitch": 65, "duration": 480, "velocity": 100}, {"time": 40320, "pitch": 50, "duration": 240, "velocity": 85}, {"time": 40320, "pitch": 57, "duration": 240, "velocity": 85}, {"time": 40320, "pitch": 62, "duration": 240, "velocity": 85}, {"time": 40320, "pitch": 65, "duration": 240, "velocity": 85}, {"time": 40560, "pitch": 50, "duration": 240, "velocity": 100}, {"time": 40560, "pitch": 57, "duration": 240, "velocity": 100}, {"time": 40560, "pitch": 62, "duration": 240, "velocity": 100}, {"time": 40560, "pitch": 65, "duration": 240, "velocity": 100}, {"time": 40800, "pitch": 50, "duration": 240, "velocity": 81}, {"time": 40800, "pitch": 57, "duration": 240, "velocity": 81}, {"time": 40800, "pitch": 62, "duration": 240, "velocity": 81}, {"time": 40800, "pitch": 65, "duration": 240, "velocity": 81}, {"time": 41040, "pitch": 48, "duration": 480, "velocity": 100}, {"time": 41040, "pitch": 55, "duration": 480, "velocity": 100}, {"time": 41040, "pitch": 60, "duration": 480, "velocity": 100}, {"time": 41040, "pitch": 64, "duration": 480, "velocity": 100}, {"time": 41040, "pitch": 67, "duration": 480, "velocity": 100}, {"time": 41760, "pitch": 48, "duration": 480, "velocity": 100}, {"time": 41760, "pitch": 55, "duration": 480, "velocity": 100}, {"time": 41760, "pitch": 58, "duration": 480, "velocity": 100}, {"time": 41760, "pitch": 64, "duration": 480, "velocity": 100}, {"time": 41760, "pitch": 67, "duration": 480, "velocity": 100}, {"time": 42240, "pitch": 48, "duration": 240, "velocity": 85}, {"time": 42240, "pitch": 55, "duration": 240, "velocity": 85}, {"time": 42240, "pitch": 58, "duration": 240, "velocity": 85}, {"time": 42240, "pitch": 64, "duration": 240, "velocity": 85}, {"time": 42240, "pitch": 67, "duration": 240, "velocity": 85}, {"time": 42480, "pitch": 48, "duration": 240, "velocity": 100}, {"time": 42480, "pitch": 55, "duration": 240, "velocity": 100}, {"time": 42480, "pitch": 58, "duration": 240, "velocity": 100}, {"time": 42480, "pitch": 64, "duration": 240, "velocity": 100}, {"time": 42480, "pitch": 67, "duration": 240, "velocity": 100}, {"time": 42720, "pitch": 48, "duration": 120, "velocity": 76}, {"time": 42720, "pitch": 55, "duration": 120, "velocity": 76}, {"time": 42720, "pitch": 58, "duration": 120, "velocity": 76}, {"time": 42720, "pitch": 64, "duration": 120, "velocity": 76}, {"time": 42720, "pitch": 67, "duration": 120, "velocity": 76}, {"time": 42960, "pitch": 41, "duration": 480, "velocity": 100}, {"time": 42960, "pitch": 48, "duration": 480, "velocity": 100}, {"time": 42960, "pitch": 53, "duration": 480, "velocity": 100}, {"time": 42960, "pitch": 57, "duration": 480, "velocity": 100}, {"time": 42960, "pitch": 60, "duration": 480, "velocity": 100}, {"time": 42960, "pitch": 65, "duration": 480, "velocity": 100}, {"time": 43680, "pitch": 41, "duration": 480, "velocity": 100}, {"time": 43680, "pitch": 48, "duration": 480, "velocity": 100}, {"time": 43680, "pitch": 53, "duration": 480, "velocity": 100}, {"time": 43680, "pitch": 57, "duration": 480, "velocity": 100}, {"time": 43680, "pitch": 60, "duration": 480, "velocity": 100}, {"time": 43680, "pitch": 65, "duration": 480, "velocity": 100}, {"time": 44160, "pitch": 41, "duration": 240, "velocity": 85}, {"time": 44160, "pitch": 48, "duration": 240, "velocity": 85}, {"time": 44160, "pitch": 53, "duration": 240, "velocity": 85}, {"time": 44160, "pitch": 57, "duration": 240, "velocity": 85}, {"time": 44160, "pitch": 60, "duration": 240, "velocity": 85}, {"time": 44160, "pitch": 65, "duration": 240, "velocity": 85}, {"time": 44400, "pitch": 41, "duration": 240, "velocity": 100}, {"time": 44400, "pitch": 48, "duration": 240, "velocity": 100}, {"time": 44400, "pitch": 53, "duration": 240, "velocity": 100}, {"time": 44400, "pitch": 57, "duration": 240, "velocity": 100}, {"time": 44400, "pitch": 60, "duration": 240, "velocity": 100}, {"time": 44400, "pitch": 65, "duration": 240, "velocity": 100}, {"time": 44640, "pitch": 41, "duration": 240, "velocity": 81}, {"time": 44640, "pitch": 48, "duration": 240, "velocity": 81}, {"time": 44640, "pitch": 53, "duration": 240, "velocity": 81}, {"time": 44640, "pitch": 57, "duration": 240, "velocity": 81}, {"time": 44640, "pitch": 60, "duration": 240, "velocity": 81}, {"time": 44640, "pitch": 65, "duration": 240, "velocity": 81}, {"time": 44880, "pitch": 40, "duration": 480, "velocity": 100}, {"time": 44880, "pitch": 47, "duration": 480, "velocity": 100}, {"time": 44880, "pitch": 52, "duration": 480, "velocity": 100}, {"time": 44880, "pitch": 55, "duration": 480, "velocity": 100}, {"time": 44880, "pitch": 59, "duration": 480, "velocity": 100}, {"time": 44880, "pitch": 64, "duration": 480, "velocity": 100}, {"time": 45600, "pitch": 40, "duration": 480, "velocity": 100}, {"time": 45600, "pitch": 47, "duration": 480, "velocity": 100}, {"time": 45600, "pitch": 52, "duration": 480, "velocity": 100}, {"time": 45600, "pitch": 55, "duration": 480, "velocity": 100}, {"time": 45600, "pitch": 59, "duration": 480, "velocity": 100}, {"time": 45600, "pitch": 64, "duration": 480, "velocity": 100}, {"time": 46080, "pitch": 40, "duration": 240, "velocity": 85}, {"time": 46080, "pitch": 47, "duration": 240, "velocity": 85}, {"time": 46080, "pitch": 52, "duration": 240, "velocity": 85}, {"time": 46080, "pitch": 55, "duration": 240, "velocity": 85}, {"time": 46080, "pitch": 59, "duration": 240, "velocity": 85}, {"time": 46080, "pitch": 64, "duration": 240, "velocity": 85}, {"time": 46320, "pitch": 40, "duration": 240, "velocity": 100}, {"time": 46320, "pitch": 47, "duration": 240, "velocity": 100}, {"time": 46320, "pitch": 52, "duration": 240, "velocity": 100}, {"time": 46320, "pitch": 55, "duration": 240, "velocity": 100}, {"time": 46320, "pitch": 59, "duration": 240, "velocity": 100}, {"time": 46320, "pitch": 64, "duration": 240, "velocity": 100}, {"time": 46560, "pitch": 40, "duration": 240, "velocity": 81}, {"time": 46560, "pitch": 47, "duration": 240, "velocity": 81}, {"time": 46560, "pitch": 52, "duration": 240, "velocity": 81}, {"time": 46560, "pitch": 55, "duration": 240, "velocity": 81}, {"time": 46560, "pitch": 59, "duration": 240, "velocity": 81}, {"time": 46560, "pitch": 64, "duration": 240, "velocity": 81}, {"time": 46800, "pitch": 50, "duration": 480, "velocity": 100}, {"time": 46800, "pitch": 57, "duration": 480, "velocity": 100}, {"time": 46800, "pitch": 62, "duration": 480, "velocity": 100}, {"time": 46800, "pitch": 65, "duration": 480, "velocity": 100}, {"time": 47520, "pitch": 40, "duration": 480, "velocity": 100}, {"time": 47520, "pitch": 47, "duration": 480, "velocity": 100}, {"time": 47520, "pitch": 52, "duration": 480, "velocity": 100}, {"time": 47520, "pitch": 56, "duration": 480, "velocity": 100}, {"time": 47520, "pitch": 59, "duration": 480, "velocity": 100}, {"time": 47520, "pitch": 64, "duration": 480, "velocity": 100}, {"time": 48000, "pitch": 40, "duration": 240, "velocity": 85}, {"time": 48000, "pitch": 47, "duration": 240, "velocity": 85}, {"time": 48000, "pitch": 52, "duration": 240, "velocity": 85}, {"time": 48000, "pitch": 56, "duration": 240, "velocity": 85}, {"time": 48000, "pitch": 59, "duration": 240, "velocity": 85}, {"time": 48000, "pitch": 64, "duration": 240, "velocity": 85}, {"time": 48240, "pitch": 40, "duration": 240, "velocity": 100}, {"time": 48240, "pitch": 47, "duration": 240, "velocity": 100}, {"time": 48240, "pitch": 52, "duration": 240, "velocity": 100}, {"time": 48240, "pitch": 56, "duration": 240, "velocity": 100}, {"time": 48240, "pitch": 59, "duration": 240, "velocity": 100}, {"time": 48240, "pitch": 64, "duration": 240, "velocity": 100}, {"time": 48480, "pitch": 40, "duration": 240, "velocity": 81}, {"time": 48480, "pitch": 47, "duration": 240, "velocity": 81}, {"time": 48480, "pitch": 52, "duration": 240, "velocity": 81}, {"time": 48480, "pitch": 56, "duration": 240, "velocity": 81}, {"time": 48480, "pitch": 59, "duration": 240, "velocity": 81}, {"time": 48480, "pitch": 64, "duration": 240, "velocity": 81}, {"time": 48720, "pitch": 45, "duration": 480, "velocity": 100}, {"time": 48720, "pitch": 52, "duration": 480, "velocity": 100}, {"time": 48720, "pitch": 57, "duration": 480, "velocity": 100}, {"time": 48720, "pitch": 60, "duration": 480, "velocity": 100}, {"time": 48720, "pitch": 64, "duration": 480, "velocity": 100}, {"time": 49440, "pitch": 48, "duration": 480, "velocity": 100}, {"time": 49440, "pitch": 52, "duration": 480, "velocity": 100}, {"time": 49440, "pitch": 58, "duration": 480, "velocity": 100}, {"time": 49440, "pitch": 60, "duration": 480, "velocity": 100}, {"time": 49440, "pitch": 64, "duration": 480, "velocity": 100}, {"time": 49920, "pitch": 48, "duration": 240, "velocity": 85}, {"time": 49920, "pitch": 52, "duration": 240, "velocity": 85}, {"time": 49920, "pitch": 58, "duration": 240, "velocity": 85}, {"time": 49920, "pitch": 60, "duration": 240, "velocity": 85}, {"time": 49920, "pitch": 64, "duration": 240, "velocity": 85}, {"time": 50160, "pitch": 48, "duration": 240, "velocity": 100}, {"time": 50160, "pitch": 52, "duration": 240, "velocity": 100}, {"time": 50160, "pitch": 58, "duration": 240, "velocity": 100}, {"time": 50160, "pitch": 60, "duration": 240, "velocity": 100}, {"time": 50160, "pitch": 64, "duration": 240, "velocity": 100}, {"time": 50400, "pitch": 48, "duration": 240, "velocity": 81}, {"time": 50400, "pitch": 52, "duration": 240, "velocity": 81}, {"time": 50400, "pitch": 58, "duration": 240, "velocity": 81}, {"time": 50400, "pitch": 60, "duration": 240, "velocity": 81}, {"time": 50400, "pitch": 64, "duration": 240, "velocity": 81}, {"time": 50640, "pitch": 41, "duration": 480, "velocity": 100}, {"time": 50640, "pitch": 48, "duration": 480, "velocity": 100}, {"time": 50640, "pitch": 53, "duration": 480, "velocity": 100}, {"time": 50640, "pitch": 57, "duration": 480, "velocity": 100}, {"time": 50640, "pitch": 60, "duration": 480, "velocity": 100}, {"time": 50640, "pitch": 65, "duration": 480, "velocity": 100}, {"time": 51360, "pitch": 41, "duration": 480, "velocity": 100}, {"time": 51360, "pitch": 48, "duration": 480, "velocity": 100}, {"time": 51360, "pitch": 53, "duration": 480, "velocity": 100}, {"time": 51360, "pitch": 57, "duration": 480, "velocity": 100}, {"time": 51360, "pitch": 60, "duration": 480, "velocity": 100}, {"time": 51360, "pitch": 65, "duration": 480, "velocity": 100}, {"time": 51840, "pitch": 41, "duration": 240, "velocity": 85}, {"time": 51840, "pitch": 48, "duration": 240, "velocity": 85}, {"time": 51840, "pitch": 53, "duration": 240, "velocity": 85}, {"time": 51840, "pitch": 57, "duration": 240, "velocity": 85}, {"time": 51840, "pitch": 60, "duration": 240, "velocity": 85}, {"time": 51840, "pitch": 65, "duration": 240, "velocity": 85}, {"time": 52080, "pitch": 41, "duration": 240, "velocity": 100}, {"time": 52080, "pitch": 48, "duration": 240, "velocity": 100}, {"time": 52080, "pitch": 53, "duration": 240, "velocity": 100}, {"time": 52080, "pitch": 57, "duration": 240, "velocity": 100}, {"time": 52080, "pitch": 60, "duration": 240, "velocity": 100}, {"time": 52080, "pitch": 65, "duration": 240, "velocity": 100}, {"time": 52320, "pitch": 41, "duration": 240, "velocity": 81}, {"time": 52320, "pitch": 48, "duration": 240, "velocity": 81}, {"time": 52320, "pitch": 53, "duration": 240, "velocity": 81}, {"time": 52320, "pitch": 57, "duration": 240, "velocity": 81}, {"time": 52320, "pitch": 60, "duration": 240, "velocity": 81}, {"time": 52320, "pitch": 65, "duration": 240, "velocity": 81}, {"time": 52560, "pitch": 40, "duration": 480, "velocity": 100}, {"time": 52560, "pitch": 47, "duration": 480, "velocity": 100}, {"time": 52560, "pitch": 52, "duration": 480, "velocity": 100}, {"time": 52560, "pitch": 55, "duration": 480, "velocity": 100}, {"time": 52560, "pitch": 59, "duration": 480, "velocity": 100}, {"time": 52560, "pitch": 64, "duration": 480, "velocity": 100}, {"time": 53280, "pitch": 45, "duration": 480, "velocity": 100}, {"time": 53280, "pitch": 52, "duration": 480, "velocity": 100}, {"time": 53280, "pitch": 57, "duration": 480, "velocity": 100}, {"time": 53280, "pitch": 60, "duration": 480, "velocity": 100}, {"time": 53280, "pitch": 64, "duration": 480, "velocity": 100}, {"time": 53760, "pitch": 45, "duration": 240, "velocity": 85}, {"time": 53760, "pitch": 52, "duration": 240, "velocity": 85}, {"time": 53760, "pitch": 57, "duration": 240, "velocity": 85}, {"time": 53760, "pitch": 60, "duration": 240, "velocity": 85}, {"time": 53760, "pitch": 64, "duration": 240, "velocity": 85}, {"time": 54000, "pitch": 45, "duration": 240, "velocity": 100}, {"time": 54000, "pitch": 52, "duration": 240, "velocity": 100}, {"time": 54000, "pitch": 57, "duration": 240, "velocity": 100}, {"time": 54000, "pitch": 60, "duration": 240, "velocity": 100}, {"time": 54000, "pitch": 64, "duration": 240, "velocity": 100}, {"time": 54240, "pitch": 45, "duration": 240, "velocity": 81}, {"time": 54240, "pitch": 52, "duration": 240, "velocity": 81}, {"time": 54240, "pitch": 57, "duration": 240, "velocity": 81}, {"time": 54240, "pitch": 60, "duration": 240, "velocity": 81}, {"time": 54240, "pitch": 64, "duration": 240, "velocity": 81}, {"time": 54480, "pitch": 50, "duration": 480, "velocity": 100}, {"time": 54480, "pitch": 57, "duration": 480, "velocity": 100}, {"time": 54480, "pitch": 62, "duration": 480, "velocity": 100}, {"time": 54480, "pitch": 65, "duration": 480, "velocity": 100}, {"time": 55200, "pitch": 50, "duration": 480, "velocity": 100}, {"time": 55200, "pitch": 57, "duration": 480, "velocity": 100}, {"time": 55200, "pitch": 62, "duration": 480, "velocity": 100}, {"time": 55200, "pitch": 65, "duration": 480, "velocity": 100}, {"time": 55680, "pitch": 50, "duration": 240, "velocity": 85}, {"time": 55680, "pitch": 57, "duration": 240, "velocity": 85}, {"time": 55680, "pitch": 62, "duration": 240, "velocity": 85}, {"time": 55680, "pitch": 65, "duration": 240, "velocity": 85}, {"time": 55920, "pitch": 50, "duration": 240, "velocity": 100}, {"time": 55920, "pitch": 57, "duration": 240, "velocity": 100}, {"time": 55920, "pitch": 62, "duration": 240, "velocity": 100}, {"time": 55920, "pitch": 65, "duration": 240, "velocity": 100}, {"time": 56160, "pitch": 50, "duration": 240, "velocity": 81}, {"time": 56160, "pitch": 57, "duration": 240, "velocity": 81}, {"time": 56160, "pitch": 62, "duration": 240, "velocity": 81}, {"time": 56160, "pitch": 65, "duration": 240, "velocity": 81}, {"time": 56400, "pitch": 43, "duration": 480, "velocity": 100}, {"time": 56400, "pitch": 50, "duration": 480, "velocity": 100}, {"time": 56400, "pitch": 57, "duration": 480, "velocity": 100}, {"time": 56400, "pitch": 60, "duration": 480, "velocity": 100}, {"time": 56400, "pitch": 65, "duration": 480, "velocity": 100}, {"time": 56880, "pitch": 43, "duration": 480, "velocity": 100}, {"time": 56880, "pitch": 50, "duration": 480, "velocity": 100}, {"time": 56880, "pitch": 57, "duration": 480, "velocity": 100}, {"time": 56880, "pitch": 60, "duration": 480, "velocity": 100}, {"time": 56880, "pitch": 65, "duration": 480, "velocity": 100}, {"time": 57360, "pitch": 43, "duration": 480, "velocity": 99}, {"time": 57360, "pitch": 50, "duration": 480, "velocity": 99}, {"time": 57360, "pitch": 57, "duration": 480, "velocity": 99}, {"time": 57360, "pitch": 60, "duration": 480, "velocity": 99}, {"time": 57360, "pitch": 65, "duration": 480, "velocity": 99}, {"time": 57840, "pitch": 43, "duration": 480, "velocity": 100}, {"time": 57840, "pitch": 50, "duration": 480, "velocity": 100}, {"time": 57840, "pitch": 57, "duration": 480, "velocity": 100}, {"time": 57840, "pitch": 60, "duration": 480, "velocity": 100}, {"time": 57840, "pitch": 65, "duration": 480, "velocity": 100}, {"time": 58320, "pitch": 48, "duration": 480, "velocity": 100}, {"time": 58320, "pitch": 52, "duration": 480, "velocity": 100}, {"time": 58320, "pitch": 55, "duration": 480, "velocity": 100}, {"time": 58320, "pitch": 60, "duration": 480, "velocity": 100}, {"time": 58320, "pitch": 64, "duration": 480, "velocity": 100}, {"time": 58800, "pitch": 48, "duration": 30, "velocity": 100}, {"time": 58800, "pitch": 52, "duration": 30, "velocity": 100}, {"time": 58800, "pitch": 55, "duration": 30, "velocity": 100}, {"time": 59040, "pitch": 47, "duration": 480, "velocity": 100}, {"time": 59040, "pitch": 50, "duration": 480, "velocity": 100}, {"time": 59040, "pitch": 55, "duration": 480, "velocity": 100}, {"time": 59040, "pitch": 62, "duration": 480, "velocity": 100}, {"time": 59040, "pitch": 67, "duration": 480, "velocity": 100}, {"time": 59520, "pitch": 47, "duration": 240, "velocity": 85}, {"time": 59520, "pitch": 50, "duration": 240, "velocity": 85}, {"time": 59520, "pitch": 55, "duration": 240, "velocity": 85}, {"time": 59520, "pitch": 62, "duration": 240, "velocity": 85}, {"time": 59520, "pitch": 67, "duration": 240, "velocity": 85}, {"time": 59760, "pitch": 47, "duration": 240, "velocity": 100}, {"time": 59760, "pitch": 50, "duration": 240, "velocity": 100}, {"time": 59760, "pitch": 55, "duration": 240, "velocity": 100}, {"time": 59760, "pitch": 62, "duration": 240, "velocity": 100}, {"time": 59760, "pitch": 67, "duration": 240, "velocity": 100}, {"time": 60000, "pitch": 47, "duration": 240, "velocity": 83}, {"time": 60000, "pitch": 50, "duration": 240, "velocity": 83}, {"time": 60000, "pitch": 55, "duration": 240, "velocity": 83}, {"time": 60000, "pitch": 62, "duration": 240, "velocity": 83}, {"time": 60000, "pitch": 67, "duration": 240, "velocity": 83}, {"time": 60240, "pitch": 45, "duration": 480, "velocity": 100}, {"time": 60240, "pitch": 52, "duration": 480, "velocity": 100}, {"time": 60240, "pitch": 57, "duration": 480, "velocity": 100}, {"time": 60240, "pitch": 60, "duration": 480, "velocity": 100}, {"time": 60240, "pitch": 64, "duration": 480, "velocity": 100}, {"time": 60720, "pitch": 45, "duration": 30, "velocity": 100}, {"time": 60720, "pitch": 52, "duration": 30, "velocity": 100}, {"time": 60720, "pitch": 57, "duration": 30, "velocity": 100}, {"time": 60960, "pitch": 43, "duration": 480, "velocity": 100}, {"time": 60960, "pitch": 47, "duration": 480, "velocity": 100}, {"time": 60960, "pitch": 50, "duration": 480, "velocity": 100}, {"time": 60960, "pitch": 55, "duration": 480, "velocity": 100}, {"time": 60960, "pitch": 62, "duration": 480, "velocity": 100}, {"time": 60960, "pitch": 67, "duration": 480, "velocity": 100}, {"time": 61440, "pitch": 43, "duration": 240, "velocity": 85}, {"time": 61440, "pitch": 47, "duration": 240, "velocity": 85}, {"time": 61440, "pitch": 50, "duration": 240, "velocity": 85}, {"time": 61440, "pitch": 55, "duration": 240, "velocity": 85}, {"time": 61440, "pitch": 62, "duration": 240, "velocity": 85}, {"time": 61440, "pitch": 67, "duration": 240, "velocity": 85}, {"time": 61680, "pitch": 43, "duration": 240, "velocity": 100}, {"time": 61680, "pitch": 47, "duration": 240, "velocity": 100}, {"time": 61680, "pitch": 50, "duration": 240, "velocity": 100}, {"time": 61680, "pitch": 55, "duration": 240, "velocity": 85}, {"time": 61680, "pitch": 62, "duration": 240, "velocity": 100}, {"time": 61680, "pitch": 67, "duration": 240, "velocity": 100}, {"time": 61920, "pitch": 43, "duration": 240, "velocity": 83}, {"time": 61920, "pitch": 47, "duration": 240, "velocity": 83}, {"time": 61920, "pitch": 50, "duration": 240, "velocity": 83}, {"time": 61920, "pitch": 55, "duration": 240, "velocity": 85}, {"time": 61920, "pitch": 62, "duration": 240, "velocity": 83}, {"time": 61920, "pitch": 67, "duration": 240, "velocity": 83}, {"time": 62160, "pitch": 41, "duration": 480, "velocity": 100}, {"time": 62160, "pitch": 48, "duration": 480, "velocity": 100}, {"time": 62160, "pitch": 53, "duration": 480, "velocity": 100}, {"time": 62160, "pitch": 57, "duration": 480, "velocity": 100}, {"time": 62160, "pitch": 60, "duration": 480, "velocity": 100}, {"time": 62160, "pitch": 65, "duration": 480, "velocity": 100}, {"time": 62640, "pitch": 41, "duration": 30, "velocity": 100}, {"time": 62640, "pitch": 48, "duration": 30, "velocity": 100}, {"time": 62640, "pitch": 53, "duration": 30, "velocity": 100}, {"time": 62880, "pitch": 40, "duration": 480, "velocity": 100}, {"time": 62880, "pitch": 47, "duration": 480, "velocity": 100}, {"time": 62880, "pitch": 52, "duration": 480, "velocity": 100}, {"time": 62880, "pitch": 55, "duration": 480, "velocity": 100}, {"time": 62880, "pitch": 59, "duration": 480, "velocity": 100}, {"time": 62880, "pitch": 64, "duration": 480, "velocity": 100}, {"time": 63360, "pitch": 40, "duration": 240, "velocity": 85}, {"time": 63360, "pitch": 47, "duration": 240, "velocity": 85}, {"time": 63360, "pitch": 52, "duration": 240, "velocity": 85}, {"time": 63360, "pitch": 55, "duration": 240, "velocity": 85}, {"time": 63360, "pitch": 59, "duration": 240, "velocity": 85}, {"time": 63360, "pitch": 64, "duration": 240, "velocity": 85}, {"time": 63600, "pitch": 40, "duration": 240, "velocity": 85}, {"time": 63600, "pitch": 47, "duration": 240, "velocity": 100}, {"time": 63600, "pitch": 52, "duration": 240, "velocity": 100}, {"time": 63600, "pitch": 55, "duration": 240, "velocity": 100}, {"time": 63600, "pitch": 59, "duration": 240, "velocity": 100}, {"time": 63600, "pitch": 64, "duration": 240, "velocity": 100}, {"time": 63840, "pitch": 40, "duration": 240, "velocity": 85}, {"time": 63840, "pitch": 47, "duration": 240, "velocity": 83}, {"time": 63840, "pitch": 52, "duration": 240, "velocity": 83}, {"time": 63840, "pitch": 55, "duration": 240, "velocity": 83}, {"time": 63840, "pitch": 59, "duration": 240, "velocity": 83}, {"time": 63840, "pitch": 64, "duration": 240, "velocity": 83}, {"time": 64080, "pitch": 50, "duration": 480, "velocity": 100}, {"time": 64080, "pitch": 57, "duration": 480, "velocity": 100}, {"time": 64080, "pitch": 60, "duration": 480, "velocity": 100}, {"time": 64080, "pitch": 65, "duration": 480, "velocity": 100}, {"time": 64560, "pitch": 50, "duration": 30, "velocity": 100}, {"time": 64560, "pitch": 57, "duration": 30, "velocity": 100}, {"time": 64560, "pitch": 60, "duration": 30, "velocity": 100}, {"time": 64800, "pitch": 43, "duration": 480, "velocity": 100}, {"time": 64800, "pitch": 47, "duration": 480, "velocity": 100}, {"time": 64800, "pitch": 50, "duration": 480, "velocity": 100}, {"time": 64800, "pitch": 55, "duration": 480, "velocity": 100}, {"time": 64800, "pitch": 62, "duration": 480, "velocity": 100}, {"time": 64800, "pitch": 67, "duration": 480, "velocity": 100}, {"time": 65280, "pitch": 43, "duration": 240, "velocity": 85}, {"time": 65280, "pitch": 47, "duration": 240, "velocity": 85}, {"time": 65280, "pitch": 50, "duration": 240, "velocity": 85}, {"time": 65280, "pitch": 55, "duration": 240, "velocity": 85}, {"time": 65280, "pitch": 62, "duration": 240, "velocity": 85}, {"time": 65280, "pitch": 67, "duration": 240, "velocity": 85}, {"time": 65520, "pitch": 41, "duration": 240, "velocity": 100}, {"time": 65520, "pitch": 47, "duration": 240, "velocity": 100}, {"time": 65520, "pitch": 50, "duration": 240, "velocity": 100}, {"time": 65520, "pitch": 55, "duration": 240, "velocity": 85}, {"time": 65520, "pitch": 62, "duration": 240, "velocity": 100}, {"time": 65520, "pitch": 67, "duration": 240, "velocity": 100}, {"time": 65760, "pitch": 41, "duration": 240, "velocity": 83}, {"time": 65760, "pitch": 47, "duration": 240, "velocity": 83}, {"time": 65760, "pitch": 50, "duration": 240, "velocity": 83}, {"time": 65760, "pitch": 55, "duration": 240, "velocity": 85}, {"time": 65760, "pitch": 62, "duration": 240, "velocity": 83}, {"time": 65760, "pitch": 67, "duration": 240, "velocity": 83}, {"time": 66000, "pitch": 40, "duration": 480, "velocity": 100}, {"time": 66000, "pitch": 47, "duration": 480, "velocity": 100}, {"time": 66000, "pitch": 52, "duration": 480, "velocity": 100}, {"time": 66000, "pitch": 55, "duration": 480, "velocity": 100}, {"time": 66000, "pitch": 59, "duration": 480, "velocity": 100}, {"time": 66000, "pitch": 64, "duration": 480, "velocity": 100}, {"time": 66480, "pitch": 40, "duration": 30, "velocity": 100}, {"time": 66480, "pitch": 47, "duration": 30, "velocity": 100}, {"time": 66480, "pitch": 52, "duration": 30, "velocity": 100}, {"time": 66720, "pitch": 40, "duration": 480, "velocity": 100}, {"time": 66720, "pitch": 47, "duration": 480, "velocity": 100}, {"time": 66720, "pitch": 52, "duration": 480, "velocity": 100}, {"time": 66720, "pitch": 55, "duration": 480, "velocity": 100}, {"time": 66720, "pitch": 59, "duration": 480, "velocity": 83}, {"time": 66720, "pitch": 64, "duration": 480, "velocity": 100}, {"time": 67200, "pitch": 40, "duration": 240, "velocity": 85}, {"time": 67200, "pitch": 47, "duration": 240, "velocity": 85}, {"time": 67200, "pitch": 52, "duration": 240, "velocity": 85}, {"time": 67200, "pitch": 55, "duration": 240, "velocity": 85}, {"time": 67200, "pitch": 59, "duration": 240, "velocity": 85}, {"time": 67200, "pitch": 64, "duration": 240, "velocity": 85}, {"time": 67440, "pitch": 40, "duration": 240, "velocity": 100}, {"time": 67440, "pitch": 47, "duration": 240, "velocity": 100}, {"time": 67440, "pitch": 52, "duration": 240, "velocity": 100}, {"time": 67440, "pitch": 55, "duration": 240, "velocity": 100}, {"time": 67440, "pitch": 59, "duration": 240, "velocity": 100}, {"time": 67440, "pitch": 64, "duration": 240, "velocity": 100}, {"time": 67680, "pitch": 40, "duration": 240, "velocity": 83}, {"time": 67680, "pitch": 47, "duration": 240, "velocity": 83}, {"time": 67680, "pitch": 52, "duration": 240, "velocity": 83}, {"time": 67680, "pitch": 55, "duration": 240, "velocity": 83}, {"time": 67680, "pitch": 59, "duration": 240, "velocity": 83}, {"time": 67680, "pitch": 64, "duration": 240, "velocity": 83}, {"time": 67920, "pitch": 45, "duration": 480, "velocity": 100}, {"time": 67920, "pitch": 52, "duration": 480, "velocity": 100}, {"time": 67920, "pitch": 57, "duration": 480, "velocity": 100}, {"time": 67920, "pitch": 60, "duration": 480, "velocity": 100}, {"time": 67920, "pitch": 64, "duration": 480, "velocity": 100}, {"time": 68400, "pitch": 45, "duration": 30, "velocity": 100}, {"time": 68400, "pitch": 52, "duration": 30, "velocity": 100}, {"time": 68400, "pitch": 57, "duration": 30, "velocity": 100}, {"time": 68640, "pitch": 43, "duration": 480, "velocity": 100}, {"time": 68640, "pitch": 47, "duration": 480, "velocity": 100}, {"time": 68640, "pitch": 50, "duration": 480, "velocity": 100}, {"time": 68640, "pitch": 55, "duration": 480, "velocity": 100}, {"time": 68640, "pitch": 62, "duration": 480, "velocity": 100}, {"time": 68640, "pitch": 67, "duration": 480, "velocity": 100}, {"time": 69120, "pitch": 43, "duration": 240, "velocity": 85}, {"time": 69120, "pitch": 47, "duration": 240, "velocity": 85}, {"time": 69120, "pitch": 50, "duration": 240, "velocity": 85}, {"time": 69120, "pitch": 55, "duration": 240, "velocity": 85}, {"time": 69120, "pitch": 62, "duration": 240, "velocity": 85}, {"time": 69120, "pitch": 67, "duration": 240, "velocity": 85}, {"time": 69360, "pitch": 43, "duration": 240, "velocity": 100}, {"time": 69360, "pitch": 47, "duration": 240, "velocity": 100}, {"time": 69360, "pitch": 50, "duration": 240, "velocity": 100}, {"time": 69360, "pitch": 55, "duration": 240, "velocity": 85}, {"time": 69360, "pitch": 62, "duration": 240, "velocity": 100}, {"time": 69360, "pitch": 67, "duration": 240, "velocity": 100}, {"time": 69600, "pitch": 43, "duration": 240, "velocity": 83}, {"time": 69600, "pitch": 47, "duration": 240, "velocity": 83}, {"time": 69600, "pitch": 50, "duration": 240, "velocity": 83}, {"time": 69600, "pitch": 55, "duration": 240, "velocity": 85}, {"time": 69600, "pitch": 62, "duration": 240, "velocity": 83}, {"time": 69600, "pitch": 67, "duration": 240, "velocity": 83}, {"time": 69840, "pitch": 50, "duration": 480, "velocity": 100}, {"time": 69840, "pitch": 57, "duration": 480, "velocity": 100}, {"time": 69840, "pitch": 60, "duration": 480, "velocity": 100}, {"time": 69840, "pitch": 65, "duration": 480, "velocity": 100}, {"time": 70320, "pitch": 50, "duration": 30, "velocity": 100}, {"time": 70320, "pitch": 57, "duration": 30, "velocity": 100}, {"time": 70320, "pitch": 60, "duration": 30, "velocity": 100}, {"time": 70560, "pitch": 50, "duration": 480, "velocity": 100}, {"time": 70560, "pitch": 57, "duration": 480, "velocity": 100}, {"time": 70560, "pitch": 60, "duration": 480, "velocity": 100}, {"time": 70560, "pitch": 65, "duration": 480, "velocity": 100}, {"time": 71040, "pitch": 50, "duration": 240, "velocity": 85}, {"time": 71040, "pitch": 57, "duration": 240, "velocity": 85}, {"time": 71040, "pitch": 60, "duration": 240, "velocity": 85}, {"time": 71040, "pitch": 65, "duration": 240, "velocity": 85}, {"time": 71280, "pitch": 50, "duration": 240, "velocity": 100}, {"time": 71280, "pitch": 57, "duration": 240, "velocity": 100}, {"time": 71280, "pitch": 60, "duration": 240, "velocity": 100}, {"time": 71280, "pitch": 65, "duration": 240, "velocity": 100}, {"time": 71520, "pitch": 50, "duration": 240, "velocity": 83}, {"time": 71520, "pitch": 57, "duration": 240, "velocity": 83}, {"time": 71520, "pitch": 60, "duration": 240, "velocity": 83}, {"time": 71520, "pitch": 65, "duration": 240, "velocity": 83}, {"time": 71760, "pitch": 43, "duration": 480, "velocity": 100}, {"time": 71760, "pitch": 50, "duration": 480, "velocity": 100}, {"time": 71760, "pitch": 57, "duration": 480, "velocity": 100}, {"time": 71760, "pitch": 60, "duration": 480, "velocity": 100}, {"time": 71760, "pitch": 65, "duration": 480, "velocity": 100}, {"time": 72240, "pitch": 43, "duration": 480, "velocity": 100}, {"time": 72240, "pitch": 50, "duration": 480, "velocity": 100}, {"time": 72240, "pitch": 57, "duration": 480, "velocity": 100}, {"time": 72240, "pitch": 60, "duration": 480, "velocity": 100}, {"time": 72240, "pitch": 65, "duration": 480, "velocity": 100}, {"time": 72720, "pitch": 43, "duration": 480, "velocity": 99}, {"time": 72720, "pitch": 50, "duration": 480, "velocity": 99}, {"time": 72720, "pitch": 57, "duration": 480, "velocity": 99}, {"time": 72720, "pitch": 60, "duration": 480, "velocity": 99}, {"time": 72720, "pitch": 65, "duration": 480, "velocity": 99}, {"time": 73200, "pitch": 43, "duration": 480, "velocity": 100}, {"time": 73200, "pitch": 50, "duration": 480, "velocity": 100}, {"time": 73200, "pitch": 57, "duration": 480, "velocity": 100}, {"time": 73200, "pitch": 60, "duration": 480, "velocity": 100}, {"time": 73200, "pitch": 65, "duration": 480, "velocity": 100}, {"time": 73680, "pitch": 48, "duration": 480, "velocity": 100}, {"time": 73680, "pitch": 52, "duration": 480, "velocity": 100}, {"time": 73680, "pitch": 55, "duration": 480, "velocity": 100}, {"time": 73680, "pitch": 60, "duration": 480, "velocity": 100}, {"time": 73680, "pitch": 64, "duration": 480, "velocity": 100}, {"time": 74160, "pitch": 48, "duration": 30, "velocity": 100}, {"time": 74160, "pitch": 52, "duration": 30, "velocity": 100}, {"time": 74160, "pitch": 55, "duration": 30, "velocity": 100}, {"time": 74400, "pitch": 47, "duration": 480, "velocity": 100}, {"time": 74400, "pitch": 50, "duration": 480, "velocity": 100}, {"time": 74400, "pitch": 55, "duration": 480, "velocity": 100}, {"time": 74400, "pitch": 62, "duration": 480, "velocity": 100}, {"time": 74400, "pitch": 67, "duration": 480, "velocity": 100}, {"time": 74880, "pitch": 47, "duration": 240, "velocity": 85}, {"time": 74880, "pitch": 50, "duration": 240, "velocity": 85}, {"time": 74880, "pitch": 55, "duration": 240, "velocity": 85}, {"time": 74880, "pitch": 62, "duration": 240, "velocity": 85}, {"time": 74880, "pitch": 67, "duration": 240, "velocity": 85}, {"time": 75120, "pitch": 47, "duration": 240, "velocity": 100}, {"time": 75120, "pitch": 50, "duration": 240, "velocity": 100}, {"time": 75120, "pitch": 55, "duration": 240, "velocity": 100}, {"time": 75120, "pitch": 62, "duration": 240, "velocity": 100}, {"time": 75120, "pitch": 67, "duration": 240, "velocity": 100}, {"time": 75360, "pitch": 47, "duration": 240, "velocity": 83}, {"time": 75360, "pitch": 50, "duration": 240, "velocity": 83}, {"time": 75360, "pitch": 55, "duration": 240, "velocity": 83}, {"time": 75360, "pitch": 62, "duration": 240, "velocity": 83}, {"time": 75360, "pitch": 67, "duration": 240, "velocity": 83}, {"time": 75600, "pitch": 45, "duration": 480, "velocity": 100}, {"time": 75600, "pitch": 52, "duration": 480, "velocity": 100}, {"time": 75600, "pitch": 57, "duration": 480, "velocity": 100}, {"time": 75600, "pitch": 60, "duration": 480, "velocity": 100}, {"time": 75600, "pitch": 64, "duration": 480, "velocity": 100}, {"time": 76080, "pitch": 45, "duration": 30, "velocity": 100}, {"time": 76080, "pitch": 52, "duration": 30, "velocity": 100}, {"time": 76080, "pitch": 57, "duration": 30, "velocity": 100}, {"time": 76320, "pitch": 43, "duration": 480, "velocity": 100}, {"time": 76320, "pitch": 47, "duration": 480, "velocity": 100}, {"time": 76320, "pitch": 50, "duration": 480, "velocity": 100}, {"time": 76320, "pitch": 55, "duration": 480, "velocity": 100}, {"time": 76320, "pitch": 62, "duration": 480, "velocity": 100}, {"time": 76320, "pitch": 67, "duration": 480, "velocity": 100}, {"time": 76800, "pitch": 43, "duration": 240, "velocity": 85}, {"time": 76800, "pitch": 47, "duration": 240, "velocity": 85}, {"time": 76800, "pitch": 50, "duration": 240, "velocity": 85}, {"time": 76800, "pitch": 55, "duration": 240, "velocity": 85}, {"time": 76800, "pitch": 62, "duration": 240, "velocity": 85}, {"time": 76800, "pitch": 67, "duration": 240, "velocity": 85}, {"time": 77040, "pitch": 43, "duration": 240, "velocity": 100}, {"time": 77040, "pitch": 47, "duration": 240, "velocity": 100}, {"time": 77040, "pitch": 50, "duration": 240, "velocity": 100}, {"time": 77040, "pitch": 55, "duration": 240, "velocity": 85}, {"time": 77040, "pitch": 62, "duration": 240, "velocity": 100}, {"time": 77040, "pitch": 67, "duration": 240, "velocity": 100}, {"time": 77280, "pitch": 43, "duration": 240, "velocity": 83}, {"time": 77280, "pitch": 47, "duration": 240, "velocity": 83}, {"time": 77280, "pitch": 50, "duration": 240, "velocity": 83}, {"time": 77280, "pitch": 55, "duration": 240, "velocity": 85}, {"time": 77280, "pitch": 62, "duration": 240, "velocity": 83}, {"time": 77280, "pitch": 67, "duration": 240, "velocity": 83}, {"time": 77520, "pitch": 41, "duration": 480, "velocity": 100}, {"time": 77520, "pitch": 48, "duration": 480, "velocity": 100}, {"time": 77520, "pitch": 53, "duration": 480, "velocity": 100}, {"time": 77520, "pitch": 57, "duration": 480, "velocity": 100}, {"time": 77520, "pitch": 60, "duration": 480, "velocity": 100}, {"time": 77520, "pitch": 65, "duration": 480, "velocity": 100}, {"time": 78000, "pitch": 41, "duration": 30, "velocity": 100}, {"time": 78000, "pitch": 48, "duration": 30, "velocity": 100}, {"time": 78000, "pitch": 53, "duration": 30, "velocity": 100}, {"time": 78240, "pitch": 40, "duration": 480, "velocity": 100}, {"time": 78240, "pitch": 47, "duration": 480, "velocity": 100}, {"time": 78240, "pitch": 52, "duration": 480, "velocity": 100}, {"time": 78240, "pitch": 55, "duration": 480, "velocity": 100}, {"time": 78240, "pitch": 59, "duration": 480, "velocity": 100}, {"time": 78240, "pitch": 64, "duration": 480, "velocity": 100}, {"time": 78720, "pitch": 40, "duration": 240, "velocity": 85}, {"time": 78720, "pitch": 47, "duration": 240, "velocity": 85}, {"time": 78720, "pitch": 52, "duration": 240, "velocity": 85}, {"time": 78720, "pitch": 55, "duration": 240, "velocity": 85}, {"time": 78720, "pitch": 59, "duration": 240, "velocity": 85}, {"time": 78720, "pitch": 64, "duration": 240, "velocity": 85}, {"time": 78960, "pitch": 40, "duration": 240, "velocity": 85}, {"time": 78960, "pitch": 47, "duration": 240, "velocity": 100}, {"time": 78960, "pitch": 52, "duration": 240, "velocity": 100}, {"time": 78960, "pitch": 55, "duration": 240, "velocity": 100}, {"time": 78960, "pitch": 59, "duration": 240, "velocity": 100}, {"time": 78960, "pitch": 64, "duration": 240, "velocity": 100}, {"time": 79200, "pitch": 40, "duration": 240, "velocity": 85}, {"time": 79200, "pitch": 47, "duration": 240, "velocity": 83}, {"time": 79200, "pitch": 52, "duration": 240, "velocity": 83}, {"time": 79200, "pitch": 55, "duration": 240, "velocity": 83}, {"time": 79200, "pitch": 59, "duration": 240, "velocity": 83}, {"time": 79200, "pitch": 64, "duration": 240, "velocity": 83}, {"time": 79440, "pitch": 50, "duration": 480, "velocity": 100}, {"time": 79440, "pitch": 57, "duration": 480, "velocity": 100}, {"time": 79440, "pitch": 60, "duration": 480, "velocity": 100}, {"time": 79440, "pitch": 65, "duration": 480, "velocity": 100}, {"time": 79920, "pitch": 50, "duration": 30, "velocity": 100}, {"time": 79920, "pitch": 57, "duration": 30, "velocity": 100}, {"time": 79920, "pitch": 60, "duration": 30, "velocity": 100}, {"time": 80160, "pitch": 43, "duration": 480, "velocity": 100}, {"time": 80160, "pitch": 47, "duration": 480, "velocity": 100}, {"time": 80160, "pitch": 50, "duration": 480, "velocity": 100}, {"time": 80160, "pitch": 55, "duration": 480, "velocity": 100}, {"time": 80160, "pitch": 62, "duration": 480, "velocity": 100}, {"time": 80160, "pitch": 67, "duration": 480, "velocity": 100}, {"time": 80640, "pitch": 43, "duration": 240, "velocity": 85}, {"time": 80640, "pitch": 47, "duration": 240, "velocity": 85}, {"time": 80640, "pitch": 50, "duration": 240, "velocity": 85}, {"time": 80640, "pitch": 55, "duration": 240, "velocity": 85}, {"time": 80640, "pitch": 62, "duration": 240, "velocity": 85}, {"time": 80640, "pitch": 67, "duration": 240, "velocity": 85}, {"time": 80880, "pitch": 41, "duration": 240, "velocity": 100}, {"time": 80880, "pitch": 47, "duration": 240, "velocity": 100}, {"time": 80880, "pitch": 50, "duration": 240, "velocity": 100}, {"time": 80880, "pitch": 55, "duration": 240, "velocity": 85}, {"time": 80880, "pitch": 62, "duration": 240, "velocity": 100}, {"time": 80880, "pitch": 67, "duration": 240, "velocity": 100}, {"time": 81120, "pitch": 41, "duration": 240, "velocity": 83}, {"time": 81120, "pitch": 47, "duration": 240, "velocity": 83}, {"time": 81120, "pitch": 50, "duration": 240, "velocity": 83}, {"time": 81120, "pitch": 55, "duration": 240, "velocity": 85}, {"time": 81120, "pitch": 62, "duration": 240, "velocity": 83}, {"time": 81120, "pitch": 67, "duration": 240, "velocity": 83}, {"time": 81360, "pitch": 40, "duration": 480, "velocity": 100}, {"time": 81360, "pitch": 47, "duration": 480, "velocity": 100}, {"time": 81360, "pitch": 52, "duration": 480, "velocity": 100}, {"time": 81360, "pitch": 55, "duration": 480, "velocity": 100}, {"time": 81360, "pitch": 59, "duration": 480, "velocity": 100}, {"time": 81360, "pitch": 64, "duration": 480, "velocity": 100}, {"time": 81840, "pitch": 40, "duration": 30, "velocity": 100}, {"time": 81840, "pitch": 47, "duration": 30, "velocity": 100}, {"time": 81840, "pitch": 52, "duration": 30, "velocity": 100}, {"time": 82080, "pitch": 40, "duration": 480, "velocity": 100}, {"time": 82080, "pitch": 47, "duration": 480, "velocity": 100}, {"time": 82080, "pitch": 52, "duration": 480, "velocity": 100}, {"time": 82080, "pitch": 55, "duration": 480, "velocity": 100}, {"time": 82080, "pitch": 59, "duration": 480, "velocity": 83}, {"time": 82080, "pitch": 64, "duration": 480, "velocity": 100}, {"time": 82560, "pitch": 40, "duration": 240, "velocity": 85}, {"time": 82560, "pitch": 47, "duration": 240, "velocity": 85}, {"time": 82560, "pitch": 52, "duration": 240, "velocity": 85}, {"time": 82560, "pitch": 55, "duration": 240, "velocity": 85}, {"time": 82560, "pitch": 59, "duration": 240, "velocity": 85}, {"time": 82560, "pitch": 64, "duration": 240, "velocity": 85}, {"time": 82800, "pitch": 40, "duration": 240, "velocity": 100}, {"time": 82800, "pitch": 47, "duration": 240, "velocity": 100}, {"time": 82800, "pitch": 52, "duration": 240, "velocity": 100}, {"time": 82800, "pitch": 55, "duration": 240, "velocity": 100}, {"time": 82800, "pitch": 59, "duration": 240, "velocity": 100}, {"time": 82800, "pitch": 64, "duration": 240, "velocity": 100}, {"time": 83040, "pitch": 40, "duration": 240, "velocity": 83}, {"time": 83040, "pitch": 47, "duration": 240, "velocity": 83}, {"time": 83040, "pitch": 52, "duration": 240, "velocity": 83}, {"time": 83040, "pitch": 55, "duration": 240, "velocity": 83}, {"time": 83040, "pitch": 59, "duration": 240, "velocity": 83}, {"time": 83040, "pitch": 64, "duration": 240, "velocity": 83}, {"time": 83280, "pitch": 45, "duration": 480, "velocity": 100}, {"time": 83280, "pitch": 52, "duration": 480, "velocity": 100}, {"time": 83280, "pitch": 57, "duration": 480, "velocity": 100}, {"time": 83280, "pitch": 60, "duration": 480, "velocity": 100}, {"time": 83280, "pitch": 64, "duration": 480, "velocity": 100}, {"time": 83760, "pitch": 45, "duration": 30, "velocity": 100}, {"time": 83760, "pitch": 52, "duration": 30, "velocity": 100}, {"time": 83760, "pitch": 57, "duration": 30, "velocity": 100}, {"time": 84000, "pitch": 43, "duration": 480, "velocity": 100}, {"time": 84000, "pitch": 47, "duration": 480, "velocity": 100}, {"time": 84000, "pitch": 50, "duration": 480, "velocity": 100}, {"time": 84000, "pitch": 55, "duration": 480, "velocity": 100}, {"time": 84000, "pitch": 62, "duration": 480, "velocity": 100}, {"time": 84000, "pitch": 67, "duration": 480, "velocity": 100}, {"time": 84480, "pitch": 43, "duration": 240, "velocity": 85}, {"time": 84480, "pitch": 47, "duration": 240, "velocity": 85}, {"time": 84480, "pitch": 50, "duration": 240, "velocity": 85}, {"time": 84480, "pitch": 55, "duration": 240, "velocity": 85}, {"time": 84480, "pitch": 62, "duration": 240, "velocity": 85}, {"time": 84480, "pitch": 67, "duration": 240, "velocity": 85}, {"time": 84720, "pitch": 43, "duration": 240, "velocity": 100}, {"time": 84720, "pitch": 47, "duration": 240, "velocity": 100}, {"time": 84720, "pitch": 50, "duration": 240, "velocity": 100}, {"time": 84720, "pitch": 55, "duration": 240, "velocity": 85}, {"time": 84720, "pitch": 62, "duration": 240, "velocity": 100}, {"time": 84720, "pitch": 67, "duration": 240, "velocity": 100}, {"time": 84960, "pitch": 43, "duration": 240, "velocity": 83}, {"time": 84960, "pitch": 47, "duration": 240, "velocity": 83}, {"time": 84960, "pitch": 50, "duration": 240, "velocity": 83}, {"time": 84960, "pitch": 55, "duration": 240, "velocity": 85}, {"time": 84960, "pitch": 62, "duration": 240, "velocity": 83}, {"time": 84960, "pitch": 67, "duration": 240, "velocity": 83}, {"time": 85200, "pitch": 50, "duration": 480, "velocity": 100}, {"time": 85200, "pitch": 57, "duration": 480, "velocity": 100}, {"time": 85200, "pitch": 60, "duration": 480, "velocity": 100}, {"time": 85200, "pitch": 65, "duration": 480, "velocity": 100}, {"time": 85680, "pitch": 50, "duration": 30, "velocity": 100}, {"time": 85680, "pitch": 57, "duration": 30, "velocity": 100}, {"time": 85680, "pitch": 60, "duration": 30, "velocity": 100}, {"time": 85920, "pitch": 50, "duration": 480, "velocity": 100}, {"time": 85920, "pitch": 57, "duration": 480, "velocity": 100}, {"time": 85920, "pitch": 60, "duration": 480, "velocity": 100}, {"time": 85920, "pitch": 65, "duration": 480, "velocity": 100}, {"time": 86400, "pitch": 50, "duration": 240, "velocity": 85}, {"time": 86400, "pitch": 57, "duration": 240, "velocity": 85}, {"time": 86400, "pitch": 60, "duration": 240, "velocity": 85}, {"time": 86400, "pitch": 65, "duration": 240, "velocity": 85}, {"time": 86640, "pitch": 50, "duration": 240, "velocity": 100}, {"time": 86640, "pitch": 57, "duration": 240, "velocity": 100}, {"time": 86640, "pitch": 60, "duration": 240, "velocity": 100}, {"time": 86640, "pitch": 65, "duration": 240, "velocity": 100}, {"time": 86880, "pitch": 50, "duration": 240, "velocity": 83}, {"time": 86880, "pitch": 57, "duration": 240, "velocity": 83}, {"time": 86880, "pitch": 60, "duration": 240, "velocity": 83}, {"time": 86880, "pitch": 65, "duration": 240, "velocity": 83}, {"time": 87120, "pitch": 43, "duration": 480, "velocity": 100}, {"time": 87120, "pitch": 50, "duration": 480, "velocity": 100}, {"time": 87120, "pitch": 57, "duration": 480, "velocity": 100}, {"time": 87120, "pitch": 60, "duration": 480, "velocity": 100}, {"time": 87120, "pitch": 65, "duration": 480, "velocity": 100}, {"time": 87600, "pitch": 43, "duration": 480, "velocity": 100}, {"time": 87600, "pitch": 50, "duration": 480, "velocity": 100}, {"time": 87600, "pitch": 57, "duration": 480, "velocity": 100}, {"time": 87600, "pitch": 60, "duration": 480, "velocity": 100}, {"time": 87600, "pitch": 65, "duration": 480, "velocity": 100}, {"time": 88080, "pitch": 43, "duration": 480, "velocity": 99}, {"time": 88080, "pitch": 50, "duration": 480, "velocity": 99}, {"time": 88080, "pitch": 57, "duration": 480, "velocity": 99}, {"time": 88080, "pitch": 60, "duration": 480, "velocity": 99}, {"time": 88080, "pitch": 65, "duration": 480, "velocity": 99}, {"time": 88560, "pitch": 43, "duration": 480, "velocity": 100}, {"time": 88560, "pitch": 50, "duration": 480, "velocity": 100}, {"time": 88560, "pitch": 57, "duration": 480, "velocity": 100}, {"time": 88560, "pitch": 60, "duration": 480, "velocity": 100}, {"time": 88560, "pitch": 65, "duration": 480, "velocity": 100}, {"time": 89040, "pitch": 48, "duration": 480, "velocity": 100}, {"time": 89040, "pitch": 52, "duration": 480, "velocity": 100}, {"time": 89040, "pitch": 55, "duration": 480, "velocity": 100}, {"time": 89040, "pitch": 60, "duration": 480, "velocity": 100}, {"time": 89040, "pitch": 64, "duration": 480, "velocity": 100}, {"time": 89520, "pitch": 48, "duration": 30, "velocity": 100}, {"time": 89520, "pitch": 52, "duration": 30, "velocity": 100}, {"time": 89520, "pitch": 55, "duration": 30, "velocity": 100}, {"time": 89760, "pitch": 47, "duration": 480, "velocity": 100}, {"time": 89760, "pitch": 50, "duration": 480, "velocity": 100}, {"time": 89760, "pitch": 55, "duration": 480, "velocity": 100}, {"time": 89760, "pitch": 62, "duration": 480, "velocity": 100}, {"time": 89760, "pitch": 67, "duration": 480, "velocity": 100}, {"time": 90240, "pitch": 47, "duration": 240, "velocity": 85}, {"time": 90240, "pitch": 50, "duration": 240, "velocity": 85}, {"time": 90240, "pitch": 55, "duration": 240, "velocity": 85}, {"time": 90240, "pitch": 62, "duration": 240, "velocity": 85}, {"time": 90240, "pitch": 67, "duration": 240, "velocity": 85}, {"time": 90480, "pitch": 47, "duration": 240, "velocity": 100}, {"time": 90480, "pitch": 50, "duration": 240, "velocity": 100}, {"time": 90480, "pitch": 55, "duration": 240, "velocity": 100}, {"time": 90480, "pitch": 62, "duration": 240, "velocity": 100}, {"time": 90480, "pitch": 67, "duration": 240, "velocity": 100}, {"time": 90720, "pitch": 47, "duration": 240, "velocity": 83}, {"time": 90720, "pitch": 50, "duration": 240, "velocity": 83}, {"time": 90720, "pitch": 55, "duration": 240, "velocity": 83}, {"time": 90720, "pitch": 62, "duration": 240, "velocity": 83}, {"time": 90720, "pitch": 67, "duration": 240, "velocity": 83}, {"time": 90960, "pitch": 45, "duration": 480, "velocity": 100}, {"time": 90960, "pitch": 52, "duration": 480, "velocity": 100}, {"time": 90960, "pitch": 57, "duration": 480, "velocity": 100}, {"time": 90960, "pitch": 60, "duration": 480, "velocity": 100}, {"time": 90960, "pitch": 64, "duration": 480, "velocity": 100}, {"time": 91440, "pitch": 45, "duration": 30, "velocity": 100}, {"time": 91440, "pitch": 52, "duration": 30, "velocity": 100}, {"time": 91440, "pitch": 57, "duration": 30, "velocity": 100}, {"time": 91680, "pitch": 43, "duration": 480, "velocity": 100}, {"time": 91680, "pitch": 47, "duration": 480, "velocity": 100}, {"time": 91680, "pitch": 50, "duration": 480, "velocity": 100}, {"time": 91680, "pitch": 55, "duration": 480, "velocity": 100}, {"time": 91680, "pitch": 62, "duration": 480, "velocity": 100}, {"time": 91680, "pitch": 67, "duration": 480, "velocity": 100}, {"time": 92160, "pitch": 43, "duration": 240, "velocity": 85}, {"time": 92160, "pitch": 47, "duration": 240, "velocity": 85}, {"time": 92160, "pitch": 50, "duration": 240, "velocity": 85}, {"time": 92160, "pitch": 55, "duration": 240, "velocity": 85}, {"time": 92160, "pitch": 62, "duration": 240, "velocity": 85}, {"time": 92160, "pitch": 67, "duration": 240, "velocity": 85}, {"time": 92400, "pitch": 43, "duration": 240, "velocity": 100}, {"time": 92400, "pitch": 47, "duration": 240, "velocity": 100}, {"time": 92400, "pitch": 50, "duration": 240, "velocity": 100}, {"time": 92400, "pitch": 55, "duration": 240, "velocity": 85}, {"time": 92400, "pitch": 62, "duration": 240, "velocity": 100}, {"time": 92400, "pitch": 67, "duration": 240, "velocity": 100}, {"time": 92640, "pitch": 43, "duration": 240, "velocity": 83}, {"time": 92640, "pitch": 47, "duration": 240, "velocity": 83}, {"time": 92640, "pitch": 50, "duration": 240, "velocity": 83}, {"time": 92640, "pitch": 55, "duration": 240, "velocity": 85}, {"time": 92640, "pitch": 62, "duration": 240, "velocity": 83}, {"time": 92640, "pitch": 67, "duration": 240, "velocity": 83}, {"time": 92880, "pitch": 41, "duration": 480, "velocity": 100}, {"time": 92880, "pitch": 48, "duration": 480, "velocity": 100}, {"time": 92880, "pitch": 53, "duration": 480, "velocity": 100}, {"time": 92880, "pitch": 57, "duration": 480, "velocity": 100}, {"time": 92880, "pitch": 60, "duration": 480, "velocity": 100}, {"time": 92880, "pitch": 65, "duration": 480, "velocity": 100}, {"time": 93360, "pitch": 41, "duration": 30, "velocity": 100}, {"time": 93360, "pitch": 48, "duration": 30, "velocity": 100}, {"time": 93360, "pitch": 53, "duration": 30, "velocity": 100}, {"time": 93600, "pitch": 40, "duration": 480, "velocity": 100}, {"time": 93600, "pitch": 47, "duration": 480, "velocity": 100}, {"time": 93600, "pitch": 52, "duration": 480, "velocity": 100}, {"time": 93600, "pitch": 55, "duration": 480, "velocity": 100}, {"time": 93600, "pitch": 59, "duration": 480, "velocity": 100}, {"time": 93600, "pitch": 64, "duration": 480, "velocity": 100}, {"time": 94080, "pitch": 40, "duration": 240, "velocity": 85}, {"time": 94080, "pitch": 47, "duration": 240, "velocity": 85}, {"time": 94080, "pitch": 52, "duration": 240, "velocity": 85}, {"time": 94080, "pitch": 55, "duration": 240, "velocity": 85}, {"time": 94080, "pitch": 59, "duration": 240, "velocity": 85}, {"time": 94080, "pitch": 64, "duration": 240, "velocity": 85}, {"time": 94320, "pitch": 40, "duration": 240, "velocity": 85}, {"time": 94320, "pitch": 47, "duration": 240, "velocity": 100}, {"time": 94320, "pitch": 52, "duration": 240, "velocity": 100}, {"time": 94320, "pitch": 55, "duration": 240, "velocity": 100}, {"time": 94320, "pitch": 59, "duration": 240, "velocity": 100}, {"time": 94320, "pitch": 64, "duration": 240, "velocity": 100}, {"time": 94560, "pitch": 40, "duration": 240, "velocity": 85}, {"time": 94560, "pitch": 47, "duration": 240, "velocity": 83}, {"time": 94560, "pitch": 52, "duration": 240, "velocity": 83}, {"time": 94560, "pitch": 55, "duration": 240, "velocity": 83}, {"time": 94560, "pitch": 59, "duration": 240, "velocity": 83}, {"time": 94560, "pitch": 64, "duration": 240, "velocity": 83}, {"time": 94800, "pitch": 50, "duration": 480, "velocity": 100}, {"time": 94800, "pitch": 57, "duration": 480, "velocity": 100}, {"time": 94800, "pitch": 60, "duration": 480, "velocity": 100}, {"time": 94800, "pitch": 65, "duration": 480, "velocity": 100}, {"time": 95280, "pitch": 50, "duration": 30, "velocity": 100}, {"time": 95280, "pitch": 57, "duration": 30, "velocity": 100}, {"time": 95280, "pitch": 60, "duration": 30, "velocity": 100}, {"time": 95520, "pitch": 43, "duration": 480, "velocity": 100}, {"time": 95520, "pitch": 50, "duration": 480, "velocity": 100}, {"time": 95520, "pitch": 57, "duration": 480, "velocity": 100}, {"time": 95520, "pitch": 60, "duration": 480, "velocity": 100}, {"time": 95520, "pitch": 65, "duration": 480, "velocity": 100}, {"time": 96000, "pitch": 43, "duration": 240, "velocity": 85}, {"time": 96000, "pitch": 50, "duration": 240, "velocity": 85}, {"time": 96000, "pitch": 57, "duration": 240, "velocity": 85}, {"time": 96000, "pitch": 60, "duration": 240, "velocity": 85}, {"time": 96000, "pitch": 65, "duration": 240, "velocity": 85}, {"time": 96240, "pitch": 43, "duration": 240, "velocity": 100}, {"time": 96240, "pitch": 50, "duration": 240, "velocity": 100}, {"time": 96240, "pitch": 57, "duration": 240, "velocity": 85}, {"time": 96240, "pitch": 60, "duration": 240, "velocity": 100}, {"time": 96240, "pitch": 65, "duration": 240, "velocity": 100}, {"time": 96480, "pitch": 43, "duration": 240, "velocity": 83}, {"time": 96480, "pitch": 50, "duration": 240, "velocity": 83}, {"time": 96480, "pitch": 57, "duration": 240, "velocity": 85}, {"time": 96480, "pitch": 60, "duration": 240, "velocity": 83}, {"time": 96480, "pitch": 65, "duration": 240, "velocity": 83}, {"time": 96720, "pitch": 48, "duration": 480, "velocity": 100}, {"time": 96720, "pitch": 52, "duration": 480, "velocity": 100}, {"time": 96720, "pitch": 55, "duration": 480, "velocity": 100}, {"time": 96720, "pitch": 60, "duration": 480, "velocity": 100}, {"time": 96720, "pitch": 64, "duration": 480, "velocity": 100}, {"time": 97440, "pitch": 48, "duration": 480, "velocity": 100}, {"time": 97440, "pitch": 52, "duration": 480, "velocity": 100}, {"time": 97440, "pitch": 55, "duration": 480, "velocity": 100}, {"time": 97440, "pitch": 60, "duration": 480, "velocity": 100}, {"time": 97440, "pitch": 64, "duration": 480, "velocity": 100}, {"time": 97920, "pitch": 48, "duration": 240, "velocity": 85}, {"time": 97920, "pitch": 52, "duration": 240, "velocity": 85}, {"time": 97920, "pitch": 55, "duration": 240, "velocity": 85}, {"time": 97920, "pitch": 60, "duration": 240, "velocity": 85}, {"time": 97920, "pitch": 64, "duration": 240, "velocity": 85}, {"time": 98160, "pitch": 48, "duration": 240, "velocity": 100}, {"time": 98160, "pitch": 52, "duration": 240, "velocity": 100}, {"time": 98160, "pitch": 55, "duration": 240, "velocity": 100}, {"time": 98160, "pitch": 60, "duration": 240, "velocity": 100}, {"time": 98160, "pitch": 64, "duration": 240, "velocity": 100}, {"time": 98400, "pitch": 48, "duration": 240, "velocity": 81}, {"time": 98400, "pitch": 52, "duration": 240, "velocity": 81}, {"time": 98400, "pitch": 55, "duration": 240, "velocity": 81}, {"time": 98400, "pitch": 60, "duration": 240, "velocity": 81}, {"time": 98400, "pitch": 64, "duration": 240, "velocity": 81}, {"time": 98640, "pitch": 40, "duration": 480, "velocity": 100}, {"time": 98640, "pitch": 47, "duration": 480, "velocity": 100}, {"time": 98640, "pitch": 50, "duration": 480, "velocity": 100}, {"time": 98640, "pitch": 56, "duration": 480, "velocity": 100}, {"time": 98640, "pitch": 59, "duration": 480, "velocity": 100}, {"time": 98640, "pitch": 64, "duration": 480, "velocity": 100}, {"time": 99360, "pitch": 40, "duration": 480, "velocity": 100}, {"time": 99360, "pitch": 47, "duration": 480, "velocity": 100}, {"time": 99360, "pitch": 50, "duration": 480, "velocity": 100}, {"time": 99360, "pitch": 56, "duration": 480, "velocity": 100}, {"time": 99360, "pitch": 59, "duration": 480, "velocity": 100}, {"time": 99360, "pitch": 64, "duration": 480, "velocity": 100}, {"time": 99840, "pitch": 40, "duration": 240, "velocity": 85}, {"time": 99840, "pitch": 47, "duration": 240, "velocity": 85}, {"time": 99840, "pitch": 50, "duration": 240, "velocity": 85}, {"time": 99840, "pitch": 56, "duration": 240, "velocity": 85}, {"time": 99840, "pitch": 59, "duration": 240, "velocity": 85}, {"time": 99840, "pitch": 64, "duration": 240, "velocity": 85}, {"time": 100080, "pitch": 40, "duration": 240, "velocity": 100}, {"time": 100080, "pitch": 47, "duration": 240, "velocity": 100}, {"time": 100080, "pitch": 50, "duration": 240, "velocity": 100}, {"time": 100080, "pitch": 56, "duration": 240, "velocity": 100}, {"time": 100080, "pitch": 59, "duration": 240, "velocity": 100}, {"time": 100080, "pitch": 64, "duration": 240, "velocity": 100}, {"time": 100320, "pitch": 40, "duration": 240, "velocity": 81}, {"time": 100320, "pitch": 47, "duration": 240, "velocity": 81}, {"time": 100320, "pitch": 50, "duration": 240, "velocity": 81}, {"time": 100320, "pitch": 56, "duration": 240, "velocity": 81}, {"time": 100320, "pitch": 59, "duration": 240, "velocity": 81}, {"time": 100320, "pitch": 64, "duration": 240, "velocity": 81}, {"time": 100560, "pitch": 45, "duration": 480, "velocity": 100}, {"time": 100560, "pitch": 52, "duration": 480, "velocity": 100}, {"time": 100560, "pitch": 57, "duration": 480, "velocity": 100}, {"time": 100560, "pitch": 60, "duration": 480, "velocity": 100}, {"time": 100560, "pitch": 64, "duration": 480, "velocity": 100}, {"time": 101280, "pitch": 45, "duration": 480, "velocity": 100}, {"time": 101280, "pitch": 52, "duration": 480, "velocity": 100}, {"time": 101280, "pitch": 57, "duration": 480, "velocity": 100}, {"time": 101280, "pitch": 60, "duration": 480, "velocity": 100}, {"time": 101280, "pitch": 64, "duration": 480, "velocity": 100}, {"time": 101760, "pitch": 45, "duration": 240, "velocity": 85}, {"time": 101760, "pitch": 52, "duration": 240, "velocity": 85}, {"time": 101760, "pitch": 57, "duration": 240, "velocity": 85}, {"time": 101760, "pitch": 60, "duration": 240, "velocity": 85}, {"time": 101760, "pitch": 64, "duration": 240, "velocity": 85}, {"time": 102000, "pitch": 45, "duration": 240, "velocity": 100}, {"time": 102000, "pitch": 52, "duration": 240, "velocity": 100}, {"time": 102000, "pitch": 57, "duration": 240, "velocity": 100}, {"time": 102000, "pitch": 60, "duration": 240, "velocity": 100}, {"time": 102000, "pitch": 64, "duration": 240, "velocity": 100}, {"time": 102240, "pitch": 45, "duration": 240, "velocity": 81}, {"time": 102240, "pitch": 52, "duration": 240, "velocity": 81}, {"time": 102240, "pitch": 57, "duration": 240, "velocity": 81}, {"time": 102240, "pitch": 60, "duration": 240, "velocity": 81}, {"time": 102240, "pitch": 64, "duration": 240, "velocity": 81}, {"time": 102480, "pitch": 48, "duration": 480, "velocity": 100}, {"time": 102480, "pitch": 52, "duration": 480, "velocity": 100}, {"time": 102480, "pitch": 58, "duration": 480, "velocity": 100}, {"time": 102480, "pitch": 60, "duration": 480, "velocity": 100}, {"time": 102480, "pitch": 64, "duration": 480, "velocity": 100}, {"time": 103200, "pitch": 48, "duration": 480, "velocity": 100}, {"time": 103200, "pitch": 52, "duration": 480, "velocity": 100}, {"time": 103200, "pitch": 58, "duration": 480, "velocity": 100}, {"time": 103200, "pitch": 60, "duration": 480, "velocity": 100}, {"time": 103200, "pitch": 64, "duration": 480, "velocity": 100}, {"time": 103680, "pitch": 48, "duration": 240, "velocity": 85}, {"time": 103680, "pitch": 52, "duration": 240, "velocity": 85}, {"time": 103680, "pitch": 58, "duration": 240, "velocity": 85}, {"time": 103680, "pitch": 60, "duration": 240, "velocity": 85}, {"time": 103680, "pitch": 64, "duration": 240, "velocity": 85}, {"time": 103920, "pitch": 48, "duration": 240, "velocity": 100}, {"time": 103920, "pitch": 52, "duration": 240, "velocity": 100}, {"time": 103920, "pitch": 58, "duration": 240, "velocity": 100}, {"time": 103920, "pitch": 60, "duration": 240, "velocity": 100}, {"time": 103920, "pitch": 64, "duration": 240, "velocity": 100}, {"time": 104160, "pitch": 48, "duration": 240, "velocity": 81}, {"time": 104160, "pitch": 52, "duration": 240, "velocity": 81}, {"time": 104160, "pitch": 58, "duration": 240, "velocity": 81}, {"time": 104160, "pitch": 60, "duration": 240, "velocity": 81}, {"time": 104160, "pitch": 64, "duration": 240, "velocity": 81}, {"time": 104400, "pitch": 41, "duration": 480, "velocity": 100}, {"time": 104400, "pitch": 48, "duration": 480, "velocity": 100}, {"time": 104400, "pitch": 53, "duration": 480, "velocity": 100}, {"time": 104400, "pitch": 57, "duration": 480, "velocity": 100}, {"time": 104400, "pitch": 60, "duration": 480, "velocity": 100}, {"time": 104400, "pitch": 65, "duration": 480, "velocity": 100}, {"time": 105120, "pitch": 41, "duration": 480, "velocity": 100}, {"time": 105120, "pitch": 48, "duration": 480, "velocity": 100}, {"time": 105120, "pitch": 53, "duration": 480, "velocity": 100}, {"time": 105120, "pitch": 57, "duration": 480, "velocity": 100}, {"time": 105120, "pitch": 60, "duration": 480, "velocity": 100}, {"time": 105120, "pitch": 65, "duration": 480, "velocity": 100}, {"time": 105600, "pitch": 41, "duration": 240, "velocity": 85}, {"time": 105600, "pitch": 48, "duration": 240, "velocity": 85}, {"time": 105600, "pitch": 53, "duration": 240, "velocity": 85}, {"time": 105600, "pitch": 57, "duration": 240, "velocity": 85}, {"time": 105600, "pitch": 60, "duration": 240, "velocity": 85}, {"time": 105600, "pitch": 65, "duration": 240, "velocity": 85}, {"time": 105840, "pitch": 41, "duration": 240, "velocity": 100}, {"time": 105840, "pitch": 48, "duration": 240, "velocity": 100}, {"time": 105840, "pitch": 53, "duration": 240, "velocity": 100}, {"time": 105840, "pitch": 57, "duration": 240, "velocity": 100}, {"time": 105840, "pitch": 60, "duration": 240, "velocity": 100}, {"time": 105840, "pitch": 65, "duration": 240, "velocity": 100}, {"time": 106080, "pitch": 41, "duration": 240, "velocity": 81}, {"time": 106080, "pitch": 48, "duration": 240, "velocity": 81}, {"time": 106080, "pitch": 53, "duration": 240, "velocity": 81}, {"time": 106080, "pitch": 57, "duration": 240, "velocity": 81}, {"time": 106080, "pitch": 60, "duration": 240, "velocity": 81}, {"time": 106080, "pitch": 65, "duration": 240, "velocity": 81}, {"time": 106320, "pitch": 40, "duration": 480, "velocity": 100}, {"time": 106320, "pitch": 47, "duration": 480, "velocity": 100}, {"time": 106320, "pitch": 52, "duration": 480, "velocity": 100}, {"time": 106320, "pitch": 55, "duration": 480, "velocity": 100}, {"time": 106320, "pitch": 59, "duration": 480, "velocity": 100}, {"time": 106320, "pitch": 64, "duration": 480, "velocity": 100}, {"time": 107040, "pitch": 45, "duration": 480, "velocity": 100}, {"time": 107040, "pitch": 52, "duration": 480, "velocity": 100}, {"time": 107040, "pitch": 57, "duration": 480, "velocity": 100}, {"time": 107040, "pitch": 60, "duration": 480, "velocity": 100}, {"time": 107040, "pitch": 64, "duration": 480, "velocity": 100}, {"time": 107520, "pitch": 45, "duration": 240, "velocity": 85}, {"time": 107520, "pitch": 52, "duration": 240, "velocity": 85}, {"time": 107520, "pitch": 57, "duration": 240, "velocity": 85}, {"time": 107520, "pitch": 60, "duration": 240, "velocity": 85}, {"time": 107520, "pitch": 64, "duration": 240, "velocity": 85}, {"time": 107760, "pitch": 45, "duration": 240, "velocity": 100}, {"time": 107760, "pitch": 52, "duration": 240, "velocity": 100}, {"time": 107760, "pitch": 57, "duration": 240, "velocity": 100}, {"time": 107760, "pitch": 60, "duration": 240, "velocity": 100}, {"time": 107760, "pitch": 64, "duration": 240, "velocity": 100}, {"time": 108000, "pitch": 45, "duration": 240, "velocity": 81}, {"time": 108000, "pitch": 52, "duration": 240, "velocity": 81}, {"time": 108000, "pitch": 57, "duration": 240, "velocity": 81}, {"time": 108000, "pitch": 60, "duration": 240, "velocity": 81}, {"time": 108000, "pitch": 64, "duration": 240, "velocity": 81}, {"time": 108240, "pitch": 50, "duration": 480, "velocity": 100}, {"time": 108240, "pitch": 57, "duration": 480, "velocity": 100}, {"time": 108240, "pitch": 62, "duration": 480, "velocity": 100}, {"time": 108240, "pitch": 65, "duration": 480, "velocity": 100}, {"time": 108960, "pitch": 50, "duration": 480, "velocity": 100}, {"time": 108960, "pitch": 57, "duration": 480, "velocity": 100}, {"time": 108960, "pitch": 62, "duration": 480, "velocity": 100}, {"time": 108960, "pitch": 65, "duration": 480, "velocity": 100}, {"time": 109440, "pitch": 50, "duration": 240, "velocity": 85}, {"time": 109440, "pitch": 57, "duration": 240, "velocity": 85}, {"time": 109440, "pitch": 62, "duration": 240, "velocity": 85}, {"time": 109440, "pitch": 65, "duration": 240, "velocity": 85}, {"time": 109680, "pitch": 50, "duration": 240, "velocity": 100}, {"time": 109680, "pitch": 57, "duration": 240, "velocity": 100}, {"time": 109680, "pitch": 62, "duration": 240, "velocity": 100}, {"time": 109680, "pitch": 65, "duration": 240, "velocity": 100}, {"time": 109920, "pitch": 50, "duration": 240, "velocity": 81}, {"time": 109920, "pitch": 57, "duration": 240, "velocity": 81}, {"time": 109920, "pitch": 62, "duration": 240, "velocity": 81}, {"time": 109920, "pitch": 65, "duration": 240, "velocity": 81}, {"time": 110160, "pitch": 43, "duration": 480, "velocity": 100}, {"time": 110160, "pitch": 50, "duration": 480, "velocity": 100}, {"time": 110160, "pitch": 55, "duration": 480, "velocity": 100}, {"time": 110160, "pitch": 59, "duration": 480, "velocity": 100}, {"time": 110160, "pitch": 62, "duration": 480, "velocity": 100}, {"time": 110160, "pitch": 67, "duration": 480, "velocity": 100}, {"time": 110880, "pitch": 43, "duration": 480, "velocity": 100}, {"time": 110880, "pitch": 50, "duration": 480, "velocity": 100}, {"time": 110880, "pitch": 55, "duration": 480, "velocity": 100}, {"time": 110880, "pitch": 59, "duration": 480, "velocity": 100}, {"time": 110880, "pitch": 62, "duration": 480, "velocity": 100}, {"time": 110880, "pitch": 67, "duration": 480, "velocity": 100}, {"time": 111360, "pitch": 43, "duration": 240, "velocity": 85}, {"time": 111360, "pitch": 50, "duration": 240, "velocity": 85}, {"time": 111360, "pitch": 55, "duration": 240, "velocity": 85}, {"time": 111360, "pitch": 59, "duration": 240, "velocity": 85}, {"time": 111360, "pitch": 62, "duration": 240, "velocity": 85}, {"time": 111360, "pitch": 67, "duration": 240, "velocity": 85}, {"time": 111600, "pitch": 43, "duration": 240, "velocity": 100}, {"time": 111600, "pitch": 50, "duration": 240, "velocity": 100}, {"time": 111600, "pitch": 55, "duration": 240, "velocity": 100}, {"time": 111600, "pitch": 59, "duration": 240, "velocity": 100}, {"time": 111600, "pitch": 62, "duration": 240, "velocity": 100}, {"time": 111600, "pitch": 67, "duration": 240, "velocity": 100}, {"time": 111840, "pitch": 43, "duration": 240, "velocity": 81}, {"time": 111840, "pitch": 50, "duration": 240, "velocity": 81}, {"time": 111840, "pitch": 55, "duration": 240, "velocity": 81}, {"time": 111840, "pitch": 59, "duration": 240, "velocity": 81}, {"time": 111840, "pitch": 62, "duration": 240, "velocity": 81}, {"time": 111840, "pitch": 67, "duration": 240, "velocity": 81}, {"time": 112080, "pitch": 48, "duration": 480, "velocity": 100}, {"time": 112080, "pitch": 52, "duration": 480, "velocity": 100}, {"time": 112080, "pitch": 55, "duration": 480, "velocity": 100}, {"time": 112080, "pitch": 60, "duration": 480, "velocity": 100}, {"time": 112080, "pitch": 64, "duration": 480, "velocity": 100}, {"time": 112800, "pitch": 48, "duration": 480, "velocity": 100}, {"time": 112800, "pitch": 52, "duration": 480, "velocity": 100}, {"time": 112800, "pitch": 55, "duration": 480, "velocity": 100}, {"time": 112800, "pitch": 60, "duration": 480, "velocity": 100}, {"time": 112800, "pitch": 64, "duration": 480, "velocity": 100}, {"time": 113280, "pitch": 48, "duration": 240, "velocity": 85}, {"time": 113280, "pitch": 52, "duration": 240, "velocity": 85}, {"time": 113280, "pitch": 55, "duration": 240, "velocity": 85}, {"time": 113280, "pitch": 60, "duration": 240, "velocity": 85}, {"time": 113280, "pitch": 64, "duration": 240, "velocity": 85}, {"time": 113520, "pitch": 48, "duration": 240, "velocity": 100}, {"time": 113520, "pitch": 52, "duration": 240, "velocity": 100}, {"time": 113520, "pitch": 55, "duration": 240, "velocity": 100}, {"time": 113520, "pitch": 60, "duration": 240, "velocity": 100}, {"time": 113520, "pitch": 64, "duration": 240, "velocity": 100}, {"time": 113760, "pitch": 48, "duration": 240, "velocity": 81}, {"time": 113760, "pitch": 52, "duration": 240, "velocity": 81}, {"time": 113760, "pitch": 55, "duration": 240, "velocity": 81}, {"time": 113760, "pitch": 60, "duration": 240, "velocity": 81}, {"time": 113760, "pitch": 64, "duration": 240, "velocity": 81}, {"time": 114000, "pitch": 40, "duration": 480, "velocity": 100}, {"time": 114000, "pitch": 47, "duration": 480, "velocity": 100}, {"time": 114000, "pitch": 50, "duration": 480, "velocity": 100}, {"time": 114000, "pitch": 56, "duration": 480, "velocity": 100}, {"time": 114000, "pitch": 59, "duration": 480, "velocity": 100}, {"time": 114000, "pitch": 64, "duration": 480, "velocity": 100}, {"time": 114720, "pitch": 40, "duration": 480, "velocity": 100}, {"time": 114720, "pitch": 47, "duration": 480, "velocity": 100}, {"time": 114720, "pitch": 50, "duration": 480, "velocity": 100}, {"time": 114720, "pitch": 56, "duration": 480, "velocity": 100}, {"time": 114720, "pitch": 59, "duration": 480, "velocity": 100}, {"time": 114720, "pitch": 64, "duration": 480, "velocity": 100}, {"time": 115200, "pitch": 40, "duration": 240, "velocity": 85}, {"time": 115200, "pitch": 47, "duration": 240, "velocity": 85}, {"time": 115200, "pitch": 50, "duration": 240, "velocity": 85}, {"time": 115200, "pitch": 56, "duration": 240, "velocity": 85}, {"time": 115200, "pitch": 59, "duration": 240, "velocity": 85}, {"time": 115200, "pitch": 64, "duration": 240, "velocity": 85}, {"time": 115440, "pitch": 40, "duration": 240, "velocity": 100}, {"time": 115440, "pitch": 47, "duration": 240, "velocity": 100}, {"time": 115440, "pitch": 50, "duration": 240, "velocity": 100}, {"time": 115440, "pitch": 56, "duration": 240, "velocity": 100}, {"time": 115440, "pitch": 59, "duration": 240, "velocity": 100}, {"time": 115440, "pitch": 64, "duration": 240, "velocity": 100}, {"time": 115680, "pitch": 40, "duration": 240, "velocity": 81}, {"time": 115680, "pitch": 47, "duration": 240, "velocity": 81}, {"time": 115680, "pitch": 50, "duration": 240, "velocity": 81}, {"time": 115680, "pitch": 56, "duration": 240, "velocity": 81}, {"time": 115680, "pitch": 59, "duration": 240, "velocity": 81}, {"time": 115680, "pitch": 64, "duration": 240, "velocity": 81}, {"time": 115920, "pitch": 45, "duration": 480, "velocity": 100}, {"time": 115920, "pitch": 52, "duration": 480, "velocity": 100}, {"time": 115920, "pitch": 57, "duration": 480, "velocity": 100}, {"time": 115920, "pitch": 60, "duration": 480, "velocity": 100}, {"time": 115920, "pitch": 64, "duration": 480, "velocity": 100}, {"time": 116640, "pitch": 45, "duration": 480, "velocity": 100}, {"time": 116640, "pitch": 52, "duration": 480, "velocity": 100}, {"time": 116640, "pitch": 57, "duration": 480, "velocity": 100}, {"time": 116640, "pitch": 60, "duration": 480, "velocity": 100}, {"time": 116640, "pitch": 64, "duration": 480, "velocity": 100}, {"time": 117120, "pitch": 45, "duration": 240, "velocity": 85}, {"time": 117120, "pitch": 52, "duration": 240, "velocity": 85}, {"time": 117120, "pitch": 57, "duration": 240, "velocity": 85}, {"time": 117120, "pitch": 60, "duration": 240, "velocity": 85}, {"time": 117120, "pitch": 64, "duration": 240, "velocity": 85}, {"time": 117360, "pitch": 45, "duration": 240, "velocity": 100}, {"time": 117360, "pitch": 52, "duration": 240, "velocity": 100}, {"time": 117360, "pitch": 57, "duration": 240, "velocity": 100}, {"time": 117360, "pitch": 60, "duration": 240, "velocity": 100}, {"time": 117360, "pitch": 64, "duration": 240, "velocity": 100}, {"time": 117600, "pitch": 45, "duration": 240, "velocity": 81}, {"time": 117600, "pitch": 52, "duration": 240, "velocity": 81}, {"time": 117600, "pitch": 57, "duration": 240, "velocity": 81}, {"time": 117600, "pitch": 60, "duration": 240, "velocity": 81}, {"time": 117600, "pitch": 64, "duration": 240, "velocity": 81}, {"time": 117840, "pitch": 48, "duration": 480, "velocity": 100}, {"time": 117840, "pitch": 52, "duration": 480, "velocity": 100}, {"time": 117840, "pitch": 58, "duration": 480, "velocity": 100}, {"time": 117840, "pitch": 60, "duration": 480, "velocity": 100}, {"time": 117840, "pitch": 64, "duration": 480, "velocity": 100}, {"time": 118560, "pitch": 48, "duration": 480, "velocity": 100}, {"time": 118560, "pitch": 52, "duration": 480, "velocity": 100}, {"time": 118560, "pitch": 58, "duration": 480, "velocity": 100}, {"time": 118560, "pitch": 60, "duration": 480, "velocity": 100}, {"time": 118560, "pitch": 64, "duration": 480, "velocity": 100}, {"time": 119040, "pitch": 48, "duration": 240, "velocity": 85}, {"time": 119040, "pitch": 52, "duration": 240, "velocity": 85}, {"time": 119040, "pitch": 58, "duration": 240, "velocity": 85}, {"time": 119040, "pitch": 60, "duration": 240, "velocity": 85}, {"time": 119040, "pitch": 64, "duration": 240, "velocity": 85}, {"time": 119280, "pitch": 48, "duration": 240, "velocity": 100}, {"time": 119280, "pitch": 52, "duration": 240, "velocity": 100}, {"time": 119280, "pitch": 58, "duration": 240, "velocity": 100}, {"time": 119280, "pitch": 60, "duration": 240, "velocity": 100}, {"time": 119280, "pitch": 64, "duration": 240, "velocity": 100}, {"time": 119520, "pitch": 48, "duration": 240, "velocity": 81}, {"time": 119520, "pitch": 52, "duration": 240, "velocity": 81}, {"time": 119520, "pitch": 58, "duration": 240, "velocity": 81}, {"time": 119520, "pitch": 60, "duration": 240, "velocity": 81}, {"time": 119520, "pitch": 64, "duration": 240, "velocity": 81}, {"time": 119760, "pitch": 41, "duration": 480, "velocity": 100}, {"time": 119760, "pitch": 48, "duration": 480, "velocity": 100}, {"time": 119760, "pitch": 53, "duration": 480, "velocity": 100}, {"time": 119760, "pitch": 57, "duration": 480, "velocity": 100}, {"time": 119760, "pitch": 60, "duration": 480, "velocity": 100}, {"time": 119760, "pitch": 65, "duration": 480, "velocity": 100}, {"time": 120480, "pitch": 41, "duration": 480, "velocity": 100}, {"time": 120480, "pitch": 48, "duration": 480, "velocity": 100}, {"time": 120480, "pitch": 53, "duration": 480, "velocity": 100}, {"time": 120480, "pitch": 57, "duration": 480, "velocity": 100}, {"time": 120480, "pitch": 60, "duration": 480, "velocity": 100}, {"time": 120480, "pitch": 65, "duration": 480, "velocity": 100}, {"time": 120960, "pitch": 41, "duration": 240, "velocity": 85}, {"time": 120960, "pitch": 48, "duration": 240, "velocity": 85}, {"time": 120960, "pitch": 53, "duration": 240, "velocity": 85}, {"time": 120960, "pitch": 57, "duration": 240, "velocity": 85}, {"time": 120960, "pitch": 60, "duration": 240, "velocity": 85}, {"time": 120960, "pitch": 65, "duration": 240, "velocity": 85}, {"time": 121200, "pitch": 41, "duration": 240, "velocity": 100}, {"time": 121200, "pitch": 48, "duration": 240, "velocity": 100}, {"time": 121200, "pitch": 53, "duration": 240, "velocity": 100}, {"time": 121200, "pitch": 57, "duration": 240, "velocity": 100}, {"time": 121200, "pitch": 60, "duration": 240, "velocity": 100}, {"time": 121200, "pitch": 65, "duration": 240, "velocity": 100}, {"time": 121440, "pitch": 41, "duration": 240, "velocity": 81}, {"time": 121440, "pitch": 48, "duration": 240, "velocity": 81}, {"time": 121440, "pitch": 53, "duration": 240, "velocity": 81}, {"time": 121440, "pitch": 57, "duration": 240, "velocity": 81}, {"time": 121440, "pitch": 60, "duration": 240, "velocity": 81}, {"time": 121440, "pitch": 65, "duration": 240, "velocity": 81}, {"time": 121680, "pitch": 40, "duration": 480, "velocity": 100}, {"time": 121680, "pitch": 47, "duration": 480, "velocity": 100}, {"time": 121680, "pitch": 52, "duration": 480, "velocity": 100}, {"time": 121680, "pitch": 55, "duration": 480, "velocity": 100}, {"time": 121680, "pitch": 59, "duration": 480, "velocity": 100}, {"time": 121680, "pitch": 64, "duration": 480, "velocity": 100}, {"time": 122400, "pitch": 45, "duration": 480, "velocity": 100}, {"time": 122400, "pitch": 52, "duration": 480, "velocity": 100}, {"time": 122400, "pitch": 57, "duration": 480, "velocity": 100}, {"time": 122400, "pitch": 60, "duration": 480, "velocity": 100}, {"time": 122400, "pitch": 64, "duration": 480, "velocity": 100}, {"time": 122880, "pitch": 45, "duration": 240, "velocity": 85}, {"time": 122880, "pitch": 52, "duration": 240, "velocity": 85}, {"time": 122880, "pitch": 57, "duration": 240, "velocity": 85}, {"time": 122880, "pitch": 60, "duration": 240, "velocity": 85}, {"time": 122880, "pitch": 64, "duration": 240, "velocity": 85}, {"time": 123120, "pitch": 45, "duration": 240, "velocity": 100}, {"time": 123120, "pitch": 52, "duration": 240, "velocity": 100}, {"time": 123120, "pitch": 57, "duration": 240, "velocity": 100}, {"time": 123120, "pitch": 60, "duration": 240, "velocity": 100}, {"time": 123120, "pitch": 64, "duration": 240, "velocity": 100}, {"time": 123360, "pitch": 45, "duration": 240, "velocity": 81}, {"time": 123360, "pitch": 52, "duration": 240, "velocity": 81}, {"time": 123360, "pitch": 57, "duration": 240, "velocity": 81}, {"time": 123360, "pitch": 60, "duration": 240, "velocity": 81}, {"time": 123360, "pitch": 64, "duration": 240, "velocity": 81}, {"time": 123600, "pitch": 50, "duration": 480, "velocity": 100}, {"time": 123600, "pitch": 57, "duration": 480, "velocity": 100}, {"time": 123600, "pitch": 62, "duration": 480, "velocity": 100}, {"time": 123600, "pitch": 65, "duration": 480, "velocity": 100}, {"time": 124320, "pitch": 50, "duration": 480, "velocity": 100}, {"time": 124320, "pitch": 57, "duration": 480, "velocity": 100}, {"time": 124320, "pitch": 62, "duration": 480, "velocity": 100}, {"time": 124320, "pitch": 65, "duration": 480, "velocity": 100}, {"time": 124800, "pitch": 50, "duration": 240, "velocity": 85}, {"time": 124800, "pitch": 57, "duration": 240, "velocity": 85}, {"time": 124800, "pitch": 62, "duration": 240, "velocity": 85}, {"time": 124800, "pitch": 65, "duration": 240, "velocity": 85}, {"time": 125040, "pitch": 50, "duration": 240, "velocity": 100}, {"time": 125040, "pitch": 57, "duration": 240, "velocity": 100}, {"time": 125040, "pitch": 62, "duration": 240, "velocity": 100}, {"time": 125040, "pitch": 65, "duration": 240, "velocity": 100}, {"time": 125280, "pitch": 50, "duration": 240, "velocity": 81}, {"time": 125280, "pitch": 57, "duration": 240, "velocity": 81}, {"time": 125280, "pitch": 62, "duration": 240, "velocity": 81}, {"time": 125280, "pitch": 65, "duration": 240, "velocity": 81}, {"time": 125520, "pitch": 48, "duration": 480, "velocity": 100}, {"time": 125520, "pitch": 55, "duration": 480, "velocity": 100}, {"time": 125520, "pitch": 60, "duration": 480, "velocity": 100}, {"time": 125520, "pitch": 64, "duration": 480, "velocity": 100}, {"time": 125520, "pitch": 67, "duration": 480, "velocity": 100}, {"time": 126240, "pitch": 48, "duration": 480, "velocity": 100}, {"time": 126240, "pitch": 55, "duration": 480, "velocity": 100}, {"time": 126240, "pitch": 58, "duration": 480, "velocity": 100}, {"time": 126240, "pitch": 64, "duration": 480, "velocity": 100}, {"time": 126240, "pitch": 67, "duration": 480, "velocity": 100}, {"time": 126720, "pitch": 48, "duration": 240, "velocity": 85}, {"time": 126720, "pitch": 55, "duration": 240, "velocity": 85}, {"time": 126720, "pitch": 58, "duration": 240, "velocity": 85}, {"time": 126720, "pitch": 64, "duration": 240, "velocity": 85}, {"time": 126720, "pitch": 67, "duration": 240, "velocity": 85}, {"time": 126960, "pitch": 48, "duration": 240, "velocity": 100}, {"time": 126960, "pitch": 55, "duration": 240, "velocity": 100}, {"time": 126960, "pitch": 58, "duration": 240, "velocity": 100}, {"time": 126960, "pitch": 64, "duration": 240, "velocity": 100}, {"time": 126960, "pitch": 67, "duration": 240, "velocity": 100}, {"time": 127200, "pitch": 48, "duration": 120, "velocity": 76}, {"time": 127200, "pitch": 55, "duration": 120, "velocity": 76}, {"time": 127200, "pitch": 58, "duration": 120, "velocity": 76}, {"time": 127200, "pitch": 64, "duration": 120, "velocity": 76}, {"time": 127200, "pitch": 67, "duration": 120, "velocity": 76}, {"time": 127440, "pitch": 41, "duration": 480, "velocity": 100}, {"time": 127440, "pitch": 48, "duration": 480, "velocity": 100}, {"time": 127440, "pitch": 53, "duration": 480, "velocity": 100}, {"time": 127440, "pitch": 57, "duration": 480, "velocity": 100}, {"time": 127440, "pitch": 60, "duration": 480, "velocity": 100}, {"time": 127440, "pitch": 65, "duration": 480, "velocity": 100}, {"time": 128160, "pitch": 41, "duration": 480, "velocity": 100}, {"time": 128160, "pitch": 48, "duration": 480, "velocity": 100}, {"time": 128160, "pitch": 53, "duration": 480, "velocity": 100}, {"time": 128160, "pitch": 57, "duration": 480, "velocity": 100}, {"time": 128160, "pitch": 60, "duration": 480, "velocity": 100}, {"time": 128160, "pitch": 65, "duration": 480, "velocity": 100}, {"time": 128640, "pitch": 41, "duration": 240, "velocity": 85}, {"time": 128640, "pitch": 48, "duration": 240, "velocity": 85}, {"time": 128640, "pitch": 53, "duration": 240, "velocity": 85}, {"time": 128640, "pitch": 57, "duration": 240, "velocity": 85}, {"time": 128640, "pitch": 60, "duration": 240, "velocity": 85}, {"time": 128640, "pitch": 65, "duration": 240, "velocity": 85}, {"time": 128880, "pitch": 41, "duration": 240, "velocity": 100}, {"time": 128880, "pitch": 48, "duration": 240, "velocity": 100}, {"time": 128880, "pitch": 53, "duration": 240, "velocity": 100}, {"time": 128880, "pitch": 57, "duration": 240, "velocity": 100}, {"time": 128880, "pitch": 60, "duration": 240, "velocity": 100}, {"time": 128880, "pitch": 65, "duration": 240, "velocity": 100}, {"time": 129120, "pitch": 41, "duration": 240, "velocity": 81}, {"time": 129120, "pitch": 48, "duration": 240, "velocity": 81}, {"time": 129120, "pitch": 53, "duration": 240, "velocity": 81}, {"time": 129120, "pitch": 57, "duration": 240, "velocity": 81}, {"time": 129120, "pitch": 60, "duration": 240, "velocity": 81}, {"time": 129120, "pitch": 65, "duration": 240, "velocity": 81}, {"time": 129360, "pitch": 40, "duration": 480, "velocity": 100}, {"time": 129360, "pitch": 47, "duration": 480, "velocity": 100}, {"time": 129360, "pitch": 52, "duration": 480, "velocity": 100}, {"time": 129360, "pitch": 55, "duration": 480, "velocity": 100}, {"time": 129360, "pitch": 59, "duration": 480, "velocity": 100}, {"time": 129360, "pitch": 64, "duration": 480, "velocity": 100}, {"time": 130080, "pitch": 40, "duration": 480, "velocity": 100}, {"time": 130080, "pitch": 47, "duration": 480, "velocity": 100}, {"time": 130080, "pitch": 52, "duration": 480, "velocity": 100}, {"time": 130080, "pitch": 55, "duration": 480, "velocity": 100}, {"time": 130080, "pitch": 59, "duration": 480, "velocity": 100}, {"time": 130080, "pitch": 64, "duration": 480, "velocity": 100}, {"time": 130560, "pitch": 40, "duration": 240, "velocity": 85}, {"time": 130560, "pitch": 47, "duration": 240, "velocity": 85}, {"time": 130560, "pitch": 52, "duration": 240, "velocity": 85}, {"time": 130560, "pitch": 55, "duration": 240, "velocity": 85}, {"time": 130560, "pitch": 59, "duration": 240, "velocity": 85}, {"time": 130560, "pitch": 64, "duration": 240, "velocity": 85}, {"time": 130800, "pitch": 40, "duration": 240, "velocity": 100}, {"time": 130800, "pitch": 47, "duration": 240, "velocity": 100}, {"time": 130800, "pitch": 52, "duration": 240, "velocity": 100}, {"time": 130800, "pitch": 55, "duration": 240, "velocity": 100}, {"time": 130800, "pitch": 59, "duration": 240, "velocity": 100}, {"time": 130800, "pitch": 64, "duration": 240, "velocity": 100}, {"time": 131040, "pitch": 40, "duration": 240, "velocity": 81}, {"time": 131040, "pitch": 47, "duration": 240, "velocity": 81}, {"time": 131040, "pitch": 52, "duration": 240, "velocity": 81}, {"time": 131040, "pitch": 55, "duration": 240, "velocity": 81}, {"time": 131040, "pitch": 59, "duration": 240, "velocity": 81}, {"time": 131040, "pitch": 64, "duration": 240, "velocity": 81}, {"time": 131280, "pitch": 50, "duration": 480, "velocity": 100}, {"time": 131280, "pitch": 57, "duration": 480, "velocity": 100}, {"time": 131280, "pitch": 62, "duration": 480, "velocity": 100}, {"time": 131280, "pitch": 65, "duration": 480, "velocity": 100}, {"time": 132000, "pitch": 40, "duration": 480, "velocity": 100}, {"time": 132000, "pitch": 47, "duration": 480, "velocity": 100}, {"time": 132000, "pitch": 52, "duration": 480, "velocity": 100}, {"time": 132000, "pitch": 56, "duration": 480, "velocity": 100}, {"time": 132000, "pitch": 59, "duration": 480, "velocity": 100}, {"time": 132000, "pitch": 64, "duration": 480, "velocity": 100}, {"time": 132480, "pitch": 40, "duration": 240, "velocity": 85}, {"time": 132480, "pitch": 47, "duration": 240, "velocity": 85}, {"time": 132480, "pitch": 52, "duration": 240, "velocity": 85}, {"time": 132480, "pitch": 56, "duration": 240, "velocity": 85}, {"time": 132480, "pitch": 59, "duration": 240, "velocity": 85}, {"time": 132480, "pitch": 64, "duration": 240, "velocity": 85}, {"time": 132720, "pitch": 40, "duration": 240, "velocity": 100}, {"time": 132720, "pitch": 47, "duration": 240, "velocity": 100}, {"time": 132720, "pitch": 52, "duration": 240, "velocity": 100}, {"time": 132720, "pitch": 56, "duration": 240, "velocity": 100}, {"time": 132720, "pitch": 59, "duration": 240, "velocity": 100}, {"time": 132720, "pitch": 64, "duration": 240, "velocity": 100}, {"time": 132960, "pitch": 40, "duration": 240, "velocity": 81}, {"time": 132960, "pitch": 47, "duration": 240, "velocity": 81}, {"time": 132960, "pitch": 52, "duration": 240, "velocity": 81}, {"time": 132960, "pitch": 56, "duration": 240, "velocity": 81}, {"time": 132960, "pitch": 59, "duration": 240, "velocity": 81}, {"time": 132960, "pitch": 64, "duration": 240, "velocity": 81}, {"time": 133200, "pitch": 45, "duration": 480, "velocity": 100}, {"time": 133200, "pitch": 52, "duration": 480, "velocity": 100}, {"time": 133200, "pitch": 57, "duration": 480, "velocity": 100}, {"time": 133200, "pitch": 60, "duration": 480, "velocity": 100}, {"time": 133200, "pitch": 64, "duration": 480, "velocity": 100}, {"time": 133920, "pitch": 48, "duration": 480, "velocity": 100}, {"time": 133920, "pitch": 52, "duration": 480, "velocity": 100}, {"time": 133920, "pitch": 58, "duration": 480, "velocity": 100}, {"time": 133920, "pitch": 60, "duration": 480, "velocity": 100}, {"time": 133920, "pitch": 64, "duration": 480, "velocity": 100}, {"time": 134400, "pitch": 48, "duration": 240, "velocity": 85}, {"time": 134400, "pitch": 52, "duration": 240, "velocity": 85}, {"time": 134400, "pitch": 58, "duration": 240, "velocity": 85}, {"time": 134400, "pitch": 60, "duration": 240, "velocity": 85}, {"time": 134400, "pitch": 64, "duration": 240, "velocity": 85}, {"time": 134640, "pitch": 48, "duration": 240, "velocity": 100}, {"time": 134640, "pitch": 52, "duration": 240, "velocity": 100}, {"time": 134640, "pitch": 58, "duration": 240, "velocity": 100}, {"time": 134640, "pitch": 60, "duration": 240, "velocity": 100}, {"time": 134640, "pitch": 64, "duration": 240, "velocity": 100}, {"time": 134880, "pitch": 48, "duration": 240, "velocity": 81}, {"time": 134880, "pitch": 52, "duration": 240, "velocity": 81}, {"time": 134880, "pitch": 58, "duration": 240, "velocity": 81}, {"time": 134880, "pitch": 60, "duration": 240, "velocity": 81}, {"time": 134880, "pitch": 64, "duration": 240, "velocity": 81}, {"time": 135120, "pitch": 41, "duration": 480, "velocity": 100}, {"time": 135120, "pitch": 48, "duration": 480, "velocity": 100}, {"time": 135120, "pitch": 53, "duration": 480, "velocity": 100}, {"time": 135120, "pitch": 57, "duration": 480, "velocity": 100}, {"time": 135120, "pitch": 60, "duration": 480, "velocity": 100}, {"time": 135120, "pitch": 65, "duration": 480, "velocity": 100}, {"time": 135840, "pitch": 41, "duration": 480, "velocity": 100}, {"time": 135840, "pitch": 48, "duration": 480, "velocity": 100}, {"time": 135840, "pitch": 53, "duration": 480, "velocity": 100}, {"time": 135840, "pitch": 57, "duration": 480, "velocity": 100}, {"time": 135840, "pitch": 60, "duration": 480, "velocity": 100}, {"time": 135840, "pitch": 65, "duration": 480, "velocity": 100}, {"time": 136320, "pitch": 41, "duration": 240, "velocity": 85}, {"time": 136320, "pitch": 48, "duration": 240, "velocity": 85}, {"time": 136320, "pitch": 53, "duration": 240, "velocity": 85}, {"time": 136320, "pitch": 57, "duration": 240, "velocity": 85}, {"time": 136320, "pitch": 60, "duration": 240, "velocity": 85}, {"time": 136320, "pitch": 65, "duration": 240, "velocity": 85}, {"time": 136560, "pitch": 41, "duration": 240, "velocity": 100}, {"time": 136560, "pitch": 48, "duration": 240, "velocity": 100}, {"time": 136560, "pitch": 53, "duration": 240, "velocity": 100}, {"time": 136560, "pitch": 57, "duration": 240, "velocity": 100}, {"time": 136560, "pitch": 60, "duration": 240, "velocity": 100}, {"time": 136560, "pitch": 65, "duration": 240, "velocity": 100}, {"time": 136800, "pitch": 41, "duration": 240, "velocity": 81}, {"time": 136800, "pitch": 48, "duration": 240, "velocity": 81}, {"time": 136800, "pitch": 53, "duration": 240, "velocity": 81}, {"time": 136800, "pitch": 57, "duration": 240, "velocity": 81}, {"time": 136800, "pitch": 60, "duration": 240, "velocity": 81}, {"time": 136800, "pitch": 65, "duration": 240, "velocity": 81}, {"time": 137040, "pitch": 40, "duration": 480, "velocity": 100}, {"time": 137040, "pitch": 47, "duration": 480, "velocity": 100}, {"time": 137040, "pitch": 52, "duration": 480, "velocity": 100}, {"time": 137040, "pitch": 55, "duration": 480, "velocity": 100}, {"time": 137040, "pitch": 59, "duration": 480, "velocity": 100}, {"time": 137040, "pitch": 64, "duration": 480, "velocity": 100}, {"time": 137760, "pitch": 45, "duration": 480, "velocity": 100}, {"time": 137760, "pitch": 52, "duration": 480, "velocity": 100}, {"time": 137760, "pitch": 57, "duration": 480, "velocity": 100}, {"time": 137760, "pitch": 60, "duration": 480, "velocity": 100}, {"time": 137760, "pitch": 64, "duration": 480, "velocity": 100}, {"time": 138240, "pitch": 45, "duration": 240, "velocity": 85}, {"time": 138240, "pitch": 52, "duration": 240, "velocity": 85}, {"time": 138240, "pitch": 57, "duration": 240, "velocity": 85}, {"time": 138240, "pitch": 60, "duration": 240, "velocity": 85}, {"time": 138240, "pitch": 64, "duration": 240, "velocity": 85}, {"time": 138480, "pitch": 45, "duration": 240, "velocity": 100}, {"time": 138480, "pitch": 52, "duration": 240, "velocity": 100}, {"time": 138480, "pitch": 57, "duration": 240, "velocity": 100}, {"time": 138480, "pitch": 60, "duration": 240, "velocity": 100}, {"time": 138480, "pitch": 64, "duration": 240, "velocity": 100}, {"time": 138720, "pitch": 45, "duration": 240, "velocity": 81}, {"time": 138720, "pitch": 52, "duration": 240, "velocity": 81}, {"time": 138720, "pitch": 57, "duration": 240, "velocity": 81}, {"time": 138720, "pitch": 60, "duration": 240, "velocity": 81}, {"time": 138720, "pitch": 64, "duration": 240, "velocity": 81}, {"time": 138960, "pitch": 50, "duration": 480, "velocity": 100}, {"time": 138960, "pitch": 57, "duration": 480, "velocity": 100}, {"time": 138960, "pitch": 62, "duration": 480, "velocity": 100}, {"time": 138960, "pitch": 65, "duration": 480, "velocity": 100}, {"time": 139680, "pitch": 50, "duration": 480, "velocity": 100}, {"time": 139680, "pitch": 57, "duration": 480, "velocity": 100}, {"time": 139680, "pitch": 62, "duration": 480, "velocity": 100}, {"time": 139680, "pitch": 65, "duration": 480, "velocity": 100}, {"time": 140160, "pitch": 50, "duration": 240, "velocity": 85}, {"time": 140160, "pitch": 57, "duration": 240, "velocity": 85}, {"time": 140160, "pitch": 62, "duration": 240, "velocity": 85}, {"time": 140160, "pitch": 65, "duration": 240, "velocity": 85}, {"time": 140400, "pitch": 50, "duration": 240, "velocity": 100}, {"time": 140400, "pitch": 57, "duration": 240, "velocity": 100}, {"time": 140400, "pitch": 62, "duration": 240, "velocity": 100}, {"time": 140400, "pitch": 65, "duration": 240, "velocity": 100}, {"time": 140640, "pitch": 50, "duration": 240, "velocity": 81}, {"time": 140640, "pitch": 57, "duration": 240, "velocity": 81}, {"time": 140640, "pitch": 62, "duration": 240, "velocity": 81}, {"time": 140640, "pitch": 65, "duration": 240, "velocity": 81}, {"time": 140880, "pitch": 43, "duration": 480, "velocity": 100}, {"time": 140880, "pitch": 50, "duration": 480, "velocity": 100}, {"time": 140880, "pitch": 57, "duration": 480, "velocity": 100}, {"time": 140880, "pitch": 60, "duration": 480, "velocity": 100}, {"time": 140880, "pitch": 65, "duration": 480, "velocity": 100}, {"time": 141360, "pitch": 43, "duration": 480, "velocity": 100}, {"time": 141360, "pitch": 50, "duration": 480, "velocity": 100}, {"time": 141360, "pitch": 57, "duration": 480, "velocity": 100}, {"time": 141360, "pitch": 60, "duration": 480, "velocity": 100}, {"time": 141360, "pitch": 65, "duration": 480, "velocity": 100}, {"time": 141840, "pitch": 43, "duration": 480, "velocity": 99}, {"time": 141840, "pitch": 50, "duration": 480, "velocity": 99}, {"time": 141840, "pitch": 57, "duration": 480, "velocity": 99}, {"time": 141840, "pitch": 60, "duration": 480, "velocity": 99}, {"time": 141840, "pitch": 65, "duration": 480, "velocity": 99}, {"time": 142320, "pitch": 43, "duration": 480, "velocity": 100}, {"time": 142320, "pitch": 50, "duration": 480, "velocity": 100}, {"time": 142320, "pitch": 57, "duration": 480, "velocity": 100}, {"time": 142320, "pitch": 60, "duration": 480, "velocity": 100}, {"time": 142320, "pitch": 65, "duration": 480, "velocity": 100}, {"time": 142800, "pitch": 48, "duration": 480, "velocity": 100}, {"time": 142800, "pitch": 52, "duration": 480, "velocity": 100}, {"time": 142800, "pitch": 55, "duration": 480, "velocity": 100}, {"time": 142800, "pitch": 60, "duration": 480, "velocity": 100}, {"time": 142800, "pitch": 64, "duration": 480, "velocity": 100}, {"time": 143280, "pitch": 48, "duration": 30, "velocity": 100}, {"time": 143280, "pitch": 52, "duration": 30, "velocity": 100}, {"time": 143280, "pitch": 55, "duration": 30, "velocity": 100}, {"time": 143520, "pitch": 47, "duration": 480, "velocity": 100}, {"time": 143520, "pitch": 50, "duration": 480, "velocity": 100}, {"time": 143520, "pitch": 55, "duration": 480, "velocity": 100}, {"time": 143520, "pitch": 62, "duration": 480, "velocity": 100}, {"time": 143520, "pitch": 67, "duration": 480, "velocity": 100}, {"time": 144000, "pitch": 47, "duration": 240, "velocity": 85}, {"time": 144000, "pitch": 50, "duration": 240, "velocity": 85}, {"time": 144000, "pitch": 55, "duration": 240, "velocity": 85}, {"time": 144000, "pitch": 62, "duration": 240, "velocity": 85}, {"time": 144000, "pitch": 67, "duration": 240, "velocity": 85}, {"time": 144240, "pitch": 47, "duration": 240, "velocity": 100}, {"time": 144240, "pitch": 50, "duration": 240, "velocity": 100}, {"time": 144240, "pitch": 55, "duration": 240, "velocity": 100}, {"time": 144240, "pitch": 62, "duration": 240, "velocity": 100}, {"time": 144240, "pitch": 67, "duration": 240, "velocity": 100}, {"time": 144480, "pitch": 47, "duration": 240, "velocity": 83}, {"time": 144480, "pitch": 50, "duration": 240, "velocity": 83}, {"time": 144480, "pitch": 55, "duration": 240, "velocity": 83}, {"time": 144480, "pitch": 62, "duration": 240, "velocity": 83}, {"time": 144480, "pitch": 67, "duration": 240, "velocity": 83}, {"time": 144720, "pitch": 45, "duration": 480, "velocity": 100}, {"time": 144720, "pitch": 52, "duration": 480, "velocity": 100}, {"time": 144720, "pitch": 57, "duration": 480, "velocity": 100}, {"time": 144720, "pitch": 60, "duration": 480, "velocity": 100}, {"time": 144720, "pitch": 64, "duration": 480, "velocity": 100}, {"time": 145200, "pitch": 45, "duration": 30, "velocity": 100}, {"time": 145200, "pitch": 52, "duration": 30, "velocity": 100}, {"time": 145200, "pitch": 57, "duration": 30, "velocity": 100}, {"time": 145440, "pitch": 43, "duration": 480, "velocity": 100}, {"time": 145440, "pitch": 47, "duration": 480, "velocity": 100}, {"time": 145440, "pitch": 50, "duration": 480, "velocity": 100}, {"time": 145440, "pitch": 55, "duration": 480, "velocity": 100}, {"time": 145440, "pitch": 62, "duration": 480, "velocity": 100}, {"time": 145440, "pitch": 67, "duration": 480, "velocity": 100}, {"time": 145920, "pitch": 43, "duration": 240, "velocity": 85}, {"time": 145920, "pitch": 47, "duration": 240, "velocity": 85}, {"time": 145920, "pitch": 50, "duration": 240, "velocity": 85}, {"time": 145920, "pitch": 55, "duration": 240, "velocity": 85}, {"time": 145920, "pitch": 62, "duration": 240, "velocity": 85}, {"time": 145920, "pitch": 67, "duration": 240, "velocity": 85}, {"time": 146160, "pitch": 43, "duration": 240, "velocity": 100}, {"time": 146160, "pitch": 47, "duration": 240, "velocity": 100}, {"time": 146160, "pitch": 50, "duration": 240, "velocity": 100}, {"time": 146160, "pitch": 55, "duration": 240, "velocity": 85}, {"time": 146160, "pitch": 62, "duration": 240, "velocity": 100}, {"time": 146160, "pitch": 67, "duration": 240, "velocity": 100}, {"time": 146400, "pitch": 43, "duration": 240, "velocity": 83}, {"time": 146400, "pitch": 47, "duration": 240, "velocity": 83}, {"time": 146400, "pitch": 50, "duration": 240, "velocity": 83}, {"time": 146400, "pitch": 55, "duration": 240, "velocity": 85}, {"time": 146400, "pitch": 62, "duration": 240, "velocity": 83}, {"time": 146400, "pitch": 67, "duration": 240, "velocity": 83}, {"time": 146640, "pitch": 41, "duration": 480, "velocity": 100}, {"time": 146640, "pitch": 48, "duration": 480, "velocity": 100}, {"time": 146640, "pitch": 53, "duration": 480, "velocity": 100}, {"time": 146640, "pitch": 57, "duration": 480, "velocity": 100}, {"time": 146640, "pitch": 60, "duration": 480, "velocity": 100}, {"time": 146640, "pitch": 65, "duration": 480, "velocity": 100}, {"time": 147120, "pitch": 41, "duration": 30, "velocity": 100}, {"time": 147120, "pitch": 48, "duration": 30, "velocity": 100}, {"time": 147120, "pitch": 53, "duration": 30, "velocity": 100}, {"time": 147360, "pitch": 40, "duration": 480, "velocity": 100}, {"time": 147360, "pitch": 47, "duration": 480, "velocity": 100}, {"time": 147360, "pitch": 52, "duration": 480, "velocity": 100}, {"time": 147360, "pitch": 55, "duration": 480, "velocity": 100}, {"time": 147360, "pitch": 59, "duration": 480, "velocity": 100}, {"time": 147360, "pitch": 64, "duration": 480, "velocity": 100}, {"time": 147840, "pitch": 40, "duration": 240, "velocity": 85}, {"time": 147840, "pitch": 47, "duration": 240, "velocity": 85}, {"time": 147840, "pitch": 52, "duration": 240, "velocity": 85}, {"time": 147840, "pitch": 55, "duration": 240, "velocity": 85}, {"time": 147840, "pitch": 59, "duration": 240, "velocity": 85}, {"time": 147840, "pitch": 64, "duration": 240, "velocity": 85}, {"time": 148080, "pitch": 40, "duration": 240, "velocity": 85}, {"time": 148080, "pitch": 47, "duration": 240, "velocity": 100}, {"time": 148080, "pitch": 52, "duration": 240, "velocity": 100}, {"time": 148080, "pitch": 55, "duration": 240, "velocity": 100}, {"time": 148080, "pitch": 59, "duration": 240, "velocity": 100}, {"time": 148080, "pitch": 64, "duration": 240, "velocity": 100}, {"time": 148320, "pitch": 40, "duration": 240, "velocity": 85}, {"time": 148320, "pitch": 47, "duration": 240, "velocity": 83}, {"time": 148320, "pitch": 52, "duration": 240, "velocity": 83}, {"time": 148320, "pitch": 55, "duration": 240, "velocity": 83}, {"time": 148320, "pitch": 59, "duration": 240, "velocity": 83}, {"time": 148320, "pitch": 64, "duration": 240, "velocity": 83}, {"time": 148560, "pitch": 50, "duration": 480, "velocity": 100}, {"time": 148560, "pitch": 57, "duration": 480, "velocity": 100}, {"time": 148560, "pitch": 60, "duration": 480, "velocity": 100}, {"time": 148560, "pitch": 65, "duration": 480, "velocity": 100}, {"time": 149040, "pitch": 50, "duration": 30, "velocity": 100}, {"time": 149040, "pitch": 57, "duration": 30, "velocity": 100}, {"time": 149040, "pitch": 60, "duration": 30, "velocity": 100}, {"time": 149280, "pitch": 43, "duration": 480, "velocity": 100}, {"time": 149280, "pitch": 47, "duration": 480, "velocity": 100}, {"time": 149280, "pitch": 50, "duration": 480, "velocity": 100}, {"time": 149280, "pitch": 55, "duration": 480, "velocity": 100}, {"time": 149280, "pitch": 62, "duration": 480, "velocity": 100}, {"time": 149280, "pitch": 67, "duration": 480, "velocity": 100}, {"time": 149760, "pitch": 43, "duration": 240, "velocity": 85}, {"time": 149760, "pitch": 47, "duration": 240, "velocity": 85}, {"time": 149760, "pitch": 50, "duration": 240, "velocity": 85}, {"time": 149760, "pitch": 55, "duration": 240, "velocity": 85}, {"time": 149760, "pitch": 62, "duration": 240, "velocity": 85}, {"time": 149760, "pitch": 67, "duration": 240, "velocity": 85}, {"time": 150000, "pitch": 41, "duration": 240, "velocity": 100}, {"time": 150000, "pitch": 47, "duration": 240, "velocity": 100}, {"time": 150000, "pitch": 50, "duration": 240, "velocity": 100}, {"time": 150000, "pitch": 55, "duration": 240, "velocity": 85}, {"time": 150000, "pitch": 62, "duration": 240, "velocity": 100}, {"time": 150000, "pitch": 67, "duration": 240, "velocity": 100}, {"time": 150240, "pitch": 41, "duration": 240, "velocity": 83}, {"time": 150240, "pitch": 47, "duration": 240, "velocity": 83}, {"time": 150240, "pitch": 50, "duration": 240, "velocity": 83}, {"time": 150240, "pitch": 55, "duration": 240, "velocity": 85}, {"time": 150240, "pitch": 62, "duration": 240, "velocity": 83}, {"time": 150240, "pitch": 67, "duration": 240, "velocity": 83}, {"time": 150480, "pitch": 40, "duration": 480, "velocity": 100}, {"time": 150480, "pitch": 47, "duration": 480, "velocity": 100}, {"time": 150480, "pitch": 52, "duration": 480, "velocity": 100}, {"time": 150480, "pitch": 55, "duration": 480, "velocity": 100}, {"time": 150480, "pitch": 59, "duration": 480, "velocity": 100}, {"time": 150480, "pitch": 64, "duration": 480, "velocity": 100}, {"time": 150960, "pitch": 40, "duration": 30, "velocity": 100}, {"time": 150960, "pitch": 47, "duration": 30, "velocity": 100}, {"time": 150960, "pitch": 52, "duration": 30, "velocity": 100}, {"time": 151200, "pitch": 40, "duration": 480, "velocity": 100}, {"time": 151200, "pitch": 47, "duration": 480, "velocity": 100}, {"time": 151200, "pitch": 52, "duration": 480, "velocity": 100}, {"time": 151200, "pitch": 55, "duration": 480, "velocity": 100}, {"time": 151200, "pitch": 59, "duration": 480, "velocity": 83}, {"time": 151200, "pitch": 64, "duration": 480, "velocity": 100}, {"time": 151680, "pitch": 40, "duration": 240, "velocity": 85}, {"time": 151680, "pitch": 47, "duration": 240, "velocity": 85}, {"time": 151680, "pitch": 52, "duration": 240, "velocity": 85}, {"time": 151680, "pitch": 55, "duration": 240, "velocity": 85}, {"time": 151680, "pitch": 59, "duration": 240, "velocity": 85}, {"time": 151680, "pitch": 64, "duration": 240, "velocity": 85}, {"time": 151920, "pitch": 40, "duration": 240, "velocity": 100}, {"time": 151920, "pitch": 47, "duration": 240, "velocity": 100}, {"time": 151920, "pitch": 52, "duration": 240, "velocity": 100}, {"time": 151920, "pitch": 55, "duration": 240, "velocity": 100}, {"time": 151920, "pitch": 59, "duration": 240, "velocity": 100}, {"time": 151920, "pitch": 64, "duration": 240, "velocity": 100}, {"time": 152160, "pitch": 40, "duration": 240, "velocity": 83}, {"time": 152160, "pitch": 47, "duration": 240, "velocity": 83}, {"time": 152160, "pitch": 52, "duration": 240, "velocity": 83}, {"time": 152160, "pitch": 55, "duration": 240, "velocity": 83}, {"time": 152160, "pitch": 59, "duration": 240, "velocity": 83}, {"time": 152160, "pitch": 64, "duration": 240, "velocity": 83}, {"time": 152400, "pitch": 45, "duration": 480, "velocity": 100}, {"time": 152400, "pitch": 52, "duration": 480, "velocity": 100}, {"time": 152400, "pitch": 57, "duration": 480, "velocity": 100}, {"time": 152400, "pitch": 60, "duration": 480, "velocity": 100}, {"time": 152400, "pitch": 64, "duration": 480, "velocity": 100}, {"time": 152880, "pitch": 45, "duration": 30, "velocity": 100}, {"time": 152880, "pitch": 52, "duration": 30, "velocity": 100}, {"time": 152880, "pitch": 57, "duration": 30, "velocity": 100}, {"time": 153120, "pitch": 43, "duration": 480, "velocity": 100}, {"time": 153120, "pitch": 47, "duration": 480, "velocity": 100}, {"time": 153120, "pitch": 50, "duration": 480, "velocity": 100}, {"time": 153120, "pitch": 55, "duration": 480, "velocity": 100}, {"time": 153120, "pitch": 62, "duration": 480, "velocity": 100}, {"time": 153120, "pitch": 67, "duration": 480, "velocity": 100}, {"time": 153600, "pitch": 43, "duration": 240, "velocity": 85}, {"time": 153600, "pitch": 47, "duration": 240, "velocity": 85}, {"time": 153600, "pitch": 50, "duration": 240, "velocity": 85}, {"time": 153600, "pitch": 55, "duration": 240, "velocity": 85}, {"time": 153600, "pitch": 62, "duration": 240, "velocity": 85}, {"time": 153600, "pitch": 67, "duration": 240, "velocity": 85}, {"time": 153840, "pitch": 43, "duration": 240, "velocity": 100}, {"time": 153840, "pitch": 47, "duration": 240, "velocity": 100}, {"time": 153840, "pitch": 50, "duration": 240, "velocity": 100}, {"time": 153840, "pitch": 55, "duration": 240, "velocity": 85}, {"time": 153840, "pitch": 62, "duration": 240, "velocity": 100}, {"time": 153840, "pitch": 67, "duration": 240, "velocity": 100}, {"time": 154080, "pitch": 43, "duration": 240, "velocity": 83}, {"time": 154080, "pitch": 47, "duration": 240, "velocity": 83}, {"time": 154080, "pitch": 50, "duration": 240, "velocity": 83}, {"time": 154080, "pitch": 55, "duration": 240, "velocity": 85}, {"time": 154080, "pitch": 62, "duration": 240, "velocity": 83}, {"time": 154080, "pitch": 67, "duration": 240, "velocity": 83}, {"time": 154320, "pitch": 50, "duration": 480, "velocity": 100}, {"time": 154320, "pitch": 57, "duration": 480, "velocity": 100}, {"time": 154320, "pitch": 60, "duration": 480, "velocity": 100}, {"time": 154320, "pitch": 65, "duration": 480, "velocity": 100}, {"time": 154800, "pitch": 50, "duration": 30, "velocity": 100}, {"time": 154800, "pitch": 57, "duration": 30, "velocity": 100}, {"time": 154800, "pitch": 60, "duration": 30, "velocity": 100}, {"time": 155040, "pitch": 50, "duration": 480, "velocity": 100}, {"time": 155040, "pitch": 57, "duration": 480, "velocity": 100}, {"time": 155040, "pitch": 60, "duration": 480, "velocity": 100}, {"time": 155040, "pitch": 65, "duration": 480, "velocity": 100}, {"time": 155520, "pitch": 50, "duration": 240, "velocity": 85}, {"time": 155520, "pitch": 57, "duration": 240, "velocity": 85}, {"time": 155520, "pitch": 60, "duration": 240, "velocity": 85}, {"time": 155520, "pitch": 65, "duration": 240, "velocity": 85}, {"time": 155760, "pitch": 50, "duration": 240, "velocity": 100}, {"time": 155760, "pitch": 57, "duration": 240, "velocity": 100}, {"time": 155760, "pitch": 60, "duration": 240, "velocity": 100}, {"time": 155760, "pitch": 65, "duration": 240, "velocity": 100}, {"time": 156000, "pitch": 50, "duration": 240, "velocity": 83}, {"time": 156000, "pitch": 57, "duration": 240, "velocity": 83}, {"time": 156000, "pitch": 60, "duration": 240, "velocity": 83}, {"time": 156000, "pitch": 65, "duration": 240, "velocity": 83}, {"time": 156240, "pitch": 43, "duration": 480, "velocity": 100}, {"time": 156240, "pitch": 50, "duration": 480, "velocity": 100}, {"time": 156240, "pitch": 57, "duration": 480, "velocity": 100}, {"time": 156240, "pitch": 60, "duration": 480, "velocity": 100}, {"time": 156240, "pitch": 65, "duration": 480, "velocity": 100}, {"time": 156720, "pitch": 43, "duration": 480, "velocity": 100}, {"time": 156720, "pitch": 50, "duration": 480, "velocity": 100}, {"time": 156720, "pitch": 57, "duration": 480, "velocity": 100}, {"time": 156720, "pitch": 60, "duration": 480, "velocity": 100}, {"time": 156720, "pitch": 65, "duration": 480, "velocity": 100}, {"time": 157200, "pitch": 43, "duration": 480, "velocity": 99}, {"time": 157200, "pitch": 50, "duration": 480, "velocity": 99}, {"time": 157200, "pitch": 57, "duration": 480, "velocity": 99}, {"time": 157200, "pitch": 60, "duration": 480, "velocity": 99}, {"time": 157200, "pitch": 65, "duration": 480, "velocity": 99}, {"time": 157680, "pitch": 43, "duration": 480, "velocity": 100}, {"time": 157680, "pitch": 50, "duration": 480, "velocity": 100}, {"time": 157680, "pitch": 57, "duration": 480, "velocity": 100}, {"time": 157680, "pitch": 60, "duration": 480, "velocity": 100}, {"time": 157680, "pitch": 65, "duration": 480, "velocity": 100}, {"time": 158160, "pitch": 48, "duration": 480, "velocity": 100}, {"time": 158160, "pitch": 52, "duration": 480, "velocity": 100}, {"time": 158160, "pitch": 55, "duration": 480, "velocity": 100}, {"time": 158160, "pitch": 60, "duration": 480, "velocity": 100}, {"time": 158160, "pitch": 64, "duration": 480, "velocity": 100}, {"time": 158640, "pitch": 48, "duration": 30, "velocity": 100}, {"time": 158640, "pitch": 52, "duration": 30, "velocity": 100}, {"time": 158640, "pitch": 55, "duration": 30, "velocity": 100}, {"time": 158880, "pitch": 47, "duration": 480, "velocity": 100}, {"time": 158880, "pitch": 50, "duration": 480, "velocity": 100}, {"time": 158880, "pitch": 55, "duration": 480, "velocity": 100}, {"time": 158880, "pitch": 62, "duration": 480, "velocity": 100}, {"time": 158880, "pitch": 67, "duration": 480, "velocity": 100}, {"time": 159360, "pitch": 47, "duration": 240, "velocity": 85}, {"time": 159360, "pitch": 50, "duration": 240, "velocity": 85}, {"time": 159360, "pitch": 55, "duration": 240, "velocity": 85}, {"time": 159360, "pitch": 62, "duration": 240, "velocity": 85}, {"time": 159360, "pitch": 67, "duration": 240, "velocity": 85}, {"time": 159600, "pitch": 47, "duration": 240, "velocity": 100}, {"time": 159600, "pitch": 50, "duration": 240, "velocity": 100}, {"time": 159600, "pitch": 55, "duration": 240, "velocity": 100}, {"time": 159600, "pitch": 62, "duration": 240, "velocity": 100}, {"time": 159600, "pitch": 67, "duration": 240, "velocity": 100}, {"time": 159840, "pitch": 47, "duration": 240, "velocity": 83}, {"time": 159840, "pitch": 50, "duration": 240, "velocity": 83}, {"time": 159840, "pitch": 55, "duration": 240, "velocity": 83}, {"time": 159840, "pitch": 62, "duration": 240, "velocity": 83}, {"time": 159840, "pitch": 67, "duration": 240, "velocity": 83}, {"time": 160080, "pitch": 45, "duration": 480, "velocity": 100}, {"time": 160080, "pitch": 52, "duration": 480, "velocity": 100}, {"time": 160080, "pitch": 57, "duration": 480, "velocity": 100}, {"time": 160080, "pitch": 60, "duration": 480, "velocity": 100}, {"time": 160080, "pitch": 64, "duration": 480, "velocity": 100}, {"time": 160560, "pitch": 45, "duration": 30, "velocity": 100}, {"time": 160560, "pitch": 52, "duration": 30, "velocity": 100}, {"time": 160560, "pitch": 57, "duration": 30, "velocity": 100}, {"time": 160800, "pitch": 43, "duration": 480, "velocity": 100}, {"time": 160800, "pitch": 47, "duration": 480, "velocity": 100}, {"time": 160800, "pitch": 50, "duration": 480, "velocity": 100}, {"time": 160800, "pitch": 55, "duration": 480, "velocity": 100}, {"time": 160800, "pitch": 62, "duration": 480, "velocity": 100}, {"time": 160800, "pitch": 67, "duration": 480, "velocity": 100}, {"time": 161280, "pitch": 43, "duration": 240, "velocity": 85}, {"time": 161280, "pitch": 47, "duration": 240, "velocity": 85}, {"time": 161280, "pitch": 50, "duration": 240, "velocity": 85}, {"time": 161280, "pitch": 55, "duration": 240, "velocity": 85}, {"time": 161280, "pitch": 62, "duration": 240, "velocity": 85}, {"time": 161280, "pitch": 67, "duration": 240, "velocity": 85}, {"time": 161520, "pitch": 43, "duration": 240, "velocity": 100}, {"time": 161520, "pitch": 47, "duration": 240, "velocity": 100}, {"time": 161520, "pitch": 50, "duration": 240, "velocity": 100}, {"time": 161520, "pitch": 55, "duration": 240, "velocity": 85}, {"time": 161520, "pitch": 62, "duration": 240, "velocity": 100}, {"time": 161520, "pitch": 67, "duration": 240, "velocity": 100}, {"time": 161760, "pitch": 43, "duration": 240, "velocity": 83}, {"time": 161760, "pitch": 47, "duration": 240, "velocity": 83}, {"time": 161760, "pitch": 50, "duration": 240, "velocity": 83}, {"time": 161760, "pitch": 55, "duration": 240, "velocity": 85}, {"time": 161760, "pitch": 62, "duration": 240, "velocity": 83}, {"time": 161760, "pitch": 67, "duration": 240, "velocity": 83}, {"time": 162000, "pitch": 41, "duration": 480, "velocity": 100}, {"time": 162000, "pitch": 48, "duration": 480, "velocity": 100}, {"time": 162000, "pitch": 53, "duration": 480, "velocity": 100}, {"time": 162000, "pitch": 57, "duration": 480, "velocity": 100}, {"time": 162000, "pitch": 60, "duration": 480, "velocity": 100}, {"time": 162000, "pitch": 65, "duration": 480, "velocity": 100}, {"time": 162480, "pitch": 41, "duration": 30, "velocity": 100}, {"time": 162480, "pitch": 48, "duration": 30, "velocity": 100}, {"time": 162480, "pitch": 53, "duration": 30, "velocity": 100}, {"time": 162720, "pitch": 40, "duration": 480, "velocity": 100}, {"time": 162720, "pitch": 47, "duration": 480, "velocity": 100}, {"time": 162720, "pitch": 52, "duration": 480, "velocity": 100}, {"time": 162720, "pitch": 55, "duration": 480, "velocity": 100}, {"time": 162720, "pitch": 59, "duration": 480, "velocity": 100}, {"time": 162720, "pitch": 64, "duration": 480, "velocity": 100}, {"time": 163200, "pitch": 40, "duration": 240, "velocity": 85}, {"time": 163200, "pitch": 47, "duration": 240, "velocity": 85}, {"time": 163200, "pitch": 52, "duration": 240, "velocity": 85}, {"time": 163200, "pitch": 55, "duration": 240, "velocity": 85}, {"time": 163200, "pitch": 59, "duration": 240, "velocity": 85}, {"time": 163200, "pitch": 64, "duration": 240, "velocity": 85}, {"time": 163440, "pitch": 40, "duration": 240, "velocity": 85}, {"time": 163440, "pitch": 47, "duration": 240, "velocity": 100}, {"time": 163440, "pitch": 52, "duration": 240, "velocity": 100}, {"time": 163440, "pitch": 55, "duration": 240, "velocity": 100}, {"time": 163440, "pitch": 59, "duration": 240, "velocity": 100}, {"time": 163440, "pitch": 64, "duration": 240, "velocity": 100}, {"time": 163680, "pitch": 40, "duration": 240, "velocity": 85}, {"time": 163680, "pitch": 47, "duration": 240, "velocity": 83}, {"time": 163680, "pitch": 52, "duration": 240, "velocity": 83}, {"time": 163680, "pitch": 55, "duration": 240, "velocity": 83}, {"time": 163680, "pitch": 59, "duration": 240, "velocity": 83}, {"time": 163680, "pitch": 64, "duration": 240, "velocity": 83}, {"time": 163920, "pitch": 50, "duration": 480, "velocity": 100}, {"time": 163920, "pitch": 57, "duration": 480, "velocity": 100}, {"time": 163920, "pitch": 60, "duration": 480, "velocity": 100}, {"time": 163920, "pitch": 65, "duration": 480, "velocity": 100}, {"time": 164400, "pitch": 50, "duration": 30, "velocity": 100}, {"time": 164400, "pitch": 57, "duration": 30, "velocity": 100}, {"time": 164400, "pitch": 60, "duration": 30, "velocity": 100}, {"time": 164640, "pitch": 43, "duration": 480, "velocity": 100}, {"time": 164640, "pitch": 47, "duration": 480, "velocity": 100}, {"time": 164640, "pitch": 50, "duration": 480, "velocity": 100}, {"time": 164640, "pitch": 55, "duration": 480, "velocity": 100}, {"time": 164640, "pitch": 62, "duration": 480, "velocity": 100}, {"time": 164640, "pitch": 67, "duration": 480, "velocity": 100}, {"time": 165120, "pitch": 43, "duration": 240, "velocity": 85}, {"time": 165120, "pitch": 47, "duration": 240, "velocity": 85}, {"time": 165120, "pitch": 50, "duration": 240, "velocity": 85}, {"time": 165120, "pitch": 55, "duration": 240, "velocity": 85}, {"time": 165120, "pitch": 62, "duration": 240, "velocity": 85}, {"time": 165120, "pitch": 67, "duration": 240, "velocity": 85}, {"time": 165360, "pitch": 41, "duration": 240, "velocity": 100}, {"time": 165360, "pitch": 47, "duration": 240, "velocity": 100}, {"time": 165360, "pitch": 50, "duration": 240, "velocity": 100}, {"time": 165360, "pitch": 55, "duration": 240, "velocity": 85}, {"time": 165360, "pitch": 62, "duration": 240, "velocity": 100}, {"time": 165360, "pitch": 67, "duration": 240, "velocity": 100}, {"time": 165600, "pitch": 41, "duration": 240, "velocity": 83}, {"time": 165600, "pitch": 47, "duration": 240, "velocity": 83}, {"time": 165600, "pitch": 50, "duration": 240, "velocity": 83}, {"time": 165600, "pitch": 55, "duration": 240, "velocity": 85}, {"time": 165600, "pitch": 62, "duration": 240, "velocity": 83}, {"time": 165600, "pitch": 67, "duration": 240, "velocity": 83}, {"time": 165840, "pitch": 40, "duration": 480, "velocity": 100}, {"time": 165840, "pitch": 47, "duration": 480, "velocity": 100}, {"time": 165840, "pitch": 52, "duration": 480, "velocity": 100}, {"time": 165840, "pitch": 55, "duration": 480, "velocity": 100}, {"time": 165840, "pitch": 59, "duration": 480, "velocity": 100}, {"time": 165840, "pitch": 64, "duration": 480, "velocity": 100}, {"time": 166320, "pitch": 40, "duration": 30, "velocity": 100}, {"time": 166320, "pitch": 47, "duration": 30, "velocity": 100}, {"time": 166320, "pitch": 52, "duration": 30, "velocity": 100}, {"time": 166560, "pitch": 40, "duration": 480, "velocity": 100}, {"time": 166560, "pitch": 47, "duration": 480, "velocity": 100}, {"time": 166560, "pitch": 52, "duration": 480, "velocity": 100}, {"time": 166560, "pitch": 55, "duration": 480, "velocity": 100}, {"time": 166560, "pitch": 59, "duration": 480, "velocity": 83}, {"time": 166560, "pitch": 64, "duration": 480, "velocity": 100}, {"time": 167040, "pitch": 40, "duration": 240, "velocity": 85}, {"time": 167040, "pitch": 47, "duration": 240, "velocity": 85}, {"time": 167040, "pitch": 52, "duration": 240, "velocity": 85}, {"time": 167040, "pitch": 55, "duration": 240, "velocity": 85}, {"time": 167040, "pitch": 59, "duration": 240, "velocity": 85}, {"time": 167040, "pitch": 64, "duration": 240, "velocity": 85}, {"time": 167280, "pitch": 40, "duration": 240, "velocity": 100}, {"time": 167280, "pitch": 47, "duration": 240, "velocity": 100}, {"time": 167280, "pitch": 52, "duration": 240, "velocity": 100}, {"time": 167280, "pitch": 55, "duration": 240, "velocity": 100}, {"time": 167280, "pitch": 59, "duration": 240, "velocity": 100}, {"time": 167280, "pitch": 64, "duration": 240, "velocity": 100}, {"time": 167520, "pitch": 40, "duration": 240, "velocity": 83}, {"time": 167520, "pitch": 47, "duration": 240, "velocity": 83}, {"time": 167520, "pitch": 52, "duration": 240, "velocity": 83}, {"time": 167520, "pitch": 55, "duration": 240, "velocity": 83}, {"time": 167520, "pitch": 59, "duration": 240, "velocity": 83}, {"time": 167520, "pitch": 64, "duration": 240, "velocity": 83}, {"time": 167760, "pitch": 45, "duration": 480, "velocity": 100}, {"time": 167760, "pitch": 52, "duration": 480, "velocity": 100}, {"time": 167760, "pitch": 57, "duration": 480, "velocity": 100}, {"time": 167760, "pitch": 60, "duration": 480, "velocity": 100}, {"time": 167760, "pitch": 64, "duration": 480, "velocity": 100}, {"time": 168240, "pitch": 45, "duration": 30, "velocity": 100}, {"time": 168240, "pitch": 52, "duration": 30, "velocity": 100}, {"time": 168240, "pitch": 57, "duration": 30, "velocity": 100}, {"time": 168480, "pitch": 43, "duration": 480, "velocity": 100}, {"time": 168480, "pitch": 47, "duration": 480, "velocity": 100}, {"time": 168480, "pitch": 50, "duration": 480, "velocity": 100}, {"time": 168480, "pitch": 55, "duration": 480, "velocity": 100}, {"time": 168480, "pitch": 62, "duration": 480, "velocity": 100}, {"time": 168480, "pitch": 67, "duration": 480, "velocity": 100}, {"time": 168960, "pitch": 43, "duration": 240, "velocity": 85}, {"time": 168960, "pitch": 47, "duration": 240, "velocity": 85}, {"time": 168960, "pitch": 50, "duration": 240, "velocity": 85}, {"time": 168960, "pitch": 55, "duration": 240, "velocity": 85}, {"time": 168960, "pitch": 62, "duration": 240, "velocity": 85}, {"time": 168960, "pitch": 67, "duration": 240, "velocity": 85}, {"time": 169200, "pitch": 43, "duration": 240, "velocity": 100}, {"time": 169200, "pitch": 47, "duration": 240, "velocity": 100}, {"time": 169200, "pitch": 50, "duration": 240, "velocity": 100}, {"time": 169200, "pitch": 55, "duration": 240, "velocity": 85}, {"time": 169200, "pitch": 62, "duration": 240, "velocity": 100}, {"time": 169200, "pitch": 67, "duration": 240, "velocity": 100}, {"time": 169440, "pitch": 43, "duration": 240, "velocity": 83}, {"time": 169440, "pitch": 47, "duration": 240, "velocity": 83}, {"time": 169440, "pitch": 50, "duration": 240, "velocity": 83}, {"time": 169440, "pitch": 55, "duration": 240, "velocity": 85}, {"time": 169440, "pitch": 62, "duration": 240, "velocity": 83}, {"time": 169440, "pitch": 67, "duration": 240, "velocity": 83}, {"time": 169680, "pitch": 50, "duration": 480, "velocity": 100}, {"time": 169680, "pitch": 57, "duration": 480, "velocity": 100}, {"time": 169680, "pitch": 60, "duration": 480, "velocity": 100}, {"time": 169680, "pitch": 65, "duration": 480, "velocity": 100}, {"time": 170160, "pitch": 50, "duration": 30, "velocity": 100}, {"time": 170160, "pitch": 57, "duration": 30, "velocity": 100}, {"time": 170160, "pitch": 60, "duration": 30, "velocity": 100}, {"time": 170400, "pitch": 50, "duration": 480, "velocity": 100}, {"time": 170400, "pitch": 57, "duration": 480, "velocity": 100}, {"time": 170400, "pitch": 60, "duration": 480, "velocity": 100}, {"time": 170400, "pitch": 65, "duration": 480, "velocity": 100}, {"time": 170880, "pitch": 50, "duration": 240, "velocity": 85}, {"time": 170880, "pitch": 57, "duration": 240, "velocity": 85}, {"time": 170880, "pitch": 60, "duration": 240, "velocity": 85}, {"time": 170880, "pitch": 65, "duration": 240, "velocity": 85}, {"time": 171120, "pitch": 50, "duration": 240, "velocity": 100}, {"time": 171120, "pitch": 57, "duration": 240, "velocity": 100}, {"time": 171120, "pitch": 60, "duration": 240, "velocity": 100}, {"time": 171120, "pitch": 65, "duration": 240, "velocity": 100}, {"time": 171360, "pitch": 50, "duration": 240, "velocity": 83}, {"time": 171360, "pitch": 57, "duration": 240, "velocity": 83}, {"time": 171360, "pitch": 60, "duration": 240, "velocity": 83}, {"time": 171360, "pitch": 65, "duration": 240, "velocity": 83}, {"time": 171600, "pitch": 43, "duration": 480, "velocity": 100}, {"time": 171600, "pitch": 50, "duration": 480, "velocity": 100}, {"time": 171600, "pitch": 57, "duration": 480, "velocity": 100}, {"time": 171600, "pitch": 60, "duration": 480, "velocity": 100}, {"time": 171600, "pitch": 65, "duration": 480, "velocity": 100}, {"time": 172080, "pitch": 43, "duration": 480, "velocity": 100}, {"time": 172080, "pitch": 50, "duration": 480, "velocity": 100}, {"time": 172080, "pitch": 57, "duration": 480, "velocity": 100}, {"time": 172080, "pitch": 60, "duration": 480, "velocity": 100}, {"time": 172080, "pitch": 65, "duration": 480, "velocity": 100}, {"time": 172560, "pitch": 43, "duration": 480, "velocity": 99}, {"time": 172560, "pitch": 50, "duration": 480, "velocity": 99}, {"time": 172560, "pitch": 57, "duration": 480, "velocity": 99}, {"time": 172560, "pitch": 60, "duration": 480, "velocity": 99}, {"time": 172560, "pitch": 65, "duration": 480, "velocity": 99}, {"time": 173040, "pitch": 43, "duration": 480, "velocity": 100}, {"time": 173040, "pitch": 50, "duration": 480, "velocity": 100}, {"time": 173040, "pitch": 57, "duration": 480, "velocity": 100}, {"time": 173040, "pitch": 60, "duration": 480, "velocity": 100}, {"time": 173040, "pitch": 65, "duration": 480, "velocity": 100}, {"time": 173520, "pitch": 41, "duration": 480, "velocity": 100}, {"time": 173520, "pitch": 48, "duration": 480, "velocity": 100}, {"time": 173520, "pitch": 53, "duration": 480, "velocity": 100}, {"time": 173520, "pitch": 56, "duration": 480, "velocity": 100}, {"time": 173520, "pitch": 60, "duration": 480, "velocity": 100}, {"time": 173520, "pitch": 65, "duration": 480, "velocity": 100}, {"time": 174000, "pitch": 41, "duration": 30, "velocity": 100}, {"time": 174000, "pitch": 48, "duration": 30, "velocity": 100}, {"time": 174000, "pitch": 53, "duration": 30, "velocity": 100}, {"time": 174240, "pitch": 41, "duration": 480, "velocity": 100}, {"time": 174240, "pitch": 48, "duration": 480, "velocity": 100}, {"time": 174240, "pitch": 53, "duration": 480, "velocity": 100}, {"time": 174240, "pitch": 56, "duration": 480, "velocity": 100}, {"time": 174240, "pitch": 60, "duration": 480, "velocity": 83}, {"time": 174240, "pitch": 65, "duration": 480, "velocity": 100}, {"time": 174720, "pitch": 41, "duration": 240, "velocity": 85}, {"time": 174720, "pitch": 48, "duration": 240, "velocity": 85}, {"time": 174720, "pitch": 53, "duration": 240, "velocity": 85}, {"time": 174720, "pitch": 56, "duration": 240, "velocity": 85}, {"time": 174720, "pitch": 60, "duration": 240, "velocity": 85}, {"time": 174720, "pitch": 65, "duration": 240, "velocity": 85}, {"time": 174960, "pitch": 41, "duration": 240, "velocity": 100}, {"time": 174960, "pitch": 48, "duration": 240, "velocity": 100}, {"time": 174960, "pitch": 53, "duration": 240, "velocity": 100}, {"time": 174960, "pitch": 56, "duration": 240, "velocity": 100}, {"time": 174960, "pitch": 60, "duration": 240, "velocity": 100}, {"time": 174960, "pitch": 65, "duration": 240, "velocity": 100}, {"time": 175200, "pitch": 41, "duration": 240, "velocity": 83}, {"time": 175200, "pitch": 48, "duration": 240, "velocity": 83}, {"time": 175200, "pitch": 53, "duration": 240, "velocity": 83}, {"time": 175200, "pitch": 56, "duration": 240, "velocity": 83}, {"time": 175200, "pitch": 60, "duration": 240, "velocity": 83}, {"time": 175200, "pitch": 65, "duration": 240, "velocity": 83}, {"time": 175440, "pitch": 43, "duration": 480, "velocity": 100}, {"time": 175440, "pitch": 50, "duration": 480, "velocity": 100}, {"time": 175440, "pitch": 55, "duration": 480, "velocity": 100}, {"time": 175440, "pitch": 58, "duration": 480, "velocity": 100}, {"time": 175440, "pitch": 62, "duration": 480, "velocity": 100}, {"time": 175440, "pitch": 67, "duration": 480, "velocity": 100}, {"time": 175920, "pitch": 43, "duration": 30, "velocity": 100}, {"time": 175920, "pitch": 50, "duration": 30, "velocity": 100}, {"time": 175920, "pitch": 55, "duration": 30, "velocity": 100}, {"time": 176160, "pitch": 43, "duration": 480, "velocity": 100}, {"time": 176160, "pitch": 50, "duration": 480, "velocity": 100}, {"time": 176160, "pitch": 55, "duration": 480, "velocity": 100}, {"time": 176160, "pitch": 58, "duration": 480, "velocity": 100}, {"time": 176160, "pitch": 62, "duration": 480, "velocity": 83}, {"time": 176160, "pitch": 67, "duration": 480, "velocity": 100}, {"time": 176640, "pitch": 43, "duration": 240, "velocity": 85}, {"time": 176640, "pitch": 50, "duration": 240, "velocity": 85}, {"time": 176640, "pitch": 55, "duration": 240, "velocity": 85}, {"time": 176640, "pitch": 58, "duration": 240, "velocity": 85}, {"time": 176640, "pitch": 62, "duration": 240, "velocity": 85}, {"time": 176640, "pitch": 67, "duration": 240, "velocity": 85}, {"time": 176880, "pitch": 43, "duration": 240, "velocity": 100}, {"time": 176880, "pitch": 50, "duration": 240, "velocity": 100}, {"time": 176880, "pitch": 55, "duration": 240, "velocity": 100}, {"time": 176880, "pitch": 58, "duration": 240, "velocity": 100}, {"time": 176880, "pitch": 62, "duration": 240, "velocity": 100}, {"time": 176880, "pitch": 67, "duration": 240, "velocity": 100}, {"time": 177120, "pitch": 43, "duration": 240, "velocity": 83}, {"time": 177120, "pitch": 50, "duration": 240, "velocity": 83}, {"time": 177120, "pitch": 55, "duration": 240, "velocity": 83}, {"time": 177120, "pitch": 58, "duration": 240, "velocity": 83}, {"time": 177120, "pitch": 62, "duration": 240, "velocity": 83}, {"time": 177120, "pitch": 67, "duration": 240, "velocity": 83}, {"time": 177360, "pitch": 48, "duration": 480, "velocity": 100}, {"time": 177360, "pitch": 52, "duration": 480, "velocity": 100}, {"time": 177360, "pitch": 55, "duration": 480, "velocity": 100}, {"time": 177360, "pitch": 60, "duration": 480, "velocity": 100}, {"time": 177360, "pitch": 64, "duration": 480, "velocity": 100}, {"time": 177840, "pitch": 48, "duration": 30, "velocity": 100}, {"time": 177840, "pitch": 52, "duration": 30, "velocity": 100}, {"time": 177840, "pitch": 55, "duration": 30, "velocity": 100}, {"time": 178080, "pitch": 48, "duration": 480, "velocity": 100}, {"time": 178080, "pitch": 52, "duration": 480, "velocity": 100}, {"time": 178080, "pitch": 55, "duration": 480, "velocity": 100}, {"time": 178080, "pitch": 60, "duration": 480, "velocity": 100}, {"time": 178080, "pitch": 64, "duration": 480, "velocity": 100}, {"time": 178560, "pitch": 48, "duration": 240, "velocity": 85}, {"time": 178560, "pitch": 52, "duration": 240, "velocity": 85}, {"time": 178560, "pitch": 55, "duration": 240, "velocity": 85}, {"time": 178560, "pitch": 60, "duration": 240, "velocity": 85}, {"time": 178560, "pitch": 64, "duration": 240, "velocity": 85}, {"time": 178800, "pitch": 48, "duration": 240, "velocity": 100}, {"time": 178800, "pitch": 52, "duration": 240, "velocity": 100}, {"time": 178800, "pitch": 55, "duration": 240, "velocity": 100}, {"time": 178800, "pitch": 60, "duration": 240, "velocity": 100}, {"time": 178800, "pitch": 64, "duration": 240, "velocity": 100}, {"time": 179040, "pitch": 48, "duration": 480, "velocity": 99}, {"time": 179040, "pitch": 52, "duration": 480, "velocity": 99}, {"time": 179040, "pitch": 55, "duration": 480, "velocity": 99}, {"time": 179040, "pitch": 60, "duration": 480, "velocity": 99}, {"time": 179040, "pitch": 65, "duration": 480, "velocity": 99}, {"time": 179520, "pitch": 48, "duration": 480, "velocity": 100}, {"time": 179520, "pitch": 52, "duration": 480, "velocity": 100}, {"time": 179520, "pitch": 55, "duration": 480, "velocity": 100}, {"time": 179520, "pitch": 60, "duration": 480, "velocity": 100}, {"time": 179520, "pitch": 65, "duration": 480, "velocity": 100}, {"time": 180000, "pitch": 48, "duration": 480, "velocity": 100}, {"time": 180000, "pitch": 52, "duration": 480, "velocity": 100}, {"time": 180000, "pitch": 55, "duration": 480, "velocity": 100}, {"time": 180000, "pitch": 60, "duration": 480, "velocity": 100}, {"time": 180000, "pitch": 64, "duration": 480, "velocity": 100}, {"time": 180480, "pitch": 48, "duration": 240, "velocity": 100}, {"time": 180480, "pitch": 52, "duration": 240, "velocity": 100}, {"time": 180480, "pitch": 55, "duration": 240, "velocity": 100}, {"time": 180480, "pitch": 60, "duration": 240, "velocity": 100}, {"time": 180480, "pitch": 64, "duration": 240, "velocity": 100}, {"time": 180720, "pitch": 48, "duration": 240, "velocity": 92}, {"time": 180720, "pitch": 52, "duration": 240, "velocity": 92}, {"time": 180720, "pitch": 55, "duration": 240, "velocity": 92}, {"time": 180720, "pitch": 60, "duration": 240, "velocity": 92}, {"time": 180720, "pitch": 64, "duration": 240, "velocity": 92}, {"time": 180960, "pitch": 48, "duration": 240, "velocity": 96}, {"time": 180960, "pitch": 52, "duration": 240, "velocity": 96}, {"time": 180960, "pitch": 55, "duration": 240, "velocity": 96}, {"time": 180960, "pitch": 60, "duration": 240, "velocity": 96}, {"time": 180960, "pitch": 64, "duration": 240, "velocity": 96}, {"time": 181200, "pitch": 41, "duration": 480, "velocity": 100}, {"time": 181200, "pitch": 48, "duration": 480, "velocity": 100}, {"time": 181200, "pitch": 53, "duration": 480, "velocity": 100}, {"time": 181200, "pitch": 56, "duration": 480, "velocity": 100}, {"time": 181200, "pitch": 60, "duration": 480, "velocity": 100}, {"time": 181200, "pitch": 65, "duration": 480, "velocity": 100}, {"time": 181680, "pitch": 41, "duration": 30, "velocity": 100}, {"time": 181680, "pitch": 48, "duration": 30, "velocity": 100}, {"time": 181680, "pitch": 53, "duration": 30, "velocity": 100}, {"time": 181920, "pitch": 41, "duration": 480, "velocity": 100}, {"time": 181920, "pitch": 48, "duration": 480, "velocity": 100}, {"time": 181920, "pitch": 53, "duration": 480, "velocity": 100}, {"time": 181920, "pitch": 56, "duration": 480, "velocity": 100}, {"time": 181920, "pitch": 60, "duration": 480, "velocity": 83}, {"time": 181920, "pitch": 65, "duration": 480, "velocity": 100}, {"time": 182400, "pitch": 41, "duration": 240, "velocity": 85}, {"time": 182400, "pitch": 48, "duration": 240, "velocity": 85}, {"time": 182400, "pitch": 53, "duration": 240, "velocity": 85}, {"time": 182400, "pitch": 56, "duration": 240, "velocity": 85}, {"time": 182400, "pitch": 60, "duration": 240, "velocity": 85}, {"time": 182400, "pitch": 65, "duration": 240, "velocity": 85}, {"time": 182640, "pitch": 41, "duration": 240, "velocity": 100}, {"time": 182640, "pitch": 48, "duration": 240, "velocity": 100}, {"time": 182640, "pitch": 53, "duration": 240, "velocity": 100}, {"time": 182640, "pitch": 56, "duration": 240, "velocity": 100}, {"time": 182640, "pitch": 60, "duration": 240, "velocity": 100}, {"time": 182640, "pitch": 65, "duration": 240, "velocity": 100}, {"time": 182880, "pitch": 41, "duration": 240, "velocity": 83}, {"time": 182880, "pitch": 48, "duration": 240, "velocity": 83}, {"time": 182880, "pitch": 53, "duration": 240, "velocity": 83}, {"time": 182880, "pitch": 56, "duration": 240, "velocity": 83}, {"time": 182880, "pitch": 60, "duration": 240, "velocity": 83}, {"time": 182880, "pitch": 65, "duration": 240, "velocity": 83}, {"time": 183120, "pitch": 43, "duration": 480, "velocity": 100}, {"time": 183120, "pitch": 50, "duration": 480, "velocity": 100}, {"time": 183120, "pitch": 55, "duration": 480, "velocity": 100}, {"time": 183120, "pitch": 58, "duration": 480, "velocity": 100}, {"time": 183120, "pitch": 62, "duration": 480, "velocity": 100}, {"time": 183120, "pitch": 67, "duration": 480, "velocity": 100}, {"time": 183600, "pitch": 43, "duration": 30, "velocity": 100}, {"time": 183600, "pitch": 50, "duration": 30, "velocity": 100}, {"time": 183600, "pitch": 55, "duration": 30, "velocity": 100}, {"time": 183840, "pitch": 43, "duration": 480, "velocity": 100}, {"time": 183840, "pitch": 50, "duration": 480, "velocity": 100}, {"time": 183840, "pitch": 55, "duration": 480, "velocity": 100}, {"time": 183840, "pitch": 58, "duration": 480, "velocity": 100}, {"time": 183840, "pitch": 62, "duration": 480, "velocity": 83}, {"time": 183840, "pitch": 67, "duration": 480, "velocity": 100}, {"time": 184320, "pitch": 43, "duration": 240, "velocity": 85}, {"time": 184320, "pitch": 50, "duration": 240, "velocity": 85}, {"time": 184320, "pitch": 55, "duration": 240, "velocity": 85}, {"time": 184320, "pitch": 58, "duration": 240, "velocity": 85}, {"time": 184320, "pitch": 62, "duration": 240, "velocity": 85}, {"time": 184320, "pitch": 67, "duration": 240, "velocity": 85}, {"time": 184560, "pitch": 43, "duration": 240, "velocity": 100}, {"time": 184560, "pitch": 50, "duration": 240, "velocity": 100}, {"time": 184560, "pitch": 55, "duration": 240, "velocity": 100}, {"time": 184560, "pitch": 58, "duration": 240, "velocity": 100}, {"time": 184560, "pitch": 62, "duration": 240, "velocity": 100}, {"time": 184560, "pitch": 67, "duration": 240, "velocity": 100}, {"time": 184800, "pitch": 43, "duration": 240, "velocity": 83}, {"time": 184800, "pitch": 50, "duration": 240, "velocity": 83}, {"time": 184800, "pitch": 55, "duration": 240, "velocity": 83}, {"time": 184800, "pitch": 58, "duration": 240, "velocity": 83}, {"time": 184800, "pitch": 62, "duration": 240, "velocity": 83}, {"time": 184800, "pitch": 67, "duration": 240, "velocity": 83}, {"time": 185040, "pitch": 50, "duration": 480, "velocity": 100}, {"time": 185040, "pitch": 57, "duration": 480, "velocity": 100}, {"time": 185040, "pitch": 60, "duration": 480, "velocity": 100}, {"time": 185040, "pitch": 65, "duration": 480, "velocity": 100}, {"time": 185520, "pitch": 50, "duration": 30, "velocity": 100}, {"time": 185520, "pitch": 57, "duration": 30, "velocity": 100}, {"time": 185520, "pitch": 60, "duration": 30, "velocity": 100}, {"time": 185760, "pitch": 50, "duration": 480, "velocity": 100}, {"time": 185760, "pitch": 57, "duration": 480, "velocity": 100}, {"time": 185760, "pitch": 60, "duration": 480, "velocity": 100}, {"time": 185760, "pitch": 65, "duration": 480, "velocity": 100}, {"time": 186240, "pitch": 50, "duration": 240, "velocity": 85}, {"time": 186240, "pitch": 57, "duration": 240, "velocity": 85}, {"time": 186240, "pitch": 60, "duration": 240, "velocity": 85}, {"time": 186240, "pitch": 65, "duration": 240, "velocity": 85}, {"time": 186480, "pitch": 50, "duration": 240, "velocity": 100}, {"time": 186480, "pitch": 57, "duration": 240, "velocity": 100}, {"time": 186480, "pitch": 60, "duration": 240, "velocity": 100}, {"time": 186480, "pitch": 65, "duration": 240, "velocity": 100}, {"time": 186720, "pitch": 43, "duration": 720, "velocity": 100}, {"time": 186720, "pitch": 50, "duration": 720, "velocity": 100}, {"time": 186720, "pitch": 57, "duration": 720, "velocity": 100}, {"time": 186720, "pitch": 60, "duration": 720, "velocity": 100}, {"time": 186720, "pitch": 65, "duration": 720, "velocity": 100}, {"time": 187440, "pitch": 43, "duration": 480, "velocity": 100}, {"time": 187440, "pitch": 50, "duration": 480, "velocity": 100}, {"time": 187440, "pitch": 57, "duration": 480, "velocity": 100}, {"time": 187440, "pitch": 60, "duration": 480, "velocity": 100}, {"time": 187440, "pitch": 65, "duration": 480, "velocity": 100}, {"time": 187920, "pitch": 43, "duration": 480, "velocity": 99}, {"time": 187920, "pitch": 50, "duration": 480, "velocity": 99}, {"time": 187920, "pitch": 57, "duration": 480, "velocity": 99}, {"time": 187920, "pitch": 60, "duration": 480, "velocity": 99}, {"time": 187920, "pitch": 65, "duration": 480, "velocity": 99}, {"time": 188400, "pitch": 43, "duration": 480, "velocity": 100}, {"time": 188400, "pitch": 50, "duration": 480, "velocity": 100}, {"time": 188400, "pitch": 57, "duration": 480, "velocity": 100}, {"time": 188400, "pitch": 60, "duration": 480, "velocity": 100}, {"time": 188400, "pitch": 65, "duration": 480, "velocity": 100}, {"time": 188880, "pitch": 48, "duration": 720, "velocity": 100}, {"time": 189120, "pitch": 60, "duration": 480, "velocity": 100}, {"time": 189360, "pitch": 64, "duration": 240, "velocity": 100}, {"time": 189600, "pitch": 47, "duration": 1200, "velocity": 100}, {"time": 189840, "pitch": 59, "duration": 960, "velocity": 100}, {"time": 190080, "pitch": 67, "duration": 720, "velocity": 100}, {"time": 190320, "pitch": 55, "duration": 480, "velocity": 100}, {"time": 190800, "pitch": 45, "duration": 720, "velocity": 100}, {"time": 191040, "pitch": 57, "duration": 480, "velocity": 100}, {"time": 191280, "pitch": 60, "duration": 240, "velocity": 100}, {"time": 191520, "pitch": 43, "duration": 1200, "velocity": 100}, {"time": 191760, "pitch": 59, "duration": 960, "velocity": 100}, {"time": 192000, "pitch": 62, "duration": 720, "velocity": 100}, {"time": 192240, "pitch": 55, "duration": 480, "velocity": 100}, {"time": 192720, "pitch": 41, "duration": 720, "velocity": 100}, {"time": 192720, "pitch": 57, "duration": 480, "velocity": 100}, {"time": 192960, "pitch": 53, "duration": 480, "velocity": 100}, {"time": 193200, "pitch": 60, "duration": 240, "velocity": 100}, {"time": 193440, "pitch": 40, "duration": 1200, "velocity": 100}, {"time": 193680, "pitch": 52, "duration": 960, "velocity": 100}, {"time": 193920, "pitch": 59, "duration": 720, "velocity": 100}, {"time": 194160, "pitch": 55, "duration": 480, "velocity": 100}, {"time": 194640, "pitch": 50, "duration": 720, "velocity": 100}, {"time": 194640, "pitch": 62, "duration": 480, "velocity": 100}, {"time": 194880, "pitch": 57, "duration": 480, "velocity": 100}, {"time": 195120, "pitch": 65, "duration": 240, "velocity": 100}, {"time": 195360, "pitch": 43, "duration": 720, "velocity": 100}, {"time": 195600, "pitch": 62, "duration": 480, "velocity": 100}, {"time": 195840, "pitch": 59, "duration": 480, "velocity": 100}, {"time": 196080, "pitch": 41, "duration": 480, "velocity": 100}, {"time": 196080, "pitch": 55, "duration": 480, "velocity": 100}, {"time": 196560, "pitch": 40, "duration": 1920, "velocity": 100}, {"time": 196800, "pitch": 55, "duration": 480, "velocity": 100}, {"time": 197040, "pitch": 59, "duration": 480, "velocity": 100}, {"time": 197280, "pitch": 64, "duration": 480, "velocity": 100}, {"time": 197520, "pitch": 59, "duration": 480, "velocity": 100}, {"time": 197760, "pitch": 55, "duration": 480, "velocity": 100}, {"time": 198000, "pitch": 52, "duration": 480, "velocity": 100}, {"time": 198000, "pitch": 64, "duration": 480, "velocity": 100}, {"time": 198480, "pitch": 64, "duration": 720, "velocity": 100}, {"time": 198480, "pitch": 69, "duration": 720, "velocity": 100}, {"time": 198480, "pitch": 71, "duration": 240, "velocity": 100}, {"time": 198720, "pitch": 72, "duration": 480, "velocity": 100}, {"time": 199200, "pitch": 64, "duration": 720, "velocity": 100}, {"time": 199200, "pitch": 69, "duration": 720, "velocity": 100}, {"time": 199200, "pitch": 72, "duration": 720, "velocity": 100}, {"time": 199920, "pitch": 64, "duration": 480, "velocity": 100}, {"time": 199920, "pitch": 69, "duration": 480, "velocity": 100}, {"time": 199920, "pitch": 72, "duration": 480, "velocity": 100}, {"time": 200400, "pitch": 65, "duration": 480, "velocity": 100}, {"time": 200400, "pitch": 69, "duration": 480, "velocity": 100}, {"time": 201120, "pitch": 65, "duration": 720, "velocity": 100}, {"time": 201120, "pitch": 69, "duration": 720, "velocity": 100}, {"time": 201840, "pitch": 65, "duration": 480, "velocity": 100}, {"time": 201840, "pitch": 69, "duration": 480, "velocity": 100}, {"time": 202320, "pitch": 43, "duration": 480, "velocity": 100}, {"time": 202320, "pitch": 50, "duration": 480, "velocity": 100}, {"time": 202320, "pitch": 57, "duration": 480, "velocity": 100}, {"time": 202320, "pitch": 60, "duration": 480, "velocity": 100}, {"time": 202320, "pitch": 65, "duration": 480, "velocity": 100}, {"time": 202800, "pitch": 43, "duration": 480, "velocity": 100}, {"time": 202800, "pitch": 50, "duration": 480, "velocity": 100}, {"time": 202800, "pitch": 57, "duration": 480, "velocity": 100}, {"time": 202800, "pitch": 60, "duration": 480, "velocity": 100}, {"time": 202800, "pitch": 65, "duration": 480, "velocity": 100}, {"time": 203280, "pitch": 43, "duration": 480, "velocity": 99}, {"time": 203280, "pitch": 50, "duration": 480, "velocity": 99}, {"time": 203280, "pitch": 57, "duration": 480, "velocity": 99}, {"time": 203280, "pitch": 60, "duration": 480, "velocity": 99}, {"time": 203280, "pitch": 65, "duration": 480, "velocity": 99}, {"time": 203760, "pitch": 43, "duration": 480, "velocity": 100}, {"time": 203760, "pitch": 50, "duration": 480, "velocity": 100}, {"time": 203760, "pitch": 57, "duration": 480, "velocity": 100}, {"time": 203760, "pitch": 60, "duration": 480, "velocity": 100}, {"time": 203760, "pitch": 65, "duration": 480, "velocity": 100}, {"time": 204240, "pitch": 48, "duration": 480, "velocity": 100}, {"time": 204240, "pitch": 52, "duration": 480, "velocity": 100}, {"time": 204240, "pitch": 55, "duration": 480, "velocity": 100}, {"time": 204240, "pitch": 60, "duration": 480, "velocity": 100}, {"time": 204240, "pitch": 64, "duration": 480, "velocity": 100}, {"time": 204720, "pitch": 48, "duration": 30, "velocity": 100}, {"time": 204720, "pitch": 52, "duration": 30, "velocity": 100}, {"time": 204720, "pitch": 55, "duration": 30, "velocity": 100}, {"time": 204960, "pitch": 47, "duration": 480, "velocity": 100}, {"time": 204960, "pitch": 50, "duration": 480, "velocity": 100}, {"time": 204960, "pitch": 55, "duration": 480, "velocity": 100}, {"time": 204960, "pitch": 62, "duration": 480, "velocity": 100}, {"time": 204960, "pitch": 67, "duration": 480, "velocity": 100}, {"time": 205440, "pitch": 47, "duration": 240, "velocity": 85}, {"time": 205440, "pitch": 50, "duration": 240, "velocity": 85}, {"time": 205440, "pitch": 55, "duration": 240, "velocity": 85}, {"time": 205440, "pitch": 62, "duration": 240, "velocity": 85}, {"time": 205440, "pitch": 67, "duration": 240, "velocity": 85}, {"time": 205680, "pitch": 47, "duration": 240, "velocity": 100}, {"time": 205680, "pitch": 50, "duration": 240, "velocity": 100}, {"time": 205680, "pitch": 55, "duration": 240, "velocity": 100}, {"time": 205680, "pitch": 62, "duration": 240, "velocity": 100}, {"time": 205680, "pitch": 67, "duration": 240, "velocity": 100}, {"time": 205920, "pitch": 47, "duration": 240, "velocity": 83}, {"time": 205920, "pitch": 50, "duration": 240, "velocity": 83}, {"time": 205920, "pitch": 55, "duration": 240, "velocity": 83}, {"time": 205920, "pitch": 62, "duration": 240, "velocity": 83}, {"time": 205920, "pitch": 67, "duration": 240, "velocity": 83}, {"time": 206160, "pitch": 45, "duration": 480, "velocity": 100}, {"time": 206160, "pitch": 52, "duration": 480, "velocity": 100}, {"time": 206160, "pitch": 57, "duration": 480, "velocity": 100}, {"time": 206160, "pitch": 60, "duration": 480, "velocity": 100}, {"time": 206160, "pitch": 64, "duration": 480, "velocity": 100}, {"time": 206640, "pitch": 45, "duration": 30, "velocity": 100}, {"time": 206640, "pitch": 52, "duration": 30, "velocity": 100}, {"time": 206640, "pitch": 57, "duration": 30, "velocity": 100}, {"time": 206880, "pitch": 43, "duration": 480, "velocity": 100}, {"time": 206880, "pitch": 47, "duration": 480, "velocity": 100}, {"time": 206880, "pitch": 50, "duration": 480, "velocity": 100}, {"time": 206880, "pitch": 55, "duration": 480, "velocity": 100}, {"time": 206880, "pitch": 62, "duration": 480, "velocity": 100}, {"time": 206880, "pitch": 67, "duration": 480, "velocity": 100}, {"time": 207360, "pitch": 43, "duration": 240, "velocity": 85}, {"time": 207360, "pitch": 47, "duration": 240, "velocity": 85}, {"time": 207360, "pitch": 50, "duration": 240, "velocity": 85}, {"time": 207360, "pitch": 55, "duration": 240, "velocity": 85}, {"time": 207360, "pitch": 62, "duration": 240, "velocity": 85}, {"time": 207360, "pitch": 67, "duration": 240, "velocity": 85}, {"time": 207600, "pitch": 43, "duration": 240, "velocity": 100}, {"time": 207600, "pitch": 47, "duration": 240, "velocity": 100}, {"time": 207600, "pitch": 50, "duration": 240, "velocity": 100}, {"time": 207600, "pitch": 55, "duration": 240, "velocity": 85}, {"time": 207600, "pitch": 62, "duration": 240, "velocity": 100}, {"time": 207600, "pitch": 67, "duration": 240, "velocity": 100}, {"time": 207840, "pitch": 43, "duration": 240, "velocity": 83}, {"time": 207840, "pitch": 47, "duration": 240, "velocity": 83}, {"time": 207840, "pitch": 50, "duration": 240, "velocity": 83}, {"time": 207840, "pitch": 55, "duration": 240, "velocity": 85}, {"time": 207840, "pitch": 62, "duration": 240, "velocity": 83}, {"time": 207840, "pitch": 67, "duration": 240, "velocity": 83}, {"time": 208080, "pitch": 41, "duration": 480, "velocity": 100}, {"time": 208080, "pitch": 48, "duration": 480, "velocity": 100}, {"time": 208080, "pitch": 53, "duration": 480, "velocity": 100}, {"time": 208080, "pitch": 57, "duration": 480, "velocity": 100}, {"time": 208080, "pitch": 60, "duration": 480, "velocity": 100}, {"time": 208080, "pitch": 65, "duration": 480, "velocity": 100}, {"time": 208560, "pitch": 41, "duration": 30, "velocity": 100}, {"time": 208560, "pitch": 48, "duration": 30, "velocity": 100}, {"time": 208560, "pitch": 53, "duration": 30, "velocity": 100}, {"time": 208800, "pitch": 40, "duration": 480, "velocity": 100}, {"time": 208800, "pitch": 47, "duration": 480, "velocity": 100}, {"time": 208800, "pitch": 52, "duration": 480, "velocity": 100}, {"time": 208800, "pitch": 55, "duration": 480, "velocity": 100}, {"time": 208800, "pitch": 59, "duration": 480, "velocity": 100}, {"time": 208800, "pitch": 64, "duration": 480, "velocity": 100}, {"time": 209280, "pitch": 40, "duration": 240, "velocity": 85}, {"time": 209280, "pitch": 47, "duration": 240, "velocity": 85}, {"time": 209280, "pitch": 52, "duration": 240, "velocity": 85}, {"time": 209280, "pitch": 55, "duration": 240, "velocity": 85}, {"time": 209280, "pitch": 59, "duration": 240, "velocity": 85}, {"time": 209280, "pitch": 64, "duration": 240, "velocity": 85}, {"time": 209520, "pitch": 40, "duration": 240, "velocity": 85}, {"time": 209520, "pitch": 47, "duration": 240, "velocity": 100}, {"time": 209520, "pitch": 52, "duration": 240, "velocity": 100}, {"time": 209520, "pitch": 55, "duration": 240, "velocity": 100}, {"time": 209520, "pitch": 59, "duration": 240, "velocity": 100}, {"time": 209520, "pitch": 64, "duration": 240, "velocity": 100}, {"time": 209760, "pitch": 40, "duration": 240, "velocity": 85}, {"time": 209760, "pitch": 47, "duration": 240, "velocity": 83}, {"time": 209760, "pitch": 52, "duration": 240, "velocity": 83}, {"time": 209760, "pitch": 55, "duration": 240, "velocity": 83}, {"time": 209760, "pitch": 59, "duration": 240, "velocity": 83}, {"time": 209760, "pitch": 64, "duration": 240, "velocity": 83}, {"time": 210000, "pitch": 50, "duration": 480, "velocity": 100}, {"time": 210000, "pitch": 57, "duration": 480, "velocity": 100}, {"time": 210000, "pitch": 60, "duration": 480, "velocity": 100}, {"time": 210000, "pitch": 65, "duration": 480, "velocity": 100}, {"time": 210480, "pitch": 50, "duration": 30, "velocity": 100}, {"time": 210480, "pitch": 57, "duration": 30, "velocity": 100}, {"time": 210480, "pitch": 60, "duration": 30, "velocity": 100}, {"time": 210720, "pitch": 43, "duration": 480, "velocity": 100}, {"time": 210720, "pitch": 47, "duration": 480, "velocity": 100}, {"time": 210720, "pitch": 50, "duration": 480, "velocity": 100}, {"time": 210720, "pitch": 55, "duration": 480, "velocity": 100}, {"time": 210720, "pitch": 62, "duration": 480, "velocity": 100}, {"time": 210720, "pitch": 67, "duration": 480, "velocity": 100}, {"time": 211200, "pitch": 43, "duration": 240, "velocity": 85}, {"time": 211200, "pitch": 47, "duration": 240, "velocity": 85}, {"time": 211200, "pitch": 50, "duration": 240, "velocity": 85}, {"time": 211200, "pitch": 55, "duration": 240, "velocity": 85}, {"time": 211200, "pitch": 62, "duration": 240, "velocity": 85}, {"time": 211200, "pitch": 67, "duration": 240, "velocity": 85}, {"time": 211440, "pitch": 41, "duration": 240, "velocity": 100}, {"time": 211440, "pitch": 47, "duration": 240, "velocity": 100}, {"time": 211440, "pitch": 50, "duration": 240, "velocity": 100}, {"time": 211440, "pitch": 55, "duration": 240, "velocity": 85}, {"time": 211440, "pitch": 62, "duration": 240, "velocity": 100}, {"time": 211440, "pitch": 67, "duration": 240, "velocity": 100}, {"time": 211680, "pitch": 41, "duration": 240, "velocity": 83}, {"time": 211680, "pitch": 47, "duration": 240, "velocity": 83}, {"time": 211680, "pitch": 50, "duration": 240, "velocity": 83}, {"time": 211680, "pitch": 55, "duration": 240, "velocity": 85}, {"time": 211680, "pitch": 62, "duration": 240, "velocity": 83}, {"time": 211680, "pitch": 67, "duration": 240, "velocity": 83}, {"time": 211920, "pitch": 40, "duration": 480, "velocity": 100}, {"time": 211920, "pitch": 47, "duration": 480, "velocity": 100}, {"time": 211920, "pitch": 52, "duration": 480, "velocity": 100}, {"time": 211920, "pitch": 55, "duration": 480, "velocity": 100}, {"time": 211920, "pitch": 59, "duration": 480, "velocity": 100}, {"time": 211920, "pitch": 64, "duration": 480, "velocity": 100}, {"time": 212400, "pitch": 40, "duration": 30, "velocity": 100}, {"time": 212400, "pitch": 47, "duration": 30, "velocity": 100}, {"time": 212400, "pitch": 52, "duration": 30, "velocity": 100}, {"time": 212640, "pitch": 40, "duration": 480, "velocity": 100}, {"time": 212640, "pitch": 47, "duration": 480, "velocity": 100}, {"time": 212640, "pitch": 52, "duration": 480, "velocity": 100}, {"time": 212640, "pitch": 55, "duration": 480, "velocity": 100}, {"time": 212640, "pitch": 59, "duration": 480, "velocity": 83}, {"time": 212640, "pitch": 64, "duration": 480, "velocity": 100}, {"time": 213120, "pitch": 40, "duration": 240, "velocity": 85}, {"time": 213120, "pitch": 47, "duration": 240, "velocity": 85}, {"time": 213120, "pitch": 52, "duration": 240, "velocity": 85}, {"time": 213120, "pitch": 55, "duration": 240, "velocity": 85}, {"time": 213120, "pitch": 59, "duration": 240, "velocity": 85}, {"time": 213120, "pitch": 64, "duration": 240, "velocity": 85}, {"time": 213360, "pitch": 40, "duration": 240, "velocity": 100}, {"time": 213360, "pitch": 47, "duration": 240, "velocity": 100}, {"time": 213360, "pitch": 52, "duration": 240, "velocity": 100}, {"time": 213360, "pitch": 55, "duration": 240, "velocity": 100}, {"time": 213360, "pitch": 59, "duration": 240, "velocity": 100}, {"time": 213360, "pitch": 64, "duration": 240, "velocity": 100}, {"time": 213600, "pitch": 40, "duration": 240, "velocity": 83}, {"time": 213600, "pitch": 47, "duration": 240, "velocity": 83}, {"time": 213600, "pitch": 52, "duration": 240, "velocity": 83}, {"time": 213600, "pitch": 55, "duration": 240, "velocity": 83}, {"time": 213600, "pitch": 59, "duration": 240, "velocity": 83}, {"time": 213600, "pitch": 64, "duration": 240, "velocity": 83}, {"time": 213840, "pitch": 45, "duration": 480, "velocity": 100}, {"time": 213840, "pitch": 52, "duration": 480, "velocity": 100}, {"time": 213840, "pitch": 57, "duration": 480, "velocity": 100}, {"time": 213840, "pitch": 60, "duration": 480, "velocity": 100}, {"time": 213840, "pitch": 64, "duration": 480, "velocity": 100}, {"time": 214320, "pitch": 45, "duration": 30, "velocity": 100}, {"time": 214320, "pitch": 52, "duration": 30, "velocity": 100}, {"time": 214320, "pitch": 57, "duration": 30, "velocity": 100}, {"time": 214560, "pitch": 43, "duration": 480, "velocity": 100}, {"time": 214560, "pitch": 47, "duration": 480, "velocity": 100}, {"time": 214560, "pitch": 50, "duration": 480, "velocity": 100}, {"time": 214560, "pitch": 55, "duration": 480, "velocity": 100}, {"time": 214560, "pitch": 62, "duration": 480, "velocity": 100}, {"time": 214560, "pitch": 67, "duration": 480, "velocity": 100}, {"time": 215040, "pitch": 43, "duration": 240, "velocity": 85}, {"time": 215040, "pitch": 47, "duration": 240, "velocity": 85}, {"time": 215040, "pitch": 50, "duration": 240, "velocity": 85}, {"time": 215040, "pitch": 55, "duration": 240, "velocity": 85}, {"time": 215040, "pitch": 62, "duration": 240, "velocity": 85}, {"time": 215040, "pitch": 67, "duration": 240, "velocity": 85}, {"time": 215280, "pitch": 43, "duration": 240, "velocity": 100}, {"time": 215280, "pitch": 47, "duration": 240, "velocity": 100}, {"time": 215280, "pitch": 50, "duration": 240, "velocity": 100}, {"time": 215280, "pitch": 55, "duration": 240, "velocity": 85}, {"time": 215280, "pitch": 62, "duration": 240, "velocity": 100}, {"time": 215280, "pitch": 67, "duration": 240, "velocity": 100}, {"time": 215520, "pitch": 43, "duration": 240, "velocity": 83}, {"time": 215520, "pitch": 47, "duration": 240, "velocity": 83}, {"time": 215520, "pitch": 50, "duration": 240, "velocity": 83}, {"time": 215520, "pitch": 55, "duration": 240, "velocity": 85}, {"time": 215520, "pitch": 62, "duration": 240, "velocity": 83}, {"time": 215520, "pitch": 67, "duration": 240, "velocity": 83}, {"time": 215760, "pitch": 50, "duration": 480, "velocity": 100}, {"time": 215760, "pitch": 57, "duration": 480, "velocity": 100}, {"time": 215760, "pitch": 60, "duration": 480, "velocity": 100}, {"time": 215760, "pitch": 65, "duration": 480, "velocity": 100}, {"time": 216240, "pitch": 50, "duration": 30, "velocity": 100}, {"time": 216240, "pitch": 57, "duration": 30, "velocity": 100}, {"time": 216240, "pitch": 60, "duration": 30, "velocity": 100}, {"time": 216480, "pitch": 50, "duration": 480, "velocity": 100}, {"time": 216480, "pitch": 57, "duration": 480, "velocity": 100}, {"time": 216480, "pitch": 60, "duration": 480, "velocity": 100}, {"time": 216480, "pitch": 65, "duration": 480, "velocity": 100}, {"time": 216960, "pitch": 50, "duration": 240, "velocity": 85}, {"time": 216960, "pitch": 57, "duration": 240, "velocity": 85}, {"time": 216960, "pitch": 60, "duration": 240, "velocity": 85}, {"time": 216960, "pitch": 65, "duration": 240, "velocity": 85}, {"time": 217200, "pitch": 50, "duration": 240, "velocity": 100}, {"time": 217200, "pitch": 57, "duration": 240, "velocity": 100}, {"time": 217200, "pitch": 60, "duration": 240, "velocity": 100}, {"time": 217200, "pitch": 65, "duration": 240, "velocity": 100}, {"time": 217440, "pitch": 50, "duration": 240, "velocity": 83}, {"time": 217440, "pitch": 57, "duration": 240, "velocity": 83}, {"time": 217440, "pitch": 60, "duration": 240, "velocity": 83}, {"time": 217440, "pitch": 65, "duration": 240, "velocity": 83}, {"time": 217680, "pitch": 43, "duration": 480, "velocity": 100}, {"time": 217680, "pitch": 50, "duration": 480, "velocity": 100}, {"time": 217680, "pitch": 57, "duration": 480, "velocity": 100}, {"time": 217680, "pitch": 60, "duration": 480, "velocity": 100}, {"time": 217680, "pitch": 65, "duration": 480, "velocity": 100}, {"time": 218160, "pitch": 43, "duration": 480, "velocity": 100}, {"time": 218160, "pitch": 50, "duration": 480, "velocity": 100}, {"time": 218160, "pitch": 57, "duration": 480, "velocity": 100}, {"time": 218160, "pitch": 60, "duration": 480, "velocity": 100}, {"time": 218160, "pitch": 65, "duration": 480, "velocity": 100}, {"time": 218640, "pitch": 43, "duration": 480, "velocity": 99}, {"time": 218640, "pitch": 50, "duration": 480, "velocity": 99}, {"time": 218640, "pitch": 57, "duration": 480, "velocity": 99}, {"time": 218640, "pitch": 60, "duration": 480, "velocity": 99}, {"time": 218640, "pitch": 65, "duration": 480, "velocity": 99}, {"time": 219120, "pitch": 43, "duration": 480, "velocity": 100}, {"time": 219120, "pitch": 50, "duration": 480, "velocity": 100}, {"time": 219120, "pitch": 57, "duration": 480, "velocity": 100}, {"time": 219120, "pitch": 60, "duration": 480, "velocity": 100}, {"time": 219120, "pitch": 65, "duration": 480, "velocity": 100}, {"time": 219600, "pitch": 72, "duration": 480, "velocity": 100}, {"time": 219840, "pitch": 67, "duration": 480, "velocity": 100}, {"time": 220320, "pitch": 71, "duration": 720, "velocity": 100}, {"time": 220800, "pitch": 67, "duration": 480, "velocity": 100}, {"time": 221040, "pitch": 64, "duration": 480, "velocity": 100}, {"time": 221520, "pitch": 69, "duration": 480, "velocity": 100}, {"time": 221760, "pitch": 64, "duration": 480, "velocity": 100}, {"time": 222240, "pitch": 67, "duration": 720, "velocity": 100}, {"time": 222720, "pitch": 64, "duration": 480, "velocity": 100}, {"time": 222960, "pitch": 59, "duration": 480, "velocity": 100}, {"time": 223440, "pitch": 69, "duration": 480, "velocity": 100}, {"time": 223680, "pitch": 65, "duration": 480, "velocity": 100}, {"time": 224160, "pitch": 72, "duration": 480, "velocity": 100}, {"time": 224400, "pitch": 67, "duration": 480, "velocity": 100}, {"time": 224640, "pitch": 60, "duration": 480, "velocity": 100}, {"time": 224880, "pitch": 55, "duration": 469, "velocity": 100}, {"time": 225349, "pitch": 62, "duration": 492, "velocity": 100}, {"time": 225349, "pitch": 65, "duration": 492, "velocity": 100}, {"time": 225349, "pitch": 69, "duration": 492, "velocity": 100}, {"time": 226045, "pitch": 62, "duration": 1210, "velocity": 100}, {"time": 226078, "pitch": 65, "duration": 1240, "velocity": 100}, {"time": 226118, "pitch": 69, "duration": 1289, "velocity": 100}, {"time": 226144, "pitch": 72, "duration": 1291, "velocity": 100}, {"time": 227349, "pitch": 62, "duration": 1360, "velocity": 100}, {"time": 227399, "pitch": 65, "duration": 1303, "velocity": 100}, {"time": 227441, "pitch": 67, "duration": 1261, "velocity": 100}, {"time": 227488, "pitch": 71, "duration": 1236, "velocity": 100}, {"time": 228804, "pitch": 60, "duration": 822, "velocity": 100}, {"time": 228818, "pitch": 64, "duration": 824, "velocity": 100}, {"time": 228850, "pitch": 67, "duration": 824, "velocity": 100}, {"time": 228874, "pitch": 72, "duration": 824, "velocity": 100}, {"time": 960, "pitch": 55, "duration": 489, "velocity": 117}, {"time": 1449, "pitch": 60, "duration": 471, "velocity": 117}, {"time": 1920, "pitch": 62, "duration": 480, "velocity": 117}, {"time": 2400, "pitch": 64, "duration": 480, "velocity": 117}, {"time": 2880, "pitch": 60, "duration": 240, "velocity": 117}, {"time": 3120, "pitch": 64, "duration": 240, "velocity": 117}, {"time": 3360, "pitch": 62, "duration": 480, "velocity": 117}, {"time": 3840, "pitch": 59, "duration": 600, "velocity": 117}, {"time": 4560, "pitch": 60, "duration": 240, "velocity": 117}, {"time": 4800, "pitch": 57, "duration": 240, "velocity": 117}, {"time": 5040, "pitch": 60, "duration": 240, "velocity": 117}, {"time": 5280, "pitch": 59, "duration": 480, "velocity": 117}, {"time": 5760, "pitch": 55, "duration": 600, "velocity": 117}, {"time": 6480, "pitch": 57, "duration": 240, "velocity": 117}, {"time": 6720, "pitch": 53, "duration": 240, "velocity": 117}, {"time": 6960, "pitch": 57, "duration": 240, "velocity": 117}, {"time": 7200, "pitch": 55, "duration": 480, "velocity": 117}, {"time": 7680, "pitch": 60, "duration": 480, "velocity": 117}, {"time": 8160, "pitch": 60, "duration": 240, "velocity": 117}, {"time": 8400, "pitch": 65, "duration": 240, "velocity": 117}, {"time": 8640, "pitch": 64, "duration": 240, "velocity": 117}, {"time": 8880, "pitch": 60, "duration": 240, "velocity": 117}, {"time": 9120, "pitch": 62, "duration": 1200, "velocity": 117}, {"time": 89040, "pitch": 64, "duration": 240, "velocity": 117}, {"time": 89280, "pitch": 60, "duration": 240, "velocity": 117}, {"time": 89520, "pitch": 64, "duration": 240, "velocity": 117}, {"time": 89760, "pitch": 62, "duration": 480, "velocity": 117}, {"time": 90240, "pitch": 59, "duration": 600, "velocity": 117}, {"time": 90960, "pitch": 60, "duration": 240, "velocity": 117}, {"time": 91200, "pitch": 57, "duration": 240, "velocity": 117}, {"time": 91440, "pitch": 60, "duration": 240, "velocity": 117}, {"time": 91680, "pitch": 59, "duration": 480, "velocity": 117}, {"time": 92160, "pitch": 55, "duration": 600, "velocity": 117}, {"time": 92880, "pitch": 57, "duration": 240, "velocity": 117}, {"time": 93120, "pitch": 53, "duration": 240, "velocity": 117}, {"time": 93360, "pitch": 57, "duration": 240, "velocity": 117}, {"time": 93600, "pitch": 55, "duration": 480, "velocity": 117}, {"time": 94080, "pitch": 60, "duration": 480, "velocity": 117}, {"time": 94560, "pitch": 60, "duration": 240, "velocity": 117}, {"time": 94800, "pitch": 65, "duration": 240, "velocity": 117}, {"time": 95040, "pitch": 64, "duration": 240, "velocity": 117}, {"time": 95280, "pitch": 60, "duration": 240, "velocity": 117}, {"time": 95520, "pitch": 62, "duration": 1200, "velocity": 117}, {"time": 173520, "pitch": 60, "duration": 231, "velocity": 117}, {"time": 173790, "pitch": 60, "duration": 71, "velocity": 101}, {"time": 173880, "pitch": 63, "duration": 41, "velocity": 101}, {"time": 173940, "pitch": 67, "duration": 61, "velocity": 101}, {"time": 174000, "pitch": 70, "duration": 240, "velocity": 117}, {"time": 174240, "pitch": 70, "duration": 120, "velocity": 117}, {"time": 174360, "pitch": 67, "duration": 120, "velocity": 101}, {"time": 174480, "pitch": 70, "duration": 240, "velocity": 117}, {"time": 174840, "pitch": 70, "duration": 360, "velocity": 117}, {"time": 175200, "pitch": 70, "duration": 120, "velocity": 100}, {"time": 175320, "pitch": 70, "duration": 120, "velocity": 100}, {"time": 175440, "pitch": 74, "duration": 240, "velocity": 117}, {"time": 175680, "pitch": 77, "duration": 120, "velocity": 117}, {"time": 175920, "pitch": 72, "duration": 240, "velocity": 117}, {"time": 176160, "pitch": 70, "duration": 360, "velocity": 117}, {"time": 176520, "pitch": 72, "duration": 120, "velocity": 117}, {"time": 177240, "pitch": 72, "duration": 120, "velocity": 102}, {"time": 177360, "pitch": 79, "duration": 120, "velocity": 117}, {"time": 177600, "pitch": 77, "duration": 120, "velocity": 117}, {"time": 177840, "pitch": 76, "duration": 120, "velocity": 100}, {"time": 178080, "pitch": 77, "duration": 120, "velocity": 117}, {"time": 178200, "pitch": 76, "duration": 120, "velocity": 101}, {"time": 178440, "pitch": 74, "duration": 120, "velocity": 101}, {"time": 178560, "pitch": 76, "duration": 120, "velocity": 117}, {"time": 178680, "pitch": 72, "duration": 120, "velocity": 117}, {"time": 178800, "pitch": 67, "duration": 240, "velocity": 99}, {"time": 179640, "pitch": 67, "duration": 120, "velocity": 117}, {"time": 179760, "pitch": 64, "duration": 120, "velocity": 104}, {"time": 179880, "pitch": 65, "duration": 120, "velocity": 103}, {"time": 180000, "pitch": 64, "duration": 240, "velocity": 104}, {"time": 180240, "pitch": 60, "duration": 120, "velocity": 117}, {"time": 180360, "pitch": 64, "duration": 240, "velocity": 117}, {"time": 180600, "pitch": 55, "duration": 360, "velocity": 100}, {"time": 181440, "pitch": 53, "duration": 75, "velocity": 99}, {"time": 181512, "pitch": 56, "duration": 83, "velocity": 102}, {"time": 181608, "pitch": 60, "duration": 75, "velocity": 106}, {"time": 181680, "pitch": 65, "duration": 120, "velocity": 117}, {"time": 181848, "pitch": 67, "duration": 180, "velocity": 117}, {"time": 182040, "pitch": 65, "duration": 120, "velocity": 117}, {"time": 182160, "pitch": 67, "duration": 120, "velocity": 117}, {"time": 182280, "pitch": 68, "duration": 120, "velocity": 104}, {"time": 182400, "pitch": 67, "duration": 120, "velocity": 109}, {"time": 182520, "pitch": 65, "duration": 240, "velocity": 108}, {"time": 182760, "pitch": 63, "duration": 240, "velocity": 102}, {"time": 183120, "pitch": 62, "duration": 240, "velocity": 117}, {"time": 183360, "pitch": 62, "duration": 120, "velocity": 117}, {"time": 183480, "pitch": 70, "duration": 240, "velocity": 117}, {"time": 183720, "pitch": 62, "duration": 240, "velocity": 117}, {"time": 183960, "pitch": 62, "duration": 600, "velocity": 117}, {"time": 185040, "pitch": 50, "duration": 120, "velocity": 89}, {"time": 185160, "pitch": 57, "duration": 64, "velocity": 96}, {"time": 185218, "pitch": 62, "duration": 19, "velocity": 99}, {"time": 185280, "pitch": 69, "duration": 120, "velocity": 110}, {"time": 185400, "pitch": 72, "duration": 120, "velocity": 117}, {"time": 185520, "pitch": 69, "duration": 120, "velocity": 111}, {"time": 185640, "pitch": 65, "duration": 120, "velocity": 107}, {"time": 185760, "pitch": 62, "duration": 240, "velocity": 102}, {"time": 186000, "pitch": 57, "duration": 120, "velocity": 86}, {"time": 186120, "pitch": 65, "duration": 45, "velocity": 93}, {"time": 186177, "pitch": 69, "duration": 45, "velocity": 98}, {"time": 186240, "pitch": 74, "duration": 120, "velocity": 104}, {"time": 186360, "pitch": 76, "duration": 120, "velocity": 113}, {"time": 186480, "pitch": 74, "duration": 120, "velocity": 110}, {"time": 186600, "pitch": 69, "duration": 120, "velocity": 102}, {"time": 186720, "pitch": 65, "duration": 228, "velocity": 95}, {"time": 186960, "pitch": 67, "duration": 240, "velocity": 117}, {"time": 187200, "pitch": 79, "duration": 106, "velocity": 117}, {"time": 187320, "pitch": 65, "duration": 240, "velocity": 117}, {"time": 187560, "pitch": 77, "duration": 91, "velocity": 117}, {"time": 187680, "pitch": 64, "duration": 240, "velocity": 117}, {"time": 187920, "pitch": 76, "duration": 102, "velocity": 117}, {"time": 188040, "pitch": 62, "duration": 240, "velocity": 117}, {"time": 188280, "pitch": 74, "duration": 480, "velocity": 117}, {"time": 219600, "pitch": 64, "duration": 240, "velocity": 117}, {"time": 219840, "pitch": 60, "duration": 240, "velocity": 117}, {"time": 220080, "pitch": 64, "duration": 240, "velocity": 117}, {"time": 220320, "pitch": 62, "duration": 480, "velocity": 117}, {"time": 220800, "pitch": 59, "duration": 600, "velocity": 117}, {"time": 221520, "pitch": 60, "duration": 240, "velocity": 117}, {"time": 221760, "pitch": 57, "duration": 240, "velocity": 117}, {"time": 222000, "pitch": 60, "duration": 240, "velocity": 117}, {"time": 222240, "pitch": 59, "duration": 480, "velocity": 117}, {"time": 222720, "pitch": 55, "duration": 600, "velocity": 117}, {"time": 223440, "pitch": 57, "duration": 240, "velocity": 117}, {"time": 223680, "pitch": 53, "duration": 240, "velocity": 117}, {"time": 223920, "pitch": 57, "duration": 240, "velocity": 117}, {"time": 224160, "pitch": 55, "duration": 480, "velocity": 117}, {"time": 224640, "pitch": 60, "duration": 480, "velocity": 117}, {"time": 225120, "pitch": 60, "duration": 229, "velocity": 117}, {"time": 225349, "pitch": 65, "duration": 253, "velocity": 117}, {"time": 225602, "pitch": 64, "duration": 239, "velocity": 117}, {"time": 225841, "pitch": 60, "duration": 239, "velocity": 117}, {"time": 226080, "pitch": 62, "duration": 1345, "velocity": 117}, {"time": 227425, "pitch": 67, "duration": 1396, "velocity": 117}, {"time": 228821, "pitch": 79, "duration": 1926, "velocity": 117}, {"time": 12480, "pitch": 55, "duration": 480, "velocity": 100}, {"time": 12720, "pitch": 64, "duration": 480, "velocity": 100}, {"time": 12960, "pitch": 60, "duration": 240, "velocity": 100}, {"time": 13200, "pitch": 64, "duration": 720, "velocity": 100}, {"time": 13440, "pitch": 60, "duration": 720, "velocity": 100}, {"time": 14400, "pitch": 64, "duration": 480, "velocity": 100}, {"time": 14640, "pitch": 68, "duration": 480, "velocity": 100}, {"time": 14880, "pitch": 64, "duration": 240, "velocity": 100}, {"time": 15120, "pitch": 68, "duration": 720, "velocity": 100}, {"time": 15360, "pitch": 64, "duration": 720, "velocity": 100}, {"time": 16320, "pitch": 60, "duration": 480, "velocity": 100}, {"time": 16560, "pitch": 69, "duration": 480, "velocity": 100}, {"time": 16800, "pitch": 60, "duration": 240, "velocity": 100}, {"time": 17040, "pitch": 69, "duration": 720, "velocity": 100}, {"time": 17280, "pitch": 60, "duration": 720, "velocity": 100}, {"time": 18240, "pitch": 64, "duration": 120, "velocity": 100}, {"time": 18240, "pitch": 69, "duration": 120, "velocity": 100}, {"time": 18480, "pitch": 63, "duration": 120, "velocity": 100}, {"time": 18480, "pitch": 68, "duration": 120, "velocity": 100}, {"time": 18720, "pitch": 62, "duration": 480, "velocity": 100}, {"time": 18720, "pitch": 67, "duration": 480, "velocity": 100}, {"time": 19200, "pitch": 64, "duration": 240, "velocity": 72}, {"time": 19200, "pitch": 69, "duration": 240, "velocity": 72}, {"time": 19440, "pitch": 67, "duration": 480, "velocity": 100}, {"time": 19440, "pitch": 72, "duration": 480, "velocity": 100}, {"time": 20160, "pitch": 60, "duration": 480, "velocity": 100}, {"time": 20400, "pitch": 69, "duration": 480, "velocity": 100}, {"time": 20640, "pitch": 65, "duration": 240, "velocity": 100}, {"time": 20880, "pitch": 69, "duration": 720, "velocity": 100}, {"time": 21120, "pitch": 65, "duration": 720, "velocity": 100}, {"time": 22080, "pitch": 62, "duration": 480, "velocity": 100}, {"time": 22320, "pitch": 67, "duration": 480, "velocity": 100}, {"time": 22560, "pitch": 62, "duration": 480, "velocity": 100}, {"time": 22800, "pitch": 64, "duration": 720, "velocity": 100}, {"time": 23040, "pitch": 69, "duration": 720, "velocity": 100}, {"time": 24000, "pitch": 62, "duration": 480, "velocity": 100}, {"time": 24240, "pitch": 69, "duration": 480, "velocity": 100}, {"time": 24480, "pitch": 62, "duration": 240, "velocity": 100}, {"time": 24720, "pitch": 69, "duration": 720, "velocity": 100}, {"time": 24960, "pitch": 65, "duration": 720, "velocity": 100}, {"time": 25920, "pitch": 60, "duration": 480, "velocity": 100}, {"time": 26160, "pitch": 67, "duration": 480, "velocity": 100}, {"time": 26400, "pitch": 59, "duration": 480, "velocity": 100}, {"time": 26640, "pitch": 62, "duration": 480, "velocity": 100}, {"time": 26880, "pitch": 67, "duration": 720, "velocity": 100}, {"time": 27840, "pitch": 55, "duration": 480, "velocity": 100}, {"time": 28080, "pitch": 64, "duration": 480, "velocity": 100}, {"time": 28320, "pitch": 60, "duration": 240, "velocity": 100}, {"time": 28560, "pitch": 64, "duration": 720, "velocity": 100}, {"time": 28800, "pitch": 60, "duration": 720, "velocity": 100}, {"time": 29760, "pitch": 64, "duration": 480, "velocity": 100}, {"time": 30000, "pitch": 68, "duration": 480, "velocity": 100}, {"time": 30240, "pitch": 64, "duration": 240, "velocity": 100}, {"time": 30480, "pitch": 68, "duration": 720, "velocity": 100}, {"time": 30720, "pitch": 64, "duration": 720, "velocity": 100}, {"time": 31680, "pitch": 60, "duration": 480, "velocity": 100}, {"time": 31920, "pitch": 69, "duration": 480, "velocity": 100}, {"time": 32160, "pitch": 60, "duration": 240, "velocity": 100}, {"time": 32400, "pitch": 69, "duration": 720, "velocity": 100}, {"time": 32640, "pitch": 60, "duration": 720, "velocity": 100}, {"time": 33600, "pitch": 64, "duration": 120, "velocity": 100}, {"time": 33600, "pitch": 69, "duration": 120, "velocity": 100}, {"time": 33840, "pitch": 63, "duration": 120, "velocity": 100}, {"time": 33840, "pitch": 68, "duration": 120, "velocity": 100}, {"time": 34080, "pitch": 62, "duration": 480, "velocity": 100}, {"time": 34080, "pitch": 67, "duration": 480, "velocity": 100}, {"time": 34560, "pitch": 64, "duration": 240, "velocity": 72}, {"time": 34560, "pitch": 69, "duration": 240, "velocity": 72}, {"time": 34800, "pitch": 67, "duration": 480, "velocity": 100}, {"time": 34800, "pitch": 72, "duration": 480, "velocity": 100}, {"time": 35520, "pitch": 60, "duration": 480, "velocity": 100}, {"time": 35760, "pitch": 69, "duration": 480, "velocity": 100}, {"time": 36000, "pitch": 65, "duration": 240, "velocity": 100}, {"time": 36240, "pitch": 69, "duration": 720, "velocity": 100}, {"time": 36480, "pitch": 65, "duration": 720, "velocity": 100}, {"time": 37440, "pitch": 62, "duration": 480, "velocity": 100}, {"time": 37680, "pitch": 67, "duration": 480, "velocity": 100}, {"time": 37920, "pitch": 62, "duration": 480, "velocity": 100}, {"time": 38160, "pitch": 64, "duration": 720, "velocity": 100}, {"time": 38400, "pitch": 69, "duration": 720, "velocity": 100}, {"time": 39360, "pitch": 62, "duration": 480, "velocity": 100}, {"time": 39600, "pitch": 69, "duration": 480, "velocity": 100}, {"time": 39840, "pitch": 59, "duration": 480, "velocity": 100}, {"time": 40080, "pitch": 62, "duration": 720, "velocity": 100}, {"time": 40320, "pitch": 67, "duration": 720, "velocity": 100}, {"time": 41280, "pitch": 60, "duration": 480, "velocity": 100}, {"time": 41520, "pitch": 67, "duration": 480, "velocity": 100}, {"time": 41760, "pitch": 58, "duration": 480, "velocity": 100}, {"time": 42000, "pitch": 64, "duration": 720, "velocity": 100}, {"time": 42240, "pitch": 67, "duration": 720, "velocity": 100}, {"time": 43200, "pitch": 57, "duration": 480, "velocity": 100}, {"time": 43440, "pitch": 65, "duration": 480, "velocity": 100}, {"time": 43920, "pitch": 60, "duration": 720, "velocity": 100}, {"time": 44160, "pitch": 69, "duration": 720, "velocity": 100}, {"time": 44880, "pitch": 62, "duration": 480, "velocity": 100}, {"time": 44880, "pitch": 67, "duration": 480, "velocity": 100}, {"time": 45600, "pitch": 67, "duration": 960, "velocity": 100}, {"time": 45600, "pitch": 71, "duration": 960, "velocity": 100}, {"time": 47040, "pitch": 60, "duration": 720, "velocity": 100}, {"time": 47280, "pitch": 69, "duration": 480, "velocity": 100}, {"time": 47760, "pitch": 64, "duration": 960, "velocity": 100}, {"time": 48000, "pitch": 71, "duration": 720, "velocity": 100}, {"time": 48720, "pitch": 60, "duration": 480, "velocity": 100}, {"time": 48720, "pitch": 64, "duration": 480, "velocity": 100}, {"time": 48720, "pitch": 69, "duration": 480, "velocity": 100}, {"time": 49440, "pitch": 58, "duration": 480, "velocity": 100}, {"time": 49440, "pitch": 64, "duration": 480, "velocity": 100}, {"time": 49440, "pitch": 67, "duration": 480, "velocity": 100}, {"time": 49920, "pitch": 58, "duration": 720, "velocity": 100}, {"time": 50160, "pitch": 64, "duration": 480, "velocity": 100}, {"time": 50160, "pitch": 67, "duration": 480, "velocity": 100}, {"time": 50880, "pitch": 60, "duration": 720, "velocity": 100}, {"time": 51120, "pitch": 65, "duration": 720, "velocity": 100}, {"time": 51600, "pitch": 60, "duration": 840, "velocity": 100}, {"time": 51840, "pitch": 69, "duration": 600, "velocity": 100}, {"time": 52560, "pitch": 62, "duration": 480, "velocity": 100}, {"time": 52560, "pitch": 67, "duration": 480, "velocity": 100}, {"time": 53280, "pitch": 64, "duration": 480, "velocity": 100}, {"time": 53280, "pitch": 69, "duration": 480, "velocity": 100}, {"time": 53760, "pitch": 60, "duration": 720, "velocity": 100}, {"time": 54000, "pitch": 64, "duration": 480, "velocity": 100}, {"time": 54000, "pitch": 69, "duration": 480, "velocity": 100}, {"time": 54720, "pitch": 60, "duration": 720, "velocity": 100}, {"time": 54960, "pitch": 69, "duration": 720, "velocity": 100}, {"time": 55440, "pitch": 60, "duration": 720, "velocity": 100}, {"time": 55680, "pitch": 65, "duration": 720, "velocity": 100}, {"time": 56400, "pitch": 60, "duration": 480, "velocity": 100}, {"time": 56400, "pitch": 64, "duration": 480, "velocity": 100}, {"time": 56880, "pitch": 59, "duration": 480, "velocity": 100}, {"time": 56880, "pitch": 62, "duration": 480, "velocity": 100}, {"time": 57360, "pitch": 60, "duration": 480, "velocity": 100}, {"time": 57360, "pitch": 64, "duration": 480, "velocity": 100}, {"time": 57840, "pitch": 62, "duration": 480, "velocity": 100}, {"time": 57840, "pitch": 65, "duration": 480, "velocity": 100}, {"time": 58560, "pitch": 67, "duration": 480, "velocity": 100}, {"time": 58800, "pitch": 72, "duration": 480, "velocity": 100}, {"time": 59040, "pitch": 74, "duration": 480, "velocity": 100}, {"time": 59280, "pitch": 71, "duration": 720, "velocity": 100}, {"time": 59760, "pitch": 67, "duration": 480, "velocity": 100}, {"time": 60480, "pitch": 64, "duration": 480, "velocity": 100}, {"time": 60720, "pitch": 69, "duration": 480, "velocity": 100}, {"time": 60960, "pitch": 72, "duration": 480, "velocity": 100}, {"time": 61200, "pitch": 71, "duration": 720, "velocity": 100}, {"time": 61680, "pitch": 67, "duration": 480, "velocity": 100}, {"time": 62400, "pitch": 60, "duration": 480, "velocity": 100}, {"time": 62640, "pitch": 65, "duration": 480, "velocity": 100}, {"time": 62880, "pitch": 69, "duration": 480, "velocity": 100}, {"time": 63120, "pitch": 67, "duration": 480, "velocity": 100}, {"time": 63360, "pitch": 72, "duration": 720, "velocity": 100}, {"time": 64320, "pitch": 65, "duration": 480, "velocity": 100}, {"time": 64560, "pitch": 69, "duration": 480, "velocity": 100}, {"time": 64800, "pitch": 72, "duration": 480, "velocity": 100}, {"time": 65040, "pitch": 71, "duration": 720, "velocity": 100}, {"time": 65280, "pitch": 74, "duration": 720, "velocity": 100}, {"time": 66240, "pitch": 64, "duration": 480, "velocity": 100}, {"time": 66480, "pitch": 71, "duration": 480, "velocity": 100}, {"time": 66720, "pitch": 74, "duration": 240, "velocity": 100}, {"time": 66960, "pitch": 71, "duration": 240, "velocity": 100}, {"time": 67200, "pitch": 67, "duration": 600, "velocity": 100}, {"time": 68160, "pitch": 64, "duration": 480, "velocity": 100}, {"time": 68400, "pitch": 69, "duration": 480, "velocity": 100}, {"time": 68640, "pitch": 72, "duration": 240, "velocity": 100}, {"time": 68880, "pitch": 71, "duration": 240, "velocity": 100}, {"time": 69120, "pitch": 69, "duration": 240, "velocity": 100}, {"time": 69360, "pitch": 67, "duration": 240, "velocity": 100}, {"time": 69600, "pitch": 64, "duration": 240, "velocity": 100}, {"time": 70080, "pitch": 62, "duration": 240, "velocity": 100}, {"time": 70320, "pitch": 69, "duration": 240, "velocity": 100}, {"time": 70560, "pitch": 72, "duration": 240, "velocity": 100}, {"time": 70800, "pitch": 69, "duration": 240, "velocity": 100}, {"time": 71040, "pitch": 65, "duration": 600, "velocity": 100}, {"time": 71760, "pitch": 72, "duration": 480, "velocity": 100}, {"time": 72240, "pitch": 71, "duration": 480, "velocity": 100}, {"time": 72720, "pitch": 72, "duration": 480, "velocity": 100}, {"time": 73200, "pitch": 74, "duration": 480, "velocity": 100}, {"time": 73920, "pitch": 67, "duration": 480, "velocity": 100}, {"time": 74160, "pitch": 72, "duration": 480, "velocity": 100}, {"time": 74400, "pitch": 74, "duration": 480, "velocity": 100}, {"time": 74640, "pitch": 71, "duration": 720, "velocity": 100}, {"time": 75120, "pitch": 67, "duration": 480, "velocity": 100}, {"time": 75840, "pitch": 64, "duration": 480, "velocity": 100}, {"time": 76080, "pitch": 69, "duration": 480, "velocity": 100}, {"time": 76320, "pitch": 72, "duration": 480, "velocity": 100}, {"time": 76560, "pitch": 71, "duration": 720, "velocity": 100}, {"time": 77040, "pitch": 67, "duration": 480, "velocity": 100}, {"time": 77760, "pitch": 60, "duration": 480, "velocity": 100}, {"time": 78000, "pitch": 65, "duration": 480, "velocity": 100}, {"time": 78240, "pitch": 69, "duration": 480, "velocity": 100}, {"time": 78480, "pitch": 67, "duration": 480, "velocity": 100}, {"time": 78720, "pitch": 72, "duration": 720, "velocity": 100}, {"time": 79680, "pitch": 65, "duration": 480, "velocity": 100}, {"time": 79920, "pitch": 69, "duration": 480, "velocity": 100}, {"time": 80160, "pitch": 72, "duration": 480, "velocity": 100}, {"time": 80400, "pitch": 71, "duration": 720, "velocity": 100}, {"time": 80640, "pitch": 74, "duration": 720, "velocity": 100}, {"time": 81600, "pitch": 64, "duration": 480, "velocity": 100}, {"time": 81840, "pitch": 71, "duration": 480, "velocity": 100}, {"time": 82080, "pitch": 74, "duration": 240, "velocity": 100}, {"time": 82320, "pitch": 71, "duration": 240, "velocity": 100}, {"time": 82560, "pitch": 67, "duration": 600, "velocity": 100}, {"time": 83520, "pitch": 64, "duration": 480, "velocity": 100}, {"time": 83760, "pitch": 69, "duration": 480, "velocity": 100}, {"time": 84000, "pitch": 72, "duration": 240, "velocity": 100}, {"time": 84240, "pitch": 71, "duration": 240, "velocity": 100}, {"time": 84480, "pitch": 69, "duration": 240, "velocity": 100}, {"time": 84720, "pitch": 67, "duration": 240, "velocity": 100}, {"time": 84960, "pitch": 64, "duration": 240, "velocity": 100}, {"time": 85440, "pitch": 62, "duration": 240, "velocity": 100}, {"time": 85680, "pitch": 69, "duration": 240, "velocity": 100}, {"time": 85920, "pitch": 72, "duration": 240, "velocity": 100}, {"time": 86160, "pitch": 69, "duration": 240, "velocity": 100}, {"time": 86400, "pitch": 65, "duration": 600, "velocity": 100}, {"time": 87120, "pitch": 72, "duration": 480, "velocity": 100}, {"time": 87600, "pitch": 71, "duration": 480, "velocity": 100}, {"time": 88080, "pitch": 72, "duration": 480, "velocity": 100}, {"time": 88560, "pitch": 74, "duration": 480, "velocity": 100}, {"time": 96960, "pitch": 55, "duration": 480, "velocity": 100}, {"time": 97200, "pitch": 64, "duration": 480, "velocity": 100}, {"time": 97440, "pitch": 60, "duration": 240, "velocity": 100}, {"time": 97680, "pitch": 64, "duration": 720, "velocity": 100}, {"time": 97920, "pitch": 60, "duration": 720, "velocity": 100}, {"time": 98880, "pitch": 64, "duration": 480, "velocity": 100}, {"time": 99120, "pitch": 68, "duration": 480, "velocity": 100}, {"time": 99360, "pitch": 64, "duration": 240, "velocity": 100}, {"time": 99600, "pitch": 68, "duration": 720, "velocity": 100}, {"time": 99840, "pitch": 64, "duration": 720, "velocity": 100}, {"time": 100800, "pitch": 60, "duration": 480, "velocity": 100}, {"time": 101040, "pitch": 69, "duration": 480, "velocity": 100}, {"time": 101280, "pitch": 60, "duration": 240, "velocity": 100}, {"time": 101520, "pitch": 69, "duration": 720, "velocity": 100}, {"time": 101760, "pitch": 60, "duration": 720, "velocity": 100}, {"time": 102720, "pitch": 64, "duration": 120, "velocity": 100}, {"time": 102720, "pitch": 69, "duration": 120, "velocity": 100}, {"time": 102960, "pitch": 63, "duration": 120, "velocity": 100}, {"time": 102960, "pitch": 68, "duration": 120, "velocity": 100}, {"time": 103200, "pitch": 62, "duration": 480, "velocity": 100}, {"time": 103200, "pitch": 67, "duration": 480, "velocity": 100}, {"time": 103680, "pitch": 64, "duration": 240, "velocity": 72}, {"time": 103680, "pitch": 69, "duration": 240, "velocity": 72}, {"time": 103920, "pitch": 67, "duration": 480, "velocity": 100}, {"time": 103920, "pitch": 72, "duration": 480, "velocity": 100}, {"time": 104640, "pitch": 60, "duration": 480, "velocity": 100}, {"time": 104880, "pitch": 69, "duration": 480, "velocity": 100}, {"time": 105120, "pitch": 65, "duration": 240, "velocity": 100}, {"time": 105360, "pitch": 69, "duration": 720, "velocity": 100}, {"time": 105600, "pitch": 65, "duration": 720, "velocity": 100}, {"time": 106560, "pitch": 62, "duration": 480, "velocity": 100}, {"time": 106800, "pitch": 67, "duration": 480, "velocity": 100}, {"time": 107040, "pitch": 62, "duration": 480, "velocity": 100}, {"time": 107280, "pitch": 64, "duration": 720, "velocity": 100}, {"time": 107520, "pitch": 69, "duration": 720, "velocity": 100}, {"time": 108480, "pitch": 62, "duration": 480, "velocity": 100}, {"time": 108720, "pitch": 69, "duration": 480, "velocity": 100}, {"time": 108960, "pitch": 62, "duration": 240, "velocity": 100}, {"time": 109200, "pitch": 69, "duration": 720, "velocity": 100}, {"time": 109440, "pitch": 65, "duration": 720, "velocity": 100}, {"time": 110400, "pitch": 60, "duration": 480, "velocity": 100}, {"time": 110640, "pitch": 67, "duration": 480, "velocity": 100}, {"time": 110880, "pitch": 59, "duration": 480, "velocity": 100}, {"time": 111120, "pitch": 62, "duration": 480, "velocity": 100}, {"time": 111360, "pitch": 67, "duration": 720, "velocity": 100}, {"time": 112320, "pitch": 55, "duration": 480, "velocity": 100}, {"time": 112560, "pitch": 64, "duration": 480, "velocity": 100}, {"time": 112800, "pitch": 60, "duration": 240, "velocity": 100}, {"time": 113040, "pitch": 64, "duration": 720, "velocity": 100}, {"time": 113280, "pitch": 60, "duration": 720, "velocity": 100}, {"time": 114240, "pitch": 64, "duration": 480, "velocity": 100}, {"time": 114480, "pitch": 68, "duration": 480, "velocity": 100}, {"time": 114720, "pitch": 64, "duration": 240, "velocity": 100}, {"time": 114960, "pitch": 68, "duration": 720, "velocity": 100}, {"time": 115200, "pitch": 64, "duration": 720, "velocity": 100}, {"time": 116160, "pitch": 60, "duration": 480, "velocity": 100}, {"time": 116400, "pitch": 69, "duration": 480, "velocity": 100}, {"time": 116640, "pitch": 60, "duration": 240, "velocity": 100}, {"time": 116880, "pitch": 69, "duration": 720, "velocity": 100}, {"time": 117120, "pitch": 60, "duration": 720, "velocity": 100}, {"time": 118080, "pitch": 64, "duration": 120, "velocity": 100}, {"time": 118080, "pitch": 69, "duration": 120, "velocity": 100}, {"time": 118320, "pitch": 63, "duration": 120, "velocity": 100}, {"time": 118320, "pitch": 68, "duration": 120, "velocity": 100}, {"time": 118560, "pitch": 62, "duration": 480, "velocity": 100}, {"time": 118560, "pitch": 67, "duration": 480, "velocity": 100}, {"time": 119040, "pitch": 64, "duration": 240, "velocity": 72}, {"time": 119040, "pitch": 69, "duration": 240, "velocity": 72}, {"time": 119280, "pitch": 67, "duration": 480, "velocity": 100}, {"time": 119280, "pitch": 72, "duration": 480, "velocity": 100}, {"time": 120000, "pitch": 60, "duration": 480, "velocity": 100}, {"time": 120240, "pitch": 69, "duration": 480, "velocity": 100}, {"time": 120480, "pitch": 65, "duration": 240, "velocity": 100}, {"time": 120720, "pitch": 69, "duration": 720, "velocity": 100}, {"time": 120960, "pitch": 65, "duration": 720, "velocity": 100}, {"time": 121920, "pitch": 62, "duration": 480, "velocity": 100}, {"time": 122160, "pitch": 67, "duration": 480, "velocity": 100}, {"time": 122400, "pitch": 62, "duration": 480, "velocity": 100}, {"time": 122640, "pitch": 64, "duration": 720, "velocity": 100}, {"time": 122880, "pitch": 69, "duration": 720, "velocity": 100}, {"time": 123840, "pitch": 62, "duration": 480, "velocity": 100}, {"time": 124080, "pitch": 69, "duration": 480, "velocity": 100}, {"time": 124320, "pitch": 59, "duration": 480, "velocity": 100}, {"time": 124560, "pitch": 62, "duration": 720, "velocity": 100}, {"time": 124800, "pitch": 67, "duration": 720, "velocity": 100}, {"time": 125760, "pitch": 60, "duration": 480, "velocity": 100}, {"time": 126000, "pitch": 67, "duration": 480, "velocity": 100}, {"time": 126240, "pitch": 58, "duration": 480, "velocity": 100}, {"time": 126480, "pitch": 64, "duration": 720, "velocity": 100}, {"time": 126720, "pitch": 67, "duration": 720, "velocity": 100}, {"time": 127680, "pitch": 57, "duration": 480, "velocity": 100}, {"time": 127920, "pitch": 65, "duration": 480, "velocity": 100}, {"time": 128400, "pitch": 60, "duration": 720, "velocity": 100}, {"time": 128640, "pitch": 69, "duration": 720, "velocity": 100}, {"time": 129360, "pitch": 62, "duration": 480, "velocity": 100}, {"time": 129360, "pitch": 67, "duration": 480, "velocity": 100}, {"time": 130080, "pitch": 67, "duration": 960, "velocity": 100}, {"time": 130080, "pitch": 71, "duration": 960, "velocity": 100}, {"time": 131520, "pitch": 60, "duration": 720, "velocity": 100}, {"time": 131760, "pitch": 69, "duration": 480, "velocity": 100}, {"time": 132240, "pitch": 64, "duration": 960, "velocity": 100}, {"time": 132480, "pitch": 71, "duration": 720, "velocity": 100}, {"time": 133200, "pitch": 60, "duration": 480, "velocity": 100}, {"time": 133200, "pitch": 64, "duration": 480, "velocity": 100}, {"time": 133200, "pitch": 69, "duration": 480, "velocity": 100}, {"time": 133920, "pitch": 58, "duration": 480, "velocity": 100}, {"time": 133920, "pitch": 64, "duration": 480, "velocity": 100}, {"time": 133920, "pitch": 67, "duration": 480, "velocity": 100}, {"time": 134400, "pitch": 58, "duration": 720, "velocity": 100}, {"time": 134640, "pitch": 64, "duration": 480, "velocity": 100}, {"time": 134640, "pitch": 67, "duration": 480, "velocity": 100}, {"time": 135360, "pitch": 60, "duration": 720, "velocity": 100}, {"time": 135600, "pitch": 65, "duration": 720, "velocity": 100}, {"time": 136080, "pitch": 60, "duration": 840, "velocity": 100}, {"time": 136320, "pitch": 69, "duration": 600, "velocity": 100}, {"time": 137040, "pitch": 62, "duration": 480, "velocity": 100}, {"time": 137040, "pitch": 67, "duration": 480, "velocity": 100}, {"time": 137760, "pitch": 64, "duration": 480, "velocity": 100}, {"time": 137760, "pitch": 69, "duration": 480, "velocity": 100}, {"time": 138240, "pitch": 60, "duration": 720, "velocity": 100}, {"time": 138480, "pitch": 64, "duration": 480, "velocity": 100}, {"time": 138480, "pitch": 69, "duration": 480, "velocity": 100}, {"time": 139200, "pitch": 60, "duration": 720, "velocity": 100}, {"time": 139440, "pitch": 69, "duration": 720, "velocity": 100}, {"time": 139920, "pitch": 60, "duration": 720, "velocity": 100}, {"time": 140160, "pitch": 65, "duration": 720, "velocity": 100}, {"time": 140880, "pitch": 60, "duration": 480, "velocity": 100}, {"time": 140880, "pitch": 64, "duration": 480, "velocity": 100}, {"time": 141360, "pitch": 59, "duration": 480, "velocity": 100}, {"time": 141360, "pitch": 62, "duration": 480, "velocity": 100}, {"time": 141840, "pitch": 60, "duration": 480, "velocity": 100}, {"time": 141840, "pitch": 64, "duration": 480, "velocity": 100}, {"time": 142320, "pitch": 62, "duration": 480, "velocity": 100}, {"time": 142320, "pitch": 65, "duration": 480, "velocity": 100}, {"time": 143040, "pitch": 67, "duration": 480, "velocity": 100}, {"time": 143280, "pitch": 72, "duration": 480, "velocity": 100}, {"time": 143520, "pitch": 74, "duration": 480, "velocity": 100}, {"time": 143760, "pitch": 71, "duration": 720, "velocity": 100}, {"time": 144240, "pitch": 67, "duration": 480, "velocity": 100}, {"time": 144960, "pitch": 64, "duration": 480, "velocity": 100}, {"time": 145200, "pitch": 69, "duration": 480, "velocity": 100}, {"time": 145440, "pitch": 72, "duration": 480, "velocity": 100}, {"time": 145680, "pitch": 71, "duration": 720, "velocity": 100}, {"time": 146160, "pitch": 67, "duration": 480, "velocity": 100}, {"time": 146880, "pitch": 60, "duration": 480, "velocity": 100}, {"time": 147120, "pitch": 65, "duration": 480, "velocity": 100}, {"time": 147360, "pitch": 69, "duration": 480, "velocity": 100}, {"time": 147600, "pitch": 67, "duration": 480, "velocity": 100}, {"time": 147840, "pitch": 72, "duration": 720, "velocity": 100}, {"time": 148800, "pitch": 65, "duration": 480, "velocity": 100}, {"time": 149040, "pitch": 69, "duration": 480, "velocity": 100}, {"time": 149280, "pitch": 72, "duration": 480, "velocity": 100}, {"time": 149520, "pitch": 71, "duration": 720, "velocity": 100}, {"time": 149760, "pitch": 74, "duration": 720, "velocity": 100}, {"time": 150720, "pitch": 64, "duration": 480, "velocity": 100}, {"time": 150960, "pitch": 71, "duration": 480, "velocity": 100}, {"time": 151200, "pitch": 74, "duration": 240, "velocity": 100}, {"time": 151440, "pitch": 71, "duration": 240, "velocity": 100}, {"time": 151680, "pitch": 67, "duration": 600, "velocity": 100}, {"time": 152640, "pitch": 64, "duration": 480, "velocity": 100}, {"time": 152880, "pitch": 69, "duration": 480, "velocity": 100}, {"time": 153120, "pitch": 72, "duration": 240, "velocity": 100}, {"time": 153360, "pitch": 71, "duration": 240, "velocity": 100}, {"time": 153600, "pitch": 69, "duration": 240, "velocity": 100}, {"time": 153840, "pitch": 67, "duration": 240, "velocity": 100}, {"time": 154080, "pitch": 64, "duration": 240, "velocity": 100}, {"time": 154560, "pitch": 62, "duration": 240, "velocity": 100}, {"time": 154800, "pitch": 69, "duration": 240, "velocity": 100}, {"time": 155040, "pitch": 72, "duration": 240, "velocity": 100}, {"time": 155280, "pitch": 69, "duration": 240, "velocity": 100}, {"time": 155520, "pitch": 65, "duration": 600, "velocity": 100}, {"time": 156240, "pitch": 72, "duration": 480, "velocity": 100}, {"time": 156720, "pitch": 71, "duration": 480, "velocity": 100}, {"time": 157200, "pitch": 72, "duration": 480, "velocity": 100}, {"time": 157680, "pitch": 74, "duration": 480, "velocity": 100}, {"time": 158400, "pitch": 67, "duration": 480, "velocity": 100}, {"time": 158640, "pitch": 72, "duration": 480, "velocity": 100}, {"time": 158880, "pitch": 74, "duration": 480, "velocity": 100}, {"time": 159120, "pitch": 71, "duration": 720, "velocity": 100}, {"time": 159600, "pitch": 67, "duration": 480, "velocity": 100}, {"time": 160320, "pitch": 64, "duration": 480, "velocity": 100}, {"time": 160560, "pitch": 69, "duration": 480, "velocity": 100}, {"time": 160800, "pitch": 72, "duration": 480, "velocity": 100}, {"time": 161040, "pitch": 71, "duration": 720, "velocity": 100}, {"time": 161520, "pitch": 67, "duration": 480, "velocity": 100}, {"time": 162240, "pitch": 60, "duration": 480, "velocity": 100}, {"time": 162480, "pitch": 65, "duration": 480, "velocity": 100}, {"time": 162720, "pitch": 69, "duration": 480, "velocity": 100}, {"time": 162960, "pitch": 67, "duration": 480, "velocity": 100}, {"time": 163200, "pitch": 72, "duration": 720, "velocity": 100}, {"time": 164160, "pitch": 65, "duration": 480, "velocity": 100}, {"time": 164400, "pitch": 69, "duration": 480, "velocity": 100}, {"time": 164640, "pitch": 72, "duration": 480, "velocity": 100}, {"time": 164880, "pitch": 71, "duration": 720, "velocity": 100}, {"time": 165120, "pitch": 74, "duration": 720, "velocity": 100}, {"time": 166080, "pitch": 64, "duration": 480, "velocity": 100}, {"time": 166320, "pitch": 71, "duration": 480, "velocity": 100}, {"time": 166560, "pitch": 74, "duration": 240, "velocity": 100}, {"time": 166800, "pitch": 71, "duration": 240, "velocity": 100}, {"time": 167040, "pitch": 67, "duration": 600, "velocity": 100}, {"time": 168000, "pitch": 64, "duration": 480, "velocity": 100}, {"time": 168240, "pitch": 69, "duration": 480, "velocity": 100}, {"time": 168480, "pitch": 72, "duration": 240, "velocity": 100}, {"time": 168720, "pitch": 71, "duration": 240, "velocity": 100}, {"time": 168960, "pitch": 69, "duration": 240, "velocity": 100}, {"time": 169200, "pitch": 67, "duration": 240, "velocity": 100}, {"time": 169440, "pitch": 64, "duration": 240, "velocity": 100}, {"time": 169920, "pitch": 62, "duration": 240, "velocity": 100}, {"time": 170160, "pitch": 69, "duration": 240, "velocity": 100}, {"time": 170400, "pitch": 72, "duration": 240, "velocity": 100}, {"time": 170640, "pitch": 69, "duration": 240, "velocity": 100}, {"time": 170880, "pitch": 65, "duration": 600, "velocity": 100}, {"time": 171600, "pitch": 72, "duration": 480, "velocity": 100}, {"time": 172080, "pitch": 71, "duration": 480, "velocity": 100}, {"time": 172560, "pitch": 72, "duration": 480, "velocity": 100}, {"time": 173040, "pitch": 74, "duration": 480, "velocity": 100}, {"time": 173520, "pitch": 72, "duration": 1440, "velocity": 100}, {"time": 204480, "pitch": 67, "duration": 480, "velocity": 100}, {"time": 204720, "pitch": 72, "duration": 480, "velocity": 100}, {"time": 204960, "pitch": 74, "duration": 480, "velocity": 100}, {"time": 205200, "pitch": 71, "duration": 720, "velocity": 100}, {"time": 205680, "pitch": 67, "duration": 480, "velocity": 100}, {"time": 206400, "pitch": 64, "duration": 480, "velocity": 100}, {"time": 206640, "pitch": 69, "duration": 480, "velocity": 100}, {"time": 206880, "pitch": 72, "duration": 480, "velocity": 100}, {"time": 207120, "pitch": 71, "duration": 720, "velocity": 100}, {"time": 207600, "pitch": 67, "duration": 480, "velocity": 100}, {"time": 208320, "pitch": 60, "duration": 480, "velocity": 100}, {"time": 208560, "pitch": 65, "duration": 480, "velocity": 100}, {"time": 208800, "pitch": 69, "duration": 480, "velocity": 100}, {"time": 209040, "pitch": 67, "duration": 480, "velocity": 100}, {"time": 209280, "pitch": 72, "duration": 720, "velocity": 100}, {"time": 210240, "pitch": 65, "duration": 480, "velocity": 100}, {"time": 210480, "pitch": 69, "duration": 480, "velocity": 100}, {"time": 210720, "pitch": 72, "duration": 480, "velocity": 100}, {"time": 210960, "pitch": 71, "duration": 720, "velocity": 100}, {"time": 211200, "pitch": 74, "duration": 720, "velocity": 100}, {"time": 212160, "pitch": 64, "duration": 480, "velocity": 100}, {"time": 212400, "pitch": 71, "duration": 480, "velocity": 100}, {"time": 212640, "pitch": 74, "duration": 240, "velocity": 100}, {"time": 212880, "pitch": 71, "duration": 240, "velocity": 100}, {"time": 213120, "pitch": 67, "duration": 600, "velocity": 100}, {"time": 214080, "pitch": 64, "duration": 480, "velocity": 100}, {"time": 214320, "pitch": 69, "duration": 480, "velocity": 100}, {"time": 214560, "pitch": 72, "duration": 240, "velocity": 100}, {"time": 214800, "pitch": 71, "duration": 240, "velocity": 100}, {"time": 215040, "pitch": 69, "duration": 240, "velocity": 100}, {"time": 215280, "pitch": 67, "duration": 240, "velocity": 100}, {"time": 215520, "pitch": 64, "duration": 240, "velocity": 100}, {"time": 216000, "pitch": 62, "duration": 240, "velocity": 100}, {"time": 216240, "pitch": 69, "duration": 240, "velocity": 100}, {"time": 216480, "pitch": 72, "duration": 240, "velocity": 100}, {"time": 216720, "pitch": 69, "duration": 240, "velocity": 100}, {"time": 216960, "pitch": 65, "duration": 600, "velocity": 100}, {"time": 217680, "pitch": 72, "duration": 480, "velocity": 100}, {"time": 218160, "pitch": 71, "duration": 480, "velocity": 100}, {"time": 218640, "pitch": 72, "duration": 480, "velocity": 100}, {"time": 219120, "pitch": 74, "duration": 480, "velocity": 100}, {"time": 219600, "pitch": 72, "duration": 1440, "velocity": 100}, {"time": 12240, "pitch": 36, "duration": 60, "velocity": 115}, {"time": 12240, "pitch": 42, "duration": 60, "velocity": 96}, {"time": 12720, "pitch": 42, "duration": 60, "velocity": 96}, {"time": 12960, "pitch": 36, "duration": 60, "velocity": 115}, {"time": 13200, "pitch": 42, "duration": 60, "velocity": 96}, {"time": 13680, "pitch": 37, "duration": 60, "velocity": 121}, {"time": 13680, "pitch": 42, "duration": 60, "velocity": 96}, {"time": 14160, "pitch": 36, "duration": 60, "velocity": 115}, {"time": 14160, "pitch": 42, "duration": 60, "velocity": 96}, {"time": 14640, "pitch": 42, "duration": 60, "velocity": 96}, {"time": 14880, "pitch": 36, "duration": 60, "velocity": 115}, {"time": 15120, "pitch": 42, "duration": 60, "velocity": 96}, {"time": 15600, "pitch": 37, "duration": 60, "velocity": 121}, {"time": 15600, "pitch": 42, "duration": 60, "velocity": 96}, {"time": 16080, "pitch": 36, "duration": 60, "velocity": 115}, {"time": 16080, "pitch": 42, "duration": 60, "velocity": 96}, {"time": 16560, "pitch": 42, "duration": 60, "velocity": 96}, {"time": 16800, "pitch": 36, "duration": 60, "velocity": 115}, {"time": 17040, "pitch": 42, "duration": 60, "velocity": 96}, {"time": 17520, "pitch": 37, "duration": 60, "velocity": 121}, {"time": 17520, "pitch": 42, "duration": 60, "velocity": 96}, {"time": 18000, "pitch": 36, "duration": 60, "velocity": 115}, {"time": 18000, "pitch": 42, "duration": 60, "velocity": 96}, {"time": 18480, "pitch": 42, "duration": 60, "velocity": 96}, {"time": 18720, "pitch": 36, "duration": 60, "velocity": 115}, {"time": 18960, "pitch": 42, "duration": 60, "velocity": 96}, {"time": 19440, "pitch": 37, "duration": 60, "velocity": 121}, {"time": 19440, "pitch": 42, "duration": 60, "velocity": 96}, {"time": 19920, "pitch": 36, "duration": 60, "velocity": 115}, {"time": 19920, "pitch": 42, "duration": 60, "velocity": 96}, {"time": 20400, "pitch": 42, "duration": 60, "velocity": 96}, {"time": 20640, "pitch": 36, "duration": 60, "velocity": 115}, {"time": 20880, "pitch": 42, "duration": 60, "velocity": 96}, {"time": 21360, "pitch": 37, "duration": 60, "velocity": 121}, {"time": 21360, "pitch": 42, "duration": 60, "velocity": 96}, {"time": 21840, "pitch": 36, "duration": 60, "velocity": 115}, {"time": 21840, "pitch": 42, "duration": 60, "velocity": 96}, {"time": 22320, "pitch": 42, "duration": 60, "velocity": 96}, {"time": 22560, "pitch": 36, "duration": 60, "velocity": 115}, {"time": 22800, "pitch": 42, "duration": 60, "velocity": 96}, {"time": 23280, "pitch": 37, "duration": 60, "velocity": 121}, {"time": 23280, "pitch": 42, "duration": 60, "velocity": 96}, {"time": 23760, "pitch": 36, "duration": 60, "velocity": 115}, {"time": 23760, "pitch": 42, "duration": 60, "velocity": 96}, {"time": 24240, "pitch": 42, "duration": 60, "velocity": 96}, {"time": 24480, "pitch": 36, "duration": 60, "velocity": 115}, {"time": 24720, "pitch": 42, "duration": 60, "velocity": 96}, {"time": 25200, "pitch": 37, "duration": 60, "velocity": 121}, {"time": 25200, "pitch": 42, "duration": 60, "velocity": 96}, {"time": 25680, "pitch": 36, "duration": 60, "velocity": 115}, {"time": 25680, "pitch": 42, "duration": 60, "velocity": 96}, {"time": 26160, "pitch": 42, "duration": 60, "velocity": 96}, {"time": 26400, "pitch": 36, "duration": 60, "velocity": 115}, {"time": 26640, "pitch": 42, "duration": 60, "velocity": 96}, {"time": 27120, "pitch": 37, "duration": 60, "velocity": 121}, {"time": 27120, "pitch": 42, "duration": 60, "velocity": 96}, {"time": 27600, "pitch": 36, "duration": 60, "velocity": 115}, {"time": 27600, "pitch": 42, "duration": 60, "velocity": 96}, {"time": 28080, "pitch": 42, "duration": 60, "velocity": 96}, {"time": 28320, "pitch": 36, "duration": 60, "velocity": 115}, {"time": 28560, "pitch": 42, "duration": 60, "velocity": 96}, {"time": 29040, "pitch": 37, "duration": 60, "velocity": 121}, {"time": 29040, "pitch": 42, "duration": 60, "velocity": 96}, {"time": 29520, "pitch": 36, "duration": 60, "velocity": 115}, {"time": 29520, "pitch": 42, "duration": 60, "velocity": 96}, {"time": 30000, "pitch": 42, "duration": 60, "velocity": 96}, {"time": 30240, "pitch": 36, "duration": 60, "velocity": 115}, {"time": 30480, "pitch": 42, "duration": 60, "velocity": 96}, {"time": 30960, "pitch": 37, "duration": 60, "velocity": 121}, {"time": 30960, "pitch": 42, "duration": 60, "velocity": 96}, {"time": 31440, "pitch": 36, "duration": 60, "velocity": 115}, {"time": 31440, "pitch": 42, "duration": 60, "velocity": 96}, {"time": 31920, "pitch": 42, "duration": 60, "velocity": 96}, {"time": 32160, "pitch": 36, "duration": 60, "velocity": 115}, {"time": 32400, "pitch": 42, "duration": 60, "velocity": 96}, {"time": 32880, "pitch": 37, "duration": 60, "velocity": 121}, {"time": 32880, "pitch": 42, "duration": 60, "velocity": 96}, {"time": 33360, "pitch": 36, "duration": 60, "velocity": 115}, {"time": 33360, "pitch": 42, "duration": 60, "velocity": 96}, {"time": 33840, "pitch": 42, "duration": 60, "velocity": 96}, {"time": 34080, "pitch": 36, "duration": 60, "velocity": 115}, {"time": 34320, "pitch": 42, "duration": 60, "velocity": 96}, {"time": 34800, "pitch": 37, "duration": 60, "velocity": 121}, {"time": 34800, "pitch": 42, "duration": 60, "velocity": 96}, {"time": 35280, "pitch": 36, "duration": 60, "velocity": 115}, {"time": 35280, "pitch": 42, "duration": 60, "velocity": 96}, {"time": 35760, "pitch": 42, "duration": 60, "velocity": 96}, {"time": 36000, "pitch": 36, "duration": 60, "velocity": 115}, {"time": 36240, "pitch": 42, "duration": 60, "velocity": 96}, {"time": 36720, "pitch": 37, "duration": 60, "velocity": 121}, {"time": 36720, "pitch": 42, "duration": 60, "velocity": 96}, {"time": 37200, "pitch": 36, "duration": 60, "velocity": 115}, {"time": 37200, "pitch": 42, "duration": 60, "velocity": 96}, {"time": 37680, "pitch": 42, "duration": 60, "velocity": 96}, {"time": 37920, "pitch": 36, "duration": 60, "velocity": 115}, {"time": 38160, "pitch": 42, "duration": 60, "velocity": 96}, {"time": 38640, "pitch": 37, "duration": 60, "velocity": 121}, {"time": 38640, "pitch": 42, "duration": 60, "velocity": 96}, {"time": 39120, "pitch": 36, "duration": 60, "velocity": 115}, {"time": 39120, "pitch": 42, "duration": 60, "velocity": 96}, {"time": 39600, "pitch": 42, "duration": 60, "velocity": 96}, {"time": 39840, "pitch": 36, "duration": 60, "velocity": 115}, {"time": 40080, "pitch": 42, "duration": 60, "velocity": 96}, {"time": 40560, "pitch": 37, "duration": 60, "velocity": 121}, {"time": 40560, "pitch": 42, "duration": 60, "velocity": 96}, {"time": 41040, "pitch": 36, "duration": 60, "velocity": 115}, {"time": 41040, "pitch": 42, "duration": 60, "velocity": 96}, {"time": 41520, "pitch": 42, "duration": 60, "velocity": 96}, {"time": 41760, "pitch": 36, "duration": 60, "velocity": 115}, {"time": 42000, "pitch": 42, "duration": 60, "velocity": 96}, {"time": 42480, "pitch": 37, "duration": 60, "velocity": 121}, {"time": 42480, "pitch": 42, "duration": 60, "velocity": 96}, {"time": 42960, "pitch": 36, "duration": 60, "velocity": 115}, {"time": 42960, "pitch": 42, "duration": 60, "velocity": 96}, {"time": 42960, "pitch": 49, "duration": 60, "velocity": 84}, {"time": 43440, "pitch": 42, "duration": 60, "velocity": 96}, {"time": 43680, "pitch": 36, "duration": 60, "velocity": 115}, {"time": 43920, "pitch": 42, "duration": 60, "velocity": 96}, {"time": 44400, "pitch": 37, "duration": 60, "velocity": 121}, {"time": 44400, "pitch": 42, "duration": 60, "velocity": 96}, {"time": 44880, "pitch": 36, "duration": 60, "velocity": 115}, {"time": 44880, "pitch": 42, "duration": 60, "velocity": 96}, {"time": 45360, "pitch": 42, "duration": 60, "velocity": 96}, {"time": 45600, "pitch": 36, "duration": 60, "velocity": 115}, {"time": 45840, "pitch": 42, "duration": 60, "velocity": 96}, {"time": 46320, "pitch": 37, "duration": 60, "velocity": 121}, {"time": 46320, "pitch": 42, "duration": 60, "velocity": 96}, {"time": 46800, "pitch": 36, "duration": 60, "velocity": 115}, {"time": 46800, "pitch": 42, "duration": 60, "velocity": 96}, {"time": 47280, "pitch": 42, "duration": 60, "velocity": 96}, {"time": 47520, "pitch": 36, "duration": 60, "velocity": 115}, {"time": 47760, "pitch": 42, "duration": 60, "velocity": 96}, {"time": 48240, "pitch": 37, "duration": 60, "velocity": 121}, {"time": 48240, "pitch": 42, "duration": 60, "velocity": 96}, {"time": 48720, "pitch": 36, "duration": 60, "velocity": 115}, {"time": 48720, "pitch": 42, "duration": 60, "velocity": 96}, {"time": 49200, "pitch": 42, "duration": 60, "velocity": 96}, {"time": 49440, "pitch": 36, "duration": 60, "velocity": 115}, {"time": 49680, "pitch": 42, "duration": 60, "velocity": 96}, {"time": 50160, "pitch": 37, "duration": 60, "velocity": 121}, {"time": 50160, "pitch": 42, "duration": 60, "velocity": 96}, {"time": 50640, "pitch": 36, "duration": 60, "velocity": 115}, {"time": 50640, "pitch": 42, "duration": 60, "velocity": 96}, {"time": 51120, "pitch": 42, "duration": 60, "velocity": 96}, {"time": 51360, "pitch": 36, "duration": 60, "velocity": 115}, {"time": 51600, "pitch": 42, "duration": 60, "velocity": 96}, {"time": 52080, "pitch": 37, "duration": 60, "velocity": 121}, {"time": 52080, "pitch": 42, "duration": 60, "velocity": 96}, {"time": 52560, "pitch": 36, "duration": 60, "velocity": 115}, {"time": 52560, "pitch": 42, "duration": 60, "velocity": 96}, {"time": 53040, "pitch": 42, "duration": 60, "velocity": 96}, {"time": 53280, "pitch": 36, "duration": 60, "velocity": 115}, {"time": 53520, "pitch": 42, "duration": 60, "velocity": 96}, {"time": 54000, "pitch": 37, "duration": 60, "velocity": 121}, {"time": 54000, "pitch": 42, "duration": 60, "velocity": 96}, {"time": 54480, "pitch": 36, "duration": 60, "velocity": 115}, {"time": 54480, "pitch": 42, "duration": 60, "velocity": 96}, {"time": 54960, "pitch": 42, "duration": 60, "velocity": 96}, {"time": 55200, "pitch": 36, "duration": 60, "velocity": 115}, {"time": 55440, "pitch": 42, "duration": 60, "velocity": 96}, {"time": 55920, "pitch": 37, "duration": 60, "velocity": 121}, {"time": 55920, "pitch": 42, "duration": 60, "velocity": 96}, {"time": 56400, "pitch": 36, "duration": 60, "velocity": 115}, {"time": 56400, "pitch": 46, "duration": 60, "velocity": 96}, {"time": 56880, "pitch": 46, "duration": 60, "velocity": 96}, {"time": 57120, "pitch": 36, "duration": 60, "velocity": 115}, {"time": 57360, "pitch": 46, "duration": 60, "velocity": 96}, {"time": 57600, "pitch": 45, "duration": 60, "velocity": 121}, {"time": 57840, "pitch": 41, "duration": 60, "velocity": 96}, {"time": 58320, "pitch": 36, "duration": 60, "velocity": 115}, {"time": 58320, "pitch": 42, "duration": 60, "velocity": 96}, {"time": 58320, "pitch": 49, "duration": 60, "velocity": 96}, {"time": 58800, "pitch": 42, "duration": 60, "velocity": 96}, {"time": 59040, "pitch": 36, "duration": 60, "velocity": 115}, {"time": 59280, "pitch": 42, "duration": 60, "velocity": 96}, {"time": 59760, "pitch": 37, "duration": 60, "velocity": 121}, {"time": 59760, "pitch": 42, "duration": 60, "velocity": 96}, {"time": 60240, "pitch": 36, "duration": 60, "velocity": 115}, {"time": 60240, "pitch": 42, "duration": 60, "velocity": 96}, {"time": 60720, "pitch": 42, "duration": 60, "velocity": 96}, {"time": 60960, "pitch": 36, "duration": 60, "velocity": 115}, {"time": 61200, "pitch": 42, "duration": 60, "velocity": 96}, {"time": 61680, "pitch": 37, "duration": 60, "velocity": 121}, {"time": 61680, "pitch": 42, "duration": 60, "velocity": 96}, {"time": 62160, "pitch": 36, "duration": 60, "velocity": 115}, {"time": 62160, "pitch": 42, "duration": 60, "velocity": 96}, {"time": 62640, "pitch": 42, "duration": 60, "velocity": 96}, {"time": 62880, "pitch": 36, "duration": 60, "velocity": 115}, {"time": 63120, "pitch": 42, "duration": 60, "velocity": 96}, {"time": 63600, "pitch": 37, "duration": 60, "velocity": 121}, {"time": 63600, "pitch": 42, "duration": 60, "velocity": 96}, {"time": 64080, "pitch": 36, "duration": 60, "velocity": 115}, {"time": 64080, "pitch": 42, "duration": 60, "velocity": 96}, {"time": 64560, "pitch": 42, "duration": 60, "velocity": 96}, {"time": 64800, "pitch": 36, "duration": 60, "velocity": 115}, {"time": 65040, "pitch": 42, "duration": 60, "velocity": 96}, {"time": 65520, "pitch": 37, "duration": 60, "velocity": 121}, {"time": 65520, "pitch": 42, "duration": 60, "velocity": 96}, {"time": 66000, "pitch": 36, "duration": 60, "velocity": 115}, {"time": 66000, "pitch": 42, "duration": 60, "velocity": 96}, {"time": 66480, "pitch": 42, "duration": 60, "velocity": 96}, {"time": 66720, "pitch": 36, "duration": 60, "velocity": 115}, {"time": 66960, "pitch": 42, "duration": 60, "velocity": 96}, {"time": 67440, "pitch": 37, "duration": 60, "velocity": 121}, {"time": 67440, "pitch": 42, "duration": 60, "velocity": 96}, {"time": 67920, "pitch": 36, "duration": 60, "velocity": 115}, {"time": 67920, "pitch": 42, "duration": 60, "velocity": 96}, {"time": 68400, "pitch": 42, "duration": 60, "velocity": 96}, {"time": 68640, "pitch": 36, "duration": 60, "velocity": 115}, {"time": 68880, "pitch": 42, "duration": 60, "velocity": 96}, {"time": 69360, "pitch": 37, "duration": 60, "velocity": 121}, {"time": 69360, "pitch": 42, "duration": 60, "velocity": 96}, {"time": 69840, "pitch": 36, "duration": 60, "velocity": 115}, {"time": 69840, "pitch": 42, "duration": 60, "velocity": 96}, {"time": 70320, "pitch": 42, "duration": 60, "velocity": 96}, {"time": 70560, "pitch": 36, "duration": 60, "velocity": 115}, {"time": 70800, "pitch": 42, "duration": 60, "velocity": 96}, {"time": 71280, "pitch": 37, "duration": 60, "velocity": 121}, {"time": 71280, "pitch": 42, "duration": 60, "velocity": 96}, {"time": 71760, "pitch": 36, "duration": 60, "velocity": 115}, {"time": 71760, "pitch": 42, "duration": 60, "velocity": 96}, {"time": 72240, "pitch": 42, "duration": 60, "velocity": 96}, {"time": 72480, "pitch": 36, "duration": 60, "velocity": 115}, {"time": 72720, "pitch": 36, "duration": 60, "velocity": 127}, {"time": 72720, "pitch": 42, "duration": 60, "velocity": 96}, {"time": 72960, "pitch": 47, "duration": 60, "velocity": 121}, {"time": 73200, "pitch": 41, "duration": 60, "velocity": 121}, {"time": 73680, "pitch": 36, "duration": 60, "velocity": 115}, {"time": 73680, "pitch": 42, "duration": 60, "velocity": 96}, {"time": 73680, "pitch": 49, "duration": 60, "velocity": 96}, {"time": 74160, "pitch": 42, "duration": 60, "velocity": 96}, {"time": 74400, "pitch": 36, "duration": 60, "velocity": 115}, {"time": 74640, "pitch": 42, "duration": 60, "velocity": 96}, {"time": 75120, "pitch": 37, "duration": 60, "velocity": 121}, {"time": 75120, "pitch": 42, "duration": 60, "velocity": 96}, {"time": 75600, "pitch": 36, "duration": 60, "velocity": 115}, {"time": 75600, "pitch": 42, "duration": 60, "velocity": 96}, {"time": 76080, "pitch": 42, "duration": 60, "velocity": 96}, {"time": 76320, "pitch": 36, "duration": 60, "velocity": 115}, {"time": 76560, "pitch": 42, "duration": 60, "velocity": 96}, {"time": 77040, "pitch": 37, "duration": 60, "velocity": 121}, {"time": 77040, "pitch": 42, "duration": 60, "velocity": 96}, {"time": 77520, "pitch": 36, "duration": 60, "velocity": 115}, {"time": 77520, "pitch": 42, "duration": 60, "velocity": 96}, {"time": 78000, "pitch": 42, "duration": 60, "velocity": 96}, {"time": 78240, "pitch": 36, "duration": 60, "velocity": 115}, {"time": 78480, "pitch": 42, "duration": 60, "velocity": 96}, {"time": 78960, "pitch": 37, "duration": 60, "velocity": 121}, {"time": 78960, "pitch": 42, "duration": 60, "velocity": 96}, {"time": 79440, "pitch": 36, "duration": 60, "velocity": 115}, {"time": 79440, "pitch": 42, "duration": 60, "velocity": 96}, {"time": 79920, "pitch": 42, "duration": 60, "velocity": 96}, {"time": 80160, "pitch": 36, "duration": 60, "velocity": 115}, {"time": 80400, "pitch": 42, "duration": 60, "velocity": 96}, {"time": 80880, "pitch": 37, "duration": 60, "velocity": 121}, {"time": 80880, "pitch": 42, "duration": 60, "velocity": 96}, {"time": 81360, "pitch": 36, "duration": 60, "velocity": 115}, {"time": 81360, "pitch": 42, "duration": 60, "velocity": 96}, {"time": 81840, "pitch": 42, "duration": 60, "velocity": 96}, {"time": 82080, "pitch": 36, "duration": 60, "velocity": 115}, {"time": 82320, "pitch": 42, "duration": 60, "velocity": 96}, {"time": 82800, "pitch": 37, "duration": 60, "velocity": 121}, {"time": 82800, "pitch": 42, "duration": 60, "velocity": 96}, {"time": 83280, "pitch": 36, "duration": 60, "velocity": 115}, {"time": 83280, "pitch": 42, "duration": 60, "velocity": 96}, {"time": 83760, "pitch": 42, "duration": 60, "velocity": 96}, {"time": 84000, "pitch": 36, "duration": 60, "velocity": 115}, {"time": 84240, "pitch": 42, "duration": 60, "velocity": 96}, {"time": 84720, "pitch": 37, "duration": 60, "velocity": 121}, {"time": 84720, "pitch": 42, "duration": 60, "velocity": 96}, {"time": 85200, "pitch": 36, "duration": 60, "velocity": 115}, {"time": 85200, "pitch": 42, "duration": 60, "velocity": 96}, {"time": 85680, "pitch": 42, "duration": 60, "velocity": 96}, {"time": 85920, "pitch": 36, "duration": 60, "velocity": 115}, {"time": 86160, "pitch": 42, "duration": 60, "velocity": 96}, {"time": 86640, "pitch": 37, "duration": 60, "velocity": 121}, {"time": 86640, "pitch": 42, "duration": 60, "velocity": 96}, {"time": 87120, "pitch": 36, "duration": 60, "velocity": 115}, {"time": 87120, "pitch": 46, "duration": 60, "velocity": 96}, {"time": 87600, "pitch": 46, "duration": 60, "velocity": 96}, {"time": 87840, "pitch": 36, "duration": 60, "velocity": 115}, {"time": 88080, "pitch": 46, "duration": 60, "velocity": 96}, {"time": 88320, "pitch": 47, "duration": 60, "velocity": 121}, {"time": 88560, "pitch": 37, "duration": 60, "velocity": 121}, {"time": 88560, "pitch": 45, "duration": 60, "velocity": 121}, {"time": 88800, "pitch": 41, "duration": 60, "velocity": 121}, {"time": 89040, "pitch": 36, "duration": 60, "velocity": 115}, {"time": 89040, "pitch": 49, "duration": 60, "velocity": 96}, {"time": 89520, "pitch": 40, "duration": 60, "velocity": 96}, {"time": 89520, "pitch": 42, "duration": 60, "velocity": 96}, {"time": 89760, "pitch": 36, "duration": 60, "velocity": 115}, {"time": 90000, "pitch": 42, "duration": 60, "velocity": 96}, {"time": 90240, "pitch": 36, "duration": 60, "velocity": 115}, {"time": 90480, "pitch": 40, "duration": 60, "velocity": 96}, {"time": 90480, "pitch": 42, "duration": 60, "velocity": 96}, {"time": 90960, "pitch": 36, "duration": 60, "velocity": 115}, {"time": 90960, "pitch": 42, "duration": 60, "velocity": 96}, {"time": 91440, "pitch": 40, "duration": 60, "velocity": 96}, {"time": 91440, "pitch": 42, "duration": 60, "velocity": 96}, {"time": 91680, "pitch": 36, "duration": 60, "velocity": 115}, {"time": 91920, "pitch": 42, "duration": 60, "velocity": 96}, {"time": 92160, "pitch": 36, "duration": 60, "velocity": 115}, {"time": 92400, "pitch": 40, "duration": 60, "velocity": 96}, {"time": 92400, "pitch": 42, "duration": 60, "velocity": 96}, {"time": 92880, "pitch": 36, "duration": 60, "velocity": 115}, {"time": 92880, "pitch": 42, "duration": 60, "velocity": 96}, {"time": 93360, "pitch": 40, "duration": 60, "velocity": 96}, {"time": 93360, "pitch": 42, "duration": 60, "velocity": 96}, {"time": 93600, "pitch": 36, "duration": 60, "velocity": 115}, {"time": 93840, "pitch": 42, "duration": 60, "velocity": 96}, {"time": 94080, "pitch": 36, "duration": 60, "velocity": 115}, {"time": 94320, "pitch": 40, "duration": 60, "velocity": 96}, {"time": 94320, "pitch": 42, "duration": 60, "velocity": 96}, {"time": 94800, "pitch": 36, "duration": 60, "velocity": 115}, {"time": 94800, "pitch": 42, "duration": 60, "velocity": 96}, {"time": 95280, "pitch": 40, "duration": 60, "velocity": 96}, {"time": 95280, "pitch": 42, "duration": 60, "velocity": 96}, {"time": 95520, "pitch": 36, "duration": 60, "velocity": 115}, {"time": 95760, "pitch": 42, "duration": 60, "velocity": 96}, {"time": 96000, "pitch": 36, "duration": 60, "velocity": 115}, {"time": 96000, "pitch": 40, "duration": 60, "velocity": 96}, {"time": 96240, "pitch": 40, "duration": 60, "velocity": 96}, {"time": 96240, "pitch": 41, "duration": 60, "velocity": 96}, {"time": 96720, "pitch": 36, "duration": 60, "velocity": 115}, {"time": 96720, "pitch": 49, "duration": 60, "velocity": 96}, {"time": 97200, "pitch": 40, "duration": 60, "velocity": 96}, {"time": 97200, "pitch": 42, "duration": 60, "velocity": 96}, {"time": 97440, "pitch": 36, "duration": 60, "velocity": 115}, {"time": 97680, "pitch": 42, "duration": 60, "velocity": 96}, {"time": 97920, "pitch": 36, "duration": 60, "velocity": 115}, {"time": 98160, "pitch": 40, "duration": 60, "velocity": 96}, {"time": 98160, "pitch": 42, "duration": 60, "velocity": 96}, {"time": 98640, "pitch": 36, "duration": 60, "velocity": 115}, {"time": 98640, "pitch": 42, "duration": 60, "velocity": 96}, {"time": 99120, "pitch": 40, "duration": 60, "velocity": 96}, {"time": 99120, "pitch": 42, "duration": 60, "velocity": 96}, {"time": 99360, "pitch": 36, "duration": 60, "velocity": 115}, {"time": 99600, "pitch": 42, "duration": 60, "velocity": 96}, {"time": 99840, "pitch": 36, "duration": 60, "velocity": 115}, {"time": 100080, "pitch": 40, "duration": 60, "velocity": 96}, {"time": 100080, "pitch": 42, "duration": 60, "velocity": 96}, {"time": 100560, "pitch": 36, "duration": 60, "velocity": 115}, {"time": 100560, "pitch": 42, "duration": 60, "velocity": 96}, {"time": 101040, "pitch": 40, "duration": 60, "velocity": 96}, {"time": 101040, "pitch": 42, "duration": 60, "velocity": 96}, {"time": 101280, "pitch": 36, "duration": 60, "velocity": 115}, {"time": 101520, "pitch": 42, "duration": 60, "velocity": 96}, {"time": 101760, "pitch": 36, "duration": 60, "velocity": 115}, {"time": 102000, "pitch": 40, "duration": 60, "velocity": 96}, {"time": 102000, "pitch": 42, "duration": 60, "velocity": 96}, {"time": 102480, "pitch": 36, "duration": 60, "velocity": 115}, {"time": 102480, "pitch": 42, "duration": 60, "velocity": 96}, {"time": 102960, "pitch": 40, "duration": 60, "velocity": 96}, {"time": 102960, "pitch": 42, "duration": 60, "velocity": 96}, {"time": 103200, "pitch": 36, "duration": 60, "velocity": 115}, {"time": 103440, "pitch": 42, "duration": 60, "velocity": 96}, {"time": 103680, "pitch": 36, "duration": 60, "velocity": 115}, {"time": 103920, "pitch": 40, "duration": 60, "velocity": 96}, {"time": 103920, "pitch": 42, "duration": 60, "velocity": 96}, {"time": 104400, "pitch": 36, "duration": 60, "velocity": 115}, {"time": 104400, "pitch": 42, "duration": 60, "velocity": 96}, {"time": 104880, "pitch": 40, "duration": 60, "velocity": 96}, {"time": 104880, "pitch": 42, "duration": 60, "velocity": 96}, {"time": 105120, "pitch": 36, "duration": 60, "velocity": 115}, {"time": 105360, "pitch": 42, "duration": 60, "velocity": 96}, {"time": 105600, "pitch": 36, "duration": 60, "velocity": 115}, {"time": 105840, "pitch": 40, "duration": 60, "velocity": 96}, {"time": 105840, "pitch": 42, "duration": 60, "velocity": 96}, {"time": 106320, "pitch": 36, "duration": 60, "velocity": 115}, {"time": 106320, "pitch": 42, "duration": 60, "velocity": 96}, {"time": 106800, "pitch": 40, "duration": 60, "velocity": 96}, {"time": 106800, "pitch": 42, "duration": 60, "velocity": 96}, {"time": 107040, "pitch": 36, "duration": 60, "velocity": 115}, {"time": 107280, "pitch": 42, "duration": 60, "velocity": 96}, {"time": 107520, "pitch": 36, "duration": 60, "velocity": 115}, {"time": 107760, "pitch": 40, "duration": 60, "velocity": 96}, {"time": 107760, "pitch": 42, "duration": 60, "velocity": 96}, {"time": 108240, "pitch": 36, "duration": 60, "velocity": 115}, {"time": 108240, "pitch": 42, "duration": 60, "velocity": 96}, {"time": 108720, "pitch": 40, "duration": 60, "velocity": 96}, {"time": 108720, "pitch": 42, "duration": 60, "velocity": 96}, {"time": 108960, "pitch": 36, "duration": 60, "velocity": 115}, {"time": 109200, "pitch": 42, "duration": 60, "velocity": 96}, {"time": 109440, "pitch": 36, "duration": 60, "velocity": 115}, {"time": 109680, "pitch": 40, "duration": 60, "velocity": 96}, {"time": 109680, "pitch": 42, "duration": 60, "velocity": 96}, {"time": 110160, "pitch": 36, "duration": 60, "velocity": 115}, {"time": 110160, "pitch": 42, "duration": 60, "velocity": 96}, {"time": 110640, "pitch": 40, "duration": 60, "velocity": 96}, {"time": 110640, "pitch": 42, "duration": 60, "velocity": 96}, {"time": 110880, "pitch": 36, "duration": 60, "velocity": 115}, {"time": 111120, "pitch": 42, "duration": 60, "velocity": 96}, {"time": 111360, "pitch": 36, "duration": 60, "velocity": 115}, {"time": 111600, "pitch": 40, "duration": 60, "velocity": 96}, {"time": 111600, "pitch": 42, "duration": 60, "velocity": 96}, {"time": 112080, "pitch": 36, "duration": 60, "velocity": 115}, {"time": 112080, "pitch": 49, "duration": 60, "velocity": 96}, {"time": 112560, "pitch": 40, "duration": 60, "velocity": 96}, {"time": 112560, "pitch": 42, "duration": 60, "velocity": 96}, {"time": 112800, "pitch": 36, "duration": 60, "velocity": 115}, {"time": 113040, "pitch": 42, "duration": 60, "velocity": 96}, {"time": 113280, "pitch": 36, "duration": 60, "velocity": 115}, {"time": 113520, "pitch": 40, "duration": 60, "velocity": 96}, {"time": 113520, "pitch": 42, "duration": 60, "velocity": 96}, {"time": 114000, "pitch": 36, "duration": 60, "velocity": 115}, {"time": 114000, "pitch": 42, "duration": 60, "velocity": 96}, {"time": 114480, "pitch": 40, "duration": 60, "velocity": 96}, {"time": 114480, "pitch": 42, "duration": 60, "velocity": 96}, {"time": 114720, "pitch": 36, "duration": 60, "velocity": 115}, {"time": 114960, "pitch": 42, "duration": 60, "velocity": 96}, {"time": 115200, "pitch": 36, "duration": 60, "velocity": 115}, {"time": 115440, "pitch": 40, "duration": 60, "velocity": 96}, {"time": 115440, "pitch": 42, "duration": 60, "velocity": 96}, {"time": 115920, "pitch": 36, "duration": 60, "velocity": 115}, {"time": 115920, "pitch": 42, "duration": 60, "velocity": 96}, {"time": 116400, "pitch": 40, "duration": 60, "velocity": 96}, {"time": 116400, "pitch": 42, "duration": 60, "velocity": 96}, {"time": 116640, "pitch": 36, "duration": 60, "velocity": 115}, {"time": 116880, "pitch": 42, "duration": 60, "velocity": 96}, {"time": 117120, "pitch": 36, "duration": 60, "velocity": 115}, {"time": 117360, "pitch": 40, "duration": 60, "velocity": 96}, {"time": 117360, "pitch": 42, "duration": 60, "velocity": 96}, {"time": 117840, "pitch": 36, "duration": 60, "velocity": 115}, {"time": 117840, "pitch": 42, "duration": 60, "velocity": 96}, {"time": 118320, "pitch": 40, "duration": 60, "velocity": 96}, {"time": 118320, "pitch": 42, "duration": 60, "velocity": 96}, {"time": 118560, "pitch": 36, "duration": 60, "velocity": 115}, {"time": 118800, "pitch": 42, "duration": 60, "velocity": 96}, {"time": 119040, "pitch": 36, "duration": 60, "velocity": 115}, {"time": 119280, "pitch": 40, "duration": 60, "velocity": 96}, {"time": 119280, "pitch": 42, "duration": 60, "velocity": 96}, {"time": 119760, "pitch": 36, "duration": 60, "velocity": 115}, {"time": 119760, "pitch": 42, "duration": 60, "velocity": 96}, {"time": 120240, "pitch": 40, "duration": 60, "velocity": 96}, {"time": 120240, "pitch": 42, "duration": 60, "velocity": 96}, {"time": 120480, "pitch": 36, "duration": 60, "velocity": 115}, {"time": 120720, "pitch": 42, "duration": 60, "velocity": 96}, {"time": 120960, "pitch": 36, "duration": 60, "velocity": 115}, {"time": 121200, "pitch": 40, "duration": 60, "velocity": 96}, {"time": 121200, "pitch": 42, "duration": 60, "velocity": 96}, {"time": 121680, "pitch": 36, "duration": 60, "velocity": 115}, {"time": 121680, "pitch": 42, "duration": 60, "velocity": 96}, {"time": 122160, "pitch": 40, "duration": 60, "velocity": 96}, {"time": 122160, "pitch": 42, "duration": 60, "velocity": 96}, {"time": 122400, "pitch": 36, "duration": 60, "velocity": 115}, {"time": 122640, "pitch": 42, "duration": 60, "velocity": 96}, {"time": 122880, "pitch": 36, "duration": 60, "velocity": 115}, {"time": 123120, "pitch": 40, "duration": 60, "velocity": 96}, {"time": 123120, "pitch": 42, "duration": 60, "velocity": 96}, {"time": 123600, "pitch": 36, "duration": 60, "velocity": 115}, {"time": 123600, "pitch": 42, "duration": 60, "velocity": 96}, {"time": 124080, "pitch": 40, "duration": 60, "velocity": 96}, {"time": 124080, "pitch": 42, "duration": 60, "velocity": 96}, {"time": 124320, "pitch": 36, "duration": 60, "velocity": 115}, {"time": 124560, "pitch": 42, "duration": 60, "velocity": 96}, {"time": 124800, "pitch": 36, "duration": 60, "velocity": 115}, {"time": 125040, "pitch": 40, "duration": 60, "velocity": 96}, {"time": 125040, "pitch": 42, "duration": 60, "velocity": 96}, {"time": 125520, "pitch": 36, "duration": 60, "velocity": 115}, {"time": 125520, "pitch": 42, "duration": 60, "velocity": 96}, {"time": 126000, "pitch": 40, "duration": 60, "velocity": 96}, {"time": 126000, "pitch": 42, "duration": 60, "velocity": 96}, {"time": 126240, "pitch": 36, "duration": 60, "velocity": 115}, {"time": 126480, "pitch": 42, "duration": 60, "velocity": 96}, {"time": 126720, "pitch": 36, "duration": 60, "velocity": 115}, {"time": 126720, "pitch": 40, "duration": 60, "velocity": 96}, {"time": 126960, "pitch": 40, "duration": 60, "velocity": 96}, {"time": 126960, "pitch": 42, "duration": 60, "velocity": 96}, {"time": 127440, "pitch": 36, "duration": 60, "velocity": 115}, {"time": 127440, "pitch": 49, "duration": 60, "velocity": 96}, {"time": 127920, "pitch": 40, "duration": 60, "velocity": 96}, {"time": 127920, "pitch": 42, "duration": 60, "velocity": 96}, {"time": 128160, "pitch": 36, "duration": 60, "velocity": 115}, {"time": 128400, "pitch": 42, "duration": 60, "velocity": 96}, {"time": 128640, "pitch": 36, "duration": 60, "velocity": 115}, {"time": 128880, "pitch": 40, "duration": 60, "velocity": 96}, {"time": 128880, "pitch": 42, "duration": 60, "velocity": 96}, {"time": 129360, "pitch": 36, "duration": 60, "velocity": 115}, {"time": 129360, "pitch": 42, "duration": 60, "velocity": 96}, {"time": 129840, "pitch": 40, "duration": 60, "velocity": 96}, {"time": 129840, "pitch": 42, "duration": 60, "velocity": 96}, {"time": 130080, "pitch": 36, "duration": 60, "velocity": 115}, {"time": 130320, "pitch": 42, "duration": 60, "velocity": 96}, {"time": 130560, "pitch": 36, "duration": 60, "velocity": 115}, {"time": 130800, "pitch": 40, "duration": 60, "velocity": 96}, {"time": 130800, "pitch": 42, "duration": 60, "velocity": 96}, {"time": 131280, "pitch": 36, "duration": 60, "velocity": 115}, {"time": 131280, "pitch": 42, "duration": 60, "velocity": 96}, {"time": 131760, "pitch": 40, "duration": 60, "velocity": 96}, {"time": 131760, "pitch": 42, "duration": 60, "velocity": 96}, {"time": 132000, "pitch": 36, "duration": 60, "velocity": 115}, {"time": 132240, "pitch": 42, "duration": 60, "velocity": 96}, {"time": 132480, "pitch": 36, "duration": 60, "velocity": 115}, {"time": 132720, "pitch": 40, "duration": 60, "velocity": 96}, {"time": 132720, "pitch": 42, "duration": 60, "velocity": 96}, {"time": 133200, "pitch": 36, "duration": 60, "velocity": 115}, {"time": 133200, "pitch": 42, "duration": 60, "velocity": 96}, {"time": 133680, "pitch": 40, "duration": 60, "velocity": 96}, {"time": 133680, "pitch": 42, "duration": 60, "velocity": 96}, {"time": 133920, "pitch": 36, "duration": 60, "velocity": 115}, {"time": 134160, "pitch": 42, "duration": 60, "velocity": 96}, {"time": 134400, "pitch": 36, "duration": 60, "velocity": 115}, {"time": 134640, "pitch": 40, "duration": 60, "velocity": 96}, {"time": 134640, "pitch": 42, "duration": 60, "velocity": 96}, {"time": 135120, "pitch": 36, "duration": 60, "velocity": 115}, {"time": 135120, "pitch": 42, "duration": 60, "velocity": 96}, {"time": 135600, "pitch": 40, "duration": 60, "velocity": 96}, {"time": 135600, "pitch": 42, "duration": 60, "velocity": 96}, {"time": 135840, "pitch": 36, "duration": 60, "velocity": 115}, {"time": 136080, "pitch": 42, "duration": 60, "velocity": 96}, {"time": 136320, "pitch": 36, "duration": 60, "velocity": 115}, {"time": 136560, "pitch": 40, "duration": 60, "velocity": 96}, {"time": 136560, "pitch": 42, "duration": 60, "velocity": 96}, {"time": 137040, "pitch": 36, "duration": 60, "velocity": 115}, {"time": 137040, "pitch": 42, "duration": 60, "velocity": 96}, {"time": 137520, "pitch": 40, "duration": 60, "velocity": 96}, {"time": 137520, "pitch": 42, "duration": 60, "velocity": 96}, {"time": 137760, "pitch": 36, "duration": 60, "velocity": 115}, {"time": 138000, "pitch": 42, "duration": 60, "velocity": 96}, {"time": 138240, "pitch": 36, "duration": 60, "velocity": 115}, {"time": 138480, "pitch": 40, "duration": 60, "velocity": 96}, {"time": 138480, "pitch": 42, "duration": 60, "velocity": 96}, {"time": 138960, "pitch": 36, "duration": 60, "velocity": 115}, {"time": 138960, "pitch": 42, "duration": 60, "velocity": 96}, {"time": 139440, "pitch": 40, "duration": 60, "velocity": 96}, {"time": 139440, "pitch": 42, "duration": 60, "velocity": 96}, {"time": 139680, "pitch": 36, "duration": 60, "velocity": 115}, {"time": 139920, "pitch": 42, "duration": 60, "velocity": 96}, {"time": 140160, "pitch": 36, "duration": 60, "velocity": 115}, {"time": 140400, "pitch": 40, "duration": 60, "velocity": 96}, {"time": 140400, "pitch": 42, "duration": 60, "velocity": 96}, {"time": 140880, "pitch": 36, "duration": 60, "velocity": 115}, {"time": 140880, "pitch": 46, "duration": 60, "velocity": 96}, {"time": 141120, "pitch": 40, "duration": 60, "velocity": 96}, {"time": 141360, "pitch": 40, "duration": 60, "velocity": 96}, {"time": 141360, "pitch": 42, "duration": 60, "velocity": 96}, {"time": 141600, "pitch": 36, "duration": 60, "velocity": 115}, {"time": 141840, "pitch": 40, "duration": 60, "velocity": 96}, {"time": 141840, "pitch": 42, "duration": 60, "velocity": 96}, {"time": 142080, "pitch": 36, "duration": 60, "velocity": 115}, {"time": 142320, "pitch": 40, "duration": 60, "velocity": 96}, {"time": 142440, "pitch": 40, "duration": 60, "velocity": 96}, {"time": 142560, "pitch": 41, "duration": 60, "velocity": 96}, {"time": 142800, "pitch": 36, "duration": 60, "velocity": 115}, {"time": 142800, "pitch": 49, "duration": 60, "velocity": 96}, {"time": 143280, "pitch": 40, "duration": 60, "velocity": 96}, {"time": 143280, "pitch": 42, "duration": 60, "velocity": 96}, {"time": 143520, "pitch": 36, "duration": 60, "velocity": 115}, {"time": 143760, "pitch": 42, "duration": 60, "velocity": 96}, {"time": 144000, "pitch": 36, "duration": 60, "velocity": 115}, {"time": 144240, "pitch": 40, "duration": 60, "velocity": 96}, {"time": 144240, "pitch": 42, "duration": 60, "velocity": 96}, {"time": 144720, "pitch": 36, "duration": 60, "velocity": 115}, {"time": 144720, "pitch": 42, "duration": 60, "velocity": 96}, {"time": 145200, "pitch": 40, "duration": 60, "velocity": 96}, {"time": 145200, "pitch": 42, "duration": 60, "velocity": 96}, {"time": 145440, "pitch": 36, "duration": 60, "velocity": 115}, {"time": 145680, "pitch": 42, "duration": 60, "velocity": 96}, {"time": 145920, "pitch": 36, "duration": 60, "velocity": 115}, {"time": 146160, "pitch": 40, "duration": 60, "velocity": 96}, {"time": 146160, "pitch": 42, "duration": 60, "velocity": 96}, {"time": 146640, "pitch": 36, "duration": 60, "velocity": 115}, {"time": 146640, "pitch": 42, "duration": 60, "velocity": 96}, {"time": 147120, "pitch": 40, "duration": 60, "velocity": 96}, {"time": 147120, "pitch": 42, "duration": 60, "velocity": 96}, {"time": 147360, "pitch": 36, "duration": 60, "velocity": 115}, {"time": 147600, "pitch": 42, "duration": 60, "velocity": 96}, {"time": 147840, "pitch": 36, "duration": 60, "velocity": 115}, {"time": 148080, "pitch": 40, "duration": 60, "velocity": 96}, {"time": 148080, "pitch": 42, "duration": 60, "velocity": 96}, {"time": 148560, "pitch": 36, "duration": 60, "velocity": 115}, {"time": 148560, "pitch": 42, "duration": 60, "velocity": 96}, {"time": 149040, "pitch": 40, "duration": 60, "velocity": 96}, {"time": 149040, "pitch": 42, "duration": 60, "velocity": 96}, {"time": 149280, "pitch": 36, "duration": 60, "velocity": 115}, {"time": 149520, "pitch": 42, "duration": 60, "velocity": 96}, {"time": 149760, "pitch": 36, "duration": 60, "velocity": 115}, {"time": 150000, "pitch": 40, "duration": 60, "velocity": 96}, {"time": 150000, "pitch": 42, "duration": 60, "velocity": 96}, {"time": 150480, "pitch": 36, "duration": 60, "velocity": 115}, {"time": 150480, "pitch": 42, "duration": 60, "velocity": 96}, {"time": 150960, "pitch": 40, "duration": 60, "velocity": 96}, {"time": 150960, "pitch": 42, "duration": 60, "velocity": 96}, {"time": 151200, "pitch": 36, "duration": 60, "velocity": 115}, {"time": 151440, "pitch": 42, "duration": 60, "velocity": 96}, {"time": 151680, "pitch": 36, "duration": 60, "velocity": 115}, {"time": 151920, "pitch": 40, "duration": 60, "velocity": 96}, {"time": 151920, "pitch": 42, "duration": 60, "velocity": 96}, {"time": 152400, "pitch": 36, "duration": 60, "velocity": 115}, {"time": 152400, "pitch": 42, "duration": 60, "velocity": 96}, {"time": 152880, "pitch": 40, "duration": 60, "velocity": 96}, {"time": 152880, "pitch": 42, "duration": 60, "velocity": 96}, {"time": 153120, "pitch": 36, "duration": 60, "velocity": 115}, {"time": 153360, "pitch": 42, "duration": 60, "velocity": 96}, {"time": 153600, "pitch": 36, "duration": 60, "velocity": 115}, {"time": 153840, "pitch": 40, "duration": 60, "velocity": 96}, {"time": 153840, "pitch": 42, "duration": 60, "velocity": 96}, {"time": 154320, "pitch": 36, "duration": 60, "velocity": 115}, {"time": 154320, "pitch": 42, "duration": 60, "velocity": 96}, {"time": 154800, "pitch": 40, "duration": 60, "velocity": 96}, {"time": 154800, "pitch": 42, "duration": 60, "velocity": 96}, {"time": 155040, "pitch": 36, "duration": 60, "velocity": 115}, {"time": 155280, "pitch": 42, "duration": 60, "velocity": 96}, {"time": 155520, "pitch": 36, "duration": 60, "velocity": 115}, {"time": 155760, "pitch": 40, "duration": 60, "velocity": 96}, {"time": 155760, "pitch": 42, "duration": 60, "velocity": 96}, {"time": 156240, "pitch": 36, "duration": 60, "velocity": 115}, {"time": 156240, "pitch": 46, "duration": 60, "velocity": 96}, {"time": 156480, "pitch": 40, "duration": 60, "velocity": 96}, {"time": 156720, "pitch": 40, "duration": 60, "velocity": 96}, {"time": 156960, "pitch": 36, "duration": 60, "velocity": 115}, {"time": 157200, "pitch": 40, "duration": 60, "velocity": 96}, {"time": 157200, "pitch": 46, "duration": 60, "velocity": 96}, {"time": 157440, "pitch": 36, "duration": 60, "velocity": 115}, {"time": 157680, "pitch": 40, "duration": 60, "velocity": 96}, {"time": 157800, "pitch": 40, "duration": 60, "velocity": 96}, {"time": 157920, "pitch": 41, "duration": 60, "velocity": 96}, {"time": 158160, "pitch": 36, "duration": 60, "velocity": 115}, {"time": 158160, "pitch": 49, "duration": 60, "velocity": 96}, {"time": 158640, "pitch": 40, "duration": 60, "velocity": 96}, {"time": 158640, "pitch": 42, "duration": 60, "velocity": 96}, {"time": 158880, "pitch": 36, "duration": 60, "velocity": 115}, {"time": 159120, "pitch": 42, "duration": 60, "velocity": 96}, {"time": 159360, "pitch": 36, "duration": 60, "velocity": 115}, {"time": 159600, "pitch": 40, "duration": 60, "velocity": 96}, {"time": 159600, "pitch": 42, "duration": 60, "velocity": 96}, {"time": 160080, "pitch": 36, "duration": 60, "velocity": 115}, {"time": 160080, "pitch": 42, "duration": 60, "velocity": 96}, {"time": 160560, "pitch": 40, "duration": 60, "velocity": 96}, {"time": 160560, "pitch": 42, "duration": 60, "velocity": 96}, {"time": 160800, "pitch": 36, "duration": 60, "velocity": 115}, {"time": 161040, "pitch": 42, "duration": 60, "velocity": 96}, {"time": 161280, "pitch": 36, "duration": 60, "velocity": 115}, {"time": 161520, "pitch": 40, "duration": 60, "velocity": 96}, {"time": 161520, "pitch": 42, "duration": 60, "velocity": 96}, {"time": 162000, "pitch": 36, "duration": 60, "velocity": 115}, {"time": 162000, "pitch": 42, "duration": 60, "velocity": 96}, {"time": 162480, "pitch": 40, "duration": 60, "velocity": 96}, {"time": 162480, "pitch": 42, "duration": 60, "velocity": 96}, {"time": 162720, "pitch": 36, "duration": 60, "velocity": 115}, {"time": 162960, "pitch": 42, "duration": 60, "velocity": 96}, {"time": 163200, "pitch": 36, "duration": 60, "velocity": 115}, {"time": 163440, "pitch": 40, "duration": 60, "velocity": 96}, {"time": 163440, "pitch": 42, "duration": 60, "velocity": 96}, {"time": 163920, "pitch": 36, "duration": 60, "velocity": 115}, {"time": 163920, "pitch": 42, "duration": 60, "velocity": 96}, {"time": 164400, "pitch": 40, "duration": 60, "velocity": 96}, {"time": 164400, "pitch": 42, "duration": 60, "velocity": 96}, {"time": 164640, "pitch": 36, "duration": 60, "velocity": 115}, {"time": 164880, "pitch": 42, "duration": 60, "velocity": 96}, {"time": 165120, "pitch": 36, "duration": 60, "velocity": 115}, {"time": 165360, "pitch": 40, "duration": 60, "velocity": 96}, {"time": 165360, "pitch": 42, "duration": 60, "velocity": 96}, {"time": 165840, "pitch": 36, "duration": 60, "velocity": 115}, {"time": 165840, "pitch": 42, "duration": 60, "velocity": 96}, {"time": 166320, "pitch": 40, "duration": 60, "velocity": 96}, {"time": 166320, "pitch": 42, "duration": 60, "velocity": 96}, {"time": 166560, "pitch": 36, "duration": 60, "velocity": 115}, {"time": 166800, "pitch": 42, "duration": 60, "velocity": 96}, {"time": 167040, "pitch": 36, "duration": 60, "velocity": 115}, {"time": 167280, "pitch": 40, "duration": 60, "velocity": 96}, {"time": 167280, "pitch": 42, "duration": 60, "velocity": 96}, {"time": 167760, "pitch": 36, "duration": 60, "velocity": 115}, {"time": 167760, "pitch": 42, "duration": 60, "velocity": 96}, {"time": 168240, "pitch": 40, "duration": 60, "velocity": 96}, {"time": 168240, "pitch": 42, "duration": 60, "velocity": 96}, {"time": 168480, "pitch": 36, "duration": 60, "velocity": 115}, {"time": 168720, "pitch": 42, "duration": 60, "velocity": 96}, {"time": 168960, "pitch": 36, "duration": 60, "velocity": 115}, {"time": 169200, "pitch": 40, "duration": 60, "velocity": 96}, {"time": 169200, "pitch": 42, "duration": 60, "velocity": 96}, {"time": 169680, "pitch": 36, "duration": 60, "velocity": 115}, {"time": 169680, "pitch": 42, "duration": 60, "velocity": 96}, {"time": 170160, "pitch": 40, "duration": 60, "velocity": 96}, {"time": 170160, "pitch": 42, "duration": 60, "velocity": 96}, {"time": 170400, "pitch": 36, "duration": 60, "velocity": 115}, {"time": 170640, "pitch": 42, "duration": 60, "velocity": 96}, {"time": 170880, "pitch": 36, "duration": 60, "velocity": 115}, {"time": 171120, "pitch": 40, "duration": 60, "velocity": 96}, {"time": 171120, "pitch": 42, "duration": 60, "velocity": 96}, {"time": 171600, "pitch": 36, "duration": 60, "velocity": 115}, {"time": 171600, "pitch": 46, "duration": 60, "velocity": 96}, {"time": 172080, "pitch": 40, "duration": 60, "velocity": 96}, {"time": 172080, "pitch": 46, "duration": 60, "velocity": 96}, {"time": 172320, "pitch": 36, "duration": 60, "velocity": 115}, {"time": 172560, "pitch": 40, "duration": 60, "velocity": 96}, {"time": 172560, "pitch": 46, "duration": 60, "velocity": 96}, {"time": 172800, "pitch": 36, "duration": 60, "velocity": 115}, {"time": 173040, "pitch": 40, "duration": 60, "velocity": 96}, {"time": 173160, "pitch": 40, "duration": 60, "velocity": 96}, {"time": 173280, "pitch": 41, "duration": 60, "velocity": 96}, {"time": 173520, "pitch": 36, "duration": 60, "velocity": 115}, {"time": 173520, "pitch": 49, "duration": 60, "velocity": 96}, {"time": 174000, "pitch": 40, "duration": 60, "velocity": 96}, {"time": 174000, "pitch": 42, "duration": 60, "velocity": 96}, {"time": 174240, "pitch": 36, "duration": 60, "velocity": 115}, {"time": 174480, "pitch": 42, "duration": 60, "velocity": 96}, {"time": 174720, "pitch": 36, "duration": 60, "velocity": 115}, {"time": 174960, "pitch": 40, "duration": 60, "velocity": 96}, {"time": 174960, "pitch": 42, "duration": 60, "velocity": 96}, {"time": 175440, "pitch": 36, "duration": 60, "velocity": 115}, {"time": 175440, "pitch": 42, "duration": 60, "velocity": 96}, {"time": 175920, "pitch": 40, "duration": 60, "velocity": 96}, {"time": 175920, "pitch": 42, "duration": 60, "velocity": 96}, {"time": 176160, "pitch": 36, "duration": 60, "velocity": 115}, {"time": 176400, "pitch": 42, "duration": 60, "velocity": 96}, {"time": 176640, "pitch": 36, "duration": 60, "velocity": 115}, {"time": 176880, "pitch": 40, "duration": 60, "velocity": 96}, {"time": 176880, "pitch": 42, "duration": 60, "velocity": 96}, {"time": 177360, "pitch": 36, "duration": 60, "velocity": 115}, {"time": 177360, "pitch": 42, "duration": 60, "velocity": 96}, {"time": 177840, "pitch": 40, "duration": 60, "velocity": 96}, {"time": 177840, "pitch": 42, "duration": 60, "velocity": 96}, {"time": 178080, "pitch": 36, "duration": 60, "velocity": 115}, {"time": 178320, "pitch": 42, "duration": 60, "velocity": 96}, {"time": 178560, "pitch": 36, "duration": 60, "velocity": 115}, {"time": 178800, "pitch": 40, "duration": 60, "velocity": 96}, {"time": 178800, "pitch": 42, "duration": 60, "velocity": 96}, {"time": 179280, "pitch": 36, "duration": 60, "velocity": 115}, {"time": 179280, "pitch": 42, "duration": 60, "velocity": 96}, {"time": 179760, "pitch": 40, "duration": 60, "velocity": 96}, {"time": 179760, "pitch": 42, "duration": 60, "velocity": 96}, {"time": 180000, "pitch": 36, "duration": 60, "velocity": 115}, {"time": 180240, "pitch": 42, "duration": 60, "velocity": 96}, {"time": 180480, "pitch": 36, "duration": 60, "velocity": 115}, {"time": 180720, "pitch": 40, "duration": 60, "velocity": 96}, {"time": 180720, "pitch": 42, "duration": 60, "velocity": 96}, {"time": 181200, "pitch": 36, "duration": 60, "velocity": 115}, {"time": 181200, "pitch": 49, "duration": 60, "velocity": 96}, {"time": 181680, "pitch": 40, "duration": 60, "velocity": 96}, {"time": 181680, "pitch": 42, "duration": 60, "velocity": 96}, {"time": 181920, "pitch": 36, "duration": 60, "velocity": 115}, {"time": 182160, "pitch": 42, "duration": 60, "velocity": 96}, {"time": 182400, "pitch": 36, "duration": 60, "velocity": 115}, {"time": 182640, "pitch": 40, "duration": 60, "velocity": 96}, {"time": 182640, "pitch": 42, "duration": 60, "velocity": 96}, {"time": 183120, "pitch": 36, "duration": 60, "velocity": 115}, {"time": 183120, "pitch": 42, "duration": 60, "velocity": 96}, {"time": 183600, "pitch": 40, "duration": 60, "velocity": 96}, {"time": 183600, "pitch": 42, "duration": 60, "velocity": 96}, {"time": 183840, "pitch": 36, "duration": 60, "velocity": 115}, {"time": 184080, "pitch": 42, "duration": 60, "velocity": 96}, {"time": 184320, "pitch": 36, "duration": 60, "velocity": 115}, {"time": 184560, "pitch": 40, "duration": 60, "velocity": 96}, {"time": 184560, "pitch": 42, "duration": 60, "velocity": 96}, {"time": 185040, "pitch": 36, "duration": 60, "velocity": 115}, {"time": 185040, "pitch": 42, "duration": 60, "velocity": 96}, {"time": 185520, "pitch": 40, "duration": 60, "velocity": 96}, {"time": 185520, "pitch": 42, "duration": 60, "velocity": 96}, {"time": 185760, "pitch": 36, "duration": 60, "velocity": 115}, {"time": 186000, "pitch": 42, "duration": 60, "velocity": 96}, {"time": 186240, "pitch": 36, "duration": 60, "velocity": 115}, {"time": 186480, "pitch": 40, "duration": 60, "velocity": 96}, {"time": 186480, "pitch": 42, "duration": 60, "velocity": 96}, {"time": 186720, "pitch": 36, "duration": 60, "velocity": 127}, {"time": 186960, "pitch": 42, "duration": 60, "velocity": 96}, {"time": 187200, "pitch": 40, "duration": 60, "velocity": 121}, {"time": 187440, "pitch": 40, "duration": 60, "velocity": 96}, {"time": 187440, "pitch": 42, "duration": 60, "velocity": 96}, {"time": 187680, "pitch": 36, "duration": 60, "velocity": 115}, {"time": 187920, "pitch": 40, "duration": 60, "velocity": 121}, {"time": 187920, "pitch": 42, "duration": 60, "velocity": 96}, {"time": 188160, "pitch": 36, "duration": 60, "velocity": 115}, {"time": 188400, "pitch": 40, "duration": 60, "velocity": 96}, {"time": 188400, "pitch": 46, "duration": 60, "velocity": 96}, {"time": 196080, "pitch": 46, "duration": 60, "velocity": 96}, {"time": 196560, "pitch": 36, "duration": 60, "velocity": 115}, {"time": 197280, "pitch": 36, "duration": 60, "velocity": 115}, {"time": 198000, "pitch": 37, "duration": 60, "velocity": 96}, {"time": 198480, "pitch": 36, "duration": 60, "velocity": 115}, {"time": 199200, "pitch": 36, "duration": 60, "velocity": 115}, {"time": 199920, "pitch": 37, "duration": 60, "velocity": 96}, {"time": 200400, "pitch": 36, "duration": 60, "velocity": 115}, {"time": 201120, "pitch": 36, "duration": 60, "velocity": 115}, {"time": 201600, "pitch": 36, "duration": 60, "velocity": 115}, {"time": 201840, "pitch": 40, "duration": 60, "velocity": 96}, {"time": 201840, "pitch": 46, "duration": 60, "velocity": 96}, {"time": 202320, "pitch": 36, "duration": 60, "velocity": 115}, {"time": 202560, "pitch": 36, "duration": 60, "velocity": 115}, {"time": 202560, "pitch": 40, "duration": 60, "velocity": 96}, {"time": 202560, "pitch": 46, "duration": 60, "velocity": 96}, {"time": 202800, "pitch": 36, "duration": 60, "velocity": 115}, {"time": 202800, "pitch": 40, "duration": 60, "velocity": 96}, {"time": 202800, "pitch": 46, "duration": 60, "velocity": 96}, {"time": 203040, "pitch": 36, "duration": 60, "velocity": 115}, {"time": 203040, "pitch": 40, "duration": 60, "velocity": 96}, {"time": 203040, "pitch": 46, "duration": 60, "velocity": 96}, {"time": 203280, "pitch": 36, "duration": 60, "velocity": 115}, {"time": 203280, "pitch": 40, "duration": 60, "velocity": 96}, {"time": 203280, "pitch": 46, "duration": 60, "velocity": 96}, {"time": 203520, "pitch": 40, "duration": 60, "velocity": 96}, {"time": 203760, "pitch": 40, "duration": 60, "velocity": 96}, {"time": 203880, "pitch": 40, "duration": 60, "velocity": 96}, {"time": 204000, "pitch": 41, "duration": 60, "velocity": 96}, {"time": 204240, "pitch": 36, "duration": 60, "velocity": 115}, {"time": 204240, "pitch": 49, "duration": 60, "velocity": 96}, {"time": 204720, "pitch": 40, "duration": 60, "velocity": 96}, {"time": 204720, "pitch": 42, "duration": 60, "velocity": 96}, {"time": 204960, "pitch": 36, "duration": 60, "velocity": 115}, {"time": 205200, "pitch": 42, "duration": 60, "velocity": 96}, {"time": 205440, "pitch": 36, "duration": 60, "velocity": 115}, {"time": 205680, "pitch": 40, "duration": 60, "velocity": 96}, {"time": 205680, "pitch": 42, "duration": 60, "velocity": 96}, {"time": 206160, "pitch": 36, "duration": 60, "velocity": 115}, {"time": 206160, "pitch": 42, "duration": 60, "velocity": 96}, {"time": 206640, "pitch": 40, "duration": 60, "velocity": 96}, {"time": 206640, "pitch": 42, "duration": 60, "velocity": 96}, {"time": 206880, "pitch": 36, "duration": 60, "velocity": 115}, {"time": 207120, "pitch": 42, "duration": 60, "velocity": 96}, {"time": 207360, "pitch": 36, "duration": 60, "velocity": 115}, {"time": 207600, "pitch": 40, "duration": 60, "velocity": 96}, {"time": 207600, "pitch": 42, "duration": 60, "velocity": 96}, {"time": 208080, "pitch": 36, "duration": 60, "velocity": 115}, {"time": 208080, "pitch": 42, "duration": 60, "velocity": 96}, {"time": 208560, "pitch": 40, "duration": 60, "velocity": 96}, {"time": 208560, "pitch": 42, "duration": 60, "velocity": 96}, {"time": 208800, "pitch": 36, "duration": 60, "velocity": 115}, {"time": 209040, "pitch": 42, "duration": 60, "velocity": 96}, {"time": 209280, "pitch": 36, "duration": 60, "velocity": 115}, {"time": 209520, "pitch": 40, "duration": 60, "velocity": 96}, {"time": 209520, "pitch": 42, "duration": 60, "velocity": 96}, {"time": 210000, "pitch": 36, "duration": 60, "velocity": 115}, {"time": 210000, "pitch": 42, "duration": 60, "velocity": 96}, {"time": 210480, "pitch": 40, "duration": 60, "velocity": 96}, {"time": 210480, "pitch": 42, "duration": 60, "velocity": 96}, {"time": 210720, "pitch": 36, "duration": 60, "velocity": 115}, {"time": 210960, "pitch": 42, "duration": 60, "velocity": 96}, {"time": 211200, "pitch": 36, "duration": 60, "velocity": 115}, {"time": 211440, "pitch": 40, "duration": 60, "velocity": 96}, {"time": 211440, "pitch": 42, "duration": 60, "velocity": 96}, {"time": 211920, "pitch": 36, "duration": 60, "velocity": 115}, {"time": 211920, "pitch": 49, "duration": 60, "velocity": 96}, {"time": 212400, "pitch": 40, "duration": 60, "velocity": 96}, {"time": 212400, "pitch": 42, "duration": 60, "velocity": 96}, {"time": 212640, "pitch": 36, "duration": 60, "velocity": 115}, {"time": 212880, "pitch": 42, "duration": 60, "velocity": 96}, {"time": 213120, "pitch": 36, "duration": 60, "velocity": 115}, {"time": 213360, "pitch": 40, "duration": 60, "velocity": 96}, {"time": 213360, "pitch": 42, "duration": 60, "velocity": 96}, {"time": 213840, "pitch": 36, "duration": 60, "velocity": 115}, {"time": 213840, "pitch": 42, "duration": 60, "velocity": 96}, {"time": 214320, "pitch": 40, "duration": 60, "velocity": 96}, {"time": 214320, "pitch": 42, "duration": 60, "velocity": 96}, {"time": 214560, "pitch": 36, "duration": 60, "velocity": 115}, {"time": 214800, "pitch": 42, "duration": 60, "velocity": 96}, {"time": 215040, "pitch": 36, "duration": 60, "velocity": 115}, {"time": 215280, "pitch": 40, "duration": 60, "velocity": 96}, {"time": 215280, "pitch": 42, "duration": 60, "velocity": 96}, {"time": 215760, "pitch": 36, "duration": 60, "velocity": 115}, {"time": 215760, "pitch": 42, "duration": 60, "velocity": 96}, {"time": 216240, "pitch": 40, "duration": 60, "velocity": 96}, {"time": 216240, "pitch": 42, "duration": 60, "velocity": 96}, {"time": 216480, "pitch": 36, "duration": 60, "velocity": 115}, {"time": 216720, "pitch": 42, "duration": 60, "velocity": 96}, {"time": 216960, "pitch": 36, "duration": 60, "velocity": 115}, {"time": 217200, "pitch": 40, "duration": 60, "velocity": 96}, {"time": 217200, "pitch": 42, "duration": 60, "velocity": 96}, {"time": 217680, "pitch": 36, "duration": 60, "velocity": 115}, {"time": 217680, "pitch": 42, "duration": 60, "velocity": 96}, {"time": 218160, "pitch": 40, "duration": 60, "velocity": 96}, {"time": 218160, "pitch": 42, "duration": 60, "velocity": 96}, {"time": 218400, "pitch": 36, "duration": 60, "velocity": 115}, {"time": 218640, "pitch": 42, "duration": 60, "velocity": 96}, {"time": 218880, "pitch": 36, "duration": 60, "velocity": 115}, {"time": 219120, "pitch": 40, "duration": 60, "velocity": 96}, {"time": 219120, "pitch": 42, "duration": 60, "velocity": 96}, {"time": 58080, "pitch": 64, "duration": 240, "velocity": 100}, {"time": 58320, "pitch": 71, "duration": 240, "velocity": 100}, {"time": 58560, "pitch": 67, "duration": 240, "velocity": 100}, {"time": 58800, "pitch": 71, "duration": 240, "velocity": 100}, {"time": 59040, "pitch": 72, "duration": 240, "velocity": 100}, {"time": 59520, "pitch": 67, "duration": 240, "velocity": 100}, {"time": 60000, "pitch": 74, "duration": 480, "velocity": 100}, {"time": 60480, "pitch": 72, "duration": 240, "velocity": 100}, {"time": 60720, "pitch": 71, "duration": 240, "velocity": 100}, {"time": 60960, "pitch": 72, "duration": 720, "velocity": 100}, {"time": 61920, "pitch": 67, "duration": 240, "velocity": 100}, {"time": 62160, "pitch": 69, "duration": 240, "velocity": 100}, {"time": 62400, "pitch": 65, "duration": 240, "velocity": 100}, {"time": 62640, "pitch": 69, "duration": 240, "velocity": 100}, {"time": 62880, "pitch": 72, "duration": 240, "velocity": 100}, {"time": 63360, "pitch": 67, "duration": 240, "velocity": 100}, {"time": 63840, "pitch": 74, "duration": 480, "velocity": 100}, {"time": 64320, "pitch": 72, "duration": 240, "velocity": 100}, {"time": 64560, "pitch": 69, "duration": 240, "velocity": 100}, {"time": 64800, "pitch": 71, "duration": 360, "velocity": 100}, {"time": 73440, "pitch": 64, "duration": 240, "velocity": 100}, {"time": 73680, "pitch": 71, "duration": 240, "velocity": 100}, {"time": 73920, "pitch": 67, "duration": 240, "velocity": 100}, {"time": 74160, "pitch": 71, "duration": 240, "velocity": 100}, {"time": 74400, "pitch": 72, "duration": 240, "velocity": 100}, {"time": 74880, "pitch": 67, "duration": 240, "velocity": 100}, {"time": 75360, "pitch": 74, "duration": 480, "velocity": 100}, {"time": 75840, "pitch": 72, "duration": 240, "velocity": 100}, {"time": 76080, "pitch": 71, "duration": 240, "velocity": 100}, {"time": 76320, "pitch": 72, "duration": 720, "velocity": 100}, {"time": 77280, "pitch": 67, "duration": 240, "velocity": 100}, {"time": 77520, "pitch": 69, "duration": 240, "velocity": 100}, {"time": 77760, "pitch": 65, "duration": 240, "velocity": 100}, {"time": 78000, "pitch": 69, "duration": 240, "velocity": 100}, {"time": 78240, "pitch": 72, "duration": 240, "velocity": 100}, {"time": 78720, "pitch": 67, "duration": 240, "velocity": 100}, {"time": 79200, "pitch": 74, "duration": 480, "velocity": 100}, {"time": 79680, "pitch": 72, "duration": 240, "velocity": 100}, {"time": 79920, "pitch": 69, "duration": 240, "velocity": 100}, {"time": 80160, "pitch": 71, "duration": 360, "velocity": 100}, {"time": 142560, "pitch": 64, "duration": 240, "velocity": 100}, {"time": 142800, "pitch": 71, "duration": 240, "velocity": 100}, {"time": 143040, "pitch": 67, "duration": 240, "velocity": 100}, {"time": 143280, "pitch": 71, "duration": 240, "velocity": 100}, {"time": 143520, "pitch": 72, "duration": 240, "velocity": 100}, {"time": 144000, "pitch": 67, "duration": 240, "velocity": 100}, {"time": 144480, "pitch": 74, "duration": 480, "velocity": 100}, {"time": 144960, "pitch": 72, "duration": 240, "velocity": 100}, {"time": 145200, "pitch": 71, "duration": 240, "velocity": 100}, {"time": 145440, "pitch": 72, "duration": 720, "velocity": 100}, {"time": 146400, "pitch": 67, "duration": 240, "velocity": 100}, {"time": 146640, "pitch": 69, "duration": 240, "velocity": 100}, {"time": 146880, "pitch": 65, "duration": 240, "velocity": 100}, {"time": 147120, "pitch": 69, "duration": 240, "velocity": 100}, {"time": 147360, "pitch": 72, "duration": 240, "velocity": 100}, {"time": 147840, "pitch": 67, "duration": 240, "velocity": 100}, {"time": 148320, "pitch": 74, "duration": 480, "velocity": 100}, {"time": 148800, "pitch": 72, "duration": 240, "velocity": 100}, {"time": 149040, "pitch": 69, "duration": 240, "velocity": 100}, {"time": 149280, "pitch": 71, "duration": 360, "velocity": 100}, {"time": 157920, "pitch": 64, "duration": 240, "velocity": 100}, {"time": 158160, "pitch": 71, "duration": 240, "velocity": 100}, {"time": 158400, "pitch": 67, "duration": 240, "velocity": 100}, {"time": 158640, "pitch": 71, "duration": 240, "velocity": 100}, {"time": 158880, "pitch": 72, "duration": 240, "velocity": 100}, {"time": 159360, "pitch": 67, "duration": 240, "velocity": 100}, {"time": 159840, "pitch": 74, "duration": 480, "velocity": 100}, {"time": 160320, "pitch": 72, "duration": 240, "velocity": 100}, {"time": 160560, "pitch": 71, "duration": 240, "velocity": 100}, {"time": 160800, "pitch": 72, "duration": 720, "velocity": 100}, {"time": 161760, "pitch": 67, "duration": 240, "velocity": 100}, {"time": 162000, "pitch": 69, "duration": 240, "velocity": 100}, {"time": 162240, "pitch": 65, "duration": 240, "velocity": 100}, {"time": 162480, "pitch": 69, "duration": 240, "velocity": 100}, {"time": 162720, "pitch": 72, "duration": 240, "velocity": 100}, {"time": 163200, "pitch": 67, "duration": 240, "velocity": 100}, {"time": 163680, "pitch": 74, "duration": 480, "velocity": 100}, {"time": 164160, "pitch": 72, "duration": 240, "velocity": 100}, {"time": 164400, "pitch": 69, "duration": 240, "velocity": 100}, {"time": 164640, "pitch": 71, "duration": 360, "velocity": 100}, {"time": 204000, "pitch": 64, "duration": 240, "velocity": 100}, {"time": 204240, "pitch": 71, "duration": 240, "velocity": 100}, {"time": 204480, "pitch": 67, "duration": 240, "velocity": 100}, {"time": 204720, "pitch": 71, "duration": 240, "velocity": 100}, {"time": 204960, "pitch": 72, "duration": 240, "velocity": 100}, {"time": 205440, "pitch": 67, "duration": 240, "velocity": 100}, {"time": 205920, "pitch": 74, "duration": 480, "velocity": 100}, {"time": 206400, "pitch": 72, "duration": 240, "velocity": 100}, {"time": 206640, "pitch": 71, "duration": 240, "velocity": 100}, {"time": 206880, "pitch": 72, "duration": 720, "velocity": 100}, {"time": 207840, "pitch": 67, "duration": 240, "velocity": 100}, {"time": 208080, "pitch": 69, "duration": 240, "velocity": 100}, {"time": 208320, "pitch": 65, "duration": 240, "velocity": 100}, {"time": 208560, "pitch": 69, "duration": 240, "velocity": 100}, {"time": 208800, "pitch": 72, "duration": 240, "velocity": 100}, {"time": 209280, "pitch": 67, "duration": 240, "velocity": 100}, {"time": 209760, "pitch": 74, "duration": 480, "velocity": 100}, {"time": 210240, "pitch": 72, "duration": 240, "velocity": 100}, {"time": 210480, "pitch": 69, "duration": 240, "velocity": 100}, {"time": 210720, "pitch": 71, "duration": 360, "velocity": 100}]}]}